<?xml version="1.0" encoding="utf-8"?>
<!-- Generator: Adobe Illustrator 22.1.0, SVG Export Plug-In . SVG Version: 6.00 Build 0)  -->
<svg version="1.1" id="Layer_1" xmlns="http://www.w3.org/2000/svg" xmlns:xlink="http://www.w3.org/1999/xlink" x="0px" y="0px"
	 viewBox="0 0 450.8 121.6" style="enable-background:new 0 0 450.8 121.6;" xml:space="preserve">
<style type="text/css">
	.st0{fill:none;stroke:#000000;stroke-width:0.8504;stroke-miterlimit:10;}
	.st1{fill:#1D1D1B;}
	.st2{fill:none;stroke:#000000;stroke-width:2.2677;stroke-miterlimit:10;}
	.st3{stroke:#000000;stroke-width:0.8504;stroke-miterlimit:10;}
	.st4{fill:none;stroke:#000000;stroke-width:0.8504;stroke-linecap:round;stroke-miterlimit:10;stroke-dasharray:0,3.9921;}
	
		.st5{fill:none;stroke:#000000;stroke-width:2.2677;stroke-linecap:round;stroke-miterlimit:10;stroke-dasharray:0,7.9015;stroke-dashoffset:-1;}
</style>
<g>
	<polyline points="190.3,54.4 194.9,52.2 190.3,49.9 191.5,52.2 	"/>
	<line class="st0" x1="0" y1="52.2" x2="191.5" y2="52.2"/>
	<polyline points="104,7.1 101.7,2.6 99.4,7.1 101.7,6 	"/>
	<line class="st0" x1="101.7" y1="87.6" x2="101.7" y2="6"/>
	<g>
		<path class="st1" d="M115.3,6.7c-0.1,0.4-0.2,0.7-0.2,0.9c0,0.3,0.2,0.7,0.5,0.7c0.3,0,1-0.2,1.3-1.3c0-0.1,0-0.1,0.1-0.1
			c0,0,0.1,0,0.1,0.1c0,0.2-0.6,1.5-1.6,1.5c-0.6,0-1-0.4-1.1-0.8c0,0.1-0.4,0.8-1,0.8c-0.4,0-0.9-0.2-0.9-0.7
			c0-0.3,0.2-0.6,0.5-0.6c0.1,0,0.4,0.1,0.4,0.3c0,0.3-0.2,0.5-0.5,0.5c0.2,0.1,0.4,0.1,0.5,0.1c0.4,0,0.8-0.4,0.9-1
			c0.4-1.4,0.5-2.1,0.5-2.4c0-0.6-0.3-0.7-0.5-0.7c-0.3,0-1,0.2-1.3,1.3c0,0.1-0.1,0.1-0.1,0.1c0,0-0.1,0-0.1-0.1
			c0-0.2,0.6-1.5,1.6-1.5c0.3,0,0.8,0.1,1.1,0.8c0.1-0.2,0.5-0.8,1-0.8c0.3,0,0.9,0.1,0.9,0.7c0,0.4-0.3,0.6-0.5,0.6
			c-0.3,0-0.4-0.2-0.4-0.3c0-0.2,0.2-0.5,0.5-0.5c-0.2-0.1-0.4-0.1-0.5-0.1c-0.7,0-0.9,0.9-1,1.2L115.3,6.7z"/>
	</g>
	<g>
		<path class="st1" d="M119.3,7.5c0,0,0-0.1,0-0.2c0-0.2,0-0.3-0.2-0.3c-0.3,0-0.4,0.3-0.5,0.8c0,0.2-0.1,0.2-0.2,0.2
			c0,0-0.1,0-0.1-0.1c0,0,0.1-0.5,0.3-0.7c0.1-0.2,0.3-0.4,0.6-0.4c0.2,0,0.6,0.1,0.7,0.5c0.2-0.2,0.6-0.5,1-0.5c0.5,0,1,0.3,1,1.2
			c0,1-0.9,2-1.8,2c-0.4,0-0.6-0.3-0.7-0.4c-0.1,0.3-0.2,0.7-0.3,1c0,0.1-0.1,0.3-0.1,0.3c0,0.1,0.2,0.1,0.3,0.1
			c0.1,0,0.2,0,0.2,0.1c0,0.1-0.1,0.2-0.1,0.2c-0.2,0-0.5,0-0.7,0c-0.2,0-0.4,0-0.6,0c0,0-0.1,0-0.1-0.1c0-0.1,0.1-0.1,0.2-0.1
			c0.3,0,0.3-0.1,0.3-0.3L119.3,7.5z M119.5,9c0,0,0,0.1,0,0.1c0,0.1,0.1,0.6,0.6,0.6c0.4,0,0.7-0.3,0.9-0.7
			c0.2-0.4,0.4-1.1,0.4-1.4c0-0.5-0.2-0.7-0.5-0.7c-0.2,0-0.6,0.1-1,0.6L119.5,9z"/>
	</g>
	<g>
		<path class="st1" d="M125.7,10.9c-0.1,0-1-0.6-1.6-1.9c-0.5-1.1-0.7-2.3-0.7-3.1c0-0.8,0.1-1.9,0.6-3c0.6-1.3,1.5-1.9,1.6-1.9
			c0.1,0,0.1,0,0.1,0.1c0,0,0,0-0.1,0.2c-1.2,1.2-1.6,3-1.6,4.7c0,1.5,0.3,3.4,1.6,4.7C125.8,10.7,125.8,10.7,125.7,10.9
			C125.8,10.8,125.8,10.9,125.7,10.9z"/>
	</g>
	<g>
		<path class="st1" d="M127.7,7.3c0,0.2-0.1,0.2-0.1,0.5c0,0.3,0.1,0.5,0.3,0.5c0.3,0,0.9-0.2,1.3-1.3c0-0.1,0.1-0.1,0.1-0.1
			c0,0,0.1,0,0.1,0.1c0,0.1-0.6,1.5-1.6,1.5c-0.5,0-0.9-0.4-0.9-0.9c0-0.2,0-0.3,0.8-3.2h-0.9c-0.2,0-0.3,0-0.3-0.1
			c0-0.2,0.1-0.2,0.3-0.2h0.9l0.4-1.6c0.1-0.3,0.4-0.4,0.4-0.4c0.2,0,0.3,0.1,0.3,0.3c0,0.1,0,0.3-0.4,1.7h0.9c0.2,0,0.3,0,0.3,0.1
			c0,0.2-0.1,0.2-0.3,0.2h-0.9L127.7,7.3z"/>
	</g>
	<g>
		<path class="st1" d="M132.2,8.9c-0.6,1.3-1.5,1.9-1.6,1.9c-0.1,0-0.1,0-0.1-0.1c0,0,0-0.1,0.1-0.2c1.2-1.3,1.6-3,1.6-4.7
			c0-2.1-0.6-3.7-1.5-4.7c-0.2-0.2-0.2-0.2-0.2-0.2c0-0.1,0-0.1,0.1-0.1c0.1,0,1,0.6,1.6,1.9c0.5,1.1,0.7,2.3,0.7,3.1
			C132.9,6.7,132.7,7.8,132.2,8.9z"/>
	</g>
	<g>
		<path class="st1" d="M202.2,53.6c0,0.2-0.1,0.2-0.1,0.5c0,0.3,0.1,0.5,0.3,0.5c0.3,0,0.9-0.2,1.3-1.3c0-0.1,0.1-0.1,0.1-0.1
			c0,0,0.1,0,0.1,0.1c0,0.1-0.6,1.5-1.6,1.5c-0.5,0-0.9-0.4-0.9-0.9c0-0.2,0-0.3,0.8-3.2h-0.9c-0.2,0-0.3,0-0.3-0.1
			c0-0.2,0.1-0.2,0.3-0.2h0.9l0.4-1.6c0.1-0.3,0.4-0.4,0.4-0.4c0.2,0,0.3,0.1,0.3,0.3c0,0.1,0,0.3-0.4,1.7h0.9c0.2,0,0.3,0,0.3,0.1
			c0,0.2-0.1,0.2-0.3,0.2H203L202.2,53.6z"/>
	</g>
	<g>
		<path class="st1" d="M208.9,57.2v-10h1.4v0.4h-1v9.2h1v0.4H208.9z"/>
		<path class="st1" d="M211.3,52.3c-0.3-0.2-0.4-0.5-0.4-0.8c0-0.6,0.4-1.2,1.6-1.2c0.1,0,0.6,0,0.9,0.3c0,0,0.1-0.1,0.2-0.2
			c0.1-0.1,0.1-0.1,0.2-0.1c0.1,0,0.1,0.1,0.1,0.2v1c0,0.2,0,0.2-0.1,0.2c0,0-0.1,0-0.1-0.1c0-0.3-0.1-1.2-1.2-1.2
			c-0.9,0-1.1,0.4-1.1,0.8c0,0.6,0.7,0.7,1.2,0.8c0.4,0.1,0.8,0.2,1.1,0.5c0.1,0.1,0.4,0.4,0.4,0.9c0,0.7-0.5,1.4-1.6,1.4
			c-0.2,0-0.7,0-1.1-0.4c-0.2,0.2-0.2,0.2-0.2,0.2c-0.2,0.2-0.2,0.2-0.2,0.2c-0.1,0-0.1-0.1-0.1-0.2v-1.3c0-0.2,0-0.2,0.1-0.2
			c0.1,0,0.1,0,0.1,0.2c0.2,0.8,0.5,1.4,1.4,1.4c0.8,0,1.1-0.4,1.1-0.9c0-0.7-0.8-0.9-1-0.9C211.9,52.6,211.6,52.6,211.3,52.3z"/>
		<path class="st1" d="M215.9,53.9c0.2,0.4,0.6,0.7,1.1,0.7c0.1,0,1,0,1.3-1c0-0.1,0-0.1,0.1-0.1c0,0,0.1,0,0.1,0.1
			c0,0.2-0.4,1.3-1.7,1.3c-1.1,0-2.2-1-2.2-2.3c0-1.2,0.9-2.3,2.1-2.3c1.2,0,1.8,1,1.8,2c0,0.2,0,0.2-0.2,0.2h-2.8
			C215.6,52.7,215.6,53.4,215.9,53.9z M217.9,52.2c0-0.4-0.1-1.7-1.1-1.7c-0.3,0-1.2,0.2-1.2,1.7H217.9z"/>
		<path class="st1" d="M221.5,54.5c0.4,0,1-0.1,1.3-1c0-0.1,0-0.1,0.1-0.1c0,0,0.1,0,0.1,0.1s-0.3,1.3-1.7,1.3c-1.2,0-2.1-1-2.1-2.3
			c0-1.2,0.9-2.3,2.2-2.3c0.8,0,1.5,0.4,1.5,1.1c0,0.3-0.2,0.5-0.5,0.5c-0.3,0-0.5-0.2-0.5-0.5c0-0.1,0.1-0.4,0.5-0.5
			c-0.3-0.4-1-0.4-1.1-0.4c-0.5,0-1.3,0.4-1.3,2C220.1,54.1,220.9,54.5,221.5,54.5z"/>
		<path class="st1" d="M224.9,57.2h-1.4v-0.4h1v-9.2h-1v-0.4h1.4V57.2z"/>
	</g>
	<path class="st0" d="M210.5,34.5L210.5,34.5c0-1.4-1.1-2.5-2.5-2.5s-2.5,1.1-2.5,2.5s1.1,2.5,2.5,2.5S210.5,35.8,210.5,34.5
		L210.5,34.5z M211.5,34.5h21.3 M238.8,34.5L238.8,34.5c0-1.4-1.1-2.5-2.5-2.5c-1.4,0-2.5,1.1-2.5,2.5s1.1,2.5,2.5,2.5
		C237.7,36.9,238.8,35.8,238.8,34.5L238.8,34.5z"/>
	<g>
		<path class="st1" d="M222.1,26.5h-0.5c-0.1-1.2-0.4-1.9-2-1.9h-1.4v2.7h0.5c1,0,1-0.4,1-1.2h0.5v2.8h-0.5c0-0.7-0.1-1.2-1-1.2
			h-0.5v2.7h1.3v0.5c-0.4,0-1.5,0-2,0c-0.4,0-1.4,0-1.8,0v-0.5h1.1v-5.8h-1.1v-0.5h6L222.1,26.5z"/>
		<path class="st1" d="M228.3,28.8c0,1-0.6,2.1-2.3,2.1c-0.4,0-1.3-0.1-2-0.5l-0.5,0.5c-0.1,0.1-0.1,0.1-0.2,0.1
			c-0.2,0-0.2-0.1-0.2-0.3v-1.8c0-0.2,0-0.3,0.2-0.3c0.2,0,0.2,0,0.2,0.2c0.1,1.5,1.6,1.7,2.4,1.7c1,0,1.3-0.7,1.3-1.2
			c0-0.5-0.2-0.7-0.4-0.9c-0.2-0.2-0.4-0.2-1.3-0.4c-1.1-0.2-1.4-0.3-1.9-0.8c-0.2-0.2-0.5-0.7-0.5-1.3c0-1,0.7-2,2.2-2
			c0.5,0,1.1,0.1,1.7,0.5l0.4-0.4c0.1-0.1,0.1-0.1,0.2-0.1c0.2,0,0.2,0.1,0.2,0.3V26c0,0.2,0,0.3-0.2,0.3c-0.2,0-0.2,0-0.2-0.3
			c-0.2-1.4-1.2-1.7-2-1.7c-1,0-1.3,0.6-1.3,1c0,0.6,0.6,0.9,1,1l1.4,0.3C227.5,26.9,228.3,27.7,228.3,28.8z"/>
	</g>
	<g>
		<path class="st1" d="M82.3,117.7c0,0.1,0,0.2,0,0.2c0,0.2,0.1,0.2,0.4,0.2c0.3,0,0.4,0,0.6,0c0.3,0,0.3,0,0.3,0.1
			c0,0.2-0.1,0.2-0.2,0.2c-0.3,0-0.6,0-0.9,0c-0.3,0-0.5,0-0.8,0c-0.3,0-0.6,0-0.8,0c-0.3,0-0.5,0-0.8,0c-0.1,0-0.2,0-0.2-0.1
			c0-0.2,0.1-0.2,0.4-0.2c1.1,0,1.1-0.1,1.2-0.5l1.3-5.3c0,0,0-0.1,0-0.2c0-0.1,0-0.1-0.3-0.1h-0.4c-1.5,0-1.7,0.2-2.3,1.7
			c-0.1,0.2-0.1,0.2-0.2,0.2c-0.1,0-0.1,0-0.1-0.1c0,0,0-0.2,0.1-0.2l0.6-1.8c0.1-0.2,0.1-0.2,0.3-0.2h5.5c0.2,0,0.3,0,0.3,0.1
			c0,0,0,0.1,0,0.2l-0.3,1.7c0,0.1,0,0.2-0.1,0.2c-0.1,0-0.1-0.1-0.1-0.1c0,0,0-0.2,0-0.2c0-0.3,0.1-0.6,0.1-0.8
			c0-0.8-0.4-0.8-1.5-0.8c-0.2,0-0.5,0-0.6,0c-0.1,0-0.2,0.1-0.2,0.4L82.3,117.7z"/>
	</g>
	<g>
		<path class="st1" d="M87.2,120c-1.6,0-1.6-1.9-1.6-2.4s0-2.4,1.6-2.4c0.6,0,1,0.3,1.2,0.6c0.3,0.5,0.4,1,0.4,1.8
			C88.9,118.2,88.9,120,87.2,120z M88.1,119.1c0.1-0.4,0.1-1,0.1-1.5c0-0.6,0-1.1-0.1-1.5c-0.1-0.4-0.5-0.6-0.9-0.6
			c-0.3,0-0.7,0.1-0.9,0.7c-0.1,0.4-0.1,0.9-0.1,1.4c0,0.5,0,1.1,0.1,1.5c0.1,0.6,0.6,0.8,0.9,0.8C87.5,119.8,88,119.7,88.1,119.1z"
			/>
	</g>
	<g>
		<path class="st1" d="M93.4,115.2c-0.1,0-0.3,0-0.3-0.2c0-0.2,0.2-0.2,0.3-0.2h6c0.1,0,0.3,0,0.3,0.2c0,0.2-0.2,0.2-0.3,0.2H93.4z
			 M93.4,117.1c-0.1,0-0.3,0-0.3-0.2s0.2-0.2,0.3-0.2h5.9c0.1,0,0.3,0,0.3,0.2s-0.2,0.2-0.3,0.2H93.4z"/>
		<path class="st1" d="M106,117.7c0,0.4,0,0.5,0.9,0.5h0.3v0.3c-0.3,0-1.2,0-1.6,0c-0.4,0-1.3,0-1.6,0v-0.3h0.3
			c0.9,0,0.9-0.1,0.9-0.5v-5.2c-0.5,0.3-1.1,0.3-1.3,0.3v-0.3c0.3,0,1.2,0,1.8-0.6c0.2,0,0.2,0,0.2,0.3V117.7z"/>
	</g>
	<g>
		<path class="st1" d="M109,120.7c-0.1,0.2-0.1,0.2-0.2,0.2c-0.1,0-0.2-0.1-0.2-0.2c0,0,0,0,0-0.2l3.5-9.5c0-0.1,0.1-0.1,0.2-0.1
			c0.1,0,0.2,0.1,0.2,0.2c0,0,0,0,0,0.2L109,120.7z"/>
		<path class="st1" d="M115.5,117.7c0,0.1,0,0.2,0,0.2c0,0.1,0,0.2,0.3,0.2c0.2,0,0.3,0,0.5,0c0.2,0,0.2,0,0.3,0c0,0,0.1,0,0.1,0.1
			c0,0.2-0.1,0.2-0.2,0.2c-0.3,0-1.2,0-1.5,0c-0.3,0-1,0-1.3,0c0,0-0.1,0-0.1-0.1c0-0.2,0.1-0.2,0.3-0.2c0.8,0,0.8-0.1,0.9-0.5
			l1.3-5.3c0-0.2,0-0.2,0-0.2c0-0.2-0.3-0.2-0.6-0.2c-0.2,0-0.3,0-0.3-0.1c0-0.2,0.1-0.2,0.3-0.2h4.9c0.2,0,0.3,0,0.3,0.3l-0.2,1.7
			c0,0.2,0,0.3-0.1,0.3c-0.1,0-0.1-0.1-0.1-0.1c0,0,0,0,0-0.2c0-0.3,0-0.3,0-0.5c0-0.8-0.2-1.1-1.5-1.1h-1.3c-0.4,0-0.4,0-0.5,0.4
			l-0.6,2.5h0.9c0.8,0,1.1-0.2,1.3-1c0-0.2,0-0.2,0.1-0.2s0.1,0.1,0.1,0.1c0,0,0,0,0,0.2l-0.5,2.2c0,0.2,0,0.2-0.1,0.2
			c-0.1,0-0.1,0-0.1-0.1c0,0,0-0.1,0-0.1c0.1-0.3,0.1-0.4,0.1-0.5c0-0.3-0.1-0.4-0.8-0.4h-1L115.5,117.7z"/>
	</g>
	<g>
		<path class="st1" d="M121.4,120c-1.6,0-1.6-1.9-1.6-2.4s0-2.4,1.6-2.4c0.6,0,1,0.3,1.2,0.6c0.3,0.5,0.4,1,0.4,1.8
			C123.1,118.2,123.1,120,121.4,120z M122.3,119.1c0.1-0.4,0.1-1,0.1-1.5c0-0.6,0-1.1-0.1-1.5c-0.1-0.4-0.5-0.6-0.9-0.6
			c-0.3,0-0.7,0.1-0.9,0.7c-0.1,0.4-0.1,0.9-0.1,1.4c0,0.5,0,1.1,0.1,1.5c0.1,0.6,0.6,0.8,0.9,0.8
			C121.7,119.8,122.2,119.7,122.3,119.1z"/>
	</g>
	<polyline points="330.7,7.1 328.5,2.6 326.2,7.1 328.5,6 	"/>
	<path class="st0" d="M328.5,69.9l0-63.9 M315.4,66.3h7.1"/>
	<polyline points="416.1,68.6 420.6,66.3 416.1,64.1 417.2,66.3 	"/>
	<line class="st0" x1="243.4" y1="66.3" x2="417.2" y2="66.3"/>
	<g>
		<path class="st1" d="M327.7,79.3c-0.4,0.9-1.2,1.2-1.7,1.2c-0.5,0-1.2-0.2-1.6-1c-0.4-0.8-0.4-1.7-0.4-2.4c0-0.8,0-1.6,0.4-2.3
			c0.4-0.9,1.1-1.2,1.7-1.2c0.4,0,1.2,0.2,1.7,1.1c0.3,0.7,0.4,1.5,0.4,2.3C328.1,77.8,328,78.6,327.7,79.3z M327.1,79
			c0.1-0.6,0.1-1.3,0.1-2.1c0-0.6,0-1.4-0.1-1.9c-0.2-1-0.8-1.2-1.2-1.2c-0.2,0-1,0.1-1.2,1.3c-0.1,0.5-0.1,1.2-0.1,1.8
			c0,0.6,0,1.5,0.1,2.1c0.2,1,0.8,1.2,1.2,1.2C326.4,80.2,327,79.9,327.1,79z"/>
	</g>
	<g>
		<path class="st1" d="M340.3,9.4c0.5-0.6,0.8-1.3,1-2c0-0.2,0-0.2,0.1-0.2c0.1,0,0.1,0.1,0.1,0.1c0,0-0.2,1.2-1.1,2.3
			c-0.1,0.1-0.1,0.1-0.1,0.3c0,0.2,0,1,0.3,1c0,0,0.4,0,0.6-0.5c0-0.1,0.1-0.1,0.1-0.1c0.1,0,0.1,0,0.1,0.1c0,0.2-0.3,0.7-0.8,0.7
			c-0.4,0-0.8-0.3-0.9-0.8c-0.8,0.6-1.5,0.8-2.1,0.8c-1,0-1.6-0.8-1.6-1.7c0-1.4,1.3-2.8,2.7-2.8c0.7,0,1.7,0.5,1.7,2.1V9.4z
			 M339.6,9c0-0.8,0-2.1-1-2.1c-0.3,0-0.9,0.2-1.4,0.9c-0.3,0.5-0.6,1.6-0.6,2.1c0,0.6,0.3,1.1,0.9,1.1c0.4,0,1.2-0.1,2-0.9
			C339.6,9.9,339.6,9.4,339.6,9z"/>
	</g>
	<g>
		<path class="st1" d="M343.4,10.7c0.3-0.1,0.5-0.3,0.8-0.6c0.4-0.3,0.7-0.6,1.1-0.6c0.4,0,0.5,0.3,0.5,0.5c0,0.3-0.2,0.4-0.4,0.4
			c-0.2,0-0.3-0.1-0.3-0.3c0-0.1,0.1-0.3,0.4-0.4c-0.1-0.1-0.1-0.1-0.2-0.1c-0.4,0-0.7,0.3-1.1,0.7c-0.1,0.1-0.4,0.3-0.6,0.5
			c0.3,0,1.1,0.1,1.1,0.7c0,0.1,0,0.2,0,0.2c0,0.2,0,0.2,0,0.3c0,0.2,0.1,0.4,0.2,0.4c0.3,0,0.5-0.5,0.6-0.8c0-0.1,0-0.2,0.1-0.2
			c0,0,0.1,0,0.1,0.1c0,0-0.2,1.1-0.9,1.1c-0.3,0-0.7-0.2-0.7-0.7c0-0.1,0-0.1,0-0.2c0-0.1,0-0.1,0-0.1c0-0.4-0.4-0.5-0.9-0.6
			c0,0.1-0.3,1.3-0.3,1.4c0,0.2-0.1,0.3-0.3,0.3c-0.2,0-0.2-0.1-0.2-0.2c0,0,0,0,0-0.2l1-3.9c0-0.1,0-0.1,0-0.2c0-0.1,0-0.1-0.3-0.1
			c-0.1,0-0.2,0-0.2-0.1c0-0.1,0.1-0.2,0.2-0.2c0.2,0,0.8-0.1,0.9-0.1c0.1,0,0.1,0.1,0.1,0.1c0,0,0,0.1,0,0.1L343.4,10.7z"/>
	</g>
	<path class="st2" d="M239.9,66.3h177.2 M371,66.3V23.8 M286,66.3V23.8"/>
	<g>
		<path class="st1" d="M384.6,25.5c0,0.4,0,0.5,0.9,0.5h0.3v0.3c-0.3,0-1.2,0-1.6,0s-1.3,0-1.6,0V26h0.3c0.9,0,0.9-0.1,0.9-0.5v-5.2
			c-0.5,0.3-1.1,0.3-1.3,0.3v-0.3c0.3,0,1.2,0,1.8-0.6c0.2,0,0.2,0,0.2,0.3V25.5z"/>
	</g>
	<g>
		<path class="st1" d="M387.6,28.6c-0.1,0.2-0.1,0.2-0.2,0.2c-0.1,0-0.2-0.1-0.2-0.2c0,0,0,0,0-0.2l3.5-9.5c0-0.1,0.1-0.1,0.2-0.1
			c0.1,0,0.2,0.1,0.2,0.2c0,0,0,0,0,0.2L387.6,28.6z"/>
	</g>
	<g>
		<path class="st1" d="M394.8,25.6c0.2,0,0.9,0,0.9-0.1c0.1-0.1,0.2-0.6,0.2-0.9h0.2l-0.3,1.7h-3.7c0-0.2,0-0.3,0.1-0.4l1.9-2.1
			c0.5-0.6,1-1.4,1-2.2c0-0.8-0.4-1.6-1.3-1.6c-0.6,0-1.1,0.4-1.3,1c0,0,0,0,0.1,0c0.3,0,0.5,0.3,0.5,0.5c0,0.4-0.3,0.5-0.5,0.5
			c0,0-0.5,0-0.5-0.6c0-0.9,0.7-1.8,1.9-1.8c1.2,0,2.1,0.8,2.1,1.9c0,1-0.6,1.5-2.2,2.9l-1.1,1H394.8z"/>
	</g>
	<g>
		<path class="st1" d="M253.7,24c-0.2,0-0.3,0-0.3-0.2c0-0.2,0.2-0.2,0.3-0.2h5.4c0.2,0,0.3,0,0.3,0.2c0,0.2-0.2,0.2-0.3,0.2H253.7z
			"/>
	</g>
	<g>
		<path class="st1" d="M263.3,25.5c0,0.4,0,0.5,0.9,0.5h0.3v0.3c-0.3,0-1.2,0-1.6,0s-1.3,0-1.6,0V26h0.3c0.9,0,0.9-0.1,0.9-0.5v-5.2
			c-0.5,0.3-1.1,0.3-1.3,0.3v-0.3c0.3,0,1.2,0,1.8-0.6c0.2,0,0.2,0,0.2,0.3V25.5z"/>
	</g>
	<g>
		<path class="st1" d="M266.3,28.6c-0.1,0.2-0.1,0.2-0.2,0.2c-0.1,0-0.2-0.1-0.2-0.2c0,0,0,0,0-0.2l3.5-9.5c0-0.1,0.1-0.1,0.2-0.1
			c0.1,0,0.2,0.1,0.2,0.2c0,0,0,0,0,0.2L266.3,28.6z"/>
	</g>
	<g>
		<path class="st1" d="M273.5,25.6c0.2,0,0.9,0,0.9-0.1c0.1-0.1,0.2-0.6,0.2-0.9h0.2l-0.3,1.7h-3.7c0-0.2,0-0.3,0.1-0.4l1.9-2.1
			c0.5-0.6,1-1.4,1-2.2c0-0.8-0.4-1.6-1.3-1.6c-0.6,0-1.1,0.4-1.3,1c0,0,0,0,0.1,0c0.3,0,0.5,0.3,0.5,0.5c0,0.4-0.3,0.5-0.5,0.5
			c0,0-0.5,0-0.5-0.6c0-0.9,0.7-1.8,1.9-1.8c1.2,0,2.1,0.8,2.1,1.9c0,1-0.6,1.5-2.2,2.9l-1.1,1H273.5z"/>
	</g>
	<path class="st3" d="M289.5,23.8L289.5,23.8c0-2-1.6-3.5-3.5-3.5s-3.5,1.6-3.5,3.5s1.6,3.5,3.5,3.5S289.5,25.8,289.5,23.8
		L289.5,23.8z"/>
	<path class="st3" d="M374.5,23.8L374.5,23.8c0-2-1.6-3.5-3.5-3.5s-3.5,1.6-3.5,3.5s1.6,3.5,3.5,3.5S374.5,25.8,374.5,23.8
		L374.5,23.8z"/>
	<g>
		<path class="st1" d="M427.2,78.7c0,0.1-0.2,1.3-0.6,1.9c-0.2,0.4-0.6,1-1.1,1c-0.4,0-0.8-0.2-0.8-0.7c0-0.4,0.3-0.6,0.5-0.6
			c0.2,0,0.4,0.1,0.4,0.3c0,0.1-0.1,0.5-0.5,0.5c0.2,0.2,0.4,0.2,0.5,0.2c0.5,0,0.7-0.9,0.9-1.9l0.7-3.9h-0.7c-0.2,0-0.3,0-0.3-0.1
			c0-0.2,0.1-0.2,0.3-0.2h0.7c0.2-1.3,0.3-1.4,0.3-1.6c0.3-1,0.9-1.2,1.3-1.2c0.4,0,0.9,0.2,0.9,0.7c0,0.4-0.3,0.6-0.5,0.6
			c-0.2,0-0.4-0.1-0.4-0.3c0-0.1,0.1-0.5,0.5-0.5c-0.2-0.2-0.4-0.2-0.5-0.2c-0.2,0-0.4,0.1-0.5,0.3c-0.1,0.1-0.2,0.8-0.2,1l-0.2,1.1
			h0.8c0.2,0,0.3,0,0.3,0.1c0,0.2-0.1,0.2-0.3,0.2h-0.9L427.2,78.7z"/>
	</g>
	<g>
		<path class="st1" d="M434.6,82V72h1.4v0.4h-1v9.2h1V82H434.6z"/>
		<path class="st1" d="M442.3,78.7c0,0.4,0,0.5,0.8,0.5h0.2v0.3c-0.3,0-1.1,0-1.5,0c-0.4,0-1.1,0-1.5,0v-0.3h0.2
			c0.8,0,0.8-0.1,0.8-0.5v-2.6h-3v2.6c0,0.4,0,0.5,0.8,0.5h0.2v0.3c-0.3,0-1.1,0-1.5,0c-0.4,0-1.1,0-1.5,0v-0.3h0.2
			c0.8,0,0.8-0.1,0.8-0.5v-5.3c0-0.4,0-0.5-0.8-0.5h-0.2v-0.3c0.3,0,1.1,0,1.5,0c0.4,0,1.1,0,1.5,0V73h-0.2c-0.8,0-0.8,0.1-0.8,0.5
			v2.3h3v-2.3c0-0.4,0-0.5-0.8-0.5h-0.2v-0.3c0.3,0,1.1,0,1.5,0c0.4,0,1.1,0,1.5,0V73h-0.2c-0.8,0-0.8,0.1-0.8,0.5V78.7z"/>
		<path class="st1" d="M444.8,79.2h1.2c1.2,0,1.4-0.4,1.5-1.6h0.2l-0.2,1.9h-3.3c-0.2,0-0.3,0-0.3-0.1c0,0,0-0.1,0.1-0.2l2.8-3.8
			h-1.1c-1.1,0-1.3,0.4-1.3,1.4h-0.2l0.1-1.6h3.2c0.2,0,0.3,0,0.3,0.1c0,0,0,0.1-0.1,0.2L444.8,79.2z"/>
		<path class="st1" d="M449.7,82h-1.4v-0.4h1v-9.2h-1V72h1.4V82z"/>
	</g>
	<g>
		<path class="st1" d="M368,78.9c0,0.1,0,0.2,0,0.2c0,0.1,0,0.2,0.3,0.2c0.2,0,0.3,0,0.5,0c0.2,0,0.2,0,0.3,0c0,0,0.1,0,0.1,0.1
			c0,0.2-0.1,0.2-0.2,0.2c-0.3,0-1.2,0-1.5,0c-0.3,0-1,0-1.3,0c0,0-0.1,0-0.1-0.1c0-0.2,0.1-0.2,0.3-0.2c0.8,0,0.8-0.1,0.9-0.5
			l1.3-5.3c0-0.2,0-0.2,0-0.2c0-0.2-0.3-0.2-0.6-0.2c-0.2,0-0.3,0-0.3-0.1c0-0.2,0.1-0.2,0.3-0.2h4.9c0.3,0,0.3,0,0.3,0.3l-0.2,1.7
			c0,0.2,0,0.3-0.1,0.3c-0.1,0-0.1-0.1-0.1-0.1c0,0,0,0,0-0.2c0-0.3,0-0.3,0-0.5c0-0.8-0.2-1.1-1.5-1.1h-1.3c-0.4,0-0.4,0-0.5,0.4
			l-0.6,2.5h0.9c0.8,0,1.1-0.2,1.3-1c0-0.2,0-0.2,0.1-0.2s0.1,0.1,0.1,0.1c0,0,0,0,0,0.2l-0.5,2.2c0,0.2,0,0.2-0.1,0.2
			c-0.1,0-0.1,0-0.1-0.1c0,0,0-0.1,0-0.1c0.1-0.3,0.1-0.4,0.1-0.5c0-0.3-0.1-0.4-0.8-0.4h-1L368,78.9z"/>
	</g>
	<g>
		<path class="st1" d="M373.9,81.2c-1.6,0-1.6-1.9-1.6-2.4s0-2.4,1.6-2.4c0.6,0,1,0.3,1.2,0.6c0.3,0.5,0.4,1,0.4,1.8
			C375.6,79.3,375.6,81.2,373.9,81.2z M374.8,80.2c0.1-0.4,0.1-1,0.1-1.5c0-0.6,0-1.1-0.1-1.5c-0.1-0.4-0.5-0.6-0.9-0.6
			c-0.3,0-0.7,0.1-0.9,0.7c-0.1,0.4-0.1,0.9-0.1,1.4c0,0.5,0,1.1,0.1,1.5c0.1,0.6,0.6,0.8,0.9,0.8C374.2,81,374.7,80.8,374.8,80.2z"
			/>
	</g>
	<g>
		<path class="st1" d="M277.8,77.3c-0.2,0-0.3,0-0.3-0.2s0.2-0.2,0.3-0.2h5.4c0.2,0,0.3,0,0.3,0.2s-0.2,0.2-0.3,0.2H277.8z"/>
	</g>
	<g>
		<path class="st1" d="M286.8,78.9c0,0.1,0,0.2,0,0.2c0,0.1,0,0.2,0.3,0.2c0.2,0,0.3,0,0.5,0c0.2,0,0.2,0,0.3,0c0,0,0.1,0,0.1,0.1
			c0,0.2-0.1,0.2-0.2,0.2c-0.3,0-1.2,0-1.5,0c-0.3,0-1,0-1.3,0c0,0-0.1,0-0.1-0.1c0-0.2,0.1-0.2,0.3-0.2c0.8,0,0.8-0.1,0.9-0.5
			l1.3-5.3c0-0.2,0-0.2,0-0.2c0-0.2-0.3-0.2-0.6-0.2c-0.2,0-0.3,0-0.3-0.1c0-0.2,0.1-0.2,0.3-0.2h4.9c0.3,0,0.3,0,0.3,0.3l-0.2,1.7
			c0,0.2,0,0.3-0.1,0.3c-0.1,0-0.1-0.1-0.1-0.1c0,0,0,0,0-0.2c0-0.3,0-0.3,0-0.5c0-0.8-0.2-1.1-1.5-1.1h-1.3c-0.4,0-0.4,0-0.5,0.4
			l-0.6,2.5h0.9c0.8,0,1.1-0.2,1.3-1c0-0.2,0-0.2,0.1-0.2S290,75,290,75c0,0,0,0,0,0.2l-0.5,2.2c0,0.2,0,0.2-0.1,0.2
			c-0.1,0-0.1,0-0.1-0.1c0,0,0-0.1,0-0.1c0.1-0.3,0.1-0.4,0.1-0.5c0-0.3-0.1-0.4-0.8-0.4h-1L286.8,78.9z"/>
	</g>
	<g>
		<path class="st1" d="M292.7,81.2c-1.6,0-1.6-1.9-1.6-2.4s0-2.4,1.6-2.4c0.6,0,1,0.3,1.2,0.6c0.3,0.5,0.4,1,0.4,1.8
			C294.4,79.3,294.4,81.2,292.7,81.2z M293.6,80.2c0.1-0.4,0.1-1,0.1-1.5c0-0.6,0-1.1-0.1-1.5c-0.1-0.4-0.5-0.6-0.9-0.6
			c-0.3,0-0.7,0.1-0.9,0.7c-0.1,0.4-0.1,0.9-0.1,1.4c0,0.5,0,1.1,0.1,1.5c0.1,0.6,0.6,0.8,0.9,0.8C293,81,293.5,80.8,293.6,80.2z"/>
	</g>
	<g>
		<path class="st1" d="M426,92c0.4-0.1,0.8-0.5,1.1-0.9c0.7-0.8,1.2-0.9,1.5-0.9c0.4,0,0.7,0.3,0.7,0.6c0,0.4-0.3,0.6-0.5,0.6
			c-0.3,0-0.4-0.2-0.4-0.3c0-0.1,0.1-0.5,0.6-0.5c0,0,0,0,0,0c-0.1-0.1-0.1-0.1-0.2-0.1c0,0,0,0-0.1,0c-0.5,0-0.9,0.4-1.4,1
			c-0.2,0.2-0.5,0.6-0.9,0.7c0.8,0.1,1.5,0.4,1.5,1c0,0.1,0,0.1,0,0.3c0,0.2-0.1,0.4-0.1,0.6c0,0.4,0.1,0.5,0.3,0.5
			c0.4,0,0.7-0.5,0.9-1.2c0-0.1,0-0.2,0.1-0.2c0,0,0.1,0,0.1,0.1c0,0-0.1,0.6-0.4,1c-0.2,0.4-0.5,0.5-0.8,0.5c-0.5,0-0.9-0.4-0.9-1
			c0-0.1,0-0.2,0-0.3c0-0.1,0-0.1,0-0.2c0-0.7-0.8-0.8-1.2-0.8c-0.1,0.3-0.5,2.1-0.6,2.2c-0.1,0.1-0.2,0.2-0.3,0.2
			c-0.1,0-0.3,0-0.3-0.3c0-0.1,0-0.1,0-0.2l1.4-5.7l0-0.2c0-0.1,0-0.2-0.5-0.2c-0.1,0-0.2,0-0.2-0.1c0-0.2,0.1-0.2,0.2-0.2
			c0.3,0,1-0.1,1.2-0.1c0.1,0,0.1,0.1,0.1,0.1L426,92z"/>
	</g>
	<g>
		<path class="st1" d="M371.4,93.6c0,0.4,0,0.5,0.9,0.5h0.3v0.3c-0.3,0-1.2,0-1.6,0s-1.3,0-1.6,0v-0.3h0.3c0.9,0,0.9-0.1,0.9-0.5
			v-5.2c-0.5,0.3-1.1,0.3-1.3,0.3v-0.3c0.3,0,1.2,0,1.8-0.6c0.2,0,0.2,0,0.2,0.3V93.6z"/>
	</g>
	<g>
		<path class="st1" d="M280.8,91.6c-0.2,0-0.3,0-0.3-0.2s0.2-0.2,0.3-0.2h5.4c0.2,0,0.3,0,0.3,0.2s-0.2,0.2-0.3,0.2H280.8z"/>
	</g>
	<g>
		<path class="st1" d="M290.3,93.1c0,0.4,0,0.5,0.9,0.5h0.3v0.3c-0.3,0-1.2,0-1.6,0s-1.3,0-1.6,0v-0.3h0.3c0.9,0,0.9-0.1,0.9-0.5V88
			c-0.5,0.3-1.1,0.3-1.3,0.3v-0.3c0.3,0,1.2,0,1.8-0.6c0.2,0,0.2,0,0.2,0.3V93.1z"/>
	</g>
	<g>
		<path class="st1" d="M120,92.9c0,0.4,0,0.5,0.9,0.5h0.3v0.3c-0.3,0-1.2,0-1.6,0c-0.4,0-1.3,0-1.6,0v-0.3h0.3
			c0.9,0,0.9-0.1,0.9-0.5v-5.2c-0.5,0.3-1.1,0.3-1.3,0.3v-0.3c0.3,0,1.2,0,1.8-0.6c0.2,0,0.2,0,0.2,0.3V92.9z"/>
	</g>
	<g>
		<path class="st1" d="M123.1,95.9c-0.1,0.2-0.1,0.2-0.2,0.2c-0.1,0-0.2-0.1-0.2-0.2c0,0,0,0,0-0.2l3.5-9.5c0-0.1,0.1-0.1,0.2-0.1
			c0.1,0,0.2,0.1,0.2,0.2c0,0,0,0,0,0.2L123.1,95.9z"/>
	</g>
	<g>
		<path class="st1" d="M130.2,92.9c0.2,0,0.9,0,0.9-0.1c0.1-0.1,0.2-0.6,0.2-0.9h0.2l-0.3,1.7h-3.7c0-0.2,0-0.3,0.1-0.4l1.9-2.1
			c0.5-0.6,1-1.4,1-2.2c0-0.8-0.4-1.6-1.3-1.6c-0.6,0-1.1,0.4-1.3,1c0,0,0,0,0.1,0c0.3,0,0.5,0.3,0.5,0.5c0,0.4-0.3,0.5-0.5,0.5
			c0,0-0.5,0-0.5-0.6c0-0.9,0.7-1.8,1.9-1.8c1.2,0,2.1,0.8,2.1,1.9c0,1-0.6,1.5-2.2,2.9l-1.1,1H130.2z"/>
	</g>
	<g>
		<path class="st1" d="M134.6,92.9c0,0.1,0,0.2,0,0.2c0,0.1,0,0.2,0.3,0.2c0.2,0,0.3,0,0.5,0c0.2,0,0.2,0,0.3,0c0,0,0.1,0,0.1,0.1
			c0,0.2-0.1,0.2-0.2,0.2c-0.3,0-1.2,0-1.5,0c-0.3,0-1,0-1.3,0c0,0-0.1,0-0.1-0.1c0-0.2,0.1-0.2,0.3-0.2c0.8,0,0.8-0.1,0.9-0.5
			l1.3-5.3c0-0.2,0-0.2,0-0.2c0-0.2-0.3-0.2-0.6-0.2c-0.2,0-0.3,0-0.3-0.1c0-0.2,0.1-0.2,0.3-0.2h4.9c0.2,0,0.3,0,0.3,0.3l-0.2,1.7
			c0,0.2,0,0.3-0.1,0.3c-0.1,0-0.1-0.1-0.1-0.1c0,0,0,0,0-0.2c0-0.3,0-0.3,0-0.5c0-0.8-0.2-1.1-1.5-1.1h-1.3c-0.4,0-0.4,0-0.5,0.4
			l-0.6,2.5h0.9c0.8,0,1.1-0.2,1.3-1c0-0.2,0-0.2,0.1-0.2s0.1,0.1,0.1,0.1c0,0,0,0,0,0.2l-0.5,2.2c0,0.2,0,0.2-0.1,0.2
			c-0.1,0-0.1,0-0.1-0.1c0,0,0-0.1,0-0.1c0.1-0.3,0.1-0.4,0.1-0.5c0-0.3-0.1-0.4-0.8-0.4h-1L134.6,92.9z"/>
	</g>
	<g>
		<path class="st1" d="M140.5,95.2c-1.6,0-1.6-1.9-1.6-2.4s0-2.4,1.6-2.4c0.6,0,1,0.3,1.2,0.6c0.3,0.5,0.4,1,0.4,1.8
			C142.2,93.4,142.2,95.2,140.5,95.2z M141.4,94.3c0.1-0.4,0.1-1,0.1-1.5c0-0.6,0-1.1-0.1-1.5c-0.1-0.4-0.5-0.6-0.9-0.6
			c-0.3,0-0.7,0.1-0.9,0.7c-0.1,0.4-0.1,0.9-0.1,1.4c0,0.5,0,1.1,0.1,1.5c0.1,0.6,0.6,0.8,0.9,0.8C140.8,95,141.3,94.9,141.4,94.3z"
			/>
	</g>
	<line class="st4" x1="130.1" y1="84.1" x2="130.1" y2="59.3"/>
	<line class="st0" x1="130.1" y1="55.7" x2="130.1" y2="48.6"/>
	<line class="st4" x1="73.4" y1="84.1" x2="73.4" y2="59.3"/>
	<g>
		<path class="st1" d="M57.7,91.4c-0.2,0-0.3,0-0.3-0.2s0.2-0.2,0.3-0.2h5.4c0.2,0,0.3,0,0.3,0.2s-0.2,0.2-0.3,0.2H57.7z"/>
	</g>
	<g>
		<path class="st1" d="M67.3,92.9c0,0.4,0,0.5,0.9,0.5h0.3v0.3c-0.3,0-1.2,0-1.6,0c-0.4,0-1.3,0-1.6,0v-0.3h0.3
			c0.9,0,0.9-0.1,0.9-0.5v-5.2C66,88,65.4,88,65.2,88v-0.3c0.3,0,1.2,0,1.8-0.6c0.2,0,0.2,0,0.2,0.3V92.9z"/>
	</g>
	<g>
		<path class="st1" d="M70.4,95.9c-0.1,0.2-0.1,0.2-0.2,0.2c-0.1,0-0.2-0.1-0.2-0.2c0,0,0,0,0-0.2l3.5-9.5c0-0.1,0.1-0.1,0.2-0.1
			c0.1,0,0.2,0.1,0.2,0.2c0,0,0,0,0,0.2L70.4,95.9z"/>
	</g>
	<g>
		<path class="st1" d="M77.5,92.9c0.2,0,0.9,0,0.9-0.1c0.1-0.1,0.2-0.6,0.2-0.9h0.2l-0.3,1.7h-3.7c0-0.2,0-0.3,0.1-0.4l1.9-2.1
			c0.5-0.6,1-1.4,1-2.2c0-0.8-0.4-1.6-1.3-1.6c-0.6,0-1.1,0.4-1.3,1c0,0,0,0,0.1,0c0.3,0,0.5,0.3,0.5,0.5c0,0.4-0.3,0.5-0.5,0.5
			c0,0-0.5,0-0.5-0.6c0-0.9,0.7-1.8,1.9-1.8c1.2,0,2.1,0.8,2.1,1.9c0,1-0.6,1.5-2.2,2.9l-1.1,1H77.5z"/>
	</g>
	<g>
		<path class="st1" d="M81.9,92.9c0,0.1,0,0.2,0,0.2c0,0.1,0,0.2,0.3,0.2c0.2,0,0.3,0,0.5,0c0.2,0,0.2,0,0.3,0c0,0,0.1,0,0.1,0.1
			c0,0.2-0.1,0.2-0.2,0.2c-0.3,0-1.2,0-1.5,0c-0.3,0-1,0-1.3,0c0,0-0.1,0-0.1-0.1c0-0.2,0.1-0.2,0.3-0.2c0.8,0,0.8-0.1,0.9-0.5
			l1.3-5.3c0-0.2,0-0.2,0-0.2c0-0.2-0.3-0.2-0.6-0.2c-0.2,0-0.3,0-0.3-0.1c0-0.2,0.1-0.2,0.3-0.2h4.9c0.2,0,0.3,0,0.3,0.3l-0.2,1.7
			c0,0.2,0,0.3-0.1,0.3c-0.1,0-0.1-0.1-0.1-0.1c0,0,0,0,0-0.2c0-0.3,0-0.3,0-0.5c0-0.8-0.2-1.1-1.5-1.1h-1.3c-0.4,0-0.4,0-0.5,0.4
			l-0.6,2.5h0.9c0.8,0,1.1-0.2,1.3-1c0-0.2,0-0.2,0.1-0.2S85,89,85,89.1c0,0,0,0,0,0.2l-0.5,2.2c0,0.2,0,0.2-0.1,0.2
			c-0.1,0-0.1,0-0.1-0.1c0,0,0-0.1,0-0.1c0.1-0.3,0.1-0.4,0.1-0.5c0-0.3-0.1-0.4-0.8-0.4h-1L81.9,92.9z"/>
	</g>
	<g>
		<path class="st1" d="M87.8,95.2c-1.6,0-1.6-1.9-1.6-2.4s0-2.4,1.6-2.4c0.6,0,1,0.3,1.2,0.6c0.3,0.5,0.4,1,0.4,1.8
			C89.4,93.4,89.4,95.2,87.8,95.2z M88.7,94.3c0.1-0.4,0.1-1,0.1-1.5c0-0.6,0-1.1-0.1-1.5c-0.1-0.4-0.5-0.6-0.9-0.6
			c-0.3,0-0.7,0.1-0.9,0.7c-0.1,0.4-0.1,0.9-0.1,1.4c0,0.5,0,1.1,0.1,1.5c0.1,0.6,0.6,0.8,0.9,0.8C88.1,95,88.6,94.9,88.7,94.3z"/>
	</g>
	<path class="st0" d="M73.4,55.7v-7.1 M73.4,101.8v7.1 M130.1,101.8v7.1"/>
	<polyline points="77.9,103 73.4,105.3 77.9,107.6 76.8,105.3 	"/>
	<polyline points="125.5,107.6 130.1,105.3 125.5,103 126.7,105.3 	"/>
	<line class="st0" x1="76.8" y1="105.3" x2="126.7" y2="105.3"/>
	<path class="st2" d="M73.4,80.5c0,0,5.4-1.5,7.1-3.5c5.6-6.8,4.6-16.2,7.1-24.8s1.5-18,7.1-24.8c1.7-2.1,4.4-3.5,7.1-3.5
		s5.4,1.5,7.1,3.5c5.6,6.8,4.6,16.2,7.1,24.8s1.5,18,7.1,24.8c1.7,2.1,7.1,3.5,7.1,3.5l0,0"/>
	<path class="st5" d="M130.1,80.5c0,0,5.4-1.5,7.1-3.5c5.6-6.8,4.6-16.2,7.1-24.8c2.4-8.6,1.5-18,7.1-24.8c1.7-2.1,4.4-3.5,7.1-3.5
		c2.7,0,5.4,1.5,7.1,3.5c5.6,6.8,4.6,16.2,7.1,24.8s1.5,18,7.1,24.8c1.7,2.1,7.1,3.5,7.1,3.5l0,0"/>
	<path class="st5" d="M16.7,80.5c0,0,5.4-1.5,7.1-3.5c5.6-6.8,4.6-16.2,7.1-24.8s1.5-18,7.1-24.8c1.7-2.1,4.4-3.5,7.1-3.5
		s5.4,1.5,7.1,3.5c5.6,6.8,4.6,16.2,7.1,24.8c2.4,8.6,1.5,18,7.1,24.8c1.7,2.1,7.1,3.5,7.1,3.5l0,0"/>
</g>
</svg>
