<?xml version="1.0" encoding="utf-8"?>
<!-- Generator: Adobe Illustrator 22.1.0, SVG Export Plug-In . SVG Version: 6.00 Build 0)  -->
<svg version="1.1" id="Layer_1" xmlns="http://www.w3.org/2000/svg" xmlns:xlink="http://www.w3.org/1999/xlink" x="0px" y="0px"
	 viewBox="0 0 464.5 248" style="enable-background:new 0 0 464.5 248;" xml:space="preserve">
<style type="text/css">
	.st0{fill:none;stroke:#000000;stroke-width:0.8504;stroke-miterlimit:10;}
	.st1{fill:#1D1D1B;}
	.st2{fill:#FF0000;}
	.st3{fill:#0000FF;}
	.st4{fill:none;stroke:#000000;stroke-width:2.8346;stroke-miterlimit:10;}
	.st5{fill:none;stroke:#FF0000;stroke-width:1.1338;stroke-miterlimit:10;}
</style>
<g>
	<polyline points="229,12.9 226.8,8.4 224.5,12.9 226.8,11.8 	"/>
	<path class="st0" d="M226.8,61.5V11.8 M202,58h7.1"/>
	<g>
		<path class="st1" d="M440.7,73.7c0,0.2-0.1,0.2-0.1,0.5c0,0.3,0.1,0.5,0.3,0.5c0.3,0,0.9-0.2,1.3-1.3c0-0.1,0.1-0.1,0.1-0.1
			c0,0,0.1,0,0.1,0.1c0,0.1-0.6,1.5-1.6,1.5c-0.5,0-0.9-0.4-0.9-0.9c0-0.2,0-0.3,0.8-3.2h-0.9c-0.2,0-0.3,0-0.3-0.1
			c0-0.2,0.1-0.2,0.3-0.2h0.9l0.4-1.6c0.1-0.3,0.4-0.4,0.4-0.4c0.2,0,0.3,0.1,0.3,0.3c0,0.1,0,0.3-0.4,1.7h0.9c0.2,0,0.3,0,0.3,0.1
			c0,0.2-0.1,0.2-0.3,0.2h-0.9L440.7,73.7z"/>
	</g>
	<g>
		<path class="st1" d="M447.4,77.2v-10h1.4v0.4h-1v9.2h1v0.4H447.4z"/>
		<path class="st1" d="M449.7,72.3c-0.3-0.2-0.4-0.5-0.4-0.8c0-0.6,0.4-1.2,1.6-1.2c0.1,0,0.6,0,0.9,0.3c0,0,0.1-0.1,0.2-0.2
			c0.1-0.1,0.1-0.1,0.2-0.1c0.1,0,0.1,0.1,0.1,0.2v1c0,0.2,0,0.2-0.1,0.2c0,0-0.1,0-0.1-0.1c0-0.3-0.1-1.2-1.2-1.2
			c-0.9,0-1.1,0.4-1.1,0.8c0,0.6,0.7,0.7,1.2,0.8c0.4,0.1,0.8,0.2,1.1,0.5c0.1,0.1,0.4,0.4,0.4,0.9c0,0.7-0.5,1.4-1.6,1.4
			c-0.2,0-0.7,0-1.1-0.4c-0.2,0.2-0.2,0.2-0.2,0.2c-0.2,0.2-0.2,0.2-0.2,0.2c-0.1,0-0.1-0.1-0.1-0.2v-1.3c0-0.2,0-0.2,0.1-0.2
			c0.1,0,0.1,0,0.1,0.2c0.2,0.8,0.5,1.4,1.4,1.4c0.8,0,1.1-0.4,1.1-0.9c0-0.7-0.8-0.9-1-0.9C450.3,72.6,450,72.6,449.7,72.3z"/>
		<path class="st1" d="M454.3,73.9c0.2,0.4,0.6,0.7,1.1,0.7c0.1,0,1,0,1.3-1c0-0.1,0-0.1,0.1-0.1c0,0,0.1,0,0.1,0.1
			c0,0.2-0.4,1.3-1.7,1.3c-1.1,0-2.2-1-2.2-2.3c0-1.2,0.9-2.3,2.1-2.3c1.2,0,1.8,1,1.8,2c0,0.2,0,0.2-0.2,0.2H454
			C454,72.8,454,73.4,454.3,73.9z M456.4,72.2c0-0.4-0.1-1.7-1.1-1.7c-0.3,0-1.2,0.2-1.2,1.7H456.4z"/>
		<path class="st1" d="M459.9,74.6c0.4,0,1-0.1,1.3-1c0-0.1,0-0.1,0.1-0.1c0,0,0.1,0,0.1,0.1s-0.3,1.3-1.7,1.3c-1.2,0-2.1-1-2.1-2.3
			c0-1.2,0.9-2.3,2.2-2.3c0.8,0,1.5,0.4,1.5,1.1c0,0.3-0.2,0.5-0.5,0.5c-0.3,0-0.5-0.2-0.5-0.5c0-0.1,0.1-0.4,0.5-0.5
			c-0.3-0.4-1-0.4-1.1-0.4c-0.5,0-1.3,0.4-1.3,2C458.5,74.1,459.4,74.6,459.9,74.6z"/>
		<path class="st1" d="M463.4,77.2H462v-0.4h1v-9.2h-1v-0.4h1.4V77.2z"/>
	</g>
	<polyline points="449,60.3 453.5,58 449,55.7 450.1,58 	"/>
	<path class="st0" d="M0,58h450.1 M205.5,61.5v-7.1"/>
	<g>
		<path class="st1" d="M240.4,9c-0.1,0.4-0.2,0.7-0.2,0.9c0,0.3,0.2,0.7,0.5,0.7c0.3,0,1-0.2,1.3-1.3c0-0.1,0-0.1,0.1-0.1
			c0,0,0.1,0,0.1,0.1c0,0.2-0.6,1.5-1.6,1.5c-0.6,0-1-0.4-1.1-0.8c0,0.1-0.4,0.8-1,0.8c-0.4,0-0.9-0.2-0.9-0.7
			c0-0.3,0.2-0.6,0.5-0.6c0.1,0,0.4,0.1,0.4,0.3c0,0.3-0.2,0.5-0.5,0.5c0.2,0.1,0.4,0.1,0.5,0.1c0.4,0,0.8-0.4,0.9-1
			c0.4-1.4,0.5-2.1,0.5-2.4c0-0.6-0.3-0.7-0.5-0.7c-0.3,0-1,0.2-1.3,1.3c0,0.1,0,0.1-0.1,0.1c0,0-0.1,0-0.1-0.1
			c0-0.2,0.6-1.5,1.6-1.5c0.3,0,0.8,0.1,1.1,0.8c0.1-0.2,0.5-0.8,1-0.8c0.3,0,0.9,0.1,0.9,0.7c0,0.4-0.3,0.6-0.5,0.6
			c-0.3,0-0.4-0.2-0.4-0.3c0-0.2,0.2-0.5,0.5-0.5c-0.2-0.1-0.4-0.1-0.5-0.1c-0.7,0-0.9,0.9-1,1.2L240.4,9z"/>
	</g>
	<g>
		<path class="st1" d="M246.2,13.2c-0.1,0-1-0.6-1.6-1.9c-0.5-1.1-0.7-2.3-0.7-3.1c0-0.8,0.1-1.9,0.6-3c0.6-1.3,1.5-1.9,1.6-1.9
			c0.1,0,0.1,0,0.1,0.1c0,0,0,0-0.1,0.2c-1.2,1.2-1.6,3-1.6,4.7c0,1.5,0.3,3.4,1.6,4.7C246.3,13,246.3,13,246.2,13.2
			C246.3,13.1,246.3,13.2,246.2,13.2z"/>
	</g>
	<g>
		<path class="st1" d="M248.2,9.6c0,0.2-0.1,0.2-0.1,0.5c0,0.3,0.1,0.5,0.3,0.5c0.3,0,0.9-0.2,1.3-1.3c0-0.1,0.1-0.1,0.1-0.1
			c0,0,0.1,0,0.1,0.1c0,0.1-0.6,1.5-1.6,1.5c-0.5,0-0.9-0.4-0.9-0.9c0-0.2,0-0.3,0.8-3.2h-0.9c-0.2,0-0.3,0-0.3-0.1
			c0-0.2,0.1-0.2,0.3-0.2h0.9l0.4-1.6c0.1-0.3,0.4-0.4,0.4-0.4c0.2,0,0.3,0.1,0.3,0.3c0,0.1,0,0.3-0.4,1.7h0.9c0.2,0,0.3,0,0.3,0.1
			c0,0.2-0.1,0.2-0.3,0.2h-0.9L248.2,9.6z"/>
	</g>
	<g>
		<path class="st1" d="M252.7,11.2c-0.6,1.3-1.5,1.9-1.6,1.9c-0.1,0-0.1,0-0.1-0.1c0,0,0-0.1,0.1-0.2c1.2-1.3,1.6-3,1.6-4.7
			c0-2.1-0.6-3.7-1.5-4.7C251,3.4,251,3.3,251,3.3c0-0.1,0-0.1,0.1-0.1c0.1,0,1,0.6,1.6,1.9c0.5,1.1,0.7,2.3,0.7,3.1
			C253.4,9,253.2,10.1,252.7,11.2z"/>
	</g>
	<g>
		<path class="st1" d="M255.4,12.6c0,0-0.1,0-0.1-0.1c0,0,0,0,0.1-0.2c0.3-0.3,0.7-0.9,0.7-1.7c0-0.1,0-0.1,0-0.1c0,0,0,0,0,0
			c-0.1,0.1-0.2,0.1-0.3,0.1c-0.3,0-0.5-0.3-0.5-0.5c0-0.3,0.2-0.5,0.5-0.5c0.4,0,0.6,0.4,0.6,1C256.3,11.8,255.5,12.6,255.4,12.6z"
			/>
	</g>
	<g>
		<path class="st2" d="M261.7,9c-0.1,0.4-0.2,0.7-0.2,0.9c0,0.3,0.2,0.7,0.5,0.7c0.3,0,1-0.2,1.3-1.3c0-0.1,0-0.1,0.1-0.1
			c0,0,0.1,0,0.1,0.1c0,0.2-0.6,1.5-1.6,1.5c-0.6,0-1-0.4-1.1-0.8c0,0.1-0.4,0.8-1,0.8c-0.4,0-0.9-0.2-0.9-0.7
			c0-0.3,0.2-0.6,0.5-0.6c0.1,0,0.4,0.1,0.4,0.3c0,0.3-0.2,0.5-0.5,0.5c0.2,0.1,0.4,0.1,0.5,0.1c0.4,0,0.8-0.4,0.9-1
			c0.4-1.4,0.5-2.1,0.5-2.4c0-0.6-0.3-0.7-0.5-0.7c-0.3,0-1,0.2-1.3,1.3c0,0.1,0,0.1-0.1,0.1c0,0-0.1,0-0.1-0.1
			c0-0.2,0.6-1.5,1.6-1.5c0.3,0,0.8,0.1,1.1,0.8c0.1-0.2,0.5-0.8,1-0.8c0.3,0,0.9,0.1,0.9,0.7c0,0.4-0.3,0.6-0.5,0.6
			c-0.3,0-0.4-0.2-0.4-0.3c0-0.2,0.2-0.5,0.5-0.5c-0.2-0.1-0.4-0.1-0.5-0.1c-0.7,0-0.9,0.9-1,1.2L261.7,9z"/>
	</g>
	<g>
		<path class="st2" d="M265.7,9.8c0,0,0-0.1,0-0.2c0-0.2,0-0.3-0.2-0.3c-0.3,0-0.4,0.3-0.5,0.8c0,0.2-0.1,0.2-0.2,0.2
			c0,0-0.1,0-0.1-0.1c0,0,0.1-0.5,0.3-0.7c0.1-0.2,0.3-0.4,0.6-0.4c0.2,0,0.6,0.1,0.7,0.5c0.2-0.2,0.6-0.5,1-0.5c0.5,0,1,0.3,1,1.2
			c0,1-0.9,2-1.8,2c-0.4,0-0.6-0.3-0.7-0.4c-0.1,0.3-0.2,0.7-0.3,1c0,0.1-0.1,0.3-0.1,0.3c0,0.1,0.2,0.1,0.3,0.1
			c0.1,0,0.2,0,0.2,0.1c0,0.1-0.1,0.2-0.1,0.2c-0.2,0-0.5,0-0.7,0c-0.2,0-0.4,0-0.6,0c0,0-0.1,0-0.1-0.1c0-0.1,0.1-0.1,0.2-0.1
			c0.3,0,0.3-0.1,0.3-0.3L265.7,9.8z M265.9,11.3c0,0,0,0.1,0,0.1c0,0.1,0.1,0.6,0.6,0.6c0.4,0,0.7-0.3,0.9-0.7
			c0.2-0.4,0.4-1.1,0.4-1.4c0-0.5-0.2-0.7-0.5-0.7c-0.2,0-0.6,0.1-1,0.6L265.9,11.3z"/>
	</g>
	<g>
		<path class="st2" d="M272.3,13.2c-0.1,0-1-0.6-1.6-1.9c-0.5-1.1-0.7-2.3-0.7-3.1c0-0.8,0.1-1.9,0.6-3c0.6-1.3,1.5-1.9,1.6-1.9
			c0.1,0,0.1,0,0.1,0.1c0,0,0,0-0.1,0.2c-1.2,1.2-1.6,3-1.6,4.7c0,1.5,0.3,3.4,1.6,4.7C272.4,13,272.4,13,272.3,13.2
			C272.4,13.1,272.3,13.2,272.3,13.2z"/>
	</g>
	<g>
		<path class="st2" d="M274.2,9.6c0,0.2-0.1,0.2-0.1,0.5c0,0.3,0.1,0.5,0.3,0.5c0.3,0,0.9-0.2,1.3-1.3c0-0.1,0.1-0.1,0.1-0.1
			c0,0,0.1,0,0.1,0.1c0,0.1-0.6,1.5-1.6,1.5c-0.5,0-0.9-0.4-0.9-0.9c0-0.2,0-0.3,0.8-3.2h-0.9c-0.2,0-0.3,0-0.3-0.1
			c0-0.2,0.1-0.2,0.3-0.2h0.9l0.4-1.6c0.1-0.3,0.4-0.4,0.4-0.4c0.2,0,0.3,0.1,0.3,0.3c0,0.1,0,0.3-0.4,1.7h0.9c0.2,0,0.3,0,0.3,0.1
			c0,0.2-0.1,0.2-0.3,0.2H275L274.2,9.6z"/>
	</g>
	<g>
		<path class="st2" d="M278.8,11.2c-0.6,1.3-1.5,1.9-1.6,1.9c-0.1,0-0.1,0-0.1-0.1c0,0,0-0.1,0.1-0.2c1.2-1.3,1.6-3,1.6-4.7
			c0-2.1-0.6-3.7-1.5-4.7c-0.2-0.2-0.2-0.2-0.2-0.2c0-0.1,0-0.1,0.1-0.1c0.1,0,1,0.6,1.6,1.9c0.5,1.1,0.7,2.3,0.7,3.1
			C279.4,9,279.3,10.1,278.8,11.2z"/>
	</g>
	<path class="st0" d="M248,61.5v-7.1 M269.3,61.5v-7.1 M290.5,61.5v-7.1 M311.8,61.5v-7.1 M333.1,61.5v-7.1 M354.3,61.5v-7.1
		 M375.6,61.5v-7.1 M396.8,61.5v-7.1 M418.1,61.5v-7.1 M439.4,61.5v-7.1 M14.2,61.5v-7.1 M35.4,61.5v-7.1 M56.7,61.5v-7.1 M78,61.5
		v-7.1 M99.2,61.5v-7.1 M120.5,61.5v-7.1 M141.7,61.5v-7.1 M163,61.5v-7.1 M184.3,61.5v-7.1"/>
	<g>
		<path class="st1" d="M220.1,17.9c0,0.4,0,0.5,0.9,0.5h0.3v0.3c-0.3,0-1.2,0-1.6,0c-0.4,0-1.3,0-1.6,0v-0.3h0.3
			c0.9,0,0.9-0.1,0.9-0.5v-5.2c-0.5,0.3-1.1,0.3-1.3,0.3v-0.3c0.3,0,1.2,0,1.8-0.6c0.2,0,0.2,0,0.2,0.3V17.9z"/>
	</g>
	<g>
		<path class="st2" d="M363.8,10.2c0,0.1,0,0.2,0,0.2c0,0.2,0.1,0.2,0.4,0.2c0.3,0,0.4,0,0.6,0c0.3,0,0.3,0,0.3,0.1
			c0,0.2-0.1,0.2-0.2,0.2c-0.3,0-0.6,0-0.9,0c-0.3,0-0.5,0-0.8,0c-0.3,0-0.6,0-0.8,0c-0.3,0-0.5,0-0.8,0c-0.1,0-0.2,0-0.2-0.1
			c0-0.2,0.1-0.2,0.4-0.2c1.1,0,1.1-0.1,1.2-0.5l1.3-5.3c0,0,0-0.1,0-0.2c0-0.1,0-0.1-0.3-0.1h-0.4c-1.5,0-1.7,0.2-2.3,1.7
			c-0.1,0.2-0.1,0.2-0.2,0.2c-0.1,0-0.1,0-0.1-0.1c0,0,0-0.2,0.1-0.2l0.6-1.8c0.1-0.2,0.1-0.2,0.3-0.2h5.5c0.2,0,0.3,0,0.3,0.1
			c0,0,0,0.1,0,0.2l-0.3,1.7c0,0.1,0,0.2-0.1,0.2c-0.1,0-0.1-0.1-0.1-0.1c0,0,0-0.1,0-0.2c0-0.3,0.1-0.6,0.1-0.8
			c0-0.8-0.4-0.8-1.5-0.8c-0.2,0-0.5,0-0.6,0c-0.1,0-0.2,0.1-0.2,0.4L363.8,10.2z"/>
	</g>
	<g>
		<path class="st2" d="M368.7,12.5c-1.6,0-1.6-1.9-1.6-2.4c0-0.5,0-2.4,1.6-2.4c0.6,0,1,0.3,1.2,0.6c0.3,0.5,0.4,1,0.4,1.8
			C370.3,10.6,370.3,12.5,368.7,12.5z M369.6,11.5c0.1-0.4,0.1-1,0.1-1.5c0-0.6,0-1.1-0.1-1.5c-0.1-0.4-0.5-0.6-0.9-0.6
			c-0.3,0-0.7,0.1-0.9,0.7c-0.1,0.4-0.1,0.9-0.1,1.4c0,0.5,0,1.1,0.1,1.5c0.1,0.6,0.6,0.8,0.9,0.8C369,12.3,369.5,12.2,369.6,11.5z"
			/>
	</g>
	<g>
		<path class="st2" d="M374.7,7.7c-0.1,0-0.3,0-0.3-0.2s0.2-0.2,0.3-0.2h6c0.1,0,0.3,0,0.3,0.2s-0.2,0.2-0.3,0.2H374.7z M374.7,9.6
			c-0.1,0-0.3,0-0.3-0.2s0.2-0.2,0.3-0.2h5.9c0.1,0,0.3,0,0.3,0.2s-0.2,0.2-0.3,0.2H374.7z"/>
		<path class="st2" d="M387.3,10.1c0,0.4,0,0.5,0.9,0.5h0.3v0.3c-0.3,0-1.2,0-1.6,0s-1.3,0-1.6,0v-0.3h0.3c0.9,0,0.9-0.1,0.9-0.5V5
			c-0.5,0.3-1.1,0.3-1.3,0.3V4.9c0.3,0,1.2,0,1.8-0.6c0.2,0,0.2,0,0.2,0.3V10.1z"/>
	</g>
	<g>
		<path class="st2" d="M390.4,13.2c-0.1,0.2-0.1,0.2-0.2,0.2c-0.1,0-0.2-0.1-0.2-0.2c0,0,0,0,0-0.2l3.5-9.5c0-0.1,0.1-0.1,0.2-0.1
			c0.1,0,0.2,0.1,0.2,0.2c0,0,0,0,0,0.2L390.4,13.2z"/>
		<path class="st2" d="M396.9,10.2c0,0.1,0,0.2,0,0.2c0,0.1,0,0.2,0.3,0.2c0.2,0,0.3,0,0.5,0c0.2,0,0.2,0,0.3,0c0,0,0.1,0,0.1,0.1
			c0,0.2-0.1,0.2-0.2,0.2c-0.3,0-1.2,0-1.5,0c-0.3,0-1,0-1.3,0c0,0-0.1,0-0.1-0.1c0-0.2,0.1-0.2,0.3-0.2c0.8,0,0.8-0.1,0.9-0.5
			l1.3-5.3c0-0.2,0-0.2,0-0.2c0-0.2-0.3-0.2-0.6-0.2c-0.2,0-0.3,0-0.3-0.1c0-0.2,0.1-0.2,0.3-0.2h4.9c0.3,0,0.3,0,0.3,0.3l-0.2,1.7
			c0,0.2,0,0.2-0.1,0.2c-0.1,0-0.1-0.1-0.1-0.1c0,0,0,0,0-0.2c0-0.3,0-0.3,0-0.5c0-0.8-0.2-1.1-1.5-1.1h-1.3c-0.4,0-0.4,0-0.5,0.4
			l-0.6,2.5h0.9c0.8,0,1.1-0.2,1.3-1c0-0.2,0-0.2,0.1-0.2s0.1,0.1,0.1,0.1c0,0,0,0,0,0.2l-0.5,2.2c0,0.2,0,0.2-0.1,0.2
			c-0.1,0-0.1,0-0.1-0.1c0,0,0-0.1,0-0.1c0.1-0.3,0.1-0.4,0.1-0.5c0-0.3-0.1-0.4-0.8-0.4h-1L396.9,10.2z"/>
	</g>
	<g>
		<path class="st2" d="M402.8,12.5c-1.6,0-1.6-1.9-1.6-2.4c0-0.5,0-2.4,1.6-2.4c0.6,0,1,0.3,1.2,0.6c0.3,0.5,0.4,1,0.4,1.8
			C404.4,10.6,404.4,12.5,402.8,12.5z M403.7,11.5c0.1-0.4,0.1-1,0.1-1.5c0-0.6,0-1.1-0.1-1.5c-0.1-0.4-0.5-0.6-0.9-0.6
			c-0.3,0-0.7,0.1-0.9,0.7c-0.1,0.4-0.1,0.9-0.1,1.4c0,0.5,0,1.1,0.1,1.5c0.1,0.6,0.6,0.8,0.9,0.8C403.1,12.3,403.5,12.2,403.7,11.5
			z"/>
	</g>
	<g>
		<path class="st1" d="M408.9,7.7c-0.1,0-0.3,0-0.3-0.2s0.2-0.2,0.3-0.2h6c0.1,0,0.3,0,0.3,0.2s-0.2,0.2-0.3,0.2H408.9z M408.9,9.6
			c-0.1,0-0.3,0-0.3-0.2s0.2-0.2,0.3-0.2h5.9c0.1,0,0.3,0,0.3,0.2s-0.2,0.2-0.3,0.2H408.9z"/>
	</g>
	<g>
		<path class="st3" d="M423.3,10.9H419v-0.2c0-0.2,0-0.2,0.1-0.3l2-2c0.7-0.7,1.1-1.4,1.1-2.1c0-0.7-0.5-1.4-1.3-1.4
			c-0.4,0-0.7,0.1-1,0.3c0.1,0,0.6,0.2,0.6,0.7c0,0.5-0.4,0.7-0.7,0.7c-0.2,0-0.7-0.1-0.7-0.7c0-0.9,0.9-1.5,2.1-1.5
			c1.4,0,2.4,0.7,2.4,1.9c0,0.9-0.6,1.4-1.8,2.3c-0.4,0.3-1,0.8-1.4,1.1h1.5c0.2,0,0.9,0,1-0.1c0.1-0.1,0.2-0.7,0.3-0.9h0.5
			L423.3,10.9z"/>
	</g>
	<g>
		<path class="st1" d="M427.9,9c-0.3,0-0.5-0.2-0.5-0.5c0-0.3,0.2-0.5,0.5-0.5s0.5,0.2,0.5,0.5C428.4,8.7,428.2,9,427.9,9z"/>
	</g>
	<g>
		<path class="st1" d="M439.2,10.7c0,0.1,0,0.1,0,0.1c0,0.1-0.1,0.1-0.2,0.1h-6.9c-0.2,0-0.2,0-0.2-0.1c0,0,0,0,0-0.1l3.4-6.8
			c0.1-0.1,0.1-0.2,0.3-0.2c0.2,0,0.2,0,0.3,0.2L439.2,10.7z M432.6,10.2h5.4l-2.7-5.4L432.6,10.2z"/>
	</g>
	<g>
		<path class="st1" d="M442.6,10.2c0,0.1,0,0.2,0,0.2c0,0.2,0.1,0.2,0.4,0.2c0.3,0,0.4,0,0.6,0c0.3,0,0.3,0,0.3,0.1
			c0,0.2-0.1,0.2-0.2,0.2c-0.3,0-0.6,0-0.9,0c-0.3,0-0.5,0-0.8,0c-0.3,0-0.6,0-0.8,0c-0.3,0-0.5,0-0.8,0c-0.1,0-0.2,0-0.2-0.1
			c0-0.2,0.1-0.2,0.4-0.2c1.1,0,1.1-0.1,1.2-0.5l1.3-5.3c0,0,0-0.1,0-0.2c0-0.1,0-0.1-0.3-0.1h-0.4c-1.5,0-1.7,0.2-2.3,1.7
			c-0.1,0.2-0.1,0.2-0.2,0.2c-0.1,0-0.1,0-0.1-0.1c0,0,0-0.2,0.1-0.2l0.6-1.8c0.1-0.2,0.1-0.2,0.3-0.2h5.5c0.2,0,0.3,0,0.3,0.1
			c0,0,0,0.1,0,0.2l-0.3,1.7c0,0.1,0,0.2-0.1,0.2c-0.1,0-0.1-0.1-0.1-0.1c0,0,0-0.1,0-0.2c0-0.3,0.1-0.6,0.1-0.8
			c0-0.8-0.4-0.8-1.5-0.8c-0.2,0-0.5,0-0.6,0c-0.1,0-0.2,0.1-0.2,0.4L442.6,10.2z"/>
	</g>
	<polyline points="357.4,0.5 450.4,0.5 450.4,0 357.4,0 	"/>
	<polyline points="357.4,16.6 357.9,16.6 357.9,0.1 357.4,0.1 	"/>
	<polyline points="449.9,16.6 450.4,16.6 450.4,0.1 449.9,0.1 	"/>
	<polyline points="357.4,16.8 450.4,16.8 450.4,16.3 357.4,16.3 	"/>
	<g>
		<path class="st1" d="M243.2,74.5c0,0.1,0,0.1,0,0.1c0,0.1-0.1,0.1-0.2,0.1h-6.9c-0.2,0-0.2,0-0.2-0.1c0,0,0,0,0-0.1l3.4-6.8
			c0.1-0.1,0.1-0.2,0.3-0.2c0.2,0,0.2,0,0.3,0.2L243.2,74.5z M236.6,73.9h5.4l-2.7-5.4L236.6,73.9z"/>
	</g>
	<g>
		<path class="st1" d="M246.6,73.9c0,0.1,0,0.2,0,0.2c0,0.2,0.1,0.2,0.4,0.2c0.3,0,0.4,0,0.6,0c0.3,0,0.3,0,0.3,0.1
			c0,0.2-0.1,0.2-0.2,0.2c-0.3,0-0.6,0-0.9,0c-0.3,0-0.5,0-0.8,0c-0.3,0-0.6,0-0.8,0c-0.3,0-0.5,0-0.8,0c-0.1,0-0.2,0-0.2-0.1
			c0-0.2,0.1-0.2,0.4-0.2c1.1,0,1.1-0.1,1.2-0.5l1.3-5.3c0,0,0-0.1,0-0.2c0-0.1,0-0.1-0.3-0.1h-0.4c-1.5,0-1.7,0.2-2.3,1.7
			c-0.1,0.2-0.1,0.2-0.2,0.2c-0.1,0-0.1,0-0.1-0.1c0,0,0-0.2,0.1-0.2l0.6-1.8c0.1-0.2,0.1-0.2,0.3-0.2h5.5c0.2,0,0.3,0,0.3,0.1
			c0,0,0,0.1,0,0.2l-0.3,1.7c0,0.1,0,0.2-0.1,0.2c-0.1,0-0.1-0.1-0.1-0.1c0,0,0-0.1,0-0.2c0-0.3,0.1-0.6,0.1-0.8
			c0-0.8-0.4-0.8-1.5-0.8c-0.2,0-0.5,0-0.6,0c-0.1,0-0.2,0.1-0.2,0.4L246.6,73.9z"/>
		<path class="st1" d="M251.6,77c-0.1,0.2-0.1,0.2-0.2,0.2c-0.1,0-0.2-0.1-0.2-0.2c0,0,0,0,0-0.2l3.5-9.5c0-0.1,0.1-0.1,0.2-0.1
			c0.1,0,0.2,0.1,0.2,0.2c0,0,0,0,0,0.2L251.6,77z"/>
	</g>
	<g>
		<path class="st1" d="M258.8,73.9c0.2,0,0.9,0,0.9-0.1c0.1-0.1,0.2-0.6,0.2-0.9h0.2l-0.3,1.7h-3.7c0-0.2,0-0.3,0.1-0.4l1.9-2.1
			c0.5-0.6,1-1.4,1-2.2c0-0.8-0.4-1.6-1.3-1.6c-0.6,0-1.1,0.4-1.3,1c0,0,0,0,0.1,0c0.3,0,0.5,0.3,0.5,0.5c0,0.4-0.3,0.5-0.5,0.5
			c0,0-0.5,0-0.5-0.6c0-0.9,0.7-1.8,1.9-1.8c1.2,0,2.1,0.8,2.1,1.9c0,1-0.6,1.5-2.2,2.9l-1.1,1H258.8z"/>
	</g>
	<g>
		<path class="st1" d="M191.3,72.8v-0.6h2.6v0.6H191.3z"/>
		<path class="st1" d="M202.4,74.5c0,0.1,0,0.1,0,0.1c0,0.1-0.1,0.1-0.2,0.1h-6.9c-0.2,0-0.2,0-0.2-0.1c0,0,0,0,0-0.1l3.4-6.8
			c0.1-0.1,0.1-0.2,0.3-0.2s0.2,0,0.3,0.2L202.4,74.5z M195.7,73.9h5.4l-2.7-5.4L195.7,73.9z"/>
	</g>
	<g>
		<path class="st1" d="M205.8,73.9c0,0.1,0,0.2,0,0.2c0,0.2,0.1,0.2,0.4,0.2c0.3,0,0.4,0,0.6,0c0.3,0,0.3,0,0.3,0.1
			c0,0.2-0.1,0.2-0.2,0.2c-0.3,0-0.6,0-0.9,0c-0.3,0-0.5,0-0.8,0c-0.3,0-0.6,0-0.8,0c-0.3,0-0.5,0-0.8,0c-0.1,0-0.2,0-0.2-0.1
			c0-0.2,0.1-0.2,0.4-0.2c1.1,0,1.1-0.1,1.2-0.5l1.3-5.3c0,0,0-0.1,0-0.2c0-0.1,0-0.1-0.3-0.1h-0.4c-1.5,0-1.7,0.2-2.3,1.7
			c-0.1,0.2-0.1,0.2-0.2,0.2c-0.1,0-0.1,0-0.1-0.1c0,0,0-0.2,0.1-0.2l0.6-1.8c0.1-0.2,0.1-0.2,0.3-0.2h5.5c0.2,0,0.3,0,0.3,0.1
			c0,0,0,0.1,0,0.2l-0.3,1.7c0,0.1,0,0.2-0.1,0.2c-0.1,0-0.1-0.1-0.1-0.1c0,0,0-0.1,0-0.2c0-0.3,0.1-0.6,0.1-0.8
			c0-0.8-0.4-0.8-1.5-0.8c-0.2,0-0.5,0-0.6,0c-0.1,0-0.2,0.1-0.2,0.4L205.8,73.9z"/>
		<path class="st1" d="M210.8,77c-0.1,0.2-0.1,0.2-0.2,0.2c-0.1,0-0.2-0.1-0.2-0.2c0,0,0,0,0-0.2l3.5-9.5c0-0.1,0.1-0.1,0.2-0.1
			c0.1,0,0.2,0.1,0.2,0.2c0,0,0,0,0,0.2L210.8,77z"/>
	</g>
	<g>
		<path class="st1" d="M217.9,73.9c0.2,0,0.9,0,0.9-0.1c0.1-0.1,0.2-0.6,0.2-0.9h0.2l-0.3,1.7h-3.7c0-0.2,0-0.3,0.1-0.4l1.9-2.1
			c0.5-0.6,1-1.4,1-2.2c0-0.8-0.4-1.6-1.3-1.6c-0.6,0-1.1,0.4-1.3,1c0,0,0,0,0.1,0c0.3,0,0.5,0.3,0.5,0.5c0,0.4-0.3,0.5-0.5,0.5
			c0,0-0.5,0-0.5-0.6c0-0.9,0.7-1.8,1.9-1.8c1.2,0,2.1,0.8,2.1,1.9c0,1-0.6,1.5-2.2,2.9l-1.1,1H217.9z"/>
	</g>
	<g>
		<path class="st1" d="M228.5,74.5c-0.4,0.9-1.2,1.2-1.7,1.2c-0.5,0-1.2-0.2-1.6-1c-0.4-0.8-0.4-1.7-0.4-2.4c0-0.8,0-1.6,0.4-2.3
			c0.4-0.9,1.1-1.2,1.7-1.2c0.4,0,1.2,0.2,1.7,1.1c0.3,0.7,0.4,1.5,0.4,2.3C228.8,73,228.8,73.8,228.5,74.5z M227.9,74.2
			c0.1-0.6,0.1-1.3,0.1-2.1c0-0.6,0-1.4-0.1-1.9c-0.2-1-0.8-1.2-1.2-1.2c-0.2,0-1,0.1-1.2,1.3c-0.1,0.5-0.1,1.2-0.1,1.8
			c0,0.6,0,1.5,0.1,2.1c0.2,1,0.8,1.2,1.2,1.2C227.2,75.4,227.7,75.1,227.9,74.2z"/>
	</g>
	<g>
		<path class="st1" d="M262,49.1c0,0.1,0,0.2,0,0.2c0,0.2,0.1,0.2,0.4,0.2c0.3,0,0.4,0,0.6,0c0.3,0,0.3,0,0.3,0.1
			c0,0.2-0.1,0.2-0.2,0.2c-0.3,0-0.6,0-0.9,0c-0.3,0-0.5,0-0.8,0c-0.3,0-0.6,0-0.8,0c-0.3,0-0.5,0-0.8,0c-0.1,0-0.2,0-0.2-0.1
			c0-0.2,0.1-0.2,0.4-0.2c1.1,0,1.1-0.1,1.2-0.5l1.3-5.3c0,0,0-0.1,0-0.2c0-0.1,0-0.1-0.3-0.1h-0.4c-1.5,0-1.7,0.2-2.3,1.7
			c-0.1,0.2-0.1,0.2-0.2,0.2c-0.1,0-0.1,0-0.1-0.1c0,0,0-0.2,0.1-0.2l0.6-1.8c0.1-0.2,0.1-0.2,0.3-0.2h5.5c0.2,0,0.3,0,0.3,0.1
			c0,0,0,0.1,0,0.2l-0.3,1.7c0,0.1,0,0.2-0.1,0.2c-0.1,0-0.1-0.1-0.1-0.1c0,0,0-0.1,0-0.2c0-0.3,0.1-0.6,0.1-0.8
			c0-0.8-0.4-0.8-1.5-0.8c-0.2,0-0.5,0-0.6,0c-0.1,0-0.2,0.1-0.2,0.4L262,49.1z"/>
	</g>
	<g>
		<path class="st1" d="M266.9,51.5c-1.6,0-1.6-1.9-1.6-2.4c0-0.5,0-2.4,1.6-2.4c0.6,0,1,0.3,1.2,0.6c0.3,0.5,0.4,1,0.4,1.8
			C268.6,49.6,268.6,51.5,266.9,51.5z M267.8,50.5c0.1-0.4,0.1-1,0.1-1.5c0-0.6,0-1.1-0.1-1.5c-0.1-0.4-0.5-0.6-0.9-0.6
			c-0.3,0-0.7,0.1-0.9,0.7C266,48,266,48.5,266,49c0,0.5,0,1.1,0.1,1.5c0.1,0.6,0.6,0.8,0.9,0.8C267.2,51.3,267.7,51.1,267.8,50.5z"
			/>
	</g>
	<g>
		<path class="st1" d="M270.4,52.1c-0.1,0.2-0.1,0.2-0.2,0.2c-0.1,0-0.2-0.1-0.2-0.2c0,0,0,0,0-0.2l3.5-9.5c0-0.1,0.1-0.1,0.2-0.1
			c0.1,0,0.2,0.1,0.2,0.2c0,0,0,0,0,0.2L270.4,52.1z"/>
	</g>
	<g>
		<path class="st1" d="M277.5,49.1c0.2,0,0.9,0,0.9-0.1c0.1-0.1,0.2-0.6,0.2-0.9h0.2l-0.3,1.7h-3.7c0-0.2,0-0.3,0.1-0.4l1.9-2.1
			c0.5-0.6,1-1.4,1-2.2c0-0.8-0.4-1.6-1.3-1.6c-0.6,0-1.1,0.4-1.3,1c0,0,0,0,0.1,0c0.3,0,0.5,0.3,0.5,0.5c0,0.4-0.3,0.5-0.5,0.5
			c0,0-0.5,0-0.5-0.6c0-0.9,0.7-1.8,1.9-1.8c1.2,0,2.1,0.8,2.1,1.9c0,1-0.6,1.5-2.2,2.9l-1.1,1H277.5z"/>
	</g>
	<g>
		<path class="st1" d="M172.5,48v-0.6h2.6V48H172.5z"/>
	</g>
	<g>
		<path class="st1" d="M178.7,49.1c0,0.1,0,0.2,0,0.2c0,0.2,0.1,0.2,0.4,0.2c0.3,0,0.4,0,0.6,0c0.3,0,0.3,0,0.3,0.1
			c0,0.2-0.1,0.2-0.2,0.2c-0.3,0-0.6,0-0.9,0c-0.3,0-0.5,0-0.8,0c-0.3,0-0.6,0-0.8,0c-0.3,0-0.5,0-0.8,0c-0.1,0-0.2,0-0.2-0.1
			c0-0.2,0.1-0.2,0.4-0.2c1.1,0,1.1-0.1,1.2-0.5l1.3-5.3c0,0,0-0.1,0-0.2c0-0.1,0-0.1-0.3-0.1h-0.4c-1.5,0-1.7,0.2-2.3,1.7
			c-0.1,0.2-0.1,0.2-0.2,0.2c-0.1,0-0.1,0-0.1-0.1c0,0,0-0.2,0.1-0.2l0.6-1.8c0.1-0.2,0.1-0.2,0.3-0.2h5.5c0.2,0,0.3,0,0.3,0.1
			c0,0,0,0.1,0,0.2l-0.3,1.7c0,0.1,0,0.2-0.1,0.2c-0.1,0-0.1-0.1-0.1-0.1c0,0,0-0.1,0-0.2c0-0.3,0.1-0.6,0.1-0.8
			c0-0.8-0.4-0.8-1.5-0.8c-0.2,0-0.5,0-0.6,0c-0.1,0-0.2,0.1-0.2,0.4L178.7,49.1z"/>
	</g>
	<g>
		<path class="st1" d="M183.6,51.5c-1.6,0-1.6-1.9-1.6-2.4c0-0.5,0-2.4,1.6-2.4c0.6,0,1,0.3,1.2,0.6c0.3,0.5,0.4,1,0.4,1.8
			C185.2,49.6,185.2,51.5,183.6,51.5z M184.5,50.5c0.1-0.4,0.1-1,0.1-1.5c0-0.6,0-1.1-0.1-1.5c-0.1-0.4-0.5-0.6-0.9-0.6
			c-0.3,0-0.7,0.1-0.9,0.7c-0.1,0.4-0.1,0.9-0.1,1.4c0,0.5,0,1.1,0.1,1.5c0.1,0.6,0.6,0.8,0.9,0.8C183.9,51.3,184.3,51.1,184.5,50.5
			z"/>
	</g>
	<g>
		<path class="st1" d="M187,52.1c-0.1,0.2-0.1,0.2-0.2,0.2c-0.1,0-0.2-0.1-0.2-0.2c0,0,0,0,0-0.2l3.5-9.5c0-0.1,0.1-0.1,0.2-0.1
			c0.1,0,0.2,0.1,0.2,0.2c0,0,0,0,0,0.2L187,52.1z"/>
	</g>
	<g>
		<path class="st1" d="M194.2,49.1c0.2,0,0.9,0,0.9-0.1c0.1-0.1,0.2-0.6,0.2-0.9h0.2l-0.3,1.7h-3.7c0-0.2,0-0.3,0.1-0.4l1.9-2.1
			c0.5-0.6,1-1.4,1-2.2c0-0.8-0.4-1.6-1.3-1.6c-0.6,0-1.1,0.4-1.3,1c0,0,0,0,0.1,0c0.3,0,0.5,0.3,0.5,0.5c0,0.4-0.3,0.5-0.5,0.5
			c0,0-0.5,0-0.5-0.6c0-0.9,0.7-1.8,1.9-1.8c1.2,0,2.1,0.8,2.1,1.9c0,1-0.6,1.5-2.2,2.9l-1.1,1H194.2z"/>
	</g>
	<g>
		<path class="st1" d="M309.6,74.1c0,0.1,0,0.2,0,0.2c0,0.2,0.1,0.2,0.4,0.2c0.3,0,0.4,0,0.6,0c0.3,0,0.3,0,0.3,0.1
			c0,0.2-0.1,0.2-0.2,0.2c-0.3,0-0.6,0-0.9,0c-0.3,0-0.5,0-0.8,0c-0.3,0-0.6,0-0.8,0c-0.3,0-0.5,0-0.8,0c-0.1,0-0.2,0-0.2-0.1
			c0-0.2,0.1-0.2,0.4-0.2c1.1,0,1.1-0.1,1.2-0.5l1.3-5.3c0,0,0-0.1,0-0.2c0-0.1,0-0.1-0.3-0.1h-0.4c-1.5,0-1.7,0.2-2.3,1.7
			c-0.1,0.2-0.1,0.2-0.2,0.2c-0.1,0-0.1,0-0.1-0.1c0,0,0-0.2,0.1-0.2l0.6-1.8c0.1-0.2,0.1-0.2,0.3-0.2h5.5c0.2,0,0.3,0,0.3,0.1
			c0,0,0,0.1,0,0.2l-0.3,1.7c0,0.1,0,0.2-0.1,0.2c-0.1,0-0.1-0.1-0.1-0.1c0,0,0-0.1,0-0.2c0-0.3,0.1-0.6,0.1-0.8
			c0-0.8-0.4-0.8-1.5-0.8c-0.2,0-0.5,0-0.6,0c-0.1,0-0.2,0.1-0.2,0.4L309.6,74.1z"/>
	</g>
	<g>
		<path class="st1" d="M314.5,76.4c-1.6,0-1.6-1.9-1.6-2.4c0-0.5,0-2.4,1.6-2.4c0.6,0,1,0.3,1.2,0.6c0.3,0.5,0.4,1,0.4,1.8
			C316.1,74.5,316.1,76.4,314.5,76.4z M315.4,75.4c0.1-0.4,0.1-1,0.1-1.5c0-0.6,0-1.1-0.1-1.5c-0.1-0.4-0.5-0.6-0.9-0.6
			c-0.3,0-0.7,0.1-0.9,0.7c-0.1,0.4-0.1,0.9-0.1,1.4c0,0.5,0,1.1,0.1,1.5c0.1,0.6,0.6,0.8,0.9,0.8C314.8,76.2,315.3,76,315.4,75.4z"
			/>
	</g>
	<g>
		<path class="st1" d="M392.2,74c0.2,0,0.9,0,0.9-0.1c0.1-0.1,0.2-0.6,0.2-0.9h0.2l-0.3,1.7h-3.7c0-0.2,0-0.3,0.1-0.4l1.9-2.1
			c0.5-0.6,1-1.4,1-2.2c0-0.8-0.4-1.6-1.3-1.6c-0.6,0-1.1,0.4-1.3,1c0,0,0,0,0.1,0c0.3,0,0.5,0.3,0.5,0.5c0,0.4-0.3,0.5-0.5,0.5
			c0,0-0.5,0-0.5-0.6c0-0.9,0.7-1.8,1.9-1.8c1.2,0,2.1,0.8,2.1,1.9c0,1-0.6,1.5-2.2,2.9l-1.1,1H392.2z"/>
	</g>
	<g>
		<path class="st1" d="M397.1,74.1c0,0.1,0,0.2,0,0.2c0,0.2,0.1,0.2,0.4,0.2c0.3,0,0.4,0,0.6,0c0.3,0,0.3,0,0.3,0.1
			c0,0.2-0.1,0.2-0.2,0.2c-0.3,0-0.6,0-0.9,0c-0.3,0-0.5,0-0.8,0c-0.3,0-0.6,0-0.8,0c-0.3,0-0.5,0-0.8,0c-0.1,0-0.2,0-0.2-0.1
			c0-0.2,0.1-0.2,0.4-0.2c1.1,0,1.1-0.1,1.2-0.5l1.3-5.3c0,0,0-0.1,0-0.2c0-0.1,0-0.1-0.3-0.1H397c-1.5,0-1.7,0.2-2.3,1.7
			c-0.1,0.2-0.1,0.2-0.2,0.2c-0.1,0-0.1,0-0.1-0.1c0,0,0-0.2,0.1-0.2l0.6-1.8c0.1-0.2,0.1-0.2,0.3-0.2h5.5c0.2,0,0.3,0,0.3,0.1
			c0,0,0,0.1,0,0.2l-0.3,1.7c0,0.1,0,0.2-0.1,0.2c-0.1,0-0.1-0.1-0.1-0.1c0,0,0-0.1,0-0.2c0-0.3,0.1-0.6,0.1-0.8
			c0-0.8-0.4-0.8-1.5-0.8c-0.2,0-0.5,0-0.6,0c-0.1,0-0.2,0.1-0.2,0.4L397.1,74.1z"/>
	</g>
	<g>
		<path class="st1" d="M402.1,76.4c-1.6,0-1.6-1.9-1.6-2.4c0-0.5,0-2.4,1.6-2.4c0.6,0,1,0.3,1.2,0.6c0.3,0.5,0.4,1,0.4,1.8
			C403.7,74.5,403.7,76.4,402.1,76.4z M403,75.4c0.1-0.4,0.1-1,0.1-1.5c0-0.6,0-1.1-0.1-1.5c-0.1-0.4-0.5-0.6-0.9-0.6
			c-0.3,0-0.7,0.1-0.9,0.7c-0.1,0.4-0.1,0.9-0.1,1.4c0,0.5,0,1.1,0.1,1.5c0.1,0.6,0.6,0.8,0.9,0.8C402.3,76.2,402.8,76,403,75.4z"/>
	</g>
	<g>
		<path class="st1" d="M135,73v-0.6h2.6V73H135z"/>
	</g>
	<g>
		<path class="st1" d="M141.2,74.1c0,0.1,0,0.2,0,0.2c0,0.2,0.1,0.2,0.4,0.2c0.3,0,0.4,0,0.6,0c0.3,0,0.3,0,0.3,0.1
			c0,0.2-0.1,0.2-0.2,0.2c-0.3,0-0.6,0-0.9,0c-0.3,0-0.5,0-0.8,0c-0.3,0-0.6,0-0.8,0c-0.3,0-0.5,0-0.8,0c-0.1,0-0.2,0-0.2-0.1
			c0-0.2,0.1-0.2,0.4-0.2c1.1,0,1.1-0.1,1.2-0.5l1.3-5.3c0,0,0-0.1,0-0.2c0-0.1,0-0.1-0.3-0.1h-0.4c-1.5,0-1.7,0.2-2.3,1.7
			c-0.1,0.2-0.1,0.2-0.2,0.2c-0.1,0-0.1,0-0.1-0.1c0,0,0-0.2,0.1-0.2l0.6-1.8c0.1-0.2,0.1-0.2,0.3-0.2h5.5c0.2,0,0.3,0,0.3,0.1
			c0,0,0,0.1,0,0.2l-0.3,1.7c0,0.1,0,0.2-0.1,0.2c-0.1,0-0.1-0.1-0.1-0.1c0,0,0-0.1,0-0.2c0-0.3,0.1-0.6,0.1-0.8
			c0-0.8-0.4-0.8-1.5-0.8c-0.2,0-0.5,0-0.6,0c-0.1,0-0.2,0.1-0.2,0.4L141.2,74.1z"/>
	</g>
	<g>
		<path class="st1" d="M146.1,76.4c-1.6,0-1.6-1.9-1.6-2.4c0-0.5,0-2.4,1.6-2.4c0.6,0,1,0.3,1.2,0.6c0.3,0.5,0.4,1,0.4,1.8
			C147.7,74.5,147.7,76.4,146.1,76.4z M147,75.4c0.1-0.4,0.1-1,0.1-1.5c0-0.6,0-1.1-0.1-1.5c-0.1-0.4-0.5-0.6-0.9-0.6
			c-0.3,0-0.7,0.1-0.9,0.7c-0.1,0.4-0.1,0.9-0.1,1.4c0,0.5,0,1.1,0.1,1.5c0.1,0.6,0.6,0.8,0.9,0.8C146.4,76.2,146.9,76,147,75.4z"/>
	</g>
	<g>
		<path class="st1" d="M47.4,73v-0.6h2.6V73H47.4z"/>
		<path class="st1" d="M53.8,74c0.2,0,0.9,0,0.9-0.1c0.1-0.1,0.2-0.6,0.2-0.9h0.2l-0.3,1.7h-3.7c0-0.2,0-0.3,0.1-0.4l1.9-2.1
			c0.5-0.6,1-1.4,1-2.2c0-0.8-0.4-1.6-1.3-1.6c-0.6,0-1.1,0.4-1.3,1c0,0,0,0,0.1,0c0.3,0,0.5,0.3,0.5,0.5c0,0.4-0.3,0.5-0.5,0.5
			c0,0-0.5,0-0.5-0.6c0-0.9,0.7-1.8,1.9-1.8c1.2,0,2.1,0.8,2.1,1.9c0,1-0.6,1.5-2.2,2.9L52,74H53.8z"/>
	</g>
	<g>
		<path class="st1" d="M58.7,74.1c0,0.1,0,0.2,0,0.2c0,0.2,0.1,0.2,0.4,0.2c0.3,0,0.4,0,0.6,0c0.3,0,0.3,0,0.3,0.1
			c0,0.2-0.1,0.2-0.2,0.2c-0.3,0-0.6,0-0.9,0c-0.3,0-0.5,0-0.8,0c-0.3,0-0.6,0-0.8,0c-0.3,0-0.5,0-0.8,0c-0.1,0-0.2,0-0.2-0.1
			c0-0.2,0.1-0.2,0.4-0.2c1.1,0,1.1-0.1,1.2-0.5l1.3-5.3c0,0,0-0.1,0-0.2c0-0.1,0-0.1-0.3-0.1h-0.4c-1.5,0-1.7,0.2-2.3,1.7
			c-0.1,0.2-0.1,0.2-0.2,0.2c-0.1,0-0.1,0-0.1-0.1c0,0,0-0.2,0.1-0.2l0.6-1.8c0.1-0.2,0.1-0.2,0.3-0.2h5.5c0.2,0,0.3,0,0.3,0.1
			c0,0,0,0.1,0,0.2l-0.3,1.7c0,0.1,0,0.2-0.1,0.2c-0.1,0-0.1-0.1-0.1-0.1c0,0,0-0.1,0-0.2c0-0.3,0.1-0.6,0.1-0.8
			c0-0.8-0.4-0.8-1.5-0.8c-0.2,0-0.5,0-0.6,0c-0.1,0-0.2,0.1-0.2,0.4L58.7,74.1z"/>
	</g>
	<g>
		<path class="st1" d="M63.6,76.4C62,76.4,62,74.5,62,74c0-0.5,0-2.4,1.6-2.4c0.6,0,1,0.3,1.2,0.6c0.3,0.5,0.4,1,0.4,1.8
			C65.2,74.5,65.2,76.4,63.6,76.4z M64.5,75.4c0.1-0.4,0.1-1,0.1-1.5c0-0.6,0-1.1-0.1-1.5c-0.1-0.4-0.5-0.6-0.9-0.6
			c-0.3,0-0.7,0.1-0.9,0.7c-0.1,0.4-0.1,0.9-0.1,1.4c0,0.5,0,1.1,0.1,1.5c0.1,0.6,0.6,0.8,0.9,0.8C63.9,76.2,64.3,76,64.5,75.4z"/>
	</g>
	<path class="st4" d="M248,58V22.6 M248,22.6h-42.5 M205.5,22.6V58 M450,58H248 M205.5,58H0"/>
	<path class="st5" d="M354.3,58h21.3 M375.6,58V22.6 M375.6,22.6h42.5 M418.1,22.6V58 M418.1,58H450 M0,58h35.4 M35.4,58V22.6
		 M35.4,22.6H78 M78,22.6V58 M78,58h21.3 M205.5,58V22.6 M205.5,22.6H248 M248,22.6V58 M248,58h42.5 M290.5,58V22.6 M290.5,22.6
		h42.5 M333.1,22.6V58 M333.1,58h21.3 M99.2,58h21.3 M120.5,58V22.6 M120.5,22.6H163 M163,22.6V58 M163,58h42.5"/>
	<g>
		<path class="st1" d="M240.4,94.1c-0.1,0.4-0.2,0.7-0.2,0.9c0,0.3,0.2,0.7,0.5,0.7c0.3,0,1-0.2,1.3-1.3c0-0.1,0-0.1,0.1-0.1
			c0,0,0.1,0,0.1,0.1c0,0.2-0.6,1.5-1.6,1.5c-0.6,0-1-0.4-1.1-0.8c0,0.1-0.4,0.8-1,0.8c-0.4,0-0.9-0.2-0.9-0.7
			c0-0.3,0.2-0.6,0.5-0.6c0.1,0,0.4,0.1,0.4,0.3c0,0.3-0.2,0.5-0.5,0.5c0.2,0.1,0.4,0.1,0.5,0.1c0.4,0,0.8-0.4,0.9-1
			c0.4-1.4,0.5-2.1,0.5-2.4c0-0.6-0.3-0.7-0.5-0.7c-0.3,0-1,0.2-1.3,1.3c0,0.1,0,0.1-0.1,0.1c0,0-0.1,0-0.1-0.1
			c0-0.2,0.6-1.5,1.6-1.5c0.3,0,0.8,0.1,1.1,0.8c0.1-0.2,0.5-0.8,1-0.8c0.3,0,0.9,0.1,0.9,0.7c0,0.4-0.3,0.6-0.5,0.6
			c-0.3,0-0.4-0.2-0.4-0.3c0-0.2,0.2-0.5,0.5-0.5c-0.2-0.1-0.4-0.1-0.5-0.1c-0.7,0-0.9,0.9-1,1.2L240.4,94.1z"/>
	</g>
	<g>
		<path class="st1" d="M246.2,98.2c-0.1,0-1-0.6-1.6-1.9c-0.5-1.1-0.7-2.3-0.7-3.1c0-0.8,0.1-1.9,0.6-3c0.6-1.3,1.5-1.9,1.6-1.9
			c0.1,0,0.1,0,0.1,0.1c0,0,0,0-0.1,0.2c-1.2,1.2-1.6,3-1.6,4.7c0,1.5,0.3,3.4,1.6,4.7C246.3,98.1,246.3,98.1,246.2,98.2
			C246.3,98.2,246.3,98.2,246.2,98.2z"/>
	</g>
	<g>
		<path class="st1" d="M248.2,94.7c0,0.2-0.1,0.2-0.1,0.5c0,0.3,0.1,0.5,0.3,0.5c0.3,0,0.9-0.2,1.3-1.3c0-0.1,0.1-0.1,0.1-0.1
			c0,0,0.1,0,0.1,0.1c0,0.1-0.6,1.5-1.6,1.5c-0.5,0-0.9-0.4-0.9-0.9c0-0.2,0-0.3,0.8-3.2h-0.9c-0.2,0-0.3,0-0.3-0.1
			c0-0.2,0.1-0.2,0.3-0.2h0.9l0.4-1.6c0.1-0.3,0.4-0.4,0.4-0.4c0.2,0,0.3,0.1,0.3,0.3c0,0.1,0,0.3-0.4,1.7h0.9c0.2,0,0.3,0,0.3,0.1
			c0,0.2-0.1,0.2-0.3,0.2h-0.9L248.2,94.7z"/>
	</g>
	<g>
		<path class="st1" d="M252.7,96.3c-0.6,1.3-1.5,1.9-1.6,1.9c-0.1,0-0.1,0-0.1-0.1c0,0,0-0.1,0.1-0.2c1.2-1.3,1.6-3,1.6-4.7
			c0-2.1-0.6-3.7-1.5-4.7c-0.2-0.2-0.2-0.2-0.2-0.2c0-0.1,0-0.1,0.1-0.1c0.1,0,1,0.6,1.6,1.9c0.5,1.1,0.7,2.3,0.7,3.1
			C253.4,94.1,253.2,95.2,252.7,96.3z"/>
	</g>
	<g>
		<path class="st1" d="M255.4,97.6c0,0-0.1,0-0.1-0.1c0,0,0,0,0.1-0.2c0.3-0.3,0.7-0.9,0.7-1.7c0-0.1,0-0.1,0-0.1c0,0,0,0,0,0
			c-0.1,0.1-0.2,0.1-0.3,0.1c-0.3,0-0.5-0.3-0.5-0.5c0-0.3,0.2-0.5,0.5-0.5c0.4,0,0.6,0.4,0.6,1C256.3,96.9,255.5,97.6,255.4,97.6z"
			/>
	</g>
	<g>
		<path class="st2" d="M261.7,94.1c-0.1,0.4-0.2,0.7-0.2,0.9c0,0.3,0.2,0.7,0.5,0.7c0.3,0,1-0.2,1.3-1.3c0-0.1,0-0.1,0.1-0.1
			c0,0,0.1,0,0.1,0.1c0,0.2-0.6,1.5-1.6,1.5c-0.6,0-1-0.4-1.1-0.8c0,0.1-0.4,0.8-1,0.8c-0.4,0-0.9-0.2-0.9-0.7
			c0-0.3,0.2-0.6,0.5-0.6c0.1,0,0.4,0.1,0.4,0.3c0,0.3-0.2,0.5-0.5,0.5c0.2,0.1,0.4,0.1,0.5,0.1c0.4,0,0.8-0.4,0.9-1
			c0.4-1.4,0.5-2.1,0.5-2.4c0-0.6-0.3-0.7-0.5-0.7c-0.3,0-1,0.2-1.3,1.3c0,0.1,0,0.1-0.1,0.1c0,0-0.1,0-0.1-0.1
			c0-0.2,0.6-1.5,1.6-1.5c0.3,0,0.8,0.1,1.1,0.8c0.1-0.2,0.5-0.8,1-0.8c0.3,0,0.9,0.1,0.9,0.7c0,0.4-0.3,0.6-0.5,0.6
			c-0.3,0-0.4-0.2-0.4-0.3c0-0.2,0.2-0.5,0.5-0.5c-0.2-0.1-0.4-0.1-0.5-0.1c-0.7,0-0.9,0.9-1,1.2L261.7,94.1z"/>
	</g>
	<g>
		<path class="st2" d="M265.7,94.8c0,0,0-0.1,0-0.2c0-0.2,0-0.3-0.2-0.3c-0.3,0-0.4,0.3-0.5,0.8c0,0.2-0.1,0.2-0.2,0.2
			c0,0-0.1,0-0.1-0.1c0,0,0.1-0.5,0.3-0.7c0.1-0.2,0.3-0.4,0.6-0.4c0.2,0,0.6,0.1,0.7,0.5c0.2-0.2,0.6-0.5,1-0.5c0.5,0,1,0.3,1,1.2
			c0,1-0.9,2-1.8,2c-0.4,0-0.6-0.3-0.7-0.4c-0.1,0.3-0.2,0.7-0.3,1c0,0.1-0.1,0.3-0.1,0.3c0,0.1,0.2,0.1,0.3,0.1
			c0.1,0,0.2,0,0.2,0.1c0,0.1-0.1,0.2-0.1,0.2c-0.2,0-0.5,0-0.7,0c-0.2,0-0.4,0-0.6,0c0,0-0.1,0-0.1-0.1c0-0.1,0.1-0.1,0.2-0.1
			c0.3,0,0.3-0.1,0.3-0.3L265.7,94.8z M265.9,96.3c0,0,0,0.1,0,0.1c0,0.1,0.1,0.6,0.6,0.6c0.4,0,0.7-0.3,0.9-0.7
			c0.2-0.4,0.4-1.1,0.4-1.4c0-0.5-0.2-0.7-0.5-0.7c-0.2,0-0.6,0.1-1,0.6L265.9,96.3z"/>
	</g>
	<g>
		<path class="st2" d="M272.3,98.2c-0.1,0-1-0.6-1.6-1.9c-0.5-1.1-0.7-2.3-0.7-3.1c0-0.8,0.1-1.9,0.6-3c0.6-1.3,1.5-1.9,1.6-1.9
			c0.1,0,0.1,0,0.1,0.1c0,0,0,0-0.1,0.2c-1.2,1.2-1.6,3-1.6,4.7c0,1.5,0.3,3.4,1.6,4.7C272.4,98.1,272.4,98.1,272.3,98.2
			C272.4,98.2,272.3,98.2,272.3,98.2z"/>
	</g>
	<g>
		<path class="st2" d="M274.2,94.7c0,0.2-0.1,0.2-0.1,0.5c0,0.3,0.1,0.5,0.3,0.5c0.3,0,0.9-0.2,1.3-1.3c0-0.1,0.1-0.1,0.1-0.1
			c0,0,0.1,0,0.1,0.1c0,0.1-0.6,1.5-1.6,1.5c-0.5,0-0.9-0.4-0.9-0.9c0-0.2,0-0.3,0.8-3.2h-0.9c-0.2,0-0.3,0-0.3-0.1
			c0-0.2,0.1-0.2,0.3-0.2h0.9l0.4-1.6c0.1-0.3,0.4-0.4,0.4-0.4c0.2,0,0.3,0.1,0.3,0.3c0,0.1,0,0.3-0.4,1.7h0.9c0.2,0,0.3,0,0.3,0.1
			c0,0.2-0.1,0.2-0.3,0.2H275L274.2,94.7z"/>
	</g>
	<g>
		<path class="st2" d="M278.8,96.3c-0.6,1.3-1.5,1.9-1.6,1.9c-0.1,0-0.1,0-0.1-0.1c0,0,0-0.1,0.1-0.2c1.2-1.3,1.6-3,1.6-4.7
			c0-2.1-0.6-3.7-1.5-4.7c-0.2-0.2-0.2-0.2-0.2-0.2c0-0.1,0-0.1,0.1-0.1c0.1,0,1,0.6,1.6,1.9c0.5,1.1,0.7,2.3,0.7,3.1
			C279.4,94.1,279.3,95.2,278.8,96.3z"/>
	</g>
	<g>
		<path class="st2" d="M363.8,95.2c0,0.1,0,0.2,0,0.2c0,0.2,0.1,0.2,0.4,0.2c0.3,0,0.4,0,0.6,0c0.3,0,0.3,0,0.3,0.1
			c0,0.2-0.1,0.2-0.2,0.2c-0.3,0-0.6,0-0.9,0c-0.3,0-0.5,0-0.8,0c-0.3,0-0.6,0-0.8,0c-0.3,0-0.5,0-0.8,0c-0.1,0-0.2,0-0.2-0.1
			c0-0.2,0.1-0.2,0.4-0.2c1.1,0,1.1-0.1,1.2-0.5l1.3-5.3c0,0,0-0.1,0-0.2c0-0.1,0-0.1-0.3-0.1h-0.4c-1.5,0-1.7,0.2-2.3,1.7
			c-0.1,0.2-0.1,0.2-0.2,0.2c-0.1,0-0.1,0-0.1-0.1c0,0,0-0.2,0.1-0.2l0.6-1.8c0.1-0.2,0.1-0.2,0.3-0.2h5.5c0.2,0,0.3,0,0.3,0.1
			c0,0,0,0.1,0,0.2l-0.3,1.7c0,0.1,0,0.2-0.1,0.2c-0.1,0-0.1-0.1-0.1-0.1c0,0,0-0.1,0-0.2c0-0.3,0.1-0.6,0.1-0.8
			c0-0.8-0.4-0.8-1.5-0.8c-0.2,0-0.5,0-0.6,0c-0.1,0-0.2,0.1-0.2,0.4L363.8,95.2z"/>
	</g>
	<g>
		<path class="st2" d="M368.7,97.5c-1.6,0-1.6-1.9-1.6-2.4c0-0.5,0-2.4,1.6-2.4c0.6,0,1,0.3,1.2,0.6c0.3,0.5,0.4,1,0.4,1.8
			C370.3,95.7,370.3,97.5,368.7,97.5z M369.6,96.5c0.1-0.4,0.1-1,0.1-1.5c0-0.6,0-1.1-0.1-1.5c-0.1-0.4-0.5-0.6-0.9-0.6
			c-0.3,0-0.7,0.1-0.9,0.7c-0.1,0.4-0.1,0.9-0.1,1.4c0,0.5,0,1.1,0.1,1.5c0.1,0.6,0.6,0.8,0.9,0.8C369,97.3,369.5,97.2,369.6,96.5z"
			/>
	</g>
	<g>
		<path class="st2" d="M374.7,92.7c-0.1,0-0.3,0-0.3-0.2s0.2-0.2,0.3-0.2h6c0.1,0,0.3,0,0.3,0.2s-0.2,0.2-0.3,0.2H374.7z
			 M374.7,94.6c-0.1,0-0.3,0-0.3-0.2s0.2-0.2,0.3-0.2h5.9c0.1,0,0.3,0,0.3,0.2s-0.2,0.2-0.3,0.2H374.7z"/>
		<path class="st2" d="M387.3,95.2c0,0.4,0,0.5,0.9,0.5h0.3V96c-0.3,0-1.2,0-1.6,0s-1.3,0-1.6,0v-0.3h0.3c0.9,0,0.9-0.1,0.9-0.5V90
			c-0.5,0.3-1.1,0.3-1.3,0.3V90c0.3,0,1.2,0,1.8-0.6c0.2,0,0.2,0,0.2,0.3V95.2z"/>
	</g>
	<g>
		<path class="st2" d="M390.4,98.2c-0.1,0.2-0.1,0.2-0.2,0.2c-0.1,0-0.2-0.1-0.2-0.2c0,0,0,0,0-0.2l3.5-9.5c0-0.1,0.1-0.1,0.2-0.1
			c0.1,0,0.2,0.1,0.2,0.2c0,0,0,0,0,0.2L390.4,98.2z"/>
		<path class="st2" d="M396.9,95.2c0,0.1,0,0.2,0,0.2c0,0.1,0,0.2,0.3,0.2c0.2,0,0.3,0,0.5,0c0.2,0,0.2,0,0.3,0c0,0,0.1,0,0.1,0.1
			c0,0.2-0.1,0.2-0.2,0.2c-0.3,0-1.2,0-1.5,0c-0.3,0-1,0-1.3,0c0,0-0.1,0-0.1-0.1c0-0.2,0.1-0.2,0.3-0.2c0.8,0,0.8-0.1,0.9-0.5
			l1.3-5.3c0-0.2,0-0.2,0-0.2c0-0.2-0.3-0.2-0.6-0.2c-0.2,0-0.3,0-0.3-0.1c0-0.2,0.1-0.2,0.3-0.2h4.9c0.3,0,0.3,0,0.3,0.3l-0.2,1.7
			c0,0.2,0,0.2-0.1,0.2c-0.1,0-0.1-0.1-0.1-0.1c0,0,0,0,0-0.2c0-0.3,0-0.3,0-0.5c0-0.8-0.2-1.1-1.5-1.1h-1.3c-0.4,0-0.4,0-0.5,0.4
			l-0.6,2.5h0.9c0.8,0,1.1-0.2,1.3-1c0-0.2,0-0.2,0.1-0.2s0.1,0.1,0.1,0.1c0,0,0,0,0,0.2l-0.5,2.2c0,0.2,0,0.2-0.1,0.2
			c-0.1,0-0.1,0-0.1-0.1c0,0,0-0.1,0-0.1c0.1-0.3,0.1-0.4,0.1-0.5c0-0.3-0.1-0.4-0.8-0.4h-1L396.9,95.2z"/>
	</g>
	<g>
		<path class="st2" d="M402.8,97.5c-1.6,0-1.6-1.9-1.6-2.4c0-0.5,0-2.4,1.6-2.4c0.6,0,1,0.3,1.2,0.6c0.3,0.5,0.4,1,0.4,1.8
			C404.4,95.7,404.4,97.5,402.8,97.5z M403.7,96.5c0.1-0.4,0.1-1,0.1-1.5c0-0.6,0-1.1-0.1-1.5c-0.1-0.4-0.5-0.6-0.9-0.6
			c-0.3,0-0.7,0.1-0.9,0.7c-0.1,0.4-0.1,0.9-0.1,1.4c0,0.5,0,1.1,0.1,1.5c0.1,0.6,0.6,0.8,0.9,0.8C403.1,97.3,403.5,97.2,403.7,96.5
			z"/>
	</g>
	<g>
		<path class="st1" d="M408.9,92.7c-0.1,0-0.3,0-0.3-0.2s0.2-0.2,0.3-0.2h6c0.1,0,0.3,0,0.3,0.2s-0.2,0.2-0.3,0.2H408.9z
			 M408.9,94.6c-0.1,0-0.3,0-0.3-0.2s0.2-0.2,0.3-0.2h5.9c0.1,0,0.3,0,0.3,0.2s-0.2,0.2-0.3,0.2H408.9z"/>
	</g>
	<g>
		<path class="st3" d="M422.9,95.5h1V96c-0.3,0-1.2,0-1.6,0c-0.4,0-1.3,0-1.7,0v-0.5h1.1v-1.1h-2.9v-0.5l3.5-4.4
			c0.1-0.1,0.1-0.2,0.3-0.2c0.3,0,0.3,0,0.3,0.3v4.2h1v0.5h-1V95.5z M421.8,90.9l-2.5,3.1h2.5V90.9z"/>
	</g>
	<g>
		<path class="st1" d="M427.9,94c-0.3,0-0.5-0.2-0.5-0.5c0-0.3,0.2-0.5,0.5-0.5s0.5,0.2,0.5,0.5C428.4,93.8,428.2,94,427.9,94z"/>
	</g>
	<g>
		<path class="st1" d="M439.2,95.8c0,0.1,0,0.1,0,0.1c0,0.1-0.1,0.1-0.2,0.1h-6.9c-0.2,0-0.2,0-0.2-0.1c0,0,0,0,0-0.1l3.4-6.8
			c0.1-0.1,0.1-0.2,0.3-0.2c0.2,0,0.2,0,0.3,0.2L439.2,95.8z M432.6,95.2h5.4l-2.7-5.4L432.6,95.2z"/>
	</g>
	<g>
		<path class="st1" d="M442.6,95.2c0,0.1,0,0.2,0,0.2c0,0.2,0.1,0.2,0.4,0.2c0.3,0,0.4,0,0.6,0c0.3,0,0.3,0,0.3,0.1
			c0,0.2-0.1,0.2-0.2,0.2c-0.3,0-0.6,0-0.9,0c-0.3,0-0.5,0-0.8,0c-0.3,0-0.6,0-0.8,0c-0.3,0-0.5,0-0.8,0c-0.1,0-0.2,0-0.2-0.1
			c0-0.2,0.1-0.2,0.4-0.2c1.1,0,1.1-0.1,1.2-0.5l1.3-5.3c0,0,0-0.1,0-0.2c0-0.1,0-0.1-0.3-0.1h-0.4c-1.5,0-1.7,0.2-2.3,1.7
			c-0.1,0.2-0.1,0.2-0.2,0.2c-0.1,0-0.1,0-0.1-0.1c0,0,0-0.2,0.1-0.2l0.6-1.8c0.1-0.2,0.1-0.2,0.3-0.2h5.5c0.2,0,0.3,0,0.3,0.1
			c0,0,0,0.1,0,0.2l-0.3,1.7c0,0.1,0,0.2-0.1,0.2c-0.1,0-0.1-0.1-0.1-0.1c0,0,0-0.1,0-0.2c0-0.3,0.1-0.6,0.1-0.8
			c0-0.8-0.4-0.8-1.5-0.8c-0.2,0-0.5,0-0.6,0c-0.1,0-0.2,0.1-0.2,0.4L442.6,95.2z"/>
	</g>
	<polyline points="357.4,85.5 450.4,85.5 450.4,85 357.4,85 	"/>
	<polyline points="357.4,101.6 357.9,101.6 357.9,85.2 357.4,85.2 	"/>
	<polyline points="449.9,101.6 450.4,101.6 450.4,85.2 449.9,85.2 	"/>
	<polyline points="357.4,101.8 450.4,101.8 450.4,101.4 357.4,101.4 	"/>
	<polyline points="229,98 226.8,93.4 224.5,98 226.8,96.8 	"/>
	<path class="st0" d="M226.8,146.6V96.8 M202,143h7.1"/>
	<g>
		<path class="st1" d="M440.7,158.7c0,0.2-0.1,0.2-0.1,0.5c0,0.3,0.1,0.5,0.3,0.5c0.3,0,0.9-0.2,1.3-1.3c0-0.1,0.1-0.1,0.1-0.1
			c0,0,0.1,0,0.1,0.1c0,0.1-0.6,1.5-1.6,1.5c-0.5,0-0.9-0.4-0.9-0.9c0-0.2,0-0.3,0.8-3.2h-0.9c-0.2,0-0.3,0-0.3-0.1
			c0-0.2,0.1-0.2,0.3-0.2h0.9l0.4-1.6c0.1-0.3,0.4-0.4,0.4-0.4c0.2,0,0.3,0.1,0.3,0.3c0,0.1,0,0.3-0.4,1.7h0.9c0.2,0,0.3,0,0.3,0.1
			c0,0.2-0.1,0.2-0.3,0.2h-0.9L440.7,158.7z"/>
	</g>
	<g>
		<path class="st1" d="M447.4,162.2v-10h1.4v0.4h-1v9.2h1v0.4H447.4z"/>
		<path class="st1" d="M449.7,157.3c-0.3-0.2-0.4-0.5-0.4-0.8c0-0.6,0.4-1.2,1.6-1.2c0.1,0,0.6,0,0.9,0.3c0,0,0.1-0.1,0.2-0.2
			c0.1-0.1,0.1-0.1,0.2-0.1c0.1,0,0.1,0.1,0.1,0.2v1c0,0.2,0,0.2-0.1,0.2c0,0-0.1,0-0.1-0.1c0-0.3-0.1-1.2-1.2-1.2
			c-0.9,0-1.1,0.4-1.1,0.8c0,0.6,0.7,0.7,1.2,0.8c0.4,0.1,0.8,0.2,1.1,0.5c0.1,0.1,0.4,0.4,0.4,0.9c0,0.7-0.5,1.4-1.6,1.4
			c-0.2,0-0.7,0-1.1-0.4c-0.2,0.2-0.2,0.2-0.2,0.2c-0.2,0.2-0.2,0.2-0.2,0.2c-0.1,0-0.1-0.1-0.1-0.2v-1.3c0-0.2,0-0.3,0.1-0.3
			c0.1,0,0.1,0,0.1,0.2c0.2,0.8,0.5,1.4,1.4,1.4c0.8,0,1.1-0.4,1.1-0.9c0-0.7-0.8-0.9-1-0.9C450.3,157.7,450,157.6,449.7,157.3z"/>
		<path class="st1" d="M454.3,158.9c0.2,0.4,0.6,0.7,1.1,0.7c0.1,0,1,0,1.3-1c0-0.1,0-0.1,0.1-0.1c0,0,0.1,0,0.1,0.1
			c0,0.2-0.4,1.3-1.7,1.3c-1.1,0-2.2-1-2.2-2.3c0-1.2,0.9-2.3,2.1-2.3c1.2,0,1.8,1,1.8,2c0,0.2,0,0.2-0.2,0.2H454
			C454,157.8,454,158.5,454.3,158.9z M456.4,157.2c0-0.4-0.1-1.7-1.1-1.7c-0.3,0-1.2,0.3-1.2,1.7H456.4z"/>
		<path class="st1" d="M459.9,159.6c0.4,0,1-0.1,1.3-1c0-0.1,0-0.1,0.1-0.1c0,0,0.1,0,0.1,0.1s-0.3,1.3-1.7,1.3
			c-1.2,0-2.1-1-2.1-2.3c0-1.2,0.9-2.3,2.2-2.3c0.8,0,1.5,0.4,1.5,1.1c0,0.3-0.2,0.5-0.5,0.5c-0.3,0-0.5-0.2-0.5-0.5
			c0-0.1,0.1-0.4,0.5-0.5c-0.3-0.4-1-0.4-1.1-0.4c-0.5,0-1.3,0.4-1.3,2C458.5,159.2,459.4,159.6,459.9,159.6z"/>
		<path class="st1" d="M463.4,162.2H462v-0.4h1v-9.2h-1v-0.4h1.4V162.2z"/>
	</g>
	<polyline points="449,145.3 453.5,143 449,140.8 450.1,143 	"/>
	<path class="st0" d="M0,143h450.1 M205.5,146.6v-7.1 M248,146.6v-7.1 M269.3,146.6v-7.1 M290.5,146.6v-7.1 M311.8,146.6v-7.1
		 M333.1,146.6v-7.1 M354.3,146.6v-7.1 M375.6,146.6v-7.1 M396.8,146.6v-7.1 M418.1,146.6v-7.1 M439.4,146.6v-7.1 M14.2,146.6v-7.1
		 M35.4,146.6v-7.1 M56.7,146.6v-7.1 M78,146.6v-7.1 M99.2,146.6v-7.1 M120.5,146.6v-7.1 M141.7,146.6v-7.1 M163,146.6v-7.1
		 M184.3,146.6v-7.1"/>
	<g>
		<path class="st1" d="M220.1,103c0,0.4,0,0.5,0.9,0.5h0.3v0.3c-0.3,0-1.2,0-1.6,0c-0.4,0-1.3,0-1.6,0v-0.3h0.3
			c0.9,0,0.9-0.1,0.9-0.5v-5.2c-0.5,0.3-1.1,0.3-1.3,0.3v-0.3c0.3,0,1.2,0,1.8-0.6c0.2,0,0.2,0,0.2,0.3V103z"/>
	</g>
	<g>
		<path class="st1" d="M243.2,159.5c0,0.1,0,0.1,0,0.1c0,0.1-0.1,0.1-0.2,0.1h-6.9c-0.2,0-0.2,0-0.2-0.1c0,0,0,0,0-0.1l3.4-6.8
			c0.1-0.1,0.1-0.2,0.3-0.2c0.2,0,0.2,0,0.3,0.2L243.2,159.5z M236.6,159h5.4l-2.7-5.4L236.6,159z"/>
	</g>
	<g>
		<path class="st1" d="M246.6,159c0,0.1,0,0.2,0,0.2c0,0.2,0.1,0.2,0.4,0.2c0.3,0,0.4,0,0.6,0c0.3,0,0.3,0,0.3,0.1
			c0,0.2-0.1,0.2-0.2,0.2c-0.3,0-0.6,0-0.9,0c-0.3,0-0.5,0-0.8,0c-0.3,0-0.6,0-0.8,0c-0.3,0-0.5,0-0.8,0c-0.1,0-0.2,0-0.2-0.1
			c0-0.2,0.1-0.2,0.4-0.2c1.1,0,1.1-0.1,1.2-0.5l1.3-5.3c0,0,0-0.1,0-0.2c0-0.1,0-0.1-0.3-0.1h-0.4c-1.5,0-1.7,0.2-2.3,1.7
			c-0.1,0.2-0.1,0.2-0.2,0.2c-0.1,0-0.1,0-0.1-0.1c0,0,0-0.2,0.1-0.2l0.6-1.8c0.1-0.2,0.1-0.2,0.3-0.2h5.5c0.2,0,0.3,0,0.3,0.1
			c0,0,0,0.1,0,0.2l-0.3,1.7c0,0.1,0,0.2-0.1,0.2c-0.1,0-0.1-0.1-0.1-0.1c0,0,0-0.2,0-0.2c0-0.3,0.1-0.6,0.1-0.8
			c0-0.8-0.4-0.8-1.5-0.8c-0.2,0-0.5,0-0.6,0c-0.1,0-0.2,0.1-0.2,0.4L246.6,159z"/>
		<path class="st1" d="M251.6,162c-0.1,0.2-0.1,0.2-0.2,0.2c-0.1,0-0.2-0.1-0.2-0.2c0,0,0,0,0-0.2l3.5-9.5c0-0.1,0.1-0.1,0.2-0.1
			c0.1,0,0.2,0.1,0.2,0.2c0,0,0,0,0,0.2L251.6,162z"/>
	</g>
	<g>
		<path class="st1" d="M258.8,159c0.2,0,0.9,0,0.9-0.1c0.1-0.1,0.2-0.6,0.2-0.9h0.2l-0.3,1.7h-3.7c0-0.2,0-0.3,0.1-0.4l1.9-2.1
			c0.5-0.6,1-1.4,1-2.2c0-0.8-0.4-1.6-1.3-1.6c-0.6,0-1.1,0.4-1.3,1c0,0,0,0,0.1,0c0.3,0,0.5,0.3,0.5,0.5c0,0.4-0.3,0.5-0.5,0.5
			c0,0-0.5,0-0.5-0.6c0-0.9,0.7-1.8,1.9-1.8c1.2,0,2.1,0.8,2.1,1.9c0,1-0.6,1.5-2.2,2.9l-1.1,1H258.8z"/>
	</g>
	<g>
		<path class="st1" d="M191.3,157.9v-0.6h2.6v0.6H191.3z"/>
		<path class="st1" d="M202.4,159.5c0,0.1,0,0.1,0,0.1c0,0.1-0.1,0.1-0.2,0.1h-6.9c-0.2,0-0.2,0-0.2-0.1c0,0,0,0,0-0.1l3.4-6.8
			c0.1-0.1,0.1-0.2,0.3-0.2s0.2,0,0.3,0.2L202.4,159.5z M195.7,159h5.4l-2.7-5.4L195.7,159z"/>
	</g>
	<g>
		<path class="st1" d="M205.8,159c0,0.1,0,0.2,0,0.2c0,0.2,0.1,0.2,0.4,0.2c0.3,0,0.4,0,0.6,0c0.3,0,0.3,0,0.3,0.1
			c0,0.2-0.1,0.2-0.2,0.2c-0.3,0-0.6,0-0.9,0c-0.3,0-0.5,0-0.8,0c-0.3,0-0.6,0-0.8,0c-0.3,0-0.5,0-0.8,0c-0.1,0-0.2,0-0.2-0.1
			c0-0.2,0.1-0.2,0.4-0.2c1.1,0,1.1-0.1,1.2-0.5l1.3-5.3c0,0,0-0.1,0-0.2c0-0.1,0-0.1-0.3-0.1h-0.4c-1.5,0-1.7,0.2-2.3,1.7
			c-0.1,0.2-0.1,0.2-0.2,0.2c-0.1,0-0.1,0-0.1-0.1c0,0,0-0.2,0.1-0.2l0.6-1.8c0.1-0.2,0.1-0.2,0.3-0.2h5.5c0.2,0,0.3,0,0.3,0.1
			c0,0,0,0.1,0,0.2l-0.3,1.7c0,0.1,0,0.2-0.1,0.2c-0.1,0-0.1-0.1-0.1-0.1c0,0,0-0.2,0-0.2c0-0.3,0.1-0.6,0.1-0.8
			c0-0.8-0.4-0.8-1.5-0.8c-0.2,0-0.5,0-0.6,0c-0.1,0-0.2,0.1-0.2,0.4L205.8,159z"/>
		<path class="st1" d="M210.8,162c-0.1,0.2-0.1,0.2-0.2,0.2c-0.1,0-0.2-0.1-0.2-0.2c0,0,0,0,0-0.2l3.5-9.5c0-0.1,0.1-0.1,0.2-0.1
			c0.1,0,0.2,0.1,0.2,0.2c0,0,0,0,0,0.2L210.8,162z"/>
	</g>
	<g>
		<path class="st1" d="M217.9,159c0.2,0,0.9,0,0.9-0.1c0.1-0.1,0.2-0.6,0.2-0.9h0.2l-0.3,1.7h-3.7c0-0.2,0-0.3,0.1-0.4l1.9-2.1
			c0.5-0.6,1-1.4,1-2.2c0-0.8-0.4-1.6-1.3-1.6c-0.6,0-1.1,0.4-1.3,1c0,0,0,0,0.1,0c0.3,0,0.5,0.3,0.5,0.5c0,0.4-0.3,0.5-0.5,0.5
			c0,0-0.5,0-0.5-0.6c0-0.9,0.7-1.8,1.9-1.8c1.2,0,2.1,0.8,2.1,1.9c0,1-0.6,1.5-2.2,2.9l-1.1,1H217.9z"/>
	</g>
	<g>
		<path class="st1" d="M228.5,159.5c-0.4,0.9-1.2,1.2-1.7,1.2c-0.5,0-1.2-0.2-1.6-1c-0.4-0.8-0.4-1.7-0.4-2.4c0-0.8,0-1.6,0.4-2.3
			c0.4-0.9,1.1-1.2,1.7-1.2c0.4,0,1.2,0.2,1.7,1.1c0.3,0.7,0.4,1.5,0.4,2.3C228.8,158.1,228.8,158.8,228.5,159.5z M227.9,159.2
			c0.1-0.6,0.1-1.3,0.1-2.1c0-0.6,0-1.4-0.1-1.9c-0.2-1-0.8-1.2-1.2-1.2c-0.2,0-1,0.1-1.2,1.3c-0.1,0.5-0.1,1.2-0.1,1.8
			c0,0.6,0,1.5,0.1,2.1c0.2,1,0.8,1.2,1.2,1.2C227.2,160.5,227.7,160.2,227.9,159.2z"/>
	</g>
	<g>
		<path class="st1" d="M304.5,159c0,0.1,0,0.2,0,0.2c0,0.2,0.1,0.2,0.4,0.2c0.3,0,0.4,0,0.6,0c0.3,0,0.3,0,0.3,0.1
			c0,0.2-0.1,0.2-0.2,0.2c-0.3,0-0.6,0-0.9,0c-0.3,0-0.5,0-0.8,0c-0.3,0-0.6,0-0.8,0c-0.3,0-0.5,0-0.8,0c-0.1,0-0.2,0-0.2-0.1
			c0-0.2,0.1-0.2,0.4-0.2c1.1,0,1.1-0.1,1.2-0.5l1.3-5.3c0,0,0-0.1,0-0.2c0-0.1,0-0.1-0.3-0.1h-0.4c-1.5,0-1.7,0.2-2.3,1.7
			c-0.1,0.2-0.1,0.2-0.2,0.2c-0.1,0-0.1,0-0.1-0.1c0,0,0-0.2,0.1-0.2l0.6-1.8c0.1-0.2,0.1-0.2,0.3-0.2h5.5c0.2,0,0.3,0,0.3,0.1
			c0,0,0,0.1,0,0.2l-0.3,1.7c0,0.1,0,0.2-0.1,0.2c-0.1,0-0.1-0.1-0.1-0.1c0,0,0-0.2,0-0.2c0-0.3,0.1-0.6,0.1-0.8
			c0-0.8-0.4-0.8-1.5-0.8c-0.2,0-0.5,0-0.6,0c-0.1,0-0.2,0.1-0.2,0.4L304.5,159z"/>
	</g>
	<g>
		<path class="st1" d="M309.5,161.3c-1.6,0-1.6-1.9-1.6-2.4s0-2.4,1.6-2.4c0.6,0,1,0.3,1.2,0.6c0.3,0.5,0.4,1,0.4,1.8
			C311.1,159.5,311.1,161.3,309.5,161.3z M310.4,160.3c0.1-0.4,0.1-1,0.1-1.5c0-0.6,0-1.1-0.1-1.5c-0.1-0.4-0.5-0.6-0.9-0.6
			c-0.3,0-0.7,0.1-0.9,0.7c-0.1,0.4-0.1,0.9-0.1,1.4c0,0.5,0,1.1,0.1,1.5c0.1,0.6,0.6,0.8,0.9,0.8
			C309.8,161.1,310.2,161,310.4,160.3z"/>
	</g>
	<g>
		<path class="st1" d="M312.9,162c-0.1,0.2-0.1,0.2-0.2,0.2c-0.1,0-0.2-0.1-0.2-0.2c0,0,0,0,0-0.2l3.5-9.5c0-0.1,0.1-0.1,0.2-0.1
			c0.1,0,0.2,0.1,0.2,0.2c0,0,0,0,0,0.2L312.9,162z"/>
	</g>
	<g>
		<path class="st1" d="M320,159c0.2,0,0.9,0,0.9-0.1c0.1-0.1,0.2-0.6,0.2-0.9h0.2l-0.3,1.7h-3.7c0-0.2,0-0.3,0.1-0.4l1.9-2.1
			c0.5-0.6,1-1.4,1-2.2c0-0.8-0.4-1.6-1.3-1.6c-0.6,0-1.1,0.4-1.3,1c0,0,0,0,0.1,0c0.3,0,0.5,0.3,0.5,0.5c0,0.4-0.3,0.5-0.5,0.5
			c0,0-0.5,0-0.5-0.6c0-0.9,0.7-1.8,1.9-1.8c1.2,0,2.1,0.8,2.1,1.9c0,1-0.6,1.5-2.2,2.9l-1.1,1H320z"/>
	</g>
	<g>
		<path class="st1" d="M130,157.9v-0.6h2.6v0.6H130z"/>
	</g>
	<g>
		<path class="st1" d="M136.1,159c0,0.1,0,0.2,0,0.2c0,0.2,0.1,0.2,0.4,0.2c0.3,0,0.4,0,0.6,0c0.3,0,0.3,0,0.3,0.1
			c0,0.2-0.1,0.2-0.2,0.2c-0.3,0-0.6,0-0.9,0c-0.3,0-0.5,0-0.8,0c-0.3,0-0.6,0-0.8,0c-0.3,0-0.5,0-0.8,0c-0.1,0-0.2,0-0.2-0.1
			c0-0.2,0.1-0.2,0.4-0.2c1.1,0,1.1-0.1,1.2-0.5l1.3-5.3c0,0,0-0.1,0-0.2c0-0.1,0-0.1-0.3-0.1H136c-1.5,0-1.7,0.2-2.3,1.7
			c-0.1,0.2-0.1,0.2-0.2,0.2c-0.1,0-0.1,0-0.1-0.1c0,0,0-0.2,0.1-0.2l0.6-1.8c0.1-0.2,0.1-0.2,0.3-0.2h5.5c0.2,0,0.3,0,0.3,0.1
			c0,0,0,0.1,0,0.2l-0.3,1.7c0,0.1,0,0.2-0.1,0.2c-0.1,0-0.1-0.1-0.1-0.1c0,0,0-0.2,0-0.2c0-0.3,0.1-0.6,0.1-0.8
			c0-0.8-0.4-0.8-1.5-0.8c-0.2,0-0.5,0-0.6,0c-0.1,0-0.2,0.1-0.2,0.4L136.1,159z"/>
	</g>
	<g>
		<path class="st1" d="M141.1,161.3c-1.6,0-1.6-1.9-1.6-2.4s0-2.4,1.6-2.4c0.6,0,1,0.3,1.2,0.6c0.3,0.5,0.4,1,0.4,1.8
			C142.7,159.5,142.7,161.3,141.1,161.3z M142,160.3c0.1-0.4,0.1-1,0.1-1.5c0-0.6,0-1.1-0.1-1.5c-0.1-0.4-0.5-0.6-0.9-0.6
			c-0.3,0-0.7,0.1-0.9,0.7c-0.1,0.4-0.1,0.9-0.1,1.4c0,0.5,0,1.1,0.1,1.5c0.1,0.6,0.6,0.8,0.9,0.8C141.4,161.1,141.8,161,142,160.3z
			"/>
	</g>
	<g>
		<path class="st1" d="M144.5,162c-0.1,0.2-0.1,0.2-0.2,0.2c-0.1,0-0.2-0.1-0.2-0.2c0,0,0,0,0-0.2l3.5-9.5c0-0.1,0.1-0.1,0.2-0.1
			c0.1,0,0.2,0.1,0.2,0.2c0,0,0,0,0,0.2L144.5,162z"/>
	</g>
	<g>
		<path class="st1" d="M151.6,159c0.2,0,0.9,0,0.9-0.1c0.1-0.1,0.2-0.6,0.2-0.9h0.2l-0.3,1.7h-3.7c0-0.2,0-0.3,0.1-0.4l1.9-2.1
			c0.5-0.6,1-1.4,1-2.2c0-0.8-0.4-1.6-1.3-1.6c-0.6,0-1.1,0.4-1.3,1c0,0,0,0,0.1,0c0.3,0,0.5,0.3,0.5,0.5c0,0.4-0.3,0.5-0.5,0.5
			c0,0-0.5,0-0.5-0.6c0-0.9,0.7-1.8,1.9-1.8c1.2,0,2.1,0.8,2.1,1.9c0,1-0.6,1.5-2.2,2.9l-1.1,1H151.6z"/>
	</g>
	<g>
		<path class="st1" d="M394.6,159.1c0,0.1,0,0.2,0,0.2c0,0.2,0.1,0.2,0.4,0.2c0.3,0,0.4,0,0.6,0c0.3,0,0.3,0,0.3,0.1
			c0,0.2-0.1,0.2-0.2,0.2c-0.3,0-0.6,0-0.9,0c-0.3,0-0.5,0-0.8,0c-0.3,0-0.6,0-0.8,0c-0.3,0-0.5,0-0.8,0c-0.1,0-0.2,0-0.2-0.1
			c0-0.2,0.1-0.2,0.4-0.2c1.1,0,1.1-0.1,1.2-0.5l1.3-5.3c0,0,0-0.1,0-0.2c0-0.1,0-0.1-0.3-0.1h-0.4c-1.5,0-1.7,0.2-2.3,1.7
			c-0.1,0.2-0.1,0.2-0.2,0.2c-0.1,0-0.1,0-0.1-0.1c0,0,0-0.2,0.1-0.2l0.6-1.8c0.1-0.2,0.1-0.2,0.3-0.2h5.5c0.2,0,0.3,0,0.3,0.1
			c0,0,0,0.1,0,0.2l-0.3,1.7c0,0.1,0,0.2-0.1,0.2c-0.1,0-0.1-0.1-0.1-0.1c0,0,0-0.2,0-0.2c0-0.3,0.1-0.6,0.1-0.8
			c0-0.8-0.4-0.8-1.5-0.8c-0.2,0-0.5,0-0.6,0c-0.1,0-0.2,0.1-0.2,0.4L394.6,159.1z"/>
	</g>
	<g>
		<path class="st1" d="M399.6,161.4c-1.6,0-1.6-1.9-1.6-2.4s0-2.4,1.6-2.4c0.6,0,1,0.3,1.2,0.6c0.3,0.5,0.4,1,0.4,1.8
			C401.2,159.6,401.2,161.4,399.6,161.4z M400.4,160.4c0.1-0.4,0.1-1,0.1-1.5c0-0.6,0-1.1-0.1-1.5c-0.1-0.4-0.5-0.6-0.9-0.6
			c-0.3,0-0.7,0.1-0.9,0.7c-0.1,0.4-0.1,0.9-0.1,1.4c0,0.5,0,1.1,0.1,1.5c0.1,0.6,0.6,0.8,0.9,0.8
			C399.8,161.2,400.3,161.1,400.4,160.4z"/>
	</g>
	<g>
		<path class="st1" d="M50,158v-0.6h2.6v0.6H50z"/>
	</g>
	<g>
		<path class="st1" d="M56.1,159.1c0,0.1,0,0.2,0,0.2c0,0.2,0.1,0.2,0.4,0.2c0.3,0,0.4,0,0.6,0c0.3,0,0.3,0,0.3,0.1
			c0,0.2-0.1,0.2-0.2,0.2c-0.3,0-0.6,0-0.9,0c-0.3,0-0.5,0-0.8,0c-0.3,0-0.6,0-0.8,0c-0.3,0-0.5,0-0.8,0c-0.1,0-0.2,0-0.2-0.1
			c0-0.2,0.1-0.2,0.4-0.2c1.1,0,1.1-0.1,1.2-0.5l1.3-5.3c0,0,0-0.1,0-0.2c0-0.1,0-0.1-0.3-0.1H56c-1.5,0-1.7,0.2-2.3,1.7
			c-0.1,0.2-0.1,0.2-0.2,0.2c-0.1,0-0.1,0-0.1-0.1c0,0,0-0.2,0.1-0.2l0.6-1.8c0.1-0.2,0.1-0.2,0.3-0.2H60c0.2,0,0.3,0,0.3,0.1
			c0,0,0,0.1,0,0.2l-0.3,1.7c0,0.1,0,0.2-0.1,0.2c-0.1,0-0.1-0.1-0.1-0.1c0,0,0-0.2,0-0.2c0-0.3,0.1-0.6,0.1-0.8
			c0-0.8-0.4-0.8-1.5-0.8c-0.2,0-0.5,0-0.6,0c-0.1,0-0.2,0.1-0.2,0.4L56.1,159.1z"/>
	</g>
	<g>
		<path class="st1" d="M61.1,161.4c-1.6,0-1.6-1.9-1.6-2.4s0-2.4,1.6-2.4c0.6,0,1,0.3,1.2,0.6c0.3,0.5,0.4,1,0.4,1.8
			C62.7,159.6,62.7,161.4,61.1,161.4z M62,160.4c0.1-0.4,0.1-1,0.1-1.5c0-0.6,0-1.1-0.1-1.5c-0.1-0.4-0.5-0.6-0.9-0.6
			c-0.3,0-0.7,0.1-0.9,0.7c-0.1,0.4-0.1,0.9-0.1,1.4c0,0.5,0,1.1,0.1,1.5c0.1,0.6,0.6,0.8,0.9,0.8C61.4,161.2,61.8,161.1,62,160.4z"
			/>
	</g>
	<path class="st4" d="M248,143v-35.4 M248,107.6h-42.5 M205.5,107.6V143 M450,143H248 M205.5,143H0"/>
	<path class="st5" d="M248,143h127.6 M418.1,143H450 M0,143h35.4 M35.4,143v-35.4 M35.4,107.6H78 M78,107.6V143 M78,143h127.6
		 M375.6,143v-35.4 M375.6,107.6h42.5 M418.1,107.6V143 M205.5,143v-35.4 M205.5,107.6H248 M248,107.6V143"/>
	<polyline points="229,183 226.8,178.5 224.5,183 226.8,181.9 	"/>
	<path class="st0" d="M226.8,231.6v-49.7 M202,228.1h7.1"/>
	<g>
		<path class="st1" d="M440.7,243.7c0,0.2-0.1,0.2-0.1,0.5c0,0.3,0.1,0.5,0.3,0.5c0.3,0,0.9-0.2,1.3-1.3c0-0.1,0.1-0.1,0.1-0.1
			c0,0,0.1,0,0.1,0.1c0,0.1-0.6,1.5-1.6,1.5c-0.5,0-0.9-0.4-0.9-0.9c0-0.2,0-0.3,0.8-3.2h-0.9c-0.2,0-0.3,0-0.3-0.1
			c0-0.2,0.1-0.2,0.3-0.2h0.9l0.4-1.6c0.1-0.3,0.4-0.4,0.4-0.4c0.2,0,0.3,0.1,0.3,0.3c0,0.1,0,0.3-0.4,1.7h0.9c0.2,0,0.3,0,0.3,0.1
			c0,0.2-0.1,0.2-0.3,0.2h-0.9L440.7,243.7z"/>
	</g>
	<g>
		<path class="st1" d="M447.4,247.3v-10h1.4v0.4h-1v9.2h1v0.4H447.4z"/>
		<path class="st1" d="M449.7,242.4c-0.3-0.2-0.4-0.5-0.4-0.8c0-0.6,0.4-1.2,1.6-1.2c0.1,0,0.6,0,0.9,0.3c0,0,0.1-0.1,0.2-0.2
			c0.1-0.1,0.1-0.1,0.2-0.1c0.1,0,0.1,0.1,0.1,0.2v1c0,0.2,0,0.2-0.1,0.2c0,0-0.1,0-0.1-0.1c0-0.3-0.1-1.2-1.2-1.2
			c-0.9,0-1.1,0.4-1.1,0.8c0,0.6,0.7,0.7,1.2,0.8c0.4,0.1,0.8,0.2,1.1,0.5c0.1,0.1,0.4,0.4,0.4,0.9c0,0.7-0.5,1.4-1.6,1.4
			c-0.2,0-0.7,0-1.1-0.4c-0.2,0.2-0.2,0.2-0.2,0.2c-0.2,0.2-0.2,0.2-0.2,0.2c-0.1,0-0.1-0.1-0.1-0.2v-1.3c0-0.2,0-0.3,0.1-0.3
			c0.1,0,0.1,0,0.1,0.2c0.2,0.8,0.5,1.4,1.4,1.4c0.8,0,1.1-0.4,1.1-0.9c0-0.7-0.8-0.9-1-0.9C450.3,242.7,450,242.7,449.7,242.4z"/>
		<path class="st1" d="M454.3,244c0.2,0.4,0.6,0.7,1.1,0.7c0.1,0,1,0,1.3-1c0-0.1,0-0.1,0.1-0.1c0,0,0.1,0,0.1,0.1
			c0,0.2-0.4,1.3-1.7,1.3c-1.1,0-2.2-1-2.2-2.3c0-1.2,0.9-2.3,2.1-2.3c1.2,0,1.8,1,1.8,2c0,0.2,0,0.2-0.2,0.2H454
			C454,242.8,454,243.5,454.3,244z M456.4,242.3c0-0.4-0.1-1.7-1.1-1.7c-0.3,0-1.2,0.3-1.2,1.7H456.4z"/>
		<path class="st1" d="M459.9,244.6c0.4,0,1-0.1,1.3-1c0-0.1,0-0.1,0.1-0.1c0,0,0.1,0,0.1,0.1s-0.3,1.3-1.7,1.3
			c-1.2,0-2.1-1-2.1-2.3c0-1.2,0.9-2.3,2.2-2.3c0.8,0,1.5,0.4,1.5,1.1c0,0.3-0.2,0.5-0.5,0.5c-0.3,0-0.5-0.2-0.5-0.5
			c0-0.1,0.1-0.4,0.5-0.5c-0.3-0.4-1-0.4-1.1-0.4c-0.5,0-1.3,0.4-1.3,2C458.5,244.2,459.4,244.6,459.9,244.6z"/>
		<path class="st1" d="M463.4,247.3H462v-0.4h1v-9.2h-1v-0.4h1.4V247.3z"/>
	</g>
	<polyline points="449,230.4 453.5,228.1 449,225.8 450.1,228.1 	"/>
	<path class="st0" d="M0,228.1h450.1 M205.5,231.6v-7.1"/>
	<g>
		<path class="st1" d="M240.4,179.1c-0.1,0.4-0.2,0.7-0.2,0.9c0,0.3,0.2,0.7,0.5,0.7c0.3,0,1-0.2,1.3-1.3c0-0.1,0-0.1,0.1-0.1
			c0,0,0.1,0,0.1,0.1c0,0.2-0.6,1.5-1.6,1.5c-0.6,0-1-0.4-1.1-0.8c0,0.1-0.4,0.8-1,0.8c-0.4,0-0.9-0.2-0.9-0.7
			c0-0.3,0.2-0.6,0.5-0.6c0.1,0,0.4,0.1,0.4,0.3c0,0.3-0.2,0.5-0.5,0.5c0.2,0.1,0.4,0.1,0.5,0.1c0.4,0,0.8-0.4,0.9-1
			c0.4-1.4,0.5-2.1,0.5-2.4c0-0.6-0.3-0.7-0.5-0.7c-0.3,0-1,0.2-1.3,1.3c0,0.1,0,0.1-0.1,0.1c0,0-0.1,0-0.1-0.1
			c0-0.3,0.6-1.5,1.6-1.5c0.3,0,0.8,0.1,1.1,0.8c0.1-0.2,0.5-0.8,1-0.8c0.3,0,0.9,0.1,0.9,0.7c0,0.4-0.3,0.6-0.5,0.6
			c-0.3,0-0.4-0.2-0.4-0.3c0-0.2,0.2-0.5,0.5-0.5c-0.2-0.1-0.4-0.1-0.5-0.1c-0.7,0-0.9,0.9-1,1.2L240.4,179.1z"/>
	</g>
	<g>
		<path class="st1" d="M246.2,183.2c-0.1,0-1-0.6-1.6-1.9c-0.5-1.1-0.7-2.3-0.7-3.1c0-0.8,0.1-1.9,0.6-3c0.6-1.3,1.5-1.9,1.6-1.9
			c0.1,0,0.1,0,0.1,0.1c0,0,0,0-0.1,0.2c-1.2,1.2-1.6,3-1.6,4.7c0,1.5,0.3,3.4,1.6,4.7C246.3,183.1,246.3,183.1,246.2,183.2
			C246.3,183.2,246.3,183.2,246.2,183.2z"/>
	</g>
	<g>
		<path class="st1" d="M248.2,179.7c0,0.2-0.1,0.2-0.1,0.5c0,0.3,0.1,0.5,0.3,0.5c0.3,0,0.9-0.2,1.3-1.3c0-0.1,0.1-0.1,0.1-0.1
			c0,0,0.1,0,0.1,0.1c0,0.1-0.6,1.5-1.6,1.5c-0.5,0-0.9-0.4-0.9-0.9c0-0.2,0-0.3,0.8-3.2h-0.9c-0.2,0-0.3,0-0.3-0.1
			c0-0.2,0.1-0.2,0.3-0.2h0.9l0.4-1.6c0.1-0.3,0.4-0.4,0.4-0.4c0.2,0,0.3,0.1,0.3,0.3c0,0.1,0,0.3-0.4,1.7h0.9c0.2,0,0.3,0,0.3,0.1
			c0,0.2-0.1,0.2-0.3,0.2h-0.9L248.2,179.7z"/>
	</g>
	<g>
		<path class="st1" d="M252.7,181.3c-0.6,1.3-1.5,1.9-1.6,1.9c-0.1,0-0.1,0-0.1-0.1c0,0,0,0,0.1-0.2c1.2-1.3,1.6-3,1.6-4.7
			c0-2.1-0.6-3.7-1.5-4.7c-0.2-0.2-0.2-0.2-0.2-0.2c0-0.1,0-0.1,0.1-0.1c0.1,0,1,0.6,1.6,1.9c0.5,1.1,0.7,2.3,0.7,3.1
			C253.4,179.1,253.2,180.2,252.7,181.3z"/>
	</g>
	<g>
		<path class="st1" d="M255.4,182.7c0,0-0.1,0-0.1-0.1c0,0,0,0,0.1-0.2c0.3-0.3,0.7-0.9,0.7-1.7c0-0.1,0-0.1,0-0.1c0,0,0,0,0,0
			c-0.1,0.1-0.2,0.1-0.3,0.1c-0.3,0-0.5-0.3-0.5-0.5c0-0.3,0.2-0.5,0.5-0.5c0.4,0,0.6,0.4,0.6,1
			C256.3,181.9,255.5,182.7,255.4,182.7z"/>
	</g>
	<g>
		<path class="st2" d="M261.7,179.1c-0.1,0.4-0.2,0.7-0.2,0.9c0,0.3,0.2,0.7,0.5,0.7c0.3,0,1-0.2,1.3-1.3c0-0.1,0-0.1,0.1-0.1
			c0,0,0.1,0,0.1,0.1c0,0.2-0.6,1.5-1.6,1.5c-0.6,0-1-0.4-1.1-0.8c0,0.1-0.4,0.8-1,0.8c-0.4,0-0.9-0.2-0.9-0.7
			c0-0.3,0.2-0.6,0.5-0.6c0.1,0,0.4,0.1,0.4,0.3c0,0.3-0.2,0.5-0.5,0.5c0.2,0.1,0.4,0.1,0.5,0.1c0.4,0,0.8-0.4,0.9-1
			c0.4-1.4,0.5-2.1,0.5-2.4c0-0.6-0.3-0.7-0.5-0.7c-0.3,0-1,0.2-1.3,1.3c0,0.1,0,0.1-0.1,0.1c0,0-0.1,0-0.1-0.1
			c0-0.3,0.6-1.5,1.6-1.5c0.3,0,0.8,0.1,1.1,0.8c0.1-0.2,0.5-0.8,1-0.8c0.3,0,0.9,0.1,0.9,0.7c0,0.4-0.3,0.6-0.5,0.6
			c-0.3,0-0.4-0.2-0.4-0.3c0-0.2,0.2-0.5,0.5-0.5c-0.2-0.1-0.4-0.1-0.5-0.1c-0.7,0-0.9,0.9-1,1.2L261.7,179.1z"/>
	</g>
	<g>
		<path class="st2" d="M265.7,179.9c0,0,0-0.1,0-0.2c0-0.2,0-0.3-0.2-0.3c-0.3,0-0.4,0.3-0.5,0.8c0,0.2-0.1,0.2-0.2,0.2
			c0,0-0.1,0-0.1-0.1c0,0,0.1-0.5,0.3-0.7c0.1-0.2,0.3-0.4,0.6-0.4c0.2,0,0.6,0.1,0.7,0.5c0.2-0.2,0.6-0.5,1-0.5c0.5,0,1,0.3,1,1.2
			c0,1-0.9,2-1.8,2c-0.4,0-0.6-0.3-0.7-0.4c-0.1,0.3-0.2,0.7-0.3,1c0,0.1-0.1,0.3-0.1,0.3c0,0.1,0.2,0.1,0.3,0.1
			c0.1,0,0.2,0,0.2,0.1c0,0.1-0.1,0.2-0.1,0.2c-0.2,0-0.5,0-0.7,0c-0.2,0-0.4,0-0.6,0c0,0-0.1,0-0.1-0.1c0-0.1,0.1-0.1,0.2-0.1
			c0.3,0,0.3-0.1,0.3-0.3L265.7,179.9z M265.9,181.4c0,0,0,0.1,0,0.1c0,0.1,0.1,0.6,0.6,0.6c0.4,0,0.7-0.3,0.9-0.7
			c0.2-0.4,0.4-1.1,0.4-1.4c0-0.5-0.2-0.7-0.5-0.7c-0.2,0-0.6,0.1-1,0.6L265.9,181.4z"/>
	</g>
	<g>
		<path class="st2" d="M272.3,183.2c-0.1,0-1-0.6-1.6-1.9c-0.5-1.1-0.7-2.3-0.7-3.1c0-0.8,0.1-1.9,0.6-3c0.6-1.3,1.5-1.9,1.6-1.9
			c0.1,0,0.1,0,0.1,0.1c0,0,0,0-0.1,0.2c-1.2,1.2-1.6,3-1.6,4.7c0,1.5,0.3,3.4,1.6,4.7C272.4,183.1,272.4,183.1,272.3,183.2
			C272.4,183.2,272.3,183.2,272.3,183.2z"/>
	</g>
	<g>
		<path class="st2" d="M274.2,179.7c0,0.2-0.1,0.2-0.1,0.5c0,0.3,0.1,0.5,0.3,0.5c0.3,0,0.9-0.2,1.3-1.3c0-0.1,0.1-0.1,0.1-0.1
			c0,0,0.1,0,0.1,0.1c0,0.1-0.6,1.5-1.6,1.5c-0.5,0-0.9-0.4-0.9-0.9c0-0.2,0-0.3,0.8-3.2h-0.9c-0.2,0-0.3,0-0.3-0.1
			c0-0.2,0.1-0.2,0.3-0.2h0.9l0.4-1.6c0.1-0.3,0.4-0.4,0.4-0.4c0.2,0,0.3,0.1,0.3,0.3c0,0.1,0,0.3-0.4,1.7h0.9c0.2,0,0.3,0,0.3,0.1
			c0,0.2-0.1,0.2-0.3,0.2H275L274.2,179.7z"/>
	</g>
	<g>
		<path class="st2" d="M278.8,181.3c-0.6,1.3-1.5,1.9-1.6,1.9c-0.1,0-0.1,0-0.1-0.1c0,0,0,0,0.1-0.2c1.2-1.3,1.6-3,1.6-4.7
			c0-2.1-0.6-3.7-1.5-4.7c-0.2-0.2-0.2-0.2-0.2-0.2c0-0.1,0-0.1,0.1-0.1c0.1,0,1,0.6,1.6,1.9c0.5,1.1,0.7,2.3,0.7,3.1
			C279.4,179.1,279.3,180.2,278.8,181.3z"/>
	</g>
	<path class="st0" d="M248,231.6v-7.1 M269.3,231.6v-7.1 M290.5,231.6v-7.1 M311.8,231.6v-7.1 M333.1,231.6v-7.1 M354.3,231.6v-7.1
		 M375.6,231.6v-7.1 M396.8,231.6v-7.1 M418.1,231.6v-7.1 M439.4,231.6v-7.1 M14.2,231.6v-7.1 M35.4,231.6v-7.1 M56.7,231.6v-7.1
		 M78,231.6v-7.1 M99.2,231.6v-7.1 M120.5,231.6v-7.1 M141.7,231.6v-7.1 M163,231.6v-7.1 M184.3,231.6v-7.1"/>
	<g>
		<path class="st1" d="M220.1,188c0,0.4,0,0.5,0.9,0.5h0.3v0.3c-0.3,0-1.2,0-1.6,0c-0.4,0-1.3,0-1.6,0v-0.3h0.3
			c0.9,0,0.9-0.1,0.9-0.5v-5.2c-0.5,0.3-1.1,0.3-1.3,0.3v-0.3c0.3,0,1.2,0,1.8-0.6c0.2,0,0.2,0,0.2,0.3V188z"/>
	</g>
	<g>
		<path class="st2" d="M363.8,180.2c0,0.1,0,0.2,0,0.2c0,0.2,0.1,0.2,0.4,0.2c0.3,0,0.4,0,0.6,0c0.3,0,0.3,0,0.3,0.1
			c0,0.2-0.1,0.2-0.2,0.2c-0.3,0-0.6,0-0.9,0c-0.3,0-0.5,0-0.8,0c-0.3,0-0.6,0-0.8,0c-0.3,0-0.5,0-0.8,0c-0.1,0-0.2,0-0.2-0.1
			c0-0.2,0.1-0.2,0.4-0.2c1.1,0,1.1-0.1,1.2-0.5l1.3-5.3c0,0,0-0.1,0-0.2c0-0.1,0-0.1-0.3-0.1h-0.4c-1.5,0-1.7,0.2-2.3,1.7
			c-0.1,0.2-0.1,0.2-0.2,0.2c-0.1,0-0.1,0-0.1-0.1c0,0,0-0.2,0.1-0.2l0.6-1.8c0.1-0.2,0.1-0.2,0.3-0.2h5.5c0.2,0,0.3,0,0.3,0.1
			c0,0,0,0.1,0,0.2l-0.3,1.7c0,0.1,0,0.2-0.1,0.2c-0.1,0-0.1-0.1-0.1-0.1c0,0,0-0.2,0-0.2c0-0.3,0.1-0.6,0.1-0.8
			c0-0.8-0.4-0.8-1.5-0.8c-0.2,0-0.5,0-0.6,0c-0.1,0-0.2,0.1-0.2,0.4L363.8,180.2z"/>
	</g>
	<g>
		<path class="st2" d="M368.7,182.6c-1.6,0-1.6-1.9-1.6-2.4s0-2.4,1.6-2.4c0.6,0,1,0.3,1.2,0.6c0.3,0.5,0.4,1,0.4,1.8
			C370.3,180.7,370.3,182.6,368.7,182.6z M369.6,181.6c0.1-0.4,0.1-1,0.1-1.5c0-0.6,0-1.1-0.1-1.5c-0.1-0.4-0.5-0.6-0.9-0.6
			c-0.3,0-0.7,0.1-0.9,0.7c-0.1,0.4-0.1,0.9-0.1,1.4c0,0.5,0,1.1,0.1,1.5c0.1,0.6,0.6,0.8,0.9,0.8
			C369,182.4,369.5,182.2,369.6,181.6z"/>
	</g>
	<g>
		<path class="st2" d="M374.7,177.7c-0.1,0-0.3,0-0.3-0.2c0-0.2,0.2-0.2,0.3-0.2h6c0.1,0,0.3,0,0.3,0.2c0,0.2-0.2,0.2-0.3,0.2H374.7
			z M374.7,179.7c-0.1,0-0.3,0-0.3-0.2s0.2-0.2,0.3-0.2h5.9c0.1,0,0.3,0,0.3,0.2s-0.2,0.2-0.3,0.2H374.7z"/>
		<path class="st2" d="M387.3,180.2c0,0.4,0,0.5,0.9,0.5h0.3v0.3c-0.3,0-1.2,0-1.6,0s-1.3,0-1.6,0v-0.3h0.3c0.9,0,0.9-0.1,0.9-0.5
			v-5.2c-0.5,0.3-1.1,0.3-1.3,0.3V175c0.3,0,1.2,0,1.8-0.6c0.2,0,0.2,0,0.2,0.3V180.2z"/>
	</g>
	<g>
		<path class="st2" d="M390.4,183.3c-0.1,0.2-0.1,0.2-0.2,0.2c-0.1,0-0.2-0.1-0.2-0.2c0,0,0,0,0-0.2l3.5-9.5c0-0.1,0.1-0.1,0.2-0.1
			c0.1,0,0.2,0.1,0.2,0.2c0,0,0,0,0,0.2L390.4,183.3z"/>
		<path class="st2" d="M396.9,180.2c0,0.1,0,0.2,0,0.2c0,0.1,0,0.2,0.3,0.2c0.2,0,0.3,0,0.5,0c0.2,0,0.2,0,0.3,0c0,0,0.1,0,0.1,0.1
			c0,0.2-0.1,0.2-0.2,0.2c-0.3,0-1.2,0-1.5,0c-0.3,0-1,0-1.3,0c0,0-0.1,0-0.1-0.1c0-0.2,0.1-0.2,0.3-0.2c0.8,0,0.8-0.1,0.9-0.5
			l1.3-5.3c0-0.2,0-0.2,0-0.2c0-0.2-0.3-0.2-0.6-0.2c-0.2,0-0.3,0-0.3-0.1c0-0.2,0.1-0.2,0.3-0.2h4.9c0.3,0,0.3,0,0.3,0.3l-0.2,1.7
			c0,0.2,0,0.3-0.1,0.3c-0.1,0-0.1-0.1-0.1-0.1c0,0,0,0,0-0.2c0-0.3,0-0.3,0-0.5c0-0.8-0.2-1.1-1.5-1.1h-1.3c-0.4,0-0.4,0-0.5,0.4
			l-0.6,2.5h0.9c0.8,0,1.1-0.2,1.3-1c0-0.2,0-0.2,0.1-0.2s0.1,0.1,0.1,0.1c0,0,0,0,0,0.2l-0.5,2.2c0,0.2,0,0.2-0.1,0.2
			c-0.1,0-0.1,0-0.1-0.1c0,0,0-0.1,0-0.1c0.1-0.3,0.1-0.4,0.1-0.5c0-0.3-0.1-0.4-0.8-0.4h-1L396.9,180.2z"/>
	</g>
	<g>
		<path class="st2" d="M402.8,182.6c-1.6,0-1.6-1.9-1.6-2.4s0-2.4,1.6-2.4c0.6,0,1,0.3,1.2,0.6c0.3,0.5,0.4,1,0.4,1.8
			C404.4,180.7,404.4,182.6,402.8,182.6z M403.7,181.6c0.1-0.4,0.1-1,0.1-1.5c0-0.6,0-1.1-0.1-1.5c-0.1-0.4-0.5-0.6-0.9-0.6
			c-0.3,0-0.7,0.1-0.9,0.7c-0.1,0.4-0.1,0.9-0.1,1.4c0,0.5,0,1.1,0.1,1.5c0.1,0.6,0.6,0.8,0.9,0.8
			C403.1,182.4,403.5,182.2,403.7,181.6z"/>
	</g>
	<g>
		<path class="st1" d="M408.9,177.7c-0.1,0-0.3,0-0.3-0.2c0-0.2,0.2-0.2,0.3-0.2h6c0.1,0,0.3,0,0.3,0.2c0,0.2-0.2,0.2-0.3,0.2H408.9
			z M408.9,179.7c-0.1,0-0.3,0-0.3-0.2s0.2-0.2,0.3-0.2h5.9c0.1,0,0.3,0,0.3,0.2s-0.2,0.2-0.3,0.2H408.9z"/>
	</g>
	<g>
		<path class="st3" d="M423.7,179.1c0,1.1-0.8,2-2.4,2c-1.3,0-2.4-0.5-2.4-1.7c0-0.7,0.4-1.3,1.3-1.7c-0.8-0.4-1-1.1-1-1.5
			c0-1,0.7-1.7,2.1-1.7c1.1,0,2,0.4,2,1.5c0,0.6-0.3,1-1,1.4C422.9,177.6,423.7,178.1,423.7,179.1z M419.8,179.4
			c0,0.8,0.6,1.3,1.5,1.3c0.6,0,1.5-0.2,1.5-1c0-0.5-0.4-0.7-0.8-0.9c-0.5-0.3-1-0.6-1.4-0.8C420.3,178.2,419.8,178.6,419.8,179.4z
			 M421.9,177.1c0.4-0.3,0.7-0.6,0.7-1.1c0-0.7-0.5-1.1-1.3-1.1c-0.4,0-1.3,0.1-1.3,0.8c0,0.3,0.3,0.5,0.4,0.6L421.9,177.1z"/>
	</g>
	<g>
		<path class="st1" d="M427.9,179c-0.3,0-0.5-0.2-0.5-0.5s0.2-0.5,0.5-0.5s0.5,0.2,0.5,0.5S428.2,179,427.9,179z"/>
	</g>
	<g>
		<path class="st1" d="M439.2,180.8c0,0.1,0,0.1,0,0.1c0,0.1-0.1,0.1-0.2,0.1h-6.9c-0.2,0-0.2,0-0.2-0.1c0,0,0,0,0-0.1l3.4-6.8
			c0.1-0.1,0.1-0.2,0.3-0.2c0.2,0,0.2,0,0.3,0.2L439.2,180.8z M432.6,180.2h5.4l-2.7-5.4L432.6,180.2z"/>
	</g>
	<g>
		<path class="st1" d="M442.6,180.2c0,0.1,0,0.2,0,0.2c0,0.2,0.1,0.2,0.4,0.2c0.3,0,0.4,0,0.6,0c0.3,0,0.3,0,0.3,0.1
			c0,0.2-0.1,0.2-0.2,0.2c-0.3,0-0.6,0-0.9,0c-0.3,0-0.5,0-0.8,0c-0.3,0-0.6,0-0.8,0c-0.3,0-0.5,0-0.8,0c-0.1,0-0.2,0-0.2-0.1
			c0-0.2,0.1-0.2,0.4-0.2c1.1,0,1.1-0.1,1.2-0.5l1.3-5.3c0,0,0-0.1,0-0.2c0-0.1,0-0.1-0.3-0.1h-0.4c-1.5,0-1.7,0.2-2.3,1.7
			c-0.1,0.2-0.1,0.2-0.2,0.2c-0.1,0-0.1,0-0.1-0.1c0,0,0-0.2,0.1-0.2l0.6-1.8c0.1-0.2,0.1-0.2,0.3-0.2h5.5c0.2,0,0.3,0,0.3,0.1
			c0,0,0,0.1,0,0.2l-0.3,1.7c0,0.1,0,0.2-0.1,0.2c-0.1,0-0.1-0.1-0.1-0.1c0,0,0-0.2,0-0.2c0-0.3,0.1-0.6,0.1-0.8
			c0-0.8-0.4-0.8-1.5-0.8c-0.2,0-0.5,0-0.6,0c-0.1,0-0.2,0.1-0.2,0.4L442.6,180.2z"/>
	</g>
	<polyline points="357.4,170.6 450.4,170.6 450.4,170.1 357.4,170.1 	"/>
	<polyline points="357.4,186.6 357.9,186.6 357.9,170.2 357.4,170.2 	"/>
	<polyline points="449.9,186.6 450.4,186.6 450.4,170.2 449.9,170.2 	"/>
	<polyline points="357.4,186.9 450.4,186.9 450.4,186.4 357.4,186.4 	"/>
	<g>
		<path class="st1" d="M243.2,244.6c0,0.1,0,0.1,0,0.1c0,0.1-0.1,0.1-0.2,0.1h-6.9c-0.2,0-0.2,0-0.2-0.1c0,0,0,0,0-0.1l3.4-6.8
			c0.1-0.1,0.1-0.2,0.3-0.2c0.2,0,0.2,0,0.3,0.2L243.2,244.6z M236.6,244h5.4l-2.7-5.4L236.6,244z"/>
	</g>
	<g>
		<path class="st1" d="M246.6,244c0,0.1,0,0.2,0,0.2c0,0.2,0.1,0.2,0.4,0.2c0.3,0,0.4,0,0.6,0c0.3,0,0.3,0,0.3,0.1
			c0,0.2-0.1,0.2-0.2,0.2c-0.3,0-0.6,0-0.9,0c-0.3,0-0.5,0-0.8,0c-0.3,0-0.6,0-0.8,0c-0.3,0-0.5,0-0.8,0c-0.1,0-0.2,0-0.2-0.1
			c0-0.2,0.1-0.2,0.4-0.2c1.1,0,1.1-0.1,1.2-0.5l1.3-5.3c0,0,0-0.1,0-0.2c0-0.1,0-0.1-0.3-0.1h-0.4c-1.5,0-1.7,0.2-2.3,1.7
			c-0.1,0.2-0.1,0.2-0.2,0.2c-0.1,0-0.1,0-0.1-0.1c0,0,0-0.2,0.1-0.2l0.6-1.8c0.1-0.2,0.1-0.2,0.3-0.2h5.5c0.2,0,0.3,0,0.3,0.1
			c0,0,0,0.1,0,0.2l-0.3,1.7c0,0.1,0,0.2-0.1,0.2c-0.1,0-0.1-0.1-0.1-0.1c0,0,0-0.2,0-0.2c0-0.3,0.1-0.6,0.1-0.8
			c0-0.8-0.4-0.8-1.5-0.8c-0.2,0-0.5,0-0.6,0c-0.1,0-0.2,0.1-0.2,0.4L246.6,244z"/>
		<path class="st1" d="M251.6,247c-0.1,0.2-0.1,0.2-0.2,0.2c-0.1,0-0.2-0.1-0.2-0.2c0,0,0,0,0-0.2l3.5-9.5c0-0.1,0.1-0.1,0.2-0.1
			c0.1,0,0.2,0.1,0.2,0.2c0,0,0,0,0,0.2L251.6,247z"/>
	</g>
	<g>
		<path class="st1" d="M258.8,244c0.2,0,0.9,0,0.9-0.1c0.1-0.1,0.2-0.6,0.2-0.9h0.2l-0.3,1.7h-3.7c0-0.2,0-0.3,0.1-0.4l1.9-2.1
			c0.5-0.6,1-1.4,1-2.2c0-0.8-0.4-1.6-1.3-1.6c-0.6,0-1.1,0.4-1.3,1c0,0,0,0,0.1,0c0.3,0,0.5,0.3,0.5,0.5c0,0.4-0.3,0.5-0.5,0.5
			c0,0-0.5,0-0.5-0.6c0-0.9,0.7-1.8,1.9-1.8c1.2,0,2.1,0.8,2.1,1.9c0,1-0.6,1.5-2.2,2.9l-1.1,1H258.8z"/>
	</g>
	<g>
		<path class="st1" d="M191.3,242.9v-0.6h2.6v0.6H191.3z"/>
		<path class="st1" d="M202.4,244.6c0,0.1,0,0.1,0,0.1c0,0.1-0.1,0.1-0.2,0.1h-6.9c-0.2,0-0.2,0-0.2-0.1c0,0,0,0,0-0.1l3.4-6.8
			c0.1-0.1,0.1-0.2,0.3-0.2s0.2,0,0.3,0.2L202.4,244.6z M195.7,244h5.4l-2.7-5.4L195.7,244z"/>
	</g>
	<g>
		<path class="st1" d="M205.8,244c0,0.1,0,0.2,0,0.2c0,0.2,0.1,0.2,0.4,0.2c0.3,0,0.4,0,0.6,0c0.3,0,0.3,0,0.3,0.1
			c0,0.2-0.1,0.2-0.2,0.2c-0.3,0-0.6,0-0.9,0c-0.3,0-0.5,0-0.8,0c-0.3,0-0.6,0-0.8,0c-0.3,0-0.5,0-0.8,0c-0.1,0-0.2,0-0.2-0.1
			c0-0.2,0.1-0.2,0.4-0.2c1.1,0,1.1-0.1,1.2-0.5l1.3-5.3c0,0,0-0.1,0-0.2c0-0.1,0-0.1-0.3-0.1h-0.4c-1.5,0-1.7,0.2-2.3,1.7
			c-0.1,0.2-0.1,0.2-0.2,0.2c-0.1,0-0.1,0-0.1-0.1c0,0,0-0.2,0.1-0.2l0.6-1.8c0.1-0.2,0.1-0.2,0.3-0.2h5.5c0.2,0,0.3,0,0.3,0.1
			c0,0,0,0.1,0,0.2l-0.3,1.7c0,0.1,0,0.2-0.1,0.2c-0.1,0-0.1-0.1-0.1-0.1c0,0,0-0.2,0-0.2c0-0.3,0.1-0.6,0.1-0.8
			c0-0.8-0.4-0.8-1.5-0.8c-0.2,0-0.5,0-0.6,0c-0.1,0-0.2,0.1-0.2,0.4L205.8,244z"/>
		<path class="st1" d="M210.8,247c-0.1,0.2-0.1,0.2-0.2,0.2c-0.1,0-0.2-0.1-0.2-0.2c0,0,0,0,0-0.2l3.5-9.5c0-0.1,0.1-0.1,0.2-0.1
			c0.1,0,0.2,0.1,0.2,0.2c0,0,0,0,0,0.2L210.8,247z"/>
	</g>
	<g>
		<path class="st1" d="M217.9,244c0.2,0,0.9,0,0.9-0.1c0.1-0.1,0.2-0.6,0.2-0.9h0.2l-0.3,1.7h-3.7c0-0.2,0-0.3,0.1-0.4l1.9-2.1
			c0.5-0.6,1-1.4,1-2.2c0-0.8-0.4-1.6-1.3-1.6c-0.6,0-1.1,0.4-1.3,1c0,0,0,0,0.1,0c0.3,0,0.5,0.3,0.5,0.5c0,0.4-0.3,0.5-0.5,0.5
			c0,0-0.5,0-0.5-0.6c0-0.9,0.7-1.8,1.9-1.8c1.2,0,2.1,0.8,2.1,1.9c0,1-0.6,1.5-2.2,2.9l-1.1,1H217.9z"/>
	</g>
	<g>
		<path class="st1" d="M228.5,244.6c-0.4,0.9-1.2,1.2-1.7,1.2c-0.5,0-1.2-0.2-1.6-1c-0.4-0.8-0.4-1.7-0.4-2.4c0-0.8,0-1.6,0.4-2.3
			c0.4-0.9,1.1-1.2,1.7-1.2c0.4,0,1.2,0.2,1.7,1.1c0.3,0.7,0.4,1.5,0.4,2.3C228.8,243.1,228.8,243.9,228.5,244.6z M227.9,244.2
			c0.1-0.6,0.1-1.3,0.1-2.1c0-0.6,0-1.4-0.1-1.9c-0.2-1-0.8-1.2-1.2-1.2c-0.2,0-1,0.1-1.2,1.3c-0.1,0.5-0.1,1.2-0.1,1.8
			c0,0.6,0,1.5,0.1,2.1c0.2,1,0.8,1.2,1.2,1.2C227.2,245.5,227.7,245.2,227.9,244.2z"/>
	</g>
	<g>
		<path class="st1" d="M389.6,244c0,0.1,0,0.2,0,0.2c0,0.2,0.1,0.2,0.4,0.2c0.3,0,0.4,0,0.6,0c0.3,0,0.3,0,0.3,0.1
			c0,0.2-0.1,0.2-0.2,0.2c-0.3,0-0.6,0-0.9,0c-0.3,0-0.5,0-0.8,0c-0.3,0-0.6,0-0.8,0c-0.3,0-0.5,0-0.8,0c-0.1,0-0.2,0-0.2-0.1
			c0-0.2,0.1-0.2,0.4-0.2c1.1,0,1.1-0.1,1.2-0.5l1.3-5.3c0,0,0-0.1,0-0.2c0-0.1,0-0.1-0.3-0.1h-0.4c-1.5,0-1.7,0.2-2.3,1.7
			c-0.1,0.2-0.1,0.2-0.2,0.2c-0.1,0-0.1,0-0.1-0.1c0,0,0-0.2,0.1-0.2l0.6-1.8c0.1-0.2,0.1-0.2,0.3-0.2h5.5c0.2,0,0.3,0,0.3,0.1
			c0,0,0,0.1,0,0.2l-0.3,1.7c0,0.1,0,0.2-0.1,0.2c-0.1,0-0.1-0.1-0.1-0.1c0,0,0-0.2,0-0.2c0-0.3,0.1-0.6,0.1-0.8
			c0-0.8-0.4-0.8-1.5-0.8c-0.2,0-0.5,0-0.6,0c-0.1,0-0.2,0.1-0.2,0.4L389.6,244z"/>
	</g>
	<g>
		<path class="st1" d="M394.5,246.4c-1.6,0-1.6-1.9-1.6-2.4s0-2.4,1.6-2.4c0.6,0,1,0.3,1.2,0.6c0.3,0.5,0.4,1,0.4,1.8
			C396.1,244.5,396.1,246.4,394.5,246.4z M395.4,245.4c0.1-0.4,0.1-1,0.1-1.5c0-0.6,0-1.1-0.1-1.5c-0.1-0.4-0.5-0.6-0.9-0.6
			c-0.3,0-0.7,0.1-0.9,0.7c-0.1,0.4-0.1,0.9-0.1,1.4c0,0.5,0,1.1,0.1,1.5c0.1,0.6,0.6,0.8,0.9,0.8
			C394.8,246.2,395.3,246,395.4,245.4z"/>
	</g>
	<g>
		<path class="st1" d="M397.9,247c-0.1,0.2-0.1,0.2-0.2,0.2c-0.1,0-0.2-0.1-0.2-0.2c0,0,0,0,0-0.2l3.5-9.5c0-0.1,0.1-0.1,0.2-0.1
			c0.1,0,0.2,0.1,0.2,0.2c0,0,0,0,0,0.2L397.9,247z"/>
	</g>
	<g>
		<path class="st1" d="M405.1,244c0.2,0,0.9,0,0.9-0.1c0.1-0.1,0.2-0.6,0.2-0.9h0.2l-0.3,1.7h-3.7c0-0.2,0-0.3,0.1-0.4l1.9-2.1
			c0.5-0.6,1-1.4,1-2.2c0-0.8-0.4-1.6-1.3-1.6c-0.6,0-1.1,0.4-1.3,1c0,0,0,0,0.1,0c0.3,0,0.5,0.3,0.5,0.5c0,0.4-0.3,0.5-0.5,0.5
			c0,0-0.5,0-0.5-0.6c0-0.9,0.7-1.8,1.9-1.8c1.2,0,2.1,0.8,2.1,1.9c0,1-0.6,1.5-2.2,2.9l-1.1,1H405.1z"/>
	</g>
	<g>
		<path class="st1" d="M44.9,242.9v-0.6h2.6v0.6H44.9z"/>
	</g>
	<g>
		<path class="st1" d="M51.1,244c0,0.1,0,0.2,0,0.2c0,0.2,0.1,0.2,0.4,0.2c0.3,0,0.4,0,0.6,0c0.3,0,0.3,0,0.3,0.1
			c0,0.2-0.1,0.2-0.2,0.2c-0.3,0-0.6,0-0.9,0c-0.3,0-0.5,0-0.8,0c-0.3,0-0.6,0-0.8,0c-0.3,0-0.5,0-0.8,0c-0.1,0-0.2,0-0.2-0.1
			c0-0.2,0.1-0.2,0.4-0.2c1.1,0,1.1-0.1,1.2-0.5l1.3-5.3c0,0,0-0.1,0-0.2c0-0.1,0-0.1-0.3-0.1H51c-1.5,0-1.7,0.2-2.3,1.7
			c-0.1,0.2-0.1,0.2-0.2,0.2c-0.1,0-0.1,0-0.1-0.1c0,0,0-0.2,0.1-0.2l0.6-1.8c0.1-0.2,0.1-0.2,0.3-0.2h5.5c0.2,0,0.3,0,0.3,0.1
			c0,0,0,0.1,0,0.2l-0.3,1.7c0,0.1,0,0.2-0.1,0.2c-0.1,0-0.1-0.1-0.1-0.1c0,0,0-0.2,0-0.2c0-0.3,0.1-0.6,0.1-0.8
			c0-0.8-0.4-0.8-1.5-0.8c-0.2,0-0.5,0-0.6,0c-0.1,0-0.2,0.1-0.2,0.4L51.1,244z"/>
	</g>
	<g>
		<path class="st1" d="M56,246.4c-1.6,0-1.6-1.9-1.6-2.4s0-2.4,1.6-2.4c0.6,0,1,0.3,1.2,0.6c0.3,0.5,0.4,1,0.4,1.8
			C57.7,244.5,57.7,246.4,56,246.4z M56.9,245.4c0.1-0.4,0.1-1,0.1-1.5c0-0.6,0-1.1-0.1-1.5c-0.1-0.4-0.5-0.6-0.9-0.6
			c-0.3,0-0.7,0.1-0.9,0.7c-0.1,0.4-0.1,0.9-0.1,1.4c0,0.5,0,1.1,0.1,1.5c0.1,0.6,0.6,0.8,0.9,0.8C56.3,246.2,56.8,246,56.9,245.4z"
			/>
	</g>
	<g>
		<path class="st1" d="M59.5,247c-0.1,0.2-0.1,0.2-0.2,0.2c-0.1,0-0.2-0.1-0.2-0.2c0,0,0,0,0-0.2l3.5-9.5c0-0.1,0.1-0.1,0.2-0.1
			c0.1,0,0.2,0.1,0.2,0.2c0,0,0,0,0,0.2L59.5,247z"/>
	</g>
	<g>
		<path class="st1" d="M66.6,244c0.2,0,0.9,0,0.9-0.1c0.1-0.1,0.2-0.6,0.2-0.9H68l-0.3,1.7H64c0-0.2,0-0.3,0.1-0.4l1.9-2.1
			c0.5-0.6,1-1.4,1-2.2c0-0.8-0.4-1.6-1.3-1.6c-0.6,0-1.1,0.4-1.3,1c0,0,0,0,0.1,0c0.3,0,0.5,0.3,0.5,0.5c0,0.4-0.3,0.5-0.5,0.5
			c0,0-0.5,0-0.5-0.6c0-0.9,0.7-1.8,1.9-1.8c1.2,0,2.1,0.8,2.1,1.9c0,1-0.6,1.5-2.2,2.9l-1.1,1H66.6z"/>
	</g>
	<path class="st4" d="M248,228.1v-35.4 M248,192.7h-42.5 M205.5,192.7v35.4 M450,228.1H248 M205.5,228.1H0"/>
	<path class="st5" d="M205.5,228.1v-35.4 M205.5,192.7H248 M248,192.7v35.4 M248,228.1h198.4 M0,228.1h205.5"/>
	<g>
		<path class="st1" d="M27.5,200.4c-0.1,0.4-0.2,0.7-0.2,0.9c0,0.3,0.2,0.7,0.5,0.7c0.3,0,1-0.2,1.3-1.3c0-0.1,0-0.1,0.1-0.1
			c0,0,0.1,0,0.1,0.1c0,0.2-0.6,1.5-1.6,1.5c-0.6,0-1-0.4-1.1-0.8c0,0.1-0.4,0.8-1,0.8c-0.4,0-0.9-0.2-0.9-0.7
			c0-0.3,0.2-0.6,0.5-0.6c0.1,0,0.4,0.1,0.4,0.3c0,0.3-0.2,0.5-0.5,0.5c0.2,0.1,0.4,0.1,0.5,0.1c0.4,0,0.8-0.4,0.9-1
			c0.4-1.4,0.5-2.1,0.5-2.4c0-0.6-0.3-0.7-0.5-0.7c-0.3,0-1,0.2-1.3,1.3c0,0.1-0.1,0.1-0.1,0.1c0,0-0.1,0-0.1-0.1
			c0-0.3,0.6-1.5,1.6-1.5c0.3,0,0.8,0.1,1.1,0.8c0.1-0.2,0.5-0.8,1-0.8c0.3,0,0.9,0.1,0.9,0.7c0,0.4-0.3,0.6-0.5,0.6
			c-0.3,0-0.4-0.2-0.4-0.3c0-0.2,0.2-0.5,0.5-0.5c-0.2-0.1-0.4-0.1-0.5-0.1c-0.7,0-0.9,0.9-1,1.2L27.5,200.4z"/>
	</g>
	<g>
		<path class="st1" d="M33.4,204.5c-0.1,0-1-0.6-1.6-1.9c-0.5-1.1-0.7-2.3-0.7-3.1c0-0.8,0.1-1.9,0.6-3c0.6-1.3,1.5-1.9,1.6-1.9
			c0.1,0,0.1,0,0.1,0.1c0,0,0,0-0.1,0.2c-1.2,1.2-1.6,3-1.6,4.7c0,1.5,0.3,3.4,1.6,4.7C33.5,204.4,33.5,204.4,33.4,204.5
			C33.5,204.5,33.4,204.5,33.4,204.5z"/>
	</g>
	<g>
		<path class="st1" d="M35.3,201c0,0.2-0.1,0.2-0.1,0.5c0,0.3,0.1,0.5,0.3,0.5c0.3,0,0.9-0.2,1.3-1.3c0-0.1,0.1-0.1,0.1-0.1
			c0,0,0.1,0,0.1,0.1c0,0.1-0.6,1.5-1.6,1.5c-0.5,0-0.9-0.4-0.9-0.9c0-0.2,0-0.3,0.8-3.2h-0.9c-0.2,0-0.3,0-0.3-0.1
			c0-0.2,0.1-0.2,0.3-0.2h0.9l0.4-1.6c0.1-0.3,0.4-0.4,0.4-0.4c0.2,0,0.3,0.1,0.3,0.3c0,0.1,0,0.3-0.4,1.7H37c0.2,0,0.3,0,0.3,0.1
			c0,0.2-0.1,0.2-0.3,0.2h-0.9L35.3,201z"/>
	</g>
	<g>
		<path class="st1" d="M39.9,202.6c-0.6,1.3-1.5,1.9-1.6,1.9c-0.1,0-0.1,0-0.1-0.1c0,0,0,0,0.1-0.2c1.2-1.3,1.6-3,1.6-4.7
			c0-2.1-0.6-3.7-1.5-4.7c-0.2-0.2-0.2-0.2-0.2-0.2c0-0.1,0-0.1,0.1-0.1c0.1,0,1,0.6,1.6,1.9c0.5,1.1,0.7,2.3,0.7,3.1
			C40.5,200.4,40.4,201.5,39.9,202.6z"/>
		<path class="st1" d="M45.2,198.8c-0.1,0-0.3,0-0.3-0.2c0-0.2,0.2-0.2,0.3-0.2h6c0.1,0,0.3,0,0.3,0.2c0,0.2-0.2,0.2-0.3,0.2H45.2z
			 M45.2,200.7c-0.1,0-0.3,0-0.3-0.2s0.2-0.2,0.3-0.2h5.9c0.1,0,0.3,0,0.3,0.2s-0.2,0.2-0.3,0.2H45.2z"/>
	</g>
	<g>
		<path class="st1" d="M56.7,201.3c0,0.4,0.1,0.4,0.8,0.4v0.3c-0.4,0-0.9,0-1.1,0c-0.2,0-0.8,0-1.1,0v-0.3c0.7,0,0.8,0,0.8-0.4v-5.2
			c0-0.5-0.1-0.6-0.8-0.6v-0.3l1.4-0.1V201.3z"/>
		<path class="st1" d="M59.4,201.3c0,0.4,0,0.4,0.7,0.4v0.3c-0.3,0-0.7,0-1,0c-0.2,0-0.8,0-1.1,0v-0.3c0.7,0,0.8,0,0.8-0.4v-2.7
			c0-0.5-0.1-0.5-0.7-0.5v-0.3l1.4-0.1V201.3z M58.9,196.4c-0.3,0-0.5-0.3-0.5-0.5c0-0.3,0.2-0.5,0.5-0.5c0.3,0,0.5,0.2,0.5,0.5
			C59.5,196.2,59.2,196.4,58.9,196.4z"/>
		<path class="st1" d="M60.7,198v-0.3l1.4-0.1v1c0.3-0.6,0.7-1,1.5-1c0.4,0,1.2,0.1,1.3,1c0.2-0.4,0.6-1,1.4-1c0.6,0,0.9,0.2,1,0.4
			c0.3,0.4,0.3,0.7,0.3,1.5v1.9c0,0.3,0.3,0.3,0.8,0.3v0.3c-0.3,0-0.9,0-1.1,0c-0.3,0-0.8,0-1.1,0v-0.3c0.7,0,0.8,0,0.8-0.4v-2.3
			c0-0.6-0.1-1.1-0.7-1.1c-0.6,0-1.3,0.6-1.3,1.6v1.8c0,0.4,0.1,0.4,0.8,0.4v0.3c-0.3,0-0.9,0-1.1,0c-0.3,0-0.8,0-1.1,0v-0.3
			c0.7,0,0.8,0,0.8-0.4v-2.3c0-0.6-0.1-1.1-0.7-1.1c-0.6,0-1.3,0.6-1.3,1.6v1.8c0,0.4,0.1,0.4,0.8,0.4v0.3c-0.3,0-0.9,0-1.1,0
			c-0.3,0-0.8,0-1.1,0v-0.3c0.7,0,0.8,0,0.8-0.4v-2.7C61.5,198.1,61.4,198,60.7,198z"/>
	</g>
	<g>
		<path class="st1" d="M71.2,202.9c0,0.1,0,0.1,0,0.2c0,0.1,0,0.1,0.3,0.1c0.1,0,0.3,0,0.4,0c0.2,0,0.3,0,0.3,0.1
			c0,0.2-0.1,0.2-0.2,0.2c-0.2,0-0.4,0-0.6,0c-0.2,0-0.4,0-0.6,0s-0.4,0-0.6,0s-0.4,0-0.6,0c-0.1,0-0.1-0.1-0.1-0.1
			c0-0.2,0.1-0.2,0.3-0.2c0.7,0,0.8-0.1,0.8-0.3l0.9-3.7c0-0.1,0-0.1,0-0.1c0-0.1,0-0.1-0.2-0.1H71c-1.1,0-1.3,0.1-1.7,1.2
			c0,0.1-0.1,0.2-0.1,0.2c-0.1,0-0.1-0.1-0.1-0.1c0,0,0-0.1,0-0.1l0.4-1.2c0-0.1,0.1-0.1,0.2-0.1H74c0.1,0,0.2,0,0.2,0.1l-0.2,1.3
			c0,0.1,0,0.2-0.1,0.2c-0.1,0-0.1,0-0.1-0.1l0-0.1c0-0.4,0-0.5,0-0.6c0-0.3,0-0.5-0.3-0.6c-0.2-0.1-0.4-0.1-0.8-0.1
			c-0.1,0-0.4,0-0.4,0c-0.2,0-0.2,0-0.2,0.2L71.2,202.9z"/>
	</g>
	<g>
		<path class="st1" d="M75.1,204.5c-1.3,0-1.3-1.3-1.3-1.7c0-0.4,0-1.7,1.3-1.7s1.3,1.4,1.3,1.7C76.4,203.2,76.4,204.5,75.1,204.5z
			 M75.8,203.8c0.1-0.3,0.1-0.7,0.1-1c0-0.3,0-0.7-0.1-1c-0.1-0.3-0.4-0.5-0.7-0.5c-0.2,0-0.6,0.1-0.7,0.5c-0.1,0.3-0.1,0.6-0.1,1
			c0,0.4,0,0.8,0.1,1c0.1,0.5,0.5,0.6,0.7,0.6C75.3,204.4,75.7,204.3,75.8,203.8z"/>
	</g>
	<g>
		<path class="st1" d="M78.2,201.9c-0.1,0-0.3,0-0.3-0.2c0-0.2,0.2-0.2,0.3-0.2h5.6c-0.2-0.2-0.4-0.4-0.6-0.6
			c-0.3-0.5-0.4-0.9-0.4-1c0-0.1,0.1-0.1,0.2-0.1s0.1,0,0.2,0.1c0.1,0.6,0.5,1.3,1.5,1.6c0.1,0,0.1,0,0.1,0.1c0,0,0,0.1-0.1,0.1
			c-0.3,0.1-0.6,0.2-1,0.6c-0.4,0.4-0.5,0.8-0.5,1c0,0.1-0.1,0.1-0.2,0.1c-0.1,0-0.2,0-0.2-0.1c0,0,0.1-0.9,1-1.6H78.2z"/>
		<path class="st1" d="M91.2,200.4c0.9,0,1.5,0.8,1.5,1.6c0,0.8-0.6,1.6-1.5,1.6c-0.4,0-0.8-0.1-1.3-0.4c-0.3-0.2-0.4-0.3-0.7-0.7
			c-0.3,0.4-0.9,1.2-1.9,1.2c-0.9,0-1.5-0.8-1.5-1.6c0-0.8,0.6-1.6,1.5-1.6c0.4,0,0.8,0.1,1.3,0.4c0.3,0.2,0.4,0.3,0.7,0.7
			C89.5,201.2,90.2,200.4,91.2,200.4z M87.2,200.8c-0.6,0-1.2,0.5-1.2,1.2c0,0.7,0.5,1.3,1.2,1.3c0.9,0,1.5-0.7,1.7-1.2
			C88.3,201.3,87.8,200.8,87.2,200.8z M91.3,203.1c0.6,0,1.2-0.5,1.2-1.2c0-0.7-0.5-1.3-1.2-1.3c-0.9,0-1.5,0.7-1.7,1.2
			C90.2,202.6,90.6,203.1,91.3,203.1z"/>
	</g>
	<g>
		<path class="st2" d="M98.3,200.4c-0.1,0.4-0.2,0.7-0.2,0.9c0,0.3,0.2,0.7,0.5,0.7c0.3,0,1-0.2,1.3-1.3c0-0.1,0-0.1,0.1-0.1
			c0,0,0.1,0,0.1,0.1c0,0.2-0.6,1.5-1.6,1.5c-0.6,0-1-0.4-1.1-0.8c0,0.1-0.4,0.8-1,0.8c-0.4,0-0.9-0.2-0.9-0.7
			c0-0.3,0.2-0.6,0.5-0.6c0.1,0,0.4,0.1,0.4,0.3c0,0.3-0.2,0.5-0.5,0.5c0.2,0.1,0.4,0.1,0.5,0.1c0.4,0,0.8-0.4,0.9-1
			c0.4-1.4,0.5-2.1,0.5-2.4c0-0.6-0.3-0.7-0.5-0.7c-0.3,0-1,0.2-1.3,1.3c0,0.1-0.1,0.1-0.1,0.1c0,0-0.1,0-0.1-0.1
			c0-0.3,0.6-1.5,1.6-1.5c0.3,0,0.8,0.1,1.1,0.8c0.1-0.2,0.5-0.8,1-0.8c0.3,0,0.9,0.1,0.9,0.7c0,0.4-0.3,0.6-0.5,0.6
			c-0.3,0-0.4-0.2-0.4-0.3c0-0.2,0.2-0.5,0.5-0.5c-0.2-0.1-0.4-0.1-0.5-0.1c-0.7,0-0.9,0.9-1,1.2L98.3,200.4z"/>
	</g>
	<g>
		<path class="st2" d="M102.3,201.1c0,0,0-0.1,0-0.2c0-0.2,0-0.3-0.2-0.3c-0.3,0-0.4,0.3-0.5,0.8c0,0.2-0.1,0.2-0.2,0.2
			c0,0-0.1,0-0.1-0.1c0,0,0.1-0.5,0.3-0.7c0.1-0.2,0.3-0.4,0.6-0.4c0.2,0,0.6,0.1,0.7,0.5c0.2-0.2,0.6-0.5,1-0.5c0.5,0,1,0.3,1,1.2
			c0,1-0.9,2-1.8,2c-0.4,0-0.6-0.3-0.7-0.4c-0.1,0.3-0.2,0.7-0.3,1c0,0.1-0.1,0.3-0.1,0.3c0,0.1,0.2,0.1,0.3,0.1
			c0.1,0,0.2,0,0.2,0.1c0,0.1-0.1,0.2-0.1,0.2c-0.2,0-0.5,0-0.7,0c-0.2,0-0.4,0-0.6,0c0,0-0.1,0-0.1-0.1c0-0.1,0.1-0.1,0.2-0.1
			c0.3,0,0.3-0.1,0.3-0.3L102.3,201.1z M102.5,202.6c0,0,0,0.1,0,0.1c0,0.1,0.1,0.6,0.6,0.6c0.4,0,0.7-0.3,0.9-0.7
			c0.2-0.4,0.4-1.1,0.4-1.4c0-0.5-0.2-0.7-0.5-0.7c-0.2,0-0.6,0.1-1,0.6L102.5,202.6z"/>
	</g>
	<g>
		<path class="st2" d="M108.9,204.5c-0.1,0-1-0.6-1.6-1.9c-0.5-1.1-0.7-2.3-0.7-3.1c0-0.8,0.1-1.9,0.6-3c0.6-1.3,1.5-1.9,1.6-1.9
			c0.1,0,0.1,0,0.1,0.1c0,0,0,0-0.1,0.2c-1.2,1.2-1.6,3-1.6,4.7c0,1.5,0.3,3.4,1.6,4.7C109,204.4,109,204.4,108.9,204.5
			C109,204.5,108.9,204.5,108.9,204.5z"/>
	</g>
	<g>
		<path class="st2" d="M110.8,201c0,0.2-0.1,0.2-0.1,0.5c0,0.3,0.1,0.5,0.3,0.5c0.3,0,0.9-0.2,1.3-1.3c0-0.1,0.1-0.1,0.1-0.1
			c0,0,0.1,0,0.1,0.1c0,0.1-0.6,1.5-1.6,1.5c-0.5,0-0.9-0.4-0.9-0.9c0-0.2,0-0.3,0.8-3.2H110c-0.2,0-0.3,0-0.3-0.1
			c0-0.2,0.1-0.2,0.3-0.2h0.9l0.4-1.6c0.1-0.3,0.4-0.4,0.4-0.4c0.2,0,0.3,0.1,0.3,0.3c0,0.1,0,0.3-0.4,1.7h0.9c0.2,0,0.3,0,0.3,0.1
			c0,0.2-0.1,0.2-0.3,0.2h-0.9L110.8,201z"/>
	</g>
	<g>
		<path class="st2" d="M115.4,202.6c-0.6,1.3-1.5,1.9-1.6,1.9c-0.1,0-0.1,0-0.1-0.1c0,0,0,0,0.1-0.2c1.2-1.3,1.6-3,1.6-4.7
			c0-2.1-0.6-3.7-1.5-4.7c-0.2-0.2-0.2-0.2-0.2-0.2c0-0.1,0-0.1,0.1-0.1c0.1,0,1,0.6,1.6,1.9c0.5,1.1,0.7,2.3,0.7,3.1
			C116,200.4,115.9,201.5,115.4,202.6z"/>
	</g>
	<polyline points="21.2,191.6 120.4,191.6 120.4,191.1 21.2,191.1 	"/>
	<polyline points="21.2,208.1 21.7,208.1 21.7,191.3 21.2,191.3 	"/>
	<polyline points="120.1,208.1 120.5,208.1 120.5,191.3 120.1,191.3 	"/>
	<polyline points="21.2,208.4 120.4,208.4 120.4,207.9 21.2,207.9 	"/>
</g>
</svg>
