<?xml version="1.0" encoding="utf-8"?>
<!-- Generator: Adobe Illustrator 22.1.0, SVG Export Plug-In . SVG Version: 6.00 Build 0)  -->
<svg version="1.1" id="Layer_1" xmlns="http://www.w3.org/2000/svg" xmlns:xlink="http://www.w3.org/1999/xlink" x="0px" y="0px"
	 viewBox="0 0 436 135.3" style="enable-background:new 0 0 436 135.3;" xml:space="preserve">
<style type="text/css">
	.st0{fill:none;stroke:#000000;stroke-width:0.8504;stroke-miterlimit:10;}
	.st1{fill:#1D1D1B;}
	.st2{fill:none;stroke:#000000;stroke-width:2.2677;stroke-miterlimit:10;}
	.st3{stroke:#000000;stroke-width:0.8504;stroke-miterlimit:10;}
	.st4{fill:none;stroke:#000000;stroke-width:0.8504;stroke-linecap:round;stroke-miterlimit:10;stroke-dasharray:0,3.3307;}
	.st5{fill:none;stroke:#000000;stroke-width:0.8504;stroke-linecap:round;stroke-miterlimit:10;stroke-dasharray:0,3.4016;}
	.st6{fill:none;stroke:#000000;stroke-width:1.1338;stroke-linecap:round;stroke-miterlimit:10;stroke-dasharray:0,4.0165;}
</style>
<g>
	<path class="st0" d="M194.3,62.9c0-1.4-1.1-2.5-2.5-2.5c-1.4,0-2.5,1.1-2.5,2.5s1.1,2.5,2.5,2.5C193.2,65.4,194.3,64.2,194.3,62.9
		L194.3,62.9z M195.3,62.8h21.3 M222.7,62.9c0-1.4-1.1-2.5-2.5-2.5c-1.4,0-2.5,1.1-2.5,2.5s1.1,2.5,2.5,2.5
		C221.5,65.4,222.7,64.2,222.7,62.9L222.7,62.9z"/>
	<g>
		<path class="st1" d="M205.9,54.8h-0.5c-0.1-1.2-0.4-1.9-2-1.9H202v2.7h0.5c1,0,1-0.4,1-1.2h0.5v2.8h-0.5c0-0.7-0.1-1.2-1-1.2H202
			v2.7h1.3v0.5c-0.4,0-1.5,0-2,0c-0.4,0-1.4,0-1.8,0v-0.5h1.1v-5.8h-1.1v-0.5h6L205.9,54.8z"/>
		<path class="st1" d="M212.1,57.1c0,1-0.6,2.1-2.3,2.1c-0.4,0-1.3-0.1-2-0.5l-0.5,0.5c-0.1,0.1-0.1,0.1-0.2,0.1
			c-0.2,0-0.2-0.1-0.2-0.3v-1.8c0-0.2,0-0.3,0.2-0.3c0.2,0,0.2,0,0.2,0.2c0.1,1.5,1.6,1.7,2.4,1.7c1,0,1.3-0.7,1.3-1.2
			c0-0.5-0.2-0.7-0.4-0.9c-0.2-0.2-0.4-0.2-1.3-0.4c-1.1-0.2-1.4-0.3-1.9-0.8c-0.2-0.2-0.5-0.7-0.5-1.3c0-1,0.7-2,2.2-2
			c0.5,0,1.1,0.1,1.7,0.5l0.4-0.4c0.1-0.1,0.1-0.1,0.2-0.1c0.2,0,0.2,0.1,0.2,0.3v1.8c0,0.2,0,0.3-0.2,0.3c-0.2,0-0.2,0-0.2-0.3
			c-0.2-1.4-1.2-1.7-2-1.7c-1,0-1.3,0.6-1.3,1c0,0.6,0.6,0.9,1,1l1.4,0.3C211.3,55.2,212.1,56,212.1,57.1z"/>
	</g>
	<polyline points="387,92.7 391.5,90.4 387,88.1 388.1,90.4 	"/>
	<line class="st0" x1="235.6" y1="90.4" x2="388.1" y2="90.4"/>
	<polyline points="315.6,17.7 313.3,13.2 311,17.7 313.3,16.6 	"/>
	<line class="st0" x1="313.3" y1="101.8" x2="313.3" y2="16.6"/>
	<line class="st2" x1="313.3" y1="91.1" x2="313.3" y2="27.4"/>
	<path class="st3" d="M315.8,27.3c0-1.4-1.1-2.5-2.5-2.5s-2.5,1.1-2.5,2.5s1.1,2.5,2.5,2.5S315.8,28.7,315.8,27.3L315.8,27.3z"/>
	<path class="st3" d="M358.4,91.2c0-1.4-1.1-2.5-2.5-2.5s-2.5,1.1-2.5,2.5s1.1,2.5,2.5,2.5S358.4,92.6,358.4,91.2L358.4,91.2z"/>
	<path class="st3" d="M294.5,55.7c0-1.4-1.1-2.5-2.5-2.5s-2.5,1.1-2.5,2.5s1.1,2.5,2.5,2.5S294.5,57,294.5,55.7L294.5,55.7z"/>
	<line class="st2" x1="292" y1="91.1" x2="292" y2="55.7"/>
	<path class="st3" d="M252.1,84.1c0-1.4-1.1-2.5-2.5-2.5s-2.5,1.1-2.5,2.5s1.1,2.5,2.5,2.5S252.1,85.5,252.1,84.1L252.1,84.1z"/>
	<line class="st2" x1="249.5" y1="91.1" x2="249.5" y2="84.1"/>
	<path class="st3" d="M273.6,91.2c0-1.5-1.3-2.8-2.8-2.8s-2.8,1.3-2.8,2.8s1.3,2.8,2.8,2.8S273.6,92.7,273.6,91.2L273.6,91.2z"/>
	<g>
		<path class="st1" d="M328.7,16.5c0.5-0.6,0.8-1.3,1-2c0-0.2,0-0.2,0.1-0.2c0.1,0,0.1,0.1,0.1,0.1c0,0-0.2,1.2-1.1,2.3
			c-0.1,0.1-0.1,0.1-0.1,0.3c0,0.2,0,1,0.3,1c0,0,0.4,0,0.6-0.5c0-0.1,0.1-0.1,0.1-0.1c0.1,0,0.1,0,0.1,0.1c0,0.2-0.3,0.7-0.8,0.7
			c-0.4,0-0.8-0.3-0.9-0.8c-0.8,0.6-1.5,0.8-2.1,0.8c-1,0-1.6-0.8-1.6-1.7c0-1.4,1.3-2.8,2.7-2.8c0.7,0,1.7,0.5,1.7,2.1V16.5z
			 M328,16.1c0-0.8,0-2.1-1-2.1c-0.3,0-0.9,0.2-1.4,0.9c-0.3,0.5-0.6,1.6-0.6,2.1c0,0.6,0.3,1.1,0.9,1.1c0.4,0,1.2-0.1,2-0.9
			C328,17.1,328,16.5,328,16.1z"/>
	</g>
	<g>
		<path class="st1" d="M331.8,17.8c0.3-0.1,0.5-0.3,0.8-0.6c0.4-0.3,0.7-0.6,1.1-0.6c0.4,0,0.5,0.3,0.5,0.5c0,0.3-0.2,0.4-0.4,0.4
			c-0.2,0-0.3-0.1-0.3-0.3c0-0.1,0.1-0.3,0.4-0.4c-0.1-0.1-0.1-0.1-0.2-0.1c-0.4,0-0.7,0.3-1.1,0.7c-0.1,0.1-0.4,0.3-0.6,0.5
			c0.3,0,1.1,0.1,1.1,0.7c0,0.1,0,0.2,0,0.2c0,0.2,0,0.2,0,0.3c0,0.2,0.1,0.4,0.2,0.4c0.3,0,0.5-0.5,0.6-0.8c0-0.1,0-0.2,0.1-0.2
			c0,0,0.1,0,0.1,0.1c0,0-0.2,1.1-0.9,1.1c-0.3,0-0.7-0.2-0.7-0.7c0-0.1,0-0.1,0-0.2c0-0.1,0-0.1,0-0.1c0-0.4-0.4-0.5-0.9-0.6
			c0,0.1-0.3,1.3-0.3,1.4c0,0.2-0.1,0.3-0.3,0.3c-0.2,0-0.2-0.1-0.2-0.2c0,0,0,0,0-0.2l1-3.9c0-0.1,0-0.1,0-0.2c0-0.1,0-0.1-0.3-0.1
			c-0.1,0-0.2,0-0.2-0.1c0-0.1,0.1-0.2,0.2-0.2c0.2,0,0.8-0.1,0.9-0.1c0.1,0,0.1,0.1,0.1,0.1c0,0,0,0.1,0,0.1L331.8,17.8z"/>
	</g>
	<g>
		<path class="st1" d="M315.1,111.1c-0.4,0.9-1.2,1.2-1.7,1.2c-0.5,0-1.2-0.2-1.6-1c-0.4-0.8-0.4-1.7-0.4-2.4c0-0.8,0-1.6,0.4-2.3
			c0.4-0.9,1.1-1.2,1.7-1.2c0.4,0,1.2,0.2,1.7,1.1c0.3,0.7,0.4,1.5,0.4,2.3C315.5,109.7,315.4,110.4,315.1,111.1z M314.5,110.8
			c0.1-0.6,0.1-1.3,0.1-2.1c0-0.6,0-1.4-0.1-1.9c-0.2-1-0.8-1.2-1.2-1.2c-0.2,0-1,0.1-1.2,1.3c-0.1,0.5-0.1,1.2-0.1,1.8
			c0,0.6,0,1.5,0.1,2.1c0.2,1,0.8,1.2,1.2,1.2C313.8,112.1,314.4,111.8,314.5,110.8z"/>
		<path class="st1" d="M335,111.3c0,0.4,0,0.5,0.9,0.5h0.3v0.3c-0.3,0-1.2,0-1.6,0s-1.3,0-1.6,0v-0.3h0.3c0.9,0,0.9-0.1,0.9-0.5
			v-5.2c-0.5,0.3-1.1,0.3-1.3,0.3v-0.3c0.3,0,1.2,0,1.8-0.6c0.2,0,0.2,0,0.2,0.3V111.3z"/>
		<path class="st1" d="M356.4,111.3c0.2,0,0.9,0,0.9-0.1c0.1-0.1,0.2-0.6,0.2-0.9h0.2l-0.3,1.7h-3.7c0-0.2,0-0.3,0.1-0.4l1.9-2.1
			c0.5-0.6,1-1.4,1-2.2c0-0.8-0.4-1.6-1.3-1.6c-0.6,0-1.1,0.4-1.3,1c0,0,0,0,0.1,0c0.3,0,0.5,0.3,0.5,0.5c0,0.4-0.3,0.5-0.5,0.5
			c0,0-0.5,0-0.5-0.6c0-0.9,0.7-1.8,1.9-1.8c1.2,0,2.1,0.8,2.1,1.9c0,1-0.6,1.5-2.2,2.9l-1.1,1H356.4z"/>
		<path class="st1" d="M379.2,110.4c0,1-0.9,1.9-2.1,1.9c-1.1,0-2-0.7-2-1.6c0-0.4,0.3-0.6,0.6-0.6c0.3,0,0.6,0.2,0.6,0.6
			c0,0.4-0.3,0.6-0.7,0.5c0.3,0.6,1.1,0.8,1.5,0.8c0.4,0,1.1-0.3,1.1-1.6c0-1-0.4-1.7-1.2-1.7h-0.4c-0.2,0-0.2,0-0.2-0.1
			c0-0.1,0.1-0.1,0.1-0.1c0.1,0,0.3,0,0.4,0c0.2,0,0.6,0,0.9-0.5c0.3-0.4,0.3-1,0.3-1.1c0-0.9-0.5-1.1-1-1.1c-0.4,0-1,0.1-1.3,0.6
			c0.1,0,0.6,0,0.6,0.5c0,0.3-0.2,0.5-0.5,0.5c-0.3,0-0.5-0.2-0.5-0.5c0-0.8,0.8-1.4,1.8-1.4c1,0,1.8,0.6,1.8,1.4
			c0,0.8-0.6,1.5-1.4,1.8C378.5,108.8,379.2,109.5,379.2,110.4z"/>
	</g>
	<g>
		<path class="st1" d="M288.1,110.2v-0.6h2.6v0.6H288.1z"/>
		<path class="st1" d="M294.2,111.3c0,0.4,0,0.5,0.9,0.5h0.3v0.3c-0.3,0-1.2,0-1.6,0s-1.3,0-1.6,0v-0.3h0.3c0.9,0,0.9-0.1,0.9-0.5
			v-5.2c-0.5,0.3-1.1,0.3-1.3,0.3v-0.3c0.3,0,1.2,0,1.8-0.6c0.2,0,0.2,0,0.2,0.3V111.3z"/>
	</g>
	<g>
		<path class="st1" d="M266.7,110.2v-0.6h2.6v0.6H266.7z"/>
		<path class="st1" d="M273,111.3c0.2,0,0.9,0,0.9-0.1c0.1-0.1,0.2-0.6,0.2-0.9h0.2l-0.3,1.7h-3.7c0-0.2,0-0.3,0.1-0.4l1.9-2.1
			c0.5-0.6,1-1.4,1-2.2c0-0.8-0.4-1.6-1.3-1.6c-0.6,0-1.1,0.4-1.3,1c0,0,0,0,0.1,0c0.3,0,0.5,0.3,0.5,0.5c0,0.4-0.3,0.5-0.5,0.5
			c0,0-0.5,0-0.5-0.6c0-0.9,0.7-1.8,1.9-1.8c1.2,0,2.1,0.8,2.1,1.9c0,1-0.6,1.5-2.2,2.9l-1.1,1H273z"/>
	</g>
	<g>
		<path class="st1" d="M245.5,110.2v-0.6h2.6v0.6H245.5z"/>
		<path class="st1" d="M253.3,110.4c0,1-0.9,1.9-2.1,1.9c-1.1,0-2-0.7-2-1.6c0-0.4,0.3-0.6,0.6-0.6c0.3,0,0.6,0.2,0.6,0.6
			c0,0.4-0.3,0.6-0.7,0.5c0.3,0.6,1.1,0.8,1.5,0.8c0.4,0,1.1-0.3,1.1-1.6c0-1-0.4-1.7-1.2-1.7h-0.4c-0.2,0-0.2,0-0.2-0.1
			c0-0.1,0.1-0.1,0.1-0.1c0.1,0,0.3,0,0.4,0c0.2,0,0.6,0,0.9-0.5c0.3-0.4,0.3-1,0.3-1.1c0-0.9-0.5-1.1-1-1.1c-0.4,0-1,0.1-1.3,0.6
			c0.1,0,0.6,0,0.6,0.5c0,0.3-0.2,0.5-0.5,0.5c-0.3,0-0.5-0.2-0.5-0.5c0-0.8,0.8-1.4,1.8-1.4c1,0,1.8,0.6,1.8,1.4
			c0,0.8-0.6,1.5-1.4,1.8C252.6,108.8,253.3,109.5,253.3,110.4z"/>
	</g>
	<polyline points="401.2,124.6 405.7,122.3 401.2,120 402.3,122.3 	"/>
	<line class="st0" x1="398.6" y1="122.3" x2="402.3" y2="122.3"/>
	<g>
		<path class="st1" d="M331.5,125c0,0.1,0,0.2,0,0.2c0,0.1,0,0.2,0.3,0.2c0.2,0,0.3,0,0.5,0c0.2,0,0.2,0,0.3,0c0,0,0.1,0,0.1,0.1
			c0,0.2-0.1,0.2-0.2,0.2c-0.3,0-1.2,0-1.5,0c-0.3,0-1,0-1.3,0c0,0-0.1,0-0.1-0.1c0-0.2,0.1-0.2,0.3-0.2c0.8,0,0.8-0.1,0.9-0.5
			l1.3-5.3c0-0.2,0-0.2,0-0.2c0-0.2-0.3-0.2-0.6-0.2c-0.2,0-0.3,0-0.3-0.1c0-0.2,0.1-0.2,0.3-0.2h4.9c0.3,0,0.3,0,0.3,0.3l-0.2,1.7
			c0,0.2,0,0.3-0.1,0.3c-0.1,0-0.1-0.1-0.1-0.1c0,0,0,0,0-0.2c0-0.3,0-0.3,0-0.5c0-0.8-0.2-1.1-1.5-1.1h-1.3c-0.4,0-0.4,0-0.5,0.4
			l-0.6,2.5h0.9c0.8,0,1.1-0.2,1.3-1c0-0.2,0-0.2,0.1-0.2s0.1,0.1,0.1,0.1c0,0,0,0,0,0.2l-0.5,2.2c0,0.2,0,0.2-0.1,0.2
			c-0.1,0-0.1,0-0.1-0.1c0,0,0-0.1,0-0.1c0.1-0.3,0.1-0.4,0.1-0.5c0-0.3-0.1-0.4-0.8-0.4h-1L331.5,125z"/>
	</g>
	<g>
		<path class="st1" d="M337.5,127.3c-1.6,0-1.6-1.9-1.6-2.4s0-2.4,1.6-2.4c0.6,0,1,0.3,1.2,0.6c0.3,0.5,0.4,1,0.4,1.8
			C339.1,125.5,339.1,127.3,337.5,127.3z M338.4,126.3c0.1-0.4,0.1-1,0.1-1.5c0-0.6,0-1.1-0.1-1.5c-0.1-0.4-0.5-0.6-0.9-0.6
			c-0.3,0-0.7,0.1-0.9,0.7c-0.1,0.4-0.1,0.9-0.1,1.4c0,0.5,0,1.1,0.1,1.5c0.1,0.6,0.6,0.8,0.9,0.8
			C337.7,127.1,338.2,127,338.4,126.3z"/>
	</g>
	<g>
		<path class="st1" d="M351,125c0.2,0,0.9,0,0.9-0.1c0.1-0.1,0.2-0.6,0.2-0.9h0.2l-0.3,1.7h-3.7c0-0.2,0-0.3,0.1-0.4l1.9-2.1
			c0.5-0.6,1-1.4,1-2.2c0-0.8-0.4-1.6-1.3-1.6c-0.6,0-1.1,0.4-1.3,1c0,0,0,0,0.1,0c0.3,0,0.5,0.3,0.5,0.5c0,0.4-0.3,0.5-0.5,0.5
			c0,0-0.5,0-0.5-0.6c0-0.9,0.7-1.8,1.9-1.8c1.2,0,2.1,0.8,2.1,1.9c0,1-0.6,1.5-2.2,2.9l-1.1,1H351z"/>
	</g>
	<g>
		<path class="st1" d="M355.4,125c0,0.1,0,0.2,0,0.2c0,0.1,0,0.2,0.3,0.2c0.2,0,0.3,0,0.5,0c0.2,0,0.2,0,0.3,0c0,0,0.1,0,0.1,0.1
			c0,0.2-0.1,0.2-0.2,0.2c-0.3,0-1.2,0-1.5,0c-0.3,0-1,0-1.3,0c0,0-0.1,0-0.1-0.1c0-0.2,0.1-0.2,0.3-0.2c0.8,0,0.8-0.1,0.9-0.5
			l1.3-5.3c0-0.2,0-0.2,0-0.2c0-0.2-0.3-0.2-0.6-0.2c-0.2,0-0.3,0-0.3-0.1c0-0.2,0.1-0.2,0.3-0.2h4.9c0.3,0,0.3,0,0.3,0.3l-0.2,1.7
			c0,0.2,0,0.3-0.1,0.3c-0.1,0-0.1-0.1-0.1-0.1c0,0,0,0,0-0.2c0-0.3,0-0.3,0-0.5c0-0.8-0.2-1.1-1.5-1.1h-1.3c-0.4,0-0.4,0-0.5,0.4
			l-0.6,2.5h0.9c0.8,0,1.1-0.2,1.3-1c0-0.2,0-0.2,0.1-0.2s0.1,0.1,0.1,0.1c0,0,0,0,0,0.2l-0.5,2.2c0,0.2,0,0.2-0.1,0.2
			c-0.1,0-0.1,0-0.1-0.1c0,0,0-0.1,0-0.1c0.1-0.3,0.1-0.4,0.1-0.5c0-0.3-0.1-0.4-0.8-0.4h-1L355.4,125z"/>
	</g>
	<g>
		<path class="st1" d="M361.3,127.3c-1.6,0-1.6-1.9-1.6-2.4s0-2.4,1.6-2.4c0.6,0,1,0.3,1.2,0.6c0.3,0.5,0.4,1,0.4,1.8
			C363,125.5,363,127.3,361.3,127.3z M362.2,126.3c0.1-0.4,0.1-1,0.1-1.5c0-0.6,0-1.1-0.1-1.5c-0.1-0.4-0.5-0.6-0.9-0.6
			c-0.3,0-0.7,0.1-0.9,0.7c-0.1,0.4-0.1,0.9-0.1,1.4c0,0.5,0,1.1,0.1,1.5c0.1,0.6,0.6,0.8,0.9,0.8
			C361.6,127.1,362.1,127,362.2,126.3z"/>
	</g>
	<g>
		<path class="st1" d="M373.8,124c0,1-0.9,1.9-2.1,1.9c-1.1,0-2-0.7-2-1.6c0-0.4,0.3-0.6,0.6-0.6c0.3,0,0.6,0.2,0.6,0.6
			c0,0.4-0.3,0.6-0.7,0.5c0.3,0.6,1.1,0.8,1.5,0.8c0.4,0,1.1-0.3,1.1-1.6c0-1-0.4-1.7-1.2-1.7h-0.4c-0.2,0-0.2,0-0.2-0.1
			c0-0.1,0.1-0.1,0.1-0.1c0.1,0,0.3,0,0.4,0c0.2,0,0.6,0,0.9-0.5c0.3-0.4,0.3-1,0.3-1.1c0-0.9-0.5-1.1-1-1.1c-0.4,0-1,0.1-1.3,0.6
			c0.1,0,0.6,0,0.6,0.5c0,0.3-0.2,0.5-0.5,0.5c-0.3,0-0.5-0.2-0.5-0.5c0-0.8,0.8-1.4,1.8-1.4c1,0,1.8,0.6,1.8,1.4
			c0,0.8-0.6,1.5-1.4,1.8C373.1,122.4,373.8,123.2,373.8,124z"/>
	</g>
	<g>
		<path class="st1" d="M376.6,125c0,0.1,0,0.2,0,0.2c0,0.1,0,0.2,0.3,0.2c0.2,0,0.3,0,0.5,0c0.2,0,0.2,0,0.3,0c0,0,0.1,0,0.1,0.1
			c0,0.2-0.1,0.2-0.2,0.2c-0.3,0-1.2,0-1.5,0c-0.3,0-1,0-1.3,0c0,0-0.1,0-0.1-0.1c0-0.2,0.1-0.2,0.3-0.2c0.8,0,0.8-0.1,0.9-0.5
			l1.3-5.3c0-0.2,0-0.2,0-0.2c0-0.2-0.3-0.2-0.6-0.2c-0.2,0-0.3,0-0.3-0.1c0-0.2,0.1-0.2,0.3-0.2h4.9c0.3,0,0.3,0,0.3,0.3l-0.2,1.7
			c0,0.2,0,0.3-0.1,0.3c-0.1,0-0.1-0.1-0.1-0.1c0,0,0,0,0-0.2c0-0.3,0-0.3,0-0.5c0-0.8-0.2-1.1-1.5-1.1h-1.3c-0.4,0-0.4,0-0.5,0.4
			l-0.6,2.5h0.9c0.8,0,1.1-0.2,1.3-1c0-0.2,0-0.2,0.1-0.2s0.1,0.1,0.1,0.1c0,0,0,0,0,0.2l-0.5,2.2c0,0.2,0,0.2-0.1,0.2
			c-0.1,0-0.1,0-0.1-0.1c0,0,0-0.1,0-0.1c0.1-0.3,0.1-0.4,0.1-0.5c0-0.3-0.1-0.4-0.8-0.4h-1L376.6,125z"/>
	</g>
	<g>
		<path class="st1" d="M382.6,127.3c-1.6,0-1.6-1.9-1.6-2.4s0-2.4,1.6-2.4c0.6,0,1,0.3,1.2,0.6c0.3,0.5,0.4,1,0.4,1.8
			C384.2,125.5,384.2,127.3,382.6,127.3z M383.5,126.3c0.1-0.4,0.1-1,0.1-1.5c0-0.6,0-1.1-0.1-1.5c-0.1-0.4-0.5-0.6-0.9-0.6
			c-0.3,0-0.7,0.1-0.9,0.7c-0.1,0.4-0.1,0.9-0.1,1.4c0,0.5,0,1.1,0.1,1.5c0.1,0.6,0.6,0.8,0.9,0.8
			C382.9,127.1,383.3,127,383.5,126.3z"/>
	</g>
	<g>
		<path class="st1" d="M284,123.4c-0.2,0-0.3,0-0.3-0.2s0.2-0.2,0.3-0.2h5.4c0.2,0,0.3,0,0.3,0.2s-0.2,0.2-0.3,0.2H284z"/>
	</g>
	<g>
		<path class="st1" d="M293,125c0,0.1,0,0.2,0,0.2c0,0.1,0,0.2,0.3,0.2c0.2,0,0.3,0,0.5,0c0.2,0,0.2,0,0.3,0c0,0,0.1,0,0.1,0.1
			c0,0.2-0.1,0.2-0.2,0.2c-0.3,0-1.2,0-1.5,0c-0.3,0-1,0-1.3,0c0,0-0.1,0-0.1-0.1c0-0.2,0.1-0.2,0.3-0.2c0.8,0,0.8-0.1,0.9-0.5
			l1.3-5.3c0-0.2,0-0.2,0-0.2c0-0.2-0.3-0.2-0.6-0.2c-0.2,0-0.3,0-0.3-0.1c0-0.2,0.1-0.2,0.3-0.2h4.9c0.3,0,0.3,0,0.3,0.3l-0.2,1.7
			c0,0.2,0,0.3-0.1,0.3c-0.1,0-0.1-0.1-0.1-0.1c0,0,0,0,0-0.2c0-0.3,0-0.3,0-0.5c0-0.8-0.2-1.1-1.5-1.1h-1.3c-0.4,0-0.4,0-0.5,0.4
			l-0.6,2.5h0.9c0.8,0,1.1-0.2,1.3-1c0-0.2,0-0.2,0.1-0.2s0.1,0.1,0.1,0.1c0,0,0,0,0,0.2l-0.5,2.2c0,0.2,0,0.2-0.1,0.2
			c-0.1,0-0.1,0-0.1-0.1c0,0,0-0.1,0-0.1c0.1-0.3,0.1-0.4,0.1-0.5c0-0.3-0.1-0.4-0.8-0.4h-1L293,125z"/>
	</g>
	<g>
		<path class="st1" d="M298.9,127.3c-1.6,0-1.6-1.9-1.6-2.4s0-2.4,1.6-2.4c0.6,0,1,0.3,1.2,0.6c0.3,0.5,0.4,1,0.4,1.8
			C300.6,125.5,300.6,127.3,298.9,127.3z M299.8,126.3c0.1-0.4,0.1-1,0.1-1.5c0-0.6,0-1.1-0.1-1.5c-0.1-0.4-0.5-0.6-0.9-0.6
			c-0.3,0-0.7,0.1-0.9,0.7c-0.1,0.4-0.1,0.9-0.1,1.4c0,0.5,0,1.1,0.1,1.5c0.1,0.6,0.6,0.8,0.9,0.8
			C299.2,127.1,299.7,127,299.8,126.3z"/>
	</g>
	<g>
		<path class="st1" d="M260.2,123.4c-0.2,0-0.3,0-0.3-0.2s0.2-0.2,0.3-0.2h5.4c0.2,0,0.3,0,0.3,0.2s-0.2,0.2-0.3,0.2H260.2z"/>
	</g>
	<g>
		<path class="st1" d="M269.9,125c0.2,0,0.9,0,0.9-0.1c0.1-0.1,0.2-0.6,0.2-0.9h0.2l-0.3,1.7h-3.7c0-0.2,0-0.3,0.1-0.4l1.9-2.1
			c0.5-0.6,1-1.4,1-2.2c0-0.8-0.4-1.6-1.3-1.6c-0.6,0-1.1,0.4-1.3,1c0,0,0,0,0.1,0c0.3,0,0.5,0.3,0.5,0.5c0,0.4-0.3,0.5-0.5,0.5
			c0,0-0.5,0-0.5-0.6c0-0.9,0.7-1.8,1.9-1.8c1.2,0,2.1,0.8,2.1,1.9c0,1-0.6,1.5-2.2,2.9l-1.1,1H269.9z"/>
	</g>
	<g>
		<path class="st1" d="M274.3,125c0,0.1,0,0.2,0,0.2c0,0.1,0,0.2,0.3,0.2c0.2,0,0.3,0,0.5,0c0.2,0,0.2,0,0.3,0c0,0,0.1,0,0.1,0.1
			c0,0.2-0.1,0.2-0.2,0.2c-0.3,0-1.2,0-1.5,0c-0.3,0-1,0-1.3,0c0,0-0.1,0-0.1-0.1c0-0.2,0.1-0.2,0.3-0.2c0.8,0,0.8-0.1,0.9-0.5
			l1.3-5.3c0-0.2,0-0.2,0-0.2c0-0.2-0.3-0.2-0.6-0.2c-0.2,0-0.3,0-0.3-0.1c0-0.2,0.1-0.2,0.3-0.2h4.9c0.3,0,0.3,0,0.3,0.3l-0.2,1.7
			c0,0.2,0,0.3-0.1,0.3c-0.1,0-0.1-0.1-0.1-0.1c0,0,0,0,0-0.2c0-0.3,0-0.3,0-0.5c0-0.8-0.2-1.1-1.5-1.1h-1.3c-0.4,0-0.4,0-0.5,0.4
			l-0.6,2.5h0.9c0.8,0,1.1-0.2,1.3-1c0-0.2,0-0.2,0.1-0.2s0.1,0.1,0.1,0.1c0,0,0,0,0,0.2l-0.5,2.2c0,0.2,0,0.2-0.1,0.2
			c-0.1,0-0.1,0-0.1-0.1c0,0,0-0.1,0-0.1c0.1-0.3,0.1-0.4,0.1-0.5c0-0.3-0.1-0.4-0.8-0.4h-1L274.3,125z"/>
	</g>
	<g>
		<path class="st1" d="M280.2,127.3c-1.6,0-1.6-1.9-1.6-2.4s0-2.4,1.6-2.4c0.6,0,1,0.3,1.2,0.6c0.3,0.5,0.4,1,0.4,1.8
			C281.8,125.5,281.8,127.3,280.2,127.3z M281.1,126.3c0.1-0.4,0.1-1,0.1-1.5c0-0.6,0-1.1-0.1-1.5c-0.1-0.4-0.5-0.6-0.9-0.6
			c-0.3,0-0.7,0.1-0.9,0.7c-0.1,0.4-0.1,0.9-0.1,1.4c0,0.5,0,1.1,0.1,1.5c0.1,0.6,0.6,0.8,0.9,0.8C280.5,127.1,281,127,281.1,126.3z
			"/>
	</g>
	<g>
		<path class="st1" d="M238.9,123.4c-0.2,0-0.3,0-0.3-0.2s0.2-0.2,0.3-0.2h5.4c0.2,0,0.3,0,0.3,0.2s-0.2,0.2-0.3,0.2H238.9z"/>
	</g>
	<g>
		<path class="st1" d="M250,124c0,1-0.9,1.9-2.1,1.9c-1.1,0-2-0.7-2-1.6c0-0.4,0.3-0.6,0.6-0.6c0.3,0,0.6,0.2,0.6,0.6
			c0,0.4-0.3,0.6-0.7,0.5c0.3,0.6,1.1,0.8,1.5,0.8c0.4,0,1.1-0.3,1.1-1.6c0-1-0.4-1.7-1.2-1.7h-0.4c-0.2,0-0.2,0-0.2-0.1
			c0-0.1,0.1-0.1,0.1-0.1c0.1,0,0.3,0,0.4,0c0.2,0,0.6,0,0.9-0.5c0.3-0.4,0.3-1,0.3-1.1c0-0.9-0.5-1.1-1-1.1c-0.4,0-1,0.1-1.3,0.6
			c0.1,0,0.6,0,0.6,0.5c0,0.3-0.2,0.5-0.5,0.5c-0.3,0-0.5-0.2-0.5-0.5c0-0.8,0.8-1.4,1.8-1.4c1,0,1.8,0.6,1.8,1.4
			c0,0.8-0.6,1.5-1.4,1.8C249.4,122.4,250,123.2,250,124z"/>
	</g>
	<g>
		<path class="st1" d="M252.9,125c0,0.1,0,0.2,0,0.2c0,0.1,0,0.2,0.3,0.2c0.2,0,0.3,0,0.5,0c0.2,0,0.2,0,0.3,0c0,0,0.1,0,0.1,0.1
			c0,0.2-0.1,0.2-0.2,0.2c-0.3,0-1.2,0-1.5,0c-0.3,0-1,0-1.3,0c0,0-0.1,0-0.1-0.1c0-0.2,0.1-0.2,0.3-0.2c0.8,0,0.8-0.1,0.9-0.5
			l1.3-5.3c0-0.2,0-0.2,0-0.2c0-0.2-0.3-0.2-0.6-0.2c-0.2,0-0.3,0-0.3-0.1c0-0.2,0.1-0.2,0.3-0.2h4.9c0.3,0,0.3,0,0.3,0.3l-0.2,1.7
			c0,0.2,0,0.3-0.1,0.3c-0.1,0-0.1-0.1-0.1-0.1c0,0,0,0,0-0.2c0-0.3,0-0.3,0-0.5c0-0.8-0.2-1.1-1.5-1.1h-1.3c-0.4,0-0.4,0-0.5,0.4
			l-0.6,2.5h0.9c0.8,0,1.1-0.2,1.3-1c0-0.2,0-0.2,0.1-0.2s0.1,0.1,0.1,0.1c0,0,0,0,0,0.2l-0.5,2.2c0,0.2,0,0.2-0.1,0.2
			c-0.1,0-0.1,0-0.1-0.1c0,0,0-0.1,0-0.1c0.1-0.3,0.1-0.4,0.1-0.5c0-0.3-0.1-0.4-0.8-0.4h-1L252.9,125z"/>
	</g>
	<g>
		<path class="st1" d="M258.9,127.3c-1.6,0-1.6-1.9-1.6-2.4s0-2.4,1.6-2.4c0.6,0,1,0.3,1.2,0.6c0.3,0.5,0.4,1,0.4,1.8
			C260.5,125.5,260.5,127.3,258.9,127.3z M259.8,126.3c0.1-0.4,0.1-1,0.1-1.5c0-0.6,0-1.1-0.1-1.5c-0.1-0.4-0.5-0.6-0.9-0.6
			c-0.3,0-0.7,0.1-0.9,0.7c-0.1,0.4-0.1,0.9-0.1,1.4c0,0.5,0,1.1,0.1,1.5c0.1,0.6,0.6,0.8,0.9,0.8
			C259.1,127.1,259.6,127,259.8,126.3z"/>
	</g>
	<g>
		<path class="st1" d="M315.1,125.3c-0.4,0.9-1.2,1.2-1.7,1.2c-0.5,0-1.2-0.2-1.6-1c-0.4-0.8-0.4-1.7-0.4-2.4c0-0.8,0-1.6,0.4-2.3
			c0.4-0.9,1.1-1.2,1.7-1.2c0.4,0,1.2,0.2,1.7,1.1c0.3,0.7,0.4,1.5,0.4,2.3C315.5,123.8,315.4,124.6,315.1,125.3z M314.5,125
			c0.1-0.6,0.1-1.3,0.1-2.1c0-0.6,0-1.4-0.1-1.9c-0.2-1-0.8-1.2-1.2-1.2c-0.2,0-1,0.1-1.2,1.3c-0.1,0.5-0.1,1.2-0.1,1.8
			c0,0.6,0,1.5,0.1,2.1c0.2,1,0.8,1.2,1.2,1.2C313.8,126.2,314.4,125.9,314.5,125z"/>
	</g>
	<g>
		<path class="st1" d="M412.3,124c0,0.1-0.2,1.3-0.6,1.9c-0.2,0.4-0.6,1-1.1,1c-0.4,0-0.8-0.2-0.8-0.7c0-0.4,0.3-0.6,0.5-0.6
			c0.2,0,0.4,0.1,0.4,0.3c0,0.1-0.1,0.5-0.5,0.5c0.2,0.2,0.4,0.2,0.5,0.2c0.5,0,0.7-0.9,0.9-1.9l0.7-3.9h-0.7c-0.2,0-0.3,0-0.3-0.1
			c0-0.2,0.1-0.2,0.3-0.2h0.7c0.2-1.3,0.3-1.4,0.3-1.6c0.3-1,0.9-1.2,1.3-1.2c0.4,0,0.9,0.2,0.9,0.7c0,0.4-0.3,0.6-0.5,0.6
			c-0.2,0-0.4-0.1-0.4-0.3c0-0.1,0.1-0.5,0.5-0.5c-0.2-0.2-0.4-0.2-0.5-0.2c-0.2,0-0.4,0.1-0.5,0.3c-0.1,0.1-0.2,0.8-0.2,1l-0.2,1.1
			h0.8c0.2,0,0.3,0,0.3,0.1c0,0.2-0.1,0.2-0.3,0.2h-0.9L412.3,124z"/>
	</g>
	<g>
		<path class="st1" d="M419.7,127.3v-10h1.4v0.4h-1v9.2h1v0.4H419.7z"/>
		<path class="st1" d="M427.4,124c0,0.4,0,0.5,0.8,0.5h0.2v0.3c-0.3,0-1.1,0-1.5,0c-0.4,0-1.1,0-1.5,0v-0.3h0.2
			c0.8,0,0.8-0.1,0.8-0.5v-2.6h-3v2.6c0,0.4,0,0.5,0.8,0.5h0.2v0.3c-0.3,0-1.1,0-1.5,0c-0.4,0-1.1,0-1.5,0v-0.3h0.2
			c0.8,0,0.8-0.1,0.8-0.5v-5.3c0-0.4,0-0.5-0.8-0.5h-0.2V118c0.3,0,1.1,0,1.5,0c0.4,0,1.1,0,1.5,0v0.3h-0.2c-0.8,0-0.8,0.1-0.8,0.5
			v2.3h3v-2.3c0-0.4,0-0.5-0.8-0.5h-0.2V118c0.3,0,1.1,0,1.5,0c0.4,0,1.1,0,1.5,0v0.3h-0.2c-0.8,0-0.8,0.1-0.8,0.5V124z"/>
		<path class="st1" d="M429.9,124.5h1.2c1.2,0,1.4-0.4,1.5-1.6h0.2l-0.2,1.9h-3.3c-0.2,0-0.3,0-0.3-0.1c0,0,0-0.1,0.1-0.2l2.8-3.8
			h-1.1c-1.1,0-1.3,0.4-1.3,1.4h-0.2l0.1-1.6h3.2c0.2,0,0.3,0,0.3,0.1c0,0,0,0.1-0.1,0.2L429.9,124.5z"/>
		<path class="st1" d="M434.8,127.3h-1.4v-0.4h1v-9.2h-1v-0.4h1.4V127.3z"/>
	</g>
	<polyline points="401.2,110.4 405.7,108.1 401.2,105.9 402.3,108.1 	"/>
	<line class="st0" x1="398.6" y1="108.1" x2="402.3" y2="108.1"/>
	<g>
		<path class="st1" d="M411.1,109c0.4-0.1,0.8-0.5,1.1-0.9c0.7-0.8,1.2-0.9,1.5-0.9c0.4,0,0.7,0.3,0.7,0.6c0,0.4-0.3,0.6-0.5,0.6
			c-0.3,0-0.4-0.2-0.4-0.3c0-0.1,0.1-0.5,0.6-0.5c0,0,0,0,0,0c-0.1-0.1-0.1-0.1-0.2-0.1c0,0,0,0-0.1,0c-0.5,0-0.9,0.4-1.4,1
			c-0.2,0.2-0.5,0.6-0.9,0.7c0.8,0.1,1.5,0.4,1.5,1c0,0.1,0,0.1,0,0.3c0,0.2-0.1,0.4-0.1,0.6c0,0.4,0.1,0.5,0.3,0.5
			c0.4,0,0.7-0.5,0.9-1.2c0-0.1,0-0.2,0.1-0.2c0,0,0.1,0,0.1,0.1c0,0-0.1,0.6-0.4,1c-0.2,0.4-0.5,0.5-0.8,0.5c-0.5,0-0.9-0.4-0.9-1
			c0-0.1,0-0.2,0-0.3c0-0.1,0-0.1,0-0.2c0-0.7-0.8-0.8-1.2-0.8c-0.1,0.3-0.5,2.1-0.6,2.2c-0.1,0.1-0.2,0.2-0.3,0.2
			c-0.1,0-0.3,0-0.3-0.3c0-0.1,0-0.1,0-0.2l1.4-5.7l0-0.2c0-0.1,0-0.2-0.5-0.2c-0.1,0-0.2,0-0.2-0.1c0-0.2,0.1-0.2,0.2-0.2
			c0.3,0,1-0.1,1.2-0.1c0.1,0,0.1,0.1,0.1,0.1L411.1,109z"/>
	</g>
	<line class="st2" x1="334.5" y1="91.1" x2="334.5" y2="55.7"/>
	<path class="st3" d="M337,55.7c0-1.4-1.1-2.5-2.5-2.5s-2.5,1.1-2.5,2.5s1.1,2.5,2.5,2.5S337,57,337,55.7L337,55.7z"/>
	<path class="st3" d="M379.6,83c0-1.4-1.1-2.5-2.5-2.5s-2.5,1.1-2.5,2.5s1.1,2.5,2.5,2.5S379.6,84.4,379.6,83L379.6,83z"/>
	<line class="st2" x1="377.1" y1="91.1" x2="377.1" y2="84.1"/>
	<line class="st4" x1="384.5" y1="76.2" x2="398.6" y2="76.2"/>
	<line class="st4" x1="228.6" y1="76.2" x2="242.7" y2="76.2"/>
	<path class="st0" d="M249.5,94.7v-7.1 M270.8,94.7v-7.1 M292,94.7v-7.1 M334.5,94.7v-7.1 M355.8,94.7v-7.1"/>
	<polyline points="94.8,10.6 92.6,6.1 90.3,10.6 92.6,9.5 	"/>
	<path class="st0" d="M92.6,94.7l0-85.2 M81.9,91.1H89"/>
	<g>
		<path class="st1" d="M164.7,103.2c0,0.2-0.1,0.2-0.1,0.5c0,0.3,0.1,0.5,0.3,0.5c0.3,0,0.9-0.2,1.3-1.3c0-0.1,0.1-0.1,0.1-0.1
			c0,0,0.1,0,0.1,0.1c0,0.1-0.6,1.5-1.6,1.5c-0.5,0-0.9-0.4-0.9-0.9c0-0.2,0-0.3,0.8-3.2h-0.9c-0.2,0-0.3,0-0.3-0.1
			c0-0.2,0.1-0.2,0.3-0.2h0.9l0.4-1.6c0.1-0.3,0.4-0.4,0.4-0.4c0.2,0,0.3,0.1,0.3,0.3c0,0.1,0,0.3-0.4,1.7h0.9c0.2,0,0.3,0,0.3,0.1
			c0,0.2-0.1,0.2-0.3,0.2h-0.9L164.7,103.2z"/>
	</g>
	<g>
		<path class="st1" d="M171.5,106.8v-10h1.4v0.4h-1v9.2h1v0.4H171.5z"/>
		<path class="st1" d="M173.9,101.9c-0.3-0.2-0.4-0.5-0.4-0.8c0-0.6,0.4-1.2,1.6-1.2c0.1,0,0.6,0,0.9,0.3c0,0,0.1-0.1,0.2-0.2
			c0.1-0.1,0.1-0.1,0.2-0.1c0.1,0,0.1,0.1,0.1,0.2v1c0,0.2,0,0.2-0.1,0.2c0,0-0.1,0-0.1-0.1c0-0.3-0.1-1.2-1.2-1.2
			c-0.9,0-1.1,0.4-1.1,0.8c0,0.6,0.7,0.7,1.2,0.8c0.4,0.1,0.8,0.2,1.1,0.5c0.1,0.1,0.4,0.4,0.4,0.9c0,0.7-0.5,1.4-1.6,1.4
			c-0.2,0-0.7,0-1.1-0.4c-0.2,0.2-0.2,0.2-0.2,0.2c-0.2,0.2-0.2,0.2-0.2,0.2c-0.1,0-0.1-0.1-0.1-0.2v-1.3c0-0.2,0-0.3,0.1-0.3
			c0.1,0,0.1,0,0.1,0.2c0.2,0.8,0.5,1.4,1.4,1.4c0.8,0,1.1-0.4,1.1-0.9c0-0.7-0.8-0.9-1-0.9C174.5,102.2,174.2,102.1,173.9,101.9z"
			/>
		<path class="st1" d="M178.5,103.5c0.2,0.4,0.6,0.7,1.1,0.7c0.1,0,1,0,1.3-1c0-0.1,0-0.1,0.1-0.1c0,0,0.1,0,0.1,0.1
			c0,0.2-0.4,1.3-1.7,1.3c-1.1,0-2.2-1-2.2-2.3c0-1.2,0.9-2.3,2.1-2.3c1.2,0,1.8,1,1.8,2c0,0.2,0,0.2-0.2,0.2h-2.8
			C178.2,102.3,178.2,103,178.5,103.5z M180.5,101.8c0-0.4-0.1-1.7-1.1-1.7c-0.3,0-1.2,0.3-1.2,1.7H180.5z"/>
		<path class="st1" d="M184.1,104.1c0.4,0,1-0.1,1.3-1c0-0.1,0-0.1,0.1-0.1c0,0,0.1,0,0.1,0.1s-0.3,1.3-1.7,1.3
			c-1.2,0-2.1-1-2.1-2.3c0-1.2,0.9-2.3,2.2-2.3c0.8,0,1.5,0.4,1.5,1.1c0,0.3-0.2,0.5-0.5,0.5c-0.3,0-0.5-0.2-0.5-0.5
			c0-0.1,0.1-0.4,0.5-0.5c-0.3-0.4-1-0.4-1.1-0.4c-0.5,0-1.3,0.4-1.3,2C182.7,103.7,183.5,104.1,184.1,104.1z"/>
		<path class="st1" d="M187.5,106.8h-1.4v-0.4h1v-9.2h-1v-0.4h1.4V106.8z"/>
	</g>
	<polyline points="180.1,93.4 184.7,91.1 180.1,88.9 181.3,91.1 	"/>
	<line class="st0" x1="0.4" y1="91.1" x2="181.3" y2="91.1"/>
	<g>
		<path class="st1" d="M94.3,104c-0.4,0.9-1.2,1.2-1.7,1.2c-0.5,0-1.2-0.2-1.6-1c-0.4-0.8-0.4-1.7-0.4-2.4c0-0.8,0-1.6,0.4-2.3
			c0.4-0.9,1.1-1.2,1.7-1.2c0.4,0,1.2,0.2,1.7,1.1c0.3,0.7,0.4,1.5,0.4,2.3C94.7,102.6,94.6,103.4,94.3,104z M93.7,103.7
			c0.1-0.6,0.1-1.3,0.1-2.1c0-0.6,0-1.4-0.1-1.9c-0.2-1-0.8-1.2-1.2-1.2c-0.2,0-1,0.1-1.2,1.3c-0.1,0.5-0.1,1.2-0.1,1.8
			c0,0.6,0,1.5,0.1,2.1c0.2,1,0.8,1.2,1.2,1.2C93,105,93.6,104.7,93.7,103.7z"/>
	</g>
	<g>
		<path class="st1" d="M113.8,103.5c0,0.1,0,0.2,0,0.2c0,0.2,0.1,0.2,0.4,0.2c0.3,0,0.4,0,0.6,0c0.3,0,0.3,0,0.3,0.1
			c0,0.2-0.1,0.2-0.2,0.2c-0.3,0-0.6,0-0.9,0c-0.3,0-0.5,0-0.8,0c-0.3,0-0.6,0-0.8,0c-0.3,0-0.5,0-0.8,0c-0.1,0-0.2,0-0.2-0.1
			c0-0.2,0.1-0.2,0.4-0.2c1.1,0,1.1-0.1,1.2-0.5l1.3-5.3c0,0,0-0.1,0-0.2c0-0.1,0-0.1-0.3-0.1h-0.4c-1.5,0-1.7,0.2-2.3,1.7
			c-0.1,0.2-0.1,0.2-0.2,0.2c-0.1,0-0.1,0-0.1-0.1c0,0,0-0.2,0.1-0.2l0.6-1.8c0.1-0.2,0.1-0.2,0.3-0.2h5.5c0.2,0,0.3,0,0.3,0.1
			c0,0,0,0.1,0,0.2l-0.3,1.7c0,0.1,0,0.2-0.1,0.2c-0.1,0-0.1-0.1-0.1-0.1c0,0,0-0.2,0-0.2c0-0.3,0.1-0.6,0.1-0.8
			c0-0.8-0.4-0.8-1.5-0.8c-0.2,0-0.5,0-0.6,0c-0.1,0-0.2,0.1-0.2,0.4L113.8,103.5z"/>
	</g>
	<g>
		<path class="st1" d="M118.7,105.8c-1.6,0-1.6-1.9-1.6-2.4s0-2.4,1.6-2.4c0.6,0,1,0.3,1.2,0.6c0.3,0.5,0.4,1,0.4,1.8
			C120.3,104,120.3,105.8,118.7,105.8z M119.6,104.9c0.1-0.4,0.1-1,0.1-1.5c0-0.6,0-1.1-0.1-1.5c-0.1-0.4-0.5-0.6-0.9-0.6
			c-0.3,0-0.7,0.1-0.9,0.7c-0.1,0.4-0.1,0.9-0.1,1.4c0,0.5,0,1.1,0.1,1.5c0.1,0.6,0.6,0.8,0.9,0.8
			C119,105.6,119.5,105.5,119.6,104.9z"/>
	</g>
	<g>
		<path class="st1" d="M122,106.5c-0.1,0.2-0.1,0.2-0.2,0.2c-0.1,0-0.2-0.1-0.2-0.2c0,0,0,0,0-0.2l3.5-9.5c0-0.1,0.1-0.1,0.2-0.1
			c0.1,0,0.2,0.1,0.2,0.2c0,0,0,0,0,0.2L122,106.5z"/>
	</g>
	<g>
		<path class="st1" d="M129.1,103.5c0.2,0,0.9,0,0.9-0.1c0.1-0.1,0.2-0.6,0.2-0.9h0.2l-0.3,1.7h-3.7c0-0.2,0-0.3,0.1-0.4l1.9-2.1
			c0.5-0.6,1-1.4,1-2.2c0-0.8-0.4-1.6-1.3-1.6c-0.6,0-1.1,0.4-1.3,1c0,0,0,0,0.1,0c0.3,0,0.5,0.3,0.5,0.5c0,0.4-0.3,0.5-0.5,0.5
			c0,0-0.5,0-0.5-0.6c0-0.9,0.7-1.8,1.9-1.8c1.2,0,2.1,0.8,2.1,1.9c0,1-0.6,1.5-2.2,2.9l-1.1,1H129.1z"/>
	</g>
	<g>
		<path class="st1" d="M51.4,102c-0.2,0-0.3,0-0.3-0.2s0.2-0.2,0.3-0.2h5.4c0.2,0,0.3,0,0.3,0.2S57,102,56.8,102H51.4z"/>
	</g>
	<g>
		<path class="st1" d="M61,103.5c0,0.1,0,0.2,0,0.2c0,0.2,0.1,0.2,0.4,0.2c0.3,0,0.4,0,0.6,0c0.3,0,0.3,0,0.3,0.1
			c0,0.2-0.1,0.2-0.2,0.2c-0.3,0-0.6,0-0.9,0c-0.3,0-0.5,0-0.8,0c-0.3,0-0.6,0-0.8,0c-0.3,0-0.5,0-0.8,0c-0.1,0-0.2,0-0.2-0.1
			c0-0.2,0.1-0.2,0.4-0.2c1.1,0,1.1-0.1,1.2-0.5l1.3-5.3c0,0,0-0.1,0-0.2c0-0.1,0-0.1-0.3-0.1h-0.4c-1.5,0-1.7,0.2-2.3,1.7
			c-0.1,0.2-0.1,0.2-0.2,0.2c-0.1,0-0.1,0-0.1-0.1c0,0,0-0.2,0.1-0.2l0.6-1.8c0.1-0.2,0.1-0.2,0.3-0.2h5.5c0.2,0,0.3,0,0.3,0.1
			c0,0,0,0.1,0,0.2l-0.3,1.7c0,0.1,0,0.2-0.1,0.2c-0.1,0-0.1-0.1-0.1-0.1c0,0,0-0.2,0-0.2c0-0.3,0.1-0.6,0.1-0.8
			c0-0.8-0.4-0.8-1.5-0.8c-0.2,0-0.5,0-0.6,0c-0.1,0-0.2,0.1-0.2,0.4L61,103.5z"/>
	</g>
	<g>
		<path class="st1" d="M65.9,105.8c-1.6,0-1.6-1.9-1.6-2.4s0-2.4,1.6-2.4c0.6,0,1,0.3,1.2,0.6c0.3,0.5,0.4,1,0.4,1.8
			C67.5,104,67.5,105.8,65.9,105.8z M66.8,104.9c0.1-0.4,0.1-1,0.1-1.5c0-0.6,0-1.1-0.1-1.5c-0.1-0.4-0.5-0.6-0.9-0.6
			c-0.3,0-0.7,0.1-0.9,0.7c-0.1,0.4-0.1,0.9-0.1,1.4c0,0.5,0,1.1,0.1,1.5c0.1,0.6,0.6,0.8,0.9,0.8C66.2,105.6,66.7,105.5,66.8,104.9
			z"/>
	</g>
	<g>
		<path class="st1" d="M69.2,106.5c-0.1,0.2-0.1,0.2-0.2,0.2c-0.1,0-0.2-0.1-0.2-0.2c0,0,0,0,0-0.2l3.5-9.5c0-0.1,0.1-0.1,0.2-0.1
			c0.1,0,0.2,0.1,0.2,0.2c0,0,0,0,0,0.2L69.2,106.5z"/>
	</g>
	<g>
		<path class="st1" d="M76.3,103.5c0.2,0,0.9,0,0.9-0.1c0.1-0.1,0.2-0.6,0.2-0.9h0.2l-0.3,1.7h-3.7c0-0.2,0-0.3,0.1-0.4l1.9-2.1
			c0.5-0.6,1-1.4,1-2.2c0-0.8-0.4-1.6-1.3-1.6c-0.6,0-1.1,0.4-1.3,1c0,0,0,0,0.1,0c0.3,0,0.5,0.3,0.5,0.5c0,0.4-0.3,0.5-0.5,0.5
			c0,0-0.5,0-0.5-0.6c0-0.9,0.7-1.8,1.9-1.8c1.2,0,2.1,0.8,2.1,1.9c0,1-0.6,1.5-2.2,2.9l-1.1,1H76.3z"/>
	</g>
	<path class="st0" d="M64.2,94.7v-7.1 M177.6,94.7v-7.1 M7.5,94.7v-7.1"/>
	<path class="st4" d="M170.5,77h14.2 M0.4,77h14.2"/>
	<path class="st0" d="M64.2,112.4v7.1 M120.9,112.4v7.1"/>
	<polyline points="68.7,113.7 64.2,115.9 68.7,118.2 67.6,115.9 	"/>
	<polyline points="116.4,118.2 120.9,115.9 116.4,113.7 117.5,115.9 	"/>
	<line class="st0" x1="67.6" y1="115.9" x2="117.5" y2="115.9"/>
	<g>
		<path class="st1" d="M73.3,128.3c0,0.1,0,0.2,0,0.2c0,0.2,0.1,0.2,0.4,0.2c0.3,0,0.4,0,0.6,0c0.3,0,0.3,0,0.3,0.1
			c0,0.2-0.1,0.2-0.2,0.2c-0.3,0-0.6,0-0.9,0c-0.3,0-0.5,0-0.8,0c-0.3,0-0.6,0-0.8,0c-0.3,0-0.5,0-0.8,0c-0.1,0-0.2,0-0.2-0.1
			c0-0.2,0.1-0.2,0.4-0.2c1.1,0,1.1-0.1,1.2-0.5l1.3-5.3c0,0,0-0.1,0-0.2c0-0.1,0-0.1-0.3-0.1h-0.4c-1.5,0-1.7,0.2-2.3,1.7
			c-0.1,0.2-0.1,0.2-0.2,0.2c-0.1,0-0.1,0-0.1-0.1c0,0,0-0.2,0.1-0.2l0.6-1.8c0.1-0.2,0.1-0.2,0.3-0.2h5.5c0.2,0,0.3,0,0.3,0.1
			c0,0,0,0.1,0,0.2l-0.3,1.7c0,0.1,0,0.2-0.1,0.2c-0.1,0-0.1-0.1-0.1-0.1c0,0,0-0.2,0-0.2c0-0.3,0.1-0.6,0.1-0.8
			c0-0.8-0.4-0.8-1.5-0.8c-0.2,0-0.5,0-0.6,0c-0.1,0-0.2,0.1-0.2,0.4L73.3,128.3z"/>
	</g>
	<g>
		<path class="st1" d="M78.3,130.7c-1.6,0-1.6-1.9-1.6-2.4s0-2.4,1.6-2.4c0.6,0,1,0.3,1.2,0.6c0.3,0.5,0.4,1,0.4,1.8
			C79.9,128.8,79.9,130.7,78.3,130.7z M79.2,129.7c0.1-0.4,0.1-1,0.1-1.5c0-0.6,0-1.1-0.1-1.5c-0.1-0.4-0.5-0.6-0.9-0.6
			c-0.3,0-0.7,0.1-0.9,0.7c-0.1,0.4-0.1,0.9-0.1,1.4c0,0.5,0,1.1,0.1,1.5c0.1,0.6,0.6,0.8,0.9,0.8C78.5,130.5,79,130.3,79.2,129.7z"
			/>
	</g>
	<g>
		<path class="st1" d="M84.4,125.8c-0.1,0-0.3,0-0.3-0.2c0-0.2,0.2-0.2,0.3-0.2h6c0.1,0,0.3,0,0.3,0.2c0,0.2-0.2,0.2-0.3,0.2H84.4z
			 M84.4,127.8c-0.1,0-0.3,0-0.3-0.2s0.2-0.2,0.3-0.2h5.9c0.1,0,0.3,0,0.3,0.2s-0.2,0.2-0.3,0.2H84.4z"/>
		<path class="st1" d="M96.9,128.3c0,0.4,0,0.5,0.9,0.5h0.3v0.3c-0.3,0-1.2,0-1.6,0c-0.4,0-1.3,0-1.6,0v-0.3h0.3
			c0.9,0,0.9-0.1,0.9-0.5v-5.2c-0.5,0.3-1.1,0.3-1.3,0.3v-0.3c0.3,0,1.2,0,1.8-0.6c0.2,0,0.2,0,0.2,0.3V128.3z"/>
	</g>
	<g>
		<path class="st1" d="M99.9,131.3c-0.1,0.2-0.1,0.2-0.2,0.2c-0.1,0-0.2-0.1-0.2-0.2c0,0,0,0,0-0.2l3.5-9.5c0-0.1,0.1-0.1,0.2-0.1
			c0.1,0,0.2,0.1,0.2,0.2c0,0,0,0,0,0.2L99.9,131.3z"/>
		<path class="st1" d="M106.4,128.3c0,0.1,0,0.2,0,0.2c0,0.1,0,0.2,0.3,0.2c0.2,0,0.3,0,0.5,0c0.2,0,0.2,0,0.3,0c0,0,0.1,0,0.1,0.1
			c0,0.2-0.1,0.2-0.2,0.2c-0.3,0-1.2,0-1.5,0c-0.3,0-1,0-1.3,0c0,0-0.1,0-0.1-0.1c0-0.2,0.1-0.2,0.3-0.2c0.8,0,0.8-0.1,0.9-0.5
			l1.3-5.3c0-0.2,0-0.2,0-0.2c0-0.2-0.3-0.2-0.6-0.2c-0.2,0-0.3,0-0.3-0.1c0-0.2,0.1-0.2,0.3-0.2h4.9c0.2,0,0.3,0,0.3,0.3l-0.2,1.7
			c0,0.2,0,0.3-0.1,0.3c-0.1,0-0.1-0.1-0.1-0.1c0,0,0,0,0-0.2c0-0.3,0-0.3,0-0.5c0-0.8-0.2-1.1-1.5-1.1h-1.3c-0.4,0-0.4,0-0.5,0.4
			l-0.6,2.5h0.9c0.8,0,1.1-0.2,1.3-1c0-0.2,0-0.2,0.1-0.2s0.1,0.1,0.1,0.1c0,0,0,0,0,0.2l-0.5,2.2c0,0.2,0,0.2-0.1,0.2
			c-0.1,0-0.1,0-0.1-0.1c0,0,0-0.1,0-0.1c0.1-0.3,0.1-0.4,0.1-0.5c0-0.3-0.1-0.4-0.8-0.4h-1L106.4,128.3z"/>
	</g>
	<g>
		<path class="st1" d="M112.3,130.7c-1.6,0-1.6-1.9-1.6-2.4s0-2.4,1.6-2.4c0.6,0,1,0.3,1.2,0.6c0.3,0.5,0.4,1,0.4,1.8
			C114,128.8,114,130.7,112.3,130.7z M113.2,129.7c0.1-0.4,0.1-1,0.1-1.5c0-0.6,0-1.1-0.1-1.5c-0.1-0.4-0.5-0.6-0.9-0.6
			c-0.3,0-0.7,0.1-0.9,0.7c-0.1,0.4-0.1,0.9-0.1,1.4c0,0.5,0,1.1,0.1,1.5c0.1,0.6,0.6,0.8,0.9,0.8
			C112.6,130.5,113.1,130.3,113.2,129.7z"/>
	</g>
	<g>
		<path class="st1" d="M106.1,6.7C106,7.2,106,7.4,106,7.6c0,0.3,0.2,0.7,0.5,0.7c0.3,0,1-0.2,1.3-1.3c0-0.1,0-0.1,0.1-0.1
			c0,0,0.1,0,0.1,0.1c0,0.2-0.6,1.5-1.6,1.5c-0.6,0-1-0.4-1.1-0.8c0,0.1-0.4,0.8-1,0.8c-0.4,0-0.9-0.2-0.9-0.7
			c0-0.3,0.2-0.6,0.5-0.6c0.1,0,0.4,0.1,0.4,0.3c0,0.3-0.2,0.5-0.5,0.5c0.2,0.1,0.4,0.1,0.5,0.1c0.4,0,0.8-0.4,0.9-1
			c0.4-1.4,0.5-2.1,0.5-2.4c0-0.6-0.3-0.7-0.5-0.7c-0.3,0-1,0.2-1.3,1.3c0,0.1-0.1,0.1-0.1,0.1c0,0-0.1,0-0.1-0.1
			c0-0.2,0.6-1.5,1.6-1.5c0.3,0,0.8,0.1,1.1,0.8c0.1-0.2,0.5-0.8,1-0.8c0.3,0,0.9,0.1,0.9,0.7c0,0.4-0.3,0.6-0.5,0.6
			c-0.3,0-0.4-0.2-0.4-0.3c0-0.2,0.2-0.5,0.5-0.5c-0.2-0.1-0.4-0.1-0.5-0.1c-0.7,0-0.9,0.9-1,1.2L106.1,6.7z"/>
	</g>
	<g>
		<path class="st1" d="M110.1,7.5c0,0,0-0.1,0-0.2c0-0.2,0-0.3-0.2-0.3c-0.3,0-0.4,0.3-0.5,0.8c0,0.2-0.1,0.2-0.2,0.2
			c0,0-0.1,0-0.1-0.1c0,0,0.1-0.5,0.3-0.7c0.1-0.2,0.3-0.4,0.6-0.4c0.2,0,0.6,0.1,0.7,0.5c0.2-0.2,0.6-0.5,1-0.5c0.5,0,1,0.3,1,1.2
			c0,1-0.9,2-1.8,2c-0.4,0-0.6-0.3-0.7-0.4c-0.1,0.3-0.2,0.7-0.3,1c0,0.1-0.1,0.3-0.1,0.3c0,0.1,0.2,0.1,0.3,0.1
			c0.1,0,0.2,0,0.2,0.1c0,0.1-0.1,0.2-0.1,0.2c-0.2,0-0.5,0-0.7,0c-0.2,0-0.4,0-0.6,0c0,0-0.1,0-0.1-0.1c0-0.1,0.1-0.1,0.2-0.1
			c0.3,0,0.3-0.1,0.3-0.3L110.1,7.5z M110.3,9c0,0,0,0.1,0,0.1c0,0.1,0.1,0.6,0.6,0.6c0.4,0,0.7-0.3,0.9-0.7
			c0.2-0.4,0.4-1.1,0.4-1.4c0-0.5-0.2-0.7-0.5-0.7c-0.2,0-0.6,0.1-1,0.6L110.3,9z"/>
	</g>
	<g>
		<path class="st1" d="M116.7,10.9c-0.1,0-1-0.6-1.6-1.9c-0.5-1.1-0.7-2.3-0.7-3.1c0-0.8,0.1-1.9,0.6-3c0.6-1.3,1.5-1.9,1.6-1.9
			c0.1,0,0.1,0,0.1,0.1c0,0,0,0-0.1,0.2c-1.2,1.2-1.6,3-1.6,4.7c0,1.5,0.3,3.4,1.6,4.7C116.8,10.7,116.8,10.7,116.7,10.9
			C116.8,10.8,116.7,10.9,116.7,10.9z"/>
	</g>
	<g>
		<path class="st1" d="M118.6,7.3c0,0.2-0.1,0.2-0.1,0.5c0,0.3,0.1,0.5,0.3,0.5c0.3,0,0.9-0.2,1.3-1.3c0-0.1,0.1-0.1,0.1-0.1
			c0,0,0.1,0,0.1,0.1c0,0.1-0.6,1.5-1.6,1.5c-0.5,0-0.9-0.4-0.9-0.9c0-0.2,0-0.3,0.8-3.2h-0.9c-0.2,0-0.3,0-0.3-0.1
			c0-0.2,0.1-0.2,0.3-0.2h0.9l0.4-1.6c0.1-0.3,0.4-0.4,0.4-0.4c0.2,0,0.3,0.1,0.3,0.3c0,0.1,0,0.3-0.4,1.7h0.9c0.2,0,0.3,0,0.3,0.1
			c0,0.2-0.1,0.2-0.3,0.2h-0.9L118.6,7.3z"/>
	</g>
	<g>
		<path class="st1" d="M123.2,8.9c-0.6,1.3-1.5,1.9-1.6,1.9c-0.1,0-0.1,0-0.1-0.1c0,0,0-0.1,0.1-0.2c1.2-1.3,1.6-3,1.6-4.7
			c0-2.1-0.6-3.7-1.5-4.7c-0.2-0.2-0.2-0.2-0.2-0.2c0-0.1,0-0.1,0.1-0.1c0.1,0,1,0.6,1.6,1.9c0.5,1.1,0.7,2.3,0.7,3.1
			C123.8,6.7,123.7,7.8,123.2,8.9z"/>
	</g>
	<line class="st0" x1="120.9" y1="94.7" x2="120.9" y2="87.6"/>
	<path class="st5" d="M64.2,91.1V69.9 M120.9,91.1V69.9"/>
	<path class="st2" d="M64.2,69.9c0,0,10.8-8.2,14.2-14.2c4.9-8.7-1.8-24.9,7.1-28.3c3.9-1.5,7.9,3.7,10.6,7.1
		c10.6,13.2,2.1,44.3,17.7,46.1c4.1,0.4,7.1-10.6,7.1-10.6l0,0"/>
	<path class="st6" d="M120.9,69.9c0,0,10.8-8.2,14.2-14.2c4.9-8.7-1.8-24.9,7.1-28.3c3.9-1.5,7.9,3.7,10.6,7.1
		c10.6,13.2,2.1,44.3,17.7,46.1c4.1,0.4,7.1-10.6,7.1-10.6l0,0 M7.5,69.9c0,0,10.8-8.2,14.2-14.2c4.9-8.7-1.8-24.9,7.1-28.3
		c3.9-1.5,7.9,3.7,10.6,7.1C50,47.7,41.5,78.8,57.1,80.5c4.1,0.4,7.1-10.6,7.1-10.6l0,0"/>
</g>
</svg>
