<?xml version="1.0" encoding="utf-8"?>
<!-- Generator: Adobe Illustrator 22.1.0, SVG Export Plug-In . SVG Version: 6.00 Build 0)  -->
<svg version="1.1" id="Layer_1" xmlns="http://www.w3.org/2000/svg" xmlns:xlink="http://www.w3.org/1999/xlink" x="0px" y="0px"
	 viewBox="0 0 434.5 264.5" style="enable-background:new 0 0 434.5 264.5;" xml:space="preserve">
<style type="text/css">
	.st0{fill:#1D1D1B;}
	.st1{fill:none;stroke:#000000;stroke-width:0.8504;stroke-miterlimit:10;}
	.st2{fill:none;stroke:#000000;stroke-width:2.2677;stroke-miterlimit:10;}
	.st3{fill:none;stroke:#000000;stroke-width:0.8504;stroke-linecap:round;stroke-miterlimit:10;stroke-dasharray:0,3.4016;}
	.st4{fill:none;stroke:#000000;stroke-width:0.8504;stroke-linecap:round;stroke-miterlimit:10;stroke-dasharray:0,3.4015;}
	.st5{fill:none;stroke:#0000FF;stroke-width:2.2677;stroke-miterlimit:10;}
	
		.st6{fill:none;stroke:#0000FF;stroke-width:2.2677;stroke-linecap:round;stroke-miterlimit:10;stroke-dasharray:0,7.9632;stroke-dashoffset:-1;}
</style>
<g>
	<g>
		<path class="st0" d="M170,38c0,0.2-0.1,0.2-0.1,0.5c0,0.3,0.1,0.5,0.3,0.5c0.3,0,0.9-0.2,1.3-1.3c0-0.1,0.1-0.1,0.1-0.1
			c0,0,0.1,0,0.1,0.1c0,0.1-0.6,1.5-1.6,1.5c-0.5,0-0.9-0.4-0.9-0.9c0-0.2,0-0.3,0.8-3.2h-0.9c-0.2,0-0.3,0-0.3-0.1
			c0-0.2,0.1-0.2,0.3-0.2h0.9l0.4-1.6c0.1-0.3,0.4-0.4,0.4-0.4c0.2,0,0.3,0.1,0.3,0.3c0,0.1,0,0.3-0.4,1.7h0.9c0.2,0,0.3,0,0.3,0.1
			c0,0.2-0.1,0.2-0.3,0.2h-0.9L170,38z"/>
	</g>
	<g>
		<path class="st0" d="M176.7,41.6v-10h1.4V32h-1v9.2h1v0.4H176.7z"/>
		<path class="st0" d="M179.1,36.7c-0.3-0.2-0.4-0.5-0.4-0.8c0-0.6,0.4-1.2,1.6-1.2c0.1,0,0.6,0,0.9,0.3c0,0,0.1-0.1,0.2-0.2
			c0.1-0.1,0.1-0.1,0.2-0.1c0.1,0,0.1,0.1,0.1,0.2v1c0,0.2,0,0.2-0.1,0.2c0,0-0.1,0-0.1-0.1c0-0.3-0.1-1.2-1.2-1.2
			c-0.9,0-1.1,0.4-1.1,0.8c0,0.6,0.7,0.7,1.2,0.8c0.4,0.1,0.8,0.2,1.1,0.5c0.1,0.1,0.4,0.4,0.4,0.9c0,0.7-0.5,1.4-1.6,1.4
			c-0.2,0-0.7,0-1.1-0.4C179,39,179,39,179,39c-0.2,0.2-0.2,0.2-0.2,0.2c-0.1,0-0.1-0.1-0.1-0.2v-1.3c0-0.2,0-0.2,0.1-0.2
			c0.1,0,0.1,0,0.1,0.2c0.2,0.8,0.5,1.4,1.4,1.4c0.8,0,1.1-0.4,1.1-0.9c0-0.7-0.8-0.9-1-0.9C179.7,37,179.4,37,179.1,36.7z"/>
		<path class="st0" d="M183.7,38.3c0.2,0.4,0.6,0.7,1.1,0.7c0.1,0,1,0,1.3-1c0-0.1,0-0.1,0.1-0.1c0,0,0.1,0,0.1,0.1
			c0,0.2-0.4,1.3-1.7,1.3c-1.1,0-2.2-1-2.2-2.3c0-1.2,0.9-2.3,2.1-2.3c1.2,0,1.8,1,1.8,2c0,0.2,0,0.2-0.2,0.2h-2.8
			C183.4,37.1,183.4,37.8,183.7,38.3z M185.7,36.6c0-0.4-0.1-1.7-1.1-1.7c-0.3,0-1.2,0.2-1.2,1.7H185.7z"/>
		<path class="st0" d="M189.3,38.9c0.4,0,1-0.1,1.3-1c0-0.1,0-0.1,0.1-0.1c0,0,0.1,0,0.1,0.1s-0.3,1.3-1.7,1.3c-1.2,0-2.1-1-2.1-2.3
			c0-1.2,0.9-2.3,2.2-2.3c0.8,0,1.5,0.4,1.5,1.1c0,0.3-0.2,0.5-0.5,0.5c-0.3,0-0.5-0.2-0.5-0.5c0-0.1,0.1-0.4,0.5-0.5
			c-0.3-0.4-1-0.4-1.1-0.4c-0.5,0-1.3,0.4-1.3,2C187.9,38.5,188.7,38.9,189.3,38.9z"/>
		<path class="st0" d="M192.7,41.6h-1.4v-0.4h1V32h-1v-0.4h1.4V41.6z"/>
	</g>
	<polyline points="88.4,11.7 86.2,7.2 83.9,11.7 86.2,10.6 	"/>
	<line class="st1" x1="86.2" y1="39.1" x2="86.2" y2="10.6"/>
	<polyline points="157.1,38.8 161.6,36.6 157.1,34.3 158.2,36.6 	"/>
	<line class="st1" x1="12.8" y1="36.6" x2="158.2" y2="36.6"/>
	<polyline points="89.9,21.6 86.2,14.3 82.5,21.6 86.2,19.8 	"/>
	<path class="st2" d="M86.2,19.8l0,15.7 M158.1,36.6H16.4"/>
	<g>
		<path class="st0" d="M404.6,37.2c0,0.1-0.2,1.3-0.6,1.9c-0.2,0.4-0.6,1-1.1,1c-0.4,0-0.8-0.2-0.8-0.7c0-0.4,0.3-0.6,0.5-0.6
			c0.2,0,0.4,0.1,0.4,0.3c0,0.1-0.1,0.5-0.5,0.5c0.2,0.2,0.4,0.2,0.5,0.2c0.5,0,0.7-0.9,0.9-1.9l0.7-3.9h-0.7c-0.2,0-0.3,0-0.3-0.1
			c0-0.2,0.1-0.2,0.3-0.2h0.7c0.2-1.3,0.3-1.4,0.3-1.6c0.3-1,0.9-1.2,1.3-1.2c0.4,0,0.9,0.2,0.9,0.7c0,0.4-0.3,0.6-0.5,0.6
			c-0.2,0-0.4-0.1-0.4-0.3c0-0.1,0.1-0.5,0.5-0.5c-0.2-0.2-0.4-0.2-0.5-0.2c-0.2,0-0.4,0.1-0.5,0.3c-0.1,0.1-0.2,0.8-0.2,1l-0.2,1.1
			h0.8c0.2,0,0.3,0,0.3,0.1c0,0.2-0.1,0.2-0.3,0.2h-0.9L404.6,37.2z"/>
	</g>
	<g>
		<path class="st0" d="M411.9,40.5v-10h1.4V31h-1v9.2h1v0.4H411.9z"/>
		<path class="st0" d="M419.6,37.3c0,0.4,0,0.5,0.8,0.5h0.2V38c-0.3,0-1.1,0-1.5,0c-0.4,0-1.1,0-1.5,0v-0.3h0.2
			c0.8,0,0.8-0.1,0.8-0.5v-2.6h-3v2.6c0,0.4,0,0.5,0.8,0.5h0.2V38c-0.3,0-1.1,0-1.5,0c-0.4,0-1.1,0-1.5,0v-0.3h0.2
			c0.8,0,0.8-0.1,0.8-0.5V32c0-0.4,0-0.5-0.8-0.5h-0.2v-0.3c0.3,0,1.1,0,1.5,0c0.4,0,1.1,0,1.5,0v0.3h-0.2c-0.8,0-0.8,0.1-0.8,0.5
			v2.3h3V32c0-0.4,0-0.5-0.8-0.5h-0.2v-0.3c0.3,0,1.1,0,1.5,0c0.4,0,1.1,0,1.5,0v0.3h-0.2c-0.8,0-0.8,0.1-0.8,0.5V37.3z"/>
		<path class="st0" d="M422.1,37.8h1.2c1.2,0,1.4-0.4,1.5-1.6h0.2l-0.2,1.9h-3.3c-0.2,0-0.3,0-0.3-0.1c0,0,0-0.1,0.1-0.2l2.8-3.8
			H423c-1.1,0-1.3,0.4-1.3,1.4h-0.2l0.1-1.6h3.2c0.2,0,0.3,0,0.3,0.1c0,0,0,0.1-0.1,0.2L422.1,37.8z"/>
		<path class="st0" d="M427,40.5h-1.4v-0.4h1V31h-1v-0.4h1.4V40.5z"/>
	</g>
	<polyline points="322.3,11.7 320,7.2 317.8,11.7 320,10.6 	"/>
	<line class="st1" x1="320" y1="39.1" x2="320" y2="10.6"/>
	<polyline points="389.9,37.8 394.4,35.5 389.9,33.3 391,35.5 	"/>
	<line class="st1" x1="245.6" y1="35.5" x2="391" y2="35.5"/>
	<path class="st2" d="M390.9,14.3H249.2 M157,57.8H15.3"/>
	<polyline points="389.9,81.4 394.4,79.1 389.9,76.8 391,79.1 	"/>
	<line class="st1" x1="245.6" y1="79.1" x2="391" y2="79.1"/>
	<line class="st2" x1="390.9" y1="79.1" x2="249.2" y2="79.1"/>
	<g>
		<path class="st0" d="M404.6,80.8c0,0.1-0.2,1.3-0.6,1.9c-0.2,0.4-0.6,1-1.1,1c-0.4,0-0.8-0.2-0.8-0.7c0-0.4,0.3-0.6,0.5-0.6
			c0.2,0,0.4,0.1,0.4,0.3c0,0.1-0.1,0.5-0.5,0.5c0.2,0.2,0.4,0.2,0.5,0.2c0.5,0,0.7-0.9,0.9-1.9l0.7-3.9h-0.7c-0.2,0-0.3,0-0.3-0.1
			c0-0.2,0.1-0.2,0.3-0.2h0.7c0.2-1.3,0.3-1.4,0.3-1.6c0.3-1,0.9-1.2,1.3-1.2c0.4,0,0.9,0.2,0.9,0.7c0,0.4-0.3,0.6-0.5,0.6
			c-0.2,0-0.4-0.1-0.4-0.3c0-0.1,0.1-0.5,0.5-0.5c-0.2-0.2-0.4-0.2-0.5-0.2c-0.2,0-0.4,0.1-0.5,0.3c-0.1,0.1-0.2,0.8-0.2,1l-0.2,1.1
			h0.8c0.2,0,0.3,0,0.3,0.1c0,0.2-0.1,0.2-0.3,0.2h-0.9L404.6,80.8z"/>
	</g>
	<g>
		<path class="st0" d="M411.9,84.1v-10h1.4v0.4h-1v9.2h1v0.4H411.9z"/>
		<path class="st0" d="M419.6,80.8c0,0.4,0,0.5,0.8,0.5h0.2v0.3c-0.3,0-1.1,0-1.5,0c-0.4,0-1.1,0-1.5,0v-0.3h0.2
			c0.8,0,0.8-0.1,0.8-0.5v-2.6h-3v2.6c0,0.4,0,0.5,0.8,0.5h0.2v0.3c-0.3,0-1.1,0-1.5,0c-0.4,0-1.1,0-1.5,0v-0.3h0.2
			c0.8,0,0.8-0.1,0.8-0.5v-5.3c0-0.4,0-0.5-0.8-0.5h-0.2v-0.3c0.3,0,1.1,0,1.5,0c0.4,0,1.1,0,1.5,0v0.3h-0.2c-0.8,0-0.8,0.1-0.8,0.5
			v2.3h3v-2.3c0-0.4,0-0.5-0.8-0.5h-0.2v-0.3c0.3,0,1.1,0,1.5,0c0.4,0,1.1,0,1.5,0v0.3h-0.2c-0.8,0-0.8,0.1-0.8,0.5V80.8z"/>
		<path class="st0" d="M422.1,81.4h1.2c1.2,0,1.4-0.4,1.5-1.6h0.2l-0.2,1.9h-3.3c-0.2,0-0.3,0-0.3-0.1c0,0,0-0.1,0.1-0.2l2.8-3.8
			H423c-1.1,0-1.3,0.4-1.3,1.4h-0.2l0.1-1.6h3.2c0.2,0,0.3,0,0.3,0.1c0,0,0,0.1-0.1,0.2L422.1,81.4z"/>
		<path class="st0" d="M427,84.1h-1.4v-0.4h1v-9.2h-1v-0.4h1.4V84.1z"/>
	</g>
	<polyline points="322.3,55.3 320,50.7 317.8,55.3 320,54.1 	"/>
	<line class="st1" x1="320" y1="82.6" x2="320" y2="54.1"/>
	<polyline points="323.7,65.2 320,57.8 316.3,65.2 320,63.4 	"/>
	<line class="st2" x1="320" y1="63.4" x2="320" y2="79.1"/>
	<g>
		<path class="st0" d="M169,80.6c0,0.2-0.1,0.2-0.1,0.5c0,0.3,0.1,0.5,0.3,0.5c0.3,0,0.9-0.2,1.3-1.3c0-0.1,0.1-0.1,0.1-0.1
			c0,0,0.1,0,0.1,0.1c0,0.1-0.6,1.5-1.6,1.5c-0.5,0-0.9-0.4-0.9-0.9c0-0.2,0-0.3,0.8-3.2h-0.9c-0.2,0-0.3,0-0.3-0.1
			c0-0.2,0.1-0.2,0.3-0.2h0.9l0.4-1.6c0.1-0.3,0.4-0.4,0.4-0.4c0.2,0,0.3,0.1,0.3,0.3c0,0.1,0,0.3-0.4,1.7h0.9c0.2,0,0.3,0,0.3,0.1
			c0,0.2-0.1,0.2-0.3,0.2h-0.9L169,80.6z"/>
	</g>
	<g>
		<path class="st0" d="M175.7,84.1v-10h1.4v0.4h-1v9.2h1v0.4H175.7z"/>
		<path class="st0" d="M178,79.2c-0.3-0.2-0.4-0.5-0.4-0.8c0-0.6,0.4-1.2,1.6-1.2c0.1,0,0.6,0,0.9,0.3c0,0,0.1-0.1,0.2-0.2
			c0.1-0.1,0.1-0.1,0.2-0.1c0.1,0,0.1,0.1,0.1,0.2v1c0,0.2,0,0.2-0.1,0.2c0,0-0.1,0-0.1-0.1c0-0.3-0.1-1.2-1.2-1.2
			c-0.9,0-1.1,0.4-1.1,0.8c0,0.6,0.7,0.7,1.2,0.8c0.4,0.1,0.8,0.2,1.1,0.5c0.1,0.1,0.4,0.4,0.4,0.9c0,0.7-0.5,1.4-1.6,1.4
			c-0.2,0-0.7,0-1.1-0.4c-0.2,0.2-0.2,0.2-0.2,0.2c-0.2,0.2-0.2,0.2-0.2,0.2c-0.1,0-0.1-0.1-0.1-0.2v-1.3c0-0.2,0-0.2,0.1-0.2
			c0.1,0,0.1,0,0.1,0.2c0.2,0.8,0.5,1.4,1.4,1.4c0.8,0,1.1-0.4,1.1-0.9c0-0.7-0.8-0.9-1-0.9C178.6,79.5,178.4,79.5,178,79.2z"/>
		<path class="st0" d="M182.6,80.8c0.2,0.4,0.6,0.7,1.1,0.7c0.1,0,1,0,1.3-1c0-0.1,0-0.1,0.1-0.1c0,0,0.1,0,0.1,0.1
			c0,0.2-0.4,1.3-1.7,1.3c-1.1,0-2.2-1-2.2-2.3c0-1.2,0.9-2.3,2.1-2.3c1.2,0,1.8,1,1.8,2c0,0.2,0,0.2-0.2,0.2h-2.8
			C182.3,79.7,182.3,80.3,182.6,80.8z M184.7,79.1c0-0.4-0.1-1.7-1.1-1.7c-0.3,0-1.2,0.2-1.2,1.7H184.7z"/>
		<path class="st0" d="M188.2,81.5c0.4,0,1-0.1,1.3-1c0-0.1,0-0.1,0.1-0.1c0,0,0.1,0,0.1,0.1s-0.3,1.3-1.7,1.3c-1.2,0-2.1-1-2.1-2.3
			c0-1.2,0.9-2.3,2.2-2.3c0.8,0,1.5,0.4,1.5,1.1c0,0.3-0.2,0.5-0.5,0.5c-0.3,0-0.5-0.2-0.5-0.5c0-0.1,0.1-0.4,0.5-0.5
			c-0.3-0.4-1-0.4-1.1-0.4c-0.5,0-1.3,0.4-1.3,2C186.8,81,187.7,81.5,188.2,81.5z"/>
		<path class="st0" d="M191.7,84.1h-1.4v-0.4h1v-9.2h-1v-0.4h1.4V84.1z"/>
	</g>
	<polyline points="88.4,55.3 86.2,50.7 83.9,55.3 86.2,54.1 	"/>
	<line class="st1" x1="86.2" y1="82.6" x2="86.2" y2="54.1"/>
	<polyline points="156,81.4 160.6,79.1 156,76.8 157.2,79.1 	"/>
	<line class="st1" x1="11.8" y1="79.1" x2="157.2" y2="79.1"/>
	<g>
		<path class="st0" d="M169,116c0,0.2-0.1,0.2-0.1,0.5c0,0.3,0.1,0.5,0.3,0.5c0.3,0,0.9-0.2,1.3-1.3c0-0.1,0.1-0.1,0.1-0.1
			c0,0,0.1,0,0.1,0.1c0,0.1-0.6,1.5-1.6,1.5c-0.5,0-0.9-0.4-0.9-0.9c0-0.2,0-0.3,0.8-3.2h-0.9c-0.2,0-0.3,0-0.3-0.1
			c0-0.2,0.1-0.2,0.3-0.2h0.9l0.4-1.6c0.1-0.3,0.4-0.4,0.4-0.4c0.2,0,0.3,0.1,0.3,0.3c0,0.1,0,0.3-0.4,1.7h0.9c0.2,0,0.3,0,0.3,0.1
			c0,0.2-0.1,0.2-0.3,0.2h-0.9L169,116z"/>
	</g>
	<g>
		<path class="st0" d="M175.7,119.5v-10h1.4v0.4h-1v9.2h1v0.4H175.7z"/>
		<path class="st0" d="M178,114.6c-0.3-0.2-0.4-0.5-0.4-0.8c0-0.6,0.4-1.2,1.6-1.2c0.1,0,0.6,0,0.9,0.3c0,0,0.1-0.1,0.2-0.2
			c0.1-0.1,0.1-0.1,0.2-0.1c0.1,0,0.1,0.1,0.1,0.2v1c0,0.2,0,0.2-0.1,0.2c0,0-0.1,0-0.1-0.1c0-0.3-0.1-1.2-1.2-1.2
			c-0.9,0-1.1,0.4-1.1,0.8c0,0.6,0.7,0.7,1.2,0.8c0.4,0.1,0.8,0.2,1.1,0.5c0.1,0.1,0.4,0.4,0.4,0.9c0,0.7-0.5,1.4-1.6,1.4
			c-0.2,0-0.7,0-1.1-0.4c-0.2,0.2-0.2,0.2-0.2,0.2c-0.2,0.2-0.2,0.2-0.2,0.2c-0.1,0-0.1-0.1-0.1-0.2v-1.3c0-0.2,0-0.2,0.1-0.2
			c0.1,0,0.1,0,0.1,0.2c0.2,0.8,0.5,1.4,1.4,1.4c0.8,0,1.1-0.4,1.1-0.9c0-0.7-0.8-0.9-1-0.9C178.6,115,178.4,114.9,178,114.6z"/>
		<path class="st0" d="M182.6,116.2c0.2,0.4,0.6,0.7,1.1,0.7c0.1,0,1,0,1.3-1c0-0.1,0-0.1,0.1-0.1c0,0,0.1,0,0.1,0.1
			c0,0.2-0.4,1.3-1.7,1.3c-1.1,0-2.2-1-2.2-2.3c0-1.2,0.9-2.3,2.1-2.3c1.2,0,1.8,1,1.8,2c0,0.2,0,0.2-0.2,0.2h-2.8
			C182.3,115.1,182.3,115.7,182.6,116.2z M184.7,114.5c0-0.4-0.1-1.7-1.1-1.7c-0.3,0-1.2,0.2-1.2,1.7H184.7z"/>
		<path class="st0" d="M188.2,116.9c0.4,0,1-0.1,1.3-1c0-0.1,0-0.1,0.1-0.1c0,0,0.1,0,0.1,0.1s-0.3,1.3-1.7,1.3
			c-1.2,0-2.1-1-2.1-2.3c0-1.2,0.9-2.3,2.2-2.3c0.8,0,1.5,0.4,1.5,1.1c0,0.3-0.2,0.5-0.5,0.5c-0.3,0-0.5-0.2-0.5-0.5
			c0-0.1,0.1-0.4,0.5-0.5c-0.3-0.4-1-0.4-1.1-0.4c-0.5,0-1.3,0.4-1.3,2C186.8,116.5,187.7,116.9,188.2,116.9z"/>
		<path class="st0" d="M191.7,119.5h-1.4v-0.4h1V110h-1v-0.4h1.4V119.5z"/>
	</g>
	<polyline points="88.4,90.7 86.2,86.2 83.9,90.7 86.2,89.6 	"/>
	<line class="st1" x1="86.2" y1="118.1" x2="86.2" y2="89.6"/>
	<polyline points="156,116.8 160.6,114.5 156,112.3 157.2,114.5 	"/>
	<line class="st1" x1="11.8" y1="114.5" x2="157.2" y2="114.5"/>
	<path class="st2" d="M107.4,93.3H64.9 M107.4,114.5V93.3 M64.9,114.5V93.3 M153.5,114.5h-46.1 M64.9,114.5H18.9"/>
	<g>
		<path class="st0" d="M404.6,109.1c0,0.1-0.2,1.3-0.6,1.9c-0.2,0.4-0.6,1-1.1,1c-0.4,0-0.8-0.2-0.8-0.7c0-0.4,0.3-0.6,0.5-0.6
			c0.2,0,0.4,0.1,0.4,0.3c0,0.1-0.1,0.5-0.5,0.5c0.2,0.2,0.4,0.2,0.5,0.2c0.5,0,0.7-0.9,0.9-1.9l0.7-3.9h-0.7c-0.2,0-0.3,0-0.3-0.1
			c0-0.2,0.1-0.2,0.3-0.2h0.7c0.2-1.3,0.3-1.4,0.3-1.6c0.3-1,0.9-1.2,1.3-1.2c0.4,0,0.9,0.2,0.9,0.7c0,0.4-0.3,0.6-0.5,0.6
			c-0.2,0-0.4-0.1-0.4-0.3c0-0.1,0.1-0.5,0.5-0.5c-0.2-0.2-0.4-0.2-0.5-0.2c-0.2,0-0.4,0.1-0.5,0.3c-0.1,0.1-0.2,0.8-0.2,1l-0.2,1.1
			h0.8c0.2,0,0.3,0,0.3,0.1c0,0.2-0.1,0.2-0.3,0.2h-0.9L404.6,109.1z"/>
	</g>
	<g>
		<path class="st0" d="M411.9,112.4v-10h1.4v0.4h-1v9.2h1v0.4H411.9z"/>
		<path class="st0" d="M419.6,109.2c0,0.4,0,0.5,0.8,0.5h0.2v0.3c-0.3,0-1.1,0-1.5,0c-0.4,0-1.1,0-1.5,0v-0.3h0.2
			c0.8,0,0.8-0.1,0.8-0.5v-2.6h-3v2.6c0,0.4,0,0.5,0.8,0.5h0.2v0.3c-0.3,0-1.1,0-1.5,0c-0.4,0-1.1,0-1.5,0v-0.3h0.2
			c0.8,0,0.8-0.1,0.8-0.5v-5.3c0-0.4,0-0.5-0.8-0.5h-0.2v-0.3c0.3,0,1.1,0,1.5,0c0.4,0,1.1,0,1.5,0v0.3h-0.2c-0.8,0-0.8,0.1-0.8,0.5
			v2.3h3v-2.3c0-0.4,0-0.5-0.8-0.5h-0.2v-0.3c0.3,0,1.1,0,1.5,0c0.4,0,1.1,0,1.5,0v0.3h-0.2c-0.8,0-0.8,0.1-0.8,0.5V109.2z"/>
		<path class="st0" d="M422.1,109.7h1.2c1.2,0,1.4-0.4,1.5-1.6h0.2l-0.2,1.9h-3.3c-0.2,0-0.3,0-0.3-0.1c0,0,0-0.1,0.1-0.2l2.8-3.8
			H423c-1.1,0-1.3,0.4-1.3,1.4h-0.2l0.1-1.6h3.2c0.2,0,0.3,0,0.3,0.1c0,0,0,0.1-0.1,0.2L422.1,109.7z"/>
		<path class="st0" d="M427,112.4h-1.4V112h1v-9.2h-1v-0.4h1.4V112.4z"/>
	</g>
	<polyline points="322.3,90.7 320,86.2 317.8,90.7 320,89.6 	"/>
	<line class="st1" x1="320" y1="121.6" x2="320" y2="89.6"/>
	<polyline points="386.4,109.7 390.9,107.4 386.4,105.2 387.5,107.4 	"/>
	<path class="st1" d="M242.1,107.4h145.4 M362.5,114.5h3.5 M277.5,114.5h3.5"/>
	<path class="st2" d="M249.2,103.9c0,0,9.4,2,14.2,3.5c6.3,2,11.2,7.8,17.7,7.1c4.3-0.5,7.2-4.3,10.6-7.1c2.7-2.2,4.3-5.1,7.1-7.1
		c2.2-1.6,4.5-2.6,7.1-3.5c4.7-1.7,9.1-3.5,14.2-3.5s9.4,1.8,14.2,3.5c2.6,0.9,4.9,1.9,7.1,3.5c2.8,2,4.2,5.2,7.1,7.1
		c5.5,3.6,11.2,7.8,17.7,7.1c4.3-0.5,6.6-5.3,10.6-7.1c4.6-2,14.2-3.5,14.2-3.5l0,0"/>
	<path class="st1" d="M128.7,157h3.5 M43.7,157h3.5"/>
	<path class="st2" d="M15.3,146.4c0,0,9.4,2,14.2,3.5c6.3,2,11.2,7.8,17.7,7.1c4.3-0.5,7.2-4.3,10.6-7.1c2.7-2.2,4.3-5.1,7.1-7.1
		c2.2-1.6,4.5-2.6,7.1-3.5c4.7-1.7,9.1-3.5,14.2-3.5c5,0,9.4,1.8,14.2,3.5c2.6,0.9,4.9,1.9,7.1,3.5c2.8,2,4.2,5.2,7.1,7.1
		c5.5,3.6,11.2,7.8,17.7,7.1c4.3-0.5,6.6-5.3,10.6-7.1c4.6-2,14.2-3.5,14.2-3.5l0,0 M341.3,142.9h-42.5 M341.3,164.1v-21.3
		 M298.8,164.1v-21.3 M387.4,164.1h-46.1 M298.8,164.1h-46.1"/>
	<g>
		<path class="st0" d="M169,151.4c0,0.2-0.1,0.2-0.1,0.5c0,0.3,0.1,0.5,0.3,0.5c0.3,0,0.9-0.2,1.3-1.3c0-0.1,0.1-0.1,0.1-0.1
			c0,0,0.1,0,0.1,0.1c0,0.1-0.6,1.5-1.6,1.5c-0.5,0-0.9-0.4-0.9-0.9c0-0.2,0-0.3,0.8-3.2h-0.9c-0.2,0-0.3,0-0.3-0.1
			c0-0.2,0.1-0.2,0.3-0.2h0.9l0.4-1.6c0.1-0.3,0.4-0.4,0.4-0.4c0.2,0,0.3,0.1,0.3,0.3c0,0.1,0,0.3-0.4,1.7h0.9c0.2,0,0.3,0,0.3,0.1
			c0,0.2-0.1,0.2-0.3,0.2h-0.9L169,151.4z"/>
	</g>
	<g>
		<path class="st0" d="M175.7,155v-10h1.4v0.4h-1v9.2h1v0.4H175.7z"/>
		<path class="st0" d="M178,150.1c-0.3-0.2-0.4-0.5-0.4-0.8c0-0.6,0.4-1.2,1.6-1.2c0.1,0,0.6,0,0.9,0.3c0,0,0.1-0.1,0.2-0.2
			c0.1-0.1,0.1-0.1,0.2-0.1c0.1,0,0.1,0.1,0.1,0.2v1c0,0.2,0,0.2-0.1,0.2c0,0-0.1,0-0.1-0.1c0-0.3-0.1-1.2-1.2-1.2
			c-0.9,0-1.1,0.4-1.1,0.8c0,0.6,0.7,0.7,1.2,0.8c0.4,0.1,0.8,0.2,1.1,0.5c0.1,0.1,0.4,0.4,0.4,0.9c0,0.7-0.5,1.4-1.6,1.4
			c-0.2,0-0.7,0-1.1-0.4c-0.2,0.2-0.2,0.2-0.2,0.2c-0.2,0.2-0.2,0.2-0.2,0.2c-0.1,0-0.1-0.1-0.1-0.2V151c0-0.2,0-0.3,0.1-0.3
			c0.1,0,0.1,0,0.1,0.2c0.2,0.8,0.5,1.4,1.4,1.4c0.8,0,1.1-0.4,1.1-0.9c0-0.7-0.8-0.9-1-0.9C178.6,150.4,178.4,150.3,178,150.1z"/>
		<path class="st0" d="M182.6,151.7c0.2,0.4,0.6,0.7,1.1,0.7c0.1,0,1,0,1.3-1c0-0.1,0-0.1,0.1-0.1c0,0,0.1,0,0.1,0.1
			c0,0.2-0.4,1.3-1.7,1.3c-1.1,0-2.2-1-2.2-2.3c0-1.2,0.9-2.3,2.1-2.3c1.2,0,1.8,1,1.8,2c0,0.2,0,0.2-0.2,0.2h-2.8
			C182.3,150.5,182.3,151.2,182.6,151.7z M184.7,150c0-0.4-0.1-1.7-1.1-1.7c-0.3,0-1.2,0.3-1.2,1.7H184.7z"/>
		<path class="st0" d="M188.2,152.3c0.4,0,1-0.1,1.3-1c0-0.1,0-0.1,0.1-0.1c0,0,0.1,0,0.1,0.1s-0.3,1.3-1.7,1.3
			c-1.2,0-2.1-1-2.1-2.3c0-1.2,0.9-2.3,2.2-2.3c0.8,0,1.5,0.4,1.5,1.1c0,0.3-0.2,0.5-0.5,0.5c-0.3,0-0.5-0.2-0.5-0.5
			c0-0.1,0.1-0.4,0.5-0.5c-0.3-0.4-1-0.4-1.1-0.4c-0.5,0-1.3,0.4-1.3,2C186.8,151.9,187.7,152.3,188.2,152.3z"/>
		<path class="st0" d="M191.7,155h-1.4v-0.4h1v-9.2h-1V145h1.4V155z"/>
	</g>
	<polyline points="88.4,133.2 86.2,128.7 83.9,133.2 86.2,132.1 	"/>
	<line class="st1" x1="86.2" y1="164.1" x2="86.2" y2="132.1"/>
	<polyline points="152.5,152.2 157,150 152.5,147.7 153.6,150 	"/>
	<line class="st1" x1="8.2" y1="150" x2="153.6" y2="150"/>
	<g>
		<path class="st0" d="M169,257.7c0,0.2-0.1,0.2-0.1,0.5c0,0.3,0.1,0.5,0.3,0.5c0.3,0,0.9-0.2,1.3-1.3c0-0.1,0.1-0.1,0.1-0.1
			c0,0,0.1,0,0.1,0.1c0,0.1-0.6,1.5-1.6,1.5c-0.5,0-0.9-0.4-0.9-0.9c0-0.2,0-0.3,0.8-3.2h-0.9c-0.2,0-0.3,0-0.3-0.1
			c0-0.2,0.1-0.2,0.3-0.2h0.9l0.4-1.6c0.1-0.3,0.4-0.4,0.4-0.4c0.2,0,0.3,0.1,0.3,0.3c0,0.1,0,0.3-0.4,1.7h0.9c0.2,0,0.3,0,0.3,0.1
			c0,0.2-0.1,0.2-0.3,0.2h-0.9L169,257.7z"/>
	</g>
	<g>
		<path class="st0" d="M175.7,261.3v-10h1.4v0.4h-1v9.2h1v0.4H175.7z"/>
		<path class="st0" d="M178,256.4c-0.3-0.2-0.4-0.5-0.4-0.8c0-0.6,0.4-1.2,1.6-1.2c0.1,0,0.6,0,0.9,0.3c0,0,0.1-0.1,0.2-0.2
			c0.1-0.1,0.1-0.1,0.2-0.1c0.1,0,0.1,0.1,0.1,0.2v1c0,0.2,0,0.2-0.1,0.2c0,0-0.1,0-0.1-0.1c0-0.3-0.1-1.2-1.2-1.2
			c-0.9,0-1.1,0.4-1.1,0.8c0,0.6,0.7,0.7,1.2,0.8c0.4,0.1,0.8,0.2,1.1,0.5c0.1,0.1,0.4,0.4,0.4,0.9c0,0.7-0.5,1.4-1.6,1.4
			c-0.2,0-0.7,0-1.1-0.4c-0.2,0.2-0.2,0.2-0.2,0.2c-0.2,0.2-0.2,0.2-0.2,0.2c-0.1,0-0.1-0.1-0.1-0.2v-1.3c0-0.2,0-0.3,0.1-0.3
			c0.1,0,0.1,0,0.1,0.2c0.2,0.8,0.5,1.4,1.4,1.4c0.8,0,1.1-0.4,1.1-0.9c0-0.7-0.8-0.9-1-0.9C178.6,256.7,178.4,256.6,178,256.4z"/>
		<path class="st0" d="M182.6,258c0.2,0.4,0.6,0.7,1.1,0.7c0.1,0,1,0,1.3-1c0-0.1,0-0.1,0.1-0.1c0,0,0.1,0,0.1,0.1
			c0,0.2-0.4,1.3-1.7,1.3c-1.1,0-2.2-1-2.2-2.3c0-1.2,0.9-2.3,2.1-2.3c1.2,0,1.8,1,1.8,2c0,0.2,0,0.2-0.2,0.2h-2.8
			C182.3,256.8,182.3,257.5,182.6,258z M184.7,256.3c0-0.4-0.1-1.7-1.1-1.7c-0.3,0-1.2,0.3-1.2,1.7H184.7z"/>
		<path class="st0" d="M188.2,258.6c0.4,0,1-0.1,1.3-1c0-0.1,0-0.1,0.1-0.1c0,0,0.1,0,0.1,0.1s-0.3,1.3-1.7,1.3
			c-1.2,0-2.1-1-2.1-2.3c0-1.2,0.9-2.3,2.2-2.3c0.8,0,1.5,0.4,1.5,1.1c0,0.3-0.2,0.5-0.5,0.5c-0.3,0-0.5-0.2-0.5-0.5
			c0-0.1,0.1-0.4,0.5-0.5c-0.3-0.4-1-0.4-1.1-0.4c-0.5,0-1.3,0.4-1.3,2C186.8,258.2,187.7,258.6,188.2,258.6z"/>
		<path class="st0" d="M191.7,261.3h-1.4v-0.4h1v-9.2h-1v-0.4h1.4V261.3z"/>
	</g>
	<polyline points="88.4,228.9 86.2,224.4 83.9,228.9 86.2,227.8 	"/>
	<line class="st1" x1="86.2" y1="259.8" x2="86.2" y2="227.8"/>
	<polyline points="152.5,258.5 157,256.3 152.5,254 153.6,256.3 	"/>
	<line class="st1" x1="8.2" y1="256.3" x2="153.6" y2="256.3"/>
	<g>
		<path class="st0" d="M404.6,165.8c0,0.1-0.2,1.3-0.6,1.9c-0.2,0.4-0.6,1-1.1,1c-0.4,0-0.8-0.2-0.8-0.7c0-0.4,0.3-0.6,0.5-0.6
			c0.2,0,0.4,0.1,0.4,0.3c0,0.1-0.1,0.5-0.5,0.5c0.2,0.2,0.4,0.2,0.5,0.2c0.5,0,0.7-0.9,0.9-1.9l0.7-3.9h-0.7c-0.2,0-0.3,0-0.3-0.1
			c0-0.2,0.1-0.2,0.3-0.2h0.7c0.2-1.3,0.3-1.4,0.3-1.6c0.3-1,0.9-1.2,1.3-1.2c0.4,0,0.9,0.2,0.9,0.7c0,0.4-0.3,0.6-0.5,0.6
			c-0.2,0-0.4-0.1-0.4-0.3c0-0.1,0.1-0.5,0.5-0.5c-0.2-0.2-0.4-0.2-0.5-0.2c-0.2,0-0.4,0.1-0.5,0.3c-0.1,0.1-0.2,0.8-0.2,1l-0.2,1.1
			h0.8c0.2,0,0.3,0,0.3,0.1c0,0.2-0.1,0.2-0.3,0.2h-0.9L404.6,165.8z"/>
	</g>
	<g>
		<path class="st0" d="M411.9,169.1v-10h1.4v0.4h-1v9.2h1v0.4H411.9z"/>
		<path class="st0" d="M419.6,165.9c0,0.4,0,0.5,0.8,0.5h0.2v0.3c-0.3,0-1.1,0-1.5,0c-0.4,0-1.1,0-1.5,0v-0.3h0.2
			c0.8,0,0.8-0.1,0.8-0.5v-2.6h-3v2.6c0,0.4,0,0.5,0.8,0.5h0.2v0.3c-0.3,0-1.1,0-1.5,0c-0.4,0-1.1,0-1.5,0v-0.3h0.2
			c0.8,0,0.8-0.1,0.8-0.5v-5.3c0-0.4,0-0.5-0.8-0.5h-0.2v-0.3c0.3,0,1.1,0,1.5,0c0.4,0,1.1,0,1.5,0v0.3h-0.2c-0.8,0-0.8,0.1-0.8,0.5
			v2.3h3v-2.3c0-0.4,0-0.5-0.8-0.5h-0.2v-0.3c0.3,0,1.1,0,1.5,0c0.4,0,1.1,0,1.5,0v0.3h-0.2c-0.8,0-0.8,0.1-0.8,0.5V165.9z"/>
		<path class="st0" d="M422.1,166.4h1.2c1.2,0,1.4-0.4,1.5-1.6h0.2l-0.2,1.9h-3.3c-0.2,0-0.3,0-0.3-0.1c0,0,0-0.1,0.1-0.2l2.8-3.8
			H423c-1.1,0-1.3,0.4-1.3,1.4h-0.2l0.1-1.6h3.2c0.2,0,0.3,0,0.3,0.1c0,0,0,0.1-0.1,0.2L422.1,166.4z"/>
		<path class="st0" d="M427,169.1h-1.4v-0.4h1v-9.2h-1v-0.4h1.4V169.1z"/>
	</g>
	<polyline points="322.3,140.3 320,135.8 317.8,140.3 320,139.2 	"/>
	<line class="st1" x1="320" y1="167.7" x2="320" y2="139.2"/>
	<polyline points="389.9,166.4 394.4,164.1 389.9,161.9 391,164.1 	"/>
	<line class="st1" x1="245.6" y1="164.1" x2="391" y2="164.1"/>
	<g>
		<path class="st0" d="M404.6,257.9c0,0.1-0.2,1.3-0.6,1.9c-0.2,0.4-0.6,1-1.1,1c-0.4,0-0.8-0.2-0.8-0.7c0-0.4,0.3-0.6,0.5-0.6
			c0.2,0,0.4,0.1,0.4,0.3c0,0.1-0.1,0.5-0.5,0.5c0.2,0.2,0.4,0.2,0.5,0.2c0.5,0,0.7-0.9,0.9-1.9l0.7-3.9h-0.7c-0.2,0-0.3,0-0.3-0.1
			c0-0.2,0.1-0.2,0.3-0.2h0.7c0.2-1.3,0.3-1.4,0.3-1.6c0.3-1,0.9-1.2,1.3-1.2c0.4,0,0.9,0.2,0.9,0.7c0,0.4-0.3,0.6-0.5,0.6
			c-0.2,0-0.4-0.1-0.4-0.3c0-0.1,0.1-0.5,0.5-0.5c-0.2-0.2-0.4-0.2-0.5-0.2c-0.2,0-0.4,0.1-0.5,0.3c-0.1,0.1-0.2,0.8-0.2,1l-0.2,1.1
			h0.8c0.2,0,0.3,0,0.3,0.1c0,0.2-0.1,0.2-0.3,0.2h-0.9L404.6,257.9z"/>
	</g>
	<g>
		<path class="st0" d="M411.9,261.3v-10h1.4v0.4h-1v9.2h1v0.4H411.9z"/>
		<path class="st0" d="M419.6,258c0,0.4,0,0.5,0.8,0.5h0.2v0.3c-0.3,0-1.1,0-1.5,0c-0.4,0-1.1,0-1.5,0v-0.3h0.2
			c0.8,0,0.8-0.1,0.8-0.5v-2.6h-3v2.6c0,0.4,0,0.5,0.8,0.5h0.2v0.3c-0.3,0-1.1,0-1.5,0c-0.4,0-1.1,0-1.5,0v-0.3h0.2
			c0.8,0,0.8-0.1,0.8-0.5v-5.3c0-0.4,0-0.5-0.8-0.5h-0.2V252c0.3,0,1.1,0,1.5,0c0.4,0,1.1,0,1.5,0v0.3h-0.2c-0.8,0-0.8,0.1-0.8,0.5
			v2.3h3v-2.3c0-0.4,0-0.5-0.8-0.5h-0.2V252c0.3,0,1.1,0,1.5,0c0.4,0,1.1,0,1.5,0v0.3h-0.2c-0.8,0-0.8,0.1-0.8,0.5V258z"/>
		<path class="st0" d="M422.1,258.5h1.2c1.2,0,1.4-0.4,1.5-1.6h0.2l-0.2,1.9h-3.3c-0.2,0-0.3,0-0.3-0.1c0,0,0-0.1,0.1-0.2l2.8-3.8
			H423c-1.1,0-1.3,0.4-1.3,1.4h-0.2l0.1-1.6h3.2c0.2,0,0.3,0,0.3,0.1c0,0,0,0.1-0.1,0.2L422.1,258.5z"/>
		<path class="st0" d="M427,261.3h-1.4v-0.4h1v-9.2h-1v-0.4h1.4V261.3z"/>
	</g>
	<polyline points="322.3,232.4 320,227.9 317.8,232.4 320,231.3 	"/>
	<line class="st1" x1="320" y1="259.8" x2="320" y2="231.3"/>
	<polyline points="389.9,258.5 394.4,256.3 389.9,254 391,256.3 	"/>
	<line class="st1" x1="245.6" y1="256.3" x2="391" y2="256.3"/>
	<g>
		<path class="st0" d="M404.6,215.4c0,0.1-0.2,1.3-0.6,1.9c-0.2,0.4-0.6,1-1.1,1c-0.4,0-0.8-0.2-0.8-0.7c0-0.4,0.3-0.6,0.5-0.6
			c0.2,0,0.4,0.1,0.4,0.3c0,0.1-0.1,0.5-0.5,0.5c0.2,0.2,0.4,0.2,0.5,0.2c0.5,0,0.7-0.9,0.9-1.9l0.7-3.9h-0.7c-0.2,0-0.3,0-0.3-0.1
			c0-0.2,0.1-0.2,0.3-0.2h0.7c0.2-1.3,0.3-1.4,0.3-1.6c0.3-1,0.9-1.2,1.3-1.2c0.4,0,0.9,0.2,0.9,0.7c0,0.4-0.3,0.6-0.5,0.6
			c-0.2,0-0.4-0.1-0.4-0.3c0-0.1,0.1-0.5,0.5-0.5c-0.2-0.2-0.4-0.2-0.5-0.2c-0.2,0-0.4,0.1-0.5,0.3c-0.1,0.1-0.2,0.8-0.2,1l-0.2,1.1
			h0.8c0.2,0,0.3,0,0.3,0.1c0,0.2-0.1,0.2-0.3,0.2h-0.9L404.6,215.4z"/>
	</g>
	<g>
		<path class="st0" d="M411.9,218.7v-10h1.4v0.4h-1v9.2h1v0.4H411.9z"/>
		<path class="st0" d="M419.6,215.5c0,0.4,0,0.5,0.8,0.5h0.2v0.3c-0.3,0-1.1,0-1.5,0c-0.4,0-1.1,0-1.5,0v-0.3h0.2
			c0.8,0,0.8-0.1,0.8-0.5v-2.6h-3v2.6c0,0.4,0,0.5,0.8,0.5h0.2v0.3c-0.3,0-1.1,0-1.5,0c-0.4,0-1.1,0-1.5,0v-0.3h0.2
			c0.8,0,0.8-0.1,0.8-0.5v-5.3c0-0.4,0-0.5-0.8-0.5h-0.2v-0.3c0.3,0,1.1,0,1.5,0c0.4,0,1.1,0,1.5,0v0.3h-0.2c-0.8,0-0.8,0.1-0.8,0.5
			v2.3h3v-2.3c0-0.4,0-0.5-0.8-0.5h-0.2v-0.3c0.3,0,1.1,0,1.5,0c0.4,0,1.1,0,1.5,0v0.3h-0.2c-0.8,0-0.8,0.1-0.8,0.5V215.5z"/>
		<path class="st0" d="M422.1,216h1.2c1.2,0,1.4-0.4,1.5-1.6h0.2l-0.2,1.9h-3.3c-0.2,0-0.3,0-0.3-0.1c0,0,0-0.1,0.1-0.2l2.8-3.8H423
			c-1.1,0-1.3,0.4-1.3,1.4h-0.2l0.1-1.6h3.2c0.2,0,0.3,0,0.3,0.1c0,0,0,0.1-0.1,0.2L422.1,216z"/>
		<path class="st0" d="M427,218.7h-1.4v-0.4h1v-9.2h-1v-0.4h1.4V218.7z"/>
	</g>
	<polyline points="322.3,189.9 320,185.4 317.8,189.9 320,188.8 	"/>
	<line class="st1" x1="320" y1="217.3" x2="320" y2="188.8"/>
	<polyline points="389.9,216 394.4,213.7 389.9,211.5 391,213.7 	"/>
	<line class="st1" x1="245.6" y1="213.7" x2="391" y2="213.7"/>
	<polyline points="359.1,199.8 355.5,192.5 351.8,199.8 355.5,198 	"/>
	<line class="st2" x1="355.5" y1="198" x2="355.5" y2="213.7"/>
	<polyline points="288.3,199.8 284.6,192.5 280.9,199.8 284.6,198 	"/>
	<path class="st2" d="M284.6,198v15.7 M390.9,213.7H249.2 M390.9,256.3H249.2 M153.5,256.3H11.8"/>
	<line class="st3" x1="146.4" y1="245.6" x2="167.7" y2="245.6"/>
	<polyline points="33.2,242.4 29.5,235 25.8,242.4 29.5,240.5 	"/>
	<line class="st2" x1="29.5" y1="240.5" x2="29.5" y2="256.3"/>
	<polyline points="47.3,242.4 43.7,235 40,242.4 43.7,240.5 	"/>
	<line class="st2" x1="43.7" y1="240.5" x2="43.7" y2="256.3"/>
	<polyline points="61.5,242.4 57.8,235 54.1,242.4 57.8,240.5 	"/>
	<line class="st2" x1="57.8" y1="240.5" x2="57.8" y2="256.3"/>
	<polyline points="75.7,242.4 72,235 68.3,242.4 72,240.5 	"/>
	<line class="st2" x1="72" y1="240.5" x2="72" y2="256.3"/>
	<line class="st3" x1="4.7" y1="245.6" x2="25.9" y2="245.6"/>
	<polyline points="89.9,242.4 86.2,235 82.5,242.4 86.2,240.5 	"/>
	<line class="st2" x1="86.2" y1="240.5" x2="86.2" y2="256.3"/>
	<polyline points="104,242.4 100.3,235 96.7,242.4 100.3,240.5 	"/>
	<line class="st2" x1="100.3" y1="240.5" x2="100.3" y2="256.3"/>
	<polyline points="118.2,242.4 114.5,235 110.8,242.4 114.5,240.5 	"/>
	<line class="st2" x1="114.5" y1="240.5" x2="114.5" y2="256.3"/>
	<polyline points="132.4,242.4 128.7,235 125,242.4 128.7,240.5 	"/>
	<line class="st2" x1="128.7" y1="240.5" x2="128.7" y2="256.3"/>
	<polyline points="146.6,242.4 142.9,235 139.2,242.4 142.9,240.5 	"/>
	<line class="st2" x1="142.9" y1="240.5" x2="142.9" y2="256.3"/>
	<polyline points="323.7,242.4 320,235 316.3,242.4 320,240.5 	"/>
	<line class="st2" x1="320" y1="240.5" x2="320" y2="256.3"/>
	<polyline points="345,242.4 341.3,235 337.6,242.4 341.3,240.5 	"/>
	<line class="st2" x1="341.3" y1="240.5" x2="341.3" y2="256.3"/>
	<polyline points="366.2,242.4 362.5,235 358.9,242.4 362.5,240.5 	"/>
	<line class="st2" x1="362.5" y1="240.5" x2="362.5" y2="256.3"/>
	<polyline points="387.5,242.4 383.8,235 380.1,242.4 383.8,240.5 	"/>
	<line class="st2" x1="383.8" y1="240.5" x2="383.8" y2="256.3"/>
	<line class="st4" x1="387.4" y1="245.6" x2="408.6" y2="245.6"/>
	<polyline points="302.5,242.4 298.8,235 295.1,242.4 298.8,240.5 	"/>
	<line class="st2" x1="298.8" y1="240.5" x2="298.8" y2="256.3"/>
	<polyline points="281.2,242.4 277.5,235 273.8,242.4 277.5,240.5 	"/>
	<line class="st2" x1="277.5" y1="240.5" x2="277.5" y2="256.3"/>
	<polyline points="259.9,242.4 256.3,235 252.6,242.4 256.3,240.5 	"/>
	<line class="st2" x1="256.3" y1="240.5" x2="256.3" y2="256.3"/>
	<line class="st3" x1="231.4" y1="245.6" x2="252.7" y2="245.6"/>
	<g>
		<path class="st0" d="M169,201c0,0.2-0.1,0.2-0.1,0.5c0,0.3,0.1,0.5,0.3,0.5c0.3,0,0.9-0.2,1.3-1.3c0-0.1,0.1-0.1,0.1-0.1
			c0,0,0.1,0,0.1,0.1c0,0.1-0.6,1.5-1.6,1.5c-0.5,0-0.9-0.4-0.9-0.9c0-0.2,0-0.3,0.8-3.2h-0.9c-0.2,0-0.3,0-0.3-0.1
			c0-0.2,0.1-0.2,0.3-0.2h0.9l0.4-1.6c0.1-0.3,0.4-0.4,0.4-0.4c0.2,0,0.3,0.1,0.3,0.3c0,0.1,0,0.3-0.4,1.7h0.9c0.2,0,0.3,0,0.3,0.1
			c0,0.2-0.1,0.2-0.3,0.2h-0.9L169,201z"/>
	</g>
	<g>
		<path class="st0" d="M175.7,204.6v-10h1.4v0.4h-1v9.2h1v0.4H175.7z"/>
		<path class="st0" d="M178,199.7c-0.3-0.2-0.4-0.5-0.4-0.8c0-0.6,0.4-1.2,1.6-1.2c0.1,0,0.6,0,0.9,0.3c0,0,0.1-0.1,0.2-0.2
			c0.1-0.1,0.1-0.1,0.2-0.1c0.1,0,0.1,0.1,0.1,0.2v1c0,0.2,0,0.2-0.1,0.2c0,0-0.1,0-0.1-0.1c0-0.3-0.1-1.2-1.2-1.2
			c-0.9,0-1.1,0.4-1.1,0.8c0,0.6,0.7,0.7,1.2,0.8c0.4,0.1,0.8,0.2,1.1,0.5c0.1,0.1,0.4,0.4,0.4,0.9c0,0.7-0.5,1.4-1.6,1.4
			c-0.2,0-0.7,0-1.1-0.4c-0.2,0.2-0.2,0.2-0.2,0.2c-0.2,0.2-0.2,0.2-0.2,0.2c-0.1,0-0.1-0.1-0.1-0.2v-1.3c0-0.2,0-0.3,0.1-0.3
			c0.1,0,0.1,0,0.1,0.2c0.2,0.8,0.5,1.4,1.4,1.4c0.8,0,1.1-0.4,1.1-0.9c0-0.7-0.8-0.9-1-0.9C178.6,200,178.4,199.9,178,199.7z"/>
		<path class="st0" d="M182.6,201.3c0.2,0.4,0.6,0.7,1.1,0.7c0.1,0,1,0,1.3-1c0-0.1,0-0.1,0.1-0.1c0,0,0.1,0,0.1,0.1
			c0,0.2-0.4,1.3-1.7,1.3c-1.1,0-2.2-1-2.2-2.3c0-1.2,0.9-2.3,2.1-2.3c1.2,0,1.8,1,1.8,2c0,0.2,0,0.2-0.2,0.2h-2.8
			C182.3,200.1,182.3,200.8,182.6,201.3z M184.7,199.6c0-0.4-0.1-1.7-1.1-1.7c-0.3,0-1.2,0.3-1.2,1.7H184.7z"/>
		<path class="st0" d="M188.2,201.9c0.4,0,1-0.1,1.3-1c0-0.1,0-0.1,0.1-0.1c0,0,0.1,0,0.1,0.1s-0.3,1.3-1.7,1.3
			c-1.2,0-2.1-1-2.1-2.3c0-1.2,0.9-2.3,2.2-2.3c0.8,0,1.5,0.4,1.5,1.1c0,0.3-0.2,0.5-0.5,0.5c-0.3,0-0.5-0.2-0.5-0.5
			c0-0.1,0.1-0.4,0.5-0.5c-0.3-0.4-1-0.4-1.1-0.4c-0.5,0-1.3,0.4-1.3,2C186.8,201.5,187.7,201.9,188.2,201.9z"/>
		<path class="st0" d="M191.7,204.6h-1.4v-0.4h1V195h-1v-0.4h1.4V204.6z"/>
	</g>
	<polyline points="88.4,182.8 86.2,178.3 83.9,182.8 86.2,181.7 	"/>
	<line class="st1" x1="86.2" y1="213.7" x2="86.2" y2="181.7"/>
	<polyline points="159.6,201.8 164.1,199.6 159.6,197.3 160.7,199.6 	"/>
	<line class="st1" x1="8.2" y1="199.6" x2="160.7" y2="199.6"/>
	<path class="st2" d="M8.2,210.2c0,0,4.3-7.2,7.1-10.6c4.4-5.3,7.5-14.2,14.2-14.2c6.7,0,9.3,9.3,14.2,14.2s7.5,14.2,14.2,14.2
		c6.7,0,9.3-9.3,14.2-14.2c4.9-4.9,7.5-14.2,14.2-14.2s9.3,9.3,14.2,14.2c4.9,4.9,7.5,14.2,14.2,14.2s9.3-9.3,14.2-14.2
		s7.5-14.2,14.2-14.2s9.8,8.8,14.2,14.2c2.8,3.4,7.1,10.6,7.1,10.6l0,0"/>
	<polygon class="st5" points="1.1,132.2 1.1,263.3 433.4,263.3 433.4,1.1 1.1,1.1 	"/>
	<line class="st6" x1="1.1" y1="47.2" x2="433.4" y2="47.2"/>
	<line class="st5" x1="1.1" y1="86.2" x2="433.4" y2="86.2"/>
	<line class="st6" x1="1.1" y1="128.7" x2="433.4" y2="128.7"/>
	<path class="st5" d="M1.1,171.2h432.3 M1.1,220.8h432.3"/>
	<g>
		<path class="st0" d="M212.3,24.4c-1.1,0-1.9-0.9-1.9-1.9c0-1,0.9-1.9,1.9-1.9c1,0,1.9,0.9,1.9,1.9
			C214.3,23.5,213.4,24.4,212.3,24.4z M213.9,22.4c0-0.9-0.7-1.5-1.5-1.5c-0.9,0-1.5,0.7-1.5,1.5c0,0.8,0.7,1.5,1.5,1.5
			C213.2,24,213.9,23.3,213.9,22.4z"/>
		<path class="st0" d="M214.6,22.6c-0.2,0-0.3,0-0.3-0.2c0-0.2,0.2-0.2,0.3-0.2h5.4c0.2,0,0.3,0,0.3,0.2c0,0.2-0.2,0.2-0.3,0.2
			H214.6z"/>
		<path class="st0" d="M222.3,24.4c-1.1,0-1.9-0.9-1.9-1.9c0-1,0.9-1.9,1.9-1.9c1,0,1.9,0.9,1.9,1.9
			C224.2,23.5,223.3,24.4,222.3,24.4z M223.8,22.4c0-0.9-0.7-1.5-1.5-1.5c-0.9,0-1.5,0.7-1.5,1.5c0,0.8,0.7,1.5,1.5,1.5
			C223.1,24,223.8,23.3,223.8,22.4z"/>
	</g>
	<g>
		<path class="st0" d="M212.3,70.4c-1.1,0-1.9-0.9-1.9-1.9c0-1,0.9-1.9,1.9-1.9c1,0,1.9,0.9,1.9,1.9
			C214.3,69.6,213.4,70.4,212.3,70.4z M213.9,68.5c0-0.9-0.7-1.5-1.5-1.5c-0.9,0-1.5,0.7-1.5,1.5c0,0.8,0.7,1.5,1.5,1.5
			C213.2,70,213.9,69.3,213.9,68.5z"/>
		<path class="st0" d="M214.6,68.7c-0.2,0-0.3,0-0.3-0.2c0-0.2,0.2-0.2,0.3-0.2h5.4c0.2,0,0.3,0,0.3,0.2c0,0.2-0.2,0.2-0.3,0.2
			H214.6z"/>
		<path class="st0" d="M222.3,70.4c-1.1,0-1.9-0.9-1.9-1.9c0-1,0.9-1.9,1.9-1.9c1,0,1.9,0.9,1.9,1.9
			C224.2,69.6,223.3,70.4,222.3,70.4z M223.8,68.5c0-0.9-0.7-1.5-1.5-1.5c-0.9,0-1.5,0.7-1.5,1.5c0,0.8,0.7,1.5,1.5,1.5
			C223.1,70,223.8,69.3,223.8,68.5z"/>
	</g>
	<g>
		<path class="st0" d="M212.3,109.4c-1.1,0-1.9-0.9-1.9-1.9c0-1,0.9-1.9,1.9-1.9c1,0,1.9,0.9,1.9,1.9
			C214.3,108.5,213.4,109.4,212.3,109.4z M213.9,107.5c0-0.9-0.7-1.5-1.5-1.5c-0.9,0-1.5,0.7-1.5,1.5c0,0.8,0.7,1.5,1.5,1.5
			C213.2,109,213.9,108.3,213.9,107.5z"/>
		<path class="st0" d="M214.6,107.7c-0.2,0-0.3,0-0.3-0.2c0-0.2,0.2-0.2,0.3-0.2h5.4c0.2,0,0.3,0,0.3,0.2c0,0.2-0.2,0.2-0.3,0.2
			H214.6z"/>
		<path class="st0" d="M222.3,109.4c-1.1,0-1.9-0.9-1.9-1.9c0-1,0.9-1.9,1.9-1.9c1,0,1.9,0.9,1.9,1.9
			C224.2,108.5,223.3,109.4,222.3,109.4z M223.8,107.5c0-0.9-0.7-1.5-1.5-1.5c-0.9,0-1.5,0.7-1.5,1.5c0,0.8,0.7,1.5,1.5,1.5
			C223.1,109,223.8,108.3,223.8,107.5z"/>
	</g>
	<g>
		<path class="st0" d="M212.3,151.9c-1.1,0-1.9-0.9-1.9-1.9c0-1,0.9-1.9,1.9-1.9c1,0,1.9,0.9,1.9,1.9S213.4,151.9,212.3,151.9z
			 M213.9,150c0-0.9-0.7-1.5-1.5-1.5c-0.9,0-1.5,0.7-1.5,1.5s0.7,1.5,1.5,1.5C213.2,151.5,213.9,150.8,213.9,150z"/>
		<path class="st0" d="M214.6,150.2c-0.2,0-0.3,0-0.3-0.2s0.2-0.2,0.3-0.2h5.4c0.2,0,0.3,0,0.3,0.2s-0.2,0.2-0.3,0.2H214.6z"/>
		<path class="st0" d="M222.3,151.9c-1.1,0-1.9-0.9-1.9-1.9c0-1,0.9-1.9,1.9-1.9c1,0,1.9,0.9,1.9,1.9S223.3,151.9,222.3,151.9z
			 M223.8,150c0-0.9-0.7-1.5-1.5-1.5c-0.9,0-1.5,0.7-1.5,1.5s0.7,1.5,1.5,1.5C223.1,151.5,223.8,150.8,223.8,150z"/>
	</g>
	<g>
		<path class="st0" d="M212.3,194.4c-1.1,0-1.9-0.9-1.9-1.9c0-1,0.9-1.9,1.9-1.9c1,0,1.9,0.9,1.9,1.9S213.4,194.4,212.3,194.4z
			 M213.9,192.5c0-0.9-0.7-1.5-1.5-1.5c-0.9,0-1.5,0.7-1.5,1.5s0.7,1.5,1.5,1.5C213.2,194,213.9,193.4,213.9,192.5z"/>
		<path class="st0" d="M214.6,192.7c-0.2,0-0.3,0-0.3-0.2s0.2-0.2,0.3-0.2h5.4c0.2,0,0.3,0,0.3,0.2s-0.2,0.2-0.3,0.2H214.6z"/>
		<path class="st0" d="M222.3,194.4c-1.1,0-1.9-0.9-1.9-1.9c0-1,0.9-1.9,1.9-1.9c1,0,1.9,0.9,1.9,1.9S223.3,194.4,222.3,194.4z
			 M223.8,192.5c0-0.9-0.7-1.5-1.5-1.5c-0.9,0-1.5,0.7-1.5,1.5s0.7,1.5,1.5,1.5C223.1,194,223.8,193.4,223.8,192.5z"/>
	</g>
	<g>
		<path class="st0" d="M212.3,244c-1.1,0-1.9-0.9-1.9-1.9c0-1,0.9-1.9,1.9-1.9c1,0,1.9,0.9,1.9,1.9S213.4,244,212.3,244z
			 M213.9,242.1c0-0.9-0.7-1.5-1.5-1.5c-0.9,0-1.5,0.7-1.5,1.5s0.7,1.5,1.5,1.5C213.2,243.6,213.9,243,213.9,242.1z"/>
		<path class="st0" d="M214.6,242.3c-0.2,0-0.3,0-0.3-0.2s0.2-0.2,0.3-0.2h5.4c0.2,0,0.3,0,0.3,0.2s-0.2,0.2-0.3,0.2H214.6z"/>
		<path class="st0" d="M222.3,244c-1.1,0-1.9-0.9-1.9-1.9c0-1,0.9-1.9,1.9-1.9c1,0,1.9,0.9,1.9,1.9S223.3,244,222.3,244z
			 M223.8,242.1c0-0.9-0.7-1.5-1.5-1.5c-0.9,0-1.5,0.7-1.5,1.5s0.7,1.5,1.5,1.5C223.1,243.6,223.8,243,223.8,242.1z"/>
	</g>
</g>
</svg>
