<?xml version="1.0" encoding="utf-8"?>
<!-- Generator: Adobe Illustrator 22.1.0, SVG Export Plug-In . SVG Version: 6.00 Build 0)  -->
<svg version="1.1" id="Layer_1" xmlns="http://www.w3.org/2000/svg" xmlns:xlink="http://www.w3.org/1999/xlink" x="0px" y="0px"
	 viewBox="0 0 441.3 151.1" style="enable-background:new 0 0 441.3 151.1;" xml:space="preserve">
<style type="text/css">
	.st0{fill:none;stroke:#000000;stroke-width:0.8504;stroke-miterlimit:10;}
	.st1{fill:#1D1D1B;}
	.st2{fill:none;stroke:#000000;stroke-width:2.2677;stroke-miterlimit:10;}
	.st3{fill:#0000FF;}
	.st4{fill:none;stroke:#000000;stroke-width:1.4173;stroke-linecap:round;stroke-miterlimit:10;stroke-dasharray:0,4.0748;}
</style>
<g>
	<path class="st0" d="M190.3,76.7L190.3,76.7c0-1.4-1.1-2.5-2.5-2.5s-2.5,1.1-2.5,2.5s1.1,2.5,2.5,2.5S190.3,78.1,190.3,76.7
		L190.3,76.7z M191.3,76.7h21.3 M218.6,76.7L218.6,76.7c0-1.4-1.1-2.5-2.5-2.5s-2.5,1.1-2.5,2.5s1.1,2.5,2.5,2.5
		S218.6,78.1,218.6,76.7L218.6,76.7z"/>
	<g>
		<path class="st1" d="M196.9,68.7h-0.5c-0.1-1.2-0.4-1.9-2-1.9h-1.4v2.7h0.5c1,0,1-0.4,1-1.2h0.5v2.8h-0.5c0-0.7-0.1-1.2-1-1.2
			h-0.5v2.7h1.3v0.5c-0.4,0-1.5,0-2,0c-0.4,0-1.4,0-1.8,0v-0.5h1.1v-5.8h-1.1v-0.5h6L196.9,68.7z"/>
		<path class="st1" d="M205,68.8h-0.5c-0.1-1.1-0.2-1.9-1.6-1.9h-0.8v5.8h1.5v0.5c-0.5,0-1.6,0-2.2,0c-0.6,0-1.7,0-2.2,0v-0.5h1.5
			v-5.8h-0.8c-1.4,0-1.5,0.8-1.6,1.9h-0.5l0.2-2.4h6.7L205,68.8z"/>
	</g>
	<g>
		<path class="st1" d="M213,68.6c0,0.3,0,0.3-0.3,0.3c-0.2,0-0.2,0-0.3-0.2c-0.2-1.3-1.2-2-2.2-2c-0.5,0-1.4,0.1-2,0.8
			c-0.6,0.7-0.7,1.7-0.7,2.3c0,0.9,0.1,1.6,0.6,2.2c0.5,0.6,1.4,0.8,2.1,0.8c1,0,2.2-0.6,2.3-1.9c0-0.2,0.1-0.2,0.2-0.2
			c0.2,0,0.2,0,0.2,0.2c0,1.1-1.1,2.4-3,2.4c-2.5,0-4-1.5-4-3.5c0-2,1.5-3.5,4-3.5c0.7,0,1.3,0.2,2,0.7l0.7-0.6
			c0.1-0.1,0.1-0.1,0.2-0.1c0.2,0,0.2,0.1,0.2,0.3V68.6z"/>
	</g>
	<polyline points="404,64.8 408.5,62.6 404,60.3 405.1,62.6 	"/>
	<line class="st0" x1="226.8" y1="62.6" x2="405.1" y2="62.6"/>
	<polyline points="317.6,6.9 315.4,2.3 313.1,6.9 315.4,5.7 	"/>
	<line class="st0" x1="315.4" y1="69.6" x2="315.4" y2="5.7"/>
	<g>
		<path class="st1" d="M327.6,10.5c0,0.2,0,0.4-0.2,0.4s-0.2-0.2-0.2-0.4V1.3c0-0.2,0-0.4,0.2-0.4s0.2,0.2,0.2,0.4V10.5z"/>
	</g>
	<g>
		<path class="st1" d="M335.2,2.6c0.1-0.1,0.2-0.2,0.2-0.4c0-0.3-0.3-0.3-0.4-0.3c-0.1,0-0.1,0-0.1-0.1c0-0.2,0.1-0.2,0.2-0.2
			c0.4,0,0.7,0,1.1,0c0.3,0,0.6,0,0.9,0c0.1,0,0.1,0.1,0.1,0.1c0,0.2-0.1,0.2-0.2,0.2c-0.6,0-1,0.3-1.3,0.5c-0.3,0.3-1.4,1.5-2,2.2
			c0.2,0.6,0.9,2.2,1.3,3.1c0.2,0.4,0.2,0.4,0.9,0.4c0.1,0,0.2,0,0.2,0.1c0,0.2-0.1,0.2-0.2,0.2c-0.2,0-0.9,0-1.1,0
			c-0.3,0-1,0-1.3,0c0,0-0.1,0-0.1-0.1c0-0.2,0.1-0.2,0.2-0.2c0.4,0,0.6-0.2,0.6-0.3c0,0,0,0,0-0.1l-1-2.4l-0.9,1l-1,1.1
			c-0.1,0.1-0.3,0.3-0.3,0.4c0,0.3,0.3,0.3,0.4,0.3c0,0,0.1,0,0.1,0.1c0,0.2-0.1,0.2-0.2,0.2c-0.4,0-0.7,0-1.1,0c-0.3,0-0.6,0-0.9,0
			c-0.1,0-0.1-0.1-0.1-0.1c0-0.2,0.1-0.2,0.2-0.2c0.5,0,1-0.2,1.5-0.7l0.1-0.1l2.1-2.3l-1.2-2.8c-0.1-0.2-0.1-0.3-0.7-0.3
			c-0.1,0-0.2,0-0.2-0.1c0-0.2,0.1-0.2,0.2-0.2c0.2,0,0.9,0,1.1,0c0.4,0,0.8,0,1.3,0c0,0,0.1,0,0.1,0.1c0,0.2-0.1,0.2-0.2,0.2
			c-0.4,0-0.6,0.2-0.6,0.3c0,0,0,0,0,0.1l0.8,2L335.2,2.6z"/>
	</g>
	<g>
		<path class="st1" d="M341.1,10.9c-0.1,0-1-0.6-1.6-1.9c-0.5-1.1-0.7-2.3-0.7-3.1c0-0.8,0.1-1.9,0.6-3c0.6-1.3,1.5-1.9,1.6-1.9
			c0.1,0,0.1,0,0.1,0.1c0,0,0,0-0.1,0.2c-1.2,1.2-1.6,3-1.6,4.7c0,1.5,0.3,3.4,1.6,4.7C341.2,10.7,341.2,10.7,341.1,10.9
			C341.2,10.8,341.1,10.9,341.1,10.9z"/>
	</g>
	<g>
		<path class="st1" d="M344.8,7.6c0,0.1-0.2,1.3-0.6,1.9c-0.2,0.4-0.6,1-1.1,1c-0.4,0-0.8-0.2-0.8-0.7c0-0.4,0.3-0.6,0.5-0.6
			c0.2,0,0.4,0.1,0.4,0.3c0,0.1-0.1,0.5-0.5,0.5c0.2,0.2,0.4,0.2,0.5,0.2c0.5,0,0.7-0.9,0.9-1.9l0.7-3.9H344c-0.2,0-0.3,0-0.3-0.1
			c0-0.2,0.1-0.2,0.3-0.2h0.7c0.2-1.3,0.3-1.4,0.3-1.6c0.3-1,0.9-1.2,1.3-1.2c0.4,0,0.9,0.2,0.9,0.7c0,0.4-0.3,0.6-0.5,0.6
			c-0.2,0-0.4-0.1-0.4-0.3c0-0.1,0.1-0.5,0.5-0.5c-0.2-0.2-0.4-0.2-0.5-0.2c-0.2,0-0.4,0.1-0.5,0.3c-0.1,0.1-0.2,0.8-0.2,1l-0.2,1.1
			h0.8c0.2,0,0.3,0,0.3,0.1c0,0.2-0.1,0.2-0.3,0.2h-0.9L344.8,7.6z"/>
	</g>
	<g>
		<path class="st1" d="M350,8.9c-0.6,1.3-1.5,1.9-1.6,1.9c-0.1,0-0.1,0-0.1-0.1c0,0,0-0.1,0.1-0.2c1.2-1.3,1.6-3,1.6-4.7
			c0-2.1-0.6-3.7-1.5-4.7c-0.2-0.2-0.2-0.2-0.2-0.2c0-0.1,0-0.1,0.1-0.1c0.1,0,1,0.6,1.6,1.9c0.5,1.1,0.7,2.3,0.7,3.1
			C350.6,6.7,350.5,7.8,350,8.9z"/>
	</g>
	<g>
		<path class="st1" d="M353.1,10.5c0,0.2,0,0.4-0.2,0.4s-0.2-0.2-0.2-0.4V1.3c0-0.2,0-0.4,0.2-0.4s0.2,0.2,0.2,0.4V10.5z"/>
	</g>
	<g>
		<path class="st1" d="M417.6,64.2c0,0.1-0.2,1.3-0.6,1.9c-0.2,0.4-0.6,1-1.1,1c-0.4,0-0.8-0.2-0.8-0.7c0-0.4,0.3-0.6,0.5-0.6
			c0.2,0,0.4,0.1,0.4,0.3c0,0.1-0.1,0.5-0.5,0.5c0.2,0.2,0.4,0.2,0.5,0.2c0.5,0,0.7-0.9,0.9-1.9l0.7-3.9h-0.7c-0.2,0-0.3,0-0.3-0.1
			c0-0.2,0.1-0.2,0.3-0.2h0.7c0.2-1.3,0.3-1.4,0.3-1.6c0.3-1,0.9-1.2,1.3-1.2c0.4,0,0.9,0.2,0.9,0.7c0,0.4-0.3,0.6-0.5,0.6
			c-0.2,0-0.4-0.1-0.4-0.3c0-0.1,0.1-0.5,0.5-0.5c-0.2-0.2-0.4-0.2-0.5-0.2c-0.2,0-0.4,0.1-0.5,0.3c-0.1,0.1-0.2,0.8-0.2,1l-0.2,1.1
			h0.8c0.2,0,0.3,0,0.3,0.1c0,0.2-0.1,0.2-0.3,0.2h-0.9L417.6,64.2z"/>
	</g>
	<g>
		<path class="st1" d="M425,67.6v-10h1.4V58h-1v9.2h1v0.4H425z"/>
		<path class="st1" d="M432.7,64.3c0,0.4,0,0.5,0.8,0.5h0.2v0.3c-0.3,0-1.1,0-1.5,0c-0.4,0-1.1,0-1.5,0v-0.3h0.2
			c0.8,0,0.8-0.1,0.8-0.5v-2.6h-3v2.6c0,0.4,0,0.5,0.8,0.5h0.2v0.3c-0.3,0-1.1,0-1.5,0c-0.4,0-1.1,0-1.5,0v-0.3h0.2
			c0.8,0,0.8-0.1,0.8-0.5V59c0-0.4,0-0.5-0.8-0.5h-0.2v-0.3c0.3,0,1.1,0,1.5,0c0.4,0,1.1,0,1.5,0v0.3h-0.2c-0.8,0-0.8,0.1-0.8,0.5
			v2.3h3V59c0-0.4,0-0.5-0.8-0.5h-0.2v-0.3c0.3,0,1.1,0,1.5,0c0.4,0,1.1,0,1.5,0v0.3h-0.2c-0.8,0-0.8,0.1-0.8,0.5V64.3z"/>
		<path class="st1" d="M435.2,64.8h1.2c1.2,0,1.4-0.4,1.5-1.6h0.2l-0.2,1.9h-3.3c-0.2,0-0.3,0-0.3-0.1c0,0,0-0.1,0.1-0.2l2.8-3.8
			h-1.1c-1.1,0-1.3,0.4-1.3,1.4h-0.2l0.1-1.6h3.2c0.2,0,0.3,0,0.3,0.1c0,0,0,0.1-0.1,0.2L435.2,64.8z"/>
		<path class="st1" d="M440.1,67.6h-1.4v-0.4h1V58h-1v-0.4h1.4V67.6z"/>
	</g>
	<g>
		<path class="st1" d="M301.6,18.9c0,0.4,0,0.5,0.9,0.5h0.3v0.3c-0.3,0-1.2,0-1.6,0s-1.3,0-1.6,0v-0.3h0.3c0.9,0,0.9-0.1,0.9-0.5
			v-5.2c-0.5,0.3-1.1,0.3-1.3,0.3v-0.3c0.3,0,1.2,0,1.8-0.6c0.2,0,0.2,0,0.2,0.3V18.9z"/>
	</g>
	<path class="st2" d="M403.9,27.1h-88.6 M315.4,27.1h-88.6"/>
	<g>
		<path class="st1" d="M171.4,106.5c0,0.2-0.1,0.2-0.1,0.5c0,0.3,0.1,0.5,0.3,0.5c0.3,0,0.9-0.2,1.3-1.3c0-0.1,0.1-0.1,0.1-0.1
			c0,0,0.1,0,0.1,0.1c0,0.1-0.6,1.5-1.6,1.5c-0.5,0-0.9-0.4-0.9-0.9c0-0.2,0-0.3,0.8-3.2h-0.9c-0.2,0-0.3,0-0.3-0.1
			c0-0.2,0.1-0.2,0.3-0.2h0.9l0.4-1.6c0.1-0.3,0.4-0.4,0.4-0.4c0.2,0,0.3,0.1,0.3,0.3c0,0.1,0,0.3-0.4,1.7h0.9c0.2,0,0.3,0,0.3,0.1
			c0,0.2-0.1,0.2-0.3,0.2h-0.9L171.4,106.5z"/>
	</g>
	<g>
		<path class="st1" d="M178.1,110.1v-10h1.4v0.4h-1v9.2h1v0.4H178.1z"/>
		<path class="st1" d="M180.4,105.2c-0.3-0.2-0.4-0.5-0.4-0.8c0-0.6,0.4-1.2,1.6-1.2c0.1,0,0.6,0,0.9,0.3c0,0,0.1-0.1,0.2-0.2
			c0.1-0.1,0.1-0.1,0.2-0.1c0.1,0,0.1,0.1,0.1,0.2v1c0,0.2,0,0.2-0.1,0.2c0,0-0.1,0-0.1-0.1c0-0.3-0.1-1.2-1.2-1.2
			c-0.9,0-1.1,0.4-1.1,0.8c0,0.6,0.7,0.7,1.2,0.8c0.4,0.1,0.8,0.2,1.1,0.5c0.1,0.1,0.4,0.4,0.4,0.9c0,0.7-0.5,1.4-1.6,1.4
			c-0.2,0-0.7,0-1.1-0.4c-0.2,0.2-0.2,0.2-0.2,0.2c-0.2,0.2-0.2,0.2-0.2,0.2c-0.1,0-0.1-0.1-0.1-0.2v-1.3c0-0.2,0-0.3,0.1-0.3
			c0.1,0,0.1,0,0.1,0.2c0.2,0.8,0.5,1.4,1.4,1.4c0.8,0,1.1-0.4,1.1-0.9c0-0.7-0.8-0.9-1-0.9C181,105.5,180.8,105.5,180.4,105.2z"/>
		<path class="st1" d="M185,106.8c0.2,0.4,0.6,0.7,1.1,0.7c0.1,0,1,0,1.3-1c0-0.1,0-0.1,0.1-0.1c0,0,0.1,0,0.1,0.1
			c0,0.2-0.4,1.3-1.7,1.3c-1.1,0-2.2-1-2.2-2.3c0-1.2,0.9-2.3,2.1-2.3c1.2,0,1.8,1,1.8,2c0,0.2,0,0.2-0.2,0.2h-2.8
			C184.7,105.7,184.7,106.3,185,106.8z M187.1,105.1c0-0.4-0.1-1.7-1.1-1.7c-0.3,0-1.2,0.3-1.2,1.7H187.1z"/>
		<path class="st1" d="M190.6,107.5c0.4,0,1-0.1,1.3-1c0-0.1,0-0.1,0.1-0.1c0,0,0.1,0,0.1,0.1s-0.3,1.3-1.7,1.3
			c-1.2,0-2.1-1-2.1-2.3c0-1.2,0.9-2.3,2.2-2.3c0.8,0,1.5,0.4,1.5,1.1c0,0.3-0.2,0.5-0.5,0.5c-0.3,0-0.5-0.2-0.5-0.5
			c0-0.1,0.1-0.4,0.5-0.5c-0.3-0.4-1-0.4-1.1-0.4c-0.5,0-1.3,0.4-1.3,2C189.2,107,190.1,107.5,190.6,107.5z"/>
		<path class="st1" d="M194.1,110.1h-1.4v-0.4h1v-9.2h-1v-0.4h1.4V110.1z"/>
	</g>
	<polyline points="76.7,45.8 74.4,41.3 72.1,45.8 74.4,44.7 	"/>
	<path class="st0" d="M74.4,108.6V44.7 M61.3,105.1h7.1"/>
	<polyline points="159.5,107.3 164,105.1 159.5,102.8 160.6,105.1 	"/>
	<line class="st0" x1="0" y1="105.1" x2="160.6" y2="105.1"/>
	<g>
		<path class="st1" d="M73.6,118c-0.4,0.9-1.2,1.2-1.7,1.2c-0.5,0-1.2-0.2-1.6-1c-0.4-0.8-0.4-1.7-0.4-2.4c0-0.8,0-1.6,0.4-2.3
			c0.4-0.9,1.1-1.2,1.7-1.2c0.4,0,1.2,0.2,1.7,1.1c0.3,0.7,0.4,1.5,0.4,2.3C74,116.5,73.9,117.3,73.6,118z M73,117.7
			c0.1-0.6,0.1-1.3,0.1-2.1c0-0.6,0-1.4-0.1-1.9c-0.2-1-0.8-1.2-1.2-1.2c-0.2,0-1,0.1-1.2,1.3c-0.1,0.5-0.1,1.2-0.1,1.8
			c0,0.6,0,1.5,0.1,2.1c0.2,1,0.8,1.2,1.2,1.2C72.3,118.9,72.9,118.6,73,117.7z"/>
	</g>
	<g>
		<path class="st1" d="M84.5,42.2c-0.1,0.4-0.2,0.7-0.2,0.9c0,0.3,0.2,0.7,0.5,0.7c0.3,0,1-0.2,1.3-1.3c0-0.1,0-0.1,0.1-0.1
			c0,0,0.1,0,0.1,0.1c0,0.2-0.6,1.5-1.6,1.5c-0.6,0-1-0.4-1.1-0.8c0,0.1-0.4,0.8-1,0.8c-0.4,0-0.9-0.2-0.9-0.7
			c0-0.3,0.2-0.6,0.5-0.6c0.1,0,0.4,0.1,0.4,0.3c0,0.3-0.2,0.5-0.5,0.5c0.2,0.1,0.4,0.1,0.5,0.1c0.4,0,0.8-0.4,0.9-1
			c0.4-1.4,0.5-2.1,0.5-2.4c0-0.6-0.3-0.7-0.5-0.7c-0.3,0-1,0.2-1.3,1.3c0,0.1-0.1,0.1-0.1,0.1c0,0-0.1,0-0.1-0.1
			c0-0.2,0.6-1.5,1.6-1.5c0.3,0,0.8,0.1,1.1,0.8c0.1-0.2,0.5-0.8,1-0.8c0.3,0,0.9,0.1,0.9,0.7c0,0.4-0.3,0.6-0.5,0.6
			c-0.3,0-0.4-0.2-0.4-0.3c0-0.2,0.2-0.5,0.5-0.5c-0.2-0.1-0.4-0.1-0.5-0.1c-0.7,0-0.9,0.9-1,1.2L84.5,42.2z"/>
	</g>
	<g>
		<path class="st1" d="M90.3,46.3c-0.1,0-1-0.6-1.6-1.9c-0.5-1.1-0.7-2.3-0.7-3.1c0-0.8,0.1-1.9,0.6-3c0.6-1.3,1.5-1.9,1.6-1.9
			c0.1,0,0.1,0,0.1,0.1c0,0,0,0-0.1,0.2c-1.2,1.2-1.6,3-1.6,4.7c0,1.5,0.3,3.4,1.6,4.7C90.4,46.2,90.4,46.2,90.3,46.3
			C90.4,46.3,90.4,46.3,90.3,46.3z"/>
	</g>
	<g>
		<path class="st1" d="M92.3,42.8c0,0.2-0.1,0.2-0.1,0.5c0,0.3,0.1,0.5,0.3,0.5c0.3,0,0.9-0.2,1.3-1.3c0-0.1,0.1-0.1,0.1-0.1
			c0,0,0.1,0,0.1,0.1c0,0.1-0.6,1.5-1.6,1.5c-0.5,0-0.9-0.4-0.9-0.9c0-0.2,0-0.3,0.8-3.2h-0.9c-0.2,0-0.3,0-0.3-0.1
			c0-0.2,0.1-0.2,0.3-0.2h0.9l0.4-1.6c0.1-0.3,0.4-0.4,0.4-0.4c0.2,0,0.3,0.1,0.3,0.3c0,0.1,0,0.3-0.4,1.7H94c0.2,0,0.3,0,0.3,0.1
			c0,0.2-0.1,0.2-0.3,0.2H93L92.3,42.8z"/>
	</g>
	<g>
		<path class="st1" d="M96.8,44.4c-0.6,1.3-1.5,1.9-1.6,1.9c-0.1,0-0.1,0-0.1-0.1c0,0,0-0.1,0.1-0.2c1.2-1.3,1.6-3,1.6-4.7
			c0-2.1-0.6-3.7-1.5-4.7c-0.2-0.2-0.2-0.2-0.2-0.2c0-0.1,0-0.1,0.1-0.1c0.1,0,1,0.6,1.6,1.9c0.5,1.1,0.7,2.3,0.7,3.1
			C97.5,42.2,97.3,43.3,96.8,44.4z"/>
	</g>
	<polyline points="120.6,62.8 116.9,55.5 113.2,62.8 116.9,61 	"/>
	<path class="st2" d="M116.9,61v44.1 M159.4,105.1h-85 M74.4,105.1H0"/>
	<g>
		<path class="st1" d="M64.2,57.9c0,0.4,0,0.5,0.9,0.5h0.3v0.3c-0.3,0-1.2,0-1.6,0c-0.4,0-1.3,0-1.6,0v-0.3h0.3
			c0.9,0,0.9-0.1,0.9-0.5v-5.2C62.9,53,62.3,53,62.1,53v-0.3c0.3,0,1.2,0,1.8-0.6c0.2,0,0.2,0,0.2,0.3V57.9z"/>
	</g>
	<line class="st0" x1="70.9" y1="55.5" x2="78" y2="55.5"/>
	<g>
		<path class="st3" d="M114.2,117.1c0,0.2-0.1,0.2-0.1,0.5c0,0.3,0.1,0.5,0.3,0.5c0.3,0,0.9-0.2,1.3-1.3c0-0.1,0.1-0.1,0.1-0.1
			c0,0,0.1,0,0.1,0.1c0,0.1-0.6,1.5-1.6,1.5c-0.5,0-0.9-0.4-0.9-0.9c0-0.2,0-0.3,0.8-3.2h-0.9c-0.2,0-0.3,0-0.3-0.1
			c0-0.2,0.1-0.2,0.3-0.2h0.9l0.4-1.6c0.1-0.3,0.4-0.4,0.4-0.4c0.2,0,0.3,0.1,0.3,0.3c0,0.1,0,0.3-0.4,1.7h0.9c0.2,0,0.3,0,0.3,0.1
			c0,0.2-0.1,0.2-0.3,0.2h-0.9L114.2,117.1z"/>
	</g>
	<g>
		<path class="st3" d="M118.4,119.7c-1.6,0-1.6-1.9-1.6-2.4s0-2.4,1.6-2.4c0.6,0,1,0.3,1.2,0.6c0.3,0.5,0.4,1,0.4,1.8
			C120,117.8,120,119.7,118.4,119.7z M119.3,118.7c0.1-0.4,0.1-1,0.1-1.5c0-0.6,0-1.1-0.1-1.5c-0.1-0.4-0.5-0.6-0.9-0.6
			c-0.3,0-0.7,0.1-0.9,0.7c-0.1,0.4-0.1,0.9-0.1,1.4c0,0.5,0,1.1,0.1,1.5c0.1,0.6,0.6,0.8,0.9,0.8
			C118.7,119.5,119.2,119.3,119.3,118.7z"/>
	</g>
	<polyline points="404,128.6 408.5,126.3 404,124.1 405.1,126.3 	"/>
	<line class="st0" x1="226.8" y1="126.3" x2="405.1" y2="126.3"/>
	<polyline points="317.6,91.9 315.4,87.4 313.1,91.9 315.4,90.8 	"/>
	<line class="st0" x1="315.4" y1="151.1" x2="315.4" y2="90.8"/>
	<g>
		<path class="st1" d="M327.2,93h5.1c0.2,0,0.3,0,0.3,0.2s-0.2,0.2-0.3,0.2h-5.4c-0.2,0-0.4,0-0.4-0.2c0-0.1,0-0.1,0.1-0.2l5.5-6.4
			c0.1-0.1,0.2-0.1,0.2-0.1c0.1,0,0.2,0.1,0.2,0.2c0,0,0,0.1-0.1,0.2L327.2,93z"/>
	</g>
	<g>
		<path class="st1" d="M336,89.7c0,0.6-0.4,1-1.2,1.3c0.3,0.1,0.6,0.2,0.8,0.4c0.3,0.3,0.4,0.5,0.4,0.9v2.1c0,0.4,0,0.4,0,0.5
			c0.1,0.5,0.6,0.8,1.2,0.9c0.1,0,0.2,0,0.2,0.1c0,0.1-0.1,0.1-0.2,0.1c-0.4,0-1-0.1-1.4-0.4c-0.5-0.4-0.5-0.7-0.5-1.1v-2
			c0-0.4,0-0.4,0-0.5c-0.1-0.5-0.6-0.8-1.2-0.9c-0.1,0-0.2,0-0.2-0.1c0-0.1,0-0.1,0.1-0.1c0.2,0,0.6,0,0.9-0.3
			c0.4-0.3,0.4-0.6,0.4-1v-2.3c0-0.7,0.9-1.2,1.9-1.2c0.1,0,0.2,0,0.2,0.1c0,0.1,0,0.1-0.1,0.1c-1.1,0.1-1.3,0.7-1.3,1.1V89.7z"/>
	</g>
	<g>
		<path class="st1" d="M344.7,87.6c0.1-0.1,0.2-0.2,0.2-0.4c0-0.3-0.3-0.3-0.4-0.3c-0.1,0-0.1,0-0.1-0.1c0-0.2,0.1-0.2,0.2-0.2
			c0.4,0,0.7,0,1.1,0c0.3,0,0.6,0,0.9,0c0.1,0,0.1,0.1,0.1,0.1c0,0.2-0.1,0.2-0.2,0.2c-0.6,0-1,0.3-1.3,0.5c-0.3,0.3-1.4,1.5-2,2.2
			c0.2,0.6,0.9,2.2,1.3,3.1c0.2,0.4,0.2,0.4,0.9,0.4c0.1,0,0.2,0,0.2,0.1c0,0.2-0.1,0.2-0.2,0.2c-0.2,0-0.9,0-1.1,0
			c-0.3,0-1,0-1.3,0c0,0-0.1,0-0.1-0.1c0-0.2,0.1-0.2,0.2-0.2c0.4,0,0.6-0.2,0.6-0.3c0,0,0,0,0-0.1l-1-2.4l-0.9,1l-1,1.1
			c-0.1,0.1-0.3,0.3-0.3,0.4c0,0.3,0.3,0.3,0.4,0.3c0,0,0.1,0,0.1,0.1c0,0.2-0.1,0.2-0.2,0.2c-0.4,0-0.7,0-1.1,0c-0.3,0-0.6,0-0.9,0
			c-0.1,0-0.1-0.1-0.1-0.1c0-0.2,0.1-0.2,0.2-0.2c0.5,0,1-0.2,1.5-0.7l0.1-0.1l2.1-2.3l-1.2-2.8c-0.1-0.2-0.1-0.3-0.7-0.3
			c-0.1,0-0.2,0-0.2-0.1c0-0.2,0.1-0.2,0.2-0.2c0.2,0,0.9,0,1.1,0c0.4,0,0.8,0,1.3,0c0,0,0.1,0,0.1,0.1c0,0.2-0.1,0.2-0.2,0.2
			c-0.4,0-0.6,0.2-0.6,0.3c0,0,0,0,0,0.1l0.8,2L344.7,87.6z"/>
	</g>
	<g>
		<path class="st1" d="M350.5,95.9c-0.1,0-1-0.6-1.6-1.9c-0.5-1.1-0.7-2.3-0.7-3.1c0-0.8,0.1-1.9,0.6-3c0.6-1.3,1.5-1.9,1.6-1.9
			c0.1,0,0.1,0,0.1,0.1c0,0,0,0-0.1,0.2c-1.2,1.2-1.6,3-1.6,4.7c0,1.5,0.3,3.4,1.6,4.7C350.6,95.8,350.6,95.8,350.5,95.9
			C350.6,95.9,350.6,95.9,350.5,95.9z"/>
	</g>
	<g>
		<path class="st1" d="M354.2,92.6c0,0.1-0.2,1.3-0.6,1.9c-0.2,0.4-0.6,1-1.1,1c-0.4,0-0.8-0.2-0.8-0.7c0-0.4,0.3-0.6,0.5-0.6
			c0.2,0,0.4,0.1,0.4,0.3c0,0.1-0.1,0.5-0.5,0.5c0.2,0.2,0.4,0.2,0.5,0.2c0.5,0,0.7-0.9,0.9-1.9l0.7-3.9h-0.7c-0.2,0-0.3,0-0.3-0.1
			c0-0.2,0.1-0.2,0.3-0.2h0.7c0.2-1.3,0.3-1.4,0.3-1.6c0.3-1,0.9-1.2,1.3-1.2c0.4,0,0.9,0.2,0.9,0.7c0,0.4-0.3,0.6-0.5,0.6
			c-0.2,0-0.4-0.1-0.4-0.3c0-0.1,0.1-0.5,0.5-0.5c-0.2-0.2-0.4-0.2-0.5-0.2c-0.2,0-0.4,0.1-0.5,0.3c-0.1,0.1-0.2,0.8-0.2,1l-0.2,1.1
			h0.8c0.2,0,0.3,0,0.3,0.1c0,0.2-0.1,0.2-0.3,0.2h-0.9L354.2,92.6z"/>
	</g>
	<g>
		<path class="st1" d="M359.4,94c-0.6,1.3-1.5,1.9-1.6,1.9c-0.1,0-0.1,0-0.1-0.1c0,0,0,0,0.1-0.2c1.2-1.3,1.6-3,1.6-4.7
			c0-2.1-0.6-3.7-1.5-4.7c-0.2-0.2-0.2-0.2-0.2-0.2c0-0.1,0-0.1,0.1-0.1c0.1,0,1,0.6,1.6,1.9c0.5,1.1,0.7,2.3,0.7,3.1
			C360.1,91.8,359.9,92.9,359.4,94z"/>
	</g>
	<g>
		<path class="st1" d="M363.2,92.2c0-0.6,0.4-1,1.2-1.3c-0.3-0.1-0.6-0.2-0.8-0.4c-0.3-0.3-0.4-0.5-0.4-0.9v-2.1c0-0.4,0-0.4,0-0.5
			c-0.1-0.5-0.6-0.8-1.2-0.9c-0.1,0-0.2,0-0.2-0.1c0-0.1,0.1-0.1,0.2-0.1c0.3,0,1,0.1,1.4,0.4c0.5,0.4,0.5,0.7,0.5,1.1v2
			c0,0.4,0,0.4,0,0.5c0.1,0.5,0.6,0.8,1.2,0.9c0.1,0,0.2,0,0.2,0.1c0,0.1,0,0.1-0.1,0.1c-0.2,0-0.6,0-0.9,0.3
			c-0.4,0.3-0.4,0.6-0.4,1v2.3c0,0.8-0.9,1.2-1.9,1.2c-0.1,0-0.2,0-0.2-0.1c0-0.1,0-0.1,0.1-0.1c1.1-0.1,1.3-0.7,1.3-1.1V92.2z"/>
	</g>
	<g>
		<path class="st1" d="M417.6,128c0,0.1-0.2,1.3-0.6,1.9c-0.2,0.4-0.6,1-1.1,1c-0.4,0-0.8-0.2-0.8-0.7c0-0.4,0.3-0.6,0.5-0.6
			c0.2,0,0.4,0.1,0.4,0.3c0,0.1-0.1,0.5-0.5,0.5c0.2,0.2,0.4,0.2,0.5,0.2c0.5,0,0.7-0.9,0.9-1.9l0.7-3.9h-0.7c-0.2,0-0.3,0-0.3-0.1
			c0-0.2,0.1-0.2,0.3-0.2h0.7c0.2-1.3,0.3-1.4,0.3-1.6c0.3-1,0.9-1.2,1.3-1.2c0.4,0,0.9,0.2,0.9,0.7c0,0.4-0.3,0.6-0.5,0.6
			c-0.2,0-0.4-0.1-0.4-0.3c0-0.1,0.1-0.5,0.5-0.5c-0.2-0.2-0.4-0.2-0.5-0.2c-0.2,0-0.4,0.1-0.5,0.3c-0.1,0.1-0.2,0.8-0.2,1l-0.2,1.1
			h0.8c0.2,0,0.3,0,0.3,0.1c0,0.2-0.1,0.2-0.3,0.2h-0.9L417.6,128z"/>
	</g>
	<g>
		<path class="st1" d="M425,131.3v-10h1.4v0.4h-1v9.2h1v0.4H425z"/>
		<path class="st1" d="M432.7,128.1c0,0.4,0,0.5,0.8,0.5h0.2v0.3c-0.3,0-1.1,0-1.5,0c-0.4,0-1.1,0-1.5,0v-0.3h0.2
			c0.8,0,0.8-0.1,0.8-0.5v-2.6h-3v2.6c0,0.4,0,0.5,0.8,0.5h0.2v0.3c-0.3,0-1.1,0-1.5,0c-0.4,0-1.1,0-1.5,0v-0.3h0.2
			c0.8,0,0.8-0.1,0.8-0.5v-5.3c0-0.4,0-0.5-0.8-0.5h-0.2V122c0.3,0,1.1,0,1.5,0c0.4,0,1.1,0,1.5,0v0.3h-0.2c-0.8,0-0.8,0.1-0.8,0.5
			v2.3h3v-2.3c0-0.4,0-0.5-0.8-0.5h-0.2V122c0.3,0,1.1,0,1.5,0c0.4,0,1.1,0,1.5,0v0.3h-0.2c-0.8,0-0.8,0.1-0.8,0.5V128.1z"/>
		<path class="st1" d="M435.2,128.6h1.2c1.2,0,1.4-0.4,1.5-1.6h0.2l-0.2,1.9h-3.3c-0.2,0-0.3,0-0.3-0.1c0,0,0-0.1,0.1-0.2l2.8-3.8
			h-1.1c-1.1,0-1.3,0.4-1.3,1.4h-0.2l0.1-1.6h3.2c0.2,0,0.3,0,0.3,0.1c0,0,0,0.1-0.1,0.2L435.2,128.6z"/>
		<path class="st1" d="M440.1,131.3h-1.4v-0.4h1v-9.2h-1v-0.4h1.4V131.3z"/>
	</g>
	<line class="st2" x1="407.5" y1="147.6" x2="223.2" y2="105.1"/>
	<path class="st0" d="M343.7,133.4c0,0,2.9-2,3.5-3.5c0.5-1.1,0-3.5,0-3.5l0,0 M347.2,133.4c0,0,2.9-2,3.5-3.5c0.5-1.1,0-3.5,0-3.5
		l0,0"/>
	<g>
		<path class="st1" d="M369.7,115.9c-0.2,0-0.3,0-0.3-0.2s0.2-0.2,0.3-0.2h5.4c0.2,0,0.3,0,0.3,0.2s-0.2,0.2-0.3,0.2H369.7z"/>
	</g>
	<g>
		<path class="st1" d="M379.4,117.5c0.2,0,0.9,0,0.9-0.1c0.1-0.1,0.2-0.6,0.2-0.9h0.2l-0.3,1.7h-3.7c0-0.2,0-0.3,0.1-0.4l1.9-2.1
			c0.5-0.6,1-1.4,1-2.2c0-0.8-0.4-1.6-1.3-1.6c-0.6,0-1.1,0.4-1.3,1c0,0,0,0,0.1,0c0.3,0,0.5,0.3,0.5,0.5c0,0.4-0.3,0.5-0.5,0.5
			c0,0-0.5,0-0.5-0.6c0-0.9,0.7-1.8,1.9-1.8c1.2,0,2.1,0.8,2.1,1.9c0,1-0.6,1.5-2.2,2.9l-1.1,1H379.4z"/>
	</g>
	<g>
		<path class="st1" d="M383.4,116.7c-0.1,0.5-0.1,0.5-0.3,1c-0.1,0.4-0.2,0.6-0.5,0.6c-0.1,0-0.3-0.1-0.3-0.3c0-0.1,0-0.1,0.1-0.2
			c0.4-0.9,1-2.1,1.3-3.3h-0.6c-0.2,0-0.8,0-1.3,0.8c-0.1,0.1-0.1,0.1-0.2,0.1c-0.1,0-0.1-0.1-0.1-0.1c0,0,0.3-0.5,0.6-0.9
			c0.4-0.5,0.8-0.5,1-0.5h3.3c0.2,0,0.4,0,0.4,0.2c0,0.3-0.4,0.3-0.5,0.3h-1.1c-0.1,0.5-0.2,1.1-0.2,1.6c0,0.3,0,0.9,0.3,1.6
			c0.1,0.1,0.1,0.2,0.1,0.2c0,0.2-0.2,0.4-0.4,0.4c-0.1,0-0.3-0.1-0.4-0.5c-0.1-0.3-0.1-0.6-0.1-0.8c0-0.7,0.1-1.1,0.4-2.6H384
			L383.4,116.7z"/>
	</g>
	<g>
		<path class="st3" d="M388.7,117.2c0,0.2-0.1,0.2-0.1,0.5c0,0.3,0.1,0.5,0.3,0.5c0.3,0,0.9-0.2,1.3-1.3c0-0.1,0.1-0.1,0.1-0.1
			c0,0,0.1,0,0.1,0.1c0,0.1-0.6,1.5-1.6,1.5c-0.5,0-0.9-0.4-0.9-0.9c0-0.2,0-0.3,0.8-3.2h-0.9c-0.2,0-0.3,0-0.3-0.1
			c0-0.2,0.1-0.2,0.3-0.2h0.9l0.4-1.6c0.1-0.3,0.4-0.4,0.4-0.4c0.2,0,0.3,0.1,0.3,0.3c0,0.1,0,0.3-0.4,1.7h0.9c0.2,0,0.3,0,0.3,0.1
			c0,0.2-0.1,0.2-0.3,0.2h-0.9L388.7,117.2z"/>
	</g>
	<g>
		<path class="st3" d="M392.9,119.8c-1.6,0-1.6-1.9-1.6-2.4s0-2.4,1.6-2.4c0.6,0,1,0.3,1.2,0.6c0.3,0.5,0.4,1,0.4,1.8
			C394.5,117.9,394.5,119.8,392.9,119.8z M393.8,118.8c0.1-0.4,0.1-1,0.1-1.5c0-0.6,0-1.1-0.1-1.5c-0.1-0.4-0.5-0.6-0.9-0.6
			c-0.3,0-0.7,0.1-0.9,0.7c-0.1,0.4-0.1,0.9-0.1,1.4c0,0.5,0,1.1,0.1,1.5c0.1,0.6,0.6,0.8,0.9,0.8
			C393.2,119.6,393.7,119.4,393.8,118.8z"/>
	</g>
	<line class="st4" x1="354.3" y1="129.9" x2="365" y2="115.7"/>
</g>
</svg>
