<?xml version="1.0" encoding="utf-8"?>
<!-- Generator: Adobe Illustrator 22.1.0, SVG Export Plug-In . SVG Version: 6.00 Build 0)  -->
<svg version="1.1" id="Layer_1" xmlns="http://www.w3.org/2000/svg" xmlns:xlink="http://www.w3.org/1999/xlink" x="0px" y="0px"
	 viewBox="0 0 450.3 405.8" style="enable-background:new 0 0 450.3 405.8;" xml:space="preserve">
<style type="text/css">
	.st0{fill:none;stroke:#262626;stroke-width:0.5002;stroke-linecap:square;stroke-linejoin:round;stroke-miterlimit:10;}
	.st1{fill:#262626;}
	.st2{fill:none;stroke:#0072BD;stroke-width:3;stroke-linejoin:round;stroke-miterlimit:10;}
	.st3{fill:none;stroke:#000000;stroke-width:2.0003;stroke-linejoin:round;stroke-miterlimit:10;}
	.st4{fill:none;stroke:#000000;stroke-width:0.9997;stroke-linejoin:round;stroke-miterlimit:10;}
	.st5{fill:none;stroke:#000000;stroke-width:0.5002;stroke-linejoin:bevel;stroke-miterlimit:10;stroke-dasharray:0.75,2.25;}
	.st6{fill:#FF0000;}
	.st7{fill:none;stroke:#0000FF;stroke-width:2.0003;stroke-linejoin:round;stroke-miterlimit:10;}
	.st8{fill:none;stroke:#FF0000;stroke-width:2.0003;stroke-linejoin:round;stroke-miterlimit:10;}
	.st9{fill:none;stroke:#00FF00;stroke-width:6;stroke-linejoin:round;stroke-miterlimit:10;}
	.st10{fill:none;stroke:#00FFFF;stroke-width:0.9997;stroke-linejoin:bevel;stroke-miterlimit:10;stroke-dasharray:7.5,4.5;}
	.st11{fill:#00FFFF;}
	.st12{fill:none;stroke:#FF00FF;stroke-width:0.9997;stroke-linejoin:bevel;stroke-miterlimit:10;stroke-dasharray:7.5,4.5;}
	.st13{fill:#FF00FF;}
	.st14{fill:none;stroke:#00FFFF;stroke-width:3;stroke-linejoin:round;stroke-miterlimit:10;}
	.st15{fill:none;stroke:#FF00FF;stroke-width:3;stroke-linejoin:round;stroke-miterlimit:10;}
</style>
<g>
	<path class="st0" d="M33.1,403.2h385.5 M33.1,17.7h385.5 M33.1,403.2V17.7 M418.6,403.2V17.7"/>
	<path class="st1" d="M7.6,161.5c0-0.1,0-0.2,0.1-0.2c0.1-0.1,0.1-0.1,0.2-0.1s0.2,0,0.2,0.1c0.1,0.1,0.1,0.1,0.1,0.2v12
		c0.3-0.4,0.6-0.8,1-1.1c0.4-0.3,0.8-0.6,1.2-0.8c0.4-0.2,0.9-0.4,1.4-0.4c0.1,0,0.2,0.1,0.2,0.2v0.3c0,0,0,0.1,0,0.1
		c0,0-0.1,0-0.1,0.1c-0.5,0.1-0.9,0.2-1.3,0.4c-0.4,0.2-0.7,0.4-1.1,0.7c-0.3,0.3-0.6,0.6-0.9,0.9c-0.2,0.4-0.4,0.7-0.6,1.2
		c0,0.1-0.1,0.1-0.2,0.1c-0.1,0-0.1,0-0.2-0.1c-0.2-0.5-0.5-1-0.8-1.5c-0.4-0.5-0.8-0.8-1.3-1.1c-0.5-0.3-1.1-0.5-1.6-0.6
		c0,0-0.1,0-0.1-0.1c0,0,0-0.1,0-0.1v-0.3c0-0.1,0.1-0.2,0.2-0.2c0.7,0.1,1.4,0.4,2,0.8c0.6,0.4,1.2,0.9,1.6,1.5V161.5L7.6,161.5z"
		/>
	<path class="st1" d="M5.8,183.2h4.3v-1.3h0.4c0,0.7,0.3,1.2,1,1.5c0.6,0.3,1.3,0.5,2.1,0.5v0.5h-2.9v2.2h-0.6v-2.2H5.9
		c-0.4,0-0.8,0.1-1.1,0.2c-0.3,0.1-0.5,0.4-0.5,0.8c0,0.4,0.2,0.6,0.5,0.8c0.3,0.2,0.7,0.2,1.1,0.2h0.9v0.4h-1c-0.3,0-0.7-0.1-1-0.2
		c-0.3-0.1-0.6-0.3-0.8-0.5c-0.2-0.2-0.3-0.5-0.3-0.9c0-0.6,0.2-1.1,0.6-1.5S5.2,183.2,5.8,183.2L5.8,183.2z"/>
	<path class="st1" d="M3.9,188.3h0.6c0,0.4,0,0.7,0.1,0.9c0.1,0.2,0.2,0.3,0.4,0.3h4.3c0.4,0,0.7-0.1,0.7-0.2
		c0.1-0.2,0.1-0.5,0.1-0.9h0.6l0.2,2.3H5c-0.2,0-0.4,0.1-0.4,0.3c-0.1,0.2-0.1,0.5-0.1,0.8H3.9V188.3L3.9,188.3z M13.6,189
		c0.2,0,0.4,0.1,0.6,0.3c0.2,0.2,0.3,0.4,0.3,0.6c0,0.1,0,0.3-0.1,0.4c-0.1,0.1-0.2,0.2-0.3,0.3c-0.1,0.1-0.3,0.1-0.4,0.1
		c-0.2,0-0.4-0.1-0.6-0.3c-0.2-0.2-0.3-0.4-0.3-0.6c0-0.2,0.1-0.4,0.3-0.6C13.2,189.1,13.4,189,13.6,189L13.6,189z"/>
	<path class="st1" d="M3.9,192.7h0.6c0,0.4,0,0.7,0.1,0.9c0.1,0.2,0.2,0.3,0.4,0.3h4.3c0.3,0,0.5,0,0.6-0.1s0.2-0.2,0.2-0.4
		c0-0.2,0-0.4,0-0.7h0.6l0.2,2.3H9.4c0.4,0.2,0.8,0.5,1.1,0.9c0.3,0.4,0.4,0.9,0.4,1.3c0,1.2-0.5,1.9-1.5,2.1
		c0.4,0.2,0.8,0.5,1.1,0.9c0.3,0.4,0.4,0.8,0.4,1.3c0,0.5-0.1,0.9-0.2,1.2c-0.2,0.3-0.4,0.6-0.7,0.7c-0.3,0.2-0.7,0.2-1.2,0.2H5
		c-0.2,0-0.4,0.1-0.4,0.4c-0.1,0.2-0.1,0.5-0.1,0.9H3.9v-3.6h0.6c0,0.4,0,0.6,0.1,0.9c0.1,0.2,0.2,0.4,0.4,0.4h3.7
		c0.5,0,0.9-0.1,1.3-0.2c0.3-0.2,0.5-0.5,0.5-0.9c0-0.6-0.2-1.1-0.7-1.5c-0.5-0.4-1-0.6-1.7-0.6H5c-0.2,0-0.4,0.1-0.4,0.3
		c-0.1,0.2-0.1,0.5-0.1,0.9H3.9v-3.6h0.6c0,0.4,0,0.7,0.1,0.9c0.1,0.2,0.2,0.3,0.4,0.3h3.7c0.5,0,0.9-0.1,1.3-0.2s0.5-0.5,0.5-0.9
		c0-0.6-0.2-1.1-0.7-1.5c-0.5-0.4-1-0.6-1.7-0.6H5c-0.2,0-0.4,0.1-0.4,0.4c-0.1,0.2-0.1,0.5-0.1,0.9H3.9V192.7L3.9,192.7z"/>
	<path class="st1" d="M3.8,209.5c0-0.6,0.2-1.2,0.5-1.8c0.3-0.5,0.8-1,1.3-1.3c0.6-0.3,1.2-0.5,1.8-0.5c0.6,0,1.2,0.1,1.7,0.4
		c0.6,0.3,1,0.7,1.3,1.2c0.3,0.5,0.5,1.1,0.5,1.7c0,0.5-0.1,0.9-0.2,1.3c-0.2,0.4-0.4,0.7-0.7,0.9c-0.3,0.2-0.6,0.4-1,0.5
		c-0.4,0.1-0.8,0.2-1.3,0.2c-0.1,0-0.2-0.1-0.2-0.2v-4.6H7.4c-0.9,0-1.6,0.2-2.3,0.5s-0.9,0.9-0.9,1.7c0,0.3,0.1,0.6,0.2,0.9
		c0.1,0.3,0.3,0.5,0.6,0.7c0.3,0.2,0.5,0.3,0.8,0.4c0,0,0.1,0,0.1,0.1c0,0,0,0.1,0,0.1v0.1c0,0.1-0.1,0.2-0.2,0.2
		c-0.6-0.1-1.1-0.5-1.5-1C4,210.7,3.8,210.1,3.8,209.5L3.8,209.5z M8,207.4v3.6c0.4,0,0.8-0.1,1.2-0.2c0.4-0.1,0.7-0.3,1-0.6
		c0.3-0.3,0.4-0.6,0.4-1c0-0.6-0.3-1.1-0.8-1.4C9.2,207.6,8.6,207.4,8,207.4L8,207.4z"/>
	<polygon class="st1" points="0,219.9 15.8,219.9 15.8,222.1 15.1,222.1 15.1,220.5 0.6,220.5 0.6,222.1 0,222.1 0,219.9 	"/>
	<path class="st1" d="M3.9,223h2.6c0.1,0,0.1,0,0.1,0.1v0.2c0,0.1,0,0.1-0.1,0.1c-1.5,0.3-2.3,1-2.3,2.1c0,0.5,0.1,0.9,0.3,1.3
		c0.2,0.3,0.6,0.5,1,0.5c0.3,0,0.6-0.1,0.9-0.4c0.2-0.3,0.4-0.6,0.5-0.9l0.2-1.1c0.1-0.4,0.2-0.7,0.4-1c0.2-0.3,0.4-0.5,0.6-0.7
		c0.3-0.2,0.6-0.3,0.9-0.3c0.5,0,0.9,0.1,1.1,0.4c0.3,0.2,0.5,0.6,0.6,0.9c0.1,0.4,0.2,0.8,0.2,1.3c0,0.5-0.1,1-0.4,1.4l0.4,0.4
		c0,0,0,0,0,0.1v0.1c0,0,0,0.1,0,0.1c0,0-0.1,0-0.1,0H8.8c-0.1,0-0.1,0-0.1-0.1v-0.2c0-0.1,0-0.1,0.1-0.1c0.6,0,1-0.2,1.3-0.5
		c0.3-0.3,0.5-0.7,0.5-1.3c0-0.5-0.1-0.9-0.3-1.2c-0.2-0.3-0.5-0.5-0.9-0.5c-0.3,0-0.5,0.1-0.7,0.4c-0.2,0.3-0.3,0.5-0.4,0.9
		l-0.2,1.1c-0.1,0.4-0.2,0.7-0.4,1c-0.2,0.3-0.4,0.6-0.7,0.7c-0.3,0.2-0.6,0.3-1,0.3c-0.4,0-0.7-0.1-1-0.2c-0.3-0.1-0.5-0.3-0.7-0.6
		c-0.2-0.2-0.3-0.5-0.4-0.8c-0.1-0.3-0.1-0.7-0.1-1c0-0.7,0.2-1.2,0.7-1.7l-0.6-0.6c0,0,0,0,0-0.1v-0.1C3.8,223.1,3.8,223,3.9,223
		L3.9,223z"/>
	<path class="st1" d="M3.8,232.7c0-0.6,0.2-1.2,0.5-1.8c0.3-0.5,0.8-1,1.3-1.3c0.6-0.3,1.2-0.5,1.8-0.5c0.6,0,1.2,0.1,1.7,0.4
		c0.6,0.3,1,0.7,1.3,1.2c0.3,0.5,0.5,1.1,0.5,1.7c0,0.5-0.1,0.9-0.2,1.3c-0.2,0.4-0.4,0.7-0.7,0.9c-0.3,0.2-0.6,0.4-1,0.5
		c-0.4,0.1-0.8,0.2-1.3,0.2c-0.1,0-0.2-0.1-0.2-0.2v-4.6H7.4c-0.9,0-1.6,0.2-2.3,0.5c-0.6,0.4-0.9,0.9-0.9,1.7
		c0,0.3,0.1,0.6,0.2,0.9c0.1,0.3,0.3,0.5,0.6,0.7c0.3,0.2,0.5,0.3,0.8,0.4c0,0,0.1,0,0.1,0.1c0,0,0,0.1,0,0.1v0.1
		c0,0.1-0.1,0.2-0.2,0.2c-0.6-0.1-1.1-0.5-1.5-1C4,233.9,3.8,233.3,3.8,232.7L3.8,232.7z M8,230.6v3.6c0.4,0,0.8-0.1,1.2-0.2
		c0.4-0.1,0.7-0.3,1-0.6c0.3-0.3,0.4-0.6,0.4-1c0-0.6-0.3-1.1-0.8-1.4C9.2,230.8,8.6,230.6,8,230.6L8,230.6z"/>
	<path class="st1" d="M3.8,239.8c0-0.6,0.2-1.2,0.5-1.7s0.8-0.9,1.3-1.2c0.6-0.3,1.1-0.4,1.8-0.4c0.6,0,1.2,0.1,1.8,0.4
		c0.6,0.3,1,0.7,1.4,1.2c0.3,0.5,0.5,1.1,0.5,1.7c0,0.6-0.1,1.2-0.4,1.7c-0.2,0.5-0.6,0.8-1.2,0.8c-0.2,0-0.4-0.1-0.5-0.2
		c-0.1-0.1-0.2-0.3-0.2-0.5c0-0.2,0.1-0.4,0.2-0.5c0.1-0.1,0.3-0.2,0.5-0.2c0.2,0,0.3,0.1,0.5,0.2c0.1,0.1,0.2,0.3,0.3,0.4
		c0.2-0.4,0.3-0.9,0.3-1.5c0-0.5-0.2-0.9-0.5-1.2c-0.3-0.3-0.7-0.5-1.2-0.7c-0.5-0.1-1-0.2-1.5-0.2c-0.5,0-1,0.1-1.5,0.2
		c-0.5,0.2-0.9,0.4-1.2,0.7s-0.5,0.8-0.5,1.3c0,0.5,0.2,0.9,0.5,1.3c0.3,0.3,0.7,0.6,1.2,0.7c0.1,0,0.1,0,0.1,0.1v0.2
		c0,0,0,0.1,0,0.1c0,0-0.1,0-0.1,0h0c-0.6-0.2-1.1-0.5-1.5-0.9C3.9,241,3.8,240.5,3.8,239.8L3.8,239.8z"/>
	<polygon class="st1" points="0,243.4 0.6,243.4 0.6,244.9 15.1,244.9 15.1,243.4 15.8,243.4 15.8,245.5 0,245.5 0,243.4 	"/>
	<path d="M1.4,10V9.5c1,0,1.5-0.1,1.5-0.4V1.3c0-0.3-0.5-0.5-1.5-0.5V0.3h4.5c0.5,0,1.1,0.1,1.7,0.3c0.6,0.2,1.1,0.5,1.5,0.9
		c0.4,0.4,0.6,0.9,0.6,1.4c0,0.4-0.1,0.8-0.4,1.1C9,4.3,8.7,4.5,8.4,4.7C8,5,7.6,5.1,7.2,5.2C7.6,5.4,8,5.6,8.3,5.9
		C8.7,6.2,8.9,6.6,8.9,7l0.2,1.3c0.1,0.6,0.2,1,0.3,1.3C9.5,9.8,9.7,10,10.1,10c0.3,0,0.5-0.1,0.7-0.4C10.9,9.3,11,9,11,8.7
		c0,0,0-0.1,0-0.1c0,0,0.1,0,0.1,0h0.1c0.1,0,0.1,0.1,0.1,0.2c0,0.3-0.1,0.5-0.2,0.8c-0.1,0.2-0.2,0.5-0.4,0.6
		c-0.2,0.2-0.4,0.2-0.7,0.2c-0.7,0-1.3-0.2-1.8-0.5C7.8,9.5,7.6,9,7.6,8.3V7.1c0-0.5-0.2-0.9-0.5-1.2C6.8,5.5,6.4,5.4,5.9,5.4H4.2
		v3.7c0,0.3,0.5,0.4,1.5,0.4V10H1.4L1.4,10z M4.2,5h1.5c0.8,0,1.4-0.2,1.8-0.5c0.4-0.3,0.6-0.9,0.6-1.6c0-0.8-0.2-1.3-0.6-1.6
		C7.1,1,6.5,0.8,5.7,0.8H4.9c-0.2,0-0.3,0-0.4,0C4.4,0.8,4.3,0.9,4.3,1C4.2,1,4.2,1.1,4.2,1.3V5L4.2,5z"/>
	<path d="M14.8,10.2c-0.6,0-1.1-0.2-1.6-0.5c-0.5-0.3-0.9-0.7-1.1-1.2c-0.3-0.5-0.4-1-0.4-1.6c0-0.6,0.1-1.1,0.4-1.6
		s0.6-0.9,1.1-1.2c0.4-0.3,1-0.5,1.5-0.5c0.4,0,0.8,0.1,1.1,0.2c0.3,0.1,0.6,0.3,0.8,0.6c0.2,0.3,0.4,0.6,0.5,0.9
		c0.1,0.4,0.2,0.7,0.2,1.2c0,0.1-0.1,0.2-0.2,0.2h-4.1v0.2c0,0.8,0.2,1.5,0.5,2c0.3,0.6,0.8,0.8,1.6,0.8c0.3,0,0.6-0.1,0.8-0.2
		C16,9.5,16.2,9.3,16.4,9c0.2-0.2,0.3-0.5,0.4-0.7c0,0,0-0.1,0-0.1c0,0,0.1,0,0.1,0H17c0.1,0,0.2,0.1,0.2,0.2
		c-0.1,0.5-0.4,1-0.9,1.3C15.8,10,15.4,10.2,14.8,10.2L14.8,10.2z M12.9,6.4h3.3c0-0.4-0.1-0.7-0.2-1.1c-0.1-0.4-0.3-0.7-0.5-0.9
		C15.3,4.2,15,4,14.6,4c-0.5,0-1,0.3-1.3,0.8S12.9,5.8,12.9,6.4L12.9,6.4z"/>
	<path d="M17.9,10.1V7.8c0-0.1,0-0.1,0.1-0.1h0.2c0.1,0,0.1,0,0.1,0.1c0.3,1.4,0.9,2.1,1.9,2.1c0.5,0,0.8-0.1,1.1-0.3
		c0.3-0.2,0.5-0.5,0.5-0.9c0-0.3-0.1-0.6-0.4-0.8c-0.2-0.2-0.5-0.4-0.8-0.4l-1-0.2c-0.3-0.1-0.6-0.2-0.9-0.3
		c-0.3-0.1-0.5-0.3-0.6-0.6C18,6,17.9,5.8,17.9,5.4c0-0.4,0.1-0.8,0.3-1c0.2-0.3,0.5-0.5,0.9-0.6c0.4-0.1,0.7-0.2,1.1-0.2
		c0.5,0,0.9,0.1,1.3,0.4L22,3.7c0,0,0,0,0.1,0h0.1c0,0,0,0,0.1,0c0,0,0,0.1,0,0.1v1.9c0,0.1,0,0.1-0.1,0.1H22c-0.1,0-0.1,0-0.1-0.1
		c0-0.5-0.1-0.9-0.4-1.2C21.2,4.1,20.8,4,20.3,4c-0.4,0-0.8,0.1-1.1,0.2c-0.3,0.2-0.5,0.4-0.5,0.8c0,0.3,0.1,0.5,0.3,0.7
		s0.5,0.3,0.8,0.4l1,0.2c0.3,0.1,0.6,0.2,0.9,0.4C22,6.8,22.2,7,22.4,7.3c0.2,0.3,0.3,0.6,0.3,0.9c0,0.3-0.1,0.6-0.2,0.9
		c-0.1,0.3-0.3,0.5-0.5,0.6c-0.2,0.2-0.5,0.3-0.7,0.4c-0.3,0.1-0.6,0.1-0.9,0.1c-0.6,0-1.1-0.2-1.5-0.6l-0.5,0.6c0,0,0,0-0.1,0h-0.1
		C18,10.2,17.9,10.2,17.9,10.1L17.9,10.1z"/>
	<path d="M24.5,8.3V5.2c0-0.3,0-0.4-0.1-0.6c-0.1-0.1-0.2-0.2-0.3-0.2c-0.1,0-0.4,0-0.7,0V3.9l2.2-0.2v4.6c0,0.4,0,0.7,0.1,0.9
		c0.1,0.2,0.2,0.4,0.3,0.5c0.2,0.1,0.4,0.2,0.8,0.2c0.5,0,0.9-0.2,1.2-0.6c0.3-0.4,0.5-0.9,0.5-1.5V5.2c0-0.3,0-0.4-0.1-0.6
		c-0.1-0.1-0.2-0.2-0.3-0.2c-0.1,0-0.4,0-0.7,0V3.9l2.1-0.2v5c0,0.3,0,0.4,0.1,0.5c0.1,0.1,0.2,0.2,0.3,0.2c0.1,0,0.4,0,0.7,0V10
		l-2.1,0.2V9c-0.2,0.4-0.4,0.7-0.7,0.9c-0.3,0.2-0.7,0.3-1,0.3c-0.7,0-1.2-0.1-1.6-0.4C24.7,9.5,24.5,9,24.5,8.3L24.5,8.3z"/>
	<path d="M31.2,10V9.5c0.3,0,0.6,0,0.8-0.1c0.2-0.1,0.3-0.2,0.3-0.4V1.6c0-0.3,0-0.4-0.1-0.5c-0.1-0.1-0.2-0.2-0.3-0.2
		c-0.1,0-0.4,0-0.7,0V0.3l2.1-0.2v8.9c0,0.2,0.1,0.3,0.3,0.4c0.2,0.1,0.5,0.1,0.8,0.1V10H31.2L31.2,10z"/>
	<path d="M36.1,8.3V4.4h-1.2V4c0.6,0,1.1-0.3,1.4-0.9c0.3-0.6,0.4-1.2,0.4-1.9h0.4v2.6h2v0.5h-2v3.9c0,0.4,0.1,0.7,0.2,1
		c0.1,0.3,0.4,0.4,0.7,0.4c0.3,0,0.6-0.2,0.7-0.5C38.9,9,39,8.7,39,8.3V7.5h0.4v0.9c0,0.3-0.1,0.6-0.2,0.9c-0.1,0.3-0.3,0.5-0.5,0.7
		c-0.2,0.2-0.5,0.3-0.8,0.3c-0.6,0-1-0.2-1.4-0.5C36.3,9.3,36.1,8.9,36.1,8.3L36.1,8.3z"/>
	<path d="M45.1,12.8v-0.5c0.3,0,0.6,0,0.8-0.1s0.3-0.2,0.3-0.4V5c0-0.3-0.1-0.4-0.3-0.5c-0.2-0.1-0.5-0.1-0.8-0.1V3.9l2.1-0.2v0.9
		c0.3-0.3,0.6-0.5,0.9-0.7c0.3-0.1,0.7-0.2,1.1-0.2c0.6,0,1.1,0.2,1.5,0.5c0.4,0.3,0.8,0.7,1.1,1.2c0.3,0.5,0.4,1,0.4,1.6
		c0,0.6-0.1,1.1-0.4,1.6c-0.3,0.5-0.7,0.9-1.1,1.2c-0.5,0.3-1,0.4-1.6,0.4c-0.7,0-1.3-0.3-1.8-0.8v2.5c0,0.2,0.1,0.3,0.3,0.4
		c0.2,0.1,0.5,0.1,0.8,0.1v0.5H45.1L45.1,12.8z M47.3,8.7C47.5,9,47.7,9.3,48,9.5c0.3,0.2,0.6,0.3,1,0.3c0.3,0,0.6-0.1,0.9-0.3
		c0.3-0.2,0.5-0.4,0.6-0.7c0.2-0.3,0.3-0.6,0.4-0.9C50.9,7.6,51,7.3,51,7c0-0.4-0.1-0.8-0.2-1.2c-0.1-0.4-0.3-0.8-0.6-1.1
		c-0.3-0.3-0.6-0.5-1-0.5c-0.4,0-0.7,0.1-1.1,0.3c-0.3,0.2-0.6,0.5-0.8,0.8V8.7L47.3,8.7z"/>
	<path d="M53,10V9.5c0.3,0,0.6,0,0.8-0.1c0.2-0.1,0.3-0.2,0.3-0.4V1.6c0-0.3,0-0.4-0.1-0.5c-0.1-0.1-0.2-0.2-0.3-0.2
		c-0.1,0-0.4,0-0.7,0V0.3l2.1-0.2v4.9c0.2-0.4,0.5-0.7,0.8-0.9c0.4-0.2,0.8-0.4,1.2-0.4c0.7,0,1.1,0.2,1.5,0.5
		c0.3,0.3,0.5,0.8,0.5,1.5v3.4c0,0.2,0.1,0.3,0.3,0.4c0.2,0.1,0.5,0.1,0.8,0.1V10h-3.3V9.5c0.3,0,0.6,0,0.8-0.1
		c0.2-0.1,0.3-0.2,0.3-0.4V5.7c0-0.5-0.1-0.8-0.2-1.1c-0.1-0.3-0.4-0.5-0.8-0.5c-0.6,0-1,0.2-1.4,0.7c-0.4,0.4-0.5,0.9-0.5,1.5v2.8
		c0,0.2,0.1,0.3,0.3,0.4c0.2,0.1,0.5,0.1,0.8,0.1V10H53L53,10z"/>
	<path d="M60.9,8.6c0-0.6,0.2-1,0.7-1.4c0.4-0.4,1-0.6,1.6-0.8s1.2-0.2,1.8-0.2V5.7c0-0.3-0.1-0.5-0.2-0.8c-0.1-0.3-0.3-0.5-0.5-0.6
		C64,4.1,63.8,4,63.5,4c-0.6,0-1.1,0.1-1.4,0.4c0.2,0,0.3,0.1,0.5,0.2c0.1,0.1,0.2,0.3,0.2,0.5c0,0.2-0.1,0.4-0.2,0.5
		c-0.1,0.1-0.3,0.2-0.5,0.2c-0.2,0-0.4-0.1-0.5-0.2c-0.1-0.1-0.2-0.3-0.2-0.5c0-0.5,0.2-0.9,0.7-1.1c0.5-0.2,1-0.4,1.5-0.4
		c0.4,0,0.8,0.1,1.2,0.2c0.4,0.2,0.7,0.4,1,0.7S66,5.3,66,5.7v3.2c0,0.2,0,0.4,0.1,0.5c0.1,0.2,0.2,0.2,0.4,0.2
		c0.2,0,0.3-0.1,0.4-0.2c0.1-0.2,0.1-0.3,0.1-0.5V8h0.4v0.9c0,0.2-0.1,0.4-0.2,0.6c-0.1,0.2-0.3,0.3-0.5,0.5
		c-0.2,0.1-0.4,0.2-0.6,0.2c-0.3,0-0.5-0.1-0.7-0.3c-0.2-0.2-0.3-0.5-0.3-0.8c-0.2,0.4-0.4,0.6-0.8,0.9s-0.7,0.3-1.1,0.3
		c-0.4,0-0.7-0.1-1.1-0.2c-0.3-0.1-0.6-0.3-0.9-0.5C61,9.3,60.9,9,60.9,8.6L60.9,8.6z M62.1,8.6c0,0.3,0.1,0.6,0.4,0.8
		s0.5,0.3,0.9,0.3c0.3,0,0.6-0.1,0.8-0.2c0.3-0.2,0.4-0.4,0.6-0.6c0.1-0.3,0.2-0.5,0.2-0.8V6.7c-0.4,0-0.9,0.1-1.3,0.2
		c-0.5,0.1-0.8,0.4-1.1,0.7C62.2,7.8,62.1,8.2,62.1,8.6L62.1,8.6z"/>
	<path d="M67.8,10.1V7.8c0-0.1,0-0.1,0.1-0.1h0.2c0.1,0,0.1,0,0.1,0.1c0.3,1.4,0.9,2.1,1.9,2.1c0.5,0,0.8-0.1,1.1-0.3
		c0.3-0.2,0.5-0.5,0.5-0.9c0-0.3-0.1-0.6-0.4-0.8c-0.2-0.2-0.5-0.4-0.8-0.4l-1-0.2C69.2,7.1,69,7,68.7,6.8c-0.3-0.1-0.5-0.3-0.6-0.6
		c-0.2-0.2-0.3-0.5-0.3-0.8c0-0.4,0.1-0.8,0.3-1c0.2-0.3,0.5-0.5,0.9-0.6c0.4-0.1,0.7-0.2,1.1-0.2c0.5,0,0.9,0.1,1.3,0.4l0.4-0.4
		c0,0,0,0,0.1,0H72c0,0,0,0,0.1,0c0,0,0,0.1,0,0.1v1.9c0,0.1,0,0.1-0.1,0.1h-0.2c-0.1,0-0.1,0-0.1-0.1c0-0.5-0.1-0.9-0.4-1.2
		C71,4.1,70.6,4,70.1,4c-0.4,0-0.8,0.1-1.1,0.2c-0.3,0.2-0.5,0.4-0.5,0.8c0,0.3,0.1,0.5,0.3,0.7c0.2,0.2,0.5,0.3,0.8,0.4l1,0.2
		c0.3,0.1,0.6,0.2,0.9,0.4C71.8,6.8,72,7,72.2,7.3s0.3,0.6,0.3,0.9c0,0.3-0.1,0.6-0.2,0.9c-0.1,0.3-0.3,0.5-0.5,0.6
		c-0.2,0.2-0.5,0.3-0.7,0.4c-0.3,0.1-0.6,0.1-0.9,0.1c-0.6,0-1.1-0.2-1.5-0.6l-0.5,0.6c0,0,0,0-0.1,0h-0.1
		C67.8,10.2,67.8,10.2,67.8,10.1L67.8,10.1z"/>
	<path d="M76.4,10.2c-0.6,0-1.1-0.1-1.6-0.4c-0.5-0.3-0.9-0.7-1.2-1.2c-0.3-0.5-0.4-1-0.4-1.6c0-0.4,0.1-0.9,0.2-1.3
		c0.2-0.4,0.4-0.8,0.7-1.1c0.3-0.3,0.6-0.6,1-0.7c0.4-0.2,0.8-0.3,1.3-0.3c0.6,0,1.1,0.2,1.6,0.5c0.5,0.3,0.9,0.7,1.1,1.2
		s0.4,1.1,0.4,1.7c0,0.6-0.1,1.1-0.4,1.6c-0.3,0.5-0.7,0.9-1.2,1.2C77.5,10.1,77,10.2,76.4,10.2L76.4,10.2z M76.4,9.8
		c0.8,0,1.3-0.3,1.5-0.8c0.3-0.6,0.4-1.3,0.4-2.1c0-0.5,0-0.9-0.1-1.2c-0.1-0.3-0.2-0.6-0.3-0.9c-0.1-0.2-0.2-0.3-0.4-0.4
		c-0.2-0.1-0.3-0.2-0.5-0.3C76.8,4.1,76.6,4,76.4,4c-0.3,0-0.6,0.1-0.8,0.2c-0.3,0.1-0.5,0.3-0.7,0.6c-0.2,0.3-0.3,0.6-0.3,0.9
		c-0.1,0.3-0.1,0.7-0.1,1.1c0,0.5,0,1,0.1,1.4c0.1,0.4,0.3,0.8,0.6,1.1C75.5,9.6,75.9,9.8,76.4,9.8L76.4,9.8z"/>
	<path d="M80.2,10V9.5c0.3,0,0.6,0,0.8-0.1c0.2-0.1,0.3-0.2,0.3-0.4V5.2c0-0.3,0-0.4-0.1-0.6c-0.1-0.1-0.2-0.2-0.3-0.2
		c-0.1,0-0.4,0-0.7,0V3.9l2-0.2v1.4c0.2-0.4,0.4-0.7,0.7-1c0.3-0.3,0.6-0.4,1-0.4c0.3,0,0.5,0.1,0.8,0.2C84.9,4.2,85,4.4,85,4.7
		C85,4.8,85,5,84.9,5.1c-0.1,0.1-0.3,0.2-0.5,0.2c-0.2,0-0.3-0.1-0.5-0.2c-0.1-0.1-0.2-0.3-0.2-0.5c0-0.3,0.1-0.4,0.3-0.5h-0.1
		c-0.4,0-0.7,0.1-0.9,0.4c-0.2,0.3-0.4,0.6-0.5,1s-0.2,0.8-0.2,1.2v2.3c0,0.3,0.5,0.4,1.4,0.4V10H80.2L80.2,10z"/>
	<path d="M86.8,12.6c0,0,0-0.1,0-0.1c0.3-0.3,0.6-0.7,0.8-1.1c0.2-0.4,0.3-0.9,0.3-1.4V9.8C87.7,10,87.5,10,87.3,10
		c-0.2,0-0.4-0.1-0.6-0.2c-0.2-0.2-0.2-0.3-0.2-0.6c0-0.2,0.1-0.4,0.2-0.6c0.2-0.1,0.3-0.2,0.6-0.2c0.3,0,0.6,0.2,0.7,0.5
		c0.1,0.3,0.2,0.7,0.2,1c0,0.5-0.1,1-0.3,1.5c-0.2,0.5-0.5,0.9-0.9,1.3c0,0-0.1,0-0.1,0c0,0-0.1,0-0.1-0.1
		C86.8,12.7,86.8,12.7,86.8,12.6L86.8,12.6z"/>
	<path d="M97,10l-1.8-5.2c-0.1-0.2-0.2-0.3-0.4-0.4c-0.2-0.1-0.4-0.1-0.7-0.1V3.9h2.9v0.5c-0.6,0-0.8,0.1-0.8,0.4c0,0,0,0,0,0
		c0,0,0,0,0,0.1l1.4,3.8l1.2-3.3l-0.2-0.5c-0.1-0.2-0.2-0.3-0.4-0.4c-0.2-0.1-0.4-0.1-0.7-0.1V3.9h2.8v0.5c-0.6,0-0.8,0.1-0.8,0.4
		c0,0,0,0.1,0,0.1l1.4,4l1.3-3.6c0-0.1,0-0.1,0-0.2c0-0.2-0.1-0.4-0.3-0.5c-0.2-0.1-0.4-0.2-0.6-0.2V3.9h2.4v0.5
		c-0.3,0-0.5,0.1-0.7,0.2c-0.2,0.2-0.4,0.4-0.5,0.6L101,10c0,0.1-0.1,0.2-0.2,0.2h-0.1c-0.1,0-0.2-0.1-0.2-0.2L99,6L97.6,10
		c0,0.1-0.1,0.2-0.2,0.2h-0.1C97.2,10.2,97.1,10.2,97,10L97,10z"/>
	<path d="M104.4,10V9.5c0.3,0,0.6,0,0.8-0.1c0.2-0.1,0.3-0.2,0.3-0.4V5.2c0-0.4-0.1-0.6-0.2-0.7c-0.1-0.1-0.4-0.1-0.8-0.1V3.9
		l2.1-0.2v5.3c0,0.2,0.1,0.3,0.3,0.4c0.2,0.1,0.4,0.1,0.7,0.1V10H104.4L104.4,10z M105,1.3c0-0.2,0.1-0.4,0.2-0.6
		c0.2-0.2,0.3-0.2,0.6-0.2c0.1,0,0.3,0,0.4,0.1c0.1,0.1,0.2,0.2,0.3,0.3c0.1,0.1,0.1,0.3,0.1,0.4c0,0.2-0.1,0.4-0.2,0.5
		c-0.2,0.2-0.3,0.2-0.5,0.2c-0.2,0-0.4-0.1-0.6-0.2C105.1,1.7,105,1.5,105,1.3L105,1.3z"/>
	<path d="M109.3,8.3V4.4h-1.2V4c0.6,0,1.1-0.3,1.4-0.9S110,2,110,1.3h0.4v2.6h2v0.5h-2v3.9c0,0.4,0.1,0.7,0.2,1
		c0.1,0.3,0.4,0.4,0.7,0.4c0.3,0,0.6-0.2,0.7-0.5c0.1-0.3,0.2-0.6,0.2-1V7.5h0.4v0.9c0,0.3-0.1,0.6-0.2,0.9
		c-0.1,0.3-0.3,0.5-0.5,0.7c-0.2,0.2-0.5,0.3-0.8,0.3c-0.6,0-1-0.2-1.4-0.5C109.5,9.3,109.3,8.9,109.3,8.3L109.3,8.3z"/>
	<path d="M113.8,10V9.5c0.3,0,0.6,0,0.8-0.1c0.2-0.1,0.3-0.2,0.3-0.4V1.6c0-0.3,0-0.4-0.1-0.5c-0.1-0.1-0.2-0.2-0.3-0.2
		s-0.4,0-0.7,0V0.3l2.1-0.2v4.9c0.2-0.4,0.5-0.7,0.8-0.9c0.4-0.2,0.8-0.4,1.2-0.4c0.7,0,1.2,0.2,1.5,0.5c0.3,0.3,0.5,0.8,0.5,1.5
		v3.4c0,0.2,0.1,0.3,0.3,0.4c0.2,0.1,0.5,0.1,0.8,0.1V10h-3.3V9.5c0.3,0,0.6,0,0.8-0.1c0.2-0.1,0.3-0.2,0.3-0.4V5.7
		c0-0.5-0.1-0.8-0.2-1.1c-0.1-0.3-0.4-0.5-0.8-0.5c-0.6,0-1,0.2-1.4,0.7c-0.4,0.4-0.5,0.9-0.5,1.5v2.8c0,0.2,0.1,0.3,0.3,0.4
		c0.2,0.1,0.5,0.1,0.8,0.1V10H113.8L113.8,10z"/>
	<path d="M126.2,10V9.5c0.3,0,0.6,0,0.8-0.1c0.2-0.1,0.3-0.2,0.3-0.4V4.4h-1.1V3.9h1.1V2.2c0-0.3,0.1-0.6,0.2-0.9
		c0.1-0.3,0.3-0.5,0.5-0.7c0.2-0.2,0.5-0.4,0.7-0.5c0.3-0.1,0.6-0.2,0.9-0.2c0.3,0,0.6,0.1,0.9,0.3c0.3,0.2,0.4,0.4,0.4,0.8
		c0,0.2-0.1,0.3-0.2,0.5c-0.1,0.1-0.3,0.2-0.5,0.2s-0.3-0.1-0.5-0.2c-0.1-0.1-0.2-0.3-0.2-0.5c0-0.3,0.1-0.5,0.4-0.6
		c-0.2-0.1-0.3-0.1-0.4-0.1c-0.3,0-0.5,0.1-0.7,0.3c-0.2,0.2-0.3,0.4-0.4,0.7c-0.1,0.3-0.1,0.6-0.1,0.8v1.7h1.6v0.5h-1.6v4.7
		c0,0.2,0.1,0.3,0.4,0.4c0.3,0.1,0.6,0.1,1,0.1V10H126.2L126.2,10z"/>
	<path d="M130.4,10V9.5c0.3,0,0.6,0,0.8-0.1c0.2-0.1,0.3-0.2,0.3-0.4V5.2c0-0.3,0-0.4-0.1-0.6c-0.1-0.1-0.2-0.2-0.3-0.2
		c-0.1,0-0.4,0-0.7,0V3.9l2-0.2v1.4c0.2-0.4,0.4-0.7,0.7-1c0.3-0.3,0.6-0.4,1-0.4c0.3,0,0.5,0.1,0.8,0.2c0.2,0.2,0.3,0.4,0.3,0.7
		c0,0.2-0.1,0.3-0.2,0.5s-0.3,0.2-0.5,0.2c-0.2,0-0.3-0.1-0.5-0.2C134,5,134,4.8,134,4.7c0-0.3,0.1-0.4,0.3-0.5h-0.1
		c-0.4,0-0.7,0.1-0.9,0.4c-0.2,0.3-0.4,0.6-0.5,1c-0.1,0.4-0.2,0.8-0.2,1.2v2.3c0,0.3,0.5,0.4,1.4,0.4V10H130.4L130.4,10z"/>
	<path d="M139.1,10.2c-0.6,0-1.1-0.2-1.6-0.5c-0.5-0.3-0.9-0.7-1.1-1.2c-0.3-0.5-0.4-1-0.4-1.6c0-0.6,0.1-1.1,0.4-1.6
		s0.6-0.9,1.1-1.2c0.4-0.3,1-0.5,1.5-0.5c0.4,0,0.8,0.1,1.1,0.2c0.3,0.1,0.6,0.3,0.8,0.6c0.2,0.3,0.4,0.6,0.5,0.9
		c0.1,0.4,0.2,0.7,0.2,1.2c0,0.1-0.1,0.2-0.2,0.2h-4.1v0.2c0,0.8,0.2,1.5,0.5,2c0.3,0.6,0.8,0.8,1.6,0.8c0.3,0,0.6-0.1,0.8-0.2
		c0.2-0.1,0.5-0.3,0.6-0.5s0.3-0.5,0.4-0.7c0,0,0-0.1,0-0.1c0,0,0.1,0,0.1,0h0.1c0.1,0,0.2,0.1,0.2,0.2c-0.1,0.5-0.4,1-0.9,1.3
		C140.1,10,139.6,10.2,139.1,10.2L139.1,10.2z M137.2,6.4h3.3c0-0.4-0.1-0.7-0.2-1.1c-0.1-0.4-0.3-0.7-0.5-0.9
		c-0.2-0.2-0.5-0.4-0.9-0.4c-0.5,0-1,0.3-1.3,0.8C137.3,5.3,137.2,5.8,137.2,6.4L137.2,6.4z"/>
	<path d="M146,12.8v-0.5c0.3,0,0.6,0,0.8-0.1c0.2-0.1,0.3-0.2,0.3-0.4V9.2c-0.2,0.3-0.5,0.5-0.8,0.7c-0.3,0.2-0.7,0.3-1.1,0.3
		c-0.4,0-0.8-0.1-1.2-0.3c-0.4-0.2-0.7-0.4-1-0.7c-0.3-0.3-0.5-0.7-0.6-1c-0.2-0.4-0.2-0.8-0.2-1.2c0-0.6,0.1-1.1,0.4-1.6
		c0.3-0.5,0.7-0.9,1.1-1.2c0.5-0.3,1-0.4,1.6-0.4c0.4,0,0.8,0.1,1.1,0.3c0.3,0.2,0.6,0.5,0.8,0.9l0.5-1.3h0.4v8.1
		c0,0.2,0.1,0.3,0.3,0.4s0.5,0.1,0.8,0.1v0.5H146L146,12.8z M145.3,9.8c0.4,0,0.8-0.1,1.1-0.4c0.3-0.3,0.6-0.6,0.7-1.1V5.8
		c-0.1-0.5-0.3-0.8-0.6-1.2s-0.7-0.5-1.1-0.5c-0.3,0-0.6,0.1-0.9,0.3s-0.5,0.4-0.6,0.7s-0.3,0.6-0.4,0.9c-0.1,0.3-0.1,0.7-0.1,0.9
		c0,0.4,0.1,0.8,0.2,1.2c0.1,0.4,0.3,0.8,0.6,1.1C144.6,9.7,144.9,9.8,145.3,9.8L145.3,9.8z"/>
	<path d="M150.7,8.3V5.2c0-0.3,0-0.4-0.1-0.6c-0.1-0.1-0.2-0.2-0.3-0.2c-0.1,0-0.4,0-0.7,0V3.9l2.2-0.2v4.6c0,0.4,0,0.7,0.1,0.9
		c0.1,0.2,0.2,0.4,0.3,0.5s0.4,0.2,0.8,0.2c0.5,0,0.9-0.2,1.2-0.6c0.3-0.4,0.5-0.9,0.5-1.5V5.2c0-0.3,0-0.4-0.1-0.6
		c-0.1-0.1-0.2-0.2-0.3-0.2c-0.1,0-0.4,0-0.7,0V3.9l2.1-0.2v5c0,0.3,0,0.4,0.1,0.5c0.1,0.1,0.2,0.2,0.3,0.2c0.1,0,0.4,0,0.7,0V10
		l-2.1,0.2V9c-0.2,0.4-0.4,0.7-0.7,0.9c-0.3,0.2-0.7,0.3-1,0.3c-0.7,0-1.2-0.1-1.6-0.4C150.9,9.5,150.7,9,150.7,8.3L150.7,8.3z"/>
	<path d="M160.5,10.2c-0.6,0-1.1-0.2-1.6-0.5c-0.5-0.3-0.9-0.7-1.1-1.2c-0.3-0.5-0.4-1-0.4-1.6c0-0.6,0.1-1.1,0.4-1.6
		c0.3-0.5,0.6-0.9,1.1-1.2c0.4-0.3,1-0.5,1.5-0.5c0.4,0,0.8,0.1,1.1,0.2c0.3,0.1,0.6,0.3,0.8,0.6c0.2,0.3,0.4,0.6,0.5,0.9
		c0.1,0.4,0.2,0.7,0.2,1.2c0,0.1-0.1,0.2-0.2,0.2h-4.1v0.2c0,0.8,0.2,1.5,0.5,2c0.3,0.6,0.8,0.8,1.6,0.8c0.3,0,0.6-0.1,0.8-0.2
		c0.2-0.1,0.5-0.3,0.6-0.5c0.2-0.2,0.3-0.5,0.4-0.7c0,0,0-0.1,0-0.1c0,0,0.1,0,0.1,0h0.1c0.1,0,0.2,0.1,0.2,0.2
		c-0.1,0.5-0.4,1-0.9,1.3C161.5,10,161,10.2,160.5,10.2L160.5,10.2z M158.6,6.4h3.3c0-0.4-0.1-0.7-0.2-1.1c-0.1-0.4-0.3-0.7-0.5-0.9
		C161,4.2,160.7,4,160.3,4c-0.5,0-1,0.3-1.3,0.8S158.6,5.8,158.6,6.4L158.6,6.4z"/>
	<path d="M163.6,10V9.5c0.3,0,0.6,0,0.8-0.1c0.2-0.1,0.3-0.2,0.3-0.4V5.2c0-0.3,0-0.4-0.1-0.6c-0.1-0.1-0.2-0.2-0.3-0.2
		c-0.1,0-0.4,0-0.7,0V3.9l2.1-0.2v1.4c0.2-0.4,0.5-0.7,0.8-1s0.8-0.4,1.2-0.4c0.7,0,1.1,0.2,1.5,0.5c0.3,0.3,0.5,0.8,0.5,1.5v3.4
		c0,0.2,0.1,0.3,0.3,0.4c0.2,0.1,0.5,0.1,0.8,0.1V10h-3.3V9.5c0.3,0,0.6,0,0.8-0.1c0.2-0.1,0.3-0.2,0.3-0.4V5.7
		c0-0.5-0.1-0.8-0.2-1.1c-0.1-0.3-0.4-0.5-0.8-0.5c-0.6,0-1,0.2-1.4,0.7c-0.4,0.4-0.5,0.9-0.5,1.5v2.8c0,0.2,0.1,0.3,0.3,0.4
		c0.2,0.1,0.5,0.1,0.8,0.1V10H163.6L163.6,10z"/>
	<path d="M174.5,10.2c-0.6,0-1.1-0.2-1.6-0.5c-0.5-0.3-0.8-0.7-1.1-1.2c-0.3-0.5-0.4-1-0.4-1.6c0-0.6,0.1-1.1,0.4-1.6
		c0.3-0.5,0.6-0.9,1.1-1.2c0.5-0.3,1-0.5,1.6-0.5c0.6,0,1.1,0.1,1.5,0.3c0.5,0.2,0.7,0.6,0.7,1.1c0,0.2-0.1,0.3-0.2,0.5
		c-0.1,0.1-0.3,0.2-0.5,0.2s-0.3-0.1-0.5-0.2c-0.1-0.1-0.2-0.3-0.2-0.5c0-0.2,0.1-0.3,0.2-0.4c0.1-0.1,0.2-0.2,0.4-0.2
		c-0.3-0.2-0.8-0.3-1.4-0.3c-0.5,0-0.8,0.2-1.1,0.5c-0.3,0.3-0.5,0.7-0.6,1.1c-0.1,0.4-0.2,0.9-0.2,1.3c0,0.5,0.1,0.9,0.2,1.3
		c0.1,0.4,0.4,0.8,0.7,1.1c0.3,0.3,0.7,0.4,1.1,0.4c0.4,0,0.8-0.1,1.1-0.4c0.3-0.3,0.5-0.6,0.7-1.1c0-0.1,0-0.1,0.1-0.1h0.2
		c0,0,0.1,0,0.1,0c0,0,0,0.1,0,0.1v0c-0.1,0.6-0.4,1-0.9,1.3C175.6,10,175.1,10.2,174.5,10.2L174.5,10.2z"/>
	<path d="M178.1,12.4c0.2,0.1,0.4,0.2,0.6,0.2c0.6,0,1.1-0.5,1.5-1.4l0.5-1.2l-2.1-5.2c-0.1-0.2-0.2-0.3-0.4-0.3
		c-0.2-0.1-0.4-0.1-0.7-0.1V3.9h3v0.5c-0.5,0-0.8,0.1-0.8,0.4c0,0,0,0.1,0,0.1l1.6,3.9l1.4-3.5c0-0.1,0-0.2,0-0.2
		c0-0.1,0-0.2-0.1-0.3s-0.1-0.2-0.2-0.2c-0.1,0-0.2-0.1-0.3-0.1V3.9h2.4v0.5c-0.3,0-0.6,0.1-0.8,0.2c-0.2,0.1-0.4,0.3-0.5,0.6
		l-2.5,6c-0.1,0.3-0.3,0.6-0.5,0.8c-0.2,0.3-0.4,0.5-0.6,0.6c-0.3,0.2-0.5,0.2-0.8,0.2c-0.4,0-0.7-0.1-0.9-0.3
		c-0.3-0.2-0.4-0.5-0.4-0.9c0-0.2,0.1-0.3,0.2-0.4c0.1-0.1,0.3-0.2,0.5-0.2c0.1,0,0.2,0,0.3,0.1c0.1,0.1,0.2,0.1,0.2,0.2
		c0.1,0.1,0.1,0.2,0.1,0.3c0,0.2-0.1,0.3-0.2,0.4C178.4,12.3,178.3,12.4,178.1,12.4L178.1,12.4z"/>
	<path d="M189.9,10V9.7c0,0,0,0,0-0.1l2.2-2.4c0.3-0.4,0.6-0.7,0.8-0.9c0.2-0.2,0.4-0.5,0.6-0.8c0.2-0.3,0.4-0.6,0.5-1
		c0.1-0.3,0.2-0.7,0.2-1.1c0-0.4-0.1-0.8-0.2-1.1s-0.4-0.6-0.6-0.8c-0.3-0.2-0.6-0.3-1-0.3c-0.4,0-0.8,0.1-1.1,0.4
		c-0.3,0.2-0.6,0.6-0.7,1c0,0,0.1,0,0.2,0c0.2,0,0.4,0.1,0.5,0.2c0.2,0.1,0.2,0.3,0.2,0.6c0,0.2-0.1,0.4-0.2,0.5s-0.3,0.2-0.5,0.2
		c-0.2,0-0.4-0.1-0.6-0.2c-0.1-0.2-0.2-0.3-0.2-0.5c0-0.4,0.1-0.7,0.2-1c0.1-0.3,0.3-0.6,0.6-0.8c0.3-0.2,0.5-0.4,0.9-0.6
		c0.3-0.1,0.7-0.2,1-0.2c0.5,0,1,0.1,1.5,0.3c0.5,0.2,0.8,0.6,1.1,1c0.3,0.4,0.4,0.9,0.4,1.5c0,0.4-0.1,0.8-0.3,1.2
		c-0.2,0.4-0.4,0.7-0.7,1c-0.3,0.3-0.6,0.6-1.1,1c-0.4,0.4-0.7,0.6-0.9,0.8l-1.6,1.5h1.4c0.7,0,1.2,0,1.7,0c0.5,0,0.7,0,0.7-0.1
		c0.1-0.1,0.2-0.6,0.3-1.3h0.4l-0.4,2.5H189.9L189.9,10z"/>
	<path d="M196.9,10c-0.1,0-0.1-0.1-0.1-0.2c0,0,0-0.1,0-0.1c0-0.1,0-0.1,0.1-0.1c0,0,0.1-0.1,0.1-0.1c0.6,0,1,0,1.2-0.1
		c0.1,0,0.2-0.2,0.3-0.4l2-7.8c0-0.1,0-0.2,0-0.2c0-0.1-0.1-0.2-0.2-0.2c-0.2,0-0.5-0.1-1-0.1c-0.1,0-0.1-0.1-0.1-0.2
		c0,0,0-0.1,0-0.1c0-0.1,0-0.1,0.1-0.1c0,0,0.1-0.1,0.1-0.1h7.5c0.1,0,0.1,0.1,0.1,0.2l-0.3,3c0,0,0,0.1,0,0.1c0,0-0.1,0-0.1,0h-0.1
		c-0.1,0-0.2-0.1-0.2-0.2c0.1-0.4,0.1-0.8,0.1-1.1c0-0.5-0.1-0.8-0.3-1s-0.5-0.4-0.8-0.4s-0.7-0.1-1.3-0.1h-1.5
		c-0.3,0-0.4,0-0.5,0.1c-0.1,0-0.2,0.2-0.2,0.4l-0.9,3.6h1.1c0.4,0,0.6,0,0.9-0.1c0.2,0,0.4-0.1,0.5-0.2s0.3-0.3,0.4-0.5
		c0.1-0.2,0.2-0.5,0.3-0.8c0-0.1,0.1-0.1,0.2-0.1h0.1c0.1,0,0.1,0.1,0.1,0.2L203.3,7c0,0.1-0.1,0.1-0.2,0.1h-0.1
		c-0.1,0-0.1-0.1-0.1-0.2c0-0.1,0-0.2,0.1-0.2c0-0.1,0-0.2,0.1-0.3s0-0.2,0-0.3c0-0.3-0.1-0.4-0.4-0.5c-0.2-0.1-0.6-0.1-0.9-0.1
		h-1.2l-0.9,3.7c0,0.1,0,0.1,0,0.1c0,0.1,0,0.2,0.1,0.2c0.3,0.1,0.7,0.1,1.5,0.1c0.1,0,0.1,0.1,0.1,0.2c0,0.1-0.1,0.2-0.1,0.3
		s-0.1,0.1-0.2,0.1H196.9L196.9,10z"/>
	<path d="M207.6,12.4c-0.8,0-1.3-0.3-1.6-1c-0.3-0.7-0.4-1.4-0.4-2.3c0-0.6,0.1-1.1,0.2-1.6c0.1-0.5,0.3-0.9,0.6-1.3
		c0.3-0.3,0.7-0.5,1.3-0.5c0.4,0,0.8,0.1,1.1,0.3s0.5,0.5,0.6,0.8s0.2,0.7,0.3,1.1c0.1,0.4,0.1,0.8,0.1,1.2c0,0.6-0.1,1.1-0.2,1.6
		c-0.1,0.5-0.3,0.9-0.6,1.2C208.6,12.2,208.2,12.4,207.6,12.4L207.6,12.4z M207.6,12.1c0.4,0,0.6-0.2,0.8-0.6
		c0.2-0.4,0.3-0.8,0.3-1.2c0-0.5,0.1-0.9,0.1-1.4c0-0.5,0-0.9-0.1-1.3s-0.1-0.8-0.3-1.1c-0.2-0.3-0.4-0.5-0.8-0.5
		c-0.4,0-0.6,0.2-0.8,0.5c-0.2,0.3-0.3,0.7-0.3,1.1c0,0.4-0.1,0.9-0.1,1.3c0,0.4,0,0.7,0,1c0,0.3,0.1,0.6,0.1,1s0.2,0.6,0.4,0.9
		C207.1,12,207.4,12.1,207.6,12.1L207.6,12.1z"/>
	<path d="M212.2,12.6c0,0,0-0.1,0-0.1c0.3-0.3,0.6-0.7,0.8-1.1c0.2-0.4,0.3-0.9,0.3-1.4V9.8c-0.2,0.2-0.3,0.2-0.6,0.2
		c-0.2,0-0.4-0.1-0.6-0.2c-0.2-0.2-0.2-0.3-0.2-0.6c0-0.2,0.1-0.4,0.2-0.6c0.2-0.1,0.3-0.2,0.6-0.2c0.3,0,0.6,0.2,0.7,0.5
		c0.1,0.3,0.2,0.7,0.2,1c0,0.5-0.1,1-0.3,1.5c-0.2,0.5-0.5,0.9-0.9,1.3c0,0-0.1,0-0.1,0c0,0-0.1,0-0.1-0.1
		C212.3,12.7,212.2,12.7,212.2,12.6L212.2,12.6z"/>
	<path d="M219.7,12.8v-0.5c0.3,0,0.6,0,0.8-0.1s0.3-0.2,0.3-0.4V5c0-0.3-0.1-0.4-0.3-0.5c-0.2-0.1-0.5-0.1-0.8-0.1V3.9l2.1-0.2v0.9
		c0.3-0.3,0.6-0.5,0.9-0.7c0.3-0.1,0.7-0.2,1.1-0.2c0.6,0,1.1,0.2,1.5,0.5c0.4,0.3,0.8,0.7,1.1,1.2c0.3,0.5,0.4,1,0.4,1.6
		c0,0.6-0.1,1.1-0.4,1.6c-0.3,0.5-0.7,0.9-1.1,1.2c-0.5,0.3-1,0.4-1.6,0.4c-0.7,0-1.3-0.3-1.8-0.8v2.5c0,0.2,0.1,0.3,0.3,0.4
		s0.5,0.1,0.8,0.1v0.5H219.7L219.7,12.8z M221.9,8.7c0.2,0.3,0.4,0.6,0.7,0.8c0.3,0.2,0.6,0.3,1,0.3c0.3,0,0.6-0.1,0.9-0.3
		c0.3-0.2,0.5-0.4,0.6-0.7c0.2-0.3,0.3-0.6,0.4-0.9s0.1-0.6,0.1-0.9c0-0.4-0.1-0.8-0.2-1.2c-0.1-0.4-0.3-0.8-0.6-1.1
		c-0.3-0.3-0.6-0.5-1-0.5c-0.4,0-0.7,0.1-1.1,0.3c-0.3,0.2-0.6,0.5-0.8,0.8V8.7L221.9,8.7z"/>
	<path d="M227.5,10V9.5c0.3,0,0.6,0,0.8-0.1c0.2-0.1,0.3-0.2,0.3-0.4V5.2c0-0.3,0-0.4-0.1-0.6c-0.1-0.1-0.2-0.2-0.3-0.2
		c-0.1,0-0.4,0-0.7,0V3.9l2-0.2v1.4c0.2-0.4,0.4-0.7,0.7-1c0.3-0.3,0.6-0.4,1-0.4c0.3,0,0.5,0.1,0.8,0.2c0.2,0.2,0.3,0.4,0.3,0.7
		c0,0.2-0.1,0.3-0.2,0.5s-0.3,0.2-0.5,0.2c-0.2,0-0.3-0.1-0.5-0.2S231,4.8,231,4.7c0-0.3,0.1-0.4,0.3-0.5h-0.1
		c-0.4,0-0.7,0.1-0.9,0.4c-0.2,0.3-0.4,0.6-0.5,1s-0.2,0.8-0.2,1.2v2.3c0,0.3,0.5,0.4,1.4,0.4V10H227.5L227.5,10z"/>
	<path d="M236.2,10.2c-0.6,0-1.1-0.1-1.6-0.4c-0.5-0.3-0.9-0.7-1.2-1.2c-0.3-0.5-0.4-1-0.4-1.6c0-0.4,0.1-0.9,0.2-1.3
		c0.2-0.4,0.4-0.8,0.7-1.1c0.3-0.3,0.6-0.6,1-0.7c0.4-0.2,0.8-0.3,1.3-0.3c0.6,0,1.1,0.2,1.6,0.5c0.5,0.3,0.9,0.7,1.1,1.2
		c0.3,0.5,0.4,1.1,0.4,1.7c0,0.6-0.1,1.1-0.4,1.6c-0.3,0.5-0.7,0.9-1.2,1.2C237.3,10.1,236.8,10.2,236.2,10.2L236.2,10.2z
		 M236.2,9.8c0.8,0,1.3-0.3,1.5-0.8c0.3-0.6,0.4-1.3,0.4-2.1c0-0.5,0-0.9-0.1-1.2c-0.1-0.3-0.2-0.6-0.3-0.9
		c-0.1-0.2-0.2-0.3-0.4-0.4c-0.2-0.1-0.3-0.2-0.5-0.3c-0.2-0.1-0.4-0.1-0.6-0.1c-0.3,0-0.6,0.1-0.8,0.2c-0.3,0.1-0.5,0.3-0.7,0.6
		c-0.2,0.3-0.3,0.6-0.3,0.9c-0.1,0.3-0.1,0.7-0.1,1.1c0,0.5,0,1,0.1,1.4c0.1,0.4,0.3,0.8,0.6,1.1C235.3,9.6,235.7,9.8,236.2,9.8
		L236.2,9.8z"/>
	<path d="M240.7,12.4c0.2,0.1,0.5,0.2,0.7,0.2c0.4,0,0.6-0.2,0.8-0.6c0.1-0.4,0.2-0.8,0.2-1.2V5.2c0-0.3,0-0.4-0.1-0.6
		c-0.1-0.1-0.2-0.2-0.4-0.2c-0.2,0-0.4,0-0.7,0V3.9l2.2-0.2v7.1c0,0.4-0.1,0.7-0.3,1c-0.2,0.3-0.4,0.6-0.7,0.8
		c-0.3,0.2-0.6,0.3-1,0.3c-0.4,0-0.8-0.1-1.1-0.3c-0.3-0.2-0.5-0.5-0.5-0.9c0-0.2,0.1-0.3,0.2-0.5c0.1-0.1,0.3-0.2,0.5-0.2
		s0.3,0.1,0.5,0.2c0.1,0.1,0.2,0.3,0.2,0.5c0,0.1,0,0.3-0.1,0.4S240.8,12.4,240.7,12.4L240.7,12.4z M241.9,1.3
		c0-0.2,0.1-0.4,0.2-0.6c0.2-0.2,0.3-0.2,0.6-0.2c0.1,0,0.3,0,0.4,0.1c0.1,0.1,0.2,0.2,0.3,0.3s0.1,0.3,0.1,0.4
		c0,0.2-0.1,0.4-0.2,0.5c-0.2,0.2-0.3,0.2-0.6,0.2c-0.2,0-0.4-0.1-0.6-0.2C241.9,1.7,241.9,1.5,241.9,1.3L241.9,1.3z"/>
	<path d="M248.2,10.2c-0.6,0-1.1-0.2-1.6-0.5c-0.5-0.3-0.9-0.7-1.1-1.2c-0.3-0.5-0.4-1-0.4-1.6c0-0.6,0.1-1.1,0.4-1.6
		s0.6-0.9,1.1-1.2c0.4-0.3,1-0.5,1.5-0.5c0.4,0,0.8,0.1,1.1,0.2c0.3,0.1,0.6,0.3,0.8,0.6c0.2,0.3,0.4,0.6,0.5,0.9
		c0.1,0.4,0.2,0.7,0.2,1.2c0,0.1-0.1,0.2-0.2,0.2h-4.1v0.2c0,0.8,0.2,1.5,0.5,2c0.3,0.6,0.8,0.8,1.6,0.8c0.3,0,0.6-0.1,0.8-0.2
		c0.2-0.1,0.5-0.3,0.6-0.5s0.3-0.5,0.4-0.7c0,0,0-0.1,0-0.1c0,0,0.1,0,0.1,0h0.1c0.1,0,0.2,0.1,0.2,0.2c-0.1,0.5-0.4,1-0.9,1.3
		C249.3,10,248.8,10.2,248.2,10.2L248.2,10.2z M246.3,6.4h3.3c0-0.4-0.1-0.7-0.2-1.1c-0.1-0.4-0.3-0.7-0.5-0.9
		C248.7,4.2,248.4,4,248,4c-0.5,0-1,0.3-1.3,0.8S246.3,5.8,246.3,6.4L246.3,6.4z"/>
	<path d="M254.5,10.2c-0.6,0-1.1-0.2-1.6-0.5c-0.5-0.3-0.8-0.7-1.1-1.2c-0.3-0.5-0.4-1-0.4-1.6c0-0.6,0.1-1.1,0.4-1.6
		c0.3-0.5,0.6-0.9,1.1-1.2c0.5-0.3,1-0.5,1.6-0.5c0.6,0,1.1,0.1,1.5,0.3c0.5,0.2,0.7,0.6,0.7,1.1c0,0.2-0.1,0.3-0.2,0.5
		c-0.1,0.1-0.3,0.2-0.5,0.2c-0.2,0-0.3-0.1-0.5-0.2c-0.1-0.1-0.2-0.3-0.2-0.5c0-0.2,0.1-0.3,0.2-0.4s0.2-0.2,0.4-0.2
		c-0.3-0.2-0.8-0.3-1.4-0.3c-0.5,0-0.8,0.2-1.1,0.5c-0.3,0.3-0.5,0.7-0.6,1.1c-0.1,0.4-0.2,0.9-0.2,1.3c0,0.5,0.1,0.9,0.2,1.3
		c0.1,0.4,0.4,0.8,0.7,1.1c0.3,0.3,0.7,0.4,1.1,0.4c0.4,0,0.8-0.1,1.1-0.4c0.3-0.3,0.5-0.6,0.7-1.1c0-0.1,0-0.1,0.1-0.1h0.2
		c0,0,0.1,0,0.1,0c0,0,0,0.1,0,0.1v0c-0.1,0.6-0.4,1-0.9,1.3C255.5,10,255,10.2,254.5,10.2L254.5,10.2z"/>
	<path d="M258.6,8.3V4.4h-1.2V4c0.6,0,1.1-0.3,1.4-0.9c0.3-0.6,0.4-1.2,0.4-1.9h0.4v2.6h2v0.5h-2v3.9c0,0.4,0.1,0.7,0.2,1
		c0.1,0.3,0.4,0.4,0.7,0.4c0.3,0,0.6-0.2,0.7-0.5c0.1-0.3,0.2-0.6,0.2-1V7.5h0.4v0.9c0,0.3-0.1,0.6-0.2,0.9
		c-0.1,0.3-0.3,0.5-0.5,0.7c-0.2,0.2-0.5,0.3-0.8,0.3c-0.6,0-1-0.2-1.4-0.5C258.7,9.3,258.6,8.9,258.6,8.3L258.6,8.3z"/>
	<path d="M266.1,10.2c-0.6,0-1.1-0.2-1.6-0.5c-0.5-0.3-0.9-0.7-1.1-1.2c-0.3-0.5-0.4-1-0.4-1.6c0-0.6,0.1-1.1,0.4-1.6
		c0.3-0.5,0.6-0.9,1.1-1.2c0.4-0.3,1-0.5,1.5-0.5c0.4,0,0.8,0.1,1.1,0.2c0.3,0.1,0.6,0.3,0.8,0.6c0.2,0.3,0.4,0.6,0.5,0.9
		c0.1,0.4,0.2,0.7,0.2,1.2c0,0.1-0.1,0.2-0.2,0.2h-4.1v0.2c0,0.8,0.2,1.5,0.5,2c0.3,0.6,0.8,0.8,1.6,0.8c0.3,0,0.6-0.1,0.8-0.2
		c0.2-0.1,0.5-0.3,0.6-0.5c0.2-0.2,0.3-0.5,0.4-0.7c0,0,0-0.1,0-0.1c0,0,0.1,0,0.1,0h0.1c0.1,0,0.2,0.1,0.2,0.2
		c-0.1,0.5-0.4,1-0.9,1.3C267.2,10,266.7,10.2,266.1,10.2L266.1,10.2z M264.2,6.4h3.3c0-0.4-0.1-0.7-0.2-1.1
		c-0.1-0.4-0.3-0.7-0.5-0.9c-0.2-0.2-0.5-0.4-0.9-0.4c-0.5,0-1,0.3-1.3,0.8S264.2,5.8,264.2,6.4L264.2,6.4z"/>
	<path d="M272.3,10.2c-0.6,0-1.1-0.2-1.5-0.5c-0.5-0.3-0.8-0.7-1.1-1.2s-0.4-1-0.4-1.6c0-0.6,0.1-1.1,0.4-1.6
		c0.3-0.5,0.7-0.9,1.1-1.2c0.5-0.3,1-0.4,1.6-0.4c0.3,0,0.7,0.1,1,0.2s0.6,0.3,0.8,0.6v-3c0-0.3,0-0.4-0.1-0.5
		c-0.1-0.1-0.2-0.2-0.3-0.2c-0.1,0-0.4,0-0.7,0V0.3l2.1-0.2v8.6c0,0.3,0,0.4,0.1,0.5c0.1,0.1,0.2,0.2,0.3,0.2c0.1,0,0.4,0,0.7,0V10
		l-2.1,0.2V9.3c-0.3,0.3-0.5,0.5-0.9,0.7C273,10.1,272.6,10.2,272.3,10.2L272.3,10.2z M270.8,8.8c0.2,0.3,0.4,0.6,0.7,0.8
		c0.3,0.2,0.6,0.3,0.9,0.3c0.4,0,0.8-0.1,1.1-0.3c0.3-0.2,0.6-0.5,0.7-0.9V5.2c-0.1-0.2-0.3-0.4-0.4-0.6c-0.2-0.2-0.4-0.3-0.6-0.4
		c-0.2-0.1-0.4-0.1-0.7-0.1c-0.5,0-0.9,0.1-1.2,0.4c-0.3,0.3-0.5,0.6-0.6,1.1c-0.1,0.4-0.2,0.9-0.2,1.4c0,0.4,0,0.7,0.1,1
		S270.7,8.5,270.8,8.8L270.8,8.8z"/>
	<path d="M284.8,10.2c-0.6,0-1.1-0.1-1.6-0.4c-0.5-0.3-0.9-0.7-1.2-1.2c-0.3-0.5-0.4-1-0.4-1.6c0-0.4,0.1-0.9,0.2-1.3
		c0.2-0.4,0.4-0.8,0.7-1.1s0.6-0.6,1-0.7c0.4-0.2,0.8-0.3,1.3-0.3c0.6,0,1.1,0.2,1.6,0.5c0.5,0.3,0.9,0.7,1.1,1.2
		c0.3,0.5,0.4,1.1,0.4,1.7c0,0.6-0.1,1.1-0.4,1.6c-0.3,0.5-0.7,0.9-1.2,1.2C285.9,10.1,285.4,10.2,284.8,10.2L284.8,10.2z
		 M284.8,9.8c0.8,0,1.3-0.3,1.5-0.8c0.3-0.6,0.4-1.3,0.4-2.1c0-0.5,0-0.9-0.1-1.2c-0.1-0.3-0.2-0.6-0.3-0.9
		c-0.1-0.2-0.2-0.3-0.4-0.4c-0.2-0.1-0.3-0.2-0.5-0.3C285.2,4.1,285,4,284.8,4c-0.3,0-0.6,0.1-0.8,0.2c-0.3,0.1-0.5,0.3-0.7,0.6
		c-0.2,0.3-0.3,0.6-0.3,0.9c-0.1,0.3-0.1,0.7-0.1,1.1c0,0.5,0,1,0.1,1.4c0.1,0.4,0.3,0.8,0.6,1.1C283.9,9.6,284.3,9.8,284.8,9.8
		L284.8,9.8z"/>
	<path d="M288.7,10V9.5c0.3,0,0.6,0,0.8-0.1c0.2-0.1,0.3-0.2,0.3-0.4V5.2c0-0.3,0-0.4-0.1-0.6c-0.1-0.1-0.2-0.2-0.3-0.2
		c-0.1,0-0.4,0-0.7,0V3.9l2.1-0.2v1.4c0.2-0.4,0.5-0.7,0.8-1s0.8-0.4,1.2-0.4c0.7,0,1.2,0.2,1.5,0.5c0.3,0.3,0.5,0.8,0.5,1.5v3.4
		c0,0.2,0.1,0.3,0.3,0.4c0.2,0.1,0.5,0.1,0.8,0.1V10h-3.3V9.5c0.3,0,0.6,0,0.8-0.1c0.2-0.1,0.3-0.2,0.3-0.4V5.7
		c0-0.5-0.1-0.8-0.2-1.1c-0.1-0.3-0.4-0.5-0.8-0.5c-0.6,0-1,0.2-1.4,0.7c-0.4,0.4-0.5,0.9-0.5,1.5v2.8c0,0.2,0.1,0.3,0.3,0.4
		c0.2,0.1,0.5,0.1,0.8,0.1V10H288.7L288.7,10z"/>
	<path d="M301.2,10V9.5c1,0,1.5-0.1,1.5-0.4V1.3c0-0.3-0.5-0.5-1.5-0.5V0.3h4.5c0.5,0,1.1,0.1,1.7,0.3c0.6,0.2,1.1,0.5,1.5,0.9
		c0.4,0.4,0.6,0.9,0.6,1.4c0,0.4-0.1,0.8-0.4,1.1c-0.2,0.3-0.5,0.6-0.9,0.8c-0.4,0.2-0.8,0.4-1.1,0.5c0.4,0.1,0.8,0.4,1.1,0.7
		c0.3,0.3,0.5,0.7,0.6,1.1l0.2,1.3c0.1,0.6,0.2,1,0.3,1.3c0.1,0.3,0.3,0.4,0.7,0.4c0.3,0,0.5-0.1,0.7-0.4c0.1-0.3,0.2-0.6,0.2-0.9
		c0,0,0-0.1,0-0.1c0,0,0.1,0,0.1,0h0.1c0.1,0,0.1,0.1,0.1,0.2c0,0.3-0.1,0.5-0.2,0.8c-0.1,0.2-0.2,0.5-0.4,0.6
		c-0.2,0.2-0.4,0.2-0.7,0.2c-0.7,0-1.3-0.2-1.8-0.5c-0.5-0.3-0.7-0.8-0.7-1.5V7.1c0-0.5-0.2-0.9-0.5-1.2c-0.3-0.3-0.7-0.5-1.2-0.5
		h-1.7v3.7c0,0.3,0.5,0.4,1.5,0.4V10H301.2L301.2,10z M303.9,5h1.5c0.8,0,1.4-0.2,1.8-0.5s0.6-0.9,0.6-1.6c0-0.8-0.2-1.3-0.6-1.6
		c-0.4-0.3-1-0.5-1.8-0.5h-0.8c-0.2,0-0.3,0-0.4,0c-0.1,0-0.2,0.1-0.2,0.1c-0.1,0.1-0.1,0.2-0.1,0.3V5L303.9,5z"/>
	<path d="M314.5,10.2c-0.6,0-1.1-0.2-1.6-0.5c-0.5-0.3-0.9-0.7-1.1-1.2c-0.3-0.5-0.4-1-0.4-1.6c0-0.6,0.1-1.1,0.4-1.6
		c0.3-0.5,0.6-0.9,1.1-1.2c0.4-0.3,1-0.5,1.5-0.5c0.4,0,0.8,0.1,1.1,0.2c0.3,0.1,0.6,0.3,0.8,0.6c0.2,0.3,0.4,0.6,0.5,0.9
		c0.1,0.4,0.2,0.7,0.2,1.2c0,0.1-0.1,0.2-0.2,0.2h-4.1v0.2c0,0.8,0.2,1.5,0.5,2c0.3,0.6,0.8,0.8,1.6,0.8c0.3,0,0.6-0.1,0.8-0.2
		c0.2-0.1,0.5-0.3,0.6-0.5c0.2-0.2,0.3-0.5,0.4-0.7c0,0,0-0.1,0-0.1c0,0,0.1,0,0.1,0h0.1c0.1,0,0.2,0.1,0.2,0.2
		c-0.1,0.5-0.4,1-0.9,1.3C315.6,10,315.1,10.2,314.5,10.2L314.5,10.2z M312.6,6.4h3.3c0-0.4-0.1-0.7-0.2-1.1
		c-0.1-0.4-0.3-0.7-0.5-0.9C315,4.2,314.7,4,314.3,4c-0.5,0-1,0.3-1.3,0.8C312.8,5.3,312.6,5.8,312.6,6.4L312.6,6.4z"/>
	<path d="M317.8,8.6c0-0.6,0.2-1,0.7-1.4c0.4-0.4,1-0.6,1.6-0.8c0.6-0.1,1.2-0.2,1.8-0.2V5.7c0-0.3-0.1-0.5-0.2-0.8
		c-0.1-0.3-0.3-0.5-0.5-0.6c-0.2-0.2-0.5-0.2-0.8-0.2c-0.6,0-1.1,0.1-1.4,0.4c0.2,0,0.3,0.1,0.5,0.2c0.1,0.1,0.2,0.3,0.2,0.5
		c0,0.2-0.1,0.4-0.2,0.5c-0.1,0.1-0.3,0.2-0.5,0.2c-0.2,0-0.4-0.1-0.5-0.2c-0.1-0.1-0.2-0.3-0.2-0.5c0-0.5,0.2-0.9,0.7-1.1
		c0.5-0.2,1-0.4,1.5-0.4c0.4,0,0.8,0.1,1.2,0.2c0.4,0.2,0.7,0.4,1,0.7s0.4,0.7,0.4,1.1v3.2c0,0.2,0,0.4,0.1,0.5
		c0.1,0.2,0.2,0.2,0.4,0.2c0.2,0,0.3-0.1,0.4-0.2c0.1-0.2,0.1-0.3,0.1-0.5V8h0.4v0.9c0,0.2-0.1,0.4-0.2,0.6
		c-0.1,0.2-0.3,0.3-0.5,0.5c-0.2,0.1-0.4,0.2-0.6,0.2c-0.3,0-0.5-0.1-0.7-0.3C322.1,9.6,322,9.3,322,9c-0.2,0.4-0.4,0.6-0.8,0.9
		c-0.3,0.2-0.7,0.3-1.1,0.3c-0.4,0-0.7-0.1-1.1-0.2c-0.3-0.1-0.6-0.3-0.9-0.5C317.9,9.3,317.8,9,317.8,8.6L317.8,8.6z M318.9,8.6
		c0,0.3,0.1,0.6,0.4,0.8c0.2,0.2,0.5,0.3,0.9,0.3c0.3,0,0.6-0.1,0.8-0.2c0.3-0.2,0.4-0.4,0.6-0.6c0.1-0.3,0.2-0.5,0.2-0.8V6.7
		c-0.4,0-0.9,0.1-1.3,0.2c-0.5,0.1-0.8,0.4-1.1,0.7C319.1,7.8,318.9,8.2,318.9,8.6L318.9,8.6z"/>
	<path d="M324.6,10V9.5c0.3,0,0.6,0,0.8-0.1c0.2-0.1,0.3-0.2,0.3-0.4V1.6c0-0.3,0-0.4-0.1-0.5c-0.1-0.1-0.2-0.2-0.3-0.2
		c-0.1,0-0.4,0-0.7,0V0.3l2.1-0.2v8.9c0,0.2,0.1,0.3,0.3,0.4c0.2,0.1,0.5,0.1,0.8,0.1V10H324.6L324.6,10z"/>
	<path d="M333.3,8.6c0-0.6,0.2-1,0.7-1.4s1-0.6,1.6-0.8c0.6-0.1,1.2-0.2,1.8-0.2V5.7c0-0.3-0.1-0.5-0.2-0.8
		c-0.1-0.3-0.3-0.5-0.5-0.6c-0.2-0.2-0.5-0.2-0.8-0.2c-0.6,0-1.1,0.1-1.4,0.4c0.2,0,0.3,0.1,0.5,0.2c0.1,0.1,0.2,0.3,0.2,0.5
		c0,0.2-0.1,0.4-0.2,0.5c-0.1,0.1-0.3,0.2-0.5,0.2c-0.2,0-0.4-0.1-0.5-0.2c-0.1-0.1-0.2-0.3-0.2-0.5c0-0.5,0.2-0.9,0.7-1.1
		c0.5-0.2,1-0.4,1.5-0.4c0.4,0,0.8,0.1,1.2,0.2c0.4,0.2,0.7,0.4,1,0.7s0.4,0.7,0.4,1.1v3.2c0,0.2,0,0.4,0.1,0.5
		c0.1,0.2,0.2,0.2,0.4,0.2c0.2,0,0.3-0.1,0.4-0.2c0.1-0.2,0.1-0.3,0.1-0.5V8h0.4v0.9c0,0.2-0.1,0.4-0.2,0.6
		c-0.1,0.2-0.3,0.3-0.5,0.5c-0.2,0.1-0.4,0.2-0.6,0.2c-0.3,0-0.5-0.1-0.7-0.3c-0.2-0.2-0.3-0.5-0.3-0.8c-0.2,0.4-0.4,0.6-0.8,0.9
		c-0.3,0.2-0.7,0.3-1.1,0.3c-0.4,0-0.7-0.1-1.1-0.2c-0.3-0.1-0.6-0.3-0.9-0.5S333.3,9,333.3,8.6L333.3,8.6z M334.5,8.6
		c0,0.3,0.1,0.6,0.4,0.8c0.2,0.2,0.5,0.3,0.9,0.3c0.3,0,0.6-0.1,0.8-0.2c0.2-0.2,0.4-0.4,0.6-0.6c0.1-0.3,0.2-0.5,0.2-0.8V6.7
		c-0.4,0-0.9,0.1-1.3,0.2c-0.5,0.1-0.8,0.4-1.1,0.7C334.6,7.8,334.5,8.2,334.5,8.6L334.5,8.6z"/>
	<path d="M340.2,10V9.5c0.3,0,0.6,0,0.8-0.1c0.2-0.1,0.3-0.2,0.3-0.4V5.2c0-0.3,0-0.4-0.1-0.6c-0.1-0.1-0.2-0.2-0.3-0.2
		c-0.1,0-0.4,0-0.7,0V3.9l2.1-0.2v1.4c0.2-0.4,0.5-0.7,0.8-1s0.8-0.4,1.2-0.4c0.7,0,1.2,0.2,1.5,0.5c0.3,0.3,0.5,0.8,0.5,1.5v3.4
		c0,0.2,0.1,0.3,0.3,0.4c0.2,0.1,0.5,0.1,0.8,0.1V10h-3.3V9.5c0.3,0,0.6,0,0.8-0.1c0.2-0.1,0.3-0.2,0.3-0.4V5.7
		c0-0.5-0.1-0.8-0.2-1.1c-0.1-0.3-0.4-0.5-0.8-0.5c-0.6,0-1,0.2-1.4,0.7c-0.4,0.4-0.5,0.9-0.5,1.5v2.8c0,0.2,0.1,0.3,0.3,0.4
		c0.2,0.1,0.5,0.1,0.8,0.1V10H340.2L340.2,10z"/>
	<path d="M351,10.2c-0.6,0-1.1-0.2-1.5-0.5c-0.5-0.3-0.8-0.7-1.1-1.2c-0.3-0.5-0.4-1-0.4-1.6c0-0.6,0.1-1.1,0.4-1.6
		c0.3-0.5,0.7-0.9,1.1-1.2c0.5-0.3,1-0.4,1.6-0.4c0.3,0,0.7,0.1,1,0.2c0.3,0.1,0.6,0.3,0.8,0.6v-3c0-0.3,0-0.4-0.1-0.5
		c-0.1-0.1-0.2-0.2-0.3-0.2c-0.1,0-0.4,0-0.7,0V0.3l2.1-0.2v8.6c0,0.3,0,0.4,0.1,0.5c0.1,0.1,0.2,0.2,0.3,0.2c0.1,0,0.4,0,0.7,0V10
		l-2.1,0.2V9.3c-0.3,0.3-0.5,0.5-0.9,0.7C351.7,10.1,351.4,10.2,351,10.2L351,10.2z M349.6,8.8c0.2,0.3,0.4,0.6,0.7,0.8
		c0.3,0.2,0.6,0.3,0.9,0.3c0.4,0,0.8-0.1,1.1-0.3c0.3-0.2,0.6-0.5,0.7-0.9V5.2c-0.1-0.2-0.3-0.4-0.4-0.6c-0.2-0.2-0.4-0.3-0.6-0.4
		c-0.2-0.1-0.4-0.1-0.7-0.1c-0.5,0-0.9,0.1-1.2,0.4c-0.3,0.3-0.5,0.6-0.6,1.1c-0.1,0.4-0.2,0.9-0.2,1.4c0,0.4,0,0.7,0.1,1
		S349.4,8.5,349.6,8.8L349.6,8.8z"/>
	<path d="M360.4,10V9.5c1,0,1.5-0.1,1.5-0.4V1.3c0-0.3-0.5-0.5-1.5-0.5V0.3h4.4v0.5c-1,0-1.5,0.2-1.5,0.5v7.8c0,0.3,0.5,0.4,1.5,0.4
		V10H360.4L360.4,10z"/>
	<path d="M365.5,10V9.5c0.3,0,0.6,0,0.8-0.1c0.2-0.1,0.3-0.2,0.3-0.4V5.2c0-0.3,0-0.4-0.1-0.6c-0.1-0.1-0.2-0.2-0.3-0.2
		c-0.1,0-0.4,0-0.7,0V3.9l2.1-0.2v1.4c0.2-0.4,0.5-0.7,0.8-1s0.8-0.4,1.2-0.4c1.1,0,1.7,0.4,1.9,1.3c0.2-0.4,0.5-0.7,0.8-1
		c0.4-0.2,0.8-0.4,1.2-0.4c0.4,0,0.8,0.1,1.1,0.2c0.3,0.1,0.5,0.3,0.7,0.6c0.1,0.3,0.2,0.6,0.2,1.1v3.4c0,0.2,0.1,0.3,0.3,0.4
		c0.2,0.1,0.5,0.1,0.8,0.1V10h-3.3V9.5c0.3,0,0.6,0,0.8-0.1c0.2-0.1,0.3-0.2,0.3-0.4V5.7c0-0.5-0.1-0.9-0.2-1.2
		c-0.1-0.3-0.4-0.4-0.8-0.4c-0.5,0-1,0.2-1.4,0.7c-0.4,0.4-0.5,0.9-0.5,1.5v2.8c0,0.2,0.1,0.3,0.3,0.4c0.2,0.1,0.5,0.1,0.8,0.1V10
		h-3.3V9.5c0.3,0,0.6,0,0.8-0.1c0.2-0.1,0.3-0.2,0.3-0.4V5.7c0-0.5-0.1-0.8-0.2-1.1c-0.1-0.3-0.4-0.5-0.8-0.5c-0.6,0-1,0.2-1.4,0.7
		c-0.4,0.4-0.5,0.9-0.5,1.5v2.8c0,0.2,0.1,0.3,0.3,0.4c0.2,0.1,0.5,0.1,0.8,0.1V10H365.5L365.5,10z"/>
	<path d="M377.3,8.6c0-0.6,0.2-1,0.7-1.4c0.4-0.4,1-0.6,1.6-0.8c0.6-0.1,1.2-0.2,1.8-0.2V5.7c0-0.3-0.1-0.5-0.2-0.8
		c-0.1-0.3-0.3-0.5-0.5-0.6c-0.2-0.2-0.5-0.2-0.8-0.2c-0.6,0-1.1,0.1-1.4,0.4c0.2,0,0.3,0.1,0.5,0.2c0.1,0.1,0.2,0.3,0.2,0.5
		c0,0.2-0.1,0.4-0.2,0.5c-0.1,0.1-0.3,0.2-0.5,0.2c-0.2,0-0.4-0.1-0.5-0.2c-0.1-0.1-0.2-0.3-0.2-0.5c0-0.5,0.2-0.9,0.7-1.1
		c0.5-0.2,1-0.4,1.5-0.4c0.4,0,0.8,0.1,1.2,0.2c0.4,0.2,0.7,0.4,1,0.7s0.4,0.7,0.4,1.1v3.2c0,0.2,0,0.4,0.1,0.5
		c0.1,0.2,0.2,0.2,0.4,0.2c0.2,0,0.3-0.1,0.4-0.2c0.1-0.2,0.1-0.3,0.1-0.5V8h0.4v0.9c0,0.2-0.1,0.4-0.2,0.6
		c-0.1,0.2-0.3,0.3-0.5,0.5c-0.2,0.1-0.4,0.2-0.6,0.2c-0.3,0-0.5-0.1-0.7-0.3c-0.2-0.2-0.3-0.5-0.3-0.8c-0.2,0.4-0.4,0.6-0.8,0.9
		c-0.3,0.2-0.7,0.3-1.1,0.3c-0.4,0-0.7-0.1-1.1-0.2c-0.3-0.1-0.6-0.3-0.9-0.5S377.3,9,377.3,8.6L377.3,8.6z M378.4,8.6
		c0,0.3,0.1,0.6,0.4,0.8c0.2,0.2,0.5,0.3,0.9,0.3c0.3,0,0.6-0.1,0.8-0.2c0.3-0.2,0.4-0.4,0.6-0.6c0.1-0.3,0.2-0.5,0.2-0.8V6.7
		c-0.4,0-0.9,0.1-1.3,0.2c-0.5,0.1-0.8,0.4-1.1,0.7C378.6,7.8,378.4,8.2,378.4,8.6L378.4,8.6z"/>
	<path d="M384.1,11.2c0-0.3,0.1-0.6,0.4-0.9c0.2-0.3,0.5-0.4,0.9-0.5c-0.2-0.1-0.3-0.3-0.4-0.5c-0.1-0.2-0.2-0.4-0.2-0.7
		c0-0.4,0.1-0.8,0.4-1.2c-0.4-0.4-0.6-0.9-0.6-1.5c0-0.3,0.1-0.6,0.2-0.8c0.1-0.3,0.3-0.5,0.5-0.7c0.2-0.2,0.5-0.3,0.8-0.4
		c0.3-0.1,0.6-0.1,0.8-0.1c0.6,0,1.1,0.2,1.5,0.5c0.2-0.2,0.4-0.4,0.7-0.5c0.3-0.1,0.5-0.2,0.8-0.2c0.2,0,0.4,0.1,0.5,0.2
		s0.2,0.3,0.2,0.5c0,0.1,0,0.2-0.1,0.3c-0.1,0.1-0.2,0.1-0.3,0.1c-0.1,0-0.2,0-0.3-0.1c-0.1-0.1-0.1-0.2-0.1-0.3
		c0-0.2,0.1-0.3,0.2-0.4c-0.5,0-0.9,0.2-1.3,0.5c0.2,0.2,0.3,0.4,0.4,0.6c0.1,0.3,0.2,0.5,0.2,0.7c0,0.4-0.1,0.8-0.3,1.1
		c-0.2,0.3-0.5,0.6-0.9,0.8c-0.4,0.2-0.7,0.3-1.1,0.3c-0.5,0-1-0.1-1.4-0.4c-0.1,0.2-0.2,0.4-0.2,0.6c0,0.3,0.1,0.5,0.2,0.7
		c0.2,0.2,0.4,0.3,0.6,0.3h1.2c0.6,0,1.1,0.1,1.5,0.2c0.5,0.1,0.8,0.3,1.1,0.6c0.3,0.3,0.5,0.7,0.5,1.3c0,0.4-0.2,0.8-0.5,1
		c-0.4,0.3-0.8,0.5-1.3,0.6c-0.5,0.1-0.9,0.2-1.4,0.2c-0.4,0-0.9-0.1-1.4-0.2c-0.5-0.1-0.9-0.3-1.3-0.6S384.1,11.6,384.1,11.2
		L384.1,11.2z M384.9,11.2c0,0.3,0.1,0.6,0.4,0.8c0.3,0.2,0.6,0.4,0.9,0.5s0.7,0.2,1,0.2c0.3,0,0.7-0.1,1-0.2
		c0.4-0.1,0.7-0.3,0.9-0.5c0.3-0.2,0.4-0.5,0.4-0.8c0-0.5-0.2-0.8-0.7-1c-0.5-0.1-1-0.2-1.7-0.2h-1.2c-0.2,0-0.4,0.1-0.6,0.2
		c-0.2,0.1-0.3,0.3-0.4,0.4C385,10.8,384.9,11,384.9,11.2L384.9,11.2z M386.9,7.6c0.8,0,1.2-0.6,1.2-1.7c0-0.5-0.1-0.9-0.3-1.2
		c-0.2-0.3-0.5-0.5-1-0.5c-0.5,0-0.8,0.2-0.9,0.5c-0.2,0.3-0.3,0.7-0.3,1.2c0,0.3,0,0.6,0.1,0.9s0.2,0.5,0.4,0.6
		C386.3,7.5,386.6,7.6,386.9,7.6L386.9,7.6z"/>
	<path d="M391.1,10V9.5c0.3,0,0.6,0,0.8-0.1c0.2-0.1,0.3-0.2,0.3-0.4V5.2c0-0.4-0.1-0.6-0.2-0.7c-0.1-0.1-0.4-0.1-0.8-0.1V3.9
		l2.1-0.2v5.3c0,0.2,0.1,0.3,0.3,0.4c0.2,0.1,0.4,0.1,0.7,0.1V10H391.1L391.1,10z M391.8,1.3c0-0.2,0.1-0.4,0.2-0.6
		c0.2-0.2,0.3-0.2,0.6-0.2c0.1,0,0.3,0,0.4,0.1c0.1,0.1,0.2,0.2,0.3,0.3c0.1,0.1,0.1,0.3,0.1,0.4c0,0.2-0.1,0.4-0.2,0.5
		c-0.2,0.2-0.3,0.2-0.5,0.2c-0.2,0-0.4-0.1-0.6-0.2C391.8,1.7,391.8,1.5,391.8,1.3L391.8,1.3z"/>
	<path d="M395,10V9.5c0.3,0,0.6,0,0.8-0.1c0.2-0.1,0.3-0.2,0.3-0.4V5.2c0-0.3,0-0.4-0.1-0.6c-0.1-0.1-0.2-0.2-0.3-0.2
		c-0.1,0-0.4,0-0.7,0V3.9l2.1-0.2v1.4c0.2-0.4,0.5-0.7,0.8-1s0.8-0.4,1.2-0.4c0.7,0,1.2,0.2,1.5,0.5c0.3,0.3,0.5,0.8,0.5,1.5v3.4
		c0,0.2,0.1,0.3,0.3,0.4c0.2,0.1,0.5,0.1,0.8,0.1V10H399V9.5c0.3,0,0.6,0,0.8-0.1c0.2-0.1,0.3-0.2,0.3-0.4V5.7
		c0-0.5-0.1-0.8-0.2-1.1c-0.1-0.3-0.4-0.5-0.8-0.5c-0.6,0-1,0.2-1.4,0.7c-0.4,0.4-0.5,0.9-0.5,1.5v2.8c0,0.2,0.1,0.3,0.3,0.4
		c0.2,0.1,0.5,0.1,0.8,0.1V10H395L395,10z"/>
	<path d="M403,8.6c0-0.6,0.2-1,0.7-1.4c0.4-0.4,1-0.6,1.6-0.8c0.6-0.1,1.2-0.2,1.8-0.2V5.7c0-0.3-0.1-0.5-0.2-0.8
		c-0.1-0.3-0.3-0.5-0.5-0.6c-0.2-0.2-0.5-0.2-0.8-0.2c-0.6,0-1.1,0.1-1.4,0.4c0.2,0,0.3,0.1,0.5,0.2c0.1,0.1,0.2,0.3,0.2,0.5
		c0,0.2-0.1,0.4-0.2,0.5c-0.1,0.1-0.3,0.2-0.5,0.2c-0.2,0-0.4-0.1-0.5-0.2c-0.1-0.1-0.2-0.3-0.2-0.5c0-0.5,0.2-0.9,0.7-1.1
		c0.5-0.2,1-0.4,1.5-0.4c0.4,0,0.8,0.1,1.2,0.2c0.4,0.2,0.7,0.4,1,0.7s0.4,0.7,0.4,1.1v3.2c0,0.2,0,0.4,0.1,0.5
		c0.1,0.2,0.2,0.2,0.4,0.2c0.2,0,0.3-0.1,0.4-0.2c0.1-0.2,0.1-0.3,0.1-0.5V8h0.4v0.9c0,0.2-0.1,0.4-0.2,0.6
		c-0.1,0.2-0.3,0.3-0.5,0.5c-0.2,0.1-0.4,0.2-0.6,0.2c-0.3,0-0.5-0.1-0.7-0.3c-0.2-0.2-0.3-0.5-0.3-0.8c-0.2,0.4-0.4,0.6-0.8,0.9
		c-0.3,0.2-0.7,0.3-1.1,0.3c-0.4,0-0.7-0.1-1.1-0.2c-0.3-0.1-0.6-0.3-0.9-0.5S403,9,403,8.6L403,8.6z M404.1,8.6
		c0,0.3,0.1,0.6,0.4,0.8c0.2,0.2,0.5,0.3,0.9,0.3c0.3,0,0.6-0.1,0.8-0.2c0.3-0.2,0.4-0.4,0.6-0.6c0.1-0.3,0.2-0.5,0.2-0.8V6.7
		c-0.4,0-0.9,0.1-1.3,0.2c-0.5,0.1-0.8,0.4-1.1,0.7C404.3,7.8,404.1,8.2,404.1,8.6L404.1,8.6z"/>
	<path d="M409.7,10V9.5c0.3,0,0.6,0,0.8-0.1c0.2-0.1,0.3-0.2,0.3-0.4V5.2c0-0.3,0-0.4-0.1-0.6c-0.1-0.1-0.2-0.2-0.3-0.2
		c-0.1,0-0.4,0-0.7,0V3.9l2-0.2v1.4c0.2-0.4,0.4-0.7,0.7-1c0.3-0.3,0.6-0.4,1-0.4c0.3,0,0.5,0.1,0.8,0.2c0.2,0.2,0.3,0.4,0.3,0.7
		c0,0.2-0.1,0.3-0.2,0.5c-0.1,0.1-0.3,0.2-0.5,0.2c-0.2,0-0.3-0.1-0.5-0.2s-0.2-0.3-0.2-0.5c0-0.3,0.1-0.4,0.3-0.5h-0.1
		c-0.4,0-0.7,0.1-0.9,0.4c-0.2,0.3-0.4,0.6-0.5,1c-0.1,0.4-0.2,0.8-0.2,1.2v2.3c0,0.3,0.5,0.4,1.4,0.4V10H409.7L409.7,10z"/>
	<path d="M415.8,12.4c0.2,0.1,0.4,0.2,0.6,0.2c0.6,0,1.1-0.5,1.5-1.4l0.5-1.2l-2.1-5.2c-0.1-0.2-0.2-0.3-0.4-0.3
		c-0.2-0.1-0.4-0.1-0.7-0.1V3.9h3v0.5c-0.5,0-0.8,0.1-0.8,0.4c0,0,0,0.1,0,0.1l1.6,3.9l1.4-3.5c0-0.1,0-0.2,0-0.2
		c0-0.1,0-0.2-0.1-0.3c-0.1-0.1-0.1-0.2-0.2-0.2c-0.1,0-0.2-0.1-0.3-0.1V3.9h2.4v0.5c-0.3,0-0.6,0.1-0.8,0.2
		c-0.2,0.1-0.4,0.3-0.5,0.6l-2.5,6c-0.1,0.3-0.3,0.6-0.5,0.8c-0.2,0.3-0.4,0.5-0.6,0.6c-0.3,0.2-0.5,0.2-0.8,0.2
		c-0.4,0-0.7-0.1-0.9-0.3c-0.3-0.2-0.4-0.5-0.4-0.9c0-0.2,0.1-0.3,0.2-0.4c0.1-0.1,0.3-0.2,0.5-0.2c0.1,0,0.2,0,0.3,0.1
		c0.1,0.1,0.2,0.1,0.2,0.2c0.1,0.1,0.1,0.2,0.1,0.3c0,0.2-0.1,0.3-0.2,0.4C416.1,12.3,416,12.4,415.8,12.4L415.8,12.4z"/>
	<path d="M427.5,8.6c0-0.6,0.2-1,0.7-1.4c0.4-0.4,1-0.6,1.6-0.8c0.6-0.1,1.2-0.2,1.8-0.2V5.7c0-0.3-0.1-0.5-0.2-0.8
		c-0.1-0.3-0.3-0.5-0.5-0.6c-0.2-0.2-0.5-0.2-0.8-0.2c-0.6,0-1.1,0.1-1.4,0.4c0.2,0,0.3,0.1,0.5,0.2c0.1,0.1,0.2,0.3,0.2,0.5
		c0,0.2-0.1,0.4-0.2,0.5c-0.1,0.1-0.3,0.2-0.5,0.2c-0.2,0-0.4-0.1-0.5-0.2c-0.1-0.1-0.2-0.3-0.2-0.5c0-0.5,0.2-0.9,0.7-1.1
		c0.5-0.2,1-0.4,1.5-0.4c0.4,0,0.8,0.1,1.2,0.2c0.4,0.2,0.7,0.4,1,0.7s0.4,0.7,0.4,1.1v3.2c0,0.2,0,0.4,0.1,0.5
		c0.1,0.2,0.2,0.2,0.4,0.2c0.2,0,0.3-0.1,0.4-0.2c0.1-0.2,0.1-0.3,0.1-0.5V8h0.4v0.9c0,0.2-0.1,0.4-0.2,0.6
		c-0.1,0.2-0.3,0.3-0.5,0.5c-0.2,0.1-0.4,0.2-0.6,0.2c-0.3,0-0.5-0.1-0.7-0.3c-0.2-0.2-0.3-0.5-0.3-0.8c-0.2,0.4-0.4,0.6-0.8,0.9
		c-0.3,0.2-0.7,0.3-1.1,0.3c-0.4,0-0.7-0.1-1.1-0.2c-0.3-0.1-0.6-0.3-0.9-0.5S427.5,9,427.5,8.6L427.5,8.6z M428.6,8.6
		c0,0.3,0.1,0.6,0.4,0.8c0.2,0.2,0.5,0.3,0.9,0.3c0.3,0,0.6-0.1,0.8-0.2c0.3-0.2,0.4-0.4,0.6-0.6c0.1-0.3,0.2-0.5,0.2-0.8V6.7
		c-0.4,0-0.9,0.1-1.3,0.2c-0.5,0.1-0.8,0.4-1.1,0.7C428.8,7.8,428.6,8.2,428.6,8.6L428.6,8.6z"/>
	<path d="M434.1,10V9.5c0.4,0,0.7-0.1,1-0.2c0.3-0.1,0.6-0.4,0.8-0.6l1.3-1.6l-1.7-2.2c-0.2-0.2-0.3-0.3-0.5-0.4
		c-0.2-0.1-0.5-0.1-0.8-0.1V3.9h3v0.5c-0.1,0-0.2,0-0.4,0.1c-0.1,0.1-0.2,0.1-0.2,0.2c0,0,0,0.1,0,0.1l1.1,1.5l0.9-1.1
		c0.1-0.1,0.2-0.3,0.2-0.4c0-0.1,0-0.2-0.1-0.3c-0.1-0.1-0.2-0.1-0.3-0.1V3.9h2.6v0.5c-0.4,0-0.7,0.1-1,0.2
		c-0.3,0.1-0.6,0.4-0.8,0.6l-1.1,1.4l1.8,2.4c0.2,0.2,0.4,0.3,0.6,0.4c0.2,0,0.5,0.1,0.8,0.1V10h-3V9.5c0.1,0,0.2,0,0.3-0.1
		c0.1-0.1,0.2-0.1,0.2-0.2c0,0,0-0.1,0-0.1l-1.3-1.7l-1,1.3c-0.1,0.1-0.2,0.3-0.2,0.4c0,0.1,0,0.2,0.1,0.3s0.2,0.1,0.3,0.1V10H434.1
		L434.1,10z"/>
	<path d="M441.7,10V9.5c0.3,0,0.6,0,0.8-0.1c0.2-0.1,0.3-0.2,0.3-0.4V5.2c0-0.4-0.1-0.6-0.2-0.7c-0.1-0.1-0.4-0.1-0.8-0.1V3.9
		l2.1-0.2v5.3c0,0.2,0.1,0.3,0.3,0.4c0.2,0.1,0.4,0.1,0.7,0.1V10H441.7L441.7,10z M442.3,1.3c0-0.2,0.1-0.4,0.2-0.6
		c0.2-0.2,0.3-0.2,0.6-0.2c0.1,0,0.3,0,0.4,0.1c0.1,0.1,0.2,0.2,0.3,0.3c0.1,0.1,0.1,0.3,0.1,0.4c0,0.2-0.1,0.4-0.2,0.5
		c-0.2,0.2-0.3,0.2-0.5,0.2c-0.2,0-0.4-0.1-0.6-0.2C442.4,1.7,442.3,1.5,442.3,1.3L442.3,1.3z"/>
	<path d="M445.7,10.1V7.8c0-0.1,0-0.1,0.1-0.1h0.2c0.1,0,0.1,0,0.1,0.1c0.3,1.4,0.9,2.1,1.9,2.1c0.5,0,0.8-0.1,1.1-0.3
		c0.3-0.2,0.5-0.5,0.5-0.9c0-0.3-0.1-0.6-0.4-0.8c-0.2-0.2-0.5-0.4-0.8-0.4l-1-0.2c-0.3-0.1-0.6-0.2-0.9-0.3
		c-0.3-0.1-0.5-0.3-0.6-0.6c-0.2-0.2-0.3-0.5-0.3-0.8c0-0.4,0.1-0.8,0.3-1c0.2-0.3,0.5-0.5,0.9-0.6c0.4-0.1,0.7-0.2,1.1-0.2
		c0.5,0,0.9,0.1,1.3,0.4l0.4-0.4c0,0,0,0,0.1,0h0.1c0,0,0,0,0.1,0c0,0,0,0.1,0,0.1v1.9c0,0.1,0,0.1-0.1,0.1h-0.2
		c-0.1,0-0.1,0-0.1-0.1c0-0.5-0.1-0.9-0.4-1.2C448.9,4.1,448.5,4,448,4c-0.4,0-0.8,0.1-1.1,0.2s-0.5,0.4-0.5,0.8
		c0,0.3,0.1,0.5,0.3,0.7c0.2,0.2,0.5,0.3,0.8,0.4l1,0.2c0.3,0.1,0.6,0.2,0.9,0.4c0.3,0.2,0.5,0.4,0.7,0.7c0.2,0.3,0.3,0.6,0.3,0.9
		c0,0.3-0.1,0.6-0.2,0.9c-0.1,0.3-0.3,0.5-0.5,0.6c-0.2,0.2-0.5,0.3-0.7,0.4c-0.3,0.1-0.6,0.1-0.9,0.1c-0.6,0-1.1-0.2-1.5-0.6
		l-0.5,0.6c0,0,0,0-0.1,0h-0.1C445.7,10.2,445.7,10.2,445.7,10.1L445.7,10.1z"/>
	<polyline class="st2" points="126.2,64.2 125.8,58.3 124.6,52.4 122.8,46.8 120.2,41.4 116.9,36.4 113.1,31.9 108.6,27.9 
		103.7,24.4 98.5,21.7 92.9,19.6 87.1,18.3 81.1,17.7 75.2,17.9 69.3,18.9 63.5,20.6 58.1,23 53,26.1 48.3,29.8 44.2,34.1 
		40.6,38.9 37.7,44.1 35.5,49.6 33.9,55.4 33.2,61.3 33.2,67.2 33.9,73.1 35.5,78.9 37.7,84.4 40.6,89.6 44.2,94.4 48.3,98.7 
		53,102.4 58.1,105.5 63.5,107.9 69.3,109.6 75.2,110.6 81.1,110.8 87.1,110.2 92.9,108.9 98.5,106.8 103.7,104 108.6,100.6 
		113.1,96.6 116.9,92.1 120.2,87.1 122.8,81.7 124.6,76.1 125.8,70.2 126.2,64.2 	"/>
	<path class="st3" d="M33.1,64.2h385.5 M79.6,403.2V17.7"/>
	<path class="st4" d="M126.2,110.8V17.7 M162.7,110.8V17.7 M199.3,110.8V17.7 M235.8,110.8V17.7 M272.4,110.8V17.7 M308.9,110.8
		V17.7 M345.5,110.8V17.7 M382,110.8V17.7 M418.6,110.8V17.7 M126.2,110.8h292.4 M126.2,87.5h292.4 M126.2,64.2h292.4 M126.2,41
		h292.4 M126.2,17.7h292.4 M33.1,403.2V110.8 M56.4,403.2V110.8 M79.6,403.2V110.8 M102.9,403.2V110.8 M126.2,403.2V110.8
		 M33.1,403.2h93.1 M33.1,366.7h93.1 M33.1,330.1h93.1 M33.1,293.6h93.1 M33.1,257h93.1 M33.1,220.4h93.1 M33.1,183.9h93.1
		 M33.1,147.3h93.1 M33.1,110.8h93.1"/>
	<path class="st5" d="M126.2,403.2V110.8 M162.7,403.2V110.8 M199.3,403.2V110.8 M235.8,403.2V110.8 M272.4,403.2V110.8
		 M308.9,403.2V110.8 M345.5,403.2V110.8 M382,403.2V110.8 M418.6,403.2V110.8 M126.2,403.2h292.4 M126.2,366.7h292.4 M126.2,330.1
		h292.4 M126.2,293.6h292.4 M126.2,257h292.4 M126.2,220.4h292.4 M126.2,183.9h292.4 M126.2,147.3h292.4 M126.2,110.8h292.4"/>
	<path class="st6" d="M175,306.4c0.4,0.4,0.8,0.5,1.3,0.5s1-0.4,1.4-1.1c0.4-0.7,0.8-1.6,1.1-2.7c0.3-1.1,0.6-2,0.7-2.7
		c0.2-0.7,0.3-1.7,0.6-2.8c0.2-1.1,0.4-2.1,0.6-3.2c0.2-1.1,0.4-2.2,0.6-3.4c0.2-1.2,0.4-2.4,0.6-3.7s0.5-2.6,0.8-4
		c0.4-1.9,0.7-3.2,0.8-4c0.2-0.8,0.4-1.9,0.8-3.5s0.6-2.5,0.7-3c0.1-0.5,0.4-1.8,0.9-3.9l0.3-1.1c0.3-1.3,0.6-2.2,0.8-2.9
		c0.2-0.7,0.5-1.5,0.8-2.4c0.4-0.9,0.8-1.7,1.3-2.4c0.5-0.7,1.1-1,1.7-1c0.4,0,0.8,0.1,1.2,0.3c0.4,0.2,0.7,0.5,0.9,0.8
		c0.2,0.3,0.3,0.7,0.3,1.1c0,0.3-0.1,0.6-0.3,0.8c-0.2,0.2-0.5,0.3-0.8,0.3c-0.3,0-0.6-0.1-0.8-0.3c-0.2-0.2-0.3-0.5-0.3-0.8
		c0-0.3,0.1-0.6,0.3-0.8c0.2-0.2,0.5-0.3,0.8-0.3c-0.4-0.4-0.8-0.5-1.3-0.5c-0.3,0-0.6,0.4-0.9,1.2c-0.3,0.8-0.6,1.7-0.9,2.8
		c-0.3,1.1-0.5,2-0.6,2.7c-0.1,0.7-0.3,1.6-0.5,2.7c-0.2,1.2-0.4,2.3-0.6,3.2c-0.2,0.9-0.4,2-0.6,3.3c-0.2,1.3-0.4,2.6-0.7,3.8
		c-0.2,1.2-0.5,2.5-0.8,4.1c-0.2,0.9-0.5,2.3-0.8,4c-0.4,1.7-0.6,2.8-0.7,3.4c-0.1,0.5-0.4,1.8-0.9,3.8c-0.5,2-0.7,3.1-0.8,3.2
		l-0.3,1c-0.4,1.5-0.8,2.9-1.1,4.1c-0.4,1.2-0.9,2.2-1.7,3.3c-0.7,1-1.6,1.5-2.7,1.5c-0.6,0-1.2-0.2-1.7-0.6
		c-0.5-0.4-0.7-0.9-0.7-1.6c0-0.3,0.1-0.6,0.3-0.8c0.2-0.2,0.5-0.3,0.8-0.3c0.2,0,0.4,0,0.6,0.1c0.2,0.1,0.3,0.2,0.4,0.4
		c0.1,0.2,0.1,0.4,0.1,0.6c0,0.3-0.1,0.6-0.3,0.8C175.6,306.3,175.3,306.4,175,306.4L175,306.4z"/>
	<path class="st6" d="M197,262.9c0,0.4,0.1,0.7,0.2,1s0.4,0.5,0.7,0.7c0.3,0.2,0.6,0.2,1,0.2c0.5,0,0.9-0.1,1.3-0.3
		c0.4-0.2,0.8-0.4,1.2-0.8c0.3-0.3,0.6-0.7,0.9-1.1c0.2-0.4,0.4-0.8,0.5-1.2l1.4-5.7c0-0.1,0-0.2,0-0.2c0-0.4-0.4-0.7-1.2-0.7
		c-0.1,0-0.2-0.1-0.2-0.2c0-0.1,0.1-0.2,0.1-0.3c0,0,0.1-0.1,0.2-0.1h3.4c0,0,0.1,0,0.1,0.1c0,0,0,0.1,0,0.1c0,0,0,0,0,0.1
		c0,0.1,0,0.1-0.1,0.2c0,0-0.1,0.1-0.1,0.1c-1,0-1.6,0.3-1.7,1l-1.4,5.7c-0.1,0.5-0.3,1-0.6,1.4c-0.3,0.5-0.6,0.9-1,1.3
		c-0.4,0.4-0.9,0.7-1.3,0.9c-0.5,0.2-1,0.3-1.5,0.3c-0.6,0-1.1-0.1-1.6-0.4c-0.5-0.3-0.9-0.6-1.1-1.1s-0.4-1-0.4-1.6
		c0-0.3,0-0.7,0.1-0.9l1.5-6.1c0-0.1,0-0.2,0-0.2c0-0.1-0.1-0.2-0.2-0.2c-0.2,0-0.6-0.1-1.1-0.1c-0.1,0-0.2-0.1-0.2-0.2
		c0-0.1,0.1-0.2,0.1-0.3c0,0,0.1-0.1,0.2-0.1h4.2c0.1,0,0.2,0.1,0.2,0.2c0,0,0,0.1,0,0.1s0,0.1-0.1,0.2c0,0-0.1,0.1-0.1,0.1
		c-0.6,0-1.1,0-1.3,0.1c-0.1,0.1-0.2,0.2-0.3,0.4l-1.5,6.1C197.1,262.1,197,262.6,197,262.9L197,262.9z"/>
	<path class="st6" d="M186.5,305.2c-0.1,0-0.2,0-0.2-0.1c-0.1-0.1-0.1-0.1-0.1-0.2c0-0.1,0-0.2,0.1-0.2c0.1-0.1,0.1-0.1,0.2-0.1h9
		c0.1,0,0.2,0,0.2,0.1c0.1,0.1,0.1,0.1,0.1,0.2c0,0.1,0,0.2-0.1,0.2c-0.1,0.1-0.1,0.1-0.2,0.1H186.5L186.5,305.2z"/>
	<path class="st6" d="M197.6,308.6c0,0,0-0.1,0-0.1c0-0.1,0-0.1,0.1-0.2c0,0,0.1-0.1,0.1-0.1c0.9,0,1.5,0,1.8-0.1
		c0.3-0.1,0.4-0.2,0.5-0.5l2.2-8.6c0-0.1,0.1-0.2,0.1-0.3c0-0.1-0.2-0.1-0.6-0.1h-0.9c-0.7,0-1.2,0.1-1.6,0.3
		c-0.4,0.2-0.7,0.5-0.8,0.9c-0.2,0.4-0.4,0.9-0.7,1.7c0,0.1-0.1,0.1-0.2,0.1h-0.1c-0.1,0-0.2-0.1-0.2-0.2l1.1-3.3
		c0-0.1,0.1-0.1,0.2-0.1h9.3c0.1,0,0.2,0.1,0.2,0.2l-0.5,3.3c0,0,0,0.1-0.1,0.1c0,0-0.1,0-0.1,0h-0.1c-0.1,0-0.2-0.1-0.2-0.2
		c0.1-0.8,0.2-1.3,0.2-1.6c0-0.4-0.1-0.6-0.2-0.8s-0.4-0.3-0.6-0.4c-0.2-0.1-0.6-0.1-1-0.1h-0.9c-0.3,0-0.5,0-0.6,0.1
		c-0.1,0.1-0.2,0.2-0.3,0.5l-2.2,8.6c0,0,0,0,0,0.1c0,0,0,0.1,0,0.1c0,0.1,0.1,0.2,0.2,0.2c0.3,0.1,0.9,0.1,1.7,0.1
		c0.1,0,0.2,0.1,0.2,0.2c0,0.1-0.1,0.2-0.1,0.3s-0.1,0.1-0.2,0.1h-5.6C197.7,308.8,197.6,308.8,197.6,308.6L197.6,308.6z"/>
	<path class="st6" d="M208.7,311.4c-0.9,0-1.5-0.4-1.9-1.1c-0.3-0.8-0.5-1.7-0.5-2.7c0-0.7,0.1-1.3,0.2-1.8c0.1-0.6,0.4-1.1,0.7-1.5
		c0.4-0.4,0.8-0.6,1.5-0.6c0.5,0,0.9,0.1,1.2,0.4c0.3,0.2,0.6,0.5,0.7,0.9c0.2,0.4,0.3,0.8,0.3,1.2s0.1,0.9,0.1,1.4
		c0,0.6-0.1,1.2-0.2,1.8c-0.1,0.6-0.4,1-0.7,1.4C209.8,311.2,209.4,311.4,208.7,311.4L208.7,311.4z M208.7,311.1
		c0.4,0,0.7-0.2,0.9-0.6c0.2-0.4,0.3-0.9,0.4-1.4s0.1-1.1,0.1-1.7c0-0.6,0-1.1-0.1-1.6c0-0.5-0.2-0.9-0.4-1.3
		c-0.2-0.4-0.5-0.6-0.9-0.6s-0.7,0.2-0.9,0.6s-0.3,0.8-0.4,1.3c0,0.5-0.1,1-0.1,1.6c0,0.4,0,0.8,0,1.2s0.1,0.8,0.2,1.1
		c0.1,0.4,0.2,0.7,0.4,1C208.1,311,208.4,311.1,208.7,311.1L208.7,311.1z"/>
	<path class="st6" d="M213.4,312.5C213.4,312.4,213.4,312.4,213.4,312.5l5.5-15.2c0-0.1,0.1-0.1,0.1-0.1c0.1,0,0.1-0.1,0.2-0.1
		c0.1,0,0.2,0,0.2,0.1c0.1,0.1,0.1,0.1,0.1,0.2v0.1l-5.5,15.2c-0.1,0.1-0.2,0.2-0.3,0.2c-0.1,0-0.2,0-0.2-0.1
		S213.4,312.5,213.4,312.5L213.4,312.5z"/>
	<path class="st6" d="M221,308.8v-0.4c0,0,0-0.1,0-0.1l2.4-2.7c0.4-0.4,0.7-0.7,0.9-1c0.2-0.3,0.5-0.6,0.7-0.9
		c0.2-0.4,0.4-0.7,0.5-1.1c0.1-0.4,0.2-0.8,0.2-1.2c0-0.4-0.1-0.8-0.2-1.2c-0.2-0.4-0.4-0.7-0.7-0.9c-0.3-0.2-0.7-0.4-1.1-0.4
		c-0.5,0-0.9,0.1-1.2,0.4c-0.4,0.3-0.6,0.6-0.8,1.1c0,0,0.1,0,0.2,0c0.2,0,0.4,0.1,0.6,0.2c0.2,0.2,0.3,0.4,0.3,0.6
		c0,0.2-0.1,0.4-0.3,0.6c-0.2,0.2-0.4,0.3-0.6,0.3c-0.2,0-0.4-0.1-0.6-0.3s-0.3-0.4-0.3-0.6c0-0.4,0.1-0.8,0.2-1.1
		c0.1-0.3,0.4-0.7,0.6-0.9c0.3-0.3,0.6-0.5,0.9-0.6c0.3-0.1,0.7-0.2,1.1-0.2c0.6,0,1.2,0.1,1.7,0.4c0.5,0.3,0.9,0.6,1.2,1.1
		c0.3,0.5,0.5,1,0.5,1.6c0,0.5-0.1,0.9-0.3,1.3c-0.2,0.4-0.5,0.8-0.8,1.1c-0.3,0.3-0.7,0.7-1.2,1.1c-0.5,0.4-0.8,0.7-1,0.9l-1.8,1.7
		h1.5c0.7,0,1.4,0,1.9,0c0.5,0,0.8,0,0.8-0.1c0.1-0.1,0.3-0.6,0.4-1.5h0.5l-0.4,2.8H221L221,308.8z"/>
	<path class="st6" d="M237,289.4c-0.7,0-1.3-0.2-1.8-0.5c-0.5-0.4-0.9-0.8-1.2-1.5c-0.3-0.6-0.4-1.3-0.4-1.9c0-1,0.3-2,0.8-2.9
		c0.5-0.9,1.2-1.6,2.1-2.2c0.9-0.5,1.8-0.8,2.9-0.8c0.6,0,1.2,0.2,1.6,0.5c0.5,0.3,0.7,0.8,0.7,1.4c0,0.8-0.3,1.5-1,1.9
		c-0.7,0.4-1.4,0.7-2.3,0.8c-0.8,0.1-1.8,0.1-2.8,0.1h-0.1c-0.2,0.9-0.4,1.6-0.4,2.2c0,0.6,0.1,1.2,0.4,1.7s0.8,0.7,1.4,0.7
		c0.9,0,1.7-0.2,2.5-0.6c0.8-0.4,1.4-0.9,2-1.6c0,0,0.1-0.1,0.2-0.1s0.1,0,0.2,0.1c0.1,0.1,0.1,0.2,0.1,0.2c0,0.1,0,0.1,0,0.1
		c-0.5,0.7-1.2,1.3-2.1,1.8C238.9,289.1,238,289.4,237,289.4L237,289.4z M235.8,283.6c0.8,0,1.6,0,2.3-0.1c0.7-0.1,1.4-0.3,1.9-0.6
		s0.9-0.8,0.9-1.5c0-0.3-0.1-0.5-0.2-0.7c-0.1-0.2-0.3-0.4-0.6-0.5c-0.2-0.1-0.5-0.2-0.7-0.2c-0.6,0-1.2,0.2-1.7,0.5
		c-0.5,0.3-0.9,0.8-1.2,1.3C236.2,282.4,235.9,283,235.8,283.6L235.8,283.6z"/>
	<path class="st6" d="M242.7,282.3c0-0.3,0.1-0.5,0.3-0.7c0.2-0.2,0.4-0.3,0.6-0.3c0.2,0,0.3,0.1,0.4,0.2c0.1,0.1,0.2,0.2,0.2,0.4
		c0,0.2-0.1,0.4-0.2,0.5s-0.3,0.3-0.5,0.3c0.2,0.1,0.4,0.1,0.6,0.1c0.4,0,0.8-0.2,1.2-0.6c0.3-0.4,0.6-0.9,0.7-1.4l1.5-5.9
		c0.1-0.3,0.1-0.6,0.1-0.8c0-0.5-0.2-0.7-0.5-0.7c-0.5,0-0.9,0.2-1.2,0.6c-0.3,0.4-0.6,0.9-0.8,1.4c0,0.1-0.1,0.1-0.1,0.1h-0.2
		c-0.1,0-0.1-0.1-0.1-0.2v0c0.2-0.6,0.6-1.2,1-1.7c0.4-0.5,0.9-0.7,1.5-0.7c0.4,0,0.8,0.1,1.1,0.4c0.3,0.3,0.4,0.6,0.4,1
		c0,0.1,0,0.3,0,0.5l-1.5,6c-0.1,0.4-0.3,0.8-0.6,1.2c-0.3,0.4-0.7,0.6-1.1,0.8c-0.4,0.2-0.9,0.3-1.3,0.3c-0.4,0-0.7-0.1-1-0.3
		C242.8,282.8,242.7,282.6,242.7,282.3L242.7,282.3z M247.7,270.5c0-0.2,0.1-0.4,0.3-0.6c0.2-0.2,0.4-0.3,0.6-0.3
		c0.2,0,0.3,0.1,0.4,0.2c0.1,0.1,0.2,0.3,0.2,0.4c0,0.2-0.1,0.4-0.3,0.6c-0.2,0.2-0.4,0.3-0.6,0.3c-0.2,0-0.3-0.1-0.4-0.2
		C247.7,270.8,247.7,270.7,247.7,270.5L247.7,270.5z"/>
	<path class="st6" d="M250.9,280v-0.4c0,0,0-0.1,0-0.1l2.4-2.7c0.4-0.4,0.7-0.7,0.9-1s0.5-0.6,0.7-0.9s0.4-0.7,0.5-1.1
		c0.1-0.4,0.2-0.8,0.2-1.2c0-0.4-0.1-0.8-0.2-1.2c-0.2-0.4-0.4-0.7-0.7-0.9c-0.3-0.2-0.7-0.4-1.1-0.4c-0.5,0-0.9,0.1-1.2,0.4
		c-0.4,0.3-0.6,0.6-0.8,1.1c0,0,0.1,0,0.2,0c0.2,0,0.4,0.1,0.6,0.2c0.2,0.2,0.3,0.4,0.3,0.6c0,0.2-0.1,0.4-0.3,0.6s-0.4,0.3-0.6,0.3
		c-0.2,0-0.4-0.1-0.6-0.3s-0.3-0.4-0.3-0.6c0-0.4,0.1-0.8,0.2-1.1c0.1-0.3,0.4-0.7,0.6-0.9c0.3-0.3,0.6-0.5,0.9-0.6
		c0.3-0.1,0.7-0.2,1.1-0.2c0.6,0,1.2,0.1,1.7,0.4c0.5,0.3,0.9,0.6,1.2,1.1c0.3,0.5,0.5,1,0.5,1.6c0,0.5-0.1,0.9-0.3,1.3
		c-0.2,0.4-0.5,0.8-0.8,1.1c-0.3,0.3-0.7,0.7-1.2,1.1c-0.5,0.4-0.8,0.7-1,0.9l-1.8,1.7h1.5c0.7,0,1.4,0,1.9,0c0.5,0,0.8,0,0.8-0.1
		c0.1-0.1,0.3-0.6,0.4-1.5h0.5l-0.4,2.8H250.9L250.9,280z"/>
	<path class="st6" d="M259.4,279.8c0-0.1,0-0.1,0.1-0.3c0.3-0.6,0.6-1.2,0.8-1.8s0.5-1.2,0.7-1.7c0.2-0.6,0.4-1.1,0.6-1.8h-1
		c-0.4,0-0.7,0.1-1.1,0.4s-0.6,0.5-0.8,0.9c0,0,0,0.1-0.1,0.1h-0.2c-0.1,0-0.2-0.1-0.2-0.2c0,0,0-0.1,0-0.1c0.3-0.6,0.7-1.1,1.1-1.5
		c0.4-0.4,0.8-0.6,1.3-0.6h5.7c0.1,0,0.2,0,0.3,0.1c0.1,0.1,0.1,0.2,0.1,0.3c0,0.1-0.1,0.3-0.2,0.4c-0.1,0.1-0.2,0.2-0.4,0.2h-2
		c-0.2,0.8-0.3,1.6-0.3,2.4c0,1,0.2,1.9,0.5,2.7c0,0.1,0,0.1,0,0.2c0,0.1,0,0.2-0.1,0.3c-0.1,0.1-0.2,0.2-0.3,0.2
		c-0.1,0.1-0.2,0.1-0.3,0.1c-0.3,0-0.5-0.2-0.6-0.7c-0.1-0.4-0.2-0.9-0.2-1.3c0-0.6,0.1-1.2,0.2-1.7c0.1-0.6,0.3-1.3,0.5-2.3H262
		c-0.8,3.4-1.3,5.2-1.5,5.6c-0.1,0.3-0.4,0.4-0.6,0.4c-0.1,0-0.2,0-0.3-0.1C259.5,280,259.4,279.9,259.4,279.8L259.4,279.8z"/>
	<path class="st6" d="M268,280v-0.4c0,0,0-0.1,0-0.1l2.4-2.7c0.4-0.4,0.7-0.7,0.9-1c0.2-0.3,0.5-0.6,0.7-0.9
		c0.2-0.4,0.4-0.7,0.5-1.1c0.1-0.4,0.2-0.8,0.2-1.2c0-0.4-0.1-0.8-0.2-1.2c-0.2-0.4-0.4-0.7-0.7-0.9c-0.3-0.2-0.7-0.4-1.1-0.4
		c-0.5,0-0.9,0.1-1.2,0.4c-0.4,0.3-0.6,0.6-0.8,1.1c0,0,0.1,0,0.2,0c0.2,0,0.4,0.1,0.6,0.2c0.2,0.2,0.3,0.4,0.3,0.6
		c0,0.2-0.1,0.4-0.3,0.6c-0.2,0.2-0.4,0.3-0.6,0.3c-0.2,0-0.4-0.1-0.6-0.3c-0.2-0.2-0.3-0.4-0.3-0.6c0-0.4,0.1-0.8,0.2-1.1
		c0.1-0.3,0.4-0.7,0.6-0.9c0.3-0.3,0.6-0.5,0.9-0.6c0.3-0.1,0.7-0.2,1.1-0.2c0.6,0,1.2,0.1,1.7,0.4c0.5,0.3,0.9,0.6,1.2,1.1
		c0.3,0.5,0.5,1,0.5,1.6c0,0.5-0.1,0.9-0.3,1.3c-0.2,0.4-0.5,0.8-0.8,1.1c-0.3,0.3-0.7,0.7-1.2,1.1c-0.5,0.4-0.8,0.7-1,0.9l-1.8,1.7
		h1.5c0.7,0,1.4,0,1.9,0s0.8,0,0.8-0.1c0.1-0.1,0.3-0.6,0.4-1.5h0.5l-0.4,2.8H268L268,280z"/>
	<path class="st6" d="M275.6,280c-0.1,0-0.2-0.1-0.2-0.2c0,0,0-0.1,0-0.1c0-0.1,0-0.1,0.1-0.2c0,0,0.1-0.1,0.1-0.1
		c0.6,0,1.1,0,1.3-0.1c0.1,0,0.2-0.2,0.3-0.4l2.2-8.6c0-0.1,0-0.2,0-0.2c0-0.1-0.1-0.2-0.2-0.2c-0.2,0-0.6-0.1-1.1-0.1
		c-0.1,0-0.2-0.1-0.2-0.2c0,0,0-0.1,0-0.1c0-0.1,0-0.1,0.1-0.2c0,0,0.1-0.1,0.1-0.1h8.3c0.1,0,0.2,0.1,0.2,0.2l-0.4,3.3
		c0,0,0,0.1-0.1,0.1c0,0-0.1,0-0.1,0H286c-0.1,0-0.2-0.1-0.2-0.2c0.1-0.5,0.1-0.9,0.1-1.2c0-0.5-0.1-0.9-0.3-1.2
		c-0.2-0.2-0.5-0.4-0.9-0.5c-0.3-0.1-0.8-0.1-1.4-0.1h-1.7c-0.3,0-0.5,0-0.6,0.1c-0.1,0.1-0.2,0.2-0.3,0.5l-1,4h1.2
		c0.4,0,0.7,0,0.9-0.1c0.2,0,0.4-0.1,0.6-0.2c0.2-0.1,0.3-0.3,0.4-0.5c0.1-0.2,0.2-0.5,0.3-0.9c0-0.1,0.1-0.2,0.2-0.2h0.1
		c0.1,0,0.2,0.1,0.2,0.2l-1,3.9c0,0.1-0.1,0.1-0.2,0.1h-0.1c-0.1,0-0.2-0.1-0.2-0.2c0-0.1,0-0.2,0.1-0.3c0-0.1,0-0.2,0.1-0.3
		c0-0.1,0-0.3,0-0.4c0-0.3-0.1-0.5-0.4-0.6c-0.3-0.1-0.6-0.1-1-0.1h-1.3l-1,4.1c0,0.1,0,0.2,0,0.2c0,0.1,0,0.2,0.1,0.2
		c0.3,0.1,0.8,0.1,1.6,0.1c0.1,0,0.2,0.1,0.2,0.2c0,0.1-0.1,0.2-0.1,0.3c0,0-0.1,0.1-0.2,0.1H275.6L275.6,280z"/>
	<path class="st6" d="M287.6,282.6c-0.9,0-1.5-0.4-1.9-1.1s-0.5-1.7-0.5-2.7c0-0.7,0.1-1.3,0.2-1.8c0.1-0.6,0.4-1.1,0.7-1.5
		c0.4-0.4,0.8-0.6,1.5-0.6c0.5,0,0.9,0.1,1.2,0.4c0.3,0.2,0.6,0.5,0.7,0.9c0.2,0.4,0.3,0.8,0.3,1.2s0.1,0.9,0.1,1.4
		c0,0.6-0.1,1.2-0.2,1.8c-0.1,0.6-0.4,1-0.7,1.4C288.7,282.4,288.2,282.6,287.6,282.6L287.6,282.6z M287.6,282.3
		c0.4,0,0.7-0.2,0.9-0.6c0.2-0.4,0.3-0.9,0.4-1.4c0-0.5,0.1-1.1,0.1-1.7c0-0.6,0-1.1-0.1-1.6s-0.2-0.9-0.4-1.3
		c-0.2-0.4-0.5-0.6-0.9-0.6s-0.7,0.2-0.9,0.6c-0.2,0.4-0.3,0.8-0.4,1.3s-0.1,1-0.1,1.6c0,0.4,0,0.8,0,1.2c0,0.4,0.1,0.8,0.2,1.1
		c0.1,0.4,0.2,0.7,0.4,1C287,282.2,287.3,282.3,287.6,282.3L287.6,282.3z"/>
	<path class="st6" d="M292.3,278.8c0-0.2,0-0.3,0-0.4l1.1-4.5h-1.7c-0.1,0-0.2-0.1-0.2-0.2c0-0.2,0.1-0.3,0.2-0.3h1.7l0.6-2.6
		c0-0.1,0.1-0.2,0.2-0.3c0.1-0.1,0.3-0.1,0.4-0.1c0.1,0,0.3,0,0.3,0.1c0.1,0.1,0.1,0.2,0.1,0.3c0,0,0,0.1,0,0.1c0,0,0,0,0,0.1
		l-0.6,2.5h1.6c0.1,0,0.2,0.1,0.2,0.2c0,0,0,0.1,0,0.1c0,0.1,0,0.1-0.1,0.2c0,0-0.1,0.1-0.1,0.1h-1.7l-1.1,4.5
		c-0.1,0.3-0.1,0.6-0.1,0.8c0,0.5,0.2,0.7,0.5,0.7c0.5,0,0.9-0.2,1.2-0.7c0.4-0.4,0.6-0.9,0.8-1.4c0-0.1,0.1-0.1,0.1-0.1h0.2
		c0,0,0.1,0,0.1,0c0,0,0,0.1,0,0.1c0,0,0,0,0,0c-0.2,0.6-0.6,1.2-1,1.7c-0.4,0.5-0.9,0.7-1.5,0.7c-0.4,0-0.8-0.1-1-0.4
		C292.5,279.5,292.3,279.2,292.3,278.8L292.3,278.8z"/>
	<path class="st6" d="M301.8,289.4c-0.9,0-1.6-0.3-2.2-1c-0.5-0.7-0.8-1.5-0.8-2.4c0-0.9,0.2-1.9,0.7-2.9c0.5-1,1.1-1.8,1.9-2.5
		c0.8-0.7,1.7-1,2.6-1c0.4,0,0.8,0.1,1.1,0.4c0.3,0.2,0.6,0.6,0.8,0.9l1.2-4.9c0.1-0.3,0.1-0.4,0.1-0.6c0-0.2-0.5-0.4-1.4-0.4
		c-0.1,0-0.2-0.1-0.2-0.3c0,0,0-0.1,0.1-0.2c0-0.1,0.1-0.2,0.1-0.2c0-0.1,0.1-0.1,0.2-0.1l2.9-0.2c0.2,0,0.3,0.1,0.3,0.3l-3.1,12.5
		c-0.1,0.2-0.2,0.6-0.2,1c0,0.6,0.2,0.9,0.6,0.9c0.5,0,0.8-0.3,1-0.9c0.2-0.6,0.4-1.2,0.6-2c0-0.1,0.1-0.1,0.2-0.1h0.3
		c0.1,0,0.1,0,0.1,0.1c0,0.1,0.1,0.1,0.1,0.1c-0.3,1-0.5,1.8-0.8,2.4c-0.3,0.6-0.8,0.9-1.5,0.9c-0.5,0-0.9-0.1-1.3-0.4
		s-0.6-0.7-0.7-1.1C303.7,288.8,302.8,289.4,301.8,289.4L301.8,289.4z M301.8,288.8c0.5,0,1-0.2,1.5-0.6c0.5-0.4,0.9-0.9,1.3-1.4
		c0,0,0,0,0-0.1l1.2-4.8c-0.1-0.5-0.3-0.9-0.6-1.3c-0.3-0.4-0.7-0.6-1.2-0.6c-0.5,0-0.9,0.2-1.4,0.6c-0.4,0.4-0.8,0.9-1.1,1.4
		c-0.3,0.6-0.6,1.4-0.8,2.4c-0.3,1-0.4,1.8-0.4,2.4c0,0.5,0.1,1,0.3,1.4C301,288.6,301.4,288.8,301.8,288.8L301.8,288.8z"/>
	<path class="st6" d="M310.8,287.4c0-0.2,0-0.4,0.1-0.6l1.6-6.2h-2.3c-0.1,0-0.2-0.1-0.2-0.3c0.1-0.3,0.1-0.5,0.3-0.5h2.4l0.9-3.6
		c0.1-0.2,0.2-0.3,0.3-0.5c0.2-0.1,0.4-0.2,0.6-0.2c0.2,0,0.3,0.1,0.5,0.2c0.1,0.1,0.2,0.3,0.2,0.4c0,0,0,0.1,0,0.1c0,0,0,0.1,0,0.1
		l-0.9,3.5h2.3c0.1,0,0.2,0.1,0.2,0.3c0,0,0,0.1,0,0.2c0,0.1-0.1,0.2-0.1,0.2c0,0.1-0.1,0.1-0.2,0.1H314l-1.6,6.3
		c-0.1,0.4-0.2,0.8-0.2,1.1c0,0.6,0.2,0.9,0.6,0.9c0.6,0,1.2-0.3,1.7-0.9c0.5-0.6,0.9-1.3,1.1-2c0.1-0.1,0.1-0.1,0.2-0.1h0.3
		c0.1,0,0.1,0,0.1,0.1c0,0,0.1,0.1,0.1,0.1c0,0,0,0,0,0.1c-0.3,0.9-0.8,1.6-1.4,2.3c-0.6,0.7-1.3,1-2.1,1c-0.6,0-1.1-0.2-1.4-0.6
		C311,288.4,310.8,287.9,310.8,287.4L310.8,287.4z"/>
	<path class="st6" d="M184.9,331.4l-2.8-7.9c-0.1-0.3-0.3-0.5-0.6-0.6c-0.2-0.1-0.6-0.1-1-0.1V322h4.5v0.8c-0.9,0-1.3,0.2-1.3,0.5
		c0,0,0,0,0,0.1c0,0,0,0.1,0,0.1l2.1,5.9l1.8-5.1l-0.3-0.8c-0.1-0.3-0.3-0.5-0.5-0.6c-0.3-0.1-0.6-0.1-1.1-0.1V322h4.3v0.8
		c-0.9,0-1.3,0.2-1.3,0.5c0,0.1,0,0.1,0,0.2l2.2,6.1l2-5.5c0-0.1,0-0.2,0-0.3c0-0.3-0.1-0.5-0.4-0.7c-0.3-0.2-0.5-0.3-0.9-0.3V322
		h3.7v0.8c-0.4,0-0.8,0.1-1.1,0.3c-0.3,0.2-0.5,0.5-0.7,0.9l-2.6,7.3c0,0.2-0.2,0.2-0.3,0.2h-0.2c-0.2,0-0.3-0.1-0.3-0.2l-2.2-6.2
		l-2.2,6.2c-0.1,0.2-0.2,0.2-0.3,0.2h-0.2C185,331.6,184.9,331.5,184.9,331.4L184.9,331.4z"/>
	<path class="st6" d="M196.6,331.4v-0.8c0.5,0,0.9,0,1.2-0.1c0.3-0.1,0.5-0.3,0.5-0.6V324c0-0.6-0.1-0.9-0.3-1
		c-0.2-0.1-0.6-0.2-1.3-0.2V322l3.1-0.2v8.2c0,0.3,0.1,0.5,0.4,0.6c0.3,0.1,0.6,0.1,1.1,0.1v0.8H196.6L196.6,331.4z M197.5,318
		c0-0.3,0.1-0.6,0.4-0.8c0.2-0.2,0.5-0.4,0.8-0.4c0.2,0,0.4,0.1,0.6,0.2c0.2,0.1,0.3,0.3,0.4,0.5c0.1,0.2,0.2,0.4,0.2,0.6
		c0,0.3-0.1,0.6-0.4,0.8c-0.2,0.2-0.5,0.4-0.8,0.4c-0.3,0-0.6-0.1-0.8-0.4C197.6,318.6,197.5,318.3,197.5,318L197.5,318z"/>
	<path class="st6" d="M204.3,328.8v-6h-1.8v-0.6c1,0,1.7-0.4,2.1-1.3c0.4-0.9,0.7-1.8,0.7-2.9h0.6v4h3.1v0.8h-3.1v6
		c0,0.6,0.1,1.1,0.3,1.6c0.2,0.5,0.6,0.7,1.1,0.7c0.5,0,0.9-0.2,1.1-0.7c0.2-0.5,0.3-1,0.3-1.5v-1.3h0.6v1.3c0,0.5-0.1,0.9-0.2,1.3
		s-0.4,0.8-0.7,1.1c-0.3,0.3-0.7,0.4-1.2,0.4c-0.9,0-1.6-0.3-2.1-0.8C204.5,330.3,204.3,329.6,204.3,328.8L204.3,328.8z"/>
	<path class="st6" d="M211.2,331.4v-0.8c0.5,0,0.9,0,1.2-0.1c0.3-0.1,0.5-0.3,0.5-0.6v-11.4c0-0.4-0.1-0.7-0.2-0.8
		c-0.1-0.2-0.3-0.3-0.5-0.3c-0.2,0-0.6-0.1-1-0.1v-0.8l3.2-0.2v7.5c0.3-0.6,0.7-1.1,1.3-1.4c0.5-0.4,1.1-0.5,1.8-0.5
		c1,0,1.8,0.2,2.3,0.7c0.5,0.5,0.8,1.2,0.8,2.2v5.2c0,0.3,0.2,0.5,0.5,0.6c0.3,0.1,0.7,0.1,1.2,0.1v0.8h-5v-0.8c0.5,0,0.9,0,1.2-0.1
		c0.3-0.1,0.5-0.3,0.5-0.6v-5.2c0-0.7-0.1-1.3-0.3-1.7s-0.6-0.7-1.3-0.7c-0.8,0-1.5,0.3-2.1,1c-0.5,0.7-0.8,1.4-0.8,2.3v4.3
		c0,0.3,0.2,0.5,0.5,0.6c0.3,0.1,0.7,0.1,1.2,0.1v0.8H211.2L211.2,331.4z"/>
	<path class="st6" d="M231.2,331.4c-0.1,0-0.2-0.1-0.2-0.3c0,0,0-0.1,0-0.2c0-0.1,0-0.2,0.1-0.2c0-0.1,0.1-0.1,0.1-0.1
		c0.9,0,1.5-0.1,1.9-0.2c0.2-0.1,0.3-0.3,0.4-0.6l3-11.9c0-0.1,0-0.2,0-0.3c0-0.2-0.1-0.2-0.3-0.3c-0.3-0.1-0.8-0.1-1.6-0.1
		c-0.1,0-0.2-0.1-0.2-0.3c0,0,0-0.1,0-0.2c0-0.1,0-0.2,0.1-0.2c0-0.1,0.1-0.1,0.1-0.1h11.5c0.1,0,0.2,0.1,0.2,0.3l-0.5,4.5
		c0,0,0,0.1-0.1,0.1c-0.1,0-0.1,0.1-0.1,0.1h-0.2c-0.1,0-0.2-0.1-0.2-0.3c0.1-0.7,0.1-1.2,0.1-1.6c0-0.7-0.2-1.3-0.5-1.6
		c-0.3-0.3-0.7-0.5-1.2-0.6c-0.5-0.1-1.1-0.1-2-0.1h-2.3c-0.4,0-0.7,0-0.8,0.1c-0.1,0.1-0.2,0.3-0.4,0.6l-1.4,5.5h1.6
		c0.5,0,1,0,1.3-0.1c0.3-0.1,0.6-0.2,0.8-0.3c0.2-0.2,0.4-0.4,0.6-0.7c0.1-0.3,0.3-0.7,0.4-1.2c0-0.1,0.1-0.2,0.2-0.2h0.2
		c0.1,0,0.2,0.1,0.2,0.3l-1.3,5.4c-0.1,0.1-0.1,0.2-0.2,0.2h-0.2c-0.1,0-0.2-0.1-0.2-0.3c0-0.1,0.1-0.3,0.1-0.4
		c0-0.1,0.1-0.2,0.1-0.4c0-0.2,0-0.4,0-0.5c0-0.4-0.2-0.7-0.6-0.8c-0.4-0.1-0.9-0.2-1.5-0.2h-1.8l-1.4,5.6c0,0.1-0.1,0.2-0.1,0.2
		c0,0.2,0.1,0.3,0.2,0.3c0.4,0.1,1.1,0.2,2.2,0.2c0.1,0,0.2,0.1,0.2,0.3c0,0.2-0.1,0.3-0.1,0.4c0,0.1-0.1,0.1-0.3,0.1H231.2
		L231.2,331.4z"/>
	<path class="st6" d="M248.2,335c-1.3,0-2.2-0.5-2.6-1.6c-0.5-1.1-0.7-2.3-0.7-3.8c0-0.9,0.1-1.8,0.2-2.6c0.2-0.8,0.5-1.5,1-2.1
		s1.2-0.8,2.1-0.8c0.7,0,1.3,0.2,1.7,0.5c0.4,0.3,0.8,0.8,1,1.3c0.2,0.5,0.4,1.1,0.5,1.7c0.1,0.6,0.1,1.3,0.1,1.9
		c0,0.9-0.1,1.8-0.2,2.5c-0.2,0.8-0.5,1.5-1,2C249.8,334.8,249.1,335,248.2,335L248.2,335z M248.2,334.6c0.6,0,1-0.3,1.3-0.9
		c0.3-0.6,0.5-1.3,0.5-2c0.1-0.7,0.1-1.5,0.1-2.3c0-0.8,0-1.5-0.1-2.2s-0.2-1.3-0.5-1.8c-0.3-0.5-0.7-0.8-1.3-0.8
		c-0.6,0-1,0.3-1.3,0.8c-0.3,0.5-0.5,1.1-0.5,1.8c-0.1,0.7-0.1,1.4-0.1,2.2c0,0.6,0,1.1,0,1.7c0,0.5,0.1,1,0.2,1.6
		c0.1,0.6,0.3,1,0.6,1.4C247.4,334.4,247.8,334.6,248.2,334.6L248.2,334.6z"/>
	<path class="st6" d="M260.8,328.5c-0.1,0-0.2,0-0.3-0.1s-0.1-0.2-0.1-0.3c0-0.1,0-0.2,0.1-0.3s0.2-0.1,0.3-0.1h13.7
		c0.1,0,0.2,0,0.3,0.1c0.1,0.1,0.1,0.2,0.1,0.3c0,0.1,0,0.2-0.1,0.3c-0.1,0.1-0.2,0.1-0.3,0.1H260.8L260.8,328.5z M260.8,324.3
		c-0.1,0-0.2,0-0.3-0.1s-0.1-0.2-0.1-0.3c0-0.1,0-0.2,0.1-0.3c0.1-0.1,0.2-0.1,0.3-0.1h13.7c0.1,0,0.2,0,0.3,0.1
		c0.1,0.1,0.1,0.2,0.1,0.3c0,0.1,0,0.2-0.1,0.3c-0.1,0.1-0.2,0.1-0.3,0.1H260.8L260.8,324.3z"/>
	<path class="st6" d="M284.4,331.4v-0.8c1.8,0,2.7-0.2,2.7-0.7v-11.4c-0.8,0.4-1.7,0.5-2.8,0.5v-0.8c1.8,0,3.1-0.5,4-1.4h0.3
		c0,0,0.1,0,0.1,0.1s0.1,0.1,0.1,0.1v12.8c0,0.5,0.9,0.7,2.7,0.7v0.8H284.4L284.4,331.4z"/>
	<path class="st6" d="M294.6,336.4C294.6,336.3,294.7,336.3,294.6,336.4l7.6-21c0-0.1,0.1-0.2,0.2-0.2s0.2-0.1,0.2-0.1
		c0.1,0,0.2,0,0.3,0.1c0.1,0.1,0.1,0.2,0.1,0.3v0.1l-7.6,21c-0.1,0.2-0.2,0.3-0.4,0.3c-0.1,0-0.2,0-0.3-0.1
		C294.7,336.6,294.6,336.5,294.6,336.4L294.6,336.4z"/>
	<path class="st6" d="M305.4,331.1c0,0,0-0.1,0-0.2c0-0.1,0.1-0.2,0.1-0.2c0,0,0.1-0.1,0.2-0.1c1.3,0,2.1,0,2.5-0.1
		c0.4-0.1,0.6-0.3,0.7-0.6l3-11.9c0.1-0.2,0.1-0.3,0.1-0.5c0-0.1-0.3-0.2-0.8-0.2h-1.3c-1,0-1.7,0.2-2.2,0.5
		c-0.5,0.3-0.9,0.7-1.2,1.2c-0.2,0.5-0.6,1.3-1,2.4c-0.1,0.1-0.1,0.2-0.2,0.2h-0.2c-0.1,0-0.2-0.1-0.2-0.3l1.6-4.5
		c0-0.1,0.1-0.2,0.2-0.2h12.8c0.1,0,0.2,0.1,0.2,0.3l-0.7,4.5c0,0,0,0.1-0.1,0.1c-0.1,0-0.1,0.1-0.1,0.1h-0.2
		c-0.1,0-0.2-0.1-0.2-0.3c0.2-1,0.2-1.8,0.2-2.2c0-0.5-0.1-0.9-0.3-1.2c-0.2-0.3-0.5-0.4-0.8-0.5c-0.3-0.1-0.8-0.1-1.3-0.1h-1.3
		c-0.4,0-0.6,0-0.8,0.1c-0.1,0.1-0.3,0.3-0.3,0.6l-3,11.9c0,0,0,0.1,0,0.1c0,0,0,0.1,0,0.1c0,0.2,0.1,0.3,0.3,0.4
		c0.4,0.1,1.2,0.1,2.4,0.1c0.1,0,0.2,0.1,0.2,0.3c0,0.2-0.1,0.3-0.1,0.4c0,0.1-0.1,0.1-0.2,0.1h-7.7
		C305.5,331.4,305.4,331.3,305.4,331.1L305.4,331.1z"/>
	<path class="st6" d="M321.2,335c-1.3,0-2.2-0.5-2.6-1.6c-0.5-1.1-0.7-2.3-0.7-3.8c0-0.9,0.1-1.8,0.2-2.6c0.2-0.8,0.5-1.5,1-2.1
		c0.5-0.6,1.2-0.8,2.1-0.8c0.7,0,1.3,0.2,1.7,0.5c0.4,0.3,0.8,0.8,1,1.3c0.2,0.5,0.4,1.1,0.5,1.7c0.1,0.6,0.1,1.3,0.1,1.9
		c0,0.9-0.1,1.8-0.2,2.5c-0.2,0.8-0.5,1.5-1,2C322.8,334.8,322.1,335,321.2,335L321.2,335z M321.2,334.6c0.6,0,1-0.3,1.3-0.9
		c0.3-0.6,0.5-1.3,0.5-2c0.1-0.7,0.1-1.5,0.1-2.3c0-0.8,0-1.5-0.1-2.2c-0.1-0.7-0.2-1.3-0.5-1.8c-0.3-0.5-0.7-0.8-1.3-0.8
		c-0.6,0-1,0.3-1.3,0.8c-0.3,0.5-0.5,1.1-0.5,1.8c-0.1,0.7-0.1,1.4-0.1,2.2c0,0.6,0,1.1,0,1.7c0,0.5,0.1,1,0.2,1.6
		c0.1,0.6,0.3,1,0.6,1.4C320.4,334.4,320.8,334.6,321.2,334.6L321.2,334.6z"/>
	<path class="st6" d="M333.8,328.5c-0.1,0-0.2,0-0.3-0.1c-0.1-0.1-0.1-0.2-0.1-0.3c0-0.1,0-0.2,0.1-0.3c0.1-0.1,0.2-0.1,0.3-0.1
		h13.7c0.1,0,0.2,0,0.3,0.1s0.1,0.2,0.1,0.3c0,0.1,0,0.2-0.1,0.3s-0.2,0.1-0.3,0.1H333.8L333.8,328.5z M333.8,324.3
		c-0.1,0-0.2,0-0.3-0.1c-0.1-0.1-0.1-0.2-0.1-0.3c0-0.1,0-0.2,0.1-0.3c0.1-0.1,0.2-0.1,0.3-0.1h13.7c0.1,0,0.2,0,0.3,0.1
		c0.1,0.1,0.1,0.2,0.1,0.3c0,0.1,0,0.2-0.1,0.3s-0.2,0.1-0.3,0.1H333.8L333.8,324.3z"/>
	<path class="st6" d="M357.4,331.4v-0.8c1.8,0,2.7-0.2,2.7-0.7v-11.4c-0.8,0.4-1.7,0.5-2.8,0.5v-0.8c1.8,0,3.1-0.5,4-1.4h0.3
		c0,0,0.1,0,0.1,0.1c0,0,0.1,0.1,0.1,0.1v12.8c0,0.5,0.9,0.7,2.7,0.7v0.8H357.4L357.4,331.4z"/>
	<polygon class="st6" points="376.3,336.8 376.3,315.1 379.3,315.1 379.3,315.9 377.2,315.9 377.2,336 379.3,336 379.3,336.8 
		376.3,336.8 	"/>
	<path class="st6" d="M380.5,331.4v-0.8c1.5,0,2.2-0.2,2.2-0.7v-12c0-0.5-0.7-0.7-2.2-0.7v-0.8h6.5v0.8c-1.5,0-2.3,0.2-2.3,0.7v5.3
		h6.4V318c0-0.5-0.7-0.7-2.2-0.7v-0.8h6.5v0.8c-1.5,0-2.2,0.2-2.2,0.7v12c0,0.5,0.7,0.7,2.2,0.7v0.8H389v-0.8c1.5,0,2.2-0.2,2.2-0.7
		V324h-6.4v5.9c0,0.5,0.8,0.7,2.3,0.7v0.8H380.5L380.5,331.4z"/>
	<path class="st6" d="M397.2,331.4c-0.2,0-0.2-0.1-0.2-0.2V331c0-0.1,0-0.1,0.1-0.2l6.1-8.2h-1.9c-0.6,0-1.1,0-1.5,0.1
		c-0.4,0.1-0.7,0.2-1,0.4c-0.3,0.2-0.4,0.5-0.6,0.9c-0.1,0.4-0.2,0.9-0.2,1.6h-0.6l0.2-3.6h7.3c0.1,0,0.1,0,0.2,0.1
		c0,0,0.1,0.1,0.1,0.2v0.1c0,0,0,0.1,0,0.2l-6.1,8.2h2.1c0.6,0,1.2,0,1.6-0.1c0.4-0.1,0.8-0.3,1.1-0.6c0.3-0.3,0.5-0.7,0.6-1.1
		c0.1-0.5,0.2-1,0.2-1.7h0.6l-0.4,4.1H397.2L397.2,331.4z"/>
	<polygon class="st6" points="406.6,336.8 406.6,336 408.7,336 408.7,315.9 406.6,315.9 406.6,315.1 409.6,315.1 409.6,336.8 
		406.6,336.8 	"/>
	<path d="M313.5,134.3c-0.1,0-0.2,0-0.2-0.1c-0.1-0.1-0.1-0.1-0.1-0.2s0-0.2,0.1-0.2c0.1-0.1,0.1-0.1,0.2-0.1h12
		c-0.4-0.3-0.8-0.6-1.1-1c-0.3-0.4-0.6-0.8-0.8-1.2c-0.2-0.4-0.4-0.9-0.4-1.4c0-0.1,0.1-0.2,0.2-0.2h0.3c0,0,0.1,0,0.1,0
		c0,0,0,0.1,0.1,0.1c0.1,0.5,0.2,0.9,0.4,1.3c0.2,0.4,0.4,0.7,0.7,1.1c0.3,0.3,0.6,0.6,0.9,0.9c0.4,0.2,0.7,0.4,1.2,0.6
		c0.1,0,0.1,0.1,0.1,0.2c0,0.1,0,0.1-0.1,0.2c-0.5,0.2-1,0.5-1.5,0.8c-0.5,0.4-0.8,0.8-1.1,1.3c-0.3,0.5-0.5,1.1-0.6,1.6
		c0,0,0,0.1-0.1,0.1c0,0-0.1,0-0.1,0h-0.3c-0.1,0-0.2-0.1-0.2-0.2c0.1-0.7,0.4-1.4,0.8-2c0.4-0.6,0.9-1.2,1.5-1.6H313.5L313.5,134.3
		z"/>
	<path d="M335.3,136v-4.3H334v-0.4c0.7,0,1.2-0.3,1.5-1c0.3-0.6,0.5-1.3,0.5-2.1h0.5v2.9h2.2v0.6h-2.2v4.3c0,0.4,0.1,0.8,0.2,1.1
		c0.1,0.3,0.4,0.5,0.8,0.5c0.4,0,0.6-0.2,0.8-0.5c0.2-0.3,0.2-0.7,0.2-1.1v-0.9h0.4v1c0,0.3-0.1,0.7-0.2,1c-0.1,0.3-0.3,0.6-0.5,0.8
		s-0.5,0.3-0.9,0.3c-0.6,0-1.1-0.2-1.5-0.6C335.4,137.1,335.3,136.6,335.3,136L335.3,136z"/>
	<path d="M340.4,137.9v-0.6c0.4,0,0.7,0,0.9-0.1c0.2-0.1,0.3-0.2,0.3-0.4v-4.3c0-0.4-0.1-0.7-0.2-0.7c-0.2-0.1-0.5-0.1-0.9-0.1v-0.6
		l2.3-0.2v5.9c0,0.2,0.1,0.4,0.3,0.4c0.2,0.1,0.5,0.1,0.8,0.1v0.6H340.4L340.4,137.9z M341,128.2c0-0.2,0.1-0.4,0.3-0.6
		c0.2-0.2,0.4-0.3,0.6-0.3c0.1,0,0.3,0,0.4,0.1c0.1,0.1,0.2,0.2,0.3,0.3c0.1,0.1,0.1,0.3,0.1,0.4c0,0.2-0.1,0.4-0.3,0.6
		c-0.2,0.2-0.4,0.3-0.6,0.3s-0.4-0.1-0.6-0.3C341.1,128.7,341,128.5,341,128.2L341,128.2z"/>
	<path d="M344.8,137.9v-0.6c0.4,0,0.7,0,0.9-0.1c0.2-0.1,0.3-0.2,0.3-0.4v-4.3c0-0.3,0-0.5-0.1-0.6c-0.1-0.1-0.2-0.2-0.4-0.2
		c-0.2,0-0.4,0-0.7,0v-0.6l2.3-0.2v1.5c0.2-0.4,0.5-0.8,0.9-1.1c0.4-0.3,0.9-0.4,1.3-0.4c1.2,0,1.9,0.5,2.1,1.5
		c0.2-0.4,0.5-0.8,0.9-1.1c0.4-0.3,0.8-0.4,1.3-0.4c0.5,0,0.9,0.1,1.2,0.2c0.3,0.2,0.6,0.4,0.7,0.7c0.2,0.3,0.2,0.7,0.2,1.2v3.8
		c0,0.2,0.1,0.4,0.4,0.4c0.2,0.1,0.5,0.1,0.9,0.1v0.6h-3.6v-0.6c0.4,0,0.6,0,0.9-0.1c0.2-0.1,0.4-0.2,0.4-0.4v-3.7
		c0-0.5-0.1-0.9-0.2-1.3c-0.2-0.3-0.5-0.5-0.9-0.5c-0.6,0-1.1,0.2-1.5,0.7c-0.4,0.5-0.6,1-0.6,1.7v3.1c0,0.2,0.1,0.4,0.3,0.4
		c0.2,0.1,0.5,0.1,0.9,0.1v0.6h-3.6v-0.6c0.4,0,0.7,0,0.9-0.1c0.2-0.1,0.3-0.2,0.3-0.4v-3.7c0-0.5-0.1-0.9-0.2-1.3
		c-0.1-0.3-0.5-0.5-0.9-0.5c-0.6,0-1.1,0.2-1.5,0.7c-0.4,0.5-0.6,1-0.6,1.7v3.1c0,0.2,0.1,0.4,0.4,0.4c0.2,0.1,0.5,0.1,0.9,0.1v0.6
		H344.8L344.8,137.9z"/>
	<path d="M361.6,138.1c-0.6,0-1.2-0.2-1.8-0.5c-0.5-0.3-1-0.8-1.3-1.3c-0.3-0.6-0.5-1.2-0.5-1.8c0-0.6,0.1-1.2,0.4-1.7
		c0.3-0.6,0.7-1,1.2-1.3c0.5-0.3,1.1-0.5,1.7-0.5c0.5,0,0.9,0.1,1.3,0.2c0.4,0.2,0.7,0.4,0.9,0.7c0.2,0.3,0.4,0.6,0.5,1
		c0.1,0.4,0.2,0.8,0.2,1.3c0,0.1-0.1,0.2-0.2,0.2h-4.6v0.2c0,0.9,0.2,1.6,0.5,2.3c0.4,0.6,0.9,0.9,1.7,0.9c0.3,0,0.6-0.1,0.9-0.2
		c0.3-0.1,0.5-0.3,0.7-0.6c0.2-0.3,0.3-0.5,0.4-0.8c0,0,0-0.1,0.1-0.1c0,0,0.1,0,0.1,0h0.1c0.1,0,0.2,0.1,0.2,0.2
		c-0.1,0.6-0.5,1.1-1,1.5C362.7,137.9,362.2,138.1,361.6,138.1L361.6,138.1z M359.5,133.9h3.6c0-0.4-0.1-0.8-0.2-1.2
		c-0.1-0.4-0.3-0.7-0.6-1c-0.3-0.3-0.6-0.4-1-0.4c-0.6,0-1.1,0.3-1.4,0.8C359.6,132.6,359.5,133.2,359.5,133.9L359.5,133.9z"/>
	<polygon points="372,141.8 372,126.1 374.1,126.1 374.1,126.7 372.6,126.7 372.6,141.2 374.1,141.2 374.1,141.8 372,141.8 	"/>
	<path d="M375.1,137.9v-2.6c0-0.1,0-0.1,0.1-0.1h0.2c0.1,0,0.1,0,0.1,0.1c0.3,1.5,1,2.3,2.1,2.3c0.5,0,0.9-0.1,1.3-0.3
		s0.5-0.6,0.5-1c0-0.3-0.1-0.6-0.4-0.9c-0.3-0.2-0.6-0.4-0.9-0.5l-1.1-0.2c-0.4-0.1-0.7-0.2-1-0.4c-0.3-0.2-0.5-0.4-0.7-0.6
		c-0.2-0.3-0.3-0.6-0.3-0.9c0-0.5,0.1-0.9,0.4-1.1c0.2-0.3,0.6-0.5,0.9-0.6c0.4-0.1,0.8-0.2,1.3-0.2c0.5,0,1,0.1,1.4,0.4l0.4-0.4
		c0,0,0,0,0.1,0h0.1c0,0,0.1,0,0.1,0c0,0,0,0.1,0,0.1v2.1c0,0.1,0,0.1-0.1,0.1h-0.2c-0.1,0-0.1,0-0.1-0.1c0-0.6-0.2-1-0.5-1.3
		c-0.3-0.3-0.7-0.5-1.3-0.5c-0.5,0-0.9,0.1-1.2,0.3c-0.3,0.2-0.5,0.5-0.5,0.9c0,0.3,0.1,0.5,0.4,0.7c0.3,0.2,0.5,0.3,0.9,0.4
		l1.1,0.2c0.4,0.1,0.7,0.2,1,0.4c0.3,0.2,0.6,0.4,0.7,0.7c0.2,0.3,0.3,0.6,0.3,1c0,0.4-0.1,0.7-0.2,1c-0.1,0.3-0.3,0.5-0.6,0.7
		c-0.2,0.2-0.5,0.3-0.8,0.4c-0.3,0.1-0.7,0.1-1,0.1c-0.7,0-1.2-0.2-1.7-0.7l-0.6,0.6c0,0,0,0-0.1,0h-0.1
		C375.1,138.1,375.1,138,375.1,137.9L375.1,137.9z"/>
	<path d="M384.8,138.1c-0.6,0-1.2-0.2-1.8-0.5c-0.5-0.3-1-0.8-1.3-1.3s-0.5-1.2-0.5-1.8c0-0.6,0.1-1.2,0.4-1.7
		c0.3-0.6,0.7-1,1.2-1.3c0.5-0.3,1.1-0.5,1.7-0.5c0.5,0,0.9,0.1,1.3,0.2c0.4,0.2,0.7,0.4,0.9,0.7c0.2,0.3,0.4,0.6,0.5,1
		c0.1,0.4,0.2,0.8,0.2,1.3c0,0.1-0.1,0.2-0.2,0.2h-4.6v0.2c0,0.9,0.2,1.6,0.5,2.3s0.9,0.9,1.7,0.9c0.3,0,0.6-0.1,0.9-0.2
		c0.3-0.1,0.5-0.3,0.7-0.6c0.2-0.3,0.3-0.5,0.4-0.8c0,0,0-0.1,0.1-0.1c0,0,0.1,0,0.1,0h0.1c0.1,0,0.2,0.1,0.2,0.2
		c-0.1,0.6-0.5,1.1-1,1.5C385.9,137.9,385.4,138.1,384.8,138.1L384.8,138.1z M382.7,133.9h3.6c0-0.4-0.1-0.8-0.2-1.2
		c-0.1-0.4-0.3-0.7-0.6-1c-0.3-0.3-0.6-0.4-1-0.4c-0.6,0-1.1,0.3-1.4,0.8C382.8,132.6,382.7,133.2,382.7,133.9L382.7,133.9z"/>
	<path d="M391.9,138.1c-0.6,0-1.2-0.2-1.7-0.5c-0.5-0.3-0.9-0.8-1.2-1.3c-0.3-0.6-0.4-1.1-0.4-1.8c0-0.6,0.1-1.2,0.4-1.8
		c0.3-0.6,0.7-1,1.2-1.4c0.5-0.3,1.1-0.5,1.7-0.5c0.6,0,1.2,0.1,1.7,0.4c0.5,0.2,0.8,0.6,0.8,1.2c0,0.2-0.1,0.4-0.2,0.5
		s-0.3,0.2-0.5,0.2c-0.2,0-0.4-0.1-0.5-0.2s-0.2-0.3-0.2-0.5c0-0.2,0.1-0.3,0.2-0.5c0.1-0.1,0.3-0.2,0.4-0.3
		c-0.4-0.2-0.9-0.3-1.5-0.3c-0.5,0-0.9,0.2-1.2,0.5c-0.3,0.3-0.5,0.7-0.7,1.2c-0.1,0.5-0.2,1-0.2,1.5c0,0.5,0.1,1,0.2,1.5
		c0.2,0.5,0.4,0.9,0.7,1.2s0.8,0.5,1.3,0.5c0.5,0,0.9-0.2,1.3-0.5c0.3-0.3,0.6-0.7,0.7-1.2c0-0.1,0-0.1,0.1-0.1h0.2c0,0,0.1,0,0.1,0
		c0,0,0,0.1,0,0.1v0c-0.2,0.6-0.5,1.1-0.9,1.5C393.1,137.9,392.5,138.1,391.9,138.1L391.9,138.1z"/>
	<polygon points="395.4,141.8 395.4,141.2 397,141.2 397,126.7 395.4,126.7 395.4,126.1 397.6,126.1 397.6,141.8 395.4,141.8 	"/>
	<polygon points="126.3,118.4 126.3,117.8 128.9,117.8 128.9,118.4 126.3,118.4 	"/>
	<path d="M131.9,120.4c-0.8,0-1.3-0.3-1.6-1c-0.3-0.7-0.4-1.4-0.4-2.3c0-0.6,0.1-1.1,0.2-1.6c0.1-0.5,0.3-0.9,0.6-1.3
		c0.3-0.3,0.7-0.5,1.3-0.5c0.4,0,0.8,0.1,1.1,0.3s0.5,0.5,0.6,0.8s0.2,0.7,0.3,1.1c0.1,0.4,0.1,0.8,0.1,1.2c0,0.6-0.1,1.1-0.2,1.6
		c-0.1,0.5-0.3,0.9-0.6,1.2C132.9,120.2,132.5,120.4,131.9,120.4L131.9,120.4z M131.9,120.1c0.4,0,0.6-0.2,0.8-0.6
		c0.2-0.4,0.3-0.8,0.3-1.2c0-0.5,0.1-0.9,0.1-1.4c0-0.5,0-0.9-0.1-1.3s-0.1-0.8-0.3-1.1c-0.2-0.3-0.4-0.5-0.8-0.5
		c-0.4,0-0.6,0.2-0.8,0.5c-0.2,0.3-0.3,0.7-0.3,1.1c0,0.4-0.1,0.9-0.1,1.3c0,0.4,0,0.7,0,1c0,0.3,0.1,0.6,0.1,1s0.2,0.6,0.4,0.9
		C131.4,120,131.7,120.1,131.9,120.1L131.9,120.1z"/>
	<path d="M135.3,119.6c0-0.1,0.1-0.3,0.2-0.4c0.1-0.1,0.2-0.2,0.4-0.2c0.1,0,0.2,0,0.3,0.1s0.2,0.1,0.2,0.2c0,0.1,0.1,0.2,0.1,0.3
		c0,0.1-0.1,0.3-0.2,0.4c-0.1,0.1-0.2,0.2-0.4,0.2c-0.1,0-0.3-0.1-0.4-0.2C135.4,119.9,135.3,119.8,135.3,119.6L135.3,119.6z"/>
	<path d="M138.1,119.1c0.1,0.2,0.2,0.4,0.3,0.5c0.1,0.2,0.3,0.3,0.5,0.4c0.2,0.1,0.4,0.1,0.6,0.1c0.5,0,0.8-0.2,1-0.6
		c0.2-0.4,0.3-0.8,0.3-1.3c0-0.2,0-0.4,0-0.6c0-0.2,0-0.3-0.1-0.5c-0.1-0.2-0.2-0.4-0.3-0.6c-0.2-0.2-0.3-0.3-0.6-0.3
		c-0.2,0-0.4,0-0.6,0.1c-0.2,0.1-0.3,0.1-0.4,0.2c-0.1,0.1-0.2,0.2-0.3,0.3c-0.1,0.1-0.1,0.2-0.1,0.2h-0.1c0,0,0,0-0.1,0
		c0,0,0,0,0-0.1v-3.3c0,0,0,0,0,0c0,0,0,0,0.1,0h0c0.4,0.2,0.9,0.3,1.4,0.3c0.5,0,0.9-0.1,1.4-0.3h0c0,0,0,0,0.1,0c0,0,0,0,0,0v0.1
		c0,0,0,0,0,0c-0.2,0.3-0.5,0.5-0.8,0.7s-0.7,0.2-1,0.2c-0.3,0-0.5,0-0.8-0.1v1.8c0.2-0.2,0.4-0.3,0.6-0.4c0.2-0.1,0.4-0.1,0.7-0.1
		c0.4,0,0.7,0.1,1,0.3c0.3,0.2,0.5,0.5,0.7,0.8s0.2,0.7,0.2,1c0,0.4-0.1,0.8-0.3,1.1s-0.5,0.6-0.8,0.8c-0.3,0.2-0.7,0.3-1.1,0.3
		c-0.3,0-0.6-0.1-0.9-0.2c-0.3-0.2-0.5-0.4-0.6-0.7c-0.2-0.3-0.2-0.6-0.2-0.9c0-0.1,0-0.3,0.1-0.4c0.1-0.1,0.2-0.1,0.4-0.1
		c0.1,0,0.3,0,0.4,0.1c0.1,0.1,0.1,0.2,0.1,0.4s0,0.3-0.1,0.4c-0.1,0.1-0.2,0.1-0.4,0.1C138.2,119.1,138.2,119.1,138.1,119.1
		C138.2,119.1,138.1,119.1,138.1,119.1L138.1,119.1z"/>
	<path d="M272.5,120.4c-0.8,0-1.3-0.3-1.6-1c-0.3-0.7-0.4-1.4-0.4-2.3c0-0.6,0.1-1.1,0.2-1.6c0.1-0.5,0.3-0.9,0.6-1.3
		c0.3-0.3,0.7-0.5,1.3-0.5c0.4,0,0.8,0.1,1.1,0.3c0.3,0.2,0.5,0.5,0.6,0.8c0.1,0.3,0.2,0.7,0.3,1.1c0.1,0.4,0.1,0.8,0.1,1.2
		c0,0.6-0.1,1.1-0.2,1.6c-0.1,0.5-0.3,0.9-0.6,1.2C273.5,120.2,273,120.4,272.5,120.4L272.5,120.4z M272.5,120.1
		c0.4,0,0.6-0.2,0.8-0.6c0.2-0.4,0.3-0.8,0.3-1.2c0-0.5,0.1-0.9,0.1-1.4c0-0.5,0-0.9-0.1-1.3s-0.1-0.8-0.3-1.1
		c-0.2-0.3-0.4-0.5-0.8-0.5c-0.4,0-0.6,0.2-0.8,0.5c-0.2,0.3-0.3,0.7-0.3,1.1c0,0.4-0.1,0.9-0.1,1.3c0,0.4,0,0.7,0,1
		c0,0.3,0.1,0.6,0.1,1c0.1,0.3,0.2,0.6,0.4,0.9C272,120,272.2,120.1,272.5,120.1L272.5,120.1z"/>
	<path d="M415.2,120.4c-0.8,0-1.3-0.3-1.6-1c-0.3-0.7-0.4-1.4-0.4-2.3c0-0.6,0.1-1.1,0.2-1.6c0.1-0.5,0.3-0.9,0.6-1.3
		c0.3-0.3,0.7-0.5,1.3-0.5c0.4,0,0.8,0.1,1.1,0.3c0.3,0.2,0.5,0.5,0.6,0.8c0.1,0.3,0.2,0.7,0.3,1.1c0.1,0.4,0.1,0.8,0.1,1.2
		c0,0.6-0.1,1.1-0.2,1.6c-0.1,0.5-0.3,0.9-0.6,1.2C416.2,120.2,415.8,120.4,415.2,120.4L415.2,120.4z M415.2,120.1
		c0.4,0,0.6-0.2,0.8-0.6c0.2-0.4,0.3-0.8,0.3-1.2c0-0.5,0.1-0.9,0.1-1.4c0-0.5,0-0.9-0.1-1.3s-0.1-0.8-0.3-1.1
		c-0.2-0.3-0.4-0.5-0.8-0.5c-0.4,0-0.6,0.2-0.8,0.5c-0.2,0.3-0.3,0.7-0.3,1.1c0,0.4-0.1,0.9-0.1,1.3c0,0.4,0,0.7,0,1
		c0,0.3,0.1,0.6,0.1,1c0.1,0.3,0.2,0.6,0.4,0.9C414.7,120,414.9,120.1,415.2,120.1L415.2,120.1z"/>
	<path d="M418.6,119.6c0-0.1,0.1-0.3,0.2-0.4s0.2-0.2,0.4-0.2c0.1,0,0.2,0,0.3,0.1s0.2,0.1,0.2,0.2c0,0.1,0.1,0.2,0.1,0.3
		c0,0.1-0.1,0.3-0.2,0.4c-0.1,0.1-0.2,0.2-0.4,0.2s-0.3-0.1-0.4-0.2S418.6,119.8,418.6,119.6L418.6,119.6z"/>
	<path d="M421.4,119.1c0.1,0.2,0.2,0.4,0.3,0.5c0.1,0.2,0.3,0.3,0.5,0.4c0.2,0.1,0.4,0.1,0.6,0.1c0.5,0,0.8-0.2,1-0.6
		c0.2-0.4,0.3-0.8,0.3-1.3c0-0.2,0-0.4,0-0.6c0-0.2,0-0.3-0.1-0.5c-0.1-0.2-0.2-0.4-0.3-0.6c-0.2-0.2-0.3-0.3-0.6-0.3
		c-0.2,0-0.4,0-0.6,0.1c-0.2,0.1-0.3,0.1-0.4,0.2c-0.1,0.1-0.2,0.2-0.3,0.3c-0.1,0.1-0.1,0.2-0.1,0.2h-0.1c0,0,0,0-0.1,0
		c0,0,0,0,0-0.1v-3.3c0,0,0,0,0,0c0,0,0,0,0.1,0h0c0.4,0.2,0.9,0.3,1.4,0.3c0.5,0,0.9-0.1,1.4-0.3h0c0,0,0,0,0.1,0c0,0,0,0,0,0v0.1
		c0,0,0,0,0,0c-0.2,0.3-0.5,0.5-0.8,0.7s-0.7,0.2-1,0.2c-0.3,0-0.5,0-0.8-0.1v1.8c0.2-0.2,0.4-0.3,0.6-0.4c0.2-0.1,0.4-0.1,0.7-0.1
		c0.4,0,0.7,0.1,1,0.3c0.3,0.2,0.5,0.5,0.7,0.8c0.2,0.3,0.2,0.7,0.2,1c0,0.4-0.1,0.8-0.3,1.1c-0.2,0.3-0.5,0.6-0.8,0.8
		c-0.3,0.2-0.7,0.3-1.1,0.3c-0.3,0-0.6-0.1-0.9-0.2c-0.3-0.2-0.5-0.4-0.6-0.7c-0.2-0.3-0.2-0.6-0.2-0.9c0-0.1,0-0.3,0.1-0.4
		c0.1-0.1,0.2-0.1,0.4-0.1s0.3,0,0.4,0.1c0.1,0.1,0.1,0.2,0.1,0.4s0,0.3-0.1,0.4c-0.1,0.1-0.2,0.1-0.4,0.1
		C421.5,119.1,421.5,119.1,421.4,119.1C421.4,119.1,421.4,119.1,421.4,119.1L421.4,119.1z"/>
	<path d="M23.9,405.8c-0.8,0-1.3-0.3-1.6-1c-0.3-0.7-0.4-1.4-0.4-2.3c0-0.6,0.1-1.1,0.2-1.6c0.1-0.5,0.3-0.9,0.6-1.3
		c0.3-0.3,0.7-0.5,1.3-0.5c0.4,0,0.8,0.1,1.1,0.3c0.3,0.2,0.5,0.5,0.6,0.8c0.1,0.3,0.2,0.7,0.3,1.1s0.1,0.8,0.1,1.2
		c0,0.6-0.1,1.1-0.2,1.6c-0.1,0.5-0.3,0.9-0.6,1.2C24.9,405.6,24.4,405.8,23.9,405.8L23.9,405.8z M23.9,405.6c0.4,0,0.6-0.2,0.8-0.6
		c0.2-0.4,0.3-0.8,0.3-1.2c0-0.5,0.1-0.9,0.1-1.4c0-0.5,0-0.9-0.1-1.3c0-0.4-0.1-0.8-0.3-1.1c-0.2-0.3-0.4-0.5-0.8-0.5
		s-0.6,0.2-0.8,0.5c-0.2,0.3-0.3,0.7-0.3,1.1c0,0.4-0.1,0.9-0.1,1.3c0,0.4,0,0.7,0,1c0,0.3,0.1,0.6,0.1,1c0.1,0.3,0.2,0.6,0.4,0.9
		C23.4,405.5,23.6,405.6,23.9,405.6L23.9,405.6z"/>
	<path d="M27.3,405.1c0-0.1,0.1-0.3,0.2-0.4c0.1-0.1,0.2-0.2,0.4-0.2c0.1,0,0.2,0,0.3,0.1c0.1,0,0.2,0.1,0.2,0.2
		c0,0.1,0.1,0.2,0.1,0.3c0,0.1-0.1,0.3-0.2,0.4c-0.1,0.1-0.2,0.2-0.4,0.2s-0.3-0.1-0.4-0.2C27.3,405.3,27.3,405.2,27.3,405.1
		L27.3,405.1z"/>
	<path d="M30.1,404.5c0.1,0.2,0.2,0.4,0.3,0.5c0.1,0.2,0.3,0.3,0.5,0.4c0.2,0.1,0.4,0.1,0.6,0.1c0.5,0,0.8-0.2,1-0.6
		c0.2-0.4,0.3-0.8,0.3-1.3c0-0.2,0-0.4,0-0.6c0-0.2,0-0.3-0.1-0.5c-0.1-0.2-0.2-0.4-0.3-0.6c-0.2-0.2-0.3-0.3-0.6-0.3
		c-0.2,0-0.4,0-0.6,0.1c-0.2,0.1-0.3,0.1-0.4,0.2c-0.1,0.1-0.2,0.2-0.3,0.3c-0.1,0.1-0.1,0.2-0.1,0.2h-0.1c0,0,0,0-0.1,0
		c0,0,0,0,0-0.1v-3.3c0,0,0,0,0,0c0,0,0,0,0.1,0h0c0.4,0.2,0.9,0.3,1.4,0.3c0.5,0,0.9-0.1,1.4-0.3h0c0,0,0,0,0.1,0c0,0,0,0,0,0v0.1
		c0,0,0,0,0,0c-0.2,0.3-0.5,0.5-0.8,0.7c-0.3,0.2-0.7,0.2-1,0.2c-0.3,0-0.5,0-0.8-0.1v1.8c0.2-0.2,0.4-0.3,0.6-0.4
		c0.2-0.1,0.4-0.1,0.7-0.1c0.4,0,0.7,0.1,1,0.3c0.3,0.2,0.5,0.5,0.7,0.8c0.2,0.3,0.2,0.7,0.2,1c0,0.4-0.1,0.8-0.3,1.1
		c-0.2,0.3-0.5,0.6-0.8,0.8c-0.3,0.2-0.7,0.3-1.1,0.3c-0.3,0-0.6-0.1-0.9-0.2c-0.3-0.2-0.5-0.4-0.6-0.7c-0.2-0.3-0.2-0.6-0.2-0.9
		c0-0.1,0-0.3,0.1-0.4c0.1-0.1,0.2-0.1,0.4-0.1c0.1,0,0.3,0,0.4,0.1c0.1,0.1,0.1,0.2,0.1,0.4c0,0.1,0,0.3-0.1,0.4
		c-0.1,0.1-0.2,0.1-0.4,0.1C30.2,404.5,30.2,404.5,30.1,404.5C30.1,404.5,30.1,404.5,30.1,404.5L30.1,404.5z"/>
	<path d="M23.9,259.6c-0.8,0-1.3-0.3-1.6-1c-0.3-0.7-0.4-1.4-0.4-2.3c0-0.6,0.1-1.1,0.2-1.6c0.1-0.5,0.3-0.9,0.6-1.3
		c0.3-0.3,0.7-0.5,1.3-0.5c0.4,0,0.8,0.1,1.1,0.3c0.3,0.2,0.5,0.5,0.6,0.8c0.1,0.3,0.2,0.7,0.3,1.1s0.1,0.8,0.1,1.2
		c0,0.6-0.1,1.1-0.2,1.6c-0.1,0.5-0.3,0.9-0.6,1.2C24.9,259.4,24.4,259.6,23.9,259.6L23.9,259.6z M23.9,259.4c0.4,0,0.6-0.2,0.8-0.6
		c0.2-0.4,0.3-0.8,0.3-1.2c0-0.5,0.1-0.9,0.1-1.4c0-0.5,0-0.9-0.1-1.3c0-0.4-0.1-0.8-0.3-1.1c-0.2-0.3-0.4-0.5-0.8-0.5
		s-0.6,0.2-0.8,0.5c-0.2,0.3-0.3,0.7-0.3,1.1c0,0.4-0.1,0.9-0.1,1.3c0,0.4,0,0.7,0,1c0,0.3,0.1,0.7,0.1,1c0.1,0.3,0.2,0.6,0.4,0.9
		C23.4,259.2,23.6,259.4,23.9,259.4L23.9,259.4z"/>
	<polygon points="23.9,111.4 23.9,110.8 26.5,110.8 26.5,111.4 23.9,111.4 	"/>
	<path d="M29.5,113.4c-0.8,0-1.3-0.3-1.6-1c-0.3-0.7-0.4-1.4-0.4-2.3c0-0.6,0.1-1.1,0.2-1.6c0.1-0.5,0.3-0.9,0.6-1.3
		c0.3-0.3,0.7-0.5,1.3-0.5c0.4,0,0.8,0.1,1.1,0.3s0.5,0.5,0.6,0.8c0.1,0.3,0.2,0.7,0.3,1.1c0.1,0.4,0.1,0.8,0.1,1.2
		c0,0.6-0.1,1.1-0.2,1.6c-0.1,0.5-0.3,0.9-0.6,1.2C30.5,113.2,30.1,113.4,29.5,113.4L29.5,113.4z M29.5,113.2c0.4,0,0.6-0.2,0.8-0.6
		c0.2-0.4,0.3-0.8,0.3-1.2c0-0.5,0.1-0.9,0.1-1.4c0-0.5,0-0.9-0.1-1.3c0-0.4-0.1-0.8-0.3-1.1c-0.2-0.3-0.4-0.5-0.8-0.5
		c-0.4,0-0.6,0.2-0.8,0.5c-0.2,0.3-0.3,0.7-0.3,1.1c0,0.4-0.1,0.9-0.1,1.3c0,0.4,0,0.7,0,1c0,0.3,0.1,0.6,0.1,1s0.2,0.6,0.4,0.9
		C29,113,29.3,113.2,29.5,113.2L29.5,113.2z"/>
	<path d="M32.9,112.6c0-0.1,0.1-0.3,0.2-0.4c0.1-0.1,0.2-0.2,0.4-0.2c0.1,0,0.2,0,0.3,0.1c0.1,0,0.2,0.1,0.2,0.2
		c0,0.1,0.1,0.2,0.1,0.3c0,0.1-0.1,0.3-0.2,0.4s-0.2,0.2-0.4,0.2c-0.1,0-0.3-0.1-0.4-0.2C33,112.9,32.9,112.8,32.9,112.6L32.9,112.6
		z"/>
	<path d="M35.7,112.1c0.1,0.2,0.2,0.4,0.3,0.5c0.1,0.2,0.3,0.3,0.5,0.4s0.4,0.1,0.6,0.1c0.5,0,0.8-0.2,1-0.6
		c0.2-0.4,0.3-0.8,0.3-1.3c0-0.2,0-0.4,0-0.6c0-0.2,0-0.3-0.1-0.5c-0.1-0.2-0.2-0.4-0.3-0.6c-0.2-0.2-0.3-0.3-0.6-0.3
		c-0.2,0-0.4,0-0.6,0.1c-0.2,0.1-0.3,0.1-0.4,0.2c-0.1,0.1-0.2,0.2-0.3,0.3c-0.1,0.1-0.1,0.2-0.1,0.2H36c0,0,0,0-0.1,0
		c0,0,0,0,0-0.1v-3.3c0,0,0,0,0,0c0,0,0,0,0.1,0h0c0.4,0.2,0.9,0.3,1.4,0.3c0.5,0,0.9-0.1,1.4-0.3h0c0,0,0,0,0.1,0c0,0,0,0,0,0v0.1
		c0,0,0,0,0,0c-0.2,0.3-0.5,0.5-0.8,0.7s-0.7,0.2-1,0.2c-0.3,0-0.5,0-0.8-0.1v1.8c0.2-0.2,0.4-0.3,0.6-0.4c0.2-0.1,0.4-0.1,0.7-0.1
		c0.4,0,0.7,0.1,1,0.3c0.3,0.2,0.5,0.5,0.7,0.8c0.2,0.3,0.2,0.7,0.2,1c0,0.4-0.1,0.8-0.3,1.1c-0.2,0.3-0.5,0.6-0.8,0.8
		c-0.3,0.2-0.7,0.3-1.1,0.3c-0.3,0-0.6-0.1-0.9-0.2c-0.3-0.2-0.5-0.4-0.6-0.7c-0.2-0.3-0.2-0.6-0.2-0.9c0-0.1,0-0.3,0.1-0.4
		c0.1-0.1,0.2-0.1,0.4-0.1c0.1,0,0.3,0,0.4,0.1c0.1,0.1,0.1,0.2,0.1,0.4s0,0.3-0.1,0.4c-0.1,0.1-0.2,0.1-0.4,0.1
		C35.8,112.1,35.8,112.1,35.7,112.1C35.8,112.1,35.7,112.1,35.7,112.1L35.7,112.1z"/>
	<path class="st7" d="M126.2,64.2L126.2,64.2 M127.6,64.2v-2.9 M129.1,64.2v-5.9 M130.6,64.2v-8.8 M132,64.2V52.6 M133.5,64.2V49.8
		 M135,64.2V47 M136.4,64.2V44.3 M137.9,64.2V41.7 M139.4,64.2v-25 M140.9,64.2V36.8 M142.3,64.2V34.5 M143.8,64.2v-32 M145.3,64.2
		V30.2 M146.7,64.2v-36 M148.2,64.2V26.5 M149.7,64.2V24.8 M151.1,64.2V23.3 M152.6,64.2V22 M154.1,64.2V20.9 M155.6,64.2V19.9
		 M157,64.2V19.1 M158.5,64.2V18.5 M160,64.2V18 M161.4,64.2V17.8 M162.9,64.2V17.7 M164.4,64.2V17.8 M165.8,64.2V18.1 M167.3,64.2
		V18.6 M168.8,64.2v-45 M170.2,64.2V20.1 M171.7,64.2V21.1 M173.2,64.2V22.3 M174.7,64.2V23.7 M176.1,64.2v-39 M177.6,64.2V26.9
		 M179.1,64.2V28.7 M180.5,64.2V30.7 M182,64.2V32.8 M183.5,64.2V35 M184.9,64.2V37.4 M186.4,64.2V39.8 M187.9,64.2V42.4
		 M189.3,64.2V45 M190.8,64.2V47.7 M192.3,64.2V50.5 M193.8,64.2V53.3 M195.2,64.2v-8 M196.7,64.2v-5.1 M198.2,64.2V62"/>
	<path class="st8" d="M199.6,64.2V65 M201.1,64.2v3.7 M202.6,64.2v6.6 M204,64.2v9.5 M205.5,64.2v12.3 M207,64.2v15.1 M208.5,64.2
		v17.9 M209.9,64.2v20.6 M211.4,64.2v23.2 M212.9,64.2v25.7 M214.3,64.2v28.1 M215.8,64.2v30.4 M217.3,64.2v32.5 M218.7,64.2v34.6
		 M220.2,64.2v36.5 M221.7,64.2v38.2 M223.1,64.2v39.8 M224.6,64.2v41.2 M226.1,64.2v42.5 M227.6,64.2v43.6 M229,64.2v44.6
		 M230.5,64.2v45.3 M232,64.2v45.9 M233.4,64.2v46.3 M234.9,64.2v46.5 M236.4,64.2v46.5 M237.8,64.2v46.4 M239.3,64.2v46
		 M240.8,64.2v45.5 M242.2,64.2V109 M243.7,64.2v43.9 M245.2,64.2v42.8 M246.7,64.2v41.6 M248.1,64.2v40.2 M249.6,64.2v38.6
		 M251.1,64.2v36.9 M252.5,64.2v35 M254,64.2v33 M255.5,64.2v30.9 M256.9,64.2v28.6 M258.4,64.2v26.3 M259.9,64.2V88 M261.4,64.2
		v21.2 M262.8,64.2v18.6 M264.3,64.2v15.8 M265.8,64.2v13 M267.2,64.2v10.2 M268.7,64.2v7.3 M270.2,64.2v4.4 M271.6,64.2v1.5"/>
	<path class="st7" d="M273.1,64.2v-1.5 M274.6,64.2v-4.4 M276,64.2v-7.3 M277.5,64.2V54 M279,64.2v-13 M280.5,64.2V48.4 M281.9,64.2
		V45.7 M283.4,64.2V43 M284.9,64.2V40.4 M286.3,64.2V38 M287.8,64.2V35.6 M289.3,64.2V33.3 M290.7,64.2v-33 M292.2,64.2v-35
		 M293.7,64.2V27.3 M295.1,64.2V25.6 M296.6,64.2V24.1 M298.1,64.2V22.7 M299.6,64.2V21.4 M301,64.2V20.4 M302.5,64.2V19.5
		 M304,64.2V18.8 M305.4,64.2v-46 M306.9,64.2V17.9 M308.4,64.2V17.7 M309.8,64.2V17.7 M311.3,64.2V18 M312.8,64.2V18.3 M314.3,64.2
		V18.9 M315.7,64.2V19.7 M317.2,64.2V20.6 M318.7,64.2V21.7 M320.1,64.2V23 M321.6,64.2V24.4 M323.1,64.2V26 M324.5,64.2V27.8
		 M326,64.2V29.7 M327.5,64.2V31.7 M328.9,64.2V33.9 M330.4,64.2V36.2 M331.9,64.2V38.6 M333.4,64.2V41.1 M334.8,64.2V43.7
		 M336.3,64.2V46.4 M337.8,64.2V49.1 M339.2,64.2V51.9 M340.7,64.2v-9.5 M342.2,64.2v-6.6 M343.6,64.2v-3.7 M345.1,64.2v-0.7"/>
	<path class="st8" d="M346.6,64.2v2.2 M348,64.2v5.1 M349.5,64.2v8 M351,64.2v10.9 M352.5,64.2V78 M353.9,64.2v16.5 M355.4,64.2
		v19.2 M356.9,64.2v21.9 M358.3,64.2v24.4 M359.8,64.2v26.9 M361.3,64.2v29.2 M362.7,64.2v31.4 M364.2,64.2v33.6 M365.7,64.2v35.5
		 M367.2,64.2v37.3 M368.6,64.2v39 M370.1,64.2v40.5 M371.6,64.2v41.9 M373,64.2v43.1 M374.5,64.2v44.1 M376,64.2v45 M377.4,64.2
		v45.6 M378.9,64.2v46.1 M380.4,64.2v46.4 M381.8,64.2v46.5"/>
	<path class="st7" d="M79.6,110.8h46.5 M79.6,112.3h46.4 M79.6,113.7h46.2 M79.6,115.2h45.7 M79.6,116.7h45.1 M79.6,118.1h44.2
		 M79.6,119.6h43.2 M79.6,121.1h42.1 M79.6,122.5h40.7 M79.6,124h39.2 M79.6,125.5h37.6 M79.6,127h35.8 M79.6,128.4h33.8
		 M79.6,129.9h31.7 M79.6,131.4h29.5 M79.6,132.8h27.2 M79.6,134.3h24.7 M79.6,135.8h22.2 M79.6,137.2h19.6 M79.6,138.7h16.9
		 M79.6,140.2h14.1 M79.6,141.6h11.3 M79.6,143.1H88 M79.6,144.6h5.5 M79.6,146.1h2.6"/>
	<path class="st8" d="M79.6,147.5h-0.4 M79.6,149h-3.3 M79.6,150.5h-6.2 M79.6,151.9h-9.1 M79.6,153.4h-12 M79.6,154.9H64.8
		 M79.6,156.3H62.1 M79.6,157.8H59.4 M79.6,159.3H56.8 M79.6,160.7H54.3 M79.6,162.2H51.9 M79.6,163.7H49.6 M79.6,165.2H47.4
		 M79.6,166.6H45.3 M79.6,168.1H43.4 M79.6,169.6h-38 M79.6,171H40 M79.6,172.5H38.5 M79.6,174H37.2 M79.6,175.4H36.1 M79.6,176.9
		H35.2 M79.6,178.4H34.4 M79.6,179.9H33.8 M79.6,181.3H33.4 M79.6,182.8H33.1 M79.6,184.3H33.1 M79.6,185.7H33.2 M79.6,187.2H33.6
		 M79.6,188.7H34.1 M79.6,190.1H34.7 M79.6,191.6h-44 M79.6,193.1h-43 M79.6,194.5H37.9 M79.6,196H39.3 M79.6,197.5H40.8 M79.6,199
		H42.5 M79.6,200.4H44.3 M79.6,201.9H46.3 M79.6,203.4H48.4 M79.6,204.8H50.7 M79.6,206.3H53 M79.6,207.8H55.5 M79.6,209.2H58.1
		 M79.6,210.7H60.7 M79.6,212.2H63.4 M79.6,213.6H66.2 M79.6,215.1H69.1 M79.6,216.6h-7.7 M79.6,218.1h-4.8 M79.6,219.5h-1.8"/>
	<path class="st7" d="M79.6,221h1.1 M79.6,222.5h4 M79.6,223.9h7 M79.6,225.4h9.8 M79.6,226.9h12.7 M79.6,228.3h15.5 M79.6,229.8
		h18.2 M79.6,231.3h20.9 M79.6,232.8h23.5 M79.6,234.2h26 M79.6,235.7H108 M79.6,237.2h30.6 M79.6,238.6h32.8 M79.6,240.1h34.8
		 M79.6,241.6h36.7 M79.6,243H118 M79.6,244.5h40 M79.6,246H121 M79.6,247.4h42.7 M79.6,248.9h43.8 M79.6,250.4h44.7 M79.6,251.9
		H125 M79.6,253.3h46 M79.6,254.8H126 M79.6,256.3h46.5 M79.6,257.7h46.5 M79.6,259.2H126 M79.6,260.7h46 M79.6,262.1H125
		 M79.6,263.6h44.7 M79.6,265.1h43.8 M79.6,266.5h42.7 M79.6,268H121 M79.6,269.5h40 M79.6,271H118 M79.6,272.4h36.7 M79.6,273.9
		h34.8 M79.6,275.4h32.8 M79.6,276.8h30.6 M79.6,278.3H108 M79.6,279.8h26 M79.6,281.2h23.5 M79.6,282.7h20.9 M79.6,284.2h18.2
		 M79.6,285.7h15.5 M79.6,287.1h12.7 M79.6,288.6h9.8 M79.6,290.1h7 M79.6,291.5h4 M79.6,293h1.1"/>
	<path class="st8" d="M79.6,294.5h-1.8 M79.6,295.9h-4.8 M79.6,297.4h-7.7 M79.6,298.9H69.1 M79.6,300.3H66.2 M79.6,301.8H63.4
		 M79.6,303.3H60.7 M79.6,304.8H58.1 M79.6,306.2H55.5 M79.6,307.7H53 M79.6,309.2H50.7 M79.6,310.6H48.4 M79.6,312.1H46.3
		 M79.6,313.6H44.3 M79.6,315H42.5 M79.6,316.5H40.8 M79.6,318H39.3 M79.6,319.4H37.9 M79.6,320.9h-43 M79.6,322.4h-44 M79.6,323.9
		H34.7 M79.6,325.3H34.1 M79.6,326.8H33.6 M79.6,328.3H33.2 M79.6,329.7H33.1 M79.6,331.2H33.1 M79.6,332.7H33.4 M79.6,334.1H33.8
		 M79.6,335.6H34.4 M79.6,337.1H35.2 M79.6,338.6H36.1 M79.6,340H37.2 M79.6,341.5H38.5 M79.6,343H40 M79.6,344.4h-38 M79.6,345.9
		H43.4 M79.6,347.4H45.3 M79.6,348.8H47.4 M79.6,350.3H49.6 M79.6,351.8H51.9 M79.6,353.2H54.3 M79.6,354.7H56.8 M79.6,356.2H59.4
		 M79.6,357.7H62.1 M79.6,359.1H64.8 M79.6,360.6h-12 M79.6,362.1h-9.1 M79.6,363.5h-6.2 M79.6,365h-3.3 M79.6,366.5h-0.4"/>
	<line class="st9" x1="79.6" y1="64.2" x2="79.3" y2="110.8"/>
	<line class="st10" x1="79.3" y1="110.8" x2="381.8" y2="110.8"/>
	<path class="st11" d="M81.8,110.8c0,1.4-1.1,2.5-2.5,2.5c-1.4,0-2.5-1.1-2.5-2.5c0-1.4,1.1-2.5,2.5-2.5
		C80.6,108.3,81.8,109.4,81.8,110.8L81.8,110.8z"/>
	<path class="st11" d="M384.3,110.8c0,1.4-1.1,2.5-2.5,2.5s-2.5-1.1-2.5-2.5c0-1.4,1.1-2.5,2.5-2.5S384.3,109.4,384.3,110.8
		L384.3,110.8z"/>
	<line class="st12" x1="79.3" y1="110.8" x2="79.3" y2="366.5"/>
	<path class="st13" d="M81.8,110.8c0,1.4-1.1,2.5-2.5,2.5c-1.4,0-2.5-1.1-2.5-2.5c0-1.4,1.1-2.5,2.5-2.5
		C80.6,108.3,81.8,109.4,81.8,110.8L81.8,110.8z"/>
	<path class="st13" d="M81.8,366.5c0,1.4-1.1,2.5-2.5,2.5c-1.4,0-2.5-1.1-2.5-2.5c0-1.4,1.1-2.5,2.5-2.5
		C80.6,364,81.8,365.1,81.8,366.5L81.8,366.5z"/>
	<polyline class="st14" points="126.2,64.2 127.6,61.3 129.1,58.4 130.6,55.5 132,52.6 133.5,49.8 135,47 136.4,44.3 137.9,41.7 
		139.4,39.2 140.9,36.8 142.3,34.5 143.8,32.3 145.3,30.2 146.7,28.3 148.2,26.5 149.7,24.8 151.1,23.3 152.6,22 154.1,20.9 
		155.6,19.9 157,19.1 158.5,18.5 160,18 161.4,17.8 162.9,17.7 164.4,17.8 165.8,18.1 167.3,18.6 168.8,19.3 170.2,20.1 171.7,21.1 
		173.2,22.3 174.7,23.7 176.1,25.2 177.6,26.9 179.1,28.7 180.5,30.7 182,32.8 183.5,35 184.9,37.4 186.4,39.8 187.9,42.4 189.3,45 
		190.8,47.7 192.3,50.5 193.8,53.3 195.2,56.2 196.7,59.1 198.2,62 199.6,65 201.1,67.9 202.6,70.8 204,73.7 205.5,76.6 207,79.4 
		208.5,82.1 209.9,84.8 211.4,87.4 212.9,89.9 214.3,92.3 215.8,94.6 217.3,96.8 218.7,98.8 220.2,100.7 221.7,102.5 223.1,104.1 
		224.6,105.5 226.1,106.8 227.6,107.9 229,108.8 230.5,109.6 232,110.2 233.4,110.5 234.9,110.8 236.4,110.8 237.8,110.6 
		239.3,110.3 240.8,109.7 242.2,109 243.7,108.1 245.2,107.1 246.7,105.8 248.1,104.4 249.6,102.9 251.1,101.2 252.5,99.3 254,97.3 
		255.5,95.2 256.9,92.9 258.4,90.5 259.9,88 261.4,85.5 262.8,82.8 264.3,80.1 265.8,77.3 267.2,74.5 268.7,71.6 270.2,68.6 
		271.6,65.7 273.1,62.8 274.6,59.8 276,56.9 277.5,54 279,51.2 280.5,48.4 281.9,45.7 283.4,43 284.9,40.4 286.3,38 287.8,35.6 
		289.3,33.3 290.7,31.2 292.2,29.2 293.7,27.3 295.1,25.6 296.6,24.1 298.1,22.7 299.6,21.4 301,20.4 302.5,19.5 304,18.8 
		305.4,18.2 306.9,17.9 308.4,17.7 309.8,17.7 311.3,18 312.8,18.3 314.3,18.9 315.7,19.7 317.2,20.6 318.7,21.7 320.1,23 
		321.6,24.4 323.1,26 324.5,27.8 326,29.7 327.5,31.7 328.9,33.9 330.4,36.2 331.9,38.6 333.4,41.1 334.8,43.7 336.3,46.4 
		337.8,49.1 339.2,51.9 340.7,54.8 342.2,57.7 343.6,60.6 345.1,63.5 346.6,66.5 348,69.4 349.5,72.3 351,75.2 352.5,78 353.9,80.8 
		355.4,83.5 356.9,86.1 358.3,88.7 359.8,91.1 361.3,93.5 362.7,95.7 364.2,97.8 365.7,99.8 367.2,101.6 368.6,103.3 370.1,104.8 
		371.6,106.2 373,107.4 374.5,108.4 376,109.2 377.4,109.9 378.9,110.4 380.4,110.7 381.8,110.8 	"/>
	<polyline class="st15" points="126.2,110.8 126.1,112.3 125.8,113.7 125.3,115.2 124.7,116.7 123.9,118.1 122.9,119.6 121.7,121.1 
		120.3,122.5 118.8,124 117.2,125.5 115.4,127 113.4,128.4 111.3,129.9 109.1,131.4 106.8,132.8 104.4,134.3 101.8,135.8 
		99.2,137.2 96.5,138.7 93.7,140.2 90.9,141.6 88,143.1 85.1,144.6 82.2,146.1 79.3,147.5 76.3,149 73.4,150.5 70.5,151.9 
		67.6,153.4 64.8,154.9 62.1,156.3 59.4,157.8 56.8,159.3 54.3,160.7 51.9,162.2 49.6,163.7 47.4,165.2 45.3,166.6 43.4,168.1 
		41.6,169.6 40,171 38.5,172.5 37.2,174 36.1,175.4 35.2,176.9 34.4,178.4 33.8,179.9 33.4,181.3 33.1,182.8 33.1,184.3 33.2,185.7 
		33.6,187.2 34.1,188.7 34.7,190.1 35.6,191.6 36.7,193.1 37.9,194.5 39.3,196 40.8,197.5 42.5,199 44.3,200.4 46.3,201.9 
		48.4,203.4 50.7,204.8 53,206.3 55.5,207.8 58.1,209.2 60.7,210.7 63.4,212.2 66.2,213.6 69.1,215.1 71.9,216.6 74.9,218.1 
		77.8,219.5 80.7,221 83.7,222.5 86.6,223.9 89.5,225.4 92.3,226.9 95.1,228.3 97.9,229.8 100.5,231.3 103.1,232.8 105.6,234.2 
		108,235.7 110.3,237.2 112.4,238.6 114.4,240.1 116.3,241.6 118,243 119.6,244.5 121,246 122.3,247.4 123.4,248.9 124.3,250.4 
		125,251.9 125.6,253.3 126,254.8 126.1,256.3 126.1,257.7 126,259.2 125.6,260.7 125,262.1 124.3,263.6 123.4,265.1 122.3,266.5 
		121,268 119.6,269.5 118,271 116.3,272.4 114.4,273.9 112.4,275.4 110.3,276.8 108,278.3 105.6,279.8 103.1,281.2 100.5,282.7 
		97.9,284.2 95.1,285.7 92.3,287.1 89.5,288.6 86.6,290.1 83.7,291.5 80.7,293 77.8,294.5 74.9,295.9 71.9,297.4 69.1,298.9 
		66.2,300.3 63.4,301.8 60.7,303.3 58.1,304.8 55.5,306.2 53,307.7 50.7,309.2 48.4,310.6 46.3,312.1 44.3,313.6 42.5,315 
		40.8,316.5 39.3,318 37.9,319.4 36.7,320.9 35.6,322.4 34.7,323.9 34.1,325.3 33.6,326.8 33.2,328.3 33.1,329.7 33.1,331.2 
		33.4,332.7 33.8,334.1 34.4,335.6 35.2,337.1 36.1,338.6 37.2,340 38.5,341.5 40,343 41.6,344.4 43.4,345.9 45.3,347.4 47.4,348.8 
		49.6,350.3 51.9,351.8 54.3,353.2 56.8,354.7 59.4,356.2 62.1,357.7 64.8,359.1 67.6,360.6 70.5,362.1 73.4,363.5 76.3,365 
		79.3,366.5 	"/>
</g>
</svg>
