<?xml version="1.0" encoding="utf-8"?>
<!-- Generator: Adobe Illustrator 22.1.0, SVG Export Plug-In . SVG Version: 6.00 Build 0)  -->
<svg version="1.1" id="Layer_1" xmlns="http://www.w3.org/2000/svg" xmlns:xlink="http://www.w3.org/1999/xlink" x="0px" y="0px"
	 viewBox="0 0 213.9 198.4" style="enable-background:new 0 0 213.9 198.4;" xml:space="preserve">
<style type="text/css">
	.st0{fill:#1D1D1B;}
	.st1{fill:none;stroke:#000000;stroke-width:0.8504;stroke-miterlimit:10;}
	.st2{fill:none;stroke:#000000;stroke-width:2.8346;stroke-miterlimit:10;}
</style>
<g>
	<g>
		<path class="st0" d="M153.8,26.4c0,0.1-0.2,1.3-0.6,1.9c-0.2,0.4-0.6,1-1.1,1c-0.4,0-0.8-0.2-0.8-0.7c0-0.4,0.3-0.6,0.5-0.6
			c0.2,0,0.4,0.1,0.4,0.3c0,0.1-0.1,0.5-0.5,0.5c0.2,0.2,0.4,0.2,0.5,0.2c0.5,0,0.7-0.9,0.9-1.9l0.7-3.9h-0.7c-0.2,0-0.3,0-0.3-0.1
			c0-0.2,0.1-0.2,0.3-0.2h0.7c0.2-1.3,0.3-1.4,0.3-1.6c0.3-1,0.9-1.2,1.3-1.2c0.4,0,0.9,0.2,0.9,0.7c0,0.4-0.3,0.6-0.5,0.6
			c-0.2,0-0.4-0.1-0.4-0.3c0-0.1,0.1-0.5,0.5-0.5c-0.2-0.2-0.4-0.2-0.5-0.2c-0.2,0-0.4,0.1-0.5,0.3c-0.1,0.1-0.2,0.8-0.2,1l-0.2,1.1
			h0.8c0.2,0,0.3,0,0.3,0.1c0,0.2-0.1,0.2-0.3,0.2h-0.9L153.8,26.4z"/>
	</g>
	<g>
		<path class="st0" d="M163,26.8h2.8c0.2,0,0.3,0,0.3,0.2s-0.2,0.2-0.3,0.2h-5.9c-0.2,0-0.3,0-0.3-0.2s0.2-0.2,0.3-0.2h2.8v-2.7
			h-2.8c-0.2,0-0.3,0-0.3-0.2s0.2-0.2,0.3-0.2h2.8v-2.8c0-0.2,0-0.3,0.2-0.3s0.2,0.2,0.2,0.4v2.8h2.8c0.2,0,0.3,0,0.3,0.2
			s-0.2,0.2-0.3,0.2H163V26.8z"/>
	</g>
	<g>
		<path class="st0" d="M172,26.4c0,0.1-0.2,1.3-0.6,1.9c-0.2,0.4-0.6,1-1.1,1c-0.4,0-0.8-0.2-0.8-0.7c0-0.4,0.3-0.6,0.5-0.6
			c0.2,0,0.4,0.1,0.4,0.3c0,0.1-0.1,0.5-0.5,0.5c0.2,0.2,0.4,0.2,0.5,0.2c0.5,0,0.7-0.9,0.9-1.9l0.7-3.9h-0.7c-0.2,0-0.3,0-0.3-0.1
			c0-0.2,0.1-0.2,0.3-0.2h0.7c0.2-1.3,0.3-1.4,0.3-1.6c0.3-1,0.9-1.2,1.3-1.2c0.4,0,0.9,0.2,0.9,0.7c0,0.4-0.3,0.6-0.5,0.6
			c-0.2,0-0.4-0.1-0.4-0.3c0-0.1,0.1-0.5,0.5-0.5c-0.2-0.2-0.4-0.2-0.5-0.2c-0.2,0-0.4,0.1-0.5,0.3c-0.1,0.1-0.2,0.8-0.2,1l-0.2,1.1
			h0.8c0.2,0,0.3,0,0.3,0.1c0,0.2-0.1,0.2-0.3,0.2h-0.9L172,26.4z"/>
	</g>
	<g>
		<path class="st0" d="M175.8,28.8c-1.6,0-1.6-1.9-1.6-2.4c0-0.5,0-2.4,1.6-2.4c0.6,0,1,0.3,1.2,0.6c0.3,0.5,0.4,1,0.4,1.8
			C177.4,27,177.4,28.8,175.8,28.8z M176.7,27.8c0.1-0.4,0.1-1,0.1-1.5c0-0.6,0-1.1-0.1-1.5c-0.1-0.4-0.5-0.6-0.9-0.6
			c-0.3,0-0.7,0.1-0.9,0.7c-0.1,0.4-0.1,0.9-0.1,1.4c0,0.5,0,1.1,0.1,1.5c0.1,0.6,0.6,0.8,0.9,0.8C176.1,28.6,176.5,28.5,176.7,27.8
			z"/>
	</g>
	<g>
		<path class="st0" d="M181.9,24c-0.1,0-0.3,0-0.3-0.2s0.2-0.2,0.3-0.2h6c0.1,0,0.3,0,0.3,0.2S188,24,187.9,24H181.9z M181.9,25.9
			c-0.1,0-0.3,0-0.3-0.2s0.2-0.2,0.3-0.2h5.9c0.1,0,0.3,0,0.3,0.2s-0.2,0.2-0.3,0.2H181.9z"/>
		<path class="st0" d="M195.8,26.3c-0.4,0.9-1.2,1.2-1.7,1.2c-0.5,0-1.2-0.2-1.6-1c-0.4-0.8-0.4-1.7-0.4-2.4c0-0.8,0-1.6,0.4-2.3
			c0.4-0.9,1.1-1.2,1.7-1.2c0.4,0,1.2,0.2,1.7,1.1c0.3,0.7,0.4,1.5,0.4,2.3C196.2,24.8,196.1,25.6,195.8,26.3z M195.2,26
			c0.1-0.6,0.1-1.3,0.1-2.1c0-0.6,0-1.4-0.1-1.9c-0.2-1-0.8-1.2-1.2-1.2c-0.2,0-1,0.1-1.2,1.3c-0.1,0.5-0.1,1.2-0.1,1.8
			c0,0.6,0,1.5,0.1,2.1c0.2,1,0.8,1.2,1.2,1.2C194.5,27.2,195.1,26.9,195.2,26z"/>
	</g>
	<polyline points="147.4,17.3 200,17.3 200,16.8 147.4,16.8 	"/>
	<polyline points="147.4,32.4 147.9,32.4 147.9,17.2 147.4,17.2 	"/>
	<polyline points="199.5,32.4 200,32.4 200,17.2 199.5,17.2 	"/>
	<polyline points="147.4,32.6 200,32.6 200,32.2 147.4,32.2 	"/>
	<path class="st1" d="M177.7,103.9c0-45.3-36.7-82-82-82s-82,36.7-82,82c0,45.3,36.7,82,82,82S177.7,149.2,177.7,103.9L177.7,103.9z
		"/>
	<polyline points="190.3,105 194.9,102.8 190.3,100.5 191.5,102.8 	"/>
	<line class="st1" x1="0" y1="102.8" x2="191.5" y2="102.8"/>
	<polyline points="97.9,4.5 95.7,0 93.4,4.5 95.7,3.4 	"/>
	<line class="st1" x1="95.7" y1="198.4" x2="95.7" y2="3.4"/>
	<path d="M207.7,99.2c-0.1-0.1-0.1-0.1-0.2-0.1c-0.7,0-1.9,0.3-2.4,1.1c-0.1-0.3-0.6-1-1.4-1c-0.7,0-1.1,0.6-1.1,1.2
		c0,0.4,0.2,0.6,0.5,0.9c0.6,0.6,0.6,0.7,0.6,1.1c0,0.6-0.1,1.2-0.5,1.2c-0.3,0-0.3-0.4-0.3-0.5c0-0.1,0-0.2-0.1-0.2
		s-0.1,0.1-0.1,0.1c0,0.2,0.1,0.8,0.6,0.8c0.8,0,0.8-1.3,0.8-1.5c0-0.3,0-0.7-0.7-1.3c-0.3-0.2-0.4-0.4-0.4-0.6c0-0.4,0.3-1,0.8-1
		s0.9,0.8,0.9,1.9v2.9c0,0.1,0,1.9-0.6,1.9c-0.4,0-0.7-0.3-0.9-0.9c0,0,0.2-0.1,0.2-0.2c0-0.1-0.1-0.1-0.1-0.1c0,0-0.2,0-0.2,0.1
		c0-0.1-0.1-0.2-0.1-0.2c-0.1,0-0.1,0.1-0.1,0.1c0,0,0,0.1,0,0.1c-0.1,0-0.2,0.1-0.2,0.1c0,0,0.1,0.1,0.1,0.1c0,0,0.1,0,0.2-0.1
		c0.3,0.9,0.8,1.1,1.2,1.1c0.7,0,1.5-0.9,1.5-2.9v-0.7h1.1l0.1,2.2c0,0.1,0,0.1,0,0.3c0,0.6,0.5,1.1,1.2,1.1c0.1,0,0.1,0,0.3-0.1
		l0.7-0.6c0.1-0.1,0.1-0.1,0.1-0.1c0-0.1-0.2-0.1-0.2-0.1c0,0-0.4,0.3-0.9,0.7c-0.3-0.2-0.5-0.5-0.5-0.8c0-0.2,0-0.2,0-0.3
		c0-0.3,0-0.8-0.1-1.1c0-0.2-0.1-1-0.1-1.1c0.6-0.2,1.6-0.8,1.7-0.8c0,0,0,0,0-0.1c0,0-0.1-0.1-0.1-0.1L207.7,99.2z M208.3,102
		c-0.9,0.5-1.1,0.5-1.4,0.5h-1.4V102c0-0.7-0.1-1.1-0.2-1.4c0.3-1,1.6-1.1,1.6-1.1c0,0,0.1,0.1,0.1,0.1L208.3,102z"/>
	<g>
		<path class="st0" d="M210.6,103.9c-0.1,0.6-0.2,0.9-0.2,1c0,0.3,0.1,1.2,0.9,1.2c0.1,0,1.2,0,2-1c0.1-0.1,0.1-0.1,0.1-0.1
			c0.1,0,0.1,0.1,0.1,0.1c0,0.1-0.8,1.2-2.3,1.2c-1,0-1.6-0.8-1.6-1.8c0-1.7,1.5-2.7,2.6-2.7c0.7,0,1.1,0.4,1.1,0.8
			c0,0.1,0,0.7-0.7,1c-0.5,0.2-1.2,0.2-1.5,0.2H210.6z M211,103.7c0.4,0,2,0,2-1c0-0.3-0.3-0.6-0.7-0.6c-0.3,0-1.3,0.1-1.7,1.7H211z
			"/>
	</g>
	<path d="M109.2,10.7c0-0.1-0.1-0.1-0.1-0.1c-1.5-0.1-1.9-1.1-1.9-1.7c0-1,0.9-1.7,1.8-1.7c0.6,0,0.9,0.4,1.3,0.9
		c0.4,0.6,0.9,1.2,1.8,1.2c0.7,0,1.1-0.3,1.1-0.7c0-0.1-0.1-0.1-0.2-0.1c-0.1,0-0.1,0-0.1,0.1c-0.1,0.5-0.8,0.5-0.8,0.5
		c-0.1,0-0.2,0-0.4-0.3c-0.9-1.7-2.3-1.8-2.7-1.8c-1.2,0-2.2,0.8-2.2,1.9c0,1.2,1.2,1.9,2.1,1.9C109.1,10.8,109.2,10.8,109.2,10.7
		L109.2,10.7z M107.2,12.2c-0.2,0-0.3,0-0.3,0.1c0,0,0,0.1,0.1,0.1c0.3,0,0.7,0,1.4,0.7c1.1,1,1.3,1,2.1,1c0.5,0,0.9,0,1.4-0.3
		c0.3-0.2,0.6-0.6,0.6-1.1c0-0.4-0.1-0.6-0.5-1c-0.4-0.4-0.4-0.6-0.4-0.8c0-0.4,0.1-0.9,0.5-0.9c0,0,0.7,0,0.8,0.7
		c0,0.1,0,0.1,0.1,0.1c0.1,0,0.2,0,0.2-0.1c0-0.4-0.4-0.9-1.2-0.9c-0.7,0-1.3,0.5-1.3,1.1c0,0.4,0.2,0.6,0.5,1
		c0.4,0.4,0.4,0.6,0.4,0.8c0,0.9-1,1.3-1.2,1.3c-0.1,0-0.3-0.1-0.7-0.3c-0.2-0.1-0.5-0.4-0.5-0.4c-0.7-0.7-1.1-1-1.8-1H107.2z"/>
	<g>
		<path class="st0" d="M115,11.2c0.1-0.5,0.2-0.6,0.2-0.8c0-0.4-0.1-0.5-0.3-0.5c-0.4,0-0.6,0.5-0.7,1.2c-0.1,0.2-0.1,0.2-0.2,0.2
			c0,0-0.1,0-0.1-0.1c0,0,0.1-0.6,0.3-1c0.1-0.2,0.3-0.6,0.7-0.6c0.4,0,0.9,0.3,0.9,0.9c0.2-0.2,0.7-0.9,1.6-0.9
			c0.2,0,0.6,0,0.8,0.3c0.3,0.2,0.3,0.6,0.3,0.7c0.4-0.5,0.9-1,1.6-1s1.1,0.4,1.1,1.1c0,0.6-0.4,1.7-0.6,2.2
			c-0.1,0.2-0.2,0.5-0.2,0.7c0,0.2,0.1,0.3,0.2,0.3c0.5,0,0.9-0.7,1-1.2c0-0.1,0-0.2,0.1-0.2c0,0,0.1,0,0.1,0.1
			c0,0.1-0.4,1.5-1.3,1.5c-0.5,0-0.8-0.3-0.8-0.8c0-0.2,0-0.3,0.1-0.5c0.2-0.5,0.6-1.7,0.6-2.2c0-0.4-0.1-0.7-0.5-0.7
			c-1.1,0-1.6,1.2-1.6,1.3c-0.1,0.4-0.5,1.8-0.6,2.4c-0.1,0.3-0.1,0.6-0.4,0.6c-0.1,0-0.3-0.1-0.3-0.3c0-0.1,0.1-0.4,0.1-0.6
			l0.2-0.8l0.3-1.2c0.1-0.3,0.1-0.6,0.1-0.8c0-0.3-0.1-0.7-0.5-0.7c-0.9,0-1.5,0.9-1.6,1.2c0,0-0.1,0.3-0.1,0.5
			c0,0.2-0.1,0.4-0.2,0.7l-0.2,0.9c-0.1,0.2-0.2,0.7-0.2,0.7c-0.1,0.2-0.2,0.3-0.4,0.3c-0.1,0-0.3-0.1-0.3-0.3
			c0-0.1,0.1-0.3,0.1-0.4L115,11.2z"/>
	</g>
	<polyline points="168.7,107 177.2,102.8 168.7,98.5 170.8,102.8 	"/>
	<line class="st2" x1="95.7" y1="102.8" x2="170.8" y2="102.8"/>
	<g>
		<path class="st0" d="M188.3,98.1c0,0.4,0,0.5,0.9,0.5h0.3v0.3c-0.3,0-1.2,0-1.6,0s-1.3,0-1.6,0v-0.3h0.3c0.9,0,0.9-0.1,0.9-0.5
			v-5.2c-0.5,0.3-1.1,0.3-1.3,0.3v-0.3c0.3,0,1.2,0,1.8-0.6c0.2,0,0.2,0,0.2,0.3V98.1z"/>
	</g>
</g>
</svg>
