<svg id="Layer_1" data-name="Layer 1" xmlns="http://www.w3.org/2000/svg" viewBox="0 0 243.649 61.566">
  <defs>
    <style>
      .cls-1, .cls-3 {
        fill: none;
        stroke: #000;
        stroke-miterlimit: 10;
      }

      .cls-1 {
        stroke-width: 0.85px;
      }

      .cls-2 {
        fill: #1d1d1b;
      }

      .cls-3 {
        stroke-width: 1.701px;
      }
    </style>
  </defs>
  <title>basicsignals</title>
  <g>
    <polyline points="94.677 49.681 99.212 47.414 94.677 45.146 95.811 47.414"/>
    <line class="cls-1" y1="47.414" x2="95.811" y2="47.414"/>
    <polyline points="51.874 9.43 49.606 4.894 47.338 9.43 49.606 8.296"/>
    <path class="cls-1" d="M610.606,404.867V362.206m14.173,42.661v-7.086m14.173,7.086v-7.086m14.174,7.086v-7.086m-56.693,7.086v-7.086m-14.173,7.086v-7.086m-14.173,7.086v-7.086" transform="translate(-561 -353.91)"/>
    <g>
      <path class="cls-2" d="M612.37,414.322a1.863,1.863,0,0,1-3.378.149,5.04,5.04,0,0,1-.448-2.4,5.321,5.321,0,0,1,.369-2.261,1.823,1.823,0,0,1,1.733-1.186,1.845,1.845,0,0,1,1.694,1.115,7.035,7.035,0,0,1,.03,4.584Zm-.568-.308a12.318,12.318,0,0,0,.11-2.063,12.188,12.188,0,0,0-.1-1.943c-.189-.987-.847-1.166-1.176-1.166-.249,0-1,.09-1.185,1.275a13.316,13.316,0,0,0-.08,1.834,13.651,13.651,0,0,0,.109,2.1c.18.957.768,1.2,1.156,1.2C611.084,415.258,611.653,414.959,611.8,414.014Z" transform="translate(-561 -353.91)"/>
      <path class="cls-2" d="M625.241,414.471c0,.369.03.478.927.478h.319v.309c-.349-.029-1.216-.029-1.614-.029s-1.266,0-1.614.029v-.309h.319c.9,0,.926-.119.926-.478v-5.16a3,3,0,0,1-1.305.257v-.308a2.462,2.462,0,0,0,1.813-.637c.229,0,.229.02.229.258Z" transform="translate(-561 -353.91)"/>
      <path class="cls-2" d="M639.528,414.49a.8.8,0,0,0,1.166-.965h.249l-.279,1.733h-3.7c0-.238,0-.258.11-.369l1.913-2.131a3.575,3.575,0,0,0,1.046-2.2c0-.817-.428-1.623-1.335-1.623a1.437,1.437,0,0,0-1.345,1.015.417.417,0,0,1,.129-.009.5.5,0,0,1,.529.517.524.524,0,1,1-1.047-.029,1.841,1.841,0,0,1,1.864-1.8,1.957,1.957,0,0,1,2.112,1.932c0,1-.6,1.535-2.152,2.91l-1.056,1.025Z" transform="translate(-561 -353.91)"/>
      <path class="cls-2" d="M655.18,413.555a2.033,2.033,0,0,1-2.123,1.922,1.817,1.817,0,0,1-2.013-1.563.559.559,0,1,1,1.117-.021.547.547,0,0,1-.658.548,1.814,1.814,0,0,0,1.524.758c.439,0,1.126-.289,1.126-1.644,0-.977-.368-1.655-1.186-1.655h-.438c-.169,0-.239,0-.239-.109s.07-.109.149-.119.31-.022.389-.031a.964.964,0,0,0,.887-.518,2.483,2.483,0,0,0,.279-1.135c0-.9-.548-1.117-.957-1.117a1.615,1.615,0,0,0-1.325.617c.149,0,.618,0,.618.5a.509.509,0,1,1-1.017-.011c0-.756.758-1.354,1.764-1.354.957,0,1.834.557,1.834,1.375a1.8,1.8,0,0,0,.269,3.557Z" transform="translate(-561 -353.91)"/>
    </g>
    <g>
      <path class="cls-2" d="M592.421,413.4v-.579h2.641v.579Z" transform="translate(-561 -353.91)"/>
      <path class="cls-2" d="M598.6,414.471c0,.369.03.478.927.478h.319v.309c-.349-.029-1.216-.029-1.615-.029s-1.265,0-1.613.029v-.309h.319c.9,0,.926-.119.926-.478v-5.16a3,3,0,0,1-1.3.257v-.308a2.463,2.463,0,0,0,1.813-.637c.229,0,.229.02.229.258Z" transform="translate(-561 -353.91)"/>
    </g>
    <g>
      <path class="cls-2" d="M578.265,413.4v-.579h2.64v.579Z" transform="translate(-561 -353.91)"/>
      <path class="cls-2" d="M584.572,414.49a3.313,3.313,0,0,0,.946-.078,3.242,3.242,0,0,0,.219-.887h.249l-.278,1.733h-3.7c0-.238,0-.258.11-.369l1.913-2.131a3.575,3.575,0,0,0,1.046-2.2c0-.817-.429-1.623-1.335-1.623a1.439,1.439,0,0,0-1.346,1.015.421.421,0,0,1,.13-.009.5.5,0,0,1,.528.517.524.524,0,1,1-1.046-.029,1.84,1.84,0,0,1,1.863-1.8,1.957,1.957,0,0,1,2.112,1.932c0,1-.6,1.535-2.152,2.91l-1.056,1.025Z" transform="translate(-561 -353.91)"/>
    </g>
    <g>
      <path class="cls-2" d="M564.1,413.4v-.579h2.64v.579Z" transform="translate(-561 -353.91)"/>
      <path class="cls-2" d="M571.9,413.555a2.032,2.032,0,0,1-2.122,1.922,1.817,1.817,0,0,1-2.013-1.563.558.558,0,1,1,1.116-.021.546.546,0,0,1-.657.548,1.812,1.812,0,0,0,1.524.758c.438,0,1.126-.289,1.126-1.644,0-.977-.369-1.655-1.186-1.655h-.438c-.169,0-.239,0-.239-.109s.07-.109.149-.119.309-.022.389-.031a.964.964,0,0,0,.887-.518,2.492,2.492,0,0,0,.278-1.135c0-.9-.548-1.117-.956-1.117a1.614,1.614,0,0,0-1.325.617c.149,0,.617,0,.617.5a.508.508,0,1,1-1.016-.011c0-.756.757-1.354,1.764-1.354.956,0,1.833.557,1.833,1.375a1.8,1.8,0,0,0,.269,3.557Z" transform="translate(-561 -353.91)"/>
    </g>
    <path class="cls-2" d="M604.006,375.463c0,.369.031.478.927.478h.319v.309c-.349-.029-1.215-.029-1.614-.029s-1.265,0-1.614.029v-.309h.319c.9,0,.926-.119.926-.478V370.3a2.984,2.984,0,0,1-1.3.259v-.309a2.459,2.459,0,0,0,1.813-.638c.229,0,.229.02.229.26Z" transform="translate(-561 -353.91)"/>
    <path class="cls-2" d="M665.766,400.611a3.2,3.2,0,0,0,.16-.838c0-.328-.11-.457-.309-.457-.359,0-.558.477-.727,1.186-.06.219-.07.228-.17.228-.02,0-.119,0-.119-.1a5.074,5.074,0,0,1,.3-.967.869.869,0,0,1,.747-.568.9.9,0,0,1,.917.867,1.928,1.928,0,0,1,1.555-.867,1.018,1.018,0,0,1,1.146,1.066,9,9,0,0,1-.608,2.193,1.892,1.892,0,0,0-.179.708c0,.228.069.328.239.328.488,0,.817-.559,1.016-1.235.05-.15.05-.179.149-.179.03,0,.12,0,.12.1,0,.08-.369,1.533-1.3,1.533a.8.8,0,0,1-.818-.816,1.145,1.145,0,0,1,.1-.459,9.5,9.5,0,0,0,.647-2.32c0-.33-.09-.7-.538-.7a1.982,1.982,0,0,0-1.624,1.215c-.01.039-.09.328-.13.5-.05.229-.109.45-.169.668l-.219.9c-.06.25-.18.717-.19.738a.4.4,0,0,1-.368.277.265.265,0,0,1-.289-.267c0-.051.06-.279.089-.43Z" transform="translate(-561 -353.91)"/>
    <path class="cls-2" d="M619.79,355.325c0-.6.358-1.026,1.135-1.026a3.3,3.3,0,0,1,.817.11c.359.079.519.109.519.328a.419.419,0,0,1-.4.4,1.369,1.369,0,0,1-.548-.249,1.206,1.206,0,0,0-.708-.269.5.5,0,0,0-.547.458,3.918,3.918,0,0,0,.946,1.634,2.8,2.8,0,0,1,.737,1.853c0,1.375-.826,2.94-1.992,2.94a1.567,1.567,0,0,1-1.575-1.674,3.046,3.046,0,0,1,2.212-2.8A4.093,4.093,0,0,1,619.79,355.325Zm-1,4.783c0,.757.409,1.176.957,1.176.926,0,1.3-1.664,1.3-2.322a3.461,3.461,0,0,0-.548-1.714C619.162,357.607,618.793,359.48,618.793,360.108Z" transform="translate(-561 -353.91)"/>
    <path class="cls-2" d="M623.729,363.875V353.91H625.1v.4h-.967v9.167h.967v.4Z" transform="translate(-561 -353.91)"/>
    <path class="cls-2" d="M626.766,358.494a3.2,3.2,0,0,0,.16-.837c0-.329-.11-.459-.309-.459-.359,0-.558.479-.727,1.186-.06.22-.07.229-.17.229-.02,0-.119,0-.119-.1a5.031,5.031,0,0,1,.3-.967.871.871,0,0,1,.747-.568.9.9,0,0,1,.917.867,1.928,1.928,0,0,1,1.555-.867,1.019,1.019,0,0,1,1.146,1.066,8.982,8.982,0,0,1-.608,2.192,1.9,1.9,0,0,0-.179.708c0,.229.069.329.239.329.488,0,.817-.558,1.016-1.236.05-.149.05-.179.149-.179.03,0,.12,0,.12.1,0,.08-.369,1.535-1.3,1.535a.8.8,0,0,1-.818-.817,1.142,1.142,0,0,1,.1-.459,9.5,9.5,0,0,0,.647-2.321c0-.329-.09-.7-.538-.7a1.981,1.981,0,0,0-1.624,1.216c-.01.04-.09.329-.13.5-.05.23-.109.449-.169.668l-.219.9c-.06.249-.18.717-.19.737a.407.407,0,0,1-.368.279.266.266,0,0,1-.289-.269c0-.05.06-.279.089-.429Z" transform="translate(-561 -353.91)"/>
    <path class="cls-2" d="M632.9,363.875h-1.365v-.4h.966v-9.167h-.966v-.4H632.9Z" transform="translate(-561 -353.91)"/>
    <line class="cls-3" x1="49.606" y1="47.414" x2="49.606" y2="19.067"/>
    <path class="cls-2" d="M610.646,374.739a1.933,1.933,0,1,1,1.933-1.933A1.943,1.943,0,0,1,610.646,374.739Z" transform="translate(-561 -353.91)"/>
    <line class="cls-1" x1="46.063" y1="19.067" x2="53.149" y2="19.067"/>
    <path class="cls-2" d="M653.131,403.061a1.934,1.934,0,1,1,1.932-1.934A1.944,1.944,0,0,1,653.131,403.061Z" transform="translate(-561 -353.91)"/>
    <g>
      <path class="cls-2" d="M624.811,403.061a1.934,1.934,0,1,1,1.932-1.934A1.944,1.944,0,0,1,624.811,403.061Z" transform="translate(-561 -353.91)"/>
      <path class="cls-2" d="M638.967,403.061a1.934,1.934,0,1,1,1.933-1.934A1.944,1.944,0,0,1,638.967,403.061Z" transform="translate(-561 -353.91)"/>
    </g>
    <path class="cls-2" d="M596.482,403.061a1.934,1.934,0,1,1,1.933-1.934A1.944,1.944,0,0,1,596.482,403.061Z" transform="translate(-561 -353.91)"/>
    <path class="cls-2" d="M582.318,403.061a1.934,1.934,0,1,1,1.933-1.934A1.944,1.944,0,0,1,582.318,403.061Z" transform="translate(-561 -353.91)"/>
    <path class="cls-2" d="M568.162,403.061a1.934,1.934,0,1,1,1.933-1.934A1.944,1.944,0,0,1,568.162,403.061Z" transform="translate(-561 -353.91)"/>
    <polyline points="229.322 49.681 233.857 47.414 229.322 45.146 230.455 47.414"/>
    <line class="cls-1" x1="134.645" y1="47.414" x2="230.455" y2="47.414"/>
    <polyline points="186.519 9.43 184.251 4.894 181.983 9.43 184.251 8.296"/>
    <path class="cls-1" d="M745.251,404.867V362.206m14.173,42.661v-7.086m14.173,7.086v-7.086m14.173,7.086v-7.086m-56.692,7.086v-7.086m-14.173,7.086v-7.086m-14.173,7.086v-7.086" transform="translate(-561 -353.91)"/>
    <g>
      <path class="cls-2" d="M747.011,414.322a1.863,1.863,0,0,1-3.378.149,5.052,5.052,0,0,1-.448-2.4,5.321,5.321,0,0,1,.368-2.261,1.826,1.826,0,0,1,1.734-1.186,1.845,1.845,0,0,1,1.693,1.115,7.044,7.044,0,0,1,.031,4.584Zm-.569-.308a19.08,19.08,0,0,0,.011-4.006c-.189-.987-.848-1.166-1.176-1.166-.249,0-1,.09-1.186,1.275a13.483,13.483,0,0,0-.079,1.834,13.651,13.651,0,0,0,.109,2.1c.18.957.768,1.2,1.156,1.2C745.726,415.258,746.293,414.959,746.442,414.014Z" transform="translate(-561 -353.91)"/>
      <path class="cls-2" d="M759.883,414.471c0,.369.029.478.927.478h.318v.309c-.349-.029-1.216-.029-1.614-.029s-1.266,0-1.615.029v-.309h.32c.9,0,.927-.119.927-.478v-5.16a3.011,3.011,0,0,1-1.306.257v-.308a2.463,2.463,0,0,0,1.813-.637c.23,0,.23.02.23.258Z" transform="translate(-561 -353.91)"/>
      <path class="cls-2" d="M774.168,414.49a3.317,3.317,0,0,0,.947-.078,3.279,3.279,0,0,0,.219-.887h.249l-.278,1.733h-3.7c0-.238,0-.258.11-.369l1.913-2.131a3.571,3.571,0,0,0,1.047-2.2c0-.817-.429-1.623-1.336-1.623A1.439,1.439,0,0,0,772,409.947a.421.421,0,0,1,.13-.009.5.5,0,0,1,.527.517.524.524,0,1,1-1.046-.029,1.841,1.841,0,0,1,1.864-1.8,1.957,1.957,0,0,1,2.112,1.932c0,1-.6,1.535-2.152,2.91l-1.056,1.025Z" transform="translate(-561 -353.91)"/>
      <path class="cls-2" d="M789.82,413.555a2.033,2.033,0,0,1-2.122,1.922,1.816,1.816,0,0,1-2.012-1.563.558.558,0,1,1,1.115-.021.546.546,0,0,1-.657.548,1.812,1.812,0,0,0,1.524.758c.438,0,1.126-.289,1.126-1.644,0-.977-.369-1.655-1.186-1.655h-.438c-.17,0-.239,0-.239-.109s.069-.109.149-.119.309-.022.389-.031a.962.962,0,0,0,.886-.518,2.488,2.488,0,0,0,.28-1.135c0-.9-.549-1.117-.957-1.117a1.613,1.613,0,0,0-1.325.617c.149,0,.618,0,.618.5a.509.509,0,1,1-1.017-.011c0-.756.757-1.354,1.764-1.354.956,0,1.833.557,1.833,1.375a1.8,1.8,0,0,0,.269,3.557Z" transform="translate(-561 -353.91)"/>
    </g>
    <g>
      <path class="cls-2" d="M727.062,413.4v-.579h2.64v.579Z" transform="translate(-561 -353.91)"/>
      <path class="cls-2" d="M733.239,414.471c0,.369.03.478.927.478h.318v.309c-.348-.029-1.215-.029-1.614-.029s-1.266,0-1.614.029v-.309h.319c.9,0,.927-.119.927-.478v-5.16a3.008,3.008,0,0,1-1.306.257v-.308a2.464,2.464,0,0,0,1.814-.637c.229,0,.229.02.229.258Z" transform="translate(-561 -353.91)"/>
    </g>
    <g>
      <path class="cls-2" d="M712.9,413.4v-.579h2.641v.579Z" transform="translate(-561 -353.91)"/>
      <path class="cls-2" d="M719.2,414.49a3.317,3.317,0,0,0,.947-.078,3.279,3.279,0,0,0,.219-.887h.249l-.278,1.733h-3.7c0-.238,0-.258.109-.369l1.913-2.131a3.571,3.571,0,0,0,1.047-2.2c0-.817-.429-1.623-1.335-1.623a1.439,1.439,0,0,0-1.346,1.015.425.425,0,0,1,.13-.009.5.5,0,0,1,.527.517.523.523,0,1,1-1.045-.029,1.84,1.84,0,0,1,1.863-1.8,1.957,1.957,0,0,1,2.112,1.932c0,1-.6,1.535-2.152,2.91l-1.056,1.025Z" transform="translate(-561 -353.91)"/>
    </g>
    <g>
      <path class="cls-2" d="M698.741,413.4v-.579h2.641v.579Z" transform="translate(-561 -353.91)"/>
      <path class="cls-2" d="M706.543,413.555a2.033,2.033,0,0,1-2.122,1.922,1.817,1.817,0,0,1-2.013-1.563.558.558,0,1,1,1.115-.021.546.546,0,0,1-.657.548,1.814,1.814,0,0,0,1.525.758c.438,0,1.126-.289,1.126-1.644,0-.977-.37-1.655-1.186-1.655h-.438c-.17,0-.24,0-.24-.109s.07-.109.15-.119.308-.022.388-.031a.964.964,0,0,0,.887-.518,2.483,2.483,0,0,0,.279-1.135c0-.9-.548-1.117-.957-1.117a1.615,1.615,0,0,0-1.325.617c.15,0,.618,0,.618.5a.508.508,0,1,1-1.016-.011c0-.756.757-1.354,1.763-1.354.956,0,1.833.557,1.833,1.375a1.8,1.8,0,0,0,.27,3.557Z" transform="translate(-561 -353.91)"/>
    </g>
    <path class="cls-2" d="M738.647,375.463c0,.369.03.478.927.478h.319v.309c-.349-.029-1.216-.029-1.615-.029s-1.265,0-1.614.029v-.309h.319c.9,0,.927-.119.927-.478V370.3a2.986,2.986,0,0,1-1.306.259v-.309a2.461,2.461,0,0,0,1.814-.638c.229,0,.229.02.229.26Z" transform="translate(-561 -353.91)"/>
    <path class="cls-2" d="M800.415,400.611a3.225,3.225,0,0,0,.159-.838c0-.328-.109-.457-.308-.457-.36,0-.559.477-.728,1.186-.059.219-.07.228-.17.228-.019,0-.119,0-.119-.1a5.1,5.1,0,0,1,.3-.967.868.868,0,0,1,.747-.568.9.9,0,0,1,.917.867,1.925,1.925,0,0,1,1.555-.867,1.018,1.018,0,0,1,1.145,1.066,9.044,9.044,0,0,1-.607,2.193,1.893,1.893,0,0,0-.18.708c0,.228.069.328.239.328.489,0,.817-.559,1.016-1.235.051-.15.051-.179.15-.179.03,0,.119,0,.119.1,0,.08-.369,1.533-1.3,1.533a.8.8,0,0,1-.817-.816,1.139,1.139,0,0,1,.1-.459,9.5,9.5,0,0,0,.647-2.32c0-.33-.089-.7-.538-.7a1.985,1.985,0,0,0-1.624,1.215c-.009.039-.09.328-.13.5-.049.229-.109.45-.169.668l-.219.9c-.06.25-.179.717-.19.738a.4.4,0,0,1-.368.277.266.266,0,0,1-.289-.267c0-.051.06-.279.09-.43Z" transform="translate(-561 -353.91)"/>
    <path class="cls-2" d="M754.7,361.493a1.116,1.116,0,0,1-1.225-1.2,6.8,6.8,0,0,1,.578-2.092,2.062,2.062,0,0,0,.169-.678c0-.319-.159-.329-.249-.329-.379,0-.757.369-1.006,1.236-.05.159-.061.179-.16.179-.02,0-.119,0-.119-.1s.368-1.535,1.315-1.535a.79.79,0,0,1,.816.817,1.592,1.592,0,0,1-.169.628,6.814,6.814,0,0,0-.538,2.033c0,.368.1.817.618.817a1.428,1.428,0,0,0,1.136-.837c.119-.528.558-2.272.747-3a.4.4,0,0,1,.389-.349.267.267,0,0,1,.289.269c0,.059-.1.438-.149.667-.04.15-.14.529-.17.678l-.279,1.076a6.823,6.823,0,0,0-.2,1.036c0,.329.1.459.31.459.418,0,.607-.678.747-1.236.03-.14.04-.179.139-.179.03,0,.12,0,.12.1a5.091,5.091,0,0,1-.3.987.831.831,0,0,1-.738.548.889.889,0,0,1-.886-.668A1.477,1.477,0,0,1,754.7,361.493Z" transform="translate(-561 -353.91)"/>
    <path class="cls-2" d="M759.331,363.875V353.91H760.7v.4h-.967v9.167h.967v.4Z" transform="translate(-561 -353.91)"/>
    <path class="cls-2" d="M762.368,358.494a3.227,3.227,0,0,0,.159-.837c0-.329-.109-.459-.308-.459-.36,0-.559.479-.728,1.186-.059.22-.07.229-.17.229-.019,0-.119,0-.119-.1a5.058,5.058,0,0,1,.3-.967.871.871,0,0,1,.747-.568.9.9,0,0,1,.917.867,1.925,1.925,0,0,1,1.555-.867,1.018,1.018,0,0,1,1.145,1.066,9.024,9.024,0,0,1-.607,2.192,1.9,1.9,0,0,0-.18.708c0,.229.069.329.239.329.489,0,.817-.558,1.016-1.236.051-.149.051-.179.15-.179.03,0,.12,0,.12.1,0,.08-.37,1.535-1.306,1.535a.8.8,0,0,1-.817-.817,1.136,1.136,0,0,1,.1-.459,9.5,9.5,0,0,0,.648-2.321c0-.329-.09-.7-.539-.7a1.984,1.984,0,0,0-1.624,1.216c-.009.04-.089.329-.129.5-.05.23-.11.449-.169.668l-.22.9c-.06.249-.179.717-.19.737a.407.407,0,0,1-.368.279.267.267,0,0,1-.289-.269c0-.05.06-.279.09-.429Z" transform="translate(-561 -353.91)"/>
    <path class="cls-2" d="M768.5,363.875h-1.365v-.4h.967v-9.167h-.967v-.4H768.5Z" transform="translate(-561 -353.91)"/>
    <line class="cls-1" x1="180.708" y1="19.067" x2="187.794" y2="19.067"/>
    <line class="cls-3" x1="226.77" y1="47.414" x2="226.77" y2="19.067"/>
    <path class="cls-2" d="M787.764,374.739a1.933,1.933,0,1,1,1.932-1.933A1.944,1.944,0,0,1,787.764,374.739Z" transform="translate(-561 -353.91)"/>
    <line class="cls-3" x1="212.597" y1="47.414" x2="212.597" y2="19.067"/>
    <path class="cls-2" d="M773.607,374.739a1.933,1.933,0,1,1,1.933-1.933A1.943,1.943,0,0,1,773.607,374.739Z" transform="translate(-561 -353.91)"/>
    <line class="cls-3" x1="198.424" y1="47.414" x2="198.424" y2="19.067"/>
    <path class="cls-2" d="M759.443,374.739a1.933,1.933,0,1,1,1.933-1.933A1.943,1.943,0,0,1,759.443,374.739Z" transform="translate(-561 -353.91)"/>
    <line class="cls-3" x1="184.251" y1="47.414" x2="184.251" y2="19.067"/>
    <path class="cls-2" d="M745.287,374.739a1.933,1.933,0,1,1,1.933-1.933A1.943,1.943,0,0,1,745.287,374.739Z" transform="translate(-561 -353.91)"/>
    <path class="cls-2" d="M731.123,403.061a1.934,1.934,0,1,1,1.933-1.934A1.944,1.944,0,0,1,731.123,403.061Z" transform="translate(-561 -353.91)"/>
    <path class="cls-2" d="M716.967,403.061a1.934,1.934,0,1,1,1.932-1.934A1.945,1.945,0,0,1,716.967,403.061Z" transform="translate(-561 -353.91)"/>
    <path class="cls-2" d="M702.8,403.061a1.934,1.934,0,1,1,1.932-1.934A1.945,1.945,0,0,1,702.8,403.061Z" transform="translate(-561 -353.91)"/>
  </g>
</svg>
