<svg id="Layer_1" data-name="Layer 1" xmlns="http://www.w3.org/2000/svg" viewBox="0 0 394.927 61.566">
  <defs>
    <style>
      .cls-1, .cls-3 {
        fill: none;
        stroke: #000;
        stroke-miterlimit: 10;
      }

      .cls-1 {
        stroke-width: 0.85px;
      }

      .cls-2 {
        fill: #1d1d1b;
      }

      .cls-3 {
        stroke-width: 1.701px;
      }
    </style>
  </defs>
  <title>examplebasicsignals</title>
  <g>
    <polyline points="94.677 49.681 99.212 47.414 94.677 45.146 95.811 47.414"/>
    <line class="cls-1" y1="47.414" x2="95.811" y2="47.414"/>
    <polyline points="51.874 9.43 49.606 4.894 47.338 9.43 49.606 8.296"/>
    <path class="cls-1" d="M533.606,404.867V362.206m14.173,42.661v-7.086m14.173,7.086v-7.086m14.174,7.086v-7.086m-56.693,7.086v-7.086m-14.173,7.086v-7.086m-14.173,7.086v-7.086" transform="translate(-484 -353.91)"/>
    <g>
      <path class="cls-2" d="M535.37,414.321a1.863,1.863,0,0,1-3.378.15,5.044,5.044,0,0,1-.448-2.4,5.321,5.321,0,0,1,.369-2.261,1.825,1.825,0,0,1,1.733-1.186,1.847,1.847,0,0,1,1.694,1.115,7.035,7.035,0,0,1,.03,4.584Zm-.568-.308a19.167,19.167,0,0,0,.01-4.006c-.189-.986-.847-1.166-1.176-1.166-.249,0-1,.09-1.185,1.275a13.331,13.331,0,0,0-.08,1.834,13.651,13.651,0,0,0,.109,2.1c.18.957.768,1.206,1.156,1.206C534.084,415.258,534.653,414.959,534.8,414.013Z" transform="translate(-484 -353.91)"/>
      <path class="cls-2" d="M548.241,414.471c0,.368.03.478.927.478h.319v.309c-.349-.03-1.216-.03-1.614-.03s-1.266,0-1.614.03v-.309h.319c.9,0,.926-.12.926-.478V409.31a2.994,2.994,0,0,1-1.305.258v-.308a2.459,2.459,0,0,0,1.813-.638c.229,0,.229.02.229.259Z" transform="translate(-484 -353.91)"/>
      <path class="cls-2" d="M562.528,414.49a.8.8,0,0,0,1.166-.966h.249l-.279,1.734h-3.7c0-.239,0-.259.11-.369l1.913-2.132a3.57,3.57,0,0,0,1.046-2.2c0-.818-.428-1.624-1.335-1.624a1.437,1.437,0,0,0-1.345,1.016.417.417,0,0,1,.129-.009.5.5,0,0,1,.529.517.524.524,0,1,1-1.047-.03,1.841,1.841,0,0,1,1.864-1.8,1.957,1.957,0,0,1,2.112,1.933c0,1-.6,1.534-2.152,2.909l-1.056,1.026Z" transform="translate(-484 -353.91)"/>
      <path class="cls-2" d="M578.18,413.554a2.033,2.033,0,0,1-2.123,1.923,1.818,1.818,0,0,1-2.013-1.564.559.559,0,1,1,1.117-.02.545.545,0,0,1-.658.547,1.814,1.814,0,0,0,1.524.758c.439,0,1.126-.289,1.126-1.644,0-.977-.368-1.654-1.186-1.654h-.438c-.169,0-.239,0-.239-.11s.07-.109.149-.119.31-.021.389-.03a.966.966,0,0,0,.887-.518,2.489,2.489,0,0,0,.279-1.136c0-.9-.548-1.116-.957-1.116a1.615,1.615,0,0,0-1.325.617c.149,0,.618,0,.618.5a.509.509,0,1,1-1.017-.01c0-.757.758-1.355,1.764-1.355.957,0,1.834.558,1.834,1.375a1.8,1.8,0,0,0,.269,3.557Z" transform="translate(-484 -353.91)"/>
    </g>
    <g>
      <path class="cls-2" d="M515.421,413.4v-.579h2.641v.579Z" transform="translate(-484 -353.91)"/>
      <path class="cls-2" d="M521.6,414.471c0,.368.03.478.927.478h.319v.309c-.349-.03-1.216-.03-1.615-.03s-1.265,0-1.613.03v-.309h.319c.9,0,.926-.12.926-.478V409.31a2.994,2.994,0,0,1-1.3.258v-.308a2.46,2.46,0,0,0,1.813-.638c.229,0,.229.02.229.259Z" transform="translate(-484 -353.91)"/>
    </g>
    <g>
      <path class="cls-2" d="M501.257,413.4v-.579h2.64v.579Z" transform="translate(-484 -353.91)"/>
      <path class="cls-2" d="M507.564,414.49a3.272,3.272,0,0,0,.946-.079,3.233,3.233,0,0,0,.219-.887h.25l-.279,1.734H505c0-.239,0-.259.11-.369l1.913-2.132a3.57,3.57,0,0,0,1.046-2.2c0-.818-.428-1.624-1.335-1.624a1.437,1.437,0,0,0-1.345,1.016.41.41,0,0,1,.129-.009.5.5,0,0,1,.528.517.524.524,0,1,1-1.046-.03,1.84,1.84,0,0,1,1.863-1.8,1.958,1.958,0,0,1,2.113,1.933c0,1-.6,1.534-2.152,2.909l-1.056,1.026Z" transform="translate(-484 -353.91)"/>
    </g>
    <g>
      <path class="cls-2" d="M487.1,413.4v-.579h2.64v.579Z" transform="translate(-484 -353.91)"/>
      <path class="cls-2" d="M494.9,413.554a2.032,2.032,0,0,1-2.122,1.923,1.818,1.818,0,0,1-2.013-1.564.558.558,0,1,1,1.116-.02.545.545,0,0,1-.657.547,1.812,1.812,0,0,0,1.524.758c.438,0,1.126-.289,1.126-1.644,0-.977-.369-1.654-1.186-1.654h-.438c-.169,0-.239,0-.239-.11s.07-.109.149-.119.309-.021.389-.03a.966.966,0,0,0,.887-.518,2.5,2.5,0,0,0,.278-1.136c0-.9-.548-1.116-.956-1.116a1.614,1.614,0,0,0-1.325.617c.149,0,.617,0,.617.5a.508.508,0,1,1-1.016-.01c0-.757.757-1.355,1.764-1.355.956,0,1.833.558,1.833,1.375a1.8,1.8,0,0,0,.269,3.557Z" transform="translate(-484 -353.91)"/>
    </g>
    <path class="cls-2" d="M527.006,375.463c0,.369.031.478.927.478h.319v.309c-.349-.029-1.215-.029-1.614-.029s-1.265,0-1.614.029v-.309h.319c.9,0,.926-.119.926-.478V370.3a2.984,2.984,0,0,1-1.3.259v-.309a2.459,2.459,0,0,0,1.813-.638c.229,0,.229.02.229.26Z" transform="translate(-484 -353.91)"/>
    <path class="cls-2" d="M588.766,400.61a3.194,3.194,0,0,0,.16-.837c0-.329-.11-.458-.309-.458-.359,0-.558.478-.727,1.186-.06.219-.07.229-.17.229-.02,0-.119,0-.119-.1a5.031,5.031,0,0,1,.3-.967.869.869,0,0,1,.747-.568.9.9,0,0,1,.917.867,1.926,1.926,0,0,1,1.555-.867,1.018,1.018,0,0,1,1.146,1.066,8.982,8.982,0,0,1-.608,2.192,1.9,1.9,0,0,0-.179.708c0,.229.069.329.239.329.488,0,.817-.559,1.016-1.236.05-.149.05-.179.149-.179.03,0,.12,0,.12.1,0,.08-.369,1.534-1.3,1.534a.8.8,0,0,1-.818-.816,1.139,1.139,0,0,1,.1-.459,9.5,9.5,0,0,0,.647-2.321c0-.329-.09-.7-.538-.7a1.982,1.982,0,0,0-1.624,1.215c-.01.04-.09.329-.13.5-.05.229-.109.449-.169.667l-.219.9c-.06.249-.18.717-.19.737a.405.405,0,0,1-.368.278.266.266,0,0,1-.289-.268c0-.05.06-.279.089-.429Z" transform="translate(-484 -353.91)"/>
    <path class="cls-2" d="M543.738,359.739a3.86,3.86,0,0,0-.169.877c0,.339.159.658.548.658.319,0,1-.239,1.325-1.306.02-.07.04-.109.13-.109.03,0,.119,0,.119.1,0,.25-.568,1.535-1.594,1.535a1.1,1.1,0,0,1-1.076-.757,1.326,1.326,0,0,1-1.046.757c-.439,0-.937-.2-.937-.658a.567.567,0,0,1,.548-.578.342.342,0,0,1,.369.349.565.565,0,0,1-.469.538.958.958,0,0,0,.5.13c.439,0,.787-.419.947-1.037a14.471,14.471,0,0,0,.538-2.371c0-.578-.348-.668-.538-.668-.339,0-1,.25-1.335,1.306-.02.089-.05.109-.13.109-.02,0-.119,0-.119-.1,0-.249.568-1.535,1.6-1.535a1.1,1.1,0,0,1,1.076.757,1.291,1.291,0,0,1,1.046-.757c.339,0,.927.14.927.658a.556.556,0,0,1-.538.578.348.348,0,0,1-.379-.349.58.58,0,0,1,.479-.538.976.976,0,0,0-.5-.13c-.7,0-.926.917-.986,1.176Z" transform="translate(-484 -353.91)"/>
    <path class="cls-2" d="M548.726,362.241c0,.23,0,.321.7.321h.265v.251c-.153-.007-1.032-.028-1.248-.028-.258,0-1.116.021-1.241.028v-.251h.264c.7,0,.7-.091.7-.321v-3.556a2.3,2.3,0,0,1-1.011.195v-.251a1.905,1.905,0,0,0,1.367-.446c.195,0,.209.007.209.195Z" transform="translate(-484 -353.91)"/>
    <path class="cls-2" d="M552.011,363.875V353.91h1.365v.4h-.967v9.167h.967v.4Z" transform="translate(-484 -353.91)"/>
    <path class="cls-2" d="M555.047,358.494a3.2,3.2,0,0,0,.16-.837c0-.329-.11-.459-.309-.459-.358,0-.558.479-.727,1.186-.06.22-.07.229-.17.229-.02,0-.119,0-.119-.1a4.983,4.983,0,0,1,.3-.967.87.87,0,0,1,.747-.568.9.9,0,0,1,.917.867,1.924,1.924,0,0,1,1.554-.867,1.019,1.019,0,0,1,1.146,1.066,8.982,8.982,0,0,1-.608,2.192,1.9,1.9,0,0,0-.179.708c0,.229.07.329.239.329.488,0,.817-.558,1.016-1.236.05-.149.05-.179.15-.179.029,0,.119,0,.119.1,0,.08-.368,1.535-1.305,1.535a.8.8,0,0,1-.817-.817,1.136,1.136,0,0,1,.1-.459,9.5,9.5,0,0,0,.647-2.321c0-.329-.09-.7-.538-.7a1.983,1.983,0,0,0-1.624,1.216c-.01.04-.09.329-.13.5-.05.23-.109.449-.169.668l-.219.9c-.06.249-.18.717-.189.737a.408.408,0,0,1-.369.279.267.267,0,0,1-.289-.269c0-.05.06-.279.09-.429Z" transform="translate(-484 -353.91)"/>
    <g>
      <path class="cls-2" d="M561.177,363.875h-1.365v-.4h.966v-9.167h-.966v-.4h1.365Z" transform="translate(-484 -353.91)"/>
      <path class="cls-2" d="M566.009,358.125c-.15,0-.339,0-.339-.2s.189-.2.329-.2h5.968c.139,0,.329,0,.329.2s-.19.2-.339.2Zm-.01,1.933c-.14,0-.329,0-.329-.2s.189-.2.339-.2h5.948c.149,0,.339,0,.339.2s-.19.2-.329.2Z" transform="translate(-484 -353.91)"/>
    </g>
    <path class="cls-2" d="M577.7,355.325c0-.6.359-1.026,1.135-1.026a3.3,3.3,0,0,1,.817.11c.359.079.519.109.519.328a.419.419,0,0,1-.4.4,1.369,1.369,0,0,1-.548-.249,1.2,1.2,0,0,0-.707-.269.5.5,0,0,0-.548.458,3.928,3.928,0,0,0,.946,1.634,2.8,2.8,0,0,1,.737,1.853c0,1.375-.826,2.94-1.992,2.94a1.567,1.567,0,0,1-1.575-1.674,3.046,3.046,0,0,1,2.212-2.8A4.093,4.093,0,0,1,577.7,355.325Zm-1,4.783c0,.757.409,1.176.957,1.176.926,0,1.305-1.664,1.305-2.322a3.461,3.461,0,0,0-.548-1.714C577.076,357.607,576.707,359.48,576.707,360.108Z" transform="translate(-484 -353.91)"/>
    <path class="cls-2" d="M581.644,363.875V353.91h1.365v.4h-.967v9.167h.967v.4Z" transform="translate(-484 -353.91)"/>
    <path class="cls-2" d="M584.68,358.494a3.2,3.2,0,0,0,.16-.837c0-.329-.11-.459-.309-.459-.359,0-.558.479-.727,1.186-.06.22-.07.229-.17.229-.02,0-.119,0-.119-.1a5.031,5.031,0,0,1,.3-.967.872.872,0,0,1,.748-.568.9.9,0,0,1,.917.867,1.924,1.924,0,0,1,1.554-.867,1.019,1.019,0,0,1,1.146,1.066,8.982,8.982,0,0,1-.608,2.192,1.9,1.9,0,0,0-.179.708c0,.229.069.329.239.329.488,0,.817-.558,1.016-1.236.05-.149.05-.179.149-.179.03,0,.12,0,.12.1,0,.08-.369,1.535-1.3,1.535a.8.8,0,0,1-.818-.817,1.142,1.142,0,0,1,.1-.459,9.5,9.5,0,0,0,.647-2.321c0-.329-.09-.7-.538-.7a1.981,1.981,0,0,0-1.624,1.216c-.01.04-.09.329-.13.5-.05.23-.109.449-.169.668l-.219.9c-.06.249-.18.717-.19.737a.407.407,0,0,1-.368.279.266.266,0,0,1-.289-.269c0-.05.06-.279.09-.429Z" transform="translate(-484 -353.91)"/>
    <path class="cls-2" d="M592.565,359.092c-.169,0-.348,0-.348-.2s.179-.2.348-.2h5.391c.169,0,.349,0,.349.2s-.18.2-.349.2Z" transform="translate(-484 -353.91)"/>
    <g>
      <path class="cls-2" d="M604.527,360.616a.8.8,0,0,0,1.165-.967h.249l-.278,1.734h-3.7c0-.239,0-.259.11-.368l1.913-2.133a3.565,3.565,0,0,0,1.046-2.2c0-.817-.429-1.624-1.335-1.624a1.439,1.439,0,0,0-1.346,1.016.421.421,0,0,1,.13-.009.5.5,0,0,1,.528.518.524.524,0,1,1-1.046-.03,1.841,1.841,0,0,1,1.863-1.8,1.957,1.957,0,0,1,2.112,1.933c0,1-.6,1.535-2.151,2.91l-1.057,1.026Z" transform="translate(-484 -353.91)"/>
      <path class="cls-2" d="M608.093,363.875h-1.365v-.4h.966v-9.167h-.966v-.4h1.365Z" transform="translate(-484 -353.91)"/>
    </g>
    <line class="cls-3" x1="77.952" y1="47.414" x2="77.952" y2="19.067"/>
    <path class="cls-2" d="M561.967,374.739a1.933,1.933,0,1,1,1.932-1.933A1.944,1.944,0,0,1,561.967,374.739Z" transform="translate(-484 -353.91)"/>
    <line class="cls-1" x1="46.063" y1="19.067" x2="53.149" y2="19.067"/>
    <path class="cls-2" d="M576.123,403.06a1.934,1.934,0,1,1,1.933-1.934A1.944,1.944,0,0,1,576.123,403.06Z" transform="translate(-484 -353.91)"/>
    <path class="cls-2" d="M547.8,403.06a1.934,1.934,0,1,1,1.932-1.934A1.945,1.945,0,0,1,547.8,403.06Z" transform="translate(-484 -353.91)"/>
    <path class="cls-2" d="M533.646,403.06a1.934,1.934,0,1,1,1.933-1.934A1.944,1.944,0,0,1,533.646,403.06Z" transform="translate(-484 -353.91)"/>
    <path class="cls-2" d="M519.482,403.06a1.934,1.934,0,1,1,1.933-1.934A1.944,1.944,0,0,1,519.482,403.06Z" transform="translate(-484 -353.91)"/>
    <path class="cls-2" d="M505.326,403.06a1.934,1.934,0,1,1,1.933-1.934A1.944,1.944,0,0,1,505.326,403.06Z" transform="translate(-484 -353.91)"/>
    <path class="cls-2" d="M491.162,403.06a1.934,1.934,0,1,1,1.933-1.934A1.944,1.944,0,0,1,491.162,403.06Z" transform="translate(-484 -353.91)"/>
    <polyline points="222.235 49.681 226.77 47.414 222.235 45.146 223.369 47.414"/>
    <line class="cls-1" x1="127.558" y1="47.414" x2="223.369" y2="47.414"/>
    <polyline points="179.432 9.43 177.164 4.894 174.897 9.43 177.164 8.296"/>
    <path class="cls-1" d="M661.164,404.867V362.206m14.174,42.661v-7.086m14.173,7.086v-7.086m14.173,7.086v-7.086m-56.693,7.086v-7.086m-14.173,7.086v-7.086m-14.173,7.086v-7.086" transform="translate(-484 -353.91)"/>
    <g>
      <path class="cls-2" d="M662.933,414.321a1.863,1.863,0,0,1-3.378.15,5.045,5.045,0,0,1-.449-2.4,5.321,5.321,0,0,1,.369-2.261,1.827,1.827,0,0,1,1.734-1.186,1.848,1.848,0,0,1,1.694,1.115,7.052,7.052,0,0,1,.03,4.584Zm-.568-.308a19.351,19.351,0,0,0,.01-4.006c-.19-.986-.847-1.166-1.176-1.166-.249,0-1,.09-1.186,1.275a13.5,13.5,0,0,0-.079,1.834,13.651,13.651,0,0,0,.109,2.1c.179.957.767,1.206,1.156,1.206C661.647,415.258,662.215,414.959,662.365,414.013Z" transform="translate(-484 -353.91)"/>
      <path class="cls-2" d="M675.8,414.471c0,.368.03.478.926.478h.319v.309c-.348-.03-1.215-.03-1.614-.03s-1.265,0-1.614.03v-.309h.319c.9,0,.926-.12.926-.478V409.31a2.994,2.994,0,0,1-1.305.258v-.308a2.462,2.462,0,0,0,1.814-.638c.229,0,.229.02.229.259Z" transform="translate(-484 -353.91)"/>
      <path class="cls-2" d="M690.09,414.49a.8.8,0,0,0,1.166-.966h.249l-.278,1.734h-3.7c0-.239,0-.259.11-.369l1.913-2.132a3.566,3.566,0,0,0,1.047-2.2c0-.818-.429-1.624-1.336-1.624a1.438,1.438,0,0,0-1.345,1.016.421.421,0,0,1,.13-.009.5.5,0,0,1,.527.517.524.524,0,1,1-1.046-.03,1.841,1.841,0,0,1,1.864-1.8,1.957,1.957,0,0,1,2.112,1.933c0,1-.6,1.534-2.152,2.909L688.3,414.49Z" transform="translate(-484 -353.91)"/>
      <path class="cls-2" d="M705.742,413.554a2.033,2.033,0,0,1-2.122,1.923,1.817,1.817,0,0,1-2.013-1.564.558.558,0,1,1,1.116-.02.545.545,0,0,1-.658.547,1.814,1.814,0,0,0,1.525.758c.438,0,1.126-.289,1.126-1.644,0-.977-.369-1.654-1.186-1.654h-.438c-.17,0-.239,0-.239-.11s.069-.109.149-.119.309-.021.389-.03a.964.964,0,0,0,.886-.518,2.494,2.494,0,0,0,.28-1.136c0-.9-.549-1.116-.957-1.116a1.616,1.616,0,0,0-1.326.617c.15,0,.619,0,.619.5a.509.509,0,1,1-1.017-.01c0-.757.757-1.355,1.764-1.355.956,0,1.833.558,1.833,1.375a1.8,1.8,0,0,0,.269,3.557Z" transform="translate(-484 -353.91)"/>
    </g>
    <g>
      <path class="cls-2" d="M642.983,413.4v-.579h2.641v.579Z" transform="translate(-484 -353.91)"/>
      <path class="cls-2" d="M649.161,414.471c0,.368.03.478.926.478h.319v.309c-.348-.03-1.215-.03-1.614-.03s-1.265,0-1.614.03v-.309h.319c.9,0,.926-.12.926-.478V409.31a2.994,2.994,0,0,1-1.3.258v-.308a2.462,2.462,0,0,0,1.814-.638c.229,0,.229.02.229.259Z" transform="translate(-484 -353.91)"/>
    </g>
    <g>
      <path class="cls-2" d="M628.819,413.4v-.579h2.641v.579Z" transform="translate(-484 -353.91)"/>
      <path class="cls-2" d="M635.126,414.49a.8.8,0,0,0,1.166-.966h.249l-.279,1.734h-3.7c0-.239,0-.259.11-.369l1.913-2.132a3.57,3.57,0,0,0,1.046-2.2c0-.818-.428-1.624-1.335-1.624a1.438,1.438,0,0,0-1.345,1.016.417.417,0,0,1,.129-.009.5.5,0,0,1,.529.517.524.524,0,1,1-1.047-.03,1.841,1.841,0,0,1,1.864-1.8,1.957,1.957,0,0,1,2.112,1.933c0,1-.6,1.534-2.152,2.909l-1.056,1.026Z" transform="translate(-484 -353.91)"/>
    </g>
    <g>
      <path class="cls-2" d="M614.655,413.4v-.579H617.3v.579Z" transform="translate(-484 -353.91)"/>
      <path class="cls-2" d="M622.457,413.554a2.033,2.033,0,0,1-2.123,1.923,1.818,1.818,0,0,1-2.012-1.564.558.558,0,1,1,1.116-.02.545.545,0,0,1-.658.547,1.814,1.814,0,0,0,1.525.758c.438,0,1.126-.289,1.126-1.644,0-.977-.369-1.654-1.186-1.654h-.438c-.17,0-.24,0-.24-.11s.07-.109.15-.119.309-.021.388-.03a.966.966,0,0,0,.887-.518,2.489,2.489,0,0,0,.279-1.136c0-.9-.548-1.116-.957-1.116a1.615,1.615,0,0,0-1.325.617c.15,0,.618,0,.618.5a.508.508,0,1,1-1.016-.01c0-.757.757-1.355,1.763-1.355.957,0,1.834.558,1.834,1.375a1.8,1.8,0,0,0,.269,3.557Z" transform="translate(-484 -353.91)"/>
    </g>
    <path class="cls-2" d="M654.569,375.463c0,.369.03.478.927.478h.318v.309c-.348-.029-1.215-.029-1.614-.029s-1.265,0-1.614.029v-.309h.319c.9,0,.927-.119.927-.478V370.3a2.988,2.988,0,0,1-1.306.259v-.309a2.462,2.462,0,0,0,1.814-.638c.229,0,.229.02.229.26Z" transform="translate(-484 -353.91)"/>
    <path class="cls-2" d="M716.329,400.61a3.22,3.22,0,0,0,.159-.837c0-.329-.109-.458-.308-.458-.36,0-.559.478-.728,1.186-.059.219-.07.229-.17.229-.019,0-.119,0-.119-.1a5.058,5.058,0,0,1,.3-.967.869.869,0,0,1,.747-.568.9.9,0,0,1,.917.867,1.922,1.922,0,0,1,1.555-.867,1.018,1.018,0,0,1,1.145,1.066,9.024,9.024,0,0,1-.607,2.192,1.9,1.9,0,0,0-.18.708c0,.229.069.329.239.329.489,0,.817-.559,1.016-1.236.051-.149.051-.179.15-.179.03,0,.119,0,.119.1,0,.08-.369,1.534-1.3,1.534a.8.8,0,0,1-.817-.816,1.133,1.133,0,0,1,.1-.459,9.5,9.5,0,0,0,.647-2.321c0-.329-.089-.7-.538-.7a1.985,1.985,0,0,0-1.624,1.215c-.009.04-.089.329-.13.5-.049.229-.109.449-.168.667l-.22.9c-.06.249-.179.717-.19.737a.405.405,0,0,1-.368.278.266.266,0,0,1-.289-.268c0-.05.06-.279.09-.429Z" transform="translate(-484 -353.91)"/>
    <path class="cls-2" d="M671.309,359.739a3.877,3.877,0,0,0-.17.877c0,.339.159.658.548.658.319,0,1-.239,1.325-1.306.02-.07.04-.109.13-.109.03,0,.12,0,.12.1,0,.25-.569,1.535-1.595,1.535a1.1,1.1,0,0,1-1.076-.757,1.325,1.325,0,0,1-1.046.757c-.439,0-.937-.2-.937-.658a.567.567,0,0,1,.548-.578.342.342,0,0,1,.369.349.565.565,0,0,1-.468.538.954.954,0,0,0,.5.13c.438,0,.787-.419.946-1.037a14.529,14.529,0,0,0,.539-2.371c0-.578-.349-.668-.539-.668-.338,0-1,.25-1.334,1.306-.021.089-.051.109-.13.109-.02,0-.12,0-.12-.1,0-.249.568-1.535,1.6-1.535a1.1,1.1,0,0,1,1.077.757,1.287,1.287,0,0,1,1.046-.757c.338,0,.926.14.926.658a.556.556,0,0,1-.538.578.347.347,0,0,1-.378-.349.579.579,0,0,1,.478-.538.974.974,0,0,0-.5-.13c-.7,0-.927.917-.987,1.176Z" transform="translate(-484 -353.91)"/>
    <path class="cls-2" d="M677.265,362.813h-2.873c0-.195,0-.209.069-.272l1.681-1.66a2.119,2.119,0,0,0,.655-1.339,1.043,1.043,0,0,0-1.06-1.108,1.1,1.1,0,0,0-1.018.649c.363,0,.412.243.412.369a.37.37,0,1,1-.739-.021,1.352,1.352,0,0,1,1.45-1.248,1.46,1.46,0,0,1,1.632,1.359,2.018,2.018,0,0,1-1,1.507c-.419.327-.663.523-1.395,1.171h1.283a3.583,3.583,0,0,0,.69-.042,1.6,1.6,0,0,0,.181-.634h.238Z" transform="translate(-484 -353.91)"/>
    <path class="cls-2" d="M679.573,363.875V353.91h1.365v.4h-.966v9.167h.966v.4Z" transform="translate(-484 -353.91)"/>
    <path class="cls-2" d="M682.61,358.494a3.246,3.246,0,0,0,.16-.837c0-.329-.11-.459-.309-.459-.359,0-.559.479-.728,1.186-.059.22-.07.229-.17.229-.019,0-.119,0-.119-.1a5.058,5.058,0,0,1,.3-.967.871.871,0,0,1,.747-.568.9.9,0,0,1,.917.867,1.925,1.925,0,0,1,1.555-.867,1.018,1.018,0,0,1,1.145,1.066,9.024,9.024,0,0,1-.607,2.192,1.9,1.9,0,0,0-.18.708c0,.229.07.329.24.329.488,0,.816-.558,1.015-1.236.051-.149.051-.179.151-.179.029,0,.119,0,.119.1,0,.08-.369,1.535-1.306,1.535a.8.8,0,0,1-.816-.817,1.13,1.13,0,0,1,.1-.459,9.5,9.5,0,0,0,.648-2.321c0-.329-.09-.7-.538-.7a1.981,1.981,0,0,0-1.624,1.216c-.01.04-.09.329-.13.5-.05.23-.11.449-.169.668l-.22.9c-.06.249-.179.717-.189.737a.408.408,0,0,1-.369.279.267.267,0,0,1-.289-.269c0-.05.06-.279.09-.429Z" transform="translate(-484 -353.91)"/>
    <g>
      <path class="cls-2" d="M688.739,363.875h-1.365v-.4h.967v-9.167h-.967v-.4h1.365Z" transform="translate(-484 -353.91)"/>
      <path class="cls-2" d="M693.571,358.125c-.149,0-.339,0-.339-.2s.19-.2.33-.2h5.968c.14,0,.328,0,.328.2s-.188.2-.337.2Zm-.009,1.933c-.14,0-.33,0-.33-.2s.19-.2.339-.2h5.95c.149,0,.337,0,.337.2s-.188.2-.328.2Z" transform="translate(-484 -353.91)"/>
    </g>
    <path class="cls-2" d="M705.266,355.325c0-.6.359-1.026,1.136-1.026a3.3,3.3,0,0,1,.817.11c.359.079.518.109.518.328a.418.418,0,0,1-.4.4,1.369,1.369,0,0,1-.548-.249,1.206,1.206,0,0,0-.708-.269.5.5,0,0,0-.548.458,3.928,3.928,0,0,0,.946,1.634,2.8,2.8,0,0,1,.738,1.853c0,1.375-.827,2.94-1.992,2.94a1.567,1.567,0,0,1-1.575-1.674,3.044,3.044,0,0,1,2.212-2.8A4.081,4.081,0,0,1,705.266,355.325Zm-1,4.783c0,.757.408,1.176.957,1.176.926,0,1.3-1.664,1.3-2.322a3.461,3.461,0,0,0-.548-1.714C704.639,357.607,704.27,359.48,704.27,360.108Z" transform="translate(-484 -353.91)"/>
    <path class="cls-2" d="M709.206,363.875V353.91h1.365v.4H709.6v9.167h.967v.4Z" transform="translate(-484 -353.91)"/>
    <path class="cls-2" d="M712.251,358.494a3.227,3.227,0,0,0,.159-.837c0-.329-.109-.459-.308-.459-.36,0-.559.479-.728,1.186-.06.22-.07.229-.17.229-.019,0-.119,0-.119-.1a5.058,5.058,0,0,1,.3-.967.87.87,0,0,1,.747-.568.9.9,0,0,1,.917.867,1.925,1.925,0,0,1,1.555-.867,1.018,1.018,0,0,1,1.145,1.066,9.024,9.024,0,0,1-.607,2.192,1.9,1.9,0,0,0-.18.708c0,.229.069.329.239.329.488,0,.817-.558,1.016-1.236.051-.149.051-.179.15-.179.03,0,.119,0,.119.1,0,.08-.369,1.535-1.305,1.535a.8.8,0,0,1-.817-.817,1.136,1.136,0,0,1,.1-.459,9.5,9.5,0,0,0,.647-2.321c0-.329-.089-.7-.538-.7a1.984,1.984,0,0,0-1.624,1.216c-.01.04-.09.329-.13.5-.049.23-.109.449-.169.668l-.219.9c-.06.249-.179.717-.19.737a.407.407,0,0,1-.368.279.267.267,0,0,1-.289-.269c0-.05.06-.279.09-.429Z" transform="translate(-484 -353.91)"/>
    <g>
      <path class="cls-2" d="M723.027,361.881c0,.14,0,.329-.2.329s-.2-.189-.2-.329v-2.789h-2.79c-.14,0-.329,0-.329-.2s.189-.2.329-.2h2.79V355.9c0-.139,0-.329.2-.329s.2.19.2.329v2.79h2.781c.139,0,.328,0,.328.2s-.189.2-.328.2h-2.781Z" transform="translate(-484 -353.91)"/>
      <path class="cls-2" d="M732.093,360.616a.8.8,0,0,0,1.166-.967h.249l-.279,1.734h-3.7c0-.239,0-.259.11-.368l1.913-2.133a3.561,3.561,0,0,0,1.047-2.2c0-.817-.429-1.624-1.335-1.624a1.437,1.437,0,0,0-1.346,1.016.421.421,0,0,1,.13-.009.5.5,0,0,1,.527.518.524.524,0,1,1-1.046-.03,1.842,1.842,0,0,1,1.864-1.8,1.957,1.957,0,0,1,2.112,1.933c0,1-.6,1.535-2.153,2.91l-1.055,1.026Z" transform="translate(-484 -353.91)"/>
    </g>
    <path class="cls-2" d="M735.653,363.875h-1.365v-.4h.967v-9.167h-.967v-.4h1.365Z" transform="translate(-484 -353.91)"/>
    <line class="cls-1" x1="173.621" y1="19.067" x2="180.708" y2="19.067"/>
    <line class="cls-3" x1="148.818" y1="47.414" x2="148.818" y2="19.067"/>
    <path class="cls-2" d="M632.889,374.739a1.933,1.933,0,1,1,1.932-1.933A1.944,1.944,0,0,1,632.889,374.739Z" transform="translate(-484 -353.91)"/>
    <path class="cls-2" d="M703.686,403.06a1.934,1.934,0,1,1,1.932-1.934A1.944,1.944,0,0,1,703.686,403.06Z" transform="translate(-484 -353.91)"/>
    <path class="cls-2" d="M689.521,403.06a1.934,1.934,0,1,1,1.933-1.934A1.944,1.944,0,0,1,689.521,403.06Z" transform="translate(-484 -353.91)"/>
    <path class="cls-2" d="M675.365,403.06a1.934,1.934,0,1,1,1.933-1.934A1.944,1.944,0,0,1,675.365,403.06Z" transform="translate(-484 -353.91)"/>
    <path class="cls-2" d="M661.2,403.06a1.934,1.934,0,1,1,1.933-1.934A1.944,1.944,0,0,1,661.2,403.06Z" transform="translate(-484 -353.91)"/>
    <path class="cls-2" d="M647.045,403.06a1.934,1.934,0,1,1,1.933-1.934A1.944,1.944,0,0,1,647.045,403.06Z" transform="translate(-484 -353.91)"/>
    <path class="cls-2" d="M618.725,403.06a1.934,1.934,0,1,1,1.932-1.934A1.944,1.944,0,0,1,618.725,403.06Z" transform="translate(-484 -353.91)"/>
    <polyline points="356.88 49.681 361.415 47.414 356.88 45.146 358.014 47.414"/>
    <line class="cls-1" x1="262.203" y1="47.414" x2="358.014" y2="47.414"/>
    <polyline points="314.077 9.43 311.809 4.894 309.542 9.43 311.809 8.296"/>
    <path class="cls-1" d="M795.809,404.867V362.206m14.173,42.661v-7.086m14.174,7.086v-7.086m14.173,7.086v-7.086m-56.693,7.086v-7.086m-14.173,7.086v-7.086m-14.173,7.086v-7.086" transform="translate(-484 -353.91)"/>
    <g>
      <path class="cls-2" d="M797.573,414.321a1.863,1.863,0,0,1-3.378.15,5.056,5.056,0,0,1-.448-2.4,5.336,5.336,0,0,1,.368-2.261,1.853,1.853,0,0,1,3.428-.071,7.052,7.052,0,0,1,.03,4.584Zm-.568-.308a19.262,19.262,0,0,0,.011-4.006c-.19-.986-.848-1.166-1.176-1.166-.249,0-1,.09-1.187,1.275a20.676,20.676,0,0,0,.031,3.936c.179.957.767,1.206,1.156,1.206C796.288,415.258,796.855,414.959,797.005,414.013Z" transform="translate(-484 -353.91)"/>
      <path class="cls-2" d="M810.445,414.471c0,.368.03.478.927.478h.318v.309c-.348-.03-1.215-.03-1.614-.03s-1.265,0-1.614.03v-.309h.319c.9,0,.927-.12.927-.478V409.31a3,3,0,0,1-1.306.258v-.308a2.461,2.461,0,0,0,1.814-.638c.229,0,.229.02.229.259Z" transform="translate(-484 -353.91)"/>
      <path class="cls-2" d="M824.73,414.49a.8.8,0,0,0,1.166-.966h.25l-.279,1.734h-3.7c0-.239,0-.259.109-.369l1.913-2.132a3.566,3.566,0,0,0,1.047-2.2c0-.818-.428-1.624-1.336-1.624a1.437,1.437,0,0,0-1.344,1.016.414.414,0,0,1,.129-.009.5.5,0,0,1,.528.517.524.524,0,1,1-1.046-.03,1.84,1.84,0,0,1,1.863-1.8,1.958,1.958,0,0,1,2.113,1.933c0,1-.6,1.534-2.153,2.909l-1.055,1.026Z" transform="translate(-484 -353.91)"/>
      <path class="cls-2" d="M840.383,413.554a2.033,2.033,0,0,1-2.122,1.923,1.817,1.817,0,0,1-2.013-1.564.558.558,0,1,1,1.115-.02.545.545,0,0,1-.657.547,1.814,1.814,0,0,0,1.524.758c.439,0,1.126-.289,1.126-1.644,0-.977-.369-1.654-1.185-1.654h-.439c-.169,0-.239,0-.239-.11s.07-.109.15-.119.308-.021.388-.03a.966.966,0,0,0,.887-.518,2.489,2.489,0,0,0,.279-1.136c0-.9-.549-1.116-.957-1.116a1.615,1.615,0,0,0-1.325.617c.149,0,.618,0,.618.5a.508.508,0,1,1-1.016-.01c0-.757.756-1.355,1.763-1.355.956,0,1.833.558,1.833,1.375a1.8,1.8,0,0,0,.27,3.557Z" transform="translate(-484 -353.91)"/>
    </g>
    <g>
      <path class="cls-2" d="M777.624,413.4v-.579h2.641v.579Z" transform="translate(-484 -353.91)"/>
      <path class="cls-2" d="M783.8,414.471c0,.368.029.478.927.478h.318v.309c-.349-.03-1.216-.03-1.614-.03s-1.266,0-1.615.03v-.309h.32c.9,0,.926-.12.926-.478V409.31a2.994,2.994,0,0,1-1.3.258v-.308a2.46,2.46,0,0,0,1.813-.638c.23,0,.23.02.23.259Z" transform="translate(-484 -353.91)"/>
    </g>
    <g>
      <path class="cls-2" d="M763.46,413.4v-.579H766.1v.579Z" transform="translate(-484 -353.91)"/>
      <path class="cls-2" d="M769.767,414.49a.8.8,0,0,0,1.166-.966h.249l-.279,1.734h-3.7c0-.239,0-.259.109-.369l1.914-2.132a3.57,3.57,0,0,0,1.046-2.2c0-.818-.428-1.624-1.335-1.624a1.437,1.437,0,0,0-1.345,1.016.421.421,0,0,1,.13-.009.5.5,0,0,1,.527.517.524.524,0,1,1-1.046-.03,1.84,1.84,0,0,1,1.863-1.8,1.958,1.958,0,0,1,2.113,1.933c0,1-.6,1.534-2.153,2.909l-1.055,1.026Z" transform="translate(-484 -353.91)"/>
    </g>
    <g>
      <path class="cls-2" d="M749.3,413.4v-.579h2.641v.579Z" transform="translate(-484 -353.91)"/>
      <path class="cls-2" d="M757.1,413.554a2.033,2.033,0,0,1-2.122,1.923,1.817,1.817,0,0,1-2.013-1.564.558.558,0,1,1,1.115-.02.545.545,0,0,1-.657.547,1.814,1.814,0,0,0,1.524.758c.439,0,1.126-.289,1.126-1.644,0-.977-.369-1.654-1.185-1.654h-.439c-.17,0-.239,0-.239-.11s.069-.109.149-.119.309-.021.389-.03a.966.966,0,0,0,.887-.518,2.489,2.489,0,0,0,.279-1.136c0-.9-.549-1.116-.957-1.116a1.614,1.614,0,0,0-1.325.617c.149,0,.618,0,.618.5a.509.509,0,1,1-1.017-.01c0-.757.757-1.355,1.764-1.355.956,0,1.833.558,1.833,1.375a1.8,1.8,0,0,0,.27,3.557Z" transform="translate(-484 -353.91)"/>
    </g>
    <path class="cls-2" d="M789.2,375.463c0,.369.029.478.927.478h.318v.309c-.348-.029-1.216-.029-1.614-.029s-1.266,0-1.614.029v-.309h.319c.9,0,.927-.119.927-.478V370.3a2.99,2.99,0,0,1-1.306.259v-.309a2.462,2.462,0,0,0,1.814-.638c.229,0,.229.02.229.26Z" transform="translate(-484 -353.91)"/>
    <path class="cls-2" d="M850.97,400.61a3.22,3.22,0,0,0,.159-.837c0-.329-.109-.458-.309-.458-.359,0-.558.478-.727,1.186-.06.219-.071.229-.17.229-.02,0-.119,0-.119-.1a4.983,4.983,0,0,1,.3-.967.868.868,0,0,1,.747-.568.9.9,0,0,1,.917.867,1.922,1.922,0,0,1,1.554-.867,1.018,1.018,0,0,1,1.146,1.066,8.982,8.982,0,0,1-.608,2.192,1.916,1.916,0,0,0-.179.708c0,.229.069.329.239.329.488,0,.816-.559,1.016-1.236.05-.149.05-.179.15-.179.029,0,.119,0,.119.1,0,.08-.369,1.534-1.306,1.534a.8.8,0,0,1-.816-.816,1.133,1.133,0,0,1,.1-.459,9.5,9.5,0,0,0,.647-2.321c0-.329-.09-.7-.538-.7a1.984,1.984,0,0,0-1.624,1.215c-.01.04-.09.329-.13.5-.05.229-.109.449-.169.667l-.22.9c-.059.249-.178.717-.189.737a.405.405,0,0,1-.368.278.266.266,0,0,1-.289-.268c0-.05.059-.279.09-.429Z" transform="translate(-484 -353.91)"/>
    <path class="cls-2" d="M805.941,359.739a3.935,3.935,0,0,0-.17.877c0,.339.161.658.549.658.319,0,1-.239,1.326-1.306.019-.07.039-.109.128-.109.031,0,.121,0,.121.1,0,.25-.569,1.535-1.6,1.535a1.1,1.1,0,0,1-1.076-.757,1.326,1.326,0,0,1-1.046.757c-.439,0-.937-.2-.937-.658a.567.567,0,0,1,.548-.578.342.342,0,0,1,.369.349.565.565,0,0,1-.469.538.957.957,0,0,0,.5.13c.438,0,.787-.419.946-1.037a14.471,14.471,0,0,0,.538-2.371c0-.578-.349-.668-.538-.668-.338,0-1,.25-1.335,1.306-.02.089-.05.109-.129.109-.021,0-.12,0-.12-.1,0-.249.568-1.535,1.6-1.535a1.1,1.1,0,0,1,1.076.757,1.289,1.289,0,0,1,1.046-.757c.339,0,.927.14.927.658a.555.555,0,0,1-.538.578.348.348,0,0,1-.379-.349.578.578,0,0,1,.479-.538.976.976,0,0,0-.5-.13c-.7,0-.927.917-.987,1.176Z" transform="translate(-484 -353.91)"/>
    <path class="cls-2" d="M810.12,360.484c-.119,0-.182,0-.182-.1a.081.081,0,0,1,.071-.091c.034-.006.049-.006.222-.02a.9.9,0,0,0,.775-.3,1.339,1.339,0,0,0,.278-.83.7.7,0,0,0-.753-.76,1.32,1.32,0,0,0-.983.384.352.352,0,0,1,.355.362.359.359,0,1,1-.717-.014c0-.558.592-.934,1.367-.934s1.408.411,1.408.962a1.33,1.33,0,0,1-1,1.213,1.379,1.379,0,0,1,1.213,1.248,1.5,1.5,0,0,1-1.639,1.347c-.844,0-1.568-.426-1.568-1.081a.387.387,0,1,1,.773-.021.378.378,0,0,1-.4.39,1.515,1.515,0,0,0,1.185.488c.4,0,.907-.258.907-1.123,0-.746-.391-1.122-.935-1.122Z" transform="translate(-484 -353.91)"/>
    <path class="cls-2" d="M814.206,363.875V353.91h1.365v.4H814.6v9.167h.967v.4Z" transform="translate(-484 -353.91)"/>
    <path class="cls-2" d="M817.251,358.494a3.227,3.227,0,0,0,.159-.837c0-.329-.109-.459-.308-.459-.36,0-.559.479-.728,1.186-.06.22-.07.229-.17.229-.019,0-.119,0-.119-.1a5.058,5.058,0,0,1,.3-.967.87.87,0,0,1,.747-.568.9.9,0,0,1,.917.867,1.925,1.925,0,0,1,1.555-.867,1.018,1.018,0,0,1,1.145,1.066,9.024,9.024,0,0,1-.607,2.192,1.9,1.9,0,0,0-.18.708c0,.229.069.329.239.329.488,0,.817-.558,1.016-1.236.051-.149.051-.179.15-.179.03,0,.119,0,.119.1,0,.08-.369,1.535-1.305,1.535a.8.8,0,0,1-.817-.817,1.136,1.136,0,0,1,.1-.459,9.5,9.5,0,0,0,.647-2.321c0-.329-.089-.7-.538-.7a1.984,1.984,0,0,0-1.624,1.216c-.01.04-.09.329-.13.5-.049.23-.109.449-.169.668l-.219.9c-.06.249-.179.717-.19.737a.407.407,0,0,1-.368.279.267.267,0,0,1-.289-.269c0-.05.06-.279.09-.429Z" transform="translate(-484 -353.91)"/>
    <g>
      <path class="cls-2" d="M823.38,363.875h-1.365v-.4h.966v-9.167h-.966v-.4h1.365Z" transform="translate(-484 -353.91)"/>
      <path class="cls-2" d="M828.331,358.125c-.149,0-.339,0-.339-.2s.19-.2.329-.2h5.969c.14,0,.328,0,.328.2s-.188.2-.338.2Zm-.01,1.933c-.139,0-.329,0-.329-.2s.19-.2.339-.2h5.949c.15,0,.338,0,.338.2s-.188.2-.328.2Z" transform="translate(-484 -353.91)"/>
    </g>
    <path class="cls-2" d="M840.176,361.493a1.117,1.117,0,0,1-1.226-1.2,6.8,6.8,0,0,1,.578-2.092,2.037,2.037,0,0,0,.169-.678c0-.319-.159-.329-.249-.329-.379,0-.757.369-1.006,1.236-.049.159-.06.179-.16.179-.019,0-.119,0-.119-.1s.368-1.535,1.316-1.535a.79.79,0,0,1,.816.817,1.609,1.609,0,0,1-.169.628,6.784,6.784,0,0,0-.538,2.033c0,.368.1.817.618.817a1.428,1.428,0,0,0,1.136-.837c.119-.528.557-2.272.747-3a.4.4,0,0,1,.389-.349.267.267,0,0,1,.289.269c0,.059-.1.438-.15.667-.04.15-.139.529-.17.678l-.278,1.076a6.823,6.823,0,0,0-.2,1.036c0,.329.1.459.309.459.418,0,.608-.678.747-1.236.031-.14.04-.179.14-.179.029,0,.119,0,.119.1a5.091,5.091,0,0,1-.3.987.83.83,0,0,1-.737.548.89.89,0,0,1-.887-.668A1.475,1.475,0,0,1,840.176,361.493Z" transform="translate(-484 -353.91)"/>
    <path class="cls-2" d="M844.808,363.875V353.91h1.365v.4h-.967v9.167h.967v.4Z" transform="translate(-484 -353.91)"/>
    <path class="cls-2" d="M847.565,359.092c-.169,0-.348,0-.348-.2s.179-.2.348-.2h5.391c.169,0,.349,0,.349.2s-.18.2-.349.2Z" transform="translate(-484 -353.91)"/>
    <path class="cls-2" d="M855.642,358.494a3.227,3.227,0,0,0,.159-.837c0-.329-.11-.459-.309-.459-.359,0-.558.479-.727,1.186-.06.22-.071.229-.17.229-.02,0-.119,0-.119-.1a5.031,5.031,0,0,1,.3-.967.871.871,0,0,1,.747-.568.9.9,0,0,1,.917.867,1.926,1.926,0,0,1,1.555-.867,1.019,1.019,0,0,1,1.146,1.066,8.982,8.982,0,0,1-.608,2.192,1.9,1.9,0,0,0-.179.708c0,.229.069.329.239.329.488,0,.816-.558,1.015-1.236.051-.149.051-.179.151-.179.029,0,.119,0,.119.1,0,.08-.369,1.535-1.306,1.535a.8.8,0,0,1-.816-.817,1.136,1.136,0,0,1,.1-.459,9.5,9.5,0,0,0,.647-2.321c0-.329-.09-.7-.538-.7a1.983,1.983,0,0,0-1.624,1.216c-.01.04-.09.329-.13.5-.05.23-.109.449-.169.668l-.22.9c-.059.249-.178.717-.189.737a.407.407,0,0,1-.368.279.266.266,0,0,1-.289-.269c0-.05.059-.279.089-.429Z" transform="translate(-484 -353.91)"/>
    <g>
      <path class="cls-2" d="M866.426,361.881c0,.14,0,.329-.2.329s-.2-.189-.2-.329v-2.789h-2.79c-.139,0-.329,0-.329-.2s.19-.2.329-.2h2.79V355.9c0-.139,0-.329.2-.329s.2.19.2.329v2.79h2.78c.14,0,.328,0,.328.2s-.188.2-.328.2h-2.78Z" transform="translate(-484 -353.91)"/>
      <path class="cls-2" d="M875.243,360.6c0,.369.029.478.927.478h.318v.309c-.348-.029-1.216-.029-1.614-.029s-1.266,0-1.614.029v-.309h.319c.9,0,.927-.119.927-.478v-5.161a2.99,2.99,0,0,1-1.306.259v-.309a2.461,2.461,0,0,0,1.814-.638c.229,0,.229.02.229.259Z" transform="translate(-484 -353.91)"/>
    </g>
    <path class="cls-2" d="M878.927,363.875h-1.365v-.4h.966v-9.167h-.966v-.4h1.365Z" transform="translate(-484 -353.91)"/>
    <line class="cls-1" x1="308.266" y1="19.067" x2="315.353" y2="19.067"/>
    <line class="cls-3" x1="325.982" y1="47.414" x2="325.982" y2="19.067"/>
    <path class="cls-2" d="M810.006,374.739a1.933,1.933,0,1,1,1.932-1.933A1.943,1.943,0,0,1,810.006,374.739Z" transform="translate(-484 -353.91)"/>
    <line class="cls-3" x1="311.809" y1="47.414" x2="311.809" y2="19.067"/>
    <path class="cls-2" d="M795.85,374.739a1.933,1.933,0,1,1,1.932-1.933A1.943,1.943,0,0,1,795.85,374.739Z" transform="translate(-484 -353.91)"/>
    <line class="cls-3" x1="297.636" y1="47.414" x2="297.636" y2="19.067"/>
    <path class="cls-2" d="M781.686,374.739a1.933,1.933,0,1,1,1.932-1.933A1.943,1.943,0,0,1,781.686,374.739Z" transform="translate(-484 -353.91)"/>
    <line class="cls-3" x1="283.463" y1="47.414" x2="283.463" y2="19.067"/>
    <path class="cls-2" d="M767.529,374.739a1.933,1.933,0,1,1,1.933-1.933A1.943,1.943,0,0,1,767.529,374.739Z" transform="translate(-484 -353.91)"/>
    <line class="cls-3" x1="269.29" y1="47.414" x2="269.29" y2="19.067"/>
    <path class="cls-2" d="M753.365,374.739a1.933,1.933,0,1,1,1.933-1.933A1.943,1.943,0,0,1,753.365,374.739Z" transform="translate(-484 -353.91)"/>
    <path class="cls-2" d="M838.326,403.06a1.934,1.934,0,1,1,1.933-1.934A1.944,1.944,0,0,1,838.326,403.06Z" transform="translate(-484 -353.91)"/>
    <path class="cls-2" d="M824.17,403.06a1.934,1.934,0,1,1,1.933-1.934A1.944,1.944,0,0,1,824.17,403.06Z" transform="translate(-484 -353.91)"/>
  </g>
</svg>
