<svg id="Layer_1" data-name="Layer 1" xmlns="http://www.w3.org/2000/svg" viewBox="0 0 396.848 150.637">
  <defs>
    <style>
      .cls-1 {
        fill: #1d1d1b;
      }

      .cls-2, .cls-3, .cls-4, .cls-5, .cls-6, .cls-7 {
        fill: none;
        stroke-miterlimit: 10;
      }

      .cls-2, .cls-4, .cls-5, .cls-6, .cls-7 {
        stroke: #000;
        stroke-width: 0.85px;
      }

      .cls-3 {
        stroke: red;
        stroke-width: 1.701px;
      }

      .cls-4, .cls-5, .cls-6, .cls-7 {
        stroke-linecap: round;
      }

      .cls-4 {
        stroke-dasharray: 0 3.66;
      }

      .cls-5 {
        stroke-dasharray: 0 3.685;
      }

      .cls-6 {
        stroke-dasharray: 0 3.723;
      }

      .cls-7 {
        stroke-dasharray: 0 3.788;
      }
    </style>
  </defs>
  <title>3pointaverage</title>
  <g>
    <g>
      <path class="cls-1" d="M616.441,439.515a2.033,2.033,0,0,1-2.123,1.923,1.817,1.817,0,0,1-2.012-1.564.558.558,0,1,1,1.116-.02.545.545,0,0,1-.658.547,1.814,1.814,0,0,0,1.525.758c.438,0,1.126-.289,1.126-1.644,0-.977-.369-1.654-1.186-1.654h-.438c-.17,0-.24,0-.24-.11s.07-.109.15-.119.309-.021.388-.03a.966.966,0,0,0,.887-.518,2.489,2.489,0,0,0,.279-1.136c0-.9-.548-1.116-.957-1.116a1.615,1.615,0,0,0-1.325.617c.15,0,.618,0,.618.5a.508.508,0,1,1-1.016-.01c0-.757.757-1.355,1.763-1.355.957,0,1.834.558,1.834,1.375a1.8,1.8,0,0,0,.269,3.557Z" transform="translate(-436 -309.91)"/>
      <path class="cls-1" d="M617.038,439.355v-.578h2.64v.578Z" transform="translate(-436 -309.91)"/>
    </g>
    <g>
      <path class="cls-1" d="M623.4,436.814a2.181,2.181,0,0,1,2.082,2.252,2.246,2.246,0,0,1-2.222,2.262,1.355,1.355,0,0,1-1.226-.7V442.4c0,.448.11.448.778.448v.308c-.349-.009-.857-.029-1.126-.029s-.778.02-1.117.029v-.308c.668,0,.778,0,.778-.448v-4.664c0-.438-.07-.5-.778-.5v-.309l1.436-.11v.659A1.791,1.791,0,0,1,623.4,436.814Zm-1.226,3.687a1.24,1.24,0,0,0,1.046.608c.738,0,1.435-.837,1.435-2.043,0-1.126-.608-2-1.335-2a1.5,1.5,0,0,0-1.286.8v2.222A.52.52,0,0,0,622.169,440.5Z" transform="translate(-436 -309.91)"/>
      <path class="cls-1" d="M628.525,441.328a2.223,2.223,0,0,1-2.2-2.241,2.21,2.21,0,1,1,4.414,0A2.22,2.22,0,0,1,628.525,441.328Zm1.166-.986a3.031,3.031,0,0,0,.219-1.335,2.734,2.734,0,0,0-.259-1.385,1.305,1.305,0,0,0-1.126-.648,1.338,1.338,0,0,0-1.136.668,2.856,2.856,0,0,0-.239,1.365,2.967,2.967,0,0,0,.249,1.4,1.3,1.3,0,0,0,1.136.667A1.286,1.286,0,0,0,629.691,440.342Z" transform="translate(-436 -309.91)"/>
    </g>
    <g>
      <path class="cls-1" d="M632.846,440.472c0,.388.04.438.7.438v.309c-.338-.01-.687-.031-1.036-.031-.239,0-.777.021-1.1.031v-.309c.668,0,.777,0,.777-.448v-2.681c0-.488-.089-.548-.737-.548v-.309l1.395-.11Zm-.488-4.863a.531.531,0,0,1-.528-.528.538.538,0,0,1,.528-.528.528.528,0,0,1,0,1.056Z" transform="translate(-436 -309.91)"/>
      <path class="cls-1" d="M634.161,437.233v-.309l1.405-.11v1.047a1.571,1.571,0,0,1,1.475-1.047,1.324,1.324,0,0,1,1.046.37c.309.358.309.667.309,1.524v1.9c.01.3.259.3.777.3v.309c-.339-.01-.857-.031-1.116-.031s-.777.021-1.126.031v-.309c.668,0,.777,0,.777-.448V438.14c0-.568-.109-1.106-.737-1.106a1.456,1.456,0,0,0-1.346,1.594v1.834c0,.448.111.448.778.448v.309c-.339-.01-.857-.031-1.116-.031s-.777.021-1.126.031v-.309c.668,0,.777,0,.777-.448v-2.671C634.938,437.3,634.859,437.233,634.161,437.233Z" transform="translate(-436 -309.91)"/>
    </g>
    <path class="cls-1" d="M640.853,440c0,.17,0,1.076.668,1.076.368,0,.667-.379.667-1.116v-.548h.249v.568c0,.638-.278,1.345-.986,1.345a1.2,1.2,0,0,1-1.285-1.345v-2.75h-.847v-.219c.976-.04,1.275-1.106,1.285-1.923h.249v1.833h1.425v.309h-1.425Z" transform="translate(-436 -309.91)"/>
    <g>
      <path class="cls-1" d="M608.744,455.492c-.628,0-1.6-.249-1.6-1.055a1.451,1.451,0,0,1,1-1.3,4.866,4.866,0,0,1,1.833-.359v-.369a1.128,1.128,0,0,0-1.056-1.275,1.4,1.4,0,0,0-1.076.459.451.451,0,0,1,.508.458.459.459,0,1,1-.917-.01c0-.657.688-1.126,1.5-1.126a1.9,1.9,0,0,1,1.365.548,1.474,1.474,0,0,1,.359,1.176v1.993c0,.05.04.5.369.5.109,0,.358-.06.358-.638v-.558h.249v.558a.845.845,0,0,1-.817.946.834.834,0,0,1-.777-.816A1.378,1.378,0,0,1,608.744,455.492Zm-.827-1.066a.857.857,0,0,0,.9.847,1.2,1.2,0,0,0,1.166-1.285v-1C608.335,453.051,607.917,453.878,607.917,454.426Z" transform="translate(-436 -309.91)"/>
      <path class="cls-1" d="M614.373,455.3c-.04.1-.08.189-.21.189s-.149-.05-.209-.189l-1.435-3.537c-.129-.309-.169-.369-.8-.369v-.309c.3.02.7.03.966.03.229,0,.788-.019,1.086-.03v.309c-.179,0-.567,0-.567.259,0,.02,0,.04.06.169l1.115,2.78,1.017-2.541a.608.608,0,0,0,.059-.239c0-.188-.109-.418-.478-.428v-.309c.169.011.628.03.867.03s.518-.01.747-.03v.309a.9.9,0,0,0-.916.667Z" transform="translate(-436 -309.91)"/>
    </g>
    <g>
      <path class="cls-1" d="M617.972,454.576a1.343,1.343,0,0,0,1.126.667,1.4,1.4,0,0,0,1.345-1.026c.02-.079.04-.14.129-.14a.117.117,0,0,1,.13.12,1.7,1.7,0,0,1-1.664,1.3,2.249,2.249,0,0,1-2.192-2.3,2.177,2.177,0,0,1,2.072-2.271,1.768,1.768,0,0,1,1.784,1.953c0,.209-.03.209-.249.209h-2.78A2.9,2.9,0,0,0,617.972,454.576Zm2.072-1.7c0-.389-.1-1.734-1.126-1.734-.338,0-1.175.25-1.235,1.734Z" transform="translate(-436 -309.91)"/>
      <path class="cls-1" d="M623.91,450.979a.68.68,0,0,1,.737.608.419.419,0,0,1-.429.438.413.413,0,0,1-.428-.428.432.432,0,0,1,.229-.389.25.25,0,0,0-.109-.01c-.758,0-1.176.887-1.176,1.873v1.534c0,.359.02.469.757.469h.209v.309c-.4-.03-.867-.03-1.265-.03-.279,0-.747.02-1.136.03v-.309c.668,0,.777,0,.777-.448v-2.671c0-.488-.079-.558-.777-.558v-.309l1.385-.109v1.1A1.4,1.4,0,0,1,623.91,450.979Z" transform="translate(-436 -309.91)"/>
      <path class="cls-1" d="M626.958,455.492c-.628,0-1.594-.249-1.594-1.055a1.451,1.451,0,0,1,1-1.3,4.873,4.873,0,0,1,1.833-.359v-.369a1.128,1.128,0,0,0-1.056-1.275,1.4,1.4,0,0,0-1.076.459.451.451,0,0,1,.508.458.458.458,0,1,1-.916-.01c0-.657.687-1.126,1.5-1.126a1.9,1.9,0,0,1,1.365.548,1.474,1.474,0,0,1,.359,1.176v1.993c0,.05.04.5.369.5.109,0,.358-.06.358-.638v-.558h.249v.558a.845.845,0,0,1-.816.946.834.834,0,0,1-.778-.816A1.377,1.377,0,0,1,626.958,455.492Zm-.827-1.066a.858.858,0,0,0,.9.847,1.2,1.2,0,0,0,1.165-1.285v-1C626.549,453.051,626.131,453.878,626.131,454.426Z" transform="translate(-436 -309.91)"/>
      <path class="cls-1" d="M631.541,454.726c.069.009.5.009.747.009a3.541,3.541,0,0,1,1.714.279,1.276,1.276,0,0,1,.648,1.136c0,.777-1.037,1.286-2.212,1.286-1.216,0-2.2-.548-2.2-1.266a1.123,1.123,0,0,1,.917-1,1.062,1.062,0,0,1-.438-.887,1.316,1.316,0,0,0-.16-1.853,1.542,1.542,0,0,1,1.614-1.455,1.663,1.663,0,0,1,1.057.359,1.533,1.533,0,0,1,1.056-.469.489.489,0,0,1,.509.488.288.288,0,0,1-.29.3.283.283,0,0,1-.289-.289.265.265,0,0,1,.16-.268.342.342,0,0,0-.1-.011,1.31,1.31,0,0,0-.9.389,1.342,1.342,0,0,1,.409.966,1.542,1.542,0,0,1-1.615,1.455,1.7,1.7,0,0,1-.986-.309.737.737,0,0,0-.169.469A.651.651,0,0,0,631.541,454.726Zm2.59,1.444c0-.857-1.115-.857-1.972-.857h-.588a.878.878,0,0,0-.818.857c0,.528.688,1.036,1.695,1.036C633.424,457.206,634.131,456.708,634.131,456.17Zm-1.255-2.9a1.645,1.645,0,0,0,.16-.837c0-.23,0-1.226-.868-1.226a.863.863,0,0,0-.707.4,1.642,1.642,0,0,0-.159.837c0,.23,0,1.226.866,1.226A.863.863,0,0,0,632.876,453.271Z" transform="translate(-436 -309.91)"/>
      <path class="cls-1" d="M636.731,454.636c0,.388.04.438.7.438v.309c-.339-.01-.687-.03-1.036-.03-.239,0-.777.02-1.1.03v-.309c.667,0,.778,0,.778-.448v-2.681c0-.488-.09-.548-.738-.548v-.309l1.395-.109Zm-.488-4.863a.532.532,0,0,1-.529-.528.539.539,0,0,1,.529-.528.528.528,0,1,1,0,1.056Z" transform="translate(-436 -309.91)"/>
      <path class="cls-1" d="M638.077,451.4v-.309l1.4-.109v1.046a1.57,1.57,0,0,1,1.475-1.046,1.325,1.325,0,0,1,1.046.369c.309.358.309.667.309,1.524v1.9c.01.3.259.3.777.3v.309c-.338-.01-.857-.03-1.116-.03s-.777.02-1.126.03v-.309c.668,0,.778,0,.778-.448V452.3c0-.568-.11-1.106-.738-1.106a1.455,1.455,0,0,0-1.345,1.594v1.834c0,.448.11.448.777.448v.309c-.339-.01-.857-.03-1.116-.03s-.777.02-1.125.03v-.309c.667,0,.776,0,.776-.448v-2.671C638.853,451.467,638.774,451.4,638.077,451.4Z" transform="translate(-436 -309.91)"/>
      <path class="cls-1" d="M644.9,454.726c.07.009.5.009.748.009a3.539,3.539,0,0,1,1.713.279,1.274,1.274,0,0,1,.648,1.136c0,.777-1.036,1.286-2.212,1.286-1.215,0-2.2-.548-2.2-1.266a1.123,1.123,0,0,1,.916-1,1.064,1.064,0,0,1-.438-.887,1.315,1.315,0,0,0-.159-1.853,1.541,1.541,0,0,1,1.614-1.455,1.659,1.659,0,0,1,1.056.359,1.533,1.533,0,0,1,1.056-.469.488.488,0,0,1,.509.488.288.288,0,0,1-.289.3.282.282,0,0,1-.289-.289.266.266,0,0,1,.159-.268.342.342,0,0,0-.1-.011,1.307,1.307,0,0,0-.9.389,1.346,1.346,0,0,1,.408.966,1.541,1.541,0,0,1-1.614,1.455,1.694,1.694,0,0,1-.986-.309.737.737,0,0,0-.169.469A.651.651,0,0,0,644.9,454.726Zm2.591,1.444c0-.857-1.116-.857-1.973-.857h-.588a.878.878,0,0,0-.817.857c0,.528.687,1.036,1.694,1.036C646.784,457.206,647.491,456.708,647.491,456.17Zm-1.255-2.9a1.644,1.644,0,0,0,.159-.837c0-.23,0-1.226-.867-1.226a.86.86,0,0,0-.707.4,1.632,1.632,0,0,0-.16.837c0,.23,0,1.226.867,1.226A.865.865,0,0,0,646.236,453.271Z" transform="translate(-436 -309.91)"/>
    </g>
    <polygon class="cls-2" points="162.991 136.038 162.991 121.865 219.684 121.865 219.684 150.211 162.991 150.211 162.991 136.038"/>
    <polyline points="158.456 138.306 162.991 136.038 158.456 133.771 159.59 136.038"/>
    <line class="cls-2" x1="99.212" y1="136.038" x2="159.59" y2="136.038"/>
    <polyline points="300.187 138.306 304.723 136.038 300.187 133.771 301.321 136.038"/>
    <line class="cls-2" x1="219.684" y1="136.038" x2="301.321" y2="136.038"/>
    <polyline points="151.369 106.416 155.905 104.149 151.369 101.881 152.503 104.149"/>
    <line class="cls-2" y1="104.149" x2="152.503" y2="104.149"/>
    <g>
      <path class="cls-1" d="M446.161,422.559v-.579h2.64v.579Z" transform="translate(-436 -309.91)"/>
      <path class="cls-1" d="M452.468,423.654a.8.8,0,0,0,1.165-.966h.249l-.278,1.734h-3.7c0-.239,0-.259.11-.369l1.913-2.132a3.57,3.57,0,0,0,1.046-2.2c0-.818-.429-1.624-1.335-1.624a1.439,1.439,0,0,0-1.346,1.016.421.421,0,0,1,.13-.009.5.5,0,0,1,.528.517.524.524,0,1,1-1.046-.03,1.84,1.84,0,0,1,1.863-1.8,1.957,1.957,0,0,1,2.112,1.933c0,1-.6,1.534-2.152,2.909l-1.056,1.026Z" transform="translate(-436 -309.91)"/>
    </g>
    <g>
      <path class="cls-1" d="M460.317,422.559v-.579h2.641v.579Z" transform="translate(-436 -309.91)"/>
      <path class="cls-1" d="M466.494,423.635c0,.368.03.478.927.478h.319v.309c-.349-.03-1.216-.03-1.615-.03s-1.265,0-1.613.03v-.309h.319c.9,0,.926-.12.926-.478v-5.161a2.994,2.994,0,0,1-1.305.258v-.308a2.46,2.46,0,0,0,1.813-.638c.229,0,.229.02.229.259Z" transform="translate(-436 -309.91)"/>
    </g>
    <g>
      <path class="cls-1" d="M480.258,423.485a1.863,1.863,0,0,1-3.378.15,5.056,5.056,0,0,1-.448-2.4,5.324,5.324,0,0,1,.369-2.261,1.826,1.826,0,0,1,1.734-1.186,1.848,1.848,0,0,1,1.694,1.115,7.043,7.043,0,0,1,.029,4.584Zm-.568-.308a19.167,19.167,0,0,0,.01-4.006c-.189-.986-.846-1.166-1.176-1.166-.249,0-1,.09-1.185,1.275a13.331,13.331,0,0,0-.08,1.834,13.528,13.528,0,0,0,.11,2.1c.179.957.767,1.206,1.155,1.206C478.973,424.422,479.541,424.123,479.69,423.177Z" transform="translate(-436 -309.91)"/>
      <path class="cls-1" d="M493.129,423.635c0,.368.031.478.927.478h.319v.309c-.349-.03-1.215-.03-1.614-.03s-1.265,0-1.614.03v-.309h.319c.9,0,.926-.12.926-.478v-5.161a2.994,2.994,0,0,1-1.305.258v-.308a2.459,2.459,0,0,0,1.813-.638c.229,0,.229.02.229.259Z" transform="translate(-436 -309.91)"/>
      <path class="cls-1" d="M507.417,423.654a3.272,3.272,0,0,0,.946-.079,3.307,3.307,0,0,0,.219-.887h.249l-.279,1.734h-3.7c0-.239,0-.259.11-.369l1.913-2.132a3.57,3.57,0,0,0,1.046-2.2c0-.818-.428-1.624-1.335-1.624a1.437,1.437,0,0,0-1.345,1.016.421.421,0,0,1,.13-.009.5.5,0,0,1,.528.517.524.524,0,1,1-1.047-.03,1.841,1.841,0,0,1,1.864-1.8,1.957,1.957,0,0,1,2.112,1.933c0,1-.6,1.534-2.152,2.909l-1.056,1.026Z" transform="translate(-436 -309.91)"/>
      <path class="cls-1" d="M523.068,422.718a2.033,2.033,0,0,1-2.123,1.923,1.817,1.817,0,0,1-2.012-1.564.558.558,0,1,1,1.116-.02.545.545,0,0,1-.658.547,1.814,1.814,0,0,0,1.525.758c.438,0,1.126-.289,1.126-1.644,0-.977-.369-1.654-1.187-1.654h-.438c-.169,0-.239,0-.239-.11s.07-.109.15-.119.309-.021.388-.03a.966.966,0,0,0,.887-.518,2.487,2.487,0,0,0,.279-1.136c0-.9-.548-1.116-.957-1.116a1.615,1.615,0,0,0-1.325.617c.15,0,.618,0,.618.5a.508.508,0,1,1-1.016-.01c0-.757.757-1.355,1.763-1.355.957,0,1.834.558,1.834,1.375a1.8,1.8,0,0,0,.269,3.557Z" transform="translate(-436 -309.91)"/>
    </g>
    <g>
      <path class="cls-1" d="M533.08,422.777v-.308l3.059-4.673c.08-.12.11-.12.2-.12.16,0,.16.06.16.26v4.533h1v.308h-1v.868c0,.358.02.468.757.468h.209v.309c-.408-.03-.936-.03-1.355-.03s-.936,0-1.345.03v-.309h.21c.737,0,.756-.11.756-.468v-.868Zm2.711-4.025-2.432,3.717h2.432Z" transform="translate(-436 -309.91)"/>
      <path class="cls-1" d="M549.26,424.641a1.83,1.83,0,0,1-1.8-1.824.495.495,0,1,1,.488.449.449.449,0,0,1-.169-.02,1.552,1.552,0,0,0,1.465,1.116,1.245,1.245,0,0,0,1.066-.647,2.9,2.9,0,0,0,.239-1.365,3.077,3.077,0,0,0-.179-1.256.974.974,0,0,0-.847-.638,1.5,1.5,0,0,0-1.286.7c-.04.061-.059.09-.129.09-.14,0-.14-.079-.14-.259v-2.949c0-.159,0-.239.1-.239a.3.3,0,0,1,.12.03,3.233,3.233,0,0,0,1.325.278,3.291,3.291,0,0,0,1.355-.289.15.15,0,0,1,.08-.029.1.1,0,0,1,.1.11,2.173,2.173,0,0,1-1.923,1.036,3.15,3.15,0,0,1-.847-.13v1.943a1.753,1.753,0,0,1,1.266-.508,2.045,2.045,0,0,1,1.893,2.182A2.2,2.2,0,0,1,549.26,424.641Z" transform="translate(-436 -309.91)"/>
      <path class="cls-1" d="M563.676,420.167a2.09,2.09,0,0,1,1.993,2.223,2.132,2.132,0,0,1-2.053,2.251c-.927,0-2.082-.707-2.082-3.368,0-2.2,1.345-3.487,2.62-3.487.827,0,1.265.478,1.265,1.076a.458.458,0,1,1-.916.02c0-.448.4-.448.548-.448a1.028,1.028,0,0,0-.877-.4c-.508,0-1.743.359-1.743,2.879v.239A1.378,1.378,0,0,1,563.676,420.167Zm.927,3.548a3.338,3.338,0,0,0,.169-1.336,3.3,3.3,0,0,0-.179-1.364.961.961,0,0,0-.927-.619c-.9,0-1.216,1-1.216,1.774a4.849,4.849,0,0,0,.18,1.445,1.143,1.143,0,0,0,.986.747A1.042,1.042,0,0,0,564.6,423.715Z" transform="translate(-436 -309.91)"/>
    </g>
    <path class="cls-1" d="M563.621,415.7a1.933,1.933,0,1,1,1.932-1.933A1.944,1.944,0,0,1,563.621,415.7Z" transform="translate(-436 -309.91)"/>
    <path class="cls-1" d="M535.3,387.38a1.933,1.933,0,1,1,1.933-1.934A1.944,1.944,0,0,1,535.3,387.38Z" transform="translate(-436 -309.91)"/>
    <g>
      <path class="cls-1" d="M549.457,415.7a1.933,1.933,0,1,1,1.932-1.933A1.944,1.944,0,0,1,549.457,415.7Z" transform="translate(-436 -309.91)"/>
      <path class="cls-1" d="M577.78,415.7a1.933,1.933,0,1,1,1.933-1.933A1.944,1.944,0,0,1,577.78,415.7Z" transform="translate(-436 -309.91)"/>
    </g>
    <polyline points="44.787 9.472 42.519 4.937 40.252 9.472 42.519 8.338"/>
    <line class="cls-2" x1="42.519" y1="107.692" x2="42.519" y2="8.338"/>
    <path class="cls-1" d="M478.542,387.38a1.933,1.933,0,1,1,1.933-1.934A1.944,1.944,0,0,1,478.542,387.38Z" transform="translate(-436 -309.91)"/>
    <g>
      <path class="cls-1" d="M450.222,415.7a1.933,1.933,0,1,1,1.933-1.933A1.944,1.944,0,0,1,450.222,415.7Z" transform="translate(-436 -309.91)"/>
      <path class="cls-1" d="M464.379,415.7a1.933,1.933,0,1,1,1.933-1.933A1.944,1.944,0,0,1,464.379,415.7Z" transform="translate(-436 -309.91)"/>
    </g>
    <path class="cls-1" d="M521.019,359.06a1.933,1.933,0,1,1,1.933-1.934A1.944,1.944,0,0,1,521.019,359.06Z" transform="translate(-436 -309.91)"/>
    <path class="cls-1" d="M492.7,359.06a1.933,1.933,0,1,1,1.932-1.934A1.945,1.945,0,0,1,492.7,359.06Z" transform="translate(-436 -309.91)"/>
    <path class="cls-1" d="M506.863,330.739a1.933,1.933,0,1,1,1.932-1.933A1.944,1.944,0,0,1,506.863,330.739Z" transform="translate(-436 -309.91)"/>
    <path class="cls-2" d="M474.976,399.886h7.087m-7.087-14.173h7.087m-7.087-14.174h7.087m-7.087-14.173h7.087m-7.087-14.173h7.087m-7.087-14.173h7.087" transform="translate(-436 -309.91)"/>
    <path class="cls-3" d="M478.519,414.059V385.713m14.174,28.346V357.366m14.173,56.693V329.02m14.173,85.039V357.366m14.173,56.693V385.713" transform="translate(-436 -309.91)"/>
    <path class="cls-1" d="M583.342,420.454a3.175,3.175,0,0,0,.159-.837c0-.329-.109-.458-.309-.458-.358,0-.558.478-.727,1.186-.06.218-.069.229-.169.229-.02,0-.12,0-.12-.1a4.983,4.983,0,0,1,.3-.967.87.87,0,0,1,.747-.569.9.9,0,0,1,.917.868,1.926,1.926,0,0,1,1.554-.868,1.018,1.018,0,0,1,1.146,1.067,8.937,8.937,0,0,1-.608,2.192,1.911,1.911,0,0,0-.179.707c0,.23.07.329.24.329.487,0,.816-.558,1.016-1.235.049-.149.049-.18.149-.18.03,0,.12,0,.12.1,0,.08-.369,1.534-1.306,1.534a.8.8,0,0,1-.817-.816,1.13,1.13,0,0,1,.1-.459,9.494,9.494,0,0,0,.648-2.322c0-.329-.09-.7-.538-.7a1.98,1.98,0,0,0-1.624,1.215c-.011.04-.09.329-.13.5-.05.229-.11.448-.169.667l-.22.9c-.06.249-.179.716-.189.737a.407.407,0,0,1-.369.278.267.267,0,0,1-.289-.268c0-.05.06-.28.09-.429Z" transform="translate(-436 -309.91)"/>
    <path class="cls-1" d="M468.418,402.275c0,.369.03.479.927.479h.319v.309c-.349-.031-1.216-.031-1.615-.031s-1.265,0-1.613.031v-.309h.318c.9,0,.927-.12.927-.479v-5.161a2.986,2.986,0,0,1-1.306.259v-.309a2.465,2.465,0,0,0,1.814-.637c.229,0,.229.019.229.259Z" transform="translate(-436 -309.91)"/>
    <path class="cls-1" d="M468.548,388.139a.8.8,0,0,0,1.165-.966h.249l-.278,1.733h-3.7c0-.239,0-.259.11-.369l1.913-2.132a3.57,3.57,0,0,0,1.046-2.2c0-.816-.429-1.623-1.335-1.623a1.438,1.438,0,0,0-1.346,1.016.381.381,0,0,1,.13-.01.5.5,0,0,1,.528.518.524.524,0,1,1-1.046-.03,1.841,1.841,0,0,1,1.863-1.8,1.957,1.957,0,0,1,2.112,1.932c0,1-.6,1.534-2.151,2.909l-1.057,1.027Z" transform="translate(-436 -309.91)"/>
    <path class="cls-1" d="M470.042,373.047a2.032,2.032,0,0,1-2.122,1.923,1.818,1.818,0,0,1-2.013-1.565.558.558,0,1,1,1.116-.02.546.546,0,0,1-.657.549,1.813,1.813,0,0,0,1.524.757c.439,0,1.126-.289,1.126-1.644,0-.977-.369-1.654-1.186-1.654h-.438c-.169,0-.239,0-.239-.11s.07-.11.149-.119.309-.02.389-.03a.966.966,0,0,0,.887-.519,2.5,2.5,0,0,0,.278-1.136c0-.9-.547-1.115-.956-1.115a1.615,1.615,0,0,0-1.325.617c.149,0,.617,0,.617.5a.508.508,0,1,1-1.016-.009c0-.758.758-1.356,1.764-1.356.956,0,1.833.558,1.833,1.376a1.918,1.918,0,0,1-1.4,1.753A1.922,1.922,0,0,1,470.042,373.047Z" transform="translate(-436 -309.91)"/>
    <path class="cls-1" d="M465.768,358.942v-.309l3.059-4.673c.079-.119.11-.119.2-.119.16,0,.16.059.16.259v4.533h1v.309h-1v.867c0,.359.02.468.757.468h.209v.309c-.409-.029-.937-.029-1.355-.029s-.937,0-1.345.029v-.309h.209c.737,0,.757-.109.757-.468v-.867Zm2.71-4.025-2.431,3.716h2.431Z" transform="translate(-436 -309.91)"/>
    <path class="cls-1" d="M467.791,346.642a1.829,1.829,0,0,1-1.8-1.824.456.456,0,1,1,.319.429,1.553,1.553,0,0,0,1.465,1.116,1.243,1.243,0,0,0,1.065-.648,2.887,2.887,0,0,0,.24-1.365,3.059,3.059,0,0,0-.18-1.256.972.972,0,0,0-.847-.637,1.5,1.5,0,0,0-1.285.7c-.04.06-.059.09-.129.09-.14,0-.14-.08-.14-.259v-2.949c0-.16,0-.24.1-.24a.293.293,0,0,1,.119.03,3.227,3.227,0,0,0,1.326.279,3.3,3.3,0,0,0,1.355-.289.142.142,0,0,1,.079-.03.1.1,0,0,1,.1.11,2.174,2.174,0,0,1-1.923,1.036,3.188,3.188,0,0,1-.847-.129v1.943a1.752,1.752,0,0,1,1.265-.509,2.044,2.044,0,0,1,1.893,2.182A2.2,2.2,0,0,1,467.791,346.642Z" transform="translate(-436 -309.91)"/>
    <path class="cls-1" d="M468.049,328.012a2.088,2.088,0,0,1,1.993,2.221,2.131,2.131,0,0,1-2.052,2.252c-.927,0-2.083-.707-2.083-3.367,0-2.2,1.345-3.488,2.621-3.488.827,0,1.265.478,1.265,1.076a.459.459,0,1,1-.917.02c0-.448.4-.448.548-.448a1.025,1.025,0,0,0-.876-.4c-.508,0-1.744.359-1.744,2.88V329A1.377,1.377,0,0,1,468.049,328.012Zm.927,3.547a5.3,5.3,0,0,0-.01-2.7.961.961,0,0,0-.926-.617c-.9,0-1.216,1-1.216,1.773a4.872,4.872,0,0,0,.179,1.445,1.148,1.148,0,0,0,.987.748A1.042,1.042,0,0,0,468.976,331.559Z" transform="translate(-436 -309.91)"/>
    <path class="cls-1" d="M487.08,315.739a3.877,3.877,0,0,0-.17.877c0,.339.159.658.548.658.319,0,1-.239,1.325-1.306.02-.07.04-.109.13-.109.03,0,.12,0,.12.1,0,.25-.569,1.535-1.6,1.535a1.1,1.1,0,0,1-1.076-.757,1.325,1.325,0,0,1-1.046.757c-.439,0-.937-.2-.937-.658a.567.567,0,0,1,.548-.578.342.342,0,0,1,.369.349.565.565,0,0,1-.468.538.954.954,0,0,0,.5.13c.438,0,.787-.419.946-1.037a14.529,14.529,0,0,0,.539-2.371c0-.578-.349-.668-.539-.668-.338,0-1,.25-1.334,1.306-.021.089-.051.109-.13.109-.02,0-.12,0-.12-.1,0-.249.568-1.535,1.6-1.535a1.1,1.1,0,0,1,1.077.757,1.287,1.287,0,0,1,1.046-.757c.338,0,.926.14.926.658a.556.556,0,0,1-.538.578.347.347,0,0,1-.378-.349.579.579,0,0,1,.478-.538.974.974,0,0,0-.5-.13c-.7,0-.927.917-.987,1.176Z" transform="translate(-436 -309.91)"/>
    <path class="cls-1" d="M490.907,319.875V309.91h1.365v.4h-.967v9.167h.967v.4Z" transform="translate(-436 -309.91)"/>
    <path class="cls-1" d="M493.943,314.494a3.2,3.2,0,0,0,.16-.837c0-.329-.11-.459-.309-.459-.358,0-.558.479-.727,1.186-.06.22-.07.229-.17.229-.02,0-.119,0-.119-.1a4.983,4.983,0,0,1,.3-.967.87.87,0,0,1,.747-.568.9.9,0,0,1,.917.867,1.924,1.924,0,0,1,1.554-.867,1.019,1.019,0,0,1,1.146,1.066,8.982,8.982,0,0,1-.608,2.192,1.9,1.9,0,0,0-.179.708c0,.229.07.329.239.329.488,0,.817-.558,1.016-1.236.05-.149.05-.179.15-.179.029,0,.119,0,.119.1,0,.08-.368,1.535-1.305,1.535a.8.8,0,0,1-.817-.817,1.136,1.136,0,0,1,.1-.459,9.5,9.5,0,0,0,.647-2.321c0-.329-.09-.7-.538-.7a1.983,1.983,0,0,0-1.624,1.216c-.01.04-.09.329-.13.5-.05.23-.109.449-.169.668l-.219.9c-.06.249-.18.717-.189.737a.408.408,0,0,1-.369.279.267.267,0,0,1-.289-.269c0-.05.06-.279.09-.429Z" transform="translate(-436 -309.91)"/>
    <path class="cls-1" d="M500.073,319.875h-1.365v-.4h.966v-9.167h-.966v-.4h1.365Z" transform="translate(-436 -309.91)"/>
    <polyline points="392.313 106.416 396.848 104.149 392.313 101.881 393.447 104.149"/>
    <line class="cls-2" x1="226.77" y1="104.149" x2="393.447" y2="104.149"/>
    <g>
      <path class="cls-1" d="M672.958,422.559v-.579h2.64v.579Z" transform="translate(-436 -309.91)"/>
      <path class="cls-1" d="M679.264,423.654a.8.8,0,0,0,1.166-.966h.249l-.278,1.734h-3.7c0-.239,0-.259.109-.369l1.913-2.132a3.566,3.566,0,0,0,1.047-2.2c0-.818-.429-1.624-1.335-1.624a1.439,1.439,0,0,0-1.346,1.016.425.425,0,0,1,.13-.009.5.5,0,0,1,.528.517.524.524,0,1,1-1.046-.03,1.84,1.84,0,0,1,1.863-1.8,1.957,1.957,0,0,1,2.112,1.933c0,1-.6,1.534-2.152,2.909l-1.056,1.026Z" transform="translate(-436 -309.91)"/>
    </g>
    <g>
      <path class="cls-1" d="M687.113,422.559v-.579h2.641v.579Z" transform="translate(-436 -309.91)"/>
      <path class="cls-1" d="M693.291,423.635c0,.368.029.478.927.478h.318v.309c-.348-.03-1.216-.03-1.614-.03s-1.266,0-1.614.03v-.309h.319c.9,0,.927-.12.927-.478v-5.161a3,3,0,0,1-1.306.258v-.308a2.464,2.464,0,0,0,1.814-.638c.229,0,.229.02.229.259Z" transform="translate(-436 -309.91)"/>
    </g>
    <g>
      <path class="cls-1" d="M707.063,423.485a1.863,1.863,0,0,1-3.378.15,5.045,5.045,0,0,1-.449-2.4,5.339,5.339,0,0,1,.368-2.261,1.853,1.853,0,0,1,3.428-.071,7.044,7.044,0,0,1,.031,4.584Zm-.569-.308a19.262,19.262,0,0,0,.011-4.006c-.19-.986-.848-1.166-1.176-1.166-.249,0-1,.09-1.186,1.275a13.331,13.331,0,0,0-.08,1.834,13.528,13.528,0,0,0,.11,2.1c.18.957.767,1.206,1.156,1.206C705.777,424.422,706.345,424.123,706.494,423.177Z" transform="translate(-436 -309.91)"/>
      <path class="cls-1" d="M719.935,423.635c0,.368.029.478.926.478h.319v.309c-.349-.03-1.216-.03-1.615-.03s-1.265,0-1.614.03v-.309h.32c.9,0,.926-.12.926-.478v-5.161a2.994,2.994,0,0,1-1.3.258v-.308a2.46,2.46,0,0,0,1.813-.638c.23,0,.23.02.23.259Z" transform="translate(-436 -309.91)"/>
      <path class="cls-1" d="M734.22,423.654a.8.8,0,0,0,1.166-.966h.249l-.279,1.734h-3.7c0-.239,0-.259.11-.369l1.913-2.132a3.571,3.571,0,0,0,1.047-2.2c0-.818-.429-1.624-1.336-1.624a1.437,1.437,0,0,0-1.345,1.016.421.421,0,0,1,.13-.009.5.5,0,0,1,.527.517.524.524,0,1,1-1.046-.03,1.84,1.84,0,0,1,1.863-1.8,1.958,1.958,0,0,1,2.113,1.933c0,1-.6,1.534-2.153,2.909l-1.055,1.026Z" transform="translate(-436 -309.91)"/>
      <path class="cls-1" d="M749.872,422.718a2.033,2.033,0,0,1-2.122,1.923,1.817,1.817,0,0,1-2.013-1.564.558.558,0,1,1,1.116-.02.545.545,0,0,1-.658.547,1.814,1.814,0,0,0,1.525.758c.438,0,1.126-.289,1.126-1.644,0-.977-.369-1.654-1.186-1.654h-.438c-.17,0-.24,0-.24-.11s.07-.109.15-.119.308-.021.389-.03a.965.965,0,0,0,.886-.518,2.492,2.492,0,0,0,.28-1.136c0-.9-.549-1.116-.958-1.116a1.615,1.615,0,0,0-1.325.617c.15,0,.618,0,.618.5a.508.508,0,1,1-1.016-.01c0-.757.757-1.355,1.764-1.355.956,0,1.833.558,1.833,1.375a1.8,1.8,0,0,0,.269,3.557Z" transform="translate(-436 -309.91)"/>
      <path class="cls-1" d="M759.755,422.777v-.308l3.058-4.673c.081-.12.11-.12.2-.12.159,0,.159.06.159.26v4.533h1v.308h-1v.868c0,.358.02.468.758.468h.209v.309c-.409-.03-.937-.03-1.356-.03s-.936,0-1.345.03v-.309h.209c.738,0,.758-.11.758-.468v-.868Zm2.71-4.025-2.432,3.717h2.432Z" transform="translate(-436 -309.91)"/>
      <path class="cls-1" d="M775.934,424.641a1.829,1.829,0,0,1-1.8-1.824.494.494,0,1,1,.488.449.449.449,0,0,1-.169-.02,1.553,1.553,0,0,0,1.465,1.116,1.244,1.244,0,0,0,1.065-.647,2.889,2.889,0,0,0,.24-1.365,3.059,3.059,0,0,0-.18-1.256.971.971,0,0,0-.847-.638,1.5,1.5,0,0,0-1.285.7c-.04.061-.059.09-.13.09-.138,0-.138-.079-.138-.259v-2.949c0-.159,0-.239.1-.239a.3.3,0,0,1,.119.03,3.241,3.241,0,0,0,1.326.278,3.287,3.287,0,0,0,1.355-.289.148.148,0,0,1,.079-.029.1.1,0,0,1,.1.11,2.173,2.173,0,0,1-1.923,1.036,3.15,3.15,0,0,1-.847-.13v1.943a1.752,1.752,0,0,1,1.266-.508,2.044,2.044,0,0,1,1.892,2.182A2.2,2.2,0,0,1,775.934,424.641Z" transform="translate(-436 -309.91)"/>
    </g>
    <path class="cls-1" d="M790.479,420.167a2.09,2.09,0,0,1,1.993,2.223,2.132,2.132,0,0,1-2.053,2.251c-.927,0-2.082-.707-2.082-3.368,0-2.2,1.345-3.487,2.62-3.487.827,0,1.266.478,1.266,1.076a.459.459,0,1,1-.917.02c0-.448.4-.448.548-.448a1.028,1.028,0,0,0-.877-.4c-.508,0-1.744.359-1.744,2.879v.239A1.379,1.379,0,0,1,790.479,420.167Zm.926,3.548a5.31,5.31,0,0,0-.009-2.7.962.962,0,0,0-.927-.619c-.9,0-1.216,1-1.216,1.774a4.849,4.849,0,0,0,.18,1.445,1.143,1.143,0,0,0,.986.747A1.04,1.04,0,0,0,791.405,423.715Z" transform="translate(-436 -309.91)"/>
    <polyline points="271.558 9.472 269.29 4.937 267.022 9.472 269.29 8.338"/>
    <path class="cls-2" d="M705.29,417.6V318.248m-3.543,67.465h7.086m-7.086-14.174h7.086m-7.086-14.173h7.086m-7.086-14.173h7.086m-7.086-14.173h7.086" transform="translate(-436 -309.91)"/>
    <path class="cls-1" d="M817.225,420.454a3.22,3.22,0,0,0,.159-.837c0-.329-.11-.458-.309-.458-.359,0-.558.478-.727,1.186-.06.218-.071.229-.17.229-.02,0-.119,0-.119-.1a5.031,5.031,0,0,1,.3-.967.87.87,0,0,1,.747-.569.9.9,0,0,1,.917.868,1.924,1.924,0,0,1,1.555-.868,1.019,1.019,0,0,1,1.146,1.067,8.982,8.982,0,0,1-.608,2.192,1.892,1.892,0,0,0-.179.707c0,.23.069.329.239.329.488,0,.816-.558,1.015-1.235.051-.149.051-.18.151-.18.029,0,.119,0,.119.1,0,.08-.369,1.534-1.306,1.534a.8.8,0,0,1-.816-.816,1.13,1.13,0,0,1,.1-.459,9.494,9.494,0,0,0,.647-2.322c0-.329-.09-.7-.538-.7a1.982,1.982,0,0,0-1.624,1.215c-.01.04-.09.329-.13.5-.05.229-.109.448-.169.667l-.22.9c-.059.249-.178.716-.189.737a.405.405,0,0,1-.368.278.266.266,0,0,1-.289-.268c0-.05.059-.28.089-.429Z" transform="translate(-436 -309.91)"/>
    <g>
      <path class="cls-1" d="M796.625,398.1a.8.8,0,0,0,1.166-.966h.249l-.278,1.733h-3.7c0-.239,0-.259.11-.369l1.913-2.132a3.566,3.566,0,0,0,1.047-2.2c0-.817-.429-1.624-1.335-1.624a1.439,1.439,0,0,0-1.346,1.017.381.381,0,0,1,.13-.01.5.5,0,0,1,.527.517.524.524,0,1,1-1.046-.03,1.841,1.841,0,0,1,1.864-1.8,1.957,1.957,0,0,1,2.112,1.933c0,1-.6,1.534-2.152,2.909l-1.056,1.027Z" transform="translate(-436 -309.91)"/>
      <path class="cls-1" d="M799.574,401.159c-.03.1-.07.2-.21.2a.2.2,0,0,1-.2-.2.484.484,0,0,1,.05-.18l3.4-9.385c.03-.1.07-.2.209-.2a.2.2,0,0,1,.2.2.483.483,0,0,1-.049.178Z" transform="translate(-436 -309.91)"/>
      <path class="cls-1" d="M808.2,397.163a2.032,2.032,0,0,1-2.122,1.923,1.817,1.817,0,0,1-2.013-1.564.558.558,0,1,1,1.116-.02.546.546,0,0,1-.658.548,1.814,1.814,0,0,0,1.525.758c.438,0,1.126-.289,1.126-1.645,0-.976-.369-1.653-1.186-1.653h-.438c-.17,0-.239,0-.239-.111s.069-.109.149-.119.309-.02.389-.03a.965.965,0,0,0,.886-.518,2.491,2.491,0,0,0,.28-1.135c0-.9-.549-1.117-.957-1.117a1.614,1.614,0,0,0-1.326.618c.15,0,.619,0,.619.5a.509.509,0,1,1-1.017-.011c0-.757.757-1.355,1.764-1.355.956,0,1.833.558,1.833,1.375a1.8,1.8,0,0,0,.269,3.557Z" transform="translate(-436 -309.91)"/>
    </g>
    <path class="cls-1" d="M695.227,388.139a3.28,3.28,0,0,0,.947-.079,3.317,3.317,0,0,0,.219-.887h.249l-.279,1.733h-3.7c0-.239,0-.259.109-.369l1.913-2.132a3.566,3.566,0,0,0,1.047-2.2c0-.816-.428-1.623-1.335-1.623a1.436,1.436,0,0,0-1.345,1.016.377.377,0,0,1,.13-.01.5.5,0,0,1,.527.518.524.524,0,1,1-1.046-.03,1.841,1.841,0,0,1,1.863-1.8,1.957,1.957,0,0,1,2.113,1.932c0,1-.6,1.534-2.153,2.909l-1.055,1.027Z" transform="translate(-436 -309.91)"/>
    <path class="cls-1" d="M696.722,373.047a2.033,2.033,0,0,1-2.122,1.923,1.817,1.817,0,0,1-2.013-1.565.558.558,0,1,1,1.115-.02.546.546,0,0,1-.657.549,1.815,1.815,0,0,0,1.524.757c.439,0,1.126-.289,1.126-1.644,0-.977-.369-1.654-1.185-1.654h-.439c-.17,0-.239,0-.239-.11s.069-.11.149-.119.309-.02.389-.03a.966.966,0,0,0,.887-.519,2.487,2.487,0,0,0,.279-1.136c0-.9-.549-1.115-.957-1.115a1.615,1.615,0,0,0-1.325.617c.149,0,.618,0,.618.5a.509.509,0,1,1-1.017-.009c0-.758.757-1.356,1.764-1.356.956,0,1.833.558,1.833,1.376a1.917,1.917,0,0,1-1.394,1.753A1.923,1.923,0,0,1,696.722,373.047Z" transform="translate(-436 -309.91)"/>
    <path class="cls-1" d="M692.447,358.942v-.309l3.059-4.673c.08-.119.109-.119.2-.119.159,0,.159.059.159.259v4.533h1v.309h-1v.867c0,.359.021.468.758.468h.209v.309c-.408-.029-.936-.029-1.355-.029s-.937,0-1.345.029v-.309h.209c.737,0,.758-.109.758-.468v-.867Zm2.71-4.025-2.431,3.716h2.431Z" transform="translate(-436 -309.91)"/>
    <g>
      <path class="cls-1" d="M744.3,341.315c0,.369.029.478.927.478h.318v.309c-.349-.03-1.216-.03-1.614-.03s-1.266,0-1.615.03v-.309h.32c.9,0,.926-.119.926-.478v-5.162a2.974,2.974,0,0,1-1.3.26V336.1a2.46,2.46,0,0,0,1.813-.638c.23,0,.23.02.23.259Z" transform="translate(-436 -309.91)"/>
      <path class="cls-1" d="M746.691,340.458v-.309l3.059-4.673c.08-.12.109-.12.2-.12.159,0,.159.06.159.26v4.533h1v.309h-1v.867c0,.359.021.468.758.468h.209v.309c-.408-.03-.936-.03-1.355-.03s-.937,0-1.345.03v-.309h.209c.737,0,.758-.109.758-.468v-.867Zm2.71-4.025-2.431,3.716H749.4Z" transform="translate(-436 -309.91)"/>
      <path class="cls-1" d="M752.42,344.394c-.03.1-.07.2-.21.2a.2.2,0,0,1-.2-.2.484.484,0,0,1,.05-.18l3.4-9.386c.029-.1.069-.2.209-.2a.2.2,0,0,1,.2.2.484.484,0,0,1-.05.18Z" transform="translate(-436 -309.91)"/>
      <path class="cls-1" d="M761.048,340.4a2.032,2.032,0,0,1-2.122,1.923,1.817,1.817,0,0,1-2.013-1.564.558.558,0,1,1,1.115-.02.545.545,0,0,1-.657.548,1.813,1.813,0,0,0,1.525.757c.438,0,1.125-.289,1.125-1.644,0-.976-.369-1.654-1.185-1.654H758.4c-.169,0-.239,0-.239-.109s.07-.11.15-.12.308-.02.388-.03a.966.966,0,0,0,.887-.518,2.487,2.487,0,0,0,.279-1.136c0-.9-.549-1.116-.957-1.116a1.616,1.616,0,0,0-1.325.618c.149,0,.618,0,.618.5a.508.508,0,1,1-1.016-.01c0-.757.756-1.355,1.763-1.355.956,0,1.833.558,1.833,1.375a1.918,1.918,0,0,1-1.394,1.754A1.922,1.922,0,0,1,761.048,340.4Z" transform="translate(-436 -309.91)"/>
    </g>
    <path class="cls-1" d="M715.015,317.393a2.628,2.628,0,0,1-2.331,2.033.943.943,0,0,1-1.057-.867.574.574,0,0,1,.559-.647.339.339,0,0,1,.368.348.537.537,0,0,1-.2.408.566.566,0,0,1-.428.12.806.806,0,0,0,.758.419,1.423,1.423,0,0,0,1.1-.628,3.81,3.81,0,0,0,.648-1.535,1.4,1.4,0,0,1-1.006.449,1.111,1.111,0,0,1-1.216-1.186,6.59,6.59,0,0,1,.578-2.092,2.1,2.1,0,0,0,.169-.7c0-.319-.169-.319-.249-.319-.339,0-.737.3-1.006,1.236-.05.159-.06.179-.16.179-.019,0-.119,0-.119-.1s.368-1.535,1.315-1.535a.79.79,0,0,1,.817.817,1.788,1.788,0,0,1-.2.718,5.934,5.934,0,0,0-.508,1.953c0,.368.109.807.618.807a1.385,1.385,0,0,0,1.125-.847l.449-1.794c.06-.269.129-.538.2-.8.039-.179.12-.488.14-.538a.43.43,0,0,1,.349-.209.267.267,0,0,1,.289.269.622.622,0,0,1-.04.229Z" transform="translate(-436 -309.91)"/>
    <path class="cls-1" d="M717.578,319.875V309.91h1.365v.4h-.966v9.167h.966v.4Z" transform="translate(-436 -309.91)"/>
    <path class="cls-1" d="M720.623,314.494a3.227,3.227,0,0,0,.159-.837c0-.329-.109-.459-.308-.459-.36,0-.559.479-.728,1.186-.059.22-.07.229-.17.229-.019,0-.119,0-.119-.1a5.058,5.058,0,0,1,.3-.967.87.87,0,0,1,.747-.568.9.9,0,0,1,.917.867,1.925,1.925,0,0,1,1.555-.867,1.018,1.018,0,0,1,1.145,1.066,9.024,9.024,0,0,1-.607,2.192,1.9,1.9,0,0,0-.18.708c0,.229.069.329.239.329.489,0,.817-.558,1.016-1.236.051-.149.051-.179.15-.179.03,0,.119,0,.119.1,0,.08-.369,1.535-1.3,1.535a.8.8,0,0,1-.817-.817,1.136,1.136,0,0,1,.1-.459,9.5,9.5,0,0,0,.647-2.321c0-.329-.089-.7-.538-.7a1.984,1.984,0,0,0-1.624,1.216c-.009.04-.09.329-.13.5-.049.23-.109.449-.169.668l-.219.9c-.06.249-.179.717-.19.737a.407.407,0,0,1-.368.279.267.267,0,0,1-.289-.269c0-.05.06-.279.09-.429Z" transform="translate(-436 -309.91)"/>
    <path class="cls-1" d="M726.752,319.875h-1.365v-.4h.967v-9.167h-.967v-.4h1.365Z" transform="translate(-436 -309.91)"/>
    <line class="cls-2" x1="265.747" y1="89.975" x2="272.833" y2="89.975"/>
    <path class="cls-1" d="M694.47,346.642a1.83,1.83,0,0,1-1.8-1.824.456.456,0,1,1,.319.429,1.554,1.554,0,0,0,1.465,1.116,1.248,1.248,0,0,0,1.066-.648,2.9,2.9,0,0,0,.239-1.365,3.059,3.059,0,0,0-.18-1.256.972.972,0,0,0-.846-.637,1.5,1.5,0,0,0-1.286.7c-.04.06-.059.09-.13.09-.138,0-.138-.08-.138-.259v-2.949c0-.16,0-.24.1-.24a.3.3,0,0,1,.12.03,3.219,3.219,0,0,0,1.325.279,3.287,3.287,0,0,0,1.355-.289.147.147,0,0,1,.079-.03.1.1,0,0,1,.1.11,2.173,2.173,0,0,1-1.923,1.036,3.2,3.2,0,0,1-.847-.129v1.943a1.754,1.754,0,0,1,1.266-.509,2.045,2.045,0,0,1,1.893,2.182A2.2,2.2,0,0,1,694.47,346.642Z" transform="translate(-436 -309.91)"/>
    <path class="cls-1" d="M694.729,328.012a2.089,2.089,0,0,1,1.993,2.221,2.132,2.132,0,0,1-2.053,2.252c-.927,0-2.082-.707-2.082-3.367,0-2.2,1.345-3.488,2.62-3.488.827,0,1.266.478,1.266,1.076a.459.459,0,1,1-.917.02c0-.448.4-.448.548-.448a1.028,1.028,0,0,0-.877-.4c-.508,0-1.744.359-1.744,2.88V329A1.378,1.378,0,0,1,694.729,328.012Zm.926,3.547a5.314,5.314,0,0,0-.009-2.7.962.962,0,0,0-.927-.617c-.9,0-1.216,1-1.216,1.773a4.846,4.846,0,0,0,.18,1.445,1.145,1.145,0,0,0,.986.748A1.042,1.042,0,0,0,695.655,331.559Z" transform="translate(-436 -309.91)"/>
    <path class="cls-1" d="M695.1,402.275c0,.369.029.479.926.479h.319v.309c-.349-.031-1.216-.031-1.614-.031s-1.266,0-1.615.031v-.309h.32c.9,0,.926-.12.926-.479v-5.161a2.984,2.984,0,0,1-1.305.259v-.309a2.463,2.463,0,0,0,1.813-.637c.23,0,.23.019.23.259Z" transform="translate(-436 -309.91)"/>
    <path class="cls-1" d="M790.425,405.146a1.934,1.934,0,1,1,1.932-1.934A1.945,1.945,0,0,1,790.425,405.146Z" transform="translate(-436 -309.91)"/>
    <path class="cls-1" d="M733.659,359.06a1.933,1.933,0,1,1,1.933-1.934A1.944,1.944,0,0,1,733.659,359.06Z" transform="translate(-436 -309.91)"/>
    <path class="cls-1" d="M705.339,405.146a1.934,1.934,0,1,1,1.932-1.934A1.944,1.944,0,0,1,705.339,405.146Z" transform="translate(-436 -309.91)"/>
    <g>
      <path class="cls-1" d="M719.5,387.38a1.933,1.933,0,1,1,1.933-1.934A1.944,1.944,0,0,1,719.5,387.38Z" transform="translate(-436 -309.91)"/>
      <path class="cls-1" d="M776.133,387.38a1.933,1.933,0,1,1,1.932-1.934A1.945,1.945,0,0,1,776.133,387.38Z" transform="translate(-436 -309.91)"/>
    </g>
    <path class="cls-1" d="M761.979,359.06a1.933,1.933,0,1,1,1.933-1.934A1.944,1.944,0,0,1,761.979,359.06Z" transform="translate(-436 -309.91)"/>
    <path class="cls-1" d="M747.815,348.388a1.933,1.933,0,1,1,1.933-1.933A1.944,1.944,0,0,1,747.815,348.388Z" transform="translate(-436 -309.91)"/>
    <path class="cls-3" d="M719.463,414.059V385.713m14.173,28.346V357.366m14.173,56.693V346.736m14.173,67.323V357.366m28.347,56.693v-10.63m-85.039,10.63v-10.63m70.866,10.63V385.713" transform="translate(-436 -309.91)"/>
    <g>
      <path class="cls-1" d="M677.019,415.7a1.933,1.933,0,1,1,1.933-1.933A1.944,1.944,0,0,1,677.019,415.7Z" transform="translate(-436 -309.91)"/>
      <path class="cls-1" d="M804.58,415.7a1.933,1.933,0,1,1,1.933-1.933A1.944,1.944,0,0,1,804.58,415.7Z" transform="translate(-436 -309.91)"/>
    </g>
    <path class="cls-1" d="M691.175,415.7a1.933,1.933,0,1,1,1.932-1.933A1.944,1.944,0,0,1,691.175,415.7Z" transform="translate(-436 -309.91)"/>
    <line class="cls-4" x1="269.29" y1="93.519" x2="354.329" y2="93.519"/>
    <line class="cls-5" x1="269.29" y1="75.802" x2="340.156" y2="75.802"/>
    <line class="cls-6" x1="269.29" y1="47.456" x2="325.982" y2="47.456"/>
    <line class="cls-7" x1="269.29" y1="36.826" x2="311.809" y2="36.826"/>
  </g>
</svg>
