<svg id="Layer_1" data-name="Layer 1" xmlns="http://www.w3.org/2000/svg" viewBox="0 0 388.953 262.061">
  <defs>
    <style>
      .cls-1 {
        fill: #1d1d1b;
      }

      .cls-2, .cls-6, .cls-7, .cls-8 {
        fill: none;
        stroke-miterlimit: 10;
        stroke-width: 0.85px;
      }

      .cls-2 {
        stroke: #000;
      }

      .cls-3 {
        fill: blue;
      }

      .cls-4 {
        fill: red;
      }

      .cls-5 {
        fill: lime;
      }

      .cls-6 {
        stroke: blue;
      }

      .cls-7 {
        stroke: red;
      }

      .cls-8 {
        stroke: lime;
      }
    </style>
  </defs>
  <title>exconvolution</title>
  <g>
    <path class="cls-1" d="M531.429,254.4a1.851,1.851,0,0,1,1.475-.767,1.014,1.014,0,0,1,1.146,1.066,8.949,8.949,0,0,1-.608,2.192,1.9,1.9,0,0,0-.179.708c0,.229.069.329.238.329.549,0,.868-.708,1.017-1.236.05-.149.05-.179.149-.179.03,0,.12,0,.12.1,0,.08-.369,1.535-1.305,1.535a.8.8,0,0,1-.817-.817,1.491,1.491,0,0,1,.129-.548,8.472,8.472,0,0,0,.618-2.232c0-.359-.11-.7-.538-.7a1.59,1.59,0,0,0-.957.349,2.949,2.949,0,0,0-.677.917c-.01.059-.09.388-.11.448-.049.23-.109.449-.169.667l-.219.9-.19.758a.416.416,0,0,1-.368.259.274.274,0,0,1-.289-.279.609.609,0,0,1,.04-.219l1.444-5.74.03-.2c0-.1-.02-.169-.5-.169-.149,0-.239,0-.239-.12,0-.179.109-.189.189-.2.259-.02.987-.1,1.216-.1.13,0,.13.1.13.11Z" transform="translate(-484.598 -248.425)"/>
    <path class="cls-1" d="M536.28,260.524V250.56h1.366v.4h-.967v9.166h.967v.4Z" transform="translate(-484.598 -248.425)"/>
    <path class="cls-1" d="M539.686,255.433a3.486,3.486,0,0,0,1.106-.927c.717-.8,1.175-.877,1.455-.877a.637.637,0,0,1,.677.628.574.574,0,0,1-.548.608.347.347,0,0,1-.378-.349.562.562,0,0,1,.567-.538c-.02-.02-.02-.03-.04-.04a.329.329,0,0,0-.209-.08c-.02-.01-.03-.01-.089-.01-.489,0-.947.429-1.425.957a4.408,4.408,0,0,1-.857.737c.847.11,1.474.4,1.474,1.046a1.024,1.024,0,0,1-.04.309,2.662,2.662,0,0,0-.079.558c0,.359.129.469.319.469.438,0,.667-.508.866-1.236.031-.14.04-.179.14-.179.03,0,.12,0,.12.1a3.625,3.625,0,0,1-.359,1.007.912.912,0,0,1-.787.528.921.921,0,0,1-.917-.987,2.186,2.186,0,0,1,.04-.348.583.583,0,0,0,.03-.209c0-.658-.817-.818-1.156-.848-.06.249-.508,2.093-.558,2.183a.408.408,0,0,1-.339.209.274.274,0,0,1-.289-.279.609.609,0,0,1,.04-.219l1.445-5.74.03-.2c0-.1-.02-.169-.5-.169-.15,0-.239,0-.239-.12,0-.179.109-.189.189-.2.259-.02.986-.1,1.215-.1.13,0,.13.1.13.11Z" transform="translate(-484.598 -248.425)"/>
    <path class="cls-1" d="M544.97,260.524h-1.365v-.4h.966v-9.166h-.966v-.4h1.365Z" transform="translate(-484.598 -248.425)"/>
    <path class="cls-1" d="M749.475,443.074a2.628,2.628,0,0,1-2.331,2.033.943.943,0,0,1-1.057-.867.574.574,0,0,1,.559-.647.339.339,0,0,1,.368.348.539.539,0,0,1-.2.409.566.566,0,0,1-.428.12.807.807,0,0,0,.758.418,1.425,1.425,0,0,0,1.1-.628,3.812,3.812,0,0,0,.648-1.534,1.405,1.405,0,0,1-1.006.448,1.111,1.111,0,0,1-1.216-1.186,6.6,6.6,0,0,1,.578-2.092,2.1,2.1,0,0,0,.169-.7c0-.318-.169-.318-.249-.318-.339,0-.737.3-1.006,1.235-.05.159-.06.18-.16.18-.019,0-.119,0-.119-.1s.368-1.535,1.315-1.535a.791.791,0,0,1,.817.818,1.789,1.789,0,0,1-.2.717,5.929,5.929,0,0,0-.508,1.952c0,.37.109.808.618.808a1.382,1.382,0,0,0,1.125-.848l.449-1.793c.06-.269.129-.538.2-.8.039-.18.119-.489.14-.539a.433.433,0,0,1,.349-.209.266.266,0,0,1,.289.269.632.632,0,0,1-.04.23Z" transform="translate(-484.598 -248.425)"/>
    <path class="cls-1" d="M752.046,445.556v-9.964h1.365v.4h-.967v9.167h.967v.4Z" transform="translate(-484.598 -248.425)"/>
    <path class="cls-1" d="M755.083,440.175a3.227,3.227,0,0,0,.159-.837c0-.329-.109-.458-.308-.458-.36,0-.559.477-.728,1.185-.06.219-.07.23-.17.23-.019,0-.119,0-.119-.1a5.035,5.035,0,0,1,.3-.966.869.869,0,0,1,.747-.569.9.9,0,0,1,.917.867,1.925,1.925,0,0,1,1.555-.867,1.018,1.018,0,0,1,1.145,1.067,9.024,9.024,0,0,1-.607,2.192,1.893,1.893,0,0,0-.18.707c0,.229.069.329.239.329.489,0,.817-.559,1.016-1.235.051-.15.051-.18.15-.18.03,0,.119,0,.119.1,0,.08-.369,1.534-1.305,1.534a.8.8,0,0,1-.817-.817,1.136,1.136,0,0,1,.1-.459,9.486,9.486,0,0,0,.647-2.321c0-.329-.089-.7-.538-.7a1.983,1.983,0,0,0-1.624,1.215c-.009.04-.09.329-.13.5-.049.228-.109.448-.169.667l-.219.9c-.06.249-.179.717-.19.738a.405.405,0,0,1-.368.278.267.267,0,0,1-.289-.269c0-.05.06-.279.09-.428Z" transform="translate(-484.598 -248.425)"/>
    <g>
      <path class="cls-1" d="M761.2,445.556h-1.365v-.4h.967V435.99h-.967v-.4H761.2Z" transform="translate(-484.598 -248.425)"/>
      <path class="cls-1" d="M765.916,439.807c-.149,0-.339,0-.339-.2s.19-.2.329-.2h5.969c.14,0,.328,0,.328.2s-.188.2-.338.2Zm-.01,1.932c-.139,0-.329,0-.329-.2s.19-.2.339-.2h5.949c.15,0,.338,0,.338.2s-.188.2-.328.2Z" transform="translate(-484.598 -248.425)"/>
    </g>
    <path class="cls-1" d="M776.146,435.828c0-.308.011-.318.28-.318h8.26l.857,2.332h-.249c-.7-1.863-2.989-1.934-4.125-1.934h-3.946l3.238,4.445c.06.089.07.1.07.139s-.02.07-.09.159l-3.458,4.275h4.236a7.125,7.125,0,0,0,2.311-.289,2.745,2.745,0,0,0,1.764-1.644h.249l-.857,2.481h-8.26c-.18,0-.269,0-.269-.11,0-.04.01-.059.089-.159l3.538-4.375Z" transform="translate(-484.598 -248.425)"/>
    <path class="cls-1" d="M787.671,435.7c-.119,0-.182,0-.182-.1a.08.08,0,0,1,.071-.09,2.077,2.077,0,0,1,.222-.021.9.9,0,0,0,.775-.3,1.345,1.345,0,0,0,.278-.83.7.7,0,0,0-.753-.76,1.327,1.327,0,0,0-.983.383.355.355,0,0,1,.355.364.359.359,0,1,1-.718-.015c0-.558.593-.934,1.368-.934s1.408.411,1.408.962a1.33,1.33,0,0,1-1,1.213,1.379,1.379,0,0,1,1.213,1.249,1.5,1.5,0,0,1-1.639,1.346c-.844,0-1.568-.426-1.568-1.081a.387.387,0,1,1,.773-.021.377.377,0,0,1-.4.39,1.515,1.515,0,0,0,1.185.488c.4,0,.906-.258.906-1.122,0-.746-.39-1.123-.934-1.123Z" transform="translate(-484.598 -248.425)"/>
    <path class="cls-1" d="M787.636,444.217a2.8,2.8,0,0,0,.808-.614,1.812,1.812,0,0,1,1.117-.614.494.494,0,0,1,.537.489.414.414,0,0,1-.4.446.259.259,0,0,1-.279-.258.4.4,0,0,1,.362-.391.282.282,0,0,0-.229-.09,1.838,1.838,0,0,0-1.1.662,5.267,5.267,0,0,1-.579.461c.293.02,1.13.118,1.13.738a1.064,1.064,0,0,1-.035.217.977.977,0,0,0-.042.313c0,.189.055.362.244.362.342,0,.53-.5.614-.794.034-.132.041-.167.139-.167.021,0,.112,0,.112.09,0,.007-.21,1.067-.886,1.067a.709.709,0,0,1-.739-.718.674.674,0,0,1,.027-.216.568.568,0,0,0,.015-.139c0-.364-.4-.524-.893-.573-.028.1-.328,1.325-.341,1.354a.337.337,0,0,1-.322.292.227.227,0,0,1-.236-.223.626.626,0,0,1,.034-.153l.984-3.947a.791.791,0,0,0,.028-.154c0-.055,0-.1-.335-.1-.084,0-.182,0-.182-.1,0-.146.1-.153.154-.16.174-.014.754-.07.892-.07a.1.1,0,0,1,.112.1.882.882,0,0,1-.028.113Z" transform="translate(-484.598 -248.425)"/>
    <g>
      <path class="cls-1" d="M791.217,443.722c-.105,0-.265,0-.265-.175s.167-.167.258-.167h4.616c.091,0,.258,0,.258.167s-.16.175-.265.175Zm-.007,1.534c-.091,0-.258,0-.258-.168s.16-.174.265-.174h4.6c.105,0,.265,0,.265.174s-.167.168-.258.168Z" transform="translate(-484.598 -248.425)"/>
      <path class="cls-1" d="M798.561,446.2c-1.619,0-1.619-1.862-1.619-2.364s0-2.4,1.619-2.4a1.449,1.449,0,0,1,1.206.6,3.1,3.1,0,0,1,.412,1.806C800.179,444.342,800.179,446.2,798.561,446.2Zm.892-.983a7.594,7.594,0,0,0,.091-1.472,5.649,5.649,0,0,0-.119-1.485.9.9,0,0,0-1.743.063,5.944,5.944,0,0,0-.105,1.422,7.2,7.2,0,0,0,.1,1.5.9.9,0,0,0,1.778-.028Z" transform="translate(-484.598 -248.425)"/>
    </g>
    <path class="cls-1" d="M804.788,439.428a1.853,1.853,0,0,1,1.476-.768,1.013,1.013,0,0,1,1.145,1.067,8.917,8.917,0,0,1-.608,2.192,1.911,1.911,0,0,0-.179.707c0,.229.069.329.239.329.548,0,.867-.708,1.016-1.235.05-.15.05-.18.149-.18.031,0,.12,0,.12.1,0,.08-.369,1.534-1.3,1.534a.8.8,0,0,1-.817-.817,1.516,1.516,0,0,1,.129-.548,8.434,8.434,0,0,0,.618-2.232c0-.358-.109-.7-.538-.7a1.587,1.587,0,0,0-.957.349,2.923,2.923,0,0,0-.676.916c-.011.06-.09.388-.111.449-.05.228-.109.448-.169.667l-.219.9-.189.757a.415.415,0,0,1-.369.259.274.274,0,0,1-.289-.278.61.61,0,0,1,.04-.22l1.444-5.739.031-.2c0-.1-.02-.169-.5-.169-.15,0-.24,0-.24-.12,0-.179.11-.189.19-.2.258-.02.986-.1,1.216-.1.128,0,.128.1.128.11Z" transform="translate(-484.598 -248.425)"/>
    <path class="cls-1" d="M809.64,445.556v-9.964h1.365v.4h-.967v9.167h.967v.4Z" transform="translate(-484.598 -248.425)"/>
    <path class="cls-1" d="M813.045,440.464a3.465,3.465,0,0,0,1.106-.927c.717-.8,1.176-.877,1.454-.877a.637.637,0,0,1,.678.628.574.574,0,0,1-.548.608.348.348,0,0,1-.379-.349.564.564,0,0,1,.569-.538c-.021-.02-.021-.03-.04-.039a.322.322,0,0,0-.209-.08c-.021-.01-.03-.01-.09-.01-.488,0-.946.428-1.425.956a4.345,4.345,0,0,1-.857.737c.847.11,1.475.4,1.475,1.047a1.027,1.027,0,0,1-.04.309,2.581,2.581,0,0,0-.08.557c0,.36.13.469.32.469.438,0,.667-.509.866-1.235.03-.14.04-.18.139-.18.031,0,.12,0,.12.1a3.623,3.623,0,0,1-.359,1.006.91.91,0,0,1-.787.528.921.921,0,0,1-.917-.986,2.306,2.306,0,0,1,.04-.349.583.583,0,0,0,.03-.209c0-.658-.817-.817-1.156-.848-.059.25-.508,2.093-.558,2.183a.407.407,0,0,1-.338.209.274.274,0,0,1-.289-.278.61.61,0,0,1,.04-.22l1.444-5.739.03-.2c0-.1-.019-.169-.5-.169-.149,0-.239,0-.239-.12,0-.179.109-.189.189-.2.259-.02.987-.1,1.216-.1.129,0,.129.1.129.11Z" transform="translate(-484.598 -248.425)"/>
    <path class="cls-1" d="M818.329,445.556h-1.365v-.4h.967V435.99h-.967v-.4h1.365Z" transform="translate(-484.598 -248.425)"/>
    <path class="cls-1" d="M822.492,441.42a3.925,3.925,0,0,0-.17.877c0,.339.16.658.549.658.318,0,1-.239,1.325-1.306.02-.069.039-.109.129-.109.03,0,.12,0,.12.1,0,.249-.568,1.534-1.594,1.534a1.1,1.1,0,0,1-1.077-.757,1.32,1.32,0,0,1-1.045.757c-.439,0-.937-.2-.937-.657a.566.566,0,0,1,.548-.579.343.343,0,0,1,.369.349.565.565,0,0,1-.469.538.956.956,0,0,0,.5.13c.439,0,.787-.419.947-1.036a14.5,14.5,0,0,0,.538-2.372c0-.577-.349-.667-.538-.667-.338,0-1,.249-1.335,1.305-.02.089-.05.11-.129.11-.021,0-.12,0-.12-.1,0-.25.568-1.535,1.6-1.535a1.1,1.1,0,0,1,1.076.758,1.286,1.286,0,0,1,1.046-.758c.339,0,.927.14.927.658a.555.555,0,0,1-.538.578.348.348,0,0,1-.379-.349.579.579,0,0,1,.478-.538.98.98,0,0,0-.5-.129c-.7,0-.926.916-.986,1.176Z" transform="translate(-484.598 -248.425)"/>
    <path class="cls-1" d="M826.319,445.556v-9.964h1.366v.4h-.967v9.167h.967v.4Z" transform="translate(-484.598 -248.425)"/>
    <path class="cls-1" d="M829.356,440.175a3.246,3.246,0,0,0,.16-.837c0-.329-.11-.458-.309-.458-.359,0-.559.477-.728,1.185-.059.219-.07.23-.169.23-.02,0-.12,0-.12-.1a5.035,5.035,0,0,1,.3-.966.87.87,0,0,1,.747-.569.9.9,0,0,1,.917.867,1.926,1.926,0,0,1,1.555-.867,1.019,1.019,0,0,1,1.146,1.067,8.982,8.982,0,0,1-.608,2.192,1.893,1.893,0,0,0-.18.707c0,.229.07.329.24.329.488,0,.816-.559,1.015-1.235.051-.15.051-.18.151-.18.029,0,.119,0,.119.1,0,.08-.369,1.534-1.306,1.534a.8.8,0,0,1-.816-.817,1.148,1.148,0,0,1,.1-.459,9.441,9.441,0,0,0,.648-2.321c0-.329-.09-.7-.538-.7a1.98,1.98,0,0,0-1.624,1.215c-.01.04-.09.329-.13.5-.05.228-.11.448-.169.667l-.22.9c-.059.249-.179.717-.189.738a.406.406,0,0,1-.368.278.267.267,0,0,1-.29-.269c0-.05.06-.279.09-.428Z" transform="translate(-484.598 -248.425)"/>
    <path class="cls-1" d="M837.358,440.772c-.169,0-.348,0-.348-.2s.179-.2.348-.2h5.391c.169,0,.349,0,.349.2s-.18.2-.349.2Z" transform="translate(-484.598 -248.425)"/>
    <path class="cls-1" d="M847.967,440.464a3.476,3.476,0,0,0,1.106-.927c.717-.8,1.176-.877,1.454-.877a.637.637,0,0,1,.678.628.574.574,0,0,1-.548.608.348.348,0,0,1-.379-.349.564.564,0,0,1,.569-.538c-.021-.02-.021-.03-.04-.039a.322.322,0,0,0-.209-.08c-.021-.01-.031-.01-.09-.01-.488,0-.946.428-1.425.956a4.345,4.345,0,0,1-.857.737c.847.11,1.475.4,1.475,1.047a1.027,1.027,0,0,1-.04.309,2.581,2.581,0,0,0-.08.557c0,.36.13.469.319.469.439,0,.667-.509.867-1.235.03-.14.04-.18.139-.18.031,0,.12,0,.12.1a3.623,3.623,0,0,1-.359,1.006.91.91,0,0,1-.787.528.921.921,0,0,1-.917-.986,2.185,2.185,0,0,1,.04-.349.583.583,0,0,0,.03-.209c0-.658-.817-.817-1.156-.848-.06.25-.508,2.093-.558,2.183a.408.408,0,0,1-.339.209.274.274,0,0,1-.289-.278.61.61,0,0,1,.04-.22l1.445-5.739.03-.2c0-.1-.019-.169-.5-.169-.149,0-.239,0-.239-.12,0-.179.109-.189.189-.2.259-.02.987-.1,1.216-.1.129,0,.129.1.129.11Z" transform="translate(-484.598 -248.425)"/>
    <path class="cls-1" d="M853.243,445.556h-1.365v-.4h.967V435.99h-.967v-.4h1.365Z" transform="translate(-484.598 -248.425)"/>
    <line class="cls-2" x1="248.03" y1="205.511" x2="255.117" y2="205.511"/>
    <path class="cls-1" d="M722.1,452.856a2.09,2.09,0,0,1,1.993,2.223,2.132,2.132,0,0,1-2.053,2.251c-.927,0-2.082-.707-2.082-3.367,0-2.2,1.345-3.487,2.62-3.487.827,0,1.266.477,1.266,1.076a.459.459,0,1,1-.917.019c0-.448.4-.448.548-.448a1.027,1.027,0,0,0-.877-.4c-.508,0-1.744.358-1.744,2.879v.239A1.379,1.379,0,0,1,722.1,452.856Zm.926,3.548a5.31,5.31,0,0,0-.009-2.7.962.962,0,0,0-.927-.618c-.9,0-1.216,1-1.216,1.773a4.855,4.855,0,0,0,.18,1.446,1.144,1.144,0,0,0,.986.747A1.042,1.042,0,0,0,723.029,456.4Z" transform="translate(-484.598 -248.425)"/>
    <polyline points="371.053 250.298 375.589 248.03 371.053 245.763 372.187 248.03"/>
    <line class="cls-2" x1="212.597" y1="248.03" x2="372.187" y2="248.03"/>
    <path class="cls-1" d="M699.124,507.616c-.169,0-.349,0-.349-.2s.18-.2.349-.2h5.391c.169,0,.348,0,.348.2s-.179.2-.348.2Z" transform="translate(-484.598 -248.425)"/>
    <path class="cls-1" d="M708.8,509.141a.8.8,0,0,0,1.166-.966h.249l-.279,1.733h-3.7c0-.239,0-.259.11-.369l1.913-2.132a3.571,3.571,0,0,0,1.047-2.2c0-.817-.429-1.624-1.335-1.624a1.437,1.437,0,0,0-1.346,1.017.381.381,0,0,1,.13-.01.5.5,0,0,1,.527.517.524.524,0,1,1-1.046-.03,1.84,1.84,0,0,1,1.863-1.8,1.958,1.958,0,0,1,2.113,1.933c0,1-.6,1.534-2.153,2.909l-1.055,1.027Z" transform="translate(-484.598 -248.425)"/>
    <path class="cls-1" d="M704.275,498.069a1.933,1.933,0,1,1,1.933-1.933A1.944,1.944,0,0,1,704.275,498.069Z" transform="translate(-484.598 -248.425)"/>
    <polyline points="250.298 188.786 248.03 184.251 245.762 188.786 248.03 187.653"/>
    <line class="cls-2" x1="248.03" y1="251.573" x2="248.03" y2="187.653"/>
    <path class="cls-1" d="M718.439,498.069a1.933,1.933,0,1,1,1.933-1.933A1.944,1.944,0,0,1,718.439,498.069Z" transform="translate(-484.598 -248.425)"/>
    <g>
      <path class="cls-1" d="M817.674,498.069a1.933,1.933,0,1,1,1.932-1.933A1.944,1.944,0,0,1,817.674,498.069Z" transform="translate(-484.598 -248.425)"/>
      <path class="cls-1" d="M831.831,498.069a1.933,1.933,0,1,1,1.933-1.933A1.944,1.944,0,0,1,831.831,498.069Z" transform="translate(-484.598 -248.425)"/>
      <path class="cls-1" d="M845.987,498.069a1.933,1.933,0,1,1,1.933-1.933A1.944,1.944,0,0,1,845.987,498.069Z" transform="translate(-484.598 -248.425)"/>
    </g>
    <path class="cls-1" d="M713.28,507.616c-.169,0-.348,0-.348-.2s.179-.2.348-.2h5.391c.169,0,.349,0,.349.2s-.18.2-.349.2Z" transform="translate(-484.598 -248.425)"/>
    <path class="cls-1" d="M722.839,509.121c0,.368.029.479.927.479h.318v.308c-.349-.03-1.216-.03-1.614-.03s-1.266,0-1.615.03V509.6h.32c.9,0,.927-.121.927-.479V503.96a2.99,2.99,0,0,1-1.306.259v-.309a2.46,2.46,0,0,0,1.813-.638c.23,0,.23.02.23.259Z" transform="translate(-484.598 -248.425)"/>
    <path class="cls-3" d="M734.444,509.331a1.863,1.863,0,0,1-3.378.149,5.05,5.05,0,0,1-.448-2.4,5.343,5.343,0,0,1,.368-2.262,1.853,1.853,0,0,1,3.428-.07,7.035,7.035,0,0,1,.03,4.584Zm-.568-.309a19.252,19.252,0,0,0,.011-4c-.19-.987-.848-1.166-1.176-1.166-.249,0-1,.089-1.187,1.275a20.676,20.676,0,0,0,.031,3.936c.179.957.767,1.206,1.156,1.206C733.159,510.268,733.727,509.969,733.876,509.022Z" transform="translate(-484.598 -248.425)"/>
    <path class="cls-4" d="M747.315,509.48c0,.369.03.479.927.479h.319v.309c-.349-.031-1.216-.031-1.615-.031s-1.265,0-1.614.031v-.309h.319c.9,0,.927-.12.927-.479v-5.161a2.986,2.986,0,0,1-1.306.259v-.308a2.461,2.461,0,0,0,1.814-.638c.229,0,.229.019.229.259Z" transform="translate(-484.598 -248.425)"/>
    <path class="cls-5" d="M761.6,509.5a3.28,3.28,0,0,0,.947-.079,3.317,3.317,0,0,0,.219-.887h.249l-.279,1.734h-3.7c0-.24,0-.259.109-.37l1.914-2.131a3.575,3.575,0,0,0,1.046-2.2c0-.817-.428-1.624-1.335-1.624a1.438,1.438,0,0,0-1.345,1.017.381.381,0,0,1,.13-.01.5.5,0,0,1,.527.518.524.524,0,1,1-1.046-.03,1.84,1.84,0,0,1,1.863-1.8,1.957,1.957,0,0,1,2.113,1.932c0,1-.6,1.535-2.153,2.91l-1.055,1.026Z" transform="translate(-484.598 -248.425)"/>
    <g>
      <path class="cls-1" d="M777.26,508.563a2.032,2.032,0,0,1-2.122,1.923,1.817,1.817,0,0,1-2.013-1.563.558.558,0,1,1,1.115-.021.545.545,0,0,1-.657.548,1.814,1.814,0,0,0,1.524.758c.439,0,1.126-.289,1.126-1.645,0-.976-.369-1.653-1.185-1.653h-.439c-.17,0-.239,0-.239-.11s.069-.11.15-.119.308-.021.388-.031a.965.965,0,0,0,.887-.517,2.492,2.492,0,0,0,.279-1.136c0-.9-.549-1.116-.957-1.116a1.615,1.615,0,0,0-1.325.617c.149,0,.618,0,.618.5a.508.508,0,1,1-1.016-.011c0-.757.756-1.354,1.763-1.354.956,0,1.833.557,1.833,1.375a1.8,1.8,0,0,0,.27,3.556Z" transform="translate(-484.598 -248.425)"/>
      <path class="cls-1" d="M787.143,508.623v-.309l3.058-4.672c.08-.121.11-.121.2-.121.16,0,.16.061.16.26v4.533h1v.309h-1v.867c0,.359.02.469.757.469h.209v.309c-.408-.031-.936-.031-1.355-.031s-.937,0-1.345.031v-.309h.209c.737,0,.758-.11.758-.469v-.867Zm2.71-4.025-2.432,3.716h2.432Z" transform="translate(-484.598 -248.425)"/>
      <path class="cls-1" d="M803.321,510.486a1.828,1.828,0,0,1-1.8-1.823.494.494,0,1,1,.488.448.45.45,0,0,1-.169-.019,1.552,1.552,0,0,0,1.465,1.116,1.246,1.246,0,0,0,1.065-.647,2.9,2.9,0,0,0,.239-1.366,3.062,3.062,0,0,0-.179-1.256.972.972,0,0,0-.847-.637,1.5,1.5,0,0,0-1.285.7c-.04.061-.06.09-.13.09-.139,0-.139-.079-.139-.259v-2.949c0-.159,0-.239.1-.239a.3.3,0,0,1,.119.03,3.24,3.24,0,0,0,1.325.278,3.293,3.293,0,0,0,1.356-.289.148.148,0,0,1,.079-.029.1.1,0,0,1,.1.109,2.17,2.17,0,0,1-1.922,1.036,3.1,3.1,0,0,1-.847-.13v1.944a1.75,1.75,0,0,1,1.266-.508,2.044,2.044,0,0,1,1.892,2.182A2.2,2.2,0,0,1,803.321,510.486Z" transform="translate(-484.598 -248.425)"/>
      <path class="cls-1" d="M817.737,506.013a2.089,2.089,0,0,1,1.993,2.222,2.131,2.131,0,0,1-2.052,2.251c-.927,0-2.082-.707-2.082-3.367,0-2.2,1.344-3.487,2.62-3.487.827,0,1.265.477,1.265,1.076a.459.459,0,1,1-.917.02c0-.449.4-.449.548-.449a1.025,1.025,0,0,0-.877-.4c-.507,0-1.743.358-1.743,2.879V507A1.377,1.377,0,0,1,817.737,506.013Zm.927,3.548a3.319,3.319,0,0,0,.17-1.336,3.282,3.282,0,0,0-.18-1.365.96.96,0,0,0-.926-.618c-.9,0-1.216,1-1.216,1.774a4.878,4.878,0,0,0,.179,1.445,1.148,1.148,0,0,0,.987.747A1.042,1.042,0,0,0,818.664,509.561Z" transform="translate(-484.598 -248.425)"/>
      <path class="cls-1" d="M832.731,506.093a4.355,4.355,0,0,0-.617,1.7,11.122,11.122,0,0,0-.11,1.634v.507c0,.1,0,.548-.458.548s-.458-.448-.458-.548a6.96,6.96,0,0,1,1.225-3.746c.219-.329,1.006-1.415,1.116-1.574h-2.063a5.006,5.006,0,0,0-.975.06,2.77,2.77,0,0,0-.25.907h-.249l.329-2.053h.249c.04.19.059.319,1.275.319h2.422c0,.209,0,.229-.09.348Z" transform="translate(-484.598 -248.425)"/>
      <path class="cls-1" d="M847.556,507.368a1.8,1.8,0,0,1,.488,1.226,1.986,1.986,0,0,1-2.072,1.892,1.9,1.9,0,0,1-2.063-1.723,2.2,2.2,0,0,1,1.435-1.833,6.484,6.484,0,0,1-.728-.538,1.59,1.59,0,0,1-.438-1.1,1.732,1.732,0,0,1,1.8-1.664,1.645,1.645,0,0,1,1.793,1.484,1.85,1.85,0,0,1-1.205,1.544A4.267,4.267,0,0,1,847.556,507.368Zm-3.149,1.395a1.5,1.5,0,0,0,1.574,1.445,1.436,1.436,0,0,0,1.565-1.256,1.336,1.336,0,0,0-.748-1.1l-1.226-.777A1.955,1.955,0,0,0,844.407,508.763Zm1.943-2.252a1.691,1.691,0,0,0,.986-1.4,1.3,1.3,0,0,0-1.364-1.235c-.708,0-1.356.418-1.356,1.026a.93.93,0,0,0,.5.807Z" transform="translate(-484.598 -248.425)"/>
    </g>
    <path class="cls-1" d="M869.317,495.737a3.239,3.239,0,0,0,.16-.837c0-.329-.11-.458-.309-.458-.359,0-.559.478-.728,1.186-.059.219-.07.229-.169.229-.02,0-.12,0-.12-.1a5.058,5.058,0,0,1,.3-.967.869.869,0,0,1,.747-.568.9.9,0,0,1,.917.867,1.922,1.922,0,0,1,1.555-.867,1.017,1.017,0,0,1,1.145,1.066,8.979,8.979,0,0,1-.607,2.192,1.893,1.893,0,0,0-.18.707c0,.23.07.33.24.33.488,0,.816-.559,1.015-1.236.051-.149.051-.179.151-.179.029,0,.119,0,.119.1,0,.08-.369,1.534-1.306,1.534a.8.8,0,0,1-.816-.816,1.127,1.127,0,0,1,.1-.459,9.5,9.5,0,0,0,.648-2.321c0-.329-.09-.7-.538-.7a1.982,1.982,0,0,0-1.624,1.215c-.01.04-.09.329-.13.5-.05.229-.11.448-.169.667l-.22.9c-.059.249-.179.717-.189.737a.407.407,0,0,1-.369.278.267.267,0,0,1-.289-.268c0-.05.06-.28.09-.429Z" transform="translate(-484.598 -248.425)"/>
    <path class="cls-2" d="M729.085,482.282h7.087m-7.087-14.173h7.087" transform="translate(-484.598 -248.425)"/>
    <path class="cls-1" d="M722.6,484.781a.8.8,0,0,0,1.166-.966h.249l-.279,1.734h-3.7c0-.239,0-.259.109-.369l1.914-2.132a3.57,3.57,0,0,0,1.046-2.2c0-.818-.428-1.624-1.335-1.624a1.437,1.437,0,0,0-1.345,1.016.421.421,0,0,1,.13-.009.5.5,0,0,1,.527.517.524.524,0,1,1-1.046-.03,1.84,1.84,0,0,1,1.863-1.8,1.958,1.958,0,0,1,2.113,1.933c0,1-.6,1.534-2.153,2.909l-1.055,1.026Z" transform="translate(-484.598 -248.425)"/>
    <path class="cls-1" d="M719.821,469.623v-.309l3.059-4.672c.08-.121.109-.121.2-.121.159,0,.159.061.159.26v4.533h1v.309h-1v.867c0,.359.021.469.758.469h.209v.309c-.408-.031-.936-.031-1.355-.031s-.937,0-1.345.031v-.309h.209c.737,0,.758-.11.758-.469v-.867Zm2.71-4.025-2.431,3.716h2.431Z" transform="translate(-484.598 -248.425)"/>
    <path class="cls-1" d="M803.518,498.069a1.933,1.933,0,1,1,1.932-1.933A1.944,1.944,0,0,1,803.518,498.069Z" transform="translate(-484.598 -248.425)"/>
    <line class="cls-2" x1="290.55" y1="248.03" x2="290.55" y2="212.597"/>
    <path class="cls-1" d="M775.2,462.663a1.933,1.933,0,1,1,1.933-1.934A1.944,1.944,0,0,1,775.2,462.663Z" transform="translate(-484.598 -248.425)"/>
    <line class="cls-2" x1="304.723" y1="248.03" x2="304.723" y2="226.77"/>
    <path class="cls-1" d="M789.361,476.827a1.933,1.933,0,1,1,1.933-1.933A1.944,1.944,0,0,1,789.361,476.827Z" transform="translate(-484.598 -248.425)"/>
    <line class="cls-2" x1="262.203" y1="63.779" x2="262.203" y2="35.433"/>
    <path class="cls-1" d="M746.877,285.545a1.933,1.933,0,1,1,1.933-1.933A1.943,1.943,0,0,1,746.877,285.545Z" transform="translate(-484.598 -248.425)"/>
    <line class="cls-2" x1="276.376" y1="63.779" x2="276.376" y2="21.26"/>
    <path class="cls-1" d="M761.041,271.389a1.933,1.933,0,1,1,1.933-1.933A1.943,1.943,0,0,1,761.041,271.389Z" transform="translate(-484.598 -248.425)"/>
    <polyline points="371.053 66.047 375.589 63.779 371.053 61.511 372.187 63.779"/>
    <line class="cls-2" x1="212.597" y1="63.779" x2="372.187" y2="63.779"/>
    <path class="cls-1" d="M699.124,323.3c-.169,0-.349,0-.349-.2s.18-.2.349-.2h5.391c.169,0,.348,0,.348.2s-.179.2-.348.2Z" transform="translate(-484.598 -248.425)"/>
    <path class="cls-1" d="M708.8,324.821a3.24,3.24,0,0,0,.947-.08,3.279,3.279,0,0,0,.219-.887h.249l-.279,1.734h-3.7c0-.239,0-.259.11-.369l1.913-2.132a3.571,3.571,0,0,0,1.047-2.2c0-.817-.429-1.624-1.335-1.624a1.436,1.436,0,0,0-1.346,1.016.381.381,0,0,1,.13-.01.5.5,0,0,1,.527.518.524.524,0,1,1-1.046-.03,1.841,1.841,0,0,1,1.863-1.8,1.958,1.958,0,0,1,2.113,1.933c0,1-.6,1.534-2.153,2.909l-1.055,1.027Z" transform="translate(-484.598 -248.425)"/>
    <path class="cls-1" d="M704.275,313.866a1.933,1.933,0,1,1,1.933-1.933A1.944,1.944,0,0,1,704.275,313.866Z" transform="translate(-484.598 -248.425)"/>
    <polyline points="250.298 4.535 248.03 0 245.762 4.535 248.03 3.402"/>
    <line class="cls-2" x1="248.03" y1="67.323" x2="248.03" y2="3.402"/>
    <path class="cls-1" d="M718.439,313.866a1.933,1.933,0,1,1,1.933-1.933A1.944,1.944,0,0,1,718.439,313.866Z" transform="translate(-484.598 -248.425)"/>
    <g>
      <path class="cls-1" d="M817.674,313.866a1.933,1.933,0,1,1,1.932-1.933A1.944,1.944,0,0,1,817.674,313.866Z" transform="translate(-484.598 -248.425)"/>
      <path class="cls-1" d="M831.831,313.866a1.933,1.933,0,1,1,1.933-1.933A1.944,1.944,0,0,1,831.831,313.866Z" transform="translate(-484.598 -248.425)"/>
      <path class="cls-1" d="M845.987,313.866a1.933,1.933,0,1,1,1.933-1.933A1.944,1.944,0,0,1,845.987,313.866Z" transform="translate(-484.598 -248.425)"/>
    </g>
    <path class="cls-1" d="M713.28,323.3c-.169,0-.348,0-.348-.2s.179-.2.348-.2h5.391c.169,0,.349,0,.349.2s-.18.2-.349.2Z" transform="translate(-484.598 -248.425)"/>
    <path class="cls-1" d="M722.839,324.8c0,.368.029.478.927.478h.318v.309c-.349-.03-1.216-.03-1.614-.03s-1.266,0-1.615.03v-.309h.32c.9,0,.927-.119.927-.478v-5.162a2.99,2.99,0,0,1-1.306.259v-.309a2.463,2.463,0,0,0,1.813-.637c.23,0,.23.02.23.259Z" transform="translate(-484.598 -248.425)"/>
    <g>
      <path class="cls-1" d="M734.444,325.128a1.863,1.863,0,0,1-3.378.149,5.052,5.052,0,0,1-.448-2.4,5.343,5.343,0,0,1,.368-2.262,1.852,1.852,0,0,1,3.428-.07,7.035,7.035,0,0,1,.03,4.584Zm-.568-.309a19.262,19.262,0,0,0,.011-4.006c-.19-.986-.848-1.166-1.176-1.166-.249,0-1,.09-1.187,1.276a20.676,20.676,0,0,0,.031,3.936c.179.956.767,1.205,1.156,1.205C733.159,326.064,733.727,325.766,733.876,324.819Z" transform="translate(-484.598 -248.425)"/>
      <path class="cls-1" d="M747.316,325.277c0,.369.03.478.927.478h.319v.309c-.349-.029-1.216-.029-1.615-.029s-1.265,0-1.614.029v-.309h.319c.9,0,.927-.119.927-.478v-5.161a2.986,2.986,0,0,1-1.306.259v-.309a2.461,2.461,0,0,0,1.814-.638c.229,0,.229.02.229.26Z" transform="translate(-484.598 -248.425)"/>
      <path class="cls-1" d="M761.6,325.3a3.24,3.24,0,0,0,.947-.08,3.3,3.3,0,0,0,.219-.886h.249l-.279,1.733h-3.7c0-.239,0-.259.109-.368l1.913-2.133a3.561,3.561,0,0,0,1.047-2.2c0-.817-.428-1.624-1.336-1.624a1.437,1.437,0,0,0-1.344,1.016.418.418,0,0,1,.13-.009.5.5,0,0,1,.527.518.524.524,0,1,1-1.046-.03,1.841,1.841,0,0,1,1.863-1.8,1.958,1.958,0,0,1,2.113,1.933c0,1-.6,1.535-2.153,2.91l-1.055,1.026Z" transform="translate(-484.598 -248.425)"/>
      <path class="cls-1" d="M777.254,324.361a2.033,2.033,0,0,1-2.122,1.923,1.817,1.817,0,0,1-2.013-1.565.558.558,0,1,1,1.115-.02.546.546,0,0,1-.657.549,1.816,1.816,0,0,0,1.525.757c.438,0,1.126-.289,1.126-1.644,0-.977-.37-1.654-1.186-1.654H774.6c-.17,0-.24,0-.24-.11s.07-.11.15-.119.308-.02.388-.03a.966.966,0,0,0,.887-.519,2.487,2.487,0,0,0,.279-1.136c0-.9-.548-1.115-.957-1.115a1.615,1.615,0,0,0-1.325.617c.15,0,.618,0,.618.5a.508.508,0,1,1-1.016-.009c0-.758.757-1.356,1.763-1.356.956,0,1.833.558,1.833,1.376a1.917,1.917,0,0,1-1.394,1.753A1.923,1.923,0,0,1,777.254,324.361Z" transform="translate(-484.598 -248.425)"/>
      <path class="cls-1" d="M787.137,324.42v-.309l3.058-4.673c.08-.119.11-.119.2-.119.159,0,.159.059.159.259v4.533h1v.309h-1v.867c0,.359.02.468.758.468h.209v.309c-.409-.029-.937-.029-1.356-.029s-.936,0-1.345.029v-.309h.209c.738,0,.758-.109.758-.468v-.867Zm2.71-4.025-2.432,3.716h2.432Z" transform="translate(-484.598 -248.425)"/>
      <path class="cls-1" d="M803.315,326.284a1.829,1.829,0,0,1-1.8-1.824.494.494,0,1,1,.488.449.468.468,0,0,1-.169-.02,1.552,1.552,0,0,0,1.465,1.116,1.245,1.245,0,0,0,1.065-.648,2.887,2.887,0,0,0,.24-1.365,3.059,3.059,0,0,0-.18-1.256.972.972,0,0,0-.847-.637,1.5,1.5,0,0,0-1.285.7c-.04.06-.06.09-.13.09-.138,0-.138-.08-.138-.259v-2.949c0-.16,0-.24.1-.24a.3.3,0,0,1,.119.03,3.226,3.226,0,0,0,1.325.279,3.293,3.293,0,0,0,1.356-.289.144.144,0,0,1,.079-.03.1.1,0,0,1,.1.11,2.174,2.174,0,0,1-1.923,1.036,3.188,3.188,0,0,1-.847-.129v1.943a1.753,1.753,0,0,1,1.266-.509,2.045,2.045,0,0,1,1.892,2.183A2.2,2.2,0,0,1,803.315,326.284Z" transform="translate(-484.598 -248.425)"/>
      <path class="cls-1" d="M817.731,321.81a2.09,2.09,0,0,1,1.994,2.222,2.133,2.133,0,0,1-2.053,2.252c-.927,0-2.082-.708-2.082-3.368,0-2.2,1.345-3.488,2.62-3.488.827,0,1.266.479,1.266,1.076a.459.459,0,1,1-.917.02c0-.448.4-.448.547-.448a1.025,1.025,0,0,0-.877-.4c-.507,0-1.743.358-1.743,2.879v.239A1.378,1.378,0,0,1,817.731,321.81Zm.927,3.547a5.3,5.3,0,0,0-.01-2.7.96.96,0,0,0-.926-.618c-.9,0-1.216,1-1.216,1.774a4.843,4.843,0,0,0,.18,1.444,1.144,1.144,0,0,0,.986.748A1.042,1.042,0,0,0,818.658,325.357Z" transform="translate(-484.598 -248.425)"/>
      <path class="cls-1" d="M832.726,321.89a4.347,4.347,0,0,0-.618,1.7,11.136,11.136,0,0,0-.11,1.635v.508c0,.1,0,.548-.458.548s-.458-.449-.458-.548a6.952,6.952,0,0,1,1.226-3.747c.218-.329,1-1.415,1.115-1.574H831.36a5.006,5.006,0,0,0-.975.06,2.771,2.771,0,0,0-.25.906h-.249l.329-2.052h.249c.04.189.059.318,1.275.318h2.422c0,.21,0,.23-.09.35Z" transform="translate(-484.598 -248.425)"/>
      <path class="cls-1" d="M847.55,323.165a1.8,1.8,0,0,1,.488,1.226,1.987,1.987,0,0,1-2.072,1.893,1.9,1.9,0,0,1-2.063-1.724,2.2,2.2,0,0,1,1.435-1.833,6.351,6.351,0,0,1-.728-.539,1.587,1.587,0,0,1-.438-1.1,1.733,1.733,0,0,1,1.8-1.664,1.647,1.647,0,0,1,1.793,1.485,1.853,1.853,0,0,1-1.206,1.545A4.212,4.212,0,0,1,847.55,323.165ZM844.4,324.56a1.5,1.5,0,0,0,1.575,1.445,1.435,1.435,0,0,0,1.564-1.256,1.334,1.334,0,0,0-.748-1.1l-1.226-.777A1.953,1.953,0,0,0,844.4,324.56Zm1.943-2.252a1.692,1.692,0,0,0,.986-1.395,1.3,1.3,0,0,0-1.364-1.235c-.708,0-1.356.418-1.356,1.026a.93.93,0,0,0,.5.807Z" transform="translate(-484.598 -248.425)"/>
    </g>
    <path class="cls-1" d="M869.936,313.026a3.469,3.469,0,0,0,1.106-.926c.717-.8,1.176-.877,1.454-.877a.637.637,0,0,1,.678.628.574.574,0,0,1-.548.607.348.348,0,0,1-.379-.348.563.563,0,0,1,.568-.538c-.02-.02-.02-.03-.04-.04a.331.331,0,0,0-.209-.08c-.02-.01-.03-.01-.089-.01-.489,0-.947.429-1.425.956a4.356,4.356,0,0,1-.858.738c.848.11,1.476.4,1.476,1.046a1.024,1.024,0,0,1-.04.309,2.59,2.59,0,0,0-.08.558c0,.359.13.469.319.469.439,0,.667-.509.866-1.236.031-.14.04-.179.14-.179.03,0,.12,0,.12.1a3.612,3.612,0,0,1-.359,1.006.911.911,0,0,1-.787.528.92.92,0,0,1-.917-.986,2.211,2.211,0,0,1,.04-.349.578.578,0,0,0,.03-.209c0-.657-.817-.817-1.156-.847-.06.249-.508,2.093-.558,2.182a.405.405,0,0,1-.339.209.273.273,0,0,1-.289-.278.616.616,0,0,1,.04-.22l1.445-5.739.03-.2c0-.1-.02-.17-.5-.17-.15,0-.239,0-.239-.119,0-.179.109-.189.189-.2.259-.02.986-.1,1.216-.1.129,0,.129.1.129.11Z" transform="translate(-484.598 -248.425)"/>
    <path class="cls-2" d="M729.085,298.031h7.087m-7.087-14.173h7.087m-7.087-14.173h7.087" transform="translate(-484.598 -248.425)"/>
    <path class="cls-1" d="M722.472,300.434c0,.368.029.478.926.478h.319v.309c-.349-.03-1.216-.03-1.614-.03s-1.266,0-1.615.03v-.309h.32c.9,0,.926-.12.926-.478v-5.162a2.984,2.984,0,0,1-1.305.259v-.309a2.46,2.46,0,0,0,1.813-.638c.23,0,.23.02.23.26Z" transform="translate(-484.598 -248.425)"/>
    <path class="cls-1" d="M722.6,286.3a3.24,3.24,0,0,0,.947-.08,3.3,3.3,0,0,0,.219-.886h.249l-.279,1.733h-3.7c0-.239,0-.259.109-.368l1.914-2.133a3.565,3.565,0,0,0,1.046-2.2c0-.817-.428-1.624-1.335-1.624a1.437,1.437,0,0,0-1.345,1.016.421.421,0,0,1,.13-.009.5.5,0,0,1,.527.518.524.524,0,1,1-1.046-.03,1.841,1.841,0,0,1,1.863-1.8,1.958,1.958,0,0,1,2.113,1.933c0,1-.6,1.535-2.153,2.91l-1.055,1.026Z" transform="translate(-484.598 -248.425)"/>
    <path class="cls-1" d="M724.1,271.205a2.033,2.033,0,0,1-2.122,1.922,1.817,1.817,0,0,1-2.013-1.564.558.558,0,1,1,1.115-.02.545.545,0,0,1-.657.548,1.814,1.814,0,0,0,1.524.758c.439,0,1.126-.289,1.126-1.644,0-.977-.369-1.655-1.185-1.655h-.439c-.17,0-.239,0-.239-.109s.069-.11.149-.12.309-.02.389-.029a.97.97,0,0,0,.887-.519,2.487,2.487,0,0,0,.279-1.136c0-.9-.549-1.116-.957-1.116a1.616,1.616,0,0,0-1.325.618c.149,0,.618,0,.618.5a.509.509,0,1,1-1.017-.01c0-.757.757-1.355,1.764-1.355.956,0,1.833.558,1.833,1.375a1.917,1.917,0,0,1-1.394,1.754A1.922,1.922,0,0,1,724.1,271.205Z" transform="translate(-484.598 -248.425)"/>
    <line class="cls-2" x1="248.03" y1="63.779" x2="248.03" y2="49.606"/>
    <path class="cls-1" d="M732.721,299.709a1.933,1.933,0,1,1,1.932-1.933A1.944,1.944,0,0,1,732.721,299.709Z" transform="translate(-484.598 -248.425)"/>
    <g>
      <path class="cls-1" d="M789.361,313.866a1.933,1.933,0,1,1,1.933-1.933A1.944,1.944,0,0,1,789.361,313.866Z" transform="translate(-484.598 -248.425)"/>
      <path class="cls-1" d="M803.519,313.866a1.933,1.933,0,1,1,1.932-1.933A1.944,1.944,0,0,1,803.519,313.866Z" transform="translate(-484.598 -248.425)"/>
    </g>
    <path class="cls-1" d="M744.977,256.389a3.877,3.877,0,0,0-.17.877c0,.339.16.658.548.658.319,0,1-.239,1.326-1.306.019-.07.039-.109.129-.109.03,0,.12,0,.12.1,0,.249-.569,1.535-1.595,1.535a1.1,1.1,0,0,1-1.076-.757,1.326,1.326,0,0,1-1.046.757c-.439,0-.937-.2-.937-.658a.567.567,0,0,1,.548-.578.342.342,0,0,1,.369.349.565.565,0,0,1-.468.538.954.954,0,0,0,.5.13c.438,0,.787-.419.946-1.037a14.471,14.471,0,0,0,.538-2.371c0-.578-.349-.668-.538-.668-.338,0-1,.25-1.335,1.306-.02.089-.05.109-.129.109-.02,0-.12,0-.12-.1,0-.249.568-1.535,1.6-1.535a1.1,1.1,0,0,1,1.077.757,1.286,1.286,0,0,1,1.046-.757c.338,0,.926.14.926.658a.555.555,0,0,1-.538.578.349.349,0,0,1-.379-.349.58.58,0,0,1,.479-.538.974.974,0,0,0-.5-.13c-.7,0-.927.917-.987,1.176Z" transform="translate(-484.598 -248.425)"/>
    <path class="cls-1" d="M748.8,260.524V250.56h1.365v.4H749.2v9.166h.967v.4Z" transform="translate(-484.598 -248.425)"/>
    <path class="cls-1" d="M752.209,255.433a3.465,3.465,0,0,0,1.106-.927c.717-.8,1.176-.877,1.455-.877a.636.636,0,0,1,.677.628.574.574,0,0,1-.548.608.348.348,0,0,1-.378-.349.562.562,0,0,1,.568-.538c-.021-.02-.021-.03-.04-.04a.333.333,0,0,0-.209-.08c-.021-.01-.03-.01-.09-.01-.488,0-.946.429-1.425.957a4.378,4.378,0,0,1-.857.737c.847.11,1.475.4,1.475,1.046a1.024,1.024,0,0,1-.04.309,2.6,2.6,0,0,0-.08.558c0,.359.13.469.32.469.438,0,.667-.508.866-1.236.03-.14.04-.179.139-.179.031,0,.121,0,.121.1a3.643,3.643,0,0,1-.36,1.007.912.912,0,0,1-.787.528.921.921,0,0,1-.917-.987,2.308,2.308,0,0,1,.04-.348.583.583,0,0,0,.03-.209c0-.658-.817-.818-1.156-.848-.059.249-.508,2.093-.557,2.183a.409.409,0,0,1-.339.209.274.274,0,0,1-.289-.279.609.609,0,0,1,.04-.219l1.444-5.74.03-.2c0-.1-.019-.169-.5-.169-.149,0-.239,0-.239-.12,0-.179.109-.189.189-.2.259-.02.987-.1,1.216-.1.129,0,.129.1.129.11Z" transform="translate(-484.598 -248.425)"/>
    <path class="cls-1" d="M757.485,260.524H756.12v-.4h.967v-9.166h-.967v-.4h1.365Z" transform="translate(-484.598 -248.425)"/>
    <path class="cls-1" d="M775.2,313.866a1.933,1.933,0,1,1,1.933-1.933A1.944,1.944,0,0,1,775.2,313.866Z" transform="translate(-484.598 -248.425)"/>
    <line class="cls-2" x1="35.433" y1="113.385" x2="42.519" y2="113.385"/>
    <path class="cls-1" d="M515.064,363.369a2.032,2.032,0,0,1-2.122,1.923,1.818,1.818,0,0,1-2.013-1.565.558.558,0,1,1,1.116-.02.545.545,0,0,1-.657.548,1.812,1.812,0,0,0,1.524.758c.439,0,1.126-.289,1.126-1.644,0-.977-.369-1.655-1.186-1.655h-.438c-.169,0-.239,0-.239-.109s.07-.11.149-.12.309-.02.389-.029a.968.968,0,0,0,.887-.519,2.5,2.5,0,0,0,.278-1.136c0-.9-.547-1.115-.956-1.115a1.614,1.614,0,0,0-1.325.617c.149,0,.617,0,.617.5a.508.508,0,1,1-1.016-.009c0-.758.758-1.356,1.764-1.356.956,0,1.833.558,1.833,1.376a1.918,1.918,0,0,1-1.395,1.753A1.921,1.921,0,0,1,515.064,363.369Z" transform="translate(-484.598 -248.425)"/>
    <polyline points="158.456 158.172 162.991 155.905 158.456 153.637 159.59 155.905"/>
    <line class="cls-2" y1="155.905" x2="159.59" y2="155.905"/>
    <path class="cls-1" d="M486.483,415.452c-.169,0-.348,0-.348-.2s.179-.2.348-.2h5.391c.169,0,.349,0,.349.2s-.18.2-.349.2Z" transform="translate(-484.598 -248.425)"/>
    <path class="cls-1" d="M496.164,416.977a3.233,3.233,0,0,0,.946-.08,3.3,3.3,0,0,0,.219-.886h.249l-.279,1.733h-3.7c0-.239,0-.259.109-.369l1.913-2.132a3.57,3.57,0,0,0,1.046-2.2c0-.817-.428-1.624-1.335-1.624a1.438,1.438,0,0,0-1.345,1.017.381.381,0,0,1,.13-.01.5.5,0,0,1,.528.517.524.524,0,1,1-1.046-.03,1.84,1.84,0,0,1,1.863-1.8,1.957,1.957,0,0,1,2.112,1.933c0,1-.6,1.534-2.152,2.909l-1.056,1.027Z" transform="translate(-484.598 -248.425)"/>
    <path class="cls-1" d="M534.236,406.022a1.933,1.933,0,1,1,1.933-1.933A1.943,1.943,0,0,1,534.236,406.022Z" transform="translate(-484.598 -248.425)"/>
    <polyline points="37.701 96.661 35.433 92.126 33.165 96.661 35.433 95.527"/>
    <line class="cls-2" x1="35.433" y1="159.448" x2="35.433" y2="95.527"/>
    <path class="cls-1" d="M548.4,406.022a1.933,1.933,0,1,1,1.933-1.933A1.943,1.943,0,0,1,548.4,406.022Z" transform="translate(-484.598 -248.425)"/>
    <g>
      <path class="cls-1" d="M605.158,406.022a1.933,1.933,0,1,1,1.933-1.933A1.943,1.943,0,0,1,605.158,406.022Z" transform="translate(-484.598 -248.425)"/>
      <path class="cls-1" d="M619.315,406.022a1.933,1.933,0,1,1,1.933-1.933A1.943,1.943,0,0,1,619.315,406.022Z" transform="translate(-484.598 -248.425)"/>
      <path class="cls-1" d="M633.472,406.022a1.933,1.933,0,1,1,1.933-1.933A1.943,1.943,0,0,1,633.472,406.022Z" transform="translate(-484.598 -248.425)"/>
    </g>
    <path class="cls-1" d="M500.765,415.452c-.17,0-.349,0-.349-.2s.179-.2.349-.2h5.39c.17,0,.349,0,.349.2s-.179.2-.349.2Z" transform="translate(-484.598 -248.425)"/>
    <path class="cls-1" d="M510.315,416.957c0,.368.03.479.927.479h.319v.308c-.349-.03-1.216-.03-1.615-.03s-1.265,0-1.613.03v-.308h.318c.9,0,.927-.121.927-.479V411.8a2.986,2.986,0,0,1-1.306.259v-.309a2.462,2.462,0,0,0,1.814-.638c.229,0,.229.02.229.259Z" transform="translate(-484.598 -248.425)"/>
    <g>
      <path class="cls-1" d="M521.8,417.284a1.864,1.864,0,0,1-3.378.15,5.044,5.044,0,0,1-.448-2.4,5.321,5.321,0,0,1,.368-2.261,1.827,1.827,0,0,1,1.734-1.186,1.848,1.848,0,0,1,1.694,1.115,7.052,7.052,0,0,1,.03,4.584Zm-.568-.308a19.351,19.351,0,0,0,.01-4.006c-.19-.987-.847-1.166-1.176-1.166-.249,0-1,.09-1.186,1.275a13.491,13.491,0,0,0-.079,1.834,13.651,13.651,0,0,0,.109,2.1c.179.957.767,1.206,1.156,1.206C520.518,418.221,521.086,417.922,521.236,416.976Z" transform="translate(-484.598 -248.425)"/>
      <path class="cls-1" d="M534.675,417.434c0,.368.03.478.927.478h.318v.309c-.348-.031-1.215-.031-1.614-.031s-1.265,0-1.614.031v-.309h.319c.9,0,.927-.12.927-.478v-5.162a2.988,2.988,0,0,1-1.306.259v-.308a2.462,2.462,0,0,0,1.814-.638c.229,0,.229.019.229.259Z" transform="translate(-484.598 -248.425)"/>
      <path class="cls-1" d="M548.962,417.453a3.272,3.272,0,0,0,.946-.079,3.233,3.233,0,0,0,.219-.887h.249l-.278,1.734h-3.7c0-.24,0-.259.11-.369l1.913-2.132a3.573,3.573,0,0,0,1.046-2.2c0-.818-.428-1.624-1.335-1.624a1.437,1.437,0,0,0-1.345,1.016.37.37,0,0,1,.129-.01.5.5,0,0,1,.528.518.524.524,0,1,1-1.046-.03,1.84,1.84,0,0,1,1.863-1.8,1.957,1.957,0,0,1,2.112,1.933c0,1-.6,1.534-2.151,2.909l-1.057,1.026Z" transform="translate(-484.598 -248.425)"/>
      <path class="cls-1" d="M564.613,416.517a2.031,2.031,0,0,1-2.122,1.922,1.817,1.817,0,0,1-2.013-1.563.558.558,0,1,1,1.116-.021.545.545,0,0,1-.657.548,1.812,1.812,0,0,0,1.524.758c.438,0,1.126-.289,1.126-1.644,0-.977-.369-1.654-1.186-1.654h-.438c-.17,0-.239,0-.239-.11s.069-.109.149-.119.309-.021.389-.03a.966.966,0,0,0,.886-.518,2.492,2.492,0,0,0,.279-1.136c0-.9-.548-1.116-.956-1.116a1.614,1.614,0,0,0-1.325.617c.149,0,.617,0,.617.5a.508.508,0,1,1-1.016-.011c0-.756.757-1.354,1.764-1.354.956,0,1.833.558,1.833,1.375a1.8,1.8,0,0,0,.269,3.557Z" transform="translate(-484.598 -248.425)"/>
      <path class="cls-1" d="M574.5,416.576v-.308l3.059-4.673c.08-.12.11-.12.2-.12.16,0,.16.06.16.259v4.534h1v.308h-1v.867c0,.359.02.469.757.469h.209v.309c-.408-.031-.936-.031-1.355-.031s-.936,0-1.345.031v-.309h.21c.737,0,.757-.11.757-.469v-.867Zm2.711-4.025-2.432,3.717h2.432Z" transform="translate(-484.598 -248.425)"/>
      <path class="cls-1" d="M590.675,418.439a1.828,1.828,0,0,1-1.8-1.823.494.494,0,1,1,.488.448.466.466,0,0,1-.17-.019,1.554,1.554,0,0,0,1.465,1.116,1.249,1.249,0,0,0,1.067-.647,2.913,2.913,0,0,0,.238-1.366,3.072,3.072,0,0,0-.179-1.255.971.971,0,0,0-.847-.638,1.5,1.5,0,0,0-1.285.7c-.04.061-.06.09-.129.09-.14,0-.14-.079-.14-.259v-2.949c0-.159,0-.239.1-.239a.293.293,0,0,1,.12.03,3.236,3.236,0,0,0,1.325.278,3.287,3.287,0,0,0,1.355-.289.15.15,0,0,1,.08-.029.1.1,0,0,1,.1.109,2.172,2.172,0,0,1-1.923,1.036,3.148,3.148,0,0,1-.847-.129v1.943a1.75,1.75,0,0,1,1.265-.508,2.045,2.045,0,0,1,1.893,2.182A2.2,2.2,0,0,1,590.675,418.439Z" transform="translate(-484.598 -248.425)"/>
    </g>
    <g>
      <path class="cls-1" d="M605.22,413.966a2.09,2.09,0,0,1,1.993,2.222,2.132,2.132,0,0,1-2.053,2.251c-.927,0-2.082-.707-2.082-3.367,0-2.2,1.345-3.487,2.62-3.487.827,0,1.266.478,1.266,1.076a.459.459,0,1,1-.917.02c0-.449.4-.449.548-.449a1.03,1.03,0,0,0-.877-.4c-.508,0-1.743.358-1.743,2.879v.239A1.377,1.377,0,0,1,605.22,413.966Zm.926,3.548a5.314,5.314,0,0,0-.009-2.7.962.962,0,0,0-.927-.618c-.9,0-1.216,1-1.216,1.774a4.853,4.853,0,0,0,.18,1.445,1.144,1.144,0,0,0,.986.747A1.041,1.041,0,0,0,606.146,417.514Z" transform="translate(-484.598 -248.425)"/>
      <path class="cls-1" d="M620.214,414.046a4.366,4.366,0,0,0-.618,1.7,11.122,11.122,0,0,0-.11,1.634v.508c0,.1,0,.547-.458.547s-.459-.448-.459-.547a6.957,6.957,0,0,1,1.226-3.746c.219-.33,1.007-1.416,1.116-1.575h-2.062a5.027,5.027,0,0,0-.977.06,2.793,2.793,0,0,0-.249.907h-.249l.329-2.053h.249c.04.19.06.319,1.275.319h2.421c0,.209,0,.229-.089.348Z" transform="translate(-484.598 -248.425)"/>
      <path class="cls-1" d="M635.039,415.321a1.8,1.8,0,0,1,.488,1.226,1.987,1.987,0,0,1-2.073,1.892,1.9,1.9,0,0,1-2.062-1.723,2.2,2.2,0,0,1,1.435-1.833,6.3,6.3,0,0,1-.728-.538,1.6,1.6,0,0,1-.438-1.1,1.732,1.732,0,0,1,1.8-1.664,1.646,1.646,0,0,1,1.794,1.484,1.849,1.849,0,0,1-1.206,1.544A4.267,4.267,0,0,1,635.039,415.321Zm-3.149,1.395a1.5,1.5,0,0,0,1.574,1.445,1.434,1.434,0,0,0,1.564-1.256,1.332,1.332,0,0,0-.747-1.095l-1.225-.778A1.953,1.953,0,0,0,631.89,416.716Zm1.943-2.252a1.689,1.689,0,0,0,.986-1.395,1.3,1.3,0,0,0-1.365-1.235c-.707,0-1.355.418-1.355,1.026a.93.93,0,0,0,.5.807Z" transform="translate(-484.598 -248.425)"/>
    </g>
    <path class="cls-1" d="M657.287,405.183a3.465,3.465,0,0,0,1.106-.927c.718-.8,1.176-.877,1.455-.877a.637.637,0,0,1,.677.628.573.573,0,0,1-.547.607.347.347,0,0,1-.379-.348.562.562,0,0,1,.568-.538c-.02-.02-.02-.03-.04-.04a.333.333,0,0,0-.209-.08c-.02-.009-.03-.009-.09-.009-.488,0-.947.427-1.425.956a4.378,4.378,0,0,1-.857.737c.847.109,1.475.4,1.475,1.047a1.021,1.021,0,0,1-.04.308,2.6,2.6,0,0,0-.08.558c0,.359.13.469.319.469.439,0,.668-.509.867-1.236.03-.139.04-.179.14-.179.029,0,.119,0,.119.1a3.566,3.566,0,0,1-.359,1.006.909.909,0,0,1-.787.529.92.92,0,0,1-.916-.987,2.186,2.186,0,0,1,.04-.348.583.583,0,0,0,.03-.209c0-.659-.818-.818-1.156-.848-.06.25-.509,2.093-.558,2.183a.41.41,0,0,1-.339.209.274.274,0,0,1-.289-.279.609.609,0,0,1,.04-.219l1.445-5.74.029-.2c0-.1-.02-.169-.5-.169-.149,0-.239,0-.239-.12,0-.18.109-.189.19-.2.258-.02.986-.1,1.215-.1.13,0,.13.1.13.11Z" transform="translate(-484.598 -248.425)"/>
    <path class="cls-2" d="M516.488,390.157h7.087m-7.087-14.173h7.087" transform="translate(-484.598 -248.425)"/>
    <path class="cls-1" d="M509.838,392.605c0,.369.031.479.927.479h.319v.309c-.349-.031-1.215-.031-1.614-.031s-1.265,0-1.614.031v-.309h.319c.9,0,.926-.12.926-.479v-5.161a2.984,2.984,0,0,1-1.305.259V387.4a2.459,2.459,0,0,0,1.813-.638c.229,0,.229.019.229.259Z" transform="translate(-484.598 -248.425)"/>
    <path class="cls-1" d="M509.968,378.461a3.237,3.237,0,0,0,.947-.08,3.3,3.3,0,0,0,.219-.886h.249l-.279,1.734h-3.7c0-.24,0-.26.11-.369l1.913-2.132a3.57,3.57,0,0,0,1.046-2.2c0-.817-.428-1.624-1.335-1.624a1.437,1.437,0,0,0-1.345,1.016.417.417,0,0,1,.129-.009.5.5,0,0,1,.529.518.524.524,0,1,1-1.047-.03,1.842,1.842,0,0,1,1.864-1.8,1.958,1.958,0,0,1,2.112,1.933c0,1-.6,1.535-2.152,2.91l-1.056,1.026Z" transform="translate(-484.598 -248.425)"/>
    <g>
      <path class="cls-1" d="M576.721,406.022a1.933,1.933,0,1,1,1.932-1.933A1.944,1.944,0,0,1,576.721,406.022Z" transform="translate(-484.598 -248.425)"/>
      <path class="cls-1" d="M590.877,406.022a1.933,1.933,0,1,1,1.933-1.933A1.943,1.943,0,0,1,590.877,406.022Z" transform="translate(-484.598 -248.425)"/>
    </g>
    <path class="cls-1" d="M530.539,348.545a3.86,3.86,0,0,0-.169.877c0,.339.159.658.547.658.319,0,1-.239,1.326-1.306.02-.069.04-.109.13-.109.029,0,.119,0,.119.1,0,.249-.568,1.534-1.595,1.534a1.1,1.1,0,0,1-1.075-.757,1.325,1.325,0,0,1-1.047.757c-.438,0-.936-.2-.936-.657a.567.567,0,0,1,.548-.579.341.341,0,0,1,.368.349.565.565,0,0,1-.468.538.958.958,0,0,0,.5.13c.439,0,.787-.419.947-1.037a14.471,14.471,0,0,0,.538-2.371c0-.578-.349-.668-.538-.668-.339,0-1,.25-1.335,1.306-.02.089-.05.109-.13.109-.02,0-.12,0-.12-.1,0-.249.569-1.535,1.6-1.535a1.1,1.1,0,0,1,1.076.757,1.289,1.289,0,0,1,1.046-.757c.339,0,.927.14.927.658a.556.556,0,0,1-.538.578.348.348,0,0,1-.379-.349.579.579,0,0,1,.478-.538.974.974,0,0,0-.5-.13c-.7,0-.926.917-.986,1.176Z" transform="translate(-484.598 -248.425)"/>
    <path class="cls-1" d="M534.366,352.681v-9.965h1.365v.4h-.966v9.167h.966v.4Z" transform="translate(-484.598 -248.425)"/>
    <path class="cls-3" d="M538.808,350.3c-2.4,0-2.412-2.3-2.412-3.288s.011-3.348,2.412-3.348,2.411,2.381,2.411,3.348C541.219,348.007,541.2,350.3,538.808,350.3Zm1.066-1.425a18.39,18.39,0,0,0,.07-1.982,8.156,8.156,0,0,0-.17-2.243,1.058,1.058,0,0,0-2.022.359,13.341,13.341,0,0,0-.08,1.884,16.2,16.2,0,0,0,.09,2.1,1.066,1.066,0,0,0,1.046.946C539.107,349.94,539.734,349.8,539.874,348.874Z" transform="translate(-484.598 -248.425)"/>
    <path class="cls-1" d="M545.155,347.9c-.169,0-.348,0-.348-.2s.179-.2.348-.2h5.391c.169,0,.349,0,.349.2s-.18.2-.349.2Z" transform="translate(-484.598 -248.425)"/>
    <path class="cls-1" d="M555.771,347.589a3.465,3.465,0,0,0,1.106-.927c.718-.8,1.176-.877,1.456-.877a.637.637,0,0,1,.677.628.574.574,0,0,1-.548.608.348.348,0,0,1-.379-.349.564.564,0,0,1,.568-.538c-.02-.02-.02-.03-.04-.04a.336.336,0,0,0-.209-.079c-.02-.011-.03-.011-.089-.011-.489,0-.947.429-1.425.957a4.408,4.408,0,0,1-.857.737c.846.11,1.474.4,1.474,1.047a1.03,1.03,0,0,1-.04.309,2.644,2.644,0,0,0-.079.557c0,.359.129.469.319.469.438,0,.667-.508.866-1.236.031-.139.04-.179.14-.179.03,0,.12,0,.12.1a3.612,3.612,0,0,1-.359,1.006.91.91,0,0,1-.787.528.921.921,0,0,1-.917-.986,2.185,2.185,0,0,1,.04-.349.583.583,0,0,0,.03-.209c0-.658-.817-.817-1.156-.847-.06.249-.508,2.092-.558,2.182a.409.409,0,0,1-.339.209.274.274,0,0,1-.289-.279.609.609,0,0,1,.04-.219l1.445-5.739.03-.2c0-.1-.02-.169-.5-.169-.15,0-.24,0-.24-.12,0-.179.11-.189.19-.2.259-.02.986-.1,1.215-.1.13,0,.13.1.13.11Z" transform="translate(-484.598 -248.425)"/>
    <path class="cls-1" d="M561.048,352.681h-1.365v-.4h.966v-9.167h-.966v-.4h1.365Z" transform="translate(-484.598 -248.425)"/>
    <path class="cls-1" d="M562.557,406.022a1.933,1.933,0,1,1,1.932-1.933A1.943,1.943,0,0,1,562.557,406.022Z" transform="translate(-484.598 -248.425)"/>
    <line class="cls-2" x1="21.26" y1="155.905" x2="21.26" y2="127.558"/>
    <path class="cls-1" d="M505.916,377.584a1.933,1.933,0,1,1,1.933-1.933A1.943,1.943,0,0,1,505.916,377.584Z" transform="translate(-484.598 -248.425)"/>
    <line class="cls-2" x1="7.087" y1="155.905" x2="7.087" y2="113.385"/>
    <path class="cls-1" d="M491.76,363.428a1.933,1.933,0,1,1,1.932-1.933A1.944,1.944,0,0,1,491.76,363.428Z" transform="translate(-484.598 -248.425)"/>
    <line class="cls-2" x1="35.433" y1="155.905" x2="35.433" y2="141.732"/>
    <path class="cls-1" d="M520.08,391.866a1.933,1.933,0,1,1,1.933-1.933A1.944,1.944,0,0,1,520.08,391.866Z" transform="translate(-484.598 -248.425)"/>
    <line class="cls-2" x1="239.583" y1="113.385" x2="246.443" y2="113.385"/>
    <path class="cls-1" d="M715.939,363.369a2.033,2.033,0,0,1-2.122,1.923,1.816,1.816,0,0,1-2.012-1.565.558.558,0,1,1,1.115-.02.545.545,0,0,1-.657.548,1.812,1.812,0,0,0,1.524.758c.439,0,1.126-.289,1.126-1.644,0-.977-.369-1.655-1.185-1.655h-.439c-.17,0-.239,0-.239-.109s.069-.11.149-.12.309-.02.389-.029a.968.968,0,0,0,.887-.519,2.5,2.5,0,0,0,.279-1.136c0-.9-.549-1.115-.957-1.115a1.613,1.613,0,0,0-1.325.617c.149,0,.618,0,.618.5a.509.509,0,1,1-1.017-.009c0-.758.757-1.356,1.764-1.356.956,0,1.833.558,1.833,1.376a1.917,1.917,0,0,1-1.395,1.753A1.921,1.921,0,0,1,715.939,363.369Z" transform="translate(-484.598 -248.425)"/>
    <polyline points="358.467 158.172 363.003 155.905 358.467 153.637 359.601 155.905"/>
    <line class="cls-2" x1="205.284" y1="155.905" x2="359.601" y2="155.905"/>
    <path class="cls-1" d="M691.562,415.452c-.169,0-.349,0-.349-.2s.18-.2.349-.2h5.39c.169,0,.349,0,.349.2s-.18.2-.349.2Z" transform="translate(-484.598 -248.425)"/>
    <path class="cls-1" d="M701.249,416.977a.8.8,0,0,0,1.166-.966h.249l-.278,1.733h-3.7c0-.239,0-.259.11-.369l1.913-2.132a3.566,3.566,0,0,0,1.047-2.2c0-.817-.429-1.624-1.335-1.624a1.439,1.439,0,0,0-1.346,1.017.381.381,0,0,1,.13-.01.5.5,0,0,1,.527.517.524.524,0,1,1-1.046-.03,1.841,1.841,0,0,1,1.864-1.8,1.957,1.957,0,0,1,2.112,1.933c0,1-.6,1.534-2.152,2.909l-1.056,1.027Z" transform="translate(-484.598 -248.425)"/>
    <path class="cls-1" d="M696.721,406.022a1.933,1.933,0,1,1,1.932-1.933A1.944,1.944,0,0,1,696.721,406.022Z" transform="translate(-484.598 -248.425)"/>
    <polyline points="241.851 96.661 239.583 92.126 237.315 96.661 239.583 95.527"/>
    <line class="cls-2" x1="239.583" y1="159.448" x2="239.583" y2="95.527"/>
    <g>
      <path class="cls-1" d="M751.682,406.022a1.933,1.933,0,1,1,1.932-1.933A1.943,1.943,0,0,1,751.682,406.022Z" transform="translate(-484.598 -248.425)"/>
      <path class="cls-1" d="M806.526,406.022a1.933,1.933,0,1,1,1.933-1.933A1.943,1.943,0,0,1,806.526,406.022Z" transform="translate(-484.598 -248.425)"/>
    </g>
    <g>
      <path class="cls-1" d="M820.2,406.022a1.933,1.933,0,1,1,1.933-1.933A1.943,1.943,0,0,1,820.2,406.022Z" transform="translate(-484.598 -248.425)"/>
      <path class="cls-1" d="M834,406.022a1.933,1.933,0,1,1,1.933-1.933A1.943,1.943,0,0,1,834,406.022Z" transform="translate(-484.598 -248.425)"/>
    </g>
    <path class="cls-1" d="M705.366,415.452c-.169,0-.348,0-.348-.2s.179-.2.348-.2h5.391c.169,0,.348,0,.348.2s-.179.2-.348.2Z" transform="translate(-484.598 -248.425)"/>
    <path class="cls-1" d="M714.917,416.957c0,.368.029.479.927.479h.318v.308c-.349-.03-1.216-.03-1.614-.03s-1.266,0-1.614.03v-.308h.319c.9,0,.927-.121.927-.479V411.8a2.99,2.99,0,0,1-1.306.259v-.309a2.464,2.464,0,0,0,1.814-.638c.229,0,.229.02.229.259Z" transform="translate(-484.598 -248.425)"/>
    <g>
      <path class="cls-1" d="M725.921,417.284a1.864,1.864,0,0,1-3.378.15,5.056,5.056,0,0,1-.448-2.4,5.336,5.336,0,0,1,.368-2.261,1.828,1.828,0,0,1,1.734-1.186,1.848,1.848,0,0,1,1.694,1.115,7.052,7.052,0,0,1,.03,4.584Zm-.568-.308a19.167,19.167,0,0,0,.01-4.006c-.189-.987-.847-1.166-1.175-1.166-.25,0-1,.09-1.187,1.275a13.491,13.491,0,0,0-.079,1.834,13.651,13.651,0,0,0,.109,2.1c.18.957.768,1.206,1.157,1.206C724.636,418.221,725.2,417.922,725.353,416.976Z" transform="translate(-484.598 -248.425)"/>
      <path class="cls-1" d="M738.314,417.434c0,.368.03.478.927.478h.319v.309c-.349-.031-1.216-.031-1.615-.031s-1.265,0-1.614.031v-.309h.319c.9,0,.927-.12.927-.478v-5.162a2.986,2.986,0,0,1-1.306.259v-.308a2.461,2.461,0,0,0,1.814-.638c.229,0,.229.019.229.259Z" transform="translate(-484.598 -248.425)"/>
    </g>
    <g>
      <path class="cls-1" d="M752.241,417.453a.8.8,0,0,0,1.166-.966h.249l-.278,1.734h-3.7c0-.24,0-.259.109-.369l1.913-2.132a3.569,3.569,0,0,0,1.047-2.2c0-.818-.429-1.624-1.335-1.624a1.439,1.439,0,0,0-1.346,1.016.384.384,0,0,1,.13-.01.5.5,0,0,1,.528.518.524.524,0,1,1-1.046-.03,1.84,1.84,0,0,1,1.863-1.8,1.957,1.957,0,0,1,2.112,1.933c0,1-.6,1.534-2.152,2.909l-1.056,1.026Z" transform="translate(-484.598 -248.425)"/>
      <path class="cls-1" d="M767.415,416.517a2.032,2.032,0,0,1-2.122,1.922,1.817,1.817,0,0,1-2.013-1.563.558.558,0,1,1,1.116-.021.546.546,0,0,1-.658.548,1.814,1.814,0,0,0,1.525.758c.438,0,1.126-.289,1.126-1.644,0-.977-.369-1.654-1.186-1.654h-.438c-.17,0-.24,0-.24-.11s.07-.109.15-.119.308-.021.388-.03a.967.967,0,0,0,.887-.518,2.492,2.492,0,0,0,.279-1.136c0-.9-.548-1.116-.957-1.116a1.615,1.615,0,0,0-1.325.617c.15,0,.618,0,.618.5a.508.508,0,1,1-1.016-.011c0-.756.757-1.354,1.764-1.354.956,0,1.833.558,1.833,1.375a1.8,1.8,0,0,0,.269,3.557Z" transform="translate(-484.598 -248.425)"/>
      <path class="cls-1" d="M776.819,416.576v-.308l3.059-4.673c.08-.12.109-.12.2-.12.159,0,.159.06.159.259v4.534h1v.308h-1v.867c0,.359.021.469.758.469h.209v.309c-.408-.031-.936-.031-1.355-.031s-.937,0-1.345.031v-.309h.209c.737,0,.758-.11.758-.469v-.867Zm2.71-4.025-2.431,3.717h2.431Z" transform="translate(-484.598 -248.425)"/>
    </g>
    <g>
      <path class="cls-1" d="M792.641,418.439a1.828,1.828,0,0,1-1.8-1.823.494.494,0,1,1,.488.448.458.458,0,0,1-.169-.019,1.553,1.553,0,0,0,1.465,1.116,1.249,1.249,0,0,0,1.066-.647,2.9,2.9,0,0,0,.239-1.366,3.054,3.054,0,0,0-.18-1.255.971.971,0,0,0-.847-.638,1.5,1.5,0,0,0-1.285.7c-.04.061-.059.09-.13.09-.138,0-.138-.079-.138-.259v-2.949c0-.159,0-.239.1-.239a.3.3,0,0,1,.119.03,3.241,3.241,0,0,0,1.326.278,3.287,3.287,0,0,0,1.355-.289.148.148,0,0,1,.079-.029.1.1,0,0,1,.1.109,2.171,2.171,0,0,1-1.923,1.036,3.161,3.161,0,0,1-.847-.129v1.943a1.752,1.752,0,0,1,1.266-.508,2.045,2.045,0,0,1,1.893,2.182A2.2,2.2,0,0,1,792.641,418.439Z" transform="translate(-484.598 -248.425)"/>
      <path class="cls-1" d="M806.578,413.966a2.089,2.089,0,0,1,1.993,2.222,2.131,2.131,0,0,1-2.052,2.251c-.927,0-2.082-.707-2.082-3.367,0-2.2,1.344-3.487,2.62-3.487.827,0,1.265.478,1.265,1.076a.459.459,0,1,1-.917.02c0-.449.4-.449.548-.449a1.03,1.03,0,0,0-.877-.4c-.508,0-1.743.358-1.743,2.879v.239A1.377,1.377,0,0,1,806.578,413.966Zm.927,3.548a3.319,3.319,0,0,0,.17-1.336,3.282,3.282,0,0,0-.18-1.365.96.96,0,0,0-.927-.618c-.9,0-1.215,1-1.215,1.774a4.878,4.878,0,0,0,.179,1.445,1.148,1.148,0,0,0,.987.747A1.042,1.042,0,0,0,807.505,417.514Z" transform="translate(-484.598 -248.425)"/>
      <path class="cls-1" d="M821.094,414.046a4.344,4.344,0,0,0-.617,1.7,10.987,10.987,0,0,0-.111,1.634v.508c0,.1,0,.547-.458.547s-.458-.448-.458-.547a6.949,6.949,0,0,1,1.226-3.746c.219-.33,1.006-1.416,1.115-1.575h-2.062a5.017,5.017,0,0,0-.976.06,2.77,2.77,0,0,0-.25.907h-.249l.329-2.053h.249c.04.19.06.319,1.275.319h2.422c0,.209,0,.229-.09.348Z" transform="translate(-484.598 -248.425)"/>
    </g>
    <path class="cls-1" d="M835.561,415.321a1.8,1.8,0,0,1,.488,1.226,1.986,1.986,0,0,1-2.072,1.892,1.9,1.9,0,0,1-2.063-1.723,2.2,2.2,0,0,1,1.435-1.833,6.391,6.391,0,0,1-.728-.538,1.59,1.59,0,0,1-.438-1.1,1.732,1.732,0,0,1,1.8-1.664,1.645,1.645,0,0,1,1.793,1.484,1.849,1.849,0,0,1-1.205,1.544A4.267,4.267,0,0,1,835.561,415.321Zm-3.149,1.395a1.5,1.5,0,0,0,1.574,1.445,1.435,1.435,0,0,0,1.565-1.256,1.333,1.333,0,0,0-.748-1.095l-1.226-.778A1.953,1.953,0,0,0,832.412,416.716Zm1.942-2.252a1.69,1.69,0,0,0,.987-1.395,1.3,1.3,0,0,0-1.364-1.235c-.708,0-1.356.418-1.356,1.026a.93.93,0,0,0,.5.807Z" transform="translate(-484.598 -248.425)"/>
    <path class="cls-1" d="M856.967,405.183a3.476,3.476,0,0,0,1.106-.927c.717-.8,1.176-.877,1.454-.877a.637.637,0,0,1,.678.628.573.573,0,0,1-.548.607.348.348,0,0,1-.379-.348.563.563,0,0,1,.569-.538c-.021-.02-.021-.03-.04-.04a.333.333,0,0,0-.209-.08.2.2,0,0,0-.09-.009c-.488,0-.946.427-1.425.956a4.378,4.378,0,0,1-.857.737c.847.109,1.475.4,1.475,1.047a1.021,1.021,0,0,1-.04.308,2.6,2.6,0,0,0-.08.558c0,.359.13.469.319.469.439,0,.667-.509.867-1.236.03-.139.04-.179.139-.179.031,0,.12,0,.12.1a3.6,3.6,0,0,1-.359,1.006.911.911,0,0,1-.787.529.921.921,0,0,1-.917-.987,2.186,2.186,0,0,1,.04-.348.583.583,0,0,0,.03-.209c0-.659-.817-.818-1.156-.848-.06.25-.508,2.093-.558,2.183a.408.408,0,0,1-.339.209.275.275,0,0,1-.289-.279.609.609,0,0,1,.04-.219l1.445-5.74.03-.2c0-.1-.019-.169-.5-.169-.149,0-.239,0-.239-.12,0-.18.109-.189.189-.2.259-.02.987-.1,1.216-.1.129,0,.129.1.129.11Z" transform="translate(-484.598 -248.425)"/>
    <path class="cls-2" d="M720.751,390.157h6.86m-6.86-14.173h6.86" transform="translate(-484.598 -248.425)"/>
    <path class="cls-1" d="M714.315,392.605c0,.369.03.479.927.479h.319v.309c-.349-.031-1.216-.031-1.615-.031s-1.265,0-1.614.031v-.309h.319c.9,0,.927-.12.927-.479v-5.161a2.986,2.986,0,0,1-1.306.259V387.4a2.461,2.461,0,0,0,1.814-.638c.229,0,.229.019.229.259Z" transform="translate(-484.598 -248.425)"/>
    <path class="cls-1" d="M714.444,378.461a.8.8,0,0,0,1.166-.966h.249l-.278,1.734h-3.7c0-.24,0-.26.109-.369l1.913-2.132a3.566,3.566,0,0,0,1.047-2.2c0-.817-.429-1.624-1.335-1.624a1.439,1.439,0,0,0-1.346,1.016.425.425,0,0,1,.13-.009.5.5,0,0,1,.528.518.524.524,0,1,1-1.046-.03,1.841,1.841,0,0,1,1.863-1.8,1.957,1.957,0,0,1,2.112,1.933c0,1-.6,1.535-2.152,2.91l-1.056,1.026Z" transform="translate(-484.598 -248.425)"/>
    <g>
      <path class="cls-1" d="M779.041,406.022a1.933,1.933,0,1,1,1.933-1.933A1.943,1.943,0,0,1,779.041,406.022Z" transform="translate(-484.598 -248.425)"/>
      <path class="cls-1" d="M792.839,406.022a1.933,1.933,0,1,1,1.932-1.933A1.943,1.943,0,0,1,792.839,406.022Z" transform="translate(-484.598 -248.425)"/>
    </g>
    <path class="cls-1" d="M733.82,348.545a3.935,3.935,0,0,0-.17.877c0,.339.161.658.549.658.319,0,1-.239,1.325-1.306.02-.069.039-.109.129-.109.031,0,.12,0,.12.1,0,.249-.568,1.534-1.594,1.534a1.1,1.1,0,0,1-1.076-.757,1.324,1.324,0,0,1-1.046.757c-.439,0-.937-.2-.937-.657a.567.567,0,0,1,.548-.579.342.342,0,0,1,.369.349.565.565,0,0,1-.469.538.956.956,0,0,0,.5.13c.439,0,.788-.419.947-1.037a14.471,14.471,0,0,0,.538-2.371c0-.578-.349-.668-.538-.668-.338,0-1,.25-1.335,1.306-.02.089-.05.109-.129.109-.021,0-.12,0-.12-.1,0-.249.568-1.535,1.6-1.535a1.1,1.1,0,0,1,1.076.757,1.289,1.289,0,0,1,1.046-.757c.339,0,.927.14.927.658a.555.555,0,0,1-.538.578.348.348,0,0,1-.379-.349.578.578,0,0,1,.479-.538.976.976,0,0,0-.5-.13c-.7,0-.927.917-.987,1.176Z" transform="translate(-484.598 -248.425)"/>
    <path class="cls-1" d="M737.64,352.681v-9.965h1.365v.4h-.967v9.167h.967v.4Z" transform="translate(-484.598 -248.425)"/>
    <path class="cls-4" d="M742.757,349.721h1.394v.468c-.438-.029-1.494-.029-1.982-.029s-1.545,0-1.982.029v-.468h1.384V344.57a4.411,4.411,0,0,1-1.3.2h-.2V344.3h.2a3.518,3.518,0,0,0,2-.568.258.258,0,0,1,.22-.07c.259,0,.259.1.259.319Z" transform="translate(-484.598 -248.425)"/>
    <path class="cls-1" d="M748.437,347.9c-.169,0-.349,0-.349-.2s.18-.2.349-.2h5.39c.169,0,.349,0,.349.2s-.18.2-.349.2Z" transform="translate(-484.598 -248.425)"/>
    <path class="cls-1" d="M759.053,347.589a3.476,3.476,0,0,0,1.106-.927c.717-.8,1.176-.877,1.454-.877a.637.637,0,0,1,.678.628.574.574,0,0,1-.548.608.348.348,0,0,1-.379-.349.564.564,0,0,1,.569-.538c-.021-.02-.021-.03-.04-.04a.339.339,0,0,0-.209-.079c-.021-.011-.031-.011-.09-.011-.489,0-.947.429-1.425.957a4.408,4.408,0,0,1-.857.737c.847.11,1.475.4,1.475,1.047a1.03,1.03,0,0,1-.04.309,2.581,2.581,0,0,0-.08.557c0,.359.13.469.319.469.439,0,.667-.508.867-1.236.03-.139.04-.179.139-.179.03,0,.12,0,.12.1a3.612,3.612,0,0,1-.359,1.006.91.91,0,0,1-.787.528.921.921,0,0,1-.917-.986,2.185,2.185,0,0,1,.04-.349.583.583,0,0,0,.03-.209c0-.658-.817-.817-1.156-.847-.06.249-.508,2.092-.558,2.182a.408.408,0,0,1-.339.209.275.275,0,0,1-.289-.279.609.609,0,0,1,.04-.219l1.445-5.739.03-.2c0-.1-.02-.169-.5-.169-.149,0-.239,0-.239-.12,0-.179.109-.189.189-.2.259-.02.986-.1,1.216-.1.129,0,.129.1.129.11Z" transform="translate(-484.598 -248.425)"/>
    <path class="cls-1" d="M764.329,352.681h-1.365v-.4h.967v-9.167h-.967v-.4h1.365Z" transform="translate(-484.598 -248.425)"/>
    <path class="cls-1" d="M765.354,406.022a1.933,1.933,0,1,1,1.932-1.933A1.943,1.943,0,0,1,765.354,406.022Z" transform="translate(-484.598 -248.425)"/>
    <line class="cls-2" x1="239.583" y1="155.905" x2="239.583" y2="127.558"/>
    <path class="cls-1" d="M724.2,377.584a1.933,1.933,0,1,1,1.933-1.933A1.943,1.943,0,0,1,724.2,377.584Z" transform="translate(-484.598 -248.425)"/>
    <line class="cls-2" x1="225.863" y1="155.905" x2="225.863" y2="113.385"/>
    <path class="cls-1" d="M710.518,363.428a1.933,1.933,0,1,1,1.932-1.933A1.943,1.943,0,0,1,710.518,363.428Z" transform="translate(-484.598 -248.425)"/>
    <line class="cls-2" x1="253.274" y1="155.905" x2="253.274" y2="141.732"/>
    <path class="cls-1" d="M737.877,391.866a1.933,1.933,0,1,1,1.933-1.933A1.944,1.944,0,0,1,737.877,391.866Z" transform="translate(-484.598 -248.425)"/>
    <line class="cls-2" x1="35.433" y1="205.511" x2="42.519" y2="205.511"/>
    <path class="cls-1" d="M511.463,455.407a2.032,2.032,0,0,1-2.123,1.923,1.816,1.816,0,0,1-2.012-1.563.558.558,0,1,1,1.116-.021.546.546,0,0,1-.658.548,1.814,1.814,0,0,0,1.525.758c.438,0,1.126-.289,1.126-1.645,0-.976-.369-1.653-1.187-1.653h-.437c-.17,0-.24,0-.24-.11s.07-.11.15-.12.309-.02.388-.03a.967.967,0,0,0,.887-.517,2.492,2.492,0,0,0,.279-1.136c0-.9-.548-1.116-.957-1.116a1.615,1.615,0,0,0-1.325.617c.15,0,.618,0,.618.5a.508.508,0,1,1-1.016-.011c0-.757.757-1.354,1.763-1.354.957,0,1.834.557,1.834,1.375a1.8,1.8,0,0,0,.269,3.556Z" transform="translate(-484.598 -248.425)"/>
    <polyline points="158.456 250.298 162.991 248.03 158.456 245.763 159.59 248.03"/>
    <line class="cls-2" y1="248.03" x2="159.59" y2="248.03"/>
    <path class="cls-1" d="M486.483,507.616c-.169,0-.348,0-.348-.2s.179-.2.348-.2h5.391c.169,0,.349,0,.349.2s-.18.2-.349.2Z" transform="translate(-484.598 -248.425)"/>
    <path class="cls-1" d="M496.164,509.141a3.272,3.272,0,0,0,.946-.079,3.317,3.317,0,0,0,.219-.887h.249l-.279,1.733h-3.7c0-.239,0-.259.109-.369l1.913-2.132a3.57,3.57,0,0,0,1.046-2.2c0-.817-.428-1.624-1.335-1.624a1.438,1.438,0,0,0-1.345,1.017.381.381,0,0,1,.13-.01.5.5,0,0,1,.528.517.524.524,0,1,1-1.046-.03,1.84,1.84,0,0,1,1.863-1.8,1.957,1.957,0,0,1,2.112,1.933c0,1-.6,1.534-2.152,2.909l-1.056,1.027Z" transform="translate(-484.598 -248.425)"/>
    <path class="cls-1" d="M491.76,498.069a1.933,1.933,0,1,1,1.932-1.933A1.944,1.944,0,0,1,491.76,498.069Z" transform="translate(-484.598 -248.425)"/>
    <polyline points="37.701 188.786 35.433 184.251 33.165 188.786 35.433 187.653"/>
    <line class="cls-2" x1="35.433" y1="251.573" x2="35.433" y2="187.653"/>
    <path class="cls-1" d="M505.916,498.069a1.933,1.933,0,1,1,1.933-1.933A1.944,1.944,0,0,1,505.916,498.069Z" transform="translate(-484.598 -248.425)"/>
    <g>
      <path class="cls-1" d="M605.158,498.069a1.933,1.933,0,1,1,1.933-1.933A1.944,1.944,0,0,1,605.158,498.069Z" transform="translate(-484.598 -248.425)"/>
      <path class="cls-1" d="M619.315,498.069a1.933,1.933,0,1,1,1.933-1.933A1.944,1.944,0,0,1,619.315,498.069Z" transform="translate(-484.598 -248.425)"/>
      <path class="cls-1" d="M633.472,498.069a1.933,1.933,0,1,1,1.933-1.933A1.944,1.944,0,0,1,633.472,498.069Z" transform="translate(-484.598 -248.425)"/>
    </g>
    <path class="cls-1" d="M500.765,507.616c-.17,0-.349,0-.349-.2s.179-.2.349-.2h5.39c.17,0,.349,0,.349.2s-.179.2-.349.2Z" transform="translate(-484.598 -248.425)"/>
    <path class="cls-1" d="M510.315,509.121c0,.368.03.479.927.479h.319v.308c-.349-.03-1.216-.03-1.615-.03s-1.265,0-1.613.03V509.6h.318c.9,0,.927-.121.927-.479V503.96a2.986,2.986,0,0,1-1.306.259v-.309a2.462,2.462,0,0,0,1.814-.638c.229,0,.229.02.229.259Z" transform="translate(-484.598 -248.425)"/>
    <g>
      <path class="cls-1" d="M521.8,509.331a1.863,1.863,0,0,1-3.378.149,5.038,5.038,0,0,1-.448-2.4,5.328,5.328,0,0,1,.368-2.262,1.827,1.827,0,0,1,1.734-1.185,1.848,1.848,0,0,1,1.694,1.115,7.052,7.052,0,0,1,.03,4.584Zm-.568-.309a19.341,19.341,0,0,0,.01-4c-.19-.987-.847-1.166-1.176-1.166-.249,0-1,.089-1.186,1.275a13.491,13.491,0,0,0-.079,1.834,13.651,13.651,0,0,0,.109,2.1c.179.957.767,1.206,1.156,1.206C520.518,510.268,521.086,509.969,521.236,509.022Z" transform="translate(-484.598 -248.425)"/>
      <path class="cls-1" d="M534.675,509.48c0,.369.03.479.927.479h.318v.309c-.348-.031-1.215-.031-1.614-.031s-1.265,0-1.614.031v-.309h.319c.9,0,.927-.12.927-.479v-5.161a2.988,2.988,0,0,1-1.306.259v-.308a2.462,2.462,0,0,0,1.814-.638c.229,0,.229.019.229.259Z" transform="translate(-484.598 -248.425)"/>
      <path class="cls-1" d="M548.962,509.5a.8.8,0,0,0,1.165-.966h.249l-.278,1.734h-3.7c0-.24,0-.259.11-.37l1.913-2.131a3.575,3.575,0,0,0,1.046-2.2c0-.817-.428-1.624-1.335-1.624a1.438,1.438,0,0,0-1.345,1.017.37.37,0,0,1,.129-.01.5.5,0,0,1,.528.518.524.524,0,1,1-1.046-.03,1.84,1.84,0,0,1,1.863-1.8,1.957,1.957,0,0,1,2.112,1.932c0,1-.6,1.535-2.151,2.91l-1.057,1.026Z" transform="translate(-484.598 -248.425)"/>
      <path class="cls-1" d="M564.613,508.563a2.031,2.031,0,0,1-2.122,1.923,1.817,1.817,0,0,1-2.013-1.563.558.558,0,1,1,1.116-.021.545.545,0,0,1-.657.548,1.812,1.812,0,0,0,1.524.758c.438,0,1.126-.289,1.126-1.645,0-.976-.369-1.653-1.186-1.653h-.438c-.17,0-.239,0-.239-.11s.069-.11.149-.119.309-.021.389-.031a.963.963,0,0,0,.886-.517,2.492,2.492,0,0,0,.279-1.136c0-.9-.548-1.116-.956-1.116a1.614,1.614,0,0,0-1.325.617c.149,0,.617,0,.617.5a.508.508,0,1,1-1.016-.011c0-.757.757-1.354,1.764-1.354.956,0,1.833.557,1.833,1.375a1.8,1.8,0,0,0,.269,3.556Z" transform="translate(-484.598 -248.425)"/>
      <path class="cls-1" d="M574.5,508.623v-.309l3.059-4.672c.08-.121.11-.121.2-.121.16,0,.16.061.16.26v4.533h1v.309h-1v.867c0,.359.02.469.757.469h.209v.309c-.408-.031-.936-.031-1.355-.031s-.936,0-1.345.031v-.309h.21c.737,0,.757-.11.757-.469v-.867Zm2.711-4.025-2.432,3.716h2.432Z" transform="translate(-484.598 -248.425)"/>
      <path class="cls-1" d="M590.675,510.486a1.828,1.828,0,0,1-1.8-1.823.494.494,0,1,1,.488.448.466.466,0,0,1-.17-.019,1.554,1.554,0,0,0,1.465,1.116,1.249,1.249,0,0,0,1.067-.647,2.913,2.913,0,0,0,.238-1.366,3.079,3.079,0,0,0-.179-1.256.972.972,0,0,0-.847-.637,1.5,1.5,0,0,0-1.285.7c-.04.061-.06.09-.129.09-.14,0-.14-.079-.14-.259v-2.949c0-.159,0-.239.1-.239a.293.293,0,0,1,.12.03,3.236,3.236,0,0,0,1.325.278,3.287,3.287,0,0,0,1.355-.289.15.15,0,0,1,.08-.029.1.1,0,0,1,.1.109,2.172,2.172,0,0,1-1.923,1.036,3.1,3.1,0,0,1-.847-.13v1.944a1.75,1.75,0,0,1,1.265-.508,2.045,2.045,0,0,1,1.893,2.182A2.2,2.2,0,0,1,590.675,510.486Z" transform="translate(-484.598 -248.425)"/>
    </g>
    <g>
      <path class="cls-1" d="M605.22,506.013a2.09,2.09,0,0,1,1.993,2.222,2.132,2.132,0,0,1-2.053,2.251c-.927,0-2.082-.707-2.082-3.367,0-2.2,1.345-3.487,2.62-3.487.827,0,1.266.477,1.266,1.076a.459.459,0,1,1-.917.02c0-.449.4-.449.548-.449a1.027,1.027,0,0,0-.877-.4c-.508,0-1.743.358-1.743,2.879V507A1.376,1.376,0,0,1,605.22,506.013Zm.926,3.548a5.314,5.314,0,0,0-.009-2.7.962.962,0,0,0-.927-.618c-.9,0-1.216,1-1.216,1.774a4.853,4.853,0,0,0,.18,1.445,1.144,1.144,0,0,0,.986.747A1.041,1.041,0,0,0,606.146,509.561Z" transform="translate(-484.598 -248.425)"/>
      <path class="cls-1" d="M620.214,506.093a4.361,4.361,0,0,0-.618,1.7,11.122,11.122,0,0,0-.11,1.634v.507c0,.1,0,.548-.458.548s-.459-.448-.459-.548a6.962,6.962,0,0,1,1.226-3.746c.219-.329,1.007-1.415,1.116-1.574h-2.062a5.027,5.027,0,0,0-.977.06,2.793,2.793,0,0,0-.249.907h-.249l.329-2.053h.249c.04.19.06.319,1.275.319h2.421c0,.209,0,.229-.089.348Z" transform="translate(-484.598 -248.425)"/>
      <path class="cls-1" d="M635.039,507.368a1.8,1.8,0,0,1,.488,1.226,1.987,1.987,0,0,1-2.073,1.892,1.9,1.9,0,0,1-2.062-1.723,2.2,2.2,0,0,1,1.435-1.833,6.3,6.3,0,0,1-.728-.538,1.6,1.6,0,0,1-.438-1.1,1.732,1.732,0,0,1,1.8-1.664,1.646,1.646,0,0,1,1.794,1.484,1.85,1.85,0,0,1-1.206,1.544A4.267,4.267,0,0,1,635.039,507.368Zm-3.149,1.395a1.5,1.5,0,0,0,1.574,1.445,1.435,1.435,0,0,0,1.564-1.256,1.335,1.335,0,0,0-.747-1.1l-1.225-.777A1.953,1.953,0,0,0,631.89,508.763Zm1.943-2.252a1.689,1.689,0,0,0,.986-1.4,1.3,1.3,0,0,0-1.365-1.235c-.707,0-1.355.418-1.355,1.026a.93.93,0,0,0,.5.807Z" transform="translate(-484.598 -248.425)"/>
    </g>
    <path class="cls-1" d="M657.287,497.339a3.465,3.465,0,0,0,1.106-.927c.718-.8,1.176-.877,1.455-.877a.637.637,0,0,1,.677.628.573.573,0,0,1-.547.608.347.347,0,0,1-.379-.349.563.563,0,0,1,.568-.538c-.02-.02-.02-.03-.04-.039a.322.322,0,0,0-.209-.08c-.02-.01-.03-.01-.09-.01-.488,0-.947.428-1.425.956a4.345,4.345,0,0,1-.857.737c.847.11,1.475.4,1.475,1.047a1.027,1.027,0,0,1-.04.309,2.581,2.581,0,0,0-.08.557c0,.36.13.469.319.469.439,0,.668-.509.867-1.235.03-.14.04-.18.14-.18.029,0,.119,0,.119.1a3.587,3.587,0,0,1-.359,1.006.908.908,0,0,1-.787.528.92.92,0,0,1-.916-.986,2.185,2.185,0,0,1,.04-.349.583.583,0,0,0,.03-.209c0-.658-.818-.817-1.156-.848-.06.25-.509,2.093-.558,2.183a.41.41,0,0,1-.339.209.274.274,0,0,1-.289-.278.61.61,0,0,1,.04-.22l1.445-5.739.029-.2c0-.1-.02-.169-.5-.169-.149,0-.239,0-.239-.12,0-.179.109-.189.19-.2.258-.02.986-.1,1.215-.1.13,0,.13.1.13.11Z" transform="translate(-484.598 -248.425)"/>
    <path class="cls-2" d="M516.488,482.282h7.087m-7.087-14.173h7.087" transform="translate(-484.598 -248.425)"/>
    <path class="cls-1" d="M509.838,484.762c0,.368.031.478.927.478h.319v.309c-.349-.03-1.215-.03-1.614-.03s-1.265,0-1.614.03v-.309h.319c.9,0,.926-.12.926-.478V479.6a2.994,2.994,0,0,1-1.305.258v-.308a2.459,2.459,0,0,0,1.813-.638c.229,0,.229.02.229.259Z" transform="translate(-484.598 -248.425)"/>
    <path class="cls-1" d="M509.968,470.5a3.276,3.276,0,0,0,.947-.079,3.317,3.317,0,0,0,.219-.887h.249l-.279,1.734h-3.7c0-.24,0-.259.11-.37l1.913-2.131a3.575,3.575,0,0,0,1.046-2.2c0-.817-.428-1.624-1.335-1.624a1.438,1.438,0,0,0-1.345,1.017.377.377,0,0,1,.129-.01.5.5,0,0,1,.529.518.524.524,0,1,1-1.047-.03,1.841,1.841,0,0,1,1.864-1.8,1.957,1.957,0,0,1,2.112,1.932c0,1-.6,1.535-2.152,2.91l-1.056,1.026Z" transform="translate(-484.598 -248.425)"/>
    <g>
      <path class="cls-1" d="M576.721,498.069a1.933,1.933,0,1,1,1.932-1.933A1.944,1.944,0,0,1,576.721,498.069Z" transform="translate(-484.598 -248.425)"/>
      <path class="cls-1" d="M590.877,498.069a1.933,1.933,0,1,1,1.933-1.933A1.944,1.944,0,0,1,590.877,498.069Z" transform="translate(-484.598 -248.425)"/>
    </g>
    <path class="cls-1" d="M530.539,440.584a3.851,3.851,0,0,0-.169.877c0,.339.159.658.547.658.319,0,1-.239,1.326-1.306.02-.069.04-.109.13-.109.029,0,.119,0,.119.1,0,.249-.568,1.534-1.595,1.534a1.1,1.1,0,0,1-1.075-.757,1.325,1.325,0,0,1-1.047.757c-.438,0-.936-.2-.936-.657a.565.565,0,0,1,.548-.578.341.341,0,0,1,.368.348.565.565,0,0,1-.468.538.958.958,0,0,0,.5.13c.439,0,.787-.419.947-1.036a14.448,14.448,0,0,0,.538-2.372c0-.577-.349-.667-.538-.667-.339,0-1,.249-1.335,1.305-.02.089-.05.11-.13.11-.02,0-.12,0-.12-.1,0-.25.569-1.535,1.6-1.535a1.1,1.1,0,0,1,1.076.758,1.29,1.29,0,0,1,1.046-.758c.339,0,.927.14.927.658a.556.556,0,0,1-.538.578.348.348,0,0,1-.379-.349.579.579,0,0,1,.478-.538.98.98,0,0,0-.5-.129c-.7,0-.926.916-.986,1.176Z" transform="translate(-484.598 -248.425)"/>
    <path class="cls-1" d="M534.366,444.72v-9.964h1.365v.4h-.966v9.167h.966v.4Z" transform="translate(-484.598 -248.425)"/>
    <path class="cls-5" d="M540.791,442.229h-4.275v-.18c0-.2,0-.219.13-.339l2-2.042a3.063,3.063,0,0,0,1.077-2.072,1.317,1.317,0,0,0-1.316-1.426,1.617,1.617,0,0,0-1.026.35.721.721,0,0,1,.568.716.718.718,0,1,1-1.435-.019c0-.9.937-1.515,2.142-1.515,1.4,0,2.442.737,2.442,1.883,0,.947-.638,1.415-1.774,2.252-.449.329-.967.758-1.435,1.146h1.465a5.5,5.5,0,0,0,1.016-.06c.14-.069.23-.707.259-.906h.469Z" transform="translate(-484.598 -248.425)"/>
    <path class="cls-1" d="M545.155,439.937c-.169,0-.348,0-.348-.2s.179-.2.348-.2h5.391c.169,0,.349,0,.349.2s-.18.2-.349.2Z" transform="translate(-484.598 -248.425)"/>
    <path class="cls-1" d="M555.771,439.628a3.452,3.452,0,0,0,1.106-.927c.718-.8,1.176-.877,1.456-.877a.637.637,0,0,1,.677.628.574.574,0,0,1-.548.608.348.348,0,0,1-.379-.349.564.564,0,0,1,.568-.538c-.02-.02-.02-.029-.04-.039a.32.32,0,0,0-.209-.08c-.02-.01-.03-.01-.089-.01-.489,0-.947.428-1.425.956a4.374,4.374,0,0,1-.857.737c.846.11,1.474.4,1.474,1.047a1.027,1.027,0,0,1-.04.309,2.644,2.644,0,0,0-.079.557c0,.36.129.469.319.469.438,0,.667-.509.866-1.235.031-.14.04-.18.14-.18.03,0,.12,0,.12.1a3.623,3.623,0,0,1-.359,1.006.91.91,0,0,1-.787.528.921.921,0,0,1-.917-.986,2.185,2.185,0,0,1,.04-.349.583.583,0,0,0,.03-.209c0-.658-.817-.817-1.156-.848-.06.25-.508,2.093-.558,2.183a.409.409,0,0,1-.339.209.274.274,0,0,1-.289-.278.61.61,0,0,1,.04-.22l1.445-5.739.03-.2c0-.1-.02-.169-.5-.169-.15,0-.24,0-.24-.12,0-.179.11-.189.19-.2.259-.019.986-.1,1.215-.1.13,0,.13.1.13.11Z" transform="translate(-484.598 -248.425)"/>
    <path class="cls-1" d="M561.048,444.72h-1.365v-.4h.966v-9.167h-.966v-.4h1.365Z" transform="translate(-484.598 -248.425)"/>
    <path class="cls-1" d="M562.557,498.069a1.933,1.933,0,1,1,1.932-1.933A1.944,1.944,0,0,1,562.557,498.069Z" transform="translate(-484.598 -248.425)"/>
    <line class="cls-2" x1="49.606" y1="248.03" x2="49.606" y2="219.684"/>
    <path class="cls-1" d="M534.236,469.749a1.933,1.933,0,1,1,1.933-1.934A1.944,1.944,0,0,1,534.236,469.749Z" transform="translate(-484.598 -248.425)"/>
    <line class="cls-2" x1="35.433" y1="248.03" x2="35.433" y2="205.511"/>
    <path class="cls-1" d="M520.08,455.585a1.933,1.933,0,1,1,1.933-1.934A1.944,1.944,0,0,1,520.08,455.585Z" transform="translate(-484.598 -248.425)"/>
    <line class="cls-2" x1="63.779" y1="248.03" x2="63.779" y2="233.857"/>
    <path class="cls-1" d="M548.4,483.905a1.933,1.933,0,1,1,1.933-1.933A1.944,1.944,0,0,1,548.4,483.905Z" transform="translate(-484.598 -248.425)"/>
    <polyline points="158.456 66.047 162.991 63.779 158.456 61.511 159.59 63.779"/>
    <line class="cls-2" y1="63.779" x2="159.59" y2="63.779"/>
    <path class="cls-1" d="M486.483,323.3c-.169,0-.348,0-.348-.2s.179-.2.348-.2h5.391c.169,0,.349,0,.349.2s-.18.2-.349.2Z" transform="translate(-484.598 -248.425)"/>
    <path class="cls-1" d="M496.164,324.821a3.233,3.233,0,0,0,.946-.08,3.317,3.317,0,0,0,.219-.887h.249l-.279,1.734h-3.7c0-.239,0-.259.109-.369l1.913-2.132a3.57,3.57,0,0,0,1.046-2.2c0-.817-.428-1.624-1.335-1.624a1.437,1.437,0,0,0-1.345,1.016.381.381,0,0,1,.13-.01.5.5,0,0,1,.528.518.524.524,0,1,1-1.046-.03,1.841,1.841,0,0,1,1.863-1.8,1.957,1.957,0,0,1,2.112,1.933c0,1-.6,1.534-2.152,2.909l-1.056,1.027Z" transform="translate(-484.598 -248.425)"/>
    <path class="cls-1" d="M491.76,313.866a1.933,1.933,0,1,1,1.932-1.933A1.944,1.944,0,0,1,491.76,313.866Z" transform="translate(-484.598 -248.425)"/>
    <polyline points="37.701 4.535 35.433 0 33.165 4.535 35.433 3.402"/>
    <line class="cls-2" x1="35.433" y1="67.323" x2="35.433" y2="3.402"/>
    <g>
      <path class="cls-1" d="M505.916,313.866a1.933,1.933,0,1,1,1.933-1.933A1.944,1.944,0,0,1,505.916,313.866Z" transform="translate(-484.598 -248.425)"/>
      <path class="cls-1" d="M562.554,313.866a1.933,1.933,0,1,1,1.932-1.933A1.944,1.944,0,0,1,562.554,313.866Z" transform="translate(-484.598 -248.425)"/>
    </g>
    <g>
      <path class="cls-1" d="M605.158,313.866a1.933,1.933,0,1,1,1.933-1.933A1.944,1.944,0,0,1,605.158,313.866Z" transform="translate(-484.598 -248.425)"/>
      <path class="cls-1" d="M619.315,313.866a1.933,1.933,0,1,1,1.933-1.933A1.944,1.944,0,0,1,619.315,313.866Z" transform="translate(-484.598 -248.425)"/>
      <path class="cls-1" d="M633.472,313.866a1.933,1.933,0,1,1,1.933-1.933A1.944,1.944,0,0,1,633.472,313.866Z" transform="translate(-484.598 -248.425)"/>
    </g>
    <path class="cls-1" d="M500.765,323.3c-.17,0-.349,0-.349-.2s.179-.2.349-.2h5.39c.17,0,.349,0,.349.2s-.179.2-.349.2Z" transform="translate(-484.598 -248.425)"/>
    <path class="cls-1" d="M510.315,324.8c0,.368.03.478.927.478h.319v.309c-.349-.03-1.216-.03-1.615-.03s-1.265,0-1.613.03v-.309h.318c.9,0,.927-.119.927-.478v-5.162a2.986,2.986,0,0,1-1.306.259v-.309a2.465,2.465,0,0,0,1.814-.637c.229,0,.229.02.229.259Z" transform="translate(-484.598 -248.425)"/>
    <g>
      <path class="cls-1" d="M521.8,325.128a1.863,1.863,0,0,1-3.378.149,5.04,5.04,0,0,1-.448-2.4,5.328,5.328,0,0,1,.368-2.262,1.828,1.828,0,0,1,1.734-1.186,1.849,1.849,0,0,1,1.694,1.116,7.052,7.052,0,0,1,.03,4.584Zm-.568-.309a19.351,19.351,0,0,0,.01-4.006c-.19-.986-.847-1.166-1.176-1.166-.249,0-1,.09-1.186,1.276a13.483,13.483,0,0,0-.079,1.833,13.664,13.664,0,0,0,.109,2.1c.179.956.767,1.205,1.156,1.205C520.518,326.064,521.086,325.766,521.236,324.819Z" transform="translate(-484.598 -248.425)"/>
      <path class="cls-1" d="M534.675,325.277c0,.369.03.478.927.478h.318v.309c-.348-.029-1.215-.029-1.614-.029s-1.265,0-1.614.029v-.309h.319c.9,0,.927-.119.927-.478v-5.161a2.988,2.988,0,0,1-1.306.259v-.309a2.462,2.462,0,0,0,1.814-.638c.229,0,.229.02.229.26Z" transform="translate(-484.598 -248.425)"/>
      <path class="cls-1" d="M548.962,325.3a.8.8,0,0,0,1.165-.966h.249l-.278,1.733h-3.7c0-.239,0-.259.11-.368l1.913-2.133a3.565,3.565,0,0,0,1.046-2.2c0-.817-.428-1.624-1.335-1.624a1.437,1.437,0,0,0-1.345,1.016.41.41,0,0,1,.129-.009.5.5,0,0,1,.528.518.524.524,0,1,1-1.046-.03,1.841,1.841,0,0,1,1.863-1.8,1.957,1.957,0,0,1,2.112,1.933c0,1-.6,1.535-2.151,2.91l-1.057,1.026Z" transform="translate(-484.598 -248.425)"/>
      <path class="cls-1" d="M564.613,324.361a2.032,2.032,0,0,1-2.122,1.923,1.818,1.818,0,0,1-2.013-1.565.558.558,0,1,1,1.116-.02.546.546,0,0,1-.657.549,1.813,1.813,0,0,0,1.524.757c.438,0,1.126-.289,1.126-1.644,0-.977-.369-1.654-1.186-1.654h-.438c-.17,0-.239,0-.239-.11s.069-.11.149-.119.309-.02.389-.03a.964.964,0,0,0,.886-.519,2.487,2.487,0,0,0,.279-1.136c0-.9-.548-1.115-.956-1.115a1.614,1.614,0,0,0-1.325.617c.149,0,.617,0,.617.5a.508.508,0,1,1-1.016-.009c0-.758.757-1.356,1.764-1.356.956,0,1.833.558,1.833,1.376a1.918,1.918,0,0,1-1.4,1.753A1.923,1.923,0,0,1,564.613,324.361Z" transform="translate(-484.598 -248.425)"/>
      <path class="cls-1" d="M574.5,324.42v-.309l3.059-4.673c.08-.119.11-.119.2-.119.16,0,.16.059.16.259v4.533h1v.309h-1v.867c0,.359.02.468.757.468h.209v.309c-.408-.029-.936-.029-1.355-.029s-.936,0-1.345.029v-.309h.21c.737,0,.757-.109.757-.468v-.867Zm2.711-4.025-2.432,3.716h2.432Z" transform="translate(-484.598 -248.425)"/>
      <path class="cls-1" d="M590.675,326.284a1.829,1.829,0,0,1-1.8-1.824.455.455,0,1,1,.318.429,1.554,1.554,0,0,0,1.465,1.116,1.248,1.248,0,0,0,1.067-.648,2.909,2.909,0,0,0,.238-1.365,3.077,3.077,0,0,0-.179-1.256.972.972,0,0,0-.847-.637,1.5,1.5,0,0,0-1.285.7c-.04.06-.06.09-.129.09-.14,0-.14-.08-.14-.259v-2.949c0-.16,0-.24.1-.24a.293.293,0,0,1,.12.03,3.222,3.222,0,0,0,1.325.279,3.287,3.287,0,0,0,1.355-.289.146.146,0,0,1,.08-.03.1.1,0,0,1,.1.11,2.174,2.174,0,0,1-1.923,1.036,3.188,3.188,0,0,1-.847-.129v1.943a1.75,1.75,0,0,1,1.265-.509,2.045,2.045,0,0,1,1.893,2.183A2.2,2.2,0,0,1,590.675,326.284Z" transform="translate(-484.598 -248.425)"/>
    </g>
    <g>
      <path class="cls-1" d="M605.22,321.81a2.09,2.09,0,0,1,1.993,2.222,2.133,2.133,0,0,1-2.053,2.252c-.927,0-2.082-.708-2.082-3.368,0-2.2,1.345-3.488,2.62-3.488.827,0,1.266.479,1.266,1.076a.459.459,0,1,1-.917.02c0-.448.4-.448.548-.448a1.027,1.027,0,0,0-.877-.4c-.508,0-1.743.358-1.743,2.879v.239A1.376,1.376,0,0,1,605.22,321.81Zm.926,3.547a5.31,5.31,0,0,0-.009-2.7.962.962,0,0,0-.927-.618c-.9,0-1.216,1-1.216,1.774a4.843,4.843,0,0,0,.18,1.444,1.144,1.144,0,0,0,.986.748A1.041,1.041,0,0,0,606.146,325.357Z" transform="translate(-484.598 -248.425)"/>
      <path class="cls-1" d="M620.214,321.89a4.363,4.363,0,0,0-.618,1.7,11.136,11.136,0,0,0-.11,1.635v.508c0,.1,0,.548-.458.548s-.459-.449-.459-.548a6.96,6.96,0,0,1,1.226-3.747c.219-.329,1.007-1.415,1.116-1.574h-2.062a5.027,5.027,0,0,0-.977.06,2.794,2.794,0,0,0-.249.906h-.249l.329-2.052h.249c.04.189.06.318,1.275.318h2.421c0,.21,0,.23-.089.35Z" transform="translate(-484.598 -248.425)"/>
      <path class="cls-1" d="M635.039,323.165a1.8,1.8,0,0,1,.488,1.226,1.988,1.988,0,0,1-2.073,1.893,1.9,1.9,0,0,1-2.062-1.724,2.2,2.2,0,0,1,1.435-1.833,6.177,6.177,0,0,1-.728-.539,1.593,1.593,0,0,1-.438-1.1,1.733,1.733,0,0,1,1.8-1.664,1.647,1.647,0,0,1,1.794,1.485,1.851,1.851,0,0,1-1.206,1.545A4.212,4.212,0,0,1,635.039,323.165Zm-3.149,1.395a1.5,1.5,0,0,0,1.574,1.445,1.435,1.435,0,0,0,1.564-1.256,1.333,1.333,0,0,0-.747-1.1l-1.225-.777A1.951,1.951,0,0,0,631.89,324.56Zm1.943-2.252a1.69,1.69,0,0,0,.986-1.395,1.3,1.3,0,0,0-1.365-1.235c-.707,0-1.355.418-1.355,1.026a.93.93,0,0,0,.5.807Z" transform="translate(-484.598 -248.425)"/>
    </g>
    <path class="cls-1" d="M657.287,313.026a3.448,3.448,0,0,0,1.106-.926c.718-.8,1.176-.877,1.455-.877a.637.637,0,0,1,.677.628.573.573,0,0,1-.547.607.347.347,0,0,1-.379-.348.562.562,0,0,1,.568-.538c-.02-.02-.02-.03-.04-.04a.333.333,0,0,0-.209-.08c-.02-.01-.03-.01-.09-.01-.488,0-.947.429-1.425.956a4.349,4.349,0,0,1-.857.738c.847.11,1.475.4,1.475,1.046a1.024,1.024,0,0,1-.04.309,2.59,2.59,0,0,0-.08.558c0,.359.13.469.319.469.439,0,.668-.509.867-1.236.03-.14.04-.179.14-.179.029,0,.119,0,.119.1a3.576,3.576,0,0,1-.359,1.006.908.908,0,0,1-.787.528.92.92,0,0,1-.916-.986,2.211,2.211,0,0,1,.04-.349.578.578,0,0,0,.03-.209c0-.657-.818-.817-1.156-.847-.06.249-.509,2.093-.558,2.182a.408.408,0,0,1-.339.209.273.273,0,0,1-.289-.278.616.616,0,0,1,.04-.22L657.5,309.5l.029-.2c0-.1-.02-.17-.5-.17-.149,0-.239,0-.239-.119,0-.179.109-.189.19-.2.258-.02.986-.1,1.215-.1.13,0,.13.1.13.11Z" transform="translate(-484.598 -248.425)"/>
    <path class="cls-2" d="M516.488,298.031h7.087m-7.087-14.173h7.087m-7.087-14.173h7.087" transform="translate(-484.598 -248.425)"/>
    <path class="cls-1" d="M509.838,300.434c0,.368.031.478.927.478h.319v.309c-.349-.03-1.215-.03-1.614-.03s-1.265,0-1.614.03v-.309h.319c.9,0,.926-.12.926-.478v-5.162a2.984,2.984,0,0,1-1.305.259v-.309a2.459,2.459,0,0,0,1.813-.638c.229,0,.229.02.229.26Z" transform="translate(-484.598 -248.425)"/>
    <path class="cls-1" d="M509.968,286.3a3.237,3.237,0,0,0,.947-.08,3.3,3.3,0,0,0,.219-.886h.249l-.279,1.733h-3.7c0-.239,0-.259.11-.368l1.913-2.133a3.565,3.565,0,0,0,1.046-2.2c0-.817-.428-1.624-1.335-1.624a1.437,1.437,0,0,0-1.345,1.016.417.417,0,0,1,.129-.009.5.5,0,0,1,.529.518.524.524,0,1,1-1.047-.03,1.842,1.842,0,0,1,1.864-1.8,1.958,1.958,0,0,1,2.112,1.933c0,1-.6,1.535-2.152,2.91l-1.056,1.026Z" transform="translate(-484.598 -248.425)"/>
    <path class="cls-1" d="M511.463,271.205a2.032,2.032,0,0,1-2.123,1.922,1.816,1.816,0,0,1-2.012-1.564.558.558,0,1,1,1.116-.02.546.546,0,0,1-.658.548,1.814,1.814,0,0,0,1.525.758c.438,0,1.126-.289,1.126-1.644,0-.977-.369-1.655-1.187-1.655h-.437c-.17,0-.24,0-.24-.109s.07-.11.15-.12.309-.02.388-.029a.97.97,0,0,0,.887-.519,2.487,2.487,0,0,0,.279-1.136c0-.9-.548-1.116-.957-1.116a1.616,1.616,0,0,0-1.325.618c.15,0,.618,0,.618.5a.508.508,0,1,1-1.016-.01c0-.757.757-1.355,1.763-1.355.957,0,1.834.558,1.834,1.375a1.918,1.918,0,0,1-1.4,1.754A1.922,1.922,0,0,1,511.463,271.205Z" transform="translate(-484.598 -248.425)"/>
    <line class="cls-2" x1="49.606" y1="63.779" x2="49.606" y2="49.606"/>
    <path class="cls-1" d="M534.236,299.709a1.933,1.933,0,1,1,1.933-1.933A1.943,1.943,0,0,1,534.236,299.709Z" transform="translate(-484.598 -248.425)"/>
    <line class="cls-2" x1="63.779" y1="63.779" x2="63.779" y2="49.606"/>
    <path class="cls-1" d="M548.4,299.709a1.933,1.933,0,1,1,1.933-1.933A1.943,1.943,0,0,1,548.4,299.709Z" transform="translate(-484.598 -248.425)"/>
    <line class="cls-2" x1="35.433" y1="63.779" x2="35.433" y2="49.606"/>
    <path class="cls-1" d="M520.08,299.709a1.933,1.933,0,1,1,1.933-1.933A1.943,1.943,0,0,1,520.08,299.709Z" transform="translate(-484.598 -248.425)"/>
    <g>
      <path class="cls-1" d="M576.721,313.866a1.933,1.933,0,1,1,1.932-1.933A1.944,1.944,0,0,1,576.721,313.866Z" transform="translate(-484.598 -248.425)"/>
      <path class="cls-1" d="M590.877,313.866a1.933,1.933,0,1,1,1.933-1.933A1.944,1.944,0,0,1,590.877,313.866Z" transform="translate(-484.598 -248.425)"/>
    </g>
    <line class="cls-6" x1="248.03" y1="248.03" x2="248.03" y2="240.944"/>
    <path class="cls-3" d="M732.721,490.991a1.933,1.933,0,1,1,1.932-1.933A1.944,1.944,0,0,1,732.721,490.991Z" transform="translate(-484.598 -248.425)"/>
    <line class="cls-7" x1="262.203" y1="248.03" x2="262.203" y2="226.77"/>
    <path class="cls-4" d="M746.877,476.827a1.933,1.933,0,1,1,1.933-1.933A1.944,1.944,0,0,1,746.877,476.827Z" transform="translate(-484.598 -248.425)"/>
    <line class="cls-8" x1="276.376" y1="248.03" x2="276.376" y2="205.511"/>
    <path class="cls-5" d="M761.041,455.585a1.933,1.933,0,1,1,1.933-1.934A1.944,1.944,0,0,1,761.041,455.585Z" transform="translate(-484.598 -248.425)"/>
  </g>
</svg>
