<svg id="Layer_1" data-name="Layer 1" xmlns="http://www.w3.org/2000/svg" viewBox="0 0 253.178 90.397">
  <defs>
    <style>
      .cls-1 {
        fill: none;
        stroke: #000;
        stroke-miterlimit: 10;
        stroke-width: 0.85px;
      }

      .cls-2 {
        fill: #1d1d1b;
      }
    </style>
  </defs>
  <title>implementationexample</title>
  <g>
    <polyline points="46.3 28.523 50.835 26.255 46.3 23.988 47.434 26.255"/>
    <line class="cls-1" x1="22.489" y1="26.255" x2="47.434" y2="26.255"/>
    <path class="cls-2" d="M557.989,366.981a3.86,3.86,0,0,0-.169.877c0,.339.159.658.548.658.319,0,1-.239,1.325-1.306.02-.069.04-.109.13-.109.03,0,.119,0,.119.1,0,.249-.568,1.534-1.594,1.534a1.1,1.1,0,0,1-1.076-.757,1.324,1.324,0,0,1-1.046.757c-.439,0-.937-.2-.937-.657a.566.566,0,0,1,.548-.578.341.341,0,0,1,.369.348.565.565,0,0,1-.469.538.958.958,0,0,0,.5.13c.439,0,.787-.419.947-1.037a14.471,14.471,0,0,0,.538-2.371c0-.578-.348-.668-.538-.668-.339,0-1,.25-1.335,1.306-.02.089-.05.109-.13.109-.02,0-.119,0-.119-.1,0-.249.568-1.535,1.6-1.535a1.1,1.1,0,0,1,1.076.758,1.291,1.291,0,0,1,1.046-.758c.339,0,.927.14.927.658a.556.556,0,0,1-.538.578.348.348,0,0,1-.379-.349.58.58,0,0,1,.479-.538.976.976,0,0,0-.5-.13c-.7,0-.926.917-.986,1.176Z" transform="translate(-555.289 -339.91)"/>
    <path class="cls-2" d="M561.816,371.117v-9.965h1.366v.4h-.967v9.167h.967v.4Z" transform="translate(-555.289 -339.91)"/>
    <path class="cls-2" d="M564.861,365.736a3.2,3.2,0,0,0,.16-.837c0-.329-.11-.459-.31-.459-.358,0-.558.479-.727,1.186-.06.22-.069.229-.169.229-.02,0-.12,0-.12-.1a4.96,4.96,0,0,1,.3-.966.87.87,0,0,1,.747-.569.9.9,0,0,1,.917.867,1.928,1.928,0,0,1,1.554-.867,1.018,1.018,0,0,1,1.146,1.067,8.93,8.93,0,0,1-.608,2.191,1.921,1.921,0,0,0-.179.708c0,.229.07.329.24.329.487,0,.816-.558,1.016-1.236.049-.149.049-.179.149-.179.03,0,.12,0,.12.1,0,.079-.369,1.534-1.3,1.534a.8.8,0,0,1-.818-.817,1.139,1.139,0,0,1,.1-.459,9.5,9.5,0,0,0,.648-2.321c0-.329-.09-.7-.538-.7a1.981,1.981,0,0,0-1.624,1.216c-.011.04-.09.329-.13.5-.05.23-.11.449-.169.668l-.219.9c-.061.249-.18.717-.19.737a.408.408,0,0,1-.369.279.266.266,0,0,1-.289-.269c0-.05.06-.279.09-.428Z" transform="translate(-555.289 -339.91)"/>
    <path class="cls-2" d="M570.991,371.117h-1.366v-.4h.967v-9.167h-.967v-.4h1.366Z" transform="translate(-555.289 -339.91)"/>
    <polyline points="102.993 28.523 107.528 26.255 102.993 23.988 104.126 26.255"/>
    <line class="cls-1" x1="79.182" y1="26.255" x2="104.126" y2="26.255"/>
    <path class="cls-2" d="M617.348,396.9a.8.8,0,0,0,1.166-.964h.249l-.279,1.732h-3.7c0-.238,0-.258.11-.369l1.913-2.131a3.575,3.575,0,0,0,1.046-2.2c0-.816-.428-1.623-1.335-1.623a1.437,1.437,0,0,0-1.345,1.016.377.377,0,0,1,.129-.01.5.5,0,0,1,.528.517.524.524,0,1,1-1.046-.029,1.84,1.84,0,0,1,1.863-1.8,1.957,1.957,0,0,1,2.113,1.932c0,1-.6,1.535-2.152,2.91l-1.056,1.025Z" transform="translate(-555.289 -339.91)"/>
    <path class="cls-2" d="M724.426,394.654c-.169,0-.349,0-.349-.2s.18-.2.349-.2h5.39c.169,0,.349,0,.349.2s-.18.2-.349.2Z" transform="translate(-555.289 -339.91)"/>
    <path class="cls-2" d="M734.578,392.4c0,.231,0,.323.7.323h.266v.25c-.154-.006-1.032-.028-1.249-.028-.258,0-1.115.022-1.241.028v-.25h.265c.7,0,.7-.092.7-.323V388.85a2.3,2.3,0,0,1-1.012.195v-.252a1.912,1.912,0,0,0,1.367-.445c.195,0,.209.006.209.195Z" transform="translate(-555.289 -339.91)"/>
    <polyline points="176.953 54.755 181.033 54.755 181.033 54.275 176.953 54.275"/>
    <path class="cls-2" d="M735.555,400.422h-2.873c0-.2,0-.209.069-.272l1.681-1.66a2.116,2.116,0,0,0,.655-1.338,1.044,1.044,0,0,0-1.06-1.109,1.1,1.1,0,0,0-1.018.648c.363,0,.412.245.412.37a.37.37,0,1,1-.739-.02,1.351,1.351,0,0,1,1.45-1.248,1.46,1.46,0,0,1,1.632,1.359,2.021,2.021,0,0,1-1,1.506c-.419.328-.663.524-1.4,1.172h1.283a3.517,3.517,0,0,0,.691-.043,1.6,1.6,0,0,0,.18-.635h.238Z" transform="translate(-555.289 -339.91)"/>
    <path class="cls-2" d="M634.435,345.739a3.877,3.877,0,0,0-.17.877c0,.339.159.658.548.658.319,0,1-.239,1.325-1.306.02-.07.04-.109.13-.109.03,0,.12,0,.12.1,0,.25-.569,1.535-1.6,1.535a1.1,1.1,0,0,1-1.076-.757,1.325,1.325,0,0,1-1.046.757c-.439,0-.937-.2-.937-.658a.567.567,0,0,1,.548-.578.342.342,0,0,1,.369.349.565.565,0,0,1-.468.538.954.954,0,0,0,.5.13c.438,0,.787-.419.946-1.037a14.529,14.529,0,0,0,.539-2.371c0-.578-.349-.668-.539-.668-.338,0-1,.25-1.335,1.306-.02.089-.05.109-.129.109-.02,0-.12,0-.12-.1,0-.249.568-1.535,1.6-1.535a1.1,1.1,0,0,1,1.077.757,1.287,1.287,0,0,1,1.046-.757c.338,0,.926.14.926.658a.556.556,0,0,1-.538.578.347.347,0,0,1-.378-.349.579.579,0,0,1,.478-.538.974.974,0,0,0-.5-.13c-.7,0-.927.917-.987,1.176Z" transform="translate(-555.289 -339.91)"/>
    <path class="cls-2" d="M638.262,349.875V339.91h1.365v.4h-.967v9.167h.967v.4Z" transform="translate(-555.289 -339.91)"/>
    <path class="cls-2" d="M641.3,344.494a3.2,3.2,0,0,0,.16-.837c0-.329-.11-.459-.309-.459-.358,0-.558.479-.727,1.186-.06.22-.07.229-.17.229-.02,0-.119,0-.119-.1a4.983,4.983,0,0,1,.3-.967.87.87,0,0,1,.747-.568.9.9,0,0,1,.917.867,1.924,1.924,0,0,1,1.554-.867,1.019,1.019,0,0,1,1.146,1.066,8.982,8.982,0,0,1-.608,2.192,1.9,1.9,0,0,0-.179.708c0,.229.07.329.239.329.488,0,.817-.558,1.016-1.236.05-.149.05-.179.15-.179.029,0,.119,0,.119.1,0,.08-.368,1.535-1.305,1.535a.8.8,0,0,1-.817-.817,1.136,1.136,0,0,1,.1-.459,9.5,9.5,0,0,0,.647-2.321c0-.329-.09-.7-.538-.7A1.983,1.983,0,0,0,642,344.414c-.01.04-.09.329-.13.5-.05.23-.109.449-.169.668l-.219.9c-.06.249-.18.717-.189.737a.408.408,0,0,1-.369.279.267.267,0,0,1-.289-.269c0-.05.06-.279.09-.429Z" transform="translate(-555.289 -339.91)"/>
    <path class="cls-2" d="M649.293,345.092c-.169,0-.349,0-.349-.2s.18-.2.349-.2h5.391c.169,0,.348,0,.348.2s-.179.2-.348.2Z" transform="translate(-555.289 -339.91)"/>
    <g>
      <path class="cls-2" d="M661.007,346.6c0,.369.031.478.927.478h.319v.309c-.349-.029-1.215-.029-1.614-.029s-1.265,0-1.614.029v-.309h.319c.9,0,.926-.119.926-.478v-5.161a2.984,2.984,0,0,1-1.3.259v-.309a2.459,2.459,0,0,0,1.813-.638c.229,0,.229.02.229.259Z" transform="translate(-555.289 -339.91)"/>
      <path class="cls-2" d="M664.7,349.875h-1.366v-.4h.967v-9.167h-.967v-.4H664.7Z" transform="translate(-555.289 -339.91)"/>
    </g>
    <path class="cls-2" d="M619.851,368.821a.886.886,0,0,0-.039.21c0,.159.079.189.368.219.259.02.389.02.638.02s.339,0,.339.109c0,.2-.12.2-.219.2-.28,0-.579-.02-.868-.02-.269,0-.548-.01-.826-.01s-.568.01-.848.01-.547.02-.816.02c-.06,0-.17,0-.17-.12,0-.189.06-.189.419-.189,1.066,0,1.1-.11,1.185-.478l1.336-5.321a1.054,1.054,0,0,0,.039-.21c0-.079,0-.119-.279-.119h-.388c-1.475,0-1.734.179-2.272,1.724-.06.159-.07.209-.169.209a.113.113,0,0,1-.12-.11,1.255,1.255,0,0,1,.06-.179l.6-1.754c.069-.189.079-.2.319-.2h5.529c.17,0,.27,0,.27.109a1.1,1.1,0,0,1-.02.17l-.27,1.734c-.02.149-.039.229-.149.229a.117.117,0,0,1-.12-.13,1.5,1.5,0,0,1,.03-.189,7.344,7.344,0,0,0,.08-.8c0-.777-.448-.817-1.455-.817a5.4,5.4,0,0,0-.627.02c-.12.03-.16.089-.23.368Z" transform="translate(-555.289 -339.91)"/>
    <polygon class="cls-1" points="50.835 26.255 50.835 12.082 79.182 12.082 79.182 40.429 50.835 40.429 50.835 26.255"/>
    <path class="cls-2" d="M676.492,368.821a.866.866,0,0,0-.04.21c0,.159.08.189.369.219.259.02.388.02.637.02s.339,0,.339.109c0,.2-.119.2-.219.2-.279,0-.578-.02-.867-.02-.269,0-.548-.01-.827-.01s-.568.01-.847.01-.548.02-.817.02c-.06,0-.169,0-.169-.12,0-.189.059-.189.418-.189,1.066,0,1.1-.11,1.186-.478l1.335-5.321a.981.981,0,0,0,.04-.21c0-.079,0-.119-.279-.119h-.389c-1.474,0-1.734.179-2.271,1.724-.06.159-.07.209-.17.209a.113.113,0,0,1-.119-.11,1.387,1.387,0,0,1,.059-.179l.6-1.754c.07-.189.08-.2.319-.2h5.53c.17,0,.269,0,.269.109a1.1,1.1,0,0,1-.02.17l-.269,1.734c-.02.149-.039.229-.149.229a.117.117,0,0,1-.12-.13,1.5,1.5,0,0,1,.03-.189,7.344,7.344,0,0,0,.08-.8c0-.777-.449-.817-1.455-.817a5.429,5.429,0,0,0-.628.02c-.119.03-.159.089-.229.368Z" transform="translate(-555.289 -339.91)"/>
    <path class="cls-1" d="M662.817,366.166V351.992h28.346v28.347H662.817Zm-7.078,28.139a7.257,7.257,0,1,0-7.257,7.257,7.259,7.259,0,0,0,7.257-7.257ZM644.93,390.77l7.087,7.087m-7.087,0,7.087-7.087" transform="translate(-555.289 -339.91)"/>
    <polyline points="81.563 56.671 86.098 54.403 81.563 52.136 82.697 54.403"/>
    <line class="cls-1" x1="71.925" y1="54.403" x2="82.697" y2="54.403"/>
    <polyline points="90.917 42.781 93.185 47.317 95.452 42.781 93.185 43.915"/>
    <path class="cls-1" d="M648.474,365.967v17.858m.34,17.774v21.259" transform="translate(-555.289 -339.91)"/>
    <polyline points="159.855 28.523 164.391 26.255 159.855 23.988 160.989 26.255"/>
    <line class="cls-1" x1="136.044" y1="26.255" x2="160.989" y2="26.255"/>
    <path class="cls-2" d="M796.729,425.275a2.626,2.626,0,0,1-2.331,2.034.943.943,0,0,1-1.056-.868.573.573,0,0,1,.558-.646.339.339,0,0,1,.369.348.538.538,0,0,1-.2.408.563.563,0,0,1-.428.121.8.8,0,0,0,.757.418,1.425,1.425,0,0,0,1.1-.629,3.808,3.808,0,0,0,.648-1.533,1.406,1.406,0,0,1-1.006.447,1.111,1.111,0,0,1-1.216-1.186,6.6,6.6,0,0,1,.578-2.091,2.142,2.142,0,0,0,.169-.7c0-.318-.169-.318-.249-.318-.339,0-.737.3-1.006,1.234-.05.161-.06.18-.16.18-.02,0-.119,0-.119-.1s.368-1.535,1.315-1.535a.791.791,0,0,1,.817.819,1.771,1.771,0,0,1-.2.716,5.956,5.956,0,0,0-.507,1.954c0,.369.109.806.618.806a1.383,1.383,0,0,0,1.125-.847l.449-1.793c.06-.27.129-.537.2-.8.039-.18.119-.489.14-.537a.43.43,0,0,1,.349-.211.267.267,0,0,1,.289.269.633.633,0,0,1-.04.231Z" transform="translate(-555.289 -339.91)"/>
    <path class="cls-2" d="M799.3,427.758v-9.965h1.365v.4H799.7v9.168h.967v.4Z" transform="translate(-555.289 -339.91)"/>
    <path class="cls-2" d="M802.338,422.377a3.232,3.232,0,0,0,.159-.838c0-.328-.109-.457-.309-.457-.359,0-.558.477-.727,1.186-.06.218-.07.228-.17.228-.02,0-.119,0-.119-.1a5.1,5.1,0,0,1,.3-.966.869.869,0,0,1,.747-.569.9.9,0,0,1,.917.868,1.925,1.925,0,0,1,1.554-.868,1.019,1.019,0,0,1,1.146,1.067,9.044,9.044,0,0,1-.607,2.193,1.888,1.888,0,0,0-.18.707c0,.229.069.328.239.328.488,0,.817-.558,1.016-1.234.051-.151.051-.18.15-.18.029,0,.119,0,.119.1,0,.08-.369,1.533-1.3,1.533a.8.8,0,0,1-.817-.816,1.136,1.136,0,0,1,.1-.459,9.511,9.511,0,0,0,.647-2.321c0-.33-.09-.7-.538-.7a1.983,1.983,0,0,0-1.624,1.215c-.01.039-.09.328-.13.5-.05.228-.109.449-.169.668l-.219.9c-.06.25-.179.717-.19.739a.4.4,0,0,1-.368.277.267.267,0,0,1-.289-.268c0-.05.059-.279.09-.429Z" transform="translate(-555.289 -339.91)"/>
    <path class="cls-2" d="M808.467,427.758H807.1v-.4h.966v-9.168H807.1v-.4h1.365Z" transform="translate(-555.289 -339.91)"/>
    <polyline points="230.721 85.216 235.256 82.948 230.721 80.68 231.855 82.948"/>
    <path class="cls-1" d="M769.286,422.858h17.858m-39.288-56.692h14.173m7.11,28.5a7.257,7.257,0,1,0-7.257,7.257,7.259,7.259,0,0,0,7.257-7.257Zm-10.823-3.526,7.086,7.086m-7.086,0,7.086-7.086" transform="translate(-555.289 -339.91)"/>
    <polyline points="194.948 57.04 199.483 54.772 194.948 52.504 196.082 54.772"/>
    <line class="cls-1" x1="185.31" y1="54.772" x2="196.082" y2="54.772"/>
    <polyline points="204.302 43.15 206.57 47.685 208.838 43.15 206.57 44.284"/>
    <line class="cls-1" x1="206.57" y1="26.426" x2="206.57" y2="44.284"/>
    <polyline points="204.302 71.666 206.57 76.202 208.838 71.666 206.57 72.8"/>
    <path class="cls-1" d="M761.859,401.939V412.71m7.4,9.915A7.257,7.257,0,1,0,762,429.881a7.259,7.259,0,0,0,7.257-7.256Zm-10.773.233h7.086m-3.543,3.544v-7.087" transform="translate(-555.289 -339.91)"/>
    <polyline points="195.118 85.216 199.653 82.948 195.118 80.68 196.252 82.948"/>
    <line class="cls-1" x1="93.525" y1="82.948" x2="196.252" y2="82.948"/>
    <path class="cls-2" d="M747.833,345.739a3.935,3.935,0,0,0-.17.877c0,.339.16.658.549.658.318,0,1-.239,1.325-1.306.02-.07.039-.109.129-.109.03,0,.12,0,.12.1,0,.25-.568,1.535-1.595,1.535a1.1,1.1,0,0,1-1.076-.757,1.323,1.323,0,0,1-1.046.757c-.438,0-.936-.2-.936-.658a.567.567,0,0,1,.548-.578.342.342,0,0,1,.369.349.565.565,0,0,1-.469.538.956.956,0,0,0,.5.13c.439,0,.787-.419.946-1.037a14.353,14.353,0,0,0,.538-2.371c0-.578-.348-.668-.538-.668-.337,0-1,.25-1.335,1.306-.019.089-.049.109-.128.109-.021,0-.121,0-.121-.1,0-.249.569-1.535,1.605-1.535a1.1,1.1,0,0,1,1.076.757,1.287,1.287,0,0,1,1.046-.757c.339,0,.927.14.927.658a.556.556,0,0,1-.538.578.348.348,0,0,1-.379-.349.579.579,0,0,1,.478-.538.974.974,0,0,0-.5-.13c-.7,0-.927.917-.986,1.176Z" transform="translate(-555.289 -339.91)"/>
    <path class="cls-2" d="M751.66,349.875V339.91h1.365v.4h-.966v9.167h.966v.4Z" transform="translate(-555.289 -339.91)"/>
    <path class="cls-2" d="M754.7,344.494a3.227,3.227,0,0,0,.159-.837c0-.329-.109-.459-.308-.459-.36,0-.559.479-.728,1.186-.059.22-.07.229-.17.229-.019,0-.119,0-.119-.1a5.058,5.058,0,0,1,.3-.967.871.871,0,0,1,.747-.568.9.9,0,0,1,.917.867,1.925,1.925,0,0,1,1.555-.867,1.018,1.018,0,0,1,1.145,1.066,9.024,9.024,0,0,1-.607,2.192,1.9,1.9,0,0,0-.18.708c0,.229.07.329.239.329.489,0,.817-.558,1.016-1.236.051-.149.051-.179.151-.179.029,0,.119,0,.119.1,0,.08-.369,1.535-1.306,1.535a.8.8,0,0,1-.816-.817,1.13,1.13,0,0,1,.1-.459,9.5,9.5,0,0,0,.648-2.321c0-.329-.09-.7-.538-.7a1.981,1.981,0,0,0-1.624,1.216c-.01.04-.09.329-.13.5-.05.23-.11.449-.169.668l-.22.9c-.06.249-.179.717-.189.737a.408.408,0,0,1-.369.279.267.267,0,0,1-.289-.269c0-.05.06-.279.09-.429Z" transform="translate(-555.289 -339.91)"/>
    <path class="cls-2" d="M762.7,345.092c-.169,0-.348,0-.348-.2s.179-.2.348-.2h5.391c.169,0,.348,0,.348.2s-.179.2-.348.2Z" transform="translate(-555.289 -339.91)"/>
    <g>
      <path class="cls-2" d="M776.03,345.68a2.033,2.033,0,0,1-2.122,1.923,1.816,1.816,0,0,1-2.012-1.565.558.558,0,1,1,1.115-.02.545.545,0,0,1-.657.548,1.812,1.812,0,0,0,1.524.758c.438,0,1.126-.289,1.126-1.644,0-.977-.369-1.655-1.186-1.655h-.438c-.17,0-.239,0-.239-.109s.069-.11.149-.12.309-.02.389-.029a.965.965,0,0,0,.886-.519,2.492,2.492,0,0,0,.28-1.136c0-.9-.549-1.115-.957-1.115a1.613,1.613,0,0,0-1.325.617c.149,0,.618,0,.618.5a.509.509,0,1,1-1.017-.009c0-.758.757-1.356,1.764-1.356.956,0,1.833.558,1.833,1.376a1.917,1.917,0,0,1-1.395,1.753A1.922,1.922,0,0,1,776.03,345.68Z" transform="translate(-555.289 -339.91)"/>
      <path class="cls-2" d="M778.1,349.875h-1.366v-.4h.967v-9.167h-.967v-.4H778.1Z" transform="translate(-555.289 -339.91)"/>
    </g>
    <path class="cls-2" d="M733.258,368.821a.866.866,0,0,0-.04.21c0,.159.08.189.368.219.26.02.389.02.638.02s.339,0,.339.109c0,.2-.12.2-.219.2-.28,0-.578-.02-.867-.02-.269,0-.548-.01-.828-.01s-.567.01-.846.01-.548.02-.818.02c-.059,0-.169,0-.169-.12,0-.189.06-.189.418-.189,1.067,0,1.1-.11,1.187-.478l1.335-5.321a.981.981,0,0,0,.04-.21c0-.079,0-.119-.279-.119h-.389c-1.475,0-1.733.179-2.272,1.724-.059.159-.07.209-.169.209a.113.113,0,0,1-.12-.11,1.255,1.255,0,0,1,.06-.179l.6-1.754c.07-.189.08-.2.319-.2h5.53c.169,0,.269,0,.269.109a1.1,1.1,0,0,1-.02.17l-.269,1.734c-.02.149-.04.229-.15.229a.117.117,0,0,1-.119-.13,1.684,1.684,0,0,1,.029-.189,7.382,7.382,0,0,0,.081-.8c0-.777-.449-.817-1.456-.817a5.4,5.4,0,0,0-.627.02c-.12.03-.16.089-.229.368Z" transform="translate(-555.289 -339.91)"/>
    <polygon class="cls-1" points="164.221 26.255 164.221 12.082 192.567 12.082 192.567 40.429 164.221 40.429 164.221 26.255"/>
    <path class="cls-2" d="M691.317,345.739a3.935,3.935,0,0,0-.17.877c0,.339.161.658.549.658.319,0,1-.239,1.325-1.306.02-.07.04-.109.129-.109.031,0,.121,0,.121.1,0,.25-.569,1.535-1.595,1.535a1.1,1.1,0,0,1-1.076-.757,1.326,1.326,0,0,1-1.046.757c-.439,0-.937-.2-.937-.658a.567.567,0,0,1,.548-.578.342.342,0,0,1,.369.349.565.565,0,0,1-.469.538.956.956,0,0,0,.5.13c.439,0,.788-.419.947-1.037a14.471,14.471,0,0,0,.538-2.371c0-.578-.349-.668-.538-.668-.338,0-1,.25-1.335,1.306-.02.089-.05.109-.129.109-.021,0-.12,0-.12-.1,0-.249.568-1.535,1.6-1.535a1.1,1.1,0,0,1,1.076.757,1.289,1.289,0,0,1,1.046-.757c.339,0,.927.14.927.658a.555.555,0,0,1-.538.578.348.348,0,0,1-.379-.349.578.578,0,0,1,.479-.538.976.976,0,0,0-.5-.13c-.7,0-.927.917-.987,1.176Z" transform="translate(-555.289 -339.91)"/>
    <path class="cls-2" d="M695.137,349.875V339.91H696.5v.4h-.967v9.167h.967v.4Z" transform="translate(-555.289 -339.91)"/>
    <path class="cls-2" d="M698.174,344.494a3.227,3.227,0,0,0,.159-.837c0-.329-.109-.459-.309-.459-.359,0-.558.479-.727,1.186-.06.22-.07.229-.17.229-.02,0-.119,0-.119-.1a4.983,4.983,0,0,1,.3-.967.87.87,0,0,1,.747-.568.9.9,0,0,1,.917.867,1.924,1.924,0,0,1,1.554-.867,1.019,1.019,0,0,1,1.146,1.066,8.982,8.982,0,0,1-.608,2.192,1.921,1.921,0,0,0-.179.708c0,.229.069.329.239.329.488,0,.816-.558,1.016-1.236.05-.149.05-.179.15-.179.029,0,.119,0,.119.1,0,.08-.369,1.535-1.305,1.535a.8.8,0,0,1-.817-.817,1.136,1.136,0,0,1,.1-.459,9.5,9.5,0,0,0,.647-2.321c0-.329-.09-.7-.538-.7a1.984,1.984,0,0,0-1.624,1.216c-.01.04-.09.329-.13.5-.05.23-.109.449-.169.668l-.219.9c-.06.249-.179.717-.19.737a.407.407,0,0,1-.368.279.267.267,0,0,1-.289-.269c0-.05.059-.279.09-.429Z" transform="translate(-555.289 -339.91)"/>
    <path class="cls-2" d="M706.176,345.092c-.169,0-.349,0-.349-.2s.18-.2.349-.2h5.39c.169,0,.349,0,.349.2s-.18.2-.349.2Z" transform="translate(-555.289 -339.91)"/>
    <g>
      <path class="cls-2" d="M718.02,346.616a3.244,3.244,0,0,0,.947-.08,3.3,3.3,0,0,0,.219-.887h.249l-.279,1.734h-3.7c0-.239,0-.259.109-.368l1.913-2.133a3.561,3.561,0,0,0,1.047-2.2c0-.817-.428-1.624-1.335-1.624a1.437,1.437,0,0,0-1.345,1.016.418.418,0,0,1,.13-.009.5.5,0,0,1,.527.518.524.524,0,1,1-1.046-.03,1.841,1.841,0,0,1,1.863-1.8,1.958,1.958,0,0,1,2.113,1.933c0,1-.6,1.535-2.153,2.91l-1.055,1.026Z" transform="translate(-555.289 -339.91)"/>
      <path class="cls-2" d="M721.586,349.875h-1.365v-.4h.967v-9.167h-.967v-.4h1.365Z" transform="translate(-555.289 -339.91)"/>
    </g>
    <path class="cls-2" d="M771.749,411.211a1.19,1.19,0,0,1-1.335-1.234,6.088,6.088,0,0,1,.568-2.043,2.056,2.056,0,0,0,.169-.7c0-.318-.169-.318-.249-.318-.289,0-.717.228-1.006,1.234-.049.161-.06.18-.16.18-.019,0-.119,0-.119-.1s.379-1.535,1.316-1.535a.79.79,0,0,1,.816.819,1.235,1.235,0,0,1-.119.5,6.982,6.982,0,0,0-.578,2.111c0,.52.229.867.737.867,1.166,0,1.774-2.281,1.774-2.7a1.069,1.069,0,0,0-.339-.818c-.11-.11-.16-.168-.16-.3a.534.534,0,0,1,.489-.479c.179,0,.438.16.438.7C773.991,407.914,773.423,411.211,771.749,411.211Z" transform="translate(-555.289 -339.91)"/>
    <path class="cls-2" d="M777.438,412.539h-2.874c0-.195,0-.209.07-.271l1.68-1.661a2.111,2.111,0,0,0,.656-1.337,1.045,1.045,0,0,0-1.06-1.11,1.1,1.1,0,0,0-1.018.649c.363,0,.412.244.412.369a.37.37,0,1,1-.74-.02,1.352,1.352,0,0,1,1.451-1.248,1.459,1.459,0,0,1,1.631,1.36,2.017,2.017,0,0,1-1,1.5c-.419.329-.662.524-1.394,1.172h1.283a3.517,3.517,0,0,0,.691-.043,1.62,1.62,0,0,0,.18-.634h.237Z" transform="translate(-555.289 -339.91)"/>
    <path class="cls-2" d="M779.738,413.594v-9.965H781.1v.4h-.967V413.2h.967v.4Z" transform="translate(-555.289 -339.91)"/>
    <path class="cls-2" d="M782.775,408.213a3.251,3.251,0,0,0,.16-.838c0-.328-.11-.457-.309-.457-.359,0-.559.477-.728,1.186-.059.218-.07.228-.169.228-.02,0-.12,0-.12-.1a5.078,5.078,0,0,1,.3-.966.87.87,0,0,1,.747-.569.9.9,0,0,1,.917.867,1.927,1.927,0,0,1,1.555-.867,1.018,1.018,0,0,1,1.145,1.067,9,9,0,0,1-.607,2.193,1.888,1.888,0,0,0-.18.707c0,.229.07.328.24.328.488,0,.816-.558,1.015-1.234.051-.151.051-.18.151-.18.029,0,.119,0,.119.1,0,.08-.369,1.533-1.306,1.533a.8.8,0,0,1-.816-.816,1.13,1.13,0,0,1,.1-.459,9.511,9.511,0,0,0,.648-2.321c0-.33-.09-.7-.538-.7a1.98,1.98,0,0,0-1.624,1.215c-.01.039-.09.328-.13.5-.05.228-.11.449-.169.668l-.22.9c-.059.25-.179.717-.189.739a.405.405,0,0,1-.369.277.267.267,0,0,1-.289-.268c0-.05.06-.279.09-.429Z" transform="translate(-555.289 -339.91)"/>
    <path class="cls-2" d="M788.9,413.594h-1.365v-.4h.967v-9.168h-.967v-.4H788.9Z" transform="translate(-555.289 -339.91)"/>
    <path class="cls-2" d="M658.343,411.211a1.19,1.19,0,0,1-1.335-1.234,6.088,6.088,0,0,1,.568-2.043,2.056,2.056,0,0,0,.169-.7c0-.318-.169-.318-.249-.318-.289,0-.717.228-1.006,1.234-.05.161-.06.18-.159.18-.02,0-.12,0-.12-.1s.378-1.535,1.315-1.535a.791.791,0,0,1,.817.819,1.235,1.235,0,0,1-.119.5,6.982,6.982,0,0,0-.578,2.111c0,.52.229.867.737.867,1.166,0,1.774-2.281,1.774-2.7a1.072,1.072,0,0,0-.339-.818c-.11-.11-.16-.168-.16-.3a.533.533,0,0,1,.488-.479c.18,0,.439.16.439.7C660.585,407.914,660.017,411.211,658.343,411.211Z" transform="translate(-555.289 -339.91)"/>
    <path class="cls-2" d="M663.055,411.967c0,.23,0,.322.7.322h.265v.25c-.153-.006-1.032-.027-1.248-.027-.258,0-1.116.021-1.241.027v-.25h.264c.7,0,.7-.092.7-.322v-3.555a2.3,2.3,0,0,1-1.011.2v-.252a1.908,1.908,0,0,0,1.367-.445c.2,0,.209.006.209.195Z" transform="translate(-555.289 -339.91)"/>
    <path class="cls-2" d="M666.457,413.594v-9.965h1.365v.4h-.967V413.2h.967v.4Z" transform="translate(-555.289 -339.91)"/>
    <path class="cls-2" d="M669.494,408.213a3.187,3.187,0,0,0,.159-.838c0-.328-.11-.457-.309-.457-.358,0-.558.477-.727,1.186-.06.218-.07.228-.169.228-.02,0-.12,0-.12-.1a5,5,0,0,1,.3-.966.87.87,0,0,1,.747-.569.9.9,0,0,1,.917.867,1.928,1.928,0,0,1,1.554-.867,1.018,1.018,0,0,1,1.146,1.067,8.957,8.957,0,0,1-.608,2.193,1.887,1.887,0,0,0-.179.707c0,.229.07.328.239.328.488,0,.817-.558,1.016-1.234.05-.151.05-.18.15-.18.03,0,.12,0,.12.1,0,.08-.369,1.533-1.306,1.533a.8.8,0,0,1-.817-.816,1.136,1.136,0,0,1,.1-.459,9.511,9.511,0,0,0,.648-2.321c0-.33-.09-.7-.539-.7a1.983,1.983,0,0,0-1.624,1.215c-.01.039-.089.328-.129.5-.05.228-.11.449-.169.668l-.22.9c-.06.25-.179.717-.189.739a.405.405,0,0,1-.369.277.267.267,0,0,1-.289-.268c0-.05.06-.279.09-.429Z" transform="translate(-555.289 -339.91)"/>
    <path class="cls-2" d="M675.624,413.594h-1.366v-.4h.967v-9.168h-.967v-.4h1.366Z" transform="translate(-555.289 -339.91)"/>
  </g>
</svg>
