<svg id="Layer_1" data-name="Layer 1" xmlns="http://www.w3.org/2000/svg" viewBox="0 0 399.633 80.77">
  <defs>
    <style>
      .cls-1, .cls-3 {
        fill: none;
        stroke: #000;
        stroke-miterlimit: 10;
      }

      .cls-1 {
        stroke-width: 0.85px;
      }

      .cls-2 {
        fill: #1d1d1b;
      }

      .cls-3 {
        stroke-width: 1.701px;
      }
    </style>
  </defs>
  <title>imprespexample</title>
  <g>
    <polyline points="137.026 28.536 141.561 26.269 137.026 24.001 138.16 26.269"/>
    <line class="cls-1" x1="113.215" y1="26.269" x2="138.16" y2="26.269"/>
    <path class="cls-2" d="M592.417,350.739a3.877,3.877,0,0,0-.17.877c0,.339.159.658.548.658.319,0,1-.239,1.325-1.306.02-.07.04-.109.13-.109.03,0,.12,0,.12.1,0,.25-.569,1.535-1.6,1.535a1.1,1.1,0,0,1-1.076-.757,1.325,1.325,0,0,1-1.046.757c-.439,0-.937-.2-.937-.658a.567.567,0,0,1,.548-.578.342.342,0,0,1,.369.349.565.565,0,0,1-.468.538.954.954,0,0,0,.5.13c.438,0,.787-.419.946-1.037a14.471,14.471,0,0,0,.538-2.371c0-.578-.348-.668-.538-.668-.338,0-1,.25-1.335,1.306-.02.089-.05.109-.129.109-.02,0-.12,0-.12-.1,0-.249.568-1.535,1.6-1.535a1.1,1.1,0,0,1,1.077.757,1.287,1.287,0,0,1,1.045-.757c.339,0,.927.14.927.658a.556.556,0,0,1-.538.578.347.347,0,0,1-.378-.349.579.579,0,0,1,.478-.538.974.974,0,0,0-.5-.13c-.7,0-.927.917-.987,1.176Z" transform="translate(-474 -344.91)"/>
    <path class="cls-2" d="M596.236,354.875V344.91H597.6v.4h-.967v9.167h.967v.4Z" transform="translate(-474 -344.91)"/>
    <path class="cls-2" d="M599.28,349.494a3.2,3.2,0,0,0,.16-.837c0-.329-.11-.459-.309-.459-.359,0-.558.479-.727,1.186-.06.22-.07.229-.17.229-.02,0-.119,0-.119-.1a4.983,4.983,0,0,1,.3-.967.87.87,0,0,1,.747-.568.9.9,0,0,1,.917.867,1.924,1.924,0,0,1,1.554-.867,1.019,1.019,0,0,1,1.146,1.066,8.982,8.982,0,0,1-.608,2.192,1.9,1.9,0,0,0-.179.708c0,.229.07.329.239.329.488,0,.817-.558,1.016-1.236.05-.149.05-.179.15-.179.029,0,.119,0,.119.1,0,.08-.369,1.535-1.3,1.535a.8.8,0,0,1-.817-.817,1.136,1.136,0,0,1,.1-.459,9.5,9.5,0,0,0,.647-2.321c0-.329-.09-.7-.538-.7a1.981,1.981,0,0,0-1.624,1.216c-.01.04-.09.329-.13.5-.05.23-.109.449-.169.668l-.219.9c-.06.249-.18.717-.189.737a.409.409,0,0,1-.369.279.266.266,0,0,1-.289-.269c0-.05.06-.279.09-.429Z" transform="translate(-474 -344.91)"/>
    <path class="cls-2" d="M605.4,354.875h-1.365v-.4H605v-9.167h-.966v-.4H605.4Z" transform="translate(-474 -344.91)"/>
    <path class="cls-2" d="M629.31,373.821a.866.866,0,0,0-.04.21c0,.159.08.189.369.219.258.02.388.02.637.02s.339,0,.339.109c0,.2-.119.2-.219.2-.279,0-.578-.02-.867-.02-.269,0-.548-.01-.827-.01s-.568.01-.847.01-.548.02-.817.02c-.06,0-.169,0-.169-.12,0-.189.059-.189.418-.189,1.066,0,1.1-.11,1.186-.478l1.335-5.321a.981.981,0,0,0,.04-.21c0-.079,0-.119-.279-.119h-.389c-1.474,0-1.734.179-2.271,1.724-.06.159-.07.209-.17.209a.113.113,0,0,1-.119-.11,1.248,1.248,0,0,1,.059-.179l.6-1.754c.07-.189.08-.2.319-.2h5.53c.169,0,.269,0,.269.109a1.1,1.1,0,0,1-.02.17l-.269,1.734c-.02.149-.04.229-.149.229a.117.117,0,0,1-.12-.13,1.5,1.5,0,0,1,.03-.189,7.344,7.344,0,0,0,.08-.8c0-.777-.449-.817-1.455-.817a5.429,5.429,0,0,0-.628.02c-.119.03-.159.089-.229.368Z" transform="translate(-474 -344.91)"/>
    <polygon class="cls-1" points="141.561 26.269 141.561 12.095 169.908 12.095 169.908 40.442 141.561 40.442 141.561 26.269"/>
    <polyline points="193.719 28.536 198.254 26.269 193.719 24.001 194.852 26.269"/>
    <line class="cls-1" x1="169.908" y1="26.269" x2="194.852" y2="26.269"/>
    <path class="cls-2" d="M685.951,373.821a.866.866,0,0,0-.04.21c0,.159.08.189.368.219.26.02.389.02.638.02s.339,0,.339.109c0,.2-.119.2-.219.2-.279,0-.578-.02-.867-.02-.269,0-.548-.01-.827-.01s-.568.01-.847.01-.548.02-.817.02c-.06,0-.169,0-.169-.12,0-.189.059-.189.418-.189,1.066,0,1.1-.11,1.186-.478l1.335-5.321a.981.981,0,0,0,.04-.21c0-.079,0-.119-.279-.119h-.389c-1.474,0-1.733.179-2.271,1.724-.06.159-.071.209-.17.209a.113.113,0,0,1-.119-.11,1.387,1.387,0,0,1,.059-.179l.6-1.754c.07-.189.08-.2.319-.2h5.531c.169,0,.268,0,.268.109a1.227,1.227,0,0,1-.019.17l-.27,1.734c-.019.149-.04.229-.149.229a.117.117,0,0,1-.119-.13,1.481,1.481,0,0,1,.029-.189,7.344,7.344,0,0,0,.08-.8c0-.777-.448-.817-1.455-.817a5.429,5.429,0,0,0-.628.02c-.119.03-.159.089-.229.368Z" transform="translate(-474 -344.91)"/>
    <path class="cls-1" d="M672.254,371.179V357.006H700.6v28.346H672.254Zm28.346,0h14.173m-113.215,0V413.7" transform="translate(-474 -344.91)"/>
    <path class="cls-2" d="M643.893,350.739a3.86,3.86,0,0,0-.169.877c0,.339.159.658.547.658.319,0,1-.239,1.326-1.306.02-.07.04-.109.13-.109.029,0,.119,0,.119.1,0,.25-.568,1.535-1.6,1.535a1.1,1.1,0,0,1-1.075-.757,1.327,1.327,0,0,1-1.047.757c-.438,0-.936-.2-.936-.658a.567.567,0,0,1,.548-.578.341.341,0,0,1,.368.349.565.565,0,0,1-.468.538.958.958,0,0,0,.5.13c.439,0,.787-.419.947-1.037a14.471,14.471,0,0,0,.538-2.371c0-.578-.349-.668-.538-.668-.339,0-1,.25-1.335,1.306-.02.089-.05.109-.13.109-.02,0-.12,0-.12-.1,0-.249.569-1.535,1.605-1.535a1.1,1.1,0,0,1,1.076.757,1.289,1.289,0,0,1,1.046-.757c.339,0,.927.14.927.658a.556.556,0,0,1-.538.578.348.348,0,0,1-.379-.349.58.58,0,0,1,.478-.538.974.974,0,0,0-.5-.13c-.7,0-.926.917-.986,1.176Z" transform="translate(-474 -344.91)"/>
    <path class="cls-2" d="M647.712,354.875V344.91h1.366v.4h-.967v9.167h.967v.4Z" transform="translate(-474 -344.91)"/>
    <path class="cls-2" d="M650.757,349.494a3.2,3.2,0,0,0,.16-.837c0-.329-.11-.459-.31-.459-.358,0-.558.479-.727,1.186-.06.22-.069.229-.169.229-.02,0-.12,0-.12-.1a4.983,4.983,0,0,1,.3-.967.871.871,0,0,1,.747-.568.9.9,0,0,1,.917.867,1.928,1.928,0,0,1,1.554-.867,1.018,1.018,0,0,1,1.146,1.066,8.937,8.937,0,0,1-.608,2.192,1.921,1.921,0,0,0-.179.708c0,.229.07.329.24.329.487,0,.816-.558,1.016-1.236.049-.149.049-.179.149-.179.03,0,.12,0,.12.1,0,.08-.369,1.535-1.3,1.535a.8.8,0,0,1-.818-.817,1.136,1.136,0,0,1,.1-.459,9.5,9.5,0,0,0,.648-2.321c0-.329-.09-.7-.538-.7a1.981,1.981,0,0,0-1.624,1.216c-.011.04-.09.329-.13.5-.05.23-.11.449-.169.668l-.219.9c-.061.249-.18.717-.19.737a.408.408,0,0,1-.369.279.267.267,0,0,1-.289-.269c0-.05.06-.279.09-.429Z" transform="translate(-474 -344.91)"/>
    <path class="cls-2" d="M658.751,350.092c-.169,0-.348,0-.348-.2s.179-.2.348-.2h5.391c.17,0,.349,0,.349.2s-.179.2-.349.2Z" transform="translate(-474 -344.91)"/>
    <g>
      <path class="cls-2" d="M670.466,351.6c0,.369.03.478.927.478h.318v.309c-.348-.029-1.215-.029-1.614-.029s-1.265,0-1.614.029v-.309h.319c.9,0,.927-.119.927-.478v-5.161a2.988,2.988,0,0,1-1.306.259v-.309a2.462,2.462,0,0,0,1.814-.638c.229,0,.229.02.229.259Z" transform="translate(-474 -344.91)"/>
      <path class="cls-2" d="M674.162,354.875H672.8v-.4h.966v-9.167H672.8v-.4h1.365Z" transform="translate(-474 -344.91)"/>
    </g>
    <path class="cls-2" d="M700.644,350.739a3.877,3.877,0,0,0-.17.877c0,.339.16.658.548.658.319,0,1-.239,1.326-1.306.019-.07.039-.109.129-.109.03,0,.12,0,.12.1,0,.25-.569,1.535-1.6,1.535a1.1,1.1,0,0,1-1.076-.757,1.326,1.326,0,0,1-1.046.757c-.439,0-.937-.2-.937-.658a.567.567,0,0,1,.548-.578.342.342,0,0,1,.369.349.565.565,0,0,1-.468.538.954.954,0,0,0,.5.13c.438,0,.787-.419.946-1.037a14.471,14.471,0,0,0,.538-2.371c0-.578-.349-.668-.538-.668-.338,0-1,.25-1.335,1.306-.02.089-.05.109-.129.109-.02,0-.12,0-.12-.1,0-.249.568-1.535,1.6-1.535a1.1,1.1,0,0,1,1.077.757,1.286,1.286,0,0,1,1.046-.757c.338,0,.926.14.926.658a.555.555,0,0,1-.538.578.349.349,0,0,1-.379-.349.58.58,0,0,1,.479-.538.974.974,0,0,0-.5-.13c-.7,0-.927.917-.987,1.176Z" transform="translate(-474 -344.91)"/>
    <path class="cls-2" d="M704.471,354.875V344.91h1.365v.4h-.967v9.167h.967v.4Z" transform="translate(-474 -344.91)"/>
    <path class="cls-2" d="M707.508,349.494a3.227,3.227,0,0,0,.159-.837c0-.329-.109-.459-.309-.459-.359,0-.558.479-.727,1.186-.06.22-.07.229-.17.229-.02,0-.119,0-.119-.1a4.983,4.983,0,0,1,.3-.967.87.87,0,0,1,.747-.568.9.9,0,0,1,.917.867,1.924,1.924,0,0,1,1.554-.867,1.019,1.019,0,0,1,1.146,1.066,8.982,8.982,0,0,1-.608,2.192,1.921,1.921,0,0,0-.179.708c0,.229.069.329.239.329.488,0,.816-.558,1.016-1.236.05-.149.05-.179.15-.179.029,0,.119,0,.119.1,0,.08-.369,1.535-1.3,1.535a.8.8,0,0,1-.817-.817,1.136,1.136,0,0,1,.1-.459,9.5,9.5,0,0,0,.647-2.321c0-.329-.09-.7-.538-.7a1.983,1.983,0,0,0-1.624,1.216c-.01.04-.09.329-.13.5-.05.23-.109.449-.169.668l-.219.9c-.06.249-.179.717-.19.737a.407.407,0,0,1-.368.279.266.266,0,0,1-.289-.269c0-.05.059-.279.09-.429Z" transform="translate(-474 -344.91)"/>
    <path class="cls-2" d="M715.393,350.092c-.169,0-.349,0-.349-.2s.18-.2.349-.2h5.39c.169,0,.349,0,.349.2s-.18.2-.349.2Z" transform="translate(-474 -344.91)"/>
    <g>
      <path class="cls-2" d="M727.354,351.616a3.244,3.244,0,0,0,.947-.08,3.3,3.3,0,0,0,.219-.887h.249l-.279,1.734h-3.7c0-.239,0-.259.109-.368l1.913-2.133a3.561,3.561,0,0,0,1.047-2.2c0-.817-.428-1.624-1.335-1.624a1.437,1.437,0,0,0-1.345,1.016.418.418,0,0,1,.13-.009.5.5,0,0,1,.527.518.524.524,0,1,1-1.046-.03,1.841,1.841,0,0,1,1.863-1.8,1.958,1.958,0,0,1,2.113,1.933c0,1-.6,1.535-2.153,2.91l-1.055,1.026Z" transform="translate(-474 -344.91)"/>
      <path class="cls-2" d="M730.92,354.875h-1.365v-.4h.966v-9.167h-.966v-.4h1.365Z" transform="translate(-474 -344.91)"/>
    </g>
    <polyline points="238.676 57.166 240.944 61.702 243.211 57.166 240.944 58.3"/>
    <line class="cls-1" x1="240.944" y1="26.269" x2="240.944" y2="58.3"/>
    <polyline points="181.983 57.166 184.251 61.702 186.519 57.166 184.251 58.3"/>
    <line class="cls-1" x1="184.251" y1="26.269" x2="184.251" y2="58.3"/>
    <path class="cls-2" d="M747.274,423.2a2.625,2.625,0,0,1-2.331,2.033.942.942,0,0,1-1.056-.867.573.573,0,0,1,.558-.646.338.338,0,0,1,.368.347.538.538,0,0,1-.2.409.563.563,0,0,1-.428.121.805.805,0,0,0,.757.418,1.425,1.425,0,0,0,1.1-.629,3.814,3.814,0,0,0,.648-1.533,1.406,1.406,0,0,1-1.006.447,1.111,1.111,0,0,1-1.216-1.186,6.6,6.6,0,0,1,.578-2.091,2.142,2.142,0,0,0,.169-.7c0-.318-.169-.318-.249-.318-.339,0-.737.3-1.006,1.234-.05.16-.061.18-.16.18-.02,0-.119,0-.119-.1s.368-1.535,1.315-1.535a.791.791,0,0,1,.817.819,1.771,1.771,0,0,1-.2.716,5.932,5.932,0,0,0-.507,1.953c0,.37.109.807.618.807a1.382,1.382,0,0,0,1.125-.848l.449-1.792c.059-.27.129-.538.2-.8.039-.18.119-.489.14-.537a.43.43,0,0,1,.348-.211.266.266,0,0,1,.289.269.636.636,0,0,1-.04.231Z" transform="translate(-474 -344.91)"/>
    <path class="cls-2" d="M749.838,425.68v-9.965H751.2v.4h-.967v9.168h.967v.4Z" transform="translate(-474 -344.91)"/>
    <path class="cls-2" d="M752.875,420.3a3.232,3.232,0,0,0,.159-.838c0-.328-.109-.457-.308-.457-.36,0-.559.476-.728,1.185-.06.219-.07.229-.17.229-.019,0-.119,0-.119-.1a5.078,5.078,0,0,1,.3-.966.869.869,0,0,1,.747-.569.9.9,0,0,1,.917.867,1.927,1.927,0,0,1,1.555-.867,1.018,1.018,0,0,1,1.145,1.067,9.044,9.044,0,0,1-.607,2.193,1.888,1.888,0,0,0-.18.707c0,.229.069.328.239.328.489,0,.817-.558,1.016-1.234.051-.151.051-.18.15-.18.03,0,.119,0,.119.1,0,.08-.369,1.533-1.305,1.533a.8.8,0,0,1-.817-.817,1.142,1.142,0,0,1,.1-.459,9.49,9.49,0,0,0,.647-2.32c0-.33-.089-.7-.538-.7a1.983,1.983,0,0,0-1.624,1.215c-.009.039-.09.328-.13.5-.049.228-.109.449-.169.668l-.219.9c-.06.25-.179.717-.19.739a.4.4,0,0,1-.368.277.267.267,0,0,1-.289-.268c0-.05.06-.279.09-.429Z" transform="translate(-474 -344.91)"/>
    <g>
      <path class="cls-2" d="M759,425.68h-1.365v-.4h.966v-9.168h-.966v-.4H759Z" transform="translate(-474 -344.91)"/>
      <path class="cls-2" d="M763.716,419.93c-.15,0-.339,0-.339-.2s.189-.2.329-.2h5.969c.139,0,.328,0,.328.2s-.189.2-.338.2Zm-.01,1.933c-.14,0-.329,0-.329-.2s.189-.2.339-.2h5.949c.149,0,.338,0,.338.2s-.189.2-.328.2Z" transform="translate(-474 -344.91)"/>
    </g>
    <path class="cls-2" d="M775.463,419.551a1.856,1.856,0,0,1,1.475-.768,1.014,1.014,0,0,1,1.146,1.067,8.938,8.938,0,0,1-.608,2.193,1.906,1.906,0,0,0-.179.707c0,.229.069.328.239.328.548,0,.866-.707,1.016-1.234.05-.151.05-.18.149-.18.03,0,.12,0,.12.1,0,.08-.369,1.533-1.305,1.533a.8.8,0,0,1-.817-.817,1.521,1.521,0,0,1,.129-.548,8.476,8.476,0,0,0,.618-2.231c0-.359-.109-.7-.538-.7a1.59,1.59,0,0,0-.957.348,2.971,2.971,0,0,0-.677.916c-.01.06-.089.388-.11.449-.05.228-.109.449-.169.668l-.22.9-.188.758a.416.416,0,0,1-.369.258.273.273,0,0,1-.289-.277.617.617,0,0,1,.04-.221l1.444-5.738.03-.2c0-.1-.019-.17-.5-.17-.149,0-.239,0-.239-.119,0-.179.109-.189.19-.2.258-.019.986-.1,1.215-.1.129,0,.129.1.129.11Z" transform="translate(-474 -344.91)"/>
    <path class="cls-2" d="M780.314,425.68v-9.965h1.366v.4h-.967v9.168h.967v.4Z" transform="translate(-474 -344.91)"/>
    <path class="cls-2" d="M783.352,420.3a3.278,3.278,0,0,0,.159-.838c0-.328-.11-.457-.309-.457-.359,0-.558.476-.727,1.185-.06.219-.071.229-.17.229-.02,0-.119,0-.119-.1a5.05,5.05,0,0,1,.3-.966.87.87,0,0,1,.747-.569.9.9,0,0,1,.917.867,1.929,1.929,0,0,1,1.555-.867,1.019,1.019,0,0,1,1.146,1.067,9,9,0,0,1-.608,2.193,1.887,1.887,0,0,0-.179.707c0,.229.069.328.239.328.488,0,.816-.558,1.015-1.234.051-.151.051-.18.151-.18.029,0,.119,0,.119.1,0,.08-.369,1.533-1.306,1.533a.8.8,0,0,1-.816-.817,1.154,1.154,0,0,1,.1-.459,9.446,9.446,0,0,0,.648-2.32c0-.33-.09-.7-.538-.7a1.982,1.982,0,0,0-1.624,1.215c-.01.039-.09.328-.13.5-.05.228-.109.449-.169.668l-.22.9c-.059.25-.178.717-.189.739a.405.405,0,0,1-.368.277.266.266,0,0,1-.289-.268c0-.05.059-.279.089-.429Z" transform="translate(-474 -344.91)"/>
    <path class="cls-2" d="M789.48,425.68h-1.365v-.4h.967v-9.168h-.967v-.4h1.365Z" transform="translate(-474 -344.91)"/>
    <path class="cls-1" d="M665.557,413.465a7.257,7.257,0,1,0-7.257,7.256,7.259,7.259,0,0,0,7.257-7.256Zm-10.849.233h7.086m-3.543,3.544v-7.087" transform="translate(-474 -344.91)"/>
    <polyline points="172.629 71.056 177.164 68.788 172.629 66.52 173.763 68.788"/>
    <path class="cls-1" d="M601.558,413.7h46.205m74.434-.233a7.257,7.257,0,1,0-7.257,7.256,7.259,7.259,0,0,0,7.257-7.256Zm-10.8.233h7.087m-3.543,3.544v-7.087" transform="translate(-474 -344.91)"/>
    <polyline points="229.322 71.056 233.857 68.788 229.322 66.52 230.455 68.788"/>
    <line class="cls-1" x1="191.338" y1="68.788" x2="230.455" y2="68.788"/>
    <polyline points="264.754 71.056 269.29 68.788 264.754 66.52 265.888 68.788"/>
    <line class="cls-1" x1="248.03" y1="68.788" x2="265.888" y2="68.788"/>
    <polyline points="381.683 49.796 386.218 47.528 381.683 45.261 382.817 47.528"/>
    <line class="cls-1" x1="297.636" y1="47.528" x2="382.817" y2="47.528"/>
    <polyline points="321.164 9.544 318.896 5.009 316.628 9.544 318.896 8.41"/>
    <line class="cls-1" x1="318.896" y1="54.615" x2="318.896" y2="8.41"/>
    <g>
      <path class="cls-2" d="M778.755,394.068a1.934,1.934,0,1,1,1.933-1.933A1.944,1.944,0,0,1,778.755,394.068Z" transform="translate(-474 -344.91)"/>
      <path class="cls-2" d="M835.393,394.068a1.934,1.934,0,1,1,1.932-1.933A1.944,1.944,0,0,1,835.393,394.068Z" transform="translate(-474 -344.91)"/>
    </g>
    <path class="cls-2" d="M849.669,394.068a1.934,1.934,0,1,1,1.933-1.933A1.944,1.944,0,0,1,849.669,394.068Z" transform="translate(-474 -344.91)"/>
    <path class="cls-2" d="M869.4,391.611a3.244,3.244,0,0,0,.16-.838c0-.328-.11-.457-.309-.457-.359,0-.559.477-.728,1.186-.059.219-.07.228-.169.228-.02,0-.12,0-.12-.1a5.1,5.1,0,0,1,.3-.967.869.869,0,0,1,.747-.568.9.9,0,0,1,.917.867,1.926,1.926,0,0,1,1.555-.867,1.018,1.018,0,0,1,1.146,1.066,9,9,0,0,1-.608,2.193,1.893,1.893,0,0,0-.18.708c0,.228.07.328.24.328.488,0,.816-.559,1.015-1.235.051-.15.051-.179.151-.179.029,0,.119,0,.119.1,0,.08-.369,1.533-1.306,1.533a.794.794,0,0,1-.816-.816,1.151,1.151,0,0,1,.1-.459,9.458,9.458,0,0,0,.648-2.32c0-.33-.09-.7-.538-.7a1.982,1.982,0,0,0-1.624,1.215c-.01.039-.09.328-.13.5-.05.229-.11.45-.169.668l-.22.9c-.059.25-.179.717-.189.738a.405.405,0,0,1-.368.277.266.266,0,0,1-.29-.267c0-.051.06-.279.09-.43Z" transform="translate(-474 -344.91)"/>
    <path class="cls-2" d="M802.1,348.747a1.849,1.849,0,0,1,1.475-.768,1.014,1.014,0,0,1,1.146,1.066,8.9,8.9,0,0,1-.609,2.192,1.92,1.92,0,0,0-.178.708c0,.229.069.329.239.329.548,0,.866-.708,1.015-1.236.05-.149.05-.179.15-.179.03,0,.12,0,.12.1,0,.08-.369,1.535-1.306,1.535a.8.8,0,0,1-.816-.817,1.516,1.516,0,0,1,.129-.548,8.472,8.472,0,0,0,.618-2.232c0-.359-.109-.7-.538-.7a1.59,1.59,0,0,0-.957.349,2.932,2.932,0,0,0-.677.917c-.011.059-.09.389-.11.448-.05.23-.11.449-.169.668l-.22.9-.188.757a.416.416,0,0,1-.37.259.275.275,0,0,1-.289-.279.609.609,0,0,1,.04-.219l1.445-5.74.03-.2c0-.1-.02-.169-.5-.169-.149,0-.239,0-.239-.12,0-.179.109-.189.189-.2.259-.02.986-.1,1.216-.1.129,0,.129.1.129.11Z" transform="translate(-474 -344.91)"/>
    <path class="cls-2" d="M806.955,354.875V344.91h1.365v.4h-.966v9.167h.966v.4Z" transform="translate(-474 -344.91)"/>
    <path class="cls-2" d="M810,349.494a3.227,3.227,0,0,0,.159-.837c0-.329-.109-.459-.308-.459-.36,0-.559.479-.728,1.186-.06.22-.07.229-.17.229-.019,0-.119,0-.119-.1a5.058,5.058,0,0,1,.3-.967.87.87,0,0,1,.747-.568.9.9,0,0,1,.917.867,1.925,1.925,0,0,1,1.555-.867,1.018,1.018,0,0,1,1.145,1.066,9.024,9.024,0,0,1-.607,2.192,1.9,1.9,0,0,0-.18.708c0,.229.069.329.239.329.489,0,.817-.558,1.016-1.236.051-.149.051-.179.15-.179.03,0,.119,0,.119.1,0,.08-.369,1.535-1.305,1.535a.8.8,0,0,1-.817-.817,1.136,1.136,0,0,1,.1-.459,9.5,9.5,0,0,0,.647-2.321c0-.329-.089-.7-.538-.7a1.984,1.984,0,0,0-1.624,1.216c-.009.04-.09.329-.13.5-.049.23-.109.449-.169.668l-.219.9c-.06.249-.179.717-.19.737a.407.407,0,0,1-.368.279.267.267,0,0,1-.289-.269c0-.05.06-.279.09-.429Z" transform="translate(-474 -344.91)"/>
    <path class="cls-2" d="M816.129,354.875h-1.365v-.4h.966v-9.167h-.966v-.4h1.365Z" transform="translate(-474 -344.91)"/>
    <path class="cls-2" d="M782.8,366.479c0,.369.029.478.927.478h.318v.309c-.349-.03-1.216-.03-1.614-.03s-1.266,0-1.614.03v-.309h.319c.9,0,.927-.119.927-.478v-5.162a2.98,2.98,0,0,1-1.306.26v-.309a2.46,2.46,0,0,0,1.813-.638c.23,0,.23.02.23.259Z" transform="translate(-474 -344.91)"/>
    <g>
      <path class="cls-2" d="M807.514,405.479c0,.369.029.478.926.478h.319v.309c-.349-.03-1.216-.03-1.614-.03s-1.266,0-1.615.03v-.309h.32c.9,0,.926-.119.926-.478v-5.161a2.994,2.994,0,0,1-1.3.258v-.308a2.463,2.463,0,0,0,1.813-.637c.23,0,.23.019.23.258Z" transform="translate(-474 -344.91)"/>
      <path class="cls-2" d="M821.8,405.5a3.317,3.317,0,0,0,.947-.078,3.279,3.279,0,0,0,.219-.887h.249l-.278,1.733h-3.7c0-.239,0-.258.11-.37l1.913-2.13a3.576,3.576,0,0,0,1.047-2.2c0-.817-.429-1.624-1.336-1.624a1.439,1.439,0,0,0-1.345,1.016.381.381,0,0,1,.13-.01.5.5,0,0,1,.527.518.524.524,0,1,1-1.046-.029,1.841,1.841,0,0,1,1.864-1.8,1.957,1.957,0,0,1,2.112,1.932c0,1-.6,1.535-2.152,2.91l-1.056,1.025Z" transform="translate(-474 -344.91)"/>
      <path class="cls-2" d="M837.451,404.563a2.032,2.032,0,0,1-2.122,1.921,1.816,1.816,0,0,1-2.013-1.562.558.558,0,1,1,1.116-.022.547.547,0,0,1-.658.549,1.814,1.814,0,0,0,1.525.758c.438,0,1.126-.289,1.126-1.644,0-.977-.369-1.655-1.186-1.655H834.8c-.17,0-.239,0-.239-.109s.069-.11.149-.119.309-.022.389-.032a.961.961,0,0,0,.886-.517,2.491,2.491,0,0,0,.28-1.135c0-.9-.549-1.117-.957-1.117a1.616,1.616,0,0,0-1.326.617c.15,0,.619,0,.619.5a.509.509,0,1,1-1.017-.012c0-.755.757-1.353,1.764-1.353.956,0,1.833.557,1.833,1.375a1.8,1.8,0,0,0,.269,3.557Z" transform="translate(-474 -344.91)"/>
    </g>
    <path class="cls-2" d="M847.457,404.621v-.308l3.059-4.672c.08-.121.109-.121.2-.121.159,0,.159.06.159.259v4.534h1v.308h-1v.867c0,.36.021.469.758.469h.209v.309c-.408-.03-.937-.03-1.356-.03s-.936,0-1.344.03v-.309h.209c.737,0,.757-.109.757-.469v-.867Zm2.71-4.025-2.432,3.717h2.432Z" transform="translate(-474 -344.91)"/>
    <path class="cls-2" d="M794.635,405.33a1.864,1.864,0,0,1-3.378.149,5.052,5.052,0,0,1-.448-2.4,5.328,5.328,0,0,1,.368-2.262,1.826,1.826,0,0,1,1.734-1.185,1.845,1.845,0,0,1,1.693,1.115,7.044,7.044,0,0,1,.031,4.584Zm-.569-.309a19.07,19.07,0,0,0,.011-4c-.189-.987-.848-1.166-1.176-1.166-.249,0-1,.089-1.186,1.275a13.476,13.476,0,0,0-.079,1.834,13.651,13.651,0,0,0,.109,2.1c.18.957.768,1.205,1.156,1.205C793.35,406.266,793.917,405.967,794.066,405.021Z" transform="translate(-474 -344.91)"/>
    <g>
      <path class="cls-2" d="M774.686,404.4v-.578h2.64v.578Z" transform="translate(-474 -344.91)"/>
      <path class="cls-2" d="M780.863,405.479c0,.369.03.478.927.478h.318v.309c-.348-.03-1.215-.03-1.614-.03s-1.265,0-1.614.03v-.309h.319c.9,0,.927-.119.927-.478v-5.161a3,3,0,0,1-1.306.258v-.308a2.464,2.464,0,0,0,1.814-.637c.229,0,.229.019.229.258Z" transform="translate(-474 -344.91)"/>
    </g>
    <line class="cls-3" x1="318.896" y1="47.528" x2="318.896" y2="19.182"/>
    <path class="cls-2" d="M792.911,365.739a1.933,1.933,0,1,1,1.933-1.933A1.943,1.943,0,0,1,792.911,365.739Z" transform="translate(-474 -344.91)"/>
    <line class="cls-3" x1="333.069" y1="47.528" x2="333.069" y2="19.182"/>
    <path class="cls-2" d="M807.075,365.739a1.933,1.933,0,1,1,1.933-1.933A1.943,1.943,0,0,1,807.075,365.739Z" transform="translate(-474 -344.91)"/>
    <line class="cls-3" x1="347.242" y1="47.528" x2="347.242" y2="19.182"/>
    <path class="cls-2" d="M821.231,365.739a1.933,1.933,0,1,1,1.933-1.933A1.943,1.943,0,0,1,821.231,365.739Z" transform="translate(-474 -344.91)"/>
    <polyline points="84.047 49.796 88.582 47.528 84.047 45.261 85.181 47.528"/>
    <line class="cls-1" y1="47.528" x2="85.181" y2="47.528"/>
    <polyline points="23.527 9.544 21.26 5.009 18.992 9.544 21.26 8.41"/>
    <line class="cls-1" x1="21.26" y1="54.615" x2="21.26" y2="8.41"/>
    <path class="cls-2" d="M509.473,394.068a1.934,1.934,0,1,1,1.933-1.933A1.944,1.944,0,0,1,509.473,394.068Z" transform="translate(-474 -344.91)"/>
    <path class="cls-2" d="M481.153,394.068a1.934,1.934,0,1,1,1.932-1.933A1.944,1.944,0,0,1,481.153,394.068Z" transform="translate(-474 -344.91)"/>
    <line class="cls-3" x1="21.26" y1="47.528" x2="21.26" y2="19.182"/>
    <path class="cls-2" d="M495.317,365.739a1.933,1.933,0,1,1,1.933-1.933A1.943,1.943,0,0,1,495.317,365.739Z" transform="translate(-474 -344.91)"/>
    <g>
      <path class="cls-2" d="M537.793,394.068a1.934,1.934,0,1,1,1.933-1.933A1.944,1.944,0,0,1,537.793,394.068Z" transform="translate(-474 -344.91)"/>
      <path class="cls-2" d="M551.95,394.068a1.934,1.934,0,1,1,1.933-1.933A1.944,1.944,0,0,1,551.95,394.068Z" transform="translate(-474 -344.91)"/>
    </g>
    <path class="cls-2" d="M571.671,391.611a3.2,3.2,0,0,0,.16-.838c0-.328-.11-.457-.31-.457-.358,0-.558.477-.727,1.186-.06.219-.069.228-.169.228-.02,0-.12,0-.12-.1a5.1,5.1,0,0,1,.3-.967.869.869,0,0,1,.747-.568.9.9,0,0,1,.917.867,1.928,1.928,0,0,1,1.554-.867,1.018,1.018,0,0,1,1.146,1.066,9,9,0,0,1-.607,2.193,1.893,1.893,0,0,0-.18.708c0,.228.07.328.24.328.487,0,.817-.559,1.016-1.235.05-.15.05-.179.149-.179.03,0,.12,0,.12.1,0,.08-.369,1.533-1.3,1.533a.8.8,0,0,1-.818-.816,1.139,1.139,0,0,1,.1-.459,9.5,9.5,0,0,0,.648-2.32c0-.33-.09-.7-.538-.7a1.982,1.982,0,0,0-1.624,1.215c-.011.039-.09.328-.13.5-.05.229-.11.45-.169.668l-.219.9c-.06.25-.18.717-.19.738a.405.405,0,0,1-.369.277.266.266,0,0,1-.289-.267c0-.051.06-.279.09-.43Z" transform="translate(-474 -344.91)"/>
    <path class="cls-2" d="M505.409,350.739a3.877,3.877,0,0,0-.17.877c0,.339.159.658.548.658.319,0,1-.239,1.325-1.306.02-.07.04-.109.13-.109.03,0,.12,0,.12.1,0,.25-.569,1.535-1.6,1.535a1.1,1.1,0,0,1-1.076-.757,1.325,1.325,0,0,1-1.046.757c-.438,0-.937-.2-.937-.658a.567.567,0,0,1,.548-.578.342.342,0,0,1,.369.349.565.565,0,0,1-.468.538.954.954,0,0,0,.5.13c.438,0,.787-.419.947-1.037a14.59,14.59,0,0,0,.538-2.371c0-.578-.349-.668-.538-.668-.339,0-1,.25-1.335,1.306-.02.089-.051.109-.13.109-.02,0-.12,0-.12-.1,0-.249.568-1.535,1.605-1.535a1.1,1.1,0,0,1,1.076.757,1.287,1.287,0,0,1,1.046-.757c.339,0,.926.14.926.658a.555.555,0,0,1-.538.578.347.347,0,0,1-.378-.349.579.579,0,0,1,.478-.538.974.974,0,0,0-.5-.13c-.7,0-.927.917-.986,1.176Z" transform="translate(-474 -344.91)"/>
    <path class="cls-2" d="M509.236,354.875V344.91H510.6v.4h-.967v9.167h.967v.4Z" transform="translate(-474 -344.91)"/>
    <path class="cls-2" d="M512.272,349.494a3.2,3.2,0,0,0,.16-.837c0-.329-.11-.459-.309-.459-.358,0-.558.479-.727,1.186-.06.22-.07.229-.169.229-.02,0-.12,0-.12-.1a4.983,4.983,0,0,1,.3-.967.87.87,0,0,1,.747-.568.9.9,0,0,1,.917.867,1.926,1.926,0,0,1,1.554-.867,1.019,1.019,0,0,1,1.146,1.066,8.937,8.937,0,0,1-.608,2.192,1.9,1.9,0,0,0-.179.708c0,.229.07.329.239.329.488,0,.817-.558,1.016-1.236.05-.149.05-.179.15-.179.029,0,.119,0,.119.1,0,.08-.368,1.535-1.3,1.535a.8.8,0,0,1-.817-.817,1.136,1.136,0,0,1,.1-.459,9.5,9.5,0,0,0,.647-2.321c0-.329-.09-.7-.538-.7a1.983,1.983,0,0,0-1.624,1.216c-.01.04-.09.329-.13.5-.049.23-.109.449-.169.668l-.219.9c-.06.249-.18.717-.189.737a.408.408,0,0,1-.369.279.267.267,0,0,1-.289-.269c0-.05.06-.279.09-.429Z" transform="translate(-474 -344.91)"/>
    <g>
      <path class="cls-2" d="M518.41,354.875h-1.365v-.4h.966v-9.167h-.966v-.4h1.365Z" transform="translate(-474 -344.91)"/>
      <path class="cls-2" d="M523.242,349.125c-.15,0-.339,0-.339-.2s.189-.2.328-.2H529.2c.139,0,.329,0,.329.2s-.19.2-.339.2Zm-.011,1.933c-.139,0-.328,0-.328-.2s.189-.2.339-.2h5.948c.149,0,.339,0,.339.2s-.19.2-.329.2Z" transform="translate(-474 -344.91)"/>
    </g>
    <path class="cls-2" d="M534.929,346.325c0-.6.359-1.026,1.135-1.026a3.3,3.3,0,0,1,.817.11c.359.079.519.109.519.328a.419.419,0,0,1-.4.4,1.375,1.375,0,0,1-.548-.249,1.2,1.2,0,0,0-.707-.269.5.5,0,0,0-.548.458,3.928,3.928,0,0,0,.946,1.634,2.8,2.8,0,0,1,.737,1.853c0,1.375-.826,2.94-1.992,2.94a1.567,1.567,0,0,1-1.575-1.674,3.046,3.046,0,0,1,2.212-2.8A4.093,4.093,0,0,1,534.929,346.325Zm-1,4.783c0,.757.409,1.176.957,1.176.926,0,1.3-1.664,1.3-2.322a3.461,3.461,0,0,0-.548-1.714C534.3,348.607,533.932,350.48,533.932,351.108Z" transform="translate(-474 -344.91)"/>
    <path class="cls-2" d="M538.869,354.875V344.91h1.365v.4h-.967v9.167h.967v.4Z" transform="translate(-474 -344.91)"/>
    <path class="cls-2" d="M541.905,349.494a3.2,3.2,0,0,0,.16-.837c0-.329-.11-.459-.309-.459-.359,0-.558.479-.727,1.186-.06.22-.07.229-.17.229-.02,0-.119,0-.119-.1a4.983,4.983,0,0,1,.3-.967.87.87,0,0,1,.747-.568.9.9,0,0,1,.917.867,1.924,1.924,0,0,1,1.554-.867,1.019,1.019,0,0,1,1.146,1.066,8.982,8.982,0,0,1-.608,2.192,1.9,1.9,0,0,0-.179.708c0,.229.07.329.239.329.488,0,.817-.558,1.016-1.236.05-.149.05-.179.15-.179.029,0,.119,0,.119.1,0,.08-.369,1.535-1.3,1.535a.8.8,0,0,1-.817-.817,1.136,1.136,0,0,1,.1-.459,9.5,9.5,0,0,0,.647-2.321c0-.329-.09-.7-.538-.7a1.981,1.981,0,0,0-1.624,1.216c-.01.04-.09.329-.13.5-.05.23-.109.449-.169.668l-.219.9c-.06.249-.18.717-.189.737a.409.409,0,0,1-.369.279.266.266,0,0,1-.289-.269c0-.05.06-.279.09-.429Z" transform="translate(-474 -344.91)"/>
    <path class="cls-2" d="M548.043,354.875h-1.365v-.4h.966v-9.167h-.966v-.4h1.365Z" transform="translate(-474 -344.91)"/>
    <path class="cls-2" d="M485.075,366.479c0,.369.03.478.927.478h.319v.309c-.349-.03-1.216-.03-1.614-.03s-1.266,0-1.614.03v-.309h.319c.9,0,.926-.119.926-.478v-5.162a2.974,2.974,0,0,1-1.305.26v-.309a2.459,2.459,0,0,0,1.813-.638c.229,0,.229.02.229.259Z" transform="translate(-474 -344.91)"/>
    <path class="cls-2" d="M523.637,394.068a1.934,1.934,0,1,1,1.933-1.933A1.944,1.944,0,0,1,523.637,394.068Z" transform="translate(-474 -344.91)"/>
    <g>
      <path class="cls-2" d="M509.911,405.479c0,.369.03.478.927.478h.319v.309c-.349-.03-1.216-.03-1.615-.03s-1.265,0-1.613.03v-.309h.319c.9,0,.926-.119.926-.478v-5.161a2.994,2.994,0,0,1-1.3.258v-.308a2.463,2.463,0,0,0,1.813-.637c.229,0,.229.019.229.258Z" transform="translate(-474 -344.91)"/>
      <path class="cls-2" d="M524.2,405.5a3.313,3.313,0,0,0,.946-.078,3.279,3.279,0,0,0,.219-.887h.249l-.279,1.733h-3.7c0-.239,0-.258.11-.37l1.913-2.13a3.58,3.58,0,0,0,1.046-2.2c0-.817-.429-1.624-1.335-1.624a1.439,1.439,0,0,0-1.346,1.016.381.381,0,0,1,.13-.01.5.5,0,0,1,.528.518.524.524,0,1,1-1.046-.029,1.84,1.84,0,0,1,1.863-1.8,1.957,1.957,0,0,1,2.112,1.932c0,1-.6,1.535-2.152,2.91L522.4,405.5Z" transform="translate(-474 -344.91)"/>
      <path class="cls-2" d="M539.85,404.563a2.032,2.032,0,0,1-2.123,1.921,1.817,1.817,0,0,1-2.013-1.562.559.559,0,1,1,1.117-.022.547.547,0,0,1-.658.549,1.813,1.813,0,0,0,1.524.758c.439,0,1.126-.289,1.126-1.644,0-.977-.368-1.655-1.186-1.655H537.2c-.169,0-.239,0-.239-.109s.07-.11.149-.119.309-.022.389-.032a.963.963,0,0,0,.887-.517,2.486,2.486,0,0,0,.279-1.135c0-.9-.548-1.117-.957-1.117a1.615,1.615,0,0,0-1.325.617c.149,0,.618,0,.618.5a.509.509,0,1,1-1.017-.012c0-.755.758-1.353,1.764-1.353.957,0,1.834.557,1.834,1.375a1.8,1.8,0,0,0,.269,3.557Z" transform="translate(-474 -344.91)"/>
      <path class="cls-2" d="M549.731,404.621v-.308l3.06-4.672c.079-.121.109-.121.2-.121.159,0,.159.06.159.259v4.534h1v.308h-1v.867c0,.36.02.469.758.469h.209v.309c-.409-.03-.937-.03-1.355-.03s-.937,0-1.345.03v-.309h.209c.737,0,.757-.109.757-.469v-.867Zm2.711-4.025-2.431,3.717h2.431Z" transform="translate(-474 -344.91)"/>
    </g>
    <path class="cls-2" d="M497.033,405.33a1.864,1.864,0,0,1-3.378.149,5.04,5.04,0,0,1-.448-2.4,5.328,5.328,0,0,1,.368-2.262,1.826,1.826,0,0,1,1.734-1.185A1.846,1.846,0,0,1,497,400.746a7.052,7.052,0,0,1,.03,4.584Zm-.568-.309a19.341,19.341,0,0,0,.01-4c-.19-.987-.847-1.166-1.176-1.166-.249,0-1,.089-1.186,1.275a13.476,13.476,0,0,0-.079,1.834,13.651,13.651,0,0,0,.109,2.1c.179.957.767,1.205,1.156,1.205C495.747,406.266,496.315,405.967,496.465,405.021Z" transform="translate(-474 -344.91)"/>
    <g>
      <path class="cls-2" d="M477.091,404.4v-.578h2.641v.578Z" transform="translate(-474 -344.91)"/>
      <path class="cls-2" d="M483.269,405.479c0,.369.03.478.926.478h.319v.309c-.348-.03-1.215-.03-1.614-.03s-1.265,0-1.614.03v-.309h.319c.9,0,.926-.119.926-.478v-5.161a2.994,2.994,0,0,1-1.305.258v-.308a2.465,2.465,0,0,0,1.814-.637c.229,0,.229.019.229.258Z" transform="translate(-474 -344.91)"/>
    </g>
  </g>
</svg>
