<svg id="Layer_1" data-name="Layer 1" xmlns="http://www.w3.org/2000/svg" viewBox="0 0 439.368 101.898">
  <defs>
    <style>
      .cls-1 {
        fill: #1d1d1b;
      }

      .cls-2 {
        fill: none;
        stroke: #000;
        stroke-miterlimit: 10;
        stroke-width: 0.85px;
      }
    </style>
  </defs>
  <title>linear</title>
  <g>
    <path class="cls-1" d="M654.874,383.1a2.629,2.629,0,0,1-2.332,2.033.942.942,0,0,1-1.056-.867.575.575,0,0,1,.558-.648.34.34,0,0,1,.369.349.538.538,0,0,1-.2.408.567.567,0,0,1-.428.12.8.8,0,0,0,.757.418,1.427,1.427,0,0,0,1.1-.628,3.82,3.82,0,0,0,.648-1.534,1.408,1.408,0,0,1-1.007.448,1.11,1.11,0,0,1-1.215-1.185,6.562,6.562,0,0,1,.578-2.092,2.135,2.135,0,0,0,.169-.7c0-.319-.169-.319-.249-.319-.339,0-.737.3-1.006,1.236-.05.159-.06.179-.16.179-.02,0-.119,0-.119-.1s.369-1.534,1.315-1.534a.79.79,0,0,1,.817.817,1.8,1.8,0,0,1-.2.717,5.94,5.94,0,0,0-.508,1.953c0,.369.109.808.617.808a1.386,1.386,0,0,0,1.126-.848l.449-1.793c.06-.269.129-.538.2-.8.04-.18.119-.489.139-.538a.431.431,0,0,1,.349-.209.266.266,0,0,1,.289.269.628.628,0,0,1-.04.229Z" transform="translate(-464.512 -332.251)"/>
    <path class="cls-1" d="M657.453,385.576v-9.964h1.365v.4h-.967v9.167h.967v.4Z" transform="translate(-464.512 -332.251)"/>
    <path class="cls-1" d="M660.489,380.2a3.194,3.194,0,0,0,.16-.837c0-.328-.11-.458-.309-.458-.359,0-.558.478-.727,1.186-.06.219-.07.229-.17.229-.02,0-.119,0-.119-.1a4.96,4.96,0,0,1,.3-.966.868.868,0,0,1,.747-.568.9.9,0,0,1,.917.867,1.922,1.922,0,0,1,1.554-.867,1.019,1.019,0,0,1,1.146,1.066,8.982,8.982,0,0,1-.608,2.192,1.892,1.892,0,0,0-.179.707c0,.229.07.33.239.33.488,0,.817-.559,1.016-1.236.05-.15.05-.179.149-.179.03,0,.12,0,.12.1,0,.08-.369,1.534-1.305,1.534a.8.8,0,0,1-.817-.817,1.132,1.132,0,0,1,.1-.458,9.511,9.511,0,0,0,.647-2.321c0-.329-.09-.7-.538-.7a1.981,1.981,0,0,0-1.624,1.216c-.01.04-.09.328-.13.5-.05.229-.109.449-.169.667l-.219.9c-.06.249-.18.718-.19.738a.405.405,0,0,1-.368.278.266.266,0,0,1-.289-.268c0-.051.06-.28.09-.429Z" transform="translate(-464.512 -332.251)"/>
    <path class="cls-1" d="M666.611,385.576h-1.365v-.4h.966v-9.167h-.966v-.4h1.365Z" transform="translate(-464.512 -332.251)"/>
    <polyline points="30.897 32.875 35.433 30.607 30.897 28.339 32.031 30.607"/>
    <line class="cls-2" y1="30.607" x2="32.031" y2="30.607"/>
    <path class="cls-1" d="M470.86,353a3.877,3.877,0,0,0-.17.877c0,.339.16.658.548.658.319,0,1-.239,1.325-1.306.02-.069.041-.109.13-.109.03,0,.12,0,.12.1,0,.249-.568,1.534-1.595,1.534a1.1,1.1,0,0,1-1.075-.757,1.327,1.327,0,0,1-1.047.757c-.438,0-.936-.2-.936-.657a.567.567,0,0,1,.548-.579.341.341,0,0,1,.368.349.565.565,0,0,1-.468.538.954.954,0,0,0,.5.13c.438,0,.787-.419.947-1.037a14.59,14.59,0,0,0,.538-2.371c0-.578-.349-.668-.538-.668-.339,0-1,.25-1.335,1.306-.02.089-.051.109-.13.109-.02,0-.12,0-.12-.1,0-.249.569-1.535,1.6-1.535a1.1,1.1,0,0,1,1.076.757,1.289,1.289,0,0,1,1.046-.757c.339,0,.927.14.927.658a.556.556,0,0,1-.539.578.347.347,0,0,1-.378-.349.579.579,0,0,1,.478-.538.974.974,0,0,0-.5-.13c-.7,0-.927.917-.986,1.176Z" transform="translate(-464.512 -332.251)"/>
    <path class="cls-1" d="M475.847,355.513c0,.23,0,.321.7.321h.266v.251c-.154-.007-1.033-.028-1.248-.028-.259,0-1.116.021-1.242.028v-.251h.265c.7,0,.7-.091.7-.321v-3.556a2.3,2.3,0,0,1-1.011.195V351.9a1.9,1.9,0,0,0,1.367-.446c.2,0,.209.007.209.195Z" transform="translate(-464.512 -332.251)"/>
    <path class="cls-1" d="M479.25,357.139v-9.965h1.365v.4h-.967v9.167h.967v.4Z" transform="translate(-464.512 -332.251)"/>
    <path class="cls-1" d="M482.286,351.758a3.2,3.2,0,0,0,.16-.837c0-.329-.11-.459-.309-.459-.359,0-.558.479-.727,1.186-.06.22-.07.229-.17.229-.02,0-.119,0-.119-.1a5.007,5.007,0,0,1,.3-.966.87.87,0,0,1,.748-.569.9.9,0,0,1,.916.867,1.928,1.928,0,0,1,1.555-.867,1.019,1.019,0,0,1,1.146,1.067,8.974,8.974,0,0,1-.608,2.191,1.9,1.9,0,0,0-.179.708c0,.229.069.329.239.329.488,0,.817-.558,1.016-1.236.05-.149.05-.179.149-.179.03,0,.12,0,.12.1,0,.079-.369,1.534-1.305,1.534a.8.8,0,0,1-.818-.817,1.145,1.145,0,0,1,.1-.459,9.5,9.5,0,0,0,.647-2.321c0-.329-.09-.7-.538-.7a1.981,1.981,0,0,0-1.624,1.216c-.01.04-.09.329-.13.5-.05.23-.109.449-.169.668l-.219.9c-.06.249-.18.717-.19.737a.407.407,0,0,1-.368.279.266.266,0,0,1-.289-.269c0-.05.06-.279.089-.428Z" transform="translate(-464.512 -332.251)"/>
    <path class="cls-1" d="M488.416,357.139h-1.365v-.4h.966v-9.167h-.966v-.4h1.365Z" transform="translate(-464.512 -332.251)"/>
    <polyline points="30.897 89.567 35.433 87.3 30.897 85.032 32.031 87.3"/>
    <line class="cls-2" y1="87.3" x2="32.031" y2="87.3"/>
    <polyline points="208.062 61.221 212.597 58.953 208.062 56.686 209.196 58.953"/>
    <line class="cls-2" x1="170.078" y1="58.953" x2="209.196" y2="58.953"/>
    <path class="cls-1" d="M561.7,381.441a3.867,3.867,0,0,0-.17.877c0,.339.159.658.548.658.319,0,1-.24,1.325-1.306.02-.07.04-.109.13-.109.03,0,.12,0,.12.1,0,.249-.569,1.534-1.6,1.534a1.1,1.1,0,0,1-1.076-.756,1.324,1.324,0,0,1-1.046.756c-.439,0-.937-.2-.937-.657a.566.566,0,0,1,.548-.578.342.342,0,0,1,.369.349.565.565,0,0,1-.468.538.954.954,0,0,0,.5.13c.438,0,.787-.419.946-1.037a14.552,14.552,0,0,0,.539-2.371c0-.578-.349-.668-.539-.668-.338,0-1,.249-1.334,1.306-.02.089-.051.109-.13.109-.02,0-.12,0-.12-.1,0-.249.568-1.534,1.605-1.534a1.1,1.1,0,0,1,1.076.757,1.287,1.287,0,0,1,1.046-.757c.338,0,.926.139.926.657a.557.557,0,0,1-.538.579.347.347,0,0,1-.378-.349.579.579,0,0,1,.478-.538.974.974,0,0,0-.5-.13c-.7,0-.927.917-.987,1.176Z" transform="translate(-464.512 -332.251)"/>
    <path class="cls-1" d="M565.523,385.576v-9.964h1.365v.4h-.967v9.167h.967v.4Z" transform="translate(-464.512 -332.251)"/>
    <path class="cls-1" d="M568.567,380.2a3.194,3.194,0,0,0,.16-.837c0-.328-.11-.458-.309-.458-.358,0-.558.478-.727,1.186-.06.219-.07.229-.17.229-.02,0-.119,0-.119-.1a4.96,4.96,0,0,1,.3-.966.868.868,0,0,1,.747-.568.9.9,0,0,1,.917.867,1.922,1.922,0,0,1,1.554-.867,1.019,1.019,0,0,1,1.146,1.066,8.982,8.982,0,0,1-.608,2.192,1.892,1.892,0,0,0-.179.707c0,.229.07.33.239.33.488,0,.817-.559,1.016-1.236.05-.15.05-.179.15-.179.029,0,.119,0,.119.1,0,.08-.368,1.534-1.305,1.534a.8.8,0,0,1-.817-.817,1.132,1.132,0,0,1,.1-.458,9.511,9.511,0,0,0,.647-2.321c0-.329-.09-.7-.538-.7a1.983,1.983,0,0,0-1.624,1.216c-.01.04-.09.328-.13.5-.05.229-.109.449-.169.667l-.219.9c-.06.249-.18.718-.189.738a.407.407,0,0,1-.369.278.266.266,0,0,1-.289-.268c0-.051.06-.28.09-.429Z" transform="translate(-464.512 -332.251)"/>
    <path class="cls-1" d="M574.7,385.576h-1.365v-.4h.966v-9.167h-.966v-.4H574.7Z" transform="translate(-464.512 -332.251)"/>
    <path class="cls-1" d="M470.86,409.761a3.867,3.867,0,0,0-.17.877c0,.339.16.658.548.658.319,0,1-.239,1.325-1.306.02-.069.041-.109.13-.109.03,0,.12,0,.12.1,0,.249-.568,1.535-1.595,1.535a1.1,1.1,0,0,1-1.075-.757,1.329,1.329,0,0,1-1.047.757c-.438,0-.936-.2-.936-.658a.566.566,0,0,1,.548-.578.341.341,0,0,1,.368.349.565.565,0,0,1-.468.538.954.954,0,0,0,.5.13c.438,0,.787-.419.947-1.036a14.614,14.614,0,0,0,.538-2.372c0-.577-.349-.667-.538-.667-.339,0-1,.249-1.335,1.3-.02.09-.051.111-.13.111-.02,0-.12,0-.12-.1,0-.25.569-1.535,1.6-1.535a1.1,1.1,0,0,1,1.076.758A1.288,1.288,0,0,1,472.2,407c.339,0,.927.14.927.658a.555.555,0,0,1-.539.577.346.346,0,0,1-.378-.348.577.577,0,0,1,.478-.538.98.98,0,0,0-.5-.129c-.7,0-.927.916-.986,1.175Z" transform="translate(-464.512 -332.251)"/>
    <path class="cls-1" d="M476.824,412.851h-2.873c0-.2,0-.209.07-.272l1.68-1.66a2.119,2.119,0,0,0,.655-1.339,1.043,1.043,0,0,0-1.06-1.108,1.1,1.1,0,0,0-1.018.648c.363,0,.412.244.412.369a.37.37,0,1,1-.739-.02,1.351,1.351,0,0,1,1.45-1.248,1.459,1.459,0,0,1,1.632,1.359,2.017,2.017,0,0,1-1,1.506c-.419.328-.663.523-1.395,1.172h1.283a3.583,3.583,0,0,0,.69-.042,1.6,1.6,0,0,0,.181-.635h.238Z" transform="translate(-464.512 -332.251)"/>
    <path class="cls-1" d="M479.25,413.9v-9.963h1.365v.4h-.967V413.5h.967v.4Z" transform="translate(-464.512 -332.251)"/>
    <path class="cls-1" d="M482.286,408.516a3.2,3.2,0,0,0,.16-.837c0-.329-.11-.458-.309-.458-.359,0-.558.477-.727,1.185-.06.219-.07.23-.17.23-.02,0-.119,0-.119-.1a5.031,5.031,0,0,1,.3-.967.871.871,0,0,1,.748-.568.9.9,0,0,1,.916.867,1.928,1.928,0,0,1,1.555-.867,1.018,1.018,0,0,1,1.146,1.066,8.989,8.989,0,0,1-.608,2.193,1.892,1.892,0,0,0-.179.707c0,.229.069.329.239.329.488,0,.817-.559,1.016-1.235.05-.15.05-.18.149-.18.03,0,.12,0,.12.1,0,.081-.369,1.535-1.305,1.535a.8.8,0,0,1-.818-.817,1.142,1.142,0,0,1,.1-.459,9.486,9.486,0,0,0,.647-2.321c0-.329-.09-.7-.538-.7a1.98,1.98,0,0,0-1.624,1.215c-.01.04-.09.329-.13.5-.05.228-.109.448-.169.667l-.219.9c-.06.249-.18.717-.19.737a.405.405,0,0,1-.368.279.266.266,0,0,1-.289-.269c0-.05.06-.279.089-.429Z" transform="translate(-464.512 -332.251)"/>
    <path class="cls-1" d="M488.416,413.9h-1.365v-.4h.966v-9.167h-.966v-.4h1.365Z" transform="translate(-464.512 -332.251)"/>
    <g>
      <path class="cls-1" d="M599.085,391.8a2,2,0,0,1-1.963,2.072,2.494,2.494,0,0,1-1.833-.7c-.329.528-.359.558-.359.568-.07.109-.08.129-.15.129-.109,0-.109-.069-.109-.238v-1.993c0-.18,0-.249.129-.249a.1.1,0,0,1,.12.1,2.015,2.015,0,0,0,.618,1.534,2.4,2.4,0,0,0,1.574.538,1.365,1.365,0,0,0,1.335-1.424,1.452,1.452,0,0,0-.309-.917,1.321,1.321,0,0,0-.846-.508c-.7-.169-1.207-.289-1.316-.329a1.93,1.93,0,0,1,.638-3.756,2.051,2.051,0,0,1,1.594.7l.349-.568c.069-.119.079-.129.149-.129.11,0,.11.069.11.239v2c0,.19,0,.239-.13.239-.109,0-.109-.059-.119-.119-.06-.448-.279-2.083-1.943-2.083a1.3,1.3,0,0,0-.309,2.571l1.275.309A2.039,2.039,0,0,1,599.085,391.8Z" transform="translate(-464.512 -332.251)"/>
      <path class="cls-1" d="M602.033,394.562c-.239.568-.647,1.136-1.275,1.136a.871.871,0,0,1-.917-.807.419.419,0,1,1,.449.409.678.678,0,0,0,.468.179c.638,0,.916-.688,1.136-1.236.06-.13.2-.458.249-.588l-1.5-3.636c-.139-.349-.329-.349-.807-.349v-.31c.3.021.7.031.967.031.169,0,.827-.02,1.086-.031v.31c-.189,0-.558,0-.558.259a.55.55,0,0,0,.06.179l1.105,2.68,1.007-2.451a.466.466,0,0,0,.06-.239c0-.249-.16-.418-.468-.428v-.31c.219.011.687.031.866.031.229,0,.518-.01.747-.031v.31a.938.938,0,0,0-.926.638Z" transform="translate(-464.512 -332.251)"/>
      <path class="cls-1" d="M605.669,391.264a1.061,1.061,0,0,1-.428-.847c0-.558.379-1.226,1.594-1.226a1.532,1.532,0,0,1,.937.28,1.349,1.349,0,0,0,.169-.16c.13-.12.15-.12.2-.12.109,0,.109.07.109.24v1.006c0,.189,0,.239-.129.239a.107.107,0,0,1-.12-.09,1.1,1.1,0,0,0-1.166-1.205c-.857,0-1.116.408-1.116.757,0,.578.668.708,1.226.817a2.029,2.029,0,0,1,1.136.479,1.285,1.285,0,0,1,.418.946c0,.718-.458,1.385-1.6,1.385a1.49,1.49,0,0,1-1.1-.428,2.364,2.364,0,0,0-.2.228c-.19.19-.2.2-.249.2-.11,0-.11-.07-.11-.24v-1.314c0-.18,0-.25.13-.25.1,0,.109.04.139.17.189.847.548,1.415,1.385,1.415.777,0,1.126-.4,1.126-.907,0-.717-.817-.877-1.036-.916A2.617,2.617,0,0,1,605.669,391.264Z" transform="translate(-464.512 -332.251)"/>
      <path class="cls-1" d="M610.571,392.439c0,.17,0,1.077.668,1.077.368,0,.667-.379.667-1.117v-.547h.249v.568c0,.638-.279,1.345-.986,1.345a1.205,1.205,0,0,1-1.286-1.345v-2.75h-.846v-.22c.976-.04,1.275-1.1,1.285-1.923h.249v1.833H612v.31h-1.425Z" transform="translate(-464.512 -332.251)"/>
      <path class="cls-1" d="M614.127,392.849a1.344,1.344,0,0,0,1.126.667,1.4,1.4,0,0,0,1.346-1.027c.02-.079.04-.139.129-.139a.116.116,0,0,1,.13.12,1.7,1.7,0,0,1-1.664,1.295,2.25,2.25,0,0,1-2.193-2.3,2.178,2.178,0,0,1,2.073-2.272,1.768,1.768,0,0,1,1.784,1.954c0,.209-.03.209-.25.209h-2.779A2.913,2.913,0,0,0,614.127,392.849Zm2.073-1.7c0-.389-.1-1.735-1.126-1.735-.339,0-1.176.25-1.236,1.735Z" transform="translate(-464.512 -332.251)"/>
      <path class="cls-1" d="M617.475,389.67v-.31l1.4-.109V390.3a1.573,1.573,0,0,1,1.475-1.047,1.178,1.178,0,0,1,1.325.977,1.578,1.578,0,0,1,1.445-.977,1.325,1.325,0,0,1,1.046.369c.309.359.309.667.309,1.525v1.9c.01.3.259.3.777.3v.308c-.339-.009-.857-.03-1.115-.03s-.778.021-1.126.03v-.308c.667,0,.777,0,.777-.449v-2.322c0-.567-.11-1.105-.738-1.105a1.454,1.454,0,0,0-1.345,1.593V392.9c0,.449.11.449.777.449v.308c-.338-.009-.857-.03-1.115-.03s-.778.021-1.126.03v-.308c.667,0,.777,0,.777-.449v-2.322c0-.567-.11-1.105-.737-1.105a1.455,1.455,0,0,0-1.346,1.593V392.9c0,.449.11.449.777.449v.308c-.338-.009-.857-.03-1.115-.03s-.778.021-1.126.03v-.308c.667,0,.777,0,.777-.449v-2.67C618.252,389.739,618.172,389.67,617.475,389.67Z" transform="translate(-464.512 -332.251)"/>
    </g>
    <polygon class="cls-2" points="120.472 58.953 120.472 44.78 170.078 44.78 170.078 73.126 120.472 73.126 120.472 58.953"/>
    <polyline points="40.734 19.467 43.001 24.002 45.269 19.467 43.001 20.601"/>
    <line class="cls-2" x1="43.001" y1="9.829" x2="43.001" y2="20.601"/>
    <path class="cls-1" d="M509.1,335.4a5.9,5.9,0,0,0,.977-1.973c.049-.179.049-.209.149-.209s.12.08.12.1a5.769,5.769,0,0,1-1.146,2.342c-.1.12-.1.14-.1.349,0,.239,0,1.016.309,1.016.02,0,.379,0,.558-.488.03-.07.06-.1.129-.1s.12.029.12.1a.923.923,0,0,1-.837.707.95.95,0,0,1-.907-.837,3.356,3.356,0,0,1-2.1.837,1.576,1.576,0,0,1-1.614-1.683,2.954,2.954,0,0,1,2.68-2.83c.737,0,1.664.488,1.664,2.052Zm-.687-.369c0-.777,0-2.082-.987-2.082a1.686,1.686,0,0,0-1.355.917,5.159,5.159,0,0,0-.578,2.072c0,.638.3,1.086.9,1.086a3.1,3.1,0,0,0,2.043-.876C508.413,335.976,508.413,335.4,508.413,335.029Z" transform="translate(-464.512 -332.251)"/>
    <path class="cls-2" d="M503.97,359.8l7.086,7.086m-7.086,0,7.086-7.086m4.1,3.493a7.569,7.569,0,1,0-7.568,7.569,7.571,7.571,0,0,0,7.568-7.569Z" transform="translate(-464.512 -332.251)"/>
    <polyline points="40.734 76.16 43.001 80.695 45.269 76.16 43.001 77.293"/>
    <line class="cls-2" x1="43.001" y1="66.522" x2="43.001" y2="77.293"/>
    <path class="cls-1" d="M509.056,390.126a1.8,1.8,0,0,1,.727,1.485,2.523,2.523,0,0,1-.8,1.833,2.9,2.9,0,0,1-1.923.787,1.3,1.3,0,0,1-1.355-.966l-.7,2.75c-.01.03-.04.049-.119.049s-.13-.059-.12-.1l1.584-6.327a4.249,4.249,0,0,1,1.286-2.122,1.746,1.746,0,0,1,1.2-.418,1.328,1.328,0,0,1,1.356,1.364A2.084,2.084,0,0,1,509.056,390.126Zm-.339-2.8c-1.2,0-1.913,1.585-2.133,2.442l-.637,2.52a1.613,1.613,0,0,0-.05.439,1.141,1.141,0,0,0,1.136,1.286,2.159,2.159,0,0,0,1.624-.9,3.181,3.181,0,0,0,.5-1.714,1.353,1.353,0,0,0-.438-1.126,1.769,1.769,0,0,1-.817.13c-.18,0-.7.031-.688-.249,0-.329.558-.319.767-.319a1.966,1.966,0,0,1,.768.12,2.087,2.087,0,0,0,.9-1.724A.831.831,0,0,0,508.717,387.326Zm-.738,2.74c-.109,0-.468-.019-.488.08a1.217,1.217,0,0,0,.439.041,1.173,1.173,0,0,0,.478-.071A1.049,1.049,0,0,0,507.979,390.066Z" transform="translate(-464.512 -332.251)"/>
    <path class="cls-2" d="M503.97,416.489l7.086,7.087m-7.086,0,7.086-7.087m4.1,3.561a7.569,7.569,0,1,0-7.568,7.569,7.571,7.571,0,0,0,7.568-7.569Z" transform="translate(-464.512 -332.251)"/>
    <polyline points="115.936 61.221 120.472 58.953 115.936 56.686 117.07 58.953"/>
    <path class="cls-2" d="M549.551,391.2h32.031m-67.464-28.346h28.346m-28.346,56.693h28.346" transform="translate(-464.512 -332.251)"/>
    <polyline points="75.685 47.331 77.952 51.867 80.22 47.331 77.952 48.465"/>
    <line class="cls-2" x1="77.952" y1="30.607" x2="77.952" y2="48.465"/>
    <polyline points="80.22 70.575 77.952 66.04 75.685 70.575 77.952 69.441"/>
    <path class="cls-2" d="M542.464,419.551V401.692M538.921,391.2h7.086m-3.543,3.544v-7.087m7.616,3.589a7.569,7.569,0,1,0-7.568,7.569,7.571,7.571,0,0,0,7.568-7.569Z" transform="translate(-464.512 -332.251)"/>
    <polyline points="434.832 61.221 439.368 58.953 434.832 56.686 435.966 58.953"/>
    <line class="cls-2" x1="403.935" y1="58.953" x2="435.966" y2="58.953"/>
    <path class="cls-1" d="M880.9,384.873a2.953,2.953,0,0,0-.109.728c0,.568.27.867.737.867.489,0,.837-.349,1.1-.877a6.028,6.028,0,0,0,.549-1.823,1.137,1.137,0,0,0-.359-.848.325.325,0,0,1-.15-.269.542.542,0,0,1,.5-.478c.17,0,.439.15.439.7a9.283,9.283,0,0,1-.658,2.59,1.693,1.693,0,0,1-1.444,1.226,1.267,1.267,0,0,1-1.246-.7,1.12,1.12,0,0,1-1.036.7c-.747,0-1.415-.349-1.415-1.255a6.309,6.309,0,0,1,.558-2.014,1.977,1.977,0,0,0,.179-.7c0-.319-.159-.329-.249-.329-.349,0-.737.309-1.006,1.236-.05.159-.06.18-.16.18-.019,0-.119,0-.119-.1s.368-1.535,1.315-1.535a.8.8,0,0,1,.817.817,1.8,1.8,0,0,1-.169.638,5.329,5.329,0,0,0-.519,1.933.79.79,0,0,0,.8.907c.389,0,.688-.31.916-.837a.767.767,0,0,1-.01-.18,2.708,2.708,0,0,1,.09-.657c.07-.26.538-2.163.568-2.232a.407.407,0,0,1,.369-.279.267.267,0,0,1,.289.269c0,.059-.1.428-.15.647Z" transform="translate(-464.512 -332.251)"/>
    <path class="cls-1" d="M885.211,389.068V379.1h1.365v.4h-.967v9.167h.967v.4Z" transform="translate(-464.512 -332.251)"/>
    <path class="cls-1" d="M888.248,383.688a3.234,3.234,0,0,0,.159-.837c0-.329-.109-.459-.308-.459-.36,0-.559.479-.728,1.186-.059.219-.07.23-.17.23-.019,0-.119,0-.119-.1a5.058,5.058,0,0,1,.3-.967.87.87,0,0,1,.747-.568.9.9,0,0,1,.917.867,1.925,1.925,0,0,1,1.555-.867,1.018,1.018,0,0,1,1.145,1.066,9.032,9.032,0,0,1-.607,2.193,1.888,1.888,0,0,0-.18.707c0,.229.069.329.239.329.489,0,.817-.559,1.016-1.236.051-.149.051-.179.15-.179.03,0,.119,0,.119.1,0,.08-.369,1.535-1.3,1.535a.8.8,0,0,1-.817-.817,1.136,1.136,0,0,1,.1-.459,9.5,9.5,0,0,0,.647-2.321c0-.329-.089-.7-.538-.7a1.985,1.985,0,0,0-1.624,1.215c-.009.04-.09.33-.13.5-.049.229-.109.449-.169.667l-.219.9c-.06.249-.179.717-.19.737a.407.407,0,0,1-.368.279.267.267,0,0,1-.289-.269c0-.05.06-.279.09-.429Z" transform="translate(-464.512 -332.251)"/>
    <path class="cls-1" d="M894.369,389.068H893v-.4h.967V379.5H893v-.4h1.365Z" transform="translate(-464.512 -332.251)"/>
    <polyline points="257.668 32.875 262.203 30.607 257.668 28.339 258.802 30.607"/>
    <line class="cls-2" x1="226.77" y1="30.607" x2="258.802" y2="30.607"/>
    <polyline points="349.793 32.875 354.329 30.607 349.793 28.339 350.927 30.607"/>
    <line class="cls-2" x1="311.809" y1="30.607" x2="350.927" y2="30.607"/>
    <path class="cls-1" d="M787.483,354.657a2.626,2.626,0,0,1-2.331,2.033.942.942,0,0,1-1.056-.867.574.574,0,0,1,.558-.647.338.338,0,0,1,.368.348.54.54,0,0,1-.2.409.569.569,0,0,1-.428.119.8.8,0,0,0,.757.419,1.427,1.427,0,0,0,1.1-.628,3.826,3.826,0,0,0,.648-1.534,1.407,1.407,0,0,1-1.006.448,1.111,1.111,0,0,1-1.216-1.186,6.59,6.59,0,0,1,.578-2.092,2.123,2.123,0,0,0,.169-.7c0-.319-.169-.319-.249-.319-.339,0-.737.3-1.006,1.236-.05.159-.061.179-.16.179-.02,0-.119,0-.119-.1s.368-1.535,1.315-1.535a.791.791,0,0,1,.817.818,1.8,1.8,0,0,1-.2.717,5.926,5.926,0,0,0-.507,1.953c0,.369.109.807.618.807a1.385,1.385,0,0,0,1.125-.847l.449-1.794c.059-.269.129-.538.2-.8.039-.179.119-.488.14-.538a.432.432,0,0,1,.348-.209.266.266,0,0,1,.289.269.622.622,0,0,1-.04.229Z" transform="translate(-464.512 -332.251)"/>
    <path class="cls-1" d="M790.848,355.513c0,.23,0,.321.7.321h.266v.251c-.155-.007-1.033-.028-1.249-.028-.258,0-1.116.021-1.242.028v-.251h.266c.7,0,.7-.091.7-.321v-3.556a2.3,2.3,0,0,1-1.012.195V351.9a1.906,1.906,0,0,0,1.368-.446c.195,0,.209.007.209.195Z" transform="translate(-464.512 -332.251)"/>
    <path class="cls-1" d="M794.133,357.139v-9.965H795.5v.4h-.967v9.167h.967v.4Z" transform="translate(-464.512 -332.251)"/>
    <path class="cls-1" d="M797.17,351.758a3.227,3.227,0,0,0,.159-.837c0-.329-.109-.459-.308-.459-.36,0-.559.479-.728,1.186-.06.22-.07.229-.17.229-.019,0-.119,0-.119-.1a5.035,5.035,0,0,1,.3-.966.869.869,0,0,1,.747-.569.9.9,0,0,1,.917.867,1.924,1.924,0,0,1,1.554-.867,1.019,1.019,0,0,1,1.146,1.067,9.016,9.016,0,0,1-.607,2.191,1.9,1.9,0,0,0-.18.708c0,.229.069.329.239.329.488,0,.817-.558,1.016-1.236.051-.149.051-.179.15-.179.029,0,.119,0,.119.1,0,.079-.369,1.534-1.3,1.534a.8.8,0,0,1-.817-.817,1.139,1.139,0,0,1,.1-.459,9.5,9.5,0,0,0,.647-2.321c0-.329-.09-.7-.538-.7a1.984,1.984,0,0,0-1.624,1.216c-.01.04-.09.329-.13.5-.049.23-.109.449-.169.668l-.219.9c-.06.249-.179.717-.19.737a.407.407,0,0,1-.368.279.267.267,0,0,1-.289-.269c0-.05.06-.279.09-.428Z" transform="translate(-464.512 -332.251)"/>
    <path class="cls-1" d="M803.3,357.139h-1.365v-.4h.966v-9.167h-.966v-.4H803.3Z" transform="translate(-464.512 -332.251)"/>
    <path class="cls-1" d="M697.665,353a3.935,3.935,0,0,0-.17.877c0,.339.16.658.549.658.318,0,1-.239,1.325-1.306.02-.069.039-.109.129-.109.03,0,.12,0,.12.1,0,.249-.568,1.534-1.6,1.534a1.1,1.1,0,0,1-1.076-.757,1.321,1.321,0,0,1-1.046.757c-.438,0-.936-.2-.936-.657a.567.567,0,0,1,.548-.579.342.342,0,0,1,.369.349.565.565,0,0,1-.469.538.956.956,0,0,0,.5.13c.439,0,.787-.419.946-1.037a14.411,14.411,0,0,0,.539-2.371c0-.578-.349-.668-.539-.668-.337,0-1,.25-1.335,1.306-.019.089-.049.109-.128.109-.021,0-.121,0-.121-.1,0-.249.569-1.535,1.605-1.535a1.1,1.1,0,0,1,1.076.757,1.287,1.287,0,0,1,1.046-.757c.339,0,.927.14.927.658a.556.556,0,0,1-.538.578.348.348,0,0,1-.379-.349.579.579,0,0,1,.478-.538.974.974,0,0,0-.5-.13c-.7,0-.927.917-.986,1.176Z" transform="translate(-464.512 -332.251)"/>
    <path class="cls-1" d="M702.652,355.513c0,.23,0,.321.7.321h.265v.251c-.154-.007-1.032-.028-1.249-.028-.258,0-1.115.021-1.241.028v-.251h.266c.7,0,.7-.091.7-.321v-3.556a2.3,2.3,0,0,1-1.012.195V351.9a1.9,1.9,0,0,0,1.367-.446c.2,0,.209.007.209.195Z" transform="translate(-464.512 -332.251)"/>
    <path class="cls-1" d="M706.047,357.139v-9.965h1.365v.4h-.967v9.167h.967v.4Z" transform="translate(-464.512 -332.251)"/>
    <path class="cls-1" d="M709.084,351.758a3.227,3.227,0,0,0,.159-.837c0-.329-.109-.459-.308-.459-.36,0-.559.479-.728,1.186-.06.22-.07.229-.17.229-.019,0-.119,0-.119-.1a5.035,5.035,0,0,1,.3-.966.869.869,0,0,1,.747-.569.9.9,0,0,1,.917.867,1.925,1.925,0,0,1,1.555-.867,1.018,1.018,0,0,1,1.145,1.067,9.016,9.016,0,0,1-.607,2.191,1.9,1.9,0,0,0-.18.708c0,.229.069.329.239.329.488,0,.817-.558,1.016-1.236.051-.149.051-.179.15-.179.03,0,.119,0,.119.1,0,.079-.369,1.534-1.3,1.534a.8.8,0,0,1-.817-.817,1.139,1.139,0,0,1,.1-.459,9.5,9.5,0,0,0,.647-2.321c0-.329-.089-.7-.538-.7a1.984,1.984,0,0,0-1.624,1.216c-.01.04-.09.329-.13.5-.049.23-.109.449-.169.668l-.219.9c-.06.249-.179.717-.19.737a.407.407,0,0,1-.368.279.267.267,0,0,1-.289-.269c0-.05.06-.279.09-.428Z" transform="translate(-464.512 -332.251)"/>
    <path class="cls-1" d="M715.221,357.139h-1.366v-.4h.967v-9.167h-.967v-.4h1.366Z" transform="translate(-464.512 -332.251)"/>
    <g>
      <path class="cls-1" d="M740.8,363.481a2,2,0,0,1-1.963,2.073,2.492,2.492,0,0,1-1.833-.7c-.329.529-.359.559-.359.569-.07.109-.08.129-.149.129-.11,0-.11-.07-.11-.239v-1.993c0-.179,0-.249.13-.249a.1.1,0,0,1,.119.1,2.016,2.016,0,0,0,.618,1.534,2.4,2.4,0,0,0,1.574.538,1.366,1.366,0,0,0,1.335-1.425,1.457,1.457,0,0,0-.309-.916,1.319,1.319,0,0,0-.846-.508c-.7-.17-1.206-.29-1.316-.329a1.93,1.93,0,0,1,.638-3.756,2.049,2.049,0,0,1,1.594.7l.349-.568c.07-.12.079-.129.15-.129.109,0,.109.069.109.238v2c0,.19,0,.24-.13.24-.109,0-.109-.061-.119-.12-.059-.448-.279-2.083-1.943-2.083a1.3,1.3,0,0,0-.309,2.571l1.276.309A2.039,2.039,0,0,1,740.8,363.481Z" transform="translate(-464.512 -332.251)"/>
      <path class="cls-1" d="M743.753,366.242c-.239.568-.649,1.135-1.275,1.135a.87.87,0,0,1-.917-.807.418.418,0,1,1,.448.409.68.68,0,0,0,.469.179c.637,0,.916-.687,1.135-1.235.06-.13.2-.459.249-.588l-1.5-3.637c-.139-.348-.328-.348-.806-.348v-.309c.3.02.7.029.966.029.169,0,.827-.02,1.086-.029v.309c-.189,0-.558,0-.558.258a.589.589,0,0,0,.06.18l1.106,2.68,1.007-2.451a.478.478,0,0,0,.059-.239c0-.249-.159-.419-.469-.428v-.309c.22.009.688.029.868.029.229,0,.518-.009.747-.029v.309a.938.938,0,0,0-.927.637Z" transform="translate(-464.512 -332.251)"/>
      <path class="cls-1" d="M747.389,362.943a1.059,1.059,0,0,1-.428-.846c0-.558.378-1.226,1.594-1.226a1.533,1.533,0,0,1,.936.279,1.35,1.35,0,0,0,.17-.159c.129-.12.15-.12.2-.12.11,0,.11.07.11.239v1.007c0,.189,0,.239-.13.239a.106.106,0,0,1-.119-.09,1.1,1.1,0,0,0-1.166-1.205c-.857,0-1.117.408-1.117.757,0,.578.668.707,1.226.817a2.028,2.028,0,0,1,1.137.478,1.286,1.286,0,0,1,.418.947c0,.717-.458,1.384-1.605,1.384a1.483,1.483,0,0,1-1.1-.428,2.563,2.563,0,0,0-.2.229c-.189.19-.2.2-.249.2-.109,0-.109-.069-.109-.238V363.89c0-.179,0-.249.129-.249.1,0,.11.04.139.17.19.846.548,1.415,1.385,1.415.778,0,1.126-.4,1.126-.907,0-.718-.816-.877-1.036-.917A2.6,2.6,0,0,1,747.389,362.943Z" transform="translate(-464.512 -332.251)"/>
      <path class="cls-1" d="M752.29,364.119c0,.17,0,1.076.668,1.076.368,0,.667-.378.667-1.115v-.549h.249v.569c0,.637-.278,1.344-.986,1.344A1.2,1.2,0,0,1,751.6,364.1v-2.75h-.847v-.22c.976-.04,1.275-1.106,1.285-1.923h.249v1.834h1.425v.309H752.29Z" transform="translate(-464.512 -332.251)"/>
      <path class="cls-1" d="M755.848,364.528a1.34,1.34,0,0,0,1.126.667,1.4,1.4,0,0,0,1.344-1.026c.02-.08.04-.139.13-.139a.115.115,0,0,1,.129.119,1.7,1.7,0,0,1-1.664,1.3,2.249,2.249,0,0,1-2.191-2.3,2.177,2.177,0,0,1,2.072-2.272,1.767,1.767,0,0,1,1.783,1.953c0,.209-.029.209-.249.209h-2.779A2.9,2.9,0,0,0,755.848,364.528Zm2.072-1.7c0-.388-.1-1.734-1.126-1.734-.339,0-1.176.249-1.235,1.734Z" transform="translate(-464.512 -332.251)"/>
      <path class="cls-1" d="M759.193,361.35v-.309l1.406-.11v1.046a1.57,1.57,0,0,1,1.474-1.046,1.18,1.18,0,0,1,1.325.976,1.58,1.58,0,0,1,1.446-.976,1.332,1.332,0,0,1,1.046.368c.308.359.308.668.308,1.525v1.9c.011.3.26.3.778.3v.309c-.339-.01-.857-.03-1.117-.03s-.776.02-1.126.03v-.309c.668,0,.778,0,.778-.448v-2.322c0-.568-.11-1.106-.738-1.106a1.455,1.455,0,0,0-1.344,1.594v1.834c0,.448.109.448.777.448v.309c-.339-.01-.857-.03-1.116-.03s-.777.02-1.126.03v-.309c.668,0,.777,0,.777-.448v-2.322c0-.568-.109-1.106-.737-1.106a1.456,1.456,0,0,0-1.346,1.594v1.834c0,.448.111.448.778.448v.309c-.339-.01-.857-.03-1.117-.03s-.776.02-1.126.03v-.309c.668,0,.778,0,.778-.448v-2.671C759.971,361.419,759.892,361.35,759.193,361.35Z" transform="translate(-464.512 -332.251)"/>
    </g>
    <polygon class="cls-2" points="262.203 30.607 262.203 16.434 311.809 16.434 311.809 44.78 262.203 44.78 262.203 30.607"/>
    <polyline points="359.148 18.985 361.415 23.52 363.683 18.985 361.415 20.119"/>
    <line class="cls-2" x1="361.415" y1="9.347" x2="361.415" y2="20.119"/>
    <path class="cls-1" d="M827.468,334.921a5.886,5.886,0,0,0,.976-1.972c.05-.179.05-.21.15-.21s.119.08.119.1a5.76,5.76,0,0,1-1.146,2.342c-.1.119-.1.139-.1.348,0,.24,0,1.017.308,1.017.021,0,.379,0,.559-.488.029-.07.06-.1.129-.1s.12.03.12.1a.924.924,0,0,1-.837.707.95.95,0,0,1-.907-.837,3.358,3.358,0,0,1-2.1.837,1.577,1.577,0,0,1-1.614-1.684,2.954,2.954,0,0,1,2.681-2.83c.737,0,1.664.488,1.664,2.053Zm-.688-.368c0-.777,0-2.083-.986-2.083a1.691,1.691,0,0,0-1.356.917,5.175,5.175,0,0,0-.578,2.072c0,.638.3,1.087.9,1.087a3.1,3.1,0,0,0,2.042-.877C826.78,335.5,826.78,334.921,826.78,334.553Z" transform="translate(-464.512 -332.251)"/>
    <path class="cls-2" d="M822.384,359.315l7.086,7.086m-7.086,0,7.086-7.086" transform="translate(-464.512 -332.251)"/>
    <path class="cls-2" d="M825.952,355.242a7.569,7.569,0,1,0,7.568,7.568,7.572,7.572,0,0,0-7.568-7.568Z" transform="translate(-464.512 -332.251)"/>
    <line class="cls-2" x1="368.502" y1="30.607" x2="396.848" y2="30.607"/>
    <polyline points="257.668 89.567 262.203 87.3 257.668 85.032 258.802 87.3"/>
    <line class="cls-2" x1="226.77" y1="87.3" x2="258.802" y2="87.3"/>
    <polyline points="349.793 89.567 354.329 87.3 349.793 85.032 350.927 87.3"/>
    <line class="cls-2" x1="311.809" y1="87.3" x2="350.927" y2="87.3"/>
    <path class="cls-1" d="M787.483,411.415a2.626,2.626,0,0,1-2.331,2.033.942.942,0,0,1-1.056-.867.574.574,0,0,1,.558-.647.339.339,0,0,1,.368.348.534.534,0,0,1-.2.408.563.563,0,0,1-.428.121.805.805,0,0,0,.757.418,1.43,1.43,0,0,0,1.1-.628,3.824,3.824,0,0,0,.648-1.535,1.4,1.4,0,0,1-1.006.449,1.111,1.111,0,0,1-1.216-1.186,6.6,6.6,0,0,1,.578-2.093,2.117,2.117,0,0,0,.169-.7c0-.318-.169-.318-.249-.318-.339,0-.737.3-1.006,1.235-.05.159-.061.18-.16.18-.02,0-.119,0-.119-.1S784.255,407,785.2,407a.79.79,0,0,1,.817.817,1.8,1.8,0,0,1-.2.718,5.922,5.922,0,0,0-.507,1.952c0,.369.109.808.618.808a1.382,1.382,0,0,0,1.125-.848l.449-1.793c.059-.269.129-.538.2-.8.039-.179.119-.488.14-.538a.434.434,0,0,1,.348-.21.267.267,0,0,1,.289.27.625.625,0,0,1-.04.229Z" transform="translate(-464.512 -332.251)"/>
    <path class="cls-1" d="M791.824,412.851h-2.873c0-.2,0-.209.07-.272l1.68-1.66a2.114,2.114,0,0,0,.655-1.339,1.043,1.043,0,0,0-1.059-1.108,1.1,1.1,0,0,0-1.019.648c.364,0,.412.244.412.369a.37.37,0,1,1-.739-.02,1.352,1.352,0,0,1,1.45-1.248,1.459,1.459,0,0,1,1.632,1.359,2.017,2.017,0,0,1-1,1.506c-.419.328-.662.523-1.394,1.172h1.283a3.589,3.589,0,0,0,.69-.042,1.635,1.635,0,0,0,.181-.635h.237Z" transform="translate(-464.512 -332.251)"/>
    <path class="cls-1" d="M794.133,413.9v-9.963H795.5v.4h-.967V413.5h.967v.4Z" transform="translate(-464.512 -332.251)"/>
    <path class="cls-1" d="M797.17,408.516a3.227,3.227,0,0,0,.159-.837c0-.329-.109-.458-.308-.458-.36,0-.559.477-.728,1.185-.06.219-.07.23-.17.23-.019,0-.119,0-.119-.1a5.058,5.058,0,0,1,.3-.967.87.87,0,0,1,.747-.568.9.9,0,0,1,.917.867,1.924,1.924,0,0,1,1.554-.867,1.018,1.018,0,0,1,1.146,1.066,9.032,9.032,0,0,1-.607,2.193,1.893,1.893,0,0,0-.18.707c0,.229.069.329.239.329.488,0,.817-.559,1.016-1.235.051-.15.051-.18.15-.18.029,0,.119,0,.119.1,0,.081-.369,1.535-1.3,1.535a.8.8,0,0,1-.817-.817,1.136,1.136,0,0,1,.1-.459,9.486,9.486,0,0,0,.647-2.321c0-.329-.09-.7-.538-.7a1.983,1.983,0,0,0-1.624,1.215c-.01.04-.09.329-.13.5-.049.228-.109.448-.169.667l-.219.9c-.06.249-.179.717-.19.737a.405.405,0,0,1-.368.279.267.267,0,0,1-.289-.269c0-.05.06-.279.09-.429Z" transform="translate(-464.512 -332.251)"/>
    <path class="cls-1" d="M803.3,413.9h-1.365v-.4h.966v-9.167h-.966v-.4H803.3Z" transform="translate(-464.512 -332.251)"/>
    <path class="cls-1" d="M697.665,409.761a3.925,3.925,0,0,0-.17.877c0,.339.16.658.549.658.318,0,1-.239,1.325-1.306.02-.069.039-.109.129-.109.03,0,.12,0,.12.1,0,.249-.568,1.535-1.6,1.535a1.1,1.1,0,0,1-1.076-.757,1.323,1.323,0,0,1-1.046.757c-.438,0-.936-.2-.936-.658a.566.566,0,0,1,.548-.578.342.342,0,0,1,.369.349.565.565,0,0,1-.469.538.956.956,0,0,0,.5.13c.439,0,.787-.419.946-1.036a14.434,14.434,0,0,0,.539-2.372c0-.577-.349-.667-.539-.667-.337,0-1,.249-1.335,1.3-.019.09-.049.111-.128.111-.021,0-.121,0-.121-.1,0-.25.569-1.535,1.605-1.535a1.1,1.1,0,0,1,1.076.758A1.286,1.286,0,0,1,699,407c.339,0,.927.14.927.658a.555.555,0,0,1-.538.577.347.347,0,0,1-.379-.348.577.577,0,0,1,.478-.538.98.98,0,0,0-.5-.129c-.7,0-.927.916-.986,1.175Z" transform="translate(-464.512 -332.251)"/>
    <path class="cls-1" d="M703.629,412.851h-2.873c0-.2,0-.209.069-.272l1.681-1.66a2.119,2.119,0,0,0,.655-1.339,1.043,1.043,0,0,0-1.059-1.108,1.1,1.1,0,0,0-1.019.648c.363,0,.412.244.412.369a.37.37,0,1,1-.739-.02,1.352,1.352,0,0,1,1.45-1.248,1.459,1.459,0,0,1,1.632,1.359,2.019,2.019,0,0,1-1,1.506c-.419.328-.662.523-1.395,1.172h1.283a3.6,3.6,0,0,0,.691-.042,1.635,1.635,0,0,0,.181-.635h.237Z" transform="translate(-464.512 -332.251)"/>
    <path class="cls-1" d="M706.047,413.9v-9.963h1.365v.4h-.967V413.5h.967v.4Z" transform="translate(-464.512 -332.251)"/>
    <path class="cls-1" d="M709.084,408.516a3.227,3.227,0,0,0,.159-.837c0-.329-.109-.458-.308-.458-.36,0-.559.477-.728,1.185-.06.219-.07.23-.17.23-.019,0-.119,0-.119-.1a5.058,5.058,0,0,1,.3-.967.87.87,0,0,1,.747-.568.9.9,0,0,1,.917.867,1.925,1.925,0,0,1,1.555-.867,1.018,1.018,0,0,1,1.145,1.066,9.032,9.032,0,0,1-.607,2.193,1.893,1.893,0,0,0-.18.707c0,.229.069.329.239.329.488,0,.817-.559,1.016-1.235.051-.15.051-.18.15-.18.03,0,.119,0,.119.1,0,.081-.369,1.535-1.3,1.535a.8.8,0,0,1-.817-.817,1.136,1.136,0,0,1,.1-.459,9.486,9.486,0,0,0,.647-2.321c0-.329-.089-.7-.538-.7a1.983,1.983,0,0,0-1.624,1.215c-.01.04-.09.329-.13.5-.049.228-.109.448-.169.667l-.219.9c-.06.249-.179.717-.19.737a.405.405,0,0,1-.368.279.267.267,0,0,1-.289-.269c0-.05.06-.279.09-.429Z" transform="translate(-464.512 -332.251)"/>
    <path class="cls-1" d="M715.221,413.9h-1.366v-.4h.967v-9.167h-.967v-.4h1.366Z" transform="translate(-464.512 -332.251)"/>
    <g>
      <path class="cls-1" d="M740.8,420.122a2,2,0,0,1-1.963,2.072,2.492,2.492,0,0,1-1.833-.7c-.329.528-.359.559-.359.568-.07.11-.08.129-.149.129-.11,0-.11-.069-.11-.238v-1.993c0-.18,0-.249.13-.249a.1.1,0,0,1,.119.1,2.017,2.017,0,0,0,.618,1.535,2.4,2.4,0,0,0,1.574.538,1.366,1.366,0,0,0,1.335-1.425,1.459,1.459,0,0,0-.309-.917,1.328,1.328,0,0,0-.846-.508c-.7-.169-1.206-.289-1.316-.329a1.93,1.93,0,0,1,.638-3.756,2.049,2.049,0,0,1,1.594.7l.349-.568c.07-.119.079-.129.15-.129.109,0,.109.07.109.239v2c0,.19,0,.24-.13.24-.109,0-.109-.06-.119-.119-.059-.449-.279-2.084-1.943-2.084a1.3,1.3,0,0,0-.309,2.572l1.276.308A2.041,2.041,0,0,1,740.8,420.122Z" transform="translate(-464.512 -332.251)"/>
      <path class="cls-1" d="M743.753,422.882c-.239.568-.649,1.137-1.275,1.137a.871.871,0,0,1-.917-.808.418.418,0,1,1,.448.409.68.68,0,0,0,.469.179c.637,0,.916-.688,1.135-1.236.06-.129.2-.458.249-.587l-1.5-3.637c-.139-.349-.328-.349-.806-.349v-.309c.3.02.7.03.966.03.169,0,.827-.02,1.086-.03v.309c-.189,0-.558,0-.558.259a.589.589,0,0,0,.06.18l1.106,2.679,1.007-2.451a.472.472,0,0,0,.059-.239c0-.249-.159-.418-.469-.428v-.309c.22.01.688.03.868.03.229,0,.518-.01.747-.03v.309a.939.939,0,0,0-.927.638Z" transform="translate(-464.512 -332.251)"/>
      <path class="cls-1" d="M747.389,419.584a1.061,1.061,0,0,1-.428-.847c0-.557.378-1.225,1.594-1.225a1.533,1.533,0,0,1,.936.279,1.288,1.288,0,0,0,.17-.16c.129-.119.15-.119.2-.119.11,0,.11.069.11.239v1.006c0,.189,0,.239-.13.239a.106.106,0,0,1-.119-.09,1.1,1.1,0,0,0-1.166-1.2c-.857,0-1.117.408-1.117.757,0,.578.668.708,1.226.817a2.036,2.036,0,0,1,1.137.479,1.285,1.285,0,0,1,.418.946c0,.718-.458,1.385-1.605,1.385a1.488,1.488,0,0,1-1.1-.428,2.217,2.217,0,0,0-.2.229c-.189.189-.2.2-.249.2-.109,0-.109-.069-.109-.239v-1.315c0-.179,0-.25.129-.25.1,0,.11.04.139.17.19.847.548,1.415,1.385,1.415.778,0,1.126-.4,1.126-.907,0-.717-.816-.877-1.036-.916A2.607,2.607,0,0,1,747.389,419.584Z" transform="translate(-464.512 -332.251)"/>
      <path class="cls-1" d="M752.29,420.76c0,.17,0,1.076.668,1.076.368,0,.667-.379.667-1.116v-.548h.249v.568c0,.638-.278,1.345-.986,1.345a1.2,1.2,0,0,1-1.285-1.345v-2.75h-.847v-.219c.976-.041,1.275-1.106,1.285-1.923h.249v1.833h1.425v.309H752.29Z" transform="translate(-464.512 -332.251)"/>
      <path class="cls-1" d="M755.848,421.169a1.34,1.34,0,0,0,1.126.667,1.4,1.4,0,0,0,1.344-1.026c.02-.08.04-.14.13-.14a.115.115,0,0,1,.129.12,1.7,1.7,0,0,1-1.664,1.295,2.249,2.249,0,0,1-2.191-2.3,2.177,2.177,0,0,1,2.072-2.271,1.767,1.767,0,0,1,1.783,1.953c0,.209-.029.209-.249.209h-2.779A2.9,2.9,0,0,0,755.848,421.169Zm2.072-1.7c0-.389-.1-1.735-1.126-1.735-.339,0-1.176.25-1.235,1.735Z" transform="translate(-464.512 -332.251)"/>
      <path class="cls-1" d="M759.193,417.99v-.309l1.406-.11v1.047a1.571,1.571,0,0,1,1.474-1.047,1.18,1.18,0,0,1,1.325.977,1.579,1.579,0,0,1,1.446-.977,1.332,1.332,0,0,1,1.046.369c.308.359.308.667.308,1.525v1.9c.011.3.26.3.778.3v.309c-.339-.01-.857-.031-1.117-.031s-.776.021-1.126.031v-.309c.668,0,.778,0,.778-.448V418.9c0-.567-.11-1.105-.738-1.105a1.455,1.455,0,0,0-1.344,1.594v1.834c0,.448.109.448.777.448v.309c-.339-.01-.857-.031-1.116-.031s-.777.021-1.126.031v-.309c.668,0,.777,0,.777-.448V418.9c0-.567-.109-1.105-.737-1.105a1.456,1.456,0,0,0-1.346,1.594v1.834c0,.448.111.448.778.448v.309c-.339-.01-.857-.031-1.117-.031s-.776.021-1.126.031v-.309c.668,0,.778,0,.778-.448v-2.671C759.971,418.06,759.892,417.99,759.193,417.99Z" transform="translate(-464.512 -332.251)"/>
    </g>
    <polygon class="cls-2" points="262.203 87.3 262.203 73.126 311.809 73.126 311.809 101.473 262.203 101.473 262.203 87.3"/>
    <polyline points="359.148 75.678 361.415 80.213 363.683 75.678 361.415 76.812"/>
    <line class="cls-2" x1="361.415" y1="66.04" x2="361.415" y2="76.812"/>
    <path class="cls-1" d="M827.415,389.649a1.8,1.8,0,0,1,.728,1.486,2.525,2.525,0,0,1-.8,1.833,2.911,2.911,0,0,1-1.923.787,1.3,1.3,0,0,1-1.356-.967l-.7,2.75c-.01.03-.04.05-.119.05s-.13-.06-.12-.1l1.584-6.327A4.247,4.247,0,0,1,826,387.039a1.746,1.746,0,0,1,1.205-.418,1.327,1.327,0,0,1,1.356,1.364A2.083,2.083,0,0,1,827.415,389.649Zm-.338-2.8c-1.2,0-1.913,1.585-2.133,2.441l-.637,2.521a1.6,1.6,0,0,0-.05.438,1.141,1.141,0,0,0,1.136,1.286,2.159,2.159,0,0,0,1.624-.9,3.183,3.183,0,0,0,.5-1.714,1.355,1.355,0,0,0-.438-1.126,1.787,1.787,0,0,1-.817.13c-.18,0-.7.03-.688-.249,0-.329.558-.32.768-.32a1.972,1.972,0,0,1,.766.12,2.082,2.082,0,0,0,.9-1.723A.83.83,0,0,0,827.077,386.85Zm-.737,2.74c-.111,0-.469-.02-.488.08a1.957,1.957,0,0,0,.916-.03A1.044,1.044,0,0,0,826.34,389.59Z" transform="translate(-464.512 -332.251)"/>
    <path class="cls-2" d="M822.384,416.007l7.086,7.087m-7.086,0,7.086-7.087m4.05,3.563a7.569,7.569,0,1,0-7.568,7.569,7.571,7.571,0,0,0,7.568-7.569Zm-.506-.019H861.36" transform="translate(-464.512 -332.251)"/>
    <polyline points="394.581 47.331 396.848 51.867 399.116 47.331 396.848 48.465"/>
    <line class="cls-2" x1="396.848" y1="30.607" x2="396.848" y2="48.465"/>
    <polyline points="399.116 70.575 396.848 66.04 394.581 70.575 396.848 69.441"/>
    <path class="cls-2" d="M861.36,419.551V401.692m0-14.031v7.087m-3.543-3.544H864.9" transform="translate(-464.512 -332.251)"/>
    <path class="cls-2" d="M861.352,383.682a7.569,7.569,0,1,0,7.568,7.568,7.572,7.572,0,0,0-7.568-7.568Z" transform="translate(-464.512 -332.251)"/>
  </g>
</svg>
