<svg id="Layer_1" data-name="Layer 1" xmlns="http://www.w3.org/2000/svg" viewBox="0 0 227.545 79.899">
  <defs>
    <style>
      .cls-1 {
        fill: #1d1d1b;
      }

      .cls-2 {
        fill: none;
        stroke: #000;
        stroke-miterlimit: 10;
        stroke-width: 0.85px;
      }
    </style>
  </defs>
  <title>timeinv</title>
  <g>
    <g>
      <path class="cls-1" d="M617.3,348.268a3.269,3.269,0,0,1,3.049,3.458,3.2,3.2,0,0,1-3.049,3.347h-3.647v-.309h.24c.767,0,.787-.109.787-.468v-5.251c0-.358-.02-.468-.787-.468h-.24v-.309Zm-.269,6.5a2.183,2.183,0,0,0,1.774-.847,3.413,3.413,0,0,0,.548-2.191,3.852,3.852,0,0,0-.519-2.223,2.147,2.147,0,0,0-1.813-.926h-1c-.468,0-.488.069-.488.4v5.391c0,.329.02.4.488.4Z" transform="translate(-565.425 -343.991)"/>
      <path class="cls-1" d="M622.284,354.266a1.341,1.341,0,0,0,1.126.668,1.4,1.4,0,0,0,1.345-1.027c.02-.079.04-.139.129-.139a.116.116,0,0,1,.13.12,1.7,1.7,0,0,1-1.664,1.3,2.25,2.25,0,0,1-2.192-2.3,2.178,2.178,0,0,1,2.072-2.272,1.768,1.768,0,0,1,1.784,1.954c0,.208-.03.208-.249.208h-2.78A2.9,2.9,0,0,0,622.284,354.266Zm2.072-1.7c0-.389-.1-1.734-1.126-1.734-.338,0-1.175.249-1.235,1.734Z" transform="translate(-565.425 -343.991)"/>
      <path class="cls-1" d="M627.036,354.316c0,.448.11.448.777.448v.309c-.368-.01-.856-.03-1.106-.03s-.777.02-1.106.03v-.309c.668,0,.777,0,.777-.448v-5.181c0-.489-.079-.558-.777-.558v-.309l1.435-.11Z" transform="translate(-565.425 -343.991)"/>
      <path class="cls-1" d="M630.015,355.183c-.628,0-1.6-.249-1.6-1.057a1.45,1.45,0,0,1,1-1.294,4.808,4.808,0,0,1,1.833-.359V352.1a1.128,1.128,0,0,0-1.056-1.275,1.4,1.4,0,0,0-1.076.458c.458.01.508.338.508.458a.459.459,0,1,1-.917-.01c0-.657.688-1.126,1.505-1.126a1.906,1.906,0,0,1,1.365.548,1.474,1.474,0,0,1,.359,1.176v1.993c0,.05.04.5.369.5.109,0,.358-.06.358-.637v-.559h.249v.559a.845.845,0,0,1-.817.946.835.835,0,0,1-.777-.817A1.379,1.379,0,0,1,630.015,355.183Zm-.827-1.066a.858.858,0,0,0,.9.847,1.2,1.2,0,0,0,1.166-1.286v-1C629.606,352.742,629.188,353.569,629.188,354.117Z" transform="translate(-565.425 -343.991)"/>
    </g>
    <path class="cls-1" d="M635.244,355.98c-.24.568-.648,1.136-1.276,1.136a.87.87,0,0,1-.916-.807.419.419,0,1,1,.448.408.678.678,0,0,0,.468.179c.638,0,.917-.687,1.136-1.235.06-.129.2-.458.25-.588l-1.5-3.636c-.14-.349-.329-.349-.807-.349v-.309c.3.02.7.03.966.03.17,0,.827-.02,1.086-.03v.309c-.189,0-.558,0-.558.259a.586.586,0,0,0,.06.179l1.106,2.681,1.006-2.452a.466.466,0,0,0,.06-.239c0-.249-.159-.418-.468-.428v-.309c.219.01.688.03.867.03.229,0,.518-.01.747-.03v.309a.937.937,0,0,0-.926.638Z" transform="translate(-565.425 -343.991)"/>
    <g>
      <path class="cls-1" d="M616.629,364.825a2.192,2.192,0,0,1,2.112,2.252,2.245,2.245,0,0,1-2.222,2.262,1.566,1.566,0,0,1-1.3-.727c-.269.468-.349.608-.359.617h-.249v-5.938c0-.488-.08-.558-.777-.558v-.309l1.435-.11v3.159A1.771,1.771,0,0,1,616.629,364.825Zm-1.2,3.687a1.23,1.23,0,0,0,1.046.608,1.369,1.369,0,0,0,1.126-.638,3.428,3.428,0,0,0,.02-2.8,1.24,1.24,0,0,0-1.046-.638,1.442,1.442,0,0,0-1.176.638.435.435,0,0,0-.11.359v2.053A.541.541,0,0,0,615.433,368.512Z" transform="translate(-565.425 -343.991)"/>
      <path class="cls-1" d="M621.2,370.136c-.239.568-.647,1.136-1.275,1.136a.87.87,0,0,1-.917-.807.419.419,0,1,1,.449.409.678.678,0,0,0,.468.179c.637,0,.916-.688,1.136-1.236.06-.129.2-.458.249-.588l-1.5-3.636c-.139-.349-.329-.349-.807-.349v-.309c.3.02.7.03.967.03.169,0,.827-.02,1.086-.03v.309c-.189,0-.558,0-.558.259a.566.566,0,0,0,.059.179l1.106,2.681,1.007-2.451a.471.471,0,0,0,.06-.24c0-.249-.16-.418-.468-.428v-.309c.218.01.687.03.866.03.229,0,.518-.01.747-.03v.309a.938.938,0,0,0-.926.638Z" transform="translate(-565.425 -343.991)"/>
    </g>
    <path class="cls-1" d="M628.8,366.34a3.2,3.2,0,0,0,.16-.837c0-.329-.11-.459-.309-.459-.359,0-.558.479-.727,1.186-.06.22-.07.229-.17.229-.02,0-.119,0-.119-.1a4.96,4.96,0,0,1,.3-.966.869.869,0,0,1,.747-.569.9.9,0,0,1,.917.867,1.924,1.924,0,0,1,1.554-.867,1.019,1.019,0,0,1,1.146,1.067,8.974,8.974,0,0,1-.608,2.191,1.9,1.9,0,0,0-.179.708c0,.229.07.329.239.329.488,0,.817-.558,1.016-1.236.05-.149.05-.179.15-.179.029,0,.119,0,.119.1,0,.079-.369,1.534-1.3,1.534a.8.8,0,0,1-.817-.817,1.139,1.139,0,0,1,.1-.459,9.5,9.5,0,0,0,.647-2.321c0-.329-.09-.7-.538-.7a1.981,1.981,0,0,0-1.624,1.216c-.01.04-.09.329-.13.5-.05.23-.109.449-.169.668l-.219.9c-.06.249-.18.717-.189.737a.409.409,0,0,1-.369.279.266.266,0,0,1-.289-.269c0-.05.06-.279.09-.428Z" transform="translate(-565.425 -343.991)"/>
    <path class="cls-1" d="M635.327,370.807c-1.618,0-1.618-1.862-1.618-2.365s0-2.405,1.618-2.405a1.451,1.451,0,0,1,1.207.6,3.111,3.111,0,0,1,.411,1.806C636.945,368.945,636.945,370.807,635.327,370.807Zm.893-.984a7.583,7.583,0,0,0,.091-1.471,5.684,5.684,0,0,0-.119-1.485.9.9,0,0,0-1.744.062,6.012,6.012,0,0,0-.1,1.423,7.268,7.268,0,0,0,.1,1.5.9.9,0,0,0,1.779-.028Z" transform="translate(-565.425 -343.991)"/>
    <polygon class="cls-2" points="35.433 15.694 35.433 1.521 85.039 1.521 85.039 29.867 35.433 29.867 35.433 15.694"/>
    <polyline points="30.897 17.962 35.433 15.694 30.897 13.427 32.031 15.694"/>
    <line class="cls-2" y1="15.694" x2="32.031" y2="15.694"/>
    <polyline points="130.11 17.962 134.645 15.694 130.11 13.427 131.243 15.694"/>
    <line class="cls-2" x1="85.039" y1="15.694" x2="131.243" y2="15.694"/>
    <polyline points="215.148 17.962 219.684 15.694 215.148 13.427 216.282 15.694"/>
    <line class="cls-2" x1="184.251" y1="15.694" x2="216.282" y2="15.694"/>
    <path class="cls-1" d="M658.414,349.82a3.851,3.851,0,0,0-.169.877c0,.339.159.657.547.657.319,0,1-.239,1.326-1.305.02-.07.04-.11.13-.11.029,0,.119,0,.119.1,0,.249-.568,1.534-1.595,1.534a1.1,1.1,0,0,1-1.075-.757,1.325,1.325,0,0,1-1.047.757c-.438,0-.936-.2-.936-.657a.566.566,0,0,1,.548-.578.341.341,0,0,1,.368.349.565.565,0,0,1-.468.538.964.964,0,0,0,.5.129c.439,0,.787-.418.947-1.036a14.494,14.494,0,0,0,.538-2.371c0-.578-.349-.668-.538-.668-.339,0-1,.249-1.335,1.305-.02.09-.05.11-.13.11-.02,0-.12,0-.12-.1,0-.249.569-1.534,1.6-1.534a1.1,1.1,0,0,1,1.076.757,1.289,1.289,0,0,1,1.046-.757c.339,0,.927.139.927.657a.556.556,0,0,1-.538.578.348.348,0,0,1-.379-.348.578.578,0,0,1,.478-.538.974.974,0,0,0-.5-.13c-.7,0-.926.917-.986,1.176Z" transform="translate(-565.425 -343.991)"/>
    <path class="cls-1" d="M662.241,353.955v-9.964h1.365v.4h-.966v9.166h.966v.4Z" transform="translate(-565.425 -343.991)"/>
    <path class="cls-1" d="M665.278,348.574a3.194,3.194,0,0,0,.16-.837c0-.328-.11-.458-.31-.458-.358,0-.558.478-.727,1.186-.06.219-.069.229-.169.229-.02,0-.12,0-.12-.1a4.96,4.96,0,0,1,.3-.966.869.869,0,0,1,.747-.568.9.9,0,0,1,.917.867,1.925,1.925,0,0,1,1.554-.867,1.018,1.018,0,0,1,1.146,1.066,8.937,8.937,0,0,1-.608,2.192,1.911,1.911,0,0,0-.179.707c0,.229.07.329.24.329.487,0,.816-.558,1.016-1.235.049-.15.049-.18.149-.18.03,0,.12,0,.12.1,0,.08-.369,1.534-1.305,1.534a.8.8,0,0,1-.818-.817,1.132,1.132,0,0,1,.1-.458,9.511,9.511,0,0,0,.648-2.321c0-.33-.09-.7-.538-.7a1.981,1.981,0,0,0-1.624,1.216c-.011.04-.09.328-.13.5-.05.229-.11.448-.169.667l-.219.9c-.061.249-.18.717-.19.737a.406.406,0,0,1-.369.279.266.266,0,0,1-.289-.268c0-.051.06-.28.09-.429Z" transform="translate(-565.425 -343.991)"/>
    <path class="cls-1" d="M673.163,349.172c-.169,0-.349,0-.349-.2s.18-.2.349-.2h5.391c.169,0,.348,0,.348.2s-.179.2-.348.2Z" transform="translate(-565.425 -343.991)"/>
    <path class="cls-1" d="M683.4,348.574a3.239,3.239,0,0,0,.16-.837c0-.328-.11-.458-.309-.458-.359,0-.559.478-.728,1.186-.059.219-.07.229-.17.229-.019,0-.119,0-.119-.1a5.035,5.035,0,0,1,.3-.966.869.869,0,0,1,.747-.568.9.9,0,0,1,.917.867,1.922,1.922,0,0,1,1.555-.867,1.017,1.017,0,0,1,1.145,1.066,9.024,9.024,0,0,1-.607,2.192,1.893,1.893,0,0,0-.18.707c0,.229.07.329.24.329.488,0,.816-.558,1.015-1.235.051-.15.051-.18.151-.18.029,0,.119,0,.119.1,0,.08-.369,1.534-1.306,1.534a.8.8,0,0,1-.816-.817,1.126,1.126,0,0,1,.1-.458,9.511,9.511,0,0,0,.648-2.321c0-.33-.09-.7-.538-.7A1.981,1.981,0,0,0,684.1,348.5c-.01.04-.09.328-.13.5-.05.229-.11.448-.169.667l-.22.9c-.06.249-.179.717-.189.737a.406.406,0,0,1-.369.279.266.266,0,0,1-.289-.268c0-.051.06-.28.09-.429Z" transform="translate(-565.425 -343.991)"/>
    <path class="cls-1" d="M689.929,353.057c-1.618,0-1.618-1.862-1.618-2.365s0-2.405,1.618-2.405a1.449,1.449,0,0,1,1.206.6,3.1,3.1,0,0,1,.412,1.806C691.547,351.2,691.547,353.057,689.929,353.057Zm.892-.984a7.583,7.583,0,0,0,.091-1.471,5.641,5.641,0,0,0-.119-1.485.9.9,0,0,0-1.743.062,5.957,5.957,0,0,0-.1,1.423,7.2,7.2,0,0,0,.1,1.5.9.9,0,0,0,1.778-.028Z" transform="translate(-565.425 -343.991)"/>
    <path class="cls-1" d="M694.1,353.955h-1.366v-.4h.967V344.39h-.967v-.4H694.1Z" transform="translate(-565.425 -343.991)"/>
    <path class="cls-1" d="M574.055,349.82a3.867,3.867,0,0,0-.17.877c0,.339.159.657.548.657.319,0,1-.239,1.325-1.305.02-.07.04-.11.13-.11.03,0,.12,0,.12.1,0,.249-.569,1.534-1.6,1.534a1.1,1.1,0,0,1-1.076-.757,1.323,1.323,0,0,1-1.046.757c-.438,0-.937-.2-.937-.657a.567.567,0,0,1,.548-.578.341.341,0,0,1,.369.349.565.565,0,0,1-.468.538.96.96,0,0,0,.5.129c.438,0,.787-.418.947-1.036a14.614,14.614,0,0,0,.538-2.371c0-.578-.349-.668-.538-.668-.339,0-1,.249-1.335,1.305-.02.09-.051.11-.13.11-.02,0-.12,0-.12-.1,0-.249.568-1.534,1.605-1.534a1.1,1.1,0,0,1,1.076.757,1.287,1.287,0,0,1,1.046-.757c.339,0,.926.139.926.657a.555.555,0,0,1-.538.578.347.347,0,0,1-.378-.348.578.578,0,0,1,.478-.538.974.974,0,0,0-.5-.13c-.7,0-.927.917-.986,1.176Z" transform="translate(-565.425 -343.991)"/>
    <path class="cls-1" d="M577.882,353.955v-9.964h1.365v.4h-.967v9.166h.967v.4Z" transform="translate(-565.425 -343.991)"/>
    <path class="cls-1" d="M580.918,348.574a3.194,3.194,0,0,0,.16-.837c0-.328-.11-.458-.309-.458-.358,0-.558.478-.727,1.186-.06.219-.07.229-.169.229-.02,0-.12,0-.12-.1a4.96,4.96,0,0,1,.3-.966.868.868,0,0,1,.747-.568.9.9,0,0,1,.917.867,1.923,1.923,0,0,1,1.554-.867,1.018,1.018,0,0,1,1.146,1.066,8.937,8.937,0,0,1-.608,2.192,1.892,1.892,0,0,0-.179.707c0,.229.07.329.239.329.488,0,.817-.558,1.016-1.235.05-.15.05-.18.15-.18.029,0,.119,0,.119.1,0,.08-.368,1.534-1.305,1.534a.8.8,0,0,1-.817-.817,1.132,1.132,0,0,1,.1-.458,9.511,9.511,0,0,0,.647-2.321c0-.33-.09-.7-.538-.7a1.983,1.983,0,0,0-1.624,1.216c-.01.04-.09.328-.13.5-.049.229-.109.448-.169.667l-.219.9c-.06.249-.18.717-.189.737a.406.406,0,0,1-.369.279.266.266,0,0,1-.289-.268c0-.051.06-.28.09-.429Z" transform="translate(-565.425 -343.991)"/>
    <path class="cls-1" d="M587.048,353.955h-1.365v-.4h.966V344.39h-.966v-.4h1.365Z" transform="translate(-565.425 -343.991)"/>
    <path class="cls-1" d="M769.289,349.76a2.944,2.944,0,0,0-.109.727c0,.568.269.867.737.867.488,0,.837-.349,1.1-.876a6.062,6.062,0,0,0,.549-1.824,1.132,1.132,0,0,0-.36-.847.325.325,0,0,1-.149-.269.542.542,0,0,1,.5-.478c.17,0,.438.149.438.7a9.282,9.282,0,0,1-.657,2.591,1.693,1.693,0,0,1-1.444,1.225,1.265,1.265,0,0,1-1.246-.7,1.122,1.122,0,0,1-1.037.7c-.747,0-1.415-.348-1.415-1.255a6.313,6.313,0,0,1,.559-2.013,2,2,0,0,0,.179-.7c0-.319-.159-.329-.249-.329-.349,0-.738.309-1.006,1.236-.05.159-.061.179-.16.179-.02,0-.119,0-.119-.1s.368-1.534,1.315-1.534a.8.8,0,0,1,.816.817,1.778,1.778,0,0,1-.169.638,5.335,5.335,0,0,0-.518,1.933.789.789,0,0,0,.8.906c.388,0,.687-.309.916-.837a.757.757,0,0,1-.01-.179,2.721,2.721,0,0,1,.09-.658c.069-.259.538-2.162.567-2.232a.41.41,0,0,1,.369-.279.266.266,0,0,1,.289.269c0,.06-.1.429-.149.648Z" transform="translate(-565.425 -343.991)"/>
    <path class="cls-1" d="M773.6,353.955v-9.964h1.365v.4H774v9.166h.967v.4Z" transform="translate(-565.425 -343.991)"/>
    <path class="cls-1" d="M776.638,348.574a3.22,3.22,0,0,0,.159-.837c0-.328-.109-.458-.309-.458-.359,0-.558.478-.727,1.186-.06.219-.071.229-.17.229-.02,0-.119,0-.119-.1a4.96,4.96,0,0,1,.3-.966.868.868,0,0,1,.747-.568.9.9,0,0,1,.917.867,1.922,1.922,0,0,1,1.554-.867,1.018,1.018,0,0,1,1.146,1.066,8.982,8.982,0,0,1-.608,2.192,1.911,1.911,0,0,0-.179.707c0,.229.069.329.239.329.488,0,.816-.558,1.016-1.235.05-.15.05-.18.15-.18.029,0,.119,0,.119.1,0,.08-.369,1.534-1.306,1.534a.8.8,0,0,1-.816-.817,1.132,1.132,0,0,1,.1-.458,9.511,9.511,0,0,0,.647-2.321c0-.33-.09-.7-.538-.7a1.983,1.983,0,0,0-1.624,1.216c-.01.04-.09.328-.13.5-.05.229-.109.448-.169.667l-.22.9c-.059.249-.178.717-.189.737a.405.405,0,0,1-.368.279.266.266,0,0,1-.289-.268c0-.051.059-.28.09-.429Z" transform="translate(-565.425 -343.991)"/>
    <path class="cls-1" d="M782.767,353.955H781.4v-.4h.967V344.39H781.4v-.4h1.366Z" transform="translate(-565.425 -343.991)"/>
    <g>
      <path class="cls-1" d="M714.154,360.181a2,2,0,0,1-1.963,2.072,2.5,2.5,0,0,1-1.833-.7c-.329.528-.358.558-.358.568-.07.109-.08.129-.149.129-.111,0-.111-.069-.111-.239v-1.993c0-.179,0-.249.13-.249a.1.1,0,0,1,.119.1,2.02,2.02,0,0,0,.618,1.534,2.4,2.4,0,0,0,1.575.538,1.365,1.365,0,0,0,1.335-1.424,1.457,1.457,0,0,0-.309-.917,1.323,1.323,0,0,0-.847-.508c-.7-.17-1.206-.289-1.315-.329a1.93,1.93,0,0,1,.638-3.756,2.047,2.047,0,0,1,1.593.7l.35-.568c.069-.119.079-.129.149-.129.11,0,.11.069.11.239v2c0,.19,0,.24-.13.24-.11,0-.11-.06-.119-.12-.06-.448-.28-2.082-1.944-2.082a1.3,1.3,0,0,0-.308,2.57l1.275.309A2.039,2.039,0,0,1,714.154,360.181Z" transform="translate(-565.425 -343.991)"/>
      <path class="cls-1" d="M717.1,362.941c-.24.568-.649,1.136-1.276,1.136a.87.87,0,0,1-.917-.807.419.419,0,1,1,.448.408.681.681,0,0,0,.469.179c.638,0,.916-.687,1.136-1.235.059-.129.2-.458.249-.588l-1.5-3.637c-.14-.348-.328-.348-.807-.348v-.309c.3.02.7.03.967.03.169,0,.826-.02,1.086-.03v.309c-.19,0-.559,0-.559.259a.6.6,0,0,0,.061.179l1.105,2.68,1.007-2.451a.466.466,0,0,0,.06-.239c0-.249-.159-.418-.469-.428v-.309c.22.01.687.03.867.03.23,0,.519-.01.747-.03v.309a.94.94,0,0,0-.927.638Z" transform="translate(-565.425 -343.991)"/>
      <path class="cls-1" d="M720.739,359.643a1.063,1.063,0,0,1-.427-.847c0-.558.377-1.226,1.593-1.226a1.534,1.534,0,0,1,.937.279,1.422,1.422,0,0,0,.17-.159c.129-.12.149-.12.2-.12.109,0,.109.07.109.24v1.006c0,.189,0,.239-.13.239a.107.107,0,0,1-.119-.09,1.1,1.1,0,0,0-1.166-1.2c-.856,0-1.116.408-1.116.757,0,.578.668.707,1.226.817a2.032,2.032,0,0,1,1.136.478,1.284,1.284,0,0,1,.418.947c0,.717-.458,1.385-1.6,1.385a1.489,1.489,0,0,1-1.1-.429,2.178,2.178,0,0,0-.2.229c-.19.19-.2.2-.249.2-.109,0-.109-.07-.109-.239v-1.316c0-.179,0-.249.128-.249.1,0,.111.04.14.17.19.846.548,1.415,1.385,1.415.777,0,1.126-.4,1.126-.907,0-.718-.817-.877-1.036-.917A2.617,2.617,0,0,1,720.739,359.643Z" transform="translate(-565.425 -343.991)"/>
      <path class="cls-1" d="M725.641,360.818c0,.17,0,1.077.668,1.077.368,0,.667-.379.667-1.116v-.549h.249v.569c0,.638-.279,1.345-.987,1.345a1.206,1.206,0,0,1-1.285-1.345v-2.75h-.847v-.219c.977-.04,1.276-1.107,1.286-1.924h.249v1.834h1.424v.309h-1.424Z" transform="translate(-565.425 -343.991)"/>
      <path class="cls-1" d="M729.2,361.227a1.34,1.34,0,0,0,1.126.668,1.4,1.4,0,0,0,1.345-1.027c.019-.079.04-.139.13-.139a.115.115,0,0,1,.129.12,1.7,1.7,0,0,1-1.664,1.3,2.25,2.25,0,0,1-2.192-2.3,2.178,2.178,0,0,1,2.073-2.272,1.767,1.767,0,0,1,1.783,1.953c0,.209-.03.209-.249.209H728.9A2.9,2.9,0,0,0,729.2,361.227Zm2.073-1.7c0-.388-.1-1.733-1.126-1.733-.339,0-1.176.249-1.236,1.733Z" transform="translate(-565.425 -343.991)"/>
      <path class="cls-1" d="M732.544,358.049v-.309l1.4-.11v1.046a1.572,1.572,0,0,1,1.475-1.046,1.18,1.18,0,0,1,1.325.976,1.578,1.578,0,0,1,1.445-.976,1.33,1.33,0,0,1,1.046.369c.309.358.309.668.309,1.524v1.9c.011.3.26.3.777.3v.309c-.339-.01-.856-.03-1.116-.03s-.776.02-1.126.03v-.309c.668,0,.777,0,.777-.448v-2.322c0-.568-.109-1.106-.737-1.106a1.455,1.455,0,0,0-1.345,1.594v1.834c0,.448.11.448.778.448v.309c-.339-.01-.858-.03-1.117-.03s-.777.02-1.126.03v-.309c.668,0,.778,0,.778-.448v-2.322c0-.568-.11-1.106-.738-1.106a1.455,1.455,0,0,0-1.345,1.594v1.834c0,.448.11.448.777.448v.309c-.339-.01-.856-.03-1.116-.03s-.776.02-1.126.03v-.309c.668,0,.777,0,.777-.448v-2.671C733.321,358.118,733.242,358.049,732.544,358.049Z" transform="translate(-565.425 -343.991)"/>
    </g>
    <polygon class="cls-2" points="134.645 15.694 134.645 1.521 184.251 1.521 184.251 29.867 134.645 29.867 134.645 15.694"/>
    <g>
      <path class="cls-1" d="M615.038,409.86a2,2,0,0,1-1.963,2.073,2.5,2.5,0,0,1-1.834-.7c-.328.529-.359.559-.359.569-.069.109-.079.129-.149.129-.109,0-.109-.07-.109-.239V409.7c0-.18,0-.249.129-.249a.1.1,0,0,1,.12.1,2.015,2.015,0,0,0,.617,1.534,2.4,2.4,0,0,0,1.574.538A1.367,1.367,0,0,0,614.4,410.2a1.459,1.459,0,0,0-.309-.917,1.332,1.332,0,0,0-.847-.508c-.7-.169-1.206-.289-1.315-.329a1.93,1.93,0,0,1,.637-3.756,2.052,2.052,0,0,1,1.595.7l.348-.569c.07-.119.08-.129.15-.129.11,0,.11.07.11.24v2c0,.189,0,.239-.13.239-.11,0-.11-.06-.119-.119-.061-.448-.28-2.083-1.944-2.083a1.3,1.3,0,0,0-.308,2.571l1.275.309A2.038,2.038,0,0,1,615.038,409.86Z" transform="translate(-565.425 -343.991)"/>
      <path class="cls-1" d="M617.986,412.62c-.239.568-.648,1.137-1.276,1.137a.871.871,0,0,1-.916-.808.419.419,0,1,1,.448.409.681.681,0,0,0,.468.179c.638,0,.917-.687,1.136-1.235.06-.13.2-.458.25-.588l-1.5-3.637c-.14-.348-.329-.348-.807-.348v-.31c.3.02.7.03.966.03.17,0,.827-.019,1.086-.03v.31c-.189,0-.557,0-.557.258a.576.576,0,0,0,.059.18l1.106,2.68,1.006-2.451a.471.471,0,0,0,.061-.24c0-.249-.16-.418-.469-.427v-.31c.219.011.688.03.867.03.229,0,.518-.01.747-.03v.31a.937.937,0,0,0-.926.637Z" transform="translate(-565.425 -343.991)"/>
      <path class="cls-1" d="M621.622,409.322a1.06,1.06,0,0,1-.429-.846c0-.558.379-1.226,1.6-1.226a1.536,1.536,0,0,1,.937.279,1.345,1.345,0,0,0,.169-.16c.129-.119.149-.119.2-.119.11,0,.11.069.11.239V408.5c0,.19,0,.239-.13.239-.02,0-.11,0-.119-.089a1.1,1.1,0,0,0-1.166-1.206c-.857,0-1.116.409-1.116.757,0,.578.667.708,1.225.818a2.029,2.029,0,0,1,1.136.478,1.281,1.281,0,0,1,.419.946c0,.718-.458,1.385-1.6,1.385a1.494,1.494,0,0,1-1.1-.427,2.2,2.2,0,0,0-.2.228c-.189.189-.2.2-.249.2-.11,0-.11-.069-.11-.239V410.27c0-.18,0-.25.13-.25.1,0,.11.04.139.169.19.847.549,1.415,1.386,1.415.777,0,1.126-.4,1.126-.907,0-.717-.818-.877-1.036-.916A2.6,2.6,0,0,1,621.622,409.322Z" transform="translate(-565.425 -343.991)"/>
      <path class="cls-1" d="M626.523,410.5c0,.17,0,1.076.668,1.076.369,0,.668-.379.668-1.116v-.548h.249v.569c0,.637-.279,1.344-.986,1.344a1.205,1.205,0,0,1-1.286-1.344v-2.75h-.847v-.22c.977-.04,1.276-1.106,1.285-1.923h.249v1.833h1.425v.31h-1.425Z" transform="translate(-565.425 -343.991)"/>
      <path class="cls-1" d="M630.08,410.907a1.344,1.344,0,0,0,1.126.667,1.4,1.4,0,0,0,1.345-1.026c.02-.079.04-.14.13-.14a.117.117,0,0,1,.13.12,1.7,1.7,0,0,1-1.665,1.295,2.249,2.249,0,0,1-2.192-2.3,2.177,2.177,0,0,1,2.073-2.271,1.768,1.768,0,0,1,1.784,1.953c0,.209-.031.209-.25.209h-2.78A2.9,2.9,0,0,0,630.08,410.907Zm2.073-1.7c0-.389-.1-1.734-1.126-1.734-.339,0-1.176.25-1.236,1.734Z" transform="translate(-565.425 -343.991)"/>
      <path class="cls-1" d="M633.427,407.729v-.31l1.4-.109v1.046a1.571,1.571,0,0,1,1.475-1.046,1.179,1.179,0,0,1,1.325.976,1.576,1.576,0,0,1,1.445-.976,1.326,1.326,0,0,1,1.046.369c.309.358.309.667.309,1.524v1.9c.01.3.259.3.777.3v.309c-.339-.01-.857-.03-1.116-.03s-.777.02-1.126.03v-.309c.668,0,.778,0,.778-.448v-2.322c0-.568-.11-1.106-.738-1.106a1.455,1.455,0,0,0-1.345,1.594v1.834c0,.448.109.448.777.448v.309c-.338-.01-.857-.03-1.116-.03s-.777.02-1.126.03v-.309c.668,0,.778,0,.778-.448v-2.322c0-.568-.11-1.106-.738-1.106a1.455,1.455,0,0,0-1.345,1.594v1.834c0,.448.109.448.777.448v.309c-.338-.01-.857-.03-1.116-.03s-.777.02-1.126.03v-.309c.668,0,.778,0,.778-.448v-2.671C634.205,407.8,634.125,407.729,633.427,407.729Z" transform="translate(-565.425 -343.991)"/>
    </g>
    <polygon class="cls-2" points="35.433 65.3 35.433 51.127 85.039 51.127 85.039 79.473 35.433 79.473 35.433 65.3"/>
    <g>
      <path class="cls-1" d="M716.537,397.83a3.271,3.271,0,0,1,3.05,3.458,3.2,3.2,0,0,1-3.05,3.348h-3.646v-.309h.239c.767,0,.787-.11.787-.469v-5.251c0-.358-.02-.467-.787-.467h-.239v-.31Zm-.268,6.5a2.182,2.182,0,0,0,1.773-.848,3.419,3.419,0,0,0,.548-2.191,3.861,3.861,0,0,0-.518-2.223,2.149,2.149,0,0,0-1.813-.925h-1c-.468,0-.488.069-.488.4v5.391c0,.328.02.4.488.4Z" transform="translate(-565.425 -343.991)"/>
      <path class="cls-1" d="M721.519,403.829a1.34,1.34,0,0,0,1.126.667,1.4,1.4,0,0,0,1.344-1.026c.02-.079.04-.14.13-.14a.116.116,0,0,1,.129.12,1.7,1.7,0,0,1-1.664,1.3,2.248,2.248,0,0,1-2.191-2.3,2.177,2.177,0,0,1,2.072-2.271,1.767,1.767,0,0,1,1.783,1.953c0,.209-.029.209-.249.209H721.22A2.9,2.9,0,0,0,721.519,403.829Zm2.072-1.7c0-.389-.1-1.734-1.126-1.734-.339,0-1.176.25-1.236,1.734Z" transform="translate(-565.425 -343.991)"/>
      <path class="cls-1" d="M726.271,403.879c0,.448.109.448.777.448v.309c-.369-.01-.858-.031-1.107-.031s-.777.021-1.105.031v-.309c.667,0,.777,0,.777-.448V398.7c0-.488-.08-.557-.777-.557v-.31l1.435-.109Z" transform="translate(-565.425 -343.991)"/>
      <path class="cls-1" d="M729.249,404.745c-.628,0-1.594-.249-1.594-1.056a1.451,1.451,0,0,1,1-1.3,4.854,4.854,0,0,1,1.833-.359v-.369a1.127,1.127,0,0,0-1.055-1.275,1.4,1.4,0,0,0-1.076.459.45.45,0,0,1,.507.458.459.459,0,1,1-.917-.01c0-.657.688-1.126,1.5-1.126a1.9,1.9,0,0,1,1.365.548,1.474,1.474,0,0,1,.359,1.176v1.993c0,.049.04.5.369.5.109,0,.358-.06.358-.638v-.558h.249v.558a.845.845,0,0,1-.817.946.832.832,0,0,1-.776-.816A1.38,1.38,0,0,1,729.249,404.745Zm-.827-1.066a.858.858,0,0,0,.9.847,1.2,1.2,0,0,0,1.166-1.285v-1C728.841,402.3,728.422,403.131,728.422,403.679Z" transform="translate(-565.425 -343.991)"/>
    </g>
    <path class="cls-1" d="M734.486,405.542c-.239.568-.648,1.137-1.275,1.137a.871.871,0,0,1-.917-.808.419.419,0,1,1,.448.409.681.681,0,0,0,.469.179c.638,0,.916-.688,1.136-1.235.059-.13.2-.458.249-.588L733.1,401c-.14-.349-.329-.349-.807-.349v-.309c.3.02.7.03.967.03.169,0,.826-.019,1.086-.03v.309c-.19,0-.559,0-.559.259a.6.6,0,0,0,.061.18l1.1,2.68,1.007-2.452a.464.464,0,0,0,.06-.239c0-.249-.16-.418-.469-.428v-.309c.219.011.687.03.867.03.229,0,.519-.01.747-.03v.309a.94.94,0,0,0-.927.638Z" transform="translate(-565.425 -343.991)"/>
    <g>
      <path class="cls-1" d="M715.863,414.388a2.192,2.192,0,0,1,2.113,2.252,2.245,2.245,0,0,1-2.222,2.261,1.57,1.57,0,0,1-1.306-.727c-.269.469-.348.608-.358.618h-.249v-5.938c0-.489-.08-.558-.778-.558v-.31l1.435-.109v3.158A1.771,1.771,0,0,1,715.863,414.388Zm-1.2,3.686a1.233,1.233,0,0,0,1.047.609,1.371,1.371,0,0,0,1.126-.638,3.433,3.433,0,0,0,.019-2.8,1.237,1.237,0,0,0-1.046-.638,1.437,1.437,0,0,0-1.175.638.433.433,0,0,0-.11.359v2.052A.544.544,0,0,0,714.667,418.074Z" transform="translate(-565.425 -343.991)"/>
      <path class="cls-1" d="M720.437,419.7c-.24.569-.649,1.137-1.276,1.137a.871.871,0,0,1-.917-.808.419.419,0,1,1,.448.41.684.684,0,0,0,.469.178c.638,0,.916-.687,1.136-1.235.059-.13.2-.458.249-.588l-1.5-3.637c-.14-.348-.328-.348-.807-.348v-.31c.3.021.7.03.967.03.169,0,.826-.019,1.086-.03v.31c-.19,0-.559,0-.559.258a.593.593,0,0,0,.061.18l1.105,2.68,1.007-2.451a.469.469,0,0,0,.06-.24c0-.249-.159-.418-.469-.427v-.31c.22.011.687.03.867.03.23,0,.519-.009.747-.03v.31a.938.938,0,0,0-.927.637Z" transform="translate(-565.425 -343.991)"/>
    </g>
    <path class="cls-1" d="M728.036,415.9a3.22,3.22,0,0,0,.159-.837c0-.329-.109-.458-.308-.458-.36,0-.559.478-.728,1.186-.059.219-.07.229-.17.229-.019,0-.119,0-.119-.1a5.058,5.058,0,0,1,.3-.967.869.869,0,0,1,.747-.568.9.9,0,0,1,.917.867,1.922,1.922,0,0,1,1.555-.867,1.018,1.018,0,0,1,1.145,1.066,9.024,9.024,0,0,1-.607,2.192,1.893,1.893,0,0,0-.18.708c0,.229.069.329.239.329.489,0,.817-.559,1.016-1.236.051-.149.051-.179.15-.179.03,0,.12,0,.12.1,0,.08-.37,1.534-1.306,1.534a.8.8,0,0,1-.817-.816,1.133,1.133,0,0,1,.1-.459,9.5,9.5,0,0,0,.648-2.321c0-.329-.09-.7-.539-.7a1.985,1.985,0,0,0-1.624,1.215c-.009.04-.089.329-.129.5-.05.229-.11.449-.169.667l-.22.9c-.06.249-.179.717-.19.737a.405.405,0,0,1-.368.278.266.266,0,0,1-.289-.268c0-.05.06-.279.09-.429Z" transform="translate(-565.425 -343.991)"/>
    <path class="cls-1" d="M734.569,420.369c-1.618,0-1.618-1.862-1.618-2.364s0-2.4,1.618-2.4a1.446,1.446,0,0,1,1.206.6,3.1,3.1,0,0,1,.413,1.806C736.188,418.507,736.188,420.369,734.569,420.369Zm.893-.983a7.594,7.594,0,0,0,.091-1.472,5.649,5.649,0,0,0-.119-1.485.9.9,0,0,0-1.744.063,6,6,0,0,0-.1,1.422,7.2,7.2,0,0,0,.1,1.5.9.9,0,0,0,1.778-.028Z" transform="translate(-565.425 -343.991)"/>
    <polygon class="cls-2" points="134.645 65.3 134.645 51.127 184.251 51.127 184.251 79.473 134.645 79.473 134.645 65.3"/>
    <polyline points="30.897 67.568 35.433 65.3 30.897 63.033 32.031 65.3"/>
    <line class="cls-2" x1="14.173" y1="65.3" x2="32.031" y2="65.3"/>
    <polyline points="130.11 67.568 134.645 65.3 130.11 63.033 131.243 65.3"/>
    <line class="cls-2" x1="85.039" y1="65.3" x2="131.243" y2="65.3"/>
    <polyline points="215.148 67.568 219.684 65.3 215.148 63.033 216.282 65.3"/>
    <path class="cls-2" d="M749.676,409.291h32.031m-202.109,0V359.685" transform="translate(-565.425 -343.991)"/>
    <path class="cls-1" d="M670.834,401.153a2.629,2.629,0,0,1-2.332,2.034.943.943,0,0,1-1.056-.868.574.574,0,0,1,.558-.647.34.34,0,0,1,.369.349.541.541,0,0,1-.2.408.569.569,0,0,1-.429.12.8.8,0,0,0,.757.418,1.427,1.427,0,0,0,1.1-.628,3.817,3.817,0,0,0,.647-1.534,1.407,1.407,0,0,1-1.006.448,1.111,1.111,0,0,1-1.216-1.186,6.6,6.6,0,0,1,.578-2.092,2.1,2.1,0,0,0,.169-.7c0-.318-.169-.318-.249-.318-.338,0-.737.3-1.006,1.235-.05.16-.059.18-.159.18-.02,0-.12,0-.12-.1s.369-1.535,1.315-1.535a.791.791,0,0,1,.818.818,1.8,1.8,0,0,1-.2.717,5.959,5.959,0,0,0-.508,1.953c0,.369.109.807.618.807a1.385,1.385,0,0,0,1.126-.847l.448-1.793c.06-.27.13-.539.2-.8.04-.18.12-.489.14-.538a.433.433,0,0,1,.349-.21.266.266,0,0,1,.289.269.629.629,0,0,1-.04.23Z" transform="translate(-565.425 -343.991)"/>
    <path class="cls-1" d="M673.405,403.635v-9.964h1.366v.4H673.8v9.167h.967v.4Z" transform="translate(-565.425 -343.991)"/>
    <path class="cls-1" d="M676.442,398.254a3.2,3.2,0,0,0,.16-.837c0-.329-.11-.458-.31-.458-.358,0-.558.478-.727,1.186-.06.218-.069.229-.169.229-.02,0-.12,0-.12-.1a5.035,5.035,0,0,1,.3-.966.87.87,0,0,1,.747-.569.9.9,0,0,1,.917.867,1.928,1.928,0,0,1,1.554-.867,1.018,1.018,0,0,1,1.146,1.067,8.979,8.979,0,0,1-.607,2.192,1.893,1.893,0,0,0-.18.707c0,.23.07.329.24.329.487,0,.816-.558,1.016-1.235.05-.15.05-.18.149-.18.03,0,.12,0,.12.1,0,.08-.369,1.534-1.305,1.534a.8.8,0,0,1-.818-.816,1.13,1.13,0,0,1,.1-.459,9.506,9.506,0,0,0,.648-2.322c0-.329-.09-.7-.538-.7a1.98,1.98,0,0,0-1.624,1.215c-.011.04-.09.329-.13.5-.05.228-.11.448-.169.667l-.219.9c-.06.249-.18.717-.19.738a.407.407,0,0,1-.369.278.267.267,0,0,1-.289-.269c0-.049.06-.279.09-.428Z" transform="translate(-565.425 -343.991)"/>
    <path class="cls-1" d="M682.563,403.635H681.2v-.4h.966v-9.167H681.2v-.4h1.364Z" transform="translate(-565.425 -343.991)"/>
    <path class="cls-1" d="M758.67,401.153a2.628,2.628,0,0,1-2.331,2.034.944.944,0,0,1-1.057-.868.574.574,0,0,1,.559-.647.34.34,0,0,1,.368.349.541.541,0,0,1-.2.408.569.569,0,0,1-.429.12.8.8,0,0,0,.758.418,1.427,1.427,0,0,0,1.1-.628,3.817,3.817,0,0,0,.647-1.534,1.4,1.4,0,0,1-1.006.448,1.111,1.111,0,0,1-1.216-1.186,6.6,6.6,0,0,1,.578-2.092,2.1,2.1,0,0,0,.169-.7c0-.318-.169-.318-.249-.318-.338,0-.737.3-1,1.235-.05.16-.061.18-.161.18-.019,0-.119,0-.119-.1s.368-1.535,1.316-1.535a.79.79,0,0,1,.816.818,1.789,1.789,0,0,1-.2.717,5.934,5.934,0,0,0-.508,1.953c0,.369.109.807.618.807a1.383,1.383,0,0,0,1.125-.847l.449-1.793c.06-.27.129-.539.2-.8.039-.18.119-.489.139-.538a.432.432,0,0,1,.349-.21.266.266,0,0,1,.289.269.629.629,0,0,1-.04.23Z" transform="translate(-565.425 -343.991)"/>
    <path class="cls-1" d="M761.241,403.635v-9.964h1.365v.4h-.966v9.167h.966v.4Z" transform="translate(-565.425 -343.991)"/>
    <path class="cls-1" d="M764.278,398.254a3.246,3.246,0,0,0,.16-.837c0-.329-.11-.458-.309-.458-.359,0-.559.478-.728,1.186-.059.218-.07.229-.17.229-.019,0-.119,0-.119-.1a5.035,5.035,0,0,1,.3-.966.87.87,0,0,1,.747-.569.9.9,0,0,1,.917.867,1.925,1.925,0,0,1,1.555-.867,1.018,1.018,0,0,1,1.145,1.067,9.024,9.024,0,0,1-.607,2.192,1.893,1.893,0,0,0-.18.707c0,.23.07.329.24.329.488,0,.816-.558,1.015-1.235.051-.15.051-.18.151-.18.029,0,.119,0,.119.1,0,.08-.369,1.534-1.306,1.534a.8.8,0,0,1-.816-.816,1.124,1.124,0,0,1,.1-.459,9.506,9.506,0,0,0,.648-2.322c0-.329-.09-.7-.538-.7a1.98,1.98,0,0,0-1.624,1.215c-.01.04-.09.329-.13.5-.05.228-.11.448-.169.667l-.22.9c-.06.249-.179.717-.189.738a.407.407,0,0,1-.369.278.267.267,0,0,1-.289-.269c0-.049.06-.279.09-.428Z" transform="translate(-565.425 -343.991)"/>
    <path class="cls-1" d="M772.155,398.852c-.169,0-.348,0-.348-.2s.179-.2.348-.2h5.391c.169,0,.349,0,.349.2s-.18.2-.349.2Z" transform="translate(-565.425 -343.991)"/>
    <path class="cls-1" d="M782.4,398.254a3.273,3.273,0,0,0,.159-.837c0-.329-.11-.458-.309-.458-.359,0-.558.478-.727,1.186-.06.218-.071.229-.17.229-.02,0-.12,0-.12-.1a5.035,5.035,0,0,1,.3-.966.87.87,0,0,1,.747-.569.9.9,0,0,1,.917.867,1.926,1.926,0,0,1,1.555-.867,1.019,1.019,0,0,1,1.146,1.067,8.982,8.982,0,0,1-.608,2.192,1.893,1.893,0,0,0-.18.707c0,.23.07.329.24.329.488,0,.816-.558,1.015-1.235.051-.15.051-.18.151-.18.029,0,.119,0,.119.1,0,.08-.369,1.534-1.306,1.534a.8.8,0,0,1-.816-.816,1.142,1.142,0,0,1,.1-.459,9.462,9.462,0,0,0,.648-2.322c0-.329-.09-.7-.538-.7a1.982,1.982,0,0,0-1.624,1.215c-.01.04-.09.329-.13.5-.05.228-.109.448-.169.667l-.22.9c-.059.249-.178.717-.189.738a.406.406,0,0,1-.368.278.266.266,0,0,1-.289-.269c0-.049.059-.279.089-.428Z" transform="translate(-565.425 -343.991)"/>
    <path class="cls-1" d="M788.929,402.729c-1.618,0-1.618-1.863-1.618-2.365s0-2.4,1.618-2.4a1.447,1.447,0,0,1,1.206.6,3.1,3.1,0,0,1,.412,1.8C790.547,400.866,790.547,402.729,788.929,402.729Zm.892-.984a7.589,7.589,0,0,0,.091-1.472,5.649,5.649,0,0,0-.119-1.485.9.9,0,0,0-1.743.064,5.935,5.935,0,0,0-.1,1.421,7.2,7.2,0,0,0,.1,1.5.9.9,0,0,0,1.778-.028Z" transform="translate(-565.425 -343.991)"/>
    <path class="cls-1" d="M792.97,403.635H791.6v-.4h.967v-9.167H791.6v-.4h1.366Z" transform="translate(-565.425 -343.991)"/>
  </g>
</svg>
