<svg id="Layer_1" data-name="Layer 1" xmlns="http://www.w3.org/2000/svg" viewBox="0 0 239.006 87.723">
  <defs>
    <style>
      .cls-1 {
        fill: #1d1d1b;
      }

      .cls-2 {
        fill: blue;
      }

      .cls-3, .cls-5 {
        fill: none;
        stroke: #000;
        stroke-miterlimit: 10;
      }

      .cls-3 {
        stroke-width: 0.85px;
      }

      .cls-4 {
        fill: red;
      }

      .cls-5 {
        stroke-linecap: round;
        stroke-width: 0.567px;
        stroke-dasharray: 0 3.732;
      }
    </style>
  </defs>
  <title>transpose2ndord</title>
  <g>
    <path class="cls-1" d="M638.519,372.9a1.712,1.712,0,0,1,1.166-.6,1.422,1.422,0,0,1,1.325,1.6c0,1.435-1.225,2.919-2.4,2.919-.737,0-1.266-.618-1.266-1.564a3.6,3.6,0,0,1,.16-1.006l.817-3.249c.05-.209.139-.548.139-.618,0-.1-.02-.169-.5-.169-.149,0-.239,0-.239-.12,0-.179.11-.189.189-.2.259-.02.986-.1,1.216-.1.129,0,.129.1.129.109Zm-.418,1.684a3.462,3.462,0,0,0-.16,1.006c0,.738.329,1.007.668,1.007.389,0,.847-.359,1.176-1.026a7.084,7.084,0,0,0,.507-2.112c0-.638-.269-.937-.627-.937a1.625,1.625,0,0,0-1.2.8c-.09.109-.09.129-.149.349Z" transform="translate(-562.289 -340.91)"/>
    <path class="cls-1" d="M643.531,377.577c0,.23,0,.321.7.321h.265v.251c-.154-.007-1.033-.028-1.248-.028-.259,0-1.116.021-1.242.028V377.9h.265c.7,0,.7-.091.7-.321v-3.556a2.3,2.3,0,0,1-1.01.195v-.251a1.9,1.9,0,0,0,1.366-.446c.2,0,.209.007.209.195Z" transform="translate(-562.289 -340.91)"/>
    <path class="cls-2" d="M682.976,426.251a1.191,1.191,0,0,1-1.335-1.235,6.094,6.094,0,0,1,.568-2.043,2.068,2.068,0,0,0,.169-.7c0-.318-.169-.318-.249-.318-.289,0-.717.229-1.006,1.235-.05.16-.06.18-.16.18-.02,0-.119,0-.119-.1s.378-1.535,1.315-1.535a.791.791,0,0,1,.817.818,1.216,1.216,0,0,1-.12.5,7.017,7.017,0,0,0-.578,2.112c0,.519.23.867.738.867,1.166,0,1.773-2.282,1.773-2.7a1.066,1.066,0,0,0-.339-.817c-.109-.11-.159-.169-.159-.3a.533.533,0,0,1,.488-.479c.18,0,.439.159.439.7C685.218,422.953,684.649,426.251,682.976,426.251Z" transform="translate(-562.289 -340.91)"/>
    <path class="cls-2" d="M687.7,427.007c0,.23,0,.321.7.321h.265v.251c-.154-.007-1.032-.028-1.249-.028-.258,0-1.115.021-1.241.028v-.251h.266c.7,0,.7-.091.7-.321v-3.556a2.3,2.3,0,0,1-1.012.195v-.25a1.906,1.906,0,0,0,1.367-.447c.2,0,.209.007.209.2Z" transform="translate(-562.289 -340.91)"/>
    <path class="cls-2" d="M690.973,428.633v-9.964h1.365v.4h-.967v9.167h.967v.4Z" transform="translate(-562.289 -340.91)"/>
    <path class="cls-2" d="M694.01,423.252a3.227,3.227,0,0,0,.159-.837c0-.329-.109-.458-.309-.458-.359,0-.558.478-.727,1.186-.06.218-.07.229-.17.229-.02,0-.119,0-.119-.1a4.981,4.981,0,0,1,.3-.966.869.869,0,0,1,.747-.569.9.9,0,0,1,.917.867,1.924,1.924,0,0,1,1.554-.867,1.019,1.019,0,0,1,1.146,1.067A8.982,8.982,0,0,1,696.9,425a1.911,1.911,0,0,0-.179.707c0,.23.069.329.239.329.488,0,.816-.558,1.016-1.235.05-.15.05-.18.15-.18.029,0,.119,0,.119.1,0,.08-.369,1.534-1.306,1.534a.8.8,0,0,1-.816-.816,1.13,1.13,0,0,1,.1-.459,9.507,9.507,0,0,0,.647-2.322c0-.329-.09-.7-.538-.7a1.982,1.982,0,0,0-1.624,1.215c-.01.04-.09.329-.13.5-.05.228-.109.448-.169.667l-.22.9c-.059.249-.178.717-.189.738a.405.405,0,0,1-.368.278.266.266,0,0,1-.289-.269c0-.049.059-.279.09-.428Z" transform="translate(-562.289 -340.91)"/>
    <path class="cls-2" d="M700.139,428.633h-1.366v-.4h.967v-9.167h-.967v-.4h1.366Z" transform="translate(-562.289 -340.91)"/>
    <path class="cls-1" d="M564.989,346.739a3.86,3.86,0,0,0-.169.877c0,.339.159.658.548.658.319,0,1-.239,1.325-1.306.02-.07.04-.109.13-.109.03,0,.119,0,.119.1,0,.25-.568,1.535-1.594,1.535a1.1,1.1,0,0,1-1.076-.757,1.326,1.326,0,0,1-1.046.757c-.439,0-.937-.2-.937-.658a.567.567,0,0,1,.548-.578.342.342,0,0,1,.369.349.565.565,0,0,1-.469.538.958.958,0,0,0,.5.13c.439,0,.787-.419.947-1.037a14.471,14.471,0,0,0,.538-2.371c0-.578-.348-.668-.538-.668-.339,0-1,.25-1.335,1.306-.02.089-.05.109-.13.109-.02,0-.119,0-.119-.1,0-.249.568-1.535,1.6-1.535a1.1,1.1,0,0,1,1.076.757,1.291,1.291,0,0,1,1.046-.757c.339,0,.927.14.927.658a.556.556,0,0,1-.538.578.348.348,0,0,1-.379-.349.58.58,0,0,1,.479-.538.976.976,0,0,0-.5-.13c-.7,0-.926.917-.986,1.176Z" transform="translate(-562.289 -340.91)"/>
    <path class="cls-1" d="M568.809,350.875V340.91h1.365v.4h-.967v9.167h.967v.4Z" transform="translate(-562.289 -340.91)"/>
    <path class="cls-1" d="M571.853,345.494a3.2,3.2,0,0,0,.16-.837c0-.329-.11-.459-.309-.459-.359,0-.558.479-.727,1.186-.06.22-.07.229-.17.229-.02,0-.119,0-.119-.1a5.031,5.031,0,0,1,.3-.967.871.871,0,0,1,.747-.568.9.9,0,0,1,.917.867,1.928,1.928,0,0,1,1.555-.867,1.019,1.019,0,0,1,1.146,1.066,8.982,8.982,0,0,1-.608,2.192,1.9,1.9,0,0,0-.18.708c0,.229.07.329.24.329.488,0,.817-.558,1.016-1.236.05-.149.05-.179.149-.179.03,0,.12,0,.12.1,0,.08-.369,1.535-1.3,1.535a.8.8,0,0,1-.818-.817,1.154,1.154,0,0,1,.1-.459,9.454,9.454,0,0,0,.648-2.321c0-.329-.09-.7-.538-.7a1.981,1.981,0,0,0-1.624,1.216c-.01.04-.09.329-.13.5-.05.23-.109.449-.169.668l-.219.9c-.06.249-.18.717-.19.737a.408.408,0,0,1-.368.279.266.266,0,0,1-.289-.269c0-.05.06-.279.089-.429Z" transform="translate(-562.289 -340.91)"/>
    <path class="cls-1" d="M577.975,350.875H576.61v-.4h.966v-9.167h-.966v-.4h1.365Z" transform="translate(-562.289 -340.91)"/>
    <polyline points="42.56 63.717 47.095 61.449 42.56 59.181 43.693 61.449"/>
    <line class="cls-3" x1="36.465" y1="61.449" x2="43.693" y2="61.449"/>
    <polyline points="25.013 35.569 29.549 33.301 25.013 31.033 26.147 33.301"/>
    <line class="cls-3" x1="15.375" y1="33.301" x2="26.147" y2="33.301"/>
    <polyline points="34.367 21.679 36.635 26.215 38.903 21.679 36.635 22.813"/>
    <path class="cls-3" d="M598.924,345.865v17.858m0,17.745v21.09m7.287-28.253a7.257,7.257,0,1,0-7.256,7.257,7.259,7.259,0,0,0,7.256-7.257Zm-10.83-3.637,7.086,7.087m-7.086,0,7.086-7.087" transform="translate(-562.289 -340.91)"/>
    <path class="cls-1" d="M564.363,373.14a1.71,1.71,0,0,1,1.166-.6,1.421,1.421,0,0,1,1.325,1.594c0,1.435-1.226,2.919-2.4,2.919-.738,0-1.266-.617-1.266-1.564a3.6,3.6,0,0,1,.16-1.006l.817-3.249c.049-.209.139-.548.139-.617,0-.1-.02-.17-.5-.17-.15,0-.239,0-.239-.119,0-.18.109-.189.189-.2.259-.02.986-.1,1.216-.1.129,0,.129.1.129.11Zm-.419,1.683a3.487,3.487,0,0,0-.159,1.007c0,.737.329,1.006.668,1.006.388,0,.846-.358,1.175-1.026a7.046,7.046,0,0,0,.508-2.112c0-.638-.269-.937-.627-.937a1.623,1.623,0,0,0-1.2.8c-.09.109-.09.13-.149.349Z" transform="translate(-562.289 -340.91)"/>
    <path class="cls-1" d="M570.352,378.383h-2.873c0-.195,0-.209.069-.272l1.681-1.659a2.119,2.119,0,0,0,.655-1.339,1.044,1.044,0,0,0-1.06-1.109,1.1,1.1,0,0,0-1.018.649c.363,0,.412.243.412.369a.37.37,0,1,1-.739-.021,1.352,1.352,0,0,1,1.45-1.248,1.46,1.46,0,0,1,1.632,1.36,2.015,2.015,0,0,1-1,1.506c-.418.328-.662.523-1.394,1.172h1.283a3.589,3.589,0,0,0,.69-.042,1.6,1.6,0,0,0,.181-.635h.238Z" transform="translate(-562.289 -340.91)"/>
    <path class="cls-4" d="M590.82,426.251a1.191,1.191,0,0,1-1.336-1.235,6.094,6.094,0,0,1,.568-2.043,2.044,2.044,0,0,0,.17-.7c0-.318-.17-.318-.249-.318-.289,0-.718.229-1.007,1.235-.049.16-.059.18-.159.18-.02,0-.119,0-.119-.1s.378-1.535,1.314-1.535a.791.791,0,0,1,.818.818,1.216,1.216,0,0,1-.12.5,6.987,6.987,0,0,0-.578,2.112c0,.519.23.867.737.867,1.166,0,1.774-2.282,1.774-2.7a1.07,1.07,0,0,0-.339-.817c-.109-.11-.159-.169-.159-.3a.533.533,0,0,1,.488-.479c.18,0,.439.159.439.7C593.062,422.953,592.494,426.251,590.82,426.251Z" transform="translate(-562.289 -340.91)"/>
    <path class="cls-4" d="M596.508,427.579h-2.873c0-.195,0-.209.07-.271l1.68-1.661a2.119,2.119,0,0,0,.656-1.338,1.044,1.044,0,0,0-1.061-1.109,1.1,1.1,0,0,0-1.018.649c.363,0,.412.244.412.369a.37.37,0,1,1-.739-.021,1.352,1.352,0,0,1,1.45-1.248,1.46,1.46,0,0,1,1.632,1.36,2.015,2.015,0,0,1-1,1.5c-.419.329-.663.524-1.395,1.172h1.283a3.578,3.578,0,0,0,.69-.042,1.591,1.591,0,0,0,.181-.634h.238Z" transform="translate(-562.289 -340.91)"/>
    <path class="cls-4" d="M598.816,428.633v-9.964h1.366v.4h-.967v9.167h.967v.4Z" transform="translate(-562.289 -340.91)"/>
    <path class="cls-4" d="M601.853,423.252a3.2,3.2,0,0,0,.16-.837c0-.329-.11-.458-.309-.458-.359,0-.558.478-.727,1.186-.06.218-.07.229-.17.229-.02,0-.119,0-.119-.1a5.028,5.028,0,0,1,.3-.966.87.87,0,0,1,.747-.569.9.9,0,0,1,.917.867,1.928,1.928,0,0,1,1.555-.867,1.019,1.019,0,0,1,1.146,1.067,8.982,8.982,0,0,1-.608,2.192,1.893,1.893,0,0,0-.18.707c0,.23.07.329.24.329.488,0,.817-.558,1.016-1.235.05-.15.05-.18.149-.18.03,0,.12,0,.12.1,0,.08-.369,1.534-1.3,1.534a.8.8,0,0,1-.818-.816,1.148,1.148,0,0,1,.1-.459,9.462,9.462,0,0,0,.648-2.322c0-.329-.09-.7-.538-.7a1.98,1.98,0,0,0-1.624,1.215c-.01.04-.09.329-.13.5-.05.228-.109.448-.169.667l-.219.9c-.06.249-.18.717-.19.738a.406.406,0,0,1-.368.278.266.266,0,0,1-.289-.269c0-.049.06-.279.089-.428Z" transform="translate(-562.289 -340.91)"/>
    <path class="cls-4" d="M607.975,428.633H606.61v-.4h.966v-9.167h-.966v-.4h1.365Z" transform="translate(-562.289 -340.91)"/>
    <path class="cls-3" d="M680.611,402.265a7.257,7.257,0,1,0-7.256,7.257,7.259,7.259,0,0,0,7.256-7.257Zm-10.821.094h7.087m-3.544,3.543v-7.086" transform="translate(-562.289 -340.91)"/>
    <polyline points="141.772 63.717 146.307 61.449 141.772 59.181 142.905 61.449"/>
    <line class="cls-3" x1="118.131" y1="61.449" x2="142.905" y2="61.449"/>
    <polyline points="99.252 35.172 103.788 32.904 99.252 30.636 100.386 32.904"/>
    <line class="cls-3" x1="89.614" y1="32.904" x2="100.386" y2="32.904"/>
    <polyline points="108.606 21.282 110.874 25.818 113.142 21.282 110.874 22.416"/>
    <line class="cls-3" x1="110.874" y1="4.558" x2="110.874" y2="22.416"/>
    <polyline points="108.606 49.827 110.874 54.362 113.142 49.827 110.874 50.961"/>
    <path class="cls-3" d="M673.163,381.1v10.772m7.328-18.046a7.257,7.257,0,1,0-7.256,7.257,7.259,7.259,0,0,0,7.256-7.257Zm-10.871-3.554,7.086,7.087m-7.086,0,7.086-7.087" transform="translate(-562.289 -340.91)"/>
    <polyline points="99.268 63.55 103.788 61.25 99.236 59.015 100.386 61.274"/>
    <path class="cls-3" d="M637.73,402.359l24.945-.174m-78.094-56.518,170.078-.057" transform="translate(-562.289 -340.91)"/>
    <path class="cls-1" d="M789.565,404.8a2.626,2.626,0,0,1-2.331,2.033.942.942,0,0,1-1.056-.867.575.575,0,0,1,.558-.648.339.339,0,0,1,.368.349.538.538,0,0,1-.2.408.566.566,0,0,1-.428.12.8.8,0,0,0,.757.418,1.427,1.427,0,0,0,1.1-.628,3.8,3.8,0,0,0,.648-1.534,1.407,1.407,0,0,1-1.006.448,1.111,1.111,0,0,1-1.216-1.185,6.6,6.6,0,0,1,.578-2.093,2.117,2.117,0,0,0,.169-.7c0-.319-.169-.319-.249-.319-.339,0-.737.3-1.006,1.236-.05.159-.06.18-.16.18-.02,0-.119,0-.119-.1s.368-1.535,1.315-1.535a.79.79,0,0,1,.817.817,1.782,1.782,0,0,1-.2.718,5.948,5.948,0,0,0-.507,1.952c0,.369.109.808.618.808a1.384,1.384,0,0,0,1.125-.848l.449-1.793c.06-.269.129-.538.2-.8.039-.18.119-.488.14-.538a.434.434,0,0,1,.348-.21.267.267,0,0,1,.29.27.614.614,0,0,1-.041.229Z" transform="translate(-562.289 -340.91)"/>
    <path class="cls-1" d="M792.129,407.281v-9.964h1.365v.4h-.967v9.167h.967v.4Z" transform="translate(-562.289 -340.91)"/>
    <path class="cls-1" d="M795.166,401.9a3.22,3.22,0,0,0,.159-.837c0-.329-.109-.458-.308-.458-.36,0-.559.478-.728,1.186-.06.219-.07.23-.17.23-.019,0-.119,0-.119-.1a5.058,5.058,0,0,1,.3-.967.868.868,0,0,1,.747-.568.9.9,0,0,1,.917.867,1.922,1.922,0,0,1,1.555-.867,1.018,1.018,0,0,1,1.145,1.066,9.032,9.032,0,0,1-.607,2.193,1.888,1.888,0,0,0-.18.707c0,.229.069.329.239.329.489,0,.817-.559,1.016-1.236.051-.149.051-.179.15-.179.03,0,.119,0,.119.1,0,.08-.369,1.534-1.3,1.534a.8.8,0,0,1-.817-.816,1.136,1.136,0,0,1,.1-.459,9.5,9.5,0,0,0,.647-2.321c0-.329-.089-.7-.538-.7a1.985,1.985,0,0,0-1.624,1.215c-.009.04-.09.329-.13.5-.049.229-.109.449-.169.667l-.219.9c-.06.249-.179.717-.19.737a.405.405,0,0,1-.368.278.266.266,0,0,1-.289-.268c0-.05.06-.279.09-.429Z" transform="translate(-562.289 -340.91)"/>
    <path class="cls-1" d="M801.3,407.281H799.93v-.4h.966v-9.167h-.966v-.4H801.3Z" transform="translate(-562.289 -340.91)"/>
    <path class="cls-3" d="M762.331,402.145a7.257,7.257,0,1,0-7.256,7.257,7.259,7.259,0,0,0,7.256-7.257Zm-10.875.157h7.086M755,405.846v-7.087" transform="translate(-562.289 -340.91)"/>
    <polyline points="216.521 63.66 221.056 61.392 216.521 59.125 217.655 61.392"/>
    <line class="cls-3" x1="199.796" y1="61.392" x2="217.655" y2="61.392"/>
    <path class="cls-1" d="M720.363,372.9a1.71,1.71,0,0,1,1.165-.6,1.422,1.422,0,0,1,1.326,1.6c0,1.435-1.226,2.919-2.4,2.919-.737,0-1.264-.618-1.264-1.564a3.594,3.594,0,0,1,.159-1.006l.816-3.249c.05-.209.14-.548.14-.618,0-.1-.02-.169-.5-.169-.15,0-.24,0-.24-.12,0-.179.111-.189.19-.2.259-.02.986-.1,1.216-.1.13,0,.13.1.13.109Zm-.419,1.684a3.482,3.482,0,0,0-.159,1.006c0,.738.328,1.007.667,1.007.389,0,.848-.359,1.176-1.026a7.053,7.053,0,0,0,.509-2.112c0-.638-.27-.937-.628-.937a1.623,1.623,0,0,0-1.2.8c-.089.109-.089.129-.15.349Z" transform="translate(-562.289 -340.91)"/>
    <path class="cls-1" d="M725.012,378.289c-1.618,0-1.618-1.862-1.618-2.365s0-2.4,1.618-2.4a1.449,1.449,0,0,1,1.206.6,3.1,3.1,0,0,1,.412,1.806C726.63,376.427,726.63,378.289,725.012,378.289Zm.892-.984a7.583,7.583,0,0,0,.091-1.471,5.641,5.641,0,0,0-.119-1.485.9.9,0,0,0-1.743.062,5.957,5.957,0,0,0-.105,1.423,7.2,7.2,0,0,0,.1,1.5.9.9,0,0,0,1.778-.028Z" transform="translate(-562.289 -340.91)"/>
    <polyline points="180.918 35.484 185.453 33.216 180.918 30.948 182.052 33.216"/>
    <line class="cls-3" x1="171.28" y1="33.216" x2="182.052" y2="33.216"/>
    <polyline points="190.272 21.594 192.54 26.129 194.807 21.594 192.54 22.728"/>
    <line class="cls-3" x1="192.54" y1="4.87" x2="192.54" y2="22.728"/>
    <polyline points="190.272 50.11 192.54 54.646 194.807 50.11 192.54 51.244"/>
    <path class="cls-3" d="M754.829,381.383v10.771m7.262-17.969a7.257,7.257,0,1,0-7.256,7.257,7.259,7.259,0,0,0,7.256-7.257Zm-10.805-3.6,7.086,7.086m-7.086,0,7.086-7.086" transform="translate(-562.289 -340.91)"/>
    <polyline points="180.792 63.746 185.283 61.392 180.706 59.211 181.882 61.457"/>
    <line class="cls-3" x1="174.823" y1="61.591" x2="181.882" y2="61.457"/>
    <polyline points="126.606 71.654 128.591 75.622 130.575 71.654 128.591 72.646"/>
    <line class="cls-5" x1="128.591" y1="72.646" x2="128.591" y2="61.449"/>
    <polyline points="38.024 71.654 40.008 75.622 41.993 71.654 40.008 72.646"/>
    <line class="cls-5" x1="40.008" y1="72.646" x2="40.008" y2="61.449"/>
    <path class="cls-1" d="M722.125,404.986a.872.872,0,0,0-.04.209c0,.159.08.19.368.219.26.021.389.021.638.021s.339,0,.339.109c0,.2-.119.2-.219.2-.279,0-.578-.019-.867-.019-.269,0-.548-.011-.827-.011s-.568.011-.847.011-.548.019-.817.019c-.06,0-.169,0-.169-.119,0-.189.059-.189.418-.189,1.066,0,1.1-.111,1.186-.479l1.335-5.321a.982.982,0,0,0,.04-.209c0-.079,0-.119-.279-.119H722c-1.474,0-1.733.178-2.271,1.723-.06.159-.071.209-.17.209a.112.112,0,0,1-.119-.109,1.3,1.3,0,0,1,.059-.18l.6-1.753c.07-.189.08-.2.319-.2h5.53c.169,0,.269,0,.269.11a1.1,1.1,0,0,1-.02.169l-.269,1.735c-.02.149-.04.228-.15.228a.116.116,0,0,1-.119-.129,1.441,1.441,0,0,1,.03-.189,7.383,7.383,0,0,0,.08-.8c0-.776-.449-.816-1.455-.816a5.713,5.713,0,0,0-.628.019c-.119.03-.159.09-.229.369Z" transform="translate(-562.289 -340.91)"/>
    <polygon class="cls-3" points="146.307 61.35 146.307 47.276 174.653 47.276 174.653 75.424 146.307 75.424 146.307 61.35"/>
    <path class="cls-1" d="M622.89,404.986a.893.893,0,0,0-.039.209c0,.159.079.19.368.219.259.021.389.021.638.021s.339,0,.339.109c0,.2-.12.2-.219.2-.28,0-.579-.019-.868-.019-.269,0-.547-.011-.826-.011s-.568.011-.847.011-.548.019-.817.019c-.06,0-.17,0-.17-.119,0-.189.06-.189.419-.189,1.066,0,1.1-.111,1.185-.479l1.336-5.321a1.057,1.057,0,0,0,.039-.209c0-.079,0-.119-.279-.119h-.388c-1.475,0-1.734.178-2.272,1.723-.06.159-.07.209-.169.209a.113.113,0,0,1-.12-.109,1.31,1.31,0,0,1,.06-.18l.6-1.753c.069-.189.08-.2.319-.2h5.53c.169,0,.269,0,.269.11a1.1,1.1,0,0,1-.02.169l-.269,1.735c-.02.149-.04.228-.15.228a.117.117,0,0,1-.12-.129,1.631,1.631,0,0,1,.03-.189,7.383,7.383,0,0,0,.08-.8c0-.776-.448-.816-1.455-.816a5.683,5.683,0,0,0-.627.019c-.12.03-.16.09-.23.369Z" transform="translate(-562.289 -340.91)"/>
    <polygon class="cls-3" points="47.095 61.449 47.095 47.276 75.441 47.276 75.441 75.622 47.095 75.622 47.095 61.449"/>
  </g>
</svg>
