<svg id="Layer_1" data-name="Layer 1" xmlns="http://www.w3.org/2000/svg" xmlns:xlink="http://www.w3.org/1999/xlink" viewBox="0 0 341.859 181.089">
  <defs>
    <style>
      .cls-1, .cls-2, .cls-3, .cls-4, .cls-6, .cls-8 {
        fill: none;
      }

      .cls-2 {
        stroke: #fff;
      }

      .cls-2, .cls-3, .cls-4, .cls-6, .cls-8 {
        stroke-linejoin: round;
      }

      .cls-2, .cls-4 {
        stroke-width: 0.5px;
      }

      .cls-3, .cls-4, .cls-6 {
        stroke: #000;
      }

      .cls-3 {
        stroke-width: 0.333px;
        stroke-dasharray: 0.5 4;
      }

      .cls-5 {
        fill: #1d1d1b;
      }

      .cls-6 {
        stroke-width: 3px;
        stroke-dasharray: 6;
      }

      .cls-7 {
        clip-path: url(#clip-path);
      }

      .cls-8 {
        stroke: blue;
        stroke-width: 2px;
      }

      .cls-9 {
        clip-path: url(#clip-path-2);
      }

      .cls-10 {
        fill: blue;
      }

      .cls-11 {
        clip-path: url(#clip-path-3);
      }

      .cls-12 {
        clip-path: url(#clip-path-4);
      }
    </style>
    <clipPath id="clip-path" transform="translate(-515.893 -243.273)">
      <rect class="cls-1" x="518.5" y="272.25" width="342.25" height="53.667"/>
    </clipPath>
    <clipPath id="clip-path-2" transform="translate(-515.893 -243.273)">
      <rect class="cls-1" x="526.667" y="261.167" width="325.917" height="56.583"/>
    </clipPath>
    <clipPath id="clip-path-3" transform="translate(-515.893 -243.273)">
      <rect class="cls-1" x="518.5" y="368.583" width="342.25" height="51.75"/>
    </clipPath>
    <clipPath id="clip-path-4" transform="translate(-515.893 -243.273)">
      <rect class="cls-1" x="526.667" y="355.667" width="325.917" height="56.5"/>
    </clipPath>
  </defs>
  <title>trendincosine1</title>
  <g>
    <polyline class="cls-2" points="10.774 74.393 10.774 17.893 336.607 17.893 336.607 74.393 10.774 74.393"/>
    <path class="cls-3" d="M526.667,317.667v-56.5m0,0h0m54.25,56.5v-56.5m0,0h0m54.333,56.5v-56.5m0,0h0m54.333,56.5v-56.5m0,0h0m54.25,56.5v-56.5m0,0h0m54.334,56.5v-56.5m0,0h0m54.333,56.5v-56.5m0,0h0m-325.833,56.5H852.5m0,0h0M526.667,298.833H852.5m0,0h0M526.667,280H852.5m0,0h0M526.667,261.167H852.5m0,0h0" transform="translate(-515.893 -243.273)"/>
    <path class="cls-4" d="M526.667,261.167H852.5m-325.833,56.5H852.5m0,0v-56.5m-325.833,56.5v-56.5m0,56.5H852.5m-325.833,0v-56.5m0,56.5v-3.334m0-53.166v3.25" transform="translate(-515.893 -243.273)"/>
    <g>
      <path class="cls-5" d="M515.893,326.864h4.726v.738h-4.726Z" transform="translate(-515.893 -243.273)"/>
      <path class="cls-5" d="M523.832,324.76h-1.645v-.7a1.913,1.913,0,0,0,1.181-.313,1.938,1.938,0,0,0,.679-1.025h.718v7.031h-.933Z" transform="translate(-515.893 -243.273)"/>
      <path class="cls-5" d="M527.736,329a6,6,0,0,1,0-5.344,2.162,2.162,0,0,1,3.567,0,6.024,6.024,0,0,1,0,5.344,2.166,2.166,0,0,1-3.567,0Zm2.893-.557a6.3,6.3,0,0,0,0-4.231,1.193,1.193,0,0,0-1.113-.7,1.179,1.179,0,0,0-1.1.7,6.217,6.217,0,0,0,0,4.231,1.178,1.178,0,0,0,1.1.7A1.193,1.193,0,0,0,530.629,328.446Z" transform="translate(-515.893 -243.273)"/>
    </g>
    <path class="cls-4" d="M580.917,317.667v-3.334m0-53.166v3.25" transform="translate(-515.893 -243.273)"/>
    <path class="cls-5" d="M579.163,329a6,6,0,0,1,0-5.344,2.161,2.161,0,0,1,3.566,0,6.024,6.024,0,0,1,0,5.344,2.165,2.165,0,0,1-3.566,0Zm2.893-.557a6.3,6.3,0,0,0,0-4.231,1.193,1.193,0,0,0-1.114-.7,1.178,1.178,0,0,0-1.1.7,6.217,6.217,0,0,0,0,4.231,1.178,1.178,0,0,0,1.1.7A1.193,1.193,0,0,0,582.056,328.446Z" transform="translate(-515.893 -243.273)"/>
    <path class="cls-4" d="M635.25,317.667v-3.334m0-53.166v3.25" transform="translate(-515.893 -243.273)"/>
    <g>
      <path class="cls-5" d="M632.406,324.76h-1.645v-.7a1.724,1.724,0,0,0,1.86-1.338h.718v7.031h-.933Z" transform="translate(-515.893 -243.273)"/>
      <path class="cls-5" d="M636.31,329a6.007,6.007,0,0,1,0-5.344,2.162,2.162,0,0,1,3.567,0,6.024,6.024,0,0,1,0,5.344,2.166,2.166,0,0,1-3.567,0Zm2.893-.557a6.3,6.3,0,0,0,0-4.231,1.192,1.192,0,0,0-1.113-.7,1.179,1.179,0,0,0-1.1.7,6.217,6.217,0,0,0,0,4.231,1.178,1.178,0,0,0,1.1.7A1.192,1.192,0,0,0,639.2,328.446Z" transform="translate(-515.893 -243.273)"/>
    </g>
    <path class="cls-4" d="M689.583,317.667v-3.334m0-53.166v3.25" transform="translate(-515.893 -243.273)"/>
    <g>
      <path class="cls-5" d="M689.159,324.789a2,2,0,0,1-.4,1.277,5.149,5.149,0,0,1-1.5,1.106,5.589,5.589,0,0,0-1.626,1.2,2.189,2.189,0,0,0-.3.528h3.818v.854h-4.814a2.853,2.853,0,0,1,.551-1.813,6.9,6.9,0,0,1,2.071-1.54,3.439,3.439,0,0,0,1.006-.753,1.393,1.393,0,0,0,.268-.881,1.181,1.181,0,0,0-.4-.92,1.484,1.484,0,0,0-1.026-.357,1.268,1.268,0,0,0-1.028.449,2.032,2.032,0,0,0-.4,1.27h-.855a2.453,2.453,0,0,1,.62-1.824,2.365,2.365,0,0,1,1.783-.661,2.26,2.26,0,0,1,1.6.581A1.941,1.941,0,0,1,689.159,324.789Z" transform="translate(-515.893 -243.273)"/>
      <path class="cls-5" d="M690.646,329a6.007,6.007,0,0,1,0-5.344,2.162,2.162,0,0,1,3.567,0,6.024,6.024,0,0,1,0,5.344,2.166,2.166,0,0,1-3.567,0Zm2.893-.557a6.3,6.3,0,0,0,0-4.231,1.224,1.224,0,0,0-2.217,0,6.217,6.217,0,0,0,0,4.231,1.225,1.225,0,0,0,2.217,0Z" transform="translate(-515.893 -243.273)"/>
    </g>
    <path class="cls-4" d="M743.833,317.667v-3.334m0-53.166v3.25" transform="translate(-515.893 -243.273)"/>
    <g>
      <path class="cls-5" d="M742.391,324.63a1.013,1.013,0,0,0-.379-.815,1.463,1.463,0,0,0-.969-.315,1.2,1.2,0,0,0-.957.383,1.833,1.833,0,0,0-.366,1.145h-.855a2.371,2.371,0,0,1,.578-1.706,2.168,2.168,0,0,1,1.639-.6,2.472,2.472,0,0,1,1.613.5,1.723,1.723,0,0,1,0,2.639,1.763,1.763,0,0,1-.254.176,2.047,2.047,0,0,1,.45.269,1.683,1.683,0,0,1,.659,1.4,2.09,2.09,0,0,1-.684,1.614,2.921,2.921,0,0,1-3.54.059,2.461,2.461,0,0,1-.654-1.741h.918a1.87,1.87,0,0,0,.435,1.174,1.809,1.809,0,0,0,2.176-.019,1.229,1.229,0,0,0,.416-.96,1.251,1.251,0,0,0-.4-.976,1.408,1.408,0,0,0-.879-.352q-.249-.015-.471-.015a1.406,1.406,0,0,0-.3.02v-.767a1.655,1.655,0,0,0,.332.025,3.293,3.293,0,0,0,.445-.03,1.275,1.275,0,0,0,.688-.278A1.009,1.009,0,0,0,742.391,324.63Z" transform="translate(-515.893 -243.273)"/>
      <path class="cls-5" d="M744.888,329a6.007,6.007,0,0,1,0-5.344,2.162,2.162,0,0,1,3.567,0,6.024,6.024,0,0,1,0,5.344,2.166,2.166,0,0,1-3.567,0Zm2.893-.557a6.3,6.3,0,0,0,0-4.231,1.224,1.224,0,0,0-2.217,0,6.217,6.217,0,0,0,0,4.231,1.225,1.225,0,0,0,2.217,0Z" transform="translate(-515.893 -243.273)"/>
    </g>
    <path class="cls-4" d="M798.167,317.667v-3.334m0-53.166v3.25" transform="translate(-515.893 -243.273)"/>
    <g>
      <path class="cls-5" d="M792.913,328.065v-.82l3.252-4.526h.732v4.594h1v.752h-1v1.685h-.883v-1.685Zm3.1-.752v-3.2l-2.242,3.136-.048.068Z" transform="translate(-515.893 -243.273)"/>
      <path class="cls-5" d="M799.224,329a6.007,6.007,0,0,1,0-5.344,2.162,2.162,0,0,1,3.567,0,6.024,6.024,0,0,1,0,5.344,2.166,2.166,0,0,1-3.567,0Zm2.893-.557a6.3,6.3,0,0,0,0-4.231,1.224,1.224,0,0,0-2.217,0,6.217,6.217,0,0,0,0,4.231,1.225,1.225,0,0,0,2.217,0Z" transform="translate(-515.893 -243.273)"/>
    </g>
    <path class="cls-4" d="M852.5,317.667v-3.334m0-53.166v3.25" transform="translate(-515.893 -243.273)"/>
    <g>
      <path class="cls-5" d="M852.142,327.489a2.408,2.408,0,0,1-.677,1.765,2.328,2.328,0,0,1-1.736.686,2.577,2.577,0,0,1-1.694-.527,2,2,0,0,1-.713-1.455h.918a1.315,1.315,0,0,0,.473.906,1.644,1.644,0,0,0,1.058.32,1.332,1.332,0,0,0,1.036-.445,1.637,1.637,0,0,0,.4-1.142,1.6,1.6,0,0,0-.42-1.165,1.513,1.513,0,0,0-1.138-.432,1.631,1.631,0,0,0-.749.186,1.369,1.369,0,0,0-.549.473l-.743-.049.508-3.75h3.643v.855h-2.985l-.3,1.924.029-.02a2.132,2.132,0,0,1,1.228-.4,2.47,2.47,0,0,1,1.763.615A2.159,2.159,0,0,1,852.142,327.489Z" transform="translate(-515.893 -243.273)"/>
      <path class="cls-5" d="M853.56,329a6.007,6.007,0,0,1,0-5.344,2.162,2.162,0,0,1,3.567,0,6.024,6.024,0,0,1,0,5.344,2.166,2.166,0,0,1-3.567,0Zm2.893-.557a6.3,6.3,0,0,0,0-4.231,1.224,1.224,0,0,0-2.217,0,6.217,6.217,0,0,0,0,4.231,1.225,1.225,0,0,0,2.217,0Z" transform="translate(-515.893 -243.273)"/>
    </g>
    <path class="cls-4" d="M526.667,317.667h3.25m322.583,0h-3.333" transform="translate(-515.893 -243.273)"/>
    <path class="cls-5" d="M519.249,320.581a6,6,0,0,1,0-5.344,2.161,2.161,0,0,1,3.566,0,6.024,6.024,0,0,1,0,5.344,2.164,2.164,0,0,1-3.566,0Zm2.893-.557a6.3,6.3,0,0,0,0-4.231,1.193,1.193,0,0,0-1.114-.7,1.178,1.178,0,0,0-1.1.7,6.217,6.217,0,0,0,0,4.231,1.179,1.179,0,0,0,1.1.7A1.194,1.194,0,0,0,522.142,320.024Z" transform="translate(-515.893 -243.273)"/>
    <path class="cls-4" d="M526.667,298.833h3.25m322.583,0h-3.333" transform="translate(-515.893 -243.273)"/>
    <path class="cls-5" d="M520.906,297.51h-1.645v-.7a1.724,1.724,0,0,0,1.86-1.338h.718V302.5h-.933Z" transform="translate(-515.893 -243.273)"/>
    <path class="cls-4" d="M526.667,280h3.25M852.5,280h-3.333" transform="translate(-515.893 -243.273)"/>
    <path class="cls-5" d="M523.323,278.7a1.99,1.99,0,0,1-.4,1.277,5.127,5.127,0,0,1-1.5,1.106,5.56,5.56,0,0,0-1.626,1.2,2.156,2.156,0,0,0-.3.528h3.818v.854h-4.814a2.853,2.853,0,0,1,.552-1.813,6.875,6.875,0,0,1,2.07-1.54,3.426,3.426,0,0,0,1.006-.753,1.387,1.387,0,0,0,.268-.881,1.178,1.178,0,0,0-.4-.92,1.489,1.489,0,0,0-1.026-.357,1.265,1.265,0,0,0-1.027.449,2.026,2.026,0,0,0-.4,1.27H518.7a2.453,2.453,0,0,1,.62-1.824,2.369,2.369,0,0,1,1.783-.661,2.26,2.26,0,0,1,1.6.581A1.937,1.937,0,0,1,523.323,278.7Z" transform="translate(-515.893 -243.273)"/>
    <path class="cls-4" d="M526.667,261.167h3.25m322.583,0h-3.333" transform="translate(-515.893 -243.273)"/>
    <path class="cls-5" d="M522.313,259.716a1.013,1.013,0,0,0-.379-.815,1.463,1.463,0,0,0-.969-.315,1.2,1.2,0,0,0-.957.383,1.843,1.843,0,0,0-.366,1.145h-.855a2.363,2.363,0,0,1,.579-1.706,2.161,2.161,0,0,1,1.638-.6,2.477,2.477,0,0,1,1.614.5,1.726,1.726,0,0,1,0,2.639,1.709,1.709,0,0,1-.254.176,2.047,2.047,0,0,1,.45.269,1.683,1.683,0,0,1,.659,1.4,2.092,2.092,0,0,1-.684,1.614,2.921,2.921,0,0,1-3.54.059,2.457,2.457,0,0,1-.654-1.741h.918a1.87,1.87,0,0,0,.435,1.174,1.522,1.522,0,0,0,1.11.354,1.537,1.537,0,0,0,1.067-.373,1.353,1.353,0,0,0,.015-1.936,1.408,1.408,0,0,0-.879-.352q-.249-.015-.471-.015a1.406,1.406,0,0,0-.3.02v-.767a1.648,1.648,0,0,0,.332.025,3.293,3.293,0,0,0,.445-.03,1.282,1.282,0,0,0,.688-.278A1.006,1.006,0,0,0,522.313,259.716Z" transform="translate(-515.893 -243.273)"/>
    <path class="cls-4" d="M526.667,261.167H852.5m-325.833,56.5H852.5m0,0v-56.5m-325.833,56.5v-56.5" transform="translate(-515.893 -243.273)"/>
    <polyline class="cls-6" points="65.024 55.56 70.441 55.31 75.941 55.143 81.357 54.977 86.774 54.727 92.191 54.56 97.607 54.393 103.024 54.143 108.524 53.977 113.941 53.727 119.357 53.56 124.774 53.31 130.191 53.143 135.607 52.893 141.107 52.727 146.524 52.477 151.941 52.227 157.357 52.06 162.774 51.81 168.191 51.56 173.691 51.393 179.107 51.143 184.524 50.893 189.941 50.643 195.357 50.477 200.774 50.227 206.274 49.977 211.691 49.727 217.107 49.477 222.524 49.227 227.941 48.977 233.357 48.727 238.857 48.477 244.274 48.227 249.691 47.977 255.107 47.643 260.524 47.393 265.941 47.143 271.441 46.893 276.857 46.56 282.274 46.31"/>
    <g class="cls-7">
      <path class="cls-8" d="M529.6,317.76a3,3,0,1,1-3-3,3,3,0,0,1,3,3m5.52,0a3,3,0,1,1-3-3,3,3,0,0,1,3,3m5.28,0a3,3,0,1,1-3-3,3,3,0,0,1,3,3m5.52,0a3,3,0,1,1-3-3,3,3,0,0,1,3,3m5.52,0a3,3,0,1,1-3-3,3,3,0,0,1,3,3m5.28,0a3,3,0,1,1-3-3,3,3,0,0,1,3,3m5.52,0a3,3,0,1,1-3-3,3,3,0,0,1,3,3m5.52,0a3,3,0,1,1-3-3,3,3,0,0,1,3,3m5.28,0a3,3,0,1,1-3-3,3,3,0,0,1,3,3m5.52,0a3,3,0,1,1-3-3,3,3,0,0,1,3,3m5.28-25.68a3,3,0,1,1-3-3,3,3,0,0,1,3,3m5.52,6.48a3,3,0,1,1-3-3,3,3,0,0,1,3,3m5.52,6.48a3,3,0,1,1-3-3,3,3,0,0,1,3,3m5.28,2.64a3,3,0,1,1-3-3,3,3,0,0,1,3,3m5.52-3.12a3,3,0,1,1-3-3,3,3,0,0,1,3,3m5.52-6.72a3,3,0,1,1-3-3,3,3,0,0,1,3,3m5.28-6.72a3,3,0,1,1-3-3,3,3,0,0,1,3,3M622,288a3,3,0,1,1-3-3,3,3,0,0,1,3,3m5.52,2.64a3,3,0,1,1-3-3,3,3,0,0,1,3,3m5.28,6.48a3,3,0,1,1-3-3,3,3,0,0,1,3,3m5.52,6.48a3,3,0,1,1-3-3,3,3,0,0,1,3,3m5.28,2.4a3,3,0,1,1-3-3,3,3,0,0,1,3,3m5.52-2.88a3,3,0,1,1-3-3,3,3,0,0,1,3,3m5.28-6.96a3,3,0,1,1-3-3,3,3,0,0,1,3,3m5.52-6.72a3,3,0,1,1-3-3,3,3,0,0,1,3,3m5.52-3.12a3,3,0,1,1-3-3,3,3,0,0,1,3,3m5.28,2.64a3,3,0,1,1-3-3,3,3,0,0,1,3,3m5.52,6.48a3,3,0,1,1-3-3,3,3,0,0,1,3,3m5.52,6.24a3,3,0,1,1-3-3,3,3,0,0,1,3,3m5.28,2.64a3,3,0,1,1-3-3,3,3,0,0,1,3,3m5.52-2.88a3,3,0,1,1-3-3,3,3,0,0,1,3,3m5.52-6.96a3,3,0,1,1-3-3,3,3,0,0,1,3,3m5.28-6.96a3,3,0,1,1-3-3,3,3,0,0,1,3,3m5.52-3.12a3,3,0,1,1-3-3,3,3,0,0,1,3,3m5.28,2.64a3,3,0,1,1-3-3,3,3,0,0,1,3,3m5.52,6.48a3,3,0,1,1-3-3,3,3,0,0,1,3,3M725.2,300a3,3,0,1,1-3-3,3,3,0,0,1,3,3m5.28,2.4a3,3,0,1,1-3-3,3,3,0,0,1,3,3m5.52-2.88a3,3,0,1,1-3-3,3,3,0,0,1,3,3m5.52-6.96a3,3,0,1,1-3-3,3,3,0,0,1,3,3m5.28-6.96a3,3,0,1,1-3-3,3,3,0,0,1,3,3m5.52-3.12a3,3,0,1,1-3-3,3,3,0,0,1,3,3m5.52,2.64a3,3,0,1,1-3-3,3,3,0,0,1,3,3m5.28,6.48a3,3,0,1,1-3-3,3,3,0,0,1,3,3m5.52,6.24a3,3,0,1,1-3-3,3,3,0,0,1,3,3m5.28,2.4a3,3,0,1,1-3-3,3,3,0,0,1,3,3m5.52-2.88a3,3,0,1,1-3-3,3,3,0,0,1,3,3m5.28-6.96a3,3,0,1,1-3-3,3,3,0,0,1,3,3m5.52-6.96a3,3,0,1,1-3-3,3,3,0,0,1,3,3m5.52-3.12a3,3,0,1,1-3-3,3,3,0,0,1,3,3m5.52,2.64a3,3,0,1,1-3-3,3,3,0,0,1,3,3m5.28,34.8a3,3,0,1,1-3-3,3,3,0,0,1,3,3m5.52,0a3,3,0,1,1-3-3,3,3,0,0,1,3,3m5.28,0a3,3,0,1,1-3-3,3,3,0,0,1,3,3m5.52,0a3,3,0,1,1-3-3,3,3,0,0,1,3,3m5.52,0a3,3,0,1,1-3-3,3,3,0,0,1,3,3m5.28,0a3,3,0,1,1-3-3,3,3,0,0,1,3,3m5.52,0a3,3,0,1,1-3-3,3,3,0,0,1,3,3m5.28,0a3,3,0,1,1-3-3,3,3,0,0,1,3,3m5.52,0a3,3,0,1,1-3-3,3,3,0,0,1,3,3m5.52,0a3,3,0,1,1-3-3,3,3,0,0,1,3,3" transform="translate(-515.893 -243.273)"/>
    </g>
    <g class="cls-9">
      <path class="cls-10" d="M527.72,317.64a1,1,0,1,1-1-1,1,1,0,0,1,1,1" transform="translate(-515.893 -243.273)"/>
      <path class="cls-10" d="M533.12,317.64a1,1,0,1,1-1-1,1,1,0,0,1,1,1" transform="translate(-515.893 -243.273)"/>
      <path class="cls-10" d="M538.52,317.64a1,1,0,1,1-1-1,1,1,0,0,1,1,1" transform="translate(-515.893 -243.273)"/>
      <path class="cls-10" d="M543.92,317.64a1,1,0,1,1-1-1,1,1,0,0,1,1,1" transform="translate(-515.893 -243.273)"/>
      <path class="cls-10" d="M549.32,317.64a1,1,0,1,1-1-1,1,1,0,0,1,1,1" transform="translate(-515.893 -243.273)"/>
      <path class="cls-10" d="M554.72,317.64a1,1,0,1,1-1-1,1,1,0,0,1,1,1" transform="translate(-515.893 -243.273)"/>
      <path class="cls-10" d="M560.24,317.64a1,1,0,1,1-1-1,1,1,0,0,1,1,1" transform="translate(-515.893 -243.273)"/>
      <path class="cls-10" d="M565.64,317.64a1,1,0,1,1-1-1,1,1,0,0,1,1,1" transform="translate(-515.893 -243.273)"/>
      <path class="cls-10" d="M571.16,317.64a1,1,0,1,1-1-1,1,1,0,0,1,1,1" transform="translate(-515.893 -243.273)"/>
      <path class="cls-10" d="M576.44,317.64a1,1,0,1,1-1-1,1,1,0,0,1,1,1" transform="translate(-515.893 -243.273)"/>
      <path class="cls-8" d="M580.917,317.667v-25.5m5.416,25.5V298.583m5.5,19.084V305.083m5.417,12.584v-10m5.417,10v-13m5.416,13V297.833m5.417,19.834V291m5.417,26.667V288m5.5,29.667V290.583m5.416,27.084V297m5.417,20.667V303.5m5.417,14.167V306m5.416,11.667V303.083m5.417,14.584v-21.5m5.5,21.5V289.333m5.417,28.334V286.333m5.416,31.334v-28.75m5.417,28.75V295.333m5.417,22.334V301.75m5.416,15.917V304.25m5.5,13.417V301.333M695,317.667v-23.25m5.417,23.25V287.5m5.416,30.167V284.5m5.417,33.167V287.083m5.417,30.584V293.5m5.5,24.167v-17.75m5.416,17.75v-15.25M733,317.667v-18.25m5.417,18.25V292.5m5.416,25.167V285.583m5.417,32.084V282.583m5.5,35.084V285.083m5.417,32.584V291.5m5.416,26.167V297.833M771,317.667V300.333m5.417,17.334V297.333m5.416,20.334v-27.25m5.5,27.25V283.5m5.417,34.167v-37.25m5.417,37.25v-34.75" transform="translate(-515.893 -243.273)"/>
      <path class="cls-10" d="M804.56,317.64a1,1,0,1,1-1-1,1,1,0,0,1,1,1" transform="translate(-515.893 -243.273)"/>
      <path class="cls-10" d="M809.96,317.64a1,1,0,1,1-1-1,1,1,0,0,1,1,1" transform="translate(-515.893 -243.273)"/>
      <path class="cls-10" d="M815.48,317.64a1,1,0,1,1-1-1,1,1,0,0,1,1,1" transform="translate(-515.893 -243.273)"/>
      <path class="cls-10" d="M820.88,317.64a1,1,0,1,1-1-1,1,1,0,0,1,1,1" transform="translate(-515.893 -243.273)"/>
      <path class="cls-10" d="M826.28,317.64a1,1,0,1,1-1-1,1,1,0,0,1,1,1" transform="translate(-515.893 -243.273)"/>
      <path class="cls-10" d="M831.8,317.64a1,1,0,1,1-1-1,1,1,0,0,1,1,1" transform="translate(-515.893 -243.273)"/>
      <path class="cls-10" d="M837.2,317.64a1,1,0,1,1-1-1,1,1,0,0,1,1,1" transform="translate(-515.893 -243.273)"/>
      <path class="cls-10" d="M842.6,317.64a1,1,0,1,1-1-1,1,1,0,0,1,1,1" transform="translate(-515.893 -243.273)"/>
      <path class="cls-10" d="M848,317.64a1,1,0,1,1-1-1,1,1,0,0,1,1,1" transform="translate(-515.893 -243.273)"/>
      <path class="cls-10" d="M853.52,317.64a1,1,0,1,1-1-1,1,1,0,0,1,1,1" transform="translate(-515.893 -243.273)"/>
      <line class="cls-4" x1="10.774" y1="74.393" x2="336.607" y2="74.393"/>
    </g>
    <g>
      <path class="cls-5" d="M614.3,249.883l-1.758-2.529h1.136l1.2,1.86,1.208-1.86h1.087l-1.758,2.543,1.816,2.681h-1.1l-1.3-1.992-1.282,1.992H612.44Z" transform="translate(-515.893 -243.273)"/>
      <path class="cls-5" d="M617.958,245.352h1.87v.708h-1.079v7.773h1.079v.708h-1.87Z" transform="translate(-515.893 -243.273)"/>
      <path class="cls-5" d="M620.756,247.354h.835v.771l.195-.259A1.775,1.775,0,0,1,625.019,249v3.579h-.879V249.3a1.5,1.5,0,0,0-.266-.994,1.091,1.091,0,0,0-.862-.305,1.2,1.2,0,0,0-1.006.481,2.074,2.074,0,0,0-.371,1.3v2.8h-.879Z" transform="translate(-515.893 -243.273)"/>
      <path class="cls-5" d="M627.816,254.541h-1.87v-.708h1.079V246.06h-1.079v-.708h1.87Z" transform="translate(-515.893 -243.273)"/>
      <path class="cls-5" d="M628.837,248.682H633.9v.737h-5.059Zm0,2.021H633.9v.737h-5.059Z" transform="translate(-515.893 -243.273)"/>
      <path class="cls-5" d="M634.965,249.941a6.81,6.81,0,0,1,.41-2.346,9.756,9.756,0,0,1,1.3-2.351h.6a11.3,11.3,0,0,0-1.042,2.383,8.317,8.317,0,0,0,0,4.639,11.206,11.206,0,0,0,1.042,2.378h-.6a9.733,9.733,0,0,1-1.3-2.354A6.831,6.831,0,0,1,634.965,249.941Z" transform="translate(-515.893 -243.273)"/>
      <path class="cls-5" d="M640.272,247.588h-1.645v-.7a1.9,1.9,0,0,0,1.182-.313,1.931,1.931,0,0,0,.678-1.025h.718v7.031h-.933Z" transform="translate(-515.893 -243.273)"/>
      <path class="cls-5" d="M644.047,251.519h1.045v1.059h-1.045Z" transform="translate(-515.893 -243.273)"/>
      <path class="cls-5" d="M646.955,251.831a6,6,0,0,1,0-5.344,2.161,2.161,0,0,1,3.566,0,6.024,6.024,0,0,1,0,5.344,2.164,2.164,0,0,1-3.566,0Zm2.893-.557a6.3,6.3,0,0,0,0-4.231,1.193,1.193,0,0,0-1.114-.705,1.178,1.178,0,0,0-1.1.705,6.217,6.217,0,0,0,0,4.231,1.179,1.179,0,0,0,1.1.7A1.194,1.194,0,0,0,649.848,251.274Z" transform="translate(-515.893 -243.273)"/>
      <path class="cls-5" d="M654.174,247.588h-1.646v-.7a1.9,1.9,0,0,0,1.182-.313,1.938,1.938,0,0,0,.679-1.025h.717v7.031h-.932Z" transform="translate(-515.893 -243.273)"/>
      <path class="cls-5" d="M659.73,249.946a6.782,6.782,0,0,1-.41,2.346,9.708,9.708,0,0,1-1.3,2.352h-.6a11.253,11.253,0,0,0,1.042-2.383,8.317,8.317,0,0,0,0-4.639,11.156,11.156,0,0,0-1.042-2.378h.6a9.7,9.7,0,0,1,1.3,2.354A6.8,6.8,0,0,1,659.73,249.946Z" transform="translate(-515.893 -243.273)"/>
    </g>
    <path class="cls-5" d="M660.855,243.4h.668v.618l.157-.207a1.42,1.42,0,0,1,2.586.906v2.863h-.7v-2.625a1.2,1.2,0,0,0-.213-.8.874.874,0,0,0-.69-.244.963.963,0,0,0-.8.385,1.666,1.666,0,0,0-.3,1.041v2.238h-.7Z" transform="translate(-515.893 -243.273)"/>
    <g>
      <path class="cls-5" d="M670.082,250.43h-2.163v-.738h2.163v-2.163h.737v2.163h2.163v.738h-2.163v2.163h-.737Z" transform="translate(-515.893 -243.273)"/>
      <path class="cls-5" d="M677.145,251.831a6.007,6.007,0,0,1,0-5.344,2.162,2.162,0,0,1,3.567,0,6.024,6.024,0,0,1,0,5.344,2.165,2.165,0,0,1-3.567,0Zm2.893-.557a6.3,6.3,0,0,0,0-4.231,1.192,1.192,0,0,0-1.113-.705,1.179,1.179,0,0,0-1.1.705,6.217,6.217,0,0,0,0,4.231,1.179,1.179,0,0,0,1.1.7A1.193,1.193,0,0,0,680.038,251.274Z" transform="translate(-515.893 -243.273)"/>
      <path class="cls-5" d="M682.577,251.519h1.045v1.059h-1.045Z" transform="translate(-515.893 -243.273)"/>
      <path class="cls-5" d="M689.628,250.317a2.41,2.41,0,0,1-.677,1.766,2.331,2.331,0,0,1-1.735.686,2.58,2.58,0,0,1-1.7-.528,2,2,0,0,1-.712-1.455h.918a1.312,1.312,0,0,0,.472.906,1.646,1.646,0,0,0,1.058.32,1.331,1.331,0,0,0,1.036-.445,1.632,1.632,0,0,0,.4-1.142,1.6,1.6,0,0,0-.42-1.165,1.513,1.513,0,0,0-1.137-.432,1.624,1.624,0,0,0-.749.186,1.372,1.372,0,0,0-.55.473l-.742-.049.507-3.75h3.643v.855h-2.984l-.306,1.924.029-.02a2.132,2.132,0,0,1,1.228-.4,2.474,2.474,0,0,1,1.764.615A2.163,2.163,0,0,1,689.628,250.317Z" transform="translate(-515.893 -243.273)"/>
      <path class="cls-5" d="M697.6,250.7a2.42,2.42,0,0,1-.7,1.5,2.117,2.117,0,0,1-1.494.518,2.047,2.047,0,0,1-1.66-.747,3.055,3.055,0,0,1-.62-2.012,2.99,2.99,0,0,1,.642-2.014,2.4,2.4,0,0,1,3.23-.235,1.959,1.959,0,0,1,.6,1.419h-.845a1.2,1.2,0,0,0-1.289-1.177,1.207,1.207,0,0,0-1.042.535,2.5,2.5,0,0,0-.379,1.472,2.615,2.615,0,0,0,.352,1.5,1.31,1.31,0,0,0,1.9.173,1.671,1.671,0,0,0,.457-.935Z" transform="translate(-515.893 -243.273)"/>
      <path class="cls-5" d="M698.85,251.958a3.311,3.311,0,0,1,0-4,2.41,2.41,0,0,1,3.517,0,3.323,3.323,0,0,1,0,4,2.41,2.41,0,0,1-3.517,0Zm2.858-.537a2.808,2.808,0,0,0,0-2.922,1.387,1.387,0,0,0-2.2,0,2.82,2.82,0,0,0,0,2.922,1.391,1.391,0,0,0,2.2,0Z" transform="translate(-515.893 -243.273)"/>
      <path class="cls-5" d="M707.029,248.867a.908.908,0,0,0-.354-.674,1.37,1.37,0,0,0-.848-.239,1.5,1.5,0,0,0-.832.191.624.624,0,0,0-.286.556.479.479,0,0,0,.2.42,2.588,2.588,0,0,0,.8.283l.908.215a2.316,2.316,0,0,1,1.09.513,1.217,1.217,0,0,1,.323.9,1.5,1.5,0,0,1-.559,1.231,2.329,2.329,0,0,1-1.511.454,2.59,2.59,0,0,1-1.645-.437,1.817,1.817,0,0,1-.6-1.375h.845a1.115,1.115,0,0,0,.392.806,1.673,1.673,0,0,0,1.009.249,1.5,1.5,0,0,0,.9-.225.759.759,0,0,0,.305-.654.474.474,0,0,0-.2-.415,2.6,2.6,0,0,0-.806-.283l-.908-.215a2.181,2.181,0,0,1-1.05-.493,1.188,1.188,0,0,1-.313-.879,1.438,1.438,0,0,1,.524-1.17,2.174,2.174,0,0,1,1.423-.432,2.206,2.206,0,0,1,1.452.445,1.593,1.593,0,0,1,.574,1.225Z" transform="translate(-515.893 -243.273)"/>
      <path class="cls-5" d="M709.066,249.941a6.787,6.787,0,0,1,.411-2.346,9.75,9.75,0,0,1,1.3-2.351h.6a11.312,11.312,0,0,0-1.043,2.383,8.341,8.341,0,0,0,0,4.639,11.213,11.213,0,0,0,1.043,2.378h-.6a9.727,9.727,0,0,1-1.3-2.354A6.808,6.808,0,0,1,709.066,249.941Z" transform="translate(-515.893 -243.273)"/>
      <path class="cls-5" d="M716.791,247.617a1.994,1.994,0,0,1-.4,1.277A5.124,5.124,0,0,1,714.9,250a5.6,5.6,0,0,0-1.625,1.2,2.174,2.174,0,0,0-.3.528h3.818v.854h-4.814a2.853,2.853,0,0,1,.551-1.813,6.883,6.883,0,0,1,2.071-1.54,3.418,3.418,0,0,0,1-.753,1.387,1.387,0,0,0,.269-.881,1.181,1.181,0,0,0-.4-.92,1.489,1.489,0,0,0-1.026-.357,1.268,1.268,0,0,0-1.028.449,2.038,2.038,0,0,0-.4,1.27h-.854a2.449,2.449,0,0,1,.62-1.824,2.368,2.368,0,0,1,1.782-.661,2.261,2.261,0,0,1,1.6.581A1.941,1.941,0,0,1,716.791,247.617Z" transform="translate(-515.893 -243.273)"/>
    </g>
    <path class="cls-5" d="M722.372,248.105v.708H721.19a14.191,14.191,0,0,0-.17,2.144,1.156,1.156,0,0,0,.175.72.545.545,0,0,0,.44.218.52.52,0,0,0,.366-.147.714.714,0,0,0,.2-.425h.171a1.969,1.969,0,0,1-.368,1.089.85.85,0,0,1-.643.317.759.759,0,0,1-.634-.346,2.336,2.336,0,0,1-.254-1.294q0-.6.185-2.276h-1.269a17.727,17.727,0,0,1-.367,3.238q-.215.678-.59.678a.39.39,0,0,1-.291-.117.4.4,0,0,1-.115-.293.564.564,0,0,1,.039-.219,1.92,1.92,0,0,1,.23-.357,2.434,2.434,0,0,0,.415-.83,9.8,9.8,0,0,0,.273-2.1h-.224a.968.968,0,0,0-.532.118,1.6,1.6,0,0,0-.518.586h-.19a2.637,2.637,0,0,1,.639-1.167,1.146,1.146,0,0,1,.781-.245Z" transform="translate(-515.893 -243.273)"/>
    <g>
      <path class="cls-5" d="M726.092,247.354h.835v.771l.195-.259A1.775,1.775,0,0,1,730.354,249v3.579h-.878V249.3a1.5,1.5,0,0,0-.266-.994,1.091,1.091,0,0,0-.862-.305,1.2,1.2,0,0,0-1.006.481,2.08,2.08,0,0,0-.371,1.3v2.8h-.879Z" transform="translate(-515.893 -243.273)"/>
      <path class="cls-5" d="M733.948,245.215l-2.443,7.558h-.667l2.443-7.558Z" transform="translate(-515.893 -243.273)"/>
      <path class="cls-5" d="M737.776,248.857a2.331,2.331,0,0,1,.518.318,1.72,1.72,0,0,1,.659,1.406,2.044,2.044,0,0,1-.659,1.587,2.812,2.812,0,0,1-3.475,0,2.049,2.049,0,0,1-.656-1.587,1.734,1.734,0,0,1,.659-1.411,2.273,2.273,0,0,1,.508-.308,3.2,3.2,0,0,1-.337-.215,1.46,1.46,0,0,1-.591-1.21,1.738,1.738,0,0,1,.593-1.37,2.6,2.6,0,0,1,3.121,0,1.735,1.735,0,0,1,.593,1.37,1.451,1.451,0,0,1-.6,1.21A1.828,1.828,0,0,1,737.776,248.857Zm-1.22.4a1.478,1.478,0,0,0-1.053.383,1.291,1.291,0,0,0-.407.984,1.277,1.277,0,0,0,.407.977,1.647,1.647,0,0,0,2.107,0,1.273,1.273,0,0,0,.411-.977,1.293,1.293,0,0,0-.411-.986A1.487,1.487,0,0,0,736.556,249.253Zm0-.762a1.284,1.284,0,0,0,.879-.3,1.051,1.051,0,0,0,0-1.55,1.426,1.426,0,0,0-1.758,0,1.051,1.051,0,0,0,0,1.552A1.284,1.284,0,0,0,736.556,248.491Z" transform="translate(-515.893 -243.273)"/>
      <path class="cls-5" d="M744.676,250.43h-2.163v-.738h2.163v-2.163h.737v2.163h2.163v.738h-2.163v2.163h-.737Z" transform="translate(-515.893 -243.273)"/>
    </g>
    <path class="cls-5" d="M755.786,248.105v.708H754.6a14.191,14.191,0,0,0-.17,2.144,1.156,1.156,0,0,0,.175.72.545.545,0,0,0,.44.218.518.518,0,0,0,.366-.147.708.708,0,0,0,.2-.425h.171a1.969,1.969,0,0,1-.368,1.089.85.85,0,0,1-.643.317.759.759,0,0,1-.634-.346,2.336,2.336,0,0,1-.254-1.294q0-.6.185-2.276H752.8a17.857,17.857,0,0,1-.366,3.238c-.144.452-.34.678-.591.678a.392.392,0,0,1-.291-.117.4.4,0,0,1-.115-.293.564.564,0,0,1,.039-.219,1.92,1.92,0,0,1,.23-.357,2.434,2.434,0,0,0,.415-.83,9.8,9.8,0,0,0,.273-2.1h-.224a.971.971,0,0,0-.532.118,1.6,1.6,0,0,0-.518.586h-.19a2.637,2.637,0,0,1,.639-1.167,1.149,1.149,0,0,1,.782-.245Z" transform="translate(-515.893 -243.273)"/>
    <g>
      <path class="cls-5" d="M759.022,245.215l-2.443,7.558h-.667l2.443-7.558Z" transform="translate(-515.893 -243.273)"/>
      <path class="cls-5" d="M759.105,250.894v-.821l3.252-4.526h.733v4.595h1v.752h-1v1.684h-.884v-1.684Zm3.1-.752v-3.2l-2.241,3.135-.049.069Z" transform="translate(-515.893 -243.273)"/>
    </g>
    <path class="cls-5" d="M766.511,249.946a6.806,6.806,0,0,1-.41,2.346,9.742,9.742,0,0,1-1.3,2.352h-.6a11.312,11.312,0,0,0,1.043-2.383,8.341,8.341,0,0,0,0-4.639,11.213,11.213,0,0,0-1.043-2.378h.6a9.733,9.733,0,0,1,1.3,2.354A6.825,6.825,0,0,1,766.511,249.946Z" transform="translate(-515.893 -243.273)"/>
    <polyline class="cls-2" points="10.774 168.81 10.774 112.393 336.607 112.393 336.607 168.81 10.774 168.81"/>
    <path class="cls-3" d="M526.667,412.083V355.667m0,0h0m54.25,56.416V355.667m0,0h0m54.333,56.416V355.667m0,0h0m54.333,56.416V355.667m0,0h0m54.25,56.416V355.667m0,0h0m54.334,56.416V355.667m0,0h0M852.5,412.083V355.667m0,0h0M526.667,412.083H852.5m0,0h0M526.667,393.25H852.5m0,0h0M526.667,374.417H852.5m0,0h0m-325.833-18.75H852.5m0,0h0" transform="translate(-515.893 -243.273)"/>
    <path class="cls-4" d="M526.667,355.667H852.5M526.667,412.083H852.5m0,0V355.667M526.667,412.083V355.667m0,56.416H852.5m-325.833,0V355.667m0,56.416V408.75m0-53.083v3.25" transform="translate(-515.893 -243.273)"/>
    <g>
      <path class="cls-5" d="M515.893,421.286h4.726v.737h-4.726Z" transform="translate(-515.893 -243.273)"/>
      <path class="cls-5" d="M523.832,419.182h-1.645v-.7a1.913,1.913,0,0,0,1.181-.313,1.942,1.942,0,0,0,.679-1.025h.718v7.031h-.933Z" transform="translate(-515.893 -243.273)"/>
      <path class="cls-5" d="M527.736,423.425a6,6,0,0,1,0-5.345,2.163,2.163,0,0,1,3.567,0,6.026,6.026,0,0,1,0,5.345,2.166,2.166,0,0,1-3.567,0Zm2.893-.557a6.3,6.3,0,0,0,0-4.231,1.193,1.193,0,0,0-1.113-.7,1.179,1.179,0,0,0-1.1.7,6.217,6.217,0,0,0,0,4.231,1.178,1.178,0,0,0,1.1.7A1.193,1.193,0,0,0,530.629,422.868Z" transform="translate(-515.893 -243.273)"/>
    </g>
    <path class="cls-4" d="M580.917,412.083V408.75m0-53.083v3.25" transform="translate(-515.893 -243.273)"/>
    <path class="cls-5" d="M579.163,423.425a6,6,0,0,1,0-5.345,2.162,2.162,0,0,1,3.566,0,6.026,6.026,0,0,1,0,5.345,2.165,2.165,0,0,1-3.566,0Zm2.893-.557a6.3,6.3,0,0,0,0-4.231,1.193,1.193,0,0,0-1.114-.7,1.178,1.178,0,0,0-1.1.7,6.217,6.217,0,0,0,0,4.231,1.178,1.178,0,0,0,1.1.7A1.193,1.193,0,0,0,582.056,422.868Z" transform="translate(-515.893 -243.273)"/>
    <path class="cls-4" d="M635.25,412.083V408.75m0-53.083v3.25" transform="translate(-515.893 -243.273)"/>
    <g>
      <path class="cls-5" d="M632.406,419.182h-1.645v-.7a1.909,1.909,0,0,0,1.181-.313,1.931,1.931,0,0,0,.679-1.025h.718v7.031h-.933Z" transform="translate(-515.893 -243.273)"/>
      <path class="cls-5" d="M636.31,423.425a6.009,6.009,0,0,1,0-5.345,2.163,2.163,0,0,1,3.567,0,6.026,6.026,0,0,1,0,5.345,2.166,2.166,0,0,1-3.567,0Zm2.893-.557a6.3,6.3,0,0,0,0-4.231,1.192,1.192,0,0,0-1.113-.7,1.179,1.179,0,0,0-1.1.7,6.217,6.217,0,0,0,0,4.231,1.178,1.178,0,0,0,1.1.7A1.192,1.192,0,0,0,639.2,422.868Z" transform="translate(-515.893 -243.273)"/>
    </g>
    <path class="cls-4" d="M689.583,412.083V408.75m0-53.083v3.25" transform="translate(-515.893 -243.273)"/>
    <g>
      <path class="cls-5" d="M689.159,419.211a2,2,0,0,1-.4,1.277,5.149,5.149,0,0,1-1.5,1.106,5.589,5.589,0,0,0-1.626,1.2,2.2,2.2,0,0,0-.3.527h3.818v.855h-4.814a2.856,2.856,0,0,1,.551-1.814,6.93,6.93,0,0,1,2.071-1.54,3.4,3.4,0,0,0,1.006-.753,1.388,1.388,0,0,0,.268-.88,1.176,1.176,0,0,0-.4-.919,1.48,1.48,0,0,0-1.026-.358,1.27,1.27,0,0,0-1.028.448,2.035,2.035,0,0,0-.4,1.271h-.855a2.45,2.45,0,0,1,.62-1.823,2.362,2.362,0,0,1,1.783-.662,2.255,2.255,0,0,1,1.6.581A1.941,1.941,0,0,1,689.159,419.211Z" transform="translate(-515.893 -243.273)"/>
      <path class="cls-5" d="M690.646,423.425a6.009,6.009,0,0,1,0-5.345,2.163,2.163,0,0,1,3.567,0,6.026,6.026,0,0,1,0,5.345,2.166,2.166,0,0,1-3.567,0Zm2.893-.557a6.3,6.3,0,0,0,0-4.231,1.224,1.224,0,0,0-2.217,0,6.217,6.217,0,0,0,0,4.231,1.225,1.225,0,0,0,2.217,0Z" transform="translate(-515.893 -243.273)"/>
    </g>
    <path class="cls-4" d="M743.833,412.083V408.75m0-53.083v3.25" transform="translate(-515.893 -243.273)"/>
    <g>
      <path class="cls-5" d="M742.391,419.053a1.013,1.013,0,0,0-.379-.816,1.463,1.463,0,0,0-.969-.315,1.2,1.2,0,0,0-.957.383,1.831,1.831,0,0,0-.366,1.145h-.855a2.373,2.373,0,0,1,.578-1.706,2.168,2.168,0,0,1,1.639-.6,2.472,2.472,0,0,1,1.613.5,1.723,1.723,0,0,1,0,2.639,1.687,1.687,0,0,1-.254.176,2.009,2.009,0,0,1,.45.269,1.681,1.681,0,0,1,.659,1.4,2.09,2.09,0,0,1-.684,1.613,2.917,2.917,0,0,1-3.54.059,2.457,2.457,0,0,1-.654-1.74h.918a1.87,1.87,0,0,0,.435,1.174,1.807,1.807,0,0,0,2.176-.02,1.226,1.226,0,0,0,.416-.959,1.256,1.256,0,0,0-.4-.977,1.413,1.413,0,0,0-.879-.351q-.249-.015-.471-.015a1.406,1.406,0,0,0-.3.02v-.767a1.583,1.583,0,0,0,.332.025,3.293,3.293,0,0,0,.445-.03,1.283,1.283,0,0,0,.688-.279A1.007,1.007,0,0,0,742.391,419.053Z" transform="translate(-515.893 -243.273)"/>
      <path class="cls-5" d="M744.888,423.425a6.009,6.009,0,0,1,0-5.345,2.163,2.163,0,0,1,3.567,0,6.026,6.026,0,0,1,0,5.345,2.166,2.166,0,0,1-3.567,0Zm2.893-.557a6.3,6.3,0,0,0,0-4.231,1.224,1.224,0,0,0-2.217,0,6.217,6.217,0,0,0,0,4.231,1.225,1.225,0,0,0,2.217,0Z" transform="translate(-515.893 -243.273)"/>
    </g>
    <path class="cls-4" d="M798.167,412.083V408.75m0-53.083v3.25" transform="translate(-515.893 -243.273)"/>
    <g>
      <path class="cls-5" d="M792.913,422.487v-.82l3.252-4.526h.732v4.594h1v.752h-1v1.685h-.883v-1.685Zm3.1-.752v-3.2l-2.242,3.136-.048.068Z" transform="translate(-515.893 -243.273)"/>
      <path class="cls-5" d="M799.224,423.425a6.009,6.009,0,0,1,0-5.345,2.163,2.163,0,0,1,3.567,0,6.026,6.026,0,0,1,0,5.345,2.166,2.166,0,0,1-3.567,0Zm2.893-.557a6.3,6.3,0,0,0,0-4.231,1.224,1.224,0,0,0-2.217,0,6.217,6.217,0,0,0,0,4.231,1.225,1.225,0,0,0,2.217,0Z" transform="translate(-515.893 -243.273)"/>
    </g>
    <path class="cls-4" d="M852.5,412.083V408.75m0-53.083v3.25" transform="translate(-515.893 -243.273)"/>
    <g>
      <path class="cls-5" d="M852.142,421.911a2.406,2.406,0,0,1-.677,1.765,2.328,2.328,0,0,1-1.736.686,2.577,2.577,0,0,1-1.694-.527,2,2,0,0,1-.713-1.455h.918a1.311,1.311,0,0,0,.473.905,1.638,1.638,0,0,0,1.058.32,1.335,1.335,0,0,0,1.036-.444,1.637,1.637,0,0,0,.4-1.142,1.6,1.6,0,0,0-.42-1.165,1.513,1.513,0,0,0-1.138-.432,1.629,1.629,0,0,0-.749.185,1.378,1.378,0,0,0-.549.474l-.743-.049.508-3.75h3.643v.855h-2.985l-.3,1.924.029-.02a2.132,2.132,0,0,1,1.228-.4,2.47,2.47,0,0,1,1.763.615A2.16,2.16,0,0,1,852.142,421.911Z" transform="translate(-515.893 -243.273)"/>
      <path class="cls-5" d="M853.56,423.425a6.009,6.009,0,0,1,0-5.345,2.163,2.163,0,0,1,3.567,0,6.026,6.026,0,0,1,0,5.345,2.166,2.166,0,0,1-3.567,0Zm2.893-.557a6.3,6.3,0,0,0,0-4.231,1.224,1.224,0,0,0-2.217,0,6.217,6.217,0,0,0,0,4.231,1.225,1.225,0,0,0,2.217,0Z" transform="translate(-515.893 -243.273)"/>
    </g>
    <path class="cls-4" d="M526.667,412.083h3.25m322.583,0h-3.333" transform="translate(-515.893 -243.273)"/>
    <path class="cls-5" d="M519.249,415a6,6,0,0,1,0-5.345,2.162,2.162,0,0,1,3.566,0,6.026,6.026,0,0,1,0,5.345,2.165,2.165,0,0,1-3.566,0Zm2.893-.557a6.3,6.3,0,0,0,0-4.231,1.193,1.193,0,0,0-1.114-.7,1.178,1.178,0,0,0-1.1.7,6.217,6.217,0,0,0,0,4.231,1.178,1.178,0,0,0,1.1.7A1.193,1.193,0,0,0,522.142,414.446Z" transform="translate(-515.893 -243.273)"/>
    <path class="cls-4" d="M526.667,393.25h3.25m322.583,0h-3.333" transform="translate(-515.893 -243.273)"/>
    <path class="cls-5" d="M520.906,391.924h-1.645v-.7a1.724,1.724,0,0,0,1.86-1.338h.718v7.031h-.933Z" transform="translate(-515.893 -243.273)"/>
    <path class="cls-4" d="M526.667,374.417h3.25m322.583,0h-3.333" transform="translate(-515.893 -243.273)"/>
    <path class="cls-5" d="M523.323,373.125a1.99,1.99,0,0,1-.4,1.277,5.127,5.127,0,0,1-1.5,1.106,5.56,5.56,0,0,0-1.626,1.2,2.168,2.168,0,0,0-.3.527h3.818v.855h-4.814a2.858,2.858,0,0,1,.552-1.814,6.909,6.909,0,0,1,2.07-1.54,3.409,3.409,0,0,0,1.006-.752,1.387,1.387,0,0,0,.268-.881,1.178,1.178,0,0,0-.4-.92,1.484,1.484,0,0,0-1.026-.357,1.265,1.265,0,0,0-1.027.449,2.026,2.026,0,0,0-.4,1.27H518.7a2.453,2.453,0,0,1,.62-1.824,2.365,2.365,0,0,1,1.783-.661,2.26,2.26,0,0,1,1.6.581A1.937,1.937,0,0,1,523.323,373.125Z" transform="translate(-515.893 -243.273)"/>
    <path class="cls-4" d="M526.667,355.667h3.25m322.583,0h-3.333" transform="translate(-515.893 -243.273)"/>
    <path class="cls-5" d="M522.313,354.216a1.013,1.013,0,0,0-.379-.815,1.463,1.463,0,0,0-.969-.315,1.2,1.2,0,0,0-.957.383,1.843,1.843,0,0,0-.366,1.145h-.855a2.363,2.363,0,0,1,.579-1.706,2.161,2.161,0,0,1,1.638-.6,2.477,2.477,0,0,1,1.614.5,1.726,1.726,0,0,1,0,2.639,1.709,1.709,0,0,1-.254.176,2.047,2.047,0,0,1,.45.269,1.683,1.683,0,0,1,.659,1.4,2.092,2.092,0,0,1-.684,1.614,2.921,2.921,0,0,1-3.54.059,2.457,2.457,0,0,1-.654-1.741h.918a1.87,1.87,0,0,0,.435,1.174,1.522,1.522,0,0,0,1.11.354,1.537,1.537,0,0,0,1.067-.373,1.353,1.353,0,0,0,.015-1.936,1.408,1.408,0,0,0-.879-.352q-.249-.015-.471-.015a1.406,1.406,0,0,0-.3.02v-.767a1.648,1.648,0,0,0,.332.025,3.293,3.293,0,0,0,.445-.03,1.282,1.282,0,0,0,.688-.278A1.006,1.006,0,0,0,522.313,354.216Z" transform="translate(-515.893 -243.273)"/>
    <path class="cls-4" d="M526.667,355.667H852.5M526.667,412.083H852.5m0,0V355.667M526.667,412.083V355.667" transform="translate(-515.893 -243.273)"/>
    <polyline class="cls-6" points="65.024 149.977 70.441 149.81 75.941 149.56 81.357 149.393 86.774 149.227 92.191 148.977 97.607 148.81 103.024 148.643 108.524 148.393 113.941 148.227 119.357 147.977 124.774 147.81 130.191 147.56 135.607 147.393 141.107 147.143 146.524 146.977 151.941 146.727 157.357 146.477 162.774 146.31 168.191 146.06 173.691 145.81 179.107 145.56 184.524 145.393 189.941 145.143 195.357 144.893 200.774 144.643 206.274 144.393 211.691 144.143 217.107 143.893 222.524 143.643 227.941 143.393 233.357 143.143 238.857 142.893 244.274 142.643 249.691 142.393 255.107 142.143 260.524 141.893 265.941 141.56 271.441 141.31 276.857 141.06 282.274 140.81"/>
    <g class="cls-11">
      <path class="cls-8" d="M529.6,412.08a3,3,0,1,1-3-3,3,3,0,0,1,3,3m5.52,0a3,3,0,1,1-3-3,3,3,0,0,1,3,3m5.28,0a3,3,0,1,1-3-3,3,3,0,0,1,3,3m5.52,0a3,3,0,1,1-3-3,3,3,0,0,1,3,3m5.52,0a3,3,0,1,1-3-3,3,3,0,0,1,3,3m5.28,0a3,3,0,1,1-3-3,3,3,0,0,1,3,3m5.52,0a3,3,0,1,1-3-3,3,3,0,0,1,3,3m5.52,0a3,3,0,1,1-3-3,3,3,0,0,1,3,3m5.28,0a3,3,0,1,1-3-3,3,3,0,0,1,3,3m5.52,0a3,3,0,1,1-3-3,3,3,0,0,1,3,3m5.28-8.4a3,3,0,1,1-3-3,3,3,0,0,1,3,3m5.52-6.48a3,3,0,1,1-3-3,3,3,0,0,1,3,3m5.52-4.08a3,3,0,1,1-3-3,3,3,0,0,1,3,3m5.28,5.04a3,3,0,1,1-3-3,3,3,0,0,1,3,3m5.52,2.16a3,3,0,1,1-3-3,3,3,0,0,1,3,3m5.52-2.4a3,3,0,1,1-3-3,3,3,0,0,1,3,3m5.28-5.76a3,3,0,1,1-3-3,3,3,0,0,1,3,3m5.52-5.52a3,3,0,1,1-3-3,3,3,0,0,1,3,3m5.52-2.4a3,3,0,1,1-3-3,3,3,0,0,1,3,3m5.28,2.16a3,3,0,1,1-3-3,3,3,0,0,1,3,3m5.52,5.04a3,3,0,1,1-3-3,3,3,0,0,1,3,3m5.28,5.04a3,3,0,1,1-3-3,3,3,0,0,1,3,3m5.52,2.16a3,3,0,1,1-3-3,3,3,0,0,1,3,3m5.28-2.4a3,3,0,1,1-3-3,3,3,0,0,1,3,3m5.52-5.52a3,3,0,1,1-3-3,3,3,0,0,1,3,3m5.52-5.52a3,3,0,1,1-3-3,3,3,0,0,1,3,3m5.28-2.64a3,3,0,1,1-3-3,3,3,0,0,1,3,3m5.52,2.16a3,3,0,1,1-3-3,3,3,0,0,1,3,3m5.52,5.04a3,3,0,1,1-3-3,3,3,0,0,1,3,3m5.28,5.04a3,3,0,1,1-3-3,3,3,0,0,1,3,3m5.52,2.16a3,3,0,1,1-3-3,3,3,0,0,1,3,3m5.52-2.64a3,3,0,1,1-3-3,3,3,0,0,1,3,3m5.28-5.52a3,3,0,1,1-3-3,3,3,0,0,1,3,3m5.52-5.52a3,3,0,1,1-3-3,3,3,0,0,1,3,3m5.28-2.4a3,3,0,1,1-3-3,3,3,0,0,1,3,3m5.52,1.92a3,3,0,1,1-3-3,3,3,0,0,1,3,3m5.52,5.04a3,3,0,1,1-3-3,3,3,0,0,1,3,3m5.28,5.28a3,3,0,1,1-3-3,3,3,0,0,1,3,3m5.52,1.92a3,3,0,1,1-3-3,3,3,0,0,1,3,3m5.52-2.4a3,3,0,1,1-3-3,3,3,0,0,1,3,3m5.28-5.76a3,3,0,1,1-3-3,3,3,0,0,1,3,3m5.52-5.52a3,3,0,1,1-3-3,3,3,0,0,1,3,3m5.52-2.64a3,3,0,1,1-3-3,3,3,0,0,1,3,3m5.28,2.16a3,3,0,1,1-3-3,3,3,0,0,1,3,3m5.52,5.04a3,3,0,1,1-3-3,3,3,0,0,1,3,3m5.28,5.04a3,3,0,1,1-3-3,3,3,0,0,1,3,3m5.52,2.16a3,3,0,1,1-3-3,3,3,0,0,1,3,3m5.28-2.64a3,3,0,1,1-3-3,3,3,0,0,1,3,3m5.52-5.76a3,3,0,1,1-3-3,3,3,0,0,1,3,3m5.52-5.52a3,3,0,1,1-3-3,3,3,0,0,1,3,3m5.52-2.4a3,3,0,1,1-3-3,3,3,0,0,1,3,3m5.28,11.28a3,3,0,1,1-3-3,3,3,0,0,1,3,3m5.52,12.48a3,3,0,1,1-3-3,3,3,0,0,1,3,3m5.28,11.52a3,3,0,1,1-3-3,3,3,0,0,1,3,3m5.52,0a3,3,0,1,1-3-3,3,3,0,0,1,3,3m5.52,0a3,3,0,1,1-3-3,3,3,0,0,1,3,3m5.28,0a3,3,0,1,1-3-3,3,3,0,0,1,3,3m5.52,0a3,3,0,1,1-3-3,3,3,0,0,1,3,3m5.28,0a3,3,0,1,1-3-3,3,3,0,0,1,3,3m5.52,0a3,3,0,1,1-3-3,3,3,0,0,1,3,3m5.52,0a3,3,0,1,1-3-3,3,3,0,0,1,3,3" transform="translate(-515.893 -243.273)"/>
    </g>
    <g class="cls-12">
      <path class="cls-10" d="M527.72,412.08a1,1,0,1,1-1-1,1,1,0,0,1,1,1" transform="translate(-515.893 -243.273)"/>
      <path class="cls-10" d="M533.12,412.08a1,1,0,1,1-1-1,1,1,0,0,1,1,1" transform="translate(-515.893 -243.273)"/>
      <path class="cls-10" d="M538.52,412.08a1,1,0,1,1-1-1,1,1,0,0,1,1,1" transform="translate(-515.893 -243.273)"/>
      <path class="cls-10" d="M543.92,412.08a1,1,0,1,1-1-1,1,1,0,0,1,1,1" transform="translate(-515.893 -243.273)"/>
      <path class="cls-10" d="M549.32,412.08a1,1,0,1,1-1-1,1,1,0,0,1,1,1" transform="translate(-515.893 -243.273)"/>
      <path class="cls-10" d="M554.72,412.08a1,1,0,1,1-1-1,1,1,0,0,1,1,1" transform="translate(-515.893 -243.273)"/>
      <path class="cls-10" d="M560.24,412.08a1,1,0,1,1-1-1,1,1,0,0,1,1,1" transform="translate(-515.893 -243.273)"/>
      <path class="cls-10" d="M565.64,412.08a1,1,0,1,1-1-1,1,1,0,0,1,1,1" transform="translate(-515.893 -243.273)"/>
      <path class="cls-10" d="M571.16,412.08a1,1,0,1,1-1-1,1,1,0,0,1,1,1" transform="translate(-515.893 -243.273)"/>
      <path class="cls-10" d="M576.44,412.08a1,1,0,1,1-1-1,1,1,0,0,1,1,1" transform="translate(-515.893 -243.273)"/>
      <path class="cls-8" d="M580.917,412.083v-8.5m5.416,8.5V397.25m5.5,14.833v-19m5.417,19V398.167m5.417,13.916V400.25m5.416,11.833v-14.25m5.417,14.25V392.25m5.417,19.833V386.75m5.5,25.333v-27.75m5.416,27.75v-25.75m5.417,25.75V391.5m5.417,20.583v-15.5m5.416,15.5V398.667m5.417,13.416V396.167m5.5,15.916V390.667m5.417,21.416v-27m5.416,27V382.667m5.417,29.416V384.667m5.417,27.416V389.75m5.416,22.333V394.917m5.5,17.166V396.917M695,412.083V394.417m5.417,17.666v-23.25m5.416,23.25V383.25m5.417,28.833v-31.25m5.417,31.25v-29.25m5.5,29.25V387.917m5.416,24.166V393M733,412.083V395m5.417,17.083v-19.5m5.416,19.5V386.917m5.417,25.166v-30.75m5.5,30.75v-33.25m5.417,33.25v-31.25m5.416,31.25V385.917M771,412.083V391m5.417,21.083V393m5.416,19.083V390.5m5.5,21.583v-27.25m5.417,27.25V379.25m5.417,32.833V376.75m5.416,35.333v-24m5.417,24V400.5" transform="translate(-515.893 -243.273)"/>
      <path class="cls-10" d="M815.48,412.08a1,1,0,1,1-1-1,1,1,0,0,1,1,1" transform="translate(-515.893 -243.273)"/>
      <path class="cls-10" d="M820.88,412.08a1,1,0,1,1-1-1,1,1,0,0,1,1,1" transform="translate(-515.893 -243.273)"/>
      <path class="cls-10" d="M826.28,412.08a1,1,0,1,1-1-1,1,1,0,0,1,1,1" transform="translate(-515.893 -243.273)"/>
      <path class="cls-10" d="M831.8,412.08a1,1,0,1,1-1-1,1,1,0,0,1,1,1" transform="translate(-515.893 -243.273)"/>
      <path class="cls-10" d="M837.2,412.08a1,1,0,1,1-1-1,1,1,0,0,1,1,1" transform="translate(-515.893 -243.273)"/>
      <path class="cls-10" d="M842.6,412.08a1,1,0,1,1-1-1,1,1,0,0,1,1,1" transform="translate(-515.893 -243.273)"/>
      <path class="cls-10" d="M848,412.08a1,1,0,1,1-1-1,1,1,0,0,1,1,1" transform="translate(-515.893 -243.273)"/>
      <path class="cls-10" d="M853.52,412.08a1,1,0,1,1-1-1,1,1,0,0,1,1,1" transform="translate(-515.893 -243.273)"/>
      <line class="cls-4" x1="10.774" y1="168.81" x2="336.607" y2="168.81"/>
    </g>
    <g>
      <path class="cls-5" d="M615.227,342.63a1.013,1.013,0,0,0-.379-.815,1.463,1.463,0,0,0-.969-.315,1.2,1.2,0,0,0-.957.383,1.846,1.846,0,0,0-.366,1.145H611.7a2.363,2.363,0,0,1,.579-1.706,2.163,2.163,0,0,1,1.638-.6,2.477,2.477,0,0,1,1.614.5,1.724,1.724,0,0,1,0,2.639,1.709,1.709,0,0,1-.254.176,2.047,2.047,0,0,1,.45.269,1.683,1.683,0,0,1,.659,1.4,2.09,2.09,0,0,1-.684,1.614,2.921,2.921,0,0,1-3.54.059,2.461,2.461,0,0,1-.654-1.741h.918a1.87,1.87,0,0,0,.435,1.174,1.522,1.522,0,0,0,1.11.354,1.537,1.537,0,0,0,1.067-.373,1.232,1.232,0,0,0,.415-.96,1.247,1.247,0,0,0-.4-.976,1.408,1.408,0,0,0-.879-.352q-.249-.015-.471-.015a1.406,1.406,0,0,0-.3.02v-.767a1.648,1.648,0,0,0,.332.025,3.293,3.293,0,0,0,.445-.03,1.275,1.275,0,0,0,.688-.278A1.006,1.006,0,0,0,615.227,342.63Z" transform="translate(-515.893 -243.273)"/>
      <path class="cls-5" d="M617.282,344.864h4.727v.738h-4.727Z" transform="translate(-515.893 -243.273)"/>
      <path class="cls-5" d="M623.146,342.525h.835v.743l.044-.064a1.726,1.726,0,0,1,1.49-.835,2.016,2.016,0,0,1,1.623.706,2.85,2.85,0,0,1,.6,1.906,3.4,3.4,0,0,1-.6,2.137,2,2,0,0,1-1.672.774,1.681,1.681,0,0,1-1.406-.679l-.03-.039v2.641h-.879Zm2.271,4.605a1.186,1.186,0,0,0,1.045-.52,2.676,2.676,0,0,0,.356-1.516,2.485,2.485,0,0,0-.341-1.453,1.217,1.217,0,0,0-1.055-.471,1.161,1.161,0,0,0-1.062.532,3.265,3.265,0,0,0-.335,1.685,2.026,2.026,0,0,0,.362,1.289A1.238,1.238,0,0,0,625.417,347.13Z" transform="translate(-515.893 -243.273)"/>
      <path class="cls-5" d="M629.15,347.13a3.315,3.315,0,0,1,0-4,2.411,2.411,0,0,1,3.518,0,3.323,3.323,0,0,1,0,4,2.411,2.411,0,0,1-3.518,0Zm2.859-.537a2.81,2.81,0,0,0,0-2.923,1.389,1.389,0,0,0-2.205,0,2.822,2.822,0,0,0,0,2.923,1.392,1.392,0,0,0,2.205,0Z" transform="translate(-515.893 -243.273)"/>
      <path class="cls-5" d="M634.357,340.572h.9v1h-.9Zm.01,1.953h.879v5.225h-.879Z" transform="translate(-515.893 -243.273)"/>
      <path class="cls-5" d="M636.56,342.525h.835v.772l.2-.259a1.775,1.775,0,0,1,3.232,1.133v3.579h-.879v-3.281a1.5,1.5,0,0,0-.266-.994,1.086,1.086,0,0,0-.862-.305,1.2,1.2,0,0,0-1.005.481,2.074,2.074,0,0,0-.372,1.3v2.8h-.878Z" transform="translate(-515.893 -243.273)"/>
      <path class="cls-5" d="M644.04,347.745a4.812,4.812,0,0,1-.654.068,1.077,1.077,0,0,1-.813-.253,1.275,1.275,0,0,1-.237-.874v-3.443h-.723v-.718h.723v-1.464h.879v1.464h.825v.718h-.825v3.443a.326.326,0,0,0,.139.278.619.619,0,0,0,.374.1h.312Z" transform="translate(-515.893 -243.273)"/>
      <path class="cls-5" d="M647.8,342.525h.835v.894a3.027,3.027,0,0,1,.239-.381,1.484,1.484,0,0,1,1.226-.669.77.77,0,0,1,.249.044v.9l-.181,0a1.412,1.412,0,0,0-1.1.427,1.748,1.748,0,0,0-.388,1.218v2.8H647.8Z" transform="translate(-515.893 -243.273)"/>
      <path class="cls-5" d="M651.916,345.9a1.428,1.428,0,0,0,.254.949,1.042,1.042,0,0,0,.825.291,1.2,1.2,0,0,0,1.006-.491,2.151,2.151,0,0,0,.371-1.331v-2.788h.879v5.225h-.835v-.8a2.456,2.456,0,0,1-.2.269,1.767,1.767,0,0,1-1.407.669,1.571,1.571,0,0,1-1.777-1.778v-3.589h.879Z" transform="translate(-515.893 -243.273)"/>
      <path class="cls-5" d="M656.569,342.525h.835v.772l.2-.259a1.775,1.775,0,0,1,3.232,1.133v3.579h-.879v-3.281a1.5,1.5,0,0,0-.266-.994,1.086,1.086,0,0,0-.862-.305,1.2,1.2,0,0,0-1.006.481,2.08,2.08,0,0,0-.371,1.3v2.8h-.879Z" transform="translate(-515.893 -243.273)"/>
      <path class="cls-5" d="M662.131,342.525h.835v.772l.195-.259a1.775,1.775,0,0,1,3.233,1.133v3.579h-.879v-3.281a1.5,1.5,0,0,0-.266-.994,1.088,1.088,0,0,0-.862-.305,1.2,1.2,0,0,0-1.006.481,2.074,2.074,0,0,0-.371,1.3v2.8h-.879Z" transform="translate(-515.893 -243.273)"/>
      <path class="cls-5" d="M667.712,340.572h.9v1h-.9Zm.01,1.953h.879v5.225h-.879Z" transform="translate(-515.893 -243.273)"/>
      <path class="cls-5" d="M669.914,342.525h.835v.772l.195-.259a1.775,1.775,0,0,1,3.233,1.133v3.579H673.3v-3.281a1.5,1.5,0,0,0-.266-.994,1.088,1.088,0,0,0-.862-.305,1.2,1.2,0,0,0-1.006.481,2.08,2.08,0,0,0-.371,1.3v2.8h-.879Z" transform="translate(-515.893 -243.273)"/>
      <path class="cls-5" d="M677.39,349.229a1.411,1.411,0,0,0,1.152-.476,2.122,2.122,0,0,0,.4-1.389v-.171l0,0a1.713,1.713,0,0,1-1.416.694,2.019,2.019,0,0,1-1.67-.784,3.317,3.317,0,0,1-.62-2.117,2.844,2.844,0,0,1,.61-1.9,1.989,1.989,0,0,1,1.6-.723,1.717,1.717,0,0,1,1.494.816l.063.092v-.752h.825v4.839a2.807,2.807,0,0,1-.6,1.958,2.367,2.367,0,0,1-1.817.635,2.228,2.228,0,0,1-1.411-.41,1.749,1.749,0,0,1-.63-1.192h.9a1.012,1.012,0,0,0,.373.647A1.2,1.2,0,0,0,677.39,349.229Zm.171-6.059a1.238,1.238,0,0,0-1.077.469,2.574,2.574,0,0,0-.339,1.489,2.547,2.547,0,0,0,.368,1.482,1.208,1.208,0,0,0,1.048.52,1.264,1.264,0,0,0,1.03-.479,1.936,1.936,0,0,0,.39-1.264,3.133,3.133,0,0,0-.354-1.663A1.178,1.178,0,0,0,677.561,343.17Z" transform="translate(-515.893 -243.273)"/>
      <path class="cls-5" d="M685.192,347.892a1.731,1.731,0,0,1-1.215-.411,1.425,1.425,0,0,1-.45-1.108,1.5,1.5,0,0,1,.422-1.118,2.087,2.087,0,0,1,1.234-.518l1.2-.151a1.829,1.829,0,0,0,.278-.049.445.445,0,0,0,.264-.176.568.568,0,0,0,.093-.332v-.044a.772.772,0,0,0-.318-.656,1.45,1.45,0,0,0-.883-.237,1.3,1.3,0,0,0-.848.251,1.109,1.109,0,0,0-.368.75h-.811a1.724,1.724,0,0,1,.606-1.292,2.439,2.439,0,0,1,1.552-.432,2.225,2.225,0,0,1,1.451.413,1.473,1.473,0,0,1,.5,1.2v2.871a.276.276,0,0,0,.3.293,1.036,1.036,0,0,0,.115-.009c.05-.007.105-.016.164-.03v.635a1.614,1.614,0,0,1-.269.078,1.192,1.192,0,0,1-.239.03.885.885,0,0,1-.723-.274,1.155,1.155,0,0,1-.21-.513,1.823,1.823,0,0,1-.224.235A2.329,2.329,0,0,1,685.192,347.892Zm1.822-2.212v-.567a1.881,1.881,0,0,1-.542.161l-.806.118a2.16,2.16,0,0,0-.928.3.656.656,0,0,0-.293.564.906.906,0,0,0,.24.676.921.921,0,0,0,.678.237,1.837,1.837,0,0,0,1.172-.376,1.275,1.275,0,0,0,.435-.6,1.1,1.1,0,0,0,.029-.2A2.98,2.98,0,0,0,687.014,345.68Z" transform="translate(-515.893 -243.273)"/>
      <path class="cls-5" d="M688.806,342.525h1.027l1.4,4.278h0l1.449-4.278h.969L691.7,347.75h-.942Z" transform="translate(-515.893 -243.273)"/>
      <path class="cls-5" d="M696.506,347.892a2.229,2.229,0,0,1-1.743-.7,2.793,2.793,0,0,1-.635-1.943,3.1,3.1,0,0,1,.672-2.1,2.261,2.261,0,0,1,1.8-.779,2.043,2.043,0,0,1,1.655.762,3.04,3.04,0,0,1,.63,2l-.011.312h-3.815a2.261,2.261,0,0,0,.355,1.192,1.366,1.366,0,0,0,1.172.5,1.415,1.415,0,0,0,.878-.283,1.15,1.15,0,0,0,.459-.723h.869a2.2,2.2,0,0,1-.781,1.311A2.4,2.4,0,0,1,696.506,347.892Zm1.467-3.155a1.961,1.961,0,0,0-.362-1.133,1.255,1.255,0,0,0-1.045-.449,1.348,1.348,0,0,0-1.108.518,1.961,1.961,0,0,0-.395,1.064Z" transform="translate(-515.893 -243.273)"/>
      <path class="cls-5" d="M700.061,342.525h.835v.894a3.027,3.027,0,0,1,.239-.381,1.482,1.482,0,0,1,1.225-.669.77.77,0,0,1,.249.044v.9l-.18,0a1.409,1.409,0,0,0-1.1.427,1.744,1.744,0,0,0-.389,1.218v2.8h-.878Z" transform="translate(-515.893 -243.273)"/>
      <path class="cls-5" d="M704.646,347.892a1.732,1.732,0,0,1-1.216-.411,1.425,1.425,0,0,1-.45-1.108,1.5,1.5,0,0,1,.422-1.118,2.089,2.089,0,0,1,1.234-.518l1.2-.151a1.829,1.829,0,0,0,.278-.049.439.439,0,0,0,.264-.176.561.561,0,0,0,.093-.332v-.044a.772.772,0,0,0-.318-.656,1.446,1.446,0,0,0-.883-.237,1.3,1.3,0,0,0-.848.251,1.109,1.109,0,0,0-.368.75h-.811a1.724,1.724,0,0,1,.606-1.292,2.439,2.439,0,0,1,1.552-.432,2.225,2.225,0,0,1,1.451.413,1.473,1.473,0,0,1,.5,1.2v2.871a.291.291,0,0,0,.08.213.3.3,0,0,0,.218.08,1.039,1.039,0,0,0,.114-.009c.051-.007.105-.016.164-.03v.635a1.614,1.614,0,0,1-.269.078,1.183,1.183,0,0,1-.239.03.885.885,0,0,1-.723-.274,1.155,1.155,0,0,1-.21-.513,1.823,1.823,0,0,1-.224.235A2.329,2.329,0,0,1,704.646,347.892Zm1.821-2.212v-.567a1.881,1.881,0,0,1-.542.161l-.806.118a2.16,2.16,0,0,0-.928.3.656.656,0,0,0-.293.564.91.91,0,0,0,.24.676.921.921,0,0,0,.678.237,1.837,1.837,0,0,0,1.172-.376,1.269,1.269,0,0,0,.435-.6,1.019,1.019,0,0,0,.029-.2A2.98,2.98,0,0,0,706.467,345.68Z" transform="translate(-515.893 -243.273)"/>
      <path class="cls-5" d="M710.744,349.229a1.408,1.408,0,0,0,1.152-.476,2.122,2.122,0,0,0,.4-1.389v-.171l0,0a1.711,1.711,0,0,1-1.416.694,2.019,2.019,0,0,1-1.67-.784,3.323,3.323,0,0,1-.62-2.117,2.844,2.844,0,0,1,.61-1.9,1.992,1.992,0,0,1,1.6-.723,1.717,1.717,0,0,1,1.494.816l.064.092v-.752h.825v4.839a2.807,2.807,0,0,1-.6,1.958,2.364,2.364,0,0,1-1.816.635,2.226,2.226,0,0,1-1.411-.41,1.742,1.742,0,0,1-.63-1.192h.9a1.017,1.017,0,0,0,.373.647A1.2,1.2,0,0,0,710.744,349.229Zm.171-6.059a1.236,1.236,0,0,0-1.076.469,2.565,2.565,0,0,0-.34,1.489,2.539,2.539,0,0,0,.369,1.482,1.206,1.206,0,0,0,1.047.52,1.263,1.263,0,0,0,1.03-.479,1.931,1.931,0,0,0,.391-1.264,3.122,3.122,0,0,0-.355-1.663A1.176,1.176,0,0,0,710.915,343.17Z" transform="translate(-515.893 -243.273)"/>
      <path class="cls-5" d="M716.521,347.892a2.229,2.229,0,0,1-1.744-.7,2.793,2.793,0,0,1-.634-1.943,3.1,3.1,0,0,1,.671-2.1,2.262,2.262,0,0,1,1.8-.779,2.041,2.041,0,0,1,1.655.762,3.04,3.04,0,0,1,.63,2l-.01.312h-3.816a2.251,2.251,0,0,0,.356,1.192,1.364,1.364,0,0,0,1.171.5,1.415,1.415,0,0,0,.878-.283,1.146,1.146,0,0,0,.459-.723h.87a2.2,2.2,0,0,1-.782,1.311A2.4,2.4,0,0,1,716.521,347.892Zm1.466-3.155a1.954,1.954,0,0,0-.361-1.133,1.255,1.255,0,0,0-1.045-.449,1.346,1.346,0,0,0-1.108.518,1.969,1.969,0,0,0-.4,1.064Z" transform="translate(-515.893 -243.273)"/>
      <path class="cls-5" d="M723.825,343.253v4.5h-.879v-4.5h-.722v-.728h.722v-.888a1.091,1.091,0,0,1,.342-.874,1.536,1.536,0,0,1,1.025-.293l.386.014v.791l-.346-.014a.481.481,0,0,0-.391.163.711.711,0,0,0-.137.467v.634h.874v.728Z" transform="translate(-515.893 -243.273)"/>
      <path class="cls-5" d="M725.529,340.572h.9v1h-.9Zm.01,1.953h.879v5.225h-.879Z" transform="translate(-515.893 -243.273)"/>
      <path class="cls-5" d="M727.751,340.572h.879v7.178h-.879Z" transform="translate(-515.893 -243.273)"/>
      <path class="cls-5" d="M731.872,347.745a4.827,4.827,0,0,1-.654.068,1.08,1.08,0,0,1-.813-.253,1.275,1.275,0,0,1-.237-.874v-3.443h-.723v-.718h.723v-1.464h.879v1.464h.825v.718h-.825v3.443a.325.325,0,0,0,.14.278.612.612,0,0,0,.373.1h.312Z" transform="translate(-515.893 -243.273)"/>
      <path class="cls-5" d="M734.86,347.892a2.229,2.229,0,0,1-1.743-.7,2.793,2.793,0,0,1-.635-1.943,3.1,3.1,0,0,1,.672-2.1,2.262,2.262,0,0,1,1.8-.779,2.042,2.042,0,0,1,1.655.762,3.04,3.04,0,0,1,.63,2l-.011.312h-3.815a2.261,2.261,0,0,0,.355,1.192,1.367,1.367,0,0,0,1.172.5,1.415,1.415,0,0,0,.878-.283,1.146,1.146,0,0,0,.459-.723h.869a2.194,2.194,0,0,1-.781,1.311A2.4,2.4,0,0,1,734.86,347.892Zm1.467-3.155a1.954,1.954,0,0,0-.361-1.133,1.255,1.255,0,0,0-1.045-.449,1.346,1.346,0,0,0-1.108.518,1.969,1.969,0,0,0-.4,1.064Z" transform="translate(-515.893 -243.273)"/>
      <path class="cls-5" d="M738.415,342.525h.835v.894a3.027,3.027,0,0,1,.239-.381,1.483,1.483,0,0,1,1.226-.669.77.77,0,0,1,.249.044v.9l-.181,0a1.407,1.407,0,0,0-1.1.427,1.744,1.744,0,0,0-.389,1.218v2.8h-.879Z" transform="translate(-515.893 -243.273)"/>
      <path class="cls-5" d="M744.523,342.525h.835v.894a3.149,3.149,0,0,1,.24-.381,1.482,1.482,0,0,1,1.225-.669.77.77,0,0,1,.249.044v.9l-.18,0a1.409,1.409,0,0,0-1.1.427,1.744,1.744,0,0,0-.389,1.218v2.8h-.879Z" transform="translate(-515.893 -243.273)"/>
      <path class="cls-5" d="M749.86,347.892a2.229,2.229,0,0,1-1.743-.7,2.793,2.793,0,0,1-.635-1.943,3.1,3.1,0,0,1,.672-2.1,2.262,2.262,0,0,1,1.8-.779,2.042,2.042,0,0,1,1.655.762,3.04,3.04,0,0,1,.63,2l-.011.312h-3.815a2.261,2.261,0,0,0,.355,1.192,1.367,1.367,0,0,0,1.172.5,1.415,1.415,0,0,0,.878-.283,1.146,1.146,0,0,0,.459-.723h.869a2.194,2.194,0,0,1-.781,1.311A2.4,2.4,0,0,1,749.86,347.892Zm1.467-3.155a1.954,1.954,0,0,0-.361-1.133,1.255,1.255,0,0,0-1.045-.449,1.346,1.346,0,0,0-1.108.518,1.969,1.969,0,0,0-.4,1.064Z" transform="translate(-515.893 -243.273)"/>
      <path class="cls-5" d="M756.285,344.039a.908.908,0,0,0-.354-.674,1.372,1.372,0,0,0-.848-.239,1.5,1.5,0,0,0-.832.19.627.627,0,0,0-.286.557.479.479,0,0,0,.2.42,2.577,2.577,0,0,0,.8.283l.908.215a2.306,2.306,0,0,1,1.09.513,1.217,1.217,0,0,1,.323.9,1.5,1.5,0,0,1-.559,1.231,2.329,2.329,0,0,1-1.511.454,2.6,2.6,0,0,1-1.646-.437,1.819,1.819,0,0,1-.6-1.375h.845a1.111,1.111,0,0,0,.392.806,1.673,1.673,0,0,0,1.009.249,1.5,1.5,0,0,0,.9-.225.759.759,0,0,0,.306-.654.474.474,0,0,0-.2-.415,2.6,2.6,0,0,0-.806-.283l-.908-.215a2.181,2.181,0,0,1-1.05-.493,1.188,1.188,0,0,1-.313-.879,1.438,1.438,0,0,1,.524-1.17,2.174,2.174,0,0,1,1.423-.432,2.213,2.213,0,0,1,1.452.444,1.6,1.6,0,0,1,.574,1.226Z" transform="translate(-515.893 -243.273)"/>
      <path class="cls-5" d="M759.2,345.9a1.433,1.433,0,0,0,.254.949,1.042,1.042,0,0,0,.825.291,1.2,1.2,0,0,0,1.006-.491,2.157,2.157,0,0,0,.371-1.331v-2.788h.879v5.225H761.7v-.8a2.331,2.331,0,0,1-.2.269,1.763,1.763,0,0,1-1.406.669,1.573,1.573,0,0,1-1.778-1.778v-3.589h.879Z" transform="translate(-515.893 -243.273)"/>
      <path class="cls-5" d="M763.874,340.572h.879v7.178h-.879Z" transform="translate(-515.893 -243.273)"/>
      <path class="cls-5" d="M768,347.745a4.812,4.812,0,0,1-.654.068,1.08,1.08,0,0,1-.813-.253,1.275,1.275,0,0,1-.237-.874v-3.443h-.723v-.718h.723v-1.464h.879v1.464H768v.718h-.825v3.443a.325.325,0,0,0,.14.278.612.612,0,0,0,.373.1H768Z" transform="translate(-515.893 -243.273)"/>
    </g>
  </g>
</svg>
