<svg id="Layer_1" data-name="Layer 1" xmlns="http://www.w3.org/2000/svg" viewBox="0 0 407.478 36.283">
  <defs>
    <style>
      .cls-1 {
        fill: none;
        stroke: #000;
        stroke-miterlimit: 10;
        stroke-width: 0.85px;
      }

      .cls-2 {
        fill: #1d1d1b;
      }
    </style>
  </defs>
  <title>associative</title>
  <g>
    <polygon class="cls-1" points="35.433 18.142 35.433 35.858 77.952 35.858 77.952 0.425 35.433 0.425 35.433 18.142"/>
    <path class="cls-2" d="M47.859,17.028a1.849,1.849,0,0,1,1.475-.768,1.014,1.014,0,0,1,1.146,1.067,8.974,8.974,0,0,1-.608,2.192,1.887,1.887,0,0,0-.179.707c0,.229.069.329.239.329.548,0,.867-.708,1.016-1.236.05-.149.05-.179.15-.179.029,0,.119,0,.119.1,0,.08-.368,1.534-1.3,1.534a.8.8,0,0,1-.817-.816,1.508,1.508,0,0,1,.13-.549,8.489,8.489,0,0,0,.617-2.231c0-.359-.11-.7-.538-.7a1.579,1.579,0,0,0-.956.35,2.939,2.939,0,0,0-.678.916c-.01.06-.089.389-.109.448-.05.23-.11.449-.17.668l-.219.9-.19.757a.414.414,0,0,1-.368.258.273.273,0,0,1-.289-.278.616.616,0,0,1,.04-.22l1.445-5.738.029-.2c0-.1-.02-.169-.5-.169-.149,0-.239,0-.239-.12,0-.179.109-.189.19-.2.258-.02.986-.1,1.215-.1.13,0,.13.1.13.109Z"/>
    <path class="cls-2" d="M53.871,21.529c0,.231,0,.322.7.322h.265V22.1c-.153-.007-1.032-.029-1.248-.029-.258,0-1.116.022-1.241.029v-.251h.264c.7,0,.7-.091.7-.322V17.974a2.3,2.3,0,0,1-1.011.2v-.251a1.905,1.905,0,0,0,1.367-.446c.2,0,.209.007.209.2Z"/>
    <path class="cls-2" d="M57.148,23.155V13.191h1.365v.4h-.967v9.167h.967v.4Z"/>
    <path class="cls-2" d="M60.185,17.775a3.227,3.227,0,0,0,.159-.837c0-.329-.11-.459-.309-.459-.358,0-.558.479-.727,1.187-.06.219-.07.229-.169.229-.02,0-.12,0-.12-.1a4.96,4.96,0,0,1,.3-.966.869.869,0,0,1,.747-.569.9.9,0,0,1,.917.867,1.926,1.926,0,0,1,1.554-.867,1.019,1.019,0,0,1,1.146,1.067,8.937,8.937,0,0,1-.608,2.192,1.887,1.887,0,0,0-.179.707c0,.229.07.329.239.329.488,0,.817-.559,1.016-1.236.05-.149.05-.179.15-.179.03,0,.119,0,.119.1,0,.08-.368,1.534-1.3,1.534a.8.8,0,0,1-.817-.816,1.136,1.136,0,0,1,.1-.459,9.5,9.5,0,0,0,.647-2.321c0-.329-.089-.7-.538-.7A1.984,1.984,0,0,0,60.882,17.7c-.01.04-.09.329-.13.5-.049.23-.109.449-.169.668l-.219.9c-.06.249-.179.717-.189.737a.407.407,0,0,1-.369.278.266.266,0,0,1-.289-.268c0-.05.06-.279.09-.429Z"/>
    <path class="cls-2" d="M66.314,23.155H64.949v-.4h.967V13.59h-.967v-.4h1.365Z"/>
    <path class="cls-2" d="M15.61,11.935a3.858,3.858,0,0,0-.17.877c0,.338.16.657.548.657.319,0,1-.239,1.325-1.3.02-.07.041-.11.13-.11.03,0,.12,0,.12.1,0,.249-.568,1.534-1.595,1.534a1.1,1.1,0,0,1-1.075-.757,1.327,1.327,0,0,1-1.047.757c-.438,0-.936-.2-.936-.657a.566.566,0,0,1,.548-.578.34.34,0,0,1,.368.348.563.563,0,0,1-.468.538.954.954,0,0,0,.5.13c.438,0,.787-.419.947-1.036a14.614,14.614,0,0,0,.538-2.371c0-.579-.349-.668-.538-.668-.339,0-1,.249-1.335,1.3-.02.09-.051.11-.13.11-.02,0-.12,0-.12-.1,0-.249.569-1.535,1.605-1.535a1.1,1.1,0,0,1,1.076.758,1.29,1.29,0,0,1,1.046-.758c.339,0,.927.14.927.658a.556.556,0,0,1-.539.578.347.347,0,0,1-.378-.348.579.579,0,0,1,.478-.539.98.98,0,0,0-.5-.129c-.7,0-.927.917-.986,1.175Z"/>
    <path class="cls-2" d="M19.437,16.07V6.105H20.8v.4h-.967v9.167H20.8v.4Z"/>
    <path class="cls-2" d="M22.474,10.689a3.175,3.175,0,0,0,.159-.837c0-.329-.11-.458-.309-.458-.358,0-.558.478-.727,1.186-.06.219-.07.229-.169.229-.02,0-.12,0-.12-.1a4.96,4.96,0,0,1,.3-.966.87.87,0,0,1,.747-.569.9.9,0,0,1,.917.868,1.924,1.924,0,0,1,1.554-.868,1.019,1.019,0,0,1,1.146,1.067,8.937,8.937,0,0,1-.608,2.192,1.892,1.892,0,0,0-.179.707c0,.229.07.329.239.329.488,0,.817-.558,1.016-1.236.05-.149.05-.179.15-.179.03,0,.119,0,.119.1,0,.079-.368,1.534-1.3,1.534a.8.8,0,0,1-.817-.817,1.132,1.132,0,0,1,.1-.458,9.519,9.519,0,0,0,.647-2.322c0-.329-.089-.7-.538-.7a1.983,1.983,0,0,0-1.624,1.215c-.01.04-.089.329-.129.5-.05.23-.11.449-.169.668l-.22.9c-.06.249-.179.717-.189.737a.408.408,0,0,1-.369.279.266.266,0,0,1-.289-.269c0-.05.06-.279.09-.428Z"/>
    <path class="cls-2" d="M28.6,16.07H27.23v-.4H28.2V6.5H27.23v-.4H28.6Z"/>
    <polyline points="30.897 20.409 35.433 18.142 30.897 15.874 32.031 18.142"/>
    <line class="cls-1" y1="18.142" x2="32.031" y2="18.142"/>
    <polyline points="94.677 20.409 99.212 18.142 94.677 15.874 95.81 18.142"/>
    <path class="cls-1" d="M77.952,18.142H95.81m3.4,0V35.858h42.52V.425H99.212Z"/>
    <path class="cls-2" d="M111.633,17.028a1.845,1.845,0,0,1,1.474-.768,1.014,1.014,0,0,1,1.146,1.067,8.974,8.974,0,0,1-.607,2.192,1.888,1.888,0,0,0-.18.707c0,.229.07.329.239.329.548,0,.867-.708,1.017-1.236.049-.149.049-.179.149-.179.03,0,.12,0,.12.1,0,.08-.369,1.534-1.3,1.534a.8.8,0,0,1-.818-.816,1.508,1.508,0,0,1,.13-.549,8.455,8.455,0,0,0,.618-2.231c0-.359-.11-.7-.538-.7a1.582,1.582,0,0,0-.957.35,2.939,2.939,0,0,0-.678.916c-.009.06-.089.389-.109.448-.05.23-.11.449-.169.668l-.22.9-.189.757a.415.415,0,0,1-.369.258.273.273,0,0,1-.289-.278.616.616,0,0,1,.04-.22l1.445-5.738.03-.2c0-.1-.02-.169-.5-.169-.15,0-.24,0-.24-.12,0-.179.11-.189.19-.2.259-.02.986-.1,1.215-.1.13,0,.13.1.13.109Z"/>
    <path class="cls-2" d="M118.621,22.1h-2.873c0-.2,0-.209.069-.272l1.681-1.66a2.119,2.119,0,0,0,.655-1.338,1.044,1.044,0,0,0-1.06-1.109,1.1,1.1,0,0,0-1.018.649c.363,0,.412.243.412.369a.37.37,0,1,1-.739-.021,1.352,1.352,0,0,1,1.45-1.248,1.46,1.46,0,0,1,1.632,1.36,2.017,2.017,0,0,1-1,1.5c-.419.328-.663.523-1.395,1.172h1.283a3.589,3.589,0,0,0,.69-.042,1.6,1.6,0,0,0,.181-.635h.238Z"/>
    <path class="cls-2" d="M120.921,23.155V13.191h1.366v.4h-.967v9.167h.967v.4Z"/>
    <path class="cls-2" d="M123.966,17.775a3.182,3.182,0,0,0,.159-.837c0-.329-.109-.459-.309-.459-.358,0-.558.479-.727,1.187-.06.219-.069.229-.169.229-.02,0-.12,0-.12-.1a4.96,4.96,0,0,1,.3-.966.87.87,0,0,1,.747-.569.9.9,0,0,1,.917.867,1.928,1.928,0,0,1,1.554-.867,1.018,1.018,0,0,1,1.146,1.067,8.937,8.937,0,0,1-.608,2.192,1.906,1.906,0,0,0-.179.707c0,.229.07.329.24.329.487,0,.816-.559,1.016-1.236.049-.149.049-.179.149-.179.03,0,.12,0,.12.1,0,.08-.369,1.534-1.3,1.534a.8.8,0,0,1-.818-.816,1.136,1.136,0,0,1,.1-.459,9.5,9.5,0,0,0,.648-2.321c0-.329-.09-.7-.538-.7a1.981,1.981,0,0,0-1.624,1.216c-.011.04-.09.329-.13.5-.05.23-.11.449-.169.668l-.219.9c-.061.249-.18.717-.19.737a.407.407,0,0,1-.369.278.266.266,0,0,1-.289-.268c0-.05.06-.279.09-.429Z"/>
    <path class="cls-2" d="M130.1,23.155H128.73v-.4h.967V13.59h-.967v-.4H130.1Z"/>
    <path class="cls-2" d="M154.936,13.588a2.628,2.628,0,0,1-2.332,2.033.943.943,0,0,1-1.056-.867.574.574,0,0,1,.558-.647.339.339,0,0,1,.369.349.541.541,0,0,1-.2.408.573.573,0,0,1-.429.119.805.805,0,0,0,.757.419,1.427,1.427,0,0,0,1.1-.628,3.823,3.823,0,0,0,.647-1.534,1.407,1.407,0,0,1-1.006.448,1.111,1.111,0,0,1-1.216-1.186,6.59,6.59,0,0,1,.578-2.092,2.1,2.1,0,0,0,.17-.7c0-.318-.17-.318-.249-.318-.339,0-.738.3-1.007,1.235-.05.16-.059.18-.159.18-.02,0-.12,0-.12-.1s.369-1.535,1.315-1.535a.791.791,0,0,1,.818.818,1.8,1.8,0,0,1-.2.717,5.965,5.965,0,0,0-.508,1.953c0,.369.11.807.618.807a1.387,1.387,0,0,0,1.126-.847l.448-1.793c.06-.269.13-.538.2-.8.04-.179.12-.488.14-.538a.434.434,0,0,1,.349-.209.267.267,0,0,1,.289.269.622.622,0,0,1-.04.229Z"/>
    <path class="cls-2" d="M157.5,16.07V6.105h1.365v.4H157.9v9.167h.967v.4Z"/>
    <path class="cls-2" d="M160.544,10.689a3.194,3.194,0,0,0,.16-.837c0-.329-.11-.458-.309-.458-.359,0-.559.478-.728,1.186-.06.219-.069.229-.169.229-.02,0-.12,0-.12-.1a5.035,5.035,0,0,1,.3-.966.87.87,0,0,1,.747-.569.9.9,0,0,1,.917.868,1.926,1.926,0,0,1,1.555-.868,1.019,1.019,0,0,1,1.146,1.067,8.982,8.982,0,0,1-.608,2.192,1.893,1.893,0,0,0-.18.707c0,.229.07.329.24.329.487,0,.817-.558,1.016-1.236.05-.149.05-.179.149-.179.03,0,.12,0,.12.1,0,.079-.369,1.534-1.305,1.534a.8.8,0,0,1-.818-.817,1.15,1.15,0,0,1,.1-.458,9.475,9.475,0,0,0,.648-2.322c0-.329-.09-.7-.538-.7a1.98,1.98,0,0,0-1.624,1.215c-.011.04-.09.329-.13.5-.05.23-.11.449-.169.668l-.219.9c-.06.249-.18.717-.19.737a.408.408,0,0,1-.368.279.267.267,0,0,1-.29-.269c0-.05.061-.279.09-.428Z"/>
    <path class="cls-2" d="M166.674,16.07h-1.365v-.4h.966V6.5h-.966v-.4h1.365Z"/>
    <polyline points="172.629 20.409 177.164 18.142 172.629 15.874 173.763 18.142"/>
    <line class="cls-1" x1="141.732" y1="18.142" x2="173.763" y2="18.142"/>
    <g>
      <path class="cls-2" d="M194.238,13.824c.11.329.25.4.847.4h.18v.309c-.419-.02-.877-.03-1.306-.03-.378,0-1.076,0-1.434.03v-.309c.269,0,.827,0,.827-.3a.677.677,0,0,0-.03-.139l-.528-1.525h-2.461l-.458,1.3a.624.624,0,0,0-.021.15c0,.259.25.508.748.508v.309c-.319-.01-.837-.03-1.146-.03-.359,0-.788.02-1.017.03v-.309a1.035,1.035,0,0,0,1.116-.668L191.618,7.6c.05-.139.08-.2.239-.2s.18.07.229.2Zm-3.8-1.873h2.242l-1.126-3.238Z"/>
      <path class="cls-2" d="M196.38,12.14a1.062,1.062,0,0,1-.429-.847c0-.558.379-1.225,1.594-1.225a1.534,1.534,0,0,1,.937.279,1.35,1.35,0,0,0,.17-.159c.129-.12.149-.12.2-.12.109,0,.109.07.109.239v1.006c0,.189,0,.24-.129.24a.107.107,0,0,1-.12-.09,1.1,1.1,0,0,0-1.166-1.206c-.857,0-1.115.409-1.115.758,0,.577.667.707,1.225.817a2.025,2.025,0,0,1,1.136.478,1.281,1.281,0,0,1,.418.946c0,.718-.458,1.385-1.6,1.385a1.491,1.491,0,0,1-1.1-.428,2.252,2.252,0,0,0-.2.229c-.189.189-.2.2-.249.2-.11,0-.11-.069-.11-.239V13.087c0-.179,0-.249.13-.249.1,0,.109.04.139.169.19.847.549,1.415,1.385,1.415.778,0,1.126-.4,1.126-.906,0-.718-.817-.877-1.036-.917A2.617,2.617,0,0,1,196.38,12.14Z"/>
      <path class="cls-2" d="M200.335,12.14a1.062,1.062,0,0,1-.429-.847c0-.558.379-1.225,1.594-1.225a1.538,1.538,0,0,1,.938.279,1.413,1.413,0,0,0,.169-.159c.129-.12.149-.12.2-.12.11,0,.11.07.11.239v1.006c0,.189,0,.24-.13.24a.106.106,0,0,1-.119-.09,1.1,1.1,0,0,0-1.167-1.206c-.856,0-1.115.409-1.115.758,0,.577.667.707,1.225.817a2.025,2.025,0,0,1,1.136.478,1.281,1.281,0,0,1,.419.946c0,.718-.458,1.385-1.6,1.385a1.492,1.492,0,0,1-1.1-.428,2.252,2.252,0,0,0-.2.229c-.189.189-.2.2-.249.2-.11,0-.11-.069-.11-.239V13.087c0-.179,0-.249.13-.249.1,0,.11.04.139.169.19.847.549,1.415,1.386,1.415.777,0,1.126-.4,1.126-.906,0-.718-.818-.877-1.037-.917A2.617,2.617,0,0,1,200.335,12.14Z"/>
      <path class="cls-2" d="M206.015,14.641a2.224,2.224,0,0,1-2.2-2.242,2.211,2.211,0,1,1,4.415,0A2.22,2.22,0,0,1,206.015,14.641Zm1.165-.986a3.031,3.031,0,0,0,.219-1.335,2.743,2.743,0,0,0-.258-1.385,1.307,1.307,0,0,0-1.126-.648,1.339,1.339,0,0,0-1.138.668,2.867,2.867,0,0,0-.238,1.365,2.969,2.969,0,0,0,.249,1.4,1.3,1.3,0,0,0,1.136.667A1.284,1.284,0,0,0,207.18,13.655Z"/>
    </g>
    <g>
      <path class="cls-2" d="M211.324,14.392a1.3,1.3,0,0,0,1.306-1.046.115.115,0,0,1,.13-.1c.029,0,.129,0,.129.1a1.639,1.639,0,0,1-1.654,1.3,2.2,2.2,0,0,1-2.142-2.262,2.233,2.233,0,0,1,2.162-2.311c.767,0,1.524.389,1.524,1.066a.459.459,0,1,1-.917.01.45.45,0,0,1,.469-.458,1.625,1.625,0,0,0-1.066-.369c-.529,0-1.345.418-1.345,2.042C209.92,13.964,210.8,14.392,211.324,14.392Z"/>
      <path class="cls-2" d="M214.971,13.785c0,.388.04.438.7.438v.309c-.339-.01-.688-.03-1.036-.03-.239,0-.778.02-1.1.03v-.309c.667,0,.777,0,.777-.449v-2.68c0-.488-.089-.548-.737-.548v-.309l1.4-.11Zm-.489-4.863a.532.532,0,0,1-.528-.528.538.538,0,0,1,.528-.528.528.528,0,1,1,0,1.056Z"/>
      <path class="cls-2" d="M218.009,14.641c-.628,0-1.594-.249-1.594-1.056a1.451,1.451,0,0,1,1-1.3,4.85,4.85,0,0,1,1.833-.359v-.368a1.128,1.128,0,0,0-1.056-1.276,1.4,1.4,0,0,0-1.076.459.451.451,0,0,1,.508.458.459.459,0,1,1-.917-.01c0-.658.688-1.126,1.5-1.126a1.9,1.9,0,0,1,1.365.548,1.472,1.472,0,0,1,.359,1.176v1.993c0,.049.04.5.369.5.109,0,.358-.06.358-.638v-.558h.249v.558a.845.845,0,0,1-.817.946.834.834,0,0,1-.777-.817A1.377,1.377,0,0,1,218.009,14.641Zm-.827-1.066a.858.858,0,0,0,.9.847,1.2,1.2,0,0,0,1.166-1.285v-1C217.6,12.2,217.182,13.027,217.182,13.575Z"/>
      <path class="cls-2" d="M222.731,13.316c0,.169,0,1.076.668,1.076.369,0,.667-.378.667-1.116v-.548h.249V13.3c0,.638-.278,1.345-.986,1.345a1.205,1.205,0,0,1-1.285-1.345v-2.75H221.2v-.219c.977-.04,1.276-1.106,1.285-1.923h.249v1.833h1.425v.309h-1.425Z"/>
      <path class="cls-2" d="M226.667,13.785c0,.388.04.438.7.438v.309c-.339-.01-.687-.03-1.036-.03-.239,0-.777.02-1.1.03v-.309c.667,0,.778,0,.778-.449v-2.68c0-.488-.09-.548-.738-.548v-.309l1.4-.11Zm-.488-4.863a.532.532,0,0,1-.529-.528.539.539,0,0,1,.529-.528.528.528,0,1,1,0,1.056Z"/>
      <path class="cls-2" d="M230.532,14.452c-.04.1-.08.189-.209.189s-.149-.05-.21-.189l-1.434-3.537c-.13-.309-.169-.369-.8-.369v-.309c.3.02.7.03.967.03.228,0,.787-.02,1.086-.03v.309c-.18,0-.569,0-.569.259,0,.02,0,.04.06.17l1.116,2.779,1.017-2.54a.6.6,0,0,0,.059-.239c0-.19-.109-.419-.478-.429v-.309c.17.01.628.03.867.03s.518-.01.747-.03v.309a.9.9,0,0,0-.916.668Z"/>
    </g>
    <path class="cls-2" d="M234.034,13.725a1.341,1.341,0,0,0,1.126.667,1.4,1.4,0,0,0,1.345-1.026c.019-.08.04-.139.13-.139a.115.115,0,0,1,.129.119,1.7,1.7,0,0,1-1.664,1.3,2.249,2.249,0,0,1-2.192-2.3,2.177,2.177,0,0,1,2.072-2.272,1.767,1.767,0,0,1,1.784,1.953c0,.209-.03.209-.249.209h-2.78A2.9,2.9,0,0,0,234.034,13.725Zm2.072-1.7c0-.389-.1-1.734-1.126-1.734-.338,0-1.175.249-1.235,1.734Z"/>
    <path class="cls-2" d="M214.981,23.491a4.328,4.328,0,0,1-.866-1.454c0-.12.11-.12.2-.12.12,0,.16.011.2.1a4.543,4.543,0,0,0,2.421,2.462c.2.088.209.1.229.119a.123.123,0,0,1,.01.059c0,.071-.03.08-.169.14a4.553,4.553,0,0,0-2.451,2.391c-.09.2-.09.209-.24.209-.089,0-.2,0-.2-.119a4.328,4.328,0,0,1,.866-1.455H210.09a4.328,4.328,0,0,1,.866,1.455c0,.119-.109.119-.2.119-.119,0-.159-.009-.2-.1a4.544,4.544,0,0,0-2.421-2.461c-.2-.09-.209-.1-.23-.12a.125.125,0,0,1-.01-.06c0-.069.031-.079.169-.139a4.565,4.565,0,0,0,2.452-2.391c.089-.2.089-.21.239-.21.09,0,.2,0,.2.12a4.328,4.328,0,0,1-.866,1.454Zm.389,1.934a4.943,4.943,0,0,1,1.047-.768,5.382,5.382,0,0,1-1.047-.766H209.7a4.883,4.883,0,0,1-1.047.766,5.347,5.347,0,0,1,1.047.768Z"/>
    <polygon class="cls-1" points="301.179 18.142 301.179 35.858 372.045 35.858 372.045 0.425 301.179 0.425 301.179 18.142"/>
    <path class="cls-2" d="M312.172,17.028a1.85,1.85,0,0,1,1.475-.768,1.014,1.014,0,0,1,1.146,1.067,8.93,8.93,0,0,1-.608,2.192,1.906,1.906,0,0,0-.179.707c0,.229.069.329.239.329.548,0,.866-.708,1.016-1.236.05-.149.05-.179.149-.179.03,0,.12,0,.12.1,0,.08-.369,1.534-1.3,1.534a.8.8,0,0,1-.817-.816,1.525,1.525,0,0,1,.129-.549,8.455,8.455,0,0,0,.618-2.231c0-.359-.109-.7-.538-.7a1.584,1.584,0,0,0-.957.35,2.948,2.948,0,0,0-.677.916c-.01.06-.089.389-.11.448-.05.23-.109.449-.169.668l-.22.9-.188.757a.416.416,0,0,1-.369.258.273.273,0,0,1-.289-.278.616.616,0,0,1,.04-.22l1.444-5.738.03-.2c0-.1-.019-.169-.5-.169-.149,0-.239,0-.239-.12,0-.179.109-.189.189-.2.259-.02.987-.1,1.216-.1.129,0,.129.1.129.109Z"/>
    <path class="cls-2" d="M318.191,21.529c0,.231,0,.322.7.322h.265V22.1c-.154-.007-1.032-.029-1.249-.029-.258,0-1.115.022-1.241.029v-.251h.266c.7,0,.7-.091.7-.322V17.974a2.3,2.3,0,0,1-1.012.2v-.251a1.9,1.9,0,0,0,1.367-.446c.2,0,.209.007.209.2Z"/>
    <path class="cls-2" d="M321.469,23.155V13.191h1.365v.4h-.967v9.167h.967v.4Z"/>
    <path class="cls-2" d="M324.506,17.775a3.227,3.227,0,0,0,.159-.837c0-.329-.109-.459-.309-.459-.359,0-.558.479-.727,1.187-.06.219-.07.229-.17.229-.02,0-.119,0-.119-.1a4.96,4.96,0,0,1,.3-.966.869.869,0,0,1,.747-.569.9.9,0,0,1,.917.867,1.924,1.924,0,0,1,1.554-.867A1.019,1.019,0,0,1,328,17.327a9.024,9.024,0,0,1-.607,2.192,1.888,1.888,0,0,0-.18.707c0,.229.069.329.239.329.488,0,.816-.559,1.016-1.236.05-.149.05-.179.15-.179.029,0,.119,0,.119.1,0,.08-.369,1.534-1.305,1.534a.8.8,0,0,1-.817-.816,1.136,1.136,0,0,1,.1-.459,9.5,9.5,0,0,0,.647-2.321c0-.329-.09-.7-.538-.7A1.984,1.984,0,0,0,325.2,17.7c-.01.04-.09.329-.13.5-.05.23-.109.449-.169.668l-.219.9c-.06.249-.179.717-.19.737a.405.405,0,0,1-.368.278.266.266,0,0,1-.289-.268c0-.05.059-.279.09-.429Z"/>
    <path class="cls-2" d="M330.635,23.155H329.27v-.4h.966V13.59h-.966v-.4h1.365Z"/>
    <path class="cls-2" d="M336.69,17.964l1.117-.807c.249-.189.268-.189.339-.189a.283.283,0,0,1,.268.279c0,.149-.079.189-.239.269l-1.375.668c.787.368.807.368,1.4.667.119.06.209.11.209.258a.291.291,0,0,1-.268.28c-.071,0-.09-.02-.18-.07l-1.276-.926.15,1.673a.264.264,0,0,1-.528,0l.149-1.673-1.115.806c-.249.19-.27.19-.339.19a.284.284,0,0,1-.27-.28c0-.148.08-.188.24-.268l1.375-.668-1.415-.677c-.1-.05-.2-.09-.2-.249a.291.291,0,0,1,.27-.279c.069,0,.09.02.179.07l1.275.926-.139-1.544v-.129c-.03-.13.1-.26.259-.26.259,0,.259.24.249.379Z"/>
    <path class="cls-2" d="M343.367,17.028a1.851,1.851,0,0,1,1.476-.768,1.013,1.013,0,0,1,1.145,1.067,8.93,8.93,0,0,1-.608,2.192,1.906,1.906,0,0,0-.179.707c0,.229.07.329.239.329.548,0,.867-.708,1.016-1.236.05-.149.05-.179.149-.179.031,0,.121,0,.121.1,0,.08-.37,1.534-1.306,1.534a.8.8,0,0,1-.816-.816,1.522,1.522,0,0,1,.128-.549,8.421,8.421,0,0,0,.619-2.231c0-.359-.11-.7-.538-.7a1.588,1.588,0,0,0-.958.35,2.94,2.94,0,0,0-.676.916c-.011.06-.09.389-.111.448-.049.23-.109.449-.169.668l-.219.9-.189.757a.416.416,0,0,1-.369.258.273.273,0,0,1-.289-.278.616.616,0,0,1,.04-.22l1.444-5.738.031-.2c0-.1-.02-.169-.5-.169-.15,0-.24,0-.24-.12,0-.179.11-.189.19-.2.259-.02.986-.1,1.216-.1.129,0,.129.1.129.109Z"/>
    <path class="cls-2" d="M350.363,22.1H347.49c0-.2,0-.209.07-.272l1.68-1.66a2.114,2.114,0,0,0,.656-1.338,1.044,1.044,0,0,0-1.06-1.109,1.1,1.1,0,0,0-1.019.649c.364,0,.412.243.412.369a.37.37,0,1,1-.739-.021,1.352,1.352,0,0,1,1.45-1.248,1.46,1.46,0,0,1,1.632,1.36,2.017,2.017,0,0,1-1,1.5c-.419.328-.662.523-1.394,1.172h1.283a3.583,3.583,0,0,0,.69-.042,1.635,1.635,0,0,0,.181-.635h.237Z"/>
    <path class="cls-2" d="M352.672,23.155V13.191h1.365v.4h-.967v9.167h.967v.4Z"/>
    <path class="cls-2" d="M355.709,17.775a3.227,3.227,0,0,0,.159-.837c0-.329-.109-.459-.308-.459-.36,0-.559.479-.728,1.187-.06.219-.07.229-.17.229-.019,0-.119,0-.119-.1a5.035,5.035,0,0,1,.3-.966.869.869,0,0,1,.747-.569.9.9,0,0,1,.917.867,1.925,1.925,0,0,1,1.555-.867,1.018,1.018,0,0,1,1.145,1.067,9.024,9.024,0,0,1-.607,2.192,1.888,1.888,0,0,0-.18.707c0,.229.069.329.239.329.488,0,.817-.559,1.016-1.236.051-.149.051-.179.15-.179.03,0,.119,0,.119.1,0,.08-.369,1.534-1.305,1.534a.8.8,0,0,1-.817-.816,1.136,1.136,0,0,1,.1-.459,9.5,9.5,0,0,0,.647-2.321c0-.329-.089-.7-.538-.7a1.984,1.984,0,0,0-1.624,1.216c-.01.04-.09.329-.13.5-.049.23-.109.449-.169.668l-.219.9c-.06.249-.179.717-.19.737a.405.405,0,0,1-.368.278.266.266,0,0,1-.289-.268c0-.05.06-.279.09-.429Z"/>
    <path class="cls-2" d="M361.838,23.155h-1.365v-.4h.966V13.59h-.966v-.4h1.365Z"/>
    <path class="cls-2" d="M281.36,11.935a3.915,3.915,0,0,0-.17.877c0,.338.161.657.549.657.319,0,1-.239,1.325-1.3.02-.07.04-.11.129-.11.031,0,.12,0,.12.1,0,.249-.568,1.534-1.594,1.534a1.1,1.1,0,0,1-1.076-.757,1.324,1.324,0,0,1-1.046.757c-.439,0-.937-.2-.937-.657a.566.566,0,0,1,.548-.578.341.341,0,0,1,.369.348.564.564,0,0,1-.469.538.956.956,0,0,0,.5.13c.439,0,.788-.419.947-1.036a14.494,14.494,0,0,0,.538-2.371c0-.579-.349-.668-.538-.668-.338,0-1,.249-1.335,1.3-.02.09-.05.11-.129.11-.021,0-.12,0-.12-.1,0-.249.568-1.535,1.6-1.535a1.1,1.1,0,0,1,1.076.758,1.29,1.29,0,0,1,1.046-.758c.339,0,.927.14.927.658a.555.555,0,0,1-.538.578.348.348,0,0,1-.379-.348.579.579,0,0,1,.479-.539.982.982,0,0,0-.5-.129c-.7,0-.927.917-.987,1.175Z"/>
    <path class="cls-2" d="M285.188,16.07V6.105h1.365v.4h-.967v9.167h.967v.4Z"/>
    <path class="cls-2" d="M288.225,10.689a3.22,3.22,0,0,0,.159-.837c0-.329-.11-.458-.309-.458-.359,0-.558.478-.727,1.186-.06.219-.071.229-.17.229-.02,0-.119,0-.119-.1a5.007,5.007,0,0,1,.3-.966.87.87,0,0,1,.747-.569.9.9,0,0,1,.917.868,1.924,1.924,0,0,1,1.555-.868,1.019,1.019,0,0,1,1.146,1.067,8.982,8.982,0,0,1-.608,2.192,1.892,1.892,0,0,0-.179.707c0,.229.069.329.239.329.488,0,.816-.558,1.015-1.236.051-.149.051-.179.151-.179.029,0,.119,0,.119.1,0,.079-.369,1.534-1.306,1.534a.8.8,0,0,1-.816-.817,1.132,1.132,0,0,1,.1-.458,9.519,9.519,0,0,0,.647-2.322c0-.329-.09-.7-.538-.7a1.982,1.982,0,0,0-1.624,1.215c-.01.04-.09.329-.13.5-.05.23-.109.449-.169.668l-.22.9c-.059.249-.178.717-.189.737a.407.407,0,0,1-.368.279.266.266,0,0,1-.289-.269c0-.05.059-.279.089-.428Z"/>
    <path class="cls-2" d="M294.346,16.07H292.98v-.4h.967V6.5h-.967v-.4h1.366Z"/>
    <polyline points="296.644 20.409 301.179 18.142 296.644 15.874 297.778 18.142"/>
    <line class="cls-1" x1="265.747" y1="18.142" x2="297.778" y2="18.142"/>
    <path class="cls-2" d="M385.249,13.588a2.627,2.627,0,0,1-2.331,2.033.943.943,0,0,1-1.057-.867.574.574,0,0,1,.559-.647.338.338,0,0,1,.368.349.541.541,0,0,1-.2.408.573.573,0,0,1-.429.119.806.806,0,0,0,.758.419,1.427,1.427,0,0,0,1.1-.628,3.823,3.823,0,0,0,.647-1.534,1.4,1.4,0,0,1-1.006.448,1.111,1.111,0,0,1-1.216-1.186,6.572,6.572,0,0,1,.579-2.092,2.123,2.123,0,0,0,.169-.7c0-.318-.169-.318-.249-.318-.339,0-.738.3-1.006,1.235-.05.16-.061.18-.161.18-.019,0-.119,0-.119-.1s.369-1.535,1.316-1.535a.79.79,0,0,1,.816.818,1.789,1.789,0,0,1-.2.717,5.94,5.94,0,0,0-.508,1.953c0,.369.11.807.618.807a1.383,1.383,0,0,0,1.125-.847l.45-1.793c.059-.269.128-.538.2-.8.039-.179.119-.488.139-.538a.433.433,0,0,1,.349-.209.267.267,0,0,1,.289.269.622.622,0,0,1-.04.229Z"/>
    <path class="cls-2" d="M387.813,16.07V6.105h1.365v.4h-.967v9.167h.967v.4Z"/>
    <path class="cls-2" d="M390.857,10.689a3.239,3.239,0,0,0,.16-.837c0-.329-.11-.458-.309-.458-.359,0-.559.478-.728,1.186-.059.219-.07.229-.169.229-.02,0-.12,0-.12-.1a5.035,5.035,0,0,1,.3-.966.87.87,0,0,1,.747-.569.9.9,0,0,1,.917.868,1.924,1.924,0,0,1,1.555-.868,1.018,1.018,0,0,1,1.145,1.067,8.979,8.979,0,0,1-.607,2.192,1.893,1.893,0,0,0-.18.707c0,.229.07.329.24.329.488,0,.816-.558,1.015-1.236.051-.149.051-.179.151-.179.029,0,.119,0,.119.1,0,.079-.369,1.534-1.306,1.534a.8.8,0,0,1-.816-.817,1.126,1.126,0,0,1,.1-.458,9.475,9.475,0,0,0,.648-2.322c0-.329-.09-.7-.538-.7a1.98,1.98,0,0,0-1.624,1.215c-.01.04-.09.329-.13.5-.05.23-.11.449-.169.668l-.22.9c-.059.249-.179.717-.189.737a.408.408,0,0,1-.368.279.267.267,0,0,1-.29-.269c0-.05.06-.279.09-.428Z"/>
    <path class="cls-2" d="M396.986,16.07h-1.365v-.4h.967V6.5h-.967v-.4h1.365Z"/>
    <polyline points="402.943 20.409 407.478 18.142 402.943 15.874 404.077 18.142"/>
    <line class="cls-1" x1="372.045" y1="18.142" x2="404.077" y2="18.142"/>
  </g>
</svg>
