<svg id="Layer_1" data-name="Layer 1" xmlns="http://www.w3.org/2000/svg" viewBox="0 0 430.538 102.121">
  <defs>
    <style>
      .cls-1 {
        fill: #1d1d1b;
      }

      .cls-2 {
        fill: none;
        stroke: #000;
        stroke-miterlimit: 10;
        stroke-width: 0.85px;
      }

      .cls-3 {
        fill: red;
      }

      .cls-4 {
        fill: blue;
      }
    </style>
  </defs>
  <title>cascadeequiv</title>
  <g>
    <path class="cls-1" d="M213.1,14.688a4.32,4.32,0,0,1-.867-1.455c0-.12.11-.12.2-.12.12,0,.16.01.2.1a4.544,4.544,0,0,0,2.421,2.461c.2.09.209.1.23.119a.139.139,0,0,1,.009.06c0,.07-.03.08-.169.14a4.562,4.562,0,0,0-2.452,2.391c-.089.2-.089.209-.239.209-.089,0-.2,0-.2-.119a4.32,4.32,0,0,1,.867-1.455H208.21a4.331,4.331,0,0,1,.868,1.455c0,.119-.11.119-.2.119-.119,0-.159-.01-.2-.1a4.541,4.541,0,0,0-2.421-2.461c-.2-.09-.21-.1-.23-.12a.139.139,0,0,1-.009-.06c0-.069.029-.08.169-.139a4.565,4.565,0,0,0,2.451-2.392c.09-.2.09-.209.239-.209.09,0,.2,0,.2.12a4.331,4.331,0,0,1-.868,1.455Zm.388,1.933a4.927,4.927,0,0,1,1.047-.768,5.374,5.374,0,0,1-1.047-.767h-5.669a4.927,4.927,0,0,1-1.046.767,5.369,5.369,0,0,1,1.046.768Z" transform="translate(-0.289 -0.91)"/>
    <path class="cls-1" d="M213.1,85.6a4.32,4.32,0,0,1-.867-1.455c0-.12.11-.12.2-.12.12,0,.16.011.2.1a4.546,4.546,0,0,0,2.421,2.462c.2.089.209.1.23.119a.139.139,0,0,1,.009.06c0,.07-.03.08-.169.139a4.563,4.563,0,0,0-2.452,2.392c-.089.2-.089.209-.239.209-.089,0-.2,0-.2-.119a4.31,4.31,0,0,1,.867-1.455H208.21a4.321,4.321,0,0,1,.868,1.455c0,.119-.11.119-.2.119-.119,0-.159-.01-.2-.1a4.541,4.541,0,0,0-2.421-2.461c-.2-.09-.21-.1-.23-.12a.133.133,0,0,1-.009-.059c0-.07.029-.08.169-.14a4.566,4.566,0,0,0,2.451-2.391c.09-.2.09-.21.239-.21.09,0,.2,0,.2.12a4.331,4.331,0,0,1-.868,1.455Zm.388,1.933a4.968,4.968,0,0,1,1.047-.767A5.457,5.457,0,0,1,213.491,86h-5.669a4.927,4.927,0,0,1-1.046.767,5.366,5.366,0,0,1,1.046.767Z" transform="translate(-0.289 -0.91)"/>
    <polyline points="25.082 17.935 29.617 15.667 25.082 13.4 26.216 15.667"/>
    <line class="cls-2" x1="1.271" y1="15.667" x2="26.216" y2="15.667"/>
    <path class="cls-1" d="M2.989,6.739a3.86,3.86,0,0,0-.169.877c0,.339.159.658.548.658.319,0,1-.239,1.325-1.306.02-.07.04-.109.13-.109.03,0,.119,0,.119.1,0,.25-.568,1.535-1.594,1.535a1.1,1.1,0,0,1-1.076-.757,1.326,1.326,0,0,1-1.046.757c-.439,0-.937-.2-.937-.658a.567.567,0,0,1,.548-.578.342.342,0,0,1,.369.349.565.565,0,0,1-.469.538.958.958,0,0,0,.5.13c.439,0,.787-.419.947-1.037A14.471,14.471,0,0,0,2.72,4.866c0-.578-.348-.668-.538-.668-.339,0-1,.25-1.335,1.306-.02.089-.05.109-.13.109-.02,0-.119,0-.119-.1,0-.249.568-1.535,1.6-1.535a1.1,1.1,0,0,1,1.076.757,1.291,1.291,0,0,1,1.046-.757c.339,0,.927.14.927.658a.556.556,0,0,1-.538.578.348.348,0,0,1-.379-.349.58.58,0,0,1,.479-.538.976.976,0,0,0-.5-.13c-.7,0-.926.917-.986,1.176Z" transform="translate(-0.289 -0.91)"/>
    <path class="cls-1" d="M6.809,10.875V.91H8.174v.4H7.207v9.167h.967v.4Z" transform="translate(-0.289 -0.91)"/>
    <path class="cls-1" d="M9.853,5.494a3.2,3.2,0,0,0,.16-.837c0-.329-.11-.459-.309-.459-.359,0-.558.479-.727,1.186-.06.22-.07.229-.17.229-.02,0-.119,0-.119-.1a5.031,5.031,0,0,1,.3-.967.871.871,0,0,1,.747-.568.9.9,0,0,1,.917.867,1.928,1.928,0,0,1,1.555-.867,1.019,1.019,0,0,1,1.146,1.066,8.982,8.982,0,0,1-.608,2.192,1.9,1.9,0,0,0-.18.708c0,.229.07.329.24.329.488,0,.817-.558,1.016-1.236.05-.149.05-.179.149-.179.03,0,.12,0,.12.1,0,.08-.369,1.535-1.3,1.535a.8.8,0,0,1-.818-.817,1.154,1.154,0,0,1,.1-.459A9.454,9.454,0,0,0,12.713,4.9c0-.329-.09-.7-.538-.7a1.981,1.981,0,0,0-1.624,1.216c-.01.04-.09.329-.13.5-.05.23-.109.449-.169.668l-.219.9c-.06.249-.18.717-.19.737a.408.408,0,0,1-.368.279.266.266,0,0,1-.289-.269c0-.05.06-.279.089-.429Z" transform="translate(-0.289 -0.91)"/>
    <path class="cls-1" d="M15.983,10.875H14.618v-.4h.966V1.309h-.966V.91h1.365Z" transform="translate(-0.289 -0.91)"/>
    <path class="cls-3" d="M2.509,23.685c0-.6.359-1.027,1.136-1.027a3.3,3.3,0,0,1,.817.11c.359.08.518.109.518.329a.418.418,0,0,1-.4.4,1.356,1.356,0,0,1-.548-.249,1.206,1.206,0,0,0-.708-.269.5.5,0,0,0-.548.459,3.924,3.924,0,0,0,.947,1.633,2.8,2.8,0,0,1,.737,1.854c0,1.375-.827,2.939-1.993,2.939A1.566,1.566,0,0,1,.9,28.188a3.045,3.045,0,0,1,2.212-2.8A4.073,4.073,0,0,1,2.509,23.685Zm-1,4.782c0,.758.408,1.176.956,1.176.927,0,1.305-1.664,1.305-2.322a3.461,3.461,0,0,0-.547-1.714C1.881,25.966,1.513,27.839,1.513,28.467Z" transform="translate(-0.289 -0.91)"/>
    <path class="cls-3" d="M6.457,32.234V22.27H7.822v.4H6.855v9.167h.967v.4Z" transform="translate(-0.289 -0.91)"/>
    <path class="cls-3" d="M9.494,26.853a3.175,3.175,0,0,0,.159-.837c0-.328-.11-.458-.309-.458-.358,0-.558.478-.727,1.186-.06.219-.07.229-.169.229-.02,0-.12,0-.12-.1a4.96,4.96,0,0,1,.3-.966.87.87,0,0,1,.747-.569.9.9,0,0,1,.917.868,1.924,1.924,0,0,1,1.554-.868,1.018,1.018,0,0,1,1.146,1.067,8.937,8.937,0,0,1-.608,2.192,1.892,1.892,0,0,0-.179.707c0,.229.07.329.239.329.488,0,.817-.558,1.016-1.236.05-.149.05-.179.15-.179.03,0,.12,0,.12.1,0,.079-.369,1.534-1.306,1.534a.8.8,0,0,1-.817-.817,1.132,1.132,0,0,1,.1-.458,9.519,9.519,0,0,0,.648-2.322c0-.329-.09-.7-.539-.7a1.983,1.983,0,0,0-1.624,1.215c-.01.04-.089.329-.129.5-.05.23-.11.449-.169.668l-.22.9c-.06.249-.179.717-.189.737a.408.408,0,0,1-.369.279.266.266,0,0,1-.289-.269c0-.05.06-.279.09-.428Z" transform="translate(-0.289 -0.91)"/>
    <path class="cls-3" d="M15.624,32.234H14.258v-.4h.967V22.668h-.967v-.4h1.366Z" transform="translate(-0.289 -0.91)"/>
    <g>
      <path class="cls-1" d="M44.52,12.821H39.329v-.309h.239c.767,0,.787-.11.787-.469V6.792c0-.358-.02-.468-.787-.468h-.239V6.016c.349.029,1.126.029,1.514.029.409,0,1.316,0,1.674-.029v.308h-.329c-.946,0-.946.14-.946.479v5.31c0,.329.02.4.488.4h.817c1.754,0,1.893-1.245,2-2.262H44.8Z" transform="translate(-0.289 -0.91)"/>
      <path class="cls-1" d="M51.225,8.317h-.249c-.14-1.6-.289-1.933-1.793-1.933a4.666,4.666,0,0,0-.568.02c-.179.04-.179.179-.179.379v5.251c0,.339,0,.478,1.045.478h.4v.309c-.408-.03-1.435-.03-1.893-.03s-1.475,0-1.883.03v-.309h.4c1.046,0,1.046-.139,1.046-.478V6.783c0-.23,0-.339-.209-.379a4.161,4.161,0,0,0-.538-.02c-1.5,0-1.654.329-1.793,1.933h-.249l.189-2.242h6.088Z" transform="translate(-0.289 -0.91)"/>
    </g>
    <g>
      <path class="cls-1" d="M53.843,12.043c0,.359.031.469.818.469h.258v.309c-.348-.03-1.135-.03-1.524-.03s-1.166,0-1.515.03v-.309h.26c.787,0,.817-.11.817-.469V6.792c0-.358-.03-.468-.817-.468h-.26V6.016c.349.029,1.137.029,1.525.029s1.166,0,1.514-.029v.308h-.258c-.787,0-.818.11-.818.468Z" transform="translate(-0.289 -0.91)"/>
      <path class="cls-1" d="M61.365,12.034c0,.368.031.478.927.478h.319v.309c-.349-.03-1.215-.03-1.614-.03s-1.266,0-1.614.03v-.309H59.7c.9,0,.926-.119.926-.478V6.872a2.984,2.984,0,0,1-1.3.259V6.822a2.462,2.462,0,0,0,1.813-.637c.229,0,.229.02.229.259Z" transform="translate(-0.289 -0.91)"/>
    </g>
    <path class="cls-1" d="M42.4,22.5a1.847,1.847,0,0,1,1.474-.768A1.013,1.013,0,0,1,45.023,22.8a8.949,8.949,0,0,1-.607,2.192,1.9,1.9,0,0,0-.18.708c0,.229.07.329.239.329.548,0,.867-.708,1.017-1.236.05-.149.05-.179.149-.179.03,0,.12,0,.12.1,0,.08-.369,1.535-1.3,1.535a.8.8,0,0,1-.818-.817,1.5,1.5,0,0,1,.13-.548,8.472,8.472,0,0,0,.618-2.232c0-.359-.11-.7-.538-.7a1.588,1.588,0,0,0-.957.349,2.94,2.94,0,0,0-.678.917c-.009.059-.089.389-.109.448-.05.23-.11.449-.169.668l-.22.9-.189.757a.414.414,0,0,1-.369.259.274.274,0,0,1-.289-.279.609.609,0,0,1,.04-.219l1.445-5.74.03-.2c0-.1-.02-.169-.5-.169-.15,0-.239,0-.239-.12,0-.179.109-.189.189-.2.259-.02.986-.1,1.215-.1.13,0,.13.1.13.11Z" transform="translate(-0.289 -0.91)"/>
    <path class="cls-1" d="M48.414,27.015c0,.23,0,.32.7.32h.265v.251c-.153-.006-1.032-.027-1.248-.027-.258,0-1.115.021-1.241.027v-.251h.265c.7,0,.7-.09.7-.32V23.458a2.3,2.3,0,0,1-1.011.2V23.4a1.9,1.9,0,0,0,1.367-.446c.2,0,.209.007.209.2Z" transform="translate(-0.289 -0.91)"/>
    <path class="cls-1" d="M51.7,28.625V18.66h1.365v.4H52.1v9.167h.966v.4Z" transform="translate(-0.289 -0.91)"/>
    <path class="cls-1" d="M54.736,23.244a3.2,3.2,0,0,0,.16-.837c0-.329-.11-.459-.31-.459-.358,0-.558.479-.727,1.186-.06.22-.069.229-.169.229-.02,0-.12,0-.12-.1a4.983,4.983,0,0,1,.3-.967.871.871,0,0,1,.747-.568.9.9,0,0,1,.917.867,1.928,1.928,0,0,1,1.554-.867A1.018,1.018,0,0,1,58.233,22.8a8.937,8.937,0,0,1-.608,2.192,1.921,1.921,0,0,0-.179.708c0,.229.07.329.24.329.487,0,.816-.558,1.016-1.236.049-.149.049-.179.149-.179.03,0,.12,0,.12.1,0,.08-.369,1.535-1.3,1.535a.8.8,0,0,1-.818-.817,1.136,1.136,0,0,1,.1-.459,9.5,9.5,0,0,0,.648-2.321c0-.329-.09-.7-.538-.7a1.981,1.981,0,0,0-1.624,1.216c-.011.04-.09.329-.13.5-.05.23-.11.449-.169.668l-.219.9c-.061.249-.18.717-.19.737a.408.408,0,0,1-.369.279.267.267,0,0,1-.289-.269c0-.05.06-.279.09-.429Z" transform="translate(-0.289 -0.91)"/>
    <path class="cls-1" d="M60.866,28.625H59.5v-.4h.967V19.059H59.5v-.4h1.366Z" transform="translate(-0.289 -0.91)"/>
    <polygon class="cls-2" points="29.617 15.667 29.617 1.494 72.137 1.494 72.137 29.84 29.617 29.84 29.617 15.667"/>
    <polyline points="95.948 17.935 100.483 15.667 95.948 13.4 97.082 15.667"/>
    <line class="cls-2" x1="72.137" y1="15.667" x2="97.082" y2="15.667"/>
    <path class="cls-1" d="M81.349,6.68a2.936,2.936,0,0,0-.11.727c0,.568.269.867.738.867.488,0,.836-.349,1.1-.877a6.049,6.049,0,0,0,.548-1.824,1.131,1.131,0,0,0-.359-.846.327.327,0,0,1-.149-.269.542.542,0,0,1,.5-.479c.169,0,.438.15.438.7a9.312,9.312,0,0,1-.657,2.59,1.7,1.7,0,0,1-1.445,1.226A1.267,1.267,0,0,1,80.7,7.8a1.12,1.12,0,0,1-1.036.7c-.747,0-1.415-.349-1.415-1.256a6.3,6.3,0,0,1,.558-2.012,1.989,1.989,0,0,0,.179-.7c0-.319-.159-.329-.249-.329-.348,0-.737.309-1.006,1.236-.05.159-.06.179-.159.179-.02,0-.12,0-.12-.1s.369-1.535,1.315-1.535a.8.8,0,0,1,.817.817,1.794,1.794,0,0,1-.169.638A5.34,5.34,0,0,0,78.9,7.367a.79.79,0,0,0,.8.907c.388,0,.687-.309.917-.837a.767.767,0,0,1-.01-.18,2.749,2.749,0,0,1,.089-.657c.07-.259.538-2.162.568-2.232a.406.406,0,0,1,.369-.279.267.267,0,0,1,.289.269c0,.059-.1.428-.149.647Z" transform="translate(-0.289 -0.91)"/>
    <path class="cls-1" d="M85.652,10.875V.91h1.366v.4h-.967v9.167h.967v.4Z" transform="translate(-0.289 -0.91)"/>
    <path class="cls-1" d="M88.7,5.494a3.182,3.182,0,0,0,.159-.837c0-.329-.109-.459-.309-.459-.358,0-.558.479-.727,1.186-.06.22-.07.229-.169.229-.02,0-.12,0-.12-.1a4.983,4.983,0,0,1,.3-.967.871.871,0,0,1,.747-.568.9.9,0,0,1,.917.867,1.928,1.928,0,0,1,1.554-.867,1.018,1.018,0,0,1,1.146,1.066,8.937,8.937,0,0,1-.608,2.192,1.921,1.921,0,0,0-.179.708c0,.229.07.329.239.329.488,0,.817-.558,1.017-1.236.049-.149.049-.179.149-.179.03,0,.12,0,.12.1,0,.08-.369,1.535-1.306,1.535a.8.8,0,0,1-.817-.817,1.136,1.136,0,0,1,.1-.459A9.5,9.5,0,0,0,91.557,4.9c0-.329-.09-.7-.538-.7A1.981,1.981,0,0,0,89.4,5.414c-.011.04-.09.329-.13.5-.05.23-.11.449-.169.668l-.22.9c-.06.249-.179.717-.189.737a.408.408,0,0,1-.369.279.267.267,0,0,1-.289-.269c0-.05.06-.279.09-.429Z" transform="translate(-0.289 -0.91)"/>
    <path class="cls-1" d="M94.827,10.875H93.461v-.4h.967V1.309h-.967V.91h1.366Z" transform="translate(-0.289 -0.91)"/>
    <path class="cls-3" d="M77.8,26.106a1.849,1.849,0,0,1,1.475-.768,1.014,1.014,0,0,1,1.146,1.067,8.974,8.974,0,0,1-.608,2.192,1.892,1.892,0,0,0-.179.707c0,.229.069.329.239.329.548,0,.867-.707,1.016-1.236.05-.149.05-.179.15-.179.029,0,.119,0,.119.1,0,.079-.368,1.534-1.305,1.534a.8.8,0,0,1-.817-.817,1.478,1.478,0,0,1,.13-.548,8.506,8.506,0,0,0,.617-2.232c0-.359-.11-.7-.538-.7a1.578,1.578,0,0,0-.956.349,2.939,2.939,0,0,0-.678.916c-.01.06-.09.389-.11.448-.049.23-.109.449-.169.668l-.219.9-.19.757a.413.413,0,0,1-.368.259.274.274,0,0,1-.289-.279.615.615,0,0,1,.04-.219l1.444-5.739.03-.2c0-.1-.02-.17-.5-.17-.149,0-.239,0-.239-.12,0-.179.109-.188.189-.2.259-.02.987-.1,1.216-.1.13,0,.13.1.13.11Z" transform="translate(-0.289 -0.91)"/>
    <path class="cls-3" d="M83.82,30.616c0,.23,0,.321.7.321h.265v.251c-.154-.007-1.033-.028-1.248-.028-.259,0-1.116.021-1.242.028v-.251h.265c.7,0,.7-.091.7-.321V27.06a2.3,2.3,0,0,1-1.01.2V27a1.9,1.9,0,0,0,1.366-.446c.2,0,.209.007.209.2Z" transform="translate(-0.289 -0.91)"/>
    <path class="cls-3" d="M87.1,32.234V22.27h1.365v.4H87.5v9.167h.967v.4Z" transform="translate(-0.289 -0.91)"/>
    <path class="cls-3" d="M90.134,26.853a3.194,3.194,0,0,0,.16-.837c0-.328-.11-.458-.309-.458-.359,0-.558.478-.727,1.186-.06.219-.07.229-.17.229-.02,0-.119,0-.119-.1a4.96,4.96,0,0,1,.3-.966.869.869,0,0,1,.747-.569.9.9,0,0,1,.917.868,1.922,1.922,0,0,1,1.554-.868,1.019,1.019,0,0,1,1.146,1.067,8.982,8.982,0,0,1-.608,2.192,1.892,1.892,0,0,0-.179.707c0,.229.07.329.239.329.488,0,.817-.558,1.016-1.236.05-.149.05-.179.15-.179.029,0,.119,0,.119.1,0,.079-.369,1.534-1.305,1.534a.8.8,0,0,1-.817-.817,1.132,1.132,0,0,1,.1-.458,9.519,9.519,0,0,0,.647-2.322c0-.329-.09-.7-.538-.7a1.98,1.98,0,0,0-1.624,1.215c-.01.04-.09.329-.13.5-.05.23-.109.449-.169.668l-.219.9c-.06.249-.18.717-.189.737a.409.409,0,0,1-.369.279.266.266,0,0,1-.289-.269c0-.05.06-.279.09-.428Z" transform="translate(-0.289 -0.91)"/>
    <path class="cls-3" d="M96.264,32.234H94.9v-.4h.966V22.668H94.9v-.4h1.365Z" transform="translate(-0.289 -0.91)"/>
    <g>
      <path class="cls-4" d="M115.325,12.821h-5.192v-.309h.24c.767,0,.787-.11.787-.469V6.792c0-.358-.02-.468-.787-.468h-.24V6.016c.349.029,1.126.029,1.515.029.409,0,1.315,0,1.674-.029v.308h-.329c-.947,0-.947.14-.947.479v5.31c0,.329.02.4.489.4h.817c1.753,0,1.893-1.245,2-2.262h.25Z" transform="translate(-0.289 -0.91)"/>
      <path class="cls-4" d="M122.03,8.317h-.249c-.14-1.6-.289-1.933-1.794-1.933a4.683,4.683,0,0,0-.568.02c-.179.04-.179.179-.179.379v5.251c0,.339,0,.478,1.046.478h.4v.309c-.409-.03-1.435-.03-1.893-.03s-1.475,0-1.884.03v-.309h.4c1.046,0,1.046-.139,1.046-.478V6.783c0-.23,0-.339-.209-.379a4.169,4.169,0,0,0-.538-.02c-1.5,0-1.654.329-1.793,1.933h-.25l.189-2.242h6.089Z" transform="translate(-0.289 -0.91)"/>
    </g>
    <g>
      <path class="cls-4" d="M124.64,12.043c0,.359.03.469.818.469h.258v.309c-.348-.03-1.135-.03-1.524-.03s-1.166,0-1.515.03v-.309h.26c.787,0,.816-.11.816-.469V6.792c0-.358-.029-.468-.816-.468h-.26V6.016c.349.029,1.136.029,1.525.029s1.166,0,1.514-.029v.308h-.258c-.788,0-.818.11-.818.468Z" transform="translate(-0.289 -0.91)"/>
      <path class="cls-4" d="M132.411,12.054a3.229,3.229,0,0,0,.946-.08,3.276,3.276,0,0,0,.22-.887h.249l-.279,1.734h-3.7c0-.239,0-.259.11-.369l1.913-2.132a3.57,3.57,0,0,0,1.046-2.2c0-.817-.428-1.624-1.335-1.624a1.436,1.436,0,0,0-1.345,1.016.377.377,0,0,1,.129-.01.5.5,0,0,1,.528.518.524.524,0,1,1-1.046-.03,1.841,1.841,0,0,1,1.863-1.8,1.958,1.958,0,0,1,2.113,1.933c0,1-.6,1.534-2.152,2.909l-1.056,1.027Z" transform="translate(-0.289 -0.91)"/>
    </g>
    <path class="cls-4" d="M113.325,22.5a1.845,1.845,0,0,1,1.474-.768,1.013,1.013,0,0,1,1.146,1.066,8.9,8.9,0,0,1-.608,2.192,1.921,1.921,0,0,0-.179.708c0,.229.07.329.239.329.548,0,.867-.708,1.017-1.236.049-.149.049-.179.149-.179.03,0,.12,0,.12.1,0,.08-.369,1.535-1.306,1.535a.8.8,0,0,1-.817-.817,1.5,1.5,0,0,1,.13-.548,8.472,8.472,0,0,0,.618-2.232c0-.359-.11-.7-.538-.7a1.588,1.588,0,0,0-.957.349,2.94,2.94,0,0,0-.678.917c-.01.059-.089.389-.109.448-.05.23-.11.449-.17.668l-.219.9-.189.757a.414.414,0,0,1-.369.259.274.274,0,0,1-.289-.279.609.609,0,0,1,.04-.219l1.445-5.74.03-.2c0-.1-.02-.169-.5-.169-.15,0-.24,0-.24-.12,0-.179.11-.189.19-.2.259-.02.986-.1,1.215-.1.13,0,.13.1.13.11Z" transform="translate(-0.289 -0.91)"/>
    <path class="cls-4" d="M120.313,27.586h-2.874c0-.2,0-.209.07-.272l1.68-1.659a2.114,2.114,0,0,0,.656-1.339,1.044,1.044,0,0,0-1.06-1.109,1.1,1.1,0,0,0-1.018.649c.363,0,.412.244.412.369a.37.37,0,1,1-.74-.02,1.353,1.353,0,0,1,1.451-1.249,1.459,1.459,0,0,1,1.631,1.36,2.012,2.012,0,0,1-1,1.506c-.418.328-.662.523-1.394,1.172h1.283a3.589,3.589,0,0,0,.69-.042,1.6,1.6,0,0,0,.181-.635h.237Z" transform="translate(-0.289 -0.91)"/>
    <path class="cls-4" d="M122.613,28.625V18.66h1.366v.4h-.967v9.167h.967v.4Z" transform="translate(-0.289 -0.91)"/>
    <path class="cls-4" d="M125.658,23.244a3.182,3.182,0,0,0,.159-.837c0-.329-.109-.459-.309-.459-.358,0-.558.479-.727,1.186-.06.22-.07.229-.169.229-.02,0-.12,0-.12-.1a4.983,4.983,0,0,1,.3-.967.871.871,0,0,1,.747-.568.9.9,0,0,1,.917.867,1.928,1.928,0,0,1,1.554-.867,1.018,1.018,0,0,1,1.146,1.066,8.937,8.937,0,0,1-.608,2.192,1.921,1.921,0,0,0-.179.708c0,.229.07.329.239.329.488,0,.817-.558,1.017-1.236.049-.149.049-.179.149-.179.03,0,.12,0,.12.1,0,.08-.369,1.535-1.306,1.535a.8.8,0,0,1-.817-.817,1.136,1.136,0,0,1,.1-.459,9.5,9.5,0,0,0,.648-2.321c0-.329-.09-.7-.539-.7a1.984,1.984,0,0,0-1.624,1.216c-.01.04-.089.329-.129.5-.05.23-.11.449-.169.668l-.22.9c-.06.249-.179.717-.189.737a.408.408,0,0,1-.369.279.267.267,0,0,1-.289-.269c0-.05.06-.279.09-.429Z" transform="translate(-0.289 -0.91)"/>
    <path class="cls-4" d="M131.78,28.625h-1.365v-.4h.966V19.059h-.966v-.4h1.365Z" transform="translate(-0.289 -0.91)"/>
    <polygon class="cls-2" points="100.483 15.667 100.483 1.494 143.003 1.494 143.003 29.84 100.483 29.84 100.483 15.667"/>
    <polyline points="180.987 17.935 185.522 15.667 180.987 13.4 182.12 15.667"/>
    <line class="cls-2" x1="143.003" y1="15.667" x2="182.12" y2="15.667"/>
    <path class="cls-1" d="M167.206,8.393a2.628,2.628,0,0,1-2.331,2.033.943.943,0,0,1-1.057-.867.574.574,0,0,1,.558-.647.339.339,0,0,1,.369.348.536.536,0,0,1-.2.408.569.569,0,0,1-.429.12.806.806,0,0,0,.758.419,1.427,1.427,0,0,0,1.1-.628,3.821,3.821,0,0,0,.647-1.535,1.4,1.4,0,0,1-1.006.449A1.111,1.111,0,0,1,164.4,7.307a6.59,6.59,0,0,1,.578-2.092,2.1,2.1,0,0,0,.17-.7c0-.319-.17-.319-.249-.319-.339,0-.738.3-1.007,1.236-.05.159-.059.179-.159.179-.02,0-.12,0-.12-.1s.369-1.535,1.315-1.535a.791.791,0,0,1,.818.817,1.8,1.8,0,0,1-.2.718,5.959,5.959,0,0,0-.508,1.953c0,.368.11.807.618.807a1.387,1.387,0,0,0,1.126-.847l.448-1.794c.06-.269.13-.538.2-.8.04-.179.12-.488.14-.538a.431.431,0,0,1,.349-.209.267.267,0,0,1,.289.269.622.622,0,0,1-.04.229Z" transform="translate(-0.289 -0.91)"/>
    <path class="cls-1" d="M169.777,10.875V.91h1.366v.4h-.967v9.167h.967v.4Z" transform="translate(-0.289 -0.91)"/>
    <path class="cls-1" d="M172.814,5.494a3.2,3.2,0,0,0,.16-.837c0-.329-.11-.459-.309-.459-.359,0-.559.479-.727,1.186-.061.22-.07.229-.17.229-.02,0-.12,0-.12-.1a5.058,5.058,0,0,1,.3-.967.871.871,0,0,1,.747-.568.9.9,0,0,1,.917.867,1.928,1.928,0,0,1,1.555-.867,1.019,1.019,0,0,1,1.146,1.066,8.982,8.982,0,0,1-.608,2.192,1.9,1.9,0,0,0-.18.708c0,.229.07.329.24.329.487,0,.817-.558,1.016-1.236.05-.149.05-.179.149-.179.03,0,.12,0,.12.1,0,.08-.369,1.535-1.305,1.535a.8.8,0,0,1-.818-.817,1.154,1.154,0,0,1,.1-.459,9.454,9.454,0,0,0,.648-2.321c0-.329-.09-.7-.538-.7a1.981,1.981,0,0,0-1.624,1.216c-.011.04-.09.329-.13.5-.05.23-.11.449-.169.668l-.219.9c-.06.249-.18.717-.19.737a.408.408,0,0,1-.368.279.267.267,0,0,1-.29-.269c0-.05.061-.279.09-.429Z" transform="translate(-0.289 -0.91)"/>
    <path class="cls-1" d="M178.936,10.875h-1.365v-.4h.966V1.309h-.966V.91h1.365Z" transform="translate(-0.289 -0.91)"/>
    <path class="cls-3" d="M147.286,26.106a1.845,1.845,0,0,1,1.474-.768,1.014,1.014,0,0,1,1.146,1.067A8.93,8.93,0,0,1,149.3,28.6a1.892,1.892,0,0,0-.179.707c0,.229.069.329.239.329.548,0,.867-.707,1.017-1.236.049-.149.049-.179.149-.179.03,0,.12,0,.12.1,0,.079-.369,1.534-1.306,1.534a.8.8,0,0,1-.817-.817,1.5,1.5,0,0,1,.13-.548,8.472,8.472,0,0,0,.618-2.232c0-.359-.11-.7-.539-.7a1.581,1.581,0,0,0-.956.349,2.939,2.939,0,0,0-.678.916c-.01.06-.089.389-.109.448-.05.23-.11.449-.17.668l-.219.9-.189.757a.414.414,0,0,1-.369.259.274.274,0,0,1-.289-.279.615.615,0,0,1,.04-.219l1.445-5.739.03-.2c0-.1-.02-.17-.5-.17-.15,0-.24,0-.24-.12,0-.179.11-.188.19-.2.259-.02.986-.1,1.215-.1.13,0,.13.1.13.11Z" transform="translate(-0.289 -0.91)"/>
    <path class="cls-3" d="M153.3,30.616c0,.23,0,.321.7.321h.265v.251c-.153-.007-1.032-.028-1.248-.028-.258,0-1.115.021-1.241.028v-.251h.265c.7,0,.7-.091.7-.321V27.06a2.3,2.3,0,0,1-1.011.2V27a1.9,1.9,0,0,0,1.367-.446c.195,0,.209.007.209.2Z" transform="translate(-0.289 -0.91)"/>
    <path class="cls-3" d="M156.574,32.234V22.27h1.365v.4h-.966v9.167h.966v.4Z" transform="translate(-0.289 -0.91)"/>
    <path class="cls-3" d="M159.619,26.853a3.175,3.175,0,0,0,.159-.837c0-.328-.11-.458-.309-.458-.358,0-.558.478-.727,1.186-.06.219-.07.229-.169.229-.02,0-.12,0-.12-.1a4.96,4.96,0,0,1,.3-.966.87.87,0,0,1,.747-.569.9.9,0,0,1,.917.868,1.924,1.924,0,0,1,1.554-.868,1.018,1.018,0,0,1,1.146,1.067,8.937,8.937,0,0,1-.608,2.192,1.892,1.892,0,0,0-.179.707c0,.229.07.329.239.329.488,0,.817-.558,1.016-1.236.05-.149.05-.179.15-.179.03,0,.12,0,.12.1,0,.079-.369,1.534-1.306,1.534a.8.8,0,0,1-.817-.817,1.132,1.132,0,0,1,.1-.458,9.519,9.519,0,0,0,.648-2.322c0-.329-.09-.7-.539-.7a1.983,1.983,0,0,0-1.624,1.215c-.01.04-.089.329-.129.5-.05.23-.11.449-.169.668l-.22.9c-.06.249-.179.717-.189.737a.408.408,0,0,1-.369.279.266.266,0,0,1-.289-.269c0-.05.06-.279.09-.428Z" transform="translate(-0.289 -0.91)"/>
    <path class="cls-3" d="M165.741,32.234h-1.366v-.4h.967V22.668h-.967v-.4h1.366Z" transform="translate(-0.289 -0.91)"/>
    <path class="cls-3" d="M171.8,27.042l1.116-.807c.249-.189.269-.189.338-.189a.284.284,0,0,1,.27.279c0,.15-.08.189-.239.269l-1.376.668c.788.368.807.368,1.406.667.119.06.209.11.209.259a.291.291,0,0,1-.27.279c-.069,0-.089-.02-.179-.07l-1.275-.926.149,1.674a.264.264,0,0,1-.528,0l.15-1.674-1.116.807c-.249.189-.269.189-.339.189a.283.283,0,0,1-.269-.279c0-.149.08-.189.239-.269l1.375-.668-1.415-.677c-.1-.05-.2-.09-.2-.249a.292.292,0,0,1,.269-.279c.07,0,.09.02.18.07l1.275.926-.14-1.544v-.129c-.03-.13.1-.26.26-.26.258,0,.258.24.249.379Z" transform="translate(-0.289 -0.91)"/>
    <path class="cls-3" d="M178.481,26.106a1.849,1.849,0,0,1,1.475-.768,1.014,1.014,0,0,1,1.146,1.067,8.974,8.974,0,0,1-.608,2.192,1.893,1.893,0,0,0-.18.707c0,.229.07.329.239.329.549,0,.867-.707,1.017-1.236.05-.149.05-.179.149-.179.03,0,.12,0,.12.1,0,.079-.369,1.534-1.305,1.534a.8.8,0,0,1-.818-.817,1.5,1.5,0,0,1,.13-.548,8.472,8.472,0,0,0,.618-2.232c0-.359-.11-.7-.538-.7a1.582,1.582,0,0,0-.957.349,2.914,2.914,0,0,0-.677.916c-.01.06-.09.389-.11.448-.05.23-.11.449-.169.668l-.22.9-.189.757a.414.414,0,0,1-.369.259.275.275,0,0,1-.289-.279.615.615,0,0,1,.04-.219l1.445-5.739.03-.2c0-.1-.02-.17-.5-.17-.15,0-.239,0-.239-.12,0-.179.109-.188.189-.2.259-.02.986-.1,1.215-.1.13,0,.13.1.13.11Z" transform="translate(-0.289 -0.91)"/>
    <path class="cls-3" d="M185.477,31.188H182.6c0-.2,0-.209.069-.272l1.681-1.66a2.119,2.119,0,0,0,.655-1.339,1.044,1.044,0,0,0-1.06-1.108,1.1,1.1,0,0,0-1.018.649c.363,0,.412.243.412.369a.37.37,0,1,1-.739-.021,1.352,1.352,0,0,1,1.45-1.248,1.46,1.46,0,0,1,1.632,1.359,2.017,2.017,0,0,1-1,1.507c-.418.327-.662.523-1.394,1.171h1.283a3.589,3.589,0,0,0,.69-.042,1.6,1.6,0,0,0,.181-.634h.238Z" transform="translate(-0.289 -0.91)"/>
    <path class="cls-3" d="M187.777,32.234V22.27h1.366v.4h-.967v9.167h.967v.4Z" transform="translate(-0.289 -0.91)"/>
    <path class="cls-3" d="M190.814,26.853a3.194,3.194,0,0,0,.16-.837c0-.328-.11-.458-.309-.458-.359,0-.559.478-.727,1.186-.061.219-.07.229-.17.229-.02,0-.12,0-.12-.1a5.035,5.035,0,0,1,.3-.966.87.87,0,0,1,.747-.569.9.9,0,0,1,.917.868,1.926,1.926,0,0,1,1.555-.868,1.019,1.019,0,0,1,1.146,1.067A8.982,8.982,0,0,1,193.7,28.6a1.893,1.893,0,0,0-.18.707c0,.229.07.329.24.329.487,0,.817-.558,1.016-1.236.05-.149.05-.179.149-.179.03,0,.12,0,.12.1,0,.079-.369,1.534-1.305,1.534a.8.8,0,0,1-.818-.817,1.15,1.15,0,0,1,.1-.458,9.475,9.475,0,0,0,.648-2.322c0-.329-.09-.7-.538-.7a1.98,1.98,0,0,0-1.624,1.215c-.011.04-.09.329-.13.5-.05.23-.11.449-.169.668l-.219.9c-.06.249-.18.717-.19.737a.408.408,0,0,1-.368.279.267.267,0,0,1-.29-.269c0-.05.061-.279.09-.428Z" transform="translate(-0.289 -0.91)"/>
    <path class="cls-3" d="M196.944,32.234h-1.365v-.4h.966V22.668h-.966v-.4h1.365Z" transform="translate(-0.289 -0.91)"/>
    <polyline points="258.939 17.935 263.474 15.667 258.939 13.4 260.073 15.667"/>
    <line class="cls-2" x1="235.128" y1="15.667" x2="260.073" y2="15.667"/>
    <path class="cls-1" d="M236.873,6.739a3.877,3.877,0,0,0-.17.877c0,.339.16.658.548.658.319,0,1-.239,1.326-1.306.019-.07.039-.109.129-.109.03,0,.12,0,.12.1,0,.25-.569,1.535-1.595,1.535a1.1,1.1,0,0,1-1.076-.757,1.326,1.326,0,0,1-1.046.757c-.439,0-.937-.2-.937-.658a.567.567,0,0,1,.548-.578.342.342,0,0,1,.369.349.565.565,0,0,1-.468.538.954.954,0,0,0,.5.13c.438,0,.787-.419.946-1.037a14.471,14.471,0,0,0,.538-2.371c0-.578-.349-.668-.538-.668-.338,0-1,.25-1.335,1.306-.02.089-.05.109-.129.109-.02,0-.12,0-.12-.1,0-.249.568-1.535,1.6-1.535a1.1,1.1,0,0,1,1.077.757,1.286,1.286,0,0,1,1.046-.757c.338,0,.926.14.926.658a.555.555,0,0,1-.538.578.349.349,0,0,1-.379-.349.58.58,0,0,1,.479-.538.974.974,0,0,0-.5-.13c-.7,0-.927.917-.987,1.176Z" transform="translate(-0.289 -0.91)"/>
    <path class="cls-1" d="M240.692,10.875V.91h1.365v.4h-.967v9.167h.967v.4Z" transform="translate(-0.289 -0.91)"/>
    <path class="cls-1" d="M243.729,5.494a3.227,3.227,0,0,0,.159-.837c0-.329-.109-.459-.308-.459-.36,0-.559.479-.728,1.186-.06.22-.07.229-.17.229-.019,0-.119,0-.119-.1a5.058,5.058,0,0,1,.3-.967.87.87,0,0,1,.747-.568.9.9,0,0,1,.917.867,1.925,1.925,0,0,1,1.555-.867,1.018,1.018,0,0,1,1.145,1.066,9.024,9.024,0,0,1-.607,2.192,1.9,1.9,0,0,0-.18.708c0,.229.069.329.239.329.489,0,.817-.558,1.016-1.236.051-.149.051-.179.15-.179.03,0,.119,0,.119.1,0,.08-.369,1.535-1.305,1.535a.8.8,0,0,1-.817-.817,1.136,1.136,0,0,1,.1-.459,9.5,9.5,0,0,0,.647-2.321c0-.329-.089-.7-.538-.7a1.984,1.984,0,0,0-1.624,1.216c-.009.04-.09.329-.13.5-.049.23-.109.449-.169.668l-.219.9c-.06.249-.179.717-.19.737a.407.407,0,0,1-.368.279.267.267,0,0,1-.289-.269c0-.05.06-.279.09-.429Z" transform="translate(-0.289 -0.91)"/>
    <path class="cls-1" d="M249.866,10.875H248.5v-.4h.967V1.309H248.5V.91h1.366Z" transform="translate(-0.289 -0.91)"/>
    <path class="cls-3" d="M236.392,23.685c0-.6.359-1.027,1.137-1.027a3.289,3.289,0,0,1,.816.11c.36.08.519.109.519.329a.419.419,0,0,1-.4.4,1.367,1.367,0,0,1-.548-.249,1.2,1.2,0,0,0-.708-.269.5.5,0,0,0-.547.459,3.932,3.932,0,0,0,.946,1.633,2.8,2.8,0,0,1,.737,1.854c0,1.375-.827,2.939-1.992,2.939a1.566,1.566,0,0,1-1.574-1.674,3.045,3.045,0,0,1,2.212-2.8A4.062,4.062,0,0,1,236.392,23.685Zm-1,4.782c0,.758.408,1.176.957,1.176.927,0,1.3-1.664,1.3-2.322a3.461,3.461,0,0,0-.548-1.714C235.765,25.966,235.4,27.839,235.4,28.467Z" transform="translate(-0.289 -0.91)"/>
    <path class="cls-3" d="M240.333,32.234V22.27H241.7v.4h-.967v9.167h.967v.4Z" transform="translate(-0.289 -0.91)"/>
    <path class="cls-3" d="M243.377,26.853a3.239,3.239,0,0,0,.16-.837c0-.328-.11-.458-.309-.458-.359,0-.559.478-.728,1.186-.059.219-.07.229-.169.229-.02,0-.12,0-.12-.1a5.035,5.035,0,0,1,.3-.966.87.87,0,0,1,.747-.569.9.9,0,0,1,.917.868,1.924,1.924,0,0,1,1.555-.868,1.019,1.019,0,0,1,1.146,1.067,8.982,8.982,0,0,1-.608,2.192,1.893,1.893,0,0,0-.18.707c0,.229.07.329.24.329.488,0,.816-.558,1.015-1.236.051-.149.051-.179.151-.179.029,0,.119,0,.119.1,0,.079-.369,1.534-1.306,1.534a.8.8,0,0,1-.816-.817,1.144,1.144,0,0,1,.1-.458,9.475,9.475,0,0,0,.648-2.322c0-.329-.09-.7-.538-.7a1.98,1.98,0,0,0-1.624,1.215c-.01.04-.09.329-.13.5-.05.23-.11.449-.169.668l-.22.9c-.059.249-.179.717-.189.737a.408.408,0,0,1-.368.279.267.267,0,0,1-.29-.269c0-.05.06-.279.09-.428Z" transform="translate(-0.289 -0.91)"/>
    <path class="cls-3" d="M249.5,32.234h-1.366v-.4h.967V22.668h-.967v-.4H249.5Z" transform="translate(-0.289 -0.91)"/>
    <g>
      <path class="cls-1" d="M349.2,12.821h-5.192v-.309h.24c.766,0,.787-.11.787-.469V6.792c0-.358-.021-.468-.787-.468h-.24V6.016c.349.029,1.126.029,1.515.029.408,0,1.314,0,1.674-.029v.308h-.329c-.947,0-.947.14-.947.479v5.31c0,.329.02.4.489.4h.816c1.754,0,1.894-1.245,2-2.262h.249Z" transform="translate(-0.289 -0.91)"/>
      <path class="cls-1" d="M355.905,8.317h-.249c-.14-1.6-.289-1.933-1.794-1.933a4.683,4.683,0,0,0-.568.02c-.179.04-.179.179-.179.379v5.251c0,.339,0,.478,1.047.478h.4v.309c-.409-.03-1.435-.03-1.893-.03s-1.475,0-1.883.03v-.309h.4c1.046,0,1.046-.139,1.046-.478V6.783c0-.23,0-.339-.209-.379a4.161,4.161,0,0,0-.538-.02c-1.5,0-1.654.329-1.794,1.933h-.249l.189-2.242h6.088Z" transform="translate(-0.289 -0.91)"/>
    </g>
    <g>
      <path class="cls-1" d="M358.516,12.043c0,.359.029.469.817.469h.259v.309c-.348-.03-1.136-.03-1.524-.03s-1.166,0-1.515.03v-.309h.259c.787,0,.817-.11.817-.469V6.792c0-.358-.03-.468-.817-.468h-.259V6.016c.349.029,1.136.029,1.525.029s1.166,0,1.514-.029v.308h-.259c-.788,0-.817.11-.817.468Z" transform="translate(-0.289 -0.91)"/>
      <path class="cls-1" d="M366.158,12.034c0,.368.029.478.926.478h.319v.309c-.349-.03-1.216-.03-1.614-.03s-1.266,0-1.615.03v-.309h.32c.9,0,.926-.119.926-.478V6.872a2.984,2.984,0,0,1-1.305.259V6.822a2.463,2.463,0,0,0,1.813-.637c.23,0,.23.02.23.259Z" transform="translate(-0.289 -0.91)"/>
    </g>
    <path class="cls-1" d="M347.083,22.5a1.849,1.849,0,0,1,1.475-.768A1.014,1.014,0,0,1,349.7,22.8a8.9,8.9,0,0,1-.609,2.192,1.92,1.92,0,0,0-.178.708c0,.229.069.329.239.329.548,0,.866-.708,1.015-1.236.05-.149.05-.179.15-.179.03,0,.12,0,.12.1,0,.08-.369,1.535-1.306,1.535a.8.8,0,0,1-.816-.817,1.516,1.516,0,0,1,.129-.548,8.472,8.472,0,0,0,.618-2.232c0-.359-.109-.7-.538-.7a1.59,1.59,0,0,0-.957.349,2.932,2.932,0,0,0-.677.917c-.011.059-.09.389-.11.448-.05.23-.11.449-.169.668l-.22.9-.188.757a.416.416,0,0,1-.37.259.275.275,0,0,1-.289-.279.609.609,0,0,1,.04-.219l1.445-5.74.03-.2c0-.1-.02-.169-.5-.169-.149,0-.239,0-.239-.12,0-.179.109-.189.189-.2.259-.02.986-.1,1.216-.1.129,0,.129.1.129.11Z" transform="translate(-0.289 -0.91)"/>
    <path class="cls-1" d="M353.094,27.015c0,.23,0,.32.7.32h.265v.251c-.154-.006-1.032-.027-1.249-.027-.258,0-1.115.021-1.241.027v-.251h.266c.7,0,.7-.09.7-.32V23.458a2.3,2.3,0,0,1-1.012.2V23.4a1.9,1.9,0,0,0,1.367-.446c.2,0,.209.007.209.2Z" transform="translate(-0.289 -0.91)"/>
    <path class="cls-1" d="M356.5,28.625V18.66h1.365v.4H356.9v9.167h.967v.4Z" transform="translate(-0.289 -0.91)"/>
    <path class="cls-1" d="M359.534,23.244a3.227,3.227,0,0,0,.159-.837c0-.329-.11-.459-.309-.459-.359,0-.558.479-.727,1.186-.06.22-.071.229-.17.229-.02,0-.119,0-.119-.1a4.983,4.983,0,0,1,.3-.967.87.87,0,0,1,.747-.568.9.9,0,0,1,.917.867,1.924,1.924,0,0,1,1.554-.867,1.019,1.019,0,0,1,1.146,1.066,8.982,8.982,0,0,1-.608,2.192,1.9,1.9,0,0,0-.179.708c0,.229.069.329.239.329.488,0,.816-.558,1.016-1.236.05-.149.05-.179.15-.179.029,0,.119,0,.119.1,0,.08-.369,1.535-1.306,1.535a.8.8,0,0,1-.816-.817,1.136,1.136,0,0,1,.1-.459,9.5,9.5,0,0,0,.647-2.321c0-.329-.09-.7-.538-.7a1.983,1.983,0,0,0-1.624,1.216c-.01.04-.09.329-.13.5-.05.23-.109.449-.169.668l-.22.9c-.059.249-.178.717-.189.737a.407.407,0,0,1-.368.279.266.266,0,0,1-.289-.269c0-.05.059-.279.09-.429Z" transform="translate(-0.289 -0.91)"/>
    <path class="cls-1" d="M365.663,28.625H364.3v-.4h.967V19.059H364.3v-.4h1.366Z" transform="translate(-0.289 -0.91)"/>
    <polygon class="cls-2" points="334.34 15.667 334.34 1.494 376.86 1.494 376.86 29.84 334.34 29.84 334.34 15.667"/>
    <polyline points="414.844 17.935 419.379 15.667 414.844 13.4 415.977 15.667"/>
    <line class="cls-2" x1="376.86" y1="15.667" x2="415.977" y2="15.667"/>
    <path class="cls-1" d="M401.082,8.393a2.628,2.628,0,0,1-2.332,2.033.942.942,0,0,1-1.056-.867.574.574,0,0,1,.558-.647.339.339,0,0,1,.369.348.537.537,0,0,1-.2.408.566.566,0,0,1-.428.12.805.805,0,0,0,.757.419,1.427,1.427,0,0,0,1.1-.628,3.81,3.81,0,0,0,.648-1.535,1.4,1.4,0,0,1-1.006.449,1.111,1.111,0,0,1-1.216-1.186,6.59,6.59,0,0,1,.578-2.092,2.129,2.129,0,0,0,.169-.7c0-.319-.169-.319-.249-.319-.339,0-.737.3-1.006,1.236-.05.159-.06.179-.16.179-.02,0-.119,0-.119-.1s.368-1.535,1.315-1.535a.79.79,0,0,1,.817.817,1.778,1.778,0,0,1-.2.718,5.952,5.952,0,0,0-.507,1.953c0,.368.109.807.618.807a1.385,1.385,0,0,0,1.125-.847l.449-1.794c.06-.269.129-.538.2-.8.039-.179.119-.488.14-.538a.43.43,0,0,1,.349-.209.267.267,0,0,1,.289.269.622.622,0,0,1-.04.229Z" transform="translate(-0.289 -0.91)"/>
    <path class="cls-1" d="M403.653,10.875V.91h1.365v.4h-.967v9.167h.967v.4Z" transform="translate(-0.289 -0.91)"/>
    <path class="cls-1" d="M406.69,5.494a3.227,3.227,0,0,0,.159-.837c0-.329-.109-.459-.308-.459-.36,0-.559.479-.728,1.186-.06.22-.07.229-.17.229-.019,0-.119,0-.119-.1a5.058,5.058,0,0,1,.3-.967.87.87,0,0,1,.747-.568.9.9,0,0,1,.917.867,1.925,1.925,0,0,1,1.555-.867,1.018,1.018,0,0,1,1.145,1.066,9.024,9.024,0,0,1-.607,2.192,1.9,1.9,0,0,0-.18.708c0,.229.069.329.239.329.488,0,.817-.558,1.016-1.236.051-.149.051-.179.15-.179.029,0,.119,0,.119.1,0,.08-.369,1.535-1.3,1.535a.8.8,0,0,1-.817-.817,1.136,1.136,0,0,1,.1-.459,9.5,9.5,0,0,0,.647-2.321c0-.329-.09-.7-.538-.7a1.984,1.984,0,0,0-1.624,1.216c-.01.04-.09.329-.13.5-.049.23-.109.449-.169.668l-.219.9c-.06.249-.179.717-.19.737a.407.407,0,0,1-.368.279.267.267,0,0,1-.289-.269c0-.05.06-.279.09-.429Z" transform="translate(-0.289 -0.91)"/>
    <path class="cls-1" d="M412.819,10.875h-1.365v-.4h.966V1.309h-.966V.91h1.365Z" transform="translate(-0.289 -0.91)"/>
    <path class="cls-3" d="M381.161,26.106a1.849,1.849,0,0,1,1.475-.768,1.014,1.014,0,0,1,1.146,1.067,8.93,8.93,0,0,1-.609,2.192A1.91,1.91,0,0,0,383,29.3c0,.229.069.329.239.329.548,0,.866-.707,1.016-1.236.049-.149.049-.179.149-.179.03,0,.12,0,.12.1,0,.079-.369,1.534-1.306,1.534a.8.8,0,0,1-.816-.817,1.516,1.516,0,0,1,.129-.548,8.472,8.472,0,0,0,.618-2.232c0-.359-.109-.7-.538-.7a1.584,1.584,0,0,0-.957.349,2.931,2.931,0,0,0-.677.916c-.011.06-.09.389-.11.448-.05.23-.11.449-.169.668l-.22.9-.188.757a.415.415,0,0,1-.369.259.275.275,0,0,1-.29-.279.6.6,0,0,1,.041-.219l1.444-5.739.03-.2c0-.1-.019-.17-.5-.17-.149,0-.239,0-.239-.12,0-.179.109-.188.189-.2.259-.02.987-.1,1.216-.1.129,0,.129.1.129.11Z" transform="translate(-0.289 -0.91)"/>
    <path class="cls-3" d="M388.157,31.188h-2.873c0-.2,0-.209.069-.272l1.681-1.66a2.119,2.119,0,0,0,.655-1.339,1.043,1.043,0,0,0-1.06-1.108,1.1,1.1,0,0,0-1.018.649c.363,0,.412.243.412.369a.37.37,0,1,1-.739-.021,1.352,1.352,0,0,1,1.45-1.248,1.46,1.46,0,0,1,1.632,1.359,2.021,2.021,0,0,1-1,1.507c-.419.327-.662.523-1.4,1.171h1.283a3.6,3.6,0,0,0,.691-.042,1.613,1.613,0,0,0,.18-.634h.238Z" transform="translate(-0.289 -0.91)"/>
    <path class="cls-3" d="M390.458,32.234V22.27h1.365v.4h-.967v9.167h.967v.4Z" transform="translate(-0.289 -0.91)"/>
    <path class="cls-3" d="M393.5,26.853a3.22,3.22,0,0,0,.159-.837c0-.328-.11-.458-.309-.458-.359,0-.558.478-.727,1.186-.06.219-.071.229-.17.229-.02,0-.119,0-.119-.1a5.007,5.007,0,0,1,.3-.966.872.872,0,0,1,.748-.569.9.9,0,0,1,.917.868,1.92,1.92,0,0,1,1.554-.868,1.019,1.019,0,0,1,1.146,1.067,8.982,8.982,0,0,1-.608,2.192,1.892,1.892,0,0,0-.179.707c0,.229.069.329.239.329.488,0,.816-.558,1.015-1.236.051-.149.051-.179.151-.179.029,0,.119,0,.119.1,0,.079-.369,1.534-1.306,1.534a.8.8,0,0,1-.816-.817,1.132,1.132,0,0,1,.1-.458,9.519,9.519,0,0,0,.647-2.322c0-.329-.09-.7-.538-.7a1.982,1.982,0,0,0-1.624,1.215c-.01.04-.09.329-.13.5-.05.23-.109.449-.169.668l-.22.9c-.059.249-.178.717-.189.737a.407.407,0,0,1-.368.279.266.266,0,0,1-.289-.269c0-.05.059-.279.09-.428Z" transform="translate(-0.289 -0.91)"/>
    <path class="cls-3" d="M399.624,32.234h-1.366v-.4h.967V22.668h-.967v-.4h1.366Z" transform="translate(-0.289 -0.91)"/>
    <path class="cls-3" d="M405.679,27.042l1.116-.807c.249-.189.269-.189.339-.189a.283.283,0,0,1,.269.279c0,.15-.079.189-.239.269l-1.375.668c.787.368.807.368,1.405.667.119.06.209.11.209.259a.29.29,0,0,1-.269.279c-.07,0-.09-.02-.179-.07l-1.276-.926.15,1.674a.265.265,0,0,1-.529,0l.15-1.674-1.116.807c-.249.189-.269.189-.338.189a.284.284,0,0,1-.27-.279c0-.149.08-.189.239-.269l1.375-.668-1.415-.677c-.1-.05-.2-.09-.2-.249a.292.292,0,0,1,.27-.279c.069,0,.089.02.178.07l1.276.926-.139-1.544v-.129c-.03-.13.1-.26.259-.26.259,0,.259.24.249.379Z" transform="translate(-0.289 -0.91)"/>
    <path class="cls-3" d="M412.356,26.106a1.851,1.851,0,0,1,1.476-.768,1.013,1.013,0,0,1,1.145,1.067,8.93,8.93,0,0,1-.608,2.192,1.911,1.911,0,0,0-.179.707c0,.229.069.329.239.329.548,0,.866-.707,1.016-1.236.05-.149.05-.179.149-.179.031,0,.12,0,.12.1,0,.079-.369,1.534-1.305,1.534a.8.8,0,0,1-.817-.817,1.516,1.516,0,0,1,.129-.548,8.472,8.472,0,0,0,.618-2.232c0-.359-.109-.7-.538-.7a1.587,1.587,0,0,0-.957.349,2.948,2.948,0,0,0-.677.916c-.01.06-.089.389-.11.448-.05.23-.109.449-.169.668l-.22.9-.188.757a.415.415,0,0,1-.369.259.274.274,0,0,1-.289-.279.615.615,0,0,1,.04-.219l1.444-5.739.03-.2c0-.1-.019-.17-.5-.17-.149,0-.239,0-.239-.12,0-.179.109-.188.19-.2.258-.02.986-.1,1.215-.1.129,0,.129.1.129.11Z" transform="translate(-0.289 -0.91)"/>
    <path class="cls-3" d="M418.375,30.616c0,.23,0,.321.7.321h.265v.251c-.154-.007-1.032-.028-1.249-.028-.257,0-1.115.021-1.241.028v-.251h.266c.7,0,.7-.091.7-.321V27.06a2.3,2.3,0,0,1-1.012.2V27a1.907,1.907,0,0,0,1.368-.446c.2,0,.208.007.208.2Z" transform="translate(-0.289 -0.91)"/>
    <path class="cls-3" d="M421.653,32.234V22.27h1.365v.4h-.967v9.167h.967v.4Z" transform="translate(-0.289 -0.91)"/>
    <path class="cls-3" d="M424.7,26.853a3.22,3.22,0,0,0,.159-.837c0-.328-.109-.458-.309-.458-.359,0-.558.478-.727,1.186-.06.219-.071.229-.17.229-.02,0-.119,0-.119-.1a4.96,4.96,0,0,1,.3-.966.869.869,0,0,1,.747-.569.9.9,0,0,1,.917.868,1.922,1.922,0,0,1,1.554-.868,1.019,1.019,0,0,1,1.146,1.067,8.982,8.982,0,0,1-.608,2.192,1.911,1.911,0,0,0-.179.707c0,.229.069.329.239.329.488,0,.816-.558,1.016-1.236.05-.149.05-.179.15-.179.029,0,.119,0,.119.1,0,.079-.369,1.534-1.306,1.534a.8.8,0,0,1-.816-.817,1.132,1.132,0,0,1,.1-.458,9.519,9.519,0,0,0,.647-2.322c0-.329-.09-.7-.538-.7a1.982,1.982,0,0,0-1.624,1.215c-.01.04-.09.329-.13.5-.05.23-.109.449-.169.668l-.22.9c-.059.249-.178.717-.189.737a.407.407,0,0,1-.368.279.266.266,0,0,1-.289-.269c0-.05.059-.279.09-.428Z" transform="translate(-0.289 -0.91)"/>
    <path class="cls-3" d="M430.827,32.234h-1.366v-.4h.967V22.668h-.967v-.4h1.366Z" transform="translate(-0.289 -0.91)"/>
    <g>
      <path class="cls-4" d="M278.279,12.821h-5.192v-.309h.24c.766,0,.787-.11.787-.469V6.792c0-.358-.021-.468-.787-.468h-.24V6.016c.349.029,1.126.029,1.515.029.408,0,1.315,0,1.674-.029v.308h-.329c-.947,0-.947.14-.947.479v5.31c0,.329.02.4.489.4h.816c1.754,0,1.894-1.245,2-2.262h.249Z" transform="translate(-0.289 -0.91)"/>
      <path class="cls-4" d="M284.983,8.317h-.249c-.14-1.6-.289-1.933-1.794-1.933a4.657,4.657,0,0,0-.567.02c-.18.04-.18.179-.18.379v5.251c0,.339,0,.478,1.047.478h.4v.309c-.409-.03-1.435-.03-1.893-.03s-1.475,0-1.883.03v-.309h.4c1.046,0,1.046-.139,1.046-.478V6.783c0-.23,0-.339-.209-.379a4.153,4.153,0,0,0-.538-.02c-1.505,0-1.654.329-1.794,1.933h-.249l.19-2.242h6.087Z" transform="translate(-0.289 -0.91)"/>
    </g>
    <g>
      <path class="cls-4" d="M287.6,12.043c0,.359.029.469.816.469h.26v.309c-.348-.03-1.136-.03-1.524-.03s-1.166,0-1.515.03v-.309h.259c.787,0,.817-.11.817-.469V6.792c0-.358-.03-.468-.817-.468h-.259V6.016c.349.029,1.136.029,1.525.029s1.166,0,1.514-.029v.308h-.26c-.787,0-.816.11-.816.468Z" transform="translate(-0.289 -0.91)"/>
      <path class="cls-4" d="M295.373,12.054a3.24,3.24,0,0,0,.947-.08,3.317,3.317,0,0,0,.219-.887h.249l-.279,1.734h-3.7c0-.239,0-.259.109-.369l1.913-2.132a3.566,3.566,0,0,0,1.047-2.2c0-.817-.428-1.624-1.336-1.624A1.436,1.436,0,0,0,293.2,7.51a.377.377,0,0,1,.13-.01.5.5,0,0,1,.527.518.524.524,0,1,1-1.046-.03,1.841,1.841,0,0,1,1.863-1.8,1.958,1.958,0,0,1,2.113,1.933c0,1-.6,1.534-2.153,2.909l-1.055,1.027Z" transform="translate(-0.289 -0.91)"/>
    </g>
    <path class="cls-4" d="M276.286,22.5a1.849,1.849,0,0,1,1.475-.768,1.014,1.014,0,0,1,1.146,1.066,8.9,8.9,0,0,1-.609,2.192,1.92,1.92,0,0,0-.178.708c0,.229.069.329.239.329.548,0,.866-.708,1.016-1.236.049-.149.049-.179.149-.179.03,0,.12,0,.12.1,0,.08-.369,1.535-1.306,1.535a.8.8,0,0,1-.816-.817,1.516,1.516,0,0,1,.129-.548,8.472,8.472,0,0,0,.618-2.232c0-.359-.109-.7-.538-.7a1.59,1.59,0,0,0-.957.349,2.932,2.932,0,0,0-.677.917c-.011.059-.09.389-.11.448-.05.23-.11.449-.169.668l-.22.9-.188.757a.415.415,0,0,1-.369.259.275.275,0,0,1-.29-.279.6.6,0,0,1,.041-.219l1.444-5.74.03-.2c0-.1-.019-.169-.5-.169-.149,0-.239,0-.239-.12,0-.179.109-.189.189-.2.259-.02.987-.1,1.216-.1.129,0,.129.1.129.11Z" transform="translate(-0.289 -0.91)"/>
    <path class="cls-4" d="M283.274,27.586H280.4c0-.2,0-.209.069-.272l1.681-1.659a2.114,2.114,0,0,0,.655-1.339,1.043,1.043,0,0,0-1.059-1.109,1.1,1.1,0,0,0-1.019.649c.363,0,.412.244.412.369a.37.37,0,1,1-.739-.02,1.352,1.352,0,0,1,1.45-1.249,1.46,1.46,0,0,1,1.632,1.36,2.018,2.018,0,0,1-1,1.506c-.419.328-.662.523-1.395,1.172h1.284a3.594,3.594,0,0,0,.69-.042,1.635,1.635,0,0,0,.181-.635h.237Z" transform="translate(-0.289 -0.91)"/>
    <path class="cls-4" d="M285.575,28.625V18.66h1.365v.4h-.967v9.167h.967v.4Z" transform="translate(-0.289 -0.91)"/>
    <path class="cls-4" d="M288.62,23.244a3.227,3.227,0,0,0,.159-.837c0-.329-.11-.459-.309-.459-.359,0-.558.479-.727,1.186-.06.22-.071.229-.17.229-.02,0-.119,0-.119-.1a5.031,5.031,0,0,1,.3-.967.872.872,0,0,1,.748-.568.9.9,0,0,1,.917.867,1.922,1.922,0,0,1,1.554-.867,1.019,1.019,0,0,1,1.146,1.066,8.982,8.982,0,0,1-.608,2.192,1.9,1.9,0,0,0-.179.708c0,.229.069.329.239.329.488,0,.816-.558,1.015-1.236.051-.149.051-.179.151-.179.029,0,.119,0,.119.1,0,.08-.369,1.535-1.306,1.535a.8.8,0,0,1-.816-.817,1.136,1.136,0,0,1,.1-.459,9.5,9.5,0,0,0,.647-2.321c0-.329-.09-.7-.538-.7a1.983,1.983,0,0,0-1.624,1.216c-.01.04-.09.329-.13.5-.05.23-.109.449-.169.668l-.22.9c-.059.249-.178.717-.189.737a.407.407,0,0,1-.368.279.266.266,0,0,1-.289-.269c0-.05.059-.279.09-.429Z" transform="translate(-0.289 -0.91)"/>
    <path class="cls-4" d="M294.741,28.625h-1.366v-.4h.967V19.059h-.967v-.4h1.366Z" transform="translate(-0.289 -0.91)"/>
    <polygon class="cls-2" points="263.474 15.667 263.474 1.494 305.994 1.494 305.994 29.84 263.474 29.84 263.474 15.667"/>
    <polyline points="329.805 17.935 334.34 15.667 329.805 13.4 330.939 15.667"/>
    <line class="cls-2" x1="305.994" y1="15.667" x2="330.939" y2="15.667"/>
    <path class="cls-1" d="M314.539,8.493A1.191,1.191,0,0,1,313.2,7.257a6.071,6.071,0,0,1,.568-2.042,2.062,2.062,0,0,0,.169-.7c0-.319-.169-.319-.249-.319-.289,0-.718.23-1.006,1.236-.05.159-.061.179-.16.179-.02,0-.119,0-.119-.1s.379-1.535,1.315-1.535a.79.79,0,0,1,.817.817,1.216,1.216,0,0,1-.12.5,7.029,7.029,0,0,0-.578,2.113c0,.518.23.867.738.867,1.166,0,1.773-2.282,1.773-2.7a1.07,1.07,0,0,0-.339-.817c-.109-.109-.159-.169-.159-.3a.532.532,0,0,1,.488-.479c.18,0,.439.16.439.7C316.781,5.2,316.212,8.493,314.539,8.493Z" transform="translate(-0.289 -0.91)"/>
    <path class="cls-1" d="M318.45,10.875V.91h1.365v.4h-.967v9.167h.967v.4Z" transform="translate(-0.289 -0.91)"/>
    <path class="cls-1" d="M321.5,5.494a3.227,3.227,0,0,0,.159-.837c0-.329-.11-.459-.309-.459-.359,0-.558.479-.727,1.186-.06.22-.071.229-.17.229-.02,0-.119,0-.119-.1a5.031,5.031,0,0,1,.3-.967.872.872,0,0,1,.748-.568.9.9,0,0,1,.917.867,1.922,1.922,0,0,1,1.554-.867,1.019,1.019,0,0,1,1.146,1.066,8.982,8.982,0,0,1-.608,2.192,1.9,1.9,0,0,0-.179.708c0,.229.069.329.239.329.488,0,.816-.558,1.015-1.236.051-.149.051-.179.151-.179.029,0,.119,0,.119.1,0,.08-.369,1.535-1.306,1.535a.8.8,0,0,1-.816-.817,1.136,1.136,0,0,1,.1-.459,9.5,9.5,0,0,0,.647-2.321c0-.329-.09-.7-.538-.7a1.983,1.983,0,0,0-1.624,1.216c-.01.04-.09.329-.13.5-.05.23-.109.449-.169.668l-.22.9c-.059.249-.178.717-.189.737a.407.407,0,0,1-.368.279.266.266,0,0,1-.289-.269c0-.05.059-.279.09-.429Z" transform="translate(-0.289 -0.91)"/>
    <path class="cls-1" d="M327.624,10.875h-1.366v-.4h.967V1.309h-.967V.91h1.366Z" transform="translate(-0.289 -0.91)"/>
    <path class="cls-3" d="M311.684,26.106a1.851,1.851,0,0,1,1.476-.768,1.013,1.013,0,0,1,1.145,1.067A8.93,8.93,0,0,1,313.7,28.6a1.911,1.911,0,0,0-.179.707c0,.229.069.329.239.329.548,0,.867-.707,1.016-1.236.05-.149.05-.179.149-.179.031,0,.12,0,.12.1,0,.079-.369,1.534-1.3,1.534a.8.8,0,0,1-.817-.817,1.516,1.516,0,0,1,.129-.548,8.434,8.434,0,0,0,.618-2.232c0-.359-.109-.7-.538-.7a1.587,1.587,0,0,0-.957.349,2.923,2.923,0,0,0-.676.916c-.011.06-.09.389-.111.448-.05.23-.109.449-.169.668l-.219.9-.189.757a.415.415,0,0,1-.369.259.274.274,0,0,1-.289-.279.615.615,0,0,1,.04-.219l1.444-5.739.031-.2c0-.1-.02-.17-.5-.17-.15,0-.24,0-.24-.12,0-.179.11-.188.19-.2.258-.02.986-.1,1.216-.1.128,0,.128.1.128.11Z" transform="translate(-0.289 -0.91)"/>
    <path class="cls-3" d="M318.672,31.188H315.8c0-.2,0-.209.07-.272l1.68-1.66a2.114,2.114,0,0,0,.656-1.339,1.044,1.044,0,0,0-1.06-1.108,1.1,1.1,0,0,0-1.019.649c.364,0,.413.243.413.369a.37.37,0,1,1-.74-.021,1.353,1.353,0,0,1,1.451-1.248,1.459,1.459,0,0,1,1.631,1.359,2.018,2.018,0,0,1-1,1.507c-.419.327-.662.523-1.394,1.171h1.283a3.583,3.583,0,0,0,.69-.042,1.613,1.613,0,0,0,.181-.634h.237Z" transform="translate(-0.289 -0.91)"/>
    <path class="cls-3" d="M320.981,32.234V22.27h1.365v.4h-.967v9.167h.967v.4Z" transform="translate(-0.289 -0.91)"/>
    <path class="cls-3" d="M324.018,26.853a3.22,3.22,0,0,0,.159-.837c0-.328-.109-.458-.308-.458-.36,0-.559.478-.728,1.186-.059.219-.07.229-.17.229-.019,0-.119,0-.119-.1a5.035,5.035,0,0,1,.3-.966.869.869,0,0,1,.747-.569.9.9,0,0,1,.917.868,1.922,1.922,0,0,1,1.555-.868,1.018,1.018,0,0,1,1.145,1.067,9.024,9.024,0,0,1-.607,2.192,1.893,1.893,0,0,0-.18.707c0,.229.069.329.239.329.489,0,.817-.558,1.016-1.236.051-.149.051-.179.15-.179.03,0,.119,0,.119.1,0,.079-.369,1.534-1.305,1.534a.8.8,0,0,1-.817-.817,1.132,1.132,0,0,1,.1-.458,9.519,9.519,0,0,0,.647-2.322c0-.329-.089-.7-.538-.7a1.983,1.983,0,0,0-1.624,1.215c-.009.04-.09.329-.13.5-.049.23-.109.449-.168.668l-.22.9c-.06.249-.179.717-.19.737a.407.407,0,0,1-.368.279.266.266,0,0,1-.289-.269c0-.05.06-.279.09-.428Z" transform="translate(-0.289 -0.91)"/>
    <path class="cls-3" d="M330.139,32.234h-1.365v-.4h.967V22.668h-.967v-.4h1.365Z" transform="translate(-0.289 -0.91)"/>
    <path d="M94.925,48.983a4.828,4.828,0,0,0,1.455.857c.119,0,.119-.12.119-.2,0-.139-.01-.149-.209-.239a4.573,4.573,0,0,1-2.421-2.551.115.115,0,0,0-.11-.079c-.07,0-.08.03-.139.169a4.518,4.518,0,0,1-2.5,2.5c-.1.05-.1.1-.1.2,0,.08,0,.2.12.2a4.828,4.828,0,0,0,1.454-.857v5.978a4.828,4.828,0,0,0-1.454-.857c-.12,0-.12.12-.12.2,0,.14.01.15.209.24a4.575,4.575,0,0,1,2.421,2.55.115.115,0,0,0,.11.08c.07,0,.08-.03.14-.169a4.509,4.509,0,0,1,2.5-2.5c.1-.05.1-.1.1-.2,0-.079,0-.2-.119-.2a4.828,4.828,0,0,0-1.455.857Zm-1.933-.4a5,5,0,0,0,.767-1.046,5.278,5.278,0,0,0,.767,1.046V55.36a5,5,0,0,0-.767,1.046,5.278,5.278,0,0,0-.767-1.046Z" transform="translate(-0.289 -0.91)"/>
    <polyline points="32.168 88.801 36.704 86.533 32.168 84.265 33.302 86.533"/>
    <line class="cls-2" x1="8.358" y1="86.533" x2="33.302" y2="86.533"/>
    <path class="cls-1" d="M10.185,77.661a3.877,3.877,0,0,0-.17.877c0,.339.159.658.548.658.319,0,1-.239,1.325-1.3.02-.07.04-.11.13-.11.03,0,.12,0,.12.1,0,.249-.569,1.534-1.6,1.534a1.1,1.1,0,0,1-1.076-.757,1.323,1.323,0,0,1-1.046.757c-.439,0-.937-.2-.937-.657a.565.565,0,0,1,.548-.578.341.341,0,0,1,.369.348.563.563,0,0,1-.468.538.954.954,0,0,0,.5.13c.438,0,.787-.419.946-1.036a14.506,14.506,0,0,0,.539-2.372c0-.577-.349-.667-.539-.667-.338,0-1,.249-1.335,1.305-.02.09-.05.11-.129.11-.02,0-.12,0-.12-.1,0-.25.568-1.536,1.6-1.536a1.1,1.1,0,0,1,1.077.758A1.288,1.288,0,0,1,11.52,74.9c.338,0,.926.14.926.659a.555.555,0,0,1-.538.577.347.347,0,0,1-.378-.349.579.579,0,0,1,.478-.538.98.98,0,0,0-.5-.129c-.7,0-.927.916-.987,1.176Z" transform="translate(-0.289 -0.91)"/>
    <path class="cls-1" d="M14.012,81.8V71.833h1.365v.4H14.41V81.4h.967v.4Z" transform="translate(-0.289 -0.91)"/>
    <path class="cls-1" d="M17.056,76.416a3.2,3.2,0,0,0,.16-.837c0-.329-.11-.458-.309-.458-.359,0-.558.478-.727,1.186-.06.218-.07.229-.17.229-.02,0-.119,0-.119-.1a5.01,5.01,0,0,1,.3-.967.872.872,0,0,1,.748-.569.9.9,0,0,1,.917.868,1.922,1.922,0,0,1,1.554-.868,1.019,1.019,0,0,1,1.146,1.067,8.982,8.982,0,0,1-.608,2.192,1.892,1.892,0,0,0-.179.707c0,.23.069.329.239.329.488,0,.817-.558,1.016-1.235.05-.149.05-.18.149-.18.03,0,.12,0,.12.1,0,.08-.369,1.534-1.3,1.534a.8.8,0,0,1-.818-.816,1.136,1.136,0,0,1,.1-.459,9.494,9.494,0,0,0,.647-2.322c0-.329-.09-.7-.538-.7a1.98,1.98,0,0,0-1.624,1.215c-.01.04-.09.329-.13.5-.05.228-.109.448-.169.667l-.219.9c-.06.249-.18.717-.19.738a.405.405,0,0,1-.368.278.266.266,0,0,1-.289-.269c0-.049.06-.279.09-.428Z" transform="translate(-0.289 -0.91)"/>
    <path class="cls-1" d="M23.186,81.8H21.821v-.4h.966V72.231h-.966v-.4h1.365Z" transform="translate(-0.289 -0.91)"/>
    <path class="cls-3" d="M9.6,94.481c0-.6.359-1.025,1.136-1.025a3.324,3.324,0,0,1,.817.109c.359.08.518.11.518.33a.418.418,0,0,1-.4.4,1.372,1.372,0,0,1-.547-.249,1.207,1.207,0,0,0-.708-.27.5.5,0,0,0-.548.458,3.924,3.924,0,0,0,.947,1.635,2.8,2.8,0,0,1,.737,1.854c0,1.375-.827,2.938-1.993,2.938a1.566,1.566,0,0,1-1.574-1.674,3.043,3.043,0,0,1,2.212-2.8A4.08,4.08,0,0,1,9.6,94.481Zm-1,4.784c0,.756.408,1.175.956,1.175.927,0,1.3-1.664,1.3-2.321a3.454,3.454,0,0,0-.547-1.714C8.967,96.764,8.6,98.637,8.6,99.265Z" transform="translate(-0.289 -0.91)"/>
    <path class="cls-3" d="M13.535,103.031V93.067H14.9v.4h-.966v9.167H14.9v.4Z" transform="translate(-0.289 -0.91)"/>
    <path class="cls-3" d="M16.572,97.65a3.175,3.175,0,0,0,.159-.837c0-.329-.109-.458-.309-.458-.358,0-.558.478-.727,1.186-.06.219-.07.23-.169.23-.02,0-.12,0-.12-.1a4.983,4.983,0,0,1,.3-.967.869.869,0,0,1,.747-.568.9.9,0,0,1,.917.867,1.925,1.925,0,0,1,1.554-.867A1.018,1.018,0,0,1,20.069,97.2a8.945,8.945,0,0,1-.608,2.193,1.906,1.906,0,0,0-.179.707c0,.229.07.329.239.329.488,0,.817-.559,1.017-1.236.049-.149.049-.179.149-.179.03,0,.12,0,.12.1,0,.08-.369,1.534-1.306,1.534a.8.8,0,0,1-.817-.816,1.136,1.136,0,0,1,.1-.459,9.5,9.5,0,0,0,.648-2.321c0-.329-.09-.7-.538-.7A1.982,1.982,0,0,0,17.27,97.57c-.011.04-.09.329-.13.5-.05.229-.11.449-.169.667l-.22.9c-.06.249-.179.717-.189.737a.407.407,0,0,1-.369.278.266.266,0,0,1-.289-.268c0-.05.06-.279.09-.429Z" transform="translate(-0.289 -0.91)"/>
    <path class="cls-3" d="M22.7,103.031H21.336v-.4H22.3V93.466h-.967v-.4H22.7Z" transform="translate(-0.289 -0.91)"/>
    <polyline points="173.9 88.801 178.435 86.533 173.9 84.265 175.034 86.533"/>
    <line class="cls-2" x1="135.916" y1="86.533" x2="175.034" y2="86.533"/>
    <path class="cls-1" d="M160.128,79.315a2.629,2.629,0,0,1-2.332,2.034.943.943,0,0,1-1.056-.868.574.574,0,0,1,.558-.647.34.34,0,0,1,.369.349.541.541,0,0,1-.2.408.569.569,0,0,1-.429.12.8.8,0,0,0,.757.418,1.427,1.427,0,0,0,1.1-.628,3.817,3.817,0,0,0,.647-1.534,1.407,1.407,0,0,1-1.006.448,1.111,1.111,0,0,1-1.216-1.186,6.6,6.6,0,0,1,.578-2.092,2.1,2.1,0,0,0,.169-.7c0-.318-.169-.318-.249-.318-.338,0-.737.3-1.006,1.235-.05.16-.06.18-.159.18-.02,0-.12,0-.12-.1s.369-1.536,1.315-1.536a.791.791,0,0,1,.818.818,1.8,1.8,0,0,1-.2.718,5.929,5.929,0,0,0-.508,1.952c0,.369.109.807.618.807a1.387,1.387,0,0,0,1.126-.847l.448-1.793c.06-.27.13-.538.2-.8.04-.18.12-.488.14-.538a.433.433,0,0,1,.348-.21.267.267,0,0,1,.29.269.615.615,0,0,1-.041.23Z" transform="translate(-0.289 -0.91)"/>
    <path class="cls-1" d="M162.7,81.8V71.833h1.365v.4H163.1V81.4h.966v.4Z" transform="translate(-0.289 -0.91)"/>
    <path class="cls-1" d="M165.736,76.416a3.2,3.2,0,0,0,.16-.837c0-.329-.11-.458-.31-.458-.358,0-.558.478-.727,1.186-.06.218-.069.229-.169.229-.02,0-.12,0-.12-.1a4.963,4.963,0,0,1,.3-.967.87.87,0,0,1,.747-.569.9.9,0,0,1,.917.868,1.926,1.926,0,0,1,1.554-.868,1.018,1.018,0,0,1,1.146,1.067,8.937,8.937,0,0,1-.608,2.192,1.911,1.911,0,0,0-.179.707c0,.23.07.329.24.329.487,0,.816-.558,1.016-1.235.049-.149.049-.18.149-.18.03,0,.12,0,.12.1,0,.08-.369,1.534-1.305,1.534a.8.8,0,0,1-.818-.816,1.13,1.13,0,0,1,.1-.459,9.494,9.494,0,0,0,.648-2.322c0-.329-.09-.7-.538-.7a1.98,1.98,0,0,0-1.624,1.215c-.011.04-.09.329-.13.5-.05.228-.11.448-.169.667l-.219.9c-.061.249-.18.717-.19.738a.407.407,0,0,1-.369.278.267.267,0,0,1-.289-.269c0-.049.06-.279.09-.428Z" transform="translate(-0.289 -0.91)"/>
    <path class="cls-1" d="M171.858,81.8h-1.365v-.4h.966V72.231h-.966v-.4h1.365Z" transform="translate(-0.289 -0.91)"/>
    <path class="cls-3" d="M140.208,96.9a1.847,1.847,0,0,1,1.474-.767,1.013,1.013,0,0,1,1.146,1.066,8.97,8.97,0,0,1-.608,2.193,1.887,1.887,0,0,0-.179.707c0,.229.069.329.239.329.548,0,.867-.708,1.016-1.236.05-.149.05-.179.15-.179.03,0,.119,0,.119.1,0,.08-.368,1.534-1.305,1.534a.8.8,0,0,1-.817-.816,1.508,1.508,0,0,1,.13-.549,8.451,8.451,0,0,0,.617-2.231c0-.359-.109-.7-.538-.7a1.587,1.587,0,0,0-.956.349,2.95,2.95,0,0,0-.678.916c-.01.061-.089.389-.109.449-.05.229-.11.449-.17.667l-.219.9-.189.757a.415.415,0,0,1-.369.258.273.273,0,0,1-.289-.278.616.616,0,0,1,.04-.22l1.445-5.739.03-.2c0-.1-.021-.169-.5-.169-.149,0-.239,0-.239-.12,0-.18.11-.19.19-.2.258-.02.986-.1,1.215-.1.13,0,.13.1.13.109Z" transform="translate(-0.289 -0.91)"/>
    <path class="cls-3" d="M146.219,101.413c0,.231,0,.321.7.321h.265v.251c-.153-.006-1.032-.028-1.248-.028-.258,0-1.116.022-1.241.028v-.251h.265c.7,0,.7-.09.7-.321V97.857a2.29,2.29,0,0,1-1.011.2V97.8a1.907,1.907,0,0,0,1.367-.447c.2,0,.209.007.209.2Z" transform="translate(-0.289 -0.91)"/>
    <path class="cls-3" d="M149.5,103.031V93.067h1.365v.4H149.9v9.167h.966v.4Z" transform="translate(-0.289 -0.91)"/>
    <path class="cls-3" d="M152.533,97.65a3.175,3.175,0,0,0,.159-.837c0-.329-.109-.458-.309-.458-.358,0-.558.478-.727,1.186-.06.219-.07.23-.169.23-.02,0-.12,0-.12-.1a4.983,4.983,0,0,1,.3-.967.869.869,0,0,1,.747-.568.9.9,0,0,1,.917.867,1.925,1.925,0,0,1,1.554-.867A1.018,1.018,0,0,1,156.03,97.2a8.945,8.945,0,0,1-.608,2.193,1.906,1.906,0,0,0-.179.707c0,.229.07.329.239.329.488,0,.817-.559,1.017-1.236.049-.149.049-.179.149-.179.03,0,.12,0,.12.1,0,.08-.369,1.534-1.306,1.534a.8.8,0,0,1-.817-.816,1.136,1.136,0,0,1,.1-.459,9.5,9.5,0,0,0,.648-2.321c0-.329-.09-.7-.539-.7a1.985,1.985,0,0,0-1.624,1.215c-.01.04-.089.329-.129.5-.05.229-.11.449-.169.667l-.22.9c-.06.249-.179.717-.189.737a.407.407,0,0,1-.369.278.266.266,0,0,1-.289-.268c0-.05.06-.279.09-.429Z" transform="translate(-0.289 -0.91)"/>
    <path class="cls-3" d="M158.663,103.031H157.3v-.4h.967V93.466H157.3v-.4h1.366Z" transform="translate(-0.289 -0.91)"/>
    <path class="cls-3" d="M164.718,97.84l1.116-.808c.249-.188.269-.188.338-.188a.282.282,0,0,1,.269.278c0,.149-.079.19-.238.27l-1.376.667c.788.369.807.369,1.405.668.12.059.209.109.209.258a.291.291,0,0,1-.269.28c-.069,0-.089-.02-.179-.07l-1.275-.926.149,1.673a.264.264,0,0,1-.528,0l.15-1.673-1.116.806c-.249.19-.269.19-.339.19a.284.284,0,0,1-.269-.28c0-.149.08-.189.239-.268l1.375-.668-1.415-.678c-.1-.05-.2-.089-.2-.249a.29.29,0,0,1,.269-.278c.07,0,.09.019.179.069l1.276.927-.14-1.545v-.129c-.03-.13.1-.259.259-.259.259,0,.259.239.249.378Z" transform="translate(-0.289 -0.91)"/>
    <path class="cls-3" d="M171.4,96.9a1.849,1.849,0,0,1,1.474-.767,1.013,1.013,0,0,1,1.146,1.066,8.969,8.969,0,0,1-.607,2.193,1.888,1.888,0,0,0-.18.707c0,.229.07.329.239.329.548,0,.867-.708,1.017-1.236.05-.149.05-.179.149-.179.03,0,.12,0,.12.1,0,.08-.369,1.534-1.305,1.534a.8.8,0,0,1-.818-.816,1.508,1.508,0,0,1,.13-.549,8.455,8.455,0,0,0,.618-2.231c0-.359-.11-.7-.538-.7a1.588,1.588,0,0,0-.957.349,2.95,2.95,0,0,0-.678.916c-.009.061-.089.389-.109.449-.05.229-.11.449-.169.667l-.22.9-.189.757a.415.415,0,0,1-.369.258.273.273,0,0,1-.289-.278.616.616,0,0,1,.04-.22l1.445-5.739.03-.2c0-.1-.02-.169-.5-.169-.15,0-.239,0-.239-.12,0-.18.109-.19.189-.2.259-.02.986-.1,1.215-.1.13,0,.13.1.13.109Z" transform="translate(-0.289 -0.91)"/>
    <path class="cls-3" d="M178.391,101.985h-2.873c0-.195,0-.209.069-.271l1.681-1.66a2.121,2.121,0,0,0,.655-1.339,1.044,1.044,0,0,0-1.06-1.109,1.1,1.1,0,0,0-1.018.649c.363,0,.412.244.412.369a.37.37,0,1,1-.739-.02,1.352,1.352,0,0,1,1.45-1.249,1.46,1.46,0,0,1,1.632,1.36,2.017,2.017,0,0,1-1,1.506c-.419.328-.663.523-1.4,1.172h1.283a3.589,3.589,0,0,0,.69-.042,1.6,1.6,0,0,0,.181-.635h.238Z" transform="translate(-0.289 -0.91)"/>
    <path class="cls-3" d="M180.691,103.031V93.067h1.366v.4h-.967v9.167h.967v.4Z" transform="translate(-0.289 -0.91)"/>
    <path class="cls-3" d="M183.728,97.65a3.194,3.194,0,0,0,.16-.837c0-.329-.11-.458-.309-.458-.359,0-.558.478-.727,1.186-.06.219-.07.23-.17.23-.02,0-.119,0-.119-.1a5.031,5.031,0,0,1,.3-.967.869.869,0,0,1,.747-.568.9.9,0,0,1,.917.867,1.926,1.926,0,0,1,1.555-.867,1.018,1.018,0,0,1,1.146,1.066,8.989,8.989,0,0,1-.608,2.193,1.888,1.888,0,0,0-.18.707c0,.229.07.329.24.329.488,0,.817-.559,1.016-1.236.05-.149.05-.179.149-.179.03,0,.12,0,.12.1,0,.08-.369,1.534-1.305,1.534a.8.8,0,0,1-.818-.816,1.154,1.154,0,0,1,.1-.459,9.454,9.454,0,0,0,.648-2.321c0-.329-.09-.7-.538-.7a1.982,1.982,0,0,0-1.624,1.215c-.01.04-.09.329-.13.5-.05.229-.109.449-.169.667l-.219.9c-.06.249-.18.717-.19.737a.406.406,0,0,1-.368.278.266.266,0,0,1-.289-.268c0-.05.06-.279.089-.429Z" transform="translate(-0.289 -0.91)"/>
    <path class="cls-3" d="M189.866,103.031H188.5v-.4h.967V93.466H188.5v-.4h1.366Z" transform="translate(-0.289 -0.91)"/>
    <g>
      <path class="cls-1" d="M55,76.776c0-.359-.02-.468-.788-.468h-.239V76h5.61l.279,2.242h-.249c-.159-1.386-.428-1.933-1.953-1.933H56.371c-.469,0-.489.07-.489.4V79.1h.9c.967,0,1.076-.309,1.076-1.166H58.1v2.64h-.249c0-.846-.109-1.166-1.076-1.166h-.9v2.661c0,.329.02.4.489.4H57.7c1.714,0,1.943-.728,2.192-2.262h.249l-.418,2.57h-5.75v-.308h.239c.768,0,.788-.111.788-.469Z" transform="translate(-0.289 -0.91)"/>
      <path class="cls-1" d="M62.9,82.884a2.2,2.2,0,0,1-2.122-2.252,2.242,2.242,0,0,1,2.2-2.262,1.5,1.5,0,0,1,1.335.907l.378-.907h.22v5.58c0,.448.11.448.777.448v.309c-.349-.01-.857-.029-1.126-.029s-.777.019-1.116.029V84.4c.668,0,.777,0,.777-.448V82.167A1.632,1.632,0,0,1,62.9,82.884Zm.14-4.265c-.738,0-1.435.827-1.435,2.013,0,1.146.607,2.033,1.335,2.033a1.394,1.394,0,0,0,1.315-1.246v-1.4C64.251,79.486,63.833,78.619,63.036,78.619Z" transform="translate(-0.289 -0.91)"/>
      <path class="cls-1" d="M68.315,82.884c-1.514,0-1.514-.906-1.514-1.684v-1.5c0-.887,0-.916-.777-.916v-.31l1.465-.109v3.309c0,.517.039.986.876.986.728,0,1.206-.678,1.206-1.545V79.347c0-.489-.08-.558-.777-.558v-.31l1.465-.109v3.537c0,.489.079.559.777.559v.308l-1.435.11v-.9A1.359,1.359,0,0,1,68.315,82.884Z" transform="translate(-0.289 -0.91)"/>
      <path class="cls-1" d="M73.018,82.027c0,.389.04.439.7.439v.308c-.338-.009-.687-.03-1.036-.03-.239,0-.777.021-1.1.03v-.308c.668,0,.777,0,.777-.448V79.337c0-.488-.089-.548-.737-.548v-.31l1.395-.109Zm-.488-4.862A.533.533,0,0,1,72,76.637a.539.539,0,0,1,.529-.529.529.529,0,0,1,0,1.057Z" transform="translate(-0.289 -0.91)"/>
    </g>
    <g>
      <path class="cls-1" d="M76.879,82.694c-.04.1-.08.19-.21.19s-.149-.05-.209-.19l-1.435-3.537c-.129-.308-.169-.368-.8-.368v-.31c.3.021.7.031.966.031.229,0,.787-.02,1.086-.031v.31c-.179,0-.568,0-.568.259,0,.019,0,.04.06.169L76.889,82l1.016-2.541a.594.594,0,0,0,.06-.239c0-.189-.11-.418-.478-.428v-.31c.169.011.627.031.867.031s.518-.01.747-.031v.31a.9.9,0,0,0-.917.667Z" transform="translate(-0.289 -0.91)"/>
      <path class="cls-1" d="M80.724,82.884c-.628,0-1.594-.249-1.594-1.056a1.453,1.453,0,0,1,1-1.3,4.851,4.851,0,0,1,1.833-.358v-.369A1.128,1.128,0,0,0,80.9,78.529a1.4,1.4,0,0,0-1.076.459c.459.01.508.339.508.458a.458.458,0,1,1-.916-.009c0-.658.687-1.126,1.5-1.126a1.906,1.906,0,0,1,1.366.547,1.478,1.478,0,0,1,.358,1.176v1.993c0,.05.04.5.369.5.109,0,.359-.059.359-.637V81.33h.249v.558a.846.846,0,0,1-.817.946.834.834,0,0,1-.778-.816A1.378,1.378,0,0,1,80.724,82.884ZM79.9,81.817a.859.859,0,0,0,.9.848,1.2,1.2,0,0,0,1.165-1.285v-1C80.315,80.442,79.9,81.27,79.9,81.817Z" transform="translate(-0.289 -0.91)"/>
    </g>
    <g>
      <path class="cls-1" d="M85.521,82.018c0,.448.11.448.778.448v.308c-.369-.009-.857-.03-1.107-.03s-.776.021-1.106.03v-.308c.668,0,.778,0,.778-.448V76.836c0-.488-.08-.558-.778-.558v-.309l1.435-.11Z" transform="translate(-0.289 -0.91)"/>
      <path class="cls-1" d="M87.912,81.968a1.344,1.344,0,0,0,1.126.667,1.4,1.4,0,0,0,1.345-1.027c.02-.079.04-.139.13-.139a.116.116,0,0,1,.13.12,1.7,1.7,0,0,1-1.664,1.3,2.25,2.25,0,0,1-2.193-2.3,2.177,2.177,0,0,1,2.073-2.271,1.768,1.768,0,0,1,1.784,1.953c0,.209-.031.209-.25.209h-2.78A2.9,2.9,0,0,0,87.912,81.968Zm2.073-1.7c0-.389-.1-1.735-1.126-1.735-.339,0-1.176.25-1.236,1.735Z" transform="translate(-0.289 -0.91)"/>
    </g>
    <g>
      <path class="cls-1" d="M91.272,78.789v-.31l1.405-.109v1.047a1.571,1.571,0,0,1,1.474-1.047,1.329,1.329,0,0,1,1.047.369c.309.359.309.667.309,1.525v1.9c.01.3.259.3.777.3v.308c-.339-.009-.857-.03-1.116-.03s-.777.021-1.126.03v-.308c.667,0,.777,0,.777-.448V79.695c0-.567-.11-1.1-.737-1.1a1.454,1.454,0,0,0-1.345,1.594v1.834c0,.448.109.448.777.448v.308c-.339-.009-.857-.03-1.116-.03s-.777.021-1.126.03v-.308c.667,0,.777,0,.777-.448V79.347C92.049,78.858,91.969,78.789,91.272,78.789Z" transform="translate(-0.289 -0.91)"/>
      <path class="cls-1" d="M97.947,81.559c0,.17,0,1.076.667,1.076.369,0,.668-.379.668-1.116v-.548h.249v.568c0,.638-.279,1.345-.986,1.345a1.205,1.205,0,0,1-1.286-1.345v-2.75h-.846v-.22c.976-.04,1.275-1.105,1.285-1.923h.249v1.833h1.425v.31H97.947Z" transform="translate(-0.289 -0.91)"/>
    </g>
    <g>
      <path class="cls-1" d="M108.833,82.774h-5.192v-.308h.239c.767,0,.787-.111.787-.469V76.746c0-.358-.02-.468-.787-.468h-.239v-.309c.349.03,1.126.03,1.515.03.408,0,1.315,0,1.674-.03v.309H106.5c-.947,0-.947.139-.947.478v5.311c0,.329.02.4.488.4h.818c1.753,0,1.893-1.246,2-2.262h.249Z" transform="translate(-0.289 -0.91)"/>
      <path class="cls-1" d="M115.538,78.271h-.249c-.14-1.605-.289-1.933-1.794-1.933a4.928,4.928,0,0,0-.568.019c-.179.04-.179.18-.179.379v5.251c0,.339,0,.479,1.046.479h.4v.308c-.408-.03-1.434-.03-1.893-.03s-1.474,0-1.883.03v-.308h.4c1.046,0,1.046-.14,1.046-.479V76.736c0-.229,0-.339-.209-.379a4.387,4.387,0,0,0-.538-.019c-1.505,0-1.655.328-1.794,1.933h-.249l.189-2.243h6.089Z" transform="translate(-0.289 -0.91)"/>
    </g>
    <path class="cls-1" d="M118.156,82c0,.358.03.469.817.469h.259v.308c-.349-.03-1.136-.03-1.524-.03s-1.166,0-1.515.03v-.308h.259c.787,0,.817-.111.817-.469V76.746c0-.358-.03-.468-.817-.468h-.259v-.309c.349.03,1.136.03,1.525.03s1.165,0,1.514-.03v.309h-.259c-.787,0-.817.11-.817.468Z" transform="translate(-0.289 -0.91)"/>
    <path class="cls-1" d="M46.965,93.427a1.852,1.852,0,0,1,1.475-.768,1.014,1.014,0,0,1,1.146,1.067,8.961,8.961,0,0,1-.608,2.192,1.892,1.892,0,0,0-.179.707c0,.229.069.329.239.329.548,0,.867-.708,1.016-1.235.05-.15.05-.18.15-.18.029,0,.119,0,.119.1,0,.08-.368,1.534-1.3,1.534a.8.8,0,0,1-.817-.817,1.478,1.478,0,0,1,.13-.548,8.506,8.506,0,0,0,.617-2.232c0-.358-.11-.7-.538-.7a1.578,1.578,0,0,0-.956.349,2.939,2.939,0,0,0-.678.916c-.01.06-.089.388-.109.449-.05.228-.11.448-.17.667l-.219.9-.19.757a.413.413,0,0,1-.368.259.274.274,0,0,1-.289-.278.61.61,0,0,1,.04-.22l1.445-5.739.029-.2c0-.1-.02-.169-.5-.169-.149,0-.239,0-.239-.12,0-.179.109-.189.189-.2.259-.019.987-.1,1.216-.1.13,0,.13.1.13.11Z" transform="translate(-0.289 -0.91)"/>
    <path class="cls-1" d="M51.809,99.555V89.591h1.365v.4h-.967v9.167h.967v.4Z" transform="translate(-0.289 -0.91)"/>
    <path class="cls-1" d="M54.853,94.174a3.2,3.2,0,0,0,.16-.837c0-.329-.11-.458-.309-.458-.359,0-.558.477-.727,1.185-.06.219-.07.23-.17.23-.02,0-.119,0-.119-.1a5.007,5.007,0,0,1,.3-.966.87.87,0,0,1,.747-.569.9.9,0,0,1,.917.867,1.928,1.928,0,0,1,1.555-.867,1.019,1.019,0,0,1,1.146,1.067,8.982,8.982,0,0,1-.608,2.192,1.893,1.893,0,0,0-.18.707c0,.229.07.329.24.329.488,0,.817-.558,1.016-1.235.05-.15.05-.18.149-.18.03,0,.12,0,.12.1,0,.08-.369,1.534-1.3,1.534a.8.8,0,0,1-.818-.817,1.154,1.154,0,0,1,.1-.459,9.441,9.441,0,0,0,.648-2.321c0-.329-.09-.7-.538-.7a1.98,1.98,0,0,0-1.624,1.215c-.01.04-.09.329-.13.5-.05.228-.109.448-.169.667l-.219.9c-.06.249-.18.717-.19.738a.406.406,0,0,1-.368.278.266.266,0,0,1-.289-.269c0-.05.06-.279.089-.428Z" transform="translate(-0.289 -0.91)"/>
    <g>
      <path class="cls-1" d="M60.983,99.555H59.618v-.4h.966V89.989h-.966v-.4h1.365Z" transform="translate(-0.289 -0.91)"/>
      <path class="cls-1" d="M65.805,93.806c-.15,0-.339,0-.339-.2s.189-.2.328-.2h5.969c.139,0,.329,0,.329.2s-.19.2-.339.2Zm-.011,1.932c-.139,0-.328,0-.328-.2s.189-.2.339-.2h5.948c.149,0,.339,0,.339.2s-.19.2-.329.2Z" transform="translate(-0.289 -0.91)"/>
    </g>
    <path class="cls-1" d="M77.559,93.427a1.852,1.852,0,0,1,1.475-.768,1.014,1.014,0,0,1,1.146,1.067,8.961,8.961,0,0,1-.608,2.192,1.892,1.892,0,0,0-.179.707c0,.229.069.329.238.329.549,0,.868-.708,1.017-1.235.05-.15.05-.18.149-.18.03,0,.12,0,.12.1,0,.08-.369,1.534-1.305,1.534a.8.8,0,0,1-.818-.817,1.5,1.5,0,0,1,.13-.548,8.472,8.472,0,0,0,.618-2.232c0-.358-.11-.7-.538-.7a1.584,1.584,0,0,0-.957.349,2.914,2.914,0,0,0-.677.916c-.01.06-.09.388-.11.449-.05.228-.11.448-.169.667l-.219.9-.19.757a.414.414,0,0,1-.369.259.274.274,0,0,1-.289-.278.61.61,0,0,1,.04-.22l1.445-5.739.03-.2c0-.1-.02-.169-.5-.169-.149,0-.239,0-.239-.12,0-.179.109-.189.189-.2.259-.019.987-.1,1.216-.1.129,0,.129.1.129.11Z" transform="translate(-0.289 -0.91)"/>
    <path class="cls-1" d="M83.57,97.929c0,.23,0,.321.7.321h.265V98.5c-.154-.007-1.033-.028-1.248-.028-.259,0-1.116.021-1.242.028V98.25h.265c.7,0,.7-.091.7-.321V94.373a2.3,2.3,0,0,1-1.01.195v-.251a1.9,1.9,0,0,0,1.366-.446c.2,0,.209.007.209.2Z" transform="translate(-0.289 -0.91)"/>
    <path class="cls-1" d="M86.855,99.555V89.591h1.366v.4h-.967v9.167h.967v.4Z" transform="translate(-0.289 -0.91)"/>
    <path class="cls-1" d="M89.892,94.174a3.2,3.2,0,0,0,.16-.837c0-.329-.11-.458-.309-.458-.359,0-.558.477-.727,1.185-.06.219-.07.23-.17.23-.02,0-.119,0-.119-.1a5.007,5.007,0,0,1,.3-.966.87.87,0,0,1,.747-.569.9.9,0,0,1,.917.867,1.928,1.928,0,0,1,1.555-.867,1.019,1.019,0,0,1,1.146,1.067,8.982,8.982,0,0,1-.608,2.192,1.892,1.892,0,0,0-.179.707c0,.229.069.329.239.329.488,0,.817-.558,1.016-1.235.05-.15.05-.18.149-.18.03,0,.12,0,.12.1,0,.08-.369,1.534-1.3,1.534A.8.8,0,0,1,92,96.356a1.154,1.154,0,0,1,.1-.459,9.441,9.441,0,0,0,.648-2.321c0-.329-.09-.7-.538-.7a1.98,1.98,0,0,0-1.624,1.215c-.01.04-.09.329-.13.5-.05.228-.109.448-.169.667l-.219.9c-.06.249-.18.717-.19.738a.405.405,0,0,1-.368.278.266.266,0,0,1-.289-.269c0-.05.06-.279.089-.428Z" transform="translate(-0.289 -0.91)"/>
    <path class="cls-1" d="M96.022,99.555H94.657v-.4h.966V89.989h-.966v-.4h1.365Z" transform="translate(-0.289 -0.91)"/>
    <path class="cls-1" d="M101.96,94.363l1.116-.807c.249-.189.269-.189.339-.189a.283.283,0,0,1,.269.279c0,.149-.08.189-.239.269l-1.376.667c.788.369.807.369,1.406.668.119.06.209.109.209.259a.292.292,0,0,1-.269.279c-.07,0-.09-.019-.18-.069l-1.275-.927.149,1.674a.264.264,0,0,1-.527,0l.149-1.674-1.116.807c-.249.189-.269.189-.339.189a.284.284,0,0,1-.269-.279c0-.15.08-.19.239-.269l1.375-.668-1.414-.677c-.1-.05-.2-.089-.2-.249a.291.291,0,0,1,.269-.279c.07,0,.09.02.18.07l1.275.926-.14-1.545v-.129c-.029-.129.1-.258.26-.258.258,0,.258.238.249.378Z" transform="translate(-0.289 -0.91)"/>
    <path class="cls-4" d="M108.637,93.427a1.852,1.852,0,0,1,1.475-.768,1.014,1.014,0,0,1,1.146,1.067,8.961,8.961,0,0,1-.608,2.192,1.892,1.892,0,0,0-.179.707c0,.229.069.329.238.329.549,0,.868-.708,1.017-1.235.05-.15.05-.18.149-.18.03,0,.12,0,.12.1,0,.08-.369,1.534-1.305,1.534a.8.8,0,0,1-.817-.817,1.5,1.5,0,0,1,.129-.548,8.472,8.472,0,0,0,.618-2.232c0-.358-.11-.7-.538-.7a1.584,1.584,0,0,0-.957.349,2.948,2.948,0,0,0-.677.916c-.01.06-.09.388-.11.449-.049.228-.109.448-.169.667l-.219.9-.19.757a.414.414,0,0,1-.368.259.274.274,0,0,1-.289-.278.61.61,0,0,1,.04-.22l1.444-5.739.03-.2c0-.1-.02-.169-.5-.169-.149,0-.239,0-.239-.12,0-.179.109-.189.189-.2.259-.019.987-.1,1.216-.1.13,0,.13.1.13.11Z" transform="translate(-0.289 -0.91)"/>
    <path class="cls-4" d="M115.633,98.5H112.76c0-.2,0-.209.07-.272l1.68-1.66a2.119,2.119,0,0,0,.656-1.339,1.044,1.044,0,0,0-1.061-1.108,1.1,1.1,0,0,0-1.018.649c.363,0,.412.244.412.369a.37.37,0,1,1-.739-.021,1.352,1.352,0,0,1,1.45-1.248,1.459,1.459,0,0,1,1.632,1.359,2.015,2.015,0,0,1-1,1.506c-.419.328-.663.524-1.395,1.172h1.283a3.578,3.578,0,0,0,.69-.042,1.591,1.591,0,0,0,.181-.635h.238Z" transform="translate(-0.289 -0.91)"/>
    <path class="cls-4" d="M117.934,99.555V89.591H119.3v.4h-.967v9.167h.967v.4Z" transform="translate(-0.289 -0.91)"/>
    <path class="cls-4" d="M120.97,94.174a3.2,3.2,0,0,0,.16-.837c0-.329-.11-.458-.309-.458-.359,0-.558.477-.727,1.185-.06.219-.07.23-.17.23-.02,0-.119,0-.119-.1a4.96,4.96,0,0,1,.3-.966.869.869,0,0,1,.747-.569.9.9,0,0,1,.917.867,1.924,1.924,0,0,1,1.554-.867,1.019,1.019,0,0,1,1.146,1.067,8.982,8.982,0,0,1-.608,2.192,1.892,1.892,0,0,0-.179.707c0,.229.069.329.239.329.488,0,.817-.558,1.016-1.235.05-.15.05-.18.149-.18.03,0,.12,0,.12.1,0,.08-.369,1.534-1.3,1.534a.8.8,0,0,1-.817-.817,1.136,1.136,0,0,1,.1-.459,9.486,9.486,0,0,0,.647-2.321c0-.329-.09-.7-.538-.7a1.98,1.98,0,0,0-1.624,1.215c-.01.04-.09.329-.13.5-.05.228-.109.448-.169.667l-.219.9c-.06.249-.18.717-.19.738a.405.405,0,0,1-.368.278.266.266,0,0,1-.289-.269c0-.05.06-.279.09-.428Z" transform="translate(-0.289 -0.91)"/>
    <path class="cls-4" d="M127.108,99.555h-1.365v-.4h.966V89.989h-.966v-.4h1.365Z" transform="translate(-0.289 -0.91)"/>
    <polygon class="cls-2" points="36.704 86.533 36.704 72.36 135.916 72.36 135.916 100.706 36.704 100.706 36.704 86.533"/>
    <path d="M328.685,48.983a4.828,4.828,0,0,0,1.455.857c.119,0,.119-.12.119-.2,0-.139-.01-.149-.209-.239a4.573,4.573,0,0,1-2.421-2.551.115.115,0,0,0-.11-.079c-.07,0-.08.03-.139.169a4.518,4.518,0,0,1-2.5,2.5c-.1.05-.1.1-.1.2,0,.08,0,.2.12.2a4.828,4.828,0,0,0,1.454-.857v5.978A4.828,4.828,0,0,0,324.9,54.1c-.12,0-.12.12-.12.2,0,.14.01.15.209.24a4.582,4.582,0,0,1,2.422,2.55.113.113,0,0,0,.109.08c.07,0,.08-.03.14-.169a4.509,4.509,0,0,1,2.5-2.5c.1-.05.1-.1.1-.2,0-.079,0-.2-.119-.2a4.828,4.828,0,0,0-1.455.857Zm-1.933-.4a5,5,0,0,0,.767-1.046,5.278,5.278,0,0,0,.767,1.046V55.36a5,5,0,0,0-.767,1.046,5.278,5.278,0,0,0-.767-1.046Z" transform="translate(-0.289 -0.91)"/>
    <polyline points="266.025 88.801 270.561 86.533 266.025 84.265 267.159 86.533"/>
    <line class="cls-2" x1="242.215" y1="86.533" x2="267.159" y2="86.533"/>
    <path class="cls-1" d="M243.951,77.661a3.877,3.877,0,0,0-.17.877c0,.339.16.658.549.658.318,0,1-.239,1.325-1.3.019-.07.039-.11.129-.11.03,0,.12,0,.12.1,0,.249-.569,1.534-1.595,1.534a1.1,1.1,0,0,1-1.076-.757,1.323,1.323,0,0,1-1.046.757c-.438,0-.937-.2-.937-.657a.566.566,0,0,1,.548-.578.341.341,0,0,1,.369.348.563.563,0,0,1-.468.538.954.954,0,0,0,.5.13c.438,0,.787-.419.946-1.036a14.448,14.448,0,0,0,.538-2.372c0-.577-.348-.667-.538-.667-.338,0-1,.249-1.335,1.305-.019.09-.05.11-.129.11-.02,0-.12,0-.12-.1,0-.25.568-1.536,1.6-1.536a1.1,1.1,0,0,1,1.076.758,1.288,1.288,0,0,1,1.046-.758c.339,0,.926.14.926.659a.555.555,0,0,1-.538.577.348.348,0,0,1-.379-.349.58.58,0,0,1,.479-.538.98.98,0,0,0-.5-.129c-.7,0-.927.916-.986,1.176Z" transform="translate(-0.289 -0.91)"/>
    <path class="cls-1" d="M247.778,81.8V71.833h1.365v.4h-.967V81.4h.967v.4Z" transform="translate(-0.289 -0.91)"/>
    <path class="cls-1" d="M250.815,76.416a3.227,3.227,0,0,0,.159-.837c0-.329-.109-.458-.308-.458-.36,0-.559.478-.728,1.186-.06.218-.07.229-.17.229-.019,0-.119,0-.119-.1a5.037,5.037,0,0,1,.3-.967.869.869,0,0,1,.747-.569.9.9,0,0,1,.917.868,1.922,1.922,0,0,1,1.555-.868,1.018,1.018,0,0,1,1.145,1.067,9.024,9.024,0,0,1-.607,2.192,1.893,1.893,0,0,0-.18.707c0,.23.069.329.239.329.488,0,.817-.558,1.016-1.235.051-.149.051-.18.15-.18.029,0,.119,0,.119.1,0,.08-.369,1.534-1.305,1.534a.8.8,0,0,1-.817-.816,1.13,1.13,0,0,1,.1-.459,9.494,9.494,0,0,0,.647-2.322c0-.329-.09-.7-.538-.7a1.983,1.983,0,0,0-1.624,1.215c-.01.04-.09.329-.13.5-.049.228-.109.448-.169.667l-.219.9c-.06.249-.179.717-.19.738a.405.405,0,0,1-.368.278.267.267,0,0,1-.289-.269c0-.049.06-.279.09-.428Z" transform="translate(-0.289 -0.91)"/>
    <path class="cls-1" d="M256.944,81.8h-1.365v-.4h.966V72.231h-.966v-.4h1.365Z" transform="translate(-0.289 -0.91)"/>
    <path class="cls-3" d="M243.47,94.481c0-.6.36-1.025,1.137-1.025a3.318,3.318,0,0,1,.816.109c.36.08.519.11.519.33a.419.419,0,0,1-.4.4,1.372,1.372,0,0,1-.547-.249,1.209,1.209,0,0,0-.708-.27.5.5,0,0,0-.548.458,3.931,3.931,0,0,0,.946,1.635,2.794,2.794,0,0,1,.737,1.854c0,1.375-.827,2.938-1.992,2.938a1.566,1.566,0,0,1-1.574-1.674,3.043,3.043,0,0,1,2.212-2.8A4.069,4.069,0,0,1,243.47,94.481Zm-1,4.784c0,.756.408,1.175.957,1.175.927,0,1.3-1.664,1.3-2.321a3.454,3.454,0,0,0-.548-1.714C242.843,96.764,242.474,98.637,242.474,99.265Z" transform="translate(-0.289 -0.91)"/>
    <path class="cls-3" d="M247.411,103.031V93.067h1.365v.4h-.967v9.167h.967v.4Z" transform="translate(-0.289 -0.91)"/>
    <path class="cls-3" d="M250.456,97.65a3.266,3.266,0,0,0,.159-.837c0-.329-.11-.458-.309-.458-.359,0-.558.478-.727,1.186-.06.219-.071.23-.17.23-.02,0-.119,0-.119-.1a5.031,5.031,0,0,1,.3-.967.869.869,0,0,1,.747-.568.9.9,0,0,1,.917.867,1.924,1.924,0,0,1,1.555-.867,1.018,1.018,0,0,1,1.146,1.066,8.989,8.989,0,0,1-.608,2.193,1.887,1.887,0,0,0-.179.707c0,.229.069.329.239.329.488,0,.816-.559,1.015-1.236.051-.149.051-.179.151-.179.029,0,.119,0,.119.1,0,.08-.369,1.534-1.306,1.534a.8.8,0,0,1-.816-.816,1.148,1.148,0,0,1,.1-.459,9.454,9.454,0,0,0,.648-2.321c0-.329-.09-.7-.538-.7a1.984,1.984,0,0,0-1.624,1.215c-.01.04-.09.329-.13.5-.05.229-.109.449-.169.667l-.22.9c-.059.249-.178.717-.189.737a.406.406,0,0,1-.368.278.266.266,0,0,1-.289-.268c0-.05.059-.279.089-.429Z" transform="translate(-0.289 -0.91)"/>
    <path class="cls-3" d="M256.584,103.031h-1.365v-.4h.967V93.466h-.967v-.4h1.365Z" transform="translate(-0.289 -0.91)"/>
    <polyline points="407.757 88.801 412.292 86.533 407.757 84.265 408.891 86.533"/>
    <line class="cls-2" x1="369.773" y1="86.533" x2="408.891" y2="86.533"/>
    <path class="cls-1" d="M394,79.315a2.627,2.627,0,0,1-2.331,2.034.943.943,0,0,1-1.056-.868.574.574,0,0,1,.558-.647.339.339,0,0,1,.368.349.538.538,0,0,1-.2.408.566.566,0,0,1-.428.12.8.8,0,0,0,.757.418,1.427,1.427,0,0,0,1.1-.628,3.806,3.806,0,0,0,.648-1.534,1.407,1.407,0,0,1-1.006.448,1.111,1.111,0,0,1-1.216-1.186,6.6,6.6,0,0,1,.578-2.092,2.129,2.129,0,0,0,.169-.7c0-.318-.169-.318-.249-.318-.339,0-.737.3-1.006,1.235-.05.16-.061.18-.16.18-.02,0-.119,0-.119-.1s.368-1.536,1.315-1.536a.791.791,0,0,1,.817.818,1.786,1.786,0,0,1-.2.718,5.922,5.922,0,0,0-.507,1.952c0,.369.109.807.618.807a1.383,1.383,0,0,0,1.125-.847l.449-1.793c.059-.27.129-.538.2-.8.039-.18.119-.488.14-.538a.431.431,0,0,1,.348-.21.266.266,0,0,1,.289.269.629.629,0,0,1-.04.23Z" transform="translate(-0.289 -0.91)"/>
    <path class="cls-1" d="M396.575,81.8V71.833h1.365v.4h-.967V81.4h.967v.4Z" transform="translate(-0.289 -0.91)"/>
    <path class="cls-1" d="M399.612,76.416a3.227,3.227,0,0,0,.159-.837c0-.329-.109-.458-.309-.458-.359,0-.558.478-.727,1.186-.06.218-.07.229-.17.229-.02,0-.119,0-.119-.1a4.963,4.963,0,0,1,.3-.967.869.869,0,0,1,.747-.569.9.9,0,0,1,.917.868,1.922,1.922,0,0,1,1.554-.868,1.019,1.019,0,0,1,1.146,1.067,8.982,8.982,0,0,1-.608,2.192,1.911,1.911,0,0,0-.179.707c0,.23.069.329.239.329.488,0,.816-.558,1.016-1.235.05-.149.05-.18.15-.18.029,0,.119,0,.119.1,0,.08-.369,1.534-1.305,1.534a.8.8,0,0,1-.817-.816,1.13,1.13,0,0,1,.1-.459,9.494,9.494,0,0,0,.647-2.322c0-.329-.09-.7-.538-.7a1.982,1.982,0,0,0-1.624,1.215c-.01.04-.09.329-.13.5-.05.228-.109.448-.169.667l-.219.9c-.06.249-.179.717-.19.738a.405.405,0,0,1-.368.278.266.266,0,0,1-.289-.269c0-.049.059-.279.09-.428Z" transform="translate(-0.289 -0.91)"/>
    <path class="cls-1" d="M405.741,81.8h-1.366v-.4h.967V72.231h-.967v-.4h1.366Z" transform="translate(-0.289 -0.91)"/>
    <path class="cls-3" d="M374.083,96.9a1.851,1.851,0,0,1,1.475-.767A1.014,1.014,0,0,1,376.7,97.2,8.926,8.926,0,0,1,376.1,99.4a1.9,1.9,0,0,0-.178.707c0,.229.069.329.239.329.548,0,.866-.708,1.015-1.236.05-.149.05-.179.15-.179.03,0,.12,0,.12.1,0,.08-.369,1.534-1.306,1.534a.8.8,0,0,1-.816-.816,1.525,1.525,0,0,1,.129-.549,8.455,8.455,0,0,0,.618-2.231c0-.359-.109-.7-.538-.7a1.59,1.59,0,0,0-.957.349,2.942,2.942,0,0,0-.677.916c-.011.061-.09.389-.11.449-.05.229-.11.449-.169.667l-.22.9-.188.757a.416.416,0,0,1-.37.258.274.274,0,0,1-.289-.278.616.616,0,0,1,.04-.22l1.445-5.739.03-.2c0-.1-.02-.169-.5-.169-.149,0-.239,0-.239-.12,0-.18.109-.19.189-.2.259-.02.986-.1,1.216-.1.129,0,.129.1.129.109Z" transform="translate(-0.289 -0.91)"/>
    <path class="cls-3" d="M381.071,101.985H378.2c0-.195,0-.209.069-.271l1.681-1.66a2.121,2.121,0,0,0,.655-1.339,1.044,1.044,0,0,0-1.06-1.109,1.1,1.1,0,0,0-1.018.649c.363,0,.412.244.412.369a.37.37,0,1,1-.739-.02,1.352,1.352,0,0,1,1.45-1.249,1.46,1.46,0,0,1,1.632,1.36,2.019,2.019,0,0,1-1,1.506c-.419.328-.662.523-1.4,1.172h1.283a3.6,3.6,0,0,0,.691-.042,1.618,1.618,0,0,0,.18-.635h.238Z" transform="translate(-0.289 -0.91)"/>
    <path class="cls-3" d="M383.372,103.031V93.067h1.365v.4h-.967v9.167h.967v.4Z" transform="translate(-0.289 -0.91)"/>
    <path class="cls-3" d="M386.417,97.65a3.266,3.266,0,0,0,.159-.837c0-.329-.11-.458-.309-.458-.359,0-.559.478-.727,1.186-.06.219-.071.23-.17.23-.02,0-.12,0-.12-.1a5.058,5.058,0,0,1,.3-.967.869.869,0,0,1,.747-.568.9.9,0,0,1,.917.867,1.924,1.924,0,0,1,1.555-.867,1.018,1.018,0,0,1,1.146,1.066,8.989,8.989,0,0,1-.608,2.193,1.888,1.888,0,0,0-.18.707c0,.229.07.329.24.329.488,0,.816-.559,1.015-1.236.051-.149.051-.179.151-.179.029,0,.119,0,.119.1,0,.08-.369,1.534-1.306,1.534a.8.8,0,0,1-.816-.816,1.148,1.148,0,0,1,.1-.459,9.454,9.454,0,0,0,.648-2.321c0-.329-.09-.7-.538-.7a1.984,1.984,0,0,0-1.624,1.215c-.01.04-.09.329-.13.5-.05.229-.109.449-.169.667l-.22.9c-.059.249-.178.717-.189.737a.406.406,0,0,1-.368.278.266.266,0,0,1-.289-.268c0-.05.059-.279.089-.429Z" transform="translate(-0.289 -0.91)"/>
    <path class="cls-3" d="M392.545,103.031H391.18v-.4h.967V93.466h-.967v-.4h1.365Z" transform="translate(-0.289 -0.91)"/>
    <path class="cls-3" d="M398.6,97.84l1.116-.808c.249-.188.269-.188.339-.188a.282.282,0,0,1,.269.278c0,.149-.079.19-.24.27l-1.375.667c.788.369.808.369,1.406.668.119.059.209.109.209.258a.291.291,0,0,1-.269.28c-.07,0-.09-.02-.18-.07l-1.275-.926.149,1.673a.264.264,0,0,1-.528,0l.15-1.673-1.116.806c-.249.19-.269.19-.339.19a.284.284,0,0,1-.269-.28c0-.149.08-.189.239-.268l1.375-.668-1.415-.678c-.1-.05-.2-.089-.2-.249a.29.29,0,0,1,.269-.278c.07,0,.09.019.179.069l1.276.927-.139-1.545v-.129c-.03-.13.1-.259.259-.259.258,0,.258.239.249.378Z" transform="translate(-0.289 -0.91)"/>
    <path class="cls-3" d="M405.278,96.9a1.851,1.851,0,0,1,1.475-.767A1.014,1.014,0,0,1,407.9,97.2a8.925,8.925,0,0,1-.608,2.193,1.906,1.906,0,0,0-.179.707c0,.229.069.329.239.329.548,0,.866-.708,1.016-1.236.05-.149.05-.179.149-.179.03,0,.12,0,.12.1,0,.08-.369,1.534-1.305,1.534a.8.8,0,0,1-.817-.816,1.525,1.525,0,0,1,.129-.549,8.455,8.455,0,0,0,.618-2.231c0-.359-.109-.7-.538-.7a1.59,1.59,0,0,0-.957.349,2.959,2.959,0,0,0-.677.916c-.01.061-.089.389-.11.449-.05.229-.109.449-.169.667l-.22.9-.188.757a.416.416,0,0,1-.369.258.273.273,0,0,1-.289-.278.616.616,0,0,1,.04-.22l1.444-5.739.03-.2c0-.1-.019-.169-.5-.169-.149,0-.239,0-.239-.12,0-.18.109-.19.189-.2.259-.02.987-.1,1.216-.1.129,0,.129.1.129.109Z" transform="translate(-0.289 -0.91)"/>
    <path class="cls-3" d="M411.3,101.413c0,.231,0,.321.7.321h.265v.251c-.154-.006-1.032-.028-1.249-.028-.258,0-1.115.022-1.241.028v-.251h.266c.7,0,.7-.09.7-.321V97.857a2.293,2.293,0,0,1-1.012.2V97.8a1.906,1.906,0,0,0,1.367-.447c.2,0,.209.007.209.2Z" transform="translate(-0.289 -0.91)"/>
    <path class="cls-3" d="M414.575,103.031V93.067h1.365v.4h-.967v9.167h.967v.4Z" transform="translate(-0.289 -0.91)"/>
    <path class="cls-3" d="M417.612,97.65a3.22,3.22,0,0,0,.159-.837c0-.329-.109-.458-.309-.458-.359,0-.558.478-.727,1.186-.06.219-.07.23-.17.23-.02,0-.119,0-.119-.1a4.983,4.983,0,0,1,.3-.967.868.868,0,0,1,.747-.568.9.9,0,0,1,.917.867,1.922,1.922,0,0,1,1.554-.867,1.018,1.018,0,0,1,1.146,1.066A8.989,8.989,0,0,1,420.5,99.4a1.906,1.906,0,0,0-.179.707c0,.229.069.329.239.329.488,0,.816-.559,1.016-1.236.05-.149.05-.179.15-.179.029,0,.119,0,.119.1,0,.08-.369,1.534-1.305,1.534a.8.8,0,0,1-.817-.816,1.136,1.136,0,0,1,.1-.459,9.5,9.5,0,0,0,.647-2.321c0-.329-.09-.7-.538-.7a1.984,1.984,0,0,0-1.624,1.215c-.01.04-.09.329-.13.5-.05.229-.109.449-.169.667l-.219.9c-.06.249-.179.717-.19.737a.405.405,0,0,1-.368.278.266.266,0,0,1-.289-.268c0-.05.059-.279.09-.429Z" transform="translate(-0.289 -0.91)"/>
    <path class="cls-3" d="M423.749,103.031h-1.366v-.4h.967V93.466h-.967v-.4h1.366Z" transform="translate(-0.289 -0.91)"/>
    <g>
      <path class="cls-1" d="M288.879,76.776c0-.359-.02-.468-.787-.468h-.239V76h5.609l.28,2.242h-.249c-.16-1.386-.429-1.933-1.953-1.933h-1.286c-.468,0-.488.07-.488.4V79.1h.9c.966,0,1.076-.309,1.076-1.166h.249v2.64h-.249c0-.846-.11-1.166-1.076-1.166h-.9v2.661c0,.329.02.4.488.4h1.326c1.713,0,1.942-.728,2.191-2.262h.249l-.418,2.57h-5.749v-.308h.239c.767,0,.787-.111.787-.469Z" transform="translate(-0.289 -0.91)"/>
      <path class="cls-1" d="M296.78,82.884a2.2,2.2,0,0,1-2.122-2.252,2.242,2.242,0,0,1,2.2-2.262,1.506,1.506,0,0,1,1.335.907l.379-.907h.218v5.58c0,.448.11.448.778.448v.309c-.349-.01-.857-.029-1.126-.029s-.777.019-1.116.029V84.4c.668,0,.777,0,.777-.448V82.167A1.633,1.633,0,0,1,296.78,82.884Zm.139-4.265c-.737,0-1.434.827-1.434,2.013,0,1.146.607,2.033,1.335,2.033a1.394,1.394,0,0,0,1.315-1.246v-1.4C298.135,79.486,297.716,78.619,296.919,78.619Z" transform="translate(-0.289 -0.91)"/>
      <path class="cls-1" d="M302.2,82.884c-1.515,0-1.515-.906-1.515-1.684v-1.5c0-.887,0-.916-.777-.916v-.31l1.465-.109v3.309c0,.517.04.986.877.986.727,0,1.206-.678,1.206-1.545V79.347c0-.489-.08-.558-.778-.558v-.31l1.465-.109v3.537c0,.489.079.559.777.559v.308l-1.435.11v-.9A1.358,1.358,0,0,1,302.2,82.884Z" transform="translate(-0.289 -0.91)"/>
      <path class="cls-1" d="M306.9,82.027c0,.389.04.439.7.439v.308c-.339-.009-.687-.03-1.036-.03-.239,0-.777.021-1.1.03v-.308c.667,0,.778,0,.778-.448V79.337c0-.488-.09-.548-.738-.548v-.31l1.4-.109Zm-.488-4.862a.533.533,0,0,1-.529-.528.539.539,0,0,1,.529-.529.529.529,0,0,1,0,1.057Z" transform="translate(-0.289 -0.91)"/>
    </g>
    <g>
      <path class="cls-1" d="M310.754,82.694c-.04.1-.08.19-.209.19s-.149-.05-.21-.19L308.9,79.157c-.13-.308-.169-.368-.8-.368v-.31c.3.021.7.031.967.031.228,0,.787-.02,1.086-.031v.31c-.18,0-.569,0-.569.259,0,.019,0,.04.06.169L310.764,82l1.017-2.541a.591.591,0,0,0,.059-.239c0-.189-.109-.418-.478-.428v-.31c.17.011.628.031.867.031s.519-.01.747-.031v.31a.9.9,0,0,0-.917.667Z" transform="translate(-0.289 -0.91)"/>
      <path class="cls-1" d="M314.6,82.884c-.628,0-1.594-.249-1.594-1.056a1.453,1.453,0,0,1,1-1.3,4.851,4.851,0,0,1,1.833-.358v-.369a1.128,1.128,0,0,0-1.055-1.276,1.4,1.4,0,0,0-1.076.459.451.451,0,0,1,.507.458.459.459,0,1,1-.917-.009c0-.658.688-1.126,1.5-1.126a1.906,1.906,0,0,1,1.366.547,1.478,1.478,0,0,1,.358,1.176v1.993c0,.05.04.5.369.5.109,0,.358-.059.358-.637V81.33h.25v.558a.846.846,0,0,1-.818.946.832.832,0,0,1-.776-.816A1.382,1.382,0,0,1,314.6,82.884Zm-.827-1.067a.858.858,0,0,0,.9.848,1.2,1.2,0,0,0,1.166-1.285v-1C314.192,80.442,313.773,81.27,313.773,81.817Z" transform="translate(-0.289 -0.91)"/>
    </g>
    <g>
      <path class="cls-1" d="M319.4,82.018c0,.448.109.448.777.448v.308c-.369-.009-.857-.03-1.106-.03s-.777.021-1.106.03v-.308c.667,0,.778,0,.778-.448V76.836c0-.488-.08-.558-.778-.558v-.309l1.435-.11Z" transform="translate(-0.289 -0.91)"/>
      <path class="cls-1" d="M321.789,81.968a1.34,1.34,0,0,0,1.126.667,1.4,1.4,0,0,0,1.344-1.027c.02-.079.04-.139.13-.139a.115.115,0,0,1,.129.12,1.7,1.7,0,0,1-1.664,1.3,2.248,2.248,0,0,1-2.191-2.3,2.177,2.177,0,0,1,2.072-2.271,1.767,1.767,0,0,1,1.783,1.953c0,.209-.029.209-.249.209H321.49A2.9,2.9,0,0,0,321.789,81.968Zm2.072-1.7c0-.389-.1-1.735-1.126-1.735-.339,0-1.176.25-1.235,1.735Z" transform="translate(-0.289 -0.91)"/>
    </g>
    <g>
      <path class="cls-1" d="M325.147,78.789v-.31l1.405-.109v1.047a1.572,1.572,0,0,1,1.475-1.047,1.329,1.329,0,0,1,1.047.369c.308.359.308.667.308,1.525v1.9c.01.3.259.3.778.3v.308c-.339-.009-.858-.03-1.117-.03s-.777.021-1.126.03v-.308c.668,0,.778,0,.778-.448V79.695c0-.567-.11-1.1-.737-1.1a1.455,1.455,0,0,0-1.346,1.594v1.834c0,.448.11.448.777.448v.308c-.339-.009-.856-.03-1.116-.03s-.776.021-1.126.03v-.308c.668,0,.777,0,.777-.448V79.347C325.924,78.858,325.845,78.789,325.147,78.789Z" transform="translate(-0.289 -0.91)"/>
      <path class="cls-1" d="M331.823,81.559c0,.17,0,1.076.668,1.076.368,0,.667-.379.667-1.116v-.548h.249v.568c0,.638-.279,1.345-.987,1.345a1.205,1.205,0,0,1-1.285-1.345v-2.75h-.846v-.22c.976-.04,1.275-1.105,1.285-1.923h.249v1.833h1.425v.31h-1.425Z" transform="translate(-0.289 -0.91)"/>
    </g>
    <g>
      <path class="cls-1" d="M342.708,82.774h-5.191v-.308h.239c.767,0,.787-.111.787-.469V76.746c0-.358-.02-.468-.787-.468h-.239v-.309c.349.03,1.126.03,1.515.03.408,0,1.314,0,1.674-.03v.309h-.33c-.946,0-.946.139-.946.478v5.311c0,.329.02.4.488.4h.817c1.754,0,1.893-1.246,2-2.262h.249Z" transform="translate(-0.289 -0.91)"/>
      <path class="cls-1" d="M349.413,78.271h-.249c-.14-1.605-.289-1.933-1.794-1.933a4.928,4.928,0,0,0-.568.019c-.179.04-.179.18-.179.379v5.251c0,.339,0,.479,1.046.479h.4v.308c-.409-.03-1.436-.03-1.894-.03s-1.474,0-1.882.03v-.308h.4c1.046,0,1.046-.14,1.046-.479V76.736c0-.229,0-.339-.209-.379a4.387,4.387,0,0,0-.538-.019c-1.5,0-1.655.328-1.794,1.933h-.249l.189-2.243h6.088Z" transform="translate(-0.289 -0.91)"/>
    </g>
    <path class="cls-1" d="M352.032,82c0,.358.029.469.816.469h.26v.308c-.349-.03-1.137-.03-1.525-.03s-1.166,0-1.514.03v-.308h.259c.787,0,.817-.111.817-.469V76.746c0-.358-.03-.468-.817-.468h-.259v-.309c.348.03,1.136.03,1.524.03s1.166,0,1.515-.03v.309h-.26c-.787,0-.816.11-.816.468Z" transform="translate(-0.289 -0.91)"/>
    <path class="cls-1" d="M280.84,93.427a1.853,1.853,0,0,1,1.476-.768,1.013,1.013,0,0,1,1.145,1.067,8.917,8.917,0,0,1-.608,2.192,1.911,1.911,0,0,0-.179.707c0,.229.07.329.24.329.547,0,.866-.708,1.015-1.235.05-.15.05-.18.15-.18.03,0,.12,0,.12.1,0,.08-.369,1.534-1.306,1.534a.8.8,0,0,1-.816-.817,1.5,1.5,0,0,1,.129-.548,8.472,8.472,0,0,0,.618-2.232c0-.358-.11-.7-.538-.7a1.582,1.582,0,0,0-.957.349,2.931,2.931,0,0,0-.677.916c-.011.06-.09.388-.11.449-.05.228-.11.448-.169.667l-.22.9-.189.757a.414.414,0,0,1-.369.259.274.274,0,0,1-.289-.278.61.61,0,0,1,.04-.22l1.445-5.739.03-.2c0-.1-.02-.169-.5-.169-.15,0-.24,0-.24-.12,0-.179.11-.189.19-.2.259-.019.986-.1,1.216-.1.129,0,.129.1.129.11Z" transform="translate(-0.289 -0.91)"/>
    <path class="cls-1" d="M285.692,99.555V89.591h1.365v.4h-.967v9.167h.967v.4Z" transform="translate(-0.289 -0.91)"/>
    <path class="cls-1" d="M288.729,94.174a3.227,3.227,0,0,0,.159-.837c0-.329-.109-.458-.308-.458-.36,0-.559.477-.728,1.185-.06.219-.07.23-.17.23-.019,0-.119,0-.119-.1a5.035,5.035,0,0,1,.3-.966.869.869,0,0,1,.747-.569.9.9,0,0,1,.917.867,1.925,1.925,0,0,1,1.555-.867,1.018,1.018,0,0,1,1.145,1.067,9.024,9.024,0,0,1-.607,2.192,1.893,1.893,0,0,0-.18.707c0,.229.069.329.239.329.489,0,.817-.558,1.016-1.235.051-.15.051-.18.15-.18.03,0,.119,0,.119.1,0,.08-.369,1.534-1.305,1.534a.8.8,0,0,1-.817-.817,1.136,1.136,0,0,1,.1-.459,9.486,9.486,0,0,0,.647-2.321c0-.329-.089-.7-.538-.7a1.983,1.983,0,0,0-1.624,1.215c-.009.04-.09.329-.13.5-.049.228-.109.448-.169.667l-.219.9c-.06.249-.179.717-.19.738a.405.405,0,0,1-.368.278.267.267,0,0,1-.289-.269c0-.05.06-.279.09-.428Z" transform="translate(-0.289 -0.91)"/>
    <g>
      <path class="cls-1" d="M294.866,99.555H293.5v-.4h.967V89.989H293.5v-.4h1.366Z" transform="translate(-0.289 -0.91)"/>
      <path class="cls-1" d="M299.687,93.806c-.149,0-.339,0-.339-.2s.19-.2.329-.2h5.969c.14,0,.328,0,.328.2s-.188.2-.338.2Zm-.01,1.932c-.139,0-.329,0-.329-.2s.19-.2.339-.2h5.949c.15,0,.338,0,.338.2s-.188.2-.328.2Z" transform="translate(-0.289 -0.91)"/>
    </g>
    <path class="cls-4" d="M311.442,93.427a1.853,1.853,0,0,1,1.475-.768,1.014,1.014,0,0,1,1.146,1.067,8.917,8.917,0,0,1-.608,2.192,1.911,1.911,0,0,0-.179.707c0,.229.069.329.239.329.548,0,.866-.708,1.016-1.235.05-.15.05-.18.149-.18.03,0,.12,0,.12.1,0,.08-.369,1.534-1.305,1.534a.8.8,0,0,1-.817-.817,1.516,1.516,0,0,1,.129-.548,8.472,8.472,0,0,0,.618-2.232c0-.358-.109-.7-.538-.7a1.584,1.584,0,0,0-.957.349,2.948,2.948,0,0,0-.677.916c-.01.06-.089.388-.11.449-.05.228-.109.448-.169.667l-.22.9-.188.757a.415.415,0,0,1-.369.259.274.274,0,0,1-.289-.278.61.61,0,0,1,.04-.22l1.444-5.739.03-.2c0-.1-.019-.169-.5-.169-.149,0-.239,0-.239-.12,0-.179.109-.189.19-.2.258-.019.986-.1,1.215-.1.129,0,.129.1.129.11Z" transform="translate(-0.289 -0.91)"/>
    <path class="cls-4" d="M318.43,98.5h-2.873c0-.2,0-.209.069-.272l1.681-1.66a2.114,2.114,0,0,0,.655-1.339,1.043,1.043,0,0,0-1.059-1.108,1.1,1.1,0,0,0-1.019.649c.364,0,.412.244.412.369a.37.37,0,1,1-.739-.021,1.352,1.352,0,0,1,1.45-1.248,1.459,1.459,0,0,1,1.632,1.359,2.015,2.015,0,0,1-1,1.506c-.419.328-.662.524-1.394,1.172h1.283a3.589,3.589,0,0,0,.69-.042,1.625,1.625,0,0,0,.181-.635h.237Z" transform="translate(-0.289 -0.91)"/>
    <path class="cls-4" d="M320.731,99.555V89.591H322.1v.4h-.967v9.167h.967v.4Z" transform="translate(-0.289 -0.91)"/>
    <path class="cls-4" d="M323.776,94.174a3.227,3.227,0,0,0,.159-.837c0-.329-.109-.458-.309-.458-.359,0-.558.477-.727,1.185-.06.219-.07.23-.17.23-.02,0-.119,0-.119-.1a5.035,5.035,0,0,1,.3-.966.869.869,0,0,1,.747-.569.9.9,0,0,1,.917.867,1.924,1.924,0,0,1,1.554-.867,1.019,1.019,0,0,1,1.146,1.067,9.024,9.024,0,0,1-.607,2.192,1.893,1.893,0,0,0-.18.707c0,.229.069.329.239.329.488,0,.817-.558,1.016-1.235.051-.15.051-.18.15-.18.029,0,.119,0,.119.1,0,.08-.369,1.534-1.305,1.534a.8.8,0,0,1-.817-.817,1.136,1.136,0,0,1,.1-.459,9.486,9.486,0,0,0,.647-2.321c0-.329-.09-.7-.538-.7a1.983,1.983,0,0,0-1.624,1.215c-.01.04-.09.329-.13.5-.05.228-.109.448-.169.667l-.219.9c-.06.249-.179.717-.19.738a.405.405,0,0,1-.368.278.267.267,0,0,1-.289-.269c0-.05.059-.279.09-.428Z" transform="translate(-0.289 -0.91)"/>
    <path class="cls-4" d="M329.905,99.555H328.54v-.4h.966V89.989h-.966v-.4h1.365Z" transform="translate(-0.289 -0.91)"/>
    <path class="cls-1" d="M335.843,94.363l1.116-.807c.249-.189.269-.189.339-.189a.283.283,0,0,1,.269.279c0,.149-.079.189-.239.269l-1.375.667c.787.369.807.369,1.405.668.119.06.209.109.209.259a.291.291,0,0,1-.269.279c-.07,0-.09-.019-.179-.069l-1.276-.927.15,1.674a.265.265,0,0,1-.529,0l.15-1.674L334.5,95.6c-.249.189-.27.189-.339.189a.284.284,0,0,1-.27-.279c0-.15.08-.19.239-.269l1.375-.668-1.415-.677c-.1-.05-.2-.089-.2-.249a.291.291,0,0,1,.27-.279c.069,0,.09.02.178.07l1.276.926-.139-1.545v-.129c-.03-.129.1-.258.259-.258.259,0,.259.238.249.378Z" transform="translate(-0.289 -0.91)"/>
    <path class="cls-1" d="M342.52,93.427A1.853,1.853,0,0,1,344,92.659a1.013,1.013,0,0,1,1.145,1.067,8.917,8.917,0,0,1-.608,2.192,1.911,1.911,0,0,0-.179.707c0,.229.069.329.239.329.548,0,.866-.708,1.016-1.235.05-.15.05-.18.149-.18.031,0,.12,0,.12.1,0,.08-.369,1.534-1.305,1.534a.8.8,0,0,1-.817-.817,1.516,1.516,0,0,1,.129-.548,8.434,8.434,0,0,0,.618-2.232c0-.358-.109-.7-.538-.7a1.587,1.587,0,0,0-.957.349,2.923,2.923,0,0,0-.676.916c-.011.06-.09.388-.111.449-.05.228-.109.448-.169.667l-.219.9-.189.757a.415.415,0,0,1-.369.259.274.274,0,0,1-.289-.278.61.61,0,0,1,.04-.22l1.444-5.739.03-.2c0-.1-.019-.169-.5-.169-.149,0-.239,0-.239-.12,0-.179.11-.189.19-.2.258-.019.986-.1,1.215-.1.129,0,.129.1.129.11Z" transform="translate(-0.289 -0.91)"/>
    <path class="cls-1" d="M348.532,97.929c0,.23,0,.321.7.321h.266V98.5c-.155-.007-1.033-.028-1.249-.028-.258,0-1.116.021-1.242.028V98.25h.266c.7,0,.7-.091.7-.321V94.373a2.3,2.3,0,0,1-1.011.195v-.251a1.905,1.905,0,0,0,1.367-.446c.195,0,.209.007.209.2Z" transform="translate(-0.289 -0.91)"/>
    <path class="cls-1" d="M351.817,99.555V89.591h1.365v.4h-.967v9.167h.967v.4Z" transform="translate(-0.289 -0.91)"/>
    <path class="cls-1" d="M354.854,94.174a3.227,3.227,0,0,0,.159-.837c0-.329-.109-.458-.308-.458-.36,0-.559.477-.728,1.185-.06.219-.07.23-.17.23-.019,0-.119,0-.119-.1a5.035,5.035,0,0,1,.3-.966.869.869,0,0,1,.747-.569.9.9,0,0,1,.917.867,1.925,1.925,0,0,1,1.555-.867,1.018,1.018,0,0,1,1.145,1.067,9.024,9.024,0,0,1-.607,2.192,1.893,1.893,0,0,0-.18.707c0,.229.069.329.239.329.489,0,.817-.558,1.016-1.235.051-.15.051-.18.15-.18.03,0,.119,0,.119.1,0,.08-.369,1.534-1.305,1.534a.8.8,0,0,1-.817-.817,1.136,1.136,0,0,1,.1-.459,9.486,9.486,0,0,0,.647-2.321c0-.329-.089-.7-.538-.7a1.983,1.983,0,0,0-1.624,1.215c-.009.04-.09.329-.13.5-.049.228-.109.448-.169.667l-.219.9c-.06.249-.179.717-.19.738a.405.405,0,0,1-.368.278.267.267,0,0,1-.289-.269c0-.05.06-.279.09-.428Z" transform="translate(-0.289 -0.91)"/>
    <path class="cls-1" d="M360.983,99.555h-1.365v-.4h.966V89.989h-.966v-.4h1.365Z" transform="translate(-0.289 -0.91)"/>
    <polygon class="cls-2" points="270.561 86.533 270.561 72.36 369.773 72.36 369.773 100.706 270.561 100.706 270.561 86.533"/>
  </g>
</svg>
