<svg id="Layer_1" data-name="Layer 1" xmlns="http://www.w3.org/2000/svg" xmlns:xlink="http://www.w3.org/1999/xlink" viewBox="0 0 163.372 166.258">
  <defs>
    <style>
      .cls-1, .cls-10, .cls-12, .cls-14, .cls-15, .cls-4, .cls-5, .cls-7 {
        fill: none;
      }

      .cls-2 {
        fill: red;
      }

      .cls-3 {
        fill: #1d1d1b;
      }

      .cls-4 {
        stroke: red;
      }

      .cls-10, .cls-12, .cls-14, .cls-15, .cls-16, .cls-17, .cls-18, .cls-4, .cls-5, .cls-7 {
        stroke-miterlimit: 10;
      }

      .cls-10, .cls-4, .cls-7 {
        stroke-width: 1.701px;
      }

      .cls-12, .cls-14, .cls-15, .cls-16, .cls-17, .cls-18, .cls-5 {
        stroke: #000;
      }

      .cls-12, .cls-14, .cls-16, .cls-17, .cls-18, .cls-5 {
        stroke-width: 0.85px;
      }

      .cls-16, .cls-6 {
        fill: blue;
      }

      .cls-7 {
        stroke: blue;
      }

      .cls-8 {
        fill: #bf0040;
      }

      .cls-17, .cls-9 {
        fill: #e6007e;
      }

      .cls-10 {
        stroke: #e6007e;
      }

      .cls-11 {
        clip-path: url(#clip-path);
      }

      .cls-12 {
        stroke-linecap: square;
      }

      .cls-13 {
        clip-path: url(#clip-path-2);
      }

      .cls-14 {
        stroke-linecap: round;
        stroke-dashoffset: -0.425px;
        stroke-dasharray: 0 3.695;
      }

      .cls-15 {
        stroke-width: 0.283px;
      }
    </style>
    <clipPath id="clip-path" transform="translate(-0.289 -1.578)">
      <polygon class="cls-1" points="48.143 140.024 48.143 147.11 76.489 147.11 76.489 132.937 48.143 132.937 48.143 140.024"/>
    </clipPath>
    <clipPath id="clip-path-2" transform="translate(-0.289 -1.578)">
      <polygon class="cls-1" points="126.095 140.024 126.095 147.11 154.442 147.11 154.442 132.937 126.095 132.937 126.095 140.024"/>
    </clipPath>
  </defs>
  <title>completeconv</title>
  <g>
    <path class="cls-2" d="M72.153,8.174c-.049.18-.049.209-.159.209-.09,0-.119-.02-.189-.189L69.324,2.325a1.526,1.526,0,0,0-.09-.179L67.919,7.407a.783.783,0,0,0-.04.229c0,.2.079.419.658.438.109,0,.2.01.2.11,0,.2-.13.2-.179.2-.329,0-.688-.029-1.027-.029s-.677.029-1,.029c-.08,0-.13-.04-.13-.109,0-.19.11-.2.17-.2.807-.03.976-.348,1.076-.747l1.335-5.35c0-.09-.628-.09-.678-.09-.189,0-.279,0-.279-.11,0-.2.09-.2.289-.2h1.335c.23,0,.24.01.319.189l2.2,5.2L73.29,2.535a1.708,1.708,0,0,0,.029-.21c0-.219-.11-.428-.677-.438-.08,0-.18,0-.18-.11,0-.2.12-.2.18-.2.329,0,.677.03,1.016.03s.677-.03,1.007-.03c.129,0,.129.1.129.11,0,.189-.12.2-.169.2-.8.03-.977.339-1.077.737Z" transform="translate(-0.289 -1.578)"/>
    <path class="cls-3" d="M79.389,5.125c-.15,0-.339,0-.339-.2s.189-.2.329-.2h5.969c.139,0,.328,0,.328.2s-.189.2-.338.2Zm-.01,1.933c-.14,0-.329,0-.329-.2s.189-.2.339-.2h5.949c.149,0,.338,0,.338.2s-.189.2-.328.2Z" transform="translate(-0.289 -1.578)"/>
    <path class="cls-3" d="M91.913,7.736a.81.81,0,0,0-.05.229c0,.079.03.09.129.1a1.1,1.1,0,0,0,.22.01h.936c1.724,0,2.163-1.136,2.5-2.052.07-.16.08-.209.169-.209a.112.112,0,0,1,.12.109.451.451,0,0,1-.04.14l-.787,2.152c-.059.169-.07.169-.309.169H90.188c-.178,0-.268,0-.268-.109,0-.2.1-.2.268-.2.788,0,.808-.079.908-.468l1.335-5.351a.86.86,0,0,0,.04-.189c0-.129-.09-.139-.27-.159a3.6,3.6,0,0,0-.378-.02c-.189,0-.279,0-.279-.11,0-.2.119-.2.189-.2.3,0,1.027.03,1.326.03.329,0,1.145-.03,1.474-.03.05,0,.159,0,.159.119,0,.19-.079.19-.378.19-.937,0-.966.11-1.056.468Z" transform="translate(-0.289 -1.578)"/>
    <path class="cls-3" d="M102.606,8.881c0,.14,0,.329-.2.329s-.2-.189-.2-.329V6.092h-2.79c-.14,0-.329,0-.329-.2s.189-.2.329-.2h2.79V2.9c0-.139,0-.329.2-.329s.2.19.2.329v2.79h2.781c.139,0,.328,0,.328.2s-.189.2-.328.2h-2.781Z" transform="translate(-0.289 -1.578)"/>
    <path class="cls-3" d="M116.394,7.656a.78.78,0,0,0-.05.239c0,.179.279.179.647.179.19,0,.28,0,.28.11,0,.2-.13.2-.19.2-.408,0-.837-.029-1.245-.029-.279,0-.957.029-1.235.029-.031,0-.151,0-.151-.119,0-.19.111-.19.279-.19.788,0,.808-.079.908-.468L117.062,1.9h-.011L113.025,8.2c-.049.07-.109.179-.218.179s-.13-.109-.15-.229L111.8,1.977h-.01l-1.354,5.43a.75.75,0,0,0-.04.229c0,.229.109.428.677.438.07,0,.179,0,.179.11,0,.2-.129.2-.179.2-.329,0-.687-.029-1.026-.029s-.678.029-1,.029c-.079,0-.139-.029-.139-.119,0-.18.129-.19.179-.19.807-.03.976-.348,1.076-.747l1.266-5.072a.86.86,0,0,0,.04-.189c0-.109-.06-.139-.22-.159-.119-.01-.3-.02-.428-.02-.2,0-.289,0-.289-.12,0-.189.11-.189.3-.189H112.2c.259,0,.279,0,.309.229l.777,5.64,3.637-5.68c.119-.189.129-.189.389-.189h1.315c.169,0,.269,0,.269.11,0,.2-.09.2-.319.2-.748,0-.767.1-.857.458Z" transform="translate(-0.289 -1.578)"/>
    <path class="cls-3" d="M122.621,6.092c-.169,0-.349,0-.349-.2s.18-.2.349-.2h5.391c.169,0,.348,0,.348.2s-.179.2-.348.2Z" transform="translate(-0.289 -1.578)"/>
    <path class="cls-3" d="M134.336,7.6c0,.369.029.478.927.478h.318v.309c-.349-.029-1.216-.029-1.614-.029s-1.266,0-1.614.029V8.074h.319c.9,0,.927-.119.927-.478V2.435a2.99,2.99,0,0,1-1.306.259V2.385a2.46,2.46,0,0,0,1.813-.638c.23,0,.23.02.23.259Z" transform="translate(-0.289 -1.578)"/>
    <polyline class="cls-2" points="54.09 7.769 47.854 10.887 54.09 14.005 52.531 10.887"/>
    <polyline class="cls-2" points="147.916 14.005 154.152 10.887 147.916 7.769 149.475 10.887"/>
    <line class="cls-4" x1="52.531" y1="10.887" x2="149.475" y2="10.887"/>
    <path class="cls-5" d="M48.143,54.985H83.576m0,0h70.866m0,3.543V51.441" transform="translate(-0.289 -1.578)"/>
    <path class="cls-3" d="M118.992,51.243c-2.4,0-2.411-2.3-2.411-3.288s.01-3.348,2.411-3.348,2.411,2.381,2.411,3.348C121.4,48.951,121.384,51.243,118.992,51.243Zm1.067-1.425a18.664,18.664,0,0,0,.069-1.983,8.2,8.2,0,0,0-.169-2.242,1.058,1.058,0,0,0-2.022.359,13.17,13.17,0,0,0-.081,1.883,16.217,16.217,0,0,0,.09,2.1,1.067,1.067,0,0,0,1.046.946C119.291,50.884,119.919,50.745,120.059,49.818Z" transform="translate(-0.289 -1.578)"/>
    <path class="cls-5" d="M83.576,58.528V51.441M48.143,58.528V51.441" transform="translate(-0.289 -1.578)"/>
    <path class="cls-3" d="M112.87,28.914a.78.78,0,0,0-.05.239c0,.179.28.179.648.179.189,0,.279,0,.279.11,0,.2-.13.2-.189.2-.409,0-.837-.03-1.245-.03-.28,0-.958.03-1.236.03-.03,0-.15,0-.15-.12,0-.189.11-.189.279-.189.787,0,.808-.08.907-.468l1.425-5.709h-.011L109.5,29.462c-.05.07-.109.179-.219.179s-.13-.109-.149-.229l-.858-6.178h-.009l-1.355,5.431a.777.777,0,0,0-.04.229c0,.229.109.428.678.438.069,0,.179,0,.179.11,0,.2-.129.2-.179.2-.329,0-.688-.03-1.027-.03s-.677.03-1,.03c-.079,0-.138-.03-.138-.12,0-.179.129-.189.178-.189.808-.03.977-.349,1.077-.747l1.265-5.072a.86.86,0,0,0,.04-.189c0-.11-.059-.139-.219-.159-.12-.01-.3-.02-.428-.02-.2,0-.289,0-.289-.12,0-.189.109-.189.3-.189h1.365c.259,0,.278,0,.308.229l.778,5.64,3.636-5.68c.12-.189.129-.189.389-.189H115.1c.168,0,.268,0,.268.109,0,.2-.09.2-.318.2-.748,0-.768.1-.858.458Z" transform="translate(-0.289 -1.578)"/>
    <path class="cls-3" d="M119.105,27.35c-.168,0-.348,0-.348-.2s.18-.2.348-.2H124.5c.169,0,.349,0,.349.2s-.18.2-.349.2Z" transform="translate(-0.289 -1.578)"/>
    <path class="cls-3" d="M130.813,28.854c0,.369.029.478.926.478h.319v.309c-.349-.03-1.216-.03-1.615-.03s-1.265,0-1.614.03v-.309h.319c.9,0,.927-.119.927-.478V23.692a2.974,2.974,0,0,1-1.3.26v-.309a2.46,2.46,0,0,0,1.813-.638c.23,0,.23.02.23.259Z" transform="translate(-0.289 -1.578)"/>
    <polyline points="149.617 34.415 154.152 32.147 149.617 29.879 150.751 32.147"/>
    <line class="cls-5" x1="129.349" y1="32.147" x2="150.751" y2="32.147"/>
    <polyline points="87.822 29.879 83.287 32.147 87.822 34.415 86.688 32.147"/>
    <line class="cls-5" x1="129.349" y1="32.147" x2="86.688" y2="32.147"/>
    <path class="cls-6" d="M64.881,29.47a.825.825,0,0,0-.049.229c0,.08.029.09.129.1a1.1,1.1,0,0,0,.219.01h.937c1.724,0,2.162-1.136,2.5-2.053.07-.159.08-.209.169-.209a.113.113,0,0,1,.12.11.443.443,0,0,1-.04.139l-.787,2.152c-.06.17-.07.17-.309.17H63.158c-.179,0-.269,0-.269-.11,0-.2.1-.2.269-.2.787,0,.807-.08.906-.469L65.4,23.99a.875.875,0,0,0,.04-.19c0-.129-.089-.139-.269-.159a3.6,3.6,0,0,0-.378-.02c-.189,0-.279,0-.279-.109,0-.2.119-.2.189-.2.3,0,1.027.029,1.325.029.329,0,1.146-.029,1.475-.029.05,0,.159,0,.159.119,0,.189-.079.189-.378.189-.937,0-.967.11-1.056.468Z" transform="translate(-0.289 -1.578)"/>
    <polyline class="cls-6" points="77.05 35.265 83.287 32.147 77.05 29.029 78.61 32.147"/>
    <line class="cls-7" x1="72.657" y1="32.147" x2="78.61" y2="32.147"/>
    <polyline class="cls-6" points="54.09 29.029 47.854 32.147 54.09 35.265 52.531 32.147"/>
    <line class="cls-7" x1="72.657" y1="32.147" x2="52.531" y2="32.147"/>
    <path class="cls-5" d="M48.143,104.591h106.3m0,3.543v-7.087" transform="translate(-0.289 -1.578)"/>
    <path class="cls-3" d="M140.25,100.852c-2.4,0-2.411-2.3-2.411-3.288s.01-3.347,2.411-3.347,2.411,2.381,2.411,3.347C142.661,98.561,142.642,100.852,140.25,100.852Zm1.066-1.424a18.408,18.408,0,0,0,.07-1.983,8.2,8.2,0,0,0-.169-2.242,1.058,1.058,0,0,0-2.023.358,13.348,13.348,0,0,0-.08,1.884,16.2,16.2,0,0,0,.09,2.1,1.069,1.069,0,0,0,1.046.947C140.549,100.494,141.177,100.354,141.316,99.428Z" transform="translate(-0.289 -1.578)"/>
    <path class="cls-5" d="M48.143,108.134v-7.087m77.952,7.087v-7.087" transform="translate(-0.289 -1.578)"/>
    <path class="cls-3" d="M130.647,78.6a.825.825,0,0,0-.049.229c0,.08.029.09.129.1a1.091,1.091,0,0,0,.219.01h.937c1.723,0,2.162-1.136,2.5-2.053.069-.159.079-.209.169-.209a.113.113,0,0,1,.12.11.443.443,0,0,1-.04.139l-.787,2.152c-.06.17-.071.17-.31.17h-4.613c-.179,0-.269,0-.269-.11,0-.2.1-.2.269-.2.787,0,.807-.08.907-.469l1.335-5.35a.875.875,0,0,0,.04-.19c0-.129-.09-.139-.269-.159a3.613,3.613,0,0,0-.378-.02c-.19,0-.28,0-.28-.109,0-.2.119-.2.19-.2.3,0,1.026.029,1.325.029.329,0,1.145-.029,1.475-.029.049,0,.159,0,.159.119,0,.189-.079.189-.378.189-.938,0-.967.11-1.057.468Z" transform="translate(-0.289 -1.578)"/>
    <path class="cls-3" d="M138.441,76.951c-.169,0-.348,0-.348-.2s.179-.2.348-.2h5.391c.169,0,.349,0,.349.2s-.18.2-.349.2Z" transform="translate(-0.289 -1.578)"/>
    <path class="cls-3" d="M150.156,78.456c0,.368.03.478.927.478h.318v.309c-.348-.03-1.215-.03-1.614-.03s-1.266,0-1.614.03v-.309h.319c.9,0,.927-.12.927-.478V73.294a2.988,2.988,0,0,1-1.306.259v-.309a2.461,2.461,0,0,0,1.814-.638c.229,0,.229.02.229.26Z" transform="translate(-0.289 -1.578)"/>
    <polyline points="149.617 84.021 154.152 81.753 149.617 79.485 150.751 81.753"/>
    <line class="cls-5" x1="147.066" y1="81.753" x2="150.751" y2="81.753"/>
    <polyline points="130.342 79.485 125.806 81.753 130.342 84.021 129.208 81.753"/>
    <line class="cls-5" x1="147.066" y1="81.753" x2="129.208" y2="81.753"/>
    <path class="cls-8" d="M79.3,78.281a.78.78,0,0,0-.05.239c0,.179.279.179.647.179.19,0,.28,0,.28.11,0,.2-.13.2-.19.2-.408,0-.837-.029-1.245-.029-.279,0-.957.029-1.236.029-.029,0-.149,0-.149-.119,0-.19.109-.19.279-.19.787,0,.807-.079.907-.468l1.425-5.709h-.011l-4.025,6.307c-.05.07-.11.179-.219.179s-.13-.109-.15-.229L74.707,72.6H74.7l-1.355,5.43a.81.81,0,0,0-.039.229c0,.229.109.428.677.438.07,0,.18,0,.18.11,0,.2-.13.2-.18.2-.329,0-.687-.029-1.026-.029s-.678.029-1,.029c-.08,0-.14-.029-.14-.119,0-.18.129-.19.179-.19.807-.03.977-.348,1.076-.747l1.266-5.072a.831.831,0,0,0,.039-.189c0-.109-.059-.139-.218-.159-.12-.01-.3-.02-.429-.02-.2,0-.289,0-.289-.12,0-.189.11-.189.3-.189h1.365c.259,0,.279,0,.309.229l.777,5.64,3.637-5.68c.119-.189.129-.189.389-.189h1.315c.169,0,.269,0,.269.11,0,.2-.09.2-.319.2-.748,0-.767.1-.857.458Z" transform="translate(-0.289 -1.578)"/>
    <path class="cls-3" d="M86.644,78.371c-.13.069-.15.069-.18.069a.2.2,0,0,1-.2-.2c0-.06.009-.139.209-.229l5.211-2.461L86.454,73.09c-.11-.05-.189-.1-.189-.219a.194.194,0,0,1,.2-.2.444.444,0,0,1,.2.07l5.49,2.591c.16.069.2.129.2.229s-.06.159-.2.219Zm-.031,2c-.169,0-.348,0-.348-.2s.209-.2.358-.2h5.371c.15,0,.359,0,.359.2s-.18.2-.349.2Z" transform="translate(-0.289 -1.578)"/>
    <path class="cls-3" d="M98.374,78.361a.81.81,0,0,0-.05.229c0,.079.03.09.129.1a1.1,1.1,0,0,0,.22.01h.936c1.724,0,2.162-1.136,2.5-2.052.07-.16.079-.209.169-.209a.112.112,0,0,1,.12.109.451.451,0,0,1-.04.14l-.787,2.152c-.059.169-.07.169-.309.169H96.649c-.178,0-.268,0-.268-.109,0-.2.1-.2.268-.2.788,0,.808-.079.908-.468l1.335-5.351a.86.86,0,0,0,.04-.189c0-.129-.09-.139-.27-.159a3.6,3.6,0,0,0-.378-.02c-.189,0-.279,0-.279-.11,0-.2.119-.2.189-.2.3,0,1.027.03,1.326.03.329,0,1.145-.03,1.474-.03.05,0,.159,0,.159.119,0,.19-.079.19-.378.19-.937,0-.966.11-1.056.468Z" transform="translate(-0.289 -1.578)"/>
    <polyline class="cls-9" points="119.57 84.871 125.806 81.753 119.57 78.635 121.129 81.753"/>
    <line class="cls-10" x1="90.373" y1="81.753" x2="121.129" y2="81.753"/>
    <polyline class="cls-9" points="54.09 78.635 47.854 81.753 54.09 84.871 52.531 81.753"/>
    <line class="cls-10" x1="90.373" y1="81.753" x2="52.531" y2="81.753"/>
    <path class="cls-5" d="M48.143,147.11h92.125m-92.125,3.544v-7.087m28.346,7.087v-7.087m49.606,7.087v-7.087m28.347,7.087v-7.087" transform="translate(-0.289 -1.578)"/>
    <path class="cls-3" d="M52.694,167.189a.81.81,0,0,0-.05.229c0,.08.03.09.129.1a1.23,1.23,0,0,0,.22.009h.936c1.724,0,2.163-1.134,2.5-2.052.07-.159.08-.209.17-.209a.112.112,0,0,1,.119.109.477.477,0,0,1-.039.141l-.787,2.152c-.06.168-.07.168-.31.168H50.97c-.179,0-.269,0-.269-.109,0-.2.1-.2.269-.2.787,0,.807-.08.907-.468l1.335-5.35a.871.871,0,0,0,.04-.189c0-.129-.09-.141-.269-.161s-.359-.019-.379-.019c-.189,0-.279,0-.279-.11,0-.2.12-.2.19-.2.3,0,1.026.03,1.325.03.328,0,1.146-.03,1.474-.03.05,0,.16,0,.16.119,0,.19-.08.19-.379.19-.936,0-.966.109-1.056.469Z" transform="translate(-0.289 -1.578)"/>
    <path class="cls-3" d="M60.488,165.545c-.169,0-.348,0-.348-.2s.179-.2.348-.2h5.391c.169,0,.349,0,.349.2s-.18.2-.349.2Z" transform="translate(-0.289 -1.578)"/>
    <path class="cls-3" d="M72.2,167.049c0,.369.03.478.926.478h.319v.309c-.348-.029-1.215-.029-1.614-.029s-1.265,0-1.614.029v-.309h.319c.9,0,.926-.119.926-.478v-5.16a3,3,0,0,1-1.305.257v-.308a2.465,2.465,0,0,0,1.814-.637c.229,0,.229.02.229.258Z" transform="translate(-0.289 -1.578)"/>
    <polyline points="71.665 158.43 76.2 156.162 71.665 153.894 72.799 156.162"/>
    <line class="cls-5" x1="69.114" y1="156.162" x2="72.799" y2="156.162"/>
    <polyline points="52.389 153.894 47.854 156.162 52.389 158.43 51.255 156.162"/>
    <line class="cls-5" x1="69.114" y1="156.162" x2="51.255" y2="156.162"/>
    <path class="cls-3" d="M130.647,167.189a.825.825,0,0,0-.049.229c0,.08.029.09.129.1a1.21,1.21,0,0,0,.219.009h.937c1.723,0,2.162-1.134,2.5-2.052.069-.159.079-.209.169-.209a.112.112,0,0,1,.12.109.467.467,0,0,1-.04.141l-.787,2.152c-.06.168-.071.168-.31.168h-4.613c-.179,0-.269,0-.269-.109,0-.2.1-.2.269-.2.787,0,.807-.08.907-.468l1.335-5.35a.871.871,0,0,0,.04-.189c0-.129-.09-.141-.269-.161s-.359-.019-.378-.019c-.19,0-.28,0-.28-.11,0-.2.119-.2.19-.2.3,0,1.026.03,1.325.03.329,0,1.145-.03,1.475-.03.049,0,.159,0,.159.119,0,.19-.079.19-.378.19-.938,0-.967.109-1.057.469Z" transform="translate(-0.289 -1.578)"/>
    <path class="cls-3" d="M138.441,165.545c-.169,0-.348,0-.348-.2s.179-.2.348-.2h5.391c.169,0,.349,0,.349.2s-.18.2-.349.2Z" transform="translate(-0.289 -1.578)"/>
    <path class="cls-3" d="M150.156,167.049c0,.369.03.478.927.478h.318v.309c-.348-.029-1.215-.029-1.614-.029s-1.266,0-1.614.029v-.309h.319c.9,0,.927-.119.927-.478v-5.16a3.008,3.008,0,0,1-1.306.257v-.308a2.464,2.464,0,0,0,1.814-.637c.229,0,.229.02.229.258Z" transform="translate(-0.289 -1.578)"/>
    <polyline points="149.617 158.43 154.152 156.162 149.617 153.894 150.751 156.162"/>
    <line class="cls-5" x1="147.066" y1="156.162" x2="150.751" y2="156.162"/>
    <polyline points="130.342 153.894 125.806 156.162 130.342 158.43 129.208 156.162"/>
    <line class="cls-5" x1="147.066" y1="156.162" x2="129.208" y2="156.162"/>
    <g class="cls-11">
      <path class="cls-12" d="M80.543,136.991,59.283,158.25m17.66-24.859L55.683,154.65m17.66-24.859L52.083,151.05m17.66-24.859-21.26,21.26m17.66-24.86L44.883,143.85m17.66-24.859L41.283,140.25m17.66-24.859L37.683,136.65" transform="translate(-0.289 -1.578)"/>
    </g>
    <polygon class="cls-5" points="47.854 138.445 47.854 145.532 76.2 145.532 76.2 131.359 47.854 131.359 47.854 138.445"/>
    <g class="cls-13">
      <path class="cls-12" d="M137.859,163.692,116.6,142.433m24.859,17.659L120.2,138.833m24.859,17.659L123.8,135.233m24.859,17.659L127.4,131.633m24.859,17.659L131,128.033m24.859,17.659L134.6,124.433m24.859,17.659L138.2,120.833m24.859,17.659L141.8,117.233" transform="translate(-0.289 -1.578)"/>
    </g>
    <polygon class="cls-5" points="125.806 138.445 125.806 145.532 154.152 145.532 154.152 131.359 125.806 131.359 125.806 138.445"/>
    <path class="cls-14" d="M154.442,8.922V161.283M48.143,8.922V161.283" transform="translate(-0.289 -1.578)"/>
    <path class="cls-3" d="M61.269,125.352v3.228c0,.447.109.447.777.447v.309c-.369-.01-.857-.029-1.107-.029s-.776.019-1.106.029v-.309c.668,0,.778,0,.778-.447v-3.228h-.787v-.311h.787v-1.135c0-1.086,1.185-1.593,2.112-1.593.737,0,1.286.417,1.286,1a.454.454,0,1,1-.907,0,.432.432,0,0,1,.468-.459,1.175,1.175,0,0,0-.857-.328,1.4,1.4,0,0,0-1.474,1.385v1.125h1.176c.139,0,.159,0,.179-.01a.981.981,0,0,1,.179-.019l1.255-.09v3.658c0,.447.11.447.778.447v.309c-.369-.01-.857-.029-1.106-.029s-.778.019-1.106.029v-.309c.667,0,.777,0,.777-.447v-2.691c0-.409-.07-.537-.528-.537Z" transform="translate(-0.289 -1.578)"/>
    <polyline points="51.255 122.572 47.854 124.272 51.255 125.973 50.405 124.272"/>
    <line class="cls-15" x1="54.94" y1="124.272" x2="50.405" y2="124.272"/>
    <polyline points="72.799 125.973 76.2 124.272 72.799 122.572 73.649 124.272"/>
    <line class="cls-15" x1="69.114" y1="124.272" x2="73.649" y2="124.272"/>
    <polygon class="cls-16" points="47.854 46.32 47.854 53.407 83.287 53.407 83.287 39.233 47.854 39.233 47.854 46.32"/>
    <polygon class="cls-17" points="47.854 95.926 47.854 103.013 125.806 103.013 125.806 88.839 47.854 88.839 47.854 95.926"/>
    <path class="cls-3" d="M85.675,121.031a.785.785,0,0,0-.05.239c0,.179.279.179.647.179.19,0,.28,0,.28.11,0,.2-.13.2-.19.2-.408,0-.837-.029-1.245-.029-.279,0-.957.029-1.235.029-.03,0-.151,0-.151-.119,0-.19.111-.19.28-.19.787,0,.807-.08.907-.469l1.425-5.709h-.011l-4.025,6.307c-.05.07-.11.18-.219.18s-.13-.11-.15-.229l-.857-6.177h-.01l-1.354,5.429a.789.789,0,0,0-.04.231c0,.228.109.427.677.437.07,0,.179,0,.179.11,0,.2-.129.2-.179.2-.329,0-.687-.029-1.026-.029s-.678.029-1,.029c-.079,0-.139-.029-.139-.119,0-.18.129-.19.179-.19.808-.029.977-.347,1.076-.748l1.266-5.07a.875.875,0,0,0,.04-.19c0-.109-.06-.14-.22-.16-.119-.01-.3-.019-.428-.019-.2,0-.289,0-.289-.119,0-.19.11-.19.3-.19H81.48c.259,0,.279,0,.309.229l.777,5.64,3.637-5.679c.119-.19.129-.19.389-.19h1.315c.169,0,.269,0,.269.11,0,.2-.09.2-.319.2-.748,0-.767.1-.857.459Z" transform="translate(-0.289 -1.578)"/>
    <path class="cls-3" d="M91.91,119.467c-.169,0-.348,0-.348-.2s.179-.2.348-.2H97.3c.169,0,.348,0,.348.2s-.179.2-.348.2Z" transform="translate(-0.289 -1.578)"/>
    <path class="cls-3" d="M103.069,121.111a.825.825,0,0,0-.049.229c0,.08.029.09.128.1a1.109,1.109,0,0,0,.22.01h.937c1.723,0,2.162-1.135,2.5-2.053.069-.158.079-.208.169-.208a.113.113,0,0,1,.12.109.467.467,0,0,1-.04.141l-.787,2.152c-.06.168-.071.168-.31.168h-4.613c-.179,0-.269,0-.269-.11,0-.2.1-.2.269-.2.787,0,.807-.08.907-.469l1.335-5.349a.875.875,0,0,0,.04-.19c0-.128-.09-.14-.27-.16s-.358-.019-.378-.019c-.189,0-.279,0-.279-.11,0-.2.119-.2.19-.2.3,0,1.026.029,1.325.029.329,0,1.145-.029,1.474-.029.05,0,.16,0,.16.119,0,.19-.079.19-.378.19-.938,0-.967.109-1.057.468Z" transform="translate(-0.289 -1.578)"/>
    <g>
      <path class="cls-3" d="M113.763,122.256c0,.14,0,.33-.2.33s-.2-.19-.2-.33v-2.789h-2.79c-.139,0-.329,0-.329-.2s.19-.2.329-.2h2.79v-2.791c0-.138,0-.328.2-.328s.2.19.2.328v2.791h2.78c.14,0,.328,0,.328.2s-.188.2-.328.2h-2.78Z" transform="translate(-0.289 -1.578)"/>
      <path class="cls-3" d="M122.58,120.971c0,.369.029.478.927.478h.318v.309c-.348-.029-1.216-.029-1.614-.029s-1.266,0-1.614.029v-.309h.319c.9,0,.927-.119.927-.478v-5.16a3.011,3.011,0,0,1-1.306.257v-.308a2.466,2.466,0,0,0,1.814-.637c.229,0,.229.02.229.258Z" transform="translate(-0.289 -1.578)"/>
    </g>
    <path class="cls-5" d="M76.489,129.394v-7.087m49.606,7.087v-7.087" transform="translate(-0.289 -1.578)"/>
    <g>
      <path class="cls-3" d="M139.214,125.041v.311h-1.136v3.207c0,.359.021.468.758.468h.209v.309c-.4-.029-.867-.029-1.266-.029-.279,0-.747.019-1.135.029v-.309c.668,0,.777,0,.777-.447v-3.228h-.787v-.311h.787V123.9a1.543,1.543,0,0,1,1.544-1.583.807.807,0,0,1,.9.7.434.434,0,0,1-.867.01.434.434,0,0,1,.3-.418.789.789,0,0,0-.329-.071c-.439,0-.916.479-.916,1.356v1.154Z" transform="translate(-0.289 -1.578)"/>
      <path class="cls-3" d="M141.785,129.445a2.223,2.223,0,0,1-2.2-2.24,2.21,2.21,0,1,1,4.414,0A2.22,2.22,0,0,1,141.785,129.445Zm1.165-.986a3.015,3.015,0,0,0,.22-1.334,2.734,2.734,0,0,0-.259-1.385,1.305,1.305,0,0,0-1.126-.648,1.338,1.338,0,0,0-1.137.668,2.865,2.865,0,0,0-.238,1.365,2.963,2.963,0,0,0,.249,1.4,1.3,1.3,0,0,0,1.136.668A1.284,1.284,0,0,0,142.95,128.459Z" transform="translate(-0.289 -1.578)"/>
    </g>
    <polyline points="129.208 122.572 125.806 124.272 129.208 125.973 128.357 124.272"/>
    <line class="cls-15" x1="132.893" y1="124.272" x2="128.357" y2="124.272"/>
    <polyline points="150.751 125.973 154.152 124.272 150.751 122.572 151.601 124.272"/>
    <line class="cls-15" x1="147.066" y1="124.272" x2="151.601" y2="124.272"/>
    <polyline points="121.271 126.54 125.806 124.272 121.271 122.005 122.405 124.272"/>
    <line class="cls-5" x1="97.46" y1="124.272" x2="122.405" y2="124.272"/>
    <polyline points="80.736 122.005 76.2 124.272 80.736 126.54 79.602 124.272"/>
    <line class="cls-5" x1="97.46" y1="124.272" x2="79.602" y2="124.272"/>
    <polygon class="cls-18" points="76.2 138.445 76.2 145.532 125.806 145.532 125.806 131.359 76.2 131.359 76.2 138.445"/>
    <path class="cls-6" d="M19,47.739a1.845,1.845,0,0,1,1.474-.768,1.014,1.014,0,0,1,1.146,1.067,8.953,8.953,0,0,1-.608,2.191,1.9,1.9,0,0,0-.179.708c0,.229.069.329.239.329.548,0,.867-.707,1.016-1.236.05-.149.05-.179.15-.179.03,0,.119,0,.119.1,0,.079-.368,1.534-1.3,1.534a.8.8,0,0,1-.817-.817,1.5,1.5,0,0,1,.13-.548,8.468,8.468,0,0,0,.617-2.232c0-.359-.109-.7-.538-.7a1.581,1.581,0,0,0-.956.35,2.939,2.939,0,0,0-.678.916c-.01.06-.089.389-.109.448-.05.23-.11.449-.17.668l-.219.9-.189.757a.414.414,0,0,1-.369.259.274.274,0,0,1-.289-.279.609.609,0,0,1,.04-.219l1.445-5.739.03-.2c0-.1-.02-.169-.5-.169-.15,0-.24,0-.24-.12,0-.179.11-.189.19-.2.259-.02.986-.1,1.215-.1.13,0,.13.1.13.11Z" transform="translate(-0.289 -1.578)"/>
    <path class="cls-8" d="M19.9,98.02a3.864,3.864,0,0,0-.169.876c0,.34.159.659.548.659.319,0,1-.239,1.325-1.305.02-.07.04-.109.13-.109.03,0,.119,0,.119.1,0,.248-.568,1.533-1.594,1.533a1.1,1.1,0,0,1-1.076-.755,1.328,1.328,0,0,1-1.046.755c-.439,0-.937-.2-.937-.656a.565.565,0,0,1,.548-.578.342.342,0,0,1,.369.348.567.567,0,0,1-.469.539.964.964,0,0,0,.5.129c.439,0,.788-.418.947-1.035a14.473,14.473,0,0,0,.538-2.374c0-.576-.348-.666-.538-.666-.339,0-1,.249-1.335,1.3-.02.09-.05.11-.13.11-.02,0-.119,0-.119-.1,0-.25.568-1.535,1.6-1.535a1.1,1.1,0,0,1,1.076.758,1.291,1.291,0,0,1,1.046-.758c.339,0,.927.14.927.658a.556.556,0,0,1-.538.578.347.347,0,0,1-.378-.35.577.577,0,0,1,.478-.537.982.982,0,0,0-.5-.129c-.7,0-.927.916-.987,1.176Z" transform="translate(-0.289 -1.578)"/>
    <path class="cls-3" d="M3.886,142.549a2.627,2.627,0,0,1-2.332,2.033A.943.943,0,0,1,.5,143.715a.574.574,0,0,1,.558-.647.339.339,0,0,1,.369.348.541.541,0,0,1-.2.408.566.566,0,0,1-.429.121.8.8,0,0,0,.757.418,1.422,1.422,0,0,0,1.1-.629A3.816,3.816,0,0,0,3.3,142.2a1.406,1.406,0,0,1-1.006.447,1.111,1.111,0,0,1-1.216-1.185,6.575,6.575,0,0,1,.578-2.092,2.1,2.1,0,0,0,.169-.7c0-.319-.169-.319-.249-.319-.339,0-.737.3-1.006,1.235-.05.16-.06.18-.159.18-.02,0-.12,0-.12-.1s.369-1.535,1.315-1.535a.79.79,0,0,1,.817.818,1.8,1.8,0,0,1-.2.717,5.934,5.934,0,0,0-.508,1.953c0,.369.109.807.618.807a1.389,1.389,0,0,0,1.126-.848l.448-1.793c.06-.269.13-.537.2-.8.04-.179.12-.488.14-.537a.433.433,0,0,1,.348-.211.267.267,0,0,1,.289.27.629.629,0,0,1-.04.23Z" transform="translate(-0.289 -1.578)"/>
    <path class="cls-3" d="M8.928,139.281c-.15,0-.339,0-.339-.2s.189-.2.329-.2h5.969c.139,0,.328,0,.328.2s-.189.2-.339.2Zm-.01,1.934c-.14,0-.329,0-.329-.2s.189-.2.339-.2h5.948c.15,0,.339,0,.339.2s-.189.2-.328.2Z" transform="translate(-0.289 -1.578)"/>
    <path d="M21.454,135.738c0-.01,0-.109-.129-.109-.23,0-.957.079-1.216.1-.08.01-.189.02-.189.2,0,.119.089.119.239.119.478,0,.5.07.5.169l-.03.2-1.445,5.739a.612.612,0,0,0-.04.219.275.275,0,0,0,.289.279.414.414,0,0,0,.369-.259l.189-.757.22-.9c.059-.219.119-.438.169-.667.02-.06.1-.389.11-.449a2.914,2.914,0,0,1,.677-.916,1.582,1.582,0,0,1,.957-.349c.428,0,.538.339.538.7a8.472,8.472,0,0,1-.618,2.232,1.5,1.5,0,0,0-.13.548.8.8,0,0,0,.817.817c.937,0,1.306-1.455,1.306-1.534,0-.1-.09-.1-.12-.1-.1,0-.1.03-.149.179-.15.529-.469,1.236-1.017,1.236-.169,0-.239-.1-.239-.329a1.893,1.893,0,0,1,.18-.707,8.961,8.961,0,0,0,.607-2.192,1.013,1.013,0,0,0-1.145-1.066,1.848,1.848,0,0,0-1.475.767Zm7.442,5.241c.01-.02.08-.089.11-.089a6.3,6.3,0,0,1,.488.508c.289.319.578.637.877.936.04.05.069.05.079.05a.11.11,0,0,0,.11-.109c0-.05-.309-.588-.6-1.1l-.388-.718,1.733-.8c.14-.07.15-.11.15-.149a.1.1,0,0,0-.11-.1c-.01,0-.5.09-1.993.389l-.229-1.874c-.02-.179-.03-.219-.119-.219s-.11.05-.13.219l-.219,1.874-1.843-.369a1.04,1.04,0,0,0-.15-.02.1.1,0,0,0-.11.1c0,.079.05.1.16.149l1.734.8-.927,1.654c-.06.12-.07.13-.07.16a.11.11,0,0,0,.11.109c.02,0,.05,0,.149-.109Z" transform="translate(-0.289 -1.578)"/>
    <path class="cls-3" d="M36.7,140.9a3.864,3.864,0,0,0-.169.876c0,.34.159.659.548.659.318,0,1-.239,1.325-1.305.02-.07.04-.109.13-.109.029,0,.119,0,.119.1,0,.248-.568,1.533-1.594,1.533a1.1,1.1,0,0,1-1.076-.755,1.328,1.328,0,0,1-1.046.755c-.439,0-.937-.2-.937-.656a.565.565,0,0,1,.548-.578.342.342,0,0,1,.369.348.567.567,0,0,1-.469.539.964.964,0,0,0,.5.129c.439,0,.787-.418.947-1.035a14.473,14.473,0,0,0,.538-2.374c0-.576-.348-.666-.538-.666-.339,0-1,.249-1.335,1.305-.02.09-.05.11-.13.11-.02,0-.119,0-.119-.1,0-.25.568-1.535,1.6-1.535a1.1,1.1,0,0,1,1.076.758,1.291,1.291,0,0,1,1.046-.758c.339,0,.927.14.927.658a.556.556,0,0,1-.538.578.348.348,0,0,1-.379-.35.579.579,0,0,1,.478-.537.98.98,0,0,0-.5-.129c-.7,0-.926.916-.986,1.176Z" transform="translate(-0.289 -1.578)"/>
  </g>
</svg>
