<svg id="Layer_1" data-name="Layer 1" xmlns="http://www.w3.org/2000/svg" viewBox="0 0 134.645 36.283">
  <defs>
    <style>
      .cls-1 {
        fill: none;
        stroke: #000;
        stroke-miterlimit: 10;
        stroke-width: 0.85px;
      }

      .cls-2 {
        fill: #1d1d1b;
      }
    </style>
  </defs>
  <title>discretetimesystem</title>
  <g>
    <polygon class="cls-1" points="35.433 18.142 35.433 35.858 99.212 35.858 99.212 0.425 35.433 0.425 35.433 18.142"/>
    <g>
      <path class="cls-2" d="M42.28,7.613a3.27,3.27,0,0,1,3.049,3.458,3.2,3.2,0,0,1-3.049,3.347H38.633v-.309h.239c.767,0,.787-.109.787-.468V8.39c0-.358-.02-.468-.787-.468h-.239V7.613Zm-.269,6.5a2.183,2.183,0,0,0,1.773-.846,3.417,3.417,0,0,0,.549-2.192,3.848,3.848,0,0,0-.519-2.222A2.147,2.147,0,0,0,42,7.922H41c-.468,0-.488.07-.488.4v5.391c0,.329.02.4.488.4Z"/>
      <path class="cls-2" d="M47.659,13.671c0,.389.04.438.7.438v.309c-.338-.009-.687-.029-1.036-.029-.239,0-.777.02-1.1.029v-.309c.668,0,.777,0,.777-.448v-2.68c0-.488-.089-.548-.737-.548v-.309l1.395-.11Zm-.488-4.862a.531.531,0,0,1-.528-.528.538.538,0,0,1,.528-.529.529.529,0,0,1,0,1.057Z"/>
      <path class="cls-2" d="M49.422,12.027a1.061,1.061,0,0,1-.428-.847c0-.558.379-1.225,1.594-1.225a1.542,1.542,0,0,1,.937.278,1.268,1.268,0,0,0,.169-.159c.13-.119.15-.119.2-.119.109,0,.109.069.109.239V11.2c0,.189,0,.239-.129.239-.02,0-.11,0-.12-.089a1.1,1.1,0,0,0-1.166-1.206c-.857,0-1.116.408-1.116.757,0,.578.668.707,1.226.817a2.029,2.029,0,0,1,1.135.478,1.286,1.286,0,0,1,.419.947c0,.717-.458,1.385-1.6,1.385a1.488,1.488,0,0,1-1.1-.428,2.252,2.252,0,0,0-.2.229c-.19.189-.2.2-.249.2-.11,0-.11-.07-.11-.239V12.974c0-.18,0-.249.13-.249.1,0,.109.04.139.169.189.847.548,1.415,1.385,1.415.777,0,1.126-.4,1.126-.907,0-.717-.817-.877-1.037-.917A2.608,2.608,0,0,1,49.422,12.027Z"/>
      <path class="cls-2" d="M55.171,14.279a1.3,1.3,0,0,0,1.3-1.046c.02-.06.04-.1.129-.1.031,0,.13,0,.13.1a1.638,1.638,0,0,1-1.654,1.3,2.2,2.2,0,0,1-2.142-2.262A2.232,2.232,0,0,1,55.1,9.955c.767,0,1.524.388,1.524,1.066a.458.458,0,1,1-.916.01.45.45,0,0,1,.468-.459,1.625,1.625,0,0,0-1.066-.368c-.528,0-1.345.418-1.345,2.042C53.766,13.851,54.643,14.279,55.171,14.279Z"/>
      <path class="cls-2" d="M59.923,10.014a.68.68,0,0,1,.738.608.419.419,0,0,1-.429.439.413.413,0,0,1-.428-.429.429.429,0,0,1,.229-.388c-.02-.011-.04-.011-.11-.011-.757,0-1.175.888-1.175,1.874v1.534c0,.359.02.468.757.468h.209v.309c-.4-.029-.867-.029-1.265-.029-.28,0-.748.02-1.136.029v-.309c.667,0,.777,0,.777-.448v-2.67c0-.489-.08-.558-.777-.558v-.309l1.385-.11v1.1A1.4,1.4,0,0,1,59.923,10.014Z"/>
      <path class="cls-2" d="M62.343,13.611a1.343,1.343,0,0,0,1.126.668,1.4,1.4,0,0,0,1.345-1.027c.02-.079.04-.139.13-.139a.116.116,0,0,1,.13.12,1.7,1.7,0,0,1-1.664,1.3,2.25,2.25,0,0,1-2.193-2.3A2.178,2.178,0,0,1,63.29,9.955a1.767,1.767,0,0,1,1.784,1.953c0,.209-.031.209-.25.209h-2.78A2.9,2.9,0,0,0,62.343,13.611Zm2.073-1.7c0-.389-.1-1.734-1.126-1.734-.339,0-1.176.249-1.235,1.734Z"/>
      <path class="cls-2" d="M67.1,13.2c0,.169,0,1.076.668,1.076.368,0,.667-.379.667-1.116v-.548h.249v.568c0,.638-.279,1.345-.986,1.345a1.205,1.205,0,0,1-1.286-1.345v-2.75h-.846v-.219c.976-.04,1.275-1.107,1.285-1.923H67.1v1.833h1.425v.309H67.1Z"/>
      <path class="cls-2" d="M70.652,13.611a1.34,1.34,0,0,0,1.126.668,1.4,1.4,0,0,0,1.345-1.027c.02-.079.04-.139.13-.139a.115.115,0,0,1,.129.12,1.7,1.7,0,0,1-1.664,1.3,2.249,2.249,0,0,1-2.192-2.3A2.177,2.177,0,0,1,71.6,9.955a1.767,1.767,0,0,1,1.783,1.953c0,.209-.029.209-.249.209H70.354A2.906,2.906,0,0,0,70.652,13.611Zm2.073-1.7c0-.389-.1-1.734-1.126-1.734-.339,0-1.176.249-1.236,1.734Z"/>
      <path class="cls-2" d="M73.79,12.555v-.578h2.641v.578Z"/>
      <path class="cls-2" d="M78.731,13.2c0,.169,0,1.076.668,1.076.369,0,.667-.379.667-1.116v-.548h.249v.568c0,.638-.278,1.345-.986,1.345a1.205,1.205,0,0,1-1.285-1.345v-2.75H77.2v-.219c.977-.04,1.276-1.107,1.285-1.923h.249v1.833h1.425v.309H78.731Z"/>
      <path class="cls-2" d="M82.646,13.671c0,.389.041.438.7.438v.309c-.339-.009-.688-.029-1.036-.029-.24,0-.778.02-1.1.029v-.309c.667,0,.777,0,.777-.448v-2.68c0-.488-.09-.548-.737-.548v-.309l1.394-.11Zm-.488-4.862a.532.532,0,0,1-.528-.528.539.539,0,0,1,.528-.529.529.529,0,1,1,0,1.057Z"/>
      <path class="cls-2" d="M83.972,10.433v-.309l1.4-.11v1.047a1.571,1.571,0,0,1,1.475-1.047,1.18,1.18,0,0,1,1.325.977,1.578,1.578,0,0,1,1.445-.977,1.332,1.332,0,0,1,1.046.369c.309.359.309.668.309,1.525v1.9c.009.3.259.3.777.3v.309c-.339-.009-.857-.029-1.116-.029s-.777.02-1.126.029v-.309c.668,0,.777,0,.777-.448V11.339c0-.568-.109-1.106-.737-1.106a1.456,1.456,0,0,0-1.345,1.595v1.833c0,.448.109.448.777.448v.309c-.338-.009-.857-.029-1.116-.029s-.777.02-1.126.029v-.309c.668,0,.778,0,.778-.448V11.339c0-.568-.11-1.106-.738-1.106a1.456,1.456,0,0,0-1.345,1.595v1.833c0,.448.11.448.777.448v.309c-.339-.009-.857-.029-1.116-.029s-.777.02-1.125.029v-.309c.667,0,.776,0,.776-.448v-2.67C84.748,10.5,84.669,10.433,83.972,10.433Z"/>
    </g>
    <path class="cls-2" d="M93.314,13.611a1.34,1.34,0,0,0,1.126.668,1.4,1.4,0,0,0,1.345-1.027c.02-.079.04-.139.13-.139a.115.115,0,0,1,.129.12,1.7,1.7,0,0,1-1.664,1.3,2.249,2.249,0,0,1-2.192-2.3,2.177,2.177,0,0,1,2.073-2.272,1.767,1.767,0,0,1,1.783,1.953c0,.209-.029.209-.249.209H93.016A2.906,2.906,0,0,0,93.314,13.611Zm2.073-1.7c0-.389-.1-1.734-1.126-1.734-.339,0-1.176.249-1.236,1.734Z"/>
    <path class="cls-2" d="M112.412,13.475a2.627,2.627,0,0,1-2.331,2.033.943.943,0,0,1-1.057-.867.575.575,0,0,1,.559-.647.338.338,0,0,1,.368.348.536.536,0,0,1-.2.408.569.569,0,0,1-.429.12.806.806,0,0,0,.758.419,1.427,1.427,0,0,0,1.1-.628,3.821,3.821,0,0,0,.647-1.535,1.4,1.4,0,0,1-1.006.449,1.111,1.111,0,0,1-1.215-1.186,6.562,6.562,0,0,1,.578-2.092,2.129,2.129,0,0,0,.169-.7c0-.319-.169-.319-.249-.319-.339,0-.738.3-1.006,1.236-.05.159-.061.179-.16.179-.02,0-.12,0-.12-.1s.369-1.535,1.316-1.535a.79.79,0,0,1,.816.817,1.788,1.788,0,0,1-.2.718,5.934,5.934,0,0,0-.508,1.953c0,.368.11.807.618.807a1.383,1.383,0,0,0,1.125-.847l.45-1.794c.059-.269.129-.538.2-.8.039-.179.119-.488.139-.538a.431.431,0,0,1,.349-.209.266.266,0,0,1,.289.269.622.622,0,0,1-.04.229Z"/>
    <path class="cls-2" d="M114.983,15.957V5.992h1.366v.4h-.967v9.167h.967v.4Z"/>
    <path class="cls-2" d="M118.021,10.576a3.273,3.273,0,0,0,.159-.837c0-.329-.11-.459-.309-.459-.359,0-.558.479-.727,1.186-.06.22-.071.229-.17.229-.02,0-.12,0-.12-.1a5.058,5.058,0,0,1,.3-.967.871.871,0,0,1,.747-.568.9.9,0,0,1,.917.867,1.926,1.926,0,0,1,1.555-.867,1.019,1.019,0,0,1,1.146,1.066,8.969,8.969,0,0,1-.608,2.192,1.9,1.9,0,0,0-.18.708c0,.229.07.329.24.329.488,0,.816-.558,1.015-1.236.051-.149.051-.179.151-.179.029,0,.119,0,.119.1,0,.079-.369,1.534-1.306,1.534a.8.8,0,0,1-.816-.817,1.148,1.148,0,0,1,.1-.459,9.454,9.454,0,0,0,.648-2.321c0-.329-.09-.7-.538-.7a1.983,1.983,0,0,0-1.624,1.216c-.01.04-.09.329-.13.5-.05.23-.109.449-.169.668l-.22.9c-.059.249-.178.717-.189.737a.408.408,0,0,1-.368.279.266.266,0,0,1-.289-.269c0-.05.059-.279.089-.429Z"/>
    <path class="cls-2" d="M124.149,15.957h-1.365v-.4h.967V6.391h-.967v-.4h1.365Z"/>
    <polyline points="130.11 23.953 134.645 21.685 130.11 19.417 131.243 21.685"/>
    <line class="cls-1" x1="99.212" y1="21.685" x2="131.243" y2="21.685"/>
    <g>
      <path class="cls-2" d="M56.569,25.768a2,2,0,0,1-1.963,2.072,2.5,2.5,0,0,1-1.834-.7c-.328.528-.358.558-.358.568-.07.109-.08.129-.15.129-.109,0-.109-.069-.109-.238V25.608c0-.179,0-.249.129-.249a.1.1,0,0,1,.12.1,2.018,2.018,0,0,0,.617,1.534,2.407,2.407,0,0,0,1.575.538,1.366,1.366,0,0,0,1.335-1.425,1.454,1.454,0,0,0-.309-.917,1.325,1.325,0,0,0-.847-.507c-.7-.169-1.206-.289-1.315-.329A1.93,1.93,0,0,1,54.1,20.6a2.051,2.051,0,0,1,1.594.7l.349-.568c.069-.12.079-.129.149-.129.11,0,.11.069.11.239v2c0,.189,0,.239-.13.239-.109,0-.109-.059-.119-.119-.06-.448-.28-2.083-1.944-2.083a1.3,1.3,0,0,0-.308,2.571l1.275.309A2.039,2.039,0,0,1,56.569,25.768Z"/>
      <path class="cls-2" d="M59.517,28.527c-.239.569-.647,1.137-1.275,1.137a.871.871,0,0,1-.917-.808.419.419,0,1,1,.448.41.684.684,0,0,0,.469.178c.637,0,.916-.687,1.135-1.235.061-.13.2-.458.25-.588l-1.5-3.637c-.139-.348-.329-.348-.807-.348v-.31c.3.021.7.03.967.03.169,0,.827-.019,1.085-.03v.31c-.189,0-.557,0-.557.259a.566.566,0,0,0,.059.179l1.106,2.68L60.992,24.3a.467.467,0,0,0,.06-.24c0-.249-.16-.417-.469-.427v-.31c.22.011.688.03.867.03.229,0,.518-.009.747-.03v.31a.938.938,0,0,0-.926.637Z"/>
      <path class="cls-2" d="M63.153,25.229a1.059,1.059,0,0,1-.428-.846c0-.558.379-1.226,1.594-1.226a1.532,1.532,0,0,1,.937.28,1.43,1.43,0,0,0,.169-.161c.13-.119.15-.119.2-.119.109,0,.109.07.109.239V24.4c0,.19,0,.24-.13.24a.106.106,0,0,1-.119-.09,1.1,1.1,0,0,0-1.166-1.2c-.857,0-1.116.408-1.116.757,0,.578.668.708,1.226.817a2.029,2.029,0,0,1,1.135.478,1.284,1.284,0,0,1,.419.947c0,.717-.458,1.384-1.6,1.384a1.486,1.486,0,0,1-1.1-.427,2.817,2.817,0,0,0-.2.228c-.189.19-.2.2-.249.2-.109,0-.109-.069-.109-.239V26.177c0-.18,0-.25.129-.25.1,0,.11.04.14.17.189.846.548,1.415,1.385,1.415.777,0,1.126-.4,1.126-.908,0-.716-.817-.876-1.036-.916A2.6,2.6,0,0,1,63.153,25.229Z"/>
      <path class="cls-2" d="M68.055,26.405c0,.17,0,1.076.668,1.076.368,0,.667-.378.667-1.116v-.548h.249v.569c0,.637-.279,1.344-.987,1.344a1.2,1.2,0,0,1-1.285-1.344v-2.75h-.846v-.22c.976-.04,1.275-1.105,1.285-1.923h.249v1.833h1.424v.31H68.055Z"/>
      <path class="cls-2" d="M71.612,26.814a1.339,1.339,0,0,0,1.126.667,1.4,1.4,0,0,0,1.345-1.026c.02-.079.04-.14.13-.14a.116.116,0,0,1,.129.121,1.7,1.7,0,0,1-1.664,1.294,2.248,2.248,0,0,1-2.192-2.3,2.178,2.178,0,0,1,2.073-2.272,1.767,1.767,0,0,1,1.783,1.953c0,.209-.029.209-.249.209h-2.78A2.9,2.9,0,0,0,71.612,26.814Zm2.073-1.7c0-.388-.1-1.734-1.126-1.734-.339,0-1.176.25-1.236,1.734Z"/>
      <path class="cls-2" d="M74.958,23.636v-.31l1.405-.109v1.047a1.572,1.572,0,0,1,1.475-1.047,1.179,1.179,0,0,1,1.325.976,1.577,1.577,0,0,1,1.445-.976,1.325,1.325,0,0,1,1.046.369c.309.358.309.667.309,1.524v1.9c.011.3.26.3.777.3v.308c-.339-.01-.856-.03-1.116-.03s-.776.02-1.126.03v-.308c.668,0,.777,0,.777-.449V24.542c0-.567-.109-1.105-.737-1.105a1.454,1.454,0,0,0-1.345,1.593v1.834c0,.449.11.449.778.449v.308c-.339-.01-.858-.03-1.117-.03s-.777.02-1.125.03v-.308c.667,0,.777,0,.777-.449V24.542c0-.567-.11-1.105-.737-1.105a1.455,1.455,0,0,0-1.346,1.593v1.834c0,.449.11.449.777.449v.308c-.339-.01-.856-.03-1.116-.03s-.776.02-1.126.03v-.308c.668,0,.777,0,.777-.449V24.193C75.735,23.705,75.656,23.636,74.958,23.636Z"/>
    </g>
    <path class="cls-2" d="M12.063,11.821a3.877,3.877,0,0,0-.17.877c0,.339.159.658.548.658.319,0,1-.239,1.325-1.306.02-.07.04-.109.13-.109.03,0,.12,0,.12.1,0,.249-.569,1.534-1.6,1.534a1.1,1.1,0,0,1-1.076-.757,1.325,1.325,0,0,1-1.046.757c-.439,0-.937-.2-.937-.658a.567.567,0,0,1,.548-.578.342.342,0,0,1,.369.349.565.565,0,0,1-.468.538.954.954,0,0,0,.5.13c.438,0,.787-.419.946-1.037a14.471,14.471,0,0,0,.538-2.371c0-.578-.348-.668-.538-.668-.338,0-1,.25-1.335,1.306-.02.089-.05.109-.129.109-.02,0-.12,0-.12-.1,0-.249.568-1.535,1.6-1.535a1.1,1.1,0,0,1,1.077.757A1.287,1.287,0,0,1,13.4,9.061c.339,0,.927.14.927.658a.556.556,0,0,1-.538.578.347.347,0,0,1-.378-.349.579.579,0,0,1,.478-.538.974.974,0,0,0-.5-.13c-.7,0-.927.917-.987,1.176Z"/>
    <path class="cls-2" d="M15.89,15.957V5.992h1.365v.4h-.967v9.167h.967v.4Z"/>
    <path class="cls-2" d="M18.926,10.576a3.2,3.2,0,0,0,.16-.837c0-.329-.11-.459-.309-.459-.359,0-.558.479-.727,1.186-.06.22-.07.229-.17.229-.02,0-.119,0-.119-.1a4.983,4.983,0,0,1,.3-.967.87.87,0,0,1,.747-.568.9.9,0,0,1,.917.867,1.924,1.924,0,0,1,1.554-.867,1.019,1.019,0,0,1,1.146,1.066,8.969,8.969,0,0,1-.608,2.192,1.9,1.9,0,0,0-.179.708c0,.229.07.329.239.329.488,0,.817-.558,1.016-1.236.05-.149.05-.179.15-.179.029,0,.119,0,.119.1,0,.079-.369,1.534-1.3,1.534a.8.8,0,0,1-.817-.817,1.136,1.136,0,0,1,.1-.459,9.5,9.5,0,0,0,.647-2.321c0-.329-.09-.7-.538-.7A1.981,1.981,0,0,0,19.624,10.5c-.01.04-.09.329-.13.5-.05.23-.109.449-.169.668l-.219.9c-.06.249-.18.717-.189.737a.409.409,0,0,1-.369.279.266.266,0,0,1-.289-.269c0-.05.06-.279.09-.429Z"/>
    <path class="cls-2" d="M25.056,15.957H23.691v-.4h.966V6.391h-.966v-.4h1.365Z"/>
    <polyline points="30.897 20.409 35.433 18.142 30.897 15.874 32.031 18.142"/>
    <line class="cls-1" y1="18.142" x2="32.031" y2="18.142"/>
  </g>
</svg>
