<?xml version="1.0" encoding="utf-8"?>
<!-- Generator: Adobe Illustrator 22.1.0, SVG Export Plug-In . SVG Version: 6.00 Build 0)  -->
<svg version="1.1" id="Layer_1" xmlns="http://www.w3.org/2000/svg" xmlns:xlink="http://www.w3.org/1999/xlink" x="0px" y="0px"
	 viewBox="0 0 365.6 119.7" style="enable-background:new 0 0 365.6 119.7;" xml:space="preserve">
<style type="text/css">
	.st0{fill:none;stroke:#000000;stroke-width:0.8504;stroke-miterlimit:10;}
	.st1{fill:none;stroke:#000000;stroke-width:0.8504;stroke-linecap:round;stroke-miterlimit:10;stroke-dasharray:0,3.6973;}
	.st2{fill:none;stroke:#000000;stroke-width:0.8504;stroke-linecap:round;stroke-miterlimit:10;stroke-dasharray:0,3.6863;}
</style>
<g>
	<g>
		<path d="M3,35.1c-0.1,0.4-0.2,0.7-0.2,0.9c0,0.3,0.2,0.7,0.5,0.7c0.3,0,1-0.2,1.3-1.3c0-0.1,0-0.1,0.1-0.1c0,0,0.1,0,0.1,0.1
			c0,0.2-0.6,1.5-1.6,1.5c-0.6,0-1-0.4-1.1-0.8c0,0.1-0.4,0.8-1,0.8c-0.4,0-0.9-0.2-0.9-0.7c0-0.3,0.2-0.6,0.5-0.6
			c0.1,0,0.4,0.1,0.4,0.3c0,0.3-0.2,0.5-0.5,0.5c0.2,0.1,0.4,0.1,0.5,0.1c0.4,0,0.8-0.4,0.9-1c0.4-1.4,0.5-2.1,0.5-2.4
			c0-0.6-0.3-0.7-0.5-0.7c-0.3,0-1,0.2-1.3,1.3c0,0.1-0.1,0.1-0.1,0.1c0,0-0.1,0-0.1-0.1c0-0.2,0.6-1.5,1.6-1.5
			c0.3,0,0.8,0.1,1.1,0.8c0.1-0.2,0.5-0.8,1-0.8c0.3,0,0.9,0.1,0.9,0.7c0,0.4-0.3,0.6-0.5,0.6c-0.3,0-0.4-0.2-0.4-0.3
			c0-0.2,0.2-0.5,0.5-0.5c-0.2-0.1-0.4-0.1-0.5-0.1c-0.7,0-0.9,0.9-1,1.2L3,35.1z"/>
	</g>
	<g>
		<path d="M6.8,39.2v-10h1.4v0.4h-1v9.2h1v0.4H6.8z"/>
	</g>
	<g>
		<path d="M9.9,33.8C10,33.3,10,33.2,10,33c0-0.3-0.1-0.5-0.3-0.5c-0.4,0-0.6,0.5-0.7,1.2C8.9,33.9,8.9,34,8.8,34c0,0-0.1,0-0.1-0.1
			c0,0,0.1-0.6,0.3-1c0.1-0.2,0.3-0.6,0.7-0.6c0.5,0,0.9,0.3,0.9,0.9c0.2-0.2,0.7-0.9,1.6-0.9c0.7,0,1.1,0.4,1.1,1.1
			c0,0.6-0.4,1.7-0.6,2.2c-0.1,0.2-0.2,0.5-0.2,0.7c0,0.2,0.1,0.3,0.2,0.3c0.5,0,0.8-0.6,1-1.2c0-0.1,0-0.2,0.1-0.2
			c0,0,0.1,0,0.1,0.1c0,0.1-0.4,1.5-1.3,1.5c-0.5,0-0.8-0.3-0.8-0.8c0-0.1,0-0.2,0.1-0.5c0.2-0.4,0.6-1.7,0.6-2.3
			c0-0.3-0.1-0.7-0.5-0.7c-0.9,0-1.5,0.9-1.6,1.2c0,0-0.1,0.3-0.1,0.5c0,0.2-0.1,0.4-0.2,0.7L10,35.8c-0.1,0.2-0.2,0.7-0.2,0.7
			c-0.1,0.2-0.2,0.3-0.4,0.3c-0.1,0-0.3-0.1-0.3-0.3c0-0.1,0.1-0.3,0.1-0.4L9.9,33.8z"/>
	</g>
	<g>
		<path d="M16,39.2h-1.4v-0.4h1v-9.2h-1v-0.4H16V39.2z"/>
	</g>
	<g>
		<path d="M352.7,86.3c-0.3,1.1-1.3,2-2.3,2c-0.6,0-1.1-0.4-1.1-0.9c0-0.5,0.3-0.6,0.6-0.6c0.1,0,0.4,0,0.4,0.3
			c0,0.2-0.1,0.3-0.2,0.4c-0.1,0.1-0.3,0.1-0.4,0.1c0.2,0.4,0.6,0.4,0.8,0.4c0.5,0,0.8-0.3,1.1-0.6c0.4-0.5,0.5-1,0.6-1.5
			c-0.3,0.3-0.6,0.4-1,0.4c-0.6,0-1.2-0.3-1.2-1.2c0-0.5,0.2-1,0.6-2.1c0.1-0.2,0.2-0.4,0.2-0.7c0-0.3-0.2-0.3-0.2-0.3
			c-0.3,0-0.7,0.3-1,1.2c0,0.2-0.1,0.2-0.2,0.2c0,0-0.1,0-0.1-0.1c0-0.1,0.4-1.5,1.3-1.5c0.5,0,0.8,0.4,0.8,0.8c0,0.2,0,0.3-0.2,0.7
			c-0.3,0.9-0.5,1.5-0.5,2c0,0.4,0.1,0.8,0.6,0.8c0.7,0,1.1-0.7,1.1-0.8l0.4-1.8c0.1-0.3,0.1-0.5,0.2-0.8c0-0.2,0.1-0.5,0.1-0.5
			c0.1-0.2,0.2-0.2,0.3-0.2c0.1,0,0.3,0.1,0.3,0.3c0,0.1,0,0.1,0,0.2L352.7,86.3z"/>
	</g>
	<g>
		<path d="M355.3,88.8v-10h1.4v0.4h-1v9.2h1v0.4H355.3z"/>
	</g>
	<g>
		<path d="M358.3,83.4c0.1-0.5,0.2-0.6,0.2-0.8c0-0.3-0.1-0.5-0.3-0.5c-0.4,0-0.6,0.5-0.7,1.2c-0.1,0.2-0.1,0.2-0.2,0.2
			c0,0-0.1,0-0.1-0.1c0,0,0.1-0.6,0.3-1c0.1-0.2,0.3-0.6,0.7-0.6c0.5,0,0.9,0.3,0.9,0.9c0.2-0.2,0.7-0.9,1.6-0.9
			c0.7,0,1.1,0.4,1.1,1.1c0,0.6-0.4,1.7-0.6,2.2c-0.1,0.2-0.2,0.5-0.2,0.7c0,0.2,0.1,0.3,0.2,0.3c0.5,0,0.8-0.6,1-1.2
			c0.1-0.2,0.1-0.2,0.2-0.2c0,0,0.1,0,0.1,0.1c0,0.1-0.4,1.5-1.3,1.5c-0.5,0-0.8-0.3-0.8-0.8c0-0.1,0-0.2,0.1-0.5
			c0.2-0.4,0.6-1.7,0.6-2.3c0-0.3-0.1-0.7-0.5-0.7c-0.9,0-1.5,0.9-1.6,1.2c0,0-0.1,0.3-0.1,0.5c0,0.2-0.1,0.4-0.2,0.7l-0.2,0.9
			c-0.1,0.3-0.2,0.7-0.2,0.7c-0.1,0.2-0.2,0.3-0.4,0.3c-0.1,0-0.3-0.1-0.3-0.3c0-0.1,0.1-0.3,0.1-0.4L358.3,83.4z"/>
	</g>
	<g>
		<path d="M364.4,88.8h-1.4v-0.4h1v-9.2h-1v-0.4h1.4V88.8z"/>
	</g>
	<polyline points="202.2,43.6 206.7,41.3 202.2,39 203.3,41.3 	"/>
	<line class="st0" x1="178.4" y1="41.3" x2="203.3" y2="41.3"/>
	<g>
		<path d="M220.4,43.9c0,0.1,0,0.2,0,0.2c0,0.2,0.1,0.2,0.4,0.2c0.3,0,0.4,0,0.6,0c0.3,0,0.3,0,0.3,0.1c0,0.2-0.1,0.2-0.2,0.2
			c-0.3,0-0.6,0-0.9,0c-0.3,0-0.5,0-0.8,0c-0.3,0-0.6,0-0.8,0c-0.3,0-0.5,0-0.8,0c-0.1,0-0.2,0-0.2-0.1c0-0.2,0.1-0.2,0.4-0.2
			c1.1,0,1.1-0.1,1.2-0.5l1.3-5.3c0,0,0-0.1,0-0.2c0-0.1,0-0.1-0.3-0.1h-0.4c-1.5,0-1.7,0.2-2.3,1.7c-0.1,0.2-0.1,0.2-0.2,0.2
			c-0.1,0-0.1,0-0.1-0.1c0,0,0-0.2,0.1-0.2l0.6-1.8c0.1-0.2,0.1-0.2,0.3-0.2h5.5c0.2,0,0.3,0,0.3,0.1c0,0,0,0.1,0,0.2l-0.3,1.7
			c0,0.1,0,0.2-0.1,0.2c-0.1,0-0.1-0.1-0.1-0.1c0,0,0-0.1,0-0.2c0-0.3,0.1-0.6,0.1-0.8c0-0.8-0.4-0.8-1.5-0.8c-0.2,0-0.5,0-0.6,0
			c-0.1,0-0.2,0.1-0.2,0.4L220.4,43.9z"/>
	</g>
	<polygon class="st0" points="206.7,41.3 206.7,27.1 235.1,27.1 235.1,55.5 206.7,55.5 	"/>
	<polyline points="258.9,43.6 263.4,41.3 258.9,39 260,41.3 	"/>
	<line class="st0" x1="235.1" y1="41.3" x2="260" y2="41.3"/>
	<g>
		<path d="M277.1,43.9c0,0.1,0,0.2,0,0.2c0,0.2,0.1,0.2,0.4,0.2c0.3,0,0.4,0,0.6,0c0.3,0,0.3,0,0.3,0.1c0,0.2-0.1,0.2-0.2,0.2
			c-0.3,0-0.6,0-0.9,0c-0.3,0-0.5,0-0.8,0c-0.3,0-0.6,0-0.8,0c-0.3,0-0.5,0-0.8,0c-0.1,0-0.2,0-0.2-0.1c0-0.2,0.1-0.2,0.4-0.2
			c1.1,0,1.1-0.1,1.2-0.5l1.3-5.3c0,0,0-0.1,0-0.2c0-0.1,0-0.1-0.3-0.1H277c-1.5,0-1.7,0.2-2.3,1.7c-0.1,0.2-0.1,0.2-0.2,0.2
			c-0.1,0-0.1,0-0.1-0.1c0,0,0-0.2,0.1-0.2l0.6-1.8c0.1-0.2,0.1-0.2,0.3-0.2h5.5c0.2,0,0.3,0,0.3,0.1c0,0,0,0.1,0,0.2l-0.3,1.7
			c0,0.1,0,0.2-0.1,0.2c-0.1,0-0.1-0.1-0.1-0.1c0,0,0-0.1,0-0.2c0-0.3,0.1-0.6,0.1-0.8c0-0.8-0.4-0.8-1.5-0.8c-0.2,0-0.5,0-0.6,0
			c-0.1,0-0.2,0.1-0.2,0.4L277.1,43.9z"/>
	</g>
	<path class="st0" d="M263.4,41.3V27.1h28.3v28.3h-28.3V41.3z M291.8,41.3h14.2 M192.7,41.3v42.5"/>
	<polyline points="303.8,72.2 306.1,76.7 308.4,72.2 306.1,73.3 	"/>
	<line class="st0" x1="306.1" y1="41.3" x2="306.1" y2="73.3"/>
	<polyline points="247.1,72.2 249.4,76.7 251.7,72.2 249.4,73.3 	"/>
	<path class="st0" d="M249.4,41.3l0,32 M256.7,83.6L256.7,83.6c0-4-3.3-7.3-7.3-7.3c-4,0-7.3,3.3-7.3,7.3s3.3,7.3,7.3,7.3
		C253.4,90.9,256.7,87.7,256.7,83.6L256.7,83.6z M245.9,83.8h7.1 M249.4,87.4v-7.1"/>
	<polyline points="237.8,86.1 242.3,83.8 237.8,81.5 238.9,83.8 	"/>
	<path class="st0" d="M192.7,83.8h46.2 M313.4,83.6L313.4,83.6c0-4-3.3-7.3-7.3-7.3s-7.3,3.3-7.3,7.3s3.3,7.3,7.3,7.3
		S313.4,87.7,313.4,83.6L313.4,83.6z M302.6,83.8h7.1 M306.1,87.4v-7.1"/>
	<polyline points="294.5,86.1 299,83.8 294.5,81.5 295.6,83.8 	"/>
	<line class="st0" x1="256.5" y1="83.8" x2="295.6" y2="83.8"/>
	<polyline points="337,86.1 341.5,83.8 337,81.5 338.1,83.8 	"/>
	<line class="st0" x1="313.2" y1="83.8" x2="338.1" y2="83.8"/>
	<polygon class="st1" points="185.5,59 185.5,98 320.1,98 320.1,20 185.5,20 	"/>
	<g>
		<path d="M242.9,104c0.4-0.5,0.8-0.8,1.5-0.8c0.7,0,1.1,0.4,1.1,1.1c0,0.6-0.4,1.8-0.6,2.2c-0.1,0.2-0.2,0.5-0.2,0.7
			c0,0.2,0.1,0.3,0.2,0.3c0.5,0,0.9-0.7,1-1.2c0-0.2,0-0.2,0.1-0.2c0,0,0.1,0,0.1,0.1c0,0.1-0.4,1.5-1.3,1.5c-0.5,0-0.8-0.3-0.8-0.8
			c0-0.2,0-0.3,0.1-0.5c0.2-0.6,0.6-1.7,0.6-2.2c0-0.4-0.1-0.7-0.5-0.7s-0.7,0.2-1,0.3c-0.3,0.3-0.6,0.8-0.7,0.9
			c0,0.1-0.1,0.4-0.1,0.4c0,0.2-0.1,0.4-0.2,0.7l-0.2,0.9l-0.2,0.8c0,0.1-0.2,0.3-0.4,0.3c-0.1,0-0.3,0-0.3-0.3c0-0.1,0-0.1,0-0.2
			l1.4-5.7l0-0.2c0-0.1,0-0.2-0.5-0.2c-0.1,0-0.2,0-0.2-0.1c0-0.2,0.1-0.2,0.2-0.2c0.3,0,1-0.1,1.2-0.1c0.1,0,0.1,0.1,0.1,0.1
			L242.9,104z"/>
	</g>
	<g>
		<path d="M248.9,108.5c0,0.2,0,0.3,0.7,0.3h0.3v0.3c-0.2,0-1,0-1.2,0c-0.3,0-1.1,0-1.2,0v-0.3h0.3c0.7,0,0.7-0.1,0.7-0.3v-3.6
			c-0.4,0.2-0.8,0.2-1,0.2v-0.3c0.3,0,0.9,0,1.4-0.4c0.2,0,0.2,0,0.2,0.2V108.5z"/>
	</g>
	<g>
		<path d="M254.1,106.8c0.2,0,0.9,0,0.9-0.1c0.1-0.2,0.2-0.6,0.2-0.9h0.2l-0.3,1.7h-3.7c0-0.2,0-0.3,0.1-0.4l1.9-2.1
			c0.5-0.6,1-1.4,1-2.2c0-0.8-0.4-1.6-1.3-1.6c-0.6,0-1.1,0.4-1.3,1c0,0,0,0,0.1,0c0.3,0,0.5,0.3,0.5,0.5c0,0.4-0.3,0.5-0.5,0.5
			c0,0-0.5,0-0.5-0.6c0-0.9,0.7-1.8,1.9-1.8c1.2,0,2.1,0.8,2.1,1.9c0,1-0.6,1.5-2.2,2.9l-1.1,1H254.1z"/>
	</g>
	<g>
		<path d="M257.5,104.7c0.1-0.5,0.2-0.6,0.2-0.8c0-0.3-0.1-0.5-0.3-0.5c-0.4,0-0.6,0.5-0.7,1.2c-0.1,0.2-0.1,0.2-0.2,0.2
			c0,0-0.1,0-0.1-0.1c0,0,0.1-0.6,0.3-1c0.1-0.2,0.3-0.6,0.7-0.6c0.5,0,0.9,0.3,0.9,0.9c0.2-0.2,0.7-0.9,1.6-0.9
			c0.7,0,1.1,0.4,1.1,1.1c0,0.6-0.4,1.7-0.6,2.2c-0.1,0.2-0.2,0.5-0.2,0.7c0,0.2,0.1,0.3,0.2,0.3c0.5,0,0.8-0.6,1-1.2
			c0.1-0.2,0.1-0.2,0.2-0.2c0,0,0.1,0,0.1,0.1c0,0.1-0.4,1.5-1.3,1.5c-0.5,0-0.8-0.3-0.8-0.8c0-0.1,0-0.2,0.1-0.5
			c0.2-0.4,0.6-1.7,0.6-2.3c0-0.3-0.1-0.7-0.5-0.7c-0.9,0-1.5,0.9-1.6,1.2c0,0-0.1,0.3-0.1,0.5c0,0.2-0.1,0.4-0.2,0.7l-0.2,0.9
			c-0.1,0.3-0.2,0.7-0.2,0.7c-0.1,0.2-0.2,0.3-0.4,0.3c-0.1,0-0.3-0.1-0.3-0.3c0-0.1,0.1-0.3,0.1-0.4L257.5,104.7z"/>
	</g>
	<g>
		<path d="M263.6,110.1h-1.4v-0.4h1v-9.2h-1v-0.4h1.4V110.1z"/>
	</g>
	<line class="st0" x1="178.6" y1="83.8" x2="178.6" y2="41.3"/>
	<polygon class="st2" points="22.6,66.1 22.6,119.2 327.4,119.2 327.4,12.9 22.6,12.9 	"/>
	<g>
		<path d="M165.1,4.7c0.4-0.5,0.8-0.8,1.5-0.8c0.7,0,1.1,0.4,1.1,1.1c0,0.6-0.4,1.8-0.6,2.2c-0.1,0.2-0.2,0.5-0.2,0.7
			c0,0.2,0.1,0.3,0.2,0.3c0.5,0,0.9-0.7,1-1.2c0-0.1,0-0.2,0.1-0.2c0,0,0.1,0,0.1,0.1c0,0.1-0.4,1.5-1.3,1.5c-0.5,0-0.8-0.3-0.8-0.8
			c0-0.2,0-0.3,0.1-0.5c0.2-0.6,0.6-1.7,0.6-2.2c0-0.4-0.1-0.7-0.5-0.7c-0.4,0-0.7,0.2-1,0.3c-0.3,0.3-0.6,0.8-0.7,0.9
			c0,0.1-0.1,0.4-0.1,0.4c0,0.2-0.1,0.4-0.2,0.7l-0.2,0.9l-0.2,0.8c0,0.1-0.2,0.3-0.4,0.3c-0.1,0-0.3,0-0.3-0.3c0-0.1,0-0.1,0-0.2
			l1.4-5.7l0-0.2c0-0.1,0-0.2-0.5-0.2c-0.1,0-0.2,0-0.2-0.1c0-0.2,0.1-0.2,0.2-0.2c0.3,0,1-0.1,1.2-0.1c0.1,0,0.1,0.1,0.1,0.1
			L165.1,4.7z"/>
	</g>
	<g>
		<path d="M169.9,10.9v-10h1.4v0.4h-1v9.2h1v0.4H169.9z"/>
	</g>
	<g>
		<path d="M173,5.5c0.1-0.5,0.2-0.6,0.2-0.8c0-0.3-0.1-0.5-0.3-0.5c-0.4,0-0.6,0.5-0.7,1.2c-0.1,0.2-0.1,0.2-0.2,0.2
			c0,0-0.1,0-0.1-0.1c0,0,0.1-0.6,0.3-1c0.1-0.2,0.3-0.6,0.7-0.6c0.5,0,0.9,0.3,0.9,0.9c0.2-0.2,0.7-0.9,1.6-0.9
			c0.7,0,1.1,0.4,1.1,1.1c0,0.6-0.4,1.7-0.6,2.2c-0.1,0.2-0.2,0.5-0.2,0.7c0,0.2,0.1,0.3,0.2,0.3c0.5,0,0.8-0.6,1-1.2
			c0-0.1,0-0.2,0.1-0.2c0,0,0.1,0,0.1,0.1c0,0.1-0.4,1.5-1.3,1.5c-0.5,0-0.8-0.3-0.8-0.8c0-0.1,0-0.2,0.1-0.5
			c0.2-0.4,0.6-1.7,0.6-2.3c0-0.3-0.1-0.7-0.5-0.7c-0.9,0-1.5,0.9-1.6,1.2c0,0-0.1,0.3-0.1,0.5c0,0.2-0.1,0.4-0.2,0.7l-0.2,0.9
			c-0.1,0.2-0.2,0.7-0.2,0.7c-0.1,0.2-0.2,0.3-0.4,0.3c-0.1,0-0.3-0.1-0.3-0.3c0-0.1,0.1-0.3,0.1-0.4L173,5.5z"/>
	</g>
	<g>
		<path d="M179.1,10.9h-1.4v-0.4h1V1.3h-1V0.9h1.4V10.9z"/>
	</g>
	<polygon class="st1" points="29.7,59 29.7,98 164.4,98 164.4,20 29.7,20 	"/>
	<polyline points="46.5,43.6 51,41.3 46.5,39 47.6,41.3 	"/>
	<line class="st0" x1="8.5" y1="41.3" x2="47.6" y2="41.3"/>
	<g>
		<path d="M64.7,43.9c0,0.1,0,0.2,0,0.2c0,0.2,0.1,0.2,0.4,0.2c0.3,0,0.4,0,0.6,0c0.3,0,0.3,0,0.3,0.1c0,0.2-0.1,0.2-0.2,0.2
			c-0.3,0-0.6,0-0.9,0c-0.3,0-0.5,0-0.8,0c-0.3,0-0.6,0-0.8,0c-0.3,0-0.5,0-0.8,0c-0.1,0-0.2,0-0.2-0.1c0-0.2,0.1-0.2,0.4-0.2
			c1.1,0,1.1-0.1,1.2-0.5l1.3-5.3c0,0,0-0.1,0-0.2c0-0.1,0-0.1-0.3-0.1h-0.4c-1.5,0-1.7,0.2-2.3,1.7c-0.1,0.2-0.1,0.2-0.2,0.2
			c-0.1,0-0.1,0-0.1-0.1c0,0,0-0.2,0.1-0.2l0.6-1.8c0.1-0.2,0.1-0.2,0.3-0.2h5.5c0.2,0,0.3,0,0.3,0.1c0,0,0,0.1,0,0.2l-0.3,1.7
			c0,0.1,0,0.2-0.1,0.2c-0.1,0-0.1-0.1-0.1-0.1c0,0,0-0.1,0-0.2c0-0.3,0.1-0.6,0.1-0.8c0-0.8-0.4-0.8-1.5-0.8c-0.2,0-0.5,0-0.6,0
			c-0.1,0-0.2,0.1-0.2,0.4L64.7,43.9z"/>
	</g>
	<polygon class="st0" points="51,41.3 51,27.1 79.3,27.1 79.3,55.5 51,55.5 	"/>
	<polyline points="103.2,43.6 107.7,41.3 103.2,39 104.3,41.3 	"/>
	<line class="st0" x1="79.3" y1="41.3" x2="104.3" y2="41.3"/>
	<g>
		<path d="M121.4,43.9c0,0.1,0,0.2,0,0.2c0,0.2,0.1,0.2,0.4,0.2c0.3,0,0.4,0,0.6,0c0.3,0,0.3,0,0.3,0.1c0,0.2-0.1,0.2-0.2,0.2
			c-0.3,0-0.6,0-0.9,0c-0.3,0-0.5,0-0.8,0c-0.3,0-0.6,0-0.8,0c-0.3,0-0.5,0-0.8,0c-0.1,0-0.2,0-0.2-0.1c0-0.2,0.1-0.2,0.4-0.2
			c1.1,0,1.1-0.1,1.2-0.5l1.3-5.3c0,0,0-0.1,0-0.2c0-0.1,0-0.1-0.3-0.1h-0.4c-1.5,0-1.7,0.2-2.3,1.7c-0.1,0.2-0.1,0.2-0.2,0.2
			c-0.1,0-0.1,0-0.1-0.1c0,0,0-0.2,0.1-0.2l0.6-1.8c0.1-0.2,0.1-0.2,0.3-0.2h5.5c0.2,0,0.3,0,0.3,0.1c0,0,0,0.1,0,0.2l-0.3,1.7
			c0,0.1,0,0.2-0.1,0.2c-0.1,0-0.1-0.1-0.1-0.1c0,0,0-0.1,0-0.2c0-0.3,0.1-0.6,0.1-0.8c0-0.8-0.4-0.8-1.5-0.8c-0.2,0-0.5,0-0.6,0
			c-0.1,0-0.2,0.1-0.2,0.4L121.4,43.9z"/>
	</g>
	<path class="st0" d="M107.7,41.3V27.1H136v28.3h-28.3V41.3z M136,41.3h14.2 M37,41.3v42.5"/>
	<polyline points="148.1,72.2 150.4,76.7 152.6,72.2 150.4,73.3 	"/>
	<line class="st0" x1="150.4" y1="41.3" x2="150.4" y2="73.3"/>
	<polyline points="91.4,72.2 93.7,76.7 96,72.2 93.7,73.3 	"/>
	<path class="st0" d="M93.7,41.3v32 M100.9,83.6L100.9,83.6c0-4-3.3-7.3-7.3-7.3c-4,0-7.3,3.3-7.3,7.3s3.3,7.3,7.3,7.3
		C97.7,90.9,100.9,87.7,100.9,83.6L100.9,83.6z M90.1,83.8h7.1 M93.7,87.4v-7.1"/>
	<polyline points="82.1,86.1 86.6,83.8 82.1,81.5 83.2,83.8 	"/>
	<path class="st0" d="M37,83.8h46.2 M157.6,83.6L157.6,83.6c0-4-3.3-7.3-7.3-7.3c-4,0-7.3,3.3-7.3,7.3s3.3,7.3,7.3,7.3
		C154.4,90.9,157.6,87.7,157.6,83.6L157.6,83.6z M146.8,83.8h7.1 M150.4,87.4v-7.1"/>
	<polyline points="138.8,86.1 143.3,83.8 138.8,81.5 139.9,83.8 	"/>
	<path class="st0" d="M100.8,83.8h39.1 M157.5,83.8h21.3"/>
	<g>
		<path d="M88.2,104c0.4-0.5,0.8-0.8,1.5-0.8c0.7,0,1.1,0.4,1.1,1.1c0,0.6-0.4,1.8-0.6,2.2c-0.1,0.2-0.2,0.5-0.2,0.7
			c0,0.2,0.1,0.3,0.2,0.3c0.5,0,0.9-0.7,1-1.2c0-0.2,0-0.2,0.1-0.2c0,0,0.1,0,0.1,0.1c0,0.1-0.4,1.5-1.3,1.5c-0.5,0-0.8-0.3-0.8-0.8
			c0-0.2,0-0.3,0.1-0.5c0.2-0.6,0.6-1.7,0.6-2.2c0-0.4-0.1-0.7-0.5-0.7c-0.4,0-0.7,0.2-1,0.3c-0.3,0.3-0.6,0.8-0.7,0.9
			c0,0.1-0.1,0.4-0.1,0.4c0,0.2-0.1,0.4-0.2,0.7l-0.2,0.9l-0.2,0.8c0,0.1-0.2,0.3-0.4,0.3c-0.1,0-0.3,0-0.3-0.3c0-0.1,0-0.1,0-0.2
			l1.4-5.7l0-0.2c0-0.1,0-0.2-0.5-0.2c-0.1,0-0.2,0-0.2-0.1c0-0.2,0.1-0.2,0.2-0.2c0.3,0,1-0.1,1.2-0.1c0.1,0,0.1,0.1,0.1,0.1
			L88.2,104z"/>
	</g>
	<g>
		<path d="M94.2,108.5c0,0.2,0,0.3,0.7,0.3h0.3v0.3c-0.2,0-1,0-1.2,0c-0.3,0-1.1,0-1.2,0v-0.3H93c0.7,0,0.7-0.1,0.7-0.3v-3.6
			c-0.4,0.2-0.8,0.2-1,0.2v-0.3c0.3,0,0.9,0,1.4-0.4c0.2,0,0.2,0,0.2,0.2V108.5z"/>
	</g>
	<g>
		<path d="M97.5,110.1v-10h1.4v0.4h-1v9.2h1v0.4H97.5z"/>
	</g>
	<g>
		<path d="M100.5,104.7c0.1-0.5,0.2-0.6,0.2-0.8c0-0.3-0.1-0.5-0.3-0.5c-0.4,0-0.6,0.5-0.7,1.2c-0.1,0.2-0.1,0.2-0.2,0.2
			c0,0-0.1,0-0.1-0.1c0,0,0.1-0.6,0.3-1c0.1-0.2,0.3-0.6,0.7-0.6c0.5,0,0.9,0.3,0.9,0.9c0.2-0.2,0.7-0.9,1.6-0.9
			c0.7,0,1.1,0.4,1.1,1.1c0,0.6-0.4,1.7-0.6,2.2c-0.1,0.2-0.2,0.5-0.2,0.7c0,0.2,0.1,0.3,0.2,0.3c0.5,0,0.8-0.6,1-1.2
			c0-0.2,0-0.2,0.1-0.2c0,0,0.1,0,0.1,0.1c0,0.1-0.4,1.5-1.3,1.5c-0.5,0-0.8-0.3-0.8-0.8c0-0.1,0-0.2,0.1-0.5
			c0.2-0.4,0.6-1.7,0.6-2.3c0-0.3-0.1-0.7-0.5-0.7c-0.9,0-1.5,0.9-1.6,1.2c0,0-0.1,0.3-0.1,0.5c0,0.2-0.1,0.4-0.2,0.7l-0.2,0.9
			c-0.1,0.3-0.2,0.7-0.2,0.7c-0.1,0.2-0.2,0.3-0.4,0.3c-0.1,0-0.3-0.1-0.3-0.3c0-0.1,0.1-0.3,0.1-0.4L100.5,104.7z"/>
	</g>
	<g>
		<path d="M106.7,110.1h-1.4v-0.4h1v-9.2h-1v-0.4h1.4V110.1z"/>
	</g>
</g>
</svg>
