<?xml version="1.0" encoding="utf-8"?>
<!-- Generator: Adobe Illustrator 22.1.0, SVG Export Plug-In . SVG Version: 6.00 Build 0)  -->
<svg version="1.1" id="Layer_1" xmlns="http://www.w3.org/2000/svg" xmlns:xlink="http://www.w3.org/1999/xlink" x="0px" y="0px"
	 viewBox="0 0 389.2 271.1" style="enable-background:new 0 0 389.2 271.1;" xml:space="preserve">
<style type="text/css">
	.st0{fill:#1D1D1B;}
	.st1{fill:none;stroke:#000000;stroke-width:0.8504;stroke-miterlimit:10;}
	.st2{fill:#0000FF;}
	.st3{fill:#FF0000;}
	.st4{fill:#00FF00;}
	.st5{fill:none;stroke:#0000FF;stroke-width:0.8504;stroke-miterlimit:10;}
	.st6{fill:none;stroke:#FF0000;stroke-width:0.8504;stroke-miterlimit:10;}
	.st7{fill:none;stroke:#00FF00;stroke-width:0.8504;stroke-miterlimit:10;}
</style>
<g>
	<g>
		<path class="st0" d="M46.8,6c0.4-0.5,0.8-0.8,1.5-0.8c0.7,0,1.1,0.4,1.1,1.1c0,0.6-0.4,1.8-0.6,2.2c-0.1,0.2-0.2,0.5-0.2,0.7
			c0,0.2,0.1,0.3,0.2,0.3c0.5,0,0.9-0.7,1-1.2c0-0.1,0-0.2,0.1-0.2c0,0,0.1,0,0.1,0.1c0,0.1-0.4,1.5-1.3,1.5c-0.5,0-0.8-0.3-0.8-0.8
			c0-0.2,0-0.3,0.1-0.5c0.2-0.6,0.6-1.7,0.6-2.2c0-0.4-0.1-0.7-0.5-0.7c-0.4,0-0.7,0.2-1,0.3C47,6,46.7,6.6,46.6,6.7
			c0,0.1-0.1,0.4-0.1,0.4c0,0.2-0.1,0.4-0.2,0.7l-0.2,0.9l-0.2,0.8c0,0.1-0.2,0.3-0.4,0.3c-0.1,0-0.3,0-0.3-0.3c0-0.1,0-0.1,0-0.2
			l1.4-5.7l0-0.2c0-0.1,0-0.2-0.5-0.2c-0.1,0-0.2,0-0.2-0.1c0-0.2,0.1-0.2,0.2-0.2c0.3,0,1-0.1,1.2-0.1c0.1,0,0.1,0.1,0.1,0.1
			L46.8,6z"/>
	</g>
	<g>
		<path class="st0" d="M51.7,12.1v-10H53v0.4h-1v9.2h1v0.4H51.7z"/>
	</g>
	<g>
		<path class="st0" d="M55.1,7c0.4-0.1,0.8-0.5,1.1-0.9c0.7-0.8,1.2-0.9,1.5-0.9c0.4,0,0.7,0.3,0.7,0.6c0,0.4-0.3,0.6-0.5,0.6
			c-0.3,0-0.4-0.2-0.4-0.3c0-0.1,0.1-0.5,0.6-0.5c0,0,0,0,0,0c-0.1-0.1-0.1-0.1-0.2-0.1c0,0,0,0-0.1,0c-0.5,0-0.9,0.4-1.4,1
			c-0.2,0.2-0.5,0.6-0.9,0.7c0.8,0.1,1.5,0.4,1.5,1c0,0.1,0,0.1,0,0.3c0,0.2-0.1,0.4-0.1,0.6c0,0.4,0.1,0.5,0.3,0.5
			c0.4,0,0.7-0.5,0.9-1.2c0-0.1,0-0.2,0.1-0.2c0,0,0.1,0,0.1,0.1c0,0-0.1,0.6-0.4,1c-0.2,0.4-0.5,0.5-0.8,0.5c-0.5,0-0.9-0.4-0.9-1
			c0-0.1,0-0.2,0-0.3c0-0.1,0-0.1,0-0.2c0-0.7-0.8-0.8-1.2-0.8c-0.1,0.2-0.5,2.1-0.6,2.2c-0.1,0.1-0.2,0.2-0.3,0.2
			c-0.1,0-0.3,0-0.3-0.3c0-0.1,0-0.1,0-0.2l1.4-5.7l0-0.2c0-0.1,0-0.2-0.5-0.2c-0.1,0-0.2,0-0.2-0.1c0-0.2,0.1-0.2,0.2-0.2
			c0.3,0,1-0.1,1.2-0.1c0.1,0,0.1,0.1,0.1,0.1L55.1,7z"/>
	</g>
	<g>
		<path class="st0" d="M60.4,12.1H59v-0.4h1V2.5h-1V2.1h1.4V12.1z"/>
	</g>
	<g>
		<path class="st0" d="M264.9,194.7c-0.3,1.1-1.3,2-2.3,2c-0.6,0-1.1-0.4-1.1-0.9c0-0.5,0.3-0.6,0.6-0.6c0.1,0,0.4,0,0.4,0.3
			c0,0.2-0.1,0.3-0.2,0.4c-0.1,0.1-0.3,0.1-0.4,0.1c0.2,0.4,0.6,0.4,0.8,0.4c0.5,0,0.8-0.3,1.1-0.6c0.4-0.5,0.5-1,0.6-1.5
			c-0.3,0.3-0.6,0.4-1,0.4c-0.6,0-1.2-0.3-1.2-1.2c0-0.5,0.2-1,0.6-2.1c0.1-0.2,0.2-0.4,0.2-0.7c0-0.3-0.2-0.3-0.2-0.3
			c-0.3,0-0.7,0.3-1,1.2c0,0.2-0.1,0.2-0.2,0.2c0,0-0.1,0-0.1-0.1c0-0.1,0.4-1.5,1.3-1.5c0.5,0,0.8,0.4,0.8,0.8c0,0.2,0,0.3-0.2,0.7
			c-0.3,0.9-0.5,1.5-0.5,2c0,0.4,0.1,0.8,0.6,0.8c0.7,0,1.1-0.7,1.1-0.8l0.4-1.8c0.1-0.3,0.1-0.5,0.2-0.8c0-0.2,0.1-0.5,0.1-0.5
			c0.1-0.1,0.2-0.2,0.3-0.2c0.1,0,0.3,0.1,0.3,0.3c0,0.1,0,0.1,0,0.2L264.9,194.7z"/>
	</g>
	<g>
		<path class="st0" d="M267.4,197.1v-10h1.4v0.4h-1v9.2h1v0.4H267.4z"/>
	</g>
	<g>
		<path class="st0" d="M270.5,191.8c0.1-0.5,0.2-0.6,0.2-0.8c0-0.3-0.1-0.5-0.3-0.5c-0.4,0-0.6,0.5-0.7,1.2
			c-0.1,0.2-0.1,0.2-0.2,0.2c0,0-0.1,0-0.1-0.1c0,0,0.1-0.6,0.3-1c0.1-0.2,0.3-0.6,0.7-0.6c0.5,0,0.9,0.3,0.9,0.9
			c0.2-0.2,0.7-0.9,1.6-0.9c0.7,0,1.1,0.4,1.1,1.1c0,0.6-0.4,1.7-0.6,2.2c-0.1,0.2-0.2,0.5-0.2,0.7c0,0.2,0.1,0.3,0.2,0.3
			c0.5,0,0.8-0.6,1-1.2c0.1-0.1,0.1-0.2,0.2-0.2c0,0,0.1,0,0.1,0.1c0,0.1-0.4,1.5-1.3,1.5c-0.5,0-0.8-0.3-0.8-0.8
			c0-0.1,0-0.2,0.1-0.5c0.2-0.4,0.6-1.7,0.6-2.3c0-0.3-0.1-0.7-0.5-0.7c-0.9,0-1.5,0.9-1.6,1.2c0,0-0.1,0.3-0.1,0.5
			c0,0.2-0.1,0.4-0.2,0.7l-0.2,0.9c-0.1,0.2-0.2,0.7-0.2,0.7c-0.1,0.2-0.2,0.3-0.4,0.3c-0.1,0-0.3-0.1-0.3-0.3c0,0,0.1-0.3,0.1-0.4
			L270.5,191.8z"/>
	</g>
	<g>
		<path class="st0" d="M276.6,197.1h-1.4v-0.4h1v-9.2h-1v-0.4h1.4V197.1z"/>
		<path class="st0" d="M281.3,191.4c-0.1,0-0.3,0-0.3-0.2c0-0.2,0.2-0.2,0.3-0.2h6c0.1,0,0.3,0,0.3,0.2c0,0.2-0.2,0.2-0.3,0.2H281.3
			z M281.3,193.3c-0.1,0-0.3,0-0.3-0.2s0.2-0.2,0.3-0.2h5.9c0.1,0,0.3,0,0.3,0.2s-0.2,0.2-0.3,0.2H281.3z"/>
	</g>
	<g>
		<path class="st0" d="M291.5,187.4c0-0.3,0-0.3,0.3-0.3h8.3l0.9,2.3h-0.2c-0.7-1.9-3-1.9-4.1-1.9h-3.9l3.2,4.4
			c0.1,0.1,0.1,0.1,0.1,0.1c0,0,0,0.1-0.1,0.2l-3.5,4.3h4.2c1.5,0,2.2-0.2,2.3-0.3c0.8-0.3,1.5-0.9,1.8-1.6h0.2l-0.9,2.5h-8.3
			c-0.2,0-0.3,0-0.3-0.1c0,0,0-0.1,0.1-0.2l3.5-4.4L291.5,187.4z"/>
	</g>
	<g>
		<path class="st0" d="M303.1,187.3c-0.1,0-0.2,0-0.2-0.1c0-0.1,0.1-0.1,0.1-0.1c0,0,0,0,0.2,0c0.3,0,0.5,0,0.8-0.3
			c0.2-0.2,0.3-0.5,0.3-0.8c0-0.6-0.4-0.8-0.8-0.8c-0.3,0-0.7,0.1-1,0.4c0.2,0,0.4,0.2,0.4,0.4c0,0.2-0.1,0.4-0.4,0.4
			c-0.2,0-0.4-0.1-0.4-0.4c0-0.6,0.6-0.9,1.4-0.9c0.8,0,1.4,0.4,1.4,1c0,0.4-0.3,0.9-1,1.2c0.8,0.2,1.2,0.7,1.2,1.2
			c0,0.7-0.7,1.3-1.6,1.3c-0.8,0-1.6-0.4-1.6-1.1c0-0.3,0.2-0.4,0.4-0.4c0.2,0,0.4,0.2,0.4,0.4c0,0.1-0.1,0.4-0.4,0.4
			c0.3,0.4,0.9,0.5,1.2,0.5c0.4,0,0.9-0.3,0.9-1.1c0-0.7-0.4-1.1-0.9-1.1H303.1z"/>
	</g>
	<g>
		<path class="st0" d="M303,195.8c0.3-0.1,0.5-0.3,0.8-0.6c0.4-0.3,0.7-0.6,1.1-0.6c0.4,0,0.5,0.3,0.5,0.5c0,0.3-0.2,0.4-0.4,0.4
			c-0.2,0-0.3-0.1-0.3-0.3c0-0.1,0.1-0.3,0.4-0.4c-0.1-0.1-0.1-0.1-0.2-0.1c-0.4,0-0.7,0.3-1.1,0.7c-0.1,0.1-0.4,0.3-0.6,0.5
			c0.3,0,1.1,0.1,1.1,0.7c0,0.1,0,0.2,0,0.2c0,0.2,0,0.2,0,0.3c0,0.2,0.1,0.4,0.2,0.4c0.3,0,0.5-0.5,0.6-0.8c0-0.1,0-0.2,0.1-0.2
			c0,0,0.1,0,0.1,0.1c0,0-0.2,1.1-0.9,1.1c-0.3,0-0.7-0.2-0.7-0.7c0-0.1,0-0.1,0-0.2c0-0.1,0-0.1,0-0.1c0-0.4-0.4-0.5-0.9-0.6
			c0,0.1-0.3,1.3-0.3,1.4c0,0.2-0.1,0.3-0.3,0.3c-0.2,0-0.2-0.1-0.2-0.2c0,0,0,0,0-0.2l1-3.9c0-0.1,0-0.1,0-0.2c0-0.1,0-0.1-0.3-0.1
			c-0.1,0-0.2,0-0.2-0.1c0-0.1,0.1-0.2,0.2-0.2c0.2,0,0.8-0.1,0.9-0.1c0.1,0,0.1,0.1,0.1,0.1c0,0,0,0.1,0,0.1L303,195.8z"/>
	</g>
	<g>
		<path class="st0" d="M306.6,195.3c-0.1,0-0.3,0-0.3-0.2c0-0.2,0.2-0.2,0.3-0.2h4.6c0.1,0,0.3,0,0.3,0.2c0,0.2-0.2,0.2-0.3,0.2
			H306.6z M306.6,196.8c-0.1,0-0.3,0-0.3-0.2c0-0.2,0.2-0.2,0.3-0.2h4.6c0.1,0,0.3,0,0.3,0.2c0,0.2-0.2,0.2-0.3,0.2H306.6z"/>
		<path class="st0" d="M314,197.8c-1.6,0-1.6-1.9-1.6-2.4s0-2.4,1.6-2.4c0.6,0,1,0.3,1.2,0.6c0.3,0.5,0.4,1,0.4,1.8
			C315.6,195.9,315.6,197.8,314,197.8z M314.9,196.8c0.1-0.4,0.1-1,0.1-1.5c0-0.6,0-1.1-0.1-1.5c-0.1-0.4-0.5-0.6-0.9-0.6
			c-0.3,0-0.7,0.1-0.9,0.7c-0.1,0.4-0.1,0.9-0.1,1.4c0,0.5,0,1.1,0.1,1.5c0.1,0.6,0.6,0.8,0.9,0.8
			C314.2,197.6,314.7,197.4,314.9,196.8z"/>
	</g>
	<g>
		<path class="st0" d="M320.2,191c0.4-0.5,0.8-0.8,1.5-0.8c0.7,0,1.1,0.4,1.1,1.1c0,0.6-0.4,1.8-0.6,2.2c-0.1,0.2-0.2,0.5-0.2,0.7
			c0,0.2,0.1,0.3,0.2,0.3c0.5,0,0.9-0.7,1-1.2c0-0.1,0-0.2,0.1-0.2c0,0,0.1,0,0.1,0.1c0,0.1-0.4,1.5-1.3,1.5c-0.5,0-0.8-0.3-0.8-0.8
			c0-0.2,0-0.3,0.1-0.5c0.2-0.6,0.6-1.7,0.6-2.2c0-0.4-0.1-0.7-0.5-0.7s-0.7,0.2-1,0.3c-0.3,0.3-0.6,0.8-0.7,0.9
			c0,0.1-0.1,0.4-0.1,0.4c0,0.2-0.1,0.4-0.2,0.7l-0.2,0.9l-0.2,0.8c0,0.1-0.2,0.3-0.4,0.3c-0.1,0-0.3,0-0.3-0.3c0-0.1,0-0.1,0-0.2
			l1.4-5.7l0-0.2c0-0.1,0-0.2-0.5-0.2c-0.1,0-0.2,0-0.2-0.1c0-0.2,0.1-0.2,0.2-0.2c0.3,0,1-0.1,1.2-0.1c0.1,0,0.1,0.1,0.1,0.1
			L320.2,191z"/>
	</g>
	<g>
		<path class="st0" d="M325,197.1v-10h1.4v0.4h-1v9.2h1v0.4H325z"/>
	</g>
	<g>
		<path class="st0" d="M328.4,192c0.4-0.1,0.8-0.5,1.1-0.9c0.7-0.8,1.2-0.9,1.5-0.9c0.4,0,0.7,0.3,0.7,0.6c0,0.4-0.3,0.6-0.5,0.6
			c-0.3,0-0.4-0.2-0.4-0.3c0-0.1,0.1-0.5,0.6-0.5c0,0,0,0,0,0c-0.1-0.1-0.1-0.1-0.2-0.1c0,0,0,0-0.1,0c-0.5,0-0.9,0.4-1.4,1
			c-0.2,0.2-0.5,0.6-0.9,0.7c0.8,0.1,1.5,0.4,1.5,1c0,0.1,0,0.1,0,0.3c0,0.2-0.1,0.4-0.1,0.6c0,0.4,0.1,0.5,0.3,0.5
			c0.4,0,0.7-0.5,0.9-1.2c0-0.1,0-0.2,0.1-0.2c0,0,0.1,0,0.1,0.1c0,0-0.1,0.6-0.4,1c-0.2,0.4-0.5,0.5-0.8,0.5c-0.5,0-0.9-0.4-0.9-1
			c0-0.1,0-0.2,0-0.3c0-0.1,0-0.1,0-0.2c0-0.7-0.8-0.8-1.2-0.8c-0.1,0.3-0.5,2.1-0.6,2.2c-0.1,0.1-0.2,0.2-0.3,0.2
			c-0.1,0-0.3,0-0.3-0.3c0-0.1,0-0.1,0-0.2l1.4-5.7l0-0.2c0-0.1,0-0.2-0.5-0.2c-0.1,0-0.2,0-0.2-0.1c0-0.2,0.1-0.2,0.2-0.2
			c0.3,0,1-0.1,1.2-0.1c0.1,0,0.1,0.1,0.1,0.1L328.4,192z"/>
	</g>
	<g>
		<path class="st0" d="M333.7,197.1h-1.4v-0.4h1v-9.2h-1v-0.4h1.4V197.1z"/>
	</g>
	<g>
		<path class="st0" d="M337.9,193c-0.1,0.4-0.2,0.7-0.2,0.9c0,0.3,0.2,0.7,0.5,0.7c0.3,0,1-0.2,1.3-1.3c0-0.1,0-0.1,0.1-0.1
			c0,0,0.1,0,0.1,0.1c0,0.2-0.6,1.5-1.6,1.5c-0.6,0-1-0.4-1.1-0.8c0,0.1-0.4,0.8-1,0.8c-0.4,0-0.9-0.2-0.9-0.7
			c0-0.3,0.2-0.6,0.5-0.6c0.1,0,0.4,0.1,0.4,0.3c0,0.3-0.2,0.5-0.5,0.5c0.2,0.1,0.4,0.1,0.5,0.1c0.4,0,0.8-0.4,0.9-1
			c0.4-1.4,0.5-2.1,0.5-2.4c0-0.6-0.3-0.7-0.5-0.7c-0.3,0-1,0.2-1.3,1.3c0,0.1,0,0.1-0.1,0.1c0,0-0.1,0-0.1-0.1
			c0-0.3,0.6-1.5,1.6-1.5c0.3,0,0.8,0.1,1.1,0.8c0.1-0.2,0.5-0.8,1-0.8c0.3,0,0.9,0.1,0.9,0.7c0,0.4-0.3,0.6-0.5,0.6
			c-0.3,0-0.4-0.2-0.4-0.3c0-0.2,0.2-0.5,0.5-0.5c-0.2-0.1-0.4-0.1-0.5-0.1c-0.7,0-0.9,0.9-1,1.2L337.9,193z"/>
	</g>
	<g>
		<path class="st0" d="M341.7,197.1v-10h1.4v0.4h-1v9.2h1v0.4H341.7z"/>
	</g>
	<g>
		<path class="st0" d="M344.8,191.8c0.1-0.5,0.2-0.6,0.2-0.8c0-0.3-0.1-0.5-0.3-0.5c-0.4,0-0.6,0.5-0.7,1.2
			c-0.1,0.2-0.1,0.2-0.2,0.2c0,0-0.1,0-0.1-0.1c0,0,0.1-0.6,0.3-1c0.1-0.2,0.3-0.6,0.7-0.6c0.5,0,0.9,0.3,0.9,0.9
			c0.2-0.2,0.7-0.9,1.6-0.9c0.7,0,1.1,0.4,1.1,1.1c0,0.6-0.4,1.7-0.6,2.2c-0.1,0.2-0.2,0.5-0.2,0.7c0,0.2,0.1,0.3,0.2,0.3
			c0.5,0,0.8-0.6,1-1.2c0.1-0.1,0.1-0.2,0.2-0.2c0,0,0.1,0,0.1,0.1c0,0.1-0.4,1.5-1.3,1.5c-0.5,0-0.8-0.3-0.8-0.8
			c0-0.1,0-0.2,0.1-0.5c0.2-0.4,0.6-1.7,0.6-2.3c0-0.3-0.1-0.7-0.5-0.7c-0.9,0-1.5,0.9-1.6,1.2c0,0-0.1,0.3-0.1,0.5
			c0,0.2-0.1,0.4-0.2,0.7l-0.2,0.9c-0.1,0.2-0.2,0.7-0.2,0.7c-0.1,0.2-0.2,0.3-0.4,0.3c-0.1,0-0.3-0.1-0.3-0.3c0,0,0.1-0.3,0.1-0.4
			L344.8,191.8z"/>
	</g>
	<g>
		<path class="st0" d="M352.8,192.4c-0.2,0-0.3,0-0.3-0.2s0.2-0.2,0.3-0.2h5.4c0.2,0,0.3,0,0.3,0.2s-0.2,0.2-0.3,0.2H352.8z"/>
	</g>
	<g>
		<path class="st0" d="M363.4,192c0.4-0.1,0.8-0.5,1.1-0.9c0.7-0.8,1.2-0.9,1.5-0.9c0.4,0,0.7,0.3,0.7,0.6c0,0.4-0.3,0.6-0.5,0.6
			c-0.3,0-0.4-0.2-0.4-0.3c0-0.1,0.1-0.5,0.6-0.5c0,0,0,0,0,0c-0.1-0.1-0.1-0.1-0.2-0.1c0,0,0,0-0.1,0c-0.5,0-0.9,0.4-1.4,1
			c-0.2,0.2-0.5,0.6-0.9,0.7c0.8,0.1,1.5,0.4,1.5,1c0,0.1,0,0.1,0,0.3c0,0.2-0.1,0.4-0.1,0.6c0,0.4,0.1,0.5,0.3,0.5
			c0.4,0,0.7-0.5,0.9-1.2c0-0.1,0-0.2,0.1-0.2c0,0,0.1,0,0.1,0.1c0,0-0.1,0.6-0.4,1c-0.2,0.4-0.5,0.5-0.8,0.5c-0.5,0-0.9-0.4-0.9-1
			c0-0.1,0-0.2,0-0.3c0-0.1,0-0.1,0-0.2c0-0.7-0.8-0.8-1.2-0.8c-0.1,0.3-0.5,2.1-0.6,2.2c-0.1,0.1-0.2,0.2-0.3,0.2
			c-0.1,0-0.3,0-0.3-0.3c0-0.1,0-0.1,0-0.2l1.4-5.7l0-0.2c0-0.1,0-0.2-0.5-0.2c-0.1,0-0.2,0-0.2-0.1c0-0.2,0.1-0.2,0.2-0.2
			c0.3,0,1-0.1,1.2-0.1c0.1,0,0.1,0.1,0.1,0.1L363.4,192z"/>
	</g>
	<g>
		<path class="st0" d="M368.6,197.1h-1.4v-0.4h1v-9.2h-1v-0.4h1.4V197.1z"/>
	</g>
	<line class="st1" x1="248" y1="205.5" x2="255.1" y2="205.5"/>
	<g>
		<path class="st0" d="M237.5,204.4c1.1,0,2,1,2,2.2c0,1.3-0.9,2.3-2.1,2.3c-0.9,0-2.1-0.7-2.1-3.4c0-2.2,1.3-3.5,2.6-3.5
			c0.8,0,1.3,0.5,1.3,1.1c0,0.4-0.3,0.5-0.5,0.5c-0.2,0-0.5-0.1-0.5-0.5c0-0.4,0.4-0.4,0.5-0.4c-0.2-0.3-0.6-0.4-0.9-0.4
			c-0.5,0-1.7,0.4-1.7,2.9v0.2C236.5,204.9,236.8,204.4,237.5,204.4z M238.4,208c0.2-0.4,0.2-0.9,0.2-1.3c0-0.5,0-1-0.2-1.4
			c-0.3-0.6-0.8-0.6-0.9-0.6c-0.9,0-1.2,1-1.2,1.8c0,0.2,0,1,0.2,1.4c0.1,0.1,0.4,0.7,1,0.7C237.7,208.6,238.1,208.6,238.4,208z"/>
	</g>
	<polyline points="371.1,250.3 375.6,248 371.1,245.8 372.2,248 	"/>
	<line class="st1" x1="212.6" y1="248" x2="372.2" y2="248"/>
	<g>
		<path class="st0" d="M214.5,259.2c-0.2,0-0.3,0-0.3-0.2s0.2-0.2,0.3-0.2h5.4c0.2,0,0.3,0,0.3,0.2s-0.2,0.2-0.3,0.2H214.5z"/>
	</g>
	<g>
		<path class="st0" d="M224.2,260.7c0.2,0,0.9,0,0.9-0.1c0.1-0.1,0.2-0.6,0.2-0.9h0.2l-0.3,1.7h-3.7c0-0.2,0-0.3,0.1-0.4l1.9-2.1
			c0.5-0.6,1-1.4,1-2.2c0-0.8-0.4-1.6-1.3-1.6c-0.6,0-1.1,0.4-1.3,1c0,0,0,0,0.1,0c0.3,0,0.5,0.3,0.5,0.5c0,0.4-0.3,0.5-0.5,0.5
			c0,0-0.5,0-0.5-0.6c0-0.9,0.7-1.8,1.9-1.8c1.2,0,2.1,0.8,2.1,1.9c0,1-0.6,1.5-2.2,2.9l-1.1,1H224.2z"/>
	</g>
	<g>
		<path class="st0" d="M219.7,249.6c-1.1,0-1.9-0.9-1.9-1.9c0-1,0.9-1.9,1.9-1.9c1,0,1.9,0.9,1.9,1.9S220.7,249.6,219.7,249.6z"/>
	</g>
	<polyline points="250.3,188.8 248,184.3 245.8,188.8 248,187.7 	"/>
	<line class="st1" x1="248" y1="251.6" x2="248" y2="187.7"/>
	<g>
		<path class="st0" d="M233.8,249.6c-1.1,0-1.9-0.9-1.9-1.9c0-1,0.9-1.9,1.9-1.9c1,0,1.9,0.9,1.9,1.9S234.9,249.6,233.8,249.6z"/>
	</g>
	<g>
		<path class="st0" d="M333.1,249.6c-1.1,0-1.9-0.9-1.9-1.9c0-1,0.9-1.9,1.9-1.9c1,0,1.9,0.9,1.9,1.9S334.1,249.6,333.1,249.6z"/>
		<path class="st0" d="M347.2,249.6c-1.1,0-1.9-0.9-1.9-1.9c0-1,0.9-1.9,1.9-1.9c1,0,1.9,0.9,1.9,1.9S348.3,249.6,347.2,249.6z"/>
		<path class="st0" d="M361.4,249.6c-1.1,0-1.9-0.9-1.9-1.9c0-1,0.9-1.9,1.9-1.9c1,0,1.9,0.9,1.9,1.9S362.4,249.6,361.4,249.6z"/>
	</g>
	<g>
		<path class="st0" d="M228.7,259.2c-0.2,0-0.3,0-0.3-0.2s0.2-0.2,0.3-0.2h5.4c0.2,0,0.3,0,0.3,0.2s-0.2,0.2-0.3,0.2H228.7z"/>
	</g>
	<g>
		<path class="st0" d="M238.2,260.7c0,0.4,0,0.5,0.9,0.5h0.3v0.3c-0.3,0-1.2,0-1.6,0s-1.3,0-1.6,0v-0.3h0.3c0.9,0,0.9-0.1,0.9-0.5
			v-5.2c-0.5,0.3-1.1,0.3-1.3,0.3v-0.3c0.3,0,1.2,0,1.8-0.6c0.2,0,0.2,0,0.2,0.3V260.7z"/>
	</g>
	<g>
		<path class="st2" d="M249.8,260.9c-0.4,0.9-1.2,1.2-1.7,1.2c-0.5,0-1.2-0.2-1.6-1c-0.4-0.8-0.4-1.7-0.4-2.4c0-0.8,0-1.6,0.4-2.3
			c0.4-0.9,1.1-1.2,1.7-1.2c0.4,0,1.2,0.2,1.7,1.1c0.3,0.7,0.4,1.5,0.4,2.3C250.2,259.4,250.2,260.2,249.8,260.9z M249.3,260.6
			c0.1-0.6,0.1-1.3,0.1-2.1c0-0.6,0-1.4-0.1-1.9c-0.2-1-0.8-1.2-1.2-1.2c-0.2,0-1,0.1-1.2,1.3c-0.1,0.5-0.1,1.2-0.1,1.8
			c0,0.6,0,1.5,0.1,2.1c0.2,1,0.8,1.2,1.2,1.2C248.6,261.8,249.1,261.5,249.3,260.6z"/>
	</g>
	<g>
		<path class="st3" d="M262.7,261.1c0,0.4,0,0.5,0.9,0.5h0.3v0.3c-0.3,0-1.2,0-1.6,0s-1.3,0-1.6,0v-0.3h0.3c0.9,0,0.9-0.1,0.9-0.5
			v-5.2c-0.5,0.3-1.1,0.3-1.3,0.3v-0.3c0.3,0,1.2,0,1.8-0.6c0.2,0,0.2,0,0.2,0.3V261.1z"/>
	</g>
	<g>
		<path class="st4" d="M277,261.1c0.2,0,0.9,0,0.9-0.1c0.1-0.1,0.2-0.6,0.2-0.9h0.2l-0.3,1.7h-3.7c0-0.2,0-0.3,0.1-0.4l1.9-2.1
			c0.5-0.6,1-1.4,1-2.2c0-0.8-0.4-1.6-1.3-1.6c-0.6,0-1.1,0.4-1.3,1c0,0,0,0,0.1,0c0.3,0,0.5,0.3,0.5,0.5c0,0.4-0.3,0.5-0.5,0.5
			c0,0-0.5,0-0.5-0.6c0-0.9,0.7-1.8,1.9-1.8c1.2,0,2.1,0.8,2.1,1.9c0,1-0.6,1.5-2.2,2.9l-1.1,1H277z"/>
	</g>
	<g>
		<path class="st0" d="M292.7,260.1c0,1-0.9,1.9-2.1,1.9c-1.1,0-2-0.7-2-1.6c0-0.4,0.3-0.6,0.6-0.6c0.3,0,0.6,0.2,0.6,0.6
			c0,0.4-0.3,0.6-0.7,0.5c0.3,0.6,1.1,0.8,1.5,0.8c0.4,0,1.1-0.3,1.1-1.6c0-1-0.4-1.7-1.2-1.7H290c-0.2,0-0.2,0-0.2-0.1
			c0-0.1,0.1-0.1,0.1-0.1c0.1,0,0.3,0,0.4,0c0.2,0,0.6,0,0.9-0.5c0.3-0.4,0.3-1,0.3-1.1c0-0.9-0.5-1.1-1-1.1c-0.4,0-1,0.1-1.3,0.6
			c0.1,0,0.6,0,0.6,0.5c0,0.3-0.2,0.5-0.5,0.5c-0.3,0-0.5-0.2-0.5-0.5c0-0.8,0.8-1.4,1.8-1.4c1,0,1.8,0.6,1.8,1.4
			c0,0.8-0.6,1.5-1.4,1.8C292,258.5,292.7,259.3,292.7,260.1z"/>
		<path class="st0" d="M302.5,260.2v-0.3l3.1-4.7c0.1-0.1,0.1-0.1,0.2-0.1c0.2,0,0.2,0.1,0.2,0.3v4.5h1v0.3h-1v0.9
			c0,0.4,0,0.5,0.8,0.5h0.2v0.3c-0.4,0-0.9,0-1.4,0c-0.4,0-0.9,0-1.3,0v-0.3h0.2c0.7,0,0.8-0.1,0.8-0.5v-0.9H302.5z M305.2,256.2
			l-2.4,3.7h2.4V256.2z"/>
		<path class="st0" d="M318.7,262.1c-1.1,0-1.8-1-1.8-1.8c0-0.5,0.3-0.5,0.5-0.5c0.3,0,0.5,0.2,0.5,0.5c0,0.2-0.2,0.5-0.5,0.5
			c-0.1,0-0.1,0-0.2,0c0.2,0.6,0.7,1.1,1.5,1.1c0.5,0,0.8-0.3,1.1-0.6c0.2-0.4,0.2-1,0.2-1.4c0-0.5,0-0.9-0.2-1.3
			c-0.1-0.2-0.3-0.6-0.8-0.6c-0.8,0-1.2,0.5-1.3,0.7c0,0.1-0.1,0.1-0.1,0.1c-0.1,0-0.1-0.1-0.1-0.3v-2.9c0-0.2,0-0.2,0.1-0.2
			c0,0,0,0,0.1,0c0.5,0.2,0.9,0.3,1.3,0.3c0.7,0,1.2-0.2,1.4-0.3c0,0,0.1,0,0.1,0c0.1,0,0.1,0,0.1,0.1c0,0.1-0.7,1-1.9,1
			c-0.3,0-0.6-0.1-0.8-0.1v1.9c0.4-0.3,0.8-0.5,1.3-0.5c1.1,0,1.9,1,1.9,2.2C320.9,261.1,319.9,262.1,318.7,262.1z"/>
		<path class="st0" d="M333.1,257.6c1.1,0,2,1,2,2.2c0,1.3-0.9,2.3-2.1,2.3c-0.9,0-2.1-0.7-2.1-3.4c0-2.2,1.3-3.5,2.6-3.5
			c0.8,0,1.3,0.5,1.3,1.1c0,0.4-0.3,0.5-0.5,0.5c-0.2,0-0.5-0.1-0.5-0.5c0-0.4,0.4-0.4,0.5-0.4c-0.2-0.3-0.6-0.4-0.9-0.4
			c-0.5,0-1.7,0.4-1.7,2.9v0.2C332.1,258.1,332.5,257.6,333.1,257.6z M334.1,261.1c0.2-0.4,0.2-0.9,0.2-1.3c0-0.5,0-1-0.2-1.4
			c-0.3-0.6-0.8-0.6-0.9-0.6c-0.9,0-1.2,1-1.2,1.8c0,0.2,0,1,0.2,1.4c0.1,0.1,0.4,0.7,1,0.7C333.3,261.8,333.8,261.7,334.1,261.1z"
			/>
		<path class="st0" d="M348.1,257.7c-0.4,0.6-0.6,1.5-0.6,1.7c-0.1,0.5-0.1,1.1-0.1,1.6v0.5c0,0.1,0,0.5-0.5,0.5s-0.5-0.4-0.5-0.5
			c0-1,0.3-2.4,1.2-3.7c0.2-0.3,1-1.4,1.1-1.6h-2.1c-0.1,0-0.9,0-1,0.1c-0.1,0.1-0.2,0.7-0.3,0.9h-0.2l0.3-2.1h0.2
			c0,0.2,0.1,0.3,1.3,0.3h2.4c0,0.2,0,0.2-0.1,0.3L348.1,257.7z"/>
		<path class="st0" d="M363,258.9c0.4,0.4,0.5,0.9,0.5,1.2c0,1.1-0.9,1.9-2.1,1.9c-1,0-2.1-0.7-2.1-1.7c0-1,0.9-1.5,1.4-1.8
			c-0.2-0.2-0.6-0.4-0.7-0.5c-0.4-0.5-0.4-0.9-0.4-1.1c0-0.9,0.8-1.7,1.8-1.7c0.9,0,1.8,0.6,1.8,1.5c0,0.7-0.5,1.2-1.2,1.5
			C362.6,258.6,362.8,258.7,363,258.9z M359.8,260.3c0,0.8,0.7,1.4,1.6,1.4c0.8,0,1.6-0.5,1.6-1.3c0-0.6-0.5-0.9-0.7-1.1l-1.2-0.8
			C360.1,259.1,359.8,259.8,359.8,260.3z M361.7,258.1c0.6-0.3,1-0.8,1-1.4c0-0.7-0.6-1.2-1.4-1.2c-0.7,0-1.4,0.4-1.4,1
			c0,0.2,0,0.5,0.5,0.8L361.7,258.1z"/>
	</g>
	<g>
		<path class="st0" d="M384.7,247.3c0.1-0.5,0.2-0.6,0.2-0.8c0-0.3-0.1-0.5-0.3-0.5c-0.4,0-0.6,0.5-0.7,1.2
			c-0.1,0.2-0.1,0.2-0.2,0.2c0,0-0.1,0-0.1-0.1c0,0,0.1-0.6,0.3-1c0.1-0.2,0.3-0.6,0.7-0.6c0.5,0,0.9,0.3,0.9,0.9
			c0.2-0.2,0.7-0.9,1.6-0.9c0.7,0,1.1,0.4,1.1,1.1c0,0.6-0.4,1.7-0.6,2.2c-0.1,0.2-0.2,0.5-0.2,0.7c0,0.2,0.1,0.3,0.2,0.3
			c0.5,0,0.8-0.6,1-1.2c0.1-0.1,0.1-0.2,0.2-0.2c0,0,0.1,0,0.1,0.1c0,0.1-0.4,1.5-1.3,1.5c-0.5,0-0.8-0.3-0.8-0.8
			c0-0.1,0-0.2,0.1-0.5c0.2-0.4,0.6-1.7,0.6-2.3c0-0.3-0.1-0.7-0.5-0.7c-0.9,0-1.5,0.9-1.6,1.2c0,0-0.1,0.3-0.1,0.5
			c0,0.2-0.1,0.4-0.2,0.7l-0.2,0.9c-0.1,0.2-0.2,0.7-0.2,0.7c-0.1,0.2-0.2,0.3-0.4,0.3c-0.1,0-0.3-0.1-0.3-0.3c0,0,0.1-0.3,0.1-0.4
			L384.7,247.3z"/>
	</g>
	<path class="st1" d="M244.5,233.9h7.1 M244.5,219.7h7.1"/>
	<g>
		<path class="st0" d="M238,236.4c0.2,0,0.9,0,0.9-0.1c0.1-0.1,0.2-0.6,0.2-0.9h0.2l-0.3,1.7h-3.7c0-0.2,0-0.3,0.1-0.4l1.9-2.1
			c0.5-0.6,1-1.4,1-2.2c0-0.8-0.4-1.6-1.3-1.6c-0.6,0-1.1,0.4-1.3,1c0,0,0,0,0.1,0c0.3,0,0.5,0.3,0.5,0.5c0,0.4-0.3,0.5-0.5,0.5
			c0,0-0.5,0-0.5-0.6c0-0.9,0.7-1.8,1.9-1.8c1.2,0,2.1,0.8,2.1,1.9c0,1-0.6,1.5-2.2,2.9l-1.1,1H238z"/>
	</g>
	<g>
		<path class="st0" d="M235.2,221.2v-0.3l3.1-4.7c0.1-0.1,0.1-0.1,0.2-0.1c0.2,0,0.2,0.1,0.2,0.3v4.5h1v0.3h-1v0.9
			c0,0.4,0,0.5,0.8,0.5h0.2v0.3c-0.4,0-0.9,0-1.4,0c-0.4,0-0.9,0-1.3,0v-0.3h0.2c0.7,0,0.8-0.1,0.8-0.5v-0.9H235.2z M237.9,217.2
			l-2.4,3.7h2.4V217.2z"/>
	</g>
	<g>
		<path class="st0" d="M318.9,249.6c-1.1,0-1.9-0.9-1.9-1.9c0-1,0.9-1.9,1.9-1.9c1,0,1.9,0.9,1.9,1.9S320,249.6,318.9,249.6z"/>
	</g>
	<line class="st1" x1="290.5" y1="248" x2="290.5" y2="212.6"/>
	<g>
		<path class="st0" d="M290.6,214.2c-1.1,0-1.9-0.9-1.9-1.9c0-1,0.9-1.9,1.9-1.9c1,0,1.9,0.9,1.9,1.9S291.6,214.2,290.6,214.2z"/>
	</g>
	<line class="st1" x1="304.7" y1="248" x2="304.7" y2="226.8"/>
	<g>
		<path class="st0" d="M304.8,228.4c-1.1,0-1.9-0.9-1.9-1.9c0-1,0.9-1.9,1.9-1.9c1,0,1.9,0.9,1.9,1.9S305.8,228.4,304.8,228.4z"/>
	</g>
	<line class="st1" x1="262.2" y1="63.8" x2="262.2" y2="35.4"/>
	<g>
		<path class="st0" d="M262.3,37.1c-1.1,0-1.9-0.9-1.9-1.9c0-1,0.9-1.9,1.9-1.9c1,0,1.9,0.9,1.9,1.9
			C264.2,36.3,263.3,37.1,262.3,37.1z"/>
	</g>
	<line class="st1" x1="276.4" y1="63.8" x2="276.4" y2="21.3"/>
	<g>
		<path class="st0" d="M276.4,23c-1.1,0-1.9-0.9-1.9-1.9c0-1,0.9-1.9,1.9-1.9c1,0,1.9,0.9,1.9,1.9C278.4,22.1,277.5,23,276.4,23z"/>
	</g>
	<polyline points="371.1,66 375.6,63.8 371.1,61.5 372.2,63.8 	"/>
	<line class="st1" x1="212.6" y1="63.8" x2="372.2" y2="63.8"/>
	<g>
		<path class="st0" d="M214.5,74.9c-0.2,0-0.3,0-0.3-0.2c0-0.2,0.2-0.2,0.3-0.2h5.4c0.2,0,0.3,0,0.3,0.2c0,0.2-0.2,0.2-0.3,0.2
			H214.5z"/>
	</g>
	<g>
		<path class="st0" d="M224.2,76.4c0.2,0,0.9,0,0.9-0.1c0.1-0.1,0.2-0.6,0.2-0.9h0.2l-0.3,1.7h-3.7c0-0.2,0-0.3,0.1-0.4l1.9-2.1
			c0.5-0.6,1-1.4,1-2.2c0-0.8-0.4-1.6-1.3-1.6c-0.6,0-1.1,0.4-1.3,1c0,0,0,0,0.1,0c0.3,0,0.5,0.3,0.5,0.5c0,0.4-0.3,0.5-0.5,0.5
			c0,0-0.5,0-0.5-0.6c0-0.9,0.7-1.8,1.9-1.8c1.2,0,2.1,0.8,2.1,1.9c0,1-0.6,1.5-2.2,2.9l-1.1,1H224.2z"/>
	</g>
	<g>
		<path class="st0" d="M219.7,65.4c-1.1,0-1.9-0.9-1.9-1.9c0-1,0.9-1.9,1.9-1.9c1,0,1.9,0.9,1.9,1.9
			C221.6,64.6,220.7,65.4,219.7,65.4z"/>
	</g>
	<polyline points="250.3,4.5 248,0 245.8,4.5 248,3.4 	"/>
	<line class="st1" x1="248" y1="67.3" x2="248" y2="3.4"/>
	<g>
		<path class="st0" d="M233.8,65.4c-1.1,0-1.9-0.9-1.9-1.9c0-1,0.9-1.9,1.9-1.9c1,0,1.9,0.9,1.9,1.9
			C235.8,64.6,234.9,65.4,233.8,65.4z"/>
	</g>
	<g>
		<path class="st0" d="M333.1,65.4c-1.1,0-1.9-0.9-1.9-1.9c0-1,0.9-1.9,1.9-1.9c1,0,1.9,0.9,1.9,1.9C335,64.6,334.1,65.4,333.1,65.4
			z"/>
		<path class="st0" d="M347.2,65.4c-1.1,0-1.9-0.9-1.9-1.9c0-1,0.9-1.9,1.9-1.9c1,0,1.9,0.9,1.9,1.9
			C349.2,64.6,348.3,65.4,347.2,65.4z"/>
		<path class="st0" d="M361.4,65.4c-1.1,0-1.9-0.9-1.9-1.9c0-1,0.9-1.9,1.9-1.9c1,0,1.9,0.9,1.9,1.9
			C363.3,64.6,362.4,65.4,361.4,65.4z"/>
	</g>
	<g>
		<path class="st0" d="M228.7,74.9c-0.2,0-0.3,0-0.3-0.2c0-0.2,0.2-0.2,0.3-0.2h5.4c0.2,0,0.3,0,0.3,0.2c0,0.2-0.2,0.2-0.3,0.2
			H228.7z"/>
	</g>
	<g>
		<path class="st0" d="M238.2,76.4c0,0.4,0,0.5,0.9,0.5h0.3v0.3c-0.3,0-1.2,0-1.6,0s-1.3,0-1.6,0v-0.3h0.3c0.9,0,0.9-0.1,0.9-0.5
			v-5.2c-0.5,0.3-1.1,0.3-1.3,0.3v-0.3c0.3,0,1.2,0,1.8-0.6c0.2,0,0.2,0,0.2,0.3V76.4z"/>
	</g>
	<g>
		<path class="st0" d="M249.8,76.7c-0.4,0.9-1.2,1.2-1.7,1.2c-0.5,0-1.2-0.2-1.6-1c-0.4-0.8-0.4-1.7-0.4-2.4c0-0.8,0-1.6,0.4-2.3
			c0.4-0.9,1.1-1.2,1.7-1.2c0.4,0,1.2,0.2,1.7,1.1c0.3,0.7,0.4,1.5,0.4,2.3C250.2,75.2,250.2,76,249.8,76.7z M249.3,76.4
			c0.1-0.6,0.1-1.3,0.1-2.1c0-0.6,0-1.4-0.1-1.9c-0.2-1-0.8-1.2-1.2-1.2c-0.2,0-1,0.1-1.2,1.3c-0.1,0.5-0.1,1.2-0.1,1.8
			c0,0.6,0,1.5,0.1,2.1c0.2,1,0.8,1.2,1.2,1.2C248.6,77.6,249.1,77.3,249.3,76.4z"/>
		<path class="st0" d="M262.7,76.9c0,0.4,0,0.5,0.9,0.5h0.3v0.3c-0.3,0-1.2,0-1.6,0s-1.3,0-1.6,0v-0.3h0.3c0.9,0,0.9-0.1,0.9-0.5
			v-5.2c-0.5,0.3-1.1,0.3-1.3,0.3v-0.3c0.3,0,1.2,0,1.8-0.6c0.2,0,0.2,0,0.2,0.3V76.9z"/>
		<path class="st0" d="M277,76.9c0.2,0,0.9,0,0.9-0.1c0.1-0.1,0.2-0.6,0.2-0.9h0.2l-0.3,1.7h-3.7c0-0.2,0-0.3,0.1-0.4l1.9-2.1
			c0.5-0.6,1-1.4,1-2.2c0-0.8-0.4-1.6-1.3-1.6c-0.6,0-1.1,0.4-1.3,1c0,0,0,0,0.1,0c0.3,0,0.5,0.3,0.5,0.5c0,0.4-0.3,0.5-0.5,0.5
			c0,0-0.5,0-0.5-0.6c0-0.9,0.7-1.8,1.9-1.8c1.2,0,2.1,0.8,2.1,1.9c0,1-0.6,1.5-2.2,2.9l-1.1,1H277z"/>
		<path class="st0" d="M292.7,75.9c0,1-0.9,1.9-2.1,1.9c-1.1,0-2-0.7-2-1.6c0-0.4,0.3-0.6,0.6-0.6c0.3,0,0.6,0.2,0.6,0.6
			c0,0.4-0.3,0.6-0.7,0.5c0.3,0.6,1.1,0.8,1.5,0.8c0.4,0,1.1-0.3,1.1-1.6c0-1-0.4-1.7-1.2-1.7H290c-0.2,0-0.2,0-0.2-0.1
			c0-0.1,0.1-0.1,0.1-0.1c0.1,0,0.3,0,0.4,0c0.2,0,0.6,0,0.9-0.5c0.3-0.4,0.3-1,0.3-1.1c0-0.9-0.5-1.1-1-1.1c-0.4,0-1,0.1-1.3,0.6
			c0.1,0,0.6,0,0.6,0.5c0,0.3-0.2,0.5-0.5,0.5c-0.3,0-0.5-0.2-0.5-0.5c0-0.8,0.8-1.4,1.8-1.4c1,0,1.8,0.6,1.8,1.4
			c0,0.8-0.6,1.5-1.4,1.8C292,74.3,292.7,75.1,292.7,75.9z"/>
		<path class="st0" d="M302.5,76v-0.3l3.1-4.7c0.1-0.1,0.1-0.1,0.2-0.1c0.2,0,0.2,0.1,0.2,0.3v4.5h1V76h-1v0.9c0,0.4,0,0.5,0.8,0.5
			h0.2v0.3c-0.4,0-0.9,0-1.4,0c-0.4,0-0.9,0-1.3,0v-0.3h0.2c0.7,0,0.8-0.1,0.8-0.5V76H302.5z M305.2,72l-2.4,3.7h2.4V72z"/>
		<path class="st0" d="M318.7,77.9c-1.1,0-1.8-1-1.8-1.8c0-0.5,0.3-0.5,0.5-0.5c0.3,0,0.5,0.2,0.5,0.5s-0.2,0.5-0.5,0.5
			c-0.1,0-0.1,0-0.2,0c0.2,0.6,0.7,1.1,1.5,1.1c0.5,0,0.8-0.3,1.1-0.6c0.2-0.4,0.2-1,0.2-1.4c0-0.5,0-0.9-0.2-1.3
			c-0.1-0.2-0.3-0.6-0.8-0.6c-0.8,0-1.2,0.5-1.3,0.7c0,0.1-0.1,0.1-0.1,0.1c-0.1,0-0.1-0.1-0.1-0.3v-2.9c0-0.2,0-0.2,0.1-0.2
			c0,0,0,0,0.1,0c0.5,0.2,0.9,0.3,1.3,0.3c0.7,0,1.2-0.2,1.4-0.3c0,0,0.1,0,0.1,0c0.1,0,0.1,0,0.1,0.1c0,0.1-0.7,1-1.9,1
			c-0.3,0-0.6-0.1-0.8-0.1V74c0.4-0.3,0.8-0.5,1.3-0.5c1.1,0,1.9,1,1.9,2.2C320.9,76.9,319.9,77.9,318.7,77.9z"/>
		<path class="st0" d="M333.1,73.4c1.1,0,2,1,2,2.2c0,1.3-0.9,2.3-2.1,2.3c-0.9,0-2.1-0.7-2.1-3.4c0-2.2,1.3-3.5,2.6-3.5
			c0.8,0,1.3,0.5,1.3,1.1c0,0.4-0.3,0.5-0.5,0.5c-0.2,0-0.5-0.1-0.5-0.5c0-0.4,0.4-0.4,0.5-0.4c-0.2-0.3-0.6-0.4-0.9-0.4
			c-0.5,0-1.7,0.4-1.7,2.9v0.2C332.1,73.9,332.5,73.4,333.1,73.4z M334.1,76.9c0.2-0.4,0.2-0.9,0.2-1.3c0-0.5,0-1-0.2-1.4
			c-0.3-0.6-0.8-0.6-0.9-0.6c-0.9,0-1.2,1-1.2,1.8c0,0.2,0,1,0.2,1.4c0.1,0.1,0.4,0.7,1,0.7C333.3,77.6,333.8,77.5,334.1,76.9z"/>
		<path class="st0" d="M348.1,73.5c-0.4,0.6-0.6,1.5-0.6,1.7c-0.1,0.5-0.1,1.1-0.1,1.6v0.5c0,0.1,0,0.5-0.5,0.5s-0.5-0.4-0.5-0.5
			c0-1,0.3-2.4,1.2-3.7c0.2-0.3,1-1.4,1.1-1.6h-2.1c-0.1,0-0.9,0-1,0.1c-0.1,0.1-0.2,0.7-0.3,0.9h-0.2l0.3-2.1h0.2
			c0,0.2,0.1,0.3,1.3,0.3h2.4c0,0.2,0,0.2-0.1,0.3L348.1,73.5z"/>
		<path class="st0" d="M362.9,74.7c0.4,0.4,0.5,0.9,0.5,1.2c0,1.1-0.9,1.9-2.1,1.9c-1,0-2.1-0.7-2.1-1.7c0-1,0.9-1.5,1.4-1.8
			c-0.2-0.2-0.6-0.4-0.7-0.5c-0.4-0.5-0.4-0.9-0.4-1.1c0-0.9,0.8-1.7,1.8-1.7c0.9,0,1.8,0.6,1.8,1.5c0,0.7-0.5,1.2-1.2,1.5
			C362.6,74.4,362.8,74.5,362.9,74.7z M359.8,76.1c0,0.8,0.7,1.4,1.6,1.4c0.8,0,1.6-0.5,1.6-1.3c0-0.6-0.5-0.9-0.7-1.1l-1.2-0.8
			C360.1,74.9,359.8,75.6,359.8,76.1z M361.7,73.9c0.6-0.3,1-0.8,1-1.4c0-0.7-0.6-1.2-1.4-1.2c-0.7,0-1.4,0.4-1.4,1
			c0,0.2,0,0.5,0.5,0.8L361.7,73.9z"/>
	</g>
	<g>
		<path class="st0" d="M385.3,64.6c0.4-0.1,0.8-0.5,1.1-0.9c0.7-0.8,1.2-0.9,1.5-0.9c0.4,0,0.7,0.3,0.7,0.6c0,0.4-0.3,0.6-0.5,0.6
			c-0.3,0-0.4-0.2-0.4-0.3c0-0.1,0.1-0.5,0.6-0.5c0,0,0,0,0,0c-0.1-0.1-0.1-0.1-0.2-0.1c0,0,0,0-0.1,0c-0.5,0-0.9,0.4-1.4,1
			c-0.2,0.2-0.5,0.6-0.9,0.7c0.8,0.1,1.5,0.4,1.5,1c0,0.1,0,0.1,0,0.3c0,0.2-0.1,0.4-0.1,0.6c0,0.4,0.1,0.5,0.3,0.5
			c0.4,0,0.7-0.5,0.9-1.2c0-0.1,0-0.2,0.1-0.2c0,0,0.1,0,0.1,0.1c0,0-0.1,0.6-0.4,1c-0.2,0.4-0.5,0.5-0.8,0.5c-0.5,0-0.9-0.4-0.9-1
			c0-0.1,0-0.2,0-0.3c0-0.1,0-0.1,0-0.2c0-0.7-0.8-0.8-1.2-0.8c-0.1,0.2-0.5,2.1-0.6,2.2c-0.1,0.1-0.2,0.2-0.3,0.2
			c-0.1,0-0.3,0-0.3-0.3c0-0.1,0-0.1,0-0.2l1.4-5.7l0-0.2c0-0.1,0-0.2-0.5-0.2c-0.1,0-0.2,0-0.2-0.1c0-0.2,0.1-0.2,0.2-0.2
			c0.3,0,1-0.1,1.2-0.1c0.1,0,0.1,0.1,0.1,0.1L385.3,64.6z"/>
	</g>
	<path class="st1" d="M244.5,49.6h7.1 M244.5,35.4h7.1 M244.5,21.3h7.1"/>
	<g>
		<path class="st0" d="M237.9,52c0,0.4,0,0.5,0.9,0.5h0.3v0.3c-0.3,0-1.2,0-1.6,0s-1.3,0-1.6,0v-0.3h0.3c0.9,0,0.9-0.1,0.9-0.5v-5.2
			c-0.5,0.3-1.1,0.3-1.3,0.3v-0.3c0.3,0,1.2,0,1.8-0.6c0.2,0,0.2,0,0.2,0.3V52z"/>
	</g>
	<g>
		<path class="st0" d="M238,37.9c0.2,0,0.9,0,0.9-0.1c0.1-0.1,0.2-0.6,0.2-0.9h0.2l-0.3,1.7h-3.7c0-0.2,0-0.3,0.1-0.4l1.9-2.1
			c0.5-0.6,1-1.4,1-2.2c0-0.8-0.4-1.6-1.3-1.6c-0.6,0-1.1,0.4-1.3,1c0,0,0,0,0.1,0c0.3,0,0.5,0.3,0.5,0.5c0,0.4-0.3,0.5-0.5,0.5
			c0,0-0.5,0-0.5-0.6c0-0.9,0.7-1.8,1.9-1.8c1.2,0,2.1,0.8,2.1,1.9c0,1-0.6,1.5-2.2,2.9l-1.1,1H238z"/>
	</g>
	<g>
		<path class="st0" d="M239.5,22.8c0,1-0.9,1.9-2.1,1.9c-1.1,0-2-0.7-2-1.6c0-0.4,0.3-0.6,0.6-0.6c0.3,0,0.6,0.2,0.6,0.6
			c0,0.4-0.3,0.6-0.7,0.5c0.3,0.6,1.1,0.8,1.5,0.8c0.4,0,1.1-0.3,1.1-1.6c0-1-0.4-1.7-1.2-1.7h-0.4c-0.2,0-0.2,0-0.2-0.1
			c0-0.1,0.1-0.1,0.1-0.1c0.1,0,0.3,0,0.4,0c0.2,0,0.6,0,0.9-0.5c0.3-0.4,0.3-1,0.3-1.1c0-0.9-0.5-1.1-1-1.1c-0.4,0-1,0.1-1.3,0.6
			c0.1,0,0.6,0,0.6,0.5c0,0.3-0.2,0.5-0.5,0.5c-0.3,0-0.5-0.2-0.5-0.5c0-0.8,0.8-1.4,1.8-1.4c1,0,1.8,0.6,1.8,1.4
			c0,0.8-0.6,1.5-1.4,1.8C238.9,21.2,239.5,22,239.5,22.8z"/>
	</g>
	<line class="st1" x1="248" y1="63.8" x2="248" y2="49.6"/>
	<g>
		<path class="st0" d="M248.1,51.3c-1.1,0-1.9-0.9-1.9-1.9c0-1,0.9-1.9,1.9-1.9c1,0,1.9,0.9,1.9,1.9
			C250.1,50.4,249.2,51.3,248.1,51.3z"/>
	</g>
	<g>
		<path class="st0" d="M304.8,65.4c-1.1,0-1.9-0.9-1.9-1.9c0-1,0.9-1.9,1.9-1.9c1,0,1.9,0.9,1.9,1.9
			C306.7,64.6,305.8,65.4,304.8,65.4z"/>
		<path class="st0" d="M318.9,65.4c-1.1,0-1.9-0.9-1.9-1.9c0-1,0.9-1.9,1.9-1.9c1,0,1.9,0.9,1.9,1.9C320.8,64.6,320,65.4,318.9,65.4
			z"/>
	</g>
	<g>
		<path class="st0" d="M260.4,8c-0.1,0.4-0.2,0.7-0.2,0.9c0,0.3,0.2,0.7,0.5,0.7c0.3,0,1-0.2,1.3-1.3c0-0.1,0-0.1,0.1-0.1
			c0,0,0.1,0,0.1,0.1c0,0.2-0.6,1.5-1.6,1.5c-0.6,0-1-0.4-1.1-0.8c0,0.1-0.4,0.8-1,0.8c-0.4,0-0.9-0.2-0.9-0.7
			c0-0.3,0.2-0.6,0.5-0.6c0.1,0,0.4,0.1,0.4,0.3c0,0.3-0.2,0.5-0.5,0.5c0.2,0.1,0.4,0.1,0.5,0.1c0.4,0,0.8-0.4,0.9-1
			c0.4-1.4,0.5-2.1,0.5-2.4c0-0.6-0.3-0.7-0.5-0.7c-0.3,0-1,0.2-1.3,1.3c0,0.1,0,0.1-0.1,0.1c0,0-0.1,0-0.1-0.1
			c0-0.2,0.6-1.5,1.6-1.5c0.3,0,0.8,0.1,1.1,0.8c0.1-0.2,0.5-0.8,1-0.8c0.3,0,0.9,0.1,0.9,0.7c0,0.4-0.3,0.6-0.5,0.6
			c-0.3,0-0.4-0.2-0.4-0.3c0-0.2,0.2-0.5,0.5-0.5c-0.2-0.1-0.4-0.1-0.5-0.1c-0.7,0-0.9,0.9-1,1.2L260.4,8z"/>
	</g>
	<g>
		<path class="st0" d="M264.2,12.1v-10h1.4v0.4h-1v9.2h1v0.4H264.2z"/>
	</g>
	<g>
		<path class="st0" d="M267.6,7c0.4-0.1,0.8-0.5,1.1-0.9c0.7-0.8,1.2-0.9,1.5-0.9c0.4,0,0.7,0.3,0.7,0.6c0,0.4-0.3,0.6-0.5,0.6
			c-0.3,0-0.4-0.2-0.4-0.3c0-0.1,0.1-0.5,0.6-0.5c0,0,0,0,0,0c-0.1-0.1-0.1-0.1-0.2-0.1c0,0,0,0-0.1,0c-0.5,0-0.9,0.4-1.4,1
			c-0.2,0.2-0.5,0.6-0.9,0.7c0.8,0.1,1.5,0.4,1.5,1c0,0.1,0,0.1,0,0.3c0,0.2-0.1,0.4-0.1,0.6c0,0.4,0.1,0.5,0.3,0.5
			c0.4,0,0.7-0.5,0.9-1.2c0-0.1,0-0.2,0.1-0.2c0,0,0.1,0,0.1,0.1c0,0-0.1,0.6-0.4,1c-0.2,0.4-0.5,0.5-0.8,0.5c-0.5,0-0.9-0.4-0.9-1
			c0-0.1,0-0.2,0-0.3c0-0.1,0-0.1,0-0.2c0-0.7-0.8-0.8-1.2-0.8c-0.1,0.2-0.5,2.1-0.6,2.2c-0.1,0.1-0.2,0.2-0.3,0.2
			c-0.1,0-0.3,0-0.3-0.3c0-0.1,0-0.1,0-0.2l1.4-5.7l0-0.2c0-0.1,0-0.2-0.5-0.2c-0.1,0-0.2,0-0.2-0.1c0-0.2,0.1-0.2,0.2-0.2
			c0.3,0,1-0.1,1.2-0.1c0.1,0,0.1,0.1,0.1,0.1L267.6,7z"/>
	</g>
	<g>
		<path class="st0" d="M272.9,12.1h-1.4v-0.4h1V2.5h-1V2.1h1.4V12.1z"/>
	</g>
	<g>
		<path class="st0" d="M290.6,65.4c-1.1,0-1.9-0.9-1.9-1.9c0-1,0.9-1.9,1.9-1.9c1,0,1.9,0.9,1.9,1.9
			C292.5,64.6,291.6,65.4,290.6,65.4z"/>
	</g>
	<line class="st1" x1="35.4" y1="113.4" x2="42.5" y2="113.4"/>
	<g>
		<path class="st0" d="M30.5,114.9c0,1-0.9,1.9-2.1,1.9c-1.1,0-2-0.7-2-1.6c0-0.4,0.3-0.6,0.6-0.6c0.3,0,0.6,0.2,0.6,0.6
			c0,0.4-0.3,0.6-0.7,0.5c0.3,0.6,1.1,0.8,1.5,0.8c0.4,0,1.1-0.3,1.1-1.6c0-1-0.4-1.7-1.2-1.7h-0.4c-0.2,0-0.2,0-0.2-0.1
			c0-0.1,0.1-0.1,0.1-0.1c0.1,0,0.3,0,0.4,0c0.2,0,0.6,0,0.9-0.5c0.3-0.4,0.3-1,0.3-1.1c0-0.9-0.5-1.1-1-1.1c-0.4,0-1,0.1-1.3,0.6
			c0.1,0,0.6,0,0.6,0.5c0,0.3-0.2,0.5-0.5,0.5c-0.3,0-0.5-0.2-0.5-0.5c0-0.8,0.8-1.4,1.8-1.4c1,0,1.8,0.6,1.8,1.4
			c0,0.8-0.6,1.5-1.4,1.8C29.8,113.3,30.5,114.1,30.5,114.9z"/>
	</g>
	<polyline points="158.5,158.2 163,155.9 158.5,153.6 159.6,155.9 	"/>
	<line class="st1" x1="0" y1="155.9" x2="159.6" y2="155.9"/>
	<g>
		<path class="st0" d="M1.9,167c-0.2,0-0.3,0-0.3-0.2s0.2-0.2,0.3-0.2h5.4c0.2,0,0.3,0,0.3,0.2S7.4,167,7.3,167H1.9z"/>
	</g>
	<g>
		<path class="st0" d="M11.6,168.6c0.2,0,0.9,0,0.9-0.1c0.1-0.1,0.2-0.6,0.2-0.9H13l-0.3,1.7H9c0-0.2,0-0.3,0.1-0.4l1.9-2.1
			c0.5-0.6,1-1.4,1-2.2c0-0.8-0.4-1.6-1.3-1.6c-0.6,0-1.1,0.4-1.3,1c0,0,0,0,0.1,0c0.3,0,0.5,0.3,0.5,0.5c0,0.4-0.3,0.5-0.5,0.5
			c0,0-0.5,0-0.5-0.6c0-0.9,0.7-1.8,1.9-1.8c1.2,0,2.1,0.8,2.1,1.9c0,1-0.6,1.5-2.2,2.9l-1.1,1H11.6z"/>
	</g>
	<g>
		<path class="st0" d="M49.6,157.6c-1.1,0-1.9-0.9-1.9-1.9c0-1,0.9-1.9,1.9-1.9c1,0,1.9,0.9,1.9,1.9S50.7,157.6,49.6,157.6z"/>
	</g>
	<polyline points="37.7,96.7 35.4,92.1 33.2,96.7 35.4,95.5 	"/>
	<line class="st1" x1="35.4" y1="159.4" x2="35.4" y2="95.5"/>
	<g>
		<path class="st0" d="M63.8,157.6c-1.1,0-1.9-0.9-1.9-1.9c0-1,0.9-1.9,1.9-1.9c1,0,1.9,0.9,1.9,1.9S64.8,157.6,63.8,157.6z"/>
	</g>
	<g>
		<path class="st0" d="M120.6,157.6c-1.1,0-1.9-0.9-1.9-1.9c0-1,0.9-1.9,1.9-1.9c1,0,1.9,0.9,1.9,1.9S121.6,157.6,120.6,157.6z"/>
		<path class="st0" d="M134.7,157.6c-1.1,0-1.9-0.9-1.9-1.9c0-1,0.9-1.9,1.9-1.9c1,0,1.9,0.9,1.9,1.9S135.8,157.6,134.7,157.6z"/>
		<path class="st0" d="M148.9,157.6c-1.1,0-1.9-0.9-1.9-1.9c0-1,0.9-1.9,1.9-1.9c1,0,1.9,0.9,1.9,1.9S149.9,157.6,148.9,157.6z"/>
	</g>
	<g>
		<path class="st0" d="M16.2,167c-0.2,0-0.3,0-0.3-0.2s0.2-0.2,0.3-0.2h5.4c0.2,0,0.3,0,0.3,0.2s-0.2,0.2-0.3,0.2H16.2z"/>
	</g>
	<g>
		<path class="st0" d="M25.7,168.5c0,0.4,0,0.5,0.9,0.5H27v0.3c-0.3,0-1.2,0-1.6,0c-0.4,0-1.3,0-1.6,0V169H24c0.9,0,0.9-0.1,0.9-0.5
			v-5.2c-0.5,0.3-1.1,0.3-1.3,0.3v-0.3c0.3,0,1.2,0,1.8-0.6c0.2,0,0.2,0,0.2,0.3V168.5z"/>
	</g>
	<g>
		<path class="st0" d="M37.2,168.9c-0.4,0.9-1.2,1.2-1.7,1.2c-0.5,0-1.2-0.2-1.6-1c-0.4-0.8-0.4-1.7-0.4-2.4c0-0.8,0-1.6,0.4-2.3
			c0.4-0.9,1.1-1.2,1.7-1.2c0.4,0,1.2,0.2,1.7,1.1c0.3,0.7,0.4,1.5,0.4,2.3C37.6,167.4,37.5,168.2,37.2,168.9z M36.6,168.6
			c0.1-0.6,0.1-1.3,0.1-2.1c0-0.6,0-1.4-0.1-1.9c-0.2-1-0.8-1.2-1.2-1.2c-0.2,0-1,0.1-1.2,1.3c-0.1,0.5-0.1,1.2-0.1,1.8
			c0,0.6,0,1.5,0.1,2.1c0.2,1,0.8,1.2,1.2,1.2C35.9,169.8,36.5,169.5,36.6,168.6z"/>
		<path class="st0" d="M50.1,169c0,0.4,0,0.5,0.9,0.5h0.3v0.3c-0.3,0-1.2,0-1.6,0c-0.4,0-1.3,0-1.6,0v-0.3h0.3
			c0.9,0,0.9-0.1,0.9-0.5v-5.2c-0.5,0.3-1.1,0.3-1.3,0.3v-0.3c0.3,0,1.2,0,1.8-0.6c0.2,0,0.2,0,0.2,0.3V169z"/>
		<path class="st0" d="M64.4,169c0.2,0,0.9,0,0.9-0.1c0.1-0.1,0.2-0.6,0.2-0.9h0.2l-0.3,1.7h-3.7c0-0.2,0-0.3,0.1-0.4l1.9-2.1
			c0.5-0.6,1-1.4,1-2.2c0-0.8-0.4-1.6-1.3-1.6c-0.6,0-1.1,0.4-1.3,1c0,0,0,0,0.1,0c0.3,0,0.5,0.3,0.5,0.5c0,0.4-0.3,0.5-0.5,0.5
			c0,0-0.5,0-0.5-0.6c0-0.9,0.7-1.8,1.9-1.8c1.2,0,2.1,0.8,2.1,1.9c0,1-0.6,1.5-2.2,2.9l-1.1,1H64.4z"/>
		<path class="st0" d="M80,168.1c0,1-0.9,1.9-2.1,1.9c-1.1,0-2-0.7-2-1.6c0-0.4,0.3-0.6,0.6-0.6c0.3,0,0.6,0.2,0.6,0.6
			c0,0.4-0.3,0.6-0.7,0.5c0.3,0.6,1.1,0.8,1.5,0.8c0.4,0,1.1-0.3,1.1-1.6c0-1-0.4-1.7-1.2-1.7h-0.4c-0.2,0-0.2,0-0.2-0.1
			c0-0.1,0.1-0.1,0.1-0.1c0.1,0,0.3,0,0.4,0c0.2,0,0.6,0,0.9-0.5c0.3-0.4,0.3-1,0.3-1.1c0-0.9-0.5-1.1-1-1.1c-0.4,0-1,0.1-1.3,0.6
			c0.1,0,0.6,0,0.6,0.5c0,0.3-0.2,0.5-0.5,0.5c-0.3,0-0.5-0.2-0.5-0.5c0-0.8,0.8-1.4,1.8-1.4c1,0,1.8,0.6,1.8,1.4
			c0,0.8-0.6,1.5-1.4,1.8C79.4,166.5,80,167.3,80,168.1z"/>
		<path class="st0" d="M89.9,168.2v-0.3l3.1-4.7c0.1-0.1,0.1-0.1,0.2-0.1c0.2,0,0.2,0.1,0.2,0.3v4.5h1v0.3h-1v0.9
			c0,0.4,0,0.5,0.8,0.5h0.2v0.3c-0.4,0-0.9,0-1.4,0s-0.9,0-1.3,0v-0.3h0.2c0.7,0,0.8-0.1,0.8-0.5v-0.9H89.9z M92.6,164.1l-2.4,3.7
			h2.4V164.1z"/>
		<path class="st0" d="M106.1,170c-1.1,0-1.8-1-1.8-1.8c0-0.5,0.3-0.5,0.5-0.5c0.3,0,0.5,0.2,0.5,0.5c0,0.2-0.2,0.5-0.5,0.5
			c-0.1,0-0.1,0-0.2,0c0.2,0.6,0.7,1.1,1.5,1.1c0.5,0,0.8-0.3,1.1-0.6c0.2-0.4,0.2-1,0.2-1.4c0-0.5,0-0.9-0.2-1.3
			c-0.1-0.2-0.3-0.6-0.8-0.6c-0.8,0-1.2,0.5-1.3,0.7c0,0.1-0.1,0.1-0.1,0.1c-0.1,0-0.1-0.1-0.1-0.3v-2.9c0-0.2,0-0.2,0.1-0.2
			c0,0,0,0,0.1,0c0.5,0.2,0.9,0.3,1.3,0.3c0.7,0,1.2-0.2,1.4-0.3c0,0,0.1,0,0.1,0c0.1,0,0.1,0,0.1,0.1c0,0.1-0.7,1-1.9,1
			c-0.3,0-0.6-0.1-0.8-0.1v1.9c0.4-0.3,0.8-0.5,1.3-0.5c1.1,0,1.9,1,1.9,2.2C108.2,169.1,107.2,170,106.1,170z"/>
	</g>
	<g>
		<path class="st0" d="M120.6,165.5c1.1,0,2,1,2,2.2c0,1.3-0.9,2.3-2.1,2.3c-0.9,0-2.1-0.7-2.1-3.4c0-2.2,1.3-3.5,2.6-3.5
			c0.8,0,1.3,0.5,1.3,1.1c0,0.4-0.3,0.5-0.5,0.5c-0.2,0-0.5-0.1-0.5-0.5c0-0.4,0.4-0.4,0.5-0.4c-0.2-0.3-0.6-0.4-0.9-0.4
			c-0.5,0-1.7,0.4-1.7,2.9v0.2C119.6,166.1,119.9,165.5,120.6,165.5z M121.6,169.1c0.2-0.4,0.2-0.9,0.2-1.3c0-0.5,0-1-0.2-1.4
			c-0.3-0.6-0.8-0.6-0.9-0.6c-0.9,0-1.2,1-1.2,1.8c0,0.2,0,1,0.2,1.4c0.1,0.1,0.4,0.7,1,0.7C120.8,169.7,121.3,169.7,121.6,169.1z"
			/>
		<path class="st0" d="M135.6,165.6c-0.4,0.6-0.6,1.5-0.6,1.7c-0.1,0.5-0.1,1.1-0.1,1.6v0.5c0,0.1,0,0.5-0.5,0.5s-0.5-0.4-0.5-0.5
			c0-1,0.3-2.4,1.2-3.7c0.2-0.3,1-1.4,1.1-1.6h-2.1c-0.1,0-0.9,0-1,0.1c-0.1,0.1-0.2,0.7-0.2,0.9h-0.2l0.3-2.1h0.2
			c0,0.2,0.1,0.3,1.3,0.3h2.4c0,0.2,0,0.2-0.1,0.3L135.6,165.6z"/>
		<path class="st0" d="M150.4,166.9c0.4,0.4,0.5,0.9,0.5,1.2c0,1.1-0.9,1.9-2.1,1.9c-1,0-2.1-0.7-2.1-1.7c0-1,0.9-1.5,1.4-1.8
			c-0.2-0.2-0.6-0.4-0.7-0.5c-0.4-0.5-0.4-0.9-0.4-1.1c0-0.9,0.8-1.7,1.8-1.7c0.9,0,1.8,0.6,1.8,1.5c0,0.7-0.5,1.2-1.2,1.5
			C150.1,166.6,150.3,166.7,150.4,166.9z M147.3,168.3c0,0.8,0.7,1.4,1.6,1.4c0.8,0,1.6-0.5,1.6-1.3c0-0.6-0.5-0.9-0.7-1.1l-1.2-0.8
			C147.6,167.1,147.3,167.7,147.3,168.3z M149.2,166c0.6-0.3,1-0.8,1-1.4c0-0.7-0.6-1.2-1.4-1.2c-0.7,0-1.4,0.4-1.4,1
			c0,0.2,0,0.5,0.5,0.8L149.2,166z"/>
	</g>
	<g>
		<path class="st0" d="M172.7,156.8c0.4-0.1,0.8-0.5,1.1-0.9c0.7-0.8,1.2-0.9,1.5-0.9c0.4,0,0.7,0.3,0.7,0.6c0,0.4-0.3,0.6-0.5,0.6
			c-0.3,0-0.4-0.2-0.4-0.3c0-0.1,0.1-0.5,0.6-0.5c0,0,0,0,0,0c-0.1-0.1-0.1-0.1-0.2-0.1c0,0,0,0-0.1,0c-0.5,0-0.9,0.4-1.4,1
			c-0.2,0.2-0.5,0.6-0.9,0.7c0.8,0.1,1.5,0.4,1.5,1c0,0.1,0,0.1,0,0.3c0,0.2-0.1,0.4-0.1,0.6c0,0.4,0.1,0.5,0.3,0.5
			c0.4,0,0.7-0.5,0.9-1.2c0-0.1,0-0.2,0.1-0.2c0,0,0.1,0,0.1,0.1c0,0-0.1,0.6-0.4,1c-0.2,0.4-0.5,0.5-0.8,0.5c-0.5,0-0.9-0.4-0.9-1
			c0-0.1,0-0.2,0-0.3c0-0.1,0-0.1,0-0.2c0-0.7-0.8-0.8-1.2-0.8c-0.1,0.3-0.5,2.1-0.6,2.2c-0.1,0.1-0.2,0.2-0.3,0.2
			c-0.1,0-0.3,0-0.3-0.3c0-0.1,0-0.1,0-0.2l1.4-5.7l0-0.2c0-0.1,0-0.2-0.5-0.2c-0.1,0-0.2,0-0.2-0.1c0-0.2,0.1-0.2,0.2-0.2
			c0.3,0,1-0.1,1.2-0.1c0.1,0,0.1,0.1,0.1,0.1L172.7,156.8z"/>
	</g>
	<path class="st1" d="M31.9,141.7H39 M31.9,127.6H39"/>
	<g>
		<path class="st0" d="M25.2,144.2c0,0.4,0,0.5,0.9,0.5h0.3v0.3c-0.3,0-1.2,0-1.6,0c-0.4,0-1.3,0-1.6,0v-0.3h0.3
			c0.9,0,0.9-0.1,0.9-0.5V139c-0.5,0.3-1.1,0.3-1.3,0.3V139c0.3,0,1.2,0,1.8-0.6c0.2,0,0.2,0,0.2,0.3V144.2z"/>
	</g>
	<g>
		<path class="st0" d="M25.4,130c0.2,0,0.9,0,0.9-0.1c0.1-0.1,0.2-0.6,0.2-0.9h0.2l-0.3,1.7h-3.7c0-0.2,0-0.3,0.1-0.4l1.9-2.1
			c0.5-0.6,1-1.4,1-2.2c0-0.8-0.4-1.6-1.3-1.6c-0.6,0-1.1,0.4-1.3,1c0,0,0,0,0.1,0c0.3,0,0.5,0.3,0.5,0.5c0,0.4-0.3,0.5-0.5,0.5
			c0,0-0.5,0-0.5-0.6c0-0.9,0.7-1.8,1.9-1.8c1.2,0,2.1,0.8,2.1,1.9c0,1-0.6,1.5-2.2,2.9l-1.1,1H25.4z"/>
	</g>
	<g>
		<path class="st0" d="M92.1,157.6c-1.1,0-1.9-0.9-1.9-1.9c0-1,0.9-1.9,1.9-1.9c1,0,1.9,0.9,1.9,1.9S93.2,157.6,92.1,157.6z"/>
		<path class="st0" d="M106.3,157.6c-1.1,0-1.9-0.9-1.9-1.9c0-1,0.9-1.9,1.9-1.9c1,0,1.9,0.9,1.9,1.9S107.3,157.6,106.3,157.6z"/>
	</g>
	<g>
		<path class="st0" d="M45.9,100.1c-0.1,0.4-0.2,0.7-0.2,0.9c0,0.3,0.2,0.7,0.5,0.7c0.3,0,1-0.2,1.3-1.3c0-0.1,0-0.1,0.1-0.1
			c0,0,0.1,0,0.1,0.1c0,0.2-0.6,1.5-1.6,1.5c-0.6,0-1-0.4-1.1-0.8c0,0.1-0.4,0.8-1,0.8c-0.4,0-0.9-0.2-0.9-0.7
			c0-0.3,0.2-0.6,0.5-0.6c0.1,0,0.4,0.1,0.4,0.3c0,0.3-0.2,0.5-0.5,0.5c0.2,0.1,0.4,0.1,0.5,0.1c0.4,0,0.8-0.4,0.9-1
			c0.4-1.4,0.5-2.1,0.5-2.4c0-0.6-0.3-0.7-0.5-0.7c-0.3,0-1,0.2-1.3,1.3c0,0.1-0.1,0.1-0.1,0.1c0,0-0.1,0-0.1-0.1
			c0-0.2,0.6-1.5,1.6-1.5c0.3,0,0.8,0.1,1.1,0.8c0.1-0.2,0.5-0.8,1-0.8c0.3,0,0.9,0.1,0.9,0.7c0,0.4-0.3,0.6-0.5,0.6
			c-0.3,0-0.4-0.2-0.4-0.3c0-0.2,0.2-0.5,0.5-0.5c-0.2-0.1-0.4-0.1-0.5-0.1c-0.7,0-0.9,0.9-1,1.2L45.9,100.1z"/>
	</g>
	<g>
		<path class="st0" d="M49.8,104.3v-10h1.4v0.4h-1v9.2h1v0.4H49.8z"/>
	</g>
	<g>
		<path class="st2" d="M54.2,101.9c-2.4,0-2.4-2.3-2.4-3.3c0-1,0-3.3,2.4-3.3c2.4,0,2.4,2.4,2.4,3.3
			C56.6,99.6,56.6,101.9,54.2,101.9z M55.3,100.4c0.1-0.5,0.1-1.4,0.1-2c0-0.8,0-1.9-0.2-2.2c-0.2-0.4-0.6-0.6-1-0.6
			c-0.2,0-0.9,0.1-1.1,1c-0.1,0.5-0.1,1.2-0.1,1.9c0,0.5,0,1.6,0.1,2.1c0.1,0.7,0.7,0.9,1,0.9C54.5,101.5,55.1,101.4,55.3,100.4z"/>
	</g>
	<g>
		<path class="st0" d="M60.6,99.5c-0.2,0-0.3,0-0.3-0.2c0-0.2,0.2-0.2,0.3-0.2H66c0.2,0,0.3,0,0.3,0.2c0,0.2-0.2,0.2-0.3,0.2H60.6z"
			/>
	</g>
	<g>
		<path class="st0" d="M71.2,99.2c0.4-0.1,0.8-0.5,1.1-0.9c0.7-0.8,1.2-0.9,1.5-0.9c0.4,0,0.7,0.3,0.7,0.6c0,0.4-0.3,0.6-0.5,0.6
			c-0.3,0-0.4-0.2-0.4-0.3c0-0.1,0.1-0.5,0.6-0.5c0,0,0,0,0,0c-0.1-0.1-0.1-0.1-0.2-0.1c0,0,0,0-0.1,0c-0.5,0-0.9,0.4-1.4,1
			c-0.2,0.2-0.5,0.6-0.9,0.7c0.8,0.1,1.5,0.4,1.5,1c0,0.1,0,0.1,0,0.3c0,0.2-0.1,0.4-0.1,0.6c0,0.4,0.1,0.5,0.3,0.5
			c0.4,0,0.7-0.5,0.9-1.2c0-0.1,0-0.2,0.1-0.2c0,0,0.1,0,0.1,0.1c0,0-0.1,0.6-0.4,1c-0.2,0.4-0.5,0.5-0.8,0.5c-0.5,0-0.9-0.4-0.9-1
			c0-0.1,0-0.2,0-0.3c0-0.1,0-0.1,0-0.2c0-0.7-0.8-0.8-1.2-0.8c-0.1,0.2-0.5,2.1-0.6,2.2c-0.1,0.1-0.2,0.2-0.3,0.2
			c-0.1,0-0.3,0-0.3-0.3c0-0.1,0-0.1,0-0.2l1.4-5.7l0-0.2c0-0.1,0-0.2-0.5-0.2c-0.1,0-0.2,0-0.2-0.1c0-0.2,0.1-0.2,0.2-0.2
			c0.3,0,1-0.1,1.2-0.1c0.1,0,0.1,0.1,0.1,0.1L71.2,99.2z"/>
	</g>
	<g>
		<path class="st0" d="M76.5,104.3h-1.4v-0.4h1v-9.2h-1v-0.4h1.4V104.3z"/>
	</g>
	<g>
		<path class="st0" d="M78,157.6c-1.1,0-1.9-0.9-1.9-1.9c0-1,0.9-1.9,1.9-1.9c1,0,1.9,0.9,1.9,1.9S79,157.6,78,157.6z"/>
	</g>
	<line class="st1" x1="21.3" y1="155.9" x2="21.3" y2="127.6"/>
	<g>
		<path class="st0" d="M21.3,129.2c-1.1,0-1.9-0.9-1.9-1.9c0-1,0.9-1.9,1.9-1.9c1,0,1.9,0.9,1.9,1.9
			C23.2,128.3,22.4,129.2,21.3,129.2z"/>
	</g>
	<line class="st1" x1="7.1" y1="155.9" x2="7.1" y2="113.4"/>
	<g>
		<path class="st0" d="M7.2,115c-1.1,0-1.9-0.9-1.9-1.9c0-1,0.9-1.9,1.9-1.9c1,0,1.9,0.9,1.9,1.9C9.1,114.1,8.2,115,7.2,115z"/>
	</g>
	<line class="st1" x1="35.4" y1="155.9" x2="35.4" y2="141.7"/>
	<g>
		<path class="st0" d="M35.5,143.4c-1.1,0-1.9-0.9-1.9-1.9c0-1,0.9-1.9,1.9-1.9c1,0,1.9,0.9,1.9,1.9S36.5,143.4,35.5,143.4z"/>
	</g>
	<line class="st1" x1="239.6" y1="113.4" x2="246.4" y2="113.4"/>
	<g>
		<path class="st0" d="M231.3,114.9c0,1-0.9,1.9-2.1,1.9c-1.1,0-2-0.7-2-1.6c0-0.4,0.3-0.6,0.6-0.6c0.3,0,0.6,0.2,0.6,0.6
			c0,0.4-0.3,0.6-0.7,0.5c0.3,0.6,1.1,0.8,1.5,0.8c0.4,0,1.1-0.3,1.1-1.6c0-1-0.4-1.7-1.2-1.7h-0.4c-0.2,0-0.2,0-0.2-0.1
			c0-0.1,0.1-0.1,0.1-0.1c0.1,0,0.3,0,0.4,0c0.2,0,0.6,0,0.9-0.5c0.3-0.4,0.3-1,0.3-1.1c0-0.9-0.5-1.1-1-1.1c-0.4,0-1,0.1-1.3,0.6
			c0.1,0,0.6,0,0.6,0.5c0,0.3-0.2,0.5-0.5,0.5c-0.3,0-0.5-0.2-0.5-0.5c0-0.8,0.8-1.4,1.8-1.4c1,0,1.8,0.6,1.8,1.4
			c0,0.8-0.6,1.5-1.4,1.8C230.7,113.3,231.3,114.1,231.3,114.9z"/>
	</g>
	<polyline points="358.5,158.2 363,155.9 358.5,153.6 359.6,155.9 	"/>
	<line class="st1" x1="205.3" y1="155.9" x2="359.6" y2="155.9"/>
	<g>
		<path class="st0" d="M207,167c-0.2,0-0.3,0-0.3-0.2s0.2-0.2,0.3-0.2h5.4c0.2,0,0.3,0,0.3,0.2s-0.2,0.2-0.3,0.2H207z"/>
	</g>
	<g>
		<path class="st0" d="M216.6,168.6c0.2,0,0.9,0,0.9-0.1c0.1-0.1,0.2-0.6,0.2-0.9h0.2l-0.3,1.7h-3.7c0-0.2,0-0.3,0.1-0.4l1.9-2.1
			c0.5-0.6,1-1.4,1-2.2c0-0.8-0.4-1.6-1.3-1.6c-0.6,0-1.1,0.4-1.3,1c0,0,0,0,0.1,0c0.3,0,0.5,0.3,0.5,0.5c0,0.4-0.3,0.5-0.5,0.5
			c0,0-0.5,0-0.5-0.6c0-0.9,0.7-1.8,1.9-1.8c1.2,0,2.1,0.8,2.1,1.9c0,1-0.6,1.5-2.2,2.9l-1.1,1H216.6z"/>
	</g>
	<g>
		<path class="st0" d="M212.1,157.6c-1.1,0-1.9-0.9-1.9-1.9c0-1,0.9-1.9,1.9-1.9c1,0,1.9,0.9,1.9,1.9S213.2,157.6,212.1,157.6z"/>
	</g>
	<polyline points="241.9,96.7 239.6,92.1 237.3,96.7 239.6,95.5 	"/>
	<line class="st1" x1="239.6" y1="159.4" x2="239.6" y2="95.5"/>
	<g>
		<path class="st0" d="M267.1,157.6c-1.1,0-1.9-0.9-1.9-1.9c0-1,0.9-1.9,1.9-1.9c1,0,1.9,0.9,1.9,1.9S268.1,157.6,267.1,157.6z"/>
		<path class="st0" d="M321.9,157.6c-1.1,0-1.9-0.9-1.9-1.9c0-1,0.9-1.9,1.9-1.9c1,0,1.9,0.9,1.9,1.9S323,157.6,321.9,157.6z"/>
	</g>
	<g>
		<path class="st0" d="M335.6,157.6c-1.1,0-1.9-0.9-1.9-1.9c0-1,0.9-1.9,1.9-1.9c1,0,1.9,0.9,1.9,1.9S336.6,157.6,335.6,157.6z"/>
		<path class="st0" d="M349.4,157.6c-1.1,0-1.9-0.9-1.9-1.9c0-1,0.9-1.9,1.9-1.9c1,0,1.9,0.9,1.9,1.9S350.4,157.6,349.4,157.6z"/>
	</g>
	<g>
		<path class="st0" d="M220.8,167c-0.2,0-0.3,0-0.3-0.2s0.2-0.2,0.3-0.2h5.4c0.2,0,0.3,0,0.3,0.2s-0.2,0.2-0.3,0.2H220.8z"/>
	</g>
	<g>
		<path class="st0" d="M230.3,168.5c0,0.4,0,0.5,0.9,0.5h0.3v0.3c-0.3,0-1.2,0-1.6,0s-1.3,0-1.6,0V169h0.3c0.9,0,0.9-0.1,0.9-0.5
			v-5.2c-0.5,0.3-1.1,0.3-1.3,0.3v-0.3c0.3,0,1.2,0,1.8-0.6c0.2,0,0.2,0,0.2,0.3V168.5z"/>
	</g>
	<g>
		<path class="st0" d="M241.3,168.9c-0.4,0.9-1.2,1.2-1.7,1.2c-0.5,0-1.2-0.2-1.6-1c-0.4-0.8-0.4-1.7-0.4-2.4c0-0.8,0-1.6,0.4-2.3
			c0.4-0.9,1.1-1.2,1.7-1.2c0.4,0,1.2,0.2,1.7,1.1c0.3,0.7,0.4,1.5,0.4,2.3C241.7,167.4,241.6,168.2,241.3,168.9z M240.7,168.6
			c0.1-0.6,0.1-1.3,0.1-2.1c0-0.6,0-1.4-0.1-1.9c-0.2-1-0.8-1.2-1.2-1.2c-0.2,0-1,0.1-1.2,1.3c-0.1,0.5-0.1,1.2-0.1,1.8
			c0,0.6,0,1.5,0.1,2.1c0.2,1,0.8,1.2,1.2,1.2C240,169.8,240.6,169.5,240.7,168.6z"/>
		<path class="st0" d="M253.7,169c0,0.4,0,0.5,0.9,0.5h0.3v0.3c-0.3,0-1.2,0-1.6,0s-1.3,0-1.6,0v-0.3h0.3c0.9,0,0.9-0.1,0.9-0.5
			v-5.2c-0.5,0.3-1.1,0.3-1.3,0.3v-0.3c0.3,0,1.2,0,1.8-0.6c0.2,0,0.2,0,0.2,0.3V169z"/>
	</g>
	<g>
		<path class="st0" d="M267.6,169c0.2,0,0.9,0,0.9-0.1c0.1-0.1,0.2-0.6,0.2-0.9h0.2l-0.3,1.7h-3.7c0-0.2,0-0.3,0.1-0.4l1.9-2.1
			c0.5-0.6,1-1.4,1-2.2c0-0.8-0.4-1.6-1.3-1.6c-0.6,0-1.1,0.4-1.3,1c0,0,0,0,0.1,0c0.3,0,0.5,0.3,0.5,0.5c0,0.4-0.3,0.5-0.5,0.5
			c0,0-0.5,0-0.5-0.6c0-0.9,0.7-1.8,1.9-1.8c1.2,0,2.1,0.8,2.1,1.9c0,1-0.6,1.5-2.2,2.9l-1.1,1H267.6z"/>
		<path class="st0" d="M282.8,168.1c0,1-0.9,1.9-2.1,1.9c-1.1,0-2-0.7-2-1.6c0-0.4,0.3-0.6,0.6-0.6c0.3,0,0.6,0.2,0.6,0.6
			c0,0.4-0.3,0.6-0.7,0.5c0.3,0.6,1.1,0.8,1.5,0.8c0.4,0,1.1-0.3,1.1-1.6c0-1-0.4-1.7-1.2-1.7h-0.4c-0.2,0-0.2,0-0.2-0.1
			c0-0.1,0.1-0.1,0.1-0.1c0.1,0,0.3,0,0.4,0c0.2,0,0.6,0,0.9-0.5c0.3-0.4,0.3-1,0.3-1.1c0-0.9-0.5-1.1-1-1.1c-0.4,0-1,0.1-1.3,0.6
			c0.1,0,0.6,0,0.6,0.5c0,0.3-0.2,0.5-0.5,0.5c-0.3,0-0.5-0.2-0.5-0.5c0-0.8,0.8-1.4,1.8-1.4c1,0,1.8,0.6,1.8,1.4
			c0,0.8-0.6,1.5-1.4,1.8C282.2,166.5,282.8,167.3,282.8,168.1z"/>
		<path class="st0" d="M292.2,168.2v-0.3l3.1-4.7c0.1-0.1,0.1-0.1,0.2-0.1c0.2,0,0.2,0.1,0.2,0.3v4.5h1v0.3h-1v0.9
			c0,0.4,0,0.5,0.8,0.5h0.2v0.3c-0.4,0-0.9,0-1.4,0c-0.4,0-0.9,0-1.3,0v-0.3h0.2c0.7,0,0.8-0.1,0.8-0.5v-0.9H292.2z M294.9,164.1
			l-2.4,3.7h2.4V164.1z"/>
	</g>
	<g>
		<path class="st0" d="M308,170c-1.1,0-1.8-1-1.8-1.8c0-0.5,0.3-0.5,0.5-0.5c0.3,0,0.5,0.2,0.5,0.5c0,0.2-0.2,0.5-0.5,0.5
			c-0.1,0-0.1,0-0.2,0c0.2,0.6,0.7,1.1,1.5,1.1c0.5,0,0.8-0.3,1.1-0.6c0.2-0.4,0.2-1,0.2-1.4c0-0.5,0-0.9-0.2-1.3
			c-0.1-0.2-0.3-0.6-0.8-0.6c-0.8,0-1.2,0.5-1.3,0.7c0,0.1-0.1,0.1-0.1,0.1c-0.1,0-0.1-0.1-0.1-0.3v-2.9c0-0.2,0-0.2,0.1-0.2
			c0,0,0,0,0.1,0c0.5,0.2,0.9,0.3,1.3,0.3c0.7,0,1.2-0.2,1.4-0.3c0,0,0.1,0,0.1,0c0.1,0,0.1,0,0.1,0.1c0,0.1-0.7,1-1.9,1
			c-0.3,0-0.6-0.1-0.8-0.1v1.9c0.4-0.3,0.8-0.5,1.3-0.5c1.1,0,1.9,1,1.9,2.2C310.2,169.1,309.2,170,308,170z"/>
		<path class="st0" d="M322,165.5c1.1,0,2,1,2,2.2c0,1.3-0.9,2.3-2.1,2.3c-0.9,0-2.1-0.7-2.1-3.4c0-2.2,1.3-3.5,2.6-3.5
			c0.8,0,1.3,0.5,1.3,1.1c0,0.4-0.3,0.5-0.5,0.5c-0.2,0-0.5-0.1-0.5-0.5c0-0.4,0.4-0.4,0.5-0.4c-0.2-0.3-0.6-0.4-0.9-0.4
			c-0.5,0-1.7,0.4-1.7,2.9v0.2C320.9,166.1,321.3,165.5,322,165.5z M322.9,169.1c0.2-0.4,0.2-0.9,0.2-1.3c0-0.5,0-1-0.2-1.4
			c-0.3-0.6-0.8-0.6-0.9-0.6c-0.9,0-1.2,1-1.2,1.8c0,0.2,0,1,0.2,1.4c0.1,0.1,0.4,0.7,1,0.7C322.2,169.7,322.6,169.7,322.9,169.1z"
			/>
		<path class="st0" d="M336.5,165.6c-0.4,0.6-0.6,1.5-0.6,1.7c-0.1,0.5-0.1,1.1-0.1,1.6v0.5c0,0.1,0,0.5-0.5,0.5s-0.5-0.4-0.5-0.5
			c0-1,0.3-2.4,1.2-3.7c0.2-0.3,1-1.4,1.1-1.6h-2.1c-0.1,0-0.9,0-1,0.1c-0.1,0.1-0.2,0.7-0.3,0.9h-0.2l0.3-2.1h0.2
			c0,0.2,0.1,0.3,1.3,0.3h2.4c0,0.2,0,0.2-0.1,0.3L336.5,165.6z"/>
	</g>
	<g>
		<path class="st0" d="M351,166.9c0.4,0.4,0.5,0.9,0.5,1.2c0,1.1-0.9,1.9-2.1,1.9c-1,0-2.1-0.7-2.1-1.7c0-1,0.9-1.5,1.4-1.8
			c-0.2-0.2-0.6-0.4-0.7-0.5c-0.4-0.5-0.4-0.9-0.4-1.1c0-0.9,0.8-1.7,1.8-1.7c0.9,0,1.8,0.6,1.8,1.5c0,0.7-0.5,1.2-1.2,1.5
			C350.6,166.6,350.8,166.7,351,166.9z M347.8,168.3c0,0.8,0.7,1.4,1.6,1.4c0.8,0,1.6-0.5,1.6-1.3c0-0.6-0.5-0.9-0.7-1.1l-1.2-0.8
			C348.1,167.1,347.8,167.7,347.8,168.3z M349.8,166c0.6-0.3,1-0.8,1-1.4c0-0.7-0.6-1.2-1.4-1.2c-0.7,0-1.4,0.4-1.4,1
			c0,0.2,0,0.5,0.5,0.8L349.8,166z"/>
	</g>
	<g>
		<path class="st0" d="M372.4,156.8c0.4-0.1,0.8-0.5,1.1-0.9c0.7-0.8,1.2-0.9,1.5-0.9c0.4,0,0.7,0.3,0.7,0.6c0,0.4-0.3,0.6-0.5,0.6
			c-0.3,0-0.4-0.2-0.4-0.3c0-0.1,0.1-0.5,0.6-0.5c0,0,0,0,0,0c-0.1-0.1-0.1-0.1-0.2-0.1c0,0,0,0-0.1,0c-0.5,0-0.9,0.4-1.4,1
			c-0.2,0.2-0.5,0.6-0.9,0.7c0.8,0.1,1.5,0.4,1.5,1c0,0.1,0,0.1,0,0.3c0,0.2-0.1,0.4-0.1,0.6c0,0.4,0.1,0.5,0.3,0.5
			c0.4,0,0.7-0.5,0.9-1.2c0-0.1,0-0.2,0.1-0.2c0,0,0.1,0,0.1,0.1c0,0-0.1,0.6-0.4,1c-0.2,0.4-0.5,0.5-0.8,0.5c-0.5,0-0.9-0.4-0.9-1
			c0-0.1,0-0.2,0-0.3c0-0.1,0-0.1,0-0.2c0-0.7-0.8-0.8-1.2-0.8c-0.1,0.3-0.5,2.1-0.6,2.2c-0.1,0.1-0.2,0.2-0.3,0.2
			c-0.1,0-0.3,0-0.3-0.3c0-0.1,0-0.1,0-0.2l1.4-5.7l0-0.2c0-0.1,0-0.2-0.5-0.2c-0.1,0-0.2,0-0.2-0.1c0-0.2,0.1-0.2,0.2-0.2
			c0.3,0,1-0.1,1.2-0.1c0.1,0,0.1,0.1,0.1,0.1L372.4,156.8z"/>
	</g>
	<path class="st1" d="M236.2,141.7h6.9 M236.2,127.6h6.9"/>
	<g>
		<path class="st0" d="M229.7,144.2c0,0.4,0,0.5,0.9,0.5h0.3v0.3c-0.3,0-1.2,0-1.6,0s-1.3,0-1.6,0v-0.3h0.3c0.9,0,0.9-0.1,0.9-0.5
			V139c-0.5,0.3-1.1,0.3-1.3,0.3V139c0.3,0,1.2,0,1.8-0.6c0.2,0,0.2,0,0.2,0.3V144.2z"/>
	</g>
	<g>
		<path class="st0" d="M229.8,130c0.2,0,0.9,0,0.9-0.1c0.1-0.1,0.2-0.6,0.2-0.9h0.2l-0.3,1.7h-3.7c0-0.2,0-0.3,0.1-0.4l1.9-2.1
			c0.5-0.6,1-1.4,1-2.2c0-0.8-0.4-1.6-1.3-1.6c-0.6,0-1.1,0.4-1.3,1c0,0,0,0,0.1,0c0.3,0,0.5,0.3,0.5,0.5c0,0.4-0.3,0.5-0.5,0.5
			c0,0-0.5,0-0.5-0.6c0-0.9,0.7-1.8,1.9-1.8c1.2,0,2.1,0.8,2.1,1.9c0,1-0.6,1.5-2.2,2.9l-1.1,1H229.8z"/>
	</g>
	<g>
		<path class="st0" d="M294.4,157.6c-1.1,0-1.9-0.9-1.9-1.9c0-1,0.9-1.9,1.9-1.9c1,0,1.9,0.9,1.9,1.9S295.5,157.6,294.4,157.6z"/>
		<path class="st0" d="M308.2,157.6c-1.1,0-1.9-0.9-1.9-1.9c0-1,0.9-1.9,1.9-1.9c1,0,1.9,0.9,1.9,1.9S309.3,157.6,308.2,157.6z"/>
	</g>
	<g>
		<path class="st0" d="M249.2,100.1c-0.1,0.4-0.2,0.7-0.2,0.9c0,0.3,0.2,0.7,0.5,0.7c0.3,0,1-0.2,1.3-1.3c0-0.1,0-0.1,0.1-0.1
			c0,0,0.1,0,0.1,0.1c0,0.2-0.6,1.5-1.6,1.5c-0.6,0-1-0.4-1.1-0.8c0,0.1-0.4,0.8-1,0.8c-0.4,0-0.9-0.2-0.9-0.7
			c0-0.3,0.2-0.6,0.5-0.6c0.1,0,0.4,0.1,0.4,0.3c0,0.3-0.2,0.5-0.5,0.5c0.2,0.1,0.4,0.1,0.5,0.1c0.4,0,0.8-0.4,0.9-1
			c0.4-1.4,0.5-2.1,0.5-2.4c0-0.6-0.3-0.7-0.5-0.7c-0.3,0-1,0.2-1.3,1.3c0,0.1,0,0.1-0.1,0.1c0,0-0.1,0-0.1-0.1
			c0-0.2,0.6-1.5,1.6-1.5c0.3,0,0.8,0.1,1.1,0.8c0.1-0.2,0.5-0.8,1-0.8c0.3,0,0.9,0.1,0.9,0.7c0,0.4-0.3,0.6-0.5,0.6
			c-0.3,0-0.4-0.2-0.4-0.3c0-0.2,0.2-0.5,0.5-0.5c-0.2-0.1-0.4-0.1-0.5-0.1c-0.7,0-0.9,0.9-1,1.2L249.2,100.1z"/>
	</g>
	<g>
		<path class="st0" d="M253,104.3v-10h1.4v0.4h-1v9.2h1v0.4H253z"/>
	</g>
	<g>
		<path class="st3" d="M258.2,101.3h1.4v0.5c-0.4,0-1.5,0-2,0s-1.5,0-2,0v-0.5h1.4v-5.2c-0.6,0.2-1.1,0.2-1.3,0.2h-0.2v-0.5h0.2
			c0.2,0,1.2,0,2-0.6c0.1-0.1,0.1-0.1,0.2-0.1c0.3,0,0.3,0.1,0.3,0.3V101.3z"/>
	</g>
	<g>
		<path class="st0" d="M263.8,99.5c-0.2,0-0.3,0-0.3-0.2c0-0.2,0.2-0.2,0.3-0.2h5.4c0.2,0,0.3,0,0.3,0.2c0,0.2-0.2,0.2-0.3,0.2
			H263.8z"/>
	</g>
	<g>
		<path class="st0" d="M274.4,99.2c0.4-0.1,0.8-0.5,1.1-0.9c0.7-0.8,1.2-0.9,1.5-0.9c0.4,0,0.7,0.3,0.7,0.6c0,0.4-0.3,0.6-0.5,0.6
			c-0.3,0-0.4-0.2-0.4-0.3c0-0.1,0.1-0.5,0.6-0.5c0,0,0,0,0,0c-0.1-0.1-0.1-0.1-0.2-0.1c0,0,0,0-0.1,0c-0.5,0-0.9,0.4-1.4,1
			c-0.2,0.2-0.5,0.6-0.9,0.7c0.8,0.1,1.5,0.4,1.5,1c0,0.1,0,0.1,0,0.3c0,0.2-0.1,0.4-0.1,0.6c0,0.4,0.1,0.5,0.3,0.5
			c0.4,0,0.7-0.5,0.9-1.2c0-0.1,0-0.2,0.1-0.2c0,0,0.1,0,0.1,0.1c0,0-0.1,0.6-0.4,1c-0.2,0.4-0.5,0.5-0.8,0.5c-0.5,0-0.9-0.4-0.9-1
			c0-0.1,0-0.2,0-0.3c0-0.1,0-0.1,0-0.2c0-0.7-0.8-0.8-1.2-0.8c-0.1,0.2-0.5,2.1-0.6,2.2c-0.1,0.1-0.2,0.2-0.3,0.2
			c-0.1,0-0.3,0-0.3-0.3c0-0.1,0-0.1,0-0.2l1.4-5.7l0-0.2c0-0.1,0-0.2-0.5-0.2c-0.1,0-0.2,0-0.2-0.1c0-0.2,0.1-0.2,0.2-0.2
			c0.3,0,1-0.1,1.2-0.1c0.1,0,0.1,0.1,0.1,0.1L274.4,99.2z"/>
	</g>
	<g>
		<path class="st0" d="M279.7,104.3h-1.4v-0.4h1v-9.2h-1v-0.4h1.4V104.3z"/>
	</g>
	<g>
		<path class="st0" d="M280.8,157.6c-1.1,0-1.9-0.9-1.9-1.9c0-1,0.9-1.9,1.9-1.9c1,0,1.9,0.9,1.9,1.9S281.8,157.6,280.8,157.6z"/>
	</g>
	<line class="st1" x1="239.6" y1="155.9" x2="239.6" y2="127.6"/>
	<g>
		<path class="st0" d="M239.6,129.2c-1.1,0-1.9-0.9-1.9-1.9c0-1,0.9-1.9,1.9-1.9c1,0,1.9,0.9,1.9,1.9
			C241.5,128.3,240.6,129.2,239.6,129.2z"/>
	</g>
	<line class="st1" x1="225.9" y1="155.9" x2="225.9" y2="113.4"/>
	<g>
		<path class="st0" d="M225.9,115c-1.1,0-1.9-0.9-1.9-1.9c0-1,0.9-1.9,1.9-1.9c1,0,1.9,0.9,1.9,1.9C227.9,114.1,227,115,225.9,115z"
			/>
	</g>
	<line class="st1" x1="253.3" y1="155.9" x2="253.3" y2="141.7"/>
	<g>
		<path class="st0" d="M253.3,143.4c-1.1,0-1.9-0.9-1.9-1.9c0-1,0.9-1.9,1.9-1.9c1,0,1.9,0.9,1.9,1.9S254.3,143.4,253.3,143.4z"/>
	</g>
	<line class="st1" x1="35.4" y1="205.5" x2="42.5" y2="205.5"/>
	<g>
		<path class="st0" d="M26.9,207c0,1-0.9,1.9-2.1,1.9c-1.1,0-2-0.7-2-1.6c0-0.4,0.3-0.6,0.6-0.6c0.3,0,0.6,0.2,0.6,0.6
			c0,0.4-0.3,0.6-0.7,0.5c0.3,0.6,1.1,0.8,1.5,0.8c0.4,0,1.1-0.3,1.1-1.6c0-1-0.4-1.7-1.2-1.7h-0.4c-0.2,0-0.2,0-0.2-0.1
			c0-0.1,0.1-0.1,0.1-0.1c0.1,0,0.3,0,0.4,0c0.2,0,0.6,0,0.9-0.5c0.3-0.4,0.3-1,0.3-1.1c0-0.9-0.5-1.1-1-1.1c-0.4,0-1,0.1-1.3,0.6
			c0.1,0,0.6,0,0.6,0.5c0,0.3-0.2,0.5-0.5,0.5c-0.3,0-0.5-0.2-0.5-0.5c0-0.8,0.8-1.4,1.8-1.4c1,0,1.8,0.6,1.8,1.4
			c0,0.8-0.6,1.5-1.4,1.8C26.2,205.4,26.9,206.2,26.9,207z"/>
	</g>
	<polyline points="158.5,250.3 163,248 158.5,245.8 159.6,248 	"/>
	<line class="st1" x1="0" y1="248" x2="159.6" y2="248"/>
	<g>
		<path class="st0" d="M1.9,259.2c-0.2,0-0.3,0-0.3-0.2s0.2-0.2,0.3-0.2h5.4c0.2,0,0.3,0,0.3,0.2s-0.2,0.2-0.3,0.2H1.9z"/>
	</g>
	<g>
		<path class="st0" d="M11.6,260.7c0.2,0,0.9,0,0.9-0.1c0.1-0.1,0.2-0.6,0.2-0.9H13l-0.3,1.7H9c0-0.2,0-0.3,0.1-0.4L11,259
			c0.5-0.6,1-1.4,1-2.2c0-0.8-0.4-1.6-1.3-1.6c-0.6,0-1.1,0.4-1.3,1c0,0,0,0,0.1,0c0.3,0,0.5,0.3,0.5,0.5c0,0.4-0.3,0.5-0.5,0.5
			c0,0-0.5,0-0.5-0.6c0-0.9,0.7-1.8,1.9-1.8c1.2,0,2.1,0.8,2.1,1.9c0,1-0.6,1.5-2.2,2.9l-1.1,1H11.6z"/>
	</g>
	<g>
		<path class="st0" d="M7.2,249.6c-1.1,0-1.9-0.9-1.9-1.9c0-1,0.9-1.9,1.9-1.9c1,0,1.9,0.9,1.9,1.9S8.2,249.6,7.2,249.6z"/>
	</g>
	<polyline points="37.7,188.8 35.4,184.3 33.2,188.8 35.4,187.7 	"/>
	<line class="st1" x1="35.4" y1="251.6" x2="35.4" y2="187.7"/>
	<g>
		<path class="st0" d="M21.3,249.6c-1.1,0-1.9-0.9-1.9-1.9c0-1,0.9-1.9,1.9-1.9c1,0,1.9,0.9,1.9,1.9S22.4,249.6,21.3,249.6z"/>
	</g>
	<g>
		<path class="st0" d="M120.6,249.6c-1.1,0-1.9-0.9-1.9-1.9c0-1,0.9-1.9,1.9-1.9c1,0,1.9,0.9,1.9,1.9S121.6,249.6,120.6,249.6z"/>
		<path class="st0" d="M134.7,249.6c-1.1,0-1.9-0.9-1.9-1.9c0-1,0.9-1.9,1.9-1.9c1,0,1.9,0.9,1.9,1.9S135.8,249.6,134.7,249.6z"/>
		<path class="st0" d="M148.9,249.6c-1.1,0-1.9-0.9-1.9-1.9c0-1,0.9-1.9,1.9-1.9c1,0,1.9,0.9,1.9,1.9S149.9,249.6,148.9,249.6z"/>
	</g>
	<g>
		<path class="st0" d="M16.2,259.2c-0.2,0-0.3,0-0.3-0.2s0.2-0.2,0.3-0.2h5.4c0.2,0,0.3,0,0.3,0.2s-0.2,0.2-0.3,0.2H16.2z"/>
	</g>
	<g>
		<path class="st0" d="M25.7,260.7c0,0.4,0,0.5,0.9,0.5H27v0.3c-0.3,0-1.2,0-1.6,0c-0.4,0-1.3,0-1.6,0v-0.3H24
			c0.9,0,0.9-0.1,0.9-0.5v-5.2c-0.5,0.3-1.1,0.3-1.3,0.3v-0.3c0.3,0,1.2,0,1.8-0.6c0.2,0,0.2,0,0.2,0.3V260.7z"/>
	</g>
	<g>
		<path class="st0" d="M37.2,260.9c-0.4,0.9-1.2,1.2-1.7,1.2c-0.5,0-1.2-0.2-1.6-1c-0.4-0.8-0.4-1.7-0.4-2.4c0-0.8,0-1.6,0.4-2.3
			c0.4-0.9,1.1-1.2,1.7-1.2c0.4,0,1.2,0.2,1.7,1.1c0.3,0.7,0.4,1.5,0.4,2.3C37.6,259.4,37.5,260.2,37.2,260.9z M36.6,260.6
			c0.1-0.6,0.1-1.3,0.1-2.1c0-0.6,0-1.4-0.1-1.9c-0.2-1-0.8-1.2-1.2-1.2c-0.2,0-1,0.1-1.2,1.3c-0.1,0.5-0.1,1.2-0.1,1.8
			c0,0.6,0,1.5,0.1,2.1c0.2,1,0.8,1.2,1.2,1.2C35.9,261.8,36.5,261.5,36.6,260.6z"/>
		<path class="st0" d="M50.1,261.1c0,0.4,0,0.5,0.9,0.5h0.3v0.3c-0.3,0-1.2,0-1.6,0c-0.4,0-1.3,0-1.6,0v-0.3h0.3
			c0.9,0,0.9-0.1,0.9-0.5v-5.2c-0.5,0.3-1.1,0.3-1.3,0.3v-0.3c0.3,0,1.2,0,1.8-0.6c0.2,0,0.2,0,0.2,0.3V261.1z"/>
		<path class="st0" d="M64.4,261.1c0.2,0,0.9,0,0.9-0.1c0.1-0.1,0.2-0.6,0.2-0.9h0.2l-0.3,1.7h-3.7c0-0.2,0-0.3,0.1-0.4l1.9-2.1
			c0.5-0.6,1-1.4,1-2.2c0-0.8-0.4-1.6-1.3-1.6c-0.6,0-1.1,0.4-1.3,1c0,0,0,0,0.1,0c0.3,0,0.5,0.3,0.5,0.5c0,0.4-0.3,0.5-0.5,0.5
			c0,0-0.5,0-0.5-0.6c0-0.9,0.7-1.8,1.9-1.8c1.2,0,2.1,0.8,2.1,1.9c0,1-0.6,1.5-2.2,2.9l-1.1,1H64.4z"/>
		<path class="st0" d="M80,260.1c0,1-0.9,1.9-2.1,1.9c-1.1,0-2-0.7-2-1.6c0-0.4,0.3-0.6,0.6-0.6c0.3,0,0.6,0.2,0.6,0.6
			c0,0.4-0.3,0.6-0.7,0.5c0.3,0.6,1.1,0.8,1.5,0.8c0.4,0,1.1-0.3,1.1-1.6c0-1-0.4-1.7-1.2-1.7h-0.4c-0.2,0-0.2,0-0.2-0.1
			c0-0.1,0.1-0.1,0.1-0.1c0.1,0,0.3,0,0.4,0c0.2,0,0.6,0,0.9-0.5c0.3-0.4,0.3-1,0.3-1.1c0-0.9-0.5-1.1-1-1.1c-0.4,0-1,0.1-1.3,0.6
			c0.1,0,0.6,0,0.6,0.5c0,0.3-0.2,0.5-0.5,0.5c-0.3,0-0.5-0.2-0.5-0.5c0-0.8,0.8-1.4,1.8-1.4c1,0,1.8,0.6,1.8,1.4
			c0,0.8-0.6,1.5-1.4,1.8C79.4,258.5,80,259.3,80,260.1z"/>
		<path class="st0" d="M89.9,260.2v-0.3l3.1-4.7c0.1-0.1,0.1-0.1,0.2-0.1c0.2,0,0.2,0.1,0.2,0.3v4.5h1v0.3h-1v0.9
			c0,0.4,0,0.5,0.8,0.5h0.2v0.3c-0.4,0-0.9,0-1.4,0s-0.9,0-1.3,0v-0.3h0.2c0.7,0,0.8-0.1,0.8-0.5v-0.9H89.9z M92.6,256.2l-2.4,3.7
			h2.4V256.2z"/>
		<path class="st0" d="M106.1,262.1c-1.1,0-1.8-1-1.8-1.8c0-0.5,0.3-0.5,0.5-0.5c0.3,0,0.5,0.2,0.5,0.5c0,0.2-0.2,0.5-0.5,0.5
			c-0.1,0-0.1,0-0.2,0c0.2,0.6,0.7,1.1,1.5,1.1c0.5,0,0.8-0.3,1.1-0.6c0.2-0.4,0.2-1,0.2-1.4c0-0.5,0-0.9-0.2-1.3
			c-0.1-0.2-0.3-0.6-0.8-0.6c-0.8,0-1.2,0.5-1.3,0.7c0,0.1-0.1,0.1-0.1,0.1c-0.1,0-0.1-0.1-0.1-0.3v-2.9c0-0.2,0-0.2,0.1-0.2
			c0,0,0,0,0.1,0c0.5,0.2,0.9,0.3,1.3,0.3c0.7,0,1.2-0.2,1.4-0.3c0,0,0.1,0,0.1,0c0.1,0,0.1,0,0.1,0.1c0,0.1-0.7,1-1.9,1
			c-0.3,0-0.6-0.1-0.8-0.1v1.9c0.4-0.3,0.8-0.5,1.3-0.5c1.1,0,1.9,1,1.9,2.2C108.2,261.1,107.2,262.1,106.1,262.1z"/>
	</g>
	<g>
		<path class="st0" d="M120.6,257.6c1.1,0,2,1,2,2.2c0,1.3-0.9,2.3-2.1,2.3c-0.9,0-2.1-0.7-2.1-3.4c0-2.2,1.3-3.5,2.6-3.5
			c0.8,0,1.3,0.5,1.3,1.1c0,0.4-0.3,0.5-0.5,0.5c-0.2,0-0.5-0.1-0.5-0.5c0-0.4,0.4-0.4,0.5-0.4c-0.2-0.3-0.6-0.4-0.9-0.4
			c-0.5,0-1.7,0.4-1.7,2.9v0.2C119.6,258.1,119.9,257.6,120.6,257.6z M121.6,261.1c0.2-0.4,0.2-0.9,0.2-1.3c0-0.5,0-1-0.2-1.4
			c-0.3-0.6-0.8-0.6-0.9-0.6c-0.9,0-1.2,1-1.2,1.8c0,0.2,0,1,0.2,1.4c0.1,0.1,0.4,0.7,1,0.7C120.8,261.8,121.3,261.7,121.6,261.1z"
			/>
		<path class="st0" d="M135.6,257.7c-0.4,0.6-0.6,1.5-0.6,1.7c-0.1,0.5-0.1,1.1-0.1,1.6v0.5c0,0.1,0,0.5-0.5,0.5s-0.5-0.4-0.5-0.5
			c0-1,0.3-2.4,1.2-3.7c0.2-0.3,1-1.4,1.1-1.6h-2.1c-0.1,0-0.9,0-1,0.1c-0.1,0.1-0.2,0.7-0.2,0.9h-0.2l0.3-2.1h0.2
			c0,0.2,0.1,0.3,1.3,0.3h2.4c0,0.2,0,0.2-0.1,0.3L135.6,257.7z"/>
		<path class="st0" d="M150.4,258.9c0.4,0.4,0.5,0.9,0.5,1.2c0,1.1-0.9,1.9-2.1,1.9c-1,0-2.1-0.7-2.1-1.7c0-1,0.9-1.5,1.4-1.8
			c-0.2-0.2-0.6-0.4-0.7-0.5c-0.4-0.5-0.4-0.9-0.4-1.1c0-0.9,0.8-1.7,1.8-1.7c0.9,0,1.8,0.6,1.8,1.5c0,0.7-0.5,1.2-1.2,1.5
			C150.1,258.6,150.3,258.7,150.4,258.9z M147.3,260.3c0,0.8,0.7,1.4,1.6,1.4c0.8,0,1.6-0.5,1.6-1.3c0-0.6-0.5-0.9-0.7-1.1l-1.2-0.8
			C147.6,259.1,147.3,259.8,147.3,260.3z M149.2,258.1c0.6-0.3,1-0.8,1-1.4c0-0.7-0.6-1.2-1.4-1.2c-0.7,0-1.4,0.4-1.4,1
			c0,0.2,0,0.5,0.5,0.8L149.2,258.1z"/>
	</g>
	<g>
		<path class="st0" d="M172.7,248.9c0.4-0.1,0.8-0.5,1.1-0.9c0.7-0.8,1.2-0.9,1.5-0.9c0.4,0,0.7,0.3,0.7,0.6c0,0.4-0.3,0.6-0.5,0.6
			c-0.3,0-0.4-0.2-0.4-0.3c0-0.1,0.1-0.5,0.6-0.5c0,0,0,0,0,0c-0.1-0.1-0.1-0.1-0.2-0.1c0,0,0,0-0.1,0c-0.5,0-0.9,0.4-1.4,1
			c-0.2,0.2-0.5,0.6-0.9,0.7c0.8,0.1,1.5,0.4,1.5,1c0,0.1,0,0.1,0,0.3c0,0.2-0.1,0.4-0.1,0.6c0,0.4,0.1,0.5,0.3,0.5
			c0.4,0,0.7-0.5,0.9-1.2c0-0.1,0-0.2,0.1-0.2c0,0,0.1,0,0.1,0.1c0,0-0.1,0.6-0.4,1c-0.2,0.4-0.5,0.5-0.8,0.5c-0.5,0-0.9-0.4-0.9-1
			c0-0.1,0-0.2,0-0.3c0-0.1,0-0.1,0-0.2c0-0.7-0.8-0.8-1.2-0.8c-0.1,0.3-0.5,2.1-0.6,2.2c-0.1,0.1-0.2,0.2-0.3,0.2
			c-0.1,0-0.3,0-0.3-0.3c0-0.1,0-0.1,0-0.2l1.4-5.7l0-0.2c0-0.1,0-0.2-0.5-0.2c-0.1,0-0.2,0-0.2-0.1c0-0.2,0.1-0.2,0.2-0.2
			c0.3,0,1-0.1,1.2-0.1c0.1,0,0.1,0.1,0.1,0.1L172.7,248.9z"/>
	</g>
	<path class="st1" d="M31.9,233.9H39 M31.9,219.7H39"/>
	<g>
		<path class="st0" d="M25.2,236.3c0,0.4,0,0.5,0.9,0.5h0.3v0.3c-0.3,0-1.2,0-1.6,0c-0.4,0-1.3,0-1.6,0v-0.3h0.3
			c0.9,0,0.9-0.1,0.9-0.5v-5.2c-0.5,0.3-1.1,0.3-1.3,0.3v-0.3c0.3,0,1.2,0,1.8-0.6c0.2,0,0.2,0,0.2,0.3V236.3z"/>
	</g>
	<g>
		<path class="st0" d="M25.4,222.1c0.2,0,0.9,0,0.9-0.1c0.1-0.1,0.2-0.6,0.2-0.9h0.2l-0.3,1.7h-3.7c0-0.2,0-0.3,0.1-0.4l1.9-2.1
			c0.5-0.6,1-1.4,1-2.2c0-0.8-0.4-1.6-1.3-1.6c-0.6,0-1.1,0.4-1.3,1c0,0,0,0,0.1,0c0.3,0,0.5,0.3,0.5,0.5c0,0.4-0.3,0.5-0.5,0.5
			c0,0-0.5,0-0.5-0.6c0-0.9,0.7-1.8,1.9-1.8c1.2,0,2.1,0.8,2.1,1.9c0,1-0.6,1.5-2.2,2.9l-1.1,1H25.4z"/>
	</g>
	<g>
		<path class="st0" d="M92.1,249.6c-1.1,0-1.9-0.9-1.9-1.9c0-1,0.9-1.9,1.9-1.9c1,0,1.9,0.9,1.9,1.9S93.2,249.6,92.1,249.6z"/>
		<path class="st0" d="M106.3,249.6c-1.1,0-1.9-0.9-1.9-1.9c0-1,0.9-1.9,1.9-1.9c1,0,1.9,0.9,1.9,1.9S107.3,249.6,106.3,249.6z"/>
	</g>
	<g>
		<path class="st0" d="M45.9,192.2c-0.1,0.4-0.2,0.7-0.2,0.9c0,0.3,0.2,0.7,0.5,0.7c0.3,0,1-0.2,1.3-1.3c0-0.1,0-0.1,0.1-0.1
			c0,0,0.1,0,0.1,0.1c0,0.2-0.6,1.5-1.6,1.5c-0.6,0-1-0.4-1.1-0.8c0,0.1-0.4,0.8-1,0.8c-0.4,0-0.9-0.2-0.9-0.7
			c0-0.3,0.2-0.6,0.5-0.6c0.1,0,0.4,0.1,0.4,0.3c0,0.3-0.2,0.5-0.5,0.5c0.2,0.1,0.4,0.1,0.5,0.1c0.4,0,0.8-0.4,0.9-1
			c0.4-1.4,0.5-2.1,0.5-2.4c0-0.6-0.3-0.7-0.5-0.7c-0.3,0-1,0.2-1.3,1.3c0,0.1-0.1,0.1-0.1,0.1c0,0-0.1,0-0.1-0.1
			c0-0.3,0.6-1.5,1.6-1.5c0.3,0,0.8,0.1,1.1,0.8c0.1-0.2,0.5-0.8,1-0.8c0.3,0,0.9,0.1,0.9,0.7c0,0.4-0.3,0.6-0.5,0.6
			c-0.3,0-0.4-0.2-0.4-0.3c0-0.2,0.2-0.5,0.5-0.5c-0.2-0.1-0.4-0.1-0.5-0.1c-0.7,0-0.9,0.9-1,1.2L45.9,192.2z"/>
	</g>
	<g>
		<path class="st0" d="M49.8,196.3v-10h1.4v0.4h-1v9.2h1v0.4H49.8z"/>
	</g>
	<g>
		<path class="st4" d="M56.2,193.8h-4.3v-0.2c0-0.2,0-0.2,0.1-0.3l2-2c0.7-0.7,1.1-1.4,1.1-2.1c0-0.7-0.5-1.4-1.3-1.4
			c-0.4,0-0.7,0.1-1,0.3c0.1,0,0.6,0.2,0.6,0.7c0,0.5-0.4,0.7-0.7,0.7c-0.2,0-0.7-0.1-0.7-0.7c0-0.9,0.9-1.5,2.1-1.5
			c1.4,0,2.4,0.7,2.4,1.9c0,0.9-0.6,1.4-1.8,2.3c-0.4,0.3-1,0.8-1.4,1.1h1.5c0.2,0,0.9,0,1-0.1c0.1-0.1,0.2-0.7,0.3-0.9h0.5
			L56.2,193.8z"/>
	</g>
	<g>
		<path class="st0" d="M60.6,191.5c-0.2,0-0.3,0-0.3-0.2s0.2-0.2,0.3-0.2H66c0.2,0,0.3,0,0.3,0.2s-0.2,0.2-0.3,0.2H60.6z"/>
	</g>
	<g>
		<path class="st0" d="M71.2,191.2c0.4-0.1,0.8-0.5,1.1-0.9c0.7-0.8,1.2-0.9,1.5-0.9c0.4,0,0.7,0.3,0.7,0.6c0,0.4-0.3,0.6-0.5,0.6
			c-0.3,0-0.4-0.2-0.4-0.3c0-0.1,0.1-0.5,0.6-0.5c0,0,0,0,0,0c-0.1-0.1-0.1-0.1-0.2-0.1c0,0,0,0-0.1,0c-0.5,0-0.9,0.4-1.4,1
			c-0.2,0.2-0.5,0.6-0.9,0.7c0.8,0.1,1.5,0.4,1.5,1c0,0.1,0,0.1,0,0.3c0,0.2-0.1,0.4-0.1,0.6c0,0.4,0.1,0.5,0.3,0.5
			c0.4,0,0.7-0.5,0.9-1.2c0-0.1,0-0.2,0.1-0.2c0,0,0.1,0,0.1,0.1c0,0-0.1,0.6-0.4,1c-0.2,0.4-0.5,0.5-0.8,0.5c-0.5,0-0.9-0.4-0.9-1
			c0-0.1,0-0.2,0-0.3c0-0.1,0-0.1,0-0.2c0-0.7-0.8-0.8-1.2-0.8c-0.1,0.3-0.5,2.1-0.6,2.2c-0.1,0.1-0.2,0.2-0.3,0.2
			c-0.1,0-0.3,0-0.3-0.3c0-0.1,0-0.1,0-0.2l1.4-5.7l0-0.2c0-0.1,0-0.2-0.5-0.2c-0.1,0-0.2,0-0.2-0.1c0-0.2,0.1-0.2,0.2-0.2
			c0.3,0,1-0.1,1.2-0.1c0.1,0,0.1,0.1,0.1,0.1L71.2,191.2z"/>
	</g>
	<g>
		<path class="st0" d="M76.5,196.3h-1.4v-0.4h1v-9.2h-1v-0.4h1.4V196.3z"/>
	</g>
	<g>
		<path class="st0" d="M78,249.6c-1.1,0-1.9-0.9-1.9-1.9c0-1,0.9-1.9,1.9-1.9c1,0,1.9,0.9,1.9,1.9S79,249.6,78,249.6z"/>
	</g>
	<line class="st1" x1="49.6" y1="248" x2="49.6" y2="219.7"/>
	<g>
		<path class="st0" d="M49.6,221.3c-1.1,0-1.9-0.9-1.9-1.9c0-1,0.9-1.9,1.9-1.9c1,0,1.9,0.9,1.9,1.9S50.7,221.3,49.6,221.3z"/>
	</g>
	<line class="st1" x1="35.4" y1="248" x2="35.4" y2="205.5"/>
	<g>
		<path class="st0" d="M35.5,207.2c-1.1,0-1.9-0.9-1.9-1.9c0-1,0.9-1.9,1.9-1.9c1,0,1.9,0.9,1.9,1.9S36.5,207.2,35.5,207.2z"/>
	</g>
	<line class="st1" x1="63.8" y1="248" x2="63.8" y2="233.9"/>
	<g>
		<path class="st0" d="M63.8,235.5c-1.1,0-1.9-0.9-1.9-1.9c0-1,0.9-1.9,1.9-1.9c1,0,1.9,0.9,1.9,1.9S64.8,235.5,63.8,235.5z"/>
	</g>
	<polyline points="158.5,66 163,63.8 158.5,61.5 159.6,63.8 	"/>
	<line class="st1" x1="0" y1="63.8" x2="159.6" y2="63.8"/>
	<g>
		<path class="st0" d="M1.9,74.9c-0.2,0-0.3,0-0.3-0.2c0-0.2,0.2-0.2,0.3-0.2h5.4c0.2,0,0.3,0,0.3,0.2c0,0.2-0.2,0.2-0.3,0.2H1.9z"
			/>
	</g>
	<g>
		<path class="st0" d="M11.6,76.4c0.2,0,0.9,0,0.9-0.1c0.1-0.1,0.2-0.6,0.2-0.9H13l-0.3,1.7H9c0-0.2,0-0.3,0.1-0.4l1.9-2.1
			c0.5-0.6,1-1.4,1-2.2c0-0.8-0.4-1.6-1.3-1.6c-0.6,0-1.1,0.4-1.3,1c0,0,0,0,0.1,0c0.3,0,0.5,0.3,0.5,0.5c0,0.4-0.3,0.5-0.5,0.5
			c0,0-0.5,0-0.5-0.6c0-0.9,0.7-1.8,1.9-1.8c1.2,0,2.1,0.8,2.1,1.9c0,1-0.6,1.5-2.2,2.9l-1.1,1H11.6z"/>
	</g>
	<g>
		<path class="st0" d="M7.2,65.4c-1.1,0-1.9-0.9-1.9-1.9c0-1,0.9-1.9,1.9-1.9c1,0,1.9,0.9,1.9,1.9C9.1,64.6,8.2,65.4,7.2,65.4z"/>
	</g>
	<polyline points="37.7,4.5 35.4,0 33.2,4.5 35.4,3.4 	"/>
	<line class="st1" x1="35.4" y1="67.3" x2="35.4" y2="3.4"/>
	<g>
		<path class="st0" d="M21.3,65.4c-1.1,0-1.9-0.9-1.9-1.9c0-1,0.9-1.9,1.9-1.9c1,0,1.9,0.9,1.9,1.9C23.2,64.6,22.4,65.4,21.3,65.4z"
			/>
		<path class="st0" d="M78,65.4c-1.1,0-1.9-0.9-1.9-1.9c0-1,0.9-1.9,1.9-1.9c1,0,1.9,0.9,1.9,1.9C79.9,64.6,79,65.4,78,65.4z"/>
	</g>
	<g>
		<path class="st0" d="M120.6,65.4c-1.1,0-1.9-0.9-1.9-1.9c0-1,0.9-1.9,1.9-1.9c1,0,1.9,0.9,1.9,1.9
			C122.5,64.6,121.6,65.4,120.6,65.4z"/>
		<path class="st0" d="M134.7,65.4c-1.1,0-1.9-0.9-1.9-1.9c0-1,0.9-1.9,1.9-1.9c1,0,1.9,0.9,1.9,1.9
			C136.6,64.6,135.8,65.4,134.7,65.4z"/>
		<path class="st0" d="M148.9,65.4c-1.1,0-1.9-0.9-1.9-1.9c0-1,0.9-1.9,1.9-1.9c1,0,1.9,0.9,1.9,1.9
			C150.8,64.6,149.9,65.4,148.9,65.4z"/>
	</g>
	<g>
		<path class="st0" d="M16.2,74.9c-0.2,0-0.3,0-0.3-0.2c0-0.2,0.2-0.2,0.3-0.2h5.4c0.2,0,0.3,0,0.3,0.2c0,0.2-0.2,0.2-0.3,0.2H16.2z
			"/>
	</g>
	<g>
		<path class="st0" d="M25.7,76.4c0,0.4,0,0.5,0.9,0.5H27v0.3c-0.3,0-1.2,0-1.6,0c-0.4,0-1.3,0-1.6,0v-0.3H24c0.9,0,0.9-0.1,0.9-0.5
			v-5.2c-0.5,0.3-1.1,0.3-1.3,0.3v-0.3c0.3,0,1.2,0,1.8-0.6c0.2,0,0.2,0,0.2,0.3V76.4z"/>
	</g>
	<g>
		<path class="st0" d="M37.2,76.7c-0.4,0.9-1.2,1.2-1.7,1.2c-0.5,0-1.2-0.2-1.6-1c-0.4-0.8-0.4-1.7-0.4-2.4c0-0.8,0-1.6,0.4-2.3
			c0.4-0.9,1.1-1.2,1.7-1.2c0.4,0,1.2,0.2,1.7,1.1c0.3,0.7,0.4,1.5,0.4,2.3C37.6,75.2,37.5,76,37.2,76.7z M36.6,76.4
			c0.1-0.6,0.1-1.3,0.1-2.1c0-0.6,0-1.4-0.1-1.9c-0.2-1-0.8-1.2-1.2-1.2c-0.2,0-1,0.1-1.2,1.3c-0.1,0.5-0.1,1.2-0.1,1.8
			c0,0.6,0,1.5,0.1,2.1c0.2,1,0.8,1.2,1.2,1.2C35.9,77.6,36.5,77.3,36.6,76.4z"/>
		<path class="st0" d="M50.1,76.9c0,0.4,0,0.5,0.9,0.5h0.3v0.3c-0.3,0-1.2,0-1.6,0c-0.4,0-1.3,0-1.6,0v-0.3h0.3
			c0.9,0,0.9-0.1,0.9-0.5v-5.2C48.8,72,48.2,72,48,72v-0.3c0.3,0,1.2,0,1.8-0.6c0.2,0,0.2,0,0.2,0.3V76.9z"/>
		<path class="st0" d="M64.4,76.9c0.2,0,0.9,0,0.9-0.1c0.1-0.1,0.2-0.6,0.2-0.9h0.2l-0.3,1.7h-3.7c0-0.2,0-0.3,0.1-0.4l1.9-2.1
			c0.5-0.6,1-1.4,1-2.2c0-0.8-0.4-1.6-1.3-1.6c-0.6,0-1.1,0.4-1.3,1c0,0,0,0,0.1,0c0.3,0,0.5,0.3,0.5,0.5c0,0.4-0.3,0.5-0.5,0.5
			c0,0-0.5,0-0.5-0.6c0-0.9,0.7-1.8,1.9-1.8c1.2,0,2.1,0.8,2.1,1.9c0,1-0.6,1.5-2.2,2.9l-1.1,1H64.4z"/>
		<path class="st0" d="M80,75.9c0,1-0.9,1.9-2.1,1.9c-1.1,0-2-0.7-2-1.6c0-0.4,0.3-0.6,0.6-0.6c0.3,0,0.6,0.2,0.6,0.6
			c0,0.4-0.3,0.6-0.7,0.5c0.3,0.6,1.1,0.8,1.5,0.8c0.4,0,1.1-0.3,1.1-1.6c0-1-0.4-1.7-1.2-1.7h-0.4c-0.2,0-0.2,0-0.2-0.1
			c0-0.1,0.1-0.1,0.1-0.1c0.1,0,0.3,0,0.4,0c0.2,0,0.6,0,0.9-0.5c0.3-0.4,0.3-1,0.3-1.1c0-0.9-0.5-1.1-1-1.1c-0.4,0-1,0.1-1.3,0.6
			c0.1,0,0.6,0,0.6,0.5c0,0.3-0.2,0.5-0.5,0.5c-0.3,0-0.5-0.2-0.5-0.5c0-0.8,0.8-1.4,1.8-1.4c1,0,1.8,0.6,1.8,1.4
			c0,0.8-0.6,1.5-1.4,1.8C79.4,74.3,80,75.1,80,75.9z"/>
		<path class="st0" d="M89.9,76v-0.3L93,71c0.1-0.1,0.1-0.1,0.2-0.1c0.2,0,0.2,0.1,0.2,0.3v4.5h1V76h-1v0.9c0,0.4,0,0.5,0.8,0.5h0.2
			v0.3c-0.4,0-0.9,0-1.4,0s-0.9,0-1.3,0v-0.3h0.2c0.7,0,0.8-0.1,0.8-0.5V76H89.9z M92.6,72l-2.4,3.7h2.4V72z"/>
		<path class="st0" d="M106.1,77.9c-1.1,0-1.8-1-1.8-1.8c0-0.5,0.3-0.5,0.5-0.5c0.3,0,0.5,0.2,0.5,0.5s-0.2,0.5-0.5,0.5
			c-0.1,0-0.1,0-0.2,0c0.2,0.6,0.7,1.1,1.5,1.1c0.5,0,0.8-0.3,1.1-0.6c0.2-0.4,0.2-1,0.2-1.4c0-0.5,0-0.9-0.2-1.3
			c-0.1-0.2-0.3-0.6-0.8-0.6c-0.8,0-1.2,0.5-1.3,0.7c0,0.1-0.1,0.1-0.1,0.1c-0.1,0-0.1-0.1-0.1-0.3v-2.9c0-0.2,0-0.2,0.1-0.2
			c0,0,0,0,0.1,0c0.5,0.2,0.9,0.3,1.3,0.3c0.7,0,1.2-0.2,1.4-0.3c0,0,0.1,0,0.1,0c0.1,0,0.1,0,0.1,0.1c0,0.1-0.7,1-1.9,1
			c-0.3,0-0.6-0.1-0.8-0.1V74c0.4-0.3,0.8-0.5,1.3-0.5c1.1,0,1.9,1,1.9,2.2C108.2,76.9,107.2,77.9,106.1,77.9z"/>
	</g>
	<g>
		<path class="st0" d="M120.6,73.4c1.1,0,2,1,2,2.2c0,1.3-0.9,2.3-2.1,2.3c-0.9,0-2.1-0.7-2.1-3.4c0-2.2,1.3-3.5,2.6-3.5
			c0.8,0,1.3,0.5,1.3,1.1c0,0.4-0.3,0.5-0.5,0.5c-0.2,0-0.5-0.1-0.5-0.5c0-0.4,0.4-0.4,0.5-0.4c-0.2-0.3-0.6-0.4-0.9-0.4
			c-0.5,0-1.7,0.4-1.7,2.9v0.2C119.6,73.9,119.9,73.4,120.6,73.4z M121.6,76.9c0.2-0.4,0.2-0.9,0.2-1.3c0-0.5,0-1-0.2-1.4
			c-0.3-0.6-0.8-0.6-0.9-0.6c-0.9,0-1.2,1-1.2,1.8c0,0.2,0,1,0.2,1.4c0.1,0.1,0.4,0.7,1,0.7C120.8,77.6,121.3,77.5,121.6,76.9z"/>
		<path class="st0" d="M135.6,73.5c-0.4,0.6-0.6,1.5-0.6,1.7c-0.1,0.5-0.1,1.1-0.1,1.6v0.5c0,0.1,0,0.5-0.5,0.5s-0.5-0.4-0.5-0.5
			c0-1,0.3-2.4,1.2-3.7c0.2-0.3,1-1.4,1.1-1.6h-2.1c-0.1,0-0.9,0-1,0.1c-0.1,0.1-0.2,0.7-0.2,0.9h-0.2l0.3-2.1h0.2
			c0,0.2,0.1,0.3,1.3,0.3h2.4c0,0.2,0,0.2-0.1,0.3L135.6,73.5z"/>
		<path class="st0" d="M150.4,74.7c0.4,0.4,0.5,0.9,0.5,1.2c0,1.1-0.9,1.9-2.1,1.9c-1,0-2.1-0.7-2.1-1.7c0-1,0.9-1.5,1.4-1.8
			c-0.2-0.2-0.6-0.4-0.7-0.5c-0.4-0.5-0.4-0.9-0.4-1.1c0-0.9,0.8-1.7,1.8-1.7c0.9,0,1.8,0.6,1.8,1.5c0,0.7-0.5,1.2-1.2,1.5
			C150.1,74.4,150.3,74.5,150.4,74.7z M147.3,76.1c0,0.8,0.7,1.4,1.6,1.4c0.8,0,1.6-0.5,1.6-1.3c0-0.6-0.5-0.9-0.7-1.1l-1.2-0.8
			C147.6,74.9,147.3,75.6,147.3,76.1z M149.2,73.9c0.6-0.3,1-0.8,1-1.4c0-0.7-0.6-1.2-1.4-1.2c-0.7,0-1.4,0.4-1.4,1
			c0,0.2,0,0.5,0.5,0.8L149.2,73.9z"/>
	</g>
	<g>
		<path class="st0" d="M172.7,64.6c0.4-0.1,0.8-0.5,1.1-0.9c0.7-0.8,1.2-0.9,1.5-0.9c0.4,0,0.7,0.3,0.7,0.6c0,0.4-0.3,0.6-0.5,0.6
			c-0.3,0-0.4-0.2-0.4-0.3c0-0.1,0.1-0.5,0.6-0.5c0,0,0,0,0,0c-0.1-0.1-0.1-0.1-0.2-0.1c0,0,0,0-0.1,0c-0.5,0-0.9,0.4-1.4,1
			c-0.2,0.2-0.5,0.6-0.9,0.7c0.8,0.1,1.5,0.4,1.5,1c0,0.1,0,0.1,0,0.3c0,0.2-0.1,0.4-0.1,0.6c0,0.4,0.1,0.5,0.3,0.5
			c0.4,0,0.7-0.5,0.9-1.2c0-0.1,0-0.2,0.1-0.2c0,0,0.1,0,0.1,0.1c0,0-0.1,0.6-0.4,1c-0.2,0.4-0.5,0.5-0.8,0.5c-0.5,0-0.9-0.4-0.9-1
			c0-0.1,0-0.2,0-0.3c0-0.1,0-0.1,0-0.2c0-0.7-0.8-0.8-1.2-0.8c-0.1,0.2-0.5,2.1-0.6,2.2c-0.1,0.1-0.2,0.2-0.3,0.2
			c-0.1,0-0.3,0-0.3-0.3c0-0.1,0-0.1,0-0.2l1.4-5.7l0-0.2c0-0.1,0-0.2-0.5-0.2c-0.1,0-0.2,0-0.2-0.1c0-0.2,0.1-0.2,0.2-0.2
			c0.3,0,1-0.1,1.2-0.1c0.1,0,0.1,0.1,0.1,0.1L172.7,64.6z"/>
	</g>
	<path class="st1" d="M31.9,49.6H39 M31.9,35.4H39 M31.9,21.3H39"/>
	<g>
		<path class="st0" d="M25.2,52c0,0.4,0,0.5,0.9,0.5h0.3v0.3c-0.3,0-1.2,0-1.6,0c-0.4,0-1.3,0-1.6,0v-0.3h0.3c0.9,0,0.9-0.1,0.9-0.5
			v-5.2c-0.5,0.3-1.1,0.3-1.3,0.3v-0.3c0.3,0,1.2,0,1.8-0.6c0.2,0,0.2,0,0.2,0.3V52z"/>
	</g>
	<g>
		<path class="st0" d="M25.4,37.9c0.2,0,0.9,0,0.9-0.1c0.1-0.1,0.2-0.6,0.2-0.9h0.2l-0.3,1.7h-3.7c0-0.2,0-0.3,0.1-0.4l1.9-2.1
			c0.5-0.6,1-1.4,1-2.2c0-0.8-0.4-1.6-1.3-1.6c-0.6,0-1.1,0.4-1.3,1c0,0,0,0,0.1,0c0.3,0,0.5,0.3,0.5,0.5c0,0.4-0.3,0.5-0.5,0.5
			c0,0-0.5,0-0.5-0.6c0-0.9,0.7-1.8,1.9-1.8c1.2,0,2.1,0.8,2.1,1.9c0,1-0.6,1.5-2.2,2.9l-1.1,1H25.4z"/>
	</g>
	<g>
		<path class="st0" d="M26.9,22.8c0,1-0.9,1.9-2.1,1.9c-1.1,0-2-0.7-2-1.6c0-0.4,0.3-0.6,0.6-0.6c0.3,0,0.6,0.2,0.6,0.6
			c0,0.4-0.3,0.6-0.7,0.5c0.3,0.6,1.1,0.8,1.5,0.8c0.4,0,1.1-0.3,1.1-1.6c0-1-0.4-1.7-1.2-1.7h-0.4c-0.2,0-0.2,0-0.2-0.1
			c0-0.1,0.1-0.1,0.1-0.1c0.1,0,0.3,0,0.4,0c0.2,0,0.6,0,0.9-0.5c0.3-0.4,0.3-1,0.3-1.1c0-0.9-0.5-1.1-1-1.1c-0.4,0-1,0.1-1.3,0.6
			c0.1,0,0.6,0,0.6,0.5c0,0.3-0.2,0.5-0.5,0.5c-0.3,0-0.5-0.2-0.5-0.5c0-0.8,0.8-1.4,1.8-1.4c1,0,1.8,0.6,1.8,1.4
			c0,0.8-0.6,1.5-1.4,1.8C26.2,21.2,26.9,22,26.9,22.8z"/>
	</g>
	<line class="st1" x1="49.6" y1="63.8" x2="49.6" y2="49.6"/>
	<g>
		<path class="st0" d="M49.6,51.3c-1.1,0-1.9-0.9-1.9-1.9c0-1,0.9-1.9,1.9-1.9c1,0,1.9,0.9,1.9,1.9C51.6,50.4,50.7,51.3,49.6,51.3z"
			/>
	</g>
	<line class="st1" x1="63.8" y1="63.8" x2="63.8" y2="49.6"/>
	<g>
		<path class="st0" d="M63.8,51.3c-1.1,0-1.9-0.9-1.9-1.9c0-1,0.9-1.9,1.9-1.9c1,0,1.9,0.9,1.9,1.9C65.7,50.4,64.8,51.3,63.8,51.3z"
			/>
	</g>
	<line class="st1" x1="35.4" y1="63.8" x2="35.4" y2="49.6"/>
	<g>
		<path class="st0" d="M35.5,51.3c-1.1,0-1.9-0.9-1.9-1.9c0-1,0.9-1.9,1.9-1.9c1,0,1.9,0.9,1.9,1.9C37.4,50.4,36.5,51.3,35.5,51.3z"
			/>
	</g>
	<g>
		<path class="st0" d="M92.1,65.4c-1.1,0-1.9-0.9-1.9-1.9c0-1,0.9-1.9,1.9-1.9c1,0,1.9,0.9,1.9,1.9C94.1,64.6,93.2,65.4,92.1,65.4z"
			/>
		<path class="st0" d="M106.3,65.4c-1.1,0-1.9-0.9-1.9-1.9c0-1,0.9-1.9,1.9-1.9c1,0,1.9,0.9,1.9,1.9
			C108.2,64.6,107.3,65.4,106.3,65.4z"/>
	</g>
	<line class="st5" x1="248" y1="248" x2="248" y2="240.9"/>
	<g>
		<path class="st2" d="M248.1,242.6c-1.1,0-1.9-0.9-1.9-1.9c0-1,0.9-1.9,1.9-1.9c1,0,1.9,0.9,1.9,1.9S249.2,242.6,248.1,242.6z"/>
	</g>
	<line class="st6" x1="262.2" y1="248" x2="262.2" y2="226.8"/>
	<g>
		<path class="st3" d="M262.3,228.4c-1.1,0-1.9-0.9-1.9-1.9c0-1,0.9-1.9,1.9-1.9c1,0,1.9,0.9,1.9,1.9S263.3,228.4,262.3,228.4z"/>
	</g>
	<line class="st7" x1="276.4" y1="248" x2="276.4" y2="205.5"/>
	<g>
		<path class="st4" d="M276.4,207.2c-1.1,0-1.9-0.9-1.9-1.9c0-1,0.9-1.9,1.9-1.9c1,0,1.9,0.9,1.9,1.9S277.5,207.2,276.4,207.2z"/>
	</g>
</g>
</svg>
