<?xml version="1.0" encoding="utf-8"?>
<!-- Generator: Adobe Illustrator 22.1.0, SVG Export Plug-In . SVG Version: 6.00 Build 0)  -->
<svg version="1.1" id="Layer_1" xmlns="http://www.w3.org/2000/svg" xmlns:xlink="http://www.w3.org/1999/xlink" x="0px" y="0px"
	 viewBox="0 0 294.9 101.4" style="enable-background:new 0 0 294.9 101.4;" xml:space="preserve">
<style type="text/css">
	.st0{fill:#1D1D1B;}
	.st1{fill:none;stroke:#000000;stroke-width:0.8504;stroke-miterlimit:10;}
	.st2{fill:none;stroke:#FF0000;stroke-width:1.7008;stroke-miterlimit:10;}
	.st3{fill:none;stroke:#000000;stroke-width:0.5669;stroke-linecap:round;stroke-miterlimit:10;stroke-dasharray:0,3.4258;}
</style>
<g>
	<g>
		<path class="st0" d="M51.1,56.2c-1.8,0-3.3-1.5-3.3-3.3c0-1.8,1.5-3.3,3.3-3.3c1.8,0,3.3,1.5,3.3,3.3C54.5,54.7,53,56.2,51.1,56.2
			z M51,52.9l-2.1-2.1c-0.5,0.6-0.8,1.3-0.8,2.1c0,0.6,0.2,1.4,0.8,2.1L51,52.9z M51.1,53.1l-2.1,2.1c0.8,0.8,1.7,0.8,2.1,0.8
			c1.3,0,2.1-0.8,2.1-0.8c0,0-0.1-0.1-0.1-0.1L51.1,53.1z M51.2,52.8l2.1-2.1c-0.8-0.8-1.7-0.8-2.1-0.8c-1.3,0-2.1,0.8-2.1,0.8
			c0,0,0.1,0.1,0.1,0.1L51.2,52.8z M51.3,52.9l2.1,2.1c0.5-0.6,0.8-1.3,0.8-2.1c0-0.8-0.3-1.6-0.8-2.1L51.3,52.9z"/>
	</g>
	<line class="st1" x1="65.3" y1="67.1" x2="51.1" y2="67.1"/>
	<polyline points="53.4,61 51.1,56.4 48.8,61 51.1,59.8 	"/>
	<line class="st1" x1="51.1" y1="67.1" x2="51.1" y2="59.8"/>
	<polyline points="43,55.2 47.6,52.9 43,50.6 44.2,52.9 	"/>
	<line class="st1" x1="36.9" y1="52.9" x2="44.2" y2="52.9"/>
	<polyline points="53.4,39.7 51.1,35.2 48.8,39.7 51.1,38.6 	"/>
	<line class="st1" x1="51.1" y1="49.4" x2="51.1" y2="38.6"/>
	<polyline points="43,33.9 47.6,31.6 43,29.4 44.2,31.6 	"/>
	<line class="st1" x1="26.3" y1="31.6" x2="44.2" y2="31.6"/>
	<polyline points="106.8,33.9 111.4,31.6 106.8,29.4 108,31.6 	"/>
	<line class="st1" x1="54.7" y1="31.6" x2="108" y2="31.6"/>
	<g>
		<path class="st0" d="M51.1,35c-1.8,0-3.3-1.5-3.3-3.3c0-1.8,1.5-3.3,3.3-3.3c1.8,0,3.3,1.5,3.3,3.3C54.5,33.5,53,35,51.1,35z
			 M51,31.6v-2.9c-1.6,0.1-2.8,1.3-2.9,2.9H51z M51,31.8h-2.9c0.1,1.7,1.4,2.9,2.9,2.9V31.8z M51.3,31.6h2.9
			c-0.1-1.7-1.4-2.9-2.9-2.9V31.6z M51.3,31.8v2.9c1.5-0.1,2.8-1.2,2.9-2.9H51.3z"/>
	</g>
	<g>
		<path class="st0" d="M31.4,50.9c0.2,0,0.3,0.1,0.3,0.3c0,0,0,0.1-0.1,0.3l-0.4,1.4c-0.1,0.4-0.1,0.5-0.2,0.9
			c-0.1,0.4-0.1,0.5-0.1,0.7c0,0.2,0,0.5,0.3,0.5c0.4,0,0.6-0.6,0.8-1.2c0-0.1,0-0.2,0.1-0.2c0,0,0.1,0,0.1,0.1c0,0-0.1,0.6-0.3,1
			c-0.2,0.3-0.4,0.5-0.7,0.5c-0.5,0-0.8-0.3-0.9-0.7c-0.6,0.7-1.1,0.7-1.3,0.7c-0.8,0-1.3-0.7-1.3-1.6c0-1.5,1.2-2.9,2.4-2.9
			c0.4,0,0.7,0.3,0.9,0.6C31,51.1,31.1,50.9,31.4,50.9z M30.8,51.9c0,0,0-0.1,0-0.2c0-0.1-0.1-0.9-0.8-0.9c-0.4,0-0.8,0.4-1.2,1
			c-0.2,0.5-0.5,1.7-0.5,2.2c0,0.4,0.1,0.9,0.6,0.9c0.3,0,0.7-0.2,1.1-0.7c0.1-0.2,0.1-0.2,0.2-0.4L30.8,51.9z"/>
	</g>
	<g>
		<path class="st0" d="M117.5,34.2c-0.3,1.1-1.3,2-2.3,2c-0.6,0-1.1-0.4-1.1-0.9c0-0.5,0.3-0.6,0.6-0.6c0.1,0,0.4,0,0.4,0.3
			c0,0.2-0.1,0.3-0.2,0.4c-0.1,0.1-0.3,0.1-0.4,0.1c0.2,0.4,0.6,0.4,0.8,0.4c0.5,0,0.8-0.3,1.1-0.6c0.4-0.5,0.5-1,0.6-1.5
			c-0.3,0.3-0.6,0.4-1,0.4c-0.6,0-1.2-0.3-1.2-1.2c0-0.5,0.2-1,0.6-2.1c0.1-0.2,0.2-0.4,0.2-0.7c0-0.3-0.2-0.3-0.2-0.3
			c-0.3,0-0.7,0.3-1,1.2c0,0.2-0.1,0.2-0.2,0.2c0,0-0.1,0-0.1-0.1c0-0.1,0.4-1.5,1.3-1.5c0.5,0,0.8,0.4,0.8,0.8c0,0.2,0,0.3-0.2,0.7
			c-0.3,0.9-0.5,1.5-0.5,2c0,0.4,0.1,0.8,0.6,0.8c0.7,0,1.1-0.7,1.1-0.8l0.4-1.8c0.1-0.3,0.1-0.5,0.2-0.8c0-0.2,0.1-0.5,0.1-0.5
			c0.1-0.1,0.2-0.2,0.3-0.2c0.1,0,0.3,0.1,0.3,0.3c0,0.1,0,0.1,0,0.2L117.5,34.2z"/>
	</g>
	<g>
		<path class="st0" d="M120.1,36.7v-10h1.4v0.4h-1v9.2h1v0.4H120.1z"/>
	</g>
	<g>
		<path class="st0" d="M123.1,31.3c0.1-0.5,0.2-0.6,0.2-0.8c0-0.3-0.1-0.5-0.3-0.5c-0.4,0-0.6,0.5-0.7,1.2c-0.1,0.2-0.1,0.2-0.2,0.2
			c0,0-0.1,0-0.1-0.1c0,0,0.1-0.6,0.3-1c0.1-0.2,0.3-0.6,0.7-0.6c0.5,0,0.9,0.3,0.9,0.9c0.2-0.2,0.7-0.9,1.6-0.9
			c0.7,0,1.1,0.4,1.1,1.1c0,0.6-0.4,1.7-0.6,2.2c-0.1,0.2-0.2,0.5-0.2,0.7c0,0.2,0.1,0.3,0.2,0.3c0.5,0,0.8-0.6,1-1.2
			c0-0.1,0-0.2,0.1-0.2c0,0,0.1,0,0.1,0.1c0,0.1-0.4,1.5-1.3,1.5c-0.5,0-0.8-0.3-0.8-0.8c0-0.1,0-0.2,0.1-0.5
			c0.2-0.4,0.6-1.7,0.6-2.3c0-0.3-0.1-0.7-0.5-0.7c-0.9,0-1.5,0.9-1.6,1.2c0,0-0.1,0.3-0.1,0.5c0,0.2-0.1,0.4-0.2,0.7l-0.2,0.9
			c-0.1,0.2-0.2,0.7-0.2,0.7c-0.1,0.2-0.2,0.3-0.4,0.3c-0.1,0-0.3-0.1-0.3-0.3c0-0.1,0.1-0.3,0.1-0.4L123.1,31.3z"/>
	</g>
	<g>
		<path class="st0" d="M129.3,36.7h-1.4v-0.4h1v-9.2h-1v-0.4h1.4V36.7z"/>
	</g>
	<g>
		<path class="st0" d="M3,32.5c-0.1,0.4-0.2,0.7-0.2,0.9c0,0.3,0.2,0.7,0.5,0.7c0.3,0,1-0.2,1.3-1.3c0-0.1,0-0.1,0.1-0.1
			c0,0,0.1,0,0.1,0.1c0,0.2-0.6,1.5-1.6,1.5c-0.6,0-1-0.4-1.1-0.8c0,0.1-0.4,0.8-1,0.8c-0.4,0-0.9-0.2-0.9-0.7
			c0-0.3,0.2-0.6,0.5-0.6c0.1,0,0.4,0.1,0.4,0.3c0,0.3-0.2,0.5-0.5,0.5c0.2,0.1,0.4,0.1,0.5,0.1c0.4,0,0.8-0.4,0.9-1
			c0.4-1.4,0.5-2.1,0.5-2.4c0-0.6-0.3-0.7-0.5-0.7c-0.3,0-1,0.2-1.3,1.3c0,0.1-0.1,0.1-0.1,0.1c0,0-0.1,0-0.1-0.1
			c0-0.2,0.6-1.5,1.6-1.5c0.3,0,0.8,0.1,1.1,0.8c0.1-0.2,0.5-0.8,1-0.8c0.3,0,0.9,0.1,0.9,0.7c0,0.4-0.3,0.6-0.5,0.6
			c-0.3,0-0.4-0.2-0.4-0.3c0-0.2,0.2-0.5,0.5-0.5C4.6,30,4.4,30,4.3,30c-0.7,0-0.9,0.9-1,1.2L3,32.5z"/>
	</g>
	<g>
		<path class="st0" d="M6.8,36.7v-10h1.4v0.4h-1v9.2h1v0.4H6.8z"/>
	</g>
	<g>
		<path class="st0" d="M9.9,31.3c0.1-0.5,0.2-0.6,0.2-0.8c0-0.3-0.1-0.5-0.3-0.5c-0.4,0-0.6,0.5-0.7,1.2c-0.1,0.2-0.1,0.2-0.2,0.2
			c0,0-0.1,0-0.1-0.1c0,0,0.1-0.6,0.3-1c0.1-0.2,0.3-0.6,0.7-0.6c0.5,0,0.9,0.3,0.9,0.9c0.2-0.2,0.7-0.9,1.6-0.9
			c0.7,0,1.1,0.4,1.1,1.1c0,0.6-0.4,1.7-0.6,2.2c-0.1,0.2-0.2,0.5-0.2,0.7c0,0.2,0.1,0.3,0.2,0.3c0.5,0,0.8-0.6,1-1.2
			c0-0.1,0-0.2,0.1-0.2c0,0,0.1,0,0.1,0.1c0,0.1-0.4,1.5-1.3,1.5c-0.5,0-0.8-0.3-0.8-0.8c0-0.1,0-0.2,0.1-0.5
			c0.2-0.4,0.6-1.7,0.6-2.3c0-0.3-0.1-0.7-0.5-0.7c-0.9,0-1.5,0.9-1.6,1.2c0,0-0.1,0.3-0.1,0.5c0,0.2-0.1,0.4-0.2,0.7L10,33.3
			C10,33.5,9.9,34,9.8,34c-0.1,0.2-0.2,0.3-0.4,0.3c-0.1,0-0.3-0.1-0.3-0.3c0-0.1,0.1-0.3,0.1-0.4L9.9,31.3z"/>
	</g>
	<g>
		<path class="st0" d="M16,36.7h-1.4v-0.4h1v-9.2h-1v-0.4H16V36.7z"/>
	</g>
	<g>
		<path class="st0" d="M71.7,69.7c0,0.1,0,0.2,0,0.2c0,0.2,0.1,0.2,0.4,0.2c0.3,0,0.4,0,0.6,0c0.3,0,0.3,0,0.3,0.1
			c0,0.2-0.1,0.2-0.2,0.2c-0.3,0-0.6,0-0.9,0c-0.3,0-0.5,0-0.8,0c-0.3,0-0.6,0-0.8,0c-0.3,0-0.5,0-0.8,0c-0.1,0-0.2,0-0.2-0.1
			c0-0.2,0.1-0.2,0.4-0.2c1.1,0,1.1-0.1,1.2-0.5l1.3-5.3c0,0,0-0.1,0-0.2c0-0.1,0-0.1-0.3-0.1h-0.4c-1.5,0-1.7,0.2-2.3,1.7
			c-0.1,0.2-0.1,0.2-0.2,0.2c-0.1,0-0.1,0-0.1-0.1c0,0,0-0.2,0.1-0.2l0.6-1.8c0.1-0.2,0.1-0.2,0.3-0.2h5.5c0.2,0,0.3,0,0.3,0.1
			c0,0,0,0.1,0,0.2l-0.3,1.7c0,0.1,0,0.2-0.1,0.2c-0.1,0-0.1-0.1-0.1-0.1c0,0,0-0.2,0-0.2c0-0.3,0.1-0.6,0.1-0.8
			c0-0.8-0.4-0.8-1.5-0.8c-0.2,0-0.5,0-0.6,0c-0.1,0-0.2,0.1-0.2,0.4L71.7,69.7z"/>
	</g>
	<polygon class="st1" points="65.3,67.1 65.3,74.2 79.5,74.2 79.5,60 65.3,60 	"/>
	<polyline points="84,64.8 79.5,67.1 84,69.3 82.9,67.1 	"/>
	<path class="st1" d="M93.6,67.1H82.9 M93.6,67.1V31.6"/>
	<g>
		<path class="st0" d="M216.8,21.5c-0.6,0-1.6-0.2-1.6-1.1c0-0.4,0.2-1,1-1.3c0.6-0.3,1.3-0.3,1.8-0.4v-0.4c0-0.9-0.6-1.3-1.1-1.3
			c-0.3,0-0.8,0.1-1.1,0.5c0.5,0,0.5,0.3,0.5,0.5c0,0.3-0.2,0.5-0.5,0.5c-0.3,0-0.5-0.2-0.5-0.5c0-0.7,0.7-1.1,1.5-1.1
			c0.5,0,1,0.2,1.4,0.5c0.4,0.4,0.4,0.8,0.4,1.2v2c0,0,0,0.5,0.4,0.5c0.1,0,0.4-0.1,0.4-0.6v-0.6h0.2v0.6c0,0.8-0.6,0.9-0.8,0.9
			c-0.5,0-0.7-0.4-0.8-0.8C217.9,21.1,217.5,21.5,216.8,21.5z M216,20.4c0,0.5,0.4,0.8,0.9,0.8c0.4,0,1.2-0.3,1.2-1.3v-1
			C216.4,19,216,19.8,216,20.4z"/>
		<path class="st0" d="M220.7,18.1c-0.1,0-0.3,0-0.3-0.2s0.2-0.2,0.3-0.2h6c0.1,0,0.3,0,0.3,0.2s-0.2,0.2-0.3,0.2H220.7z M220.7,20
			c-0.1,0-0.3,0-0.3-0.2s0.2-0.2,0.3-0.2h5.9c0.1,0,0.3,0,0.3,0.2s-0.2,0.2-0.3,0.2H220.7z"/>
	</g>
	<g>
		<path class="st0" d="M231.5,19.1c-0.2,0-0.3,0-0.3-0.2c0-0.2,0.2-0.2,0.3-0.2h5.4c0.2,0,0.3,0,0.3,0.2c0,0.2-0.2,0.2-0.3,0.2
			H231.5z"/>
	</g>
	<g>
		<path class="st0" d="M242.3,20.4c-0.4,0.9-1.2,1.2-1.7,1.2c-0.5,0-1.2-0.2-1.6-1c-0.4-0.8-0.4-1.7-0.4-2.4c0-0.8,0-1.6,0.4-2.3
			c0.4-0.9,1.1-1.2,1.7-1.2c0.4,0,1.2,0.2,1.7,1.1c0.3,0.7,0.4,1.5,0.4,2.3C242.7,19,242.6,19.7,242.3,20.4z M241.7,20.1
			c0.1-0.6,0.1-1.3,0.1-2.1c0-0.6,0-1.4-0.1-1.9c-0.2-1-0.8-1.2-1.2-1.2c-0.2,0-1,0.1-1.2,1.3c-0.1,0.5-0.1,1.2-0.1,1.8
			c0,0.6,0,1.5,0.1,2.1c0.2,1,0.8,1.2,1.2,1.2C241,21.4,241.6,21.1,241.7,20.1z"/>
	</g>
	<g>
		<path class="st0" d="M244.5,21.4c-0.3,0-0.5-0.2-0.5-0.5c0-0.3,0.2-0.5,0.5-0.5s0.5,0.2,0.5,0.5C245,21.1,244.8,21.4,244.5,21.4z"
			/>
	</g>
	<g>
		<path class="st0" d="M249.9,18.5c0.4,0.4,0.5,0.9,0.5,1.2c0,1.1-0.9,1.9-2.1,1.9c-1,0-2.1-0.7-2.1-1.7c0-1,0.9-1.5,1.4-1.8
			c-0.2-0.2-0.6-0.4-0.7-0.5c-0.4-0.5-0.4-0.9-0.4-1.1c0-0.9,0.8-1.7,1.8-1.7c0.9,0,1.8,0.6,1.8,1.5c0,0.7-0.5,1.2-1.2,1.5
			C249.6,18.1,249.8,18.2,249.9,18.5z M246.8,19.8c0,0.8,0.7,1.4,1.6,1.4c0.8,0,1.6-0.5,1.6-1.3c0-0.6-0.5-0.9-0.7-1.1l-1.2-0.8
			C247.1,18.6,246.8,19.3,246.8,19.8z M248.7,17.6c0.6-0.3,1-0.8,1-1.4c0-0.7-0.6-1.2-1.4-1.2c-0.7,0-1.4,0.4-1.4,1
			c0,0.2,0,0.5,0.5,0.8L248.7,17.6z"/>
	</g>
	<polyline points="211.4,11.9 254.3,11.9 254.3,11.4 211.4,11.4 	"/>
	<polyline points="211.4,25.3 211.9,25.3 211.9,11.6 211.4,11.6 	"/>
	<polyline points="253.8,25.3 254.3,25.3 254.3,11.6 253.8,11.6 	"/>
	<polyline points="211.4,25.5 254.3,25.5 254.3,25.1 211.4,25.1 	"/>
	<polyline points="281.4,58 285.9,55.7 281.4,53.5 282.5,55.7 	"/>
	<line class="st1" x1="146.7" y1="55.7" x2="282.5" y2="55.7"/>
	<polyline points="176.2,10.4 173.9,5.9 171.7,10.4 173.9,9.3 	"/>
	<line class="st1" x1="173.9" y1="100.6" x2="173.9" y2="9.3"/>
	<g>
		<path class="st0" d="M174,17.4c-1.1,0-1.9-0.9-1.9-1.9c0-1,0.9-1.9,1.9-1.9c1,0,1.9,0.9,1.9,1.9C175.9,16.6,175,17.4,174,17.4z"/>
	</g>
	<line class="st2" x1="173.9" y1="55.7" x2="173.9" y2="15.8"/>
	<g>
		<path class="st0" d="M186.1,87.3c-1.1,0-1.9-0.9-1.9-1.9c0-1,0.9-1.9,1.9-1.9c1,0,1.9,0.9,1.9,1.9S187.1,87.3,186.1,87.3z"/>
	</g>
	<line class="st2" x1="186" y1="85.6" x2="186" y2="55.7"/>
	<g>
		<path class="st0" d="M198.2,37.5c-1.1,0-1.9-0.9-1.9-1.9c0-1,0.9-1.9,1.9-1.9c1,0,1.9,0.9,1.9,1.9
			C200.1,36.6,199.3,37.5,198.2,37.5z"/>
	</g>
	<line class="st2" x1="198.1" y1="55.7" x2="198.1" y2="35.8"/>
	<path class="st3" d="M173.9,15.8c0,0,14.9,14.4,24.2,20c7.7,4.6,15.6,7.3,24.2,10c8.2,2.5,15.8,3.7,24.2,5
		c8.3,1.3,24.2,2.5,24.2,2.5l0,0"/>
	<path class="st3" d="M173.9,95.6c0,0,14.9-14.4,24.2-20c7.7-4.6,15.6-7.3,24.2-10c8.2-2.5,15.8-3.7,24.2-5
		c8.3-1.3,24.2-2.5,24.2-2.5l0,0"/>
	<line class="st2" x1="210.3" y1="70.7" x2="210.3" y2="55.7"/>
	<g>
		<path class="st0" d="M210.3,72.4c-1.1,0-1.9-0.9-1.9-1.9c0-1,0.9-1.9,1.9-1.9c1,0,1.9,0.9,1.9,1.9S211.4,72.4,210.3,72.4z"/>
	</g>
	<g>
		<path class="st0" d="M222.5,47.4c-1.1,0-1.9-0.9-1.9-1.9c0-1,0.9-1.9,1.9-1.9c1,0,1.9,0.9,1.9,1.9
			C224.4,46.6,223.5,47.4,222.5,47.4z"/>
	</g>
	<path class="st2" d="M222.4,55.7v-10 M234.5,63.2v-7.5"/>
	<g>
		<path class="st0" d="M234.6,64.8c-1.1,0-1.9-0.9-1.9-1.9c0-1,0.9-1.9,1.9-1.9c1,0,1.9,0.9,1.9,1.9S235.6,64.8,234.6,64.8z"/>
	</g>
	<g>
		<path class="st0" d="M246.6,52.3c-1.1,0-1.9-0.9-1.9-1.9c0-1,0.9-1.9,1.9-1.9c1,0,1.9,0.9,1.9,1.9
			C248.5,51.5,247.6,52.3,246.6,52.3z"/>
	</g>
	<path class="st2" d="M246.6,55.7v-5 M258.7,59.5v-3.7"/>
	<g>
		<path class="st0" d="M258.7,61.1c-1.1,0-1.9-0.9-1.9-1.9c0-1,0.9-1.9,1.9-1.9c1,0,1.9,0.9,1.9,1.9S259.7,61.1,258.7,61.1z"/>
	</g>
	<line class="st2" x1="270.8" y1="55.7" x2="270.8" y2="53.2"/>
	<g>
		<path class="st0" d="M270.8,54.9c-1.1,0-1.9-0.9-1.9-1.9c0-1,0.9-1.9,1.9-1.9c1,0,1.9,0.9,1.9,1.9S271.9,54.9,270.8,54.9z"/>
	</g>
	<g>
		<path class="st0" d="M161.9,57.4c-1.1,0-1.9-0.9-1.9-1.9c0-1,0.9-1.9,1.9-1.9c1,0,1.9,0.9,1.9,1.9S162.9,57.4,161.9,57.4z"/>
	</g>
	<g>
		<path class="st0" d="M149.7,57.4c-1.1,0-1.9-0.9-1.9-1.9c0-1,0.9-1.9,1.9-1.9c1,0,1.9,0.9,1.9,1.9S150.8,57.4,149.7,57.4z"/>
	</g>
	<g>
		<path class="st0" d="M290.4,54.9c0.1-0.5,0.2-0.6,0.2-0.8c0-0.3-0.1-0.5-0.3-0.5c-0.4,0-0.6,0.5-0.7,1.2c-0.1,0.2-0.1,0.2-0.2,0.2
			c0,0-0.1,0-0.1-0.1c0,0,0.1-0.6,0.3-1c0.1-0.2,0.3-0.6,0.7-0.6c0.5,0,0.9,0.3,0.9,0.9c0.2-0.2,0.7-0.9,1.6-0.9
			c0.7,0,1.1,0.4,1.1,1.1c0,0.6-0.4,1.7-0.6,2.2c-0.1,0.2-0.2,0.5-0.2,0.7c0,0.2,0.1,0.3,0.2,0.3c0.5,0,0.8-0.6,1-1.2
			c0.1-0.1,0.1-0.2,0.2-0.2c0,0,0.1,0,0.1,0.1c0,0.1-0.4,1.5-1.3,1.5c-0.5,0-0.8-0.3-0.8-0.8c0-0.1,0-0.2,0.1-0.5
			c0.2-0.4,0.6-1.7,0.6-2.3c0-0.3-0.1-0.7-0.5-0.7c-0.9,0-1.5,0.9-1.6,1.2c0,0-0.1,0.3-0.1,0.5c0,0.2-0.1,0.4-0.2,0.7l-0.2,0.9
			c-0.1,0.2-0.2,0.7-0.2,0.7c-0.1,0.2-0.2,0.3-0.4,0.3c-0.1,0-0.3-0.1-0.3-0.3c0,0,0.1-0.3,0.1-0.4L290.4,54.9z"/>
	</g>
	<g>
		<path class="st0" d="M179.6,4.7c0.4-0.5,0.8-0.8,1.5-0.8c0.7,0,1.1,0.4,1.1,1.1c0,0.6-0.4,1.8-0.6,2.2c-0.1,0.2-0.2,0.5-0.2,0.7
			c0,0.2,0.1,0.3,0.2,0.3c0.5,0,0.9-0.7,1-1.2c0-0.1,0-0.2,0.1-0.2c0,0,0.1,0,0.1,0.1c0,0.1-0.4,1.5-1.3,1.5c-0.5,0-0.8-0.3-0.8-0.8
			c0-0.2,0-0.3,0.1-0.5c0.2-0.6,0.6-1.7,0.6-2.2c0-0.4-0.1-0.7-0.5-0.7s-0.7,0.2-1,0.3c-0.3,0.3-0.6,0.8-0.7,0.9
			c0,0.1-0.1,0.4-0.1,0.4c0,0.2-0.1,0.4-0.2,0.7l-0.2,0.9l-0.2,0.8c0,0.1-0.2,0.3-0.4,0.3c-0.1,0-0.3,0-0.3-0.3c0-0.1,0-0.1,0-0.2
			l1.4-5.7l0-0.2c0-0.1,0-0.2-0.5-0.2c-0.1,0-0.2,0-0.2-0.1c0-0.2,0.1-0.2,0.2-0.2c0.3,0,1-0.1,1.2-0.1c0.1,0,0.1,0.1,0.1,0.1
			L179.6,4.7z"/>
	</g>
	<g>
		<path class="st0" d="M184.4,10.9v-10h1.4v0.4h-1v9.2h1v0.4H184.4z"/>
	</g>
	<g>
		<path class="st0" d="M187.5,5.5c0.1-0.5,0.2-0.6,0.2-0.8c0-0.3-0.1-0.5-0.3-0.5c-0.4,0-0.6,0.5-0.7,1.2c-0.1,0.2-0.1,0.2-0.2,0.2
			c0,0-0.1,0-0.1-0.1c0,0,0.1-0.6,0.3-1c0.1-0.2,0.3-0.6,0.7-0.6c0.5,0,0.9,0.3,0.9,0.9c0.2-0.2,0.7-0.9,1.6-0.9
			c0.7,0,1.1,0.4,1.1,1.1c0,0.6-0.4,1.7-0.6,2.2c-0.1,0.2-0.2,0.5-0.2,0.7c0,0.2,0.1,0.3,0.2,0.3c0.5,0,0.8-0.6,1-1.2
			c0.1-0.1,0.1-0.2,0.2-0.2c0,0,0.1,0,0.1,0.1c0,0.1-0.4,1.5-1.3,1.5c-0.5,0-0.8-0.3-0.8-0.8c0-0.1,0-0.2,0.1-0.5
			c0.2-0.4,0.6-1.7,0.6-2.3c0-0.3-0.1-0.7-0.5-0.7c-0.9,0-1.5,0.9-1.6,1.2c0,0-0.1,0.3-0.1,0.5c0,0.2-0.1,0.4-0.2,0.7l-0.2,0.9
			c-0.1,0.2-0.2,0.7-0.2,0.7c-0.1,0.2-0.2,0.3-0.4,0.3c-0.1,0-0.3-0.1-0.3-0.3c0-0.1,0.1-0.3,0.1-0.4L187.5,5.5z"/>
	</g>
	<g>
		<path class="st0" d="M193.6,10.9h-1.4v-0.4h1V1.3h-1V0.9h1.4V10.9z"/>
	</g>
	<g>
		<path class="st0" d="M199.7,65.2c0.2,0,0.9,0,0.9-0.1c0.1-0.1,0.2-0.6,0.2-0.9h0.2l-0.3,1.7h-3.7c0-0.2,0-0.3,0.1-0.4l1.9-2.1
			c0.5-0.6,1-1.4,1-2.2c0-0.8-0.4-1.6-1.3-1.6c-0.6,0-1.1,0.4-1.3,1c0,0,0,0,0.1,0c0.3,0,0.5,0.3,0.5,0.5c0,0.4-0.3,0.5-0.5,0.5
			c0,0-0.5,0-0.5-0.6c0-0.9,0.7-1.8,1.9-1.8c1.2,0,2.1,0.8,2.1,1.9c0,1-0.6,1.5-2.2,2.9l-1.1,1H199.7z"/>
	</g>
	<g>
		<path class="st0" d="M147.2,64.1v-0.6h2.6v0.6H147.2z"/>
		<path class="st0" d="M153.5,65.2c0.2,0,0.9,0,0.9-0.1c0.1-0.1,0.2-0.6,0.2-0.9h0.2l-0.3,1.7H151c0-0.2,0-0.3,0.1-0.4l1.9-2.1
			c0.5-0.6,1-1.4,1-2.2c0-0.8-0.4-1.6-1.3-1.6c-0.6,0-1.1,0.4-1.3,1c0,0,0,0,0.1,0c0.3,0,0.5,0.3,0.5,0.5c0,0.4-0.3,0.5-0.5,0.5
			c0,0-0.5,0-0.5-0.6c0-0.9,0.7-1.8,1.9-1.8c1.2,0,2.1,0.8,2.1,1.9c0,1-0.6,1.5-2.2,2.9l-1.1,1H153.5z"/>
	</g>
	<g>
		<path class="st0" d="M220,64.3V64l3.1-4.7c0.1-0.1,0.1-0.1,0.2-0.1c0.2,0,0.2,0.1,0.2,0.3V64h1v0.3h-1v0.9c0,0.4,0,0.5,0.8,0.5
			h0.2V66c-0.4,0-0.9,0-1.4,0c-0.4,0-0.9,0-1.3,0v-0.3h0.2c0.7,0,0.8-0.1,0.8-0.5v-0.9H220z M222.7,60.3l-2.4,3.7h2.4V60.3z"/>
		<path class="st0" d="M247.1,61.7c1.1,0,2,1,2,2.2c0,1.3-0.9,2.3-2.1,2.3c-0.9,0-2.1-0.7-2.1-3.4c0-2.2,1.3-3.5,2.6-3.5
			c0.8,0,1.3,0.5,1.3,1.1c0,0.4-0.3,0.5-0.5,0.5c-0.2,0-0.5-0.1-0.5-0.5c0-0.4,0.4-0.4,0.5-0.4c-0.2-0.3-0.6-0.4-0.9-0.4
			c-0.5,0-1.7,0.4-1.7,2.9v0.2C246.1,62.2,246.4,61.7,247.1,61.7z M248,65.3c0.2-0.4,0.2-0.9,0.2-1.3c0-0.5,0-1-0.2-1.4
			c-0.3-0.6-0.8-0.6-0.9-0.6c-0.9,0-1.2,1-1.2,1.8c0,0.2,0,1,0.2,1.4c0.1,0.1,0.4,0.7,1,0.7C247.3,65.9,247.7,65.9,248,65.3z"/>
	</g>
	<g>
		<path class="st0" d="M271.5,63.1c0.4,0.4,0.5,0.9,0.5,1.2c0,1.1-0.9,1.9-2.1,1.9c-1,0-2.1-0.7-2.1-1.7c0-1,0.9-1.5,1.4-1.8
			c-0.2-0.2-0.6-0.4-0.7-0.5c-0.4-0.5-0.4-0.9-0.4-1.1c0-0.9,0.8-1.7,1.8-1.7c0.9,0,1.8,0.6,1.8,1.5c0,0.7-0.5,1.2-1.2,1.5
			C271.2,62.8,271.4,62.9,271.5,63.1z M268.4,64.5c0,0.8,0.7,1.4,1.6,1.4c0.8,0,1.6-0.5,1.6-1.3c0-0.6-0.5-0.9-0.7-1.1l-1.2-0.8
			C268.7,63.3,268.4,63.9,268.4,64.5z M270.3,62.2c0.6-0.3,1-0.8,1-1.4c0-0.7-0.6-1.2-1.4-1.2c-0.7,0-1.4,0.4-1.4,1
			c0,0.2,0,0.5,0.5,0.8L270.3,62.2z"/>
	</g>
	<g>
		<path class="st0" d="M165.3,18.3c0,0.4,0,0.5,0.9,0.5h0.3v0.3c-0.3,0-1.2,0-1.6,0s-1.3,0-1.6,0v-0.3h0.3c0.9,0,0.9-0.1,0.9-0.5
			v-5.2c-0.5,0.3-1.1,0.3-1.3,0.3v-0.3c0.3,0,1.2,0,1.8-0.6c0.2,0,0.2,0,0.2,0.3V18.3z"/>
	</g>
	<g>
		<path class="st0" d="M187.6,88.5c0.2,0,0.3,0.1,0.3,0.3c0,0,0,0.1-0.1,0.3l-0.4,1.4c-0.1,0.4-0.1,0.5-0.2,0.9
			c-0.1,0.4-0.1,0.5-0.1,0.7c0,0.2,0,0.5,0.3,0.5c0.4,0,0.6-0.6,0.8-1.2c0-0.1,0-0.2,0.1-0.2c0,0,0.1,0,0.1,0.1c0,0-0.1,0.6-0.3,1
			c-0.2,0.3-0.4,0.5-0.7,0.5c-0.5,0-0.8-0.3-0.9-0.7c-0.6,0.7-1.1,0.7-1.3,0.7c-0.8,0-1.3-0.7-1.3-1.6c0-1.5,1.2-2.9,2.4-2.9
			c0.4,0,0.7,0.3,0.9,0.6C187.2,88.7,187.4,88.5,187.6,88.5z M187.1,89.6c0,0,0-0.1,0-0.2c0-0.1-0.1-0.9-0.8-0.9
			c-0.4,0-0.8,0.4-1.2,1c-0.2,0.5-0.5,1.7-0.5,2.2c0,0.4,0.1,0.9,0.6,0.9c0.3,0,0.7-0.2,1.1-0.7c0.2-0.2,0.2-0.2,0.2-0.4L187.1,89.6
			z"/>
	</g>
	<g>
		<path class="st0" d="M198.4,27.2c0.2,0,0.3,0.1,0.3,0.3c0,0,0,0.1-0.1,0.3l-0.4,1.4c-0.1,0.4-0.1,0.5-0.2,0.9
			c-0.1,0.4-0.1,0.5-0.1,0.7c0,0.2,0,0.5,0.3,0.5c0.4,0,0.6-0.6,0.8-1.2c0-0.1,0-0.2,0.1-0.2c0,0,0.1,0,0.1,0.1c0,0-0.1,0.6-0.3,1
			c-0.2,0.3-0.4,0.5-0.7,0.5c-0.5,0-0.8-0.3-0.9-0.7c-0.6,0.7-1.1,0.7-1.3,0.7c-0.8,0-1.3-0.7-1.3-1.6c0-1.5,1.2-2.9,2.4-2.9
			c0.4,0,0.7,0.3,0.9,0.6C198,27.4,198.2,27.2,198.4,27.2z M197.8,28.3c0,0,0-0.1,0-0.2c0-0.1-0.1-0.9-0.8-0.9c-0.4,0-0.8,0.4-1.2,1
			c-0.2,0.5-0.5,1.7-0.5,2.2c0,0.4,0.1,0.9,0.6,0.9c0.3,0,0.7-0.2,1.1-0.7c0.2-0.2,0.2-0.2,0.2-0.4L197.8,28.3z"/>
	</g>
	<g>
		<path class="st0" d="M202.9,27.8H200c0-0.2,0-0.2,0.1-0.3l1.7-1.7c0.2-0.3,0.7-0.7,0.7-1.3c0-0.6-0.4-1.1-1.1-1.1
			c-0.3,0-0.8,0.2-1,0.6c0.4,0,0.4,0.2,0.4,0.4c0,0.3-0.2,0.4-0.4,0.4c-0.1,0-0.4,0-0.4-0.4c0-0.6,0.6-1.2,1.5-1.2
			c0.9,0,1.6,0.5,1.6,1.4c0,0.7-0.5,1.1-1,1.5c-0.4,0.3-0.7,0.5-1.4,1.2h1.3c0.1,0,0.6,0,0.7,0c0.1-0.1,0.2-0.5,0.2-0.6h0.2
			L202.9,27.8z"/>
	</g>
	<g>
		<path class="st0" d="M209.1,78.6c0.2,0,0.3,0.1,0.3,0.3c0,0,0,0.1-0.1,0.3l-0.4,1.4c-0.1,0.4-0.1,0.5-0.2,0.9
			c-0.1,0.4-0.1,0.5-0.1,0.7c0,0.2,0,0.5,0.3,0.5c0.4,0,0.6-0.6,0.8-1.2c0-0.1,0-0.2,0.1-0.2c0,0,0.1,0,0.1,0.1c0,0-0.1,0.6-0.3,1
			c-0.2,0.3-0.4,0.5-0.7,0.5c-0.5,0-0.8-0.3-0.9-0.7c-0.6,0.7-1.1,0.7-1.3,0.7c-0.8,0-1.3-0.7-1.3-1.6c0-1.5,1.2-2.9,2.4-2.9
			c0.4,0,0.7,0.3,0.9,0.6C208.7,78.8,208.9,78.6,209.1,78.6z M208.5,79.6c0,0,0-0.1,0-0.2c0-0.1-0.1-0.9-0.8-0.9
			c-0.4,0-0.8,0.4-1.2,1c-0.2,0.5-0.5,1.7-0.5,2.2c0,0.4,0.1,0.9,0.6,0.9c0.3,0,0.7-0.2,1.1-0.7c0.2-0.2,0.2-0.2,0.2-0.4L208.5,79.6
			z"/>
	</g>
	<g>
		<path class="st0" d="M211.8,76.9c-0.1,0-0.2,0-0.2-0.1c0-0.1,0.1-0.1,0.1-0.1c0,0,0,0,0.2,0c0.3,0,0.5,0,0.8-0.3
			c0.2-0.2,0.3-0.5,0.3-0.8c0-0.6-0.4-0.8-0.8-0.8c-0.3,0-0.7,0.1-1,0.4c0.2,0,0.4,0.2,0.4,0.4c0,0.2-0.1,0.4-0.4,0.4
			c-0.2,0-0.4-0.1-0.4-0.4c0-0.6,0.6-0.9,1.4-0.9c0.8,0,1.4,0.4,1.4,1c0,0.4-0.3,0.9-1,1.2c0.8,0.2,1.2,0.7,1.2,1.2
			c0,0.7-0.7,1.3-1.6,1.3c-0.8,0-1.6-0.4-1.6-1.1c0-0.3,0.2-0.4,0.4-0.4c0.2,0,0.4,0.2,0.4,0.4c0,0.1-0.1,0.4-0.4,0.4
			c0.3,0.4,0.9,0.5,1.2,0.5c0.4,0,0.9-0.3,0.9-1.1c0-0.7-0.4-1.1-0.9-1.1H211.8z"/>
	</g>
	<g>
		<path class="st0" d="M221.5,37.9c0.2,0,0.3,0.1,0.3,0.3c0,0,0,0.1-0.1,0.3l-0.4,1.4c-0.1,0.4-0.1,0.5-0.2,0.9
			c-0.1,0.4-0.1,0.5-0.1,0.7c0,0.2,0,0.5,0.3,0.5c0.4,0,0.6-0.6,0.8-1.2c0-0.1,0-0.2,0.1-0.2c0,0,0.1,0,0.1,0.1c0,0-0.1,0.6-0.3,1
			c-0.2,0.3-0.4,0.5-0.7,0.5c-0.5,0-0.8-0.3-0.9-0.7c-0.6,0.7-1.1,0.7-1.3,0.7c-0.8,0-1.3-0.7-1.3-1.6c0-1.5,1.2-2.9,2.4-2.9
			c0.4,0,0.7,0.3,0.9,0.6C221.1,38.1,221.2,37.9,221.5,37.9z M220.9,39c0,0,0-0.1,0-0.2c0-0.1-0.1-0.9-0.8-0.9c-0.4,0-0.8,0.4-1.2,1
			c-0.2,0.5-0.5,1.7-0.5,2.2c0,0.4,0.1,0.9,0.6,0.9c0.3,0,0.7-0.2,1.1-0.7c0.2-0.2,0.2-0.2,0.2-0.4L220.9,39z"/>
	</g>
	<g>
		<path class="st0" d="M225.5,37.4v0.6c0,0.2,0,0.3,0.6,0.3h0.2v0.3c-0.3,0-0.8,0-1.1,0c-0.3,0-0.7,0-1,0v-0.3h0.2
			c0.6,0,0.6-0.1,0.6-0.3v-0.6h-2.1v-0.3l2.3-3.2c0.1-0.1,0.1-0.1,0.2-0.1c0.2,0,0.2,0,0.2,0.2v3.1h0.8v0.3H225.5z M223.1,37.1h1.8
			v-2.6L223.1,37.1z"/>
	</g>
	<g>
		<path class="st0" d="M233.8,69.8c0.2,0,0.3,0.1,0.3,0.3c0,0,0,0.1-0.1,0.3l-0.4,1.4c-0.1,0.4-0.1,0.5-0.2,0.9
			c-0.1,0.4-0.1,0.5-0.1,0.7c0,0.2,0,0.5,0.3,0.5c0.4,0,0.6-0.6,0.8-1.2c0-0.1,0-0.2,0.1-0.2c0,0,0.1,0,0.1,0.1c0,0-0.1,0.6-0.3,1
			c-0.2,0.3-0.4,0.5-0.7,0.5c-0.5,0-0.8-0.3-0.9-0.7c-0.6,0.7-1.1,0.7-1.3,0.7c-0.8,0-1.3-0.7-1.3-1.6c0-1.5,1.2-2.9,2.4-2.9
			c0.4,0,0.7,0.3,0.9,0.6C233.4,70,233.6,69.8,233.8,69.8z M233.2,70.9c0,0,0-0.1,0-0.2c0-0.1-0.1-0.9-0.8-0.9c-0.4,0-0.8,0.4-1.2,1
			c-0.2,0.5-0.5,1.7-0.5,2.2c0,0.4,0.1,0.9,0.6,0.9c0.3,0,0.7-0.2,1.1-0.7c0.2-0.2,0.2-0.2,0.2-0.4L233.2,70.9z"/>
	</g>
	<g>
		<path class="st0" d="M236,67.7c0.3-0.3,0.7-0.3,1-0.3c0.9,0,1.5,0.7,1.5,1.5c0,0.9-0.8,1.5-1.7,1.5c-0.8,0-1.4-0.6-1.4-1.3
			c0-0.4,0.3-0.4,0.3-0.4c0.1,0,0.3,0.1,0.3,0.4c0,0.2-0.1,0.4-0.4,0.3c0.2,0.5,0.6,0.7,1.1,0.7c0.3,0,0.6-0.2,0.8-0.4
			c0.2-0.3,0.2-0.7,0.2-0.9c0-0.4,0-0.7-0.2-0.9c0-0.1-0.2-0.4-0.6-0.4c-0.2,0-0.7,0.1-1,0.4c-0.1,0.1-0.1,0.1-0.1,0.1
			c-0.1,0-0.1-0.1-0.1-0.2v-2.1c0-0.1,0-0.2,0.1-0.2c0,0,0,0,0.1,0c0.5,0.2,0.8,0.2,1,0.2c0.5,0,0.9-0.1,1.1-0.2c0,0,0,0,0.1,0
			c0,0,0.1,0,0.1,0.1c0,0.1-0.5,0.7-1.5,0.7c-0.1,0-0.3,0-0.7-0.1V67.7z"/>
	</g>
	<g>
		<path class="st0" d="M246.3,43.2c0.2,0,0.3,0.1,0.3,0.3c0,0,0,0.1-0.1,0.3l-0.4,1.4c-0.1,0.4-0.1,0.5-0.2,0.9
			c-0.1,0.4-0.1,0.5-0.1,0.7c0,0.2,0,0.5,0.3,0.5c0.4,0,0.6-0.6,0.8-1.2c0-0.1,0-0.2,0.1-0.2c0,0,0.1,0,0.1,0.1c0,0-0.1,0.6-0.3,1
			c-0.2,0.3-0.4,0.5-0.7,0.5c-0.5,0-0.8-0.3-0.9-0.7c-0.6,0.7-1.1,0.7-1.3,0.7c-0.8,0-1.3-0.7-1.3-1.6c0-1.5,1.2-2.9,2.4-2.9
			c0.4,0,0.7,0.3,0.9,0.6C245.9,43.4,246.1,43.2,246.3,43.2z M245.7,44.2c0,0,0-0.1,0-0.2c0-0.1-0.1-0.9-0.8-0.9
			c-0.4,0-0.8,0.4-1.2,1c-0.2,0.5-0.5,1.7-0.5,2.2c0,0.4,0.1,0.9,0.6,0.9c0.3,0,0.7-0.2,1.1-0.7c0.2-0.2,0.2-0.2,0.2-0.4L245.7,44.2
			z"/>
	</g>
	<g>
		<path class="st0" d="M249.5,40.8c0.8,0,1.5,0.7,1.5,1.5c0,0.9-0.7,1.6-1.6,1.6c-0.8,0-1.6-0.5-1.6-2.4c0-1.5,1-2.4,2-2.4
			c0.7,0,1,0.4,1,0.8c0,0.2-0.1,0.3-0.3,0.3c-0.2,0-0.3-0.2-0.3-0.3c0-0.2,0.1-0.3,0.3-0.3c-0.1-0.2-0.4-0.2-0.6-0.2
			c-0.4,0-0.8,0.3-1.1,0.6c-0.3,0.4-0.3,0.9-0.3,1.5C248.6,41.2,248.9,40.8,249.5,40.8z M250.2,43.3c0.2-0.3,0.2-0.6,0.2-1
			c0-0.4,0-0.7-0.2-1c-0.2-0.3-0.4-0.4-0.7-0.4c-0.6,0-1,0.5-1,1.2c0,0.4,0.1,0.8,0.2,1c0.1,0.3,0.4,0.5,0.8,0.5
			C249.8,43.7,250,43.6,250.2,43.3z"/>
	</g>
	<path class="st1" d="M161.8,53.2v5 M149.7,53.2v5 M186,53.2v5 M198.1,53.2v5 M210.3,53.2v5 M222.4,53.2v5 M234.5,53.2v5
		 M246.6,53.2v5 M258.7,53.2v5 M270.8,52.9v5"/>
	<g>
		<path class="st0" d="M160.9,97v-0.6h2.6V97H160.9z"/>
		<path class="st0" d="M167.1,98.1c0,0.4,0,0.5,0.9,0.5h0.3v0.3c-0.3,0-1.2,0-1.6,0s-1.3,0-1.6,0v-0.3h0.3c0.9,0,0.9-0.1,0.9-0.5
			v-5.2c-0.5,0.3-1.1,0.3-1.3,0.3v-0.3c0.3,0,1.2,0,1.8-0.6c0.2,0,0.2,0,0.2,0.3V98.1z"/>
	</g>
	<path class="st1" d="M170.9,95.6h6 M170.9,15.8h6"/>
</g>
</svg>
