<?xml version="1.0" encoding="utf-8"?>
<!-- Generator: Adobe Illustrator 22.1.0, SVG Export Plug-In . SVG Version: 6.00 Build 0)  -->
<svg version="1.1" id="Layer_1" xmlns="http://www.w3.org/2000/svg" xmlns:xlink="http://www.w3.org/1999/xlink" x="0px" y="0px"
	 viewBox="0 0 285.9 210.3" style="enable-background:new 0 0 285.9 210.3;" xml:space="preserve">
<style type="text/css">
	.st0{fill:none;stroke:#000000;stroke-width:0.8504;stroke-miterlimit:10;}
	.st1{fill:none;stroke:#000000;stroke-width:0.8504;stroke-miterlimit:10;stroke-dasharray:2.918,2.918;}
	.st2{clip-path:url(#SVGID_2_);fill:none;stroke:#000000;stroke-width:0.8504;stroke-linecap:square;stroke-miterlimit:10;}
	.st3{fill:#1D1D1B;}
	.st4{fill:none;stroke:#000000;stroke-width:0.8504;stroke-miterlimit:10;stroke-dasharray:2.8017,2.8017;}
	.st5{fill:none;stroke:#000000;stroke-width:0.8504;stroke-linecap:round;stroke-miterlimit:10;stroke-dasharray:0,3.4016;}
	.st6{fill:none;stroke:#FF0000;stroke-width:1.7008;stroke-miterlimit:10;}
	.st7{fill:none;stroke:#000000;stroke-width:0.8504;stroke-miterlimit:10;stroke-dasharray:2.7973,2.7973;}
	.st8{clip-path:url(#SVGID_4_);fill:none;stroke:#000000;stroke-width:0.2835;stroke-linecap:square;stroke-miterlimit:10;}
	.st9{clip-path:url(#SVGID_6_);fill:none;stroke:#000000;stroke-width:0.8504;stroke-linecap:square;stroke-miterlimit:10;}
	.st10{clip-path:url(#SVGID_8_);fill:none;stroke:#000000;stroke-width:0.8504;stroke-linecap:square;stroke-miterlimit:10;}
	.st11{clip-path:url(#SVGID_10_);fill:none;stroke:#000000;stroke-width:0.8504;stroke-linecap:square;stroke-miterlimit:10;}
	.st12{clip-path:url(#SVGID_12_);fill:none;stroke:#000000;stroke-width:0.8504;stroke-linecap:square;stroke-miterlimit:10;}
	.st13{fill:none;stroke:#000000;stroke-width:0.8504;stroke-miterlimit:10;stroke-dasharray:2.5309,2.5309;}
	.st14{fill:#0000FF;stroke:#000000;stroke-width:0.8504;stroke-miterlimit:10;}
	.st15{fill:none;stroke:#000000;stroke-width:0.8504;stroke-linecap:round;stroke-miterlimit:10;stroke-dasharray:0,3.2598;}
	.st16{stroke:#000000;stroke-width:0.8504;stroke-miterlimit:10;}
	.st17{fill:#E6007E;stroke:#000000;stroke-width:1.7008;stroke-miterlimit:10;}
	.st18{fill:#E6007E;stroke:#000000;stroke-width:0.2835;stroke-miterlimit:10;}
	.st19{fill:none;stroke:#000000;stroke-width:1.7008;stroke-miterlimit:10;}
</style>
<g>
	<path class="st0" d="M59.7,112.5h85 M59.7,112.5V98.3 M59.7,98.3h85 M144.7,98.3v14.2"/>
	<line class="st1" x1="123.5" y1="16.8" x2="123.5" y2="66.4"/>
	<g>
		<defs>
			<polygon id="SVGID_1_" points="123.5,105.4 123.5,112.5 144.7,112.5 144.7,98.3 123.5,98.3 			"/>
		</defs>
		<clipPath id="SVGID_2_">
			<use xlink:href="#SVGID_1_"  style="overflow:visible;"/>
		</clipPath>
		<path class="st2" d="M132.2,125l-17.7-17.7 M135.8,121.4l-17.7-17.7 M139.4,117.8l-17.7-17.7 M143,114.2l-17.7-17.7 M146.6,110.6
			l-17.7-17.7 M150.2,107l-17.7-17.7 M153.8,103.4l-17.7-17.7"/>
	</g>
	<polygon class="st0" points="123.5,105.4 123.5,112.5 144.7,112.5 144.7,98.3 123.5,98.3 	"/>
	<g>
		<path class="st3" d="M103.8,87.3c0,0.2,0,0.2-0.2,0.2c-0.1,0-0.1,0-0.2-0.2l-2.5-5.9c0-0.1,0-0.1-0.1-0.2l-1.3,5.3
			c0,0.1,0,0.2,0,0.2c0,0.2,0.1,0.4,0.7,0.4c0.1,0,0.2,0,0.2,0.1c0,0.2-0.1,0.2-0.2,0.2c-0.3,0-0.7,0-1,0c-0.3,0-0.7,0-1,0
			c-0.1,0-0.1,0-0.1-0.1c0-0.2,0.1-0.2,0.2-0.2c0.8,0,1-0.3,1.1-0.7l1.3-5.4c0-0.1-0.6-0.1-0.7-0.1c-0.2,0-0.3,0-0.3-0.1
			c0-0.2,0.1-0.2,0.3-0.2h1.3c0.2,0,0.2,0,0.3,0.2l2.2,5.2l1.1-4.4c0,0,0-0.2,0-0.2c0-0.2-0.1-0.4-0.7-0.4c-0.1,0-0.2,0-0.2-0.1
			c0-0.2,0.1-0.2,0.2-0.2c0.3,0,0.7,0,1,0c0.3,0,0.7,0,1,0c0.1,0,0.1,0.1,0.1,0.1c0,0.2-0.1,0.2-0.2,0.2c-0.8,0-1,0.3-1.1,0.7
			L103.8,87.3z"/>
	</g>
	<polyline points="64.2,89 59.7,91.3 64.2,93.5 63.1,91.3 	"/>
	<polyline points="140.2,93.5 144.7,91.3 140.2,89 141.3,91.3 	"/>
	<line class="st0" x1="63.1" y1="91.3" x2="141.3" y2="91.3"/>
	<line class="st4" x1="187.2" y1="16.8" x2="187.2" y2="137.3"/>
	<path class="st5" d="M123.5,116.1v21.3 M144.7,116.1v21.3"/>
	<path class="st6" d="M130.5,126.7h7.1 M134.1,123.1v7.1"/>
	<g>
		<path class="st3" d="M143.5,185.9c-0.3,1.1-1.3,2-2.3,2c-0.6,0-1.1-0.4-1.1-0.9c0-0.5,0.3-0.6,0.6-0.6c0.1,0,0.4,0,0.4,0.3
			c0,0.2-0.1,0.3-0.2,0.4c-0.1,0.1-0.3,0.1-0.4,0.1c0.2,0.4,0.6,0.4,0.8,0.4c0.5,0,0.8-0.3,1.1-0.6c0.4-0.5,0.5-1,0.6-1.5
			c-0.3,0.3-0.6,0.4-1,0.4c-0.6,0-1.2-0.3-1.2-1.2c0-0.5,0.2-1,0.6-2.1c0.1-0.2,0.2-0.4,0.2-0.7c0-0.3-0.2-0.3-0.2-0.3
			c-0.3,0-0.7,0.3-1,1.2c0,0.2-0.1,0.2-0.2,0.2c0,0-0.1,0-0.1-0.1c0-0.1,0.4-1.5,1.3-1.5c0.5,0,0.8,0.4,0.8,0.8c0,0.2,0,0.3-0.2,0.7
			c-0.3,0.9-0.5,1.5-0.5,2c0,0.4,0.1,0.8,0.6,0.8c0.7,0,1.1-0.7,1.1-0.8l0.4-1.8c0.1-0.3,0.1-0.5,0.2-0.8c0-0.2,0.1-0.5,0.1-0.5
			c0.1-0.1,0.2-0.2,0.3-0.2c0.1,0,0.3,0.1,0.3,0.3c0,0.1,0,0.1,0,0.2L143.5,185.9z"/>
	</g>
	<g>
		<path class="st3" d="M147.9,187.3H145c0-0.2,0-0.2,0.1-0.3l1.7-1.7c0.2-0.3,0.7-0.7,0.7-1.3c0-0.6-0.4-1.1-1.1-1.1
			c-0.3,0-0.8,0.2-1,0.6c0.4,0,0.4,0.2,0.4,0.4c0,0.3-0.2,0.4-0.4,0.4c-0.1,0-0.4,0-0.4-0.4c0-0.6,0.6-1.2,1.4-1.2
			c0.9,0,1.6,0.5,1.6,1.4c0,0.7-0.5,1.1-1,1.5c-0.4,0.3-0.7,0.5-1.4,1.2h1.3c0.1,0,0.6,0,0.7,0c0.1-0.1,0.2-0.5,0.2-0.6h0.2
			L147.9,187.3z"/>
	</g>
	<g>
		<path class="st3" d="M150.2,188.4v-10h1.4v0.4h-1v9.2h1v0.4H150.2z"/>
	</g>
	<g>
		<path class="st3" d="M153.2,183c0.1-0.5,0.2-0.6,0.2-0.8c0-0.3-0.1-0.5-0.3-0.5c-0.4,0-0.6,0.5-0.7,1.2c-0.1,0.2-0.1,0.2-0.2,0.2
			c0,0-0.1,0-0.1-0.1c0,0,0.1-0.6,0.3-1c0.1-0.2,0.3-0.6,0.7-0.6c0.5,0,0.9,0.3,0.9,0.9c0.2-0.2,0.7-0.9,1.6-0.9
			c0.7,0,1.1,0.4,1.1,1.1c0,0.6-0.4,1.7-0.6,2.2c-0.1,0.2-0.2,0.5-0.2,0.7c0,0.2,0.1,0.3,0.2,0.3c0.5,0,0.8-0.6,1-1.2
			c0.1-0.1,0.1-0.2,0.2-0.2c0,0,0.1,0,0.1,0.1c0,0.1-0.4,1.5-1.3,1.5c-0.5,0-0.8-0.3-0.8-0.8c0-0.1,0-0.2,0.1-0.5
			c0.2-0.4,0.6-1.7,0.6-2.3c0-0.3-0.1-0.7-0.5-0.7c-0.9,0-1.5,0.9-1.6,1.2c0,0-0.1,0.3-0.1,0.5c0,0.2-0.1,0.4-0.2,0.7l-0.2,0.9
			c-0.1,0.2-0.2,0.7-0.2,0.7c-0.1,0.2-0.2,0.3-0.4,0.3c-0.1,0-0.3-0.1-0.3-0.3c0,0,0.1-0.3,0.1-0.4L153.2,183z"/>
	</g>
	<g>
		<path class="st3" d="M159.3,188.4H158V188h1v-9.2h-1v-0.4h1.4V188.4z"/>
		<path class="st3" d="M164.2,182.6c-0.1,0-0.3,0-0.3-0.2c0-0.2,0.2-0.2,0.3-0.2h6c0.1,0,0.3,0,0.3,0.2c0,0.2-0.2,0.2-0.3,0.2H164.2
			z M164.1,184.6c-0.1,0-0.3,0-0.3-0.2s0.2-0.2,0.3-0.2h5.9c0.1,0,0.3,0,0.3,0.2s-0.2,0.2-0.3,0.2H164.1z"/>
	</g>
	<g>
		<path class="st3" d="M129.6,196.4c0.4-0.5,0.8-0.8,1.5-0.8c0.7,0,1.1,0.4,1.1,1.1c0,0.6-0.4,1.8-0.6,2.2c-0.1,0.2-0.2,0.5-0.2,0.7
			c0,0.2,0.1,0.3,0.2,0.3c0.5,0,0.9-0.7,1-1.2c0-0.1,0-0.2,0.1-0.2c0,0,0.1,0,0.1,0.1c0,0.1-0.4,1.5-1.3,1.5c-0.5,0-0.8-0.3-0.8-0.8
			c0-0.2,0-0.3,0.1-0.5c0.2-0.6,0.6-1.7,0.6-2.2c0-0.4-0.1-0.7-0.5-0.7c-0.4,0-0.7,0.2-1,0.3c-0.3,0.3-0.6,0.8-0.7,0.9
			c0,0.1-0.1,0.4-0.1,0.4c0,0.2-0.1,0.4-0.2,0.7l-0.2,0.9l-0.2,0.8c0,0.1-0.2,0.3-0.4,0.3c-0.1,0-0.3,0-0.3-0.3c0-0.1,0-0.1,0-0.2
			l1.4-5.7l0-0.2c0-0.1,0-0.2-0.5-0.2c-0.1,0-0.2,0-0.2-0.1c0-0.2,0.1-0.2,0.2-0.2c0.3,0,1-0.1,1.2-0.1c0.1,0,0.1,0.1,0.1,0.1
			L129.6,196.4z"/>
	</g>
	<g>
		<path class="st3" d="M134.5,202.6v-10h1.4v0.4h-1v9.2h1v0.4H134.5z"/>
	</g>
	<g>
		<path class="st3" d="M137.5,197.2c0.1-0.5,0.2-0.6,0.2-0.8c0-0.3-0.1-0.5-0.3-0.5c-0.4,0-0.6,0.5-0.7,1.2
			c-0.1,0.2-0.1,0.2-0.2,0.2c0,0-0.1,0-0.1-0.1c0,0,0.1-0.6,0.3-1c0.1-0.2,0.3-0.6,0.7-0.6c0.5,0,0.9,0.3,0.9,0.9
			c0.2-0.2,0.7-0.9,1.6-0.9c0.7,0,1.1,0.4,1.1,1.1c0,0.6-0.4,1.7-0.6,2.2c-0.1,0.2-0.2,0.5-0.2,0.7c0,0.2,0.1,0.3,0.2,0.3
			c0.5,0,0.8-0.6,1-1.2c0-0.1,0-0.2,0.1-0.2c0,0,0.1,0,0.1,0.1c0,0.1-0.4,1.5-1.3,1.5c-0.5,0-0.8-0.3-0.8-0.8c0-0.1,0-0.2,0.1-0.5
			c0.2-0.4,0.6-1.7,0.6-2.3c0-0.3-0.1-0.7-0.5-0.7c-0.9,0-1.5,0.9-1.6,1.2c0,0-0.1,0.3-0.1,0.5c0,0.2-0.1,0.4-0.2,0.7l-0.2,0.9
			c-0.1,0.2-0.2,0.7-0.2,0.7c-0.1,0.2-0.2,0.3-0.4,0.3c-0.1,0-0.3-0.1-0.3-0.3c0,0,0.1-0.3,0.1-0.4L137.5,197.2z"/>
	</g>
	<g>
		<path class="st3" d="M143.7,202.6h-1.4v-0.4h1V193h-1v-0.4h1.4V202.6z"/>
	</g>
	<path d="M149.4,198.5c0,0,0.1-0.1,0.1-0.1c0,0,0.4,0.4,0.5,0.5c0.3,0.3,0.6,0.6,0.9,0.9c0,0,0.1,0,0.1,0c0.1,0,0.1-0.1,0.1-0.1
		c0,0-0.3-0.6-0.6-1.1l-0.4-0.7l1.7-0.8c0.1-0.1,0.1-0.1,0.1-0.1c0,0,0-0.1-0.1-0.1c0,0-0.5,0.1-2,0.4l-0.2-1.9c0-0.2,0-0.2-0.1-0.2
		c-0.1,0-0.1,0-0.1,0.2l-0.2,1.9l-1.8-0.4c0,0-0.1,0-0.1,0c-0.1,0-0.1,0-0.1,0.1c0,0.1,0,0.1,0.2,0.1l1.7,0.8l-0.9,1.7
		c-0.1,0.1-0.1,0.1-0.1,0.2c0,0,0,0.1,0.1,0.1c0,0,0,0,0.1-0.1L149.4,198.5z M157.5,197.1c0.1-0.3,0.3-1.2,1-1.2c0,0,0.3,0,0.5,0.1
		c-0.3,0-0.5,0.3-0.5,0.5c0,0.2,0.1,0.3,0.4,0.3c0.2,0,0.5-0.2,0.5-0.6c0-0.5-0.6-0.7-0.9-0.7c-0.6,0-0.9,0.5-1,0.8
		c-0.2-0.7-0.8-0.8-1.1-0.8c-1,0-1.6,1.3-1.6,1.5c0,0.1,0.1,0.1,0.1,0.1c0.1,0,0.1,0,0.1-0.1c0.3-1.1,1-1.3,1.3-1.3
		c0.2,0,0.5,0.1,0.5,0.7c0,0.3-0.2,1-0.5,2.4c-0.2,0.6-0.5,1-0.9,1c-0.1,0-0.3,0-0.5-0.1c0.2,0,0.5-0.3,0.5-0.5
		c0-0.3-0.2-0.3-0.4-0.3c-0.3,0-0.5,0.3-0.5,0.6c0,0.5,0.5,0.7,0.9,0.7c0.7,0,1-0.7,1-0.8c0.1,0.4,0.5,0.8,1.1,0.8
		c1,0,1.6-1.3,1.6-1.5c0-0.1-0.1-0.1-0.1-0.1c-0.1,0-0.1,0-0.1,0.1c-0.3,1.1-1,1.3-1.3,1.3c-0.4,0-0.5-0.3-0.5-0.7
		c0-0.2,0.1-0.4,0.2-0.9L157.5,197.1z"/>
	<g>
		<path class="st3" d="M163.2,201.5h-2.9c0-0.2,0-0.2,0.1-0.3l1.7-1.7c0.2-0.3,0.7-0.7,0.7-1.3c0-0.6-0.4-1.1-1.1-1.1
			c-0.3,0-0.8,0.2-1,0.6c0.4,0,0.4,0.2,0.4,0.4c0,0.3-0.2,0.4-0.4,0.4c-0.1,0-0.4,0-0.4-0.4c0-0.6,0.6-1.2,1.5-1.2
			c0.9,0,1.6,0.5,1.6,1.4c0,0.7-0.5,1.1-1,1.5c-0.4,0.3-0.7,0.5-1.4,1.2h1.3c0.1,0,0.6,0,0.7,0c0.1-0.1,0.2-0.5,0.2-0.6h0.2
			L163.2,201.5z"/>
	</g>
	<g>
		<path class="st3" d="M165.6,202.6v-10h1.4v0.4h-1v9.2h1v0.4H165.6z"/>
	</g>
	<g>
		<path class="st3" d="M168.6,197.2c0.1-0.5,0.2-0.6,0.2-0.8c0-0.3-0.1-0.5-0.3-0.5c-0.4,0-0.6,0.5-0.7,1.2
			c-0.1,0.2-0.1,0.2-0.2,0.2c0,0-0.1,0-0.1-0.1c0,0,0.1-0.6,0.3-1c0.1-0.2,0.3-0.6,0.7-0.6c0.5,0,0.9,0.3,0.9,0.9
			c0.2-0.2,0.7-0.9,1.6-0.9c0.7,0,1.1,0.4,1.1,1.1c0,0.6-0.4,1.7-0.6,2.2c-0.1,0.2-0.2,0.5-0.2,0.7c0,0.2,0.1,0.3,0.2,0.3
			c0.5,0,0.8-0.6,1-1.2c0.1-0.1,0.1-0.2,0.2-0.2c0,0,0.1,0,0.1,0.1c0,0.1-0.4,1.5-1.3,1.5c-0.5,0-0.8-0.3-0.8-0.8
			c0-0.1,0-0.2,0.1-0.5c0.2-0.4,0.6-1.7,0.6-2.3c0-0.3-0.1-0.7-0.5-0.7c-0.9,0-1.5,0.9-1.6,1.2c0,0-0.1,0.3-0.1,0.5
			c0,0.2-0.1,0.4-0.2,0.7l-0.2,0.9c-0.1,0.2-0.2,0.7-0.2,0.7c-0.1,0.2-0.2,0.3-0.4,0.3c-0.1,0-0.3-0.1-0.3-0.3c0,0,0.1-0.3,0.1-0.4
			L168.6,197.2z"/>
	</g>
	<g>
		<path class="st3" d="M174.7,202.6h-1.4v-0.4h1V193h-1v-0.4h1.4V202.6z"/>
	</g>
	<line class="st7" x1="251" y1="20.4" x2="251" y2="179.8"/>
	<path class="st5" d="M187.2,158.6v21.3 M208.5,158.6v21.3"/>
	<path class="st6" d="M194.3,169.2h7.1 M197.9,165.7v7.1"/>
	<g>
		<defs>
			<polygon id="SVGID_3_" points="59.7,105.4 59.7,112.5 80.9,112.5 80.9,98.3 59.7,98.3 			"/>
		</defs>
		<clipPath id="SVGID_4_">
			<use xlink:href="#SVGID_3_"  style="overflow:visible;"/>
		</clipPath>
		<path class="st8" d="M88.4,105.8l-17.7,17.7 M85.3,102.7l-17.7,17.7 M82.2,99.6l-17.7,17.7 M79.1,96.5l-17.7,17.7 M76,93.4
			l-17.7,17.7 M72.8,90.2L55.1,108 M69.7,87.1L52,104.8"/>
	</g>
	<path class="st0" d="M59.7,105.4v7.1h21.3V98.3H59.7V105.4z M123.5,155h85 M123.5,155v-14.2 M123.5,140.9h85 M208.5,140.9V155"/>
	<g>
		<defs>
			<polygon id="SVGID_5_" points="187.2,147.9 187.2,155 208.5,155 208.5,140.9 187.2,140.9 			"/>
		</defs>
		<clipPath id="SVGID_6_">
			<use xlink:href="#SVGID_5_"  style="overflow:visible;"/>
		</clipPath>
		<path class="st9" d="M196.2,167.3l-17.7-17.7 M199.8,163.7L182.1,146 M203.4,160.1l-17.7-17.7 M207,156.5l-17.7-17.7 M210.6,152.9
			l-17.7-17.7 M214.2,149.3l-17.7-17.7 M217.8,145.7L200.1,128"/>
	</g>
	<polygon class="st0" points="187.2,147.9 187.2,155 208.5,155 208.5,140.9 187.2,140.9 	"/>
	<g>
		<defs>
			<polygon id="SVGID_7_" points="123.5,147.9 123.5,155 144.7,155 144.7,140.9 123.5,140.9 			"/>
		</defs>
		<clipPath id="SVGID_8_">
			<use xlink:href="#SVGID_7_"  style="overflow:visible;"/>
		</clipPath>
		<path class="st10" d="M149,145.1l-17.7,17.7 M145.4,141.5l-17.7,17.7 M141.8,137.9l-17.7,17.7 M138.2,134.3l-17.7,17.7
			 M134.6,130.7l-17.7,17.7 M131,127.1l-17.7,17.7"/>
	</g>
	<path class="st0" d="M123.5,147.9v7.1h21.3v-14.2h-21.3V147.9z M187.2,197.6h85 M187.2,197.6v-14.2 M187.2,183.4h85 M272.3,183.4
		v14.2"/>
	<g>
		<defs>
			<polygon id="SVGID_9_" points="251,190.5 251,197.6 272.3,197.6 272.3,183.4 251,183.4 			"/>
		</defs>
		<clipPath id="SVGID_10_">
			<use xlink:href="#SVGID_9_"  style="overflow:visible;"/>
		</clipPath>
		<path class="st11" d="M260.1,209.7L242.4,192 M263.7,206.1L246,188.4 M267.3,202.5l-17.7-17.7 M270.9,198.9l-17.7-17.7
			 M274.5,195.3l-17.7-17.7 M278.1,191.7L260.4,174 M281.7,188.1L264,170.4"/>
	</g>
	<polygon class="st0" points="251,190.5 251,197.6 272.3,197.6 272.3,183.4 251,183.4 	"/>
	<g>
		<defs>
			<polygon id="SVGID_11_" points="187.2,190.5 187.2,197.6 208.5,197.6 208.5,183.4 187.2,183.4 			"/>
		</defs>
		<clipPath id="SVGID_12_">
			<use xlink:href="#SVGID_11_"  style="overflow:visible;"/>
		</clipPath>
		<path class="st12" d="M213.6,188.5l-17.7,17.7 M210,184.9l-17.7,17.7 M206.4,181.3L188.7,199 M202.8,177.7l-17.7,17.7
			 M199.2,174.1l-17.7,17.7 M195.6,170.5l-17.7,17.7"/>
	</g>
	<polygon class="st0" points="187.2,190.5 187.2,197.6 208.5,197.6 208.5,183.4 187.2,183.4 	"/>
	<g>
		<path class="st3" d="M64.9,109c-1.2,0-2.2-1-2.2-2.2c0-1.2,1-2.3,2.2-2.3c1.2,0,2.2,1.1,2.2,2.3C67.1,108,66.1,109,64.9,109z
			 M66,108c0.2-0.4,0.2-1,0.2-1.3c0-0.4,0-1-0.3-1.4c-0.3-0.4-0.7-0.6-1.1-0.6c-0.4,0-0.9,0.2-1.1,0.7c-0.2,0.4-0.2,1-0.2,1.4
			c0,0.4,0,1,0.2,1.4c0.3,0.5,0.7,0.7,1.1,0.7C65.4,108.8,65.8,108.5,66,108z"/>
		<path class="st3" d="M68.8,108.9c-0.3,0-0.5-0.2-0.5-0.5s0.2-0.5,0.5-0.5c0.3,0,0.5,0.2,0.5,0.5S69.1,108.9,68.8,108.9z"/>
		<path class="st3" d="M71.3,103c0-0.5-0.1-0.6-0.8-0.6v-0.3l1.4-0.1v4.8l1.4-1.2c0.1-0.1,0.2-0.2,0.2-0.4c0-0.1-0.1-0.2-0.3-0.2
			v-0.3c0.1,0,0.8,0,1.1,0c0.3,0,0.4,0,0.7,0v0.3c-0.2,0-0.6,0-1.3,0.5c-0.1,0.1-0.8,0.7-0.8,0.7c0,0,0,0.1,0.1,0.1l1.3,1.8
			c0.4,0.5,0.6,0.5,1,0.5v0.3c-0.3,0-0.6,0-0.9,0c-0.2,0-0.8,0-1.1,0v-0.3c0.2,0,0.4,0,0.4-0.2c0-0.2-0.4-0.7-1.2-1.8l-0.6,0.5v1
			c0,0.4,0.1,0.4,0.8,0.4v0.3c-0.4,0-0.8,0-1.1,0c-0.3,0-0.8,0-1.1,0v-0.3c0.7,0,0.8,0,0.8-0.4V103z"/>
		<path class="st3" d="M76.9,108.9c-0.3,0-0.5-0.2-0.5-0.5s0.2-0.5,0.5-0.5c0.3,0,0.5,0.2,0.5,0.5S77.2,108.9,76.9,108.9z"/>
	</g>
	<g>
		<path class="st3" d="M16,100.9c-0.3,1.1-1.3,2-2.3,2c-0.6,0-1.1-0.4-1.1-0.9c0-0.5,0.3-0.6,0.6-0.6c0.1,0,0.4,0,0.4,0.3
			c0,0.2-0.1,0.3-0.2,0.4c-0.1,0.1-0.3,0.1-0.4,0.1c0.2,0.4,0.6,0.4,0.8,0.4c0.5,0,0.8-0.3,1.1-0.6c0.4-0.5,0.5-1,0.6-1.5
			c-0.3,0.3-0.6,0.4-1,0.4c-0.6,0-1.2-0.3-1.2-1.2c0-0.5,0.2-1,0.6-2.1c0.1-0.2,0.2-0.4,0.2-0.7c0-0.3-0.2-0.3-0.2-0.3
			c-0.3,0-0.7,0.3-1,1.2c0,0.2-0.1,0.2-0.2,0.2c0,0-0.1,0-0.1-0.1c0-0.1,0.4-1.5,1.3-1.5c0.5,0,0.8,0.4,0.8,0.8c0,0.2,0,0.3-0.2,0.7
			c-0.3,0.9-0.5,1.5-0.5,2c0,0.4,0.1,0.8,0.6,0.8c0.7,0,1.1-0.7,1.1-0.8l0.4-1.8c0.1-0.3,0.1-0.5,0.2-0.8c0-0.2,0.1-0.5,0.1-0.5
			c0.1-0.1,0.2-0.2,0.3-0.2c0.1,0,0.3,0.1,0.3,0.3c0,0.1,0,0.1,0,0.2L16,100.9z"/>
	</g>
	<g>
		<path class="st3" d="M19,102.4c-1.6,0-1.6-1.9-1.6-2.4s0-2.4,1.6-2.4c0.6,0,1,0.3,1.2,0.6c0.3,0.5,0.4,1,0.4,1.8
			C20.6,100.6,20.6,102.4,19,102.4z M19.9,101.5c0.1-0.4,0.1-1,0.1-1.5c0-0.6,0-1.1-0.1-1.5c-0.1-0.4-0.5-0.6-0.9-0.6
			c-0.3,0-0.7,0.1-0.9,0.7C18,99,18,99.5,18,100c0,0.5,0,1.1,0.1,1.5c0.1,0.6,0.6,0.8,0.9,0.8C19.2,102.2,19.7,102.1,19.9,101.5z"/>
	</g>
	<g>
		<path class="st3" d="M22.6,103.4v-10H24v0.4h-1v9.2h1v0.4H22.6z"/>
	</g>
	<g>
		<path class="st3" d="M25.6,98c0.1-0.5,0.2-0.6,0.2-0.8c0-0.3-0.1-0.5-0.3-0.5c-0.4,0-0.6,0.5-0.7,1.2c-0.1,0.2-0.1,0.2-0.2,0.2
			c0,0-0.1,0-0.1-0.1c0,0,0.1-0.6,0.3-1c0.1-0.2,0.3-0.6,0.7-0.6c0.5,0,0.9,0.3,0.9,0.9c0.2-0.2,0.7-0.9,1.6-0.9
			c0.7,0,1.1,0.4,1.1,1.1c0,0.6-0.4,1.7-0.6,2.2c-0.1,0.2-0.2,0.5-0.2,0.7c0,0.2,0.1,0.3,0.2,0.3c0.5,0,0.8-0.6,1-1.2
			c0-0.1,0-0.2,0.1-0.2c0,0,0.1,0,0.1,0.1c0,0.1-0.4,1.5-1.3,1.5c-0.5,0-0.8-0.3-0.8-0.8c0-0.1,0-0.2,0.1-0.5
			c0.2-0.4,0.6-1.7,0.6-2.3c0-0.3-0.1-0.7-0.5-0.7c-0.9,0-1.5,0.9-1.6,1.2c0,0-0.1,0.3-0.1,0.5c0,0.2-0.1,0.4-0.2,0.7l-0.2,0.9
			c-0.1,0.2-0.2,0.7-0.2,0.7c-0.1,0.2-0.2,0.3-0.4,0.3c-0.1,0-0.3-0.1-0.3-0.3c0,0,0.1-0.3,0.1-0.4L25.6,98z"/>
	</g>
	<g>
		<path class="st3" d="M31.8,103.4h-1.4V103h1v-9.2h-1v-0.4h1.4V103.4z"/>
		<path class="st3" d="M36.6,97.6c-0.1,0-0.3,0-0.3-0.2s0.2-0.2,0.3-0.2h6c0.1,0,0.3,0,0.3,0.2s-0.2,0.2-0.3,0.2H36.6z M36.6,99.5
			c-0.1,0-0.3,0-0.3-0.2s0.2-0.2,0.3-0.2h5.9c0.1,0,0.3,0,0.3,0.2s-0.2,0.2-0.3,0.2H36.6z"/>
	</g>
	<g>
		<path class="st3" d="M2.1,111.4c0.4-0.5,0.8-0.8,1.5-0.8c0.7,0,1.1,0.4,1.1,1.1c0,0.6-0.4,1.8-0.6,2.2c-0.1,0.2-0.2,0.5-0.2,0.7
			c0,0.2,0.1,0.3,0.2,0.3c0.5,0,0.9-0.7,1-1.2c0-0.1,0-0.2,0.1-0.2c0,0,0.1,0,0.1,0.1c0,0.1-0.4,1.5-1.3,1.5c-0.5,0-0.8-0.3-0.8-0.8
			c0-0.2,0-0.3,0.1-0.5c0.2-0.6,0.6-1.7,0.6-2.2c0-0.4-0.1-0.7-0.5-0.7c-0.4,0-0.7,0.2-1,0.3c-0.3,0.3-0.6,0.8-0.7,0.9
			c0,0.1-0.1,0.4-0.1,0.4c0,0.2-0.1,0.4-0.2,0.7l-0.2,0.9l-0.2,0.8c0,0.1-0.2,0.3-0.4,0.3c-0.1,0-0.3,0-0.3-0.3c0-0.1,0-0.1,0-0.2
			l1.4-5.7l0-0.2c0-0.1,0-0.2-0.5-0.2c-0.1,0-0.2,0-0.2-0.1c0-0.2,0.1-0.2,0.2-0.2c0.3,0,1-0.1,1.2-0.1c0.1,0,0.1,0.1,0.1,0.1
			L2.1,111.4z"/>
	</g>
	<g>
		<path class="st3" d="M6.9,117.5v-10h1.4v0.4h-1v9.2h1v0.4H6.9z"/>
	</g>
	<g>
		<path class="st3" d="M10,112.1c0.1-0.5,0.2-0.6,0.2-0.8c0-0.3-0.1-0.5-0.3-0.5c-0.4,0-0.6,0.5-0.7,1.2c-0.1,0.2-0.1,0.2-0.2,0.2
			c0,0-0.1,0-0.1-0.1c0,0,0.1-0.6,0.3-1c0.1-0.2,0.3-0.6,0.7-0.6c0.5,0,0.9,0.3,0.9,0.9c0.2-0.2,0.7-0.9,1.6-0.9
			c0.7,0,1.1,0.4,1.1,1.1c0,0.6-0.4,1.7-0.6,2.2c-0.1,0.2-0.2,0.5-0.2,0.7c0,0.2,0.1,0.3,0.2,0.3c0.5,0,0.8-0.6,1-1.2
			c0-0.1,0-0.2,0.1-0.2c0,0,0.1,0,0.1,0.1c0,0.1-0.4,1.5-1.3,1.5c-0.5,0-0.8-0.3-0.8-0.8c0-0.1,0-0.2,0.1-0.5
			c0.2-0.4,0.6-1.7,0.6-2.3c0-0.3-0.1-0.7-0.5-0.7c-0.9,0-1.5,0.9-1.6,1.2c0,0-0.1,0.3-0.1,0.5c0,0.2-0.1,0.4-0.2,0.7l-0.2,0.9
			c-0.1,0.2-0.2,0.7-0.2,0.7c-0.1,0.2-0.2,0.3-0.4,0.3c-0.1,0-0.3-0.1-0.3-0.3c0,0,0.1-0.3,0.1-0.4L10,112.1z"/>
	</g>
	<g>
		<path class="st3" d="M16.1,117.5h-1.4v-0.4h1V108h-1v-0.4h1.4V117.5z"/>
	</g>
	<path d="M21.8,113.5c0,0,0.1-0.1,0.1-0.1c0,0,0.4,0.4,0.5,0.5c0.3,0.3,0.6,0.6,0.9,0.9c0,0,0.1,0,0.1,0c0.1,0,0.1-0.1,0.1-0.1
		c0,0-0.3-0.6-0.6-1.1l-0.4-0.7l1.7-0.8c0.1-0.1,0.1-0.1,0.1-0.1c0,0,0-0.1-0.1-0.1c0,0-0.5,0.1-2,0.4l-0.2-1.9c0-0.2,0-0.2-0.1-0.2
		c-0.1,0-0.1,0-0.1,0.2l-0.2,1.9l-1.8-0.4c0,0-0.1,0-0.1,0c-0.1,0-0.1,0-0.1,0.1c0,0.1,0,0.1,0.2,0.1l1.7,0.8l-0.9,1.7
		c-0.1,0.1-0.1,0.1-0.1,0.2c0,0,0,0.1,0.1,0.1c0,0,0,0,0.1-0.1L21.8,113.5z M30,112c0.1-0.3,0.3-1.2,1-1.2c0,0,0.3,0,0.5,0.1
		c-0.3,0-0.5,0.3-0.5,0.5c0,0.2,0.1,0.3,0.4,0.3c0.2,0,0.5-0.2,0.5-0.6c0-0.5-0.6-0.7-0.9-0.7c-0.6,0-0.9,0.5-1,0.8
		c-0.2-0.7-0.8-0.8-1.1-0.8c-1,0-1.6,1.3-1.6,1.5c0,0.1,0.1,0.1,0.1,0.1c0.1,0,0.1,0,0.1-0.1c0.3-1.1,1-1.3,1.3-1.3
		c0.2,0,0.5,0.1,0.5,0.7c0,0.3-0.2,1-0.5,2.4c-0.2,0.6-0.5,1-0.9,1c-0.1,0-0.3,0-0.5-0.1c0.2,0,0.5-0.3,0.5-0.5
		c0-0.3-0.2-0.3-0.4-0.3c-0.3,0-0.5,0.3-0.5,0.6c0,0.5,0.5,0.7,0.9,0.7c0.7,0,1-0.7,1-0.8c0.1,0.4,0.5,0.8,1.1,0.8
		c1,0,1.6-1.3,1.6-1.5c0-0.1-0.1-0.1-0.1-0.1c-0.1,0-0.1,0-0.1,0.1c-0.3,1.1-1,1.3-1.3,1.3c-0.4,0-0.5-0.3-0.5-0.7
		c0-0.2,0.1-0.4,0.2-0.9L30,112z"/>
	<g>
		<path class="st3" d="M34.3,116.6c-1.6,0-1.6-1.9-1.6-2.4s0-2.4,1.6-2.4c0.6,0,1,0.3,1.2,0.6c0.3,0.5,0.4,1,0.4,1.8
			C35.9,114.8,35.9,116.6,34.3,116.6z M35.2,115.6c0.1-0.4,0.1-1,0.1-1.5c0-0.6,0-1.1-0.1-1.5c-0.1-0.4-0.5-0.6-0.9-0.6
			c-0.3,0-0.7,0.1-0.9,0.7c-0.1,0.4-0.1,0.9-0.1,1.4c0,0.5,0,1.1,0.1,1.5c0.1,0.6,0.6,0.8,0.9,0.8C34.5,116.4,35,116.3,35.2,115.6z"
			/>
	</g>
	<g>
		<path class="st3" d="M38,117.5v-10h1.4v0.4h-1v9.2h1v0.4H38z"/>
	</g>
	<g>
		<path class="st3" d="M41.1,112.1c0.1-0.5,0.2-0.6,0.2-0.8c0-0.3-0.1-0.5-0.3-0.5c-0.4,0-0.6,0.5-0.7,1.2c-0.1,0.2-0.1,0.2-0.2,0.2
			c0,0-0.1,0-0.1-0.1c0,0,0.1-0.6,0.3-1c0.1-0.2,0.3-0.6,0.7-0.6c0.5,0,0.9,0.3,0.9,0.9c0.2-0.2,0.7-0.9,1.6-0.9
			c0.7,0,1.1,0.4,1.1,1.1c0,0.6-0.4,1.7-0.6,2.2c-0.1,0.2-0.2,0.5-0.2,0.7c0,0.2,0.1,0.3,0.2,0.3c0.5,0,0.8-0.6,1-1.2
			c0-0.1,0-0.2,0.1-0.2c0,0,0.1,0,0.1,0.1c0,0.1-0.4,1.5-1.3,1.5c-0.5,0-0.8-0.3-0.8-0.8c0-0.1,0-0.2,0.1-0.5
			c0.2-0.4,0.6-1.7,0.6-2.3c0-0.3-0.1-0.7-0.5-0.7c-0.9,0-1.5,0.9-1.6,1.2c0,0-0.1,0.3-0.1,0.5c0,0.2-0.1,0.4-0.2,0.7l-0.2,0.9
			c-0.1,0.2-0.2,0.7-0.2,0.7c-0.1,0.2-0.2,0.3-0.4,0.3c-0.1,0-0.3-0.1-0.3-0.3c0,0,0.1-0.3,0.1-0.4L41.1,112.1z"/>
	</g>
	<g>
		<path class="st3" d="M47.2,117.5h-1.4v-0.4h1V108h-1v-0.4h1.4V117.5z"/>
	</g>
	<polyline points="271.3,29.7 275.8,27.5 271.3,25.2 272.4,27.5 	"/>
	<path class="st0" d="M52.6,27.5h219.8 M59.7,27.5V13.3"/>
	<g>
		<path class="st3" d="M25.7,21.3c-0.1,0.4-0.2,0.7-0.2,0.9c0,0.3,0.2,0.7,0.5,0.7c0.3,0,1-0.2,1.3-1.3c0-0.1,0-0.1,0.1-0.1
			c0,0,0.1,0,0.1,0.1c0,0.2-0.6,1.5-1.6,1.5c-0.6,0-1-0.4-1.1-0.8c0,0.1-0.4,0.8-1,0.8c-0.4,0-0.9-0.2-0.9-0.7
			c0-0.3,0.2-0.6,0.5-0.6c0.1,0,0.4,0.1,0.4,0.3c0,0.3-0.2,0.5-0.5,0.5c0.2,0.1,0.4,0.1,0.5,0.1c0.4,0,0.8-0.4,0.9-1
			c0.4-1.4,0.5-2.1,0.5-2.4c0-0.6-0.3-0.7-0.5-0.7c-0.3,0-1,0.2-1.3,1.3c0,0.1-0.1,0.1-0.1,0.1c0,0-0.1,0-0.1-0.1
			c0-0.2,0.6-1.5,1.6-1.5c0.3,0,0.8,0.1,1.1,0.8c0.1-0.2,0.5-0.8,1-0.8c0.3,0,0.9,0.1,0.9,0.7c0,0.4-0.3,0.6-0.5,0.6
			c-0.3,0-0.4-0.2-0.4-0.3c0-0.2,0.2-0.5,0.5-0.5c-0.2-0.1-0.4-0.1-0.5-0.1c-0.7,0-0.9,0.9-1,1.2L25.7,21.3z"/>
	</g>
	<g>
		<path class="st3" d="M29.5,25.4v-10h1.4v0.4h-1V25h1v0.4H29.5z"/>
	</g>
	<g>
		<path class="st3" d="M32.5,20c0.1-0.5,0.2-0.6,0.2-0.8c0-0.3-0.1-0.5-0.3-0.5c-0.4,0-0.6,0.5-0.7,1.2c-0.1,0.2-0.1,0.2-0.2,0.2
			c0,0-0.1,0-0.1-0.1c0,0,0.1-0.6,0.3-1c0.1-0.2,0.3-0.6,0.7-0.6c0.5,0,0.9,0.3,0.9,0.9c0.2-0.2,0.7-0.9,1.6-0.9
			c0.7,0,1.1,0.4,1.1,1.1c0,0.6-0.4,1.7-0.6,2.2c-0.1,0.2-0.2,0.5-0.2,0.7c0,0.2,0.1,0.3,0.2,0.3c0.5,0,0.8-0.6,1-1.2
			c0-0.1,0-0.2,0.1-0.2c0,0,0.1,0,0.1,0.1c0,0.1-0.4,1.5-1.3,1.5c-0.5,0-0.8-0.3-0.8-0.8c0-0.1,0-0.2,0.1-0.5
			c0.2-0.4,0.6-1.7,0.6-2.3c0-0.3-0.1-0.7-0.5-0.7c-0.9,0-1.5,0.9-1.6,1.2c0,0-0.1,0.3-0.1,0.5c0,0.2-0.1,0.4-0.2,0.7L32.7,22
			c-0.1,0.2-0.2,0.7-0.2,0.7c-0.1,0.2-0.2,0.3-0.4,0.3c-0.1,0-0.3-0.1-0.3-0.3c0-0.1,0.1-0.3,0.1-0.4L32.5,20z"/>
	</g>
	<g>
		<path class="st3" d="M38.7,25.4h-1.4V25h1v-9.2h-1v-0.4h1.4V25.4z"/>
	</g>
	<g>
		<path class="st3" d="M281.4,26.7c0.1-0.5,0.2-0.6,0.2-0.8c0-0.3-0.1-0.5-0.3-0.5c-0.4,0-0.6,0.5-0.7,1.2c-0.1,0.2-0.1,0.2-0.2,0.2
			c0,0-0.1,0-0.1-0.1c0,0,0.1-0.6,0.3-1c0.1-0.2,0.3-0.6,0.7-0.6c0.5,0,0.9,0.3,0.9,0.9c0.2-0.2,0.7-0.9,1.6-0.9
			c0.7,0,1.1,0.4,1.1,1.1c0,0.6-0.4,1.7-0.6,2.2c-0.1,0.2-0.2,0.5-0.2,0.7c0,0.2,0.1,0.3,0.2,0.3c0.5,0,0.8-0.6,1-1.2
			c0.1-0.1,0.1-0.2,0.2-0.2c0,0,0.1,0,0.1,0.1c0,0.1-0.4,1.5-1.3,1.5c-0.5,0-0.8-0.3-0.8-0.8c0-0.1,0-0.2,0.1-0.5
			c0.2-0.4,0.6-1.7,0.6-2.3c0-0.3-0.1-0.7-0.5-0.7c-0.9,0-1.5,0.9-1.6,1.2c0,0-0.1,0.3-0.1,0.5c0,0.2-0.1,0.4-0.2,0.7l-0.2,0.9
			c-0.1,0.2-0.2,0.7-0.2,0.7c-0.1,0.2-0.2,0.3-0.4,0.3c-0.1,0-0.3-0.1-0.3-0.3c0-0.1,0.1-0.3,0.1-0.4L281.4,26.7z"/>
	</g>
	<g>
		<path class="st3" d="M211.2,7.1C211.1,7.5,211,7.7,211,8c0,0.3,0.2,0.7,0.5,0.7c0.3,0,1-0.2,1.3-1.3c0-0.1,0-0.1,0.1-0.1
			c0,0,0.1,0,0.1,0.1c0,0.2-0.6,1.5-1.6,1.5c-0.6,0-1-0.4-1.1-0.8c0,0.1-0.4,0.8-1,0.8c-0.4,0-0.9-0.2-0.9-0.7
			c0-0.3,0.2-0.6,0.5-0.6c0.1,0,0.4,0.1,0.4,0.3c0,0.3-0.2,0.5-0.5,0.5c0.2,0.1,0.4,0.1,0.5,0.1c0.4,0,0.8-0.4,0.9-1
			c0.4-1.4,0.5-2.1,0.5-2.4c0-0.6-0.3-0.7-0.5-0.7c-0.3,0-1,0.2-1.3,1.3c0,0.1,0,0.1-0.1,0.1c0,0-0.1,0-0.1-0.1
			c0-0.2,0.6-1.5,1.6-1.5c0.3,0,0.8,0.1,1.1,0.8c0.1-0.2,0.5-0.8,1-0.8c0.3,0,0.9,0.1,0.9,0.7c0,0.4-0.3,0.6-0.5,0.6
			c-0.3,0-0.4-0.2-0.4-0.3c0-0.2,0.2-0.5,0.5-0.5c-0.2-0.1-0.4-0.1-0.5-0.1c-0.7,0-0.9,0.9-1,1.2L211.2,7.1z"/>
	</g>
	<g>
		<path class="st3" d="M217.1,10.2h-2.9c0-0.2,0-0.2,0.1-0.3l1.7-1.7c0.2-0.3,0.7-0.7,0.7-1.3c0-0.6-0.4-1.1-1.1-1.1
			c-0.3,0-0.8,0.2-1,0.6c0.4,0,0.4,0.2,0.4,0.4c0,0.3-0.2,0.4-0.4,0.4c-0.1,0-0.4,0-0.4-0.4c0-0.6,0.6-1.2,1.5-1.2
			c0.9,0,1.6,0.5,1.6,1.4c0,0.7-0.5,1.1-1,1.5c-0.4,0.3-0.7,0.5-1.4,1.2h1.3c0.1,0,0.6,0,0.7,0c0.1-0.1,0.2-0.5,0.2-0.6h0.2
			L217.1,10.2z"/>
	</g>
	<g>
		<path class="st3" d="M219.6,11.2v-10h1.4v0.4h-1v9.2h1v0.4H219.6z"/>
	</g>
	<g>
		<path class="st3" d="M222.6,5.8c0.1-0.5,0.2-0.6,0.2-0.8c0-0.3-0.1-0.5-0.3-0.5c-0.4,0-0.6,0.5-0.7,1.2c-0.1,0.2-0.1,0.2-0.2,0.2
			c0,0-0.1,0-0.1-0.1c0,0,0.1-0.6,0.3-1c0.1-0.2,0.3-0.6,0.7-0.6c0.5,0,0.9,0.3,0.9,0.9c0.2-0.2,0.7-0.9,1.6-0.9
			c0.7,0,1.1,0.4,1.1,1.1c0,0.6-0.4,1.7-0.6,2.2c-0.1,0.2-0.2,0.5-0.2,0.7c0,0.2,0.1,0.3,0.2,0.3c0.5,0,0.8-0.6,1-1.2
			c0.1-0.1,0.1-0.2,0.2-0.2c0,0,0.1,0,0.1,0.1c0,0.1-0.4,1.5-1.3,1.5c-0.5,0-0.8-0.3-0.8-0.8c0-0.1,0-0.2,0.1-0.5
			c0.2-0.4,0.6-1.7,0.6-2.3c0-0.3-0.1-0.7-0.5-0.7c-0.9,0-1.5,0.9-1.6,1.2c0,0-0.1,0.3-0.1,0.5c0,0.2-0.1,0.4-0.2,0.7l-0.2,0.9
			c-0.1,0.2-0.2,0.7-0.2,0.7c-0.1,0.2-0.2,0.3-0.4,0.3c-0.1,0-0.3-0.1-0.3-0.3c0-0.1,0.1-0.3,0.1-0.4L222.6,5.8z"/>
	</g>
	<g>
		<path class="st3" d="M228.7,11.2h-1.4v-0.4h1V1.7h-1V1.3h1.4V11.2z"/>
	</g>
	<g>
		<path class="st3" d="M221.6,37.2c0,0.2,0,0.2,0,0.2c0,0.2,0.3,0.2,0.6,0.2c0.2,0,0.3,0,0.3,0.1c0,0.2-0.1,0.2-0.2,0.2
			c-0.4,0-0.8,0-1.2,0c-0.3,0-1,0-1.2,0c0,0-0.2,0-0.2-0.1c0-0.2,0.1-0.2,0.3-0.2c0.8,0,0.8-0.1,0.9-0.5l1.4-5.7h0l-4,6.3
			c0,0.1-0.1,0.2-0.2,0.2c-0.1,0-0.1-0.1-0.1-0.2l-0.9-6.2h0l-1.4,5.4c0,0.1,0,0.2,0,0.2c0,0.2,0.1,0.4,0.7,0.4c0.1,0,0.2,0,0.2,0.1
			c0,0.2-0.1,0.2-0.2,0.2c-0.3,0-0.7,0-1,0c-0.3,0-0.7,0-1,0c-0.1,0-0.1,0-0.1-0.1c0-0.2,0.1-0.2,0.2-0.2c0.8,0,1-0.3,1.1-0.7
			l1.3-5.1c0-0.1,0-0.1,0-0.2c0-0.1-0.1-0.1-0.2-0.2c-0.1,0-0.3,0-0.4,0c-0.2,0-0.3,0-0.3-0.1c0-0.2,0.1-0.2,0.3-0.2h1.4
			c0.3,0,0.3,0,0.3,0.2l0.8,5.6l3.6-5.7c0.1-0.2,0.1-0.2,0.4-0.2h1.3c0.2,0,0.3,0,0.3,0.1c0,0.2-0.1,0.2-0.3,0.2
			c-0.7,0-0.8,0.1-0.9,0.5L221.6,37.2z"/>
	</g>
	<path class="st0" d="M187.2,13.3H251 M251,13.3v14.2"/>
	<polyline points="246.5,36.8 251,34.6 246.5,32.3 247.6,34.6 	"/>
	<line class="st0" x1="229.8" y1="34.6" x2="247.6" y2="34.6"/>
	<polyline points="191.8,32.3 187.2,34.6 191.8,36.8 190.6,34.6 	"/>
	<line class="st0" x1="208.5" y1="34.6" x2="190.6" y2="34.6"/>
	<g>
		<path class="st3" d="M147.4,7.1c-0.1,0.4-0.2,0.7-0.2,0.9c0,0.3,0.2,0.7,0.5,0.7c0.3,0,1-0.2,1.3-1.3c0-0.1,0-0.1,0.1-0.1
			c0,0,0.1,0,0.1,0.1c0,0.2-0.6,1.5-1.6,1.5c-0.6,0-1-0.4-1.1-0.8c0,0.1-0.4,0.8-1,0.8c-0.4,0-0.9-0.2-0.9-0.7
			c0-0.3,0.2-0.6,0.5-0.6c0.1,0,0.4,0.1,0.4,0.3c0,0.3-0.2,0.5-0.5,0.5c0.2,0.1,0.4,0.1,0.5,0.1c0.4,0,0.8-0.4,0.9-1
			c0.4-1.4,0.5-2.1,0.5-2.4c0-0.6-0.3-0.7-0.5-0.7c-0.3,0-1,0.2-1.3,1.3c0,0.1,0,0.1-0.1,0.1c0,0-0.1,0-0.1-0.1
			c0-0.2,0.6-1.5,1.6-1.5c0.3,0,0.8,0.1,1.1,0.8c0.1-0.2,0.5-0.8,1-0.8c0.3,0,0.9,0.1,0.9,0.7c0,0.4-0.3,0.6-0.5,0.6
			c-0.3,0-0.4-0.2-0.4-0.3c0-0.2,0.2-0.5,0.5-0.5c-0.2-0.1-0.4-0.1-0.5-0.1c-0.7,0-0.9,0.9-1,1.2L147.4,7.1z"/>
	</g>
	<g>
		<path class="st3" d="M152.4,9.6c0,0.2,0,0.3,0.7,0.3h0.3v0.3c-0.2,0-1,0-1.2,0c-0.3,0-1.1,0-1.2,0V9.9h0.3c0.7,0,0.7-0.1,0.7-0.3
			V6.1c-0.4,0.2-0.8,0.2-1,0.2V6c0.3,0,0.9,0,1.4-0.4c0.2,0,0.2,0,0.2,0.2V9.6z"/>
	</g>
	<g>
		<path class="st3" d="M155.8,11.2v-10h1.4v0.4h-1v9.2h1v0.4H155.8z"/>
	</g>
	<g>
		<path class="st3" d="M158.8,5.8C159,5.3,159,5.2,159,5c0-0.3-0.1-0.5-0.3-0.5c-0.4,0-0.6,0.5-0.7,1.2c-0.1,0.2-0.1,0.2-0.2,0.2
			c0,0-0.1,0-0.1-0.1c0,0,0.1-0.6,0.3-1c0.1-0.2,0.3-0.6,0.7-0.6c0.5,0,0.9,0.3,0.9,0.9c0.2-0.2,0.7-0.9,1.6-0.9
			c0.7,0,1.1,0.4,1.1,1.1c0,0.6-0.4,1.7-0.6,2.2c-0.1,0.2-0.2,0.5-0.2,0.7c0,0.2,0.1,0.3,0.2,0.3c0.5,0,0.8-0.6,1-1.2
			c0.1-0.1,0.1-0.2,0.2-0.2c0,0,0.1,0,0.1,0.1c0,0.1-0.4,1.5-1.3,1.5c-0.5,0-0.8-0.3-0.8-0.8c0-0.1,0-0.2,0.1-0.5
			c0.2-0.4,0.6-1.7,0.6-2.3c0-0.3-0.1-0.7-0.5-0.7c-0.9,0-1.5,0.9-1.6,1.2c0,0-0.1,0.3-0.1,0.5c0,0.2-0.1,0.4-0.2,0.7L159,7.8
			c-0.1,0.2-0.2,0.7-0.2,0.7c-0.1,0.2-0.2,0.3-0.4,0.3c-0.1,0-0.3-0.1-0.3-0.3c0-0.1,0.1-0.3,0.1-0.4L158.8,5.8z"/>
	</g>
	<g>
		<path class="st3" d="M165,11.2h-1.4v-0.4h1V1.7h-1V1.3h1.4V11.2z"/>
	</g>
	<g>
		<path class="st3" d="M157.8,37.2c0,0.2,0,0.2,0,0.2c0,0.2,0.3,0.2,0.6,0.2c0.2,0,0.3,0,0.3,0.1c0,0.2-0.1,0.2-0.2,0.2
			c-0.4,0-0.8,0-1.2,0c-0.3,0-1,0-1.2,0c0,0-0.2,0-0.2-0.1c0-0.2,0.1-0.2,0.3-0.2c0.8,0,0.8-0.1,0.9-0.5l1.4-5.7h0l-4,6.3
			c0,0.1-0.1,0.2-0.2,0.2c-0.1,0-0.1-0.1-0.1-0.2l-0.9-6.2h0l-1.4,5.4c0,0.1,0,0.2,0,0.2c0,0.2,0.1,0.4,0.7,0.4c0.1,0,0.2,0,0.2,0.1
			c0,0.2-0.1,0.2-0.2,0.2c-0.3,0-0.7,0-1,0c-0.3,0-0.7,0-1,0c-0.1,0-0.1,0-0.1-0.1c0-0.2,0.1-0.2,0.2-0.2c0.8,0,1-0.3,1.1-0.7
			l1.3-5.1c0-0.1,0-0.1,0-0.2c0-0.1-0.1-0.1-0.2-0.2c-0.1,0-0.3,0-0.4,0c-0.2,0-0.3,0-0.3-0.1c0-0.2,0.1-0.2,0.3-0.2h1.4
			c0.3,0,0.3,0,0.3,0.2l0.8,5.6l3.6-5.7c0.1-0.2,0.1-0.2,0.4-0.2h1.3c0.2,0,0.3,0,0.3,0.1c0,0.2-0.1,0.2-0.3,0.2
			c-0.7,0-0.8,0.1-0.9,0.5L157.8,37.2z"/>
	</g>
	<path class="st0" d="M123.5,13.3h63.8 M187.2,13.3v14.2"/>
	<polyline points="182.7,36.8 187.2,34.6 182.7,32.3 183.8,34.6 	"/>
	<line class="st0" x1="166" y1="34.6" x2="183.8" y2="34.6"/>
	<polyline points="128,32.3 123.5,34.6 128,36.8 126.9,34.6 	"/>
	<line class="st0" x1="144.7" y1="34.6" x2="126.9" y2="34.6"/>
	<g>
		<path class="st3" d="M83.6,7.1c-0.1,0.4-0.2,0.7-0.2,0.9c0,0.3,0.2,0.7,0.5,0.7c0.3,0,1-0.2,1.3-1.3c0-0.1,0-0.1,0.1-0.1
			c0,0,0.1,0,0.1,0.1c0,0.2-0.6,1.5-1.6,1.5c-0.6,0-1-0.4-1.1-0.8c0,0.1-0.4,0.8-1,0.8c-0.4,0-0.9-0.2-0.9-0.7
			c0-0.3,0.2-0.6,0.5-0.6c0.1,0,0.4,0.1,0.4,0.3c0,0.3-0.2,0.5-0.5,0.5c0.2,0.1,0.4,0.1,0.5,0.1c0.4,0,0.8-0.4,0.9-1
			c0.4-1.4,0.5-2.1,0.5-2.4c0-0.6-0.3-0.7-0.5-0.7c-0.3,0-1,0.2-1.3,1.3c0,0.1-0.1,0.1-0.1,0.1c0,0-0.1,0-0.1-0.1
			c0-0.2,0.6-1.5,1.6-1.5c0.3,0,0.8,0.1,1.1,0.8c0.1-0.2,0.5-0.8,1-0.8c0.3,0,0.9,0.1,0.9,0.7c0,0.4-0.3,0.6-0.5,0.6
			c-0.3,0-0.4-0.2-0.4-0.3c0-0.2,0.2-0.5,0.5-0.5C85.3,4.5,85,4.5,85,4.5c-0.7,0-0.9,0.9-1,1.2L83.6,7.1z"/>
	</g>
	<g>
		<path class="st3" d="M88.3,10.3c-1.6,0-1.6-1.9-1.6-2.4c0-0.5,0-2.4,1.6-2.4c0.6,0,1,0.3,1.2,0.6c0.3,0.5,0.4,1,0.4,1.8
			C89.9,8.5,89.9,10.3,88.3,10.3z M89.2,9.3c0.1-0.4,0.1-1,0.1-1.5c0-0.6,0-1.1-0.1-1.5C89,6,88.6,5.7,88.3,5.7
			c-0.3,0-0.7,0.1-0.9,0.7c-0.1,0.4-0.1,0.9-0.1,1.4c0,0.5,0,1.1,0.1,1.5c0.1,0.6,0.6,0.8,0.9,0.8C88.5,10.1,89,10,89.2,9.3z"/>
	</g>
	<g>
		<path class="st3" d="M92,11.2v-10h1.4v0.4h-1v9.2h1v0.4H92z"/>
	</g>
	<g>
		<path class="st3" d="M95.1,5.8c0.1-0.5,0.2-0.6,0.2-0.8c0-0.3-0.1-0.5-0.3-0.5c-0.4,0-0.6,0.5-0.7,1.2C94.1,5.9,94.1,6,94,6
			c0,0-0.1,0-0.1-0.1c0,0,0.1-0.6,0.3-1c0.1-0.2,0.3-0.6,0.7-0.6c0.5,0,0.9,0.3,0.9,0.9C96,5,96.5,4.3,97.4,4.3
			c0.7,0,1.1,0.4,1.1,1.1c0,0.6-0.4,1.7-0.6,2.2c-0.1,0.2-0.2,0.5-0.2,0.7c0,0.2,0.1,0.3,0.2,0.3c0.5,0,0.8-0.6,1-1.2
			c0-0.1,0-0.2,0.1-0.2c0,0,0.1,0,0.1,0.1c0,0.1-0.4,1.5-1.3,1.5c-0.5,0-0.8-0.3-0.8-0.8c0-0.1,0-0.2,0.1-0.5
			c0.2-0.4,0.6-1.7,0.6-2.3c0-0.3-0.1-0.7-0.5-0.7c-0.9,0-1.5,0.9-1.6,1.2c0,0-0.1,0.3-0.1,0.5c0,0.2-0.1,0.4-0.2,0.7l-0.2,0.9
			c-0.1,0.2-0.2,0.7-0.2,0.7c-0.1,0.2-0.2,0.3-0.4,0.3c-0.1,0-0.3-0.1-0.3-0.3c0-0.1,0.1-0.3,0.1-0.4L95.1,5.8z"/>
	</g>
	<g>
		<path class="st3" d="M101.2,11.2h-1.4v-0.4h1V1.7h-1V1.3h1.4V11.2z"/>
	</g>
	<path class="st0" d="M59.7,13.3h63.8 M123.5,13.3v14.2"/>
	<g>
		<path class="st3" d="M94.1,37.2c0,0.2,0,0.2,0,0.2c0,0.2,0.3,0.2,0.6,0.2c0.2,0,0.3,0,0.3,0.1c0,0.2-0.1,0.2-0.2,0.2
			c-0.4,0-0.8,0-1.2,0c-0.3,0-1,0-1.2,0c0,0-0.1,0-0.1-0.1c0-0.2,0.1-0.2,0.3-0.2c0.8,0,0.8-0.1,0.9-0.5l1.4-5.7h0l-4,6.3
			c0,0.1-0.1,0.2-0.2,0.2c-0.1,0-0.1-0.1-0.1-0.2l-0.9-6.2h0l-1.4,5.4c0,0.1,0,0.2,0,0.2c0,0.2,0.1,0.4,0.7,0.4c0.1,0,0.2,0,0.2,0.1
			c0,0.2-0.1,0.2-0.2,0.2c-0.3,0-0.7,0-1,0c-0.3,0-0.7,0-1,0c-0.1,0-0.1,0-0.1-0.1c0-0.2,0.1-0.2,0.2-0.2c0.8,0,1-0.3,1.1-0.7
			l1.3-5.1c0-0.1,0-0.1,0-0.2c0-0.1-0.1-0.1-0.2-0.2c-0.1,0-0.3,0-0.4,0c-0.2,0-0.3,0-0.3-0.1c0-0.2,0.1-0.2,0.3-0.2h1.4
			c0.3,0,0.3,0,0.3,0.2L91,37l3.6-5.7c0.1-0.2,0.1-0.2,0.4-0.2h1.3c0.2,0,0.3,0,0.3,0.1c0,0.2-0.1,0.2-0.3,0.2
			c-0.7,0-0.8,0.1-0.9,0.5L94.1,37.2z"/>
	</g>
	<polyline points="118.9,36.8 123.5,34.6 118.9,32.3 120.1,34.6 	"/>
	<line class="st0" x1="102.2" y1="34.6" x2="120.1" y2="34.6"/>
	<polyline points="64.2,32.3 59.7,34.6 64.2,36.8 63.1,34.6 	"/>
	<line class="st0" x1="80.9" y1="34.6" x2="63.1" y2="34.6"/>
	<g>
		<path class="st3" d="M79.7,143.4c-0.3,1.1-1.3,2-2.3,2c-0.6,0-1.1-0.4-1.1-0.9c0-0.5,0.3-0.6,0.6-0.6c0.1,0,0.4,0,0.4,0.3
			c0,0.2-0.1,0.3-0.2,0.4c-0.1,0.1-0.3,0.1-0.4,0.1c0.2,0.4,0.6,0.4,0.8,0.4c0.5,0,0.8-0.3,1.1-0.6c0.4-0.5,0.5-1,0.6-1.5
			c-0.3,0.3-0.6,0.4-1,0.4c-0.6,0-1.2-0.3-1.2-1.2c0-0.5,0.2-1,0.6-2.1c0.1-0.2,0.2-0.4,0.2-0.7c0-0.3-0.2-0.3-0.2-0.3
			c-0.3,0-0.7,0.3-1,1.2c0,0.2-0.1,0.2-0.2,0.2c0,0-0.1,0-0.1-0.1c0-0.1,0.4-1.5,1.3-1.5c0.5,0,0.8,0.4,0.8,0.8c0,0.2,0,0.3-0.2,0.7
			c-0.3,0.9-0.5,1.5-0.5,2c0,0.4,0.1,0.8,0.6,0.8c0.7,0,1.1-0.7,1.1-0.8l0.4-1.8c0.1-0.3,0.1-0.5,0.2-0.8c0-0.2,0.1-0.5,0.1-0.5
			c0.1-0.1,0.2-0.2,0.3-0.2c0.1,0,0.3,0.1,0.3,0.3c0,0.1,0,0.1,0,0.2L79.7,143.4z"/>
	</g>
	<g>
		<path class="st3" d="M83.1,144.2c0,0.2,0,0.3,0.7,0.3h0.3v0.3c-0.2,0-1,0-1.2,0c-0.3,0-1.1,0-1.2,0v-0.3h0.3
			c0.7,0,0.7-0.1,0.7-0.3v-3.6c-0.4,0.2-0.8,0.2-1,0.2v-0.3c0.3,0,0.9,0,1.4-0.4c0.2,0,0.2,0,0.2,0.2V144.2z"/>
	</g>
	<g>
		<path class="st3" d="M86.4,145.9v-10h1.4v0.4h-1v9.2h1v0.4H86.4z"/>
	</g>
	<g>
		<path class="st3" d="M89.4,140.5c0.1-0.5,0.2-0.6,0.2-0.8c0-0.3-0.1-0.5-0.3-0.5c-0.4,0-0.6,0.5-0.7,1.2c-0.1,0.2-0.1,0.2-0.2,0.2
			c0,0-0.1,0-0.1-0.1c0,0,0.1-0.6,0.3-1c0.1-0.2,0.3-0.6,0.7-0.6c0.5,0,0.9,0.3,0.9,0.9c0.2-0.2,0.7-0.9,1.6-0.9
			c0.7,0,1.1,0.4,1.1,1.1c0,0.6-0.4,1.7-0.6,2.2c-0.1,0.2-0.2,0.5-0.2,0.7c0,0.2,0.1,0.3,0.2,0.3c0.5,0,0.8-0.6,1-1.2
			c0-0.1,0-0.2,0.1-0.2c0,0,0.1,0,0.1,0.1c0,0.1-0.4,1.5-1.3,1.5c-0.5,0-0.8-0.3-0.8-0.8c0-0.1,0-0.2,0.1-0.5
			c0.2-0.4,0.6-1.7,0.6-2.3c0-0.3-0.1-0.7-0.5-0.7c-0.9,0-1.5,0.9-1.6,1.2c0,0-0.1,0.3-0.1,0.5c0,0.2-0.1,0.4-0.2,0.7l-0.2,0.9
			c-0.1,0.2-0.2,0.7-0.2,0.7c-0.1,0.2-0.2,0.3-0.4,0.3c-0.1,0-0.3-0.1-0.3-0.3c0,0,0.1-0.3,0.1-0.4L89.4,140.5z"/>
	</g>
	<g>
		<path class="st3" d="M95.5,145.9h-1.4v-0.4h1v-9.2h-1v-0.4h1.4V145.9z"/>
		<path class="st3" d="M100.4,140.1c-0.1,0-0.3,0-0.3-0.2c0-0.2,0.2-0.2,0.3-0.2h6c0.1,0,0.3,0,0.3,0.2c0,0.2-0.2,0.2-0.3,0.2H100.4
			z M100.4,142.1c-0.1,0-0.3,0-0.3-0.2s0.2-0.2,0.3-0.2h5.9c0.1,0,0.3,0,0.3,0.2s-0.2,0.2-0.3,0.2H100.4z"/>
	</g>
	<g>
		<path class="st3" d="M65.9,153.9c0.4-0.5,0.8-0.8,1.5-0.8c0.7,0,1.1,0.4,1.1,1.1c0,0.6-0.4,1.8-0.6,2.2c-0.1,0.2-0.2,0.5-0.2,0.7
			c0,0.2,0.1,0.3,0.2,0.3c0.5,0,0.9-0.7,1-1.2c0-0.1,0-0.2,0.1-0.2c0,0,0.1,0,0.1,0.1c0,0.1-0.4,1.5-1.3,1.5c-0.5,0-0.8-0.3-0.8-0.8
			c0-0.2,0-0.3,0.1-0.5c0.2-0.6,0.6-1.7,0.6-2.2c0-0.4-0.1-0.7-0.5-0.7c-0.4,0-0.7,0.2-1,0.3c-0.3,0.3-0.6,0.8-0.7,0.9
			c0,0.1-0.1,0.4-0.1,0.4c0,0.2-0.1,0.4-0.2,0.7l-0.2,0.9l-0.2,0.8c0,0.1-0.2,0.3-0.4,0.3c-0.1,0-0.3,0-0.3-0.3c0-0.1,0-0.1,0-0.2
			l1.4-5.7l0-0.2c0-0.1,0-0.2-0.5-0.2c-0.1,0-0.2,0-0.2-0.1c0-0.2,0.1-0.2,0.2-0.2c0.3,0,1-0.1,1.2-0.1c0.1,0,0.1,0.1,0.1,0.1
			L65.9,153.9z"/>
	</g>
	<g>
		<path class="st3" d="M70.7,160v-10h1.4v0.4h-1v9.2h1v0.4H70.7z"/>
	</g>
	<g>
		<path class="st3" d="M73.8,154.7c0.1-0.5,0.2-0.6,0.2-0.8c0-0.3-0.1-0.5-0.3-0.5c-0.4,0-0.6,0.5-0.7,1.2c-0.1,0.2-0.1,0.2-0.2,0.2
			c0,0-0.1,0-0.1-0.1c0,0,0.1-0.6,0.3-1c0.1-0.2,0.3-0.6,0.7-0.6c0.5,0,0.9,0.3,0.9,0.9c0.2-0.2,0.7-0.9,1.6-0.9
			c0.7,0,1.1,0.4,1.1,1.1c0,0.6-0.4,1.7-0.6,2.2c-0.1,0.2-0.2,0.5-0.2,0.7c0,0.2,0.1,0.3,0.2,0.3c0.5,0,0.8-0.6,1-1.2
			c0-0.1,0-0.2,0.1-0.2c0,0,0.1,0,0.1,0.1c0,0.1-0.4,1.5-1.3,1.5c-0.5,0-0.8-0.3-0.8-0.8c0-0.1,0-0.2,0.1-0.5
			c0.2-0.4,0.6-1.7,0.6-2.3c0-0.3-0.1-0.7-0.5-0.7c-0.9,0-1.5,0.9-1.6,1.2c0,0-0.1,0.3-0.1,0.5c0,0.2-0.1,0.4-0.2,0.7l-0.2,0.9
			c-0.1,0.2-0.2,0.7-0.2,0.7c-0.1,0.2-0.2,0.3-0.4,0.3c-0.1,0-0.3-0.1-0.3-0.3c0,0,0.1-0.3,0.1-0.4L73.8,154.7z"/>
	</g>
	<g>
		<path class="st3" d="M79.9,160h-1.4v-0.4h1v-9.2h-1v-0.4h1.4V160z"/>
	</g>
	<path d="M85.6,156c0,0,0.1-0.1,0.1-0.1c0,0,0.4,0.4,0.5,0.5c0.3,0.3,0.6,0.6,0.9,0.9c0,0,0.1,0,0.1,0c0.1,0,0.1-0.1,0.1-0.1
		c0,0-0.3-0.6-0.6-1.1l-0.4-0.7l1.7-0.8c0.1-0.1,0.1-0.1,0.1-0.1c0,0,0-0.1-0.1-0.1c0,0-0.5,0.1-2,0.4l-0.2-1.9c0-0.2,0-0.2-0.1-0.2
		c-0.1,0-0.1,0-0.1,0.2l-0.2,1.9l-1.8-0.4c0,0-0.1,0-0.1,0c-0.1,0-0.1,0-0.1,0.1c0,0.1,0,0.1,0.2,0.1l1.7,0.8l-0.9,1.7
		c-0.1,0.1-0.1,0.1-0.1,0.2c0,0,0,0.1,0.1,0.1c0,0,0,0,0.1-0.1L85.6,156z M93.7,154.5c0.1-0.3,0.3-1.2,1-1.2c0,0,0.3,0,0.5,0.1
		c-0.3,0-0.5,0.3-0.5,0.5c0,0.2,0.1,0.3,0.4,0.3c0.2,0,0.5-0.2,0.5-0.6c0-0.5-0.6-0.7-0.9-0.7c-0.6,0-0.9,0.5-1,0.8
		c-0.2-0.7-0.8-0.8-1.1-0.8c-1,0-1.6,1.3-1.6,1.5c0,0.1,0.1,0.1,0.1,0.1c0.1,0,0.1,0,0.1-0.1c0.3-1.1,1-1.3,1.3-1.3
		c0.2,0,0.5,0.1,0.5,0.7c0,0.3-0.2,1-0.5,2.4c-0.2,0.6-0.5,1-0.9,1c-0.1,0-0.3,0-0.5-0.1c0.2,0,0.5-0.3,0.5-0.5
		c0-0.3-0.2-0.3-0.4-0.3c-0.3,0-0.5,0.3-0.5,0.6c0,0.5,0.5,0.7,0.9,0.7c0.7,0,1-0.7,1-0.8c0.1,0.4,0.5,0.8,1.1,0.8
		c1,0,1.6-1.3,1.6-1.5c0-0.1-0.1-0.1-0.1-0.1c-0.1,0-0.1,0-0.1,0.1c-0.3,1.1-1,1.3-1.3,1.3c-0.4,0-0.5-0.3-0.5-0.7
		c0-0.2,0.1-0.4,0.2-0.9L93.7,154.5z"/>
	<g>
		<path class="st3" d="M98.4,158.4c0,0.2,0,0.3,0.7,0.3h0.3v0.3c-0.2,0-1,0-1.2,0c-0.3,0-1.1,0-1.2,0v-0.3h0.3
			c0.7,0,0.7-0.1,0.7-0.3v-3.6c-0.4,0.2-0.8,0.2-1,0.2v-0.3c0.3,0,0.9,0,1.4-0.4c0.2,0,0.2,0,0.2,0.2V158.4z"/>
	</g>
	<g>
		<path class="st3" d="M101.8,160v-10h1.4v0.4h-1v9.2h1v0.4H101.8z"/>
	</g>
	<g>
		<path class="st3" d="M104.8,154.7c0.1-0.5,0.2-0.6,0.2-0.8c0-0.3-0.1-0.5-0.3-0.5c-0.4,0-0.6,0.5-0.7,1.2
			c-0.1,0.2-0.1,0.2-0.2,0.2c0,0-0.1,0-0.1-0.1c0,0,0.1-0.6,0.3-1c0.1-0.2,0.3-0.6,0.7-0.6c0.5,0,0.9,0.3,0.9,0.9
			c0.2-0.2,0.7-0.9,1.6-0.9c0.7,0,1.1,0.4,1.1,1.1c0,0.6-0.4,1.7-0.6,2.2c-0.1,0.2-0.2,0.5-0.2,0.7c0,0.2,0.1,0.3,0.2,0.3
			c0.5,0,0.8-0.6,1-1.2c0-0.1,0-0.2,0.1-0.2c0,0,0.1,0,0.1,0.1c0,0.1-0.4,1.5-1.3,1.5c-0.5,0-0.8-0.3-0.8-0.8c0-0.1,0-0.2,0.1-0.5
			c0.2-0.4,0.6-1.7,0.6-2.3c0-0.3-0.1-0.7-0.5-0.7c-0.9,0-1.5,0.9-1.6,1.2c0,0-0.1,0.3-0.1,0.5c0,0.2-0.1,0.4-0.2,0.7l-0.2,0.9
			c-0.1,0.2-0.2,0.7-0.2,0.7c-0.1,0.2-0.2,0.3-0.4,0.3c-0.1,0-0.3-0.1-0.3-0.3c0,0,0.1-0.3,0.1-0.4L104.8,154.7z"/>
	</g>
	<g>
		<path class="st3" d="M111,160h-1.4v-0.4h1v-9.2h-1v-0.4h1.4V160z"/>
	</g>
	<line class="st0" x1="59.7" y1="62.9" x2="88" y2="62.9"/>
	<g>
		<path class="st3" d="M24.8,54.7c0.4-0.5,0.8-0.8,1.5-0.8c0.7,0,1.1,0.4,1.1,1.1c0,0.6-0.4,1.8-0.6,2.2c-0.1,0.2-0.2,0.5-0.2,0.7
			c0,0.2,0.1,0.3,0.2,0.3c0.5,0,0.9-0.7,1-1.2c0-0.1,0-0.2,0.1-0.2c0,0,0.1,0,0.1,0.1c0,0.1-0.4,1.5-1.3,1.5c-0.5,0-0.8-0.3-0.8-0.8
			c0-0.2,0-0.3,0.1-0.5c0.2-0.6,0.6-1.7,0.6-2.2c0-0.4-0.1-0.7-0.5-0.7c-0.4,0-0.7,0.2-1,0.3c-0.3,0.3-0.6,0.8-0.7,0.9
			c0,0.1-0.1,0.4-0.1,0.4c0,0.2-0.1,0.4-0.2,0.7l-0.2,0.9l-0.2,0.8c0,0.1-0.2,0.3-0.4,0.3c-0.1,0-0.3,0-0.3-0.3c0-0.1,0-0.1,0-0.2
			l1.4-5.7l0-0.2c0-0.1,0-0.2-0.5-0.2c-0.1,0-0.2,0-0.2-0.1c0-0.2,0.1-0.2,0.2-0.2c0.3,0,1-0.1,1.2-0.1c0.1,0,0.1,0.1,0.1,0.1
			L24.8,54.7z"/>
	</g>
	<g>
		<path class="st3" d="M29.6,60.8v-10H31v0.4h-1v9.2h1v0.4H29.6z"/>
	</g>
	<g>
		<path class="st3" d="M32.7,55.4c0.1-0.5,0.2-0.6,0.2-0.8c0-0.3-0.1-0.5-0.3-0.5c-0.4,0-0.6,0.5-0.7,1.2c-0.1,0.2-0.1,0.2-0.2,0.2
			c0,0-0.1,0-0.1-0.1c0,0,0.1-0.6,0.3-1c0.1-0.2,0.3-0.6,0.7-0.6c0.5,0,0.9,0.3,0.9,0.9c0.2-0.2,0.7-0.9,1.6-0.9
			c0.7,0,1.1,0.4,1.1,1.1c0,0.6-0.4,1.7-0.6,2.2c-0.1,0.2-0.2,0.5-0.2,0.7c0,0.2,0.1,0.3,0.2,0.3c0.5,0,0.8-0.6,1-1.2
			c0-0.1,0-0.2,0.1-0.2c0,0,0.1,0,0.1,0.1c0,0.1-0.4,1.5-1.3,1.5c-0.5,0-0.8-0.3-0.8-0.8c0-0.1,0-0.2,0.1-0.5
			c0.2-0.4,0.6-1.7,0.6-2.3c0-0.3-0.1-0.7-0.5-0.7c-0.9,0-1.5,0.9-1.6,1.2c0,0-0.1,0.3-0.1,0.5c0,0.2-0.1,0.4-0.2,0.7l-0.2,0.9
			c-0.1,0.2-0.2,0.7-0.2,0.7c-0.1,0.2-0.2,0.3-0.4,0.3c-0.1,0-0.3-0.1-0.3-0.3c0-0.1,0.1-0.3,0.1-0.4L32.7,55.4z"/>
	</g>
	<g>
		<path class="st3" d="M38.8,60.8h-1.4v-0.4h1v-9.2h-1v-0.4h1.4V60.8z"/>
	</g>
	<g>
		<path class="st3" d="M72.9,72.7c0,0.2,0,0.2,0,0.2c0,0.1,0,0.1,0.1,0.1c0.1,0,0.1,0,0.2,0h0.9c1.7,0,2.2-1.1,2.5-2.1
			c0.1-0.2,0.1-0.2,0.2-0.2c0.1,0,0.1,0.1,0.1,0.1c0,0,0,0,0,0.1l-0.8,2.2c-0.1,0.2-0.1,0.2-0.3,0.2h-4.6c-0.2,0-0.3,0-0.3-0.1
			c0-0.2,0.1-0.2,0.3-0.2c0.8,0,0.8-0.1,0.9-0.5l1.3-5.4c0-0.1,0-0.1,0-0.2c0-0.1-0.1-0.1-0.3-0.2c-0.2,0-0.4,0-0.4,0
			c-0.2,0-0.3,0-0.3-0.1c0-0.2,0.1-0.2,0.2-0.2c0.3,0,1,0,1.3,0c0.3,0,1.1,0,1.5,0c0,0,0.2,0,0.2,0.1c0,0.2-0.1,0.2-0.4,0.2
			c-0.9,0-1,0.1-1.1,0.5L72.9,72.7z"/>
	</g>
	<polyline points="83.5,72.3 88,70 83.5,67.7 84.6,70 	"/>
	<line class="st0" x1="80.9" y1="70" x2="84.6" y2="70"/>
	<polyline points="64.2,67.7 59.7,70 64.2,72.3 63.1,70 	"/>
	<path class="st0" d="M66.8,70h-3.7 M88,62.9h56.7 M144.7,66.4v-7.1"/>
	<g>
		<path class="st3" d="M116.4,59.2c-2.4,0-2.4-2.3-2.4-3.3c0-1,0-3.3,2.4-3.3c2.4,0,2.4,2.4,2.4,3.3
			C118.8,56.9,118.7,59.2,116.4,59.2z M117.4,57.7c0.1-0.5,0.1-1.4,0.1-2c0-0.8,0-1.9-0.2-2.2c-0.2-0.4-0.6-0.6-1-0.6
			c-0.2,0-0.9,0.1-1.1,1c-0.1,0.5-0.1,1.2-0.1,1.9c0,0.5,0,1.6,0.1,2.1c0.1,0.7,0.7,0.9,1,0.9C116.7,58.8,117.3,58.7,117.4,57.7z"/>
	</g>
	<path class="st0" d="M88,66.4v-7.1 M59.7,66.4v-7.1"/>
	<g>
		<path class="st3" d="M110.2,72.3c0,0.2,0,0.2,0,0.2c0,0.2,0.3,0.2,0.6,0.2c0.2,0,0.3,0,0.3,0.1c0,0.2-0.1,0.2-0.2,0.2
			c-0.4,0-0.8,0-1.2,0c-0.3,0-1,0-1.2,0c0,0-0.1,0-0.1-0.1c0-0.2,0.1-0.2,0.3-0.2c0.8,0,0.8-0.1,0.9-0.5l1.4-5.7h0l-4,6.3
			c0,0.1-0.1,0.2-0.2,0.2c-0.1,0-0.1-0.1-0.1-0.2l-0.9-6.2h0l-1.4,5.4c0,0.1,0,0.2,0,0.2c0,0.2,0.1,0.4,0.7,0.4c0.1,0,0.2,0,0.2,0.1
			c0,0.2-0.1,0.2-0.2,0.2c-0.3,0-0.7,0-1,0c-0.3,0-0.7,0-1,0c-0.1,0-0.1,0-0.1-0.1c0-0.2,0.1-0.2,0.2-0.2c0.8,0,1-0.3,1.1-0.7
			l1.3-5.1c0-0.1,0-0.1,0-0.2c0-0.1-0.1-0.1-0.2-0.2c-0.1,0-0.3,0-0.4,0c-0.2,0-0.3,0-0.3-0.1c0-0.2,0.1-0.2,0.3-0.2h1.4
			c0.3,0,0.3,0,0.3,0.2l0.8,5.6l3.6-5.7c0.1-0.2,0.1-0.2,0.4-0.2h1.3c0.2,0,0.3,0,0.3,0.1c0,0.2-0.1,0.2-0.3,0.2
			c-0.7,0-0.8,0.1-0.9,0.5L110.2,72.3z"/>
	</g>
	<g>
		<path class="st3" d="M116.5,70.7c-0.2,0-0.3,0-0.3-0.2c0-0.2,0.2-0.2,0.3-0.2h5.4c0.2,0,0.3,0,0.3,0.2c0,0.2-0.2,0.2-0.3,0.2
			H116.5z"/>
	</g>
	<g>
		<path class="st3" d="M128.2,72.2c0,0.4,0,0.5,0.9,0.5h0.3V73c-0.3,0-1.2,0-1.6,0c-0.4,0-1.3,0-1.6,0v-0.3h0.3
			c0.9,0,0.9-0.1,0.9-0.5V67c-0.5,0.3-1.1,0.3-1.3,0.3V67c0.3,0,1.2,0,1.8-0.6c0.2,0,0.2,0,0.2,0.3V72.2z"/>
	</g>
	<polyline points="140.2,72.3 144.7,70 140.2,67.7 141.3,70 	"/>
	<line class="st0" x1="134.1" y1="70" x2="141.3" y2="70"/>
	<polyline points="92.6,67.7 88,70 92.6,72.3 91.4,70 	"/>
	<line class="st0" x1="98.7" y1="70" x2="91.4" y2="70"/>
	<line class="st13" x1="123.5" y1="77.1" x2="123.5" y2="94.8"/>
	<polygon class="st14" points="59.7,55.8 59.7,62.9 88,62.9 88,48.7 59.7,48.7 	"/>
	<line class="st0" x1="251" y1="13.3" x2="261.6" y2="13.3"/>
	<g>
		<path class="st3" d="M260,6.4c-0.3,0-0.5-0.2-0.5-0.5c0-0.3,0.2-0.5,0.5-0.5s0.5,0.2,0.5,0.5C260.5,6.2,260.3,6.4,260,6.4z"/>
		<path class="st3" d="M264.4,6.4c-0.3,0-0.5-0.2-0.5-0.5c0-0.3,0.2-0.5,0.5-0.5s0.5,0.2,0.5,0.5C264.9,6.2,264.7,6.4,264.4,6.4z"/>
		<path class="st3" d="M268.9,6.4c-0.3,0-0.5-0.2-0.5-0.5c0-0.3,0.2-0.5,0.5-0.5s0.5,0.2,0.5,0.5C269.4,6.2,269.1,6.4,268.9,6.4z"/>
	</g>
	<line class="st15" x1="261.6" y1="13.3" x2="272.3" y2="13.3"/>
	<polygon class="st16" points="80.9,105.4 80.9,112.5 123.5,112.5 123.5,98.3 80.9,98.3 	"/>
	<polygon class="st16" points="144.7,147.9 144.7,155 187.2,155 187.2,140.9 144.7,140.9 	"/>
	<polygon class="st16" points="208.5,190.5 208.5,197.6 251,197.6 251,183.4 208.5,183.4 	"/>
	<polygon class="st17" points="59.7,20.4 59.7,27.5 123.5,27.5 123.5,13.3 59.7,13.3 	"/>
	<polygon class="st17" points="123.5,20.4 123.5,27.5 187.2,27.5 187.2,13.3 123.5,13.3 	"/>
	<polygon class="st17" points="187.2,20.4 187.2,27.5 251,27.5 251,13.3 187.2,13.3 	"/>
	<polygon class="st18" points="252.8,20.4 252.8,27.5 270.5,27.5 270.5,13.3 252.8,13.3 	"/>
	<path class="st19" d="M252.8,13.3h17.7 M252.8,27.5h17.7 M252.8,27.5V13.3"/>
</g>
</svg>
