<?xml version="1.0" encoding="utf-8"?>
<!-- Generator: Adobe Illustrator 22.1.0, SVG Export Plug-In . SVG Version: 6.00 Build 0)  -->
<svg version="1.1" id="Layer_1" xmlns="http://www.w3.org/2000/svg" xmlns:xlink="http://www.w3.org/1999/xlink" x="0px" y="0px"
	 viewBox="0 0 332.4 109.2" style="enable-background:new 0 0 332.4 109.2;" xml:space="preserve">
<style type="text/css">
	.st0{fill:none;stroke:#000000;stroke-width:0.8504;stroke-miterlimit:10;}
	.st1{fill:none;stroke:#000000;stroke-width:0.8504;stroke-linecap:round;stroke-miterlimit:10;stroke-dasharray:0,3.6941;}
</style>
<g>
	<polyline points="60.1,40.1 64.7,37.8 60.1,35.6 61.3,37.8 	"/>
	<line class="st0" x1="22.1" y1="37.8" x2="61.3" y2="37.8"/>
	<g>
		<path d="M78.3,40.4c0,0.1,0,0.2,0,0.2c0,0.2,0.1,0.2,0.4,0.2c0.3,0,0.4,0,0.6,0c0.3,0,0.3,0,0.3,0.1c0,0.2-0.1,0.2-0.2,0.2
			c-0.3,0-0.6,0-0.9,0c-0.3,0-0.5,0-0.8,0c-0.3,0-0.6,0-0.8,0c-0.3,0-0.5,0-0.8,0c-0.1,0-0.2,0-0.2-0.1c0-0.2,0.1-0.2,0.4-0.2
			c1.1,0,1.1-0.1,1.2-0.5l1.3-5.3c0,0,0-0.1,0-0.2c0-0.1,0-0.1-0.3-0.1h-0.4c-1.5,0-1.7,0.2-2.3,1.7c-0.1,0.2-0.1,0.2-0.2,0.2
			c-0.1,0-0.1,0-0.1-0.1c0,0,0-0.2,0.1-0.2l0.6-1.8c0.1-0.2,0.1-0.2,0.3-0.2h5.5c0.2,0,0.3,0,0.3,0.1c0,0,0,0.1,0,0.2l-0.3,1.7
			c0,0.1,0,0.2-0.1,0.2c-0.1,0-0.1-0.1-0.1-0.1c0,0,0-0.1,0-0.2c0-0.3,0.1-0.6,0.1-0.8c0-0.8-0.4-0.8-1.5-0.8c-0.2,0-0.5,0-0.6,0
			c-0.1,0-0.2,0.1-0.2,0.4L78.3,40.4z"/>
	</g>
	<path class="st0" d="M64.7,37.8V23.7H93V52H64.7V37.8z M50.8,37.8v56.7"/>
	<polyline points="95.7,96.8 100.3,94.5 95.7,92.3 96.9,94.5 	"/>
	<line class="st0" x1="50.7" y1="94.5" x2="96.9" y2="94.5"/>
	<polyline points="105.2,54.6 107.5,59.1 109.8,54.6 107.5,55.7 	"/>
	<path class="st0" d="M107.5,37.8l0,17.9 M114.8,66L114.8,66c0-4-3.3-7.3-7.3-7.3s-7.3,3.3-7.3,7.3s3.3,7.3,7.3,7.3
		S114.8,70,114.8,66L114.8,66z M104,62.6l7.1,7.1 M104,69.7l7.1-7.1"/>
	<polyline points="95.9,68.5 100.4,66.2 95.9,63.9 97,66.2 	"/>
	<line class="st0" x1="86.3" y1="66.2" x2="97" y2="66.2"/>
	<g>
		<path d="M79.7,68.5c0.2,0,0.9,0,0.9-0.1c0.1-0.2,0.2-0.6,0.2-0.9h0.2l-0.3,1.7h-3.7c0-0.2,0-0.3,0.1-0.4l1.9-2.1
			c0.5-0.6,1-1.4,1-2.2c0-0.8-0.4-1.6-1.3-1.6c-0.6,0-1.1,0.4-1.3,1c0,0,0,0,0.1,0c0.3,0,0.5,0.3,0.5,0.5c0,0.4-0.3,0.5-0.5,0.5
			c0,0-0.5,0-0.5-0.6c0-0.9,0.7-1.8,1.9-1.8c1.2,0,2.1,0.8,2.1,1.9c0,1-0.6,1.5-2.2,2.9l-1.1,1H79.7z"/>
	</g>
	<polyline points="105.2,82.9 107.5,87.4 109.8,82.9 107.5,84 	"/>
	<path class="st0" d="M107.5,73.3l0,10.8 M114.6,94.4L114.6,94.4c0-4-3.3-7.3-7.3-7.3c-4,0-7.3,3.3-7.3,7.3c0,4,3.3,7.3,7.3,7.3
		C111.3,101.6,114.6,98.4,114.6,94.4L114.6,94.4z M103.8,94.5h7.1 M107.3,98.1V91"/>
	<polyline points="152.4,96.8 156.9,94.5 152.4,92.3 153.5,94.5 	"/>
	<line class="st0" x1="114.4" y1="94.5" x2="153.5" y2="94.5"/>
	<polyline points="116.8,40.1 121.3,37.8 116.8,35.6 117.9,37.8 	"/>
	<line class="st0" x1="93" y1="37.8" x2="117.9" y2="37.8"/>
	<g>
		<path d="M135,40.4c0,0.1,0,0.2,0,0.2c0,0.2,0.1,0.2,0.4,0.2c0.3,0,0.4,0,0.6,0c0.3,0,0.3,0,0.3,0.1c0,0.2-0.1,0.2-0.2,0.2
			c-0.3,0-0.6,0-0.9,0c-0.3,0-0.5,0-0.8,0c-0.3,0-0.6,0-0.8,0c-0.3,0-0.5,0-0.8,0c-0.1,0-0.2,0-0.2-0.1c0-0.2,0.1-0.2,0.4-0.2
			c1.1,0,1.1-0.1,1.2-0.5l1.3-5.3c0,0,0-0.1,0-0.2c0-0.1,0-0.1-0.3-0.1h-0.4c-1.5,0-1.7,0.2-2.3,1.7c-0.1,0.2-0.1,0.2-0.2,0.2
			c-0.1,0-0.1,0-0.1-0.1c0,0,0-0.2,0.1-0.2l0.6-1.8c0.1-0.2,0.1-0.2,0.3-0.2h5.5c0.2,0,0.3,0,0.3,0.1c0,0,0,0.1,0,0.2l-0.3,1.7
			c0,0.1,0,0.2-0.1,0.2c-0.1,0-0.1-0.1-0.1-0.1c0,0,0-0.1,0-0.2c0-0.3,0.1-0.6,0.1-0.8c0-0.8-0.4-0.8-1.5-0.8c-0.2,0-0.5,0-0.6,0
			c-0.1,0-0.2,0.1-0.2,0.4L135,40.4z"/>
	</g>
	<polygon class="st0" points="121.3,37.8 121.3,23.7 149.7,23.7 149.7,52 121.3,52 	"/>
	<polyline points="173.8,40.1 178.4,37.8 173.8,35.6 175,37.8 	"/>
	<line class="st0" x1="150" y1="37.8" x2="175" y2="37.8"/>
	<g>
		<path d="M192.1,40.4c0,0.1,0,0.2,0,0.2c0,0.2,0.1,0.2,0.4,0.2c0.3,0,0.4,0,0.6,0c0.3,0,0.3,0,0.3,0.1c0,0.2-0.1,0.2-0.2,0.2
			c-0.3,0-0.6,0-0.9,0c-0.3,0-0.5,0-0.8,0c-0.3,0-0.6,0-0.8,0c-0.3,0-0.5,0-0.8,0c-0.1,0-0.2,0-0.2-0.1c0-0.2,0.1-0.2,0.4-0.2
			c1.1,0,1.1-0.1,1.2-0.5l1.3-5.3c0,0,0-0.1,0-0.2c0-0.1,0-0.1-0.3-0.1h-0.4c-1.5,0-1.7,0.2-2.3,1.7c-0.1,0.2-0.1,0.2-0.2,0.2
			c-0.1,0-0.1,0-0.1-0.1c0,0,0-0.2,0.1-0.2l0.6-1.8c0.1-0.2,0.1-0.2,0.3-0.2h5.5c0.2,0,0.3,0,0.3,0.1c0,0,0,0.1,0,0.2l-0.3,1.7
			c0,0.1,0,0.2-0.1,0.2c-0.1,0-0.1-0.1-0.1-0.1c0,0,0-0.1,0-0.2c0-0.3,0.1-0.6,0.1-0.8c0-0.8-0.4-0.8-1.5-0.8c-0.2,0-0.5,0-0.6,0
			c-0.1,0-0.2,0.1-0.2,0.4L192.1,40.4z"/>
	</g>
	<polygon class="st0" points="178.4,37.8 178.4,23.7 206.7,23.7 206.7,52 178.4,52 	"/>
	<polyline points="230.5,40.1 235.1,37.8 230.5,35.6 231.7,37.8 	"/>
	<line class="st0" x1="206.7" y1="37.8" x2="231.7" y2="37.8"/>
	<g>
		<path d="M248.7,40.4c0,0.1,0,0.2,0,0.2c0,0.2,0.1,0.2,0.4,0.2c0.3,0,0.4,0,0.6,0c0.3,0,0.3,0,0.3,0.1c0,0.2-0.1,0.2-0.2,0.2
			c-0.3,0-0.6,0-0.9,0c-0.3,0-0.5,0-0.8,0c-0.3,0-0.6,0-0.8,0c-0.3,0-0.5,0-0.8,0c-0.1,0-0.2,0-0.2-0.1c0-0.2,0.1-0.2,0.4-0.2
			c1.1,0,1.1-0.1,1.2-0.5l1.3-5.3c0,0,0-0.1,0-0.2c0-0.1,0-0.1-0.3-0.1h-0.4c-1.5,0-1.7,0.2-2.3,1.7c-0.1,0.2-0.1,0.2-0.2,0.2
			c-0.1,0-0.1,0-0.1-0.1c0,0,0-0.2,0.1-0.2l0.6-1.8c0.1-0.2,0.1-0.2,0.3-0.2h5.5c0.2,0,0.3,0,0.3,0.1c0,0,0,0.1,0,0.2l-0.3,1.7
			c0,0.1,0,0.2-0.1,0.2c-0.1,0-0.1-0.1-0.1-0.1c0,0,0-0.1,0-0.2c0-0.3,0.1-0.6,0.1-0.8c0-0.8-0.4-0.8-1.5-0.8c-0.2,0-0.5,0-0.6,0
			c-0.1,0-0.2,0.1-0.2,0.4L248.7,40.4z"/>
	</g>
	<polygon class="st0" points="235.1,37.8 235.1,23.7 263.4,23.7 263.4,52 235.1,52 	"/>
	<polyline points="162.1,54.6 164.4,59.1 166.6,54.6 164.4,55.7 	"/>
	<path class="st0" d="M164.4,37.9v17.9 M171.6,66L171.6,66c0-4-3.3-7.3-7.3-7.3c-4,0-7.3,3.3-7.3,7.3s3.3,7.3,7.3,7.3
		C168.4,73.3,171.6,70.1,171.6,66L171.6,66z M160.8,62.7l7.1,7.1 M160.8,69.8l7.1-7.1"/>
	<polyline points="152.8,68.5 157.3,66.2 152.8,63.9 153.9,66.2 	"/>
	<line class="st0" x1="143.1" y1="66.2" x2="153.9" y2="66.2"/>
	<g>
		<path d="M138.1,67.6c0,1-0.9,1.9-2.1,1.9c-1.1,0-2-0.7-2-1.6c0-0.4,0.3-0.6,0.6-0.6c0.3,0,0.6,0.2,0.6,0.6c0,0.4-0.3,0.6-0.7,0.5
			c0.3,0.6,1.1,0.8,1.5,0.8c0.4,0,1.1-0.3,1.1-1.6c0-1-0.4-1.7-1.2-1.7h-0.4c-0.2,0-0.2,0-0.2-0.1c0-0.1,0.1-0.1,0.1-0.1
			c0.1,0,0.3,0,0.4,0c0.2,0,0.6,0,0.9-0.5c0.3-0.4,0.3-1,0.3-1.1c0-0.9-0.5-1.1-1-1.1c-0.4,0-1,0.1-1.3,0.6c0.1,0,0.6,0,0.6,0.5
			c0,0.3-0.2,0.5-0.5,0.5c-0.3,0-0.5-0.2-0.5-0.5c0-0.8,0.8-1.4,1.8-1.4c1,0,1.8,0.6,1.8,1.4c0,0.8-0.6,1.5-1.4,1.8
			C137.4,66,138.1,66.8,138.1,67.6z"/>
	</g>
	<polyline points="162.1,82.9 164.4,87.5 166.6,82.9 164.4,84.1 	"/>
	<path class="st0" d="M164.4,73.3v10.8 M171.5,94.4L171.5,94.4c0-4-3.3-7.3-7.3-7.3s-7.3,3.3-7.3,7.3c0,4,3.3,7.3,7.3,7.3
		S171.5,98.4,171.5,94.4L171.5,94.4z M160.7,94.5h7.1 M164.2,98.1V91"/>
	<polyline points="209.3,96.8 213.8,94.5 209.3,92.3 210.4,94.5 	"/>
	<line class="st0" x1="171.3" y1="94.5" x2="210.4" y2="94.5"/>
	<polyline points="218.8,54.9 221.1,59.4 223.3,54.9 221.1,56 	"/>
	<path class="st0" d="M221.1,38.2V56 M228.3,66.4L228.3,66.4c0-4-3.3-7.3-7.3-7.3s-7.3,3.3-7.3,7.3c0,4,3.3,7.3,7.3,7.3
		S228.3,70.4,228.3,66.4L228.3,66.4z M217.5,63l7.1,7.1 M217.5,70.1l7.1-7.1"/>
	<polyline points="209.4,68.8 214,66.5 209.4,64.3 210.6,66.5 	"/>
	<line class="st0" x1="199.8" y1="66.5" x2="210.6" y2="66.5"/>
	<g>
		<path d="M193.3,68.9c0.2,0,0.9,0,0.9-0.1c0.1-0.2,0.2-0.6,0.2-0.9h0.2l-0.3,1.7h-3.7c0-0.2,0-0.3,0.1-0.4l1.9-2.1
			c0.5-0.6,1-1.4,1-2.2c0-0.8-0.4-1.6-1.3-1.6c-0.6,0-1.1,0.4-1.3,1c0,0,0,0,0.1,0c0.3,0,0.5,0.3,0.5,0.5c0,0.4-0.3,0.5-0.5,0.5
			c0,0-0.5,0-0.5-0.6c0-0.9,0.7-1.8,1.9-1.8c1.2,0,2.1,0.8,2.1,1.9c0,1-0.6,1.5-2.2,2.9l-1.1,1H193.3z"/>
	</g>
	<polyline points="218.8,83.3 221.1,87.8 223.3,83.3 221.1,84.4 	"/>
	<path class="st0" d="M221.1,73.6v10.8 M228.2,94.7L228.2,94.7c0-4-3.3-7.3-7.3-7.3c-4,0-7.3,3.3-7.3,7.3s3.3,7.3,7.3,7.3
		C224.9,102,228.2,98.7,228.2,94.7L228.2,94.7z M217.4,94.9h7.1 M220.9,98.4v-7.1"/>
	<polyline points="266,97.1 270.5,94.9 266,92.6 267.1,94.9 	"/>
	<path class="st0" d="M228,94.9h39.1 M263.4,37.8h14.2 M284.8,94.4L284.8,94.4c0-4-3.3-7.3-7.3-7.3s-7.3,3.3-7.3,7.3
		c0,4,3.3,7.3,7.3,7.3S284.8,98.4,284.8,94.4L284.8,94.4z M274,94.5h7.1 M277.6,98.1V91"/>
	<polyline points="275.3,82.9 277.6,87.4 279.9,82.9 277.6,84 	"/>
	<line class="st0" x1="277.6" y1="37.8" x2="277.6" y2="84"/>
	<polyline points="308.5,96.8 313,94.5 308.5,92.3 309.6,94.5 	"/>
	<line class="st0" x1="284.7" y1="94.5" x2="309.6" y2="94.5"/>
	<g>
		<path d="M3,38.6c-0.1,0.4-0.2,0.7-0.2,0.9c0,0.3,0.2,0.7,0.5,0.7c0.3,0,1-0.2,1.3-1.3c0-0.1,0-0.1,0.1-0.1c0,0,0.1,0,0.1,0.1
			c0,0.2-0.6,1.5-1.6,1.5c-0.6,0-1-0.4-1.1-0.8c0,0.1-0.4,0.8-1,0.8c-0.4,0-0.9-0.2-0.9-0.7c0-0.3,0.2-0.6,0.5-0.6
			c0.1,0,0.4,0.1,0.4,0.3C1.2,39.8,1,40,0.7,40c0.2,0.1,0.4,0.1,0.5,0.1c0.4,0,0.8-0.4,0.9-1c0.4-1.4,0.5-2.1,0.5-2.4
			c0-0.6-0.3-0.7-0.5-0.7c-0.3,0-1,0.2-1.3,1.3c0,0.1-0.1,0.1-0.1,0.1c0,0-0.1,0-0.1-0.1c0-0.2,0.6-1.5,1.6-1.5
			c0.3,0,0.8,0.1,1.1,0.8c0.1-0.2,0.5-0.8,1-0.8c0.3,0,0.9,0.1,0.9,0.7c0,0.4-0.3,0.6-0.5,0.6c-0.3,0-0.4-0.2-0.4-0.3
			c0-0.2,0.2-0.5,0.5-0.5c-0.2-0.1-0.4-0.1-0.5-0.1c-0.7,0-0.9,0.9-1,1.2L3,38.6z"/>
	</g>
	<g>
		<path d="M6.8,42.8v-10h1.4v0.4h-1v9.2h1v0.4H6.8z"/>
	</g>
	<g>
		<path d="M9.9,37.4c0.1-0.5,0.2-0.6,0.2-0.8c0-0.3-0.1-0.5-0.3-0.5c-0.4,0-0.6,0.5-0.7,1.2c-0.1,0.2-0.1,0.2-0.2,0.2
			c0,0-0.1,0-0.1-0.1c0,0,0.1-0.6,0.3-1c0.1-0.2,0.3-0.6,0.7-0.6c0.5,0,0.9,0.3,0.9,0.9c0.2-0.2,0.7-0.9,1.6-0.9
			c0.7,0,1.1,0.4,1.1,1.1c0,0.6-0.4,1.7-0.6,2.2c-0.1,0.2-0.2,0.5-0.2,0.7c0,0.2,0.1,0.3,0.2,0.3c0.5,0,0.8-0.6,1-1.2
			c0-0.1,0-0.2,0.1-0.2c0,0,0.1,0,0.1,0.1c0,0.1-0.4,1.5-1.3,1.5c-0.5,0-0.8-0.3-0.8-0.8c0-0.1,0-0.2,0.1-0.5
			c0.2-0.4,0.6-1.7,0.6-2.3c0-0.3-0.1-0.7-0.5-0.7c-0.9,0-1.5,0.9-1.6,1.2c0,0-0.1,0.3-0.1,0.5c0,0.2-0.1,0.4-0.2,0.7L10,39.4
			c-0.1,0.2-0.2,0.7-0.2,0.7c-0.1,0.2-0.2,0.3-0.4,0.3c-0.1,0-0.3-0.1-0.3-0.3c0-0.1,0.1-0.3,0.1-0.4L9.9,37.4z"/>
	</g>
	<g>
		<path d="M16,42.8h-1.4v-0.4h1v-9.2h-1v-0.4H16V42.8z"/>
	</g>
	<g>
		<path d="M319.5,89.9c-0.3,1.1-1.3,2-2.3,2c-0.6,0-1.1-0.4-1.1-0.9c0-0.5,0.3-0.6,0.6-0.6c0.1,0,0.4,0,0.4,0.3
			c0,0.2-0.1,0.3-0.2,0.4c-0.1,0.1-0.3,0.1-0.4,0.1c0.2,0.4,0.6,0.4,0.8,0.4c0.5,0,0.8-0.3,1.1-0.6c0.4-0.5,0.5-1,0.6-1.5
			c-0.3,0.3-0.6,0.4-1,0.4c-0.6,0-1.2-0.3-1.2-1.2c0-0.5,0.2-1,0.6-2.1c0.1-0.2,0.2-0.4,0.2-0.7c0-0.3-0.2-0.3-0.2-0.3
			c-0.3,0-0.7,0.3-1,1.2c0,0.2-0.1,0.2-0.2,0.2c0,0-0.1,0-0.1-0.1c0-0.1,0.4-1.5,1.3-1.5c0.5,0,0.8,0.4,0.8,0.8c0,0.2,0,0.3-0.2,0.7
			c-0.3,0.9-0.5,1.5-0.5,2c0,0.4,0.1,0.8,0.6,0.8c0.7,0,1.1-0.7,1.1-0.8l0.4-1.8c0.1-0.3,0.1-0.5,0.2-0.8c0-0.2,0.1-0.5,0.1-0.5
			c0.1-0.2,0.2-0.2,0.3-0.2c0.1,0,0.3,0.1,0.3,0.3c0,0.1,0,0.1,0,0.2L319.5,89.9z"/>
	</g>
	<g>
		<path d="M322.1,92.4v-10h1.4v0.4h-1V92h1v0.4H322.1z"/>
	</g>
	<g>
		<path d="M325.1,87c0.1-0.5,0.2-0.6,0.2-0.8c0-0.3-0.1-0.5-0.3-0.5c-0.4,0-0.6,0.5-0.7,1.2c-0.1,0.2-0.1,0.2-0.2,0.2
			c0,0-0.1,0-0.1-0.1c0,0,0.1-0.6,0.3-1c0.1-0.2,0.3-0.6,0.7-0.6c0.5,0,0.9,0.3,0.9,0.9c0.2-0.2,0.7-0.9,1.6-0.9
			c0.7,0,1.1,0.4,1.1,1.1c0,0.6-0.4,1.7-0.6,2.2c-0.1,0.2-0.2,0.5-0.2,0.7c0,0.2,0.1,0.3,0.2,0.3c0.5,0,0.8-0.6,1-1.2
			c0.1-0.2,0.1-0.2,0.2-0.2c0,0,0.1,0,0.1,0.1c0,0.1-0.4,1.5-1.3,1.5c-0.5,0-0.8-0.3-0.8-0.8c0-0.1,0-0.2,0.1-0.5
			c0.2-0.4,0.6-1.7,0.6-2.3c0-0.3-0.1-0.7-0.5-0.7c-0.9,0-1.5,0.9-1.6,1.2c0,0-0.1,0.3-0.1,0.5c0,0.2-0.1,0.4-0.2,0.7l-0.2,0.9
			c-0.1,0.3-0.2,0.7-0.2,0.7c-0.1,0.2-0.2,0.3-0.4,0.3c-0.1,0-0.3-0.1-0.3-0.3c0-0.1,0.1-0.3,0.1-0.4L325.1,87z"/>
	</g>
	<g>
		<path d="M331.2,92.4h-1.4V92h1v-9.2h-1v-0.4h1.4V92.4z"/>
	</g>
	<polygon class="st1" points="37,62.7 37,108.7 292.1,108.7 292.1,16.6 37,16.6 	"/>
	<g>
		<path d="M124.9,4.7c0.4-0.5,0.8-0.8,1.5-0.8c0.7,0,1.1,0.4,1.1,1.1c0,0.6-0.4,1.8-0.6,2.2c-0.1,0.2-0.2,0.5-0.2,0.7
			c0,0.2,0.1,0.3,0.2,0.3c0.5,0,0.9-0.7,1-1.2c0-0.1,0-0.2,0.1-0.2c0,0,0.1,0,0.1,0.1c0,0.1-0.4,1.5-1.3,1.5c-0.5,0-0.8-0.3-0.8-0.8
			c0-0.2,0-0.3,0.1-0.5c0.2-0.6,0.6-1.7,0.6-2.2c0-0.4-0.1-0.7-0.5-0.7c-0.4,0-0.7,0.2-1,0.3c-0.3,0.3-0.6,0.8-0.7,0.9
			c0,0.1-0.1,0.4-0.1,0.4c0,0.2-0.1,0.4-0.2,0.7l-0.2,0.9L124,8.2c0,0.1-0.2,0.3-0.4,0.3c-0.1,0-0.3,0-0.3-0.3c0-0.1,0-0.1,0-0.2
			l1.4-5.7l0-0.2c0-0.1,0-0.2-0.5-0.2c-0.1,0-0.2,0-0.2-0.1c0-0.2,0.1-0.2,0.2-0.2c0.3,0,1-0.1,1.2-0.1c0.1,0,0.1,0.1,0.1,0.1
			L124.9,4.7z"/>
	</g>
	<g>
		<path d="M129.7,10.9v-10h1.4v0.4h-1v9.2h1v0.4H129.7z"/>
	</g>
	<g>
		<path d="M132.8,5.5c0.1-0.5,0.2-0.6,0.2-0.8c0-0.3-0.1-0.5-0.3-0.5c-0.4,0-0.6,0.5-0.7,1.2c-0.1,0.2-0.1,0.2-0.2,0.2
			c0,0-0.1,0-0.1-0.1c0,0,0.1-0.6,0.3-1c0.1-0.2,0.3-0.6,0.7-0.6c0.5,0,0.9,0.3,0.9,0.9c0.2-0.2,0.7-0.9,1.6-0.9
			c0.7,0,1.1,0.4,1.1,1.1c0,0.6-0.4,1.7-0.6,2.2c-0.1,0.2-0.2,0.5-0.2,0.7c0,0.2,0.1,0.3,0.2,0.3c0.5,0,0.8-0.6,1-1.2
			c0-0.1,0-0.2,0.1-0.2c0,0,0.1,0,0.1,0.1c0,0.1-0.4,1.5-1.3,1.5c-0.5,0-0.8-0.3-0.8-0.8c0-0.1,0-0.2,0.1-0.5
			c0.2-0.4,0.6-1.7,0.6-2.3c0-0.3-0.1-0.7-0.5-0.7c-0.9,0-1.5,0.9-1.6,1.2c0,0-0.1,0.3-0.1,0.5c0,0.2-0.1,0.4-0.2,0.7l-0.2,0.9
			c-0.1,0.2-0.2,0.7-0.2,0.7c-0.1,0.2-0.2,0.3-0.4,0.3c-0.1,0-0.3-0.1-0.3-0.3c0-0.1,0.1-0.3,0.1-0.4L132.8,5.5z"/>
	</g>
	<g>
		<path d="M138.9,10.9h-1.4v-0.4h1V1.3h-1V0.9h1.4V10.9z"/>
		<path d="M143.7,5.1c-0.1,0-0.3,0-0.3-0.2s0.2-0.2,0.3-0.2h6c0.1,0,0.3,0,0.3,0.2s-0.2,0.2-0.3,0.2H143.7z M143.7,7.1
			c-0.1,0-0.3,0-0.3-0.2s0.2-0.2,0.3-0.2h5.9c0.1,0,0.3,0,0.3,0.2s-0.2,0.2-0.3,0.2H143.7z"/>
	</g>
	<g>
		<path d="M155.5,4.7c0.4-0.5,0.8-0.8,1.5-0.8c0.7,0,1.1,0.4,1.1,1.1c0,0.6-0.4,1.8-0.6,2.2c-0.1,0.2-0.2,0.5-0.2,0.7
			c0,0.2,0.1,0.3,0.2,0.3c0.5,0,0.9-0.7,1-1.2c0-0.1,0-0.2,0.1-0.2c0,0,0.1,0,0.1,0.1c0,0.1-0.4,1.5-1.3,1.5c-0.5,0-0.8-0.3-0.8-0.8
			c0-0.2,0-0.3,0.1-0.5c0.2-0.6,0.6-1.7,0.6-2.2c0-0.4-0.1-0.7-0.5-0.7c-0.4,0-0.7,0.2-1,0.3c-0.3,0.3-0.6,0.8-0.7,0.9
			c0,0.1-0.1,0.4-0.1,0.4c0,0.2-0.1,0.4-0.2,0.7l-0.2,0.9l-0.2,0.8c0,0.1-0.2,0.3-0.4,0.3c-0.1,0-0.3,0-0.3-0.3c0-0.1,0-0.1,0-0.2
			l1.4-5.7l0-0.2c0-0.1,0-0.2-0.5-0.2c-0.1,0-0.2,0-0.2-0.1c0-0.2,0.1-0.2,0.2-0.2c0.3,0,1-0.1,1.2-0.1c0.1,0,0.1,0.1,0.1,0.1
			L155.5,4.7z"/>
	</g>
	<g>
		<path d="M161.5,9.2c0,0.2,0,0.3,0.7,0.3h0.3v0.3c-0.2,0-1,0-1.2,0c-0.3,0-1.1,0-1.2,0V9.6h0.3c0.7,0,0.7-0.1,0.7-0.3V5.7
			c-0.4,0.2-0.8,0.2-1,0.2V5.6c0.3,0,0.9,0,1.4-0.4c0.2,0,0.2,0,0.2,0.2V9.2z"/>
	</g>
	<g>
		<path d="M164.8,10.9v-10h1.4v0.4h-1v9.2h1v0.4H164.8z"/>
	</g>
	<g>
		<path d="M167.8,5.5c0.1-0.5,0.2-0.6,0.2-0.8c0-0.3-0.1-0.5-0.3-0.5c-0.4,0-0.6,0.5-0.7,1.2c-0.1,0.2-0.1,0.2-0.2,0.2
			c0,0-0.1,0-0.1-0.1c0,0,0.1-0.6,0.3-1c0.1-0.2,0.3-0.6,0.7-0.6c0.5,0,0.9,0.3,0.9,0.9c0.2-0.2,0.7-0.9,1.6-0.9
			c0.7,0,1.1,0.4,1.1,1.1c0,0.6-0.4,1.7-0.6,2.2c-0.1,0.2-0.2,0.5-0.2,0.7c0,0.2,0.1,0.3,0.2,0.3c0.5,0,0.8-0.6,1-1.2
			c0.1-0.1,0.1-0.2,0.2-0.2c0,0,0.1,0,0.1,0.1c0,0.1-0.4,1.5-1.3,1.5c-0.5,0-0.8-0.3-0.8-0.8c0-0.1,0-0.2,0.1-0.5
			c0.2-0.4,0.6-1.7,0.6-2.3c0-0.3-0.1-0.7-0.5-0.7c-0.9,0-1.5,0.9-1.6,1.2c0,0-0.1,0.3-0.1,0.5c0,0.2-0.1,0.4-0.2,0.7L168,7.5
			c-0.1,0.2-0.2,0.7-0.2,0.7c-0.1,0.2-0.2,0.3-0.4,0.3c-0.1,0-0.3-0.1-0.3-0.3c0-0.1,0.1-0.3,0.1-0.4L167.8,5.5z"/>
	</g>
	<g>
		<path d="M173.9,10.9h-1.4v-0.4h1V1.3h-1V0.9h1.4V10.9z"/>
	</g>
	<path d="M179.6,6.8c0,0,0.1-0.1,0.1-0.1c0,0,0.4,0.4,0.5,0.5c0.3,0.3,0.6,0.6,0.9,0.9c0,0,0.1,0,0.1,0c0.1,0,0.1-0.1,0.1-0.1
		c0,0-0.3-0.6-0.6-1.1l-0.4-0.7l1.7-0.8c0.1-0.1,0.1-0.1,0.1-0.1c0,0,0-0.1-0.1-0.1c0,0-0.5,0.1-2,0.4l-0.2-1.9c0-0.2,0-0.2-0.1-0.2
		c-0.1,0-0.1,0-0.1,0.2l-0.2,1.9l-1.8-0.4c0,0-0.1,0-0.1,0c-0.1,0-0.1,0-0.1,0.1c0,0.1,0,0.1,0.2,0.1l1.7,0.8L178.3,8
		c-0.1,0.1-0.1,0.1-0.1,0.2c0,0,0,0.1,0.1,0.1c0,0,0,0,0.1-0.1L179.6,6.8z M187.3,1.6c0,0,0-0.1-0.1-0.1c-0.2,0-1,0.1-1.2,0.1
		c-0.1,0-0.2,0-0.2,0.2c0,0.1,0.1,0.1,0.2,0.1c0.5,0,0.5,0.1,0.5,0.2l0,0.2L185.1,8c0,0.1,0,0.2,0,0.2c0,0.2,0.2,0.3,0.3,0.3
		c0.2,0,0.3-0.1,0.4-0.3l0.2-0.8l0.2-0.9c0.1-0.2,0.1-0.4,0.2-0.7c0-0.1,0.1-0.4,0.1-0.4c0-0.1,0.3-0.6,0.7-0.9
		c0.2-0.2,0.5-0.3,1-0.3s0.5,0.3,0.5,0.7c0,0.5-0.4,1.6-0.6,2.2c-0.1,0.2-0.1,0.3-0.1,0.5c0,0.5,0.3,0.8,0.8,0.8
		c0.9,0,1.3-1.5,1.3-1.5c0-0.1-0.1-0.1-0.1-0.1c-0.1,0-0.1,0-0.1,0.2c-0.1,0.5-0.5,1.2-1,1.2c-0.2,0-0.2-0.1-0.2-0.3
		c0-0.2,0.1-0.5,0.2-0.7c0.2-0.4,0.6-1.6,0.6-2.2c0-0.6-0.4-1.1-1.1-1.1c-0.6,0-1.1,0.3-1.5,0.8L187.3,1.6z"/>
	<g>
		<path d="M193.5,9.8h-2.9c0-0.2,0-0.2,0.1-0.3l1.7-1.7c0.2-0.3,0.7-0.7,0.7-1.3c0-0.6-0.4-1.1-1.1-1.1c-0.3,0-0.8,0.2-1,0.6
			c0.4,0,0.4,0.2,0.4,0.4c0,0.3-0.2,0.4-0.4,0.4c-0.1,0-0.4,0-0.4-0.4c0-0.6,0.6-1.2,1.5-1.2c0.9,0,1.6,0.5,1.6,1.4
			c0,0.7-0.5,1.1-1,1.5c-0.4,0.3-0.7,0.5-1.4,1.2h1.3c0.1,0,0.6,0,0.7,0c0.1-0.1,0.2-0.5,0.2-0.6h0.2L193.5,9.8z"/>
	</g>
	<g>
		<path d="M195.8,10.9v-10h1.4v0.4h-1v9.2h1v0.4H195.8z"/>
	</g>
	<g>
		<path d="M198.9,5.5C199,5,199,4.9,199,4.7c0-0.3-0.1-0.5-0.3-0.5c-0.4,0-0.6,0.5-0.7,1.2c-0.1,0.2-0.1,0.2-0.2,0.2
			c0,0-0.1,0-0.1-0.1c0,0,0.1-0.6,0.3-1c0.1-0.2,0.3-0.6,0.7-0.6c0.5,0,0.9,0.3,0.9,0.9c0.2-0.2,0.7-0.9,1.6-0.9
			c0.7,0,1.1,0.4,1.1,1.1c0,0.6-0.4,1.7-0.6,2.2c-0.1,0.2-0.2,0.5-0.2,0.7c0,0.2,0.1,0.3,0.2,0.3c0.5,0,0.8-0.6,1-1.2
			c0.1-0.1,0.1-0.2,0.2-0.2c0,0,0.1,0,0.1,0.1c0,0.1-0.4,1.5-1.3,1.5c-0.5,0-0.8-0.3-0.8-0.8c0-0.1,0-0.2,0.1-0.5
			c0.2-0.4,0.6-1.7,0.6-2.3c0-0.3-0.1-0.7-0.5-0.7c-0.9,0-1.5,0.9-1.6,1.2c0,0-0.1,0.3-0.1,0.5c0,0.2-0.1,0.4-0.2,0.7l-0.2,0.9
			c-0.1,0.2-0.2,0.7-0.2,0.7c-0.1,0.2-0.2,0.3-0.4,0.3c-0.1,0-0.3-0.1-0.3-0.3c0-0.1,0.1-0.3,0.1-0.4L198.9,5.5z"/>
	</g>
	<g>
		<path d="M205,10.9h-1.4v-0.4h1V1.3h-1V0.9h1.4V10.9z"/>
	</g>
</g>
</svg>
