<?xml version="1.0" encoding="utf-8"?>
<!-- Generator: Adobe Illustrator 22.1.0, SVG Export Plug-In . SVG Version: 6.00 Build 0)  -->
<svg version="1.1" id="Layer_1" xmlns="http://www.w3.org/2000/svg" xmlns:xlink="http://www.w3.org/1999/xlink" x="0px" y="0px"
	 viewBox="0 0 447 241.8" style="enable-background:new 0 0 447 241.8;" xml:space="preserve">
<style type="text/css">
	.st0{fill:#1D1D1B;}
	.st1{fill:none;stroke:#000000;stroke-width:0.8504;stroke-miterlimit:10;}
	.st2{fill:none;stroke:#000000;stroke-width:1.4173;stroke-linecap:round;stroke-miterlimit:10;stroke-dasharray:0,4.2519;}
	.st3{fill:none;stroke:#000000;stroke-width:1.4173;stroke-linecap:round;stroke-miterlimit:10;stroke-dasharray:0,3.9685;}
	.st4{fill:none;stroke:#000000;stroke-width:1.4173;stroke-linecap:round;stroke-miterlimit:10;stroke-dasharray:0,4.6063;}
	.st5{fill:none;stroke:#000000;stroke-width:1.7008;stroke-miterlimit:10;}
	.st6{fill:none;stroke:#FF0000;stroke-width:2.8346;stroke-miterlimit:10;}
	.st7{fill:none;stroke:#0000FF;stroke-width:2.8346;stroke-miterlimit:10;}
	.st8{fill:none;stroke:#FF0000;stroke-width:1.7008;stroke-miterlimit:10;}
	.st9{fill:none;stroke:#000000;stroke-width:1.1338;stroke-miterlimit:10;stroke-dasharray:2.8346,2.8346;}
	.st10{fill:none;stroke:#000000;stroke-width:1.1338;stroke-miterlimit:10;stroke-dasharray:3.0371,3.0371;}
	.st11{fill:none;stroke:#FF0000;stroke-width:2.8346;stroke-miterlimit:10;stroke-dasharray:2.5769,2.5769;}
	.st12{fill:none;stroke:#0000FF;stroke-width:2.8346;stroke-miterlimit:10;stroke-dasharray:2.3622,2.3622;}
	.st13{fill:none;stroke:#000000;stroke-width:2.2677;stroke-miterlimit:10;}
	.st14{fill:#BF0040;}
	.st15{clip-path:url(#SVGID_2_);fill:none;stroke:#000000;stroke-width:0.1417;stroke-linecap:square;stroke-miterlimit:10;}
	.st16{fill:none;stroke:#000000;stroke-width:0.1417;stroke-linecap:round;stroke-miterlimit:10;stroke-dasharray:0,2.9943;}
	.st17{clip-path:url(#SVGID_4_);fill:none;stroke:#000000;stroke-width:0.1417;stroke-linecap:square;stroke-miterlimit:10;}
	.st18{clip-path:url(#SVGID_6_);fill:none;stroke:#000000;stroke-width:0.1417;stroke-linecap:square;stroke-miterlimit:10;}
	.st19{clip-path:url(#SVGID_8_);fill:none;stroke:#000000;stroke-width:0.1417;stroke-linecap:square;stroke-miterlimit:10;}
</style>
<g>
	<g>
		<path class="st0" d="M190.8,37.2c0,0.4,0,0.5,0.8,0.5h0.2V38c-0.3,0-1.1,0-1.5,0c-0.4,0-1.1,0-1.5,0v-0.3h0.2
			c0.8,0,0.8-0.1,0.8-0.5V32c0-0.4,0-0.5-0.8-0.5h-0.2v-0.3h3.5c1.4,0,2.4,0.9,2.4,1.9c0,1-1.1,1.8-2.3,1.8h-1.7V37.2z M192.1,34.6
			c1.6,0,1.6-1.1,1.6-1.5c0-0.5,0-1.5-1.6-1.5h-0.9c-0.5,0-0.5,0.1-0.5,0.4v2.7H192.1z"/>
		<path class="st0" d="M196.5,37.2c0.2,0.4,0.6,0.7,1.1,0.7c0.1,0,1,0,1.3-1c0-0.1,0-0.1,0.1-0.1c0,0,0.1,0,0.1,0.1
			c0,0.2-0.4,1.3-1.7,1.3c-1.1,0-2.2-1-2.2-2.3c0-1.2,0.9-2.3,2.1-2.3c1.2,0,1.8,1,1.8,2c0,0.2,0,0.2-0.2,0.2h-2.8
			C196.2,36.1,196.2,36.7,196.5,37.2z M198.6,35.5c0-0.4-0.1-1.7-1.1-1.7c-0.3,0-1.2,0.2-1.2,1.7H198.6z"/>
	</g>
	<g>
		<path class="st0" d="M202.4,33.6c0.4,0,0.7,0.3,0.7,0.6s-0.2,0.4-0.4,0.4c-0.2,0-0.4-0.1-0.4-0.4c0-0.3,0.2-0.4,0.2-0.4
			c0,0,0,0-0.1,0c-0.8,0-1.2,0.9-1.2,1.9v1.5c0,0.4,0,0.5,0.8,0.5h0.2V38c-0.4,0-0.9,0-1.3,0c-0.3,0-0.7,0-1.1,0v-0.3
			c0.7,0,0.8,0,0.8-0.4v-2.7c0-0.5-0.1-0.6-0.8-0.6v-0.3l1.4-0.1v1.1C201.4,34.3,201.7,33.6,202.4,33.6z"/>
		<path class="st0" d="M205.3,37.3c0,0.4,0,0.4,0.7,0.4V38c-0.3,0-0.7,0-1,0c-0.2,0-0.8,0-1.1,0v-0.3c0.7,0,0.8,0,0.8-0.4v-2.7
			c0-0.5-0.1-0.5-0.7-0.5v-0.3l1.4-0.1V37.3z M204.8,32.4c-0.3,0-0.5-0.3-0.5-0.5c0-0.3,0.2-0.5,0.5-0.5c0.3,0,0.5,0.2,0.5,0.5
			S205.1,32.4,204.8,32.4z"/>
	</g>
	<g>
		<path class="st0" d="M208.8,38.1c-1.2,0-2.2-1-2.2-2.2c0-1.2,1-2.3,2.2-2.3c1.2,0,2.2,1.1,2.2,2.3C211,37.2,210,38.1,208.8,38.1z
			 M209.9,37.1c0.2-0.4,0.2-1,0.2-1.3c0-0.4,0-1-0.3-1.4c-0.3-0.4-0.7-0.6-1.1-0.6c-0.4,0-0.9,0.2-1.1,0.7c-0.2,0.4-0.2,1-0.2,1.4
			c0,0.4,0,1,0.2,1.4c0.3,0.5,0.7,0.7,1.1,0.7C209.3,37.9,209.7,37.6,209.9,37.1z"/>
		<path class="st0" d="M214,38.1c-1.1,0-2.1-1-2.1-2.3c0-1.3,1-2.3,2.2-2.3c0.5,0,1,0.3,1.3,0.6v-2.2c0-0.5-0.1-0.6-0.8-0.6v-0.3
			l1.4-0.1v6c0,0.5,0.1,0.6,0.8,0.6V38l-1.5,0.1v-0.7C215.1,37.8,214.6,38.1,214,38.1z M215.2,34.4c-0.3-0.4-0.7-0.6-1.1-0.6
			c-0.5,0-0.9,0.3-1.1,0.6c-0.3,0.4-0.3,1-0.3,1.4c0,0.4,0,1,0.3,1.4c0.2,0.4,0.6,0.6,1,0.6c0.4,0,0.9-0.2,1.2-0.7
			c0.1-0.2,0.1-0.2,0.1-0.4v-2C215.3,34.6,215.3,34.6,215.2,34.4z"/>
	</g>
	<g>
		<path class="st0" d="M218.8,37.3c0,0.4,0,0.4,0.7,0.4V38c-0.3,0-0.7,0-1,0c-0.2,0-0.8,0-1.1,0v-0.3c0.7,0,0.8,0,0.8-0.4v-2.7
			c0-0.5-0.1-0.5-0.7-0.5v-0.3l1.4-0.1V37.3z M218.4,32.4c-0.3,0-0.5-0.3-0.5-0.5c0-0.3,0.2-0.5,0.5-0.5c0.3,0,0.5,0.2,0.5,0.5
			S218.6,32.4,218.4,32.4z"/>
		<path class="st0" d="M222.4,37.9c0.4,0,1-0.1,1.3-1c0-0.1,0-0.1,0.1-0.1c0,0,0.1,0,0.1,0.1s-0.3,1.3-1.7,1.3c-1.2,0-2.1-1-2.1-2.3
			c0-1.2,0.9-2.3,2.2-2.3c0.8,0,1.5,0.4,1.5,1.1c0,0.3-0.2,0.5-0.5,0.5c-0.3,0-0.5-0.2-0.5-0.5c0-0.1,0.1-0.4,0.5-0.5
			c-0.3-0.4-1-0.4-1.1-0.4c-0.5,0-1.3,0.4-1.3,2C221,37.5,221.9,37.9,222.4,37.9z"/>
	</g>
	<g>
		<path class="st0" d="M202.1,54.4c-0.2,0-0.4,0-0.4-0.2s0.2-0.2,0.3-0.2h5.9c-0.5-0.5-1-1.3-1-1.5c0-0.1,0.1-0.1,0.2-0.1
			c0.1,0,0.1,0,0.3,0.2c0.6,1.1,1.6,2,2.9,2.4c0.2,0.1,0.2,0.1,0.2,0.1l0,0c0,0,0,0,0,0.1c0,0,0,0,0,0.1c0,0,0,0-0.2,0.1
			c-0.5,0.1-1.2,0.4-1.9,1c-0.6,0.6-0.9,1.1-1.1,1.5c0,0.1-0.1,0.1-0.2,0.1c-0.1,0-0.2,0-0.2-0.1c0-0.1,0.5-1,1-1.5h-5.9
			c-0.2,0-0.3,0-0.3-0.2s0.2-0.2,0.4-0.2h6.3c0.4-0.3,0.9-0.6,1.3-0.8c-0.3-0.1-0.8-0.4-1.3-0.8H202.1z"/>
	</g>
	<g>
		<path class="st0" d="M186,42.6c0-0.4,0-0.5-0.8-0.5H185v-0.3h5.6l0.3,2.2h-0.2c-0.2-1.4-0.4-1.9-2-1.9h-1.3
			c-0.5,0-0.5,0.1-0.5,0.4v2.4h0.9c1,0,1.1-0.3,1.1-1.2h0.2v2.6h-0.2c0-0.8-0.1-1.2-1.1-1.2h-0.9v2.7c0,0.3,0,0.4,0.5,0.4h1.3
			c1.7,0,1.9-0.7,2.2-2.3h0.2l-0.4,2.6H185v-0.3h0.2c0.8,0,0.8-0.1,0.8-0.5V42.6z"/>
		<path class="st0" d="M195.7,48c0.2,0.3,0.4,0.3,0.9,0.3v0.3c-0.3,0-0.7,0-1,0c-0.2,0-0.8,0-1.1,0v-0.3c0.3,0,0.4-0.2,0.4-0.2
			c0-0.1-0.1-0.2-0.2-0.3l-0.8-1c-0.6,0.7-0.9,1-0.9,1.3c0,0.1,0.1,0.3,0.3,0.3v0.3c-0.2,0-0.7,0-0.9,0c-0.3,0-0.6,0-0.8,0v-0.3
			c0.2,0,0.8,0,1.3-0.6l0.9-1.2l-1-1.3c-0.5-0.6-0.5-0.6-1.2-0.6v-0.3c0.3,0,0.7,0,0.9,0c0.2,0,0.8,0,1.1,0v0.3
			c-0.2,0-0.3,0.1-0.3,0.2c0,0.1,0,0.1,0.1,0.2l0.8,1l0.6-0.8c0-0.1,0.1-0.2,0.1-0.3c0-0.2-0.1-0.3-0.3-0.3v-0.3c0.1,0,0.7,0,1,0
			c0.3,0,0.6,0,0.8,0v0.3c-0.5,0-0.9,0.2-1.2,0.5c-0.2,0.3-0.6,0.7-0.9,1.1L195.7,48z"/>
		<path class="st0" d="M198.4,47.4c0,0.2,0,1.1,0.7,1.1c0.4,0,0.7-0.4,0.7-1.1v-0.5h0.2v0.6c0,0.6-0.3,1.3-1,1.3
			c-0.4,0-1.3-0.1-1.3-1.3v-2.8h-0.8v-0.2c1,0,1.3-1.1,1.3-1.9h0.2v1.8h1.4v0.3h-1.4V47.4z"/>
		<path class="st0" d="M202,47.8c0.2,0.4,0.6,0.7,1.1,0.7c0.1,0,1,0,1.3-1c0-0.1,0-0.1,0.1-0.1c0,0,0.1,0,0.1,0.1
			c0,0.2-0.4,1.3-1.7,1.3c-1.1,0-2.2-1-2.2-2.3c0-1.2,0.9-2.3,2.1-2.3c1.2,0,1.8,1,1.8,2c0,0.2,0,0.2-0.2,0.2h-2.8
			C201.7,46.6,201.7,47.3,202,47.8z M204.1,46.1c0-0.4-0.1-1.7-1.1-1.7c-0.3,0-1.2,0.2-1.2,1.7H204.1z"/>
		<path class="st0" d="M205.3,44.6v-0.3l1.4-0.1v1c0.3-0.6,0.7-1,1.5-1c0.6,0,0.9,0.2,1,0.4c0.3,0.4,0.3,0.7,0.3,1.5V48
			c0,0.3,0.3,0.3,0.8,0.3v0.3c-0.3,0-0.9,0-1.1,0c-0.3,0-0.8,0-1.1,0v-0.3c0.7,0,0.8,0,0.8-0.4v-2.3c0-0.6-0.1-1.1-0.7-1.1
			c-0.6,0-1.3,0.6-1.3,1.6v1.8c0,0.4,0.1,0.4,0.8,0.4v0.3c-0.3,0-0.9,0-1.1,0c-0.3,0-0.8,0-1.1,0v-0.3c0.7,0,0.8,0,0.8-0.4v-2.7
			C206.1,44.7,206,44.6,205.3,44.6z"/>
		<path class="st0" d="M211.3,46.2c-0.3-0.2-0.4-0.5-0.4-0.8c0-0.6,0.4-1.2,1.6-1.2c0.1,0,0.6,0,0.9,0.3c0,0,0.1-0.1,0.2-0.2
			c0.1-0.1,0.1-0.1,0.2-0.1c0.1,0,0.1,0.1,0.1,0.2v1c0,0.2,0,0.2-0.1,0.2c0,0-0.1,0-0.1-0.1c0-0.3-0.1-1.2-1.2-1.2
			c-0.9,0-1.1,0.4-1.1,0.8c0,0.6,0.7,0.7,1.2,0.8c0.4,0.1,0.8,0.2,1.1,0.5c0.1,0.1,0.4,0.4,0.4,0.9c0,0.7-0.5,1.4-1.6,1.4
			c-0.2,0-0.7,0-1.1-0.4c-0.2,0.2-0.2,0.2-0.2,0.2c-0.2,0.2-0.2,0.2-0.2,0.2c-0.1,0-0.1-0.1-0.1-0.2v-1.3c0-0.2,0-0.2,0.1-0.2
			c0.1,0,0.1,0,0.1,0.2c0.2,0.8,0.5,1.4,1.4,1.4c0.8,0,1.1-0.4,1.1-0.9c0-0.7-0.8-0.9-1-0.9C211.9,46.5,211.6,46.5,211.3,46.2z"/>
		<path class="st0" d="M216.3,47.8c0,0.4,0,0.4,0.7,0.4v0.3c-0.3,0-0.7,0-1,0c-0.2,0-0.8,0-1.1,0v-0.3c0.7,0,0.8,0,0.8-0.4v-2.7
			c0-0.5-0.1-0.5-0.7-0.5v-0.3l1.4-0.1V47.8z M215.8,43c-0.3,0-0.5-0.3-0.5-0.5c0-0.3,0.2-0.5,0.5-0.5c0.3,0,0.5,0.2,0.5,0.5
			S216.1,43,215.8,43z"/>
		<path class="st0" d="M219.8,48.7c-1.2,0-2.2-1-2.2-2.2c0-1.2,1-2.3,2.2-2.3c1.2,0,2.2,1.1,2.2,2.3C222,47.7,221,48.7,219.8,48.7z
			 M220.9,47.7c0.2-0.4,0.2-1,0.2-1.3c0-0.4,0-1-0.3-1.4c-0.3-0.4-0.7-0.6-1.1-0.6c-0.4,0-0.9,0.2-1.1,0.7c-0.2,0.4-0.2,1-0.2,1.4
			c0,0.4,0,1,0.2,1.4c0.3,0.5,0.7,0.7,1.1,0.7C220.3,48.4,220.7,48.2,220.9,47.7z"/>
	</g>
	<g>
		<path class="st0" d="M222.7,44.6v-0.3l1.4-0.1v1c0.3-0.6,0.7-1,1.5-1c0.6,0,0.9,0.2,1,0.4c0.3,0.4,0.3,0.7,0.3,1.5V48
			c0,0.3,0.3,0.3,0.8,0.3v0.3c-0.3,0-0.9,0-1.1,0c-0.3,0-0.8,0-1.1,0v-0.3c0.7,0,0.8,0,0.8-0.4v-2.3c0-0.6-0.1-1.1-0.7-1.1
			c-0.6,0-1.3,0.6-1.3,1.6v1.8c0,0.4,0.1,0.4,0.8,0.4v0.3c-0.3,0-0.9,0-1.1,0c-0.3,0-0.8,0-1.1,0v-0.3c0.7,0,0.8,0,0.8-0.4v-2.7
			C223.4,44.7,223.4,44.6,222.7,44.6z"/>
	</g>
	<g>
		<path class="st0" d="M198.8,71.5c-0.1,0-1-0.6-1.6-1.9c-0.5-1.1-0.7-2.3-0.7-3.1c0-0.8,0.1-1.9,0.6-3c0.6-1.3,1.5-1.9,1.6-1.9
			c0.1,0,0.1,0,0.1,0.1c0,0,0,0-0.1,0.2c-1.2,1.2-1.6,3-1.6,4.7c0,1.5,0.3,3.4,1.6,4.7C198.9,71.3,198.9,71.3,198.8,71.5
			C198.9,71.4,198.9,71.5,198.8,71.5z"/>
		<path class="st0" d="M201.8,68.2c0,0.4,0,0.5,0.8,0.5h0.2V69c-0.3,0-1.1,0-1.5,0c-0.4,0-1.1,0-1.5,0v-0.3h0.2
			c0.8,0,0.8-0.1,0.8-0.5V63c0-0.4,0-0.5-0.8-0.5h-0.2v-0.3h3.5c1.4,0,2.4,0.9,2.4,1.9c0,1-1.1,1.8-2.3,1.8h-1.7V68.2z M203.1,65.6
			c1.6,0,1.6-1.1,1.6-1.5c0-0.5,0-1.5-1.6-1.5h-0.9c-0.5,0-0.5,0.1-0.5,0.4v2.7H203.1z"/>
		<path class="st0" d="M207.7,63c0-0.4,0-0.5-0.8-0.5h-0.2v-0.3h5.6l0.3,2.2h-0.2c-0.2-1.4-0.4-1.9-2-1.9h-1.3
			c-0.5,0-0.5,0.1-0.5,0.4v2.4h0.9c1,0,1.1-0.3,1.1-1.2h0.2v2.6h-0.2c0-0.8-0.1-1.2-1.1-1.2h-0.9v2.7c0,0.3,0,0.4,0.5,0.4h1.3
			c1.7,0,1.9-0.7,2.2-2.3h0.2l-0.4,2.6h-5.7v-0.3h0.2c0.8,0,0.8-0.1,0.8-0.5V63z"/>
		<path class="st0" d="M215.4,69.5c-0.6,1.3-1.5,1.9-1.6,1.9c-0.1,0-0.1,0-0.1-0.1c0,0,0-0.1,0.1-0.2c1.2-1.3,1.6-3,1.6-4.7
			c0-2.1-0.6-3.7-1.5-4.7c-0.2-0.2-0.2-0.2-0.2-0.2c0-0.1,0-0.1,0.1-0.1c0.1,0,1,0.6,1.6,1.9c0.5,1.1,0.7,2.3,0.7,3.1
			C216.1,67.3,216,68.4,215.4,69.5z"/>
	</g>
	<polyline points="166.3,68.7 170.8,66.5 166.3,64.2 167.4,66.5 	"/>
	<line class="st1" x1="0.7" y1="66.5" x2="167.4" y2="66.5"/>
	<polyline points="66.8,24.9 64.5,20.4 62.2,24.9 64.5,23.8 	"/>
	<line class="st1" x1="64.5" y1="70" x2="64.5" y2="23.8"/>
	<g>
		<path class="st0" d="M176.4,65.7c0.1-0.5,0.2-0.6,0.2-0.8c0-0.3-0.1-0.5-0.3-0.5c-0.4,0-0.6,0.5-0.7,1.2c-0.1,0.2-0.1,0.2-0.2,0.2
			c0,0-0.1,0-0.1-0.1c0,0,0.1-0.6,0.3-1c0.1-0.2,0.3-0.6,0.7-0.6c0.5,0,0.9,0.3,0.9,0.9c0.2-0.2,0.7-0.9,1.6-0.9
			c0.7,0,1.1,0.4,1.1,1.1c0,0.6-0.4,1.7-0.6,2.2c-0.1,0.2-0.2,0.5-0.2,0.7c0,0.2,0.1,0.3,0.2,0.3c0.5,0,0.8-0.6,1-1.2
			c0-0.1,0-0.2,0.1-0.2c0,0,0.1,0,0.1,0.1c0,0.1-0.4,1.5-1.3,1.5c-0.5,0-0.8-0.3-0.8-0.8c0-0.1,0-0.2,0.1-0.5
			c0.2-0.4,0.6-1.7,0.6-2.3c0-0.3-0.1-0.7-0.5-0.7c-0.9,0-1.5,0.9-1.6,1.2c0,0-0.1,0.3-0.1,0.5c0,0.2-0.1,0.4-0.2,0.7l-0.2,0.9
			c-0.1,0.2-0.2,0.7-0.2,0.7c-0.1,0.2-0.2,0.3-0.4,0.3c-0.1,0-0.3-0.1-0.3-0.3c0-0.1,0.1-0.3,0.1-0.4L176.4,65.7z"/>
	</g>
	<g>
		<path class="st0" d="M66.3,75.9c-0.4,0.9-1.2,1.2-1.7,1.2c-0.5,0-1.2-0.2-1.6-1c-0.4-0.8-0.4-1.7-0.4-2.4c0-0.8,0-1.6,0.4-2.3
			c0.4-0.9,1.1-1.2,1.7-1.2c0.4,0,1.2,0.2,1.7,1.1c0.3,0.7,0.4,1.5,0.4,2.3C66.6,74.4,66.6,75.2,66.3,75.9z M65.7,75.5
			c0.1-0.6,0.1-1.3,0.1-2.1c0-0.6,0-1.4-0.1-1.9c-0.2-1-0.8-1.2-1.2-1.2c-0.2,0-1,0.1-1.2,1.3c-0.1,0.5-0.1,1.2-0.1,1.8
			c0,0.6,0,1.5,0.1,2.1c0.2,1,0.8,1.2,1.2,1.2C65,76.8,65.5,76.5,65.7,75.5z"/>
		<path class="st0" d="M79.1,76c0,0.4,0,0.5,0.9,0.5h0.3v0.3c-0.3,0-1.2,0-1.6,0c-0.4,0-1.3,0-1.6,0v-0.3h0.3c0.9,0,0.9-0.1,0.9-0.5
			v-5.2c-0.5,0.3-1.1,0.3-1.3,0.3v-0.3c0.3,0,1.2,0,1.8-0.6c0.2,0,0.2,0,0.2,0.3V76z"/>
		<path class="st0" d="M93.4,76c0.2,0,0.9,0,0.9-0.1c0.1-0.1,0.2-0.6,0.2-0.9h0.2l-0.3,1.7h-3.7c0-0.2,0-0.3,0.1-0.4l1.9-2.1
			c0.5-0.6,1-1.4,1-2.2c0-0.8-0.4-1.6-1.3-1.6c-0.6,0-1.1,0.4-1.3,1c0,0,0,0,0.1,0c0.3,0,0.5,0.3,0.5,0.5c0,0.4-0.3,0.5-0.5,0.5
			c0,0-0.5,0-0.5-0.6c0-0.9,0.7-1.8,1.9-1.8c1.2,0,2.1,0.8,2.1,1.9c0,1-0.6,1.5-2.2,2.9l-1.1,1H93.4z"/>
		<path class="st0" d="M109.1,75.1c0,1-0.9,1.9-2.1,1.9c-1.1,0-2-0.7-2-1.6c0-0.4,0.3-0.6,0.6-0.6c0.3,0,0.6,0.2,0.6,0.6
			c0,0.4-0.3,0.6-0.7,0.5c0.3,0.6,1.1,0.8,1.5,0.8c0.4,0,1.1-0.3,1.1-1.6c0-1-0.4-1.7-1.2-1.7h-0.4c-0.2,0-0.2,0-0.2-0.1
			c0-0.1,0.1-0.1,0.1-0.1c0.1,0,0.3,0,0.4,0c0.2,0,0.6,0,0.9-0.5c0.3-0.4,0.3-1,0.3-1.1c0-0.9-0.5-1.1-1-1.1c-0.4,0-1,0.1-1.3,0.6
			c0.1,0,0.6,0,0.6,0.5c0,0.3-0.2,0.5-0.5,0.5c-0.3,0-0.5-0.2-0.5-0.5c0-0.8,0.8-1.4,1.8-1.4c1,0,1.8,0.6,1.8,1.4
			c0,0.8-0.6,1.5-1.4,1.8C108.4,73.5,109.1,74.3,109.1,75.1z"/>
	</g>
	<g>
		<path class="st0" d="M74.6,24.9c-0.1,0.4-0.2,0.7-0.2,0.9c0,0.3,0.2,0.7,0.5,0.7c0.3,0,1-0.2,1.3-1.3c0-0.1,0-0.1,0.1-0.1
			c0,0,0.1,0,0.1,0.1c0,0.2-0.6,1.5-1.6,1.5c-0.6,0-1-0.4-1.1-0.8c0,0.1-0.4,0.8-1,0.8c-0.4,0-0.9-0.2-0.9-0.7
			c0-0.3,0.2-0.6,0.5-0.6c0.1,0,0.4,0.1,0.4,0.3c0,0.3-0.2,0.5-0.5,0.5c0.2,0.1,0.4,0.1,0.5,0.1c0.4,0,0.8-0.4,0.9-1
			c0.4-1.4,0.5-2.1,0.5-2.4c0-0.6-0.3-0.7-0.5-0.7c-0.3,0-1,0.2-1.3,1.3c0,0.1-0.1,0.1-0.1,0.1c0,0-0.1,0-0.1-0.1
			c0-0.2,0.6-1.5,1.6-1.5c0.3,0,0.8,0.1,1.1,0.8c0.1-0.2,0.5-0.8,1-0.8c0.3,0,0.9,0.1,0.9,0.7c0,0.4-0.3,0.6-0.5,0.6
			c-0.3,0-0.4-0.2-0.4-0.3c0-0.2,0.2-0.5,0.5-0.5c-0.2-0.1-0.4-0.1-0.5-0.1c-0.7,0-0.9,0.9-1,1.2L74.6,24.9z"/>
	</g>
	<g>
		<path class="st0" d="M78.5,29V19h1.4v0.4h-1v9.2h1V29H78.5z"/>
	</g>
	<g>
		<path class="st0" d="M81.5,23.6c0.1-0.5,0.2-0.6,0.2-0.8c0-0.3-0.1-0.5-0.3-0.5c-0.4,0-0.6,0.5-0.7,1.2c-0.1,0.2-0.1,0.2-0.2,0.2
			c0,0-0.1,0-0.1-0.1c0,0,0.1-0.6,0.3-1c0.1-0.2,0.3-0.6,0.7-0.6c0.5,0,0.9,0.3,0.9,0.9c0.2-0.2,0.7-0.9,1.6-0.9
			c0.7,0,1.1,0.4,1.1,1.1c0,0.6-0.4,1.7-0.6,2.2c-0.1,0.2-0.2,0.5-0.2,0.7c0,0.2,0.1,0.3,0.2,0.3c0.5,0,0.8-0.6,1-1.2
			c0-0.1,0-0.2,0.1-0.2c0,0,0.1,0,0.1,0.1c0,0.1-0.4,1.5-1.3,1.5c-0.5,0-0.8-0.3-0.8-0.8c0-0.1,0-0.2,0.1-0.5
			c0.2-0.4,0.6-1.7,0.6-2.3c0-0.3-0.1-0.7-0.5-0.7c-0.9,0-1.5,0.9-1.6,1.2c0,0-0.1,0.3-0.1,0.5c0,0.2-0.1,0.4-0.2,0.7l-0.2,0.9
			c-0.1,0.2-0.2,0.7-0.2,0.7c-0.1,0.2-0.2,0.3-0.4,0.3c-0.1,0-0.3-0.1-0.3-0.3c0-0.1,0.1-0.3,0.1-0.4L81.5,23.6z"/>
	</g>
	<g>
		<path class="st0" d="M87.6,29h-1.4v-0.4h1v-9.2h-1V19h1.4V29z"/>
	</g>
	<g>
		<path class="st0" d="M135.3,77c-1.1,0-1.8-1-1.8-1.8c0-0.5,0.3-0.5,0.5-0.5c0.3,0,0.5,0.2,0.5,0.5s-0.2,0.5-0.5,0.5
			c-0.1,0-0.1,0-0.2,0c0.2,0.6,0.7,1.1,1.5,1.1c0.5,0,0.8-0.3,1.1-0.6c0.2-0.4,0.2-1,0.2-1.4c0-0.5,0-0.9-0.2-1.3
			c-0.1-0.2-0.3-0.6-0.8-0.6c-0.8,0-1.2,0.5-1.3,0.7c0,0.1-0.1,0.1-0.1,0.1c-0.1,0-0.1-0.1-0.1-0.3v-2.9c0-0.2,0-0.2,0.1-0.2
			c0,0,0,0,0.1,0c0.5,0.2,0.9,0.3,1.3,0.3c0.7,0,1.2-0.2,1.4-0.3c0,0,0.1,0,0.1,0c0.1,0,0.1,0,0.1,0.1c0,0.1-0.7,1-1.9,1
			c-0.3,0-0.6-0.1-0.8-0.1v1.9c0.4-0.3,0.8-0.5,1.3-0.5c1.1,0,1.9,1,1.9,2.2C137.4,76.1,136.4,77,135.3,77z"/>
	</g>
	<g>
		<path class="st0" d="M119,75.1v-0.3l3.1-4.7c0.1-0.1,0.1-0.1,0.2-0.1c0.2,0,0.2,0.1,0.2,0.3v4.5h1v0.3h-1V76c0,0.4,0,0.5,0.8,0.5
			h0.2v0.3c-0.4,0-0.9,0-1.4,0s-0.9,0-1.3,0v-0.3h0.2c0.7,0,0.8-0.1,0.8-0.5v-0.9H119z M121.7,71.1l-2.4,3.7h2.4V71.1z"/>
		<path class="st0" d="M149.7,72.5c1.1,0,2,1,2,2.2c0,1.3-0.9,2.3-2.1,2.3c-0.9,0-2.1-0.7-2.1-3.4c0-2.2,1.3-3.5,2.6-3.5
			c0.8,0,1.3,0.5,1.3,1.1c0,0.4-0.3,0.5-0.5,0.5c-0.2,0-0.5-0.1-0.5-0.5c0-0.4,0.4-0.4,0.5-0.4c-0.2-0.3-0.6-0.4-0.9-0.4
			c-0.5,0-1.7,0.4-1.7,2.9v0.2C148.6,73,149,72.5,149.7,72.5z M150.6,76.1c0.2-0.4,0.2-0.9,0.2-1.3c0-0.5,0-1-0.2-1.4
			c-0.3-0.6-0.8-0.6-0.9-0.6c-0.9,0-1.2,1-1.2,1.8c0,0.2,0,1,0.2,1.4c0.1,0.1,0.4,0.7,1,0.7C149.9,76.7,150.3,76.7,150.6,76.1z"/>
	</g>
	<g>
		<path class="st0" d="M164.7,72.6c-0.4,0.6-0.6,1.5-0.6,1.7c-0.1,0.5-0.1,1.1-0.1,1.6v0.5c0,0.1,0,0.5-0.5,0.5
			c-0.5,0-0.5-0.4-0.5-0.5c0-1,0.3-2.4,1.2-3.7c0.2-0.3,1-1.4,1.1-1.6h-2.1c-0.1,0-0.9,0-1,0.1c-0.1,0.1-0.2,0.7-0.2,0.9h-0.2
			l0.3-2.1h0.2c0,0.2,0.1,0.3,1.3,0.3h2.4c0,0.2,0,0.2-0.1,0.3L164.7,72.6z"/>
	</g>
	<g>
		<path class="st0" d="M46.3,74.9v-0.6h2.6v0.6H46.3z"/>
		<path class="st0" d="M52.5,76c0,0.4,0,0.5,0.9,0.5h0.3v0.3c-0.3,0-1.2,0-1.6,0c-0.4,0-1.3,0-1.6,0v-0.3h0.3c0.9,0,0.9-0.1,0.9-0.5
			v-5.2c-0.5,0.3-1.1,0.3-1.3,0.3v-0.3c0.3,0,1.2,0,1.8-0.6c0.2,0,0.2,0,0.2,0.3V76z"/>
	</g>
	<g>
		<path class="st0" d="M32.1,74.9v-0.6h2.6v0.6H32.1z"/>
		<path class="st0" d="M38.5,76c0.2,0,0.9,0,0.9-0.1c0.1-0.1,0.2-0.6,0.2-0.9h0.2l-0.3,1.7h-3.7c0-0.2,0-0.3,0.1-0.4l1.9-2.1
			c0.5-0.6,1-1.4,1-2.2c0-0.8-0.4-1.6-1.3-1.6c-0.6,0-1.1,0.4-1.3,1c0,0,0,0,0.1,0c0.3,0,0.5,0.3,0.5,0.5c0,0.4-0.3,0.5-0.5,0.5
			c0,0-0.5,0-0.5-0.6c0-0.9,0.7-1.8,1.9-1.8c1.2,0,2.1,0.8,2.1,1.9c0,1-0.6,1.5-2.2,2.9l-1.1,1H38.5z"/>
	</g>
	<g>
		<path class="st0" d="M18,74.9v-0.6h2.6v0.6H18z"/>
		<path class="st0" d="M25.8,75.1c0,1-0.9,1.9-2.1,1.9c-1.1,0-2-0.7-2-1.6c0-0.4,0.3-0.6,0.6-0.6c0.3,0,0.6,0.2,0.6,0.6
			c0,0.4-0.3,0.6-0.7,0.5c0.3,0.6,1.1,0.8,1.5,0.8c0.4,0,1.1-0.3,1.1-1.6c0-1-0.4-1.7-1.2-1.7h-0.4c-0.2,0-0.2,0-0.2-0.1
			c0-0.1,0.1-0.1,0.1-0.1c0.1,0,0.3,0,0.4,0c0.2,0,0.6,0,0.9-0.5c0.3-0.4,0.3-1,0.3-1.1c0-0.9-0.5-1.1-1-1.1c-0.4,0-1,0.1-1.3,0.6
			c0.1,0,0.6,0,0.6,0.5c0,0.3-0.2,0.5-0.5,0.5c-0.3,0-0.5-0.2-0.5-0.5c0-0.8,0.8-1.4,1.8-1.4c1,0,1.8,0.6,1.8,1.4
			c0,0.8-0.6,1.5-1.4,1.8C25.1,73.5,25.8,74.3,25.8,75.1z"/>
	</g>
	<g>
		<path class="st0" d="M3.7,74.9v-0.6h2.6v0.6H3.7z"/>
		<path class="st0" d="M7.2,75.1v-0.3l3.1-4.7c0.1-0.1,0.1-0.1,0.2-0.1c0.2,0,0.2,0.1,0.2,0.3v4.5h1v0.3h-1V76c0,0.4,0,0.5,0.8,0.5
			h0.2v0.3c-0.4,0-0.9,0-1.4,0s-0.9,0-1.3,0v-0.3h0.2c0.7,0,0.8-0.1,0.8-0.5v-0.9H7.2z M9.9,71.1l-2.4,3.7h2.4V71.1z"/>
	</g>
	<g>
		<path class="st0" d="M22.1,39.7c-1.1,0-1.9-0.9-1.9-1.9c0-1,0.9-1.9,1.9-1.9c1,0,1.9,0.9,1.9,1.9C24,38.9,23.1,39.7,22.1,39.7z"/>
	</g>
	<polyline points="410.7,68.7 415.3,66.5 410.7,64.2 411.9,66.5 	"/>
	<line class="st1" x1="241.7" y1="66.5" x2="411.9" y2="66.5"/>
	<polyline points="307.7,24.9 305.4,20.4 303.2,24.9 305.4,23.8 	"/>
	<line class="st1" x1="305.4" y1="70" x2="305.4" y2="23.8"/>
	<g>
		<path class="st0" d="M424.5,65.7c0.1-0.5,0.2-0.6,0.2-0.8c0-0.3-0.1-0.5-0.3-0.5c-0.4,0-0.6,0.5-0.7,1.2c-0.1,0.2-0.1,0.2-0.2,0.2
			c0,0-0.1,0-0.1-0.1c0,0,0.1-0.6,0.3-1c0.1-0.2,0.3-0.6,0.7-0.6c0.5,0,0.9,0.3,0.9,0.9c0.2-0.2,0.7-0.9,1.6-0.9
			c0.7,0,1.1,0.4,1.1,1.1c0,0.6-0.4,1.7-0.6,2.2c-0.1,0.2-0.2,0.5-0.2,0.7c0,0.2,0.1,0.3,0.2,0.3c0.5,0,0.8-0.6,1-1.2
			c0.1-0.1,0.1-0.2,0.2-0.2c0,0,0.1,0,0.1,0.1c0,0.1-0.4,1.5-1.3,1.5c-0.5,0-0.8-0.3-0.8-0.8c0-0.1,0-0.2,0.1-0.5
			c0.2-0.4,0.6-1.7,0.6-2.3c0-0.3-0.1-0.7-0.5-0.7c-0.9,0-1.5,0.9-1.6,1.2c0,0-0.1,0.3-0.1,0.5c0,0.2-0.1,0.4-0.2,0.7l-0.2,0.9
			c-0.1,0.2-0.2,0.7-0.2,0.7c-0.1,0.2-0.2,0.3-0.4,0.3c-0.1,0-0.3-0.1-0.3-0.3c0-0.1,0.1-0.3,0.1-0.4L424.5,65.7z"/>
	</g>
	<g>
		<path class="st0" d="M307.2,75.9c-0.4,0.9-1.2,1.2-1.7,1.2c-0.5,0-1.2-0.2-1.6-1c-0.4-0.8-0.4-1.7-0.4-2.4c0-0.8,0-1.6,0.4-2.3
			c0.4-0.9,1.1-1.2,1.7-1.2c0.4,0,1.2,0.2,1.7,1.1c0.3,0.7,0.4,1.5,0.4,2.3C307.6,74.4,307.5,75.2,307.2,75.9z M306.6,75.5
			c0.1-0.6,0.1-1.3,0.1-2.1c0-0.6,0-1.4-0.1-1.9c-0.2-1-0.8-1.2-1.2-1.2c-0.2,0-1,0.1-1.2,1.3c-0.1,0.5-0.1,1.2-0.1,1.8
			c0,0.6,0,1.5,0.1,2.1c0.2,1,0.8,1.2,1.2,1.2C305.9,76.8,306.5,76.5,306.6,75.5z"/>
		<path class="st0" d="M320.1,76c0,0.4,0,0.5,0.9,0.5h0.3v0.3c-0.3,0-1.2,0-1.6,0s-1.3,0-1.6,0v-0.3h0.3c0.9,0,0.9-0.1,0.9-0.5v-5.2
			c-0.5,0.3-1.1,0.3-1.3,0.3v-0.3c0.3,0,1.2,0,1.8-0.6c0.2,0,0.2,0,0.2,0.3V76z"/>
		<path class="st0" d="M334.4,76c0.2,0,0.9,0,0.9-0.1c0.1-0.1,0.2-0.6,0.2-0.9h0.2l-0.3,1.7h-3.7c0-0.2,0-0.3,0.1-0.4l1.9-2.1
			c0.5-0.6,1-1.4,1-2.2c0-0.8-0.4-1.6-1.3-1.6c-0.6,0-1.1,0.4-1.3,1c0,0,0,0,0.1,0c0.3,0,0.5,0.3,0.5,0.5c0,0.4-0.3,0.5-0.5,0.5
			c0,0-0.5,0-0.5-0.6c0-0.9,0.7-1.8,1.9-1.8c1.2,0,2.1,0.8,2.1,1.9c0,1-0.6,1.5-2.2,2.9l-1.1,1H334.4z"/>
		<path class="st0" d="M350,75.1c0,1-0.9,1.9-2.1,1.9c-1.1,0-2-0.7-2-1.6c0-0.4,0.3-0.6,0.6-0.6c0.3,0,0.6,0.2,0.6,0.6
			c0,0.4-0.3,0.6-0.7,0.5c0.3,0.6,1.1,0.8,1.5,0.8c0.4,0,1.1-0.3,1.1-1.6c0-1-0.4-1.7-1.2-1.7h-0.4c-0.2,0-0.2,0-0.2-0.1
			c0-0.1,0.1-0.1,0.1-0.1c0.1,0,0.3,0,0.4,0c0.2,0,0.6,0,0.9-0.5c0.3-0.4,0.3-1,0.3-1.1c0-0.9-0.5-1.1-1-1.1c-0.4,0-1,0.1-1.3,0.6
			c0.1,0,0.6,0,0.6,0.5c0,0.3-0.2,0.5-0.5,0.5c-0.3,0-0.5-0.2-0.5-0.5c0-0.8,0.8-1.4,1.8-1.4c1,0,1.8,0.6,1.8,1.4
			c0,0.8-0.6,1.5-1.4,1.8C349.4,73.5,350,74.3,350,75.1z"/>
	</g>
	<g>
		<path class="st0" d="M315.6,21.1c-0.1,0.4-0.2,0.7-0.2,0.9c0,0.3,0.2,0.7,0.5,0.7c0.3,0,1-0.2,1.3-1.3c0-0.1,0-0.1,0.1-0.1
			c0,0,0.1,0,0.1,0.1c0,0.2-0.6,1.5-1.6,1.5c-0.6,0-1-0.4-1.1-0.8c0,0.1-0.4,0.8-1,0.8c-0.4,0-0.9-0.2-0.9-0.7
			c0-0.3,0.2-0.6,0.5-0.6c0.1,0,0.4,0.1,0.4,0.3c0,0.3-0.2,0.5-0.5,0.5c0.2,0.1,0.4,0.1,0.5,0.1c0.4,0,0.8-0.4,0.9-1
			c0.4-1.4,0.5-2.1,0.5-2.4c0-0.6-0.3-0.7-0.5-0.7c-0.3,0-1,0.2-1.3,1.3c0,0.1,0,0.1-0.1,0.1c0,0-0.1,0-0.1-0.1
			c0-0.2,0.6-1.5,1.6-1.5c0.3,0,0.8,0.1,1.1,0.8c0.1-0.2,0.5-0.8,1-0.8c0.3,0,0.9,0.1,0.9,0.7c0,0.4-0.3,0.6-0.5,0.6
			c-0.3,0-0.4-0.2-0.4-0.3c0-0.2,0.2-0.5,0.5-0.5c-0.2-0.1-0.4-0.1-0.5-0.1c-0.7,0-0.9,0.9-1,1.2L315.6,21.1z"/>
	</g>
	<g>
		<path class="st0" d="M319.6,21.9c0,0,0-0.1,0-0.2c0-0.2,0-0.3-0.2-0.3c-0.3,0-0.4,0.3-0.5,0.8c0,0.2-0.1,0.2-0.2,0.2
			c0,0-0.1,0-0.1-0.1c0,0,0.1-0.5,0.3-0.7c0.1-0.2,0.3-0.4,0.6-0.4c0.2,0,0.6,0.1,0.7,0.5c0.2-0.2,0.6-0.5,1-0.5c0.5,0,1,0.3,1,1.2
			c0,1-0.9,2-1.8,2c-0.4,0-0.6-0.3-0.7-0.4c-0.1,0.3-0.2,0.7-0.3,1c0,0.1-0.1,0.3-0.1,0.3c0,0.1,0.2,0.1,0.3,0.1
			c0.1,0,0.2,0,0.2,0.1c0,0.1-0.1,0.2-0.1,0.2c-0.2,0-0.5,0-0.7,0c-0.2,0-0.4,0-0.6,0c0,0-0.1,0-0.1-0.1c0-0.1,0.1-0.1,0.2-0.1
			c0.3,0,0.3-0.1,0.3-0.3L319.6,21.9z M319.7,23.4c0,0,0,0.1,0,0.1c0,0.1,0.1,0.6,0.6,0.6c0.4,0,0.7-0.3,0.9-0.7
			c0.2-0.4,0.4-1.1,0.4-1.4c0-0.5-0.2-0.7-0.5-0.7c-0.2,0-0.6,0.1-1,0.6L319.7,23.4z"/>
	</g>
	<g>
		<path class="st0" d="M324,25.3v-10h1.4v0.4h-1v9.2h1v0.4H324z"/>
	</g>
	<g>
		<path class="st0" d="M327,19.9c0.1-0.5,0.2-0.6,0.2-0.8c0-0.3-0.1-0.5-0.3-0.5c-0.4,0-0.6,0.5-0.7,1.2c-0.1,0.2-0.1,0.2-0.2,0.2
			c0,0-0.1,0-0.1-0.1c0,0,0.1-0.6,0.3-1c0.1-0.2,0.3-0.6,0.7-0.6c0.5,0,0.9,0.3,0.9,0.9c0.2-0.2,0.7-0.9,1.6-0.9
			c0.7,0,1.1,0.4,1.1,1.1c0,0.6-0.4,1.7-0.6,2.2c-0.1,0.2-0.2,0.5-0.2,0.7c0,0.2,0.1,0.3,0.2,0.3c0.5,0,0.8-0.6,1-1.2
			c0.1-0.1,0.1-0.2,0.2-0.2c0,0,0.1,0,0.1,0.1c0,0.1-0.4,1.5-1.3,1.5c-0.5,0-0.8-0.3-0.8-0.8c0-0.1,0-0.2,0.1-0.5
			c0.2-0.4,0.6-1.7,0.6-2.3c0-0.3-0.1-0.7-0.5-0.7c-0.9,0-1.5,0.9-1.6,1.2c0,0-0.1,0.3-0.1,0.5c0,0.2-0.1,0.4-0.2,0.7l-0.2,0.9
			c-0.1,0.2-0.2,0.7-0.2,0.7c-0.1,0.2-0.2,0.3-0.4,0.3c-0.1,0-0.3-0.1-0.3-0.3c0-0.1,0.1-0.3,0.1-0.4L327,19.9z"/>
	</g>
	<g>
		<path class="st0" d="M333.1,25.3h-1.4v-0.4h1v-9.2h-1v-0.4h1.4V25.3z"/>
	</g>
	<g>
		<path class="st0" d="M287.3,74.9v-0.6h2.6v0.6H287.3z"/>
		<path class="st0" d="M293.4,76c0,0.4,0,0.5,0.9,0.5h0.3v0.3c-0.3,0-1.2,0-1.6,0s-1.3,0-1.6,0v-0.3h0.3c0.9,0,0.9-0.1,0.9-0.5v-5.2
			c-0.5,0.3-1.1,0.3-1.3,0.3v-0.3c0.3,0,1.2,0,1.8-0.6c0.2,0,0.2,0,0.2,0.3V76z"/>
	</g>
	<g>
		<path class="st0" d="M273.1,74.9v-0.6h2.6v0.6H273.1z"/>
		<path class="st0" d="M279.4,76c0.2,0,0.9,0,0.9-0.1c0.1-0.1,0.2-0.6,0.2-0.9h0.2l-0.3,1.7h-3.7c0-0.2,0-0.3,0.1-0.4l1.9-2.1
			c0.5-0.6,1-1.4,1-2.2c0-0.8-0.4-1.6-1.3-1.6c-0.6,0-1.1,0.4-1.3,1c0,0,0,0,0.1,0c0.3,0,0.5,0.3,0.5,0.5c0,0.4-0.3,0.5-0.5,0.5
			c0,0-0.5,0-0.5-0.6c0-0.9,0.7-1.8,1.9-1.8c1.2,0,2.1,0.8,2.1,1.9c0,1-0.6,1.5-2.2,2.9l-1.1,1H279.4z"/>
	</g>
	<g>
		<path class="st0" d="M376.1,77c-1.1,0-1.8-1-1.8-1.8c0-0.5,0.3-0.5,0.5-0.5c0.3,0,0.5,0.2,0.5,0.5s-0.2,0.5-0.5,0.5
			c-0.1,0-0.1,0-0.2,0c0.2,0.6,0.7,1.1,1.5,1.1c0.5,0,0.8-0.3,1.1-0.6c0.2-0.4,0.2-1,0.2-1.4c0-0.5,0-0.9-0.2-1.3
			c-0.1-0.2-0.3-0.6-0.8-0.6c-0.8,0-1.2,0.5-1.3,0.7c0,0.1-0.1,0.1-0.1,0.1c-0.1,0-0.1-0.1-0.1-0.3v-2.9c0-0.2,0-0.2,0.1-0.2
			c0,0,0,0,0.1,0c0.5,0.2,0.9,0.3,1.3,0.3c0.7,0,1.2-0.2,1.4-0.3c0,0,0.1,0,0.1,0c0.1,0,0.1,0,0.1,0.1c0,0.1-0.7,1-1.9,1
			c-0.3,0-0.6-0.1-0.8-0.1v1.9c0.4-0.3,0.8-0.5,1.3-0.5c1.1,0,1.9,1,1.9,2.2C378.3,76.1,377.3,77,376.1,77z"/>
	</g>
	<g>
		<path class="st0" d="M359.9,75.1v-0.3l3.1-4.7c0.1-0.1,0.1-0.1,0.2-0.1c0.2,0,0.2,0.1,0.2,0.3v4.5h1v0.3h-1V76
			c0,0.4,0,0.5,0.8,0.5h0.2v0.3c-0.4,0-0.9,0-1.4,0c-0.4,0-0.9,0-1.3,0v-0.3h0.2c0.7,0,0.8-0.1,0.8-0.5v-0.9H359.9z M362.6,71.1
			l-2.4,3.7h2.4V71.1z"/>
		<path class="st0" d="M390.5,72.5c1.1,0,2,1,2,2.2c0,1.3-0.9,2.3-2.1,2.3c-0.9,0-2.1-0.7-2.1-3.4c0-2.2,1.3-3.5,2.6-3.5
			c0.8,0,1.3,0.5,1.3,1.1c0,0.4-0.3,0.5-0.5,0.5c-0.2,0-0.5-0.1-0.5-0.5c0-0.4,0.4-0.4,0.5-0.4c-0.2-0.3-0.6-0.4-0.9-0.4
			c-0.5,0-1.7,0.4-1.7,2.9v0.2C389.5,73,389.8,72.5,390.5,72.5z M391.4,76.1c0.2-0.4,0.2-0.9,0.2-1.3c0-0.5,0-1-0.2-1.4
			c-0.3-0.6-0.8-0.6-0.9-0.6c-0.9,0-1.2,1-1.2,1.8c0,0.2,0,1,0.2,1.4c0.1,0.1,0.4,0.7,1,0.7C390.7,76.7,391.1,76.7,391.4,76.1z"/>
	</g>
	<g>
		<path class="st0" d="M405.6,72.6c-0.4,0.6-0.6,1.5-0.6,1.7c-0.1,0.5-0.1,1.1-0.1,1.6v0.5c0,0.1,0,0.5-0.5,0.5s-0.5-0.4-0.5-0.5
			c0-1,0.3-2.4,1.2-3.7c0.2-0.3,1-1.4,1.1-1.6h-2.1c-0.1,0-0.9,0-1,0.1c-0.1,0.1-0.2,0.7-0.3,0.9h-0.2l0.3-2.1h0.2
			c0,0.2,0.1,0.3,1.3,0.3h2.4c0,0.2,0,0.2-0.1,0.3L405.6,72.6z"/>
	</g>
	<g>
		<path class="st0" d="M258.9,74.9v-0.6h2.6v0.6H258.9z"/>
		<path class="st0" d="M266.7,75.1c0,1-0.9,1.9-2.1,1.9c-1.1,0-2-0.7-2-1.6c0-0.4,0.3-0.6,0.6-0.6c0.3,0,0.6,0.2,0.6,0.6
			c0,0.4-0.3,0.6-0.7,0.5c0.3,0.6,1.1,0.8,1.5,0.8c0.4,0,1.1-0.3,1.1-1.6c0-1-0.4-1.7-1.2-1.7h-0.4c-0.2,0-0.2,0-0.2-0.1
			c0-0.1,0.1-0.1,0.1-0.1c0.1,0,0.3,0,0.4,0c0.2,0,0.6,0,0.9-0.5c0.3-0.4,0.3-1,0.3-1.1c0-0.9-0.5-1.1-1-1.1c-0.4,0-1,0.1-1.3,0.6
			c0.1,0,0.6,0,0.6,0.5c0,0.3-0.2,0.5-0.5,0.5c-0.3,0-0.5-0.2-0.5-0.5c0-0.8,0.8-1.4,1.8-1.4c1,0,1.8,0.6,1.8,1.4
			c0,0.8-0.6,1.5-1.4,1.8C266.1,73.5,266.7,74.3,266.7,75.1z"/>
	</g>
	<g>
		<path class="st0" d="M244.8,74.9v-0.6h2.6v0.6H244.8z"/>
		<path class="st0" d="M248.3,75.1v-0.3l3.1-4.7c0.1-0.1,0.1-0.1,0.2-0.1c0.2,0,0.2,0.1,0.2,0.3v4.5h1v0.3h-1V76
			c0,0.4,0,0.5,0.8,0.5h0.2v0.3c-0.4,0-0.9,0-1.4,0c-0.4,0-0.9,0-1.3,0v-0.3h0.2c0.7,0,0.8-0.1,0.8-0.5v-0.9H248.3z M251,71.1
			l-2.4,3.7h2.4V71.1z"/>
	</g>
	<line class="st2" x1="0.7" y1="52.3" x2="14.9" y2="52.3"/>
	<line class="st3" x1="149.5" y1="52.3" x2="170.8" y2="52.3"/>
	<g>
		<path class="st0" d="M34.6,120.8c0,1.1-0.8,2.1-2,2.1c-0.9,0-1.5-0.4-1.8-0.7c-0.3,0.5-0.4,0.6-0.4,0.6c-0.1,0.1-0.1,0.1-0.1,0.1
			c-0.1,0-0.1-0.1-0.1-0.2v-2c0-0.2,0-0.2,0.1-0.2c0,0,0.1,0,0.1,0.1c0,0.4,0,1,0.6,1.5c0.5,0.5,1.3,0.5,1.6,0.5
			c0.8,0,1.3-0.7,1.3-1.4c0-0.3-0.1-0.7-0.3-0.9c-0.3-0.4-0.6-0.4-0.8-0.5c-0.7-0.2-1.2-0.3-1.3-0.3c-0.8-0.3-1.3-1-1.3-1.8
			c0-1.1,0.8-1.9,1.9-1.9c0.9,0,1.3,0.4,1.6,0.7l0.3-0.6c0.1-0.1,0.1-0.1,0.1-0.1c0.1,0,0.1,0.1,0.1,0.2v2c0,0.2,0,0.2-0.1,0.2
			c-0.1,0-0.1-0.1-0.1-0.1c-0.1-0.4-0.3-2.1-1.9-2.1c-0.8,0-1.3,0.6-1.3,1.3c0,0.6,0.4,1.1,1,1.3l1.3,0.3
			C34,119,34.6,119.8,34.6,120.8z"/>
		<path class="st0" d="M36.2,116.7c0-0.5-0.1-0.6-0.8-0.6v-0.3l1.4-0.1v3.5c0.2-0.4,0.6-1,1.4-1c0.6,0,0.9,0.2,1,0.4
			c0.3,0.4,0.3,0.7,0.3,1.5v1.9c0,0.3,0.3,0.3,0.8,0.3v0.3c-0.3,0-0.9,0-1.1,0c-0.3,0-0.8,0-1.1,0v-0.3c0.7,0,0.8,0,0.8-0.4v-2.3
			c0-0.6-0.1-1.1-0.7-1.1c-0.6,0-1.3,0.6-1.3,1.6v1.8c0,0.4,0.1,0.4,0.8,0.4v0.3c-0.3,0-0.9,0-1.1,0c-0.3,0-0.8,0-1.1,0v-0.3
			c0.7,0,0.8,0,0.8-0.4V116.7z"/>
		<path class="st0" d="M42.4,121.9c0,0.4,0,0.4,0.7,0.4v0.3c-0.3,0-0.7,0-1,0c-0.2,0-0.8,0-1.1,0v-0.3c0.7,0,0.8,0,0.8-0.4v-2.7
			c0-0.5-0.1-0.5-0.7-0.5v-0.3l1.4-0.1V121.9z M41.9,117c-0.3,0-0.5-0.3-0.5-0.5c0-0.3,0.2-0.5,0.5-0.5c0.3,0,0.5,0.2,0.5,0.5
			C42.5,116.8,42.2,117,41.9,117z"/>
		<path class="st0" d="M46.3,118.3v0.3h-1.1v3.2c0,0.4,0,0.5,0.8,0.5h0.2v0.3c-0.4,0-0.9,0-1.3,0c-0.3,0-0.7,0-1.1,0v-0.3
			c0.7,0,0.8,0,0.8-0.4v-3.2h-0.8v-0.3h0.8v-1.1c0-1.1,0.8-1.6,1.5-1.6c0.5,0,0.9,0.3,0.9,0.7c0,0.2-0.1,0.4-0.4,0.4
			c-0.3,0-0.4-0.2-0.4-0.4c0-0.2,0.2-0.4,0.3-0.4c-0.1-0.1-0.3-0.1-0.3-0.1c-0.4,0-0.9,0.5-0.9,1.4v1.2H46.3z"/>
		<path class="st0" d="M48.1,121.4c0,0.2,0,1.1,0.7,1.1c0.4,0,0.7-0.4,0.7-1.1v-0.5h0.2v0.6c0,0.6-0.3,1.3-1,1.3
			c-0.4,0-1.3-0.1-1.3-1.3v-2.8h-0.8v-0.2c1,0,1.3-1.1,1.3-1.9h0.2v1.8h1.4v0.3h-1.4V121.4z"/>
	</g>
	<g>
		<path class="st0" d="M55.2,119.7c0.1-0.5,0.2-0.6,0.2-0.8c0-0.3-0.1-0.5-0.3-0.5c-0.4,0-0.6,0.5-0.7,1.2c-0.1,0.2-0.1,0.2-0.2,0.2
			c0,0-0.1,0-0.1-0.1c0,0,0.1-0.6,0.3-1c0.1-0.2,0.3-0.6,0.7-0.6c0.5,0,0.9,0.3,0.9,0.9c0.2-0.2,0.7-0.9,1.6-0.9
			c0.7,0,1.1,0.4,1.1,1.1c0,0.6-0.4,1.7-0.6,2.2c-0.1,0.2-0.2,0.5-0.2,0.7c0,0.2,0.1,0.3,0.2,0.3c0.5,0,0.8-0.6,1-1.2
			c0-0.1,0-0.2,0.1-0.2c0,0,0.1,0,0.1,0.1c0,0.1-0.4,1.5-1.3,1.5c-0.5,0-0.8-0.3-0.8-0.8c0-0.1,0-0.2,0.1-0.5
			c0.2-0.4,0.6-1.7,0.6-2.3c0-0.3-0.1-0.7-0.5-0.7c-0.9,0-1.5,0.9-1.6,1.2c0,0-0.1,0.3-0.1,0.5c0,0.2-0.1,0.4-0.2,0.7l-0.2,0.9
			c-0.1,0.2-0.2,0.7-0.2,0.7c-0.1,0.2-0.2,0.3-0.4,0.3c-0.1,0-0.3-0.1-0.3-0.3c0,0,0.1-0.3,0.1-0.4L55.2,119.7z"/>
	</g>
	<g>
		<path class="st0" d="M63.9,120.3c-0.2,0-0.4,0-0.4-0.2s0.2-0.2,0.4-0.2h7.4c-0.4-0.3-0.7-0.7-0.9-1c-0.4-0.7-0.5-1.3-0.5-1.3
			c0-0.1,0.1-0.1,0.2-0.1c0.2,0,0.2,0,0.2,0.1c0.4,1.7,1.6,2.2,2,2.3c0,0,0.1,0,0.1,0.1c0,0.1,0,0.1-0.1,0.1
			c-1.1,0.5-1.7,1.3-1.9,2.3c0,0.2,0,0.2-0.2,0.2c-0.1,0-0.2,0-0.2-0.1c0,0,0.1-0.6,0.5-1.3c0.1-0.1,0.3-0.5,0.9-1H63.9z"/>
	</g>
	<g>
		<path class="st0" d="M77.8,119.7c0.1-0.5,0.2-0.6,0.2-0.8c0-0.3-0.1-0.5-0.3-0.5c-0.4,0-0.6,0.5-0.7,1.2c-0.1,0.2-0.1,0.2-0.2,0.2
			c0,0-0.1,0-0.1-0.1c0,0,0.1-0.6,0.3-1c0.1-0.2,0.3-0.6,0.7-0.6c0.5,0,0.9,0.3,0.9,0.9c0.2-0.2,0.7-0.9,1.6-0.9
			c0.7,0,1.1,0.4,1.1,1.1c0,0.6-0.4,1.7-0.6,2.2c-0.1,0.2-0.2,0.5-0.2,0.7c0,0.2,0.1,0.3,0.2,0.3c0.5,0,0.8-0.6,1-1.2
			c0-0.1,0-0.2,0.1-0.2c0,0,0.1,0,0.1,0.1c0,0.1-0.4,1.5-1.3,1.5c-0.5,0-0.8-0.3-0.8-0.8c0-0.1,0-0.2,0.1-0.5
			c0.2-0.4,0.6-1.7,0.6-2.3c0-0.3-0.1-0.7-0.5-0.7c-0.9,0-1.5,0.9-1.6,1.2c0,0-0.1,0.3-0.1,0.5c0,0.2-0.1,0.4-0.2,0.7l-0.2,0.9
			c-0.1,0.2-0.2,0.7-0.2,0.7c-0.1,0.2-0.2,0.3-0.4,0.3c-0.1,0-0.3-0.1-0.3-0.3c0,0,0.1-0.3,0.1-0.4L77.8,119.7z"/>
	</g>
	<g>
		<path class="st0" d="M85.7,120.3c-0.2,0-0.3,0-0.3-0.2s0.2-0.2,0.3-0.2H91c0.2,0,0.3,0,0.3,0.2s-0.2,0.2-0.3,0.2H85.7z"/>
	</g>
	<g>
		<path class="st0" d="M97.4,121.8c0,0.4,0,0.5,0.9,0.5h0.3v0.3c-0.3,0-1.2,0-1.6,0c-0.4,0-1.3,0-1.6,0v-0.3h0.3
			c0.9,0,0.9-0.1,0.9-0.5v-5.2c-0.5,0.3-1.1,0.3-1.3,0.3v-0.3c0.3,0,1.2,0,1.8-0.6c0.2,0,0.2,0,0.2,0.3V121.8z"/>
	</g>
	<g>
		<path class="st0" d="M65.6,110.8c0.3-0.3,0.5-0.4,0.7-0.6c0.3-0.2,0.7-0.4,0.8-0.4c0.1,0,0.1,0.1,0.1,0.2c0,0.1,0,0.2-0.1,0.2
			c-1.4,0.7-2.2,1.8-2.5,3.1c0,0,0,0.1-0.1,0.1c0,0-0.1,0-0.1-0.1c-0.3-1.1-1-2.3-2.5-3.1c-0.1-0.1-0.1-0.1-0.1-0.2
			c0-0.1,0-0.2,0.1-0.2c0.1,0,0.4,0.2,0.8,0.4c0.2,0.1,0.3,0.2,0.7,0.6v-5.9c0-0.2,0-0.4,0.2-0.4c0.2,0,0.2,0.2,0.2,0.4v6.3
			c0.4,0.4,0.6,1,0.8,1.3c0.1-0.2,0.4-0.8,0.8-1.3v-6.3c0-0.2,0-0.4,0.2-0.4s0.2,0.2,0.2,0.4V110.8z"/>
	</g>
	<g>
		<path class="st0" d="M65.6,132c0.3-0.3,0.5-0.4,0.7-0.6c0.3-0.2,0.7-0.4,0.8-0.4c0.1,0,0.1,0.1,0.1,0.2c0,0.1,0,0.2-0.1,0.2
			c-1.4,0.7-2.2,1.8-2.5,3.1c0,0,0,0.1-0.1,0.1c0,0-0.1,0-0.1-0.1c-0.3-1.1-1-2.3-2.5-3.1c-0.1-0.1-0.1-0.1-0.1-0.2
			c0-0.1,0-0.2,0.1-0.2c0.1,0,0.4,0.2,0.8,0.4c0.2,0.1,0.3,0.2,0.7,0.6v-5.9c0-0.2,0-0.4,0.2-0.4c0.2,0,0.2,0.2,0.2,0.4v6.3
			c0.4,0.4,0.6,1,0.8,1.3c0.1-0.2,0.4-0.8,0.8-1.3v-6.3c0-0.2,0-0.4,0.2-0.4s0.2,0.2,0.2,0.4V132z"/>
	</g>
	<g>
		<path class="st0" d="M275.6,120.8c0,1.1-0.8,2.1-2,2.1c-0.9,0-1.5-0.4-1.8-0.7c-0.3,0.5-0.4,0.6-0.4,0.6c-0.1,0.1-0.1,0.1-0.1,0.1
			c-0.1,0-0.1-0.1-0.1-0.2v-2c0-0.2,0-0.2,0.1-0.2c0,0,0.1,0,0.1,0.1c0,0.4,0,1,0.6,1.5c0.5,0.5,1.3,0.5,1.6,0.5
			c0.8,0,1.3-0.7,1.3-1.4c0-0.3-0.1-0.7-0.3-0.9c-0.3-0.4-0.6-0.4-0.8-0.5c-0.7-0.2-1.2-0.3-1.3-0.3c-0.8-0.3-1.3-1-1.3-1.8
			c0-1.1,0.8-1.9,1.9-1.9c0.9,0,1.3,0.4,1.6,0.7l0.3-0.6c0.1-0.1,0.1-0.1,0.1-0.1c0.1,0,0.1,0.1,0.1,0.2v2c0,0.2,0,0.2-0.1,0.2
			c-0.1,0-0.1-0.1-0.1-0.1c-0.1-0.4-0.3-2.1-1.9-2.1c-0.8,0-1.3,0.6-1.3,1.3c0,0.6,0.4,1.1,1,1.3l1.3,0.3
			C274.9,119,275.6,119.8,275.6,120.8z"/>
		<path class="st0" d="M277.2,116.7c0-0.5-0.1-0.6-0.8-0.6v-0.3l1.4-0.1v3.5c0.2-0.4,0.6-1,1.4-1c0.6,0,0.9,0.2,1,0.4
			c0.3,0.4,0.3,0.7,0.3,1.5v1.9c0,0.3,0.3,0.3,0.8,0.3v0.3c-0.3,0-0.9,0-1.1,0c-0.3,0-0.8,0-1.1,0v-0.3c0.7,0,0.8,0,0.8-0.4v-2.3
			c0-0.6-0.1-1.1-0.7-1.1c-0.6,0-1.3,0.6-1.3,1.6v1.8c0,0.4,0.1,0.4,0.8,0.4v0.3c-0.3,0-0.9,0-1.1,0c-0.3,0-0.8,0-1.1,0v-0.3
			c0.7,0,0.8,0,0.8-0.4V116.7z"/>
		<path class="st0" d="M283.4,121.9c0,0.4,0,0.4,0.7,0.4v0.3c-0.3,0-0.7,0-1,0c-0.2,0-0.8,0-1.1,0v-0.3c0.7,0,0.8,0,0.8-0.4v-2.7
			c0-0.5-0.1-0.5-0.7-0.5v-0.3l1.4-0.1V121.9z M282.9,117c-0.3,0-0.5-0.3-0.5-0.5c0-0.3,0.2-0.5,0.5-0.5c0.3,0,0.5,0.2,0.5,0.5
			C283.4,116.8,283.2,117,282.9,117z"/>
		<path class="st0" d="M287.3,118.3v0.3h-1.1v3.2c0,0.4,0,0.5,0.8,0.5h0.2v0.3c-0.4,0-0.9,0-1.3,0c-0.3,0-0.7,0-1.1,0v-0.3
			c0.7,0,0.8,0,0.8-0.4v-3.2h-0.8v-0.3h0.8v-1.1c0-1.1,0.8-1.6,1.5-1.6c0.5,0,0.9,0.3,0.9,0.7c0,0.2-0.2,0.4-0.4,0.4
			c-0.3,0-0.4-0.2-0.4-0.4c0-0.2,0.2-0.4,0.3-0.4c-0.1-0.1-0.3-0.1-0.3-0.1c-0.4,0-0.9,0.5-0.9,1.4v1.2H287.3z"/>
		<path class="st0" d="M289.1,121.4c0,0.2,0,1.1,0.7,1.1c0.4,0,0.7-0.4,0.7-1.1v-0.5h0.2v0.6c0,0.6-0.3,1.3-1,1.3
			c-0.4,0-1.3-0.1-1.3-1.3v-2.8h-0.8v-0.2c1,0,1.3-1.1,1.3-1.9h0.2v1.8h1.4v0.3h-1.4V121.4z"/>
	</g>
	<g>
		<path class="st0" d="M296,119.7c0.1-0.5,0.2-0.6,0.2-0.8c0-0.3-0.1-0.5-0.3-0.5c-0.4,0-0.6,0.5-0.7,1.2c-0.1,0.2-0.1,0.2-0.2,0.2
			c0,0-0.1,0-0.1-0.1c0,0,0.1-0.6,0.3-1c0.1-0.2,0.3-0.6,0.7-0.6c0.5,0,0.9,0.3,0.9,0.9c0.2-0.2,0.7-0.9,1.6-0.9
			c0.7,0,1.1,0.4,1.1,1.1c0,0.6-0.4,1.7-0.6,2.2c-0.1,0.2-0.2,0.5-0.2,0.7c0,0.2,0.1,0.3,0.2,0.3c0.5,0,0.8-0.6,1-1.2
			c0.1-0.1,0.1-0.2,0.2-0.2c0,0,0.1,0,0.1,0.1c0,0.1-0.4,1.5-1.3,1.5c-0.5,0-0.8-0.3-0.8-0.8c0-0.1,0-0.2,0.1-0.5
			c0.2-0.4,0.6-1.7,0.6-2.3c0-0.3-0.1-0.7-0.5-0.7c-0.9,0-1.5,0.9-1.6,1.2c0,0-0.1,0.3-0.1,0.5c0,0.2-0.1,0.4-0.2,0.7l-0.2,0.9
			c-0.1,0.2-0.2,0.7-0.2,0.7c-0.1,0.2-0.2,0.3-0.4,0.3c-0.1,0-0.3-0.1-0.3-0.3c0,0,0.1-0.3,0.1-0.4L296,119.7z"/>
	</g>
	<g>
		<path class="st0" d="M304.9,120.3c-0.2,0-0.4,0-0.4-0.2s0.2-0.2,0.4-0.2h7.4c-0.4-0.3-0.7-0.7-0.9-1c-0.4-0.7-0.5-1.3-0.5-1.3
			c0-0.1,0.1-0.1,0.2-0.1c0.2,0,0.2,0,0.2,0.1c0.4,1.7,1.6,2.2,2,2.3c0,0,0.1,0,0.1,0.1c0,0.1,0,0.1-0.2,0.1
			c-1.1,0.5-1.7,1.3-1.9,2.3c0,0.2,0,0.2-0.2,0.2c-0.1,0-0.2,0-0.2-0.1c0,0,0.1-0.6,0.5-1.3c0.1-0.1,0.3-0.5,0.9-1H304.9z"/>
	</g>
	<g>
		<path class="st0" d="M318.7,119.7c0.1-0.5,0.2-0.6,0.2-0.8c0-0.3-0.1-0.5-0.3-0.5c-0.4,0-0.6,0.5-0.7,1.2
			c-0.1,0.2-0.1,0.2-0.2,0.2c0,0-0.1,0-0.1-0.1c0,0,0.1-0.6,0.3-1c0.1-0.2,0.3-0.6,0.7-0.6c0.5,0,0.9,0.3,0.9,0.9
			c0.2-0.2,0.7-0.9,1.6-0.9c0.7,0,1.1,0.4,1.1,1.1c0,0.6-0.4,1.7-0.6,2.2c-0.1,0.2-0.2,0.5-0.2,0.7c0,0.2,0.1,0.3,0.2,0.3
			c0.5,0,0.8-0.6,1-1.2c0.1-0.1,0.1-0.2,0.2-0.2c0,0,0.1,0,0.1,0.1c0,0.1-0.4,1.5-1.3,1.5c-0.5,0-0.8-0.3-0.8-0.8
			c0-0.1,0-0.2,0.1-0.5c0.2-0.4,0.6-1.7,0.6-2.3c0-0.3-0.1-0.7-0.5-0.7c-0.9,0-1.5,0.9-1.6,1.2c0,0-0.1,0.3-0.1,0.5
			c0,0.2-0.1,0.4-0.2,0.7l-0.2,0.9c-0.1,0.2-0.2,0.7-0.2,0.7c-0.1,0.2-0.2,0.3-0.4,0.3c-0.1,0-0.3-0.1-0.3-0.3c0,0,0.1-0.3,0.1-0.4
			L318.7,119.7z"/>
	</g>
	<g>
		<path class="st0" d="M326.6,120.3c-0.2,0-0.3,0-0.3-0.2s0.2-0.2,0.3-0.2h5.4c0.2,0,0.3,0,0.3,0.2s-0.2,0.2-0.3,0.2H326.6z"/>
	</g>
	<g>
		<path class="st0" d="M338.3,121.8c0,0.4,0,0.5,0.9,0.5h0.3v0.3c-0.3,0-1.2,0-1.6,0s-1.3,0-1.6,0v-0.3h0.3c0.9,0,0.9-0.1,0.9-0.5
			v-5.2c-0.5,0.3-1.1,0.3-1.3,0.3v-0.3c0.3,0,1.2,0,1.8-0.6c0.2,0,0.2,0,0.2,0.3V121.8z"/>
	</g>
	<g>
		<path class="st0" d="M306.6,110.8c0.3-0.3,0.5-0.4,0.7-0.6c0.3-0.2,0.7-0.4,0.8-0.4c0.1,0,0.1,0.1,0.1,0.2c0,0.1,0,0.2-0.1,0.2
			c-1.4,0.7-2.2,1.8-2.5,3.1c0,0,0,0.1-0.1,0.1c0,0-0.1,0-0.1-0.1c-0.3-1.1-1-2.3-2.5-3.1c-0.1-0.1-0.1-0.1-0.1-0.2
			c0-0.1,0-0.2,0.1-0.2c0.1,0,0.4,0.2,0.8,0.4c0.2,0.1,0.3,0.2,0.7,0.6v-5.9c0-0.2,0-0.4,0.2-0.4s0.2,0.2,0.2,0.4v6.3
			c0.4,0.4,0.6,1,0.8,1.3c0.1-0.2,0.4-0.8,0.8-1.3v-6.3c0-0.2,0-0.4,0.2-0.4s0.2,0.2,0.2,0.4V110.8z"/>
	</g>
	<g>
		<path class="st0" d="M306.6,132c0.3-0.3,0.5-0.4,0.7-0.6c0.3-0.2,0.7-0.4,0.8-0.4c0.1,0,0.1,0.1,0.1,0.2c0,0.1,0,0.2-0.1,0.2
			c-1.4,0.7-2.2,1.8-2.5,3.1c0,0,0,0.1-0.1,0.1c0,0-0.1,0-0.1-0.1c-0.3-1.1-1-2.3-2.5-3.1c-0.1-0.1-0.1-0.1-0.1-0.2
			c0-0.1,0-0.2,0.1-0.2c0.1,0,0.4,0.2,0.8,0.4c0.2,0.1,0.3,0.2,0.7,0.6v-5.9c0-0.2,0-0.4,0.2-0.4s0.2,0.2,0.2,0.4v6.3
			c0.4,0.4,0.6,1,0.8,1.3c0.1-0.2,0.4-0.8,0.8-1.3v-6.3c0-0.2,0-0.4,0.2-0.4s0.2,0.2,0.2,0.4V132z"/>
	</g>
	<polyline points="166.3,196.3 170.8,194 166.3,191.7 167.4,194 	"/>
	<line class="st1" x1="0.7" y1="194" x2="167.4" y2="194"/>
	<polyline points="66.8,152.5 64.5,147.9 62.2,152.5 64.5,151.4 	"/>
	<line class="st1" x1="64.5" y1="197.6" x2="64.5" y2="151.4"/>
	<g>
		<path class="st0" d="M176.4,193.3c0.1-0.5,0.2-0.6,0.2-0.8c0-0.3-0.1-0.5-0.3-0.5c-0.4,0-0.6,0.5-0.7,1.2
			c-0.1,0.2-0.1,0.2-0.2,0.2c0,0-0.1,0-0.1-0.1c0,0,0.1-0.6,0.3-1c0.1-0.2,0.3-0.6,0.7-0.6c0.5,0,0.9,0.3,0.9,0.9
			c0.2-0.2,0.7-0.9,1.6-0.9c0.7,0,1.1,0.4,1.1,1.1c0,0.6-0.4,1.7-0.6,2.2c-0.1,0.2-0.2,0.5-0.2,0.7c0,0.2,0.1,0.3,0.2,0.3
			c0.5,0,0.8-0.6,1-1.2c0-0.1,0-0.2,0.1-0.2c0,0,0.1,0,0.1,0.1c0,0.1-0.4,1.5-1.3,1.5c-0.5,0-0.8-0.3-0.8-0.8c0-0.1,0-0.2,0.1-0.5
			c0.2-0.4,0.6-1.7,0.6-2.3c0-0.3-0.1-0.7-0.5-0.7c-0.9,0-1.5,0.9-1.6,1.2c0,0-0.1,0.3-0.1,0.5c0,0.2-0.1,0.4-0.2,0.7l-0.2,0.9
			c-0.1,0.2-0.2,0.7-0.2,0.7c-0.1,0.2-0.2,0.3-0.4,0.3c-0.1,0-0.3-0.1-0.3-0.3c0,0,0.1-0.3,0.1-0.4L176.4,193.3z"/>
	</g>
	<g>
		<path class="st0" d="M66.3,203.4c-0.4,0.9-1.2,1.2-1.7,1.2c-0.5,0-1.2-0.2-1.6-1c-0.4-0.8-0.4-1.7-0.4-2.4c0-0.8,0-1.6,0.4-2.3
			c0.4-0.9,1.1-1.2,1.7-1.2c0.4,0,1.2,0.2,1.7,1.1c0.3,0.7,0.4,1.5,0.4,2.3C66.6,201.9,66.6,202.7,66.3,203.4z M65.7,203.1
			c0.1-0.6,0.1-1.3,0.1-2.1c0-0.6,0-1.4-0.1-1.9c-0.2-1-0.8-1.2-1.2-1.2c-0.2,0-1,0.1-1.2,1.3c-0.1,0.5-0.1,1.2-0.1,1.8
			c0,0.6,0,1.5,0.1,2.1c0.2,1,0.8,1.2,1.2,1.2C65,204.3,65.5,204,65.7,203.1z"/>
		<path class="st0" d="M79.1,203.6c0,0.4,0,0.5,0.9,0.5h0.3v0.3c-0.3,0-1.2,0-1.6,0c-0.4,0-1.3,0-1.6,0V204h0.3
			c0.9,0,0.9-0.1,0.9-0.5v-5.2c-0.5,0.3-1.1,0.3-1.3,0.3v-0.3c0.3,0,1.2,0,1.8-0.6c0.2,0,0.2,0,0.2,0.3V203.6z"/>
		<path class="st0" d="M93.4,203.6c0.2,0,0.9,0,0.9-0.1c0.1-0.1,0.2-0.6,0.2-0.9h0.2l-0.3,1.7h-3.7c0-0.2,0-0.3,0.1-0.4l1.9-2.1
			c0.5-0.6,1-1.4,1-2.2c0-0.8-0.4-1.6-1.3-1.6c-0.6,0-1.1,0.4-1.3,1c0,0,0,0,0.1,0c0.3,0,0.5,0.3,0.5,0.5c0,0.4-0.3,0.5-0.5,0.5
			c0,0-0.5,0-0.5-0.6c0-0.9,0.7-1.8,1.9-1.8c1.2,0,2.1,0.8,2.1,1.9c0,1-0.6,1.5-2.2,2.9l-1.1,1H93.4z"/>
		<path class="st0" d="M109.1,202.6c0,1-0.9,1.9-2.1,1.9c-1.1,0-2-0.7-2-1.6c0-0.4,0.3-0.6,0.6-0.6c0.3,0,0.6,0.2,0.6,0.6
			c0,0.4-0.3,0.6-0.7,0.5c0.3,0.6,1.1,0.8,1.5,0.8c0.4,0,1.1-0.3,1.1-1.6c0-1-0.4-1.7-1.2-1.7h-0.4c-0.2,0-0.2,0-0.2-0.1
			c0-0.1,0.1-0.1,0.1-0.1c0.1,0,0.3,0,0.4,0c0.2,0,0.6,0,0.9-0.5c0.3-0.4,0.3-1,0.3-1.1c0-0.9-0.5-1.1-1-1.1c-0.4,0-1,0.1-1.3,0.6
			c0.1,0,0.6,0,0.6,0.5c0,0.3-0.2,0.5-0.5,0.5c-0.3,0-0.5-0.2-0.5-0.5c0-0.8,0.8-1.4,1.8-1.4c1,0,1.8,0.6,1.8,1.4
			c0,0.8-0.6,1.5-1.4,1.8C108.4,201,109.1,201.8,109.1,202.6z"/>
	</g>
	<g>
		<path class="st0" d="M74.6,152.4c-0.1,0.4-0.2,0.7-0.2,0.9c0,0.3,0.2,0.7,0.5,0.7c0.3,0,1-0.2,1.3-1.3c0-0.1,0-0.1,0.1-0.1
			c0,0,0.1,0,0.1,0.1c0,0.2-0.6,1.5-1.6,1.5c-0.6,0-1-0.4-1.1-0.8c0,0.1-0.4,0.8-1,0.8c-0.4,0-0.9-0.2-0.9-0.7
			c0-0.3,0.2-0.6,0.5-0.6c0.1,0,0.4,0.1,0.4,0.3c0,0.3-0.2,0.5-0.5,0.5c0.2,0.1,0.4,0.1,0.5,0.1c0.4,0,0.8-0.4,0.9-1
			c0.4-1.4,0.5-2.1,0.5-2.4c0-0.6-0.3-0.7-0.5-0.7c-0.3,0-1,0.2-1.3,1.3c0,0.1-0.1,0.1-0.1,0.1c0,0-0.1,0-0.1-0.1
			c0-0.3,0.6-1.5,1.6-1.5c0.3,0,0.8,0.1,1.1,0.8c0.1-0.2,0.5-0.8,1-0.8c0.3,0,0.9,0.1,0.9,0.7c0,0.4-0.3,0.6-0.5,0.6
			c-0.3,0-0.4-0.2-0.4-0.3c0-0.2,0.2-0.5,0.5-0.5c-0.2-0.1-0.4-0.1-0.5-0.1c-0.7,0-0.9,0.9-1,1.2L74.6,152.4z"/>
	</g>
	<g>
		<path class="st0" d="M78.5,156.6v-10h1.4v0.4h-1v9.2h1v0.4H78.5z"/>
	</g>
	<g>
		<path class="st0" d="M81.5,151.2c0.1-0.5,0.2-0.6,0.2-0.8c0-0.3-0.1-0.5-0.3-0.5c-0.4,0-0.6,0.5-0.7,1.2c-0.1,0.2-0.1,0.2-0.2,0.2
			c0,0-0.1,0-0.1-0.1c0,0,0.1-0.6,0.3-1c0.1-0.2,0.3-0.6,0.7-0.6c0.5,0,0.9,0.3,0.9,0.9c0.2-0.2,0.7-0.9,1.6-0.9
			c0.7,0,1.1,0.4,1.1,1.1c0,0.6-0.4,1.7-0.6,2.2c-0.1,0.2-0.2,0.5-0.2,0.7c0,0.2,0.1,0.3,0.2,0.3c0.5,0,0.8-0.6,1-1.2
			c0-0.1,0-0.2,0.1-0.2c0,0,0.1,0,0.1,0.1c0,0.1-0.4,1.5-1.3,1.5c-0.5,0-0.8-0.3-0.8-0.8c0-0.1,0-0.2,0.1-0.5
			c0.2-0.4,0.6-1.7,0.6-2.3c0-0.3-0.1-0.7-0.5-0.7c-0.9,0-1.5,0.9-1.6,1.2c0,0-0.1,0.3-0.1,0.5c0,0.2-0.1,0.4-0.2,0.7l-0.2,0.9
			c-0.1,0.2-0.2,0.7-0.2,0.7c-0.1,0.2-0.2,0.3-0.4,0.3c-0.1,0-0.3-0.1-0.3-0.3c0,0,0.1-0.3,0.1-0.4L81.5,151.2z"/>
	</g>
	<g>
		<path class="st0" d="M89.5,151.8c-0.2,0-0.3,0-0.3-0.2s0.2-0.2,0.3-0.2h5.4c0.2,0,0.3,0,0.3,0.2s-0.2,0.2-0.3,0.2H89.5z"/>
	</g>
	<g>
		<path class="st0" d="M101.2,153.3c0,0.4,0,0.5,0.9,0.5h0.3v0.3c-0.3,0-1.2,0-1.6,0c-0.4,0-1.3,0-1.6,0v-0.3h0.3
			c0.9,0,0.9-0.1,0.9-0.5v-5.2c-0.5,0.3-1.1,0.3-1.3,0.3v-0.3c0.3,0,1.2,0,1.8-0.6c0.2,0,0.2,0,0.2,0.3V153.3z"/>
		<path class="st0" d="M104.9,156.6h-1.4v-0.4h1V147h-1v-0.4h1.4V156.6z"/>
	</g>
	<g>
		<path class="st0" d="M135.3,204.6c-1.1,0-1.8-1-1.8-1.8c0-0.5,0.3-0.5,0.5-0.5c0.3,0,0.5,0.2,0.5,0.5c0,0.2-0.2,0.5-0.5,0.5
			c-0.1,0-0.1,0-0.2,0c0.2,0.6,0.7,1.1,1.5,1.1c0.5,0,0.8-0.3,1.1-0.6c0.2-0.4,0.2-1,0.2-1.4c0-0.5,0-0.9-0.2-1.3
			c-0.1-0.2-0.3-0.6-0.8-0.6c-0.8,0-1.2,0.5-1.3,0.7c0,0.1-0.1,0.1-0.1,0.1c-0.1,0-0.1-0.1-0.1-0.3V198c0-0.2,0-0.2,0.1-0.2
			c0,0,0,0,0.1,0c0.5,0.2,0.9,0.3,1.3,0.3c0.7,0,1.2-0.2,1.4-0.3c0,0,0.1,0,0.1,0c0.1,0,0.1,0,0.1,0.1c0,0.1-0.7,1-1.9,1
			c-0.3,0-0.6-0.1-0.8-0.1v1.9c0.4-0.3,0.8-0.5,1.3-0.5c1.1,0,1.9,1,1.9,2.2C137.4,203.6,136.4,204.6,135.3,204.6z"/>
	</g>
	<g>
		<path class="st0" d="M119,202.7v-0.3l3.1-4.7c0.1-0.1,0.1-0.1,0.2-0.1c0.2,0,0.2,0.1,0.2,0.3v4.5h1v0.3h-1v0.9
			c0,0.4,0,0.5,0.8,0.5h0.2v0.3c-0.4,0-0.9,0-1.4,0s-0.9,0-1.3,0V204h0.2c0.7,0,0.8-0.1,0.8-0.5v-0.9H119z M121.7,198.7l-2.4,3.7
			h2.4V198.7z"/>
		<path class="st0" d="M149.7,200.1c1.1,0,2,1,2,2.2c0,1.3-0.9,2.3-2.1,2.3c-0.9,0-2.1-0.7-2.1-3.4c0-2.2,1.3-3.5,2.6-3.5
			c0.8,0,1.3,0.5,1.3,1.1c0,0.4-0.3,0.5-0.5,0.5c-0.2,0-0.5-0.1-0.5-0.5c0-0.4,0.4-0.4,0.5-0.4c-0.2-0.3-0.6-0.4-0.9-0.4
			c-0.5,0-1.7,0.4-1.7,2.9v0.2C148.6,200.6,149,200.1,149.7,200.1z M150.6,203.6c0.2-0.4,0.2-0.9,0.2-1.3c0-0.5,0-1-0.2-1.4
			c-0.3-0.6-0.8-0.6-0.9-0.6c-0.9,0-1.2,1-1.2,1.8c0,0.2,0,1,0.2,1.4c0.1,0.1,0.4,0.7,1,0.7C149.9,204.3,150.3,204.2,150.6,203.6z"
			/>
	</g>
	<g>
		<path class="st0" d="M164.7,200.2c-0.4,0.6-0.6,1.5-0.6,1.7c-0.1,0.5-0.1,1.1-0.1,1.6v0.5c0,0.1,0,0.5-0.5,0.5
			c-0.5,0-0.5-0.4-0.5-0.5c0-1,0.3-2.4,1.2-3.7c0.2-0.3,1-1.4,1.1-1.6h-2.1c-0.1,0-0.9,0-1,0.1c-0.1,0.1-0.2,0.7-0.2,0.9h-0.2
			l0.3-2.1h0.2c0,0.2,0.1,0.3,1.3,0.3h2.4c0,0.2,0,0.2-0.1,0.3L164.7,200.2z"/>
	</g>
	<g>
		<path class="st0" d="M46.3,202.5v-0.6h2.6v0.6H46.3z"/>
		<path class="st0" d="M52.5,203.6c0,0.4,0,0.5,0.9,0.5h0.3v0.3c-0.3,0-1.2,0-1.6,0c-0.4,0-1.3,0-1.6,0V204h0.3
			c0.9,0,0.9-0.1,0.9-0.5v-5.2c-0.5,0.3-1.1,0.3-1.3,0.3v-0.3c0.3,0,1.2,0,1.8-0.6c0.2,0,0.2,0,0.2,0.3V203.6z"/>
	</g>
	<g>
		<path class="st0" d="M32.1,202.5v-0.6h2.6v0.6H32.1z"/>
		<path class="st0" d="M38.5,203.6c0.2,0,0.9,0,0.9-0.1c0.1-0.1,0.2-0.6,0.2-0.9h0.2l-0.3,1.7h-3.7c0-0.2,0-0.3,0.1-0.4l1.9-2.1
			c0.5-0.6,1-1.4,1-2.2c0-0.8-0.4-1.6-1.3-1.6c-0.6,0-1.1,0.4-1.3,1c0,0,0,0,0.1,0c0.3,0,0.5,0.3,0.5,0.5c0,0.4-0.3,0.5-0.5,0.5
			c0,0-0.5,0-0.5-0.6c0-0.9,0.7-1.8,1.9-1.8c1.2,0,2.1,0.8,2.1,1.9c0,1-0.6,1.5-2.2,2.9l-1.1,1H38.5z"/>
	</g>
	<g>
		<path class="st0" d="M18,202.5v-0.6h2.6v0.6H18z"/>
		<path class="st0" d="M25.8,202.6c0,1-0.9,1.9-2.1,1.9c-1.1,0-2-0.7-2-1.6c0-0.4,0.3-0.6,0.6-0.6c0.3,0,0.6,0.2,0.6,0.6
			c0,0.4-0.3,0.6-0.7,0.5c0.3,0.6,1.1,0.8,1.5,0.8c0.4,0,1.1-0.3,1.1-1.6c0-1-0.4-1.7-1.2-1.7h-0.4c-0.2,0-0.2,0-0.2-0.1
			c0-0.1,0.1-0.1,0.1-0.1c0.1,0,0.3,0,0.4,0c0.2,0,0.6,0,0.9-0.5c0.3-0.4,0.3-1,0.3-1.1c0-0.9-0.5-1.1-1-1.1c-0.4,0-1,0.1-1.3,0.6
			c0.1,0,0.6,0,0.6,0.5c0,0.3-0.2,0.5-0.5,0.5c-0.3,0-0.5-0.2-0.5-0.5c0-0.8,0.8-1.4,1.8-1.4c1,0,1.8,0.6,1.8,1.4
			c0,0.8-0.6,1.5-1.4,1.8C25.1,201,25.8,201.8,25.8,202.6z"/>
	</g>
	<g>
		<path class="st0" d="M3.7,202.5v-0.6h2.6v0.6H3.7z"/>
		<path class="st0" d="M7.2,202.7v-0.3l3.1-4.7c0.1-0.1,0.1-0.1,0.2-0.1c0.2,0,0.2,0.1,0.2,0.3v4.5h1v0.3h-1v0.9
			c0,0.4,0,0.5,0.8,0.5h0.2v0.3c-0.4,0-0.9,0-1.4,0s-0.9,0-1.3,0V204h0.2c0.7,0,0.8-0.1,0.8-0.5v-0.9H7.2z M9.9,198.7l-2.4,3.7h2.4
			V198.7z"/>
	</g>
	<g>
		<path class="st0" d="M36.2,167.3c-1.1,0-1.9-0.9-1.9-1.9c0-1,0.9-1.9,1.9-1.9c1,0,1.9,0.9,1.9,1.9S37.3,167.3,36.2,167.3z"/>
	</g>
	<polyline points="410.7,196.3 415.3,194 410.7,191.7 411.9,194 	"/>
	<line class="st1" x1="241.7" y1="194" x2="411.9" y2="194"/>
	<polyline points="307.7,152.5 305.4,147.9 303.2,152.5 305.4,151.4 	"/>
	<line class="st1" x1="305.4" y1="197.6" x2="305.4" y2="151.4"/>
	<g>
		<path class="st0" d="M424.5,193.3c0.1-0.5,0.2-0.6,0.2-0.8c0-0.3-0.1-0.5-0.3-0.5c-0.4,0-0.6,0.5-0.7,1.2
			c-0.1,0.2-0.1,0.2-0.2,0.2c0,0-0.1,0-0.1-0.1c0,0,0.1-0.6,0.3-1c0.1-0.2,0.3-0.6,0.7-0.6c0.5,0,0.9,0.3,0.9,0.9
			c0.2-0.2,0.7-0.9,1.6-0.9c0.7,0,1.1,0.4,1.1,1.1c0,0.6-0.4,1.7-0.6,2.2c-0.1,0.2-0.2,0.5-0.2,0.7c0,0.2,0.1,0.3,0.2,0.3
			c0.5,0,0.8-0.6,1-1.2c0.1-0.1,0.1-0.2,0.2-0.2c0,0,0.1,0,0.1,0.1c0,0.1-0.4,1.5-1.3,1.5c-0.5,0-0.8-0.3-0.8-0.8
			c0-0.1,0-0.2,0.1-0.5c0.2-0.4,0.6-1.7,0.6-2.3c0-0.3-0.1-0.7-0.5-0.7c-0.9,0-1.5,0.9-1.6,1.2c0,0-0.1,0.3-0.1,0.5
			c0,0.2-0.1,0.4-0.2,0.7l-0.2,0.9c-0.1,0.2-0.2,0.7-0.2,0.7c-0.1,0.2-0.2,0.3-0.4,0.3c-0.1,0-0.3-0.1-0.3-0.3c0,0,0.1-0.3,0.1-0.4
			L424.5,193.3z"/>
	</g>
	<g>
		<path class="st0" d="M307.2,203.4c-0.4,0.9-1.2,1.2-1.7,1.2c-0.5,0-1.2-0.2-1.6-1c-0.4-0.8-0.4-1.7-0.4-2.4c0-0.8,0-1.6,0.4-2.3
			c0.4-0.9,1.1-1.2,1.7-1.2c0.4,0,1.2,0.2,1.7,1.1c0.3,0.7,0.4,1.5,0.4,2.3C307.6,201.9,307.5,202.7,307.2,203.4z M306.6,203.1
			c0.1-0.6,0.1-1.3,0.1-2.1c0-0.6,0-1.4-0.1-1.9c-0.2-1-0.8-1.2-1.2-1.2c-0.2,0-1,0.1-1.2,1.3c-0.1,0.5-0.1,1.2-0.1,1.8
			c0,0.6,0,1.5,0.1,2.1c0.2,1,0.8,1.2,1.2,1.2C305.9,204.3,306.5,204,306.6,203.1z"/>
		<path class="st0" d="M320.1,203.6c0,0.4,0,0.5,0.9,0.5h0.3v0.3c-0.3,0-1.2,0-1.6,0s-1.3,0-1.6,0V204h0.3c0.9,0,0.9-0.1,0.9-0.5
			v-5.2c-0.5,0.3-1.1,0.3-1.3,0.3v-0.3c0.3,0,1.2,0,1.8-0.6c0.2,0,0.2,0,0.2,0.3V203.6z"/>
		<path class="st0" d="M334.4,203.6c0.2,0,0.9,0,0.9-0.1c0.1-0.1,0.2-0.6,0.2-0.9h0.2l-0.3,1.7h-3.7c0-0.2,0-0.3,0.1-0.4l1.9-2.1
			c0.5-0.6,1-1.4,1-2.2c0-0.8-0.4-1.6-1.3-1.6c-0.6,0-1.1,0.4-1.3,1c0,0,0,0,0.1,0c0.3,0,0.5,0.3,0.5,0.5c0,0.4-0.3,0.5-0.5,0.5
			c0,0-0.5,0-0.5-0.6c0-0.9,0.7-1.8,1.9-1.8c1.2,0,2.1,0.8,2.1,1.9c0,1-0.6,1.5-2.2,2.9l-1.1,1H334.4z"/>
		<path class="st0" d="M350,202.6c0,1-0.9,1.9-2.1,1.9c-1.1,0-2-0.7-2-1.6c0-0.4,0.3-0.6,0.6-0.6c0.3,0,0.6,0.2,0.6,0.6
			c0,0.4-0.3,0.6-0.7,0.5c0.3,0.6,1.1,0.8,1.5,0.8c0.4,0,1.1-0.3,1.1-1.6c0-1-0.4-1.7-1.2-1.7h-0.4c-0.2,0-0.2,0-0.2-0.1
			c0-0.1,0.1-0.1,0.1-0.1c0.1,0,0.3,0,0.4,0c0.2,0,0.6,0,0.9-0.5c0.3-0.4,0.3-1,0.3-1.1c0-0.9-0.5-1.1-1-1.1c-0.4,0-1,0.1-1.3,0.6
			c0.1,0,0.6,0,0.6,0.5c0,0.3-0.2,0.5-0.5,0.5c-0.3,0-0.5-0.2-0.5-0.5c0-0.8,0.8-1.4,1.8-1.4c1,0,1.8,0.6,1.8,1.4
			c0,0.8-0.6,1.5-1.4,1.8C349.4,201,350,201.8,350,202.6z"/>
	</g>
	<g>
		<path class="st0" d="M315.6,148.6c-0.1,0.4-0.2,0.7-0.2,0.9c0,0.3,0.2,0.7,0.5,0.7c0.3,0,1-0.2,1.3-1.3c0-0.1,0-0.1,0.1-0.1
			c0,0,0.1,0,0.1,0.1c0,0.2-0.6,1.5-1.6,1.5c-0.6,0-1-0.4-1.1-0.8c0,0.1-0.4,0.8-1,0.8c-0.4,0-0.9-0.2-0.9-0.7
			c0-0.3,0.2-0.6,0.5-0.6c0.1,0,0.4,0.1,0.4,0.3c0,0.3-0.2,0.5-0.5,0.5c0.2,0.1,0.4,0.1,0.5,0.1c0.4,0,0.8-0.4,0.9-1
			c0.4-1.4,0.5-2.1,0.5-2.4c0-0.6-0.3-0.7-0.5-0.7c-0.3,0-1,0.2-1.3,1.3c0,0.1,0,0.1-0.1,0.1c0,0-0.1,0-0.1-0.1
			c0-0.3,0.6-1.5,1.6-1.5c0.3,0,0.8,0.1,1.1,0.8c0.1-0.2,0.5-0.8,1-0.8c0.3,0,0.9,0.1,0.9,0.7c0,0.4-0.3,0.6-0.5,0.6
			c-0.3,0-0.4-0.2-0.4-0.3c0-0.2,0.2-0.5,0.5-0.5c-0.2-0.1-0.4-0.1-0.5-0.1c-0.7,0-0.9,0.9-1,1.2L315.6,148.6z"/>
	</g>
	<g>
		<path class="st0" d="M319.6,149.3c0,0,0-0.1,0-0.2c0-0.2,0-0.3-0.2-0.3c-0.3,0-0.4,0.3-0.5,0.8c0,0.2-0.1,0.2-0.2,0.2
			c0,0-0.1,0-0.1-0.1c0,0,0.1-0.5,0.3-0.7c0.1-0.2,0.3-0.4,0.6-0.4c0.2,0,0.6,0.1,0.7,0.5c0.2-0.2,0.6-0.5,1-0.5c0.5,0,1,0.3,1,1.2
			c0,1-0.9,2-1.8,2c-0.4,0-0.6-0.3-0.7-0.4c-0.1,0.3-0.2,0.7-0.3,1c0,0.1-0.1,0.3-0.1,0.3c0,0.1,0.2,0.1,0.3,0.1
			c0.1,0,0.2,0,0.2,0.1c0,0.1-0.1,0.2-0.1,0.2c-0.2,0-0.5,0-0.7,0c-0.2,0-0.4,0-0.6,0c0,0-0.1,0-0.1-0.1c0-0.1,0.1-0.1,0.2-0.1
			c0.3,0,0.3-0.1,0.3-0.3L319.6,149.3z M319.7,150.8c0,0,0,0.1,0,0.1c0,0.1,0.1,0.6,0.6,0.6c0.4,0,0.7-0.3,0.9-0.7
			c0.2-0.4,0.4-1.1,0.4-1.4c0-0.5-0.2-0.7-0.5-0.7c-0.2,0-0.6,0.1-1,0.6L319.7,150.8z"/>
	</g>
	<g>
		<path class="st0" d="M324,152.7v-10h1.4v0.4h-1v9.2h1v0.4H324z"/>
	</g>
	<g>
		<path class="st0" d="M327,147.3c0.1-0.5,0.2-0.6,0.2-0.8c0-0.3-0.1-0.5-0.3-0.5c-0.4,0-0.6,0.5-0.7,1.2c-0.1,0.2-0.1,0.2-0.2,0.2
			c0,0-0.1,0-0.1-0.1c0,0,0.1-0.6,0.3-1c0.1-0.2,0.3-0.6,0.7-0.6c0.5,0,0.9,0.3,0.9,0.9c0.2-0.2,0.7-0.9,1.6-0.9
			c0.7,0,1.1,0.4,1.1,1.1c0,0.6-0.4,1.7-0.6,2.2c-0.1,0.2-0.2,0.5-0.2,0.7c0,0.2,0.1,0.3,0.2,0.3c0.5,0,0.8-0.6,1-1.2
			c0.1-0.1,0.1-0.2,0.2-0.2c0,0,0.1,0,0.1,0.1c0,0.1-0.4,1.5-1.3,1.5c-0.5,0-0.8-0.3-0.8-0.8c0-0.1,0-0.2,0.1-0.5
			c0.2-0.4,0.6-1.7,0.6-2.3c0-0.3-0.1-0.7-0.5-0.7c-0.9,0-1.5,0.9-1.6,1.2c0,0-0.1,0.3-0.1,0.5c0,0.2-0.1,0.4-0.2,0.7l-0.2,0.9
			c-0.1,0.2-0.2,0.7-0.2,0.7c-0.1,0.2-0.2,0.3-0.4,0.3c-0.1,0-0.3-0.1-0.3-0.3c0,0,0.1-0.3,0.1-0.4L327,147.3z"/>
	</g>
	<g>
		<path class="st0" d="M335,147.9c-0.2,0-0.3,0-0.3-0.2s0.2-0.2,0.3-0.2h5.4c0.2,0,0.3,0,0.3,0.2s-0.2,0.2-0.3,0.2H335z"/>
	</g>
	<g>
		<path class="st0" d="M346.7,149.4c0,0.4,0,0.5,0.9,0.5h0.3v0.3c-0.3,0-1.2,0-1.6,0s-1.3,0-1.6,0v-0.3h0.3c0.9,0,0.9-0.1,0.9-0.5
			v-5.2c-0.5,0.3-1.1,0.3-1.3,0.3v-0.3c0.3,0,1.2,0,1.8-0.6c0.2,0,0.2,0,0.2,0.3V149.4z"/>
		<path class="st0" d="M350.4,152.7h-1.4v-0.4h1v-9.2h-1v-0.4h1.4V152.7z"/>
	</g>
	<g>
		<path class="st0" d="M287.3,202.5v-0.6h2.6v0.6H287.3z"/>
		<path class="st0" d="M293.4,203.6c0,0.4,0,0.5,0.9,0.5h0.3v0.3c-0.3,0-1.2,0-1.6,0s-1.3,0-1.6,0V204h0.3c0.9,0,0.9-0.1,0.9-0.5
			v-5.2c-0.5,0.3-1.1,0.3-1.3,0.3v-0.3c0.3,0,1.2,0,1.8-0.6c0.2,0,0.2,0,0.2,0.3V203.6z"/>
	</g>
	<g>
		<path class="st0" d="M273.1,202.5v-0.6h2.6v0.6H273.1z"/>
		<path class="st0" d="M279.4,203.6c0.2,0,0.9,0,0.9-0.1c0.1-0.1,0.2-0.6,0.2-0.9h0.2l-0.3,1.7h-3.7c0-0.2,0-0.3,0.1-0.4l1.9-2.1
			c0.5-0.6,1-1.4,1-2.2c0-0.8-0.4-1.6-1.3-1.6c-0.6,0-1.1,0.4-1.3,1c0,0,0,0,0.1,0c0.3,0,0.5,0.3,0.5,0.5c0,0.4-0.3,0.5-0.5,0.5
			c0,0-0.5,0-0.5-0.6c0-0.9,0.7-1.8,1.9-1.8c1.2,0,2.1,0.8,2.1,1.9c0,1-0.6,1.5-2.2,2.9l-1.1,1H279.4z"/>
	</g>
	<g>
		<path class="st0" d="M376.1,204.6c-1.1,0-1.8-1-1.8-1.8c0-0.5,0.3-0.5,0.5-0.5c0.3,0,0.5,0.2,0.5,0.5c0,0.2-0.2,0.5-0.5,0.5
			c-0.1,0-0.1,0-0.2,0c0.2,0.6,0.7,1.1,1.5,1.1c0.5,0,0.8-0.3,1.1-0.6c0.2-0.4,0.2-1,0.2-1.4c0-0.5,0-0.9-0.2-1.3
			c-0.1-0.2-0.3-0.6-0.8-0.6c-0.8,0-1.2,0.5-1.3,0.7c0,0.1-0.1,0.1-0.1,0.1c-0.1,0-0.1-0.1-0.1-0.3V198c0-0.2,0-0.2,0.1-0.2
			c0,0,0,0,0.1,0c0.5,0.2,0.9,0.3,1.3,0.3c0.7,0,1.2-0.2,1.4-0.3c0,0,0.1,0,0.1,0c0.1,0,0.1,0,0.1,0.1c0,0.1-0.7,1-1.9,1
			c-0.3,0-0.6-0.1-0.8-0.1v1.9c0.4-0.3,0.8-0.5,1.3-0.5c1.1,0,1.9,1,1.9,2.2C378.3,203.6,377.3,204.6,376.1,204.6z"/>
	</g>
	<g>
		<path class="st0" d="M359.9,202.7v-0.3l3.1-4.7c0.1-0.1,0.1-0.1,0.2-0.1c0.2,0,0.2,0.1,0.2,0.3v4.5h1v0.3h-1v0.9
			c0,0.4,0,0.5,0.8,0.5h0.2v0.3c-0.4,0-0.9,0-1.4,0c-0.4,0-0.9,0-1.3,0V204h0.2c0.7,0,0.8-0.1,0.8-0.5v-0.9H359.9z M362.6,198.7
			l-2.4,3.7h2.4V198.7z"/>
		<path class="st0" d="M390.5,200.1c1.1,0,2,1,2,2.2c0,1.3-0.9,2.3-2.1,2.3c-0.9,0-2.1-0.7-2.1-3.4c0-2.2,1.3-3.5,2.6-3.5
			c0.8,0,1.3,0.5,1.3,1.1c0,0.4-0.3,0.5-0.5,0.5c-0.2,0-0.5-0.1-0.5-0.5c0-0.4,0.4-0.4,0.5-0.4c-0.2-0.3-0.6-0.4-0.9-0.4
			c-0.5,0-1.7,0.4-1.7,2.9v0.2C389.5,200.6,389.8,200.1,390.5,200.1z M391.4,203.6c0.2-0.4,0.2-0.9,0.2-1.3c0-0.5,0-1-0.2-1.4
			c-0.3-0.6-0.8-0.6-0.9-0.6c-0.9,0-1.2,1-1.2,1.8c0,0.2,0,1,0.2,1.4c0.1,0.1,0.4,0.7,1,0.7C390.7,204.3,391.1,204.2,391.4,203.6z"
			/>
	</g>
	<g>
		<path class="st0" d="M405.6,200.2c-0.4,0.6-0.6,1.5-0.6,1.7c-0.1,0.5-0.1,1.1-0.1,1.6v0.5c0,0.1,0,0.5-0.5,0.5s-0.5-0.4-0.5-0.5
			c0-1,0.3-2.4,1.2-3.7c0.2-0.3,1-1.4,1.1-1.6h-2.1c-0.1,0-0.9,0-1,0.1c-0.1,0.1-0.2,0.7-0.3,0.9h-0.2l0.3-2.1h0.2
			c0,0.2,0.1,0.3,1.3,0.3h2.4c0,0.2,0,0.2-0.1,0.3L405.6,200.2z"/>
	</g>
	<g>
		<path class="st0" d="M258.9,202.5v-0.6h2.6v0.6H258.9z"/>
		<path class="st0" d="M266.7,202.6c0,1-0.9,1.9-2.1,1.9c-1.1,0-2-0.7-2-1.6c0-0.4,0.3-0.6,0.6-0.6c0.3,0,0.6,0.2,0.6,0.6
			c0,0.4-0.3,0.6-0.7,0.5c0.3,0.6,1.1,0.8,1.5,0.8c0.4,0,1.1-0.3,1.1-1.6c0-1-0.4-1.7-1.2-1.7h-0.4c-0.2,0-0.2,0-0.2-0.1
			c0-0.1,0.1-0.1,0.1-0.1c0.1,0,0.3,0,0.4,0c0.2,0,0.6,0,0.9-0.5c0.3-0.4,0.3-1,0.3-1.1c0-0.9-0.5-1.1-1-1.1c-0.4,0-1,0.1-1.3,0.6
			c0.1,0,0.6,0,0.6,0.5c0,0.3-0.2,0.5-0.5,0.5c-0.3,0-0.5-0.2-0.5-0.5c0-0.8,0.8-1.4,1.8-1.4c1,0,1.8,0.6,1.8,1.4
			c0,0.8-0.6,1.5-1.4,1.8C266.1,201,266.7,201.8,266.7,202.6z"/>
	</g>
	<g>
		<path class="st0" d="M244.8,202.5v-0.6h2.6v0.6H244.8z"/>
		<path class="st0" d="M248.3,202.7v-0.3l3.1-4.7c0.1-0.1,0.1-0.1,0.2-0.1c0.2,0,0.2,0.1,0.2,0.3v4.5h1v0.3h-1v0.9
			c0,0.4,0,0.5,0.8,0.5h0.2v0.3c-0.4,0-0.9,0-1.4,0c-0.4,0-0.9,0-1.3,0V204h0.2c0.7,0,0.8-0.1,0.8-0.5v-0.9H248.3z M251,198.7
			l-2.4,3.7h2.4V198.7z"/>
	</g>
	<line class="st3" x1="0.7" y1="179.8" x2="22" y2="179.8"/>
	<line class="st4" x1="160.2" y1="179.8" x2="170.8" y2="179.8"/>
	<path class="st5" d="M64.5,194v-17.7 M50.3,194v-39 M36.1,194v-28.3"/>
	<g>
		<path class="st0" d="M64.5,178c-1.1,0-1.9-0.9-1.9-1.9c0-1,0.9-1.9,1.9-1.9c1,0,1.9,0.9,1.9,1.9S65.6,178,64.5,178z"/>
	</g>
	<g>
		<path class="st0" d="M50.4,156.7c-1.1,0-1.9-0.9-1.9-1.9c0-1,0.9-1.9,1.9-1.9c1,0,1.9,0.9,1.9,1.9S51.4,156.7,50.4,156.7z"/>
	</g>
	<g>
		<path class="st0" d="M78.7,167.3c-1.1,0-1.9-0.9-1.9-1.9c0-1,0.9-1.9,1.9-1.9c1,0,1.9,0.9,1.9,1.9S79.7,167.3,78.7,167.3z"/>
	</g>
	<line class="st6" x1="78.7" y1="194" x2="78.7" y2="165.7"/>
	<g>
		<path class="st0" d="M107,181.5c-1.1,0-1.9-0.9-1.9-1.9c0-1,0.9-1.9,1.9-1.9c1,0,1.9,0.9,1.9,1.9S108.1,181.5,107,181.5z"/>
	</g>
	<line class="st5" x1="107" y1="194" x2="107" y2="179.8"/>
	<g>
		<path class="st0" d="M92.8,174.4c-1.1,0-1.9-0.9-1.9-1.9c0-1,0.9-1.9,1.9-1.9c1,0,1.9,0.9,1.9,1.9S93.9,174.4,92.8,174.4z"/>
	</g>
	<line class="st5" x1="92.8" y1="194" x2="92.8" y2="172.8"/>
	<g>
		<path class="st0" d="M121.2,188.6c-1.1,0-1.9-0.9-1.9-1.9c0-1,0.9-1.9,1.9-1.9c1,0,1.9,0.9,1.9,1.9S122.2,188.6,121.2,188.6z"/>
	</g>
	<line class="st7" x1="121.2" y1="194" x2="121.2" y2="186.9"/>
	<path class="st8" d="M202.7,176.3l7.1,14.2 M202.7,190.5l7.1-14.2"/>
	<g>
		<path class="st0" d="M404.7,181.5c-1.1,0-1.9-0.9-1.9-1.9c0-1,0.9-1.9,1.9-1.9c1,0,1.9,0.9,1.9,1.9S405.8,181.5,404.7,181.5z"/>
	</g>
	<line class="st9" x1="404.6" y1="194" x2="404.6" y2="179.8"/>
	<g>
		<path class="st0" d="M390.4,174.4c-1.1,0-1.9-0.9-1.9-1.9c0-1,0.9-1.9,1.9-1.9c1,0,1.9,0.9,1.9,1.9S391.5,174.4,390.4,174.4z"/>
	</g>
	<line class="st10" x1="390.5" y1="194" x2="390.5" y2="172.8"/>
	<g>
		<path class="st0" d="M262.9,167.3c-1.1,0-1.9-0.9-1.9-1.9c0-1,0.9-1.9,1.9-1.9c1,0,1.9,0.9,1.9,1.9S263.9,167.3,262.9,167.3z"/>
	</g>
	<line class="st11" x1="262.9" y1="194" x2="262.9" y2="165.7"/>
	<g>
		<path class="st0" d="M291.3,181.5c-1.1,0-1.9-0.9-1.9-1.9c0-1,0.9-1.9,1.9-1.9c1,0,1.9,0.9,1.9,1.9S292.4,181.5,291.3,181.5z"/>
	</g>
	<line class="st9" x1="291.3" y1="194" x2="291.3" y2="179.8"/>
	<g>
		<path class="st0" d="M277.2,174.4c-1.1,0-1.9-0.9-1.9-1.9c0-1,0.9-1.9,1.9-1.9c1,0,1.9,0.9,1.9,1.9S278.2,174.4,277.2,174.4z"/>
	</g>
	<line class="st10" x1="277.1" y1="194" x2="277.1" y2="172.8"/>
	<g>
		<path class="st0" d="M305.5,188.6c-1.1,0-1.9-0.9-1.9-1.9c0-1,0.9-1.9,1.9-1.9c1,0,1.9,0.9,1.9,1.9S306.5,188.6,305.5,188.6z"/>
	</g>
	<line class="st7" x1="305.4" y1="194" x2="305.4" y2="186.9"/>
	<g>
		<path class="st0" d="M319.6,167.3c-1.1,0-1.9-0.9-1.9-1.9c0-1,0.9-1.9,1.9-1.9c1,0,1.9,0.9,1.9,1.9S320.7,167.3,319.6,167.3z"/>
	</g>
	<line class="st6" x1="319.6" y1="194" x2="319.6" y2="165.7"/>
	<g>
		<path class="st0" d="M348,181.5c-1.1,0-1.9-0.9-1.9-1.9c0-1,0.9-1.9,1.9-1.9c1,0,1.9,0.9,1.9,1.9S349,181.5,348,181.5z"/>
	</g>
	<line class="st5" x1="348" y1="194" x2="348" y2="179.8"/>
	<g>
		<path class="st0" d="M333.8,174.4c-1.1,0-1.9-0.9-1.9-1.9c0-1,0.9-1.9,1.9-1.9c1,0,1.9,0.9,1.9,1.9S334.9,174.4,333.8,174.4z"/>
	</g>
	<line class="st5" x1="333.8" y1="194" x2="333.8" y2="172.8"/>
	<g>
		<path class="st0" d="M376.3,167.3c-1.1,0-1.9-0.9-1.9-1.9c0-1,0.9-1.9,1.9-1.9c1,0,1.9,0.9,1.9,1.9S377.3,167.3,376.3,167.3z"/>
	</g>
	<line class="st11" x1="376.3" y1="194" x2="376.3" y2="165.7"/>
	<g>
		<path class="st0" d="M362.1,188.6c-1.1,0-1.9-0.9-1.9-1.9c0-1,0.9-1.9,1.9-1.9c1,0,1.9,0.9,1.9,1.9S363.2,188.6,362.1,188.6z"/>
	</g>
	<line class="st12" x1="362.1" y1="194" x2="362.1" y2="186.9"/>
	<polyline points="199.4,179.7 192,183.4 199.4,187.1 197.6,183.4 	"/>
	<polyline points="213,187.1 220.4,183.4 213,179.7 214.9,183.4 	"/>
	<line class="st13" x1="197.6" y1="183.4" x2="214.9" y2="183.4"/>
	<g>
		<path class="st0" d="M64.5,39.7c-1.1,0-1.9-0.9-1.9-1.9c0-1,0.9-1.9,1.9-1.9c1,0,1.9,0.9,1.9,1.9C66.5,38.9,65.6,39.7,64.5,39.7z"
			/>
	</g>
	<line class="st6" x1="64.5" y1="66.5" x2="64.5" y2="38.1"/>
	<g>
		<path class="st0" d="M92.8,53.9c-1.1,0-1.9-0.9-1.9-1.9c0-1,0.9-1.9,1.9-1.9c1,0,1.9,0.9,1.9,1.9C94.8,53,93.9,53.9,92.8,53.9z"/>
	</g>
	<line class="st5" x1="92.8" y1="66.5" x2="92.8" y2="52.3"/>
	<g>
		<path class="st0" d="M78.7,46.8c-1.1,0-1.9-0.9-1.9-1.9c0-1,0.9-1.9,1.9-1.9c1,0,1.9,0.9,1.9,1.9C80.6,46,79.7,46.8,78.7,46.8z"/>
	</g>
	<line class="st5" x1="78.7" y1="66.5" x2="78.7" y2="45.2"/>
	<g>
		<path class="st0" d="M107,61c-1.1,0-1.9-0.9-1.9-1.9c0-1,0.9-1.9,1.9-1.9c1,0,1.9,0.9,1.9,1.9C108.9,60.1,108.1,61,107,61z"/>
	</g>
	<line class="st7" x1="107" y1="66.5" x2="107" y2="59.4"/>
	<g>
		<path class="st0" d="M305.5,39.7c-1.1,0-1.9-0.9-1.9-1.9c0-1,0.9-1.9,1.9-1.9c1,0,1.9,0.9,1.9,1.9
			C307.4,38.9,306.5,39.7,305.5,39.7z"/>
	</g>
	<line class="st6" x1="305.4" y1="66.5" x2="305.4" y2="38.1"/>
	<g>
		<path class="st0" d="M333.8,53.9c-1.1,0-1.9-0.9-1.9-1.9c0-1,0.9-1.9,1.9-1.9c1,0,1.9,0.9,1.9,1.9C335.7,53,334.9,53.9,333.8,53.9
			z"/>
	</g>
	<line class="st5" x1="333.8" y1="66.5" x2="333.8" y2="52.3"/>
	<g>
		<path class="st0" d="M319.6,46.8c-1.1,0-1.9-0.9-1.9-1.9c0-1,0.9-1.9,1.9-1.9c1,0,1.9,0.9,1.9,1.9C321.6,46,320.7,46.8,319.6,46.8
			z"/>
	</g>
	<line class="st5" x1="319.6" y1="66.5" x2="319.6" y2="45.2"/>
	<g>
		<path class="st0" d="M348,61c-1.1,0-1.9-0.9-1.9-1.9c0-1,0.9-1.9,1.9-1.9c1,0,1.9,0.9,1.9,1.9C349.9,60.1,349,61,348,61z"/>
	</g>
	<line class="st7" x1="348" y1="66.5" x2="348" y2="59.4"/>
	<path class="st5" d="M50.3,66.5V48.7 M36.1,66.5v-39 M22,66.5V38.1"/>
	<g>
		<path class="st0" d="M50.4,50.4c-1.1,0-1.9-0.9-1.9-1.9c0-1,0.9-1.9,1.9-1.9c1,0,1.9,0.9,1.9,1.9C52.3,49.6,51.4,50.4,50.4,50.4z"
			/>
	</g>
	<g>
		<path class="st0" d="M36.2,29.2c-1.1,0-1.9-0.9-1.9-1.9c0-1,0.9-1.9,1.9-1.9c1,0,1.9,0.9,1.9,1.9C38.1,28.3,37.3,29.2,36.2,29.2z"
			/>
	</g>
	<g>
		<path class="st0" d="M135.5,57.5c-1.1,0-1.9-0.9-1.9-1.9c0-1,0.9-1.9,1.9-1.9c1,0,1.9,0.9,1.9,1.9
			C137.4,56.6,136.5,57.5,135.5,57.5z"/>
	</g>
	<line class="st5" x1="135.4" y1="66.5" x2="135.4" y2="55.8"/>
	<g>
		<path class="st0" d="M121.2,53.9c-1.1,0-1.9-0.9-1.9-1.9c0-1,0.9-1.9,1.9-1.9c1,0,1.9,0.9,1.9,1.9C123.1,53,122.2,53.9,121.2,53.9
			z"/>
	</g>
	<line class="st5" x1="121.2" y1="66.5" x2="121.2" y2="52.3"/>
	<g>
		<path class="st0" d="M149.6,185.1c-1.1,0-1.9-0.9-1.9-1.9c0-1,0.9-1.9,1.9-1.9c1,0,1.9,0.9,1.9,1.9S150.7,185.1,149.6,185.1z"/>
	</g>
	<line class="st5" x1="149.5" y1="194" x2="149.5" y2="183.4"/>
	<g>
		<path class="st0" d="M135.5,181.5c-1.1,0-1.9-0.9-1.9-1.9c0-1,0.9-1.9,1.9-1.9c1,0,1.9,0.9,1.9,1.9S136.5,181.5,135.5,181.5z"/>
	</g>
	<line class="st5" x1="135.4" y1="194" x2="135.4" y2="179.8"/>
	<g>
		<path class="st0" d="M362.1,39.7c-1.1,0-1.9-0.9-1.9-1.9c0-1,0.9-1.9,1.9-1.9c1,0,1.9,0.9,1.9,1.9
			C364.1,38.9,363.2,39.7,362.1,39.7z"/>
	</g>
	<line class="st11" x1="362.1" y1="66.5" x2="362.1" y2="38.1"/>
	<g>
		<path class="st0" d="M390.4,53.9c-1.1,0-1.9-0.9-1.9-1.9c0-1,0.9-1.9,1.9-1.9c1,0,1.9,0.9,1.9,1.9C392.4,53,391.5,53.9,390.4,53.9
			z"/>
	</g>
	<line class="st9" x1="390.5" y1="66.5" x2="390.5" y2="52.3"/>
	<g>
		<path class="st0" d="M376.3,46.8c-1.1,0-1.9-0.9-1.9-1.9c0-1,0.9-1.9,1.9-1.9c1,0,1.9,0.9,1.9,1.9C378.2,46,377.3,46.8,376.3,46.8
			z"/>
	</g>
	<line class="st10" x1="376.3" y1="66.5" x2="376.3" y2="45.2"/>
	<g>
		<path class="st0" d="M404.7,61c-1.1,0-1.9-0.9-1.9-1.9c0-1,0.9-1.9,1.9-1.9c1,0,1.9,0.9,1.9,1.9C406.7,60.1,405.8,61,404.7,61z"/>
	</g>
	<line class="st12" x1="404.6" y1="66.5" x2="404.6" y2="59.4"/>
	<g>
		<path class="st0" d="M248.7,39.7c-1.1,0-1.9-0.9-1.9-1.9c0-1,0.9-1.9,1.9-1.9c1,0,1.9,0.9,1.9,1.9
			C250.7,38.9,249.8,39.7,248.7,39.7z"/>
	</g>
	<line class="st11" x1="248.7" y1="66.5" x2="248.7" y2="38.1"/>
	<g>
		<path class="st0" d="M277.2,53.9c-1.1,0-1.9-0.9-1.9-1.9c0-1,0.9-1.9,1.9-1.9c1,0,1.9,0.9,1.9,1.9C279.1,53,278.2,53.9,277.2,53.9
			z"/>
	</g>
	<line class="st9" x1="277.1" y1="66.5" x2="277.1" y2="52.3"/>
	<g>
		<path class="st0" d="M262.9,46.8c-1.1,0-1.9-0.9-1.9-1.9c0-1,0.9-1.9,1.9-1.9c1,0,1.9,0.9,1.9,1.9C264.8,46,263.9,46.8,262.9,46.8
			z"/>
	</g>
	<line class="st10" x1="262.9" y1="66.5" x2="262.9" y2="45.2"/>
	<g>
		<path class="st0" d="M291.3,61c-1.1,0-1.9-0.9-1.9-1.9c0-1,0.9-1.9,1.9-1.9c1,0,1.9,0.9,1.9,1.9C293.3,60.1,292.4,61,291.3,61z"/>
	</g>
	<line class="st12" x1="291.3" y1="66.5" x2="291.3" y2="59.4"/>
	<g>
		<path class="st0" d="M317.8,221.1c0,0.2,0,0.2-0.2,0.2c-0.1,0-0.1,0-0.2-0.2l-2.5-5.9c0-0.1,0-0.1-0.1-0.2l-1.3,5.3
			c0,0.1,0,0.2,0,0.2c0,0.2,0.1,0.4,0.7,0.4c0.1,0,0.2,0,0.2,0.1c0,0.2-0.1,0.2-0.2,0.2c-0.3,0-0.7,0-1,0c-0.3,0-0.7,0-1,0
			c-0.1,0-0.1,0-0.1-0.1c0-0.2,0.1-0.2,0.2-0.2c0.8,0,1-0.3,1.1-0.7l1.3-5.4c0-0.1-0.6-0.1-0.7-0.1c-0.2,0-0.3,0-0.3-0.1
			c0-0.2,0.1-0.2,0.3-0.2h1.3c0.2,0,0.2,0,0.3,0.2l2.2,5.2l1.1-4.4c0,0,0-0.2,0-0.2c0-0.2-0.1-0.4-0.7-0.4c-0.1,0-0.2,0-0.2-0.1
			c0-0.2,0.1-0.2,0.2-0.2c0.3,0,0.7,0,1,0c0.3,0,0.7,0,1,0c0.1,0,0.1,0.1,0.1,0.1c0,0.2-0.1,0.2-0.2,0.2c-0.8,0-1,0.3-1.1,0.7
			L317.8,221.1z"/>
	</g>
	<g>
		<path class="st0" d="M322.1,218c-0.3,0-0.5-0.2-0.5-0.5s0.2-0.5,0.5-0.5s0.5,0.2,0.5,0.5S322.4,218,322.1,218z M322.2,221.3
			C322.2,221.3,322.2,221.3,322.2,221.3c-0.4,0-0.6-0.3-0.6-0.5c0-0.3,0.2-0.5,0.5-0.5c0.5,0,0.6,0.7,0.6,1c0,1.2-0.7,2-0.8,2
			c0,0-0.1,0-0.1-0.1c0,0,0,0,0.1-0.1c0.6-0.7,0.6-1.5,0.6-1.8C322.4,221.2,322.3,221.3,322.2,221.3z"/>
	</g>
	<g>
		<path class="st0" d="M333.5,216.9H333c-0.1-1.2-0.4-1.9-2-1.9h-1.4v2.7h0.5c1,0,1-0.4,1-1.2h0.5v2.8h-0.5c0-0.7-0.1-1.2-1-1.2
			h-0.5v2.7h1.3v0.5c-0.4,0-1.5,0-2,0c-0.4,0-1.4,0-1.8,0v-0.5h1.1V215h-1.1v-0.5h6L333.5,216.9z"/>
		<path class="st0" d="M336.8,220.8h1.1v0.5c-0.4,0-1.4,0-1.8,0c-0.4,0-1.4,0-1.8,0v-0.5h1.1v-5.9h-1.1v-0.5h4.2
			c1.7,0,2.6,0.8,2.6,1.9c0,1.2-1.2,1.9-2.5,1.9h-1.8V220.8z M339.6,216.4c0-0.7,0-1.5-1.5-1.5h-1.3v2.9h1.3
			C339.6,217.9,339.6,217.1,339.6,216.4z"/>
	</g>
	<path class="st1" d="M298.3,208.2v7.1 M355,208.2v7.1"/>
	<polyline points="302.9,209.5 298.3,211.7 302.9,214 301.7,211.7 	"/>
	<polyline points="350.5,214 355,211.7 350.5,209.5 351.6,211.7 	"/>
	<line class="st1" x1="301.7" y1="211.7" x2="351.6" y2="211.7"/>
	<g>
		<path class="st0" d="M87.4,222c0,0.2,0,0.2-0.2,0.2c-0.1,0-0.1,0-0.2-0.2l-2.5-5.9c0-0.1,0-0.1-0.1-0.2l-1.3,5.3
			c0,0.1,0,0.2,0,0.2c0,0.2,0.1,0.4,0.7,0.4c0.1,0,0.2,0,0.2,0.1c0,0.2-0.1,0.2-0.2,0.2c-0.3,0-0.7,0-1,0c-0.3,0-0.7,0-1,0
			c-0.1,0-0.1,0-0.1-0.1c0-0.2,0.1-0.2,0.2-0.2c0.8,0,1-0.3,1.1-0.7l1.3-5.4c0-0.1-0.6-0.1-0.7-0.1c-0.2,0-0.3,0-0.3-0.1
			c0-0.2,0.1-0.2,0.3-0.2h1.3c0.2,0,0.2,0,0.3,0.2l2.2,5.2l1.1-4.4c0,0,0-0.2,0-0.2c0-0.2-0.1-0.4-0.7-0.4c-0.1,0-0.2,0-0.2-0.1
			c0-0.2,0.1-0.2,0.2-0.2c0.3,0,0.7,0,1,0c0.3,0,0.7,0,1,0c0.1,0,0.1,0.1,0.1,0.1c0,0.2-0.1,0.2-0.2,0.2c-0.8,0-1,0.3-1.1,0.7
			L87.4,222z"/>
	</g>
	<path class="st1" d="M57.4,208.2v7.1 M114.1,208.2v7.1"/>
	<polyline points="61.9,209.5 57.4,211.7 61.9,214 60.8,211.7 	"/>
	<polyline points="109.6,214 114.1,211.7 109.6,209.5 110.7,211.7 	"/>
	<line class="st1" x1="60.8" y1="211.7" x2="110.7" y2="211.7"/>
	<g>
		<path class="st0" d="M317.8,93.5c0,0.2,0,0.2-0.2,0.2c-0.1,0-0.1,0-0.2-0.2l-2.5-5.9c0-0.1,0-0.1-0.1-0.2l-1.3,5.3
			c0,0.1,0,0.2,0,0.2c0,0.2,0.1,0.4,0.7,0.4c0.1,0,0.2,0,0.2,0.1c0,0.2-0.1,0.2-0.2,0.2c-0.3,0-0.7,0-1,0c-0.3,0-0.7,0-1,0
			c-0.1,0-0.1,0-0.1-0.1c0-0.2,0.1-0.2,0.2-0.2c0.8,0,1-0.3,1.1-0.7l1.3-5.4c0-0.1-0.6-0.1-0.7-0.1c-0.2,0-0.3,0-0.3-0.1
			c0-0.2,0.1-0.2,0.3-0.2h1.3c0.2,0,0.2,0,0.3,0.2l2.2,5.2l1.1-4.4c0,0,0-0.2,0-0.2c0-0.2-0.1-0.4-0.7-0.4c-0.1,0-0.2,0-0.2-0.1
			c0-0.2,0.1-0.2,0.2-0.2c0.3,0,0.7,0,1,0c0.3,0,0.7,0,1,0c0.1,0,0.1,0.1,0.1,0.1c0,0.2-0.1,0.2-0.2,0.2c-0.8,0-1,0.3-1.1,0.7
			L317.8,93.5z"/>
	</g>
	<g>
		<path class="st0" d="M322.1,90.5c-0.3,0-0.5-0.2-0.5-0.5c0-0.3,0.2-0.5,0.5-0.5s0.5,0.2,0.5,0.5C322.7,90.2,322.4,90.5,322.1,90.5
			z M322.2,93.7C322.2,93.7,322.2,93.7,322.2,93.7c-0.4,0-0.6-0.3-0.6-0.5c0-0.3,0.2-0.5,0.5-0.5c0.5,0,0.6,0.7,0.6,1
			c0,1.2-0.7,2-0.8,2c0,0-0.1,0-0.1-0.1c0,0,0,0,0.1-0.1c0.6-0.7,0.6-1.5,0.6-1.8C322.4,93.7,322.3,93.7,322.2,93.7z"/>
	</g>
	<g>
		<path class="st0" d="M333.5,89.3H333c-0.1-1.2-0.4-1.9-2-1.9h-1.4v2.7h0.5c1,0,1-0.4,1-1.2h0.5v2.8h-0.5c0-0.7-0.1-1.2-1-1.2h-0.5
			v2.7h1.3v0.5c-0.4,0-1.5,0-2,0c-0.4,0-1.4,0-1.8,0v-0.5h1.1v-5.8h-1.1v-0.5h6L333.5,89.3z"/>
		<path class="st0" d="M336.8,93.2h1.1v0.5c-0.4,0-1.4,0-1.8,0c-0.4,0-1.4,0-1.8,0v-0.5h1.1v-5.9h-1.1v-0.5h4.2
			c1.7,0,2.6,0.8,2.6,1.9c0,1.2-1.2,1.9-2.5,1.9h-1.8V93.2z M339.6,88.8c0-0.7,0-1.5-1.5-1.5h-1.3v2.9h1.3
			C339.6,90.3,339.6,89.5,339.6,88.8z"/>
	</g>
	<path class="st1" d="M298.3,80.6v7.1 M355,80.6v7.1"/>
	<polyline points="302.9,81.9 298.3,84.2 302.9,86.4 301.7,84.2 	"/>
	<polyline points="350.5,86.4 355,84.2 350.5,81.9 351.6,84.2 	"/>
	<line class="st1" x1="301.7" y1="84.2" x2="351.6" y2="84.2"/>
	<g>
		<path class="st14" d="M367.3,149.8h0.7v0.5c-0.3,0-0.8,0-1.1,0c-0.3,0-0.9,0-1.2,0v-0.5h0.4l-1.1-1.3l-1,1.1
			c-0.1,0.1-0.1,0.1-0.1,0.1c0,0.1,0.2,0.1,0.4,0.1v0.5c-0.2,0-0.8,0-1,0c0,0-0.6,0-0.9,0v-0.5c0.5,0,0.8,0,1-0.2l1.3-1.5l-1.6-1.8
			h-0.7v-0.5c0.3,0,0.8,0,1.1,0c0.3,0,0.9,0,1.2,0v0.5h-0.4l1,1.1l0.8-0.9c0,0,0-0.1,0.1-0.1c-0.1-0.1-0.2-0.1-0.4-0.1v-0.5
			c0.3,0,0.8,0,1,0c0,0,0.6,0,0.9,0v0.5c-0.8,0-0.9,0.1-1,0.2l-1.2,1.3L367.3,149.8z"/>
	</g>
	<g>
		<path class="st14" d="M370.4,153c0,0-0.6,0-0.9,0c-0.3,0-0.9,0-0.9,0v-0.4h0.5v-3.4c0-0.1,0-0.2-0.1-0.2c-0.1,0-0.2,0-0.3,0v-0.4
			l1.3-0.1v0.3c0.4-0.3,0.8-0.3,1.2-0.3c1.2,0,1.8,0.7,1.8,1.6c0,0.9-0.7,1.6-1.9,1.6c-0.5,0-0.8-0.2-1-0.3v1.2h0.5V153z
			 M369.9,150.9c0.1,0.1,0.4,0.5,0.9,0.5c0.5,0,1.1-0.4,1.1-1.3c0-0.8-0.4-1.2-1-1.2c-0.1,0-0.6,0-0.9,0.3c-0.1,0.1-0.1,0.1-0.1,0.2
			V150.9z"/>
	</g>
	<g>
		<path class="st14" d="M374.9,152.7v-10h1.4v0.4h-1v9.2h1v0.4H374.9z"/>
		<path class="st14" d="M379.6,152.7c-0.1,0-1-0.6-1.6-1.9c-0.5-1.1-0.7-2.3-0.7-3.1c0-0.8,0.1-1.9,0.6-3c0.6-1.3,1.5-1.9,1.6-1.9
			c0.1,0,0.1,0,0.1,0.1c0,0,0,0-0.1,0.2c-1.2,1.2-1.6,3-1.6,4.7c0,1.5,0.3,3.4,1.6,4.7C379.7,152.6,379.7,152.6,379.6,152.7
			C379.7,152.7,379.7,152.7,379.6,152.7z"/>
	</g>
	<g>
		<path class="st14" d="M380.7,146.3v-0.5l1.7-0.1v1.1c0.3-0.5,0.8-1.1,1.7-1.1c1,0,1.5,0.4,1.5,1.4v2.6h0.7v0.5c-0.3,0-0.9,0-1.3,0
			c-0.4,0-1,0-1.3,0v-0.5h0.7v-2.7c0-0.8-0.2-1-0.5-1c-0.6,0-1.5,0.5-1.5,1.6v2.1h0.7v0.5c-0.3,0-0.9,0-1.3,0c-0.4,0-1,0-1.3,0v-0.5
			h0.7v-3.1C381.4,146.3,381.3,146.3,380.7,146.3z"/>
	</g>
	<g>
		<path class="st14" d="M390.1,147.9c-0.2,0-0.3,0-0.3-0.2s0.2-0.2,0.3-0.2h5.4c0.2,0,0.3,0,0.3,0.2s-0.2,0.2-0.3,0.2H390.1z"/>
	</g>
	<g>
		<path class="st14" d="M402.4,149.8h1.4v0.5c-0.4,0-1.5,0-2,0s-1.5,0-2,0v-0.5h1.4v-5.2c-0.6,0.2-1.1,0.2-1.3,0.2h-0.2v-0.5h0.2
			c0.2,0,1.2,0,2-0.6c0.1-0.1,0.1-0.1,0.2-0.1c0.3,0,0.3,0.1,0.3,0.3V149.8z"/>
	</g>
	<g>
		<path class="st14" d="M406.9,150.8c-0.6,1.3-1.5,1.9-1.6,1.9c-0.1,0-0.1,0-0.1-0.1c0,0,0,0,0.1-0.2c1.2-1.3,1.6-3,1.6-4.7
			c0-2.1-0.6-3.7-1.5-4.7c-0.2-0.2-0.2-0.2-0.2-0.2c0-0.1,0-0.1,0.1-0.1c0.1,0,1,0.6,1.6,1.9c0.5,1.1,0.7,2.3,0.7,3.1
			C407.5,148.6,407.4,149.7,406.9,150.8z"/>
		<path class="st14" d="M408.8,146.2v-0.3l1.4-0.1v1c0.3-0.6,0.7-1,1.5-1c0.4,0,1.2,0.1,1.3,1c0.2-0.4,0.6-1,1.4-1
			c0.6,0,0.9,0.2,1,0.4c0.3,0.4,0.3,0.7,0.3,1.5v1.9c0,0.3,0.3,0.3,0.8,0.3v0.3c-0.3,0-0.9,0-1.1,0c-0.3,0-0.8,0-1.1,0v-0.3
			c0.7,0,0.8,0,0.8-0.4v-2.3c0-0.6-0.1-1.1-0.7-1.1c-0.6,0-1.3,0.6-1.3,1.6v1.8c0,0.4,0.1,0.4,0.8,0.4v0.3c-0.3,0-0.9,0-1.1,0
			c-0.3,0-0.8,0-1.1,0v-0.3c0.7,0,0.8,0,0.8-0.4v-2.3c0-0.6-0.1-1.1-0.7-1.1c-0.6,0-1.3,0.6-1.3,1.6v1.8c0,0.4,0.1,0.4,0.8,0.4v0.3
			c-0.3,0-0.9,0-1.1,0c-0.3,0-0.8,0-1.1,0v-0.3c0.7,0,0.8,0,0.8-0.4v-2.7C409.6,146.3,409.5,146.2,408.8,146.2z"/>
	</g>
	<g>
		<path class="st14" d="M419.2,150.3c-1.2,0-2.2-1-2.2-2.2c0-1.2,1-2.3,2.2-2.3c1.2,0,2.2,1.1,2.2,2.3
			C421.4,149.4,420.4,150.3,419.2,150.3z M420.4,149.4c0.2-0.4,0.2-1,0.2-1.3c0-0.4,0-1-0.3-1.4c-0.3-0.4-0.7-0.6-1.1-0.6
			c-0.4,0-0.9,0.2-1.1,0.7c-0.2,0.4-0.2,1-0.2,1.4c0,0.4,0,1,0.2,1.4c0.3,0.5,0.7,0.7,1.1,0.7C419.7,150.1,420.2,149.8,420.4,149.4z
			"/>
		<path class="st14" d="M424.5,150.3c-1.1,0-2.1-1-2.1-2.3c0-1.3,1-2.3,2.2-2.3c0.5,0,1,0.3,1.3,0.6v-2.2c0-0.5-0.1-0.6-0.8-0.6
			v-0.3l1.4-0.1v6c0,0.5,0.1,0.6,0.8,0.6v0.3l-1.5,0.1v-0.7C425.6,150,425.1,150.3,424.5,150.3z M425.7,146.6
			c-0.3-0.4-0.7-0.6-1.1-0.6c-0.5,0-0.9,0.3-1.1,0.6c-0.3,0.4-0.3,1-0.3,1.4c0,0.4,0,1,0.3,1.4c0.2,0.4,0.6,0.6,1,0.6
			c0.4,0,0.9-0.2,1.2-0.7c0.1-0.2,0.1-0.2,0.1-0.4v-2C425.8,146.8,425.8,146.8,425.7,146.6z"/>
	</g>
	<g>
		<path class="st14" d="M430.7,152.7c-0.1,0-1-0.6-1.6-1.9c-0.5-1.1-0.7-2.3-0.7-3.1c0-0.8,0.1-1.9,0.6-3c0.6-1.3,1.5-1.9,1.6-1.9
			c0.1,0,0.1,0,0.1,0.1c0,0,0,0-0.1,0.2c-1.2,1.2-1.6,3-1.6,4.7c0,1.5,0.3,3.4,1.6,4.7C430.8,152.6,430.8,152.6,430.7,152.7
			C430.8,152.7,430.8,152.7,430.7,152.7z"/>
	</g>
	<g>
		<path class="st14" d="M438.4,148.2v-4c0-0.2,0-0.2-0.3-0.3c-0.2,0-0.3,0-0.5,0h-0.2v-0.5c0.4,0,0.9,0,1.3,0c0.4,0,1,0,1.3,0v0.5
			h-0.2c-0.3,0-0.3,0-0.5,0c-0.3,0-0.3,0-0.3,0.3v5.8c0,0.2,0,0.3-0.3,0.3c-0.2,0-0.2,0-0.3-0.1l-5-5.8v5.2c0,0.2,0,0.2,0.3,0.3
			c0.2,0,0.3,0,0.5,0h0.3v0.5c-0.4,0-0.9,0-1.3,0c-0.4,0-1,0-1.3,0v-0.5h0.2c0.3,0,0.3,0,0.5,0c0.3,0,0.3,0,0.3-0.3v-5.6h-1.1v-0.5
			h2.3c0.2,0,0.2,0,0.3,0.1L438.4,148.2z"/>
	</g>
	<g>
		<path class="st14" d="M442.6,150.8c-0.6,1.3-1.5,1.9-1.6,1.9c-0.1,0-0.1,0-0.1-0.1c0,0,0,0,0.1-0.2c1.2-1.3,1.6-3,1.6-4.7
			c0-2.1-0.6-3.7-1.5-4.7c-0.2-0.2-0.2-0.2-0.2-0.2c0-0.1,0-0.1,0.1-0.1c0.1,0,1,0.6,1.6,1.9c0.5,1.1,0.7,2.3,0.7,3.1
			C443.3,148.6,443.1,149.7,442.6,150.8z"/>
		<path class="st14" d="M445.8,152.7h-1.4v-0.4h1v-9.2h-1v-0.4h1.4V152.7z"/>
	</g>
	<g>
		<defs>
			<polygon id="SVGID_1_" points="298.3,183.4 298.3,158.6 355,158.6 355,208.2 298.3,208.2 			"/>
		</defs>
		<clipPath id="SVGID_2_">
			<use xlink:href="#SVGID_1_"  style="overflow:visible;"/>
		</clipPath>
		<path class="st15" d="M324.5,238.7l-53.1-53.1 M327.6,235.6l-53.1-53.1 M330.8,232.5l-53.1-53.1 M333.9,229.3l-53.1-53.1
			 M337,226.2l-53.1-53.1 M340.1,223.1L287,170 M343.2,220l-53.1-53.1 M346.4,216.9l-53.1-53.1 M349.5,213.7l-53.1-53.1
			 M352.6,210.6l-53.1-53.1 M355.7,207.5l-53.1-53.1 M358.8,204.4l-53.1-53.1 M362,201.3l-53.1-53.1 M365.1,198.1L311.9,145
			 M368.2,195L315,141.9 M371.3,191.9l-53.1-53.1 M374.4,188.8l-53.1-53.1 M377.6,185.7l-53.1-53.1 M380.7,182.5l-53.1-53.1"/>
	</g>
	<polygon class="st16" points="298.3,183.4 298.3,158.6 355,158.6 355,208.2 298.3,208.2 	"/>
	<polyline points="365.4,158.3 369.2,155 364.3,153.9 365.9,155.9 	"/>
	<line class="st1" x1="355" y1="158.6" x2="365.9" y2="155.9"/>
	<g>
		<path class="st0" d="M87.4,94.5c0,0.2,0,0.2-0.2,0.2c-0.1,0-0.1,0-0.2-0.2l-2.5-5.9c0-0.1,0-0.1-0.1-0.2l-1.3,5.3
			c0,0.1,0,0.2,0,0.2c0,0.2,0.1,0.4,0.7,0.4c0.1,0,0.2,0,0.2,0.1c0,0.2-0.1,0.2-0.2,0.2c-0.3,0-0.7,0-1,0c-0.3,0-0.7,0-1,0
			c-0.1,0-0.1,0-0.1-0.1c0-0.2,0.1-0.2,0.2-0.2c0.8,0,1-0.3,1.1-0.7l1.3-5.4c0-0.1-0.6-0.1-0.7-0.1c-0.2,0-0.3,0-0.3-0.1
			c0-0.2,0.1-0.2,0.3-0.2h1.3c0.2,0,0.2,0,0.3,0.2l2.2,5.2l1.1-4.4c0,0,0-0.2,0-0.2c0-0.2-0.1-0.4-0.7-0.4c-0.1,0-0.2,0-0.2-0.1
			c0-0.2,0.1-0.2,0.2-0.2c0.3,0,0.7,0,1,0c0.3,0,0.7,0,1,0C90,87.9,90,88,90,88c0,0.2-0.1,0.2-0.2,0.2c-0.8,0-1,0.3-1.1,0.7
			L87.4,94.5z"/>
	</g>
	<path class="st1" d="M57.4,80.6v7.1 M114.1,80.6v7.1"/>
	<polyline points="61.9,81.9 57.4,84.2 61.9,86.4 60.8,84.2 	"/>
	<polyline points="109.6,86.4 114.1,84.2 109.6,81.9 110.7,84.2 	"/>
	<line class="st1" x1="60.8" y1="84.2" x2="110.7" y2="84.2"/>
	<g>
		<defs>
			<polygon id="SVGID_3_" points="57.4,59.4 57.4,34.6 114.1,34.6 114.1,84.2 57.4,84.2 			"/>
		</defs>
		<clipPath id="SVGID_4_">
			<use xlink:href="#SVGID_3_"  style="overflow:visible;"/>
		</clipPath>
		<path class="st17" d="M82.8,115.5L29.6,62.4 M85.9,112.4L32.7,59.2 M89,109.3L35.8,56.1 M92.1,106.1L39,53 M95.2,103L42.1,49.9
			 M98.4,99.9L45.2,46.8 M101.5,96.8L48.3,43.6 M104.6,93.7L51.4,40.5 M107.7,90.5L54.6,37.4 M110.8,87.4L57.7,34.3 M114,84.3
			L60.8,31.2 M117.1,81.2L63.9,28 M120.2,78.1L67,24.9 M123.3,74.9L70.2,21.8 M126.4,71.8L73.3,18.7 M129.6,68.7L76.4,15.6
			 M132.7,65.6L79.5,12.4 M135.8,62.5L82.6,9.3 M138.9,59.3L85.8,6.2"/>
	</g>
	<polygon class="st16" points="57.4,59.4 57.4,34.6 114.1,34.6 114.1,84.2 57.4,84.2 	"/>
	<g>
		<defs>
			<polygon id="SVGID_5_" points="298.3,55.8 298.3,31 355,31 355,80.6 298.3,80.6 			"/>
		</defs>
		<clipPath id="SVGID_6_">
			<use xlink:href="#SVGID_5_"  style="overflow:visible;"/>
		</clipPath>
		<path class="st18" d="M326.3,109.4l-53.1-53.1 M329.4,106.3l-53.1-53.1 M332.5,103.2L279.3,50 M335.6,100l-53.1-53.1 M338.7,96.9
			l-53.1-53.1 M341.9,93.8l-53.1-53.1 M345,90.7l-53.1-53.1 M348.1,87.6l-53.1-53.1 M351.2,84.4l-53.1-53.1 M354.3,81.3l-53.1-53.1
			 M357.5,78.2l-53.1-53.1 M360.6,75.1l-53.1-53.1 M363.7,72l-53.1-53.1 M366.8,68.8l-53.1-53.1 M369.9,65.7l-53.1-53.1 M373.1,62.6
			L319.9,9.5 M376.2,59.5L323,6.3 M379.3,56.4L326.1,3.2 M382.4,53.2L329.3,0.1"/>
	</g>
	<polygon class="st16" points="298.3,55.8 298.3,31 355,31 355,80.6 298.3,80.6 	"/>
	<g>
		<path class="st0" d="M248.7,188.6c-1.1,0-1.9-0.9-1.9-1.9c0-1,0.9-1.9,1.9-1.9c1,0,1.9,0.9,1.9,1.9S249.8,188.6,248.7,188.6z"/>
	</g>
	<line class="st12" x1="248.7" y1="194" x2="248.7" y2="186.9"/>
	<g>
		<defs>
			<polygon id="SVGID_7_" points="57.4,186.9 57.4,162.1 114.1,162.1 114.1,211.7 57.4,211.7 			"/>
		</defs>
		<clipPath id="SVGID_8_">
			<use xlink:href="#SVGID_7_"  style="overflow:visible;"/>
		</clipPath>
		<path class="st19" d="M84.1,241.7L31,188.5 M87.3,238.6l-53.1-53.1 M90.4,235.4l-53.1-53.1 M93.5,232.3l-53.1-53.1 M96.6,229.2
			l-53.1-53.1 M99.7,226.1l-53.1-53.1 M102.9,223l-53.1-53.1 M106,219.8l-53.1-53.1 M109.1,216.7l-53.1-53.1 M112.2,213.6
			l-53.1-53.1 M115.3,210.5l-53.1-53.1 M118.5,207.4l-53.1-53.1 M121.6,204.2l-53.1-53.1 M124.7,201.1L71.5,148 M127.8,198
			l-53.1-53.1 M130.9,194.9l-53.1-53.1 M134.1,191.8l-53.1-53.1 M137.2,188.6L84,135.5 M140.3,185.5l-53.1-53.1"/>
	</g>
	<polygon class="st16" points="57.4,186.9 57.4,162.1 114.1,162.1 114.1,211.7 57.4,211.7 	"/>
</g>
</svg>
