<?xml version="1.0" encoding="utf-8"?>
<!-- Generator: Adobe Illustrator 22.1.0, SVG Export Plug-In . SVG Version: 6.00 Build 0)  -->
<svg version="1.1" id="Layer_1" xmlns="http://www.w3.org/2000/svg" xmlns:xlink="http://www.w3.org/1999/xlink" x="0px" y="0px"
	 viewBox="0 0 421.5 261" style="enable-background:new 0 0 421.5 261;" xml:space="preserve">
<style type="text/css">
	.st0{fill:#1D1D1B;}
	.st1{fill:#0000FF;}
	.st2{fill:#FF0000;}
	.st3{fill:none;stroke:#000000;stroke-width:0.8504;stroke-miterlimit:10;}
	.st4{fill:none;stroke:#000000;stroke-width:0.8504;stroke-linecap:round;stroke-miterlimit:10;stroke-dasharray:0,3.1181;}
	.st5{fill:none;stroke:#0000FF;stroke-width:0.8504;stroke-miterlimit:10;}
	.st6{fill:none;stroke:#000000;stroke-width:0.8504;stroke-linecap:round;stroke-miterlimit:10;stroke-dasharray:0,3.6145;}
	.st7{fill:none;stroke:#000000;stroke-width:0.8504;stroke-linecap:round;stroke-miterlimit:10;stroke-dasharray:0,3.6144;}
	.st8{fill:none;stroke:#000000;stroke-width:0.2835;stroke-miterlimit:10;}
	.st9{fill:none;stroke:#FF0000;stroke-width:0.8504;stroke-linecap:round;stroke-miterlimit:10;stroke-dasharray:0,3.5054;}
	.st10{fill:none;stroke:#FF0000;stroke-width:0.8504;stroke-miterlimit:10;}
	.st11{fill:none;stroke:#0000FF;stroke-width:0.8504;stroke-linecap:round;stroke-miterlimit:10;stroke-dasharray:0,6.0266;}
	.st12{fill:none;stroke:#0000FF;stroke-width:0.8504;stroke-linecap:round;stroke-miterlimit:10;stroke-dasharray:0,6.0267;}
	.st13{fill:none;stroke:#000000;stroke-width:0.8504;stroke-linecap:round;stroke-miterlimit:10;stroke-dasharray:0,6.6413;}
</style>
<g>
	<g>
		<path class="st0" d="M194.5,16.6h-0.2c-0.2-1.4-0.4-1.9-1.9-1.9h-1.2c-0.5,0-0.5,0.1-0.5,0.4v2.5h0.9c1,0,1.1-0.3,1.1-1.2h0.2v2.6
			h-0.2c0-0.8-0.1-1.2-1.1-1.2h-0.9v2.5c0,0.3,0,0.5,0.9,0.5h0.3v0.3c-0.4,0-1.3,0-1.7,0c-0.4,0-1.2,0-1.5,0v-0.3h0.2
			c0.8,0,0.8-0.1,0.8-0.5v-5.2c0-0.4,0-0.5-0.8-0.5h-0.2v-0.3h5.5L194.5,16.6z"/>
		<path class="st0" d="M201.8,16.7h-0.2c-0.1-1.6-0.3-1.9-1.8-1.9c-0.2,0-0.5,0-0.6,0c-0.2,0-0.2,0.2-0.2,0.4v5.3c0,0.3,0,0.5,1,0.5
			h0.4v0.3c-0.4,0-1.4,0-1.9,0c-0.5,0-1.5,0-1.9,0v-0.3h0.4c1,0,1-0.1,1-0.5v-5.3c0-0.2,0-0.3-0.2-0.4c-0.1,0-0.4,0-0.5,0
			c-1.5,0-1.7,0.3-1.8,1.9h-0.2l0.2-2.2h6.1L201.8,16.7z"/>
	</g>
	<g>
		<path class="st0" d="M206.2,14.1c1,0,1.5,0.5,1.8,0.9l0.5-0.7c0.1-0.1,0.1-0.1,0.2-0.1c0.1,0,0.1,0.1,0.1,0.2v2.4
			c0,0.2,0,0.2-0.2,0.2c-0.1,0-0.1,0-0.2-0.2c-0.2-1.5-1.1-2.4-2.2-2.4c-0.6,0-2.6,0.3-2.6,3.3c0,3,2,3.3,2.6,3.3
			c1.1,0,2.2-0.8,2.2-2.2c0-0.1,0-0.2,0.1-0.2c0.1,0,0.1,0.1,0.1,0.2c0,1.2-1,2.5-2.6,2.5c-1.9,0-3.5-1.6-3.5-3.6
			C202.7,15.7,204.3,14.1,206.2,14.1z"/>
	</g>
	<g>
		<path class="st0" d="M202.2,27.5c-0.4-0.3-0.7-0.7-0.9-1c-0.4-0.7-0.5-1.3-0.5-1.3c0-0.1,0.1-0.1,0.2-0.1c0.2,0,0.2,0,0.2,0.1
			c0.4,1.7,1.6,2.2,2,2.3c0,0,0.1,0,0.1,0.1c0,0.1,0,0.1-0.1,0.1c-1.1,0.5-1.7,1.3-1.9,2.3c0,0.2,0,0.2-0.2,0.2
			c-0.1,0-0.2,0-0.2-0.1c0,0,0.1-0.6,0.5-1.3c0.1-0.1,0.3-0.5,0.9-1h-6.7c0.4,0.3,0.7,0.7,0.9,1c0.4,0.7,0.5,1.3,0.5,1.3
			c0,0.1-0.1,0.1-0.2,0.1c-0.2,0-0.2,0-0.2-0.1c-0.2-1.1-0.9-1.9-2-2.3c-0.1,0-0.1-0.1-0.1-0.1c0-0.1,0-0.1,0.1-0.1
			c1.1-0.5,1.7-1.3,1.9-2.3c0-0.2,0-0.2,0.2-0.2c0.1,0,0.2,0,0.2,0.1c0,0-0.1,0.6-0.5,1.3c-0.1,0.1-0.3,0.5-0.9,1H202.2z"/>
	</g>
	<g>
		<path class="st0" d="M194.5,73.3h-0.2c-0.2-1.4-0.4-1.9-1.9-1.9h-1.2c-0.5,0-0.5,0.1-0.5,0.4v2.5h0.9c1,0,1.1-0.3,1.1-1.2h0.2v2.6
			h-0.2c0-0.8-0.1-1.2-1.1-1.2h-0.9V77c0,0.3,0,0.5,0.9,0.5h0.3v0.3c-0.4,0-1.3,0-1.7,0c-0.4,0-1.2,0-1.5,0v-0.3h0.2
			c0.8,0,0.8-0.1,0.8-0.5v-5.2c0-0.4,0-0.5-0.8-0.5h-0.2V71h5.5L194.5,73.3z"/>
		<path class="st0" d="M201.8,73.3h-0.2c-0.1-1.6-0.3-1.9-1.8-1.9c-0.2,0-0.5,0-0.6,0c-0.2,0-0.2,0.2-0.2,0.4V77c0,0.3,0,0.5,1,0.5
			h0.4v0.3c-0.4,0-1.4,0-1.9,0c-0.5,0-1.5,0-1.9,0v-0.3h0.4c1,0,1-0.1,1-0.5v-5.3c0-0.2,0-0.3-0.2-0.4c-0.1,0-0.4,0-0.5,0
			c-1.5,0-1.7,0.3-1.8,1.9h-0.2l0.2-2.2h6.1L201.8,73.3z"/>
	</g>
	<g>
		<path class="st0" d="M206.2,70.8c1,0,1.5,0.5,1.8,0.9l0.5-0.7c0.1-0.1,0.1-0.1,0.2-0.1c0.1,0,0.1,0.1,0.1,0.2v2.4
			c0,0.2,0,0.2-0.2,0.2c-0.1,0-0.1,0-0.2-0.2c-0.2-1.5-1.1-2.4-2.2-2.4c-0.6,0-2.6,0.3-2.6,3.3c0,3,2,3.3,2.6,3.3
			c1.1,0,2.2-0.8,2.2-2.2c0-0.1,0-0.2,0.1-0.2c0.1,0,0.1,0.1,0.1,0.2c0,1.2-1,2.5-2.6,2.5c-1.9,0-3.5-1.6-3.5-3.6
			C202.7,72.4,204.3,70.8,206.2,70.8z"/>
	</g>
	<g>
		<path class="st0" d="M202.2,84.1c-0.4-0.3-0.7-0.7-0.9-1c-0.4-0.7-0.5-1.3-0.5-1.3c0-0.1,0.1-0.1,0.2-0.1c0.2,0,0.2,0,0.2,0.1
			c0.4,1.7,1.6,2.2,2,2.3c0,0,0.1,0,0.1,0.1c0,0.1,0,0.1-0.1,0.1c-1.1,0.5-1.7,1.3-1.9,2.3c0,0.2,0,0.2-0.2,0.2
			c-0.1,0-0.2,0-0.2-0.1c0,0,0.1-0.6,0.5-1.3c0.1-0.1,0.3-0.5,0.9-1h-6.7c0.4,0.3,0.7,0.7,0.9,1c0.4,0.7,0.5,1.3,0.5,1.3
			c0,0.1-0.1,0.1-0.2,0.1c-0.2,0-0.2,0-0.2-0.1c-0.2-1.1-0.9-1.9-2-2.3c-0.1,0-0.1-0.1-0.1-0.1c0-0.1,0-0.1,0.1-0.1
			c1.1-0.5,1.7-1.3,1.9-2.3c0-0.2,0-0.2,0.2-0.2c0.1,0,0.2,0,0.2,0.1c0,0-0.1,0.6-0.5,1.3c-0.1,0.1-0.3,0.5-0.9,1H202.2z"/>
	</g>
	<g>
		<path class="st0" d="M194.5,115.8h-0.2c-0.2-1.4-0.4-1.9-1.9-1.9h-1.2c-0.5,0-0.5,0.1-0.5,0.4v2.5h0.9c1,0,1.1-0.3,1.1-1.2h0.2
			v2.6h-0.2c0-0.8-0.1-1.2-1.1-1.2h-0.9v2.5c0,0.3,0,0.5,0.9,0.5h0.3v0.3c-0.4,0-1.3,0-1.7,0c-0.4,0-1.2,0-1.5,0V120h0.2
			c0.8,0,0.8-0.1,0.8-0.5v-5.2c0-0.4,0-0.5-0.8-0.5h-0.2v-0.3h5.5L194.5,115.8z"/>
		<path class="st0" d="M201.8,115.8h-0.2c-0.1-1.6-0.3-1.9-1.8-1.9c-0.2,0-0.5,0-0.6,0c-0.2,0-0.2,0.2-0.2,0.4v5.3
			c0,0.3,0,0.5,1,0.5h0.4v0.3c-0.4,0-1.4,0-1.9,0c-0.5,0-1.5,0-1.9,0V120h0.4c1,0,1-0.1,1-0.5v-5.3c0-0.2,0-0.3-0.2-0.4
			c-0.1,0-0.4,0-0.5,0c-1.5,0-1.7,0.3-1.8,1.9h-0.2l0.2-2.2h6.1L201.8,115.8z"/>
	</g>
	<g>
		<path class="st0" d="M206.2,113.3c1,0,1.5,0.5,1.8,0.9l0.5-0.7c0.1-0.1,0.1-0.1,0.2-0.1c0.1,0,0.1,0.1,0.1,0.2v2.4
			c0,0.2,0,0.2-0.2,0.2c-0.1,0-0.1,0-0.2-0.2c-0.2-1.5-1.1-2.4-2.2-2.4c-0.6,0-2.6,0.3-2.6,3.3c0,3,2,3.3,2.6,3.3
			c1.1,0,2.2-0.8,2.2-2.2c0-0.1,0-0.2,0.1-0.2c0.1,0,0.1,0.1,0.1,0.2c0,1.2-1,2.5-2.6,2.5c-1.9,0-3.5-1.6-3.5-3.6
			C202.7,114.9,204.3,113.3,206.2,113.3z"/>
	</g>
	<g>
		<path class="st0" d="M202.2,126.7c-0.4-0.3-0.7-0.7-0.9-1c-0.4-0.7-0.5-1.3-0.5-1.3c0-0.1,0.1-0.1,0.2-0.1c0.2,0,0.2,0,0.2,0.1
			c0.4,1.7,1.6,2.2,2,2.3c0,0,0.1,0,0.1,0.1c0,0.1,0,0.1-0.1,0.1c-1.1,0.5-1.7,1.3-1.9,2.3c0,0.2,0,0.2-0.2,0.2
			c-0.1,0-0.2,0-0.2-0.1c0,0,0.1-0.6,0.5-1.3c0.1-0.1,0.3-0.5,0.9-1h-6.7c0.4,0.3,0.7,0.7,0.9,1c0.4,0.7,0.5,1.3,0.5,1.3
			c0,0.1-0.1,0.1-0.2,0.1c-0.2,0-0.2,0-0.2-0.1c-0.2-1.1-0.9-1.9-2-2.3c-0.1,0-0.1-0.1-0.1-0.1c0-0.1,0-0.1,0.1-0.1
			c1.1-0.5,1.7-1.3,1.9-2.3c0-0.2,0-0.2,0.2-0.2c0.1,0,0.2,0,0.2,0.1c0,0-0.1,0.6-0.5,1.3c-0.1,0.1-0.3,0.5-0.9,1H202.2z"/>
	</g>
	<g>
		<path class="st1" d="M194.3,165.5h-0.2c-0.2-1.4-0.4-1.9-1.9-1.9H191c-0.5,0-0.5,0.1-0.5,0.4v2.5h0.9c1,0,1.1-0.3,1.1-1.2h0.2v2.6
			h-0.2c0-0.8-0.1-1.2-1.1-1.2h-0.9v2.5c0,0.3,0,0.5,0.9,0.5h0.3v0.3c-0.4,0-1.3,0-1.7,0c-0.4,0-1.2,0-1.5,0v-0.3h0.2
			c0.8,0,0.8-0.1,0.8-0.5V164c0-0.4,0-0.5-0.8-0.5h-0.2v-0.3h5.5L194.3,165.5z"/>
		<path class="st1" d="M201.5,165.5h-0.2c-0.1-1.6-0.3-1.9-1.8-1.9c-0.2,0-0.5,0-0.6,0c-0.2,0-0.2,0.2-0.2,0.4v5.3
			c0,0.3,0,0.5,1,0.5h0.4v0.3c-0.4,0-1.4,0-1.9,0c-0.5,0-1.5,0-1.9,0v-0.3h0.4c1,0,1-0.1,1-0.5v-5.3c0-0.2,0-0.3-0.2-0.4
			c-0.1,0-0.4,0-0.5,0c-1.5,0-1.7,0.3-1.8,1.9h-0.2l0.2-2.2h6.1L201.5,165.5z"/>
	</g>
	<g>
		<path class="st1" d="M205.9,163.2c1.7,0,3,1.6,3,3.5c0,1.9-1.4,3.3-3,3.3h-3.6v-0.3h0.2c0.8,0,0.8-0.1,0.8-0.5V164
			c0-0.4,0-0.5-0.8-0.5h-0.2v-0.3H205.9z M205.6,169.7c1,0,1.6-0.6,1.8-0.8c0.4-0.5,0.5-1.1,0.5-2.2c0-0.8-0.1-1.6-0.5-2.2
			c-0.5-0.7-1.2-0.9-1.8-0.9h-1c-0.5,0-0.5,0.1-0.5,0.4v5.4c0,0.3,0,0.4,0.5,0.4H205.6z"/>
	</g>
	<g>
		<path class="st0" d="M202.2,176.3c-0.4-0.3-0.7-0.7-0.9-1c-0.4-0.7-0.5-1.3-0.5-1.3c0-0.1,0.1-0.1,0.2-0.1c0.2,0,0.2,0,0.2,0.1
			c0.4,1.7,1.6,2.2,2,2.3c0,0,0.1,0,0.1,0.1c0,0.1,0,0.1-0.1,0.1c-1.1,0.5-1.7,1.3-1.9,2.3c0,0.2,0,0.2-0.2,0.2
			c-0.1,0-0.2,0-0.2-0.1c0,0,0.1-0.6,0.5-1.3c0.1-0.1,0.3-0.5,0.9-1h-6.7c0.4,0.3,0.7,0.7,0.9,1c0.4,0.7,0.5,1.3,0.5,1.3
			c0,0.1-0.1,0.1-0.2,0.1c-0.2,0-0.2,0-0.2-0.1c-0.2-1.1-0.9-1.9-2-2.3c-0.1,0-0.1-0.1-0.1-0.1c0-0.1,0-0.1,0.1-0.1
			c1.1-0.5,1.7-1.3,1.9-2.3c0-0.2,0-0.2,0.2-0.2c0.1,0,0.2,0,0.2,0.1c0,0-0.1,0.6-0.5,1.3c-0.1,0.1-0.3,0.5-0.9,1H202.2z"/>
	</g>
	<g>
		<path class="st2" d="M192.2,212.7c1.7,0,3,1.6,3,3.5c0,1.9-1.4,3.3-3,3.3h-3.6v-0.3h0.2c0.8,0,0.8-0.1,0.8-0.5v-5.3
			c0-0.4,0-0.5-0.8-0.5h-0.2v-0.3H192.2z M191.9,219.2c1,0,1.6-0.6,1.8-0.8c0.4-0.5,0.5-1.1,0.5-2.2c0-0.8-0.1-1.6-0.5-2.2
			c-0.5-0.7-1.2-0.9-1.8-0.9h-1c-0.5,0-0.5,0.1-0.5,0.4v5.4c0,0.3,0,0.4,0.5,0.4H191.9z"/>
		<path class="st2" d="M201.9,215h-0.2c-0.2-1.4-0.4-1.9-1.9-1.9h-1.2c-0.5,0-0.5,0.1-0.5,0.4v2.5h0.9c1,0,1.1-0.3,1.1-1.2h0.2v2.6
			h-0.2c0-0.8-0.1-1.2-1.1-1.2H198v2.5c0,0.3,0,0.5,0.9,0.5h0.3v0.3c-0.4,0-1.3,0-1.7,0c-0.4,0-1.2,0-1.5,0v-0.3h0.2
			c0.8,0,0.8-0.1,0.8-0.5v-5.2c0-0.4,0-0.5-0.8-0.5h-0.2v-0.3h5.5L201.9,215z"/>
	</g>
	<g>
		<path class="st2" d="M209.1,215h-0.2c-0.1-1.6-0.3-1.9-1.8-1.9c-0.2,0-0.5,0-0.6,0c-0.2,0-0.2,0.2-0.2,0.4v5.3c0,0.3,0,0.5,1,0.5
			h0.4v0.3c-0.4,0-1.4,0-1.9,0c-0.5,0-1.5,0-1.9,0v-0.3h0.4c1,0,1-0.1,1-0.5v-5.3c0-0.2,0-0.3-0.2-0.4c-0.1,0-0.4,0-0.5,0
			c-1.5,0-1.7,0.3-1.8,1.9h-0.2l0.2-2.2h6.1L209.1,215z"/>
	</g>
	<g>
		<path class="st0" d="M202.2,236.5c-0.4-0.3-0.7-0.7-0.9-1c-0.4-0.7-0.5-1.3-0.5-1.3c0-0.1,0.1-0.1,0.2-0.1c0.2,0,0.2,0,0.2,0.1
			c0.4,1.7,1.6,2.2,2,2.3c0,0,0.1,0,0.1,0.1c0,0.1,0,0.1-0.1,0.1c-1.1,0.5-1.7,1.3-1.9,2.3c0,0.2,0,0.2-0.2,0.2
			c-0.1,0-0.2,0-0.2-0.1c0,0,0.1-0.6,0.5-1.3c0.1-0.1,0.3-0.5,0.9-1h-6.7c0.4,0.3,0.7,0.7,0.9,1c0.4,0.7,0.5,1.3,0.5,1.3
			c0,0.1-0.1,0.1-0.2,0.1c-0.2,0-0.2,0-0.2-0.1c-0.2-1.1-0.9-1.9-2-2.3c-0.1,0-0.1-0.1-0.1-0.1c0-0.1,0-0.1,0.1-0.1
			c1.1-0.5,1.7-1.3,1.9-2.3c0-0.2,0-0.2,0.2-0.2c0.1,0,0.2,0,0.2,0.1c0,0-0.1,0.6-0.5,1.3c-0.1,0.1-0.3,0.5-0.9,1H202.2z"/>
	</g>
	<g>
		<path class="st0" d="M181.5,231.8c-0.1,0-1-0.6-1.6-1.9c-0.5-1.1-0.7-2.3-0.7-3.1c0-0.8,0.1-1.9,0.6-3c0.6-1.3,1.5-1.9,1.6-1.9
			c0.1,0,0.1,0,0.1,0.1c0,0,0,0-0.1,0.2c-1.2,1.2-1.6,3-1.6,4.7c0,1.5,0.3,3.4,1.6,4.7C181.6,231.6,181.6,231.6,181.5,231.8
			C181.6,231.7,181.5,231.8,181.5,231.8z"/>
		<path class="st0" d="M187.9,227.8v-4.3c0-0.3,0-0.7-1-0.7v-0.3c0.3,0,0.8,0,1.2,0c0.3,0,0.8,0,1.2,0v0.3c-1,0-1,0.5-1,0.7v5.5
			c0,0.2,0,0.3-0.1,0.3c-0.1,0-0.1,0-0.2-0.1l-4.1-6c0-0.1,0-0.1-0.1-0.1v5.2c0,0.3,0,0.7,1,0.7v0.3c-0.3,0-0.8,0-1.2,0
			s-0.8,0-1.2,0V229c1,0,1-0.5,1-0.7V223c0-0.2,0-0.2-0.2-0.2c-0.1,0-0.3,0-0.5,0h-0.3v-0.3h1.7c0.2,0,0.2,0,0.3,0.1L187.9,227.8z"
			/>
	</g>
	<g>
		<path class="st0" d="M196,224.9c1.1,0,2.1,1,2.1,2.3c0,1.3-1,2.3-2.2,2.3c-0.8,0-1.2-0.5-1.2-0.7v0.1v1.7c0,0.4,0.1,0.4,0.8,0.4
			v0.3c-0.3,0-0.9,0-1.1,0c-0.3,0-0.8,0-1.1,0v-0.3c0.7,0,0.8,0,0.8-0.4v-4.7c0-0.4-0.1-0.5-0.8-0.5V225l1.4-0.1v0.7
			C194.8,225.3,195.2,224.9,196,224.9z M194.8,228.5c0.3,0.4,0.6,0.6,1,0.6c0.7,0,1.4-0.8,1.4-2c0-1.1-0.6-2-1.3-2
			c-0.5,0-1,0.3-1.3,0.8v2.2C194.6,228.3,194.6,228.3,194.8,228.5z"/>
		<path class="st0" d="M201.1,229.4c-1.2,0-2.2-1-2.2-2.2c0-1.2,1-2.3,2.2-2.3c1.2,0,2.2,1.1,2.2,2.3
			C203.4,228.4,202.3,229.4,201.1,229.4z M202.3,228.4c0.2-0.4,0.2-1,0.2-1.3c0-0.4,0-1-0.3-1.4c-0.3-0.4-0.7-0.6-1.1-0.6
			c-0.4,0-0.9,0.2-1.1,0.7c-0.2,0.4-0.2,1-0.2,1.4c0,0.4,0,1,0.2,1.4c0.3,0.5,0.7,0.7,1.1,0.7C201.6,229.1,202.1,228.8,202.3,228.4z
			"/>
	</g>
	<g>
		<path class="st0" d="M205.5,228.5c0,0.4,0,0.4,0.7,0.4v0.3c-0.3,0-0.7,0-1,0c-0.2,0-0.8,0-1.1,0V229c0.7,0,0.8,0,0.8-0.4v-2.7
			c0-0.5-0.1-0.5-0.7-0.5V225l1.4-0.1V228.5z M205,223.7c-0.3,0-0.5-0.3-0.5-0.5c0-0.3,0.2-0.5,0.5-0.5c0.3,0,0.5,0.2,0.5,0.5
			C205.5,223.4,205.3,223.7,205,223.7z"/>
		<path class="st0" d="M206.8,225.3V225l1.4-0.1v1c0.3-0.6,0.7-1,1.5-1c0.6,0,0.9,0.2,1,0.4c0.3,0.4,0.3,0.7,0.3,1.5v1.9
			c0,0.3,0.3,0.3,0.8,0.3v0.3c-0.3,0-0.9,0-1.1,0c-0.3,0-0.8,0-1.1,0V229c0.7,0,0.8,0,0.8-0.4v-2.3c0-0.6-0.1-1.1-0.7-1.1
			c-0.6,0-1.3,0.6-1.3,1.6v1.8c0,0.4,0.1,0.4,0.8,0.4v0.3c-0.3,0-0.9,0-1.1,0c-0.3,0-0.8,0-1.1,0V229c0.7,0,0.8,0,0.8-0.4v-2.7
			C207.6,225.3,207.5,225.3,206.8,225.3z"/>
	</g>
	<g>
		<path class="st0" d="M213.5,228c0,0.2,0,1.1,0.7,1.1c0.4,0,0.7-0.4,0.7-1.1v-0.5h0.2v0.6c0,0.6-0.3,1.3-1,1.3
			c-0.4,0-1.3-0.1-1.3-1.3v-2.8h-0.8v-0.2c1,0,1.3-1.1,1.3-1.9h0.2v1.8h1.4v0.3h-1.4V228z"/>
		<path class="st0" d="M217.8,229.8c-0.6,1.3-1.5,1.9-1.6,1.9c-0.1,0-0.1,0-0.1-0.1c0,0,0,0,0.1-0.2c1.2-1.3,1.6-3,1.6-4.7
			c0-2.1-0.6-3.7-1.5-4.7c-0.2-0.2-0.2-0.2-0.2-0.2c0-0.1,0-0.1,0.1-0.1c0.1,0,1,0.6,1.6,1.9c0.5,1.1,0.7,2.3,0.7,3.1
			C218.5,227.6,218.3,228.7,217.8,229.8z"/>
	</g>
	<polyline points="166,48.3 170.5,46.1 166,43.8 167.1,46.1 	"/>
	<line class="st3" x1="0.4" y1="46.1" x2="167.1" y2="46.1"/>
	<polyline points="87.7,4.5 85.5,0 83.2,4.5 85.5,3.4 	"/>
	<path class="st3" d="M85.5,46.1l0-42.7 M0.4,42.5c0,0,23.3-1.4,35.4-3.5c9.9-1.7,19.8-1.8,28.3-7.1C73.7,26,85.5,7.1,85.5,7.1l0,0
		 M170.5,42.5c0,0-23.3-1.4-35.4-3.5c-9.9-1.7-19.8-1.8-28.3-7.1C97.2,26,85.5,7.1,85.5,7.1l0,0 M81.9,7.1H89"/>
	<g>
		<path class="st0" d="M72.9,3.5c0.1-0.1,0.1-0.2,0.3-0.2c0.2,0,0.2,0,0.2,0.2l0.6,6.2c0,0.3,0,0.4,0.6,0.4c0.1,0,0.2,0,0.2,0.1
			c0,0.2-0.1,0.2-0.2,0.2c-0.2,0-0.9,0-1.1,0c-0.4,0-0.8,0-1.2,0c0,0-0.1,0-0.1-0.1c0-0.2,0.1-0.2,0.2-0.2c0.2,0,0.7,0,0.7-0.3
			c0-0.1-0.1-1.5-0.2-1.7h-2.5l-0.8,1.3c-0.1,0.1-0.1,0.2-0.1,0.4c0,0.2,0.2,0.3,0.5,0.3c0.1,0,0.2,0,0.2,0.1c0,0.2-0.1,0.2-0.2,0.2
			c-0.3,0-0.7,0-1,0c-0.3,0-0.6,0-0.9,0c-0.1,0-0.1,0-0.1-0.1c0-0.2,0.1-0.2,0.2-0.2c0.4,0,0.8-0.2,1.2-0.8L72.9,3.5z M72.9,7.9
			l-0.3-3.3l-2,3.3H72.9z"/>
	</g>
	<g>
		<path class="st0" d="M177.2,48.1c0,0.2-0.1,0.2-0.1,0.5c0,0.3,0.1,0.5,0.3,0.5c0.3,0,0.9-0.2,1.3-1.3c0-0.1,0.1-0.1,0.1-0.1
			c0,0,0.1,0,0.1,0.1c0,0.1-0.6,1.5-1.6,1.5c-0.5,0-0.9-0.4-0.9-0.9c0-0.2,0-0.3,0.8-3.2h-0.9c-0.2,0-0.3,0-0.3-0.1
			c0-0.2,0.1-0.2,0.3-0.2h0.9l0.4-1.6c0.1-0.3,0.4-0.4,0.4-0.4c0.2,0,0.3,0.1,0.3,0.3c0,0.1,0,0.3-0.4,1.7h0.9c0.2,0,0.3,0,0.3,0.1
			c0,0.2-0.1,0.2-0.3,0.2h-0.9L177.2,48.1z"/>
	</g>
	<g>
		<path class="st0" d="M96.7,5.9c0.4-0.5,0.8-0.8,1.5-0.8c0.7,0,1.1,0.4,1.1,1.1c0,0.6-0.4,1.8-0.6,2.2c-0.1,0.2-0.2,0.5-0.2,0.7
			c0,0.2,0.1,0.3,0.2,0.3c0.5,0,0.9-0.7,1-1.2c0-0.1,0-0.2,0.1-0.2c0,0,0.1,0,0.1,0.1c0,0.1-0.4,1.5-1.3,1.5c-0.5,0-0.8-0.3-0.8-0.8
			c0-0.2,0-0.3,0.1-0.5c0.2-0.6,0.6-1.7,0.6-2.2c0-0.4-0.1-0.7-0.5-0.7c-0.4,0-0.7,0.2-1,0.3c-0.3,0.3-0.6,0.8-0.7,0.9
			c0,0.1-0.1,0.4-0.1,0.4c0,0.2-0.1,0.4-0.2,0.7L96,8.6l-0.2,0.8c0,0.1-0.2,0.3-0.4,0.3c-0.1,0-0.3,0-0.3-0.3c0-0.1,0-0.1,0-0.2
			l1.4-5.7l0-0.2c0-0.1,0-0.2-0.5-0.2c-0.1,0-0.2,0-0.2-0.1c0-0.2,0.1-0.2,0.2-0.2c0.3,0,1-0.1,1.2-0.1c0.1,0,0.1,0.1,0.1,0.1
			L96.7,5.9z"/>
	</g>
	<g>
		<path class="st0" d="M103.6,12c-0.1,0-1-0.6-1.6-1.9c-0.5-1.1-0.7-2.3-0.7-3.1c0-0.8,0.1-1.9,0.6-3c0.6-1.3,1.5-1.9,1.6-1.9
			c0.1,0,0.1,0,0.1,0.1c0,0,0,0-0.1,0.2c-1.2,1.2-1.6,3-1.6,4.7c0,1.5,0.3,3.4,1.6,4.7C103.7,11.9,103.7,11.9,103.6,12
			C103.7,12,103.6,12,103.6,12z"/>
	</g>
	<g>
		<path class="st0" d="M105.5,8.5c0,0.2-0.1,0.2-0.1,0.5c0,0.3,0.1,0.5,0.3,0.5c0.3,0,0.9-0.2,1.3-1.3c0-0.1,0.1-0.1,0.1-0.1
			c0,0,0.1,0,0.1,0.1c0,0.1-0.6,1.5-1.6,1.5c-0.5,0-0.9-0.4-0.9-0.9c0-0.2,0-0.3,0.8-3.2h-0.9c-0.2,0-0.3,0-0.3-0.1
			c0-0.2,0.1-0.2,0.3-0.2h0.9l0.4-1.6c0.1-0.3,0.4-0.4,0.4-0.4c0.2,0,0.3,0.1,0.3,0.3c0,0.1,0,0.3-0.4,1.7h0.9c0.2,0,0.3,0,0.3,0.1
			c0,0.2-0.1,0.2-0.3,0.2h-0.9L105.5,8.5z"/>
	</g>
	<g>
		<path class="st0" d="M110.1,10.1c-0.6,1.3-1.5,1.9-1.6,1.9c-0.1,0-0.1,0-0.1-0.1c0,0,0-0.1,0.1-0.2c1.2-1.3,1.6-3,1.6-4.7
			c0-2.1-0.6-3.7-1.5-4.7c-0.2-0.2-0.2-0.2-0.2-0.2c0-0.1,0-0.1,0.1-0.1c0.1,0,1,0.6,1.6,1.9c0.5,1.1,0.7,2.3,0.7,3.1
			C110.7,7.9,110.6,9,110.1,10.1z"/>
	</g>
	<path class="st4" d="M99.6,39v7.1 M113.8,39v7.1 M128,39v7.1 M142.2,39v7.1 M156.3,39v7.1 M14.6,39v7.1 M28.8,39v7.1 M42.9,39v7.1
		 M57.1,39v7.1 M71.3,39v7.1"/>
	<g>
		<path class="st0" d="M120.2,23.9c0,0.1,0,0.2,0,0.2c0,0.2,0.1,0.2,0.4,0.2c0.3,0,0.4,0,0.6,0c0.3,0,0.3,0,0.3,0.1
			c0,0.2-0.1,0.2-0.2,0.2c-0.3,0-0.6,0-0.9,0c-0.3,0-0.5,0-0.8,0c-0.3,0-0.6,0-0.8,0c-0.3,0-0.5,0-0.8,0c-0.1,0-0.2,0-0.2-0.1
			c0-0.2,0.1-0.2,0.4-0.2c1.1,0,1.1-0.1,1.2-0.5l1.3-5.3c0,0,0-0.1,0-0.2c0-0.1,0-0.1-0.3-0.1h-0.4c-1.5,0-1.7,0.2-2.3,1.7
			c-0.1,0.2-0.1,0.2-0.2,0.2c-0.1,0-0.1,0-0.1-0.1c0,0,0-0.2,0.1-0.2l0.6-1.8c0.1-0.2,0.1-0.2,0.3-0.2h5.5c0.2,0,0.3,0,0.3,0.1
			c0,0,0,0.1,0,0.2l-0.3,1.7c0,0.1,0,0.2-0.1,0.2c-0.1,0-0.1-0.1-0.1-0.1c0,0,0-0.1,0-0.2c0-0.3,0.1-0.6,0.1-0.8
			c0-0.8-0.4-0.8-1.5-0.8c-0.2,0-0.5,0-0.6,0c-0.1,0-0.2,0.1-0.2,0.4L120.2,23.9z"/>
	</g>
	<polyline points="118.3,26.1 113.8,28.3 118.3,30.6 117.2,28.3 	"/>
	<polyline points="123.4,30.6 128,28.3 123.4,26.1 124.6,28.3 	"/>
	<path class="st3" d="M117.2,28.3h7.4 M81.9,106.3H89"/>
	<g>
		<path class="st0" d="M72.9,102.8c0.1-0.1,0.1-0.2,0.3-0.2c0.2,0,0.2,0,0.2,0.2l0.6,6.2c0,0.3,0,0.4,0.6,0.4c0.1,0,0.2,0,0.2,0.1
			c0,0.2-0.1,0.2-0.2,0.2c-0.2,0-0.9,0-1.1,0c-0.4,0-0.8,0-1.2,0c0,0-0.1,0-0.1-0.1c0-0.2,0.1-0.2,0.2-0.2c0.2,0,0.7,0,0.7-0.3
			c0-0.1-0.1-1.5-0.2-1.7h-2.5l-0.8,1.3c-0.1,0.1-0.1,0.2-0.1,0.4c0,0.2,0.2,0.3,0.5,0.3c0.1,0,0.2,0,0.2,0.1c0,0.2-0.1,0.2-0.2,0.2
			c-0.3,0-0.7,0-1,0c-0.3,0-0.6,0-0.9,0c-0.1,0-0.1,0-0.1-0.1c0-0.2,0.1-0.2,0.2-0.2c0.4,0,0.8-0.2,1.2-0.8L72.9,102.8z M72.9,107.1
			l-0.3-3.3l-2,3.3H72.9z"/>
	</g>
	<g>
		<path class="st0" d="M98.1,101.4c-0.2,0-0.3-0.1-0.6-0.2c-0.2-0.1-0.4-0.2-0.6-0.2c-0.4,0-0.8,0.5-0.8,0.5l-0.2-0.1
			c0.5-0.6,0.7-0.8,1.1-0.8c0.2,0,0.3,0.1,0.6,0.2c0.2,0.1,0.4,0.2,0.6,0.2c0.4,0,0.8-0.5,0.8-0.5l0.2,0.1
			C98.6,101.2,98.4,101.4,98.1,101.4z"/>
	</g>
	<g>
		<path class="st0" d="M96.9,106.1c0.4-0.5,0.8-0.8,1.5-0.8c0.7,0,1.1,0.4,1.1,1.1c0,0.6-0.4,1.8-0.6,2.2c-0.1,0.2-0.2,0.5-0.2,0.7
			c0,0.2,0.1,0.3,0.2,0.3c0.5,0,0.9-0.7,1-1.2c0-0.1,0-0.2,0.1-0.2c0,0,0.1,0,0.1,0.1c0,0.1-0.4,1.5-1.3,1.5c-0.5,0-0.8-0.3-0.8-0.8
			c0-0.2,0-0.3,0.1-0.5c0.2-0.6,0.6-1.7,0.6-2.2c0-0.4-0.1-0.7-0.5-0.7c-0.4,0-0.7,0.2-1,0.3c-0.3,0.3-0.6,0.8-0.7,0.9
			c0,0.1-0.1,0.4-0.1,0.4c0,0.2-0.1,0.4-0.2,0.7l-0.2,0.9l-0.2,0.8c0,0.1-0.2,0.3-0.4,0.3c-0.1,0-0.3,0-0.3-0.3c0-0.1,0-0.1,0-0.2
			l1.4-5.7l0-0.2c0-0.1,0-0.2-0.5-0.2c-0.1,0-0.2,0-0.2-0.1c0-0.2,0.1-0.2,0.2-0.2c0.3,0,1-0.1,1.2-0.1c0.1,0,0.1,0.1,0.1,0.1
			L96.9,106.1z"/>
	</g>
	<g>
		<path class="st0" d="M103.8,112.2c-0.1,0-1-0.6-1.6-1.9c-0.5-1.1-0.7-2.3-0.7-3.1c0-0.8,0.1-1.9,0.6-3c0.6-1.3,1.5-1.9,1.6-1.9
			c0.1,0,0.1,0,0.1,0.1c0,0,0,0-0.1,0.2c-1.2,1.2-1.6,3-1.6,4.7c0,1.5,0.3,3.4,1.6,4.7C103.9,112.1,103.9,112.1,103.8,112.2
			C103.9,112.2,103.9,112.2,103.8,112.2z"/>
	</g>
	<g>
		<path class="st0" d="M105.8,108.7c0,0.2-0.1,0.2-0.1,0.5c0,0.3,0.1,0.5,0.3,0.5c0.3,0,0.9-0.2,1.3-1.3c0-0.1,0.1-0.1,0.1-0.1
			c0,0,0.1,0,0.1,0.1c0,0.1-0.6,1.5-1.6,1.5c-0.5,0-0.9-0.4-0.9-0.9c0-0.2,0-0.3,0.8-3.2H105c-0.2,0-0.3,0-0.3-0.1
			c0-0.2,0.1-0.2,0.3-0.2h0.9l0.4-1.6c0.1-0.3,0.4-0.4,0.4-0.4c0.2,0,0.3,0.1,0.3,0.3c0,0.1,0,0.3-0.4,1.7h0.9c0.2,0,0.3,0,0.3,0.1
			c0,0.2-0.1,0.2-0.3,0.2h-0.9L105.8,108.7z"/>
	</g>
	<g>
		<path class="st0" d="M110.3,110.3c-0.6,1.3-1.5,1.9-1.6,1.9c-0.1,0-0.1,0-0.1-0.1c0,0,0-0.1,0.1-0.2c1.2-1.3,1.6-3,1.6-4.7
			c0-2.1-0.6-3.7-1.5-4.7c-0.2-0.2-0.2-0.2-0.2-0.2c0-0.1,0-0.1,0.1-0.1c0.1,0,1,0.6,1.6,1.9c0.5,1.1,0.7,2.3,0.7,3.1
			C110.9,108.1,110.8,109.2,110.3,110.3z"/>
		<path class="st0" d="M115.5,106.5c-0.1,0-0.3,0-0.3-0.2s0.2-0.2,0.3-0.2h6c0.1,0,0.3,0,0.3,0.2s-0.2,0.2-0.3,0.2H115.5z
			 M115.5,108.4c-0.1,0-0.3,0-0.3-0.2s0.2-0.2,0.3-0.2h5.9c0.1,0,0.3,0,0.3,0.2s-0.2,0.2-0.3,0.2H115.5z"/>
	</g>
	<g>
		<path class="st0" d="M127.3,106.1c0.4-0.5,0.8-0.8,1.5-0.8c0.7,0,1.1,0.4,1.1,1.1c0,0.6-0.4,1.8-0.6,2.2c-0.1,0.2-0.2,0.5-0.2,0.7
			c0,0.2,0.1,0.3,0.2,0.3c0.5,0,0.9-0.7,1-1.2c0-0.1,0-0.2,0.1-0.2c0,0,0.1,0,0.1,0.1c0,0.1-0.4,1.5-1.3,1.5c-0.5,0-0.8-0.3-0.8-0.8
			c0-0.2,0-0.3,0.1-0.5c0.2-0.6,0.6-1.7,0.6-2.2c0-0.4-0.1-0.7-0.5-0.7c-0.4,0-0.7,0.2-1,0.3c-0.3,0.3-0.6,0.8-0.7,0.9
			c0,0.1-0.1,0.4-0.1,0.4c0,0.2-0.1,0.4-0.2,0.7l-0.2,0.9l-0.2,0.8c0,0.1-0.2,0.3-0.4,0.3c-0.1,0-0.3,0-0.3-0.3c0-0.1,0-0.1,0-0.2
			l1.4-5.7l0-0.2c0-0.1,0-0.2-0.5-0.2c-0.1,0-0.2,0-0.2-0.1c0-0.2,0.1-0.2,0.2-0.2c0.3,0,1-0.1,1.2-0.1c0.1,0,0.1,0.1,0.1,0.1
			L127.3,106.1z"/>
	</g>
	<g>
		<path class="st0" d="M134.2,112.2c-0.1,0-1-0.6-1.6-1.9c-0.5-1.1-0.7-2.3-0.7-3.1c0-0.8,0.1-1.9,0.6-3c0.6-1.3,1.5-1.9,1.6-1.9
			c0.1,0,0.1,0,0.1,0.1c0,0,0,0-0.1,0.2c-1.2,1.2-1.6,3-1.6,4.7c0,1.5,0.3,3.4,1.6,4.7C134.3,112.1,134.3,112.1,134.2,112.2
			C134.3,112.2,134.2,112.2,134.2,112.2z"/>
	</g>
	<g>
		<path class="st0" d="M136.1,108.7c0,0.2-0.1,0.2-0.1,0.5c0,0.3,0.1,0.5,0.3,0.5c0.3,0,0.9-0.2,1.3-1.3c0-0.1,0.1-0.1,0.1-0.1
			c0,0,0.1,0,0.1,0.1c0,0.1-0.6,1.5-1.6,1.5c-0.5,0-0.9-0.4-0.9-0.9c0-0.2,0-0.3,0.8-3.2h-0.9c-0.2,0-0.3,0-0.3-0.1
			c0-0.2,0.1-0.2,0.3-0.2h0.9l0.4-1.6c0.1-0.3,0.4-0.4,0.4-0.4c0.2,0,0.3,0.1,0.3,0.3c0,0.1,0,0.3-0.4,1.7h0.9c0.2,0,0.3,0,0.3,0.1
			c0,0.2-0.1,0.2-0.3,0.2h-0.9L136.1,108.7z"/>
	</g>
	<g>
		<path class="st0" d="M140.7,110.3c-0.6,1.3-1.5,1.9-1.6,1.9c-0.1,0-0.1,0-0.1-0.1c0,0,0-0.1,0.1-0.2c1.2-1.3,1.6-3,1.6-4.7
			c0-2.1-0.6-3.7-1.5-4.7c-0.2-0.2-0.2-0.2-0.2-0.2c0-0.1,0-0.1,0.1-0.1c0.1,0,1,0.6,1.6,1.9c0.5,1.1,0.7,2.3,0.7,3.1
			C141.3,108.1,141.2,109.2,140.7,110.3z"/>
	</g>
	<g>
		<path class="st0" d="M145.9,107.8c-0.3,0-0.5-0.2-0.5-0.5c0-0.3,0.2-0.5,0.5-0.5c0.3,0,0.5,0.2,0.5,0.5
			C146.4,107.5,146.2,107.8,145.9,107.8z"/>
	</g>
	<g>
		<path class="st0" d="M153.6,108c0,0.1-0.1,0.4-0.1,0.7c0,0.6,0.3,0.9,0.7,0.9c0.5,0,0.8-0.3,1.1-0.9c0.3-0.5,0.5-1.5,0.5-1.8
			c0-0.5-0.2-0.7-0.4-0.8c-0.1-0.1-0.1-0.1-0.1-0.3c0-0.2,0.2-0.5,0.5-0.5c0.2,0,0.4,0.1,0.4,0.7c0,0.5-0.3,1.8-0.7,2.6
			c-0.3,0.6-0.7,1.2-1.4,1.2c-0.3,0-1-0.1-1.2-0.7c-0.4,0.7-0.9,0.7-1,0.7c-0.7,0-1.4-0.3-1.4-1.3c0-0.4,0.1-0.8,0.6-2
			c0.1-0.2,0.2-0.4,0.2-0.7c0-0.3-0.2-0.3-0.2-0.3c-0.3,0-0.7,0.3-1,1.2c0,0.2-0.1,0.2-0.2,0.2c0,0-0.1,0-0.1-0.1
			c0-0.1,0.4-1.5,1.3-1.5c0.5,0,0.8,0.4,0.8,0.8c0,0.2-0.1,0.3-0.2,0.6c-0.5,1.2-0.5,1.6-0.5,1.9c0,0.2,0,0.9,0.8,0.9
			c0.4,0,0.7-0.3,0.9-0.8c0,0,0-0.1,0-0.2c0-0.2,0-0.4,0.1-0.7c0.1-0.3,0.5-2.2,0.6-2.2c0.1-0.2,0.2-0.3,0.4-0.3
			c0.1,0,0.3,0.1,0.3,0.3c0,0.1-0.1,0.4-0.1,0.6L153.6,108z"/>
	</g>
	<g>
		<path class="st0" d="M160,112.2c-0.1,0-1-0.6-1.6-1.9c-0.5-1.1-0.7-2.3-0.7-3.1c0-0.8,0.1-1.9,0.6-3c0.6-1.3,1.5-1.9,1.6-1.9
			c0.1,0,0.1,0,0.1,0.1c0,0,0,0-0.1,0.2c-1.2,1.2-1.6,3-1.6,4.7c0,1.5,0.3,3.4,1.6,4.7C160.1,112.1,160.1,112.1,160,112.2
			C160.1,112.2,160,112.2,160,112.2z"/>
	</g>
	<g>
		<path class="st0" d="M161.9,108.7c0,0.2-0.1,0.2-0.1,0.5c0,0.3,0.1,0.5,0.3,0.5c0.3,0,0.9-0.2,1.3-1.3c0-0.1,0.1-0.1,0.1-0.1
			c0,0,0.1,0,0.1,0.1c0,0.1-0.6,1.5-1.6,1.5c-0.5,0-0.9-0.4-0.9-0.9c0-0.2,0-0.3,0.8-3.2h-0.9c-0.2,0-0.3,0-0.3-0.1
			c0-0.2,0.1-0.2,0.3-0.2h0.9l0.4-1.6c0.1-0.3,0.4-0.4,0.4-0.4c0.2,0,0.3,0.1,0.3,0.3c0,0.1,0,0.3-0.4,1.7h0.9c0.2,0,0.3,0,0.3,0.1
			c0,0.2-0.1,0.2-0.3,0.2h-0.9L161.9,108.7z"/>
	</g>
	<g>
		<path class="st0" d="M166.5,110.3c-0.6,1.3-1.5,1.9-1.6,1.9c-0.1,0-0.1,0-0.1-0.1c0,0,0-0.1,0.1-0.2c1.2-1.3,1.6-3,1.6-4.7
			c0-2.1-0.6-3.7-1.5-4.7c-0.2-0.2-0.2-0.2-0.2-0.2c0-0.1,0-0.1,0.1-0.1c0.1,0,1,0.6,1.6,1.9c0.5,1.1,0.7,2.3,0.7,3.1
			C167.1,108.1,167,109.2,166.5,110.3z"/>
	</g>
	<polyline points="166,147.5 170.5,145.3 166,143 167.1,145.3 	"/>
	<line class="st3" x1="0.4" y1="145.3" x2="167.1" y2="145.3"/>
	<polyline points="87.7,103.7 85.5,99.2 83.2,103.7 85.5,102.6 	"/>
	<line class="st3" x1="85.5" y1="145.3" x2="85.5" y2="102.6"/>
	<g>
		<path class="st0" d="M177.2,147.3c0,0.2-0.1,0.2-0.1,0.5c0,0.3,0.1,0.5,0.3,0.5c0.3,0,0.9-0.2,1.3-1.3c0-0.1,0.1-0.1,0.1-0.1
			c0,0,0.1,0,0.1,0.1c0,0.1-0.6,1.5-1.6,1.5c-0.5,0-0.9-0.4-0.9-0.9c0-0.2,0-0.3,0.8-3.2h-0.9c-0.2,0-0.3,0-0.3-0.1
			c0-0.2,0.1-0.2,0.3-0.2h0.9l0.4-1.6c0.1-0.3,0.4-0.4,0.4-0.4c0.2,0,0.3,0.1,0.3,0.3c0,0.1,0,0.3-0.4,1.7h0.9c0.2,0,0.3,0,0.3,0.1
			c0,0.2-0.1,0.2-0.3,0.2h-0.9L177.2,147.3z"/>
	</g>
	<path class="st3" d="M85.5,106.3c0,0,4.3,7.2,7.1,10.6c4.4,5.3,8.2,10.8,14.2,14.2c8.7,4.9,28.3,7.1,28.3,7.1l0,0 M85.5,106.3
		c0,0-4.3,7.2-7.1,10.6c-4.4,5.3-8.2,10.8-14.2,14.2c-8.7,4.9-28.3,7.1-28.3,7.1l0,0"/>
	<path class="st5" d="M135.1,138.2v7.1 M35.9,138.2v7.1 M135.1,145.3h28.3 M7.5,145.3h28.3"/>
	<path class="st4" d="M99.6,138.2v7.1 M113.8,138.2v7.1 M128,138.2v7.1 M142.2,138.2v7.1 M156.3,138.2v7.1 M14.6,138.2v7.1
		 M28.8,138.2v7.1 M42.9,138.2v7.1 M57.1,138.2v7.1 M71.3,138.2v7.1"/>
	<line class="st3" x1="81.9" y1="155.9" x2="89" y2="155.9"/>
	<g>
		<path class="st0" d="M72.9,152.3c0.1-0.1,0.1-0.2,0.3-0.2c0.2,0,0.2,0,0.2,0.2l0.6,6.2c0,0.3,0,0.4,0.6,0.4c0.1,0,0.2,0,0.2,0.1
			c0,0.2-0.1,0.2-0.2,0.2c-0.2,0-0.9,0-1.1,0c-0.4,0-0.8,0-1.2,0c0,0-0.1,0-0.1-0.1c0-0.2,0.1-0.2,0.2-0.2c0.2,0,0.7,0,0.7-0.3
			c0-0.1-0.1-1.5-0.2-1.7h-2.5l-0.8,1.3c-0.1,0.1-0.1,0.2-0.1,0.4c0,0.2,0.2,0.3,0.5,0.3c0.1,0,0.2,0,0.2,0.1c0,0.2-0.1,0.2-0.2,0.2
			c-0.3,0-0.7,0-1,0c-0.3,0-0.6,0-0.9,0c-0.1,0-0.1,0-0.1-0.1c0-0.2,0.1-0.2,0.2-0.2c0.4,0,0.8-0.2,1.2-0.8L72.9,152.3z M72.9,156.7
			l-0.3-3.3l-2,3.3H72.9z"/>
	</g>
	<polyline points="166,197.1 170.5,194.9 166,192.6 167.1,194.9 	"/>
	<line class="st3" x1="0.4" y1="194.9" x2="167.1" y2="194.9"/>
	<polyline points="87.7,153.4 85.5,148.8 83.2,153.4 85.5,152.2 	"/>
	<line class="st3" x1="85.5" y1="194.9" x2="85.5" y2="152.2"/>
	<g>
		<path class="st0" d="M176.1,194.1c0.1-0.5,0.2-0.6,0.2-0.8c0-0.3-0.1-0.5-0.3-0.5c-0.4,0-0.6,0.5-0.7,1.2
			c-0.1,0.2-0.1,0.2-0.2,0.2c0,0-0.1,0-0.1-0.1c0,0,0.1-0.6,0.3-1c0.1-0.2,0.3-0.6,0.7-0.6c0.5,0,0.9,0.3,0.9,0.9
			c0.2-0.2,0.7-0.9,1.6-0.9c0.7,0,1.1,0.4,1.1,1.1c0,0.6-0.4,1.7-0.6,2.2c-0.1,0.2-0.2,0.5-0.2,0.7c0,0.2,0.1,0.3,0.2,0.3
			c0.5,0,0.8-0.6,1-1.2c0-0.1,0-0.2,0.1-0.2c0,0,0.1,0,0.1,0.1c0,0.1-0.4,1.5-1.3,1.5c-0.5,0-0.8-0.3-0.8-0.8c0-0.1,0-0.2,0.1-0.5
			c0.2-0.4,0.6-1.7,0.6-2.3c0-0.3-0.1-0.7-0.5-0.7c-0.9,0-1.5,0.9-1.6,1.2c0,0-0.1,0.3-0.1,0.5c0,0.2-0.1,0.4-0.2,0.7l-0.2,0.9
			c-0.1,0.2-0.2,0.7-0.2,0.7c-0.1,0.2-0.2,0.3-0.4,0.3c-0.1,0-0.3-0.1-0.3-0.3c0,0,0.1-0.3,0.1-0.4L176.1,194.1z"/>
	</g>
	<g>
		<path class="st0" d="M97.9,155.7c0.4-0.5,0.8-0.8,1.5-0.8c0.7,0,1.1,0.4,1.1,1.1c0,0.6-0.4,1.8-0.6,2.2c-0.1,0.2-0.2,0.5-0.2,0.7
			c0,0.2,0.1,0.3,0.2,0.3c0.5,0,0.9-0.7,1-1.2c0-0.1,0-0.2,0.1-0.2c0,0,0.1,0,0.1,0.1c0,0.1-0.4,1.5-1.3,1.5c-0.5,0-0.8-0.3-0.8-0.8
			c0-0.2,0-0.3,0.1-0.5c0.2-0.6,0.6-1.7,0.6-2.2c0-0.4-0.1-0.7-0.5-0.7c-0.4,0-0.7,0.2-1,0.3c-0.3,0.3-0.6,0.8-0.7,0.9
			c0,0.1-0.1,0.4-0.1,0.4c0,0.2-0.1,0.4-0.2,0.7l-0.2,0.9l-0.2,0.8c0,0.1-0.2,0.3-0.4,0.3c-0.1,0-0.3,0-0.3-0.3c0-0.1,0-0.1,0-0.2
			l1.4-5.7l0-0.2c0-0.1,0-0.2-0.5-0.2c-0.1,0-0.2,0-0.2-0.1c0-0.2,0.1-0.2,0.2-0.2c0.3,0,1-0.1,1.2-0.1c0.1,0,0.1,0.1,0.1,0.1
			L97.9,155.7z"/>
	</g>
	<g>
		<path class="st0" d="M102.8,161.8v-10h1.4v0.4h-1v9.2h1v0.4H102.8z"/>
	</g>
	<g>
		<path class="st0" d="M105.8,156.4c0.1-0.5,0.2-0.6,0.2-0.8c0-0.3-0.1-0.5-0.3-0.5c-0.4,0-0.6,0.5-0.7,1.2
			c-0.1,0.2-0.1,0.2-0.2,0.2c0,0-0.1,0-0.1-0.1c0,0,0.1-0.6,0.3-1c0.1-0.2,0.3-0.6,0.7-0.6c0.5,0,0.9,0.3,0.9,0.9
			c0.2-0.2,0.7-0.9,1.6-0.9c0.7,0,1.1,0.4,1.1,1.1c0,0.6-0.4,1.7-0.6,2.2c-0.1,0.2-0.2,0.5-0.2,0.7c0,0.2,0.1,0.3,0.2,0.3
			c0.5,0,0.8-0.6,1-1.2c0-0.1,0-0.2,0.1-0.2c0,0,0.1,0,0.1,0.1c0,0.1-0.4,1.5-1.3,1.5c-0.5,0-0.8-0.3-0.8-0.8c0-0.1,0-0.2,0.1-0.5
			c0.2-0.4,0.6-1.7,0.6-2.3c0-0.3-0.1-0.7-0.5-0.7c-0.9,0-1.5,0.9-1.6,1.2c0,0-0.1,0.3-0.1,0.5c0,0.2-0.1,0.4-0.2,0.7l-0.2,0.9
			c-0.1,0.2-0.2,0.7-0.2,0.7c-0.1,0.2-0.2,0.3-0.4,0.3c-0.1,0-0.3-0.1-0.3-0.3c0,0,0.1-0.3,0.1-0.4L105.8,156.4z"/>
	</g>
	<g>
		<path class="st0" d="M111.9,161.8h-1.4v-0.4h1v-9.2h-1v-0.4h1.4V161.8z"/>
		<path class="st0" d="M116.8,156c-0.1,0-0.3,0-0.3-0.2c0-0.2,0.2-0.2,0.3-0.2h6c0.1,0,0.3,0,0.3,0.2c0,0.2-0.2,0.2-0.3,0.2H116.8z
			 M116.7,158c-0.1,0-0.3,0-0.3-0.2s0.2-0.2,0.3-0.2h5.9c0.1,0,0.3,0,0.3,0.2s-0.2,0.2-0.3,0.2H116.7z"/>
	</g>
	<g>
		<path class="st0" d="M129.6,150.9c-0.2,0-0.3-0.1-0.6-0.2c-0.2-0.1-0.4-0.3-0.6-0.3c-0.4,0-0.8,0.5-0.8,0.5l-0.2-0.1
			c0.5-0.6,0.7-0.8,1.1-0.8c0.2,0,0.3,0.1,0.6,0.2c0.2,0.1,0.4,0.2,0.6,0.2c0.4,0,0.8-0.5,0.8-0.5l0.2,0.1
			C130.2,150.7,130,150.9,129.6,150.9z"/>
	</g>
	<g>
		<path class="st0" d="M128.5,155.7c0.4-0.5,0.8-0.8,1.5-0.8c0.7,0,1.1,0.4,1.1,1.1c0,0.6-0.4,1.8-0.6,2.2c-0.1,0.2-0.2,0.5-0.2,0.7
			c0,0.2,0.1,0.3,0.2,0.3c0.5,0,0.9-0.7,1-1.2c0-0.1,0-0.2,0.1-0.2c0,0,0.1,0,0.1,0.1c0,0.1-0.4,1.5-1.3,1.5c-0.5,0-0.8-0.3-0.8-0.8
			c0-0.2,0-0.3,0.1-0.5c0.2-0.6,0.6-1.7,0.6-2.2c0-0.4-0.1-0.7-0.5-0.7c-0.4,0-0.7,0.2-1,0.3c-0.3,0.3-0.6,0.8-0.7,0.9
			c0,0.1-0.1,0.4-0.1,0.4c0,0.2-0.1,0.4-0.2,0.7l-0.2,0.9l-0.2,0.8c0,0.1-0.2,0.3-0.4,0.3c-0.1,0-0.3,0-0.3-0.3c0-0.1,0-0.1,0-0.2
			l1.4-5.7l0-0.2c0-0.1,0-0.2-0.5-0.2c-0.1,0-0.2,0-0.2-0.1c0-0.2,0.1-0.2,0.2-0.2c0.3,0,1-0.1,1.2-0.1c0.1,0,0.1,0.1,0.1,0.1
			L128.5,155.7z"/>
	</g>
	<g>
		<path class="st0" d="M135.4,161.8c-0.1,0-1-0.6-1.6-1.9c-0.5-1.1-0.7-2.3-0.7-3.1c0-0.8,0.1-1.9,0.6-3c0.6-1.3,1.5-1.9,1.6-1.9
			c0.1,0,0.1,0,0.1,0.1c0,0,0,0-0.1,0.2c-1.2,1.2-1.6,3-1.6,4.7c0,1.5,0.3,3.4,1.6,4.7C135.5,161.6,135.5,161.7,135.4,161.8
			C135.5,161.8,135.4,161.8,135.4,161.8z"/>
	</g>
	<g>
		<path class="st0" d="M137.5,156.4c0.1-0.5,0.2-0.6,0.2-0.8c0-0.3-0.1-0.5-0.3-0.5c-0.4,0-0.6,0.5-0.7,1.2
			c-0.1,0.2-0.1,0.2-0.2,0.2c0,0-0.1,0-0.1-0.1c0,0,0.1-0.6,0.3-1c0.1-0.2,0.3-0.6,0.7-0.6c0.5,0,0.9,0.3,0.9,0.9
			c0.2-0.2,0.7-0.9,1.6-0.9c0.7,0,1.1,0.4,1.1,1.1c0,0.6-0.4,1.7-0.6,2.2c-0.1,0.2-0.2,0.5-0.2,0.7c0,0.2,0.1,0.3,0.2,0.3
			c0.5,0,0.8-0.6,1-1.2c0-0.1,0-0.2,0.1-0.2c0,0,0.1,0,0.1,0.1c0,0.1-0.4,1.5-1.3,1.5c-0.5,0-0.8-0.3-0.8-0.8c0-0.1,0-0.2,0.1-0.5
			c0.2-0.4,0.6-1.7,0.6-2.3c0-0.3-0.1-0.7-0.5-0.7c-0.9,0-1.5,0.9-1.6,1.2c0,0-0.1,0.3-0.1,0.5c0,0.2-0.1,0.4-0.2,0.7l-0.2,0.9
			c-0.1,0.2-0.2,0.7-0.2,0.7c-0.1,0.2-0.2,0.3-0.4,0.3c-0.1,0-0.3-0.1-0.3-0.3c0,0,0.1-0.3,0.1-0.4L137.5,156.4z"/>
		<path class="st0" d="M144.9,158.5c0,0.1,0,0.2,0,0.2c0,0.2,0.1,0.2,0.4,0.2c0.3,0,0.4,0,0.6,0c0.3,0,0.3,0,0.3,0.1
			c0,0.2-0.1,0.2-0.2,0.2c-0.3,0-0.6,0-0.9,0c-0.3,0-0.5,0-0.8,0c-0.3,0-0.6,0-0.8,0c-0.3,0-0.5,0-0.8,0c-0.1,0-0.2,0-0.2-0.1
			c0-0.2,0.1-0.2,0.4-0.2c1.1,0,1.1-0.1,1.2-0.5l1.3-5.3c0,0,0-0.1,0-0.2c0-0.1,0-0.1-0.3-0.1h-0.4c-1.5,0-1.7,0.2-2.3,1.7
			c-0.1,0.2-0.1,0.2-0.2,0.2c-0.1,0-0.1,0-0.1-0.1c0,0,0-0.2,0.1-0.2l0.6-1.8c0.1-0.2,0.1-0.2,0.3-0.2h5.5c0.2,0,0.3,0,0.3,0.1
			c0,0,0,0.1,0,0.2l-0.3,1.7c0,0.1,0,0.2-0.1,0.2c-0.1,0-0.1-0.1-0.1-0.1c0,0,0-0.2,0-0.2c0-0.3,0.1-0.6,0.1-0.8
			c0-0.8-0.4-0.8-1.5-0.8c-0.2,0-0.5,0-0.6,0c-0.1,0-0.2,0.1-0.2,0.4L144.9,158.5z"/>
	</g>
	<g>
		<path class="st0" d="M151.6,159.8c-0.6,1.3-1.5,1.9-1.6,1.9c-0.1,0-0.1,0-0.1-0.1c0,0,0,0,0.1-0.2c1.2-1.3,1.6-3,1.6-4.7
			c0-2.1-0.6-3.7-1.5-4.7c-0.2-0.2-0.2-0.2-0.2-0.2c0-0.1,0-0.1,0.1-0.1c0.1,0,1,0.6,1.6,1.9c0.5,1.1,0.7,2.3,0.7,3.1
			C152.2,157.6,152.1,158.8,151.6,159.8z"/>
	</g>
	<line class="st3" x1="85.5" y1="194.9" x2="85.5" y2="159.4"/>
	<g>
		<path class="st0" d="M85.5,161.1c-1.1,0-1.9-0.9-1.9-1.9c0-1,0.9-1.9,1.9-1.9c1,0,1.9,0.9,1.9,1.9S86.5,161.1,85.5,161.1z"/>
	</g>
	<line class="st3" x1="99.6" y1="194.9" x2="99.6" y2="177.2"/>
	<g>
		<path class="st0" d="M99.6,178.8c-1.1,0-1.9-0.9-1.9-1.9c0-1,0.9-1.9,1.9-1.9c1,0,1.9,0.9,1.9,1.9S100.7,178.8,99.6,178.8z"/>
	</g>
	<line class="st3" x1="128" y1="194.9" x2="128" y2="187.8"/>
	<g>
		<path class="st0" d="M128.1,189.5c-1.1,0-1.9-0.9-1.9-1.9c0-1,0.9-1.9,1.9-1.9c1,0,1.9,0.9,1.9,1.9S129.1,189.5,128.1,189.5z"/>
	</g>
	<line class="st3" x1="113.8" y1="194.9" x2="113.8" y2="184.3"/>
	<g>
		<path class="st0" d="M113.8,185.9c-1.1,0-1.9-0.9-1.9-1.9c0-1,0.9-1.9,1.9-1.9c1,0,1.9,0.9,1.9,1.9S114.8,185.9,113.8,185.9z"/>
	</g>
	<line class="st3" x1="71.3" y1="194.9" x2="71.3" y2="177.2"/>
	<g>
		<path class="st0" d="M71.3,178.8c-1.1,0-1.9-0.9-1.9-1.9c0-1,0.9-1.9,1.9-1.9c1,0,1.9,0.9,1.9,1.9S72.4,178.8,71.3,178.8z"/>
	</g>
	<line class="st3" x1="57.1" y1="194.9" x2="57.1" y2="184.3"/>
	<g>
		<path class="st0" d="M57.1,185.9c-1.1,0-1.9-0.9-1.9-1.9c0-1,0.9-1.9,1.9-1.9c1,0,1.9,0.9,1.9,1.9S58.2,185.9,57.1,185.9z"/>
	</g>
	<line class="st3" x1="42.9" y1="194.9" x2="42.9" y2="187.8"/>
	<g>
		<path class="st0" d="M43,189.5c-1.1,0-1.9-0.9-1.9-1.9c0-1,0.9-1.9,1.9-1.9c1,0,1.9,0.9,1.9,1.9S44,189.5,43,189.5z"/>
	</g>
	<path class="st6" d="M85.5,155.9c0,0,4.3,7.2,7.1,10.6c4.4,5.3,8.2,10.8,14.2,14.2c8.7,4.9,28.3,7.1,28.3,7.1l0,0"/>
	<path class="st7" d="M85.5,155.9c0,0-4.3,7.2-7.1,10.6c-4.4,5.3-8.2,10.8-14.2,14.2c-8.7,4.9-28.3,7.1-28.3,7.1l0,0"/>
	<g>
		<path class="st1" d="M142.2,196.5c-1.1,0-1.9-0.9-1.9-1.9c0-1,0.9-1.9,1.9-1.9c1,0,1.9,0.9,1.9,1.9S143.3,196.5,142.2,196.5z"/>
		<path class="st1" d="M156.4,196.5c-1.1,0-1.9-0.9-1.9-1.9c0-1,0.9-1.9,1.9-1.9c1,0,1.9,0.9,1.9,1.9S157.4,196.5,156.4,196.5z"/>
	</g>
	<g>
		<path class="st1" d="M14.7,196.5c-1.1,0-1.9-0.9-1.9-1.9c0-1,0.9-1.9,1.9-1.9c1,0,1.9,0.9,1.9,1.9S15.7,196.5,14.7,196.5z"/>
		<path class="st1" d="M28.8,196.5c-1.1,0-1.9-0.9-1.9-1.9c0-1,0.9-1.9,1.9-1.9c1,0,1.9,0.9,1.9,1.9S29.9,196.5,28.8,196.5z"/>
	</g>
	<g>
		<path class="st0" d="M98.1,57.5c0,0.1-0.1,0.4-0.1,0.7c0,0.6,0.3,0.9,0.7,0.9c0.5,0,0.8-0.3,1.1-0.9c0.3-0.5,0.5-1.5,0.5-1.8
			c0-0.5-0.2-0.7-0.4-0.8c-0.1-0.1-0.1-0.1-0.1-0.3c0-0.2,0.2-0.5,0.5-0.5c0.2,0,0.4,0.1,0.4,0.7c0,0.5-0.3,1.8-0.7,2.6
			c-0.3,0.6-0.7,1.2-1.4,1.2c-0.3,0-1-0.1-1.2-0.7c-0.4,0.7-0.9,0.7-1,0.7c-0.7,0-1.4-0.3-1.4-1.3c0-0.4,0.1-0.8,0.6-2
			c0.1-0.2,0.2-0.4,0.2-0.7c0-0.3-0.2-0.3-0.2-0.3c-0.3,0-0.7,0.3-1,1.2c0,0.2-0.1,0.2-0.2,0.2c0,0-0.1,0-0.1-0.1
			c0-0.1,0.4-1.5,1.3-1.5c0.5,0,0.8,0.4,0.8,0.8c0,0.2-0.1,0.3-0.2,0.6c-0.5,1.2-0.5,1.6-0.5,1.9c0,0.2,0,0.9,0.8,0.9
			c0.4,0,0.7-0.3,0.9-0.8c0,0,0-0.1,0-0.2c0-0.2,0-0.4,0.1-0.7c0.1-0.3,0.5-2.2,0.6-2.2c0.1-0.2,0.2-0.3,0.4-0.3
			c0.1,0,0.3,0.1,0.3,0.3c0,0.1-0.1,0.4-0.1,0.6L98.1,57.5z"/>
	</g>
	<g>
		<path class="st0" d="M104.4,61.7c-0.1,0-1-0.6-1.6-1.9c-0.5-1.1-0.7-2.3-0.7-3.1c0-0.8,0.1-1.9,0.6-3c0.6-1.3,1.5-1.9,1.6-1.9
			c0.1,0,0.1,0,0.1,0.1c0,0,0,0-0.1,0.2c-1.2,1.2-1.6,3-1.6,4.7c0,1.5,0.3,3.4,1.6,4.7C104.5,61.6,104.5,61.6,104.4,61.7
			C104.5,61.7,104.5,61.7,104.4,61.7z"/>
	</g>
	<g>
		<path class="st0" d="M106.4,58.2c0,0.2-0.1,0.2-0.1,0.5c0,0.3,0.1,0.5,0.3,0.5c0.3,0,0.9-0.2,1.3-1.3c0-0.1,0.1-0.1,0.1-0.1
			c0,0,0.1,0,0.1,0.1c0,0.1-0.6,1.5-1.6,1.5c-0.5,0-0.9-0.4-0.9-0.9c0-0.2,0-0.3,0.8-3.2h-0.9c-0.2,0-0.3,0-0.3-0.1
			c0-0.2,0.1-0.2,0.3-0.2h0.9l0.4-1.6c0.1-0.3,0.4-0.4,0.4-0.4c0.2,0,0.3,0.1,0.3,0.3c0,0.1,0,0.3-0.4,1.7h0.9c0.2,0,0.3,0,0.3,0.1
			c0,0.2-0.1,0.2-0.3,0.2h-0.9L106.4,58.2z"/>
	</g>
	<g>
		<path class="st0" d="M110.9,59.8c-0.6,1.3-1.5,1.9-1.6,1.9c-0.1,0-0.1,0-0.1-0.1c0,0,0-0.1,0.1-0.2c1.2-1.3,1.6-3,1.6-4.7
			c0-2.1-0.6-3.7-1.5-4.7c-0.2-0.2-0.2-0.2-0.2-0.2c0-0.1,0-0.1,0.1-0.1c0.1,0,1,0.6,1.6,1.9c0.5,1.1,0.7,2.3,0.7,3.1
			C111.5,57.6,111.4,58.7,110.9,59.8z"/>
	</g>
	<polyline points="166,97.9 170.5,95.7 166,93.4 167.1,95.7 	"/>
	<line class="st3" x1="0.4" y1="95.7" x2="167.1" y2="95.7"/>
	<polyline points="87.7,54.1 85.5,49.6 83.2,54.1 85.5,53 	"/>
	<line class="st3" x1="85.5" y1="95.7" x2="85.5" y2="53"/>
	<g>
		<path class="st0" d="M177.2,97.7c0,0.2-0.1,0.2-0.1,0.5c0,0.3,0.1,0.5,0.3,0.5c0.3,0,0.9-0.2,1.3-1.3c0-0.1,0.1-0.1,0.1-0.1
			c0,0,0.1,0,0.1,0.1c0,0.1-0.6,1.5-1.6,1.5c-0.5,0-0.9-0.4-0.9-0.9c0-0.2,0-0.3,0.8-3.2h-0.9c-0.2,0-0.3,0-0.3-0.1
			c0-0.2,0.1-0.2,0.3-0.2h0.9l0.4-1.6c0.1-0.3,0.4-0.4,0.4-0.4c0.2,0,0.3,0.1,0.3,0.3c0,0.1,0,0.3-0.4,1.7h0.9c0.2,0,0.3,0,0.3,0.1
			c0,0.2-0.1,0.2-0.3,0.2h-0.9L177.2,97.7z"/>
	</g>
	<path class="st5" d="M135.1,95.7V67.3 M135.1,67.3H35.9 M35.9,67.3v28.3"/>
	<g>
		<path class="st0" d="M145.2,90.5c0,0.1-0.1,0.4-0.4,0.4c-0.2,0-0.3-0.2-0.3-0.3c0,0,0.1-0.2,0.1-0.4l1-3.2h-0.8
			c-0.2,0-0.8,0-1.3,0.8c-0.1,0.1-0.1,0.1-0.2,0.1c-0.1,0-0.1-0.1-0.1-0.1c0-0.1,0.3-0.5,0.6-0.9c0.4-0.5,0.8-0.5,1-0.5h2.8
			c0.2,0,0.4,0,0.4,0.2c0,0.3-0.4,0.3-0.5,0.3h-1.7L145.2,90.5z"/>
	</g>
	<g>
		<path class="st0" d="M78.8,62.6c0,0.4,0,0.5,0.9,0.5h0.3v0.3c-0.3,0-1.2,0-1.6,0c-0.4,0-1.3,0-1.6,0v-0.3h0.3
			c0.9,0,0.9-0.1,0.9-0.5v-5.2c-0.5,0.3-1.1,0.3-1.3,0.3v-0.3c0.3,0,1.2,0,1.8-0.6c0.2,0,0.2,0,0.2,0.3V62.6z"/>
	</g>
	<g>
		<path class="st0" d="M20.9,88.9v-0.6h2.6v0.6H20.9z"/>
	</g>
	<g>
		<path class="st0" d="M26.4,90.5c0,0.1-0.1,0.4-0.4,0.4c-0.2,0-0.3-0.2-0.3-0.3c0,0,0.1-0.2,0.1-0.4l1-3.2H26c-0.2,0-0.8,0-1.3,0.8
			c-0.1,0.1-0.1,0.1-0.2,0.1c-0.1,0-0.1-0.1-0.1-0.1c0-0.1,0.3-0.5,0.6-0.9c0.4-0.5,0.8-0.5,1-0.5h2.8c0.2,0,0.4,0,0.4,0.2
			c0,0.3-0.4,0.3-0.5,0.3h-1.7L26.4,90.5z"/>
	</g>
	<polyline points="406.9,83.8 411.4,81.5 406.9,79.2 408,81.5 	"/>
	<line class="st3" x1="241.4" y1="81.5" x2="408" y2="81.5"/>
	<polyline points="328.7,54.1 326.4,49.6 324.1,54.1 326.4,53 	"/>
	<path class="st3" d="M326.4,99.2V53 M322.9,56.7h7.1"/>
	<g>
		<path class="st0" d="M303,59.2c0.2,0,0.9,0,0.9-0.1c0.1-0.1,0.2-0.6,0.2-0.9h0.2l-0.3,1.7h-3.7c0-0.2,0-0.3,0.1-0.4l1.9-2.1
			c0.5-0.6,1-1.4,1-2.2c0-0.8-0.4-1.6-1.3-1.6c-0.6,0-1.1,0.4-1.3,1c0,0,0,0,0.1,0c0.3,0,0.5,0.3,0.5,0.5c0,0.4-0.3,0.5-0.5,0.5
			c0,0-0.5,0-0.5-0.6c0-0.9,0.7-1.8,1.9-1.8c1.2,0,2.1,0.8,2.1,1.9c0,1-0.6,1.5-2.2,2.9l-1.1,1H303z"/>
	</g>
	<g>
		<path class="st0" d="M307.2,59.6c0,0.1-0.1,0.4-0.4,0.4c-0.2,0-0.3-0.2-0.3-0.3c0,0,0.1-0.2,0.1-0.4l1-3.2h-0.8
			c-0.2,0-0.8,0-1.3,0.8c-0.1,0.1-0.1,0.1-0.2,0.1c-0.1,0-0.1-0.1-0.1-0.1c0-0.1,0.3-0.5,0.6-0.9c0.4-0.5,0.8-0.5,1-0.5h2.8
			c0.2,0,0.4,0,0.4,0.2c0,0.3-0.4,0.3-0.5,0.3h-1.7L307.2,59.6z"/>
	</g>
	<g>
		<path class="st0" d="M420.7,82.5c-0.4,0.7-0.8,1.4-1.6,1.4c-0.6,0-1-0.5-1.1-1c-0.4,0.5-0.8,1-1.5,1c-0.8,0-1-0.7-1-1.4
			c0-0.9,0.4-2.1,0.9-2.8c0.1-0.1,0.1-0.2,0.3-0.2c0.1,0,0.2,0.1,0.2,0.2c0,0.1-1,1.2-1,2.4c0,0.6,0.2,1.1,0.9,1.1
			c0.6,0,1-0.4,1.4-0.9c0-0.4,0.1-1,0.2-1.2c0.1-0.1,0.2-0.2,0.3-0.2c0.1,0,0.2,0.1,0.2,0.2c0,0.3-0.2,0.9-0.3,1.2
			c0.1,0.5,0.4,0.9,1,0.9c0.5,0,0.8-0.3,1.1-0.8c0.3-0.5,0.5-1,0.5-1.4c0-0.4-0.2-0.7-0.3-0.8c-0.1-0.1-0.1-0.2-0.1-0.3
			c0-0.2,0.3-0.5,0.5-0.5c0.2,0,0.4,0.2,0.4,0.7C421.3,80.6,420.9,82,420.7,82.5z"/>
	</g>
	<g>
		<path class="st0" d="M348.1,59.3c0,0.1-0.1,0.2-0.2,0.2c-0.1,0-0.1,0-0.2-0.3l-0.4-5l-2.9,5.1c-0.1,0.1-0.1,0.2-0.2,0.2
			c-0.1,0-0.1-0.1-0.2-0.3l-0.4-6.1c0-0.3,0-0.4-0.5-0.4c-0.2,0-0.2,0-0.2-0.1c0-0.2,0.1-0.2,0.2-0.2c0.3,0,0.7,0,1,0
			c0.4,0,0.8,0,1.2,0c0,0,0.1,0,0.1,0.1c0,0.2-0.1,0.2-0.2,0.2c-0.8,0-0.8,0.2-0.8,0.4l0.4,5.1l2.5-4.4l-0.1-0.8
			c0-0.2-0.1-0.2-0.5-0.2c-0.1,0-0.2,0-0.2-0.1c0-0.2,0.1-0.2,0.2-0.2c0.2,0,0.8,0,1,0c0.4,0,0.8,0,1.2,0c0,0,0.2,0,0.2,0.1
			c0,0.2-0.1,0.2-0.3,0.2c-0.7,0-0.7,0.3-0.7,0.5l0.4,4.9l2.7-4.7c0.1-0.1,0.1-0.2,0.1-0.3c0-0.3-0.3-0.4-0.6-0.4
			c-0.1,0-0.1,0-0.1-0.1c0-0.2,0.1-0.2,0.2-0.2c0.3,0,0.7,0,1,0c0.2,0,0.5,0,0.8,0c0.1,0,0.1,0.1,0.1,0.1c0,0.2-0.1,0.2-0.2,0.2
			c-0.6,0-0.9,0.4-1.1,0.8L348.1,59.3z"/>
	</g>
	<g>
		<path class="st0" d="M356.2,61.7c-0.1,0-1-0.6-1.6-1.9c-0.5-1.1-0.7-2.3-0.7-3.1c0-0.8,0.1-1.9,0.6-3c0.6-1.3,1.5-1.9,1.6-1.9
			c0.1,0,0.1,0,0.1,0.1c0,0,0,0-0.1,0.2c-1.2,1.2-1.6,3-1.6,4.7c0,1.5,0.3,3.4,1.6,4.7C356.3,61.6,356.3,61.6,356.2,61.7
			C356.3,61.7,356.2,61.7,356.2,61.7z"/>
	</g>
	<g>
		<path class="st0" d="M362.2,58c-0.4,0.7-0.8,1.4-1.6,1.4c-0.6,0-1-0.5-1.1-1c-0.4,0.5-0.8,1-1.5,1c-0.8,0-1-0.7-1-1.4
			c0-0.9,0.4-2.1,0.9-2.8c0.1-0.1,0.1-0.2,0.3-0.2c0.1,0,0.2,0.1,0.2,0.2c0,0.1-1,1.2-1,2.4c0,0.6,0.2,1.1,0.9,1.1
			c0.6,0,1-0.4,1.4-0.9c0-0.4,0.1-1,0.2-1.2c0.1-0.1,0.2-0.2,0.3-0.2c0.1,0,0.2,0.1,0.2,0.2c0,0.3-0.2,0.9-0.3,1.2
			c0.1,0.5,0.4,0.9,1,0.9c0.5,0,0.8-0.3,1.1-0.8c0.3-0.5,0.5-1,0.5-1.4c0-0.4-0.2-0.7-0.3-0.8c-0.1-0.1-0.1-0.2-0.1-0.3
			c0-0.2,0.3-0.5,0.5-0.5c0.2,0,0.4,0.2,0.4,0.7C362.8,56.1,362.5,57.5,362.2,58z"/>
	</g>
	<g>
		<path class="st0" d="M365.7,59.8c-0.6,1.3-1.5,1.9-1.6,1.9c-0.1,0-0.1,0-0.1-0.1c0,0,0-0.1,0.1-0.2c1.2-1.3,1.6-3,1.6-4.7
			c0-2.1-0.6-3.7-1.5-4.7c-0.2-0.2-0.2-0.2-0.2-0.2c0-0.1,0-0.1,0.1-0.1c0.1,0,1,0.6,1.6,1.9c0.5,1.1,0.7,2.3,0.7,3.1
			C366.3,57.6,366.2,58.7,365.7,59.8z"/>
	</g>
	<path class="st3" d="M400.8,85c0,0-7.2-1.8-10.6-3.5c-4-1.9-6.3-7.1-10.6-7.1c-4.3,0-7.4,4.1-10.6,7.1c-4.4,4.2-4.8,14.2-10.6,14.2
		c-5.8,0-6.8-9.4-10.6-14.2c-7.1-8.8-10.5-24.8-21.3-24.8s-14.2,16-21.3,24.8c-3.8,4.8-4.8,14.2-10.6,14.2s-6.2-10-10.6-14.2
		c-3.2-3-6.3-7.1-10.6-7.1s-6.7,5.2-10.6,7.1C259.2,83.2,252,85,252,85l0,0"/>
	<g>
		<path class="st0" d="M265.6,97.4c0.2,0,0.9,0,0.9-0.1c0.1-0.1,0.2-0.6,0.2-0.9h0.2l-0.3,1.7H263c0-0.2,0-0.3,0.1-0.4l1.9-2.1
			c0.5-0.6,1-1.4,1-2.2c0-0.8-0.4-1.6-1.3-1.6c-0.6,0-1.1,0.4-1.3,1c0,0,0,0,0.1,0c0.3,0,0.5,0.3,0.5,0.5c0,0.4-0.3,0.5-0.5,0.5
			c0,0-0.5,0-0.5-0.6c0-0.9,0.7-1.8,1.9-1.8c1.2,0,2.1,0.8,2.1,1.9c0,1-0.6,1.5-2.2,2.9l-1.1,1H265.6z"/>
	</g>
	<g>
		<path class="st0" d="M269.6,96.7c-0.1,0.5-0.1,0.5-0.3,1c-0.1,0.4-0.2,0.6-0.5,0.6c-0.1,0-0.3-0.1-0.3-0.3c0-0.1,0-0.1,0.1-0.2
			c0.4-0.9,1-2.1,1.3-3.3h-0.6c-0.2,0-0.8,0-1.3,0.8c-0.1,0.1-0.1,0.1-0.2,0.1c-0.1,0-0.1-0.1-0.1-0.1c0,0,0.3-0.5,0.6-0.9
			c0.4-0.5,0.8-0.5,1-0.5h3.3c0.2,0,0.4,0,0.4,0.2c0,0.3-0.4,0.3-0.5,0.3h-1.1c-0.1,0.5-0.2,1.1-0.2,1.6c0,0.3,0,0.9,0.3,1.6
			c0.1,0.1,0.1,0.2,0.1,0.2c0,0.2-0.2,0.4-0.4,0.4c-0.1,0-0.3-0.1-0.4-0.5c-0.1-0.3-0.1-0.6-0.1-0.8c0-0.7,0.1-1.1,0.4-2.6h-1.1
			L269.6,96.7z"/>
		<path class="st0" d="M274.5,100.5c-0.1,0.2-0.1,0.2-0.2,0.2c-0.1,0-0.2-0.1-0.2-0.2c0,0,0,0,0-0.2l3.5-9.5c0-0.1,0.1-0.1,0.2-0.1
			c0.1,0,0.2,0.1,0.2,0.2c0,0,0,0,0,0.2L274.5,100.5z"/>
	</g>
	<g>
		<path class="st0" d="M280.8,97.9c0,0.1-0.1,0.4-0.4,0.4c-0.2,0-0.3-0.2-0.3-0.3c0,0,0.1-0.2,0.1-0.4l1-3.2h-0.8
			c-0.2,0-0.8,0-1.3,0.8c-0.1,0.1-0.1,0.1-0.2,0.1c-0.1,0-0.1-0.1-0.1-0.1c0-0.1,0.3-0.5,0.6-0.9c0.4-0.5,0.8-0.5,1-0.5h2.8
			c0.2,0,0.4,0,0.4,0.2c0,0.3-0.4,0.3-0.5,0.3h-1.7L280.8,97.9z"/>
	</g>
	<path class="st8" d="M262.6,81.5v10.6 M283.9,81.5v10.6"/>
	<polyline points="266,86.9 262.6,88.6 266,90.3 265.2,88.6 	"/>
	<polyline points="280.5,90.3 283.9,88.6 280.5,86.9 281.3,88.6 	"/>
	<line class="st8" x1="265.2" y1="88.6" x2="281.3" y2="88.6"/>
	<polyline points="166,246.8 170.5,244.5 166,242.2 167.1,244.5 	"/>
	<path class="st3" d="M0.4,244.5h166.7 M81.9,205.5H89"/>
	<g>
		<path class="st0" d="M72.9,201.9c0.1-0.1,0.1-0.2,0.3-0.2c0.2,0,0.2,0,0.2,0.2l0.6,6.2c0,0.3,0,0.4,0.6,0.4c0.1,0,0.2,0,0.2,0.1
			c0,0.2-0.1,0.2-0.2,0.2c-0.2,0-0.9,0-1.1,0c-0.4,0-0.8,0-1.2,0c0,0-0.1,0-0.1-0.1c0-0.2,0.1-0.2,0.2-0.2c0.2,0,0.7,0,0.7-0.3
			c0-0.1-0.1-1.5-0.2-1.7h-2.5l-0.8,1.3c-0.1,0.1-0.1,0.2-0.1,0.4c0,0.2,0.2,0.3,0.5,0.3c0.1,0,0.2,0,0.2,0.1c0,0.2-0.1,0.2-0.2,0.2
			c-0.3,0-0.7,0-1,0c-0.3,0-0.6,0-0.9,0c-0.1,0-0.1,0-0.1-0.1c0-0.2,0.1-0.2,0.2-0.2c0.4,0,0.8-0.2,1.2-0.8L72.9,201.9z M72.9,206.3
			l-0.3-3.3l-2,3.3H72.9z"/>
	</g>
	<g>
		<path class="st0" d="M176.1,243.8c0.1-0.5,0.2-0.6,0.2-0.8c0-0.3-0.1-0.5-0.3-0.5c-0.4,0-0.6,0.5-0.7,1.2
			c-0.1,0.2-0.1,0.2-0.2,0.2c0,0-0.1,0-0.1-0.1c0,0,0.1-0.6,0.3-1c0.1-0.2,0.3-0.6,0.7-0.6c0.5,0,0.9,0.3,0.9,0.9
			c0.2-0.2,0.7-0.9,1.6-0.9c0.7,0,1.1,0.4,1.1,1.1c0,0.6-0.4,1.7-0.6,2.2c-0.1,0.2-0.2,0.5-0.2,0.7c0,0.2,0.1,0.3,0.2,0.3
			c0.5,0,0.8-0.6,1-1.2c0-0.1,0-0.2,0.1-0.2c0,0,0.1,0,0.1,0.1c0,0.1-0.4,1.5-1.3,1.5c-0.5,0-0.8-0.3-0.8-0.8c0-0.1,0-0.2,0.1-0.5
			c0.2-0.4,0.6-1.7,0.6-2.3c0-0.3-0.1-0.7-0.5-0.7c-0.9,0-1.5,0.9-1.6,1.2c0,0-0.1,0.3-0.1,0.5c0,0.2-0.1,0.4-0.2,0.7l-0.2,0.9
			c-0.1,0.2-0.2,0.7-0.2,0.7c-0.1,0.2-0.2,0.3-0.4,0.3c-0.1,0-0.3-0.1-0.3-0.3c0,0,0.1-0.3,0.1-0.4L176.1,243.8z"/>
	</g>
	<g>
		<path class="st0" d="M101.5,204.1c0.4-0.5,0.8-0.8,1.5-0.8c0.7,0,1.1,0.4,1.1,1.1c0,0.6-0.4,1.8-0.6,2.2c-0.1,0.2-0.2,0.5-0.2,0.7
			c0,0.2,0.1,0.3,0.2,0.3c0.5,0,0.9-0.7,1-1.2c0-0.1,0-0.2,0.1-0.2c0,0,0.1,0,0.1,0.1c0,0.1-0.4,1.5-1.3,1.5c-0.5,0-0.8-0.3-0.8-0.8
			c0-0.2,0-0.3,0.1-0.5c0.2-0.6,0.6-1.7,0.6-2.2c0-0.4-0.1-0.7-0.5-0.7c-0.4,0-0.7,0.2-1,0.3c-0.3,0.3-0.6,0.8-0.7,0.9
			c0,0.1-0.1,0.4-0.1,0.4c0,0.2-0.1,0.4-0.2,0.7l-0.2,0.9l-0.2,0.8c0,0.1-0.2,0.3-0.4,0.3c-0.1,0-0.3,0-0.3-0.3c0-0.1,0-0.1,0-0.2
			l1.4-5.7l0-0.2c0-0.1,0-0.2-0.5-0.2c-0.1,0-0.2,0-0.2-0.1c0-0.2,0.1-0.2,0.2-0.2c0.3,0,1-0.1,1.2-0.1c0.1,0,0.1,0.1,0.1,0.1
			L101.5,204.1z"/>
	</g>
	<g>
		<path class="st0" d="M106.5,206.9c0,0,0-0.1,0-0.2c0-0.2,0-0.3-0.2-0.3c-0.3,0-0.4,0.3-0.5,0.8c0,0.2-0.1,0.2-0.2,0.2
			c0,0-0.1,0-0.1-0.1c0,0,0.1-0.5,0.3-0.7c0.1-0.2,0.3-0.4,0.6-0.4c0.2,0,0.6,0.1,0.7,0.5c0.2-0.2,0.6-0.5,1-0.5c0.5,0,1,0.3,1,1.2
			c0,1-0.9,2-1.8,2c-0.4,0-0.6-0.3-0.7-0.4c-0.1,0.3-0.2,0.7-0.3,1c0,0.1-0.1,0.3-0.1,0.3c0,0.1,0.2,0.1,0.3,0.1
			c0.1,0,0.2,0,0.2,0.1c0,0.1-0.1,0.2-0.1,0.2c-0.2,0-0.5,0-0.7,0c-0.2,0-0.4,0-0.6,0c0,0-0.1,0-0.1-0.1c0-0.1,0.1-0.1,0.2-0.1
			c0.3,0,0.3-0.1,0.3-0.3L106.5,206.9z M106.7,208.4c0,0,0,0.1,0,0.1c0,0.1,0.1,0.6,0.6,0.6c0.4,0,0.7-0.3,0.9-0.7
			c0.2-0.4,0.4-1.1,0.4-1.4c0-0.5-0.2-0.7-0.5-0.7c-0.2,0-0.6,0.1-1,0.6L106.7,208.4z"/>
	</g>
	<g>
		<path class="st0" d="M110.9,210.3v-10h1.4v0.4h-1v9.2h1v0.4H110.9z"/>
	</g>
	<g>
		<path class="st0" d="M114,204.9c0.1-0.5,0.2-0.6,0.2-0.8c0-0.3-0.1-0.5-0.3-0.5c-0.4,0-0.6,0.5-0.7,1.2c-0.1,0.2-0.1,0.2-0.2,0.2
			c0,0-0.1,0-0.1-0.1c0,0,0.1-0.6,0.3-1c0.1-0.2,0.3-0.6,0.7-0.6c0.5,0,0.9,0.3,0.9,0.9c0.2-0.2,0.7-0.9,1.6-0.9
			c0.7,0,1.1,0.4,1.1,1.1c0,0.6-0.4,1.7-0.6,2.2c-0.1,0.2-0.2,0.5-0.2,0.7c0,0.2,0.1,0.3,0.2,0.3c0.5,0,0.8-0.6,1-1.2
			c0-0.1,0-0.2,0.1-0.2c0,0,0.1,0,0.1,0.1c0,0.1-0.4,1.5-1.3,1.5c-0.5,0-0.8-0.3-0.8-0.8c0-0.1,0-0.2,0.1-0.5
			c0.2-0.4,0.6-1.7,0.6-2.3c0-0.3-0.1-0.7-0.5-0.7c-0.9,0-1.5,0.9-1.6,1.2c0,0-0.1,0.3-0.1,0.5c0,0.2-0.1,0.4-0.2,0.7l-0.2,0.9
			c-0.1,0.2-0.2,0.7-0.2,0.7c-0.1,0.2-0.2,0.3-0.4,0.3c-0.1,0-0.3-0.1-0.3-0.3c0,0,0.1-0.3,0.1-0.4L114,204.9z"/>
	</g>
	<g>
		<path class="st0" d="M120.1,210.3h-1.4v-0.4h1v-9.2h-1v-0.4h1.4V210.3z"/>
	</g>
	<line class="st3" x1="85.5" y1="244.5" x2="85.5" y2="209.1"/>
	<g>
		<path class="st0" d="M85.5,210.7c-1.1,0-1.9-0.9-1.9-1.9c0-1,0.9-1.9,1.9-1.9c1,0,1.9,0.9,1.9,1.9S86.5,210.7,85.5,210.7z"/>
	</g>
	<line class="st3" x1="71.3" y1="244.5" x2="71.3" y2="226.8"/>
	<g>
		<path class="st0" d="M71.3,228.5c-1.1,0-1.9-0.9-1.9-1.9c0-1,0.9-1.9,1.9-1.9c1,0,1.9,0.9,1.9,1.9S72.4,228.5,71.3,228.5z"/>
	</g>
	<line class="st3" x1="57.1" y1="244.5" x2="57.1" y2="233.9"/>
	<g>
		<path class="st0" d="M57.1,235.5c-1.1,0-1.9-0.9-1.9-1.9c0-1,0.9-1.9,1.9-1.9c1,0,1.9,0.9,1.9,1.9S58.2,235.5,57.1,235.5z"/>
	</g>
	<line class="st3" x1="42.9" y1="244.5" x2="42.9" y2="237.4"/>
	<g>
		<path class="st0" d="M43,239c-1.1,0-1.9-0.9-1.9-1.9c0-1,0.9-1.9,1.9-1.9c1,0,1.9,0.9,1.9,1.9S44,239,43,239z"/>
	</g>
	<path class="st7" d="M85.5,205.5c0,0-4.3,7.2-7.1,10.6c-4.4,5.3-8.2,10.8-14.2,14.2c-8.7,4.9-28.3,7.1-28.3,7.1l0,0"/>
	<line class="st3" x1="99.6" y1="244.5" x2="99.6" y2="226.8"/>
	<g>
		<path class="st0" d="M99.6,228.5c-1.1,0-1.9-0.9-1.9-1.9c0-1,0.9-1.9,1.9-1.9c1,0,1.9,0.9,1.9,1.9S100.7,228.5,99.6,228.5z"/>
	</g>
	<line class="st3" x1="128" y1="244.5" x2="128" y2="237.4"/>
	<g>
		<path class="st0" d="M128.1,239c-1.1,0-1.9-0.9-1.9-1.9c0-1,0.9-1.9,1.9-1.9c1,0,1.9,0.9,1.9,1.9S129.1,239,128.1,239z"/>
	</g>
	<line class="st3" x1="113.8" y1="244.5" x2="113.8" y2="233.9"/>
	<g>
		<path class="st0" d="M113.8,235.5c-1.1,0-1.9-0.9-1.9-1.9c0-1,0.9-1.9,1.9-1.9c1,0,1.9,0.9,1.9,1.9S114.8,235.5,113.8,235.5z"/>
	</g>
	<path class="st6" d="M85.5,205.5c0,0,4.3,7.2,7.1,10.6c4.4,5.3,8.2,10.8,14.2,14.2c8.7,4.9,28.3,7.1,28.3,7.1l0,0"/>
	<path class="st9" d="M142.2,237.4c0,0,9.6-1.4,14.2-3.5c5.5-2.6,14.2-10.6,14.2-10.6l0,0"/>
	<path class="st9" d="M28.8,237.4c0,0-9.6-1.4-14.2-3.5c-5.5-2.6-14.2-10.6-14.2-10.6l0,0"/>
	<polyline points="87.7,203 85.5,198.4 83.2,203 85.5,201.8 	"/>
	<line class="st3" x1="85.5" y1="244.5" x2="85.5" y2="201.8"/>
	<line class="st10" x1="142.2" y1="244.5" x2="142.2" y2="237.4"/>
	<g>
		<path class="st2" d="M142.2,239c-1.1,0-1.9-0.9-1.9-1.9c0-1,0.9-1.9,1.9-1.9c1,0,1.9,0.9,1.9,1.9S143.3,239,142.2,239z"/>
	</g>
	<line class="st10" x1="156.3" y1="244.5" x2="156.3" y2="233.9"/>
	<g>
		<path class="st2" d="M156.4,235.5c-1.1,0-1.9-0.9-1.9-1.9c0-1,0.9-1.9,1.9-1.9c1,0,1.9,0.9,1.9,1.9S157.4,235.5,156.4,235.5z"/>
	</g>
	<line class="st10" x1="28.8" y1="244.5" x2="28.8" y2="237.4"/>
	<g>
		<path class="st2" d="M28.8,239c-1.1,0-1.9-0.9-1.9-1.9c0-1,0.9-1.9,1.9-1.9c1,0,1.9,0.9,1.9,1.9S29.9,239,28.8,239z"/>
	</g>
	<line class="st10" x1="14.6" y1="244.5" x2="14.6" y2="233.9"/>
	<g>
		<path class="st2" d="M14.7,235.5c-1.1,0-1.9-0.9-1.9-1.9c0-1,0.9-1.9,1.9-1.9c1,0,1.9,0.9,1.9,1.9S15.7,235.5,14.7,235.5z"/>
	</g>
	<polyline points="40.4,252.8 35.9,255.1 40.4,257.4 39.3,255.1 	"/>
	<line class="st3" x1="39.3" y1="255.1" x2="78.4" y2="255.1"/>
	<polyline points="130.5,257.4 135.1,255.1 130.5,252.8 131.7,255.1 	"/>
	<line class="st3" x1="92.6" y1="255.1" x2="131.7" y2="255.1"/>
	<g>
		<path class="st0" d="M87.1,258.3c0,0.2,0,0.2-0.2,0.2c-0.1,0-0.1,0-0.2-0.2l-2.5-5.9c0-0.1,0-0.1-0.1-0.2l-1.3,5.3
			c0,0.1,0,0.2,0,0.2c0,0.2,0.1,0.4,0.7,0.4c0.1,0,0.2,0,0.2,0.1c0,0.2-0.1,0.2-0.2,0.2c-0.3,0-0.7,0-1,0c-0.3,0-0.7,0-1,0
			c-0.1,0-0.1,0-0.1-0.1c0-0.2,0.1-0.2,0.2-0.2c0.8,0,1-0.3,1.1-0.7l1.3-5.4c0-0.1-0.6-0.1-0.7-0.1c-0.2,0-0.3,0-0.3-0.1
			c0-0.2,0.1-0.2,0.3-0.2h1.3c0.2,0,0.2,0,0.3,0.2l2.2,5.2l1.1-4.4c0,0,0-0.2,0-0.2c0-0.2-0.1-0.4-0.7-0.4c-0.1,0-0.2,0-0.2-0.1
			c0-0.2,0.1-0.2,0.2-0.2c0.3,0,0.7,0,1,0c0.3,0,0.7,0,1,0c0.1,0,0.1,0.1,0.1,0.1c0,0.2-0.1,0.2-0.2,0.2c-0.8,0-1,0.3-1.1,0.7
			L87.1,258.3z"/>
	</g>
	<polyline points="406.9,147.5 411.4,145.3 406.9,143 408,145.3 	"/>
	<line class="st3" x1="241.4" y1="145.3" x2="408" y2="145.3"/>
	<polyline points="328.7,103.7 326.4,99.2 324.1,103.7 326.4,102.6 	"/>
	<path class="st3" d="M326.4,145.3v-42.7 M322.9,106.3h7.1"/>
	<g>
		<path class="st0" d="M281.8,102.7c-0.2,0-0.3-0.1-0.6-0.2c-0.2-0.1-0.4-0.2-0.6-0.2c-0.4,0-0.8,0.5-0.8,0.5l-0.2-0.1
			c0.5-0.6,0.7-0.8,1.1-0.8c0.2,0,0.3,0.1,0.6,0.2c0.2,0.1,0.4,0.2,0.6,0.2c0.4,0,0.8-0.5,0.8-0.5l0.2,0.1
			C282.3,102.5,282.1,102.7,281.8,102.7z"/>
	</g>
	<g>
		<path class="st0" d="M279.2,104.8c0-0.1,0-0.1,0-0.2c0-0.1-0.1-0.1-0.3-0.2c-0.2,0-0.4,0-0.4,0c-0.2,0-0.3,0-0.3-0.1
			c0-0.2,0.1-0.2,0.3-0.2h3.3c1.2,0,1.9,0.6,1.9,1.4c0,0.9-1,1.7-2.1,1.9c1,0.1,1.5,0.7,1.5,1.4c0,1-1.2,2.2-2.8,2.2H277
			c-0.2,0-0.3,0-0.3-0.1c0-0.2,0.1-0.2,0.3-0.2c0.8,0,0.8-0.1,0.9-0.5L279.2,104.8z M280.3,110.6c1.2,0,2.1-1,2.1-2
			c0-0.4-0.2-1.2-1.1-1.2h-1.9l-0.7,2.8c0,0.2,0,0.2,0,0.2c0,0.1,0,0.1,0.1,0.1c0.1,0,0.1,0,0.2,0H280.3z M280.9,107.3
			c1.2,0,2.1-0.9,2.1-1.8c0-0.4-0.2-1-1.1-1h-1.3c-0.4,0-0.4,0-0.5,0.4l-0.6,2.5H280.9z"/>
	</g>
	<g>
		<path class="st0" d="M292.6,108.1c-0.6,0-1.2-0.4-1.7-0.7c-0.5-0.3-1-0.7-1.6-0.7c-0.5,0-1.3,0.3-1.4,1.1c0,0,0,0.2-0.1,0.2
			c-0.1,0-0.1-0.1-0.1-0.3c0-0.9,0.7-1.6,1.7-1.6c0.6,0,1.2,0.4,1.7,0.7c0.5,0.3,1,0.7,1.6,0.7c0.6,0,1.3-0.4,1.4-1.1
			c0-0.2,0.1-0.3,0.1-0.3c0.1,0,0.1,0.1,0.1,0.3C294.3,107.4,293.6,108.1,292.6,108.1z M292.6,110.4c-0.6,0-1.2-0.4-1.7-0.7
			c-0.5-0.3-1-0.7-1.6-0.7c-0.5,0-1.3,0.3-1.4,1.1c0,0,0,0.2-0.1,0.2c-0.1,0-0.1-0.1-0.1-0.3c0-0.9,0.7-1.6,1.7-1.6
			c0.6,0,1.2,0.4,1.7,0.7c0.5,0.3,1,0.7,1.6,0.7c0.6,0,1.3-0.4,1.4-1.1c0-0.2,0.1-0.3,0.1-0.3c0,0,0.1,0,0.1,0.3
			C294.3,109.6,293.6,110.4,292.6,110.4z"/>
	</g>
	<g>
		<path class="st0" d="M300.6,104.8c0-0.1,0-0.1,0-0.2c0-0.1-0.1-0.1-0.3-0.2c-0.2,0-0.4,0-0.4,0c-0.2,0-0.3,0-0.3-0.1
			c0-0.2,0.1-0.2,0.3-0.2h3.3c1.2,0,1.9,0.6,1.9,1.4c0,0.9-1,1.7-2.1,1.9c1,0.1,1.5,0.7,1.5,1.4c0,1-1.2,2.2-2.8,2.2h-3.6
			c-0.2,0-0.3,0-0.3-0.1c0-0.2,0.1-0.2,0.3-0.2c0.8,0,0.8-0.1,0.9-0.5L300.6,104.8z M301.7,110.6c1.2,0,2.1-1,2.1-2
			c0-0.4-0.2-1.2-1.1-1.2h-1.9l-0.7,2.8c0,0.2,0,0.2,0,0.2c0,0.1,0,0.1,0.1,0.1c0.1,0,0.1,0,0.2,0H301.7z M302.2,107.3
			c1.2,0,2.1-0.9,2.1-1.8c0-0.4-0.2-1-1.1-1h-1.3c-0.4,0-0.4,0-0.5,0.4l-0.6,2.5H302.2z"/>
	</g>
	<g>
		<path class="st0" d="M420.7,146.2c-0.4,0.7-0.8,1.4-1.6,1.4c-0.6,0-1-0.5-1.1-1c-0.4,0.5-0.8,1-1.5,1c-0.8,0-1-0.7-1-1.4
			c0-0.9,0.4-2.1,0.9-2.8c0.1-0.1,0.1-0.2,0.3-0.2c0.1,0,0.2,0.1,0.2,0.2c0,0.1-1,1.2-1,2.4c0,0.6,0.2,1.1,0.9,1.1
			c0.6,0,1-0.4,1.4-0.9c0-0.4,0.1-1,0.2-1.2c0.1-0.1,0.2-0.2,0.3-0.2c0.1,0,0.2,0.1,0.2,0.2c0,0.3-0.2,0.9-0.3,1.2
			c0.1,0.5,0.4,0.9,1,0.9c0.5,0,0.8-0.3,1.1-0.8c0.3-0.5,0.5-1,0.5-1.4c0-0.4-0.2-0.7-0.3-0.8c-0.1-0.1-0.1-0.2-0.1-0.3
			c0-0.2,0.3-0.5,0.5-0.5c0.2,0,0.4,0.2,0.4,0.7C421.3,144.3,420.9,145.7,420.7,146.2z"/>
	</g>
	<g>
		<path class="st0" d="M379,101.4c-0.2,0-0.3-0.1-0.6-0.2c-0.2-0.1-0.4-0.2-0.6-0.2c-0.4,0-0.8,0.5-0.8,0.5l-0.2-0.1
			c0.5-0.6,0.7-0.8,1.1-0.8c0.2,0,0.3,0.1,0.6,0.2c0.2,0.1,0.4,0.2,0.6,0.2c0.4,0,0.8-0.5,0.8-0.5l0.2,0.1
			C379.5,101.2,379.3,101.4,379,101.4z"/>
	</g>
	<g>
		<path class="st0" d="M379.5,109c0,0.1,0,0.1,0,0.2c0,0.2,0.3,0.2,0.6,0.2c0.2,0,0.3,0,0.3,0.1c0,0.2-0.1,0.2-0.2,0.2
			c-0.2,0-0.4,0-0.6,0c-0.2,0-0.4,0-0.6,0c-0.3,0-1,0-1.3,0c0,0-0.1,0-0.1-0.1c0-0.2,0.1-0.2,0.2-0.2c0.6,0,0.8,0,0.9-0.3
			c0-0.1,0.3-1.1,0.7-2.8h-3l-0.7,2.7c0,0.1,0,0.1,0,0.2c0,0.2,0.3,0.2,0.6,0.2c0.2,0,0.3,0,0.3,0.1c0,0.2-0.1,0.2-0.2,0.2
			c-0.2,0-0.4,0-0.6,0c-0.2,0-0.4,0-0.6,0c-0.3,0-1,0-1.3,0c0,0-0.1,0-0.1-0.1c0-0.2,0.1-0.2,0.3-0.2c0.8,0,0.8-0.1,0.9-0.5l1.3-5.4
			c0-0.1,0-0.1,0-0.2c0-0.1-0.1-0.1-0.3-0.2c-0.2,0-0.4,0-0.4,0c-0.2,0-0.3,0-0.3-0.1c0-0.2,0.1-0.2,0.2-0.2c0.3,0,1,0,1.3,0
			c0.3,0,1,0,1.3,0c0,0,0.1,0,0.1,0.1c0,0.2-0.1,0.2-0.3,0.2c-0.7,0-0.7,0.1-0.8,0.5l-0.6,2.3h3l0.6-2.4c0-0.1,0-0.1,0-0.2
			c0-0.1-0.1-0.1-0.3-0.2c-0.2,0-0.4,0-0.4,0c-0.2,0-0.3,0-0.3-0.1c0-0.2,0.1-0.2,0.2-0.2c0.3,0,1,0,1.3,0c0.3,0,1,0,1.3,0
			c0,0,0.1,0,0.1,0.1c0,0.2-0.1,0.2-0.3,0.2c-0.7,0-0.7,0.1-0.8,0.5L379.5,109z"/>
	</g>
	<g>
		<path class="st0" d="M385.6,112.1c-0.1,0-1-0.6-1.6-1.9c-0.5-1.1-0.7-2.3-0.7-3.1c0-0.8,0.1-1.9,0.6-3c0.6-1.3,1.5-1.9,1.6-1.9
			c0.1,0,0.1,0,0.1,0.1c0,0,0,0-0.1,0.2c-1.2,1.2-1.6,3-1.6,4.7c0,1.5,0.3,3.4,1.6,4.7C385.7,112,385.7,112,385.6,112.1
			C385.7,112.1,385.6,112.1,385.6,112.1z"/>
	</g>
	<g>
		<path class="st0" d="M391.6,108.4c-0.4,0.7-0.8,1.4-1.6,1.4c-0.6,0-1-0.5-1.1-1c-0.4,0.5-0.8,1-1.5,1c-0.8,0-1-0.7-1-1.4
			c0-0.9,0.4-2.1,0.9-2.8c0.1-0.1,0.1-0.2,0.3-0.2c0.1,0,0.2,0.1,0.2,0.2c0,0.1-1,1.2-1,2.4c0,0.6,0.2,1.1,0.9,1.1
			c0.6,0,1-0.4,1.4-0.9c0-0.4,0.1-1,0.2-1.2c0.1-0.1,0.2-0.2,0.3-0.2c0.1,0,0.2,0.1,0.2,0.2c0,0.3-0.2,0.9-0.3,1.2
			c0.1,0.5,0.4,0.9,1,0.9c0.5,0,0.8-0.3,1.1-0.8c0.3-0.5,0.5-1,0.5-1.4c0-0.4-0.2-0.7-0.3-0.8c-0.1-0.1-0.1-0.2-0.1-0.3
			c0-0.2,0.3-0.5,0.5-0.5c0.2,0,0.4,0.2,0.4,0.7C392.2,106.5,391.9,107.9,391.6,108.4z"/>
	</g>
	<g>
		<path class="st0" d="M395.1,110.2c-0.6,1.3-1.5,1.9-1.6,1.9c-0.1,0-0.1,0-0.1-0.1c0,0,0-0.1,0.1-0.2c1.2-1.3,1.6-3,1.6-4.7
			c0-2.1-0.6-3.7-1.5-4.7c-0.2-0.2-0.2-0.2-0.2-0.2c0-0.1,0-0.1,0.1-0.1c0.1,0,1,0.6,1.6,1.9c0.5,1.1,0.7,2.3,0.7,3.1
			C395.7,108,395.6,109.1,395.1,110.2z"/>
		<path class="st0" d="M400.3,106.4c-0.1,0-0.3,0-0.3-0.2s0.2-0.2,0.3-0.2h6c0.1,0,0.3,0,0.3,0.2s-0.2,0.2-0.3,0.2H400.3z
			 M400.3,108.3c-0.1,0-0.3,0-0.3-0.2s0.2-0.2,0.3-0.2h5.9c0.1,0,0.3,0,0.3,0.2s-0.2,0.2-0.3,0.2H400.3z"/>
	</g>
	<g>
		<path class="st0" d="M367.5,118.8c0,0.1,0,0.1,0,0.2c0,0.2,0.3,0.2,0.6,0.2c0.2,0,0.3,0,0.3,0.1c0,0.2-0.1,0.2-0.2,0.2
			c-0.2,0-0.4,0-0.6,0c-0.2,0-0.4,0-0.6,0c-0.3,0-1,0-1.3,0c0,0-0.1,0-0.1-0.1c0-0.2,0.1-0.2,0.2-0.2c0.6,0,0.8,0,0.9-0.3
			c0-0.1,0.3-1.1,0.7-2.8h-3l-0.7,2.7c0,0.1,0,0.1,0,0.2c0,0.2,0.3,0.2,0.6,0.2c0.2,0,0.3,0,0.3,0.1c0,0.2-0.1,0.2-0.2,0.2
			c-0.2,0-0.4,0-0.6,0c-0.2,0-0.4,0-0.6,0c-0.3,0-1,0-1.3,0c0,0-0.1,0-0.1-0.1c0-0.2,0.1-0.2,0.3-0.2c0.8,0,0.8-0.1,0.9-0.5l1.3-5.4
			c0-0.1,0-0.1,0-0.2c0-0.1-0.1-0.1-0.3-0.2c-0.2,0-0.4,0-0.4,0c-0.2,0-0.3,0-0.3-0.1c0-0.2,0.1-0.2,0.2-0.2c0.3,0,1,0,1.3,0
			c0.3,0,1,0,1.3,0c0,0,0.1,0,0.1,0.1c0,0.2-0.1,0.2-0.3,0.2c-0.7,0-0.7,0.1-0.8,0.5l-0.6,2.3h3l0.6-2.4c0-0.1,0-0.1,0-0.2
			c0-0.1-0.1-0.1-0.3-0.2c-0.2,0-0.4,0-0.4,0c-0.2,0-0.3,0-0.3-0.1c0-0.2,0.1-0.2,0.2-0.2c0.3,0,1,0,1.3,0c0.3,0,1,0,1.3,0
			c0,0,0.1,0,0.1,0.1c0,0.2-0.1,0.2-0.3,0.2c-0.7,0-0.7,0.1-0.8,0.5L367.5,118.8z"/>
	</g>
	<g>
		<path class="st0" d="M373.6,121.9c-0.1,0-1-0.6-1.6-1.9c-0.5-1.1-0.7-2.3-0.7-3.1c0-0.8,0.1-1.9,0.6-3c0.6-1.3,1.5-1.9,1.6-1.9
			c0.1,0,0.1,0,0.1,0.1c0,0,0,0-0.1,0.2c-1.2,1.2-1.6,3-1.6,4.7c0,1.5,0.3,3.4,1.6,4.7C373.7,121.8,373.7,121.8,373.6,121.9
			C373.7,121.9,373.6,121.9,373.6,121.9z"/>
	</g>
	<g>
		<path class="st0" d="M379.6,118.2c-0.4,0.7-0.8,1.4-1.6,1.4c-0.6,0-1-0.5-1.1-1c-0.4,0.5-0.8,1-1.5,1c-0.8,0-1-0.7-1-1.4
			c0-0.9,0.4-2.1,0.9-2.8c0.1-0.1,0.1-0.2,0.3-0.2c0.1,0,0.2,0.1,0.2,0.2c0,0.1-1,1.2-1,2.4c0,0.6,0.2,1.1,0.9,1.1
			c0.6,0,1-0.4,1.4-0.9c0-0.4,0.1-1,0.2-1.2c0.1-0.1,0.2-0.2,0.3-0.2c0.1,0,0.2,0.1,0.2,0.2c0,0.3-0.2,0.9-0.3,1.2
			c0.1,0.5,0.4,0.9,1,0.9c0.5,0,0.8-0.3,1.1-0.8c0.3-0.5,0.5-1,0.5-1.4c0-0.4-0.2-0.7-0.3-0.8c-0.1-0.1-0.1-0.2-0.1-0.3
			c0-0.2,0.3-0.5,0.5-0.5c0.2,0,0.4,0.2,0.4,0.7C380.2,116.4,379.9,117.7,379.6,118.2z"/>
	</g>
	<g>
		<path class="st0" d="M383.1,120c-0.6,1.3-1.5,1.9-1.6,1.9c-0.1,0-0.1,0-0.1-0.1c0,0,0-0.1,0.1-0.2c1.2-1.3,1.6-3,1.6-4.7
			c0-2.1-0.6-3.7-1.5-4.7c-0.2-0.2-0.2-0.2-0.2-0.2c0-0.1,0-0.1,0.1-0.1c0.1,0,1,0.6,1.6,1.9c0.5,1.1,0.7,2.3,0.7,3.1
			C383.7,117.8,383.6,118.9,383.1,120z"/>
	</g>
	<path d="M389.2,117.9c0,0,0.1-0.1,0.1-0.1c0,0,0.4,0.4,0.5,0.5c0.3,0.3,0.6,0.6,0.9,0.9c0,0,0.1,0,0.1,0c0.1,0,0.1-0.1,0.1-0.1
		c0,0-0.3-0.6-0.6-1.1l-0.4-0.7l1.7-0.8c0.1-0.1,0.1-0.1,0.1-0.1c0,0,0-0.1-0.1-0.1c0,0-0.5,0.1-2,0.4l-0.2-1.9c0-0.2,0-0.2-0.1-0.2
		c-0.1,0-0.1,0-0.1,0.2l-0.2,1.9l-1.8-0.4c0,0-0.1,0-0.1,0c-0.1,0-0.1,0-0.1,0.1c0,0.1,0,0.1,0.2,0.1l1.7,0.8l-0.9,1.7
		c-0.1,0.1-0.1,0.1-0.1,0.2c0,0,0,0.1,0.1,0.1c0,0,0,0,0.1-0.1L389.2,117.9z M403.2,113.8c0.2-0.4,0.5-0.8,1.1-0.8
		c0.1,0,0.2,0,0.2-0.2c0,0,0-0.1-0.1-0.1c-0.2,0-0.5,0-0.8,0c-0.3,0-0.7,0-1,0c-0.1,0-0.2,0-0.2,0.2c0,0.1,0.1,0.1,0.1,0.1
		c0.2,0,0.6,0.1,0.6,0.4c0,0.1,0,0.2-0.1,0.3l-2.7,4.7l-0.4-4.9c0-0.2,0-0.5,0.7-0.5c0.2,0,0.3,0,0.3-0.2c0-0.1-0.1-0.1-0.1-0.1
		c-0.4,0-0.8,0-1.2,0c-0.2,0-0.8,0-1,0c-0.1,0-0.2,0-0.2,0.2c0,0.1,0.1,0.1,0.2,0.1c0.4,0,0.5,0.1,0.5,0.2l0.1,0.8l-2.5,4.4
		l-0.4-5.1c0-0.1,0-0.3,0.8-0.4c0.1,0,0.2,0,0.2-0.2c0-0.1-0.1-0.1-0.1-0.1c-0.4,0-0.8,0-1.2,0c-0.3,0-0.7,0-1,0c0,0-0.2,0-0.2,0.2
		c0,0.1,0.1,0.1,0.2,0.1c0.5,0,0.5,0.1,0.5,0.4l0.4,6.1c0,0.2,0,0.3,0.2,0.3c0.1,0,0.1-0.1,0.2-0.2l2.9-5.1l0.4,5
		c0,0.2,0,0.3,0.2,0.3c0.1,0,0.2-0.1,0.2-0.2L403.2,113.8z"/>
	<g>
		<path class="st0" d="M408,121.9c-0.1,0-1-0.6-1.6-1.9c-0.5-1.1-0.7-2.3-0.7-3.1c0-0.8,0.1-1.9,0.6-3c0.6-1.3,1.5-1.9,1.6-1.9
			c0.1,0,0.1,0,0.1,0.1c0,0,0,0-0.1,0.2c-1.2,1.2-1.6,3-1.6,4.7c0,1.5,0.3,3.4,1.6,4.7C408.1,121.8,408.1,121.8,408,121.9
			C408.1,121.9,408.1,121.9,408,121.9z"/>
	</g>
	<g>
		<path class="st0" d="M414.1,118.2c-0.4,0.7-0.8,1.4-1.6,1.4c-0.6,0-1-0.5-1.1-1c-0.4,0.5-0.8,1-1.5,1c-0.8,0-1-0.7-1-1.4
			c0-0.9,0.4-2.1,0.9-2.8c0.1-0.1,0.1-0.2,0.3-0.2c0.1,0,0.2,0.1,0.2,0.2c0,0.1-1,1.2-1,2.4c0,0.6,0.2,1.1,0.9,1.1
			c0.6,0,1-0.4,1.4-0.9c0-0.4,0.1-1,0.2-1.2c0.1-0.1,0.2-0.2,0.3-0.2c0.1,0,0.2,0.1,0.2,0.2c0,0.3-0.2,0.9-0.3,1.2
			c0.1,0.5,0.4,0.9,1,0.9c0.5,0,0.8-0.3,1.1-0.8c0.3-0.5,0.5-1,0.5-1.4c0-0.4-0.2-0.7-0.3-0.8c-0.1-0.1-0.1-0.2-0.1-0.3
			c0-0.2,0.3-0.5,0.5-0.5c0.2,0,0.4,0.2,0.4,0.7C414.7,116.4,414.3,117.7,414.1,118.2z"/>
	</g>
	<g>
		<path class="st0" d="M417.5,120c-0.6,1.3-1.5,1.9-1.6,1.9c-0.1,0-0.1,0-0.1-0.1c0,0,0-0.1,0.1-0.2c1.2-1.3,1.6-3,1.6-4.7
			c0-2.1-0.6-3.7-1.5-4.7c-0.2-0.2-0.2-0.2-0.2-0.2c0-0.1,0-0.1,0.1-0.1c0.1,0,1,0.6,1.6,1.9c0.5,1.1,0.7,2.3,0.7,3.1
			C418.1,117.8,418,118.9,417.5,120z"/>
	</g>
	<path class="st3" d="M326.4,106.3c0,0,10,0.8,14.2,3.5c5.1,3.4,5.8,10.5,10.6,14.2c5.2,4,12,3.9,17.7,7.1c5.3,3,8.3,9.2,14.2,10.6
		c7.2,1.7,13.9-4.6,21.3-3.5c2.7,0.4,7.1,3.5,7.1,3.5l0,0 M326.4,106.3c0,0-10,0.8-14.2,3.5c-5.1,3.4-5.8,10.5-10.6,14.2
		c-5.2,4-12,3.9-17.7,7.1c-5.3,3-8.3,9.2-14.2,10.6c-7.2,1.7-13.9-4.6-21.3-3.5c-2.7,0.4-7.1,3.5-7.1,3.5l0,0"/>
	<path class="st4" d="M344.1,145.3v-7.1 M361.8,145.3v-7.1 M379.6,145.3v-7.1 M397.3,145.3v-7.1 M308.7,145.3v-7.1 M291,145.3v-7.1
		 M273.3,145.3v-7.1 M255.5,145.3v-7.1"/>
	<line class="st3" x1="322.9" y1="155.9" x2="330" y2="155.9"/>
	<polyline points="406.9,197.1 411.4,194.9 406.9,192.6 408,194.9 	"/>
	<line class="st3" x1="241.4" y1="194.9" x2="408" y2="194.9"/>
	<polyline points="328.7,153.4 326.4,148.8 324.1,153.4 326.4,152.2 	"/>
	<line class="st3" x1="326.4" y1="194.9" x2="326.4" y2="152.2"/>
	<g>
		<path class="st0" d="M293.4,151.1c-0.2,0-0.3-0.1-0.6-0.2c-0.2-0.1-0.4-0.3-0.6-0.3c-0.4,0-0.8,0.5-0.8,0.5l-0.2-0.1
			c0.5-0.6,0.7-0.8,1.1-0.8c0.2,0,0.3,0.1,0.6,0.2c0.2,0.1,0.4,0.2,0.6,0.2c0.4,0,0.8-0.5,0.8-0.5l0.2,0.1
			C294,150.8,293.8,151.1,293.4,151.1z"/>
	</g>
	<g>
		<path class="st0" d="M290.9,153.2c0-0.1,0-0.1,0-0.2c0-0.1-0.1-0.1-0.3-0.2c-0.2,0-0.4,0-0.4,0c-0.2,0-0.3,0-0.3-0.1
			c0-0.2,0.1-0.2,0.3-0.2h3.3c1.2,0,1.9,0.6,1.9,1.4c0,0.9-1,1.7-2.1,1.9c1,0.1,1.5,0.7,1.5,1.4c0,1-1.2,2.2-2.8,2.2h-3.6
			c-0.2,0-0.3,0-0.3-0.1c0-0.2,0.1-0.2,0.3-0.2c0.8,0,0.8-0.1,0.9-0.5L290.9,153.2z M291.9,159c1.2,0,2.1-1,2.1-2
			c0-0.4-0.2-1.2-1.1-1.2H291l-0.7,2.8c0,0.2,0,0.2,0,0.2c0,0.1,0,0.1,0.1,0.1c0.1,0,0.1,0,0.2,0H291.9z M292.5,155.7
			c1.2,0,2.1-0.9,2.1-1.8c0-0.4-0.2-1-1.1-1h-1.3c-0.4,0-0.4,0-0.5,0.4l-0.6,2.5H292.5z"/>
		<path class="st0" d="M296.9,161.6c-0.1,0.2-0.1,0.2-0.2,0.2c-0.1,0-0.2-0.1-0.2-0.2c0,0,0,0,0-0.2l3.5-9.5c0-0.1,0.1-0.1,0.2-0.1
			c0.1,0,0.2,0.1,0.2,0.2c0,0,0,0,0,0.2L296.9,161.6z"/>
	</g>
	<g>
		<path class="st0" d="M303.9,158.5c0,0.1,0,0.2,0,0.2c0,0.2,0.1,0.2,0.4,0.2c0.3,0,0.4,0,0.6,0c0.3,0,0.3,0,0.3,0.1
			c0,0.2-0.1,0.2-0.2,0.2c-0.3,0-0.6,0-0.9,0c-0.3,0-0.5,0-0.8,0c-0.3,0-0.6,0-0.8,0c-0.3,0-0.5,0-0.8,0c-0.1,0-0.2,0-0.2-0.1
			c0-0.2,0.1-0.2,0.4-0.2c1.1,0,1.1-0.1,1.2-0.5l1.3-5.3c0,0,0-0.1,0-0.2c0-0.1,0-0.1-0.3-0.1h-0.4c-1.5,0-1.7,0.2-2.3,1.7
			c-0.1,0.2-0.1,0.2-0.2,0.2c-0.1,0-0.1,0-0.1-0.1c0,0,0-0.2,0.1-0.2l0.6-1.8c0.1-0.2,0.1-0.2,0.3-0.2h5.5c0.2,0,0.3,0,0.3,0.1
			c0,0,0,0.1,0,0.2l-0.3,1.7c0,0.1,0,0.2-0.1,0.2c-0.1,0-0.1-0.1-0.1-0.1c0,0,0-0.2,0-0.2c0-0.3,0.1-0.6,0.1-0.8
			c0-0.8-0.4-0.8-1.5-0.8c-0.2,0-0.5,0-0.6,0c-0.1,0-0.2,0.1-0.2,0.4L303.9,158.5z"/>
	</g>
	<g>
		<path class="st0" d="M420.7,195.7c-0.4,0.7-0.8,1.4-1.6,1.4c-0.6,0-1-0.5-1.1-1c-0.4,0.5-0.8,1-1.5,1c-0.8,0-1-0.7-1-1.4
			c0-0.9,0.4-2.1,0.9-2.8c0.1-0.1,0.1-0.2,0.3-0.2c0.1,0,0.2,0.1,0.2,0.2c0,0.1-1,1.2-1,2.4c0,0.6,0.2,1.1,0.9,1.1
			c0.6,0,1-0.4,1.4-0.9c0-0.4,0.1-1,0.2-1.2c0.1-0.1,0.2-0.2,0.3-0.2c0.1,0,0.2,0.1,0.2,0.2c0,0.3-0.2,0.9-0.3,1.2
			c0.1,0.5,0.4,0.9,1,0.9c0.5,0,0.8-0.3,1.1-0.8c0.3-0.5,0.5-1,0.5-1.4c0-0.4-0.2-0.7-0.3-0.8c-0.1-0.1-0.1-0.2-0.1-0.3
			c0-0.2,0.3-0.5,0.5-0.5c0.2,0,0.4,0.2,0.4,0.7C421.3,193.9,420.9,195.2,420.7,195.7z"/>
	</g>
	<g>
		<path class="st0" d="M356.6,162.7c0,0.1,0,0.1,0,0.2c0,0.2,0.3,0.2,0.6,0.2c0.2,0,0.3,0,0.3,0.1c0,0.2-0.1,0.2-0.2,0.2
			c-0.2,0-0.4,0-0.6,0c-0.2,0-0.4,0-0.6,0c-0.3,0-1,0-1.3,0c0,0-0.1,0-0.1-0.1c0-0.2,0.1-0.2,0.2-0.2c0.6,0,0.8,0,0.9-0.3
			c0-0.1,0.3-1.1,0.7-2.8h-3l-0.7,2.7c0,0.1,0,0.1,0,0.2c0,0.2,0.3,0.2,0.6,0.2c0.2,0,0.3,0,0.3,0.1c0,0.2-0.1,0.2-0.2,0.2
			c-0.2,0-0.4,0-0.6,0c-0.2,0-0.4,0-0.6,0c-0.3,0-1,0-1.3,0c0,0-0.1,0-0.1-0.1c0-0.2,0.1-0.2,0.3-0.2c0.8,0,0.8-0.1,0.9-0.5l1.3-5.4
			c0-0.1,0-0.1,0-0.2c0-0.1-0.1-0.1-0.3-0.2c-0.2,0-0.4,0-0.4,0c-0.2,0-0.3,0-0.3-0.1c0-0.2,0.1-0.2,0.2-0.2c0.3,0,1,0,1.3,0
			c0.3,0,1,0,1.3,0c0,0,0.1,0,0.1,0.1c0,0.2-0.1,0.2-0.3,0.2c-0.7,0-0.7,0.1-0.8,0.5l-0.6,2.3h3l0.6-2.4c0-0.1,0-0.1,0-0.2
			c0-0.1-0.1-0.1-0.3-0.2c-0.2,0-0.4,0-0.4,0c-0.2,0-0.3,0-0.3-0.1c0-0.2,0.1-0.2,0.2-0.2c0.3,0,1,0,1.3,0c0.3,0,1,0,1.3,0
			c0,0,0.1,0,0.1,0.1c0,0.2-0.1,0.2-0.3,0.2c-0.7,0-0.7,0.1-0.8,0.5L356.6,162.7z"/>
	</g>
	<g>
		<path class="st0" d="M362.7,165.9c-0.1,0-1-0.6-1.6-1.9c-0.5-1.1-0.7-2.3-0.7-3.1c0-0.8,0.1-1.9,0.6-3c0.6-1.3,1.5-1.9,1.6-1.9
			c0.1,0,0.1,0,0.1,0.1c0,0,0,0-0.1,0.2c-1.2,1.2-1.6,3-1.6,4.7c0,1.5,0.3,3.4,1.6,4.7C362.8,165.7,362.8,165.7,362.7,165.9
			C362.8,165.8,362.7,165.9,362.7,165.9z"/>
		<path class="st0" d="M364.7,162.6c0.2,0.4,0.6,0.7,1.1,0.7c0.1,0,1,0,1.3-1c0-0.1,0-0.1,0.1-0.1c0,0,0.1,0,0.1,0.1
			c0,0.2-0.4,1.3-1.7,1.3c-1.1,0-2.2-1-2.2-2.3c0-1.2,0.9-2.3,2.1-2.3c1.2,0,1.8,1,1.8,2c0,0.2,0,0.2-0.2,0.2h-2.8
			C364.4,161.4,364.4,162.1,364.7,162.6z M366.8,160.9c0-0.4-0.1-1.7-1.1-1.7c-0.3,0-1.2,0.3-1.2,1.7H366.8z"/>
	</g>
	<g>
		<path class="st0" d="M369.8,160.3c0,0.9-0.6,1.5-1.4,1.5c-0.6,0-1.1-0.3-1.1-0.8c0-0.3,0.2-0.5,0.5-0.5c0.3,0,0.5,0.2,0.5,0.5
			c0,0.3-0.2,0.4-0.3,0.4c0.3,0.1,0.5,0.1,0.5,0.1c0.6,0,0.7-0.9,0.7-1.3v-3.9c0-0.5-0.1-0.6-0.9-0.6v-0.3l1.5-0.1V160.3z
			 M369.3,154.2c-0.3,0-0.5-0.2-0.5-0.5s0.2-0.5,0.5-0.5s0.5,0.2,0.5,0.5S369.6,154.2,369.3,154.2z"/>
	</g>
	<g>
		<path class="st0" d="M374,159.8c-0.4,0-0.8-0.3-0.9-0.7c-0.3,0.4-0.7,0.7-1.1,0.7c-0.6,0-0.9-0.6-0.9-1.1c0-0.5,0.2-1.1,0.4-1.5
			c0.1-0.1,0.2-0.3,0.3-0.4c0-0.1,0.1-0.1,0.2-0.1c0.1,0,0.1,0.1,0.1,0.2c0,0.1-0.7,0.8-0.7,1.6c0,0.5,0.3,0.8,0.7,0.8
			c0.5,0,0.8-0.3,1-0.6c0-0.2,0-1,0.4-1c0.1,0,0.2,0.1,0.2,0.2c0,0.2-0.2,0.7-0.3,0.8c0.1,0.3,0.4,0.5,0.7,0.5c0.8,0,1.2-1,1.2-1.5
			c0-0.5-0.4-0.5-0.4-0.8c0-0.2,0.2-0.4,0.4-0.4c0.3,0,0.4,0.3,0.4,0.5C375.6,157.8,375.2,159.8,374,159.8z"/>
	</g>
	<g>
		<path class="st0" d="M378.9,163.9c-0.6,1.3-1.5,1.9-1.6,1.9c-0.1,0-0.1,0-0.1-0.1c0,0,0,0,0.1-0.2c1.2-1.3,1.6-3,1.6-4.7
			c0-2.1-0.6-3.7-1.5-4.7c-0.2-0.2-0.2-0.2-0.2-0.2c0-0.1,0-0.1,0.1-0.1c0.1,0,1,0.6,1.6,1.9c0.5,1.1,0.7,2.3,0.7,3.1
			C379.5,161.7,379.4,162.8,378.9,163.9z"/>
	</g>
	<line class="st3" x1="390.2" y1="198.4" x2="390.2" y2="187.8"/>
	<path class="st5" d="M390.2,191.3c0,0,4.8,0.8,7.1,0c5.8-1.9,14.2-10.6,14.2-10.6l0,0 M262.6,191.3c0,0-4.8,0.8-7.1,0
		c-5.8-1.9-14.2-10.6-14.2-10.6l0,0"/>
	<path class="st3" d="M262.6,187.8v10.6 M262.6,191.3c0,0,4.8,0.8,7.1,0c5.8-1.9,8.8-7.6,14.2-10.6c5.7-3.2,12.5-3.1,17.7-7.1
		c4.8-3.7,5.6-10.8,10.6-14.2c4.2-2.8,9.1-3.5,14.2-3.5c5,0,10,0.8,14.2,3.5c5.1,3.4,5.8,10.5,10.6,14.2c5.2,4,12,3.9,17.7,7.1
		c5.3,3,8.4,8.7,14.2,10.6c2.3,0.8,7.1,0,7.1,0l0,0"/>
	<g>
		<path class="st0" d="M383.1,181.7c-0.1,0.5-0.1,0.5-0.3,1c-0.1,0.4-0.2,0.6-0.5,0.6c-0.1,0-0.3-0.1-0.3-0.3c0-0.1,0-0.1,0.1-0.2
			c0.4-0.9,1-2.1,1.3-3.3h-0.6c-0.2,0-0.8,0-1.3,0.8c-0.1,0.1-0.1,0.1-0.2,0.1c-0.1,0-0.1-0.1-0.1-0.1c0,0,0.3-0.5,0.6-0.9
			c0.4-0.5,0.8-0.5,1-0.5h3.3c0.2,0,0.4,0,0.4,0.2c0,0.3-0.4,0.3-0.5,0.3h-1.1c-0.1,0.5-0.2,1.1-0.2,1.6c0,0.3,0,0.9,0.3,1.6
			c0.1,0.1,0.1,0.2,0.1,0.2c0,0.2-0.2,0.4-0.4,0.4c-0.1,0-0.3-0.1-0.4-0.5c-0.1-0.3-0.1-0.6-0.1-0.8c0-0.7,0.1-1.1,0.4-2.6h-1.1
			L383.1,181.7z"/>
		<path class="st0" d="M388,185.4c-0.1,0.2-0.1,0.2-0.2,0.2c-0.1,0-0.2-0.1-0.2-0.2c0,0,0,0,0-0.2l3.5-9.5c0-0.1,0.1-0.1,0.2-0.1
			c0.1,0,0.2,0.1,0.2,0.2c0,0,0,0,0,0.2L388,185.4z"/>
	</g>
	<g>
		<path class="st0" d="M395,182.4c0,0.1,0,0.2,0,0.2c0,0.2,0.1,0.2,0.4,0.2c0.3,0,0.4,0,0.6,0c0.3,0,0.3,0,0.3,0.1
			c0,0.2-0.1,0.2-0.2,0.2c-0.3,0-0.6,0-0.9,0c-0.3,0-0.5,0-0.8,0c-0.3,0-0.6,0-0.8,0c-0.3,0-0.5,0-0.8,0c-0.1,0-0.2,0-0.2-0.1
			c0-0.2,0.1-0.2,0.4-0.2c1.1,0,1.1-0.1,1.2-0.5l1.3-5.3c0,0,0-0.1,0-0.2c0-0.1,0-0.1-0.3-0.1h-0.4c-1.5,0-1.7,0.2-2.3,1.7
			c-0.1,0.2-0.1,0.2-0.2,0.2c-0.1,0-0.1,0-0.1-0.1c0,0,0-0.2,0.1-0.2l0.6-1.8c0.1-0.2,0.1-0.2,0.3-0.2h5.5c0.2,0,0.3,0,0.3,0.1
			c0,0,0,0.1,0,0.2l-0.3,1.7c0,0.1,0,0.2-0.1,0.2c-0.1,0-0.1-0.1-0.1-0.1c0,0,0-0.2,0-0.2c0-0.3,0.1-0.6,0.1-0.8
			c0-0.8-0.4-0.8-1.5-0.8c-0.2,0-0.5,0-0.6,0c-0.1,0-0.2,0.1-0.2,0.4L395,182.4z"/>
	</g>
	<g>
		<path class="st0" d="M252,181.3v-0.6h2.6v0.6H252z"/>
	</g>
	<g>
		<path class="st0" d="M257.4,181.7c-0.1,0.5-0.1,0.5-0.3,1c-0.1,0.4-0.2,0.6-0.5,0.6c-0.1,0-0.3-0.1-0.3-0.3c0-0.1,0-0.1,0.1-0.2
			c0.4-0.9,1-2.1,1.3-3.3h-0.6c-0.2,0-0.8,0-1.3,0.8c-0.1,0.1-0.1,0.1-0.2,0.1c-0.1,0-0.1-0.1-0.1-0.1c0,0,0.3-0.5,0.6-0.9
			c0.4-0.5,0.8-0.5,1-0.5h3.3c0.2,0,0.4,0,0.4,0.2c0,0.3-0.4,0.3-0.5,0.3h-1.1c-0.1,0.5-0.2,1.1-0.2,1.6c0,0.3,0,0.9,0.3,1.6
			c0.1,0.1,0.1,0.2,0.1,0.2c0,0.2-0.2,0.4-0.4,0.4c-0.1,0-0.3-0.1-0.4-0.5c-0.1-0.3-0.1-0.6-0.1-0.8c0-0.7,0.1-1.1,0.4-2.6h-1.1
			L257.4,181.7z"/>
		<path class="st0" d="M262.3,185.4c-0.1,0.2-0.1,0.2-0.2,0.2c-0.1,0-0.2-0.1-0.2-0.2c0,0,0,0,0-0.2l3.5-9.5c0-0.1,0.1-0.1,0.2-0.1
			c0.1,0,0.2,0.1,0.2,0.2c0,0,0,0,0,0.2L262.3,185.4z"/>
	</g>
	<g>
		<path class="st0" d="M269.3,182.4c0,0.1,0,0.2,0,0.2c0,0.2,0.1,0.2,0.4,0.2c0.3,0,0.4,0,0.6,0c0.3,0,0.3,0,0.3,0.1
			c0,0.2-0.1,0.2-0.2,0.2c-0.3,0-0.6,0-0.9,0c-0.3,0-0.5,0-0.8,0c-0.3,0-0.6,0-0.8,0c-0.3,0-0.5,0-0.8,0c-0.1,0-0.2,0-0.2-0.1
			c0-0.2,0.1-0.2,0.4-0.2c1.1,0,1.1-0.1,1.2-0.5l1.3-5.3c0,0,0-0.1,0-0.2c0-0.1,0-0.1-0.3-0.1h-0.4c-1.5,0-1.7,0.2-2.3,1.7
			c-0.1,0.2-0.1,0.2-0.2,0.2c-0.1,0-0.1,0-0.1-0.1c0,0,0-0.2,0.1-0.2l0.6-1.8c0.1-0.2,0.1-0.2,0.3-0.2h5.5c0.2,0,0.3,0,0.3,0.1
			c0,0,0,0.1,0,0.2l-0.3,1.7c0,0.1,0,0.2-0.1,0.2c-0.1,0-0.1-0.1-0.1-0.1c0,0,0-0.2,0-0.2c0-0.3,0.1-0.6,0.1-0.8
			c0-0.8-0.4-0.8-1.5-0.8c-0.2,0-0.5,0-0.6,0c-0.1,0-0.2,0.1-0.2,0.4L269.3,182.4z"/>
	</g>
	<path class="st4" d="M344.1,194.9v-7.1 M361.8,194.9v-7.1 M379.6,194.9v-7.1 M397.3,194.9v-7.1 M308.7,194.9v-7.1 M291,194.9v-7.1
		 M273.3,194.9v-7.1 M255.5,194.9v-7.1"/>
	<polyline points="406.9,48.3 411.4,46.1 406.9,43.8 408,46.1 	"/>
	<line class="st3" x1="241.4" y1="46.1" x2="408" y2="46.1"/>
	<polyline points="328.7,4.5 326.4,0 324.1,4.5 326.4,3.4 	"/>
	<path class="st3" d="M326.4,46.1V3.4 M322.9,7.1h7.1"/>
	<g>
		<path class="st0" d="M304.1,4.4c0-0.1,0-0.1,0-0.2c0-0.1-0.1-0.1-0.3-0.2c-0.2,0-0.4,0-0.4,0c-0.2,0-0.3,0-0.3-0.1
			c0-0.2,0.1-0.2,0.3-0.2h3.3c1.2,0,1.9,0.6,1.9,1.4c0,0.9-1,1.7-2.1,1.9c1,0.1,1.5,0.7,1.5,1.4c0,1-1.2,2.2-2.8,2.2h-3.6
			c-0.2,0-0.3,0-0.3-0.1c0-0.2,0.1-0.2,0.3-0.2c0.8,0,0.8-0.1,0.9-0.5L304.1,4.4z M305.1,10.2c1.2,0,2.1-1,2.1-2
			c0-0.4-0.2-1.2-1.1-1.2h-1.9l-0.7,2.8c0,0.2,0,0.2,0,0.2c0,0.1,0,0.1,0.1,0.1c0.1,0,0.1,0,0.2,0H305.1z M305.7,6.9
			c1.2,0,2.1-0.9,2.1-1.8c0-0.4-0.2-1-1.1-1h-1.3c-0.4,0-0.4,0-0.5,0.4l-0.6,2.5H305.7z"/>
	</g>
	<g>
		<path class="st0" d="M420.7,46.9c-0.4,0.7-0.8,1.4-1.6,1.4c-0.6,0-1-0.5-1.1-1c-0.4,0.5-0.8,1-1.5,1c-0.8,0-1-0.7-1-1.4
			c0-0.9,0.4-2.1,0.9-2.8c0.1-0.1,0.1-0.2,0.3-0.2c0.1,0,0.2,0.1,0.2,0.2c0,0.1-1,1.2-1,2.4c0,0.6,0.2,1.1,0.9,1.1
			c0.6,0,1-0.4,1.4-0.9c0-0.4,0.1-1,0.2-1.2c0.1-0.1,0.2-0.2,0.3-0.2c0.1,0,0.2,0.1,0.2,0.2c0,0.3-0.2,0.9-0.3,1.2
			c0.1,0.5,0.4,0.9,1,0.9c0.5,0,0.8-0.3,1.1-0.8c0.3-0.5,0.5-1,0.5-1.4c0-0.4-0.2-0.7-0.3-0.8c-0.1-0.1-0.1-0.2-0.1-0.3
			c0-0.2,0.3-0.5,0.5-0.5c0.2,0,0.4,0.2,0.4,0.7C421.3,45.1,420.9,46.4,420.7,46.9z"/>
	</g>
	<g>
		<path class="st0" d="M349.4,8.9c0,0.1,0,0.1,0,0.2c0,0.2,0.3,0.2,0.6,0.2c0.2,0,0.3,0,0.3,0.1c0,0.2-0.1,0.2-0.2,0.2
			c-0.2,0-0.4,0-0.6,0c-0.2,0-0.4,0-0.6,0c-0.3,0-1,0-1.3,0c0,0-0.1,0-0.1-0.1c0-0.2,0.1-0.2,0.2-0.2c0.6,0,0.8,0,0.9-0.3
			c0-0.1,0.3-1.1,0.7-2.8h-3l-0.7,2.7c0,0.1,0,0.1,0,0.2c0,0.2,0.3,0.2,0.6,0.2c0.2,0,0.3,0,0.3,0.1c0,0.2-0.1,0.2-0.2,0.2
			c-0.2,0-0.4,0-0.6,0c-0.2,0-0.4,0-0.6,0c-0.3,0-1,0-1.3,0c0,0-0.1,0-0.1-0.1c0-0.2,0.1-0.2,0.3-0.2c0.8,0,0.8-0.1,0.9-0.5l1.3-5.4
			c0-0.1,0-0.1,0-0.2c0-0.1-0.1-0.1-0.3-0.2c-0.2,0-0.4,0-0.4,0c-0.2,0-0.3,0-0.3-0.1c0-0.2,0.1-0.2,0.2-0.2c0.3,0,1,0,1.3,0
			c0.3,0,1,0,1.3,0c0,0,0.1,0,0.1,0.1C348,3,348,3,347.7,3c-0.7,0-0.7,0.1-0.8,0.5l-0.6,2.3h3l0.6-2.4c0-0.1,0-0.1,0-0.2
			c0-0.1-0.1-0.1-0.3-0.2c-0.2,0-0.4,0-0.4,0c-0.2,0-0.3,0-0.3-0.1c0-0.2,0.1-0.2,0.2-0.2c0.3,0,1,0,1.3,0c0.3,0,1,0,1.3,0
			c0,0,0.1,0,0.1,0.1c0,0.2-0.1,0.2-0.3,0.2c-0.7,0-0.7,0.1-0.8,0.5L349.4,8.9z"/>
	</g>
	<g>
		<path class="st0" d="M355.5,12c-0.1,0-1-0.6-1.6-1.9c-0.5-1.1-0.7-2.3-0.7-3.1c0-0.8,0.1-1.9,0.6-3c0.6-1.3,1.5-1.9,1.6-1.9
			c0.1,0,0.1,0,0.1,0.1c0,0,0,0-0.1,0.2c-1.2,1.2-1.6,3-1.6,4.7c0,1.5,0.3,3.4,1.6,4.7C355.6,11.9,355.6,11.9,355.5,12
			C355.6,12,355.5,12,355.5,12z"/>
	</g>
	<g>
		<path class="st0" d="M361.5,8.3c-0.4,0.7-0.8,1.4-1.6,1.4c-0.6,0-1-0.5-1.1-1c-0.4,0.5-0.8,1-1.5,1c-0.8,0-1-0.7-1-1.4
			c0-0.9,0.4-2.1,0.9-2.8c0.1-0.1,0.1-0.2,0.3-0.2c0.1,0,0.2,0.1,0.2,0.2c0,0.1-1,1.2-1,2.4c0,0.6,0.2,1.1,0.9,1.1
			c0.6,0,1-0.4,1.4-0.9c0-0.4,0.1-1,0.2-1.2c0.1-0.1,0.2-0.2,0.3-0.2c0.1,0,0.2,0.1,0.2,0.2c0,0.3-0.2,0.9-0.3,1.2
			c0.1,0.5,0.4,0.9,1,0.9c0.5,0,0.8-0.3,1.1-0.8c0.3-0.5,0.5-1,0.5-1.4c0-0.4-0.2-0.7-0.3-0.8c-0.1-0.1-0.1-0.2-0.1-0.3
			c0-0.2,0.3-0.5,0.5-0.5c0.2,0,0.4,0.2,0.4,0.7C362.1,6.5,361.7,7.8,361.5,8.3z"/>
	</g>
	<g>
		<path class="st0" d="M364.9,10.1c-0.6,1.3-1.5,1.9-1.6,1.9c-0.1,0-0.1,0-0.1-0.1c0,0,0-0.1,0.1-0.2c1.2-1.3,1.6-3,1.6-4.7
			c0-2.1-0.6-3.7-1.5-4.7c-0.2-0.2-0.2-0.2-0.2-0.2c0-0.1,0-0.1,0.1-0.1c0.1,0,1,0.6,1.6,1.9c0.5,1.1,0.7,2.3,0.7,3.1
			C365.6,7.9,365.5,9,364.9,10.1z"/>
	</g>
	<path class="st3" d="M326.4,7.1c0,0,9.8,1.1,14.2,3.5c6,3.4,8.6,10.1,14.2,14.2c8.9,6.4,17.9,11,28.3,14.2
		c9.4,2.9,28.3,3.5,28.3,3.5l0,0 M326.4,7.1c0,0-9.8,1.1-14.2,3.5c-6,3.4-8.6,10.1-14.2,14.2c-8.9,6.4-17.9,11-28.3,14.2
		c-9.4,2.9-28.3,3.5-28.3,3.5l0,0"/>
	<path class="st4" d="M344.1,46.1V39 M361.8,46.1V39 M379.6,46.1V39 M397.3,46.1V39 M308.7,46.1V39 M291,46.1V39 M273.3,46.1V39
		 M255.5,46.1V39"/>
	<g>
		<path class="st0" d="M333.9,31.5c0,0.1,0,0.1,0,0.1c0,0.1-0.1,0.1-0.2,0.1h-6.9c-0.2,0-0.2,0-0.2-0.1c0,0,0,0,0-0.1l3.4-6.8
			c0.1-0.1,0.1-0.2,0.3-0.2c0.2,0,0.2,0,0.3,0.2L333.9,31.5z M327.2,31h5.4l-2.7-5.4L327.2,31z"/>
	</g>
	<g>
		<path class="st0" d="M339.8,30.5c-0.4,0.7-0.8,1.4-1.6,1.4c-0.6,0-1-0.5-1.1-1c-0.4,0.5-0.8,1-1.5,1c-0.8,0-1-0.7-1-1.4
			c0-0.9,0.4-2.1,0.9-2.8c0.1-0.1,0.1-0.2,0.3-0.2c0.1,0,0.2,0.1,0.2,0.2c0,0.1-1,1.2-1,2.4c0,0.6,0.2,1.1,0.9,1.1
			c0.6,0,1-0.4,1.4-0.9c0-0.4,0.1-1,0.2-1.2c0.1-0.1,0.2-0.2,0.3-0.2c0.1,0,0.2,0.1,0.2,0.2c0,0.3-0.2,0.9-0.3,1.2
			c0.1,0.5,0.4,0.9,1,0.9c0.5,0,0.8-0.3,1.1-0.8c0.3-0.5,0.5-1,0.5-1.4c0-0.4-0.2-0.7-0.3-0.8c-0.1-0.1-0.1-0.2-0.1-0.3
			c0-0.2,0.3-0.5,0.5-0.5c0.2,0,0.4,0.2,0.4,0.7C340.4,28.6,340,30,339.8,30.5z"/>
	</g>
	<polyline points="329.8,33.7 326.4,35.4 329.8,37.1 329,35.4 	"/>
	<polyline points="340.7,37.1 344.1,35.4 340.7,33.7 341.6,35.4 	"/>
	<line class="st8" x1="329" y1="35.4" x2="341.6" y2="35.4"/>
	<polyline points="406.9,246.8 411.4,244.5 406.9,242.2 408,244.5 	"/>
	<line class="st3" x1="241.4" y1="244.5" x2="408" y2="244.5"/>
	<polyline points="328.7,203 326.4,198.4 324.1,203 326.4,201.8 	"/>
	<line class="st3" x1="326.4" y1="244.5" x2="326.4" y2="201.8"/>
	<g>
		<path class="st0" d="M293.4,200.6c-0.2,0-0.3-0.1-0.6-0.2c-0.2-0.1-0.4-0.3-0.6-0.3c-0.4,0-0.8,0.5-0.8,0.5l-0.2-0.1
			c0.5-0.6,0.7-0.8,1.1-0.8c0.2,0,0.3,0.1,0.6,0.2c0.2,0.1,0.4,0.2,0.6,0.2c0.4,0,0.8-0.5,0.8-0.5l0.2,0.1
			C294,200.4,293.8,200.6,293.4,200.6z"/>
	</g>
	<g>
		<path class="st0" d="M290.9,202.7c0-0.1,0-0.1,0-0.2c0-0.1-0.1-0.1-0.3-0.2c-0.2,0-0.4,0-0.4,0c-0.2,0-0.3,0-0.3-0.1
			c0-0.2,0.1-0.2,0.3-0.2h3.3c1.2,0,1.9,0.6,1.9,1.4c0,0.9-1,1.7-2.1,1.9c1,0.1,1.5,0.7,1.5,1.4c0,1-1.2,2.2-2.8,2.2h-3.6
			c-0.2,0-0.3,0-0.3-0.1c0-0.2,0.1-0.2,0.3-0.2c0.8,0,0.8-0.1,0.9-0.5L290.9,202.7z M291.9,208.6c1.2,0,2.1-1,2.1-2
			c0-0.4-0.2-1.2-1.1-1.2H291l-0.7,2.8c0,0.2,0,0.2,0,0.2c0,0.1,0,0.1,0.1,0.1c0.1,0,0.1,0,0.2,0H291.9z M292.5,205.2
			c1.2,0,2.1-0.9,2.1-1.8c0-0.4-0.2-1-1.1-1h-1.3c-0.4,0-0.4,0-0.5,0.4l-0.6,2.5H292.5z"/>
		<path class="st0" d="M296.9,211.1c-0.1,0.2-0.1,0.2-0.2,0.2c-0.1,0-0.2-0.1-0.2-0.2c0,0,0,0,0-0.2l3.5-9.5c0-0.1,0.1-0.1,0.2-0.1
			c0.1,0,0.2,0.1,0.2,0.2c0,0,0,0,0,0.2L296.9,211.1z"/>
	</g>
	<g>
		<path class="st0" d="M303.9,208.1c0,0.1,0,0.2,0,0.2c0,0.2,0.1,0.2,0.4,0.2c0.3,0,0.4,0,0.6,0c0.3,0,0.3,0,0.3,0.1
			c0,0.2-0.1,0.2-0.2,0.2c-0.3,0-0.6,0-0.9,0c-0.3,0-0.5,0-0.8,0c-0.3,0-0.6,0-0.8,0c-0.3,0-0.5,0-0.8,0c-0.1,0-0.2,0-0.2-0.1
			c0-0.2,0.1-0.2,0.4-0.2c1.1,0,1.1-0.1,1.2-0.5l1.3-5.3c0,0,0-0.1,0-0.2c0-0.1,0-0.1-0.3-0.1h-0.4c-1.5,0-1.7,0.2-2.3,1.7
			c-0.1,0.2-0.1,0.2-0.2,0.2c-0.1,0-0.1,0-0.1-0.1c0,0,0-0.2,0.1-0.2l0.6-1.8c0.1-0.2,0.1-0.2,0.3-0.2h5.5c0.2,0,0.3,0,0.3,0.1
			c0,0,0,0.1,0,0.2l-0.3,1.7c0,0.1,0,0.2-0.1,0.2c-0.1,0-0.1-0.1-0.1-0.1c0,0,0-0.2,0-0.2c0-0.3,0.1-0.6,0.1-0.8
			c0-0.8-0.4-0.8-1.5-0.8c-0.2,0-0.5,0-0.6,0c-0.1,0-0.2,0.1-0.2,0.4L303.9,208.1z"/>
	</g>
	<g>
		<path class="st0" d="M417.7,245.4c0.4-0.1,0.8-0.5,1.1-0.9c0.7-0.8,1.2-0.9,1.5-0.9c0.4,0,0.7,0.3,0.7,0.6c0,0.4-0.3,0.6-0.5,0.6
			c-0.3,0-0.4-0.2-0.4-0.3c0-0.1,0.1-0.5,0.6-0.5c0,0,0,0,0,0c-0.1-0.1-0.1-0.1-0.2-0.1c0,0,0,0-0.1,0c-0.5,0-0.9,0.4-1.4,1
			c-0.2,0.2-0.5,0.6-0.9,0.7c0.8,0.1,1.5,0.4,1.5,1c0,0.1,0,0.1,0,0.3c0,0.2-0.1,0.4-0.1,0.6c0,0.4,0.1,0.5,0.3,0.5
			c0.4,0,0.7-0.5,0.9-1.2c0-0.1,0-0.2,0.1-0.2c0,0,0.1,0,0.1,0.1c0,0-0.1,0.6-0.4,1c-0.2,0.4-0.5,0.5-0.8,0.5c-0.5,0-0.9-0.4-0.9-1
			c0-0.1,0-0.2,0-0.3c0-0.1,0-0.1,0-0.2c0-0.7-0.8-0.8-1.2-0.8c-0.1,0.3-0.5,2.1-0.6,2.2c-0.1,0.1-0.2,0.2-0.3,0.2
			c-0.1,0-0.3,0-0.3-0.3c0-0.1,0-0.1,0-0.2l1.4-5.7l0-0.2c0-0.1,0-0.2-0.5-0.2c-0.1,0-0.2,0-0.2-0.1c0-0.2,0.1-0.2,0.2-0.2
			c0.3,0,1-0.1,1.2-0.1c0.1,0,0.1,0.1,0.1,0.1L417.7,245.4z"/>
	</g>
	<path class="st11" d="M390.2,240.9c0,0,4.8,0.8,7.1,0c5.8-1.9,14.2-10.6,14.2-10.6l0,0"/>
	<path class="st12" d="M262.6,240.9c0,0-4.8,0.8-7.1,0c-5.8-1.9-14.2-10.6-14.2-10.6l0,0"/>
	<path class="st13" d="M262.6,240.9c0,0,4.8,0.8,7.1,0c5.8-1.9,8.8-7.6,14.2-10.6c5.7-3.2,12.5-3.1,17.7-7.1
		c4.8-3.7,5.6-10.8,10.6-14.2c4.2-2.8,9.1-3.5,14.2-3.5c5,0,10,0.8,14.2,3.5c5.1,3.4,5.8,10.5,10.6,14.2c5.2,4,12,3.9,17.7,7.1
		c5.3,3,8.4,8.7,14.2,10.6c2.3,0.8,7.1,0,7.1,0l0,0"/>
	<polyline points="270.7,252.8 266.2,255.1 270.7,257.4 269.6,255.1 	"/>
	<line class="st3" x1="269.6" y1="255.1" x2="315.8" y2="255.1"/>
	<polyline points="382.1,257.4 386.6,255.1 382.1,252.8 383.2,255.1 	"/>
	<line class="st3" x1="337" y1="255.1" x2="383.2" y2="255.1"/>
	<g>
		<path class="st0" d="M328,258.3c0,0.2,0,0.2-0.2,0.2c-0.1,0-0.1,0-0.2-0.2l-2.5-5.9c0-0.1,0-0.1-0.1-0.2l-1.3,5.3
			c0,0.1,0,0.2,0,0.2c0,0.2,0.1,0.4,0.7,0.4c0.1,0,0.2,0,0.2,0.1c0,0.2-0.1,0.2-0.2,0.2c-0.3,0-0.7,0-1,0c-0.3,0-0.7,0-1,0
			c-0.1,0-0.1,0-0.1-0.1c0-0.2,0.1-0.2,0.2-0.2c0.8,0,1-0.3,1.1-0.7l1.3-5.4c0-0.1-0.6-0.1-0.7-0.1c-0.2,0-0.3,0-0.3-0.1
			c0-0.2,0.1-0.2,0.3-0.2h1.3c0.2,0,0.2,0,0.3,0.2l2.2,5.2l1.1-4.4c0,0,0-0.2,0-0.2c0-0.2-0.1-0.4-0.7-0.4c-0.1,0-0.2,0-0.2-0.1
			c0-0.2,0.1-0.2,0.2-0.2c0.3,0,0.7,0,1,0c0.3,0,0.7,0,1,0c0.1,0,0.1,0.1,0.1,0.1c0,0.2-0.1,0.2-0.2,0.2c-0.8,0-1,0.3-1.1,0.7
			L328,258.3z"/>
	</g>
	<g>
		<path class="st0" d="M326.4,207.2c-1.1,0-1.9-0.9-1.9-1.9c0-1,0.9-1.9,1.9-1.9c1,0,1.9,0.9,1.9,1.9S327.5,207.2,326.4,207.2z"/>
	</g>
	<line class="st10" x1="397.3" y1="244.5" x2="397.3" y2="240.9"/>
	<g>
		<path class="st2" d="M397.4,242.6c-1.1,0-1.9-0.9-1.9-1.9c0-1,0.9-1.9,1.9-1.9c1,0,1.9,0.9,1.9,1.9S398.4,242.6,397.4,242.6z"/>
	</g>
	<line class="st10" x1="255.5" y1="244.5" x2="255.5" y2="240.9"/>
	<g>
		<path class="st2" d="M255.6,242.6c-1.1,0-1.9-0.9-1.9-1.9c0-1,0.9-1.9,1.9-1.9c1,0,1.9,0.9,1.9,1.9S256.7,242.6,255.6,242.6z"/>
	</g>
	<line class="st3" x1="379.6" y1="244.5" x2="379.6" y2="240.9"/>
	<g>
		<path class="st0" d="M379.6,242.6c-1.1,0-1.9-0.9-1.9-1.9c0-1,0.9-1.9,1.9-1.9c1,0,1.9,0.9,1.9,1.9S380.6,242.6,379.6,242.6z"/>
	</g>
	<line class="st3" x1="273.3" y1="244.5" x2="273.3" y2="240.9"/>
	<g>
		<path class="st0" d="M273.3,242.6c-1.1,0-1.9-0.9-1.9-1.9c0-1,0.9-1.9,1.9-1.9c1,0,1.9,0.9,1.9,1.9S274.3,242.6,273.3,242.6z"/>
	</g>
	<line class="st3" x1="361.8" y1="244.5" x2="361.8" y2="226.8"/>
	<g>
		<path class="st0" d="M361.8,228.5c-1.1,0-1.9-0.9-1.9-1.9c0-1,0.9-1.9,1.9-1.9c1,0,1.9,0.9,1.9,1.9S362.9,228.5,361.8,228.5z"/>
	</g>
	<line class="st3" x1="291" y1="244.5" x2="291" y2="226.8"/>
	<g>
		<path class="st0" d="M291,228.5c-1.1,0-1.9-0.9-1.9-1.9c0-1,0.9-1.9,1.9-1.9c1,0,1.9,0.9,1.9,1.9S292.1,228.5,291,228.5z"/>
	</g>
	<line class="st3" x1="344.1" y1="244.5" x2="344.1" y2="212.6"/>
	<g>
		<path class="st0" d="M344.2,214.3c-1.1,0-1.9-0.9-1.9-1.9c0-1,0.9-1.9,1.9-1.9c1,0,1.9,0.9,1.9,1.9S345.2,214.3,344.2,214.3z"/>
	</g>
	<line class="st3" x1="308.7" y1="244.5" x2="308.7" y2="212.6"/>
	<g>
		<path class="st0" d="M308.7,214.3c-1.1,0-1.9-0.9-1.9-1.9c0-1,0.9-1.9,1.9-1.9c1,0,1.9,0.9,1.9,1.9S309.7,214.3,308.7,214.3z"/>
	</g>
	<g>
		<path class="st0" d="M380.6,210.7c0,0.1,0,0.1,0,0.2c0,0.2,0.3,0.2,0.6,0.2c0.2,0,0.3,0,0.3,0.1c0,0.2-0.1,0.2-0.2,0.2
			c-0.2,0-0.4,0-0.6,0c-0.2,0-0.4,0-0.6,0c-0.3,0-1,0-1.3,0c0,0-0.1,0-0.1-0.1c0-0.2,0.1-0.2,0.2-0.2c0.6,0,0.8,0,0.9-0.3
			c0-0.1,0.3-1.1,0.7-2.8h-3l-0.7,2.7c0,0.1,0,0.1,0,0.2c0,0.2,0.3,0.2,0.6,0.2c0.2,0,0.3,0,0.3,0.1c0,0.2-0.1,0.2-0.2,0.2
			c-0.2,0-0.4,0-0.6,0c-0.2,0-0.4,0-0.6,0c-0.3,0-1,0-1.3,0c0,0-0.1,0-0.1-0.1c0-0.2,0.1-0.2,0.3-0.2c0.8,0,0.8-0.1,0.9-0.5l1.3-5.4
			c0-0.1,0-0.1,0-0.2c0-0.1-0.1-0.1-0.3-0.2c-0.2,0-0.4,0-0.4,0c-0.2,0-0.3,0-0.3-0.1c0-0.2,0.1-0.2,0.2-0.2c0.3,0,1,0,1.3,0
			c0.3,0,1,0,1.3,0c0,0,0.1,0,0.1,0.1c0,0.2-0.1,0.2-0.3,0.2c-0.7,0-0.7,0.1-0.8,0.5l-0.6,2.3h3l0.6-2.4c0-0.1,0-0.1,0-0.2
			c0-0.1-0.1-0.1-0.3-0.2c-0.2,0-0.4,0-0.4,0c-0.2,0-0.3,0-0.3-0.1c0-0.2,0.1-0.2,0.2-0.2c0.3,0,1,0,1.3,0c0.3,0,1,0,1.3,0
			c0,0,0.1,0,0.1,0.1c0,0.2-0.1,0.2-0.3,0.2c-0.7,0-0.7,0.1-0.8,0.5L380.6,210.7z"/>
	</g>
	<g>
		<path class="st0" d="M383.9,210.5c0,0,0-0.1,0-0.2c0-0.2,0-0.3-0.2-0.3c-0.3,0-0.4,0.3-0.5,0.8c0,0.2-0.1,0.2-0.2,0.2
			c0,0-0.1,0-0.1-0.1c0,0,0.1-0.5,0.3-0.7c0.1-0.2,0.3-0.4,0.6-0.4c0.2,0,0.6,0.1,0.7,0.5c0.2-0.2,0.6-0.5,1-0.5c0.5,0,1,0.3,1,1.2
			c0,1-0.9,2-1.8,2c-0.4,0-0.6-0.3-0.7-0.4c-0.1,0.3-0.2,0.7-0.3,1c0,0.1-0.1,0.3-0.1,0.3c0,0.1,0.2,0.1,0.3,0.1
			c0.1,0,0.2,0,0.2,0.1c0,0.1-0.1,0.2-0.1,0.2c-0.2,0-0.5,0-0.7,0c-0.2,0-0.4,0-0.6,0c0,0-0.1,0-0.1-0.1c0-0.1,0.1-0.1,0.2-0.1
			c0.3,0,0.3-0.1,0.3-0.3L383.9,210.5z M384.1,212c0,0,0,0.1,0,0.1c0,0.1,0.1,0.6,0.6,0.6c0.4,0,0.7-0.3,0.9-0.7
			c0.2-0.4,0.4-1.1,0.4-1.4c0-0.5-0.2-0.7-0.5-0.7c-0.2,0-0.6,0.1-1,0.6L384.1,212z"/>
	</g>
	<g>
		<path class="st0" d="M388.5,213.9v-10h1.4v0.4h-1v9.2h1v0.4H388.5z"/>
	</g>
	<g>
		<path class="st0" d="M391.9,208.8c0.4-0.1,0.8-0.5,1.1-0.9c0.7-0.8,1.2-0.9,1.5-0.9c0.4,0,0.7,0.3,0.7,0.6c0,0.4-0.3,0.6-0.5,0.6
			c-0.3,0-0.4-0.2-0.4-0.3c0-0.1,0.1-0.5,0.6-0.5c0,0,0,0,0,0c-0.1-0.1-0.1-0.1-0.2-0.1c0,0,0,0-0.1,0c-0.5,0-0.9,0.4-1.4,1
			c-0.2,0.2-0.5,0.6-0.9,0.7c0.8,0.1,1.5,0.4,1.5,1c0,0.1,0,0.1,0,0.3c0,0.2-0.1,0.4-0.1,0.6c0,0.4,0.1,0.5,0.3,0.5
			c0.4,0,0.7-0.5,0.9-1.2c0-0.1,0-0.2,0.1-0.2c0,0,0.1,0,0.1,0.1c0,0-0.1,0.6-0.4,1c-0.2,0.4-0.5,0.5-0.8,0.5c-0.5,0-0.9-0.4-0.9-1
			c0-0.1,0-0.2,0-0.3c0-0.1,0-0.1,0-0.2c0-0.7-0.8-0.8-1.2-0.8c-0.1,0.3-0.5,2.1-0.6,2.2c-0.1,0.1-0.2,0.2-0.3,0.2
			c-0.1,0-0.3,0-0.3-0.3c0-0.1,0-0.1,0-0.2l1.4-5.7l0-0.2c0-0.1,0-0.2-0.5-0.2c-0.1,0-0.2,0-0.2-0.1c0-0.2,0.1-0.2,0.2-0.2
			c0.3,0,1-0.1,1.2-0.1c0.1,0,0.1,0.1,0.1,0.1L391.9,208.8z"/>
	</g>
	<g>
		<path class="st0" d="M397.2,213.9h-1.4v-0.4h1v-9.2h-1v-0.4h1.4V213.9z"/>
		<path class="st0" d="M399.2,208.1c-0.1,0-0.3,0-0.3-0.2c0-0.2,0.2-0.2,0.3-0.2h6c0.1,0,0.3,0,0.3,0.2c0,0.2-0.2,0.2-0.3,0.2H399.2
			z M399.2,210.1c-0.1,0-0.3,0-0.3-0.2s0.2-0.2,0.3-0.2h5.9c0.1,0,0.3,0,0.3,0.2s-0.2,0.2-0.3,0.2H399.2z"/>
	</g>
	<g>
		<path class="st0" d="M372.1,223c0,0.1,0,0.1,0,0.2c0,0.2,0.3,0.2,0.6,0.2c0.2,0,0.3,0,0.3,0.1c0,0.2-0.1,0.2-0.2,0.2
			c-0.2,0-0.4,0-0.6,0c-0.2,0-0.4,0-0.6,0c-0.3,0-1,0-1.3,0c0,0-0.1,0-0.1-0.1c0-0.2,0.1-0.2,0.2-0.2c0.6,0,0.8,0,0.9-0.3
			c0-0.1,0.3-1.1,0.7-2.8h-3l-0.7,2.7c0,0.1,0,0.1,0,0.2c0,0.2,0.3,0.2,0.6,0.2c0.2,0,0.3,0,0.3,0.1c0,0.2-0.1,0.2-0.2,0.2
			c-0.2,0-0.4,0-0.6,0c-0.2,0-0.4,0-0.6,0c-0.3,0-1,0-1.3,0c0,0-0.1,0-0.1-0.1c0-0.2,0.1-0.2,0.3-0.2c0.8,0,0.8-0.1,0.9-0.5l1.3-5.4
			c0-0.1,0-0.1,0-0.2c0-0.1-0.1-0.1-0.3-0.2c-0.2,0-0.4,0-0.4,0c-0.2,0-0.3,0-0.3-0.1c0-0.2,0.1-0.2,0.2-0.2c0.3,0,1,0,1.3,0
			c0.3,0,1,0,1.3,0c0,0,0.1,0,0.1,0.1c0,0.2-0.1,0.2-0.3,0.2c-0.7,0-0.7,0.1-0.8,0.5l-0.6,2.3h3l0.6-2.4c0-0.1,0-0.1,0-0.2
			c0-0.1-0.1-0.1-0.3-0.2c-0.2,0-0.4,0-0.4,0c-0.2,0-0.3,0-0.3-0.1c0-0.2,0.1-0.2,0.2-0.2c0.3,0,1,0,1.3,0c0.3,0,1,0,1.3,0
			c0,0,0.1,0,0.1,0.1c0,0.2-0.1,0.2-0.3,0.2c-0.7,0-0.7,0.1-0.8,0.5L372.1,223z"/>
	</g>
	<g>
		<path class="st0" d="M378.1,226.1c-0.1,0-1-0.6-1.6-1.9c-0.5-1.1-0.7-2.3-0.7-3.1c0-0.8,0.1-1.9,0.6-3c0.6-1.3,1.5-1.9,1.6-1.9
			c0.1,0,0.1,0,0.1,0.1c0,0,0,0-0.1,0.2c-1.2,1.2-1.6,3-1.6,4.7c0,1.5,0.3,3.4,1.6,4.7C378.2,226,378.2,226,378.1,226.1
			C378.2,226.1,378.2,226.1,378.1,226.1z"/>
		<path class="st0" d="M380.2,222.8c0.2,0.4,0.6,0.7,1.1,0.7c0.1,0,1,0,1.3-1c0-0.1,0-0.1,0.1-0.1c0,0,0.1,0,0.1,0.1
			c0,0.2-0.4,1.3-1.7,1.3c-1.1,0-2.2-1-2.2-2.3c0-1.2,0.9-2.3,2.1-2.3c1.2,0,1.8,1,1.8,2c0,0.2,0,0.2-0.2,0.2h-2.8
			C379.9,221.7,379.9,222.3,380.2,222.8z M382.3,221.1c0-0.4-0.1-1.7-1.1-1.7c-0.3,0-1.2,0.3-1.2,1.7H382.3z"/>
	</g>
	<g>
		<path class="st0" d="M385.3,220.5c0,0.9-0.6,1.5-1.4,1.5c-0.6,0-1.1-0.3-1.1-0.8c0-0.3,0.2-0.5,0.5-0.5c0.3,0,0.5,0.2,0.5,0.5
			c0,0.3-0.2,0.4-0.3,0.4c0.3,0.1,0.5,0.1,0.5,0.1c0.6,0,0.7-0.9,0.7-1.3v-3.9c0-0.5-0.1-0.6-0.9-0.6v-0.3l1.5-0.1V220.5z
			 M384.8,214.4c-0.3,0-0.5-0.2-0.5-0.5s0.2-0.5,0.5-0.5s0.5,0.2,0.5,0.5S385.1,214.4,384.8,214.4z"/>
	</g>
	<g>
		<path class="st0" d="M389.5,220h-2.9c0-0.2,0-0.2,0.1-0.3l1.7-1.7c0.2-0.3,0.7-0.7,0.7-1.3c0-0.6-0.4-1.1-1.1-1.1
			c-0.3,0-0.8,0.2-1,0.6c0.4,0,0.4,0.2,0.4,0.4c0,0.3-0.2,0.4-0.4,0.4c-0.1,0-0.4,0-0.4-0.4c0-0.6,0.6-1.2,1.5-1.2
			c0.9,0,1.6,0.5,1.6,1.4c0,0.7-0.5,1.1-1,1.5c-0.4,0.3-0.7,0.5-1.4,1.2h1.3c0.1,0,0.6,0,0.7,0c0.1-0.1,0.2-0.5,0.2-0.6h0.2
			L389.5,220z"/>
	</g>
	<g>
		<path class="st0" d="M391.9,219.1c-0.2,0.6-0.2,0.9-0.5,0.9c-0.2,0-0.2-0.1-0.2-0.2c0,0,0-0.1,0-0.1c0,0,0.1-0.2,0.1-0.3
			c0.2-0.4,0.6-1.2,0.8-2h-0.4c-0.2,0-0.6,0-0.9,0.5c0,0.1,0,0.1-0.1,0.1c0,0-0.1,0-0.1-0.1c0-0.1,0.3-0.4,0.5-0.6
			c0.3-0.3,0.5-0.4,0.8-0.4h2.6c0.1,0,0.3,0,0.3,0.2c0,0,0,0.1-0.1,0.2c-0.1,0.1-0.1,0.1-0.3,0.1h-0.9c-0.1,0.5-0.1,0.8-0.1,0.9
			c0,0.6,0.1,1,0.3,1.2c0,0.1,0.1,0.1,0.1,0.2c0,0.2-0.2,0.3-0.3,0.3c-0.1,0-0.2,0-0.3-0.4c0-0.2-0.1-0.3-0.1-0.6
			c0-0.6,0.2-1.2,0.3-1.6h-0.8L391.9,219.1z"/>
		<path class="st0" d="M396.6,218.2c0.3-0.1,0.5-0.3,0.8-0.6c0.4-0.3,0.7-0.6,1.1-0.6c0.4,0,0.5,0.3,0.5,0.5c0,0.3-0.2,0.4-0.4,0.4
			c-0.2,0-0.3-0.1-0.3-0.3c0-0.1,0.1-0.3,0.4-0.4c-0.1-0.1-0.1-0.1-0.2-0.1c-0.4,0-0.7,0.3-1.1,0.7c-0.1,0.1-0.4,0.3-0.6,0.5
			c0.3,0,1.1,0.1,1.1,0.7c0,0.1,0,0.2,0,0.2c0,0.2,0,0.2,0,0.3c0,0.2,0.1,0.4,0.2,0.4c0.3,0,0.5-0.5,0.6-0.8c0-0.1,0-0.2,0.1-0.2
			c0,0,0.1,0,0.1,0.1c0,0-0.2,1.1-0.9,1.1c-0.3,0-0.7-0.2-0.7-0.7c0-0.1,0-0.1,0-0.2c0-0.1,0-0.1,0-0.1c0-0.4-0.4-0.5-0.9-0.6
			c0,0.1-0.3,1.3-0.3,1.4c0,0.2-0.1,0.3-0.3,0.3c-0.2,0-0.2-0.1-0.2-0.2c0,0,0,0,0-0.2l1-3.9c0-0.1,0-0.1,0-0.2c0-0.1,0-0.1-0.3-0.1
			c-0.1,0-0.2,0-0.2-0.1c0-0.1,0.1-0.2,0.2-0.2c0.2,0,0.8-0.1,0.9-0.1c0.1,0,0.1,0.1,0.1,0.1c0,0,0,0.1,0,0.1L396.6,218.2z"/>
	</g>
	<g>
		<path class="st0" d="M400.3,221.6c0,0.1-0.1,0.2-0.2,0.2c-0.1,0-0.2-0.1-0.2-0.2c0,0,0,0,0-0.1l2.6-6.5c0-0.1,0.1-0.2,0.2-0.2
			c0.1,0,0.2,0.1,0.2,0.2c0,0,0,0,0,0.1L400.3,221.6z"/>
		<path class="st0" d="M407.9,219.9c0,0.1,0,0.1-0.1,0.1c-0.1,0-0.1,0-0.2-0.1l-2-4.2l-0.9,3.6c0,0.1,0,0.1,0,0.2
			c0,0.1,0,0.3,0.4,0.3c0.1,0,0.2,0,0.2,0.1c0,0.1-0.1,0.1-0.1,0.1c-0.2,0-0.6,0-0.7,0c-0.2,0-0.5,0-0.7,0c0,0-0.1,0-0.1-0.1
			c0-0.1,0.1-0.1,0.1-0.1c0.5,0,0.7-0.2,0.7-0.5l0.9-3.7c-0.1,0-0.3,0-0.4,0s-0.2,0-0.2-0.1c0-0.2,0.1-0.2,0.2-0.2h1
			c0.2,0,0.2,0,0.2,0.1l1.8,3.6l0.8-3c0-0.1,0-0.1,0-0.2c0-0.2-0.1-0.3-0.4-0.3c-0.1,0-0.2,0-0.2-0.1c0-0.2,0.1-0.2,0.1-0.2
			c0.2,0,0.6,0,0.7,0c0.2,0,0.5,0,0.7,0c0.1,0,0.1,0.1,0.1,0.1c0,0.1-0.1,0.2-0.1,0.2c-0.6,0-0.7,0.2-0.7,0.5L407.9,219.9z"/>
	</g>
	<g>
		<path class="st0" d="M412.9,224.2c-0.6,1.3-1.5,1.9-1.6,1.9c-0.1,0-0.1,0-0.1-0.1c0,0,0,0,0.1-0.2c1.2-1.3,1.6-3,1.6-4.7
			c0-2.1-0.6-3.7-1.5-4.7c-0.2-0.2-0.2-0.2-0.2-0.2c0-0.1,0-0.1,0.1-0.1c0.1,0,1,0.6,1.6,1.9c0.5,1.1,0.7,2.3,0.7,3.1
			C413.6,222,413.5,223.1,412.9,224.2z"/>
	</g>
</g>
</svg>
