<?xml version="1.0" encoding="utf-8"?>
<!-- Generator: Adobe Illustrator 22.1.0, SVG Export Plug-In . SVG Version: 6.00 Build 0)  -->
<svg version="1.1" id="Layer_1" xmlns="http://www.w3.org/2000/svg" xmlns:xlink="http://www.w3.org/1999/xlink" x="0px" y="0px"
	 viewBox="0 0 220.8 265.7" style="enable-background:new 0 0 220.8 265.7;" xml:space="preserve">
<style type="text/css">
	.st0{fill:none;stroke:#000000;stroke-width:0.8504;stroke-miterlimit:10;}
	.st1{fill:none;stroke:#000000;stroke-width:2.5511;stroke-miterlimit:10;}
	.st2{fill:#1D1D1B;}
	.st3{fill:none;stroke:#0000FF;stroke-width:2.5511;stroke-miterlimit:10;}
	.st4{fill:#0000FF;}
	.st5{fill:none;stroke:#FF0000;stroke-width:2.5511;stroke-miterlimit:10;}
	.st6{fill:#FF0000;}
</style>
<g>
	<polyline points="192.9,91.9 197.4,89.6 192.9,87.4 194,89.6 	"/>
	<line class="st0" x1="6.1" y1="89.6" x2="194" y2="89.6"/>
	<polyline points="15.4,9.1 13.1,4.6 10.9,9.1 13.1,8 	"/>
	<path class="st0" d="M13.1,96.7V8 M27.3,93.2v-7.1 M41.5,93.2v-7.1 M55.7,93.2v-7.1 M69.8,93.2v-7.1 M84,93.2v-7.1 M98.2,93.2v-7.1
		 M112.4,93.2v-7.1 M126.5,93.2v-7.1 M140.7,93.2v-7.1 M154.9,93.2v-7.1 M169.1,93.2v-7.1 M183.2,93.2v-7.1 M9.6,32.9h7.1"/>
	<path class="st1" d="M140.7,89.6c0,0,1.2-14.2,3.5-21.3c2.5-7.8,5.4-15,10.6-21.3c3.9-4.7,8.7-8,14.2-10.6
		c4.5-2.2,14.2-3.5,14.2-3.5l0,0l0,0 M55.7,89.6c0,0-1.2-14.2-3.5-21.3c-2.5-7.8-5.8-14.6-10.6-21.3c-2-2.8-4.2-5.3-7.1-7.1
		c-6.6-4.1-21.3-7.1-21.3-7.1l0,0"/>
	<g>
		<path class="st2" d="M0.3,34.5v-0.3l3.1-4.7c0.1-0.1,0.1-0.1,0.2-0.1c0.2,0,0.2,0.1,0.2,0.3v4.5h1v0.3h-1v0.9c0,0.4,0,0.5,0.8,0.5
			h0.2v0.3c-0.4,0-0.9,0-1.4,0s-0.9,0-1.3,0v-0.3h0.2c0.7,0,0.8-0.1,0.8-0.5v-0.9H0.3z M3,30.5l-2.4,3.7H3V30.5z"/>
	</g>
	<g>
		<path class="st2" d="M4.6,48.7c0,1-0.9,1.9-2.1,1.9c-1.1,0-2-0.7-2-1.6c0-0.4,0.3-0.6,0.6-0.6c0.3,0,0.6,0.2,0.6,0.6
			c0,0.4-0.3,0.6-0.7,0.5c0.3,0.6,1.1,0.8,1.5,0.8c0.4,0,1.1-0.3,1.1-1.6c0-1-0.4-1.7-1.2-1.7H1.9c-0.2,0-0.2,0-0.2-0.1
			c0-0.1,0.1-0.1,0.1-0.1c0.1,0,0.3,0,0.4,0c0.2,0,0.6,0,0.9-0.5c0.3-0.4,0.3-1,0.3-1.1c0-0.9-0.5-1.1-1-1.1c-0.4,0-1,0.1-1.3,0.6
			c0.1,0,0.6,0,0.6,0.5c0,0.3-0.2,0.5-0.5,0.5c-0.3,0-0.5-0.2-0.5-0.5c0-0.8,0.8-1.4,1.8-1.4c1,0,1.8,0.6,1.8,1.4
			c0,0.8-0.6,1.5-1.4,1.8C3.9,47.1,4.6,47.8,4.6,48.7z"/>
	</g>
	<line class="st0" x1="9.6" y1="47.1" x2="16.7" y2="47.1"/>
	<g>
		<path class="st2" d="M21.8,14.2c0,0.2,0,0.4-0.2,0.4c-0.2,0-0.2-0.2-0.2-0.4V5c0-0.2,0-0.4,0.2-0.4c0.2,0,0.2,0.2,0.2,0.4V14.2z"
			/>
	</g>
	<g>
		<path class="st2" d="M29.4,6.3c0.1-0.1,0.2-0.2,0.2-0.4c0-0.3-0.3-0.3-0.4-0.3c-0.1,0-0.1,0-0.1-0.1c0-0.2,0.1-0.2,0.2-0.2
			c0.4,0,0.7,0,1.1,0c0.3,0,0.6,0,0.9,0c0.1,0,0.1,0.1,0.1,0.1c0,0.2-0.1,0.2-0.2,0.2c-0.6,0-1,0.3-1.3,0.5c-0.3,0.3-1.4,1.5-2,2.2
			c0.2,0.6,0.9,2.2,1.3,3.1c0.2,0.4,0.2,0.4,0.9,0.4c0.1,0,0.2,0,0.2,0.1c0,0.2-0.1,0.2-0.2,0.2c-0.2,0-0.9,0-1.1,0
			c-0.3,0-1,0-1.3,0c0,0-0.1,0-0.1-0.1c0-0.2,0.1-0.2,0.2-0.2c0.4,0,0.6-0.2,0.6-0.3c0,0,0,0,0-0.1l-1-2.4l-0.9,1l-1,1.1
			c-0.1,0.1-0.3,0.3-0.3,0.4c0,0.3,0.3,0.3,0.4,0.3c0,0,0.1,0,0.1,0.1c0,0.2-0.1,0.2-0.2,0.2c-0.4,0-0.7,0-1.1,0c-0.3,0-0.6,0-0.9,0
			c-0.1,0-0.1-0.1-0.1-0.1c0-0.2,0.1-0.2,0.2-0.2c0.5,0,1-0.2,1.5-0.7l0.1-0.1l2.1-2.3L26,5.9c-0.1-0.2-0.1-0.3-0.7-0.3
			c-0.1,0-0.2,0-0.2-0.1c0-0.2,0.1-0.2,0.2-0.2c0.2,0,0.9,0,1.1,0c0.4,0,0.8,0,1.3,0c0,0,0.1,0,0.1,0.1c0,0.2-0.1,0.2-0.2,0.2
			c-0.4,0-0.6,0.2-0.6,0.3c0,0,0,0,0,0.1l0.8,2L29.4,6.3z"/>
	</g>
	<g>
		<path class="st2" d="M35.3,14.6c-0.1,0-1-0.6-1.6-1.9c-0.5-1.1-0.7-2.3-0.7-3.1c0-0.8,0.1-1.9,0.6-3c0.6-1.3,1.5-1.9,1.6-1.9
			c0.1,0,0.1,0,0.1,0.1c0,0,0,0-0.1,0.2c-1.2,1.2-1.6,3-1.6,4.7c0,1.5,0.3,3.4,1.6,4.7C35.4,14.4,35.4,14.5,35.3,14.6
			C35.4,14.6,35.4,14.6,35.3,14.6z"/>
		<path class="st2" d="M37.3,11.3c0.2,0.4,0.6,0.7,1.1,0.7c0.1,0,1,0,1.3-1c0-0.1,0-0.1,0.1-0.1c0,0,0.1,0,0.1,0.1
			c0,0.2-0.4,1.3-1.7,1.3c-1.1,0-2.2-1-2.2-2.3c0-1.2,0.9-2.3,2.1-2.3c1.2,0,1.8,1,1.8,2c0,0.2,0,0.2-0.2,0.2h-2.8
			C37.1,10.2,37.1,10.8,37.3,11.3z M39.4,9.6c0-0.4-0.1-1.7-1.1-1.7c-0.3,0-1.2,0.2-1.2,1.7H39.4z"/>
	</g>
	<g>
		<path class="st2" d="M42.4,8.9c0,0.9-0.6,1.5-1.4,1.5c-0.6,0-1.1-0.3-1.1-0.8c0-0.3,0.2-0.5,0.5-0.5c0.3,0,0.5,0.2,0.5,0.5
			c0,0.3-0.2,0.4-0.3,0.4c0.3,0.1,0.5,0.1,0.5,0.1c0.6,0,0.7-0.9,0.7-1.3V5c0-0.5-0.1-0.6-0.9-0.6V4.1L42.4,4V8.9z M41.8,2.8
			c-0.3,0-0.5-0.2-0.5-0.5s0.2-0.5,0.5-0.5s0.5,0.2,0.5,0.5S42.1,2.8,41.8,2.8z"/>
	</g>
	<g>
		<path class="st2" d="M44.7,8.5c-0.6,0-1-0.7-1-1.5c0-1.6,1.1-3.5,2.2-3.5c0.7,0,1,0.8,1,1.5C46.8,6.5,45.7,8.5,44.7,8.5z
			 M44.4,6.1c-0.1,0.3-0.2,0.8-0.2,1.3c0,0.4,0.1,0.9,0.4,0.9c0.3,0,0.6-0.3,0.8-0.7c0.2-0.3,0.4-0.7,0.6-1.5H44.4z M46.1,5.8
			c0.1-0.6,0.2-1,0.2-1.3c0-0.1,0-0.9-0.4-0.9c-0.4,0-1,0.7-1.4,2.2H46.1z"/>
	</g>
	<g>
		<path class="st2" d="M50.1,12.6c-0.6,1.3-1.5,1.9-1.6,1.9c-0.1,0-0.1,0-0.1-0.1c0,0,0-0.1,0.1-0.2c1.2-1.3,1.6-3,1.6-4.7
			c0-2.1-0.6-3.7-1.5-4.7c-0.2-0.2-0.2-0.2-0.2-0.2c0-0.1,0-0.1,0.1-0.1c0.1,0,1,0.6,1.6,1.9c0.5,1.1,0.7,2.3,0.7,3.1
			C50.7,10.4,50.6,11.6,50.1,12.6z"/>
	</g>
	<g>
		<path class="st2" d="M53.3,14.2c0,0.2,0,0.4-0.2,0.4c-0.2,0-0.2-0.2-0.2-0.4V5c0-0.2,0-0.4,0.2-0.4c0.2,0,0.2,0.2,0.2,0.4V14.2z"
			/>
	</g>
	<line class="st3" x1="13.1" y1="89.6" x2="13.1" y2="47.1"/>
	<g>
		<path class="st4" d="M13.1,48.8c-1.1,0-1.9-0.9-1.9-1.9c0-1,0.9-1.9,1.9-1.9c1,0,1.9,0.9,1.9,1.9C15,48,14.2,48.8,13.1,48.8z"/>
	</g>
	<g>
		<path class="st4" d="M69.8,91.4c-1.1,0-1.9-0.9-1.9-1.9c0-1,0.9-1.9,1.9-1.9c1,0,1.9,0.9,1.9,1.9C71.7,90.5,70.9,91.4,69.8,91.4z"
			/>
		<path class="st4" d="M126.5,91.4c-1.1,0-1.9-0.9-1.9-1.9c0-1,0.9-1.9,1.9-1.9c1,0,1.9,0.9,1.9,1.9
			C128.4,90.5,127.6,91.4,126.5,91.4z"/>
	</g>
	<g>
		<path class="st4" d="M26.7,18.8c0.1-0.1,0.2-0.2,0.2-0.4c0-0.3-0.3-0.3-0.4-0.3c-0.1,0-0.1,0-0.1-0.1c0-0.2,0.1-0.2,0.2-0.2
			c0.4,0,0.7,0,1.1,0c0.3,0,0.6,0,0.9,0c0.1,0,0.1,0.1,0.1,0.1c0,0.2-0.1,0.2-0.2,0.2c-0.6,0-1,0.3-1.3,0.5c-0.3,0.3-1.4,1.5-2,2.2
			c0.2,0.6,0.9,2.2,1.3,3.1c0.2,0.4,0.2,0.4,0.9,0.4c0.1,0,0.2,0,0.2,0.1c0,0.2-0.1,0.2-0.2,0.2c-0.2,0-0.9,0-1.1,0
			c-0.3,0-1,0-1.3,0c0,0-0.1,0-0.1-0.1c0-0.2,0.1-0.2,0.2-0.2c0.4,0,0.6-0.2,0.6-0.3c0,0,0,0,0-0.1l-1-2.4l-0.9,1l-1,1.1
			c-0.1,0.1-0.3,0.3-0.3,0.4c0,0.3,0.3,0.3,0.4,0.3c0,0,0.1,0,0.1,0.1c0,0.2-0.1,0.2-0.2,0.2c-0.4,0-0.7,0-1.1,0c-0.3,0-0.6,0-0.9,0
			c-0.1,0-0.1-0.1-0.1-0.1c0-0.2,0.1-0.2,0.2-0.2c0.5,0,1-0.2,1.5-0.7l0.1-0.1l2.1-2.3l-1.2-2.8c-0.1-0.2-0.1-0.3-0.7-0.3
			c-0.1,0-0.2,0-0.2-0.1c0-0.2,0.1-0.2,0.2-0.2c0.2,0,0.9,0,1.1,0c0.4,0,0.8,0,1.3,0c0,0,0.1,0,0.1,0.1c0,0.2-0.1,0.2-0.2,0.2
			c-0.4,0-0.6,0.2-0.6,0.3c0,0,0,0,0,0.1l0.8,2L26.7,18.8z"/>
	</g>
	<g>
		<path class="st4" d="M29.8,23.7c0,0,0-0.1,0-0.2c0-0.2,0-0.3-0.2-0.3c-0.3,0-0.4,0.3-0.5,0.8c0,0.2-0.1,0.2-0.2,0.2
			c0,0-0.1,0-0.1-0.1c0,0,0.1-0.5,0.3-0.7c0.1-0.2,0.3-0.4,0.6-0.4c0.2,0,0.6,0.1,0.7,0.5c0.2-0.2,0.6-0.5,1-0.5c0.5,0,1,0.3,1,1.2
			c0,1-0.9,2-1.8,2c-0.4,0-0.6-0.3-0.7-0.4c-0.1,0.3-0.2,0.7-0.3,1c0,0.1-0.1,0.3-0.1,0.3c0,0.1,0.2,0.1,0.3,0.1
			c0.1,0,0.2,0,0.2,0.1c0,0.1-0.1,0.2-0.1,0.2c-0.2,0-0.5,0-0.7,0c-0.2,0-0.4,0-0.6,0c0,0-0.1,0-0.1-0.1c0-0.1,0.1-0.1,0.2-0.1
			c0.3,0,0.3-0.1,0.3-0.3L29.8,23.7z M30,25.2c0,0,0,0.1,0,0.1c0,0.1,0.1,0.6,0.6,0.6c0.4,0,0.7-0.3,0.9-0.7
			c0.2-0.4,0.4-1.1,0.4-1.4c0-0.5-0.2-0.7-0.5-0.7c-0.2,0-0.6,0.1-1,0.6L30,25.2z"/>
	</g>
	<g>
		<path class="st4" d="M34.3,27.1v-10h1.4v0.4h-1v9.2h1v0.4H34.3z"/>
	</g>
	<g>
		<path class="st4" d="M37.7,22c0.4-0.1,0.8-0.5,1.1-0.9c0.7-0.8,1.2-0.9,1.5-0.9c0.4,0,0.7,0.3,0.7,0.6c0,0.4-0.3,0.6-0.5,0.6
			c-0.3,0-0.4-0.2-0.4-0.3c0-0.1,0.1-0.5,0.6-0.5c0,0,0,0,0,0c-0.1-0.1-0.1-0.1-0.2-0.1c0,0,0,0-0.1,0c-0.5,0-0.9,0.4-1.4,1
			c-0.2,0.2-0.5,0.6-0.9,0.7c0.8,0.1,1.5,0.4,1.5,1c0,0.1,0,0.1,0,0.3c0,0.2-0.1,0.4-0.1,0.6c0,0.4,0.1,0.5,0.3,0.5
			c0.4,0,0.7-0.5,0.9-1.2c0-0.1,0-0.2,0.1-0.2c0,0,0.1,0,0.1,0.1c0,0-0.1,0.6-0.4,1c-0.2,0.4-0.5,0.5-0.8,0.5c-0.5,0-0.9-0.4-0.9-1
			c0-0.1,0-0.2,0-0.3c0-0.1,0-0.1,0-0.2c0-0.7-0.8-0.8-1.2-0.8c-0.1,0.2-0.5,2.1-0.6,2.2c-0.1,0.1-0.2,0.2-0.3,0.2
			c-0.1,0-0.3,0-0.3-0.3c0-0.1,0-0.1,0-0.2l1.4-5.7l0-0.2c0-0.1,0-0.2-0.5-0.2c-0.1,0-0.2,0-0.2-0.1c0-0.2,0.1-0.2,0.2-0.2
			c0.3,0,1-0.1,1.2-0.1c0.1,0,0.1,0.1,0.1,0.1L37.7,22z"/>
	</g>
	<g>
		<path class="st4" d="M42.9,27.1h-1.4v-0.4h1v-9.2h-1v-0.4h1.4V27.1z"/>
	</g>
	<g>
		<path class="st2" d="M53.6,20.3v0.3h-1.1v3.2c0,0.4,0,0.5,0.8,0.5h0.2v0.3c-0.4,0-0.9,0-1.3,0c-0.3,0-0.7,0-1.1,0v-0.3
			c0.7,0,0.8,0,0.8-0.4v-3.2H51v-0.3h0.8v-1.1c0-1.1,0.8-1.6,1.5-1.6c0.5,0,0.9,0.3,0.9,0.7c0,0.2-0.1,0.4-0.4,0.4
			c-0.3,0-0.4-0.2-0.4-0.4c0-0.2,0.2-0.4,0.3-0.4c-0.1-0.1-0.3-0.1-0.3-0.1c-0.4,0-0.9,0.5-0.9,1.4v1.2H53.6z"/>
		<path class="st2" d="M56.2,24.7c-1.2,0-2.2-1-2.2-2.2c0-1.2,1-2.3,2.2-2.3c1.2,0,2.2,1.1,2.2,2.3C58.4,23.7,57.4,24.7,56.2,24.7z
			 M57.4,23.7c0.2-0.4,0.2-1,0.2-1.3c0-0.4,0-1-0.3-1.4c-0.3-0.4-0.7-0.6-1.1-0.6c-0.4,0-0.9,0.2-1.1,0.7c-0.2,0.4-0.2,1-0.2,1.4
			c0,0.4,0,1,0.2,1.4c0.3,0.5,0.7,0.7,1.1,0.7C56.7,24.5,57.1,24.2,57.4,23.7z"/>
	</g>
	<g>
		<path class="st2" d="M61.6,20.2c0.4,0,0.7,0.3,0.7,0.6s-0.2,0.4-0.4,0.4c-0.2,0-0.4-0.1-0.4-0.4c0-0.3,0.2-0.4,0.2-0.4
			c0,0,0,0-0.1,0c-0.8,0-1.2,0.9-1.2,1.9v1.5c0,0.4,0,0.5,0.8,0.5h0.2v0.3c-0.4,0-0.9,0-1.3,0c-0.3,0-0.7,0-1.1,0v-0.3
			c0.7,0,0.8,0,0.8-0.4v-2.7c0-0.5-0.1-0.6-0.8-0.6v-0.3l1.4-0.1v1.1C60.6,20.9,60.9,20.2,61.6,20.2z"/>
	</g>
	<g>
		<path class="st2" d="M72.1,24.4c0,0.2,0,0.2-0.2,0.2c-0.1,0-0.1,0-0.2-0.2l-2.5-5.9c0-0.1,0-0.1-0.1-0.2l-1.3,5.3
			c0,0.1,0,0.2,0,0.2c0,0.2,0.1,0.4,0.7,0.4c0.1,0,0.2,0,0.2,0.1c0,0.2-0.1,0.2-0.2,0.2c-0.3,0-0.7,0-1,0c-0.3,0-0.7,0-1,0
			c-0.1,0-0.1,0-0.1-0.1c0-0.2,0.1-0.2,0.2-0.2c0.8,0,1-0.3,1.1-0.7l1.3-5.4c0-0.1-0.6-0.1-0.7-0.1c-0.2,0-0.3,0-0.3-0.1
			c0-0.2,0.1-0.2,0.3-0.2h1.3c0.2,0,0.2,0,0.3,0.2l2.2,5.2l1.1-4.4c0,0,0-0.2,0-0.2c0-0.2-0.1-0.4-0.7-0.4c-0.1,0-0.2,0-0.2-0.1
			c0-0.2,0.1-0.2,0.2-0.2c0.3,0,0.7,0,1,0c0.3,0,0.7,0,1,0c0.1,0,0.1,0.1,0.1,0.1c0,0.2-0.1,0.2-0.2,0.2c-0.8,0-1,0.3-1.1,0.7
			L72.1,24.4z"/>
	</g>
	<g>
		<path class="st2" d="M78.7,21.3c-0.1,0-0.3,0-0.3-0.2s0.2-0.2,0.3-0.2h6c0.1,0,0.3,0,0.3,0.2s-0.2,0.2-0.3,0.2H78.7z M78.7,23.3
			c-0.1,0-0.3,0-0.3-0.2s0.2-0.2,0.3-0.2h5.9c0.1,0,0.3,0,0.3,0.2s-0.2,0.2-0.3,0.2H78.7z"/>
		<path class="st2" d="M92.9,22.9c0,1-0.9,1.9-2.1,1.9c-1.1,0-2-0.7-2-1.6c0-0.4,0.3-0.6,0.6-0.6c0.3,0,0.6,0.2,0.6,0.6
			c0,0.4-0.3,0.6-0.7,0.5c0.3,0.6,1.1,0.8,1.5,0.8c0.4,0,1.1-0.3,1.1-1.6c0-1-0.4-1.7-1.2-1.7h-0.4c-0.2,0-0.2,0-0.2-0.1
			c0-0.1,0.1-0.1,0.1-0.1c0.1,0,0.3,0,0.4,0c0.2,0,0.6,0,0.9-0.5c0.3-0.4,0.3-1,0.3-1.1c0-0.9-0.5-1.1-1-1.1c-0.4,0-1,0.1-1.3,0.6
			c0.1,0,0.6,0,0.6,0.5c0,0.3-0.2,0.5-0.5,0.5c-0.3,0-0.5-0.2-0.5-0.5c0-0.8,0.8-1.4,1.8-1.4c1,0,1.8,0.6,1.8,1.4
			c0,0.8-0.6,1.5-1.4,1.8C92.3,21.3,92.9,22.1,92.9,22.9z"/>
	</g>
	<path class="st1" d="M55.7,89.6c0,0,12.6-14.2,21.3-14.2c8.7,0,21.3,14.2,21.3,14.2l0,0 M98.2,89.6c0,0,12.6-14.2,21.3-14.2
		s21.3,14.2,21.3,14.2l0,0"/>
	<g>
		<path class="st2" d="M217.8,107.4c-0.9,0-1.2-1.1-1.2-2c0-2.3,1.5-5.1,2.9-5.1c1,0,1.2,1.4,1.2,2
			C220.7,104.5,219.2,107.4,217.8,107.4z M217.5,104c-0.3,1-0.3,1.6-0.3,2c0,0.9,0.2,1.2,0.5,1.2c0.4,0,0.8-0.5,1.2-1.2
			c0.4-0.7,0.6-1.6,0.7-2H217.5z M219.7,103.7c0.2-1,0.3-1.5,0.3-2c0-0.6-0.1-1.2-0.5-1.2c-0.4,0-0.8,0.6-1.1,1
			c-0.4,0.7-0.6,1.5-0.8,2.1H219.7z"/>
	</g>
	<g>
		<path class="st2" d="M214.2,126c0.4-0.1,0.8-0.5,1.1-0.9c0.7-0.8,1.2-0.9,1.5-0.9c0.4,0,0.7,0.3,0.7,0.6c0,0.4-0.3,0.6-0.5,0.6
			c-0.3,0-0.4-0.2-0.4-0.3c0-0.1,0.1-0.5,0.6-0.5c0,0,0,0,0,0c-0.1-0.1-0.1-0.1-0.2-0.1c0,0,0,0-0.1,0c-0.5,0-0.9,0.4-1.4,1
			c-0.2,0.2-0.5,0.6-0.9,0.7c0.8,0.1,1.5,0.4,1.5,1c0,0.1,0,0.1,0,0.3c0,0.2-0.1,0.4-0.1,0.6c0,0.4,0.1,0.5,0.3,0.5
			c0.4,0,0.7-0.5,0.9-1.2c0-0.1,0-0.2,0.1-0.2c0,0,0.1,0,0.1,0.1c0,0-0.1,0.6-0.4,1c-0.2,0.4-0.5,0.5-0.8,0.5c-0.5,0-0.9-0.4-0.9-1
			c0-0.1,0-0.2,0-0.3c0-0.1,0-0.1,0-0.2c0-0.7-0.8-0.8-1.2-0.8c-0.1,0.2-0.5,2.1-0.6,2.2c-0.1,0.1-0.2,0.2-0.3,0.2
			c-0.1,0-0.3,0-0.3-0.3c0-0.1,0-0.1,0-0.2l1.4-5.7l0-0.2c0-0.1,0-0.2-0.5-0.2c-0.1,0-0.2,0-0.2-0.1c0-0.2,0.1-0.2,0.2-0.2
			c0.3,0,1-0.1,1.2-0.1c0.1,0,0.1,0.1,0.1,0.1L214.2,126z"/>
	</g>
	<g>
		<path class="st2" d="M40.4,113h-2.9c0-0.2,0-0.2,0.1-0.3l1.7-1.7c0.2-0.3,0.7-0.7,0.7-1.3c0-0.6-0.4-1.1-1.1-1.1
			c-0.3,0-0.8,0.2-1,0.6c0.4,0,0.4,0.2,0.4,0.4c0,0.3-0.2,0.4-0.4,0.4c-0.1,0-0.4,0-0.4-0.4c0-0.6,0.6-1.2,1.5-1.2
			c0.9,0,1.6,0.5,1.6,1.4c0,0.7-0.5,1.1-1,1.5c-0.4,0.3-0.7,0.5-1.4,1.2h1.3c0.1,0,0.6,0,0.7,0c0.1-0.1,0.2-0.5,0.2-0.6h0.2
			L40.4,113z"/>
	</g>
	<g>
		<path class="st2" d="M42.8,112.1c-0.2,0.6-0.2,0.9-0.5,0.9c-0.2,0-0.2-0.1-0.2-0.2c0,0,0-0.1,0-0.1c0,0,0.1-0.2,0.1-0.3
			c0.2-0.4,0.6-1.2,0.8-2h-0.4c-0.2,0-0.6,0-0.9,0.5c0,0.1,0,0.1-0.1,0.1c0,0-0.1,0-0.1-0.1c0-0.1,0.3-0.4,0.5-0.6
			c0.3-0.3,0.5-0.4,0.8-0.4h2.6c0.1,0,0.3,0,0.3,0.2c0,0,0,0.1-0.1,0.2c-0.1,0.1-0.1,0.1-0.3,0.1h-0.9c-0.1,0.5-0.1,0.8-0.1,0.9
			c0,0.6,0.1,1,0.3,1.2c0,0.1,0.1,0.1,0.1,0.2c0,0.2-0.2,0.3-0.3,0.3c-0.1,0-0.2,0-0.3-0.4c0-0.2-0.1-0.3-0.1-0.6
			c0-0.6,0.2-1.2,0.3-1.6h-0.8L42.8,112.1z"/>
	</g>
	<polyline points="37.1,114.7 46.1,114.7 46.1,114.2 37.1,114.2 	"/>
	<g>
		<path class="st2" d="M41,118.1c-0.1,0-0.2,0-0.2-0.1c0-0.1,0.1-0.1,0.1-0.1c0,0,0,0,0.2,0c0.3,0,0.5,0,0.8-0.3
			c0.2-0.2,0.3-0.5,0.3-0.8c0-0.6-0.4-0.8-0.8-0.8c-0.3,0-0.7,0.1-1,0.4c0.2,0,0.4,0.2,0.4,0.4c0,0.2-0.1,0.4-0.4,0.4
			c-0.2,0-0.4-0.1-0.4-0.4c0-0.6,0.6-0.9,1.4-0.9s1.4,0.4,1.4,1c0,0.4-0.3,0.9-1,1.2c0.8,0.2,1.2,0.7,1.2,1.2c0,0.7-0.7,1.3-1.6,1.3
			c-0.8,0-1.6-0.4-1.6-1.1c0-0.3,0.2-0.4,0.4-0.4c0.2,0,0.4,0.2,0.4,0.4c0,0.1-0.1,0.4-0.4,0.4c0.3,0.4,0.9,0.5,1.2,0.5
			c0.4,0,0.9-0.3,0.9-1.1c0-0.7-0.4-1.1-0.9-1.1H41z"/>
	</g>
	<line class="st0" x1="13.1" y1="110.9" x2="13.1" y2="118"/>
	<polyline points="17.7,112.2 13.1,114.4 17.7,116.7 16.6,114.4 	"/>
	<path class="st0" d="M16.6,114.4h10.8 M69.8,110.9v7.1"/>
	<polyline points="65.3,116.7 69.8,114.4 65.3,112.2 66.4,114.4 	"/>
	<line class="st0" x1="66.4" y1="114.4" x2="55.7" y2="114.4"/>
	<g>
		<path class="st2" d="M14.8,106.1c-0.4,0.9-1.2,1.2-1.7,1.2c-0.5,0-1.2-0.2-1.6-1c-0.4-0.8-0.4-1.7-0.4-2.4c0-0.8,0-1.6,0.4-2.3
			c0.4-0.9,1.1-1.2,1.7-1.2c0.4,0,1.2,0.2,1.7,1.1c0.3,0.7,0.4,1.5,0.4,2.3C15.2,104.7,15.2,105.4,14.8,106.1z M14.3,105.8
			c0.1-0.6,0.1-1.3,0.1-2.1c0-0.6,0-1.4-0.1-1.9c-0.2-1-0.8-1.2-1.2-1.2c-0.2,0-1,0.1-1.2,1.3c-0.1,0.5-0.1,1.2-0.1,1.8
			c0,0.6,0,1.5,0.1,2.1c0.2,1,0.8,1.2,1.2,1.2C13.6,107.1,14.1,106.8,14.3,105.8z"/>
	</g>
	<g>
		<path class="st2" d="M97.3,104.5c-0.1,0.5-0.1,0.5-0.3,1c-0.1,0.4-0.2,0.6-0.5,0.6c-0.1,0-0.3-0.1-0.3-0.3c0-0.1,0-0.1,0.1-0.2
			c0.4-0.9,1-2.1,1.3-3.3H97c-0.2,0-0.8,0-1.3,0.8c-0.1,0.1-0.1,0.1-0.2,0.1c-0.1,0-0.1-0.1-0.1-0.1c0,0,0.3-0.5,0.6-0.9
			c0.4-0.5,0.8-0.5,1-0.5h3.3c0.2,0,0.4,0,0.4,0.2c0,0.3-0.4,0.3-0.5,0.3h-1.1c-0.1,0.5-0.2,1.1-0.2,1.6c0,0.3,0,0.9,0.3,1.6
			c0.1,0.1,0.1,0.2,0.1,0.2c0,0.2-0.2,0.4-0.4,0.4c-0.1,0-0.3-0.1-0.4-0.5c-0.1-0.3-0.1-0.6-0.1-0.8c0-0.7,0.1-1.1,0.4-2.6h-1.1
			L97.3,104.5z"/>
	</g>
	<g>
		<path class="st2" d="M180.8,106.3c0.2,0,0.9,0,0.9-0.1c0.1-0.1,0.2-0.6,0.2-0.9h0.2l-0.3,1.7h-3.7c0-0.2,0-0.3,0.1-0.4l1.9-2.1
			c0.5-0.6,1-1.4,1-2.2c0-0.8-0.4-1.6-1.3-1.6c-0.6,0-1.1,0.4-1.3,1c0,0,0,0,0.1,0c0.3,0,0.5,0.3,0.5,0.5c0,0.4-0.3,0.5-0.5,0.5
			c0,0-0.5,0-0.5-0.6c0-0.9,0.7-1.8,1.9-1.8c1.2,0,2.1,0.8,2.1,1.9c0,1-0.6,1.5-2.2,2.9l-1.1,1H180.8z"/>
	</g>
	<g>
		<path class="st2" d="M184.8,105.5c-0.1,0.5-0.1,0.5-0.3,1c-0.1,0.4-0.2,0.6-0.5,0.6c-0.1,0-0.3-0.1-0.3-0.3c0-0.1,0-0.1,0.1-0.2
			c0.4-0.9,1-2.1,1.3-3.3h-0.6c-0.2,0-0.8,0-1.3,0.8c-0.1,0.1-0.1,0.1-0.2,0.1c-0.1,0-0.1-0.1-0.1-0.1c0,0,0.3-0.5,0.6-0.9
			c0.4-0.5,0.8-0.5,1-0.5h3.3c0.2,0,0.4,0,0.4,0.2c0,0.3-0.4,0.3-0.5,0.3h-1.1c-0.1,0.5-0.2,1.1-0.2,1.6c0,0.3,0,0.9,0.3,1.6
			c0.1,0.1,0.1,0.2,0.1,0.2c0,0.2-0.2,0.4-0.4,0.4c-0.1,0-0.3-0.1-0.4-0.5c-0.1-0.3-0.1-0.6-0.1-0.8c0-0.7,0.1-1.1,0.4-2.6h-1.1
			L184.8,105.5z"/>
	</g>
	<polyline points="203.5,106.1 208,103.8 203.5,101.5 204.6,103.8 	"/>
	<line class="st0" x1="197.4" y1="103.8" x2="204.6" y2="103.8"/>
	<polyline points="203.5,127.3 208,125.1 203.5,122.8 204.6,125.1 	"/>
	<line class="st0" x1="197.4" y1="125.1" x2="204.6" y2="125.1"/>
	<g>
		<path class="st2" d="M14.8,127.4c-0.4,0.9-1.2,1.2-1.7,1.2c-0.5,0-1.2-0.2-1.6-1c-0.4-0.8-0.4-1.7-0.4-2.4c0-0.8,0-1.6,0.4-2.3
			c0.4-0.9,1.1-1.2,1.7-1.2c0.4,0,1.2,0.2,1.7,1.1c0.3,0.7,0.4,1.5,0.4,2.3C15.2,125.9,15.2,126.7,14.8,127.4z M14.3,127.1
			c0.1-0.6,0.1-1.3,0.1-2.1c0-0.6,0-1.4-0.1-1.9c-0.2-1-0.8-1.2-1.2-1.2c-0.2,0-1,0.1-1.2,1.3c-0.1,0.5-0.1,1.2-0.1,1.8
			c0,0.6,0,1.5,0.1,2.1c0.2,1,0.8,1.2,1.2,1.2C13.6,128.3,14.1,128,14.3,127.1z"/>
		<path class="st2" d="M70.3,127.5c0,0.4,0,0.5,0.9,0.5h0.3v0.3c-0.3,0-1.2,0-1.6,0c-0.4,0-1.3,0-1.6,0V128h0.3
			c0.9,0,0.9-0.1,0.9-0.5v-5.2c-0.5,0.3-1.1,0.3-1.3,0.3v-0.3c0.3,0,1.2,0,1.8-0.6c0.2,0,0.2,0,0.2,0.3V127.5z"/>
		<path class="st2" d="M127.1,127.5c0.2,0,0.9,0,0.9-0.1c0.1-0.1,0.2-0.6,0.2-0.9h0.2l-0.3,1.7h-3.7c0-0.2,0-0.3,0.1-0.4l1.9-2.1
			c0.5-0.6,1-1.4,1-2.2c0-0.8-0.4-1.6-1.3-1.6c-0.6,0-1.1,0.4-1.3,1c0,0,0,0,0.1,0c0.3,0,0.5,0.3,0.5,0.5c0,0.4-0.3,0.5-0.5,0.5
			c0,0-0.5,0-0.5-0.6c0-0.9,0.7-1.8,1.9-1.8c1.2,0,2.1,0.8,2.1,1.9c0,1-0.6,1.5-2.2,2.9l-1.1,1H127.1z"/>
	</g>
	<polyline points="192.9,226.6 197.4,224.3 192.9,222 194,224.3 	"/>
	<line class="st0" x1="6.1" y1="224.3" x2="194" y2="224.3"/>
	<polyline points="15.4,143.8 13.1,139.2 10.9,143.8 13.1,142.6 	"/>
	<path class="st0" d="M13.1,231.4v-88.7 M27.3,227.8v-7.1 M41.5,227.8v-7.1 M55.7,227.8v-7.1 M69.8,227.8v-7.1 M84,227.8v-7.1
		 M98.2,227.8v-7.1 M112.4,227.8v-7.1 M126.5,227.8v-7.1 M140.7,227.8v-7.1 M154.9,227.8v-7.1 M169.1,227.8v-7.1 M183.2,227.8v-7.1
		 M9.6,167.6h7.1"/>
	<path class="st1" d="M140.7,224.3c0,0,1.2-14.2,3.5-21.3c2.5-7.8,5.4-15,10.6-21.3c3.9-4.7,8.7-8,14.2-10.6
		c4.5-2.2,14.2-3.5,14.2-3.5l0,0l0,0 M55.7,224.3c0,0-1.2-14.2-3.5-21.3c-2.5-7.8-5.8-14.6-10.6-21.3c-2-2.8-4.2-5.3-7.1-7.1
		c-6.6-4.1-21.3-7.1-21.3-7.1l0,0"/>
	<g>
		<path class="st2" d="M0.3,169.2v-0.3l3.1-4.7c0.1-0.1,0.1-0.1,0.2-0.1c0.2,0,0.2,0.1,0.2,0.3v4.5h1v0.3h-1v0.9
			c0,0.4,0,0.5,0.8,0.5h0.2v0.3c-0.4,0-0.9,0-1.4,0s-0.9,0-1.3,0v-0.3h0.2c0.7,0,0.8-0.1,0.8-0.5v-0.9H0.3z M3,165.2l-2.4,3.7H3
			V165.2z"/>
	</g>
	<g>
		<path class="st2" d="M21.8,148.9c0,0.2,0,0.4-0.2,0.4c-0.2,0-0.2-0.2-0.2-0.4v-9.2c0-0.2,0-0.4,0.2-0.4c0.2,0,0.2,0.2,0.2,0.4
			V148.9z"/>
	</g>
	<g>
		<path class="st2" d="M29.4,140.9c0.1-0.1,0.2-0.2,0.2-0.4c0-0.3-0.3-0.3-0.4-0.3c-0.1,0-0.1,0-0.1-0.1c0-0.2,0.1-0.2,0.2-0.2
			c0.4,0,0.7,0,1.1,0c0.3,0,0.6,0,0.9,0c0.1,0,0.1,0.1,0.1,0.1c0,0.2-0.1,0.2-0.2,0.2c-0.6,0-1,0.3-1.3,0.5c-0.3,0.3-1.4,1.5-2,2.2
			c0.2,0.6,0.9,2.2,1.3,3.1c0.2,0.4,0.2,0.4,0.9,0.4c0.1,0,0.2,0,0.2,0.1c0,0.2-0.1,0.2-0.2,0.2c-0.2,0-0.9,0-1.1,0
			c-0.3,0-1,0-1.3,0c0,0-0.1,0-0.1-0.1c0-0.2,0.1-0.2,0.2-0.2c0.4,0,0.6-0.2,0.6-0.3c0,0,0,0,0-0.1l-1-2.4l-0.9,1l-1,1.1
			c-0.1,0.1-0.3,0.3-0.3,0.4c0,0.3,0.3,0.3,0.4,0.3c0,0,0.1,0,0.1,0.1c0,0.2-0.1,0.2-0.2,0.2c-0.4,0-0.7,0-1.1,0c-0.3,0-0.6,0-0.9,0
			c-0.1,0-0.1-0.1-0.1-0.1c0-0.2,0.1-0.2,0.2-0.2c0.5,0,1-0.2,1.5-0.7l0.1-0.1l2.1-2.3l-1.2-2.8c-0.1-0.2-0.1-0.3-0.7-0.3
			c-0.1,0-0.2,0-0.2-0.1c0-0.2,0.1-0.2,0.2-0.2c0.2,0,0.9,0,1.1,0c0.4,0,0.8,0,1.3,0c0,0,0.1,0,0.1,0.1c0,0.2-0.1,0.2-0.2,0.2
			c-0.4,0-0.6,0.2-0.6,0.3c0,0,0,0,0,0.1l0.8,2L29.4,140.9z"/>
	</g>
	<g>
		<path class="st2" d="M35.3,149.2c-0.1,0-1-0.6-1.6-1.9c-0.5-1.1-0.7-2.3-0.7-3.1c0-0.8,0.1-1.9,0.6-3c0.6-1.3,1.5-1.9,1.6-1.9
			c0.1,0,0.1,0,0.1,0.1c0,0,0,0-0.1,0.2c-1.2,1.2-1.6,3-1.6,4.7c0,1.5,0.3,3.4,1.6,4.7C35.4,149.1,35.4,149.1,35.3,149.2
			C35.4,149.2,35.4,149.2,35.3,149.2z"/>
		<path class="st2" d="M37.3,145.9c0.2,0.4,0.6,0.7,1.1,0.7c0.1,0,1,0,1.3-1c0-0.1,0-0.1,0.1-0.1c0,0,0.1,0,0.1,0.1
			c0,0.2-0.4,1.3-1.7,1.3c-1.1,0-2.2-1-2.2-2.3c0-1.2,0.9-2.3,2.1-2.3c1.2,0,1.8,1,1.8,2c0,0.2,0,0.2-0.2,0.2h-2.8
			C37.1,144.8,37.1,145.5,37.3,145.9z M39.4,144.2c0-0.4-0.1-1.7-1.1-1.7c-0.3,0-1.2,0.3-1.2,1.7H39.4z"/>
	</g>
	<g>
		<path class="st2" d="M42.4,143.5c0,0.9-0.6,1.5-1.4,1.5c-0.6,0-1.1-0.3-1.1-0.8c0-0.3,0.2-0.5,0.5-0.5c0.3,0,0.5,0.2,0.5,0.5
			c0,0.3-0.2,0.4-0.3,0.4c0.3,0.1,0.5,0.1,0.5,0.1c0.6,0,0.7-0.9,0.7-1.3v-3.9c0-0.5-0.1-0.6-0.9-0.6v-0.3l1.5-0.1V143.5z
			 M41.8,137.4c-0.3,0-0.5-0.2-0.5-0.5s0.2-0.5,0.5-0.5s0.5,0.2,0.5,0.5S42.1,137.4,41.8,137.4z"/>
	</g>
	<g>
		<path class="st2" d="M44.7,143.1c-0.6,0-1-0.7-1-1.5c0-1.6,1.1-3.5,2.2-3.5c0.7,0,1,0.8,1,1.5C46.8,141.2,45.7,143.1,44.7,143.1z
			 M44.4,140.7c-0.1,0.3-0.2,0.8-0.2,1.3c0,0.4,0.1,0.9,0.4,0.9c0.3,0,0.6-0.3,0.8-0.7c0.2-0.3,0.4-0.7,0.6-1.5H44.4z M46.1,140.5
			c0.1-0.6,0.2-1,0.2-1.3c0-0.1,0-0.9-0.4-0.9c-0.4,0-1,0.7-1.4,2.2H46.1z"/>
	</g>
	<g>
		<path class="st2" d="M50.1,147.3c-0.6,1.3-1.5,1.9-1.6,1.9c-0.1,0-0.1,0-0.1-0.1c0,0,0,0,0.1-0.2c1.2-1.3,1.6-3,1.6-4.7
			c0-2.1-0.6-3.7-1.5-4.7c-0.2-0.2-0.2-0.2-0.2-0.2c0-0.1,0-0.1,0.1-0.1c0.1,0,1,0.6,1.6,1.9c0.5,1.1,0.7,2.3,0.7,3.1
			C50.7,145.1,50.6,146.2,50.1,147.3z"/>
	</g>
	<g>
		<path class="st2" d="M53.3,148.9c0,0.2,0,0.4-0.2,0.4c-0.2,0-0.2-0.2-0.2-0.4v-9.2c0-0.2,0-0.4,0.2-0.4c0.2,0,0.2,0.2,0.2,0.4
			V148.9z"/>
	</g>
	<line class="st5" x1="13.1" y1="224.3" x2="13.1" y2="167.6"/>
	<g>
		<path class="st4" d="M13.1,169.3c-1.1,0-1.9-0.9-1.9-1.9c0-1,0.9-1.9,1.9-1.9c1,0,1.9,0.9,1.9,1.9S14.2,169.3,13.1,169.3z"/>
	</g>
	<g>
		<path class="st6" d="M55.6,226c-1.1,0-1.9-0.9-1.9-1.9c0-1,0.9-1.9,1.9-1.9c1,0,1.9,0.9,1.9,1.9S56.7,226,55.6,226z"/>
	</g>
	<g>
		<path class="st6" d="M26.7,153.4c0.1-0.1,0.2-0.2,0.2-0.4c0-0.3-0.3-0.3-0.4-0.3c-0.1,0-0.1,0-0.1-0.1c0-0.2,0.1-0.2,0.2-0.2
			c0.4,0,0.7,0,1.1,0c0.3,0,0.6,0,0.9,0c0.1,0,0.1,0.1,0.1,0.1c0,0.2-0.1,0.2-0.2,0.2c-0.6,0-1,0.3-1.3,0.5c-0.3,0.3-1.4,1.5-2,2.2
			c0.2,0.6,0.9,2.2,1.3,3.1c0.2,0.4,0.2,0.4,0.9,0.4c0.1,0,0.2,0,0.2,0.1c0,0.2-0.1,0.2-0.2,0.2c-0.2,0-0.9,0-1.1,0
			c-0.3,0-1,0-1.3,0c0,0-0.1,0-0.1-0.1c0-0.2,0.1-0.2,0.2-0.2c0.4,0,0.6-0.2,0.6-0.3c0,0,0,0,0-0.1l-1-2.4l-0.9,1l-1,1.1
			c-0.1,0.1-0.3,0.3-0.3,0.4c0,0.3,0.3,0.3,0.4,0.3c0,0,0.1,0,0.1,0.1c0,0.2-0.1,0.2-0.2,0.2c-0.4,0-0.7,0-1.1,0c-0.3,0-0.6,0-0.9,0
			c-0.1,0-0.1-0.1-0.1-0.1c0-0.2,0.1-0.2,0.2-0.2c0.5,0,1-0.2,1.5-0.7l0.1-0.1l2.1-2.3l-1.2-2.8c-0.1-0.2-0.1-0.3-0.7-0.3
			c-0.1,0-0.2,0-0.2-0.1c0-0.2,0.1-0.2,0.2-0.2c0.2,0,0.9,0,1.1,0c0.4,0,0.8,0,1.3,0c0,0,0.1,0,0.1,0.1c0,0.2-0.1,0.2-0.2,0.2
			c-0.4,0-0.6,0.2-0.6,0.3c0,0,0,0,0,0.1l0.8,2L26.7,153.4z"/>
	</g>
	<g>
		<path class="st6" d="M29.8,158.4c0,0,0-0.1,0-0.2c0-0.2,0-0.3-0.2-0.3c-0.3,0-0.4,0.3-0.5,0.8c0,0.2-0.1,0.2-0.2,0.2
			c0,0-0.1,0-0.1-0.1c0,0,0.1-0.5,0.3-0.7c0.1-0.2,0.3-0.4,0.6-0.4c0.2,0,0.6,0.1,0.7,0.5c0.2-0.2,0.6-0.5,1-0.5c0.5,0,1,0.3,1,1.2
			c0,1-0.9,2-1.8,2c-0.4,0-0.6-0.3-0.7-0.4c-0.1,0.3-0.2,0.7-0.3,1c0,0.1-0.1,0.3-0.1,0.3c0,0.1,0.2,0.1,0.3,0.1
			c0.1,0,0.2,0,0.2,0.1c0,0.1-0.1,0.2-0.1,0.2c-0.2,0-0.5,0-0.7,0c-0.2,0-0.4,0-0.6,0c0,0-0.1,0-0.1-0.1c0-0.1,0.1-0.1,0.2-0.1
			c0.3,0,0.3-0.1,0.3-0.3L29.8,158.4z M30,159.8c0,0,0,0.1,0,0.1c0,0.1,0.1,0.6,0.6,0.6c0.4,0,0.7-0.3,0.9-0.7
			c0.2-0.4,0.4-1.1,0.4-1.4c0-0.5-0.2-0.7-0.5-0.7c-0.2,0-0.6,0.1-1,0.6L30,159.8z"/>
	</g>
	<g>
		<path class="st6" d="M34.3,161.7v-10h1.4v0.4h-1v9.2h1v0.4H34.3z"/>
	</g>
	<g>
		<path class="st6" d="M37.7,156.6c0.4-0.1,0.8-0.5,1.1-0.9c0.7-0.8,1.2-0.9,1.5-0.9c0.4,0,0.7,0.3,0.7,0.6c0,0.4-0.3,0.6-0.5,0.6
			c-0.3,0-0.4-0.2-0.4-0.3c0-0.1,0.1-0.5,0.6-0.5c0,0,0,0,0,0c-0.1-0.1-0.1-0.1-0.2-0.1c0,0,0,0-0.1,0c-0.5,0-0.9,0.4-1.4,1
			c-0.2,0.2-0.5,0.6-0.9,0.7c0.8,0.1,1.5,0.4,1.5,1c0,0.1,0,0.1,0,0.3c0,0.2-0.1,0.4-0.1,0.6c0,0.4,0.1,0.5,0.3,0.5
			c0.4,0,0.7-0.5,0.9-1.2c0-0.1,0-0.2,0.1-0.2c0,0,0.1,0,0.1,0.1c0,0-0.1,0.6-0.4,1c-0.2,0.4-0.5,0.5-0.8,0.5c-0.5,0-0.9-0.4-0.9-1
			c0-0.1,0-0.2,0-0.3c0-0.1,0-0.1,0-0.2c0-0.7-0.8-0.8-1.2-0.8c-0.1,0.3-0.5,2.1-0.6,2.2c-0.1,0.1-0.2,0.2-0.3,0.2
			c-0.1,0-0.3,0-0.3-0.3c0-0.1,0-0.1,0-0.2l1.4-5.7l0-0.2c0-0.1,0-0.2-0.5-0.2c-0.1,0-0.2,0-0.2-0.1c0-0.2,0.1-0.2,0.2-0.2
			c0.3,0,1-0.1,1.2-0.1c0.1,0,0.1,0.1,0.1,0.1L37.7,156.6z"/>
	</g>
	<g>
		<path class="st6" d="M42.9,161.7h-1.4v-0.4h1v-9.2h-1v-0.4h1.4V161.7z"/>
	</g>
	<g>
		<path class="st2" d="M53.6,154.9v0.3h-1.1v3.2c0,0.4,0,0.5,0.8,0.5h0.2v0.3c-0.4,0-0.9,0-1.3,0c-0.3,0-0.7,0-1.1,0v-0.3
			c0.7,0,0.8,0,0.8-0.4v-3.2H51v-0.3h0.8v-1.1c0-1.1,0.8-1.6,1.5-1.6c0.5,0,0.9,0.3,0.9,0.7c0,0.2-0.1,0.4-0.4,0.4
			c-0.3,0-0.4-0.2-0.4-0.4c0-0.2,0.2-0.4,0.3-0.4c-0.1-0.1-0.3-0.1-0.3-0.1c-0.4,0-0.9,0.5-0.9,1.4v1.2H53.6z"/>
		<path class="st2" d="M56.2,159.4c-1.2,0-2.2-1-2.2-2.2c0-1.2,1-2.3,2.2-2.3c1.2,0,2.2,1.1,2.2,2.3
			C58.4,158.4,57.4,159.4,56.2,159.4z M57.4,158.4c0.2-0.4,0.2-1,0.2-1.3c0-0.4,0-1-0.3-1.4c-0.3-0.4-0.7-0.6-1.1-0.6
			c-0.4,0-0.9,0.2-1.1,0.7c-0.2,0.4-0.2,1-0.2,1.4c0,0.4,0,1,0.2,1.4c0.3,0.5,0.7,0.7,1.1,0.7C56.7,159.1,57.1,158.8,57.4,158.4z"/>
	</g>
	<g>
		<path class="st2" d="M61.6,154.8c0.4,0,0.7,0.3,0.7,0.6c0,0.3-0.2,0.4-0.4,0.4c-0.2,0-0.4-0.2-0.4-0.4c0-0.3,0.2-0.4,0.2-0.4
			c0,0,0,0-0.1,0c-0.8,0-1.2,0.9-1.2,1.9v1.5c0,0.4,0,0.5,0.8,0.5h0.2v0.3c-0.4,0-0.9,0-1.3,0c-0.3,0-0.7,0-1.1,0v-0.3
			c0.7,0,0.8,0,0.8-0.4v-2.7c0-0.5-0.1-0.6-0.8-0.6v-0.3l1.4-0.1v1.1C60.6,155.5,60.9,154.8,61.6,154.8z"/>
	</g>
	<g>
		<path class="st2" d="M72.1,159c0,0.2,0,0.2-0.2,0.2c-0.1,0-0.1,0-0.2-0.2l-2.5-5.9c0-0.1,0-0.1-0.1-0.2l-1.3,5.3
			c0,0.1,0,0.2,0,0.2c0,0.2,0.1,0.4,0.7,0.4c0.1,0,0.2,0,0.2,0.1c0,0.2-0.1,0.2-0.2,0.2c-0.3,0-0.7,0-1,0c-0.3,0-0.7,0-1,0
			c-0.1,0-0.1,0-0.1-0.1c0-0.2,0.1-0.2,0.2-0.2c0.8,0,1-0.3,1.1-0.7l1.3-5.4c0-0.1-0.6-0.1-0.7-0.1c-0.2,0-0.3,0-0.3-0.1
			c0-0.2,0.1-0.2,0.3-0.2h1.3c0.2,0,0.2,0,0.3,0.2l2.2,5.2l1.1-4.4c0,0,0-0.2,0-0.2c0-0.2-0.1-0.4-0.7-0.4c-0.1,0-0.2,0-0.2-0.1
			c0-0.2,0.1-0.2,0.2-0.2c0.3,0,0.7,0,1,0c0.3,0,0.7,0,1,0c0.1,0,0.1,0.1,0.1,0.1c0,0.2-0.1,0.2-0.2,0.2c-0.8,0-1,0.3-1.1,0.7
			L72.1,159z"/>
	</g>
	<g>
		<path class="st2" d="M78.7,156c-0.1,0-0.3,0-0.3-0.2c0-0.2,0.2-0.2,0.3-0.2h6c0.1,0,0.3,0,0.3,0.2c0,0.2-0.2,0.2-0.3,0.2H78.7z
			 M78.7,157.9c-0.1,0-0.3,0-0.3-0.2s0.2-0.2,0.3-0.2h5.9c0.1,0,0.3,0,0.3,0.2s-0.2,0.2-0.3,0.2H78.7z"/>
		<path class="st2" d="M88.7,157.6v-0.3l3.1-4.7c0.1-0.1,0.1-0.1,0.2-0.1c0.2,0,0.2,0.1,0.2,0.3v4.5h1v0.3h-1v0.9
			c0,0.4,0,0.5,0.8,0.5h0.2v0.3c-0.4,0-0.9,0-1.4,0s-0.9,0-1.3,0v-0.3h0.2c0.7,0,0.8-0.1,0.8-0.5v-0.9H88.7z M91.4,153.6l-2.4,3.7
			h2.4V153.6z"/>
	</g>
	<path class="st1" d="M55.7,224.3c0,0,12.6-14.2,21.3-14.2c8.7,0,21.3,14.2,21.3,14.2l0,0 M98.2,224.3c0,0,12.6-14.2,21.3-14.2
		s21.3,14.2,21.3,14.2l0,0"/>
	<g>
		<path class="st2" d="M217.8,242c-0.9,0-1.2-1.1-1.2-2c0-2.3,1.5-5.1,2.9-5.1c1,0,1.2,1.4,1.2,2C220.7,239.2,219.2,242,217.8,242z
			 M217.5,238.6c-0.3,1-0.3,1.6-0.3,2c0,0.9,0.2,1.2,0.5,1.2c0.4,0,0.8-0.5,1.2-1.2c0.4-0.7,0.6-1.6,0.7-2H217.5z M219.7,238.3
			c0.2-1,0.3-1.5,0.3-2c0-0.6-0.1-1.2-0.5-1.2c-0.4,0-0.8,0.6-1.1,1c-0.4,0.7-0.6,1.5-0.8,2.1H219.7z"/>
	</g>
	<g>
		<path class="st2" d="M214.2,260.6c0.4-0.1,0.8-0.5,1.1-0.9c0.7-0.8,1.2-0.9,1.5-0.9c0.4,0,0.7,0.3,0.7,0.6c0,0.4-0.3,0.6-0.5,0.6
			c-0.3,0-0.4-0.2-0.4-0.3c0-0.1,0.1-0.5,0.6-0.5c0,0,0,0,0,0c-0.1-0.1-0.1-0.1-0.2-0.1c0,0,0,0-0.1,0c-0.5,0-0.9,0.4-1.4,1
			c-0.2,0.2-0.5,0.6-0.9,0.7c0.8,0.1,1.5,0.4,1.5,1c0,0.1,0,0.1,0,0.3c0,0.2-0.1,0.4-0.1,0.6c0,0.4,0.1,0.5,0.3,0.5
			c0.4,0,0.7-0.5,0.9-1.2c0-0.1,0-0.2,0.1-0.2c0,0,0.1,0,0.1,0.1c0,0-0.1,0.6-0.4,1c-0.2,0.4-0.5,0.5-0.8,0.5c-0.5,0-0.9-0.4-0.9-1
			c0-0.1,0-0.2,0-0.3c0-0.1,0-0.1,0-0.2c0-0.7-0.8-0.8-1.2-0.8c-0.1,0.3-0.5,2.1-0.6,2.2c-0.1,0.1-0.2,0.2-0.3,0.2
			c-0.1,0-0.3,0-0.3-0.3c0-0.1,0-0.1,0-0.2l1.4-5.7l0-0.2c0-0.1,0-0.2-0.5-0.2c-0.1,0-0.2,0-0.2-0.1c0-0.2,0.1-0.2,0.2-0.2
			c0.3,0,1-0.1,1.2-0.1c0.1,0,0.1,0.1,0.1,0.1L214.2,260.6z"/>
	</g>
	<g>
		<path class="st2" d="M14.8,240.8c-0.4,0.9-1.2,1.2-1.7,1.2c-0.5,0-1.2-0.2-1.6-1c-0.4-0.8-0.4-1.7-0.4-2.4c0-0.8,0-1.6,0.4-2.3
			c0.4-0.9,1.1-1.2,1.7-1.2c0.4,0,1.2,0.2,1.7,1.1c0.3,0.7,0.4,1.5,0.4,2.3C15.2,239.3,15.2,240.1,14.8,240.8z M14.3,240.5
			c0.1-0.6,0.1-1.3,0.1-2.1c0-0.6,0-1.4-0.1-1.9c-0.2-1-0.8-1.2-1.2-1.2c-0.2,0-1,0.1-1.2,1.3c-0.1,0.5-0.1,1.2-0.1,1.8
			c0,0.6,0,1.5,0.1,2.1c0.2,1,0.8,1.2,1.2,1.2C13.6,241.7,14.1,241.4,14.3,240.5z"/>
	</g>
	<g>
		<path class="st2" d="M97.3,239.1c-0.1,0.5-0.1,0.5-0.3,1c-0.1,0.4-0.2,0.6-0.5,0.6c-0.1,0-0.3-0.1-0.3-0.3c0-0.1,0-0.1,0.1-0.2
			c0.4-0.9,1-2.1,1.3-3.3H97c-0.2,0-0.8,0-1.3,0.8c-0.1,0.1-0.1,0.1-0.2,0.1c-0.1,0-0.1-0.1-0.1-0.1c0,0,0.3-0.5,0.6-0.9
			c0.4-0.5,0.8-0.5,1-0.5h3.3c0.2,0,0.4,0,0.4,0.2c0,0.3-0.4,0.3-0.5,0.3h-1.1c-0.1,0.5-0.2,1.1-0.2,1.6c0,0.3,0,0.9,0.3,1.6
			c0.1,0.1,0.1,0.2,0.1,0.2c0,0.2-0.2,0.4-0.4,0.4c-0.1,0-0.3-0.1-0.4-0.5c-0.1-0.3-0.1-0.6-0.1-0.8c0-0.7,0.1-1.1,0.4-2.6h-1.1
			L97.3,239.1z"/>
	</g>
	<g>
		<path class="st2" d="M180.8,240.9c0.2,0,0.9,0,0.9-0.1c0.1-0.1,0.2-0.6,0.2-0.9h0.2l-0.3,1.7h-3.7c0-0.2,0-0.3,0.1-0.4l1.9-2.1
			c0.5-0.6,1-1.4,1-2.2c0-0.8-0.4-1.6-1.3-1.6c-0.6,0-1.1,0.4-1.3,1c0,0,0,0,0.1,0c0.3,0,0.5,0.3,0.5,0.5c0,0.4-0.3,0.5-0.5,0.5
			c0,0-0.5,0-0.5-0.6c0-0.9,0.7-1.8,1.9-1.8c1.2,0,2.1,0.8,2.1,1.9c0,1-0.6,1.5-2.2,2.9l-1.1,1H180.8z"/>
	</g>
	<g>
		<path class="st2" d="M184.8,240.2c-0.1,0.5-0.1,0.5-0.3,1c-0.1,0.4-0.2,0.6-0.5,0.6c-0.1,0-0.3-0.1-0.3-0.3c0-0.1,0-0.1,0.1-0.2
			c0.4-0.9,1-2.1,1.3-3.3h-0.6c-0.2,0-0.8,0-1.3,0.8c-0.1,0.1-0.1,0.1-0.2,0.1c-0.1,0-0.1-0.1-0.1-0.1c0,0,0.3-0.5,0.6-0.9
			c0.4-0.5,0.8-0.5,1-0.5h3.3c0.2,0,0.4,0,0.4,0.2c0,0.3-0.4,0.3-0.5,0.3h-1.1c-0.1,0.5-0.2,1.1-0.2,1.6c0,0.3,0,0.9,0.3,1.6
			c0.1,0.1,0.1,0.2,0.1,0.2c0,0.2-0.2,0.4-0.4,0.4c-0.1,0-0.3-0.1-0.4-0.5c-0.1-0.3-0.1-0.6-0.1-0.8c0-0.7,0.1-1.1,0.4-2.6h-1.1
			L184.8,240.2z"/>
	</g>
	<polyline points="203.5,240.7 208,238.5 203.5,236.2 204.6,238.5 	"/>
	<line class="st0" x1="197.4" y1="238.5" x2="204.6" y2="238.5"/>
	<polyline points="203.5,262 208,259.7 203.5,257.5 204.6,259.7 	"/>
	<line class="st0" x1="197.4" y1="259.7" x2="204.6" y2="259.7"/>
	<g>
		<path class="st2" d="M14.8,262c-0.4,0.9-1.2,1.2-1.7,1.2c-0.5,0-1.2-0.2-1.6-1c-0.4-0.8-0.4-1.7-0.4-2.4c0-0.8,0-1.6,0.4-2.3
			c0.4-0.9,1.1-1.2,1.7-1.2c0.4,0,1.2,0.2,1.7,1.1c0.3,0.7,0.4,1.5,0.4,2.3C15.2,260.6,15.2,261.3,14.8,262z M14.3,261.7
			c0.1-0.6,0.1-1.3,0.1-2.1c0-0.6,0-1.4-0.1-1.9c-0.2-1-0.8-1.2-1.2-1.2c-0.2,0-1,0.1-1.2,1.3c-0.1,0.5-0.1,1.2-0.1,1.8
			c0,0.6,0,1.5,0.1,2.1c0.2,1,0.8,1.2,1.2,1.2C13.6,263,14.1,262.7,14.3,261.7z"/>
		<path class="st2" d="M56.1,262.2c0,0.4,0,0.5,0.9,0.5h0.3v0.3c-0.3,0-1.2,0-1.6,0c-0.4,0-1.3,0-1.6,0v-0.3h0.3
			c0.9,0,0.9-0.1,0.9-0.5V257c-0.5,0.3-1.1,0.3-1.3,0.3V257c0.3,0,1.2,0,1.8-0.6c0.2,0,0.2,0,0.2,0.3V262.2z"/>
		<path class="st2" d="M98.7,262.2c0.2,0,0.9,0,0.9-0.1c0.1-0.1,0.2-0.6,0.2-0.9h0.2l-0.3,1.7h-3.7c0-0.2,0-0.3,0.1-0.4l1.9-2.1
			c0.5-0.6,1-1.4,1-2.2c0-0.8-0.4-1.6-1.3-1.6c-0.6,0-1.1,0.4-1.3,1c0,0,0,0,0.1,0c0.3,0,0.5,0.3,0.5,0.5c0,0.4-0.3,0.5-0.5,0.5
			c0,0-0.5,0-0.5-0.6c0-0.9,0.7-1.8,1.9-1.8c1.2,0,2.1,0.8,2.1,1.9c0,1-0.6,1.5-2.2,2.9l-1.1,1H98.7z"/>
		<path class="st2" d="M142.7,261.3c0,1-0.9,1.9-2.1,1.9c-1.1,0-2-0.7-2-1.6c0-0.4,0.3-0.6,0.6-0.6c0.3,0,0.6,0.2,0.6,0.6
			c0,0.4-0.3,0.6-0.7,0.5c0.3,0.6,1.1,0.8,1.5,0.8c0.4,0,1.1-0.3,1.1-1.6c0-1-0.4-1.7-1.2-1.7h-0.4c-0.2,0-0.2,0-0.2-0.1
			c0-0.1,0.1-0.1,0.1-0.1c0.1,0,0.3,0,0.4,0c0.2,0,0.6,0,0.9-0.5c0.3-0.4,0.3-1,0.3-1.1c0-0.9-0.5-1.1-1-1.1c-0.4,0-1,0.1-1.3,0.6
			c0.1,0,0.6,0,0.6,0.5c0,0.3-0.2,0.5-0.5,0.5c-0.3,0-0.5-0.2-0.5-0.5c0-0.8,0.8-1.4,1.8-1.4c1,0,1.8,0.6,1.8,1.4
			c0,0.8-0.6,1.5-1.4,1.8C142.1,259.7,142.7,260.4,142.7,261.3z"/>
	</g>
	<g>
		<path class="st6" d="M98.2,226c-1.1,0-1.9-0.9-1.9-1.9c0-1,0.9-1.9,1.9-1.9c1,0,1.9,0.9,1.9,1.9S99.2,226,98.2,226z"/>
		<path class="st6" d="M140.7,226c-1.1,0-1.9-0.9-1.9-1.9c0-1,0.9-1.9,1.9-1.9c1,0,1.9,0.9,1.9,1.9S141.7,226,140.7,226z"/>
	</g>
	<g>
		<path class="st2" d="M33.3,247.6h-2.9c0-0.2,0-0.2,0.1-0.3l1.7-1.7c0.2-0.3,0.7-0.7,0.7-1.3c0-0.6-0.4-1.1-1.1-1.1
			c-0.3,0-0.8,0.2-1,0.6c0.4,0,0.4,0.2,0.4,0.4c0,0.3-0.2,0.4-0.4,0.4c-0.1,0-0.4,0-0.4-0.4c0-0.6,0.6-1.2,1.5-1.2
			c0.9,0,1.6,0.5,1.6,1.4c0,0.7-0.5,1.1-1,1.5c-0.4,0.3-0.7,0.5-1.4,1.2h1.3c0.1,0,0.6,0,0.7,0c0.1-0.1,0.2-0.5,0.2-0.6h0.2
			L33.3,247.6z"/>
	</g>
	<g>
		<path class="st2" d="M35.7,246.8c-0.2,0.6-0.2,0.9-0.5,0.9c-0.2,0-0.2-0.1-0.2-0.2c0,0,0-0.1,0-0.1c0,0,0.1-0.2,0.1-0.3
			c0.2-0.4,0.6-1.2,0.8-2h-0.4c-0.2,0-0.6,0-0.9,0.5c0,0.1,0,0.1-0.1,0.1c0,0-0.1,0-0.1-0.1c0-0.1,0.3-0.4,0.5-0.6
			c0.3-0.3,0.5-0.4,0.8-0.4h2.6c0.1,0,0.3,0,0.3,0.2c0,0,0,0.1-0.1,0.2c-0.1,0.1-0.1,0.1-0.3,0.1h-0.9c-0.1,0.5-0.1,0.8-0.1,0.9
			c0,0.6,0.1,1,0.3,1.2c0,0.1,0.1,0.1,0.1,0.2c0,0.2-0.2,0.3-0.3,0.3c-0.1,0-0.2,0-0.3-0.4c0-0.2-0.1-0.3-0.1-0.6
			c0-0.6,0.2-1.2,0.3-1.6h-0.8L35.7,246.8z"/>
	</g>
	<polyline points="30,249.3 39,249.3 39,248.8 30,248.8 	"/>
	<g>
		<path class="st2" d="M35.3,253.9v0.6c0,0.2,0,0.3,0.6,0.3H36v0.3c-0.3,0-0.8,0-1.1,0c-0.3,0-0.7,0-1,0v-0.3h0.2
			c0.6,0,0.6-0.1,0.6-0.3v-0.6h-2.1v-0.3l2.3-3.2c0.1-0.1,0.1-0.1,0.2-0.1c0.2,0,0.2,0,0.2,0.2v3.1h0.8v0.3H35.3z M32.9,253.7h1.8
			v-2.6L32.9,253.7z"/>
	</g>
	<line class="st0" x1="13.1" y1="245.5" x2="13.1" y2="252.6"/>
	<polyline points="17.7,246.8 13.1,249.1 17.7,251.4 16.6,249.1 	"/>
	<path class="st0" d="M16.6,249.1h7.2 M55.7,245.5v7.1"/>
	<polyline points="51.1,251.4 55.7,249.1 51.1,246.8 52.3,249.1 	"/>
	<line class="st0" x1="52.3" y1="249.1" x2="45" y2="249.1"/>
</g>
</svg>
