<?xml version="1.0" encoding="utf-8"?>
<!-- Generator: Adobe Illustrator 22.1.0, SVG Export Plug-In . SVG Version: 6.00 Build 0)  -->
<svg version="1.1" id="Layer_1" xmlns="http://www.w3.org/2000/svg" xmlns:xlink="http://www.w3.org/1999/xlink" x="0px" y="0px"
	 viewBox="0 0 265.2 206.8" style="enable-background:new 0 0 265.2 206.8;" xml:space="preserve">
<style type="text/css">
	.st0{fill:none;stroke:#000000;stroke-width:0.8504;stroke-miterlimit:10;}
	.st1{fill:#1D1D1B;}
	.st2{fill:none;stroke:#000000;stroke-width:1.7008;stroke-miterlimit:10;}
	.st3{fill:none;stroke:#000000;stroke-width:1.7008;stroke-linecap:round;stroke-miterlimit:10;stroke-dasharray:0,4.1574;}
	.st4{fill:none;stroke:#000000;stroke-width:1.7008;stroke-linecap:round;stroke-miterlimit:10;stroke-dasharray:0,5.3858;}
	.st5{fill:none;stroke:#000000;stroke-width:1.7008;stroke-linecap:round;stroke-miterlimit:10;stroke-dasharray:0,4.4409;}
	.st6{fill:none;stroke:#000000;stroke-width:1.7008;stroke-linecap:round;stroke-miterlimit:10;stroke-dasharray:0,4.8897;}
	.st7{fill:none;stroke:#000000;stroke-width:1.7008;stroke-linecap:round;stroke-miterlimit:10;stroke-dasharray:0,4.5354;}
	.st8{fill:none;stroke:#000000;stroke-width:1.7008;stroke-linecap:round;stroke-miterlimit:10;stroke-dasharray:0,4.8189;}
	.st9{fill:none;stroke:#000000;stroke-width:1.7008;stroke-linecap:round;stroke-miterlimit:10;stroke-dasharray:0,4.355;}
</style>
<g>
	<polyline points="120.6,84.8 125.5,86.1 123.6,81.4 123,83.8 	"/>
	<line class="st0" x1="107.8" y1="70.2" x2="123" y2="83.8"/>
	<polyline points="126.8,108.2 129,112.7 131.3,108.2 129,109.3 	"/>
	<line class="st0" x1="129" y1="95" x2="129" y2="109.3"/>
	<g>
		<path class="st1" d="M142.8,94.6c0,0.2,0,0.2-0.2,0.2c-0.1,0-0.1,0-0.2-0.2l-2.5-5.9c0-0.1,0-0.1-0.1-0.2l-1.3,5.3
			c0,0.1,0,0.2,0,0.2c0,0.2,0.1,0.4,0.7,0.4c0.1,0,0.2,0,0.2,0.1c0,0.2-0.1,0.2-0.2,0.2c-0.3,0-0.7,0-1,0c-0.3,0-0.7,0-1,0
			c-0.1,0-0.1,0-0.1-0.1c0-0.2,0.1-0.2,0.2-0.2c0.8,0,1-0.3,1.1-0.7l1.3-5.4c0-0.1-0.6-0.1-0.7-0.1c-0.2,0-0.3,0-0.3-0.1
			c0-0.2,0.1-0.2,0.3-0.2h1.3c0.2,0,0.2,0,0.3,0.2l2.2,5.2l1.1-4.4c0,0,0-0.2,0-0.2c0-0.2-0.1-0.4-0.7-0.4c-0.1,0-0.2,0-0.2-0.1
			c0-0.2,0.1-0.2,0.2-0.2c0.3,0,0.7,0,1,0c0.3,0,0.7,0,1,0c0.1,0,0.1,0.1,0.1,0.1c0,0.2-0.1,0.2-0.2,0.2c-0.8,0-1,0.3-1.1,0.7
			L142.8,94.6z"/>
	</g>
	<g>
		<path class="st1" d="M149.3,91.5c-0.1,0-0.3,0-0.3-0.2s0.2-0.2,0.3-0.2h6c0.1,0,0.3,0,0.3,0.2s-0.2,0.2-0.3,0.2H149.3z
			 M149.3,93.5c-0.1,0-0.3,0-0.3-0.2s0.2-0.2,0.3-0.2h5.9c0.1,0,0.3,0,0.3,0.2s-0.2,0.2-0.3,0.2H149.3z"/>
		<path class="st1" d="M159.2,93.2v-0.3l3.1-4.7c0.1-0.1,0.1-0.1,0.2-0.1c0.2,0,0.2,0.1,0.2,0.3v4.5h1v0.3h-1V94
			c0,0.4,0,0.5,0.8,0.5h0.2v0.3c-0.4,0-0.9,0-1.4,0c-0.4,0-0.9,0-1.3,0v-0.3h0.2c0.7,0,0.8-0.1,0.8-0.5v-0.9H159.2z M161.9,89.1
			l-2.4,3.7h2.4V89.1z"/>
	</g>
	<path d="M128.9,90.4c0,0,0.1-0.1,0.1-0.1c0,0,0.4,0.4,0.5,0.5c0.3,0.3,0.6,0.6,0.9,0.9c0,0,0.1,0,0.1,0c0.1,0,0.1-0.1,0.1-0.1
		c0,0-0.3-0.6-0.6-1.1l-0.4-0.7l1.7-0.8c0.1-0.1,0.1-0.1,0.1-0.1c0,0,0-0.1-0.1-0.1c0,0-0.5,0.1-2,0.4l-0.2-1.9c0-0.2,0-0.2-0.1-0.2
		c-0.1,0-0.1,0-0.1,0.2l-0.2,1.9l-1.8-0.4c0,0-0.1,0-0.1,0c-0.1,0-0.1,0-0.1,0.1c0,0.1,0,0.1,0.2,0.1l1.7,0.8l-0.9,1.7
		c-0.1,0.1-0.1,0.1-0.1,0.2c0,0,0,0.1,0.1,0.1c0,0,0,0,0.1-0.1L128.9,90.4z"/>
	<path class="st0" d="M134,89.7L134,89.7c0-2.8-2.2-5-5-5s-5,2.2-5,5c0,2.8,2.2,5,5,5S134,92.4,134,89.7L134,89.7z"/>
	<polyline points="134.4,81.4 132.6,86.1 137.5,84.8 135.1,83.8 	"/>
	<line class="st0" x1="150.3" y1="70.2" x2="135.1" y2="83.8"/>
	<g>
		<path class="st1" d="M49.1,69.5c0,0.2,0,0.2-0.2,0.2c-0.1,0-0.1,0-0.2-0.2l-2.5-5.9c0-0.1,0-0.1-0.1-0.2l-1.3,5.3
			c0,0.1,0,0.2,0,0.2c0,0.2,0.1,0.4,0.7,0.4c0.1,0,0.2,0,0.2,0.1c0,0.2-0.1,0.2-0.2,0.2c-0.3,0-0.7,0-1,0c-0.3,0-0.7,0-1,0
			c-0.1,0-0.1,0-0.1-0.1c0-0.2,0.1-0.2,0.2-0.2c0.8,0,1-0.3,1.1-0.7l1.3-5.4c0-0.1-0.6-0.1-0.7-0.1c-0.2,0-0.3,0-0.3-0.1
			c0-0.2,0.1-0.2,0.3-0.2h1.3c0.2,0,0.2,0,0.3,0.2l2.2,5.2l1.1-4.4c0,0,0-0.2,0-0.2c0-0.2-0.1-0.4-0.7-0.4c-0.1,0-0.2,0-0.2-0.1
			c0-0.2,0.1-0.2,0.2-0.2c0.3,0,0.7,0,1,0c0.3,0,0.7,0,1,0c0.1,0,0.1,0.1,0.1,0.1c0,0.2-0.1,0.2-0.2,0.2c-0.8,0-1,0.3-1.1,0.7
			L49.1,69.5z"/>
	</g>
	<g>
		<path class="st1" d="M55.7,66.4c-0.1,0-0.3,0-0.3-0.2s0.2-0.2,0.3-0.2h6c0.1,0,0.3,0,0.3,0.2s-0.2,0.2-0.3,0.2H55.7z M55.7,68.4
			c-0.1,0-0.3,0-0.3-0.2s0.2-0.2,0.3-0.2h5.9c0.1,0,0.3,0,0.3,0.2s-0.2,0.2-0.3,0.2H55.7z"/>
		<path class="st1" d="M65.6,68.1v-0.3l3.1-4.7c0.1-0.1,0.1-0.1,0.2-0.1C69,63,69,63,69,63.2v4.5h1v0.3h-1v0.9c0,0.4,0,0.5,0.8,0.5
			H70v0.3c-0.4,0-0.9,0-1.4,0s-0.9,0-1.3,0v-0.3h0.2c0.7,0,0.8-0.1,0.8-0.5v-0.9H65.6z M68.3,64l-2.4,3.7h2.4V64z"/>
	</g>
	<polyline points="32.9,64.1 28.3,66.3 32.9,68.6 31.7,66.3 	"/>
	<line class="st0" x1="39" y1="66.3" x2="31.7" y2="66.3"/>
	<polyline points="80.5,68.6 85,66.3 80.5,64.1 81.6,66.3 	"/>
	<line class="st0" x1="74.4" y1="66.3" x2="81.6" y2="66.3"/>
	<g>
		<path class="st1" d="M190.9,69.5c0,0.2,0,0.2-0.2,0.2c-0.1,0-0.1,0-0.2-0.2l-2.5-5.9c0-0.1,0-0.1-0.1-0.2l-1.3,5.3
			c0,0.1,0,0.2,0,0.2c0,0.2,0.1,0.4,0.7,0.4c0.1,0,0.2,0,0.2,0.1c0,0.2-0.1,0.2-0.2,0.2c-0.3,0-0.7,0-1,0c-0.3,0-0.7,0-1,0
			c-0.1,0-0.1,0-0.1-0.1c0-0.2,0.1-0.2,0.2-0.2c0.8,0,1-0.3,1.1-0.7l1.3-5.4c0-0.1-0.6-0.1-0.7-0.1c-0.2,0-0.3,0-0.3-0.1
			c0-0.2,0.1-0.2,0.3-0.2h1.3c0.2,0,0.2,0,0.3,0.2l2.2,5.2l1.1-4.4c0,0,0-0.2,0-0.2c0-0.2-0.1-0.4-0.7-0.4c-0.1,0-0.2,0-0.2-0.1
			c0-0.2,0.1-0.2,0.2-0.2c0.3,0,0.7,0,1,0c0.3,0,0.7,0,1,0c0.1,0,0.1,0.1,0.1,0.1c0,0.2-0.1,0.2-0.2,0.2c-0.8,0-1,0.3-1.1,0.7
			L190.9,69.5z"/>
	</g>
	<g>
		<path class="st1" d="M197.4,66.4c-0.1,0-0.3,0-0.3-0.2s0.2-0.2,0.3-0.2h6c0.1,0,0.3,0,0.3,0.2s-0.2,0.2-0.3,0.2H197.4z
			 M197.4,68.4c-0.1,0-0.3,0-0.3-0.2s0.2-0.2,0.3-0.2h5.9c0.1,0,0.3,0,0.3,0.2s-0.2,0.2-0.3,0.2H197.4z"/>
		<path class="st1" d="M207.3,68.1v-0.3l3.1-4.7c0.1-0.1,0.1-0.1,0.2-0.1c0.2,0,0.2,0.1,0.2,0.3v4.5h1v0.3h-1v0.9
			c0,0.4,0,0.5,0.8,0.5h0.2v0.3c-0.4,0-0.9,0-1.4,0c-0.4,0-0.9,0-1.3,0v-0.3h0.2c0.7,0,0.8-0.1,0.8-0.5v-0.9H207.3z M210.1,64
			l-2.4,3.7h2.4V64z"/>
	</g>
	<polyline points="174.6,64.1 170.1,66.3 174.6,68.6 173.5,66.3 	"/>
	<line class="st0" x1="180.7" y1="66.3" x2="173.5" y2="66.3"/>
	<polyline points="222.2,68.6 226.8,66.3 222.2,64.1 223.4,66.3 	"/>
	<line class="st0" x1="216.1" y1="66.3" x2="223.4" y2="66.3"/>
	<polyline points="108.8,50.9 113.4,48.6 108.8,46.4 110,48.6 	"/>
	<line class="st0" x1="0" y1="48.6" x2="110" y2="48.6"/>
	<polyline points="37.7,10.6 35.4,6.1 33.2,10.6 35.4,9.5 	"/>
	<line class="st0" x1="35.4" y1="52.2" x2="35.4" y2="9.5"/>
	<g>
		<path class="st1" d="M118.9,47.9c0.1-0.5,0.2-0.6,0.2-0.8c0-0.3-0.1-0.5-0.3-0.5c-0.4,0-0.6,0.5-0.7,1.2C118,48,118,48,117.9,48
			c0,0-0.1,0-0.1-0.1c0,0,0.1-0.6,0.3-1c0.1-0.2,0.3-0.6,0.7-0.6c0.5,0,0.9,0.3,0.9,0.9c0.2-0.2,0.7-0.9,1.6-0.9
			c0.7,0,1.1,0.4,1.1,1.1c0,0.6-0.4,1.7-0.6,2.2c-0.1,0.2-0.2,0.5-0.2,0.7c0,0.2,0.1,0.3,0.2,0.3c0.5,0,0.8-0.6,1-1.2
			c0-0.1,0-0.2,0.1-0.2c0,0,0.1,0,0.1,0.1c0,0.1-0.4,1.5-1.3,1.5c-0.5,0-0.8-0.3-0.8-0.8c0-0.1,0-0.2,0.1-0.5
			c0.2-0.4,0.6-1.7,0.6-2.3c0-0.3-0.1-0.7-0.5-0.7c-0.9,0-1.5,0.9-1.6,1.2c0,0-0.1,0.3-0.1,0.5c0,0.2-0.1,0.4-0.2,0.7l-0.2,0.9
			c-0.1,0.2-0.2,0.7-0.2,0.7c-0.1,0.2-0.2,0.3-0.4,0.3c-0.1,0-0.3-0.1-0.3-0.3c0-0.1,0.1-0.3,0.1-0.4L118.9,47.9z"/>
	</g>
	<g>
		<path class="st1" d="M37.1,58c-0.4,0.9-1.2,1.2-1.7,1.2c-0.5,0-1.2-0.2-1.6-1c-0.4-0.8-0.4-1.7-0.4-2.4c0-0.8,0-1.6,0.4-2.3
			c0.4-0.9,1.1-1.2,1.7-1.2c0.4,0,1.2,0.2,1.7,1.1c0.3,0.7,0.4,1.5,0.4,2.3C37.5,56.5,37.4,57.3,37.1,58z M36.6,57.7
			c0.1-0.6,0.1-1.3,0.1-2.1c0-0.6,0-1.4-0.1-1.9c-0.2-1-0.8-1.2-1.2-1.2c-0.2,0-1,0.1-1.2,1.3c-0.1,0.5-0.1,1.2-0.1,1.8
			c0,0.6,0,1.5,0.1,2.1c0.2,1,0.8,1.2,1.2,1.2C35.8,58.9,36.4,58.6,36.6,57.7z"/>
		<path class="st1" d="M50,58.2c0,0.4,0,0.5,0.9,0.5h0.3v0.3c-0.3,0-1.2,0-1.6,0c-0.4,0-1.3,0-1.6,0v-0.3h0.3c0.9,0,0.9-0.1,0.9-0.5
			V53c-0.5,0.3-1.1,0.3-1.3,0.3v-0.3c0.3,0,1.2,0,1.8-0.6c0.2,0,0.2,0,0.2,0.3V58.2z"/>
		<path class="st1" d="M64.3,58.2c0.2,0,0.9,0,0.9-0.1c0.1-0.1,0.2-0.6,0.2-0.9h0.2l-0.3,1.7h-3.7c0-0.2,0-0.3,0.1-0.4l1.9-2.1
			c0.5-0.6,1-1.4,1-2.2c0-0.8-0.4-1.6-1.3-1.6c-0.6,0-1.1,0.4-1.3,1c0,0,0,0,0.1,0c0.3,0,0.5,0.3,0.5,0.5c0,0.4-0.3,0.5-0.5,0.5
			c0,0-0.5,0-0.5-0.6c0-0.9,0.7-1.8,1.9-1.8c1.2,0,2.1,0.8,2.1,1.9c0,1-0.6,1.5-2.2,2.9l-1.1,1H64.3z"/>
		<path class="st1" d="M80,57.2c0,1-0.9,1.9-2.1,1.9c-1.1,0-2-0.7-2-1.6c0-0.4,0.3-0.6,0.6-0.6c0.3,0,0.6,0.2,0.6,0.6
			c0,0.4-0.3,0.6-0.7,0.5c0.3,0.6,1.1,0.8,1.5,0.8c0.4,0,1.1-0.3,1.1-1.6c0-1-0.4-1.7-1.2-1.7h-0.4c-0.2,0-0.2,0-0.2-0.1
			c0-0.1,0.1-0.1,0.1-0.1c0.1,0,0.3,0,0.4,0c0.2,0,0.6,0,0.9-0.5c0.3-0.4,0.3-1,0.3-1.1c0-0.9-0.5-1.1-1-1.1c-0.4,0-1,0.1-1.3,0.6
			c0.1,0,0.6,0,0.6,0.5c0,0.3-0.2,0.5-0.5,0.5c-0.3,0-0.5-0.2-0.5-0.5c0-0.8,0.8-1.4,1.8-1.4c1,0,1.8,0.6,1.8,1.4
			c0,0.8-0.6,1.5-1.4,1.8C79.4,55.6,80,56.4,80,57.2z"/>
	</g>
	<g>
		<path class="st1" d="M28.8,22.7c0,0.4,0,0.5,0.9,0.5H30v0.3c-0.3,0-1.2,0-1.6,0c-0.4,0-1.3,0-1.6,0v-0.3h0.3
			c0.9,0,0.9-0.1,0.9-0.5v-5.2c-0.5,0.3-1.1,0.3-1.3,0.3v-0.3c0.3,0,1.2,0,1.8-0.6c0.2,0,0.2,0,0.2,0.3V22.7z"/>
	</g>
	<g>
		<path class="st1" d="M47.7,4.7C48.1,4.3,48.6,4,49.2,4C50,4,50.4,4.4,50.4,5c0,0.6-0.4,1.8-0.6,2.2c-0.1,0.2-0.2,0.5-0.2,0.7
			c0,0.2,0.1,0.3,0.2,0.3c0.5,0,0.9-0.7,1-1.2c0-0.1,0-0.2,0.1-0.2c0,0,0.1,0,0.1,0.1c0,0.1-0.4,1.5-1.3,1.5c-0.5,0-0.8-0.3-0.8-0.8
			c0-0.2,0-0.3,0.1-0.5c0.2-0.6,0.6-1.7,0.6-2.2c0-0.4-0.1-0.7-0.5-0.7c-0.4,0-0.7,0.2-1,0.3c-0.3,0.3-0.6,0.8-0.7,0.9
			c0,0.1-0.1,0.4-0.1,0.4c0,0.2-0.1,0.4-0.2,0.7l-0.2,0.9l-0.2,0.8c0,0.1-0.2,0.3-0.4,0.3c-0.1,0-0.3,0-0.3-0.3c0-0.1,0-0.1,0-0.2
			l1.4-5.7l0-0.2c0-0.1,0-0.2-0.5-0.2c-0.1,0-0.2,0-0.2-0.1c0-0.2,0.1-0.2,0.2-0.2c0.3,0,1-0.1,1.2-0.1c0.1,0,0.1,0.1,0.1,0.1
			L47.7,4.7z"/>
	</g>
	<g>
		<path class="st1" d="M52.7,7.5c0,0,0-0.1,0-0.2c0-0.2,0-0.3-0.2-0.3c-0.3,0-0.4,0.3-0.5,0.8c0,0.2-0.1,0.2-0.2,0.2
			c0,0-0.1,0-0.1-0.1c0,0,0.1-0.5,0.3-0.7c0.1-0.2,0.3-0.4,0.6-0.4c0.2,0,0.6,0.1,0.7,0.5c0.2-0.2,0.6-0.5,1-0.5c0.5,0,1,0.3,1,1.2
			c0,1-0.9,2-1.8,2c-0.4,0-0.6-0.3-0.7-0.4c-0.1,0.3-0.2,0.7-0.3,1c0,0.1-0.1,0.3-0.1,0.3c0,0.1,0.2,0.1,0.3,0.1
			c0.1,0,0.2,0,0.2,0.1c0,0.1-0.1,0.2-0.1,0.2c-0.2,0-0.5,0-0.7,0c-0.2,0-0.4,0-0.6,0c0,0-0.1,0-0.1-0.1c0-0.1,0.1-0.1,0.2-0.1
			c0.3,0,0.3-0.1,0.3-0.3L52.7,7.5z M52.9,9c0,0,0,0.1,0,0.1c0,0.1,0.1,0.6,0.6,0.6c0.4,0,0.7-0.3,0.9-0.7c0.2-0.4,0.4-1.1,0.4-1.4
			c0-0.5-0.2-0.7-0.5-0.7c-0.2,0-0.6,0.1-1,0.6L52.9,9z"/>
	</g>
	<g>
		<path class="st1" d="M57.3,10.9v-10h1.4v0.4h-1v9.2h1v0.4H57.3z"/>
	</g>
	<g>
		<path class="st1" d="M60.3,5.5c0.1-0.5,0.2-0.6,0.2-0.8c0-0.3-0.1-0.5-0.3-0.5c-0.4,0-0.6,0.5-0.7,1.2c-0.1,0.2-0.1,0.2-0.2,0.2
			c0,0-0.1,0-0.1-0.1c0,0,0.1-0.6,0.3-1C59.5,4.4,59.7,4,60.2,4c0.5,0,0.9,0.3,0.9,0.9C61.3,4.6,61.8,4,62.7,4
			c0.7,0,1.1,0.4,1.1,1.1c0,0.6-0.4,1.7-0.6,2.2C63.1,7.5,63,7.7,63,7.9c0,0.2,0.1,0.3,0.2,0.3c0.5,0,0.8-0.6,1-1.2
			c0-0.1,0-0.2,0.1-0.2c0,0,0.1,0,0.1,0.1c0,0.1-0.4,1.5-1.3,1.5c-0.5,0-0.8-0.3-0.8-0.8c0-0.1,0-0.2,0.1-0.5
			c0.2-0.4,0.6-1.7,0.6-2.3c0-0.3-0.1-0.7-0.5-0.7c-0.9,0-1.5,0.9-1.6,1.2c0,0-0.1,0.3-0.1,0.5c0,0.2-0.1,0.4-0.2,0.7l-0.2,0.9
			c-0.1,0.2-0.2,0.7-0.2,0.7c-0.1,0.2-0.2,0.3-0.4,0.3c-0.1,0-0.3-0.1-0.3-0.3c0-0.1,0.1-0.3,0.1-0.4L60.3,5.5z"/>
	</g>
	<g>
		<path class="st1" d="M66.4,10.9h-1.4v-0.4h1V1.3h-1V0.9h1.4V10.9z"/>
	</g>
	<line class="st0" x1="31.9" y1="20.3" x2="39" y2="20.3"/>
	<g>
		<path class="st1" d="M89.9,57.3V57l3.1-4.7c0.1-0.1,0.1-0.1,0.2-0.1c0.2,0,0.2,0.1,0.2,0.3V57h1v0.3h-1v0.9c0,0.4,0,0.5,0.8,0.5
			h0.2v0.3c-0.4,0-0.9,0-1.4,0s-0.9,0-1.3,0v-0.3h0.2c0.7,0,0.8-0.1,0.8-0.5v-0.9H89.9z M92.6,53.3L90.2,57h2.4V53.3z"/>
		<path class="st1" d="M106.1,59.2c-1.1,0-1.8-1-1.8-1.8c0-0.5,0.3-0.5,0.5-0.5c0.3,0,0.5,0.2,0.5,0.5s-0.2,0.5-0.5,0.5
			c-0.1,0-0.1,0-0.2,0c0.2,0.6,0.7,1.1,1.5,1.1c0.5,0,0.8-0.3,1.1-0.6c0.2-0.4,0.2-1,0.2-1.4c0-0.5,0-0.9-0.2-1.3
			c-0.1-0.2-0.3-0.6-0.8-0.6c-0.8,0-1.2,0.5-1.3,0.7c0,0.1-0.1,0.1-0.1,0.1c-0.1,0-0.1-0.1-0.1-0.3v-2.9c0-0.2,0-0.2,0.1-0.2
			c0,0,0,0,0.1,0c0.5,0.2,0.9,0.3,1.3,0.3c0.7,0,1.2-0.2,1.4-0.3c0,0,0.1,0,0.1,0c0.1,0,0.1,0,0.1,0.1c0,0.1-0.7,1-1.9,1
			c-0.3,0-0.6-0.1-0.8-0.1v1.9c0.4-0.3,0.8-0.5,1.3-0.5c1.1,0,1.9,1,1.9,2.2C108.3,58.2,107.2,59.2,106.1,59.2z"/>
	</g>
	<g>
		<path class="st1" d="M17.2,57.1v-0.6h2.6v0.6H17.2z"/>
		<path class="st1" d="M23.4,58.2c0,0.4,0,0.5,0.9,0.5h0.3v0.3c-0.3,0-1.2,0-1.6,0c-0.4,0-1.3,0-1.6,0v-0.3h0.3
			c0.9,0,0.9-0.1,0.9-0.5V53c-0.5,0.3-1.1,0.3-1.3,0.3v-0.3c0.3,0,1.2,0,1.8-0.6c0.2,0,0.2,0,0.2,0.3V58.2z"/>
	</g>
	<g>
		<path class="st1" d="M3,57.1v-0.6h2.6v0.6H3z"/>
		<path class="st1" d="M9.3,58.2c0.2,0,0.9,0,0.9-0.1c0.1-0.1,0.2-0.6,0.2-0.9h0.2l-0.3,1.7H6.7c0-0.2,0-0.3,0.1-0.4l1.9-2.1
			c0.5-0.6,1-1.4,1-2.2c0-0.8-0.4-1.6-1.3-1.6c-0.6,0-1.1,0.4-1.3,1c0,0,0,0,0.1,0c0.3,0,0.5,0.3,0.5,0.5c0,0.4-0.3,0.5-0.5,0.5
			c0,0-0.5,0-0.5-0.6c0-0.9,0.7-1.8,1.9-1.8c1.2,0,2.1,0.8,2.1,1.9c0,1-0.6,1.5-2.2,2.9l-1.1,1H9.3z"/>
	</g>
	<line class="st0" x1="31.9" y1="34.4" x2="39" y2="34.4"/>
	<g>
		<path class="st1" d="M63.8,36c-1.1,0-1.9-0.9-1.9-1.9c0-1,0.9-1.9,1.9-1.9c1,0,1.9,0.9,1.9,1.9C65.7,35.2,64.8,36,63.8,36z"/>
	</g>
	<line class="st2" x1="63.8" y1="48.6" x2="63.8" y2="34.4"/>
	<g>
		<path class="st1" d="M35.4,21.9c-1.1,0-1.9-0.9-1.9-1.9c0-1,0.9-1.9,1.9-1.9c1,0,1.9,0.9,1.9,1.9C37.3,21,36.5,21.9,35.4,21.9z"/>
	</g>
	<line class="st2" x1="35.4" y1="48.6" x2="35.4" y2="20.3"/>
	<g>
		<path class="st1" d="M49.6,29c-1.1,0-1.9-0.9-1.9-1.9c0-1,0.9-1.9,1.9-1.9c1,0,1.9,0.9,1.9,1.9C51.5,28.1,50.6,29,49.6,29z"/>
	</g>
	<line class="st2" x1="49.6" y1="48.6" x2="49.6" y2="27.4"/>
	<g>
		<path class="st1" d="M77.9,43.1c-1.1,0-1.9-0.9-1.9-1.9c0-1,0.9-1.9,1.9-1.9c1,0,1.9,0.9,1.9,1.9C79.9,42.3,79,43.1,77.9,43.1z"/>
	</g>
	<line class="st2" x1="78" y1="48.6" x2="78" y2="41.5"/>
	<g>
		<path class="st1" d="M7.1,36c-1.1,0-1.9-0.9-1.9-1.9c0-1,0.9-1.9,1.9-1.9c1,0,1.9,0.9,1.9,1.9C9,35.2,8.1,36,7.1,36z"/>
	</g>
	<line class="st3" x1="7.1" y1="48.6" x2="7.1" y2="34.4"/>
	<g>
		<path class="st1" d="M21.2,43.1c-1.1,0-1.9-0.9-1.9-1.9c0-1,0.9-1.9,1.9-1.9c1,0,1.9,0.9,1.9,1.9C23.2,42.3,22.3,43.1,21.2,43.1z"
			/>
	</g>
	<line class="st4" x1="21.3" y1="48.6" x2="21.3" y2="41.5"/>
	<g>
		<path class="st1" d="M92.1,21.9c-1.1,0-1.9-0.9-1.9-1.9c0-1,0.9-1.9,1.9-1.9c1,0,1.9,0.9,1.9,1.9C94,21,93.1,21.9,92.1,21.9z"/>
	</g>
	<line class="st5" x1="92.1" y1="48.6" x2="92.1" y2="20.3"/>
	<g>
		<path class="st1" d="M106.3,29c-1.1,0-1.9-0.9-1.9-1.9c0-1,0.9-1.9,1.9-1.9c1,0,1.9,0.9,1.9,1.9C108.2,28.1,107.3,29,106.3,29z"/>
	</g>
	<line class="st6" x1="106.3" y1="48.6" x2="106.3" y2="27.4"/>
	<polyline points="250.6,50.9 255.1,48.6 250.6,46.4 251.7,48.6 	"/>
	<line class="st0" x1="141.7" y1="48.6" x2="251.7" y2="48.6"/>
	<polyline points="179.4,10.6 177.2,6.1 174.9,10.6 177.2,9.5 	"/>
	<line class="st0" x1="177.2" y1="52.2" x2="177.2" y2="9.5"/>
	<g>
		<path class="st1" d="M260.7,47.9c0.1-0.5,0.2-0.6,0.2-0.8c0-0.3-0.1-0.5-0.3-0.5c-0.4,0-0.6,0.5-0.7,1.2c-0.1,0.2-0.1,0.2-0.2,0.2
			c0,0-0.1,0-0.1-0.1c0,0,0.1-0.6,0.3-1c0.1-0.2,0.3-0.6,0.7-0.6c0.5,0,0.9,0.3,0.9,0.9c0.2-0.2,0.7-0.9,1.6-0.9
			c0.7,0,1.1,0.4,1.1,1.1c0,0.6-0.4,1.7-0.6,2.2c-0.1,0.2-0.2,0.5-0.2,0.7c0,0.2,0.1,0.3,0.2,0.3c0.5,0,0.8-0.6,1-1.2
			c0.1-0.1,0.1-0.2,0.2-0.2c0,0,0.1,0,0.1,0.1c0,0.1-0.4,1.5-1.3,1.5c-0.5,0-0.8-0.3-0.8-0.8c0-0.1,0-0.2,0.1-0.5
			c0.2-0.4,0.6-1.7,0.6-2.3c0-0.3-0.1-0.7-0.5-0.7c-0.9,0-1.5,0.9-1.6,1.2c0,0-0.1,0.3-0.1,0.5c0,0.2-0.1,0.4-0.2,0.7l-0.2,0.9
			c-0.1,0.2-0.2,0.7-0.2,0.7c-0.1,0.2-0.2,0.3-0.4,0.3c-0.1,0-0.3-0.1-0.3-0.3c0-0.1,0.1-0.3,0.1-0.4L260.7,47.9z"/>
	</g>
	<g>
		<path class="st1" d="M178.9,58c-0.4,0.9-1.2,1.2-1.7,1.2c-0.5,0-1.2-0.2-1.6-1c-0.4-0.8-0.4-1.7-0.4-2.4c0-0.8,0-1.6,0.4-2.3
			c0.4-0.9,1.1-1.2,1.7-1.2c0.4,0,1.2,0.2,1.7,1.1c0.3,0.7,0.4,1.5,0.4,2.3C179.2,56.5,179.2,57.3,178.9,58z M178.3,57.7
			c0.1-0.6,0.1-1.3,0.1-2.1c0-0.6,0-1.4-0.1-1.9c-0.2-1-0.8-1.2-1.2-1.2c-0.2,0-1,0.1-1.2,1.3c-0.1,0.5-0.1,1.2-0.1,1.8
			c0,0.6,0,1.5,0.1,2.1c0.2,1,0.8,1.2,1.2,1.2C177.6,58.9,178.1,58.6,178.3,57.7z"/>
		<path class="st1" d="M191.8,58.2c0,0.4,0,0.5,0.9,0.5h0.3v0.3c-0.3,0-1.2,0-1.6,0s-1.3,0-1.6,0v-0.3h0.3c0.9,0,0.9-0.1,0.9-0.5V53
			c-0.5,0.3-1.1,0.3-1.3,0.3v-0.3c0.3,0,1.2,0,1.8-0.6c0.2,0,0.2,0,0.2,0.3V58.2z"/>
		<path class="st1" d="M206.1,58.2c0.2,0,0.9,0,0.9-0.1c0.1-0.1,0.2-0.6,0.2-0.9h0.2l-0.3,1.7h-3.7c0-0.2,0-0.3,0.1-0.4l1.9-2.1
			c0.5-0.6,1-1.4,1-2.2c0-0.8-0.4-1.6-1.3-1.6c-0.6,0-1.1,0.4-1.3,1c0,0,0,0,0.1,0c0.3,0,0.5,0.3,0.5,0.5c0,0.4-0.3,0.5-0.5,0.5
			c0,0-0.5,0-0.5-0.6c0-0.9,0.7-1.8,1.9-1.8c1.2,0,2.1,0.8,2.1,1.9c0,1-0.6,1.5-2.2,2.9l-1.1,1H206.1z"/>
		<path class="st1" d="M221.7,57.2c0,1-0.9,1.9-2.1,1.9c-1.1,0-2-0.7-2-1.6c0-0.4,0.3-0.6,0.6-0.6c0.3,0,0.6,0.2,0.6,0.6
			c0,0.4-0.3,0.6-0.7,0.5c0.3,0.6,1.1,0.8,1.5,0.8c0.4,0,1.1-0.3,1.1-1.6c0-1-0.4-1.7-1.2-1.7h-0.4c-0.2,0-0.2,0-0.2-0.1
			c0-0.1,0.1-0.1,0.1-0.1c0.1,0,0.3,0,0.4,0c0.2,0,0.6,0,0.9-0.5c0.3-0.4,0.3-1,0.3-1.1c0-0.9-0.5-1.1-1-1.1c-0.4,0-1,0.1-1.3,0.6
			c0.1,0,0.6,0,0.6,0.5c0,0.3-0.2,0.5-0.5,0.5c-0.3,0-0.5-0.2-0.5-0.5c0-0.8,0.8-1.4,1.8-1.4c1,0,1.8,0.6,1.8,1.4
			c0,0.8-0.6,1.5-1.4,1.8C221.1,55.6,221.7,56.4,221.7,57.2z"/>
	</g>
	<g>
		<path class="st1" d="M170.5,22.7c0,0.4,0,0.5,0.9,0.5h0.3v0.3c-0.3,0-1.2,0-1.6,0s-1.3,0-1.6,0v-0.3h0.3c0.9,0,0.9-0.1,0.9-0.5
			v-5.2c-0.5,0.3-1.1,0.3-1.3,0.3v-0.3c0.3,0,1.2,0,1.8-0.6c0.2,0,0.2,0,0.2,0.3V22.7z"/>
	</g>
	<g>
		<path class="st1" d="M190.5,6.7c-0.1,0.4-0.2,0.7-0.2,0.9c0,0.3,0.2,0.7,0.5,0.7c0.3,0,1-0.2,1.3-1.3c0-0.1,0-0.1,0.1-0.1
			c0,0,0.1,0,0.1,0.1c0,0.2-0.6,1.5-1.6,1.5c-0.6,0-1-0.4-1.1-0.8c0,0.1-0.4,0.8-1,0.8c-0.4,0-0.9-0.2-0.9-0.7
			c0-0.3,0.2-0.6,0.5-0.6c0.1,0,0.4,0.1,0.4,0.3c0,0.3-0.2,0.5-0.5,0.5c0.2,0.1,0.4,0.1,0.5,0.1c0.4,0,0.8-0.4,0.9-1
			c0.4-1.4,0.5-2.1,0.5-2.4c0-0.6-0.3-0.7-0.5-0.7c-0.3,0-1,0.2-1.3,1.3c0,0.1,0,0.1-0.1,0.1c0,0-0.1,0-0.1-0.1
			c0-0.2,0.6-1.5,1.6-1.5c0.3,0,0.8,0.1,1.1,0.8c0.1-0.2,0.5-0.8,1-0.8c0.3,0,0.9,0.1,0.9,0.7c0,0.4-0.3,0.6-0.5,0.6
			c-0.3,0-0.4-0.2-0.4-0.3c0-0.2,0.2-0.5,0.5-0.5c-0.2-0.1-0.4-0.1-0.5-0.1c-0.7,0-0.9,0.9-1,1.2L190.5,6.7z"/>
	</g>
	<g>
		<path class="st1" d="M194.5,7.5c0,0,0-0.1,0-0.2c0-0.2,0-0.3-0.2-0.3c-0.3,0-0.4,0.3-0.5,0.8c0,0.2-0.1,0.2-0.2,0.2
			c0,0-0.1,0-0.1-0.1c0,0,0.1-0.5,0.3-0.7c0.1-0.2,0.3-0.4,0.6-0.4c0.2,0,0.6,0.1,0.7,0.5c0.2-0.2,0.6-0.5,1-0.5c0.5,0,1,0.3,1,1.2
			c0,1-0.9,2-1.8,2c-0.4,0-0.6-0.3-0.7-0.4c-0.1,0.3-0.2,0.7-0.3,1c0,0.1-0.1,0.3-0.1,0.3c0,0.1,0.2,0.1,0.3,0.1
			c0.1,0,0.2,0,0.2,0.1c0,0.1-0.1,0.2-0.1,0.2c-0.2,0-0.5,0-0.7,0c-0.2,0-0.4,0-0.6,0c0,0-0.1,0-0.1-0.1c0-0.1,0.1-0.1,0.2-0.1
			c0.3,0,0.3-0.1,0.3-0.3L194.5,7.5z M194.6,9c0,0,0,0.1,0,0.1c0,0.1,0.1,0.6,0.6,0.6c0.4,0,0.7-0.3,0.9-0.7
			c0.2-0.4,0.4-1.1,0.4-1.4c0-0.5-0.2-0.7-0.5-0.7c-0.2,0-0.6,0.1-1,0.6L194.6,9z"/>
	</g>
	<g>
		<path class="st1" d="M198.9,10.9v-10h1.4v0.4h-1v9.2h1v0.4H198.9z"/>
	</g>
	<g>
		<path class="st1" d="M201.9,5.5c0.1-0.5,0.2-0.6,0.2-0.8c0-0.3-0.1-0.5-0.3-0.5c-0.4,0-0.6,0.5-0.7,1.2c-0.1,0.2-0.1,0.2-0.2,0.2
			c0,0-0.1,0-0.1-0.1c0,0,0.1-0.6,0.3-1c0.1-0.2,0.3-0.6,0.7-0.6c0.5,0,0.9,0.3,0.9,0.9c0.2-0.2,0.7-0.9,1.6-0.9
			c0.7,0,1.1,0.4,1.1,1.1c0,0.6-0.4,1.7-0.6,2.2c-0.1,0.2-0.2,0.5-0.2,0.7c0,0.2,0.1,0.3,0.2,0.3c0.5,0,0.8-0.6,1-1.2
			c0.1-0.1,0.1-0.2,0.2-0.2c0,0,0.1,0,0.1,0.1c0,0.1-0.4,1.5-1.3,1.5c-0.5,0-0.8-0.3-0.8-0.8c0-0.1,0-0.2,0.1-0.5
			c0.2-0.4,0.6-1.7,0.6-2.3c0-0.3-0.1-0.7-0.5-0.7c-0.9,0-1.5,0.9-1.6,1.2c0,0-0.1,0.3-0.1,0.5c0,0.2-0.1,0.4-0.2,0.7l-0.2,0.9
			c-0.1,0.2-0.2,0.7-0.2,0.7c-0.1,0.2-0.2,0.3-0.4,0.3c-0.1,0-0.3-0.1-0.3-0.3c0-0.1,0.1-0.3,0.1-0.4L201.9,5.5z"/>
	</g>
	<g>
		<path class="st1" d="M208,10.9h-1.4v-0.4h1V1.3h-1V0.9h1.4V10.9z"/>
	</g>
	<line class="st0" x1="173.6" y1="20.3" x2="180.7" y2="20.3"/>
	<g>
		<path class="st1" d="M219.7,36c-1.1,0-1.9-0.9-1.9-1.9c0-1,0.9-1.9,1.9-1.9c1,0,1.9,0.9,1.9,1.9C221.6,35.2,220.7,36,219.7,36z"/>
	</g>
	<line class="st2" x1="219.7" y1="48.6" x2="219.7" y2="34.4"/>
	<g>
		<path class="st1" d="M177.1,21.9c-1.1,0-1.9-0.9-1.9-1.9c0-1,0.9-1.9,1.9-1.9c1,0,1.9,0.9,1.9,1.9C179.1,21,178.2,21.9,177.1,21.9
			z"/>
	</g>
	<line class="st2" x1="177.2" y1="48.6" x2="177.2" y2="20.3"/>
	<g>
		<path class="st1" d="M191.3,21.9c-1.1,0-1.9-0.9-1.9-1.9c0-1,0.9-1.9,1.9-1.9c1,0,1.9,0.9,1.9,1.9C193.2,21,192.4,21.9,191.3,21.9
			z"/>
	</g>
	<line class="st2" x1="191.3" y1="48.6" x2="191.3" y2="20.3"/>
	<g>
		<path class="st1" d="M205.5,21.9c-1.1,0-1.9-0.9-1.9-1.9c0-1,0.9-1.9,1.9-1.9c1,0,1.9,0.9,1.9,1.9C207.4,21,206.5,21.9,205.5,21.9
			z"/>
	</g>
	<line class="st2" x1="205.5" y1="48.6" x2="205.5" y2="20.3"/>
	<g>
		<path class="st1" d="M231.6,57.3V57l3.1-4.7c0.1-0.1,0.1-0.1,0.2-0.1c0.2,0,0.2,0.1,0.2,0.3V57h1v0.3h-1v0.9c0,0.4,0,0.5,0.8,0.5
			h0.2v0.3c-0.4,0-0.9,0-1.4,0c-0.4,0-0.9,0-1.3,0v-0.3h0.2c0.7,0,0.8-0.1,0.8-0.5v-0.9H231.6z M234.3,53.3l-2.4,3.7h2.4V53.3z"/>
		<path class="st1" d="M247.8,59.2c-1.1,0-1.8-1-1.8-1.8c0-0.5,0.3-0.5,0.5-0.5c0.3,0,0.5,0.2,0.5,0.5s-0.2,0.5-0.5,0.5
			c-0.1,0-0.1,0-0.2,0c0.2,0.6,0.7,1.1,1.5,1.1c0.5,0,0.8-0.3,1.1-0.6c0.2-0.4,0.2-1,0.2-1.4c0-0.5,0-0.9-0.2-1.3
			c-0.1-0.2-0.3-0.6-0.8-0.6c-0.8,0-1.2,0.5-1.3,0.7c0,0.1-0.1,0.1-0.1,0.1c-0.1,0-0.1-0.1-0.1-0.3v-2.9c0-0.2,0-0.2,0.1-0.2
			c0,0,0,0,0.1,0c0.5,0.2,0.9,0.3,1.3,0.3c0.7,0,1.2-0.2,1.4-0.3c0,0,0.1,0,0.1,0c0.1,0,0.1,0,0.1,0.1c0,0.1-0.7,1-1.9,1
			c-0.3,0-0.6-0.1-0.8-0.1v1.9c0.4-0.3,0.8-0.5,1.3-0.5c1.1,0,1.9,1,1.9,2.2C250,58.2,249,59.2,247.8,59.2z"/>
	</g>
	<g>
		<path class="st1" d="M158.9,57.1v-0.6h2.6v0.6H158.9z"/>
		<path class="st1" d="M165.1,58.2c0,0.4,0,0.5,0.9,0.5h0.3v0.3c-0.3,0-1.2,0-1.6,0s-1.3,0-1.6,0v-0.3h0.3c0.9,0,0.9-0.1,0.9-0.5V53
			c-0.5,0.3-1.1,0.3-1.3,0.3v-0.3c0.3,0,1.2,0,1.8-0.6c0.2,0,0.2,0,0.2,0.3V58.2z"/>
	</g>
	<g>
		<path class="st1" d="M144.7,57.1v-0.6h2.6v0.6H144.7z"/>
		<path class="st1" d="M151,58.2c0.2,0,0.9,0,0.9-0.1c0.1-0.1,0.2-0.6,0.2-0.9h0.2l-0.3,1.7h-3.7c0-0.2,0-0.3,0.1-0.4l1.9-2.1
			c0.5-0.6,1-1.4,1-2.2c0-0.8-0.4-1.6-1.3-1.6c-0.6,0-1.1,0.4-1.3,1c0,0,0,0,0.1,0c0.3,0,0.5,0.3,0.5,0.5c0,0.4-0.3,0.5-0.5,0.5
			c0,0-0.5,0-0.5-0.6c0-0.9,0.7-1.8,1.9-1.8c1.2,0,2.1,0.8,2.1,1.9c0,1-0.6,1.5-2.2,2.9l-1.1,1H151z"/>
	</g>
	<line class="st0" x1="173.6" y1="34.4" x2="180.7" y2="34.4"/>
	<g>
		<path class="st1" d="M163,36c-1.1,0-1.9-0.9-1.9-1.9c0-1,0.9-1.9,1.9-1.9c1,0,1.9,0.9,1.9,1.9C164.9,35.2,164,36,163,36z"/>
	</g>
	<line class="st3" x1="163" y1="48.6" x2="163" y2="34.4"/>
	<g>
		<path class="st1" d="M148.8,21.9c-1.1,0-1.9-0.9-1.9-1.9c0-1,0.9-1.9,1.9-1.9c1,0,1.9,0.9,1.9,1.9C150.7,21,149.8,21.9,148.8,21.9
			z"/>
	</g>
	<line class="st5" x1="148.8" y1="48.6" x2="148.8" y2="20.3"/>
	<g>
		<path class="st1" d="M233.8,21.9c-1.1,0-1.9-0.9-1.9-1.9c0-1,0.9-1.9,1.9-1.9c1,0,1.9,0.9,1.9,1.9C235.8,21,234.9,21.9,233.8,21.9
			z"/>
	</g>
	<line class="st5" x1="233.9" y1="48.6" x2="233.9" y2="20.3"/>
	<g>
		<path class="st1" d="M248,21.9c-1.1,0-1.9-0.9-1.9-1.9c0-1,0.9-1.9,1.9-1.9c1,0,1.9,0.9,1.9,1.9C249.9,21,249,21.9,248,21.9z"/>
	</g>
	<line class="st5" x1="248" y1="48.6" x2="248" y2="20.3"/>
	<g>
		<path class="st1" d="M123.6,204.1c0,0.2,0,0.2-0.2,0.2c-0.1,0-0.1,0-0.2-0.2l-2.5-5.9c0-0.1,0-0.1-0.1-0.2l-1.3,5.3
			c0,0.1,0,0.2,0,0.2c0,0.2,0.1,0.4,0.7,0.4c0.1,0,0.2,0,0.2,0.1c0,0.2-0.1,0.2-0.2,0.2c-0.3,0-0.7,0-1,0c-0.3,0-0.7,0-1,0
			c-0.1,0-0.1,0-0.1-0.1c0-0.2,0.1-0.2,0.2-0.2c0.8,0,1-0.3,1.1-0.7l1.3-5.4c0-0.1-0.6-0.1-0.7-0.1c-0.2,0-0.3,0-0.3-0.1
			c0-0.2,0.1-0.2,0.3-0.2h1.3c0.2,0,0.2,0,0.3,0.2l2.2,5.2l1.1-4.4c0,0,0-0.2,0-0.2c0-0.2-0.1-0.4-0.7-0.4c-0.1,0-0.2,0-0.2-0.1
			c0-0.2,0.1-0.2,0.2-0.2c0.3,0,0.7,0,1,0c0.3,0,0.7,0,1,0c0.1,0,0.1,0.1,0.1,0.1c0,0.2-0.1,0.2-0.2,0.2c-0.8,0-1,0.3-1.1,0.7
			L123.6,204.1z"/>
	</g>
	<g>
		<path class="st1" d="M130.1,201.1c-0.1,0-0.3,0-0.3-0.2c0-0.2,0.2-0.2,0.3-0.2h6c0.1,0,0.3,0,0.3,0.2c0,0.2-0.2,0.2-0.3,0.2H130.1
			z M130.1,203c-0.1,0-0.3,0-0.3-0.2s0.2-0.2,0.3-0.2h5.9c0.1,0,0.3,0,0.3,0.2s-0.2,0.2-0.3,0.2H130.1z"/>
		<path class="st1" d="M140,202.7v-0.3l3.1-4.7c0.1-0.1,0.1-0.1,0.2-0.1c0.2,0,0.2,0.1,0.2,0.3v4.5h1v0.3h-1v0.9
			c0,0.4,0,0.5,0.8,0.5h0.2v0.3c-0.4,0-0.9,0-1.4,0c-0.4,0-0.9,0-1.3,0V204h0.2c0.7,0,0.8-0.1,0.8-0.5v-0.9H140z M142.7,198.7
			l-2.4,3.7h2.4V198.7z"/>
	</g>
	<polyline points="107.3,198.7 102.8,201 107.3,203.2 106.2,201 	"/>
	<line class="st0" x1="113.4" y1="201" x2="106.2" y2="201"/>
	<polyline points="154.9,203.2 159.4,201 154.9,198.7 156,201 	"/>
	<line class="st0" x1="148.8" y1="201" x2="156" y2="201"/>
	<polyline points="179.7,185.5 184.3,183.3 179.7,181 180.8,183.3 	"/>
	<line class="st0" x1="70.9" y1="183.3" x2="180.8" y2="183.3"/>
	<polyline points="108.6,120.5 106.3,115.9 104,120.5 106.3,119.3 	"/>
	<line class="st0" x1="106.3" y1="186.8" x2="106.3" y2="119.3"/>
	<g>
		<path class="st1" d="M189.8,182.5c0.1-0.5,0.2-0.6,0.2-0.8c0-0.3-0.1-0.5-0.3-0.5c-0.4,0-0.6,0.5-0.7,1.2
			c-0.1,0.2-0.1,0.2-0.2,0.2c0,0-0.1,0-0.1-0.1c0,0,0.1-0.6,0.3-1c0.1-0.2,0.3-0.6,0.7-0.6c0.5,0,0.9,0.3,0.9,0.9
			c0.2-0.2,0.7-0.9,1.6-0.9c0.7,0,1.1,0.4,1.1,1.1c0,0.6-0.4,1.7-0.6,2.2c-0.1,0.2-0.2,0.5-0.2,0.7c0,0.2,0.1,0.3,0.2,0.3
			c0.5,0,0.8-0.6,1-1.2c0.1-0.1,0.1-0.2,0.2-0.2c0,0,0.1,0,0.1,0.1c0,0.1-0.4,1.5-1.3,1.5c-0.5,0-0.8-0.3-0.8-0.8
			c0-0.1,0-0.2,0.1-0.5c0.2-0.4,0.6-1.7,0.6-2.3c0-0.3-0.1-0.7-0.5-0.7c-0.9,0-1.5,0.9-1.6,1.2c0,0-0.1,0.3-0.1,0.5
			c0,0.2-0.1,0.4-0.2,0.7l-0.2,0.9c-0.1,0.2-0.2,0.7-0.2,0.7c-0.1,0.2-0.2,0.3-0.4,0.3c-0.1,0-0.3-0.1-0.3-0.3c0,0,0.1-0.3,0.1-0.4
			L189.8,182.5z"/>
	</g>
	<g>
		<path class="st1" d="M108,192.7c-0.4,0.9-1.2,1.2-1.7,1.2c-0.5,0-1.2-0.2-1.6-1c-0.4-0.8-0.4-1.7-0.4-2.4c0-0.8,0-1.6,0.4-2.3
			c0.4-0.9,1.1-1.2,1.7-1.2c0.4,0,1.2,0.2,1.7,1.1c0.3,0.7,0.4,1.5,0.4,2.3C108.4,191.2,108.3,192,108,192.7z M107.4,192.3
			c0.1-0.6,0.1-1.3,0.1-2.1c0-0.6,0-1.4-0.1-1.9c-0.2-1-0.8-1.2-1.2-1.2c-0.2,0-1,0.1-1.2,1.3c-0.1,0.5-0.1,1.2-0.1,1.8
			c0,0.6,0,1.5,0.1,2.1c0.2,1,0.8,1.2,1.2,1.2C106.7,193.6,107.3,193.3,107.4,192.3z"/>
		<path class="st1" d="M120.9,192.8c0,0.4,0,0.5,0.9,0.5h0.3v0.3c-0.3,0-1.2,0-1.6,0c-0.4,0-1.3,0-1.6,0v-0.3h0.3
			c0.9,0,0.9-0.1,0.9-0.5v-5.2c-0.5,0.3-1.1,0.3-1.3,0.3v-0.3c0.3,0,1.2,0,1.8-0.6c0.2,0,0.2,0,0.2,0.3V192.8z"/>
		<path class="st1" d="M135.2,192.8c0.2,0,0.9,0,0.9-0.1c0.1-0.1,0.2-0.6,0.2-0.9h0.2l-0.3,1.7h-3.7c0-0.2,0-0.3,0.1-0.4l1.9-2.1
			c0.5-0.6,1-1.4,1-2.2c0-0.8-0.4-1.6-1.3-1.6c-0.6,0-1.1,0.4-1.3,1c0,0,0,0,0.1,0c0.3,0,0.5,0.3,0.5,0.5c0,0.4-0.3,0.5-0.5,0.5
			c0,0-0.5,0-0.5-0.6c0-0.9,0.7-1.8,1.9-1.8c1.2,0,2.1,0.8,2.1,1.9c0,1-0.6,1.5-2.2,2.9l-1.1,1H135.2z"/>
		<path class="st1" d="M150.9,191.9c0,1-0.9,1.9-2.1,1.9c-1.1,0-2-0.7-2-1.6c0-0.4,0.3-0.6,0.6-0.6c0.3,0,0.6,0.2,0.6,0.6
			c0,0.4-0.3,0.6-0.7,0.5c0.3,0.6,1.1,0.8,1.5,0.8c0.4,0,1.1-0.3,1.1-1.6c0-1-0.4-1.7-1.2-1.7h-0.4c-0.2,0-0.2,0-0.2-0.1
			c0-0.1,0.1-0.1,0.1-0.1c0.1,0,0.3,0,0.4,0c0.2,0,0.6,0,0.9-0.5c0.3-0.4,0.3-1,0.3-1.1c0-0.9-0.5-1.1-1-1.1c-0.4,0-1,0.1-1.3,0.6
			c0.1,0,0.6,0,0.6,0.5c0,0.3-0.2,0.5-0.5,0.5c-0.3,0-0.5-0.2-0.5-0.5c0-0.8,0.8-1.4,1.8-1.4c1,0,1.8,0.6,1.8,1.4
			c0,0.8-0.6,1.5-1.4,1.8C150.2,190.3,150.9,191.1,150.9,191.9z"/>
	</g>
	<g>
		<path class="st1" d="M117.3,121.8c-0.3,1.1-1.3,2-2.3,2c-0.6,0-1.1-0.4-1.1-0.9c0-0.5,0.3-0.6,0.6-0.6c0.1,0,0.4,0,0.4,0.3
			c0,0.2-0.1,0.3-0.2,0.4c-0.1,0.1-0.3,0.1-0.4,0.1c0.2,0.4,0.6,0.4,0.8,0.4c0.5,0,0.8-0.3,1.1-0.6c0.4-0.5,0.5-1,0.6-1.5
			c-0.3,0.3-0.6,0.4-1,0.4c-0.6,0-1.2-0.3-1.2-1.2c0-0.5,0.2-1,0.6-2.1c0.1-0.2,0.2-0.4,0.2-0.7c0-0.3-0.2-0.3-0.2-0.3
			c-0.3,0-0.7,0.3-1,1.2c0,0.2-0.1,0.2-0.2,0.2c0,0-0.1,0-0.1-0.1c0-0.1,0.4-1.5,1.3-1.5c0.5,0,0.8,0.4,0.8,0.8c0,0.2,0,0.3-0.2,0.7
			c-0.3,0.9-0.5,1.5-0.5,2c0,0.4,0.1,0.8,0.6,0.8c0.7,0,1.1-0.7,1.1-0.8l0.4-1.8c0.1-0.3,0.1-0.5,0.2-0.8c0-0.2,0.1-0.5,0.1-0.5
			c0.1-0.1,0.2-0.2,0.3-0.2c0.1,0,0.3,0.1,0.3,0.3c0,0.1,0,0.1,0,0.2L117.3,121.8z"/>
	</g>
	<g>
		<path class="st1" d="M119.7,120.9c0,0,0-0.1,0-0.2c0-0.2,0-0.3-0.2-0.3c-0.3,0-0.4,0.3-0.5,0.8c0,0.2-0.1,0.2-0.2,0.2
			c0,0-0.1,0-0.1-0.1c0,0,0.1-0.5,0.3-0.7c0.1-0.2,0.3-0.4,0.6-0.4c0.2,0,0.6,0.1,0.7,0.5c0.2-0.2,0.6-0.5,1-0.5c0.5,0,1,0.3,1,1.2
			c0,1-0.9,2-1.8,2c-0.4,0-0.6-0.3-0.7-0.4c-0.1,0.3-0.2,0.7-0.3,1c0,0.1-0.1,0.3-0.1,0.3c0,0.1,0.2,0.1,0.3,0.1
			c0.1,0,0.2,0,0.2,0.1c0,0.1-0.1,0.2-0.1,0.2c-0.2,0-0.5,0-0.7,0c-0.2,0-0.4,0-0.6,0c0,0-0.1,0-0.1-0.1c0-0.1,0.1-0.1,0.2-0.1
			c0.3,0,0.3-0.1,0.3-0.3L119.7,120.9z M119.9,122.4c0,0,0,0.1,0,0.1c0,0.1,0.1,0.6,0.6,0.6c0.4,0,0.7-0.3,0.9-0.7
			c0.2-0.4,0.4-1.1,0.4-1.4c0-0.5-0.2-0.7-0.5-0.7c-0.2,0-0.6,0.1-1,0.6L119.9,122.4z"/>
	</g>
	<g>
		<path class="st1" d="M124.1,124.3v-10h1.4v0.4h-1v9.2h1v0.4H124.1z"/>
	</g>
	<g>
		<path class="st1" d="M127.2,118.9c0.1-0.5,0.2-0.6,0.2-0.8c0-0.3-0.1-0.5-0.3-0.5c-0.4,0-0.6,0.5-0.7,1.2
			c-0.1,0.2-0.1,0.2-0.2,0.2c0,0-0.1,0-0.1-0.1c0,0,0.1-0.6,0.3-1c0.1-0.2,0.3-0.6,0.7-0.6c0.5,0,0.9,0.3,0.9,0.9
			c0.2-0.2,0.7-0.9,1.6-0.9c0.7,0,1.1,0.4,1.1,1.1c0,0.6-0.4,1.7-0.6,2.2c-0.1,0.2-0.2,0.5-0.2,0.7c0,0.2,0.1,0.3,0.2,0.3
			c0.5,0,0.8-0.6,1-1.2c0-0.1,0-0.2,0.1-0.2c0,0,0.1,0,0.1,0.1c0,0.1-0.4,1.5-1.3,1.5c-0.5,0-0.8-0.3-0.8-0.8c0-0.1,0-0.2,0.1-0.5
			c0.2-0.4,0.6-1.7,0.6-2.3c0-0.3-0.1-0.7-0.5-0.7c-0.9,0-1.5,0.9-1.6,1.2c0,0-0.1,0.3-0.1,0.5c0,0.2-0.1,0.4-0.2,0.7l-0.2,0.9
			c-0.1,0.2-0.2,0.7-0.2,0.7c-0.1,0.2-0.2,0.3-0.4,0.3c-0.1,0-0.3-0.1-0.3-0.3c0,0,0.1-0.3,0.1-0.4L127.2,118.9z"/>
	</g>
	<g>
		<path class="st1" d="M133.3,124.3h-1.4v-0.4h1v-9.2h-1v-0.4h1.4V124.3z"/>
	</g>
	<g>
		<path class="st1" d="M160.8,191.9v-0.3l3.1-4.7c0.1-0.1,0.1-0.1,0.2-0.1c0.2,0,0.2,0.1,0.2,0.3v4.5h1v0.3h-1v0.9
			c0,0.4,0,0.5,0.8,0.5h0.2v0.3c-0.4,0-0.9,0-1.4,0c-0.4,0-0.9,0-1.3,0v-0.3h0.2c0.7,0,0.8-0.1,0.8-0.5v-0.9H160.8z M163.5,187.9
			l-2.4,3.7h2.4V187.9z"/>
		<path class="st1" d="M177,193.8c-1.1,0-1.8-1-1.8-1.8c0-0.5,0.3-0.5,0.5-0.5c0.3,0,0.5,0.2,0.5,0.5c0,0.2-0.2,0.5-0.5,0.5
			c-0.1,0-0.1,0-0.2,0c0.2,0.6,0.7,1.1,1.5,1.1c0.5,0,0.8-0.3,1.1-0.6c0.2-0.4,0.2-1,0.2-1.4c0-0.5,0-0.9-0.2-1.3
			c-0.1-0.2-0.3-0.6-0.8-0.6c-0.8,0-1.2,0.5-1.3,0.7c0,0.1-0.1,0.1-0.1,0.1c-0.1,0-0.1-0.1-0.1-0.3v-2.9c0-0.2,0-0.2,0.1-0.2
			c0,0,0,0,0.1,0c0.5,0.2,0.9,0.3,1.3,0.3c0.7,0,1.2-0.2,1.4-0.3c0,0,0.1,0,0.1,0c0.1,0,0.1,0,0.1,0.1c0,0.1-0.7,1-1.9,1
			c-0.3,0-0.6-0.1-0.8-0.1v1.9c0.4-0.3,0.8-0.5,1.3-0.5c1.1,0,1.9,1,1.9,2.2C179.1,192.8,178.1,193.8,177,193.8z"/>
	</g>
	<g>
		<path class="st1" d="M88,191.7v-0.6h2.6v0.6H88z"/>
		<path class="st1" d="M94.2,192.8c0,0.4,0,0.5,0.9,0.5h0.3v0.3c-0.3,0-1.2,0-1.6,0c-0.4,0-1.3,0-1.6,0v-0.3h0.3
			c0.9,0,0.9-0.1,0.9-0.5v-5.2c-0.5,0.3-1.1,0.3-1.3,0.3v-0.3c0.3,0,1.2,0,1.8-0.6c0.2,0,0.2,0,0.2,0.3V192.8z"/>
	</g>
	<g>
		<path class="st1" d="M73.9,191.7v-0.6h2.6v0.6H73.9z"/>
		<path class="st1" d="M80.2,192.8c0.2,0,0.9,0,0.9-0.1c0.1-0.1,0.2-0.6,0.2-0.9h0.2l-0.3,1.7h-3.7c0-0.2,0-0.3,0.1-0.4l1.9-2.1
			c0.5-0.6,1-1.4,1-2.2c0-0.8-0.4-1.6-1.3-1.6c-0.6,0-1.1,0.4-1.3,1c0,0,0,0,0.1,0c0.3,0,0.5,0.3,0.5,0.5c0,0.4-0.3,0.5-0.5,0.5
			c0,0-0.5,0-0.5-0.6c0-0.9,0.7-1.8,1.9-1.8c1.2,0,2.1,0.8,2.1,1.9c0,1-0.6,1.5-2.2,2.9l-1.1,1H80.2z"/>
	</g>
	<g>
		<path class="st1" d="M120.4,142.3c-1.1,0-1.9-0.9-1.9-1.9c0-1,0.9-1.9,1.9-1.9c1,0,1.9,0.9,1.9,1.9S121.5,142.3,120.4,142.3z"/>
	</g>
	<line class="st2" x1="120.5" y1="183.3" x2="120.5" y2="140.7"/>
	<g>
		<path class="st1" d="M148.8,156.5c-1.1,0-1.9-0.9-1.9-1.9c0-1,0.9-1.9,1.9-1.9c1,0,1.9,0.9,1.9,1.9S149.8,156.5,148.8,156.5z"/>
	</g>
	<line class="st2" x1="148.8" y1="183.3" x2="148.8" y2="154.9"/>
	<g>
		<path class="st1" d="M106.3,149.4c-1.1,0-1.9-0.9-1.9-1.9c0-1,0.9-1.9,1.9-1.9c1,0,1.9,0.9,1.9,1.9S107.3,149.4,106.3,149.4z"/>
	</g>
	<line class="st2" x1="106.3" y1="183.3" x2="106.3" y2="147.8"/>
	<g>
		<path class="st1" d="M134.6,135.3c-1.1,0-1.9-0.9-1.9-1.9c0-1,0.9-1.9,1.9-1.9c1,0,1.9,0.9,1.9,1.9S135.7,135.3,134.6,135.3z"/>
	</g>
	<line class="st2" x1="134.6" y1="183.3" x2="134.6" y2="133.7"/>
	<g>
		<path class="st1" d="M177.1,142.3c-1.1,0-1.9-0.9-1.9-1.9c0-1,0.9-1.9,1.9-1.9c1,0,1.9,0.9,1.9,1.9S178.2,142.3,177.1,142.3z"/>
	</g>
	<line class="st7" x1="177.2" y1="183.3" x2="177.2" y2="140.7"/>
	<g>
		<path class="st1" d="M163,149.4c-1.1,0-1.9-0.9-1.9-1.9c0-1,0.9-1.9,1.9-1.9c1,0,1.9,0.9,1.9,1.9S164,149.4,163,149.4z"/>
	</g>
	<line class="st8" x1="163" y1="183.3" x2="163" y2="147.8"/>
	<g>
		<path class="st1" d="M92.1,156.5c-1.1,0-1.9-0.9-1.9-1.9c0-1,0.9-1.9,1.9-1.9c1,0,1.9,0.9,1.9,1.9S93.1,156.5,92.1,156.5z"/>
	</g>
	<line class="st5" x1="92.1" y1="183.3" x2="92.1" y2="154.9"/>
	<g>
		<path class="st1" d="M77.9,135.3c-1.1,0-1.9-0.9-1.9-1.9c0-1,0.9-1.9,1.9-1.9c1,0,1.9,0.9,1.9,1.9S79,135.3,77.9,135.3z"/>
	</g>
	<line class="st9" x1="78" y1="183.3" x2="78" y2="133.7"/>
</g>
</svg>
