<?xml version="1.0" encoding="utf-8"?>
<!-- Generator: Adobe Illustrator 22.1.0, SVG Export Plug-In . SVG Version: 6.00 Build 0)  -->
<svg version="1.1" id="Layer_1" xmlns="http://www.w3.org/2000/svg" xmlns:xlink="http://www.w3.org/1999/xlink" x="0px" y="0px"
	 viewBox="0 0 372.1 206.5" style="enable-background:new 0 0 372.1 206.5;" xml:space="preserve">
<style type="text/css">
	.st0{fill:none;stroke:#000000;stroke-width:0.8504;stroke-miterlimit:10;}
	.st1{fill:#1D1D1B;}
	.st2{fill:none;stroke:#000000;stroke-width:1.7008;stroke-linecap:round;stroke-miterlimit:10;stroke-dasharray:0,5.3858;}
	.st3{fill:none;stroke:#000000;stroke-width:1.7008;stroke-linecap:round;stroke-miterlimit:10;stroke-dasharray:0,4.1574;}
	.st4{fill:none;stroke:#000000;stroke-width:1.7008;stroke-linecap:round;stroke-miterlimit:10;stroke-dasharray:0,4.4409;}
	.st5{fill:none;stroke:#000000;stroke-width:1.7008;stroke-linecap:round;stroke-miterlimit:10;stroke-dasharray:0,4.355;}
	.st6{fill:none;stroke:#000000;stroke-width:1.7008;stroke-miterlimit:10;}
	.st7{fill:#FF0000;}
	.st8{fill:none;stroke:#000000;stroke-width:1.7008;stroke-linecap:round;stroke-miterlimit:10;stroke-dasharray:0,4.8897;}
</style>
<g>
	<polyline points="171.4,80.6 176.3,82 174.4,77.2 173.7,79.7 	"/>
	<line class="st0" x1="158.6" y1="66" x2="173.7" y2="79.7"/>
	<polyline points="177.6,104 179.8,108.5 182.1,104 179.8,105.1 	"/>
	<line class="st0" x1="179.8" y1="90.8" x2="179.8" y2="105.1"/>
	<g>
		<path class="st1" d="M193.6,90.5c0,0.2,0,0.2-0.2,0.2c-0.1,0-0.1,0-0.2-0.2l-2.5-5.9c0-0.1,0-0.1-0.1-0.2l-1.3,5.3
			c0,0.1,0,0.2,0,0.2c0,0.2,0.1,0.4,0.7,0.4c0.1,0,0.2,0,0.2,0.1c0,0.2-0.1,0.2-0.2,0.2c-0.3,0-0.7,0-1,0c-0.3,0-0.7,0-1,0
			c-0.1,0-0.1,0-0.1-0.1c0-0.2,0.1-0.2,0.2-0.2c0.8,0,1-0.3,1.1-0.7l1.3-5.4c0-0.1-0.6-0.1-0.7-0.1c-0.2,0-0.3,0-0.3-0.1
			c0-0.2,0.1-0.2,0.3-0.2h1.3c0.2,0,0.2,0,0.3,0.2l2.2,5.2l1.1-4.4c0,0,0-0.2,0-0.2c0-0.2-0.1-0.4-0.7-0.4c-0.1,0-0.2,0-0.2-0.1
			c0-0.2,0.1-0.2,0.2-0.2c0.3,0,0.7,0,1,0c0.3,0,0.7,0,1,0c0.1,0,0.1,0.1,0.1,0.1c0,0.2-0.1,0.2-0.2,0.2c-0.8,0-1,0.3-1.1,0.7
			L193.6,90.5z"/>
	</g>
	<g>
		<path class="st1" d="M200.2,87.4c-0.1,0-0.3,0-0.3-0.2s0.2-0.2,0.3-0.2h6c0.1,0,0.3,0,0.3,0.2s-0.2,0.2-0.3,0.2H200.2z
			 M200.2,89.4c-0.1,0-0.3,0-0.3-0.2s0.2-0.2,0.3-0.2h5.9c0.1,0,0.3,0,0.3,0.2s-0.2,0.2-0.3,0.2H200.2z"/>
		<path class="st1" d="M213.2,86.5c-0.4,0.6-0.6,1.5-0.6,1.7c-0.1,0.5-0.1,1.1-0.1,1.6v0.5c0,0.1,0,0.5-0.5,0.5s-0.5-0.4-0.5-0.5
			c0-1,0.3-2.4,1.2-3.7c0.2-0.3,1-1.4,1.1-1.6h-2.1c-0.1,0-0.9,0-1,0.1c-0.1,0.1-0.2,0.7-0.3,0.9h-0.2l0.3-2.1h0.2
			c0,0.2,0.1,0.3,1.3,0.3h2.4c0,0.2,0,0.2-0.1,0.3L213.2,86.5z"/>
	</g>
	<path d="M179.7,86.3c0,0,0.1-0.1,0.1-0.1c0,0,0.4,0.4,0.5,0.5c0.3,0.3,0.6,0.6,0.9,0.9c0,0,0.1,0,0.1,0c0.1,0,0.1-0.1,0.1-0.1
		c0,0-0.3-0.6-0.6-1.1l-0.4-0.7l1.7-0.8c0.1-0.1,0.1-0.1,0.1-0.1c0,0,0-0.1-0.1-0.1c0,0-0.5,0.1-2,0.4l-0.2-1.9c0-0.2,0-0.2-0.1-0.2
		c-0.1,0-0.1,0-0.1,0.2l-0.2,1.9l-1.8-0.4c0,0-0.1,0-0.1,0c-0.1,0-0.1,0-0.1,0.1c0,0.1,0,0.1,0.2,0.1l1.7,0.8l-0.9,1.7
		c-0.1,0.1-0.1,0.1-0.1,0.2c0,0,0,0.1,0.1,0.1c0,0,0,0,0.1-0.1L179.7,86.3z"/>
	<path class="st0" d="M184.9,85.4c0-2.8-2.2-5-5-5c-2.8,0-5,2.2-5,5c0,2.8,2.2,5,5,5C182.7,90.4,184.9,88.2,184.9,85.4L184.9,85.4z"
		/>
	<polyline points="185.2,77.2 183.4,82 188.3,80.6 185.9,79.7 	"/>
	<line class="st0" x1="201.1" y1="66" x2="185.9" y2="79.7"/>
	<polyline points="254.7,185.5 259.2,183.2 254.7,181 255.8,183.2 	"/>
	<line class="st0" x1="103.3" y1="183.2" x2="255.8" y2="183.2"/>
	<polyline points="141,120.5 138.8,115.9 136.5,120.5 138.8,119.3 	"/>
	<line class="st0" x1="138.8" y1="186.8" x2="138.8" y2="119.3"/>
	<g>
		<path class="st1" d="M264.9,182.5c0.1-0.5,0.2-0.6,0.2-0.8c0-0.3-0.1-0.5-0.3-0.5c-0.4,0-0.6,0.5-0.7,1.2
			c-0.1,0.2-0.1,0.2-0.2,0.2c0,0-0.1,0-0.1-0.1c0,0,0.1-0.6,0.3-1c0.1-0.2,0.3-0.6,0.7-0.6c0.5,0,0.9,0.3,0.9,0.9
			c0.2-0.2,0.7-0.9,1.6-0.9c0.7,0,1.1,0.4,1.1,1.1c0,0.6-0.4,1.7-0.6,2.2c-0.1,0.2-0.2,0.5-0.2,0.7c0,0.2,0.1,0.3,0.2,0.3
			c0.5,0,0.8-0.6,1-1.2c0.1-0.1,0.1-0.2,0.2-0.2c0,0,0.1,0,0.1,0.1c0,0.1-0.4,1.5-1.3,1.5c-0.5,0-0.8-0.3-0.8-0.8
			c0-0.1,0-0.2,0.1-0.5c0.2-0.4,0.6-1.7,0.6-2.3c0-0.3-0.1-0.7-0.5-0.7c-0.9,0-1.5,0.9-1.6,1.2c0,0-0.1,0.3-0.1,0.5
			c0,0.2-0.1,0.4-0.2,0.7l-0.2,0.9c-0.1,0.2-0.2,0.7-0.2,0.7c-0.1,0.2-0.2,0.3-0.4,0.3c-0.1,0-0.3-0.1-0.3-0.3c0,0,0.1-0.3,0.1-0.4
			L264.9,182.5z"/>
	</g>
	<g>
		<path class="st1" d="M140.5,192.6c-0.4,0.9-1.2,1.2-1.7,1.2c-0.5,0-1.2-0.2-1.6-1c-0.4-0.8-0.4-1.7-0.4-2.4c0-0.8,0-1.6,0.4-2.3
			c0.4-0.9,1.1-1.2,1.7-1.2c0.4,0,1.2,0.2,1.7,1.1c0.3,0.7,0.4,1.5,0.4,2.3C140.9,191.1,140.9,191.9,140.5,192.6z M140,192.3
			c0.1-0.6,0.1-1.3,0.1-2.1c0-0.6,0-1.4-0.1-1.9c-0.2-1-0.8-1.2-1.2-1.2c-0.2,0-1,0.1-1.2,1.3c-0.1,0.5-0.1,1.2-0.1,1.8
			c0,0.6,0,1.5,0.1,2.1c0.2,1,0.8,1.2,1.2,1.2C139.3,193.5,139.8,193.2,140,192.3z"/>
		<path class="st1" d="M153.4,192.8c0,0.4,0,0.5,0.9,0.5h0.3v0.3c-0.3,0-1.2,0-1.6,0c-0.4,0-1.3,0-1.6,0v-0.3h0.3
			c0.9,0,0.9-0.1,0.9-0.5v-5.2c-0.5,0.3-1.1,0.3-1.3,0.3v-0.3c0.3,0,1.2,0,1.8-0.6c0.2,0,0.2,0,0.2,0.3V192.8z"/>
		<path class="st1" d="M167.7,192.8c0.2,0,0.9,0,0.9-0.1c0.1-0.1,0.2-0.6,0.2-0.9h0.2l-0.3,1.7h-3.7c0-0.2,0-0.3,0.1-0.4l1.9-2.1
			c0.5-0.6,1-1.4,1-2.2c0-0.8-0.4-1.6-1.3-1.6c-0.6,0-1.1,0.4-1.3,1c0,0,0,0,0.1,0c0.3,0,0.5,0.3,0.5,0.5c0,0.4-0.3,0.5-0.5,0.5
			c0,0-0.5,0-0.5-0.6c0-0.9,0.7-1.8,1.9-1.8c1.2,0,2.1,0.8,2.1,1.9c0,1-0.6,1.5-2.2,2.9l-1.1,1H167.7z"/>
		<path class="st1" d="M183.4,191.8c0,1-0.9,1.9-2.1,1.9c-1.1,0-2-0.7-2-1.6c0-0.4,0.3-0.6,0.6-0.6c0.3,0,0.6,0.2,0.6,0.6
			c0,0.4-0.3,0.6-0.7,0.5c0.3,0.6,1.1,0.8,1.5,0.8c0.4,0,1.1-0.3,1.1-1.6c0-1-0.4-1.7-1.2-1.7h-0.4c-0.2,0-0.2,0-0.2-0.1
			c0-0.1,0.1-0.1,0.1-0.1c0.1,0,0.3,0,0.4,0c0.2,0,0.6,0,0.9-0.5c0.3-0.4,0.3-1,0.3-1.1c0-0.9-0.5-1.1-1-1.1c-0.4,0-1,0.1-1.3,0.6
			c0.1,0,0.6,0,0.6,0.5c0,0.3-0.2,0.5-0.5,0.5c-0.3,0-0.5-0.2-0.5-0.5c0-0.8,0.8-1.4,1.8-1.4c1,0,1.8,0.6,1.8,1.4
			c0,0.8-0.6,1.5-1.4,1.8C182.7,190.2,183.4,191,183.4,191.8z"/>
	</g>
	<g>
		<path class="st1" d="M146.9,114.7c-0.3,1.1-1.3,2-2.3,2c-0.6,0-1.1-0.4-1.1-0.9c0-0.5,0.3-0.6,0.6-0.6c0.1,0,0.4,0,0.4,0.3
			c0,0.2-0.1,0.3-0.2,0.4c-0.1,0.1-0.3,0.1-0.4,0.1c0.2,0.4,0.6,0.4,0.8,0.4c0.5,0,0.8-0.3,1.1-0.6c0.4-0.5,0.5-1,0.6-1.5
			c-0.3,0.3-0.6,0.4-1,0.4c-0.6,0-1.2-0.3-1.2-1.2c0-0.5,0.2-1,0.6-2.1c0.1-0.2,0.2-0.4,0.2-0.7c0-0.3-0.2-0.3-0.2-0.3
			c-0.3,0-0.7,0.3-1,1.2c0,0.2-0.1,0.2-0.2,0.2c0,0-0.1,0-0.1-0.1c0-0.1,0.4-1.5,1.3-1.5c0.5,0,0.8,0.4,0.8,0.8c0,0.2,0,0.3-0.2,0.7
			c-0.3,0.9-0.5,1.5-0.5,2c0,0.4,0.1,0.8,0.6,0.8c0.7,0,1.1-0.7,1.1-0.8l0.4-1.8c0.1-0.3,0.1-0.5,0.2-0.8c0-0.2,0.1-0.5,0.1-0.5
			c0.1-0.1,0.2-0.2,0.3-0.2c0.1,0,0.3,0.1,0.3,0.3c0,0.1,0,0.1,0,0.2L146.9,114.7z"/>
	</g>
	<g>
		<path class="st1" d="M149.3,113.8c0,0,0-0.1,0-0.2c0-0.2,0-0.3-0.2-0.3c-0.3,0-0.4,0.3-0.5,0.8c0,0.2-0.1,0.2-0.2,0.2
			c0,0-0.1,0-0.1-0.1c0,0,0.1-0.5,0.3-0.7c0.1-0.2,0.3-0.4,0.6-0.4c0.2,0,0.6,0.1,0.7,0.5c0.2-0.2,0.6-0.5,1-0.5c0.5,0,1,0.3,1,1.2
			c0,1-0.9,2-1.8,2c-0.4,0-0.6-0.3-0.7-0.4c-0.1,0.3-0.2,0.7-0.3,1c0,0.1-0.1,0.3-0.1,0.3c0,0.1,0.2,0.1,0.3,0.1
			c0.1,0,0.2,0,0.2,0.1c0,0.1-0.1,0.2-0.1,0.2c-0.2,0-0.5,0-0.7,0c-0.2,0-0.4,0-0.6,0c0,0-0.1,0-0.1-0.1c0-0.1,0.1-0.1,0.2-0.1
			c0.3,0,0.3-0.1,0.3-0.3L149.3,113.8z M149.5,115.3c0,0,0,0.1,0,0.1c0,0.1,0.1,0.6,0.6,0.6c0.4,0,0.7-0.3,0.9-0.7
			c0.2-0.4,0.4-1.1,0.4-1.4c0-0.5-0.2-0.7-0.5-0.7c-0.2,0-0.6,0.1-1,0.6L149.5,115.3z"/>
		<path class="st1" d="M153.2,116.1c-0.2,0-0.4-0.2-0.4-0.4c0-0.2,0.2-0.4,0.4-0.4c0.3,0,0.5,0.3,0.5,0.8c0,0.8-0.6,1.4-0.7,1.4
			c0,0-0.1,0-0.1-0.1c0,0,0-0.1,0-0.1c0.5-0.4,0.5-0.9,0.5-1.3C153.5,116,153.4,116.1,153.2,116.1z"/>
	</g>
	<g>
		<path class="st1" d="M155.8,113.4c0.2-0.2,0.5-0.4,0.9-0.4c0.5,0,1,0.3,1,1.2c0,1-0.9,2-1.8,2c-0.6,0-1-0.4-1-1.2
			c0-0.1,0-0.2,0-0.3c0-0.1,0.4-1.6,0.5-1.9l0.2-0.6c0-0.2,0.1-0.4,0.1-0.5c0-0.1,0-0.1-0.3-0.1c-0.1,0-0.2,0-0.2-0.1
			c0-0.1,0.1-0.2,0.2-0.2c0.2,0,0.8-0.1,0.9-0.1c0.1,0,0.1,0.1,0.1,0.1c0,0,0,0.1,0,0.1L155.8,113.4z M156.8,115.3
			c0.2-0.4,0.4-1.1,0.4-1.4c0-0.5-0.2-0.7-0.5-0.7c-0.3,0-0.6,0.2-0.8,0.5c-0.1,0.2-0.1,0.2-0.2,0.3c-0.2,0.8-0.3,1-0.3,1.3
			c0,0.4,0.2,0.7,0.5,0.7C156.3,116,156.6,115.7,156.8,115.3z"/>
	</g>
	<g>
		<path class="st1" d="M159.6,117.2v-10h1.4v0.4h-1v9.2h1v0.4H159.6z"/>
	</g>
	<g>
		<path class="st1" d="M162.6,111.8c0.1-0.5,0.2-0.6,0.2-0.8c0-0.3-0.1-0.5-0.3-0.5c-0.4,0-0.6,0.5-0.7,1.2
			c-0.1,0.2-0.1,0.2-0.2,0.2c0,0-0.1,0-0.1-0.1c0,0,0.1-0.6,0.3-1c0.1-0.2,0.3-0.6,0.7-0.6c0.5,0,0.9,0.3,0.9,0.9
			c0.2-0.2,0.7-0.9,1.6-0.9c0.7,0,1.1,0.4,1.1,1.1c0,0.6-0.4,1.7-0.6,2.2c-0.1,0.2-0.2,0.5-0.2,0.7c0,0.2,0.1,0.3,0.2,0.3
			c0.5,0,0.8-0.6,1-1.2c0-0.1,0-0.2,0.1-0.2c0,0,0.1,0,0.1,0.1c0,0.1-0.4,1.5-1.3,1.5c-0.5,0-0.8-0.3-0.8-0.8c0-0.1,0-0.2,0.1-0.5
			c0.2-0.4,0.6-1.7,0.6-2.3c0-0.3-0.1-0.7-0.5-0.7c-0.9,0-1.5,0.9-1.6,1.2c0,0-0.1,0.3-0.1,0.5c0,0.2-0.1,0.4-0.2,0.7l-0.2,0.9
			c-0.1,0.2-0.2,0.7-0.2,0.7c-0.1,0.2-0.2,0.3-0.4,0.3c-0.1,0-0.3-0.1-0.3-0.3c0,0,0.1-0.3,0.1-0.4L162.6,111.8z"/>
	</g>
	<g>
		<path class="st1" d="M168.7,117.2h-1.4v-0.4h1v-9.2h-1v-0.4h1.4V117.2z"/>
	</g>
	<g>
		<path class="st1" d="M193.2,191.9v-0.3l3.1-4.7c0.1-0.1,0.1-0.1,0.2-0.1c0.2,0,0.2,0.1,0.2,0.3v4.5h1v0.3h-1v0.9
			c0,0.4,0,0.5,0.8,0.5h0.2v0.3c-0.4,0-0.9,0-1.4,0c-0.4,0-0.9,0-1.3,0v-0.3h0.2c0.7,0,0.8-0.1,0.8-0.5v-0.9H193.2z M196,187.9
			l-2.4,3.7h2.4V187.9z"/>
		<path class="st1" d="M209.4,193.8c-1.1,0-1.8-1-1.8-1.8c0-0.5,0.3-0.5,0.5-0.5c0.3,0,0.5,0.2,0.5,0.5c0,0.2-0.2,0.5-0.5,0.5
			c-0.1,0-0.1,0-0.2,0c0.2,0.6,0.7,1.1,1.5,1.1c0.5,0,0.8-0.3,1.1-0.6c0.2-0.4,0.2-1,0.2-1.4c0-0.5,0-0.9-0.2-1.3
			c-0.1-0.2-0.3-0.6-0.8-0.6c-0.8,0-1.2,0.5-1.3,0.7c0,0.1-0.1,0.1-0.1,0.1c-0.1,0-0.1-0.1-0.1-0.3v-2.9c0-0.2,0-0.2,0.1-0.2
			c0,0,0,0,0.1,0c0.5,0.2,0.9,0.3,1.3,0.3c0.7,0,1.2-0.2,1.4-0.3c0,0,0.1,0,0.1,0c0.1,0,0.1,0,0.1,0.1c0,0.1-0.7,1-1.9,1
			c-0.3,0-0.6-0.1-0.8-0.1v1.9c0.4-0.3,0.8-0.5,1.3-0.5c1.1,0,1.9,1,1.9,2.2C211.6,192.8,210.6,193.8,209.4,193.8z"/>
	</g>
	<g>
		<path class="st1" d="M120.6,191.7v-0.6h2.6v0.6H120.6z"/>
		<path class="st1" d="M126.8,192.8c0,0.4,0,0.5,0.9,0.5h0.3v0.3c-0.3,0-1.2,0-1.6,0c-0.4,0-1.3,0-1.6,0v-0.3h0.3
			c0.9,0,0.9-0.1,0.9-0.5v-5.2c-0.5,0.3-1.1,0.3-1.3,0.3v-0.3c0.3,0,1.2,0,1.8-0.6c0.2,0,0.2,0,0.2,0.3V192.8z"/>
	</g>
	<g>
		<path class="st1" d="M106.4,191.7v-0.6h2.6v0.6H106.4z"/>
		<path class="st1" d="M112.7,192.8c0.2,0,0.9,0,0.9-0.1c0.1-0.1,0.2-0.6,0.2-0.9h0.2l-0.3,1.7h-3.7c0-0.2,0-0.3,0.1-0.4l1.9-2.1
			c0.5-0.6,1-1.4,1-2.2c0-0.8-0.4-1.6-1.3-1.6c-0.6,0-1.1,0.4-1.3,1c0,0,0,0,0.1,0c0.3,0,0.5,0.3,0.5,0.5c0,0.4-0.3,0.5-0.5,0.5
			c0,0-0.5,0-0.5-0.6c0-0.9,0.7-1.8,1.9-1.8c1.2,0,2.1,0.8,2.1,1.9c0,1-0.6,1.5-2.2,2.9l-1.1,1H112.7z"/>
	</g>
	<g>
		<path class="st1" d="M224,189.3c1.1,0,2,1,2,2.2c0,1.3-0.9,2.3-2.1,2.3c-0.9,0-2.1-0.7-2.1-3.4c0-2.2,1.3-3.5,2.6-3.5
			c0.8,0,1.3,0.5,1.3,1.1c0,0.4-0.3,0.5-0.5,0.5c-0.2,0-0.5-0.1-0.5-0.5c0-0.4,0.4-0.4,0.5-0.4c-0.2-0.3-0.6-0.4-0.9-0.4
			c-0.5,0-1.7,0.4-1.7,2.9v0.2C222.9,189.8,223.3,189.3,224,189.3z M224.9,192.8c0.2-0.4,0.2-0.9,0.2-1.3c0-0.5,0-1-0.2-1.4
			c-0.3-0.6-0.8-0.6-0.9-0.6c-0.9,0-1.2,1-1.2,1.8c0,0.2,0,1,0.2,1.4c0.1,0.1,0.4,0.7,1,0.7C224.1,193.5,224.6,193.4,224.9,192.8z"
			/>
		<path class="st1" d="M239,189.4c-0.4,0.6-0.6,1.5-0.6,1.7c-0.1,0.5-0.1,1.1-0.1,1.6v0.5c0,0.1,0,0.5-0.5,0.5s-0.5-0.4-0.5-0.5
			c0-1,0.3-2.4,1.2-3.7c0.2-0.3,1-1.4,1.1-1.6h-2.1c-0.1,0-0.9,0-1,0.1c-0.1,0.1-0.2,0.7-0.3,0.9h-0.2l0.3-2.1h0.2
			c0,0.2,0.1,0.3,1.3,0.3h2.4c0,0.2,0,0.2-0.1,0.3L239,189.4z"/>
		<path class="st1" d="M253.8,190.6c0.4,0.4,0.5,0.9,0.5,1.2c0,1.1-0.9,1.9-2.1,1.9c-1,0-2.1-0.7-2.1-1.7c0-1,0.9-1.5,1.4-1.8
			c-0.2-0.2-0.6-0.4-0.7-0.5c-0.4-0.5-0.4-0.9-0.4-1.1c0-0.9,0.8-1.7,1.8-1.7c0.9,0,1.8,0.6,1.8,1.5c0,0.7-0.5,1.2-1.2,1.5
			C253.4,190.3,253.6,190.4,253.8,190.6z M250.6,192c0,0.8,0.7,1.4,1.6,1.4c0.8,0,1.6-0.5,1.6-1.3c0-0.6-0.5-0.9-0.7-1.1l-1.2-0.8
			C251,190.8,250.6,191.5,250.6,192z M252.6,189.8c0.6-0.3,1-0.8,1-1.4c0-0.7-0.6-1.2-1.4-1.2c-0.7,0-1.4,0.4-1.4,1
			c0,0.2,0,0.5,0.5,0.8L252.6,189.8z"/>
	</g>
	<g>
		<path class="st1" d="M124.7,177.7c-1.1,0-1.9-0.9-1.9-1.9c0-1,0.9-1.9,1.9-1.9c1,0,1.9,0.9,1.9,1.9S125.7,177.7,124.7,177.7z"/>
	</g>
	<line class="st2" x1="124.6" y1="183.2" x2="124.6" y2="176.2"/>
	<g>
		<path class="st1" d="M110.5,170.7c-1.1,0-1.9-0.9-1.9-1.9c0-1,0.9-1.9,1.9-1.9c1,0,1.9,0.9,1.9,1.9S111.5,170.7,110.5,170.7z"/>
	</g>
	<line class="st3" x1="110.4" y1="183.2" x2="110.4" y2="169.1"/>
	<g>
		<path class="st1" d="M238.1,156.5c-1.1,0-1.9-0.9-1.9-1.9c0-1,0.9-1.9,1.9-1.9c1,0,1.9,0.9,1.9,1.9S239.1,156.5,238.1,156.5z"/>
	</g>
	<line class="st4" x1="238" y1="183.2" x2="238" y2="154.9"/>
	<g>
		<path class="st1" d="M252.2,135.3c-1.1,0-1.9-0.9-1.9-1.9c0-1,0.9-1.9,1.9-1.9c1,0,1.9,0.9,1.9,1.9S253.3,135.3,252.2,135.3z"/>
	</g>
	<line class="st5" x1="252.2" y1="183.2" x2="252.2" y2="133.6"/>
	<g>
		<path class="st1" d="M138.8,156.5c-1.1,0-1.9-0.9-1.9-1.9c0-1,0.9-1.9,1.9-1.9c1,0,1.9,0.9,1.9,1.9S139.9,156.5,138.8,156.5z"/>
	</g>
	<line class="st6" x1="138.8" y1="183.2" x2="138.8" y2="154.9"/>
	<g>
		<path class="st1" d="M153,135.3c-1.1,0-1.9-0.9-1.9-1.9c0-1,0.9-1.9,1.9-1.9c1,0,1.9,0.9,1.9,1.9S154,135.3,153,135.3z"/>
	</g>
	<line class="st6" x1="153" y1="183.2" x2="153" y2="133.6"/>
	<g>
		<path class="st1" d="M167.1,121.1c-1.1,0-1.9-0.9-1.9-1.9c0-1,0.9-1.9,1.9-1.9c1,0,1.9,0.9,1.9,1.9S168.2,121.1,167.1,121.1z"/>
	</g>
	<line class="st6" x1="167.1" y1="183.2" x2="167.1" y2="119.5"/>
	<g>
		<path class="st1" d="M181.3,128.2c-1.1,0-1.9-0.9-1.9-1.9c0-1,0.9-1.9,1.9-1.9c1,0,1.9,0.9,1.9,1.9S182.3,128.2,181.3,128.2z"/>
	</g>
	<line class="st6" x1="181.3" y1="183.2" x2="181.3" y2="126.5"/>
	<g>
		<path class="st1" d="M195.5,149.4c-1.1,0-1.9-0.9-1.9-1.9c0-1,0.9-1.9,1.9-1.9c1,0,1.9,0.9,1.9,1.9S196.5,149.4,195.5,149.4z"/>
	</g>
	<line class="st6" x1="195.5" y1="183.2" x2="195.5" y2="147.8"/>
	<g>
		<path class="st1" d="M209.6,170.7c-1.1,0-1.9-0.9-1.9-1.9c0-1,0.9-1.9,1.9-1.9c1,0,1.9,0.9,1.9,1.9S210.7,170.7,209.6,170.7z"/>
	</g>
	<line class="st6" x1="209.6" y1="183.2" x2="209.6" y2="169.1"/>
	<g>
		<path class="st1" d="M223.9,177.7c-1.1,0-1.9-0.9-1.9-1.9c0-1,0.9-1.9,1.9-1.9c1,0,1.9,0.9,1.9,1.9S224.9,177.7,223.9,177.7z"/>
	</g>
	<line class="st6" x1="223.8" y1="183.2" x2="223.8" y2="176.2"/>
	<g>
		<path class="st1" d="M172.3,203.8c0,0.2,0,0.2-0.2,0.2c-0.1,0-0.1,0-0.2-0.2l-2.5-5.9c0-0.1,0-0.1-0.1-0.2l-1.3,5.3
			c0,0.1,0,0.2,0,0.2c0,0.2,0.1,0.4,0.7,0.4c0.1,0,0.2,0,0.2,0.1c0,0.2-0.1,0.2-0.2,0.2c-0.3,0-0.7,0-1,0c-0.3,0-0.7,0-1,0
			c-0.1,0-0.1,0-0.1-0.1c0-0.2,0.1-0.2,0.2-0.2c0.8,0,1-0.3,1.1-0.7l1.3-5.4c0-0.1-0.6-0.1-0.7-0.1c-0.2,0-0.3,0-0.3-0.1
			c0-0.2,0.1-0.2,0.3-0.2h1.3c0.2,0,0.2,0,0.3,0.2l2.2,5.2l1.1-4.4c0,0,0-0.2,0-0.2c0-0.2-0.1-0.4-0.7-0.4c-0.1,0-0.2,0-0.2-0.1
			c0-0.2,0.1-0.2,0.2-0.2c0.3,0,0.7,0,1,0c0.3,0,0.7,0,1,0c0.1,0,0.1,0.1,0.1,0.1c0,0.2-0.1,0.2-0.2,0.2c-0.8,0-1,0.3-1.1,0.7
			L172.3,203.8z"/>
	</g>
	<g>
		<path class="st1" d="M179,200.7c-0.1,0-0.3,0-0.3-0.2c0-0.2,0.2-0.2,0.3-0.2h6c0.1,0,0.3,0,0.3,0.2c0,0.2-0.2,0.2-0.3,0.2H179z
			 M179,202.7c-0.1,0-0.3,0-0.3-0.2s0.2-0.2,0.3-0.2h5.9c0.1,0,0.3,0,0.3,0.2s-0.2,0.2-0.3,0.2H179z"/>
		<path class="st1" d="M191.9,199.8c-0.4,0.6-0.6,1.5-0.6,1.7c-0.1,0.5-0.1,1.1-0.1,1.6v0.5c0,0.1,0,0.5-0.5,0.5s-0.5-0.4-0.5-0.5
			c0-1,0.3-2.4,1.2-3.7c0.2-0.3,1-1.4,1.1-1.6h-2.1c-0.1,0-0.9,0-1,0.1c-0.1,0.1-0.2,0.7-0.3,0.9h-0.2l0.3-2.1h0.2
			c0,0.2,0.1,0.3,1.3,0.3h2.4c0,0.2,0,0.2-0.1,0.3L191.9,199.8z"/>
	</g>
	<polyline points="134.8,198.4 130.2,200.7 134.8,202.9 133.6,200.7 	"/>
	<line class="st0" x1="133.6" y1="200.7" x2="158.6" y2="200.7"/>
	<polyline points="224.9,202.9 229.4,200.7 224.9,198.4 226,200.7 	"/>
	<line class="st0" x1="201.1" y1="200.7" x2="226" y2="200.7"/>
	<polyline points="148.4,50.9 153,48.6 148.4,46.3 149.5,48.6 	"/>
	<line class="st0" x1="0.6" y1="48.6" x2="149.5" y2="48.6"/>
	<polyline points="34.7,10.6 32.5,6.1 30.2,10.6 32.5,9.5 	"/>
	<line class="st0" x1="32.5" y1="52.1" x2="32.5" y2="9.5"/>
	<g>
		<path class="st1" d="M154.9,47.9c0.1-0.5,0.2-0.6,0.2-0.8c0-0.3-0.1-0.5-0.3-0.5c-0.4,0-0.6,0.5-0.7,1.2C154,48,154,48,153.9,48
			c0,0-0.1,0-0.1-0.1c0,0,0.1-0.6,0.3-1c0.1-0.2,0.3-0.6,0.7-0.6c0.5,0,0.9,0.3,0.9,0.9c0.2-0.2,0.7-0.9,1.6-0.9
			c0.7,0,1.1,0.4,1.1,1.1c0,0.6-0.4,1.7-0.6,2.2c-0.1,0.2-0.2,0.5-0.2,0.7c0,0.2,0.1,0.3,0.2,0.3c0.5,0,0.8-0.6,1-1.2
			c0-0.1,0-0.2,0.1-0.2c0,0,0.1,0,0.1,0.1c0,0.1-0.4,1.5-1.3,1.5c-0.5,0-0.8-0.3-0.8-0.8c0-0.1,0-0.2,0.1-0.5
			c0.2-0.4,0.6-1.7,0.6-2.3c0-0.3-0.1-0.7-0.5-0.7c-0.9,0-1.5,0.9-1.6,1.2c0,0-0.1,0.3-0.1,0.5c0,0.2-0.1,0.4-0.2,0.7l-0.2,0.9
			c-0.1,0.2-0.2,0.7-0.2,0.7c-0.1,0.2-0.2,0.3-0.4,0.3c-0.1,0-0.3-0.1-0.3-0.3c0-0.1,0.1-0.3,0.1-0.4L154.9,47.9z"/>
	</g>
	<g>
		<path class="st1" d="M34.2,58c-0.4,0.9-1.2,1.2-1.7,1.2c-0.5,0-1.2-0.2-1.6-1c-0.4-0.8-0.4-1.7-0.4-2.4c0-0.8,0-1.6,0.4-2.3
			c0.4-0.9,1.1-1.2,1.7-1.2c0.4,0,1.2,0.2,1.7,1.1c0.3,0.7,0.4,1.5,0.4,2.3C34.6,56.5,34.5,57.3,34.2,58z M33.7,57.7
			c0.1-0.6,0.1-1.3,0.1-2.1c0-0.6,0-1.4-0.1-1.9c-0.2-1-0.8-1.2-1.2-1.2c-0.2,0-1,0.1-1.2,1.3c-0.1,0.5-0.1,1.2-0.1,1.8
			c0,0.6,0,1.5,0.1,2.1c0.2,1,0.8,1.2,1.2,1.2C32.9,58.9,33.5,58.6,33.7,57.7z"/>
		<path class="st1" d="M47.1,58.1c0,0.4,0,0.5,0.9,0.5h0.3v0.3c-0.3,0-1.2,0-1.6,0c-0.4,0-1.3,0-1.6,0v-0.3h0.3
			c0.9,0,0.9-0.1,0.9-0.5V53c-0.5,0.3-1.1,0.3-1.3,0.3v-0.3c0.3,0,1.2,0,1.8-0.6c0.2,0,0.2,0,0.2,0.3V58.1z"/>
		<path class="st1" d="M61.4,58.1c0.2,0,0.9,0,0.9-0.1c0.1-0.1,0.2-0.6,0.2-0.9h0.2l-0.3,1.7h-3.7c0-0.2,0-0.3,0.1-0.4l1.9-2.1
			c0.5-0.6,1-1.4,1-2.2c0-0.8-0.4-1.6-1.3-1.6c-0.6,0-1.1,0.4-1.3,1c0,0,0,0,0.1,0c0.3,0,0.5,0.3,0.5,0.5c0,0.4-0.3,0.5-0.5,0.5
			c0,0-0.5,0-0.5-0.6c0-0.9,0.7-1.8,1.9-1.8c1.2,0,2.1,0.8,2.1,1.9c0,1-0.6,1.5-2.2,2.9l-1.1,1H61.4z"/>
		<path class="st1" d="M77,57.2c0,1-0.9,1.9-2.1,1.9c-1.1,0-2-0.7-2-1.6c0-0.4,0.3-0.6,0.6-0.6c0.3,0,0.6,0.2,0.6,0.6
			c0,0.4-0.3,0.6-0.7,0.5c0.3,0.6,1.1,0.8,1.5,0.8c0.4,0,1.1-0.3,1.1-1.6c0-1-0.4-1.7-1.2-1.7h-0.4c-0.2,0-0.2,0-0.2-0.1
			c0-0.1,0.1-0.1,0.1-0.1c0.1,0,0.3,0,0.4,0c0.2,0,0.6,0,0.9-0.5c0.3-0.4,0.3-1,0.3-1.1c0-0.9-0.5-1.1-1-1.1c-0.4,0-1,0.1-1.3,0.6
			c0.1,0,0.6,0,0.6,0.5c0,0.3-0.2,0.5-0.5,0.5c-0.3,0-0.5-0.2-0.5-0.5c0-0.8,0.8-1.4,1.8-1.4c1,0,1.8,0.6,1.8,1.4
			c0,0.8-0.6,1.5-1.4,1.8C76.4,55.6,77,56.4,77,57.2z"/>
	</g>
	<g>
		<path class="st1" d="M25.9,22.6c0,0.4,0,0.5,0.9,0.5h0.3v0.3c-0.3,0-1.2,0-1.6,0c-0.4,0-1.3,0-1.6,0v-0.3h0.3
			c0.9,0,0.9-0.1,0.9-0.5v-5.2c-0.5,0.3-1.1,0.3-1.3,0.3v-0.3c0.3,0,1.2,0,1.8-0.6c0.2,0,0.2,0,0.2,0.3V22.6z"/>
	</g>
	<g>
		<path class="st1" d="M42.1,4.7C42.4,4.3,42.9,4,43.5,4c0.7,0,1.1,0.4,1.1,1.1c0,0.6-0.4,1.8-0.6,2.2c-0.1,0.2-0.2,0.5-0.2,0.7
			c0,0.2,0.1,0.3,0.2,0.3c0.5,0,0.9-0.7,1-1.2c0-0.1,0-0.2,0.1-0.2c0,0,0.1,0,0.1,0.1c0,0.1-0.4,1.5-1.3,1.5c-0.5,0-0.8-0.3-0.8-0.8
			c0-0.2,0-0.3,0.1-0.5C43.7,6.5,44,5.4,44,4.9c0-0.4-0.1-0.7-0.5-0.7c-0.4,0-0.7,0.2-1,0.3c-0.3,0.3-0.6,0.8-0.7,0.9
			c0,0.1-0.1,0.4-0.1,0.4c0,0.2-0.1,0.4-0.2,0.7l-0.2,0.9l-0.2,0.8c0,0.1-0.2,0.3-0.4,0.3c-0.1,0-0.3,0-0.3-0.3c0-0.1,0-0.1,0-0.2
			L42,2.3l0-0.2c0-0.1,0-0.2-0.5-0.2c-0.1,0-0.2,0-0.2-0.1c0-0.2,0.1-0.2,0.2-0.2c0.3,0,1-0.1,1.2-0.1c0.1,0,0.1,0.1,0.1,0.1
			L42.1,4.7z"/>
	</g>
	<g>
		<path class="st1" d="M47,7.5c0,0,0-0.1,0-0.2c0-0.2,0-0.3-0.2-0.3c-0.3,0-0.4,0.3-0.5,0.8c0,0.2-0.1,0.2-0.2,0.2
			c0,0-0.1,0-0.1-0.1c0,0,0.1-0.5,0.3-0.7c0.1-0.2,0.3-0.4,0.6-0.4c0.2,0,0.6,0.1,0.7,0.5c0.2-0.2,0.6-0.5,1-0.5c0.5,0,1,0.3,1,1.2
			c0,1-0.9,2-1.8,2c-0.4,0-0.6-0.3-0.7-0.4c-0.1,0.3-0.2,0.7-0.3,1c0,0.1-0.1,0.3-0.1,0.3c0,0.1,0.2,0.1,0.3,0.1
			c0.1,0,0.2,0,0.2,0.1c0,0.1-0.1,0.2-0.1,0.2c-0.2,0-0.5,0-0.7,0c-0.2,0-0.4,0-0.6,0c0,0-0.1,0-0.1-0.1c0-0.1,0.1-0.1,0.2-0.1
			c0.3,0,0.3-0.1,0.3-0.3L47,7.5z M47.2,9c0,0,0,0.1,0,0.1c0,0.1,0.1,0.6,0.6,0.6c0.4,0,0.7-0.3,0.9-0.7c0.2-0.4,0.4-1.1,0.4-1.4
			c0-0.5-0.2-0.7-0.5-0.7c-0.2,0-0.6,0.1-1,0.6L47.2,9z"/>
		<path class="st1" d="M51,9.8c-0.2,0-0.4-0.2-0.4-0.4C50.6,9.2,50.8,9,51,9c0.3,0,0.5,0.3,0.5,0.8c0,0.8-0.6,1.4-0.7,1.4
			c0,0-0.1,0-0.1-0.1c0,0,0-0.1,0-0.1c0.5-0.4,0.5-0.9,0.5-1.3C51.3,9.7,51.2,9.8,51,9.8z"/>
	</g>
	<g>
		<path class="st1" d="M53.6,7.1c0.2-0.2,0.5-0.4,0.9-0.4c0.5,0,1,0.3,1,1.2c0,1-0.9,2-1.8,2c-0.6,0-1-0.4-1-1.2c0-0.1,0-0.2,0-0.3
			c0-0.1,0.4-1.6,0.5-1.9l0.2-0.6c0-0.2,0.1-0.4,0.1-0.5c0-0.1,0-0.1-0.3-0.1c-0.1,0-0.2,0-0.2-0.1c0-0.1,0.1-0.2,0.2-0.2
			C53.2,5,53.8,5,54,5C54,5,54.1,5,54.1,5.1c0,0,0,0.1,0,0.1L53.6,7.1z M54.6,9c0.2-0.4,0.4-1.1,0.4-1.4c0-0.5-0.2-0.7-0.5-0.7
			c-0.3,0-0.6,0.2-0.8,0.5c-0.1,0.2-0.1,0.2-0.2,0.3c-0.2,0.8-0.3,1-0.3,1.3c0,0.4,0.2,0.7,0.5,0.7C54.1,9.7,54.4,9.4,54.6,9z"/>
	</g>
	<g>
		<path class="st1" d="M57.3,10.9v-10h1.4v0.4h-1v9.2h1v0.4H57.3z"/>
	</g>
	<g>
		<path class="st1" d="M60.4,5.5c0.1-0.5,0.2-0.6,0.2-0.8c0-0.3-0.1-0.5-0.3-0.5c-0.4,0-0.6,0.5-0.7,1.2c-0.1,0.2-0.1,0.2-0.2,0.2
			c0,0-0.1,0-0.1-0.1c0,0,0.1-0.6,0.3-1C59.6,4.4,59.8,4,60.3,4c0.5,0,0.9,0.3,0.9,0.9C61.4,4.6,61.8,4,62.7,4
			c0.7,0,1.1,0.4,1.1,1.1c0,0.6-0.4,1.7-0.6,2.2c-0.1,0.2-0.2,0.5-0.2,0.7c0,0.2,0.1,0.3,0.2,0.3c0.5,0,0.8-0.6,1-1.2
			c0-0.1,0-0.2,0.1-0.2c0,0,0.1,0,0.1,0.1c0,0.1-0.4,1.5-1.3,1.5c-0.5,0-0.8-0.3-0.8-0.8c0-0.1,0-0.2,0.1-0.5
			c0.2-0.4,0.6-1.7,0.6-2.3c0-0.3-0.1-0.7-0.5-0.7c-0.9,0-1.5,0.9-1.6,1.2c0,0-0.1,0.3-0.1,0.5c0,0.2-0.1,0.4-0.2,0.7l-0.2,0.9
			c-0.1,0.2-0.2,0.7-0.2,0.7c-0.1,0.2-0.2,0.3-0.4,0.3c-0.1,0-0.3-0.1-0.3-0.3c0-0.1,0.1-0.3,0.1-0.4L60.4,5.5z"/>
	</g>
	<g>
		<path class="st1" d="M66.5,10.9h-1.4v-0.4h1V1.3h-1V0.9h1.4V10.9z"/>
	</g>
	<line class="st0" x1="28.9" y1="20.2" x2="36" y2="20.2"/>
	<g>
		<path class="st1" d="M87,57.3v-0.3l3.1-4.7c0.1-0.1,0.1-0.1,0.2-0.1c0.2,0,0.2,0.1,0.2,0.3v4.5h1v0.3h-1v0.9c0,0.4,0,0.5,0.8,0.5
			h0.2v0.3c-0.4,0-0.9,0-1.4,0s-0.9,0-1.3,0v-0.3h0.2c0.7,0,0.8-0.1,0.8-0.5v-0.9H87z M89.8,53.2l-2.4,3.7h2.4V53.2z"/>
		<path class="st1" d="M103.2,59.1c-1.1,0-1.8-1-1.8-1.8c0-0.5,0.3-0.5,0.5-0.5c0.3,0,0.5,0.2,0.5,0.5s-0.2,0.5-0.5,0.5
			c-0.1,0-0.1,0-0.2,0c0.2,0.6,0.7,1.1,1.5,1.1c0.5,0,0.8-0.3,1.1-0.6c0.2-0.4,0.2-1,0.2-1.4c0-0.5,0-0.9-0.2-1.3
			c-0.1-0.2-0.3-0.6-0.8-0.6c-0.8,0-1.2,0.5-1.3,0.7c0,0.1-0.1,0.1-0.1,0.1c-0.1,0-0.1-0.1-0.1-0.3v-2.9c0-0.2,0-0.2,0.1-0.2
			c0,0,0,0,0.1,0c0.5,0.2,0.9,0.3,1.3,0.3c0.7,0,1.2-0.2,1.4-0.3c0,0,0.1,0,0.1,0c0.1,0,0.1,0,0.1,0.1c0,0.1-0.7,1-1.9,1
			c-0.3,0-0.6-0.1-0.8-0.1v1.9c0.4-0.3,0.8-0.5,1.3-0.5c1.1,0,1.9,1,1.9,2.2C105.4,58.2,104.4,59.1,103.2,59.1z"/>
	</g>
	<g>
		<path class="st1" d="M14.3,57v-0.6h2.6V57H14.3z"/>
		<path class="st1" d="M20.5,58.1c0,0.4,0,0.5,0.9,0.5h0.3v0.3c-0.3,0-1.2,0-1.6,0c-0.4,0-1.3,0-1.6,0v-0.3h0.3
			c0.9,0,0.9-0.1,0.9-0.5V53c-0.5,0.3-1.1,0.3-1.3,0.3v-0.3c0.3,0,1.2,0,1.8-0.6c0.2,0,0.2,0,0.2,0.3V58.1z"/>
	</g>
	<g>
		<path class="st1" d="M0.1,57v-0.6h2.6V57H0.1z"/>
		<path class="st1" d="M6.4,58.1c0.2,0,0.9,0,0.9-0.1c0.1-0.1,0.2-0.6,0.2-0.9h0.2l-0.3,1.7H3.9c0-0.2,0-0.3,0.1-0.4l1.9-2.1
			c0.5-0.6,1-1.4,1-2.2c0-0.8-0.4-1.6-1.3-1.6c-0.6,0-1.1,0.4-1.3,1c0,0,0,0,0.1,0c0.3,0,0.5,0.3,0.5,0.5c0,0.4-0.3,0.5-0.5,0.5
			c0,0-0.5,0-0.5-0.6c0-0.9,0.7-1.8,1.9-1.8c1.2,0,2.1,0.8,2.1,1.9c0,1-0.6,1.5-2.2,2.9l-1.1,1H6.4z"/>
	</g>
	<line class="st0" x1="28.9" y1="34.4" x2="36" y2="34.4"/>
	<g>
		<path class="st1" d="M117.6,54.6c1.1,0,2,1,2,2.2c0,1.3-0.9,2.3-2.1,2.3c-0.9,0-2.1-0.7-2.1-3.4c0-2.2,1.3-3.5,2.6-3.5
			c0.8,0,1.3,0.5,1.3,1.1c0,0.4-0.3,0.5-0.5,0.5c-0.2,0-0.5-0.1-0.5-0.5c0-0.4,0.4-0.4,0.5-0.4c-0.2-0.3-0.6-0.4-0.9-0.4
			c-0.5,0-1.7,0.4-1.7,2.9v0.2C116.6,55.2,117,54.6,117.6,54.6z M118.6,58.2c0.2-0.4,0.2-0.9,0.2-1.3c0-0.5,0-1-0.2-1.4
			c-0.3-0.6-0.8-0.6-0.9-0.6c-0.9,0-1.2,1-1.2,1.8c0,0.2,0,1,0.2,1.4c0.1,0.1,0.4,0.7,1,0.7C117.8,58.8,118.3,58.8,118.6,58.2z"/>
		<path class="st1" d="M132.6,54.7c-0.4,0.6-0.6,1.5-0.6,1.7c-0.1,0.5-0.1,1.1-0.1,1.6v0.5c0,0.1,0,0.5-0.5,0.5
			c-0.5,0-0.5-0.4-0.5-0.5c0-1,0.3-2.4,1.2-3.7c0.2-0.3,1-1.4,1.1-1.6h-2.1c-0.1,0-0.9,0-1,0.1c-0.1,0.1-0.2,0.7-0.2,0.9h-0.2
			l0.3-2.1h0.2c0,0.2,0.1,0.3,1.3,0.3h2.4c0,0.2,0,0.2-0.1,0.3L132.6,54.7z"/>
		<path class="st1" d="M147.5,56c0.4,0.4,0.5,0.9,0.5,1.2c0,1.1-0.9,1.9-2.1,1.9c-1,0-2.1-0.7-2.1-1.7c0-1,0.9-1.5,1.4-1.8
			c-0.2-0.2-0.6-0.4-0.7-0.5c-0.4-0.5-0.4-0.9-0.4-1.1c0-0.9,0.8-1.7,1.8-1.7c0.9,0,1.8,0.6,1.8,1.5c0,0.7-0.5,1.2-1.2,1.5
			C147.1,55.7,147.3,55.8,147.5,56z M144.3,57.4c0,0.8,0.7,1.4,1.6,1.4c0.8,0,1.6-0.5,1.6-1.3c0-0.6-0.5-0.9-0.7-1.1l-1.2-0.8
			C144.6,56.2,144.3,56.8,144.3,57.4z M146.3,55.1c0.6-0.3,1-0.8,1-1.4c0-0.7-0.6-1.2-1.4-1.2c-0.7,0-1.4,0.4-1.4,1
			c0,0.2,0,0.5,0.5,0.8L146.3,55.1z"/>
	</g>
	<g>
		<path class="st1" d="M60.8,36c-1.1,0-1.9-0.9-1.9-1.9c0-1,0.9-1.9,1.9-1.9c1,0,1.9,0.9,1.9,1.9C62.8,35.2,61.9,36,60.8,36z"/>
	</g>
	<line class="st6" x1="60.8" y1="48.6" x2="60.8" y2="34.4"/>
	<g>
		<path class="st1" d="M32.5,21.9c-1.1,0-1.9-0.9-1.9-1.9c0-1,0.9-1.9,1.9-1.9c1,0,1.9,0.9,1.9,1.9C34.4,21,33.5,21.9,32.5,21.9z"/>
	</g>
	<line class="st6" x1="32.5" y1="48.6" x2="32.5" y2="20.2"/>
	<g>
		<path class="st1" d="M46.7,28.9c-1.1,0-1.9-0.9-1.9-1.9c0-1,0.9-1.9,1.9-1.9c1,0,1.9,0.9,1.9,1.9C48.6,28.1,47.7,28.9,46.7,28.9z"
			/>
	</g>
	<line class="st6" x1="46.7" y1="48.6" x2="46.7" y2="27.3"/>
	<g>
		<path class="st1" d="M75,43.1c-1.1,0-1.9-0.9-1.9-1.9c0-1,0.9-1.9,1.9-1.9c1,0,1.9,0.9,1.9,1.9C76.9,42.2,76,43.1,75,43.1z"/>
	</g>
	<line class="st6" x1="75" y1="48.6" x2="75" y2="41.5"/>
	<g>
		<path class="st7" d="M89.3,50.2c-1.1,0-1.9-0.9-1.9-1.9c0-1,0.9-1.9,1.9-1.9c1,0,1.9,0.9,1.9,1.9C91.2,49.3,90.3,50.2,89.3,50.2z"
			/>
		<path class="st7" d="M103.4,50.2c-1.1,0-1.9-0.9-1.9-1.9c0-1,0.9-1.9,1.9-1.9c1,0,1.9,0.9,1.9,1.9
			C105.3,49.3,104.5,50.2,103.4,50.2z"/>
		<path class="st7" d="M117.6,50.2c-1.1,0-1.9-0.9-1.9-1.9c0-1,0.9-1.9,1.9-1.9c1,0,1.9,0.9,1.9,1.9
			C119.5,49.3,118.6,50.2,117.6,50.2z"/>
	</g>
	<g>
		<path class="st1" d="M4.2,50.2c-1.1,0-1.9-0.9-1.9-1.9c0-1,0.9-1.9,1.9-1.9c1,0,1.9,0.9,1.9,1.9C6.1,49.3,5.2,50.2,4.2,50.2z"/>
		<path class="st1" d="M18.3,50.2c-1.1,0-1.9-0.9-1.9-1.9c0-1,0.9-1.9,1.9-1.9c1,0,1.9,0.9,1.9,1.9C20.3,49.3,19.4,50.2,18.3,50.2z"
			/>
	</g>
	<g>
		<path class="st1" d="M131.7,21.9c-1.1,0-1.9-0.9-1.9-1.9c0-1,0.9-1.9,1.9-1.9c1,0,1.9,0.9,1.9,1.9C133.7,21,132.8,21.9,131.7,21.9
			z"/>
	</g>
	<line class="st4" x1="131.7" y1="48.6" x2="131.7" y2="20.2"/>
	<g>
		<path class="st1" d="M145.9,28.9c-1.1,0-1.9-0.9-1.9-1.9c0-1,0.9-1.9,1.9-1.9c1,0,1.9,0.9,1.9,1.9
			C147.8,28.1,146.9,28.9,145.9,28.9z"/>
	</g>
	<line class="st8" x1="145.9" y1="48.6" x2="145.9" y2="27.3"/>
	<g>
		<path class="st1" d="M67.5,69.5c0,0.2,0,0.2-0.2,0.2c-0.1,0-0.1,0-0.2-0.2l-2.5-5.9c0-0.1,0-0.1-0.1-0.2l-1.3,5.3
			c0,0.1,0,0.2,0,0.2c0,0.2,0.1,0.4,0.7,0.4c0.1,0,0.2,0,0.2,0.1c0,0.2-0.1,0.2-0.2,0.2c-0.3,0-0.7,0-1,0c-0.3,0-0.7,0-1,0
			c-0.1,0-0.1,0-0.1-0.1c0-0.2,0.1-0.2,0.2-0.2c0.8,0,1-0.3,1.1-0.7l1.3-5.4c0-0.1-0.6-0.1-0.7-0.1c-0.2,0-0.3,0-0.3-0.1
			c0-0.2,0.1-0.2,0.3-0.2H65c0.2,0,0.2,0,0.3,0.2l2.2,5.2l1.1-4.4c0,0,0-0.2,0-0.2c0-0.2-0.1-0.4-0.7-0.4c-0.1,0-0.2,0-0.2-0.1
			c0-0.2,0.1-0.2,0.2-0.2c0.3,0,0.7,0,1,0c0.3,0,0.7,0,1,0c0.1,0,0.1,0.1,0.1,0.1c0,0.2-0.1,0.2-0.2,0.2c-0.8,0-1,0.3-1.1,0.7
			L67.5,69.5z"/>
	</g>
	<g>
		<path class="st1" d="M74.1,66.4c-0.1,0-0.3,0-0.3-0.2S74,66,74.1,66h6c0.1,0,0.3,0,0.3,0.2s-0.2,0.2-0.3,0.2H74.1z M74.1,68.4
			c-0.1,0-0.3,0-0.3-0.2S74,68,74.1,68H80c0.1,0,0.3,0,0.3,0.2s-0.2,0.2-0.3,0.2H74.1z"/>
		<path class="st1" d="M87.2,65.5c-0.4,0.6-0.6,1.5-0.6,1.7c-0.1,0.5-0.1,1.1-0.1,1.6v0.5c0,0.1,0,0.5-0.5,0.5s-0.5-0.4-0.5-0.5
			c0-1,0.3-2.4,1.2-3.7c0.2-0.3,1-1.4,1.1-1.6h-2.1c-0.1,0-0.9,0-1,0.1c-0.1,0.1-0.2,0.7-0.2,0.9h-0.2l0.3-2.1h0.2
			c0,0.2,0.1,0.3,1.3,0.3h2.4c0,0.2,0,0.2-0.1,0.3L87.2,65.5z"/>
	</g>
	<polyline points="29.9,64 25.4,66.3 29.9,68.6 28.8,66.3 	"/>
	<line class="st0" x1="28.8" y1="66.3" x2="53.7" y2="66.3"/>
	<polyline points="120.1,68.6 124.6,66.3 120.1,64 121.2,66.3 	"/>
	<line class="st0" x1="96.3" y1="66.3" x2="121.2" y2="66.3"/>
	<polyline points="353.9,50.9 358.5,48.6 353.9,46.3 355.1,48.6 	"/>
	<line class="st0" x1="202.6" y1="48.6" x2="355.1" y2="48.6"/>
	<polyline points="240.3,10.6 238,6.1 235.7,10.6 238,9.5 	"/>
	<line class="st0" x1="238" y1="52.1" x2="238" y2="9.5"/>
	<g>
		<path class="st1" d="M367.6,47.9c0.1-0.5,0.2-0.6,0.2-0.8c0-0.3-0.1-0.5-0.3-0.5c-0.4,0-0.6,0.5-0.7,1.2c-0.1,0.2-0.1,0.2-0.2,0.2
			c0,0-0.1,0-0.1-0.1c0,0,0.1-0.6,0.3-1c0.1-0.2,0.3-0.6,0.7-0.6c0.5,0,0.9,0.3,0.9,0.9c0.2-0.2,0.7-0.9,1.6-0.9
			c0.7,0,1.1,0.4,1.1,1.1c0,0.6-0.4,1.7-0.6,2.2c-0.1,0.2-0.2,0.5-0.2,0.7c0,0.2,0.1,0.3,0.2,0.3c0.5,0,0.8-0.6,1-1.2
			c0.1-0.1,0.1-0.2,0.2-0.2c0,0,0.1,0,0.1,0.1c0,0.1-0.4,1.5-1.3,1.5c-0.5,0-0.8-0.3-0.8-0.8c0-0.1,0-0.2,0.1-0.5
			c0.2-0.4,0.6-1.7,0.6-2.3c0-0.3-0.1-0.7-0.5-0.7c-0.9,0-1.5,0.9-1.6,1.2c0,0-0.1,0.3-0.1,0.5c0,0.2-0.1,0.4-0.2,0.7l-0.2,0.9
			c-0.1,0.2-0.2,0.7-0.2,0.7c-0.1,0.2-0.2,0.3-0.4,0.3c-0.1,0-0.3-0.1-0.3-0.3c0-0.1,0.1-0.3,0.1-0.4L367.6,47.9z"/>
	</g>
	<g>
		<path class="st1" d="M239.8,58c-0.4,0.9-1.2,1.2-1.7,1.2c-0.5,0-1.2-0.2-1.6-1c-0.4-0.8-0.4-1.7-0.4-2.4c0-0.8,0-1.6,0.4-2.3
			c0.4-0.9,1.1-1.2,1.7-1.2c0.4,0,1.2,0.2,1.7,1.1c0.3,0.7,0.4,1.5,0.4,2.3C240.2,56.5,240.1,57.3,239.8,58z M239.2,57.7
			c0.1-0.6,0.1-1.3,0.1-2.1c0-0.6,0-1.4-0.1-1.9c-0.2-1-0.8-1.2-1.2-1.2c-0.2,0-1,0.1-1.2,1.3c-0.1,0.5-0.1,1.2-0.1,1.8
			c0,0.6,0,1.5,0.1,2.1c0.2,1,0.8,1.2,1.2,1.2C238.5,58.9,239.1,58.6,239.2,57.7z"/>
		<path class="st1" d="M252.7,58.1c0,0.4,0,0.5,0.9,0.5h0.3v0.3c-0.3,0-1.2,0-1.6,0s-1.3,0-1.6,0v-0.3h0.3c0.9,0,0.9-0.1,0.9-0.5V53
			c-0.5,0.3-1.1,0.3-1.3,0.3v-0.3c0.3,0,1.2,0,1.8-0.6c0.2,0,0.2,0,0.2,0.3V58.1z"/>
		<path class="st1" d="M266.9,58.1c0.2,0,0.9,0,0.9-0.1c0.1-0.1,0.2-0.6,0.2-0.9h0.2l-0.3,1.7h-3.7c0-0.2,0-0.3,0.1-0.4l1.9-2.1
			c0.5-0.6,1-1.4,1-2.2c0-0.8-0.4-1.6-1.3-1.6c-0.6,0-1.1,0.4-1.3,1c0,0,0,0,0.1,0c0.3,0,0.5,0.3,0.5,0.5c0,0.4-0.3,0.5-0.5,0.5
			c0,0-0.5,0-0.5-0.6c0-0.9,0.7-1.8,1.9-1.8c1.2,0,2.1,0.8,2.1,1.9c0,1-0.6,1.5-2.2,2.9l-1.1,1H266.9z"/>
		<path class="st1" d="M282.6,57.2c0,1-0.9,1.9-2.1,1.9c-1.1,0-2-0.7-2-1.6c0-0.4,0.3-0.6,0.6-0.6c0.3,0,0.6,0.2,0.6,0.6
			c0,0.4-0.3,0.6-0.7,0.5c0.3,0.6,1.1,0.8,1.5,0.8c0.4,0,1.1-0.3,1.1-1.6c0-1-0.4-1.7-1.2-1.7h-0.4c-0.2,0-0.2,0-0.2-0.1
			c0-0.1,0.1-0.1,0.1-0.1c0.1,0,0.3,0,0.4,0c0.2,0,0.6,0,0.9-0.5c0.3-0.4,0.3-1,0.3-1.1c0-0.9-0.5-1.1-1-1.1c-0.4,0-1,0.1-1.3,0.6
			c0.1,0,0.6,0,0.6,0.5c0,0.3-0.2,0.5-0.5,0.5c-0.3,0-0.5-0.2-0.5-0.5c0-0.8,0.8-1.4,1.8-1.4c1,0,1.8,0.6,1.8,1.4
			c0,0.8-0.6,1.5-1.4,1.8C282,55.6,282.6,56.4,282.6,57.2z"/>
	</g>
	<g>
		<path class="st1" d="M231.4,22.6c0,0.4,0,0.5,0.9,0.5h0.3v0.3c-0.3,0-1.2,0-1.6,0s-1.3,0-1.6,0v-0.3h0.3c0.9,0,0.9-0.1,0.9-0.5
			v-5.2c-0.5,0.3-1.1,0.3-1.3,0.3v-0.3c0.3,0,1.2,0,1.8-0.6c0.2,0,0.2,0,0.2,0.3V22.6z"/>
	</g>
	<g>
		<path class="st1" d="M248.4,6.7c-0.1,0.4-0.2,0.7-0.2,0.9c0,0.3,0.2,0.7,0.5,0.7c0.3,0,1-0.2,1.3-1.3c0-0.1,0-0.1,0.1-0.1
			c0,0,0.1,0,0.1,0.1c0,0.2-0.6,1.5-1.6,1.5c-0.6,0-1-0.4-1.1-0.8c0,0.1-0.4,0.8-1,0.8c-0.4,0-0.9-0.2-0.9-0.7
			c0-0.3,0.2-0.6,0.5-0.6c0.1,0,0.4,0.1,0.4,0.3c0,0.3-0.2,0.5-0.5,0.5c0.2,0.1,0.4,0.1,0.5,0.1c0.4,0,0.8-0.4,0.9-1
			c0.4-1.4,0.5-2.1,0.5-2.4c0-0.6-0.3-0.7-0.5-0.7c-0.3,0-1,0.2-1.3,1.3c0,0.1,0,0.1-0.1,0.1c0,0-0.1,0-0.1-0.1
			c0-0.2,0.6-1.5,1.6-1.5c0.3,0,0.8,0.1,1.1,0.8c0.1-0.2,0.5-0.8,1-0.8c0.3,0,0.9,0.1,0.9,0.7c0,0.4-0.3,0.6-0.5,0.6
			c-0.3,0-0.4-0.2-0.4-0.3c0-0.2,0.2-0.5,0.5-0.5c-0.2-0.1-0.4-0.1-0.5-0.1c-0.7,0-0.9,0.9-1,1.2L248.4,6.7z"/>
	</g>
	<g>
		<path class="st1" d="M252.4,7.5c0,0,0-0.1,0-0.2c0-0.2,0-0.3-0.2-0.3c-0.3,0-0.4,0.3-0.5,0.8c0,0.2-0.1,0.2-0.2,0.2
			c0,0-0.1,0-0.1-0.1c0,0,0.1-0.5,0.3-0.7c0.1-0.2,0.3-0.4,0.6-0.4c0.2,0,0.6,0.1,0.7,0.5c0.2-0.2,0.6-0.5,1-0.5c0.5,0,1,0.3,1,1.2
			c0,1-0.9,2-1.8,2c-0.4,0-0.6-0.3-0.7-0.4c-0.1,0.3-0.2,0.7-0.3,1c0,0.1-0.1,0.3-0.1,0.3c0,0.1,0.2,0.1,0.3,0.1
			c0.1,0,0.2,0,0.2,0.1c0,0.1-0.1,0.2-0.1,0.2c-0.2,0-0.5,0-0.7,0c-0.2,0-0.4,0-0.6,0c0,0-0.1,0-0.1-0.1c0-0.1,0.1-0.1,0.2-0.1
			c0.3,0,0.3-0.1,0.3-0.3L252.4,7.5z M252.5,9c0,0,0,0.1,0,0.1c0,0.1,0.1,0.6,0.6,0.6c0.4,0,0.7-0.3,0.9-0.7
			c0.2-0.4,0.4-1.1,0.4-1.4c0-0.5-0.2-0.7-0.5-0.7c-0.2,0-0.6,0.1-1,0.6L252.5,9z"/>
		<path class="st1" d="M256.3,9.8c-0.2,0-0.4-0.2-0.4-0.4c0-0.2,0.2-0.4,0.4-0.4c0.3,0,0.5,0.3,0.5,0.8c0,0.8-0.6,1.4-0.7,1.4
			c0,0-0.1,0-0.1-0.1c0,0,0-0.1,0-0.1c0.5-0.4,0.5-0.9,0.5-1.3C256.6,9.7,256.5,9.8,256.3,9.8z"/>
	</g>
	<g>
		<path class="st1" d="M258.9,7.1c0.2-0.2,0.5-0.4,0.9-0.4c0.5,0,1,0.3,1,1.2c0,1-0.9,2-1.8,2c-0.6,0-1-0.4-1-1.2c0-0.1,0-0.2,0-0.3
			c0-0.1,0.4-1.6,0.5-1.9l0.2-0.6c0-0.2,0.1-0.4,0.1-0.5c0-0.1,0-0.1-0.3-0.1c-0.1,0-0.2,0-0.2-0.1c0-0.1,0.1-0.2,0.2-0.2
			c0.2,0,0.8-0.1,0.9-0.1c0.1,0,0.1,0.1,0.1,0.1c0,0,0,0.1,0,0.1L258.9,7.1z M259.9,9c0.2-0.4,0.4-1.1,0.4-1.4
			c0-0.5-0.2-0.7-0.5-0.7c-0.3,0-0.6,0.2-0.8,0.5c-0.1,0.2-0.1,0.2-0.2,0.3c-0.2,0.8-0.3,1-0.3,1.3c0,0.4,0.2,0.7,0.5,0.7
			C259.4,9.7,259.7,9.4,259.9,9z"/>
	</g>
	<g>
		<path class="st1" d="M262.8,10.9v-10h1.4v0.4h-1v9.2h1v0.4H262.8z"/>
	</g>
	<g>
		<path class="st1" d="M265.8,5.5C266,5,266,4.9,266,4.7c0-0.3-0.1-0.5-0.3-0.5c-0.4,0-0.6,0.5-0.7,1.2c-0.1,0.2-0.1,0.2-0.2,0.2
			c0,0-0.1,0-0.1-0.1c0,0,0.1-0.6,0.3-1c0.1-0.2,0.3-0.6,0.7-0.6c0.5,0,0.9,0.3,0.9,0.9c0.2-0.2,0.7-0.9,1.6-0.9
			c0.7,0,1.1,0.4,1.1,1.1c0,0.6-0.4,1.7-0.6,2.2c-0.1,0.2-0.2,0.5-0.2,0.7c0,0.2,0.1,0.3,0.2,0.3c0.5,0,0.8-0.6,1-1.2
			c0.1-0.1,0.1-0.2,0.2-0.2c0,0,0.1,0,0.1,0.1c0,0.1-0.4,1.5-1.3,1.5c-0.5,0-0.8-0.3-0.8-0.8c0-0.1,0-0.2,0.1-0.5
			c0.2-0.4,0.6-1.7,0.6-2.3c0-0.3-0.1-0.7-0.5-0.7c-0.9,0-1.5,0.9-1.6,1.2c0,0-0.1,0.3-0.1,0.5c0,0.2-0.1,0.4-0.2,0.7L266,7.5
			c-0.1,0.2-0.2,0.7-0.2,0.7c-0.1,0.2-0.2,0.3-0.4,0.3c-0.1,0-0.3-0.1-0.3-0.3c0-0.1,0.1-0.3,0.1-0.4L265.8,5.5z"/>
	</g>
	<g>
		<path class="st1" d="M272,10.9h-1.4v-0.4h1V1.3h-1V0.9h1.4V10.9z"/>
	</g>
	<line class="st0" x1="234.4" y1="20.2" x2="241.5" y2="20.2"/>
	<g>
		<path class="st1" d="M280.5,36c-1.1,0-1.9-0.9-1.9-1.9c0-1,0.9-1.9,1.9-1.9c1,0,1.9,0.9,1.9,1.9C282.5,35.2,281.6,36,280.5,36z"/>
	</g>
	<line class="st6" x1="280.5" y1="48.6" x2="280.5" y2="34.4"/>
	<g>
		<path class="st1" d="M238.1,21.9c-1.1,0-1.9-0.9-1.9-1.9c0-1,0.9-1.9,1.9-1.9c1,0,1.9,0.9,1.9,1.9C240,21,239.1,21.9,238.1,21.9z"
			/>
	</g>
	<line class="st6" x1="238" y1="48.6" x2="238" y2="20.2"/>
	<g>
		<path class="st1" d="M252.2,21.9c-1.1,0-1.9-0.9-1.9-1.9c0-1,0.9-1.9,1.9-1.9c1,0,1.9,0.9,1.9,1.9C254.2,21,253.3,21.9,252.2,21.9
			z"/>
	</g>
	<line class="st6" x1="252.2" y1="48.6" x2="252.2" y2="20.2"/>
	<g>
		<path class="st1" d="M266.4,21.9c-1.1,0-1.9-0.9-1.9-1.9c0-1,0.9-1.9,1.9-1.9c1,0,1.9,0.9,1.9,1.9C268.3,21,267.4,21.9,266.4,21.9
			z"/>
	</g>
	<line class="st6" x1="266.3" y1="48.6" x2="266.3" y2="20.2"/>
	<g>
		<path class="st1" d="M292.5,57.3v-0.3l3.1-4.7c0.1-0.1,0.1-0.1,0.2-0.1c0.2,0,0.2,0.1,0.2,0.3v4.5h1v0.3h-1v0.9
			c0,0.4,0,0.5,0.8,0.5h0.2v0.3c-0.4,0-0.9,0-1.4,0c-0.4,0-0.9,0-1.3,0v-0.3h0.2c0.7,0,0.8-0.1,0.8-0.5v-0.9H292.5z M295.2,53.2
			l-2.4,3.7h2.4V53.2z"/>
		<path class="st1" d="M308.7,59.1c-1.1,0-1.8-1-1.8-1.8c0-0.5,0.3-0.5,0.5-0.5c0.3,0,0.5,0.2,0.5,0.5s-0.2,0.5-0.5,0.5
			c-0.1,0-0.1,0-0.2,0c0.2,0.6,0.7,1.1,1.5,1.1c0.5,0,0.8-0.3,1.1-0.6c0.2-0.4,0.2-1,0.2-1.4c0-0.5,0-0.9-0.2-1.3
			c-0.1-0.2-0.3-0.6-0.8-0.6c-0.8,0-1.2,0.5-1.3,0.7c0,0.1-0.1,0.1-0.1,0.1c-0.1,0-0.1-0.1-0.1-0.3v-2.9c0-0.2,0-0.2,0.1-0.2
			c0,0,0,0,0.1,0c0.5,0.2,0.9,0.3,1.3,0.3c0.7,0,1.2-0.2,1.4-0.3c0,0,0.1,0,0.1,0c0.1,0,0.1,0,0.1,0.1c0,0.1-0.7,1-1.9,1
			c-0.3,0-0.6-0.1-0.8-0.1v1.9c0.4-0.3,0.8-0.5,1.3-0.5c1.1,0,1.9,1,1.9,2.2C310.8,58.2,309.8,59.1,308.7,59.1z"/>
	</g>
	<g>
		<path class="st1" d="M219.8,57v-0.6h2.6V57H219.8z"/>
		<path class="st1" d="M226,58.1c0,0.4,0,0.5,0.9,0.5h0.3v0.3c-0.3,0-1.2,0-1.6,0s-1.3,0-1.6,0v-0.3h0.3c0.9,0,0.9-0.1,0.9-0.5V53
			c-0.5,0.3-1.1,0.3-1.3,0.3v-0.3c0.3,0,1.2,0,1.8-0.6c0.2,0,0.2,0,0.2,0.3V58.1z"/>
	</g>
	<g>
		<path class="st1" d="M205.7,57v-0.6h2.6V57H205.7z"/>
		<path class="st1" d="M212,58.1c0.2,0,0.9,0,0.9-0.1c0.1-0.1,0.2-0.6,0.2-0.9h0.2l-0.3,1.7h-3.7c0-0.2,0-0.3,0.1-0.4l1.9-2.1
			c0.5-0.6,1-1.4,1-2.2c0-0.8-0.4-1.6-1.3-1.6c-0.6,0-1.1,0.4-1.3,1c0,0,0,0,0.1,0c0.3,0,0.5,0.3,0.5,0.5c0,0.4-0.3,0.5-0.5,0.5
			c0,0-0.5,0-0.5-0.6c0-0.9,0.7-1.8,1.9-1.8c1.2,0,2.1,0.8,2.1,1.9c0,1-0.6,1.5-2.2,2.9l-1.1,1H212z"/>
	</g>
	<line class="st0" x1="234.4" y1="34.4" x2="241.5" y2="34.4"/>
	<g>
		<path class="st1" d="M223.9,50.2c-1.1,0-1.9-0.9-1.9-1.9c0-1,0.9-1.9,1.9-1.9c1,0,1.9,0.9,1.9,1.9
			C225.8,49.3,224.9,50.2,223.9,50.2z"/>
	</g>
	<g>
		<path class="st1" d="M209.6,50.2c-1.1,0-1.9-0.9-1.9-1.9c0-1,0.9-1.9,1.9-1.9c1,0,1.9,0.9,1.9,1.9
			C211.5,49.3,210.7,50.2,209.6,50.2z"/>
	</g>
	<g>
		<path class="st7" d="M294.7,50.2c-1.1,0-1.9-0.9-1.9-1.9c0-1,0.9-1.9,1.9-1.9c1,0,1.9,0.9,1.9,1.9
			C296.6,49.3,295.7,50.2,294.7,50.2z"/>
	</g>
	<g>
		<path class="st1" d="M323.1,54.6c1.1,0,2,1,2,2.2c0,1.3-0.9,2.3-2.1,2.3c-0.9,0-2.1-0.7-2.1-3.4c0-2.2,1.3-3.5,2.6-3.5
			c0.8,0,1.3,0.5,1.3,1.1c0,0.4-0.3,0.5-0.5,0.5c-0.2,0-0.5-0.1-0.5-0.5c0-0.4,0.4-0.4,0.5-0.4c-0.2-0.3-0.6-0.4-0.9-0.4
			c-0.5,0-1.7,0.4-1.7,2.9v0.2C322,55.2,322.4,54.6,323.1,54.6z M324,58.2c0.2-0.4,0.2-0.9,0.2-1.3c0-0.5,0-1-0.2-1.4
			c-0.3-0.6-0.8-0.6-0.9-0.6c-0.9,0-1.2,1-1.2,1.8c0,0.2,0,1,0.2,1.4c0.1,0.1,0.4,0.7,1,0.7C323.3,58.8,323.7,58.8,324,58.2z"/>
		<path class="st1" d="M338.1,54.7c-0.4,0.6-0.6,1.5-0.6,1.7c-0.1,0.5-0.1,1.1-0.1,1.6v0.5c0,0.1,0,0.5-0.5,0.5s-0.5-0.4-0.5-0.5
			c0-1,0.3-2.4,1.2-3.7c0.2-0.3,1-1.4,1.1-1.6h-2.1c-0.1,0-0.9,0-1,0.1c-0.1,0.1-0.2,0.7-0.3,0.9h-0.2l0.3-2.1h0.2
			c0,0.2,0.1,0.3,1.3,0.3h2.4c0,0.2,0,0.2-0.1,0.3L338.1,54.7z"/>
	</g>
	<g>
		<path class="st1" d="M353,56c0.4,0.4,0.5,0.9,0.5,1.2c0,1.1-0.9,1.9-2.1,1.9c-1,0-2.1-0.7-2.1-1.7c0-1,0.9-1.5,1.4-1.8
			c-0.2-0.2-0.6-0.4-0.7-0.5c-0.4-0.5-0.4-0.9-0.4-1.1c0-0.9,0.8-1.7,1.8-1.7c0.9,0,1.8,0.6,1.8,1.5c0,0.7-0.5,1.2-1.2,1.5
			C352.7,55.7,352.8,55.8,353,56z M349.9,57.4c0,0.8,0.7,1.4,1.6,1.4c0.8,0,1.6-0.5,1.6-1.3c0-0.6-0.5-0.9-0.7-1.1l-1.2-0.8
			C350.2,56.2,349.9,56.8,349.9,57.4z M351.8,55.1c0.6-0.3,1-0.8,1-1.4c0-0.7-0.6-1.2-1.4-1.2c-0.7,0-1.4,0.4-1.4,1
			c0,0.2,0,0.5,0.5,0.8L351.8,55.1z"/>
	</g>
	<g>
		<path class="st7" d="M308.9,50.2c-1.1,0-1.9-0.9-1.9-1.9c0-1,0.9-1.9,1.9-1.9c1,0,1.9,0.9,1.9,1.9
			C310.8,49.3,309.9,50.2,308.9,50.2z"/>
		<path class="st7" d="M323,50.2c-1.1,0-1.9-0.9-1.9-1.9c0-1,0.9-1.9,1.9-1.9c1,0,1.9,0.9,1.9,1.9C324.9,49.3,324.1,50.2,323,50.2z"
			/>
	</g>
	<g>
		<path class="st1" d="M337.2,21.9c-1.1,0-1.9-0.9-1.9-1.9c0-1,0.9-1.9,1.9-1.9c1,0,1.9,0.9,1.9,1.9C339.1,21,338.2,21.9,337.2,21.9
			z"/>
	</g>
	<line class="st4" x1="337.2" y1="48.6" x2="337.2" y2="20.2"/>
	<g>
		<path class="st1" d="M351.5,21.9c-1.1,0-1.9-0.9-1.9-1.9c0-1,0.9-1.9,1.9-1.9c1,0,1.9,0.9,1.9,1.9C353.4,21,352.5,21.9,351.5,21.9
			z"/>
	</g>
	<line class="st4" x1="351.4" y1="48.6" x2="351.4" y2="20.2"/>
	<g>
		<path class="st1" d="M273,69.5c0,0.2,0,0.2-0.2,0.2c-0.1,0-0.1,0-0.2-0.2l-2.5-5.9c0-0.1,0-0.1-0.1-0.2l-1.3,5.3
			c0,0.1,0,0.2,0,0.2c0,0.2,0.1,0.4,0.7,0.4c0.1,0,0.2,0,0.2,0.1c0,0.2-0.1,0.2-0.2,0.2c-0.3,0-0.7,0-1,0c-0.3,0-0.7,0-1,0
			c-0.1,0-0.1,0-0.1-0.1c0-0.2,0.1-0.2,0.2-0.2c0.8,0,1-0.3,1.1-0.7l1.3-5.4c0-0.1-0.6-0.1-0.7-0.1c-0.2,0-0.3,0-0.3-0.1
			c0-0.2,0.1-0.2,0.3-0.2h1.3c0.2,0,0.2,0,0.3,0.2l2.2,5.2l1.1-4.4c0,0,0-0.2,0-0.2c0-0.2-0.1-0.4-0.7-0.4c-0.1,0-0.2,0-0.2-0.1
			c0-0.2,0.1-0.2,0.2-0.2c0.3,0,0.7,0,1,0c0.3,0,0.7,0,1,0c0.1,0,0.1,0.1,0.1,0.1c0,0.2-0.1,0.2-0.2,0.2c-0.8,0-1,0.3-1.1,0.7
			L273,69.5z"/>
	</g>
	<g>
		<path class="st1" d="M279.7,66.4c-0.1,0-0.3,0-0.3-0.2s0.2-0.2,0.3-0.2h6c0.1,0,0.3,0,0.3,0.2s-0.2,0.2-0.3,0.2H279.7z
			 M279.7,68.4c-0.1,0-0.3,0-0.3-0.2s0.2-0.2,0.3-0.2h5.9c0.1,0,0.3,0,0.3,0.2s-0.2,0.2-0.3,0.2H279.7z"/>
		<path class="st1" d="M292.6,65.5c-0.4,0.6-0.6,1.5-0.6,1.7c-0.1,0.5-0.1,1.1-0.1,1.6v0.5c0,0.1,0,0.5-0.5,0.5s-0.5-0.4-0.5-0.5
			c0-1,0.3-2.4,1.2-3.7c0.2-0.3,1-1.4,1.1-1.6h-2.1c-0.1,0-0.9,0-1,0.1c-0.1,0.1-0.2,0.7-0.3,0.9h-0.2l0.3-2.1h0.2
			c0,0.2,0.1,0.3,1.3,0.3h2.4c0,0.2,0,0.2-0.1,0.3L292.6,65.5z"/>
	</g>
	<polyline points="235.4,64 230.9,66.3 235.4,68.6 234.3,66.3 	"/>
	<line class="st0" x1="234.3" y1="66.3" x2="259.2" y2="66.3"/>
	<polyline points="325.6,68.6 330.1,66.3 325.6,64 326.7,66.3 	"/>
	<line class="st0" x1="301.8" y1="66.3" x2="326.7" y2="66.3"/>
</g>
</svg>
