<?xml version="1.0" encoding="utf-8"?>
<!-- Generator: Adobe Illustrator 22.1.0, SVG Export Plug-In . SVG Version: 6.00 Build 0)  -->
<svg version="1.1" id="Layer_1" xmlns="http://www.w3.org/2000/svg" xmlns:xlink="http://www.w3.org/1999/xlink" x="0px" y="0px"
	 viewBox="0 0 349.6 303" style="enable-background:new 0 0 349.6 303;" xml:space="preserve">
<style type="text/css">
	.st0{fill:none;stroke:#262626;stroke-width:0.4998;stroke-linecap:square;stroke-linejoin:round;stroke-miterlimit:10;}
	.st1{fill:#4A4A49;}
	.st2{fill:none;stroke:#262626;stroke-width:0.4998;stroke-linejoin:round;stroke-miterlimit:10;}
	.st3{fill:none;stroke:#000000;stroke-width:4.0002;stroke-miterlimit:10;}
	.st4{fill:none;stroke:#000000;stroke-width:4.0002;stroke-linejoin:round;stroke-miterlimit:10;}
	.st5{fill:#262626;}
</style>
<g>
	<path class="st0" d="M18.4,270.9V14.1 M344.2,270.9V14.1 M18.4,270.9h3.3 M18.4,238.8h3.3 M18.4,206.7h3.3 M18.4,174.6h3.3
		 M18.4,142.5h3.3 M18.4,110.4h3.3 M18.4,78.3h3.3 M18.4,46.2h3.3 M18.4,14.1h3.3 M344.2,270.9h-3.3 M344.2,238.8h-3.3 M344.2,206.7
		h-3.3 M344.2,174.6h-3.3 M344.2,142.5h-3.3 M344.2,110.4h-3.3 M344.2,78.3h-3.3 M344.2,46.2h-3.3 M344.2,14.1h-3.3"/>
	<g>
		<path class="st1" d="M9.4,274.1c-0.4-0.6-0.6-1.5-0.6-2.7s0.2-2,0.6-2.7c0.4-0.6,1-0.9,1.8-0.9c0.8,0,1.4,0.3,1.8,0.9
			c0.4,0.6,0.6,1.5,0.6,2.7s-0.2,2-0.6,2.7s-1,0.9-1.8,0.9C10.4,275,9.8,274.7,9.4,274.1z M12.3,273.5c0.2-0.5,0.4-1.2,0.4-2.1
			c0-0.9-0.1-1.6-0.4-2.1c-0.2-0.5-0.6-0.7-1.1-0.7c-0.5,0-0.9,0.2-1.1,0.7c-0.2,0.5-0.4,1.2-0.4,2.1c0,0.9,0.1,1.6,0.4,2.1
			s0.6,0.7,1.1,0.7C11.7,274.2,12,274,12.3,273.5z"/>
	</g>
	<g>
		<path class="st1" d="M1,242c-0.4-0.6-0.6-1.5-0.6-2.7s0.2-2,0.6-2.7c0.4-0.6,1-0.9,1.8-0.9c0.8,0,1.4,0.3,1.8,0.9
			c0.4,0.6,0.6,1.5,0.6,2.7s-0.2,2-0.6,2.7s-1,0.9-1.8,0.9C2,242.9,1.4,242.6,1,242z M3.9,241.4c0.2-0.5,0.4-1.2,0.4-2.1
			c0-0.9-0.1-1.6-0.4-2.1c-0.2-0.5-0.6-0.7-1.1-0.7c-0.5,0-0.9,0.2-1.1,0.7c-0.2,0.5-0.4,1.2-0.4,2.1c0,0.9,0.1,1.6,0.4,2.1
			s0.6,0.7,1.1,0.7C3.3,242.1,3.6,241.9,3.9,241.4z"/>
		<path class="st1" d="M6.4,241.6h1v1.1h-1V241.6z"/>
	</g>
	<g>
		<path class="st1" d="M12.6,240.4c0,0.7-0.2,1.3-0.7,1.8c-0.5,0.5-1,0.7-1.7,0.7c-0.7,0-1.3-0.2-1.7-0.5s-0.7-0.8-0.7-1.5h0.9
			c0,0.4,0.2,0.7,0.5,0.9c0.3,0.2,0.6,0.3,1.1,0.3c0.4,0,0.8-0.1,1-0.4s0.4-0.7,0.4-1.1c0-0.5-0.1-0.9-0.4-1.2s-0.7-0.4-1.1-0.4
			c-0.3,0-0.5,0.1-0.7,0.2s-0.4,0.3-0.5,0.5l-0.7,0l0.5-3.8h3.6v0.9h-3L9,238.6l0,0c0.4-0.3,0.8-0.4,1.2-0.4c0.7,0,1.3,0.2,1.8,0.6
			C12.4,239.2,12.6,239.8,12.6,240.4z"/>
	</g>
	<g>
		<path class="st1" d="M11,205.6H9.4v-0.7c0.5,0,0.9-0.1,1.2-0.3c0.3-0.2,0.5-0.6,0.7-1H12v7h-0.5H11V205.6z"/>
	</g>
	<g>
		<path class="st1" d="M2.7,173.5H1v-0.7c0.5,0,0.9-0.1,1.2-0.3c0.3-0.2,0.5-0.6,0.7-1h0.7v7H3.1H2.7V173.5z"/>
		<path class="st1" d="M6.4,177.4h1v1.1h-1V177.4z"/>
	</g>
	<g>
		<path class="st1" d="M12.6,176.2c0,0.7-0.2,1.3-0.7,1.8c-0.5,0.5-1,0.7-1.7,0.7c-0.7,0-1.3-0.2-1.7-0.5s-0.7-0.8-0.7-1.5h0.9
			c0,0.4,0.2,0.7,0.5,0.9c0.3,0.2,0.6,0.3,1.1,0.3c0.4,0,0.8-0.1,1-0.4s0.4-0.7,0.4-1.1c0-0.5-0.1-0.9-0.4-1.2s-0.7-0.4-1.1-0.4
			c-0.3,0-0.5,0.1-0.7,0.2s-0.4,0.3-0.5,0.5l-0.7,0l0.5-3.8h3.6v0.9h-3L9,174.4l0,0c0.4-0.3,0.8-0.4,1.2-0.4c0.7,0,1.3,0.2,1.8,0.6
			C12.4,175,12.6,175.5,12.6,176.2z"/>
	</g>
	<g>
		<path class="st1" d="M13.5,141.5c0,0.5-0.1,0.9-0.4,1.3s-0.8,0.7-1.5,1.1c-0.8,0.4-1.3,0.8-1.6,1.2c-0.1,0.2-0.2,0.3-0.3,0.5h3.8
			v0.9H8.6v0c0-0.7,0.2-1.3,0.6-1.8s1.1-1,2.1-1.5c0.5-0.3,0.8-0.5,1-0.8c0.2-0.2,0.3-0.5,0.3-0.9c0-0.4-0.1-0.7-0.4-0.9
			s-0.6-0.4-1-0.4c-0.4,0-0.8,0.1-1,0.4c-0.2,0.3-0.4,0.7-0.4,1.3H8.8c0-0.8,0.2-1.4,0.6-1.8c0.4-0.4,1-0.7,1.8-0.7
			c0.7,0,1.2,0.2,1.6,0.6C13.3,140.3,13.5,140.8,13.5,141.5z"/>
	</g>
	<g>
		<path class="st1" d="M5.1,109.4c0,0.5-0.1,0.9-0.4,1.3s-0.8,0.7-1.5,1.1c-0.8,0.4-1.3,0.8-1.6,1.2c-0.1,0.2-0.2,0.3-0.3,0.5h3.8
			v0.9H0.3v0c0-0.7,0.2-1.3,0.6-1.8s1.1-1,2.1-1.5c0.5-0.3,0.8-0.5,1-0.8c0.2-0.2,0.3-0.5,0.3-0.9c0-0.4-0.1-0.7-0.4-0.9
			s-0.6-0.4-1-0.4c-0.4,0-0.8,0.1-1,0.4c-0.2,0.3-0.4,0.7-0.4,1.3H0.4c0-0.8,0.2-1.4,0.6-1.8c0.4-0.4,1-0.7,1.8-0.7
			c0.7,0,1.2,0.2,1.6,0.6C4.9,108.2,5.1,108.7,5.1,109.4z"/>
		<path class="st1" d="M6.4,113.3h1v1.1h-1V113.3z"/>
	</g>
	<g>
		<path class="st1" d="M12.6,112.1c0,0.7-0.2,1.3-0.7,1.8s-1,0.7-1.7,0.7c-0.7,0-1.3-0.2-1.7-0.5s-0.7-0.8-0.7-1.5h0.9
			c0,0.4,0.2,0.7,0.5,0.9c0.3,0.2,0.6,0.3,1.1,0.3c0.4,0,0.8-0.1,1-0.4s0.4-0.7,0.4-1.1c0-0.5-0.1-0.9-0.4-1.2s-0.7-0.4-1.1-0.4
			c-0.3,0-0.5,0.1-0.7,0.2S9,111,8.9,111.2l-0.7,0l0.5-3.8h3.6v0.9h-3L9,110.2l0,0c0.4-0.3,0.8-0.4,1.2-0.4c0.7,0,1.3,0.2,1.8,0.6
			C12.4,110.8,12.6,111.4,12.6,112.1z"/>
	</g>
	<g>
		<path class="st1" d="M12.5,77.1c0-0.3-0.1-0.6-0.4-0.8s-0.6-0.3-1-0.3c-0.4,0-0.7,0.1-1,0.4c-0.2,0.3-0.3,0.6-0.4,1.1H8.9
			c0-0.7,0.2-1.3,0.6-1.7c0.4-0.4,0.9-0.6,1.6-0.6c0.7,0,1.2,0.2,1.6,0.5c0.4,0.3,0.6,0.8,0.6,1.3c0,0.5-0.2,1-0.6,1.3
			c-0.1,0.1-0.2,0.1-0.3,0.2c0.2,0.1,0.3,0.2,0.4,0.3c0.4,0.3,0.7,0.8,0.7,1.4c0,0.7-0.2,1.2-0.7,1.6s-1,0.6-1.8,0.6
			c-0.8,0-1.4-0.2-1.8-0.6s-0.6-1-0.7-1.7h0.9c0.1,0.5,0.2,0.9,0.4,1.2c0.2,0.2,0.6,0.4,1.1,0.4c0.4,0,0.8-0.1,1.1-0.4
			c0.3-0.2,0.4-0.6,0.4-1c0-0.4-0.1-0.7-0.4-1C12,79.1,11.8,79,11.4,79c-0.2,0-0.3,0-0.5,0s-0.2,0-0.3,0v-0.8c0.1,0,0.2,0,0.3,0
			s0.3,0,0.4,0c0.3,0,0.5-0.1,0.7-0.3C12.3,77.7,12.5,77.4,12.5,77.1z"/>
	</g>
	<g>
		<path class="st1" d="M4.1,45c0-0.3-0.1-0.6-0.4-0.8s-0.6-0.3-1-0.3c-0.4,0-0.7,0.1-1,0.4c-0.2,0.3-0.3,0.6-0.4,1.1H0.5
			c0-0.7,0.2-1.3,0.6-1.7c0.4-0.4,0.9-0.6,1.6-0.6c0.7,0,1.2,0.2,1.6,0.5C4.8,43.9,5,44.4,5,44.9c0,0.5-0.2,1-0.6,1.3
			c-0.1,0.1-0.2,0.1-0.3,0.2c0.2,0.1,0.3,0.2,0.4,0.3C5,47,5.2,47.5,5.2,48.1c0,0.7-0.2,1.2-0.7,1.6s-1,0.6-1.8,0.6
			c-0.8,0-1.4-0.2-1.8-0.6s-0.6-1-0.7-1.7h0.9c0.1,0.5,0.2,0.9,0.4,1.2c0.2,0.2,0.6,0.4,1.1,0.4c0.4,0,0.8-0.1,1.1-0.4
			c0.3-0.2,0.4-0.6,0.4-1c0-0.4-0.1-0.7-0.4-1C3.7,47,3.4,46.9,3,46.9c-0.2,0-0.3,0-0.5,0s-0.2,0-0.3,0v-0.8c0.1,0,0.2,0,0.3,0
			s0.3,0,0.4,0c0.3,0,0.5-0.1,0.7-0.3C3.9,45.6,4.1,45.3,4.1,45z"/>
		<path class="st1" d="M6.4,49h1v1.1h-1V49z"/>
	</g>
	<g>
		<path class="st1" d="M12.6,47.8c0,0.7-0.2,1.3-0.7,1.8s-1,0.7-1.7,0.7c-0.7,0-1.3-0.2-1.7-0.5s-0.7-0.8-0.7-1.5h0.9
			c0,0.4,0.2,0.7,0.5,0.9c0.3,0.2,0.6,0.3,1.1,0.3c0.4,0,0.8-0.1,1-0.4s0.4-0.7,0.4-1.1c0-0.5-0.1-0.9-0.4-1.2s-0.7-0.4-1.1-0.4
			c-0.3,0-0.5,0.1-0.7,0.2S9,46.8,8.9,47l-0.7,0l0.5-3.8h3.6v0.9h-3L9,46l0,0c0.4-0.3,0.8-0.4,1.2-0.4c0.7,0,1.3,0.2,1.8,0.6
			C12.4,46.6,12.6,47.2,12.6,47.8z"/>
	</g>
	<g>
		<path class="st1" d="M8.6,16.3v-0.4v-0.4l3.3-4.5h0.4h0.4v4.6h1v0.8h-1V18h-0.9v-1.7H8.6z M11.7,15.6v-3.2l-2.2,3.1l0,0.1H11.7z"
			/>
	</g>
	<g>
		<path d="M74.4,1.5h1.7V8h4v1.4h-5.6V1.5z"/>
		<path d="M84.8,3.7c0.4,0.2,0.7,0.5,1,0.9c0.2,0.3,0.4,0.8,0.5,1.2c0,0.3,0.1,0.7,0.1,1.2h-4.3c0,0.6,0.2,1,0.6,1.2
			c0.2,0.1,0.5,0.2,0.8,0.2c0.3,0,0.6-0.1,0.9-0.3c0.1-0.1,0.2-0.2,0.3-0.4h1.6c0,0.3-0.2,0.7-0.6,1.1c-0.5,0.6-1.3,0.9-2.2,0.9
			c-0.8,0-1.5-0.2-2.1-0.7c-0.6-0.5-0.9-1.3-0.9-2.3c0-1,0.3-1.8,0.8-2.3c0.5-0.5,1.2-0.8,2.1-0.8C84,3.4,84.4,3.5,84.8,3.7z
			 M82.6,5c-0.2,0.2-0.4,0.5-0.4,0.9h2.6c0-0.4-0.2-0.7-0.4-0.9c-0.2-0.2-0.5-0.3-0.9-0.3C83.1,4.7,82.8,4.8,82.6,5z"/>
		<path d="M91.9,3.9c0.4,0.3,0.6,0.8,0.6,1.6v3.9h-1.6V5.9c0-0.3,0-0.5-0.1-0.7c-0.1-0.3-0.4-0.5-0.9-0.5c-0.5,0-0.9,0.2-1.1,0.7
			c-0.1,0.2-0.1,0.5-0.1,0.9v3.2h-1.5V3.6h1.5v0.9C88.8,4.2,89,4,89.2,3.8c0.3-0.2,0.7-0.4,1.2-0.4C91,3.5,91.5,3.6,91.9,3.9z"/>
		<path d="M96.8,3.6c0.4,0.2,0.7,0.4,0.9,0.8V3.6h1.5v5.6c0,0.8-0.1,1.3-0.4,1.7c-0.4,0.7-1.3,1-2.5,1c-0.7,0-1.4-0.1-1.8-0.4
			s-0.7-0.7-0.8-1.3h1.7c0,0.2,0.1,0.3,0.2,0.4c0.2,0.1,0.4,0.2,0.8,0.2c0.6,0,0.9-0.2,1.1-0.6c0.1-0.2,0.2-0.6,0.2-1.2V8.6
			c-0.1,0.3-0.3,0.4-0.5,0.6c-0.3,0.2-0.7,0.3-1.2,0.3c-0.8,0-1.4-0.3-1.8-0.8c-0.4-0.5-0.7-1.2-0.7-2.1c0-0.9,0.2-1.6,0.6-2.2
			c0.4-0.6,1-0.9,1.8-0.9C96.3,3.5,96.5,3.5,96.8,3.6z M97.3,7.8c0.2-0.3,0.4-0.7,0.4-1.3c0-0.6-0.1-1-0.4-1.3
			c-0.2-0.3-0.5-0.4-0.9-0.4c-0.5,0-0.9,0.3-1.1,0.8c-0.1,0.3-0.2,0.6-0.2,1c0,0.3,0.1,0.6,0.2,0.9c0.2,0.5,0.6,0.7,1.1,0.7
			C96.7,8.2,97,8.1,97.3,7.8z"/>
		<path d="M100,4.7V3.7h0.8V2h1.5v1.6h1v1.1h-1v3.1c0,0.2,0,0.4,0.1,0.4s0.2,0.1,0.6,0.1c0,0,0.1,0,0.1,0c0.1,0,0.1,0,0.2,0v1.1
			l-0.7,0c-0.7,0-1.2-0.1-1.5-0.4c-0.2-0.2-0.3-0.4-0.3-0.8V4.7H100z"/>
		<path d="M108.5,3.6c0.3,0.1,0.5,0.3,0.7,0.6c0.2,0.2,0.3,0.4,0.3,0.7c0,0.2,0.1,0.6,0.1,1.1v3.4H108V5.9c0-0.3-0.1-0.6-0.2-0.8
			c-0.1-0.3-0.4-0.4-0.8-0.4c-0.4,0-0.7,0.1-0.9,0.4c-0.2,0.3-0.3,0.7-0.3,1.2v3.2h-1.5V1.6h1.5v2.8c0.2-0.3,0.5-0.6,0.8-0.7
			c0.3-0.1,0.6-0.2,0.9-0.2C107.8,3.4,108.2,3.5,108.5,3.6z"/>
		<path d="M113.4,9.5l2-3l-1.9-2.9h1.9l1,1.7l1-1.7h1.8l-1.9,2.9l2,3h-1.9l-1-1.8l-1,1.8H113.4z"/>
		<path d="M120.1,1.5h2.7v1.1h-1.2v7.9h1.2v1.1h-2.7V1.5z"/>
		<path d="M128.5,3.9c0.4,0.3,0.6,0.8,0.6,1.6v3.9h-1.6V5.9c0-0.3,0-0.5-0.1-0.7c-0.1-0.3-0.4-0.5-0.9-0.5c-0.5,0-0.9,0.2-1.1,0.7
			c-0.1,0.2-0.1,0.5-0.1,0.9v3.2h-1.5V3.6h1.5v0.9c0.2-0.3,0.4-0.5,0.6-0.6c0.3-0.2,0.7-0.4,1.2-0.4C127.6,3.5,128.1,3.6,128.5,3.9z
			"/>
		<path d="M130.1,10.5h1.2V2.6h-1.2V1.5h2.7v10.1h-2.7V10.5z"/>
		<path d="M134.7,3.8h1.6v1.6h-1.6V3.8z M134.7,7.9h1.6v1.6h-1.6V7.9z"/>
		<path d="M146.3,1.5h2.4v7.9h-1.5V4.1c0-0.2,0-0.4,0-0.6c0-0.3,0-0.5,0-0.6l-1.5,6.6H144l-1.5-6.6c0,0.2,0,0.4,0,0.6s0,0.5,0,0.6
			v5.4H141V1.5h2.4l1.4,6.2L146.3,1.5z"/>
		<path d="M155.5,4.6V6h-5.8V4.6H155.5z M155.5,7.1v1.4h-5.8V7.1H155.5z"/>
		<path d="M156.4,6.1c0.2-0.4,0.5-0.6,0.9-0.8c-0.4-0.3-0.6-0.5-0.7-0.8c-0.1-0.3-0.2-0.6-0.2-0.8c0-0.6,0.2-1,0.6-1.4
			c0.4-0.4,1-0.6,1.8-0.6s1.4,0.2,1.8,0.6c0.4,0.4,0.6,0.9,0.6,1.4c0,0.3-0.1,0.5-0.2,0.8c-0.1,0.3-0.4,0.5-0.7,0.8
			c0.4,0.2,0.7,0.5,0.9,0.9s0.3,0.8,0.3,1.2c0,0.7-0.2,1.2-0.7,1.7c-0.5,0.5-1.2,0.7-2,0.7c-0.9,0-1.5-0.2-2-0.7
			c-0.4-0.5-0.7-1-0.7-1.7C156.1,6.9,156.2,6.5,156.4,6.1z M158,8.1c0.2,0.2,0.5,0.3,0.8,0.3c0.4,0,0.6-0.1,0.8-0.3s0.3-0.5,0.3-0.9
			c0-0.4-0.1-0.7-0.3-0.9c-0.2-0.2-0.5-0.3-0.8-0.3s-0.6,0.1-0.8,0.3c-0.2,0.2-0.3,0.5-0.3,0.9C157.7,7.6,157.8,7.9,158,8.1z
			 M158.1,4.5c0.2,0.2,0.4,0.3,0.7,0.3c0.3,0,0.6-0.1,0.7-0.3c0.2-0.2,0.3-0.4,0.3-0.7c0-0.3-0.1-0.5-0.3-0.7s-0.4-0.3-0.7-0.3
			c-0.3,0-0.6,0.1-0.7,0.3c-0.2,0.2-0.3,0.4-0.3,0.7C157.8,4.1,157.9,4.4,158.1,4.5z"/>
		<path d="M162.5,10.7c0.3-0.1,0.5-0.2,0.7-0.4s0.2-0.5,0.3-0.8h-0.9V7.9h1.7v1.4c0,0.2,0,0.5-0.1,0.8s-0.2,0.5-0.4,0.7
			c-0.2,0.2-0.4,0.4-0.7,0.5c-0.3,0.1-0.4,0.2-0.5,0.2V10.7z"/>
		<path d="M168.4,4.9V3.6h4.6v1.3l-2.9,3.3h3v1.3h-4.9V8.3l2.9-3.4H168.4z"/>
		<path d="M178,3.7c0.4,0.2,0.7,0.5,1,0.9c0.2,0.3,0.4,0.8,0.5,1.2c0,0.3,0.1,0.7,0,1.2h-4.3c0,0.6,0.2,1,0.6,1.2
			c0.2,0.1,0.5,0.2,0.8,0.2c0.3,0,0.6-0.1,0.8-0.3c0.1-0.1,0.2-0.2,0.3-0.4h1.6c0,0.3-0.2,0.7-0.6,1.1c-0.5,0.6-1.3,0.9-2.2,0.9
			c-0.8,0-1.5-0.2-2.1-0.7c-0.6-0.5-0.9-1.3-0.9-2.3c0-1,0.3-1.8,0.8-2.3s1.2-0.8,2.1-0.8C177.2,3.4,177.6,3.5,178,3.7z M175.7,5
			c-0.2,0.2-0.4,0.5-0.4,0.9h2.6c0-0.4-0.2-0.7-0.4-0.9c-0.2-0.2-0.5-0.3-0.9-0.3C176.3,4.7,176,4.8,175.7,5z"/>
		<path d="M183.6,3.5c0,0,0.1,0,0.1,0V5c-0.1,0-0.2,0-0.3,0c-0.1,0-0.1,0-0.2,0c-0.6,0-1,0.2-1.2,0.6c-0.1,0.2-0.2,0.6-0.2,1v2.8
			h-1.5V3.6h1.5v1c0.2-0.4,0.4-0.7,0.6-0.8C182.7,3.6,183.1,3.5,183.6,3.5C183.5,3.5,183.6,3.5,183.6,3.5z"/>
		<path d="M189.5,8.7c-0.5,0.6-1.2,0.9-2.3,0.9c-1,0-1.8-0.3-2.3-0.9s-0.7-1.3-0.7-2.2c0-0.8,0.2-1.6,0.7-2.2
			c0.5-0.6,1.2-0.9,2.3-0.9c1,0,1.8,0.3,2.3,0.9c0.5,0.6,0.7,1.4,0.7,2.2C190.2,7.4,190,8.1,189.5,8.7z M188.3,7.9
			c0.2-0.3,0.4-0.8,0.4-1.4s-0.1-1-0.4-1.4s-0.6-0.5-1-0.5s-0.8,0.2-1,0.5c-0.2,0.3-0.4,0.8-0.4,1.4s0.1,1,0.4,1.4
			c0.2,0.3,0.6,0.5,1,0.5S188,8.2,188.3,7.9z"/>
		<path d="M199.3,4.2c0.5,0.5,0.7,1.2,0.7,2.2c0,1-0.2,1.8-0.7,2.4c-0.5,0.5-1.1,0.8-1.8,0.8c-0.5,0-0.9-0.1-1.2-0.3
			c-0.2-0.1-0.3-0.3-0.5-0.6v3.1h-1.5V3.6h1.5v0.9c0.2-0.3,0.3-0.5,0.5-0.6c0.3-0.3,0.8-0.4,1.2-0.4C198.3,3.5,198.8,3.7,199.3,4.2z
			 M198.1,5.3c-0.2-0.3-0.5-0.5-1-0.5c-0.6,0-0.9,0.3-1.2,0.8c-0.1,0.3-0.2,0.6-0.2,1.1c0,0.7,0.2,1.2,0.5,1.4
			c0.2,0.2,0.5,0.2,0.8,0.2c0.4,0,0.8-0.2,1-0.5s0.3-0.8,0.3-1.3C198.5,6.1,198.3,5.7,198.1,5.3z"/>
		<path d="M203.4,5.9c0.3,0,0.5-0.1,0.6-0.1c0.2-0.1,0.3-0.2,0.3-0.4c0-0.2-0.1-0.4-0.3-0.5c-0.2-0.1-0.4-0.1-0.7-0.1
			c-0.4,0-0.6,0.1-0.8,0.3c-0.1,0.1-0.2,0.3-0.2,0.5h-1.5c0-0.5,0.2-0.9,0.4-1.3c0.4-0.5,1.1-0.8,2.1-0.8c0.6,0,1.2,0.1,1.7,0.4
			c0.5,0.3,0.7,0.7,0.7,1.4V8c0,0.2,0,0.4,0,0.7c0,0.2,0,0.3,0.1,0.4s0.1,0.1,0.2,0.2v0.2h-1.7c0-0.1-0.1-0.2-0.1-0.3s0-0.2,0-0.4
			c-0.2,0.2-0.5,0.4-0.7,0.6c-0.3,0.2-0.7,0.3-1.1,0.3c-0.5,0-1-0.2-1.3-0.5c-0.3-0.3-0.5-0.7-0.5-1.3c0-0.7,0.3-1.2,0.8-1.6
			c0.3-0.2,0.8-0.3,1.4-0.4L203.4,5.9z M204.4,6.6c-0.1,0.1-0.2,0.1-0.3,0.1c-0.1,0-0.2,0.1-0.4,0.1l-0.3,0.1
			c-0.3,0.1-0.6,0.1-0.7,0.2c-0.2,0.1-0.4,0.4-0.4,0.6c0,0.3,0.1,0.5,0.2,0.6c0.1,0.1,0.3,0.2,0.5,0.2c0.3,0,0.6-0.1,0.9-0.3
			c0.3-0.2,0.4-0.5,0.4-1.1V6.6z"/>
		<path d="M210.3,3.7c0.3,0.2,0.5,0.4,0.7,0.6V1.6h1.6v7.9h-1.5V8.6c-0.2,0.3-0.5,0.6-0.7,0.8s-0.6,0.2-1,0.2
			c-0.7,0-1.3-0.3-1.7-0.8c-0.5-0.6-0.7-1.3-0.7-2.1c0-1,0.2-1.8,0.7-2.4c0.5-0.6,1.1-0.9,1.8-0.9C209.7,3.5,210.1,3.5,210.3,3.7z
			 M210.7,7.9c0.2-0.3,0.3-0.7,0.3-1.3c0-0.7-0.2-1.2-0.5-1.5c-0.2-0.2-0.5-0.3-0.8-0.3c-0.4,0-0.8,0.2-1,0.5
			c-0.2,0.3-0.3,0.8-0.3,1.3c0,0.5,0.1,1,0.3,1.3c0.2,0.3,0.5,0.5,1,0.5C210.2,8.4,210.5,8.2,210.7,7.9z"/>
		<path d="M217.1,3.7c0.3,0.2,0.5,0.4,0.7,0.6V1.6h1.6v7.9h-1.5V8.6c-0.2,0.3-0.5,0.6-0.7,0.8s-0.6,0.2-1,0.2
			c-0.7,0-1.3-0.3-1.7-0.8c-0.5-0.6-0.7-1.3-0.7-2.1c0-1,0.2-1.8,0.7-2.4c0.5-0.6,1.1-0.9,1.8-0.9C216.5,3.5,216.8,3.5,217.1,3.7z
			 M217.4,7.9c0.2-0.3,0.3-0.7,0.3-1.3c0-0.7-0.2-1.2-0.5-1.5c-0.2-0.2-0.5-0.3-0.8-0.3c-0.4,0-0.8,0.2-1,0.5
			c-0.2,0.3-0.3,0.8-0.3,1.3c0,0.5,0.1,1,0.3,1.3c0.2,0.3,0.5,0.5,1,0.5C216.9,8.4,217.2,8.2,217.4,7.9z"/>
		<path d="M224.5,3.7c0.4,0.2,0.7,0.5,1,0.9c0.2,0.3,0.4,0.8,0.5,1.2c0,0.3,0.1,0.7,0,1.2h-4.3c0,0.6,0.2,1,0.6,1.2
			c0.2,0.1,0.5,0.2,0.8,0.2c0.3,0,0.6-0.1,0.8-0.3c0.1-0.1,0.2-0.2,0.3-0.4h1.6c0,0.3-0.2,0.7-0.6,1.1c-0.5,0.6-1.3,0.9-2.2,0.9
			c-0.8,0-1.5-0.2-2.1-0.7c-0.6-0.5-0.9-1.3-0.9-2.3c0-1,0.3-1.8,0.8-2.3c0.5-0.5,1.2-0.8,2.1-0.8C223.6,3.4,224.1,3.5,224.5,3.7z
			 M222.2,5c-0.2,0.2-0.4,0.5-0.4,0.9h2.6c0-0.4-0.2-0.7-0.4-0.9c-0.2-0.2-0.5-0.3-0.9-0.3C222.7,4.7,222.4,4.8,222.2,5z"/>
		<path d="M229.9,3.7c0.3,0.2,0.5,0.4,0.7,0.6V1.6h1.6v7.9h-1.5V8.6c-0.2,0.3-0.5,0.6-0.7,0.8s-0.6,0.2-1,0.2
			c-0.7,0-1.3-0.3-1.7-0.8c-0.5-0.6-0.7-1.3-0.7-2.1c0-1,0.2-1.8,0.7-2.4c0.5-0.6,1.1-0.9,1.8-0.9C229.3,3.5,229.6,3.5,229.9,3.7z
			 M230.3,7.9c0.2-0.3,0.3-0.7,0.3-1.3c0-0.7-0.2-1.2-0.5-1.5c-0.2-0.2-0.5-0.3-0.8-0.3c-0.4,0-0.8,0.2-1,0.5
			c-0.2,0.3-0.3,0.8-0.3,1.3c0,0.5,0.1,1,0.3,1.3c0.2,0.3,0.5,0.5,1,0.5C229.7,8.4,230,8.2,230.3,7.9z"/>
		<path d="M238.1,3.6v3.5c0,0.3,0,0.6,0.1,0.8c0.1,0.3,0.4,0.4,0.8,0.4c0.5,0,0.9-0.2,1.1-0.6c0.1-0.2,0.1-0.5,0.1-0.9V3.6h1.6v5.9
			h-1.5V8.6c0,0,0,0.1-0.1,0.2C240.1,8.9,240.1,9,240,9c-0.2,0.2-0.5,0.4-0.7,0.4c-0.2,0.1-0.5,0.1-0.8,0.1c-0.9,0-1.4-0.3-1.7-0.9
			c-0.2-0.3-0.3-0.9-0.3-1.5V3.6H238.1z"/>
		<path d="M248,3.9c0.4,0.3,0.6,0.8,0.6,1.6v3.9H247V5.9c0-0.3,0-0.5-0.1-0.7c-0.1-0.3-0.4-0.5-0.9-0.5c-0.5,0-0.9,0.2-1.1,0.7
			c-0.1,0.2-0.1,0.5-0.1,0.9v3.2h-1.5V3.6h1.5v0.9c0.2-0.3,0.4-0.5,0.6-0.6c0.3-0.2,0.7-0.4,1.2-0.4C247.1,3.5,247.6,3.6,248,3.9z"
			/>
		<path d="M249.4,4.7V3.7h0.8V2h1.5v1.6h1v1.1h-1v3.1c0,0.2,0,0.4,0.1,0.4s0.2,0.1,0.6,0.1c0,0,0.1,0,0.1,0c0.1,0,0.1,0,0.2,0v1.1
			l-0.7,0c-0.7,0-1.2-0.1-1.5-0.4c-0.2-0.2-0.3-0.4-0.3-0.8V4.7H249.4z"/>
		<path d="M255.2,2.9h-1.6V1.5h1.6V2.9z M253.7,3.6h1.6v5.9h-1.6V3.6z"/>
		<path d="M258.3,9.5h-1.5V1.5h1.5V9.5z"/>
		<path d="M262.9,1.5h1.7l3.1,5.5V1.5h1.5v7.9h-1.7l-3.2-5.6v5.6h-1.5V1.5z"/>
		<path d="M276.2,4.6V6h-5.8V4.6H276.2z M276.2,7.1v1.4h-5.8V7.1H276.2z"/>
		<path d="M277.2,4.1V3c0.5,0,0.8-0.1,1-0.1c0.3-0.1,0.6-0.2,0.8-0.4c0.1-0.1,0.2-0.3,0.3-0.6c0-0.1,0.1-0.2,0.1-0.3h1.3v7.8h-1.6
			V4.1H277.2z"/>
		<path d="M286.6,3.6c0-0.1,0-0.3-0.1-0.4c-0.2-0.2-0.4-0.4-0.7-0.4c-0.5,0-0.9,0.3-1.1,0.8c-0.1,0.3-0.2,0.8-0.2,1.4
			c0.2-0.2,0.4-0.4,0.7-0.5c0.3-0.1,0.5-0.2,0.9-0.2c0.7,0,1.3,0.2,1.7,0.7c0.4,0.5,0.7,1.1,0.7,1.8c0,0.7-0.2,1.4-0.7,1.9
			c-0.4,0.6-1.1,0.8-2,0.8c-1,0-1.7-0.4-2.2-1.2c-0.4-0.6-0.5-1.5-0.5-2.5c0-0.6,0-1.1,0.1-1.5c0.1-0.7,0.3-1.2,0.5-1.7
			c0.2-0.4,0.5-0.7,0.9-0.9c0.4-0.2,0.8-0.3,1.3-0.3c0.7,0,1.3,0.2,1.7,0.6s0.7,0.9,0.7,1.5H286.6z M284.8,8
			c0.2,0.3,0.5,0.4,0.9,0.4c0.3,0,0.6-0.1,0.8-0.4c0.2-0.3,0.3-0.6,0.3-1c0-0.5-0.1-0.8-0.3-1c-0.2-0.2-0.5-0.4-0.8-0.4
			c-0.3,0-0.5,0.1-0.7,0.2c-0.3,0.2-0.5,0.6-0.5,1.1C284.5,7.4,284.6,7.8,284.8,8z"/>
	</g>
	<line class="st2" x1="18.4" y1="270.9" x2="344.2" y2="270.9"/>
	<path class="st3" d="M21.4,206.7c0-1.7-1.3-3-3-3s-3,1.3-3,3c0,1.7,1.3,3,3,3S21.4,208.4,21.4,206.7 M43.1,142.5c0-1.7-1.3-3-3-3
		s-3,1.3-3,3c0,1.7,1.3,3,3,3S43.1,144.2,43.1,142.5 M64.8,78.3c0-1.7-1.3-3-3-3s-3,1.3-3,3s1.3,3,3,3S64.8,80,64.8,78.3 M86.6,14.1
		c0-1.7-1.3-3-3-3s-3,1.3-3,3c0,1.7,1.3,3,3,3S86.6,15.8,86.6,14.1 M108.3,14.1c0-1.7-1.3-3-3-3s-3,1.3-3,3c0,1.7,1.3,3,3,3
		S108.3,15.8,108.3,14.1 M130,78.3c0-1.7-1.3-3-3-3s-3,1.3-3,3s1.3,3,3,3S130,80,130,78.3 M151.7,142.5c0-1.7-1.3-3-3-3s-3,1.3-3,3
		c0,1.7,1.3,3,3,3S151.7,144.2,151.7,142.5 M173.4,206.7c0-1.7-1.3-3-3-3c-1.7,0-3,1.3-3,3c0,1.7,1.3,3,3,3
		C172.1,209.7,173.4,208.4,173.4,206.7 M195.2,270.9c0-1.7-1.3-3-3-3c-1.7,0-3,1.3-3,3s1.3,3,3,3
		C193.8,273.9,195.2,272.6,195.2,270.9 M216.9,270.9c0-1.7-1.3-3-3-3s-3,1.3-3,3s1.3,3,3,3S216.9,272.6,216.9,270.9 M238.6,270.9
		c0-1.7-1.3-3-3-3c-1.7,0-3,1.3-3,3s1.3,3,3,3C237.3,273.9,238.6,272.6,238.6,270.9 M260.3,270.9c0-1.7-1.3-3-3-3c-1.7,0-3,1.3-3,3
		s1.3,3,3,3C259,273.9,260.3,272.6,260.3,270.9 M282,270.9c0-1.7-1.3-3-3-3c-1.7,0-3,1.3-3,3s1.3,3,3,3
		C280.7,273.9,282,272.6,282,270.9 M303.8,270.9c0-1.7-1.3-3-3-3c-1.7,0-3,1.3-3,3s1.3,3,3,3C302.4,273.9,303.8,272.6,303.8,270.9
		 M325.5,270.9c0-1.7-1.3-3-3-3c-1.7,0-3,1.3-3,3s1.3,3,3,3C324.1,273.9,325.5,272.6,325.5,270.9 M347.2,270.9c0-1.7-1.3-3-3-3
		c-1.7,0-3,1.3-3,3s1.3,3,3,3C345.9,273.9,347.2,272.6,347.2,270.9"/>
	<path class="st4" d="M18.4,270.9v-64.2 M40.1,270.9V142.5 M61.8,270.9V78.3 M83.6,270.9V14.1 M105.3,270.9V14.1 M127,270.9V78.3
		 M148.7,270.9V142.5 M170.4,270.9v-64.2 M192.2,270.9L192.2,270.9 M213.9,270.9L213.9,270.9 M235.6,270.9L235.6,270.9 M257.3,270.9
		L257.3,270.9 M279,270.9L279,270.9 M300.8,270.9L300.8,270.9 M322.5,270.9L322.5,270.9 M344.2,270.9L344.2,270.9"/>
	<path class="st0" d="M18.4,270.9h325.8 M18.4,14.1h325.8 M18.4,270.9v-3.3 M127,270.9v-3.3 M235.6,270.9v-3.3 M344.2,270.9v-3.3
		 M18.4,14.1v3.3 M127,14.1v3.3 M235.6,14.1v3.3 M344.2,14.1v3.3"/>
	<g>
		<path class="st1" d="M16.4,284.4c-0.4-0.6-0.6-1.5-0.6-2.7s0.2-2,0.6-2.7c0.4-0.6,1-0.9,1.8-0.9c0.8,0,1.4,0.3,1.8,0.9
			c0.4,0.6,0.6,1.5,0.6,2.7s-0.2,2-0.6,2.7s-1,0.9-1.8,0.9C17.4,285.3,16.8,285,16.4,284.4z M19.3,283.8c0.2-0.5,0.4-1.2,0.4-2.1
			c0-0.9-0.1-1.6-0.4-2.1c-0.2-0.5-0.6-0.7-1.1-0.7c-0.5,0-0.9,0.2-1.1,0.7c-0.2,0.5-0.4,1.2-0.4,2.1c0,0.9,0.1,1.6,0.4,2.1
			s0.6,0.7,1.1,0.7C18.7,284.5,19,284.3,19.3,283.8z"/>
		<path class="st1" d="M129.7,282.8c0,0.7-0.2,1.3-0.7,1.8c-0.5,0.5-1,0.7-1.7,0.7c-0.7,0-1.3-0.2-1.7-0.5s-0.7-0.8-0.7-1.5h0.9
			c0,0.4,0.2,0.7,0.5,0.9c0.3,0.2,0.6,0.3,1.1,0.3c0.4,0,0.8-0.1,1-0.4s0.4-0.7,0.4-1.1c0-0.5-0.1-0.9-0.4-1.2s-0.7-0.4-1.1-0.4
			c-0.3,0-0.5,0.1-0.7,0.2s-0.4,0.3-0.5,0.5l-0.7,0l0.5-3.8h3.6v0.9h-3L126,281l0,0c0.4-0.3,0.8-0.4,1.2-0.4c0.7,0,1.3,0.2,1.8,0.6
			C129.5,281.6,129.7,282.2,129.7,282.8z"/>
	</g>
	<g>
		<path class="st1" d="M232.5,280.1h-1.6v-0.7c0.5,0,0.9-0.1,1.2-0.3c0.3-0.2,0.5-0.6,0.7-1h0.7v7H233h-0.5V280.1z"/>
		<path class="st1" d="M236.5,284.4c-0.4-0.6-0.6-1.5-0.6-2.7s0.2-2,0.6-2.7c0.4-0.6,1-0.9,1.8-0.9c0.8,0,1.4,0.3,1.8,0.9
			c0.4,0.6,0.6,1.5,0.6,2.7s-0.2,2-0.6,2.7s-1,0.9-1.8,0.9C237.5,285.3,236.9,285,236.5,284.4z M239.3,283.8
			c0.2-0.5,0.4-1.2,0.4-2.1c0-0.9-0.1-1.6-0.4-2.1c-0.2-0.5-0.6-0.7-1.1-0.7c-0.5,0-0.9,0.2-1.1,0.7c-0.2,0.5-0.4,1.2-0.4,2.1
			c0,0.9,0.1,1.6,0.4,2.1s0.6,0.7,1.1,0.7C238.7,284.5,239.1,284.3,239.3,283.8z"/>
	</g>
	<g>
		<path class="st1" d="M341.2,280.1h-1.6v-0.7c0.5,0,0.9-0.1,1.2-0.3c0.3-0.2,0.5-0.6,0.7-1h0.7v7h-0.5h-0.5V280.1z"/>
		<path class="st1" d="M349.2,282.8c0,0.7-0.2,1.3-0.7,1.8c-0.5,0.5-1,0.7-1.7,0.7c-0.7,0-1.3-0.2-1.7-0.5s-0.7-0.8-0.7-1.5h0.9
			c0,0.4,0.2,0.7,0.5,0.9c0.3,0.2,0.6,0.3,1.1,0.3c0.4,0,0.8-0.1,1-0.4c0.3-0.3,0.4-0.7,0.4-1.1c0-0.5-0.1-0.9-0.4-1.2
			s-0.7-0.4-1.1-0.4c-0.3,0-0.5,0.1-0.7,0.2c-0.2,0.1-0.4,0.3-0.5,0.5l-0.7,0l0.5-3.8h3.6v0.9h-3l-0.3,1.9l0,0
			c0.4-0.3,0.8-0.4,1.2-0.4c0.7,0,1.3,0.2,1.8,0.6C349,281.6,349.2,282.2,349.2,282.8z"/>
	</g>
	<path class="st5" d="M170.4,297.2c-0.1,0-0.1,0-0.1-0.1c0,0-0.1-0.1-0.1-0.1c0-0.1,0-0.1,0.1-0.1c0,0,0.1-0.1,0.1-0.1h8.2
		c-0.3-0.2-0.5-0.4-0.7-0.7s-0.4-0.5-0.5-0.8c-0.1-0.3-0.2-0.6-0.3-1c0-0.1,0-0.1,0.1-0.1h0.2c0,0,0,0,0.1,0c0,0,0,0,0,0.1
		c0.1,0.3,0.2,0.6,0.3,0.9c0.1,0.3,0.3,0.5,0.5,0.7c0.2,0.2,0.4,0.4,0.6,0.6c0.2,0.2,0.5,0.3,0.8,0.4c0,0,0.1,0.1,0.1,0.1
		c0,0.1,0,0.1-0.1,0.1c-0.4,0.1-0.7,0.3-1,0.6c-0.3,0.3-0.6,0.6-0.8,0.9c-0.2,0.4-0.3,0.7-0.4,1.1c0,0,0,0,0,0.1c0,0,0,0-0.1,0h-0.2
		c-0.1,0-0.1,0-0.1-0.1c0.1-0.5,0.3-1,0.5-1.4c0.3-0.4,0.6-0.8,1-1.1H170.4L170.4,297.2z"/>
	<g>
		<path class="st1" d="M187.8,294h0.5h0.5v0.8l0.2-0.3c0.4-0.5,0.9-0.7,1.6-0.7c0.6,0,1.1,0.2,1.5,0.5s0.5,0.8,0.5,1.5v3.9H192h-0.5
			v-3.6c0-0.5-0.1-0.9-0.3-1.1s-0.5-0.3-0.9-0.3c-0.5,0-0.8,0.2-1.1,0.5c-0.3,0.4-0.4,0.8-0.4,1.4v3.1h-0.5h-0.5V294z"/>
	</g>
</g>
</svg>
