<?xml version="1.0" encoding="utf-8"?>
<!-- Generator: Adobe Illustrator 22.1.0, SVG Export Plug-In . SVG Version: 6.00 Build 0)  -->
<svg version="1.1" id="Layer_1" xmlns="http://www.w3.org/2000/svg" xmlns:xlink="http://www.w3.org/1999/xlink" x="0px" y="0px"
	 viewBox="0 0 444.2 96.8" style="enable-background:new 0 0 444.2 96.8;" xml:space="preserve">
<style type="text/css">
	.st0{fill:none;stroke:#000000;stroke-width:0.8504;stroke-miterlimit:10;}
	.st1{fill:#1D1D1B;}
	.st2{fill:none;stroke:#000000;stroke-width:2.5511;stroke-linecap:round;stroke-miterlimit:10;stroke-dasharray:0,8.0763;}
	.st3{fill:none;stroke:#000000;stroke-width:2.5511;stroke-linecap:round;stroke-miterlimit:10;stroke-dasharray:0,8.0096;}
	.st4{stroke:#F70000;stroke-width:0.8504;stroke-miterlimit:10;}
	.st5{stroke:#00FF00;stroke-width:0.8504;stroke-miterlimit:10;}
	.st6{stroke:#000000;stroke-width:0.8504;stroke-miterlimit:10;}
	.st7{fill:none;stroke:#0000FF;stroke-width:2.2677;stroke-miterlimit:10;}
	.st8{fill:none;stroke:#0000FF;stroke-width:2.2677;stroke-linecap:round;stroke-miterlimit:10;stroke-dasharray:0,8.0504;}
	.st9{stroke:#0000FF;stroke-width:0.8504;stroke-miterlimit:10;}
	.st10{fill:#0000FF;}
	.st11{fill:#FF0000;}
	.st12{fill:none;stroke:#000000;stroke-width:2.2677;stroke-miterlimit:10;}
	.st13{fill:none;stroke:#000000;stroke-width:2.2677;stroke-linecap:round;stroke-miterlimit:10;stroke-dasharray:0,8.6929;}
	.st14{fill:none;stroke:#000000;stroke-width:0.8504;stroke-linecap:round;stroke-miterlimit:10;stroke-dasharray:0,5.4662;}
</style>
<g>
	<polyline points="202.3,45.5 206.8,43.3 202.3,41 203.4,43.3 	"/>
	<line class="st0" x1="8.4" y1="43.3" x2="203.4" y2="43.3"/>
	<polyline points="17.7,5.3 15.4,0.7 13.2,5.3 15.4,4.1 	"/>
	<line class="st0" x1="15.4" y1="82.2" x2="15.4" y2="4.1"/>
	<g>
		<path class="st1" d="M25.5,8.2c-0.1,0.4-0.2,0.7-0.2,0.9c0,0.3,0.2,0.7,0.5,0.7c0.3,0,1-0.2,1.3-1.3c0-0.1,0-0.1,0.1-0.1
			c0,0,0.1,0,0.1,0.1c0,0.2-0.6,1.5-1.6,1.5c-0.6,0-1-0.4-1.1-0.8c0,0.1-0.4,0.8-1,0.8c-0.4,0-0.9-0.2-0.9-0.7
			c0-0.3,0.2-0.6,0.5-0.6c0.1,0,0.4,0.1,0.4,0.3c0,0.3-0.2,0.5-0.5,0.5c0.2,0.1,0.4,0.1,0.5,0.1c0.4,0,0.8-0.4,0.9-1
			c0.4-1.4,0.5-2.1,0.5-2.4c0-0.6-0.3-0.7-0.5-0.7c-0.3,0-1,0.2-1.3,1.3c0,0.1-0.1,0.1-0.1,0.1c0,0-0.1,0-0.1-0.1
			c0-0.2,0.6-1.5,1.6-1.5c0.3,0,0.8,0.1,1.1,0.8c0.1-0.2,0.5-0.8,1-0.8c0.3,0,0.9,0.1,0.9,0.7c0,0.4-0.3,0.6-0.5,0.6
			c-0.3,0-0.4-0.2-0.4-0.3c0-0.2,0.2-0.5,0.5-0.5c-0.2-0.1-0.4-0.1-0.5-0.1c-0.7,0-0.9,0.9-1,1.2L25.5,8.2z"/>
	</g>
	<g>
		<path class="st1" d="M29.3,12.3v-10h1.4v0.4h-1v9.2h1v0.4H29.3z"/>
	</g>
	<g>
		<path class="st1" d="M32.4,6.9c0.1-0.5,0.2-0.6,0.2-0.8c0-0.3-0.1-0.5-0.3-0.5c-0.4,0-0.6,0.5-0.7,1.2c-0.1,0.2-0.1,0.2-0.2,0.2
			c0,0-0.1,0-0.1-0.1c0,0,0.1-0.6,0.3-1c0.1-0.2,0.3-0.6,0.7-0.6c0.5,0,0.9,0.3,0.9,0.9c0.2-0.2,0.7-0.9,1.6-0.9
			c0.7,0,1.1,0.4,1.1,1.1c0,0.6-0.4,1.7-0.6,2.2c-0.1,0.2-0.2,0.5-0.2,0.7c0,0.2,0.1,0.3,0.2,0.3c0.5,0,0.8-0.6,1-1.2
			c0-0.1,0-0.2,0.1-0.2c0,0,0.1,0,0.1,0.1c0,0.1-0.4,1.5-1.3,1.5c-0.5,0-0.8-0.3-0.8-0.8c0-0.1,0-0.2,0.1-0.5
			c0.2-0.4,0.6-1.7,0.6-2.3c0-0.3-0.1-0.7-0.5-0.7c-0.9,0-1.5,0.9-1.6,1.2c0,0-0.1,0.3-0.1,0.5c0,0.2-0.1,0.4-0.2,0.7l-0.2,0.9
			c-0.1,0.2-0.2,0.7-0.2,0.7c-0.1,0.2-0.2,0.3-0.4,0.3c-0.1,0-0.3-0.1-0.3-0.3c0-0.1,0.1-0.3,0.1-0.4L32.4,6.9z"/>
	</g>
	<g>
		<path class="st1" d="M38.5,12.3h-1.4v-0.4h1V2.8h-1V2.4h1.4V12.3z"/>
		<path class="st1" d="M43.5,6.6c-0.1,0-0.3,0-0.3-0.2s0.2-0.2,0.3-0.2h6c0.1,0,0.3,0,0.3,0.2s-0.2,0.2-0.3,0.2H43.5z M43.4,8.5
			c-0.1,0-0.3,0-0.3-0.2s0.2-0.2,0.3-0.2h5.9c0.1,0,0.3,0,0.3,0.2s-0.2,0.2-0.3,0.2H43.4z"/>
	</g>
	<g>
		<path class="st1" d="M55.6,9.7c0.4,0,1-0.1,1.3-1c0-0.1,0-0.1,0.1-0.1c0,0,0.1,0,0.1,0.1s-0.3,1.3-1.7,1.3c-1.2,0-2.1-1-2.1-2.3
			c0-1.2,0.9-2.3,2.2-2.3c0.8,0,1.5,0.4,1.5,1.1c0,0.3-0.2,0.5-0.5,0.5c-0.3,0-0.5-0.2-0.5-0.5c0-0.1,0.1-0.4,0.5-0.5
			c-0.3-0.4-1-0.4-1.1-0.4c-0.5,0-1.3,0.4-1.3,2C54.2,9.3,55,9.7,55.6,9.7z"/>
		<path class="st1" d="M59.9,9.9c-1.2,0-2.2-1-2.2-2.2c0-1.2,1-2.3,2.2-2.3c1.2,0,2.2,1.1,2.2,2.3C62.1,9,61.1,9.9,59.9,9.9z
			 M61.1,9c0.2-0.4,0.2-1,0.2-1.3c0-0.4,0-1-0.3-1.4c-0.3-0.4-0.7-0.6-1.1-0.6c-0.4,0-0.9,0.2-1.1,0.7c-0.2,0.4-0.2,1-0.2,1.4
			c0,0.4,0,1,0.2,1.4c0.3,0.5,0.7,0.7,1.1,0.7C60.4,9.7,60.9,9.4,61.1,9z"/>
		<path class="st1" d="M63.2,7.4c-0.3-0.2-0.4-0.5-0.4-0.8c0-0.6,0.4-1.2,1.6-1.2c0.1,0,0.6,0,0.9,0.3c0,0,0.1-0.1,0.2-0.2
			c0.1-0.1,0.1-0.1,0.2-0.1c0.1,0,0.1,0.1,0.1,0.2v1c0,0.2,0,0.2-0.1,0.2c0,0-0.1,0-0.1-0.1c0-0.3-0.1-1.2-1.2-1.2
			c-0.9,0-1.1,0.4-1.1,0.8c0,0.6,0.7,0.7,1.2,0.8c0.4,0.1,0.8,0.2,1.1,0.5C65.7,7.7,66,8,66,8.6c0,0.7-0.5,1.4-1.6,1.4
			c-0.2,0-0.7,0-1.1-0.4c-0.2,0.2-0.2,0.2-0.2,0.2c-0.2,0.2-0.2,0.2-0.2,0.2c-0.1,0-0.1-0.1-0.1-0.2V8.4c0-0.2,0-0.2,0.1-0.2
			c0.1,0,0.1,0,0.1,0.2c0.2,0.8,0.5,1.4,1.4,1.4c0.8,0,1.1-0.4,1.1-0.9c0-0.7-0.8-0.9-1-0.9C63.8,7.8,63.5,7.7,63.2,7.4z"/>
		<path class="st1" d="M69.6,12.3c-0.1,0-1-0.6-1.6-1.9c-0.5-1.1-0.7-2.3-0.7-3.1c0-0.8,0.1-1.9,0.6-3c0.6-1.3,1.5-1.9,1.6-1.9
			c0.1,0,0.1,0,0.1,0.1c0,0,0,0-0.1,0.2c-1.2,1.2-1.6,3-1.6,4.7c0,1.5,0.3,3.4,1.6,4.7C69.7,12.2,69.7,12.2,69.6,12.3
			C69.7,12.3,69.7,12.3,69.6,12.3z"/>
	</g>
	<g>
		<path class="st1" d="M73.2,5c-0.2,0.6-0.2,0.9-0.5,0.9c-0.2,0-0.2-0.1-0.2-0.2c0,0,0-0.1,0-0.1c0,0,0.1-0.2,0.1-0.3
			c0.2-0.4,0.6-1.2,0.8-2H73c-0.2,0-0.6,0-0.9,0.5c0,0.1,0,0.1-0.1,0.1c0,0-0.1,0-0.1-0.1c0-0.1,0.3-0.4,0.5-0.6
			c0.3-0.3,0.5-0.4,0.8-0.4h2.6c0.1,0,0.3,0,0.3,0.2c0,0,0,0.1-0.1,0.2c-0.1,0.1-0.1,0.1-0.3,0.1h-0.9c-0.1,0.5-0.1,0.8-0.1,0.9
			c0,0.6,0.1,1,0.3,1.2c0,0.1,0.1,0.1,0.1,0.2c0,0.2-0.2,0.3-0.3,0.3c-0.1,0-0.2,0-0.3-0.4c0-0.2-0.1-0.3-0.1-0.6
			c0-0.6,0.2-1.2,0.3-1.6h-0.8L73.2,5z"/>
	</g>
	<polyline points="71.5,7.5 76.4,7.5 76.4,7.1 71.5,7.1 	"/>
	<g>
		<path class="st1" d="M75.3,13.3h-2.9c0-0.2,0-0.2,0.1-0.3l1.7-1.7c0.2-0.3,0.7-0.7,0.7-1.3c0-0.6-0.4-1.1-1.1-1.1
			c-0.3,0-0.8,0.2-1,0.6c0.4,0,0.4,0.2,0.4,0.4c0,0.3-0.2,0.4-0.4,0.4c-0.1,0-0.4,0-0.4-0.4c0-0.6,0.6-1.2,1.5-1.2
			c0.9,0,1.6,0.5,1.6,1.4c0,0.7-0.5,1.1-1,1.5c-0.4,0.3-0.7,0.5-1.4,1.2h1.3c0.1,0,0.6,0,0.7,0c0.1-0.1,0.2-0.5,0.2-0.6h0.2
			L75.3,13.3z"/>
	</g>
	<g>
		<path class="st1" d="M79.1,6.9c0.1-0.5,0.2-0.6,0.2-0.8c0-0.3-0.1-0.5-0.3-0.5c-0.4,0-0.6,0.5-0.7,1.2C78.1,7,78.1,7.1,78,7.1
			c0,0-0.1,0-0.1-0.1c0,0,0.1-0.6,0.3-1c0.1-0.2,0.3-0.6,0.7-0.6c0.5,0,0.9,0.3,0.9,0.9c0.2-0.2,0.7-0.9,1.6-0.9
			c0.7,0,1.1,0.4,1.1,1.1c0,0.6-0.4,1.7-0.6,2.2c-0.1,0.2-0.2,0.5-0.2,0.7c0,0.2,0.1,0.3,0.2,0.3c0.5,0,0.8-0.6,1-1.2
			c0-0.1,0-0.2,0.1-0.2c0,0,0.1,0,0.1,0.1c0,0.1-0.4,1.5-1.3,1.5c-0.5,0-0.8-0.3-0.8-0.8c0-0.1,0-0.2,0.1-0.5
			c0.2-0.4,0.6-1.7,0.6-2.3c0-0.3-0.1-0.7-0.5-0.7c-0.9,0-1.5,0.9-1.6,1.2c0,0-0.1,0.3-0.1,0.5c0,0.2-0.1,0.4-0.2,0.7l-0.2,0.9
			c-0.1,0.2-0.2,0.7-0.2,0.7c-0.1,0.2-0.2,0.3-0.4,0.3c-0.1,0-0.3-0.1-0.3-0.3c0-0.1,0.1-0.3,0.1-0.4L79.1,6.9z"/>
	</g>
	<g>
		<path class="st1" d="M85.9,10.4c-0.6,1.3-1.5,1.9-1.6,1.9c-0.1,0-0.1,0-0.1-0.1c0,0,0-0.1,0.1-0.2c1.2-1.3,1.6-3,1.6-4.7
			c0-2.1-0.6-3.7-1.5-4.7c-0.2-0.2-0.2-0.2-0.2-0.2c0-0.1,0-0.1,0.1-0.1c0.1,0,1,0.6,1.6,1.9c0.5,1.1,0.7,2.3,0.7,3.1
			C86.5,8.2,86.4,9.3,85.9,10.4z"/>
	</g>
	<g>
		<path class="st1" d="M205.3,53.1c0.1-0.5,0.2-0.6,0.2-0.8c0-0.3-0.1-0.5-0.3-0.5c-0.4,0-0.6,0.5-0.7,1.2c-0.1,0.2-0.1,0.2-0.2,0.2
			c0,0-0.1,0-0.1-0.1c0,0,0.1-0.6,0.3-1c0.1-0.2,0.3-0.6,0.7-0.6c0.5,0,0.9,0.3,0.9,0.9c0.2-0.2,0.7-0.9,1.6-0.9
			c0.7,0,1.1,0.4,1.1,1.1c0,0.6-0.4,1.7-0.6,2.2c-0.1,0.2-0.2,0.5-0.2,0.7c0,0.2,0.1,0.3,0.2,0.3c0.5,0,0.8-0.6,1-1.2
			c0-0.1,0-0.2,0.1-0.2c0,0,0.1,0,0.1,0.1c0,0.1-0.4,1.5-1.3,1.5c-0.5,0-0.8-0.3-0.8-0.8c0-0.1,0-0.2,0.1-0.5
			c0.2-0.4,0.6-1.7,0.6-2.3c0-0.3-0.1-0.7-0.5-0.7c-0.9,0-1.5,0.9-1.6,1.2c0,0-0.1,0.3-0.1,0.5c0,0.2-0.1,0.4-0.2,0.7l-0.2,0.9
			c-0.1,0.2-0.2,0.7-0.2,0.7c-0.1,0.2-0.2,0.3-0.4,0.3c-0.1,0-0.3-0.1-0.3-0.3c0,0,0.1-0.3,0.1-0.4L205.3,53.1z"/>
	</g>
	<path class="st0" d="M100.5,46.8v-7.1 M185.5,46.8v-7.1"/>
	<g>
		<path class="st1" d="M20.7,56.2c-0.4,0.9-1.2,1.2-1.7,1.2c-0.5,0-1.2-0.2-1.6-1c-0.4-0.8-0.4-1.7-0.4-2.4c0-0.8,0-1.6,0.4-2.3
			c0.4-0.9,1.1-1.2,1.7-1.2c0.4,0,1.2,0.2,1.7,1.1c0.3,0.7,0.4,1.5,0.4,2.3C21.1,54.7,21.1,55.5,20.7,56.2z M20.2,55.9
			c0.1-0.6,0.1-1.3,0.1-2.1c0-0.6,0-1.4-0.1-1.9c-0.2-1-0.8-1.2-1.2-1.2c-0.2,0-1,0.1-1.2,1.3c-0.1,0.5-0.1,1.2-0.1,1.8
			c0,0.6,0,1.5,0.1,2.1c0.2,1,0.8,1.2,1.2,1.2C19.5,57.1,20,56.8,20.2,55.9z"/>
		<path class="st1" d="M37.2,56.3c0,0.4,0,0.5,0.9,0.5h0.3v0.3c-0.3,0-1.2,0-1.6,0c-0.4,0-1.3,0-1.6,0v-0.3h0.3
			c0.9,0,0.9-0.1,0.9-0.5v-5.2c-0.5,0.3-1.1,0.3-1.3,0.3v-0.3c0.3,0,1.2,0,1.8-0.6c0.2,0,0.2,0,0.2,0.3V56.3z"/>
	</g>
	<path class="st2" d="M1.3,29.1c0,0,7.5-14.2,14.2-14.2s10.1,8.6,14.2,14.2c3.2,4.4,4.6,9.3,7.1,14.2s3.9,9.7,7.1,14.2
		c4,5.6,7.5,14.2,14.2,14.2c6.7,0,10.1-8.6,14.2-14.2c3.2-4.4,4.6-9.3,7.1-14.2c2.4-4.9,3.9-9.7,7.1-14.2c4-5.6,7.5-14.2,14.2-14.2
		c6.7,0,14.2,14.2,14.2,14.2l0,0"/>
	<path class="st3" d="M114.7,29.1c0,0,4.6,9.3,7.1,14.2s3.9,9.7,7.1,14.2c4,5.6,7.5,14.2,14.2,14.2c6.7,0,10.1-8.6,14.2-14.2
		c3.2-4.4,4.6-9.3,7.1-14.2s3.9-9.7,7.1-14.2c4-5.6,7.5-14.2,14.2-14.2c6.7,0,14.2,14.2,14.2,14.2l0,0"/>
	<path class="st4" d="M38.5,43.2c0-1-0.8-1.8-1.8-1.8s-1.8,0.8-1.8,1.8c0,1,0.8,1.8,1.8,1.8S38.5,44.2,38.5,43.2L38.5,43.2z"/>
	<path class="st5" d="M81.1,43.2c0-1-0.8-1.8-1.8-1.8c-1,0-1.8,0.8-1.8,1.8c0,1,0.8,1.8,1.8,1.8C80.3,45,81.1,44.2,81.1,43.2
		L81.1,43.2z"/>
	<path class="st6" d="M123.5,43.2c0-1-0.8-1.8-1.8-1.8c-1,0-1.8,0.8-1.8,1.8c0,1,0.8,1.8,1.8,1.8C122.7,45,123.5,44.2,123.5,43.2
		L123.5,43.2z"/>
	<path class="st6" d="M166,43.2c0-1-0.8-1.8-1.8-1.8s-1.8,0.8-1.8,1.8c0,1,0.8,1.8,1.8,1.8S166,44.2,166,43.2L166,43.2z"/>
	<polyline points="350.8,8.8 348.5,4.3 346.3,8.8 348.5,7.7 	"/>
	<line class="st0" x1="348.5" y1="71.6" x2="348.5" y2="7.7"/>
	<g>
		<path class="st1" d="M358.5,4.5c0.1-0.1,0.2-0.2,0.2-0.4c0-0.3-0.3-0.3-0.4-0.3c-0.1,0-0.1,0-0.1-0.1c0-0.2,0.1-0.2,0.2-0.2
			c0.4,0,0.7,0,1.1,0c0.3,0,0.6,0,0.9,0c0.1,0,0.1,0.1,0.1,0.1c0,0.2-0.1,0.2-0.2,0.2c-0.6,0-1,0.3-1.3,0.5c-0.3,0.3-1.4,1.5-2,2.2
			c0.2,0.6,0.9,2.2,1.3,3.1c0.2,0.4,0.2,0.4,0.9,0.4c0.1,0,0.2,0,0.2,0.1c0,0.2-0.1,0.2-0.2,0.2c-0.2,0-0.9,0-1.1,0
			c-0.3,0-1,0-1.3,0c0,0-0.1,0-0.1-0.1c0-0.2,0.1-0.2,0.2-0.2c0.4,0,0.6-0.2,0.6-0.3c0,0,0,0,0-0.1l-1-2.4l-0.9,1l-1,1.1
			c-0.1,0.1-0.3,0.3-0.3,0.4c0,0.3,0.3,0.3,0.4,0.3c0,0,0.1,0,0.1,0.1c0,0.2-0.1,0.2-0.2,0.2c-0.4,0-0.7,0-1.1,0c-0.3,0-0.6,0-0.9,0
			c-0.1,0-0.1-0.1-0.1-0.1c0-0.2,0.1-0.2,0.2-0.2c0.5,0,1-0.2,1.5-0.7l0.1-0.1l2.1-2.3l-1.2-2.8c-0.1-0.2-0.1-0.3-0.7-0.3
			c-0.1,0-0.2,0-0.2-0.1c0-0.2,0.1-0.2,0.2-0.2c0.2,0,0.9,0,1.1,0c0.4,0,0.8,0,1.3,0c0,0,0.1,0,0.1,0.1c0,0.2-0.1,0.2-0.2,0.2
			c-0.4,0-0.6,0.2-0.6,0.3c0,0,0,0,0,0.1l0.8,2L358.5,4.5z"/>
	</g>
	<g>
		<path class="st1" d="M362.3,12.8v-10h1.4v0.4h-1v9.2h1v0.4H362.3z"/>
	</g>
	<g>
		<path class="st1" d="M365.7,7.7c0.4-0.1,0.8-0.5,1.1-0.9c0.7-0.8,1.2-0.9,1.5-0.9c0.4,0,0.7,0.3,0.7,0.6c0,0.4-0.3,0.6-0.5,0.6
			c-0.3,0-0.4-0.2-0.4-0.3c0-0.1,0.1-0.5,0.6-0.5c0,0,0,0,0,0c-0.1-0.1-0.1-0.1-0.2-0.1c0,0,0,0-0.1,0c-0.5,0-0.9,0.4-1.4,1
			c-0.2,0.2-0.5,0.6-0.9,0.7c0.8,0.1,1.5,0.4,1.5,1c0,0.1,0,0.1,0,0.3c0,0.2-0.1,0.4-0.1,0.6c0,0.4,0.1,0.5,0.3,0.5
			c0.4,0,0.7-0.5,0.9-1.2c0-0.1,0-0.2,0.1-0.2c0,0,0.1,0,0.1,0.1c0,0-0.1,0.6-0.4,1c-0.2,0.4-0.5,0.5-0.8,0.5c-0.5,0-0.9-0.4-0.9-1
			c0-0.1,0-0.2,0-0.3c0-0.1,0-0.1,0-0.2c0-0.7-0.8-0.8-1.2-0.8c-0.1,0.2-0.5,2.1-0.6,2.2c-0.1,0.1-0.2,0.2-0.3,0.2
			c-0.1,0-0.3,0-0.3-0.3c0-0.1,0-0.1,0-0.2l1.4-5.7l0-0.2c0-0.1,0-0.2-0.5-0.2c-0.1,0-0.2,0-0.2-0.1c0-0.2,0.1-0.2,0.2-0.2
			c0.3,0,1-0.1,1.2-0.1c0.1,0,0.1,0.1,0.1,0.1L365.7,7.7z"/>
	</g>
	<g>
		<path class="st1" d="M371,12.8h-1.4v-0.4h1V3.2h-1V2.8h1.4V12.8z"/>
	</g>
	<polyline points="439.7,66.8 444.2,64.5 439.7,62.2 440.8,64.5 	"/>
	<line class="st0" x1="267" y1="64.5" x2="440.8" y2="64.5"/>
	<g>
		<path class="st1" d="M438.1,76c0.4-0.1,0.8-0.5,1.1-0.9c0.7-0.8,1.2-0.9,1.5-0.9c0.4,0,0.7,0.3,0.7,0.6c0,0.4-0.3,0.6-0.5,0.6
			c-0.3,0-0.4-0.2-0.4-0.3c0-0.1,0.1-0.5,0.6-0.5c0,0,0,0,0,0c-0.1-0.1-0.1-0.1-0.2-0.1c0,0,0,0-0.1,0c-0.5,0-0.9,0.4-1.4,1
			c-0.2,0.2-0.5,0.6-0.9,0.7c0.8,0.1,1.5,0.4,1.5,1c0,0.1,0,0.1,0,0.3c0,0.2-0.1,0.4-0.1,0.6c0,0.4,0.1,0.5,0.3,0.5
			c0.4,0,0.7-0.5,0.9-1.2c0-0.1,0-0.2,0.1-0.2c0,0,0.1,0,0.1,0.1c0,0-0.1,0.6-0.4,1c-0.2,0.4-0.5,0.5-0.8,0.5c-0.5,0-0.9-0.4-0.9-1
			c0-0.1,0-0.2,0-0.3c0-0.1,0-0.1,0-0.2c0-0.7-0.8-0.8-1.2-0.8c-0.1,0.3-0.5,2.1-0.6,2.2c-0.1,0.1-0.2,0.2-0.3,0.2
			c-0.1,0-0.3,0-0.3-0.3c0-0.1,0-0.1,0-0.2l1.4-5.7l0-0.2c0-0.1,0-0.2-0.5-0.2c-0.1,0-0.2,0-0.2-0.1c0-0.2,0.1-0.2,0.2-0.2
			c0.3,0,1-0.1,1.2-0.1c0.1,0,0.1,0.1,0.1,0.1L438.1,76z"/>
	</g>
	<line class="st7" x1="369.8" y1="64.5" x2="369.8" y2="22"/>
	<line class="st8" x1="327.3" y1="64.5" x2="327.3" y2="22"/>
	<g>
		<path class="st1" d="M350.3,77.4c-0.4,0.9-1.2,1.2-1.7,1.2c-0.5,0-1.2-0.2-1.6-1c-0.4-0.8-0.4-1.7-0.4-2.4c0-0.8,0-1.6,0.4-2.3
			c0.4-0.9,1.1-1.2,1.7-1.2c0.4,0,1.2,0.2,1.7,1.1c0.3,0.7,0.4,1.5,0.4,2.3C350.6,76,350.6,76.7,350.3,77.4z M349.7,77.1
			c0.1-0.6,0.1-1.3,0.1-2.1c0-0.6,0-1.4-0.1-1.9c-0.2-1-0.8-1.2-1.2-1.2c-0.2,0-1,0.1-1.2,1.3c-0.1,0.5-0.1,1.2-0.1,1.8
			c0,0.6,0,1.5,0.1,2.1c0.2,1,0.8,1.2,1.2,1.2C349,78.4,349.5,78.1,349.7,77.1z"/>
		<path class="st1" d="M370.2,77.6c0,0.4,0,0.5,0.9,0.5h0.3v0.3c-0.3,0-1.2,0-1.6,0s-1.3,0-1.6,0V78h0.3c0.9,0,0.9-0.1,0.9-0.5v-5.2
			c-0.5,0.3-1.1,0.3-1.3,0.3v-0.3c0.3,0,1.2,0,1.8-0.6c0.2,0,0.2,0,0.2,0.3V77.6z"/>
	</g>
	<g>
		<path class="st1" d="M323.2,76.5v-0.6h2.6v0.6H323.2z"/>
		<path class="st1" d="M329.4,77.6c0,0.4,0,0.5,0.9,0.5h0.3v0.3c-0.3,0-1.2,0-1.6,0s-1.3,0-1.6,0V78h0.3c0.9,0,0.9-0.1,0.9-0.5v-5.2
			c-0.5,0.3-1.1,0.3-1.3,0.3v-0.3c0.3,0,1.2,0,1.8-0.6c0.2,0,0.2,0,0.2,0.3V77.6z"/>
	</g>
	<line class="st0" x1="391" y1="68.1" x2="391" y2="61"/>
	<g>
		<path class="st1" d="M391.6,77.6c0.2,0,0.9,0,0.9-0.1c0.1-0.1,0.2-0.6,0.2-0.9h0.2l-0.3,1.7H389c0-0.2,0-0.3,0.1-0.4l1.9-2.1
			c0.5-0.6,1-1.4,1-2.2c0-0.8-0.4-1.6-1.3-1.6c-0.6,0-1.1,0.4-1.3,1c0,0,0,0,0.1,0c0.3,0,0.5,0.3,0.5,0.5c0,0.4-0.3,0.5-0.5,0.5
			c0,0-0.5,0-0.5-0.6c0-0.9,0.7-1.8,1.9-1.8c1.2,0,2.1,0.8,2.1,1.9c0,1-0.6,1.5-2.2,2.9l-1.1,1H391.6z"/>
	</g>
	<line class="st0" x1="306" y1="68.1" x2="306" y2="61"/>
	<g>
		<path class="st1" d="M302,76.5v-0.6h2.6v0.6H302z"/>
		<path class="st1" d="M308.3,77.6c0.2,0,0.9,0,0.9-0.1c0.1-0.1,0.2-0.6,0.2-0.9h0.2l-0.3,1.7h-3.7c0-0.2,0-0.3,0.1-0.4l1.9-2.1
			c0.5-0.6,1-1.4,1-2.2c0-0.8-0.4-1.6-1.3-1.6c-0.6,0-1.1,0.4-1.3,1c0,0,0,0,0.1,0c0.3,0,0.5,0.3,0.5,0.5c0,0.4-0.3,0.5-0.5,0.5
			c0,0-0.5,0-0.5-0.6c0-0.9,0.7-1.8,1.9-1.8c1.2,0,2.1,0.8,2.1,1.9c0,1-0.6,1.5-2.2,2.9l-1.1,1H308.3z"/>
	</g>
	<line class="st7" x1="412.3" y1="64.5" x2="412.3" y2="22"/>
	<line class="st8" x1="284.7" y1="64.5" x2="284.7" y2="22"/>
	<g>
		<path class="st1" d="M414.4,76.6c0,1-0.9,1.9-2.1,1.9c-1.1,0-2-0.7-2-1.6c0-0.4,0.3-0.6,0.6-0.6c0.3,0,0.6,0.2,0.6,0.6
			c0,0.4-0.3,0.6-0.7,0.5c0.3,0.6,1.1,0.8,1.5,0.8c0.4,0,1.1-0.3,1.1-1.6c0-1-0.4-1.7-1.2-1.7h-0.4c-0.2,0-0.2,0-0.2-0.1
			c0-0.1,0.1-0.1,0.1-0.1c0.1,0,0.3,0,0.4,0c0.2,0,0.6,0,0.9-0.5c0.3-0.4,0.3-1,0.3-1.1c0-0.9-0.5-1.1-1-1.1c-0.4,0-1,0.1-1.3,0.6
			c0.1,0,0.6,0,0.6,0.5c0,0.3-0.2,0.5-0.5,0.5c-0.3,0-0.5-0.2-0.5-0.5c0-0.8,0.8-1.4,1.8-1.4c1,0,1.8,0.6,1.8,1.4
			c0,0.8-0.6,1.5-1.4,1.8C413.8,75.1,414.4,75.8,414.4,76.6z"/>
	</g>
	<g>
		<path class="st1" d="M280.8,76.5v-0.6h2.6v0.6H280.8z"/>
		<path class="st1" d="M288.6,76.6c0,1-0.9,1.9-2.1,1.9c-1.1,0-2-0.7-2-1.6c0-0.4,0.3-0.6,0.6-0.6c0.3,0,0.6,0.2,0.6,0.6
			c0,0.4-0.3,0.6-0.7,0.5c0.3,0.6,1.1,0.8,1.5,0.8c0.4,0,1.1-0.3,1.1-1.6c0-1-0.4-1.7-1.2-1.7h-0.4c-0.2,0-0.2,0-0.2-0.1
			c0-0.1,0.1-0.1,0.1-0.1c0.1,0,0.3,0,0.4,0c0.2,0,0.6,0,0.9-0.5c0.3-0.4,0.3-1,0.3-1.1c0-0.9-0.5-1.1-1-1.1c-0.4,0-1,0.1-1.3,0.6
			c0.1,0,0.6,0,0.6,0.5c0,0.3-0.2,0.5-0.5,0.5c-0.3,0-0.5-0.2-0.5-0.5c0-0.8,0.8-1.4,1.8-1.4c1,0,1.8,0.6,1.8,1.4
			c0,0.8-0.6,1.5-1.4,1.8C287.9,75.1,288.6,75.8,288.6,76.6z"/>
	</g>
	<g>
		<path class="st1" d="M81.3,55.4c0,1-0.9,1.9-2.1,1.9c-1.1,0-2-0.7-2-1.6c0-0.4,0.3-0.6,0.6-0.6c0.3,0,0.6,0.2,0.6,0.6
			c0,0.4-0.3,0.6-0.7,0.5c0.3,0.6,1.1,0.8,1.5,0.8c0.4,0,1.1-0.3,1.1-1.6c0-1-0.4-1.7-1.2-1.7h-0.4c-0.2,0-0.2,0-0.2-0.1
			c0-0.1,0.1-0.1,0.1-0.1c0.1,0,0.3,0,0.4,0c0.2,0,0.6,0,0.9-0.5c0.3-0.4,0.3-1,0.3-1.1c0-0.9-0.5-1.1-1-1.1c-0.4,0-1,0.1-1.3,0.6
			c0.1,0,0.6,0,0.6,0.5c0,0.3-0.2,0.5-0.5,0.5c-0.3,0-0.5-0.2-0.5-0.5c0-0.8,0.8-1.4,1.8-1.4c1,0,1.8,0.6,1.8,1.4
			c0,0.8-0.6,1.5-1.4,1.8C80.7,53.8,81.3,54.6,81.3,55.4z"/>
		<path class="st1" d="M98.3,55.5v-0.3l3.1-4.7c0.1-0.1,0.1-0.1,0.2-0.1c0.2,0,0.2,0.1,0.2,0.3v4.5h1v0.3h-1v0.9
			c0,0.4,0,0.5,0.8,0.5h0.2v0.3c-0.4,0-0.9,0-1.4,0s-0.9,0-1.3,0v-0.3h0.2c0.7,0,0.8-0.1,0.8-0.5v-0.9H98.3z M101,51.4l-2.4,3.7h2.4
			V51.4z"/>
		<path class="st1" d="M121.5,57.3c-1.1,0-1.8-1-1.8-1.8c0-0.5,0.3-0.5,0.5-0.5c0.3,0,0.5,0.2,0.5,0.5c0,0.2-0.2,0.5-0.5,0.5
			c-0.1,0-0.1,0-0.2,0c0.2,0.6,0.7,1.1,1.5,1.1c0.5,0,0.8-0.3,1.1-0.6c0.2-0.4,0.2-1,0.2-1.4c0-0.5,0-0.9-0.2-1.3
			c-0.1-0.2-0.3-0.6-0.8-0.6c-0.8,0-1.2,0.5-1.3,0.7c0,0.1-0.1,0.1-0.1,0.1c-0.1,0-0.1-0.1-0.1-0.3v-2.9c0-0.2,0-0.2,0.1-0.2
			c0,0,0,0,0.1,0c0.5,0.2,0.9,0.3,1.3,0.3c0.7,0,1.2-0.2,1.4-0.3c0,0,0.1,0,0.1,0c0.1,0,0.1,0,0.1,0.1c0,0.1-0.7,1-1.9,1
			c-0.3,0-0.6-0.1-0.8-0.1v1.9c0.4-0.3,0.8-0.5,1.3-0.5c1.1,0,1.9,1,1.9,2.2C123.7,56.4,122.7,57.3,121.5,57.3z"/>
	</g>
	<g>
		<path class="st1" d="M165.2,52.9c-0.4,0.6-0.6,1.5-0.6,1.7c-0.1,0.5-0.1,1.1-0.1,1.6v0.5c0,0.1,0,0.5-0.5,0.5
			c-0.5,0-0.5-0.4-0.5-0.5c0-1,0.3-2.4,1.2-3.7c0.2-0.3,1-1.4,1.1-1.6h-2.1c-0.1,0-0.9,0-1,0.1c-0.1,0.1-0.2,0.7-0.2,0.9h-0.2
			l0.3-2.1h0.2c0,0.2,0.1,0.3,1.3,0.3h2.4c0,0.2,0,0.2-0.1,0.3L165.2,52.9z"/>
		<path class="st1" d="M187.1,54.2c0.4,0.4,0.5,0.9,0.5,1.2c0,1.1-0.9,1.9-2.1,1.9c-1,0-2.1-0.7-2.1-1.7c0-1,0.9-1.5,1.4-1.8
			c-0.2-0.2-0.6-0.4-0.7-0.5c-0.4-0.5-0.4-0.9-0.4-1.1c0-0.9,0.8-1.7,1.8-1.7c0.9,0,1.8,0.6,1.8,1.5c0,0.7-0.5,1.2-1.2,1.5
			C186.8,53.9,187,54,187.1,54.2z M184,55.6c0,0.8,0.7,1.4,1.6,1.4c0.8,0,1.6-0.5,1.6-1.3c0-0.6-0.5-0.9-0.7-1.1l-1.2-0.8
			C184.3,54.4,184,55,184,55.6z M185.9,53.4c0.6-0.3,1-0.8,1-1.4c0-0.7-0.6-1.2-1.4-1.2c-0.7,0-1.4,0.4-1.4,1c0,0.2,0,0.5,0.5,0.8
			L185.9,53.4z"/>
	</g>
	<path class="st9" d="M350.3,64.5c0-1-0.8-1.8-1.8-1.8s-1.8,0.8-1.8,1.8s0.8,1.8,1.8,1.8S350.3,65.5,350.3,64.5L350.3,64.5z"/>
	<path class="st9" d="M392.8,64.5c0-1-0.8-1.8-1.8-1.8c-1,0-1.8,0.8-1.8,1.8s0.8,1.8,1.8,1.8C392,66.3,392.8,65.5,392.8,64.5
		L392.8,64.5z"/>
	<path class="st9" d="M307.9,64.5c0-1-0.8-1.8-1.8-1.8s-1.8,0.8-1.8,1.8s0.8,1.8,1.8,1.8S307.9,65.5,307.9,64.5L307.9,64.5z"/>
	<path class="st9" d="M435.4,64.5c0-1-0.8-1.8-1.8-1.8s-1.8,0.8-1.8,1.8s0.8,1.8,1.8,1.8S435.4,65.5,435.4,64.5L435.4,64.5z"/>
	<path class="st9" d="M371.6,21.9c0-1-0.8-1.8-1.8-1.8c-1,0-1.8,0.8-1.8,1.8c0,1,0.8,1.8,1.8,1.8C370.8,23.7,371.6,22.9,371.6,21.9
		L371.6,21.9z"/>
	<path class="st9" d="M286.5,21.9c0-1-0.8-1.8-1.8-1.8S283,21,283,21.9c0,1,0.8,1.8,1.8,1.8S286.5,22.9,286.5,21.9L286.5,21.9z"/>
	<path class="st9" d="M329.1,21.9c0-1-0.8-1.8-1.8-1.8c-1,0-1.8,0.8-1.8,1.8c0,1,0.8,1.8,1.8,1.8C328.3,23.7,329.1,22.9,329.1,21.9
		L329.1,21.9z"/>
	<path class="st9" d="M414,21.9c0-1-0.8-1.8-1.8-1.8c-1,0-1.8,0.8-1.8,1.8c0,1,0.8,1.8,1.8,1.8C413.3,23.7,414,22.9,414,21.9
		L414,21.9z"/>
	<g>
		<path class="st1" d="M244.5,53.9c-1.1,0-1.9-0.9-1.9-1.9c0-1,0.9-1.9,1.9-1.9c1,0,1.9,0.9,1.9,1.9S245.5,53.9,244.5,53.9z M246,52
			c0-0.9-0.7-1.5-1.5-1.5c-0.9,0-1.5,0.7-1.5,1.5s0.7,1.5,1.5,1.5C245.3,53.5,246,52.8,246,52z"/>
		<path class="st1" d="M246.8,52.2c-0.2,0-0.3,0-0.3-0.2s0.2-0.2,0.3-0.2h5.4c0.2,0,0.3,0,0.3,0.2s-0.2,0.2-0.3,0.2H246.8z"/>
	</g>
	<g>
		<path class="st1" d="M254.5,53.9c-1.1,0-1.9-0.9-1.9-1.9c0-1,0.9-1.9,1.9-1.9c1,0,1.9,0.9,1.9,1.9S255.5,53.9,254.5,53.9z M256,52
			c0-0.9-0.7-1.5-1.5-1.5c-0.9,0-1.5,0.7-1.5,1.5s0.7,1.5,1.5,1.5C255.3,53.5,256,52.8,256,52z"/>
	</g>
	<g>
		<path class="st1" d="M221.8,40.5v-0.3l3.1-4.7c0.1-0.1,0.1-0.1,0.2-0.1c0.2,0,0.2,0.1,0.2,0.3v4.5h1v0.3h-1v0.9
			c0,0.4,0,0.5,0.8,0.5h0.2v0.3c-0.4,0-0.9,0-1.4,0c-0.4,0-0.9,0-1.3,0v-0.3h0.2c0.7,0,0.8-0.1,0.8-0.5v-0.9H221.8z M224.5,36.4
			l-2.4,3.7h2.4V36.4z"/>
		<path class="st1" d="M233,37.7c1.1,0,2.1,1,2.1,2.3c0,1.3-1,2.3-2.2,2.3c-0.8,0-1.2-0.5-1.2-0.7v0.1v1.7c0,0.4,0.1,0.4,0.8,0.4V44
			c-0.3,0-0.9,0-1.1,0c-0.3,0-0.8,0-1.1,0v-0.3c0.7,0,0.8,0,0.8-0.4v-4.7c0-0.4-0.1-0.5-0.8-0.5v-0.3l1.4-0.1v0.7
			C231.8,38.1,232.2,37.7,233,37.7z M231.8,41.4c0.3,0.4,0.6,0.6,1,0.6c0.7,0,1.4-0.8,1.4-2c0-1.1-0.6-2-1.3-2c-0.5,0-1,0.3-1.3,0.8
			V41C231.6,41.2,231.6,41.2,231.8,41.4z"/>
	</g>
	<g>
		<path class="st1" d="M238.1,42.2c-1.2,0-2.2-1-2.2-2.2c0-1.2,1-2.3,2.2-2.3c1.2,0,2.2,1.1,2.2,2.3
			C240.3,41.2,239.3,42.2,238.1,42.2z M239.3,41.2c0.2-0.4,0.2-1,0.2-1.3c0-0.4,0-1-0.3-1.4c-0.3-0.4-0.7-0.6-1.1-0.6
			c-0.4,0-0.9,0.2-1.1,0.7c-0.2,0.4-0.2,1-0.2,1.4c0,0.4,0,1,0.2,1.4c0.3,0.5,0.7,0.7,1.1,0.7C238.6,42,239.1,41.7,239.3,41.2z"/>
		<path class="st1" d="M242.4,41.4c0,0.4,0,0.4,0.7,0.4v0.3c-0.3,0-0.7,0-1,0c-0.2,0-0.8,0-1.1,0v-0.3c0.7,0,0.8,0,0.8-0.4v-2.7
			c0-0.5-0.1-0.5-0.7-0.5v-0.3l1.4-0.1V41.4z M242,36.5c-0.3,0-0.5-0.3-0.5-0.5c0-0.3,0.2-0.5,0.5-0.5c0.3,0,0.5,0.2,0.5,0.5
			S242.2,36.5,242,36.5z"/>
	</g>
	<g>
		<path class="st1" d="M243.8,38.1v-0.3l1.4-0.1v1c0.3-0.6,0.7-1,1.5-1c0.6,0,0.9,0.2,1,0.4c0.3,0.4,0.3,0.7,0.3,1.5v1.9
			c0,0.3,0.3,0.3,0.8,0.3v0.3c-0.3,0-0.9,0-1.1,0c-0.3,0-0.8,0-1.1,0v-0.3c0.7,0,0.8,0,0.8-0.4V39c0-0.6-0.1-1.1-0.7-1.1
			c-0.6,0-1.3,0.6-1.3,1.6v1.8c0,0.4,0.1,0.4,0.8,0.4v0.3c-0.3,0-0.9,0-1.1,0c-0.3,0-0.8,0-1.1,0v-0.3c0.7,0,0.8,0,0.8-0.4v-2.7
			C244.5,38.2,244.5,38.1,243.8,38.1z"/>
		<path class="st1" d="M250.4,40.9c0,0.2,0,1.1,0.7,1.1c0.4,0,0.7-0.4,0.7-1.1v-0.5h0.2v0.6c0,0.6-0.3,1.3-1,1.3
			c-0.4,0-1.3-0.1-1.3-1.3v-2.8h-0.8v-0.2c1,0,1.3-1.1,1.3-1.9h0.2v1.8h1.4v0.3h-1.4V40.9z"/>
	</g>
	<g>
		<path class="st1" d="M259.8,35.3c1.7,0,3,1.6,3,3.5c0,1.9-1.4,3.3-3,3.3h-3.6v-0.3h0.2c0.8,0,0.8-0.1,0.8-0.5v-5.3
			c0-0.4,0-0.5-0.8-0.5h-0.2v-0.3H259.8z M259.5,41.8c1,0,1.6-0.6,1.8-0.8c0.4-0.5,0.5-1.1,0.5-2.2c0-0.8-0.1-1.6-0.5-2.2
			c-0.5-0.7-1.2-0.9-1.8-0.9h-1c-0.5,0-0.5,0.1-0.5,0.4v5.4c0,0.3,0,0.4,0.5,0.4H259.5z"/>
		<path class="st1" d="M269.4,37.6h-0.2c-0.2-1.4-0.4-1.9-1.9-1.9h-1.2c-0.5,0-0.5,0.1-0.5,0.4v2.5h0.9c1,0,1.1-0.3,1.1-1.2h0.2V40
			h-0.2c0-0.8-0.1-1.2-1.1-1.2h-0.9v2.5c0,0.3,0,0.5,0.9,0.5h0.3v0.3c-0.4,0-1.3,0-1.7,0c-0.4,0-1.2,0-1.5,0v-0.3h0.2
			c0.8,0,0.8-0.1,0.8-0.5v-5.2c0-0.4,0-0.5-0.8-0.5h-0.2v-0.3h5.5L269.4,37.6z"/>
	</g>
	<g>
		<path class="st1" d="M276.7,37.6h-0.2c-0.1-1.6-0.3-1.9-1.8-1.9c-0.2,0-0.5,0-0.6,0c-0.2,0-0.2,0.2-0.2,0.4v5.3c0,0.3,0,0.5,1,0.5
			h0.4v0.3c-0.4,0-1.4,0-1.9,0s-1.5,0-1.9,0v-0.3h0.4c1,0,1-0.1,1-0.5v-5.3c0-0.2,0-0.3-0.2-0.4c-0.1,0-0.4,0-0.5,0
			c-1.5,0-1.7,0.3-1.8,1.9h-0.2l0.2-2.2h6.1L276.7,37.6z"/>
	</g>
	<line class="st0" x1="348.5" y1="89.3" x2="348.5" y2="96.4"/>
	<polyline points="353.1,90.6 348.5,92.9 353.1,95.1 351.9,92.9 	"/>
	<polyline points="425.5,95.1 430,92.9 425.5,90.6 426.6,92.9 	"/>
	<line class="st0" x1="351.9" y1="92.9" x2="426.6" y2="92.9"/>
	<g>
		<path class="st10" d="M392,84.8h-0.5c-0.1-1.2-0.4-1.9-2-1.9h-1.4v2.7h0.5c1,0,1-0.4,1-1.2h0.5v2.8h-0.5c0-0.7-0.1-1.2-1-1.2h-0.5
			v2.7h1.3v0.5c-0.4,0-1.5,0-2,0c-0.4,0-1.4,0-1.8,0v-0.5h1.1v-5.8h-1.1v-0.5h6L392,84.8z"/>
		<path class="st10" d="M395.4,88.7h1.1v0.5c-0.4,0-1.4,0-1.8,0c-0.5,0-1.4,0-1.8,0v-0.5h1.1v-5.9h-1.1v-0.5c0.4,0,1.4,0,1.8,0
			c0.5,0,1.4,0,1.8,0v0.5h-1.1V88.7z"/>
	</g>
	<path class="st0" d="M430,89.3c0,0,3.5,1.9,3.5,3.5s-3.5,3.5-3.5,3.5l0,0 M15.4,89.3v7.1"/>
	<polyline points="20,90.6 15.4,92.9 20,95.1 18.9,92.9 	"/>
	<polyline points="92.4,95.1 96.9,92.9 92.4,90.6 93.5,92.9 	"/>
	<line class="st0" x1="18.9" y1="92.9" x2="93.5" y2="92.9"/>
	<g>
		<path class="st11" d="M57.2,84.8h-0.5c-0.1-1.2-0.4-1.9-2-1.9h-1.4v2.7h0.5c1,0,1-0.4,1-1.2h0.5v2.8h-0.5c0-0.7-0.1-1.2-1-1.2
			h-0.5v2.7h1.3v0.5c-0.4,0-1.5,0-2,0c-0.4,0-1.4,0-1.8,0v-0.5H52v-5.8h-1.1v-0.5h6L57.2,84.8z"/>
		<path class="st11" d="M60.6,88.7h1.1v0.5c-0.4,0-1.4,0-1.8,0c-0.4,0-1.4,0-1.8,0v-0.5h1.1v-5.9h-1.1v-0.5h4.2
			c1.7,0,2.6,0.8,2.6,1.9c0,1.2-1.2,1.9-2.5,1.9h-1.8V88.7z M63.3,84.3c0-0.7,0-1.5-1.5-1.5h-1.3v2.9h1.3
			C63.3,85.7,63.3,85,63.3,84.3z"/>
	</g>
	<path class="st0" d="M96.9,89.3c0,0,3.5,1.9,3.5,3.5s-3.5,3.5-3.5,3.5l0,0 M345,22h7.1"/>
	<g>
		<path class="st1" d="M359.8,24.4c0.2,0,0.9,0,0.9-0.1c0.1-0.1,0.2-0.6,0.2-0.9h0.2l-0.3,1.7h-3.7c0-0.2,0-0.3,0.1-0.4l1.9-2.1
			c0.5-0.6,1-1.4,1-2.2c0-0.8-0.4-1.6-1.3-1.6c-0.6,0-1.1,0.4-1.3,1c0,0,0,0,0.1,0c0.3,0,0.5,0.3,0.5,0.5c0,0.4-0.3,0.5-0.5,0.5
			c0,0-0.5,0-0.5-0.6c0-0.9,0.7-1.8,1.9-1.8c1.2,0,2.1,0.8,2.1,1.9c0,1-0.6,1.5-2.2,2.9l-1.1,1H359.8z"/>
	</g>
	<g>
		<path class="st1" d="M5.3,17.3c0,0.4,0,0.5,0.9,0.5h0.3v0.3c-0.3,0-1.2,0-1.6,0c-0.4,0-1.3,0-1.6,0v-0.3h0.3
			c0.9,0,0.9-0.1,0.9-0.5v-5.2c-0.5,0.3-1.1,0.3-1.3,0.3v-0.3c0.3,0,1.2,0,1.8-0.6c0.2,0,0.2,0,0.2,0.3V17.3z"/>
	</g>
	<line class="st12" x1="15.4" y1="43.3" x2="15.4" y2="14.9"/>
	<path class="st6" d="M17.2,14.9c0-1-0.8-1.8-1.8-1.8s-1.8,0.8-1.8,1.8c0,1,0.8,1.8,1.8,1.8S17.2,15.9,17.2,14.9L17.2,14.9z"/>
	<line class="st7" x1="58" y1="71.6" x2="58" y2="43.3"/>
	<path class="st9" d="M59.8,71.6c0-1-0.8-1.8-1.8-1.8c-1,0-1.8,0.8-1.8,1.8c0,1,0.8,1.8,1.8,1.8C59,73.4,59.8,72.6,59.8,71.6
		L59.8,71.6z"/>
	<line class="st13" x1="100.5" y1="43.3" x2="100.5" y2="14.9"/>
	<path d="M102.3,14.9c0-1-0.8-1.8-1.8-1.8s-1.8,0.8-1.8,1.8c0,1,0.8,1.8,1.8,1.8S102.3,15.9,102.3,14.9L102.3,14.9z"/>
	<path class="st14" d="M102.3,14.9c0-1-0.8-1.8-1.8-1.8s-1.8,0.8-1.8,1.8c0,1,0.8,1.8,1.8,1.8S102.3,15.9,102.3,14.9L102.3,14.9z"/>
	<line class="st13" x1="143" y1="71.6" x2="143" y2="43.3"/>
	<path d="M144.8,71.6c0-1-0.8-1.8-1.8-1.8s-1.8,0.8-1.8,1.8c0,1,0.8,1.8,1.8,1.8S144.8,72.6,144.8,71.6L144.8,71.6z"/>
	<path class="st14" d="M144.8,71.6c0-1-0.8-1.8-1.8-1.8s-1.8,0.8-1.8,1.8c0,1,0.8,1.8,1.8,1.8S144.8,72.6,144.8,71.6L144.8,71.6z"/>
	<line class="st13" x1="185.5" y1="43.3" x2="185.5" y2="14.9"/>
	<path d="M187.4,14.9c0-1-0.8-1.8-1.8-1.8s-1.8,0.8-1.8,1.8c0,1,0.8,1.8,1.8,1.8S187.4,15.9,187.4,14.9L187.4,14.9z"/>
	<path class="st14" d="M187.4,14.9c0-1-0.8-1.8-1.8-1.8s-1.8,0.8-1.8,1.8c0,1,0.8,1.8,1.8,1.8S187.4,15.9,187.4,14.9L187.4,14.9z"/>
	<line class="st0" x1="11.9" y1="71.6" x2="19" y2="71.6"/>
	<g>
		<path class="st1" d="M0.8,72.9v-0.6h2.6v0.6H0.8z"/>
		<path class="st1" d="M7,74c0,0.4,0,0.5,0.9,0.5h0.3v0.3c-0.3,0-1.2,0-1.6,0c-0.4,0-1.3,0-1.6,0v-0.3h0.3c0.9,0,0.9-0.1,0.9-0.5
			v-5.2c-0.5,0.3-1.1,0.3-1.3,0.3v-0.3c0.3,0,1.2,0,1.8-0.6c0.2,0,0.2,0,0.2,0.3V74z"/>
	</g>
</g>
</svg>
