<?xml version="1.0" encoding="utf-8"?>
<!-- Generator: Adobe Illustrator 22.1.0, SVG Export Plug-In . SVG Version: 6.00 Build 0)  -->
<svg version="1.1" id="Layer_1" xmlns="http://www.w3.org/2000/svg" xmlns:xlink="http://www.w3.org/1999/xlink" x="0px" y="0px"
	 viewBox="0 0 392.2 303" style="enable-background:new 0 0 392.2 303;" xml:space="preserve">
<style type="text/css">
	.st0{fill:none;stroke:#262626;stroke-width:0.4998;stroke-linecap:square;stroke-linejoin:round;stroke-miterlimit:10;}
	.st1{fill:#4A4A49;}
	.st2{fill:none;stroke:#262626;stroke-width:0.4998;stroke-linejoin:round;stroke-miterlimit:10;}
	.st3{fill:none;stroke:#000000;stroke-width:4.0002;stroke-miterlimit:10;}
	.st4{fill:none;stroke:#000000;stroke-width:4.0002;stroke-linejoin:round;stroke-miterlimit:10;}
	.st5{fill:#262626;}
</style>
<g>
	<path class="st0" d="M18.4,270.9V14.1 M344.2,270.9V14.1 M18.4,270.9h3.3 M18.4,238.8h3.3 M18.4,206.7h3.3 M18.4,174.6h3.3
		 M18.4,142.5h3.3 M18.4,110.4h3.3 M18.4,78.3h3.3 M18.4,46.2h3.3 M18.4,14.1h3.3 M344.2,270.9h-3.3 M344.2,238.8h-3.3 M344.2,206.7
		h-3.3 M344.2,174.6h-3.3 M344.2,142.5h-3.3 M344.2,110.4h-3.3 M344.2,78.3h-3.3 M344.2,46.2h-3.3 M344.2,14.1h-3.3"/>
	<g>
		<path class="st1" d="M9.4,274.1c-0.4-0.6-0.6-1.5-0.6-2.7s0.2-2,0.6-2.7c0.4-0.6,1-0.9,1.8-0.9c0.8,0,1.4,0.3,1.8,0.9
			c0.4,0.6,0.6,1.5,0.6,2.7s-0.2,2-0.6,2.7s-1,0.9-1.8,0.9C10.4,275,9.8,274.7,9.4,274.1z M12.3,273.5c0.2-0.5,0.4-1.2,0.4-2.1
			c0-0.9-0.1-1.6-0.4-2.1c-0.2-0.5-0.6-0.7-1.1-0.7c-0.5,0-0.9,0.2-1.1,0.7c-0.2,0.5-0.4,1.2-0.4,2.1c0,0.9,0.1,1.6,0.4,2.1
			s0.6,0.7,1.1,0.7C11.7,274.2,12,274,12.3,273.5z"/>
	</g>
	<g>
		<path class="st1" d="M1,242c-0.4-0.6-0.6-1.5-0.6-2.7s0.2-2,0.6-2.7c0.4-0.6,1-0.9,1.8-0.9c0.8,0,1.4,0.3,1.8,0.9
			c0.4,0.6,0.6,1.5,0.6,2.7s-0.2,2-0.6,2.7s-1,0.9-1.8,0.9C2,242.9,1.4,242.6,1,242z M3.9,241.4c0.2-0.5,0.4-1.2,0.4-2.1
			c0-0.9-0.1-1.6-0.4-2.1c-0.2-0.5-0.6-0.7-1.1-0.7c-0.5,0-0.9,0.2-1.1,0.7c-0.2,0.5-0.4,1.2-0.4,2.1c0,0.9,0.1,1.6,0.4,2.1
			s0.6,0.7,1.1,0.7C3.3,242.1,3.6,241.9,3.9,241.4z"/>
		<path class="st1" d="M6.4,241.6h1v1.1h-1V241.6z"/>
	</g>
	<g>
		<path class="st1" d="M12.6,240.4c0,0.7-0.2,1.3-0.7,1.8c-0.5,0.5-1,0.7-1.7,0.7c-0.7,0-1.3-0.2-1.7-0.5s-0.7-0.8-0.7-1.5h0.9
			c0,0.4,0.2,0.7,0.5,0.9c0.3,0.2,0.6,0.3,1.1,0.3c0.4,0,0.8-0.1,1-0.4s0.4-0.7,0.4-1.1c0-0.5-0.1-0.9-0.4-1.2s-0.7-0.4-1.1-0.4
			c-0.3,0-0.5,0.1-0.7,0.2s-0.4,0.3-0.5,0.5l-0.7,0l0.5-3.8h3.6v0.9h-3L9,238.6l0,0c0.4-0.3,0.8-0.4,1.2-0.4c0.7,0,1.3,0.2,1.8,0.6
			C12.4,239.2,12.6,239.8,12.6,240.4z"/>
	</g>
	<g>
		<path class="st1" d="M11,205.6H9.4v-0.7c0.5,0,0.9-0.1,1.2-0.3c0.3-0.2,0.5-0.6,0.7-1H12v7h-0.5H11V205.6z"/>
	</g>
	<g>
		<path class="st1" d="M2.7,173.5H1v-0.7c0.5,0,0.9-0.1,1.2-0.3c0.3-0.2,0.5-0.6,0.7-1h0.7v7H3.1H2.7V173.5z"/>
		<path class="st1" d="M6.4,177.4h1v1.1h-1V177.4z"/>
	</g>
	<g>
		<path class="st1" d="M12.6,176.2c0,0.7-0.2,1.3-0.7,1.8c-0.5,0.5-1,0.7-1.7,0.7c-0.7,0-1.3-0.2-1.7-0.5s-0.7-0.8-0.7-1.5h0.9
			c0,0.4,0.2,0.7,0.5,0.9c0.3,0.2,0.6,0.3,1.1,0.3c0.4,0,0.8-0.1,1-0.4s0.4-0.7,0.4-1.1c0-0.5-0.1-0.9-0.4-1.2s-0.7-0.4-1.1-0.4
			c-0.3,0-0.5,0.1-0.7,0.2s-0.4,0.3-0.5,0.5l-0.7,0l0.5-3.8h3.6v0.9h-3L9,174.4l0,0c0.4-0.3,0.8-0.4,1.2-0.4c0.7,0,1.3,0.2,1.8,0.6
			C12.4,175,12.6,175.5,12.6,176.2z"/>
	</g>
	<g>
		<path class="st1" d="M13.5,141.5c0,0.5-0.1,0.9-0.4,1.3s-0.8,0.7-1.5,1.1c-0.8,0.4-1.3,0.8-1.6,1.2c-0.1,0.2-0.2,0.3-0.3,0.5h3.8
			v0.9H8.6v0c0-0.7,0.2-1.3,0.6-1.8s1.1-1,2.1-1.5c0.5-0.3,0.8-0.5,1-0.8c0.2-0.2,0.3-0.5,0.3-0.9c0-0.4-0.1-0.7-0.4-0.9
			s-0.6-0.4-1-0.4c-0.4,0-0.8,0.1-1,0.4c-0.2,0.3-0.4,0.7-0.4,1.3H8.8c0-0.8,0.2-1.4,0.6-1.8c0.4-0.4,1-0.7,1.8-0.7
			c0.7,0,1.2,0.2,1.6,0.6C13.3,140.3,13.5,140.8,13.5,141.5z"/>
	</g>
	<g>
		<path class="st1" d="M5.1,109.4c0,0.5-0.1,0.9-0.4,1.3s-0.8,0.7-1.5,1.1c-0.8,0.4-1.3,0.8-1.6,1.2c-0.1,0.2-0.2,0.3-0.3,0.5h3.8
			v0.9H0.3v0c0-0.7,0.2-1.3,0.6-1.8s1.1-1,2.1-1.5c0.5-0.3,0.8-0.5,1-0.8c0.2-0.2,0.3-0.5,0.3-0.9c0-0.4-0.1-0.7-0.4-0.9
			s-0.6-0.4-1-0.4c-0.4,0-0.8,0.1-1,0.4c-0.2,0.3-0.4,0.7-0.4,1.3H0.4c0-0.8,0.2-1.4,0.6-1.8c0.4-0.4,1-0.7,1.8-0.7
			c0.7,0,1.2,0.2,1.6,0.6C4.9,108.2,5.1,108.7,5.1,109.4z"/>
		<path class="st1" d="M6.4,113.3h1v1.1h-1V113.3z"/>
	</g>
	<g>
		<path class="st1" d="M12.6,112.1c0,0.7-0.2,1.3-0.7,1.8s-1,0.7-1.7,0.7c-0.7,0-1.3-0.2-1.7-0.5s-0.7-0.8-0.7-1.5h0.9
			c0,0.4,0.2,0.7,0.5,0.9c0.3,0.2,0.6,0.3,1.1,0.3c0.4,0,0.8-0.1,1-0.4s0.4-0.7,0.4-1.1c0-0.5-0.1-0.9-0.4-1.2s-0.7-0.4-1.1-0.4
			c-0.3,0-0.5,0.1-0.7,0.2S9,111,8.9,111.2l-0.7,0l0.5-3.8h3.6v0.9h-3L9,110.2l0,0c0.4-0.3,0.8-0.4,1.2-0.4c0.7,0,1.3,0.2,1.8,0.6
			C12.4,110.8,12.6,111.4,12.6,112.1z"/>
	</g>
	<g>
		<path class="st1" d="M12.5,77.1c0-0.3-0.1-0.6-0.4-0.8s-0.6-0.3-1-0.3c-0.4,0-0.7,0.1-1,0.4c-0.2,0.3-0.3,0.6-0.4,1.1H8.9
			c0-0.7,0.2-1.3,0.6-1.7c0.4-0.4,0.9-0.6,1.6-0.6c0.7,0,1.2,0.2,1.6,0.5c0.4,0.3,0.6,0.8,0.6,1.3c0,0.5-0.2,1-0.6,1.3
			c-0.1,0.1-0.2,0.1-0.3,0.2c0.2,0.1,0.3,0.2,0.4,0.3c0.4,0.3,0.7,0.8,0.7,1.4c0,0.7-0.2,1.2-0.7,1.6s-1,0.6-1.8,0.6
			c-0.8,0-1.4-0.2-1.8-0.6s-0.6-1-0.7-1.7h0.9c0.1,0.5,0.2,0.9,0.4,1.2c0.2,0.2,0.6,0.4,1.1,0.4c0.4,0,0.8-0.1,1.1-0.4
			c0.3-0.2,0.4-0.6,0.4-1c0-0.4-0.1-0.7-0.4-1C12,79.1,11.8,79,11.4,79c-0.2,0-0.3,0-0.5,0s-0.2,0-0.3,0v-0.8c0.1,0,0.2,0,0.3,0
			s0.3,0,0.4,0c0.3,0,0.5-0.1,0.7-0.3C12.3,77.7,12.5,77.4,12.5,77.1z"/>
	</g>
	<g>
		<path class="st1" d="M4.1,45c0-0.3-0.1-0.6-0.4-0.8s-0.6-0.3-1-0.3c-0.4,0-0.7,0.1-1,0.4c-0.2,0.3-0.3,0.6-0.4,1.1H0.5
			c0-0.7,0.2-1.3,0.6-1.7c0.4-0.4,0.9-0.6,1.6-0.6c0.7,0,1.2,0.2,1.6,0.5C4.8,43.9,5,44.4,5,44.9c0,0.5-0.2,1-0.6,1.3
			c-0.1,0.1-0.2,0.1-0.3,0.2c0.2,0.1,0.3,0.2,0.4,0.3C5,47,5.2,47.5,5.2,48.1c0,0.7-0.2,1.2-0.7,1.6s-1,0.6-1.8,0.6
			c-0.8,0-1.4-0.2-1.8-0.6s-0.6-1-0.7-1.7h0.9c0.1,0.5,0.2,0.9,0.4,1.2c0.2,0.2,0.6,0.4,1.1,0.4c0.4,0,0.8-0.1,1.1-0.4
			c0.3-0.2,0.4-0.6,0.4-1c0-0.4-0.1-0.7-0.4-1C3.7,47,3.4,46.9,3,46.9c-0.2,0-0.3,0-0.5,0s-0.2,0-0.3,0v-0.8c0.1,0,0.2,0,0.3,0
			s0.3,0,0.4,0c0.3,0,0.5-0.1,0.7-0.3C3.9,45.6,4.1,45.3,4.1,45z"/>
		<path class="st1" d="M6.4,49h1v1.1h-1V49z"/>
	</g>
	<g>
		<path class="st1" d="M12.6,47.8c0,0.7-0.2,1.3-0.7,1.8s-1,0.7-1.7,0.7c-0.7,0-1.3-0.2-1.7-0.5s-0.7-0.8-0.7-1.5h0.9
			c0,0.4,0.2,0.7,0.5,0.9c0.3,0.2,0.6,0.3,1.1,0.3c0.4,0,0.8-0.1,1-0.4s0.4-0.7,0.4-1.1c0-0.5-0.1-0.9-0.4-1.2s-0.7-0.4-1.1-0.4
			c-0.3,0-0.5,0.1-0.7,0.2S9,46.8,8.9,47l-0.7,0l0.5-3.8h3.6v0.9h-3L9,46l0,0c0.4-0.3,0.8-0.4,1.2-0.4c0.7,0,1.3,0.2,1.8,0.6
			C12.4,46.6,12.6,47.2,12.6,47.8z"/>
	</g>
	<g>
		<path class="st1" d="M8.6,16.3v-0.4v-0.4l3.3-4.5h0.4h0.4v4.6h1v0.8h-1V18h-0.9v-1.7H8.6z M11.7,15.6v-3.2l-2.2,3.1l0,0.1H11.7z"
			/>
	</g>
	<g>
		<path d="M137.7,1.5h1.7V8h4v1.4h-5.6V1.5z"/>
		<path d="M148.1,3.7c0.4,0.2,0.7,0.5,1,0.9c0.2,0.3,0.4,0.8,0.5,1.2c0,0.3,0.1,0.7,0.1,1.2h-4.3c0,0.6,0.2,1,0.6,1.2
			c0.2,0.1,0.5,0.2,0.8,0.2c0.3,0,0.6-0.1,0.9-0.3c0.1-0.1,0.2-0.2,0.3-0.4h1.6c0,0.3-0.2,0.7-0.6,1.1c-0.5,0.6-1.3,0.9-2.2,0.9
			c-0.8,0-1.5-0.2-2.1-0.7c-0.6-0.5-0.9-1.3-0.9-2.3c0-1,0.3-1.8,0.8-2.3c0.5-0.5,1.2-0.8,2.1-0.8C147.3,3.4,147.7,3.5,148.1,3.7z
			 M145.9,5c-0.2,0.2-0.4,0.5-0.4,0.9h2.6c0-0.4-0.2-0.7-0.4-0.9c-0.2-0.2-0.5-0.3-0.9-0.3C146.4,4.7,146.1,4.8,145.9,5z"/>
		<path d="M155.2,3.9c0.4,0.3,0.6,0.8,0.6,1.6v3.9h-1.6V5.9c0-0.3,0-0.5-0.1-0.7c-0.1-0.3-0.4-0.5-0.9-0.5c-0.5,0-0.9,0.2-1.1,0.7
			C152,5.6,152,5.9,152,6.3v3.2h-1.5V3.6h1.5v0.9c0.2-0.3,0.4-0.5,0.6-0.6c0.3-0.2,0.7-0.4,1.2-0.4C154.3,3.5,154.8,3.6,155.2,3.9z"
			/>
		<path d="M160.1,3.6c0.4,0.2,0.7,0.4,0.9,0.8V3.6h1.5v5.6c0,0.8-0.1,1.3-0.4,1.7c-0.4,0.7-1.3,1-2.5,1c-0.7,0-1.4-0.1-1.8-0.4
			s-0.7-0.7-0.8-1.3h1.7c0,0.2,0.1,0.3,0.2,0.4c0.2,0.1,0.4,0.2,0.8,0.2c0.6,0,0.9-0.2,1.1-0.6c0.1-0.2,0.2-0.6,0.2-1.2V8.6
			c-0.1,0.3-0.3,0.4-0.5,0.6c-0.3,0.2-0.7,0.3-1.2,0.3c-0.8,0-1.4-0.3-1.8-0.8c-0.4-0.5-0.7-1.2-0.7-2.1c0-0.9,0.2-1.6,0.6-2.2
			c0.4-0.6,1-0.9,1.8-0.9C159.6,3.5,159.8,3.5,160.1,3.6z M160.6,7.8c0.2-0.3,0.4-0.7,0.4-1.3c0-0.6-0.1-1-0.4-1.3
			c-0.2-0.3-0.5-0.4-0.9-0.4c-0.5,0-0.9,0.3-1.1,0.8c-0.1,0.3-0.2,0.6-0.2,1c0,0.3,0.1,0.6,0.2,0.9c0.2,0.5,0.6,0.7,1.1,0.7
			C160,8.2,160.3,8.1,160.6,7.8z"/>
		<path d="M163.3,4.7V3.7h0.8V2h1.5v1.6h1v1.1h-1v3.1c0,0.2,0,0.4,0.1,0.4s0.2,0.1,0.6,0.1c0,0,0.1,0,0.1,0c0.1,0,0.1,0,0.2,0v1.1
			l-0.7,0c-0.7,0-1.2-0.1-1.5-0.4c-0.2-0.2-0.3-0.4-0.3-0.8V4.7H163.3z"/>
		<path d="M171.8,3.6c0.3,0.1,0.5,0.3,0.7,0.6c0.2,0.2,0.3,0.4,0.3,0.7c0,0.2,0.1,0.6,0.1,1.1v3.4h-1.6V5.9c0-0.3-0.1-0.6-0.2-0.8
			c-0.1-0.3-0.4-0.4-0.8-0.4c-0.4,0-0.7,0.1-0.9,0.4c-0.2,0.3-0.3,0.7-0.3,1.2v3.2h-1.5V1.6h1.5v2.8c0.2-0.3,0.5-0.6,0.8-0.7
			c0.3-0.1,0.6-0.2,0.9-0.2C171.1,3.4,171.5,3.5,171.8,3.6z"/>
		<path d="M176.7,9.5l2-3l-1.9-2.9h1.9l1,1.7l1-1.7h1.8l-1.9,2.9l2,3h-1.9l-1-1.8l-1,1.8H176.7z"/>
		<path d="M183.4,1.5h2.7v1.1h-1.2v7.9h1.2v1.1h-2.7V1.5z"/>
		<path d="M191.8,3.9c0.4,0.3,0.6,0.8,0.6,1.6v3.9h-1.6V5.9c0-0.3,0-0.5-0.1-0.7c-0.1-0.3-0.4-0.5-0.9-0.5c-0.5,0-0.9,0.2-1.1,0.7
			c-0.1,0.2-0.1,0.5-0.1,0.9v3.2h-1.5V3.6h1.5v0.9c0.2-0.3,0.4-0.5,0.6-0.6c0.3-0.2,0.7-0.4,1.2-0.4C191,3.5,191.4,3.6,191.8,3.9z"
			/>
		<path d="M193.4,10.5h1.2V2.6h-1.2V1.5h2.7v10.1h-2.7V10.5z"/>
		<path d="M198,3.8h1.6v1.6H198V3.8z M198,7.9h1.6v1.6H198V7.9z"/>
		<path d="M209.6,1.5h2.4v7.9h-1.5V4.1c0-0.2,0-0.4,0-0.6c0-0.3,0-0.5,0-0.6l-1.5,6.6h-1.6l-1.5-6.6c0,0.2,0,0.4,0,0.6
			c0,0.3,0,0.5,0,0.6v5.4h-1.5V1.5h2.4l1.4,6.2L209.6,1.5z"/>
		<path d="M218.8,4.6V6H213V4.6H218.8z M218.8,7.1v1.4H213V7.1H218.8z"/>
		<path d="M219.7,6.1c0.2-0.4,0.5-0.6,0.9-0.8c-0.4-0.3-0.6-0.5-0.7-0.8c-0.1-0.3-0.2-0.6-0.2-0.8c0-0.6,0.2-1,0.6-1.4
			s1-0.6,1.8-0.6c0.8,0,1.4,0.2,1.8,0.6s0.6,0.9,0.6,1.4c0,0.3-0.1,0.5-0.2,0.8c-0.1,0.3-0.4,0.5-0.7,0.8c0.4,0.2,0.7,0.5,0.9,0.9
			c0.2,0.4,0.3,0.8,0.3,1.2c0,0.7-0.2,1.2-0.7,1.7c-0.5,0.5-1.2,0.7-2,0.7s-1.5-0.2-2-0.7c-0.4-0.5-0.7-1-0.7-1.7
			C219.4,6.9,219.5,6.5,219.7,6.1z M221.3,8.1c0.2,0.2,0.5,0.3,0.8,0.3c0.4,0,0.6-0.1,0.8-0.3c0.2-0.2,0.3-0.5,0.3-0.9
			c0-0.4-0.1-0.7-0.3-0.9c-0.2-0.2-0.5-0.3-0.8-0.3s-0.6,0.1-0.8,0.3c-0.2,0.2-0.3,0.5-0.3,0.9C221,7.6,221.1,7.9,221.3,8.1z
			 M221.4,4.5c0.2,0.2,0.4,0.3,0.7,0.3c0.3,0,0.6-0.1,0.7-0.3c0.2-0.2,0.3-0.4,0.3-0.7c0-0.3-0.1-0.5-0.3-0.7
			c-0.2-0.2-0.4-0.3-0.7-0.3c-0.3,0-0.6,0.1-0.7,0.3s-0.3,0.4-0.3,0.7C221.1,4.1,221.2,4.4,221.4,4.5z"/>
	</g>
	<line class="st2" x1="18.4" y1="270.9" x2="344.2" y2="270.9"/>
	<path class="st3" d="M21.4,206.7c0-1.7-1.3-3-3-3s-3,1.3-3,3c0,1.7,1.3,3,3,3S21.4,208.4,21.4,206.7 M67.9,142.5c0-1.7-1.3-3-3-3
		s-3,1.3-3,3c0,1.7,1.3,3,3,3S67.9,144.2,67.9,142.5 M114.5,78.3c0-1.7-1.3-3-3-3c-1.7,0-3,1.3-3,3s1.3,3,3,3
		C113.1,81.3,114.5,80,114.5,78.3 M161,14.1c0-1.7-1.3-3-3-3s-3,1.3-3,3c0,1.7,1.3,3,3,3S161,15.8,161,14.1 M207.6,14.1
		c0-1.7-1.3-3-3-3c-1.7,0-3,1.3-3,3c0,1.7,1.3,3,3,3C206.2,17.1,207.6,15.8,207.6,14.1 M254.1,78.3c0-1.7-1.3-3-3-3
		c-1.7,0-3,1.3-3,3s1.3,3,3,3C252.8,81.3,254.1,80,254.1,78.3 M300.7,142.5c0-1.7-1.3-3-3-3c-1.7,0-3,1.3-3,3c0,1.7,1.3,3,3,3
		C299.3,145.5,300.7,144.2,300.7,142.5 M347.2,206.7c0-1.7-1.3-3-3-3c-1.7,0-3,1.3-3,3c0,1.7,1.3,3,3,3
		C345.9,209.7,347.2,208.4,347.2,206.7"/>
	<path class="st4" d="M18.4,270.9v-64.2 M64.9,270.9V142.5 M111.5,270.9V78.3 M158,270.9V14.1 M204.6,270.9V14.1 M251.1,270.9V78.3
		 M297.7,270.9V142.5 M344.2,270.9v-64.2"/>
	<path class="st0" d="M18.4,270.9h325.8 M18.4,14.1h325.8 M18.4,270.9v-3.3 M64.9,270.9v-3.3 M111.5,270.9v-3.3 M158,270.9v-3.3
		 M204.6,270.9v-3.3 M251.1,270.9v-3.3 M297.7,270.9v-3.3 M344.2,270.9v-3.3 M18.4,14.1v3.3 M64.9,14.1v3.3 M111.5,14.1v3.3
		 M158,14.1v3.3 M204.6,14.1v3.3 M251.1,14.1v3.3 M297.7,14.1v3.3 M344.2,14.1v3.3"/>
	<g>
		<path class="st1" d="M16.4,284.4c-0.4-0.6-0.6-1.5-0.6-2.7s0.2-2,0.6-2.7c0.4-0.6,1-0.9,1.8-0.9c0.8,0,1.4,0.3,1.8,0.9
			c0.4,0.6,0.6,1.5,0.6,2.7s-0.2,2-0.6,2.7s-1,0.9-1.8,0.9C17.4,285.3,16.8,285,16.4,284.4z M19.3,283.8c0.2-0.5,0.4-1.2,0.4-2.1
			c0-0.9-0.1-1.6-0.4-2.1c-0.2-0.5-0.6-0.7-1.1-0.7c-0.5,0-0.9,0.2-1.1,0.7c-0.2,0.5-0.4,1.2-0.4,2.1c0,0.9,0.1,1.6,0.4,2.1
			s0.6,0.7,1.1,0.7C18.7,284.5,19,284.3,19.3,283.8z"/>
		<path class="st1" d="M65.2,280.1h-1.6v-0.7c0.5,0,0.9-0.1,1.2-0.3c0.3-0.2,0.5-0.6,0.7-1h0.7v7h-0.5h-0.5V280.1z"/>
		<path class="st1" d="M114.7,280.1c0,0.5-0.1,0.9-0.4,1.3c-0.3,0.3-0.8,0.7-1.5,1.1c-0.8,0.4-1.3,0.8-1.6,1.2
			c-0.1,0.2-0.2,0.3-0.3,0.5h3.8v0.9h-4.8v0c0-0.7,0.2-1.3,0.6-1.8c0.4-0.5,1.1-1,2.1-1.5c0.5-0.3,0.8-0.5,1-0.8
			c0.2-0.2,0.3-0.5,0.3-0.9c0-0.4-0.1-0.7-0.4-0.9c-0.3-0.2-0.6-0.4-1-0.4c-0.4,0-0.8,0.1-1,0.4s-0.4,0.7-0.4,1.3h-0.9
			c0-0.8,0.2-1.4,0.6-1.8c0.4-0.4,1-0.7,1.8-0.7c0.7,0,1.2,0.2,1.6,0.6C114.5,279,114.7,279.5,114.7,280.1z"/>
		<path class="st1" d="M160.8,280c0-0.3-0.1-0.6-0.4-0.8c-0.3-0.2-0.6-0.3-1-0.3c-0.4,0-0.7,0.1-1,0.4c-0.2,0.3-0.3,0.6-0.4,1.1
			h-0.9c0-0.7,0.2-1.3,0.6-1.7c0.4-0.4,0.9-0.6,1.6-0.6c0.7,0,1.2,0.2,1.6,0.5c0.4,0.3,0.6,0.8,0.6,1.3c0,0.5-0.2,1-0.6,1.3
			c-0.1,0.1-0.2,0.1-0.3,0.2c0.2,0.1,0.3,0.2,0.4,0.3c0.4,0.3,0.7,0.8,0.7,1.4c0,0.7-0.2,1.2-0.7,1.6c-0.5,0.4-1,0.6-1.8,0.6
			c-0.8,0-1.4-0.2-1.8-0.6c-0.4-0.4-0.6-1-0.7-1.7h0.9c0.1,0.5,0.2,0.9,0.4,1.2c0.2,0.2,0.6,0.4,1.1,0.4c0.4,0,0.8-0.1,1.1-0.4
			c0.3-0.2,0.4-0.6,0.4-1c0-0.4-0.1-0.7-0.4-1c-0.2-0.2-0.5-0.3-0.9-0.4c-0.2,0-0.3,0-0.5,0s-0.2,0-0.3,0v-0.8c0.1,0,0.2,0,0.3,0
			s0.3,0,0.4,0c0.3,0,0.5-0.1,0.7-0.3C160.6,280.6,160.8,280.3,160.8,280z"/>
		<path class="st1" d="M204.1,283.4V283v-0.4l3.3-4.5h0.4h0.4v4.6h1v0.8h-1v1.7h-0.9v-1.7H204.1z M207.2,282.7v-3.2l-2.2,3.1l0,0.1
			H207.2z"/>
		<path class="st1" d="M256.1,282.8c0,0.7-0.2,1.3-0.7,1.8c-0.5,0.5-1,0.7-1.7,0.7c-0.7,0-1.3-0.2-1.7-0.5s-0.7-0.8-0.7-1.5h0.9
			c0,0.4,0.2,0.7,0.5,0.9c0.3,0.2,0.6,0.3,1.1,0.3c0.4,0,0.8-0.1,1-0.4c0.3-0.3,0.4-0.7,0.4-1.1c0-0.5-0.1-0.9-0.4-1.2
			s-0.7-0.4-1.1-0.4c-0.3,0-0.5,0.1-0.7,0.2c-0.2,0.1-0.4,0.3-0.5,0.5l-0.7,0l0.5-3.8h3.6v0.9h-3l-0.3,1.9l0,0
			c0.4-0.3,0.8-0.4,1.2-0.4c0.7,0,1.3,0.2,1.8,0.6C255.8,281.6,256.1,282.2,256.1,282.8z"/>
		<path class="st1" d="M301,278.1c0.6,0,1.1,0.2,1.5,0.5c0.4,0.3,0.6,0.8,0.6,1.4h-0.9c0-0.3-0.2-0.6-0.4-0.8s-0.5-0.3-0.8-0.3
			c-0.5,0-1,0.3-1.3,0.8c-0.3,0.4-0.4,1.1-0.4,1.8c0.4-0.6,1-0.8,1.7-0.8c0.7,0,1.2,0.2,1.6,0.6c0.4,0.4,0.6,1,0.6,1.7
			s-0.2,1.3-0.7,1.7c-0.4,0.4-1,0.6-1.7,0.6c-0.8,0-1.4-0.3-1.8-0.9c-0.4-0.6-0.6-1.4-0.6-2.5c0-1.2,0.2-2.2,0.7-2.8
			C299.5,278.4,300.2,278.1,301,278.1z M299.4,283c0,0.5,0.1,0.8,0.4,1.1c0.3,0.3,0.6,0.4,1,0.4s0.8-0.1,1-0.4
			c0.3-0.3,0.4-0.7,0.4-1.1s-0.1-0.8-0.4-1.1c-0.3-0.3-0.6-0.4-1-0.4s-0.8,0.1-1,0.4C299.6,282.1,299.4,282.5,299.4,283z"/>
		<path class="st1" d="M346.5,285.1c0.2-1.2,0.6-2.3,1.1-3.3c0.5-1,1.1-1.9,1.8-2.8h-3.9v-0.9h4.9v0.4v0.4c-0.8,0.9-1.4,1.9-1.9,2.9
			c-0.5,1-0.8,2.1-1,3.3H346.5z"/>
	</g>
	<path class="st5" d="M170.4,297.2c-0.1,0-0.1,0-0.1-0.1c0,0-0.1-0.1-0.1-0.1c0-0.1,0-0.1,0.1-0.1c0,0,0.1-0.1,0.1-0.1h8.2
		c-0.3-0.2-0.5-0.4-0.7-0.7s-0.4-0.5-0.5-0.8c-0.1-0.3-0.2-0.6-0.3-1c0-0.1,0-0.1,0.1-0.1h0.2c0,0,0,0,0.1,0c0,0,0,0,0,0.1
		c0.1,0.3,0.2,0.6,0.3,0.9c0.1,0.3,0.3,0.5,0.5,0.7c0.2,0.2,0.4,0.4,0.6,0.6c0.2,0.2,0.5,0.3,0.8,0.4c0,0,0.1,0.1,0.1,0.1
		c0,0.1,0,0.1-0.1,0.1c-0.4,0.1-0.7,0.3-1,0.6c-0.3,0.3-0.6,0.6-0.8,0.9c-0.2,0.4-0.3,0.7-0.4,1.1c0,0,0,0,0,0.1c0,0,0,0-0.1,0h-0.2
		c-0.1,0-0.1,0-0.1-0.1c0.1-0.5,0.3-1,0.5-1.4c0.3-0.4,0.6-0.8,1-1.1H170.4L170.4,297.2z"/>
	<g>
		<path class="st1" d="M187.8,294h0.5h0.5v0.8l0.2-0.3c0.4-0.5,0.9-0.7,1.6-0.7c0.6,0,1.1,0.2,1.5,0.5s0.5,0.8,0.5,1.5v3.9H192h-0.5
			v-3.6c0-0.5-0.1-0.9-0.3-1.1s-0.5-0.3-0.9-0.3c-0.5,0-0.8,0.2-1.1,0.5c-0.3,0.4-0.4,0.8-0.4,1.4v3.1h-0.5h-0.5V294z"/>
	</g>
</g>
</svg>
