<?xml version="1.0" encoding="utf-8"?>
<!-- Generator: Adobe Illustrator 22.1.0, SVG Export Plug-In . SVG Version: 6.00 Build 0)  -->
<svg version="1.1" id="Layer_1" xmlns="http://www.w3.org/2000/svg" xmlns:xlink="http://www.w3.org/1999/xlink" x="0px" y="0px"
	 viewBox="0 0 356.5 306.7" style="enable-background:new 0 0 356.5 306.7;" xml:space="preserve">
<style type="text/css">
	.st0{fill:none;stroke:#262626;stroke-width:0.4998;stroke-linecap:square;stroke-linejoin:round;stroke-miterlimit:10;}
	.st1{fill:#4A4A49;}
	.st2{fill:#262626;}
	.st3{fill:#1D1D1B;}
	.st4{fill:#FF0000;}
	.st5{fill:none;stroke:#262626;stroke-width:0.4998;stroke-linejoin:round;stroke-miterlimit:10;}
	.st6{fill:none;stroke:#000000;stroke-width:4.0002;stroke-linejoin:round;stroke-miterlimit:10;}
	.st7{fill:none;stroke:#FF0000;stroke-width:4.0002;stroke-miterlimit:10;}
	.st8{fill:none;stroke:#FF0000;stroke-width:4.0002;stroke-linejoin:round;stroke-miterlimit:10;}
</style>
<g>
	<path class="st0" d="M15.4,274.6h325.8 M15.4,17.8h325.8 M15.4,274.6v-3.3 M178.3,274.6v-3.3 M341,274.6v-3.3 M15.4,17.8V21
		 M178.3,17.8V21 M341,17.8V21"/>
	<g>
		<path class="st1" d="M6.5,288c-0.4-0.6-0.6-1.5-0.6-2.7s0.2-2,0.6-2.7c0.4-0.6,1-0.9,1.8-0.9c0.8,0,1.4,0.3,1.8,0.9
			c0.4,0.6,0.6,1.5,0.6,2.7s-0.2,2-0.6,2.7s-1,0.9-1.8,0.9C7.5,289,6.9,288.6,6.5,288z M9.4,287.5c0.2-0.5,0.4-1.2,0.4-2.1
			c0-0.9-0.1-1.6-0.4-2.1c-0.2-0.5-0.6-0.7-1.1-0.7c-0.5,0-0.9,0.2-1.1,0.7c-0.2,0.5-0.4,1.2-0.4,2.1c0,0.9,0.1,1.6,0.4,2.1
			s0.6,0.7,1.1,0.7C8.8,288.2,9.2,287.9,9.4,287.5z"/>
		<path class="st1" d="M14.7,283.6h1v1.1h-1V283.6z M14.7,288.2v-0.5h0.5h0.5v0.9c0,0.5-0.1,0.9-0.2,1.1c-0.2,0.3-0.4,0.4-0.8,0.5
			v-0.5c0.2,0,0.3-0.1,0.4-0.3c0.1-0.1,0.1-0.4,0.1-0.7h0h-0.5V288.2z"/>
		<path class="st1" d="M20.4,288c-0.4-0.6-0.6-1.5-0.6-2.7s0.2-2,0.6-2.7c0.4-0.6,1-0.9,1.8-0.9c0.8,0,1.4,0.3,1.8,0.9
			c0.4,0.6,0.6,1.5,0.6,2.7s-0.2,2-0.6,2.7s-1,0.9-1.8,0.9C21.4,289,20.8,288.6,20.4,288z M23.3,287.5c0.2-0.5,0.4-1.2,0.4-2.1
			c0-0.9-0.1-1.6-0.4-2.1c-0.2-0.5-0.6-0.7-1.1-0.7c-0.5,0-0.9,0.2-1.1,0.7c-0.2,0.5-0.4,1.2-0.4,2.1c0,0.9,0.1,1.6,0.4,2.1
			s0.6,0.7,1.1,0.7C22.7,288.2,23,287.9,23.3,287.5z"/>
	</g>
	<path class="st2" d="M169.4,288.8c0,0,0-0.1,0-0.2c0.2-0.4,0.4-0.8,0.5-1.2c0.2-0.4,0.3-0.8,0.4-1.1c0.1-0.4,0.3-0.7,0.4-1.2h-0.7
		c-0.3,0-0.5,0.1-0.7,0.2c-0.2,0.2-0.4,0.4-0.5,0.6c0,0,0,0-0.1,0h-0.1c-0.1,0-0.1,0-0.1-0.1c0,0,0,0,0-0.1c0.2-0.4,0.5-0.7,0.7-1
		c0.3-0.3,0.5-0.4,0.9-0.4h3.7c0.1,0,0.1,0,0.2,0.1c0,0,0.1,0.1,0.1,0.2c0,0.1,0,0.2-0.1,0.3c-0.1,0.1-0.2,0.1-0.3,0.1h-1.3
		c-0.1,0.5-0.2,1.1-0.2,1.6c0,0.7,0.1,1.2,0.3,1.8c0,0,0,0.1,0,0.1c0,0.1,0,0.1-0.1,0.2c0,0.1-0.1,0.1-0.2,0.2
		c-0.1,0-0.1,0.1-0.2,0.1c-0.2,0-0.3-0.1-0.4-0.4c-0.1-0.3-0.1-0.6-0.1-0.8c0-0.4,0-0.8,0.1-1.1c0.1-0.4,0.2-0.8,0.3-1.5h-1.1
		c-0.5,2.2-0.9,3.4-1,3.6c-0.1,0.2-0.2,0.3-0.4,0.3c-0.1,0-0.2,0-0.2-0.1C169.5,288.9,169.4,288.9,169.4,288.8L169.4,288.8z"/>
	<g>
		<path class="st1" d="M178,283.8h1v1.1h-1V283.8z M178,288.4v-0.5h0.5h0.5v0.9c0,0.5-0.1,0.9-0.2,1.1c-0.2,0.3-0.4,0.4-0.8,0.5V290
			c0.2,0,0.3-0.1,0.4-0.3c0.1-0.1,0.1-0.4,0.1-0.7h0H178V288.4z"/>
		<path class="st1" d="M186.7,285.3c0.2,0.1,0.4,0.2,0.5,0.3c0.4,0.4,0.7,0.8,0.7,1.4c0,0.7-0.2,1.2-0.7,1.6s-1,0.6-1.7,0.6
			s-1.3-0.2-1.7-0.6c-0.4-0.4-0.7-0.9-0.7-1.6c0-0.6,0.2-1.1,0.7-1.4c0.2-0.1,0.3-0.2,0.5-0.3c-0.1-0.1-0.2-0.1-0.3-0.2
			c-0.4-0.3-0.6-0.7-0.6-1.2c0-0.6,0.2-1,0.6-1.4s0.9-0.5,1.6-0.5s1.2,0.2,1.6,0.5s0.6,0.8,0.6,1.4c0,0.5-0.2,0.9-0.6,1.2
			C187,285.1,186.8,285.2,186.7,285.3z M185.5,285.6c-0.4,0-0.8,0.1-1.1,0.4c-0.3,0.3-0.4,0.6-0.4,1c0,0.4,0.1,0.7,0.4,1
			c0.3,0.3,0.6,0.4,1.1,0.4s0.8-0.1,1.1-0.4s0.4-0.6,0.4-1c0-0.4-0.1-0.7-0.4-1C186.3,285.8,185.9,285.6,185.5,285.6z M185.5,284.9
			c0.4,0,0.7-0.1,0.9-0.3s0.3-0.5,0.3-0.8s-0.1-0.6-0.3-0.8s-0.5-0.3-0.9-0.3s-0.7,0.1-0.9,0.3s-0.3,0.5-0.3,0.8s0.1,0.6,0.3,0.8
			C184.9,284.8,185.1,284.9,185.5,284.9z"/>
	</g>
	<g>
		<path class="st1" d="M328.9,284c0,0.5-0.1,0.9-0.4,1.3c-0.3,0.3-0.8,0.7-1.5,1.1c-0.8,0.4-1.3,0.8-1.6,1.2
			c-0.1,0.2-0.2,0.3-0.3,0.5h3.8v0.9h-4.8v0c0-0.7,0.2-1.3,0.6-1.8c0.4-0.5,1.1-1,2.1-1.5c0.5-0.3,0.8-0.5,1-0.8
			c0.2-0.2,0.3-0.5,0.3-0.9c0-0.4-0.1-0.7-0.4-0.9c-0.3-0.2-0.6-0.4-1-0.4c-0.4,0-0.8,0.1-1,0.4s-0.4,0.7-0.4,1.3h-0.9
			c0-0.8,0.2-1.4,0.6-1.8c0.4-0.4,1-0.7,1.8-0.7c0.7,0,1.2,0.2,1.6,0.6C328.7,282.9,328.9,283.4,328.9,284z"/>
	</g>
	<path class="st2" d="M333.2,288.8c0,0,0-0.1,0-0.2c0.2-0.4,0.4-0.8,0.5-1.2c0.2-0.4,0.3-0.8,0.4-1.1c0.1-0.4,0.3-0.7,0.4-1.2H334
		c-0.3,0-0.5,0.1-0.7,0.2c-0.2,0.2-0.4,0.4-0.5,0.6c0,0,0,0-0.1,0h-0.1c-0.1,0-0.1,0-0.1-0.1c0,0,0,0,0-0.1c0.2-0.4,0.5-0.7,0.7-1
		c0.3-0.3,0.5-0.4,0.9-0.4h3.7c0.1,0,0.1,0,0.2,0.1c0,0,0.1,0.1,0.1,0.2c0,0.1,0,0.2-0.1,0.3c-0.1,0.1-0.2,0.1-0.3,0.1h-1.3
		c-0.1,0.5-0.2,1.1-0.2,1.6c0,0.7,0.1,1.2,0.3,1.8c0,0,0,0.1,0,0.1c0,0.1,0,0.1-0.1,0.2c0,0.1-0.1,0.1-0.2,0.2
		c-0.1,0-0.1,0.1-0.2,0.1c-0.2,0-0.3-0.1-0.4-0.4s-0.1-0.6-0.1-0.8c0-0.4,0-0.8,0.1-1.1c0.1-0.4,0.2-0.8,0.3-1.5h-1.1
		c-0.5,2.2-0.9,3.4-1,3.6c-0.1,0.2-0.2,0.3-0.4,0.3c-0.1,0-0.2,0-0.2-0.1C333.3,288.9,333.2,288.9,333.2,288.8L333.2,288.8z"/>
	<g>
		<path class="st1" d="M341.9,283.8h1v1.1h-1V283.8z M341.9,288.4v-0.5h0.5h0.5v0.9c0,0.5-0.1,0.9-0.2,1.1c-0.2,0.3-0.4,0.4-0.8,0.5
			V290c0.2,0,0.3-0.1,0.4-0.3c0.1-0.1,0.1-0.4,0.1-0.7h0h-0.5V288.4z"/>
		<path class="st1" d="M349.2,284h-1.6v-0.7c0.5,0,0.9-0.1,1.2-0.3c0.3-0.2,0.5-0.6,0.7-1h0.7v7h-0.5h-0.5V284z"/>
	</g>
	<g>
		<path class="st1" d="M354,281.9c0.6,0,1.1,0.2,1.5,0.5c0.4,0.3,0.6,0.8,0.6,1.4h-0.9c0-0.3-0.2-0.6-0.4-0.8s-0.5-0.3-0.8-0.3
			c-0.5,0-1,0.3-1.3,0.8c-0.3,0.4-0.4,1.1-0.4,1.8c0.4-0.6,1-0.8,1.7-0.8c0.7,0,1.2,0.2,1.6,0.6c0.4,0.4,0.6,1,0.6,1.7
			s-0.2,1.3-0.7,1.7c-0.4,0.4-1,0.6-1.7,0.6c-0.8,0-1.4-0.3-1.8-0.9c-0.4-0.6-0.6-1.4-0.6-2.5c0-1.2,0.2-2.2,0.7-2.8
			C352.5,282.3,353.1,281.9,354,281.9z M352.4,286.8c0,0.5,0.1,0.8,0.4,1.1c0.3,0.3,0.6,0.4,1,0.4s0.8-0.1,1-0.4
			c0.3-0.3,0.4-0.7,0.4-1.1s-0.1-0.8-0.4-1.1c-0.3-0.3-0.6-0.4-1-0.4s-0.8,0.1-1,0.4C352.5,286,352.4,286.4,352.4,286.8z"/>
	</g>
	<path class="st2" d="M161.4,300.9c-0.1,0-0.1,0-0.1-0.1c0,0-0.1-0.1-0.1-0.1c0-0.1,0-0.1,0.1-0.1c0,0,0.1-0.1,0.1-0.1h8.2
		c-0.3-0.2-0.5-0.4-0.7-0.7s-0.4-0.5-0.5-0.8c-0.1-0.3-0.2-0.6-0.3-1c0-0.1,0-0.1,0.1-0.1h0.2c0,0,0,0,0.1,0c0,0,0,0,0,0.1
		c0.1,0.3,0.2,0.6,0.3,0.9c0.1,0.3,0.3,0.5,0.5,0.7c0.2,0.2,0.4,0.4,0.6,0.6c0.2,0.2,0.5,0.3,0.8,0.4c0,0,0.1,0.1,0.1,0.1
		c0,0.1,0,0.1-0.1,0.1c-0.4,0.1-0.7,0.3-1,0.6c-0.3,0.3-0.6,0.6-0.8,0.9c-0.2,0.4-0.3,0.7-0.4,1.1c0,0,0,0,0,0.1c0,0,0,0-0.1,0h-0.2
		c-0.1,0-0.1,0-0.1-0.1c0.1-0.5,0.3-1,0.5-1.4c0.3-0.4,0.6-0.8,1-1.1H161.4L161.4,300.9z"/>
	<g>
	</g>
	<path class="st2" d="M177.3,303.5c-0.3,0-0.6-0.1-0.8-0.4c-0.2-0.2-0.3-0.5-0.4-0.9c-0.1-0.3-0.1-0.7-0.1-1v0c0-0.4,0-0.7,0.1-1.1
		c0.1-0.4,0.2-0.8,0.3-1.2c0.1-0.4,0.3-0.7,0.4-1c0.1-0.2,0.2-0.4,0.4-0.7c0.2-0.3,0.4-0.5,0.6-0.7c0.2-0.2,0.4-0.4,0.7-0.5
		c0.2-0.1,0.5-0.2,0.7-0.2h0c0.3,0,0.5,0.1,0.7,0.2c0.2,0.1,0.3,0.3,0.4,0.6c0.1,0.2,0.2,0.5,0.2,0.7c0,0.3,0.1,0.5,0.1,0.7
		c0,0.5-0.1,1.1-0.2,1.7s-0.4,1.1-0.6,1.6c-0.1,0.2-0.2,0.4-0.4,0.7c-0.2,0.3-0.4,0.5-0.6,0.7c-0.2,0.2-0.4,0.4-0.7,0.5
		C177.8,303.4,177.6,303.5,177.3,303.5L177.3,303.5L177.3,303.5z M177.4,303.2c0.2,0,0.5-0.1,0.7-0.4c0.2-0.3,0.4-0.6,0.6-0.9
		c0.2-0.4,0.3-0.7,0.4-1.1c0.1-0.4,0.2-0.7,0.3-1h-2.2c-0.1,0.5-0.2,0.8-0.3,1.2c-0.1,0.3-0.1,0.7-0.1,1
		C176.8,302.8,177,303.2,177.4,303.2L177.4,303.2z M177.2,299.4h2.2c0.1-0.3,0.1-0.6,0.2-0.8c0-0.2,0.1-0.4,0.1-0.7
		c0-0.2,0-0.5,0-0.7c0-0.8-0.2-1.3-0.6-1.3c-0.5,0-0.9,0.4-1.2,1.1C177.7,297.9,177.4,298.6,177.2,299.4L177.2,299.4z"/>
	<g>
		<path class="st1" d="M185,297.7h1.1v1.2H185V297.7z M185,302.8v-0.6h0.6h0.6v1c0,0.6-0.1,1-0.3,1.3s-0.5,0.5-0.9,0.6v-0.5
			c0.2,0,0.4-0.2,0.5-0.4c0.1-0.2,0.1-0.4,0.1-0.7h0H185V302.8z"/>
		<path class="st1" d="M190.9,295.5h0.5h0.5v4.6l2.4-2.4h0.6h0.6l-2.2,2.1l2.3,3.6H195h-0.6l-1.8-2.9l-0.8,0.7v2.2h-0.5h-0.5V295.5z
			"/>
	</g>
	<path class="st0" d="M15.4,274.6V17.8 M341.2,274.6V17.8 M15.4,274.6h3.3 M15.4,248.9h3.3 M15.4,223.2h3.3 M15.4,197.5h3.3
		 M15.4,171.8h3.3 M15.4,146.2h3.3 M15.4,120.5h3.3 M15.4,94.8h3.3 M15.4,69.1h3.3 M15.4,43.4h3.3 M15.4,17.8h3.3 M341.2,274.6h-3.3
		 M341.2,248.9h-3.3 M341.2,223.2h-3.3 M341.2,197.5h-3.3 M341.2,171.8h-3.3 M341.2,146.2h-3.3 M341.2,120.5h-3.3 M341.2,94.8h-3.3
		 M341.2,69.1h-3.3 M341.2,43.4h-3.3 M341.2,17.8h-3.3"/>
	<g>
		<path class="st1" d="M6.4,277.7c-0.4-0.6-0.6-1.5-0.6-2.7s0.2-2,0.6-2.7c0.4-0.6,1-0.9,1.8-0.9c0.8,0,1.4,0.3,1.8,0.9
			c0.4,0.6,0.6,1.5,0.6,2.7s-0.2,2-0.6,2.7s-1,0.9-1.8,0.9C7.4,278.6,6.8,278.3,6.4,277.7z M9.3,277.2c0.2-0.5,0.4-1.2,0.4-2.1
			c0-0.9-0.1-1.6-0.4-2.1c-0.2-0.5-0.6-0.7-1.1-0.7c-0.5,0-0.9,0.2-1.1,0.7c-0.2,0.5-0.4,1.2-0.4,2.1c0,0.9,0.1,1.6,0.4,2.1
			s0.6,0.7,1.1,0.7C8.7,277.9,9,277.6,9.3,277.2z"/>
	</g>
	<g>
		<path class="st1" d="M10.5,247.8c0,0.5-0.1,0.9-0.4,1.3c-0.3,0.3-0.8,0.7-1.5,1.1c-0.8,0.4-1.3,0.8-1.6,1.2
			c-0.1,0.2-0.2,0.3-0.3,0.5h3.8v0.9H5.7v0c0-0.7,0.2-1.3,0.6-1.8c0.4-0.5,1.1-1,2.1-1.5c0.5-0.3,0.8-0.5,1-0.8
			c0.2-0.2,0.3-0.5,0.3-0.9c0-0.4-0.1-0.7-0.4-0.9c-0.3-0.2-0.6-0.4-1-0.4c-0.4,0-0.8,0.1-1,0.4s-0.4,0.7-0.4,1.3H5.8
			c0-0.8,0.2-1.4,0.6-1.8c0.4-0.4,1-0.7,1.8-0.7c0.7,0,1.2,0.2,1.6,0.6C10.3,246.7,10.5,247.2,10.5,247.8z"/>
	</g>
	<g>
		<path class="st1" d="M5.6,225.4V225v-0.4l3.3-4.5h0.4h0.4v4.6h1v0.8h-1v1.7H8.7v-1.7H5.6z M8.7,224.7v-3.2l-2.2,3.1l0,0.1H8.7z"/>
	</g>
	<g>
		<path class="st1" d="M8.4,194.4c0.6,0,1.1,0.2,1.5,0.5c0.4,0.3,0.6,0.8,0.6,1.4H9.6c0-0.3-0.2-0.6-0.4-0.8s-0.5-0.3-0.8-0.3
			c-0.5,0-1,0.3-1.3,0.8c-0.3,0.4-0.4,1.1-0.4,1.8c0.4-0.6,1-0.8,1.7-0.8c0.7,0,1.2,0.2,1.6,0.6c0.4,0.4,0.6,1,0.6,1.7
			s-0.2,1.3-0.7,1.7s-1,0.6-1.7,0.6c-0.8,0-1.4-0.3-1.8-0.9c-0.4-0.6-0.6-1.4-0.6-2.5c0-1.2,0.2-2.2,0.7-2.8
			C6.9,194.7,7.5,194.4,8.4,194.4z M6.8,199.3c0,0.5,0.1,0.8,0.4,1.1s0.6,0.4,1,0.4s0.8-0.1,1-0.4s0.4-0.7,0.4-1.1s-0.1-0.8-0.4-1.1
			s-0.6-0.4-1-0.4s-0.8,0.1-1,0.4C6.9,198.5,6.8,198.8,6.8,199.3z"/>
	</g>
	<g>
		<path class="st1" d="M9.4,172c0.2,0.1,0.4,0.2,0.5,0.3c0.4,0.4,0.7,0.8,0.7,1.4c0,0.7-0.2,1.2-0.7,1.6s-1,0.6-1.7,0.6
			s-1.3-0.2-1.7-0.6s-0.7-0.9-0.7-1.6c0-0.6,0.2-1.1,0.7-1.4c0.2-0.1,0.3-0.2,0.5-0.3c-0.1-0.1-0.2-0.1-0.3-0.2
			c-0.4-0.3-0.6-0.7-0.6-1.2c0-0.6,0.2-1,0.6-1.4s0.9-0.5,1.6-0.5s1.2,0.2,1.6,0.5s0.6,0.8,0.6,1.4c0,0.5-0.2,0.9-0.6,1.2
			C9.6,171.9,9.5,172,9.4,172z M8.2,172.4c-0.4,0-0.8,0.1-1.1,0.4c-0.3,0.3-0.4,0.6-0.4,1c0,0.4,0.1,0.7,0.4,1s0.6,0.4,1.1,0.4
			s0.8-0.1,1.1-0.4s0.4-0.6,0.4-1c0-0.4-0.1-0.7-0.4-1C9,172.5,8.6,172.4,8.2,172.4z M8.2,171.7c0.4,0,0.7-0.1,0.9-0.3
			s0.3-0.5,0.3-0.8s-0.1-0.6-0.3-0.8s-0.5-0.3-0.9-0.3s-0.7,0.1-0.9,0.3S7,170.3,7,170.6s0.1,0.6,0.3,0.8
			C7.5,171.6,7.8,171.7,8.2,171.7z"/>
	</g>
	<g>
		<path class="st1" d="M2.7,145.1H1v-0.7c0.5,0,0.9-0.1,1.2-0.3c0.3-0.2,0.5-0.6,0.7-1h0.7v7H3.1H2.7V145.1z"/>
		<path class="st1" d="M6.6,149.3c-0.4-0.6-0.6-1.5-0.6-2.7s0.2-2,0.6-2.7c0.4-0.6,1-0.9,1.8-0.9c0.8,0,1.4,0.3,1.8,0.9
			c0.4,0.6,0.6,1.5,0.6,2.7s-0.2,2-0.6,2.7s-1,0.9-1.8,0.9C7.6,150.3,7,149.9,6.6,149.3z M9.5,148.8c0.2-0.5,0.4-1.2,0.4-2.1
			c0-0.9-0.1-1.6-0.4-2.1c-0.2-0.5-0.6-0.7-1.1-0.7c-0.5,0-0.9,0.2-1.1,0.7c-0.2,0.5-0.4,1.2-0.4,2.1c0,0.9,0.1,1.6,0.4,2.1
			s0.6,0.7,1.1,0.7C8.8,149.5,9.2,149.2,9.5,148.8z"/>
	</g>
	<g>
		<path class="st1" d="M2.7,119.4H1v-0.7c0.5,0,0.9-0.1,1.2-0.3c0.3-0.2,0.5-0.6,0.7-1h0.7v7H3.1H2.7V119.4z"/>
		<path class="st1" d="M10.6,119.4c0,0.5-0.1,0.9-0.4,1.3s-0.8,0.7-1.5,1.1c-0.8,0.4-1.3,0.8-1.6,1.2c-0.1,0.2-0.2,0.3-0.3,0.5h3.8
			v0.9H5.8v0c0-0.7,0.2-1.3,0.6-1.8s1.1-1,2.1-1.5c0.5-0.3,0.8-0.5,1-0.8c0.2-0.2,0.3-0.5,0.3-0.9c0-0.4-0.1-0.7-0.4-0.9
			s-0.6-0.4-1-0.4c-0.4,0-0.8,0.1-1,0.4c-0.2,0.3-0.4,0.7-0.4,1.3H6c0-0.8,0.2-1.4,0.6-1.8c0.4-0.4,1-0.7,1.8-0.7
			c0.7,0,1.2,0.2,1.6,0.6C10.4,118.3,10.6,118.8,10.6,119.4z"/>
	</g>
	<g>
		<path class="st1" d="M2.7,93.7H1V93c0.5,0,0.9-0.1,1.2-0.3c0.3-0.2,0.5-0.6,0.7-1h0.7v7H3.1H2.7V93.7z"/>
		<path class="st1" d="M5.8,97v-0.4v-0.4l3.3-4.5h0.4h0.4v4.6h1V97h-1v1.7H8.9V97H5.8z M8.9,96.3v-3.2l-2.2,3.1l0,0.1H8.9z"/>
	</g>
	<g>
		<path class="st1" d="M2.7,68H1v-0.7c0.5,0,0.9-0.1,1.2-0.3c0.3-0.2,0.5-0.6,0.7-1h0.7v7H3.1H2.7V68z"/>
		<path class="st1" d="M8.5,66c0.6,0,1.1,0.2,1.5,0.5c0.4,0.3,0.6,0.8,0.6,1.4H9.7c0-0.3-0.2-0.6-0.4-0.8c-0.2-0.2-0.5-0.3-0.8-0.3
			c-0.5,0-1,0.3-1.3,0.8C7,68,6.9,68.6,6.9,69.4c0.4-0.6,1-0.8,1.7-0.8c0.7,0,1.2,0.2,1.6,0.6s0.6,1,0.6,1.7s-0.2,1.3-0.7,1.7
			s-1,0.6-1.7,0.6c-0.8,0-1.4-0.3-1.8-0.9s-0.6-1.4-0.6-2.5c0-1.2,0.2-2.2,0.7-2.8C7.1,66.3,7.7,66,8.5,66z M7,70.9
			c0,0.5,0.1,0.8,0.4,1.1s0.6,0.4,1,0.4s0.8-0.1,1-0.4s0.4-0.7,0.4-1.1s-0.1-0.8-0.4-1.1s-0.6-0.4-1-0.4s-0.8,0.1-1,0.4
			C7.1,70.1,7,70.4,7,70.9z"/>
	</g>
	<g>
		<path class="st1" d="M2.7,42.4H1v-0.7c0.5,0,0.9-0.1,1.2-0.3c0.3-0.2,0.5-0.6,0.7-1h0.7v7H3.1H2.7V42.4z"/>
		<path class="st1" d="M9.6,43.6c0.2,0.1,0.4,0.2,0.5,0.3c0.4,0.4,0.7,0.8,0.7,1.4c0,0.7-0.2,1.2-0.7,1.6s-1,0.6-1.7,0.6
			S7,47.3,6.6,46.9S5.9,46,5.9,45.4c0-0.6,0.2-1.1,0.7-1.4c0.2-0.1,0.3-0.2,0.5-0.3c-0.1-0.1-0.2-0.1-0.3-0.2
			c-0.4-0.3-0.6-0.7-0.6-1.2c0-0.6,0.2-1,0.6-1.4s0.9-0.5,1.6-0.5s1.2,0.2,1.6,0.5s0.6,0.8,0.6,1.4c0,0.5-0.2,0.9-0.6,1.2
			C9.8,43.5,9.7,43.6,9.6,43.6z M8.3,44c-0.4,0-0.8,0.1-1.1,0.4s-0.4,0.6-0.4,1c0,0.4,0.1,0.7,0.4,1s0.6,0.4,1.1,0.4
			s0.8-0.1,1.1-0.4s0.4-0.6,0.4-1c0-0.4-0.1-0.7-0.4-1C9.1,44.2,8.8,44,8.3,44z M8.3,43.3c0.4,0,0.7-0.1,0.9-0.3s0.3-0.5,0.3-0.8
			s-0.1-0.6-0.3-0.8c-0.2-0.2-0.5-0.3-0.9-0.3s-0.7,0.1-0.9,0.3c-0.2,0.2-0.3,0.5-0.3,0.8s0.1,0.6,0.3,0.8C7.7,43.2,8,43.3,8.3,43.3
			z"/>
	</g>
	<g>
		<path class="st1" d="M5.1,16.7c0,0.5-0.1,0.9-0.4,1.3s-0.8,0.7-1.5,1.1c-0.8,0.4-1.3,0.8-1.6,1.2c-0.1,0.2-0.2,0.3-0.3,0.5h3.8
			v0.9H0.3v0c0-0.7,0.2-1.3,0.6-1.8s1.1-1,2.1-1.5c0.5-0.3,0.8-0.5,1-0.8c0.2-0.2,0.3-0.5,0.3-0.9c0-0.4-0.1-0.7-0.4-0.9
			s-0.6-0.4-1-0.4c-0.4,0-0.8,0.1-1,0.4c-0.2,0.3-0.4,0.7-0.4,1.3H0.4c0-0.8,0.2-1.4,0.6-1.8c0.4-0.4,1-0.7,1.8-0.7
			c0.7,0,1.2,0.2,1.6,0.6C4.9,15.6,5.1,16.1,5.1,16.7z"/>
		<path class="st1" d="M6.6,20.9c-0.4-0.6-0.6-1.5-0.6-2.7s0.2-2,0.6-2.7c0.4-0.6,1-0.9,1.8-0.9c0.8,0,1.4,0.3,1.8,0.9
			c0.4,0.6,0.6,1.5,0.6,2.7s-0.2,2-0.6,2.7s-1,0.9-1.8,0.9C7.6,21.9,7,21.5,6.6,20.9z M9.5,20.4c0.2-0.5,0.4-1.2,0.4-2.1
			c0-0.9-0.1-1.6-0.4-2.1c-0.2-0.5-0.6-0.7-1.1-0.7c-0.5,0-0.9,0.2-1.1,0.7c-0.2,0.5-0.4,1.2-0.4,2.1c0,0.9,0.1,1.6,0.4,2.1
			s0.6,0.7,1.1,0.7C8.8,21.1,9.2,20.8,9.5,20.4z"/>
	</g>
	<g>
		<path class="st3" d="M75,5.1h5.6v1.4h-4v1.8h3.5v1.4h-3.5V13H75V5.1z"/>
		<path class="st3" d="M87.5,5v1.4h-2.4V13h-1.7V6.5h-2.4V5H87.5z"/>
		<path class="st3" d="M93.1,5.2c0.6,0.2,1,0.5,1.3,1C94.7,6.6,94.9,7,95,7.5c0.1,0.5,0.2,0.9,0.2,1.3c0,1.1-0.2,1.9-0.6,2.7
			c-0.6,1-1.5,1.5-2.7,1.5h-3.4V5h3.4C92.4,5.1,92.8,5.1,93.1,5.2z M90.1,6.4v5.2h1.5c0.8,0,1.3-0.4,1.6-1.2
			c0.2-0.4,0.3-0.9,0.3-1.5c0-0.8-0.1-1.4-0.4-1.9c-0.3-0.4-0.8-0.6-1.5-0.6H90.1z"/>
		<path class="st3" d="M100.9,5v8h-1.4V5H100.9z"/>
		<path class="st3" d="M103.8,13h-1.9l2.5-4L102,5h2l1.4,2.6l1.5-2.6h1.9l-2.4,3.8l2.6,4.1h-2l-1.5-2.7L103.8,13z"/>
		<path class="st3" d="M110.1,7c0.3-0.6,0.5-1.1,0.8-1.5l0.4-0.5l0.9,0c-0.5,0.9-0.8,1.6-1,2.2c-0.3,0.9-0.4,1.9-0.4,3
			c0,0.7,0.1,1.3,0.2,1.9c0.2,0.9,0.5,1.8,0.9,2.6l0.3,0.6h-0.9c-0.6-0.8-1-1.6-1.3-2.3c-0.4-0.9-0.5-1.8-0.5-2.7
			C109.4,9.1,109.7,8,110.1,7z"/>
		<path class="st3" d="M117.2,7.2c0.4,0.2,0.7,0.5,1,0.9c0.2,0.3,0.4,0.8,0.5,1.2c0,0.3,0.1,0.7,0.1,1.2h-4.3c0,0.6,0.2,1,0.6,1.2
			c0.2,0.1,0.5,0.2,0.8,0.2c0.3,0,0.6-0.1,0.9-0.3c0.1-0.1,0.2-0.2,0.3-0.4h1.6c0,0.3-0.2,0.7-0.6,1.1c-0.5,0.6-1.3,0.9-2.2,0.9
			c-0.8,0-1.5-0.2-2.1-0.7c-0.6-0.5-0.9-1.3-0.9-2.3c0-1,0.3-1.8,0.8-2.3c0.5-0.5,1.2-0.8,2.1-0.8C116.4,7,116.8,7,117.2,7.2z
			 M115,8.6c-0.2,0.2-0.4,0.5-0.4,0.9h2.6c0-0.4-0.2-0.7-0.4-0.9c-0.2-0.2-0.5-0.3-0.9-0.3C115.5,8.2,115.2,8.3,115,8.6z"/>
	</g>
	<g>
		<path class="st3" d="M119.2,8.5c0.1,0,0.1,0,0.1,0c0,0,0.1,0,0.1,0c0.1,0,0.2,0,0.3-0.1c0.1-0.1,0.1-0.2,0.1-0.3V2.9h1.2v5.2
			c0,0.5-0.1,0.8-0.3,1c-0.2,0.2-0.6,0.3-1.1,0.3c0,0-0.1,0-0.2,0s-0.2,0-0.3,0V8.5z M121.1,2.3h-1.2V1.2h1.2V2.3z"/>
	</g>
	<path d="M126.1,7.7c-0.3,0-0.5-0.1-0.7-0.3c-0.2-0.2-0.3-0.4-0.3-0.7C125,6.4,125,6.1,125,5.8v0c0-0.3,0-0.6,0.1-0.9
		c0.1-0.3,0.1-0.6,0.2-1c0.1-0.3,0.2-0.6,0.4-0.9c0.1-0.2,0.2-0.4,0.3-0.6c0.1-0.2,0.3-0.4,0.5-0.6c0.2-0.2,0.4-0.3,0.6-0.5
		c0.2-0.1,0.4-0.2,0.6-0.2h0c0.6,0,1,0.1,1.1,0.2c0.1,0.1,0.3,0.3,0.3,0.5c0.1,0.2,0.1,0.4,0.2,0.6c0,0.2,0.1,0.4,0.1,0.6
		c0,0.5-0.1,0.9-0.2,1.4c-0.1,0.5-0.3,0.9-0.5,1.4c-0.1,0.2-0.2,0.4-0.3,0.6c-0.1,0.2-0.3,0.4-0.5,0.6c-0.2,0.2-0.3,0.3-0.5,0.5
		C127.1,7.6,126.7,7.7,126.1,7.7L126.1,7.7L126.1,7.7z M126.2,7.4c0.1,0,0.3-0.1,0.5-0.3c0.2-0.2,0.3-0.5,0.5-0.8s0.3-0.6,0.4-0.9
		c0.1-0.3,0.2-0.6,0.2-0.8h-1.2c-0.1,0.4-0.2,0.7-0.2,1c-0.1,0.3-0.1,0.5-0.1,0.8C126.2,7.1,126.2,7.4,126.2,7.4L126.2,7.4z
		 M126.6,4.3h1.2c0.1-0.3,0.1-0.5,0.1-0.7c0-0.2,0.1-0.4,0.1-0.6c0-0.2,0-0.4,0-0.6c0-0.7-0.2-1.1-0.5-1.1c0,0-0.1,0.3-0.4,0.9
		C126.9,3,126.7,3.6,126.6,4.3L126.6,4.3z"/>
	<g>
		<path class="st3" d="M131.9,7c0.4,1,0.6,1.9,0.6,2.9c0,1.1-0.2,2.2-0.7,3.3c-0.3,0.6-0.5,1.1-0.8,1.4l-0.4,0.5h-1.1
			c0.5-0.9,0.8-1.6,1-2.1c0.3-0.9,0.5-1.9,0.5-3c0-0.7-0.1-1.3-0.2-1.9c-0.2-0.9-0.5-1.8-0.9-2.6l-0.3-0.6h1.2
			C131.2,5.7,131.6,6.4,131.9,7z"/>
		<path class="st3" d="M135.4,5v8h-1.4V5H135.4z"/>
		<path class="st3" d="M142.2,9.4c0.3,0,0.5-0.1,0.6-0.1c0.2-0.1,0.3-0.2,0.3-0.4c0-0.2-0.1-0.4-0.3-0.5c-0.2-0.1-0.4-0.1-0.7-0.1
			c-0.4,0-0.6,0.1-0.8,0.3c-0.1,0.1-0.2,0.3-0.2,0.5h-1.5c0-0.5,0.2-0.9,0.4-1.3c0.4-0.5,1.1-0.8,2.1-0.8c0.6,0,1.2,0.1,1.7,0.4
			c0.5,0.3,0.8,0.7,0.8,1.4v2.7c0,0.2,0,0.4,0,0.7c0,0.2,0,0.3,0.1,0.4c0,0.1,0.1,0.1,0.2,0.2V13h-1.7c0-0.1-0.1-0.2-0.1-0.3
			c0-0.1,0-0.2,0-0.4c-0.2,0.2-0.5,0.4-0.7,0.6c-0.3,0.2-0.7,0.3-1.1,0.3c-0.5,0-1-0.2-1.3-0.5c-0.3-0.3-0.5-0.7-0.5-1.3
			c0-0.7,0.3-1.2,0.8-1.6c0.3-0.2,0.8-0.3,1.4-0.4L142.2,9.4z M143.2,10.1c-0.1,0.1-0.2,0.1-0.3,0.1c-0.1,0-0.2,0.1-0.4,0.1
			l-0.3,0.1c-0.3,0.1-0.6,0.1-0.7,0.2c-0.2,0.1-0.4,0.4-0.4,0.6c0,0.3,0.1,0.5,0.2,0.6c0.1,0.1,0.3,0.2,0.5,0.2
			c0.3,0,0.6-0.1,0.9-0.3c0.3-0.2,0.4-0.5,0.4-1.1V10.1z"/>
		<path class="st3" d="M150.7,7.4c0.4,0.3,0.6,0.8,0.6,1.6V13h-1.6V9.4c0-0.3,0-0.5-0.1-0.7c-0.1-0.3-0.4-0.5-0.9-0.5
			c-0.5,0-0.9,0.2-1.1,0.7c-0.1,0.2-0.1,0.5-0.1,0.9V13H146V7.1h1.5V8c0.2-0.3,0.4-0.5,0.6-0.6c0.3-0.2,0.7-0.4,1.2-0.4
			C149.9,7,150.4,7.1,150.7,7.4z"/>
		<path class="st3" d="M155.9,7.2c0.3,0.2,0.5,0.4,0.7,0.6V5.1h1.6V13h-1.5v-0.8c-0.2,0.3-0.5,0.6-0.7,0.8s-0.6,0.2-1,0.2
			c-0.7,0-1.3-0.3-1.7-0.8s-0.7-1.3-0.7-2.1c0-1,0.2-1.8,0.7-2.4c0.5-0.6,1.1-0.9,1.8-0.9C155.3,7,155.6,7.1,155.9,7.2z M156.2,11.4
			c0.2-0.3,0.3-0.7,0.3-1.3c0-0.7-0.2-1.2-0.5-1.5c-0.2-0.2-0.5-0.3-0.8-0.3c-0.4,0-0.8,0.2-1,0.5s-0.3,0.8-0.3,1.3
			c0,0.5,0.1,1,0.3,1.3c0.2,0.3,0.5,0.5,1,0.5S156,11.7,156.2,11.4z"/>
		<path class="st3" d="M167.3,5.2c0.6,0.2,1,0.5,1.3,1c0.3,0.4,0.5,0.8,0.6,1.3c0.1,0.5,0.2,0.9,0.2,1.3c0,1.1-0.2,1.9-0.6,2.7
			c-0.6,1-1.5,1.5-2.7,1.5h-3.4V5h3.4C166.5,5.1,167,5.1,167.3,5.2z M164.3,6.4v5.2h1.5c0.8,0,1.3-0.4,1.6-1.2
			c0.2-0.4,0.3-0.9,0.3-1.5c0-0.8-0.1-1.4-0.4-1.9c-0.3-0.4-0.8-0.6-1.5-0.6H164.3z"/>
		<path class="st3" d="M170.6,5.1h5.6v1.4h-4v1.8h3.5v1.4h-3.5V13h-1.6V5.1z"/>
		<path class="st3" d="M183.1,5v1.4h-2.4V13H179V6.5h-2.4V5H183.1z"/>
		<path class="st3" d="M188.5,13H187V5h1.5V13z"/>
		<path class="st3" d="M193.8,7.2c0.4,0.2,0.7,0.5,1,0.9c0.2,0.3,0.4,0.8,0.5,1.2c0,0.3,0.1,0.7,0,1.2h-4.3c0,0.6,0.2,1,0.6,1.2
			c0.2,0.1,0.5,0.2,0.8,0.2c0.3,0,0.6-0.1,0.8-0.3c0.1-0.1,0.2-0.2,0.3-0.4h1.6c0,0.3-0.2,0.7-0.6,1.1c-0.5,0.6-1.3,0.9-2.2,0.9
			c-0.8,0-1.5-0.2-2.1-0.7c-0.6-0.5-0.9-1.3-0.9-2.3c0-1,0.3-1.8,0.8-2.3c0.5-0.5,1.2-0.8,2.1-0.8C193,7,193.4,7,193.8,7.2z
			 M191.5,8.6c-0.2,0.2-0.4,0.5-0.4,0.9h2.6c0-0.4-0.2-0.7-0.4-0.9c-0.2-0.2-0.5-0.3-0.9-0.3C192.1,8.2,191.8,8.3,191.5,8.6z"/>
		<path class="st3" d="M200.9,7.4c0.4,0.3,0.6,0.8,0.6,1.6V13h-1.6V9.4c0-0.3,0-0.5-0.1-0.7c-0.1-0.3-0.4-0.5-0.9-0.5
			c-0.5,0-0.9,0.2-1.1,0.7c-0.1,0.2-0.1,0.5-0.1,0.9V13h-1.5V7.1h1.5V8c0.2-0.3,0.4-0.5,0.6-0.6c0.3-0.2,0.7-0.4,1.2-0.4
			C200,7,200.5,7.1,200.9,7.4z"/>
		<path class="st3" d="M205.7,7.1c0.4,0.2,0.7,0.4,0.9,0.8V7.1h1.5v5.6c0,0.8-0.1,1.3-0.4,1.7c-0.4,0.7-1.3,1-2.5,1
			c-0.7,0-1.4-0.1-1.8-0.4s-0.7-0.7-0.8-1.3h1.7c0,0.2,0.1,0.3,0.2,0.4c0.2,0.1,0.4,0.2,0.8,0.2c0.6,0,0.9-0.2,1.1-0.6
			c0.1-0.2,0.2-0.6,0.2-1.2v-0.4c-0.1,0.3-0.3,0.4-0.5,0.6c-0.3,0.2-0.7,0.3-1.2,0.3c-0.8,0-1.4-0.3-1.8-0.8
			c-0.4-0.5-0.7-1.2-0.7-2.1c0-0.9,0.2-1.6,0.6-2.2c0.4-0.6,1-0.9,1.8-0.9C205.3,7,205.5,7,205.7,7.1z M206.3,11.3
			c0.2-0.3,0.4-0.7,0.4-1.3c0-0.6-0.1-1-0.4-1.3s-0.5-0.4-0.9-0.4c-0.5,0-0.9,0.3-1.1,0.8c-0.1,0.3-0.2,0.6-0.2,1
			c0,0.3,0.1,0.6,0.2,0.9c0.2,0.5,0.6,0.7,1.1,0.7C205.7,11.7,206,11.6,206.3,11.3z"/>
		<path class="st3" d="M209,8.3V7.2h0.8V5.5h1.5v1.6h1v1.1h-1v3.1c0,0.2,0,0.4,0.1,0.4s0.2,0.1,0.6,0.1c0,0,0.1,0,0.1,0
			c0.1,0,0.1,0,0.2,0V13l-0.7,0c-0.7,0-1.2-0.1-1.5-0.4c-0.2-0.2-0.3-0.4-0.3-0.8V8.3H209z"/>
		<path class="st3" d="M217.4,7.1c0.3,0.1,0.5,0.3,0.7,0.6c0.2,0.2,0.3,0.4,0.3,0.7c0,0.2,0.1,0.6,0.1,1.1V13h-1.6V9.4
			c0-0.3-0.1-0.6-0.2-0.8c-0.1-0.3-0.4-0.4-0.8-0.4c-0.4,0-0.7,0.1-0.9,0.4c-0.2,0.3-0.3,0.7-0.3,1.2V13h-1.5V5.1h1.5v2.8
			c0.2-0.3,0.5-0.6,0.8-0.7c0.3-0.1,0.6-0.2,0.9-0.2C216.8,7,217.1,7,217.4,7.1z"/>
	</g>
	<g>
		<path class="st4" d="M224.7,5v8h-1.4V5H224.7z"/>
		<path class="st4" d="M227.6,13h-1.9l2.5-4L225.8,5h2l1.4,2.6l1.5-2.6h1.9l-2.4,3.8l2.6,4.1h-2l-1.5-2.7L227.6,13z"/>
		<path class="st4" d="M233.5,5h2.7v1.1H235V14h1.2v1.1h-2.7V5z"/>
		<path class="st4" d="M237.2,5.1h1.5v4.3l1.9-2.2h1.9l-2.1,2.2l2.2,3.6h-1.9l-1.4-2.5l-0.6,0.7V13h-1.5V5.1z"/>
		<path class="st4" d="M242.9,14h1.2V6.1h-1.2V5h2.7v10.1h-2.7V14z"/>
		<path class="st4" d="M248.6,5v8h-1.4V5H248.6z"/>
	</g>
	<g>
		<path class="st3" d="M250.6,7.3h1.6v1.6h-1.6V7.3z M250.6,11.4h1.6V13h-1.6V11.4z"/>
		<path class="st3" d="M256.9,5h1.7l3.1,5.5V5h1.5V13h-1.7l-3.2-5.6V13h-1.5V5z"/>
		<path class="st3" d="M270.2,8.1v1.4h-5.8V8.1H270.2z M270.2,10.6V12h-5.8v-1.4H270.2z"/>
		<path class="st3" d="M271.2,7.6v-1c0.5,0,0.8-0.1,1-0.1c0.3-0.1,0.6-0.2,0.8-0.4c0.1-0.1,0.2-0.3,0.3-0.6c0-0.1,0.1-0.2,0.1-0.3
			h1.3V13h-1.6V7.6H271.2z"/>
		<path class="st3" d="M280.6,7.1c0-0.1,0-0.3-0.1-0.4c-0.2-0.2-0.4-0.4-0.7-0.4c-0.5,0-0.9,0.3-1.1,0.8c-0.1,0.3-0.2,0.8-0.2,1.4
			c0.2-0.2,0.4-0.4,0.7-0.5c0.3-0.1,0.5-0.2,0.9-0.2c0.7,0,1.3,0.2,1.7,0.7c0.4,0.5,0.7,1.1,0.7,1.8c0,0.7-0.2,1.4-0.7,1.9
			c-0.4,0.6-1.1,0.8-2,0.8c-1,0-1.7-0.4-2.2-1.2c-0.4-0.6-0.5-1.5-0.5-2.5c0-0.6,0-1.1,0.1-1.5c0.1-0.7,0.3-1.2,0.5-1.7
			c0.2-0.4,0.5-0.7,0.9-0.9c0.4-0.2,0.8-0.3,1.3-0.3c0.7,0,1.3,0.2,1.7,0.6s0.7,0.9,0.7,1.5H280.6z M278.8,11.5
			c0.2,0.3,0.5,0.4,0.9,0.4c0.3,0,0.6-0.1,0.8-0.4c0.2-0.3,0.3-0.6,0.3-1c0-0.5-0.1-0.8-0.3-1c-0.2-0.2-0.5-0.4-0.8-0.4
			c-0.3,0-0.5,0.1-0.7,0.2c-0.3,0.2-0.5,0.6-0.5,1.1C278.5,10.9,278.6,11.3,278.8,11.5z"/>
	</g>
	<line class="st5" x1="15.4" y1="274.6" x2="341.2" y2="274.6"/>
	<polyline class="st6" points="15.4,17.8 15.6,17.8 15.8,17.8 16,17.8 16.2,17.9 16.4,17.9 16.6,18 16.8,18.1 17,18.2 17.2,18.3 
		17.4,18.4 17.6,18.5 17.8,18.7 18.1,18.9 18.3,19 18.5,19.2 18.7,19.4 18.9,19.6 19.1,19.8 19.3,20.1 19.5,20.3 19.7,20.6 
		19.9,20.9 20.1,21.2 20.3,21.5 20.5,21.8 20.7,22.1 20.9,22.4 21.1,22.8 21.3,23.1 21.5,23.5 21.7,23.9 21.9,24.3 22.1,24.7 
		22.3,25.1 22.5,25.6 22.7,26 22.9,26.5 23.1,26.9 23.3,27.4 23.5,27.9 23.8,28.4 24,28.9 24.2,29.5 24.4,30 24.6,30.5 24.8,31.1 
		25,31.7 25.2,32.3 25.4,32.9 25.6,33.5 25.8,34.1 26,34.7 26.2,35.4 26.4,36 26.6,36.7 26.8,37.3 27,38 27.2,38.7 27.4,39.4 
		27.6,40.1 27.8,40.9 28,41.6 28.2,42.3 28.4,43.1 28.6,43.9 28.8,44.6 29,45.4 29.3,46.2 29.5,47 29.7,47.8 29.9,48.7 30.1,49.5 
		30.3,50.3 30.5,51.2 30.7,52.1 30.9,52.9 31.1,53.8 31.3,54.7 31.5,55.6 31.7,56.5 31.9,57.4 32.1,58.3 32.3,59.3 32.5,60.2 
		32.7,61.1 32.9,62.1 33.1,63.1 33.3,64 33.5,65 33.7,66 33.9,67 34.1,68 34.3,69 34.5,70 34.7,71 35,72 35.2,73.1 35.4,74.1 
		35.6,75.2 35.8,76.2 36,77.3 36.2,78.3 36.4,79.4 36.6,80.5 36.8,81.6 37,82.7 37.2,83.8 37.4,84.9 37.6,86 37.8,87.1 38,88.2 
		38.2,89.3 38.4,90.4 38.6,91.6 38.8,92.7 39,93.9 39.2,95 39.4,96.2 39.6,97.3 39.8,98.5 40,99.6 40.2,100.8 40.5,102 40.7,103.1 
		40.9,104.3 41.1,105.5 41.3,106.7 41.5,107.9 41.7,109 41.9,110.2 42.1,111.4 42.3,112.6 42.5,113.8 42.7,115 42.9,116.2 
		43.1,117.4 43.3,118.6 43.5,119.9 43.7,121.1 43.9,122.3 44.1,123.5 44.3,124.7 44.5,125.9 44.7,127.1 44.9,128.4 45.1,129.6 
		45.3,130.8 45.5,132 45.7,133.2 45.9,134.5 46.2,135.7 46.4,136.9 46.6,138.1 46.8,139.4 47,140.6 47.2,141.8 47.4,143 47.6,144.2 
		47.8,145.5 48,146.7 48.2,147.9 48.4,149.1 48.6,150.3 48.8,151.6 49,152.8 49.2,154 49.4,155.2 49.6,156.4 49.8,157.6 50,158.8 
		50.2,160 50.4,161.2 50.6,162.4 50.8,163.6 51,164.8 51.2,166 51.4,167.2 51.7,168.4 51.9,169.6 52.1,170.7 52.3,171.9 52.5,173.1 
		52.7,174.3 52.9,175.4 53.1,176.6 53.3,177.8 53.5,178.9 53.7,180.1 53.9,181.2 54.1,182.4 54.3,183.5 54.5,184.6 54.7,185.8 
		54.9,186.9 55.1,188 55.3,189.1 55.5,190.2 55.7,191.4 55.9,192.5 56.1,193.6 56.3,194.7 56.5,195.7 56.7,196.8 56.9,197.9 
		57.1,199 57.4,200.1 57.6,201.1 57.8,202.2 58,203.2 58.2,204.3 58.4,205.3 58.6,206.3 58.8,207.4 59,208.4 59.2,209.4 59.4,210.4 
		59.6,211.4 59.8,212.4 60,213.4 60.2,214.4 60.4,215.4 60.6,216.4 60.8,217.3 61,218.3 61.2,219.2 61.4,220.2 61.6,221.1 61.8,222 
		62,223 62.2,223.9 62.4,224.8 62.6,225.7 62.8,226.6 63.1,227.5 63.3,228.4 63.5,229.2 63.7,230.1 63.9,231 64.1,231.8 64.3,232.7 
		64.5,233.5 64.7,234.3 64.9,235.2 65.1,236 65.3,236.8 65.5,237.6 65.7,238.4 65.9,239.2 66.1,239.9 66.3,240.7 66.5,241.5 
		66.7,242.2 66.9,243 67.1,243.7 67.3,244.4 67.5,245.1 67.7,245.9 67.9,246.6 68.1,247.3 68.3,247.9 68.6,248.6 68.8,249.3 69,250 
		69.2,250.6 69.4,251.3 69.6,251.9 69.8,252.5 70,253.2 70.2,253.8 70.4,254.4 70.6,255 70.8,255.6 71,256.2 71.2,256.7 71.4,257.3 
		71.6,257.9 71.8,258.4 72,258.9 72.2,259.5 72.4,260 72.6,260.5 72.8,261 73,261.5 73.2,262 73.4,262.5 73.6,263 73.8,263.5 
		74,263.9 74.3,264.4 74.5,264.8 74.7,265.3 74.9,265.7 75.1,266.1 75.3,266.5 75.5,266.9 75.7,267.3 75.9,267.7 76.1,268.1 
		76.3,268.5 76.5,268.8 76.7,269.2 76.9,269.5 77.1,269.9 77.3,270.2 77.5,270.5 77.7,270.9 77.9,271.2 78.1,271.5 78.3,271.8 
		78.5,272.1 78.7,272.3 78.9,272.6 79.1,272.9 79.3,273.2 79.5,273.4 79.7,273.7 80,273.9 80.2,274.1 80.4,274.3 80.6,274.6 
		80.8,274.4 81,274.1 81.2,274 81.4,273.8 81.6,273.6 81.8,273.4 82,273.2 82.2,273.1 82.4,272.9 82.6,272.8 82.8,272.6 83,272.5 
		83.2,272.3 83.4,272.2 83.6,272.1 83.8,272 84,271.9 84.2,271.8 84.4,271.7 84.6,271.6 84.8,271.5 85,271.4 85.2,271.4 85.5,271.3 
		85.7,271.2 85.9,271.2 86.1,271.1 86.3,271.1 86.5,271.1 86.7,271 86.9,271 87.1,271 87.3,271 87.5,270.9 87.7,270.9 87.9,270.9 
		88.1,270.9 88.3,270.9 88.5,270.9 88.7,271 88.9,271 89.1,271 89.3,271 89.5,271.1 89.7,271.1 89.9,271.2 90.1,271.2 90.3,271.2 
		90.5,271.3 90.7,271.4 90.9,271.4 91.2,271.5 91.4,271.6 91.6,271.6 91.8,271.7 92,271.8 92.2,271.9 92.4,272 92.6,272 92.8,272.1 
		93,272.2 93.2,272.3 93.4,272.4 93.6,272.5 93.8,272.7 94,272.8 94.2,272.9 94.4,273 94.6,273.1 94.8,273.2 95,273.4 95.2,273.5 
		95.4,273.6 95.6,273.7 95.8,273.9 96,274 96.2,274.1 96.4,274.3 96.7,274.4 96.9,274.6 97.1,274.4 97.3,274.3 97.5,274.1 97.7,274 
		97.9,273.8 98.1,273.7 98.3,273.5 98.5,273.4 98.7,273.2 98.9,273.1 99.1,272.9 99.3,272.8 99.5,272.6 99.7,272.4 99.9,272.3 
		100.1,272.1 100.3,272 100.5,271.8 100.7,271.6 100.9,271.5 101.1,271.3 101.3,271.1 101.5,271 101.7,270.8 101.9,270.7 
		102.1,270.5 102.4,270.3 102.6,270.2 102.8,270 103,269.8 103.2,269.7 103.4,269.5 103.6,269.3 103.8,269.2 104,269 104.2,268.9 
		104.4,268.7 104.6,268.5 104.8,268.4 105,268.2 105.2,268.1 105.4,267.9 105.6,267.8 105.8,267.6 106,267.4 106.2,267.3 
		106.4,267.1 106.6,267 106.8,266.8 107,266.7 107.2,266.5 107.4,266.4 107.6,266.3 107.9,266.1 108.1,266 108.3,265.8 108.5,265.7 
		108.7,265.6 108.9,265.4 109.1,265.3 109.3,265.2 109.5,265 109.7,264.9 109.9,264.8 110.1,264.7 110.3,264.5 110.5,264.4 
		110.7,264.3 110.9,264.2 111.1,264.1 111.3,264 111.5,263.8 111.7,263.7 111.9,263.6 112.1,263.5 112.3,263.4 112.5,263.3 
		112.7,263.2 112.9,263.1 113.1,263 113.3,262.9 113.6,262.9 113.8,262.8 114,262.7 114.2,262.6 114.4,262.5 114.6,262.4 
		114.8,262.4 115,262.3 115.2,262.2 115.4,262.2 115.6,262.1 115.8,262 116,262 116.2,261.9 116.4,261.9 116.6,261.8 116.8,261.8 
		117,261.7 117.2,261.7 117.4,261.6 117.6,261.6 117.8,261.6 118,261.5 118.2,261.5 118.4,261.5 118.6,261.5 118.8,261.4 119,261.4 
		119.3,261.4 119.5,261.4 119.7,261.4 119.9,261.4 120.1,261.3 120.3,261.3 120.5,261.3 120.7,261.3 120.9,261.3 121.1,261.4 
		121.3,261.4 121.5,261.4 121.7,261.4 121.9,261.4 122.1,261.4 122.3,261.4 122.5,261.5 122.7,261.5 122.9,261.5 123.1,261.6 
		123.3,261.6 123.5,261.6 123.7,261.7 123.9,261.7 124.1,261.8 124.3,261.8 124.5,261.8 124.8,261.9 125,262 125.2,262 125.4,262.1 
		125.6,262.1 125.8,262.2 126,262.3 126.2,262.3 126.4,262.4 126.6,262.5 126.8,262.5 127,262.6 127.2,262.7 127.4,262.8 
		127.6,262.9 127.8,262.9 128,263 128.2,263.1 128.4,263.2 128.6,263.3 128.8,263.4 129,263.5 129.2,263.6 129.4,263.7 129.6,263.8 
		129.8,263.9 130,264 130.2,264.1 130.5,264.2 130.7,264.3 130.9,264.4 131.1,264.5 131.3,264.7 131.5,264.8 131.7,264.9 131.9,265 
		132.1,265.1 132.3,265.3 132.5,265.4 132.7,265.5 132.9,265.6 133.1,265.8 133.3,265.9 133.5,266 133.7,266.2 133.9,266.3 
		134.1,266.4 134.3,266.6 134.5,266.7 134.7,266.8 134.9,267 135.1,267.1 135.3,267.2 135.5,267.4 135.7,267.5 136,267.7 
		136.2,267.8 136.4,267.9 136.6,268.1 136.8,268.2 137,268.4 137.2,268.5 137.4,268.7 137.6,268.8 137.8,269 138,269.1 138.2,269.2 
		138.4,269.4 138.6,269.5 138.8,269.7 139,269.8 139.2,270 139.4,270.1 139.6,270.3 139.8,270.4 140,270.6 140.2,270.7 140.4,270.9 
		140.6,271 140.8,271.2 141,271.3 141.2,271.5 141.4,271.6 141.7,271.8 141.9,271.9 142.1,272 142.3,272.2 142.5,272.3 142.7,272.5 
		142.9,272.6 143.1,272.8 143.3,272.9 143.5,273.1 143.7,273.2 143.9,273.3 144.1,273.5 144.3,273.6 144.5,273.8 144.7,273.9 
		144.9,274 145.1,274.2 145.3,274.3 145.5,274.4 145.7,274.6 145.9,274.4 146.1,274.3 146.3,274.2 146.5,274 146.7,273.9 
		146.9,273.8 147.2,273.7 147.4,273.5 147.6,273.4 147.8,273.3 148,273.2 148.2,273.1 148.4,272.9 148.6,272.8 148.8,272.7 
		149,272.6 149.2,272.5 149.4,272.4 149.6,272.3 149.8,272.2 150,272 150.2,271.9 150.4,271.8 150.6,271.7 150.8,271.6 151,271.5 
		151.2,271.4 151.4,271.4 151.6,271.3 151.8,271.2 152,271.1 152.2,271 152.4,270.9 152.6,270.8 152.9,270.7 153.1,270.7 
		153.3,270.6 153.5,270.5 153.7,270.4 153.9,270.4 154.1,270.3 154.3,270.2 154.5,270.2 154.7,270.1 154.9,270 155.1,270 
		155.3,269.9 155.5,269.8 155.7,269.8 155.9,269.7 156.1,269.7 156.3,269.6 156.5,269.6 156.7,269.5 156.9,269.5 157.1,269.5 
		157.3,269.4 157.5,269.4 157.7,269.4 157.9,269.3 158.1,269.3 158.3,269.3 158.6,269.2 158.8,269.2 159,269.2 159.2,269.2 
		159.4,269.1 159.6,269.1 159.8,269.1 160,269.1 160.2,269.1 160.4,269.1 160.6,269.1 160.8,269.1 161,269.1 161.2,269.1 
		161.4,269.1 161.6,269.1 161.8,269.1 162,269.1 162.2,269.1 162.4,269.1 162.6,269.1 162.8,269.1 163,269.2 163.2,269.2 
		163.4,269.2 163.6,269.2 163.8,269.3 164.1,269.3 164.3,269.3 164.5,269.3 164.7,269.4 164.9,269.4 165.1,269.4 165.3,269.5 
		165.5,269.5 165.7,269.6 165.9,269.6 166.1,269.7 166.3,269.7 166.5,269.7 166.7,269.8 166.9,269.8 167.1,269.9 167.3,270 
		167.5,270 167.7,270.1 167.9,270.1 168.1,270.2 168.3,270.3 168.5,270.3 168.7,270.4 168.9,270.4 169.1,270.5 169.3,270.6 
		169.5,270.7 169.8,270.7 170,270.8 170.2,270.9 170.4,271 170.6,271 170.8,271.1 171,271.2 171.2,271.3 171.4,271.3 171.6,271.4 
		171.8,271.5 172,271.6 172.2,271.7 172.4,271.8 172.6,271.9 172.8,271.9 173,272 173.2,272.1 173.4,272.2 173.6,272.3 173.8,272.4 
		174,272.5 174.2,272.6 174.4,272.7 174.6,272.8 174.8,272.9 175,273 175.3,273.1 175.5,273.2 175.7,273.3 175.9,273.4 176.1,273.5 
		176.3,273.6 176.5,273.7 176.7,273.8 176.9,273.9 177.1,274 177.3,274.1 177.5,274.2 177.7,274.3 177.9,274.4 178.1,274.5 
		178.3,274.6 178.5,274.5 178.7,274.4 178.9,274.3 179.1,274.2 179.3,274.1 179.5,274 179.7,273.9 179.9,273.8 180.1,273.7 
		180.3,273.6 180.5,273.5 180.7,273.4 181,273.3 181.2,273.2 181.4,273.1 181.6,273 181.8,272.9 182,272.8 182.2,272.7 182.4,272.6 
		182.6,272.5 182.8,272.4 183,272.3 183.2,272.2 183.4,272.1 183.6,272 183.8,271.9 184,271.9 184.2,271.8 184.4,271.7 184.6,271.6 
		184.8,271.5 185,271.4 185.2,271.3 185.4,271.3 185.6,271.2 185.8,271.1 186,271 186.2,271 186.4,270.9 186.7,270.8 186.9,270.7 
		187.1,270.7 187.3,270.6 187.5,270.5 187.7,270.4 187.9,270.4 188.1,270.3 188.3,270.3 188.5,270.2 188.7,270.1 188.9,270.1 
		189.1,270 189.3,270 189.5,269.9 189.7,269.8 189.9,269.8 190.1,269.7 190.3,269.7 190.5,269.7 190.7,269.6 190.9,269.6 
		191.1,269.5 191.3,269.5 191.5,269.4 191.7,269.4 191.9,269.4 192.2,269.3 192.4,269.3 192.6,269.3 192.8,269.3 193,269.2 
		193.2,269.2 193.4,269.2 193.6,269.2 193.8,269.1 194,269.1 194.2,269.1 194.4,269.1 194.6,269.1 194.8,269.1 195,269.1 
		195.2,269.1 195.4,269.1 195.6,269.1 195.8,269.1 196,269.1 196.2,269.1 196.4,269.1 196.6,269.1 196.8,269.1 197,269.1 
		197.2,269.1 197.4,269.2 197.6,269.2 197.9,269.2 198.1,269.2 198.3,269.3 198.5,269.3 198.7,269.3 198.9,269.4 199.1,269.4 
		199.3,269.4 199.5,269.5 199.7,269.5 199.9,269.5 200.1,269.6 200.3,269.6 200.5,269.7 200.7,269.7 200.9,269.8 201.1,269.8 
		201.3,269.9 201.5,270 201.7,270 201.9,270.1 202.1,270.2 202.3,270.2 202.5,270.3 202.7,270.4 202.9,270.4 203.1,270.5 
		203.4,270.6 203.6,270.7 203.8,270.7 204,270.8 204.2,270.9 204.4,271 204.6,271.1 204.8,271.2 205,271.3 205.2,271.4 205.4,271.4 
		205.6,271.5 205.8,271.6 206,271.7 206.2,271.8 206.4,271.9 206.6,272 206.8,272.2 207,272.3 207.2,272.4 207.4,272.5 207.6,272.6 
		207.8,272.7 208,272.8 208.2,272.9 208.4,273.1 208.6,273.2 208.8,273.3 209.1,273.4 209.3,273.5 209.5,273.7 209.7,273.8 
		209.9,273.9 210.1,274 210.3,274.2 210.5,274.3 210.7,274.4 210.9,274.6 211.1,274.4 211.3,274.3 211.5,274.2 211.7,274 
		211.9,273.9 212.1,273.8 212.3,273.6 212.5,273.5 212.7,273.3 212.9,273.2 213.1,273.1 213.3,272.9 213.5,272.8 213.7,272.6 
		213.9,272.5 214.1,272.3 214.3,272.2 214.6,272 214.8,271.9 215,271.8 215.2,271.6 215.4,271.5 215.6,271.3 215.8,271.2 216,271 
		216.2,270.9 216.4,270.7 216.6,270.6 216.8,270.4 217,270.3 217.2,270.1 217.4,270 217.6,269.8 217.8,269.7 218,269.5 218.2,269.4 
		218.4,269.2 218.6,269.1 218.8,269 219,268.8 219.2,268.7 219.4,268.5 219.6,268.4 219.8,268.2 220,268.1 220.3,267.9 220.5,267.8 
		220.7,267.7 220.9,267.5 221.1,267.4 221.3,267.2 221.5,267.1 221.7,267 221.9,266.8 222.1,266.7 222.3,266.6 222.5,266.4 
		222.7,266.3 222.9,266.2 223.1,266 223.3,265.9 223.5,265.8 223.7,265.6 223.9,265.5 224.1,265.4 224.3,265.3 224.5,265.1 
		224.7,265 224.9,264.9 225.1,264.8 225.3,264.7 225.5,264.5 225.7,264.4 226,264.3 226.2,264.2 226.4,264.1 226.6,264 226.8,263.9 
		227,263.8 227.2,263.7 227.4,263.6 227.6,263.5 227.8,263.4 228,263.3 228.2,263.2 228.4,263.1 228.6,263 228.8,262.9 229,262.9 
		229.2,262.8 229.4,262.7 229.6,262.6 229.8,262.5 230,262.5 230.2,262.4 230.4,262.3 230.6,262.3 230.8,262.2 231,262.1 
		231.2,262.1 231.5,262 231.7,262 231.9,261.9 232.1,261.8 232.3,261.8 232.5,261.8 232.7,261.7 232.9,261.7 233.1,261.6 
		233.3,261.6 233.5,261.6 233.7,261.5 233.9,261.5 234.1,261.5 234.3,261.4 234.5,261.4 234.7,261.4 234.9,261.4 235.1,261.4 
		235.3,261.4 235.5,261.4 235.7,261.3 235.9,261.3 236.1,261.3 236.3,261.3 236.5,261.3 236.7,261.4 236.9,261.4 237.2,261.4 
		237.4,261.4 237.6,261.4 237.8,261.4 238,261.5 238.2,261.5 238.4,261.5 238.6,261.5 238.8,261.6 239,261.6 239.2,261.6 
		239.4,261.7 239.6,261.7 239.8,261.8 240,261.8 240.2,261.9 240.4,261.9 240.6,262 240.8,262 241,262.1 241.2,262.2 241.4,262.2 
		241.6,262.3 241.8,262.4 242,262.4 242.2,262.5 242.4,262.6 242.6,262.7 242.9,262.8 243.1,262.9 243.3,262.9 243.5,263 
		243.7,263.1 243.9,263.2 244.1,263.3 244.3,263.4 244.5,263.5 244.7,263.6 244.9,263.7 245.1,263.8 245.3,264 245.5,264.1 
		245.7,264.2 245.9,264.3 246.1,264.4 246.3,264.5 246.5,264.7 246.7,264.8 246.9,264.9 247.1,265 247.3,265.2 247.5,265.3 
		247.7,265.4 247.9,265.6 248.1,265.7 248.4,265.8 248.6,266 248.8,266.1 249,266.3 249.2,266.4 249.4,266.5 249.6,266.7 
		249.8,266.8 250,267 250.2,267.1 250.4,267.3 250.6,267.4 250.8,267.6 251,267.8 251.2,267.9 251.4,268.1 251.6,268.2 251.8,268.4 
		252,268.5 252.2,268.7 252.4,268.9 252.6,269 252.8,269.2 253,269.3 253.2,269.5 253.4,269.7 253.6,269.8 253.8,270 254.1,270.2 
		254.3,270.3 254.5,270.5 254.7,270.7 254.9,270.8 255.1,271 255.3,271.1 255.5,271.3 255.7,271.5 255.9,271.6 256.1,271.8 
		256.3,272 256.5,272.1 256.7,272.3 256.9,272.4 257.1,272.6 257.3,272.8 257.5,272.9 257.7,273.1 257.9,273.2 258.1,273.4 
		258.3,273.5 258.5,273.7 258.7,273.8 258.9,274 259.1,274.1 259.3,274.3 259.6,274.4 259.8,274.6 260,274.4 260.2,274.3 
		260.4,274.1 260.6,274 260.8,273.9 261,273.7 261.2,273.6 261.4,273.5 261.6,273.4 261.8,273.2 262,273.1 262.2,273 262.4,272.9 
		262.6,272.8 262.8,272.7 263,272.5 263.2,272.4 263.4,272.3 263.6,272.2 263.8,272.1 264,272 264.2,272 264.4,271.9 264.6,271.8 
		264.8,271.7 265,271.6 265.3,271.6 265.5,271.5 265.7,271.4 265.9,271.4 266.1,271.3 266.3,271.2 266.5,271.2 266.7,271.2 
		266.9,271.1 267.1,271.1 267.3,271 267.5,271 267.7,271 267.9,271 268.1,270.9 268.3,270.9 268.5,270.9 268.7,270.9 268.9,270.9 
		269.1,270.9 269.3,271 269.5,271 269.7,271 269.9,271 270.1,271.1 270.3,271.1 270.5,271.1 270.8,271.2 271,271.2 271.2,271.3 
		271.4,271.4 271.6,271.4 271.8,271.5 272,271.6 272.2,271.7 272.4,271.8 272.6,271.9 272.8,272 273,272.1 273.2,272.2 273.4,272.3 
		273.6,272.5 273.8,272.6 274,272.8 274.2,272.9 274.4,273.1 274.6,273.2 274.8,273.4 275,273.6 275.2,273.8 275.4,274 275.6,274.1 
		275.8,274.4 276,274.6 276.2,274.3 276.5,274.1 276.7,273.9 276.9,273.7 277.1,273.4 277.3,273.2 277.5,272.9 277.7,272.6 
		277.9,272.3 278.1,272.1 278.3,271.8 278.5,271.5 278.7,271.2 278.9,270.9 279.1,270.5 279.3,270.2 279.5,269.9 279.7,269.5 
		279.9,269.2 280.1,268.8 280.3,268.5 280.5,268.1 280.7,267.7 280.9,267.3 281.1,266.9 281.3,266.5 281.5,266.1 281.7,265.7 
		281.9,265.3 282.2,264.8 282.4,264.4 282.6,263.9 282.8,263.5 283,263 283.2,262.5 283.4,262 283.6,261.5 283.8,261 284,260.5 
		284.2,260 284.4,259.5 284.6,258.9 284.8,258.4 285,257.9 285.2,257.3 285.4,256.7 285.6,256.2 285.8,255.6 286,255 286.2,254.4 
		286.4,253.8 286.6,253.2 286.8,252.5 287,251.9 287.2,251.3 287.4,250.6 287.7,250 287.9,249.3 288.1,248.6 288.3,247.9 
		288.5,247.3 288.7,246.6 288.9,245.9 289.1,245.1 289.3,244.4 289.5,243.7 289.7,243 289.9,242.2 290.1,241.5 290.3,240.7 
		290.5,239.9 290.7,239.2 290.9,238.4 291.1,237.6 291.3,236.8 291.5,236 291.7,235.2 291.9,234.3 292.1,233.5 292.3,232.7 
		292.5,231.8 292.7,231 292.9,230.1 293.1,229.2 293.4,228.4 293.6,227.5 293.8,226.6 294,225.7 294.2,224.8 294.4,223.9 294.6,223 
		294.8,222 295,221.1 295.2,220.2 295.4,219.2 295.6,218.3 295.8,217.3 296,216.4 296.2,215.4 296.4,214.4 296.6,213.4 296.8,212.4 
		297,211.4 297.2,210.4 297.4,209.4 297.6,208.4 297.8,207.4 298,206.3 298.2,205.3 298.4,204.3 298.6,203.2 298.9,202.2 
		299.1,201.1 299.3,200.1 299.5,199 299.7,197.9 299.9,196.8 300.1,195.7 300.3,194.7 300.5,193.6 300.7,192.5 300.9,191.4 
		301.1,190.2 301.3,189.1 301.5,188 301.7,186.9 301.9,185.8 302.1,184.6 302.3,183.5 302.5,182.4 302.7,181.2 302.9,180.1 
		303.1,178.9 303.3,177.8 303.5,176.6 303.7,175.4 303.9,174.3 304.1,173.1 304.3,171.9 304.6,170.7 304.8,169.6 305,168.4 
		305.2,167.2 305.4,166 305.6,164.8 305.8,163.6 306,162.4 306.2,161.2 306.4,160 306.6,158.8 306.8,157.6 307,156.4 307.2,155.2 
		307.4,154 307.6,152.8 307.8,151.6 308,150.3 308.2,149.1 308.4,147.9 308.6,146.7 308.8,145.5 309,144.2 309.2,143 309.4,141.8 
		309.6,140.6 309.8,139.4 310.1,138.1 310.3,136.9 310.5,135.7 310.7,134.5 310.9,133.2 311.1,132 311.3,130.8 311.5,129.6 
		311.7,128.4 311.9,127.1 312.1,125.9 312.3,124.7 312.5,123.5 312.7,122.3 312.9,121.1 313.1,119.9 313.3,118.6 313.5,117.4 
		313.7,116.2 313.9,115 314.1,113.8 314.3,112.6 314.5,111.4 314.7,110.2 314.9,109 315.1,107.9 315.3,106.7 315.5,105.5 
		315.8,104.3 316,103.1 316.2,102 316.4,100.8 316.6,99.6 316.8,98.5 317,97.3 317.2,96.2 317.4,95 317.6,93.9 317.8,92.7 318,91.6 
		318.2,90.4 318.4,89.3 318.6,88.2 318.8,87.1 319,86 319.2,84.9 319.4,83.8 319.6,82.7 319.8,81.6 320,80.5 320.2,79.4 320.4,78.3 
		320.6,77.3 320.8,76.2 321,75.2 321.2,74.1 321.5,73.1 321.7,72 321.9,71 322.1,70 322.3,69 322.5,68 322.7,67 322.9,66 323.1,65 
		323.3,64 323.5,63.1 323.7,62.1 323.9,61.1 324.1,60.2 324.3,59.3 324.5,58.3 324.7,57.4 324.9,56.5 325.1,55.6 325.3,54.7 
		325.5,53.8 325.7,52.9 325.9,52.1 326.1,51.2 326.3,50.3 326.5,49.5 326.7,48.7 327,47.8 327.2,47 327.4,46.2 327.6,45.4 
		327.8,44.6 328,43.9 328.2,43.1 328.4,42.3 328.6,41.6 328.8,40.9 329,40.1 329.2,39.4 329.4,38.7 329.6,38 329.8,37.3 330,36.7 
		330.2,36 330.4,35.4 330.6,34.7 330.8,34.1 331,33.5 331.2,32.9 331.4,32.3 331.6,31.7 331.8,31.1 332,30.5 332.2,30 332.4,29.5 
		332.7,28.9 332.9,28.4 333.1,27.9 333.3,27.4 333.5,26.9 333.7,26.5 333.9,26 334.1,25.6 334.3,25.1 334.5,24.7 334.7,24.3 
		334.9,23.9 335.1,23.5 335.3,23.1 335.5,22.8 335.7,22.4 335.9,22.1 336.1,21.8 336.3,21.5 336.5,21.2 336.7,20.9 336.9,20.6 
		337.1,20.3 337.3,20.1 337.5,19.8 337.7,19.6 337.9,19.4 338.2,19.2 338.4,19 338.6,18.9 338.8,18.7 339,18.5 339.2,18.4 
		339.4,18.3 339.6,18.2 339.8,18.1 340,18 340.2,17.9 340.4,17.9 340.6,17.8 340.8,17.8 341,17.8 	"/>
	<path class="st7" d="M18.4,17.8c0-1.7-1.3-3-3-3s-3,1.3-3,3c0,1.7,1.3,3,3,3S18.4,19.4,18.4,17.8 M38.8,76.2c0-1.7-1.3-3-3-3
		c-1.7,0-3,1.3-3,3c0,1.7,1.3,3,3,3C37.4,79.2,38.8,77.9,38.8,76.2 M59.1,193.6c0-1.7-1.3-3-3-3c-1.7,0-3,1.3-3,3s1.3,3,3,3
		C57.8,196.6,59.1,195.2,59.1,193.6 M79.5,268.8c0-1.7-1.3-3-3-3c-1.7,0-3,1.3-3,3s1.3,3,3,3C78.1,271.8,79.5,270.5,79.5,268.8
		 M99.9,274.6c0-1.7-1.3-3-3-3c-1.7,0-3,1.3-3,3s1.3,3,3,3C98.5,277.6,99.9,276.2,99.9,274.6 M120.2,261.7c0-1.7-1.3-3-3-3
		c-1.7,0-3,1.3-3,3s1.3,3,3,3C118.9,264.7,120.2,263.3,120.2,261.7 M140.6,268.8c0-1.7-1.3-3-3-3s-3,1.3-3,3s1.3,3,3,3
		S140.6,270.5,140.6,268.8 M160.9,269.3c0-1.7-1.3-3-3-3s-3,1.3-3,3c0,1.7,1.3,3,3,3S160.9,271,160.9,269.3 M181.3,274.6
		c0-1.7-1.3-3-3-3s-3,1.3-3,3s1.3,3,3,3S181.3,276.2,181.3,274.6 M201.7,269.3c0-1.7-1.3-3-3-3c-1.7,0-3,1.3-3,3c0,1.7,1.3,3,3,3
		C200.3,272.3,201.7,271,201.7,269.3 M222,268.8c0-1.7-1.3-3-3-3c-1.7,0-3,1.3-3,3s1.3,3,3,3C220.7,271.8,222,270.5,222,268.8
		 M242.4,261.7c0-1.7-1.3-3-3-3c-1.7,0-3,1.3-3,3s1.3,3,3,3C241,264.7,242.4,263.3,242.4,261.7 M262.8,274.6c0-1.7-1.3-3-3-3
		c-1.7,0-3,1.3-3,3s1.3,3,3,3C261.4,277.6,262.8,276.2,262.8,274.6 M283.1,268.8c0-1.7-1.3-3-3-3c-1.7,0-3,1.3-3,3s1.3,3,3,3
		C281.8,271.8,283.1,270.5,283.1,268.8 M303.5,193.6c0-1.7-1.3-3-3-3c-1.7,0-3,1.3-3,3s1.3,3,3,3
		C302.1,196.6,303.5,195.2,303.5,193.6 M323.8,76.2c0-1.7-1.3-3-3-3c-1.7,0-3,1.3-3,3c0,1.7,1.3,3,3,3
		C322.5,79.2,323.8,77.9,323.8,76.2"/>
	<path class="st8" d="M15.4,274.6V17.8 M35.8,274.6V76.2 M56.1,274.6v-81 M76.5,274.6v-5.7 M96.9,274.6L96.9,274.6 M117.2,274.6
		v-12.9 M137.6,274.6v-5.8 M157.9,274.6v-5.2 M178.3,274.6L178.3,274.6 M198.7,274.6v-5.2 M219,274.6v-5.8 M239.4,274.6v-12.9
		 M259.8,274.6L259.8,274.6 M280.1,274.6v-5.7 M300.5,274.6v-81 M320.8,274.6V76.2"/>
</g>
</svg>
