<?xml version="1.0" encoding="utf-8"?>
<!-- Generator: Adobe Illustrator 22.1.0, SVG Export Plug-In . SVG Version: 6.00 Build 0)  -->
<svg version="1.1" id="Layer_1" xmlns="http://www.w3.org/2000/svg" xmlns:xlink="http://www.w3.org/1999/xlink" x="0px" y="0px"
	 viewBox="0 0 354.5 306.7" style="enable-background:new 0 0 354.5 306.7;" xml:space="preserve">
<style type="text/css">
	.st0{fill:none;stroke:#262626;stroke-width:0.4998;stroke-linecap:square;stroke-linejoin:round;stroke-miterlimit:10;}
	.st1{fill:#4A4A49;}
	.st2{fill:#262626;}
	.st3{fill:#1D1D1B;}
	.st4{fill:#FF0000;}
	.st5{fill:none;stroke:#262626;stroke-width:0.4998;stroke-linejoin:round;stroke-miterlimit:10;}
	.st6{fill:none;stroke:#000000;stroke-width:4.0002;stroke-linejoin:round;stroke-miterlimit:10;}
	.st7{fill:none;stroke:#FF0000;stroke-width:4.0002;stroke-miterlimit:10;}
	.st8{fill:none;stroke:#FF0000;stroke-width:4.0002;stroke-linejoin:round;stroke-miterlimit:10;}
</style>
<g>
	<path class="st0" d="M15.4,274.6h325.8 M15.4,17.8h325.8 M15.4,274.6v-3.3 M178.3,274.6v-3.3 M340.8,274.6v-3.3 M15.4,17.8V21
		 M178.3,17.8V21 M340.8,17.8V21"/>
	<g>
		<path class="st1" d="M6.5,288c-0.4-0.6-0.6-1.5-0.6-2.7s0.2-2,0.6-2.7c0.4-0.6,1-0.9,1.8-0.9c0.8,0,1.4,0.3,1.8,0.9
			c0.4,0.6,0.6,1.5,0.6,2.7s-0.2,2-0.6,2.7s-1,0.9-1.8,0.9C7.5,289,6.9,288.6,6.5,288z M9.4,287.5c0.2-0.5,0.4-1.2,0.4-2.1
			c0-0.9-0.1-1.6-0.4-2.1c-0.2-0.5-0.6-0.7-1.1-0.7c-0.5,0-0.9,0.2-1.1,0.7c-0.2,0.5-0.4,1.2-0.4,2.1c0,0.9,0.1,1.6,0.4,2.1
			s0.6,0.7,1.1,0.7C8.8,288.2,9.2,287.9,9.4,287.5z"/>
		<path class="st1" d="M14.7,283.6h1v1.1h-1V283.6z M14.7,288.2v-0.5h0.5h0.5v0.9c0,0.5-0.1,0.9-0.2,1.1c-0.2,0.3-0.4,0.4-0.8,0.5
			v-0.5c0.2,0,0.3-0.1,0.4-0.3c0.1-0.1,0.1-0.4,0.1-0.7h0h-0.5V288.2z"/>
		<path class="st1" d="M20.4,288c-0.4-0.6-0.6-1.5-0.6-2.7s0.2-2,0.6-2.7c0.4-0.6,1-0.9,1.8-0.9c0.8,0,1.4,0.3,1.8,0.9
			c0.4,0.6,0.6,1.5,0.6,2.7s-0.2,2-0.6,2.7s-1,0.9-1.8,0.9C21.4,289,20.8,288.6,20.4,288z M23.3,287.5c0.2-0.5,0.4-1.2,0.4-2.1
			c0-0.9-0.1-1.6-0.4-2.1c-0.2-0.5-0.6-0.7-1.1-0.7c-0.5,0-0.9,0.2-1.1,0.7c-0.2,0.5-0.4,1.2-0.4,2.1c0,0.9,0.1,1.6,0.4,2.1
			s0.6,0.7,1.1,0.7C22.7,288.2,23,287.9,23.3,287.5z"/>
	</g>
	<path class="st2" d="M169.4,288.8c0,0,0-0.1,0-0.2c0.2-0.4,0.4-0.8,0.5-1.2c0.2-0.4,0.3-0.8,0.4-1.1c0.1-0.4,0.3-0.7,0.4-1.2h-0.7
		c-0.3,0-0.5,0.1-0.7,0.2c-0.2,0.2-0.4,0.4-0.5,0.6c0,0,0,0-0.1,0h-0.1c-0.1,0-0.1,0-0.1-0.1c0,0,0,0,0-0.1c0.2-0.4,0.5-0.7,0.7-1
		c0.3-0.3,0.5-0.4,0.9-0.4h3.7c0.1,0,0.1,0,0.2,0.1c0,0,0.1,0.1,0.1,0.2c0,0.1,0,0.2-0.1,0.3c-0.1,0.1-0.2,0.1-0.3,0.1h-1.3
		c-0.1,0.5-0.2,1.1-0.2,1.6c0,0.7,0.1,1.2,0.3,1.8c0,0,0,0.1,0,0.1c0,0.1,0,0.1-0.1,0.2c0,0.1-0.1,0.1-0.2,0.2
		c-0.1,0-0.1,0.1-0.2,0.1c-0.2,0-0.3-0.1-0.4-0.4c-0.1-0.3-0.1-0.6-0.1-0.8c0-0.4,0-0.8,0.1-1.1c0.1-0.4,0.2-0.8,0.3-1.5h-1.1
		c-0.5,2.2-0.9,3.4-1,3.6c-0.1,0.2-0.2,0.3-0.4,0.3c-0.1,0-0.2,0-0.2-0.1C169.5,288.9,169.4,288.9,169.4,288.8L169.4,288.8z"/>
	<g>
		<path class="st1" d="M178,283.8h1v1.1h-1V283.8z M178,288.4v-0.5h0.5h0.5v0.9c0,0.5-0.1,0.9-0.2,1.1c-0.2,0.3-0.4,0.4-0.8,0.5V290
			c0.2,0,0.3-0.1,0.4-0.3c0.1-0.1,0.1-0.4,0.1-0.7h0H178V288.4z"/>
		<path class="st1" d="M183,287.3v-0.4v-0.4l3.3-4.5h0.4h0.4v4.6h1v0.8h-1v1.7h-0.9v-1.7H183z M186.1,286.5v-3.2l-2.2,3.1l0,0.1
			H186.1z"/>
	</g>
	<g>
		<path class="st1" d="M331.3,284c0,0.5-0.1,0.9-0.4,1.3c-0.3,0.3-0.8,0.7-1.5,1.1c-0.8,0.4-1.3,0.8-1.6,1.2
			c-0.1,0.2-0.2,0.3-0.3,0.5h3.8v0.9h-4.8v0c0-0.7,0.2-1.3,0.6-1.8c0.4-0.5,1.1-1,2.1-1.5c0.5-0.3,0.8-0.5,1-0.8
			c0.2-0.2,0.3-0.5,0.3-0.9c0-0.4-0.1-0.7-0.4-0.9c-0.3-0.2-0.6-0.4-1-0.4c-0.4,0-0.8,0.1-1,0.4s-0.4,0.7-0.4,1.3h-0.9
			c0-0.8,0.2-1.4,0.6-1.8c0.4-0.4,1-0.7,1.8-0.7c0.7,0,1.2,0.2,1.6,0.6C331.1,282.9,331.3,283.4,331.3,284z"/>
	</g>
	<path class="st2" d="M335.6,288.8c0,0,0-0.1,0-0.2c0.2-0.4,0.4-0.8,0.5-1.2c0.2-0.4,0.3-0.8,0.4-1.1c0.1-0.4,0.3-0.7,0.4-1.2h-0.7
		c-0.3,0-0.5,0.1-0.7,0.2c-0.2,0.2-0.4,0.4-0.5,0.6c0,0,0,0-0.1,0h-0.1c-0.1,0-0.1,0-0.1-0.1c0,0,0,0,0-0.1c0.2-0.4,0.5-0.7,0.7-1
		c0.3-0.3,0.5-0.4,0.9-0.4h3.7c0.1,0,0.1,0,0.2,0.1c0,0,0.1,0.1,0.1,0.2c0,0.1,0,0.2-0.1,0.3c-0.1,0.1-0.2,0.1-0.3,0.1h-1.3
		c-0.1,0.5-0.2,1.1-0.2,1.6c0,0.7,0.1,1.2,0.3,1.8c0,0,0,0.1,0,0.1c0,0.1,0,0.1-0.1,0.2c0,0.1-0.1,0.1-0.2,0.2
		c-0.1,0-0.1,0.1-0.2,0.1c-0.2,0-0.3-0.1-0.4-0.4c-0.1-0.3-0.1-0.6-0.1-0.8c0-0.4,0-0.8,0.1-1.1c0.1-0.4,0.2-0.8,0.3-1.5h-1.1
		c-0.5,2.2-0.9,3.4-1,3.6c-0.1,0.2-0.2,0.3-0.4,0.3c-0.1,0-0.2,0-0.2-0.1C335.7,288.9,335.6,288.9,335.6,288.8L335.6,288.8z"/>
	<g>
		<path class="st1" d="M344.2,283.8h1v1.1h-1V283.8z M344.2,288.4v-0.5h0.5h0.5v0.9c0,0.5-0.1,0.9-0.2,1.1c-0.2,0.3-0.4,0.4-0.8,0.5
			V290c0.2,0,0.3-0.1,0.4-0.3c0.1-0.1,0.1-0.4,0.1-0.7h0h-0.5V288.4z"/>
		<path class="st1" d="M352.9,285.3c0.2,0.1,0.4,0.2,0.5,0.3c0.4,0.4,0.7,0.8,0.7,1.4c0,0.7-0.2,1.2-0.7,1.6s-1,0.6-1.7,0.6
			s-1.3-0.2-1.7-0.6c-0.4-0.4-0.7-0.9-0.7-1.6c0-0.6,0.2-1.1,0.7-1.4c0.2-0.1,0.3-0.2,0.5-0.3c-0.1-0.1-0.2-0.1-0.3-0.2
			c-0.4-0.3-0.6-0.7-0.6-1.2c0-0.6,0.2-1,0.6-1.4s0.9-0.5,1.6-0.5s1.2,0.2,1.6,0.5s0.6,0.8,0.6,1.4c0,0.5-0.2,0.9-0.6,1.2
			C353.2,285.1,353.1,285.2,352.9,285.3z M351.7,285.6c-0.4,0-0.8,0.1-1.1,0.4c-0.3,0.3-0.4,0.6-0.4,1c0,0.4,0.1,0.7,0.4,1
			c0.3,0.3,0.6,0.4,1.1,0.4s0.8-0.1,1.1-0.4s0.4-0.6,0.4-1c0-0.4-0.1-0.7-0.4-1C352.5,285.8,352.1,285.6,351.7,285.6z M351.7,284.9
			c0.4,0,0.7-0.1,0.9-0.3s0.3-0.5,0.3-0.8s-0.1-0.6-0.3-0.8s-0.5-0.3-0.9-0.3s-0.7,0.1-0.9,0.3s-0.3,0.5-0.3,0.8s0.1,0.6,0.3,0.8
			C351.1,284.8,351.4,284.9,351.7,284.9z"/>
	</g>
	<path class="st2" d="M161.4,300.9c-0.1,0-0.1,0-0.1-0.1c0,0-0.1-0.1-0.1-0.1c0-0.1,0-0.1,0.1-0.1c0,0,0.1-0.1,0.1-0.1h8.2
		c-0.3-0.2-0.5-0.4-0.7-0.7s-0.4-0.5-0.5-0.8c-0.1-0.3-0.2-0.6-0.3-1c0-0.1,0-0.1,0.1-0.1h0.2c0,0,0,0,0.1,0c0,0,0,0,0,0.1
		c0.1,0.3,0.2,0.6,0.3,0.9c0.1,0.3,0.3,0.5,0.5,0.7c0.2,0.2,0.4,0.4,0.6,0.6c0.2,0.2,0.5,0.3,0.8,0.4c0,0,0.1,0.1,0.1,0.1
		c0,0.1,0,0.1-0.1,0.1c-0.4,0.1-0.7,0.3-1,0.6c-0.3,0.3-0.6,0.6-0.8,0.9c-0.2,0.4-0.3,0.7-0.4,1.1c0,0,0,0,0,0.1c0,0,0,0-0.1,0h-0.2
		c-0.1,0-0.1,0-0.1-0.1c0.1-0.5,0.3-1,0.5-1.4c0.3-0.4,0.6-0.8,1-1.1H161.4L161.4,300.9z"/>
	<g>
	</g>
	<path class="st2" d="M177.3,303.5c-0.3,0-0.6-0.1-0.8-0.4c-0.2-0.2-0.3-0.5-0.4-0.9c-0.1-0.3-0.1-0.7-0.1-1v0c0-0.4,0-0.7,0.1-1.1
		c0.1-0.4,0.2-0.8,0.3-1.2c0.1-0.4,0.3-0.7,0.4-1c0.1-0.2,0.2-0.4,0.4-0.7c0.2-0.3,0.4-0.5,0.6-0.7c0.2-0.2,0.4-0.4,0.7-0.5
		c0.2-0.1,0.5-0.2,0.7-0.2h0c0.3,0,0.5,0.1,0.7,0.2c0.2,0.1,0.3,0.3,0.4,0.6c0.1,0.2,0.2,0.5,0.2,0.7c0,0.3,0.1,0.5,0.1,0.7
		c0,0.5-0.1,1.1-0.2,1.7s-0.4,1.1-0.6,1.6c-0.1,0.2-0.2,0.4-0.4,0.7c-0.2,0.3-0.4,0.5-0.6,0.7c-0.2,0.2-0.4,0.4-0.7,0.5
		C177.8,303.4,177.6,303.5,177.3,303.5L177.3,303.5L177.3,303.5z M177.4,303.2c0.2,0,0.5-0.1,0.7-0.4c0.2-0.3,0.4-0.6,0.6-0.9
		c0.2-0.4,0.3-0.7,0.4-1.1c0.1-0.4,0.2-0.7,0.3-1h-2.2c-0.1,0.5-0.2,0.8-0.3,1.2c-0.1,0.3-0.1,0.7-0.1,1
		C176.8,302.8,177,303.2,177.4,303.2L177.4,303.2z M177.2,299.4h2.2c0.1-0.3,0.1-0.6,0.2-0.8c0-0.2,0.1-0.4,0.1-0.7
		c0-0.2,0-0.5,0-0.7c0-0.8-0.2-1.3-0.6-1.3c-0.5,0-0.9,0.4-1.2,1.1C177.7,297.9,177.4,298.6,177.2,299.4L177.2,299.4z"/>
	<g>
		<path class="st1" d="M185,297.7h1.1v1.2H185V297.7z M185,302.8v-0.6h0.6h0.6v1c0,0.6-0.1,1-0.3,1.3s-0.5,0.5-0.9,0.6v-0.5
			c0.2,0,0.4-0.2,0.5-0.4c0.1-0.2,0.1-0.4,0.1-0.7h0H185V302.8z"/>
		<path class="st1" d="M190.9,295.5h0.5h0.5v4.6l2.4-2.4h0.6h0.6l-2.2,2.1l2.3,3.6H195h-0.6l-1.8-2.9l-0.8,0.7v2.2h-0.5h-0.5V295.5z
			"/>
	</g>
	<path class="st0" d="M15.4,274.6V17.8 M341.2,274.6V17.8 M15.4,274.6h3.3 M15.4,248.9h3.3 M15.4,223.2h3.3 M15.4,197.5h3.3
		 M15.4,171.8h3.3 M15.4,146.2h3.3 M15.4,120.5h3.3 M15.4,94.8h3.3 M15.4,69.1h3.3 M15.4,43.4h3.3 M15.4,17.8h3.3 M341.2,274.6h-3.3
		 M341.2,248.9h-3.3 M341.2,223.2h-3.3 M341.2,197.5h-3.3 M341.2,171.8h-3.3 M341.2,146.2h-3.3 M341.2,120.5h-3.3 M341.2,94.8h-3.3
		 M341.2,69.1h-3.3 M341.2,43.4h-3.3 M341.2,17.8h-3.3"/>
	<g>
		<path class="st1" d="M6.4,277.7c-0.4-0.6-0.6-1.5-0.6-2.7s0.2-2,0.6-2.7c0.4-0.6,1-0.9,1.8-0.9c0.8,0,1.4,0.3,1.8,0.9
			c0.4,0.6,0.6,1.5,0.6,2.7s-0.2,2-0.6,2.7s-1,0.9-1.8,0.9C7.4,278.6,6.8,278.3,6.4,277.7z M9.3,277.2c0.2-0.5,0.4-1.2,0.4-2.1
			c0-0.9-0.1-1.6-0.4-2.1c-0.2-0.5-0.6-0.7-1.1-0.7c-0.5,0-0.9,0.2-1.1,0.7c-0.2,0.5-0.4,1.2-0.4,2.1c0,0.9,0.1,1.6,0.4,2.1
			s0.6,0.7,1.1,0.7C8.7,277.9,9,277.6,9.3,277.2z"/>
	</g>
	<g>
		<path class="st1" d="M10.5,247.8c0,0.5-0.1,0.9-0.4,1.3c-0.3,0.3-0.8,0.7-1.5,1.1c-0.8,0.4-1.3,0.8-1.6,1.2
			c-0.1,0.2-0.2,0.3-0.3,0.5h3.8v0.9H5.7v0c0-0.7,0.2-1.3,0.6-1.8c0.4-0.5,1.1-1,2.1-1.5c0.5-0.3,0.8-0.5,1-0.8
			c0.2-0.2,0.3-0.5,0.3-0.9c0-0.4-0.1-0.7-0.4-0.9c-0.3-0.2-0.6-0.4-1-0.4c-0.4,0-0.8,0.1-1,0.4s-0.4,0.7-0.4,1.3H5.8
			c0-0.8,0.2-1.4,0.6-1.8c0.4-0.4,1-0.7,1.8-0.7c0.7,0,1.2,0.2,1.6,0.6C10.3,246.7,10.5,247.2,10.5,247.8z"/>
	</g>
	<g>
		<path class="st1" d="M5.6,225.4V225v-0.4l3.3-4.5h0.4h0.4v4.6h1v0.8h-1v1.7H8.7v-1.7H5.6z M8.7,224.7v-3.2l-2.2,3.1l0,0.1H8.7z"/>
	</g>
	<g>
		<path class="st1" d="M8.4,194.4c0.6,0,1.1,0.2,1.5,0.5c0.4,0.3,0.6,0.8,0.6,1.4H9.6c0-0.3-0.2-0.6-0.4-0.8s-0.5-0.3-0.8-0.3
			c-0.5,0-1,0.3-1.3,0.8c-0.3,0.4-0.4,1.1-0.4,1.8c0.4-0.6,1-0.8,1.7-0.8c0.7,0,1.2,0.2,1.6,0.6c0.4,0.4,0.6,1,0.6,1.7
			s-0.2,1.3-0.7,1.7s-1,0.6-1.7,0.6c-0.8,0-1.4-0.3-1.8-0.9c-0.4-0.6-0.6-1.4-0.6-2.5c0-1.2,0.2-2.2,0.7-2.8
			C6.9,194.7,7.5,194.4,8.4,194.4z M6.8,199.3c0,0.5,0.1,0.8,0.4,1.1s0.6,0.4,1,0.4s0.8-0.1,1-0.4s0.4-0.7,0.4-1.1s-0.1-0.8-0.4-1.1
			s-0.6-0.4-1-0.4s-0.8,0.1-1,0.4C6.9,198.5,6.8,198.8,6.8,199.3z"/>
	</g>
	<g>
		<path class="st1" d="M9.4,172c0.2,0.1,0.4,0.2,0.5,0.3c0.4,0.4,0.7,0.8,0.7,1.4c0,0.7-0.2,1.2-0.7,1.6s-1,0.6-1.7,0.6
			s-1.3-0.2-1.7-0.6s-0.7-0.9-0.7-1.6c0-0.6,0.2-1.1,0.7-1.4c0.2-0.1,0.3-0.2,0.5-0.3c-0.1-0.1-0.2-0.1-0.3-0.2
			c-0.4-0.3-0.6-0.7-0.6-1.2c0-0.6,0.2-1,0.6-1.4s0.9-0.5,1.6-0.5s1.2,0.2,1.6,0.5s0.6,0.8,0.6,1.4c0,0.5-0.2,0.9-0.6,1.2
			C9.6,171.9,9.5,172,9.4,172z M8.2,172.4c-0.4,0-0.8,0.1-1.1,0.4c-0.3,0.3-0.4,0.6-0.4,1c0,0.4,0.1,0.7,0.4,1s0.6,0.4,1.1,0.4
			s0.8-0.1,1.1-0.4s0.4-0.6,0.4-1c0-0.4-0.1-0.7-0.4-1C9,172.5,8.6,172.4,8.2,172.4z M8.2,171.7c0.4,0,0.7-0.1,0.9-0.3
			s0.3-0.5,0.3-0.8s-0.1-0.6-0.3-0.8s-0.5-0.3-0.9-0.3s-0.7,0.1-0.9,0.3S7,170.3,7,170.6s0.1,0.6,0.3,0.8
			C7.5,171.6,7.8,171.7,8.2,171.7z"/>
	</g>
	<g>
		<path class="st1" d="M2.7,145.1H1v-0.7c0.5,0,0.9-0.1,1.2-0.3c0.3-0.2,0.5-0.6,0.7-1h0.7v7H3.1H2.7V145.1z"/>
		<path class="st1" d="M6.6,149.3c-0.4-0.6-0.6-1.5-0.6-2.7s0.2-2,0.6-2.7c0.4-0.6,1-0.9,1.8-0.9c0.8,0,1.4,0.3,1.8,0.9
			c0.4,0.6,0.6,1.5,0.6,2.7s-0.2,2-0.6,2.7s-1,0.9-1.8,0.9C7.6,150.3,7,149.9,6.6,149.3z M9.5,148.8c0.2-0.5,0.4-1.2,0.4-2.1
			c0-0.9-0.1-1.6-0.4-2.1c-0.2-0.5-0.6-0.7-1.1-0.7c-0.5,0-0.9,0.2-1.1,0.7c-0.2,0.5-0.4,1.2-0.4,2.1c0,0.9,0.1,1.6,0.4,2.1
			s0.6,0.7,1.1,0.7C8.8,149.5,9.2,149.2,9.5,148.8z"/>
	</g>
	<g>
		<path class="st1" d="M2.7,119.4H1v-0.7c0.5,0,0.9-0.1,1.2-0.3c0.3-0.2,0.5-0.6,0.7-1h0.7v7H3.1H2.7V119.4z"/>
		<path class="st1" d="M10.6,119.4c0,0.5-0.1,0.9-0.4,1.3s-0.8,0.7-1.5,1.1c-0.8,0.4-1.3,0.8-1.6,1.2c-0.1,0.2-0.2,0.3-0.3,0.5h3.8
			v0.9H5.8v0c0-0.7,0.2-1.3,0.6-1.8s1.1-1,2.1-1.5c0.5-0.3,0.8-0.5,1-0.8c0.2-0.2,0.3-0.5,0.3-0.9c0-0.4-0.1-0.7-0.4-0.9
			s-0.6-0.4-1-0.4c-0.4,0-0.8,0.1-1,0.4c-0.2,0.3-0.4,0.7-0.4,1.3H6c0-0.8,0.2-1.4,0.6-1.8c0.4-0.4,1-0.7,1.8-0.7
			c0.7,0,1.2,0.2,1.6,0.6C10.4,118.3,10.6,118.8,10.6,119.4z"/>
	</g>
	<g>
		<path class="st1" d="M2.7,93.7H1V93c0.5,0,0.9-0.1,1.2-0.3c0.3-0.2,0.5-0.6,0.7-1h0.7v7H3.1H2.7V93.7z"/>
		<path class="st1" d="M5.8,97v-0.4v-0.4l3.3-4.5h0.4h0.4v4.6h1V97h-1v1.7H8.9V97H5.8z M8.9,96.3v-3.2l-2.2,3.1l0,0.1H8.9z"/>
	</g>
	<g>
		<path class="st1" d="M2.7,68H1v-0.7c0.5,0,0.9-0.1,1.2-0.3c0.3-0.2,0.5-0.6,0.7-1h0.7v7H3.1H2.7V68z"/>
		<path class="st1" d="M8.5,66c0.6,0,1.1,0.2,1.5,0.5c0.4,0.3,0.6,0.8,0.6,1.4H9.7c0-0.3-0.2-0.6-0.4-0.8c-0.2-0.2-0.5-0.3-0.8-0.3
			c-0.5,0-1,0.3-1.3,0.8C7,68,6.9,68.6,6.9,69.4c0.4-0.6,1-0.8,1.7-0.8c0.7,0,1.2,0.2,1.6,0.6s0.6,1,0.6,1.7s-0.2,1.3-0.7,1.7
			s-1,0.6-1.7,0.6c-0.8,0-1.4-0.3-1.8-0.9s-0.6-1.4-0.6-2.5c0-1.2,0.2-2.2,0.7-2.8C7.1,66.3,7.7,66,8.5,66z M7,70.9
			c0,0.5,0.1,0.8,0.4,1.1s0.6,0.4,1,0.4s0.8-0.1,1-0.4s0.4-0.7,0.4-1.1s-0.1-0.8-0.4-1.1s-0.6-0.4-1-0.4s-0.8,0.1-1,0.4
			C7.1,70.1,7,70.4,7,70.9z"/>
	</g>
	<g>
		<path class="st1" d="M2.7,42.4H1v-0.7c0.5,0,0.9-0.1,1.2-0.3c0.3-0.2,0.5-0.6,0.7-1h0.7v7H3.1H2.7V42.4z"/>
		<path class="st1" d="M9.6,43.6c0.2,0.1,0.4,0.2,0.5,0.3c0.4,0.4,0.7,0.8,0.7,1.4c0,0.7-0.2,1.2-0.7,1.6s-1,0.6-1.7,0.6
			S7,47.3,6.6,46.9S5.9,46,5.9,45.4c0-0.6,0.2-1.1,0.7-1.4c0.2-0.1,0.3-0.2,0.5-0.3c-0.1-0.1-0.2-0.1-0.3-0.2
			c-0.4-0.3-0.6-0.7-0.6-1.2c0-0.6,0.2-1,0.6-1.4s0.9-0.5,1.6-0.5s1.2,0.2,1.6,0.5s0.6,0.8,0.6,1.4c0,0.5-0.2,0.9-0.6,1.2
			C9.8,43.5,9.7,43.6,9.6,43.6z M8.3,44c-0.4,0-0.8,0.1-1.1,0.4s-0.4,0.6-0.4,1c0,0.4,0.1,0.7,0.4,1s0.6,0.4,1.1,0.4
			s0.8-0.1,1.1-0.4s0.4-0.6,0.4-1c0-0.4-0.1-0.7-0.4-1C9.1,44.2,8.8,44,8.3,44z M8.3,43.3c0.4,0,0.7-0.1,0.9-0.3s0.3-0.5,0.3-0.8
			s-0.1-0.6-0.3-0.8c-0.2-0.2-0.5-0.3-0.9-0.3s-0.7,0.1-0.9,0.3c-0.2,0.2-0.3,0.5-0.3,0.8s0.1,0.6,0.3,0.8C7.7,43.2,8,43.3,8.3,43.3
			z"/>
	</g>
	<g>
		<path class="st1" d="M5.1,16.7c0,0.5-0.1,0.9-0.4,1.3s-0.8,0.7-1.5,1.1c-0.8,0.4-1.3,0.8-1.6,1.2c-0.1,0.2-0.2,0.3-0.3,0.5h3.8
			v0.9H0.3v0c0-0.7,0.2-1.3,0.6-1.8s1.1-1,2.1-1.5c0.5-0.3,0.8-0.5,1-0.8c0.2-0.2,0.3-0.5,0.3-0.9c0-0.4-0.1-0.7-0.4-0.9
			s-0.6-0.4-1-0.4c-0.4,0-0.8,0.1-1,0.4c-0.2,0.3-0.4,0.7-0.4,1.3H0.4c0-0.8,0.2-1.4,0.6-1.8c0.4-0.4,1-0.7,1.8-0.7
			c0.7,0,1.2,0.2,1.6,0.6C4.9,15.6,5.1,16.1,5.1,16.7z"/>
		<path class="st1" d="M6.6,20.9c-0.4-0.6-0.6-1.5-0.6-2.7s0.2-2,0.6-2.7c0.4-0.6,1-0.9,1.8-0.9c0.8,0,1.4,0.3,1.8,0.9
			c0.4,0.6,0.6,1.5,0.6,2.7s-0.2,2-0.6,2.7s-1,0.9-1.8,0.9C7.6,21.9,7,21.5,6.6,20.9z M9.5,20.4c0.2-0.5,0.4-1.2,0.4-2.1
			c0-0.9-0.1-1.6-0.4-2.1c-0.2-0.5-0.6-0.7-1.1-0.7c-0.5,0-0.9,0.2-1.1,0.7c-0.2,0.5-0.4,1.2-0.4,2.1c0,0.9,0.1,1.6,0.4,2.1
			s0.6,0.7,1.1,0.7C8.8,21.1,9.2,20.8,9.5,20.4z"/>
	</g>
	<g>
		<path class="st3" d="M70.2,5.1h5.6v1.4h-4v1.8h3.5v1.4h-3.5V13h-1.6V5.1z"/>
		<path class="st3" d="M82.7,5v1.4h-2.4V13h-1.7V6.5h-2.4V5H82.7z"/>
		<path class="st3" d="M88.3,5.2c0.6,0.2,1,0.5,1.3,1c0.3,0.4,0.5,0.8,0.6,1.3c0.1,0.5,0.2,0.9,0.2,1.3c0,1.1-0.2,1.9-0.6,2.7
			c-0.6,1-1.5,1.5-2.7,1.5h-3.4V5h3.4C87.6,5.1,88,5.1,88.3,5.2z M85.3,6.4v5.2h1.5c0.8,0,1.3-0.4,1.6-1.2c0.2-0.4,0.3-0.9,0.3-1.5
			c0-0.8-0.1-1.4-0.4-1.9c-0.3-0.4-0.8-0.6-1.5-0.6H85.3z"/>
		<path class="st3" d="M96.1,5v8h-1.4V5H96.1z"/>
		<path class="st3" d="M99,13h-1.9l2.5-4L97.2,5h2l1.4,2.6l1.5-2.6h1.9l-2.4,3.8l2.6,4.1h-2l-1.5-2.7L99,13z"/>
		<path class="st3" d="M105.3,7c0.3-0.6,0.5-1.1,0.8-1.5l0.4-0.5l0.9,0c-0.5,0.9-0.8,1.6-1,2.2C106.1,8,106,9,106,10
			c0,0.7,0.1,1.3,0.2,1.9c0.2,0.9,0.5,1.8,0.9,2.6l0.3,0.6h-0.9c-0.6-0.8-1-1.6-1.3-2.3c-0.4-0.9-0.5-1.8-0.5-2.7
			C104.6,9.1,104.9,8,105.3,7z"/>
		<path class="st3" d="M112.4,7.2c0.4,0.2,0.7,0.5,1,0.9c0.2,0.3,0.4,0.8,0.5,1.2c0,0.3,0.1,0.7,0.1,1.2h-4.3c0,0.6,0.2,1,0.6,1.2
			c0.2,0.1,0.5,0.2,0.8,0.2c0.3,0,0.6-0.1,0.9-0.3c0.1-0.1,0.2-0.2,0.3-0.4h1.6c0,0.3-0.2,0.7-0.6,1.1c-0.5,0.6-1.3,0.9-2.2,0.9
			c-0.8,0-1.5-0.2-2.1-0.7c-0.6-0.5-0.9-1.3-0.9-2.3c0-1,0.3-1.8,0.8-2.3c0.5-0.5,1.2-0.8,2.1-0.8C111.6,7,112,7,112.4,7.2z
			 M110.2,8.6c-0.2,0.2-0.4,0.5-0.4,0.9h2.6c0-0.4-0.2-0.7-0.4-0.9c-0.2-0.2-0.5-0.3-0.9-0.3C110.7,8.2,110.4,8.3,110.2,8.6z"/>
	</g>
	<g>
		<path class="st3" d="M114.4,8.5c0.1,0,0.1,0,0.1,0c0,0,0.1,0,0.1,0c0.1,0,0.2,0,0.3-0.1C115,8.3,115,8.2,115,8V2.9h1.2v5.2
			c0,0.5-0.1,0.8-0.3,1c-0.2,0.2-0.6,0.3-1.1,0.3c0,0-0.1,0-0.2,0s-0.2,0-0.3,0V8.5z M116.3,2.3H115V1.2h1.2V2.3z"/>
	</g>
	<path d="M121.3,7.7c-0.3,0-0.5-0.1-0.7-0.3c-0.2-0.2-0.3-0.4-0.3-0.7s-0.1-0.6-0.1-0.8v0c0-0.3,0-0.6,0.1-0.9
		c0.1-0.3,0.1-0.6,0.2-1c0.1-0.3,0.2-0.6,0.4-0.9c0.1-0.2,0.2-0.4,0.3-0.6c0.1-0.2,0.3-0.4,0.5-0.6c0.2-0.2,0.4-0.3,0.6-0.5
		s0.4-0.2,0.6-0.2h0c0.6,0,1,0.1,1.1,0.2c0.1,0.1,0.3,0.3,0.3,0.5c0.1,0.2,0.1,0.4,0.2,0.6c0,0.2,0.1,0.4,0.1,0.6
		c0,0.5-0.1,0.9-0.2,1.4c-0.1,0.5-0.3,0.9-0.5,1.4c-0.1,0.2-0.2,0.4-0.3,0.6c-0.1,0.2-0.3,0.4-0.5,0.6c-0.2,0.2-0.3,0.3-0.5,0.5
		C122.3,7.6,121.9,7.7,121.3,7.7L121.3,7.7L121.3,7.7z M121.4,7.4c0.1,0,0.3-0.1,0.5-0.3c0.2-0.2,0.3-0.5,0.5-0.8s0.3-0.6,0.4-0.9
		c0.1-0.3,0.2-0.6,0.2-0.8h-1.2c-0.1,0.4-0.2,0.7-0.2,1c-0.1,0.3-0.1,0.5-0.1,0.8C121.4,7.1,121.4,7.4,121.4,7.4L121.4,7.4z
		 M121.8,4.3h1.2c0.1-0.3,0.1-0.5,0.2-0.7c0-0.2,0.1-0.4,0.1-0.6c0-0.2,0-0.4,0-0.6c0-0.7-0.2-1.1-0.5-1.1c0,0-0.1,0.3-0.4,0.9
		C122.1,3,121.9,3.6,121.8,4.3L121.8,4.3z"/>
	<g>
		<path class="st3" d="M127.1,7c0.4,1,0.6,1.9,0.6,2.9c0,1.1-0.2,2.2-0.7,3.3c-0.3,0.6-0.5,1.1-0.8,1.4l-0.4,0.5h-1.1
			c0.5-0.9,0.8-1.6,1-2.1c0.3-0.9,0.5-1.9,0.5-3c0-0.7-0.1-1.3-0.2-1.9c-0.2-0.9-0.5-1.8-0.9-2.6l-0.3-0.6h1.2
			C126.4,5.7,126.9,6.4,127.1,7z"/>
		<path class="st3" d="M130.6,5v8h-1.4V5H130.6z"/>
		<path class="st3" d="M137.4,9.4c0.3,0,0.5-0.1,0.6-0.1c0.2-0.1,0.3-0.2,0.3-0.4c0-0.2-0.1-0.4-0.3-0.5c-0.2-0.1-0.4-0.1-0.7-0.1
			c-0.4,0-0.6,0.1-0.8,0.3c-0.1,0.1-0.2,0.3-0.2,0.5h-1.5c0-0.5,0.2-0.9,0.4-1.3c0.4-0.5,1.1-0.8,2.1-0.8c0.6,0,1.2,0.1,1.7,0.4
			c0.5,0.3,0.8,0.7,0.8,1.4v2.7c0,0.2,0,0.4,0,0.7c0,0.2,0,0.3,0.1,0.4c0,0.1,0.1,0.1,0.2,0.2V13h-1.7c0-0.1-0.1-0.2-0.1-0.3
			c0-0.1,0-0.2,0-0.4c-0.2,0.2-0.5,0.4-0.7,0.6c-0.3,0.2-0.7,0.3-1.1,0.3c-0.5,0-1-0.2-1.3-0.5c-0.3-0.3-0.5-0.7-0.5-1.3
			c0-0.7,0.3-1.2,0.8-1.6c0.3-0.2,0.8-0.3,1.4-0.4L137.4,9.4z M138.4,10.1c-0.1,0.1-0.2,0.1-0.3,0.1c-0.1,0-0.2,0.1-0.4,0.1
			l-0.3,0.1c-0.3,0.1-0.6,0.1-0.7,0.2c-0.2,0.1-0.4,0.4-0.4,0.6c0,0.3,0.1,0.5,0.2,0.6c0.1,0.1,0.3,0.2,0.5,0.2
			c0.3,0,0.6-0.1,0.9-0.3c0.3-0.2,0.4-0.5,0.4-1.1V10.1z"/>
		<path class="st3" d="M146,7.4c0.4,0.3,0.6,0.8,0.6,1.6V13H145V9.4c0-0.3,0-0.5-0.1-0.7c-0.1-0.3-0.4-0.5-0.9-0.5
			c-0.5,0-0.9,0.2-1.1,0.7c-0.1,0.2-0.1,0.5-0.1,0.9V13h-1.5V7.1h1.5V8c0.2-0.3,0.4-0.5,0.6-0.6c0.3-0.2,0.7-0.4,1.2-0.4
			C145.1,7,145.6,7.1,146,7.4z"/>
		<path class="st3" d="M151.1,7.2c0.3,0.2,0.5,0.4,0.7,0.6V5.1h1.6V13h-1.5v-0.8c-0.2,0.3-0.5,0.6-0.7,0.8s-0.6,0.2-1,0.2
			c-0.7,0-1.3-0.3-1.7-0.8s-0.7-1.3-0.7-2.1c0-1,0.2-1.8,0.7-2.4c0.5-0.6,1.1-0.9,1.8-0.9C150.5,7,150.8,7.1,151.1,7.2z M151.4,11.4
			c0.2-0.3,0.3-0.7,0.3-1.3c0-0.7-0.2-1.2-0.5-1.5c-0.2-0.2-0.5-0.3-0.8-0.3c-0.4,0-0.8,0.2-1,0.5s-0.3,0.8-0.3,1.3
			c0,0.5,0.1,1,0.3,1.3c0.2,0.3,0.5,0.5,1,0.5S151.2,11.7,151.4,11.4z"/>
		<path class="st3" d="M162.5,5.2c0.6,0.2,1,0.5,1.3,1c0.3,0.4,0.5,0.8,0.6,1.3c0.1,0.5,0.2,0.9,0.2,1.3c0,1.1-0.2,1.9-0.6,2.7
			c-0.6,1-1.5,1.5-2.7,1.5h-3.4V5h3.4C161.8,5.1,162.2,5.1,162.5,5.2z M159.5,6.4v5.2h1.5c0.8,0,1.3-0.4,1.6-1.2
			c0.2-0.4,0.3-0.9,0.3-1.5c0-0.8-0.1-1.4-0.4-1.9c-0.3-0.4-0.8-0.6-1.5-0.6H159.5z"/>
		<path class="st3" d="M165.8,5.1h5.6v1.4h-4v1.8h3.5v1.4h-3.5V13h-1.6V5.1z"/>
		<path class="st3" d="M178.3,5v1.4h-2.4V13h-1.7V6.5h-2.4V5H178.3z"/>
		<path class="st3" d="M183.7,13h-1.5V5h1.5V13z"/>
		<path class="st3" d="M189,7.2c0.4,0.2,0.7,0.5,1,0.9c0.2,0.3,0.4,0.8,0.5,1.2c0,0.3,0.1,0.7,0,1.2h-4.3c0,0.6,0.2,1,0.6,1.2
			c0.2,0.1,0.5,0.2,0.8,0.2c0.3,0,0.6-0.1,0.8-0.3c0.1-0.1,0.2-0.2,0.3-0.4h1.6c0,0.3-0.2,0.7-0.6,1.1c-0.5,0.6-1.3,0.9-2.2,0.9
			c-0.8,0-1.5-0.2-2.1-0.7c-0.6-0.5-0.9-1.3-0.9-2.3c0-1,0.3-1.8,0.8-2.3c0.5-0.5,1.2-0.8,2.1-0.8C188.2,7,188.6,7,189,7.2z
			 M186.7,8.6c-0.2,0.2-0.4,0.5-0.4,0.9h2.6c0-0.4-0.2-0.7-0.4-0.9c-0.2-0.2-0.5-0.3-0.9-0.3C187.3,8.2,187,8.3,186.7,8.6z"/>
		<path class="st3" d="M196.1,7.4c0.4,0.3,0.6,0.8,0.6,1.6V13h-1.6V9.4c0-0.3,0-0.5-0.1-0.7c-0.1-0.3-0.4-0.5-0.9-0.5
			c-0.5,0-0.9,0.2-1.1,0.7c-0.1,0.2-0.1,0.5-0.1,0.9V13h-1.5V7.1h1.5V8c0.2-0.3,0.4-0.5,0.6-0.6c0.3-0.2,0.7-0.4,1.2-0.4
			C195.2,7,195.7,7.1,196.1,7.4z"/>
		<path class="st3" d="M201,7.1c0.4,0.2,0.7,0.4,0.9,0.8V7.1h1.5v5.6c0,0.8-0.1,1.3-0.4,1.7c-0.4,0.7-1.3,1-2.5,1
			c-0.7,0-1.4-0.1-1.8-0.4s-0.7-0.7-0.8-1.3h1.7c0,0.2,0.1,0.3,0.2,0.4c0.2,0.1,0.4,0.2,0.8,0.2c0.6,0,0.9-0.2,1.1-0.6
			c0.1-0.2,0.2-0.6,0.2-1.2v-0.4c-0.1,0.3-0.3,0.4-0.5,0.6c-0.3,0.2-0.7,0.3-1.2,0.3c-0.8,0-1.4-0.3-1.8-0.8
			c-0.4-0.5-0.7-1.2-0.7-2.1c0-0.9,0.2-1.6,0.6-2.2c0.4-0.6,1-0.9,1.8-0.9C200.5,7,200.7,7,201,7.1z M201.5,11.3
			c0.2-0.3,0.4-0.7,0.4-1.3c0-0.6-0.1-1-0.4-1.3s-0.5-0.4-0.9-0.4c-0.5,0-0.9,0.3-1.1,0.8c-0.1,0.3-0.2,0.6-0.2,1
			c0,0.3,0.1,0.6,0.2,0.9c0.2,0.5,0.6,0.7,1.1,0.7C200.9,11.7,201.2,11.6,201.5,11.3z"/>
		<path class="st3" d="M204.2,8.3V7.2h0.8V5.5h1.5v1.6h1v1.1h-1v3.1c0,0.2,0,0.4,0.1,0.4s0.2,0.1,0.6,0.1c0,0,0.1,0,0.1,0
			c0.1,0,0.1,0,0.2,0V13l-0.7,0c-0.7,0-1.2-0.1-1.5-0.4c-0.2-0.2-0.3-0.4-0.3-0.8V8.3H204.2z"/>
		<path class="st3" d="M212.6,7.1c0.3,0.1,0.5,0.3,0.7,0.6c0.2,0.2,0.3,0.4,0.3,0.7c0,0.2,0.1,0.6,0.1,1.1V13h-1.6V9.4
			c0-0.3-0.1-0.6-0.2-0.8c-0.1-0.3-0.4-0.4-0.8-0.4c-0.4,0-0.7,0.1-0.9,0.4c-0.2,0.3-0.3,0.7-0.3,1.2V13h-1.5V5.1h1.5v2.8
			c0.2-0.3,0.5-0.6,0.8-0.7C211,7,211.3,7,211.7,7C212,7,212.3,7,212.6,7.1z"/>
	</g>
	<g>
		<path class="st4" d="M219.9,5v8h-1.4V5H219.9z"/>
		<path class="st4" d="M222.8,13h-1.9l2.5-4L221,5h2l1.4,2.6l1.5-2.6h1.9l-2.4,3.8l2.6,4.1h-2l-1.5-2.7L222.8,13z"/>
		<path class="st4" d="M228.7,5h2.7v1.1h-1.2V14h1.2v1.1h-2.7V5z"/>
		<path class="st4" d="M232.4,5.1h1.5v4.3l1.9-2.2h1.9l-2.1,2.2l2.2,3.6h-1.9l-1.4-2.5l-0.6,0.7V13h-1.5V5.1z"/>
		<path class="st4" d="M238,14h1.2V6.1H238V5h2.7v10.1H238V14z"/>
		<path class="st4" d="M243.8,5v8h-1.4V5H243.8z"/>
	</g>
	<g>
		<path class="st3" d="M245.8,7.3h1.6v1.6h-1.6V7.3z M245.8,11.4h1.6V13h-1.6V11.4z"/>
		<path class="st3" d="M252.1,5h1.7l3.1,5.5V5h1.5V13h-1.7l-3.2-5.6V13h-1.5V5z"/>
		<path class="st3" d="M265.4,8.1v1.4h-5.8V8.1H265.4z M265.4,10.6V12h-5.8v-1.4H265.4z"/>
		<path class="st3" d="M271.8,5h2.4V13h-1.5V7.6c0-0.2,0-0.4,0-0.6c0-0.3,0-0.5,0-0.6l-1.5,6.6h-1.6L268,6.3c0,0.2,0,0.4,0,0.6
			c0,0.3,0,0.5,0,0.6V13h-1.5V5h2.4l1.4,6.2L271.8,5z"/>
		<path class="st3" d="M281,8.1v1.4h-5.8V8.1H281z M281,10.6V12h-5.8v-1.4H281z"/>
		<path class="st3" d="M281.9,9.6c0.2-0.4,0.5-0.6,0.9-0.8c-0.4-0.3-0.6-0.5-0.7-0.8c-0.1-0.3-0.2-0.6-0.2-0.8c0-0.6,0.2-1,0.6-1.4
			s1-0.6,1.8-0.6c0.8,0,1.4,0.2,1.8,0.6s0.6,0.9,0.6,1.4c0,0.3-0.1,0.5-0.2,0.8c-0.1,0.3-0.4,0.5-0.7,0.8c0.4,0.2,0.7,0.5,0.9,0.9
			c0.2,0.4,0.3,0.8,0.3,1.2c0,0.7-0.2,1.2-0.7,1.7c-0.5,0.5-1.2,0.7-2,0.7s-1.5-0.2-2-0.7c-0.4-0.5-0.7-1-0.7-1.7
			C281.6,10.4,281.7,10,281.9,9.6z M283.5,11.6c0.2,0.2,0.5,0.3,0.8,0.3c0.4,0,0.6-0.1,0.8-0.3c0.2-0.2,0.3-0.5,0.3-0.9
			c0-0.4-0.1-0.7-0.3-0.9c-0.2-0.2-0.5-0.3-0.8-0.3s-0.6,0.1-0.8,0.3c-0.2,0.2-0.3,0.5-0.3,0.9C283.2,11.1,283.3,11.4,283.5,11.6z
			 M283.5,8.1c0.2,0.2,0.4,0.3,0.7,0.3c0.3,0,0.6-0.1,0.7-0.3c0.2-0.2,0.3-0.4,0.3-0.7c0-0.3-0.1-0.5-0.3-0.7
			c-0.2-0.2-0.4-0.3-0.7-0.3c-0.3,0-0.6,0.1-0.7,0.3s-0.3,0.4-0.3,0.7C283.3,7.6,283.4,7.9,283.5,8.1z"/>
	</g>
	<line class="st5" x1="15.4" y1="274.6" x2="341.2" y2="274.6"/>
	<polyline class="st6" points="15.4,17.8 15.8,17.8 16.2,17.9 16.6,18 17,18.2 17.4,18.4 17.8,18.7 18.3,19 18.7,19.4 19.1,19.8 
		19.5,20.3 19.9,20.9 20.3,21.5 20.7,22.1 21.1,22.8 21.5,23.5 21.9,24.3 22.3,25.1 22.7,26 23.1,26.9 23.5,27.9 24,28.9 24.4,30 
		24.8,31.1 25.2,32.3 25.6,33.5 26,34.7 26.4,36 26.8,37.3 27.2,38.7 27.6,40.1 28,41.6 28.4,43.1 28.8,44.6 29.3,46.2 29.7,47.8 
		30.1,49.5 30.5,51.2 30.9,52.9 31.3,54.7 31.7,56.5 32.1,58.3 32.5,60.2 32.9,62.1 33.3,64 33.7,66 34.1,68 34.5,70 35,72 
		35.4,74.1 35.8,76.2 36.2,78.3 36.6,80.5 37,82.7 37.4,84.9 37.8,87.1 38.2,89.3 38.6,91.6 39,93.9 39.4,96.2 39.8,98.5 
		40.2,100.8 40.7,103.1 41.1,105.5 41.5,107.9 41.9,110.2 42.3,112.6 42.7,115 43.1,117.4 43.5,119.9 43.9,122.3 44.3,124.7 
		44.7,127.1 45.1,129.6 45.5,132 45.9,134.5 46.4,136.9 46.8,139.4 47.2,141.8 47.6,144.2 48,146.7 48.4,149.1 48.8,151.6 49.2,154 
		49.6,156.4 50,158.8 50.4,161.2 50.8,163.6 51.2,166 51.7,168.4 52.1,170.7 52.5,173.1 52.9,175.4 53.3,177.8 53.7,180.1 
		54.1,182.4 54.5,184.6 54.9,186.9 55.3,189.1 55.7,191.4 56.1,193.6 56.5,195.7 56.9,197.9 57.4,200.1 57.8,202.2 58.2,204.3 
		58.6,206.3 59,208.4 59.4,210.4 59.8,212.4 60.2,214.4 60.6,216.4 61,218.3 61.4,220.2 61.8,222 62.2,223.9 62.6,225.7 63.1,227.5 
		63.5,229.2 63.9,231 64.3,232.7 64.7,234.3 65.1,236 65.5,237.6 65.9,239.2 66.3,240.7 66.7,242.2 67.1,243.7 67.5,245.1 
		67.9,246.6 68.3,247.9 68.8,249.3 69.2,250.6 69.6,251.9 70,253.2 70.4,254.4 70.8,255.6 71.2,256.7 71.6,257.9 72,258.9 72.4,260 
		72.8,261 73.2,262 73.6,263 74,263.9 74.5,264.8 74.9,265.7 75.3,266.5 75.7,267.3 76.1,268.1 76.5,268.8 76.9,269.5 77.3,270.2 
		77.7,270.9 78.1,271.5 78.5,272.1 78.9,272.6 79.3,273.2 79.7,273.7 80.2,274.1 80.6,274.6 81,274.1 81.4,273.8 81.8,273.4 
		82.2,273.1 82.6,272.8 83,272.5 83.4,272.2 83.8,272 84.2,271.8 84.6,271.6 85,271.4 85.5,271.3 85.9,271.2 86.3,271.1 86.7,271 
		87.1,271 87.5,270.9 87.9,270.9 88.3,270.9 88.7,271 89.1,271 89.5,271.1 89.9,271.2 90.3,271.2 90.7,271.4 91.2,271.5 91.6,271.6 
		92,271.8 92.4,272 92.8,272.1 93.2,272.3 93.6,272.5 94,272.8 94.4,273 94.8,273.2 95.2,273.5 95.6,273.7 96,274 96.4,274.3 
		96.9,274.6 97.3,274.3 97.7,274 98.1,273.7 98.5,273.4 98.9,273.1 99.3,272.8 99.7,272.4 100.1,272.1 100.5,271.8 100.9,271.5 
		101.3,271.1 101.7,270.8 102.1,270.5 102.6,270.2 103,269.8 103.4,269.5 103.8,269.2 104.2,268.9 104.6,268.5 105,268.2 
		105.4,267.9 105.8,267.6 106.2,267.3 106.6,267 107,266.7 107.4,266.4 107.9,266.1 108.3,265.8 108.7,265.6 109.1,265.3 109.5,265 
		109.9,264.8 110.3,264.5 110.7,264.3 111.1,264.1 111.5,263.8 111.9,263.6 112.3,263.4 112.7,263.2 113.1,263 113.6,262.9 
		114,262.7 114.4,262.5 114.8,262.4 115.2,262.2 115.6,262.1 116,262 116.4,261.9 116.8,261.8 117.2,261.7 117.6,261.6 118,261.5 
		118.4,261.5 118.8,261.4 119.3,261.4 119.7,261.4 120.1,261.3 120.5,261.3 120.9,261.3 121.3,261.4 121.7,261.4 122.1,261.4 
		122.5,261.5 122.9,261.5 123.3,261.6 123.7,261.7 124.1,261.8 124.5,261.8 125,262 125.4,262.1 125.8,262.2 126.2,262.3 
		126.6,262.5 127,262.6 127.4,262.8 127.8,262.9 128.2,263.1 128.6,263.3 129,263.5 129.4,263.7 129.8,263.9 130.2,264.1 
		130.7,264.3 131.1,264.5 131.5,264.8 131.9,265 132.3,265.3 132.7,265.5 133.1,265.8 133.5,266 133.9,266.3 134.3,266.6 
		134.7,266.8 135.1,267.1 135.5,267.4 136,267.7 136.4,267.9 136.8,268.2 137.2,268.5 137.6,268.8 138,269.1 138.4,269.4 
		138.8,269.7 139.2,270 139.6,270.3 140,270.6 140.4,270.9 140.8,271.2 141.2,271.5 141.7,271.8 142.1,272 142.5,272.3 142.9,272.6 
		143.3,272.9 143.7,273.2 144.1,273.5 144.5,273.8 144.9,274 145.3,274.3 145.7,274.6 146.1,274.3 146.5,274 146.9,273.8 
		147.4,273.5 147.8,273.3 148.2,273.1 148.6,272.8 149,272.6 149.4,272.4 149.8,272.2 150.2,271.9 150.6,271.7 151,271.5 
		151.4,271.4 151.8,271.2 152.2,271 152.6,270.8 153.1,270.7 153.5,270.5 153.9,270.4 154.3,270.2 154.7,270.1 155.1,270 
		155.5,269.8 155.9,269.7 156.3,269.6 156.7,269.5 157.1,269.5 157.5,269.4 157.9,269.3 158.3,269.3 158.8,269.2 159.2,269.2 
		159.6,269.1 160,269.1 160.4,269.1 160.8,269.1 161.2,269.1 161.6,269.1 162,269.1 162.4,269.1 162.8,269.1 163.2,269.2 
		163.6,269.2 164.1,269.3 164.5,269.3 164.9,269.4 165.3,269.5 165.7,269.6 166.1,269.7 166.5,269.7 166.9,269.8 167.3,270 
		167.7,270.1 168.1,270.2 168.5,270.3 168.9,270.4 169.3,270.6 169.8,270.7 170.2,270.9 170.6,271 171,271.2 171.4,271.3 
		171.8,271.5 172.2,271.7 172.6,271.9 173,272 173.4,272.2 173.8,272.4 174.2,272.6 174.6,272.8 175,273 175.5,273.2 175.9,273.4 
		176.3,273.6 176.7,273.8 177.1,274 177.5,274.2 177.9,274.4 178.3,274.6 178.7,274.4 179.1,274.2 179.5,274 179.9,273.8 
		180.3,273.6 180.7,273.4 181.2,273.2 181.6,273 182,272.8 182.4,272.6 182.8,272.4 183.2,272.2 183.6,272 184,271.9 184.4,271.7 
		184.8,271.5 185.2,271.3 185.6,271.2 186,271 186.4,270.9 186.9,270.7 187.3,270.6 187.7,270.4 188.1,270.3 188.5,270.2 
		188.9,270.1 189.3,270 189.7,269.8 190.1,269.7 190.5,269.7 190.9,269.6 191.3,269.5 191.7,269.4 192.2,269.3 192.6,269.3 
		193,269.2 193.4,269.2 193.8,269.1 194.2,269.1 194.6,269.1 195,269.1 195.4,269.1 195.8,269.1 196.2,269.1 196.6,269.1 197,269.1 
		197.4,269.2 197.9,269.2 198.3,269.3 198.7,269.3 199.1,269.4 199.5,269.5 199.9,269.5 200.3,269.6 200.7,269.7 201.1,269.8 
		201.5,270 201.9,270.1 202.3,270.2 202.7,270.4 203.1,270.5 203.6,270.7 204,270.8 204.4,271 204.8,271.2 205.2,271.4 205.6,271.5 
		206,271.7 206.4,271.9 206.8,272.2 207.2,272.4 207.6,272.6 208,272.8 208.4,273.1 208.8,273.3 209.3,273.5 209.7,273.8 210.1,274 
		210.5,274.3 210.9,274.6 211.3,274.3 211.7,274 212.1,273.8 212.5,273.5 212.9,273.2 213.3,272.9 213.7,272.6 214.1,272.3 
		214.6,272 215,271.8 215.4,271.5 215.8,271.2 216.2,270.9 216.6,270.6 217,270.3 217.4,270 217.8,269.7 218.2,269.4 218.6,269.1 
		219,268.8 219.4,268.5 219.8,268.2 220.3,267.9 220.7,267.7 221.1,267.4 221.5,267.1 221.9,266.8 222.3,266.6 222.7,266.3 
		223.1,266 223.5,265.8 223.9,265.5 224.3,265.3 224.7,265 225.1,264.8 225.5,264.5 226,264.3 226.4,264.1 226.8,263.9 227.2,263.7 
		227.6,263.5 228,263.3 228.4,263.1 228.8,262.9 229.2,262.8 229.6,262.6 230,262.5 230.4,262.3 230.8,262.2 231.2,262.1 231.7,262 
		232.1,261.8 232.5,261.8 232.9,261.7 233.3,261.6 233.7,261.5 234.1,261.5 234.5,261.4 234.9,261.4 235.3,261.4 235.7,261.3 
		236.1,261.3 236.5,261.3 236.9,261.4 237.4,261.4 237.8,261.4 238.2,261.5 238.6,261.5 239,261.6 239.4,261.7 239.8,261.8 
		240.2,261.9 240.6,262 241,262.1 241.4,262.2 241.8,262.4 242.2,262.5 242.6,262.7 243.1,262.9 243.5,263 243.9,263.2 244.3,263.4 
		244.7,263.6 245.1,263.8 245.5,264.1 245.9,264.3 246.3,264.5 246.7,264.8 247.1,265 247.5,265.3 247.9,265.6 248.4,265.8 
		248.8,266.1 249.2,266.4 249.6,266.7 250,267 250.4,267.3 250.8,267.6 251.2,267.9 251.6,268.2 252,268.5 252.4,268.9 252.8,269.2 
		253.2,269.5 253.6,269.8 254.1,270.2 254.5,270.5 254.9,270.8 255.3,271.1 255.7,271.5 256.1,271.8 256.5,272.1 256.9,272.4 
		257.3,272.8 257.7,273.1 258.1,273.4 258.5,273.7 258.9,274 259.3,274.3 259.8,274.6 260.2,274.3 260.6,274 261,273.7 261.4,273.5 
		261.8,273.2 262.2,273 262.6,272.8 263,272.5 263.4,272.3 263.8,272.1 264.2,272 264.6,271.8 265,271.6 265.5,271.5 265.9,271.4 
		266.3,271.2 266.7,271.2 267.1,271.1 267.5,271 267.9,271 268.3,270.9 268.7,270.9 269.1,270.9 269.5,271 269.9,271 270.3,271.1 
		270.8,271.2 271.2,271.3 271.6,271.4 272,271.6 272.4,271.8 272.8,272 273.2,272.2 273.6,272.5 274,272.8 274.4,273.1 274.8,273.4 
		275.2,273.8 275.6,274.1 276,274.6 276.5,274.1 276.9,273.7 277.3,273.2 277.7,272.6 278.1,272.1 278.5,271.5 278.9,270.9 
		279.3,270.2 279.7,269.5 280.1,268.8 280.5,268.1 280.9,267.3 281.3,266.5 281.7,265.7 282.2,264.8 282.6,263.9 283,263 283.4,262 
		283.8,261 284.2,260 284.6,258.9 285,257.9 285.4,256.7 285.8,255.6 286.2,254.4 286.6,253.2 287,251.9 287.4,250.6 287.9,249.3 
		288.3,247.9 288.7,246.6 289.1,245.1 289.5,243.7 289.9,242.2 290.3,240.7 290.7,239.2 291.1,237.6 291.5,236 291.9,234.3 
		292.3,232.7 292.7,231 293.1,229.2 293.6,227.5 294,225.7 294.4,223.9 294.8,222 295.2,220.2 295.6,218.3 296,216.4 296.4,214.4 
		296.8,212.4 297.2,210.4 297.6,208.4 298,206.3 298.4,204.3 298.9,202.2 299.3,200.1 299.7,197.9 300.1,195.7 300.5,193.6 
		300.9,191.4 301.3,189.1 301.7,186.9 302.1,184.6 302.5,182.4 302.9,180.1 303.3,177.8 303.7,175.4 304.1,173.1 304.6,170.7 
		305,168.4 305.4,166 305.8,163.6 306.2,161.2 306.6,158.8 307,156.4 307.4,154 307.8,151.6 308.2,149.1 308.6,146.7 309,144.2 
		309.4,141.8 309.8,139.4 310.3,136.9 310.7,134.5 311.1,132 311.5,129.6 311.9,127.1 312.3,124.7 312.7,122.3 313.1,119.9 
		313.5,117.4 313.9,115 314.3,112.6 314.7,110.2 315.1,107.9 315.5,105.5 316,103.1 316.4,100.8 316.8,98.5 317.2,96.2 317.6,93.9 
		318,91.6 318.4,89.3 318.8,87.1 319.2,84.9 319.6,82.7 320,80.5 320.4,78.3 320.8,76.2 321.2,74.1 321.7,72 322.1,70 322.5,68 
		322.9,66 323.3,64 323.7,62.1 324.1,60.2 324.5,58.3 324.9,56.5 325.3,54.7 325.7,52.9 326.1,51.2 326.5,49.5 327,47.8 327.4,46.2 
		327.8,44.6 328.2,43.1 328.6,41.6 329,40.1 329.4,38.7 329.8,37.3 330.2,36 330.6,34.7 331,33.5 331.4,32.3 331.8,31.1 332.2,30 
		332.7,28.9 333.1,27.9 333.5,26.9 333.9,26 334.3,25.1 334.7,24.3 335.1,23.5 335.5,22.8 335.9,22.1 336.3,21.5 336.7,20.9 
		337.1,20.3 337.5,19.8 337.9,19.4 338.4,19 338.8,18.7 339.2,18.4 339.6,18.2 340,18 340.4,17.9 340.8,17.8 	"/>
	<path class="st7" d="M18.4,17.8c0-1.7-1.3-3-3-3s-3,1.3-3,3c0,1.7,1.3,3,3,3S18.4,19.4,18.4,17.8 M59.1,193.6c0-1.7-1.3-3-3-3
		c-1.7,0-3,1.3-3,3s1.3,3,3,3C57.8,196.6,59.1,195.2,59.1,193.6 M99.9,274.6c0-1.7-1.3-3-3-3c-1.7,0-3,1.3-3,3s1.3,3,3,3
		C98.5,277.6,99.9,276.2,99.9,274.6 M140.6,268.8c0-1.7-1.3-3-3-3s-3,1.3-3,3s1.3,3,3,3S140.6,270.5,140.6,268.8 M181.3,274.6
		c0-1.7-1.3-3-3-3s-3,1.3-3,3s1.3,3,3,3S181.3,276.2,181.3,274.6 M222,268.8c0-1.7-1.3-3-3-3c-1.7,0-3,1.3-3,3s1.3,3,3,3
		C220.7,271.8,222,270.5,222,268.8 M262.8,274.6c0-1.7-1.3-3-3-3c-1.7,0-3,1.3-3,3s1.3,3,3,3C261.4,277.6,262.8,276.2,262.8,274.6
		 M303.5,193.6c0-1.7-1.3-3-3-3c-1.7,0-3,1.3-3,3s1.3,3,3,3C302.1,196.6,303.5,195.2,303.5,193.6"/>
	<path class="st8" d="M15.4,274.6V17.8 M56.1,274.6v-81 M96.9,274.6L96.9,274.6 M137.6,274.6v-5.8 M178.3,274.6L178.3,274.6
		 M219,274.6v-5.8 M259.8,274.6L259.8,274.6 M300.5,274.6v-81"/>
</g>
</svg>
