<?xml version="1.0" encoding="utf-8"?>
<!-- Generator: Adobe Illustrator 22.1.0, SVG Export Plug-In . SVG Version: 6.00 Build 0)  -->
<svg version="1.1" id="Layer_1" xmlns="http://www.w3.org/2000/svg" xmlns:xlink="http://www.w3.org/1999/xlink" x="0px" y="0px"
	 viewBox="0 0 409.2 304.3" style="enable-background:new 0 0 409.2 304.3;" xml:space="preserve">
<style type="text/css">
	.st0{fill:#FFFFFF;}
	.st1{fill:none;stroke:#DFDFDF;stroke-width:0.5002;stroke-linejoin:round;stroke-miterlimit:10;}
	.st2{fill:none;stroke:#262626;stroke-width:0.5002;stroke-linecap:square;stroke-linejoin:round;stroke-miterlimit:10;}
	.st3{fill:#4A4A49;}
	.st4{fill:#1D1D1B;}
	.st5{fill:none;stroke:#262626;stroke-width:0.5002;stroke-linejoin:round;stroke-miterlimit:10;}
	.st6{fill:none;stroke:#FF0000;stroke-width:3.9998;stroke-miterlimit:10;}
	.st7{fill:none;stroke:#FF0000;stroke-width:3.9998;stroke-linejoin:round;stroke-miterlimit:10;}
	.st8{fill:#262626;}
</style>
<g>
	<rect x="18.2" y="14.5" class="st0" width="325.5" height="257.3"/>
	<path class="st1" d="M18.2,271.8V14.5 M83.3,271.8V14.5 M148.4,271.8V14.5 M213.6,271.8V14.5 M278.6,271.8V14.5 M343.8,271.8V14.5
		 M343.8,271.8H18.2 M343.8,228.9H18.2 M343.8,186H18.2 M343.8,143.1H18.2 M343.8,100.3H18.2 M343.8,57.4H18.2 M343.8,14.5H18.2"/>
	<path class="st2" d="M18.2,271.8V14.5 M343.8,271.8V14.5 M18.2,271.8h3.3 M18.2,228.9h3.3 M18.2,186h3.3 M18.2,143.1h3.3
		 M18.2,100.3h3.3 M18.2,57.4h3.3 M18.2,14.5h3.3 M343.8,271.8h-3.3 M343.8,228.9h-3.3 M343.8,186h-3.3 M343.8,143.1h-3.3
		 M343.8,100.3h-3.3 M343.8,57.4h-3.3 M343.8,14.5h-3.3"/>
	<g>
		<path class="st3" d="M9.2,275.2c-0.4-0.6-0.6-1.5-0.6-2.7s0.2-2,0.6-2.7c0.4-0.6,1-0.9,1.8-0.9c0.8,0,1.4,0.3,1.8,0.9
			c0.4,0.6,0.6,1.5,0.6,2.7s-0.2,2-0.6,2.7c-0.4,0.6-1,0.9-1.8,0.9C10.3,276.1,9.7,275.8,9.2,275.2z M12.1,274.6
			c0.2-0.5,0.4-1.2,0.4-2.1c0-0.9-0.1-1.6-0.4-2.1c-0.2-0.5-0.6-0.7-1.1-0.7c-0.5,0-0.9,0.2-1.1,0.7c-0.2,0.5-0.4,1.2-0.4,2.1
			c0,0.9,0.1,1.6,0.4,2.1s0.6,0.7,1.1,0.7C11.5,275.3,11.9,275.1,12.1,274.6z"/>
	</g>
	<g>
		<path class="st3" d="M1,232.3c-0.4-0.6-0.6-1.5-0.6-2.7s0.2-2,0.6-2.7c0.4-0.6,1-0.9,1.8-0.9c0.8,0,1.4,0.3,1.8,0.9
			c0.4,0.6,0.6,1.5,0.6,2.7s-0.2,2-0.6,2.7c-0.4,0.6-1,0.9-1.8,0.9C2,233.2,1.4,232.9,1,232.3z M3.9,231.7c0.2-0.5,0.4-1.2,0.4-2.1
			c0-0.9-0.1-1.6-0.4-2.1c-0.2-0.5-0.6-0.7-1.1-0.7c-0.5,0-0.9,0.2-1.1,0.7c-0.2,0.5-0.4,1.2-0.4,2.1c0,0.9,0.1,1.6,0.4,2.1
			s0.6,0.7,1.1,0.7C3.3,232.4,3.6,232.2,3.9,231.7z"/>
		<path class="st3" d="M6.4,232h1v1.1h-1V232z"/>
	</g>
	<g>
		<path class="st3" d="M12.6,230.8c0,0.7-0.2,1.3-0.7,1.8c-0.5,0.5-1,0.7-1.7,0.7c-0.7,0-1.3-0.2-1.7-0.5s-0.7-0.8-0.7-1.5h0.9
			c0,0.4,0.2,0.7,0.5,0.9c0.3,0.2,0.6,0.3,1.1,0.3c0.4,0,0.8-0.1,1-0.4s0.4-0.7,0.4-1.1c0-0.5-0.1-0.9-0.4-1.2
			c-0.3-0.3-0.7-0.4-1.1-0.4c-0.3,0-0.5,0.1-0.7,0.2c-0.2,0.1-0.4,0.3-0.5,0.5l-0.7,0l0.5-3.8h3.6v0.9h-3L9,228.9l0,0
			c0.4-0.3,0.8-0.4,1.2-0.4c0.7,0,1.3,0.2,1.8,0.6C12.4,229.5,12.6,230.1,12.6,230.8z"/>
	</g>
	<g>
		<path class="st3" d="M10.9,185.2H9.3v-0.7c0.5,0,0.9-0.1,1.2-0.3c0.3-0.2,0.5-0.6,0.7-1h0.7v7h-0.5h-0.5V185.2z"/>
	</g>
	<g>
		<path class="st3" d="M2.7,142.3H1v-0.7c0.5,0,0.9-0.1,1.2-0.3c0.3-0.2,0.5-0.6,0.7-1h0.7v7H3.1H2.7V142.3z"/>
		<path class="st3" d="M6.4,146.2h1v1.1h-1V146.2z"/>
	</g>
	<g>
		<path class="st3" d="M12.6,145c0,0.7-0.2,1.3-0.7,1.8c-0.5,0.5-1,0.7-1.7,0.7c-0.7,0-1.3-0.2-1.7-0.5s-0.7-0.8-0.7-1.5h0.9
			c0,0.4,0.2,0.7,0.5,0.9s0.6,0.3,1.1,0.3c0.4,0,0.8-0.1,1-0.4c0.3-0.3,0.4-0.7,0.4-1.1c0-0.5-0.1-0.9-0.4-1.2
			c-0.3-0.3-0.7-0.4-1.1-0.4c-0.3,0-0.5,0.1-0.7,0.2c-0.2,0.1-0.4,0.3-0.5,0.5l-0.7,0l0.5-3.8h3.6v0.9h-3L9,143.2l0,0
			c0.4-0.3,0.8-0.4,1.2-0.4c0.7,0,1.3,0.2,1.8,0.6C12.4,143.8,12.6,144.3,12.6,145z"/>
	</g>
	<g>
		<path class="st3" d="M13.3,99.4c0,0.5-0.1,0.9-0.4,1.3c-0.3,0.3-0.8,0.7-1.5,1.1c-0.8,0.4-1.3,0.8-1.6,1.2
			c-0.1,0.2-0.2,0.3-0.3,0.5h3.8v0.9H8.5v0c0-0.7,0.2-1.3,0.6-1.8s1.1-1,2.1-1.5c0.5-0.3,0.8-0.5,1-0.8c0.2-0.2,0.3-0.5,0.3-0.9
			c0-0.4-0.1-0.7-0.4-0.9c-0.3-0.2-0.6-0.4-1-0.4c-0.4,0-0.8,0.1-1,0.4s-0.4,0.7-0.4,1.3H8.7c0-0.8,0.2-1.4,0.6-1.8
			c0.4-0.4,1-0.7,1.8-0.7c0.7,0,1.2,0.2,1.6,0.6C13.1,98.3,13.3,98.8,13.3,99.4z"/>
	</g>
	<g>
		<path class="st3" d="M5.1,56.6c0,0.5-0.1,0.9-0.4,1.3c-0.3,0.3-0.8,0.7-1.5,1.1c-0.8,0.4-1.3,0.8-1.6,1.2
			c-0.1,0.2-0.2,0.3-0.3,0.5h3.8v0.9H0.3v0c0-0.7,0.2-1.3,0.6-1.8s1.1-1,2.1-1.5c0.5-0.3,0.8-0.5,1-0.8c0.2-0.2,0.3-0.5,0.3-0.9
			c0-0.4-0.1-0.7-0.4-0.9c-0.3-0.2-0.6-0.4-1-0.4c-0.4,0-0.8,0.1-1,0.4S1.3,56.4,1.3,57H0.4c0-0.8,0.2-1.4,0.6-1.8
			c0.4-0.4,1-0.7,1.8-0.7c0.7,0,1.2,0.2,1.6,0.6C4.9,55.5,5.1,56,5.1,56.6z"/>
		<path class="st3" d="M6.4,60.5h1v1.1h-1V60.5z"/>
	</g>
	<g>
		<path class="st3" d="M12.6,59.3c0,0.7-0.2,1.3-0.7,1.8c-0.5,0.5-1,0.7-1.7,0.7c-0.7,0-1.3-0.2-1.7-0.5s-0.7-0.8-0.7-1.5h0.9
			c0,0.4,0.2,0.7,0.5,0.9S9.8,61,10.3,61c0.4,0,0.8-0.1,1-0.4c0.3-0.3,0.4-0.7,0.4-1.1c0-0.5-0.1-0.9-0.4-1.2
			c-0.3-0.3-0.7-0.4-1.1-0.4c-0.3,0-0.5,0.1-0.7,0.2c-0.2,0.1-0.4,0.3-0.5,0.5l-0.7,0l0.5-3.8h3.6v0.9h-3L9,57.4l0,0
			c0.4-0.3,0.8-0.4,1.2-0.4c0.7,0,1.3,0.2,1.8,0.6C12.4,58,12.6,58.6,12.6,59.3z"/>
	</g>
	<g>
		<path class="st3" d="M12.3,13.5c0-0.3-0.1-0.6-0.4-0.8c-0.3-0.2-0.6-0.3-1-0.3c-0.4,0-0.7,0.1-1,0.4c-0.2,0.3-0.3,0.6-0.4,1.1H8.8
			c0-0.7,0.2-1.3,0.6-1.7c0.4-0.4,0.9-0.6,1.6-0.6c0.7,0,1.2,0.2,1.6,0.5c0.4,0.3,0.6,0.8,0.6,1.3c0,0.5-0.2,1-0.6,1.3
			c-0.1,0.1-0.2,0.1-0.3,0.2c0.2,0.1,0.3,0.2,0.4,0.3c0.4,0.3,0.7,0.8,0.7,1.4c0,0.7-0.2,1.2-0.7,1.6c-0.5,0.4-1,0.6-1.8,0.6
			c-0.8,0-1.4-0.2-1.8-0.6s-0.6-1-0.7-1.7h0.9c0.1,0.5,0.2,0.9,0.4,1.2c0.2,0.2,0.6,0.4,1.1,0.4c0.4,0,0.8-0.1,1.1-0.4
			c0.3-0.2,0.4-0.6,0.4-1c0-0.4-0.1-0.7-0.4-1c-0.2-0.2-0.5-0.3-0.9-0.4c-0.2,0-0.3,0-0.5,0c-0.1,0-0.2,0-0.3,0v-0.8
			c0.1,0,0.2,0,0.3,0c0.1,0,0.3,0,0.4,0c0.3,0,0.5-0.1,0.7-0.3C12.2,14.2,12.3,13.9,12.3,13.5z"/>
	</g>
	<g>
		<path class="st4" d="M112.8,1.5h1.7V8h4v1.4h-5.6V1.5z"/>
		<path class="st4" d="M123.2,3.7c0.4,0.2,0.7,0.5,1,0.9c0.2,0.3,0.4,0.8,0.5,1.2c0,0.3,0.1,0.7,0.1,1.2h-4.3c0,0.6,0.2,1,0.6,1.2
			c0.2,0.1,0.5,0.2,0.8,0.2c0.3,0,0.6-0.1,0.8-0.3c0.1-0.1,0.2-0.2,0.3-0.4h1.6c0,0.3-0.2,0.7-0.6,1.1c-0.5,0.6-1.3,0.9-2.2,0.9
			c-0.8,0-1.5-0.2-2.1-0.7c-0.6-0.5-0.9-1.3-0.9-2.3c0-1,0.3-1.8,0.8-2.3c0.5-0.5,1.2-0.8,2.1-0.8C122.4,3.4,122.8,3.5,123.2,3.7z
			 M121,5c-0.2,0.2-0.4,0.5-0.4,0.9h2.6c0-0.4-0.2-0.7-0.4-0.9s-0.5-0.3-0.9-0.3C121.5,4.7,121.2,4.8,121,5z"/>
		<path class="st4" d="M130.3,3.9c0.4,0.3,0.6,0.8,0.6,1.6v3.9h-1.6V5.9c0-0.3,0-0.5-0.1-0.7c-0.1-0.3-0.4-0.5-0.9-0.5
			c-0.5,0-0.9,0.2-1.1,0.7c-0.1,0.2-0.1,0.5-0.1,0.9v3.2h-1.5V3.6h1.5v0.9c0.2-0.3,0.4-0.5,0.6-0.6c0.3-0.2,0.7-0.4,1.2-0.4
			C129.4,3.5,129.9,3.6,130.3,3.9z"/>
		<path class="st4" d="M135.2,3.6c0.4,0.2,0.7,0.4,0.9,0.8V3.6h1.5v5.6c0,0.8-0.1,1.3-0.4,1.7c-0.4,0.7-1.3,1-2.5,1
			c-0.7,0-1.4-0.1-1.8-0.4s-0.7-0.7-0.8-1.3h1.7c0,0.2,0.1,0.3,0.2,0.4c0.2,0.1,0.4,0.2,0.8,0.2c0.6,0,0.9-0.2,1.1-0.6
			c0.1-0.2,0.2-0.6,0.2-1.2V8.6c-0.1,0.3-0.3,0.4-0.5,0.6c-0.3,0.2-0.7,0.3-1.2,0.3c-0.8,0-1.4-0.3-1.8-0.8
			c-0.4-0.5-0.7-1.2-0.7-2.1c0-0.9,0.2-1.6,0.6-2.2c0.4-0.6,1-0.9,1.8-0.9C134.7,3.5,134.9,3.5,135.2,3.6z M135.7,7.8
			c0.2-0.3,0.4-0.7,0.4-1.3c0-0.6-0.1-1-0.4-1.3c-0.2-0.3-0.5-0.4-0.9-0.4c-0.5,0-0.9,0.3-1.1,0.8c-0.1,0.3-0.2,0.6-0.2,1
			c0,0.3,0.1,0.6,0.2,0.9c0.2,0.5,0.6,0.7,1.1,0.7C135.1,8.2,135.4,8.1,135.7,7.8z"/>
		<path class="st4" d="M138.4,4.7V3.7h0.8V2h1.5v1.6h1v1.1h-1v3.1c0,0.2,0,0.4,0.1,0.4s0.2,0.1,0.6,0.1c0,0,0.1,0,0.1,0
			c0.1,0,0.1,0,0.2,0v1.1l-0.7,0c-0.7,0-1.2-0.1-1.5-0.4c-0.2-0.2-0.3-0.4-0.3-0.8V4.7H138.4z"/>
		<path class="st4" d="M146.9,3.6c0.3,0.1,0.5,0.3,0.7,0.6c0.2,0.2,0.3,0.4,0.3,0.7s0.1,0.6,0.1,1.1v3.4h-1.6V5.9
			c0-0.3-0.1-0.6-0.2-0.8c-0.1-0.3-0.4-0.4-0.8-0.4c-0.4,0-0.7,0.1-0.9,0.4c-0.2,0.3-0.3,0.7-0.3,1.2v3.2h-1.5V1.6h1.5v2.8
			c0.2-0.3,0.5-0.6,0.8-0.7s0.6-0.2,0.9-0.2C146.2,3.4,146.6,3.5,146.9,3.6z"/>
		<path class="st4" d="M152.5,1.5h1.7l3.1,5.5V1.5h1.5v7.9h-1.7l-3.2-5.6v5.6h-1.5V1.5z"/>
		<path class="st4" d="M165.8,4.6V6H160V4.6H165.8z M165.8,7.1v1.4H160V7.1H165.8z"/>
		<path class="st4" d="M170.1,3.6c0-0.1,0-0.3-0.1-0.4c-0.2-0.2-0.4-0.4-0.7-0.4c-0.5,0-0.9,0.3-1.1,0.8C168,4,168,4.5,167.9,5.1
			c0.2-0.2,0.4-0.4,0.7-0.5s0.5-0.2,0.9-0.2c0.7,0,1.3,0.2,1.7,0.7c0.4,0.5,0.7,1.1,0.7,1.8c0,0.7-0.2,1.4-0.6,1.9s-1.1,0.8-2,0.8
			c-1,0-1.7-0.4-2.2-1.2c-0.4-0.6-0.5-1.5-0.5-2.5c0-0.6,0-1.1,0.1-1.5c0.1-0.7,0.3-1.2,0.5-1.7c0.2-0.4,0.5-0.7,0.9-0.9
			c0.4-0.2,0.8-0.3,1.3-0.3c0.7,0,1.3,0.2,1.7,0.6s0.7,0.9,0.7,1.5H170.1z M168.3,8c0.2,0.3,0.5,0.4,0.9,0.4c0.3,0,0.6-0.1,0.8-0.4
			c0.2-0.3,0.3-0.6,0.3-1c0-0.5-0.1-0.8-0.3-1s-0.5-0.4-0.8-0.4c-0.3,0-0.5,0.1-0.7,0.2C168.1,6.1,168,6.5,168,7
			C168,7.4,168.1,7.8,168.3,8z"/>
		<path class="st4" d="M180.7,1.7c0.6,0.2,1,0.5,1.3,1c0.3,0.4,0.5,0.8,0.6,1.3s0.2,0.9,0.2,1.3c0,1.1-0.2,1.9-0.6,2.7
			c-0.6,1-1.5,1.5-2.7,1.5h-3.4V1.5h3.4C180,1.5,180.4,1.6,180.7,1.7z M177.7,2.9v5.2h1.5c0.8,0,1.3-0.4,1.6-1.2
			c0.2-0.4,0.3-0.9,0.3-1.5c0-0.8-0.1-1.4-0.4-1.9c-0.3-0.4-0.8-0.6-1.5-0.6H177.7z"/>
		<path class="st4" d="M184,1.6h5.6v1.4h-4v1.8h3.5v1.4h-3.5v3.3H184V1.6z"/>
		<path class="st4" d="M196.5,1.5v1.4h-2.4v6.5h-1.7V2.9h-2.4V1.5H196.5z"/>
		<path class="st4" d="M205.3,4.2c0.5,0.5,0.7,1.2,0.7,2.2c0,1-0.2,1.8-0.7,2.4s-1.1,0.8-1.8,0.8c-0.5,0-0.9-0.1-1.2-0.3
			c-0.2-0.1-0.3-0.3-0.5-0.6v3.1h-1.5V3.6h1.5v0.9c0.2-0.3,0.3-0.5,0.5-0.6c0.3-0.3,0.8-0.4,1.2-0.4C204.3,3.5,204.9,3.7,205.3,4.2z
			 M204.2,5.3c-0.2-0.3-0.5-0.5-1-0.5c-0.6,0-0.9,0.3-1.2,0.8c-0.1,0.3-0.2,0.6-0.2,1.1c0,0.7,0.2,1.2,0.5,1.4
			c0.2,0.2,0.5,0.2,0.8,0.2c0.4,0,0.8-0.2,1-0.5c0.2-0.3,0.3-0.8,0.3-1.3C204.5,6.1,204.4,5.7,204.2,5.3z"/>
		<path class="st4" d="M208.7,9.5h-1.5V1.5h1.5V9.5z"/>
		<path class="st4" d="M215.1,8.7c-0.5,0.6-1.2,0.9-2.3,0.9c-1,0-1.8-0.3-2.3-0.9s-0.7-1.3-0.7-2.2c0-0.8,0.2-1.6,0.7-2.2
			c0.5-0.6,1.2-0.9,2.3-0.9c1,0,1.8,0.3,2.3,0.9c0.5,0.6,0.7,1.4,0.7,2.2C215.8,7.4,215.6,8.1,215.1,8.7z M213.8,7.9
			c0.2-0.3,0.4-0.8,0.4-1.4s-0.1-1-0.4-1.4s-0.6-0.5-1-0.5s-0.8,0.2-1,0.5c-0.2,0.3-0.4,0.8-0.4,1.4s0.1,1,0.4,1.4
			c0.2,0.3,0.6,0.5,1,0.5S213.6,8.2,213.8,7.9z"/>
		<path class="st4" d="M216.3,4.7V3.7h0.8V2h1.5v1.6h1v1.1h-1v3.1c0,0.2,0,0.4,0.1,0.4s0.2,0.1,0.6,0.1c0,0,0.1,0,0.1,0
			c0.1,0,0.1,0,0.2,0v1.1l-0.7,0c-0.7,0-1.2-0.1-1.5-0.4c-0.2-0.2-0.3-0.4-0.3-0.8V4.7H216.3z"/>
		<path class="st4" d="M225.2,1.5v8h-1.4v-8H225.2z"/>
		<path class="st4" d="M228.1,9.5h-1.9l2.5-4l-2.4-3.9h2l1.4,2.6l1.5-2.6h1.9l-2.4,3.8l2.6,4.1h-2l-1.5-2.7L228.1,9.5z"/>
		<path class="st4" d="M234,1.5h2.7v1.1h-1.2v7.9h1.2v1.1H234V1.5z"/>
		<path class="st4" d="M237.7,1.6h1.5v4.3l1.9-2.2h1.9l-2.1,2.2l2.2,3.6h-1.9L239.8,7l-0.6,0.7v1.8h-1.5V1.6z"/>
		<path class="st4" d="M243.4,10.5h1.2V2.6h-1.2V1.5h2.7v10.1h-2.7V10.5z"/>
		<path class="st4" d="M249.1,1.5v8h-1.4v-8H249.1z"/>
	</g>
	<line class="st5" x1="18.2" y1="271.8" x2="343.8" y2="271.8"/>
	<path class="st6" d="M21.2,271.8c0-1.7-1.3-3-3-3s-3,1.3-3,3s1.3,3,3,3S21.2,273.4,21.2,271.8L21.2,271.8z M86.3,14.5
		c0-1.7-1.3-3-3-3s-3,1.3-3,3c0,1.7,1.3,3,3,3S86.3,16.2,86.3,14.5L86.3,14.5z M151.4,271.8c0-1.7-1.3-3-3-3s-3,1.3-3,3s1.3,3,3,3
		S151.4,273.4,151.4,271.8L151.4,271.8z M216.6,271.8c0-1.7-1.3-3-3-3c-1.7,0-3,1.3-3,3s1.3,3,3,3
		C215.2,274.8,216.6,273.4,216.6,271.8L216.6,271.8z M281.6,271.8c0-1.7-1.3-3-3-3c-1.7,0-3,1.3-3,3s1.3,3,3,3
		C280.3,274.8,281.6,273.4,281.6,271.8L281.6,271.8z M346.8,14.5c0-1.7-1.3-3-3-3s-3,1.3-3,3c0,1.7,1.3,3,3,3S346.8,16.2,346.8,14.5
		L346.8,14.5z"/>
	<path class="st7" d="M18.2,271.8L18.2,271.8 M83.3,271.8V14.5 M148.4,271.8L148.4,271.8 M213.6,271.8L213.6,271.8 M278.6,271.8
		L278.6,271.8 M343.8,271.8V14.5"/>
	<path class="st2" d="M18.2,271.8h325.5 M18.2,14.5h325.5 M18.2,271.8v-3.3 M83.3,271.8v-3.3 M148.4,271.8v-3.3 M213.6,271.8v-3.3
		 M278.6,271.8v-3.3 M343.8,271.8v-3.3 M18.2,14.5v3.3 M83.3,14.5v3.3 M148.4,14.5v3.3 M213.6,14.5v3.3 M278.6,14.5v3.3 M343.8,14.5
		v3.3"/>
	<g>
		<path class="st3" d="M16.2,285.5c-0.4-0.6-0.6-1.5-0.6-2.7s0.2-2,0.6-2.7c0.4-0.6,1-0.9,1.8-0.9c0.8,0,1.4,0.3,1.8,0.9
			c0.4,0.6,0.6,1.5,0.6,2.7s-0.2,2-0.6,2.7c-0.4,0.6-1,0.9-1.8,0.9C17.3,286.5,16.7,286.2,16.2,285.5z M19.1,285
			c0.2-0.5,0.4-1.2,0.4-2.1c0-0.9-0.1-1.6-0.4-2.1c-0.2-0.5-0.6-0.7-1.1-0.7c-0.5,0-0.9,0.2-1.1,0.7c-0.2,0.5-0.4,1.2-0.4,2.1
			c0,0.9,0.1,1.6,0.4,2.1s0.6,0.7,1.1,0.7C18.5,285.7,18.9,285.4,19.1,285z"/>
		<path class="st3" d="M83.6,281.3h-1.6v-0.7c0.5,0,0.9-0.1,1.2-0.3c0.3-0.2,0.5-0.6,0.7-1h0.7v7H84h-0.5V281.3z"/>
		<path class="st3" d="M151.6,281.3c0,0.5-0.1,0.9-0.4,1.3c-0.3,0.3-0.8,0.7-1.5,1.1c-0.8,0.4-1.3,0.8-1.6,1.2
			c-0.1,0.2-0.2,0.3-0.3,0.5h3.8v0.9h-4.8v0c0-0.7,0.2-1.3,0.6-1.8s1.1-1,2.1-1.5c0.5-0.3,0.8-0.5,1-0.8c0.2-0.2,0.3-0.5,0.3-0.9
			c0-0.4-0.1-0.7-0.4-0.9c-0.3-0.2-0.6-0.4-1-0.4c-0.4,0-0.8,0.1-1,0.4s-0.4,0.7-0.4,1.3H147c0-0.8,0.2-1.4,0.6-1.8
			c0.4-0.4,1-0.7,1.8-0.7c0.7,0,1.2,0.2,1.6,0.6C151.4,280.2,151.6,280.7,151.6,281.3z"/>
		<path class="st3" d="M216.3,281.2c0-0.3-0.1-0.6-0.4-0.8c-0.3-0.2-0.6-0.3-1-0.3c-0.4,0-0.7,0.1-1,0.4c-0.2,0.3-0.3,0.6-0.4,1.1
			h-0.9c0-0.7,0.2-1.3,0.6-1.7c0.4-0.4,0.9-0.6,1.6-0.6c0.7,0,1.2,0.2,1.6,0.5c0.4,0.3,0.6,0.8,0.6,1.3c0,0.5-0.2,1-0.6,1.3
			c-0.1,0.1-0.2,0.1-0.3,0.2c0.2,0.1,0.3,0.2,0.4,0.3c0.4,0.3,0.7,0.8,0.7,1.4c0,0.7-0.2,1.2-0.7,1.6c-0.5,0.4-1,0.6-1.8,0.6
			c-0.8,0-1.4-0.2-1.8-0.6c-0.4-0.4-0.6-1-0.7-1.7h0.9c0.1,0.5,0.2,0.9,0.4,1.2c0.2,0.2,0.6,0.4,1.1,0.4c0.4,0,0.8-0.1,1.1-0.4
			s0.4-0.6,0.4-1c0-0.4-0.1-0.7-0.4-1c-0.2-0.2-0.5-0.3-0.9-0.4c-0.2,0-0.3,0-0.5,0c-0.1,0-0.2,0-0.3,0v-0.8c0.1,0,0.2,0,0.3,0
			s0.3,0,0.4,0c0.3,0,0.5-0.1,0.7-0.3C216.2,281.8,216.3,281.5,216.3,281.2z"/>
		<path class="st3" d="M278.1,284.6v-0.4v-0.4l3.3-4.5h0.4h0.4v4.6h1v0.8h-1v1.7h-0.9v-1.7H278.1z M281.2,283.8v-3.2l-2.2,3.1l0,0.1
			H281.2z"/>
		<path class="st3" d="M348.7,284c0,0.7-0.2,1.3-0.7,1.8c-0.5,0.5-1,0.7-1.7,0.7c-0.7,0-1.3-0.2-1.7-0.5s-0.7-0.8-0.7-1.5h0.9
			c0,0.4,0.2,0.7,0.5,0.9c0.3,0.2,0.6,0.3,1.1,0.3c0.4,0,0.8-0.1,1-0.4c0.3-0.3,0.4-0.7,0.4-1.1c0-0.5-0.1-0.9-0.4-1.2
			s-0.7-0.4-1.1-0.4c-0.3,0-0.5,0.1-0.8,0.2c-0.2,0.1-0.4,0.3-0.5,0.5l-0.7,0l0.5-3.8h3.6v0.9h-3l-0.3,1.9l0,0
			c0.4-0.3,0.8-0.4,1.2-0.4c0.7,0,1.3,0.2,1.8,0.6C348.5,282.8,348.7,283.3,348.7,284z"/>
	</g>
	<path class="st8" d="M171.3,298.4c-0.1,0-0.1,0-0.2-0.1c0,0-0.1-0.1-0.1-0.2c0-0.1,0-0.1,0.1-0.2c0,0,0.1-0.1,0.2-0.1h8.5
		c-0.3-0.2-0.5-0.4-0.8-0.7c-0.2-0.3-0.4-0.6-0.6-0.9c-0.1-0.3-0.3-0.6-0.3-1c0-0.1,0-0.2,0.1-0.2h0.2c0,0,0.1,0,0.1,0
		c0,0,0,0,0,0.1c0.1,0.3,0.2,0.6,0.3,0.9c0.1,0.3,0.3,0.5,0.5,0.8c0.2,0.2,0.4,0.4,0.7,0.6c0.2,0.2,0.5,0.3,0.8,0.4
		c0,0,0.1,0.1,0.1,0.1c0,0.1,0,0.1-0.1,0.1c-0.4,0.1-0.8,0.3-1.1,0.6c-0.3,0.3-0.6,0.6-0.8,0.9c-0.2,0.4-0.4,0.8-0.4,1.2
		c0,0,0,0,0,0.1c0,0,0,0-0.1,0h-0.2c-0.1,0-0.1-0.1-0.1-0.2c0.1-0.5,0.3-1,0.6-1.4c0.3-0.4,0.6-0.8,1-1.1H171.3L171.3,298.4z"/>
	<g>
		<path class="st3" d="M185.5,293.1h0.5h0.5v4.6l2.4-2.4h0.6h0.6l-2.2,2.1l2.3,3.6h-0.6h-0.6l-1.8-2.9l-0.8,0.7v2.2H186h-0.5V293.1z
			"/>
	</g>
</g>
</svg>
