<?xml version="1.0" encoding="utf-8"?>
<!-- Generator: Adobe Illustrator 22.1.0, SVG Export Plug-In . SVG Version: 6.00 Build 0)  -->
<svg version="1.1" id="Layer_1" xmlns="http://www.w3.org/2000/svg" xmlns:xlink="http://www.w3.org/1999/xlink" x="0px" y="0px"
	 viewBox="0 0 369.6 304.5" style="enable-background:new 0 0 369.6 304.5;" xml:space="preserve">
<style type="text/css">
	.st0{fill:none;stroke:#DFDFDF;stroke-width:0.5002;stroke-linejoin:round;stroke-miterlimit:10;}
	.st1{fill:none;stroke:#262626;stroke-width:0.5002;stroke-linecap:square;stroke-linejoin:round;stroke-miterlimit:10;}
	.st2{fill:#4A4A49;}
	.st3{fill:#262626;}
	.st4{fill:#1D1D1B;}
	.st5{fill:none;stroke:#262626;stroke-width:0.5002;stroke-linejoin:round;stroke-miterlimit:10;}
	.st6{fill:none;stroke:#000000;stroke-width:3.9998;stroke-linejoin:bevel;stroke-miterlimit:10;stroke-dasharray:15,15;}
	.st7{fill:none;stroke:#0000FF;stroke-width:3.9998;stroke-miterlimit:10;}
	.st8{fill:none;stroke:#0000FF;stroke-width:3.9998;stroke-linejoin:round;stroke-miterlimit:10;}
</style>
<g>
	<path class="st0" d="M21.2,272V14.7 M102.6,272V14.7 M184,272V14.7 M265.4,272V14.7 M326.4,272V14.7 M346.8,272H21.2 M346.8,246.2
		H21.2 M346.8,220.5H21.2 M346.8,194.8H21.2 M346.8,169.1H21.2 M346.8,143.3H21.2 M346.8,117.6H21.2 M346.8,91.9H21.2 M346.8,66.2
		H21.2 M346.8,40.4H21.2 M346.8,14.7H21.2"/>
	<path class="st1" d="M21.2,272h325.5 M21.2,14.7h325.5 M21.2,272v-3.3 M102.6,272v-3.3 M184,272v-3.3 M265.4,272v-3.3 M326.4,272
		v-3.3 M21.2,14.7V18 M102.6,14.7V18 M184,14.7V18 M265.4,14.7V18 M326.4,14.7V18"/>
	<g>
		<path class="st2" d="M19.2,285.7c-0.4-0.6-0.6-1.5-0.6-2.7s0.2-2,0.6-2.7c0.4-0.6,1-0.9,1.8-0.9c0.8,0,1.4,0.3,1.8,0.9
			c0.4,0.6,0.6,1.5,0.6,2.7s-0.2,2-0.6,2.7c-0.4,0.6-1,0.9-1.8,0.9C20.3,286.7,19.7,286.3,19.2,285.7z M22.1,285.2
			c0.2-0.5,0.4-1.2,0.4-2.1c0-0.9-0.1-1.6-0.4-2.1c-0.2-0.5-0.6-0.7-1.1-0.7c-0.5,0-0.9,0.2-1.1,0.7c-0.2,0.5-0.4,1.2-0.4,2.1
			c0,0.9,0.1,1.6,0.4,2.1s0.6,0.7,1.1,0.7C21.5,285.9,21.9,285.6,22.1,285.2z"/>
		<path class="st2" d="M97,286.5h-0.5h-0.5v-7.2h0.6h0.6l3.6,5.8v-5.8h0.5h0.5v7.2h-0.5h-0.5l-3.7-5.9V286.5z"/>
	</g>
	<g>
		<path class="st2" d="M104.9,279.1l-2.4,7.6h-0.7l2.4-7.6H104.9z"/>
		<path class="st2" d="M105,284.8v-0.4V284l3.3-4.5h0.4h0.4v4.6h1v0.8h-1v1.7h-0.9v-1.7H105z M108.1,284v-3.2l-2.2,3.1l0,0.1H108.1z
			"/>
	</g>
	<g>
		<path class="st2" d="M177.8,286.5h-0.5h-0.5v-7.2h0.6h0.6l3.6,5.8v-5.8h0.5h0.5v7.2h-0.5h-0.5l-3.7-5.9V286.5z"/>
		<path class="st2" d="M186.3,279.1l-2.4,7.6h-0.7l2.4-7.6H186.3z"/>
		<path class="st2" d="M191.2,281.5c0,0.5-0.1,0.9-0.4,1.3c-0.3,0.3-0.8,0.7-1.5,1.1c-0.8,0.4-1.3,0.8-1.6,1.2
			c-0.1,0.2-0.2,0.3-0.3,0.5h3.8v0.9h-4.8v0c0-0.7,0.2-1.3,0.6-1.8s1.1-1,2.1-1.5c0.5-0.3,0.8-0.5,1-0.8s0.3-0.5,0.3-0.9
			c0-0.4-0.1-0.7-0.4-0.9s-0.6-0.4-1-0.4c-0.4,0-0.8,0.1-1,0.4s-0.4,0.7-0.4,1.3h-0.9c0-0.8,0.2-1.4,0.6-1.8c0.4-0.4,1-0.7,1.8-0.7
			c0.7,0,1.2,0.2,1.6,0.6C191,280.4,191.2,280.9,191.2,281.5z"/>
	</g>
	<g>
		<path class="st2" d="M258.6,281.3c0-0.3-0.1-0.6-0.4-0.8c-0.3-0.2-0.6-0.3-1-0.3c-0.4,0-0.7,0.1-1,0.4c-0.2,0.3-0.3,0.6-0.4,1.1
			H255c0-0.7,0.2-1.3,0.6-1.7c0.4-0.4,0.9-0.6,1.6-0.6c0.7,0,1.2,0.2,1.6,0.5c0.4,0.3,0.6,0.8,0.6,1.3c0,0.5-0.2,1-0.6,1.3
			c-0.1,0.1-0.2,0.1-0.3,0.2c0.2,0.1,0.3,0.2,0.4,0.3c0.4,0.3,0.7,0.8,0.7,1.4c0,0.7-0.2,1.2-0.7,1.6c-0.5,0.4-1,0.6-1.8,0.6
			c-0.8,0-1.4-0.2-1.8-0.6c-0.4-0.4-0.6-1-0.7-1.7h0.9c0.1,0.5,0.2,0.9,0.4,1.2c0.2,0.2,0.6,0.4,1.1,0.4c0.4,0,0.8-0.1,1.1-0.4
			s0.4-0.6,0.4-1c0-0.4-0.1-0.7-0.4-1c-0.2-0.2-0.5-0.3-0.9-0.4c-0.2,0-0.3,0-0.5,0c-0.1,0-0.2,0-0.3,0v-0.8c0.1,0,0.2,0,0.3,0
			s0.3,0,0.4,0c0.3,0,0.5-0.1,0.7-0.3C258.4,282,258.6,281.7,258.6,281.3z"/>
		<path class="st2" d="M261.8,286.5h-0.5h-0.5v-7.2h0.6h0.6l3.6,5.8v-5.8h0.5h0.5v7.2H266h-0.5l-3.7-5.9V286.5z"/>
		<path class="st2" d="M270.2,279.1l-2.4,7.6h-0.7l2.4-7.6H270.2z"/>
	</g>
	<g>
		<path class="st2" d="M269.7,284.8v-0.4V284l3.3-4.5h0.4h0.4v4.6h1v0.8h-1v1.7h-0.9v-1.7H269.7z M272.8,284v-3.2l-2.2,3.1l0,0.1
			H272.8z"/>
		<path class="st2" d="M320.4,286.5H320h-0.5v-7.2h0.6h0.6l3.6,5.8v-5.8h0.5h0.5v7.2h-0.5h-0.5l-3.7-5.9V286.5z"/>
	</g>
	<g>
		<path class="st2" d="M325.8,283.3h2.5v0.9h-2.5V283.3z"/>
		<path class="st2" d="M331.4,281.5h-1.6v-0.7c0.5,0,0.9-0.1,1.2-0.3c0.3-0.2,0.5-0.6,0.7-1h0.7v7h-0.5h-0.5V281.5z"/>
	</g>
	<path class="st3" d="M172.8,298.6c-0.1,0-0.1,0-0.2-0.1c0,0-0.1-0.1-0.1-0.2c0-0.1,0-0.1,0.1-0.2c0,0,0.1-0.1,0.2-0.1h8.5
		c-0.3-0.2-0.5-0.4-0.8-0.7c-0.2-0.3-0.4-0.6-0.6-0.9c-0.1-0.3-0.3-0.6-0.3-1c0-0.1,0-0.2,0.1-0.2h0.2c0,0,0.1,0,0.1,0
		c0,0,0,0,0,0.1c0.1,0.3,0.2,0.6,0.3,0.9c0.1,0.3,0.3,0.5,0.5,0.8c0.2,0.2,0.4,0.4,0.7,0.6c0.2,0.2,0.5,0.3,0.8,0.4
		c0,0,0.1,0.1,0.1,0.1c0,0.1,0,0.1-0.1,0.1c-0.4,0.1-0.8,0.3-1.1,0.6c-0.3,0.3-0.6,0.6-0.8,0.9c-0.2,0.4-0.4,0.8-0.4,1.2
		c0,0,0,0,0,0.1c0,0,0,0-0.1,0h-0.2c-0.1,0-0.1-0.1-0.1-0.2c0.1-0.5,0.3-1,0.6-1.4c0.3-0.4,0.6-0.8,1-1.1H172.8L172.8,298.6z"/>
	<g>
		<path class="st2" d="M190.1,295.5h0.5h0.5v0.8l0.2-0.3c0.4-0.5,0.9-0.7,1.6-0.7c0.6,0,1.1,0.2,1.5,0.5s0.5,0.8,0.5,1.5v3.9h-0.5
			h-0.5v-3.6c0-0.5-0.1-0.9-0.3-1.1s-0.5-0.3-0.9-0.3c-0.5,0-0.8,0.2-1.1,0.5c-0.3,0.4-0.4,0.8-0.4,1.4v3.1h-0.5h-0.5V295.5z"/>
	</g>
	<path class="st1" d="M21.2,272V14.7 M346.8,272V14.7 M21.2,272h3.3 M21.2,246.2h3.3 M21.2,220.5h3.3 M21.2,194.8h3.3 M21.2,169.1
		h3.3 M21.2,143.3h3.3 M21.2,117.6h3.3 M21.2,91.9h3.3 M21.2,66.2h3.3 M21.2,40.4h3.3 M21.2,14.7h3.3 M346.8,272h-3.3 M346.8,246.2
		h-3.3 M346.8,220.5h-3.3 M346.8,194.8h-3.3 M346.8,169.1h-3.3 M346.8,143.3h-3.3 M346.8,117.6h-3.3 M346.8,91.9h-3.3 M346.8,66.2
		h-3.3 M346.8,40.4h-3.3 M346.8,14.7h-3.3"/>
	<g>
		<path class="st2" d="M8.7,272.9h2.5v0.9H8.7V272.9z"/>
		<path class="st2" d="M14.2,271.1h-1.6v-0.7c0.5,0,0.9-0.1,1.2-0.3c0.3-0.2,0.5-0.6,0.7-1h0.7v7h-0.5h-0.5V271.1z"/>
	</g>
	<g>
		<path class="st2" d="M0.4,247.2h2.5v0.9H0.4V247.2z"/>
		<path class="st2" d="M4.3,249.6c-0.4-0.6-0.6-1.5-0.6-2.7s0.2-2,0.6-2.7c0.4-0.6,1-0.9,1.8-0.9c0.8,0,1.4,0.3,1.8,0.9
			c0.4,0.6,0.6,1.5,0.6,2.7s-0.2,2-0.6,2.7c-0.4,0.6-1,0.9-1.8,0.9C5.3,250.6,4.7,250.3,4.3,249.6z M7.2,249.1
			c0.2-0.5,0.4-1.2,0.4-2.1c0-0.9-0.1-1.6-0.4-2.1c-0.2-0.5-0.6-0.7-1.1-0.7c-0.5,0-0.9,0.2-1.1,0.7c-0.2,0.5-0.4,1.2-0.4,2.1
			c0,0.9,0.1,1.6,0.4,2.1s0.6,0.7,1.1,0.7C6.6,249.8,7,249.5,7.2,249.1z"/>
		<path class="st2" d="M9.8,249.3h1v1.1h-1V249.3z"/>
		<path class="st2" d="M15.7,246.7c0.2,0.1,0.4,0.2,0.5,0.3c0.4,0.4,0.7,0.8,0.7,1.4c0,0.7-0.2,1.2-0.7,1.6s-1,0.6-1.7,0.6
			c-0.7,0-1.3-0.2-1.7-0.6c-0.4-0.4-0.7-0.9-0.7-1.6c0-0.6,0.2-1.1,0.7-1.4c0.2-0.1,0.3-0.2,0.5-0.3c-0.1-0.1-0.2-0.1-0.3-0.2
			c-0.4-0.3-0.6-0.7-0.6-1.2c0-0.6,0.2-1,0.6-1.4s0.9-0.5,1.6-0.5s1.2,0.2,1.6,0.5s0.6,0.8,0.6,1.4c0,0.5-0.2,0.9-0.6,1.2
			C15.9,246.5,15.8,246.6,15.7,246.7z M14.4,247c-0.4,0-0.8,0.1-1.1,0.4c-0.3,0.3-0.4,0.6-0.4,1c0,0.4,0.1,0.7,0.4,1
			c0.3,0.3,0.6,0.4,1.1,0.4s0.8-0.1,1.1-0.4s0.4-0.6,0.4-1c0-0.4-0.1-0.7-0.4-1C15.2,247.2,14.9,247,14.4,247z M14.4,246.3
			c0.4,0,0.7-0.1,0.9-0.3c0.2-0.2,0.3-0.5,0.3-0.8s-0.1-0.6-0.3-0.8c-0.2-0.2-0.5-0.3-0.9-0.3c-0.4,0-0.7,0.1-0.9,0.3
			c-0.2,0.2-0.3,0.5-0.3,0.8s0.1,0.6,0.3,0.8C13.8,246.2,14.1,246.3,14.4,246.3z"/>
	</g>
	<g>
		<path class="st2" d="M0.4,221.4h2.5v0.9H0.4V221.4z"/>
		<path class="st2" d="M4.3,223.9c-0.4-0.6-0.6-1.5-0.6-2.7s0.2-2,0.6-2.7c0.4-0.6,1-0.9,1.8-0.9c0.8,0,1.4,0.3,1.8,0.9
			c0.4,0.6,0.6,1.5,0.6,2.7s-0.2,2-0.6,2.7c-0.4,0.6-1,0.9-1.8,0.9C5.3,224.8,4.7,224.5,4.3,223.9z M7.2,223.3
			c0.2-0.5,0.4-1.2,0.4-2.1c0-0.9-0.1-1.6-0.4-2.1c-0.2-0.5-0.6-0.7-1.1-0.7c-0.5,0-0.9,0.2-1.1,0.7c-0.2,0.5-0.4,1.2-0.4,2.1
			c0,0.9,0.1,1.6,0.4,2.1s0.6,0.7,1.1,0.7C6.6,224,7,223.8,7.2,223.3z"/>
		<path class="st2" d="M9.8,223.6h1v1.1h-1V223.6z"/>
		<path class="st2" d="M14.6,217.6c0.6,0,1.1,0.2,1.5,0.5c0.4,0.3,0.6,0.8,0.6,1.4h-0.9c0-0.3-0.2-0.6-0.4-0.8
			c-0.2-0.2-0.5-0.3-0.8-0.3c-0.5,0-1,0.3-1.3,0.8c-0.3,0.4-0.4,1.1-0.4,1.8c0.4-0.6,1-0.8,1.7-0.8c0.7,0,1.2,0.2,1.6,0.6
			c0.4,0.4,0.6,1,0.6,1.7s-0.2,1.3-0.7,1.7c-0.4,0.4-1,0.6-1.7,0.6c-0.8,0-1.4-0.3-1.8-0.9c-0.4-0.6-0.6-1.4-0.6-2.5
			c0-1.2,0.2-2.2,0.7-2.8C13.2,217.9,13.8,217.6,14.6,217.6z M13.1,222.5c0,0.5,0.1,0.8,0.4,1.1c0.3,0.3,0.6,0.4,1,0.4
			c0.4,0,0.8-0.1,1-0.4c0.3-0.3,0.4-0.7,0.4-1.1s-0.1-0.8-0.4-1.1c-0.3-0.3-0.6-0.4-1-0.4c-0.4,0-0.8,0.1-1,0.4
			C13.2,221.7,13.1,222.1,13.1,222.5z"/>
	</g>
	<g>
		<path class="st2" d="M0.4,195.7h2.5v0.9H0.4V195.7z"/>
		<path class="st2" d="M4.3,198.2c-0.4-0.6-0.6-1.5-0.6-2.7s0.2-2,0.6-2.7c0.4-0.6,1-0.9,1.8-0.9c0.8,0,1.4,0.3,1.8,0.9
			c0.4,0.6,0.6,1.5,0.6,2.7s-0.2,2-0.6,2.7c-0.4,0.6-1,0.9-1.8,0.9C5.3,199.1,4.7,198.8,4.3,198.2z M7.2,197.6
			c0.2-0.5,0.4-1.2,0.4-2.1c0-0.9-0.1-1.6-0.4-2.1c-0.2-0.5-0.6-0.7-1.1-0.7c-0.5,0-0.9,0.2-1.1,0.7c-0.2,0.5-0.4,1.2-0.4,2.1
			c0,0.9,0.1,1.6,0.4,2.1s0.6,0.7,1.1,0.7C6.6,198.3,7,198.1,7.2,197.6z"/>
		<path class="st2" d="M9.8,197.9h1v1.1h-1V197.9z"/>
		<path class="st2" d="M11.9,197.2v-0.4v-0.4l3.3-4.5h0.4h0.4v4.6h1v0.8h-1v1.7H15v-1.7H11.9z M15,196.5v-3.2l-2.2,3.1l0,0.1H15z"/>
	</g>
	<g>
		<path class="st2" d="M0.4,170h2.5v0.9H0.4V170z"/>
		<path class="st2" d="M4.3,172.4c-0.4-0.6-0.6-1.5-0.6-2.7s0.2-2,0.6-2.7c0.4-0.6,1-0.9,1.8-0.9c0.8,0,1.4,0.3,1.8,0.9
			c0.4,0.6,0.6,1.5,0.6,2.7s-0.2,2-0.6,2.7c-0.4,0.6-1,0.9-1.8,0.9C5.3,173.4,4.7,173.1,4.3,172.4z M7.2,171.9
			c0.2-0.5,0.4-1.2,0.4-2.1c0-0.9-0.1-1.6-0.4-2.1C7,167.2,6.6,167,6.1,167c-0.5,0-0.9,0.2-1.1,0.7c-0.2,0.5-0.4,1.2-0.4,2.1
			c0,0.9,0.1,1.6,0.4,2.1s0.6,0.7,1.1,0.7C6.6,172.6,7,172.4,7.2,171.9z"/>
		<path class="st2" d="M9.8,172.1h1v1.1h-1V172.1z"/>
		<path class="st2" d="M16.7,168.2c0,0.5-0.1,0.9-0.4,1.3c-0.3,0.3-0.8,0.7-1.5,1.1c-0.8,0.4-1.3,0.8-1.6,1.2
			c-0.1,0.2-0.2,0.3-0.3,0.5h3.8v0.9h-4.8v0c0-0.7,0.2-1.3,0.6-1.8s1.1-1,2.1-1.5c0.5-0.3,0.8-0.5,1-0.8c0.2-0.2,0.3-0.5,0.3-0.9
			c0-0.4-0.1-0.7-0.4-0.9c-0.3-0.2-0.6-0.4-1-0.4c-0.4,0-0.8,0.1-1,0.4s-0.4,0.7-0.4,1.3h-0.9c0-0.8,0.2-1.4,0.6-1.8
			c0.4-0.4,1-0.7,1.8-0.7c0.7,0,1.2,0.2,1.6,0.6C16.5,167.1,16.7,167.6,16.7,168.2z"/>
	</g>
	<g>
		<path class="st2" d="M12.2,146.7c-0.4-0.6-0.6-1.5-0.6-2.7c0-1.2,0.2-2,0.6-2.7c0.4-0.6,1-0.9,1.8-0.9c0.8,0,1.4,0.3,1.8,0.9
			c0.4,0.6,0.6,1.5,0.6,2.7c0,1.2-0.2,2-0.6,2.7c-0.4,0.6-1,0.9-1.8,0.9C13.3,147.7,12.7,147.3,12.2,146.7z M15.1,146.2
			c0.2-0.5,0.4-1.2,0.4-2.1c0-0.9-0.1-1.6-0.4-2.1c-0.2-0.5-0.6-0.7-1.1-0.7c-0.5,0-0.9,0.2-1.1,0.7c-0.2,0.5-0.4,1.2-0.4,2.1
			c0,0.9,0.1,1.6,0.4,2.1s0.6,0.7,1.1,0.7C14.5,146.9,14.9,146.6,15.1,146.2z"/>
	</g>
	<g>
		<path class="st2" d="M4,121c-0.4-0.6-0.6-1.5-0.6-2.7c0-1.2,0.2-2,0.6-2.7c0.4-0.6,1-0.9,1.8-0.9c0.8,0,1.4,0.3,1.8,0.9
			c0.4,0.6,0.6,1.5,0.6,2.7c0,1.2-0.2,2-0.6,2.7c-0.4,0.6-1,0.9-1.8,0.9C5,121.9,4.4,121.6,4,121z M6.9,120.4
			c0.2-0.5,0.4-1.2,0.4-2.1c0-0.9-0.1-1.6-0.4-2.1c-0.2-0.5-0.6-0.7-1.1-0.7c-0.5,0-0.9,0.2-1.1,0.7c-0.2,0.5-0.4,1.2-0.4,2.1
			c0,0.9,0.1,1.6,0.4,2.1s0.6,0.7,1.1,0.7C6.3,121.1,6.6,120.9,6.9,120.4z"/>
		<path class="st2" d="M9.4,120.7h1v1.1h-1V120.7z"/>
	</g>
	<g>
		<path class="st2" d="M15.6,116.8c0,0.5-0.1,0.9-0.4,1.3c-0.3,0.3-0.8,0.7-1.5,1.1c-0.8,0.4-1.3,0.8-1.6,1.2
			c-0.1,0.2-0.2,0.3-0.3,0.5h3.8v0.9h-4.8v0c0-0.7,0.2-1.3,0.6-1.8s1.1-1,2.1-1.5c0.5-0.3,0.8-0.5,1-0.8c0.2-0.2,0.3-0.5,0.3-0.9
			c0-0.4-0.1-0.7-0.4-0.9c-0.3-0.2-0.6-0.4-1-0.4c-0.4,0-0.8,0.1-1,0.4s-0.4,0.7-0.4,1.3h-0.9c0-0.8,0.2-1.4,0.6-1.8
			c0.4-0.4,1-0.7,1.8-0.7c0.7,0,1.2,0.2,1.6,0.6C15.4,115.7,15.6,116.2,15.6,116.8z"/>
	</g>
	<g>
		<path class="st2" d="M4,95.3c-0.4-0.6-0.6-1.5-0.6-2.7c0-1.2,0.2-2,0.6-2.7C4.4,89.3,5,89,5.8,89c0.8,0,1.4,0.3,1.8,0.9
			c0.4,0.6,0.6,1.5,0.6,2.7c0,1.2-0.2,2-0.6,2.7c-0.4,0.6-1,0.9-1.8,0.9C5,96.2,4.4,95.9,4,95.3z M6.9,94.7c0.2-0.5,0.4-1.2,0.4-2.1
			c0-0.9-0.1-1.6-0.4-2.1c-0.2-0.5-0.6-0.7-1.1-0.7c-0.5,0-0.9,0.2-1.1,0.7c-0.2,0.5-0.4,1.2-0.4,2.1c0,0.9,0.1,1.6,0.4,2.1
			s0.6,0.7,1.1,0.7C6.3,95.4,6.6,95.2,6.9,94.7z"/>
		<path class="st2" d="M9.4,95h1V96h-1V95z"/>
	</g>
	<g>
		<path class="st2" d="M10.7,94.3v-0.4v-0.4L14,89h0.4h0.4v4.6h1v0.8h-1V96h-0.9v-1.7H10.7z M13.8,93.6v-3.2l-2.2,3.1l0,0.1H13.8z"
			/>
	</g>
	<g>
		<path class="st2" d="M4,69.5c-0.4-0.6-0.6-1.5-0.6-2.7c0-1.2,0.2-2,0.6-2.7c0.4-0.6,1-0.9,1.8-0.9c0.8,0,1.4,0.3,1.8,0.9
			c0.4,0.6,0.6,1.5,0.6,2.7c0,1.2-0.2,2-0.6,2.7c-0.4,0.6-1,0.9-1.8,0.9C5,70.5,4.4,70.2,4,69.5z M6.9,69c0.2-0.5,0.4-1.2,0.4-2.1
			c0-0.9-0.1-1.6-0.4-2.1c-0.2-0.5-0.6-0.7-1.1-0.7c-0.5,0-0.9,0.2-1.1,0.7c-0.2,0.5-0.4,1.2-0.4,2.1c0,0.9,0.1,1.6,0.4,2.1
			s0.6,0.7,1.1,0.7C6.3,69.7,6.6,69.5,6.9,69z"/>
		<path class="st2" d="M9.4,69.2h1v1.1h-1V69.2z"/>
	</g>
	<g>
		<path class="st2" d="M13.5,63.3c0.6,0,1.1,0.2,1.5,0.5c0.4,0.3,0.6,0.8,0.6,1.4h-0.9c0-0.3-0.2-0.6-0.4-0.8
			c-0.2-0.2-0.5-0.3-0.8-0.3c-0.5,0-1,0.3-1.3,0.8c-0.3,0.4-0.4,1.1-0.4,1.8c0.4-0.6,1-0.8,1.7-0.8c0.7,0,1.2,0.2,1.6,0.6
			c0.4,0.4,0.6,1,0.6,1.7c0,0.7-0.2,1.3-0.7,1.7c-0.4,0.4-1,0.6-1.7,0.6c-0.8,0-1.4-0.3-1.8-0.9c-0.4-0.6-0.6-1.4-0.6-2.5
			c0-1.2,0.2-2.1,0.7-2.8C12,63.6,12.6,63.3,13.5,63.3z M11.9,68.2c0,0.5,0.1,0.8,0.4,1.1c0.3,0.3,0.6,0.4,1,0.4
			c0.4,0,0.8-0.1,1-0.4c0.3-0.3,0.4-0.7,0.4-1.1c0-0.5-0.1-0.8-0.4-1.1c-0.3-0.3-0.6-0.4-1-0.4c-0.4,0-0.8,0.1-1,0.4
			C12,67.3,11.9,67.7,11.9,68.2z"/>
	</g>
	<g>
		<path class="st2" d="M4,43.8c-0.4-0.6-0.6-1.5-0.6-2.7c0-1.2,0.2-2,0.6-2.7c0.4-0.6,1-0.9,1.8-0.9c0.8,0,1.4,0.3,1.8,0.9
			C8,39.1,8.2,40,8.2,41.2c0,1.2-0.2,2-0.6,2.7c-0.4,0.6-1,0.9-1.8,0.9C5,44.8,4.4,44.4,4,43.8z M6.9,43.3c0.2-0.5,0.4-1.2,0.4-2.1
			c0-0.9-0.1-1.6-0.4-2.1c-0.2-0.5-0.6-0.7-1.1-0.7c-0.5,0-0.9,0.2-1.1,0.7c-0.2,0.5-0.4,1.2-0.4,2.1c0,0.9,0.1,1.6,0.4,2.1
			S5.3,44,5.8,44C6.3,44,6.6,43.7,6.9,43.3z"/>
		<path class="st2" d="M9.4,43.5h1v1.1h-1V43.5z"/>
	</g>
	<g>
		<path class="st2" d="M14.5,40.8c0.2,0.1,0.4,0.2,0.5,0.3c0.4,0.4,0.7,0.8,0.7,1.4c0,0.7-0.2,1.2-0.7,1.6s-1,0.6-1.7,0.6
			c-0.7,0-1.3-0.2-1.7-0.6c-0.4-0.4-0.7-0.9-0.7-1.6c0-0.6,0.2-1.1,0.7-1.4c0.2-0.1,0.3-0.2,0.5-0.3c-0.1-0.1-0.2-0.1-0.3-0.2
			c-0.4-0.3-0.6-0.7-0.6-1.2c0-0.6,0.2-1,0.6-1.4s0.9-0.5,1.6-0.5s1.2,0.2,1.6,0.5s0.6,0.8,0.6,1.4c0,0.5-0.2,0.9-0.6,1.2
			C14.7,40.7,14.6,40.8,14.5,40.8z M13.3,41.2c-0.4,0-0.8,0.1-1.1,0.4c-0.3,0.3-0.4,0.6-0.4,1c0,0.4,0.1,0.7,0.4,1
			c0.3,0.3,0.6,0.4,1.1,0.4s0.8-0.1,1.1-0.4s0.4-0.6,0.4-1c0-0.4-0.1-0.7-0.4-1C14.1,41.4,13.7,41.2,13.3,41.2z M13.3,40.5
			c0.4,0,0.7-0.1,0.9-0.3c0.2-0.2,0.3-0.5,0.3-0.8c0-0.3-0.1-0.6-0.3-0.8c-0.2-0.2-0.5-0.3-0.9-0.3c-0.4,0-0.7,0.1-0.9,0.3
			c-0.2,0.2-0.3,0.5-0.3,0.8c0,0.3,0.1,0.6,0.3,0.8C12.6,40.4,12.9,40.5,13.3,40.5z"/>
	</g>
	<g>
		<path class="st2" d="M13.9,13.9h-1.6v-0.7c0.5,0,0.9-0.1,1.2-0.3c0.3-0.2,0.5-0.6,0.7-1h0.7v7h-0.5h-0.5V13.9z"/>
	</g>
	<g>
		<path class="st4" d="M81.4,6c-0.5,0.4-1.1,0.6-2,0.6h-1.6v2.8h-1.6V1.5h3.4c0.8,0,1.4,0.2,1.9,0.6s0.7,1,0.7,1.9
			C82.1,5,81.9,5.6,81.4,6z M80.1,3.2c-0.2-0.2-0.5-0.3-0.9-0.3h-1.5v2.3h1.5c0.4,0,0.7-0.1,0.9-0.3s0.3-0.5,0.3-0.9
			S80.4,3.4,80.1,3.2z"/>
		<path class="st4" d="M84.9,9.5h-1.5V1.5h1.5V9.5z"/>
		<path class="st4" d="M91.2,8.7C90.7,9.4,90,9.7,89,9.7s-1.8-0.3-2.3-0.9S86,7.4,86,6.5c0-0.8,0.2-1.6,0.7-2.2
			C87.2,3.7,88,3.4,89,3.4s1.8,0.3,2.3,0.9C91.7,5,92,5.7,92,6.5C92,7.4,91.7,8.1,91.2,8.7z M90,7.9c0.2-0.3,0.4-0.8,0.4-1.4
			s-0.1-1-0.4-1.4s-0.6-0.5-1-0.5s-0.8,0.2-1,0.5S87.6,6,87.6,6.5s0.1,1,0.4,1.4c0.2,0.3,0.6,0.5,1,0.5S89.8,8.2,90,7.9z"/>
		<path class="st4" d="M92.5,4.7V3.7h0.8V2h1.5v1.6h1v1.1h-1v3.1c0,0.2,0,0.4,0.1,0.4s0.2,0.1,0.6,0.1c0,0,0.1,0,0.1,0
			c0.1,0,0.1,0,0.2,0v1.1l-0.7,0c-0.7,0-1.2-0.1-1.5-0.4c-0.2-0.2-0.3-0.4-0.3-0.8V4.7H92.5z"/>
		<path class="st4" d="M104.7,8.7c-0.5,0.6-1.2,0.9-2.3,0.9s-1.8-0.3-2.3-0.9s-0.7-1.3-0.7-2.2c0-0.8,0.2-1.6,0.7-2.2
			c0.5-0.6,1.2-0.9,2.3-0.9s1.8,0.3,2.3,0.9c0.5,0.6,0.7,1.4,0.7,2.2C105.4,7.4,105.2,8.1,104.7,8.7z M103.5,7.9
			c0.2-0.3,0.4-0.8,0.4-1.4s-0.1-1-0.4-1.4s-0.6-0.5-1-0.5s-0.8,0.2-1,0.5S101,6,101,6.5s0.1,1,0.4,1.4c0.2,0.3,0.6,0.5,1,0.5
			S103.2,8.2,103.5,7.9z"/>
		<path class="st4" d="M108.9,1.5c0.1,0,0.2,0,0.3,0v1.2c-0.1,0-0.2,0-0.4,0c-0.2,0-0.3,0-0.4,0.1c-0.1,0.1-0.1,0.2-0.1,0.3
			c0,0.1,0,0.3,0,0.5h1v1.1h-1v4.7h-1.5V4.7h-0.9V3.7h0.8V3.3c0-0.6,0.1-1.1,0.3-1.3c0.2-0.4,0.8-0.5,1.6-0.5
			C108.8,1.5,108.9,1.5,108.9,1.5z"/>
		<path class="st4" d="M113.3,1.5h1.7l3.1,5.5V1.5h1.5v7.9h-1.7l-3.2-5.6v5.6h-1.5V1.5z"/>
		<path class="st4" d="M126.6,4.6V6h-5.8V4.6H126.6z M126.6,7.1v1.4h-5.8V7.1H126.6z"/>
		<path class="st4" d="M127.7,4.1V3c0.5,0,0.8-0.1,1-0.1c0.3-0.1,0.6-0.2,0.8-0.4c0.1-0.1,0.2-0.3,0.3-0.6c0-0.1,0.1-0.2,0.1-0.3
			h1.3v7.8h-1.6V4.1H127.7z"/>
		<path class="st4" d="M137,3.6c0-0.1,0-0.3-0.1-0.4c-0.2-0.2-0.4-0.4-0.7-0.4c-0.5,0-0.9,0.3-1.1,0.8c-0.1,0.3-0.2,0.8-0.2,1.4
			c0.2-0.2,0.4-0.4,0.7-0.5s0.5-0.2,0.9-0.2c0.7,0,1.3,0.2,1.7,0.7c0.4,0.5,0.7,1.1,0.7,1.8c0,0.7-0.2,1.4-0.6,1.9s-1.1,0.8-2,0.8
			c-1,0-1.7-0.4-2.2-1.2c-0.4-0.6-0.5-1.5-0.5-2.5c0-0.6,0-1.1,0.1-1.5c0.1-0.7,0.3-1.2,0.5-1.7c0.2-0.4,0.5-0.7,0.9-0.9
			c0.4-0.2,0.8-0.3,1.3-0.3c0.7,0,1.3,0.2,1.7,0.6s0.7,0.9,0.7,1.5H137z M135.2,8c0.2,0.3,0.5,0.4,0.9,0.4c0.3,0,0.6-0.1,0.8-0.4
			c0.2-0.3,0.3-0.6,0.3-1c0-0.5-0.1-0.8-0.3-1s-0.5-0.4-0.8-0.4c-0.3,0-0.5,0.1-0.7,0.2c-0.3,0.2-0.5,0.6-0.5,1.1
			C134.9,7.4,135,7.8,135.2,8z"/>
		<path class="st4" d="M144.1,7.6c0,0.3,0.1,0.5,0.2,0.6c0.2,0.2,0.5,0.3,1.1,0.3c0.3,0,0.5,0,0.7-0.1s0.3-0.2,0.3-0.4
			c0-0.2-0.1-0.3-0.2-0.4c-0.1-0.1-0.7-0.2-1.6-0.5c-0.7-0.2-1.1-0.4-1.4-0.6c-0.3-0.2-0.4-0.6-0.4-1.1c0-0.5,0.2-1,0.6-1.4
			c0.4-0.4,1-0.6,1.8-0.6c0.7,0,1.3,0.1,1.8,0.4c0.5,0.3,0.7,0.8,0.8,1.5h-1.5c0-0.2-0.1-0.4-0.2-0.5c-0.2-0.2-0.5-0.3-0.9-0.3
			c-0.3,0-0.6,0.1-0.7,0.2c-0.1,0.1-0.2,0.2-0.2,0.4c0,0.2,0.1,0.3,0.2,0.4c0.2,0.1,0.7,0.2,1.6,0.4c0.6,0.1,1.1,0.4,1.4,0.6
			c0.3,0.3,0.5,0.7,0.5,1.1c0,0.6-0.2,1.1-0.6,1.4c-0.4,0.4-1.1,0.6-2,0.6c-0.9,0-1.6-0.2-2-0.6c-0.4-0.4-0.7-0.9-0.7-1.5H144.1z"/>
		<path class="st4" d="M151.3,5.9c0.3,0,0.5-0.1,0.6-0.1c0.2-0.1,0.3-0.2,0.3-0.4c0-0.2-0.1-0.4-0.3-0.5c-0.2-0.1-0.4-0.1-0.7-0.1
			c-0.4,0-0.6,0.1-0.8,0.3c-0.1,0.1-0.2,0.3-0.2,0.5h-1.5c0-0.5,0.2-0.9,0.4-1.3c0.4-0.5,1.1-0.8,2.1-0.8c0.6,0,1.2,0.1,1.7,0.4
			c0.5,0.3,0.7,0.7,0.7,1.4V8c0,0.2,0,0.4,0,0.7c0,0.2,0,0.3,0.1,0.4s0.1,0.1,0.2,0.2v0.2h-1.7c0-0.1-0.1-0.2-0.1-0.3s0-0.2,0-0.4
			c-0.2,0.2-0.5,0.4-0.7,0.6c-0.3,0.2-0.7,0.3-1.1,0.3c-0.5,0-1-0.2-1.3-0.5c-0.3-0.3-0.5-0.7-0.5-1.3c0-0.7,0.3-1.2,0.8-1.6
			c0.3-0.2,0.8-0.3,1.4-0.4L151.3,5.9z M152.3,6.6c-0.1,0.1-0.2,0.1-0.3,0.1c-0.1,0-0.2,0.1-0.4,0.1l-0.3,0.1
			c-0.3,0.1-0.6,0.1-0.7,0.2c-0.2,0.1-0.4,0.4-0.4,0.6c0,0.3,0.1,0.5,0.2,0.6c0.1,0.1,0.3,0.2,0.5,0.2c0.3,0,0.6-0.1,0.9-0.3
			s0.4-0.5,0.4-1.1V6.6z"/>
		<path class="st4" d="M162.4,3.6c0.3,0.1,0.5,0.3,0.7,0.5c0.2,0.2,0.3,0.5,0.3,0.8c0,0.2,0.1,0.5,0.1,0.9l0,3.7h-1.6V5.7
			c0-0.2,0-0.4-0.1-0.5c-0.1-0.3-0.4-0.4-0.8-0.4c-0.4,0-0.7,0.2-0.9,0.5c-0.1,0.2-0.1,0.4-0.1,0.7v3.5h-1.5V6c0-0.3,0-0.6-0.1-0.8
			c-0.1-0.3-0.4-0.4-0.8-0.4c-0.4,0-0.7,0.1-0.9,0.4c-0.1,0.2-0.1,0.4-0.1,0.7v3.5h-1.6V3.6h1.5v0.9c0.2-0.3,0.4-0.5,0.5-0.6
			c0.3-0.2,0.7-0.3,1.2-0.3c0.4,0,0.8,0.1,1.1,0.3c0.2,0.2,0.4,0.4,0.5,0.7c0.2-0.3,0.4-0.6,0.7-0.8c0.3-0.2,0.7-0.2,1.1-0.2
			C161.9,3.5,162.2,3.5,162.4,3.6z"/>
		<path class="st4" d="M169.8,4.2c0.5,0.5,0.7,1.2,0.7,2.2c0,1-0.2,1.8-0.7,2.4c-0.5,0.5-1.1,0.8-1.8,0.8c-0.5,0-0.9-0.1-1.2-0.3
			c-0.2-0.1-0.3-0.3-0.5-0.6v3.1h-1.5V3.6h1.5v0.9c0.2-0.3,0.3-0.5,0.5-0.6c0.3-0.3,0.7-0.4,1.2-0.4C168.8,3.5,169.4,3.7,169.8,4.2z
			 M168.7,5.3c-0.2-0.3-0.5-0.5-1-0.5c-0.6,0-0.9,0.3-1.2,0.8c-0.1,0.3-0.2,0.6-0.2,1.1c0,0.7,0.2,1.2,0.5,1.4
			c0.2,0.2,0.5,0.2,0.8,0.2c0.4,0,0.8-0.2,1-0.5c0.2-0.3,0.3-0.8,0.3-1.3C169,6.1,168.9,5.7,168.7,5.3z"/>
		<path class="st4" d="M173.2,9.5h-1.5V1.5h1.5V9.5z"/>
		<path class="st4" d="M178.5,3.7c0.4,0.2,0.7,0.5,1,0.9c0.2,0.3,0.4,0.8,0.5,1.2c0,0.3,0.1,0.7,0,1.2h-4.3c0,0.6,0.2,1,0.6,1.2
			c0.2,0.1,0.5,0.2,0.8,0.2c0.3,0,0.6-0.1,0.9-0.3c0.1-0.1,0.2-0.2,0.3-0.4h1.6c0,0.3-0.2,0.7-0.6,1.1c-0.5,0.6-1.3,0.9-2.2,0.9
			c-0.8,0-1.5-0.2-2.1-0.7c-0.6-0.5-0.9-1.3-0.9-2.3c0-1,0.3-1.8,0.8-2.3c0.5-0.5,1.2-0.8,2.1-0.8C177.6,3.4,178.1,3.5,178.5,3.7z
			 M176.2,5c-0.2,0.2-0.4,0.5-0.4,0.9h2.6c0-0.4-0.2-0.7-0.4-0.9c-0.2-0.2-0.5-0.3-0.9-0.3C176.7,4.7,176.4,4.8,176.2,5z"/>
		<path class="st4" d="M182,7.6c0,0.3,0.1,0.5,0.2,0.6c0.2,0.2,0.5,0.3,1.1,0.3c0.3,0,0.5,0,0.7-0.1c0.2-0.1,0.3-0.2,0.3-0.4
			c0-0.2-0.1-0.3-0.2-0.4s-0.7-0.2-1.6-0.5c-0.7-0.2-1.1-0.4-1.4-0.6c-0.3-0.2-0.4-0.6-0.4-1.1c0-0.5,0.2-1,0.6-1.4
			c0.4-0.4,1-0.6,1.8-0.6c0.7,0,1.3,0.1,1.8,0.4c0.5,0.3,0.7,0.8,0.8,1.5h-1.5c0-0.2-0.1-0.4-0.2-0.5c-0.2-0.2-0.5-0.3-0.9-0.3
			c-0.3,0-0.6,0.1-0.7,0.2c-0.1,0.1-0.2,0.2-0.2,0.4c0,0.2,0.1,0.3,0.2,0.4c0.2,0.1,0.7,0.2,1.6,0.4c0.6,0.1,1.1,0.4,1.4,0.6
			c0.3,0.3,0.5,0.7,0.5,1.1c0,0.6-0.2,1.1-0.6,1.4c-0.4,0.4-1.1,0.6-2,0.6c-0.9,0-1.6-0.2-2-0.6c-0.4-0.4-0.7-0.9-0.7-1.5H182z"/>
		<path class="st4" d="M194.9,8.7c-0.5,0.6-1.2,0.9-2.3,0.9c-1,0-1.8-0.3-2.3-0.9s-0.7-1.3-0.7-2.2c0-0.8,0.2-1.6,0.7-2.2
			c0.5-0.6,1.2-0.9,2.3-0.9c1,0,1.8,0.3,2.3,0.9c0.5,0.6,0.7,1.4,0.7,2.2C195.6,7.4,195.4,8.1,194.9,8.7z M193.6,7.9
			c0.2-0.3,0.4-0.8,0.4-1.4s-0.1-1-0.4-1.4s-0.6-0.5-1-0.5s-0.8,0.2-1,0.5c-0.2,0.3-0.4,0.8-0.4,1.4s0.1,1,0.4,1.4
			c0.2,0.3,0.6,0.5,1,0.5S193.4,8.2,193.6,7.9z"/>
		<path class="st4" d="M199.1,1.5c0.1,0,0.2,0,0.3,0v1.2c-0.1,0-0.2,0-0.4,0s-0.3,0-0.4,0.1c-0.1,0.1-0.1,0.2-0.1,0.3
			c0,0.1,0,0.3,0,0.5h1v1.1h-1v4.7H197V4.7h-0.9V3.7h0.8V3.3c0-0.6,0.1-1.1,0.3-1.3c0.2-0.4,0.8-0.5,1.6-0.5
			C199,1.5,199,1.5,199.1,1.5z"/>
		<path class="st4" d="M202.8,9.5l2-3l-1.9-2.9h1.9l1,1.7l1-1.7h1.8l-1.9,2.9l2,3h-1.9l-1-1.8l-1,1.8H202.8z"/>
		<path class="st4" d="M209.5,1.5h2.7v1.1H211v7.9h1.2v1.1h-2.7V1.5z"/>
		<path class="st4" d="M217.9,3.9c0.4,0.3,0.6,0.8,0.6,1.6v3.9h-1.6V5.9c0-0.3,0-0.5-0.1-0.7c-0.1-0.3-0.4-0.5-0.9-0.5
			c-0.5,0-0.9,0.2-1.1,0.7c-0.1,0.2-0.1,0.5-0.1,0.9v3.2h-1.5V3.6h1.5v0.9c0.2-0.3,0.4-0.5,0.6-0.6c0.3-0.2,0.7-0.4,1.2-0.4
			C217,3.5,217.5,3.6,217.9,3.9z"/>
		<path class="st4" d="M219.5,10.5h1.2V2.6h-1.2V1.5h2.7v10.1h-2.7V10.5z"/>
		<path class="st4" d="M229,4.6V6h-5.8V4.6H229z M229,7.1v1.4h-5.8V7.1H229z"/>
		<path class="st4" d="M233.5,5.7c0-0.2-0.1-0.4-0.2-0.6c-0.2-0.2-0.4-0.4-0.8-0.4c-0.5,0-0.9,0.3-1.1,0.8c-0.1,0.3-0.2,0.6-0.2,1.1
			c0,0.4,0,0.8,0.2,1c0.2,0.5,0.5,0.7,1,0.7c0.4,0,0.6-0.1,0.8-0.3c0.2-0.2,0.2-0.4,0.3-0.8h1.6c0,0.5-0.2,0.9-0.5,1.3
			c-0.5,0.7-1.2,1-2.1,1s-1.6-0.3-2.1-0.8s-0.7-1.3-0.7-2.2c0-1,0.2-1.8,0.7-2.3s1.2-0.8,2-0.8c0.7,0,1.3,0.2,1.8,0.5
			s0.7,0.9,0.8,1.7H233.5z"/>
		<path class="st4" d="M241,8.7c-0.5,0.6-1.2,0.9-2.3,0.9c-1,0-1.8-0.3-2.3-0.9s-0.7-1.3-0.7-2.2c0-0.8,0.2-1.6,0.7-2.2
			c0.5-0.6,1.2-0.9,2.3-0.9c1,0,1.8,0.3,2.3,0.9c0.5,0.6,0.7,1.4,0.7,2.2C241.7,7.4,241.5,8.1,241,8.7z M239.8,7.9
			c0.2-0.3,0.4-0.8,0.4-1.4s-0.1-1-0.4-1.4s-0.6-0.5-1-0.5s-0.8,0.2-1,0.5c-0.2,0.3-0.4,0.8-0.4,1.4s0.1,1,0.4,1.4
			c0.2,0.3,0.6,0.5,1,0.5S239.5,8.2,239.8,7.9z"/>
		<path class="st4" d="M244,7.6c0,0.3,0.1,0.5,0.2,0.6c0.2,0.2,0.5,0.3,1.1,0.3c0.3,0,0.5,0,0.7-0.1c0.2-0.1,0.3-0.2,0.3-0.4
			c0-0.2-0.1-0.3-0.2-0.4s-0.7-0.2-1.6-0.5c-0.7-0.2-1.1-0.4-1.4-0.6c-0.3-0.2-0.4-0.6-0.4-1.1c0-0.5,0.2-1,0.6-1.4
			c0.4-0.4,1-0.6,1.8-0.6c0.7,0,1.3,0.1,1.8,0.4c0.5,0.3,0.7,0.8,0.8,1.5h-1.5c0-0.2-0.1-0.4-0.2-0.5c-0.2-0.2-0.5-0.3-0.9-0.3
			c-0.3,0-0.6,0.1-0.7,0.2c-0.1,0.1-0.2,0.2-0.2,0.4c0,0.2,0.1,0.3,0.2,0.4c0.2,0.1,0.7,0.2,1.6,0.4c0.6,0.1,1.1,0.4,1.4,0.6
			c0.3,0.3,0.5,0.7,0.5,1.1c0,0.6-0.2,1.1-0.6,1.4c-0.4,0.4-1.1,0.6-2,0.6c-0.9,0-1.6-0.2-2-0.6c-0.4-0.4-0.7-0.9-0.7-1.5H244z"/>
		<path class="st4" d="M249.3,3.4c0.3-0.6,0.5-1.1,0.8-1.5l0.4-0.5l0.9,0c-0.5,0.9-0.8,1.6-1,2.2c-0.3,0.9-0.4,1.9-0.4,3
			c0,0.7,0.1,1.3,0.2,1.9c0.2,0.9,0.5,1.8,0.9,2.6l0.3,0.6h-0.9c-0.6-0.8-1-1.6-1.3-2.3c-0.4-0.9-0.5-1.8-0.5-2.7
			C248.6,5.6,248.9,4.5,249.3,3.4z"/>
		<path class="st4" d="M253,3.4c0.3-0.6,0.5-1.1,0.8-1.5l0.4-0.5l0.9,0c-0.5,0.9-0.8,1.6-1,2.2c-0.3,0.9-0.4,1.9-0.4,3
			c0,0.7,0.1,1.3,0.2,1.9c0.2,0.9,0.5,1.8,0.9,2.6l0.3,0.6h-0.9c-0.6-0.8-1-1.6-1.3-2.3c-0.4-0.9-0.5-1.8-0.5-2.7
			C252.3,5.6,252.5,4.5,253,3.4z"/>
		<path class="st4" d="M256.3,7.9c0.2-0.5,0.7-1.1,1.5-1.6c0.7-0.5,1.2-0.9,1.4-1.1c0.3-0.3,0.5-0.7,0.5-1.1c0-0.3-0.1-0.6-0.3-0.8
			c-0.2-0.2-0.4-0.3-0.8-0.3c-0.5,0-0.8,0.2-1,0.5c-0.1,0.2-0.2,0.5-0.2,1H256c0-0.7,0.1-1.2,0.4-1.6c0.4-0.8,1.1-1.2,2.2-1.2
			c0.8,0,1.5,0.2,2,0.7s0.7,1.1,0.7,1.8c0,0.6-0.2,1.1-0.5,1.5c-0.2,0.3-0.6,0.6-1.1,1L259,7.1c-0.4,0.3-0.6,0.5-0.8,0.6
			s-0.3,0.3-0.4,0.4h3.4v1.3h-5.3C255.9,8.9,256.1,8.4,256.3,7.9z"/>
	</g>
	<path d="M263.1,9.3c0,0,0-0.1,0-0.2c0.2-0.4,0.4-0.9,0.6-1.3c0.2-0.4,0.3-0.8,0.5-1.2s0.3-0.8,0.4-1.3h-0.7c0,0-0.1,0.1-0.2,0.3
		c-0.1,0.2-0.3,0.4-0.4,0.6c0,0-0.3,0-0.8,0h-0.1c-0.1,0-0.1,0-0.1-0.1c0,0,0,0,0-0.1c0.2-0.4,0.5-0.8,0.8-1
		c0.3-0.3,0.6-0.4,0.9-0.4h4.1c0.6,0,0.9,0,0.9,0.1c0.1,0.1,0.1,0.1,0.1,0.2c0,0.1,0,0.2-0.1,0.3c-0.1,0.1-0.4,0.1-1,0.1h-0.7
		c-0.1,0.6-0.2,1.2-0.2,1.7c0,0.7,0.1,1.4,0.4,2c0,0,0,0.1,0,0.1c0,0.1,0,0.2-0.1,0.2c0,0.1-0.1,0.1-0.2,0.2c-0.1,0-0.4,0.1-1,0.1
		c-0.2,0-0.3-0.2-0.4-0.5c-0.1-0.3-0.1-0.6-0.1-0.9c0-0.4,0-0.8,0.1-1.2c0.1-0.4,0.2-0.9,0.4-1.6h-0.5c-0.6,2.4-0.9,3.7-1.1,4
		c-0.1,0.2-0.5,0.3-1.2,0.3c-0.1,0-0.2,0-0.2-0.1C263.2,9.4,263.1,9.4,263.1,9.3L263.1,9.3z"/>
	<g>
		<path class="st4" d="M272,1.3h1.3l-3.1,8.2h-1.3L272,1.3z"/>
		<path class="st4" d="M276.6,3.6c0-0.1,0-0.3-0.1-0.4c-0.2-0.2-0.4-0.4-0.7-0.4c-0.5,0-0.9,0.3-1.1,0.8c-0.1,0.3-0.2,0.8-0.2,1.4
			c0.2-0.2,0.4-0.4,0.7-0.5s0.5-0.2,0.9-0.2c0.7,0,1.3,0.2,1.7,0.7s0.7,1.1,0.7,1.8c0,0.7-0.2,1.4-0.6,1.9c-0.4,0.6-1.1,0.8-2,0.8
			c-1,0-1.7-0.4-2.2-1.2c-0.4-0.6-0.5-1.5-0.5-2.5c0-0.6,0-1.1,0.1-1.5c0.1-0.7,0.3-1.2,0.5-1.7c0.2-0.4,0.5-0.7,0.9-0.9
			c0.4-0.2,0.8-0.3,1.3-0.3c0.7,0,1.3,0.2,1.7,0.6s0.7,0.9,0.7,1.5H276.6z M274.8,8c0.2,0.3,0.5,0.4,0.9,0.4c0.3,0,0.6-0.1,0.8-0.4
			c0.2-0.3,0.3-0.6,0.3-1c0-0.5-0.1-0.8-0.3-1c-0.2-0.2-0.5-0.4-0.8-0.4c-0.3,0-0.5,0.1-0.7,0.2c-0.3,0.2-0.5,0.6-0.5,1.1
			C274.4,7.4,274.5,7.8,274.8,8z"/>
		<path class="st4" d="M281.2,3.5c0.4,1,0.6,1.9,0.6,2.9c0,1.1-0.2,2.2-0.7,3.3c-0.3,0.6-0.5,1.1-0.8,1.4l-0.4,0.5h-1.1
			c0.5-0.9,0.8-1.6,1-2.1c0.3-0.9,0.5-1.9,0.5-3c0-0.7-0.1-1.4-0.2-1.9c-0.2-0.9-0.5-1.8-0.9-2.6l-0.3-0.6h1.2
			C280.5,2.2,280.9,2.9,281.2,3.5z"/>
		<path class="st4" d="M287.8,3.9c0.4,0.3,0.6,0.8,0.6,1.6v3.9h-1.6V5.9c0-0.3,0-0.5-0.1-0.7c-0.1-0.3-0.4-0.5-0.9-0.5
			c-0.5,0-0.9,0.2-1.1,0.7c-0.1,0.2-0.1,0.5-0.1,0.9v3.2h-1.5V3.6h1.5v0.9c0.2-0.3,0.4-0.5,0.6-0.6c0.3-0.2,0.7-0.4,1.2-0.4
			C286.9,3.5,287.4,3.6,287.8,3.9z"/>
		<path class="st4" d="M291.6,3.5c0.4,1,0.6,1.9,0.6,2.9c0,1.1-0.2,2.2-0.7,3.3c-0.3,0.6-0.5,1.1-0.8,1.4l-0.4,0.5h-1.1
			c0.5-0.9,0.8-1.6,1-2.1c0.3-0.9,0.5-1.9,0.5-3c0-0.7-0.1-1.4-0.2-1.9c-0.2-0.9-0.5-1.8-0.9-2.6l-0.3-0.6h1.2
			C290.9,2.2,291.3,2.9,291.6,3.5z"/>
	</g>
	<line class="st5" x1="21.2" y1="143.3" x2="346.8" y2="143.3"/>
	<polyline class="st6" points="21.2,14.7 23.3,15.4 25.3,17.5 27.4,21 29.4,25.8 31.4,32 33.5,39.3 35.5,47.8 37.5,57.3 39.6,67.7 
		41.6,79 43.6,91 45.7,103.6 47.7,116.6 49.7,129.9 51.8,143.3 53.8,156.8 55.8,170.1 57.9,183.1 59.9,195.7 61.9,207.7 64,218.9 
		66,229.4 68,238.9 70.1,247.4 72.1,254.7 74.1,260.8 76.2,265.7 78.2,269.2 80.2,271.3 82.3,272 84.3,271.3 86.3,269.2 88.4,265.7 
		90.4,260.8 92.5,254.7 94.5,247.4 96.5,238.9 98.6,229.4 100.6,218.9 102.6,207.7 104.7,195.7 106.7,183.1 108.7,170.1 
		110.8,156.8 112.8,143.3 114.8,129.9 116.9,116.6 118.9,103.6 120.9,91 123,79 125,67.7 127,57.3 129.1,47.8 131.1,39.3 133.1,32 
		135.2,25.8 137.2,21 139.2,17.5 141.3,15.4 143.3,14.7 145.3,15.4 147.4,17.5 149.4,21 151.4,25.8 153.5,32 155.5,39.3 157.6,47.8 
		159.6,57.3 161.6,67.7 163.7,79 165.7,91 167.7,103.6 169.8,116.6 171.8,129.9 173.8,143.3 175.9,156.8 177.9,170.1 179.9,183.1 
		182,195.7 184,207.7 186,218.9 188.1,229.4 190.1,238.9 192.1,247.4 194.2,254.7 196.2,260.8 198.2,265.7 200.3,269.2 202.3,271.3 
		204.3,272 206.4,271.3 208.4,269.2 210.4,265.7 212.5,260.8 214.5,254.7 216.6,247.4 218.6,238.9 220.6,229.4 222.7,218.9 
		224.7,207.7 226.7,195.7 228.8,183.1 230.8,170.1 232.8,156.8 234.9,143.3 236.9,129.9 238.9,116.6 241,103.6 243,91 245,79 
		247.1,67.7 249.1,57.3 251.1,47.8 253.2,39.3 255.2,32 257.2,25.8 259.3,21 261.3,17.5 263.3,15.4 265.4,14.7 267.4,15.4 
		269.4,17.5 271.5,21 273.5,25.8 275.5,32 277.6,39.3 279.6,47.8 281.6,57.3 283.7,67.7 285.7,79 287.8,91 289.8,103.6 291.8,116.6 
		293.9,129.9 295.9,143.3 297.9,156.8 300,170.1 302,183.1 304,195.7 306.1,207.7 308.1,218.9 310.1,229.4 312.2,238.9 314.2,247.4 
		316.2,254.7 318.3,260.8 320.3,265.7 322.3,269.2 324.4,271.3 326.4,272 328.4,271.3 330.5,269.2 332.5,265.7 334.5,260.8 
		336.6,254.7 338.6,247.4 340.6,238.9 342.7,229.4 344.7,218.9 	"/>
	<path class="st7" d="M24.2,14.7c0-1.7-1.3-3-3-3s-3,1.3-3,3c0,1.7,1.3,3,3,3S24.2,16.4,24.2,14.7L24.2,14.7z M44.6,79
		c0-1.7-1.3-3-3-3s-3,1.3-3,3c0,1.7,1.3,3,3,3S44.6,80.7,44.6,79L44.6,79z M64.9,207.7c0-1.7-1.3-3-3-3s-3,1.3-3,3c0,1.7,1.3,3,3,3
		S64.9,209.3,64.9,207.7L64.9,207.7z M85.3,272c0-1.7-1.3-3-3-3c-1.7,0-3,1.3-3,3s1.3,3,3,3C83.9,275,85.3,273.6,85.3,272L85.3,272z
		 M105.6,207.7c0-1.7-1.3-3-3-3s-3,1.3-3,3c0,1.7,1.3,3,3,3S105.6,209.3,105.6,207.7L105.6,207.7z M126,79c0-1.7-1.3-3-3-3
		s-3,1.3-3,3c0,1.7,1.3,3,3,3S126,80.7,126,79L126,79z M146.3,14.7c0-1.7-1.3-3-3-3c-1.7,0-3,1.3-3,3c0,1.7,1.3,3,3,3
		C145,17.7,146.3,16.4,146.3,14.7L146.3,14.7z M166.7,79c0-1.7-1.3-3-3-3s-3,1.3-3,3c0,1.7,1.3,3,3,3S166.7,80.7,166.7,79L166.7,79z
		 M187,207.7c0-1.7-1.3-3-3-3s-3,1.3-3,3c0,1.7,1.3,3,3,3S187,209.3,187,207.7L187,207.7z M207.3,272c0-1.7-1.3-3-3-3s-3,1.3-3,3
		s1.3,3,3,3S207.3,273.6,207.3,272L207.3,272z M227.7,207.7c0-1.7-1.3-3-3-3c-1.7,0-3,1.3-3,3c0,1.7,1.3,3,3,3
		C226.3,210.7,227.7,209.3,227.7,207.7L227.7,207.7z M248,79c0-1.7-1.3-3-3-3s-3,1.3-3,3c0,1.7,1.3,3,3,3S248,80.7,248,79L248,79z
		 M268.4,14.7c0-1.7-1.3-3-3-3s-3,1.3-3,3c0,1.7,1.3,3,3,3S268.4,16.4,268.4,14.7L268.4,14.7z M288.7,79c0-1.7-1.3-3-3-3s-3,1.3-3,3
		c0,1.7,1.3,3,3,3S288.7,80.7,288.7,79L288.7,79z M309.1,207.7c0-1.7-1.3-3-3-3c-1.7,0-3,1.3-3,3c0,1.7,1.3,3,3,3
		C307.7,210.7,309.1,209.3,309.1,207.7L309.1,207.7z M329.4,272c0-1.7-1.3-3-3-3s-3,1.3-3,3s1.3,3,3,3S329.4,273.6,329.4,272
		L329.4,272z"/>
	<path class="st8" d="M21.2,143.3V14.7 M41.6,143.3V79 M61.9,143.3v64.3 M82.3,143.3V272 M102.6,143.3v64.3 M123,143.3V79
		 M143.3,143.3V14.7 M163.7,143.3V79 M184,143.3v64.3 M204.3,143.3V272 M224.7,143.3v64.3 M245,143.3V79 M265.4,143.3V14.7
		 M285.7,143.3V79 M306.1,143.3v64.3 M326.4,143.3V272"/>
</g>
</svg>
