<?xml version="1.0" encoding="utf-8"?>
<!-- Generator: Adobe Illustrator 22.1.0, SVG Export Plug-In . SVG Version: 6.00 Build 0)  -->
<svg version="1.1" id="Layer_1" xmlns="http://www.w3.org/2000/svg" xmlns:xlink="http://www.w3.org/1999/xlink" x="0px" y="0px"
	 viewBox="0 0 444.2 109" style="enable-background:new 0 0 444.2 109;" xml:space="preserve">
<style type="text/css">
	.st0{fill:none;stroke:#000000;stroke-width:0.8504;stroke-miterlimit:10;}
	.st1{fill:#1D1D1B;}
	.st2{fill:none;stroke:#000000;stroke-width:2.5511;stroke-linecap:round;stroke-miterlimit:10;stroke-dasharray:0,8.0763;}
	.st3{fill:none;stroke:#000000;stroke-width:2.5511;stroke-linecap:round;stroke-miterlimit:10;stroke-dasharray:0,8.0096;}
	.st4{stroke:#F70000;stroke-width:0.8504;stroke-miterlimit:10;}
	.st5{stroke:#FF0000;stroke-width:0.8504;stroke-miterlimit:10;}
	.st6{fill:none;stroke:#FF0000;stroke-width:2.2677;stroke-miterlimit:10;}
	.st7{stroke:#FC0000;stroke-width:0.8504;stroke-miterlimit:10;}
	.st8{fill:#0000FF;}
	.st9{fill:#FF0000;}
	.st10{fill:none;stroke:#0000FF;stroke-width:2.2677;stroke-miterlimit:10;}
	.st11{fill:none;stroke:#0000FF;stroke-width:2.2677;stroke-miterlimit:10;stroke-dasharray:5.3799,5.3799;}
	.st12{fill:none;stroke:#00FF00;stroke-width:2.2677;stroke-miterlimit:10;}
	.st13{fill:none;stroke:#00FF00;stroke-width:2.2677;stroke-miterlimit:10;stroke-dasharray:5.3799,5.3799;}
</style>
<g>
	<polyline points="202.3,57.8 206.8,55.5 202.3,53.2 203.4,55.5 	"/>
	<line class="st0" x1="8.4" y1="55.5" x2="203.4" y2="55.5"/>
	<polyline points="17.7,17.5 15.4,13 13.2,17.5 15.4,16.4 	"/>
	<line class="st0" x1="15.4" y1="94.5" x2="15.4" y2="16.4"/>
	<g>
		<path class="st1" d="M25.5,20.9c-0.1,0.4-0.2,0.7-0.2,0.9c0,0.3,0.2,0.7,0.5,0.7c0.3,0,1-0.2,1.3-1.3c0-0.1,0-0.1,0.1-0.1
			c0,0,0.1,0,0.1,0.1c0,0.2-0.6,1.5-1.6,1.5c-0.6,0-1-0.4-1.1-0.8c0,0.1-0.4,0.8-1,0.8c-0.4,0-0.9-0.2-0.9-0.7
			c0-0.3,0.2-0.6,0.5-0.6c0.1,0,0.4,0.1,0.4,0.3c0,0.3-0.2,0.5-0.5,0.5c0.2,0.1,0.4,0.1,0.5,0.1c0.4,0,0.8-0.4,0.9-1
			c0.4-1.4,0.5-2.1,0.5-2.4c0-0.6-0.3-0.7-0.5-0.7c-0.3,0-1,0.2-1.3,1.3c0,0.1-0.1,0.1-0.1,0.1c0,0-0.1,0-0.1-0.1
			c0-0.2,0.6-1.5,1.6-1.5c0.3,0,0.8,0.1,1.1,0.8c0.1-0.2,0.5-0.8,1-0.8c0.3,0,0.9,0.1,0.9,0.7c0,0.4-0.3,0.6-0.5,0.6
			c-0.3,0-0.4-0.2-0.4-0.3c0-0.2,0.2-0.5,0.5-0.5c-0.2-0.1-0.4-0.1-0.5-0.1c-0.7,0-0.9,0.9-1,1.2L25.5,20.9z"/>
	</g>
	<g>
		<path class="st1" d="M31.6,22.5c-0.1,0.4-0.1,0.5-0.1,0.7c0,0.1,0,0.6,0.6,0.6c0.9,0,1.2-1.7,1.2-1.8c0-0.2-0.1-0.4-0.3-0.6
			c0,0-0.1-0.1-0.1-0.2c0-0.2,0.2-0.4,0.4-0.4c0,0,0.3,0,0.3,0.6c0,0.3-0.2,1.2-0.5,1.8c-0.1,0.3-0.4,0.8-1.1,0.8
			c-0.4,0-0.8-0.2-1-0.5c-0.3,0.5-0.7,0.5-0.8,0.5c-0.4,0-1.1-0.1-1.1-0.9c0-0.2,0-0.4,0.4-1.4c0-0.1,0.1-0.2,0.1-0.4
			c0-0.2-0.1-0.2-0.2-0.2c-0.3,0-0.6,0.3-0.8,0.9c0,0.1,0,0.1-0.1,0.1c0,0-0.1,0-0.1-0.1c0-0.1,0.3-1.1,1-1.1c0.4,0,0.7,0.3,0.7,0.6
			c0,0.1,0,0.2-0.1,0.5c-0.1,0.4-0.3,0.9-0.3,1.2c0,0.5,0.4,0.6,0.6,0.6c0.2,0,0.4-0.1,0.5-0.2c0.2-0.2,0.2-0.3,0.2-0.5
			c0-0.2,0-0.3,0.1-0.6c0.1-0.4,0.1-0.4,0.2-0.8c0-0.2,0.1-0.5,0.1-0.5c0-0.1,0.2-0.2,0.3-0.2c0.1,0,0.2,0.1,0.2,0.2
			c0,0-0.1,0.4-0.1,0.6L31.6,22.5z"/>
		<path class="st1" d="M35.4,22.1c0.2-0.4,0.2-0.5,0.2-0.7c0-0.2-0.1-0.2-0.2-0.2c-0.3,0-0.6,0.3-0.7,0.9c0,0.1,0,0.1-0.1,0.1
			c0,0-0.1,0-0.1-0.1c0-0.1,0.3-1.1,1-1.1c0.4,0,0.7,0.3,0.7,0.6c0,0.1,0,0.2,0,0.2c0,0.1-0.3,0.7-0.3,0.9c-0.1,0.2-0.2,0.4-0.2,0.6
			c-0.1,0.2-0.1,0.3-0.1,0.4c0,0.2,0,0.2,0.2,0.2c0.3,0,0.6-0.3,0.7-0.8c0-0.1,0-0.1,0.1-0.1c0,0,0.1,0,0.1,0.1c0,0.1-0.3,1.1-1,1.1
			c-0.4,0-0.7-0.3-0.7-0.6c0-0.1,0-0.2,0.1-0.3L35.4,22.1z M36,20c-0.2,0-0.3-0.1-0.3-0.3c0-0.2,0.2-0.4,0.4-0.4
			c0.2,0,0.3,0.2,0.3,0.3C36.4,19.8,36.2,20,36,20z"/>
	</g>
	<g>
		<path class="st1" d="M38,22.7c0-0.2,0.1-0.4,0.2-0.6c0-0.2,0.1-0.4,0.1-0.6c0-0.2,0-0.3-0.2-0.3c-0.3,0-0.4,0.3-0.5,0.8
			c0,0.2-0.1,0.2-0.2,0.2c0,0-0.1,0-0.1-0.1c0,0,0.1-0.4,0.3-0.7c0.1-0.2,0.3-0.4,0.6-0.4c0.3,0,0.7,0.2,0.7,0.6
			c0.2-0.3,0.6-0.6,1.2-0.6c0.4,0,0.9,0.1,0.9,0.8c0,0.4-0.3,1.1-0.4,1.3c-0.1,0.3-0.2,0.4-0.2,0.6c0,0.1,0,0.2,0.2,0.2
			c0.3,0,0.6-0.3,0.7-0.8c0-0.1,0-0.1,0.1-0.1c0,0,0.1,0,0.1,0.1c0,0.1-0.3,1.1-1,1.1c-0.4,0-0.7-0.2-0.7-0.6c0-0.1,0-0.2,0.1-0.4
			c0.1-0.3,0.4-1.1,0.4-1.5c0-0.1,0-0.5-0.4-0.5c-0.5,0-0.9,0.4-1,0.6c-0.2,0.3-0.2,0.3-0.3,0.6c0,0.2-0.1,0.3-0.1,0.5
			c0,0.2-0.1,0.5-0.2,0.6c0,0.1-0.1,0.4-0.1,0.4c0,0.1-0.1,0.2-0.3,0.2c-0.1,0-0.2-0.1-0.2-0.2c0,0,0-0.2,0.1-0.3L38,22.7z"/>
	</g>
	<g>
		<path class="st1" d="M43.6,25v-10H45v0.4h-1v9.2h1V25H43.6z"/>
	</g>
	<g>
		<path class="st1" d="M46.7,19.7c0.1-0.5,0.2-0.6,0.2-0.8c0-0.3-0.1-0.5-0.3-0.5c-0.4,0-0.6,0.5-0.7,1.2c-0.1,0.2-0.1,0.2-0.2,0.2
			c0,0-0.1,0-0.1-0.1c0,0,0.1-0.6,0.3-1c0.1-0.2,0.3-0.6,0.7-0.6c0.5,0,0.9,0.3,0.9,0.9c0.2-0.2,0.7-0.9,1.6-0.9
			c0.7,0,1.1,0.4,1.1,1.1c0,0.6-0.4,1.7-0.6,2.2c-0.1,0.2-0.2,0.5-0.2,0.7c0,0.2,0.1,0.3,0.2,0.3c0.5,0,0.8-0.6,1-1.2
			c0-0.1,0-0.2,0.1-0.2c0,0,0.1,0,0.1,0.1c0,0.1-0.4,1.5-1.3,1.5c-0.5,0-0.8-0.3-0.8-0.8c0-0.1,0-0.2,0.1-0.5
			c0.2-0.4,0.6-1.7,0.6-2.3c0-0.3-0.1-0.7-0.5-0.7c-0.9,0-1.5,0.9-1.6,1.2c0,0-0.1,0.3-0.1,0.5c0,0.2-0.1,0.4-0.2,0.7l-0.2,0.9
			c-0.1,0.2-0.2,0.7-0.2,0.7c-0.1,0.2-0.2,0.3-0.4,0.3c-0.1,0-0.3-0.1-0.3-0.3c0-0.1,0.1-0.3,0.1-0.4L46.7,19.7z"/>
	</g>
	<g>
		<path class="st1" d="M52.8,25h-1.4v-0.4h1v-9.2h-1v-0.4h1.4V25z"/>
	</g>
	<g>
		<path class="st1" d="M205.3,65.4c0.1-0.5,0.2-0.6,0.2-0.8c0-0.3-0.1-0.5-0.3-0.5c-0.4,0-0.6,0.5-0.7,1.2c-0.1,0.2-0.1,0.2-0.2,0.2
			c0,0-0.1,0-0.1-0.1c0,0,0.1-0.6,0.3-1c0.1-0.2,0.3-0.6,0.7-0.6c0.5,0,0.9,0.3,0.9,0.9c0.2-0.2,0.7-0.9,1.6-0.9
			c0.7,0,1.1,0.4,1.1,1.1c0,0.6-0.4,1.7-0.6,2.2c-0.1,0.2-0.2,0.5-0.2,0.7c0,0.2,0.1,0.3,0.2,0.3c0.5,0,0.8-0.6,1-1.2
			c0-0.1,0-0.2,0.1-0.2c0,0,0.1,0,0.1,0.1c0,0.1-0.4,1.5-1.3,1.5c-0.5,0-0.8-0.3-0.8-0.8c0-0.1,0-0.2,0.1-0.5
			c0.2-0.4,0.6-1.7,0.6-2.3c0-0.3-0.1-0.7-0.5-0.7c-0.9,0-1.5,0.9-1.6,1.2c0,0-0.1,0.3-0.1,0.5c0,0.2-0.1,0.4-0.2,0.7l-0.2,0.9
			c-0.1,0.2-0.2,0.7-0.2,0.7c-0.1,0.2-0.2,0.3-0.4,0.3c-0.1,0-0.3-0.1-0.3-0.3c0,0,0.1-0.3,0.1-0.4L205.3,65.4z"/>
	</g>
	<path class="st0" d="M100.5,59V52 M185.5,59V52"/>
	<g>
		<path class="st1" d="M20.7,68.4c-0.4,0.9-1.2,1.2-1.7,1.2c-0.5,0-1.2-0.2-1.6-1c-0.4-0.8-0.4-1.7-0.4-2.4c0-0.8,0-1.6,0.4-2.3
			c0.4-0.9,1.1-1.2,1.7-1.2c0.4,0,1.2,0.2,1.7,1.1c0.3,0.7,0.4,1.5,0.4,2.3C21.1,67,21.1,67.7,20.7,68.4z M20.2,68.1
			c0.1-0.6,0.1-1.3,0.1-2.1c0-0.6,0-1.4-0.1-1.9c-0.2-1-0.8-1.2-1.2-1.2c-0.2,0-1,0.1-1.2,1.3c-0.1,0.5-0.1,1.2-0.1,1.8
			c0,0.6,0,1.5,0.1,2.1c0.2,1,0.8,1.2,1.2,1.2C19.5,69.4,20,69.1,20.2,68.1z"/>
		<path class="st1" d="M37.2,68.6c0,0.4,0,0.5,0.9,0.5h0.3v0.3c-0.3,0-1.2,0-1.6,0c-0.4,0-1.3,0-1.6,0V69h0.3c0.9,0,0.9-0.1,0.9-0.5
			v-5.2c-0.5,0.3-1.1,0.3-1.3,0.3v-0.3c0.3,0,1.2,0,1.8-0.6c0.2,0,0.2,0,0.2,0.3V68.6z"/>
	</g>
	<g>
		<path class="st1" d="M244.5,66.2c-1.1,0-1.9-0.9-1.9-1.9c0-1,0.9-1.9,1.9-1.9c1,0,1.9,0.9,1.9,1.9S245.5,66.2,244.5,66.2z
			 M246,64.2c0-0.9-0.7-1.5-1.5-1.5c-0.9,0-1.5,0.7-1.5,1.5s0.7,1.5,1.5,1.5C245.3,65.8,246,65.1,246,64.2z"/>
		<path class="st1" d="M246.8,64.4c-0.2,0-0.3,0-0.3-0.2s0.2-0.2,0.3-0.2h5.4c0.2,0,0.3,0,0.3,0.2s-0.2,0.2-0.3,0.2H246.8z"/>
	</g>
	<g>
		<path class="st1" d="M254.5,66.2c-1.1,0-1.9-0.9-1.9-1.9c0-1,0.9-1.9,1.9-1.9c1,0,1.9,0.9,1.9,1.9S255.5,66.2,254.5,66.2z
			 M256,64.2c0-0.9-0.7-1.5-1.5-1.5c-0.9,0-1.5,0.7-1.5,1.5s0.7,1.5,1.5,1.5C255.3,65.8,256,65.1,256,64.2z"/>
	</g>
	<g>
		<path class="st1" d="M244.7,50.8h-0.2c-0.2-1.4-0.4-1.9-1.9-1.9h-1.2c-0.5,0-0.5,0.1-0.5,0.4v2.5h0.9c1,0,1.1-0.3,1.1-1.2h0.2v2.6
			h-0.2c0-0.8-0.1-1.2-1.1-1.2h-0.9v2.5c0,0.3,0,0.5,0.9,0.5h0.3v0.3c-0.4,0-1.3,0-1.7,0c-0.4,0-1.2,0-1.5,0V55h0.2
			c0.8,0,0.8-0.1,0.8-0.5v-5.2c0-0.4,0-0.5-0.8-0.5H239v-0.3h5.5L244.7,50.8z"/>
		<path class="st1" d="M251.9,50.8h-0.2c-0.1-1.6-0.3-1.9-1.8-1.9c-0.2,0-0.5,0-0.6,0c-0.2,0-0.2,0.2-0.2,0.4v5.3c0,0.3,0,0.5,1,0.5
			h0.4v0.3c-0.4,0-1.4,0-1.9,0s-1.5,0-1.9,0V55h0.4c1,0,1-0.1,1-0.5v-5.3c0-0.2,0-0.3-0.2-0.4c-0.1,0-0.4,0-0.5,0
			c-1.5,0-1.7,0.3-1.8,1.9h-0.2l0.2-2.2h6.1L251.9,50.8z"/>
	</g>
	<g>
		<path class="st1" d="M256.3,48.5c1.7,0,3,1.6,3,3.5c0,1.9-1.4,3.3-3,3.3h-3.6V55h0.2c0.8,0,0.8-0.1,0.8-0.5v-5.3
			c0-0.4,0-0.5-0.8-0.5h-0.2v-0.3H256.3z M256,55c1,0,1.6-0.6,1.8-0.8c0.4-0.5,0.5-1.1,0.5-2.2c0-0.8-0.1-1.6-0.5-2.2
			c-0.5-0.7-1.2-0.9-1.8-0.9h-1c-0.5,0-0.5,0.1-0.5,0.4v5.4c0,0.3,0,0.4,0.5,0.4H256z"/>
	</g>
	<path class="st2" d="M1.3,41.3c0,0,7.5-14.2,14.2-14.2s10.1,8.6,14.2,14.2c3.2,4.4,4.6,9.3,7.1,14.2s3.9,9.7,7.1,14.2
		c4,5.6,7.5,14.2,14.2,14.2c6.7,0,10.1-8.6,14.2-14.2c3.2-4.4,4.6-9.3,7.1-14.2c2.4-4.9,3.9-9.7,7.1-14.2c4-5.6,7.5-14.2,14.2-14.2
		c6.7,0,14.2,14.2,14.2,14.2l0,0"/>
	<path class="st3" d="M114.7,41.3c0,0,4.6,9.3,7.1,14.2s3.9,9.7,7.1,14.2c4,5.6,7.5,14.2,14.2,14.2c6.7,0,10.1-8.6,14.2-14.2
		c3.2-4.4,4.6-9.3,7.1-14.2s3.9-9.7,7.1-14.2c4-5.6,7.5-14.2,14.2-14.2c6.7,0,14.2,14.2,14.2,14.2l0,0"/>
	<path class="st4" d="M38.4,55.4c0-1-0.8-1.8-1.8-1.8s-1.8,0.8-1.8,1.8s0.8,1.8,1.8,1.8S38.4,56.4,38.4,55.4L38.4,55.4z"/>
	<path class="st5" d="M81,55.4c0-1-0.8-1.8-1.8-1.8c-1,0-1.8,0.8-1.8,1.8s0.8,1.8,1.8,1.8C80.3,57.2,81,56.4,81,55.4L81,55.4z"/>
	<line class="st6" x1="15.4" y1="55.5" x2="15.4" y2="27.2"/>
	<path class="st7" d="M17.2,27.1c0-1-0.8-1.8-1.8-1.8s-1.8,0.8-1.8,1.8c0,1,0.8,1.8,1.8,1.8S17.2,28.1,17.2,27.1L17.2,27.1z"/>
	<line class="st6" x1="58" y1="83.9" x2="58" y2="55.5"/>
	<path class="st5" d="M59.8,83.9c0-1-0.8-1.8-1.8-1.8c-1,0-1.8,0.8-1.8,1.8c0,1,0.8,1.8,1.8,1.8C59,85.6,59.8,84.8,59.8,83.9
		L59.8,83.9z"/>
	<polyline points="350.8,21.1 348.5,16.5 346.3,21.1 348.5,19.9 	"/>
	<line class="st0" x1="348.5" y1="83.9" x2="348.5" y2="19.9"/>
	<g>
		<path class="st1" d="M358.5,18.2c0.1-0.1,0.2-0.2,0.2-0.4c0-0.3-0.3-0.3-0.4-0.3c-0.1,0-0.1,0-0.1-0.1c0-0.2,0.1-0.2,0.2-0.2
			c0.4,0,0.7,0,1.1,0c0.3,0,0.6,0,0.9,0c0.1,0,0.1,0.1,0.1,0.1c0,0.2-0.1,0.2-0.2,0.2c-0.6,0-1,0.3-1.3,0.5c-0.3,0.3-1.4,1.5-2,2.2
			c0.2,0.6,0.9,2.2,1.3,3.1c0.2,0.4,0.2,0.4,0.9,0.4c0.1,0,0.2,0,0.2,0.1c0,0.2-0.1,0.2-0.2,0.2c-0.2,0-0.9,0-1.1,0
			c-0.3,0-1,0-1.3,0c0,0-0.1,0-0.1-0.1c0-0.2,0.1-0.2,0.2-0.2c0.4,0,0.6-0.2,0.6-0.3c0,0,0,0,0-0.1l-1-2.4l-0.9,1l-1,1.1
			c-0.1,0.1-0.3,0.3-0.3,0.4c0,0.3,0.3,0.3,0.4,0.3c0,0,0.1,0,0.1,0.1c0,0.2-0.1,0.2-0.2,0.2c-0.4,0-0.7,0-1.1,0c-0.3,0-0.6,0-0.9,0
			c-0.1,0-0.1-0.1-0.1-0.1c0-0.2,0.1-0.2,0.2-0.2c0.5,0,1-0.2,1.5-0.7l0.1-0.1l2.1-2.3l-1.2-2.8c-0.1-0.2-0.1-0.3-0.7-0.3
			c-0.1,0-0.2,0-0.2-0.1c0-0.2,0.1-0.2,0.2-0.2c0.2,0,0.9,0,1.1,0c0.4,0,0.8,0,1.3,0c0,0,0.1,0,0.1,0.1c0,0.2-0.1,0.2-0.2,0.2
			c-0.4,0-0.6,0.2-0.6,0.3c0,0,0,0,0,0.1l0.8,2L358.5,18.2z"/>
	</g>
	<g>
		<path class="st1" d="M363.8,24c-0.1,0.4-0.1,0.5-0.1,0.7c0,0.1,0,0.6,0.6,0.6c0.9,0,1.2-1.7,1.2-1.8c0-0.2-0.1-0.4-0.3-0.6
			c0,0-0.1-0.1-0.1-0.2c0-0.2,0.2-0.4,0.4-0.4c0,0,0.3,0,0.3,0.6c0,0.3-0.2,1.2-0.5,1.8c-0.1,0.3-0.4,0.8-1.1,0.8
			c-0.4,0-0.8-0.2-1-0.5c-0.3,0.5-0.7,0.5-0.8,0.5c-0.4,0-1.1-0.1-1.1-0.9c0-0.2,0-0.4,0.4-1.4c0-0.1,0.1-0.2,0.1-0.4
			c0-0.2-0.1-0.2-0.2-0.2c-0.3,0-0.6,0.3-0.8,0.9c0,0.1,0,0.1-0.1,0.1c0,0-0.1,0-0.1-0.1c0-0.1,0.3-1.1,1-1.1c0.4,0,0.7,0.3,0.7,0.6
			c0,0.1,0,0.2-0.1,0.5c-0.1,0.4-0.3,0.9-0.3,1.2c0,0.5,0.4,0.6,0.6,0.6c0.2,0,0.4-0.1,0.5-0.2c0.2-0.2,0.2-0.3,0.2-0.5
			c0-0.2,0-0.3,0.1-0.6c0.1-0.4,0.1-0.4,0.2-0.8c0-0.2,0.1-0.5,0.1-0.5c0-0.1,0.2-0.2,0.3-0.2c0.1,0,0.2,0.1,0.2,0.2
			c0,0-0.1,0.4-0.1,0.6L363.8,24z"/>
		<path class="st1" d="M367.6,23.5c0.2-0.4,0.2-0.5,0.2-0.7c0-0.2-0.1-0.2-0.2-0.2c-0.3,0-0.6,0.3-0.7,0.9c0,0.1,0,0.1-0.1,0.1
			c0,0-0.1,0-0.1-0.1c0-0.1,0.3-1.1,1-1.1c0.4,0,0.7,0.3,0.7,0.6c0,0.1,0,0.2,0,0.2c0,0.1-0.3,0.7-0.3,0.9c-0.1,0.2-0.2,0.4-0.2,0.6
			c-0.1,0.2-0.1,0.3-0.1,0.4c0,0.2,0,0.2,0.2,0.2c0.3,0,0.6-0.3,0.7-0.8c0-0.1,0-0.1,0.1-0.1c0,0,0.1,0,0.1,0.1c0,0.1-0.3,1.1-1,1.1
			c-0.4,0-0.7-0.3-0.7-0.6c0-0.1,0-0.2,0.1-0.3L367.6,23.5z M368.2,21.5c-0.2,0-0.3-0.1-0.3-0.3c0-0.2,0.2-0.4,0.4-0.4
			c0.2,0,0.3,0.2,0.3,0.3C368.6,21.3,368.4,21.5,368.2,21.5z"/>
	</g>
	<g>
		<path class="st1" d="M370.2,24.1c0-0.2,0.1-0.4,0.2-0.6s0.1-0.4,0.1-0.6c0-0.2,0-0.3-0.2-0.3c-0.3,0-0.4,0.3-0.5,0.8
			c0,0.2-0.1,0.2-0.2,0.2c0,0-0.1,0-0.1-0.1c0,0,0.1-0.4,0.3-0.7c0.1-0.2,0.3-0.4,0.6-0.4c0.3,0,0.7,0.2,0.7,0.6
			c0.2-0.3,0.6-0.6,1.2-0.6c0.4,0,0.9,0.1,0.9,0.8c0,0.4-0.3,1.1-0.4,1.3c-0.1,0.3-0.2,0.4-0.2,0.6c0,0.1,0,0.2,0.2,0.2
			c0.3,0,0.6-0.3,0.7-0.8c0-0.1,0-0.1,0.1-0.1c0,0,0.1,0,0.1,0.1c0,0.1-0.3,1.1-1,1.1c-0.4,0-0.7-0.2-0.7-0.6c0-0.1,0-0.2,0.1-0.4
			c0.1-0.3,0.4-1.1,0.4-1.5c0-0.1,0-0.5-0.4-0.5c-0.5,0-0.9,0.4-1,0.6c-0.2,0.3-0.2,0.3-0.3,0.6c0,0.2-0.1,0.3-0.1,0.5
			c0,0.2-0.1,0.5-0.2,0.6c0,0.1-0.1,0.4-0.1,0.4c0,0.1-0.1,0.2-0.3,0.2c-0.1,0-0.2-0.1-0.2-0.2c0,0,0-0.2,0.1-0.3L370.2,24.1z"/>
	</g>
	<g>
		<path class="st1" d="M377.7,26.5c-0.1,0-1-0.6-1.6-1.9c-0.5-1.1-0.7-2.3-0.7-3.1c0-0.8,0.1-1.9,0.6-3c0.6-1.3,1.5-1.9,1.6-1.9
			c0.1,0,0.1,0,0.1,0.1c0,0,0,0-0.1,0.2c-1.2,1.2-1.6,3-1.6,4.7c0,1.5,0.3,3.4,1.6,4.7C377.8,26.3,377.8,26.4,377.7,26.5
			C377.8,26.5,377.7,26.5,377.7,26.5z"/>
		<path class="st1" d="M379.7,23.2c0.2,0.4,0.6,0.7,1.1,0.7c0.1,0,1,0,1.3-1c0-0.1,0-0.1,0.1-0.1c0,0,0.1,0,0.1,0.1
			c0,0.2-0.4,1.3-1.7,1.3c-1.1,0-2.2-1-2.2-2.3c0-1.2,0.9-2.3,2.1-2.3c1.2,0,1.8,1,1.8,2c0,0.2,0,0.2-0.2,0.2h-2.8
			C379.4,22,379.4,22.7,379.7,23.2z M381.8,21.5c0-0.4-0.1-1.7-1.1-1.7c-0.3,0-1.2,0.2-1.2,1.7H381.8z"/>
	</g>
	<g>
		<path class="st1" d="M385,20.8c0,0.9-0.6,1.5-1.4,1.5c-0.6,0-1.1-0.3-1.1-0.8c0-0.3,0.2-0.5,0.5-0.5c0.3,0,0.5,0.2,0.5,0.5
			c0,0.3-0.2,0.4-0.3,0.4c0.3,0.1,0.5,0.1,0.5,0.1c0.6,0,0.7-0.9,0.7-1.3v-3.9c0-0.5-0.1-0.6-0.9-0.6V16l1.5-0.1V20.8z M384.5,14.7
			c-0.3,0-0.5-0.2-0.5-0.5s0.2-0.5,0.5-0.5s0.5,0.2,0.5,0.5S384.7,14.7,384.5,14.7z"/>
	</g>
	<g>
		<path class="st1" d="M387.3,20.3c-0.6,0-1-0.7-1-1.5c0-1.6,1.1-3.5,2.2-3.5c0.7,0,1,0.8,1,1.5C389.4,18.4,388.3,20.3,387.3,20.3z
			 M387,18c-0.1,0.3-0.2,0.8-0.2,1.3c0,0.4,0.1,0.9,0.4,0.9c0.3,0,0.6-0.3,0.8-0.7c0.2-0.3,0.4-0.7,0.6-1.5H387z M388.7,17.7
			c0.1-0.6,0.2-1,0.2-1.3c0-0.1,0-0.9-0.4-0.9c-0.4,0-1,0.7-1.4,2.2H388.7z"/>
	</g>
	<g>
		<path class="st1" d="M392.7,24.5c-0.6,1.3-1.5,1.9-1.6,1.9c-0.1,0-0.1,0-0.1-0.1c0,0,0-0.1,0.1-0.2c1.2-1.3,1.6-3,1.6-4.7
			c0-2.1-0.6-3.7-1.5-4.7c-0.2-0.2-0.2-0.2-0.2-0.2c0-0.1,0-0.1,0.1-0.1c0.1,0,1,0.6,1.6,1.9c0.5,1.1,0.7,2.3,0.7,3.1
			C393.3,22.3,393.2,23.4,392.7,24.5z"/>
	</g>
	<polyline points="439.7,79 444.2,76.8 439.7,74.5 440.8,76.8 	"/>
	<line class="st0" x1="267" y1="76.8" x2="440.8" y2="76.8"/>
	<g>
		<path class="st1" d="M438.1,90.9c-0.9,0-1.2-1.1-1.2-2c0-2.3,1.5-5.1,2.9-5.1c1,0,1.2,1.4,1.2,2C441.1,88.1,439.5,90.9,438.1,90.9
			z M437.9,87.5c-0.3,1-0.3,1.6-0.3,2c0,0.9,0.2,1.2,0.5,1.2c0.4,0,0.8-0.5,1.2-1.2c0.4-0.7,0.6-1.6,0.7-2H437.9z M440.1,87.2
			c0.2-1,0.3-1.5,0.3-2c0-0.6-0.1-1.2-0.5-1.2c-0.4,0-0.8,0.6-1.1,1c-0.4,0.7-0.6,1.5-0.8,2.1H440.1z"/>
	</g>
	<g>
		<path class="st1" d="M350.3,89.7c-0.4,0.9-1.2,1.2-1.7,1.2c-0.5,0-1.2-0.2-1.6-1c-0.4-0.8-0.4-1.7-0.4-2.4c0-0.8,0-1.6,0.4-2.3
			c0.4-0.9,1.1-1.2,1.7-1.2c0.4,0,1.2,0.2,1.7,1.1c0.3,0.7,0.4,1.5,0.4,2.3C350.6,88.2,350.6,89,350.3,89.7z M349.7,89.3
			c0.1-0.6,0.1-1.3,0.1-2.1c0-0.6,0-1.4-0.1-1.9c-0.2-1-0.8-1.2-1.2-1.2c-0.2,0-1,0.1-1.2,1.3c-0.1,0.5-0.1,1.2-0.1,1.8
			c0,0.6,0,1.5,0.1,2.1c0.2,1,0.8,1.2,1.2,1.2C349,90.6,349.5,90.3,349.7,89.3z"/>
	</g>
	<g>
		<path class="st1" d="M363.8,88.4c-0.1,0.5-0.1,0.5-0.3,1c-0.1,0.4-0.2,0.6-0.5,0.6c-0.1,0-0.3-0.1-0.3-0.3c0-0.1,0-0.1,0.1-0.2
			c0.4-0.9,1-2.1,1.3-3.3h-0.6c-0.2,0-0.8,0-1.3,0.8c-0.1,0.1-0.1,0.1-0.2,0.1c-0.1,0-0.1-0.1-0.1-0.1c0,0,0.3-0.5,0.6-0.9
			c0.4-0.5,0.8-0.5,1-0.5h3.3c0.2,0,0.4,0,0.4,0.2c0,0.3-0.4,0.3-0.5,0.3h-1.1c-0.1,0.5-0.2,1.1-0.2,1.6c0,0.3,0,0.9,0.3,1.6
			c0.1,0.1,0.1,0.2,0.1,0.2c0,0.2-0.2,0.4-0.4,0.4c-0.1,0-0.3-0.1-0.4-0.5c-0.1-0.3-0.1-0.6-0.1-0.8c0-0.7,0.1-1.1,0.4-2.6h-1.1
			L363.8,88.4z"/>
		<path class="st1" d="M368.7,92.1c-0.1,0.2-0.1,0.2-0.2,0.2c-0.1,0-0.2-0.1-0.2-0.2c0,0,0,0,0-0.2l3.5-9.5c0-0.1,0.1-0.1,0.2-0.1
			c0.1,0,0.2,0.1,0.2,0.2c0,0,0,0,0,0.2L368.7,92.1z"/>
	</g>
	<g>
		<path class="st1" d="M375.9,89.1c0.2,0,0.9,0,0.9-0.1c0.1-0.1,0.2-0.6,0.2-0.9h0.2l-0.3,1.7h-3.7c0-0.2,0-0.3,0.1-0.4l1.9-2.1
			c0.5-0.6,1-1.4,1-2.2c0-0.8-0.4-1.6-1.3-1.6c-0.6,0-1.1,0.4-1.3,1c0,0,0,0,0.1,0c0.3,0,0.5,0.3,0.5,0.5c0,0.4-0.3,0.5-0.5,0.5
			c0,0-0.5,0-0.5-0.6c0-0.9,0.7-1.8,1.9-1.8c1.2,0,2.1,0.8,2.1,1.9c0,1-0.6,1.5-2.2,2.9l-1.1,1H375.9z"/>
	</g>
	<g>
		<path class="st1" d="M317.7,88v-0.6h2.6V88H317.7z"/>
	</g>
	<g>
		<path class="st1" d="M323,88.4c-0.1,0.5-0.1,0.5-0.3,1c-0.1,0.4-0.2,0.6-0.5,0.6c-0.1,0-0.3-0.1-0.3-0.3c0-0.1,0-0.1,0.1-0.2
			c0.4-0.9,1-2.1,1.3-3.3h-0.6c-0.2,0-0.8,0-1.3,0.8c-0.1,0.1-0.1,0.1-0.2,0.1c-0.1,0-0.1-0.1-0.1-0.1c0,0,0.3-0.5,0.6-0.9
			c0.4-0.5,0.8-0.5,1-0.5h3.3c0.2,0,0.4,0,0.4,0.2c0,0.3-0.4,0.3-0.5,0.3H325c-0.1,0.5-0.2,1.1-0.2,1.6c0,0.3,0,0.9,0.3,1.6
			c0.1,0.1,0.1,0.2,0.1,0.2c0,0.2-0.2,0.4-0.4,0.4c-0.1,0-0.3-0.1-0.4-0.5c-0.1-0.3-0.1-0.6-0.1-0.8c0-0.7,0.1-1.1,0.4-2.6h-1.1
			L323,88.4z"/>
		<path class="st1" d="M327.9,92.1c-0.1,0.2-0.1,0.2-0.2,0.2c-0.1,0-0.2-0.1-0.2-0.2c0,0,0,0,0-0.2l3.5-9.5c0-0.1,0.1-0.1,0.2-0.1
			c0.1,0,0.2,0.1,0.2,0.2c0,0,0,0,0,0.2L327.9,92.1z"/>
	</g>
	<g>
		<path class="st1" d="M335.1,89.1c0.2,0,0.9,0,0.9-0.1c0.1-0.1,0.2-0.6,0.2-0.9h0.2l-0.3,1.7h-3.7c0-0.2,0-0.3,0.1-0.4l1.9-2.1
			c0.5-0.6,1-1.4,1-2.2c0-0.8-0.4-1.6-1.3-1.6c-0.6,0-1.1,0.4-1.3,1c0,0,0,0,0.1,0c0.3,0,0.5,0.3,0.5,0.5c0,0.4-0.3,0.5-0.5,0.5
			c0,0-0.5,0-0.5-0.6c0-0.9,0.7-1.8,1.9-1.8c1.2,0,2.1,0.8,2.1,1.9c0,1-0.6,1.5-2.2,2.9l-1.1,1H335.1z"/>
	</g>
	<line class="st0" x1="391" y1="80.3" x2="391" y2="73.2"/>
	<g>
		<path class="st1" d="M390.1,88c-0.1,0.5-0.1,0.5-0.3,1c-0.1,0.4-0.2,0.6-0.5,0.6c-0.1,0-0.3-0.1-0.3-0.3c0-0.1,0-0.1,0.1-0.2
			c0.4-0.9,1-2.1,1.3-3.3h-0.6c-0.2,0-0.8,0-1.3,0.8c-0.1,0.1-0.1,0.1-0.2,0.1c-0.1,0-0.1-0.1-0.1-0.1c0,0,0.3-0.5,0.6-0.9
			c0.4-0.5,0.8-0.5,1-0.5h3.3c0.2,0,0.4,0,0.4,0.2c0,0.3-0.4,0.3-0.5,0.3h-1.1c-0.1,0.5-0.2,1.1-0.2,1.6c0,0.3,0,0.9,0.3,1.6
			c0.1,0.1,0.1,0.2,0.1,0.2c0,0.2-0.2,0.4-0.4,0.4c-0.1,0-0.3-0.1-0.4-0.5c-0.1-0.3-0.1-0.6-0.1-0.8c0-0.7,0.1-1.1,0.4-2.6h-1.1
			L390.1,88z"/>
	</g>
	<line class="st0" x1="306" y1="80.3" x2="306" y2="73.2"/>
	<g>
		<path class="st1" d="M301.5,87.6v-0.6h2.6v0.6H301.5z"/>
	</g>
	<g>
		<path class="st1" d="M306.9,88c-0.1,0.5-0.1,0.5-0.3,1c-0.1,0.4-0.2,0.6-0.5,0.6c-0.1,0-0.3-0.1-0.3-0.3c0-0.1,0-0.1,0.1-0.2
			c0.4-0.9,1-2.1,1.3-3.3h-0.6c-0.2,0-0.8,0-1.3,0.8c-0.1,0.1-0.1,0.1-0.2,0.1c-0.1,0-0.1-0.1-0.1-0.1c0,0,0.3-0.5,0.6-0.9
			c0.4-0.5,0.8-0.5,1-0.5h3.3c0.2,0,0.4,0,0.4,0.2c0,0.3-0.4,0.3-0.5,0.3h-1.1c-0.1,0.5-0.2,1.1-0.2,1.6c0,0.3,0,0.9,0.3,1.6
			c0.1,0.1,0.1,0.2,0.1,0.2c0,0.2-0.2,0.4-0.4,0.4c-0.1,0-0.3-0.1-0.4-0.5c-0.1-0.3-0.1-0.6-0.1-0.8c0-0.7,0.1-1.1,0.4-2.6h-1.1
			L306.9,88z"/>
	</g>
	<g>
		<path class="st1" d="M406.4,88.2c0,1-0.9,1.9-2.1,1.9c-1.1,0-2-0.7-2-1.6c0-0.4,0.3-0.6,0.6-0.6c0.3,0,0.6,0.2,0.6,0.6
			c0,0.4-0.3,0.6-0.7,0.5c0.3,0.6,1.1,0.8,1.5,0.8c0.4,0,1.1-0.3,1.1-1.6c0-1-0.4-1.7-1.2-1.7h-0.4c-0.2,0-0.2,0-0.2-0.1
			c0-0.1,0.1-0.1,0.1-0.1c0.1,0,0.3,0,0.4,0c0.2,0,0.6,0,0.9-0.5c0.3-0.4,0.3-1,0.3-1.1c0-0.9-0.5-1.1-1-1.1c-0.4,0-1,0.1-1.3,0.6
			c0.1,0,0.6,0,0.6,0.5c0,0.3-0.2,0.5-0.5,0.5c-0.3,0-0.5-0.2-0.5-0.5c0-0.8,0.8-1.4,1.8-1.4c1,0,1.8,0.6,1.8,1.4
			c0,0.8-0.6,1.5-1.4,1.8C405.8,86.6,406.4,87.3,406.4,88.2z"/>
	</g>
	<g>
		<path class="st1" d="M409,88.4c-0.1,0.5-0.1,0.5-0.3,1c-0.1,0.4-0.2,0.6-0.5,0.6c-0.1,0-0.3-0.1-0.3-0.3c0-0.1,0-0.1,0.1-0.2
			c0.4-0.9,1-2.1,1.3-3.3h-0.6c-0.2,0-0.8,0-1.3,0.8c-0.1,0.1-0.1,0.1-0.2,0.1c-0.1,0-0.1-0.1-0.1-0.1c0,0,0.3-0.5,0.6-0.9
			c0.4-0.5,0.8-0.5,1-0.5h3.3c0.2,0,0.4,0,0.4,0.2c0,0.3-0.4,0.3-0.5,0.3h-1.1c-0.1,0.5-0.2,1.1-0.2,1.6c0,0.3,0,0.9,0.3,1.6
			c0.1,0.1,0.1,0.2,0.1,0.2c0,0.2-0.2,0.4-0.4,0.4c-0.1,0-0.3-0.1-0.4-0.5c-0.1-0.3-0.1-0.6-0.1-0.8c0-0.7,0.1-1.1,0.4-2.6h-1.1
			L409,88.4z"/>
		<path class="st1" d="M413.8,92.1c-0.1,0.2-0.1,0.2-0.2,0.2c-0.1,0-0.2-0.1-0.2-0.2c0,0,0,0,0-0.2l3.5-9.5c0-0.1,0.1-0.1,0.2-0.1
			c0.1,0,0.2,0.1,0.2,0.2c0,0,0,0,0,0.2L413.8,92.1z"/>
	</g>
	<g>
		<path class="st1" d="M421,89.1c0.2,0,0.9,0,0.9-0.1c0.1-0.1,0.2-0.6,0.2-0.9h0.2l-0.3,1.7h-3.7c0-0.2,0-0.3,0.1-0.4l1.9-2.1
			c0.5-0.6,1-1.4,1-2.2c0-0.8-0.4-1.6-1.3-1.6c-0.6,0-1.1,0.4-1.3,1c0,0,0,0,0.1,0c0.3,0,0.5,0.3,0.5,0.5c0,0.4-0.3,0.5-0.5,0.5
			c0,0-0.5,0-0.5-0.6c0-0.9,0.7-1.8,1.9-1.8c1.2,0,2.1,0.8,2.1,1.9c0,1-0.6,1.5-2.2,2.9l-1.1,1H421z"/>
	</g>
	<g>
		<path class="st1" d="M272.7,88v-0.6h2.6V88H272.7z"/>
		<path class="st1" d="M280.5,88.2c0,1-0.9,1.9-2.1,1.9c-1.1,0-2-0.7-2-1.6c0-0.4,0.3-0.6,0.6-0.6c0.3,0,0.6,0.2,0.6,0.6
			c0,0.4-0.3,0.6-0.7,0.5c0.3,0.6,1.1,0.8,1.5,0.8c0.4,0,1.1-0.3,1.1-1.6c0-1-0.4-1.7-1.2-1.7h-0.4c-0.2,0-0.2,0-0.2-0.1
			c0-0.1,0.1-0.1,0.1-0.1c0.1,0,0.3,0,0.4,0c0.2,0,0.6,0,0.9-0.5c0.3-0.4,0.3-1,0.3-1.1c0-0.9-0.5-1.1-1-1.1c-0.4,0-1,0.1-1.3,0.6
			c0.1,0,0.6,0,0.6,0.5c0,0.3-0.2,0.5-0.5,0.5c-0.3,0-0.5-0.2-0.5-0.5c0-0.8,0.8-1.4,1.8-1.4c1,0,1.8,0.6,1.8,1.4
			c0,0.8-0.6,1.5-1.4,1.8C279.9,86.6,280.5,87.3,280.5,88.2z"/>
	</g>
	<g>
		<path class="st1" d="M283.1,88.4c-0.1,0.5-0.1,0.5-0.3,1c-0.1,0.4-0.2,0.6-0.5,0.6c-0.1,0-0.3-0.1-0.3-0.3c0-0.1,0-0.1,0.1-0.2
			c0.4-0.9,1-2.1,1.3-3.3h-0.6c-0.2,0-0.8,0-1.3,0.8c-0.1,0.1-0.1,0.1-0.2,0.1c-0.1,0-0.1-0.1-0.1-0.1c0,0,0.3-0.5,0.6-0.9
			c0.4-0.5,0.8-0.5,1-0.5h3.3c0.2,0,0.4,0,0.4,0.2c0,0.3-0.4,0.3-0.5,0.3H285c-0.1,0.5-0.2,1.1-0.2,1.6c0,0.3,0,0.9,0.3,1.6
			c0.1,0.1,0.1,0.2,0.1,0.2c0,0.2-0.2,0.4-0.4,0.4c-0.1,0-0.3-0.1-0.4-0.5c-0.1-0.3-0.1-0.6-0.1-0.8c0-0.7,0.1-1.1,0.4-2.6h-1.1
			L283.1,88.4z"/>
		<path class="st1" d="M288,92.1c-0.1,0.2-0.1,0.2-0.2,0.2c-0.1,0-0.2-0.1-0.2-0.2c0,0,0,0,0-0.2l3.5-9.5c0-0.1,0.1-0.1,0.2-0.1
			c0.1,0,0.2,0.1,0.2,0.2c0,0,0,0,0,0.2L288,92.1z"/>
	</g>
	<g>
		<path class="st1" d="M295.1,89.1c0.2,0,0.9,0,0.9-0.1c0.1-0.1,0.2-0.6,0.2-0.9h0.2l-0.3,1.7h-3.7c0-0.2,0-0.3,0.1-0.4l1.9-2.1
			c0.5-0.6,1-1.4,1-2.2c0-0.8-0.4-1.6-1.3-1.6c-0.6,0-1.1,0.4-1.3,1c0,0,0,0,0.1,0c0.3,0,0.5,0.3,0.5,0.5c0,0.4-0.3,0.5-0.5,0.5
			c0,0-0.5,0-0.5-0.6c0-0.9,0.7-1.8,1.9-1.8c1.2,0,2.1,0.8,2.1,1.9c0,1-0.6,1.5-2.2,2.9l-1.1,1H295.1z"/>
	</g>
	<g>
		<path class="st1" d="M81.3,67.6c0,1-0.9,1.9-2.1,1.9c-1.1,0-2-0.7-2-1.6c0-0.4,0.3-0.6,0.6-0.6c0.3,0,0.6,0.2,0.6,0.6
			c0,0.4-0.3,0.6-0.7,0.5c0.3,0.6,1.1,0.8,1.5,0.8c0.4,0,1.1-0.3,1.1-1.6c0-1-0.4-1.7-1.2-1.7h-0.4c-0.2,0-0.2,0-0.2-0.1
			c0-0.1,0.1-0.1,0.1-0.1c0.1,0,0.3,0,0.4,0c0.2,0,0.6,0,0.9-0.5c0.3-0.4,0.3-1,0.3-1.1c0-0.9-0.5-1.1-1-1.1c-0.4,0-1,0.1-1.3,0.6
			c0.1,0,0.6,0,0.6,0.5c0,0.3-0.2,0.5-0.5,0.5c-0.3,0-0.5-0.2-0.5-0.5c0-0.8,0.8-1.4,1.8-1.4c1,0,1.8,0.6,1.8,1.4
			c0,0.8-0.6,1.5-1.4,1.8C80.7,66.1,81.3,66.8,81.3,67.6z"/>
		<path class="st1" d="M98.3,67.7v-0.3l3.1-4.7c0.1-0.1,0.1-0.1,0.2-0.1c0.2,0,0.2,0.1,0.2,0.3v4.5h1v0.3h-1v0.9
			c0,0.4,0,0.5,0.8,0.5h0.2v0.3c-0.4,0-0.9,0-1.4,0s-0.9,0-1.3,0V69h0.2c0.7,0,0.8-0.1,0.8-0.5v-0.9H98.3z M101,63.7l-2.4,3.7h2.4
			V63.7z"/>
		<path class="st1" d="M121.5,69.6c-1.1,0-1.8-1-1.8-1.8c0-0.5,0.3-0.5,0.5-0.5c0.3,0,0.5,0.2,0.5,0.5c0,0.2-0.2,0.5-0.5,0.5
			c-0.1,0-0.1,0-0.2,0c0.2,0.6,0.7,1.1,1.5,1.1c0.5,0,0.8-0.3,1.1-0.6c0.2-0.4,0.2-1,0.2-1.4c0-0.5,0-0.9-0.2-1.3
			c-0.1-0.2-0.3-0.6-0.8-0.6c-0.8,0-1.2,0.5-1.3,0.7c0,0.1-0.1,0.1-0.1,0.1c-0.1,0-0.1-0.1-0.1-0.3V63c0-0.2,0-0.2,0.1-0.2
			c0,0,0,0,0.1,0c0.5,0.2,0.9,0.3,1.3,0.3c0.7,0,1.2-0.2,1.4-0.3c0,0,0.1,0,0.1,0c0.1,0,0.1,0,0.1,0.1c0,0.1-0.7,1-1.9,1
			c-0.3,0-0.6-0.1-0.8-0.1v1.9c0.4-0.3,0.8-0.5,1.3-0.5c1.1,0,1.9,1,1.9,2.2C123.7,68.6,122.7,69.6,121.5,69.6z"/>
	</g>
	<g>
		<path class="st1" d="M165.2,65.2c-0.4,0.6-0.6,1.5-0.6,1.7c-0.1,0.5-0.1,1.1-0.1,1.6V69c0,0.1,0,0.5-0.5,0.5
			c-0.5,0-0.5-0.4-0.5-0.5c0-1,0.3-2.4,1.2-3.7c0.2-0.3,1-1.4,1.1-1.6h-2.1c-0.1,0-0.9,0-1,0.1c-0.1,0.1-0.2,0.7-0.2,0.9h-0.2
			l0.3-2.1h0.2c0,0.2,0.1,0.3,1.3,0.3h2.4c0,0.2,0,0.2-0.1,0.3L165.2,65.2z"/>
		<path class="st1" d="M187.1,66.5c0.4,0.4,0.5,0.9,0.5,1.2c0,1.1-0.9,1.9-2.1,1.9c-1,0-2.1-0.7-2.1-1.7c0-1,0.9-1.5,1.4-1.8
			c-0.2-0.2-0.6-0.4-0.7-0.5c-0.4-0.5-0.4-0.9-0.4-1.1c0-0.9,0.8-1.7,1.8-1.7c0.9,0,1.8,0.6,1.8,1.5c0,0.7-0.5,1.2-1.2,1.5
			C186.8,66.1,187,66.2,187.1,66.5z M184,67.8c0,0.8,0.7,1.4,1.6,1.4c0.8,0,1.6-0.5,1.6-1.3c0-0.6-0.5-0.9-0.7-1.1l-1.2-0.8
			C184.3,66.6,184,67.3,184,67.8z M185.9,65.6c0.6-0.3,1-0.8,1-1.4c0-0.7-0.6-1.2-1.4-1.2c-0.7,0-1.4,0.4-1.4,1c0,0.2,0,0.5,0.5,0.8
			L185.9,65.6z"/>
	</g>
	<line class="st0" x1="433.6" y1="80.3" x2="433.6" y2="73.2"/>
	<g>
		<path class="st1" d="M226.3,19.1c-0.9,0-1.2-1.1-1.2-2c0-2.3,1.5-5.1,2.9-5.1c1,0,1.2,1.4,1.2,2C229.3,16.2,227.7,19.1,226.3,19.1
			z M226.1,15.7c-0.3,1-0.3,1.6-0.3,2c0,0.9,0.2,1.2,0.5,1.2c0.4,0,0.8-0.5,1.2-1.2c0.4-0.7,0.6-1.6,0.7-2H226.1z M228.3,15.3
			c0.2-1,0.3-1.5,0.3-2c0-0.6-0.1-1.2-0.5-1.2c-0.4,0-0.8,0.6-1.1,1c-0.4,0.7-0.6,1.5-0.8,2.1H228.3z"/>
	</g>
	<g>
		<path class="st1" d="M233.3,15.7c-0.1,0-0.3,0-0.3-0.2s0.2-0.2,0.3-0.2h6c0.1,0,0.3,0,0.3,0.2s-0.2,0.2-0.3,0.2H233.3z
			 M233.3,17.6c-0.1,0-0.3,0-0.3-0.2s0.2-0.2,0.3-0.2h5.9c0.1,0,0.3,0,0.3,0.2s-0.2,0.2-0.3,0.2H233.3z"/>
		<path class="st1" d="M246,18.2c0.2,0,0.9,0,0.9-0.1c0.1-0.1,0.2-0.6,0.2-0.9h0.2l-0.3,1.7h-3.7c0-0.2,0-0.3,0.1-0.4l1.9-2.1
			c0.5-0.6,1-1.4,1-2.2c0-0.8-0.4-1.6-1.3-1.6c-0.6,0-1.1,0.4-1.3,1c0,0,0,0,0.1,0c0.3,0,0.5,0.3,0.5,0.5c0,0.4-0.3,0.5-0.5,0.5
			c0,0-0.5,0-0.5-0.6c0-0.9,0.7-1.8,1.9-1.8c1.2,0,2.1,0.8,2.1,1.9c0,1-0.6,1.5-2.2,2.9l-1.1,1H246z"/>
	</g>
	<g>
		<path class="st1" d="M250.1,17.4c-0.1,0.5-0.1,0.5-0.3,1c-0.1,0.4-0.2,0.6-0.5,0.6c-0.1,0-0.3-0.1-0.3-0.3c0-0.1,0-0.1,0.1-0.2
			c0.4-0.9,1-2.1,1.3-3.3h-0.6c-0.2,0-0.8,0-1.3,0.8c-0.1,0.1-0.1,0.1-0.2,0.1c-0.1,0-0.1-0.1-0.1-0.1c0,0,0.3-0.5,0.6-0.9
			c0.4-0.5,0.8-0.5,1-0.5h3.3c0.2,0,0.4,0,0.4,0.2c0,0.3-0.4,0.3-0.5,0.3H252c-0.1,0.5-0.2,1.1-0.2,1.6c0,0.3,0,0.9,0.3,1.6
			c0.1,0.1,0.1,0.2,0.1,0.2c0,0.2-0.2,0.4-0.4,0.4c-0.1,0-0.3-0.1-0.4-0.5c-0.1-0.3-0.1-0.6-0.1-0.8c0-0.7,0.1-1.1,0.4-2.6h-1.1
			L250.1,17.4z"/>
		<path class="st1" d="M257.1,18.1c0,0.1-0.2,1.3-0.6,1.9c-0.2,0.4-0.6,1-1.1,1c-0.4,0-0.8-0.2-0.8-0.7c0-0.4,0.3-0.6,0.5-0.6
			c0.2,0,0.4,0.1,0.4,0.3c0,0.1-0.1,0.5-0.5,0.5c0.2,0.2,0.4,0.2,0.5,0.2c0.5,0,0.7-0.9,0.9-1.9L257,15h-0.7c-0.2,0-0.3,0-0.3-0.1
			c0-0.2,0.1-0.2,0.3-0.2h0.7c0.2-1.3,0.3-1.4,0.3-1.6c0.3-1,0.9-1.2,1.3-1.2c0.4,0,0.9,0.2,0.9,0.7c0,0.4-0.3,0.6-0.5,0.6
			c-0.2,0-0.4-0.1-0.4-0.3c0-0.1,0.1-0.5,0.5-0.5c-0.2-0.2-0.4-0.2-0.5-0.2c-0.2,0-0.4,0.1-0.5,0.3c-0.1,0.1-0.2,0.8-0.2,1l-0.2,1.1
			h0.8c0.2,0,0.3,0,0.3,0.1c0,0.2-0.1,0.2-0.3,0.2h-0.9L257.1,18.1z"/>
	</g>
	<g>
		<path class="st1" d="M261,21.2c-0.1,0.2-0.1,0.2-0.2,0.2c-0.1,0-0.2-0.1-0.2-0.2c0,0,0,0,0-0.2l3.5-9.5c0-0.1,0.1-0.1,0.2-0.1
			c0.1,0,0.2,0.1,0.2,0.2c0,0,0,0,0,0.2L261,21.2z"/>
		<path class="st1" d="M268.1,18.1c0,0.1-0.2,1.3-0.6,1.9c-0.2,0.4-0.6,1-1.1,1c-0.4,0-0.8-0.2-0.8-0.7c0-0.4,0.3-0.6,0.5-0.6
			c0.2,0,0.4,0.1,0.4,0.3c0,0.1-0.1,0.5-0.5,0.5c0.2,0.2,0.4,0.2,0.5,0.2c0.5,0,0.7-0.9,0.9-1.9L268,15h-0.7c-0.2,0-0.3,0-0.3-0.1
			c0-0.2,0.1-0.2,0.3-0.2h0.7c0.2-1.3,0.3-1.4,0.3-1.6c0.3-1,0.9-1.2,1.3-1.2c0.4,0,0.9,0.2,0.9,0.7c0,0.4-0.3,0.6-0.5,0.6
			c-0.2,0-0.4-0.1-0.4-0.3c0-0.1,0.1-0.5,0.5-0.5c-0.2-0.2-0.4-0.2-0.5-0.2c-0.2,0-0.4,0.1-0.5,0.3c-0.1,0.1-0.2,0.8-0.2,1l-0.2,1.1
			h0.8c0.2,0,0.3,0,0.3,0.1c0,0.2-0.1,0.2-0.3,0.2h-0.9L268.1,18.1z"/>
	</g>
	<g>
		<path class="st1" d="M272.3,17.5c-0.1,0-0.4,0-0.6,0.1c-0.2,0.1-0.3,0.3-0.3,0.4c0,0.2,0.1,0.3,0.4,0.3c0,0,0.2,0,0.3,0.1
			c0.3,0,1,0.2,1,0.8c0,0.3-0.2,1.2-1.5,1.2c-0.7,0-1.1-0.3-1.1-0.7c0-0.3,0.2-0.5,0.4-0.5c0.1,0,0.3,0.1,0.3,0.3
			c0,0.2-0.2,0.4-0.4,0.4c0.2,0.2,0.6,0.3,0.8,0.3c0.1,0,0.4,0,0.7-0.2c0.3-0.2,0.4-0.4,0.4-0.6c0-0.3-0.4-0.4-0.6-0.5
			c-0.5-0.1-0.6-0.1-0.8-0.3c-0.1-0.1-0.2-0.3-0.2-0.5c0-0.2,0.2-1,1.3-1c0.4,0,0.9,0.2,0.9,0.6c0,0.4-0.3,0.4-0.3,0.4
			c-0.1,0-0.2-0.1-0.2-0.2c0-0.1,0.1-0.3,0.3-0.3C272.8,17.5,272.5,17.5,272.3,17.5z"/>
	</g>
	<g>
		<path class="st1" d="M250.5,7.7c0.3-0.3,0.5-0.4,0.7-0.6c0.3-0.2,0.7-0.4,0.8-0.4c0.1,0,0.1,0.1,0.1,0.2c0,0.1,0,0.2-0.1,0.2
			c-1.4,0.7-2.2,1.8-2.5,3.1c0,0,0,0.1-0.1,0.1c0,0-0.1,0-0.1-0.1c-0.3-1.1-1-2.3-2.5-3.1c-0.1-0.1-0.1-0.1-0.1-0.2
			c0-0.1,0-0.2,0.1-0.2c0.1,0,0.4,0.2,0.8,0.4c0.2,0.1,0.3,0.2,0.7,0.6V1.8c0-0.2,0-0.4,0.2-0.4s0.2,0.2,0.2,0.4v6.3
			c0.4,0.4,0.6,1,0.8,1.3c0.1-0.2,0.4-0.8,0.8-1.3V1.8c0-0.2,0-0.4,0.2-0.4s0.2,0.2,0.2,0.4V7.7z"/>
	</g>
	<g>
		<path class="st1" d="M250.5,28.9c0.3-0.3,0.5-0.4,0.7-0.6c0.3-0.2,0.7-0.4,0.8-0.4c0.1,0,0.1,0.1,0.1,0.2c0,0.1,0,0.2-0.1,0.2
			c-1.4,0.7-2.2,1.8-2.5,3.1c0,0,0,0.1-0.1,0.1c0,0-0.1,0-0.1-0.1c-0.3-1.1-1-2.3-2.5-3.1c-0.1-0.1-0.1-0.1-0.1-0.2
			c0-0.1,0-0.2,0.1-0.2c0.1,0,0.4,0.2,0.8,0.4c0.2,0.1,0.3,0.2,0.7,0.6v-5.9c0-0.2,0-0.4,0.2-0.4s0.2,0.2,0.2,0.4v6.3
			c0.4,0.4,0.6,1,0.8,1.3c0.1-0.2,0.4-0.8,0.8-1.3v-6.3c0-0.2,0-0.4,0.2-0.4s0.2,0.2,0.2,0.4V28.9z"/>
	</g>
	<line class="st0" x1="348.5" y1="101.6" x2="348.5" y2="108.7"/>
	<polyline points="353.1,102.8 348.5,105.1 353.1,107.4 351.9,105.1 	"/>
	<polyline points="425.5,107.4 430,105.1 425.5,102.8 426.6,105.1 	"/>
	<line class="st0" x1="351.9" y1="105.1" x2="426.6" y2="105.1"/>
	<g>
		<path class="st8" d="M392,97h-0.5c-0.1-1.2-0.4-1.9-2-1.9h-1.4v2.7h0.5c1,0,1-0.4,1-1.2h0.5v2.8h-0.5c0-0.7-0.1-1.2-1-1.2h-0.5
			v2.7h1.3v0.5c-0.4,0-1.5,0-2,0c-0.4,0-1.4,0-1.8,0v-0.5h1.1v-5.8h-1.1v-0.5h6L392,97z"/>
		<path class="st8" d="M395.4,100.9h1.1v0.5c-0.4,0-1.4,0-1.8,0c-0.5,0-1.4,0-1.8,0v-0.5h1.1V95h-1.1v-0.5c0.4,0,1.4,0,1.8,0
			c0.5,0,1.4,0,1.8,0V95h-1.1V100.9z"/>
	</g>
	<path class="st0" d="M430,101.6c0,0,3.5,1.9,3.5,3.5c0,1.7-3.5,3.5-3.5,3.5l0,0"/>
	<g>
		<path class="st9" d="M79.5,7.6c0,0.1-0.2,1.3-0.6,1.9c-0.2,0.4-0.6,1-1.1,1c-0.4,0-0.8-0.2-0.8-0.7c0-0.4,0.3-0.6,0.5-0.6
			c0.2,0,0.4,0.1,0.4,0.3c0,0.1-0.1,0.5-0.5,0.5c0.2,0.2,0.4,0.2,0.5,0.2c0.5,0,0.7-0.9,0.9-1.9l0.7-3.9h-0.7c-0.2,0-0.3,0-0.3-0.1
			c0-0.2,0.1-0.2,0.3-0.2h0.7c0.2-1.3,0.3-1.4,0.3-1.6c0.3-1,0.9-1.2,1.3-1.2c0.4,0,0.9,0.2,0.9,0.7c0,0.4-0.3,0.6-0.5,0.6
			c-0.2,0-0.4-0.1-0.4-0.3c0-0.1,0.1-0.5,0.5-0.5c-0.2-0.2-0.4-0.2-0.5-0.2c-0.2,0-0.4,0.1-0.5,0.3c-0.1,0.1-0.2,0.8-0.2,1l-0.2,1.1
			H81c0.2,0,0.3,0,0.3,0.1c0,0.2-0.1,0.2-0.3,0.2h-0.9L79.5,7.6z"/>
	</g>
	<g>
		<path class="st9" d="M83.7,7c-0.1,0-0.4,0-0.6,0.1c-0.2,0.1-0.3,0.3-0.3,0.4c0,0.2,0.1,0.3,0.4,0.3c0,0,0.2,0,0.3,0.1
			c0.3,0,1,0.2,1,0.8c0,0.3-0.2,1.2-1.5,1.2c-0.7,0-1.1-0.3-1.1-0.7c0-0.3,0.2-0.5,0.4-0.5c0.1,0,0.3,0.1,0.3,0.3
			c0,0.2-0.2,0.4-0.4,0.4c0.2,0.2,0.6,0.3,0.8,0.3c0.1,0,0.4,0,0.7-0.2C83.9,9.4,84,9.1,84,9c0-0.3-0.4-0.4-0.6-0.5
			c-0.5-0.1-0.6-0.1-0.8-0.3c-0.1-0.1-0.2-0.3-0.2-0.5c0-0.2,0.2-1,1.3-1c0.4,0,0.9,0.2,0.9,0.6c0,0.4-0.3,0.4-0.3,0.4
			c-0.1,0-0.2-0.1-0.2-0.2c0-0.1,0.1-0.3,0.3-0.3C84.2,7,83.8,7,83.7,7z"/>
	</g>
	<g>
		<path class="st9" d="M89.3,5.1c-0.1,0-0.3,0-0.3-0.2s0.2-0.2,0.3-0.2h6c0.1,0,0.3,0,0.3,0.2s-0.2,0.2-0.3,0.2H89.3z M89.3,7.1
			c-0.1,0-0.3,0-0.3-0.2s0.2-0.2,0.3-0.2h5.9c0.1,0,0.3,0,0.3,0.2s-0.2,0.2-0.3,0.2H89.3z"/>
		<path class="st9" d="M99.1,6.7V6.4l3.1-4.7c0.1-0.1,0.1-0.1,0.2-0.1c0.2,0,0.2,0.1,0.2,0.3v4.5h1v0.3h-1v0.9c0,0.4,0,0.5,0.8,0.5
			h0.2v0.3c-0.4,0-0.9,0-1.4,0s-0.9,0-1.3,0V8.1h0.2c0.7,0,0.8-0.1,0.8-0.5V6.7H99.1z M101.8,2.7l-2.4,3.7h2.4V2.7z"/>
	</g>
	<g>
		<path class="st9" d="M108.3,10.9v-10h1.4v0.4h-1v9.2h1v0.4H108.3z"/>
		<path class="st9" d="M116,7.6c0,0.4,0,0.5,0.8,0.5h0.2v0.3c-0.3,0-1.1,0-1.5,0c-0.4,0-1.1,0-1.5,0V8.1h0.2c0.8,0,0.8-0.1,0.8-0.5
			V5h-3v2.6c0,0.4,0,0.5,0.8,0.5h0.2v0.3c-0.3,0-1.1,0-1.5,0c-0.4,0-1.1,0-1.5,0V8.1h0.2c0.8,0,0.8-0.1,0.8-0.5V2.4
			c0-0.4,0-0.5-0.8-0.5h-0.2V1.6c0.3,0,1.1,0,1.5,0c0.4,0,1.1,0,1.5,0v0.3h-0.2c-0.8,0-0.8,0.1-0.8,0.5v2.3h3V2.4
			c0-0.4,0-0.5-0.8-0.5h-0.2V1.6c0.3,0,1.1,0,1.5,0c0.4,0,1.1,0,1.5,0v0.3h-0.2C116,1.9,116,2,116,2.4V7.6z"/>
		<path class="st9" d="M118.5,8.1h1.2c1.2,0,1.4-0.4,1.5-1.6h0.2l-0.2,1.9h-3.3c-0.2,0-0.3,0-0.3-0.1c0,0,0-0.1,0.1-0.2l2.8-3.8
			h-1.1c-1.1,0-1.3,0.4-1.3,1.4h-0.2l0.1-1.6h3.2c0.2,0,0.3,0,0.3,0.1c0,0,0,0.1-0.1,0.2L118.5,8.1z"/>
		<path class="st9" d="M123.4,10.9H122v-0.4h1V1.3h-1V0.9h1.4V10.9z"/>
	</g>
	<g>
		<path class="st1" d="M101.7,18.3c0.3-0.3,0.5-0.4,0.7-0.6c0.3-0.2,0.7-0.4,0.8-0.4c0.1,0,0.1,0.1,0.1,0.2c0,0.1,0,0.2-0.1,0.2
			c-1.4,0.7-2.2,1.8-2.5,3.1c0,0,0,0.1-0.1,0.1c0,0-0.1,0-0.1-0.1c-0.3-1.1-1-2.3-2.5-3.1c-0.1-0.1-0.1-0.1-0.1-0.2
			c0-0.1,0-0.2,0.1-0.2c0.1,0,0.4,0.2,0.8,0.4c0.2,0.1,0.3,0.2,0.7,0.6v-5.9c0-0.2,0-0.4,0.2-0.4c0.2,0,0.2,0.2,0.2,0.4v6.3
			c0.4,0.4,0.6,1,0.8,1.3c0.1-0.2,0.4-0.8,0.8-1.3v-6.3c0-0.2,0-0.4,0.2-0.4s0.2,0.2,0.2,0.4V18.3z"/>
	</g>
	<path class="st10" d="M348.5,76.8c0,0,5.2-1.5,7.1-3.5c4.4-4.8,4.8-11.5,7.1-17.7c2.7-7.3,0.2-21.3,7.1-21.3s4.4,14,7.1,21.3
		c2.3,6.2,2.7,12.9,7.1,17.7c1.8,2,7.1,3.5,7.1,3.5l0,0"/>
	<path class="st11" d="M263.5,76.8c0,0,5.2-1.5,7.1-3.5c4.4-4.8,4.8-11.5,7.1-17.7c2.7-7.3,0.2-21.3,7.1-21.3c6.9,0,4.4,14,7.1,21.3
		c2.3,6.2,2.7,12.9,7.1,17.7c1.8,2,7.1,3.5,7.1,3.5l0,0"/>
	<path class="st12" d="M391,76.8c0,0,5.2-1.5,7.1-3.5c4.4-4.8,4.8-11.5,7.1-17.7c2.7-7.3,0.2-21.3,7.1-21.3c6.9,0,4.4,14,7.1,21.3
		c2.3,6.2,2.7,12.9,7.1,17.7c1.8,2,7.1,3.5,7.1,3.5l0,0"/>
	<path class="st13" d="M306,76.8c0,0,5.2-1.5,7.1-3.5c4.4-4.8,4.8-11.5,7.1-17.7c2.7-7.3,0.2-21.3,7.1-21.3s4.4,14,7.1,21.3
		c2.3,6.2,2.7,12.9,7.1,17.7c1.8,2,7.1,3.5,7.1,3.5l0,0"/>
</g>
</svg>
