<?xml version="1.0" encoding="utf-8"?>
<!-- Generator: Adobe Illustrator 22.1.0, SVG Export Plug-In . SVG Version: 6.00 Build 0)  -->
<svg version="1.1" id="Layer_1" xmlns="http://www.w3.org/2000/svg" xmlns:xlink="http://www.w3.org/1999/xlink" x="0px" y="0px"
	 viewBox="0 0 361 309" style="enable-background:new 0 0 361 309;" xml:space="preserve">
<style type="text/css">
	.st0{fill:none;stroke:#262626;stroke-width:0.5002;stroke-linecap:square;stroke-linejoin:round;stroke-miterlimit:10;}
	.st1{fill:#4A4A49;}
	.st2{fill:#262626;}
	.st3{fill:#1D1D1B;}
	.st4{fill:none;stroke:#0072BD;stroke-width:3;stroke-linejoin:round;stroke-miterlimit:10;}
	.st5{fill:none;stroke:#00FF00;stroke-width:2.0003;stroke-miterlimit:10;}
	.st6{fill:#FF0000;}
	.st7{fill:none;stroke:#000000;stroke-width:2.0003;stroke-linejoin:round;stroke-miterlimit:10;}
	.st8{fill:#FFFFFF;}
	.st9{fill:none;stroke:#262626;stroke-width:0.5002;stroke-miterlimit:10;}
</style>
<g>
	<path class="st0" d="M30.7,276.5h325.5 M30.7,19.2h325.5 M30.7,276.5v-3.3 M192.2,276.5v-3.3 M353.7,276.5v-3.3 M30.7,19.2v3.3
		 M192.2,19.2v3.3 M353.7,19.2v3.3"/>
	<g>
		<path class="st1" d="M28.7,290.2c-0.4-0.6-0.6-1.5-0.6-2.7s0.2-2,0.6-2.7c0.4-0.6,1-0.9,1.8-0.9c0.8,0,1.4,0.3,1.8,0.9
			c0.4,0.6,0.6,1.5,0.6,2.7s-0.2,2-0.6,2.7c-0.4,0.6-1,0.9-1.8,0.9C29.7,291.2,29.1,290.8,28.7,290.2z M31.6,289.7
			c0.2-0.5,0.4-1.2,0.4-2.1c0-0.9-0.1-1.6-0.4-2.1c-0.2-0.5-0.6-0.7-1.1-0.7c-0.5,0-0.9,0.2-1.1,0.7c-0.2,0.5-0.4,1.2-0.4,2.1
			c0,0.9,0.1,1.6,0.4,2.1s0.6,0.7,1.1,0.7C31,290.4,31.3,290.1,31.6,289.7z"/>
	</g>
	<path class="st2" d="M189.9,290.5c0,0,0-0.1,0-0.2c0.2-0.4,0.4-0.7,0.5-1.1c0.2-0.4,0.3-0.7,0.4-1.1c0.1-0.3,0.2-0.7,0.3-1.1h-0.6
		c-0.2,0-0.5,0.1-0.7,0.2c-0.2,0.1-0.4,0.3-0.5,0.6c0,0,0,0-0.1,0h-0.1c-0.1,0-0.1,0-0.1-0.1c0,0,0,0,0,0c0.2-0.4,0.4-0.7,0.7-0.9
		c0.2-0.2,0.5-0.4,0.8-0.4h3.5c0.1,0,0.1,0,0.2,0.1c0,0,0.1,0.1,0.1,0.2c0,0.1,0,0.2-0.1,0.3c-0.1,0.1-0.1,0.1-0.2,0.1h-1.2
		c-0.1,0.5-0.2,1-0.2,1.5c0,0.6,0.1,1.2,0.3,1.7c0,0,0,0.1,0,0.1c0,0.1,0,0.1-0.1,0.2c0,0.1-0.1,0.1-0.2,0.1c-0.1,0-0.1,0.1-0.2,0.1
		c-0.2,0-0.3-0.1-0.4-0.4c-0.1-0.3-0.1-0.5-0.1-0.8c0-0.4,0-0.7,0.1-1.1c0.1-0.3,0.2-0.8,0.3-1.4h-1.1c-0.5,2.1-0.8,3.2-0.9,3.4
		c-0.1,0.2-0.2,0.3-0.4,0.3c-0.1,0-0.1,0-0.2-0.1C190,290.7,189.9,290.6,189.9,290.5L189.9,290.5z"/>
	<g>
		<path class="st1" d="M351.5,285.7c0,0.5-0.1,0.9-0.4,1.3c-0.3,0.3-0.8,0.7-1.5,1.1c-0.8,0.4-1.3,0.8-1.6,1.2
			c-0.1,0.2-0.2,0.3-0.3,0.5h3.8v0.9h-4.8v0c0-0.7,0.2-1.3,0.6-1.8s1.1-1,2.1-1.5c0.5-0.3,0.8-0.5,1-0.8s0.3-0.5,0.3-0.9
			c0-0.4-0.1-0.7-0.4-0.9s-0.6-0.4-1-0.4c-0.4,0-0.8,0.1-1,0.4s-0.4,0.7-0.4,1.3h-0.9c0-0.8,0.2-1.4,0.6-1.8c0.4-0.4,1-0.7,1.8-0.7
			c0.7,0,1.2,0.2,1.6,0.6C351.3,284.6,351.5,285.1,351.5,285.7z"/>
	</g>
	<path class="st2" d="M356.4,290.5c0,0,0-0.1,0-0.2c0.2-0.4,0.4-0.7,0.5-1.1c0.2-0.4,0.3-0.7,0.4-1.1c0.1-0.3,0.2-0.7,0.3-1.1h-0.6
		c-0.2,0-0.5,0.1-0.7,0.2c-0.2,0.1-0.4,0.3-0.5,0.6c0,0,0,0-0.1,0h-0.1c-0.1,0-0.1,0-0.1-0.1c0,0,0,0,0,0c0.2-0.4,0.4-0.7,0.7-0.9
		c0.2-0.2,0.5-0.4,0.8-0.4h3.5c0.1,0,0.1,0,0.2,0.1c0,0,0.1,0.1,0.1,0.2c0,0.1,0,0.2-0.1,0.3c-0.1,0.1-0.1,0.1-0.2,0.1h-1.2
		c-0.1,0.5-0.2,1-0.2,1.5c0,0.6,0.1,1.2,0.3,1.7c0,0,0,0.1,0,0.1c0,0.1,0,0.1-0.1,0.2c0,0.1-0.1,0.1-0.2,0.1c-0.1,0-0.1,0.1-0.2,0.1
		c-0.2,0-0.3-0.1-0.4-0.4c-0.1-0.3-0.1-0.5-0.1-0.8c0-0.4,0-0.7,0.1-1.1c0.1-0.3,0.2-0.8,0.3-1.4H358c-0.5,2.1-0.8,3.2-0.9,3.4
		c-0.1,0.2-0.2,0.3-0.4,0.3c-0.1,0-0.1,0-0.2-0.1C356.5,290.7,356.4,290.6,356.4,290.5L356.4,290.5z"/>
	<path class="st2" d="M183.8,303.1c-0.1,0-0.1,0-0.2-0.1c0,0-0.1-0.1-0.1-0.2c0-0.1,0-0.1,0.1-0.2c0,0,0.1-0.1,0.2-0.1h8.5
		c-0.3-0.2-0.5-0.4-0.8-0.7c-0.2-0.3-0.4-0.6-0.6-0.9c-0.1-0.3-0.3-0.6-0.3-1c0-0.1,0-0.2,0.1-0.2h0.2c0,0,0.1,0,0.1,0
		c0,0,0,0,0,0.1c0.1,0.3,0.2,0.6,0.3,0.9c0.1,0.3,0.3,0.5,0.5,0.8c0.2,0.2,0.4,0.4,0.7,0.6c0.2,0.2,0.5,0.3,0.8,0.4
		c0,0,0.1,0.1,0.1,0.1c0,0.1,0,0.1-0.1,0.1c-0.4,0.1-0.8,0.3-1.1,0.6c-0.3,0.3-0.6,0.6-0.8,0.9c-0.2,0.4-0.4,0.8-0.4,1.2
		c0,0,0,0,0,0.1c0,0,0,0-0.1,0h-0.2c-0.1,0-0.1-0.1-0.1-0.2c0.1-0.5,0.3-1,0.6-1.4c0.3-0.4,0.6-0.8,1-1.1H183.8L183.8,303.1z"/>
	<g>
	</g>
	<path class="st2" d="M199.8,305.8c-0.3,0-0.6-0.1-0.8-0.4c-0.2-0.2-0.3-0.6-0.4-0.9s-0.1-0.7-0.1-1v0c0-0.4,0-0.8,0.1-1.2
		c0.1-0.4,0.2-0.8,0.3-1.2c0.1-0.4,0.3-0.8,0.4-1.1c0.1-0.2,0.3-0.5,0.4-0.7c0.2-0.3,0.4-0.5,0.6-0.8c0.2-0.2,0.4-0.4,0.7-0.6
		s0.5-0.2,0.8-0.2h0c0.3,0,0.5,0.1,0.7,0.2c0.2,0.2,0.3,0.3,0.4,0.6c0.1,0.2,0.2,0.5,0.2,0.8c0,0.3,0.1,0.5,0.1,0.8
		c0,0.6-0.1,1.1-0.2,1.7c-0.2,0.6-0.4,1.2-0.6,1.7c-0.1,0.2-0.2,0.4-0.4,0.7c-0.2,0.3-0.4,0.5-0.6,0.8c-0.2,0.2-0.4,0.4-0.7,0.6
		C200.3,305.8,200,305.8,199.8,305.8L199.8,305.8L199.8,305.8z M199.8,305.5c0.2,0,0.5-0.1,0.7-0.4c0.2-0.3,0.4-0.6,0.6-1
		c0.2-0.4,0.3-0.8,0.5-1.2c0.1-0.4,0.2-0.7,0.3-1h-2.3c-0.1,0.5-0.2,0.9-0.3,1.2c-0.1,0.3-0.1,0.7-0.1,1
		C199.2,305.1,199.4,305.5,199.8,305.5L199.8,305.5z M199.6,301.6h2.3c0.1-0.3,0.1-0.6,0.2-0.8c0-0.2,0.1-0.5,0.1-0.7
		c0-0.2,0.1-0.5,0.1-0.7c0-0.9-0.2-1.3-0.6-1.3c-0.5,0-0.9,0.4-1.2,1.1C200.1,300,199.8,300.8,199.6,301.6L199.6,301.6z"/>
	<path class="st0" d="M30.7,276.5V19.2 M356.2,276.5V19.2 M30.7,276.5H34 M30.7,249.7H34 M30.7,222.9H34 M30.7,196.1H34 M30.7,169.3
		H34 M30.7,142.5H34 M30.7,115.7H34 M30.7,88.9H34 M30.7,62.1H34 M30.7,35.3H34 M356.2,276.5h-3.3 M356.2,249.7h-3.3 M356.2,222.9
		h-3.3 M356.2,196.1h-3.3 M356.2,169.3h-3.3 M356.2,142.5h-3.3 M356.2,115.7h-3.3 M356.2,88.9h-3.3 M356.2,62.1h-3.3 M356.2,35.3
		h-3.3"/>
	<g>
		<path class="st1" d="M21.7,279.8c-0.4-0.6-0.6-1.5-0.6-2.7s0.2-2,0.6-2.7c0.4-0.6,1-0.9,1.8-0.9c0.8,0,1.4,0.3,1.8,0.9
			c0.4,0.6,0.6,1.5,0.6,2.7s-0.2,2-0.6,2.7c-0.4,0.6-1,0.9-1.8,0.9C22.7,280.8,22.1,280.5,21.7,279.8z M24.6,279.3
			c0.2-0.5,0.4-1.2,0.4-2.1c0-0.9-0.1-1.6-0.4-2.1c-0.2-0.5-0.6-0.7-1.1-0.7c-0.5,0-0.9,0.2-1.1,0.7c-0.2,0.5-0.4,1.2-0.4,2.1
			c0,0.9,0.1,1.6,0.4,2.1s0.6,0.7,1.1,0.7C24,280,24.3,279.8,24.6,279.3z"/>
	</g>
	<g>
		<path class="st1" d="M25.8,248.8c0,0.5-0.1,0.9-0.4,1.3c-0.3,0.3-0.8,0.7-1.5,1.1c-0.8,0.4-1.3,0.8-1.6,1.2
			c-0.1,0.2-0.2,0.3-0.3,0.5h3.8v0.9H21v0c0-0.7,0.2-1.3,0.6-1.8s1.1-1,2.1-1.5c0.5-0.3,0.8-0.5,1-0.8c0.2-0.2,0.3-0.5,0.3-0.9
			c0-0.4-0.1-0.7-0.4-0.9c-0.3-0.2-0.6-0.4-1-0.4c-0.4,0-0.8,0.1-1,0.4s-0.4,0.7-0.4,1.3h-0.9c0-0.8,0.2-1.4,0.6-1.8
			c0.4-0.4,1-0.7,1.8-0.7c0.7,0,1.2,0.2,1.6,0.6C25.6,247.7,25.8,248.2,25.8,248.8z"/>
	</g>
	<g>
		<path class="st1" d="M20.9,225.3v-0.4v-0.4l3.3-4.5h0.4h0.4v4.6h1v0.8h-1v1.7H24v-1.7H20.9z M24,224.6v-3.2l-2.2,3.1l0,0.1H24z"/>
	</g>
	<g>
		<path class="st1" d="M23.7,193.2c0.6,0,1.1,0.2,1.5,0.5c0.4,0.3,0.6,0.8,0.6,1.4h-0.9c0-0.3-0.2-0.6-0.4-0.8
			c-0.2-0.2-0.5-0.3-0.8-0.3c-0.5,0-1,0.3-1.3,0.8c-0.3,0.4-0.4,1.1-0.4,1.8c0.4-0.6,1-0.8,1.7-0.8c0.7,0,1.2,0.2,1.6,0.6
			c0.4,0.4,0.6,1,0.6,1.7s-0.2,1.3-0.7,1.7c-0.4,0.4-1,0.6-1.7,0.6c-0.8,0-1.4-0.3-1.8-0.9c-0.4-0.6-0.6-1.4-0.6-2.5
			c0-1.2,0.2-2.2,0.7-2.8C22.2,193.5,22.8,193.2,23.7,193.2z M22.1,198.1c0,0.5,0.1,0.8,0.4,1.1c0.3,0.3,0.6,0.4,1,0.4
			c0.4,0,0.8-0.1,1-0.4c0.3-0.3,0.4-0.7,0.4-1.1s-0.1-0.8-0.4-1.1c-0.3-0.3-0.6-0.4-1-0.4c-0.4,0-0.8,0.1-1,0.4
			C22.2,197.2,22.1,197.6,22.1,198.1z"/>
	</g>
	<g>
		<path class="st1" d="M24.7,169.7c0.2,0.1,0.4,0.2,0.5,0.3c0.4,0.4,0.7,0.8,0.7,1.4c0,0.7-0.2,1.2-0.7,1.6s-1,0.6-1.7,0.6
			c-0.7,0-1.3-0.2-1.7-0.6c-0.4-0.4-0.7-0.9-0.7-1.6c0-0.6,0.2-1.1,0.7-1.4c0.2-0.1,0.3-0.2,0.5-0.3c-0.1-0.1-0.2-0.1-0.3-0.2
			c-0.4-0.3-0.6-0.7-0.6-1.2c0-0.6,0.2-1,0.6-1.4s0.9-0.5,1.6-0.5s1.2,0.2,1.6,0.5s0.6,0.8,0.6,1.4c0,0.5-0.2,0.9-0.6,1.2
			C24.9,169.5,24.8,169.6,24.7,169.7z M23.5,170.1c-0.4,0-0.8,0.1-1.1,0.4c-0.3,0.3-0.4,0.6-0.4,1c0,0.4,0.1,0.7,0.4,1
			c0.3,0.3,0.6,0.4,1.1,0.4s0.8-0.1,1.1-0.4s0.4-0.6,0.4-1c0-0.4-0.1-0.7-0.4-1C24.3,170.2,23.9,170.1,23.5,170.1z M23.5,169.3
			c0.4,0,0.7-0.1,0.9-0.3c0.2-0.2,0.3-0.5,0.3-0.8s-0.1-0.6-0.3-0.8c-0.2-0.2-0.5-0.3-0.9-0.3c-0.4,0-0.7,0.1-0.9,0.3
			c-0.2,0.2-0.3,0.5-0.3,0.8s0.1,0.6,0.3,0.8C22.8,169.2,23.1,169.3,23.5,169.3z"/>
	</g>
	<g>
		<path class="st1" d="M18.1,141.6h-1.6v-0.7c0.5,0,0.9-0.1,1.2-0.3c0.3-0.2,0.5-0.6,0.7-1H19v7h-0.5h-0.5V141.6z"/>
		<path class="st1" d="M22,145.9c-0.4-0.6-0.6-1.5-0.6-2.7c0-1.2,0.2-2,0.6-2.7c0.4-0.6,1-0.9,1.8-0.9c0.8,0,1.4,0.3,1.8,0.9
			c0.4,0.6,0.6,1.5,0.6,2.7c0,1.2-0.2,2-0.6,2.7c-0.4,0.6-1,0.9-1.8,0.9C23,146.8,22.4,146.5,22,145.9z M24.9,145.3
			c0.2-0.5,0.4-1.2,0.4-2.1c0-0.9-0.1-1.6-0.4-2.1c-0.2-0.5-0.6-0.7-1.1-0.7c-0.5,0-0.9,0.2-1.1,0.7c-0.2,0.5-0.4,1.2-0.4,2.1
			c0,0.9,0.1,1.6,0.4,2.1s0.6,0.7,1.1,0.7C24.3,146,24.7,145.8,24.9,145.3z"/>
	</g>
	<g>
		<path class="st1" d="M18.1,114.8h-1.6v-0.7c0.5,0,0.9-0.1,1.2-0.3c0.3-0.2,0.5-0.6,0.7-1H19v7h-0.5h-0.5V114.8z"/>
		<path class="st1" d="M26.1,114.8c0,0.5-0.1,0.9-0.4,1.3c-0.3,0.3-0.8,0.7-1.5,1.1c-0.8,0.4-1.3,0.8-1.6,1.2
			c-0.1,0.2-0.2,0.3-0.3,0.5h3.8v0.9h-4.8v0c0-0.7,0.2-1.3,0.6-1.8s1.1-1,2.1-1.5c0.5-0.3,0.8-0.5,1-0.8c0.2-0.2,0.3-0.5,0.3-0.9
			c0-0.4-0.1-0.7-0.4-0.9c-0.3-0.2-0.6-0.4-1-0.4c-0.4,0-0.8,0.1-1,0.4s-0.4,0.7-0.4,1.3h-0.9c0-0.8,0.2-1.4,0.6-1.8
			c0.4-0.4,1-0.7,1.8-0.7c0.7,0,1.2,0.2,1.6,0.6C25.9,113.7,26.1,114.2,26.1,114.8z"/>
	</g>
	<g>
		<path class="st1" d="M18.1,88h-1.6v-0.7c0.5,0,0.9-0.1,1.2-0.3c0.3-0.2,0.5-0.6,0.7-1H19v7h-0.5h-0.5V88z"/>
		<path class="st1" d="M21.3,91.3v-0.4v-0.4l3.3-4.5h0.4h0.4v4.6h1v0.8h-1V93h-0.9v-1.7H21.3z M24.4,90.6v-3.2l-2.2,3.1l0,0.1H24.4z
			"/>
	</g>
	<g>
		<path class="st1" d="M18.1,61.2h-1.6v-0.7c0.5,0,0.9-0.1,1.2-0.3c0.3-0.2,0.5-0.6,0.7-1H19v7h-0.5h-0.5V61.2z"/>
		<path class="st1" d="M24,59.2c0.6,0,1.1,0.2,1.5,0.5c0.4,0.3,0.6,0.8,0.6,1.4h-0.9c0-0.3-0.2-0.6-0.4-0.8C24.6,60.1,24.3,60,24,60
			c-0.5,0-1,0.3-1.3,0.8c-0.3,0.4-0.4,1.1-0.4,1.8c0.4-0.6,1-0.8,1.7-0.8c0.7,0,1.2,0.2,1.6,0.6c0.4,0.4,0.6,1,0.6,1.7
			c0,0.7-0.2,1.3-0.7,1.7c-0.4,0.4-1,0.6-1.7,0.6c-0.8,0-1.4-0.3-1.8-0.9c-0.4-0.6-0.6-1.4-0.6-2.5c0-1.2,0.2-2.1,0.7-2.8
			C22.5,59.5,23.2,59.2,24,59.2z M22.4,64.1c0,0.5,0.1,0.8,0.4,1.1c0.3,0.3,0.6,0.4,1,0.4c0.4,0,0.8-0.1,1-0.4
			c0.3-0.3,0.4-0.7,0.4-1.1c0-0.5-0.1-0.8-0.4-1.1c-0.3-0.3-0.6-0.4-1-0.4c-0.4,0-0.8,0.1-1,0.4C22.5,63.2,22.4,63.6,22.4,64.1z"/>
	</g>
	<g>
		<path class="st1" d="M18.1,34.4h-1.6v-0.7c0.5,0,0.9-0.1,1.2-0.3c0.3-0.2,0.5-0.6,0.7-1H19v7h-0.5h-0.5V34.4z"/>
		<path class="st1" d="M25,35.7c0.2,0.1,0.4,0.2,0.5,0.3c0.4,0.4,0.7,0.8,0.7,1.4c0,0.7-0.2,1.2-0.7,1.6s-1,0.6-1.7,0.6
			c-0.7,0-1.3-0.2-1.7-0.6c-0.4-0.4-0.7-0.9-0.7-1.6c0-0.6,0.2-1.1,0.7-1.4c0.2-0.1,0.3-0.2,0.5-0.3c-0.1-0.1-0.2-0.1-0.3-0.2
			c-0.4-0.3-0.6-0.7-0.6-1.2c0-0.6,0.2-1,0.6-1.4s0.9-0.5,1.6-0.5s1.2,0.2,1.6,0.5s0.6,0.8,0.6,1.4c0,0.5-0.2,0.9-0.6,1.2
			C25.2,35.6,25.1,35.6,25,35.7z M23.8,36.1c-0.4,0-0.8,0.1-1.1,0.4c-0.3,0.3-0.4,0.6-0.4,1c0,0.4,0.1,0.7,0.4,1
			c0.3,0.3,0.6,0.4,1.1,0.4s0.8-0.1,1.1-0.4s0.4-0.6,0.4-1c0-0.4-0.1-0.7-0.4-1C24.6,36.2,24.2,36.1,23.8,36.1z M23.8,35.3
			c0.4,0,0.7-0.1,0.9-0.3c0.2-0.2,0.3-0.5,0.3-0.8c0-0.3-0.1-0.6-0.3-0.8c-0.2-0.2-0.5-0.3-0.9-0.3c-0.4,0-0.7,0.1-0.9,0.3
			c-0.2,0.2-0.3,0.5-0.3,0.8c0,0.3,0.1,0.6,0.3,0.8C23.1,35.2,23.4,35.3,23.8,35.3z"/>
	</g>
	<g>
		<path class="st1" d="M1.6,184.1v-0.6v-0.6l7.9-2.8v0.6v0.6L7.2,182v3.2l2.3,0.8v0.5v0.6L1.6,184.1z M6.2,184.8v-2.5l-3.5,1.2v0
			L6.2,184.8z"/>
		<path class="st1" d="M1.6,179.2v-0.5v-0.5h2.9c-0.6-0.4-0.9-1-0.9-1.6c0-0.8,0.3-1.3,0.8-1.8c0.5-0.4,1.2-0.7,2.1-0.7
			c1,0,1.8,0.2,2.3,0.7c0.6,0.4,0.9,1.1,0.9,1.8c0,0.6-0.2,1.2-0.7,1.5l-0.1,0.1h0.7v0.9H1.6z M8.8,176.7c0-0.5-0.2-0.9-0.6-1.1
			s-0.9-0.4-1.7-0.4c-0.7,0-1.3,0.1-1.6,0.4c-0.3,0.3-0.5,0.6-0.5,1.2c0,0.5,0.2,0.9,0.6,1.2s1,0.4,1.9,0.4c0.6,0,1.1-0.1,1.4-0.4
			C8.6,177.6,8.8,177.2,8.8,176.7z"/>
		<path class="st1" d="M5.4,169.7c-0.3,0-0.6,0.2-0.7,0.4c-0.2,0.2-0.3,0.5-0.3,0.9c0,0.4,0.1,0.7,0.2,0.9c0.1,0.2,0.3,0.3,0.6,0.3
			c0.2,0,0.4-0.1,0.5-0.2c0.1-0.1,0.2-0.4,0.3-0.9l0.2-1c0.1-0.6,0.3-1,0.6-1.2c0.2-0.2,0.6-0.4,1-0.4c0.6,0,1,0.2,1.4,0.6
			s0.5,1,0.5,1.7c0,0.8-0.2,1.4-0.5,1.8c-0.3,0.4-0.8,0.6-1.5,0.7v-0.9c0.4,0,0.7-0.2,0.9-0.4s0.3-0.6,0.3-1.1c0-0.4-0.1-0.8-0.2-1
			s-0.4-0.3-0.7-0.3c-0.2,0-0.4,0.1-0.5,0.2c-0.1,0.1-0.2,0.4-0.3,0.9l-0.2,1c-0.1,0.5-0.3,0.9-0.5,1.2c-0.2,0.2-0.6,0.3-1,0.3
			c-0.5,0-1-0.2-1.3-0.6c-0.3-0.4-0.5-0.9-0.5-1.6c0-0.7,0.2-1.2,0.5-1.6s0.8-0.6,1.3-0.6V169.7z"/>
		<path class="st1" d="M8.8,167.1c-0.6,0.5-1.3,0.7-2.2,0.7c-0.9,0-1.6-0.2-2.2-0.7s-0.8-1.1-0.8-1.9c0-0.8,0.3-1.4,0.8-1.9
			s1.3-0.7,2.2-0.7c0.9,0,1.6,0.2,2.2,0.7s0.8,1.1,0.8,1.9C9.6,166,9.3,166.6,8.8,167.1z M8.2,164c-0.4-0.3-0.9-0.5-1.6-0.5
			S5.4,163.7,5,164c-0.4,0.3-0.6,0.7-0.6,1.2c0,0.5,0.2,0.9,0.6,1.2c0.4,0.3,0.9,0.4,1.6,0.4s1.2-0.1,1.6-0.4s0.6-0.7,0.6-1.2
			C8.8,164.7,8.6,164.3,8.2,164z"/>
		<path class="st1" d="M7.4,160.4c0.5,0,0.8-0.1,1-0.3c0.2-0.2,0.3-0.5,0.3-0.9c0-0.5-0.2-0.8-0.5-1.1s-0.8-0.4-1.5-0.4H3.7v-0.5
			v-0.5h5.7v0.5v0.5H8.6c0.1,0.1,0.2,0.1,0.3,0.2c0.5,0.4,0.7,0.9,0.7,1.5c0,0.7-0.2,1.1-0.5,1.5s-0.8,0.5-1.5,0.5H3.7v-0.5v-0.5
			H7.4z"/>
		<path class="st1" d="M1.6,155.3v-0.5v-0.5h7.9v0.5v0.5H1.6z"/>
		<path class="st1" d="M7.4,151.9c0.5,0,0.8-0.1,1-0.3c0.2-0.2,0.3-0.5,0.3-0.9c0-0.5-0.2-0.8-0.5-1.1s-0.8-0.4-1.5-0.4H3.7v-0.5
			v-0.5h5.7v0.5v0.5H8.6c0.1,0.1,0.2,0.1,0.3,0.2c0.5,0.4,0.7,0.9,0.7,1.5c0,0.7-0.2,1.1-0.5,1.5c-0.3,0.3-0.8,0.5-1.5,0.5H3.7v-0.5
			v-0.5H7.4z"/>
		<path class="st1" d="M9.4,144.6c0.1,0.3,0.1,0.6,0.1,0.7c0,0.4-0.1,0.7-0.3,0.9c-0.2,0.2-0.5,0.3-1,0.3H4.5v0.8H3.7v-0.8H2.1v-1
			h1.6v-0.9h0.8v0.9h3.8c0.1,0,0.2-0.1,0.3-0.2s0.1-0.2,0.1-0.4v-0.3H9.4z"/>
		<path class="st1" d="M9.6,141.3c0,0.8-0.3,1.5-0.8,1.9S7.6,144,6.7,144c-1,0-1.7-0.2-2.3-0.7c-0.6-0.5-0.9-1.2-0.9-2
			c0-0.8,0.3-1.4,0.8-1.8s1.3-0.7,2.2-0.7l0.3,0v4.2c0.6,0,1-0.2,1.3-0.4c0.4-0.3,0.5-0.7,0.5-1.3c0-0.4-0.1-0.7-0.3-1
			c-0.2-0.3-0.5-0.4-0.8-0.5v-1c0.6,0.1,1.1,0.4,1.4,0.9C9.4,140.1,9.6,140.7,9.6,141.3z M6.1,139.7c-0.5,0-0.9,0.2-1.2,0.4
			c-0.3,0.3-0.5,0.6-0.5,1.1c0,0.5,0.2,0.9,0.6,1.2c0.3,0.2,0.7,0.4,1.2,0.4V139.7z"/>
		<path class="st1" d="M3.7,135.1v-0.6V134l4.7-1.5v0l-4.7-1.6v-0.5v-0.5l5.7,2.1v0.5v0.5L3.7,135.1z"/>
		<path class="st1" d="M9.6,127.5c0,0.6-0.2,1-0.5,1.3s-0.7,0.5-1.2,0.5c-0.5,0-0.9-0.2-1.2-0.5c-0.3-0.3-0.5-0.8-0.6-1.4L6,126.2
			c0-0.1,0-0.2-0.1-0.3c0-0.1-0.1-0.2-0.2-0.3s-0.2-0.1-0.4-0.1h0c-0.3,0-0.5,0.1-0.7,0.3c-0.2,0.2-0.3,0.6-0.3,1
			c0,0.4,0.1,0.7,0.3,0.9c0.2,0.2,0.5,0.4,0.8,0.4v0.9c-0.6,0-1.1-0.3-1.4-0.7s-0.5-1-0.5-1.7c0-0.7,0.2-1.2,0.5-1.6
			c0.3-0.4,0.7-0.5,1.3-0.5h3.2c0.1,0,0.2,0,0.2-0.1s0.1-0.1,0.1-0.2c0,0,0-0.1,0-0.1c0-0.1,0-0.1,0-0.2h0.7c0,0.1,0.1,0.2,0.1,0.3
			s0,0.2,0,0.3c0,0.4-0.1,0.6-0.3,0.8c-0.1,0.1-0.3,0.2-0.6,0.2c0.1,0.1,0.2,0.2,0.3,0.2C9.4,126.2,9.6,126.8,9.6,127.5z M7.2,125.5
			H6.5c0.1,0.2,0.1,0.4,0.2,0.6l0.1,0.9c0.1,0.5,0.2,0.8,0.3,1c0.2,0.2,0.4,0.3,0.6,0.3c0.3,0,0.6-0.1,0.7-0.3
			c0.2-0.2,0.3-0.4,0.3-0.7c0-0.5-0.1-0.9-0.4-1.3c-0.2-0.2-0.4-0.4-0.7-0.5c0,0-0.1,0-0.2,0C7.4,125.5,7.3,125.5,7.2,125.5z"/>
		<path class="st1" d="M1.6,122.9v-0.5v-0.5h7.9v0.5v0.5H1.6z"/>
		<path class="st1" d="M7.4,119.5c0.5,0,0.8-0.1,1-0.3c0.2-0.2,0.3-0.5,0.3-0.9c0-0.5-0.2-0.8-0.5-1.1s-0.8-0.4-1.5-0.4H3.7v-0.5
			v-0.5h5.7v0.5v0.5H8.6c0.1,0.1,0.2,0.1,0.3,0.2c0.5,0.4,0.7,0.9,0.7,1.5c0,0.7-0.2,1.1-0.5,1.5s-0.8,0.5-1.5,0.5H3.7v-0.5v-0.5
			H7.4z"/>
		<path class="st1" d="M9.6,112c0,0.8-0.3,1.5-0.8,1.9s-1.2,0.7-2.1,0.7c-1,0-1.7-0.2-2.3-0.7c-0.6-0.5-0.9-1.2-0.9-2
			c0-0.8,0.3-1.4,0.8-1.8s1.3-0.7,2.2-0.7l0.3,0v4.2c0.6,0,1-0.2,1.3-0.4c0.4-0.3,0.5-0.7,0.5-1.3c0-0.4-0.1-0.7-0.3-1
			c-0.2-0.3-0.5-0.4-0.8-0.5v-1c0.6,0.1,1.1,0.4,1.4,0.9C9.4,110.8,9.6,111.3,9.6,112z M6.1,110.4c-0.5,0-0.9,0.2-1.2,0.4
			c-0.3,0.3-0.5,0.6-0.5,1.1c0,0.5,0.2,0.9,0.6,1.2c0.3,0.2,0.7,0.4,1.2,0.4V110.4z"/>
	</g>
	<g>
		<path class="st3" d="M44.3,1.6h5.6v1.4h-4v1.8h3.5v1.4h-3.5v3.3h-1.6V1.6z"/>
		<path class="st3" d="M56.8,1.5v1.4h-2.4v6.5h-1.7V2.9h-2.4V1.5H56.8z"/>
		<path class="st3" d="M62.4,1.7c0.6,0.2,1,0.5,1.3,1C64,3.1,64.2,3.5,64.3,4s0.2,0.9,0.2,1.3c0,1.1-0.2,1.9-0.6,2.7
			c-0.6,1-1.5,1.5-2.7,1.5h-3.4V1.5h3.4C61.6,1.5,62,1.6,62.4,1.7z M59.3,2.9v5.2h1.5c0.8,0,1.3-0.4,1.6-1.2
			c0.2-0.4,0.3-0.9,0.3-1.5c0-0.8-0.1-1.4-0.4-1.9c-0.3-0.4-0.8-0.6-1.5-0.6H59.3z"/>
		<path class="st3" d="M65.5,10.7c0.3-0.1,0.5-0.2,0.7-0.4s0.2-0.5,0.2-0.8h-0.9V7.9h1.7v1.4c0,0.2,0,0.5-0.1,0.8s-0.2,0.5-0.4,0.7
			c-0.2,0.2-0.4,0.4-0.7,0.5c-0.3,0.1-0.4,0.2-0.5,0.2V10.7z"/>
		<path class="st3" d="M76.4,1.7c0.6,0.2,1,0.5,1.3,1C78,3.1,78.2,3.5,78.3,4s0.2,0.9,0.2,1.3c0,1.1-0.2,1.9-0.6,2.7
			c-0.6,1-1.5,1.5-2.7,1.5h-3.4V1.5h3.4C75.7,1.5,76.1,1.6,76.4,1.7z M73.4,2.9v5.2h1.5c0.8,0,1.3-0.4,1.6-1.2
			c0.2-0.4,0.3-0.9,0.3-1.5c0-0.8-0.1-1.4-0.4-1.9c-0.3-0.4-0.8-0.6-1.5-0.6H73.4z"/>
		<path class="st3" d="M79.7,1.6h5.6v1.4h-4v1.8h3.5v1.4h-3.5v3.3h-1.6V1.6z"/>
		<path class="st3" d="M92.2,1.5v1.4h-2.4v6.5h-1.7V2.9h-2.4V1.5H92.2z"/>
		<path class="st3" d="M98.4,5.9c0.3,0,0.5-0.1,0.6-0.1c0.2-0.1,0.3-0.2,0.3-0.4c0-0.2-0.1-0.4-0.3-0.5c-0.2-0.1-0.4-0.1-0.7-0.1
			c-0.4,0-0.6,0.1-0.8,0.3c-0.1,0.1-0.2,0.3-0.2,0.5h-1.5c0-0.5,0.2-0.9,0.4-1.3c0.4-0.5,1.1-0.8,2.1-0.8c0.6,0,1.2,0.1,1.7,0.4
			c0.5,0.3,0.7,0.7,0.7,1.4V8c0,0.2,0,0.4,0,0.7c0,0.2,0,0.3,0.1,0.4s0.1,0.1,0.2,0.2v0.2h-1.7c0-0.1-0.1-0.2-0.1-0.3s0-0.2,0-0.4
			c-0.2,0.2-0.5,0.4-0.7,0.6c-0.3,0.2-0.7,0.3-1.1,0.3c-0.5,0-1-0.2-1.3-0.5c-0.3-0.3-0.5-0.7-0.5-1.3c0-0.7,0.3-1.2,0.8-1.6
			C96.8,6.2,97.3,6,97.9,6L98.4,5.9z M99.4,6.6c-0.1,0.1-0.2,0.1-0.3,0.1c-0.1,0-0.2,0.1-0.4,0.1l-0.3,0.1C98,7,97.7,7.1,97.6,7.1
			c-0.2,0.1-0.4,0.4-0.4,0.6c0,0.3,0.1,0.5,0.2,0.6c0.1,0.1,0.3,0.2,0.5,0.2c0.3,0,0.6-0.1,0.9-0.3s0.4-0.5,0.4-1.1V6.6z"/>
		<path class="st3" d="M106.9,3.9c0.4,0.3,0.6,0.8,0.6,1.6v3.9h-1.6V5.9c0-0.3,0-0.5-0.1-0.7c-0.1-0.3-0.4-0.5-0.9-0.5
			c-0.5,0-0.9,0.2-1.1,0.7c-0.1,0.2-0.1,0.5-0.1,0.9v3.2h-1.5V3.6h1.5v0.9c0.2-0.3,0.4-0.5,0.6-0.6c0.3-0.2,0.7-0.4,1.2-0.4
			C106.1,3.5,106.6,3.6,106.9,3.9z"/>
		<path class="st3" d="M112,3.7c0.3,0.2,0.5,0.4,0.7,0.6V1.6h1.6v7.9h-1.5V8.6c-0.2,0.3-0.5,0.6-0.7,0.8s-0.6,0.2-1,0.2
			c-0.7,0-1.3-0.3-1.7-0.8s-0.7-1.3-0.7-2.1c0-1,0.2-1.8,0.7-2.4c0.5-0.6,1.1-0.9,1.8-0.9C111.4,3.5,111.8,3.5,112,3.7z M112.4,7.9
			c0.2-0.3,0.3-0.7,0.3-1.3c0-0.7-0.2-1.2-0.5-1.5c-0.2-0.2-0.5-0.3-0.8-0.3c-0.4,0-0.8,0.2-1,0.5s-0.3,0.8-0.3,1.3
			c0,0.5,0.1,1,0.3,1.3c0.2,0.3,0.5,0.5,1,0.5S112.2,8.2,112.4,7.9z"/>
		<path class="st3" d="M118.4,4.9V3.6h4.6v1.3l-2.9,3.3h3v1.3h-4.9V8.3l2.9-3.4H118.4z"/>
		<path class="st3" d="M128,3.7c0.4,0.2,0.7,0.5,1,0.9c0.2,0.3,0.4,0.8,0.5,1.2c0,0.3,0.1,0.7,0.1,1.2h-4.3c0,0.6,0.2,1,0.6,1.2
			c0.2,0.1,0.5,0.2,0.8,0.2c0.3,0,0.6-0.1,0.8-0.3c0.1-0.1,0.2-0.2,0.3-0.4h1.6c0,0.3-0.2,0.7-0.6,1.1c-0.5,0.6-1.3,0.9-2.2,0.9
			c-0.8,0-1.5-0.2-2.1-0.7c-0.6-0.5-0.9-1.3-0.9-2.3c0-1,0.3-1.8,0.8-2.3c0.5-0.5,1.2-0.8,2.1-0.8C127.2,3.4,127.6,3.5,128,3.7z
			 M125.7,5c-0.2,0.2-0.4,0.5-0.4,0.9h2.6c0-0.4-0.2-0.7-0.4-0.9s-0.5-0.3-0.9-0.3C126.3,4.7,126,4.8,125.7,5z"/>
		<path class="st3" d="M133.6,3.5c0,0,0.1,0,0.1,0V5c-0.1,0-0.2,0-0.3,0s-0.1,0-0.2,0c-0.6,0-1,0.2-1.2,0.6c-0.1,0.2-0.2,0.6-0.2,1
			v2.8h-1.5V3.6h1.5v1c0.2-0.4,0.4-0.7,0.6-0.8C132.7,3.6,133,3.5,133.6,3.5C133.5,3.5,133.6,3.5,133.6,3.5z"/>
		<path class="st3" d="M139.5,8.7c-0.5,0.6-1.2,0.9-2.3,0.9s-1.8-0.3-2.3-0.9s-0.7-1.3-0.7-2.2c0-0.8,0.2-1.6,0.7-2.2
			c0.5-0.6,1.2-0.9,2.3-0.9s1.8,0.3,2.3,0.9c0.5,0.6,0.7,1.4,0.7,2.2C140.2,7.4,140,8.1,139.5,8.7z M138.3,7.9
			c0.2-0.3,0.4-0.8,0.4-1.4s-0.1-1-0.4-1.4s-0.6-0.5-1-0.5s-0.8,0.2-1,0.5s-0.4,0.8-0.4,1.4s0.1,1,0.4,1.4c0.2,0.3,0.6,0.5,1,0.5
			S138,8.2,138.3,7.9z"/>
		<path class="st3" d="M149.3,4.2c0.5,0.5,0.7,1.2,0.7,2.2c0,1-0.2,1.8-0.7,2.4c-0.5,0.5-1.1,0.8-1.8,0.8c-0.5,0-0.9-0.1-1.2-0.3
			c-0.2-0.1-0.3-0.3-0.5-0.6v3.1h-1.5V3.6h1.5v0.9c0.2-0.3,0.3-0.5,0.5-0.6c0.3-0.3,0.7-0.4,1.2-0.4C148.2,3.5,148.8,3.7,149.3,4.2z
			 M148.1,5.3c-0.2-0.3-0.5-0.5-1-0.5c-0.6,0-0.9,0.3-1.2,0.8c-0.1,0.3-0.2,0.6-0.2,1.1c0,0.7,0.2,1.2,0.5,1.4
			c0.2,0.2,0.5,0.2,0.8,0.2c0.4,0,0.8-0.2,1-0.5c0.2-0.3,0.3-0.8,0.3-1.3C148.4,6.1,148.3,5.7,148.1,5.3z"/>
		<path class="st3" d="M153.4,5.9c0.3,0,0.5-0.1,0.6-0.1c0.2-0.1,0.3-0.2,0.3-0.4c0-0.2-0.1-0.4-0.3-0.5c-0.2-0.1-0.4-0.1-0.7-0.1
			c-0.4,0-0.6,0.1-0.8,0.3c-0.1,0.1-0.2,0.3-0.2,0.5h-1.5c0-0.5,0.2-0.9,0.4-1.3c0.4-0.5,1.1-0.8,2.1-0.8c0.6,0,1.2,0.1,1.7,0.4
			c0.5,0.3,0.7,0.7,0.7,1.4V8c0,0.2,0,0.4,0,0.7c0,0.2,0,0.3,0.1,0.4s0.1,0.1,0.2,0.2v0.2h-1.7c0-0.1-0.1-0.2-0.1-0.3s0-0.2,0-0.4
			c-0.2,0.2-0.5,0.4-0.7,0.6c-0.3,0.2-0.7,0.3-1.1,0.3c-0.5,0-1-0.2-1.3-0.5c-0.3-0.3-0.5-0.7-0.5-1.3c0-0.7,0.3-1.2,0.8-1.6
			c0.3-0.2,0.8-0.3,1.4-0.4L153.4,5.9z M154.4,6.6c-0.1,0.1-0.2,0.1-0.3,0.1c-0.1,0-0.2,0.1-0.4,0.1l-0.3,0.1
			c-0.3,0.1-0.6,0.1-0.7,0.2c-0.2,0.1-0.4,0.4-0.4,0.6c0,0.3,0.1,0.5,0.2,0.6c0.1,0.1,0.3,0.2,0.5,0.2c0.3,0,0.6-0.1,0.9-0.3
			s0.4-0.5,0.4-1.1V6.6z"/>
		<path class="st3" d="M160.3,3.7c0.3,0.2,0.5,0.4,0.7,0.6V1.6h1.6v7.9h-1.5V8.6c-0.2,0.3-0.5,0.6-0.7,0.8s-0.6,0.2-1,0.2
			c-0.7,0-1.3-0.3-1.7-0.8s-0.7-1.3-0.7-2.1c0-1,0.2-1.8,0.7-2.4c0.5-0.6,1.1-0.9,1.8-0.9C159.7,3.5,160,3.5,160.3,3.7z M160.7,7.9
			c0.2-0.3,0.3-0.7,0.3-1.3c0-0.7-0.2-1.2-0.5-1.5c-0.2-0.2-0.5-0.3-0.8-0.3c-0.4,0-0.8,0.2-1,0.5s-0.3,0.8-0.3,1.3
			c0,0.5,0.1,1,0.3,1.3c0.2,0.3,0.5,0.5,1,0.5S160.5,8.2,160.7,7.9z"/>
		<path class="st3" d="M167,3.7c0.3,0.2,0.5,0.4,0.7,0.6V1.6h1.6v7.9h-1.5V8.6c-0.2,0.3-0.5,0.6-0.7,0.8s-0.6,0.2-1,0.2
			c-0.7,0-1.3-0.3-1.7-0.8s-0.7-1.3-0.7-2.1c0-1,0.2-1.8,0.7-2.4c0.5-0.6,1.1-0.9,1.8-0.9C166.5,3.5,166.8,3.5,167,3.7z M167.4,7.9
			c0.2-0.3,0.3-0.7,0.3-1.3c0-0.7-0.2-1.2-0.5-1.5c-0.2-0.2-0.5-0.3-0.8-0.3c-0.4,0-0.8,0.2-1,0.5s-0.3,0.8-0.3,1.3
			c0,0.5,0.1,1,0.3,1.3c0.2,0.3,0.5,0.5,1,0.5S167.2,8.2,167.4,7.9z"/>
		<path class="st3" d="M174.5,3.7c0.4,0.2,0.7,0.5,1,0.9c0.2,0.3,0.4,0.8,0.5,1.2c0,0.3,0.1,0.7,0.1,1.2h-4.3c0,0.6,0.2,1,0.6,1.2
			c0.2,0.1,0.5,0.2,0.8,0.2c0.3,0,0.6-0.1,0.8-0.3c0.1-0.1,0.2-0.2,0.3-0.4h1.6c0,0.3-0.2,0.7-0.6,1.1c-0.5,0.6-1.3,0.9-2.2,0.9
			c-0.8,0-1.5-0.2-2.1-0.7c-0.6-0.5-0.9-1.3-0.9-2.3c0-1,0.3-1.8,0.8-2.3c0.5-0.5,1.2-0.8,2.1-0.8C173.6,3.4,174.1,3.5,174.5,3.7z
			 M172.2,5c-0.2,0.2-0.4,0.5-0.4,0.9h2.6c0-0.4-0.2-0.7-0.4-0.9s-0.5-0.3-0.9-0.3C172.7,4.7,172.4,4.8,172.2,5z"/>
		<path class="st3" d="M179.9,3.7c0.3,0.2,0.5,0.4,0.7,0.6V1.6h1.6v7.9h-1.5V8.6c-0.2,0.3-0.5,0.6-0.7,0.8s-0.6,0.2-1,0.2
			c-0.7,0-1.3-0.3-1.7-0.8s-0.7-1.3-0.7-2.1c0-1,0.2-1.8,0.7-2.4c0.5-0.6,1.1-0.9,1.8-0.9C179.3,3.5,179.6,3.5,179.9,3.7z
			 M180.3,7.9c0.2-0.3,0.3-0.7,0.3-1.3c0-0.7-0.2-1.2-0.5-1.5c-0.2-0.2-0.5-0.3-0.8-0.3c-0.4,0-0.8,0.2-1,0.5S178,6.1,178,6.6
			c0,0.5,0.1,1,0.3,1.3c0.2,0.3,0.5,0.5,1,0.5S180,8.2,180.3,7.9z"/>
		<path class="st3" d="M191.3,1.7c0.6,0.2,1,0.5,1.3,1c0.3,0.4,0.5,0.8,0.6,1.3s0.2,0.9,0.2,1.3c0,1.1-0.2,1.9-0.6,2.7
			c-0.6,1-1.5,1.5-2.7,1.5h-3.4V1.5h3.4C190.6,1.5,191,1.6,191.3,1.7z M188.3,2.9v5.2h1.5c0.8,0,1.3-0.4,1.6-1.2
			c0.2-0.4,0.3-0.9,0.3-1.5c0-0.8-0.1-1.4-0.4-1.9c-0.3-0.4-0.8-0.6-1.5-0.6H188.3z"/>
		<path class="st3" d="M194.6,1.6h5.6v1.4h-4v1.8h3.5v1.4h-3.5v3.3h-1.6V1.6z"/>
		<path class="st3" d="M207.1,1.5v1.4h-2.4v6.5h-1.7V2.9h-2.4V1.5H207.1z"/>
		<path class="st3" d="M215.9,8.7c-0.5,0.6-1.2,0.9-2.3,0.9c-1,0-1.8-0.3-2.3-0.9s-0.7-1.3-0.7-2.2c0-0.8,0.2-1.6,0.7-2.2
			c0.5-0.6,1.2-0.9,2.3-0.9c1,0,1.8,0.3,2.3,0.9c0.5,0.6,0.7,1.4,0.7,2.2C216.6,7.4,216.4,8.1,215.9,8.7z M214.6,7.9
			c0.2-0.3,0.4-0.8,0.4-1.4s-0.1-1-0.4-1.4s-0.6-0.5-1-0.5s-0.8,0.2-1,0.5c-0.2,0.3-0.4,0.8-0.4,1.4s0.1,1,0.4,1.4
			c0.2,0.3,0.6,0.5,1,0.5S214.4,8.2,214.6,7.9z"/>
		<path class="st3" d="M220.1,1.5c0.1,0,0.2,0,0.3,0v1.2c-0.1,0-0.2,0-0.4,0s-0.3,0-0.4,0.1c-0.1,0.1-0.1,0.2-0.1,0.3
			c0,0.1,0,0.3,0,0.5h1v1.1h-1v4.7H218V4.7h-0.9V3.7h0.8V3.3c0-0.6,0.1-1.1,0.3-1.3c0.2-0.4,0.8-0.5,1.6-0.5
			C220,1.5,220.1,1.5,220.1,1.5z"/>
		<path class="st3" d="M223.8,9.5l2-3l-1.9-2.9h1.9l1,1.7l1-1.7h1.8l-1.9,2.9l2,3h-1.9l-1-1.8l-1,1.8H223.8z"/>
	</g>
	<g>
		<path class="st3" d="M233,10h1.2l0.7,3.4l0.7-3.4h1.3l-1.4,4.7h-1.3l-0.7-3.4l-0.7,3.4h-1.3l-1.3-4.7h1.3l0.7,3.4L233,10z"/>
		<path class="st3" d="M238.9,9.5h-1.2V8.3h1.2V9.5z M237.6,10h1.2v4.7h-1.2V10z"/>
		<path class="st3" d="M243.8,10.3c0.3,0.3,0.5,0.7,0.5,1.3v3.2H243v-2.8c0-0.2,0-0.4-0.1-0.6c-0.1-0.2-0.3-0.4-0.7-0.4
			c-0.4,0-0.7,0.2-0.8,0.5c-0.1,0.2-0.1,0.4-0.1,0.7v2.5h-1.2V10h1.2v0.7c0.2-0.2,0.3-0.4,0.4-0.5c0.3-0.2,0.6-0.3,1-0.3
			C243.1,9.9,243.5,10,243.8,10.3z"/>
	</g>
	<g>
		<path class="st3" d="M245.9,1.5h2.7v1.1h-1.2v7.9h1.2v1.1h-2.7V1.5z"/>
		<path class="st3" d="M254.3,3.9c0.4,0.3,0.6,0.8,0.6,1.6v3.9h-1.6V5.9c0-0.3,0-0.5-0.1-0.7c-0.1-0.3-0.4-0.5-0.9-0.5
			c-0.5,0-0.9,0.2-1.1,0.7c-0.1,0.2-0.1,0.5-0.1,0.9v3.2h-1.5V3.6h1.5v0.9c0.2-0.3,0.4-0.5,0.6-0.6c0.3-0.2,0.7-0.4,1.2-0.4
			C253.4,3.5,253.9,3.6,254.3,3.9z"/>
		<path class="st3" d="M255.8,10.5h1.2V2.6h-1.2V1.5h2.7v10.1h-2.7V10.5z"/>
		<path class="st3" d="M265.3,5.9c0.3,0,0.5-0.1,0.6-0.1c0.2-0.1,0.3-0.2,0.3-0.4c0-0.2-0.1-0.4-0.3-0.5s-0.4-0.1-0.7-0.1
			c-0.4,0-0.6,0.1-0.8,0.3c-0.1,0.1-0.2,0.3-0.2,0.5h-1.5c0-0.5,0.2-0.9,0.4-1.3c0.4-0.5,1.1-0.8,2.1-0.8c0.6,0,1.2,0.1,1.7,0.4
			s0.8,0.7,0.8,1.4V8c0,0.2,0,0.4,0,0.7c0,0.2,0,0.3,0.1,0.4s0.1,0.1,0.2,0.2v0.2h-1.7c0-0.1-0.1-0.2-0.1-0.3s0-0.2,0-0.4
			c-0.2,0.2-0.5,0.4-0.7,0.6c-0.3,0.2-0.7,0.3-1.1,0.3c-0.5,0-1-0.2-1.3-0.5c-0.3-0.3-0.5-0.7-0.5-1.3c0-0.7,0.3-1.2,0.8-1.6
			c0.3-0.2,0.8-0.3,1.4-0.4L265.3,5.9z M266.3,6.6c-0.1,0.1-0.2,0.1-0.3,0.1c-0.1,0-0.2,0.1-0.4,0.1l-0.3,0.1
			c-0.3,0.1-0.6,0.1-0.7,0.2c-0.2,0.1-0.4,0.4-0.4,0.6c0,0.3,0.1,0.5,0.2,0.6c0.1,0.1,0.3,0.2,0.5,0.2c0.3,0,0.6-0.1,0.9-0.3
			s0.4-0.5,0.4-1.1V6.6z"/>
		<path class="st3" d="M273.9,3.9c0.4,0.3,0.6,0.8,0.6,1.6v3.9h-1.6V5.9c0-0.3,0-0.5-0.1-0.7c-0.1-0.3-0.4-0.5-0.9-0.5
			c-0.5,0-0.9,0.2-1.1,0.7c-0.1,0.2-0.1,0.5-0.1,0.9v3.2h-1.5V3.6h1.5v0.9c0.2-0.3,0.4-0.5,0.6-0.6c0.3-0.2,0.7-0.4,1.2-0.4
			C273,3.5,273.5,3.6,273.9,3.9z"/>
		<path class="st3" d="M279,3.7c0.3,0.2,0.5,0.4,0.7,0.6V1.6h1.6v7.9h-1.5V8.6c-0.2,0.3-0.5,0.6-0.7,0.8s-0.6,0.2-1,0.2
			c-0.7,0-1.3-0.3-1.7-0.8c-0.5-0.6-0.7-1.3-0.7-2.1c0-1,0.2-1.8,0.7-2.4s1.1-0.9,1.8-0.9C278.4,3.5,278.7,3.5,279,3.7z M279.3,7.9
			c0.2-0.3,0.3-0.7,0.3-1.3c0-0.7-0.2-1.2-0.5-1.5c-0.2-0.2-0.5-0.3-0.8-0.3c-0.4,0-0.8,0.2-1,0.5c-0.2,0.3-0.3,0.8-0.3,1.3
			c0,0.5,0.1,1,0.3,1.3c0.2,0.3,0.5,0.5,1,0.5C278.8,8.4,279.1,8.2,279.3,7.9z"/>
		<path class="st3" d="M285.8,1.6h5.6v1.4h-4v1.8h3.5v1.4h-3.5v3.3h-1.6V1.6z"/>
		<path class="st3" d="M298.2,1.5v1.4h-2.4v6.5h-1.7V2.9h-2.4V1.5H298.2z"/>
		<path class="st3" d="M303.8,1.7c0.6,0.2,1,0.5,1.3,1c0.3,0.4,0.5,0.8,0.6,1.3s0.2,0.9,0.2,1.3c0,1.1-0.2,1.9-0.6,2.7
			c-0.6,1-1.5,1.5-2.7,1.5h-3.4V1.5h3.4C303.1,1.5,303.5,1.6,303.8,1.7z M300.8,2.9v5.2h1.5c0.8,0,1.3-0.4,1.6-1.2
			c0.2-0.4,0.3-0.9,0.3-1.5c0-0.8-0.1-1.4-0.4-1.9c-0.3-0.4-0.8-0.6-1.5-0.6H300.8z"/>
		<path class="st3" d="M315,8.7c-0.5,0.6-1.2,0.9-2.3,0.9c-1,0-1.8-0.3-2.3-0.9s-0.7-1.3-0.7-2.2c0-0.8,0.2-1.6,0.7-2.2
			c0.5-0.6,1.2-0.9,2.3-0.9c1,0,1.8,0.3,2.3,0.9c0.5,0.6,0.7,1.4,0.7,2.2C315.7,7.4,315.4,8.1,315,8.7z M313.7,7.9
			c0.2-0.3,0.4-0.8,0.4-1.4s-0.1-1-0.4-1.4s-0.6-0.5-1-0.5s-0.8,0.2-1,0.5c-0.2,0.3-0.4,0.8-0.4,1.4s0.1,1,0.4,1.4
			c0.2,0.3,0.6,0.5,1,0.5S313.5,8.2,313.7,7.9z"/>
		<path class="st3" d="M319.2,1.5c0.1,0,0.2,0,0.3,0v1.2c-0.1,0-0.2,0-0.4,0s-0.3,0-0.4,0.1c-0.1,0.1-0.1,0.2-0.1,0.3
			c0,0.1,0,0.3,0,0.5h1v1.1h-1v4.7H317V4.7h-0.9V3.7h0.8V3.3c0-0.6,0.1-1.1,0.3-1.3c0.2-0.4,0.8-0.5,1.6-0.5
			C319,1.5,319.1,1.5,319.2,1.5z"/>
		<path class="st3" d="M322.9,9.5l2-3L323,3.6h1.9l1,1.7l1-1.7h1.8l-1.9,2.9l2,3h-1.9l-1-1.8l-1,1.8H322.9z"/>
		<path class="st3" d="M329.6,1.5h2.7v1.1h-1.2v7.9h1.2v1.1h-2.7V1.5z"/>
		<path class="st3" d="M338,3.9c0.4,0.3,0.6,0.8,0.6,1.6v3.9H337V5.9c0-0.3,0-0.5-0.1-0.7c-0.1-0.3-0.4-0.5-0.9-0.5
			c-0.5,0-0.9,0.2-1.1,0.7c-0.1,0.2-0.1,0.5-0.1,0.9v3.2h-1.5V3.6h1.5v0.9c0.2-0.3,0.4-0.5,0.6-0.6c0.3-0.2,0.7-0.4,1.2-0.4
			C337.1,3.5,337.6,3.6,338,3.9z"/>
		<path class="st3" d="M339.5,10.5h1.2V2.6h-1.2V1.5h2.7v10.1h-2.7V10.5z"/>
	</g>
	<polyline class="st4" points="30.7,263.1 31.4,263.4 31.5,263.4 32.2,264.4 32.2,264.4 32.9,266.1 33,266.1 33.7,268.3 33.7,268.3 
		34.4,271 34.5,271 35.2,274 35.2,274 35.8,276.5 35.9,275.8 36,275.7 36.7,272.5 36.7,272.5 37.4,269.5 37.5,269.4 38.2,266.6 
		38.2,266.6 38.9,264.3 39,264.3 39.7,262.5 39.7,262.5 40.4,261.4 40.5,261.4 41.1,261 41.2,261 41.2,261 41.9,261.5 42,261.5 
		42.7,262.8 42.7,262.8 43.4,264.9 43.5,264.9 44.2,267.7 44.2,267.7 44.9,271.1 45,271.2 45.7,275 45.7,275.1 46,276.5 46.4,273.7 
		46.5,273.7 47.2,269.4 47.2,269.4 47.9,265.2 48,265.2 48.7,261.4 48.7,261.4 49.4,258.2 49.5,258.2 50.2,255.8 50.2,255.8 
		50.9,254.4 51,254.3 51.5,254 51.7,254 51.7,254 52.4,254.9 52.5,254.9 53.2,257.1 53.2,257.1 53.9,260.5 54,260.5 54.7,265.1 
		54.7,265.1 55.4,270.7 55.5,270.7 56.1,276.5 56.2,275.8 56.2,275.8 56.9,268.9 57,268.8 57.7,261.7 57.7,261.7 58.4,254.7 
		58.5,254.6 59.2,248.2 59.2,248.2 59.9,242.6 60,242.6 60.7,238.4 60.7,238.3 61.4,235.8 61.5,235.8 62,235.2 62.2,235.2 
		62.2,235.2 62.9,237 63,237 63.7,241.3 63.7,241.3 64.4,248.2 64.5,248.2 65.2,257.7 65.2,257.8 65.9,269.9 66,270 66.3,276.5 
		66.7,268.4 66.7,268.3 67.4,251.7 67.5,251.6 68.2,233.1 68.2,233 68.9,213.2 69,213 69.7,192.4 69.7,192.2 70.4,171.3 70.5,171.2 
		71.2,150.6 71.2,150.4 71.9,130.8 72,130.6 72.7,112.5 72.7,112.4 73.4,96.4 73.5,96.3 74.2,82.8 74.2,82.8 74.9,72.4 75,72.4 
		75.7,65.4 75.7,65.4 76.4,62.1 76.5,62.1 76.7,61.9 77.2,62.7 77.2,62.7 77.9,67 78,67 78.7,75.1 78.7,75.1 79.4,86.6 79.5,86.7 
		80.2,101.3 80.2,101.4 80.9,118.7 81,118.8 81.7,138.3 81.7,138.4 82.4,159.4 82.5,159.5 83.2,181.4 83.2,181.5 83.9,203.7 
		84,203.8 84.7,225.6 84.7,225.8 85.4,246.5 85.5,246.7 86.2,265.9 86.2,266 86.6,276.5 86.9,269.8 87,269.6 87.7,255 87.7,254.9 
		88.4,242.9 88.5,242.9 89.2,233.9 89.2,233.8 89.9,227.9 90,227.9 90.7,224.9 90.7,224.9 91.1,224.5 91.4,224.8 91.5,224.8 
		92.2,227.4 92.2,227.4 92.9,232.2 93,232.2 93.7,238.9 93.7,238.9 94.4,247 94.5,247.1 95.2,256.1 95.2,256.1 95.9,265.6 96,265.6 
		96.7,275 96.7,275.1 96.8,276.5 97.4,269 97.5,268.9 98.2,261 98.2,260.9 98.9,254.2 99,254.2 99.7,249 99.7,249 100.4,245.4 
		100.5,245.4 101.2,243.7 101.2,243.7 101.6,243.5 101.9,243.7 102,243.7 102.7,245.5 102.7,245.5 103.4,248.7 103.5,248.8 
		104.2,253.3 104.2,253.3 104.9,258.9 105,258.9 105.7,265.1 105.7,265.1 106.4,271.7 106.5,271.7 107,276.5 107.2,274.7 
		107.2,274.6 107.9,268.4 108,268.4 108.7,262.8 108.7,262.8 109.4,258.2 109.5,258.2 110.2,254.6 110.2,254.6 110.9,252.4 
		111,252.3 111.7,251.4 111.7,251.4 111.8,251.4 112.4,251.8 112.5,251.8 113.2,253.5 113.2,253.5 113.9,256.3 114,256.3 
		114.7,260.1 114.7,260.2 115.4,264.7 115.5,264.7 116.2,269.7 116.2,269.7 116.9,275 117,275 117.2,276.5 117.7,272.8 117.7,272.7 
		118.4,267.9 118.5,267.9 119.2,263.6 119.2,263.6 119.9,260.1 120,260.1 120.7,257.6 120.7,257.6 121.4,256.1 121.5,256.1 
		122.1,255.7 122.2,255.7 122.2,255.7 122.9,256.4 123,256.4 123.7,258.2 123.7,258.2 124.4,260.8 124.5,260.9 125.2,264.3 
		125.2,264.3 125.9,268.3 126,268.3 126.7,272.7 126.7,272.7 127.3,276.5 127.4,275.8 127.5,275.8 128.2,271.4 128.2,271.4 
		128.9,267.4 129,267.4 129.7,264 129.7,264 130.4,261.3 130.5,261.2 131.2,259.4 131.2,259.4 131.9,258.5 132,258.4 132.3,258.3 
		132.7,258.5 132.7,258.5 133.4,259.5 133.5,259.5 134.2,261.3 134.2,261.3 134.9,264 135,264 135.7,267.2 135.7,267.2 136.4,270.9 
		136.5,270.9 137.2,274.8 137.2,274.9 137.5,276.5 137.9,274.1 138,274.1 138.7,270.4 138.7,270.3 139.4,267 139.5,266.9 
		140.2,264.1 140.2,264.1 140.9,262 141,262 141.7,260.6 141.7,260.6 142.4,260.1 142.5,260.1 142.5,260.1 143.2,260.5 143.2,260.5 
		143.9,261.7 144,261.7 144.7,263.7 144.7,263.7 145.4,266.3 145.5,266.3 146.2,269.5 146.2,269.5 146.9,272.9 147,273 147.7,276.5 
		147.7,276.4 147.7,276.3 148.4,272.8 148.5,272.8 149.2,269.4 149.2,269.4 149.9,266.5 150,266.5 150.7,264.1 150.7,264.1 
		151.4,262.4 151.5,262.4 152.2,261.5 152.2,261.5 152.7,261.3 152.9,261.4 153,261.4 153.7,262 153.7,262 154.4,263.5 154.5,263.5 
		155.2,265.6 155.2,265.6 155.9,268.2 156,268.2 156.7,271.3 156.7,271.3 157.4,274.6 157.4,274.7 157.8,276.5 158.2,274.9 
		158.2,274.9 158.9,271.6 158.9,271.6 159.7,268.6 159.7,268.6 160.4,266 160.4,266 161.2,264 161.2,264 161.9,262.7 161.9,262.7 
		162.7,262.2 162.7,262.2 162.9,262.1 163.4,262.3 163.4,262.3 164.2,263.3 164.2,263.3 164.9,264.9 164.9,264.9 165.7,267.1 
		165.7,267.2 166.4,269.9 166.4,269.9 167.2,272.9 167.2,272.9 167.9,276.1 167.9,276.2 168,276.5 168.7,273.6 168.7,273.5 
		169.4,270.5 169.4,270.5 170.2,267.8 170.2,267.8 170.9,265.6 170.9,265.5 171.7,263.9 171.7,263.9 172.4,262.9 172.4,262.9 
		173.1,262.7 173.2,262.7 173.2,262.7 173.9,263.2 173.9,263.2 174.7,264.3 174.7,264.4 175.4,266.2 175.4,266.2 176.2,268.5 
		176.2,268.6 176.9,271.3 176.9,271.3 177.7,274.4 177.7,274.4 178.2,276.5 178.4,275.4 178.4,275.4 179.2,272.3 179.2,272.3 
		179.9,269.5 179.9,269.4 180.7,267 180.7,267 181.4,265 181.4,265 182.2,263.7 182.2,263.7 182.9,263 182.9,263 183.3,263 
		183.7,263.1 183.7,263.1 184.4,263.9 184.4,263.9 185.2,265.3 185.2,265.3 185.9,267.3 185.9,267.3 186.7,269.8 186.7,269.9 
		187.4,272.7 187.4,272.7 188.2,275.8 188.2,275.8 188.4,276.5 188.9,274.1 188.9,274 189.7,271.1 189.7,271.1 190.4,268.4 
		190.4,268.4 191.2,266.2 191.2,266.2 191.9,264.5 191.9,264.5 192.7,263.4 192.7,263.4 193.4,263.1 193.4,263.1 194.2,263.4 
		194.2,263.4 194.9,264.5 195,264.5 195.7,266.2 195.7,266.2 196.4,268.4 196.5,268.4 197.2,271.1 197.2,271.1 197.9,274 198,274.1 
		198.5,276.5 198.7,275.8 198.7,275.8 199.4,272.7 199.5,272.7 200.2,269.9 200.2,269.8 200.9,267.3 201,267.3 201.7,265.3 
		201.7,265.3 202.4,263.9 202.5,263.9 203.2,263.1 203.2,263.1 203.6,263 203.9,263 204,263 204.7,263.7 204.7,263.7 205.4,265 
		205.5,265 206.2,267 206.2,267 206.9,269.4 207,269.5 207.7,272.3 207.7,272.3 208.4,275.4 208.5,275.4 208.7,276.5 209.2,274.4 
		209.2,274.4 209.9,271.3 210,271.3 210.7,268.6 210.7,268.5 211.4,266.2 211.5,266.2 212.2,264.4 212.2,264.3 212.9,263.2 
		213,263.2 213.7,262.7 213.7,262.7 213.8,262.7 214.4,262.9 214.5,262.9 215.2,263.9 215.2,263.9 215.9,265.5 216,265.6 
		216.7,267.8 216.7,267.8 217.4,270.5 217.5,270.5 218.2,273.5 218.2,273.6 218.9,276.5 218.9,276.2 219,276.1 219.7,272.9 
		219.7,272.9 220.4,269.9 220.5,269.9 221.2,267.2 221.2,267.1 221.9,264.9 222,264.9 222.7,263.3 222.7,263.3 223.4,262.3 
		223.5,262.3 224,262.1 224.2,262.2 224.2,262.2 224.9,262.7 225,262.7 225.7,264 225.7,264 226.4,266 226.5,266 227.2,268.6 
		227.2,268.6 227.9,271.6 228,271.6 228.7,274.9 228.7,274.9 229.1,276.5 229.4,274.7 229.5,274.6 230.2,271.3 230.2,271.3 
		230.9,268.2 231,268.2 231.7,265.6 231.7,265.6 232.4,263.5 232.5,263.5 233.2,262 233.2,262 233.9,261.4 234,261.4 234.2,261.3 
		234.7,261.5 234.7,261.5 235.4,262.4 235.5,262.4 236.2,264.1 236.2,264.1 236.9,266.5 237,266.5 237.7,269.4 237.7,269.4 
		238.4,272.8 238.5,272.8 239.2,276.3 239.2,276.4 239.2,276.5 239.9,273 240,272.9 240.7,269.5 240.7,269.5 241.4,266.3 
		241.5,266.3 242.2,263.7 242.2,263.7 242.9,261.7 243,261.7 243.7,260.5 243.7,260.5 244.4,260.1 244.4,260.1 244.5,260.1 
		245.2,260.6 245.2,260.6 245.9,262 246,262 246.7,264.1 246.7,264.1 247.4,266.9 247.5,267 248.2,270.3 248.2,270.4 248.9,274.1 
		249,274.1 249.4,276.5 249.7,274.9 249.7,274.8 250.4,270.9 250.5,270.9 251.2,267.2 251.2,267.2 251.9,264 252,264 252.7,261.3 
		252.7,261.3 253.4,259.5 253.5,259.5 254.2,258.5 254.2,258.5 254.6,258.3 254.9,258.4 255,258.5 255.7,259.4 255.7,259.4 
		256.4,261.2 256.5,261.3 257.2,264 257.2,264 257.9,267.4 258,267.4 258.7,271.4 258.7,271.4 259.4,275.8 259.5,275.8 259.6,276.5 
		260.2,272.7 260.2,272.7 260.9,268.3 261,268.3 261.7,264.3 261.7,264.3 262.4,260.9 262.5,260.8 263.2,258.2 263.2,258.2 
		263.9,256.4 264,256.4 264.7,255.7 264.7,255.7 264.8,255.7 265.4,256.1 265.5,256.1 266.2,257.6 266.2,257.6 266.9,260.1 
		267,260.1 267.7,263.6 267.7,263.6 268.4,267.9 268.5,267.9 269.2,272.7 269.2,272.8 269.7,276.5 269.9,275 270,275 270.7,269.7 
		270.7,269.7 271.4,264.7 271.5,264.7 272.2,260.2 272.2,260.1 272.9,256.3 273,256.3 273.7,253.5 273.7,253.5 274.4,251.8 
		274.5,251.8 275.1,251.4 275.2,251.4 275.2,251.4 275.9,252.3 276,252.4 276.7,254.6 276.7,254.6 277.4,258.2 277.5,258.2 
		278.2,262.8 278.2,262.8 278.9,268.4 279,268.4 279.7,274.6 279.7,274.7 279.9,276.5 280.4,271.7 280.5,271.7 281.2,265.1 
		281.2,265.1 281.9,258.9 282,258.9 282.7,253.3 282.7,253.3 283.4,248.8 283.5,248.7 284.2,245.5 284.2,245.5 284.9,243.7 
		285,243.7 285.3,243.5 285.7,243.7 285.7,243.7 286.4,245.4 286.5,245.4 287.2,249 287.2,249 287.9,254.2 288,254.2 288.7,260.9 
		288.7,261 289.4,268.9 289.5,269 290.1,276.5 290.2,275.1 290.2,275 290.9,265.6 291,265.6 291.7,256.1 291.7,256.1 292.4,247.1 
		292.5,247 293.2,238.9 293.2,238.9 293.9,232.2 294,232.2 294.7,227.4 294.7,227.4 295.4,224.8 295.5,224.8 295.8,224.5 
		296.2,224.9 296.2,224.9 296.9,227.9 297,227.9 297.7,233.8 297.7,233.9 298.4,242.9 298.5,242.9 299.2,254.9 299.2,255 
		299.9,269.6 300,269.8 300.3,276.5 300.7,266 300.7,265.9 301.4,246.7 301.5,246.5 302.2,225.8 302.2,225.6 302.9,203.8 303,203.7 
		303.7,181.5 303.7,181.4 304.4,159.5 304.5,159.4 305.2,138.4 305.2,138.3 305.9,118.8 306,118.7 306.7,101.4 306.7,101.3 
		307.4,86.7 307.5,86.6 308.2,75.1 308.2,75.1 308.9,67 309,67 309.7,62.7 309.7,62.7 310.2,61.9 310.4,62.1 310.5,62.1 311.2,65.4 
		311.2,65.4 311.9,72.4 312,72.4 312.7,82.8 312.7,82.8 313.4,96.3 313.5,96.4 314.2,112.4 314.2,112.5 314.9,130.6 315,130.8 
		315.7,150.4 315.7,150.6 316.4,171.2 316.5,171.3 317.2,192.2 317.2,192.4 317.9,213 318,213.2 318.7,233 318.7,233.1 319.4,251.6 
		319.4,251.7 320.2,268.3 320.2,268.4 320.6,276.5 320.9,270 320.9,269.9 321.7,257.8 321.7,257.7 322.4,248.2 322.4,248.2 
		323.2,241.3 323.2,241.3 323.9,237 323.9,237 324.7,235.2 324.7,235.2 324.9,235.2 325.4,235.8 325.4,235.8 326.2,238.3 
		326.2,238.4 326.9,242.6 326.9,242.6 327.7,248.2 327.7,248.2 328.4,254.6 328.4,254.7 329.2,261.7 329.2,261.7 329.9,268.8 
		329.9,268.9 330.7,275.8 330.7,275.8 330.8,276.5 331.4,270.7 331.4,270.7 332.2,265.1 332.2,265.1 332.9,260.5 332.9,260.5 
		333.7,257.1 333.7,257.1 334.4,254.9 334.4,254.9 335.2,254 335.2,254 335.4,254 335.9,254.3 335.9,254.4 336.7,255.8 336.7,255.8 
		337.4,258.2 337.4,258.2 338.2,261.4 338.2,261.4 338.9,265.2 338.9,265.2 339.7,269.4 339.7,269.4 340.4,273.7 340.4,273.7 
		340.9,276.5 341.2,275.1 341.2,275 341.9,271.2 341.9,271.1 342.7,267.7 342.7,267.7 343.4,264.9 343.4,264.9 344.2,262.8 
		344.2,262.8 344.9,261.5 344.9,261.5 345.7,261 345.7,261 345.7,261 346.4,261.4 346.4,261.4 347.2,262.5 347.2,262.5 347.9,264.3 
		347.9,264.3 348.7,266.6 348.7,266.6 349.4,269.4 349.4,269.5 350.2,272.5 350.2,272.5 350.9,275.7 350.9,275.8 351.1,276.5 
		351.7,274 351.7,274 352.4,271 352.4,271 353.2,268.3 353.2,268.3 353.9,266.1 353.9,266.1 354.7,264.4 354.7,264.4 355.4,263.4 
		355.4,263.4 356.2,263.1 	"/>
	<path class="st5" d="M27.7,263.1l3,4l3-4l-3-4L27.7,263.1z M37.9,261.1l3,4l3-4l-3-4L37.9,261.1z M48,254.3l3,4l3-4l-3-4L48,254.3z
		 M58.2,236.4l3,4l3-4l-3-4L58.2,236.4z M68.4,145.5l3,4l3-4l-3-4L68.4,145.5z M78.6,134.5l3,4l3-4l-3-4L78.6,134.5z M88.7,225.5
		l3,4l3-4l-3-4L88.7,225.5z M98.9,243.7l3,4l3-4l-3-4L98.9,243.7z M109.1,251.4l3,4l3-4l-3-4L109.1,251.4z M119.2,255.7l3,4l3-4
		l-3-4L119.2,255.7z M129.4,258.4l3,4l3-4l-3-4L129.4,258.4z M139.6,260.1l3,4l3-4l-3-4L139.6,260.1z M149.8,261.3l3,4l3-4l-3-4
		L149.8,261.3z M159.9,262.1l3,4l3-4l-3-4L159.9,262.1z M170.1,262.7l3,4l3-4l-3-4L170.1,262.7z M180.3,263l3,4l3-4l-3-4L180.3,263z
		 M190.4,263.1l3,4l3-4l-3-4L190.4,263.1z M200.6,263l3,4l3-4l-3-4L200.6,263z M210.8,262.7l3,4l3-4l-3-4L210.8,262.7z M221,262.1
		l3,4l3-4l-3-4L221,262.1z M231.1,261.3l3,4l3-4l-3-4L231.1,261.3z M241.3,260.1l3,4l3-4l-3-4L241.3,260.1z M251.5,258.4l3,4l3-4
		l-3-4L251.5,258.4z M261.7,255.7l3,4l3-4l-3-4L261.7,255.7z M271.8,251.4l3,4l3-4l-3-4L271.8,251.4z M282,243.7l3,4l3-4l-3-4
		L282,243.7z M292.2,225.5l3,4l3-4l-3-4L292.2,225.5z M302.3,134.5l3,4l3-4l-3-4L302.3,134.5z M312.5,145.5l3,4l3-4l-3-4
		L312.5,145.5z M322.7,236.4l3,4l3-4l-3-4L322.7,236.4z M332.9,254.3l3,4l3-4l-3-4L332.9,254.3z M343,261.1l3,4l3-4l-3-4L343,261.1z
		"/>
	<path class="st6" d="M33,263.1c0,1.3-1,2.3-2.3,2.3c-1.3,0-2.3-1-2.3-2.3s1-2.3,2.3-2.3C32,260.7,33,261.8,33,263.1L33,263.1z"/>
	<path class="st6" d="M35.6,266.9c0,1.3-1,2.3-2.3,2.3c-1.3,0-2.3-1-2.3-2.3c0-1.3,1-2.3,2.3-2.3C34.5,264.6,35.6,265.6,35.6,266.9
		L35.6,266.9z"/>
	<path class="st6" d="M38.1,276.5c0,1.3-1,2.3-2.3,2.3c-1.3,0-2.3-1-2.3-2.3c0-1.3,1-2.3,2.3-2.3C37.1,274.1,38.1,275.2,38.1,276.5
		L38.1,276.5z"/>
	<path class="st6" d="M40.7,266.2c0,1.3-1,2.3-2.3,2.3c-1.3,0-2.3-1-2.3-2.3c0-1.3,1-2.3,2.3-2.3C39.6,263.9,40.7,264.9,40.7,266.2
		L40.7,266.2z"/>
	<path class="st6" d="M43.2,261.1c0,1.3-1,2.3-2.3,2.3c-1.3,0-2.3-1-2.3-2.3c0-1.3,1-2.3,2.3-2.3C42.2,258.7,43.2,259.8,43.2,261.1
		L43.2,261.1z"/>
	<path class="st6" d="M45.7,264.8c0,1.3-1,2.3-2.3,2.3c-1.3,0-2.3-1-2.3-2.3c0-1.3,1-2.3,2.3-2.3C44.7,262.4,45.7,263.5,45.7,264.8
		L45.7,264.8z"/>
	<path class="st6" d="M48.3,276.5c0,1.3-1,2.3-2.3,2.3c-1.3,0-2.3-1-2.3-2.3c0-1.3,1-2.3,2.3-2.3C47.2,274.1,48.3,275.2,48.3,276.5
		L48.3,276.5z"/>
	<path class="st6" d="M50.8,262.4c0,1.3-1,2.3-2.3,2.3c-1.3,0-2.3-1-2.3-2.3s1-2.3,2.3-2.3C49.8,260.1,50.8,261.1,50.8,262.4
		L50.8,262.4z"/>
	<path class="st6" d="M53.4,254.3c0,1.3-1,2.3-2.3,2.3c-1.3,0-2.3-1-2.3-2.3s1-2.3,2.3-2.3C52.3,251.9,53.4,253,53.4,254.3
		L53.4,254.3z"/>
	<path class="st6" d="M55.9,258.7c0,1.3-1,2.3-2.3,2.3c-1.3,0-2.3-1-2.3-2.3c0-1.3,1-2.3,2.3-2.3C54.9,256.4,55.9,257.4,55.9,258.7
		L55.9,258.7z"/>
	<path class="st6" d="M58.5,276.5c0,1.3-1,2.3-2.3,2.3c-1.3,0-2.3-1-2.3-2.3c0-1.3,1-2.3,2.3-2.3C57.4,274.1,58.5,275.2,58.5,276.5
		L58.5,276.5z"/>
	<path class="st6" d="M61,252.7c0,1.3-1,2.3-2.3,2.3c-1.3,0-2.3-1-2.3-2.3s1-2.3,2.3-2.3C60,250.3,61,251.4,61,252.7L61,252.7z"/>
	<path class="st6" d="M63.5,236.4c0,1.3-1,2.3-2.3,2.3c-1.3,0-2.3-1-2.3-2.3s1-2.3,2.3-2.3C62.5,234,63.5,235.1,63.5,236.4
		L63.5,236.4z"/>
	<path class="st6" d="M66.1,241.7c0,1.3-1,2.3-2.3,2.3c-1.3,0-2.3-1-2.3-2.3s1-2.3,2.3-2.3C65,239.4,66.1,240.4,66.1,241.7
		L66.1,241.7z"/>
	<path class="st6" d="M68.6,276.5c0,1.3-1,2.3-2.3,2.3c-1.3,0-2.3-1-2.3-2.3c0-1.3,1-2.3,2.3-2.3C67.6,274.1,68.6,275.2,68.6,276.5
		L68.6,276.5z"/>
	<path class="st6" d="M71.2,216c0,1.3-1,2.3-2.3,2.3c-1.3,0-2.3-1-2.3-2.3c0-1.3,1-2.3,2.3-2.3C70.1,213.7,71.2,214.7,71.2,216
		L71.2,216z"/>
	<path class="st6" d="M73.7,145.5c0,1.3-1,2.3-2.3,2.3c-1.3,0-2.3-1-2.3-2.3c0-1.3,1-2.3,2.3-2.3C72.7,143.1,73.7,144.2,73.7,145.5
		L73.7,145.5z"/>
	<path class="st6" d="M76.3,87.3c0,1.3-1,2.3-2.3,2.3c-1.3,0-2.3-1-2.3-2.3c0-1.3,1-2.3,2.3-2.3C75.2,85,76.3,86.1,76.3,87.3
		L76.3,87.3z"/>
	<path class="st6" d="M78.8,62.1c0,1.3-1,2.3-2.3,2.3c-1.3,0-2.3-1-2.3-2.3c0-1.3,1-2.3,2.3-2.3C77.8,59.8,78.8,60.8,78.8,62.1
		L78.8,62.1z"/>
	<path class="st6" d="M81.3,79.6c0,1.3-1,2.3-2.3,2.3c-1.3,0-2.3-1-2.3-2.3c0-1.3,1-2.3,2.3-2.3C80.3,77.2,81.3,78.3,81.3,79.6
		L81.3,79.6z"/>
	<path class="st6" d="M83.9,134.5c0,1.3-1,2.3-2.3,2.3c-1.3,0-2.3-1-2.3-2.3c0-1.3,1-2.3,2.3-2.3C82.8,132.2,83.9,133.2,83.9,134.5
		L83.9,134.5z"/>
	<path class="st6" d="M86.4,208.2c0,1.3-1,2.3-2.3,2.3c-1.3,0-2.3-1-2.3-2.3s1-2.3,2.3-2.3C85.4,205.9,86.4,207,86.4,208.2
		L86.4,208.2z"/>
	<path class="st6" d="M89,276.5c0,1.3-1,2.3-2.3,2.3c-1.3,0-2.3-1-2.3-2.3c0-1.3,1-2.3,2.3-2.3C87.9,274.1,89,275.2,89,276.5
		L89,276.5z"/>
	<path class="st6" d="M91.5,234c0,1.3-1,2.3-2.3,2.3c-1.3,0-2.3-1-2.3-2.3c0-1.3,1-2.3,2.3-2.3C90.5,231.6,91.5,232.7,91.5,234
		L91.5,234z"/>
	<path class="st6" d="M94.1,225.5c0,1.3-1,2.3-2.3,2.3c-1.3,0-2.3-1-2.3-2.3s1-2.3,2.3-2.3C93,223.2,94.1,224.2,94.1,225.5
		L94.1,225.5z"/>
	<path class="st6" d="M96.6,245c0,1.3-1,2.3-2.3,2.3c-1.3,0-2.3-1-2.3-2.3c0-1.3,1-2.3,2.3-2.3C95.6,242.7,96.6,243.7,96.6,245
		L96.6,245z"/>
	<path class="st6" d="M99.1,276.5c0,1.3-1,2.3-2.3,2.3c-1.3,0-2.3-1-2.3-2.3c0-1.3,1-2.3,2.3-2.3C98.1,274.1,99.1,275.2,99.1,276.5
		L99.1,276.5z"/>
	<path class="st6" d="M101.7,251.1c0,1.3-1,2.3-2.3,2.3c-1.3,0-2.3-1-2.3-2.3s1-2.3,2.3-2.3C100.6,248.8,101.7,249.9,101.7,251.1
		L101.7,251.1z"/>
	<path class="st6" d="M104.2,243.7c0,1.3-1,2.3-2.3,2.3c-1.3,0-2.3-1-2.3-2.3s1-2.3,2.3-2.3C103.2,241.3,104.2,242.4,104.2,243.7
		L104.2,243.7z"/>
	<path class="st6" d="M106.8,255c0,1.3-1,2.3-2.3,2.3c-1.3,0-2.3-1-2.3-2.3s1-2.3,2.3-2.3C105.7,252.7,106.8,253.7,106.8,255
		L106.8,255z"/>
	<path class="st6" d="M109.3,276.5c0,1.3-1,2.3-2.3,2.3c-1.3,0-2.3-1-2.3-2.3c0-1.3,1-2.3,2.3-2.3
		C108.3,274.1,109.3,275.2,109.3,276.5L109.3,276.5z"/>
	<path class="st6" d="M111.9,257.7c0,1.3-1,2.3-2.3,2.3c-1.3,0-2.3-1-2.3-2.3s1-2.3,2.3-2.3C110.8,255.4,111.9,256.4,111.9,257.7
		L111.9,257.7z"/>
	<path class="st6" d="M114.4,251.4c0,1.3-1,2.3-2.3,2.3c-1.3,0-2.3-1-2.3-2.3c0-1.3,1-2.3,2.3-2.3
		C113.4,249.1,114.4,250.2,114.4,251.4L114.4,251.4z"/>
	<path class="st6" d="M117,259.7c0,1.3-1,2.3-2.3,2.3c-1.3,0-2.3-1-2.3-2.3s1-2.3,2.3-2.3C115.9,257.4,117,258.4,117,259.7
		L117,259.7z"/>
	<path class="st6" d="M119.5,276.5c0,1.3-1,2.3-2.3,2.3c-1.3,0-2.3-1-2.3-2.3c0-1.3,1-2.3,2.3-2.3
		C118.4,274.1,119.5,275.2,119.5,276.5L119.5,276.5z"/>
	<path class="st6" d="M122,261.2c0,1.3-1,2.3-2.3,2.3c-1.3,0-2.3-1-2.3-2.3c0-1.3,1-2.3,2.3-2.3C121,258.8,122,259.9,122,261.2
		L122,261.2z"/>
	<path class="st6" d="M124.6,255.7c0,1.3-1,2.3-2.3,2.3c-1.3,0-2.3-1-2.3-2.3s1-2.3,2.3-2.3C123.5,253.4,124.6,254.4,124.6,255.7
		L124.6,255.7z"/>
	<path class="st6" d="M127.1,262.3c0,1.3-1,2.3-2.3,2.3c-1.3,0-2.3-1-2.3-2.3s1-2.3,2.3-2.3C126.1,260,127.1,261,127.1,262.3
		L127.1,262.3z"/>
	<path class="st6" d="M129.7,276.5c0,1.3-1,2.3-2.3,2.3c-1.3,0-2.3-1-2.3-2.3c0-1.3,1-2.3,2.3-2.3
		C128.6,274.1,129.7,275.2,129.7,276.5L129.7,276.5z"/>
	<path class="st6" d="M132.2,263.3c0,1.3-1,2.3-2.3,2.3c-1.3,0-2.3-1-2.3-2.3s1-2.3,2.3-2.3C131.2,260.9,132.2,262,132.2,263.3
		L132.2,263.3z"/>
	<path class="st6" d="M134.8,258.4c0,1.3-1,2.3-2.3,2.3c-1.3,0-2.3-1-2.3-2.3c0-1.3,1-2.3,2.3-2.3
		C133.7,256,134.8,257.1,134.8,258.4L134.8,258.4z"/>
	<path class="st6" d="M137.3,264c0,1.3-1,2.3-2.3,2.3c-1.3,0-2.3-1-2.3-2.3s1-2.3,2.3-2.3C136.2,261.7,137.3,262.7,137.3,264
		L137.3,264z"/>
	<path class="st6" d="M139.8,276.5c0,1.3-1,2.3-2.3,2.3c-1.3,0-2.3-1-2.3-2.3c0-1.3,1-2.3,2.3-2.3
		C138.8,274.1,139.8,275.2,139.8,276.5L139.8,276.5z"/>
	<path class="st6" d="M142.4,264.6c0,1.3-1,2.3-2.3,2.3c-1.3,0-2.3-1-2.3-2.3s1-2.3,2.3-2.3C141.3,262.3,142.4,263.3,142.4,264.6
		L142.4,264.6z"/>
	<path class="st6" d="M144.9,260.1c0,1.3-1,2.3-2.3,2.3c-1.3,0-2.3-1-2.3-2.3s1-2.3,2.3-2.3C143.9,257.8,144.9,258.8,144.9,260.1
		L144.9,260.1z"/>
	<path class="st6" d="M147.5,265.1c0,1.3-1,2.3-2.3,2.3c-1.3,0-2.3-1-2.3-2.3s1-2.3,2.3-2.3C146.4,262.8,147.5,263.9,147.5,265.1
		L147.5,265.1z"/>
	<path class="st6" d="M150,276.5c0,1.3-1,2.3-2.3,2.3c-1.3,0-2.3-1-2.3-2.3c0-1.3,1-2.3,2.3-2.3C149,274.1,150,275.2,150,276.5
		L150,276.5z"/>
	<path class="st6" d="M152.6,265.6c0,1.3-1,2.3-2.3,2.3c-1.3,0-2.3-1-2.3-2.3s1-2.3,2.3-2.3C151.5,263.2,152.6,264.3,152.6,265.6
		L152.6,265.6z"/>
	<path class="st6" d="M155.1,261.3c0,1.3-1,2.3-2.3,2.3c-1.3,0-2.3-1-2.3-2.3c0-1.3,1-2.3,2.3-2.3C154.1,259,155.1,260,155.1,261.3
		L155.1,261.3z"/>
	<path class="st6" d="M157.6,265.9c0,1.3-1,2.3-2.3,2.3c-1.3,0-2.3-1-2.3-2.3c0-1.3,1-2.3,2.3-2.3
		C156.6,263.6,157.6,264.6,157.6,265.9L157.6,265.9z"/>
	<path class="st6" d="M160.2,276.5c0,1.3-1,2.3-2.3,2.3c-1.3,0-2.3-1-2.3-2.3c0-1.3,1-2.3,2.3-2.3
		C159.1,274.1,160.2,275.2,160.2,276.5L160.2,276.5z"/>
	<path class="st6" d="M162.7,266.2c0,1.3-1,2.3-2.3,2.3c-1.3,0-2.3-1-2.3-2.3c0-1.3,1-2.3,2.3-2.3
		C161.7,263.9,162.7,264.9,162.7,266.2L162.7,266.2z"/>
	<path class="st6" d="M165.3,262.1c0,1.3-1,2.3-2.3,2.3c-1.3,0-2.3-1-2.3-2.3c0-1.3,1-2.3,2.3-2.3
		C164.2,259.8,165.3,260.8,165.3,262.1L165.3,262.1z"/>
	<path class="st6" d="M167.8,266.4c0,1.3-1,2.3-2.3,2.3c-1.3,0-2.3-1-2.3-2.3s1-2.3,2.3-2.3C166.8,264.1,167.8,265.2,167.8,266.4
		L167.8,266.4z"/>
	<path class="st6" d="M170.4,276.5c0,1.3-1,2.3-2.3,2.3c-1.3,0-2.3-1-2.3-2.3c0-1.3,1-2.3,2.3-2.3
		C169.3,274.1,170.4,275.2,170.4,276.5L170.4,276.5z"/>
	<path class="st6" d="M172.9,266.6c0,1.3-1,2.3-2.3,2.3c-1.3,0-2.3-1-2.3-2.3s1-2.3,2.3-2.3C171.9,264.3,172.9,265.3,172.9,266.6
		L172.9,266.6z"/>
	<path class="st6" d="M175.4,262.7c0,1.3-1,2.3-2.3,2.3s-2.3-1-2.3-2.3c0-1.3,1-2.3,2.3-2.3S175.4,261.4,175.4,262.7L175.4,262.7z"
		/>
	<path class="st6" d="M178,266.8c0,1.3-1,2.3-2.3,2.3s-2.3-1-2.3-2.3s1-2.3,2.3-2.3S178,265.5,178,266.8L178,266.8z"/>
	<path class="st6" d="M180.5,276.5c0,1.3-1,2.3-2.3,2.3s-2.3-1-2.3-2.3c0-1.3,1-2.3,2.3-2.3S180.5,275.2,180.5,276.5L180.5,276.5z"
		/>
	<path class="st6" d="M183.1,266.9c0,1.3-1,2.3-2.3,2.3s-2.3-1-2.3-2.3c0-1.3,1-2.3,2.3-2.3S183.1,265.6,183.1,266.9L183.1,266.9z"
		/>
	<path class="st6" d="M185.6,263c0,1.3-1,2.3-2.3,2.3s-2.3-1-2.3-2.3s1-2.3,2.3-2.3S185.6,261.7,185.6,263L185.6,263z"/>
	<path class="st6" d="M188.2,266.9c0,1.3-1,2.3-2.3,2.3s-2.3-1-2.3-2.3c0-1.3,1-2.3,2.3-2.3S188.2,265.7,188.2,266.9L188.2,266.9z"
		/>
	<path class="st6" d="M190.7,276.5c0,1.3-1,2.3-2.3,2.3s-2.3-1-2.3-2.3c0-1.3,1-2.3,2.3-2.3S190.7,275.2,190.7,276.5L190.7,276.5z"
		/>
	<path class="st6" d="M193.2,267c0,1.3-1,2.3-2.3,2.3s-2.3-1-2.3-2.3c0-1.3,1-2.3,2.3-2.3S193.2,265.7,193.2,267L193.2,267z"/>
	<path class="st6" d="M195.8,263.1c0,1.3-1,2.3-2.3,2.3s-2.3-1-2.3-2.3s1-2.3,2.3-2.3S195.8,261.8,195.8,263.1L195.8,263.1z"/>
	<path class="st6" d="M198.3,267c0,1.3-1,2.3-2.3,2.3s-2.3-1-2.3-2.3c0-1.3,1-2.3,2.3-2.3S198.3,265.7,198.3,267L198.3,267z"/>
	<path class="st6" d="M200.9,276.5c0,1.3-1,2.3-2.3,2.3s-2.3-1-2.3-2.3c0-1.3,1-2.3,2.3-2.3S200.9,275.2,200.9,276.5L200.9,276.5z"
		/>
	<path class="st6" d="M203.4,266.9c0,1.3-1,2.3-2.3,2.3s-2.3-1-2.3-2.3c0-1.3,1-2.3,2.3-2.3S203.4,265.7,203.4,266.9L203.4,266.9z"
		/>
	<path class="st6" d="M206,263c0,1.3-1,2.3-2.3,2.3s-2.3-1-2.3-2.3s1-2.3,2.3-2.3S206,261.7,206,263L206,263z"/>
	<path class="st6" d="M208.5,266.9c0,1.3-1,2.3-2.3,2.3s-2.3-1-2.3-2.3c0-1.3,1-2.3,2.3-2.3S208.5,265.6,208.5,266.9L208.5,266.9z"
		/>
	<path class="st6" d="M211,276.5c0,1.3-1,2.3-2.3,2.3s-2.3-1-2.3-2.3c0-1.3,1-2.3,2.3-2.3S211,275.2,211,276.5L211,276.5z"/>
	<path class="st6" d="M213.6,266.8c0,1.3-1,2.3-2.3,2.3s-2.3-1-2.3-2.3s1-2.3,2.3-2.3S213.6,265.5,213.6,266.8L213.6,266.8z"/>
	<path class="st6" d="M216.1,262.7c0,1.3-1,2.3-2.3,2.3s-2.3-1-2.3-2.3c0-1.3,1-2.3,2.3-2.3S216.1,261.4,216.1,262.7L216.1,262.7z"
		/>
	<path class="st6" d="M218.7,266.6c0,1.3-1,2.3-2.3,2.3s-2.3-1-2.3-2.3s1-2.3,2.3-2.3S218.7,265.3,218.7,266.6L218.7,266.6z"/>
	<path class="st6" d="M221.2,276.5c0,1.3-1,2.3-2.3,2.3s-2.3-1-2.3-2.3c0-1.3,1-2.3,2.3-2.3S221.2,275.2,221.2,276.5L221.2,276.5z"
		/>
	<path class="st6" d="M223.8,266.4c0,1.3-1,2.3-2.3,2.3s-2.3-1-2.3-2.3s1-2.3,2.3-2.3S223.8,265.2,223.8,266.4L223.8,266.4z"/>
	<path class="st6" d="M226.3,262.1c0,1.3-1,2.3-2.3,2.3s-2.3-1-2.3-2.3c0-1.3,1-2.3,2.3-2.3S226.3,260.8,226.3,262.1L226.3,262.1z"
		/>
	<path class="st6" d="M228.8,266.2c0,1.3-1,2.3-2.3,2.3s-2.3-1-2.3-2.3c0-1.3,1-2.3,2.3-2.3S228.8,264.9,228.8,266.2L228.8,266.2z"
		/>
	<path class="st6" d="M231.4,276.5c0,1.3-1,2.3-2.3,2.3s-2.3-1-2.3-2.3c0-1.3,1-2.3,2.3-2.3S231.4,275.2,231.4,276.5L231.4,276.5z"
		/>
	<path class="st6" d="M233.9,265.9c0,1.3-1,2.3-2.3,2.3c-1.3,0-2.3-1-2.3-2.3c0-1.3,1-2.3,2.3-2.3
		C232.9,263.6,233.9,264.6,233.9,265.9L233.9,265.9z"/>
	<path class="st6" d="M236.5,261.3c0,1.3-1,2.3-2.3,2.3c-1.3,0-2.3-1-2.3-2.3c0-1.3,1-2.3,2.3-2.3C235.4,259,236.5,260,236.5,261.3
		L236.5,261.3z"/>
	<path class="st6" d="M239,265.6c0,1.3-1,2.3-2.3,2.3s-2.3-1-2.3-2.3s1-2.3,2.3-2.3S239,264.3,239,265.6L239,265.6z"/>
	<path class="st6" d="M241.6,276.5c0,1.3-1,2.3-2.3,2.3s-2.3-1-2.3-2.3c0-1.3,1-2.3,2.3-2.3S241.6,275.2,241.6,276.5L241.6,276.5z"
		/>
	<path class="st6" d="M244.1,265.1c0,1.3-1,2.3-2.3,2.3s-2.3-1-2.3-2.3s1-2.3,2.3-2.3S244.1,263.9,244.1,265.1L244.1,265.1z"/>
	<path class="st6" d="M246.6,260.1c0,1.3-1,2.3-2.3,2.3s-2.3-1-2.3-2.3s1-2.3,2.3-2.3S246.6,258.8,246.6,260.1L246.6,260.1z"/>
	<path class="st6" d="M249.2,264.6c0,1.3-1,2.3-2.3,2.3s-2.3-1-2.3-2.3s1-2.3,2.3-2.3S249.2,263.3,249.2,264.6L249.2,264.6z"/>
	<path class="st6" d="M251.7,276.5c0,1.3-1,2.3-2.3,2.3s-2.3-1-2.3-2.3c0-1.3,1-2.3,2.3-2.3S251.7,275.2,251.7,276.5L251.7,276.5z"
		/>
	<path class="st6" d="M254.3,264c0,1.3-1,2.3-2.3,2.3s-2.3-1-2.3-2.3s1-2.3,2.3-2.3S254.3,262.7,254.3,264L254.3,264z"/>
	<path class="st6" d="M256.8,258.4c0,1.3-1,2.3-2.3,2.3s-2.3-1-2.3-2.3c0-1.3,1-2.3,2.3-2.3S256.8,257.1,256.8,258.4L256.8,258.4z"
		/>
	<path class="st6" d="M259.4,263.3c0,1.3-1,2.3-2.3,2.3s-2.3-1-2.3-2.3s1-2.3,2.3-2.3S259.4,262,259.4,263.3L259.4,263.3z"/>
	<path class="st6" d="M261.9,276.5c0,1.3-1,2.3-2.3,2.3s-2.3-1-2.3-2.3c0-1.3,1-2.3,2.3-2.3S261.9,275.2,261.9,276.5L261.9,276.5z"
		/>
	<path class="st6" d="M264.4,262.3c0,1.3-1,2.3-2.3,2.3s-2.3-1-2.3-2.3s1-2.3,2.3-2.3S264.4,261,264.4,262.3L264.4,262.3z"/>
	<path class="st6" d="M267,255.7c0,1.3-1,2.3-2.3,2.3s-2.3-1-2.3-2.3s1-2.3,2.3-2.3S267,254.4,267,255.7L267,255.7z"/>
	<path class="st6" d="M269.5,261.2c0,1.3-1,2.3-2.3,2.3s-2.3-1-2.3-2.3c0-1.3,1-2.3,2.3-2.3S269.5,259.9,269.5,261.2L269.5,261.2z"
		/>
	<path class="st6" d="M272.1,276.5c0,1.3-1,2.3-2.3,2.3s-2.3-1-2.3-2.3c0-1.3,1-2.3,2.3-2.3S272.1,275.2,272.1,276.5L272.1,276.5z"
		/>
	<path class="st6" d="M274.6,259.7c0,1.3-1,2.3-2.3,2.3s-2.3-1-2.3-2.3s1-2.3,2.3-2.3S274.6,258.4,274.6,259.7L274.6,259.7z"/>
	<path class="st6" d="M277.2,251.4c0,1.3-1,2.3-2.3,2.3s-2.3-1-2.3-2.3c0-1.3,1-2.3,2.3-2.3S277.2,250.2,277.2,251.4L277.2,251.4z"
		/>
	<path class="st6" d="M279.7,257.7c0,1.3-1,2.3-2.3,2.3s-2.3-1-2.3-2.3s1-2.3,2.3-2.3S279.7,256.4,279.7,257.7L279.7,257.7z"/>
	<path class="st6" d="M282.2,276.5c0,1.3-1,2.3-2.3,2.3s-2.3-1-2.3-2.3c0-1.3,1-2.3,2.3-2.3S282.2,275.2,282.2,276.5L282.2,276.5z"
		/>
	<path class="st6" d="M284.8,255c0,1.3-1,2.3-2.3,2.3s-2.3-1-2.3-2.3s1-2.3,2.3-2.3S284.8,253.7,284.8,255L284.8,255z"/>
	<path class="st6" d="M287.3,243.7c0,1.3-1,2.3-2.3,2.3s-2.3-1-2.3-2.3s1-2.3,2.3-2.3S287.3,242.4,287.3,243.7L287.3,243.7z"/>
	<path class="st6" d="M289.9,251.1c0,1.3-1,2.3-2.3,2.3c-1.3,0-2.3-1-2.3-2.3s1-2.3,2.3-2.3C288.8,248.8,289.9,249.9,289.9,251.1
		L289.9,251.1z"/>
	<path class="st6" d="M292.4,276.5c0,1.3-1,2.3-2.3,2.3s-2.3-1-2.3-2.3c0-1.3,1-2.3,2.3-2.3S292.4,275.2,292.4,276.5L292.4,276.5z"
		/>
	<path class="st6" d="M295,245c0,1.3-1,2.3-2.3,2.3s-2.3-1-2.3-2.3c0-1.3,1-2.3,2.3-2.3S295,243.7,295,245L295,245z"/>
	<path class="st6" d="M297.5,225.5c0,1.3-1,2.3-2.3,2.3s-2.3-1-2.3-2.3s1-2.3,2.3-2.3S297.5,224.2,297.5,225.5L297.5,225.5z"/>
	<path class="st6" d="M300,234c0,1.3-1,2.3-2.3,2.3s-2.3-1-2.3-2.3c0-1.3,1-2.3,2.3-2.3S300,232.7,300,234L300,234z"/>
	<path class="st6" d="M302.6,276.5c0,1.3-1,2.3-2.3,2.3s-2.3-1-2.3-2.3c0-1.3,1-2.3,2.3-2.3S302.6,275.2,302.6,276.5L302.6,276.5z"
		/>
	<path class="st6" d="M305.1,208.2c0,1.3-1,2.3-2.3,2.3s-2.3-1-2.3-2.3s1-2.3,2.3-2.3S305.1,207,305.1,208.2L305.1,208.2z"/>
	<path class="st6" d="M307.7,134.5c0,1.3-1,2.3-2.3,2.3c-1.3,0-2.3-1-2.3-2.3c0-1.3,1-2.3,2.3-2.3
		C306.6,132.2,307.7,133.2,307.7,134.5L307.7,134.5z"/>
	<path class="st6" d="M310.2,79.6c0,1.3-1,2.3-2.3,2.3s-2.3-1-2.3-2.3c0-1.3,1-2.3,2.3-2.3S310.2,78.3,310.2,79.6L310.2,79.6z"/>
	<path class="st6" d="M312.8,62.1c0,1.3-1,2.3-2.3,2.3s-2.3-1-2.3-2.3c0-1.3,1-2.3,2.3-2.3S312.8,60.8,312.8,62.1L312.8,62.1z"/>
	<path class="st6" d="M315.3,87.3c0,1.3-1,2.3-2.3,2.3s-2.3-1-2.3-2.3c0-1.3,1-2.3,2.3-2.3S315.3,86.1,315.3,87.3L315.3,87.3z"/>
	<path class="st6" d="M317.8,145.5c0,1.3-1,2.3-2.3,2.3c-1.3,0-2.3-1-2.3-2.3c0-1.3,1-2.3,2.3-2.3
		C316.8,143.1,317.8,144.2,317.8,145.5L317.8,145.5z"/>
	<path class="st6" d="M320.4,216c0,1.3-1,2.3-2.3,2.3s-2.3-1-2.3-2.3c0-1.3,1-2.3,2.3-2.3S320.4,214.7,320.4,216L320.4,216z"/>
	<path class="st6" d="M322.9,276.5c0,1.3-1,2.3-2.3,2.3s-2.3-1-2.3-2.3c0-1.3,1-2.3,2.3-2.3S322.9,275.2,322.9,276.5L322.9,276.5z"
		/>
	<path class="st6" d="M325.5,241.7c0,1.3-1,2.3-2.3,2.3s-2.3-1-2.3-2.3s1-2.3,2.3-2.3S325.5,240.4,325.5,241.7L325.5,241.7z"/>
	<path class="st6" d="M328,236.4c0,1.3-1,2.3-2.3,2.3s-2.3-1-2.3-2.3s1-2.3,2.3-2.3S328,235.1,328,236.4L328,236.4z"/>
	<path class="st6" d="M330.6,252.7c0,1.3-1,2.3-2.3,2.3s-2.3-1-2.3-2.3s1-2.3,2.3-2.3S330.6,251.4,330.6,252.7L330.6,252.7z"/>
	<path class="st6" d="M333.1,276.5c0,1.3-1,2.3-2.3,2.3s-2.3-1-2.3-2.3c0-1.3,1-2.3,2.3-2.3S333.1,275.2,333.1,276.5L333.1,276.5z"
		/>
	<path class="st6" d="M335.6,258.7c0,1.3-1,2.3-2.3,2.3s-2.3-1-2.3-2.3c0-1.3,1-2.3,2.3-2.3S335.6,257.4,335.6,258.7L335.6,258.7z"
		/>
	<path class="st6" d="M338.2,254.3c0,1.3-1,2.3-2.3,2.3s-2.3-1-2.3-2.3s1-2.3,2.3-2.3S338.2,253,338.2,254.3L338.2,254.3z"/>
	<path class="st6" d="M340.7,262.4c0,1.3-1,2.3-2.3,2.3s-2.3-1-2.3-2.3s1-2.3,2.3-2.3S340.7,261.1,340.7,262.4L340.7,262.4z"/>
	<path class="st6" d="M343.3,276.5c0,1.3-1,2.3-2.3,2.3s-2.3-1-2.3-2.3c0-1.3,1-2.3,2.3-2.3S343.3,275.2,343.3,276.5L343.3,276.5z"
		/>
	<path class="st6" d="M345.8,264.8c0,1.3-1,2.3-2.3,2.3s-2.3-1-2.3-2.3c0-1.3,1-2.3,2.3-2.3S345.8,263.5,345.8,264.8L345.8,264.8z"
		/>
	<path class="st6" d="M348.4,261.1c0,1.3-1,2.3-2.3,2.3s-2.3-1-2.3-2.3c0-1.3,1-2.3,2.3-2.3S348.4,259.8,348.4,261.1L348.4,261.1z"
		/>
	<path class="st6" d="M350.9,266.2c0,1.3-1,2.3-2.3,2.3s-2.3-1-2.3-2.3c0-1.3,1-2.3,2.3-2.3S350.9,264.9,350.9,266.2L350.9,266.2z"
		/>
	<path class="st6" d="M353.4,276.5c0,1.3-1,2.3-2.3,2.3s-2.3-1-2.3-2.3c0-1.3,1-2.3,2.3-2.3S353.4,275.2,353.4,276.5L353.4,276.5z"
		/>
	<path class="st6" d="M356,266.9c0,1.3-1,2.3-2.3,2.3s-2.3-1-2.3-2.3c0-1.3,1-2.3,2.3-2.3S356,265.6,356,266.9L356,266.9z"/>
	<path class="st7" d="M62.8,76.2l13.7-14.1l13.7,14.1 M76.5,276.5V62.1 M296.7,76.2l13.7-14.1l13.7,14.1 M310.4,276.5V62.1"/>
	<rect x="108.7" y="27.5" class="st8" width="169.5" height="65.3"/>
	<g>
		<path class="st3" d="M144.7,38.7v-6.5h4.5v0.4V33h-3.6v2h3.2v0.4v0.4h-3.2v2.9h-0.4H144.7z"/>
		<path class="st3" d="M151.8,33h-2.2v-0.4v-0.4h5.2v0.4V33h-2.2v5.7h-0.4h-0.4V33z"/>
		<path class="st3" d="M155.7,32.3h0.4h2.2c0.8,0,1.5,0.3,2,0.9c0.5,0.6,0.7,1.4,0.7,2.4c0,1-0.2,1.8-0.7,2.4
			c-0.5,0.6-1.2,0.9-2,0.9h-2.1h-0.4V32.3z M156.5,38h1.6c0.6,0,1.1-0.2,1.5-0.6c0.3-0.4,0.5-1,0.5-1.8c0-0.8-0.2-1.4-0.5-1.8
			s-0.8-0.6-1.4-0.6h-1.7V38z"/>
		<path class="st3" d="M164.5,32.3h0.4h0.4v6.5h-0.4h-0.4V32.3z"/>
		<path class="st3" d="M168.4,38.8c-0.7,0-1.2-0.2-1.6-0.6s-0.6-1-0.6-1.7c0-0.8,0.2-1.4,0.6-1.9c0.4-0.5,0.9-0.7,1.6-0.7
			c0.6,0,1.1,0.2,1.5,0.7s0.6,1.1,0.6,1.8l0,0.3h-3.4c0,0.5,0.1,0.8,0.3,1.1c0.2,0.3,0.6,0.4,1.1,0.4c0.3,0,0.6-0.1,0.8-0.3
			c0.2-0.2,0.4-0.4,0.4-0.7h0.8c-0.1,0.5-0.4,0.9-0.7,1.2C169.5,38.7,169,38.8,168.4,38.8z M169.8,36c0-0.4-0.1-0.8-0.3-1
			c-0.2-0.3-0.5-0.4-0.9-0.4c-0.4,0-0.7,0.2-1,0.5c-0.2,0.2-0.3,0.6-0.4,1H169.8z"/>
		<path class="st3" d="M171.5,34h0.4h0.4v0.7l0.2-0.2c0.3-0.4,0.8-0.6,1.3-0.6c0.5,0,0.9,0.1,1.2,0.4s0.4,0.7,0.4,1.2v3.2H175h-0.4
			v-3c0-0.4-0.1-0.7-0.2-0.9c-0.2-0.2-0.4-0.3-0.8-0.3c-0.4,0-0.7,0.1-0.9,0.4c-0.2,0.3-0.3,0.7-0.3,1.2v2.5h-0.4h-0.4V34z"/>
		<path class="st3" d="M178.3,40c0.5,0,0.8-0.1,1-0.4c0.2-0.3,0.4-0.7,0.4-1.3v-0.2l0,0c-0.3,0.4-0.8,0.6-1.3,0.6
			c-0.6,0-1.1-0.2-1.5-0.7c-0.4-0.5-0.6-1.1-0.6-1.9c0-0.7,0.2-1.3,0.5-1.7s0.8-0.7,1.4-0.7c0.6,0,1,0.2,1.3,0.7l0.1,0.1V34h0.7v4.4
			c0,0.8-0.2,1.4-0.5,1.8s-0.9,0.6-1.6,0.6c-0.5,0-1-0.1-1.3-0.4s-0.5-0.6-0.6-1.1h0.8c0,0.3,0.2,0.4,0.3,0.6
			C177.8,40,178,40,178.3,40z M178.4,34.6c-0.4,0-0.8,0.1-1,0.4c-0.2,0.3-0.3,0.7-0.3,1.3c0,0.6,0.1,1,0.3,1.3
			c0.2,0.3,0.5,0.5,0.9,0.5c0.4,0,0.7-0.1,0.9-0.4s0.4-0.7,0.4-1.1c0-0.7-0.1-1.2-0.3-1.5S178.8,34.6,178.4,34.6z"/>
		<path class="st3" d="M183.3,38.7c-0.3,0-0.5,0.1-0.6,0.1c-0.3,0-0.6-0.1-0.7-0.2c-0.1-0.2-0.2-0.4-0.2-0.8v-3.1h-0.7V34h0.7v-1.3
			h0.8V34h0.7v0.6h-0.7v3.1c0,0.1,0,0.2,0.1,0.3c0.1,0.1,0.2,0.1,0.3,0.1h0.3V38.7z"/>
		<path class="st3" d="M184,32.3h0.4h0.4v2.4l0.1-0.2c0.3-0.4,0.8-0.6,1.3-0.6c0.5,0,0.9,0.1,1.2,0.4s0.4,0.7,0.4,1.2v3.2h-0.4h-0.4
			v-3c0-0.4-0.1-0.7-0.2-0.8c-0.2-0.2-0.4-0.3-0.7-0.3c-0.4,0-0.7,0.1-0.9,0.4c-0.2,0.3-0.4,0.7-0.4,1.2v2.5h-0.4H184V32.3z"/>
		<path class="st3" d="M192.5,38.7h-0.4h-0.4v-6.5h0.5h0.5l3.2,5.3v-5.3h0.4h0.4v6.5h-0.5h-0.5l-3.3-5.3V38.7z"/>
	</g>
	<g>
		<path class="st3" d="M198.5,36.3l-1.6-2.3h0.5h0.5l1.1,1.7l1.1-1.7h0.5h0.5l-1.6,2.3l1.6,2.4h-0.5h-0.5l-1.2-1.8l-1.2,1.8h-0.5
			h-0.5L198.5,36.3z"/>
	</g>
	<g>
		<path class="st3" d="M205.9,43.2l-1.1-3.8h0.3h0.3l0.7,3h0l0.7-3h0.4h0.4l0.8,3h0l0.8-3h0.3h0.3l-1.1,3.8h-0.3h-0.3l-0.8-2.9h0
			l-0.7,2.9h-0.3H205.9z"/>
		<path class="st3" d="M210.4,38h0.6v0.7h-0.6V38z M210.4,39.4h0.3h0.3v3.8h-0.3h-0.3V39.4z"/>
		<path class="st3" d="M212,39.4h0.3h0.3V40l0.1-0.2c0.3-0.3,0.6-0.5,1-0.5c0.4,0,0.7,0.1,1,0.3s0.3,0.5,0.3,1v2.6h-0.3h-0.3v-2.4
			c0-0.3-0.1-0.6-0.2-0.7c-0.1-0.1-0.3-0.2-0.6-0.2c-0.3,0-0.5,0.1-0.7,0.3c-0.2,0.2-0.3,0.5-0.3,0.9v2h-0.3H212V39.4z"/>
	</g>
	<line class="st4" x1="111.7" y1="37.2" x2="141.7" y2="37.2"/>
	<g>
		<path class="st3" d="M144.7,48.8h0.4h2.2c0.8,0,1.5,0.3,2,0.9c0.5,0.6,0.7,1.4,0.7,2.4c0,1-0.2,1.8-0.7,2.4
			c-0.5,0.6-1.2,0.9-2,0.9h-2.1h-0.4V48.8z M145.6,54.5h1.6c0.6,0,1.1-0.2,1.5-0.6c0.3-0.4,0.5-1,0.5-1.8c0-0.8-0.2-1.4-0.5-1.8
			s-0.8-0.6-1.4-0.6h-1.7V54.5z"/>
		<path class="st3" d="M151.2,55.2v-6.5h4.5v0.4v0.4h-3.6v2h3.2v0.4v0.4h-3.2v2.9h-0.4H151.2z"/>
		<path class="st3" d="M158.3,49.5h-2.2v-0.4v-0.4h5.2v0.4v0.4h-2.2v5.7h-0.4h-0.4V49.5z"/>
		<path class="st3" d="M164.5,48.8h0.4h0.4v6.5h-0.4h-0.4V48.8z"/>
		<path class="st3" d="M168.4,55.3c-0.7,0-1.2-0.2-1.6-0.6s-0.6-1-0.6-1.7c0-0.8,0.2-1.4,0.6-1.9c0.4-0.5,0.9-0.7,1.6-0.7
			c0.6,0,1.1,0.2,1.5,0.7s0.6,1.1,0.6,1.8l0,0.3h-3.4c0,0.5,0.1,0.8,0.3,1.1c0.2,0.3,0.6,0.4,1.1,0.4c0.3,0,0.6-0.1,0.8-0.3
			c0.2-0.2,0.4-0.4,0.4-0.7h0.8c-0.1,0.5-0.4,0.9-0.7,1.2C169.5,55.2,169,55.3,168.4,55.3z M169.8,52.5c0-0.4-0.1-0.8-0.3-1
			c-0.2-0.3-0.5-0.4-0.9-0.4c-0.4,0-0.7,0.2-1,0.5c-0.2,0.2-0.3,0.6-0.4,1H169.8z"/>
		<path class="st3" d="M171.5,50.5h0.4h0.4v0.7l0.2-0.2c0.3-0.4,0.8-0.6,1.3-0.6c0.5,0,0.9,0.1,1.2,0.4s0.4,0.7,0.4,1.2v3.2H175
			h-0.4v-3c0-0.4-0.1-0.7-0.2-0.9c-0.2-0.2-0.4-0.3-0.8-0.3c-0.4,0-0.7,0.1-0.9,0.4c-0.2,0.3-0.3,0.7-0.3,1.2v2.5h-0.4h-0.4V50.5z"
			/>
		<path class="st3" d="M178.3,56.5c0.5,0,0.8-0.1,1-0.4c0.2-0.3,0.4-0.7,0.4-1.3v-0.2l0,0c-0.3,0.4-0.8,0.6-1.3,0.6
			c-0.6,0-1.1-0.2-1.5-0.7c-0.4-0.5-0.6-1.1-0.6-1.9c0-0.7,0.2-1.3,0.5-1.7s0.8-0.7,1.4-0.7c0.6,0,1,0.2,1.3,0.7l0.1,0.1v-0.7h0.7
			v4.4c0,0.8-0.2,1.4-0.5,1.8s-0.9,0.6-1.6,0.6c-0.5,0-1-0.1-1.3-0.4s-0.5-0.6-0.6-1.1h0.8c0,0.3,0.2,0.4,0.3,0.6
			C177.8,56.5,178,56.5,178.3,56.5z M178.4,51.1c-0.4,0-0.8,0.1-1,0.4c-0.2,0.3-0.3,0.7-0.3,1.3c0,0.6,0.1,1,0.3,1.3
			c0.2,0.3,0.5,0.5,0.9,0.5c0.4,0,0.7-0.1,0.9-0.4s0.4-0.7,0.4-1.1c0-0.7-0.1-1.2-0.3-1.5S178.8,51.1,178.4,51.1z"/>
		<path class="st3" d="M183.3,55.2c-0.3,0-0.5,0.1-0.6,0.1c-0.3,0-0.6-0.1-0.7-0.2c-0.1-0.2-0.2-0.4-0.2-0.8v-3.1h-0.7v-0.6h0.7
			v-1.3h0.8v1.3h0.7v0.6h-0.7v3.1c0,0.1,0,0.2,0.1,0.3c0.1,0.1,0.2,0.1,0.3,0.1h0.3V55.2z"/>
		<path class="st3" d="M184,48.8h0.4h0.4v2.4L185,51c0.3-0.4,0.8-0.6,1.3-0.6c0.5,0,0.9,0.1,1.2,0.4s0.4,0.7,0.4,1.2v3.2h-0.4h-0.4
			v-3c0-0.4-0.1-0.7-0.2-0.8c-0.2-0.2-0.4-0.3-0.7-0.3c-0.4,0-0.7,0.1-0.9,0.4c-0.2,0.3-0.4,0.7-0.4,1.2v2.5h-0.4H184V48.8z"/>
		<path class="st3" d="M192.5,55.2h-0.4h-0.4v-6.5h0.5h0.5l3.2,5.3v-5.3h0.4h0.4v6.5h-0.5h-0.5l-3.3-5.3V55.2z"/>
	</g>
	<g>
		<path class="st3" d="M198.5,52.8l-1.6-2.3h0.5h0.5l1.1,1.7l1.1-1.7h0.5h0.5l-1.6,2.3l1.6,2.4h-0.5h-0.5l-1.2-1.8l-1.2,1.8h-0.5
			h-0.5L198.5,52.8z"/>
	</g>
	<g>
		<path class="st3" d="M205.9,59.7l-1.1-3.8h0.3h0.3l0.7,3h0l0.7-3h0.4h0.4l0.8,3h0l0.8-3h0.3h0.3l-1.1,3.8h-0.3h-0.3l-0.8-2.9h0
			l-0.7,2.9h-0.3H205.9z"/>
		<path class="st3" d="M210.4,54.5h0.6v0.7h-0.6V54.5z M210.4,55.9h0.3h0.3v3.8h-0.3h-0.3V55.9z"/>
		<path class="st3" d="M212,55.9h0.3h0.3v0.6l0.1-0.2c0.3-0.3,0.6-0.5,1-0.5c0.4,0,0.7,0.1,1,0.3s0.3,0.5,0.3,1v2.6h-0.3h-0.3v-2.4
			c0-0.3-0.1-0.6-0.2-0.7c-0.1-0.1-0.3-0.2-0.6-0.2c-0.3,0-0.5,0.1-0.7,0.3c-0.2,0.2-0.3,0.5-0.3,0.9v2h-0.3H212V55.9z"/>
	</g>
	<polygon class="st5" points="123.7,53.9 126.7,57.9 129.7,53.9 126.7,49.9 	"/>
	<g>
		<path class="st3" d="M144.7,66h0.4h2.2c0.8,0,1.5,0.3,2,0.9c0.5,0.6,0.7,1.4,0.7,2.4c0,1-0.2,1.8-0.7,2.4c-0.5,0.6-1.2,0.9-2,0.9
			h-2.1h-0.4V66z M145.6,71.7h1.6c0.6,0,1.1-0.2,1.5-0.6c0.3-0.4,0.5-1,0.5-1.8c0-0.8-0.2-1.4-0.5-1.8s-0.8-0.6-1.4-0.6h-1.7V71.7z"
			/>
		<path class="st3" d="M151.2,72.5V66h4.5v0.4v0.4h-3.6v2h3.2v0.4v0.4h-3.2v2.9h-0.4H151.2z"/>
		<path class="st3" d="M158.3,66.8h-2.2v-0.4V66h5.2v0.4v0.4h-2.2v5.7h-0.4h-0.4V66.8z"/>
		<path class="st3" d="M164.2,71.7l4-4.9h-3.7v-0.4V66h4.8v0.4v0.4l-4,4.9h4v0.4v0.4h-5.1v-0.4V71.7z"/>
		<path class="st3" d="M171.9,72.6c-0.7,0-1.2-0.2-1.6-0.6s-0.6-1-0.6-1.7c0-0.8,0.2-1.4,0.6-1.9c0.4-0.5,0.9-0.7,1.6-0.7
			c0.6,0,1.1,0.2,1.5,0.7s0.6,1.1,0.6,1.8l0,0.3h-3.4c0,0.5,0.1,0.8,0.3,1.1c0.2,0.3,0.6,0.4,1.1,0.4c0.3,0,0.6-0.1,0.8-0.3
			c0.2-0.2,0.4-0.4,0.4-0.7h0.8c-0.1,0.5-0.4,0.9-0.7,1.2C172.9,72.5,172.5,72.6,171.9,72.6z M173.3,69.7c0-0.4-0.1-0.8-0.3-1
			c-0.2-0.3-0.5-0.4-0.9-0.4c-0.4,0-0.7,0.2-1,0.5c-0.2,0.2-0.3,0.6-0.4,1H173.3z"/>
		<path class="st3" d="M175.1,67.8h0.4h0.4v0.8c0.1-0.1,0.1-0.2,0.2-0.3c0.3-0.4,0.7-0.6,1.1-0.6c0.1,0,0.1,0,0.2,0v0.8l-0.2,0
			c-0.4,0-0.8,0.1-1,0.4c-0.2,0.3-0.3,0.6-0.3,1.1v2.5h-0.4h-0.4V67.8z"/>
		<path class="st3" d="M178.4,71.9c-0.4-0.5-0.6-1.1-0.6-1.8c0-0.7,0.2-1.3,0.6-1.8c0.4-0.5,0.9-0.7,1.6-0.7c0.7,0,1.2,0.2,1.6,0.7
			s0.6,1.1,0.6,1.8c0,0.7-0.2,1.3-0.6,1.8s-0.9,0.7-1.6,0.7C179.3,72.6,178.8,72.4,178.4,71.9z M180.9,71.4c0.2-0.3,0.4-0.8,0.4-1.3
			s-0.1-1-0.4-1.3c-0.2-0.3-0.6-0.5-1-0.5s-0.7,0.2-1,0.5c-0.2,0.3-0.4,0.8-0.4,1.3s0.1,1,0.4,1.3c0.2,0.3,0.6,0.5,1,0.5
			S180.7,71.7,180.9,71.4z"/>
		<path class="st3" d="M182.8,69.6h2.2v0.8h-2.2V69.6z"/>
		<path class="st3" d="M186,67.8h0.4h0.4v0.7l0-0.1c0.3-0.5,0.8-0.8,1.3-0.8c0.6,0,1.1,0.2,1.5,0.6c0.4,0.4,0.5,1,0.5,1.7
			c0,0.8-0.2,1.5-0.5,1.9c-0.4,0.5-0.9,0.7-1.5,0.7c-0.5,0-1-0.2-1.3-0.6l0,0v2.4h-0.4H186V67.8z M188,71.9c0.4,0,0.7-0.2,0.9-0.5
			c0.2-0.3,0.3-0.8,0.3-1.4c0-0.6-0.1-1-0.3-1.3c-0.2-0.3-0.5-0.4-0.9-0.4c-0.4,0-0.8,0.2-1,0.5c-0.2,0.3-0.3,0.8-0.3,1.5
			c0,0.5,0.1,0.9,0.3,1.2S187.6,71.9,188,71.9z"/>
		<path class="st3" d="M192.3,72.6c-0.5,0-0.8-0.1-1.1-0.4s-0.4-0.6-0.4-1c0-0.4,0.1-0.8,0.4-1c0.3-0.2,0.6-0.4,1.1-0.5l1.1-0.1
			c0.1,0,0.2,0,0.3,0c0.1,0,0.2-0.1,0.2-0.2s0.1-0.2,0.1-0.3v0c0-0.3-0.1-0.4-0.3-0.6c-0.2-0.1-0.5-0.2-0.8-0.2
			c-0.3,0-0.6,0.1-0.8,0.2c-0.2,0.2-0.3,0.4-0.3,0.7H191c0-0.5,0.2-0.9,0.5-1.2c0.3-0.3,0.8-0.4,1.4-0.4c0.6,0,1,0.1,1.3,0.4
			c0.3,0.2,0.4,0.6,0.4,1.1v2.6c0,0.1,0,0.1,0.1,0.2c0,0,0.1,0.1,0.2,0.1c0,0,0.1,0,0.1,0c0,0,0.1,0,0.1,0v0.6
			c-0.1,0-0.2,0.1-0.2,0.1c-0.1,0-0.2,0-0.2,0c-0.3,0-0.5-0.1-0.7-0.2c-0.1-0.1-0.2-0.3-0.2-0.5c-0.1,0.1-0.1,0.1-0.2,0.2
			C193.3,72.4,192.8,72.6,192.3,72.6z M193.9,70.6v-0.5c-0.1,0.1-0.3,0.1-0.5,0.1l-0.7,0.1c-0.4,0.1-0.7,0.1-0.8,0.3
			s-0.3,0.3-0.3,0.5c0,0.3,0.1,0.5,0.2,0.6c0.1,0.1,0.3,0.2,0.6,0.2c0.4,0,0.8-0.1,1.1-0.3c0.2-0.2,0.3-0.3,0.4-0.5c0,0,0-0.1,0-0.2
			C193.9,70.8,193.9,70.7,193.9,70.6z"/>
		<path class="st3" d="M197.8,72.6c-0.6,0-1.1-0.2-1.5-0.7c-0.4-0.5-0.6-1.1-0.6-1.9c0-0.7,0.2-1.3,0.5-1.7c0.4-0.4,0.8-0.7,1.4-0.7
			c0.6,0,1,0.2,1.4,0.7l0.1,0.1V66h0.4h0.4v6.5h-0.4h-0.4v-0.6l-0.1,0.1C198.8,72.4,198.4,72.6,197.8,72.6z M197.9,68.3
			c-0.4,0-0.8,0.1-1,0.4c-0.2,0.3-0.3,0.7-0.3,1.3c0,0.6,0.1,1,0.3,1.3c0.2,0.3,0.5,0.5,0.9,0.5c0.4,0,0.7-0.1,0.9-0.4
			c0.2-0.3,0.4-0.7,0.4-1.1c0-0.6-0.1-1.1-0.3-1.5C198.6,68.5,198.3,68.3,197.9,68.3z"/>
		<path class="st3" d="M202.8,72.6c-0.6,0-1.1-0.2-1.5-0.7c-0.4-0.5-0.6-1.1-0.6-1.9c0-0.7,0.2-1.3,0.5-1.7c0.4-0.4,0.8-0.7,1.4-0.7
			c0.6,0,1,0.2,1.4,0.7l0.1,0.1V66h0.4h0.4v6.5h-0.4h-0.4v-0.6l-0.1,0.1C203.8,72.4,203.4,72.6,202.8,72.6z M202.9,68.3
			c-0.4,0-0.8,0.1-1,0.4c-0.2,0.3-0.3,0.7-0.3,1.3c0,0.6,0.1,1,0.3,1.3c0.2,0.3,0.5,0.5,0.9,0.5c0.4,0,0.7-0.1,0.9-0.4
			c0.2-0.3,0.4-0.7,0.4-1.1c0-0.6-0.1-1.1-0.3-1.5C203.6,68.5,203.3,68.3,202.9,68.3z"/>
		<path class="st3" d="M208,72.6c-0.7,0-1.2-0.2-1.6-0.6s-0.6-1-0.6-1.7c0-0.8,0.2-1.4,0.6-1.9c0.4-0.5,0.9-0.7,1.6-0.7
			c0.6,0,1.1,0.2,1.5,0.7s0.6,1.1,0.6,1.8l0,0.3h-3.4c0,0.5,0.1,0.8,0.3,1.1c0.2,0.3,0.6,0.4,1.1,0.4c0.3,0,0.6-0.1,0.8-0.3
			s0.4-0.4,0.4-0.7h0.8c-0.1,0.5-0.4,0.9-0.7,1.2C209,72.5,208.5,72.6,208,72.6z M209.3,69.7c0-0.4-0.1-0.8-0.3-1
			c-0.2-0.3-0.5-0.4-0.9-0.4c-0.4,0-0.7,0.2-1,0.5c-0.2,0.2-0.3,0.6-0.4,1H209.3z"/>
		<path class="st3" d="M212.9,72.6c-0.6,0-1.1-0.2-1.5-0.7c-0.4-0.5-0.6-1.1-0.6-1.9c0-0.7,0.2-1.3,0.5-1.7c0.4-0.4,0.8-0.7,1.4-0.7
			c0.6,0,1,0.2,1.4,0.7l0.1,0.1V66h0.4h0.4v6.5h-0.4h-0.4v-0.6l-0.1,0.1C213.8,72.4,213.4,72.6,212.9,72.6z M212.9,68.3
			c-0.4,0-0.8,0.1-1,0.4c-0.2,0.3-0.3,0.7-0.3,1.3c0,0.6,0.1,1,0.3,1.3c0.2,0.3,0.5,0.5,0.9,0.5c0.4,0,0.7-0.1,0.9-0.4
			c0.2-0.3,0.4-0.7,0.4-1.1c0-0.6-0.1-1.1-0.3-1.5C213.6,68.5,213.3,68.3,212.9,68.3z"/>
		<path class="st3" d="M218.6,66h0.4h0.4v6.5H219h-0.4V66z"/>
		<path class="st3" d="M222.5,72.6c-0.7,0-1.2-0.2-1.6-0.6s-0.6-1-0.6-1.7c0-0.8,0.2-1.4,0.6-1.9c0.4-0.5,0.9-0.7,1.6-0.7
			c0.6,0,1.1,0.2,1.5,0.7s0.6,1.1,0.6,1.8l0,0.3h-3.4c0,0.5,0.1,0.8,0.3,1.1c0.2,0.3,0.6,0.4,1.1,0.4c0.3,0,0.6-0.1,0.8-0.3
			s0.4-0.4,0.4-0.7h0.8c-0.1,0.5-0.4,0.9-0.7,1.2C223.5,72.5,223,72.6,222.5,72.6z M223.8,69.7c0-0.4-0.1-0.8-0.3-1
			c-0.2-0.3-0.5-0.4-0.9-0.4c-0.4,0-0.7,0.2-1,0.5c-0.2,0.2-0.3,0.6-0.4,1H223.8z"/>
		<path class="st3" d="M225.6,67.8h0.4h0.4v0.7l0.2-0.2c0.3-0.4,0.8-0.6,1.3-0.6c0.5,0,0.9,0.1,1.2,0.4s0.4,0.7,0.4,1.2v3.2H229
			h-0.4v-3c0-0.4-0.1-0.7-0.2-0.9c-0.2-0.2-0.4-0.3-0.8-0.3c-0.4,0-0.7,0.1-0.9,0.4c-0.2,0.3-0.3,0.7-0.3,1.2v2.5H226h-0.4V67.8z"/>
		<path class="st3" d="M232.3,73.8c0.5,0,0.8-0.1,1-0.4c0.2-0.3,0.4-0.7,0.4-1.3V72l0,0c-0.3,0.4-0.8,0.6-1.3,0.6
			c-0.6,0-1.1-0.2-1.5-0.7c-0.4-0.5-0.6-1.1-0.6-1.9c0-0.7,0.2-1.3,0.5-1.7c0.4-0.4,0.8-0.7,1.4-0.7c0.6,0,1,0.2,1.3,0.7l0.1,0.1
			v-0.7h0.7v4.4c0,0.8-0.2,1.4-0.5,1.8s-0.9,0.6-1.6,0.6c-0.5,0-1-0.1-1.3-0.4c-0.3-0.2-0.5-0.6-0.6-1.1h0.8c0,0.3,0.2,0.4,0.3,0.6
			C231.8,73.7,232,73.8,232.3,73.8z M232.5,68.3c-0.4,0-0.8,0.1-1,0.4c-0.2,0.3-0.3,0.7-0.3,1.3c0,0.6,0.1,1,0.3,1.3
			c0.2,0.3,0.5,0.5,0.9,0.5c0.4,0,0.7-0.1,0.9-0.4c0.2-0.3,0.4-0.7,0.4-1.1c0-0.7-0.1-1.2-0.3-1.5C233.2,68.5,232.9,68.3,232.5,68.3
			z"/>
		<path class="st3" d="M237.3,72.5c-0.3,0-0.5,0.1-0.6,0.1c-0.3,0-0.6-0.1-0.7-0.2c-0.1-0.2-0.2-0.4-0.2-0.8v-3.1h-0.7v-0.6h0.7
			v-1.3h0.8v1.3h0.7v0.6h-0.7v3.1c0,0.1,0,0.2,0.1,0.3c0.1,0.1,0.2,0.1,0.3,0.1h0.3V72.5z"/>
		<path class="st3" d="M238.1,66h0.4h0.4v2.4l0.1-0.2c0.3-0.4,0.8-0.6,1.3-0.6c0.5,0,0.9,0.1,1.2,0.4s0.4,0.7,0.4,1.2v3.2h-0.4h-0.4
			v-3c0-0.4-0.1-0.7-0.2-0.8c-0.2-0.2-0.4-0.3-0.7-0.3c-0.4,0-0.7,0.1-0.9,0.4c-0.2,0.3-0.4,0.7-0.4,1.2v2.5h-0.4h-0.4V66z"/>
		<path class="st3" d="M245.2,70.9v-0.4v-0.4l2.9-4.1h0.3h0.3v4.1h0.9v0.7h-0.9v1.5H248v-1.5H245.2z M248,70.3v-2.9l-2,2.8l0,0.1
			H248z"/>
		<path class="st3" d="M251.5,72.5h-0.4h-0.4V66h0.5h0.5l3.2,5.3V66h0.4h0.4v6.5h-0.5h-0.5l-3.3-5.3V72.5z"/>
	</g>
	<g>
		<path class="st3" d="M251.2,70l-1.6-2.3h0.5h0.5l1.1,1.7l1.1-1.7h0.5h0.5l-1.6,2.3l1.6,2.4h-0.5h-0.5l-1.2-1.8l-1.2,1.8h-0.5h-0.5
			L251.2,70z"/>
	</g>
	<g>
		<path class="st3" d="M265.1,77l-1.1-3.8h0.3h0.3l0.7,3h0l0.7-3h0.4h0.4l0.8,3h0l0.8-3h0.3h0.3L268,77h-0.3h-0.3l-0.8-2.9h0
			l-0.7,2.9h-0.3H265.1z"/>
		<path class="st3" d="M269.6,71.8h0.6v0.7h-0.6V71.8z M269.6,73.2h0.3h0.3V77H270h-0.3V73.2z"/>
		<path class="st3" d="M271.2,73.2h0.3h0.3v0.6l0.1-0.2c0.3-0.3,0.6-0.5,1-0.5c0.4,0,0.7,0.1,1,0.3s0.3,0.5,0.3,1V77H274h-0.3v-2.4
			c0-0.3-0.1-0.6-0.2-0.7c-0.1-0.1-0.3-0.2-0.6-0.2c-0.3,0-0.5,0.1-0.7,0.3c-0.2,0.2-0.3,0.5-0.3,0.9v2h-0.3h-0.3V73.2z"/>
	</g>
	<path class="st6" d="M129,70.7c0,1.3-1,2.3-2.3,2.3c-1.3,0-2.3-1-2.3-2.3c0-1.3,1-2.3,2.3-2.3C128,68.4,129,69.4,129,70.7L129,70.7
		z"/>
	<g>
		<path class="st3" d="M144.7,89v-6.5h4.5v0.4v0.4h-3.6v2h3.2v0.4v0.4h-3.2V89h-0.4H144.7z"/>
		<path class="st3" d="M151.8,83.3h-2.2v-0.4v-0.4h5.2v0.4v0.4h-2.2V89h-0.4h-0.4V83.3z"/>
		<path class="st3" d="M155.7,82.5h0.4h2.2c0.8,0,1.5,0.3,2,0.9c0.5,0.6,0.7,1.4,0.7,2.4c0,1-0.2,1.8-0.7,2.4
			c-0.5,0.6-1.2,0.9-2,0.9h-2.1h-0.4V82.5z M156.5,88.3h1.6c0.6,0,1.1-0.2,1.5-0.6c0.3-0.4,0.5-1,0.5-1.8c0-0.8-0.2-1.4-0.5-1.8
			s-0.8-0.6-1.4-0.6h-1.7V88.3z"/>
		<path class="st3" d="M164.9,88.4c-0.4-0.5-0.6-1.1-0.6-1.8c0-0.7,0.2-1.3,0.6-1.8c0.4-0.5,0.9-0.7,1.6-0.7c0.7,0,1.2,0.2,1.6,0.7
			s0.6,1.1,0.6,1.8c0,0.7-0.2,1.3-0.6,1.8s-0.9,0.7-1.6,0.7C165.8,89.1,165.3,88.9,164.9,88.4z M167.4,88c0.2-0.3,0.4-0.8,0.4-1.3
			s-0.1-1-0.4-1.3c-0.2-0.3-0.6-0.5-1-0.5s-0.7,0.2-1,0.5c-0.2,0.3-0.4,0.8-0.4,1.3s0.1,1,0.4,1.3c0.2,0.3,0.6,0.5,1,0.5
			S167.2,88.3,167.4,88z"/>
		<path class="st3" d="M170.5,85v4h-0.4h-0.4v-4h-0.7v-0.7h0.7v-0.8c0-0.3,0.1-0.6,0.3-0.8s0.5-0.3,0.9-0.3l0.3,0v0.7l-0.3,0
			c-0.2,0-0.3,0-0.4,0.1c-0.1,0.1-0.1,0.2-0.1,0.4v0.6h0.8V85H170.5z"/>
		<path class="st3" d="M175.7,86.6l-1.6-2.3h0.5h0.5l1.1,1.7l1.1-1.7h0.5h0.5l-1.6,2.3l1.6,2.4h-0.5h-0.5l-1.2-1.8L175,89h-0.5h-0.5
			L175.7,86.6z"/>
		<path class="st3" d="M179,82.5h1.7v0.6h-1v7h1v0.6H179V82.5z"/>
		<path class="st3" d="M181.5,84.3h0.4h0.4V85l0.2-0.2c0.3-0.4,0.8-0.6,1.3-0.6c0.5,0,0.9,0.1,1.2,0.4s0.4,0.7,0.4,1.2V89H185h-0.4
			v-3c0-0.4-0.1-0.7-0.2-0.9c-0.2-0.2-0.4-0.3-0.8-0.3c-0.4,0-0.7,0.1-0.9,0.4c-0.2,0.3-0.3,0.7-0.3,1.2V89h-0.4h-0.4V84.3z"/>
		<path class="st3" d="M187.9,90.8h-1.7v-0.6h1v-7h-1v-0.6h1.7V90.8z"/>
	</g>
	<path class="st7" d="M111.7,85.3h30 M132.7,87.2l9-1.9l-9-1.9"/>
	<rect x="108.7" y="27.5" class="st9" width="169.5" height="65.3"/>
</g>
</svg>
