<?xml version="1.0" encoding="utf-8"?>
<!-- Generator: Adobe Illustrator 22.1.0, SVG Export Plug-In . SVG Version: 6.00 Build 0)  -->
<svg version="1.1" id="Layer_1" xmlns="http://www.w3.org/2000/svg" xmlns:xlink="http://www.w3.org/1999/xlink" x="0px" y="0px"
	 viewBox="0 0 344.4 309.7" style="enable-background:new 0 0 344.4 309.7;" xml:space="preserve">
<style type="text/css">
	.st0{fill:none;stroke:#DFDFDF;stroke-width:0.4998;stroke-linejoin:round;stroke-miterlimit:10;}
	.st1{fill:none;stroke:#262626;stroke-width:0.4998;stroke-linecap:square;stroke-linejoin:round;stroke-miterlimit:10;}
	.st2{fill:#4A4A49;}
	.st3{fill:#1D1D1B;}
	.st4{fill:#FF0000;}
	.st5{fill:none;stroke:#262626;stroke-width:0.4998;stroke-linejoin:round;stroke-miterlimit:10;}
	.st6{fill:none;stroke:#000000;stroke-width:7.9998;stroke-miterlimit:10;}
	.st7{fill:none;stroke:#000000;stroke-width:7.9998;stroke-linejoin:bevel;stroke-miterlimit:10;stroke-dasharray:31.2,31.2;}
	.st8{fill:none;stroke:#FF0000;stroke-width:3;stroke-miterlimit:10;}
	.st9{fill:none;stroke:#FF0000;stroke-width:3;stroke-linejoin:round;stroke-miterlimit:10;}
	.st10{fill:#262626;}
</style>
<g>
	<path class="st0" d="M18.4,277.6v-255 M45.5,277.6v-255 M72.7,277.6v-255 M99.8,277.6v-255 M127,277.6v-255 M154.1,277.6v-255
		 M181.3,277.6v-255 M208.4,277.6v-255 M235.6,277.6v-255 M262.7,277.6v-255 M289.9,277.6v-255 M317,277.6v-255 M344.2,277.6H18.4
		 M344.2,252.1H18.4 M344.2,226.6H18.4 M344.2,201.1H18.4 M344.2,175.6H18.4 M344.2,150.1H18.4 M344.2,124.6H18.4 M344.2,99.1H18.4
		 M344.2,73.6H18.4 M344.2,48.1H18.4 M344.2,22.6H18.4"/>
	<path class="st1" d="M18.4,277.6v-255 M344.2,277.6v-255 M18.4,277.6h3.3 M18.4,252.1h3.3 M18.4,226.6h3.3 M18.4,201.1h3.3
		 M18.4,175.6h3.3 M18.4,150.1h3.3 M18.4,124.6h3.3 M18.4,99.1h3.3 M18.4,73.6h3.3 M18.4,48.1h3.3 M18.4,22.6h3.3 M344.2,277.6h-3.3
		 M344.2,252.1h-3.3 M344.2,226.6h-3.3 M344.2,201.1h-3.3 M344.2,175.6h-3.3 M344.2,150.1h-3.3 M344.2,124.6h-3.3 M344.2,99.1h-3.3
		 M344.2,73.6h-3.3 M344.2,48.1h-3.3 M344.2,22.6h-3.3"/>
	<g>
		<path class="st2" d="M9.4,280.7c-0.4-0.6-0.6-1.5-0.6-2.7s0.2-2,0.6-2.7c0.4-0.6,1-0.9,1.8-0.9c0.8,0,1.4,0.3,1.8,0.9
			c0.4,0.6,0.6,1.5,0.6,2.7s-0.2,2-0.6,2.7s-1,0.9-1.8,0.9C10.4,281.6,9.8,281.3,9.4,280.7z M12.3,280.2c0.2-0.5,0.4-1.2,0.4-2.1
			c0-0.9-0.1-1.6-0.4-2.1c-0.2-0.5-0.6-0.7-1.1-0.7c-0.5,0-0.9,0.2-1.1,0.7c-0.2,0.5-0.4,1.2-0.4,2.1c0,0.9,0.1,1.6,0.4,2.1
			s0.6,0.7,1.1,0.7C11.7,280.9,12,280.6,12.3,280.2z"/>
	</g>
	<g>
		<path class="st2" d="M1,255.2c-0.4-0.6-0.6-1.5-0.6-2.7s0.2-2,0.6-2.7c0.4-0.6,1-0.9,1.8-0.9c0.8,0,1.4,0.3,1.8,0.9
			c0.4,0.6,0.6,1.5,0.6,2.7s-0.2,2-0.6,2.7s-1,0.9-1.8,0.9C2,256.2,1.4,255.8,1,255.2z M3.9,254.7c0.2-0.5,0.4-1.2,0.4-2.1
			c0-0.9-0.1-1.6-0.4-2.1c-0.2-0.5-0.6-0.7-1.1-0.7c-0.5,0-0.9,0.2-1.1,0.7c-0.2,0.5-0.4,1.2-0.4,2.1c0,0.9,0.1,1.6,0.4,2.1
			s0.6,0.7,1.1,0.7C3.3,255.4,3.6,255.1,3.9,254.7z"/>
		<path class="st2" d="M6.4,254.9h1v1.1h-1V254.9z"/>
	</g>
	<g>
		<path class="st2" d="M10.2,251H8.5v-0.7c0.5,0,0.9-0.1,1.2-0.3c0.3-0.2,0.5-0.6,0.7-1h0.7v7h-0.5h-0.5V251z"/>
	</g>
	<g>
		<path class="st2" d="M1,229.7c-0.4-0.6-0.6-1.5-0.6-2.7s0.2-2,0.6-2.7c0.4-0.6,1-0.9,1.8-0.9c0.8,0,1.4,0.3,1.8,0.9
			c0.4,0.6,0.6,1.5,0.6,2.7s-0.2,2-0.6,2.7s-1,0.9-1.8,0.9C2,230.7,1.4,230.3,1,229.7z M3.9,229.2c0.2-0.5,0.4-1.2,0.4-2.1
			c0-0.9-0.1-1.6-0.4-2.1c-0.2-0.5-0.6-0.7-1.1-0.7c-0.5,0-0.9,0.2-1.1,0.7c-0.2,0.5-0.4,1.2-0.4,2.1c0,0.9,0.1,1.6,0.4,2.1
			s0.6,0.7,1.1,0.7C3.3,229.9,3.6,229.6,3.9,229.2z"/>
		<path class="st2" d="M6.4,229.4h1v1.1h-1V229.4z"/>
	</g>
	<g>
		<path class="st2" d="M12.6,225.5c0,0.5-0.1,0.9-0.4,1.3c-0.3,0.3-0.8,0.7-1.5,1.1c-0.8,0.4-1.3,0.8-1.6,1.2
			c-0.1,0.2-0.2,0.3-0.3,0.5h3.8v0.9H7.8v0c0-0.7,0.2-1.3,0.6-1.8c0.4-0.5,1.1-1,2.1-1.5c0.5-0.3,0.8-0.5,1-0.8
			c0.2-0.2,0.3-0.5,0.3-0.9c0-0.4-0.1-0.7-0.4-0.9c-0.3-0.2-0.6-0.4-1-0.4c-0.4,0-0.8,0.1-1,0.4s-0.4,0.7-0.4,1.3H7.9
			c0-0.8,0.2-1.4,0.6-1.8c0.4-0.4,1-0.7,1.8-0.7c0.7,0,1.2,0.2,1.6,0.6C12.4,224.4,12.6,224.9,12.6,225.5z"/>
	</g>
	<g>
		<path class="st2" d="M1,204.2c-0.4-0.6-0.6-1.5-0.6-2.7s0.2-2,0.6-2.7c0.4-0.6,1-0.9,1.8-0.9c0.8,0,1.4,0.3,1.8,0.9
			c0.4,0.6,0.6,1.5,0.6,2.7s-0.2,2-0.6,2.7s-1,0.9-1.8,0.9C2,205.2,1.4,204.8,1,204.2z M3.9,203.7c0.2-0.5,0.4-1.2,0.4-2.1
			c0-0.9-0.1-1.6-0.4-2.1c-0.2-0.5-0.6-0.7-1.1-0.7c-0.5,0-0.9,0.2-1.1,0.7c-0.2,0.5-0.4,1.2-0.4,2.1c0,0.9,0.1,1.6,0.4,2.1
			s0.6,0.7,1.1,0.7C3.3,204.4,3.6,204.1,3.9,203.7z"/>
		<path class="st2" d="M6.4,203.9h1v1.1h-1V203.9z"/>
	</g>
	<g>
		<path class="st2" d="M11.6,199.8c0-0.3-0.1-0.6-0.4-0.8c-0.3-0.2-0.6-0.3-1-0.3c-0.4,0-0.7,0.1-1,0.4c-0.2,0.3-0.3,0.6-0.4,1.1H8
			c0-0.7,0.2-1.3,0.6-1.7c0.4-0.4,0.9-0.6,1.6-0.6c0.7,0,1.2,0.2,1.6,0.5c0.4,0.3,0.6,0.8,0.6,1.3c0,0.5-0.2,1-0.6,1.3
			c-0.1,0.1-0.2,0.1-0.3,0.2c0.2,0.1,0.3,0.2,0.4,0.3c0.4,0.3,0.7,0.8,0.7,1.4c0,0.7-0.2,1.2-0.7,1.6c-0.5,0.4-1,0.6-1.8,0.6
			c-0.8,0-1.4-0.2-1.8-0.6c-0.4-0.4-0.6-1-0.7-1.7h0.9c0.1,0.5,0.2,0.9,0.4,1.2c0.2,0.2,0.6,0.4,1.1,0.4c0.4,0,0.8-0.1,1.1-0.4
			c0.3-0.2,0.4-0.6,0.4-1c0-0.4-0.1-0.7-0.4-1c-0.2-0.2-0.5-0.3-0.9-0.4c-0.2,0-0.3,0-0.5,0s-0.2,0-0.3,0V201c0.1,0,0.2,0,0.3,0
			s0.3,0,0.4,0c0.3,0,0.5-0.1,0.7-0.3C11.4,200.5,11.6,200.2,11.6,199.8z"/>
	</g>
	<g>
		<path class="st2" d="M1,178.7c-0.4-0.6-0.6-1.5-0.6-2.7s0.2-2,0.6-2.7c0.4-0.6,1-0.9,1.8-0.9c0.8,0,1.4,0.3,1.8,0.9
			c0.4,0.6,0.6,1.5,0.6,2.7s-0.2,2-0.6,2.7s-1,0.9-1.8,0.9C2,179.7,1.4,179.4,1,178.7z M3.9,178.2c0.2-0.5,0.4-1.2,0.4-2.1
			c0-0.9-0.1-1.6-0.4-2.1c-0.2-0.5-0.6-0.7-1.1-0.7c-0.5,0-0.9,0.2-1.1,0.7c-0.2,0.5-0.4,1.2-0.4,2.1c0,0.9,0.1,1.6,0.4,2.1
			s0.6,0.7,1.1,0.7C3.3,178.9,3.6,178.6,3.9,178.2z"/>
		<path class="st2" d="M6.4,178.4h1v1.1h-1V178.4z"/>
	</g>
	<g>
		<path class="st2" d="M7.7,177.8v-0.4V177l3.3-4.5h0.4h0.4v4.6h1v0.8h-1v1.7h-0.9v-1.7H7.7z M10.8,177v-3.2L8.6,177l0,0.1H10.8z"/>
	</g>
	<g>
		<path class="st2" d="M1,153.2c-0.4-0.6-0.6-1.5-0.6-2.7s0.2-2,0.6-2.7c0.4-0.6,1-0.9,1.8-0.9c0.8,0,1.4,0.3,1.8,0.9
			c0.4,0.6,0.6,1.5,0.6,2.7s-0.2,2-0.6,2.7s-1,0.9-1.8,0.9C2,154.1,1.4,153.8,1,153.2z M3.9,152.7c0.2-0.5,0.4-1.2,0.4-2.1
			c0-0.9-0.1-1.6-0.4-2.1c-0.2-0.5-0.6-0.7-1.1-0.7c-0.5,0-0.9,0.2-1.1,0.7c-0.2,0.5-0.4,1.2-0.4,2.1c0,0.9,0.1,1.6,0.4,2.1
			s0.6,0.7,1.1,0.7C3.3,153.4,3.6,153.1,3.9,152.7z"/>
		<path class="st2" d="M6.4,152.9h1v1.1h-1V152.9z"/>
	</g>
	<g>
		<path class="st2" d="M12.6,151.7c0,0.7-0.2,1.3-0.7,1.8s-1,0.7-1.7,0.7c-0.7,0-1.3-0.2-1.7-0.5s-0.7-0.8-0.7-1.5h0.9
			c0,0.4,0.2,0.7,0.5,0.9c0.3,0.2,0.6,0.3,1.1,0.3c0.4,0,0.8-0.1,1-0.4s0.4-0.7,0.4-1.1c0-0.5-0.1-0.9-0.4-1.2s-0.7-0.4-1.1-0.4
			c-0.3,0-0.5,0.1-0.7,0.2s-0.4,0.3-0.5,0.5l-0.7,0l0.5-3.8h3.6v0.9h-3L9,149.8l0,0c0.4-0.3,0.8-0.4,1.2-0.4c0.7,0,1.3,0.2,1.8,0.6
			C12.4,150.4,12.6,151,12.6,151.7z"/>
	</g>
	<g>
		<path class="st2" d="M1,127.7c-0.4-0.6-0.6-1.5-0.6-2.7s0.2-2,0.6-2.7c0.4-0.6,1-0.9,1.8-0.9c0.8,0,1.4,0.3,1.8,0.9
			c0.4,0.6,0.6,1.5,0.6,2.7s-0.2,2-0.6,2.7s-1,0.9-1.8,0.9C2,128.7,1.4,128.3,1,127.7z M3.9,127.2c0.2-0.5,0.4-1.2,0.4-2.1
			c0-0.9-0.1-1.6-0.4-2.1c-0.2-0.5-0.6-0.7-1.1-0.7c-0.5,0-0.9,0.2-1.1,0.7c-0.2,0.5-0.4,1.2-0.4,2.1c0,0.9,0.1,1.6,0.4,2.1
			s0.6,0.7,1.1,0.7C3.3,127.9,3.6,127.6,3.9,127.2z"/>
		<path class="st2" d="M6.4,127.4h1v1.1h-1V127.4z"/>
	</g>
	<g>
		<path class="st2" d="M10.5,121.4c0.6,0,1.1,0.2,1.5,0.5c0.4,0.3,0.6,0.8,0.6,1.4h-0.9c0-0.3-0.2-0.6-0.4-0.8
			c-0.2-0.2-0.5-0.3-0.8-0.3c-0.5,0-1,0.3-1.3,0.8c-0.3,0.4-0.4,1.1-0.4,1.8c0.4-0.6,1-0.8,1.7-0.8c0.7,0,1.2,0.2,1.6,0.6
			s0.6,1,0.6,1.7s-0.2,1.3-0.7,1.7s-1,0.6-1.7,0.6c-0.8,0-1.4-0.3-1.8-0.9s-0.6-1.4-0.6-2.5c0-1.2,0.2-2.2,0.7-2.8
			C9,121.8,9.6,121.4,10.5,121.4z M8.9,126.3c0,0.5,0.1,0.8,0.4,1.1s0.6,0.4,1,0.4s0.8-0.1,1-0.4s0.4-0.7,0.4-1.1s-0.1-0.8-0.4-1.1
			s-0.6-0.4-1-0.4s-0.8,0.1-1,0.4C9,125.5,8.9,125.9,8.9,126.3z"/>
	</g>
	<g>
		<path class="st2" d="M1,102.2c-0.4-0.6-0.6-1.5-0.6-2.7s0.2-2,0.6-2.7c0.4-0.6,1-0.9,1.8-0.9c0.8,0,1.4,0.3,1.8,0.9
			c0.4,0.6,0.6,1.5,0.6,2.7s-0.2,2-0.6,2.7s-1,0.9-1.8,0.9C2,103.2,1.4,102.8,1,102.2z M3.9,101.7c0.2-0.5,0.4-1.2,0.4-2.1
			c0-0.9-0.1-1.6-0.4-2.1c-0.2-0.5-0.6-0.7-1.1-0.7c-0.5,0-0.9,0.2-1.1,0.7c-0.2,0.5-0.4,1.2-0.4,2.1c0,0.9,0.1,1.6,0.4,2.1
			s0.6,0.7,1.1,0.7C3.3,102.4,3.6,102.1,3.9,101.7z"/>
		<path class="st2" d="M6.4,101.9h1v1.1h-1V101.9z"/>
	</g>
	<g>
		<path class="st2" d="M8.9,103c0.2-1.2,0.6-2.3,1.1-3.3c0.5-1,1.1-1.9,1.8-2.8H7.9v-0.9h4.9v0.4v0.4c-0.8,0.9-1.4,1.9-1.9,2.9
			c-0.5,1-0.8,2.1-1,3.3H8.9z"/>
	</g>
	<g>
		<path class="st2" d="M1,76.7c-0.4-0.6-0.6-1.5-0.6-2.7s0.2-2,0.6-2.7c0.4-0.6,1-0.9,1.8-0.9c0.8,0,1.4,0.3,1.8,0.9
			C5,72,5.2,72.9,5.2,74s-0.2,2-0.6,2.7s-1,0.9-1.8,0.9C2,77.7,1.4,77.3,1,76.7z M3.9,76.2C4.1,75.7,4.3,75,4.3,74
			c0-0.9-0.1-1.6-0.4-2.1c-0.2-0.5-0.6-0.7-1.1-0.7c-0.5,0-0.9,0.2-1.1,0.7c-0.2,0.5-0.4,1.2-0.4,2.1c0,0.9,0.1,1.6,0.4,2.1
			s0.6,0.7,1.1,0.7C3.3,76.9,3.6,76.6,3.9,76.2z"/>
		<path class="st2" d="M6.4,76.4h1v1.1h-1V76.4z"/>
	</g>
	<g>
		<path class="st2" d="M11.5,73.7c0.2,0.1,0.4,0.2,0.5,0.3c0.4,0.4,0.7,0.8,0.7,1.4c0,0.7-0.2,1.2-0.7,1.6s-1,0.6-1.7,0.6
			S9,77.5,8.5,77.1s-0.7-0.9-0.7-1.6c0-0.6,0.2-1.1,0.7-1.4c0.2-0.1,0.3-0.2,0.5-0.3c-0.1-0.1-0.2-0.1-0.3-0.2
			c-0.4-0.3-0.6-0.7-0.6-1.2c0-0.6,0.2-1,0.6-1.4s0.9-0.5,1.6-0.5s1.2,0.2,1.6,0.5s0.6,0.8,0.6,1.4c0,0.5-0.2,0.9-0.6,1.2
			C11.7,73.6,11.6,73.7,11.5,73.7z M10.3,74.1c-0.4,0-0.8,0.1-1.1,0.4s-0.4,0.6-0.4,1c0,0.4,0.1,0.7,0.4,1s0.6,0.4,1.1,0.4
			s0.8-0.1,1.1-0.4s0.4-0.6,0.4-1c0-0.4-0.1-0.7-0.4-1C11.1,74.3,10.7,74.1,10.3,74.1z M10.3,73.4c0.4,0,0.7-0.1,0.9-0.3
			s0.3-0.5,0.3-0.8s-0.1-0.6-0.3-0.8c-0.2-0.2-0.5-0.3-0.9-0.3s-0.7,0.1-0.9,0.3c-0.2,0.2-0.3,0.5-0.3,0.8s0.1,0.6,0.3,0.8
			C9.6,73.3,9.9,73.4,10.3,73.4z"/>
	</g>
	<g>
		<path class="st2" d="M1,51.2c-0.4-0.6-0.6-1.5-0.6-2.7s0.2-2,0.6-2.7c0.4-0.6,1-0.9,1.8-0.9c0.8,0,1.4,0.3,1.8,0.9
			c0.4,0.6,0.6,1.5,0.6,2.7s-0.2,2-0.6,2.7s-1,0.9-1.8,0.9C2,52.2,1.4,51.9,1,51.2z M3.9,50.7c0.2-0.5,0.4-1.2,0.4-2.1
			c0-0.9-0.1-1.6-0.4-2.1c-0.2-0.5-0.6-0.7-1.1-0.7c-0.5,0-0.9,0.2-1.1,0.7c-0.2,0.5-0.4,1.2-0.4,2.1c0,0.9,0.1,1.6,0.4,2.1
			s0.6,0.7,1.1,0.7C3.3,51.4,3.6,51.1,3.9,50.7z"/>
		<path class="st2" d="M6.4,50.9h1V52h-1V50.9z"/>
	</g>
	<g>
		<path class="st2" d="M10.1,52.2c-0.6,0-1.1-0.2-1.5-0.5S8,50.9,8,50.3h0.8c0,0.4,0.2,0.6,0.4,0.8s0.5,0.3,0.9,0.3
			c0.5,0,0.9-0.3,1.2-0.9c0.2-0.4,0.3-1,0.4-1.7c-0.4,0.5-1,0.8-1.6,0.8c-0.7,0-1.2-0.2-1.6-0.6s-0.6-1-0.6-1.7
			c0-0.7,0.2-1.3,0.6-1.7c0.4-0.4,1-0.6,1.7-0.6c0.8,0,1.3,0.3,1.7,0.8c0.4,0.5,0.6,1.3,0.6,2.3c0,1.3-0.2,2.3-0.7,3.1
			S10.9,52.2,10.1,52.2z M11.6,47.3c0-0.5-0.1-0.8-0.4-1.1c-0.3-0.3-0.6-0.4-1-0.4s-0.7,0.1-1,0.4c-0.3,0.3-0.4,0.7-0.4,1.1
			s0.1,0.8,0.4,1.1s0.6,0.4,1,0.4s0.7-0.1,1-0.4C11.5,48.1,11.6,47.7,11.6,47.3z"/>
	</g>
	<g>
		<path class="st2" d="M11,21.5H9.4v-0.7c0.5,0,0.9-0.1,1.2-0.3c0.3-0.2,0.5-0.6,0.7-1H12v7h-0.5H11V21.5z"/>
	</g>
	<g>
		<path class="st3" d="M74.9,13l2-3L75,7.1h1.9l1,1.7l1-1.7h1.8L78.7,10l2,3h-1.9l-1-1.8l-1,1.8H74.9z"/>
		<path class="st3" d="M81.6,5h2.7v1.1h-1.2V14h1.2v1.1h-2.7V5z"/>
		<path class="st3" d="M90,7.4c0.4,0.3,0.6,0.8,0.6,1.6V13H89V9.4c0-0.3,0-0.5-0.1-0.7c-0.1-0.3-0.4-0.5-0.9-0.5
			c-0.5,0-0.9,0.2-1.1,0.7c-0.1,0.2-0.1,0.5-0.1,0.9V13h-1.5V7.1h1.5V8c0.2-0.3,0.4-0.5,0.6-0.6C87.7,7.1,88.1,7,88.5,7
			C89.1,7,89.6,7.1,90,7.4z"/>
		<path class="st3" d="M91.5,14h1.2V6.1h-1.2V5h2.7v10.1h-2.7V14z"/>
		<path class="st3" d="M101.1,8.1v1.4h-5.8V8.1H101.1z M101.1,10.6V12h-5.8v-1.4H101.1z"/>
		<path class="st3" d="M102.5,7c0.3-0.6,0.5-1.1,0.8-1.5l0.4-0.5l0.9,0c-0.5,0.9-0.8,1.6-1,2.2c-0.3,0.9-0.4,1.9-0.4,3
			c0,0.7,0.1,1.3,0.2,1.9c0.2,0.9,0.5,1.8,0.9,2.6l0.3,0.6h-0.9c-0.6-0.8-1-1.6-1.3-2.3c-0.4-0.9-0.5-1.8-0.5-2.7
			C101.8,9.1,102,8,102.5,7z"/>
		<path class="st3" d="M110.2,6.2c0.4,0.7,0.6,1.7,0.6,3c0,1.3-0.2,2.3-0.6,3c-0.4,0.7-1.1,1-2.1,1s-1.7-0.3-2.1-1
			c-0.4-0.7-0.6-1.7-0.6-3c0-1.3,0.2-2.3,0.6-3c0.4-0.7,1.1-1,2.1-1S109.8,5.5,110.2,6.2z M107.2,11.2c0.1,0.5,0.4,0.7,0.9,0.7
			s0.8-0.2,0.9-0.7c0.1-0.5,0.2-1.2,0.2-2.1c0-0.9-0.1-1.6-0.2-2.1c-0.1-0.5-0.4-0.7-0.9-0.7s-0.8,0.2-0.9,0.7S107,8.2,107,9.1
			C107,10,107,10.7,107.2,11.2z"/>
		<path class="st3" d="M111.9,11.4h1.6V13h-1.6V11.4z"/>
		<path class="st3" d="M120,6.5c-0.2,0.2-0.5,0.6-1,1.2c-0.4,0.6-0.8,1.2-1,1.8c-0.2,0.5-0.4,1.1-0.6,1.8s-0.3,1.3-0.3,1.7h-1.6
			c0-1.4,0.5-2.8,1.4-4.4c0.6-0.9,1-1.6,1.4-2h-3.9l0-1.4h5.5V6.5z"/>
		<path class="st3" d="M122.9,7c0.4,1,0.6,1.9,0.6,2.9c0,1.1-0.2,2.2-0.7,3.3c-0.3,0.6-0.5,1.1-0.8,1.4l-0.4,0.5h-1.1
			c0.5-0.9,0.8-1.6,1-2.1c0.3-0.9,0.5-1.9,0.5-3c0-0.7-0.1-1.3-0.2-1.9c-0.2-0.9-0.5-1.8-0.9-2.6l-0.3-0.6h1.2
			C122.2,5.7,122.6,6.4,122.9,7z"/>
	</g>
	<g>
		<path class="st3" d="M128.3,3.2c0.3,0.3,0.5,0.7,0.5,1.3v3.2h-1.3V4.7c0-0.2,0-0.4-0.1-0.6c-0.1-0.2-0.3-0.4-0.7-0.4
			c-0.4,0-0.7,0.2-0.8,0.5c-0.1,0.2-0.1,0.4-0.1,0.7v2.5h-1.2V2.9h1.2v0.7c0.2-0.2,0.3-0.4,0.4-0.5c0.3-0.2,0.6-0.3,1-0.3
			C127.6,2.8,128,2.9,128.3,3.2z"/>
	</g>
	<g>
		<path class="st3" d="M134.7,7.1v3.5c0,0.3,0,0.6,0.1,0.8c0.1,0.3,0.4,0.4,0.8,0.4c0.5,0,0.9-0.2,1.1-0.6c0.1-0.2,0.1-0.5,0.1-0.9
			V7.1h1.6V13h-1.5v-0.8c0,0-0.1,0.1-0.1,0.2c-0.1,0.1-0.1,0.2-0.2,0.2c-0.2,0.2-0.5,0.4-0.7,0.4s-0.5,0.1-0.8,0.1
			c-0.9,0-1.4-0.3-1.7-0.9c-0.2-0.3-0.3-0.9-0.3-1.5V7.1H134.7z"/>
		<path class="st3" d="M139.9,5h2.7v1.1h-1.2V14h1.2v1.1h-2.7V5z"/>
		<path class="st3" d="M148.3,7.4c0.4,0.3,0.6,0.8,0.6,1.6V13h-1.6V9.4c0-0.3,0-0.5-0.1-0.7c-0.1-0.3-0.4-0.5-0.9-0.5
			c-0.5,0-0.9,0.2-1.1,0.7c-0.1,0.2-0.1,0.5-0.1,0.9V13h-1.5V7.1h1.5V8c0.2-0.3,0.4-0.5,0.6-0.6c0.3-0.2,0.7-0.4,1.2-0.4
			C147.4,7,147.9,7.1,148.3,7.4z"/>
		<path class="st3" d="M149.8,14h1.2V6.1h-1.2V5h2.7v10.1h-2.7V14z"/>
		<path class="st3" d="M159.3,9.4c0.3,0,0.5-0.1,0.6-0.1c0.2-0.1,0.3-0.2,0.3-0.4c0-0.2-0.1-0.4-0.3-0.5c-0.2-0.1-0.4-0.1-0.7-0.1
			c-0.4,0-0.6,0.1-0.8,0.3c-0.1,0.1-0.2,0.3-0.2,0.5h-1.5c0-0.5,0.2-0.9,0.4-1.3c0.4-0.5,1.1-0.8,2.1-0.8c0.6,0,1.2,0.1,1.7,0.4
			c0.5,0.3,0.8,0.7,0.8,1.4v2.7c0,0.2,0,0.4,0,0.7c0,0.2,0,0.3,0.1,0.4c0,0.1,0.1,0.1,0.2,0.2V13h-1.7c0-0.1-0.1-0.2-0.1-0.3
			c0-0.1,0-0.2,0-0.4c-0.2,0.2-0.5,0.4-0.7,0.6c-0.3,0.2-0.7,0.3-1.1,0.3c-0.5,0-1-0.2-1.3-0.5c-0.3-0.3-0.5-0.7-0.5-1.3
			c0-0.7,0.3-1.2,0.8-1.6c0.3-0.2,0.8-0.3,1.4-0.4L159.3,9.4z M160.2,10.1c-0.1,0.1-0.2,0.1-0.3,0.1c-0.1,0-0.2,0.1-0.4,0.1
			l-0.3,0.1c-0.3,0.1-0.6,0.1-0.7,0.2c-0.2,0.1-0.4,0.4-0.4,0.6c0,0.3,0.1,0.5,0.2,0.6c0.1,0.1,0.3,0.2,0.5,0.2
			c0.3,0,0.6-0.1,0.9-0.3c0.3-0.2,0.4-0.5,0.4-1.1V10.1z"/>
		<path class="st3" d="M167.8,7.4c0.4,0.3,0.6,0.8,0.6,1.6V13h-1.6V9.4c0-0.3,0-0.5-0.1-0.7c-0.1-0.3-0.4-0.5-0.9-0.5
			c-0.5,0-0.9,0.2-1.1,0.7c-0.1,0.2-0.1,0.5-0.1,0.9V13h-1.5V7.1h1.5V8c0.2-0.3,0.4-0.5,0.6-0.6c0.3-0.2,0.7-0.4,1.2-0.4
			C167,7,167.4,7.1,167.8,7.4z"/>
		<path class="st3" d="M172.9,7.2c0.3,0.2,0.5,0.4,0.7,0.6V5.1h1.6V13h-1.5v-0.8c-0.2,0.3-0.5,0.6-0.7,0.8s-0.6,0.2-1,0.2
			c-0.7,0-1.3-0.3-1.7-0.8s-0.7-1.3-0.7-2.1c0-1,0.2-1.8,0.7-2.4c0.5-0.6,1.1-0.9,1.8-0.9C172.3,7,172.7,7.1,172.9,7.2z M173.3,11.4
			c0.2-0.3,0.3-0.7,0.3-1.3c0-0.7-0.2-1.2-0.5-1.5c-0.2-0.2-0.5-0.3-0.8-0.3c-0.4,0-0.8,0.2-1,0.5s-0.3,0.8-0.3,1.3
			c0,0.5,0.1,1,0.3,1.3c0.2,0.3,0.5,0.5,1,0.5S173.1,11.7,173.3,11.4z"/>
		<path class="st3" d="M181.2,6.4h-1.6V5h1.6V6.4z M179.6,7.1h1.6V13h-1.6V7.1z"/>
		<path class="st3" d="M182.1,8.3V7.2h0.8V5.5h1.5v1.6h1v1.1h-1v3.1c0,0.2,0,0.4,0.1,0.4s0.2,0.1,0.6,0.1c0,0,0.1,0,0.1,0
			c0.1,0,0.1,0,0.2,0V13l-0.7,0c-0.7,0-1.2-0.1-1.5-0.4c-0.2-0.2-0.3-0.4-0.3-0.8V8.3H182.1z"/>
		<path class="st3" d="M187.5,11.1c0,0.3,0.1,0.5,0.2,0.6c0.2,0.2,0.5,0.3,1.1,0.3c0.3,0,0.5,0,0.7-0.1c0.2-0.1,0.3-0.2,0.3-0.4
			c0-0.2-0.1-0.3-0.2-0.4c-0.1-0.1-0.7-0.2-1.6-0.5c-0.7-0.2-1.1-0.4-1.4-0.6c-0.3-0.2-0.4-0.6-0.4-1.1c0-0.5,0.2-1,0.6-1.4
			c0.4-0.4,1-0.6,1.8-0.6c0.7,0,1.3,0.1,1.8,0.4c0.5,0.3,0.7,0.8,0.8,1.5h-1.5c0-0.2-0.1-0.4-0.2-0.5c-0.2-0.2-0.5-0.3-0.9-0.3
			c-0.3,0-0.6,0.1-0.7,0.2c-0.1,0.1-0.2,0.2-0.2,0.4c0,0.2,0.1,0.3,0.2,0.4c0.2,0.1,0.7,0.2,1.6,0.4c0.6,0.1,1.1,0.4,1.4,0.6
			c0.3,0.3,0.5,0.7,0.5,1.1c0,0.6-0.2,1.1-0.6,1.4c-0.4,0.4-1.1,0.6-2,0.6c-0.9,0-1.6-0.2-2-0.6c-0.4-0.4-0.7-0.9-0.7-1.5H187.5z"/>
		<path class="st3" d="M200.9,9.5c-0.5,0.4-1.1,0.6-2,0.6h-1.6V13h-1.6V5h3.4c0.8,0,1.4,0.2,1.9,0.6s0.7,1,0.7,1.9
			C201.6,8.5,201.4,9.2,200.9,9.5z M199.7,6.7c-0.2-0.2-0.5-0.3-0.9-0.3h-1.5v2.3h1.5c0.4,0,0.7-0.1,0.9-0.3
			c0.2-0.2,0.3-0.5,0.3-0.9C200,7.2,199.9,6.9,199.7,6.7z"/>
		<path class="st3" d="M208.7,6.5h-4.1v1.7h3.8v1.4h-3.8v2h4.3V13H203V5h5.7V6.5z"/>
	</g>
	<g>
		<path class="st4" d="M212.9,13l2-3L213,7.1h1.9l1,1.7l1-1.7h1.8l-1.9,2.9l2,3h-1.9l-1-1.8l-1,1.8H212.9z"/>
	</g>
	<g>
		<path class="st4" d="M223.9,14.2c0.4,0.4,0.6,1,0.6,1.8c0,0.8-0.2,1.5-0.6,1.9c-0.4,0.4-0.9,0.6-1.4,0.6c-0.4,0-0.7-0.1-0.9-0.3
			c-0.1-0.1-0.3-0.3-0.4-0.5v2.4h-1.2v-6.5h1.2v0.7c0.1-0.2,0.3-0.4,0.4-0.5c0.3-0.2,0.6-0.3,1-0.3
			C223.1,13.6,223.5,13.8,223.9,14.2z M223,15.1c-0.2-0.3-0.4-0.4-0.8-0.4c-0.4,0-0.8,0.2-0.9,0.6c-0.1,0.2-0.1,0.5-0.1,0.9
			c0,0.5,0.1,0.9,0.4,1.1c0.2,0.1,0.4,0.2,0.6,0.2c0.3,0,0.6-0.1,0.8-0.4s0.3-0.6,0.3-1.1C223.2,15.7,223.1,15.3,223,15.1z"/>
	</g>
	<g>
		<path class="st4" d="M225.5,5h2.7v1.1h-1.2V14h1.2v1.1h-2.7V5z"/>
		<path class="st4" d="M233.9,7.4c0.4,0.3,0.6,0.8,0.6,1.6V13h-1.6V9.4c0-0.3,0-0.5-0.1-0.7c-0.1-0.3-0.4-0.5-0.9-0.5
			c-0.5,0-0.9,0.2-1.1,0.7c-0.1,0.2-0.1,0.5-0.1,0.9V13h-1.5V7.1h1.5V8c0.2-0.3,0.4-0.5,0.6-0.6c0.3-0.2,0.7-0.4,1.2-0.4
			C233,7,233.5,7.1,233.9,7.4z"/>
	</g>
	<g>
		<path class="st4" d="M234.2,14h1.2V6.1h-1.2V5h2.7v10.1h-2.7V14z"/>
	</g>
	<g>
		<path class="st3" d="M245.7,7.1h1.5l0.9,4.2l0.9-4.2h1.6L249,13h-1.6l-0.9-4.3l-0.9,4.3H244l-1.6-5.9h1.6l0.9,4.2L245.7,7.1z"/>
		<path class="st3" d="M253.1,6.4h-1.6V5h1.6V6.4z M251.5,7.1h1.6V13h-1.6V7.1z"/>
		<path class="st3" d="M254,8.3V7.2h0.8V5.5h1.5v1.6h1v1.1h-1v3.1c0,0.2,0,0.4,0.1,0.4s0.2,0.1,0.6,0.1c0,0,0.1,0,0.1,0
			c0.1,0,0.1,0,0.2,0V13l-0.7,0c-0.7,0-1.2-0.1-1.5-0.4c-0.2-0.2-0.3-0.4-0.3-0.8V8.3H254z"/>
		<path class="st3" d="M262.4,7.1c0.3,0.1,0.5,0.3,0.7,0.6c0.2,0.2,0.3,0.4,0.3,0.7c0,0.2,0.1,0.6,0.1,1.1V13H262V9.4
			c0-0.3-0.1-0.6-0.2-0.8c-0.1-0.3-0.4-0.4-0.8-0.4c-0.4,0-0.7,0.1-0.9,0.4c-0.2,0.3-0.3,0.7-0.3,1.2V13h-1.5V5.1h1.5v2.8
			c0.2-0.3,0.5-0.6,0.8-0.7c0.3-0.1,0.6-0.2,0.9-0.2C261.8,7,262.2,7,262.4,7.1z"/>
		<path class="st3" d="M268.1,5h1.7l3.1,5.5V5h1.5V13h-1.7l-3.2-5.6V13h-1.5V5z"/>
		<path class="st3" d="M281.4,8.1v1.4h-5.8V8.1H281.4z M281.4,10.6V12h-5.8v-1.4H281.4z"/>
		<path class="st3" d="M283.5,10.6c0,0.3,0,0.6,0.2,0.8c0.2,0.4,0.5,0.6,1,0.6c0.3,0,0.6-0.1,0.8-0.3c0.2-0.2,0.3-0.5,0.3-0.9
			c0-0.5-0.2-0.9-0.6-1c-0.2-0.1-0.6-0.1-1.1-0.1V8.4c0.5,0,0.8-0.1,1-0.1c0.3-0.2,0.5-0.5,0.5-0.9c0-0.3-0.1-0.5-0.3-0.7
			c-0.2-0.2-0.4-0.3-0.7-0.3c-0.4,0-0.6,0.1-0.8,0.3c-0.2,0.2-0.3,0.5-0.2,0.9h-1.4c0-0.4,0.1-0.8,0.2-1.1c0.1-0.3,0.3-0.6,0.6-0.8
			c0.2-0.2,0.4-0.3,0.7-0.4s0.6-0.1,1-0.1c0.7,0,1.3,0.2,1.8,0.6s0.7,0.9,0.7,1.5c0,0.5-0.1,0.8-0.4,1.2c-0.2,0.2-0.4,0.3-0.5,0.4
			c0.1,0,0.3,0.1,0.6,0.4c0.4,0.4,0.6,0.9,0.6,1.5c0,0.7-0.2,1.2-0.7,1.7s-1.1,0.7-2,0.7c-1.1,0-1.9-0.4-2.3-1.1
			c-0.2-0.4-0.4-0.9-0.4-1.5H283.5z"/>
	</g>
	<line class="st5" x1="18.4" y1="277.6" x2="344.2" y2="277.6"/>
	<path class="st6" d="M21.4,22.6c0-1.7-1.3-3-3-3s-3,1.3-3,3c0,1.7,1.3,3,3,3S21.4,24.2,21.4,22.6 M48.5,99.1c0-1.7-1.3-3-3-3
		c-1.7,0-3,1.3-3,3c0,1.7,1.3,3,3,3C47.2,102.1,48.5,100.7,48.5,99.1 M75.7,152.6c0-1.7-1.3-3-3-3s-3,1.3-3,3c0,1.7,1.3,3,3,3
		S75.7,154.3,75.7,152.6 M102.8,190.1c0-1.7-1.3-3-3-3c-1.7,0-3,1.3-3,3s1.3,3,3,3C101.5,193.1,102.8,191.8,102.8,190.1 M130,216.3
		c0-1.7-1.3-3-3-3s-3,1.3-3,3s1.3,3,3,3S130,218,130,216.3 M157.1,234.7c0-1.7-1.3-3-3-3c-1.7,0-3,1.3-3,3s1.3,3,3,3
		C155.8,237.7,157.1,236.4,157.1,234.7 M184.3,247.6c0-1.7-1.3-3-3-3s-3,1.3-3,3s1.3,3,3,3S184.3,249.2,184.3,247.6 M211.4,256.6
		c0-1.7-1.3-3-3-3s-3,1.3-3,3c0,1.7,1.3,3,3,3S211.4,258.2,211.4,256.6 M238.6,262.9c0-1.7-1.3-3-3-3c-1.7,0-3,1.3-3,3s1.3,3,3,3
		C237.3,265.9,238.6,264.5,238.6,262.9 M265.7,267.3c0-1.7-1.3-3-3-3c-1.7,0-3,1.3-3,3c0,1.7,1.3,3,3,3
		C264.4,270.3,265.7,268.9,265.7,267.3 M292.9,270.4c0-1.7-1.3-3-3-3c-1.7,0-3,1.3-3,3s1.3,3,3,3C291.6,273.4,292.9,272,292.9,270.4
		 M320,272.5c0-1.7-1.3-3-3-3c-1.7,0-3,1.3-3,3c0,1.7,1.3,3,3,3C318.7,275.5,320,274.2,320,272.5"/>
	<path class="st7" d="M18.4,277.6v-255 M45.5,277.6V99.1 M72.7,277.6V152.6 M99.8,277.6v-87.5 M127,277.6v-61.2 M154.1,277.6v-42.9
		 M181.3,277.6v-30 M208.4,277.6v-21 M235.6,277.6v-14.7 M262.7,277.6v-10.3 M289.9,277.6v-7.2 M317,277.6v-5"/>
	<path class="st8" d="M21.4,22.6c0-1.7-1.3-3-3-3s-3,1.3-3,3c0,1.7,1.3,3,3,3S21.4,24.2,21.4,22.6 M48.5,99.1c0-1.7-1.3-3-3-3
		c-1.7,0-3,1.3-3,3c0,1.7,1.3,3,3,3C47.2,102.1,48.5,100.7,48.5,99.1 M75.7,152.6c0-1.7-1.3-3-3-3s-3,1.3-3,3c0,1.7,1.3,3,3,3
		S75.7,154.3,75.7,152.6 M102.8,22.6c0-1.7-1.3-3-3-3c-1.7,0-3,1.3-3,3c0,1.7,1.3,3,3,3C101.5,25.6,102.8,24.2,102.8,22.6 M130,99.1
		c0-1.7-1.3-3-3-3s-3,1.3-3,3c0,1.7,1.3,3,3,3S130,100.7,130,99.1 M157.1,152.6c0-1.7-1.3-3-3-3c-1.7,0-3,1.3-3,3c0,1.7,1.3,3,3,3
		C155.8,155.6,157.1,154.3,157.1,152.6 M184.3,22.6c0-1.7-1.3-3-3-3s-3,1.3-3,3c0,1.7,1.3,3,3,3S184.3,24.2,184.3,22.6 M211.4,99.1
		c0-1.7-1.3-3-3-3s-3,1.3-3,3c0,1.7,1.3,3,3,3S211.4,100.7,211.4,99.1 M238.6,152.6c0-1.7-1.3-3-3-3c-1.7,0-3,1.3-3,3
		c0,1.7,1.3,3,3,3C237.3,155.6,238.6,154.3,238.6,152.6 M265.7,22.6c0-1.7-1.3-3-3-3c-1.7,0-3,1.3-3,3c0,1.7,1.3,3,3,3
		C264.4,25.6,265.7,24.2,265.7,22.6 M292.9,99.1c0-1.7-1.3-3-3-3c-1.7,0-3,1.3-3,3c0,1.7,1.3,3,3,3
		C291.6,102.1,292.9,100.7,292.9,99.1 M320,152.6c0-1.7-1.3-3-3-3c-1.7,0-3,1.3-3,3c0,1.7,1.3,3,3,3
		C318.7,155.6,320,154.3,320,152.6"/>
	<path class="st9" d="M18.4,277.6v-255 M45.5,277.6V99.1 M72.7,277.6V152.6 M99.8,277.6v-255 M127,277.6V99.1 M154.1,277.6V152.6
		 M181.3,277.6v-255 M208.4,277.6V99.1 M235.6,277.6V152.6 M262.7,277.6v-255 M289.9,277.6V99.1 M317,277.6V152.6"/>
	<path class="st1" d="M18.4,277.6h325.8 M18.4,22.6h325.8 M18.4,277.6v-3.3 M45.5,277.6v-3.3 M72.7,277.6v-3.3 M99.8,277.6v-3.3
		 M127,277.6v-3.3 M154.1,277.6v-3.3 M181.3,277.6v-3.3 M208.4,277.6v-3.3 M235.6,277.6v-3.3 M262.7,277.6v-3.3 M289.9,277.6v-3.3
		 M317,277.6v-3.3 M18.4,22.6v3.3 M45.5,22.6v3.3 M72.7,22.6v3.3 M99.8,22.6v3.3 M127,22.6v3.3 M154.1,22.6v3.3 M181.3,22.6v3.3
		 M208.4,22.6v3.3 M235.6,22.6v3.3 M262.7,22.6v3.3 M289.9,22.6v3.3 M317,22.6v3.3"/>
	<g>
		<path class="st2" d="M16.4,291c-0.4-0.6-0.6-1.5-0.6-2.7s0.2-2,0.6-2.7c0.4-0.6,1-0.9,1.8-0.9c0.8,0,1.4,0.3,1.8,0.9
			c0.4,0.6,0.6,1.5,0.6,2.7s-0.2,2-0.6,2.7s-1,0.9-1.8,0.9C17.4,292,16.8,291.6,16.4,291z M19.3,290.5c0.2-0.5,0.4-1.2,0.4-2.1
			c0-0.9-0.1-1.6-0.4-2.1c-0.2-0.5-0.6-0.7-1.1-0.7c-0.5,0-0.9,0.2-1.1,0.7c-0.2,0.5-0.4,1.2-0.4,2.1c0,0.9,0.1,1.6,0.4,2.1
			s0.6,0.7,1.1,0.7C18.7,291.2,19,290.9,19.3,290.5z"/>
		<path class="st2" d="M45.8,286.8h-1.6v-0.7c0.5,0,0.9-0.1,1.2-0.3c0.3-0.2,0.5-0.6,0.7-1h0.7v7h-0.5h-0.5V286.8z"/>
		<path class="st2" d="M75.9,286.8c0,0.5-0.1,0.9-0.4,1.3c-0.3,0.3-0.8,0.7-1.5,1.1c-0.8,0.4-1.3,0.8-1.6,1.2
			c-0.1,0.2-0.2,0.3-0.3,0.5h3.8v0.9h-4.8v0c0-0.7,0.2-1.3,0.6-1.8c0.4-0.5,1.1-1,2.1-1.5c0.5-0.3,0.8-0.5,1-0.8
			c0.2-0.2,0.3-0.5,0.3-0.9c0-0.4-0.1-0.7-0.4-0.9c-0.3-0.2-0.6-0.4-1-0.4c-0.4,0-0.8,0.1-1,0.4s-0.4,0.7-0.4,1.3h-0.9
			c0-0.8,0.2-1.4,0.6-1.8c0.4-0.4,1-0.7,1.8-0.7c0.7,0,1.2,0.2,1.6,0.6C75.7,285.7,75.9,286.2,75.9,286.8z"/>
		<path class="st2" d="M102.6,286.6c0-0.3-0.1-0.6-0.4-0.8c-0.3-0.2-0.6-0.3-1-0.3c-0.4,0-0.7,0.1-1,0.4c-0.2,0.3-0.3,0.6-0.4,1.1
			h-0.9c0-0.7,0.2-1.3,0.6-1.7c0.4-0.4,0.9-0.6,1.6-0.6c0.7,0,1.2,0.2,1.6,0.5c0.4,0.3,0.6,0.8,0.6,1.3c0,0.5-0.2,1-0.6,1.3
			c-0.1,0.1-0.2,0.1-0.3,0.2c0.2,0.1,0.3,0.2,0.4,0.3c0.4,0.3,0.7,0.8,0.7,1.4c0,0.7-0.2,1.2-0.7,1.6c-0.5,0.4-1,0.6-1.8,0.6
			c-0.8,0-1.4-0.2-1.8-0.6c-0.4-0.4-0.6-1-0.7-1.7h0.9c0.1,0.5,0.2,0.9,0.4,1.2c0.2,0.2,0.6,0.4,1.1,0.4c0.4,0,0.8-0.1,1.1-0.4
			c0.3-0.2,0.4-0.6,0.4-1c0-0.4-0.1-0.7-0.4-1c-0.2-0.2-0.5-0.3-0.9-0.4c-0.2,0-0.3,0-0.5,0s-0.2,0-0.3,0v-0.8c0.1,0,0.2,0,0.3,0
			s0.3,0,0.4,0c0.3,0,0.5-0.1,0.7-0.3C102.5,287.3,102.6,287,102.6,286.6z"/>
		<path class="st2" d="M126.5,290.1v-0.4v-0.4l3.3-4.5h0.4h0.4v4.6h1v0.8h-1v1.7h-0.9v-1.7H126.5z M129.6,289.3v-3.2l-2.2,3.1l0,0.1
			H129.6z"/>
		<path class="st2" d="M159.1,289.5c0,0.7-0.2,1.3-0.7,1.8c-0.5,0.5-1,0.7-1.7,0.7c-0.7,0-1.3-0.2-1.7-0.5s-0.7-0.8-0.7-1.5h0.9
			c0,0.4,0.2,0.7,0.5,0.9c0.3,0.2,0.6,0.3,1.1,0.3c0.4,0,0.8-0.1,1-0.4s0.4-0.7,0.4-1.1c0-0.5-0.1-0.9-0.4-1.2s-0.7-0.4-1.1-0.4
			c-0.3,0-0.5,0.1-0.7,0.2s-0.4,0.3-0.5,0.5l-0.7,0l0.5-3.8h3.6v0.9h-3l-0.3,1.9l0,0c0.4-0.3,0.8-0.4,1.2-0.4c0.7,0,1.3,0.2,1.8,0.6
			C158.9,288.3,159.1,288.8,159.1,289.5z"/>
		<path class="st2" d="M184.6,284.7c0.6,0,1.1,0.2,1.5,0.5c0.4,0.3,0.6,0.8,0.6,1.4h-0.9c0-0.3-0.2-0.6-0.4-0.8s-0.5-0.3-0.8-0.3
			c-0.5,0-1,0.3-1.3,0.8c-0.3,0.4-0.4,1.1-0.4,1.8c0.4-0.6,1-0.8,1.7-0.8c0.7,0,1.2,0.2,1.6,0.6c0.4,0.4,0.6,1,0.6,1.7
			s-0.2,1.3-0.7,1.7c-0.4,0.4-1,0.6-1.7,0.6c-0.8,0-1.4-0.3-1.8-0.9c-0.4-0.6-0.6-1.4-0.6-2.5c0-1.2,0.2-2.2,0.7-2.8
			C183.2,285.1,183.8,284.7,184.6,284.7z M183.1,289.6c0,0.5,0.1,0.8,0.4,1.1c0.3,0.3,0.6,0.4,1,0.4s0.8-0.1,1-0.4
			c0.3-0.3,0.4-0.7,0.4-1.1s-0.1-0.8-0.4-1.1c-0.3-0.3-0.6-0.4-1-0.4s-0.8,0.1-1,0.4C183.2,288.8,183.1,289.2,183.1,289.6z"/>
		<path class="st2" d="M210.8,291.8c0.2-1.2,0.6-2.3,1.1-3.3c0.5-1,1.1-1.9,1.8-2.8h-3.9v-0.9h4.9v0.4v0.4c-0.8,0.9-1.4,1.9-1.9,2.9
			c-0.5,1-0.8,2.1-1,3.3H210.8z"/>
		<path class="st2" d="M241.1,288c0.2,0.1,0.4,0.2,0.5,0.3c0.4,0.4,0.7,0.8,0.7,1.4c0,0.7-0.2,1.2-0.7,1.6s-1,0.6-1.7,0.6
			s-1.3-0.2-1.7-0.6c-0.4-0.4-0.7-0.9-0.7-1.6c0-0.6,0.2-1.1,0.7-1.4c0.2-0.1,0.3-0.2,0.5-0.3c-0.1-0.1-0.2-0.1-0.3-0.2
			c-0.4-0.3-0.6-0.7-0.6-1.2c0-0.6,0.2-1,0.6-1.4s0.9-0.5,1.6-0.5s1.2,0.2,1.6,0.5s0.6,0.8,0.6,1.4c0,0.5-0.2,0.9-0.6,1.2
			C241.3,287.9,241.2,288,241.1,288z M239.9,288.4c-0.4,0-0.8,0.1-1.1,0.4c-0.3,0.3-0.4,0.6-0.4,1c0,0.4,0.1,0.7,0.4,1
			c0.3,0.3,0.6,0.4,1.1,0.4s0.8-0.1,1.1-0.4s0.4-0.6,0.4-1c0-0.4-0.1-0.7-0.4-1C240.6,288.6,240.3,288.4,239.9,288.4z M239.9,287.7
			c0.4,0,0.7-0.1,0.9-0.3s0.3-0.5,0.3-0.8s-0.1-0.6-0.3-0.8s-0.5-0.3-0.9-0.3s-0.7,0.1-0.9,0.3s-0.3,0.5-0.3,0.8s0.1,0.6,0.3,0.8
			C239.2,287.6,239.5,287.7,239.9,287.7z"/>
	</g>
	<g>
		<path class="st2" d="M262.3,292c-0.6,0-1.1-0.2-1.5-0.5c-0.4-0.3-0.6-0.8-0.6-1.4h0.8c0,0.4,0.2,0.6,0.4,0.8
			c0.2,0.2,0.5,0.3,0.9,0.3c0.5,0,0.9-0.3,1.2-0.9c0.2-0.4,0.3-1,0.4-1.7c-0.4,0.5-1,0.8-1.6,0.8c-0.7,0-1.2-0.2-1.6-0.6
			c-0.4-0.4-0.6-1-0.6-1.7s0.2-1.3,0.6-1.7s1-0.6,1.7-0.6c0.8,0,1.3,0.3,1.7,0.8c0.4,0.5,0.6,1.3,0.6,2.3c0,1.3-0.2,2.3-0.7,3.1
			S263.2,292,262.3,292z M263.9,287.1c0-0.5-0.1-0.8-0.4-1.1s-0.6-0.4-1-0.4s-0.7,0.1-1,0.4s-0.4,0.7-0.4,1.1s0.1,0.8,0.4,1.1
			s0.6,0.4,1,0.4s0.7-0.1,1-0.4C263.7,287.9,263.9,287.5,263.9,287.1z"/>
		<path class="st2" d="M287.4,286.8h-1.6v-0.7c0.5,0,0.9-0.1,1.2-0.3c0.3-0.2,0.5-0.6,0.7-1h0.7v7h-0.5h-0.5V286.8z"/>
	</g>
	<g>
		<path class="st2" d="M290.2,291c-0.4-0.6-0.6-1.5-0.6-2.7s0.2-2,0.6-2.7c0.4-0.6,1-0.9,1.8-0.9c0.8,0,1.4,0.3,1.8,0.9
			c0.4,0.6,0.6,1.5,0.6,2.7s-0.2,2-0.6,2.7s-1,0.9-1.8,0.9C291.2,292,290.6,291.6,290.2,291z M293.1,290.5c0.2-0.5,0.4-1.2,0.4-2.1
			c0-0.9-0.1-1.6-0.4-2.1c-0.2-0.5-0.6-0.7-1.1-0.7c-0.5,0-0.9,0.2-1.1,0.7c-0.2,0.5-0.4,1.2-0.4,2.1c0,0.9,0.1,1.6,0.4,2.1
			s0.6,0.7,1.1,0.7C292.5,291.2,292.8,290.9,293.1,290.5z"/>
		<path class="st2" d="M314.6,286.8h-1.6v-0.7c0.5,0,0.9-0.1,1.2-0.3c0.3-0.2,0.5-0.6,0.7-1h0.7v7H315h-0.5V286.8z"/>
	</g>
	<g>
		<path class="st2" d="M319,286.8h-1.6v-0.7c0.5,0,0.9-0.1,1.2-0.3c0.3-0.2,0.5-0.6,0.7-1h0.7v7h-0.5H319V286.8z"/>
	</g>
	<path class="st10" d="M170.4,303.9c-0.1,0-0.1,0-0.1-0.1c0,0-0.1-0.1-0.1-0.1c0-0.1,0-0.1,0.1-0.1c0,0,0.1-0.1,0.1-0.1h8.2
		c-0.3-0.2-0.5-0.4-0.7-0.7s-0.4-0.5-0.5-0.8c-0.1-0.3-0.2-0.6-0.3-1c0-0.1,0-0.1,0.1-0.1h0.2c0,0,0,0,0.1,0c0,0,0,0,0,0.1
		c0.1,0.3,0.2,0.6,0.3,0.9c0.1,0.3,0.3,0.5,0.5,0.7c0.2,0.2,0.4,0.4,0.6,0.6c0.2,0.2,0.5,0.3,0.8,0.4c0,0,0.1,0.1,0.1,0.1
		c0,0.1,0,0.1-0.1,0.1c-0.4,0.1-0.7,0.3-1,0.6c-0.3,0.3-0.6,0.6-0.8,0.9c-0.2,0.4-0.3,0.7-0.4,1.1c0,0,0,0,0,0.1c0,0,0,0-0.1,0h-0.2
		c-0.1,0-0.1,0-0.1-0.1c0.1-0.5,0.3-1,0.5-1.4c0.3-0.4,0.6-0.8,1-1.1H170.4L170.4,303.9z"/>
	<g>
		<path class="st2" d="M187.8,300.6h0.5h0.5v0.8l0.2-0.3c0.4-0.5,0.9-0.7,1.6-0.7c0.6,0,1.1,0.2,1.5,0.5s0.5,0.8,0.5,1.5v3.9H192
			h-0.5v-3.6c0-0.5-0.1-0.9-0.3-1.1s-0.5-0.3-0.9-0.3c-0.5,0-0.8,0.2-1.1,0.5c-0.3,0.4-0.4,0.8-0.4,1.4v3.1h-0.5h-0.5V300.6z"/>
	</g>
</g>
</svg>
