<?xml version="1.0" encoding="utf-8"?>
<!-- Generator: Adobe Illustrator 22.1.0, SVG Export Plug-In . SVG Version: 6.00 Build 0)  -->
<svg version="1.1" id="Layer_1" xmlns="http://www.w3.org/2000/svg" xmlns:xlink="http://www.w3.org/1999/xlink" x="0px" y="0px"
	 viewBox="0 0 441.7 229.9" style="enable-background:new 0 0 441.7 229.9;" xml:space="preserve">
<style type="text/css">
	.st0{fill:#1D1D1B;}
	.st1{fill:#0000FF;}
	.st2{fill:none;stroke:#0000FF;stroke-width:1.7008;stroke-miterlimit:10;}
	.st3{fill:none;stroke:#000000;stroke-width:0.8504;stroke-miterlimit:10;}
	.st4{fill:#FF0000;}
	.st5{fill:none;stroke:#FF0000;stroke-width:1.7008;stroke-miterlimit:10;}
	.st6{fill:none;stroke:#000000;stroke-width:0.8504;stroke-linecap:round;stroke-miterlimit:10;stroke-dasharray:0,3.1181;}
	.st7{fill:none;stroke:#0000FF;stroke-width:1.7008;stroke-miterlimit:10;stroke-dasharray:2.8346,2.8346;stroke-dashoffset:1;}
	.st8{fill:none;stroke:#FF0000;stroke-width:1.7008;stroke-linecap:round;stroke-miterlimit:10;stroke-dasharray:0,4.5631;}
	.st9{fill:none;stroke:#000000;stroke-width:2.5511;stroke-miterlimit:10;}
</style>
<g>
	<g>
		<path class="st0" d="M43,8.7c0,0.1,0,0.2,0,0.2C43,9,43,9,43.3,9h0.8c1.6,0,2-1.2,2.3-2c0.1-0.2,0.1-0.2,0.2-0.2
			c0,0,0.1,0,0.1,0.1c0,0,0,0.1,0,0.1L46,9.2c-0.1,0.2-0.1,0.2-0.3,0.2h-4.3c-0.2,0-0.2,0-0.2-0.1C41.2,9,41.3,9,41.4,9
			c0.7,0,0.7-0.1,0.8-0.4l1.3-5.4c0-0.1,0-0.2,0-0.2c0-0.2-0.3-0.2-0.6-0.2c-0.2,0-0.3,0-0.3-0.1c0-0.2,0.1-0.2,0.2-0.2
			c0.4,0,0.8,0,1.2,0c0.5,0,0.9,0,1.4,0c0,0,0.1,0,0.1,0.1c0,0.2-0.1,0.2-0.3,0.2h-0.1c-0.8,0-0.9,0.1-1,0.4L43,8.7z"/>
		<path class="st0" d="M48.9,9.5c-0.5,0-0.8-0.4-0.8-0.8c0-0.2,0-0.3,0.2-0.7c0.1-0.3,0.2-0.7,0.4-1l0.3-0.8C49,6,49.1,5.7,49.1,5.4
			c0-0.2-0.1-0.3-0.2-0.3c-0.6,0-0.8,0.9-0.9,1.3c0,0.1,0,0.2-0.2,0.2c0,0-0.1,0-0.1-0.1c0,0,0.3-1.5,1.3-1.5c0.4,0,0.7,0.2,0.7,0.8
			c0,0.2,0,0.3-0.1,0.6L48.9,8c-0.1,0.4-0.3,0.7-0.3,1c0,0.3,0.1,0.3,0.2,0.3c0.6,0,0.8-1,0.9-1.2c0-0.1,0-0.2,0.2-0.2
			c0.1,0,0.1,0,0.1,0.1C50.1,8,49.8,9.5,48.9,9.5z M49.6,3.6c-0.1,0-0.3-0.1-0.3-0.3c0-0.3,0.3-0.5,0.5-0.5c0.1,0,0.3,0.1,0.3,0.3
			C50.1,3.4,49.8,3.6,49.6,3.6z"/>
		<path class="st0" d="M51.8,9.2c-0.1,0.2-0.2,0.3-0.4,0.3c-0.2,0-0.3-0.1-0.3-0.3c0,0,0-0.1,0-0.1l0.7-3C52,5.9,52,5.7,52,5.6
			c0-0.1,0-0.4-0.3-0.4c-0.3,0-0.5,0.5-0.7,1.2c0,0.2-0.1,0.2-0.2,0.2c0,0-0.1,0-0.1-0.1c0,0,0.1-0.6,0.3-1c0.2-0.3,0.4-0.5,0.7-0.5
			c0.4,0,0.8,0.3,0.8,0.8c0.1-0.2,0.6-0.8,1.4-0.8c0.5,0,1,0.2,1,1c0,0.6-0.4,1.7-0.6,2.2c-0.1,0.2-0.2,0.5-0.2,0.7
			c0,0.1,0,0.3,0.2,0.3c0.6,0,0.8-1,0.9-1.2c0-0.1,0-0.2,0.2-0.2c0.1,0,0.1,0,0.1,0.1c0,0-0.3,1.5-1.3,1.5c-0.5,0-0.8-0.4-0.8-0.8
			c0-0.2,0-0.3,0.2-0.6c0.1-0.4,0.6-1.6,0.6-2.2c0-0.2,0-0.7-0.5-0.7c-0.8,0-1.2,0.7-1.3,1c-0.2,0.3-0.2,0.3-0.3,0.8
			c0,0.2-0.1,0.4-0.2,0.6L51.8,9.2z"/>
		<path class="st0" d="M57.5,7c-0.1,0.3-0.2,0.7-0.2,1.1c0,0.4,0.1,1.1,0.8,1.1c0.2,0,1.1,0,1.8-1C60,8.2,60,8.1,60,8.1
			c0.1,0,0.2,0.1,0.2,0.2c0,0.1-0.8,1.1-2.1,1.1c-0.9,0-1.4-0.8-1.4-1.7c0-1.8,1.4-2.8,2.5-2.8c0.6,0,1,0.4,1,0.8c0,0.1,0,0.7-0.8,1
			C58.9,7,58.2,7,57.9,7H57.5z M57.8,6.8c0.3,0,2,0,2-1.1c0-0.3-0.2-0.6-0.6-0.6c-0.1,0-1.1,0-1.6,1.7H57.8z"/>
	</g>
	<g>
		<path class="st0" d="M61.8,9.5c-0.7,0-1.2-0.7-1.2-1.5c0-1.5,1.2-3,2.3-3c0.3,0,0.6,0.2,0.8,0.6c0,0,0.1-0.4,0.4-0.4
			c0.1,0,0.3,0,0.3,0.3c0,0,0,0.1,0,0.2l-0.7,2.7c-0.1,0.3-0.1,0.4-0.1,0.5c0,0.1,0,0.4,0.3,0.4c0.3,0,0.5-0.6,0.7-1.2
			c0.1-0.2,0.1-0.2,0.2-0.2c0.1,0,0.1,0,0.1,0.1c0,0-0.1,0.6-0.3,1c-0.1,0.3-0.4,0.6-0.7,0.6c-0.3,0-0.7-0.2-0.8-0.7
			C62.6,9.2,62.2,9.5,61.8,9.5z M63.6,6.1c0-0.4-0.2-0.9-0.7-0.9c-0.4,0-0.9,0.5-1.1,1.1c-0.2,0.4-0.5,1.6-0.5,2.1
			c0,0.3,0.1,0.9,0.5,0.9c0.5,0,1.2-0.8,1.2-1.1l0.5-1.9C63.6,6.2,63.6,6.1,63.6,6.1z"/>
		<path class="st0" d="M66.5,9.1c0,0.1-0.1,0.4-0.4,0.4c-0.2,0-0.3-0.1-0.3-0.3c0,0,0-0.1,0-0.1l0.7-3c0-0.2,0.1-0.3,0.1-0.5
			c0-0.1,0-0.4-0.3-0.4c-0.3,0-0.5,0.5-0.7,1.2c0,0.2-0.1,0.2-0.2,0.2c0,0-0.1,0-0.1-0.1c0,0,0.1-0.6,0.3-1c0.2-0.3,0.4-0.5,0.7-0.5
			c0.3,0,0.7,0.2,0.8,0.7c0.2-0.2,0.5-0.7,1.2-0.7c0.3,0,1,0.1,1,0.6c0,0.4-0.3,0.5-0.5,0.5c-0.3,0-0.3-0.2-0.3-0.3
			c0,0,0-0.4,0.4-0.5c-0.2-0.1-0.5-0.1-0.5-0.1c-0.9,0-1.3,1.3-1.3,1.3L66.5,9.1z"/>
	</g>
	<polyline points="40.6,10.9 68.9,10.9 68.9,10.4 40.6,10.4 	"/>
	<g>
		<path class="st1" d="M58.3,141.2l1.1-0.8c0.2-0.2,0.3-0.2,0.3-0.2c0.1,0,0.3,0.1,0.3,0.3s-0.1,0.2-0.2,0.3l-1.4,0.7
			c0.8,0.4,0.8,0.4,1.4,0.7c0.1,0.1,0.2,0.1,0.2,0.3c0,0.1-0.1,0.3-0.3,0.3c-0.1,0-0.1,0-0.2-0.1l-1.3-0.9l0.1,1.7
			c0,0.2-0.1,0.3-0.3,0.3c-0.1,0-0.3,0-0.3-0.3l0.1-1.7l-1.1,0.8c-0.2,0.2-0.3,0.2-0.3,0.2c-0.1,0-0.3-0.1-0.3-0.3s0.1-0.2,0.2-0.3
			l1.4-0.7l-1.4-0.7c-0.1,0-0.2-0.1-0.2-0.2c0-0.1,0.1-0.3,0.3-0.3c0.1,0,0.1,0,0.2,0.1l1.3,0.9l-0.1-1.5v-0.1
			c0-0.1,0.1-0.3,0.3-0.3c0.3,0,0.3,0.2,0.2,0.4L58.3,141.2z"/>
	</g>
	<polygon class="st2" points="51.1,141.6 51.1,148.7 65.3,148.7 65.3,134.5 51.1,134.5 	"/>
	<polyline points="55.9,130 58.2,134.5 60.4,130 58.2,131.1 	"/>
	<line class="st3" x1="58.2" y1="120.4" x2="58.2" y2="131.1"/>
	<polyline points="46.5,143.9 51.1,141.6 46.5,139.4 47.7,141.6 	"/>
	<line class="st3" x1="36.9" y1="141.6" x2="47.7" y2="141.6"/>
	<polyline points="55.9,158.3 58.2,162.9 60.4,158.3 58.2,159.5 	"/>
	<line class="st3" x1="58.2" y1="148.7" x2="58.2" y2="159.5"/>
	<g>
		<path class="st0" d="M2.1,119.2c0.4-0.5,0.8-0.8,1.5-0.8c0.7,0,1.1,0.4,1.1,1.1c0,0.6-0.4,1.8-0.6,2.2c-0.1,0.2-0.2,0.5-0.2,0.7
			c0,0.2,0.1,0.3,0.2,0.3c0.5,0,0.9-0.7,1-1.2c0-0.1,0-0.2,0.1-0.2c0,0,0.1,0,0.1,0.1c0,0.1-0.4,1.5-1.3,1.5c-0.5,0-0.8-0.3-0.8-0.8
			c0-0.2,0-0.3,0.1-0.5c0.2-0.6,0.6-1.7,0.6-2.2c0-0.4-0.1-0.7-0.5-0.7c-0.4,0-0.7,0.2-1,0.3c-0.3,0.3-0.6,0.8-0.7,0.9
			c0,0.1-0.1,0.4-0.1,0.4c0,0.2-0.1,0.4-0.2,0.7L1.4,122l-0.2,0.8c0,0.1-0.2,0.3-0.4,0.3c-0.1,0-0.3,0-0.3-0.3c0-0.1,0-0.1,0-0.2
			l1.4-5.7l0-0.2c0-0.1,0-0.2-0.5-0.2c-0.1,0-0.2,0-0.2-0.1c0-0.2,0.1-0.2,0.2-0.2c0.3,0,1-0.1,1.2-0.1c0.1,0,0.1,0.1,0.1,0.1
			L2.1,119.2z"/>
	</g>
	<g>
		<path class="st0" d="M6.9,125.4v-10h1.4v0.4h-1v9.2h1v0.4H6.9z"/>
	</g>
	<g>
		<path class="st0" d="M10,120c0.1-0.5,0.2-0.6,0.2-0.8c0-0.3-0.1-0.5-0.3-0.5c-0.4,0-0.6,0.5-0.7,1.2c-0.1,0.2-0.1,0.2-0.2,0.2
			c0,0-0.1,0-0.1-0.1c0,0,0.1-0.6,0.3-1c0.1-0.2,0.3-0.6,0.7-0.6c0.5,0,0.9,0.3,0.9,0.9c0.2-0.2,0.7-0.9,1.6-0.9
			c0.7,0,1.1,0.4,1.1,1.1c0,0.6-0.4,1.7-0.6,2.2c-0.1,0.2-0.2,0.5-0.2,0.7c0,0.2,0.1,0.3,0.2,0.3c0.5,0,0.8-0.6,1-1.2
			c0-0.1,0-0.2,0.1-0.2c0,0,0.1,0,0.1,0.1c0,0.1-0.4,1.5-1.3,1.5c-0.5,0-0.8-0.3-0.8-0.8c0-0.1,0-0.2,0.1-0.5
			c0.2-0.4,0.6-1.7,0.6-2.3c0-0.3-0.1-0.7-0.5-0.7c-0.9,0-1.5,0.9-1.6,1.2c0,0-0.1,0.3-0.1,0.5c0,0.2-0.1,0.4-0.2,0.7l-0.2,0.9
			c-0.1,0.2-0.2,0.7-0.2,0.7c-0.1,0.2-0.2,0.3-0.4,0.3c-0.1,0-0.3-0.1-0.3-0.3c0,0,0.1-0.3,0.1-0.4L10,120z"/>
	</g>
	<g>
		<path class="st0" d="M16.1,125.4h-1.4V125h1v-9.2h-1v-0.4h1.4V125.4z"/>
	</g>
	<path class="st3" d="M8.6,134.5h14.2 M22.7,134.5v7.1"/>
	<polyline points="10.8,132 8.6,127.4 6.3,132 8.6,130.8 	"/>
	<line class="st3" x1="8.6" y1="145.2" x2="8.6" y2="130.8"/>
	<polyline points="25.3,143.9 29.8,141.6 25.3,139.4 26.4,141.6 	"/>
	<line class="st3" x1="5" y1="141.6" x2="26.4" y2="141.6"/>
	<g>
		<path class="st0" d="M15.6,151.1c0,0.2,0,0.2-0.2,0.2c-0.1,0-0.1,0-0.2-0.2l-2.5-5.9c0-0.1,0-0.1-0.1-0.2l-1.3,5.3
			c0,0.1,0,0.2,0,0.2c0,0.2,0.1,0.4,0.7,0.4c0.1,0,0.2,0,0.2,0.1c0,0.2-0.1,0.2-0.2,0.2c-0.3,0-0.7,0-1,0c-0.3,0-0.7,0-1,0
			c-0.1,0-0.1,0-0.1-0.1c0-0.2,0.1-0.2,0.2-0.2c0.8,0,1-0.3,1.1-0.7l1.3-5.4c0-0.1-0.6-0.1-0.7-0.1c-0.2,0-0.3,0-0.3-0.1
			c0-0.2,0.1-0.2,0.3-0.2h1.3c0.2,0,0.2,0,0.3,0.2l2.2,5.2l1.1-4.4c0,0,0-0.2,0-0.2c0-0.2-0.1-0.4-0.7-0.4c-0.1,0-0.2,0-0.2-0.1
			c0-0.2,0.1-0.2,0.2-0.2c0.3,0,0.7,0,1,0c0.3,0,0.7,0,1,0c0.1,0,0.1,0.1,0.1,0.1c0,0.2-0.1,0.2-0.2,0.2c-0.8,0-1,0.3-1.1,0.7
			L15.6,151.1z"/>
	</g>
	<g>
		<path class="st0" d="M20.8,152.7H18c0-0.2,0-0.2,0.1-0.3l1.7-1.7c0.2-0.3,0.7-0.7,0.7-1.3c0-0.6-0.4-1.1-1.1-1.1
			c-0.3,0-0.8,0.2-1,0.6c0.4,0,0.4,0.2,0.4,0.4c0,0.3-0.2,0.4-0.4,0.4c-0.1,0-0.4,0-0.4-0.4c0-0.6,0.6-1.2,1.5-1.2
			c0.9,0,1.6,0.5,1.6,1.4c0,0.7-0.5,1.1-1,1.5c-0.4,0.3-0.7,0.5-1.4,1.2h1.3c0.1,0,0.6,0,0.7,0c0.1-0.1,0.2-0.5,0.2-0.6H21
			L20.8,152.7z"/>
	</g>
	<g>
		<path class="st0" d="M45.5,82.2c-0.1,0.4-0.2,0.7-0.2,0.9c0,0.3,0.2,0.7,0.5,0.7c0.3,0,1-0.2,1.3-1.3c0-0.1,0-0.1,0.1-0.1
			c0,0,0.1,0,0.1,0.1c0,0.2-0.6,1.5-1.6,1.5c-0.6,0-1-0.4-1.1-0.8c0,0.1-0.4,0.8-1,0.8c-0.4,0-0.9-0.2-0.9-0.7
			c0-0.3,0.2-0.6,0.5-0.6c0.1,0,0.4,0.1,0.4,0.3c0,0.3-0.2,0.5-0.5,0.5c0.2,0.1,0.4,0.1,0.5,0.1c0.4,0,0.8-0.4,0.9-1
			c0.4-1.4,0.5-2.1,0.5-2.4c0-0.6-0.3-0.7-0.5-0.7c-0.3,0-1,0.2-1.3,1.3c0,0.1-0.1,0.1-0.1,0.1c0,0-0.1,0-0.1-0.1
			c0-0.2,0.6-1.5,1.6-1.5c0.3,0,0.8,0.1,1.1,0.8c0.1-0.2,0.5-0.8,1-0.8c0.3,0,0.9,0.1,0.9,0.7c0,0.4-0.3,0.6-0.5,0.6
			c-0.3,0-0.4-0.2-0.4-0.3c0-0.2,0.2-0.5,0.5-0.5c-0.2-0.1-0.4-0.1-0.5-0.1c-0.7,0-0.9,0.9-1,1.2L45.5,82.2z"/>
	</g>
	<g>
		<path class="st0" d="M49.3,86.4v-10h1.4v0.4h-1V86h1v0.4H49.3z"/>
	</g>
	<g>
		<path class="st0" d="M52.3,81c0.1-0.5,0.2-0.6,0.2-0.8c0-0.3-0.1-0.5-0.3-0.5c-0.4,0-0.6,0.5-0.7,1.2c-0.1,0.2-0.1,0.2-0.2,0.2
			c0,0-0.1,0-0.1-0.1c0,0,0.1-0.6,0.3-1c0.1-0.2,0.3-0.6,0.7-0.6c0.5,0,0.9,0.3,0.9,0.9c0.2-0.2,0.7-0.9,1.6-0.9
			c0.7,0,1.1,0.4,1.1,1.1c0,0.6-0.4,1.7-0.6,2.2c-0.1,0.2-0.2,0.5-0.2,0.7c0,0.2,0.1,0.3,0.2,0.3c0.5,0,0.8-0.6,1-1.2
			c0-0.1,0-0.2,0.1-0.2c0,0,0.1,0,0.1,0.1c0,0.1-0.4,1.5-1.3,1.5c-0.5,0-0.8-0.3-0.8-0.8c0-0.1,0-0.2,0.1-0.5
			c0.2-0.4,0.6-1.7,0.6-2.3c0-0.3-0.1-0.7-0.5-0.7c-0.9,0-1.5,0.9-1.6,1.2c0,0-0.1,0.3-0.1,0.5c0,0.2-0.1,0.4-0.2,0.7L52.5,83
			c-0.1,0.2-0.2,0.7-0.2,0.7C52.3,83.9,52.1,84,52,84c-0.1,0-0.3-0.1-0.3-0.3c0-0.1,0.1-0.3,0.1-0.4L52.3,81z"/>
	</g>
	<g>
		<path class="st0" d="M58.5,86.4h-1.4V86h1v-9.2h-1v-0.4h1.4V86.4z"/>
	</g>
	<path class="st3" d="M51.1,95.6h21.3 M72.3,95.6v7.1"/>
	<polyline points="53.4,93 51.1,88.5 48.8,93 51.1,91.9 	"/>
	<line class="st3" x1="51.1" y1="106.2" x2="51.1" y2="91.9"/>
	<polyline points="74.9,104.9 79.4,102.6 74.9,100.4 76,102.6 	"/>
	<line class="st3" x1="47.5" y1="102.6" x2="76" y2="102.6"/>
	<g>
		<path class="st0" d="M61.6,112.2c0,0.2,0,0.2-0.2,0.2c-0.1,0-0.1,0-0.2-0.2l-2.5-5.9c0-0.1,0-0.1-0.1-0.2l-1.3,5.3
			c0,0.1,0,0.2,0,0.2c0,0.2,0.1,0.4,0.7,0.4c0.1,0,0.2,0,0.2,0.1c0,0.2-0.1,0.2-0.2,0.2c-0.3,0-0.7,0-1,0c-0.3,0-0.7,0-1,0
			c-0.1,0-0.1,0-0.1-0.1c0-0.2,0.1-0.2,0.2-0.2c0.8,0,1-0.3,1.1-0.7l1.3-5.4c0-0.1-0.6-0.1-0.7-0.1c-0.2,0-0.3,0-0.3-0.1
			c0-0.2,0.1-0.2,0.3-0.2h1.3c0.2,0,0.2,0,0.3,0.2l2.2,5.2l1.1-4.4c0,0,0-0.2,0-0.2c0-0.2-0.1-0.4-0.7-0.4c-0.1,0-0.2,0-0.2-0.1
			c0-0.2,0.1-0.2,0.2-0.2c0.3,0,0.7,0,1,0c0.3,0,0.7,0,1,0c0.1,0,0.1,0.1,0.1,0.1c0,0.2-0.1,0.2-0.2,0.2c-0.8,0-1,0.3-1.1,0.7
			L61.6,112.2z"/>
	</g>
	<g>
		<path class="st0" d="M65.8,113.3c0,0.2,0,0.3,0.7,0.3h0.3v0.3c-0.2,0-1,0-1.2,0c-0.3,0-1.1,0-1.2,0v-0.3h0.3
			c0.7,0,0.7-0.1,0.7-0.3v-3.6c-0.4,0.2-0.8,0.2-1,0.2v-0.3c0.3,0,0.9,0,1.4-0.4c0.2,0,0.2,0,0.2,0.2V113.3z"/>
	</g>
	<g>
		<path class="st0" d="M39.5,172.4c-0.3,1.1-1.3,2-2.3,2c-0.6,0-1.1-0.4-1.1-0.9c0-0.5,0.3-0.6,0.6-0.6c0.1,0,0.4,0,0.4,0.3
			c0,0.2-0.1,0.3-0.2,0.4c-0.1,0.1-0.3,0.1-0.4,0.1c0.2,0.4,0.6,0.4,0.8,0.4c0.5,0,0.8-0.3,1.1-0.6c0.4-0.5,0.5-1,0.6-1.5
			c-0.3,0.3-0.6,0.4-1,0.4c-0.6,0-1.2-0.3-1.2-1.2c0-0.5,0.2-1,0.6-2.1c0.1-0.2,0.2-0.4,0.2-0.7c0-0.3-0.2-0.3-0.2-0.3
			c-0.3,0-0.7,0.3-1,1.2c0,0.2-0.1,0.2-0.2,0.2c0,0-0.1,0-0.1-0.1c0-0.1,0.4-1.5,1.3-1.5c0.5,0,0.8,0.4,0.8,0.8c0,0.2,0,0.3-0.2,0.7
			c-0.3,0.9-0.5,1.5-0.5,2c0,0.4,0.1,0.8,0.6,0.8c0.7,0,1.1-0.7,1.1-0.8l0.4-1.8c0.1-0.3,0.1-0.5,0.2-0.8c0-0.2,0.1-0.5,0.1-0.5
			c0.1-0.1,0.2-0.2,0.3-0.2c0.1,0,0.3,0.1,0.3,0.3c0,0.1,0,0.1,0,0.2L39.5,172.4z"/>
	</g>
	<g>
		<path class="st0" d="M42.1,174.9v-10h1.4v0.4h-1v9.2h1v0.4H42.1z"/>
	</g>
	<g>
		<path class="st0" d="M45.1,169.5c0.1-0.5,0.2-0.6,0.2-0.8c0-0.3-0.1-0.5-0.3-0.5c-0.4,0-0.6,0.5-0.7,1.2c-0.1,0.2-0.1,0.2-0.2,0.2
			c0,0-0.1,0-0.1-0.1c0,0,0.1-0.6,0.3-1c0.1-0.2,0.3-0.6,0.7-0.6c0.5,0,0.9,0.3,0.9,0.9c0.2-0.2,0.7-0.9,1.6-0.9
			c0.7,0,1.1,0.4,1.1,1.1c0,0.6-0.4,1.7-0.6,2.2c-0.1,0.2-0.2,0.5-0.2,0.7c0,0.2,0.1,0.3,0.2,0.3c0.5,0,0.8-0.6,1-1.2
			c0-0.1,0-0.2,0.1-0.2c0,0,0.1,0,0.1,0.1c0,0.1-0.4,1.5-1.3,1.5c-0.5,0-0.8-0.3-0.8-0.8c0-0.1,0-0.2,0.1-0.5
			c0.2-0.4,0.6-1.7,0.6-2.3c0-0.3-0.1-0.7-0.5-0.7c-0.9,0-1.5,0.9-1.6,1.2c0,0-0.1,0.3-0.1,0.5c0,0.2-0.1,0.4-0.2,0.7l-0.2,0.9
			c-0.1,0.2-0.2,0.7-0.2,0.7c-0.1,0.2-0.2,0.3-0.4,0.3c-0.1,0-0.3-0.1-0.3-0.3c0,0,0.1-0.3,0.1-0.4L45.1,169.5z"/>
	</g>
	<g>
		<path class="st0" d="M51.3,174.9h-1.4v-0.4h1v-9.2h-1V165h1.4V174.9z"/>
	</g>
	<path class="st3" d="M44,184.1h28.3 M72.3,184.1v7.1"/>
	<polyline points="46.3,181.6 44,177.1 41.7,181.6 44,180.5 	"/>
	<line class="st3" x1="44" y1="194.8" x2="44" y2="180.5"/>
	<polyline points="74.9,193.5 79.4,191.2 74.9,189 76,191.2 	"/>
	<line class="st3" x1="40.4" y1="191.2" x2="76" y2="191.2"/>
	<g>
		<path class="st0" d="M26.1,200.8c0,0.2,0,0.2-0.2,0.2c-0.1,0-0.1,0-0.2-0.2l-2.5-5.9c0-0.1,0-0.1-0.1-0.2l-1.3,5.3
			c0,0.1,0,0.2,0,0.2c0,0.2,0.1,0.4,0.7,0.4c0.1,0,0.2,0,0.2,0.1c0,0.2-0.1,0.2-0.2,0.2c-0.3,0-0.7,0-1,0c-0.3,0-0.7,0-1,0
			c-0.1,0-0.1,0-0.1-0.1c0-0.2,0.1-0.2,0.2-0.2c0.8,0,1-0.3,1.1-0.7l1.3-5.4c0-0.1-0.6-0.1-0.7-0.1c-0.2,0-0.3,0-0.3-0.1
			c0-0.2,0.1-0.2,0.3-0.2h1.3c0.2,0,0.2,0,0.3,0.2l2.2,5.2l1.1-4.4c0,0,0-0.2,0-0.2c0-0.2-0.1-0.4-0.7-0.4c-0.1,0-0.2,0-0.2-0.1
			c0-0.2,0.1-0.2,0.2-0.2c0.3,0,0.7,0,1,0c0.3,0,0.7,0,1,0c0.1,0,0.1,0.1,0.1,0.1c0,0.2-0.1,0.2-0.2,0.2c-0.8,0-1,0.3-1.1,0.7
			L26.1,200.8z"/>
	</g>
	<g>
		<path class="st0" d="M32.6,197.7c-0.1,0-0.3,0-0.3-0.2c0-0.2,0.2-0.2,0.3-0.2h6c0.1,0,0.3,0,0.3,0.2c0,0.2-0.2,0.2-0.3,0.2H32.6z
			 M32.6,199.7c-0.1,0-0.3,0-0.3-0.2s0.2-0.2,0.3-0.2h5.9c0.1,0,0.3,0,0.3,0.2s-0.2,0.2-0.3,0.2H32.6z"/>
	</g>
	<g>
		<path class="st0" d="M48.4,200.8c0,0.2,0,0.2-0.2,0.2c-0.1,0-0.1,0-0.2-0.2l-2.5-5.9c0-0.1,0-0.1-0.1-0.2l-1.3,5.3
			c0,0.1,0,0.2,0,0.2c0,0.2,0.1,0.4,0.7,0.4c0.1,0,0.2,0,0.2,0.1c0,0.2-0.1,0.2-0.2,0.2c-0.3,0-0.7,0-1,0c-0.3,0-0.7,0-1,0
			c-0.1,0-0.1,0-0.1-0.1c0-0.2,0.1-0.2,0.2-0.2c0.8,0,1-0.3,1.1-0.7l1.3-5.4c0-0.1-0.6-0.1-0.7-0.1c-0.2,0-0.3,0-0.3-0.1
			c0-0.2,0.1-0.2,0.3-0.2h1.3c0.2,0,0.2,0,0.3,0.2l2.2,5.2l1.1-4.4c0,0,0-0.2,0-0.2c0-0.2-0.1-0.4-0.7-0.4c-0.1,0-0.2,0-0.2-0.1
			c0-0.2,0.1-0.2,0.2-0.2c0.3,0,0.7,0,1,0c0.3,0,0.7,0,1,0c0.1,0,0.1,0.1,0.1,0.1c0,0.2-0.1,0.2-0.2,0.2c-0.8,0-1,0.3-1.1,0.7
			L48.4,200.8z"/>
	</g>
	<g>
		<path class="st0" d="M52.6,201.9c0,0.2,0,0.3,0.7,0.3h0.3v0.3c-0.2,0-1,0-1.2,0c-0.3,0-1.1,0-1.2,0v-0.3h0.3
			c0.7,0,0.7-0.1,0.7-0.3v-3.6c-0.4,0.2-0.8,0.2-1,0.2v-0.3c0.3,0,0.9,0,1.4-0.4c0.2,0,0.2,0,0.2,0.2V201.9z"/>
	</g>
	<g>
		<path class="st0" d="M61.1,201.5c0,0.1,0,0.3-0.2,0.3s-0.2-0.2-0.2-0.3v-2.8h-2.8c-0.1,0-0.3,0-0.3-0.2s0.2-0.2,0.3-0.2h2.8v-2.8
			c0-0.1,0-0.3,0.2-0.3s0.2,0.2,0.2,0.3v2.8h2.8c0.1,0,0.3,0,0.3,0.2s-0.2,0.2-0.3,0.2h-2.8V201.5z"/>
	</g>
	<g>
		<path class="st0" d="M73.1,200.8c0,0.2,0,0.2-0.2,0.2c-0.1,0-0.1,0-0.2-0.2l-2.5-5.9c0-0.1,0-0.1-0.1-0.2l-1.3,5.3
			c0,0.1,0,0.2,0,0.2c0,0.2,0.1,0.4,0.7,0.4c0.1,0,0.2,0,0.2,0.1c0,0.2-0.1,0.2-0.2,0.2c-0.3,0-0.7,0-1,0c-0.3,0-0.7,0-1,0
			c-0.1,0-0.1,0-0.1-0.1c0-0.2,0.1-0.2,0.2-0.2c0.8,0,1-0.3,1.1-0.7l1.3-5.4c0-0.1-0.6-0.1-0.7-0.1c-0.2,0-0.3,0-0.3-0.1
			c0-0.2,0.1-0.2,0.3-0.2h1.3c0.2,0,0.2,0,0.3,0.2l2.2,5.2l1.1-4.4c0,0,0-0.2,0-0.2c0-0.2-0.1-0.4-0.7-0.4c-0.1,0-0.2,0-0.2-0.1
			c0-0.2,0.1-0.2,0.2-0.2c0.3,0,0.7,0,1,0c0.3,0,0.7,0,1,0c0.1,0,0.1,0.1,0.1,0.1c0,0.2-0.1,0.2-0.2,0.2c-0.8,0-1,0.3-1.1,0.7
			L73.1,200.8z"/>
	</g>
	<g>
		<path class="st0" d="M78.3,202.4h-2.9c0-0.2,0-0.2,0.1-0.3l1.7-1.7c0.2-0.3,0.7-0.7,0.7-1.3c0-0.6-0.4-1.1-1.1-1.1
			c-0.3,0-0.8,0.2-1,0.6c0.4,0,0.4,0.2,0.4,0.4c0,0.3-0.2,0.4-0.4,0.4c-0.1,0-0.4,0-0.4-0.4c0-0.6,0.6-1.2,1.5-1.2
			c0.9,0,1.6,0.5,1.6,1.4c0,0.7-0.5,1.1-1,1.5c-0.4,0.3-0.7,0.5-1.4,1.2h1.3c0.1,0,0.6,0,0.7,0c0.1-0.1,0.2-0.5,0.2-0.6h0.2
			L78.3,202.4z"/>
	</g>
	<g>
		<path class="st0" d="M82.8,198.7c-0.2,0-0.3,0-0.3-0.2s0.2-0.2,0.3-0.2h5.4c0.2,0,0.3,0,0.3,0.2s-0.2,0.2-0.3,0.2H82.8z"/>
	</g>
	<g>
		<path class="st0" d="M94.5,200.2c0,0.4,0,0.5,0.9,0.5h0.3v0.3c-0.3,0-1.2,0-1.6,0c-0.4,0-1.3,0-1.6,0v-0.3h0.3
			c0.9,0,0.9-0.1,0.9-0.5V195c-0.5,0.3-1.1,0.3-1.3,0.3V195c0.3,0,1.2,0,1.8-0.6c0.2,0,0.2,0,0.2,0.3V200.2z"/>
	</g>
	<g>
		<path class="st1" d="M191.8,7.8c0,0.1,0,0.2,0,0.2c0,0.1,0,0.1,0.3,0.1h0.8c1.6,0,2-1.2,2.3-2c0.1-0.2,0.1-0.2,0.2-0.2
			c0,0,0.1,0,0.1,0.1c0,0,0,0.1,0,0.1l-0.8,2.1c-0.1,0.2-0.1,0.2-0.3,0.2h-4.3c-0.2,0-0.2,0-0.2-0.1c0-0.2,0.1-0.2,0.3-0.2
			c0.7,0,0.7-0.1,0.8-0.4l1.3-5.4c0-0.1,0-0.2,0-0.2c0-0.2-0.3-0.2-0.6-0.2c-0.2,0-0.3,0-0.3-0.1c0-0.2,0.1-0.2,0.2-0.2
			c0.4,0,0.8,0,1.2,0c0.5,0,0.9,0,1.4,0c0,0,0.1,0,0.1,0.1c0,0.2-0.1,0.2-0.3,0.2h-0.1c-0.8,0-0.9,0.1-1,0.4L191.8,7.8z"/>
		<path class="st1" d="M197.7,8.5c-0.5,0-0.8-0.4-0.8-0.8c0-0.2,0-0.3,0.2-0.7c0.1-0.3,0.2-0.7,0.4-1l0.3-0.8
			c0.1-0.2,0.2-0.5,0.2-0.7c0-0.2-0.1-0.3-0.2-0.3c-0.6,0-0.8,0.9-0.9,1.3c0,0.1,0,0.2-0.2,0.2c0,0-0.1,0-0.1-0.1
			c0,0,0.3-1.5,1.3-1.5c0.4,0,0.7,0.2,0.7,0.8c0,0.2,0,0.3-0.1,0.6L197.7,7c-0.1,0.4-0.3,0.7-0.3,1c0,0.3,0.1,0.3,0.2,0.3
			c0.6,0,0.8-1,0.9-1.2c0-0.1,0-0.2,0.2-0.2c0.1,0,0.1,0,0.1,0.1C198.9,7,198.6,8.5,197.7,8.5z M198.4,2.7c-0.1,0-0.3-0.1-0.3-0.3
			c0-0.3,0.3-0.5,0.5-0.5c0.1,0,0.3,0.1,0.3,0.3C198.9,2.5,198.6,2.7,198.4,2.7z"/>
		<path class="st1" d="M200.6,8.2c-0.1,0.2-0.2,0.3-0.4,0.3c-0.2,0-0.3-0.1-0.3-0.3c0,0,0-0.1,0-0.1l0.7-3c0-0.2,0.1-0.3,0.1-0.5
			c0-0.1,0-0.4-0.3-0.4c-0.3,0-0.5,0.5-0.7,1.2c0,0.2-0.1,0.2-0.2,0.2c0,0-0.1,0-0.1-0.1c0,0,0.1-0.6,0.3-1c0.2-0.3,0.4-0.5,0.7-0.5
			c0.4,0,0.8,0.3,0.8,0.8c0.1-0.2,0.6-0.8,1.4-0.8c0.5,0,1,0.2,1,1c0,0.6-0.4,1.7-0.6,2.2c-0.1,0.2-0.2,0.5-0.2,0.7
			c0,0.1,0,0.3,0.2,0.3c0.6,0,0.8-1,0.9-1.2c0-0.1,0-0.2,0.2-0.2c0.1,0,0.1,0,0.1,0.1c0,0-0.3,1.5-1.3,1.5c-0.5,0-0.8-0.4-0.8-0.8
			c0-0.2,0-0.3,0.2-0.6c0.1-0.4,0.6-1.6,0.6-2.2c0-0.2,0-0.7-0.5-0.7c-0.8,0-1.2,0.7-1.3,1c-0.2,0.3-0.2,0.3-0.3,0.8
			c0,0.2-0.1,0.4-0.2,0.6L200.6,8.2z"/>
		<path class="st1" d="M206.3,6.1c-0.1,0.3-0.2,0.7-0.2,1.1c0,0.4,0.1,1.1,0.8,1.1c0.2,0,1.1,0,1.8-1c0.1-0.1,0.1-0.1,0.1-0.1
			c0.1,0,0.2,0.1,0.2,0.2c0,0.1-0.8,1.1-2.1,1.1c-0.9,0-1.4-0.8-1.4-1.7c0-1.8,1.4-2.8,2.5-2.8c0.6,0,1,0.4,1,0.8c0,0.1,0,0.7-0.8,1
			c-0.5,0.2-1.1,0.2-1.4,0.2H206.3z M206.6,5.9c0.3,0,2,0,2-1.1c0-0.3-0.2-0.6-0.6-0.6c-0.1,0-1.1,0-1.6,1.7H206.6z"/>
	</g>
	<g>
		<path class="st1" d="M210.6,8.5c-0.7,0-1.2-0.7-1.2-1.5c0-1.5,1.2-3,2.3-3c0.3,0,0.6,0.2,0.8,0.6c0,0,0.1-0.4,0.4-0.4
			c0.1,0,0.3,0,0.3,0.3c0,0,0,0.1,0,0.2l-0.7,2.7c-0.1,0.3-0.1,0.4-0.1,0.5c0,0.1,0,0.4,0.3,0.4c0.3,0,0.5-0.6,0.7-1.2
			c0.1-0.2,0.1-0.2,0.2-0.2c0.1,0,0.1,0,0.1,0.1c0,0-0.1,0.6-0.3,1c-0.1,0.3-0.4,0.6-0.7,0.6c-0.3,0-0.7-0.2-0.8-0.7
			C211.4,8.3,211,8.5,210.6,8.5z M212.4,5.1c0-0.4-0.2-0.9-0.7-0.9c-0.4,0-0.9,0.5-1.1,1.1c-0.2,0.4-0.5,1.6-0.5,2.1
			c0,0.3,0.1,0.9,0.5,0.9c0.5,0,1.2-0.8,1.2-1.1l0.5-1.9C212.3,5.2,212.4,5.2,212.4,5.1z"/>
		<path class="st1" d="M215.3,8.1c0,0.1-0.1,0.4-0.4,0.4c-0.2,0-0.3-0.1-0.3-0.3c0,0,0-0.1,0-0.1l0.7-3c0-0.2,0.1-0.3,0.1-0.5
			c0-0.1,0-0.4-0.3-0.4c-0.3,0-0.5,0.5-0.7,1.2c0,0.2-0.1,0.2-0.2,0.2c0,0-0.1,0-0.1-0.1c0,0,0.1-0.6,0.3-1c0.2-0.3,0.4-0.5,0.7-0.5
			c0.3,0,0.7,0.2,0.8,0.7c0.2-0.2,0.5-0.7,1.2-0.7c0.3,0,1,0.1,1,0.6c0,0.4-0.3,0.5-0.5,0.5c-0.3,0-0.3-0.2-0.3-0.3
			c0,0,0-0.4,0.4-0.5c-0.2-0.1-0.5-0.1-0.5-0.1c-0.9,0-1.3,1.3-1.3,1.3L215.3,8.1z"/>
	</g>
	<g>
		<path class="st1" d="M223.5,4.5c0.3-0.3,0.7-0.5,1.1-0.5c0.6,0,1.2,0.5,1.2,1.6c0,1.5-1.2,3-2.3,3c-0.7,0-1.1-0.7-1.1-1.5
			c0-0.4,0.1-0.8,0.1-0.8l1-3.9c0,0,0-0.1,0-0.2c0-0.1,0-0.2-0.5-0.2c-0.1,0-0.2,0-0.2-0.1c0-0.2,0.1-0.2,0.2-0.2l1-0.1
			c0,0,0.1,0,0.2,0c0.1,0,0.1,0,0.1,0.1c0,0,0,0.1,0,0.1L223.5,4.5z M224.5,7.3c0.3-0.6,0.6-1.8,0.6-2.2c0-0.3-0.1-0.9-0.5-0.9
			c-0.4,0-0.8,0.3-1,0.7c-0.1,0.2-0.1,0.2-0.2,0.5c-0.3,1.1-0.4,1.5-0.4,1.9c0,0.7,0.3,1,0.6,1C223.9,8.3,224.4,7.6,224.5,7.3z"/>
		<path class="st1" d="M228.4,8.5c-0.5,0-1.1-0.3-1.1-1.2c0-0.5,0.3-1.3,0.5-2c0.1-0.4,0.2-0.7,0.2-0.9c0-0.3-0.1-0.3-0.2-0.3
			c-0.6,0-0.8,0.9-0.9,1.3c0,0.1,0,0.2-0.2,0.2c0,0-0.1,0-0.1-0.1c0-0.1,0.3-1.5,1.3-1.5c0.4,0,0.8,0.3,0.8,0.8c0,0.2,0,0.3-0.1,0.5
			c-0.2,0.7-0.6,1.6-0.6,2.2c0,0.3,0.1,0.8,0.5,0.8c0.6,0,1-0.6,1.1-0.9l0.7-2.9c0-0.1,0.1-0.4,0.4-0.4c0.2,0,0.3,0.1,0.3,0.3
			c0,0,0,0.1,0,0.1l-1,3.9c-0.2,1-1.2,2-2.2,2c-0.5,0-1-0.3-1-0.9c0-0.6,0.4-0.6,0.5-0.6c0.2,0,0.3,0.1,0.3,0.3
			c0,0.2-0.1,0.4-0.4,0.5c-0.1,0-0.1,0-0.1,0c0,0,0.1,0.4,0.6,0.4c0.5,0,1.2-0.4,1.6-2.1C229.1,8.3,228.8,8.5,228.4,8.5z"/>
	</g>
	<g>
		<path class="st1" d="M237.7,4.2c-0.4,0-0.9,0.3-1.3,1c-0.3,0.5-0.5,1.5-0.5,2.1c0,0.6,0.2,1,0.8,1c0.2,0,1.1,0,1.8-1
			c0.1-0.1,0.1-0.1,0.1-0.1c0.1,0,0.2,0.1,0.2,0.2c0,0.1-0.8,1.1-2.1,1.1c-0.9,0-1.5-0.7-1.5-1.6c0-1.5,1.3-2.9,2.5-2.9
			c0.6,0,1.1,0.4,1.1,0.9c0,0.4-0.2,0.6-0.5,0.6c-0.2,0-0.3-0.2-0.3-0.3c0,0,0-0.4,0.5-0.5C238.3,4.2,237.8,4.2,237.7,4.2z"/>
		<path class="st1" d="M240.7,8.5c-0.5,0-0.8-0.4-0.8-0.8c0-0.2,0-0.3,0.2-0.7c0.1-0.3,0.2-0.7,0.4-1l0.3-0.8
			c0.1-0.2,0.2-0.5,0.2-0.7c0-0.2-0.1-0.3-0.2-0.3c-0.6,0-0.8,0.9-0.9,1.3c0,0.1,0,0.2-0.2,0.2c0,0-0.1,0-0.1-0.1
			c0,0,0.3-1.5,1.3-1.5c0.4,0,0.7,0.2,0.7,0.8c0,0.2,0,0.3-0.1,0.6L240.8,7c-0.1,0.4-0.3,0.7-0.3,1c0,0.3,0.1,0.3,0.2,0.3
			c0.6,0,0.8-1,0.9-1.2c0-0.1,0-0.2,0.2-0.2c0.1,0,0.1,0,0.1,0.1C242,7,241.6,8.5,240.7,8.5z M241.4,2.7c-0.1,0-0.3-0.1-0.3-0.3
			c0-0.3,0.3-0.5,0.5-0.5c0.1,0,0.3,0.1,0.3,0.3C241.9,2.5,241.6,2.7,241.4,2.7z"/>
	</g>
	<g>
		<path class="st1" d="M243.6,8.1c0,0.1-0.1,0.4-0.4,0.4c-0.2,0-0.3-0.1-0.3-0.3c0,0,0-0.1,0-0.1l0.7-3c0-0.2,0.1-0.3,0.1-0.5
			c0-0.1,0-0.4-0.3-0.4c-0.3,0-0.5,0.5-0.7,1.2c0,0.2-0.1,0.2-0.2,0.2c0,0-0.1,0-0.1-0.1c0,0,0.1-0.6,0.3-1c0.2-0.3,0.4-0.5,0.7-0.5
			c0.3,0,0.7,0.2,0.8,0.7c0.2-0.2,0.5-0.7,1.2-0.7c0.3,0,1,0.1,1,0.6c0,0.4-0.3,0.5-0.5,0.5c-0.3,0-0.3-0.2-0.3-0.3
			c0,0,0-0.4,0.4-0.5c-0.2-0.1-0.5-0.1-0.5-0.1c-0.9,0-1.3,1.3-1.3,1.3L243.6,8.1z"/>
		<path class="st1" d="M249,4.2c-0.4,0-0.9,0.3-1.3,1c-0.3,0.5-0.5,1.5-0.5,2.1c0,0.6,0.2,1,0.8,1c0.2,0,1.1,0,1.8-1
			c0.1-0.1,0.1-0.1,0.1-0.1c0.1,0,0.2,0.1,0.2,0.2c0,0.1-0.8,1.1-2.1,1.1c-0.9,0-1.5-0.7-1.5-1.6c0-1.5,1.3-2.9,2.5-2.9
			c0.6,0,1.1,0.4,1.1,0.9c0,0.4-0.2,0.6-0.5,0.6c-0.2,0-0.3-0.2-0.3-0.3c0,0,0-0.4,0.5-0.5C249.6,4.2,249.1,4.2,249,4.2z"/>
	</g>
	<g>
		<path class="st1" d="M254.3,7.4c-0.1,0.3-0.1,0.4-0.1,0.5c0,0.1,0,0.4,0.3,0.4c0.3,0,0.5-0.6,0.7-1.2c0.1-0.2,0.1-0.2,0.2-0.2
			c0.1,0,0.1,0,0.1,0.1c0,0-0.1,0.6-0.3,1c-0.1,0.3-0.4,0.6-0.7,0.6c-0.2,0-0.6-0.1-0.8-0.6c-0.2,0.3-0.6,0.6-1.1,0.6
			c-0.5,0-1.1-0.3-1.1-1.2c0-0.5,0.3-1.3,0.5-2c0.1-0.4,0.2-0.7,0.2-0.9c0-0.3-0.1-0.3-0.2-0.3c-0.6,0-0.8,0.9-0.9,1.3
			c0,0.1,0,0.2-0.2,0.2c0,0-0.1,0-0.1-0.1c0-0.1,0.3-1.5,1.3-1.5c0.4,0,0.8,0.3,0.8,0.8c0,0.2,0,0.3-0.1,0.5
			c-0.2,0.7-0.6,1.6-0.6,2.2c0,0.3,0.1,0.8,0.5,0.8c0.4,0,0.7-0.3,0.9-0.6c0.1-0.1,0.1-0.1,0.1-0.3l0.7-2.9c0-0.1,0.1-0.4,0.4-0.4
			c0.2,0,0.3,0.1,0.3,0.3c0,0,0,0.1,0,0.1L254.3,7.4z"/>
		<path class="st1" d="M256.9,7.4c-0.1,0.2-0.1,0.4-0.1,0.5c0,0.1,0,0.4,0.3,0.4c0.3,0,0.5-0.4,0.6-1.1l0.1-0.2c0,0,0.1,0,0.1,0
			c0.1,0,0.1,0,0.1,0.1c0,0-0.1,0.7-0.3,1c-0.1,0.2-0.3,0.5-0.7,0.5c-0.5,0-0.8-0.4-0.8-0.9c0-0.1,0-0.3,0.1-0.4l1.2-5
			c0,0,0-0.1,0-0.2c0-0.1,0-0.2-0.5-0.2c-0.1,0-0.2,0-0.2-0.1c0-0.2,0.1-0.2,0.2-0.2l1-0.1c0,0,0.1,0,0.2,0c0.1,0,0.1,0,0.1,0.1
			c0,0,0,0.1,0,0.1L256.9,7.4z"/>
	</g>
	<g>
		<path class="st1" d="M260.1,8.5c-0.7,0-1.2-0.7-1.2-1.5c0-1.5,1.2-3,2.3-3c0.3,0,0.6,0.2,0.8,0.6c0,0,0.1-0.4,0.4-0.4
			c0.1,0,0.3,0,0.3,0.3c0,0,0,0.1,0,0.2L262,7.4c-0.1,0.3-0.1,0.4-0.1,0.5c0,0.1,0,0.4,0.3,0.4c0.3,0,0.5-0.6,0.7-1.2
			c0.1-0.2,0.1-0.2,0.2-0.2c0.1,0,0.1,0,0.1,0.1c0,0-0.1,0.6-0.3,1c-0.1,0.3-0.4,0.6-0.7,0.6c-0.3,0-0.7-0.2-0.8-0.7
			C260.9,8.3,260.5,8.5,260.1,8.5z M261.9,5.1c0-0.4-0.2-0.9-0.7-0.9c-0.4,0-0.9,0.5-1.1,1.1c-0.2,0.4-0.5,1.6-0.5,2.1
			c0,0.3,0.1,0.9,0.5,0.9c0.5,0,1.2-0.8,1.2-1.1l0.5-1.9C261.9,5.2,261.9,5.2,261.9,5.1z"/>
		<path class="st1" d="M264.8,8.1c0,0.1-0.1,0.4-0.4,0.4c-0.2,0-0.3-0.1-0.3-0.3c0,0,0-0.1,0-0.1l0.7-3c0-0.2,0.1-0.3,0.1-0.5
			c0-0.1,0-0.4-0.3-0.4c-0.3,0-0.5,0.5-0.7,1.2c0,0.2-0.1,0.2-0.2,0.2c0,0-0.1,0-0.1-0.1c0,0,0.1-0.6,0.3-1c0.2-0.3,0.4-0.5,0.7-0.5
			c0.3,0,0.7,0.2,0.8,0.7c0.2-0.2,0.5-0.7,1.2-0.7c0.3,0,1,0.1,1,0.6c0,0.4-0.3,0.5-0.5,0.5c-0.3,0-0.3-0.2-0.3-0.3
			c0,0,0-0.4,0.4-0.5c-0.2-0.1-0.5-0.1-0.5-0.1c-0.9,0-1.3,1.3-1.3,1.3L264.8,8.1z"/>
	</g>
	<polyline points="189.4,12 267.4,12 267.4,11.5 189.4,11.5 	"/>
	<polyline points="239.6,143.9 244.2,141.6 239.6,139.4 240.8,141.6 	"/>
	<line class="st3" x1="180.4" y1="141.6" x2="240.8" y2="141.6"/>
	<g>
		<path class="st4" d="M251.3,144.9c-1.8,0-3.3-1.5-3.3-3.3c0-1.8,1.5-3.3,3.3-3.3c1.8,0,3.3,1.5,3.3,3.3
			C254.6,143.4,253.1,144.9,251.3,144.9z M254.4,141.6c0-1.7-1.4-3.1-3.1-3.1s-3.1,1.4-3.1,3.1c0,1.7,1.4,3.1,3.1,3.1
			S254.4,143.3,254.4,141.6z M251.4,141.8l0,0.5c0,0.2,0,0.6,0,0.6c0,0,0,0.5,0,0.5c0,0.2-0.2,0.3-0.3,0.3s-0.3-0.1-0.3-0.3l0.1-1.7
			l-1.1,0.8c-0.1,0.1-0.3,0.2-0.3,0.2c-0.1,0-0.3-0.1-0.3-0.3c0-0.1,0.1-0.2,0.2-0.3l1.4-0.7l-1.4-0.7c-0.1,0-0.2-0.1-0.2-0.2
			c0-0.1,0.1-0.3,0.3-0.3c0.1,0,0.2,0.1,0.4,0.2l1.1,0.8l-0.1-1.6v-0.1c0-0.1,0.1-0.3,0.3-0.3c0.3,0,0.3,0.2,0.3,0.4l-0.1,1.6
			l1.3-0.9c0,0,0.1-0.1,0.2-0.1c0.1,0,0.3,0.1,0.3,0.3c0,0.1-0.1,0.2-0.2,0.3l-1.4,0.7c0.6,0.3,1.2,0.6,1.4,0.7
			c0.2,0.1,0.2,0.1,0.2,0.3c0,0.1-0.1,0.3-0.3,0.3c-0.1,0-0.2-0.1-0.4-0.2L251.4,141.8z"/>
	</g>
	<polygon class="st5" points="244.2,141.6 244.2,148.7 258.4,148.7 258.4,134.5 244.2,134.5 	"/>
	<polyline points="249,130 251.3,134.5 253.5,130 251.3,131.1 	"/>
	<line class="st3" x1="251.3" y1="84.9" x2="251.3" y2="131.1"/>
	<polyline points="249,186.7 251.3,191.2 253.5,186.7 251.3,187.8 	"/>
	<line class="st3" x1="251.3" y1="148.7" x2="251.3" y2="187.8"/>
	<g>
		<path class="st0" d="M185.8,104.8c0.4-0.5,0.8-0.8,1.5-0.8c0.7,0,1.1,0.4,1.1,1.1c0,0.6-0.4,1.8-0.6,2.2c-0.1,0.2-0.2,0.5-0.2,0.7
			c0,0.2,0.1,0.3,0.2,0.3c0.5,0,0.9-0.7,1-1.2c0-0.1,0-0.2,0.1-0.2c0,0,0.1,0,0.1,0.1c0,0.1-0.4,1.5-1.3,1.5c-0.5,0-0.8-0.3-0.8-0.8
			c0-0.2,0-0.3,0.1-0.5c0.2-0.6,0.6-1.7,0.6-2.2c0-0.4-0.1-0.7-0.5-0.7c-0.4,0-0.7,0.2-1,0.3c-0.3,0.3-0.6,0.8-0.7,0.9
			c0,0.1-0.1,0.4-0.1,0.4c0,0.2-0.1,0.4-0.2,0.7l-0.2,0.9l-0.2,0.8c0,0.1-0.2,0.3-0.4,0.3c-0.1,0-0.3,0-0.3-0.3c0-0.1,0-0.1,0-0.2
			l1.4-5.7l0-0.2c0-0.1,0-0.2-0.5-0.2c-0.1,0-0.2,0-0.2-0.1c0-0.2,0.1-0.2,0.2-0.2c0.3,0,1-0.1,1.2-0.1c0.1,0,0.1,0.1,0.1,0.1
			L185.8,104.8z"/>
	</g>
	<g>
		<path class="st0" d="M190.8,107.6c0,0,0-0.1,0-0.2c0-0.2,0-0.3-0.2-0.3c-0.3,0-0.4,0.3-0.5,0.8c0,0.2-0.1,0.2-0.2,0.2
			c0,0-0.1,0-0.1-0.1c0,0,0.1-0.5,0.3-0.7c0.1-0.2,0.3-0.4,0.6-0.4c0.2,0,0.6,0.1,0.7,0.5c0.2-0.2,0.6-0.5,1-0.5c0.5,0,1,0.3,1,1.2
			c0,1-0.9,2-1.8,2c-0.4,0-0.6-0.3-0.7-0.4c-0.1,0.3-0.2,0.7-0.3,1c0,0.1-0.1,0.3-0.1,0.3c0,0.1,0.2,0.1,0.3,0.1
			c0.1,0,0.2,0,0.2,0.1c0,0.1-0.1,0.2-0.1,0.2c-0.2,0-0.5,0-0.7,0c-0.2,0-0.4,0-0.6,0c0,0-0.1,0-0.1-0.1c0-0.1,0.1-0.1,0.2-0.1
			c0.3,0,0.3-0.1,0.3-0.3L190.8,107.6z M191,109.1c0,0,0,0.1,0,0.1c0,0.1,0.1,0.6,0.6,0.6c0.4,0,0.7-0.3,0.9-0.7
			c0.2-0.4,0.4-1.1,0.4-1.4c0-0.5-0.2-0.7-0.5-0.7c-0.2,0-0.6,0.1-1,0.6L191,109.1z"/>
	</g>
	<g>
		<path class="st0" d="M195.2,111v-10h1.4v0.4h-1v9.2h1v0.4H195.2z"/>
	</g>
	<g>
		<path class="st0" d="M198.3,105.6c0.1-0.5,0.2-0.6,0.2-0.8c0-0.3-0.1-0.5-0.3-0.5c-0.4,0-0.6,0.5-0.7,1.2
			c-0.1,0.2-0.1,0.2-0.2,0.2c0,0-0.1,0-0.1-0.1c0,0,0.1-0.6,0.3-1c0.1-0.2,0.3-0.6,0.7-0.6c0.5,0,0.9,0.3,0.9,0.9
			c0.2-0.2,0.7-0.9,1.6-0.9c0.7,0,1.1,0.4,1.1,1.1c0,0.6-0.4,1.7-0.6,2.2c-0.1,0.2-0.2,0.5-0.2,0.7c0,0.2,0.1,0.3,0.2,0.3
			c0.5,0,0.8-0.6,1-1.2c0-0.1,0-0.2,0.1-0.2c0,0,0.1,0,0.1,0.1c0,0.1-0.4,1.5-1.3,1.5c-0.5,0-0.8-0.3-0.8-0.8c0-0.1,0-0.2,0.1-0.5
			c0.2-0.4,0.6-1.7,0.6-2.3c0-0.3-0.1-0.7-0.5-0.7c-0.9,0-1.5,0.9-1.6,1.2c0,0-0.1,0.3-0.1,0.5c0,0.2-0.1,0.4-0.2,0.7l-0.2,0.9
			c-0.1,0.2-0.2,0.7-0.2,0.7c-0.1,0.2-0.2,0.3-0.4,0.3c-0.1,0-0.3-0.1-0.3-0.3c0-0.1,0.1-0.3,0.1-0.4L198.3,105.6z"/>
	</g>
	<g>
		<path class="st0" d="M204.4,111H203v-0.4h1v-9.2h-1V101h1.4V111z"/>
	</g>
	<path class="st3" d="M194.6,120.4h14.2 M208.7,120.4v7.1"/>
	<polyline points="196.8,117.8 194.6,113.3 192.3,117.8 194.6,116.7 	"/>
	<line class="st3" x1="194.6" y1="131" x2="194.6" y2="116.7"/>
	<polyline points="225.5,129.7 230,127.4 225.5,125.2 226.6,127.4 	"/>
	<line class="st3" x1="191" y1="127.4" x2="226.6" y2="127.4"/>
	<g>
		<path class="st0" d="M210.4,137.7c0,0.2,0,0.2-0.2,0.2c-0.1,0-0.1,0-0.2-0.2l-2.5-5.9c0-0.1,0-0.1-0.1-0.2l-1.3,5.3
			c0,0.1,0,0.2,0,0.2c0,0.2,0.1,0.4,0.7,0.4c0.1,0,0.2,0,0.2,0.1c0,0.2-0.1,0.2-0.2,0.2c-0.3,0-0.7,0-1,0c-0.3,0-0.7,0-1,0
			c-0.1,0-0.1,0-0.1-0.1c0-0.2,0.1-0.2,0.2-0.2c0.8,0,1-0.3,1.1-0.7l1.3-5.4c0-0.1-0.6-0.1-0.7-0.1c-0.2,0-0.3,0-0.3-0.1
			c0-0.2,0.1-0.2,0.3-0.2h1.3c0.2,0,0.2,0,0.3,0.2l2.2,5.2l1.1-4.4c0,0,0-0.2,0-0.2c0-0.2-0.1-0.4-0.7-0.4c-0.1,0-0.2,0-0.2-0.1
			c0-0.2,0.1-0.2,0.2-0.2c0.3,0,0.7,0,1,0c0.3,0,0.7,0,1,0c0.1,0,0.1,0.1,0.1,0.1c0,0.2-0.1,0.2-0.2,0.2c-0.8,0-1,0.3-1.1,0.7
			L210.4,137.7z"/>
	</g>
	<line class="st3" x1="222.9" y1="131" x2="222.9" y2="123.9"/>
	<g>
		<path class="st0" d="M217.6,126.1c-0.4,0.9-1.2,1.2-1.7,1.2c-0.5,0-1.2-0.2-1.6-1c-0.4-0.8-0.4-1.7-0.4-2.4c0-0.8,0-1.6,0.4-2.3
			c0.4-0.9,1.1-1.2,1.7-1.2c0.4,0,1.2,0.2,1.7,1.1c0.3,0.7,0.4,1.5,0.4,2.3C217.9,124.7,217.9,125.4,217.6,126.1z M217,125.8
			c0.1-0.6,0.1-1.3,0.1-2.1c0-0.6,0-1.4-0.1-1.9c-0.2-1-0.8-1.2-1.2-1.2c-0.2,0-1,0.1-1.2,1.3c-0.1,0.5-0.1,1.2-0.1,1.8
			c0,0.6,0,1.5,0.1,2.1c0.2,1,0.8,1.2,1.2,1.2C216.3,127.1,216.9,126.8,217,125.8z"/>
	</g>
	<g>
		<path class="st0" d="M257.5,92.7c-0.1,0.4-0.2,0.7-0.2,0.9c0,0.3,0.2,0.7,0.5,0.7c0.3,0,1-0.2,1.3-1.3c0-0.1,0-0.1,0.1-0.1
			c0,0,0.1,0,0.1,0.1c0,0.2-0.6,1.5-1.6,1.5c-0.6,0-1-0.4-1.1-0.8c0,0.1-0.4,0.8-1,0.8c-0.4,0-0.9-0.2-0.9-0.7
			c0-0.3,0.2-0.6,0.5-0.6c0.1,0,0.4,0.1,0.4,0.3c0,0.3-0.2,0.5-0.5,0.5c0.2,0.1,0.4,0.1,0.5,0.1c0.4,0,0.8-0.4,0.9-1
			c0.4-1.4,0.5-2.1,0.5-2.4c0-0.6-0.3-0.7-0.5-0.7c-0.3,0-1,0.2-1.3,1.3c0,0.1,0,0.1-0.1,0.1c0,0-0.1,0-0.1-0.1
			c0-0.2,0.6-1.5,1.6-1.5c0.3,0,0.8,0.1,1.1,0.8c0.1-0.2,0.5-0.8,1-0.8c0.3,0,0.9,0.1,0.9,0.7c0,0.4-0.3,0.6-0.5,0.6
			c-0.3,0-0.4-0.2-0.4-0.3c0-0.2,0.2-0.5,0.5-0.5c-0.2-0.1-0.4-0.1-0.5-0.1c-0.7,0-0.9,0.9-1,1.2L257.5,92.7z"/>
	</g>
	<g>
		<path class="st0" d="M261.5,93.4c0,0,0-0.1,0-0.2c0-0.2,0-0.3-0.2-0.3c-0.3,0-0.4,0.3-0.5,0.8c0,0.2-0.1,0.2-0.2,0.2
			c0,0-0.1,0-0.1-0.1c0,0,0.1-0.5,0.3-0.7c0.1-0.2,0.3-0.4,0.6-0.4c0.2,0,0.6,0.1,0.7,0.5c0.2-0.2,0.6-0.5,1-0.5c0.5,0,1,0.3,1,1.2
			c0,1-0.9,2-1.8,2c-0.4,0-0.6-0.3-0.7-0.4c-0.1,0.3-0.2,0.7-0.3,1c0,0.1-0.1,0.3-0.1,0.3c0,0.1,0.2,0.1,0.3,0.1
			c0.1,0,0.2,0,0.2,0.1c0,0.1-0.1,0.2-0.1,0.2c-0.2,0-0.5,0-0.7,0c-0.2,0-0.4,0-0.6,0c0,0-0.1,0-0.1-0.1c0-0.1,0.1-0.1,0.2-0.1
			c0.3,0,0.3-0.1,0.3-0.3L261.5,93.4z M261.6,94.9c0,0,0,0.1,0,0.1c0,0.1,0.1,0.6,0.6,0.6c0.4,0,0.7-0.3,0.9-0.7
			c0.2-0.4,0.4-1.1,0.4-1.4c0-0.5-0.2-0.7-0.5-0.7c-0.2,0-0.6,0.1-1,0.6L261.6,94.9z"/>
	</g>
	<g>
		<path class="st0" d="M266,96.8v-10h1.4v0.4h-1v9.2h1v0.4H266z"/>
	</g>
	<g>
		<path class="st0" d="M269,91.4c0.1-0.5,0.2-0.6,0.2-0.8c0-0.3-0.1-0.5-0.3-0.5c-0.4,0-0.6,0.5-0.7,1.2c-0.1,0.2-0.1,0.2-0.2,0.2
			c0,0-0.1,0-0.1-0.1c0,0,0.1-0.6,0.3-1c0.1-0.2,0.3-0.6,0.7-0.6c0.5,0,0.9,0.3,0.9,0.9c0.2-0.2,0.7-0.9,1.6-0.9
			c0.7,0,1.1,0.4,1.1,1.1c0,0.6-0.4,1.7-0.6,2.2c-0.1,0.2-0.2,0.5-0.2,0.7c0,0.2,0.1,0.3,0.2,0.3c0.5,0,0.8-0.6,1-1.2
			c0.1-0.1,0.1-0.2,0.2-0.2c0,0,0.1,0,0.1,0.1c0,0.1-0.4,1.5-1.3,1.5c-0.5,0-0.8-0.3-0.8-0.8c0-0.1,0-0.2,0.1-0.5
			c0.2-0.4,0.6-1.7,0.6-2.3c0-0.3-0.1-0.7-0.5-0.7c-0.9,0-1.5,0.9-1.6,1.2c0,0-0.1,0.3-0.1,0.5c0,0.2-0.1,0.4-0.2,0.7l-0.2,0.9
			c-0.1,0.2-0.2,0.7-0.2,0.7c-0.1,0.2-0.2,0.3-0.4,0.3c-0.1,0-0.3-0.1-0.3-0.3c0-0.1,0.1-0.3,0.1-0.4L269,91.4z"/>
	</g>
	<g>
		<path class="st0" d="M275.2,96.8h-1.4v-0.4h1v-9.2h-1v-0.4h1.4V96.8z"/>
	</g>
	<path class="st3" d="M265.4,106.2h21.3 M286.7,106.2v7.1"/>
	<polyline points="267.7,103.6 265.4,99.1 263.2,103.6 265.4,102.5 	"/>
	<line class="st3" x1="265.4" y1="116.8" x2="265.4" y2="102.5"/>
	<polyline points="296.3,115.5 300.9,113.3 296.3,111 297.5,113.3 	"/>
	<line class="st3" x1="261.9" y1="113.3" x2="297.5" y2="113.3"/>
	<g>
		<path class="st0" d="M281.3,123.5c0,0.2,0,0.2-0.2,0.2c-0.1,0-0.1,0-0.2-0.2l-2.5-5.9c0-0.1,0-0.1-0.1-0.2l-1.3,5.3
			c0,0.1,0,0.2,0,0.2c0,0.2,0.1,0.4,0.7,0.4c0.1,0,0.2,0,0.2,0.1c0,0.2-0.1,0.2-0.2,0.2c-0.3,0-0.7,0-1,0c-0.3,0-0.7,0-1,0
			c-0.1,0-0.1,0-0.1-0.1c0-0.2,0.1-0.2,0.2-0.2c0.8,0,1-0.3,1.1-0.7l1.3-5.4c0-0.1-0.6-0.1-0.7-0.1c-0.2,0-0.3,0-0.3-0.1
			c0-0.2,0.1-0.2,0.3-0.2h1.3c0.2,0,0.2,0,0.3,0.2l2.2,5.2l1.1-4.4c0,0,0-0.2,0-0.2c0-0.2-0.1-0.4-0.7-0.4c-0.1,0-0.2,0-0.2-0.1
			c0-0.2,0.1-0.2,0.2-0.2c0.3,0,0.7,0,1,0c0.3,0,0.7,0,1,0c0.1,0,0.1,0.1,0.1,0.1c0,0.2-0.1,0.2-0.2,0.2c-0.8,0-1,0.3-1.1,0.7
			L281.3,123.5z"/>
	</g>
	<g>
		<path class="st0" d="M292,112c-0.4,0.9-1.2,1.2-1.7,1.2c-0.5,0-1.2-0.2-1.6-1c-0.4-0.8-0.4-1.7-0.4-2.4c0-0.8,0-1.6,0.4-2.3
			c0.4-0.9,1.1-1.2,1.7-1.2c0.4,0,1.2,0.2,1.7,1.1c0.3,0.7,0.4,1.5,0.4,2.3C292.3,110.5,292.3,111.3,292,112z M291.4,111.7
			c0.1-0.6,0.1-1.3,0.1-2.1c0-0.6,0-1.4-0.1-1.9c-0.2-1-0.8-1.2-1.2-1.2c-0.2,0-1,0.1-1.2,1.3c-0.1,0.5-0.1,1.2-0.1,1.8
			c0,0.6,0,1.5,0.1,2.1c0.2,1,0.8,1.2,1.2,1.2C290.7,112.9,291.3,112.6,291.4,111.7z"/>
	</g>
	<line class="st3" x1="293.8" y1="116.8" x2="293.8" y2="109.7"/>
	<line class="st6" x1="293.8" y1="113.3" x2="293.8" y2="106.2"/>
	<line class="st6" x1="293.8" y1="106.2" x2="300.9" y2="106.2"/>
	<line class="st6" x1="222.9" y1="127.4" x2="222.9" y2="120.4"/>
	<line class="st6" x1="222.9" y1="120.4" x2="230" y2="120.4"/>
	<g>
		<path class="st0" d="M155.2,159.8v-1.6c0-1.8-0.9-2-2.3-2.1v-0.2l2.7,0.2v4.6c0,0.2,0,0.3-0.2,0.3c-0.1,0-0.1,0-0.2-0.1l-6.1-3.9
			v1.6c0,1.6,0.8,1.9,1.9,2v0.2l-2.2-0.1v-4.5c0-0.2,0-0.3,0.2-0.3c0.1,0,0.1,0,0.2,0.1L155.2,159.8z"/>
		<path class="st0" d="M154.7,153.8c0.4-0.2,0.7-0.6,0.7-1.1c0-0.1,0-1-1-1.3c-0.1,0-0.1,0-0.1-0.1c0,0,0-0.1,0.1-0.1
			c0.2,0,1.3,0.4,1.3,1.7c0,1.1-1,2.2-2.3,2.2c-1.2,0-2.3-0.9-2.3-2.1c0-1.2,1-1.8,2-1.8c0.2,0,0.2,0,0.2,0.2v2.8
			C153.6,154.1,154.2,154.1,154.7,153.8z M153,151.8c-0.4,0-1.7,0.1-1.7,1.1c0,0.3,0.2,1.2,1.7,1.2V151.8z"/>
		<path class="st0" d="M151.1,147.9c0-0.4,0.3-0.7,0.6-0.7s0.4,0.2,0.4,0.4c0,0.2-0.1,0.4-0.4,0.4c-0.3,0-0.4-0.2-0.4-0.2
			c0,0,0,0,0,0.1c0,0.8,0.9,1.2,1.9,1.2h1.5c0.4,0,0.5,0,0.5-0.8v-0.2h0.3c0,0.4,0,0.9,0,1.3c0,0.3,0,0.7,0,1.1h-0.3
			c0-0.7,0-0.8-0.4-0.8h-2.7c-0.5,0-0.6,0.1-0.6,0.8h-0.3l-0.1-1.4h1.1C151.8,149,151.1,148.6,151.1,147.9z"/>
		<path class="st0" d="M155.6,144.3c0,1.2-1,2.2-2.2,2.2c-1.2,0-2.3-1-2.3-2.2c0-1.2,1.1-2.2,2.3-2.2
			C154.6,142.1,155.6,143.1,155.6,144.3z M154.6,143.2c-0.4-0.2-1-0.2-1.3-0.2c-0.4,0-1,0-1.4,0.3c-0.4,0.3-0.6,0.7-0.6,1.1
			c0,0.4,0.2,0.9,0.7,1.1c0.4,0.2,1,0.2,1.4,0.2c0.4,0,1,0,1.4-0.2c0.5-0.3,0.7-0.7,0.7-1.1C155.4,143.8,155.1,143.4,154.6,143.2z"
			/>
	</g>
	<g>
		<path class="st0" d="M154.7,136.4c0.4,0,0.5,0,0.5-0.8v-0.2h0.3c0,0.3,0,1.1,0,1.5s0,1.1,0,1.5h-0.3v-0.2c0-0.8-0.1-0.8-0.5-0.8
			h-5.3c-0.4,0-0.5,0-0.5,0.8v0.2h-0.3v-3.5c0-1.4,0.9-2.4,1.9-2.4c1,0,1.8,1.1,1.8,2.3v1.7H154.7z M152.1,135.1
			c0-1.6-1.1-1.6-1.5-1.6c-0.5,0-1.5,0-1.5,1.6v0.9c0,0.5,0.1,0.5,0.4,0.5h2.7V135.1z"/>
		<path class="st0" d="M155.6,130.1c0,0.6-0.2,1.6-1.1,1.6c-0.4,0-1-0.2-1.3-1c-0.3-0.6-0.3-1.3-0.4-1.8h-0.4
			c-0.9,0-1.3,0.6-1.3,1.1c0,0.3,0.1,0.8,0.5,1.1c0-0.5,0.3-0.5,0.5-0.5c0.3,0,0.5,0.2,0.5,0.5c0,0.3-0.2,0.5-0.5,0.5
			c-0.7,0-1.1-0.7-1.1-1.5c0-0.5,0.2-1,0.5-1.4c0.4-0.4,0.8-0.4,1.2-0.4h2c0,0,0.5,0,0.5-0.4c0-0.1-0.1-0.4-0.6-0.4h-0.6v-0.2h0.6
			c0.8,0,0.9,0.6,0.9,0.8c0,0.5-0.4,0.7-0.8,0.8C155.2,129,155.6,129.4,155.6,130.1z M154.6,130.9c0.5,0,0.8-0.4,0.8-0.9
			c0-0.4-0.3-1.2-1.3-1.2h-1C153.2,130.5,154,130.9,154.6,130.9z"/>
	</g>
	<g>
		<path class="st0" d="M155.6,124.6c0,1.1-1,2.1-2.3,2.1c-1.3,0-2.3-1-2.3-2.2c0-0.5,0.3-1,0.6-1.3h-2.2c-0.5,0-0.6,0.1-0.6,0.8
			h-0.3l-0.1-1.4h6c0.5,0,0.6-0.1,0.6-0.8h0.3l0.1,1.5H155C155.3,123.5,155.6,124,155.6,124.6z M151.9,123.4
			c-0.4,0.3-0.6,0.7-0.6,1.1c0,0.5,0.3,0.9,0.6,1.1c0.4,0.3,1,0.3,1.4,0.3c0.4,0,1,0,1.4-0.3c0.4-0.2,0.6-0.6,0.6-1
			c0-0.4-0.2-0.9-0.7-1.2c-0.2-0.1-0.2-0.1-0.4-0.1h-2C152.1,123.3,152.1,123.3,151.9,123.4z"/>
	</g>
	<g>
		<path class="st0" d="M163,144.6c0,0.1,0,0.3-0.2,0.3s-0.2-0.2-0.2-0.3v-2.8h-2.8c-0.1,0-0.3,0-0.3-0.2s0.2-0.2,0.3-0.2h2.8v-2.8
			c0-0.1,0-0.3,0.2-0.3s0.2,0.2,0.2,0.3v2.8h2.8c0.1,0,0.3,0,0.3,0.2s-0.2,0.2-0.3,0.2H163V144.6z"/>
	</g>
	<g>
		<path class="st0" d="M176.1,174.5c0.4,0,0.5,0,0.5-0.8v-0.2h0.3c0,0.3,0,1.1,0,1.5s0,1.1,0,1.5h-0.3v-0.2c0-0.8-0.1-0.8-0.5-0.8
			h-5.3c-0.4,0-0.5,0-0.5,0.8v0.2h-0.3v-3.5c0-1.4,0.9-2.4,1.9-2.4c1,0,1.8,1.1,1.8,2.3v1.7H176.1z M173.5,173.1
			c0-1.6-1.1-1.6-1.5-1.6c-0.5,0-1.5,0-1.5,1.6v0.9c0,0.5,0.1,0.5,0.4,0.5h2.7V173.1z"/>
		<path class="st0" d="M176.1,168.7c0.4-0.2,0.7-0.6,0.7-1.1c0-0.1,0-1-1-1.3c-0.1,0-0.1,0-0.1-0.1c0,0,0-0.1,0.1-0.1
			c0.2,0,1.3,0.4,1.3,1.7c0,1.1-1,2.2-2.3,2.2c-1.2,0-2.3-0.9-2.3-2.1c0-1.2,1-1.8,2-1.8c0.2,0,0.2,0,0.2,0.2v2.8
			C174.9,169,175.6,169,176.1,168.7z M174.4,166.7c-0.4,0-1.7,0.1-1.7,1.1c0,0.3,0.2,1.2,1.7,1.2V166.7z"/>
	</g>
	<g>
		<path class="st0" d="M172.5,162.8c0-0.4,0.3-0.7,0.6-0.7s0.4,0.2,0.4,0.4c0,0.2-0.1,0.4-0.4,0.4c-0.3,0-0.4-0.2-0.4-0.2
			c0,0,0,0,0,0.1c0,0.8,0.9,1.2,1.9,1.2h1.5c0.4,0,0.5,0,0.5-0.8V163h0.3c0,0.4,0,0.9,0,1.3c0,0.3,0,0.7,0,1.1h-0.3
			c0-0.7,0-0.8-0.4-0.8h-2.7c-0.5,0-0.6,0.1-0.6,0.8h-0.3l-0.1-1.4h1.1C173.1,163.9,172.5,163.5,172.5,162.8z"/>
		<path class="st0" d="M171.3,160.5c0,0.3-0.3,0.5-0.5,0.5c-0.3,0-0.5-0.2-0.5-0.5c0-0.3,0.2-0.5,0.5-0.5S171.3,160.2,171.3,160.5z
			 M176.1,160c0.4,0,0.4,0,0.4-0.7h0.3c0,0.3,0,0.7,0,1c0,0.2,0,0.8,0,1.1h-0.3c0-0.7,0-0.8-0.4-0.8h-2.7c-0.5,0-0.5,0.1-0.5,0.7
			h-0.3l-0.1-1.4H176.1z"/>
	</g>
	<g>
		<path class="st0" d="M177,156.5c0,1.2-1,2.2-2.2,2.2c-1.2,0-2.3-1-2.3-2.2c0-1.2,1.1-2.2,2.3-2.2C176,154.3,177,155.3,177,156.5z
			 M176,155.3c-0.4-0.2-1-0.2-1.3-0.2c-0.4,0-1,0-1.4,0.3c-0.4,0.3-0.6,0.7-0.6,1.1c0,0.4,0.2,0.9,0.7,1.1c0.4,0.2,1,0.2,1.4,0.2
			c0.4,0,1,0,1.4-0.2c0.5-0.3,0.7-0.7,0.7-1.1C176.7,156,176.4,155.6,176,155.3z"/>
		<path class="st0" d="M177,151.3c0,1.1-1,2.1-2.3,2.1c-1.3,0-2.3-1-2.3-2.2c0-0.5,0.3-1,0.6-1.3h-2.2c-0.5,0-0.6,0.1-0.6,0.8h-0.3
			l-0.1-1.4h6c0.5,0,0.6-0.1,0.6-0.8h0.3l0.1,1.5h-0.7C176.6,150.2,177,150.6,177,151.3z M173.3,150c-0.4,0.3-0.6,0.7-0.6,1.1
			c0,0.5,0.3,0.9,0.6,1.1c0.4,0.3,1,0.3,1.4,0.3c0.4,0,1,0,1.4-0.3c0.4-0.2,0.6-0.6,0.6-1c0-0.4-0.2-0.9-0.7-1.2
			c-0.2-0.1-0.2-0.1-0.4-0.1h-2C173.5,149.9,173.5,149.9,173.3,150z"/>
	</g>
	<g>
		<path class="st0" d="M171.3,146.9c0,0.3-0.3,0.5-0.5,0.5c-0.3,0-0.5-0.2-0.5-0.5c0-0.3,0.2-0.5,0.5-0.5S171.3,146.6,171.3,146.9z
			 M176.1,146.4c0.4,0,0.4,0,0.4-0.7h0.3c0,0.3,0,0.7,0,1c0,0.2,0,0.8,0,1.1h-0.3c0-0.7,0-0.8-0.4-0.8h-2.7c-0.5,0-0.5,0.1-0.5,0.7
			h-0.3l-0.1-1.4H176.1z"/>
		<path class="st0" d="M176.7,142.9c0-0.4-0.1-1-1-1.3c-0.1,0-0.1,0-0.1-0.1c0,0,0-0.1,0.1-0.1s1.3,0.3,1.3,1.7c0,1.2-1,2.1-2.3,2.1
			c-1.2,0-2.3-0.9-2.3-2.2c0-0.8,0.4-1.5,1.1-1.5c0.3,0,0.5,0.2,0.5,0.5c0,0.3-0.2,0.5-0.5,0.5c-0.1,0-0.4-0.1-0.5-0.5
			c-0.4,0.3-0.4,1-0.4,1.1c0,0.5,0.4,1.3,2,1.3C176.3,144.3,176.7,143.4,176.7,142.9z"/>
	</g>
	<g>
		<path class="st0" d="M170.9,136.5c-0.4,0-0.5,0-0.5,0.8v0.2h-0.3v-5.6l2.2-0.3v0.2c-1.4,0.2-1.9,0.4-1.9,2v1.3
			c0,0.5,0.1,0.5,0.4,0.5h2.4v-0.9c0-1-0.3-1.1-1.2-1.1v-0.2h2.6v0.2c-0.8,0-1.2,0.1-1.2,1.1v0.9h2.7c0.3,0,0.4,0,0.4-0.5v-1.3
			c0-1.7-0.7-1.9-2.3-2.2v-0.2l2.6,0.4v5.7h-0.3v-0.2c0-0.8-0.1-0.8-0.5-0.8H170.9z"/>
		<path class="st0" d="M176.3,126.9c0.3-0.2,0.3-0.4,0.3-0.9h0.3c0,0.3,0,0.7,0,1c0,0.2,0,0.8,0,1.1h-0.3c0-0.3-0.2-0.4-0.2-0.4
			c-0.1,0-0.2,0.1-0.3,0.2l-1,0.8c0.7,0.6,1,0.9,1.3,0.9c0.1,0,0.3-0.1,0.3-0.3h0.3c0,0.2,0,0.7,0,0.9c0,0.3,0,0.6,0,0.8h-0.3
			c0-0.2,0-0.8-0.6-1.3l-1.2-0.9l-1.3,1c-0.6,0.5-0.6,0.5-0.6,1.2h-0.3c0-0.3,0-0.7,0-0.9c0-0.2,0-0.8,0-1.1h0.3
			c0,0.2,0.1,0.3,0.2,0.3c0.1,0,0.1,0,0.2-0.1l1-0.8l-0.8-0.6c-0.1,0-0.2-0.1-0.3-0.1c-0.2,0-0.3,0.1-0.3,0.3h-0.3c0-0.1,0-0.7,0-1
			c0-0.3,0-0.6,0-0.8h0.3c0,0.5,0.2,0.9,0.5,1.2c0.3,0.2,0.7,0.6,1.1,0.9L176.3,126.9z"/>
		<path class="st0" d="M175.7,124.1c0.2,0,1.1,0,1.1-0.7c0-0.4-0.4-0.7-1.1-0.7h-0.5v-0.2h0.6c0.6,0,1.3,0.3,1.3,1
			c0,0.4-0.1,1.3-1.3,1.3h-2.8v0.8h-0.2c0-1-1.1-1.3-1.9-1.3v-0.2h1.8v-1.4h0.3v1.4H175.7z"/>
		<path class="st0" d="M176.1,120.5c0.4-0.2,0.7-0.6,0.7-1.1c0-0.1,0-1-1-1.3c-0.1,0-0.1,0-0.1-0.1c0,0,0-0.1,0.1-0.1
			c0.2,0,1.3,0.4,1.3,1.7c0,1.1-1,2.2-2.3,2.2c-1.2,0-2.3-0.9-2.3-2.1c0-1.2,1-1.8,2-1.8c0.2,0,0.2,0,0.2,0.2v2.8
			C174.9,120.8,175.6,120.8,176.1,120.5z M174.4,118.5c-0.4,0-1.7,0.1-1.7,1.1c0,0.3,0.2,1.2,1.7,1.2V118.5z"/>
		<path class="st0" d="M172.9,117.2h-0.3l-0.1-1.4h1c-0.6-0.3-1-0.7-1-1.5c0-0.6,0.2-0.9,0.4-1c0.4-0.3,0.7-0.3,1.5-0.3h1.9
			c0.3,0,0.3-0.3,0.3-0.8h0.3c0,0.3,0,0.9,0,1.1c0,0.3,0,0.8,0,1.1h-0.3c0-0.7,0-0.8-0.4-0.8h-2.3c-0.6,0-1.1,0.1-1.1,0.7
			c0,0.6,0.6,1.3,1.6,1.3h1.8c0.4,0,0.4-0.1,0.4-0.8h0.3c0,0.3,0,0.9,0,1.1c0,0.3,0,0.8,0,1.1h-0.3c0-0.7,0-0.8-0.4-0.8h-2.7
			C173,116.4,172.9,116.5,172.9,117.2z"/>
		<path class="st0" d="M177,109.5c0,1.1-1,2.1-2.3,2.1c-1.3,0-2.3-1-2.3-2.2c0-0.5,0.3-1,0.6-1.3h-2.2c-0.5,0-0.6,0.1-0.6,0.8h-0.3
			l-0.1-1.4h6c0.5,0,0.6-0.1,0.6-0.8h0.3l0.1,1.5h-0.7C176.6,108.4,177,108.9,177,109.5z M173.3,108.3c-0.4,0.3-0.6,0.7-0.6,1.1
			c0,0.5,0.3,0.9,0.6,1.1c0.4,0.3,1,0.3,1.4,0.3c0.4,0,1,0,1.4-0.3c0.4-0.2,0.6-0.6,0.6-1c0-0.4-0.2-0.9-0.7-1.2
			c-0.2-0.1-0.2-0.1-0.4-0.1h-2C173.5,108.2,173.5,108.2,173.3,108.3z"/>
	</g>
	<polygon class="st3" points="180.4,141.6 180.4,177.1 145,177.1 145,106.2 180.4,106.2 	"/>
	<g>
		<path class="st0" d="M233.1,59.6h1.6c1.8,0,2-0.9,2.1-2.3h0.2l-0.2,2.7h-4.6c-0.2,0-0.3,0-0.3-0.2c0-0.1,0-0.1,0.1-0.2l3.9-6.1
			h-1.6c-1.6,0-1.9,0.8-2,1.9h-0.2l0.1-2.2h4.5c0.2,0,0.3,0,0.3,0.2c0,0.1,0,0.1-0.1,0.2L233.1,59.6z"/>
		<path class="st0" d="M239,59.2c0.2,0.4,0.6,0.7,1.1,0.7c0.1,0,1,0,1.3-1c0-0.1,0-0.1,0.1-0.1c0,0,0.1,0,0.1,0.1
			c0,0.2-0.4,1.3-1.7,1.3c-1.1,0-2.2-1-2.2-2.3c0-1.2,0.9-2.3,2.1-2.3c1.2,0,1.8,1,1.8,2c0,0.2,0,0.2-0.2,0.2h-2.8
			C238.7,58,238.7,58.7,239,59.2z M241.1,57.5c0-0.4-0.1-1.7-1.1-1.7c-0.3,0-1.2,0.2-1.2,1.7H241.1z"/>
		<path class="st0" d="M245,55.6c0.4,0,0.7,0.3,0.7,0.6s-0.2,0.4-0.4,0.4c-0.2,0-0.4-0.1-0.4-0.4c0-0.3,0.2-0.4,0.2-0.4
			c0,0,0,0-0.1,0c-0.8,0-1.2,0.9-1.2,1.9v1.5c0,0.4,0,0.5,0.8,0.5h0.2V60c-0.4,0-0.9,0-1.3,0c-0.3,0-0.7,0-1.1,0v-0.3
			c0.7,0,0.8,0,0.8-0.4v-2.7c0-0.5-0.1-0.6-0.8-0.6v-0.3l1.4-0.1v1.1C243.9,56.2,244.2,55.6,245,55.6z"/>
		<path class="st0" d="M248.5,60.1c-1.2,0-2.2-1-2.2-2.2c0-1.2,1-2.3,2.2-2.3c1.2,0,2.2,1.1,2.2,2.3
			C250.7,59.1,249.7,60.1,248.5,60.1z M249.7,59.1c0.2-0.4,0.2-1,0.2-1.3c0-0.4,0-1-0.3-1.4c-0.3-0.4-0.7-0.6-1.1-0.6
			c-0.4,0-0.9,0.2-1.1,0.7c-0.2,0.4-0.2,1-0.2,1.4c0,0.4,0,1,0.2,1.4c0.3,0.5,0.7,0.7,1.1,0.7C249,59.8,249.5,59.6,249.7,59.1z"/>
	</g>
	<g>
		<path class="st0" d="M256.4,59.2c0,0.4,0,0.5,0.8,0.5h0.2V60c-0.3,0-1.1,0-1.5,0s-1.1,0-1.5,0v-0.3h0.2c0.8,0,0.8-0.1,0.8-0.5V54
			c0-0.4,0-0.5-0.8-0.5h-0.2v-0.3h3.5c1.4,0,2.4,0.9,2.4,1.9c0,1-1.1,1.8-2.3,1.8h-1.7V59.2z M257.8,56.6c1.6,0,1.6-1.1,1.6-1.5
			c0-0.5,0-1.5-1.6-1.5h-0.9c-0.5,0-0.5,0.1-0.5,0.4v2.7H257.8z"/>
		<path class="st0" d="M262.8,60.1c-0.6,0-1.6-0.2-1.6-1.1c0-0.4,0.2-1,1-1.3c0.6-0.3,1.3-0.3,1.8-0.4V57c0-0.9-0.6-1.3-1.1-1.3
			c-0.3,0-0.8,0.1-1.1,0.5c0.5,0,0.5,0.3,0.5,0.5c0,0.3-0.2,0.5-0.5,0.5c-0.3,0-0.5-0.2-0.5-0.5c0-0.7,0.7-1.1,1.5-1.1
			c0.5,0,1,0.2,1.4,0.5c0.4,0.4,0.4,0.8,0.4,1.2v2c0,0,0,0.5,0.4,0.5c0.1,0,0.4-0.1,0.4-0.6v-0.6h0.2v0.6c0,0.8-0.6,0.9-0.8,0.9
			c-0.5,0-0.7-0.4-0.8-0.8C263.9,59.7,263.4,60.1,262.8,60.1z M261.9,59c0,0.5,0.4,0.8,0.9,0.8c0.4,0,1.2-0.3,1.2-1.3v-1
			C262.4,57.7,261.9,58.5,261.9,59z"/>
	</g>
	<g>
		<path class="st0" d="M268.2,60.1c-1.1,0-2.1-1-2.1-2.3c0-1.3,1-2.3,2.2-2.3c0.5,0,1,0.3,1.3,0.6V54c0-0.5-0.1-0.6-0.8-0.6v-0.3
			l1.4-0.1v6c0,0.5,0.1,0.6,0.8,0.6V60l-1.5,0.1v-0.7C269.3,59.8,268.9,60.1,268.2,60.1z M269.5,56.4c-0.3-0.4-0.7-0.6-1.1-0.6
			c-0.5,0-0.9,0.3-1.1,0.6c-0.3,0.4-0.3,1-0.3,1.4c0,0.4,0,1,0.3,1.4c0.2,0.4,0.6,0.6,1,0.6c0.4,0,0.9-0.2,1.2-0.7
			c0.1-0.2,0.1-0.2,0.1-0.4v-2C269.6,56.6,269.6,56.6,269.5,56.4z"/>
	</g>
	<g>
		<path class="st0" d="M251.5,70.2c0,0.1,0,0.3-0.2,0.3s-0.2-0.2-0.2-0.3v-2.8h-2.8c-0.1,0-0.3,0-0.3-0.2c0-0.2,0.2-0.2,0.3-0.2h2.8
			v-2.8c0-0.1,0-0.3,0.2-0.3s0.2,0.2,0.2,0.3V67h2.8c0.1,0,0.3,0,0.3,0.2c0,0.2-0.2,0.2-0.3,0.2h-2.8V70.2z"/>
	</g>
	<g>
		<path class="st0" d="M218.4,80.4c0,0.4,0,0.5,0.8,0.5h0.2v0.3c-0.3,0-1.1,0-1.5,0c-0.4,0-1.1,0-1.5,0v-0.3h0.2
			c0.8,0,0.8-0.1,0.8-0.5v-5.3c0-0.4,0-0.5-0.8-0.5h-0.2v-0.3h3.5c1.4,0,2.4,0.9,2.4,1.9c0,1-1.1,1.8-2.3,1.8h-1.7V80.4z
			 M219.7,77.8c1.6,0,1.6-1.1,1.6-1.5c0-0.5,0-1.5-1.6-1.5h-0.9c-0.5,0-0.5,0.1-0.5,0.4v2.7H219.7z"/>
		<path class="st0" d="M224.1,80.4c0.2,0.4,0.6,0.7,1.1,0.7c0.1,0,1,0,1.3-1c0-0.1,0-0.1,0.1-0.1c0,0,0.1,0,0.1,0.1
			c0,0.2-0.4,1.3-1.7,1.3c-1.1,0-2.2-1-2.2-2.3c0-1.2,0.9-2.3,2.1-2.3c1.2,0,1.8,1,1.8,2c0,0.2,0,0.2-0.2,0.2h-2.8
			C223.8,79.3,223.8,79.9,224.1,80.4z M226.2,78.7c0-0.4-0.1-1.7-1.1-1.7c-0.3,0-1.2,0.2-1.2,1.7H226.2z"/>
	</g>
	<g>
		<path class="st0" d="M230,76.8c0.4,0,0.7,0.3,0.7,0.6s-0.2,0.4-0.4,0.4c-0.2,0-0.4-0.1-0.4-0.4c0-0.3,0.2-0.4,0.2-0.4
			c0,0,0,0-0.1,0c-0.8,0-1.2,0.9-1.2,1.9v1.5c0,0.4,0,0.5,0.8,0.5h0.2v0.3c-0.4,0-0.9,0-1.3,0c-0.3,0-0.7,0-1.1,0v-0.3
			c0.7,0,0.8,0,0.8-0.4v-2.7c0-0.5-0.1-0.6-0.8-0.6v-0.3l1.4-0.1v1.1C229,77.5,229.3,76.8,230,76.8z"/>
		<path class="st0" d="M232.9,80.5c0,0.4,0,0.4,0.7,0.4v0.3c-0.3,0-0.7,0-1,0c-0.2,0-0.8,0-1.1,0v-0.3c0.7,0,0.8,0,0.8-0.4v-2.7
			c0-0.5-0.1-0.5-0.7-0.5v-0.3l1.4-0.1V80.5z M232.4,75.6c-0.3,0-0.5-0.3-0.5-0.5c0-0.3,0.2-0.5,0.5-0.5c0.3,0,0.5,0.2,0.5,0.5
			S232.7,75.6,232.4,75.6z"/>
	</g>
	<g>
		<path class="st0" d="M236.4,81.3c-1.2,0-2.2-1-2.2-2.2c0-1.2,1-2.3,2.2-2.3c1.2,0,2.2,1.1,2.2,2.3
			C238.6,80.4,237.6,81.3,236.4,81.3z M237.5,80.4c0.2-0.4,0.2-1,0.2-1.3c0-0.4,0-1-0.3-1.4c-0.3-0.4-0.7-0.6-1.1-0.6
			c-0.4,0-0.9,0.2-1.1,0.7c-0.2,0.4-0.2,1-0.2,1.4c0,0.4,0,1,0.2,1.4c0.3,0.5,0.7,0.7,1.1,0.7C236.9,81.1,237.3,80.8,237.5,80.4z"/>
		<path class="st0" d="M241.6,81.3c-1.1,0-2.1-1-2.1-2.3c0-1.3,1-2.3,2.2-2.3c0.5,0,1,0.3,1.3,0.6v-2.2c0-0.5-0.1-0.6-0.8-0.6v-0.3
			l1.4-0.1v6c0,0.5,0.1,0.6,0.8,0.6v0.3l-1.5,0.1v-0.7C242.7,81,242.2,81.3,241.6,81.3z M242.8,77.6c-0.3-0.4-0.7-0.6-1.1-0.6
			c-0.5,0-0.9,0.3-1.1,0.6c-0.3,0.4-0.3,1-0.3,1.4c0,0.4,0,1,0.3,1.4c0.2,0.4,0.6,0.6,1,0.6c0.4,0,0.9-0.2,1.2-0.7
			c0.1-0.2,0.1-0.2,0.1-0.4v-2C242.9,77.8,242.9,77.8,242.8,77.6z"/>
	</g>
	<g>
		<path class="st0" d="M246.4,80.5c0,0.4,0,0.4,0.7,0.4v0.3c-0.3,0-0.7,0-1,0c-0.2,0-0.8,0-1.1,0v-0.3c0.7,0,0.8,0,0.8-0.4v-2.7
			c0-0.5-0.1-0.5-0.7-0.5v-0.3l1.4-0.1V80.5z M245.9,75.6c-0.3,0-0.5-0.3-0.5-0.5c0-0.3,0.2-0.5,0.5-0.5c0.3,0,0.5,0.2,0.5,0.5
			S246.2,75.6,245.9,75.6z"/>
		<path class="st0" d="M250,81.1c0.4,0,1-0.1,1.3-1c0-0.1,0-0.1,0.1-0.1c0,0,0.1,0,0.1,0.1s-0.3,1.3-1.7,1.3c-1.2,0-2.1-1-2.1-2.3
			c0-1.2,0.9-2.3,2.2-2.3c0.8,0,1.5,0.4,1.5,1.1c0,0.3-0.2,0.5-0.5,0.5c-0.3,0-0.5-0.2-0.5-0.5c0-0.1,0.1-0.4,0.5-0.5
			c-0.3-0.4-1-0.4-1.1-0.4c-0.5,0-1.3,0.4-1.3,2C248.6,80.7,249.5,81.1,250,81.1z"/>
	</g>
	<g>
		<path class="st0" d="M256.3,75.2c0-0.4,0-0.5-0.8-0.5h-0.2v-0.3h5.6l0.3,2.2H261c-0.2-1.4-0.4-1.9-2-1.9h-1.3
			c-0.5,0-0.5,0.1-0.5,0.4v2.4h0.9c1,0,1.1-0.3,1.1-1.2h0.2V79h-0.2c0-0.8-0.1-1.2-1.1-1.2h-0.9v2.7c0,0.3,0,0.4,0.5,0.4h1.3
			c1.7,0,1.9-0.7,2.2-2.3h0.2l-0.4,2.6h-5.7v-0.3h0.2c0.8,0,0.8-0.1,0.8-0.5V75.2z"/>
		<path class="st0" d="M266,80.6c0.2,0.3,0.4,0.3,0.9,0.3v0.3c-0.3,0-0.7,0-1,0c-0.2,0-0.8,0-1.1,0v-0.3c0.3,0,0.4-0.2,0.4-0.2
			c0-0.1-0.1-0.2-0.2-0.3l-0.8-1c-0.6,0.7-0.9,1-0.9,1.3c0,0.1,0.1,0.3,0.3,0.3v0.3c-0.2,0-0.7,0-0.9,0c-0.3,0-0.6,0-0.8,0v-0.3
			c0.2,0,0.8,0,1.3-0.6l0.9-1.2l-1-1.3c-0.5-0.6-0.5-0.6-1.2-0.6v-0.3c0.3,0,0.7,0,0.9,0c0.2,0,0.8,0,1.1,0v0.3
			c-0.2,0-0.3,0.1-0.3,0.2c0,0.1,0,0.1,0.1,0.2l0.8,1l0.6-0.8c0-0.1,0.1-0.2,0.1-0.3c0-0.2-0.1-0.3-0.3-0.3v-0.3c0.1,0,0.7,0,1,0
			c0.3,0,0.6,0,0.8,0v0.3c-0.5,0-0.9,0.2-1.2,0.5c-0.2,0.3-0.6,0.7-0.9,1.1L266,80.6z"/>
		<path class="st0" d="M268.8,80c0,0.2,0,1.1,0.7,1.1c0.4,0,0.7-0.4,0.7-1.1v-0.5h0.2V80c0,0.6-0.3,1.3-1,1.3
			c-0.4,0-1.3-0.1-1.3-1.3v-2.8h-0.8V77c1,0,1.3-1.1,1.3-1.9h0.2v1.8h1.4v0.3h-1.4V80z"/>
		<path class="st0" d="M272.3,80.4c0.2,0.4,0.6,0.7,1.1,0.7c0.1,0,1,0,1.3-1c0-0.1,0-0.1,0.1-0.1c0,0,0.1,0,0.1,0.1
			c0,0.2-0.4,1.3-1.7,1.3c-1.1,0-2.2-1-2.2-2.3c0-1.2,0.9-2.3,2.1-2.3c1.2,0,1.8,1,1.8,2c0,0.2,0,0.2-0.2,0.2H272
			C272,79.3,272,79.9,272.3,80.4z M274.4,78.7c0-0.4-0.1-1.7-1.1-1.7c-0.3,0-1.2,0.2-1.2,1.7H274.4z"/>
		<path class="st0" d="M275.7,77.2v-0.3l1.4-0.1v1c0.3-0.6,0.7-1,1.5-1c0.6,0,0.9,0.2,1,0.4c0.3,0.4,0.3,0.7,0.3,1.5v1.9
			c0,0.3,0.3,0.3,0.8,0.3v0.3c-0.3,0-0.9,0-1.1,0c-0.3,0-0.8,0-1.1,0v-0.3c0.7,0,0.8,0,0.8-0.4v-2.3c0-0.6-0.1-1.1-0.7-1.1
			c-0.6,0-1.3,0.6-1.3,1.6v1.8c0,0.4,0.1,0.4,0.8,0.4v0.3c-0.3,0-0.9,0-1.1,0c-0.3,0-0.8,0-1.1,0v-0.3c0.7,0,0.8,0,0.8-0.4v-2.7
			C276.4,77.3,276.4,77.2,275.7,77.2z"/>
		<path class="st0" d="M283.3,81.3c-1.1,0-2.1-1-2.1-2.3c0-1.3,1-2.3,2.2-2.3c0.5,0,1,0.3,1.3,0.6v-2.2c0-0.5-0.1-0.6-0.8-0.6v-0.3
			l1.4-0.1v6c0,0.5,0.1,0.6,0.8,0.6v0.3l-1.5,0.1v-0.7C284.4,81,284,81.3,283.3,81.3z M284.6,77.6c-0.3-0.4-0.7-0.6-1.1-0.6
			c-0.5,0-0.9,0.3-1.1,0.6c-0.3,0.4-0.3,1-0.3,1.4c0,0.4,0,1,0.3,1.4c0.2,0.4,0.6,0.6,1,0.6c0.4,0,0.9-0.2,1.2-0.7
			c0.1-0.2,0.1-0.2,0.1-0.4v-2C284.7,77.8,284.7,77.8,284.6,77.6z"/>
	</g>
	<polygon class="st3" points="215.8,67.2 215.8,84.9 286.7,84.9 286.7,49.5 215.8,49.5 	"/>
	<g>
		<path class="st0" d="M243.5,199.9c0,1.1-0.8,2.1-2,2.1c-0.9,0-1.5-0.4-1.8-0.7c-0.3,0.5-0.4,0.6-0.4,0.6c-0.1,0.1-0.1,0.1-0.1,0.1
			c-0.1,0-0.1-0.1-0.1-0.2v-2c0-0.2,0-0.2,0.1-0.2c0,0,0.1,0,0.1,0.1c0,0.4,0,1,0.6,1.5c0.5,0.5,1.3,0.5,1.6,0.5
			c0.8,0,1.3-0.7,1.3-1.4c0-0.3-0.1-0.7-0.3-0.9c-0.3-0.4-0.6-0.4-0.8-0.5c-0.7-0.2-1.2-0.3-1.3-0.3c-0.8-0.3-1.3-1-1.3-1.8
			c0-1.1,0.8-1.9,1.9-1.9c0.9,0,1.3,0.4,1.6,0.7l0.3-0.6c0.1-0.1,0.1-0.1,0.1-0.1c0.1,0,0.1,0.1,0.1,0.2v2c0,0.2,0,0.2-0.1,0.2
			c-0.1,0-0.1-0.1-0.1-0.1c-0.1-0.4-0.3-2.1-1.9-2.1c-0.8,0-1.3,0.6-1.3,1.3c0,0.6,0.4,1.1,1,1.3l1.3,0.3
			C242.9,198,243.5,198.9,243.5,199.9z"/>
		<path class="st0" d="M245.5,200.9c0.2,0.4,0.6,0.7,1.1,0.7c0.1,0,1,0,1.3-1c0-0.1,0-0.1,0.1-0.1c0,0,0.1,0,0.1,0.1
			c0,0.2-0.4,1.3-1.7,1.3c-1.1,0-2.2-1-2.2-2.3c0-1.2,0.9-2.3,2.1-2.3c1.2,0,1.8,1,1.8,2c0,0.2,0,0.2-0.2,0.2h-2.8
			C245.2,199.8,245.2,200.4,245.5,200.9z M247.6,199.2c0-0.4-0.1-1.7-1.1-1.7c-0.3,0-1.2,0.3-1.2,1.7H247.6z"/>
		<path class="st0" d="M250.3,200.9c0,0.4,0.1,0.4,0.8,0.4v0.3c-0.4,0-0.9,0-1.1,0s-0.8,0-1.1,0v-0.3c0.7,0,0.8,0,0.8-0.4v-5.2
			c0-0.5-0.1-0.6-0.8-0.6v-0.3l1.4-0.1V200.9z"/>
		<path class="st0" d="M252.7,200.9c0.2,0.4,0.6,0.7,1.1,0.7c0.1,0,1,0,1.3-1c0-0.1,0-0.1,0.1-0.1c0,0,0.1,0,0.1,0.1
			c0,0.2-0.4,1.3-1.7,1.3c-1.1,0-2.2-1-2.2-2.3c0-1.2,0.9-2.3,2.1-2.3c1.2,0,1.8,1,1.8,2c0,0.2,0,0.2-0.2,0.2h-2.8
			C252.4,199.8,252.4,200.4,252.7,200.9z M254.8,199.2c0-0.4-0.1-1.7-1.1-1.7c-0.3,0-1.2,0.3-1.2,1.7H254.8z"/>
		<path class="st0" d="M258.3,201.6c0.4,0,1-0.1,1.3-1c0-0.1,0-0.1,0.1-0.1c0,0,0.1,0,0.1,0.1s-0.3,1.3-1.7,1.3
			c-1.2,0-2.1-1-2.1-2.3c0-1.2,0.9-2.3,2.2-2.3c0.8,0,1.5,0.4,1.5,1.1c0,0.3-0.2,0.5-0.5,0.5c-0.3,0-0.5-0.2-0.5-0.5
			c0-0.1,0.1-0.4,0.5-0.5c-0.3-0.4-1-0.4-1.1-0.4c-0.5,0-1.3,0.4-1.3,2C256.9,201.1,257.8,201.6,258.3,201.6z"/>
		<path class="st0" d="M261.9,200.5c0,0.2,0,1.1,0.7,1.1c0.4,0,0.7-0.4,0.7-1.1v-0.5h0.2v0.6c0,0.6-0.3,1.3-1,1.3
			c-0.4,0-1.3-0.1-1.3-1.3v-2.8h-0.8v-0.2c1,0,1.3-1.1,1.3-1.9h0.2v1.8h1.4v0.3h-1.4V200.5z"/>
	</g>
	<polygon class="st3" points="233.5,198.3 233.5,205.4 269,205.4 269,191.2 233.5,191.2 	"/>
	<polyline points="249,222.1 251.3,226.7 253.5,222.1 251.3,223.3 	"/>
	<line class="st3" x1="251.3" y1="205.4" x2="251.3" y2="223.3"/>
	<g>
		<path class="st0" d="M268.1,227.4c-0.3,1.1-1.3,2-2.3,2c-0.6,0-1.1-0.4-1.1-0.9c0-0.5,0.3-0.6,0.6-0.6c0.1,0,0.4,0,0.4,0.3
			c0,0.2-0.1,0.3-0.2,0.4c-0.1,0.1-0.3,0.1-0.4,0.1c0.2,0.4,0.6,0.4,0.8,0.4c0.5,0,0.8-0.3,1.1-0.6c0.4-0.5,0.5-1,0.6-1.5
			c-0.3,0.3-0.6,0.4-1,0.4c-0.6,0-1.2-0.3-1.2-1.2c0-0.5,0.2-1,0.6-2.1c0.1-0.2,0.2-0.4,0.2-0.7c0-0.3-0.2-0.3-0.2-0.3
			c-0.3,0-0.7,0.3-1,1.2c0,0.2-0.1,0.2-0.2,0.2c0,0-0.1,0-0.1-0.1c0-0.1,0.4-1.5,1.3-1.5c0.5,0,0.8,0.4,0.8,0.8c0,0.2,0,0.3-0.2,0.7
			c-0.3,0.9-0.5,1.5-0.5,2c0,0.4,0.1,0.8,0.6,0.8c0.7,0,1.1-0.7,1.1-0.8l0.4-1.8c0.1-0.3,0.1-0.5,0.2-0.8c0-0.2,0.1-0.5,0.1-0.5
			c0.1-0.1,0.2-0.2,0.3-0.2c0.1,0,0.3,0.1,0.3,0.3c0,0.1,0,0.1,0,0.2L268.1,227.4z"/>
	</g>
	<g>
		<path class="st0" d="M270.7,229.9v-10h1.4v0.4h-1v9.2h1v0.4H270.7z"/>
	</g>
	<g>
		<path class="st0" d="M273.7,224.5c0.1-0.5,0.2-0.6,0.2-0.8c0-0.3-0.1-0.5-0.3-0.5c-0.4,0-0.6,0.5-0.7,1.2
			c-0.1,0.2-0.1,0.2-0.2,0.2c0,0-0.1,0-0.1-0.1c0,0,0.1-0.6,0.3-1c0.1-0.2,0.3-0.6,0.7-0.6c0.5,0,0.9,0.3,0.9,0.9
			c0.2-0.2,0.7-0.9,1.6-0.9c0.7,0,1.1,0.4,1.1,1.1c0,0.6-0.4,1.7-0.6,2.2c-0.1,0.2-0.2,0.5-0.2,0.7c0,0.2,0.1,0.3,0.2,0.3
			c0.5,0,0.8-0.6,1-1.2c0.1-0.1,0.1-0.2,0.2-0.2c0,0,0.1,0,0.1,0.1c0,0.1-0.4,1.5-1.3,1.5c-0.5,0-0.8-0.3-0.8-0.8
			c0-0.1,0-0.2,0.1-0.5c0.2-0.4,0.6-1.7,0.6-2.3c0-0.3-0.1-0.7-0.5-0.7c-0.9,0-1.5,0.9-1.6,1.2c0,0-0.1,0.3-0.1,0.5
			c0,0.2-0.1,0.4-0.2,0.7l-0.2,0.9c-0.1,0.2-0.2,0.7-0.2,0.7c-0.1,0.2-0.2,0.3-0.4,0.3c-0.1,0-0.3-0.1-0.3-0.3c0,0,0.1-0.3,0.1-0.4
			L273.7,224.5z"/>
	</g>
	<g>
		<path class="st0" d="M279.9,229.9h-1.4v-0.4h1v-9.2h-1v-0.4h1.4V229.9z"/>
	</g>
	<polygon class="st7" points="137.9,127.4 137.9,212.5 308,212.5 308,42.4 137.9,42.4 	"/>
	<polyline points="140.4,143.9 145,141.6 140.4,139.4 141.6,141.6 	"/>
	<line class="st3" x1="116.6" y1="141.6" x2="141.6" y2="141.6"/>
	<g>
		<path class="st0" d="M115.7,131.9c0.4-0.5,0.8-0.8,1.5-0.8c0.7,0,1.1,0.4,1.1,1.1c0,0.6-0.4,1.8-0.6,2.2c-0.1,0.2-0.2,0.5-0.2,0.7
			c0,0.2,0.1,0.3,0.2,0.3c0.5,0,0.9-0.7,1-1.2c0-0.1,0-0.2,0.1-0.2c0,0,0.1,0,0.1,0.1c0,0.1-0.4,1.5-1.3,1.5c-0.5,0-0.8-0.3-0.8-0.8
			c0-0.2,0-0.3,0.1-0.5c0.2-0.6,0.6-1.7,0.6-2.2c0-0.4-0.1-0.7-0.5-0.7c-0.4,0-0.7,0.2-1,0.3c-0.3,0.3-0.6,0.8-0.7,0.9
			c0,0.1-0.1,0.4-0.1,0.4c0,0.2-0.1,0.4-0.2,0.7l-0.2,0.9l-0.2,0.8c0,0.1-0.2,0.3-0.4,0.3c-0.1,0-0.3,0-0.3-0.3c0-0.1,0-0.1,0-0.2
			l1.4-5.7l0-0.2c0-0.1,0-0.2-0.5-0.2c-0.1,0-0.2,0-0.2-0.1c0-0.2,0.1-0.2,0.2-0.2c0.3,0,1-0.1,1.2-0.1c0.1,0,0.1,0.1,0.1,0.1
			L115.7,131.9z"/>
	</g>
	<g>
		<path class="st0" d="M120.6,138.1v-10h1.4v0.4h-1v9.2h1v0.4H120.6z"/>
	</g>
	<g>
		<path class="st0" d="M123.6,132.7c0.1-0.5,0.2-0.6,0.2-0.8c0-0.3-0.1-0.5-0.3-0.5c-0.4,0-0.6,0.5-0.7,1.2
			c-0.1,0.2-0.1,0.2-0.2,0.2c0,0-0.1,0-0.1-0.1c0,0,0.1-0.6,0.3-1c0.1-0.2,0.3-0.6,0.7-0.6c0.5,0,0.9,0.3,0.9,0.9
			c0.2-0.2,0.7-0.9,1.6-0.9c0.7,0,1.1,0.4,1.1,1.1c0,0.6-0.4,1.7-0.6,2.2c-0.1,0.2-0.2,0.5-0.2,0.7c0,0.2,0.1,0.3,0.2,0.3
			c0.5,0,0.8-0.6,1-1.2c0-0.1,0-0.2,0.1-0.2c0,0,0.1,0,0.1,0.1c0,0.1-0.4,1.5-1.3,1.5c-0.5,0-0.8-0.3-0.8-0.8c0-0.1,0-0.2,0.1-0.5
			c0.2-0.4,0.6-1.7,0.6-2.3c0-0.3-0.1-0.7-0.5-0.7c-0.9,0-1.5,0.9-1.6,1.2c0,0-0.1,0.3-0.1,0.5c0,0.2-0.1,0.4-0.2,0.7l-0.2,0.9
			c-0.1,0.2-0.2,0.7-0.2,0.7c-0.1,0.2-0.2,0.3-0.4,0.3c-0.1,0-0.3-0.1-0.3-0.3c0,0,0.1-0.3,0.1-0.4L123.6,132.7z"/>
	</g>
	<g>
		<path class="st0" d="M129.7,138.1h-1.4v-0.4h1v-9.2h-1v-0.4h1.4V138.1z"/>
	</g>
	<polyline points="249,45 251.3,49.5 253.5,45 251.3,46.1 	"/>
	<line class="st3" x1="251.3" y1="28.2" x2="251.3" y2="46.1"/>
	<g>
		<path class="st0" d="M265.2,30.9c-0.1,0.4-0.2,0.7-0.2,0.9c0,0.3,0.2,0.7,0.5,0.7c0.3,0,1-0.2,1.3-1.3c0-0.1,0-0.1,0.1-0.1
			c0,0,0.1,0,0.1,0.1c0,0.2-0.6,1.5-1.6,1.5c-0.6,0-1-0.4-1.1-0.8c0,0.1-0.4,0.8-1,0.8c-0.4,0-0.9-0.2-0.9-0.7
			c0-0.3,0.2-0.6,0.5-0.6c0.1,0,0.4,0.1,0.4,0.3c0,0.3-0.2,0.5-0.5,0.5c0.2,0.1,0.4,0.1,0.5,0.1c0.4,0,0.8-0.4,0.9-1
			c0.4-1.4,0.5-2.1,0.5-2.4c0-0.6-0.3-0.7-0.5-0.7c-0.3,0-1,0.2-1.3,1.3c0,0.1,0,0.1-0.1,0.1c0,0-0.1,0-0.1-0.1
			c0-0.2,0.6-1.5,1.6-1.5c0.3,0,0.8,0.1,1.1,0.8c0.1-0.2,0.5-0.8,1-0.8c0.3,0,0.9,0.1,0.9,0.7c0,0.4-0.3,0.6-0.5,0.6
			c-0.3,0-0.4-0.2-0.4-0.3c0-0.2,0.2-0.5,0.5-0.5c-0.2-0.1-0.4-0.1-0.5-0.1c-0.7,0-0.9,0.9-1,1.2L265.2,30.9z"/>
	</g>
	<g>
		<path class="st0" d="M269,35V25h1.4v0.4h-1v9.2h1V35H269z"/>
	</g>
	<g>
		<path class="st0" d="M272,29.6c0.1-0.5,0.2-0.6,0.2-0.8c0-0.3-0.1-0.5-0.3-0.5c-0.4,0-0.6,0.5-0.7,1.2c-0.1,0.2-0.1,0.2-0.2,0.2
			c0,0-0.1,0-0.1-0.1c0,0,0.1-0.6,0.3-1c0.1-0.2,0.3-0.6,0.7-0.6c0.5,0,0.9,0.3,0.9,0.9c0.2-0.2,0.7-0.9,1.6-0.9
			c0.7,0,1.1,0.4,1.1,1.1c0,0.6-0.4,1.7-0.6,2.2c-0.1,0.2-0.2,0.5-0.2,0.7c0,0.2,0.1,0.3,0.2,0.3c0.5,0,0.8-0.6,1-1.2
			c0.1-0.1,0.1-0.2,0.2-0.2c0,0,0.1,0,0.1,0.1c0,0.1-0.4,1.5-1.3,1.5c-0.5,0-0.8-0.3-0.8-0.8c0-0.1,0-0.2,0.1-0.5
			c0.2-0.4,0.6-1.7,0.6-2.3c0-0.3-0.1-0.7-0.5-0.7c-0.9,0-1.5,0.9-1.6,1.2c0,0-0.1,0.3-0.1,0.5c0,0.2-0.1,0.4-0.2,0.7l-0.2,0.9
			c-0.1,0.2-0.2,0.7-0.2,0.7c-0.1,0.2-0.2,0.3-0.4,0.3c-0.1,0-0.3-0.1-0.3-0.3c0-0.1,0.1-0.3,0.1-0.4L272,29.6z"/>
	</g>
	<g>
		<path class="st0" d="M278.2,35h-1.4v-0.4h1v-9.2h-1V25h1.4V35z"/>
	</g>
	<g>
		<path class="st0" d="M258.9,158c-0.3,1.1-1.3,2-2.3,2c-0.6,0-1.1-0.4-1.1-0.9c0-0.5,0.3-0.6,0.6-0.6c0.1,0,0.4,0,0.4,0.3
			c0,0.2-0.1,0.3-0.2,0.4c-0.1,0.1-0.3,0.1-0.4,0.1c0.2,0.4,0.6,0.4,0.8,0.4c0.5,0,0.8-0.3,1.1-0.6c0.4-0.5,0.5-1,0.6-1.5
			c-0.3,0.3-0.6,0.4-1,0.4c-0.6,0-1.2-0.3-1.2-1.2c0-0.5,0.2-1,0.6-2.1c0.1-0.2,0.2-0.4,0.2-0.7c0-0.3-0.2-0.3-0.2-0.3
			c-0.3,0-0.7,0.3-1,1.2c0,0.2-0.1,0.2-0.2,0.2c0,0-0.1,0-0.1-0.1c0-0.1,0.4-1.5,1.3-1.5c0.5,0,0.8,0.4,0.8,0.8c0,0.2,0,0.3-0.2,0.7
			c-0.3,0.9-0.5,1.5-0.5,2c0,0.4,0.1,0.8,0.6,0.8c0.7,0,1.1-0.7,1.1-0.8l0.4-1.8c0.1-0.3,0.1-0.5,0.2-0.8c0-0.2,0.1-0.5,0.1-0.5
			c0.1-0.1,0.2-0.2,0.3-0.2c0.1,0,0.3,0.1,0.3,0.3c0,0.1,0,0.1,0,0.2L258.9,158z"/>
	</g>
	<g>
		<path class="st0" d="M261.2,157.1c0,0,0-0.1,0-0.2c0-0.2,0-0.3-0.2-0.3c-0.3,0-0.4,0.3-0.5,0.8c0,0.2-0.1,0.2-0.2,0.2
			c0,0-0.1,0-0.1-0.1c0,0,0.1-0.5,0.3-0.7c0.1-0.2,0.3-0.4,0.6-0.4c0.2,0,0.6,0.1,0.7,0.5c0.2-0.2,0.6-0.5,1-0.5c0.5,0,1,0.3,1,1.2
			c0,1-0.9,2-1.8,2c-0.4,0-0.6-0.3-0.7-0.4c-0.1,0.3-0.2,0.7-0.3,1c0,0.1-0.1,0.3-0.1,0.3c0,0.1,0.2,0.1,0.3,0.1
			c0.1,0,0.2,0,0.2,0.1c0,0.1-0.1,0.2-0.1,0.2c-0.2,0-0.5,0-0.7,0c-0.2,0-0.4,0-0.6,0c0,0-0.1,0-0.1-0.1c0-0.1,0.1-0.1,0.2-0.1
			c0.3,0,0.3-0.1,0.3-0.3L261.2,157.1z M261.4,158.6c0,0,0,0.1,0,0.1c0,0.1,0.1,0.6,0.6,0.6c0.4,0,0.7-0.3,0.9-0.7
			c0.2-0.4,0.4-1.1,0.4-1.4c0-0.5-0.2-0.7-0.5-0.7c-0.2,0-0.6,0.1-1,0.6L261.4,158.6z"/>
	</g>
	<g>
		<path class="st0" d="M265.7,160.5v-10h1.4v0.4h-1v9.2h1v0.4H265.7z"/>
	</g>
	<g>
		<path class="st0" d="M268.7,155.1c0.1-0.5,0.2-0.6,0.2-0.8c0-0.3-0.1-0.5-0.3-0.5c-0.4,0-0.6,0.5-0.7,1.2
			c-0.1,0.2-0.1,0.2-0.2,0.2c0,0-0.1,0-0.1-0.1c0,0,0.1-0.6,0.3-1c0.1-0.2,0.3-0.6,0.7-0.6c0.5,0,0.9,0.3,0.9,0.9
			c0.2-0.2,0.7-0.9,1.6-0.9c0.7,0,1.1,0.4,1.1,1.1c0,0.6-0.4,1.7-0.6,2.2c-0.1,0.2-0.2,0.5-0.2,0.7c0,0.2,0.1,0.3,0.2,0.3
			c0.5,0,0.8-0.6,1-1.2c0.1-0.1,0.1-0.2,0.2-0.2c0,0,0.1,0,0.1,0.1c0,0.1-0.4,1.5-1.3,1.5c-0.5,0-0.8-0.3-0.8-0.8
			c0-0.1,0-0.2,0.1-0.5c0.2-0.4,0.6-1.7,0.6-2.3c0-0.3-0.1-0.7-0.5-0.7c-0.9,0-1.5,0.9-1.6,1.2c0,0-0.1,0.3-0.1,0.5
			c0,0.2-0.1,0.4-0.2,0.7l-0.2,0.9c-0.1,0.2-0.2,0.7-0.2,0.7c-0.1,0.2-0.2,0.3-0.4,0.3c-0.1,0-0.3-0.1-0.3-0.3c0,0,0.1-0.3,0.1-0.4
			L268.7,155.1z"/>
	</g>
	<g>
		<path class="st0" d="M274.8,160.5h-1.4v-0.4h1v-9.2h-1v-0.4h1.4V160.5z"/>
	</g>
	<path class="st3" d="M265.4,170h28.3 M293.8,170v7.1"/>
	<polyline points="267.7,167.4 265.4,162.9 263.2,167.4 265.4,166.3 	"/>
	<line class="st3" x1="265.4" y1="180.6" x2="265.4" y2="166.3"/>
	<polyline points="296.3,179.3 300.9,177.1 296.3,174.8 297.5,177.1 	"/>
	<line class="st3" x1="261.9" y1="177.1" x2="297.5" y2="177.1"/>
	<g>
		<path class="st0" d="M281.3,187.3c0,0.2,0,0.2-0.2,0.2c-0.1,0-0.1,0-0.2-0.2l-2.5-5.9c0-0.1,0-0.1-0.1-0.2l-1.3,5.3
			c0,0.1,0,0.2,0,0.2c0,0.2,0.1,0.4,0.7,0.4c0.1,0,0.2,0,0.2,0.1c0,0.2-0.1,0.2-0.2,0.2c-0.3,0-0.7,0-1,0c-0.3,0-0.7,0-1,0
			c-0.1,0-0.1,0-0.1-0.1c0-0.2,0.1-0.2,0.2-0.2c0.8,0,1-0.3,1.1-0.7l1.3-5.4c0-0.1-0.6-0.1-0.7-0.1c-0.2,0-0.3,0-0.3-0.1
			c0-0.2,0.1-0.2,0.3-0.2h1.3c0.2,0,0.2,0,0.3,0.2l2.2,5.2l1.1-4.4c0,0,0-0.2,0-0.2c0-0.2-0.1-0.4-0.7-0.4c-0.1,0-0.2,0-0.2-0.1
			c0-0.2,0.1-0.2,0.2-0.2c0.3,0,0.7,0,1,0c0.3,0,0.7,0,1,0c0.1,0,0.1,0.1,0.1,0.1c0,0.2-0.1,0.2-0.2,0.2c-0.8,0-1,0.3-1.1,0.7
			L281.3,187.3z"/>
	</g>
	<line class="st6" x1="293.8" y1="170" x2="300.9" y2="170"/>
	<g>
		<path class="st4" d="M382.7,5.1c0,0.2-0.1,0.2-0.2,0.2c0,0-0.1,0-0.1-0.1c0,0,0-0.3,0-0.6c0-0.9-0.4-1.8-1.4-1.8
			c-0.8,0-1.7,0.5-2.4,1.4c-0.8,1.1-1,2.7-1,3.3c0,1.4,0.9,2,1.7,2c0.8,0,2.1-0.6,2.6-2.3c0-0.1,0.1-0.1,0.2-0.1c0,0,0.1,0,0.1,0.1
			c0,0.5-1.1,2.6-3,2.6c-1.4,0-2.4-1-2.4-2.7c0-2.3,2.1-4.6,4.2-4.6c0.5,0,1.1,0.2,1.5,0.8l0.6-0.7c0.1-0.1,0.1-0.1,0.2-0.1
			c0.1,0,0.1,0.1,0.1,0.1c0,0,0,0.1,0,0.1L382.7,5.1z"/>
		<path class="st4" d="M384.3,9.6c-0.5,0-0.8-0.4-0.8-0.8c0-0.2,0-0.3,0.2-0.7c0.1-0.3,0.2-0.7,0.4-1l0.3-0.8
			c0.1-0.2,0.2-0.5,0.2-0.7c0-0.2-0.1-0.3-0.2-0.3c-0.6,0-0.8,0.9-0.9,1.3c0,0.1,0,0.2-0.2,0.2c0,0-0.1,0-0.1-0.1
			c0,0,0.3-1.5,1.3-1.5c0.4,0,0.7,0.2,0.7,0.8c0,0.2,0,0.3-0.1,0.6l-0.6,1.7c-0.1,0.4-0.3,0.7-0.3,1c0,0.3,0.1,0.3,0.2,0.3
			c0.6,0,0.8-1,0.9-1.2c0-0.1,0-0.2,0.2-0.2c0.1,0,0.1,0,0.1,0.1C385.6,8.1,385.3,9.6,384.3,9.6z M385.1,3.7c-0.1,0-0.3-0.1-0.3-0.3
			c0-0.3,0.3-0.5,0.5-0.5c0.1,0,0.3,0.1,0.3,0.3C385.6,3.5,385.3,3.7,385.1,3.7z"/>
	</g>
	<g>
		<path class="st4" d="M387.2,9.2c0,0.1-0.1,0.4-0.4,0.4c-0.2,0-0.3-0.1-0.3-0.3c0,0,0-0.1,0-0.1l0.7-3c0-0.2,0.1-0.3,0.1-0.5
			c0-0.1,0-0.4-0.3-0.4c-0.3,0-0.5,0.5-0.7,1.2c0,0.2-0.1,0.2-0.2,0.2c0,0-0.1,0-0.1-0.1c0,0,0.1-0.6,0.3-1c0.2-0.3,0.4-0.5,0.7-0.5
			c0.3,0,0.7,0.2,0.8,0.7c0.2-0.2,0.5-0.7,1.2-0.7c0.3,0,1,0.1,1,0.6c0,0.4-0.3,0.5-0.5,0.5c-0.3,0-0.3-0.2-0.3-0.3
			c0,0,0-0.4,0.4-0.5c-0.2-0.1-0.5-0.1-0.5-0.1c-0.9,0-1.3,1.3-1.3,1.3L387.2,9.2z"/>
		<path class="st4" d="M392.7,5.3c-0.4,0-0.9,0.3-1.3,1c-0.3,0.5-0.5,1.5-0.5,2.1c0,0.6,0.2,1,0.8,1c0.2,0,1.1,0,1.8-1
			c0.1-0.1,0.1-0.1,0.1-0.1c0.1,0,0.2,0.1,0.2,0.2c0,0.1-0.8,1.1-2.1,1.1c-0.9,0-1.5-0.7-1.5-1.6c0-1.5,1.3-2.9,2.5-2.9
			c0.6,0,1.1,0.4,1.1,0.9c0,0.4-0.2,0.6-0.5,0.6c-0.2,0-0.3-0.2-0.3-0.3c0,0,0-0.4,0.5-0.5C393.2,5.3,392.8,5.3,392.7,5.3z"/>
	</g>
	<g>
		<path class="st4" d="M398,8.4c-0.1,0.3-0.1,0.4-0.1,0.5c0,0.1,0,0.4,0.3,0.4c0.3,0,0.5-0.6,0.7-1.2c0.1-0.2,0.1-0.2,0.2-0.2
			c0.1,0,0.1,0,0.1,0.1c0,0-0.1,0.6-0.3,1c-0.1,0.3-0.4,0.6-0.7,0.6c-0.2,0-0.6-0.1-0.8-0.6c-0.2,0.3-0.6,0.6-1.1,0.6
			c-0.5,0-1.1-0.3-1.1-1.2c0-0.5,0.3-1.3,0.5-2c0.1-0.4,0.2-0.7,0.2-0.9c0-0.3-0.1-0.3-0.2-0.3c-0.6,0-0.8,0.9-0.9,1.3
			c0,0.1,0,0.2-0.2,0.2c0,0-0.1,0-0.1-0.1c0-0.1,0.3-1.5,1.3-1.5c0.4,0,0.8,0.3,0.8,0.8c0,0.2,0,0.3-0.1,0.5
			c-0.2,0.7-0.6,1.6-0.6,2.2c0,0.3,0.1,0.8,0.5,0.8c0.4,0,0.7-0.3,0.9-0.6c0.1-0.1,0.1-0.1,0.1-0.3l0.7-2.9c0-0.1,0.1-0.4,0.4-0.4
			c0.2,0,0.3,0.1,0.3,0.3c0,0,0,0.1,0,0.1L398,8.4z"/>
		<path class="st4" d="M400.6,8.5c-0.1,0.2-0.1,0.4-0.1,0.5c0,0.1,0,0.4,0.3,0.4c0.3,0,0.5-0.4,0.6-1.1l0.1-0.2c0,0,0.1,0,0.1,0
			c0.1,0,0.1,0,0.1,0.1c0,0-0.1,0.7-0.3,1c-0.1,0.2-0.3,0.5-0.7,0.5c-0.5,0-0.8-0.4-0.8-0.9c0-0.1,0-0.3,0.1-0.4l1.2-5
			c0,0,0-0.1,0-0.2c0-0.1,0-0.2-0.5-0.2c-0.1,0-0.2,0-0.2-0.1c0-0.2,0.1-0.2,0.2-0.2l1-0.1c0,0,0.1,0,0.2,0c0.1,0,0.1,0,0.1,0.1
			c0,0,0,0.1,0,0.1L400.6,8.5z"/>
	</g>
	<g>
		<path class="st4" d="M403.8,9.6c-0.7,0-1.2-0.7-1.2-1.5c0-1.5,1.2-3,2.3-3c0.3,0,0.6,0.2,0.8,0.6c0,0,0.1-0.4,0.4-0.4
			c0.1,0,0.3,0,0.3,0.3c0,0,0,0.1,0,0.2l-0.7,2.7c-0.1,0.3-0.1,0.4-0.1,0.5c0,0.1,0,0.4,0.3,0.4c0.3,0,0.5-0.6,0.7-1.2
			c0.1-0.2,0.1-0.2,0.2-0.2c0.1,0,0.1,0,0.1,0.1c0,0-0.1,0.6-0.3,1c-0.1,0.3-0.4,0.6-0.7,0.6c-0.3,0-0.7-0.2-0.8-0.7
			C404.6,9.4,404.2,9.6,403.8,9.6z M405.6,6.2c0-0.4-0.2-0.9-0.7-0.9c-0.4,0-0.9,0.5-1.1,1.1c-0.2,0.4-0.5,1.6-0.5,2.1
			c0,0.3,0.1,0.9,0.5,0.9c0.5,0,1.2-0.8,1.2-1.1l0.5-1.9C405.6,6.3,405.6,6.2,405.6,6.2z"/>
		<path class="st4" d="M408.5,9.2c0,0.1-0.1,0.4-0.4,0.4c-0.2,0-0.3-0.1-0.3-0.3c0,0,0-0.1,0-0.1l0.7-3c0-0.2,0.1-0.3,0.1-0.5
			c0-0.1,0-0.4-0.3-0.4c-0.3,0-0.5,0.5-0.7,1.2c0,0.2-0.1,0.2-0.2,0.2c0,0-0.1,0-0.1-0.1c0,0,0.1-0.6,0.3-1c0.2-0.3,0.4-0.5,0.7-0.5
			c0.3,0,0.7,0.2,0.8,0.7c0.2-0.2,0.5-0.7,1.2-0.7c0.3,0,1,0.1,1,0.6c0,0.4-0.3,0.5-0.5,0.5c-0.3,0-0.3-0.2-0.3-0.3
			c0,0,0-0.4,0.4-0.5c-0.2-0.1-0.5-0.1-0.5-0.1c-0.9,0-1.3,1.3-1.3,1.3L408.5,9.2z"/>
	</g>
	<polyline points="375.2,11 411,11 411,10.5 375.2,10.5 	"/>
	<g>
		<path class="st0" d="M332.8,128.2c0.4-0.5,0.8-0.8,1.5-0.8c0.7,0,1.1,0.4,1.1,1.1c0,0.6-0.4,1.8-0.6,2.2c-0.1,0.2-0.2,0.5-0.2,0.7
			c0,0.2,0.1,0.3,0.2,0.3c0.5,0,0.9-0.7,1-1.2c0-0.1,0-0.2,0.1-0.2c0,0,0.1,0,0.1,0.1c0,0.1-0.4,1.5-1.3,1.5c-0.5,0-0.8-0.3-0.8-0.8
			c0-0.2,0-0.3,0.1-0.5c0.2-0.6,0.6-1.7,0.6-2.2c0-0.4-0.1-0.7-0.5-0.7s-0.7,0.2-1,0.3c-0.3,0.3-0.6,0.8-0.7,0.9
			c0,0.1-0.1,0.4-0.1,0.4c0,0.2-0.1,0.4-0.2,0.7l-0.2,0.9l-0.2,0.8c0,0.1-0.2,0.3-0.4,0.3c-0.1,0-0.3,0-0.3-0.3c0-0.1,0-0.1,0-0.2
			l1.4-5.7l0-0.2c0-0.1,0-0.2-0.5-0.2c-0.1,0-0.2,0-0.2-0.1c0-0.2,0.1-0.2,0.2-0.2c0.3,0,1-0.1,1.2-0.1c0.1,0,0.1,0.1,0.1,0.1
			L332.8,128.2z"/>
	</g>
	<g>
		<path class="st0" d="M337.8,131c0,0,0-0.1,0-0.2c0-0.2,0-0.3-0.2-0.3c-0.3,0-0.4,0.3-0.5,0.8c0,0.2-0.1,0.2-0.2,0.2
			c0,0-0.1,0-0.1-0.1c0,0,0.1-0.5,0.3-0.7c0.1-0.2,0.3-0.4,0.6-0.4c0.2,0,0.6,0.1,0.7,0.5c0.2-0.2,0.6-0.5,1-0.5c0.5,0,1,0.3,1,1.2
			c0,1-0.9,2-1.8,2c-0.4,0-0.6-0.3-0.7-0.4c-0.1,0.3-0.2,0.7-0.3,1c0,0.1-0.1,0.3-0.1,0.3c0,0.1,0.2,0.1,0.3,0.1
			c0.1,0,0.2,0,0.2,0.1c0,0.1-0.1,0.2-0.1,0.2c-0.2,0-0.5,0-0.7,0c-0.2,0-0.4,0-0.6,0c0,0-0.1,0-0.1-0.1c0-0.1,0.1-0.1,0.2-0.1
			c0.3,0,0.3-0.1,0.3-0.3L337.8,131z M338,132.5c0,0,0,0.1,0,0.1c0,0.1,0.1,0.6,0.6,0.6c0.4,0,0.7-0.3,0.9-0.7
			c0.2-0.4,0.4-1.1,0.4-1.4c0-0.5-0.2-0.7-0.5-0.7c-0.2,0-0.6,0.1-1,0.6L338,132.5z"/>
	</g>
	<g>
		<path class="st0" d="M342.2,134.4v-10h1.4v0.4h-1v9.2h1v0.4H342.2z"/>
	</g>
	<g>
		<path class="st0" d="M345.3,129c0.1-0.5,0.2-0.6,0.2-0.8c0-0.3-0.1-0.5-0.3-0.5c-0.4,0-0.6,0.5-0.7,1.2c-0.1,0.2-0.1,0.2-0.2,0.2
			c0,0-0.1,0-0.1-0.1c0,0,0.1-0.6,0.3-1c0.1-0.2,0.3-0.6,0.7-0.6c0.5,0,0.9,0.3,0.9,0.9c0.2-0.2,0.7-0.9,1.6-0.9
			c0.7,0,1.1,0.4,1.1,1.1c0,0.6-0.4,1.7-0.6,2.2c-0.1,0.2-0.2,0.5-0.2,0.7c0,0.2,0.1,0.3,0.2,0.3c0.5,0,0.8-0.6,1-1.2
			c0.1-0.1,0.1-0.2,0.2-0.2c0,0,0.1,0,0.1,0.1c0,0.1-0.4,1.5-1.3,1.5c-0.5,0-0.8-0.3-0.8-0.8c0-0.1,0-0.2,0.1-0.5
			c0.2-0.4,0.6-1.7,0.6-2.3c0-0.3-0.1-0.7-0.5-0.7c-0.9,0-1.5,0.9-1.6,1.2c0,0-0.1,0.3-0.1,0.5c0,0.2-0.1,0.4-0.2,0.7l-0.2,0.9
			c-0.1,0.2-0.2,0.7-0.2,0.7c-0.1,0.2-0.2,0.3-0.4,0.3c-0.1,0-0.3-0.1-0.3-0.3c0,0,0.1-0.3,0.1-0.4L345.3,129z"/>
	</g>
	<g>
		<path class="st0" d="M351.4,134.4H350V134h1v-9.2h-1v-0.4h1.4V134.4z"/>
	</g>
	<polyline points="361.9,143.9 366.4,141.6 361.9,139.4 363,141.6 	"/>
	<line class="st3" x1="363" y1="141.6" x2="341.6" y2="141.6"/>
	<polygon class="st8" points="358.6,142.3 358.6,194.8 440.8,194.8 440.8,89.9 358.6,89.9 	"/>
	<polyline points="398.1,145.5 406.1,141.6 398.1,137.6 400.1,141.6 	"/>
	<line class="st9" x1="384.8" y1="141.6" x2="400.1" y2="141.6"/>
	<path class="st3" d="M418.2,141.6c0-2.8-2.2-5-5-5c-2.8,0-5,2.2-5,5s2.2,5,5,5C415.9,146.6,418.2,144.4,418.2,141.6L418.2,141.6z
		 M409.6,145.1l7.1-7.1 M409.6,138l7.1,7.1"/>
	<polyline points="409.2,126.5 413.2,134.5 417.1,126.5 413.2,128.5 	"/>
	<line class="st9" x1="413.2" y1="113.2" x2="413.2" y2="128.5"/>
	<polyline points="409.2,162 413.2,169.9 417.1,162 413.2,164 	"/>
	<line class="st9" x1="413.2" y1="148.6" x2="413.2" y2="164"/>
	<polyline points="410.9,94.5 413.2,99 415.4,94.5 413.2,95.6 	"/>
	<line class="st3" x1="413.2" y1="84.9" x2="413.2" y2="95.6"/>
	<g>
		<path class="st0" d="M405.2,74.9c-0.1,0.4-0.2,0.7-0.2,0.9c0,0.3,0.2,0.7,0.5,0.7c0.3,0,1-0.2,1.3-1.3c0-0.1,0-0.1,0.1-0.1
			c0,0,0.1,0,0.1,0.1c0,0.2-0.6,1.5-1.6,1.5c-0.6,0-1-0.4-1.1-0.8c0,0.1-0.4,0.8-1,0.8c-0.4,0-0.9-0.2-0.9-0.7
			c0-0.3,0.2-0.6,0.5-0.6c0.1,0,0.4,0.1,0.4,0.3c0,0.3-0.2,0.5-0.5,0.5c0.2,0.1,0.4,0.1,0.5,0.1c0.4,0,0.8-0.4,0.9-1
			c0.4-1.4,0.5-2.1,0.5-2.4c0-0.6-0.3-0.7-0.5-0.7c-0.3,0-1,0.2-1.3,1.3c0,0.1,0,0.1-0.1,0.1c0,0-0.1,0-0.1-0.1
			c0-0.2,0.6-1.5,1.6-1.5c0.3,0,0.8,0.1,1.1,0.8c0.1-0.2,0.5-0.8,1-0.8c0.3,0,0.9,0.1,0.9,0.7c0,0.4-0.3,0.6-0.5,0.6
			c-0.3,0-0.4-0.2-0.4-0.3c0-0.2,0.2-0.5,0.5-0.5c-0.2-0.1-0.4-0.1-0.5-0.1c-0.7,0-0.9,0.9-1,1.2L405.2,74.9z"/>
	</g>
	<g>
		<path class="st0" d="M409.2,75.7c0,0,0-0.1,0-0.2c0-0.2,0-0.3-0.2-0.3c-0.3,0-0.4,0.3-0.5,0.8c0,0.2-0.1,0.2-0.2,0.2
			c0,0-0.1,0-0.1-0.1c0,0,0.1-0.5,0.3-0.7c0.1-0.2,0.3-0.4,0.6-0.4c0.2,0,0.6,0.1,0.7,0.5c0.2-0.2,0.6-0.5,1-0.5c0.5,0,1,0.3,1,1.2
			c0,1-0.9,2-1.8,2c-0.4,0-0.6-0.3-0.7-0.4c-0.1,0.3-0.2,0.7-0.3,1c0,0.1-0.1,0.3-0.1,0.3c0,0.1,0.2,0.1,0.3,0.1
			c0.1,0,0.2,0,0.2,0.1c0,0.1-0.1,0.2-0.1,0.2c-0.2,0-0.5,0-0.7,0c-0.2,0-0.4,0-0.6,0c0,0-0.1,0-0.1-0.1c0-0.1,0.1-0.1,0.2-0.1
			c0.3,0,0.3-0.1,0.3-0.3L409.2,75.7z M409.4,77.1c0,0,0,0.1,0,0.1c0,0.1,0.1,0.6,0.6,0.6c0.4,0,0.7-0.3,0.9-0.7
			c0.2-0.4,0.4-1.1,0.4-1.4c0-0.5-0.2-0.7-0.5-0.7c-0.2,0-0.6,0.1-1,0.6L409.4,77.1z"/>
	</g>
	<g>
		<path class="st0" d="M413.7,79v-10h1.4v0.4h-1v9.2h1V79H413.7z"/>
	</g>
	<g>
		<path class="st0" d="M416.8,73.6c0.1-0.5,0.2-0.6,0.2-0.8c0-0.3-0.1-0.5-0.3-0.5c-0.4,0-0.6,0.5-0.7,1.2c-0.1,0.2-0.1,0.2-0.2,0.2
			c0,0-0.1,0-0.1-0.1c0,0,0.1-0.6,0.3-1c0.1-0.2,0.3-0.6,0.7-0.6c0.5,0,0.9,0.3,0.9,0.9c0.2-0.2,0.7-0.9,1.6-0.9
			c0.7,0,1.1,0.4,1.1,1.1c0,0.6-0.4,1.7-0.6,2.2c-0.1,0.2-0.2,0.5-0.2,0.7c0,0.2,0.1,0.3,0.2,0.3c0.5,0,0.8-0.6,1-1.2
			c0.1-0.1,0.1-0.2,0.2-0.2c0,0,0.1,0,0.1,0.1c0,0.1-0.4,1.5-1.3,1.5c-0.5,0-0.8-0.3-0.8-0.8c0-0.1,0-0.2,0.1-0.5
			c0.2-0.4,0.6-1.7,0.6-2.3c0-0.3-0.1-0.7-0.5-0.7c-0.9,0-1.5,0.9-1.6,1.2c0,0-0.1,0.3-0.1,0.5c0,0.2-0.1,0.4-0.2,0.7l-0.2,0.9
			c-0.1,0.2-0.2,0.7-0.2,0.7c-0.1,0.2-0.2,0.3-0.4,0.3c-0.1,0-0.3-0.1-0.3-0.3c0-0.1,0.1-0.3,0.1-0.4L416.8,73.6z"/>
	</g>
	<g>
		<path class="st0" d="M422.9,79h-1.4v-0.4h1v-9.2h-1v-0.4h1.4V79z"/>
	</g>
	<g>
		<path class="st0" d="M405.9,214.8c-0.3,1.1-1.3,2-2.3,2c-0.6,0-1.1-0.4-1.1-0.9c0-0.5,0.3-0.6,0.6-0.6c0.1,0,0.4,0,0.4,0.3
			c0,0.2-0.1,0.3-0.2,0.4c-0.1,0.1-0.3,0.1-0.4,0.1c0.2,0.4,0.6,0.4,0.8,0.4c0.5,0,0.8-0.3,1.1-0.6c0.4-0.5,0.5-1,0.6-1.5
			c-0.3,0.3-0.6,0.4-1,0.4c-0.6,0-1.2-0.3-1.2-1.2c0-0.5,0.2-1,0.6-2.1c0.1-0.2,0.2-0.4,0.2-0.7c0-0.3-0.2-0.3-0.2-0.3
			c-0.3,0-0.7,0.3-1,1.2c0,0.2-0.1,0.2-0.2,0.2c0,0-0.1,0-0.1-0.1c0-0.1,0.4-1.5,1.3-1.5c0.5,0,0.8,0.4,0.8,0.8c0,0.2,0,0.3-0.2,0.7
			c-0.3,0.9-0.5,1.5-0.5,2c0,0.4,0.1,0.8,0.6,0.8c0.7,0,1.1-0.7,1.1-0.8l0.4-1.8c0.1-0.3,0.1-0.5,0.2-0.8c0-0.2,0.1-0.5,0.1-0.5
			c0.1-0.1,0.2-0.2,0.3-0.2c0.1,0,0.3,0.1,0.3,0.3c0,0.1,0,0.1,0,0.2L405.9,214.8z"/>
	</g>
	<g>
		<path class="st0" d="M408.2,213.9c0,0,0-0.1,0-0.2c0-0.2,0-0.3-0.2-0.3c-0.3,0-0.4,0.3-0.5,0.8c0,0.2-0.1,0.2-0.2,0.2
			c0,0-0.1,0-0.1-0.1c0,0,0.1-0.5,0.3-0.7c0.1-0.2,0.3-0.4,0.6-0.4c0.2,0,0.6,0.1,0.7,0.5c0.2-0.2,0.6-0.5,1-0.5c0.5,0,1,0.3,1,1.2
			c0,1-0.9,2-1.8,2c-0.4,0-0.6-0.3-0.7-0.4c-0.1,0.3-0.2,0.7-0.3,1c0,0.1-0.1,0.3-0.1,0.3c0,0.1,0.2,0.1,0.3,0.1
			c0.1,0,0.2,0,0.2,0.1c0,0.1-0.1,0.2-0.1,0.2c-0.2,0-0.5,0-0.7,0c-0.2,0-0.4,0-0.6,0c0,0-0.1,0-0.1-0.1c0-0.1,0.1-0.1,0.2-0.1
			c0.3,0,0.3-0.1,0.3-0.3L408.2,213.9z M408.4,215.4c0,0,0,0.1,0,0.1c0,0.1,0.1,0.6,0.6,0.6c0.4,0,0.7-0.3,0.9-0.7
			c0.2-0.4,0.4-1.1,0.4-1.4c0-0.5-0.2-0.7-0.5-0.7c-0.2,0-0.6,0.1-1,0.6L408.4,215.4z"/>
	</g>
	<g>
		<path class="st0" d="M412.7,217.3v-10h1.4v0.4h-1v9.2h1v0.4H412.7z"/>
	</g>
	<g>
		<path class="st0" d="M415.7,211.9c0.1-0.5,0.2-0.6,0.2-0.8c0-0.3-0.1-0.5-0.3-0.5c-0.4,0-0.6,0.5-0.7,1.2
			c-0.1,0.2-0.1,0.2-0.2,0.2c0,0-0.1,0-0.1-0.1c0,0,0.1-0.6,0.3-1c0.1-0.2,0.3-0.6,0.7-0.6c0.5,0,0.9,0.3,0.9,0.9
			c0.2-0.2,0.7-0.9,1.6-0.9c0.7,0,1.1,0.4,1.1,1.1c0,0.6-0.4,1.7-0.6,2.2c-0.1,0.2-0.2,0.5-0.2,0.7c0,0.2,0.1,0.3,0.2,0.3
			c0.5,0,0.8-0.6,1-1.2c0.1-0.1,0.1-0.2,0.2-0.2c0,0,0.1,0,0.1,0.1c0,0.1-0.4,1.5-1.3,1.5c-0.5,0-0.8-0.3-0.8-0.8
			c0-0.1,0-0.2,0.1-0.5c0.2-0.4,0.6-1.7,0.6-2.3c0-0.3-0.1-0.7-0.5-0.7c-0.9,0-1.5,0.9-1.6,1.2c0,0-0.1,0.3-0.1,0.5
			c0,0.2-0.1,0.4-0.2,0.7l-0.2,0.9c-0.1,0.2-0.2,0.7-0.2,0.7c-0.1,0.2-0.2,0.3-0.4,0.3c-0.1,0-0.3-0.1-0.3-0.3c0,0,0.1-0.3,0.1-0.4
			L415.7,211.9z"/>
	</g>
	<g>
		<path class="st0" d="M421.8,217.3h-1.4v-0.4h1v-9.2h-1v-0.4h1.4V217.3z"/>
	</g>
	<polyline points="410.2,202.6 412.5,207.2 414.8,202.6 412.5,203.8 	"/>
	<line class="st3" x1="412.5" y1="185.9" x2="412.5" y2="203.8"/>
	<g>
		<path class="st0" d="M404.1,174.9c1.7,0,3,1.6,3,3.5c0,1.9-1.4,3.3-3,3.3h-3.6v-0.3h0.2c0.8,0,0.8-0.1,0.8-0.5v-5.3
			c0-0.4,0-0.5-0.8-0.5h-0.2v-0.3H404.1z M403.8,181.4c1,0,1.6-0.6,1.8-0.8c0.4-0.5,0.5-1.1,0.5-2.2c0-0.8-0.1-1.6-0.5-2.2
			c-0.5-0.7-1.2-0.9-1.8-0.9h-1c-0.5,0-0.5,0.1-0.5,0.4v5.4c0,0.3,0,0.4,0.5,0.4H403.8z"/>
		<path class="st0" d="M413.7,177.1h-0.2c-0.2-1.4-0.4-1.9-1.9-1.9h-1.2c-0.5,0-0.5,0.1-0.5,0.4v2.5h0.9c1,0,1.1-0.3,1.1-1.2h0.2
			v2.6h-0.2c0-0.8-0.1-1.2-1.1-1.2h-0.9v2.5c0,0.3,0,0.5,0.9,0.5h0.3v0.3c-0.4,0-1.3,0-1.7,0c-0.4,0-1.2,0-1.5,0v-0.3h0.2
			c0.8,0,0.8-0.1,0.8-0.5v-5.2c0-0.4,0-0.5-0.8-0.5H408v-0.3h5.5L413.7,177.1z"/>
	</g>
	<g>
		<path class="st0" d="M420.9,177.2h-0.2c-0.1-1.6-0.3-1.9-1.8-1.9c-0.2,0-0.5,0-0.6,0c-0.2,0-0.2,0.2-0.2,0.4v5.3
			c0,0.3,0,0.5,1,0.5h0.4v0.3c-0.4,0-1.4,0-1.9,0s-1.5,0-1.9,0v-0.3h0.4c1,0,1-0.1,1-0.5v-5.3c0-0.2,0-0.3-0.2-0.4
			c-0.1,0-0.4,0-0.5,0c-1.5,0-1.7,0.3-1.8,1.9h-0.2l0.2-2.2h6.1L420.9,177.2z"/>
	</g>
	<g>
		<path class="st0" d="M422.4,175.9c-0.1,0-0.3,0-0.3-0.2c0-0.2,0.2-0.2,0.3-0.2h4.2c0.1,0,0.3,0,0.3,0.2c0,0.2-0.2,0.2-0.3,0.2
			H422.4z"/>
	</g>
	<g>
		<path class="st0" d="M429.9,176.9c0,0.2,0,0.3,0.7,0.3h0.3v0.3c-0.2,0-1,0-1.2,0c-0.3,0-1.1,0-1.2,0v-0.3h0.3
			c0.7,0,0.7-0.1,0.7-0.3v-3.6c-0.4,0.2-0.8,0.2-1,0.2v-0.3c0.3,0,0.9,0,1.4-0.4c0.2,0,0.2,0,0.2,0.2V176.9z"/>
	</g>
	<g>
		<path class="st0" d="M426.2,184.5c0,0.1,0,0.1-0.1,0.1c-0.1,0-0.1,0-0.2-0.1l-2-4.2l-0.9,3.6c0,0.1,0,0.1,0,0.2
			c0,0.1,0,0.3,0.4,0.3c0.1,0,0.2,0,0.2,0.1c0,0.1-0.1,0.1-0.1,0.1c-0.2,0-0.6,0-0.7,0c-0.2,0-0.5,0-0.7,0c0,0-0.1,0-0.1-0.1
			c0-0.1,0.1-0.1,0.1-0.1c0.5,0,0.7-0.2,0.7-0.5l0.9-3.7c-0.1,0-0.3,0-0.4,0s-0.2,0-0.2-0.1c0-0.2,0.1-0.2,0.2-0.2h1
			c0.2,0,0.2,0,0.2,0.1l1.8,3.6l0.8-3c0-0.1,0-0.1,0-0.2c0-0.2-0.1-0.3-0.4-0.3c-0.1,0-0.2,0-0.2-0.1c0-0.2,0.1-0.2,0.1-0.2
			c0.2,0,0.6,0,0.7,0c0.2,0,0.5,0,0.7,0c0.1,0,0.1,0.1,0.1,0.1c0,0.1-0.1,0.2-0.1,0.2c-0.6,0-0.7,0.2-0.7,0.5L426.2,184.5z"/>
	</g>
	<polygon class="st3" points="391.2,178.8 391.2,185.9 433.8,185.9 433.8,171.7 391.2,171.7 	"/>
	<g>
		<path class="st0" d="M406.2,102c1.7,0,3,1.6,3,3.5c0,1.9-1.4,3.3-3,3.3h-3.6v-0.3h0.2c0.8,0,0.8-0.1,0.8-0.5v-5.3
			c0-0.4,0-0.5-0.8-0.5h-0.2V102H406.2z M406,108.5c1,0,1.6-0.6,1.8-0.8c0.4-0.5,0.5-1.1,0.5-2.2c0-0.8-0.1-1.6-0.5-2.2
			c-0.5-0.7-1.2-0.9-1.8-0.9h-1c-0.5,0-0.5,0.1-0.5,0.4v5.4c0,0.3,0,0.4,0.5,0.4H406z"/>
		<path class="st0" d="M415.9,104.3h-0.2c-0.2-1.4-0.4-1.9-1.9-1.9h-1.2c-0.5,0-0.5,0.1-0.5,0.4v2.5h0.9c1,0,1.1-0.3,1.1-1.2h0.2
			v2.6H414c0-0.8-0.1-1.2-1.1-1.2H412v2.5c0,0.3,0,0.5,0.9,0.5h0.3v0.3c-0.4,0-1.3,0-1.7,0c-0.4,0-1.2,0-1.5,0v-0.3h0.2
			c0.8,0,0.8-0.1,0.8-0.5v-5.2c0-0.4,0-0.5-0.8-0.5h-0.2v-0.3h5.5L415.9,104.3z"/>
	</g>
	<g>
		<path class="st0" d="M423.1,104.3h-0.2c-0.1-1.6-0.3-1.9-1.8-1.9c-0.2,0-0.5,0-0.6,0c-0.2,0-0.2,0.2-0.2,0.4v5.3
			c0,0.3,0,0.5,1,0.5h0.4v0.3c-0.4,0-1.4,0-1.9,0s-1.5,0-1.9,0v-0.3h0.4c1,0,1-0.1,1-0.5v-5.3c0-0.2,0-0.3-0.2-0.4
			c-0.1,0-0.4,0-0.5,0c-1.5,0-1.7,0.3-1.8,1.9h-0.2l0.2-2.2h6.1L423.1,104.3z"/>
	</g>
	<g>
		<path class="st0" d="M428.3,110.1c0,0.1,0,0.1-0.1,0.1c-0.1,0-0.1,0-0.2-0.1l-2-4.2l-0.9,3.6c0,0.1,0,0.1,0,0.2
			c0,0.1,0,0.3,0.4,0.3c0.1,0,0.2,0,0.2,0.1c0,0.1-0.1,0.1-0.1,0.1c-0.2,0-0.6,0-0.7,0c-0.2,0-0.5,0-0.7,0c0,0-0.1,0-0.1-0.1
			c0-0.1,0.1-0.1,0.1-0.1c0.5,0,0.7-0.2,0.7-0.5l0.9-3.7c-0.1,0-0.3,0-0.4,0s-0.2,0-0.2-0.1c0-0.2,0.1-0.2,0.2-0.2h1
			c0.2,0,0.2,0,0.2,0.1l1.8,3.6l0.8-3c0-0.1,0-0.1,0-0.2c0-0.2-0.1-0.3-0.4-0.3c-0.1,0-0.2,0-0.2-0.1c0-0.2,0.1-0.2,0.1-0.2
			c0.2,0,0.6,0,0.7,0c0.2,0,0.5,0,0.7,0c0.1,0,0.1,0.1,0.1,0.1c0,0.1-0.1,0.2-0.1,0.2c-0.6,0-0.7,0.2-0.7,0.5L428.3,110.1z"/>
	</g>
	<polygon class="st3" points="391.9,106.1 391.9,113.2 434.4,113.2 434.4,99 391.9,99 	"/>
	<g>
		<path class="st0" d="M369.4,152.1c0-1.7,1.6-3,3.5-3c1.9,0,3.3,1.4,3.3,3v3.6h-0.3v-0.2c0-0.8-0.1-0.8-0.5-0.8h-5.3
			c-0.4,0-0.5,0-0.5,0.8v0.2h-0.3V152.1z M375.9,152.4c0-1-0.6-1.6-0.8-1.8c-0.5-0.4-1.1-0.5-2.2-0.5c-0.8,0-1.6,0.1-2.2,0.5
			c-0.7,0.5-0.9,1.2-0.9,1.8v1c0,0.5,0.1,0.5,0.4,0.5h5.4c0.3,0,0.4,0,0.4-0.5V152.4z"/>
		<path class="st0" d="M371.7,142.5v0.2c-1.4,0.2-1.9,0.4-1.9,1.9v1.2c0,0.5,0.1,0.5,0.4,0.5h2.5v-0.9c0-1-0.3-1.1-1.2-1.1v-0.2h2.6
			v0.2c-0.8,0-1.2,0.1-1.2,1.1v0.9h2.5c0.3,0,0.5,0,0.5-0.9V145h0.3c0,0.4,0,1.3,0,1.7c0,0.4,0,1.2,0,1.5h-0.3V148
			c0-0.8-0.1-0.8-0.5-0.8h-5.2c-0.4,0-0.5,0-0.5,0.8v0.2h-0.3v-5.5L371.7,142.5z"/>
	</g>
	<g>
		<path class="st0" d="M371.7,135.2v0.2c-1.6,0.1-1.9,0.3-1.9,1.8c0,0.2,0,0.5,0,0.6c0,0.2,0.2,0.2,0.4,0.2h5.3c0.3,0,0.5,0,0.5-1
			v-0.4h0.3c0,0.4,0,1.4,0,1.9s0,1.5,0,1.9h-0.3V140c0-1-0.1-1-0.5-1h-5.3c-0.2,0-0.3,0-0.4,0.2c0,0.1,0,0.4,0,0.5
			c0,1.5,0.3,1.7,1.9,1.8v0.2l-2.2-0.2v-6.1L371.7,135.2z"/>
	</g>
	<g>
		<path class="st0" d="M377.5,130c0.1,0,0.1,0,0.1,0.1c0,0.1,0,0.1-0.1,0.2l-4.2,2l3.6,0.9c0.1,0,0.1,0,0.2,0c0.1,0,0.3,0,0.3-0.4
			c0-0.1,0-0.2,0.1-0.2c0.1,0,0.1,0.1,0.1,0.1c0,0.2,0,0.6,0,0.7c0,0.2,0,0.5,0,0.7c0,0,0,0.1-0.1,0.1c-0.1,0-0.1-0.1-0.1-0.1
			c0-0.5-0.2-0.7-0.5-0.7l-3.7-0.9c0,0.1,0,0.3,0,0.4s0,0.2-0.1,0.2c-0.2,0-0.2-0.1-0.2-0.2v-1c0-0.2,0-0.2,0.1-0.2l3.6-1.8l-3-0.8
			c-0.1,0-0.1,0-0.2,0c-0.2,0-0.3,0.1-0.3,0.4c0,0.1,0,0.2-0.1,0.2c-0.2,0-0.2-0.1-0.2-0.1c0-0.2,0-0.6,0-0.7c0-0.2,0-0.5,0-0.7
			c0-0.1,0.1-0.1,0.1-0.1c0.1,0,0.2,0.1,0.2,0.1c0,0.6,0.2,0.7,0.5,0.7L377.5,130z"/>
	</g>
	<polygon class="st3" points="366.4,141.6 366.4,166.4 384.2,166.4 384.2,116.8 366.4,116.8 	"/>
</g>
</svg>
