<?xml version="1.0" encoding="utf-8"?>
<!-- Generator: Adobe Illustrator 22.1.0, SVG Export Plug-In . SVG Version: 6.00 Build 0)  -->
<svg version="1.1" id="Layer_1" xmlns="http://www.w3.org/2000/svg" xmlns:xlink="http://www.w3.org/1999/xlink" x="0px" y="0px"
	 viewBox="0 0 339.6 98.4" style="enable-background:new 0 0 339.6 98.4;" xml:space="preserve">
<style type="text/css">
	.st0{fill:none;stroke:#000000;stroke-width:0.8504;stroke-miterlimit:10;}
	.st1{fill:#1D1D1B;}
	.st2{fill:none;stroke:#000000;stroke-width:0.8504;stroke-linecap:round;stroke-miterlimit:10;stroke-dasharray:0,3.3307;}
	.st3{fill:none;stroke:#FF0000;stroke-width:1.7008;stroke-miterlimit:10;}
	.st4{fill:none;stroke:#0000FF;stroke-width:1.7008;stroke-miterlimit:10;}
	.st5{clip-path:url(#SVGID_2_);fill:none;stroke:#000000;stroke-width:0.1417;stroke-linecap:square;stroke-miterlimit:10;}
	.st6{fill:none;stroke:#000000;stroke-width:0.1417;stroke-linecap:round;stroke-miterlimit:10;stroke-dasharray:0,2.9527;}
	.st7{fill:#00FF00;}
</style>
<g>
	<path class="st0" d="M116.9,57.8v7.1 M60.2,57.8v7.1 M3.5,57.8v7.1"/>
	<polyline points="8.1,48.5 3.5,50.7 8.1,53 6.9,50.7 	"/>
	<line class="st0" x1="6.9" y1="50.7" x2="24.8" y2="50.7"/>
	<polyline points="55.7,53 60.2,50.7 55.7,48.5 56.8,50.7 	"/>
	<line class="st0" x1="39" y1="50.7" x2="56.8" y2="50.7"/>
	<g>
		<path class="st1" d="M33.6,54c0,0.2,0,0.2-0.2,0.2c-0.1,0-0.1,0-0.2-0.2l-2.5-5.9c0-0.1,0-0.1-0.1-0.2l-1.3,5.3c0,0.1,0,0.2,0,0.2
			c0,0.2,0.1,0.4,0.7,0.4c0.1,0,0.2,0,0.2,0.1c0,0.2-0.1,0.2-0.2,0.2c-0.3,0-0.7,0-1,0c-0.3,0-0.7,0-1,0c-0.1,0-0.1,0-0.1-0.1
			c0-0.2,0.1-0.2,0.2-0.2c0.8,0,1-0.3,1.1-0.7l1.3-5.4c0-0.1-0.6-0.1-0.7-0.1c-0.2,0-0.3,0-0.3-0.1c0-0.2,0.1-0.2,0.3-0.2h1.3
			c0.2,0,0.2,0,0.3,0.2l2.2,5.2l1.1-4.4c0,0,0-0.2,0-0.2c0-0.2-0.1-0.4-0.7-0.4c-0.1,0-0.2,0-0.2-0.1c0-0.2,0.1-0.2,0.2-0.2
			c0.3,0,0.7,0,1,0c0.3,0,0.7,0,1,0c0.1,0,0.1,0.1,0.1,0.1c0,0.2-0.1,0.2-0.2,0.2c-0.8,0-1,0.3-1.1,0.7L33.6,54z"/>
	</g>
	<polyline points="64.8,48.5 60.2,50.7 64.8,53 63.6,50.7 	"/>
	<line class="st0" x1="63.6" y1="50.7" x2="81.5" y2="50.7"/>
	<polyline points="112.4,53 116.9,50.7 112.4,48.5 113.5,50.7 	"/>
	<line class="st0" x1="95.7" y1="50.7" x2="113.5" y2="50.7"/>
	<g>
		<path class="st1" d="M90.2,54c0,0.2,0,0.2-0.2,0.2c-0.1,0-0.1,0-0.2-0.2l-2.5-5.9c0-0.1,0-0.1-0.1-0.2L86,53.2c0,0.1,0,0.2,0,0.2
			c0,0.2,0.1,0.4,0.7,0.4c0.1,0,0.2,0,0.2,0.1c0,0.2-0.1,0.2-0.2,0.2c-0.3,0-0.7,0-1,0c-0.3,0-0.7,0-1,0c-0.1,0-0.1,0-0.1-0.1
			c0-0.2,0.1-0.2,0.2-0.2c0.8,0,1-0.3,1.1-0.7l1.3-5.4c0-0.1-0.6-0.1-0.7-0.1c-0.2,0-0.3,0-0.3-0.1c0-0.2,0.1-0.2,0.3-0.2h1.3
			c0.2,0,0.2,0,0.3,0.2l2.2,5.2l1.1-4.4c0,0,0-0.2,0-0.2c0-0.2-0.1-0.4-0.7-0.4c-0.1,0-0.2,0-0.2-0.1c0-0.2,0.1-0.2,0.2-0.2
			c0.3,0,0.7,0,1,0c0.3,0,0.7,0,1,0c0.1,0,0.1,0.1,0.1,0.1c0,0.2-0.1,0.2-0.2,0.2c-0.8,0-1,0.3-1.1,0.7L90.2,54z"/>
	</g>
	<line class="st0" x1="0" y1="61.4" x2="39" y2="61.4"/>
	<line class="st2" x1="124" y1="61.4" x2="138.2" y2="61.4"/>
	<polyline points="41.2,69.4 39,64.9 36.7,69.4 39,68.3 	"/>
	<line class="st0" x1="39" y1="79.1" x2="39" y2="68.3"/>
	<g>
		<path class="st1" d="M31.1,86c-0.2,0-0.3,0-0.3-0.2s0.2-0.2,0.3-0.2h5.4c0.2,0,0.3,0,0.3,0.2S36.7,86,36.5,86H31.1z"/>
	</g>
	<g>
		<path class="st1" d="M39.2,85.4c0.1-0.5,0.2-0.6,0.2-0.8c0-0.3-0.1-0.5-0.3-0.5c-0.4,0-0.6,0.5-0.7,1.2c-0.1,0.2-0.1,0.2-0.2,0.2
			c0,0-0.1,0-0.1-0.1c0,0,0.1-0.6,0.3-1c0.1-0.2,0.3-0.6,0.7-0.6c0.5,0,0.9,0.3,0.9,0.9c0.2-0.2,0.7-0.9,1.6-0.9
			c0.7,0,1.1,0.4,1.1,1.1c0,0.6-0.4,1.7-0.6,2.2c-0.1,0.2-0.2,0.5-0.2,0.7c0,0.2,0.1,0.3,0.2,0.3c0.5,0,0.8-0.6,1-1.2
			c0-0.1,0-0.2,0.1-0.2c0,0,0.1,0,0.1,0.1c0,0.1-0.4,1.5-1.3,1.5c-0.5,0-0.8-0.3-0.8-0.8c0-0.1,0-0.2,0.1-0.5
			c0.2-0.4,0.6-1.7,0.6-2.3c0-0.3-0.1-0.7-0.5-0.7c-0.9,0-1.5,0.9-1.6,1.2c0,0-0.1,0.3-0.1,0.5c0,0.2-0.1,0.4-0.2,0.7l-0.2,0.9
			c-0.1,0.2-0.2,0.7-0.2,0.7c-0.1,0.2-0.2,0.3-0.4,0.3c-0.1,0-0.3-0.1-0.3-0.3c0,0,0.1-0.3,0.1-0.4L39.2,85.4z"/>
	</g>
	<g>
		<path class="st1" d="M45.7,89.8c-1.6,0-1.6-1.9-1.6-2.4s0-2.4,1.6-2.4c0.6,0,1,0.3,1.2,0.6c0.3,0.5,0.4,1,0.4,1.8
			C47.3,88,47.3,89.8,45.7,89.8z M46.6,88.9c0.1-0.4,0.1-1,0.1-1.5c0-0.6,0-1.1-0.1-1.5c-0.1-0.4-0.5-0.6-0.9-0.6
			c-0.3,0-0.7,0.1-0.9,0.7c-0.1,0.4-0.1,0.9-0.1,1.4c0,0.5,0,1.1,0.1,1.5c0.1,0.6,0.6,0.8,0.9,0.8C46,89.7,46.5,89.5,46.6,88.9z"/>
	</g>
	<line class="st0" x1="95.7" y1="61.4" x2="120.5" y2="61.4"/>
	<line class="st3" x1="39" y1="61.4" x2="60.2" y2="61.4"/>
	<line class="st4" x1="60.2" y1="61.4" x2="95.7" y2="61.4"/>
	<polyline points="43.5,73.3 39,75.5 43.5,77.8 42.4,75.5 	"/>
	<line class="st0" x1="42.4" y1="75.5" x2="60.2" y2="75.5"/>
	<polyline points="91.1,77.8 95.7,75.5 91.1,73.3 92.3,75.5 	"/>
	<line class="st0" x1="74.4" y1="75.5" x2="92.3" y2="75.5"/>
	<g>
		<path class="st1" d="M69,78.7c0,0.2,0,0.2-0.2,0.2c-0.1,0-0.1,0-0.2-0.2l-2.5-5.9c0-0.1,0-0.1-0.1-0.2l-1.3,5.3c0,0.1,0,0.2,0,0.2
			c0,0.2,0.1,0.4,0.7,0.4c0.1,0,0.2,0,0.2,0.1c0,0.2-0.1,0.2-0.2,0.2c-0.3,0-0.7,0-1,0c-0.3,0-0.7,0-1,0c-0.1,0-0.1,0-0.1-0.1
			c0-0.2,0.1-0.2,0.2-0.2c0.8,0,1-0.3,1.1-0.7l1.3-5.4c0-0.1-0.6-0.1-0.7-0.1c-0.2,0-0.3,0-0.3-0.1c0-0.2,0.1-0.2,0.3-0.2h1.3
			c0.2,0,0.2,0,0.3,0.2l2.2,5.2l1.1-4.4c0,0,0-0.2,0-0.2c0-0.2-0.1-0.4-0.7-0.4c-0.1,0-0.2,0-0.2-0.1c0-0.2,0.1-0.2,0.2-0.2
			c0.3,0,0.7,0,1,0c0.3,0,0.7,0,1,0c0.1,0,0.1,0.1,0.1,0.1c0,0.2-0.1,0.2-0.2,0.2c-0.8,0-1,0.3-1.1,0.7L69,78.7z"/>
	</g>
	<line class="st0" x1="95.7" y1="79.1" x2="95.7" y2="72"/>
	<polyline points="321.4,63.6 326,61.4 321.4,59.1 322.6,61.4 	"/>
	<line class="st0" x1="258.7" y1="61.4" x2="322.6" y2="61.4"/>
	<g>
		<path class="st1" d="M335.1,60.7c0.1-0.5,0.2-0.6,0.2-0.8c0-0.3-0.1-0.5-0.3-0.5c-0.4,0-0.6,0.5-0.7,1.2c-0.1,0.2-0.1,0.2-0.2,0.2
			c0,0-0.1,0-0.1-0.1c0,0,0.1-0.6,0.3-1c0.1-0.2,0.3-0.6,0.7-0.6c0.5,0,0.9,0.3,0.9,0.9c0.2-0.2,0.7-0.9,1.6-0.9
			c0.7,0,1.1,0.4,1.1,1.1c0,0.6-0.4,1.7-0.6,2.2c-0.1,0.2-0.2,0.5-0.2,0.7c0,0.2,0.1,0.3,0.2,0.3c0.5,0,0.8-0.6,1-1.2
			c0.1-0.1,0.1-0.2,0.2-0.2c0,0,0.1,0,0.1,0.1c0,0.1-0.4,1.5-1.3,1.5c-0.5,0-0.8-0.3-0.8-0.8c0-0.1,0-0.2,0.1-0.5
			c0.2-0.4,0.6-1.7,0.6-2.3c0-0.3-0.1-0.7-0.5-0.7c-0.9,0-1.5,0.9-1.6,1.2c0,0-0.1,0.3-0.1,0.5c0,0.2-0.1,0.4-0.2,0.7l-0.2,0.9
			c-0.1,0.2-0.2,0.7-0.2,0.7c-0.1,0.2-0.2,0.3-0.4,0.3c-0.1,0-0.3-0.1-0.3-0.3c0,0,0.1-0.3,0.1-0.4L335.1,60.7z"/>
	</g>
	<path class="st0" d="M315.4,57.8v7.1 M258.7,57.8v7.1 M202,64.9v-7.1"/>
	<polyline points="263.2,48.5 258.7,50.7 263.2,53 262.1,50.7 	"/>
	<line class="st0" x1="262.1" y1="50.7" x2="279.9" y2="50.7"/>
	<polyline points="310.8,53 315.4,50.7 310.8,48.5 312,50.7 	"/>
	<line class="st0" x1="294.1" y1="50.7" x2="312" y2="50.7"/>
	<g>
		<path class="st1" d="M288.7,54c0,0.2,0,0.2-0.2,0.2c-0.1,0-0.1,0-0.2-0.2l-2.5-5.9c0-0.1,0-0.1-0.1-0.2l-1.3,5.3
			c0,0.1,0,0.2,0,0.2c0,0.2,0.1,0.4,0.7,0.4c0.1,0,0.2,0,0.2,0.1c0,0.2-0.1,0.2-0.2,0.2c-0.3,0-0.7,0-1,0c-0.3,0-0.7,0-1,0
			c-0.1,0-0.1,0-0.1-0.1c0-0.2,0.1-0.2,0.2-0.2c0.8,0,1-0.3,1.1-0.7l1.3-5.4c0-0.1-0.6-0.1-0.7-0.1c-0.2,0-0.3,0-0.3-0.1
			c0-0.2,0.1-0.2,0.3-0.2h1.3c0.2,0,0.2,0,0.3,0.2l2.2,5.2l1.1-4.4c0,0,0-0.2,0-0.2c0-0.2-0.1-0.4-0.7-0.4c-0.1,0-0.2,0-0.2-0.1
			c0-0.2,0.1-0.2,0.2-0.2c0.3,0,0.7,0,1,0c0.3,0,0.7,0,1,0c0.1,0,0.1,0.1,0.1,0.1c0,0.2-0.1,0.2-0.2,0.2c-0.8,0-1,0.3-1.1,0.7
			L288.7,54z"/>
	</g>
	<polyline points="149.8,48.5 145.3,50.7 149.8,53 148.7,50.7 	"/>
	<line class="st0" x1="148.7" y1="50.7" x2="166.5" y2="50.7"/>
	<polyline points="197.4,53 202,50.7 197.4,48.5 198.6,50.7 	"/>
	<line class="st0" x1="180.7" y1="50.7" x2="198.6" y2="50.7"/>
	<g>
		<path class="st1" d="M175.3,54c0,0.2,0,0.2-0.2,0.2c-0.1,0-0.1,0-0.2-0.2l-2.5-5.9c0-0.1,0-0.1-0.1-0.2l-1.3,5.3
			c0,0.1,0,0.2,0,0.2c0,0.2,0.1,0.4,0.7,0.4c0.1,0,0.2,0,0.2,0.1c0,0.2-0.1,0.2-0.2,0.2c-0.3,0-0.7,0-1,0c-0.3,0-0.7,0-1,0
			c-0.1,0-0.1,0-0.1-0.1c0-0.2,0.1-0.2,0.2-0.2c0.8,0,1-0.3,1.1-0.7l1.3-5.4c0-0.1-0.6-0.1-0.7-0.1c-0.2,0-0.3,0-0.3-0.1
			c0-0.2,0.1-0.2,0.3-0.2h1.3c0.2,0,0.2,0,0.3,0.2l2.2,5.2l1.1-4.4c0,0,0-0.2,0-0.2c0-0.2-0.1-0.4-0.7-0.4c-0.1,0-0.2,0-0.2-0.1
			c0-0.2,0.1-0.2,0.2-0.2c0.3,0,0.7,0,1,0c0.3,0,0.7,0,1,0c0.1,0,0.1,0.1,0.1,0.1c0,0.2-0.1,0.2-0.2,0.2c-0.8,0-1,0.3-1.1,0.7
			L175.3,54z"/>
	</g>
	<line class="st0" x1="145.3" y1="64.9" x2="145.3" y2="57.8"/>
	<g>
		<defs>
			<polygon id="SVGID_1_" points="202,36.6 202,29.5 258.7,29.5 258.7,43.6 202,43.6 			"/>
		</defs>
		<clipPath id="SVGID_2_">
			<use xlink:href="#SVGID_1_"  style="overflow:visible;"/>
		</clipPath>
		<path class="st5" d="M229.3,73l-35.4-35.4 M232.4,69.9L197,34.4 M235.6,66.7l-35.4-35.4 M238.7,63.6l-35.4-35.4 M241.8,60.5
			l-35.4-35.4 M244.9,57.4l-35.4-35.4 M248,54.3l-35.4-35.4 M251.2,51.1l-35.4-35.4 M254.3,48l-35.4-35.4 M257.4,44.9L222,9.5
			 M260.5,41.8L225.1,6.3 M263.6,38.7L228.2,3.2 M266.8,35.5L231.3,0.1"/>
	</g>
	<polygon class="st6" points="202,36.6 202,29.5 258.7,29.5 258.7,43.6 202,43.6 	"/>
	<g>
		<path class="st1" d="M229.5,35.6H229c-0.1-1.2-0.4-1.9-2-1.9h-1.4v2.7h0.5c1,0,1-0.4,1-1.2h0.5V38h-0.5c0-0.7-0.1-1.2-1-1.2h-0.5
			v2.7h1.3V40c-0.4,0-1.5,0-2,0c-0.4,0-1.4,0-1.8,0v-0.5h1.1v-5.8h-1.1v-0.5h6L229.5,35.6z"/>
		<path class="st1" d="M232.9,39.6h1.1V40c-0.4,0-1.4,0-1.8,0c-0.4,0-1.4,0-1.8,0v-0.5h1.1v-5.9h-1.1v-0.5h4.2
			c1.7,0,2.6,0.8,2.6,1.9c0,1.2-1.2,1.9-2.5,1.9h-1.8V39.6z M235.6,35.1c0-0.7,0-1.5-1.5-1.5h-1.3v2.9h1.3
			C235.6,36.6,235.6,35.8,235.6,35.1z"/>
	</g>
	<polyline points="206.5,48.5 202,50.7 206.5,53 205.4,50.7 	"/>
	<line class="st0" x1="205.4" y1="50.7" x2="223.2" y2="50.7"/>
	<polyline points="254.1,53 258.7,50.7 254.1,48.5 255.3,50.7 	"/>
	<line class="st0" x1="237.4" y1="50.7" x2="255.3" y2="50.7"/>
	<g>
		<path class="st1" d="M231.9,54c0,0.2,0,0.2-0.2,0.2c-0.1,0-0.1,0-0.2-0.2l-2.5-5.9c0-0.1,0-0.1-0.1-0.2l-1.3,5.3
			c0,0.1,0,0.2,0,0.2c0,0.2,0.1,0.4,0.7,0.4c0.1,0,0.2,0,0.2,0.1c0,0.2-0.1,0.2-0.2,0.2c-0.3,0-0.7,0-1,0c-0.3,0-0.7,0-1,0
			c-0.1,0-0.1,0-0.1-0.1c0-0.2,0.1-0.2,0.2-0.2c0.8,0,1-0.3,1.1-0.7l1.3-5.4c0-0.1-0.6-0.1-0.7-0.1c-0.2,0-0.3,0-0.3-0.1
			c0-0.2,0.1-0.2,0.3-0.2h1.3c0.2,0,0.2,0,0.3,0.2l2.2,5.2l1.1-4.4c0,0,0-0.2,0-0.2c0-0.2-0.1-0.4-0.7-0.4c-0.1,0-0.2,0-0.2-0.1
			c0-0.2,0.1-0.2,0.2-0.2c0.3,0,0.7,0,1,0c0.3,0,0.7,0,1,0c0.1,0,0.1,0.1,0.1,0.1c0,0.2-0.1,0.2-0.2,0.2c-0.8,0-1,0.3-1.1,0.7
			L231.9,54z"/>
	</g>
	<polyline points="239.7,69.4 237.4,64.9 235.1,69.4 237.4,68.3 	"/>
	<line class="st0" x1="237.4" y1="79.1" x2="237.4" y2="68.3"/>
	<g>
		<path class="st7" d="M215.9,86.6c-0.2,0-0.3,0-0.3-0.2s0.2-0.2,0.3-0.2h5.4c0.2,0,0.3,0,0.3,0.2s-0.2,0.2-0.3,0.2H215.9z"/>
	</g>
	<g>
		<path class="st7" d="M224,86c0.1-0.5,0.2-0.6,0.2-0.8c0-0.3-0.1-0.5-0.3-0.5c-0.4,0-0.6,0.5-0.7,1.2c-0.1,0.2-0.1,0.2-0.2,0.2
			c0,0-0.1,0-0.1-0.1c0,0,0.1-0.6,0.3-1c0.1-0.2,0.3-0.6,0.7-0.6c0.5,0,0.9,0.3,0.9,0.9c0.2-0.2,0.7-0.9,1.6-0.9
			c0.7,0,1.1,0.4,1.1,1.1c0,0.6-0.4,1.7-0.6,2.2c-0.1,0.2-0.2,0.5-0.2,0.7c0,0.2,0.1,0.3,0.2,0.3c0.5,0,0.8-0.6,1-1.2
			c0.1-0.1,0.1-0.2,0.2-0.2c0,0,0.1,0,0.1,0.1c0,0.1-0.4,1.5-1.3,1.5c-0.5,0-0.8-0.3-0.8-0.8c0-0.1,0-0.2,0.1-0.5
			c0.2-0.4,0.6-1.7,0.6-2.3c0-0.3-0.1-0.7-0.5-0.7c-0.9,0-1.5,0.9-1.6,1.2c0,0-0.1,0.3-0.1,0.5c0,0.2-0.1,0.4-0.2,0.7l-0.2,0.9
			c-0.1,0.2-0.2,0.7-0.2,0.7c-0.1,0.2-0.2,0.3-0.4,0.3c-0.1,0-0.3-0.1-0.3-0.3c0,0,0.1-0.3,0.1-0.4L224,86z"/>
	</g>
	<g>
		<path class="st7" d="M230.5,90.4c-1.6,0-1.6-1.9-1.6-2.4s0-2.4,1.6-2.4c0.6,0,1,0.3,1.2,0.6c0.3,0.5,0.4,1,0.4,1.8
			C232.1,88.6,232.1,90.4,230.5,90.4z M231.4,89.5c0.1-0.4,0.1-1,0.1-1.5c0-0.6,0-1.1-0.1-1.5c-0.1-0.4-0.5-0.6-0.9-0.6
			c-0.3,0-0.7,0.1-0.9,0.7c-0.1,0.4-0.1,0.9-0.1,1.4c0,0.5,0,1.1,0.1,1.5c0.1,0.6,0.6,0.8,0.9,0.8C230.8,90.2,231.3,90.1,231.4,89.5
			z"/>
	</g>
	<g>
		<path class="st7" d="M239.3,89.4c0,0.1,0,0.3-0.2,0.3s-0.2-0.2-0.2-0.3v-2.8h-2.8c-0.1,0-0.3,0-0.3-0.2s0.2-0.2,0.3-0.2h2.8v-2.8
			c0-0.1,0-0.3,0.2-0.3s0.2,0.2,0.2,0.3v2.8h2.8c0.1,0,0.3,0,0.3,0.2s-0.2,0.2-0.3,0.2h-2.8V89.4z"/>
	</g>
	<g>
		<path class="st7" d="M246.4,88.8c-0.1,0.1-0.2,0.2-0.3,0.2s-0.3-0.1-0.3-0.3c0-0.1,0.1-0.2,0.2-0.3l2.8-2.7l-1-2.7
			c-0.2-0.7-0.3-0.7-0.6-0.8c0,0-0.1,0-0.1-0.1c0-0.1,0.1-0.1,0.2-0.1c0.5,0,1,0.1,1.2,0.7l2,5.7c0.1,0.2,0.1,0.3,0.2,0.5
			c0,0,0,0.1,0,0.1c0,0,0,0.1-0.1,0.1h-0.2c-0.3,0-0.4,0-0.5-0.2c-0.2-0.2-0.6-1.8-1-2.8L246.4,88.8z"/>
		<path class="st7" d="M257.1,88.7c0,0.2,0,0.2-0.2,0.2c-0.1,0-0.1,0-0.2-0.2l-2.5-5.9c0-0.1,0-0.1-0.1-0.2l-1.3,5.3
			c0,0.1,0,0.2,0,0.2c0,0.2,0.1,0.4,0.7,0.4c0.1,0,0.2,0,0.2,0.1c0,0.2-0.1,0.2-0.2,0.2c-0.3,0-0.7,0-1,0c-0.3,0-0.7,0-1,0
			c-0.1,0-0.1,0-0.1-0.1c0-0.2,0.1-0.2,0.2-0.2c0.8,0,1-0.3,1.1-0.7l1.3-5.4c0-0.1-0.6-0.1-0.7-0.1c-0.2,0-0.3,0-0.3-0.1
			c0-0.2,0.1-0.2,0.3-0.2h1.3c0.2,0,0.2,0,0.3,0.2l2.2,5.2l1.1-4.4c0,0,0-0.2,0-0.2c0-0.2-0.1-0.4-0.7-0.4c-0.1,0-0.2,0-0.2-0.1
			c0-0.2,0.1-0.2,0.2-0.2c0.3,0,0.7,0,1,0c0.3,0,0.7,0,1,0c0.1,0,0.1,0.1,0.1,0.1c0,0.2-0.1,0.2-0.2,0.2c-0.8,0-1,0.3-1.1,0.7
			L257.1,88.7z"/>
	</g>
	<g>
		<path class="st1" d="M203.7,74.2c-0.4,0.9-1.2,1.2-1.7,1.2c-0.5,0-1.2-0.2-1.6-1c-0.4-0.8-0.4-1.7-0.4-2.4c0-0.8,0-1.6,0.4-2.3
			c0.4-0.9,1.1-1.2,1.7-1.2c0.4,0,1.2,0.2,1.7,1.1c0.3,0.7,0.4,1.5,0.4,2.3C204.1,72.8,204,73.6,203.7,74.2z M203.1,73.9
			c0.1-0.6,0.1-1.3,0.1-2.1c0-0.6,0-1.4-0.1-1.9c-0.2-1-0.8-1.2-1.2-1.2c-0.2,0-1,0.1-1.2,1.3c-0.1,0.5-0.1,1.2-0.1,1.8
			c0,0.6,0,1.5,0.1,2.1c0.2,1,0.8,1.2,1.2,1.2C202.4,75.2,203,74.9,203.1,73.9z"/>
	</g>
	<g>
		<path class="st1" d="M251.7,74.7c0,0.2,0,0.2-0.2,0.2c-0.1,0-0.1,0-0.2-0.2l-2.5-5.9c0-0.1,0-0.1-0.1-0.2l-1.3,5.3
			c0,0.1,0,0.2,0,0.2c0,0.2,0.1,0.4,0.7,0.4c0.1,0,0.2,0,0.2,0.1c0,0.2-0.1,0.2-0.2,0.2c-0.3,0-0.7,0-1,0c-0.3,0-0.7,0-1,0
			c-0.1,0-0.1,0-0.1-0.1c0-0.2,0.1-0.2,0.2-0.2c0.8,0,1-0.3,1.1-0.7l1.3-5.4c0-0.1-0.6-0.1-0.7-0.1c-0.2,0-0.3,0-0.3-0.1
			c0-0.2,0.1-0.2,0.3-0.2h1.3c0.2,0,0.2,0,0.3,0.2l2.2,5.2l1.1-4.4c0,0,0-0.2,0-0.2c0-0.2-0.1-0.4-0.7-0.4c-0.1,0-0.2,0-0.2-0.1
			c0-0.2,0.1-0.2,0.2-0.2c0.3,0,0.7,0,1,0c0.3,0,0.7,0,1,0c0.1,0,0.1,0.1,0.1,0.1c0,0.2-0.1,0.2-0.2,0.2c-0.8,0-1,0.3-1.1,0.7
			L251.7,74.7z"/>
	</g>
	<g>
		<path class="st1" d="M258,72.6c-0.2,0-0.3,0-0.3-0.2s0.2-0.2,0.3-0.2h5.4c0.2,0,0.3,0,0.3,0.2s-0.2,0.2-0.3,0.2H258z"/>
	</g>
	<g>
		<path class="st1" d="M269.7,74.2c0,0.4,0,0.5,0.9,0.5h0.3v0.3c-0.3,0-1.2,0-1.6,0s-1.3,0-1.6,0v-0.3h0.3c0.9,0,0.9-0.1,0.9-0.5V69
			c-0.5,0.3-1.1,0.3-1.3,0.3v-0.3c0.3,0,1.2,0,1.8-0.6c0.2,0,0.2,0,0.2,0.3V74.2z"/>
	</g>
	<line class="st4" x1="202" y1="61.4" x2="237.4" y2="61.4"/>
	<line class="st3" x1="237.4" y1="61.4" x2="258.7" y2="61.4"/>
	<line class="st0" x1="202" y1="61.4" x2="141.7" y2="61.4"/>
</g>
</svg>
