<?xml version="1.0" encoding="utf-8"?>
<!-- Generator: Adobe Illustrator 22.1.0, SVG Export Plug-In . SVG Version: 6.00 Build 0)  -->
<svg version="1.1" id="Layer_1" xmlns="http://www.w3.org/2000/svg" xmlns:xlink="http://www.w3.org/1999/xlink" x="0px" y="0px"
	 viewBox="0 0 428.9 112.6" style="enable-background:new 0 0 428.9 112.6;" xml:space="preserve">
<style type="text/css">
	.st0{fill:#1D1D1B;}
	.st1{fill:none;stroke:#000000;stroke-width:0.8504;stroke-miterlimit:10;}
	.st2{fill:#0000FF;}
	.st3{fill:none;stroke:#0000FF;stroke-width:0.8504;stroke-miterlimit:10;}
	.st4{fill:none;stroke:#000000;stroke-width:1.7008;stroke-miterlimit:10;stroke-dasharray:3.1496,3.1496;}
	.st5{fill:none;stroke:#000000;stroke-width:1.7008;stroke-miterlimit:10;stroke-dasharray:2.8346,2.8346;}
	.st6{fill:none;stroke:#000000;stroke-width:1.7008;stroke-miterlimit:10;stroke-dasharray:3.0371,3.0371;}
	.st7{fill:none;stroke:#000000;stroke-width:1.7008;stroke-miterlimit:10;stroke-dasharray:2.3622,2.3622;}
	.st8{fill:none;stroke:#000000;stroke-width:1.7008;stroke-miterlimit:10;}
	.st9{fill:none;stroke:#000000;stroke-width:1.4173;stroke-linecap:round;stroke-miterlimit:10;stroke-dasharray:0,4.2519;}
	.st10{fill:#FF0000;}
	.st11{clip-path:url(#SVGID_2_);fill:none;stroke:#000000;stroke-width:0.1417;stroke-linecap:square;stroke-miterlimit:10;}
	.st12{fill:none;stroke:#000000;stroke-width:0.1417;stroke-linecap:round;stroke-miterlimit:10;stroke-dasharray:0,2.9943;}
	.st13{clip-path:url(#SVGID_4_);fill:none;stroke:#000000;stroke-width:0.1417;stroke-linecap:square;stroke-miterlimit:10;}
</style>
<g>
	<g>
		<path class="st0" d="M190.6,37.8c0,0.4,0,0.5,0.8,0.5h0.2v0.3c-0.3,0-1.1,0-1.5,0c-0.4,0-1.1,0-1.5,0v-0.3h0.2
			c0.8,0,0.8-0.1,0.8-0.5v-5.3c0-0.4,0-0.5-0.8-0.5h-0.2v-0.3h3.5c1.4,0,2.4,0.9,2.4,1.9c0,1-1.1,1.8-2.3,1.8h-1.7V37.8z
			 M191.9,35.2c1.6,0,1.6-1.1,1.6-1.5c0-0.5,0-1.5-1.6-1.5h-0.9c-0.5,0-0.5,0.1-0.5,0.4v2.7H191.9z"/>
		<path class="st0" d="M196.3,37.8c0.2,0.4,0.6,0.7,1.1,0.7c0.1,0,1,0,1.3-1c0-0.1,0-0.1,0.1-0.1c0,0,0.1,0,0.1,0.1
			c0,0.2-0.4,1.3-1.7,1.3c-1.1,0-2.2-1-2.2-2.3c0-1.2,0.9-2.3,2.1-2.3c1.2,0,1.8,1,1.8,2c0,0.2,0,0.2-0.2,0.2H196
			C196,36.6,196,37.3,196.3,37.8z M198.4,36.1c0-0.4-0.1-1.7-1.1-1.7c-0.3,0-1.2,0.2-1.2,1.7H198.4z"/>
	</g>
	<g>
		<path class="st0" d="M202.3,34.2c0.4,0,0.7,0.3,0.7,0.6s-0.2,0.4-0.4,0.4c-0.2,0-0.4-0.1-0.4-0.4c0-0.3,0.2-0.4,0.2-0.4
			c0,0,0,0-0.1,0c-0.8,0-1.2,0.9-1.2,1.9v1.5c0,0.4,0,0.5,0.8,0.5h0.2v0.3c-0.4,0-0.9,0-1.3,0c-0.3,0-0.7,0-1.1,0v-0.3
			c0.7,0,0.8,0,0.8-0.4v-2.7c0-0.5-0.1-0.6-0.8-0.6v-0.3l1.4-0.1v1.1C201.2,34.8,201.5,34.2,202.3,34.2z"/>
		<path class="st0" d="M205.1,37.8c0,0.4,0,0.4,0.7,0.4v0.3c-0.3,0-0.7,0-1,0c-0.2,0-0.8,0-1.1,0v-0.3c0.7,0,0.8,0,0.8-0.4v-2.7
			c0-0.5-0.1-0.5-0.7-0.5v-0.3l1.4-0.1V37.8z M204.6,33c-0.3,0-0.5-0.3-0.5-0.5c0-0.3,0.2-0.5,0.5-0.5c0.3,0,0.5,0.2,0.5,0.5
			S204.9,33,204.6,33z"/>
	</g>
	<g>
		<path class="st0" d="M208.6,38.7c-1.2,0-2.2-1-2.2-2.2c0-1.2,1-2.3,2.2-2.3c1.2,0,2.2,1.1,2.2,2.3
			C210.8,37.7,209.8,38.7,208.6,38.7z M209.7,37.7c0.2-0.4,0.2-1,0.2-1.3c0-0.4,0-1-0.3-1.4c-0.3-0.4-0.7-0.6-1.1-0.6
			c-0.4,0-0.9,0.2-1.1,0.7c-0.2,0.4-0.2,1-0.2,1.4c0,0.4,0,1,0.2,1.4c0.3,0.5,0.7,0.7,1.1,0.7C209.1,38.4,209.5,38.1,209.7,37.7z"/>
		<path class="st0" d="M213.8,38.7c-1.1,0-2.1-1-2.1-2.3c0-1.3,1-2.3,2.2-2.3c0.5,0,1,0.3,1.3,0.6v-2.2c0-0.5-0.1-0.6-0.8-0.6v-0.3
			l1.4-0.1v6c0,0.5,0.1,0.6,0.8,0.6v0.3l-1.5,0.1V38C214.9,38.3,214.5,38.7,213.8,38.7z M215.1,35c-0.3-0.4-0.7-0.6-1.1-0.6
			c-0.5,0-0.9,0.3-1.1,0.6c-0.3,0.4-0.3,1-0.3,1.4c0,0.4,0,1,0.3,1.4c0.2,0.4,0.6,0.6,1,0.6c0.4,0,0.9-0.2,1.2-0.7
			c0.1-0.2,0.1-0.2,0.1-0.4v-2C215.2,35.2,215.2,35.2,215.1,35z"/>
	</g>
	<g>
		<path class="st0" d="M218.7,37.8c0,0.4,0,0.4,0.7,0.4v0.3c-0.3,0-0.7,0-1,0c-0.2,0-0.8,0-1.1,0v-0.3c0.7,0,0.8,0,0.8-0.4v-2.7
			c0-0.5-0.1-0.5-0.7-0.5v-0.3l1.4-0.1V37.8z M218.2,33c-0.3,0-0.5-0.3-0.5-0.5c0-0.3,0.2-0.5,0.5-0.5c0.3,0,0.5,0.2,0.5,0.5
			S218.5,33,218.2,33z"/>
		<path class="st0" d="M222.2,38.4c0.4,0,1-0.1,1.3-1c0-0.1,0-0.1,0.1-0.1c0,0,0.1,0,0.1,0.1s-0.3,1.3-1.7,1.3c-1.2,0-2.1-1-2.1-2.3
			c0-1.2,0.9-2.3,2.2-2.3c0.8,0,1.5,0.4,1.5,1.1c0,0.3-0.2,0.5-0.5,0.5c-0.3,0-0.5-0.2-0.5-0.5c0-0.1,0.1-0.4,0.5-0.5
			c-0.3-0.4-1-0.4-1.1-0.4c-0.5,0-1.3,0.4-1.3,2C220.8,38,221.7,38.4,222.2,38.4z"/>
	</g>
	<g>
		<path class="st0" d="M202.1,54.9c-0.2,0-0.4,0-0.4-0.2s0.2-0.2,0.3-0.2h5.9c-0.5-0.5-1-1.3-1-1.5c0-0.1,0.1-0.1,0.2-0.1
			c0.1,0,0.1,0,0.3,0.2c0.6,1.1,1.6,2,2.9,2.4c0.2,0.1,0.2,0.1,0.2,0.1l0,0c0,0,0,0,0,0.1c0,0,0,0,0,0.1c0,0,0,0-0.2,0.1
			c-0.5,0.1-1.2,0.4-1.9,1c-0.6,0.6-0.9,1.1-1.1,1.5c0,0.1-0.1,0.1-0.2,0.1c-0.1,0-0.2,0-0.2-0.1c0-0.1,0.5-1,1-1.5h-5.9
			c-0.2,0-0.3,0-0.3-0.2c0-0.2,0.2-0.2,0.4-0.2h6.3c0.4-0.3,0.9-0.6,1.3-0.8c-0.3-0.1-0.8-0.4-1.3-0.8H202.1z"/>
	</g>
	<g>
		<path class="st0" d="M186,43.1c0-0.4,0-0.5-0.8-0.5H185v-0.3h5.6l0.3,2.2h-0.2c-0.2-1.4-0.4-1.9-2-1.9h-1.3
			c-0.5,0-0.5,0.1-0.5,0.4v2.4h0.9c1,0,1.1-0.3,1.1-1.2h0.2v2.6h-0.2c0-0.8-0.1-1.2-1.1-1.2h-0.9v2.7c0,0.3,0,0.4,0.5,0.4h1.3
			c1.7,0,1.9-0.7,2.2-2.3h0.2l-0.4,2.6H185v-0.3h0.2c0.8,0,0.8-0.1,0.8-0.5V43.1z"/>
		<path class="st0" d="M195.6,48.5c0.2,0.3,0.4,0.3,0.9,0.3v0.3c-0.3,0-0.7,0-1,0c-0.2,0-0.8,0-1.1,0v-0.3c0.3,0,0.4-0.2,0.4-0.2
			c0-0.1-0.1-0.2-0.2-0.3l-0.8-1c-0.6,0.7-0.9,1-0.9,1.3c0,0.1,0.1,0.3,0.3,0.3v0.3c-0.2,0-0.7,0-0.9,0c-0.3,0-0.6,0-0.8,0v-0.3
			c0.2,0,0.8,0,1.3-0.6l0.9-1.2l-1-1.3c-0.5-0.6-0.5-0.6-1.2-0.6v-0.3c0.3,0,0.7,0,0.9,0c0.2,0,0.8,0,1.1,0v0.3
			c-0.2,0-0.3,0.1-0.3,0.2c0,0.1,0,0.1,0.1,0.2l0.8,1l0.6-0.8c0-0.1,0.1-0.2,0.1-0.3c0-0.2-0.1-0.3-0.3-0.3v-0.3c0.1,0,0.7,0,1,0
			c0.3,0,0.6,0,0.8,0v0.3c-0.5,0-0.9,0.2-1.2,0.5c-0.2,0.3-0.6,0.7-0.9,1.1L195.6,48.5z"/>
		<path class="st0" d="M198.4,47.9c0,0.2,0,1.1,0.7,1.1c0.4,0,0.7-0.4,0.7-1.1v-0.5h0.2v0.6c0,0.6-0.3,1.3-1,1.3
			c-0.4,0-1.3-0.1-1.3-1.3v-2.8h-0.8v-0.2c1,0,1.3-1.1,1.3-1.9h0.2v1.8h1.4v0.3h-1.4V47.9z"/>
		<path class="st0" d="M201.9,48.3c0.2,0.4,0.6,0.7,1.1,0.7c0.1,0,1,0,1.3-1c0-0.1,0-0.1,0.1-0.1c0,0,0.1,0,0.1,0.1
			c0,0.2-0.4,1.3-1.7,1.3c-1.1,0-2.2-1-2.2-2.3c0-1.2,0.9-2.3,2.1-2.3c1.2,0,1.8,1,1.8,2c0,0.2,0,0.2-0.2,0.2h-2.8
			C201.6,47.1,201.6,47.8,201.9,48.3z M204,46.6c0-0.4-0.1-1.7-1.1-1.7c-0.3,0-1.2,0.2-1.2,1.7H204z"/>
		<path class="st0" d="M205.3,45.1v-0.3l1.4-0.1v1c0.3-0.6,0.7-1,1.5-1c0.6,0,0.9,0.2,1,0.4c0.3,0.4,0.3,0.7,0.3,1.5v1.9
			c0,0.3,0.3,0.3,0.8,0.3v0.3c-0.3,0-0.9,0-1.1,0c-0.3,0-0.8,0-1.1,0v-0.3c0.7,0,0.8,0,0.8-0.4V46c0-0.6-0.1-1.1-0.7-1.1
			c-0.6,0-1.3,0.6-1.3,1.6v1.8c0,0.4,0.1,0.4,0.8,0.4v0.3c-0.3,0-0.9,0-1.1,0c-0.3,0-0.8,0-1.1,0v-0.3c0.7,0,0.8,0,0.8-0.4v-2.7
			C206.1,45.2,206,45.1,205.3,45.1z"/>
		<path class="st0" d="M211.3,46.7c-0.3-0.2-0.4-0.5-0.4-0.8c0-0.6,0.4-1.2,1.6-1.2c0.1,0,0.6,0,0.9,0.3c0,0,0.1-0.1,0.2-0.2
			c0.1-0.1,0.1-0.1,0.2-0.1c0.1,0,0.1,0.1,0.1,0.2v1c0,0.2,0,0.2-0.1,0.2c0,0-0.1,0-0.1-0.1c0-0.3-0.1-1.2-1.2-1.2
			c-0.9,0-1.1,0.4-1.1,0.8c0,0.6,0.7,0.7,1.2,0.8c0.4,0.1,0.8,0.2,1.1,0.5c0.1,0.1,0.4,0.4,0.4,0.9c0,0.7-0.5,1.4-1.6,1.4
			c-0.2,0-0.7,0-1.1-0.4c-0.2,0.2-0.2,0.2-0.2,0.2c-0.2,0.2-0.2,0.2-0.2,0.2c-0.1,0-0.1-0.1-0.1-0.2v-1.3c0-0.2,0-0.2,0.1-0.2
			c0.1,0,0.1,0,0.1,0.2c0.2,0.8,0.5,1.4,1.4,1.4c0.8,0,1.1-0.4,1.1-0.9c0-0.7-0.8-0.9-1-0.9C211.9,47,211.6,46.9,211.3,46.7z"/>
		<path class="st0" d="M216.2,48.3c0,0.4,0,0.4,0.7,0.4v0.3c-0.3,0-0.7,0-1,0c-0.2,0-0.8,0-1.1,0v-0.3c0.7,0,0.8,0,0.8-0.4v-2.7
			c0-0.5-0.1-0.5-0.7-0.5v-0.3l1.4-0.1V48.3z M215.7,43.5c-0.3,0-0.5-0.3-0.5-0.5c0-0.3,0.2-0.5,0.5-0.5c0.3,0,0.5,0.2,0.5,0.5
			S216,43.5,215.7,43.5z"/>
		<path class="st0" d="M219.7,49.2c-1.2,0-2.2-1-2.2-2.2c0-1.2,1-2.3,2.2-2.3c1.2,0,2.2,1.1,2.2,2.3
			C221.9,48.2,220.9,49.2,219.7,49.2z M220.9,48.2c0.2-0.4,0.2-1,0.2-1.3c0-0.4,0-1-0.3-1.4c-0.3-0.4-0.7-0.6-1.1-0.6
			c-0.4,0-0.9,0.2-1.1,0.7c-0.2,0.4-0.2,1-0.2,1.4c0,0.4,0,1,0.2,1.4c0.3,0.5,0.7,0.7,1.1,0.7C220.2,48.9,220.6,48.6,220.9,48.2z"/>
	</g>
	<g>
		<path class="st0" d="M222.6,45.1v-0.3l1.4-0.1v1c0.3-0.6,0.7-1,1.5-1c0.6,0,0.9,0.2,1,0.4c0.3,0.4,0.3,0.7,0.3,1.5v1.9
			c0,0.3,0.3,0.3,0.8,0.3v0.3c-0.3,0-0.9,0-1.1,0c-0.3,0-0.8,0-1.1,0v-0.3c0.7,0,0.8,0,0.8-0.4V46c0-0.6-0.1-1.1-0.7-1.1
			c-0.6,0-1.3,0.6-1.3,1.6v1.8c0,0.4,0.1,0.4,0.8,0.4v0.3c-0.3,0-0.9,0-1.1,0c-0.3,0-0.8,0-1.1,0v-0.3c0.7,0,0.8,0,0.8-0.4v-2.7
			C223.4,45.2,223.3,45.1,222.6,45.1z"/>
	</g>
	<g>
		<path class="st0" d="M198.7,72c-0.1,0-1-0.6-1.6-1.9c-0.5-1.1-0.7-2.3-0.7-3.1c0-0.8,0.1-1.9,0.6-3c0.6-1.3,1.5-1.9,1.6-1.9
			c0.1,0,0.1,0,0.1,0.1c0,0,0,0-0.1,0.2c-1.2,1.2-1.6,3-1.6,4.7c0,1.5,0.3,3.4,1.6,4.7C198.8,71.8,198.8,71.9,198.7,72
			C198.8,72,198.8,72,198.7,72z"/>
		<path class="st0" d="M201.7,68.7c0,0.4,0,0.5,0.8,0.5h0.2v0.3c-0.3,0-1.1,0-1.5,0c-0.4,0-1.1,0-1.5,0v-0.3h0.2
			c0.8,0,0.8-0.1,0.8-0.5v-5.3c0-0.4,0-0.5-0.8-0.5h-0.2v-0.3h3.5c1.4,0,2.4,0.9,2.4,1.9c0,1-1.1,1.8-2.3,1.8h-1.7V68.7z
			 M203.1,66.1c1.6,0,1.6-1.1,1.6-1.5c0-0.5,0-1.5-1.6-1.5h-0.9c-0.5,0-0.5,0.1-0.5,0.4v2.7H203.1z"/>
		<path class="st0" d="M207.7,63.5c0-0.4,0-0.5-0.8-0.5h-0.2v-0.3h5.6l0.3,2.2h-0.2c-0.2-1.4-0.4-1.9-2-1.9H209
			c-0.5,0-0.5,0.1-0.5,0.4v2.4h0.9c1,0,1.1-0.3,1.1-1.2h0.2v2.6h-0.2c0-0.8-0.1-1.2-1.1-1.2h-0.9v2.7c0,0.3,0,0.4,0.5,0.4h1.3
			c1.7,0,1.9-0.7,2.2-2.3h0.2l-0.4,2.6h-5.7v-0.3h0.2c0.8,0,0.8-0.1,0.8-0.5V63.5z"/>
		<path class="st0" d="M215.4,70c-0.6,1.3-1.5,1.9-1.6,1.9c-0.1,0-0.1,0-0.1-0.1c0,0,0,0,0.1-0.2c1.2-1.3,1.6-3,1.6-4.7
			c0-2.1-0.6-3.7-1.5-4.7c-0.2-0.2-0.2-0.2-0.2-0.2c0-0.1,0-0.1,0.1-0.1c0.1,0,1,0.6,1.6,1.9c0.5,1.1,0.7,2.3,0.7,3.1
			C216,67.8,215.9,69,215.4,70z"/>
	</g>
	<polyline points="166.3,69.3 170.8,67 166.3,64.7 167.4,67 	"/>
	<line class="st1" x1="0.7" y1="67" x2="167.4" y2="67"/>
	<polyline points="66.8,25.5 64.5,20.9 62.2,25.5 64.5,24.3 	"/>
	<line class="st1" x1="64.5" y1="70.5" x2="64.5" y2="24.3"/>
	<g>
		<path class="st0" d="M176.3,66.3c0.1-0.5,0.2-0.6,0.2-0.8c0-0.3-0.1-0.5-0.3-0.5c-0.4,0-0.6,0.5-0.7,1.2c-0.1,0.2-0.1,0.2-0.2,0.2
			c0,0-0.1,0-0.1-0.1c0,0,0.1-0.6,0.3-1c0.1-0.2,0.3-0.6,0.7-0.6c0.5,0,0.9,0.3,0.9,0.9c0.2-0.2,0.7-0.9,1.6-0.9
			c0.7,0,1.1,0.4,1.1,1.1c0,0.6-0.4,1.7-0.6,2.2c-0.1,0.2-0.2,0.5-0.2,0.7c0,0.2,0.1,0.3,0.2,0.3c0.5,0,0.8-0.6,1-1.2
			c0-0.1,0-0.2,0.1-0.2c0,0,0.1,0,0.1,0.1c0,0.1-0.4,1.5-1.3,1.5c-0.5,0-0.8-0.3-0.8-0.8c0-0.1,0-0.2,0.1-0.5
			c0.2-0.4,0.6-1.7,0.6-2.3c0-0.3-0.1-0.7-0.5-0.7c-0.9,0-1.5,0.9-1.6,1.2c0,0-0.1,0.3-0.1,0.5c0,0.2-0.1,0.4-0.2,0.7l-0.2,0.9
			c-0.1,0.2-0.2,0.7-0.2,0.7c-0.1,0.2-0.2,0.3-0.4,0.3c-0.1,0-0.3-0.1-0.3-0.3c0,0,0.1-0.3,0.1-0.4L176.3,66.3z"/>
	</g>
	<g>
		<path class="st0" d="M66.2,76.4c-0.4,0.9-1.2,1.2-1.7,1.2c-0.5,0-1.2-0.2-1.6-1c-0.4-0.8-0.4-1.7-0.4-2.4c0-0.8,0-1.6,0.4-2.3
			c0.4-0.9,1.1-1.2,1.7-1.2c0.4,0,1.2,0.2,1.7,1.1c0.3,0.7,0.4,1.5,0.4,2.3C66.5,74.9,66.5,75.7,66.2,76.4z M65.6,76.1
			c0.1-0.6,0.1-1.3,0.1-2.1c0-0.6,0-1.4-0.1-1.9c-0.2-1-0.8-1.2-1.2-1.2c-0.2,0-1,0.1-1.2,1.3c-0.1,0.5-0.1,1.2-0.1,1.8
			c0,0.6,0,1.5,0.1,2.1c0.2,1,0.8,1.2,1.2,1.2C64.9,77.3,65.5,77,65.6,76.1z"/>
		<path class="st0" d="M79.1,76.5c0,0.4,0,0.5,0.9,0.5h0.3v0.3c-0.3,0-1.2,0-1.6,0c-0.4,0-1.3,0-1.6,0V77h0.3c0.9,0,0.9-0.1,0.9-0.5
			v-5.2c-0.5,0.3-1.1,0.3-1.3,0.3v-0.3c0.3,0,1.2,0,1.8-0.6c0.2,0,0.2,0,0.2,0.3V76.5z"/>
		<path class="st0" d="M93.4,76.5c0.2,0,0.9,0,0.9-0.1c0.1-0.1,0.2-0.6,0.2-0.9h0.2l-0.3,1.7h-3.7c0-0.2,0-0.3,0.1-0.4l1.9-2.1
			c0.5-0.6,1-1.4,1-2.2c0-0.8-0.4-1.6-1.3-1.6c-0.6,0-1.1,0.4-1.3,1c0,0,0,0,0.1,0c0.3,0,0.5,0.3,0.5,0.5c0,0.4-0.3,0.5-0.5,0.5
			c0,0-0.5,0-0.5-0.6c0-0.9,0.7-1.8,1.9-1.8c1.2,0,2.1,0.8,2.1,1.9c0,1-0.6,1.5-2.2,2.9l-1.1,1H93.4z"/>
		<path class="st0" d="M109.1,75.6c0,1-0.9,1.9-2.1,1.9c-1.1,0-2-0.7-2-1.6c0-0.4,0.3-0.6,0.6-0.6c0.3,0,0.6,0.2,0.6,0.6
			c0,0.4-0.3,0.6-0.7,0.5c0.3,0.6,1.1,0.8,1.5,0.8c0.4,0,1.1-0.3,1.1-1.6c0-1-0.4-1.7-1.2-1.7h-0.4c-0.2,0-0.2,0-0.2-0.1
			c0-0.1,0.1-0.1,0.1-0.1c0.1,0,0.3,0,0.4,0c0.2,0,0.6,0,0.9-0.5c0.3-0.4,0.3-1,0.3-1.1c0-0.9-0.5-1.1-1-1.1c-0.4,0-1,0.1-1.3,0.6
			c0.1,0,0.6,0,0.6,0.5c0,0.3-0.2,0.5-0.5,0.5c-0.3,0-0.5-0.2-0.5-0.5c0-0.8,0.8-1.4,1.8-1.4c1,0,1.8,0.6,1.8,1.4
			c0,0.8-0.6,1.5-1.4,1.8C108.4,74,109.1,74.8,109.1,75.6z"/>
	</g>
	<g>
		<path class="st2" d="M74.6,25.3c-0.1,0.4-0.2,0.7-0.2,0.9c0,0.3,0.2,0.7,0.5,0.7c0.3,0,1-0.2,1.3-1.3c0-0.1,0-0.1,0.1-0.1
			c0,0,0.1,0,0.1,0.1c0,0.2-0.6,1.5-1.6,1.5c-0.6,0-1-0.4-1.1-0.8c0,0.1-0.4,0.8-1,0.8c-0.4,0-0.9-0.2-0.9-0.7
			c0-0.3,0.2-0.6,0.5-0.6c0.1,0,0.4,0.1,0.4,0.3c0,0.3-0.2,0.5-0.5,0.5c0.2,0.1,0.4,0.1,0.5,0.1c0.4,0,0.8-0.4,0.9-1
			c0.4-1.4,0.5-2.1,0.5-2.4c0-0.6-0.3-0.7-0.5-0.7c-0.3,0-1,0.2-1.3,1.3c0,0.1-0.1,0.1-0.1,0.1c0,0-0.1,0-0.1-0.1
			c0-0.2,0.6-1.5,1.6-1.5c0.3,0,0.8,0.1,1.1,0.8c0.1-0.2,0.5-0.8,1-0.8c0.3,0,0.9,0.1,0.9,0.7c0,0.4-0.3,0.6-0.5,0.6
			c-0.3,0-0.4-0.2-0.4-0.3c0-0.2,0.2-0.5,0.5-0.5c-0.2-0.1-0.4-0.1-0.5-0.1c-0.7,0-0.9,0.9-1,1.2L74.6,25.3z"/>
	</g>
	<g>
		<path class="st2" d="M78.4,29.5v-10h1.4v0.4h-1v9.2h1v0.4H78.4z"/>
	</g>
	<g>
		<path class="st2" d="M81.4,24.1c0.1-0.5,0.2-0.6,0.2-0.8c0-0.3-0.1-0.5-0.3-0.5c-0.4,0-0.6,0.5-0.7,1.2c-0.1,0.2-0.1,0.2-0.2,0.2
			c0,0-0.1,0-0.1-0.1c0,0,0.1-0.6,0.3-1c0.1-0.2,0.3-0.6,0.7-0.6c0.5,0,0.9,0.3,0.9,0.9c0.2-0.2,0.7-0.9,1.6-0.9
			c0.7,0,1.1,0.4,1.1,1.1c0,0.6-0.4,1.7-0.6,2.2c-0.1,0.2-0.2,0.5-0.2,0.7c0,0.2,0.1,0.3,0.2,0.3c0.5,0,0.8-0.6,1-1.2
			c0-0.1,0-0.2,0.1-0.2c0,0,0.1,0,0.1,0.1c0,0.1-0.4,1.5-1.3,1.5c-0.5,0-0.8-0.3-0.8-0.8c0-0.1,0-0.2,0.1-0.5
			c0.2-0.4,0.6-1.7,0.6-2.3c0-0.3-0.1-0.7-0.5-0.7c-0.9,0-1.5,0.9-1.6,1.2c0,0-0.1,0.3-0.1,0.5c0,0.2-0.1,0.4-0.2,0.7l-0.2,0.9
			c-0.1,0.2-0.2,0.7-0.2,0.7c-0.1,0.2-0.2,0.3-0.4,0.3c-0.1,0-0.3-0.1-0.3-0.3c0-0.1,0.1-0.3,0.1-0.4L81.4,24.1z"/>
	</g>
	<g>
		<path class="st2" d="M87.6,29.5h-1.4v-0.4h1v-9.2h-1v-0.4h1.4V29.5z"/>
	</g>
	<g>
		<path class="st0" d="M135.1,77.5c-1.1,0-1.8-1-1.8-1.8c0-0.5,0.3-0.5,0.5-0.5c0.3,0,0.5,0.2,0.5,0.5c0,0.2-0.2,0.5-0.5,0.5
			c-0.1,0-0.1,0-0.2,0c0.2,0.6,0.7,1.1,1.5,1.1c0.5,0,0.8-0.3,1.1-0.6c0.2-0.4,0.2-1,0.2-1.4c0-0.5,0-0.9-0.2-1.3
			c-0.1-0.2-0.3-0.6-0.8-0.6c-0.8,0-1.2,0.5-1.3,0.7c0,0.1-0.1,0.1-0.1,0.1c-0.1,0-0.1-0.1-0.1-0.3v-2.9c0-0.2,0-0.2,0.1-0.2
			c0,0,0,0,0.1,0c0.5,0.2,0.9,0.3,1.3,0.3c0.7,0,1.2-0.2,1.4-0.3c0,0,0.1,0,0.1,0c0.1,0,0.1,0,0.1,0.1c0,0.1-0.7,1-1.9,1
			c-0.3,0-0.6-0.1-0.8-0.1v1.9c0.4-0.3,0.8-0.5,1.3-0.5c1.1,0,1.9,1,1.9,2.2C137.3,76.6,136.3,77.5,135.1,77.5z"/>
	</g>
	<g>
		<path class="st0" d="M118.9,75.7v-0.3l3.1-4.7c0.1-0.1,0.1-0.1,0.2-0.1c0.2,0,0.2,0.1,0.2,0.3v4.5h1v0.3h-1v0.9
			c0,0.4,0,0.5,0.8,0.5h0.2v0.3c-0.4,0-0.9,0-1.4,0s-0.9,0-1.3,0V77h0.2c0.7,0,0.8-0.1,0.8-0.5v-0.9H118.9z M121.7,71.6l-2.4,3.7
			h2.4V71.6z"/>
		<path class="st0" d="M149.6,73.1c1.1,0,2,1,2,2.2c0,1.3-0.9,2.3-2.1,2.3c-0.9,0-2.1-0.7-2.1-3.4c0-2.2,1.3-3.5,2.6-3.5
			c0.8,0,1.3,0.5,1.3,1.1c0,0.4-0.3,0.5-0.5,0.5c-0.2,0-0.5-0.1-0.5-0.5c0-0.4,0.4-0.4,0.5-0.4c-0.2-0.3-0.6-0.4-0.9-0.4
			c-0.5,0-1.7,0.4-1.7,2.9V74C148.5,73.6,148.9,73.1,149.6,73.1z M150.5,76.6c0.2-0.4,0.2-0.9,0.2-1.3c0-0.5,0-1-0.2-1.4
			c-0.3-0.6-0.8-0.6-0.9-0.6c-0.9,0-1.2,1-1.2,1.8c0,0.2,0,1,0.2,1.4c0.1,0.1,0.4,0.7,1,0.7C149.7,77.3,150.2,77.2,150.5,76.6z"/>
	</g>
	<g>
		<path class="st0" d="M164.6,73.1c-0.4,0.6-0.6,1.5-0.6,1.7c-0.1,0.5-0.1,1.1-0.1,1.6V77c0,0.1,0,0.5-0.5,0.5
			c-0.5,0-0.5-0.4-0.5-0.5c0-1,0.3-2.4,1.2-3.7c0.2-0.3,1-1.4,1.1-1.6h-2.1c-0.1,0-0.9,0-1,0.1c-0.1,0.1-0.2,0.7-0.2,0.9h-0.2
			l0.3-2.1h0.2c0,0.2,0.1,0.3,1.3,0.3h2.4c0,0.2,0,0.2-0.1,0.3L164.6,73.1z"/>
	</g>
	<g>
		<path class="st0" d="M46.2,75.4v-0.6h2.6v0.6H46.2z"/>
		<path class="st0" d="M52.4,76.5c0,0.4,0,0.5,0.9,0.5h0.3v0.3c-0.3,0-1.2,0-1.6,0c-0.4,0-1.3,0-1.6,0V77h0.3c0.9,0,0.9-0.1,0.9-0.5
			v-5.2c-0.5,0.3-1.1,0.3-1.3,0.3v-0.3c0.3,0,1.2,0,1.8-0.6c0.2,0,0.2,0,0.2,0.3V76.5z"/>
	</g>
	<g>
		<path class="st0" d="M32.1,75.4v-0.6h2.6v0.6H32.1z"/>
		<path class="st0" d="M38.4,76.5c0.2,0,0.9,0,0.9-0.1c0.1-0.1,0.2-0.6,0.2-0.9h0.2l-0.3,1.7h-3.7c0-0.2,0-0.3,0.1-0.4l1.9-2.1
			c0.5-0.6,1-1.4,1-2.2c0-0.8-0.4-1.6-1.3-1.6c-0.6,0-1.1,0.4-1.3,1c0,0,0,0,0.1,0c0.3,0,0.5,0.3,0.5,0.5c0,0.4-0.3,0.5-0.5,0.5
			c0,0-0.5,0-0.5-0.6c0-0.9,0.7-1.8,1.9-1.8c1.2,0,2.1,0.8,2.1,1.9c0,1-0.6,1.5-2.2,2.9l-1.1,1H38.4z"/>
	</g>
	<g>
		<path class="st0" d="M17.9,75.4v-0.6h2.6v0.6H17.9z"/>
		<path class="st0" d="M25.7,75.6c0,1-0.9,1.9-2.1,1.9c-1.1,0-2-0.7-2-1.6c0-0.4,0.3-0.6,0.6-0.6c0.3,0,0.6,0.2,0.6,0.6
			c0,0.4-0.3,0.6-0.7,0.5c0.3,0.6,1.1,0.8,1.5,0.8c0.4,0,1.1-0.3,1.1-1.6c0-1-0.4-1.7-1.2-1.7H23c-0.2,0-0.2,0-0.2-0.1
			c0-0.1,0.1-0.1,0.1-0.1c0.1,0,0.3,0,0.4,0c0.2,0,0.6,0,0.9-0.5c0.3-0.4,0.3-1,0.3-1.1c0-0.9-0.5-1.1-1-1.1c-0.4,0-1,0.1-1.3,0.6
			c0.1,0,0.6,0,0.6,0.5c0,0.3-0.2,0.5-0.5,0.5c-0.3,0-0.5-0.2-0.5-0.5c0-0.8,0.8-1.4,1.8-1.4c1,0,1.8,0.6,1.8,1.4
			c0,0.8-0.6,1.5-1.4,1.8C25.1,74,25.7,74.8,25.7,75.6z"/>
	</g>
	<g>
		<path class="st0" d="M3.7,75.4v-0.6h2.6v0.6H3.7z"/>
		<path class="st0" d="M7.2,75.7v-0.3l3.1-4.7c0.1-0.1,0.1-0.1,0.2-0.1c0.2,0,0.2,0.1,0.2,0.3v4.5h1v0.3h-1v0.9c0,0.4,0,0.5,0.8,0.5
			h0.2v0.3c-0.4,0-0.9,0-1.4,0s-0.9,0-1.3,0V77h0.2c0.7,0,0.8-0.1,0.8-0.5v-0.9H7.2z M9.9,71.6l-2.4,3.7h2.4V71.6z"/>
	</g>
	<g>
		<path class="st0" d="M135.3,58c-1.1,0-1.9-0.9-1.9-1.9c0-1,0.9-1.9,1.9-1.9c1,0,1.9,0.9,1.9,1.9S136.4,58,135.3,58z"/>
	</g>
	<path class="st3" d="M135.4,67V56.4 M149.5,67V31.6 M50.3,67V49.3 M36.1,67V28 M22,67V38.6"/>
	<g>
		<path class="st0" d="M149.5,33.2c-1.1,0-1.9-0.9-1.9-1.9c0-1,0.9-1.9,1.9-1.9c1,0,1.9,0.9,1.9,1.9
			C151.4,32.3,150.5,33.2,149.5,33.2z"/>
	</g>
	<g>
		<path class="st0" d="M50.3,50.9c-1.1,0-1.9-0.9-1.9-1.9c0-1,0.9-1.9,1.9-1.9c1,0,1.9,0.9,1.9,1.9C52.2,50,51.3,50.9,50.3,50.9z"/>
	</g>
	<g>
		<path class="st0" d="M36.1,29.6c-1.1,0-1.9-0.9-1.9-1.9c0-1,0.9-1.9,1.9-1.9c1,0,1.9,0.9,1.9,1.9C38,28.7,37.2,29.6,36.1,29.6z"/>
	</g>
	<g>
		<path class="st0" d="M21.9,40.2c-1.1,0-1.9-0.9-1.9-1.9c0-1,0.9-1.9,1.9-1.9c1,0,1.9,0.9,1.9,1.9C23.9,39.4,23,40.2,21.9,40.2z"/>
	</g>
	<polyline points="410.7,69.3 415.3,67 410.7,64.7 411.9,67 	"/>
	<line class="st1" x1="241.7" y1="67" x2="411.9" y2="67"/>
	<polyline points="307.7,25.5 305.4,20.9 303.2,25.5 305.4,24.3 	"/>
	<line class="st1" x1="305.4" y1="70.5" x2="305.4" y2="24.3"/>
	<g>
		<path class="st0" d="M424.4,66.3c0.1-0.5,0.2-0.6,0.2-0.8c0-0.3-0.1-0.5-0.3-0.5c-0.4,0-0.6,0.5-0.7,1.2c-0.1,0.2-0.1,0.2-0.2,0.2
			c0,0-0.1,0-0.1-0.1c0,0,0.1-0.6,0.3-1c0.1-0.2,0.3-0.6,0.7-0.6c0.5,0,0.9,0.3,0.9,0.9c0.2-0.2,0.7-0.9,1.6-0.9
			c0.7,0,1.1,0.4,1.1,1.1c0,0.6-0.4,1.7-0.6,2.2c-0.1,0.2-0.2,0.5-0.2,0.7c0,0.2,0.1,0.3,0.2,0.3c0.5,0,0.8-0.6,1-1.2
			c0.1-0.1,0.1-0.2,0.2-0.2c0,0,0.1,0,0.1,0.1c0,0.1-0.4,1.5-1.3,1.5c-0.5,0-0.8-0.3-0.8-0.8c0-0.1,0-0.2,0.1-0.5
			c0.2-0.4,0.6-1.7,0.6-2.3c0-0.3-0.1-0.7-0.5-0.7c-0.9,0-1.5,0.9-1.6,1.2c0,0-0.1,0.3-0.1,0.5c0,0.2-0.1,0.4-0.2,0.7l-0.2,0.9
			c-0.1,0.2-0.2,0.7-0.2,0.7c-0.1,0.2-0.2,0.3-0.4,0.3c-0.1,0-0.3-0.1-0.3-0.3c0,0,0.1-0.3,0.1-0.4L424.4,66.3z"/>
	</g>
	<g>
		<path class="st0" d="M307.1,76.4c-0.4,0.9-1.2,1.2-1.7,1.2c-0.5,0-1.2-0.2-1.6-1c-0.4-0.8-0.4-1.7-0.4-2.4c0-0.8,0-1.6,0.4-2.3
			c0.4-0.9,1.1-1.2,1.7-1.2c0.4,0,1.2,0.2,1.7,1.1c0.3,0.7,0.4,1.5,0.4,2.3C307.5,74.9,307.4,75.7,307.1,76.4z M306.6,76.1
			c0.1-0.6,0.1-1.3,0.1-2.1c0-0.6,0-1.4-0.1-1.9c-0.2-1-0.8-1.2-1.2-1.2c-0.2,0-1,0.1-1.2,1.3c-0.1,0.5-0.1,1.2-0.1,1.8
			c0,0.6,0,1.5,0.1,2.1c0.2,1,0.8,1.2,1.2,1.2C305.8,77.3,306.4,77,306.6,76.1z"/>
		<path class="st0" d="M320,76.5c0,0.4,0,0.5,0.9,0.5h0.3v0.3c-0.3,0-1.2,0-1.6,0s-1.3,0-1.6,0V77h0.3c0.9,0,0.9-0.1,0.9-0.5v-5.2
			c-0.5,0.3-1.1,0.3-1.3,0.3v-0.3c0.3,0,1.2,0,1.8-0.6c0.2,0,0.2,0,0.2,0.3V76.5z"/>
		<path class="st0" d="M334.3,76.5c0.2,0,0.9,0,0.9-0.1c0.1-0.1,0.2-0.6,0.2-0.9h0.2l-0.3,1.7h-3.7c0-0.2,0-0.3,0.1-0.4l1.9-2.1
			c0.5-0.6,1-1.4,1-2.2c0-0.8-0.4-1.6-1.3-1.6c-0.6,0-1.1,0.4-1.3,1c0,0,0,0,0.1,0c0.3,0,0.5,0.3,0.5,0.5c0,0.4-0.3,0.5-0.5,0.5
			c0,0-0.5,0-0.5-0.6c0-0.9,0.7-1.8,1.9-1.8c1.2,0,2.1,0.8,2.1,1.9c0,1-0.6,1.5-2.2,2.9l-1.1,1H334.3z"/>
		<path class="st0" d="M350,75.6c0,1-0.9,1.9-2.1,1.9c-1.1,0-2-0.7-2-1.6c0-0.4,0.3-0.6,0.6-0.6c0.3,0,0.6,0.2,0.6,0.6
			c0,0.4-0.3,0.6-0.7,0.5c0.3,0.6,1.1,0.8,1.5,0.8c0.4,0,1.1-0.3,1.1-1.6c0-1-0.4-1.7-1.2-1.7h-0.4c-0.2,0-0.2,0-0.2-0.1
			c0-0.1,0.1-0.1,0.1-0.1c0.1,0,0.3,0,0.4,0c0.2,0,0.6,0,0.9-0.5c0.3-0.4,0.3-1,0.3-1.1c0-0.9-0.5-1.1-1-1.1c-0.4,0-1,0.1-1.3,0.6
			c0.1,0,0.6,0,0.6,0.5c0,0.3-0.2,0.5-0.5,0.5c-0.3,0-0.5-0.2-0.5-0.5c0-0.8,0.8-1.4,1.8-1.4c1,0,1.8,0.6,1.8,1.4
			c0,0.8-0.6,1.5-1.4,1.8C349.4,74,350,74.8,350,75.6z"/>
	</g>
	<g>
		<path class="st0" d="M311.7,21.6c-0.1,0.4-0.2,0.7-0.2,0.9c0,0.3,0.2,0.7,0.5,0.7c0.3,0,1-0.2,1.3-1.3c0-0.1,0-0.1,0.1-0.1
			c0,0,0.1,0,0.1,0.1c0,0.2-0.6,1.5-1.6,1.5c-0.6,0-1-0.4-1.1-0.8c0,0.1-0.4,0.8-1,0.8c-0.4,0-0.9-0.2-0.9-0.7
			c0-0.3,0.2-0.6,0.5-0.6c0.1,0,0.4,0.1,0.4,0.3c0,0.3-0.2,0.5-0.5,0.5c0.2,0.1,0.4,0.1,0.5,0.1c0.4,0,0.8-0.4,0.9-1
			c0.4-1.4,0.5-2.1,0.5-2.4c0-0.6-0.3-0.7-0.5-0.7c-0.3,0-1,0.2-1.3,1.3c0,0.1,0,0.1-0.1,0.1c0,0-0.1,0-0.1-0.1
			c0-0.2,0.6-1.5,1.6-1.5c0.3,0,0.8,0.1,1.1,0.8c0.1-0.2,0.5-0.8,1-0.8c0.3,0,0.9,0.1,0.9,0.7c0,0.4-0.3,0.6-0.5,0.6
			c-0.3,0-0.4-0.2-0.4-0.3c0-0.2,0.2-0.5,0.5-0.5C313.3,19,313,19,313,19c-0.7,0-0.9,0.9-1,1.2L311.7,21.6z"/>
	</g>
	<g>
		<path class="st0" d="M315.6,22.3c0,0,0-0.1,0-0.2c0-0.2,0-0.3-0.2-0.3c-0.3,0-0.4,0.3-0.5,0.8c0,0.2-0.1,0.2-0.2,0.2
			c0,0-0.1,0-0.1-0.1c0,0,0.1-0.5,0.3-0.7c0.1-0.2,0.3-0.4,0.6-0.4c0.2,0,0.6,0.1,0.7,0.5c0.2-0.2,0.6-0.5,1-0.5c0.5,0,1,0.3,1,1.2
			c0,1-0.9,2-1.8,2c-0.4,0-0.6-0.3-0.7-0.4c-0.1,0.3-0.2,0.7-0.3,1c0,0.1-0.1,0.3-0.1,0.3c0,0.1,0.2,0.1,0.3,0.1
			c0.1,0,0.2,0,0.2,0.1c0,0.1-0.1,0.2-0.1,0.2c-0.2,0-0.5,0-0.7,0c-0.2,0-0.4,0-0.6,0c0,0-0.1,0-0.1-0.1c0-0.1,0.1-0.1,0.2-0.1
			c0.3,0,0.3-0.1,0.3-0.3L315.6,22.3z M315.8,23.8c0,0,0,0.1,0,0.1c0,0.1,0.1,0.6,0.6,0.6c0.4,0,0.7-0.3,0.9-0.7
			c0.2-0.4,0.4-1.1,0.4-1.4c0-0.5-0.2-0.7-0.5-0.7c-0.2,0-0.6,0.1-1,0.6L315.8,23.8z"/>
	</g>
	<g>
		<path class="st0" d="M320.1,25.7v-10h1.4v0.4h-1v9.2h1v0.4H320.1z"/>
	</g>
	<g>
		<path class="st0" d="M323.1,20.3c0.1-0.5,0.2-0.6,0.2-0.8c0-0.3-0.1-0.5-0.3-0.5c-0.4,0-0.6,0.5-0.7,1.2c-0.1,0.2-0.1,0.2-0.2,0.2
			c0,0-0.1,0-0.1-0.1c0,0,0.1-0.6,0.3-1c0.1-0.2,0.3-0.6,0.7-0.6c0.5,0,0.9,0.3,0.9,0.9c0.2-0.2,0.7-0.9,1.6-0.9
			c0.7,0,1.1,0.4,1.1,1.1c0,0.6-0.4,1.7-0.6,2.2c-0.1,0.2-0.2,0.5-0.2,0.7c0,0.2,0.1,0.3,0.2,0.3c0.5,0,0.8-0.6,1-1.2
			c0.1-0.1,0.1-0.2,0.2-0.2c0,0,0.1,0,0.1,0.1c0,0.1-0.4,1.5-1.3,1.5c-0.5,0-0.8-0.3-0.8-0.8c0-0.1,0-0.2,0.1-0.5
			c0.2-0.4,0.6-1.7,0.6-2.3c0-0.3-0.1-0.7-0.5-0.7c-0.9,0-1.5,0.9-1.6,1.2c0,0-0.1,0.3-0.1,0.5c0,0.2-0.1,0.4-0.2,0.7l-0.2,0.9
			c-0.1,0.2-0.2,0.7-0.2,0.7c-0.1,0.2-0.2,0.3-0.4,0.3c-0.1,0-0.3-0.1-0.3-0.3c0-0.1,0.1-0.3,0.1-0.4L323.1,20.3z"/>
	</g>
	<g>
		<path class="st0" d="M329.2,25.7h-1.4v-0.4h1v-9.2h-1v-0.4h1.4V25.7z"/>
	</g>
	<g>
		<path class="st0" d="M287.2,75.4v-0.6h2.6v0.6H287.2z"/>
		<path class="st0" d="M293.3,76.5c0,0.4,0,0.5,0.9,0.5h0.3v0.3c-0.3,0-1.2,0-1.6,0s-1.3,0-1.6,0V77h0.3c0.9,0,0.9-0.1,0.9-0.5v-5.2
			c-0.5,0.3-1.1,0.3-1.3,0.3v-0.3c0.3,0,1.2,0,1.8-0.6c0.2,0,0.2,0,0.2,0.3V76.5z"/>
	</g>
	<g>
		<path class="st0" d="M273,75.4v-0.6h2.6v0.6H273z"/>
		<path class="st0" d="M279.3,76.5c0.2,0,0.9,0,0.9-0.1c0.1-0.1,0.2-0.6,0.2-0.9h0.2l-0.3,1.7h-3.7c0-0.2,0-0.3,0.1-0.4l1.9-2.1
			c0.5-0.6,1-1.4,1-2.2c0-0.8-0.4-1.6-1.3-1.6c-0.6,0-1.1,0.4-1.3,1c0,0,0,0,0.1,0c0.3,0,0.5,0.3,0.5,0.5c0,0.4-0.3,0.5-0.5,0.5
			c0,0-0.5,0-0.5-0.6c0-0.9,0.7-1.8,1.9-1.8c1.2,0,2.1,0.8,2.1,1.9c0,1-0.6,1.5-2.2,2.9l-1.1,1H279.3z"/>
	</g>
	<g>
		<path class="st0" d="M376.1,77.5c-1.1,0-1.8-1-1.8-1.8c0-0.5,0.3-0.5,0.5-0.5c0.3,0,0.5,0.2,0.5,0.5c0,0.2-0.2,0.5-0.5,0.5
			c-0.1,0-0.1,0-0.2,0c0.2,0.6,0.7,1.1,1.5,1.1c0.5,0,0.8-0.3,1.1-0.6c0.2-0.4,0.2-1,0.2-1.4c0-0.5,0-0.9-0.2-1.3
			c-0.1-0.2-0.3-0.6-0.8-0.6c-0.8,0-1.2,0.5-1.3,0.7c0,0.1-0.1,0.1-0.1,0.1c-0.1,0-0.1-0.1-0.1-0.3v-2.9c0-0.2,0-0.2,0.1-0.2
			c0,0,0,0,0.1,0c0.5,0.2,0.9,0.3,1.3,0.3c0.7,0,1.2-0.2,1.4-0.3c0,0,0.1,0,0.1,0c0.1,0,0.1,0,0.1,0.1c0,0.1-0.7,1-1.9,1
			c-0.3,0-0.6-0.1-0.8-0.1v1.9c0.4-0.3,0.8-0.5,1.3-0.5c1.1,0,1.9,1,1.9,2.2C378.3,76.6,377.2,77.5,376.1,77.5z"/>
	</g>
	<g>
		<path class="st0" d="M359.9,75.7v-0.3l3.1-4.7c0.1-0.1,0.1-0.1,0.2-0.1c0.2,0,0.2,0.1,0.2,0.3v4.5h1v0.3h-1v0.9
			c0,0.4,0,0.5,0.8,0.5h0.2v0.3c-0.4,0-0.9,0-1.4,0c-0.4,0-0.9,0-1.3,0V77h0.2c0.7,0,0.8-0.1,0.8-0.5v-0.9H359.9z M362.6,71.6
			l-2.4,3.7h2.4V71.6z"/>
		<path class="st0" d="M390.5,73.1c1.1,0,2,1,2,2.2c0,1.3-0.9,2.3-2.1,2.3c-0.9,0-2.1-0.7-2.1-3.4c0-2.2,1.3-3.5,2.6-3.5
			c0.8,0,1.3,0.5,1.3,1.1c0,0.4-0.3,0.5-0.5,0.5c-0.2,0-0.5-0.1-0.5-0.5c0-0.4,0.4-0.4,0.5-0.4c-0.2-0.3-0.6-0.4-0.9-0.4
			c-0.5,0-1.7,0.4-1.7,2.9V74C389.5,73.6,389.8,73.1,390.5,73.1z M391.4,76.6c0.2-0.4,0.2-0.9,0.2-1.3c0-0.5,0-1-0.2-1.4
			c-0.3-0.6-0.8-0.6-0.9-0.6c-0.9,0-1.2,1-1.2,1.8c0,0.2,0,1,0.2,1.4c0.1,0.1,0.4,0.7,1,0.7C390.7,77.3,391.1,77.2,391.4,76.6z"/>
	</g>
	<g>
		<path class="st0" d="M405.5,73.1c-0.4,0.6-0.6,1.5-0.6,1.7c-0.1,0.5-0.1,1.1-0.1,1.6V77c0,0.1,0,0.5-0.5,0.5s-0.5-0.4-0.5-0.5
			c0-1,0.3-2.4,1.2-3.7c0.2-0.3,1-1.4,1.1-1.6h-2.1c-0.1,0-0.9,0-1,0.1c-0.1,0.1-0.2,0.7-0.3,0.9h-0.2l0.3-2.1h0.2
			c0,0.2,0.1,0.3,1.3,0.3h2.4c0,0.2,0,0.2-0.1,0.3L405.5,73.1z"/>
	</g>
	<g>
		<path class="st0" d="M258.8,75.4v-0.6h2.6v0.6H258.8z"/>
		<path class="st0" d="M266.6,75.6c0,1-0.9,1.9-2.1,1.9c-1.1,0-2-0.7-2-1.6c0-0.4,0.3-0.6,0.6-0.6c0.3,0,0.6,0.2,0.6,0.6
			c0,0.4-0.3,0.6-0.7,0.5c0.3,0.6,1.1,0.8,1.5,0.8c0.4,0,1.1-0.3,1.1-1.6c0-1-0.4-1.7-1.2-1.7H264c-0.2,0-0.2,0-0.2-0.1
			c0-0.1,0.1-0.1,0.1-0.1c0.1,0,0.3,0,0.4,0c0.2,0,0.6,0,0.9-0.5c0.3-0.4,0.3-1,0.3-1.1c0-0.9-0.5-1.1-1-1.1c-0.4,0-1,0.1-1.3,0.6
			c0.1,0,0.6,0,0.6,0.5c0,0.3-0.2,0.5-0.5,0.5c-0.3,0-0.5-0.2-0.5-0.5c0-0.8,0.8-1.4,1.8-1.4c1,0,1.8,0.6,1.8,1.4
			c0,0.8-0.6,1.5-1.4,1.8C266,74,266.6,74.8,266.6,75.6z"/>
	</g>
	<g>
		<path class="st0" d="M244.7,75.4v-0.6h2.6v0.6H244.7z"/>
		<path class="st0" d="M248.2,75.7v-0.3l3.1-4.7c0.1-0.1,0.1-0.1,0.2-0.1c0.2,0,0.2,0.1,0.2,0.3v4.5h1v0.3h-1v0.9
			c0,0.4,0,0.5,0.8,0.5h0.2v0.3c-0.4,0-0.9,0-1.4,0c-0.4,0-0.9,0-1.3,0V77h0.2c0.7,0,0.8-0.1,0.8-0.5v-0.9H248.2z M250.9,71.6
			l-2.4,3.7h2.4V71.6z"/>
	</g>
	<g>
		<path class="st0" d="M248.7,40.2c-1.1,0-1.9-0.9-1.9-1.9c0-1,0.9-1.9,1.9-1.9c1,0,1.9,0.9,1.9,1.9
			C250.6,39.4,249.8,40.2,248.7,40.2z"/>
	</g>
	<line class="st4" x1="248.7" y1="67" x2="248.7" y2="38.6"/>
	<g>
		<path class="st0" d="M277.1,54.4c-1.1,0-1.9-0.9-1.9-1.9c0-1,0.9-1.9,1.9-1.9c1,0,1.9,0.9,1.9,1.9C279,53.5,278.1,54.4,277.1,54.4
			z"/>
	</g>
	<line class="st5" x1="277.1" y1="67" x2="277.1" y2="52.8"/>
	<g>
		<path class="st0" d="M262.9,47.3c-1.1,0-1.9-0.9-1.9-1.9c0-1,0.9-1.9,1.9-1.9c1,0,1.9,0.9,1.9,1.9
			C264.8,46.5,263.9,47.3,262.9,47.3z"/>
	</g>
	<line class="st6" x1="262.9" y1="67" x2="262.9" y2="45.7"/>
	<g>
		<path class="st0" d="M291.2,61.5c-1.1,0-1.9-0.9-1.9-1.9c0-1,0.9-1.9,1.9-1.9c1,0,1.9,0.9,1.9,1.9S292.3,61.5,291.2,61.5z"/>
	</g>
	<line class="st7" x1="291.3" y1="67" x2="291.3" y2="59.9"/>
	<g>
		<path class="st0" d="M362.1,40.2c-1.1,0-1.9-0.9-1.9-1.9c0-1,0.9-1.9,1.9-1.9c1,0,1.9,0.9,1.9,1.9C364,39.4,363.1,40.2,362.1,40.2
			z"/>
	</g>
	<line class="st4" x1="362.1" y1="67" x2="362.1" y2="38.6"/>
	<g>
		<path class="st0" d="M390.4,54.4c-1.1,0-1.9-0.9-1.9-1.9c0-1,0.9-1.9,1.9-1.9c1,0,1.9,0.9,1.9,1.9
			C392.4,53.5,391.5,54.4,390.4,54.4z"/>
	</g>
	<line class="st5" x1="390.5" y1="67" x2="390.5" y2="52.8"/>
	<g>
		<path class="st0" d="M376.3,47.3c-1.1,0-1.9-0.9-1.9-1.9c0-1,0.9-1.9,1.9-1.9c1,0,1.9,0.9,1.9,1.9
			C378.2,46.5,377.3,47.3,376.3,47.3z"/>
	</g>
	<line class="st6" x1="376.3" y1="67" x2="376.3" y2="45.7"/>
	<g>
		<path class="st0" d="M404.6,61.5c-1.1,0-1.9-0.9-1.9-1.9c0-1,0.9-1.9,1.9-1.9c1,0,1.9,0.9,1.9,1.9S405.7,61.5,404.6,61.5z"/>
	</g>
	<line class="st7" x1="404.6" y1="67" x2="404.6" y2="59.9"/>
	<g>
		<path class="st0" d="M305.4,40.2c-1.1,0-1.9-0.9-1.9-1.9c0-1,0.9-1.9,1.9-1.9c1,0,1.9,0.9,1.9,1.9
			C307.3,39.4,306.4,40.2,305.4,40.2z"/>
	</g>
	<line class="st8" x1="305.4" y1="67" x2="305.4" y2="38.6"/>
	<g>
		<path class="st0" d="M333.8,54.4c-1.1,0-1.9-0.9-1.9-1.9c0-1,0.9-1.9,1.9-1.9c1,0,1.9,0.9,1.9,1.9
			C335.7,53.5,334.8,54.4,333.8,54.4z"/>
	</g>
	<line class="st8" x1="333.8" y1="67" x2="333.8" y2="52.8"/>
	<g>
		<path class="st0" d="M319.6,47.3c-1.1,0-1.9-0.9-1.9-1.9c0-1,0.9-1.9,1.9-1.9c1,0,1.9,0.9,1.9,1.9
			C321.5,46.5,320.6,47.3,319.6,47.3z"/>
	</g>
	<line class="st8" x1="319.6" y1="67" x2="319.6" y2="45.7"/>
	<g>
		<path class="st0" d="M347.9,61.5c-1.1,0-1.9-0.9-1.9-1.9c0-1,0.9-1.9,1.9-1.9c1,0,1.9,0.9,1.9,1.9S349,61.5,347.9,61.5z"/>
	</g>
	<line class="st8" x1="348" y1="67" x2="348" y2="59.9"/>
	<path class="st9" d="M0.7,56.4h14.2 M156.6,52.8h14.2"/>
	<g>
		<path class="st10" d="M87.3,94.9c0,0.2,0,0.2-0.2,0.2c-0.1,0-0.1,0-0.2-0.2l-2.5-5.9c0-0.1,0-0.1-0.1-0.2l-1.3,5.3
			c0,0.1,0,0.2,0,0.2c0,0.2,0.1,0.4,0.7,0.4c0.1,0,0.2,0,0.2,0.1c0,0.2-0.1,0.2-0.2,0.2c-0.3,0-0.7,0-1,0c-0.3,0-0.7,0-1,0
			c-0.1,0-0.1,0-0.1-0.1c0-0.2,0.1-0.2,0.2-0.2c0.8,0,1-0.3,1.1-0.7l1.3-5.4c0-0.1-0.6-0.1-0.7-0.1c-0.2,0-0.3,0-0.3-0.1
			c0-0.2,0.1-0.2,0.3-0.2h1.3c0.2,0,0.2,0,0.3,0.2l2.2,5.2l1.1-4.4c0,0,0-0.2,0-0.2c0-0.2-0.1-0.4-0.7-0.4c-0.1,0-0.2,0-0.2-0.1
			c0-0.2,0.1-0.2,0.2-0.2c0.3,0,0.7,0,1,0c0.3,0,0.7,0,1,0c0.1,0,0.1,0.1,0.1,0.1c0,0.2-0.1,0.2-0.2,0.2c-0.8,0-1,0.3-1.1,0.7
			L87.3,94.9z"/>
	</g>
	<path class="st1" d="M57.4,81.2v7.1 M114.1,81.2v7.1"/>
	<polyline points="61.9,82.4 57.4,84.7 61.9,87 60.8,84.7 	"/>
	<polyline points="109.6,87 114.1,84.7 109.6,82.4 110.7,84.7 	"/>
	<line class="st1" x1="60.8" y1="84.7" x2="110.7" y2="84.7"/>
	<g>
		<path class="st0" d="M64.5,40.2c-1.1,0-1.9-0.9-1.9-1.9c0-1,0.9-1.9,1.9-1.9c1,0,1.9,0.9,1.9,1.9C66.4,39.4,65.5,40.2,64.5,40.2z"
			/>
	</g>
	<line class="st8" x1="64.5" y1="67" x2="64.5" y2="38.6"/>
	<g>
		<path class="st0" d="M92.8,54.4c-1.1,0-1.9-0.9-1.9-1.9c0-1,0.9-1.9,1.9-1.9c1,0,1.9,0.9,1.9,1.9C94.7,53.5,93.9,54.4,92.8,54.4z"
			/>
	</g>
	<line class="st8" x1="92.8" y1="67" x2="92.8" y2="52.8"/>
	<g>
		<path class="st0" d="M78.6,47.3c-1.1,0-1.9-0.9-1.9-1.9c0-1,0.9-1.9,1.9-1.9c1,0,1.9,0.9,1.9,1.9C80.6,46.5,79.7,47.3,78.6,47.3z"
			/>
	</g>
	<line class="st8" x1="78.7" y1="67" x2="78.7" y2="45.7"/>
	<g>
		<path class="st0" d="M107,61.5c-1.1,0-1.9-0.9-1.9-1.9c0-1,0.9-1.9,1.9-1.9c1,0,1.9,0.9,1.9,1.9S108,61.5,107,61.5z"/>
	</g>
	<line class="st8" x1="107" y1="67" x2="107" y2="59.9"/>
	<g>
		<path class="st0" d="M121.2,54.4c-1.1,0-1.9-0.9-1.9-1.9c0-1,0.9-1.9,1.9-1.9c1,0,1.9,0.9,1.9,1.9
			C123.1,53.5,122.2,54.4,121.2,54.4z"/>
	</g>
	<line class="st3" x1="121.2" y1="67" x2="121.2" y2="52.8"/>
	<g>
		<path class="st10" d="M316,94c0,0.2,0,0.2-0.2,0.2c-0.1,0-0.1,0-0.2-0.2l-2.5-5.9c0-0.1,0-0.1-0.1-0.2l-1.3,5.3c0,0.1,0,0.2,0,0.2
			c0,0.2,0.1,0.4,0.7,0.4c0.1,0,0.2,0,0.2,0.1c0,0.2-0.1,0.2-0.2,0.2c-0.3,0-0.7,0-1,0c-0.3,0-0.7,0-1,0c-0.1,0-0.1,0-0.1-0.1
			c0-0.2,0.1-0.2,0.2-0.2c0.8,0,1-0.3,1.1-0.7l1.3-5.4c0-0.1-0.6-0.1-0.7-0.1c-0.2,0-0.3,0-0.3-0.1c0-0.2,0.1-0.2,0.3-0.2h1.3
			c0.2,0,0.2,0,0.3,0.2l2.2,5.2l1.1-4.4c0,0,0-0.2,0-0.2c0-0.2-0.1-0.4-0.7-0.4c-0.1,0-0.2,0-0.2-0.1c0-0.2,0.1-0.2,0.2-0.2
			c0.3,0,0.7,0,1,0c0.3,0,0.7,0,1,0c0.1,0,0.1,0.1,0.1,0.1c0,0.2-0.1,0.2-0.2,0.2c-0.8,0-1,0.3-1.1,0.7L316,94z"/>
	</g>
	<g>
		<path class="st0" d="M323.6,90.9c-0.3,0-0.5-0.2-0.5-0.5s0.2-0.5,0.5-0.5s0.5,0.2,0.5,0.5S323.9,90.9,323.6,90.9z M323.7,94.2
			C323.7,94.2,323.7,94.2,323.7,94.2c-0.4,0-0.6-0.3-0.6-0.5c0-0.3,0.2-0.5,0.5-0.5c0.5,0,0.6,0.7,0.6,1c0,1.2-0.7,2-0.8,2
			c0,0-0.1,0-0.1-0.1c0,0,0,0,0.1-0.1c0.6-0.7,0.6-1.5,0.6-1.8C323.9,94.1,323.8,94.2,323.7,94.2z"/>
	</g>
	<g>
		<path class="st0" d="M335.1,89.8h-0.5c-0.1-1.2-0.4-1.9-2-1.9h-1.4v2.7h0.5c1,0,1-0.4,1-1.2h0.5v2.8h-0.5c0-0.7-0.1-1.2-1-1.2
			h-0.5v2.7h1.3v0.5c-0.4,0-1.5,0-2,0c-0.4,0-1.4,0-1.8,0v-0.5h1.1v-5.8h-1.1v-0.5h6L335.1,89.8z"/>
		<path class="st0" d="M338.5,93.7h1.1v0.5c-0.4,0-1.4,0-1.8,0c-0.4,0-1.4,0-1.8,0v-0.5h1.1v-5.9H336v-0.5h4.2
			c1.7,0,2.6,0.8,2.6,1.9c0,1.2-1.2,1.9-2.5,1.9h-1.8V93.7z M341.2,89.3c0-0.7,0-1.5-1.5-1.5h-1.3v2.9h1.3
			C341.2,90.8,341.2,90,341.2,89.3z"/>
	</g>
	<path class="st1" d="M298.3,81.2v7.1 M355,81.2v7.1"/>
	<polyline points="302.9,82.4 298.3,84.7 302.9,87 301.7,84.7 	"/>
	<polyline points="350.5,87 355,84.7 350.5,82.4 351.6,84.7 	"/>
	<line class="st1" x1="301.7" y1="84.7" x2="351.6" y2="84.7"/>
	<g>
		<defs>
			<polygon id="SVGID_1_" points="57.4,56.4 57.4,31.6 114.1,31.6 114.1,81.2 57.4,81.2 			"/>
		</defs>
		<clipPath id="SVGID_2_">
			<use xlink:href="#SVGID_1_"  style="overflow:visible;"/>
		</clipPath>
		<path class="st11" d="M84.6,110.6L31.5,57.5 M87.8,107.5L34.6,54.3 M90.9,104.4L37.7,51.2 M94,101.3L40.8,48.1 M97.1,98.1L44,45
			 M100.2,95L47.1,41.9 M103.4,91.9L50.2,38.7 M106.5,88.8L53.3,35.6 M109.6,85.7L56.4,32.5 M112.7,82.5L59.6,29.4 M115.8,79.4
			L62.7,26.3 M119,76.3L65.8,23.1 M122.1,73.2L68.9,20 M125.2,70.1L72,16.9 M128.3,66.9L75.2,13.8 M131.4,63.8L78.3,10.7
			 M134.6,60.7L81.4,7.5 M137.7,57.6L84.5,4.4 M140.8,54.5L87.6,1.3"/>
	</g>
	<polygon class="st12" points="57.4,56.4 57.4,31.6 114.1,31.6 114.1,81.2 57.4,81.2 	"/>
	<g>
		<defs>
			<polygon id="SVGID_3_" points="298.3,56.4 298.3,31.6 355,31.6 355,81.2 298.3,81.2 			"/>
		</defs>
		<clipPath id="SVGID_4_">
			<use xlink:href="#SVGID_3_"  style="overflow:visible;"/>
		</clipPath>
		<path class="st13" d="M323.7,112.5l-53.1-53.1 M326.8,109.4l-53.1-53.1 M329.9,106.3l-53.1-53.1 M333,103.2L279.9,50 M336.1,100
			L283,46.9 M339.3,96.9l-53.1-53.1 M342.4,93.8l-53.1-53.1 M345.5,90.7l-53.1-53.1 M348.6,87.6l-53.1-53.1 M351.7,84.4l-53.1-53.1
			 M354.9,81.3l-53.1-53.1 M358,78.2l-53.1-53.1 M361.1,75.1L308,21.9 M364.2,72l-53.1-53.1 M367.3,68.8l-53.1-53.1 M370.5,65.7
			l-53.1-53.1 M373.6,62.6L320.4,9.5 M376.7,59.5L323.6,6.3 M379.8,56.4L326.7,3.2 M382.9,53.2L329.8,0.1"/>
	</g>
	<polygon class="st12" points="298.3,56.4 298.3,31.6 355,31.6 355,81.2 298.3,81.2 	"/>
</g>
</svg>
