<?xml version="1.0" encoding="utf-8"?>
<!-- Generator: Adobe Illustrator 22.1.0, SVG Export Plug-In . SVG Version: 6.00 Build 0)  -->
<svg version="1.1" id="Layer_1" xmlns="http://www.w3.org/2000/svg" xmlns:xlink="http://www.w3.org/1999/xlink" x="0px" y="0px"
	 viewBox="0 0 382.2 201.9" style="enable-background:new 0 0 382.2 201.9;" xml:space="preserve">
<style type="text/css">
	.st0{fill:none;stroke:#000000;stroke-width:0.8504;stroke-miterlimit:10;}
	.st1{fill:#1D1D1B;}
	.st2{fill:none;stroke:#FF0000;stroke-width:1.7008;stroke-miterlimit:10;}
	.st3{fill:none;stroke:#000000;stroke-width:0.8504;stroke-linecap:round;stroke-miterlimit:10;stroke-dasharray:0,3.6832;}
	.st4{fill:none;stroke:#000000;stroke-width:0.8504;stroke-linecap:round;stroke-miterlimit:10;stroke-dasharray:0,3.7067;}
	.st5{fill:#0000FF;}
	.st6{fill:none;stroke:#0000F7;stroke-width:0.8504;stroke-miterlimit:10;stroke-dasharray:2.8295,2.8295;stroke-dashoffset:1;}
	.st7{fill:#0000FC;}
	.st8{fill:none;stroke:#0000FC;stroke-width:0.4252;stroke-miterlimit:10;}
	.st9{fill:none;stroke:#630000;stroke-width:1.7008;stroke-miterlimit:10;}
	.st10{fill:none;stroke:#630000;stroke-width:0.8504;stroke-linecap:round;stroke-miterlimit:10;stroke-dasharray:0,3.6832;}
	.st11{fill:none;stroke:#0000FF;stroke-width:1.7008;stroke-miterlimit:10;}
	.st12{fill:none;stroke:#0000FF;stroke-width:0.8504;stroke-linecap:round;stroke-miterlimit:10;stroke-dasharray:0,3.7067;}
	.st13{fill:#BF8040;}
	.st14{fill:none;stroke:#630000;stroke-width:0.8504;stroke-miterlimit:10;stroke-dasharray:2.8295,2.8295;stroke-dashoffset:1;}
	.st15{fill:#630000;}
	.st16{fill:none;stroke:#630000;stroke-width:0.4252;stroke-miterlimit:10;}
</style>
<g>
	<polyline points="278.9,50.7 283.5,48.4 278.9,46.2 280.1,48.4 	"/>
	<line class="st0" x1="56.7" y1="48.4" x2="280.1" y2="48.4"/>
	<polyline points="66,10.5 63.8,5.9 61.5,10.5 63.8,9.3 	"/>
	<line class="st0" x1="63.8" y1="83.9" x2="63.8" y2="9.3"/>
	<g>
		<path class="st1" d="M292.6,47.6c0.1-0.5,0.2-0.6,0.2-0.8c0-0.3-0.1-0.5-0.3-0.5c-0.4,0-0.6,0.5-0.7,1.2c-0.1,0.2-0.1,0.2-0.2,0.2
			c0,0-0.1,0-0.1-0.1c0,0,0.1-0.6,0.3-1c0.1-0.2,0.3-0.6,0.7-0.6c0.5,0,0.9,0.3,0.9,0.9c0.2-0.2,0.7-0.9,1.6-0.9
			c0.7,0,1.1,0.4,1.1,1.1c0,0.6-0.4,1.7-0.6,2.2c-0.1,0.2-0.2,0.5-0.2,0.7c0,0.2,0.1,0.3,0.2,0.3c0.5,0,0.8-0.6,1-1.2
			c0.1-0.1,0.1-0.2,0.2-0.2c0,0,0.1,0,0.1,0.1c0,0.1-0.4,1.5-1.3,1.5c-0.5,0-0.8-0.3-0.8-0.8c0-0.1,0-0.2,0.1-0.5
			c0.2-0.4,0.6-1.7,0.6-2.3c0-0.3-0.1-0.7-0.5-0.7c-0.9,0-1.5,0.9-1.6,1.2c0,0-0.1,0.3-0.1,0.5c0,0.2-0.1,0.4-0.2,0.7l-0.2,0.9
			c-0.1,0.2-0.2,0.7-0.2,0.7c-0.1,0.2-0.2,0.3-0.4,0.3c-0.1,0-0.3-0.1-0.3-0.3c0-0.1,0.1-0.3,0.1-0.4L292.6,47.6z"/>
	</g>
	<g>
		<path class="st1" d="M65.5,57.7c-0.4,0.9-1.2,1.2-1.7,1.2c-0.5,0-1.2-0.2-1.6-1c-0.4-0.8-0.4-1.7-0.4-2.4c0-0.8,0-1.6,0.4-2.3
			c0.4-0.9,1.1-1.2,1.7-1.2c0.4,0,1.2,0.2,1.7,1.1c0.3,0.7,0.4,1.5,0.4,2.3C65.9,56.3,65.8,57,65.5,57.7z M65,57.4
			c0.1-0.6,0.1-1.3,0.1-2.1c0-0.6,0-1.4-0.1-1.9c-0.2-1-0.8-1.2-1.2-1.2c-0.2,0-1,0.1-1.2,1.3c-0.1,0.5-0.1,1.2-0.1,1.8
			c0,0.6,0,1.5,0.1,2.1c0.2,1,0.8,1.2,1.2,1.2C64.2,58.7,64.8,58.4,65,57.4z"/>
		<path class="st1" d="M78.4,57.9c0,0.4,0,0.5,0.9,0.5h0.3v0.3c-0.3,0-1.2,0-1.6,0c-0.4,0-1.3,0-1.6,0v-0.3h0.3
			c0.9,0,0.9-0.1,0.9-0.5v-5.2C77.1,53,76.6,53,76.4,53v-0.3c0.3,0,1.2,0,1.8-0.6c0.2,0,0.2,0,0.2,0.3V57.9z"/>
	</g>
	<g>
		<path class="st1" d="M76.8,6.7c-0.1,0.4-0.2,0.7-0.2,0.9c0,0.3,0.2,0.7,0.5,0.7c0.3,0,1-0.2,1.3-1.3c0-0.1,0-0.1,0.1-0.1
			c0,0,0.1,0,0.1,0.1c0,0.2-0.6,1.5-1.6,1.5c-0.6,0-1-0.4-1.1-0.8c0,0.1-0.4,0.8-1,0.8c-0.4,0-0.9-0.2-0.9-0.7
			c0-0.3,0.2-0.6,0.5-0.6c0.1,0,0.4,0.1,0.4,0.3c0,0.3-0.2,0.5-0.5,0.5C74.7,8.3,75,8.3,75,8.3c0.4,0,0.8-0.4,0.9-1
			c0.4-1.4,0.5-2.1,0.5-2.4c0-0.6-0.3-0.7-0.5-0.7c-0.3,0-1,0.2-1.3,1.3c0,0.1-0.1,0.1-0.1,0.1c0,0-0.1,0-0.1-0.1
			C74.4,5.3,75,4,76,4c0.3,0,0.8,0.1,1.1,0.8c0.1-0.2,0.5-0.8,1-0.8C78.5,4,79,4.1,79,4.6c0,0.4-0.3,0.6-0.5,0.6
			c-0.3,0-0.4-0.2-0.4-0.3c0-0.2,0.2-0.5,0.5-0.5c-0.2-0.1-0.4-0.1-0.5-0.1c-0.7,0-0.9,0.9-1,1.2L76.8,6.7z"/>
	</g>
	<g>
		<path class="st1" d="M80.6,10.9v-10H82v0.4h-1v9.2h1v0.4H80.6z"/>
	</g>
	<g>
		<path class="st1" d="M83.6,5.5c0.1-0.5,0.2-0.6,0.2-0.8c0-0.3-0.1-0.5-0.3-0.5c-0.4,0-0.6,0.5-0.7,1.2c-0.1,0.2-0.1,0.2-0.2,0.2
			c0,0-0.1,0-0.1-0.1c0,0,0.1-0.6,0.3-1C82.9,4.4,83.1,4,83.5,4c0.5,0,0.9,0.3,0.9,0.9C84.6,4.6,85.1,4,86,4c0.7,0,1.1,0.4,1.1,1.1
			c0,0.6-0.4,1.7-0.6,2.2c-0.1,0.2-0.2,0.5-0.2,0.7c0,0.2,0.1,0.3,0.2,0.3c0.5,0,0.8-0.6,1-1.2c0-0.1,0-0.2,0.1-0.2
			c0,0,0.1,0,0.1,0.1c0,0.1-0.4,1.5-1.3,1.5c-0.5,0-0.8-0.3-0.8-0.8c0-0.1,0-0.2,0.1-0.5c0.2-0.4,0.6-1.7,0.6-2.3
			c0-0.3-0.1-0.7-0.5-0.7c-0.9,0-1.5,0.9-1.6,1.2c0,0-0.1,0.3-0.1,0.5c0,0.2-0.1,0.4-0.2,0.7l-0.2,0.9c-0.1,0.2-0.2,0.7-0.2,0.7
			c-0.1,0.2-0.2,0.3-0.4,0.3c-0.1,0-0.3-0.1-0.3-0.3c0-0.1,0.1-0.3,0.1-0.4L83.6,5.5z"/>
	</g>
	<g>
		<path class="st1" d="M89.8,10.9h-1.4v-0.4h1V1.3h-1V0.9h1.4V10.9z"/>
		<path class="st1" d="M94.7,5.1c-0.1,0-0.3,0-0.3-0.2s0.2-0.2,0.3-0.2h6c0.1,0,0.3,0,0.3,0.2s-0.2,0.2-0.3,0.2H94.7z M94.7,7.1
			c-0.1,0-0.3,0-0.3-0.2s0.2-0.2,0.3-0.2h5.9c0.1,0,0.3,0,0.3,0.2s-0.2,0.2-0.3,0.2H94.7z"/>
	</g>
	<g>
		<path class="st1" d="M106.8,8.2c0.4,0,1-0.1,1.3-1c0-0.1,0-0.1,0.1-0.1c0,0,0.1,0,0.1,0.1s-0.3,1.3-1.7,1.3c-1.2,0-2.1-1-2.1-2.3
			c0-1.2,0.9-2.3,2.2-2.3c0.8,0,1.5,0.4,1.5,1.1c0,0.3-0.2,0.5-0.5,0.5c-0.3,0-0.5-0.2-0.5-0.5c0-0.1,0.1-0.4,0.5-0.5
			c-0.3-0.4-1-0.4-1.1-0.4c-0.5,0-1.3,0.4-1.3,2C105.4,7.8,106.3,8.2,106.8,8.2z"/>
		<path class="st1" d="M111.2,8.5c-1.2,0-2.2-1-2.2-2.2c0-1.2,1-2.3,2.2-2.3c1.2,0,2.2,1.1,2.2,2.3C113.4,7.5,112.4,8.5,111.2,8.5z
			 M112.4,7.5c0.2-0.4,0.2-1,0.2-1.3c0-0.4,0-1-0.3-1.4c-0.3-0.4-0.7-0.6-1.1-0.6c-0.4,0-0.9,0.2-1.1,0.7c-0.2,0.4-0.2,1-0.2,1.4
			c0,0.4,0,1,0.2,1.4c0.3,0.5,0.7,0.7,1.1,0.7C111.7,8.2,112.1,8,112.4,7.5z"/>
		<path class="st1" d="M114.5,6c-0.3-0.2-0.4-0.5-0.4-0.8c0-0.6,0.4-1.2,1.6-1.2c0.1,0,0.6,0,0.9,0.3c0,0,0.1-0.1,0.2-0.2
			c0.1-0.1,0.1-0.1,0.2-0.1c0.1,0,0.1,0.1,0.1,0.2v1c0,0.2,0,0.2-0.1,0.2c0,0-0.1,0-0.1-0.1c0-0.3-0.1-1.2-1.2-1.2
			c-0.9,0-1.1,0.4-1.1,0.8c0,0.6,0.7,0.7,1.2,0.8c0.4,0.1,0.8,0.2,1.1,0.5c0.1,0.1,0.4,0.4,0.4,0.9c0,0.7-0.5,1.4-1.6,1.4
			c-0.2,0-0.7,0-1.1-0.4c-0.2,0.2-0.2,0.2-0.2,0.2c-0.2,0.2-0.2,0.2-0.2,0.2c-0.1,0-0.1-0.1-0.1-0.2V6.9c0-0.2,0-0.2,0.1-0.2
			c0.1,0,0.1,0,0.1,0.2c0.2,0.8,0.5,1.4,1.4,1.4c0.8,0,1.1-0.4,1.1-0.9c0-0.7-0.8-0.9-1-0.9C115.1,6.3,114.8,6.3,114.5,6z"/>
	</g>
	<g>
		<path class="st1" d="M120.8,10.9c-0.1,0-1-0.6-1.6-1.9c-0.5-1.1-0.7-2.3-0.7-3.1c0-0.8,0.1-1.9,0.6-3c0.6-1.3,1.5-1.9,1.6-1.9
			c0.1,0,0.1,0,0.1,0.1c0,0,0,0-0.1,0.2c-1.2,1.2-1.6,3-1.6,4.7c0,1.5,0.3,3.4,1.6,4.7C120.9,10.7,120.9,10.7,120.8,10.9
			C120.9,10.8,120.9,10.9,120.8,10.9z"/>
		<path class="st1" d="M124.6,10.9c-0.1,0-1-0.6-1.6-1.9c-0.5-1.1-0.7-2.3-0.7-3.1c0-0.8,0.1-1.9,0.6-3c0.6-1.3,1.5-1.9,1.6-1.9
			c0.1,0,0.1,0,0.1,0.1c0,0,0,0-0.1,0.2c-1.2,1.2-1.6,3-1.6,4.7c0,1.5,0.3,3.4,1.6,4.7C124.7,10.7,124.7,10.7,124.6,10.9
			C124.7,10.8,124.7,10.9,124.6,10.9z"/>
		<path class="st1" d="M128.3,7.6c0.2,0,0.9,0,0.9-0.1c0.1-0.1,0.2-0.6,0.2-0.9h0.2l-0.3,1.7h-3.7c0-0.2,0-0.3,0.1-0.4l1.9-2.1
			c0.5-0.6,1-1.4,1-2.2c0-0.8-0.4-1.6-1.3-1.6c-0.6,0-1.1,0.4-1.3,1c0,0,0,0,0.1,0c0.3,0,0.5,0.3,0.5,0.5c0,0.4-0.3,0.5-0.5,0.5
			c0,0-0.5,0-0.5-0.6c0-0.9,0.7-1.8,1.9-1.8c1.2,0,2.1,0.8,2.1,1.9c0,1-0.6,1.5-2.2,2.9l-1.1,1H128.3z"/>
	</g>
	<g>
		<path class="st1" d="M132.4,6.9c-0.1,0.5-0.1,0.5-0.3,1c-0.1,0.4-0.2,0.6-0.5,0.6c-0.1,0-0.3-0.1-0.3-0.3c0-0.1,0-0.1,0.1-0.2
			c0.4-0.9,1-2.1,1.3-3.3h-0.6c-0.2,0-0.8,0-1.3,0.8c-0.1,0.1-0.1,0.1-0.2,0.1c-0.1,0-0.1-0.1-0.1-0.1c0,0,0.3-0.5,0.6-0.9
			c0.4-0.5,0.8-0.5,1-0.5h3.3c0.2,0,0.4,0,0.4,0.2c0,0.3-0.4,0.3-0.5,0.3h-1.1c-0.1,0.5-0.2,1.1-0.2,1.6c0,0.3,0,0.9,0.3,1.6
			c0.1,0.1,0.1,0.2,0.1,0.2c0,0.2-0.2,0.4-0.4,0.4c-0.1,0-0.3-0.1-0.4-0.5c-0.1-0.3-0.1-0.6-0.1-0.8c0-0.7,0.1-1.1,0.4-2.6H133
			L132.4,6.9z"/>
		<path class="st1" d="M137.3,10.6c-0.1,0.2-0.1,0.2-0.2,0.2c-0.1,0-0.2-0.1-0.2-0.2c0,0,0,0,0-0.2l3.5-9.5c0-0.1,0.1-0.1,0.2-0.1
			c0.1,0,0.2,0.1,0.2,0.2c0,0,0,0,0,0.2L137.3,10.6z"/>
	</g>
	<g>
		<path class="st1" d="M143.9,4.1c1.1,0,2,1,2,2.2c0,1.3-0.9,2.3-2.1,2.3c-0.9,0-2.1-0.7-2.1-3.4c0-2.2,1.3-3.5,2.6-3.5
			c0.8,0,1.3,0.5,1.3,1.1c0,0.4-0.3,0.5-0.5,0.5c-0.2,0-0.5-0.1-0.5-0.5c0-0.4,0.4-0.4,0.5-0.4c-0.2-0.3-0.6-0.4-0.9-0.4
			c-0.5,0-1.7,0.4-1.7,2.9v0.2C142.9,4.6,143.2,4.1,143.9,4.1z M144.8,7.7c0.2-0.4,0.2-0.9,0.2-1.3c0-0.5,0-1-0.2-1.4
			c-0.3-0.6-0.8-0.6-0.9-0.6c-0.9,0-1.2,1-1.2,1.8c0,0.2,0,1,0.2,1.4c0.1,0.1,0.4,0.7,1,0.7C144.1,8.3,144.5,8.3,144.8,7.7z"/>
		<path class="st1" d="M148.6,8.9c-0.6,1.3-1.5,1.9-1.6,1.9c-0.1,0-0.1,0-0.1-0.1c0,0,0-0.1,0.1-0.2c1.2-1.3,1.6-3,1.6-4.7
			c0-2.1-0.6-3.7-1.5-4.7C147,1.1,147,1,147,1c0-0.1,0-0.1,0.1-0.1c0.1,0,1,0.6,1.6,1.9c0.5,1.1,0.7,2.3,0.7,3.1
			C149.3,6.7,149.1,7.8,148.6,8.9z"/>
	</g>
	<g>
		<path class="st1" d="M151.7,5.5c0.1-0.5,0.2-0.6,0.2-0.8c0-0.3-0.1-0.5-0.3-0.5c-0.4,0-0.6,0.5-0.7,1.2c-0.1,0.2-0.1,0.2-0.2,0.2
			c0,0-0.1,0-0.1-0.1c0,0,0.1-0.6,0.3-1c0.1-0.2,0.3-0.6,0.7-0.6c0.5,0,0.9,0.3,0.9,0.9c0.2-0.2,0.7-0.9,1.6-0.9
			c0.7,0,1.1,0.4,1.1,1.1c0,0.6-0.4,1.7-0.6,2.2c-0.1,0.2-0.2,0.5-0.2,0.7c0,0.2,0.1,0.3,0.2,0.3c0.5,0,0.8-0.6,1-1.2
			c0-0.1,0-0.2,0.1-0.2c0,0,0.1,0,0.1,0.1c0,0.1-0.4,1.5-1.3,1.5c-0.5,0-0.8-0.3-0.8-0.8c0-0.1,0-0.2,0.1-0.5
			c0.2-0.4,0.6-1.7,0.6-2.3c0-0.3-0.1-0.7-0.5-0.7c-0.9,0-1.5,0.9-1.6,1.2c0,0-0.1,0.3-0.1,0.5c0,0.2-0.1,0.4-0.2,0.7l-0.2,0.9
			c-0.1,0.2-0.2,0.7-0.2,0.7c-0.1,0.2-0.2,0.3-0.4,0.3c-0.1,0-0.3-0.1-0.3-0.3c0-0.1,0.1-0.3,0.1-0.4L151.7,5.5z"/>
	</g>
	<g>
		<path class="st1" d="M158.5,8.9c-0.6,1.3-1.5,1.9-1.6,1.9c-0.1,0-0.1,0-0.1-0.1c0,0,0-0.1,0.1-0.2c1.2-1.3,1.6-3,1.6-4.7
			c0-2.1-0.6-3.7-1.5-4.7c-0.2-0.2-0.2-0.2-0.2-0.2c0-0.1,0-0.1,0.1-0.1c0.1,0,1,0.6,1.6,1.9c0.5,1.1,0.7,2.3,0.7,3.1
			C159.1,6.7,159,7.8,158.5,8.9z"/>
	</g>
	<g>
		<path class="st1" d="M274.4,43.7c0,0.4,0,0.5,0.9,0.5h0.3v0.3c-0.3,0-1.2,0-1.6,0s-1.3,0-1.6,0v-0.3h0.3c0.9,0,0.9-0.1,0.9-0.5
			v-5.2c-0.5,0.3-1.1,0.3-1.3,0.3v-0.3c0.3,0,1.2,0,1.8-0.6c0.2,0,0.2,0,0.2,0.3V43.7z"/>
		<path class="st1" d="M278.8,44.7c-1.1,0-1.8-1-1.8-1.8c0-0.5,0.3-0.5,0.5-0.5c0.3,0,0.5,0.2,0.5,0.5s-0.2,0.5-0.5,0.5
			c-0.1,0-0.1,0-0.2,0c0.2,0.6,0.7,1.1,1.5,1.1c0.5,0,0.8-0.3,1.1-0.6c0.2-0.4,0.2-1,0.2-1.4c0-0.5,0-0.9-0.2-1.3
			c-0.1-0.2-0.3-0.6-0.8-0.6c-0.8,0-1.2,0.5-1.3,0.7c0,0.1-0.1,0.1-0.1,0.1c-0.1,0-0.1-0.1-0.1-0.3v-2.9c0-0.2,0-0.2,0.1-0.2
			c0,0,0,0,0.1,0c0.5,0.2,0.9,0.3,1.3,0.3c0.7,0,1.2-0.2,1.4-0.3c0,0,0.1,0,0.1,0c0.1,0,0.1,0,0.1,0.1c0,0.1-0.7,1-1.9,1
			c-0.3,0-0.6-0.1-0.8-0.1v1.9c0.4-0.3,0.8-0.5,1.3-0.5c1.1,0,1.9,1,1.9,2.2C281,43.8,279.9,44.7,278.8,44.7z"/>
	</g>
	<g>
		<path class="st1" d="M63.8,21.8c-1.1,0-1.9-0.9-1.9-1.9c0-1,0.9-1.9,1.9-1.9c1,0,1.9,0.9,1.9,1.9C65.7,20.9,64.8,21.8,63.8,21.8z"
			/>
	</g>
	<line class="st2" x1="63.8" y1="48.4" x2="63.8" y2="20.1"/>
	<g>
		<path class="st1" d="M106.3,78.4c-1.1,0-1.9-0.9-1.9-1.9c0-1,0.9-1.9,1.9-1.9c1,0,1.9,0.9,1.9,1.9
			C108.2,77.5,107.3,78.4,106.3,78.4z"/>
	</g>
	<line class="st2" x1="106.3" y1="76.8" x2="106.3" y2="48.4"/>
	<g>
		<path class="st1" d="M78,32.3c-1.1,0-1.9-0.9-1.9-1.9c0-1,0.9-1.9,1.9-1.9c1,0,1.9,0.9,1.9,1.9C79.9,31.4,79,32.3,78,32.3z"/>
	</g>
	<line class="st2" x1="78" y1="48.4" x2="78" y2="30.7"/>
	<g>
		<path class="st1" d="M92.1,67.7c-1.1,0-1.9-0.9-1.9-1.9c0-1,0.9-1.9,1.9-1.9c1,0,1.9,0.9,1.9,1.9C94.1,66.8,93.2,67.7,92.1,67.7z"
			/>
	</g>
	<line class="st2" x1="92.1" y1="66.2" x2="92.1" y2="48.4"/>
	<g>
		<path class="st1" d="M120.6,67.7c-1.1,0-1.9-0.9-1.9-1.9c0-1,0.9-1.9,1.9-1.9c1,0,1.9,0.9,1.9,1.9
			C122.5,66.8,121.6,67.7,120.6,67.7z"/>
	</g>
	<line class="st2" x1="120.5" y1="66.2" x2="120.5" y2="48.4"/>
	<g>
		<path class="st1" d="M134.7,32.3c-1.1,0-1.9-0.9-1.9-1.9c0-1,0.9-1.9,1.9-1.9c1,0,1.9,0.9,1.9,1.9
			C136.7,31.4,135.8,32.3,134.7,32.3z"/>
	</g>
	<line class="st2" x1="134.6" y1="48.4" x2="134.6" y2="30.7"/>
	<path class="st3" d="M63.8,20.1c0,0,4.9,1.9,7.1,3.5c2.8,2,5.2,4.2,7.1,7.1c3.6,5.5,4.6,11.6,7.1,17.7c2.4,6.1,3.5,12.2,7.1,17.7
		c1.9,2.9,4.3,5.1,7.1,7.1c2.2,1.6,4.4,3.5,7.1,3.5c2.7,0,4.9-1.9,7.1-3.5c2.8-2,5.2-4.2,7.1-7.1c3.6-5.5,4.6-11.6,7.1-17.7
		c2.4-6.1,3.5-12.2,7.1-17.7c1.9-2.9,7.1-7.1,7.1-7.1l0,0"/>
	<g>
		<path class="st1" d="M148.9,21.8c-1.1,0-1.9-0.9-1.9-1.9c0-1,0.9-1.9,1.9-1.9c1,0,1.9,0.9,1.9,1.9
			C150.8,20.9,149.9,21.8,148.9,21.8z"/>
	</g>
	<line class="st2" x1="148.8" y1="48.4" x2="148.8" y2="20.1"/>
	<g>
		<path class="st1" d="M191.4,78.4c-1.1,0-1.9-0.9-1.9-1.9c0-1,0.9-1.9,1.9-1.9c1,0,1.9,0.9,1.9,1.9
			C193.3,77.5,192.4,78.4,191.4,78.4z"/>
	</g>
	<line class="st2" x1="191.3" y1="76.8" x2="191.3" y2="48.4"/>
	<g>
		<path class="st1" d="M163.1,32.3c-1.1,0-1.9-0.9-1.9-1.9c0-1,0.9-1.9,1.9-1.9c1,0,1.9,0.9,1.9,1.9C165,31.4,164.1,32.3,163.1,32.3
			z"/>
	</g>
	<line class="st2" x1="163" y1="48.4" x2="163" y2="30.7"/>
	<g>
		<path class="st1" d="M177.2,67.7c-1.1,0-1.9-0.9-1.9-1.9c0-1,0.9-1.9,1.9-1.9c1,0,1.9,0.9,1.9,1.9
			C179.1,66.8,178.3,67.7,177.2,67.7z"/>
	</g>
	<line class="st2" x1="177.2" y1="66.2" x2="177.2" y2="48.4"/>
	<g>
		<path class="st1" d="M205.5,67.7c-1.1,0-1.9-0.9-1.9-1.9c0-1,0.9-1.9,1.9-1.9c1,0,1.9,0.9,1.9,1.9
			C207.5,66.8,206.6,67.7,205.5,67.7z"/>
	</g>
	<line class="st2" x1="205.5" y1="66.2" x2="205.5" y2="48.4"/>
	<g>
		<path class="st1" d="M219.7,32.3c-1.1,0-1.9-0.9-1.9-1.9c0-1,0.9-1.9,1.9-1.9c1,0,1.9,0.9,1.9,1.9
			C221.6,31.4,220.7,32.3,219.7,32.3z"/>
	</g>
	<line class="st2" x1="219.7" y1="48.4" x2="219.7" y2="30.7"/>
	<path class="st3" d="M148.8,20.1c0,0,4.9,1.9,7.1,3.5c2.8,2,5.2,4.2,7.1,7.1c3.6,5.5,4.6,11.6,7.1,17.7c2.4,6.1,3.5,12.2,7.1,17.7
		c1.9,2.9,4.3,5.1,7.1,7.1c2.2,1.6,4.4,3.5,7.1,3.5c2.7,0,4.9-1.9,7.1-3.5c2.8-2,5.2-4.2,7.1-7.1c3.6-5.5,4.6-11.6,7.1-17.7
		c2.4-6.1,3.5-12.2,7.1-17.7c1.9-2.9,7.1-7.1,7.1-7.1l0,0"/>
	<g>
		<path class="st1" d="M233.8,21.8c-1.1,0-1.9-0.9-1.9-1.9c0-1,0.9-1.9,1.9-1.9c1,0,1.9,0.9,1.9,1.9
			C235.8,20.9,234.9,21.8,233.8,21.8z"/>
	</g>
	<line class="st2" x1="233.9" y1="48.4" x2="233.9" y2="20.1"/>
	<g>
		<path class="st1" d="M276.4,78.4c-1.1,0-1.9-0.9-1.9-1.9c0-1,0.9-1.9,1.9-1.9c1,0,1.9,0.9,1.9,1.9
			C278.4,77.5,277.5,78.4,276.4,78.4z"/>
	</g>
	<line class="st2" x1="276.4" y1="76.8" x2="276.4" y2="48.4"/>
	<g>
		<path class="st1" d="M248,32.3c-1.1,0-1.9-0.9-1.9-1.9c0-1,0.9-1.9,1.9-1.9c1,0,1.9,0.9,1.9,1.9C249.9,31.4,249.1,32.3,248,32.3z"
			/>
	</g>
	<line class="st2" x1="248" y1="48.4" x2="248" y2="30.7"/>
	<g>
		<path class="st1" d="M262.3,67.7c-1.1,0-1.9-0.9-1.9-1.9c0-1,0.9-1.9,1.9-1.9c1,0,1.9,0.9,1.9,1.9
			C264.2,66.8,263.3,67.7,262.3,67.7z"/>
	</g>
	<line class="st2" x1="262.2" y1="66.2" x2="262.2" y2="48.4"/>
	<path class="st4" d="M233.9,20.1c0,0,4.9,1.9,7.1,3.5c2.8,2,5.2,4.2,7.1,7.1c3.6,5.5,4.6,11.6,7.1,17.7c2.4,6.1,3.5,12.2,7.1,17.7
		c1.9,2.9,4.3,5.1,7.1,7.1c2.2,1.6,4.4,3.5,7.1,3.5s7.1-3.5,7.1-3.5l0,0"/>
	<g>
		<path class="st5" d="M298.3,111.6h1v0.5c-0.3,0-1.2,0-1.6,0c-0.4,0-1.4,0-1.8,0v-0.5h0.9l-0.6-1.5h-2.7l-0.5,1.2c0,0,0,0.1,0,0.1
			c0,0.1,0.9,0.1,0.9,0.1v0.5c-0.4,0-0.9,0-1.3,0c-0.3,0-0.8,0-1.2,0v-0.5h0.2c0.8,0,0.8-0.1,0.8-0.2l2.5-6c0.1-0.2,0.1-0.3,0.4-0.3
			c0.2,0,0.3,0,0.4,0.3L298.3,111.6z M293.7,109.7h2.3l-1.1-2.8L293.7,109.7z"/>
		<path class="st5" d="M303,107.6c0.5,0,1.1,0.3,1.1,0.8c0,0.4-0.3,0.6-0.6,0.6c-0.3,0-0.6-0.2-0.6-0.6c0-0.3,0.2-0.4,0.2-0.5
			c-1,0-1.2,1.2-1.2,1.9v1.7h0.9v0.5c-0.4,0-1,0-1.4,0c-0.5,0-0.9,0-1.3,0v-0.5h0.7v-3.1c0-0.4-0.1-0.4-0.7-0.4v-0.5l1.7-0.1v1.1
			C301.9,108.1,302.3,107.6,303,107.6z"/>
		<path class="st5" d="M304.5,108.1v-0.4c1,0,1.5-1,1.5-2h0.5v1.9h1.5v0.5h-1.5v2.8c0,0.2,0,0.9,0.6,0.9c0.3,0,0.6-0.2,0.6-0.9v-0.5
			h0.5v0.5c0,0.7-0.4,1.3-1.2,1.3c-0.7,0-1.6-0.2-1.6-1.3v-2.7H304.5z"/>
		<path class="st5" d="M310.3,109.9c0,0.5,0,1.8,1.4,1.8c0.6,0,1.2-0.3,1.4-0.8c0.1-0.2,0.1-0.2,0.2-0.2c0,0,0.2,0,0.2,0.2
			c0,0.2-0.4,1.2-2,1.2c-1.6,0-2.6-1-2.6-2.3c0-1.2,0.9-2.3,2.5-2.3c0.7,0,1.2,0.2,1.6,0.5c0.5,0.5,0.6,1.2,0.6,1.5
			c0,0.3-0.1,0.3-0.3,0.3H310.3z M312.7,109.6c0-0.3,0-1.7-1.2-1.7c-0.3,0-0.7,0.1-0.9,0.5c-0.2,0.3-0.2,0.7-0.2,1.1H312.7z"/>
		<path class="st5" d="M315.1,106.6c0-1.1,1.1-1.5,2.1-1.5c0.8,0,1.1,0.4,1.1,0.9c0,0.4-0.3,0.6-0.6,0.6c-0.3,0-0.6-0.2-0.6-0.6
			c0-0.2,0.1-0.4,0.2-0.5c-0.1,0-0.1,0-0.2,0c-0.2,0-1,0.1-1,1.2v1h1.2v0.5h-1.1v3.5h0.9v0.5c-0.4,0-1,0-1.4,0c-0.5,0-0.9,0-1.3,0
			v-0.5h0.7v-3.5h-0.7v-0.5h0.7V106.6z"/>
		<path class="st5" d="M319.7,112.1c-0.7,0-1.9-0.2-1.9-1.1c0-1.4,2.5-1.5,3.2-1.6v-0.3c0-0.8-0.3-1.2-1.1-1.2c-0.1,0-0.4,0-0.7,0.1
			c0,0,0.2,0.2,0.2,0.5c0,0.4-0.3,0.6-0.6,0.6c-0.3,0-0.6-0.2-0.6-0.6c0-0.9,1.2-0.9,1.8-0.9c1.5,0,2.2,0.6,2.2,1.5v2.1
			c0,0.2,0,0.4,0.6,0.4c0.1,0,0.3,0,0.3,0.2c0,0.2-0.1,0.2-0.3,0.2h-0.5c-1,0-1-0.5-1-0.8C320.9,111.7,320.5,112.1,319.7,112.1z
			 M318.9,111c0,0.4,0.4,0.8,0.9,0.8c0.2,0,1.2-0.1,1.2-1.1v-0.9C320.5,109.8,318.9,109.9,318.9,111z"/>
		<path class="st5" d="M325.9,107.9c-1.3,0-1.3,1.3-1.3,1.9c0,0.5,0,1.9,1.4,1.9c0.5,0,1-0.2,1.2-0.8c0-0.1,0.1-0.1,0.2-0.1
			c0.1,0,0.2,0,0.2,0.1c0,0.1-0.3,1.2-1.9,1.2c-1.5,0-2.5-0.9-2.5-2.3c0-1.2,0.7-2.3,2.5-2.3c0.6,0,1.7,0.1,1.7,0.9
			c0,0.4-0.3,0.6-0.6,0.6c-0.3,0-0.6-0.2-0.6-0.6c0-0.1,0-0.3,0.2-0.5C326.4,108,326.2,107.9,325.9,107.9z"/>
		<path class="st5" d="M328.2,108.1v-0.4c1,0,1.5-1,1.5-2h0.5v1.9h1.5v0.5h-1.5v2.8c0,0.2,0,0.9,0.6,0.9c0.3,0,0.6-0.2,0.6-0.9v-0.5
			h0.5v0.5c0,0.7-0.4,1.3-1.2,1.3c-0.7,0-1.6-0.2-1.6-1.3v-2.7H328.2z"/>
	</g>
	<path class="st6" d="M283.6,123.6c-9.8,0-17.7,17.1-17.7,38.1s7.9,38.1,17.7,38.1s17.7-17.1,17.7-38.1S293.3,123.6,283.6,123.6
		L283.6,123.6z"/>
	<polyline class="st7" points="293,123.1 290.5,126.4 294.7,126.4 293,125.2 	"/>
	<line class="st8" x1="311.8" y1="115.8" x2="293" y2="125.2"/>
	<polyline points="364,164.1 368.5,161.8 364,159.6 365.1,161.8 	"/>
	<line class="st0" x1="0" y1="161.8" x2="365.1" y2="161.8"/>
	<polyline points="66,123.8 63.8,119.3 61.5,123.8 63.8,122.7 	"/>
	<line class="st0" x1="63.8" y1="197.3" x2="63.8" y2="122.7"/>
	<g>
		<path class="st1" d="M377.6,161c0.1-0.5,0.2-0.6,0.2-0.8c0-0.3-0.1-0.5-0.3-0.5c-0.4,0-0.6,0.5-0.7,1.2c-0.1,0.2-0.1,0.2-0.2,0.2
			c0,0-0.1,0-0.1-0.1c0,0,0.1-0.6,0.3-1c0.1-0.2,0.3-0.6,0.7-0.6c0.5,0,0.9,0.3,0.9,0.9c0.2-0.2,0.7-0.9,1.6-0.9
			c0.7,0,1.1,0.4,1.1,1.1c0,0.6-0.4,1.7-0.6,2.2c-0.1,0.2-0.2,0.5-0.2,0.7c0,0.2,0.1,0.3,0.2,0.3c0.5,0,0.8-0.6,1-1.2
			c0.1-0.1,0.1-0.2,0.2-0.2c0,0,0.1,0,0.1,0.1c0,0.1-0.4,1.5-1.3,1.5c-0.5,0-0.8-0.3-0.8-0.8c0-0.1,0-0.2,0.1-0.5
			c0.2-0.4,0.6-1.7,0.6-2.3c0-0.3-0.1-0.7-0.5-0.7c-0.9,0-1.5,0.9-1.6,1.2c0,0-0.1,0.3-0.1,0.5c0,0.2-0.1,0.4-0.2,0.7l-0.2,0.9
			c-0.1,0.2-0.2,0.7-0.2,0.7c-0.1,0.2-0.2,0.3-0.4,0.3c-0.1,0-0.3-0.1-0.3-0.3c0,0,0.1-0.3,0.1-0.4L377.6,161z"/>
	</g>
	<g>
		<path class="st1" d="M65.5,171.1c-0.4,0.9-1.2,1.2-1.7,1.2c-0.5,0-1.2-0.2-1.6-1c-0.4-0.8-0.4-1.7-0.4-2.4c0-0.8,0-1.6,0.4-2.3
			c0.4-0.9,1.1-1.2,1.7-1.2c0.4,0,1.2,0.2,1.7,1.1c0.3,0.7,0.4,1.5,0.4,2.3C65.9,169.7,65.8,170.4,65.5,171.1z M65,170.8
			c0.1-0.6,0.1-1.3,0.1-2.1c0-0.6,0-1.4-0.1-1.9c-0.2-1-0.8-1.2-1.2-1.2c-0.2,0-1,0.1-1.2,1.3c-0.1,0.5-0.1,1.2-0.1,1.8
			c0,0.6,0,1.5,0.1,2.1c0.2,1,0.8,1.2,1.2,1.2C64.2,172.1,64.8,171.8,65,170.8z"/>
		<path class="st1" d="M78.4,171.3c0,0.4,0,0.5,0.9,0.5h0.3v0.3c-0.3,0-1.2,0-1.6,0c-0.4,0-1.3,0-1.6,0v-0.3h0.3
			c0.9,0,0.9-0.1,0.9-0.5v-5.2c-0.5,0.3-1.1,0.3-1.3,0.3v-0.3c0.3,0,1.2,0,1.8-0.6c0.2,0,0.2,0,0.2,0.3V171.3z"/>
	</g>
	<g>
		<path class="st1" d="M274.4,157.1c0,0.4,0,0.5,0.9,0.5h0.3v0.3c-0.3,0-1.2,0-1.6,0s-1.3,0-1.6,0v-0.3h0.3c0.9,0,0.9-0.1,0.9-0.5
			V152c-0.5,0.3-1.1,0.3-1.3,0.3v-0.3c0.3,0,1.2,0,1.8-0.6c0.2,0,0.2,0,0.2,0.3V157.1z"/>
		<path class="st1" d="M278.8,158.1c-1.1,0-1.8-1-1.8-1.8c0-0.5,0.3-0.5,0.5-0.5c0.3,0,0.5,0.2,0.5,0.5c0,0.2-0.2,0.5-0.5,0.5
			c-0.1,0-0.1,0-0.2,0c0.2,0.6,0.7,1.1,1.5,1.1c0.5,0,0.8-0.3,1.1-0.6c0.2-0.4,0.2-1,0.2-1.4c0-0.5,0-0.9-0.2-1.3
			c-0.1-0.2-0.3-0.6-0.8-0.6c-0.8,0-1.2,0.5-1.3,0.7c0,0.1-0.1,0.1-0.1,0.1c-0.1,0-0.1-0.1-0.1-0.3v-2.9c0-0.2,0-0.2,0.1-0.2
			c0,0,0,0,0.1,0c0.5,0.2,0.9,0.3,1.3,0.3c0.7,0,1.2-0.2,1.4-0.3c0,0,0.1,0,0.1,0c0.1,0,0.1,0,0.1,0.1c0,0.1-0.7,1-1.9,1
			c-0.3,0-0.6-0.1-0.8-0.1v1.9c0.4-0.3,0.8-0.5,1.3-0.5c1.1,0,1.9,1,1.9,2.2C281,157.2,279.9,158.1,278.8,158.1z"/>
	</g>
	<g>
		<path class="st1" d="M63.8,135.1c-1.1,0-1.9-0.9-1.9-1.9c0-1,0.9-1.9,1.9-1.9c1,0,1.9,0.9,1.9,1.9S64.8,135.1,63.8,135.1z"/>
	</g>
	<line class="st2" x1="63.8" y1="161.8" x2="63.8" y2="133.5"/>
	<g>
		<path class="st1" d="M106.3,191.8c-1.1,0-1.9-0.9-1.9-1.9c0-1,0.9-1.9,1.9-1.9c1,0,1.9,0.9,1.9,1.9S107.3,191.8,106.3,191.8z"/>
	</g>
	<line class="st2" x1="106.3" y1="190.2" x2="106.3" y2="161.8"/>
	<g>
		<path class="st1" d="M78,145.7c-1.1,0-1.9-0.9-1.9-1.9c0-1,0.9-1.9,1.9-1.9c1,0,1.9,0.9,1.9,1.9S79,145.7,78,145.7z"/>
	</g>
	<line class="st2" x1="78" y1="161.8" x2="78" y2="144.1"/>
	<g>
		<path class="st1" d="M92.1,181.1c-1.1,0-1.9-0.9-1.9-1.9c0-1,0.9-1.9,1.9-1.9c1,0,1.9,0.9,1.9,1.9S93.2,181.1,92.1,181.1z"/>
	</g>
	<line class="st2" x1="92.1" y1="179.5" x2="92.1" y2="161.8"/>
	<g>
		<path class="st1" d="M120.6,181.1c-1.1,0-1.9-0.9-1.9-1.9c0-1,0.9-1.9,1.9-1.9c1,0,1.9,0.9,1.9,1.9S121.6,181.1,120.6,181.1z"/>
	</g>
	<line class="st2" x1="120.5" y1="179.5" x2="120.5" y2="161.8"/>
	<g>
		<path class="st1" d="M134.7,145.7c-1.1,0-1.9-0.9-1.9-1.9c0-1,0.9-1.9,1.9-1.9c1,0,1.9,0.9,1.9,1.9S135.8,145.7,134.7,145.7z"/>
	</g>
	<line class="st2" x1="134.6" y1="161.8" x2="134.6" y2="144.1"/>
	<path class="st3" d="M63.8,133.5c0,0,4.9,1.9,7.1,3.5c2.8,2,5.2,4.2,7.1,7.1c3.6,5.5,4.6,11.6,7.1,17.7c2.4,6.1,3.5,12.2,7.1,17.7
		c1.9,2.9,4.3,5.1,7.1,7.1c2.2,1.6,4.4,3.5,7.1,3.5c2.7,0,4.9-1.9,7.1-3.5c2.8-2,5.2-4.2,7.1-7.1c3.6-5.5,4.6-11.6,7.1-17.7
		s3.5-12.2,7.1-17.7c1.9-2.9,7.1-7.1,7.1-7.1l0,0"/>
	<g>
		<path class="st1" d="M148.9,135.1c-1.1,0-1.9-0.9-1.9-1.9c0-1,0.9-1.9,1.9-1.9c1,0,1.9,0.9,1.9,1.9S149.9,135.1,148.9,135.1z"/>
	</g>
	<line class="st2" x1="148.8" y1="161.8" x2="148.8" y2="133.5"/>
	<g>
		<path class="st1" d="M191.4,191.8c-1.1,0-1.9-0.9-1.9-1.9c0-1,0.9-1.9,1.9-1.9c1,0,1.9,0.9,1.9,1.9S192.4,191.8,191.4,191.8z"/>
	</g>
	<line class="st2" x1="191.3" y1="190.2" x2="191.3" y2="161.8"/>
	<g>
		<path class="st1" d="M163.1,145.7c-1.1,0-1.9-0.9-1.9-1.9c0-1,0.9-1.9,1.9-1.9c1,0,1.9,0.9,1.9,1.9S164.1,145.7,163.1,145.7z"/>
	</g>
	<line class="st2" x1="163" y1="161.8" x2="163" y2="144.1"/>
	<g>
		<path class="st1" d="M177.2,181.1c-1.1,0-1.9-0.9-1.9-1.9c0-1,0.9-1.9,1.9-1.9c1,0,1.9,0.9,1.9,1.9S178.3,181.1,177.2,181.1z"/>
	</g>
	<line class="st2" x1="177.2" y1="179.5" x2="177.2" y2="161.8"/>
	<g>
		<path class="st1" d="M205.5,181.1c-1.1,0-1.9-0.9-1.9-1.9c0-1,0.9-1.9,1.9-1.9c1,0,1.9,0.9,1.9,1.9S206.6,181.1,205.5,181.1z"/>
	</g>
	<line class="st2" x1="205.5" y1="179.5" x2="205.5" y2="161.8"/>
	<g>
		<path class="st1" d="M219.7,145.7c-1.1,0-1.9-0.9-1.9-1.9c0-1,0.9-1.9,1.9-1.9c1,0,1.9,0.9,1.9,1.9S220.7,145.7,219.7,145.7z"/>
	</g>
	<line class="st2" x1="219.7" y1="161.8" x2="219.7" y2="144.1"/>
	<path class="st3" d="M148.8,133.5c0,0,4.9,1.9,7.1,3.5c2.8,2,5.2,4.2,7.1,7.1c3.6,5.5,4.6,11.6,7.1,17.7c2.4,6.1,3.5,12.2,7.1,17.7
		c1.9,2.9,4.3,5.1,7.1,7.1c2.2,1.6,4.4,3.5,7.1,3.5c2.7,0,4.9-1.9,7.1-3.5c2.8-2,5.2-4.2,7.1-7.1c3.6-5.5,4.6-11.6,7.1-17.7
		s3.5-12.2,7.1-17.7c1.9-2.9,7.1-7.1,7.1-7.1l0,0"/>
	<g>
		<path class="st1" d="M233.8,135.1c-1.1,0-1.9-0.9-1.9-1.9c0-1,0.9-1.9,1.9-1.9c1,0,1.9,0.9,1.9,1.9S234.9,135.1,233.8,135.1z"/>
	</g>
	<line class="st2" x1="233.9" y1="161.8" x2="233.9" y2="133.5"/>
	<g>
		<path class="st1" d="M276.4,191.8c-1.1,0-1.9-0.9-1.9-1.9c0-1,0.9-1.9,1.9-1.9c1,0,1.9,0.9,1.9,1.9S277.5,191.8,276.4,191.8z"/>
	</g>
	<line class="st2" x1="276.4" y1="190.2" x2="276.4" y2="161.8"/>
	<g>
		<path class="st1" d="M248,145.7c-1.1,0-1.9-0.9-1.9-1.9c0-1,0.9-1.9,1.9-1.9c1,0,1.9,0.9,1.9,1.9S249.1,145.7,248,145.7z"/>
	</g>
	<line class="st2" x1="248" y1="161.8" x2="248" y2="144.1"/>
	<g>
		<path class="st1" d="M262.3,181.1c-1.1,0-1.9-0.9-1.9-1.9c0-1,0.9-1.9,1.9-1.9c1,0,1.9,0.9,1.9,1.9S263.3,181.1,262.3,181.1z"/>
	</g>
	<line class="st2" x1="262.2" y1="179.5" x2="262.2" y2="161.8"/>
	<path class="st4" d="M233.9,133.5c0,0,4.9,1.9,7.1,3.5c2.8,2,5.2,4.2,7.1,7.1c3.6,5.5,4.6,11.6,7.1,17.7c2.4,6.1,3.5,12.2,7.1,17.7
		c1.9,2.9,4.3,5.1,7.1,7.1c2.2,1.6,4.4,3.5,7.1,3.5s7.1-3.5,7.1-3.5l0,0"/>
	<g>
		<path class="st1" d="M290.6,135.1c-1.1,0-1.9-0.9-1.9-1.9c0-1,0.9-1.9,1.9-1.9c1,0,1.9,0.9,1.9,1.9S291.7,135.1,290.6,135.1z"/>
	</g>
	<line class="st9" x1="290.5" y1="161.8" x2="290.5" y2="133.5"/>
	<g>
		<path class="st1" d="M333.1,191.8c-1.1,0-1.9-0.9-1.9-1.9c0-1,0.9-1.9,1.9-1.9c1,0,1.9,0.9,1.9,1.9S334.1,191.8,333.1,191.8z"/>
	</g>
	<line class="st9" x1="333.1" y1="190.2" x2="333.1" y2="161.8"/>
	<g>
		<path class="st1" d="M304.8,145.7c-1.1,0-1.9-0.9-1.9-1.9c0-1,0.9-1.9,1.9-1.9c1,0,1.9,0.9,1.9,1.9S305.8,145.7,304.8,145.7z"/>
	</g>
	<line class="st9" x1="304.7" y1="161.8" x2="304.7" y2="144.1"/>
	<g>
		<path class="st1" d="M318.9,181.1c-1.1,0-1.9-0.9-1.9-1.9c0-1,0.9-1.9,1.9-1.9c1,0,1.9,0.9,1.9,1.9S320,181.1,318.9,181.1z"/>
	</g>
	<line class="st9" x1="318.9" y1="179.5" x2="318.9" y2="161.8"/>
	<g>
		<path class="st1" d="M347.2,181.1c-1.1,0-1.9-0.9-1.9-1.9c0-1,0.9-1.9,1.9-1.9c1,0,1.9,0.9,1.9,1.9S348.3,181.1,347.2,181.1z"/>
	</g>
	<line class="st9" x1="347.2" y1="179.5" x2="347.2" y2="161.8"/>
	<g>
		<path class="st1" d="M361.4,145.7c-1.1,0-1.9-0.9-1.9-1.9c0-1,0.9-1.9,1.9-1.9c1,0,1.9,0.9,1.9,1.9S362.5,145.7,361.4,145.7z"/>
	</g>
	<line class="st9" x1="361.4" y1="161.8" x2="361.4" y2="144.1"/>
	<path class="st10" d="M290.5,133.5c0,0,4.9,1.9,7.1,3.5c2.8,2,5.2,4.2,7.1,7.1c3.6,5.5,4.6,11.6,7.1,17.7s3.5,12.2,7.1,17.7
		c1.9,2.9,4.3,5.1,7.1,7.1c2.2,1.6,4.4,3.5,7.1,3.5s4.9-1.9,7.1-3.5c2.8-2,5.2-4.2,7.1-7.1c3.6-5.5,4.6-11.6,7.1-17.7
		s3.5-12.2,7.1-17.7c1.9-2.9,7.1-7.1,7.1-7.1l0,0"/>
	<g>
		<path class="st1" d="M7.2,135.1c-1.1,0-1.9-0.9-1.9-1.9c0-1,0.9-1.9,1.9-1.9c1,0,1.9,0.9,1.9,1.9S8.2,135.1,7.2,135.1z"/>
	</g>
	<line class="st11" x1="7.1" y1="161.8" x2="7.1" y2="133.5"/>
	<g>
		<path class="st1" d="M49.6,191.8c-1.1,0-1.9-0.9-1.9-1.9c0-1,0.9-1.9,1.9-1.9c1,0,1.9,0.9,1.9,1.9S50.7,191.8,49.6,191.8z"/>
	</g>
	<line class="st11" x1="49.6" y1="190.2" x2="49.6" y2="161.8"/>
	<g>
		<path class="st1" d="M21.3,145.7c-1.1,0-1.9-0.9-1.9-1.9c0-1,0.9-1.9,1.9-1.9c1,0,1.9,0.9,1.9,1.9S22.4,145.7,21.3,145.7z"/>
	</g>
	<line class="st11" x1="21.3" y1="161.8" x2="21.3" y2="144.1"/>
	<g>
		<path class="st1" d="M35.5,181.1c-1.1,0-1.9-0.9-1.9-1.9c0-1,0.9-1.9,1.9-1.9c1,0,1.9,0.9,1.9,1.9S36.5,181.1,35.5,181.1z"/>
	</g>
	<line class="st11" x1="35.4" y1="179.5" x2="35.4" y2="161.8"/>
	<path class="st12" d="M7.1,133.5c0,0,4.9,1.9,7.1,3.5c2.8,2,5.2,4.2,7.1,7.1c3.6,5.5,4.6,11.6,7.1,17.7c2.4,6.1,3.5,12.2,7.1,17.7
		c1.9,2.9,4.3,5.1,7.1,7.1c2.2,1.6,4.4,3.5,7.1,3.5c2.7,0,7.1-3.5,7.1-3.5l0,0"/>
	<g>
		<path class="st13" d="M14.8,112.6h1v0.5c-0.3,0-1.2,0-1.6,0c-0.4,0-1.4,0-1.8,0v-0.5h0.9l-0.6-1.5h-2.7l-0.5,1.2c0,0,0,0.1,0,0.1
			c0,0.1,0.9,0.1,0.9,0.1v0.5c-0.4,0-0.9,0-1.3,0c-0.3,0-0.8,0-1.2,0v-0.5h0.2c0.8,0,0.8-0.1,0.8-0.2l2.5-6c0.1-0.2,0.1-0.3,0.4-0.3
			c0.2,0,0.3,0,0.4,0.3L14.8,112.6z M10.3,110.6h2.3l-1.1-2.8L10.3,110.6z"/>
		<path class="st13" d="M19.5,108.5c0.5,0,1.1,0.3,1.1,0.8c0,0.4-0.3,0.6-0.6,0.6s-0.6-0.2-0.6-0.6c0-0.3,0.2-0.4,0.2-0.5
			c-1,0-1.2,1.2-1.2,1.9v1.7h0.9v0.5c-0.4,0-1,0-1.4,0c-0.5,0-0.9,0-1.3,0v-0.5h0.7v-3.1c0-0.4-0.1-0.4-0.7-0.4v-0.5l1.7-0.1v1.1
			C18.4,109,18.8,108.5,19.5,108.5z"/>
		<path class="st13" d="M21.1,109.1v-0.4c1,0,1.5-1,1.5-2H23v1.9h1.5v0.5H23v2.8c0,0.2,0,0.9,0.6,0.9c0.3,0,0.6-0.2,0.6-0.9v-0.5
			h0.5v0.5c0,0.7-0.4,1.3-1.2,1.3c-0.7,0-1.6-0.2-1.6-1.3v-2.7H21.1z"/>
		<path class="st13" d="M26.9,110.9c0,0.5,0,1.8,1.4,1.8c0.6,0,1.2-0.3,1.4-0.8c0.1-0.2,0.1-0.2,0.2-0.2c0,0,0.2,0,0.2,0.2
			c0,0.2-0.4,1.2-2,1.2c-1.6,0-2.6-1-2.6-2.3c0-1.2,0.9-2.3,2.5-2.3c0.7,0,1.2,0.2,1.6,0.5c0.5,0.5,0.6,1.2,0.6,1.5
			c0,0.3-0.1,0.3-0.3,0.3H26.9z M29.3,110.5c0-0.3,0-1.7-1.2-1.7c-0.3,0-0.7,0.1-0.9,0.5c-0.2,0.3-0.2,0.7-0.2,1.1H29.3z"/>
		<path class="st13" d="M31.7,107.6c0-1.1,1.1-1.5,2.1-1.5c0.8,0,1.1,0.4,1.1,0.9c0,0.4-0.3,0.6-0.6,0.6c-0.3,0-0.6-0.2-0.6-0.6
			c0-0.2,0.1-0.4,0.2-0.5c-0.1,0-0.1,0-0.2,0c-0.2,0-1,0.1-1,1.2v1h1.2v0.5h-1.1v3.5h0.9v0.5c-0.4,0-1,0-1.4,0c-0.5,0-0.9,0-1.3,0
			v-0.5h0.7v-3.5h-0.7v-0.5h0.7V107.6z"/>
		<path class="st13" d="M36.2,113.1c-0.7,0-1.9-0.2-1.9-1.1c0-1.4,2.5-1.5,3.2-1.6V110c0-0.8-0.3-1.2-1.1-1.2c-0.1,0-0.4,0-0.7,0.1
			c0,0,0.2,0.2,0.2,0.5c0,0.4-0.3,0.6-0.6,0.6c-0.3,0-0.6-0.2-0.6-0.6c0-0.9,1.2-0.9,1.8-0.9c1.5,0,2.2,0.6,2.2,1.5v2.1
			c0,0.2,0,0.4,0.6,0.4c0.1,0,0.3,0,0.3,0.2c0,0.2-0.1,0.2-0.3,0.2h-0.5c-1,0-1-0.5-1-0.8C37.5,112.7,37,113.1,36.2,113.1z
			 M35.5,111.9c0,0.4,0.4,0.8,0.9,0.8c0.2,0,1.2-0.1,1.2-1.1v-0.9C37,110.7,35.5,110.9,35.5,111.9z"/>
		<path class="st13" d="M42.5,108.9c-1.3,0-1.3,1.3-1.3,1.9c0,0.5,0,1.9,1.4,1.9c0.5,0,1-0.2,1.2-0.8c0-0.1,0.1-0.1,0.2-0.1
			c0.1,0,0.2,0,0.2,0.1c0,0.1-0.3,1.2-1.9,1.2c-1.5,0-2.5-0.9-2.5-2.3c0-1.2,0.7-2.3,2.5-2.3c0.6,0,1.7,0.1,1.7,0.9
			c0,0.4-0.3,0.6-0.6,0.6c-0.3,0-0.6-0.2-0.6-0.6c0-0.1,0-0.3,0.2-0.5C43,108.9,42.8,108.9,42.5,108.9z"/>
		<path class="st13" d="M44.8,109.1v-0.4c1,0,1.5-1,1.5-2h0.5v1.9h1.5v0.5h-1.5v2.8c0,0.2,0,0.9,0.6,0.9c0.3,0,0.6-0.2,0.6-0.9v-0.5
			h0.5v0.5c0,0.7-0.4,1.3-1.2,1.3c-0.7,0-1.6-0.2-1.6-1.3v-2.7H44.8z"/>
	</g>
	<path class="st14" d="M56.8,124.6c-9.8,0-17.7,17.1-17.7,38.1c0,21,7.9,38.1,17.7,38.1c9.8,0,17.7-17.1,17.7-38.1
		C74.5,141.7,66.5,124.6,56.8,124.6L56.8,124.6z"/>
	<polyline class="st15" points="45.5,127.3 49.6,127.3 47.1,124 47.1,126 	"/>
	<line class="st16" x1="28.3" y1="116.6" x2="47.1" y2="126"/>
	<g>
		<path class="st1" d="M179.7,97.1c0,0.4,0,0.5,0.8,0.5h0.2v0.3c-0.3,0-1.1,0-1.5,0c-0.4,0-1.1,0-1.5,0v-0.3h0.2
			c0.8,0,0.8-0.1,0.8-0.5v-5.3c0-0.4,0-0.5-0.8-0.5h-0.2v-0.3h3.5c1.4,0,2.4,0.9,2.4,1.9c0,1-1.1,1.8-2.3,1.8h-1.7V97.1z
			 M181.1,94.5c1.6,0,1.6-1.1,1.6-1.5c0-0.5,0-1.5-1.6-1.5h-0.9c-0.5,0-0.5,0.1-0.5,0.4v2.7H181.1z"/>
		<path class="st1" d="M185.7,91.9c0-0.4,0-0.5-0.8-0.5h-0.2v-0.3h5.6l0.3,2.2h-0.2c-0.2-1.4-0.4-1.9-2-1.9H187
			c-0.5,0-0.5,0.1-0.5,0.4v2.4h0.9c1,0,1.1-0.3,1.1-1.2h0.2v2.6h-0.2c0-0.8-0.1-1.2-1.1-1.2h-0.9v2.7c0,0.3,0,0.4,0.5,0.4h1.3
			c1.7,0,1.9-0.7,2.2-2.3h0.2l-0.4,2.6h-5.7v-0.3h0.2c0.8,0,0.8-0.1,0.8-0.5V91.9z"/>
	</g>
	<g>
		<path class="st1" d="M185.4,106.9c0.3-0.3,0.5-0.4,0.7-0.6c0.3-0.2,0.7-0.4,0.8-0.4c0.1,0,0.1,0.1,0.1,0.2c0,0.1,0,0.2-0.1,0.2
			c-1.4,0.7-2.2,1.8-2.5,3.1c0,0,0,0.1-0.1,0.1c0,0-0.1,0-0.1-0.1c-0.3-1.1-1-2.3-2.5-3.1c-0.1-0.1-0.1-0.1-0.1-0.2
			c0-0.1,0-0.2,0.1-0.2c0.1,0,0.4,0.2,0.8,0.4c0.2,0.1,0.3,0.2,0.7,0.6v-5.9c0-0.2,0-0.4,0.2-0.4c0.2,0,0.2,0.2,0.2,0.4v6.3
			c0.4,0.4,0.6,1,0.8,1.3c0.1-0.2,0.4-0.8,0.8-1.3v-6.3c0-0.2,0-0.4,0.2-0.4s0.2,0.2,0.2,0.4V106.9z"/>
	</g>
	<g>
		<path class="st1" d="M130.3,118c0,0.2,0,0.2-0.2,0.2c-0.1,0-0.1,0-0.2-0.2l-2.5-5.9c0-0.1,0-0.1-0.1-0.2l-1.3,5.3
			c0,0.1,0,0.2,0,0.2c0,0.2,0.1,0.4,0.7,0.4c0.1,0,0.2,0,0.2,0.1c0,0.2-0.1,0.2-0.2,0.2c-0.3,0-0.7,0-1,0c-0.3,0-0.7,0-1,0
			c-0.1,0-0.1,0-0.1-0.1c0-0.2,0.1-0.2,0.2-0.2c0.8,0,1-0.3,1.1-0.7l1.3-5.4c0-0.1-0.6-0.1-0.7-0.1c-0.2,0-0.3,0-0.3-0.1
			c0-0.2,0.1-0.2,0.3-0.2h1.3c0.2,0,0.2,0,0.3,0.2l2.2,5.2l1.1-4.4c0,0,0-0.2,0-0.2c0-0.2-0.1-0.4-0.7-0.4c-0.1,0-0.2,0-0.2-0.1
			c0-0.2,0.1-0.2,0.2-0.2c0.3,0,0.7,0,1,0c0.3,0,0.7,0,1,0c0.1,0,0.1,0.1,0.1,0.1c0,0.2-0.1,0.2-0.2,0.2c-0.8,0-1,0.3-1.1,0.7
			L130.3,118z"/>
	</g>
	<g>
		<path class="st1" d="M137,114.9c-0.1,0-0.3,0-0.3-0.2c0-0.2,0.2-0.2,0.3-0.2h6c0.1,0,0.3,0,0.3,0.2c0,0.2-0.2,0.2-0.3,0.2H137z
			 M137,116.9c-0.1,0-0.3,0-0.3-0.2s0.2-0.2,0.3-0.2h5.9c0.1,0,0.3,0,0.3,0.2s-0.2,0.2-0.3,0.2H137z"/>
		<path class="st1" d="M149.6,117.4c0,0.4,0,0.5,0.9,0.5h0.3v0.3c-0.3,0-1.2,0-1.6,0c-0.4,0-1.3,0-1.6,0v-0.3h0.3
			c0.9,0,0.9-0.1,0.9-0.5v-5.2c-0.5,0.3-1.1,0.3-1.3,0.3v-0.3c0.3,0,1.2,0,1.8-0.6c0.2,0,0.2,0,0.2,0.3V117.4z"/>
	</g>
	<g>
		<path class="st1" d="M154.2,113.9c1.1,0,2,1,2,2.2c0,1.3-0.9,2.3-2.1,2.3c-0.9,0-2.1-0.7-2.1-3.4c0-2.2,1.3-3.5,2.6-3.5
			c0.8,0,1.3,0.5,1.3,1.1c0,0.4-0.3,0.5-0.5,0.5c-0.2,0-0.5-0.1-0.5-0.5c0-0.4,0.4-0.4,0.5-0.4c-0.2-0.3-0.6-0.4-0.9-0.4
			c-0.5,0-1.7,0.4-1.7,2.9v0.2C153.2,114.4,153.6,113.9,154.2,113.9z M155.2,117.5c0.2-0.4,0.2-0.9,0.2-1.3c0-0.5,0-1-0.2-1.4
			c-0.3-0.6-0.8-0.6-0.9-0.6c-0.9,0-1.2,1-1.2,1.8c0,0.2,0,1,0.2,1.4c0.1,0.1,0.4,0.7,1,0.7C154.4,118.1,154.9,118.1,155.2,117.5z"
			/>
		<path class="st1" d="M163,120.7c-0.1,0-1-0.6-1.6-1.9c-0.5-1.1-0.7-2.3-0.7-3.1c0-0.8,0.1-1.9,0.6-3c0.6-1.3,1.5-1.9,1.6-1.9
			c0.1,0,0.1,0,0.1,0.1c0,0,0,0-0.1,0.2c-1.2,1.2-1.6,3-1.6,4.7c0,1.5,0.3,3.4,1.6,4.7C163.1,120.5,163.1,120.5,163,120.7
			C163.1,120.6,163.1,120.7,163,120.7z"/>
	</g>
	<g>
		<path class="st1" d="M166.2,118.3c-1.2,0-2.2-1-2.2-2.2c0-1.2,1-2.3,2.2-2.3c1.2,0,2.2,1.1,2.2,2.3
			C168.4,117.3,167.4,118.3,166.2,118.3z M167.3,117.3c0.2-0.4,0.2-1,0.2-1.3c0-0.4,0-1-0.3-1.4c-0.3-0.4-0.7-0.6-1.1-0.6
			c-0.4,0-0.9,0.2-1.1,0.7c-0.2,0.4-0.2,1-0.2,1.4c0,0.4,0,1,0.2,1.4c0.3,0.5,0.7,0.7,1.1,0.7C166.7,118,167.1,117.8,167.3,117.3z"
			/>
		<path class="st1" d="M171.6,113.8c0.4,0,0.7,0.3,0.7,0.6c0,0.3-0.2,0.4-0.4,0.4c-0.2,0-0.4-0.2-0.4-0.4c0-0.3,0.2-0.4,0.2-0.4
			c0,0,0,0-0.1,0c-0.8,0-1.2,0.9-1.2,1.9v1.5c0,0.4,0,0.5,0.8,0.5h0.2v0.3c-0.4,0-0.9,0-1.3,0c-0.3,0-0.7,0-1.1,0v-0.3
			c0.7,0,0.8,0,0.8-0.4v-2.7c0-0.5-0.1-0.6-0.8-0.6v-0.3l1.4-0.1v1.1C170.5,114.5,170.9,113.8,171.6,113.8z"/>
	</g>
	<g>
		<path class="st1" d="M178.4,118.3c-1.2,0-2.2-1-2.2-2.2c0-1.2,1-2.3,2.2-2.3c1.2,0,2.2,1.1,2.2,2.3
			C180.6,117.3,179.6,118.3,178.4,118.3z M179.6,117.3c0.2-0.4,0.2-1,0.2-1.3c0-0.4,0-1-0.3-1.4c-0.3-0.4-0.7-0.6-1.1-0.6
			c-0.4,0-0.9,0.2-1.1,0.7c-0.2,0.4-0.2,1-0.2,1.4c0,0.4,0,1,0.2,1.4c0.3,0.5,0.7,0.7,1.1,0.7C178.9,118,179.3,117.8,179.6,117.3z"
			/>
		<path class="st1" d="M182.6,117c0,0.2,0,1.1,0.7,1.1c0.4,0,0.7-0.4,0.7-1.1v-0.5h0.2v0.6c0,0.6-0.3,1.3-1,1.3
			c-0.4,0-1.3-0.1-1.3-1.3v-2.8h-0.8V114c1,0,1.3-1.1,1.3-1.9h0.2v1.8h1.4v0.3h-1.4V117z"/>
		<path class="st1" d="M185.9,112.2c0-0.5-0.1-0.6-0.8-0.6v-0.3l1.4-0.1v3.5c0.2-0.4,0.6-1,1.4-1c0.6,0,0.9,0.2,1,0.4
			c0.3,0.4,0.3,0.7,0.3,1.5v1.9c0,0.3,0.3,0.3,0.8,0.3v0.3c-0.3,0-0.9,0-1.1,0c-0.3,0-0.8,0-1.1,0v-0.3c0.7,0,0.8,0,0.8-0.4v-2.3
			c0-0.6-0.1-1.1-0.7-1.1c-0.6,0-1.3,0.6-1.3,1.6v1.8c0,0.4,0.1,0.4,0.8,0.4v0.3c-0.3,0-0.9,0-1.1,0c-0.3,0-0.8,0-1.1,0v-0.3
			c0.7,0,0.8,0,0.8-0.4V112.2z"/>
		<path class="st1" d="M191.8,117.4c0.2,0.4,0.6,0.7,1.1,0.7c0.1,0,1,0,1.3-1c0-0.1,0-0.1,0.1-0.1c0,0,0.1,0,0.1,0.1
			c0,0.2-0.4,1.3-1.7,1.3c-1.1,0-2.2-1-2.2-2.3c0-1.2,0.9-2.3,2.1-2.3c1.2,0,1.8,1,1.8,2c0,0.2,0,0.2-0.2,0.2h-2.8
			C191.5,116.2,191.5,116.9,191.8,117.4z M193.8,115.7c0-0.4-0.1-1.7-1.1-1.7c-0.3,0-1.2,0.3-1.2,1.7H193.8z"/>
	</g>
	<g>
		<path class="st1" d="M197.6,113.8c0.4,0,0.7,0.3,0.7,0.6c0,0.3-0.2,0.4-0.4,0.4c-0.2,0-0.4-0.2-0.4-0.4c0-0.3,0.2-0.4,0.2-0.4
			c0,0,0,0-0.1,0c-0.8,0-1.2,0.9-1.2,1.9v1.5c0,0.4,0,0.5,0.8,0.5h0.2v0.3c-0.4,0-0.9,0-1.3,0c-0.3,0-0.7,0-1.1,0v-0.3
			c0.7,0,0.8,0,0.8-0.4v-2.7c0-0.5-0.1-0.6-0.8-0.6v-0.3l1.4-0.1v1.1C196.6,114.5,196.9,113.8,197.6,113.8z"/>
		<path class="st1" d="M202.3,114.2v-0.3l1.4-0.1v1c0.3-0.6,0.7-1,1.5-1c0.6,0,0.9,0.2,1,0.4c0.3,0.4,0.3,0.7,0.3,1.5v1.9
			c0,0.3,0.3,0.3,0.8,0.3v0.3c-0.3,0-0.9,0-1.1,0c-0.3,0-0.8,0-1.1,0v-0.3c0.7,0,0.8,0,0.8-0.4v-2.3c0-0.6-0.1-1.1-0.7-1.1
			c-0.6,0-1.3,0.6-1.3,1.6v1.8c0,0.4,0.1,0.4,0.8,0.4v0.3c-0.3,0-0.9,0-1.1,0c-0.3,0-0.8,0-1.1,0v-0.3c0.7,0,0.8,0,0.8-0.4v-2.7
			C203,114.3,203,114.2,202.3,114.2z"/>
	</g>
	<g>
		<path class="st1" d="M209.9,118.3c-1.2,0-2.2-1-2.2-2.2c0-1.2,1-2.3,2.2-2.3c1.2,0,2.2,1.1,2.2,2.3
			C212.2,117.3,211.1,118.3,209.9,118.3z M211.1,117.3c0.2-0.4,0.2-1,0.2-1.3c0-0.4,0-1-0.3-1.4c-0.3-0.4-0.7-0.6-1.1-0.6
			c-0.4,0-0.9,0.2-1.1,0.7c-0.2,0.4-0.2,1-0.2,1.4c0,0.4,0,1,0.2,1.4c0.3,0.5,0.7,0.7,1.1,0.7C210.4,118,210.9,117.8,211.1,117.3z"
			/>
		<path class="st1" d="M218.4,113.9c1.1,0,2,1,2,2.2c0,1.3-0.9,2.3-2.1,2.3c-0.9,0-2.1-0.7-2.1-3.4c0-2.2,1.3-3.5,2.6-3.5
			c0.8,0,1.3,0.5,1.3,1.1c0,0.4-0.3,0.5-0.5,0.5c-0.2,0-0.5-0.1-0.5-0.5c0-0.4,0.4-0.4,0.5-0.4c-0.2-0.3-0.6-0.4-0.9-0.4
			c-0.5,0-1.7,0.4-1.7,2.9v0.2C217.4,114.4,217.7,113.9,218.4,113.9z M219.3,117.5c0.2-0.4,0.2-0.9,0.2-1.3c0-0.5,0-1-0.2-1.4
			c-0.3-0.6-0.8-0.6-0.9-0.6c-0.9,0-1.2,1-1.2,1.8c0,0.2,0,1,0.2,1.4c0.1,0.1,0.4,0.7,1,0.7C218.6,118.1,219,118.1,219.3,117.5z"/>
	</g>
	<g>
		<path class="st1" d="M221,116.3v-0.6h2.6v0.6H221z"/>
		<path class="st1" d="M227.2,113.9v0.3H226v3.2c0,0.4,0,0.5,0.8,0.5h0.2v0.3c-0.4,0-0.9,0-1.3,0c-0.3,0-0.7,0-1.1,0v-0.3
			c0.7,0,0.8,0,0.8-0.4v-3.2h-0.8v-0.3h0.8v-1.1c0-1.1,0.8-1.6,1.5-1.6c0.5,0,0.9,0.3,0.9,0.7c0,0.2-0.2,0.4-0.4,0.4
			c-0.3,0-0.4-0.2-0.4-0.4c0-0.2,0.2-0.4,0.3-0.4c-0.1-0.1-0.3-0.1-0.3-0.1c-0.4,0-0.9,0.5-0.9,1.4v1.2H227.2z"/>
		<path class="st1" d="M229.8,118.3c-1.2,0-2.2-1-2.2-2.2c0-1.2,1-2.3,2.2-2.3c1.2,0,2.2,1.1,2.2,2.3
			C232,117.3,231,118.3,229.8,118.3z M231,117.3c0.2-0.4,0.2-1,0.2-1.3c0-0.4,0-1-0.3-1.4c-0.3-0.4-0.7-0.6-1.1-0.6
			c-0.4,0-0.9,0.2-1.1,0.7c-0.2,0.4-0.2,1-0.2,1.4c0,0.4,0,1,0.2,1.4c0.3,0.5,0.7,0.7,1.1,0.7C230.3,118,230.7,117.8,231,117.3z"/>
		<path class="st1" d="M234.1,117.4c0,0.4,0.1,0.4,0.8,0.4v0.3c-0.4,0-0.9,0-1.1,0s-0.8,0-1.1,0v-0.3c0.7,0,0.8,0,0.8-0.4v-5.2
			c0-0.5-0.1-0.6-0.8-0.6v-0.3l1.4-0.1V117.4z"/>
		<path class="st1" d="M237.6,118.3c-1.1,0-2.1-1-2.1-2.3c0-1.3,1-2.3,2.2-2.3c0.5,0,1,0.3,1.3,0.6v-2.2c0-0.5-0.1-0.6-0.8-0.6v-0.3
			l1.4-0.1v6c0,0.5,0.1,0.6,0.8,0.6v0.3l-1.5,0.1v-0.7C238.7,118,238.2,118.3,237.6,118.3z M238.8,114.6c-0.3-0.4-0.7-0.6-1.1-0.6
			c-0.5,0-0.9,0.3-1.1,0.6c-0.3,0.4-0.3,1-0.3,1.4c0,0.4,0,1,0.3,1.4c0.2,0.4,0.6,0.6,1,0.6c0.4,0,0.9-0.2,1.2-0.7
			c0.1-0.2,0.1-0.2,0.1-0.4v-2C238.9,114.8,238.9,114.8,238.8,114.6z"/>
		<path class="st1" d="M242.9,118.7c-0.6,1.3-1.5,1.9-1.6,1.9c-0.1,0-0.1,0-0.1-0.1c0,0,0,0,0.1-0.2c1.2-1.3,1.6-3,1.6-4.7
			c0-2.1-0.6-3.7-1.5-4.7c-0.2-0.2-0.2-0.2-0.2-0.2c0-0.1,0-0.1,0.1-0.1c0.1,0,1,0.6,1.6,1.9c0.5,1.1,0.7,2.3,0.7,3.1
			C243.6,116.5,243.4,117.6,242.9,118.7z"/>
	</g>
</g>
</svg>
