<?xml version="1.0" encoding="utf-8"?>
<!-- Generator: Adobe Illustrator 22.1.0, SVG Export Plug-In . SVG Version: 6.00 Build 0)  -->
<svg version="1.1" id="Layer_1" xmlns="http://www.w3.org/2000/svg" xmlns:xlink="http://www.w3.org/1999/xlink" x="0px" y="0px"
	 viewBox="0 0 268.8 194.8" style="enable-background:new 0 0 268.8 194.8;" xml:space="preserve">
<style type="text/css">
	.st0{fill:none;stroke:#000000;stroke-width:0.8504;stroke-miterlimit:10;}
	.st1{fill:#1D1D1B;}
	.st2{fill:none;stroke:#FF0000;stroke-width:1.7008;stroke-miterlimit:10;}
	.st3{fill:none;stroke:#000000;stroke-width:0.8504;stroke-linecap:round;stroke-miterlimit:10;stroke-dasharray:0,3.6832;}
	.st4{fill:none;stroke:#630000;stroke-width:1.7008;stroke-miterlimit:10;}
	.st5{fill:none;stroke:#630000;stroke-width:0.8504;stroke-linecap:round;stroke-miterlimit:10;stroke-dasharray:0,3.6832;}
	.st6{fill:none;stroke:#0000FF;stroke-width:1.7008;stroke-miterlimit:10;}
	.st7{fill:none;stroke:#0000FF;stroke-width:0.8504;stroke-linecap:round;stroke-miterlimit:10;stroke-dasharray:0,3.6832;}
</style>
<g>
	<polyline points="169.1,50.7 173.6,48.4 169.1,46.2 170.2,48.4 	"/>
	<line class="st0" x1="85" y1="48.4" x2="170.2" y2="48.4"/>
	<polyline points="94.4,10.5 92.1,5.9 89.9,10.5 92.1,9.3 	"/>
	<line class="st0" x1="92.1" y1="83.9" x2="92.1" y2="9.3"/>
	<g>
		<path class="st1" d="M179.2,47.6c0.1-0.5,0.2-0.6,0.2-0.8c0-0.3-0.1-0.5-0.3-0.5c-0.4,0-0.6,0.5-0.7,1.2c-0.1,0.2-0.1,0.2-0.2,0.2
			c0,0-0.1,0-0.1-0.1c0,0,0.1-0.6,0.3-1c0.1-0.2,0.3-0.6,0.7-0.6c0.5,0,0.9,0.3,0.9,0.9c0.2-0.2,0.7-0.9,1.6-0.9
			c0.7,0,1.1,0.4,1.1,1.1c0,0.6-0.4,1.7-0.6,2.2c-0.1,0.2-0.2,0.5-0.2,0.7c0,0.2,0.1,0.3,0.2,0.3c0.5,0,0.8-0.6,1-1.2
			c0.1-0.1,0.1-0.2,0.2-0.2c0,0,0.1,0,0.1,0.1c0,0.1-0.4,1.5-1.3,1.5c-0.5,0-0.8-0.3-0.8-0.8c0-0.1,0-0.2,0.1-0.5
			c0.2-0.4,0.6-1.7,0.6-2.3c0-0.3-0.1-0.7-0.5-0.7c-0.9,0-1.5,0.9-1.6,1.2c0,0-0.1,0.3-0.1,0.5c0,0.2-0.1,0.4-0.2,0.7l-0.2,0.9
			c-0.1,0.2-0.2,0.7-0.2,0.7c-0.1,0.2-0.2,0.3-0.4,0.3c-0.1,0-0.3-0.1-0.3-0.3c0-0.1,0.1-0.3,0.1-0.4L179.2,47.6z"/>
	</g>
	<g>
		<path class="st1" d="M93.8,57.7c-0.4,0.9-1.2,1.2-1.7,1.2c-0.5,0-1.2-0.2-1.6-1c-0.4-0.8-0.4-1.7-0.4-2.4c0-0.8,0-1.6,0.4-2.3
			c0.4-0.9,1.1-1.2,1.7-1.2c0.4,0,1.2,0.2,1.7,1.1c0.3,0.7,0.4,1.5,0.4,2.3C94.2,56.3,94.2,57,93.8,57.7z M93.3,57.4
			c0.1-0.6,0.1-1.3,0.1-2.1c0-0.6,0-1.4-0.1-1.9c-0.2-1-0.8-1.2-1.2-1.2c-0.2,0-1,0.1-1.2,1.3c-0.1,0.5-0.1,1.2-0.1,1.8
			c0,0.6,0,1.5,0.1,2.1c0.2,1,0.8,1.2,1.2,1.2C92.6,58.7,93.1,58.4,93.3,57.4z"/>
		<path class="st1" d="M106.7,57.9c0,0.4,0,0.5,0.9,0.5h0.3v0.3c-0.3,0-1.2,0-1.6,0c-0.4,0-1.3,0-1.6,0v-0.3h0.3
			c0.9,0,0.9-0.1,0.9-0.5v-5.2c-0.5,0.3-1.1,0.3-1.3,0.3v-0.3c0.3,0,1.2,0,1.8-0.6c0.2,0,0.2,0,0.2,0.3V57.9z"/>
	</g>
	<g>
		<path class="st1" d="M105.1,6.7c-0.1,0.4-0.2,0.7-0.2,0.9c0,0.3,0.2,0.7,0.5,0.7c0.3,0,1-0.2,1.3-1.3c0-0.1,0-0.1,0.1-0.1
			c0,0,0.1,0,0.1,0.1c0,0.2-0.6,1.5-1.6,1.5c-0.6,0-1-0.4-1.1-0.8c0,0.1-0.4,0.8-1,0.8c-0.4,0-0.9-0.2-0.9-0.7
			c0-0.3,0.2-0.6,0.5-0.6c0.1,0,0.4,0.1,0.4,0.3c0,0.3-0.2,0.5-0.5,0.5c0.2,0.1,0.4,0.1,0.5,0.1c0.4,0,0.8-0.4,0.9-1
			c0.4-1.4,0.5-2.1,0.5-2.4c0-0.6-0.3-0.7-0.5-0.7c-0.3,0-1,0.2-1.3,1.3c0,0.1-0.1,0.1-0.1,0.1c0,0-0.1,0-0.1-0.1
			c0-0.2,0.6-1.5,1.6-1.5c0.3,0,0.8,0.1,1.1,0.8c0.1-0.2,0.5-0.8,1-0.8c0.3,0,0.9,0.1,0.9,0.7c0,0.4-0.3,0.6-0.5,0.6
			c-0.3,0-0.4-0.2-0.4-0.3c0-0.2,0.2-0.5,0.5-0.5c-0.2-0.1-0.4-0.1-0.5-0.1c-0.7,0-0.9,0.9-1,1.2L105.1,6.7z"/>
	</g>
	<g>
		<path class="st1" d="M108.9,10.9v-10h1.4v0.4h-1v9.2h1v0.4H108.9z"/>
	</g>
	<g>
		<path class="st1" d="M112,5.5c0.1-0.5,0.2-0.6,0.2-0.8c0-0.3-0.1-0.5-0.3-0.5c-0.4,0-0.6,0.5-0.7,1.2c-0.1,0.2-0.1,0.2-0.2,0.2
			c0,0-0.1,0-0.1-0.1c0,0,0.1-0.6,0.3-1c0.1-0.2,0.3-0.6,0.7-0.6c0.5,0,0.9,0.3,0.9,0.9c0.2-0.2,0.7-0.9,1.6-0.9
			c0.7,0,1.1,0.4,1.1,1.1c0,0.6-0.4,1.7-0.6,2.2c-0.1,0.2-0.2,0.5-0.2,0.7c0,0.2,0.1,0.3,0.2,0.3c0.5,0,0.8-0.6,1-1.2
			c0-0.1,0-0.2,0.1-0.2c0,0,0.1,0,0.1,0.1c0,0.1-0.4,1.5-1.3,1.5c-0.5,0-0.8-0.3-0.8-0.8c0-0.1,0-0.2,0.1-0.5
			c0.2-0.4,0.6-1.7,0.6-2.3c0-0.3-0.1-0.7-0.5-0.7c-0.9,0-1.5,0.9-1.6,1.2c0,0-0.1,0.3-0.1,0.5c0,0.2-0.1,0.4-0.2,0.7l-0.2,0.9
			c-0.1,0.2-0.2,0.7-0.2,0.7c-0.1,0.2-0.2,0.3-0.4,0.3c-0.1,0-0.3-0.1-0.3-0.3c0-0.1,0.1-0.3,0.1-0.4L112,5.5z"/>
	</g>
	<g>
		<path class="st1" d="M118.1,10.9h-1.4v-0.4h1V1.3h-1V0.9h1.4V10.9z"/>
		<path class="st1" d="M123.1,5.1c-0.1,0-0.3,0-0.3-0.2s0.2-0.2,0.3-0.2h6c0.1,0,0.3,0,0.3,0.2s-0.2,0.2-0.3,0.2H123.1z M123,7.1
			c-0.1,0-0.3,0-0.3-0.2s0.2-0.2,0.3-0.2h5.9c0.1,0,0.3,0,0.3,0.2s-0.2,0.2-0.3,0.2H123z"/>
	</g>
	<g>
		<path class="st1" d="M135.3,8.2c0.4,0,1-0.1,1.3-1c0-0.1,0-0.1,0.1-0.1c0,0,0.1,0,0.1,0.1s-0.3,1.3-1.7,1.3c-1.2,0-2.1-1-2.1-2.3
			c0-1.2,0.9-2.3,2.2-2.3c0.8,0,1.5,0.4,1.5,1.1c0,0.3-0.2,0.5-0.5,0.5c-0.3,0-0.5-0.2-0.5-0.5c0-0.1,0.1-0.4,0.5-0.5
			c-0.3-0.4-1-0.4-1.1-0.4c-0.5,0-1.3,0.4-1.3,2C133.9,7.8,134.8,8.2,135.3,8.2z"/>
		<path class="st1" d="M139.6,8.5c-1.2,0-2.2-1-2.2-2.2c0-1.2,1-2.3,2.2-2.3c1.2,0,2.2,1.1,2.2,2.3C141.8,7.5,140.8,8.5,139.6,8.5z
			 M140.8,7.5c0.2-0.4,0.2-1,0.2-1.3c0-0.4,0-1-0.3-1.4c-0.3-0.4-0.7-0.6-1.1-0.6c-0.4,0-0.9,0.2-1.1,0.7c-0.2,0.4-0.2,1-0.2,1.4
			c0,0.4,0,1,0.2,1.4c0.3,0.5,0.7,0.7,1.1,0.7C140.1,8.2,140.6,8,140.8,7.5z"/>
		<path class="st1" d="M142.9,6c-0.3-0.2-0.4-0.5-0.4-0.8c0-0.6,0.4-1.2,1.6-1.2c0.1,0,0.6,0,0.9,0.3c0,0,0.1-0.1,0.2-0.2
			c0.1-0.1,0.1-0.1,0.2-0.1c0.1,0,0.1,0.1,0.1,0.2v1c0,0.2,0,0.2-0.1,0.2c0,0-0.1,0-0.1-0.1c0-0.3-0.1-1.2-1.2-1.2
			c-0.9,0-1.1,0.4-1.1,0.8c0,0.6,0.7,0.7,1.2,0.8c0.4,0.1,0.8,0.2,1.1,0.5c0.1,0.1,0.4,0.4,0.4,0.9c0,0.7-0.5,1.4-1.6,1.4
			c-0.2,0-0.7,0-1.1-0.4c-0.2,0.2-0.2,0.2-0.2,0.2c-0.2,0.2-0.2,0.2-0.2,0.2c-0.1,0-0.1-0.1-0.1-0.2V6.9c0-0.2,0-0.2,0.1-0.2
			c0.1,0,0.1,0,0.1,0.2c0.2,0.8,0.5,1.4,1.4,1.4c0.8,0,1.1-0.4,1.1-0.9c0-0.7-0.8-0.9-1-0.9C143.5,6.3,143.2,6.3,142.9,6z"/>
	</g>
	<g>
		<path class="st1" d="M149.2,10.9c-0.1,0-1-0.6-1.6-1.9c-0.5-1.1-0.7-2.3-0.7-3.1c0-0.8,0.1-1.9,0.6-3c0.6-1.3,1.5-1.9,1.6-1.9
			c0.1,0,0.1,0,0.1,0.1c0,0,0,0-0.1,0.2c-1.2,1.2-1.6,3-1.6,4.7c0,1.5,0.3,3.4,1.6,4.7C149.3,10.7,149.3,10.7,149.2,10.9
			C149.3,10.8,149.3,10.9,149.2,10.9z"/>
		<path class="st1" d="M153.1,10.9c-0.1,0-1-0.6-1.6-1.9c-0.5-1.1-0.7-2.3-0.7-3.1c0-0.8,0.1-1.9,0.6-3c0.6-1.3,1.5-1.9,1.6-1.9
			c0.1,0,0.1,0,0.1,0.1c0,0,0,0-0.1,0.2c-1.2,1.2-1.6,3-1.6,4.7c0,1.5,0.3,3.4,1.6,4.7C153.2,10.7,153.2,10.7,153.1,10.9
			C153.2,10.8,153.1,10.9,153.1,10.9z"/>
		<path class="st1" d="M156.8,7.6c0.2,0,0.9,0,0.9-0.1c0.1-0.1,0.2-0.6,0.2-0.9h0.2l-0.3,1.7h-3.7c0-0.2,0-0.3,0.1-0.4l1.9-2.1
			c0.5-0.6,1-1.4,1-2.2c0-0.8-0.4-1.6-1.3-1.6c-0.6,0-1.1,0.4-1.3,1c0,0,0,0,0.1,0c0.3,0,0.5,0.3,0.5,0.5c0,0.4-0.3,0.5-0.5,0.5
			c0,0-0.5,0-0.5-0.6c0-0.9,0.7-1.8,1.9-1.8c1.2,0,2.1,0.8,2.1,1.9c0,1-0.6,1.5-2.2,2.9l-1.1,1H156.8z"/>
	</g>
	<g>
		<path class="st1" d="M160.8,6.9c-0.1,0.5-0.1,0.5-0.3,1c-0.1,0.4-0.2,0.6-0.5,0.6c-0.1,0-0.3-0.1-0.3-0.3c0-0.1,0-0.1,0.1-0.2
			c0.4-0.9,1-2.1,1.3-3.3h-0.6c-0.2,0-0.8,0-1.3,0.8c-0.1,0.1-0.1,0.1-0.2,0.1c-0.1,0-0.1-0.1-0.1-0.1c0,0,0.3-0.5,0.6-0.9
			c0.4-0.5,0.8-0.5,1-0.5h3.3c0.2,0,0.4,0,0.4,0.2c0,0.3-0.4,0.3-0.5,0.3h-1.1c-0.1,0.5-0.2,1.1-0.2,1.6c0,0.3,0,0.9,0.3,1.6
			c0.1,0.1,0.1,0.2,0.1,0.2c0,0.2-0.2,0.4-0.4,0.4c-0.1,0-0.3-0.1-0.4-0.5c-0.1-0.3-0.1-0.6-0.1-0.8c0-0.7,0.1-1.1,0.4-2.6h-1.1
			L160.8,6.9z"/>
		<path class="st1" d="M165.7,10.6c-0.1,0.2-0.1,0.2-0.2,0.2c-0.1,0-0.2-0.1-0.2-0.2c0,0,0,0,0-0.2l3.5-9.5c0-0.1,0.1-0.1,0.2-0.1
			c0.1,0,0.2,0.1,0.2,0.2c0,0,0,0,0,0.2L165.7,10.6z"/>
	</g>
	<g>
		<path class="st1" d="M172.3,4.1c1.1,0,2,1,2,2.2c0,1.3-0.9,2.3-2.1,2.3c-0.9,0-2.1-0.7-2.1-3.4c0-2.2,1.3-3.5,2.6-3.5
			c0.8,0,1.3,0.5,1.3,1.1c0,0.4-0.3,0.5-0.5,0.5c-0.2,0-0.5-0.1-0.5-0.5c0-0.4,0.4-0.4,0.5-0.4c-0.2-0.3-0.6-0.4-0.9-0.4
			c-0.5,0-1.7,0.4-1.7,2.9v0.2C171.3,4.6,171.7,4.1,172.3,4.1z M173.3,7.7c0.2-0.4,0.2-0.9,0.2-1.3c0-0.5,0-1-0.2-1.4
			c-0.3-0.6-0.8-0.6-0.9-0.6c-0.9,0-1.2,1-1.2,1.8c0,0.2,0,1,0.2,1.4c0.1,0.1,0.4,0.7,1,0.7C172.5,8.3,173,8.3,173.3,7.7z"/>
		<path class="st1" d="M177.1,8.9c-0.6,1.3-1.5,1.9-1.6,1.9c-0.1,0-0.1,0-0.1-0.1c0,0,0-0.1,0.1-0.2c1.2-1.3,1.6-3,1.6-4.7
			c0-2.1-0.6-3.7-1.5-4.7c-0.2-0.2-0.2-0.2-0.2-0.2c0-0.1,0-0.1,0.1-0.1c0.1,0,1,0.6,1.6,1.9c0.5,1.1,0.7,2.3,0.7,3.1
			C177.7,6.7,177.6,7.8,177.1,8.9z"/>
	</g>
	<g>
		<path class="st1" d="M180.1,5.5c0.1-0.5,0.2-0.6,0.2-0.8c0-0.3-0.1-0.5-0.3-0.5c-0.4,0-0.6,0.5-0.7,1.2c-0.1,0.2-0.1,0.2-0.2,0.2
			c0,0-0.1,0-0.1-0.1c0,0,0.1-0.6,0.3-1c0.1-0.2,0.3-0.6,0.7-0.6c0.5,0,0.9,0.3,0.9,0.9c0.2-0.2,0.7-0.9,1.6-0.9
			c0.7,0,1.1,0.4,1.1,1.1c0,0.6-0.4,1.7-0.6,2.2c-0.1,0.2-0.2,0.5-0.2,0.7c0,0.2,0.1,0.3,0.2,0.3c0.5,0,0.8-0.6,1-1.2
			c0.1-0.1,0.1-0.2,0.2-0.2c0,0,0.1,0,0.1,0.1c0,0.1-0.4,1.5-1.3,1.5c-0.5,0-0.8-0.3-0.8-0.8c0-0.1,0-0.2,0.1-0.5
			c0.2-0.4,0.6-1.7,0.6-2.3c0-0.3-0.1-0.7-0.5-0.7c-0.9,0-1.5,0.9-1.6,1.2c0,0-0.1,0.3-0.1,0.5c0,0.2-0.1,0.4-0.2,0.7l-0.2,0.9
			c-0.1,0.2-0.2,0.7-0.2,0.7c-0.1,0.2-0.2,0.3-0.4,0.3c-0.1,0-0.3-0.1-0.3-0.3c0-0.1,0.1-0.3,0.1-0.4L180.1,5.5z"/>
	</g>
	<g>
		<path class="st1" d="M186.9,8.9c-0.6,1.3-1.5,1.9-1.6,1.9c-0.1,0-0.1,0-0.1-0.1c0,0,0-0.1,0.1-0.2c1.2-1.3,1.6-3,1.6-4.7
			c0-2.1-0.6-3.7-1.5-4.7c-0.2-0.2-0.2-0.2-0.2-0.2c0-0.1,0-0.1,0.1-0.1c0.1,0,1,0.6,1.6,1.9c0.5,1.1,0.7,2.3,0.7,3.1
			C187.5,6.7,187.4,7.8,186.9,8.9z"/>
	</g>
	<g>
		<path class="st1" d="M162.9,58.9c-1.1,0-1.8-1-1.8-1.8c0-0.5,0.3-0.5,0.5-0.5c0.3,0,0.5,0.2,0.5,0.5s-0.2,0.5-0.5,0.5
			c-0.1,0-0.1,0-0.2,0c0.2,0.6,0.7,1.1,1.5,1.1c0.5,0,0.8-0.3,1.1-0.6c0.2-0.4,0.2-1,0.2-1.4c0-0.5,0-0.9-0.2-1.3
			c-0.1-0.2-0.3-0.6-0.8-0.6c-0.8,0-1.2,0.5-1.3,0.7c0,0.1-0.1,0.1-0.1,0.1c-0.1,0-0.1-0.1-0.1-0.3v-2.9c0-0.2,0-0.2,0.1-0.2
			c0,0,0,0,0.1,0c0.5,0.2,0.9,0.3,1.3,0.3c0.7,0,1.2-0.2,1.4-0.3c0,0,0.1,0,0.1,0c0.1,0,0.1,0,0.1,0.1c0,0.1-0.7,1-1.9,1
			c-0.3,0-0.6-0.1-0.8-0.1V55c0.4-0.3,0.8-0.5,1.3-0.5c1.1,0,1.9,1,1.9,2.2C165,57.9,164,58.9,162.9,58.9z"/>
	</g>
	<g>
		<path class="st1" d="M92.1,21.7c-1.1,0-1.9-0.9-1.9-1.9c0-1,0.9-1.9,1.9-1.9c1,0,1.9,0.9,1.9,1.9C94.1,20.9,93.2,21.7,92.1,21.7z"
			/>
	</g>
	<line class="st2" x1="92.1" y1="48.4" x2="92.1" y2="20.1"/>
	<g>
		<path class="st1" d="M134.7,78.4c-1.1,0-1.9-0.9-1.9-1.9c0-1,0.9-1.9,1.9-1.9c1,0,1.9,0.9,1.9,1.9
			C136.7,77.5,135.8,78.4,134.7,78.4z"/>
	</g>
	<line class="st2" x1="134.6" y1="76.8" x2="134.6" y2="48.4"/>
	<g>
		<path class="st1" d="M106.3,32.3c-1.1,0-1.9-0.9-1.9-1.9c0-1,0.9-1.9,1.9-1.9c1,0,1.9,0.9,1.9,1.9
			C108.2,31.4,107.3,32.3,106.3,32.3z"/>
	</g>
	<line class="st2" x1="106.3" y1="48.4" x2="106.3" y2="30.7"/>
	<g>
		<path class="st1" d="M120.6,67.7c-1.1,0-1.9-0.9-1.9-1.9c0-1,0.9-1.9,1.9-1.9c1,0,1.9,0.9,1.9,1.9
			C122.5,66.8,121.6,67.7,120.6,67.7z"/>
	</g>
	<line class="st2" x1="120.5" y1="66.2" x2="120.5" y2="48.4"/>
	<g>
		<path class="st1" d="M148.9,67.7c-1.1,0-1.9-0.9-1.9-1.9c0-1,0.9-1.9,1.9-1.9c1,0,1.9,0.9,1.9,1.9
			C150.8,66.8,149.9,67.7,148.9,67.7z"/>
	</g>
	<line class="st2" x1="148.8" y1="66.2" x2="148.8" y2="48.4"/>
	<g>
		<path class="st1" d="M163,32.3c-1.1,0-1.9-0.9-1.9-1.9c0-1,0.9-1.9,1.9-1.9c1,0,1.9,0.9,1.9,1.9C165,31.4,164.1,32.3,163,32.3z"/>
	</g>
	<line class="st2" x1="163" y1="48.4" x2="163" y2="30.7"/>
	<path class="st3" d="M92.1,20.1c0,0,4.9,1.9,7.1,3.5c2.8,2,5.2,4.2,7.1,7.1c3.6,5.5,4.6,11.6,7.1,17.7c2.4,6.1,3.5,12.2,7.1,17.7
		c1.9,2.9,4.3,5.1,7.1,7.1c2.2,1.6,4.4,3.5,7.1,3.5s4.9-1.9,7.1-3.5c2.8-2,5.2-4.2,7.1-7.1c3.6-5.5,4.6-11.6,7.1-17.7
		c2.4-6.1,3.5-12.2,7.1-17.7c1.9-2.9,7.1-7.1,7.1-7.1l0,0"/>
	<polyline points="250.6,157 255.1,154.7 250.6,152.5 251.7,154.7 	"/>
	<line class="st0" x1="0" y1="154.7" x2="251.7" y2="154.7"/>
	<polyline points="94.4,116.8 92.1,112.2 89.9,116.8 92.1,115.6 	"/>
	<line class="st0" x1="92.1" y1="190.2" x2="92.1" y2="115.6"/>
	<g>
		<path class="st1" d="M264.3,153.9c0.1-0.5,0.2-0.6,0.2-0.8c0-0.3-0.1-0.5-0.3-0.5c-0.4,0-0.6,0.5-0.7,1.2
			c-0.1,0.2-0.1,0.2-0.2,0.2c0,0-0.1,0-0.1-0.1c0,0,0.1-0.6,0.3-1c0.1-0.2,0.3-0.6,0.7-0.6c0.5,0,0.9,0.3,0.9,0.9
			c0.2-0.2,0.7-0.9,1.6-0.9c0.7,0,1.1,0.4,1.1,1.1c0,0.6-0.4,1.7-0.6,2.2c-0.1,0.2-0.2,0.5-0.2,0.7c0,0.2,0.1,0.3,0.2,0.3
			c0.5,0,0.8-0.6,1-1.2c0.1-0.1,0.1-0.2,0.2-0.2c0,0,0.1,0,0.1,0.1c0,0.1-0.4,1.5-1.3,1.5c-0.5,0-0.8-0.3-0.8-0.8
			c0-0.1,0-0.2,0.1-0.5c0.2-0.4,0.6-1.7,0.6-2.3c0-0.3-0.1-0.7-0.5-0.7c-0.9,0-1.5,0.9-1.6,1.2c0,0-0.1,0.3-0.1,0.5
			c0,0.2-0.1,0.4-0.2,0.7l-0.2,0.9c-0.1,0.2-0.2,0.7-0.2,0.7c-0.1,0.2-0.2,0.3-0.4,0.3c-0.1,0-0.3-0.1-0.3-0.3c0,0,0.1-0.3,0.1-0.4
			L264.3,153.9z"/>
	</g>
	<g>
		<path class="st1" d="M93.8,164c-0.4,0.9-1.2,1.2-1.7,1.2c-0.5,0-1.2-0.2-1.6-1c-0.4-0.8-0.4-1.7-0.4-2.4c0-0.8,0-1.6,0.4-2.3
			c0.4-0.9,1.1-1.2,1.7-1.2c0.4,0,1.2,0.2,1.7,1.1c0.3,0.7,0.4,1.5,0.4,2.3C94.2,162.6,94.2,163.4,93.8,164z M93.3,163.7
			c0.1-0.6,0.1-1.3,0.1-2.1c0-0.6,0-1.4-0.1-1.9c-0.2-1-0.8-1.2-1.2-1.2c-0.2,0-1,0.1-1.2,1.3c-0.1,0.5-0.1,1.2-0.1,1.8
			c0,0.6,0,1.5,0.1,2.1c0.2,1,0.8,1.2,1.2,1.2C92.6,165,93.1,164.7,93.3,163.7z"/>
		<path class="st1" d="M106.7,164.2c0,0.4,0,0.5,0.9,0.5h0.3v0.3c-0.3,0-1.2,0-1.6,0c-0.4,0-1.3,0-1.6,0v-0.3h0.3
			c0.9,0,0.9-0.1,0.9-0.5V159c-0.5,0.3-1.1,0.3-1.3,0.3V159c0.3,0,1.2,0,1.8-0.6c0.2,0,0.2,0,0.2,0.3V164.2z"/>
	</g>
	<g>
		<path class="st1" d="M92.1,128c-1.1,0-1.9-0.9-1.9-1.9c0-1,0.9-1.9,1.9-1.9c1,0,1.9,0.9,1.9,1.9S93.2,128,92.1,128z"/>
	</g>
	<line class="st2" x1="92.1" y1="154.7" x2="92.1" y2="126.4"/>
	<g>
		<path class="st1" d="M134.7,184.7c-1.1,0-1.9-0.9-1.9-1.9c0-1,0.9-1.9,1.9-1.9c1,0,1.9,0.9,1.9,1.9S135.8,184.7,134.7,184.7z"/>
	</g>
	<line class="st2" x1="134.6" y1="183.1" x2="134.6" y2="154.7"/>
	<g>
		<path class="st1" d="M106.3,138.6c-1.1,0-1.9-0.9-1.9-1.9c0-1,0.9-1.9,1.9-1.9c1,0,1.9,0.9,1.9,1.9S107.3,138.6,106.3,138.6z"/>
	</g>
	<line class="st2" x1="106.3" y1="154.7" x2="106.3" y2="137"/>
	<g>
		<path class="st1" d="M120.6,174c-1.1,0-1.9-0.9-1.9-1.9c0-1,0.9-1.9,1.9-1.9c1,0,1.9,0.9,1.9,1.9S121.6,174,120.6,174z"/>
	</g>
	<line class="st2" x1="120.5" y1="172.5" x2="120.5" y2="154.7"/>
	<g>
		<path class="st1" d="M148.9,174c-1.1,0-1.9-0.9-1.9-1.9c0-1,0.9-1.9,1.9-1.9c1,0,1.9,0.9,1.9,1.9S149.9,174,148.9,174z"/>
	</g>
	<line class="st2" x1="148.8" y1="172.5" x2="148.8" y2="154.7"/>
	<g>
		<path class="st1" d="M163,138.6c-1.1,0-1.9-0.9-1.9-1.9c0-1,0.9-1.9,1.9-1.9c1,0,1.9,0.9,1.9,1.9S164.1,138.6,163,138.6z"/>
	</g>
	<line class="st2" x1="163" y1="154.7" x2="163" y2="137"/>
	<path class="st3" d="M92.1,126.4c0,0,4.9,1.9,7.1,3.5c2.8,2,5.2,4.2,7.1,7.1c3.6,5.5,4.6,11.6,7.1,17.7c2.4,6.1,3.5,12.2,7.1,17.7
		c1.9,2.9,4.3,5.1,7.1,7.1c2.2,1.6,4.4,3.5,7.1,3.5s4.9-1.9,7.1-3.5c2.8-2,5.2-4.2,7.1-7.1c3.6-5.5,4.6-11.6,7.1-17.7
		c2.4-6.1,3.5-12.2,7.1-17.7c1.9-2.9,7.1-7.1,7.1-7.1l0,0"/>
	<g>
		<path class="st1" d="M177.2,128c-1.1,0-1.9-0.9-1.9-1.9c0-1,0.9-1.9,1.9-1.9c1,0,1.9,0.9,1.9,1.9S178.3,128,177.2,128z"/>
	</g>
	<line class="st4" x1="177.2" y1="154.7" x2="177.2" y2="126.4"/>
	<g>
		<path class="st1" d="M219.7,184.7c-1.1,0-1.9-0.9-1.9-1.9c0-1,0.9-1.9,1.9-1.9c1,0,1.9,0.9,1.9,1.9S220.7,184.7,219.7,184.7z"/>
	</g>
	<line class="st4" x1="219.7" y1="183.1" x2="219.7" y2="154.7"/>
	<g>
		<path class="st1" d="M191.4,138.6c-1.1,0-1.9-0.9-1.9-1.9c0-1,0.9-1.9,1.9-1.9c1,0,1.9,0.9,1.9,1.9S192.4,138.6,191.4,138.6z"/>
	</g>
	<line class="st4" x1="191.3" y1="154.7" x2="191.3" y2="137"/>
	<g>
		<path class="st1" d="M205.5,174c-1.1,0-1.9-0.9-1.9-1.9c0-1,0.9-1.9,1.9-1.9c1,0,1.9,0.9,1.9,1.9S206.6,174,205.5,174z"/>
	</g>
	<line class="st4" x1="205.5" y1="172.5" x2="205.5" y2="154.7"/>
	<g>
		<path class="st1" d="M233.8,174c-1.1,0-1.9-0.9-1.9-1.9c0-1,0.9-1.9,1.9-1.9c1,0,1.9,0.9,1.9,1.9S234.9,174,233.8,174z"/>
	</g>
	<line class="st4" x1="233.9" y1="172.5" x2="233.9" y2="154.7"/>
	<g>
		<path class="st1" d="M248,138.6c-1.1,0-1.9-0.9-1.9-1.9c0-1,0.9-1.9,1.9-1.9c1,0,1.9,0.9,1.9,1.9S249.1,138.6,248,138.6z"/>
	</g>
	<line class="st4" x1="248" y1="154.7" x2="248" y2="137"/>
	<path class="st5" d="M177.2,126.4c0,0,4.9,1.9,7.1,3.5c2.8,2,5.2,4.2,7.1,7.1c3.6,5.5,4.6,11.6,7.1,17.7c2.4,6.1,3.5,12.2,7.1,17.7
		c1.9,2.9,4.3,5.1,7.1,7.1c2.2,1.6,4.4,3.5,7.1,3.5c2.7,0,4.9-1.9,7.1-3.5c2.8-2,5.2-4.2,7.1-7.1c3.6-5.5,4.6-11.6,7.1-17.7
		c2.4-6.1,3.5-12.2,7.1-17.7c1.9-2.9,7.1-7.1,7.1-7.1l0,0"/>
	<g>
		<path class="st1" d="M7.2,128c-1.1,0-1.9-0.9-1.9-1.9c0-1,0.9-1.9,1.9-1.9c1,0,1.9,0.9,1.9,1.9S8.2,128,7.2,128z"/>
	</g>
	<line class="st6" x1="7.1" y1="154.7" x2="7.1" y2="126.4"/>
	<g>
		<path class="st1" d="M49.6,184.7c-1.1,0-1.9-0.9-1.9-1.9c0-1,0.9-1.9,1.9-1.9c1,0,1.9,0.9,1.9,1.9S50.7,184.7,49.6,184.7z"/>
	</g>
	<line class="st6" x1="49.6" y1="183.1" x2="49.6" y2="154.7"/>
	<g>
		<path class="st1" d="M21.3,138.6c-1.1,0-1.9-0.9-1.9-1.9c0-1,0.9-1.9,1.9-1.9c1,0,1.9,0.9,1.9,1.9S22.4,138.6,21.3,138.6z"/>
	</g>
	<line class="st6" x1="21.3" y1="154.7" x2="21.3" y2="137"/>
	<g>
		<path class="st1" d="M35.5,174c-1.1,0-1.9-0.9-1.9-1.9c0-1,0.9-1.9,1.9-1.9c1,0,1.9,0.9,1.9,1.9S36.5,174,35.5,174z"/>
	</g>
	<line class="st6" x1="35.4" y1="172.5" x2="35.4" y2="154.7"/>
	<g>
		<path class="st1" d="M63.8,174c-1.1,0-1.9-0.9-1.9-1.9c0-1,0.9-1.9,1.9-1.9c1,0,1.9,0.9,1.9,1.9S64.8,174,63.8,174z"/>
	</g>
	<line class="st6" x1="63.8" y1="172.5" x2="63.8" y2="154.7"/>
	<g>
		<path class="st1" d="M78,138.6c-1.1,0-1.9-0.9-1.9-1.9c0-1,0.9-1.9,1.9-1.9c1,0,1.9,0.9,1.9,1.9S79,138.6,78,138.6z"/>
	</g>
	<line class="st6" x1="78" y1="154.7" x2="78" y2="137"/>
	<path class="st7" d="M7.1,126.4c0,0,4.9,1.9,7.1,3.5c2.8,2,5.2,4.2,7.1,7.1c3.6,5.5,4.6,11.6,7.1,17.7c2.4,6.1,3.5,12.2,7.1,17.7
		c1.9,2.9,4.3,5.1,7.1,7.1c2.2,1.6,4.4,3.5,7.1,3.5c2.7,0,4.9-1.9,7.1-3.5c2.8-2,5.2-4.2,7.1-7.1c3.6-5.5,4.6-11.6,7.1-17.7
		c2.4-6.1,3.5-12.2,7.1-17.7c1.9-2.9,7.1-7.1,7.1-7.1l0,0"/>
	<g>
		<path class="st1" d="M130.2,93.5c0,0.4,0,0.5,0.8,0.5h0.2v0.3c-0.3,0-1.1,0-1.5,0c-0.4,0-1.1,0-1.5,0V94h0.2
			c0.8,0,0.8-0.1,0.8-0.5v-5.3c0-0.4,0-0.5-0.8-0.5h-0.2v-0.3h3.5c1.4,0,2.4,0.9,2.4,1.9c0,1-1.1,1.8-2.3,1.8h-1.7V93.5z
			 M131.5,90.9c1.6,0,1.6-1.1,1.6-1.5c0-0.5,0-1.5-1.6-1.5h-0.9c-0.5,0-0.5,0.1-0.5,0.4v2.7H131.5z"/>
		<path class="st1" d="M136.1,88.3c0-0.4,0-0.5-0.8-0.5h-0.2v-0.3h5.6l0.3,2.2h-0.2c-0.2-1.4-0.4-1.9-2-1.9h-1.3
			c-0.5,0-0.5,0.1-0.5,0.4v2.4h0.9c1,0,1.1-0.3,1.1-1.2h0.2v2.6H139c0-0.8-0.1-1.2-1.1-1.2H137v2.7c0,0.3,0,0.4,0.5,0.4h1.3
			c1.7,0,1.9-0.7,2.2-2.3h0.2l-0.4,2.6h-5.7V94h0.2c0.8,0,0.8-0.1,0.8-0.5V88.3z"/>
	</g>
	<g>
		<path class="st1" d="M135.8,103.3c0.3-0.3,0.5-0.4,0.7-0.6c0.3-0.2,0.7-0.4,0.8-0.4c0.1,0,0.1,0.1,0.1,0.2c0,0.1,0,0.2-0.1,0.2
			c-1.4,0.7-2.2,1.8-2.5,3.1c0,0,0,0.1-0.1,0.1c0,0-0.1,0-0.1-0.1c-0.3-1.1-1-2.3-2.5-3.1c-0.1-0.1-0.1-0.1-0.1-0.2
			c0-0.1,0-0.2,0.1-0.2c0.1,0,0.4,0.2,0.8,0.4c0.2,0.1,0.3,0.2,0.7,0.6v-5.9c0-0.2,0-0.4,0.2-0.4c0.2,0,0.2,0.2,0.2,0.4v6.3
			c0.4,0.4,0.6,1,0.8,1.3c0.1-0.2,0.4-0.8,0.8-1.3v-6.3c0-0.2,0-0.4,0.2-0.4s0.2,0.2,0.2,0.4V103.3z"/>
	</g>
	<g>
		<path class="st1" d="M103.2,114.5c0,0.2,0,0.2-0.2,0.2c-0.1,0-0.1,0-0.2-0.2l-2.5-5.9c0-0.1,0-0.1-0.1-0.2l-1.3,5.3
			c0,0.1,0,0.2,0,0.2c0,0.2,0.1,0.4,0.7,0.4c0.1,0,0.2,0,0.2,0.1c0,0.2-0.1,0.2-0.2,0.2c-0.3,0-0.7,0-1,0c-0.3,0-0.7,0-1,0
			c-0.1,0-0.1,0-0.1-0.1c0-0.2,0.1-0.2,0.2-0.2c0.8,0,1-0.3,1.1-0.7l1.3-5.4c0-0.1-0.6-0.1-0.7-0.1c-0.2,0-0.3,0-0.3-0.1
			c0-0.2,0.1-0.2,0.3-0.2h1.3c0.2,0,0.2,0,0.3,0.2l2.2,5.2l1.1-4.4c0,0,0-0.2,0-0.2c0-0.2-0.1-0.4-0.7-0.4c-0.1,0-0.2,0-0.2-0.1
			c0-0.2,0.1-0.2,0.2-0.2c0.3,0,0.7,0,1,0c0.3,0,0.7,0,1,0c0.1,0,0.1,0.1,0.1,0.1c0,0.2-0.1,0.2-0.2,0.2c-0.8,0-1,0.3-1.1,0.7
			L103.2,114.5z"/>
	</g>
	<g>
		<path class="st1" d="M109.8,111.5c-0.1,0-0.3,0-0.3-0.2c0-0.2,0.2-0.2,0.3-0.2h6c0.1,0,0.3,0,0.3,0.2c0,0.2-0.2,0.2-0.3,0.2H109.8
			z M109.8,113.4c-0.1,0-0.3,0-0.3-0.2s0.2-0.2,0.3-0.2h5.9c0.1,0,0.3,0,0.3,0.2s-0.2,0.2-0.3,0.2H109.8z"/>
		<path class="st1" d="M122,110.5c1.1,0,2,1,2,2.2c0,1.3-0.9,2.3-2.1,2.3c-0.9,0-2.1-0.7-2.1-3.4c0-2.2,1.3-3.5,2.6-3.5
			c0.8,0,1.3,0.5,1.3,1.1c0,0.4-0.3,0.5-0.5,0.5c-0.2,0-0.5-0.1-0.5-0.5c0-0.4,0.4-0.4,0.5-0.4c-0.2-0.3-0.6-0.4-0.9-0.4
			c-0.5,0-1.7,0.4-1.7,2.9v0.2C120.9,111,121.3,110.5,122,110.5z M122.9,114c0.2-0.4,0.2-0.9,0.2-1.3c0-0.5,0-1-0.2-1.4
			c-0.3-0.6-0.8-0.6-0.9-0.6c-0.9,0-1.2,1-1.2,1.8c0,0.2,0,1,0.2,1.4c0.1,0.1,0.4,0.7,1,0.7C122.1,114.7,122.6,114.6,122.9,114z"/>
	</g>
	<g>
		<path class="st1" d="M130.9,117.2c-0.1,0-1-0.6-1.6-1.9c-0.5-1.1-0.7-2.3-0.7-3.1c0-0.8,0.1-1.9,0.6-3c0.6-1.3,1.5-1.9,1.6-1.9
			c0.1,0,0.1,0,0.1,0.1c0,0,0,0-0.1,0.2c-1.2,1.2-1.6,3-1.6,4.7c0,1.5,0.3,3.4,1.6,4.7C131,117.1,131,117.1,130.9,117.2
			C131,117.2,130.9,117.2,130.9,117.2z"/>
		<path class="st1" d="M134,114.8c-1.2,0-2.2-1-2.2-2.2c0-1.2,1-2.3,2.2-2.3c1.2,0,2.2,1.1,2.2,2.3
			C136.2,113.8,135.2,114.8,134,114.8z M135.2,113.8c0.2-0.4,0.2-1,0.2-1.3c0-0.4,0-1-0.3-1.4c-0.3-0.4-0.7-0.6-1.1-0.6
			c-0.4,0-0.9,0.2-1.1,0.7c-0.2,0.4-0.2,1-0.2,1.4c0,0.4,0,1,0.2,1.4c0.3,0.5,0.7,0.7,1.1,0.7C134.5,114.6,134.9,114.3,135.2,113.8z
			"/>
	</g>
	<g>
		<path class="st1" d="M139.4,110.3c0.4,0,0.7,0.3,0.7,0.6c0,0.3-0.2,0.4-0.4,0.4c-0.2,0-0.4-0.2-0.4-0.4c0-0.3,0.2-0.4,0.2-0.4
			c0,0,0,0-0.1,0c-0.8,0-1.2,0.9-1.2,1.9v1.5c0,0.4,0,0.5,0.8,0.5h0.2v0.3c-0.4,0-0.9,0-1.3,0c-0.3,0-0.7,0-1.1,0v-0.3
			c0.7,0,0.8,0,0.8-0.4v-2.7c0-0.5-0.1-0.6-0.8-0.6v-0.3l1.4-0.1v1.1C138.3,111,138.7,110.3,139.4,110.3z"/>
		<path class="st1" d="M146.3,110.5c1.1,0,2,1,2,2.2c0,1.3-0.9,2.3-2.1,2.3c-0.9,0-2.1-0.7-2.1-3.4c0-2.2,1.3-3.5,2.6-3.5
			c0.8,0,1.3,0.5,1.3,1.1c0,0.4-0.3,0.5-0.5,0.5c-0.2,0-0.5-0.1-0.5-0.5c0-0.4,0.4-0.4,0.5-0.4c-0.2-0.3-0.6-0.4-0.9-0.4
			c-0.5,0-1.7,0.4-1.7,2.9v0.2C145.3,111,145.6,110.5,146.3,110.5z M147.2,114c0.2-0.4,0.2-0.9,0.2-1.3c0-0.5,0-1-0.2-1.4
			c-0.3-0.6-0.8-0.6-0.9-0.6c-0.9,0-1.2,1-1.2,1.8c0,0.2,0,1,0.2,1.4c0.1,0.1,0.4,0.7,1,0.7C146.5,114.7,146.9,114.6,147.2,114z"/>
	</g>
	<g>
		<path class="st1" d="M148.9,112.8v-0.6h2.6v0.6H148.9z"/>
		<path class="st1" d="M155,110.4v0.3h-1.1v3.2c0,0.4,0,0.5,0.8,0.5h0.2v0.3c-0.4,0-0.9,0-1.3,0c-0.3,0-0.7,0-1.1,0v-0.3
			c0.7,0,0.8,0,0.8-0.4v-3.2h-0.8v-0.3h0.8v-1.1c0-1.1,0.8-1.6,1.5-1.6c0.5,0,0.9,0.3,0.9,0.7c0,0.2-0.2,0.4-0.4,0.4
			c-0.3,0-0.4-0.2-0.4-0.4c0-0.2,0.2-0.4,0.3-0.4c-0.1-0.1-0.3-0.1-0.3-0.1c-0.4,0-0.9,0.5-0.9,1.4v1.2H155z"/>
		<path class="st1" d="M157.7,114.8c-1.2,0-2.2-1-2.2-2.2c0-1.2,1-2.3,2.2-2.3c1.2,0,2.2,1.1,2.2,2.3
			C159.9,113.8,158.9,114.8,157.7,114.8z M158.8,113.8c0.2-0.4,0.2-1,0.2-1.3c0-0.4,0-1-0.3-1.4c-0.3-0.4-0.7-0.6-1.1-0.6
			c-0.4,0-0.9,0.2-1.1,0.7c-0.2,0.4-0.2,1-0.2,1.4c0,0.4,0,1,0.2,1.4c0.3,0.5,0.7,0.7,1.1,0.7C158.2,114.6,158.6,114.3,158.8,113.8z
			"/>
		<path class="st1" d="M162,114c0,0.4,0.1,0.4,0.8,0.4v0.3c-0.4,0-0.9,0-1.1,0s-0.8,0-1.1,0v-0.3c0.7,0,0.8,0,0.8-0.4v-5.2
			c0-0.5-0.1-0.6-0.8-0.6v-0.3l1.4-0.1V114z"/>
		<path class="st1" d="M165.5,114.8c-1.1,0-2.1-1-2.1-2.3c0-1.3,1-2.3,2.2-2.3c0.5,0,1,0.3,1.3,0.6v-2.2c0-0.5-0.1-0.6-0.8-0.6v-0.3
			l1.4-0.1v6c0,0.5,0.1,0.6,0.8,0.6v0.3l-1.5,0.1v-0.7C166.5,114.5,166.1,114.8,165.5,114.8z M166.7,111.1c-0.3-0.4-0.7-0.6-1.1-0.6
			c-0.5,0-0.9,0.3-1.1,0.6c-0.3,0.4-0.3,1-0.3,1.4c0,0.4,0,1,0.3,1.4c0.2,0.4,0.6,0.6,1,0.6c0.4,0,0.9-0.2,1.2-0.7
			c0.1-0.2,0.1-0.2,0.1-0.4v-2C166.8,111.3,166.8,111.3,166.7,111.1z"/>
		<path class="st1" d="M170.8,115.3c-0.6,1.3-1.5,1.9-1.6,1.9c-0.1,0-0.1,0-0.1-0.1c0,0,0,0,0.1-0.2c1.2-1.3,1.6-3,1.6-4.7
			c0-2.1-0.6-3.7-1.5-4.7c-0.2-0.2-0.2-0.2-0.2-0.2c0-0.1,0-0.1,0.1-0.1c0.1,0,1,0.6,1.6,1.9c0.5,1.1,0.7,2.3,0.7,3.1
			C171.4,113.1,171.3,114.2,170.8,115.3z"/>
	</g>
</g>
</svg>
