<?xml version="1.0" encoding="utf-8"?>
<!-- Generator: Adobe Illustrator 22.1.0, SVG Export Plug-In . SVG Version: 6.00 Build 0)  -->
<svg version="1.1" id="Layer_1" xmlns="http://www.w3.org/2000/svg" xmlns:xlink="http://www.w3.org/1999/xlink" x="0px" y="0px"
	 viewBox="0 0 440.9 145.2" style="enable-background:new 0 0 440.9 145.2;" xml:space="preserve">
<style type="text/css">
	.st0{fill:none;stroke:#000000;stroke-width:0.8504;stroke-miterlimit:10;}
	.st1{fill:#1D1D1B;}
	.st2{fill:#00FF00;}
	.st3{fill:none;stroke:#000000;stroke-width:2.2677;stroke-miterlimit:10;}
	.st4{fill:none;stroke:#FF0000;stroke-width:2.2677;stroke-linecap:round;stroke-miterlimit:10;stroke-dasharray:0,5.0547;}
	.st5{fill:#FF0000;}
	.st6{fill:none;stroke:#000000;stroke-width:0.8504;stroke-linecap:round;stroke-miterlimit:10;stroke-dasharray:0,3.3732;}
	.st7{fill:none;stroke:#000000;stroke-width:0.8504;stroke-linecap:round;stroke-miterlimit:10;stroke-dasharray:0,3.5527;}
	.st8{fill:none;stroke:#000000;stroke-width:2.2677;stroke-linecap:round;stroke-miterlimit:10;stroke-dasharray:0,5.2006;}
	.st9{fill:none;stroke:#FC0000;stroke-width:2.2677;stroke-miterlimit:10;}
	.st10{fill:#FF0000;stroke:#FF0000;stroke-width:0.8504;stroke-miterlimit:10;}
</style>
<g>
	<polyline points="208.1,92.5 212.6,90.2 208.1,87.9 209.2,90.2 	"/>
	<line class="st0" x1="0" y1="90.2" x2="209.2" y2="90.2"/>
	<polyline points="9.4,12.7 7.1,8.1 4.8,12.7 7.1,11.5 	"/>
	<line class="st0" x1="7.1" y1="98.4" x2="7.1" y2="11.5"/>
	<polyline points="433.1,92.5 437.6,90.2 433.1,87.9 434.2,90.2 	"/>
	<line class="st0" x1="233.9" y1="90.2" x2="434.2" y2="90.2"/>
	<polyline points="335.3,12.7 333.1,8.1 330.8,12.7 333.1,11.5 	"/>
	<line class="st0" x1="333.1" y1="97.4" x2="333.1" y2="11.5"/>
	<g>
		<path class="st1" d="M17.2,9C17.1,9.5,17,9.7,17,9.9c0,0.3,0.2,0.7,0.5,0.7c0.3,0,1-0.2,1.3-1.3c0-0.1,0-0.1,0.1-0.1
			c0,0,0.1,0,0.1,0.1c0,0.2-0.6,1.5-1.6,1.5c-0.6,0-1-0.4-1.1-0.8c0,0.1-0.4,0.8-1,0.8c-0.4,0-0.9-0.2-0.9-0.7
			c0-0.3,0.2-0.6,0.5-0.6c0.1,0,0.4,0.1,0.4,0.3c0,0.3-0.2,0.5-0.5,0.5c0.2,0.1,0.4,0.1,0.5,0.1c0.4,0,0.8-0.4,0.9-1
			c0.4-1.4,0.5-2.1,0.5-2.4c0-0.6-0.3-0.7-0.5-0.7c-0.3,0-1,0.2-1.3,1.3c0,0.1-0.1,0.1-0.1,0.1c0,0-0.1,0-0.1-0.1
			c0-0.2,0.6-1.5,1.6-1.5c0.3,0,0.8,0.1,1.1,0.8c0.1-0.2,0.5-0.8,1-0.8c0.3,0,0.9,0.1,0.9,0.7c0,0.4-0.3,0.6-0.5,0.6
			c-0.3,0-0.4-0.2-0.4-0.3c0-0.2,0.2-0.5,0.5-0.5c-0.2-0.1-0.4-0.1-0.5-0.1c-0.7,0-0.9,0.9-1,1.2L17.2,9z"/>
	</g>
	<g>
		<path class="st1" d="M21,13.1v-10h1.4v0.4h-1v9.2h1v0.4H21z"/>
	</g>
	<g>
		<path class="st1" d="M24,7.8c0.1-0.5,0.2-0.6,0.2-0.8c0-0.3-0.1-0.5-0.3-0.5c-0.4,0-0.6,0.5-0.7,1.2c-0.1,0.2-0.1,0.2-0.2,0.2
			c0,0-0.1,0-0.1-0.1c0,0,0.1-0.6,0.3-1c0.1-0.2,0.3-0.6,0.7-0.6c0.5,0,0.9,0.3,0.9,0.9c0.2-0.2,0.7-0.9,1.6-0.9
			c0.7,0,1.1,0.4,1.1,1.1c0,0.6-0.4,1.7-0.6,2.2c-0.1,0.2-0.2,0.5-0.2,0.7c0,0.2,0.1,0.3,0.2,0.3c0.5,0,0.8-0.6,1-1.2
			c0-0.1,0-0.2,0.1-0.2c0,0,0.1,0,0.1,0.1c0,0.1-0.4,1.5-1.3,1.5c-0.5,0-0.8-0.3-0.8-0.8c0-0.1,0-0.2,0.1-0.5
			c0.2-0.4,0.6-1.7,0.6-2.3c0-0.3-0.1-0.7-0.5-0.7c-0.9,0-1.5,0.9-1.6,1.2c0,0-0.1,0.3-0.1,0.5c0,0.2-0.1,0.4-0.2,0.7l-0.2,0.9
			C24.1,10,24,10.5,24,10.5c-0.1,0.2-0.2,0.3-0.4,0.3c-0.1,0-0.3-0.1-0.3-0.3c0-0.1,0.1-0.3,0.1-0.4L24,7.8z"/>
	</g>
	<g>
		<path class="st1" d="M30.1,13.1h-1.4v-0.4h1V3.6h-1V3.2h1.4V13.1z"/>
	</g>
	<g>
		<path class="st1" d="M346.7,6.2c0.1-0.1,0.2-0.2,0.2-0.4c0-0.3-0.3-0.3-0.4-0.3c-0.1,0-0.1,0-0.1-0.1c0-0.2,0.1-0.2,0.2-0.2
			c0.4,0,0.7,0,1.1,0c0.3,0,0.6,0,0.9,0c0.1,0,0.1,0.1,0.1,0.1c0,0.2-0.1,0.2-0.2,0.2c-0.6,0-1,0.3-1.3,0.5c-0.3,0.3-1.4,1.5-2,2.2
			c0.2,0.6,0.9,2.2,1.3,3.1c0.2,0.4,0.2,0.4,0.9,0.4c0.1,0,0.2,0,0.2,0.1c0,0.2-0.1,0.2-0.2,0.2c-0.2,0-0.9,0-1.1,0
			c-0.3,0-1,0-1.3,0c0,0-0.1,0-0.1-0.1c0-0.2,0.1-0.2,0.2-0.2c0.4,0,0.6-0.2,0.6-0.3c0,0,0,0,0-0.1l-1-2.4l-0.9,1l-1,1.1
			c-0.1,0.1-0.3,0.3-0.3,0.4c0,0.3,0.3,0.3,0.4,0.3c0,0,0.1,0,0.1,0.1c0,0.2-0.1,0.2-0.2,0.2c-0.4,0-0.7,0-1.1,0c-0.3,0-0.6,0-0.9,0
			c-0.1,0-0.1-0.1-0.1-0.1c0-0.2,0.1-0.2,0.2-0.2c0.5,0,1-0.2,1.5-0.7l0.1-0.1l2.1-2.3l-1.2-2.8c-0.1-0.2-0.1-0.3-0.7-0.3
			c-0.1,0-0.2,0-0.2-0.1c0-0.2,0.1-0.2,0.2-0.2c0.2,0,0.9,0,1.1,0c0.4,0,0.8,0,1.3,0c0,0,0.1,0,0.1,0.1c0,0.2-0.1,0.2-0.2,0.2
			c-0.4,0-0.6,0.2-0.6,0.3c0,0,0,0,0,0.1l0.8,2L346.7,6.2z"/>
	</g>
	<g>
		<path class="st1" d="M352.5,14.5c-0.1,0-1-0.6-1.6-1.9c-0.5-1.1-0.7-2.3-0.7-3.1c0-0.8,0.1-1.9,0.6-3c0.6-1.3,1.5-1.9,1.6-1.9
			c0.1,0,0.1,0,0.1,0.1c0,0,0,0-0.1,0.2c-1.2,1.2-1.6,3-1.6,4.7c0,1.5,0.3,3.4,1.6,4.7C352.6,14.3,352.6,14.3,352.5,14.5
			C352.6,14.4,352.6,14.5,352.5,14.5z"/>
		<path class="st1" d="M354.6,11.2c0.2,0.4,0.6,0.7,1.1,0.7c0.1,0,1,0,1.3-1c0-0.1,0-0.1,0.1-0.1c0,0,0.1,0,0.1,0.1
			c0,0.2-0.4,1.3-1.7,1.3c-1.1,0-2.2-1-2.2-2.3c0-1.2,0.9-2.3,2.1-2.3c1.2,0,1.8,1,1.8,2c0,0.2,0,0.2-0.2,0.2h-2.8
			C354.3,10,354.3,10.7,354.6,11.2z M356.6,9.5c0-0.4-0.1-1.7-1.1-1.7c-0.3,0-1.2,0.2-1.2,1.7H356.6z"/>
	</g>
	<g>
		<path class="st1" d="M359.6,8.9c0,0.9-0.6,1.5-1.4,1.5c-0.6,0-1.1-0.3-1.1-0.8c0-0.3,0.2-0.5,0.5-0.5c0.3,0,0.5,0.2,0.5,0.5
			c0,0.3-0.2,0.4-0.3,0.4c0.3,0.1,0.5,0.1,0.5,0.1c0.6,0,0.7-0.9,0.7-1.3V5c0-0.5-0.1-0.6-0.9-0.6V4.1l1.5-0.1V8.9z M359.1,2.8
			c-0.3,0-0.5-0.2-0.5-0.5s0.2-0.5,0.5-0.5s0.5,0.2,0.5,0.5S359.3,2.8,359.1,2.8z"/>
	</g>
	<g>
		<path class="st2" d="M362,8.5c-0.6,0-1-0.7-1-1.5c0-1.6,1.1-3.5,2.2-3.5c0.7,0,1,0.8,1,1.5C364.2,6.5,363.1,8.5,362,8.5z
			 M361.8,6.1c-0.1,0.3-0.2,0.8-0.2,1.3c0,0.4,0.1,0.9,0.4,0.9c0.3,0,0.6-0.3,0.8-0.7c0.2-0.3,0.4-0.7,0.6-1.5H361.8z M363.4,5.8
			c0.1-0.6,0.2-1,0.2-1.3c0-0.1,0-0.9-0.4-0.9c-0.4,0-1,0.7-1.4,2.2H363.4z"/>
	</g>
	<g>
		<path class="st1" d="M367.3,12.5c-0.6,1.3-1.5,1.9-1.6,1.9c-0.1,0-0.1,0-0.1-0.1c0,0,0-0.1,0.1-0.2c1.2-1.3,1.6-3,1.6-4.7
			c0-2.1-0.6-3.7-1.5-4.7c-0.2-0.2-0.2-0.2-0.2-0.2c0-0.1,0-0.1,0.1-0.1c0.1,0,1,0.6,1.6,1.9c0.5,1.1,0.7,2.3,0.7,3.1
			C367.9,10.3,367.8,11.4,367.3,12.5z"/>
	</g>
	<g>
		<path class="st1" d="M207.5,101.7c0.1-0.5,0.2-0.6,0.2-0.8c0-0.3-0.1-0.5-0.3-0.5c-0.4,0-0.6,0.5-0.7,1.2
			c-0.1,0.2-0.1,0.2-0.2,0.2c0,0-0.1,0-0.1-0.1c0,0,0.1-0.6,0.3-1c0.1-0.2,0.3-0.6,0.7-0.6c0.5,0,0.9,0.3,0.9,0.9
			c0.2-0.2,0.7-0.9,1.6-0.9c0.7,0,1.1,0.4,1.1,1.1c0,0.6-0.4,1.7-0.6,2.2c-0.1,0.2-0.2,0.5-0.2,0.7c0,0.2,0.1,0.3,0.2,0.3
			c0.5,0,0.8-0.6,1-1.2c0-0.1,0-0.2,0.1-0.2c0,0,0.1,0,0.1,0.1c0,0.1-0.4,1.5-1.3,1.5c-0.5,0-0.8-0.3-0.8-0.8c0-0.1,0-0.2,0.1-0.5
			c0.2-0.4,0.6-1.7,0.6-2.3c0-0.3-0.1-0.7-0.5-0.7c-0.9,0-1.5,0.9-1.6,1.2c0,0-0.1,0.3-0.1,0.5c0,0.2-0.1,0.4-0.2,0.7l-0.2,0.9
			c-0.1,0.2-0.2,0.7-0.2,0.7c-0.1,0.2-0.2,0.3-0.4,0.3c-0.1,0-0.3-0.1-0.3-0.3c0,0,0.1-0.3,0.1-0.4L207.5,101.7z"/>
	</g>
	<g>
		<path class="st2" d="M425.3,105.1c-0.9,0-1.2-1.1-1.2-2c0-2.3,1.5-5.1,2.9-5.1c1,0,1.2,1.4,1.2,2
			C428.3,102.2,426.8,105.1,425.3,105.1z M425.1,101.7c-0.3,1-0.3,1.6-0.3,2c0,0.9,0.2,1.2,0.5,1.2c0.4,0,0.8-0.5,1.2-1.2
			c0.4-0.7,0.6-1.6,0.7-2H425.1z M427.3,101.4c0.2-1,0.3-1.5,0.3-2c0-0.6-0.1-1.2-0.5-1.2c-0.4,0-0.8,0.6-1.1,1
			c-0.4,0.7-0.6,1.5-0.8,2.1H427.3z"/>
	</g>
	<g>
		<path class="st1" d="M433.2,107.5v-10h1.4v0.4h-1v9.2h1v0.4H433.2z"/>
		<path class="st1" d="M434.9,103.1v-0.6h2.6v0.6H434.9z"/>
	</g>
	<g>
		<path class="st1" d="M439.7,107.5h-1.4v-0.4h1v-9.2h-1v-0.4h1.4V107.5z"/>
	</g>
	<path class="st3" d="M311.8,90.2c0,0,4.4-49.2,21.3-49.2s21.3,49.2,21.3,49.2l0,0"/>
	<path class="st4" d="M382.7,90.2c0,0,4.4-49.2,21.3-49.2c16.9,0,21.3,49.2,21.3,49.2l0,0"/>
	<path class="st4" d="M240.9,90.2c0,0,4.4-49.2,21.3-49.2c16.9,0,21.3,49.2,21.3,49.2l0,0"/>
	<path class="st0" d="M297.6,86.1v8.2 M368.5,86.1v8.2"/>
	<g>
		<path class="st1" d="M341.9,104c0.2,0,0.9,0,0.9-0.1c0.1-0.1,0.2-0.6,0.2-0.9h0.2l-0.3,1.7h-3.7c0-0.2,0-0.3,0.1-0.4l1.9-2.1
			c0.5-0.6,1-1.4,1-2.2c0-0.8-0.4-1.6-1.3-1.6c-0.6,0-1.1,0.4-1.3,1c0,0,0,0,0.1,0c0.3,0,0.5,0.3,0.5,0.5c0,0.4-0.3,0.5-0.5,0.5
			c0,0-0.5,0-0.5-0.6c0-0.9,0.7-1.8,1.9-1.8c1.2,0,2.1,0.8,2.1,1.9c0,1-0.6,1.5-2.2,2.9l-1.1,1H341.9z"/>
	</g>
	<g>
		<path class="st1" d="M346,103.2c-0.1,0.5-0.1,0.5-0.3,1c-0.1,0.4-0.2,0.6-0.5,0.6c-0.1,0-0.3-0.1-0.3-0.3c0-0.1,0-0.1,0.1-0.2
			c0.4-0.9,1-2.1,1.3-3.3h-0.6c-0.2,0-0.8,0-1.3,0.8c-0.1,0.1-0.1,0.1-0.2,0.1c-0.1,0-0.1-0.1-0.1-0.1c0,0,0.3-0.5,0.6-0.9
			c0.4-0.5,0.8-0.5,1-0.5h3.3c0.2,0,0.4,0,0.4,0.2c0,0.3-0.4,0.3-0.5,0.3h-1.1c-0.1,0.5-0.2,1.1-0.2,1.6c0,0.3,0,0.9,0.3,1.6
			c0.1,0.1,0.1,0.2,0.1,0.2c0,0.2-0.2,0.4-0.4,0.4c-0.1,0-0.3-0.1-0.4-0.5c-0.1-0.3-0.1-0.6-0.1-0.8c0-0.7,0.1-1.1,0.4-2.6h-1.1
			L346,103.2z"/>
	</g>
	<g>
		<path class="st1" d="M353.6,99.7c0,0.1-0.2,0.9-0.4,1.4c-0.1,0.2-0.4,0.6-0.8,0.6c-0.3,0-0.7-0.2-0.7-0.5c0-0.3,0.2-0.4,0.4-0.4
			c0.2,0,0.3,0.1,0.3,0.3c0,0,0,0.3-0.3,0.4c0.1,0.1,0.3,0.1,0.3,0.1c0.3,0,0.5-0.5,0.5-0.7c0.2-0.7,0.6-3.3,0.6-3.3h-0.5
			c-0.1,0-0.2,0-0.2-0.1c0-0.2,0.1-0.2,0.2-0.2h0.6c0.1-0.8,0.2-1.1,0.3-1.4c0.2-0.3,0.5-0.5,0.8-0.5c0.4,0,0.7,0.2,0.7,0.5
			c0,0.3-0.2,0.4-0.4,0.4c-0.2,0-0.3-0.1-0.3-0.3c0,0,0-0.3,0.3-0.4c-0.1-0.1-0.3-0.1-0.3-0.1c-0.2,0-0.3,0.1-0.4,0.3
			c-0.1,0.2-0.1,0.5-0.3,1.4h0.6c0.1,0,0.2,0,0.2,0.1c0,0.2-0.1,0.2-0.2,0.2H354L353.6,99.7z"/>
	</g>
	<g>
		<path class="st1" d="M357.8,100.1c0-0.2,0.1-0.4,0.1-0.5c0-0.2-0.1-0.4-0.3-0.4c-0.3,0-0.5,0.2-0.6,0.3c-0.2,0.2-0.4,0.6-0.4,0.6
			c0,0.1-0.1,0.2-0.1,0.3c0,0-0.1,0.3-0.1,0.3c0,0.1-0.1,0.4-0.1,0.4c-0.1,0.1-0.2,0.2-0.2,0.2c-0.1,0-0.2-0.1-0.2-0.2
			c0,0,0.1-0.2,0.1-0.4l0.1-0.4c0-0.1,0.1-0.3,0.1-0.4c0-0.1,0.1-0.3,0.1-0.4c0-0.1,0-0.3-0.2-0.3c-0.2,0-0.3,0.3-0.4,0.6
			c0,0.1,0,0.1-0.1,0.1c0,0-0.1,0-0.1-0.1c0,0,0.1-0.8,0.6-0.8c0.1,0,0.6,0.1,0.6,0.5c0.2-0.2,0.5-0.5,0.9-0.5c0.2,0,0.7,0,0.7,0.5
			c0.2-0.3,0.5-0.5,1-0.5c0.5,0,0.7,0.2,0.7,0.6c0,0.3-0.2,0.8-0.3,1c0,0.1-0.1,0.2-0.1,0.3c0,0.1,0,0.2,0.1,0.2
			c0.2,0,0.5-0.3,0.6-0.6c0-0.1,0-0.1,0.1-0.1c0,0,0.1,0,0.1,0.1c0,0.1-0.3,0.8-0.8,0.8c-0.3,0-0.5-0.2-0.5-0.4c0-0.1,0-0.1,0-0.2
			c0.1-0.3,0.3-0.8,0.3-1.1c0-0.2-0.1-0.4-0.3-0.4c-0.6,0-1,0.7-1,0.8c0,0,0,0-0.2,0.7c0,0.1-0.1,0.4-0.1,0.4
			c-0.1,0.1-0.2,0.2-0.2,0.2c-0.1,0-0.2-0.1-0.2-0.2c0,0,0-0.2,0.1-0.3L357.8,100.1z"/>
	</g>
	<polyline points="351.1,102.5 361.7,102.5 361.7,102 351.1,102 	"/>
	<g>
		<path class="st1" d="M354.9,107.6c0,0.1-0.2,0.9-0.4,1.4c-0.1,0.2-0.4,0.6-0.8,0.6c-0.3,0-0.7-0.2-0.7-0.5c0-0.3,0.2-0.4,0.4-0.4
			c0.2,0,0.3,0.1,0.3,0.3c0,0,0,0.3-0.3,0.4c0.1,0.1,0.3,0.1,0.3,0.1c0.3,0,0.5-0.5,0.5-0.7c0.2-0.7,0.6-3.3,0.6-3.3h-0.5
			c-0.1,0-0.2,0-0.2-0.1c0-0.2,0.1-0.2,0.2-0.2h0.6c0.1-0.8,0.2-1.1,0.3-1.4c0.2-0.3,0.5-0.5,0.8-0.5c0.4,0,0.7,0.2,0.7,0.5
			c0,0.3-0.2,0.4-0.4,0.4c-0.2,0-0.3-0.1-0.3-0.3c0,0,0-0.3,0.3-0.4c-0.1-0.1-0.3-0.1-0.3-0.1c-0.2,0-0.3,0.1-0.4,0.3
			c-0.1,0.2-0.1,0.5-0.3,1.4h0.6c0.1,0,0.2,0,0.2,0.1c0,0.2-0.1,0.2-0.2,0.2h-0.7L354.9,107.6z"/>
	</g>
	<g>
		<path class="st1" d="M358.3,107.2c-0.7,0-0.7,0.4-0.7,0.4c0,0.2,0.2,0.2,0.6,0.3c0.3,0,0.8,0.1,0.8,0.6c0,0.2-0.2,0.8-1.2,0.8
			c-0.1,0-0.9,0-0.9-0.5c0-0.2,0.1-0.4,0.3-0.4c0.1,0,0.2,0.1,0.2,0.2c0,0.1-0.1,0.3-0.3,0.3c0.2,0.2,0.5,0.2,0.7,0.2
			c0.9,0,0.9-0.5,0.9-0.5c0-0.3-0.3-0.3-0.7-0.4c-0.3,0-0.4-0.1-0.6-0.2c-0.1-0.1-0.2-0.2-0.2-0.4c0-0.2,0.2-0.7,1-0.7
			c0.4,0,0.8,0.1,0.8,0.4c0,0.3-0.2,0.3-0.3,0.3c-0.1,0-0.2-0.1-0.2-0.2c0,0,0-0.2,0.2-0.2C358.7,107.2,358.4,107.2,358.3,107.2z"/>
	</g>
	<g>
		<path class="st1" d="M301.9,102.9v-0.6h2.6v0.6H301.9z"/>
		<path class="st1" d="M308.2,104c0.2,0,0.9,0,0.9-0.1c0.1-0.1,0.2-0.6,0.2-0.9h0.2l-0.3,1.7h-3.7c0-0.2,0-0.3,0.1-0.4l1.9-2.1
			c0.5-0.6,1-1.4,1-2.2c0-0.8-0.4-1.6-1.3-1.6c-0.6,0-1.1,0.4-1.3,1c0,0,0,0,0.1,0c0.3,0,0.5,0.3,0.5,0.5c0,0.4-0.3,0.5-0.5,0.5
			c0,0-0.5,0-0.5-0.6c0-0.9,0.7-1.8,1.9-1.8c1.2,0,2.1,0.8,2.1,1.9c0,1-0.6,1.5-2.2,2.9l-1.1,1H308.2z"/>
	</g>
	<g>
		<path class="st1" d="M312.3,103.2c-0.1,0.5-0.1,0.5-0.3,1c-0.1,0.4-0.2,0.6-0.5,0.6c-0.1,0-0.3-0.1-0.3-0.3c0-0.1,0-0.1,0.1-0.2
			c0.4-0.9,1-2.1,1.3-3.3H312c-0.2,0-0.8,0-1.3,0.8c-0.1,0.1-0.1,0.1-0.2,0.1c-0.1,0-0.1-0.1-0.1-0.1c0,0,0.3-0.5,0.6-0.9
			c0.4-0.5,0.8-0.5,1-0.5h3.3c0.2,0,0.4,0,0.4,0.2c0,0.3-0.4,0.3-0.5,0.3h-1.1c-0.1,0.5-0.2,1.1-0.2,1.6c0,0.3,0,0.9,0.3,1.6
			c0.1,0.1,0.1,0.2,0.1,0.2c0,0.2-0.2,0.4-0.4,0.4c-0.1,0-0.3-0.1-0.4-0.5c-0.1-0.3-0.1-0.6-0.1-0.8c0-0.7,0.1-1.1,0.4-2.6h-1.1
			L312.3,103.2z"/>
	</g>
	<g>
		<path class="st1" d="M319.9,99.7c0,0.1-0.2,0.9-0.4,1.4c-0.1,0.2-0.4,0.6-0.8,0.6c-0.3,0-0.7-0.2-0.7-0.5c0-0.3,0.2-0.4,0.4-0.4
			c0.2,0,0.3,0.1,0.3,0.3c0,0,0,0.3-0.3,0.4c0.1,0.1,0.3,0.1,0.3,0.1c0.3,0,0.5-0.5,0.5-0.7c0.2-0.7,0.6-3.3,0.6-3.3h-0.5
			c-0.1,0-0.2,0-0.2-0.1c0-0.2,0.1-0.2,0.2-0.2h0.6c0.1-0.8,0.2-1.1,0.3-1.4c0.2-0.3,0.5-0.5,0.8-0.5c0.4,0,0.7,0.2,0.7,0.5
			c0,0.3-0.2,0.4-0.4,0.4c-0.2,0-0.3-0.1-0.3-0.3c0,0,0-0.3,0.3-0.4c-0.1-0.1-0.3-0.1-0.3-0.1c-0.2,0-0.3,0.1-0.4,0.3
			c-0.1,0.2-0.1,0.5-0.3,1.4h0.6c0.1,0,0.2,0,0.2,0.1c0,0.2-0.1,0.2-0.2,0.2h-0.7L319.9,99.7z"/>
	</g>
	<g>
		<path class="st1" d="M324.1,100.1c0-0.2,0.1-0.4,0.1-0.5c0-0.2-0.1-0.4-0.3-0.4c-0.3,0-0.5,0.2-0.6,0.3c-0.2,0.2-0.4,0.6-0.4,0.6
			c0,0.1-0.1,0.2-0.1,0.3c0,0-0.1,0.3-0.1,0.3c0,0.1-0.1,0.4-0.1,0.4c-0.1,0.1-0.2,0.2-0.2,0.2c-0.1,0-0.2-0.1-0.2-0.2
			c0,0,0.1-0.2,0.1-0.4l0.1-0.4c0-0.1,0.1-0.3,0.1-0.4c0-0.1,0.1-0.3,0.1-0.4c0-0.1,0-0.3-0.2-0.3c-0.2,0-0.3,0.3-0.4,0.6
			c0,0.1,0,0.1-0.1,0.1c0,0-0.1,0-0.1-0.1c0,0,0.1-0.8,0.6-0.8c0.1,0,0.6,0.1,0.6,0.5c0.2-0.2,0.5-0.5,0.9-0.5c0.2,0,0.7,0,0.7,0.5
			c0.2-0.3,0.5-0.5,1-0.5c0.5,0,0.7,0.2,0.7,0.6c0,0.3-0.2,0.8-0.3,1c0,0.1-0.1,0.2-0.1,0.3c0,0.1,0,0.2,0.1,0.2
			c0.2,0,0.5-0.3,0.6-0.6c0-0.1,0-0.1,0.1-0.1c0,0,0.1,0,0.1,0.1c0,0.1-0.3,0.8-0.8,0.8c-0.3,0-0.5-0.2-0.5-0.4c0-0.1,0-0.1,0-0.2
			c0.1-0.3,0.3-0.8,0.3-1.1c0-0.2-0.1-0.4-0.3-0.4c-0.6,0-1,0.7-1,0.8c0,0,0,0-0.2,0.7c0,0.1-0.1,0.4-0.1,0.4
			c-0.1,0.1-0.2,0.2-0.2,0.2c-0.1,0-0.2-0.1-0.2-0.2c0,0,0-0.2,0.1-0.3L324.1,100.1z"/>
	</g>
	<polyline points="317.3,102.5 327.8,102.5 327.8,102 317.3,102 	"/>
	<g>
		<path class="st1" d="M321.2,107.6c0,0.1-0.2,0.9-0.4,1.4c-0.1,0.2-0.4,0.6-0.8,0.6c-0.3,0-0.7-0.2-0.7-0.5c0-0.3,0.2-0.4,0.4-0.4
			c0.2,0,0.3,0.1,0.3,0.3c0,0,0,0.3-0.3,0.4c0.1,0.1,0.3,0.1,0.3,0.1c0.3,0,0.5-0.5,0.5-0.7c0.2-0.7,0.6-3.3,0.6-3.3h-0.5
			c-0.1,0-0.2,0-0.2-0.1c0-0.2,0.1-0.2,0.2-0.2h0.6c0.1-0.8,0.2-1.1,0.3-1.4c0.2-0.3,0.5-0.5,0.8-0.5c0.4,0,0.7,0.2,0.7,0.5
			c0,0.3-0.2,0.4-0.4,0.4c-0.2,0-0.3-0.1-0.3-0.3c0,0,0-0.3,0.3-0.4c-0.1-0.1-0.3-0.1-0.3-0.1c-0.2,0-0.3,0.1-0.4,0.3
			c-0.1,0.2-0.1,0.5-0.3,1.4h0.6c0.1,0,0.2,0,0.2,0.1c0,0.2-0.1,0.2-0.2,0.2h-0.7L321.2,107.6z"/>
	</g>
	<g>
		<path class="st1" d="M324.6,107.2c-0.7,0-0.7,0.4-0.7,0.4c0,0.2,0.2,0.2,0.6,0.3c0.3,0,0.8,0.1,0.8,0.6c0,0.2-0.2,0.8-1.2,0.8
			c-0.1,0-0.9,0-0.9-0.5c0-0.2,0.1-0.4,0.3-0.4c0.1,0,0.2,0.1,0.2,0.2c0,0.1-0.1,0.3-0.3,0.3c0.2,0.2,0.5,0.2,0.7,0.2
			c0.9,0,0.9-0.5,0.9-0.5c0-0.3-0.3-0.3-0.7-0.4c-0.3,0-0.4-0.1-0.6-0.2c-0.1-0.1-0.2-0.2-0.2-0.4c0-0.2,0.2-0.7,1-0.7
			c0.4,0,0.8,0.1,0.8,0.4c0,0.3-0.2,0.3-0.3,0.3c-0.1,0-0.2-0.1-0.2-0.2c0,0,0-0.2,0.2-0.2C325,107.2,324.7,107.2,324.6,107.2z"/>
	</g>
	<g>
		<path class="st5" d="M330.7,141.9c0.2,0,0.9,0,0.9-0.1c0.1-0.1,0.2-0.6,0.2-0.9h0.2l-0.3,1.7h-3.7c0-0.2,0-0.3,0.1-0.4l1.9-2.1
			c0.5-0.6,1-1.4,1-2.2c0-0.8-0.4-1.6-1.3-1.6c-0.6,0-1.1,0.4-1.3,1c0,0,0,0,0.1,0c0.3,0,0.5,0.3,0.5,0.5c0,0.4-0.3,0.5-0.5,0.5
			c0,0-0.5,0-0.5-0.6c0-0.9,0.7-1.8,1.9-1.8c1.2,0,2.1,0.8,2.1,1.9c0,1-0.6,1.5-2.2,2.9l-1.1,1H330.7z"/>
	</g>
	<g>
		<path class="st5" d="M334.7,141.1c-0.1,0.5-0.1,0.5-0.3,1c-0.1,0.4-0.2,0.6-0.5,0.6c-0.1,0-0.3-0.1-0.3-0.3c0-0.1,0-0.1,0.1-0.2
			c0.4-0.9,1-2.1,1.3-3.3h-0.6c-0.2,0-0.8,0-1.3,0.8c-0.1,0.1-0.1,0.1-0.2,0.1c-0.1,0-0.1-0.1-0.1-0.1c0,0,0.3-0.5,0.6-0.9
			c0.4-0.5,0.8-0.5,1-0.5h3.3c0.2,0,0.4,0,0.4,0.2c0,0.3-0.4,0.3-0.5,0.3h-1.1c-0.1,0.5-0.2,1.1-0.2,1.6c0,0.3,0,0.9,0.3,1.6
			c0.1,0.1,0.1,0.2,0.1,0.2c0,0.2-0.2,0.4-0.4,0.4c-0.1,0-0.3-0.1-0.4-0.5c-0.1-0.3-0.1-0.6-0.1-0.8c0-0.7,0.1-1.1,0.4-2.6h-1.1
			L334.7,141.1z"/>
	</g>
	<g>
		<path class="st5" d="M334.2,117.9h-0.2c-0.2-1.4-0.4-1.9-1.9-1.9h-1.2c-0.5,0-0.5,0.1-0.5,0.4v2.5h0.9c1,0,1.1-0.3,1.1-1.2h0.2
			v2.6h-0.2c0-0.8-0.1-1.2-1.1-1.2h-0.9v2.5c0,0.3,0,0.5,0.9,0.5h0.3v0.3c-0.4,0-1.3,0-1.7,0c-0.4,0-1.2,0-1.5,0v-0.3h0.2
			c0.8,0,0.8-0.1,0.8-0.5v-5.2c0-0.4,0-0.5-0.8-0.5h-0.2v-0.3h5.5L334.2,117.9z"/>
		<path class="st5" d="M336.8,121.6c0,0.4,0,0.5,0.8,0.5h0.3v0.3c-0.3,0-1.1,0-1.5,0c-0.4,0-1.2,0-1.5,0v-0.3h0.3
			c0.8,0,0.8-0.1,0.8-0.5v-5.3c0-0.4,0-0.5-0.8-0.5h-0.3v-0.3c0.3,0,1.1,0,1.5,0c0.4,0,1.2,0,1.5,0v0.3h-0.3c-0.8,0-0.8,0.1-0.8,0.5
			V121.6z"/>
	</g>
	<g>
		<path class="st1" d="M8.8,103.8c-0.4,0.9-1.2,1.2-1.7,1.2c-0.5,0-1.2-0.2-1.6-1C5,103.2,5,102.3,5,101.6c0-0.8,0-1.6,0.4-2.3
			c0.4-0.9,1.1-1.2,1.7-1.2c0.4,0,1.2,0.2,1.7,1.1c0.3,0.7,0.4,1.5,0.4,2.3C9.2,102.3,9.1,103.1,8.8,103.8z M8.2,103.5
			c0.1-0.6,0.1-1.3,0.1-2.1c0-0.6,0-1.4-0.1-1.9c-0.2-1-0.8-1.2-1.2-1.2c-0.2,0-1,0.1-1.2,1.3c-0.1,0.5-0.1,1.2-0.1,1.8
			c0,0.6,0,1.5,0.1,2.1c0.2,1,0.8,1.2,1.2,1.2C7.5,104.7,8.1,104.4,8.2,103.5z"/>
		<path class="st1" d="M28.9,104c0,0.4,0,0.5,0.9,0.5h0.3v0.3c-0.3,0-1.2,0-1.6,0c-0.4,0-1.3,0-1.6,0v-0.3h0.3
			c0.9,0,0.9-0.1,0.9-0.5v-5.2c-0.5,0.3-1.1,0.3-1.3,0.3v-0.3c0.3,0,1.2,0,1.8-0.6c0.2,0,0.2,0,0.2,0.3V104z"/>
	</g>
	<line class="st6" x1="60.2" y1="101.6" x2="78" y2="101.6"/>
	<path class="st7" d="M297.6,98.4v32.8 M368.5,98.4v32.8"/>
	<polyline points="302.2,124.8 297.6,127.1 302.2,129.4 301,127.1 	"/>
	<polyline points="364,129.4 368.5,127.1 364,124.8 365.1,127.1 	"/>
	<path class="st0" d="M301,127.1h64.1 M354.3,86.1v8.2 M311.8,86.1v8.2"/>
	<path class="st8" d="M7.1,40.9c0,0,7.7,23.8,17.7,24.6c11.5,1,13.1-23.9,24.8-24.6c9-0.6,21.3,16.4,21.3,16.4l0,0"/>
	<path class="st9" d="M70.9,90.2V57.3 M49.6,90.2V40.9 M28.3,90.2V65.6 M7.1,90.2V40.9"/>
	<path class="st10" d="M73.1,57.3c0-1.2-1-2.2-2.2-2.2c-1.2,0-2.2,1-2.2,2.2s1,2.2,2.2,2.2C72.1,59.6,73.1,58.6,73.1,57.3L73.1,57.3
		z"/>
	<path class="st10" d="M51.9,41c0-1.2-1-2.2-2.2-2.2c-1.2,0-2.2,1-2.2,2.2c0,1.2,1,2.2,2.2,2.2C50.9,43.2,51.9,42.2,51.9,41L51.9,41
		z"/>
	<path class="st10" d="M30.5,65.6c0-1.2-1-2.2-2.2-2.2c-1.2,0-2.2,1-2.2,2.2c0,1.2,1,2.2,2.2,2.2C29.5,67.8,30.5,66.8,30.5,65.6
		L30.5,65.6z"/>
	<path class="st10" d="M9.3,41c0-1.2-1-2.2-2.2-2.2s-2.2,1-2.2,2.2c0,1.2,1,2.2,2.2,2.2S9.3,42.2,9.3,41L9.3,41z"/>
	<g>
		<path class="st2" d="M367.6,77.4c-0.1,0.5-0.1,0.5-0.3,1c-0.1,0.4-0.2,0.6-0.5,0.6c-0.1,0-0.3-0.1-0.3-0.3c0-0.1,0-0.1,0.1-0.2
			c0.4-0.9,1-2.1,1.3-3.3h-0.6c-0.2,0-0.8,0-1.3,0.8c-0.1,0.1-0.1,0.1-0.2,0.1c-0.1,0-0.1-0.1-0.1-0.1c0,0,0.3-0.5,0.6-0.9
			c0.4-0.5,0.8-0.5,1-0.5h3.3c0.2,0,0.4,0,0.4,0.2c0,0.3-0.4,0.3-0.5,0.3h-1.1c-0.1,0.5-0.2,1.1-0.2,1.6c0,0.3,0,0.9,0.3,1.6
			c0.1,0.1,0.1,0.2,0.1,0.2c0,0.2-0.2,0.4-0.4,0.4c-0.1,0-0.3-0.1-0.4-0.5c-0.1-0.3-0.1-0.6-0.1-0.8c0-0.7,0.1-1.1,0.4-2.6h-1.1
			L367.6,77.4z"/>
	</g>
	<g>
		<path class="st2" d="M291.9,77c-0.2,0-0.3,0-0.3-0.2s0.2-0.2,0.3-0.2h5.4c0.2,0,0.3,0,0.3,0.2s-0.2,0.2-0.3,0.2H291.9z"/>
	</g>
	<g>
		<path class="st2" d="M300.6,77.8c-0.1,0.5-0.1,0.5-0.3,1c-0.1,0.4-0.2,0.6-0.5,0.6c-0.1,0-0.3-0.1-0.3-0.3c0-0.1,0-0.1,0.1-0.2
			c0.4-0.9,1-2.1,1.3-3.3h-0.6c-0.2,0-0.8,0-1.3,0.8c-0.1,0.1-0.1,0.1-0.2,0.1c-0.1,0-0.1-0.1-0.1-0.1c0,0,0.3-0.5,0.6-0.9
			c0.4-0.5,0.8-0.5,1-0.5h3.3c0.2,0,0.4,0,0.4,0.2c0,0.3-0.4,0.3-0.5,0.3h-1.1c-0.1,0.5-0.2,1.1-0.2,1.6c0,0.3,0,0.9,0.3,1.6
			c0.1,0.1,0.1,0.2,0.1,0.2c0,0.2-0.2,0.4-0.4,0.4c-0.1,0-0.3-0.1-0.4-0.5c-0.1-0.3-0.1-0.6-0.1-0.8c0-0.7,0.1-1.1,0.4-2.6h-1.1
			L300.6,77.8z"/>
	</g>
	<g>
		<path class="st2" d="M200.2,38.7c-0.9,0-1.2-1.1-1.2-2c0-2.3,1.5-5.1,2.9-5.1c1,0,1.2,1.4,1.2,2C203.1,35.9,201.6,38.7,200.2,38.7
			z M200,35.3c-0.3,1-0.3,1.6-0.3,2c0,0.9,0.2,1.2,0.5,1.2c0.4,0,0.8-0.5,1.2-1.2c0.4-0.7,0.6-1.6,0.7-2H200z M202.2,35
			c0.2-1,0.3-1.5,0.3-2c0-0.6-0.1-1.2-0.5-1.2c-0.4,0-0.8,0.6-1.1,1c-0.4,0.7-0.6,1.5-0.8,2.1H202.2z"/>
	</g>
	<g>
		<path class="st1" d="M207.2,35.4c-0.1,0-0.3,0-0.3-0.2s0.2-0.2,0.3-0.2h6c0.1,0,0.3,0,0.3,0.2s-0.2,0.2-0.3,0.2H207.2z
			 M207.2,37.3c-0.1,0-0.3,0-0.3-0.2s0.2-0.2,0.3-0.2h5.9c0.1,0,0.3,0,0.3,0.2s-0.2,0.2-0.3,0.2H207.2z"/>
		<path class="st1" d="M219.9,37.9c0.2,0,0.9,0,0.9-0.1c0.1-0.1,0.2-0.6,0.2-0.9h0.2l-0.3,1.7h-3.7c0-0.2,0-0.3,0.1-0.4l1.9-2.1
			c0.5-0.6,1-1.4,1-2.2c0-0.8-0.4-1.6-1.3-1.6c-0.6,0-1.1,0.4-1.3,1c0,0,0,0,0.1,0c0.3,0,0.5,0.3,0.5,0.5c0,0.4-0.3,0.5-0.5,0.5
			c0,0-0.5,0-0.5-0.6c0-0.9,0.7-1.8,1.9-1.8c1.2,0,2.1,0.8,2.1,1.9c0,1-0.6,1.5-2.2,2.9l-1.1,1H219.9z"/>
	</g>
	<g>
		<path class="st1" d="M224,37.1c-0.1,0.5-0.1,0.5-0.3,1c-0.1,0.4-0.2,0.6-0.5,0.6c-0.1,0-0.3-0.1-0.3-0.3c0-0.1,0-0.1,0.1-0.2
			c0.4-0.9,1-2.1,1.3-3.3h-0.6c-0.2,0-0.8,0-1.3,0.8c-0.1,0.1-0.1,0.1-0.2,0.1c-0.1,0-0.1-0.1-0.1-0.1c0,0,0.3-0.5,0.6-0.9
			c0.4-0.5,0.8-0.5,1-0.5h3.3c0.2,0,0.4,0,0.4,0.2c0,0.3-0.4,0.3-0.5,0.3h-1.1c-0.1,0.5-0.2,1.1-0.2,1.6c0,0.3,0,0.9,0.3,1.6
			c0.1,0.1,0.1,0.2,0.1,0.2c0,0.2-0.2,0.4-0.4,0.4c-0.1,0-0.3-0.1-0.4-0.5c-0.1-0.3-0.1-0.6-0.1-0.8c0-0.7,0.1-1.1,0.4-2.6h-1.1
			L224,37.1z"/>
		<path class="st1" d="M230.9,37.8c0,0.1-0.2,1.3-0.6,1.9c-0.2,0.4-0.6,1-1.1,1c-0.4,0-0.8-0.2-0.8-0.7c0-0.4,0.3-0.6,0.5-0.6
			c0.2,0,0.4,0.1,0.4,0.3c0,0.1-0.1,0.5-0.5,0.5c0.2,0.2,0.4,0.2,0.5,0.2c0.5,0,0.7-0.9,0.9-1.9l0.7-3.9h-0.7c-0.2,0-0.3,0-0.3-0.1
			c0-0.2,0.1-0.2,0.3-0.2h0.7c0.2-1.3,0.3-1.4,0.3-1.6c0.3-1,0.9-1.2,1.3-1.2c0.4,0,0.9,0.2,0.9,0.7c0,0.4-0.3,0.6-0.5,0.6
			c-0.2,0-0.4-0.1-0.4-0.3c0-0.1,0.1-0.5,0.5-0.5c-0.2-0.2-0.4-0.2-0.5-0.2c-0.2,0-0.4,0.1-0.5,0.3c-0.1,0.1-0.2,0.8-0.2,1l-0.2,1.1
			h0.8c0.2,0,0.3,0,0.3,0.1c0,0.2-0.1,0.2-0.3,0.2h-0.9L230.9,37.8z"/>
	</g>
	<g>
		<path class="st1" d="M234.8,40.9c-0.1,0.2-0.1,0.2-0.2,0.2c-0.1,0-0.2-0.1-0.2-0.2c0,0,0,0,0-0.2l3.5-9.5c0-0.1,0.1-0.1,0.2-0.1
			c0.1,0,0.2,0.1,0.2,0.2c0,0,0,0,0,0.2L234.8,40.9z"/>
		<path class="st1" d="M242,37.8c0,0.1-0.2,1.3-0.6,1.9c-0.2,0.4-0.6,1-1.1,1c-0.4,0-0.8-0.2-0.8-0.7c0-0.4,0.3-0.6,0.5-0.6
			c0.2,0,0.4,0.1,0.4,0.3c0,0.1-0.1,0.5-0.5,0.5c0.2,0.2,0.4,0.2,0.5,0.2c0.5,0,0.7-0.9,0.9-1.9l0.7-3.9h-0.7c-0.2,0-0.3,0-0.3-0.1
			c0-0.2,0.1-0.2,0.3-0.2h0.7c0.2-1.3,0.3-1.4,0.3-1.6c0.3-1,0.9-1.2,1.3-1.2c0.4,0,0.9,0.2,0.9,0.7c0,0.4-0.3,0.6-0.5,0.6
			c-0.2,0-0.4-0.1-0.4-0.3c0-0.1,0.1-0.5,0.5-0.5c-0.2-0.2-0.4-0.2-0.5-0.2c-0.2,0-0.4,0.1-0.5,0.3c-0.1,0.1-0.2,0.8-0.2,1l-0.2,1.1
			h0.8c0.2,0,0.3,0,0.3,0.1c0,0.2-0.1,0.2-0.3,0.2h-0.9L242,37.8z"/>
	</g>
	<g>
		<path class="st1" d="M246.2,37.2c-0.1,0-0.4,0-0.6,0.1c-0.2,0.1-0.3,0.3-0.3,0.4c0,0.2,0.1,0.3,0.4,0.3c0,0,0.2,0,0.3,0.1
			c0.3,0,1,0.2,1,0.8c0,0.3-0.2,1.2-1.5,1.2c-0.7,0-1.1-0.3-1.1-0.7c0-0.3,0.2-0.5,0.4-0.5c0.1,0,0.3,0.1,0.3,0.3
			c0,0.2-0.2,0.4-0.4,0.4c0.2,0.2,0.6,0.3,0.8,0.3c0.1,0,0.4,0,0.7-0.2c0.3-0.2,0.4-0.4,0.4-0.6c0-0.3-0.4-0.4-0.6-0.5
			c-0.5-0.1-0.6-0.1-0.8-0.3c-0.1-0.1-0.2-0.3-0.2-0.5c0-0.2,0.2-1,1.3-1c0.4,0,0.9,0.2,0.9,0.6c0,0.4-0.3,0.4-0.3,0.4
			c-0.1,0-0.2-0.1-0.2-0.2c0-0.1,0.1-0.3,0.3-0.3C246.7,37.2,246.3,37.2,246.2,37.2z"/>
	</g>
	<g>
		<path class="st1" d="M169.1,15.3v-4c0-0.2,0-0.2-0.3-0.3c-0.2,0-0.3,0-0.5,0H168v-0.5c0.4,0,0.9,0,1.3,0c0.4,0,1,0,1.3,0V11h-0.2
			c-0.3,0-0.3,0-0.5,0c-0.3,0-0.3,0-0.3,0.3v5.8c0,0.2,0,0.3-0.3,0.3c-0.2,0-0.2,0-0.3-0.1l-5-5.8v5.2c0,0.2,0,0.2,0.3,0.3
			c0.2,0,0.3,0,0.5,0h0.2v0.5c-0.4,0-0.9,0-1.3,0c-0.4,0-1,0-1.3,0v-0.5h0.2c0.3,0,0.3,0,0.5,0c0.3,0,0.3,0,0.3-0.3V11h-1.1v-0.5
			h2.3c0.2,0,0.2,0,0.3,0.1L169.1,15.3z"/>
		<path class="st1" d="M174,17.5c-1.7,0-2.5-1-2.5-2.2c0-1.3,0.9-2.3,2.5-2.3c1.6,0,2.5,1,2.5,2.3C176.5,16.4,175.7,17.5,174,17.5z
			 M175.2,15.1c0-0.5,0-1-0.2-1.4c-0.2-0.3-0.6-0.5-1.1-0.5c-0.5,0-0.9,0.2-1.1,0.6c-0.2,0.3-0.2,0.8-0.2,1.3c0,0.9,0,1.9,1.3,1.9
			C175.2,17.1,175.2,16,175.2,15.1z"/>
	</g>
	<g>
		<path class="st1" d="M187.4,17.5c-0.7,0-1.9-0.2-1.9-1.1c0-1.4,2.5-1.5,3.2-1.6v-0.3c0-0.8-0.3-1.2-1.1-1.2c-0.1,0-0.4,0-0.7,0.1
			c0,0,0.2,0.2,0.2,0.5c0,0.4-0.3,0.6-0.6,0.6c-0.3,0-0.6-0.2-0.6-0.6c0-0.9,1.2-0.9,1.8-0.9c1.5,0,2.2,0.6,2.2,1.5v2.1
			c0,0.2,0,0.4,0.6,0.4c0.1,0,0.3,0,0.3,0.2c0,0.2-0.1,0.2-0.3,0.2h-0.5c-1,0-1-0.5-1-0.8C188.7,17,188.2,17.5,187.4,17.5z
			 M186.6,16.3c0,0.4,0.4,0.8,0.9,0.8c0.2,0,1.2-0.1,1.2-1.1v-0.9C188.2,15.1,186.6,15.2,186.6,16.3z"/>
		<path class="st1" d="M193,16.9h0.7v0.5c-0.3,0-0.8,0-1.2,0c-0.4,0-0.9,0-1.2,0v-0.5h0.7v-5.5c0-0.4-0.1-0.4-0.7-0.4v-0.5l1.8-0.1
			V16.9z"/>
		<path class="st1" d="M196.2,16.9h0.6v0.5c-0.4,0-0.9,0-1.2,0c-0.4,0-0.9,0-1.2,0v-0.5h0.7v-3.1c0-0.4-0.1-0.4-0.7-0.4V13l1.7-0.1
			V16.9z M195.5,12c-0.4,0-0.8-0.3-0.8-0.8c0-0.4,0.3-0.8,0.8-0.8c0.4,0,0.8,0.3,0.8,0.8S195.9,12,195.5,12z"/>
		<path class="st1" d="M199.4,17.5c-0.7,0-1.9-0.2-1.9-1.1c0-1.4,2.5-1.5,3.2-1.6v-0.3c0-0.8-0.3-1.2-1.1-1.2c-0.1,0-0.4,0-0.7,0.1
			c0,0,0.2,0.2,0.2,0.5c0,0.4-0.3,0.6-0.6,0.6c-0.3,0-0.6-0.2-0.6-0.6c0-0.9,1.2-0.9,1.8-0.9c1.5,0,2.2,0.6,2.2,1.5v2.1
			c0,0.2,0,0.4,0.6,0.4c0.1,0,0.3,0,0.3,0.2c0,0.2-0.1,0.2-0.3,0.2h-0.5c-1,0-1-0.5-1-0.8C200.7,17,200.2,17.5,199.4,17.5z
			 M198.7,16.3c0,0.4,0.4,0.8,0.9,0.8c0.2,0,1.2-0.1,1.2-1.1v-0.9C200.2,15.1,198.7,15.2,198.7,16.3z"/>
		<path class="st1" d="M206.4,14.9c0.3,0.3,0.5,0.6,0.5,1.1c0,1.5-1.5,1.5-1.8,1.5c-0.2,0-0.7,0-1.2-0.3c0,0-0.2,0.2-0.3,0.2
			c-0.2,0.1-0.2,0.1-0.3,0.1c-0.2,0-0.2-0.1-0.2-0.3v-1.1c0-0.2,0-0.3,0.2-0.3c0.1,0,0.2,0,0.2,0.1c0.1,0.4,0.4,1.2,1.4,1.2
			c0.2,0,1.1,0,1.1-0.7c0-0.6-0.7-0.7-1.1-0.8c-0.8-0.1-1.1-0.2-1.5-0.5c-0.2-0.2-0.4-0.4-0.4-0.8c0-1.3,1.5-1.3,1.8-1.3
			c0.4,0,0.7,0.1,1,0.2c0.4-0.2,0.4-0.2,0.4-0.2c0.2,0,0.2,0.1,0.2,0.3V14c0,0.2,0,0.3-0.2,0.3c-0.2,0-0.2,0-0.2-0.2
			c0-0.5-0.4-0.8-1.2-0.8c-0.2,0-1.1,0-1.1,0.6c0,0.5,0.6,0.6,1,0.6C205.7,14.6,206,14.7,206.4,14.9z"/>
		<path class="st1" d="M209.6,16.9h0.6v0.5c-0.4,0-0.9,0-1.2,0c-0.4,0-0.9,0-1.2,0v-0.5h0.7v-3.1c0-0.4-0.1-0.4-0.7-0.4V13l1.7-0.1
			V16.9z M208.9,12c-0.4,0-0.8-0.3-0.8-0.8c0-0.4,0.3-0.8,0.8-0.8c0.4,0,0.8,0.3,0.8,0.8S209.3,12,208.9,12z"/>
		<path class="st1" d="M211,13.5V13l1.7-0.1V14c0.3-0.5,0.8-1.1,1.7-1.1c1,0,1.5,0.4,1.5,1.4v2.6h0.7v0.5c-0.3,0-0.9,0-1.3,0
			c-0.4,0-1,0-1.3,0v-0.5h0.7v-2.7c0-0.8-0.2-1-0.5-1c-0.6,0-1.5,0.5-1.5,1.6v2.1h0.7v0.5c-0.3,0-0.9,0-1.3,0c-0.4,0-1,0-1.3,0v-0.5
			h0.7v-3.1C211.7,13.5,211.6,13.5,211,13.5z"/>
	</g>
	<g>
		<path class="st1" d="M218.2,15.9c0,0.2,0.1,0.6,0.5,0.6c0,0,0.5,0,0.8,0c1,0,1.6,0,2.1,0.3c0.7,0.3,0.7,1,0.7,1.3
			c0,0.7-0.8,1.3-2.5,1.3c-2,0-2.5-0.7-2.5-1.3c0-0.6,0.7-0.8,0.9-0.9c-0.4-0.3-0.4-0.8-0.4-1c0-0.2,0.1-0.5,0.3-0.9
			c-0.3-0.2-0.5-0.6-0.5-1c0-0.7,0.5-1.5,2-1.5c0.7,0,1.2,0.2,1.3,0.3c0.4-0.3,0.9-0.4,1.1-0.4c0.5,0,0.6,0.3,0.6,0.6
			c0,0.2-0.2,0.4-0.4,0.4c-0.3,0-0.4-0.2-0.4-0.4c0-0.1,0-0.1,0-0.2c-0.1,0-0.3,0-0.6,0.2c0.1,0.2,0.4,0.5,0.4,1
			c0,0.7-0.5,1.5-2,1.5c-0.2,0-0.8,0-1.2-0.3C218.2,15.7,218.2,15.8,218.2,15.9z M218.1,18.1c0,0.5,0.5,0.9,1.7,0.9
			c1.3,0,1.7-0.5,1.7-0.9c0-0.6-1.1-0.6-1.4-0.6h-1.2C218.8,17.5,218.1,17.5,218.1,18.1z M220.4,14.4c0-0.4,0-1.1-0.9-1.1
			s-0.9,0.7-0.9,1.1c0,0.4,0,1.1,0.9,1.1S220.4,14.8,220.4,14.4z"/>
		<path class="st1" d="M228.5,16.9h0.6v0.5c-0.4,0-0.9,0-1.2,0c-0.4,0-0.9,0-1.2,0v-0.5h0.7v-3.1c0-0.4-0.1-0.4-0.7-0.4V13l1.7-0.1
			V16.9z M227.9,12c-0.4,0-0.8-0.3-0.8-0.8c0-0.4,0.3-0.8,0.8-0.8c0.4,0,0.8,0.3,0.8,0.8S228.3,12,227.9,12z"/>
	</g>
	<g>
		<path class="st1" d="M234.9,16.9h0.9v0.5c-0.4,0-1,0-1.4,0c-0.5,0-0.9,0-1.3,0v-0.5h0.7v-3.5h-2.1v3.5h0.7v0.5c-0.3,0-0.8,0-1.2,0
			c-0.4,0-0.9,0-1.2,0v-0.5h0.7v-3.5h-0.7V13h0.7v-1c0-1.2,1.4-1.6,2.6-1.6c0.2,0,0.8,0,1.2,0.3c0.5-0.3,1-0.3,1.4-0.3
			c0.8,0,1.1,0.4,1.1,0.9c0,0.4-0.3,0.6-0.6,0.6c-0.3,0-0.6-0.2-0.6-0.6c0-0.2,0.1-0.4,0.2-0.5c-0.1,0-0.1,0-0.2,0c-0.2,0-1,0-1,1.2
			v1h1.2v0.5h-1.2V16.9z M233.8,13v-1.1c-0.2-0.1-0.2-0.3-0.2-0.5c0-0.4,0.3-0.5,0.3-0.5c-0.1,0-0.3-0.1-0.6-0.1
			c-0.9,0-1.6,0.4-1.6,1.2v1H233.8z"/>
	</g>
	<g>
		<path class="st1" d="M242.6,16.6c0,0.1-0.2,1.3-0.6,1.9c-0.2,0.4-0.6,1-1.1,1c-0.4,0-0.8-0.2-0.8-0.7c0-0.4,0.3-0.6,0.5-0.6
			c0.2,0,0.4,0.1,0.4,0.3c0,0.1-0.1,0.5-0.5,0.5c0.2,0.2,0.4,0.2,0.5,0.2c0.5,0,0.7-0.9,0.9-1.9l0.7-3.9h-0.7c-0.2,0-0.3,0-0.3-0.1
			c0-0.2,0.1-0.2,0.3-0.2h0.7c0.2-1.3,0.3-1.4,0.3-1.6c0.3-1,0.9-1.2,1.3-1.2c0.4,0,0.9,0.2,0.9,0.7c0,0.4-0.3,0.6-0.5,0.6
			c-0.2,0-0.4-0.1-0.4-0.3c0-0.1,0.1-0.5,0.5-0.5c-0.2-0.2-0.4-0.2-0.5-0.2c-0.2,0-0.4,0.1-0.5,0.3c-0.1,0.1-0.2,0.8-0.2,1l-0.2,1.1
			h0.8c0.2,0,0.3,0,0.3,0.1c0,0.2-0.1,0.2-0.3,0.2h-0.9L242.6,16.6z"/>
	</g>
	<g>
		<path class="st1" d="M247.8,17.1c0.1-0.4,0.1-0.5,0.1-0.7c0-0.1,0-0.5-0.4-0.5c-0.5,0-0.9,0.4-1,0.6c-0.2,0.3-0.2,0.3-0.3,0.6
			c0,0.2-0.1,0.3-0.1,0.5c0,0.2-0.1,0.5-0.2,0.6c0,0.1-0.1,0.4-0.1,0.4c0,0.1-0.1,0.2-0.3,0.2c-0.1,0-0.2-0.1-0.2-0.2
			c0,0,0-0.2,0.1-0.3l0.2-0.9c0-0.2,0.1-0.4,0.2-0.6s0.1-0.4,0.1-0.6c0-0.2,0-0.3-0.2-0.3c-0.3,0-0.4,0.3-0.5,0.8
			c0,0.2-0.1,0.2-0.2,0.2c0,0-0.1,0-0.1-0.1c0,0,0.1-0.4,0.3-0.7c0.1-0.2,0.3-0.4,0.6-0.4c0.3,0,0.7,0.2,0.7,0.6
			c0.2-0.3,0.6-0.6,1.2-0.6c0.4,0,0.9,0.1,0.9,0.7c0.2-0.3,0.6-0.7,1.2-0.7c0.3,0,0.5,0.1,0.6,0.2c0.3,0.2,0.3,0.5,0.3,0.6
			c0,0.4-0.3,1.1-0.4,1.3c-0.1,0.3-0.2,0.4-0.2,0.6c0,0.1,0,0.2,0.2,0.2c0.3,0,0.6-0.3,0.7-0.8c0-0.1,0-0.1,0.1-0.1
			c0,0,0.1,0,0.1,0.1c0,0.1-0.3,1.1-1,1.1c-0.4,0-0.7-0.2-0.7-0.6c0-0.1,0-0.2,0.1-0.4c0.1-0.3,0.4-1.1,0.4-1.5c0-0.2,0-0.5-0.4-0.5
			c-0.5,0-0.9,0.4-1.1,0.7c-0.1,0.2-0.1,0.2-0.2,0.5c0,0.2-0.1,0.3-0.1,0.5c0,0.2-0.1,0.5-0.2,0.6c0,0.1-0.1,0.4-0.1,0.4
			c0,0.1-0.1,0.2-0.3,0.2c-0.1,0-0.2-0.1-0.2-0.2c0,0,0.1-0.3,0.1-0.4L247.8,17.1z"/>
	</g>
	<g>
		<path class="st1" d="M256.3,14.9l5.2,2.5c0.1,0.1,0.2,0.1,0.2,0.2c0,0.1-0.1,0.2-0.2,0.2c0,0,0,0-0.2-0.1l-5.5-2.6
			c-0.1,0-0.2-0.1-0.2-0.2c0-0.1,0.1-0.2,0.2-0.2l5.5-2.6c0.1-0.1,0.1-0.1,0.2-0.1c0.1,0,0.2,0.1,0.2,0.2c0,0.1-0.1,0.2-0.2,0.2
			L256.3,14.9z"/>
		<path class="st1" d="M268.3,16.6c0,0.1-0.2,1.3-0.6,1.9c-0.2,0.4-0.6,1-1.1,1c-0.4,0-0.8-0.2-0.8-0.7c0-0.4,0.3-0.6,0.5-0.6
			c0.2,0,0.4,0.1,0.4,0.3c0,0.1-0.1,0.5-0.5,0.5c0.2,0.2,0.4,0.2,0.5,0.2c0.5,0,0.7-0.9,0.9-1.9l0.7-3.9h-0.7c-0.2,0-0.3,0-0.3-0.1
			c0-0.2,0.1-0.2,0.3-0.2h0.7c0.2-1.3,0.3-1.4,0.3-1.6c0.3-1,0.9-1.2,1.3-1.2c0.4,0,0.9,0.2,0.9,0.7c0,0.4-0.3,0.6-0.5,0.6
			c-0.2,0-0.4-0.1-0.4-0.3c0-0.1,0.1-0.5,0.5-0.5c-0.2-0.2-0.4-0.2-0.5-0.2c-0.2,0-0.4,0.1-0.5,0.3c-0.1,0.1-0.2,0.8-0.2,1l-0.2,1.1
			h0.8c0.2,0,0.3,0,0.3,0.1c0,0.2-0.1,0.2-0.3,0.2h-0.9L268.3,16.6z"/>
	</g>
	<g>
		<path class="st1" d="M272.5,15.9c-0.1,0-0.4,0-0.6,0.1c-0.2,0.1-0.3,0.3-0.3,0.4c0,0.2,0.1,0.3,0.4,0.3c0,0,0.2,0,0.3,0.1
			c0.3,0,1,0.2,1,0.8c0,0.3-0.2,1.2-1.5,1.2c-0.7,0-1.1-0.3-1.1-0.7c0-0.3,0.2-0.5,0.4-0.5c0.1,0,0.3,0.1,0.3,0.3
			c0,0.2-0.2,0.4-0.4,0.4c0.2,0.2,0.6,0.3,0.8,0.3c0.1,0,0.4,0,0.7-0.2c0.3-0.2,0.4-0.4,0.4-0.6c0-0.3-0.4-0.4-0.6-0.5
			c-0.5-0.1-0.6-0.1-0.8-0.3c-0.1-0.1-0.2-0.3-0.2-0.5c0-0.2,0.2-1,1.3-1c0.4,0,0.9,0.2,0.9,0.6c0,0.4-0.3,0.4-0.3,0.4
			c-0.1,0-0.2-0.1-0.2-0.2c0-0.1,0.1-0.3,0.3-0.3C273,16,272.6,15.9,272.5,15.9z"/>
	</g>
	<g>
		<path class="st1" d="M275.3,19.6c-0.1,0.2-0.1,0.2-0.2,0.2c-0.1,0-0.2-0.1-0.2-0.2c0,0,0,0,0-0.2l3.5-9.5c0-0.1,0.1-0.1,0.2-0.1
			c0.1,0,0.2,0.1,0.2,0.2c0,0,0,0,0,0.2L275.3,19.6z"/>
	</g>
	<g>
		<path class="st1" d="M282.4,16.6c0.2,0,0.9,0,0.9-0.1c0.1-0.1,0.2-0.6,0.2-0.9h0.2l-0.3,1.7h-3.7c0-0.2,0-0.3,0.1-0.4l1.9-2.1
			c0.5-0.6,1-1.4,1-2.2c0-0.8-0.4-1.6-1.3-1.6c-0.6,0-1.1,0.4-1.3,1c0,0,0,0,0.1,0c0.3,0,0.5,0.3,0.5,0.5c0,0.4-0.3,0.5-0.5,0.5
			c0,0-0.5,0-0.5-0.6c0-0.9,0.7-1.8,1.9-1.8c1.2,0,2.1,0.8,2.1,1.9c0,1-0.6,1.5-2.2,2.9l-1.1,1H282.4z"/>
	</g>
	<polyline points="158.8,6.8 287.8,6.8 287.8,6.3 158.8,6.3 	"/>
	<polyline points="158.8,23 159.2,23 159.2,6.6 158.8,6.6 	"/>
	<polyline points="287.3,23 287.8,23 287.8,6.6 287.3,6.6 	"/>
	<polyline points="158.8,23.3 287.8,23.3 287.8,22.8 158.8,22.8 	"/>
	<g>
		<path class="st1" d="M50.2,104c0.2,0,0.9,0,0.9-0.1c0.1-0.1,0.2-0.6,0.2-0.9h0.2l-0.3,1.7h-3.7c0-0.2,0-0.3,0.1-0.4l1.9-2.1
			c0.5-0.6,1-1.4,1-2.2c0-0.8-0.4-1.6-1.3-1.6c-0.6,0-1.1,0.4-1.3,1c0,0,0,0,0.1,0c0.3,0,0.5,0.3,0.5,0.5c0,0.4-0.3,0.5-0.5,0.5
			c0,0-0.5,0-0.5-0.6c0-0.9,0.7-1.8,1.9-1.8c1.2,0,2.1,0.8,2.1,1.9c0,1-0.6,1.5-2.2,2.9l-1.1,1H50.2z"/>
	</g>
	<path class="st10" d="M94.4,90.9c0-1.2-1-2.2-2.2-2.2s-2.2,1-2.2,2.2c0,1.2,1,2.2,2.2,2.2S94.4,92.2,94.4,90.9L94.4,90.9z"/>
	<g>
		<path class="st1" d="M218.4,69.9c-1.1,0-1.9-0.9-1.9-1.9c0-1,0.9-1.9,1.9-1.9c1,0,1.9,0.9,1.9,1.9C220.3,69,219.4,69.9,218.4,69.9
			z M219.9,67.9c0-0.9-0.7-1.5-1.5-1.5c-0.9,0-1.5,0.7-1.5,1.5c0,0.8,0.7,1.5,1.5,1.5C219.2,69.5,219.9,68.8,219.9,67.9z"/>
		<path class="st1" d="M220.7,68.1c-0.2,0-0.3,0-0.3-0.2c0-0.2,0.2-0.2,0.3-0.2h5.4c0.2,0,0.3,0,0.3,0.2c0,0.2-0.2,0.2-0.3,0.2
			H220.7z"/>
		<path class="st1" d="M228.3,69.9c-1.1,0-1.9-0.9-1.9-1.9c0-1,0.9-1.9,1.9-1.9c1,0,1.9,0.9,1.9,1.9C230.3,69,229.4,69.9,228.3,69.9
			z M229.9,67.9c0-0.9-0.7-1.5-1.5-1.5c-0.9,0-1.5,0.7-1.5,1.5c0,0.8,0.7,1.5,1.5,1.5C229.2,69.5,229.9,68.8,229.9,67.9z"/>
	</g>
	<g>
		<path class="st1" d="M218.1,54.8h-0.5c-0.1-1.2-0.4-1.9-2-1.9h-1.4v2.7h0.5c1,0,1-0.4,1-1.2h0.5v2.8h-0.5c0-0.7-0.1-1.2-1-1.2
			h-0.5v2.7h1.3v0.5c-0.4,0-1.5,0-2,0c-0.4,0-1.4,0-1.8,0v-0.5h1.1v-5.8h-1.1v-0.5h6L218.1,54.8z"/>
		<path class="st1" d="M226.1,54.8h-0.5c-0.1-1.1-0.2-1.9-1.6-1.9h-0.8v5.8h1.5v0.5c-0.5,0-1.6,0-2.2,0s-1.7,0-2.2,0v-0.5h1.5v-5.8
			H221c-1.4,0-1.5,0.8-1.6,1.9H219l0.2-2.4h6.7L226.1,54.8z"/>
	</g>
	<g>
		<path class="st1" d="M226.8,52.8v-0.5h4.3c2,0,3.5,1.3,3.5,3.5c0,2.1-1.5,3.4-3.5,3.4h-4.3v-0.5h1.1v-5.9H226.8z M230.7,58.7
			c0.6,0,1.5-0.2,2-0.8c0.3-0.4,0.4-1,0.4-2.1c0-0.9-0.1-1.6-0.4-2.1c-0.5-0.7-1.3-0.9-2-0.9h-1.5v5.9H230.7z"/>
	</g>
</g>
</svg>
