<?xml version="1.0" encoding="utf-8"?>
<!-- Generator: Adobe Illustrator 22.1.0, SVG Export Plug-In . SVG Version: 6.00 Build 0)  -->
<svg version="1.1" id="Layer_1" xmlns="http://www.w3.org/2000/svg" xmlns:xlink="http://www.w3.org/1999/xlink" x="0px" y="0px"
	 viewBox="0 0 446 145.1" style="enable-background:new 0 0 446 145.1;" xml:space="preserve">
<style type="text/css">
	.st0{fill:none;stroke:#000000;stroke-width:0.8504;stroke-miterlimit:10;}
	.st1{fill:#1D1D1B;}
	.st2{fill:#FF0000;}
	.st3{fill:none;stroke:#000000;stroke-width:2.2677;stroke-miterlimit:10;}
	.st4{fill:none;stroke:#FF0000;stroke-width:2.2677;stroke-linecap:round;stroke-miterlimit:10;stroke-dasharray:0,5.0547;}
	.st5{fill:none;stroke:#000000;stroke-width:0.8504;stroke-linecap:round;stroke-miterlimit:10;stroke-dasharray:0,3.5527;}
	.st6{fill:none;stroke:#000000;stroke-width:2.2677;stroke-linecap:round;stroke-miterlimit:10;stroke-dasharray:0,5.2006;}
	.st7{fill:#FF0000;stroke:#FF0000;stroke-width:0.8504;stroke-miterlimit:10;}
	.st8{fill:none;stroke:#FC0000;stroke-width:2.2677;stroke-miterlimit:10;}
	.st9{fill:#00FF00;}
</style>
<g>
	<polyline points="208.1,92.4 212.6,90.2 208.1,87.9 209.2,90.2 	"/>
	<line class="st0" x1="0" y1="90.2" x2="209.2" y2="90.2"/>
	<polyline points="9.4,12.6 7.1,8.1 4.8,12.6 7.1,11.5 	"/>
	<line class="st0" x1="7.1" y1="98.4" x2="7.1" y2="11.5"/>
	<polyline points="433.1,92.4 437.6,90.2 433.1,87.9 434.2,90.2 	"/>
	<line class="st0" x1="233.9" y1="90.2" x2="434.2" y2="90.2"/>
	<polyline points="335.3,12.6 333.1,8.1 330.8,12.6 333.1,11.5 	"/>
	<line class="st0" x1="333.1" y1="97.3" x2="333.1" y2="11.5"/>
	<g>
		<path class="st1" d="M17.2,9C17,9.5,17,9.7,17,9.9c0,0.3,0.2,0.7,0.5,0.7c0.3,0,1-0.2,1.3-1.3c0-0.1,0-0.1,0.1-0.1
			c0,0,0.1,0,0.1,0.1c0,0.2-0.6,1.5-1.6,1.5c-0.6,0-1-0.4-1.1-0.8c0,0.1-0.4,0.8-1,0.8c-0.4,0-0.9-0.2-0.9-0.7
			c0-0.3,0.2-0.6,0.5-0.6c0.1,0,0.4,0.1,0.4,0.3c0,0.3-0.2,0.5-0.5,0.5c0.2,0.1,0.4,0.1,0.5,0.1c0.4,0,0.8-0.4,0.9-1
			c0.4-1.4,0.5-2.1,0.5-2.4c0-0.6-0.3-0.7-0.5-0.7c-0.3,0-1,0.2-1.3,1.3c0,0.1-0.1,0.1-0.1,0.1c0,0-0.1,0-0.1-0.1
			c0-0.2,0.6-1.5,1.6-1.5c0.3,0,0.8,0.1,1.1,0.8c0.1-0.2,0.5-0.8,1-0.8c0.3,0,0.9,0.1,0.9,0.7c0,0.4-0.3,0.6-0.5,0.6
			c-0.3,0-0.4-0.2-0.4-0.3c0-0.2,0.2-0.5,0.5-0.5c-0.2-0.1-0.4-0.1-0.5-0.1c-0.7,0-0.9,0.9-1,1.2L17.2,9z"/>
	</g>
	<g>
		<path class="st1" d="M21,13.1v-10h1.4v0.4h-1v9.2h1v0.4H21z"/>
	</g>
	<g>
		<path class="st1" d="M24,7.8c0.1-0.5,0.2-0.6,0.2-0.8c0-0.3-0.1-0.5-0.3-0.5c-0.4,0-0.6,0.5-0.7,1.2c-0.1,0.2-0.1,0.2-0.2,0.2
			c0,0-0.1,0-0.1-0.1c0,0,0.1-0.6,0.3-1c0.1-0.2,0.3-0.6,0.7-0.6c0.5,0,0.9,0.3,0.9,0.9c0.2-0.2,0.7-0.9,1.6-0.9
			c0.7,0,1.1,0.4,1.1,1.1c0,0.6-0.4,1.7-0.6,2.2c-0.1,0.2-0.2,0.5-0.2,0.7c0,0.2,0.1,0.3,0.2,0.3c0.5,0,0.8-0.6,1-1.2
			c0-0.1,0-0.2,0.1-0.2c0,0,0.1,0,0.1,0.1c0,0.1-0.4,1.5-1.3,1.5c-0.5,0-0.8-0.3-0.8-0.8c0-0.1,0-0.2,0.1-0.5
			c0.2-0.4,0.6-1.7,0.6-2.3c0-0.3-0.1-0.7-0.5-0.7c-0.9,0-1.5,0.9-1.6,1.2c0,0-0.1,0.3-0.1,0.5c0,0.2-0.1,0.4-0.2,0.7l-0.2,0.9
			C24.1,10,24,10.5,24,10.5c-0.1,0.2-0.2,0.3-0.4,0.3c-0.1,0-0.3-0.1-0.3-0.3c0-0.1,0.1-0.3,0.1-0.4L24,7.8z"/>
	</g>
	<g>
		<path class="st2" d="M36.1,6.3h-0.5c-0.1-1.1-0.2-1.9-1.6-1.9h-0.8v5.8h1.5v0.5c-0.5,0-1.6,0-2.2,0c-0.6,0-1.7,0-2.2,0v-0.5h1.5
			V4.4h-0.8c-1.4,0-1.5,0.8-1.6,1.9H29l0.2-2.4h6.7L36.1,6.3z"/>
	</g>
	<g>
		<path class="st2" d="M39.5,9.6c0,0.2,0,0.2-0.2,0.2c-0.2,0-0.2,0-0.2-0.2c0-0.2,0-0.5-0.8-0.5c-0.1,0-0.8,0-0.8,0.4
			c0,0.3,0.4,0.3,0.8,0.4c0.6,0.1,0.9,0.1,1.2,0.4c0.2,0.1,0.3,0.4,0.3,0.7c0,1-1.2,1-1.4,1c-0.2,0-0.5,0-0.9-0.2
			c0,0-0.2,0.1-0.2,0.1C37,12.1,37,12.1,37,12.1c-0.2,0-0.2-0.1-0.2-0.2v-0.7c0-0.2,0-0.2,0.2-0.2c0.2,0,0.2,0,0.2,0.1
			c0.1,0.4,0.4,0.7,1,0.7c0.2,0,0.9,0,0.9-0.5c0-0.4-0.5-0.4-0.9-0.5c-0.5-0.1-1.4-0.2-1.4-1c0-0.2,0.1-0.5,0.5-0.7
			c0.3-0.2,0.8-0.2,1-0.2c0.1,0,0.4,0,0.7,0.1c0,0,0,0,0,0c0,0,0.1,0,0.1,0c0.1-0.1,0.1-0.1,0.2-0.1c0.2,0,0.2,0.1,0.2,0.2V9.6z"/>
	</g>
	<g>
		<path class="st1" d="M42.3,13.1h-1.4v-0.4h1V3.6h-1V3.2h1.4V13.1z"/>
	</g>
	<g>
		<path class="st1" d="M346.6,6.1c0.1-0.1,0.2-0.2,0.2-0.4c0-0.3-0.3-0.3-0.4-0.3c-0.1,0-0.1,0-0.1-0.1c0-0.2,0.1-0.2,0.2-0.2
			c0.4,0,0.7,0,1.1,0c0.3,0,0.6,0,0.9,0c0.1,0,0.1,0.1,0.1,0.1c0,0.2-0.1,0.2-0.2,0.2c-0.6,0-1,0.3-1.3,0.5c-0.3,0.3-1.4,1.5-2,2.2
			c0.2,0.6,0.9,2.2,1.3,3.1c0.2,0.4,0.2,0.4,0.9,0.4c0.1,0,0.2,0,0.2,0.1c0,0.2-0.1,0.2-0.2,0.2c-0.2,0-0.9,0-1.1,0
			c-0.3,0-1,0-1.3,0c0,0-0.1,0-0.1-0.1c0-0.2,0.1-0.2,0.2-0.2c0.4,0,0.6-0.2,0.6-0.3c0,0,0,0,0-0.1l-1-2.4l-0.9,1l-1,1.1
			c-0.1,0.1-0.3,0.3-0.3,0.4c0,0.3,0.3,0.3,0.4,0.3c0,0,0.1,0,0.1,0.1c0,0.2-0.1,0.2-0.2,0.2c-0.4,0-0.7,0-1.1,0c-0.3,0-0.6,0-0.9,0
			c-0.1,0-0.1-0.1-0.1-0.1c0-0.2,0.1-0.2,0.2-0.2c0.5,0,1-0.2,1.5-0.7l0.1-0.1l2.1-2.3l-1.2-2.8c-0.1-0.2-0.1-0.3-0.7-0.3
			c-0.1,0-0.2,0-0.2-0.1c0-0.2,0.1-0.2,0.2-0.2c0.2,0,0.9,0,1.1,0c0.4,0,0.8,0,1.3,0c0,0,0.1,0,0.1,0.1c0,0.2-0.1,0.2-0.2,0.2
			c-0.4,0-0.6,0.2-0.6,0.3c0,0,0,0,0,0.1l0.8,2L346.6,6.1z"/>
	</g>
	<g>
		<path class="st1" d="M352.5,14.5c-0.1,0-1-0.6-1.6-1.9c-0.5-1.1-0.7-2.3-0.7-3.1c0-0.8,0.1-1.9,0.6-3c0.6-1.3,1.5-1.9,1.6-1.9
			c0.1,0,0.1,0,0.1,0.1c0,0,0,0-0.1,0.2c-1.2,1.2-1.6,3-1.6,4.7c0,1.5,0.3,3.4,1.6,4.7C352.6,14.3,352.6,14.3,352.5,14.5
			C352.6,14.4,352.6,14.5,352.5,14.5z"/>
		<path class="st1" d="M354.6,11.2c0.2,0.4,0.6,0.7,1.1,0.7c0.1,0,1,0,1.3-1c0-0.1,0-0.1,0.1-0.1c0,0,0.1,0,0.1,0.1
			c0,0.2-0.4,1.3-1.7,1.3c-1.1,0-2.2-1-2.2-2.3c0-1.2,0.9-2.3,2.1-2.3c1.2,0,1.8,1,1.8,2c0,0.2,0,0.2-0.2,0.2h-2.8
			C354.3,10,354.3,10.7,354.6,11.2z M356.6,9.5c0-0.4-0.1-1.7-1.1-1.7c-0.3,0-1.2,0.2-1.2,1.7H356.6z"/>
	</g>
	<g>
		<path class="st1" d="M359.6,8.9c0,0.9-0.6,1.5-1.4,1.5c-0.6,0-1.1-0.3-1.1-0.8c0-0.3,0.2-0.5,0.5-0.5c0.3,0,0.5,0.2,0.5,0.5
			c0,0.3-0.2,0.4-0.3,0.4c0.3,0.1,0.5,0.1,0.5,0.1c0.6,0,0.7-0.9,0.7-1.3V5c0-0.5-0.1-0.6-0.9-0.6V4.1l1.5-0.1V8.9z M359,2.8
			c-0.3,0-0.5-0.2-0.5-0.5s0.2-0.5,0.5-0.5s0.5,0.2,0.5,0.5S359.3,2.8,359,2.8z"/>
	</g>
	<g>
		<path class="st1" d="M365.6,8.4h-1.2c-0.2,0-0.2,0-0.2-0.2c0-0.5,0.3-1.1,0.4-1.5c0.2-0.5,0.4-1,0.4-1.5c0-1-0.8-1.5-1.6-1.5
			c-0.8,0-1.6,0.5-1.6,1.5c0,0.5,0.2,1,0.5,1.6c0.1,0.3,0.4,0.9,0.4,1.4c0,0.2,0,0.2-0.2,0.2h-1.3L361,7.2h0.2c0,0,0.1,0.4,0.1,0.5
			c0,0.1,0.1,0.1,0.5,0.1h0.6c-0.1-0.4-0.3-0.7-0.5-0.9c-0.5-0.7-0.8-1.1-0.8-1.7c0-0.9,1-1.7,2.3-1.7s2.4,0.8,2.4,1.7
			c0,0.6-0.3,1-0.6,1.5c-0.4,0.5-0.6,0.8-0.7,1.2h0.6c0.4,0,0.5-0.1,0.5-0.2c0.1-0.2,0.1-0.5,0.1-0.5h0.2L365.6,8.4z"/>
	</g>
	<g>
		<path class="st1" d="M369,12.5c-0.6,1.3-1.5,1.9-1.6,1.9c-0.1,0-0.1,0-0.1-0.1c0,0,0-0.1,0.1-0.2c1.2-1.3,1.6-3,1.6-4.7
			c0-2.1-0.6-3.7-1.5-4.7c-0.2-0.2-0.2-0.2-0.2-0.2c0-0.1,0-0.1,0.1-0.1c0.1,0,1,0.6,1.6,1.9c0.5,1.1,0.7,2.3,0.7,3.1
			C369.6,10.3,369.5,11.4,369,12.5z"/>
	</g>
	<g>
		<path class="st1" d="M201.5,102.3c0.1-0.5,0.2-0.6,0.2-0.8c0-0.3-0.1-0.5-0.3-0.5c-0.4,0-0.6,0.5-0.7,1.2
			c-0.1,0.2-0.1,0.2-0.2,0.2c0,0-0.1,0-0.1-0.1c0,0,0.1-0.6,0.3-1c0.1-0.2,0.3-0.6,0.7-0.6c0.5,0,0.9,0.3,0.9,0.9
			c0.2-0.2,0.7-0.9,1.6-0.9c0.7,0,1.1,0.4,1.1,1.1c0,0.6-0.4,1.7-0.6,2.2c-0.1,0.2-0.2,0.5-0.2,0.7c0,0.2,0.1,0.3,0.2,0.3
			c0.5,0,0.8-0.6,1-1.2c0-0.1,0-0.2,0.1-0.2c0,0,0.1,0,0.1,0.1c0,0.1-0.4,1.5-1.3,1.5c-0.5,0-0.8-0.3-0.8-0.8c0-0.1,0-0.2,0.1-0.5
			c0.2-0.4,0.6-1.7,0.6-2.3c0-0.3-0.1-0.7-0.5-0.7c-0.9,0-1.5,0.9-1.6,1.2c0,0-0.1,0.3-0.1,0.5c0,0.2-0.1,0.4-0.2,0.7l-0.2,0.9
			c-0.1,0.2-0.2,0.7-0.2,0.7c-0.1,0.2-0.2,0.3-0.4,0.3c-0.1,0-0.3-0.1-0.3-0.3c0,0,0.1-0.3,0.1-0.4L201.5,102.3z"/>
	</g>
	<g>
		<path class="st2" d="M213.6,100.9h-0.5c-0.1-1.1-0.2-1.9-1.6-1.9h-0.8v5.8h1.5v0.5c-0.5,0-1.6,0-2.2,0c-0.6,0-1.7,0-2.2,0v-0.5
			h1.5V99h-0.8c-1.4,0-1.5,0.8-1.6,1.9h-0.5l0.2-2.4h6.7L213.6,100.9z"/>
	</g>
	<g>
		<path class="st2" d="M217,104.2c0,0.2,0,0.2-0.2,0.2c-0.2,0-0.2,0-0.2-0.2c0-0.2,0-0.5-0.8-0.5c-0.1,0-0.8,0-0.8,0.4
			c0,0.3,0.4,0.3,0.8,0.4c0.6,0.1,0.9,0.1,1.2,0.4c0.2,0.1,0.3,0.4,0.3,0.7c0,1-1.2,1-1.4,1c-0.2,0-0.5,0-0.9-0.2
			c0,0-0.2,0.1-0.2,0.1c-0.1,0.1-0.2,0.1-0.2,0.1c-0.2,0-0.2-0.1-0.2-0.2v-0.7c0-0.2,0-0.2,0.2-0.2c0.2,0,0.2,0,0.2,0.1
			c0.1,0.4,0.4,0.7,1,0.7c0.2,0,0.9,0,0.9-0.5c0-0.4-0.5-0.4-0.9-0.5c-0.5-0.1-1.4-0.2-1.4-1c0-0.2,0.1-0.5,0.5-0.7
			c0.3-0.2,0.8-0.2,1-0.2c0.1,0,0.4,0,0.7,0.1c0,0,0,0,0,0c0,0,0.1,0,0.1,0c0.1-0.1,0.1-0.1,0.2-0.1c0.2,0,0.2,0.1,0.2,0.2V104.2z"
			/>
	</g>
	<g>
		<path class="st1" d="M404,105.9h-1.6c-0.2,0-0.3,0-0.3-0.2c0-0.7,0.3-1.6,0.5-2c0.3-0.8,0.6-1.6,0.6-2.3c0-1.6-1.1-2.3-2-2.3
			c-0.9,0-2,0.7-2,2.3c0,0.7,0.3,1.5,0.5,2.1c0.2,0.6,0.5,1.5,0.5,2.2c0,0.2,0,0.2-0.2,0.2h-1.6l-0.3-1.6h0.2c0,0.2,0.1,0.5,0.2,0.7
			c0,0.1,0.1,0.2,0.7,0.2h0.8c-0.1-0.6-0.4-1-0.9-1.7c-0.5-0.7-0.9-1.4-0.9-2.2c0-1.4,1.3-2.5,3-2.5c1.7,0,3,1.1,3,2.5
			c0,0.8-0.4,1.5-0.9,2.2c-0.4,0.7-0.8,1.1-0.9,1.7h0.8c0.6,0,0.6-0.1,0.7-0.2c0.1-0.2,0.1-0.5,0.2-0.7h0.3L404,105.9z"/>
		<path class="st1" d="M409.3,108.4v-10h1.4v0.4h-1v9.2h1v0.4H409.3z"/>
	</g>
	<g>
		<path class="st1" d="M413.8,101.5c0.4,0,0.7,0.3,0.7,0.6c0,0.3-0.2,0.4-0.4,0.4c-0.2,0-0.4-0.2-0.4-0.4c0-0.3,0.2-0.4,0.2-0.4
			c0,0,0,0-0.1,0c-0.8,0-1.2,0.9-1.2,1.9v1.5c0,0.4,0,0.5,0.8,0.5h0.2v0.3c-0.4,0-0.9,0-1.3,0c-0.3,0-0.7,0-1.1,0v-0.3
			c0.7,0,0.8,0,0.8-0.4v-2.7c0-0.5-0.1-0.6-0.8-0.6v-0.3l1.4-0.1v1.1C412.7,102.2,413,101.5,413.8,101.5z"/>
		<path class="st1" d="M416.8,106c-0.6,0-1.6-0.2-1.6-1.1c0-0.4,0.2-1,1-1.3c0.6-0.3,1.3-0.3,1.8-0.4V103c0-0.9-0.6-1.3-1.1-1.3
			c-0.3,0-0.8,0.1-1.1,0.5c0.5,0,0.5,0.3,0.5,0.5c0,0.3-0.2,0.5-0.5,0.5c-0.3,0-0.5-0.2-0.5-0.5c0-0.7,0.7-1.1,1.5-1.1
			c0.5,0,1,0.2,1.4,0.5c0.4,0.4,0.4,0.8,0.4,1.2v2c0,0,0,0.5,0.4,0.5c0.1,0,0.4-0.1,0.4-0.6v-0.6h0.2v0.6c0,0.8-0.6,0.9-0.8,0.9
			c-0.5,0-0.7-0.4-0.8-0.8C417.9,105.6,417.5,106,416.8,106z M416,105c0,0.5,0.4,0.8,0.9,0.8c0.4,0,1.2-0.3,1.2-1.3v-1
			C416.4,103.6,416,104.4,416,105z"/>
		<path class="st1" d="M422.3,106c-1.1,0-2.1-1-2.1-2.3c0-1.3,1-2.3,2.2-2.3c0.5,0,1,0.3,1.3,0.6V100c0-0.5-0.1-0.6-0.8-0.6v-0.3
			l1.4-0.1v6c0,0.5,0.1,0.6,0.8,0.6v0.3l-1.5,0.1v-0.7C423.3,105.7,422.9,106,422.3,106z M423.5,102.4c-0.3-0.4-0.7-0.6-1.1-0.6
			c-0.5,0-0.9,0.3-1.1,0.6c-0.3,0.4-0.3,1-0.3,1.4c0,0.4,0,1,0.3,1.4c0.2,0.4,0.6,0.6,1,0.6c0.4,0,0.9-0.2,1.2-0.7
			c0.1-0.2,0.1-0.2,0.1-0.4v-2C423.6,102.5,423.6,102.5,423.5,102.4z"/>
		<path class="st1" d="M426.3,108.2c0,0.1-0.1,0.2-0.2,0.2c-0.1,0-0.2-0.1-0.2-0.2c0,0,0,0,0-0.2l3.4-9.4c0-0.1,0.1-0.2,0.2-0.2
			c0.1,0,0.2,0.1,0.2,0.2c0,0,0,0,0,0.2L426.3,108.2z"/>
		<path class="st1" d="M431.1,103.5c-0.3-0.2-0.4-0.5-0.4-0.8c0-0.6,0.4-1.2,1.6-1.2c0.1,0,0.6,0,0.9,0.3c0,0,0.1-0.1,0.2-0.2
			c0.1-0.1,0.1-0.1,0.2-0.1c0.1,0,0.1,0.1,0.1,0.2v1c0,0.2,0,0.2-0.1,0.2c0,0-0.1,0-0.1-0.1c0-0.3-0.1-1.2-1.2-1.2
			c-0.9,0-1.1,0.4-1.1,0.8c0,0.6,0.7,0.7,1.2,0.8c0.4,0.1,0.8,0.2,1.1,0.5c0.1,0.1,0.4,0.4,0.4,0.9c0,0.7-0.5,1.4-1.6,1.4
			c-0.2,0-0.7,0-1.1-0.4c-0.2,0.2-0.2,0.2-0.2,0.2c-0.2,0.2-0.2,0.2-0.2,0.2c-0.1,0-0.1-0.1-0.1-0.2v-1.3c0-0.2,0-0.3,0.1-0.3
			c0.1,0,0.1,0,0.1,0.2c0.2,0.8,0.5,1.4,1.4,1.4c0.8,0,1.1-0.4,1.1-0.9c0-0.7-0.8-0.9-1-0.9C431.7,103.9,431.4,103.8,431.1,103.5z"
			/>
		<path class="st1" d="M435.7,105.1c0.2,0.4,0.6,0.7,1.1,0.7c0.1,0,1,0,1.3-1c0-0.1,0-0.1,0.1-0.1c0,0,0.1,0,0.1,0.1
			c0,0.2-0.4,1.3-1.7,1.3c-1.1,0-2.2-1-2.2-2.3c0-1.2,0.9-2.3,2.1-2.3c1.2,0,1.8,1,1.8,2c0,0.2,0,0.2-0.2,0.2h-2.8
			C435.4,104,435.4,104.7,435.7,105.1z M437.8,103.4c0-0.4-0.1-1.7-1.1-1.7c-0.3,0-1.2,0.3-1.2,1.7H437.8z"/>
		<path class="st1" d="M441.3,105.8c0.4,0,1-0.1,1.3-1c0-0.1,0-0.1,0.1-0.1c0,0,0.1,0,0.1,0.1s-0.3,1.3-1.7,1.3
			c-1.2,0-2.1-1-2.1-2.3c0-1.2,0.9-2.3,2.2-2.3c0.8,0,1.5,0.4,1.5,1.1c0,0.3-0.2,0.5-0.5,0.5c-0.3,0-0.5-0.2-0.5-0.5
			c0-0.1,0.1-0.4,0.5-0.5c-0.3-0.4-1-0.4-1.1-0.4c-0.5,0-1.3,0.4-1.3,2C439.9,105.4,440.8,105.8,441.3,105.8z"/>
		<path class="st1" d="M444.8,108.4h-1.4V108h1v-9.2h-1v-0.4h1.4V108.4z"/>
	</g>
	<path class="st3" d="M311.8,90.2c0,0,4.4-49.2,21.3-49.2s21.3,49.2,21.3,49.2l0,0"/>
	<path class="st4" d="M382.7,90.2c0,0,4.4-49.2,21.3-49.2c16.9,0,21.3,49.2,21.3,49.2l0,0"/>
	<path class="st4" d="M240.9,90.2c0,0,4.4-49.2,21.3-49.2c16.9,0,21.3,49.2,21.3,49.2l0,0"/>
	<path class="st0" d="M297.6,86.1v8.2 M368.5,86.1v8.2"/>
	<g>
		<path class="st1" d="M349.3,102.7c-0.4,0.7-0.8,1.4-1.6,1.4c-0.6,0-1-0.5-1.1-1c-0.4,0.5-0.8,1-1.5,1c-0.8,0-1-0.7-1-1.4
			c0-0.9,0.4-2.1,0.9-2.8c0.1-0.1,0.1-0.2,0.3-0.2c0.1,0,0.2,0.1,0.2,0.2c0,0.1-1,1.2-1,2.4c0,0.6,0.2,1.1,0.9,1.1
			c0.6,0,1-0.4,1.4-0.9c0-0.4,0.1-1,0.2-1.2c0.1-0.1,0.2-0.2,0.3-0.2c0.1,0,0.2,0.1,0.2,0.2c0,0.3-0.2,0.9-0.3,1.2
			c0.1,0.5,0.4,0.9,1,0.9c0.5,0,0.8-0.3,1.1-0.8c0.3-0.5,0.5-1,0.5-1.4c0-0.4-0.2-0.7-0.3-0.8c-0.1-0.1-0.1-0.2-0.1-0.3
			c0-0.2,0.3-0.5,0.5-0.5c0.2,0,0.4,0.2,0.4,0.7C350,100.8,349.6,102.2,349.3,102.7z"/>
	</g>
	<g>
		<path class="st1" d="M353.5,103.6c0.1-0.4,0.1-0.5,0.1-0.7c0-0.1,0-0.5-0.4-0.5c-0.5,0-0.9,0.4-1,0.6c-0.2,0.3-0.2,0.3-0.3,0.6
			c0,0.2-0.1,0.3-0.1,0.5c0,0.2-0.1,0.5-0.2,0.6c0,0.1-0.1,0.4-0.1,0.4c0,0.1-0.1,0.2-0.3,0.2c-0.1,0-0.2-0.1-0.2-0.2
			c0,0,0-0.2,0.1-0.3l0.2-0.9c0-0.2,0.1-0.4,0.2-0.6c0-0.2,0.1-0.4,0.1-0.6c0-0.2,0-0.3-0.2-0.3c-0.3,0-0.4,0.3-0.5,0.8
			c0,0.2-0.1,0.2-0.2,0.2c0,0-0.1,0-0.1-0.1c0,0,0.1-0.4,0.3-0.7c0.1-0.2,0.3-0.4,0.6-0.4c0.3,0,0.7,0.2,0.7,0.6
			c0.2-0.3,0.6-0.6,1.2-0.6c0.4,0,0.9,0.1,0.9,0.7c0.2-0.3,0.6-0.7,1.2-0.7c0.3,0,0.5,0.1,0.6,0.2c0.3,0.2,0.3,0.5,0.3,0.6
			c0,0.4-0.3,1.1-0.4,1.3c-0.1,0.3-0.2,0.4-0.2,0.6c0,0.1,0,0.2,0.2,0.2c0.3,0,0.6-0.3,0.7-0.8c0-0.1,0-0.1,0.1-0.1
			c0,0,0.1,0,0.1,0.1c0,0.1-0.3,1.1-1,1.1c-0.4,0-0.7-0.2-0.7-0.6c0-0.1,0-0.2,0.1-0.4c0.1-0.3,0.4-1.1,0.4-1.5c0-0.2,0-0.5-0.4-0.5
			c-0.5,0-0.9,0.4-1.1,0.7c-0.1,0.2-0.1,0.2-0.2,0.5c0,0.2-0.1,0.3-0.1,0.5c0,0.2-0.1,0.5-0.2,0.6c0,0.1-0.1,0.4-0.1,0.4
			c0,0.1-0.1,0.2-0.3,0.2c-0.1,0-0.2-0.1-0.2-0.2c0,0,0.1-0.3,0.1-0.4L353.5,103.6z"/>
	</g>
	<g>
		<path class="st1" d="M307,102v-0.6h2.6v0.6H307z"/>
	</g>
	<g>
		<path class="st1" d="M315.6,102.7c-0.4,0.7-0.8,1.4-1.6,1.4c-0.6,0-1-0.5-1.1-1c-0.4,0.5-0.8,1-1.5,1c-0.8,0-1-0.7-1-1.4
			c0-0.9,0.4-2.1,0.9-2.8c0.1-0.1,0.1-0.2,0.3-0.2c0.1,0,0.2,0.1,0.2,0.2c0,0.1-1,1.2-1,2.4c0,0.6,0.2,1.1,0.9,1.1
			c0.6,0,1-0.4,1.4-0.9c0-0.4,0.1-1,0.2-1.2c0.1-0.1,0.2-0.2,0.3-0.2c0.1,0,0.2,0.1,0.2,0.2c0,0.3-0.2,0.9-0.3,1.2
			c0.1,0.5,0.4,0.9,1,0.9c0.5,0,0.8-0.3,1.1-0.8c0.3-0.5,0.5-1,0.5-1.4c0-0.4-0.2-0.7-0.3-0.8c-0.1-0.1-0.1-0.2-0.1-0.3
			c0-0.2,0.3-0.5,0.5-0.5c0.2,0,0.4,0.2,0.4,0.7C316.2,100.8,315.9,102.2,315.6,102.7z"/>
	</g>
	<g>
		<path class="st1" d="M319.8,103.6c0.1-0.4,0.1-0.5,0.1-0.7c0-0.1,0-0.5-0.4-0.5c-0.5,0-0.9,0.4-1,0.6c-0.2,0.3-0.2,0.3-0.3,0.6
			c0,0.2-0.1,0.3-0.1,0.5c0,0.2-0.1,0.5-0.2,0.6c0,0.1-0.1,0.4-0.1,0.4c0,0.1-0.1,0.2-0.3,0.2c-0.1,0-0.2-0.1-0.2-0.2
			c0,0,0-0.2,0.1-0.3l0.2-0.9c0-0.2,0.1-0.4,0.2-0.6c0-0.2,0.1-0.4,0.1-0.6c0-0.2,0-0.3-0.2-0.3c-0.3,0-0.4,0.3-0.5,0.8
			c0,0.2-0.1,0.2-0.2,0.2c0,0-0.1,0-0.1-0.1c0,0,0.1-0.4,0.3-0.7c0.1-0.2,0.3-0.4,0.6-0.4c0.3,0,0.7,0.2,0.7,0.6
			c0.2-0.3,0.6-0.6,1.2-0.6c0.4,0,0.9,0.1,0.9,0.7c0.2-0.3,0.6-0.7,1.2-0.7c0.3,0,0.5,0.1,0.6,0.2c0.3,0.2,0.3,0.5,0.3,0.6
			c0,0.4-0.3,1.1-0.4,1.3c-0.1,0.3-0.2,0.4-0.2,0.6c0,0.1,0,0.2,0.2,0.2c0.3,0,0.6-0.3,0.7-0.8c0-0.1,0-0.1,0.1-0.1
			c0,0,0.1,0,0.1,0.1c0,0.1-0.3,1.1-1,1.1c-0.4,0-0.7-0.2-0.7-0.6c0-0.1,0-0.2,0.1-0.4c0.1-0.3,0.4-1.1,0.4-1.5c0-0.2,0-0.5-0.4-0.5
			c-0.5,0-0.9,0.4-1.1,0.7c-0.1,0.2-0.1,0.2-0.2,0.5c0,0.2-0.1,0.3-0.1,0.5c0,0.2-0.1,0.5-0.2,0.6c0,0.1-0.1,0.4-0.1,0.4
			c0,0.1-0.1,0.2-0.3,0.2c-0.1,0-0.2-0.1-0.2-0.2c0,0,0.1-0.3,0.1-0.4L319.8,103.6z"/>
	</g>
	<g>
		<path class="st1" d="M322.1,141.2c0.2,0,0.9,0,0.9-0.1c0.1-0.1,0.2-0.6,0.2-0.9h0.2l-0.3,1.7h-3.7c0-0.2,0-0.3,0.1-0.4l1.9-2.1
			c0.5-0.6,1-1.4,1-2.2c0-0.8-0.4-1.6-1.3-1.6c-0.6,0-1.1,0.4-1.3,1c0,0,0,0,0.1,0c0.3,0,0.5,0.3,0.5,0.5c0,0.4-0.3,0.5-0.5,0.5
			c0,0-0.5,0-0.5-0.6c0-0.9,0.7-1.8,1.9-1.8c1.2,0,2.1,0.8,2.1,1.9c0,1-0.6,1.5-2.2,2.9l-1.1,1H322.1z"/>
	</g>
	<g>
		<path class="st1" d="M326.2,140.4c-0.1,0.5-0.1,0.5-0.3,1c-0.1,0.4-0.2,0.6-0.5,0.6c-0.1,0-0.3-0.1-0.3-0.3c0-0.1,0-0.1,0.1-0.2
			c0.4-0.9,1-2.1,1.3-3.3h-0.6c-0.2,0-0.8,0-1.3,0.8c-0.1,0.1-0.1,0.1-0.2,0.1c-0.1,0-0.1-0.1-0.1-0.1c0,0,0.3-0.5,0.6-0.9
			c0.4-0.5,0.8-0.5,1-0.5h3.3c0.2,0,0.4,0,0.4,0.2c0,0.3-0.4,0.3-0.5,0.3h-1.1c-0.1,0.5-0.2,1.1-0.2,1.6c0,0.3,0,0.9,0.3,1.6
			c0.1,0.1,0.1,0.2,0.1,0.2c0,0.2-0.2,0.4-0.4,0.4c-0.1,0-0.3-0.1-0.4-0.5c-0.1-0.3-0.1-0.6-0.1-0.8c0-0.7,0.1-1.1,0.4-2.6h-1.1
			L326.2,140.4z"/>
		<path class="st1" d="M331.1,144.2c-0.1,0.2-0.1,0.2-0.2,0.2c-0.1,0-0.2-0.1-0.2-0.2c0,0,0,0,0-0.2l3.5-9.5c0-0.1,0.1-0.1,0.2-0.1
			c0.1,0,0.2,0.1,0.2,0.2c0,0,0,0,0,0.2L331.1,144.2z"/>
	</g>
	<g>
		<path class="st2" d="M342.7,137.6h-0.5c-0.1-1.1-0.2-1.9-1.6-1.9h-0.8v5.8h1.5v0.5c-0.5,0-1.6,0-2.2,0s-1.7,0-2.2,0v-0.5h1.5v-5.8
			h-0.8c-1.4,0-1.5,0.8-1.6,1.9h-0.5l0.2-2.4h6.7L342.7,137.6z"/>
	</g>
	<g>
		<path class="st2" d="M346.1,140.9c0,0.2,0,0.2-0.2,0.2c-0.2,0-0.2,0-0.2-0.2c0-0.2,0-0.5-0.8-0.5c-0.1,0-0.8,0-0.8,0.4
			c0,0.3,0.4,0.3,0.8,0.4c0.6,0.1,0.9,0.1,1.2,0.4c0.2,0.1,0.3,0.4,0.3,0.7c0,1-1.2,1-1.4,1c-0.2,0-0.5,0-0.9-0.2
			c0,0-0.2,0.1-0.2,0.1c-0.1,0.1-0.2,0.1-0.2,0.1c-0.2,0-0.2-0.1-0.2-0.2v-0.7c0-0.2,0-0.2,0.2-0.2c0.2,0,0.2,0,0.2,0.1
			c0.1,0.4,0.4,0.7,1,0.7c0.2,0,0.9,0,0.9-0.5c0-0.4-0.5-0.4-0.9-0.5c-0.5-0.1-1.4-0.2-1.4-1c0-0.2,0.1-0.5,0.5-0.7
			c0.3-0.2,0.8-0.2,1-0.2c0.1,0,0.4,0,0.7,0.1c0,0,0,0,0,0c0,0,0.1,0,0.1,0c0.1-0.1,0.1-0.1,0.2-0.1c0.2,0,0.2,0.1,0.2,0.2V140.9z"
			/>
	</g>
	<g>
		<path class="st2" d="M334.2,117.8h-0.2c-0.2-1.4-0.4-1.9-1.9-1.9h-1.2c-0.5,0-0.5,0.1-0.5,0.4v2.5h0.9c1,0,1.1-0.3,1.1-1.2h0.2
			v2.6h-0.2c0-0.8-0.1-1.2-1.1-1.2h-0.9v2.5c0,0.3,0,0.5,0.9,0.5h0.3v0.3c-0.4,0-1.3,0-1.7,0c-0.4,0-1.2,0-1.5,0v-0.3h0.2
			c0.8,0,0.8-0.1,0.8-0.5v-5.2c0-0.4,0-0.5-0.8-0.5h-0.2v-0.3h5.5L334.2,117.8z"/>
		<path class="st2" d="M336.8,121.6c0,0.4,0,0.5,0.8,0.5h0.3v0.3c-0.3,0-1.1,0-1.5,0c-0.4,0-1.2,0-1.5,0v-0.3h0.3
			c0.8,0,0.8-0.1,0.8-0.5v-5.3c0-0.4,0-0.5-0.8-0.5h-0.3v-0.3c0.3,0,1.1,0,1.5,0c0.4,0,1.2,0,1.5,0v0.3h-0.3c-0.8,0-0.8,0.1-0.8,0.5
			V121.6z"/>
	</g>
	<g>
		<path class="st1" d="M8.8,103.8c-0.4,0.9-1.2,1.2-1.7,1.2c-0.5,0-1.2-0.2-1.6-1C5,103.2,5,102.3,5,101.5c0-0.8,0-1.6,0.4-2.3
			c0.4-0.9,1.1-1.2,1.7-1.2c0.4,0,1.2,0.2,1.7,1.1c0.3,0.7,0.4,1.5,0.4,2.3C9.2,102.3,9.1,103.1,8.8,103.8z M8.2,103.5
			c0.1-0.6,0.1-1.3,0.1-2.1c0-0.6,0-1.4-0.1-1.9c-0.2-1-0.8-1.2-1.2-1.2c-0.2,0-1,0.1-1.2,1.3c-0.1,0.5-0.1,1.2-0.1,1.8
			c0,0.6,0,1.5,0.1,2.1c0.2,1,0.8,1.2,1.2,1.2C7.5,104.7,8.1,104.4,8.2,103.5z"/>
	</g>
	<g>
		<path class="st1" d="M21.2,103.5c0,0.4,0,0.5,0.9,0.5h0.3v0.3c-0.3,0-1.2,0-1.6,0c-0.4,0-1.3,0-1.6,0v-0.3h0.3
			c0.9,0,0.9-0.1,0.9-0.5v-5.2c-0.5,0.3-1.1,0.3-1.3,0.3v-0.3c0.3,0,1.2,0,1.8-0.6c0.2,0,0.2,0,0.2,0.3V103.5z"/>
	</g>
	<g>
		<path class="st2" d="M34.1,99.9h-0.5C33.5,98.8,33.4,98,32,98h-0.8v5.8h1.5v0.5c-0.5,0-1.6,0-2.2,0c-0.6,0-1.7,0-2.2,0v-0.5h1.5
			V98H29c-1.4,0-1.5,0.8-1.6,1.9h-0.5l0.2-2.4h6.7L34.1,99.9z"/>
	</g>
	<g>
		<path class="st2" d="M37.5,103.2c0,0.2,0,0.2-0.2,0.2c-0.2,0-0.2,0-0.2-0.2c0-0.2,0-0.5-0.8-0.5c-0.1,0-0.8,0-0.8,0.4
			c0,0.3,0.4,0.3,0.8,0.4c0.6,0.1,0.9,0.1,1.2,0.4c0.2,0.1,0.3,0.4,0.3,0.7c0,1-1.2,1-1.4,1c-0.2,0-0.5,0-0.9-0.2
			c0,0-0.2,0.1-0.2,0.1c-0.1,0.1-0.2,0.1-0.2,0.1c-0.2,0-0.2-0.1-0.2-0.2v-0.7c0-0.2,0-0.2,0.2-0.2c0.2,0,0.2,0,0.2,0.1
			c0.1,0.4,0.4,0.7,1,0.7c0.2,0,0.9,0,0.9-0.5c0-0.4-0.5-0.4-0.9-0.5c-0.5-0.1-1.4-0.2-1.4-1c0-0.2,0.1-0.5,0.5-0.7
			c0.3-0.2,0.8-0.2,1-0.2c0.1,0,0.4,0,0.7,0.1c0,0,0,0,0,0c0,0,0.1,0,0.1,0c0.1-0.1,0.1-0.1,0.2-0.1c0.2,0,0.2,0.1,0.2,0.2V103.2z"
			/>
	</g>
	<path class="st0" d="M49.6,16.3v8.2 M70.9,24.5v-8.2"/>
	<polyline points="54.1,18.1 49.6,20.4 54.1,22.7 53,20.4 	"/>
	<polyline points="66.3,22.7 70.9,20.4 66.3,18.1 67.5,20.4 	"/>
	<line class="st0" x1="53" y1="20.4" x2="67.5" y2="20.4"/>
	<g>
		<path class="st2" d="M61.8,10.7h-0.5c-0.1-1.1-0.2-1.9-1.6-1.9h-0.8v5.8h1.5V15c-0.5,0-1.6,0-2.2,0c-0.6,0-1.7,0-2.2,0v-0.5h1.5
			V8.7h-0.8c-1.4,0-1.5,0.8-1.6,1.9h-0.5l0.2-2.4h6.7L61.8,10.7z"/>
	</g>
	<g>
		<path class="st2" d="M65.2,14c0,0.2,0,0.2-0.2,0.2c-0.2,0-0.2,0-0.2-0.2c0-0.2,0-0.5-0.8-0.5c-0.1,0-0.8,0-0.8,0.4
			c0,0.3,0.4,0.3,0.8,0.4c0.6,0.1,0.9,0.1,1.2,0.4c0.2,0.1,0.3,0.4,0.3,0.7c0,1-1.2,1-1.4,1c-0.2,0-0.5,0-0.9-0.2
			c0,0-0.2,0.1-0.2,0.1c-0.1,0.1-0.2,0.1-0.2,0.1c-0.2,0-0.2-0.1-0.2-0.2v-0.7c0-0.2,0-0.2,0.2-0.2c0.2,0,0.2,0,0.2,0.1
			c0.1,0.4,0.4,0.7,1,0.7c0.2,0,0.9,0,0.9-0.5c0-0.4-0.5-0.4-0.9-0.5c-0.5-0.1-1.4-0.2-1.4-1c0-0.2,0.1-0.5,0.5-0.7
			c0.3-0.2,0.8-0.2,1-0.2c0.1,0,0.4,0,0.7,0.1c0,0,0,0,0,0c0,0,0.1,0,0.1,0c0.1-0.1,0.1-0.1,0.2-0.1c0.2,0,0.2,0.1,0.2,0.2V14z"/>
	</g>
	<path class="st5" d="M297.6,98.4v32.8 M368.5,98.4v32.8"/>
	<polyline points="302.2,124.8 297.6,127.1 302.2,129.4 301,127.1 	"/>
	<polyline points="364,129.4 368.5,127.1 364,124.8 365.1,127.1 	"/>
	<path class="st0" d="M301,127.1h64.1 M354.3,86.1v8.2 M311.8,86.1v8.2"/>
	<path class="st6" d="M7.1,40.9c0,0,7.7,23.8,17.7,24.6c11.5,1,13.1-23.9,24.8-24.6c9-0.6,21.3,16.4,21.3,16.4l0,0"/>
	<path class="st7" d="M94.4,90.2c0-1.2-1-2.2-2.2-2.2S90,89,90,90.2s1,2.2,2.2,2.2S94.4,91.4,94.4,90.2L94.4,90.2z"/>
	<path class="st8" d="M70.9,90.2V57.3 M49.6,90.2V40.9 M28.3,90.2V65.5 M7.1,90.2V40.9"/>
	<path class="st7" d="M73.1,57.3c0-1.2-1-2.2-2.2-2.2c-1.2,0-2.2,1-2.2,2.2s1,2.2,2.2,2.2C72.1,59.5,73.1,58.6,73.1,57.3L73.1,57.3z
		"/>
	<path class="st7" d="M51.9,41c0-1.2-1-2.2-2.2-2.2c-1.2,0-2.2,1-2.2,2.2c0,1.2,1,2.2,2.2,2.2C50.9,43.2,51.9,42.2,51.9,41L51.9,41z
		"/>
	<path class="st7" d="M30.5,65.6c0-1.2-1-2.2-2.2-2.2c-1.2,0-2.2,1-2.2,2.2c0,1.2,1,2.2,2.2,2.2C29.5,67.8,30.5,66.8,30.5,65.6
		L30.5,65.6z"/>
	<path class="st7" d="M9.3,41c0-1.2-1-2.2-2.2-2.2s-2.2,1-2.2,2.2c0,1.2,1,2.2,2.2,2.2S9.3,42.2,9.3,41L9.3,41z"/>
	<g>
		<path class="st1" d="M218.4,66.4c-1.1,0-1.9-0.9-1.9-1.9c0-1,0.9-1.9,1.9-1.9c1,0,1.9,0.9,1.9,1.9
			C220.3,65.5,219.4,66.4,218.4,66.4z M219.9,64.4c0-0.9-0.7-1.5-1.5-1.5c-0.9,0-1.5,0.7-1.5,1.5c0,0.8,0.7,1.5,1.5,1.5
			C219.2,66,219.9,65.3,219.9,64.4z"/>
		<path class="st1" d="M220.7,64.6c-0.2,0-0.3,0-0.3-0.2c0-0.2,0.2-0.2,0.3-0.2h5.4c0.2,0,0.3,0,0.3,0.2c0,0.2-0.2,0.2-0.3,0.2
			H220.7z"/>
		<path class="st1" d="M228.3,66.4c-1.1,0-1.9-0.9-1.9-1.9c0-1,0.9-1.9,1.9-1.9c1,0,1.9,0.9,1.9,1.9
			C230.3,65.5,229.4,66.4,228.3,66.4z M229.9,64.4c0-0.9-0.7-1.5-1.5-1.5c-0.9,0-1.5,0.7-1.5,1.5c0,0.8,0.7,1.5,1.5,1.5
			C229.2,66,229.9,65.3,229.9,64.4z"/>
	</g>
	<g>
		<path class="st9" d="M360.1,77.8c-0.1,0.5-0.1,0.5-0.3,1c-0.1,0.4-0.2,0.6-0.5,0.6c-0.1,0-0.3-0.1-0.3-0.3c0-0.1,0-0.1,0.1-0.2
			c0.4-0.9,1-2.1,1.3-3.3h-0.6c-0.2,0-0.8,0-1.3,0.8c-0.1,0.1-0.1,0.1-0.2,0.1c-0.1,0-0.1-0.1-0.1-0.1c0,0,0.3-0.5,0.6-0.9
			c0.4-0.5,0.8-0.5,1-0.5h3.3c0.2,0,0.4,0,0.4,0.2c0,0.3-0.4,0.3-0.5,0.3H362c-0.1,0.5-0.2,1.1-0.2,1.6c0,0.3,0,0.9,0.3,1.6
			c0.1,0.1,0.1,0.2,0.1,0.2c0,0.2-0.2,0.4-0.4,0.4c-0.1,0-0.3-0.1-0.4-0.5c-0.1-0.3-0.1-0.6-0.1-0.8c0-0.7,0.1-1.1,0.4-2.6h-1.1
			L360.1,77.8z"/>
		<path class="st9" d="M364.9,81.5c-0.1,0.2-0.1,0.2-0.2,0.2c-0.1,0-0.2-0.1-0.2-0.2c0,0,0,0,0-0.2l3.5-9.5c0-0.1,0.1-0.1,0.2-0.1
			c0.1,0,0.2,0.1,0.2,0.2c0,0,0,0,0,0.2L364.9,81.5z"/>
	</g>
	<g>
		<path class="st9" d="M371.9,78.5c0,0.1,0,0.2,0,0.2c0,0.2,0.1,0.2,0.4,0.2c0.3,0,0.4,0,0.6,0c0.3,0,0.3,0,0.3,0.1
			c0,0.2-0.1,0.2-0.2,0.2c-0.3,0-0.6,0-0.9,0c-0.3,0-0.5,0-0.8,0c-0.3,0-0.6,0-0.8,0c-0.3,0-0.5,0-0.8,0c-0.1,0-0.2,0-0.2-0.1
			c0-0.2,0.1-0.2,0.4-0.2c1.1,0,1.1-0.1,1.2-0.5l1.3-5.3c0,0,0-0.1,0-0.2c0-0.1,0-0.1-0.3-0.1h-0.4c-1.5,0-1.7,0.2-2.3,1.7
			c-0.1,0.2-0.1,0.2-0.2,0.2c-0.1,0-0.1,0-0.1-0.1c0,0,0-0.2,0.1-0.2l0.6-1.8c0.1-0.2,0.1-0.2,0.3-0.2h5.5c0.2,0,0.3,0,0.3,0.1
			c0,0,0,0.1,0,0.2l-0.3,1.7c0,0.1,0,0.2-0.1,0.2c-0.1,0-0.1-0.1-0.1-0.1c0,0,0-0.2,0-0.2c0-0.3,0.1-0.6,0.1-0.8
			c0-0.8-0.4-0.8-1.5-0.8c-0.2,0-0.5,0-0.6,0c-0.1,0-0.2,0.1-0.2,0.4L371.9,78.5z"/>
	</g>
	<g>
		<path class="st9" d="M377.2,77.9c-0.1,0-0.4,0-0.6,0.1c-0.2,0.1-0.3,0.3-0.3,0.4c0,0.2,0.1,0.3,0.4,0.3c0,0,0.2,0,0.3,0.1
			c0.3,0,1,0.2,1,0.8c0,0.3-0.2,1.2-1.5,1.2c-0.7,0-1.1-0.3-1.1-0.7c0-0.3,0.2-0.5,0.4-0.5c0.1,0,0.3,0.1,0.3,0.3
			c0,0.2-0.2,0.4-0.4,0.4c0.2,0.2,0.6,0.3,0.8,0.3c0.1,0,0.4,0,0.7-0.2c0.3-0.2,0.4-0.4,0.4-0.6c0-0.3-0.4-0.4-0.6-0.5
			c-0.5-0.1-0.6-0.1-0.8-0.3c-0.1-0.1-0.2-0.3-0.2-0.5c0-0.2,0.2-1,1.3-1c0.4,0,0.9,0.2,0.9,0.6c0,0.4-0.3,0.4-0.3,0.4
			c-0.1,0-0.2-0.1-0.2-0.2c0-0.1,0.1-0.3,0.3-0.3C377.7,77.9,377.4,77.9,377.2,77.9z"/>
	</g>
	<g>
		<path class="st9" d="M284.4,77c-0.2,0-0.3,0-0.3-0.2s0.2-0.2,0.3-0.2h5.4c0.2,0,0.3,0,0.3,0.2s-0.2,0.2-0.3,0.2H284.4z"/>
	</g>
	<g>
		<path class="st9" d="M293.1,77.8c-0.1,0.5-0.1,0.5-0.3,1c-0.1,0.4-0.2,0.6-0.5,0.6c-0.1,0-0.3-0.1-0.3-0.3c0-0.1,0-0.1,0.1-0.2
			c0.4-0.9,1-2.1,1.3-3.3h-0.6c-0.2,0-0.8,0-1.3,0.8c-0.1,0.1-0.1,0.1-0.2,0.1c-0.1,0-0.1-0.1-0.1-0.1c0,0,0.3-0.5,0.6-0.9
			c0.4-0.5,0.8-0.5,1-0.5h3.3c0.2,0,0.4,0,0.4,0.2c0,0.3-0.4,0.3-0.5,0.3H295c-0.1,0.5-0.2,1.1-0.2,1.6c0,0.3,0,0.9,0.3,1.6
			c0.1,0.1,0.1,0.2,0.1,0.2c0,0.2-0.2,0.4-0.4,0.4c-0.1,0-0.3-0.1-0.4-0.5c-0.1-0.3-0.1-0.6-0.1-0.8c0-0.7,0.1-1.1,0.4-2.6h-1.1
			L293.1,77.8z"/>
		<path class="st9" d="M298,81.5c-0.1,0.2-0.1,0.2-0.2,0.2c-0.1,0-0.2-0.1-0.2-0.2c0,0,0,0,0-0.2l3.5-9.5c0-0.1,0.1-0.1,0.2-0.1
			c0.1,0,0.2,0.1,0.2,0.2c0,0,0,0,0,0.2L298,81.5z"/>
	</g>
	<g>
		<path class="st9" d="M305,78.5c0,0.1,0,0.2,0,0.2c0,0.2,0.1,0.2,0.4,0.2c0.3,0,0.4,0,0.6,0c0.3,0,0.3,0,0.3,0.1
			c0,0.2-0.1,0.2-0.2,0.2c-0.3,0-0.6,0-0.9,0c-0.3,0-0.5,0-0.8,0c-0.3,0-0.6,0-0.8,0c-0.3,0-0.5,0-0.8,0c-0.1,0-0.2,0-0.2-0.1
			c0-0.2,0.1-0.2,0.4-0.2c1.1,0,1.1-0.1,1.2-0.5l1.3-5.3c0,0,0-0.1,0-0.2c0-0.1,0-0.1-0.3-0.1h-0.4c-1.5,0-1.7,0.2-2.3,1.7
			c-0.1,0.2-0.1,0.2-0.2,0.2c-0.1,0-0.1,0-0.1-0.1c0,0,0-0.2,0.1-0.2l0.6-1.8c0.1-0.2,0.1-0.2,0.3-0.2h5.5c0.2,0,0.3,0,0.3,0.1
			c0,0,0,0.1,0,0.2l-0.3,1.7c0,0.1,0,0.2-0.1,0.2c-0.1,0-0.1-0.1-0.1-0.1c0,0,0-0.2,0-0.2c0-0.3,0.1-0.6,0.1-0.8
			c0-0.8-0.4-0.8-1.5-0.8c-0.2,0-0.5,0-0.6,0c-0.1,0-0.2,0.1-0.2,0.4L305,78.5z"/>
	</g>
	<g>
		<path class="st9" d="M310.3,77.9c-0.1,0-0.4,0-0.6,0.1c-0.2,0.1-0.3,0.3-0.3,0.4c0,0.2,0.1,0.3,0.4,0.3c0,0,0.2,0,0.3,0.1
			c0.3,0,1,0.2,1,0.8c0,0.3-0.2,1.2-1.5,1.2c-0.7,0-1.1-0.3-1.1-0.7c0-0.3,0.2-0.5,0.4-0.5c0.1,0,0.3,0.1,0.3,0.3
			c0,0.2-0.2,0.4-0.4,0.4c0.2,0.2,0.6,0.3,0.8,0.3c0.1,0,0.4,0,0.7-0.2c0.3-0.2,0.4-0.4,0.4-0.6c0-0.3-0.4-0.4-0.6-0.5
			c-0.5-0.1-0.6-0.1-0.8-0.3c-0.1-0.1-0.2-0.3-0.2-0.5c0-0.2,0.2-1,1.3-1c0.4,0,0.9,0.2,0.9,0.6c0,0.4-0.3,0.4-0.3,0.4
			c-0.1,0-0.2-0.1-0.2-0.2c0-0.1,0.1-0.3,0.3-0.3C310.8,77.9,310.4,77.9,310.3,77.9z"/>
	</g>
	<g>
		<path class="st1" d="M169.4,15.3v-4c0-0.2,0-0.2-0.3-0.3c-0.2,0-0.3,0-0.5,0h-0.2v-0.5c0.4,0,0.9,0,1.3,0c0.4,0,1,0,1.3,0V11h-0.2
			c-0.3,0-0.3,0-0.5,0c-0.3,0-0.3,0-0.3,0.3v5.8c0,0.2,0,0.3-0.3,0.3c-0.2,0-0.2,0-0.3-0.1l-5-5.8v5.2c0,0.2,0,0.2,0.3,0.3
			c0.2,0,0.3,0,0.5,0h0.2v0.5c-0.4,0-0.9,0-1.3,0c-0.4,0-1,0-1.3,0v-0.5h0.2c0.3,0,0.3,0,0.5,0c0.3,0,0.3,0,0.3-0.3V11h-1.1v-0.5
			h2.3c0.2,0,0.2,0,0.3,0.1L169.4,15.3z"/>
		<path class="st1" d="M174.3,17.4c-1.7,0-2.5-1-2.5-2.2c0-1.3,0.9-2.3,2.5-2.3c1.6,0,2.5,1,2.5,2.3C176.9,16.4,176,17.4,174.3,17.4
			z M175.6,15.1c0-0.5,0-1-0.2-1.4c-0.2-0.3-0.6-0.5-1.1-0.5c-0.5,0-0.9,0.2-1.1,0.6c-0.2,0.3-0.2,0.8-0.2,1.3c0,0.9,0,1.9,1.3,1.9
			C175.6,17,175.6,16,175.6,15.1z"/>
	</g>
	<g>
		<path class="st1" d="M183.3,17.4c-0.7,0-1.9-0.2-1.9-1.1c0-1.4,2.5-1.5,3.2-1.6v-0.3c0-0.8-0.3-1.2-1.1-1.2c-0.1,0-0.4,0-0.7,0.1
			c0,0,0.2,0.2,0.2,0.5c0,0.4-0.3,0.6-0.6,0.6c-0.3,0-0.6-0.2-0.6-0.6c0-0.9,1.2-0.9,1.8-0.9c1.5,0,2.2,0.6,2.2,1.5v2.1
			c0,0.2,0,0.4,0.6,0.4c0.1,0,0.3,0,0.3,0.2c0,0.2-0.1,0.2-0.3,0.2h-0.5c-1,0-1-0.5-1-0.8C184.6,17,184.1,17.4,183.3,17.4z
			 M182.6,16.3c0,0.4,0.4,0.8,0.9,0.8c0.2,0,1.2-0.1,1.2-1.1V15C184.1,15.1,182.6,15.2,182.6,16.3z"/>
		<path class="st1" d="M188.9,16.9h0.7v0.5c-0.3,0-0.8,0-1.2,0c-0.4,0-0.9,0-1.2,0v-0.5h0.7v-5.5c0-0.4-0.1-0.4-0.7-0.4v-0.5
			l1.8-0.1V16.9z"/>
		<path class="st1" d="M192.1,16.9h0.6v0.5c-0.4,0-0.9,0-1.2,0c-0.4,0-0.9,0-1.2,0v-0.5h0.7v-3.1c0-0.4-0.1-0.4-0.7-0.4V13l1.7-0.1
			V16.9z M191.5,12c-0.4,0-0.8-0.3-0.8-0.8c0-0.4,0.3-0.8,0.8-0.8c0.4,0,0.8,0.3,0.8,0.8S191.9,12,191.5,12z"/>
		<path class="st1" d="M195.4,17.4c-0.7,0-1.9-0.2-1.9-1.1c0-1.4,2.5-1.5,3.2-1.6v-0.3c0-0.8-0.3-1.2-1.1-1.2c-0.1,0-0.4,0-0.7,0.1
			c0,0,0.2,0.2,0.2,0.5c0,0.4-0.3,0.6-0.6,0.6c-0.3,0-0.6-0.2-0.6-0.6c0-0.9,1.2-0.9,1.8-0.9c1.5,0,2.2,0.6,2.2,1.5v2.1
			c0,0.2,0,0.4,0.6,0.4c0.1,0,0.3,0,0.3,0.2c0,0.2-0.1,0.2-0.3,0.2h-0.5c-1,0-1-0.5-1-0.8C196.6,17,196.2,17.4,195.4,17.4z
			 M194.6,16.3c0,0.4,0.4,0.8,0.9,0.8c0.2,0,1.2-0.1,1.2-1.1V15C196.2,15.1,194.6,15.2,194.6,16.3z"/>
		<path class="st1" d="M202.3,14.9c0.3,0.3,0.5,0.6,0.5,1.1c0,1.5-1.5,1.5-1.8,1.5c-0.2,0-0.7,0-1.2-0.3c0,0-0.2,0.2-0.3,0.2
			c-0.2,0.1-0.2,0.1-0.3,0.1c-0.2,0-0.2-0.1-0.2-0.3v-1.1c0-0.2,0-0.3,0.2-0.3c0.1,0,0.2,0,0.2,0.1c0.1,0.4,0.4,1.2,1.4,1.2
			c0.2,0,1.1,0,1.1-0.7c0-0.6-0.7-0.7-1.1-0.8c-0.8-0.1-1.1-0.2-1.5-0.5c-0.2-0.2-0.4-0.4-0.4-0.8c0-1.3,1.5-1.3,1.8-1.3
			c0.4,0,0.7,0.1,1,0.2c0.4-0.2,0.4-0.2,0.4-0.2c0.2,0,0.2,0.1,0.2,0.3v0.8c0,0.2,0,0.3-0.2,0.3c-0.2,0-0.2,0-0.2-0.2
			c0-0.5-0.4-0.8-1.2-0.8c-0.2,0-1.1,0-1.1,0.6c0,0.5,0.6,0.6,1,0.6C201.6,14.6,201.9,14.6,202.3,14.9z"/>
		<path class="st1" d="M205.5,16.9h0.6v0.5c-0.4,0-0.9,0-1.2,0c-0.4,0-0.9,0-1.2,0v-0.5h0.7v-3.1c0-0.4-0.1-0.4-0.7-0.4V13l1.7-0.1
			V16.9z M204.8,12c-0.4,0-0.8-0.3-0.8-0.8c0-0.4,0.3-0.8,0.8-0.8c0.4,0,0.8,0.3,0.8,0.8S205.3,12,204.8,12z"/>
		<path class="st1" d="M207,13.4V13l1.7-0.1V14c0.3-0.5,0.8-1.1,1.7-1.1c1,0,1.5,0.4,1.5,1.4v2.6h0.7v0.5c-0.3,0-0.9,0-1.3,0
			c-0.4,0-1,0-1.3,0v-0.5h0.7v-2.7c0-0.8-0.2-1-0.5-1c-0.6,0-1.5,0.5-1.5,1.6v2.1h0.7v0.5c-0.3,0-0.9,0-1.3,0c-0.4,0-1,0-1.3,0v-0.5
			h0.7v-3.1C207.6,13.4,207.6,13.4,207,13.4z"/>
		<path class="st1" d="M214.1,15.9c0,0.2,0.1,0.6,0.5,0.6c0,0,0.5,0,0.8,0c1,0,1.6,0,2.1,0.3c0.7,0.3,0.7,1,0.7,1.3
			c0,0.7-0.8,1.3-2.5,1.3c-2,0-2.5-0.7-2.5-1.3c0-0.6,0.7-0.8,0.9-0.9c-0.4-0.3-0.4-0.8-0.4-1c0-0.2,0.1-0.5,0.3-0.9
			c-0.3-0.2-0.5-0.6-0.5-1c0-0.7,0.5-1.5,2-1.5c0.7,0,1.2,0.2,1.3,0.3c0.4-0.3,0.9-0.4,1.1-0.4c0.5,0,0.6,0.3,0.6,0.6
			c0,0.2-0.2,0.4-0.4,0.4c-0.3,0-0.4-0.2-0.4-0.4c0-0.1,0-0.1,0-0.2c-0.1,0-0.3,0-0.6,0.2c0.1,0.2,0.4,0.5,0.4,1
			c0,0.7-0.5,1.5-2,1.5c-0.2,0-0.8,0-1.2-0.3C214.2,15.7,214.1,15.8,214.1,15.9z M214.1,18.1c0,0.5,0.5,0.9,1.7,0.9
			c1.3,0,1.7-0.5,1.7-0.9c0-0.6-1.1-0.6-1.4-0.6h-1.2C214.7,17.5,214.1,17.5,214.1,18.1z M216.3,14.4c0-0.4,0-1.1-0.9-1.1
			c-0.9,0-0.9,0.7-0.9,1.1c0,0.4,0,1.1,0.9,1.1C216.3,15.5,216.3,14.8,216.3,14.4z"/>
	</g>
	<g>
		<path class="st1" d="M224.4,16.9h0.6v0.5c-0.4,0-0.9,0-1.2,0c-0.4,0-0.9,0-1.2,0v-0.5h0.7v-3.1c0-0.4-0.1-0.4-0.7-0.4V13l1.7-0.1
			V16.9z M223.7,12c-0.4,0-0.8-0.3-0.8-0.8c0-0.4,0.3-0.8,0.8-0.8c0.4,0,0.8,0.3,0.8,0.8S224.1,12,223.7,12z"/>
		<path class="st1" d="M230.7,16.9h0.9v0.5c-0.4,0-1,0-1.4,0c-0.5,0-0.9,0-1.3,0v-0.5h0.7v-3.5h-2.1v3.5h0.7v0.5c-0.3,0-0.8,0-1.2,0
			c-0.4,0-0.9,0-1.2,0v-0.5h0.7v-3.5h-0.7V13h0.7v-1c0-1.2,1.4-1.6,2.6-1.6c0.2,0,0.8,0,1.2,0.3c0.5-0.3,1-0.3,1.4-0.3
			c0.8,0,1.1,0.4,1.1,0.9c0,0.4-0.3,0.6-0.6,0.6c-0.3,0-0.6-0.2-0.6-0.6c0-0.2,0.1-0.4,0.2-0.5c-0.1,0-0.1,0-0.2,0c-0.2,0-1,0-1,1.2
			v1h1.2v0.5h-1.2V16.9z M229.6,13v-1.1c-0.2-0.1-0.2-0.3-0.2-0.5c0-0.4,0.3-0.5,0.3-0.5c-0.1,0-0.3-0.1-0.6-0.1
			c-0.9,0-1.6,0.4-1.6,1.2v1H229.6z"/>
	</g>
	<g>
		<path class="st1" d="M241.2,16.1c-0.4,0.7-0.8,1.4-1.6,1.4c-0.6,0-1-0.5-1.1-1c-0.4,0.5-0.8,1-1.5,1c-0.8,0-1-0.7-1-1.4
			c0-0.9,0.4-2.1,0.9-2.8c0.1-0.1,0.1-0.2,0.3-0.2c0.1,0,0.2,0.1,0.2,0.2c0,0.1-1,1.2-1,2.4c0,0.6,0.2,1.1,0.9,1.1
			c0.6,0,1-0.4,1.4-0.9c0-0.4,0.1-1,0.2-1.2c0.1-0.1,0.2-0.2,0.3-0.2c0.1,0,0.2,0.1,0.2,0.2c0,0.3-0.2,0.9-0.3,1.2
			c0.1,0.5,0.4,0.9,1,0.9c0.5,0,0.8-0.3,1.1-0.8c0.3-0.5,0.5-1,0.5-1.4c0-0.4-0.2-0.7-0.3-0.8c-0.1-0.1-0.1-0.2-0.1-0.3
			c0-0.2,0.3-0.5,0.5-0.5c0.2,0,0.4,0.2,0.4,0.7C241.8,14.3,241.4,15.6,241.2,16.1z"/>
	</g>
	<g>
		<path class="st1" d="M245.4,17.1c0.1-0.4,0.1-0.5,0.1-0.7c0-0.1,0-0.5-0.4-0.5c-0.5,0-0.9,0.4-1,0.6c-0.2,0.3-0.2,0.3-0.3,0.6
			c0,0.2-0.1,0.3-0.1,0.5c0,0.2-0.1,0.5-0.2,0.6c0,0.1-0.1,0.4-0.1,0.4c0,0.1-0.1,0.2-0.3,0.2c-0.1,0-0.2-0.1-0.2-0.2
			c0,0,0-0.2,0.1-0.3l0.2-0.9c0-0.2,0.1-0.4,0.2-0.6s0.1-0.4,0.1-0.6c0-0.2,0-0.3-0.2-0.3c-0.3,0-0.4,0.3-0.5,0.8
			c0,0.2-0.1,0.2-0.2,0.2c0,0-0.1,0-0.1-0.1c0,0,0.1-0.4,0.3-0.7c0.1-0.2,0.3-0.4,0.6-0.4c0.3,0,0.7,0.2,0.7,0.6
			c0.2-0.3,0.6-0.6,1.2-0.6c0.4,0,0.9,0.1,0.9,0.7c0.2-0.3,0.6-0.7,1.2-0.7c0.3,0,0.5,0.1,0.6,0.2c0.3,0.2,0.3,0.5,0.3,0.6
			c0,0.4-0.3,1.1-0.4,1.3c-0.1,0.3-0.2,0.4-0.2,0.6c0,0.1,0,0.2,0.2,0.2c0.3,0,0.6-0.3,0.7-0.8c0-0.1,0-0.1,0.1-0.1
			c0,0,0.1,0,0.1,0.1c0,0.1-0.3,1.1-1,1.1c-0.4,0-0.7-0.2-0.7-0.6c0-0.1,0-0.2,0.1-0.4c0.1-0.3,0.4-1.1,0.4-1.5c0-0.2,0-0.5-0.4-0.5
			c-0.5,0-0.9,0.4-1.1,0.7c-0.1,0.2-0.1,0.2-0.2,0.5c0,0.2-0.1,0.3-0.1,0.5c0,0.2-0.1,0.5-0.2,0.6c0,0.1-0.1,0.4-0.1,0.4
			c0,0.1-0.1,0.2-0.3,0.2c-0.1,0-0.2-0.1-0.2-0.2c0,0,0.1-0.3,0.1-0.4L245.4,17.1z"/>
	</g>
	<g>
		<path class="st1" d="M253.9,14.9l5.2,2.5c0.1,0.1,0.2,0.1,0.2,0.2c0,0.1-0.1,0.2-0.2,0.2c0,0,0,0-0.2-0.1l-5.5-2.6
			c-0.1,0-0.2-0.1-0.2-0.2c0-0.1,0.1-0.2,0.2-0.2l5.5-2.6c0.1-0.1,0.1-0.1,0.2-0.1c0.1,0,0.2,0.1,0.2,0.2c0,0.1-0.1,0.2-0.2,0.2
			L253.9,14.9z"/>
	</g>
	<g>
		<path class="st9" d="M265,15.9c-0.1,0.5-0.1,0.5-0.3,1c-0.1,0.4-0.2,0.6-0.5,0.6c-0.1,0-0.3-0.1-0.3-0.3c0-0.1,0-0.1,0.1-0.2
			c0.4-0.9,1-2.1,1.3-3.3h-0.6c-0.2,0-0.8,0-1.3,0.8c-0.1,0.1-0.1,0.1-0.2,0.1c-0.1,0-0.1-0.1-0.1-0.1c0,0,0.3-0.5,0.6-0.9
			c0.4-0.5,0.8-0.5,1-0.5h3.3c0.2,0,0.4,0,0.4,0.2c0,0.3-0.4,0.3-0.5,0.3H267c-0.1,0.5-0.2,1.1-0.2,1.6c0,0.3,0,0.9,0.3,1.6
			c0.1,0.1,0.1,0.2,0.1,0.2c0,0.2-0.2,0.4-0.4,0.4c-0.1,0-0.3-0.1-0.4-0.5c-0.1-0.3-0.1-0.6-0.1-0.8c0-0.7,0.1-1.1,0.4-2.6h-1.1
			L265,15.9z"/>
		<path class="st9" d="M269.9,19.6c-0.1,0.2-0.1,0.2-0.2,0.2c-0.1,0-0.2-0.1-0.2-0.2c0,0,0,0,0-0.2L273,10c0-0.1,0.1-0.1,0.2-0.1
			c0.1,0,0.2,0.1,0.2,0.2c0,0,0,0,0,0.2L269.9,19.6z"/>
	</g>
	<g>
		<path class="st9" d="M276.9,16.6c0,0.1,0,0.2,0,0.2c0,0.2,0.1,0.2,0.4,0.2c0.3,0,0.4,0,0.6,0c0.3,0,0.3,0,0.3,0.1
			c0,0.2-0.1,0.2-0.2,0.2c-0.3,0-0.6,0-0.9,0c-0.3,0-0.5,0-0.8,0c-0.3,0-0.6,0-0.8,0c-0.3,0-0.5,0-0.8,0c-0.1,0-0.2,0-0.2-0.1
			c0-0.2,0.1-0.2,0.4-0.2c1.1,0,1.1-0.1,1.2-0.5l1.3-5.3c0,0,0-0.1,0-0.2c0-0.1,0-0.1-0.3-0.1h-0.4c-1.5,0-1.7,0.2-2.3,1.7
			c-0.1,0.2-0.1,0.2-0.2,0.2c-0.1,0-0.1,0-0.1-0.1c0,0,0-0.2,0.1-0.2l0.6-1.8c0.1-0.2,0.1-0.2,0.3-0.2h5.5c0.2,0,0.3,0,0.3,0.1
			c0,0,0,0.1,0,0.2l-0.3,1.7c0,0.1,0,0.2-0.1,0.2c-0.1,0-0.1-0.1-0.1-0.1c0,0,0-0.1,0-0.2c0-0.3,0.1-0.6,0.1-0.8
			c0-0.8-0.4-0.8-1.5-0.8c-0.2,0-0.5,0-0.6,0c-0.1,0-0.2,0.1-0.2,0.4L276.9,16.6z"/>
	</g>
	<g>
		<path class="st9" d="M282.2,15.9c-0.1,0-0.4,0-0.6,0.1c-0.2,0.1-0.3,0.3-0.3,0.4c0,0.2,0.1,0.3,0.4,0.3c0,0,0.2,0,0.3,0.1
			c0.3,0,1,0.2,1,0.8c0,0.3-0.2,1.2-1.5,1.2c-0.7,0-1.1-0.3-1.1-0.7c0-0.3,0.2-0.5,0.4-0.5c0.1,0,0.3,0.1,0.3,0.3
			c0,0.2-0.2,0.4-0.4,0.4c0.2,0.2,0.6,0.3,0.8,0.3c0.1,0,0.4,0,0.7-0.2c0.3-0.2,0.4-0.4,0.4-0.6c0-0.3-0.4-0.4-0.6-0.5
			c-0.5-0.1-0.6-0.1-0.8-0.3c-0.1-0.1-0.2-0.3-0.2-0.5c0-0.2,0.2-1,1.3-1c0.4,0,0.9,0.2,0.9,0.6c0,0.4-0.3,0.4-0.3,0.4
			c-0.1,0-0.2-0.1-0.2-0.2c0-0.1,0.1-0.3,0.3-0.3C282.7,16,282.3,15.9,282.2,15.9z"/>
	</g>
	<polyline points="159.1,6.8 287.4,6.8 287.4,6.3 159.1,6.3 	"/>
	<polyline points="159.1,23 159.6,23 159.6,6.6 159.1,6.6 	"/>
	<polyline points="286.9,23 287.4,23 287.4,6.6 286.9,6.6 	"/>
	<polyline points="159.1,23.3 287.4,23.3 287.4,22.8 159.1,22.8 	"/>
	<g>
		<path class="st1" d="M42.6,103.5c0.2,0,0.9,0,0.9-0.1c0.1-0.1,0.2-0.6,0.2-0.9H44l-0.3,1.7H40c0-0.2,0-0.3,0.1-0.4l1.9-2.1
			c0.5-0.6,1-1.4,1-2.2c0-0.8-0.4-1.6-1.3-1.6c-0.6,0-1.1,0.4-1.3,1c0,0,0,0,0.1,0c0.3,0,0.5,0.3,0.5,0.5c0,0.4-0.3,0.5-0.5,0.5
			c0,0-0.5,0-0.5-0.6c0-0.9,0.7-1.8,1.9-1.8c1.2,0,2.1,0.8,2.1,1.9c0,1-0.6,1.5-2.2,2.9l-1.1,1H42.6z"/>
	</g>
	<g>
		<path class="st2" d="M55.3,99.9h-0.5c-0.1-1.1-0.2-1.9-1.6-1.9h-0.8v5.8H54v0.5c-0.5,0-1.6,0-2.2,0c-0.6,0-1.7,0-2.2,0v-0.5H51V98
			h-0.8c-1.4,0-1.5,0.8-1.6,1.9h-0.5l0.2-2.4h6.7L55.3,99.9z"/>
	</g>
	<g>
		<path class="st2" d="M58.7,103.2c0,0.2,0,0.2-0.2,0.2c-0.2,0-0.2,0-0.2-0.2c0-0.2,0-0.5-0.8-0.5c-0.1,0-0.8,0-0.8,0.4
			c0,0.3,0.4,0.3,0.8,0.4c0.6,0.1,0.9,0.1,1.2,0.4c0.2,0.1,0.3,0.4,0.3,0.7c0,1-1.2,1-1.4,1c-0.2,0-0.5,0-0.9-0.2
			c0,0-0.2,0.1-0.2,0.1c-0.1,0.1-0.2,0.1-0.2,0.1c-0.2,0-0.2-0.1-0.2-0.2v-0.7c0-0.2,0-0.2,0.2-0.2c0.2,0,0.2,0,0.2,0.1
			c0.1,0.4,0.4,0.7,1,0.7c0.2,0,0.9,0,0.9-0.5c0-0.4-0.5-0.4-0.9-0.5c-0.5-0.1-1.4-0.2-1.4-1c0-0.2,0.1-0.5,0.5-0.7
			c0.3-0.2,0.8-0.2,1-0.2c0.1,0,0.4,0,0.7,0.1c0,0,0,0,0,0c0,0,0.1,0,0.1,0c0.1-0.1,0.1-0.1,0.2-0.1c0.2,0,0.2,0.1,0.2,0.2V103.2z"
			/>
	</g>
</g>
</svg>
