<?xml version="1.0" encoding="utf-8"?>
<!-- Generator: Adobe Illustrator 22.1.0, SVG Export Plug-In . SVG Version: 6.00 Build 0)  -->
<svg version="1.1" id="Layer_1" xmlns="http://www.w3.org/2000/svg" xmlns:xlink="http://www.w3.org/1999/xlink" x="0px" y="0px"
	 viewBox="0 0 437.6 143.1" style="enable-background:new 0 0 437.6 143.1;" xml:space="preserve">
<style type="text/css">
	.st0{fill:none;stroke:#000000;stroke-width:0.8504;stroke-miterlimit:10;}
	.st1{fill:#FF0000;}
	.st2{fill:#0000FF;}
	.st3{fill:#1D1D1B;}
	.st4{fill:none;stroke:#000000;stroke-width:2.2677;stroke-linecap:round;stroke-miterlimit:10;stroke-dasharray:0,5.0547;}
	.st5{fill:none;stroke:#FF0000;stroke-width:2.2677;stroke-linecap:round;stroke-miterlimit:10;stroke-dasharray:0,5.0547;}
	.st6{fill:none;stroke:#000000;stroke-width:0.8504;stroke-linecap:round;stroke-miterlimit:10;stroke-dasharray:0,3.8425;}
	.st7{fill:none;stroke:#000000;stroke-width:0.8504;stroke-linecap:round;stroke-miterlimit:10;stroke-dasharray:0,3.5527;}
	.st8{fill:none;stroke:#000000;stroke-width:2.2677;stroke-linecap:round;stroke-miterlimit:10;stroke-dasharray:0,5.2006;}
	.st9{fill:none;stroke:#000000;stroke-width:2.2677;stroke-linecap:round;stroke-miterlimit:10;stroke-dasharray:0,5.2189;}
	.st10{fill:none;stroke:#000000;stroke-width:0.8504;stroke-linecap:round;stroke-miterlimit:10;stroke-dasharray:0,3.4951;}
	.st11{fill:none;stroke:#000000;stroke-width:2.2677;stroke-linecap:round;stroke-miterlimit:10;stroke-dasharray:0,5.0976;}
	.st12{stroke:#000000;stroke-width:0.8504;stroke-miterlimit:10;}
	.st13{fill:none;stroke:#000000;stroke-width:0.2835;stroke-miterlimit:10;}
	.st14{fill:#0000FF;stroke:#0000FF;stroke-width:0.8504;stroke-miterlimit:10;}
	.st15{fill:none;stroke:#0000FF;stroke-width:2.2677;stroke-miterlimit:10;}
	.st16{fill:#0000FF;stroke:#0000F7;stroke-width:0.8504;stroke-miterlimit:10;}
	.st17{fill:none;stroke:#0000FF;stroke-width:2.2677;stroke-linecap:round;stroke-miterlimit:10;stroke-dasharray:0,5.0976;}
	.st18{fill:none;stroke:#0000FF;stroke-width:2.2677;stroke-linecap:round;stroke-miterlimit:10;stroke-dasharray:0,5.2189;}
	.st19{fill:none;stroke:#0000FF;stroke-width:2.2677;stroke-linecap:round;stroke-miterlimit:10;stroke-dasharray:0,5.5913;}
	.st20{fill:#FF0000;stroke:#FF0000;stroke-width:0.8504;stroke-miterlimit:10;}
	.st21{fill:none;stroke:#FC0000;stroke-width:2.2677;stroke-miterlimit:10;}
	.st22{fill:none;stroke:#000000;stroke-width:0.8504;stroke-linecap:round;stroke-miterlimit:10;stroke-dasharray:0,3.3732;}
</style>
<g>
	<polyline points="208.1,90.2 212.6,88 208.1,85.7 209.2,88 	"/>
	<line class="st0" x1="0" y1="88" x2="209.2" y2="88"/>
	<polyline points="9.4,10.4 7.1,5.9 4.8,10.4 7.1,9.3 	"/>
	<line class="st0" x1="7.1" y1="96.2" x2="7.1" y2="9.3"/>
	<polyline points="433.1,90.2 437.6,88 433.1,85.7 434.2,88 	"/>
	<line class="st0" x1="233.9" y1="88" x2="434.2" y2="88"/>
	<polyline points="335.3,10.4 333.1,5.9 330.8,10.4 333.1,9.3 	"/>
	<line class="st0" x1="333.1" y1="95.1" x2="333.1" y2="9.3"/>
	<g>
		<path class="st1" d="M17.2,6.7C17.1,7.2,17,7.4,17,7.6c0,0.3,0.2,0.7,0.5,0.7c0.3,0,1-0.2,1.3-1.3c0-0.1,0-0.1,0.1-0.1
			c0,0,0.1,0,0.1,0.1c0,0.2-0.6,1.5-1.6,1.5c-0.6,0-1-0.4-1.1-0.8c0,0.1-0.4,0.8-1,0.8c-0.4,0-0.9-0.2-0.9-0.7
			c0-0.3,0.2-0.6,0.5-0.6c0.1,0,0.4,0.1,0.4,0.3c0,0.3-0.2,0.5-0.5,0.5c0.2,0.1,0.4,0.1,0.5,0.1c0.4,0,0.8-0.4,0.9-1
			c0.4-1.4,0.5-2.1,0.5-2.4c0-0.6-0.3-0.7-0.5-0.7c-0.3,0-1,0.2-1.3,1.3c0,0.1-0.1,0.1-0.1,0.1c0,0-0.1,0-0.1-0.1
			c0-0.2,0.6-1.5,1.6-1.5c0.3,0,0.8,0.1,1.1,0.8c0.1-0.2,0.5-0.8,1-0.8c0.3,0,0.9,0.1,0.9,0.7c0,0.4-0.3,0.6-0.5,0.6
			c-0.3,0-0.4-0.2-0.4-0.3c0-0.2,0.2-0.5,0.5-0.5c-0.2-0.1-0.4-0.1-0.5-0.1c-0.7,0-0.9,0.9-1,1.2L17.2,6.7z"/>
	</g>
	<g>
		<path class="st1" d="M21,10.9v-10h1.4v0.4h-1v9.2h1v0.4H21z"/>
	</g>
	<g>
		<path class="st1" d="M24,5.5c0.1-0.5,0.2-0.6,0.2-0.8c0-0.3-0.1-0.5-0.3-0.5c-0.4,0-0.6,0.5-0.7,1.2c-0.1,0.2-0.1,0.2-0.2,0.2
			c0,0-0.1,0-0.1-0.1c0,0,0.1-0.6,0.3-1C23.3,4.4,23.4,4,23.9,4c0.5,0,0.9,0.3,0.9,0.9C25,4.6,25.5,4,26.4,4c0.7,0,1.1,0.4,1.1,1.1
			c0,0.6-0.4,1.7-0.6,2.2c-0.1,0.2-0.2,0.5-0.2,0.7c0,0.2,0.1,0.3,0.2,0.3c0.5,0,0.8-0.6,1-1.2c0-0.1,0-0.2,0.1-0.2
			c0,0,0.1,0,0.1,0.1c0,0.1-0.4,1.5-1.3,1.5c-0.5,0-0.8-0.3-0.8-0.8c0-0.1,0-0.2,0.1-0.5c0.2-0.4,0.6-1.7,0.6-2.3
			c0-0.3-0.1-0.7-0.5-0.7c-0.9,0-1.5,0.9-1.6,1.2c0,0-0.1,0.3-0.1,0.5c0,0.2-0.1,0.4-0.2,0.7l-0.2,0.9C24.1,7.7,24,8.2,24,8.2
			c-0.1,0.2-0.2,0.3-0.4,0.3c-0.1,0-0.3-0.1-0.3-0.3c0-0.1,0.1-0.3,0.1-0.4L24,5.5z"/>
	</g>
	<g>
		<path class="st1" d="M30.2,10.9h-1.4v-0.4h1V1.3h-1V0.9h1.4V10.9z"/>
	</g>
	<g>
		<path class="st2" d="M346.6,2.6c0.1-0.1,0.2-0.2,0.2-0.4c0-0.3-0.3-0.3-0.4-0.3c-0.1,0-0.1,0-0.1-0.1c0-0.2,0.1-0.2,0.2-0.2
			c0.4,0,0.7,0,1.1,0c0.3,0,0.6,0,0.9,0c0.1,0,0.1,0.1,0.1,0.1c0,0.2-0.1,0.2-0.2,0.2c-0.6,0-1,0.3-1.3,0.5c-0.3,0.3-1.4,1.5-2,2.2
			c0.2,0.6,0.9,2.2,1.3,3.1c0.2,0.4,0.2,0.4,0.9,0.4c0.1,0,0.2,0,0.2,0.1c0,0.2-0.1,0.2-0.2,0.2c-0.2,0-0.9,0-1.1,0
			c-0.3,0-1,0-1.3,0c0,0-0.1,0-0.1-0.1c0-0.2,0.1-0.2,0.2-0.2c0.4,0,0.6-0.2,0.6-0.3c0,0,0,0,0-0.1l-1-2.4l-0.9,1l-1,1.1
			c-0.1,0.1-0.3,0.3-0.3,0.4c0,0.3,0.3,0.3,0.4,0.3c0,0,0.1,0,0.1,0.1c0,0.2-0.1,0.2-0.2,0.2c-0.4,0-0.7,0-1.1,0c-0.3,0-0.6,0-0.9,0
			c-0.1,0-0.1-0.1-0.1-0.1c0-0.2,0.1-0.2,0.2-0.2c0.5,0,1-0.2,1.5-0.7l0.1-0.1l2.1-2.3l-1.2-2.8c-0.1-0.2-0.1-0.3-0.7-0.3
			c-0.1,0-0.2,0-0.2-0.1c0-0.2,0.1-0.2,0.2-0.2c0.2,0,0.9,0,1.1,0c0.4,0,0.8,0,1.3,0c0,0,0.1,0,0.1,0.1c0,0.2-0.1,0.2-0.2,0.2
			c-0.4,0-0.6,0.2-0.6,0.3c0,0,0,0,0,0.1l0.8,2L346.6,2.6z"/>
	</g>
	<g>
		<path class="st2" d="M350.5,10.9v-10h1.4v0.4h-1v9.2h1v0.4H350.5z"/>
	</g>
	<g>
		<path class="st2" d="M353.9,5.8c0.4-0.1,0.8-0.5,1.1-0.9c0.7-0.8,1.2-0.9,1.5-0.9c0.4,0,0.7,0.3,0.7,0.6c0,0.4-0.3,0.6-0.5,0.6
			c-0.3,0-0.4-0.2-0.4-0.3c0-0.1,0.1-0.5,0.6-0.5c0,0,0,0,0,0c-0.1-0.1-0.1-0.1-0.2-0.1c0,0,0,0-0.1,0c-0.5,0-0.9,0.4-1.4,1
			c-0.2,0.2-0.5,0.6-0.9,0.7c0.8,0.1,1.5,0.4,1.5,1c0,0.1,0,0.1,0,0.3c0,0.2-0.1,0.4-0.1,0.6c0,0.4,0.1,0.5,0.3,0.5
			c0.4,0,0.7-0.5,0.9-1.2c0-0.1,0-0.2,0.1-0.2c0,0,0.1,0,0.1,0.1c0,0-0.1,0.6-0.4,1c-0.2,0.4-0.5,0.5-0.8,0.5c-0.5,0-0.9-0.4-0.9-1
			c0-0.1,0-0.2,0-0.3c0-0.1,0-0.1,0-0.2c0-0.7-0.8-0.8-1.2-0.8c-0.1,0.2-0.5,2.1-0.6,2.2c-0.1,0.1-0.2,0.2-0.3,0.2
			c-0.1,0-0.3,0-0.3-0.3c0-0.1,0-0.1,0-0.2l1.4-5.7l0-0.2c0-0.1,0-0.2-0.5-0.2c-0.1,0-0.2,0-0.2-0.1c0-0.2,0.1-0.2,0.2-0.2
			c0.3,0,1-0.1,1.2-0.1c0.1,0,0.1,0.1,0.1,0.1L353.9,5.8z"/>
	</g>
	<g>
		<path class="st2" d="M359.2,10.9h-1.4v-0.4h1V1.3h-1V0.9h1.4V10.9z"/>
	</g>
	<g>
		<path class="st3" d="M207.5,99.5c0.1-0.5,0.2-0.6,0.2-0.8c0-0.3-0.1-0.5-0.3-0.5c-0.4,0-0.6,0.5-0.7,1.2c-0.1,0.2-0.1,0.2-0.2,0.2
			c0,0-0.1,0-0.1-0.1c0,0,0.1-0.6,0.3-1c0.1-0.2,0.3-0.6,0.7-0.6c0.5,0,0.9,0.3,0.9,0.9c0.2-0.2,0.7-0.9,1.6-0.9
			c0.7,0,1.1,0.4,1.1,1.1c0,0.6-0.4,1.7-0.6,2.2c-0.1,0.2-0.2,0.5-0.2,0.7c0,0.2,0.1,0.3,0.2,0.3c0.5,0,0.8-0.6,1-1.2
			c0-0.1,0-0.2,0.1-0.2c0,0,0.1,0,0.1,0.1c0,0.1-0.4,1.5-1.3,1.5c-0.5,0-0.8-0.3-0.8-0.8c0-0.1,0-0.2,0.1-0.5
			c0.2-0.4,0.6-1.7,0.6-2.3c0-0.3-0.1-0.7-0.5-0.7c-0.9,0-1.5,0.9-1.6,1.2c0,0-0.1,0.3-0.1,0.5c0,0.2-0.1,0.4-0.2,0.7l-0.2,0.9
			c-0.1,0.2-0.2,0.7-0.2,0.7c-0.1,0.2-0.2,0.3-0.4,0.3c-0.1,0-0.3-0.1-0.3-0.3c0,0,0.1-0.3,0.1-0.4L207.5,99.5z"/>
	</g>
	<g>
		<path class="st3" d="M431.4,101.1c0.4-0.1,0.8-0.5,1.1-0.9c0.7-0.8,1.2-0.9,1.5-0.9c0.4,0,0.7,0.3,0.7,0.6c0,0.4-0.3,0.6-0.5,0.6
			c-0.3,0-0.4-0.2-0.4-0.3c0-0.1,0.1-0.5,0.6-0.5c0,0,0,0,0,0c-0.1-0.1-0.1-0.1-0.2-0.1c0,0,0,0-0.1,0c-0.5,0-0.9,0.4-1.4,1
			c-0.2,0.2-0.5,0.6-0.9,0.7c0.8,0.1,1.5,0.4,1.5,1c0,0.1,0,0.1,0,0.3c0,0.2-0.1,0.4-0.1,0.6c0,0.4,0.1,0.5,0.3,0.5
			c0.4,0,0.7-0.5,0.9-1.2c0-0.1,0-0.2,0.1-0.2c0,0,0.1,0,0.1,0.1c0,0-0.1,0.6-0.4,1c-0.2,0.4-0.5,0.5-0.8,0.5c-0.5,0-0.9-0.4-0.9-1
			c0-0.1,0-0.2,0-0.3c0-0.1,0-0.1,0-0.2c0-0.7-0.8-0.8-1.2-0.8c-0.1,0.3-0.5,2.1-0.6,2.2c-0.1,0.1-0.2,0.2-0.3,0.2
			c-0.1,0-0.3,0-0.3-0.3c0-0.1,0-0.1,0-0.2l1.4-5.7l0-0.2c0-0.1,0-0.2-0.5-0.2c-0.1,0-0.2,0-0.2-0.1c0-0.2,0.1-0.2,0.2-0.2
			c0.3,0,1-0.1,1.2-0.1c0.1,0,0.1,0.1,0.1,0.1L431.4,101.1z"/>
	</g>
	<path class="st4" d="M311.8,88c0,0,4.4-49.2,21.3-49.2S354.3,88,354.3,88l0,0"/>
	<path class="st5" d="M382.7,88c0,0,4.4-49.2,21.3-49.2c16.9,0,21.3,49.2,21.3,49.2l0,0"/>
	<path class="st5" d="M240.9,88c0,0,4.4-49.2,21.3-49.2c16.9,0,21.3,49.2,21.3,49.2l0,0"/>
	<path class="st0" d="M297.6,83.8v8.2 M368.5,83.8v8.2"/>
	<g>
		<path class="st1" d="M335.5,138.6v-4c0-0.2,0-0.2-0.3-0.3c-0.2,0-0.3,0-0.5,0h-0.2v-0.5c0.4,0,0.9,0,1.3,0c0.4,0,1,0,1.3,0v0.5
			h-0.2c-0.3,0-0.3,0-0.5,0c-0.3,0-0.3,0-0.3,0.3v5.8c0,0.2,0,0.3-0.3,0.3c-0.2,0-0.2,0-0.3-0.1l-5-5.8v5.2c0,0.2,0,0.2,0.3,0.3
			c0.2,0,0.3,0,0.5,0h0.3v0.5c-0.4,0-0.9,0-1.3,0c-0.4,0-1,0-1.3,0v-0.5h0.2c0.3,0,0.3,0,0.5,0c0.3,0,0.3,0,0.3-0.3v-5.6H329v-0.5
			h2.3c0.2,0,0.2,0,0.3,0.1L335.5,138.6z"/>
	</g>
	<g>
		<path class="st1" d="M334.2,115.6h-0.2c-0.2-1.4-0.4-1.9-1.9-1.9h-1.2c-0.5,0-0.5,0.1-0.5,0.4v2.5h0.9c1,0,1.1-0.3,1.1-1.2h0.2
			v2.6h-0.2c0-0.8-0.1-1.2-1.1-1.2h-0.9v2.5c0,0.3,0,0.5,0.9,0.5h0.3v0.3c-0.4,0-1.3,0-1.7,0c-0.4,0-1.2,0-1.5,0v-0.3h0.2
			c0.8,0,0.8-0.1,0.8-0.5v-5.2c0-0.4,0-0.5-0.8-0.5h-0.2v-0.3h5.5L334.2,115.6z"/>
		<path class="st1" d="M336.8,119.3c0,0.4,0,0.5,0.8,0.5h0.3v0.3c-0.3,0-1.1,0-1.5,0c-0.4,0-1.2,0-1.5,0v-0.3h0.3
			c0.8,0,0.8-0.1,0.8-0.5v-5.3c0-0.4,0-0.5-0.8-0.5h-0.3v-0.3c0.3,0,1.1,0,1.5,0c0.4,0,1.2,0,1.5,0v0.3h-0.3c-0.8,0-0.8,0.1-0.8,0.5
			V119.3z"/>
	</g>
	<g>
		<path class="st3" d="M8.8,102.5c-0.4,0.9-1.2,1.2-1.7,1.2c-0.5,0-1.2-0.2-1.6-1C5,101.9,5,101,5,100.2c0-0.8,0-1.6,0.4-2.3
			c0.4-0.9,1.1-1.2,1.7-1.2c0.4,0,1.2,0.2,1.7,1.1c0.3,0.7,0.4,1.5,0.4,2.3C9.2,101,9.1,101.8,8.8,102.5z M8.2,102.2
			c0.1-0.6,0.1-1.3,0.1-2.1c0-0.6,0-1.4-0.1-1.9C8,97.2,7.4,97,7.1,97c-0.2,0-1,0.1-1.2,1.3c-0.1,0.5-0.1,1.2-0.1,1.8
			c0,0.6,0,1.5,0.1,2.1c0.2,1,0.8,1.2,1.2,1.2C7.5,103.4,8.1,103.1,8.2,102.2z"/>
		<path class="st3" d="M28.9,102.6c0,0.4,0,0.5,0.9,0.5h0.3v0.3c-0.3,0-1.2,0-1.6,0c-0.4,0-1.3,0-1.6,0v-0.3h0.3
			c0.9,0,0.9-0.1,0.9-0.5v-5.2c-0.5,0.3-1.1,0.3-1.3,0.3v-0.3c0.3,0,1.2,0,1.8-0.6c0.2,0,0.2,0,0.2,0.3V102.6z"/>
	</g>
	<g>
		<path class="st3" d="M85.2,103c0,0.2,0,0.2-0.2,0.2c-0.1,0-0.1,0-0.2-0.2l-2.5-5.9c0-0.1,0-0.1-0.1-0.2l-1.3,5.3
			c0,0.1,0,0.2,0,0.2c0,0.2,0.1,0.4,0.7,0.4c0.1,0,0.2,0,0.2,0.1c0,0.2-0.1,0.2-0.2,0.2c-0.3,0-0.7,0-1,0c-0.3,0-0.7,0-1,0
			c-0.1,0-0.1,0-0.1-0.1c0-0.2,0.1-0.2,0.2-0.2c0.8,0,1-0.3,1.1-0.7l1.3-5.4c0-0.1-0.6-0.1-0.7-0.1c-0.2,0-0.3,0-0.3-0.1
			c0-0.2,0.1-0.2,0.3-0.2h1.3c0.2,0,0.2,0,0.3,0.2l2.2,5.2l1.1-4.4c0,0,0-0.2,0-0.2c0-0.2-0.1-0.4-0.7-0.4c-0.1,0-0.2,0-0.2-0.1
			c0-0.2,0.1-0.2,0.2-0.2c0.3,0,0.7,0,1,0c0.3,0,0.7,0,1,0c0.1,0,0.1,0.1,0.1,0.1c0,0.2-0.1,0.2-0.2,0.2c-0.8,0-1,0.3-1.1,0.7
			L85.2,103z"/>
	</g>
	<g>
		<path class="st3" d="M91.5,100.9c-0.2,0-0.3,0-0.3-0.2s0.2-0.2,0.3-0.2h5.4c0.2,0,0.3,0,0.3,0.2s-0.2,0.2-0.3,0.2H91.5z"/>
	</g>
	<g>
		<path class="st3" d="M103.3,102.4c0,0.4,0,0.5,0.9,0.5h0.3v0.3c-0.3,0-1.2,0-1.6,0c-0.4,0-1.3,0-1.6,0v-0.3h0.3
			c0.9,0,0.9-0.1,0.9-0.5v-5.2c-0.5,0.3-1.1,0.3-1.3,0.3v-0.3c0.3,0,1.2,0,1.8-0.6c0.2,0,0.2,0,0.2,0.3V102.4z"/>
	</g>
	<path class="st0" d="M7.1,120.8v8.2 M92.1,120.8v8.2"/>
	<polyline points="11.6,122.6 7.1,124.9 11.6,127.1 10.5,124.9 	"/>
	<polyline points="87.6,127.1 92.1,124.9 87.6,122.6 88.7,124.9 	"/>
	<line class="st0" x1="10.5" y1="124.9" x2="88.7" y2="124.9"/>
	<g>
		<path class="st2" d="M52.1,138.6v-4c0-0.2,0-0.2-0.3-0.3c-0.2,0-0.3,0-0.5,0H51v-0.5c0.4,0,0.9,0,1.3,0c0.4,0,1,0,1.3,0v0.5h-0.2
			c-0.3,0-0.3,0-0.5,0c-0.3,0-0.3,0-0.3,0.3v5.8c0,0.2,0,0.3-0.3,0.3c-0.2,0-0.2,0-0.3-0.1l-5-5.8v5.2c0,0.2,0,0.2,0.3,0.3
			c0.2,0,0.3,0,0.5,0h0.2v0.5c-0.4,0-0.9,0-1.3,0c-0.4,0-1,0-1.3,0v-0.5h0.2c0.3,0,0.3,0,0.5,0c0.3,0,0.3,0,0.3-0.3v-5.6h-1.1v-0.5
			h2.3c0.2,0,0.2,0,0.3,0.1L52.1,138.6z"/>
	</g>
	<line class="st6" x1="39" y1="101.2" x2="74.4" y2="101.2"/>
	<path class="st7" d="M297.6,96.2V129 M368.5,96.2V129"/>
	<polyline points="302.2,122.6 297.6,124.9 302.2,127.1 301,124.9 	"/>
	<polyline points="364,127.1 368.5,124.9 364,122.6 365.1,124.9 	"/>
	<line class="st0" x1="301" y1="124.9" x2="365.1" y2="124.9"/>
	<path class="st8" d="M114.3,38.7c0,0,7.7,23.8,17.7,24.6c11.5,1,13.1-23.9,24.8-24.6c9-0.6,21.3,16.4,21.3,16.4l0,0"/>
	<line class="st9" x1="404.1" y1="88" x2="404.1" y2="38.7"/>
	<path d="M406.4,38.7c0-1.2-1-2.2-2.2-2.2s-2.2,1-2.2,2.2s1,2.2,2.2,2.2S406.4,40,406.4,38.7L406.4,38.7z"/>
	<path class="st10" d="M406.4,38.7c0-1.2-1-2.2-2.2-2.2s-2.2,1-2.2,2.2s1,2.2,2.2,2.2S406.4,40,406.4,38.7L406.4,38.7z"/>
	<line class="st11" x1="418.3" y1="88" x2="418.3" y2="55.1"/>
	<path d="M420.6,55.1c0-1.2-1-2.2-2.2-2.2c-1.2,0-2.2,1-2.2,2.2s1,2.2,2.2,2.2C419.6,57.3,420.6,56.3,420.6,55.1L420.6,55.1z"/>
	<path class="st10" d="M420.6,55.1c0-1.2-1-2.2-2.2-2.2c-1.2,0-2.2,1-2.2,2.2s1,2.2,2.2,2.2C419.6,57.3,420.6,56.3,420.6,55.1
		L420.6,55.1z"/>
	<line class="st11" x1="391.5" y1="88" x2="391.5" y2="55.1"/>
	<path d="M393.8,55.1c0-1.2-1-2.2-2.2-2.2c-1.2,0-2.2,1-2.2,2.2s1,2.2,2.2,2.2C392.8,57.3,393.8,56.3,393.8,55.1L393.8,55.1z"/>
	<path class="st10" d="M393.8,55.1c0-1.2-1-2.2-2.2-2.2c-1.2,0-2.2,1-2.2,2.2s1,2.2,2.2,2.2C392.8,57.3,393.8,56.3,393.8,55.1
		L393.8,55.1z"/>
	<path class="st12" d="M378.1,87.9c0-1.2-1-2.2-2.2-2.2c-1.2,0-2.2,1-2.2,2.2s1,2.2,2.2,2.2C377.1,90.2,378.1,89.2,378.1,87.9
		L378.1,87.9z"/>
	<path class="st12" d="M293,87.9c0-1.2-1-2.2-2.2-2.2c-1.2,0-2.2,1-2.2,2.2s1,2.2,2.2,2.2C292,90.2,293,89.2,293,87.9L293,87.9z"/>
	<line class="st9" x1="262.4" y1="88" x2="262.4" y2="38.7"/>
	<path d="M262.4,36.5c-1.2,0-2.2,1-2.2,2.2s1,2.2,2.2,2.2c1.2,0,2.2-1,2.2-2.2S263.7,36.5,262.4,36.5L262.4,36.5z"/>
	<path class="st10" d="M262.4,36.5c-1.2,0-2.2,1-2.2,2.2s1,2.2,2.2,2.2c1.2,0,2.2-1,2.2-2.2S263.7,36.5,262.4,36.5L262.4,36.5z"/>
	<line class="st11" x1="276.6" y1="88" x2="276.6" y2="55.1"/>
	<path d="M278.8,55.1c0-1.2-1-2.2-2.2-2.2s-2.2,1-2.2,2.2s1,2.2,2.2,2.2S278.8,56.3,278.8,55.1L278.8,55.1z"/>
	<path class="st10" d="M278.8,55.1c0-1.2-1-2.2-2.2-2.2s-2.2,1-2.2,2.2s1,2.2,2.2,2.2S278.8,56.3,278.8,55.1L278.8,55.1z"/>
	<line class="st11" x1="249.8" y1="88" x2="249.8" y2="55.1"/>
	<path d="M252.1,55.1c0-1.2-1-2.2-2.2-2.2s-2.2,1-2.2,2.2s1,2.2,2.2,2.2S252.1,56.3,252.1,55.1L252.1,55.1z"/>
	<path class="st10" d="M252.1,55.1c0-1.2-1-2.2-2.2-2.2s-2.2,1-2.2,2.2s1,2.2,2.2,2.2S252.1,56.3,252.1,55.1L252.1,55.1z"/>
	<line class="st0" x1="318.9" y1="34.6" x2="318.9" y2="26.4"/>
	<polyline points="323.4,28.2 318.9,30.5 323.4,32.8 322.3,30.5 	"/>
	<polyline points="328.5,32.8 333.1,30.5 328.5,28.2 329.7,30.5 	"/>
	<line class="st0" x1="322.3" y1="30.5" x2="329.7" y2="30.5"/>
	<g>
		<path class="st3" d="M292.9,15.8c0.2,0,0.9,0,0.9-0.1c0.1-0.1,0.2-0.6,0.2-0.9h0.2l-0.3,1.7h-3.7c0-0.2,0-0.3,0.1-0.4l1.9-2.1
			c0.5-0.6,1-1.4,1-2.2c0-0.8-0.4-1.6-1.3-1.6c-0.6,0-1.1,0.4-1.3,1c0,0,0,0,0.1,0c0.3,0,0.5,0.3,0.5,0.5c0,0.4-0.3,0.5-0.5,0.5
			c0,0-0.5,0-0.5-0.6c0-0.9,0.7-1.8,1.9-1.8c1.2,0,2.1,0.8,2.1,1.9c0,1-0.6,1.5-2.2,2.9l-1.1,1H292.9z"/>
	</g>
	<g>
		<path class="st3" d="M296.9,15c-0.1,0.5-0.1,0.5-0.3,1c-0.1,0.4-0.2,0.6-0.5,0.6c-0.1,0-0.3-0.1-0.3-0.3c0-0.1,0-0.1,0.1-0.2
			c0.4-0.9,1-2.1,1.3-3.3h-0.6c-0.2,0-0.8,0-1.3,0.8c-0.1,0.1-0.1,0.1-0.2,0.1c-0.1,0-0.1-0.1-0.1-0.1c0,0,0.3-0.5,0.6-0.9
			c0.4-0.5,0.8-0.5,1-0.5h3.3c0.2,0,0.4,0,0.4,0.2c0,0.3-0.4,0.3-0.5,0.3h-1.1c-0.1,0.5-0.2,1.1-0.2,1.6c0,0.3,0,0.9,0.3,1.6
			c0.1,0.1,0.1,0.2,0.1,0.2c0,0.2-0.2,0.4-0.4,0.4c-0.1,0-0.3-0.1-0.4-0.5c-0.1-0.3-0.1-0.6-0.1-0.8c0-0.7,0.1-1.1,0.4-2.6h-1.1
			L296.9,15z"/>
		<path class="st3" d="M301.8,18.8c-0.1,0.2-0.1,0.2-0.2,0.2c-0.1,0-0.2-0.1-0.2-0.2c0,0,0,0,0-0.2l3.5-9.5c0-0.1,0.1-0.1,0.2-0.1
			c0.1,0,0.2,0.1,0.2,0.2c0,0,0,0,0,0.2L301.8,18.8z"/>
	</g>
	<g>
		<path class="st3" d="M309.1,19c-0.1,0-1-0.6-1.6-1.9c-0.5-1.1-0.7-2.3-0.7-3.1c0-0.8,0.1-1.9,0.6-3c0.6-1.3,1.5-1.9,1.6-1.9
			c0.1,0,0.1,0,0.1,0.1c0,0,0,0-0.1,0.2c-1.2,1.2-1.6,3-1.6,4.7c0,1.5,0.3,3.4,1.6,4.7C309.2,18.9,309.2,18.9,309.1,19
			C309.2,19,309.1,19,309.1,19z"/>
	</g>
	<g>
		<path class="st2" d="M316.7,14.5v-4c0-0.2,0-0.2-0.3-0.3c-0.2,0-0.3,0-0.5,0h-0.2V9.7c0.4,0,0.9,0,1.3,0c0.4,0,1,0,1.3,0v0.5H318
			c-0.3,0-0.3,0-0.5,0c-0.3,0-0.3,0-0.3,0.3v5.8c0,0.2,0,0.3-0.3,0.3c-0.2,0-0.2,0-0.3-0.1l-5-5.8v5.2c0,0.2,0,0.2,0.3,0.3
			c0.2,0,0.3,0,0.5,0h0.3v0.5c-0.4,0-0.9,0-1.3,0c-0.4,0-1,0-1.3,0v-0.5h0.2c0.3,0,0.3,0,0.5,0c0.3,0,0.3,0,0.3-0.3v-5.6h-1.1V9.7
			h2.3c0.2,0,0.2,0,0.3,0.1L316.7,14.5z"/>
	</g>
	<g>
		<path class="st3" d="M320.9,17.1c-0.6,1.3-1.5,1.9-1.6,1.9c-0.1,0-0.1,0-0.1-0.1c0,0,0-0.1,0.1-0.2c1.2-1.3,1.6-3,1.6-4.7
			c0-2.1-0.6-3.7-1.5-4.7c-0.2-0.2-0.2-0.2-0.2-0.2c0-0.1,0-0.1,0.1-0.1c0.1,0,1,0.6,1.6,1.9c0.5,1.1,0.7,2.3,0.7,3.1
			C321.5,14.9,321.4,16,320.9,17.1z"/>
	</g>
	<line class="st13" x1="326" y1="30.5" x2="318.9" y2="18.2"/>
	<g>
		<path class="st2" d="M49,115.6h-0.2c-0.2-1.4-0.4-1.9-1.9-1.9h-1.2c-0.5,0-0.5,0.1-0.5,0.4v2.5h0.9c1,0,1.1-0.3,1.1-1.2h0.2v2.6
			h-0.2c0-0.8-0.1-1.2-1.1-1.2h-0.9v2.5c0,0.3,0,0.5,0.9,0.5h0.3v0.3c-0.4,0-1.3,0-1.7,0c-0.4,0-1.2,0-1.5,0v-0.3h0.2
			c0.8,0,0.8-0.1,0.8-0.5v-5.2c0-0.4,0-0.5-0.8-0.5h-0.2v-0.3h5.5L49,115.6z"/>
		<path class="st2" d="M51.7,119.3c0,0.4,0,0.5,0.8,0.5h0.2v0.3c-0.3,0-1.1,0-1.5,0c-0.4,0-1.1,0-1.5,0v-0.3H50
			c0.8,0,0.8-0.1,0.8-0.5v-5.3c0-0.4,0-0.5-0.8-0.5h-0.2v-0.3h3.5c1.4,0,2.4,0.9,2.4,1.9c0,1-1.1,1.8-2.3,1.8h-1.7V119.3z
			 M53.1,116.7c1.6,0,1.6-1.1,1.6-1.5c0-0.5,0-1.5-1.6-1.5h-0.9c-0.5,0-0.5,0.1-0.5,0.4v2.7H53.1z"/>
	</g>
	<path class="st0" d="M354.3,83.8v8.2 M311.8,83.8v8.2"/>
	<path class="st8" d="M7.1,38.7c0,0,7.7,23.8,17.7,24.6c11.5,1,13.1-23.9,24.8-24.6c9-0.6,21.3,16.4,21.3,16.4l0,0"/>
	<path class="st14" d="M363.7,87.9c0-1.2-1-2.2-2.2-2.2c-1.2,0-2.2,1-2.2,2.2s1,2.2,2.2,2.2C362.7,90.2,363.7,89.2,363.7,87.9
		L363.7,87.9z"/>
	<path class="st14" d="M307,87.9c0-1.2-1-2.2-2.2-2.2c-1.2,0-2.2,1-2.2,2.2s1,2.2,2.2,2.2C306,90.2,307,89.2,307,87.9L307,87.9z"/>
	<line class="st15" x1="320.5" y1="88" x2="320.5" y2="55.1"/>
	<path class="st14" d="M322.7,55.1c0-1.2-1-2.2-2.2-2.2c-1.2,0-2.2,1-2.2,2.2s1,2.2,2.2,2.2C321.7,57.3,322.7,56.3,322.7,55.1
		L322.7,55.1z"/>
	<line class="st15" x1="333.1" y1="88" x2="333.1" y2="38.7"/>
	<path class="st14" d="M335.3,38.7c0-1.2-1-2.2-2.2-2.2c-1.2,0-2.2,1-2.2,2.2c0,1.2,1,2.2,2.2,2.2C334.3,41,335.3,40,335.3,38.7
		L335.3,38.7z"/>
	<line class="st15" x1="347.2" y1="88" x2="347.2" y2="55.1"/>
	<path class="st14" d="M349.5,55.1c0-1.2-1-2.2-2.2-2.2s-2.2,1-2.2,2.2s1,2.2,2.2,2.2S349.5,56.3,349.5,55.1L349.5,55.1z"/>
	<path class="st16" d="M200.7,87.9c0-1.2-1-2.2-2.2-2.2c-1.2,0-2.2,1-2.2,2.2s1,2.2,2.2,2.2C199.7,90.2,200.7,89.2,200.7,87.9
		L200.7,87.9z"/>
	<line class="st17" x1="177.2" y1="88" x2="177.2" y2="55.1"/>
	<line class="st18" x1="155.9" y1="88" x2="155.9" y2="38.7"/>
	<line class="st19" x1="134.6" y1="88" x2="134.6" y2="63.3"/>
	<line class="st18" x1="113.4" y1="88" x2="113.4" y2="38.7"/>
	<path class="st14" d="M179.5,55.1c0-1.2-1-2.2-2.2-2.2c-1.2,0-2.2,1-2.2,2.2s1,2.2,2.2,2.2C178.5,57.3,179.5,56.3,179.5,55.1
		L179.5,55.1z"/>
	<path class="st14" d="M158.1,38.7c0-1.2-1-2.2-2.2-2.2c-1.2,0-2.2,1-2.2,2.2c0,1.2,1,2.2,2.2,2.2C157.1,41,158.1,40,158.1,38.7
		L158.1,38.7z"/>
	<path class="st14" d="M136.9,63.3c0-1.2-1-2.2-2.2-2.2c-1.2,0-2.2,1-2.2,2.2c0,1.2,1,2.2,2.2,2.2C135.9,65.6,136.9,64.6,136.9,63.3
		L136.9,63.3z"/>
	<path class="st14" d="M115.6,38.7c0-1.2-1-2.2-2.2-2.2c-1.2,0-2.2,1-2.2,2.2c0,1.2,1,2.2,2.2,2.2C114.6,41,115.6,40,115.6,38.7
		L115.6,38.7z"/>
	<path class="st20" d="M94.4,87.9c0-1.2-1-2.2-2.2-2.2s-2.2,1-2.2,2.2s1,2.2,2.2,2.2S94.4,89.2,94.4,87.9L94.4,87.9z"/>
	<path class="st21" d="M70.9,88V55.1 M49.6,88V38.7 M28.3,88V63.3 M7.1,88V38.7"/>
	<path class="st20" d="M73.1,55.1c0-1.2-1-2.2-2.2-2.2c-1.2,0-2.2,1-2.2,2.2s1,2.2,2.2,2.2C72.1,57.3,73.1,56.3,73.1,55.1L73.1,55.1
		z"/>
	<path class="st20" d="M51.9,38.7c0-1.2-1-2.2-2.2-2.2c-1.2,0-2.2,1-2.2,2.2c0,1.2,1,2.2,2.2,2.2C50.9,41,51.9,40,51.9,38.7
		L51.9,38.7z"/>
	<path class="st20" d="M30.5,63.3c0-1.2-1-2.2-2.2-2.2c-1.2,0-2.2,1-2.2,2.2c0,1.2,1,2.2,2.2,2.2C29.5,65.6,30.5,64.6,30.5,63.3
		L30.5,63.3z"/>
	<path class="st20" d="M9.3,38.7c0-1.2-1-2.2-2.2-2.2s-2.2,1-2.2,2.2c0,1.2,1,2.2,2.2,2.2S9.3,40,9.3,38.7L9.3,38.7z"/>
	<g>
		<path class="st3" d="M334.8,101.5c-0.4,0.9-1.2,1.2-1.7,1.2c-0.5,0-1.2-0.2-1.6-1c-0.4-0.8-0.4-1.7-0.4-2.4c0-0.8,0-1.6,0.4-2.3
			c0.4-0.9,1.1-1.2,1.7-1.2c0.4,0,1.2,0.2,1.7,1.1c0.3,0.7,0.4,1.5,0.4,2.3C335.2,100.1,335.1,100.8,334.8,101.5z M334.3,101.2
			c0.1-0.6,0.1-1.3,0.1-2.1c0-0.6,0-1.4-0.1-1.9c-0.2-1-0.8-1.2-1.2-1.2c-0.2,0-1,0.1-1.2,1.3c-0.1,0.5-0.1,1.2-0.1,1.8
			c0,0.6,0,1.5,0.1,2.1c0.2,1,0.8,1.2,1.2,1.2C333.5,102.5,334.1,102.2,334.3,101.2z"/>
		<path class="st3" d="M347.7,101.7c0,0.4,0,0.5,0.9,0.5h0.3v0.3c-0.3,0-1.2,0-1.6,0s-1.3,0-1.6,0v-0.3h0.3c0.9,0,0.9-0.1,0.9-0.5
			v-5.2c-0.5,0.3-1.1,0.3-1.3,0.3v-0.3c0.3,0,1.2,0,1.8-0.6c0.2,0,0.2,0,0.2,0.3V101.7z"/>
	</g>
	<g>
		<path class="st3" d="M314.9,100.6V100h2.6v0.6H314.9z"/>
		<path class="st3" d="M321.1,101.7c0,0.4,0,0.5,0.9,0.5h0.3v0.3c-0.3,0-1.2,0-1.6,0s-1.3,0-1.6,0v-0.3h0.3c0.9,0,0.9-0.1,0.9-0.5
			v-5.2c-0.5,0.3-1.1,0.3-1.3,0.3v-0.3c0.3,0,1.2,0,1.8-0.6c0.2,0,0.2,0,0.2,0.3V101.7z"/>
	</g>
	<line class="st22" x1="357.9" y1="99.3" x2="375.6" y2="99.3"/>
	<line class="st22" x1="290.5" y1="99.3" x2="308.3" y2="99.3"/>
	<g>
		<path class="st3" d="M218.4,57c-1.1,0-1.9-0.9-1.9-1.9c0-1,0.9-1.9,1.9-1.9c1,0,1.9,0.9,1.9,1.9C220.3,56.2,219.4,57,218.4,57z
			 M219.9,55.1c0-0.9-0.7-1.5-1.5-1.5c-0.9,0-1.5,0.7-1.5,1.5c0,0.8,0.7,1.5,1.5,1.5C219.2,56.6,219.9,55.9,219.9,55.1z"/>
		<path class="st3" d="M220.7,55.3c-0.2,0-0.3,0-0.3-0.2c0-0.2,0.2-0.2,0.3-0.2h5.4c0.2,0,0.3,0,0.3,0.2c0,0.2-0.2,0.2-0.3,0.2
			H220.7z"/>
		<path class="st3" d="M228.3,57c-1.1,0-1.9-0.9-1.9-1.9c0-1,0.9-1.9,1.9-1.9c1,0,1.9,0.9,1.9,1.9C230.3,56.2,229.4,57,228.3,57z
			 M229.9,55.1c0-0.9-0.7-1.5-1.5-1.5c-0.9,0-1.5,0.7-1.5,1.5c0,0.8,0.7,1.5,1.5,1.5C229.2,56.6,229.9,55.9,229.9,55.1z"/>
	</g>
	<g>
		<path class="st3" d="M211.7,39.8v-0.5h4.3c2,0,3.5,1.3,3.5,3.5c0,2.1-1.5,3.4-3.5,3.4h-4.3v-0.5h1.1v-5.9H211.7z M215.6,45.7
			c0.6,0,1.5-0.2,2-0.8c0.3-0.4,0.4-1,0.4-2.1c0-0.9-0.1-1.6-0.4-2.1c-0.5-0.7-1.3-0.9-2-0.9h-1.5v5.9H215.6z"/>
		<path class="st3" d="M226.8,41.8h-0.5c-0.1-1.2-0.4-1.9-2-1.9H223v2.7h0.5c1,0,1-0.4,1-1.2h0.5v2.8h-0.5c0-0.7-0.1-1.2-1-1.2H223
			v2.7h1.3v0.5c-0.4,0-1.5,0-2,0c-0.4,0-1.4,0-1.8,0v-0.5h1.1v-5.8h-1.1v-0.5h6L226.8,41.8z"/>
	</g>
	<g>
		<path class="st3" d="M234.8,41.9h-0.5c-0.1-1.1-0.2-1.9-1.6-1.9H232v5.8h1.5v0.5c-0.5,0-1.6,0-2.2,0s-1.7,0-2.2,0v-0.5h1.5v-5.8
			h-0.8c-1.4,0-1.5,0.8-1.6,1.9h-0.5l0.2-2.4h6.7L234.8,41.9z"/>
	</g>
</g>
</svg>
