<?xml version="1.0" encoding="utf-8"?>
<!-- Generator: Adobe Illustrator 22.1.0, SVG Export Plug-In . SVG Version: 6.00 Build 0)  -->
<svg version="1.1" id="Layer_1" xmlns="http://www.w3.org/2000/svg" xmlns:xlink="http://www.w3.org/1999/xlink" x="0px" y="0px"
	 viewBox="0 0 362.7 289.4" style="enable-background:new 0 0 362.7 289.4;" xml:space="preserve">
<style type="text/css">
	.st0{fill:none;stroke:#262626;stroke-width:0.4998;stroke-linecap:square;stroke-linejoin:round;stroke-miterlimit:10;}
	.st1{fill:#4A4A49;}
	.st2{fill:none;stroke:#FF0000;stroke-width:4.0002;stroke-miterlimit:10;}
	.st3{fill:none;stroke:#000000;stroke-width:1.9998;stroke-linejoin:round;stroke-miterlimit:10;}
</style>
<g>
	<path class="st0" d="M36.9,257h325.6 M36.9,0.2h325.6 M82.9,257v-3.3 M141.3,257v-3.3 M199.6,257v-3.3 M258,257v-3.3 M316.3,257
		v-3.3 M82.9,0.2v3.3 M141.3,0.2v3.3 M199.6,0.2v3.3 M258,0.2v3.3 M316.3,0.2v3.3"/>
	<g>
		<path class="st1" d="M78.8,268h2.5v0.9h-2.5V268z"/>
		<path class="st1" d="M84.4,266.3h-1.6v-0.7c0.5,0,0.9-0.1,1.2-0.3c0.3-0.2,0.5-0.6,0.7-1h0.7v7h-0.5h-0.5V266.3z"/>
	</g>
	<g>
		<path class="st1" d="M133,268h2.5v0.9H133V268z"/>
		<path class="st1" d="M136.9,270.5c-0.4-0.6-0.6-1.5-0.6-2.7s0.2-2,0.6-2.7c0.4-0.6,1-0.9,1.8-0.9c0.8,0,1.4,0.3,1.8,0.9
			c0.4,0.6,0.6,1.5,0.6,2.7s-0.2,2-0.6,2.7s-1,0.9-1.8,0.9C137.9,271.4,137.3,271.1,136.9,270.5z M139.8,269.9
			c0.2-0.5,0.4-1.2,0.4-2.1c0-0.9-0.1-1.6-0.4-2.1c-0.2-0.5-0.6-0.7-1.1-0.7c-0.5,0-0.9,0.2-1.1,0.7c-0.2,0.5-0.4,1.2-0.4,2.1
			c0,0.9,0.1,1.6,0.4,2.1s0.6,0.7,1.1,0.7C139.2,270.6,139.5,270.4,139.8,269.9z"/>
		<path class="st1" d="M142.3,270.2h1v1.1h-1V270.2z"/>
		<path class="st1" d="M149.4,269c0,0.7-0.2,1.3-0.7,1.8c-0.5,0.5-1,0.7-1.7,0.7c-0.7,0-1.3-0.2-1.7-0.5s-0.7-0.8-0.7-1.5h0.9
			c0,0.4,0.2,0.7,0.5,0.9c0.3,0.2,0.6,0.3,1.1,0.3c0.4,0,0.8-0.1,1-0.4s0.4-0.7,0.4-1.1c0-0.5-0.1-0.9-0.4-1.2s-0.7-0.4-1.1-0.4
			c-0.3,0-0.5,0.1-0.7,0.2s-0.4,0.3-0.5,0.5l-0.7,0l0.5-3.8h3.6v0.9h-3l-0.3,1.9l0,0c0.4-0.3,0.8-0.4,1.2-0.4c0.7,0,1.3,0.2,1.8,0.6
			C149.2,267.7,149.4,268.3,149.4,269z"/>
	</g>
	<g>
		<path class="st1" d="M197.6,270.5c-0.4-0.6-0.6-1.5-0.6-2.7s0.2-2,0.6-2.7c0.4-0.6,1-0.9,1.8-0.9c0.8,0,1.4,0.3,1.8,0.9
			c0.4,0.6,0.6,1.5,0.6,2.7s-0.2,2-0.6,2.7s-1,0.9-1.8,0.9C198.6,271.4,198,271.1,197.6,270.5z M200.5,269.9
			c0.2-0.5,0.4-1.2,0.4-2.1c0-0.9-0.1-1.6-0.4-2.1c-0.2-0.5-0.6-0.7-1.1-0.7c-0.5,0-0.9,0.2-1.1,0.7c-0.2,0.5-0.4,1.2-0.4,2.1
			c0,0.9,0.1,1.6,0.4,2.1s0.6,0.7,1.1,0.7C199.9,270.6,200.3,270.4,200.5,269.9z"/>
		<path class="st1" d="M252.3,270.5c-0.4-0.6-0.6-1.5-0.6-2.7s0.2-2,0.6-2.7c0.4-0.6,1-0.9,1.8-0.9c0.8,0,1.4,0.3,1.8,0.9
			c0.4,0.6,0.6,1.5,0.6,2.7s-0.2,2-0.6,2.7s-1,0.9-1.8,0.9C253.4,271.4,252.8,271.1,252.3,270.5z M255.2,269.9
			c0.2-0.5,0.4-1.2,0.4-2.1c0-0.9-0.1-1.6-0.4-2.1c-0.2-0.5-0.6-0.7-1.1-0.7c-0.5,0-0.9,0.2-1.1,0.7c-0.2,0.5-0.4,1.2-0.4,2.1
			c0,0.9,0.1,1.6,0.4,2.1s0.6,0.7,1.1,0.7C254.6,270.6,255,270.4,255.2,269.9z"/>
	</g>
	<g>
		<path class="st1" d="M256.7,270.2h1v1.1h-1V270.2z"/>
		<path class="st1" d="M263.7,269c0,0.7-0.2,1.3-0.7,1.8c-0.5,0.5-1,0.7-1.7,0.7c-0.7,0-1.3-0.2-1.7-0.5s-0.7-0.8-0.7-1.5h0.9
			c0,0.4,0.2,0.7,0.5,0.9c0.3,0.2,0.6,0.3,1.1,0.3c0.4,0,0.8-0.1,1-0.4c0.3-0.3,0.4-0.7,0.4-1.1c0-0.5-0.1-0.9-0.4-1.2
			s-0.7-0.4-1.1-0.4c-0.3,0-0.5,0.1-0.7,0.2c-0.2,0.1-0.4,0.3-0.5,0.5l-0.7,0l0.5-3.8h3.6v0.9h-3l-0.3,1.9l0,0
			c0.4-0.3,0.8-0.4,1.2-0.4c0.7,0,1.3,0.2,1.8,0.6C263.5,267.7,263.7,268.3,263.7,269z"/>
	</g>
	<g>
		<path class="st1" d="M316,266.3h-1.6v-0.7c0.5,0,0.9-0.1,1.2-0.3c0.3-0.2,0.5-0.6,0.7-1h0.7v7h-0.5H316V266.3z"/>
	</g>
	<g>
		<path class="st1" d="M177.5,278.1h0.5h3.1c0.8,0,1.5,0.2,1.9,0.5c0.4,0.4,0.7,0.9,0.7,1.6c0,0.7-0.2,1.2-0.7,1.6
			c-0.1,0.1-0.2,0.2-0.4,0.3l0.2,0.1c0.5,0.3,0.7,0.7,0.7,1.4l0,1.4c0,0.2,0,0.4,0.1,0.5c0.1,0.1,0.2,0.2,0.3,0.3v0.2h-1.3
			c0-0.1-0.1-0.2-0.1-0.5c0-0.3-0.1-0.6-0.1-0.9l0-0.6c0-0.5-0.1-0.8-0.4-1c-0.2-0.2-0.6-0.3-1.1-0.3h-2.5v3.4h-0.5h-0.5V278.1z
			 M178.6,281.7h2.6c0.5,0,0.9-0.1,1.1-0.3c0.2-0.2,0.3-0.6,0.3-1c0-0.5-0.1-0.8-0.4-1c-0.2-0.2-0.6-0.3-1.1-0.3h-2.6V281.7z"/>
		<path class="st1" d="M187.6,286.2c-0.8,0-1.5-0.3-1.9-0.8s-0.7-1.2-0.7-2.1c0-1,0.2-1.7,0.7-2.3c0.5-0.6,1.2-0.9,2-0.9
			c0.8,0,1.4,0.3,1.8,0.8s0.7,1.3,0.7,2.2l0,0.3H186c0,0.6,0.2,1,0.4,1.3c0.3,0.4,0.7,0.5,1.3,0.5c0.4,0,0.7-0.1,1-0.3
			c0.3-0.2,0.4-0.5,0.5-0.8h1c-0.1,0.6-0.4,1.1-0.9,1.4S188.2,286.2,187.6,286.2z M189.2,282.7c0-0.5-0.2-0.9-0.4-1.2
			c-0.3-0.3-0.6-0.5-1.1-0.5c-0.5,0-0.9,0.2-1.2,0.6c-0.2,0.3-0.4,0.7-0.4,1.2H189.2z"/>
		<path class="st1" d="M192.8,286.2c-0.6,0-1-0.2-1.3-0.5c-0.3-0.3-0.5-0.7-0.5-1.2c0-0.5,0.2-0.9,0.5-1.2c0.3-0.3,0.8-0.5,1.4-0.6
			l1.3-0.2c0.1,0,0.2,0,0.3-0.1c0.1,0,0.2-0.1,0.3-0.2s0.1-0.2,0.1-0.4v0c0-0.3-0.1-0.5-0.3-0.7c-0.2-0.2-0.6-0.3-1-0.3
			c-0.4,0-0.7,0.1-0.9,0.3c-0.2,0.2-0.4,0.5-0.4,0.8h-0.9c0-0.6,0.3-1.1,0.7-1.4c0.4-0.3,1-0.5,1.7-0.5c0.7,0,1.2,0.2,1.6,0.5
			s0.5,0.7,0.5,1.3v3.2c0,0.1,0,0.2,0.1,0.2c0.1,0.1,0.1,0.1,0.2,0.1c0,0,0.1,0,0.1,0c0.1,0,0.1,0,0.2,0v0.7c-0.1,0-0.2,0.1-0.3,0.1
			c-0.1,0-0.2,0-0.3,0c-0.4,0-0.6-0.1-0.8-0.3c-0.1-0.1-0.2-0.3-0.2-0.6c-0.1,0.1-0.2,0.2-0.2,0.3
			C194.1,286,193.5,286.2,192.8,286.2z M194.8,283.8v-0.6c-0.2,0.1-0.4,0.1-0.6,0.2l-0.9,0.1c-0.5,0.1-0.8,0.2-1,0.3
			c-0.2,0.2-0.3,0.4-0.3,0.6c0,0.3,0.1,0.6,0.3,0.7s0.4,0.3,0.7,0.3c0.5,0,0.9-0.1,1.3-0.4c0.2-0.2,0.4-0.4,0.5-0.7c0,0,0-0.1,0-0.2
			C194.8,284,194.8,283.9,194.8,283.8z"/>
		<path class="st1" d="M197.5,278.1h0.5h0.5v7.9h-0.5h-0.5V278.1z"/>
		<path class="st1" d="M203.2,278.1h0.5h2.9c0.8,0,1.4,0.2,1.8,0.6c0.4,0.4,0.6,0.9,0.6,1.6c0,0.7-0.2,1.3-0.6,1.8s-1,0.6-1.8,0.6
			c-1,0-1.8,0-2.4,0v3.3h-0.5h-0.5V278.1z M204.2,281.8h2.1c0.6,0,1-0.1,1.2-0.4s0.4-0.6,0.4-1.1c0-0.4-0.1-0.8-0.4-1
			c-0.3-0.2-0.7-0.3-1.2-0.3h-2.1V281.8z"/>
		<path class="st1" d="M211.8,286.2c-0.6,0-1-0.2-1.3-0.5c-0.3-0.3-0.5-0.7-0.5-1.2c0-0.5,0.2-0.9,0.5-1.2c0.3-0.3,0.8-0.5,1.4-0.6
			l1.3-0.2c0.1,0,0.2,0,0.3-0.1c0.1,0,0.2-0.1,0.3-0.2c0.1-0.1,0.1-0.2,0.1-0.4v0c0-0.3-0.1-0.5-0.3-0.7c-0.2-0.2-0.6-0.3-1-0.3
			c-0.4,0-0.7,0.1-0.9,0.3c-0.2,0.2-0.4,0.5-0.4,0.8h-0.9c0-0.6,0.3-1.1,0.7-1.4c0.4-0.3,1-0.5,1.7-0.5c0.7,0,1.2,0.2,1.6,0.5
			s0.5,0.7,0.5,1.3v3.2c0,0.1,0,0.2,0.1,0.2c0.1,0.1,0.1,0.1,0.2,0.1c0,0,0.1,0,0.1,0c0.1,0,0.1,0,0.2,0v0.7c-0.1,0-0.2,0.1-0.3,0.1
			c-0.1,0-0.2,0-0.3,0c-0.4,0-0.6-0.1-0.8-0.3c-0.1-0.1-0.2-0.3-0.2-0.6c-0.1,0.1-0.2,0.2-0.2,0.3
			C213.1,286,212.5,286.2,211.8,286.2z M213.8,283.8v-0.6c-0.2,0.1-0.4,0.1-0.6,0.2l-0.9,0.1c-0.5,0.1-0.8,0.2-1,0.3
			s-0.3,0.4-0.3,0.6c0,0.3,0.1,0.6,0.3,0.7c0.2,0.2,0.4,0.3,0.7,0.3c0.5,0,0.9-0.1,1.3-0.4c0.2-0.2,0.4-0.4,0.5-0.7c0,0,0-0.1,0-0.2
			C213.8,284,213.8,283.9,213.8,283.8z"/>
		<path class="st1" d="M216.5,280.3h0.5h0.5v1c0.1-0.2,0.2-0.3,0.3-0.4c0.4-0.5,0.8-0.7,1.3-0.7c0.1,0,0.2,0,0.3,0v1l-0.2,0
			c-0.5,0-0.9,0.2-1.2,0.5c-0.3,0.3-0.4,0.8-0.4,1.3v3.1H217h-0.5V280.3z"/>
		<path class="st1" d="M222.2,286c-0.3,0-0.6,0.1-0.7,0.1c-0.4,0-0.7-0.1-0.9-0.3c-0.2-0.2-0.3-0.5-0.3-1v-3.8h-0.8v-0.8h0.8v-1.6h1
			v1.6h0.9v0.8h-0.9v3.8c0,0.1,0.1,0.2,0.2,0.3c0.1,0.1,0.2,0.1,0.4,0.1h0.3V286z"/>
	</g>
	<path class="st0" d="M36.9,257V0.2 M362.4,257V0.2 M36.9,245.4h3.3 M36.9,222h3.3 M36.9,198.7h3.3 M36.9,175.3h3.3 M36.9,152h3.3
		 M36.9,128.6h3.3 M36.9,105.3h3.3 M36.9,82h3.3 M36.9,58.6h3.3 M36.9,35.3h3.3 M36.9,11.9h3.3 M362.4,245.4h-3.3 M362.4,222h-3.3
		 M362.4,198.7h-3.3 M362.4,175.3h-3.3 M362.4,152h-3.3 M362.4,128.6h-3.3 M362.4,105.3h-3.3 M362.4,82h-3.3 M362.4,58.6h-3.3
		 M362.4,35.3h-3.3 M362.4,11.9h-3.3"/>
	<g>
		<path class="st1" d="M24.3,246.1h2.5v0.9h-2.5V246.1z"/>
		<path class="st1" d="M29.8,244.3h-1.6v-0.7c0.5,0,0.9-0.1,1.2-0.3c0.3-0.2,0.5-0.6,0.7-1h0.7v7h-0.5h-0.5V244.3z"/>
	</g>
	<g>
		<path class="st1" d="M15.9,222.7h2.5v0.9h-2.5V222.7z"/>
		<path class="st1" d="M19.8,225.2c-0.4-0.6-0.6-1.5-0.6-2.7s0.2-2,0.6-2.7c0.4-0.6,1-0.9,1.8-0.9c0.8,0,1.4,0.3,1.8,0.9
			c0.4,0.6,0.6,1.5,0.6,2.7s-0.2,2-0.6,2.7s-1,0.9-1.8,0.9C20.8,226.1,20.2,225.8,19.8,225.2z M22.7,224.6c0.2-0.5,0.4-1.2,0.4-2.1
			c0-0.9-0.1-1.6-0.4-2.1c-0.2-0.5-0.6-0.7-1.1-0.7c-0.5,0-0.9,0.2-1.1,0.7c-0.2,0.5-0.4,1.2-0.4,2.1c0,0.9,0.1,1.6,0.4,2.1
			s0.6,0.7,1.1,0.7C22.1,225.3,22.4,225.1,22.7,224.6z"/>
		<path class="st1" d="M25.2,224.9h1v1.1h-1V224.9z"/>
		<path class="st1" d="M31.1,222.2c0.2,0.1,0.4,0.2,0.5,0.3c0.4,0.4,0.7,0.8,0.7,1.4c0,0.7-0.2,1.2-0.7,1.6s-1,0.6-1.7,0.6
			s-1.3-0.2-1.7-0.6s-0.7-0.9-0.7-1.6c0-0.6,0.2-1.1,0.7-1.4c0.2-0.1,0.3-0.2,0.5-0.3c-0.1-0.1-0.2-0.1-0.3-0.2
			c-0.4-0.3-0.6-0.7-0.6-1.2c0-0.6,0.2-1,0.6-1.4s0.9-0.5,1.6-0.5s1.2,0.2,1.6,0.5s0.6,0.8,0.6,1.4c0,0.5-0.2,0.9-0.6,1.2
			C31.4,222.1,31.2,222.1,31.1,222.2z M29.9,222.6c-0.4,0-0.8,0.1-1.1,0.4c-0.3,0.3-0.4,0.6-0.4,1c0,0.4,0.1,0.7,0.4,1
			s0.6,0.4,1.1,0.4s0.8-0.1,1.1-0.4s0.4-0.6,0.4-1c0-0.4-0.1-0.7-0.4-1C30.7,222.7,30.3,222.6,29.9,222.6z M29.9,221.8
			c0.4,0,0.7-0.1,0.9-0.3s0.3-0.5,0.3-0.8s-0.1-0.6-0.3-0.8s-0.5-0.3-0.9-0.3s-0.7,0.1-0.9,0.3s-0.3,0.5-0.3,0.8s0.1,0.6,0.3,0.8
			C29.2,221.7,29.5,221.8,29.9,221.8z"/>
	</g>
	<g>
		<path class="st1" d="M15.9,199.4h2.5v0.9h-2.5V199.4z"/>
		<path class="st1" d="M19.8,201.8c-0.4-0.6-0.6-1.5-0.6-2.7s0.2-2,0.6-2.7c0.4-0.6,1-0.9,1.8-0.9c0.8,0,1.4,0.3,1.8,0.9
			c0.4,0.6,0.6,1.5,0.6,2.7s-0.2,2-0.6,2.7s-1,0.9-1.8,0.9C20.8,202.8,20.2,202.5,19.8,201.8z M22.7,201.3c0.2-0.5,0.4-1.2,0.4-2.1
			c0-0.9-0.1-1.6-0.4-2.1c-0.2-0.5-0.6-0.7-1.1-0.7c-0.5,0-0.9,0.2-1.1,0.7c-0.2,0.5-0.4,1.2-0.4,2.1c0,0.9,0.1,1.6,0.4,2.1
			s0.6,0.7,1.1,0.7C22.1,202,22.4,201.7,22.7,201.3z"/>
		<path class="st1" d="M25.2,201.5h1v1.1h-1V201.5z"/>
		<path class="st1" d="M30.1,195.5c0.6,0,1.1,0.2,1.5,0.5c0.4,0.3,0.6,0.8,0.6,1.4h-0.9c0-0.3-0.2-0.6-0.4-0.8s-0.5-0.3-0.8-0.3
			c-0.5,0-1,0.3-1.3,0.8c-0.3,0.4-0.4,1.1-0.4,1.8c0.4-0.6,1-0.8,1.7-0.8c0.7,0,1.2,0.2,1.6,0.6c0.4,0.4,0.6,1,0.6,1.7
			s-0.2,1.3-0.7,1.7s-1,0.6-1.7,0.6c-0.8,0-1.4-0.3-1.8-0.9c-0.4-0.6-0.6-1.4-0.6-2.5c0-1.2,0.2-2.2,0.7-2.8
			C28.6,195.9,29.3,195.5,30.1,195.5z M28.5,200.4c0,0.5,0.1,0.8,0.4,1.1s0.6,0.4,1,0.4s0.8-0.1,1-0.4s0.4-0.7,0.4-1.1
			s-0.1-0.8-0.4-1.1s-0.6-0.4-1-0.4s-0.8,0.1-1,0.4C28.7,199.6,28.5,200,28.5,200.4z"/>
	</g>
	<g>
		<path class="st1" d="M15.9,176h2.5v0.9h-2.5V176z"/>
		<path class="st1" d="M19.8,178.5c-0.4-0.6-0.6-1.5-0.6-2.7s0.2-2,0.6-2.7c0.4-0.6,1-0.9,1.8-0.9c0.8,0,1.4,0.3,1.8,0.9
			c0.4,0.6,0.6,1.5,0.6,2.7s-0.2,2-0.6,2.7s-1,0.9-1.8,0.9C20.8,179.4,20.2,179.1,19.8,178.5z M22.7,177.9c0.2-0.5,0.4-1.2,0.4-2.1
			c0-0.9-0.1-1.6-0.4-2.1c-0.2-0.5-0.6-0.7-1.1-0.7c-0.5,0-0.9,0.2-1.1,0.7c-0.2,0.5-0.4,1.2-0.4,2.1c0,0.9,0.1,1.6,0.4,2.1
			s0.6,0.7,1.1,0.7C22.1,178.6,22.4,178.4,22.7,177.9z"/>
		<path class="st1" d="M25.2,178.2h1v1.1h-1V178.2z"/>
		<path class="st1" d="M27.4,177.6v-0.4v-0.4l3.3-4.5H31h0.4v4.6h1v0.8h-1v1.7h-0.9v-1.7H27.4z M30.5,176.8v-3.2l-2.2,3.1l0,0.1
			H30.5z"/>
	</g>
	<g>
		<path class="st1" d="M15.9,152.7h2.5v0.9h-2.5V152.7z"/>
		<path class="st1" d="M19.8,155.1c-0.4-0.6-0.6-1.5-0.6-2.7s0.2-2,0.6-2.7c0.4-0.6,1-0.9,1.8-0.9c0.8,0,1.4,0.3,1.8,0.9
			c0.4,0.6,0.6,1.5,0.6,2.7s-0.2,2-0.6,2.7s-1,0.9-1.8,0.9C20.8,156.1,20.2,155.8,19.8,155.1z M22.7,154.6c0.2-0.5,0.4-1.2,0.4-2.1
			c0-0.9-0.1-1.6-0.4-2.1c-0.2-0.5-0.6-0.7-1.1-0.7c-0.5,0-0.9,0.2-1.1,0.7c-0.2,0.5-0.4,1.2-0.4,2.1c0,0.9,0.1,1.6,0.4,2.1
			s0.6,0.7,1.1,0.7C22.1,155.3,22.4,155.1,22.7,154.6z"/>
		<path class="st1" d="M25.2,154.8h1v1.1h-1V154.8z"/>
		<path class="st1" d="M32.2,150.9c0,0.5-0.1,0.9-0.4,1.3c-0.3,0.3-0.8,0.7-1.5,1.1c-0.8,0.4-1.3,0.8-1.6,1.2
			c-0.1,0.2-0.2,0.3-0.3,0.5h3.8v0.9h-4.8v0c0-0.7,0.2-1.3,0.6-1.8c0.4-0.5,1.1-1,2.1-1.5c0.5-0.3,0.8-0.5,1-0.8
			c0.2-0.2,0.3-0.5,0.3-0.9c0-0.4-0.1-0.7-0.4-0.9c-0.3-0.2-0.6-0.4-1-0.4c-0.4,0-0.8,0.1-1,0.4s-0.4,0.7-0.4,1.3h-0.9
			c0-0.8,0.2-1.4,0.6-1.8c0.4-0.4,1-0.7,1.8-0.7c0.7,0,1.2,0.2,1.6,0.6C32,149.8,32.2,150.3,32.2,150.9z"/>
	</g>
	<g>
		<path class="st1" d="M27.9,131.8c-0.4-0.6-0.6-1.5-0.6-2.7c0-1.2,0.2-2,0.6-2.7c0.4-0.6,1-0.9,1.8-0.9c0.8,0,1.4,0.3,1.8,0.9
			c0.4,0.6,0.6,1.5,0.6,2.7c0,1.2-0.2,2-0.6,2.7s-1,0.9-1.8,0.9C28.9,132.7,28.3,132.4,27.9,131.8z M30.7,131.2
			c0.2-0.5,0.4-1.2,0.4-2.1c0-0.9-0.1-1.6-0.4-2.1c-0.2-0.5-0.6-0.7-1.1-0.7c-0.5,0-0.9,0.2-1.1,0.7c-0.2,0.5-0.4,1.2-0.4,2.1
			c0,0.9,0.1,1.6,0.4,2.1s0.6,0.7,1.1,0.7C30.1,132,30.5,131.7,30.7,131.2z"/>
	</g>
	<g>
		<path class="st1" d="M19.4,108.5c-0.4-0.6-0.6-1.5-0.6-2.7s0.2-2,0.6-2.7c0.4-0.6,1-0.9,1.8-0.9c0.8,0,1.4,0.3,1.8,0.9
			c0.4,0.6,0.6,1.5,0.6,2.7s-0.2,2-0.6,2.7s-1,0.9-1.8,0.9C20.5,109.4,19.9,109.1,19.4,108.5z M22.3,107.9c0.2-0.5,0.4-1.2,0.4-2.1
			c0-0.9-0.1-1.6-0.4-2.1c-0.2-0.5-0.6-0.7-1.1-0.7c-0.5,0-0.9,0.2-1.1,0.7c-0.2,0.5-0.4,1.2-0.4,2.1c0,0.9,0.1,1.6,0.4,2.1
			s0.6,0.7,1.1,0.7C21.7,108.6,22.1,108.4,22.3,107.9z"/>
		<path class="st1" d="M24.9,108.1h1v1.1h-1V108.1z"/>
	</g>
	<g>
		<path class="st1" d="M31,104.2c0,0.5-0.1,0.9-0.4,1.3s-0.8,0.7-1.5,1.1c-0.8,0.4-1.3,0.8-1.6,1.2c-0.1,0.2-0.2,0.3-0.3,0.5H31v0.9
			h-4.8v0c0-0.7,0.2-1.3,0.6-1.8s1.1-1,2.1-1.5c0.5-0.3,0.8-0.5,1-0.8c0.2-0.2,0.3-0.5,0.3-0.9c0-0.4-0.1-0.7-0.4-0.9
			s-0.6-0.4-1-0.4c-0.4,0-0.8,0.1-1,0.4c-0.2,0.3-0.4,0.7-0.4,1.3h-0.9c0-0.8,0.2-1.4,0.6-1.8c0.4-0.4,1-0.7,1.8-0.7
			c0.7,0,1.2,0.2,1.6,0.6C30.8,103.1,31,103.6,31,104.2z"/>
	</g>
	<g>
		<path class="st1" d="M19.4,85.1c-0.4-0.6-0.6-1.5-0.6-2.7s0.2-2,0.6-2.7c0.4-0.6,1-0.9,1.8-0.9c0.8,0,1.4,0.3,1.8,0.9
			c0.4,0.6,0.6,1.5,0.6,2.7s-0.2,2-0.6,2.7S22,86,21.2,86C20.5,86,19.9,85.7,19.4,85.1z M22.3,84.6c0.2-0.5,0.4-1.2,0.4-2.1
			c0-0.9-0.1-1.6-0.4-2.1c-0.2-0.5-0.6-0.7-1.1-0.7c-0.5,0-0.9,0.2-1.1,0.7c-0.2,0.5-0.4,1.2-0.4,2.1c0,0.9,0.1,1.6,0.4,2.1
			s0.6,0.7,1.1,0.7C21.7,85.3,22.1,85,22.3,84.6z"/>
		<path class="st1" d="M24.9,84.8h1v1.1h-1V84.8z"/>
	</g>
	<g>
		<path class="st1" d="M26.2,84.2v-0.4v-0.4l3.3-4.5h0.4h0.4v4.6h1v0.8h-1v1.7h-0.9v-1.7H26.2z M29.3,83.4v-3.2l-2.2,3.1l0,0.1H29.3
			z"/>
	</g>
	<g>
		<path class="st1" d="M19.4,61.8c-0.4-0.6-0.6-1.5-0.6-2.7s0.2-2,0.6-2.7c0.4-0.6,1-0.9,1.8-0.9c0.8,0,1.4,0.3,1.8,0.9
			c0.4,0.6,0.6,1.5,0.6,2.7s-0.2,2-0.6,2.7s-1,0.9-1.8,0.9C20.5,62.7,19.9,62.4,19.4,61.8z M22.3,61.2c0.2-0.5,0.4-1.2,0.4-2.1
			c0-0.9-0.1-1.6-0.4-2.1c-0.2-0.5-0.6-0.7-1.1-0.7c-0.5,0-0.9,0.2-1.1,0.7c-0.2,0.5-0.4,1.2-0.4,2.1c0,0.9,0.1,1.6,0.4,2.1
			s0.6,0.7,1.1,0.7C21.7,61.9,22.1,61.7,22.3,61.2z"/>
		<path class="st1" d="M24.9,61.5h1v1.1h-1V61.5z"/>
	</g>
	<g>
		<path class="st1" d="M28.9,55.5c0.6,0,1.1,0.2,1.5,0.5c0.4,0.3,0.6,0.8,0.6,1.4h-0.9c0-0.3-0.2-0.6-0.4-0.8
			c-0.2-0.2-0.5-0.3-0.8-0.3c-0.5,0-1,0.3-1.3,0.8c-0.3,0.4-0.4,1.1-0.4,1.8c0.4-0.6,1-0.8,1.7-0.8c0.7,0,1.2,0.2,1.6,0.6
			s0.6,1,0.6,1.7s-0.2,1.3-0.7,1.7s-1,0.6-1.7,0.6c-0.8,0-1.4-0.3-1.8-0.9s-0.6-1.4-0.6-2.5c0-1.2,0.2-2.2,0.7-2.8
			C27.5,55.8,28.1,55.5,28.9,55.5z M27.4,60.4c0,0.5,0.1,0.8,0.4,1.1s0.6,0.4,1,0.4s0.8-0.1,1-0.4s0.4-0.7,0.4-1.1s-0.1-0.8-0.4-1.1
			s-0.6-0.4-1-0.4s-0.8,0.1-1,0.4C27.5,59.6,27.4,59.9,27.4,60.4z"/>
	</g>
	<g>
		<path class="st1" d="M19.4,38.4c-0.4-0.6-0.6-1.5-0.6-2.7s0.2-2,0.6-2.7c0.4-0.6,1-0.9,1.8-0.9c0.8,0,1.4,0.3,1.8,0.9
			c0.4,0.6,0.6,1.5,0.6,2.7s-0.2,2-0.6,2.7s-1,0.9-1.8,0.9C20.5,39.4,19.9,39,19.4,38.4z M22.3,37.9c0.2-0.5,0.4-1.2,0.4-2.1
			c0-0.9-0.1-1.6-0.4-2.1c-0.2-0.5-0.6-0.7-1.1-0.7c-0.5,0-0.9,0.2-1.1,0.7c-0.2,0.5-0.4,1.2-0.4,2.1c0,0.9,0.1,1.6,0.4,2.1
			s0.6,0.7,1.1,0.7C21.7,38.6,22.1,38.3,22.3,37.9z"/>
		<path class="st1" d="M24.9,38.1h1v1.1h-1V38.1z"/>
	</g>
	<g>
		<path class="st1" d="M29.9,35.4c0.2,0.1,0.4,0.2,0.5,0.3c0.4,0.4,0.7,0.8,0.7,1.4c0,0.7-0.2,1.2-0.7,1.6s-1,0.6-1.7,0.6
			s-1.3-0.2-1.7-0.6s-0.7-0.9-0.7-1.6c0-0.6,0.2-1.1,0.7-1.4c0.2-0.1,0.3-0.2,0.5-0.3c-0.1-0.1-0.2-0.1-0.3-0.2
			c-0.4-0.3-0.6-0.7-0.6-1.2c0-0.6,0.2-1,0.6-1.4s0.9-0.5,1.6-0.5s1.2,0.2,1.6,0.5s0.6,0.8,0.6,1.4c0,0.5-0.2,0.9-0.6,1.2
			C30.2,35.3,30.1,35.4,29.9,35.4z M28.7,35.8c-0.4,0-0.8,0.1-1.1,0.4s-0.4,0.6-0.4,1c0,0.4,0.1,0.7,0.4,1s0.6,0.4,1.1,0.4
			s0.8-0.1,1.1-0.4s0.4-0.6,0.4-1c0-0.4-0.1-0.7-0.4-1C29.5,36,29.2,35.8,28.7,35.8z M28.7,35.1c0.4,0,0.7-0.1,0.9-0.3
			s0.3-0.5,0.3-0.8s-0.1-0.6-0.3-0.8c-0.2-0.2-0.5-0.3-0.9-0.3s-0.7,0.1-0.9,0.3c-0.2,0.2-0.3,0.5-0.3,0.8s0.1,0.6,0.3,0.8
			C28.1,35,28.4,35.1,28.7,35.1z"/>
	</g>
	<g>
		<path class="st1" d="M29.5,10.8h-1.6v-0.7c0.5,0,0.9-0.1,1.2-0.3c0.3-0.2,0.5-0.6,0.7-1h0.7v7H30h-0.5V10.8z"/>
	</g>
	<g>
		<path class="st1" d="M1.6,163.7v-0.5v-0.5h7.9v0.5v0.5H1.6z"/>
		<path class="st1" d="M3.7,160.9v-0.5V160h0.9l-0.3-0.2c-0.5-0.4-0.8-1-0.8-1.6c0-0.5,0.2-0.9,0.5-1.2c0.1-0.1,0.3-0.2,0.5-0.3
			l-0.2-0.2c-0.5-0.4-0.7-0.9-0.7-1.5c0-0.6,0.2-1.1,0.5-1.4c0.3-0.3,0.8-0.5,1.4-0.5h4v0.5v0.5H5.7c-0.4,0-0.8,0.1-1,0.3
			c-0.2,0.2-0.3,0.4-0.3,0.8c0,0.4,0.2,0.8,0.5,1c0.3,0.2,0.8,0.4,1.3,0.4h3.2v0.5v0.5H5.5c-0.4,0-0.6,0.1-0.8,0.2
			c-0.2,0.2-0.3,0.4-0.3,0.7c0,0.4,0.2,0.8,0.5,1.1c0.4,0.3,0.8,0.4,1.4,0.4h3.1v0.5v0.5H3.7z"/>
		<path class="st1" d="M9.6,150.2c0,0.6-0.2,1-0.5,1.3S8.4,152,7.9,152c-0.5,0-0.9-0.2-1.2-0.5s-0.5-0.8-0.6-1.4L6,148.9
			c0-0.1,0-0.2-0.1-0.3c0-0.1-0.1-0.2-0.2-0.3c-0.1-0.1-0.2-0.1-0.4-0.1h0c-0.3,0-0.5,0.1-0.7,0.3c-0.2,0.2-0.3,0.6-0.3,1
			c0,0.4,0.1,0.7,0.3,0.9c0.2,0.2,0.5,0.4,0.8,0.4v0.9c-0.6,0-1.1-0.3-1.4-0.7s-0.5-1-0.5-1.7c0-0.7,0.2-1.2,0.5-1.6
			c0.3-0.4,0.7-0.5,1.3-0.5h3.2c0.1,0,0.2,0,0.2-0.1c0.1-0.1,0.1-0.1,0.1-0.2c0,0,0-0.1,0-0.1c0-0.1,0-0.1,0-0.2h0.7
			c0,0.1,0.1,0.2,0.1,0.3c0,0.1,0,0.2,0,0.3c0,0.4-0.1,0.6-0.3,0.8c-0.1,0.1-0.3,0.2-0.6,0.2c0.1,0.1,0.2,0.2,0.3,0.2
			C9.4,148.9,9.6,149.5,9.6,150.2z M7.2,148.2H6.5c0.1,0.2,0.1,0.4,0.2,0.6l0.1,0.9c0.1,0.5,0.2,0.8,0.3,1c0.2,0.2,0.4,0.3,0.6,0.3
			c0.3,0,0.6-0.1,0.7-0.3c0.2-0.2,0.3-0.4,0.3-0.7c0-0.5-0.1-0.9-0.4-1.3c-0.2-0.2-0.4-0.4-0.7-0.5c0,0-0.1,0-0.2,0
			C7.4,148.2,7.3,148.2,7.2,148.2z"/>
		<path class="st1" d="M11.1,143.5c0-0.6-0.2-1-0.5-1.3s-0.9-0.4-1.5-0.4H8.8l0,0c0.5,0.4,0.8,0.9,0.8,1.6c0,0.8-0.3,1.4-0.9,1.8
			c-0.6,0.5-1.4,0.7-2.3,0.7c-0.9,0-1.6-0.2-2.1-0.7c-0.5-0.4-0.8-1-0.8-1.8c0-0.7,0.3-1.2,0.9-1.6l0.1-0.1H3.7v-0.9H9
			c1,0,1.7,0.2,2.2,0.7s0.7,1.1,0.7,2c0,0.7-0.2,1.2-0.5,1.6c-0.3,0.4-0.7,0.6-1.3,0.7v-1c0.3-0.1,0.5-0.2,0.7-0.4
			S11.1,143.8,11.1,143.5z M4.4,143.3c0,0.5,0.2,0.9,0.5,1.2s0.9,0.4,1.6,0.4c0.7,0,1.2-0.1,1.6-0.4s0.6-0.7,0.6-1.2
			c0-0.5-0.2-0.8-0.5-1.1c-0.4-0.3-0.8-0.4-1.4-0.4c-0.8,0-1.4,0.1-1.8,0.4C4.6,142.4,4.4,142.8,4.4,143.3z"/>
		<path class="st1" d="M1.6,139.5v-1h1.1v1H1.6z M3.7,139.5V139v-0.5h5.7v0.5v0.5H3.7z"/>
		<path class="st1" d="M3.7,137v-0.5v-0.5h0.8l-0.3-0.2c-0.5-0.4-0.7-0.9-0.7-1.6c0-0.6,0.2-1.1,0.5-1.5s0.8-0.5,1.5-0.5h3.9v0.5
			v0.5H5.8c-0.5,0-0.9,0.1-1.1,0.3c-0.2,0.2-0.3,0.5-0.3,0.9c0,0.5,0.2,0.8,0.5,1.1c0.4,0.3,0.8,0.4,1.4,0.4h3.1v0.5v0.5H3.7z"/>
		<path class="st1" d="M9.6,129.4c0,0.6-0.2,1-0.5,1.3s-0.7,0.5-1.2,0.5c-0.5,0-0.9-0.2-1.2-0.5c-0.3-0.3-0.5-0.8-0.6-1.4L6,128.1
			c0-0.1,0-0.2-0.1-0.3c0-0.1-0.1-0.2-0.2-0.3c-0.1-0.1-0.2-0.1-0.4-0.1h0c-0.3,0-0.5,0.1-0.7,0.3c-0.2,0.2-0.3,0.6-0.3,1
			c0,0.4,0.1,0.7,0.3,0.9c0.2,0.2,0.5,0.4,0.8,0.4v0.9c-0.6,0-1.1-0.3-1.4-0.7s-0.5-1-0.5-1.7c0-0.7,0.2-1.2,0.5-1.6
			c0.3-0.4,0.7-0.5,1.3-0.5h3.2c0.1,0,0.2,0,0.2-0.1s0.1-0.1,0.1-0.2c0,0,0-0.1,0-0.1c0-0.1,0-0.1,0-0.2h0.7c0,0.1,0.1,0.2,0.1,0.3
			c0,0.1,0,0.2,0,0.3c0,0.4-0.1,0.6-0.3,0.8c-0.1,0.1-0.3,0.2-0.6,0.2c0.1,0.1,0.2,0.2,0.3,0.2C9.4,128.1,9.6,128.7,9.6,129.4z
			 M7.2,127.4H6.5c0.1,0.2,0.1,0.4,0.2,0.6l0.1,0.9c0.1,0.5,0.2,0.8,0.3,1c0.2,0.2,0.4,0.3,0.6,0.3c0.3,0,0.6-0.1,0.7-0.3
			c0.2-0.2,0.3-0.4,0.3-0.7c0-0.5-0.1-0.9-0.4-1.3c-0.2-0.2-0.4-0.4-0.7-0.5c0,0-0.1,0-0.2,0C7.4,127.4,7.3,127.4,7.2,127.4z"/>
		<path class="st1" d="M3.7,124.7v-0.5v-0.5h1c-0.2-0.1-0.3-0.2-0.4-0.3c-0.5-0.4-0.7-0.8-0.7-1.3c0-0.1,0-0.2,0-0.3h1l0,0.2
			c0,0.5,0.2,0.9,0.5,1.2c0.3,0.3,0.8,0.4,1.3,0.4h3.1v0.5v0.5H3.7z"/>
		<path class="st1" d="M9.6,118.7c0.9,0.3,1.5,0.6,1.7,0.9s0.4,0.7,0.4,1.2c0,0.2,0,0.3-0.1,0.5h-0.9c0.1-0.1,0.1-0.3,0.1-0.6
			c0-0.2-0.1-0.4-0.3-0.5c-0.2-0.1-0.5-0.3-1-0.5l-0.1,0h0l-5.8,2.1v-0.5v-0.6l4.8-1.5l-4.8-1.6V117v-0.5L9.6,118.7z"/>
		<path class="st1" d="M1.6,112.4v-0.5v-2.9c0-0.8,0.2-1.4,0.6-1.8c0.4-0.4,0.9-0.6,1.6-0.6c0.7,0,1.3,0.2,1.8,0.6
			c0.4,0.4,0.6,1,0.6,1.8c0,1,0,1.8,0,2.4h3.3v0.5v0.5H1.6z M5.2,111.3v-2.1c0-0.6-0.1-1-0.4-1.2c-0.2-0.3-0.6-0.4-1.1-0.4
			c-0.4,0-0.8,0.1-1,0.4s-0.3,0.7-0.3,1.2v2.1H5.2z"/>
		<path class="st1" d="M9.6,103.7c0,0.6-0.2,1-0.5,1.3s-0.7,0.5-1.2,0.5c-0.5,0-0.9-0.2-1.2-0.5c-0.3-0.3-0.5-0.8-0.6-1.4L6,102.4
			c0-0.1,0-0.2-0.1-0.3c0-0.1-0.1-0.2-0.2-0.3c-0.1-0.1-0.2-0.1-0.4-0.1h0c-0.3,0-0.5,0.1-0.7,0.3c-0.2,0.2-0.3,0.6-0.3,1
			c0,0.4,0.1,0.7,0.3,0.9c0.2,0.2,0.5,0.4,0.8,0.4v0.9c-0.6,0-1.1-0.3-1.4-0.7s-0.5-1-0.5-1.7c0-0.7,0.2-1.2,0.5-1.6
			c0.3-0.4,0.7-0.5,1.3-0.5h3.2c0.1,0,0.2,0,0.2-0.1s0.1-0.1,0.1-0.2c0,0,0-0.1,0-0.1c0-0.1,0-0.1,0-0.2h0.7c0,0.1,0.1,0.2,0.1,0.3
			c0,0.1,0,0.2,0,0.3c0,0.4-0.1,0.6-0.3,0.8c-0.1,0.1-0.3,0.2-0.6,0.2c0.1,0.1,0.2,0.2,0.3,0.2C9.4,102.4,9.6,103,9.6,103.7z
			 M7.2,101.7H6.5c0.1,0.2,0.1,0.4,0.2,0.6l0.1,0.9c0.1,0.5,0.2,0.8,0.3,1c0.2,0.2,0.4,0.3,0.6,0.3c0.3,0,0.6-0.1,0.7-0.3
			c0.2-0.2,0.3-0.4,0.3-0.7c0-0.5-0.1-0.9-0.4-1.3c-0.2-0.2-0.4-0.4-0.7-0.5c0,0-0.1,0-0.2,0C7.4,101.7,7.3,101.7,7.2,101.7z"/>
		<path class="st1" d="M3.7,99v-0.5v-0.5h1c-0.2-0.1-0.3-0.2-0.4-0.3c-0.5-0.4-0.7-0.8-0.7-1.3c0-0.1,0-0.2,0-0.3h1l0,0.2
			c0,0.5,0.2,0.9,0.5,1.2C5.3,97.9,5.8,98,6.4,98h3.1v0.5V99H3.7z"/>
		<path class="st1" d="M9.4,93.4c0.1,0.3,0.1,0.6,0.1,0.7c0,0.4-0.1,0.7-0.3,0.9c-0.2,0.2-0.5,0.3-1,0.3H4.5V96H3.7v-0.8H2.1v-1h1.6
			v-0.9h0.8v0.9h3.8c0.1,0,0.2-0.1,0.3-0.2s0.1-0.2,0.1-0.4v-0.3H9.4z"/>
	</g>
	<path d="M316.3,240.4c2.8,0,5,2.2,5,5l0,0c0,2.8-2.2,5-5,5c-2.8,0-5-2.2-5-5S313.6,240.4,316.3,240.4L316.3,240.4z M316.3,236.4
		c-5,0-9,4-9,9s4,9,9,9s9-4,9-9l0,0C325.3,240.4,321.3,236.4,316.3,236.4L316.3,236.4z"/>
	<path d="M316.3,6.9c2.8,0,5,2.2,5,5l0,0c0,2.8-2.2,5-5,5c-2.8,0-5-2.2-5-5S313.6,6.9,316.3,6.9L316.3,6.9z M316.3,2.9c-5,0-9,4-9,9
		s4,9,9,9s9-4,9-9l0,0C325.3,7,321.3,2.9,316.3,2.9L316.3,2.9z"/>
	<path class="st2" d="M250.9,63.2l14.1,14.1 M251.2,77.1L265.4,63 M250.9,179.9l14.1,14.1 M250.9,194.6l14.1-14.1"/>
	<path class="st3" d="M316.3,128.6l-0.2-7.4l-0.7-7.4l-1.2-7.3l-1.6-7.2l-2.1-7.1l-2.5-7l-3-6.8l-3.4-6.6l-3.8-6.4l-4.2-6.1
		l-4.6-5.8l-4.9-5.5l-5.3-5.2l-5.6-4.9l-5.9-4.5l-6.2-4.1l-6.4-3.7l-6.6-3.3l-6.8-2.9l-7-2.4l-7.1-2l-7.3-1.5l-7.3-1.1l-7.4-0.6
		l-7.4-0.1l-7.4,0.4l-7.4,0.8l-7.3,1.3l-7.2,1.7l-7.1,2.2l-6.9,2.6l-6.7,3.1l-6.5,3.5l-6.3,3.9l-6,4.3l-5.7,4.7l-5.4,5l-5.1,5.4
		l-4.8,5.7l-4.4,6l-4,6.2l-3.6,6.5l-3.2,6.7l-2.8,6.9l-2.3,7l-1.9,7.2l-1.4,7.3l-0.9,7.3l-0.5,7.4v7.4l0.5,7.4l0.9,7.3l1.4,7.3
		l1.9,7.2l2.3,7l2.8,6.9l3.2,6.7l3.6,6.5l4,6.2l4.4,6l4.8,5.7l5.1,5.4l5.4,5l5.7,4.7l6,4.3l6.3,3.9l6.5,3.5l6.7,3.1l6.9,2.6l7.1,2.2
		l7.2,1.7l7.3,1.3l7.4,0.8l7.4,0.4l7.4-0.1l7.4-0.6l7.3-1.1l7.3-1.5l7.1-2l7-2.4l6.8-2.9l6.6-3.3l6.4-3.7l6.2-4.1l5.9-4.5l5.6-4.9
		l5.3-5.2l4.9-5.5l4.6-5.8l4.2-6.1l3.8-6.4l3.4-6.6l3-6.8l2.5-7l2.1-7.1l1.6-7.2l1.2-7.3l0.7-7.4L316.3,128.6 M36.8,128.6h325.7
		 M199.6,257.1V0.2"/>
</g>
</svg>
