<svg id="Layer_1" data-name="Layer 1" xmlns="http://www.w3.org/2000/svg" viewBox="0 0 342.977 298.589">
  <defs>
    <style>
      .cls-1, .cls-2, .cls-6, .cls-7 {
        fill: none;
        stroke-linejoin: round;
      }

      .cls-1 {
        stroke: #dfdfdf;
      }

      .cls-1, .cls-2 {
        stroke-width: 0.5px;
      }

      .cls-2 {
        stroke: #262626;
        stroke-linecap: square;
      }

      .cls-3 {
        fill: #4a4a49;
      }

      .cls-4 {
        fill: #262626;
      }

      .cls-5 {
        fill: #1d1d1b;
      }

      .cls-6 {
        stroke: #000;
      }

      .cls-6, .cls-7 {
        stroke-width: 3px;
      }

      .cls-7 {
        stroke: red;
      }
    </style>
  </defs>
  <title>AmplPhasCombN5</title>
  <g>
    <path class="cls-1" d="M15.4,269.191V12.391m35.1,256.8V12.391m35.1,256.8V12.391m35.1,256.8V12.391m35.1,256.8V12.391m0,256.8H15.4m140.4-25.68H15.4m140.4-25.68H15.4m140.4-25.68H15.4m140.4-25.68H15.4m140.4-25.68H15.4m140.4-25.68H15.4m140.4-25.68H15.4m140.4-25.68H15.4m140.4-25.68H15.4m140.4-25.68H15.4" transform="translate(-0.334 -1.345)"/>
    <path class="cls-2" d="M15.4,269.191H155.8M15.4,12.391H155.8M15.4,269.191v-2.568m35.1,2.568v-2.568m35.1,2.568v-2.568m35.1,2.568v-2.568m35.1,2.568v-2.568M15.4,12.391v2.568m35.1-2.568v2.568m35.1-2.568v2.568m35.1-2.568v2.568m35.1-2.568v2.568" transform="translate(-0.334 -1.345)"/>
    <path class="cls-3" d="M11.6,278.9h2.206v.813H11.6Z" transform="translate(-0.334 -1.345)"/>
    <path class="cls-4" d="M15.111,281.641a.43.43,0,0,1,.038-.15c.168-.35.325-.692.468-1.027s.274-.661.39-.98.22-.656.313-1.012h-.571a1.031,1.031,0,0,0-.614.206,1.735,1.735,0,0,0-.474.516.059.059,0,0,1-.056.037h-.1a.075.075,0,0,1-.085-.084.151.151,0,0,1,.019-.056,4.2,4.2,0,0,1,.629-.839,1.037,1.037,0,0,1,.759-.343h3.262a.222.222,0,0,1,.159.062.21.21,0,0,1,.066.163.334.334,0,0,1-.094.24.3.3,0,0,1-.225.1H17.849a7.048,7.048,0,0,0-.159,1.378,3.953,3.953,0,0,0,.3,1.566.2.2,0,0,1,.027.1.324.324,0,0,1-.056.187.411.411,0,0,1-.15.136.378.378,0,0,1-.187.052c-.163,0-.272-.13-.329-.389a3.578,3.578,0,0,1-.084-.755,5.681,5.681,0,0,1,.084-.984q.085-.478.282-1.294h-.985q-.7,2.879-.852,3.178a.392.392,0,0,1-.348.244.289.289,0,0,1-.2-.075.231.231,0,0,1-.084-.178Z" transform="translate(-0.334 -1.345)"/>
    <path class="cls-3" d="M42.794,278.9H45v.813H42.794Z" transform="translate(-0.334 -1.345)"/>
    <path class="cls-4" d="M46.311,281.641a.43.43,0,0,1,.038-.15c.168-.35.325-.692.468-1.027s.274-.661.39-.98.22-.656.313-1.012h-.571a1.031,1.031,0,0,0-.614.206,1.735,1.735,0,0,0-.474.516.059.059,0,0,1-.056.037h-.1a.075.075,0,0,1-.085-.084.151.151,0,0,1,.019-.056,4.2,4.2,0,0,1,.629-.839,1.037,1.037,0,0,1,.759-.343h3.262a.222.222,0,0,1,.159.062.21.21,0,0,1,.066.163.334.334,0,0,1-.094.24.3.3,0,0,1-.225.1H49.049a7.048,7.048,0,0,0-.159,1.378,3.953,3.953,0,0,0,.3,1.566.2.2,0,0,1,.027.1.324.324,0,0,1-.056.187.411.411,0,0,1-.15.136.378.378,0,0,1-.187.052c-.163,0-.272-.13-.329-.389a3.578,3.578,0,0,1-.084-.755,5.681,5.681,0,0,1,.084-.984q.086-.478.282-1.294h-.985q-.7,2.879-.852,3.178a.392.392,0,0,1-.348.244.289.289,0,0,1-.2-.075.231.231,0,0,1-.084-.178Z" transform="translate(-0.334 -1.345)"/>
    <g>
      <path class="cls-3" d="M53.455,275.168l-2.2,6.8h-.6l2.2-6.8Z" transform="translate(-0.334 -1.345)"/>
      <path class="cls-3" d="M57.871,277.331a1.8,1.8,0,0,1-.358,1.149,4.607,4.607,0,0,1-1.347,1,5.034,5.034,0,0,0-1.463,1.076,1.947,1.947,0,0,0-.268.475h3.436v.769H53.538a2.565,2.565,0,0,1,.5-1.631,6.2,6.2,0,0,1,1.863-1.387,3.065,3.065,0,0,0,.9-.678,1.244,1.244,0,0,0,.242-.792,1.056,1.056,0,0,0-.36-.827,1.333,1.333,0,0,0-.923-.322,1.144,1.144,0,0,0-.926.4,1.833,1.833,0,0,0-.357,1.144h-.77a2.206,2.206,0,0,1,.559-1.641,2.125,2.125,0,0,1,1.6-.6,2.031,2.031,0,0,1,1.441.524A1.745,1.745,0,0,1,57.871,277.331Z" transform="translate(-0.334 -1.345)"/>
    </g>
    <path class="cls-3" d="M83.8,280.913a5.4,5.4,0,0,1,0-4.811,1.945,1.945,0,0,1,3.21,0,5.42,5.42,0,0,1,0,4.811,1.949,1.949,0,0,1-3.21,0Zm2.6-.5a5.674,5.674,0,0,0,0-3.808,1.074,1.074,0,0,0-1-.635,1.061,1.061,0,0,0-.993.635,5.594,5.594,0,0,0,0,3.808,1.059,1.059,0,0,0,.993.632A1.073,1.073,0,0,0,86.4,280.411Z" transform="translate(-0.334 -1.345)"/>
    <path class="cls-4" d="M115.311,281.641a.43.43,0,0,1,.038-.15c.168-.35.325-.692.468-1.027s.274-.661.39-.98.22-.656.313-1.012h-.571a1.031,1.031,0,0,0-.614.206,1.735,1.735,0,0,0-.474.516.059.059,0,0,1-.056.037h-.1a.075.075,0,0,1-.085-.084.151.151,0,0,1,.019-.056,4.2,4.2,0,0,1,.629-.839,1.037,1.037,0,0,1,.759-.343h3.262a.222.222,0,0,1,.159.062.21.21,0,0,1,.066.163.334.334,0,0,1-.094.24.3.3,0,0,1-.225.1h-1.143a7.048,7.048,0,0,0-.159,1.378,3.953,3.953,0,0,0,.3,1.566.2.2,0,0,1,.027.1.324.324,0,0,1-.056.187.411.411,0,0,1-.15.136.378.378,0,0,1-.187.052c-.163,0-.272-.13-.329-.389a3.578,3.578,0,0,1-.084-.755,5.681,5.681,0,0,1,.084-.984q.085-.478.282-1.294h-.985q-.7,2.879-.852,3.178a.392.392,0,0,1-.348.244.289.289,0,0,1-.2-.075.231.231,0,0,1-.084-.178Z" transform="translate(-0.334 -1.345)"/>
    <g>
      <path class="cls-3" d="M122.447,275.168l-2.2,6.8h-.6l2.2-6.8Z" transform="translate(-0.334 -1.345)"/>
      <path class="cls-3" d="M126.863,277.331a1.79,1.79,0,0,1-.358,1.149,4.607,4.607,0,0,1-1.347,1,5.049,5.049,0,0,0-1.463,1.076,1.947,1.947,0,0,0-.268.475h3.436v.769H122.53a2.565,2.565,0,0,1,.5-1.631,6.2,6.2,0,0,1,1.863-1.387,3.052,3.052,0,0,0,.905-.678,1.238,1.238,0,0,0,.242-.792,1.056,1.056,0,0,0-.36-.827,1.331,1.331,0,0,0-.923-.322,1.141,1.141,0,0,0-.925.4,1.827,1.827,0,0,0-.358,1.144H122.7a2.2,2.2,0,0,1,.558-1.641,2.127,2.127,0,0,1,1.6-.6,2.031,2.031,0,0,1,1.441.524A1.745,1.745,0,0,1,126.863,277.331Z" transform="translate(-0.334 -1.345)"/>
    </g>
    <path class="cls-4" d="M153.711,281.641a.43.43,0,0,1,.038-.15c.168-.35.325-.692.468-1.027s.274-.661.39-.98.22-.656.313-1.012h-.571a1.031,1.031,0,0,0-.614.206,1.735,1.735,0,0,0-.474.516.059.059,0,0,1-.056.037h-.1a.075.075,0,0,1-.085-.084.151.151,0,0,1,.019-.056,4.2,4.2,0,0,1,.629-.839,1.037,1.037,0,0,1,.759-.343h3.262a.222.222,0,0,1,.159.062.21.21,0,0,1,.066.163.334.334,0,0,1-.094.24.3.3,0,0,1-.225.1h-1.143a7.048,7.048,0,0,0-.159,1.378,3.953,3.953,0,0,0,.3,1.566.2.2,0,0,1,.027.1.324.324,0,0,1-.056.187.411.411,0,0,1-.15.136.378.378,0,0,1-.187.052c-.163,0-.272-.13-.329-.389a3.578,3.578,0,0,1-.084-.755,5.681,5.681,0,0,1,.084-.984q.085-.478.282-1.294h-.985q-.7,2.879-.852,3.178a.392.392,0,0,1-.348.244.289.289,0,0,1-.2-.075.231.231,0,0,1-.084-.178Z" transform="translate(-0.334 -1.345)"/>
    <path class="cls-4" d="M58.124,295.778a.159.159,0,0,1-.127-.061.2.2,0,0,1-.052-.126.207.207,0,0,1,.052-.136.159.159,0,0,1,.127-.061h7.284a3.413,3.413,0,0,1-.647-.605,3.558,3.558,0,0,1-.469-.74,3.244,3.244,0,0,1-.262-.84c0-.087.031-.131.094-.131h.2a.081.081,0,0,1,.057.028.147.147,0,0,1,.038.066,2.864,2.864,0,0,0,.248.764,3.23,3.23,0,0,0,.431.656,2.913,2.913,0,0,0,.576.525,3.028,3.028,0,0,0,.722.361.137.137,0,0,1,.066.113.086.086,0,0,1-.066.093,2.853,2.853,0,0,0-.923.516,3.073,3.073,0,0,0-.689.811,2.975,2.975,0,0,0-.365,1,.137.137,0,0,1-.038.066.083.083,0,0,1-.057.029h-.2c-.063,0-.094-.044-.094-.132a3.529,3.529,0,0,1,.487-1.238,3.361,3.361,0,0,1,.891-.956Z" transform="translate(-0.334 -1.345)"/>
    <path class="cls-4" d="M72.149,298.1a.849.849,0,0,1-.694-.324,1.864,1.864,0,0,1-.365-.774,3.964,3.964,0,0,1-.1-.89v-.01a5.585,5.585,0,0,1,.094-.993,7.089,7.089,0,0,1,.267-1.027,7.984,7.984,0,0,1,.37-.914,6.688,6.688,0,0,1,.366-.628,5.469,5.469,0,0,1,.5-.652,2.387,2.387,0,0,1,.59-.487,1.275,1.275,0,0,1,.638-.183h.009a.887.887,0,0,1,.582.192,1.262,1.262,0,0,1,.361.492,2.663,2.663,0,0,1,.178.643,4.426,4.426,0,0,1,.052.651,5.851,5.851,0,0,1-.2,1.481,7.608,7.608,0,0,1-.543,1.463,6.575,6.575,0,0,1-.361.633,4.6,4.6,0,0,1-.493.647,2.688,2.688,0,0,1-.585.482,1.239,1.239,0,0,1-.652.2Zm.018-.263a.832.832,0,0,0,.615-.338,3.347,3.347,0,0,0,.515-.825,9.67,9.67,0,0,0,.385-.994c.109-.337.192-.625.248-.862H71.97q-.15.6-.234,1.041a4.591,4.591,0,0,0-.084.862q0,1.116.515,1.116Zm-.122-3.357h1.97c.068-.281.123-.517.163-.707s.076-.391.1-.6a4.448,4.448,0,0,0,.042-.586q0-1.125-.516-1.125-.609,0-1.05.984a12.9,12.9,0,0,0-.713,2.034Z" transform="translate(-0.334 -1.345)"/>
    <g>
      <path class="cls-3" d="M78.772,290.836h1.852v.7H79.556v7.695h1.068v.7H78.772Z" transform="translate(-0.334 -1.345)"/>
      <path class="cls-3" d="M81.663,292.818h.827v.885a3.038,3.038,0,0,1,.237-.377,1.466,1.466,0,0,1,1.213-.662.728.728,0,0,1,.247.044v.888l-.179,0a1.4,1.4,0,0,0-1.091.424,1.736,1.736,0,0,0-.384,1.206v2.77h-.87Z" transform="translate(-0.334 -1.345)"/>
      <path class="cls-3" d="M86.2,298.131a1.713,1.713,0,0,1-1.2-.406,1.411,1.411,0,0,1-.445-1.1,1.478,1.478,0,0,1,.418-1.106,2.062,2.062,0,0,1,1.221-.513l1.184-.15a1.825,1.825,0,0,0,.276-.048.443.443,0,0,0,.261-.174.56.56,0,0,0,.091-.329v-.043a.764.764,0,0,0-.314-.65,1.438,1.438,0,0,0-.875-.235,1.279,1.279,0,0,0-.838.249,1.091,1.091,0,0,0-.365.742h-.8a1.709,1.709,0,0,1,.6-1.279,2.417,2.417,0,0,1,1.537-.427,2.2,2.2,0,0,1,1.435.408,1.458,1.458,0,0,1,.493,1.192v2.842a.277.277,0,0,0,.3.29.873.873,0,0,0,.114-.01,1.626,1.626,0,0,0,.162-.028v.628a1.824,1.824,0,0,1-.266.077,1.156,1.156,0,0,1-.237.029.875.875,0,0,1-.715-.27,1.137,1.137,0,0,1-.208-.508,1.854,1.854,0,0,1-.222.232A2.3,2.3,0,0,1,86.2,298.131Zm1.8-2.19v-.561a1.831,1.831,0,0,1-.536.16l-.8.116a2.117,2.117,0,0,0-.918.293.648.648,0,0,0-.29.557.9.9,0,0,0,.237.67.911.911,0,0,0,.672.235,1.822,1.822,0,0,0,1.16-.372,1.265,1.265,0,0,0,.43-.59,1.019,1.019,0,0,0,.029-.2C88,296.157,88.005,296.054,88.005,295.941Z" transform="translate(-0.334 -1.345)"/>
      <path class="cls-3" d="M92.317,298.131a2,2,0,0,1-1.653-.776,3.29,3.29,0,0,1-.614-2.1,2.848,2.848,0,0,1,.595-1.88,1.92,1.92,0,0,1,1.551-.715,1.741,1.741,0,0,1,1.509.807l.067.1v-2.684h.871v7.107h-.808v-.706l-.111.16A1.7,1.7,0,0,1,92.317,298.131Zm.049-4.684a1.23,1.23,0,0,0-1.069.467,3.283,3.283,0,0,0,.027,2.956,1.2,1.2,0,0,0,1.042.516,1.25,1.25,0,0,0,1.02-.475,1.938,1.938,0,0,0,.386-1.26,3.032,3.032,0,0,0-.365-1.631A1.164,1.164,0,0,0,92.366,293.447Z" transform="translate(-0.334 -1.345)"/>
      <path class="cls-3" d="M96.068,296.942H97.1v1.049H96.068Z" transform="translate(-0.334 -1.345)"/>
    </g>
    <path class="cls-3" d="M99.886,294.317a.9.9,0,0,0-.35-.667,1.355,1.355,0,0,0-.839-.237,1.5,1.5,0,0,0-.825.188.624.624,0,0,0-.283.552.474.474,0,0,0,.2.415,2.509,2.509,0,0,0,.788.28l.9.213a2.289,2.289,0,0,1,1.078.508,1.205,1.205,0,0,1,.321.894,1.488,1.488,0,0,1-.554,1.218,2.3,2.3,0,0,1-1.5.45,2.57,2.57,0,0,1-1.63-.432,1.8,1.8,0,0,1-.594-1.362h.836a1.1,1.1,0,0,0,.39.8,1.653,1.653,0,0,0,1,.246,1.5,1.5,0,0,0,.888-.221.758.758,0,0,0,.3-.649.471.471,0,0,0-.2-.41,2.564,2.564,0,0,0-.8-.281l-.9-.212a2.154,2.154,0,0,1-1.039-.488,1.173,1.173,0,0,1-.31-.87,1.419,1.419,0,0,1,.519-1.159,2.151,2.151,0,0,1,1.409-.427,2.187,2.187,0,0,1,1.437.44,1.579,1.579,0,0,1,.568,1.213Z" transform="translate(-0.334 -1.345)"/>
    <g>
      <path class="cls-3" d="M103.348,290.637h1.942v.716h-1.942Z" transform="translate(-0.334 -1.345)"/>
      <path class="cls-3" d="M107.741,289.234h-1.3v-.557a1.508,1.508,0,0,0,.936-.248,1.531,1.531,0,0,0,.537-.811h.568v5.568h-.738Z" transform="translate(-0.334 -1.345)"/>
    </g>
    <path class="cls-3" d="M112.33,299.934h-1.851v-.7h1.068v-7.695h-1.068v-.7h1.851Z" transform="translate(-0.334 -1.345)"/>
    <path class="cls-2" d="M15.4,269.191V12.391m140.4,256.8V12.391M15.4,269.191H17.97M15.4,243.511H17.97M15.4,217.831H17.97M15.4,192.151H17.97M15.4,166.471H17.97M15.4,140.791H17.97M15.4,115.111H17.97M15.4,89.431H17.97M15.4,63.751H17.97M15.4,38.071H17.97M15.4,12.391H17.97M155.8,269.191h-2.568m2.568-25.68h-2.568m2.568-25.68h-2.568m2.568-25.68h-2.568m2.568-25.68h-2.568m2.568-25.68h-2.568m2.568-25.68h-2.568m2.568-25.68h-2.568m2.568-25.68h-2.568m2.568-25.68h-2.568m2.568-25.68h-2.568" transform="translate(-0.334 -1.345)"/>
    <path class="cls-3" d="M8.1,272.116a5.4,5.4,0,0,1,0-4.811,1.816,1.816,0,0,1,1.6-.846,1.819,1.819,0,0,1,1.608.846,5.42,5.42,0,0,1,0,4.811,1.819,1.819,0,0,1-1.608.843A1.816,1.816,0,0,1,8.1,272.116Zm2.6-.5a5.674,5.674,0,0,0,0-3.808,1.074,1.074,0,0,0-1-.635,1.062,1.062,0,0,0-.994.635,5.594,5.594,0,0,0,0,3.808,1.062,1.062,0,0,0,.994.633A1.074,1.074,0,0,0,10.706,271.614Z" transform="translate(-0.334 -1.345)"/>
    <g>
      <path class="cls-3" d="M.9,246.444a5.412,5.412,0,0,1,0-4.811,1.817,1.817,0,0,1,1.6-.845,1.819,1.819,0,0,1,1.609.845,4.338,4.338,0,0,1,.562,2.407,4.323,4.323,0,0,1-.562,2.4,1.82,1.82,0,0,1-1.609.844A1.819,1.819,0,0,1,.9,246.444Zm2.6-.5a4.175,4.175,0,0,0,.33-1.9,4.2,4.2,0,0,0-.33-1.906,1.071,1.071,0,0,0-1-.634,1.061,1.061,0,0,0-.993.634,5.594,5.594,0,0,0,0,3.808,1.061,1.061,0,0,0,.993.633A1.072,1.072,0,0,0,3.5,245.942Z" transform="translate(-0.334 -1.345)"/>
      <path class="cls-3" d="M5.788,246.163h.94v.953h-.94Z" transform="translate(-0.334 -1.345)"/>
    </g>
    <path class="cls-3" d="M11.316,242.651a1.792,1.792,0,0,1-.358,1.149,4.607,4.607,0,0,1-1.347.995,5.037,5.037,0,0,0-1.464,1.077,1.988,1.988,0,0,0-.268.474h3.437v.77H6.983a2.57,2.57,0,0,1,.5-1.632A6.223,6.223,0,0,1,9.343,244.1a3.048,3.048,0,0,0,.9-.678,1.242,1.242,0,0,0,.242-.792,1.055,1.055,0,0,0-.361-.827,1.329,1.329,0,0,0-.922-.322,1.144,1.144,0,0,0-.926.4,1.841,1.841,0,0,0-.358,1.144H7.154a2.213,2.213,0,0,1,.558-1.641,2.128,2.128,0,0,1,1.6-.595,2.033,2.033,0,0,1,1.442.523A1.746,1.746,0,0,1,11.316,242.651Z" transform="translate(-0.334 -1.345)"/>
    <g>
      <path class="cls-3" d="M.9,220.756a5.41,5.41,0,0,1,0-4.81,1.816,1.816,0,0,1,1.6-.846,1.818,1.818,0,0,1,1.609.846,4.333,4.333,0,0,1,.562,2.406,4.321,4.321,0,0,1-.562,2.4A1.818,1.818,0,0,1,2.5,221.6,1.817,1.817,0,0,1,.9,220.756Zm2.6-.5a4.169,4.169,0,0,0,.33-1.9,4.192,4.192,0,0,0-.33-1.905,1.072,1.072,0,0,0-1-.635,1.062,1.062,0,0,0-.993.635,5.591,5.591,0,0,0,0,3.807,1.061,1.061,0,0,0,.993.633A1.072,1.072,0,0,0,3.5,220.254Z" transform="translate(-0.334 -1.345)"/>
      <path class="cls-3" d="M5.788,220.475h.94v.953h-.94Z" transform="translate(-0.334 -1.345)"/>
    </g>
    <path class="cls-3" d="M6.974,219.913v-.739L9.9,215.1h.659v4.135h.9v.678h-.9v1.515H9.765v-1.515Zm2.791-.678v-2.883l-2.017,2.822-.044.061Z" transform="translate(-0.334 -1.345)"/>
    <g>
      <path class="cls-3" d="M.9,195.077a5.412,5.412,0,0,1,0-4.811,1.818,1.818,0,0,1,1.6-.846,1.82,1.82,0,0,1,1.609.846,4.335,4.335,0,0,1,.562,2.406,4.327,4.327,0,0,1-.562,2.405,1.819,1.819,0,0,1-1.609.843A1.818,1.818,0,0,1,.9,195.077Zm2.6-.5a4.177,4.177,0,0,0,.33-1.9,4.2,4.2,0,0,0-.33-1.905,1.072,1.072,0,0,0-1-.635,1.062,1.062,0,0,0-.993.635,5.594,5.594,0,0,0,0,3.808,1.061,1.061,0,0,0,.993.633A1.072,1.072,0,0,0,3.5,194.575Z" transform="translate(-0.334 -1.345)"/>
      <path class="cls-3" d="M5.788,194.8h.94v.954h-.94Z" transform="translate(-0.334 -1.345)"/>
    </g>
    <path class="cls-3" d="M9.426,189.42a1.9,1.9,0,0,1,1.33.451,1.7,1.7,0,0,1,.529,1.241H10.5a.994.994,0,0,0-1.077-.98,1.238,1.238,0,0,0-1.129.7,3.566,3.566,0,0,0-.378,1.64,1.828,1.828,0,0,1,1.5-.752,1.894,1.894,0,0,1,1.443.578,2.123,2.123,0,0,1,.548,1.523,2.018,2.018,0,0,1-.6,1.52,2.158,2.158,0,0,1-1.567.576,1.831,1.831,0,0,1-1.6-.8,3.952,3.952,0,0,1-.56-2.284,4.425,4.425,0,0,1,.611-2.526A1.962,1.962,0,0,1,9.426,189.42Zm-1.41,4.4a1.406,1.406,0,0,0,.358,1,1.288,1.288,0,0,0,1.841,0,1.571,1.571,0,0,0,0-2,1.283,1.283,0,0,0-1.843,0A1.41,1.41,0,0,0,8.016,193.824Z" transform="translate(-0.334 -1.345)"/>
    <g>
      <path class="cls-3" d="M.9,169.405a5.412,5.412,0,0,1,0-4.811,1.817,1.817,0,0,1,1.6-.845,1.819,1.819,0,0,1,1.609.845A4.335,4.335,0,0,1,4.671,167a4.324,4.324,0,0,1-.562,2.405,1.82,1.82,0,0,1-1.609.844A1.819,1.819,0,0,1,.9,169.405Zm2.6-.5a4.177,4.177,0,0,0,.33-1.9A4.2,4.2,0,0,0,3.5,165.1a1.072,1.072,0,0,0-1-.635,1.062,1.062,0,0,0-.993.635,5.594,5.594,0,0,0,0,3.808,1.061,1.061,0,0,0,.993.633A1.072,1.072,0,0,0,3.5,168.9Z" transform="translate(-0.334 -1.345)"/>
      <path class="cls-3" d="M5.788,169.124h.94v.953h-.94Z" transform="translate(-0.334 -1.345)"/>
    </g>
    <path class="cls-3" d="M10.345,166.728a2.068,2.068,0,0,1,.466.286,1.547,1.547,0,0,1,.593,1.266,1.841,1.841,0,0,1-.593,1.428,2.236,2.236,0,0,1-1.565.541,2.227,2.227,0,0,1-1.562-.541,1.843,1.843,0,0,1-.591-1.428,1.562,1.562,0,0,1,.593-1.271,2.008,2.008,0,0,1,.457-.276,3.171,3.171,0,0,1-.3-.193,1.313,1.313,0,0,1-.532-1.09,1.563,1.563,0,0,1,.534-1.234,2.057,2.057,0,0,1,1.4-.467,2.057,2.057,0,0,1,1.4.467,1.563,1.563,0,0,1,.534,1.234,1.312,1.312,0,0,1-.536,1.09A1.743,1.743,0,0,1,10.345,166.728Zm-1.1.356a1.325,1.325,0,0,0-.947.345,1.245,1.245,0,0,0,0,1.765,1.332,1.332,0,0,0,.947.342,1.34,1.34,0,0,0,.949-.342,1.148,1.148,0,0,0,.369-.879,1.169,1.169,0,0,0-.369-.889A1.34,1.34,0,0,0,9.246,167.084Zm0-.685a1.156,1.156,0,0,0,.791-.271.884.884,0,0,0,.308-.7.893.893,0,0,0-.308-.7,1.148,1.148,0,0,0-.791-.273,1.148,1.148,0,0,0-.791.273.946.946,0,0,0,0,1.4A1.16,1.16,0,0,0,9.246,166.4Z" transform="translate(-0.334 -1.345)"/>
    <path class="cls-3" d="M9.594,139.9H8.113v-.632a1.715,1.715,0,0,0,1.063-.282,1.737,1.737,0,0,0,.611-.922h.646v6.328H9.594Z" transform="translate(-0.334 -1.345)"/>
    <g>
      <path class="cls-3" d="M2.391,114.21H.91v-.633a1.715,1.715,0,0,0,1.063-.281,1.74,1.74,0,0,0,.611-.923H3.23V118.7H2.391Z" transform="translate(-0.334 -1.345)"/>
      <path class="cls-3" d="M5.788,117.748h.94v.953h-.94Z" transform="translate(-0.334 -1.345)"/>
    </g>
    <path class="cls-3" d="M11.316,114.236a1.8,1.8,0,0,1-.358,1.15,4.607,4.607,0,0,1-1.347,1,5,5,0,0,0-1.464,1.077,1.988,1.988,0,0,0-.268.474h3.437v.769H6.983a2.57,2.57,0,0,1,.5-1.632,6.24,6.24,0,0,1,1.864-1.386,3.065,3.065,0,0,0,.9-.678,1.244,1.244,0,0,0,.242-.792,1.059,1.059,0,0,0-.361-.828,1.333,1.333,0,0,0-.922-.321,1.141,1.141,0,0,0-.926.4,1.837,1.837,0,0,0-.358,1.144H7.154a2.211,2.211,0,0,1,.558-1.641,2.128,2.128,0,0,1,1.6-.6,2.033,2.033,0,0,1,1.442.523A1.746,1.746,0,0,1,11.316,114.236Z" transform="translate(-0.334 -1.345)"/>
    <g>
      <path class="cls-3" d="M2.391,88.538H.91v-.633a1.715,1.715,0,0,0,1.063-.281,1.74,1.74,0,0,0,.611-.923H3.23v6.328H2.391Z" transform="translate(-0.334 -1.345)"/>
      <path class="cls-3" d="M5.788,92.076h.94v.953h-.94Z" transform="translate(-0.334 -1.345)"/>
    </g>
    <path class="cls-3" d="M6.974,91.513v-.738L9.9,86.7h.659v4.135h.9v.677h-.9v1.516H9.765V91.513Zm2.791-.677V87.953L7.748,90.775l-.044.061Z" transform="translate(-0.334 -1.345)"/>
    <g>
      <path class="cls-3" d="M2.391,62.858H.91v-.632a1.715,1.715,0,0,0,1.063-.282,1.736,1.736,0,0,0,.611-.923H3.23V67.35H2.391Z" transform="translate(-0.334 -1.345)"/>
      <path class="cls-3" d="M5.788,66.4h.94v.954h-.94Z" transform="translate(-0.334 -1.345)"/>
    </g>
    <path class="cls-3" d="M9.426,61.021a1.9,1.9,0,0,1,1.33.451,1.7,1.7,0,0,1,.529,1.241H10.5a.994.994,0,0,0-1.077-.98,1.237,1.237,0,0,0-1.129.7,3.555,3.555,0,0,0-.378,1.639,1.83,1.83,0,0,1,1.5-.752,1.894,1.894,0,0,1,1.443.578,2.125,2.125,0,0,1,.548,1.523,2.016,2.016,0,0,1-.6,1.52,2.158,2.158,0,0,1-1.567.576,1.831,1.831,0,0,1-1.6-.8,3.951,3.951,0,0,1-.56-2.283A4.424,4.424,0,0,1,7.7,61.909,1.962,1.962,0,0,1,9.426,61.021Zm-1.41,4.4a1.406,1.406,0,0,0,.358,1,1.288,1.288,0,0,0,1.841,0,1.571,1.571,0,0,0,0-2,1.284,1.284,0,0,0-1.843,0A1.414,1.414,0,0,0,8.016,65.425Z" transform="translate(-0.334 -1.345)"/>
    <g>
      <path class="cls-3" d="M2.391,37.179H.91v-.633a1.715,1.715,0,0,0,1.063-.281,1.744,1.744,0,0,0,.611-.923H3.23V41.67H2.391Z" transform="translate(-0.334 -1.345)"/>
      <path class="cls-3" d="M5.788,40.716h.94v.954h-.94Z" transform="translate(-0.334 -1.345)"/>
    </g>
    <path class="cls-3" d="M10.345,38.321a2.1,2.1,0,0,1,.466.286,1.547,1.547,0,0,1,.593,1.266,1.843,1.843,0,0,1-.593,1.428,2.236,2.236,0,0,1-1.565.54,2.226,2.226,0,0,1-1.562-.54,1.845,1.845,0,0,1-.591-1.428,1.559,1.559,0,0,1,.593-1.27,1.976,1.976,0,0,1,.457-.277,3,3,0,0,1-.3-.194,1.311,1.311,0,0,1-.532-1.09,1.559,1.559,0,0,1,.534-1.232,2.053,2.053,0,0,1,1.4-.468,2.053,2.053,0,0,1,1.4.468,1.559,1.559,0,0,1,.534,1.232,1.309,1.309,0,0,1-.536,1.09A1.635,1.635,0,0,1,10.345,38.321Zm-1.1.356a1.325,1.325,0,0,0-.947.345,1.245,1.245,0,0,0,0,1.765,1.332,1.332,0,0,0,.947.342,1.34,1.34,0,0,0,.949-.342,1.148,1.148,0,0,0,.369-.879,1.164,1.164,0,0,0-.369-.888A1.341,1.341,0,0,0,9.246,38.677Zm0-.685a1.16,1.16,0,0,0,.791-.27.945.945,0,0,0,0-1.4,1.152,1.152,0,0,0-.791-.272,1.152,1.152,0,0,0-.791.272.947.947,0,0,0,0,1.4A1.164,1.164,0,0,0,9.246,37.992Z" transform="translate(-0.334 -1.345)"/>
    <path class="cls-3" d="M11.769,11.525a1.8,1.8,0,0,1-.358,1.15,4.607,4.607,0,0,1-1.347.995A5,5,0,0,0,8.6,14.747a1.922,1.922,0,0,0-.268.474h3.436v.769H7.436a2.57,2.57,0,0,1,.5-1.632A6.22,6.22,0,0,1,9.8,12.971a3.065,3.065,0,0,0,.905-.678,1.244,1.244,0,0,0,.242-.792,1.061,1.061,0,0,0-.36-.828,1.337,1.337,0,0,0-.923-.321,1.141,1.141,0,0,0-.926.4A1.837,1.837,0,0,0,8.376,11.9H7.607a2.208,2.208,0,0,1,.559-1.641,2.125,2.125,0,0,1,1.6-.6,2.032,2.032,0,0,1,1.441.523A1.748,1.748,0,0,1,11.769,11.525Z" transform="translate(-0.334 -1.345)"/>
    <g>
      <path class="cls-5" d="M42.778,1.388H44.92V8.514H43.533V3.694c0-.138,0-.333,0-.582s0-.443,0-.578l-1.35,5.98H40.745L39.4,2.534c0,.135,0,.328,0,.578s.005.444.005.582v4.82H38.027V1.388h2.166l1.3,5.6Z" transform="translate(-0.334 -1.345)"/>
      <path class="cls-5" d="M48.273,5.309a2.238,2.238,0,0,0,.551-.121.416.416,0,0,0,.3-.392.465.465,0,0,0-.228-.447,1.444,1.444,0,0,0-.669-.123.879.879,0,0,0-.7.242,1,1,0,0,0-.2.483H46a2.015,2.015,0,0,1,.388-1.136,2.266,2.266,0,0,1,1.884-.7,3.358,3.358,0,0,1,1.544.343,1.317,1.317,0,0,1,.675,1.3V7.175q0,.25.01.609a.746.746,0,0,0,.082.367.479.479,0,0,0,.2.16v.2h-1.5a1.524,1.524,0,0,1-.087-.3c-.016-.093-.029-.2-.039-.319a2.836,2.836,0,0,1-.661.527,1.994,1.994,0,0,1-1.011.256A1.747,1.747,0,0,1,46.3,8.27a1.454,1.454,0,0,1-.469-1.158,1.5,1.5,0,0,1,.754-1.407A3.377,3.377,0,0,1,47.8,5.367Zm.843.643a1.574,1.574,0,0,1-.267.132,2.16,2.16,0,0,1-.37.1l-.314.058a2.076,2.076,0,0,0-.633.188.63.63,0,0,0-.325.585.611.611,0,0,0,.2.511.761.761,0,0,0,.484.156,1.45,1.45,0,0,0,.832-.26,1.11,1.11,0,0,0,.4-.953Z" transform="translate(-0.334 -1.345)"/>
      <path class="cls-5" d="M54.3,3.24A1.655,1.655,0,0,1,55.11,4V3.245h1.344v5A2.8,2.8,0,0,1,56.11,9.78a2.524,2.524,0,0,1-2.262.889,3.075,3.075,0,0,1-1.648-.4,1.46,1.46,0,0,1-.706-1.184h1.5a.617.617,0,0,0,.188.348,1.162,1.162,0,0,0,.749.188,1.006,1.006,0,0,0,1-.5,2.512,2.512,0,0,0,.164-1.073V7.716a1.684,1.684,0,0,1-.425.508,1.713,1.713,0,0,1-1.068.314,2.022,2.022,0,0,1-1.622-.713,2.879,2.879,0,0,1-.607-1.931,3.253,3.253,0,0,1,.585-1.975,1.928,1.928,0,0,1,1.655-.8A1.8,1.8,0,0,1,54.3,3.24Zm.469,3.778A1.7,1.7,0,0,0,55.1,5.855a1.785,1.785,0,0,0-.315-1.141,1.029,1.029,0,0,0-.845-.391.994.994,0,0,0-1,.681A2.412,2.412,0,0,0,52.8,5.9a2.056,2.056,0,0,0,.154.817,1,1,0,0,0,1,.667A1.059,1.059,0,0,0,54.768,7.018Z" transform="translate(-0.334 -1.345)"/>
      <path class="cls-5" d="M61.988,3.547a1.742,1.742,0,0,1,.518,1.418V8.514H61.094v-3.2a1.474,1.474,0,0,0-.11-.639.775.775,0,0,0-.768-.405.952.952,0,0,0-.955.594,2.07,2.07,0,0,0-.134.8V8.514H57.75V3.254h1.333v.769a2.342,2.342,0,0,1,.5-.585,1.732,1.732,0,0,1,1.074-.319A2.017,2.017,0,0,1,61.988,3.547Z" transform="translate(-0.334 -1.345)"/>
      <path class="cls-5" d="M65.2,2.616h-1.4V1.345h1.4Zm-1.4.629h1.4V8.514h-1.4Z" transform="translate(-0.334 -1.345)"/>
      <path class="cls-5" d="M66,4.274V3.293h.735V1.823h1.363v1.47h.856v.981h-.856V7.059a.625.625,0,0,0,.082.4.9.9,0,0,0,.5.08c.042,0,.086,0,.133,0s.092,0,.138-.008v1.03l-.653.024a1.749,1.749,0,0,1-1.334-.338,1.006,1.006,0,0,1-.232-.73V4.274Z" transform="translate(-0.334 -1.345)"/>
      <path class="cls-5" d="M71.207,3.245V6.42a1.678,1.678,0,0,0,.106.677.731.731,0,0,0,.736.4.961.961,0,0,0,.962-.571,2.067,2.067,0,0,0,.135-.817V3.245h1.4V8.514H73.2V7.769c-.013.017-.045.065-.1.145a.937.937,0,0,1-.183.213,1.917,1.917,0,0,1-.624.4,2.118,2.118,0,0,1-.706.107,1.575,1.575,0,0,1-1.572-.841A3.234,3.234,0,0,1,69.8,6.42V3.245Z" transform="translate(-0.334 -1.345)"/>
      <path class="cls-5" d="M78.676,3.329a1.677,1.677,0,0,1,.6.583V1.4h1.4V8.514H79.338v-.73a1.938,1.938,0,0,1-.672.681,1.882,1.882,0,0,1-.937.213,1.96,1.96,0,0,1-1.555-.747,2.866,2.866,0,0,1-.631-1.916,3.29,3.29,0,0,1,.622-2.122,2.019,2.019,0,0,1,1.66-.774A1.7,1.7,0,0,1,78.676,3.329Zm.338,3.754a1.923,1.923,0,0,0,.305-1.126,1.729,1.729,0,0,0-.488-1.383,1.053,1.053,0,0,0-.7-.251.968.968,0,0,0-.887.456,2.124,2.124,0,0,0-.283,1.134,2.108,2.108,0,0,0,.288,1.168.975.975,0,0,0,.873.437A1.016,1.016,0,0,0,79.014,7.083Z" transform="translate(-0.334 -1.345)"/>
      <path class="cls-5" d="M85.362,3.352a2.134,2.134,0,0,1,.911.779,2.586,2.586,0,0,1,.42,1.089,6.733,6.733,0,0,1,.045,1.046H82.9a1.262,1.262,0,0,0,.551,1.111,1.392,1.392,0,0,0,.759.2,1.073,1.073,0,0,0,1.049-.6h1.407a1.73,1.73,0,0,1-.511.952,2.559,2.559,0,0,1-1.983.768,2.87,2.87,0,0,1-1.856-.648,2.553,2.553,0,0,1-.8-2.109,2.853,2.853,0,0,1,.726-2.1A2.541,2.541,0,0,1,84.124,3.1,2.988,2.988,0,0,1,85.362,3.352ZM83.3,4.542a1.42,1.42,0,0,0-.367.815h2.373a1.149,1.149,0,0,0-.367-.833,1.21,1.21,0,0,0-.817-.284A1.091,1.091,0,0,0,83.3,4.542Z" transform="translate(-0.334 -1.345)"/>
      <path class="cls-5" d="M93.112,3.122l.119.006V4.54c-.087-.01-.165-.016-.232-.019s-.123,0-.165,0a1.141,1.141,0,0,0-1.116.541,2.1,2.1,0,0,0-.16.938V8.514H90.171V3.245h1.315v.918a2.9,2.9,0,0,1,.556-.72,1.511,1.511,0,0,1,1-.324A.579.579,0,0,1,93.112,3.122Z" transform="translate(-0.334 -1.345)"/>
      <path class="cls-5" d="M97.471,3.352a2.134,2.134,0,0,1,.911.779A2.586,2.586,0,0,1,98.8,5.22a6.733,6.733,0,0,1,.045,1.046H95.01a1.262,1.262,0,0,0,.551,1.111,1.389,1.389,0,0,0,.759.2,1.073,1.073,0,0,0,1.049-.6h1.406a1.721,1.721,0,0,1-.51.952,2.56,2.56,0,0,1-1.983.768,2.868,2.868,0,0,1-1.856-.648,2.553,2.553,0,0,1-.8-2.109,2.853,2.853,0,0,1,.726-2.1A2.541,2.541,0,0,1,96.232,3.1,2.99,2.99,0,0,1,97.471,3.352Zm-2.06,1.19a1.427,1.427,0,0,0-.368.815h2.374a1.149,1.149,0,0,0-.367-.833,1.21,1.21,0,0,0-.817-.284A1.089,1.089,0,0,0,95.411,4.542Z" transform="translate(-0.334 -1.345)"/>
      <path class="cls-5" d="M100.612,6.832a.922.922,0,0,0,.19.522,1.286,1.286,0,0,0,.951.275,1.453,1.453,0,0,0,.649-.121.387.387,0,0,0,.241-.362.392.392,0,0,0-.194-.353,7.926,7.926,0,0,0-1.442-.416,3,3,0,0,1-1.265-.556,1.2,1.2,0,0,1-.367-.947,1.642,1.642,0,0,1,.574-1.255,2.311,2.311,0,0,1,1.615-.524,2.966,2.966,0,0,1,1.611.394,1.687,1.687,0,0,1,.715,1.361h-1.378a.816.816,0,0,0-.15-.421.949.949,0,0,0-.776-.281,1.11,1.11,0,0,0-.642.141.4.4,0,0,0-.192.329.358.358,0,0,0,.2.342,8.731,8.731,0,0,0,1.439.383,2.649,2.649,0,0,1,1.233.584,1.329,1.329,0,0,1,.407.991,1.6,1.6,0,0,1-.584,1.279,2.75,2.75,0,0,1-1.8.5,2.715,2.715,0,0,1-1.837-.524,1.7,1.7,0,0,1-.594-1.336Z" transform="translate(-0.334 -1.345)"/>
      <path class="cls-5" d="M109.48,3.81a2.806,2.806,0,0,1,.645,2,3.156,3.156,0,0,1-.63,2.122,2.047,2.047,0,0,1-1.622.73,1.7,1.7,0,0,1-1.051-.315,2.023,2.023,0,0,1-.448-.507v2.745h-1.363V3.245h1.32v.778a2.222,2.222,0,0,1,.477-.542,1.759,1.759,0,0,1,1.1-.353A2.083,2.083,0,0,1,109.48,3.81Zm-1.057.991a.98.98,0,0,0-.91-.469,1.037,1.037,0,0,0-1.041.711,2.683,2.683,0,0,0-.146.957,1.52,1.52,0,0,0,.493,1.291,1.129,1.129,0,0,0,.693.217,1.008,1.008,0,0,0,.887-.445,2.052,2.052,0,0,0,.3-1.184A2.06,2.06,0,0,0,108.423,4.8Z" transform="translate(-0.334 -1.345)"/>
      <path class="cls-5" d="M115.491,7.869a2.9,2.9,0,0,1-4.051,0,3.055,3.055,0,0,1-.667-1.983,3.073,3.073,0,0,1,.667-1.975,2.872,2.872,0,0,1,4.051,0,3.067,3.067,0,0,1,.667,1.975A3.049,3.049,0,0,1,115.491,7.869Zm-1.1-.762a1.994,1.994,0,0,0,.324-1.221,1.987,1.987,0,0,0-.324-1.219,1.225,1.225,0,0,0-1.859,0,1.981,1.981,0,0,0-.326,1.219,1.987,1.987,0,0,0,.326,1.221,1.22,1.22,0,0,0,1.859,0Z" transform="translate(-0.334 -1.345)"/>
      <path class="cls-5" d="M121.393,3.547a1.742,1.742,0,0,1,.518,1.418V8.514H120.5v-3.2a1.489,1.489,0,0,0-.11-.639.776.776,0,0,0-.768-.405.952.952,0,0,0-.955.594,2.07,2.07,0,0,0-.134.8V8.514h-1.378V3.254h1.334v.769a2.342,2.342,0,0,1,.5-.585,1.732,1.732,0,0,1,1.074-.319A2.021,2.021,0,0,1,121.393,3.547Z" transform="translate(-0.334 -1.345)"/>
      <path class="cls-5" d="M124.26,6.832a.922.922,0,0,0,.19.522,1.284,1.284,0,0,0,.951.275,1.453,1.453,0,0,0,.649-.121.387.387,0,0,0,.241-.362.392.392,0,0,0-.194-.353,7.926,7.926,0,0,0-1.442-.416,3,3,0,0,1-1.265-.556,1.2,1.2,0,0,1-.368-.947,1.643,1.643,0,0,1,.575-1.255,2.31,2.31,0,0,1,1.615-.524,2.966,2.966,0,0,1,1.611.394,1.687,1.687,0,0,1,.715,1.361H126.16a.816.816,0,0,0-.15-.421.949.949,0,0,0-.776-.281,1.11,1.11,0,0,0-.642.141.4.4,0,0,0-.192.329.358.358,0,0,0,.2.342,8.738,8.738,0,0,0,1.438.383,2.648,2.648,0,0,1,1.234.584,1.329,1.329,0,0,1,.407.991A1.6,1.6,0,0,1,127.1,8.2a2.751,2.751,0,0,1-1.805.5,2.715,2.715,0,0,1-1.837-.524,1.7,1.7,0,0,1-.594-1.336Z" transform="translate(-0.334 -1.345)"/>
      <path class="cls-5" d="M132.131,3.352a2.14,2.14,0,0,1,.911.779,2.6,2.6,0,0,1,.419,1.089,6.585,6.585,0,0,1,.046,1.046h-3.838a1.264,1.264,0,0,0,.551,1.111,1.4,1.4,0,0,0,.76.2,1.07,1.07,0,0,0,1.048-.6h1.407a1.717,1.717,0,0,1-.511.952,2.557,2.557,0,0,1-1.982.768,2.868,2.868,0,0,1-1.856-.648,2.553,2.553,0,0,1-.8-2.109,2.853,2.853,0,0,1,.726-2.1,2.541,2.541,0,0,1,1.884-.731A2.99,2.99,0,0,1,132.131,3.352Zm-2.061,1.19a1.426,1.426,0,0,0-.367.815h2.374a1.154,1.154,0,0,0-.368-.833,1.205,1.205,0,0,0-.816-.284A1.093,1.093,0,0,0,130.07,4.542Z" transform="translate(-0.334 -1.345)"/>
    </g>
    <polyline class="cls-6" points="15.068 11.046 15.349 11.173 15.629 11.553 15.91 12.185 16.191 13.071 16.472 14.207 16.753 15.595 17.033 17.231 17.314 19.114 17.595 21.242 17.876 23.615 18.157 26.228 18.437 29.08 18.718 32.167 18.999 35.486 19.28 39.035 19.561 42.811 19.841 46.807 20.122 51.023 20.403 55.452 20.684 60.091 20.965 64.934 21.245 69.978 21.526 75.217 21.807 80.647 22.088 86.261 22.369 92.054 22.649 98.021 22.93 104.156 23.211 110.452 23.492 116.903 23.773 123.503 24.053 130.246 24.334 137.124 24.615 144.131 24.896 151.261 25.177 158.506 25.457 165.859 25.738 173.312 26.019 180.858 26.3 188.491 26.581 196.201 26.861 203.983 27.142 211.827 27.423 219.727 27.704 227.674 27.985 235.66 28.265 243.679 28.546 251.722 28.827 259.78 29.108 267.846 29.389 259.78 29.669 251.722 29.95 243.679 30.231 235.66 30.512 227.674 30.793 219.727 31.073 211.827 31.354 203.983 31.635 196.201 31.916 188.491 32.197 180.858 32.477 173.312 32.758 165.859 33.039 158.506 33.32 151.261 33.601 144.131 33.881 137.124 34.162 130.246 34.443 123.503 34.724 116.903 35.005 110.452 35.285 104.156 35.566 98.021 35.847 92.054 36.128 86.261 36.409 80.647 36.689 75.217 36.97 69.978 37.251 64.934 37.532 60.091 37.813 55.452 38.093 51.023 38.374 46.807 38.655 42.811 38.936 39.035 39.217 35.486 39.497 32.167 39.778 29.08 40.059 26.228 40.34 23.615 40.621 21.242 40.901 19.114 41.182 17.231 41.463 15.595 41.744 14.207 42.025 13.071 42.305 12.185 42.586 11.553 42.867 11.173 43.148 11.046 43.429 11.173 43.709 11.553 43.99 12.185 44.271 13.071 44.552 14.207 44.833 15.595 45.113 17.231 45.394 19.114 45.675 21.242 45.956 23.615 46.237 26.228 46.517 29.08 46.798 32.167 47.079 35.486 47.36 39.035 47.641 42.811 47.921 46.807 48.202 51.023 48.483 55.452 48.764 60.091 49.045 64.934 49.325 69.978 49.606 75.217 49.887 80.647 50.168 86.261 50.449 92.054 50.729 98.021 51.01 104.156 51.291 110.452 51.572 116.903 51.853 123.503 52.133 130.246 52.414 137.124 52.695 144.131 52.976 151.261 53.257 158.506 53.537 165.859 53.818 173.312 54.099 180.858 54.38 188.491 54.661 196.201 54.941 203.983 55.222 211.827 55.503 219.727 55.784 227.674 56.065 235.66 56.345 243.679 56.626 251.722 56.907 259.78 57.188 267.846 57.469 259.78 57.749 251.722 58.03 243.679 58.311 235.66 58.592 227.674 58.873 219.727 59.153 211.827 59.434 203.983 59.715 196.201 59.996 188.491 60.277 180.858 60.557 173.312 60.838 165.859 61.119 158.506 61.4 151.261 61.681 144.131 61.961 137.124 62.242 130.246 62.523 123.503 62.804 116.903 63.085 110.452 63.365 104.156 63.646 98.021 63.927 92.054 64.208 86.261 64.489 80.647 64.769 75.217 65.05 69.978 65.331 64.934 65.612 60.091 65.893 55.452 66.173 51.023 66.454 46.807 66.735 42.811 67.016 39.035 67.297 35.486 67.577 32.167 67.858 29.08 68.139 26.228 68.42 23.615 68.701 21.242 68.981 19.114 69.262 17.231 69.543 15.595 69.824 14.207 70.105 13.071 70.385 12.185 70.666 11.553 70.947 11.173 71.228 11.046 71.509 11.173 71.789 11.553 72.07 12.185 72.351 13.071 72.632 14.207 72.913 15.595 73.193 17.231 73.474 19.114 73.755 21.242 74.036 23.615 74.317 26.228 74.597 29.08 74.878 32.167 75.159 35.486 75.44 39.035 75.721 42.811 76.001 46.807 76.282 51.023 76.563 55.452 76.844 60.091 77.125 64.934 77.405 69.978 77.686 75.217 77.967 80.647 78.248 86.261 78.529 92.054 78.809 98.021 79.09 104.156 79.371 110.452 79.652 116.903 79.933 123.503 80.213 130.246 80.494 137.124 80.775 144.131 81.056 151.261 81.337 158.506 81.617 165.859 81.898 173.312 82.179 180.858 82.46 188.491 82.741 196.201 83.021 203.983 83.302 211.827 83.583 219.727 83.864 227.674 84.145 235.66 84.425 243.679 84.706 251.722 84.987 259.78 85.268 267.846 85.549 259.78 85.829 251.722 86.11 243.679 86.391 235.66 86.672 227.674 86.953 219.727 87.233 211.827 87.514 203.983 87.795 196.201 88.076 188.491 88.357 180.858 88.637 173.312 88.918 165.859 89.199 158.506 89.48 151.261 89.761 144.131 90.041 137.124 90.322 130.246 90.603 123.503 90.884 116.903 91.165 110.452 91.445 104.156 91.726 98.021 92.007 92.054 92.288 86.261 92.569 80.647 92.849 75.217 93.13 69.978 93.411 64.934 93.692 60.091 93.973 55.452 94.253 51.023 94.534 46.807 94.815 42.811 95.096 39.035 95.377 35.486 95.657 32.167 95.938 29.08 96.219 26.228 96.5 23.615 96.781 21.242 97.061 19.114 97.342 17.231 97.623 15.595 97.904 14.207 98.185 13.071 98.465 12.185 98.746 11.553 99.027 11.173 99.308 11.046 99.589 11.173 99.869 11.553 100.15 12.185 100.431 13.071 100.712 14.207 100.993 15.595 101.273 17.231 101.554 19.114 101.835 21.242 102.116 23.615 102.397 26.228 102.677 29.08 102.958 32.167 103.239 35.486 103.52 39.035 103.801 42.811 104.081 46.807 104.362 51.023 104.643 55.452 104.924 60.091 105.205 64.934 105.485 69.978 105.766 75.217 106.047 80.647 106.328 86.261 106.609 92.054 106.889 98.021 107.17 104.156 107.451 110.452 107.732 116.903 108.013 123.503 108.293 130.246 108.574 137.124 108.855 144.131 109.136 151.261 109.417 158.506 109.697 165.859 109.978 173.312 110.259 180.858 110.54 188.491 110.821 196.201 111.101 203.983 111.382 211.827 111.663 219.727 111.944 227.674 112.225 235.66 112.505 243.679 112.786 251.722 113.067 259.78 113.348 267.846 113.629 259.78 113.909 251.722 114.19 243.679 114.471 235.66 114.752 227.674 115.033 219.727 115.313 211.827 115.594 203.983 115.875 196.201 116.156 188.491 116.437 180.858 116.717 173.312 116.998 165.859 117.279 158.506 117.56 151.261 117.841 144.131 118.121 137.124 118.402 130.246 118.683 123.503 118.964 116.903 119.245 110.452 119.525 104.156 119.806 98.021 120.087 92.054 120.368 86.261 120.649 80.647 120.929 75.217 121.21 69.978 121.491 64.934 121.772 60.091 122.053 55.452 122.333 51.023 122.614 46.807 122.895 42.811 123.176 39.035 123.457 35.486 123.737 32.167 124.018 29.08 124.299 26.228 124.58 23.615 124.861 21.242 125.141 19.114 125.422 17.231 125.703 15.595 125.984 14.207 126.265 13.071 126.545 12.185 126.826 11.553 127.107 11.173 127.388 11.046 127.669 11.173 127.949 11.553 128.23 12.185 128.511 13.071 128.792 14.207 129.073 15.595 129.353 17.231 129.634 19.114 129.915 21.242 130.196 23.615 130.477 26.228 130.757 29.08 131.038 32.167 131.319 35.486 131.6 39.035 131.881 42.811 132.161 46.807 132.442 51.023 132.723 55.452 133.004 60.091 133.285 64.934 133.565 69.978 133.846 75.217 134.127 80.647 134.408 86.261 134.689 92.054 134.969 98.021 135.25 104.156 135.531 110.452 135.812 116.903 136.093 123.503 136.373 130.246 136.654 137.124 136.935 144.131 137.216 151.261 137.497 158.506 137.777 165.859 138.058 173.312 138.339 180.858 138.62 188.491 138.901 196.201 139.181 203.983 139.462 211.827 139.743 219.727 140.024 227.674 140.305 235.66 140.585 243.679 140.866 251.722 141.147 259.78 141.428 267.846 141.709 259.78 141.989 251.722 142.27 243.679 142.551 235.66 142.832 227.674 143.113 219.727 143.393 211.827 143.674 203.983 143.955 196.201 144.236 188.491 144.517 180.858 144.797 173.312 145.078 165.859 145.359 158.506 145.64 151.261 145.921 144.131 146.201 137.124 146.482 130.246 146.763 123.503 147.044 116.903 147.325 110.452 147.605 104.156 147.886 98.021 148.167 92.054 148.448 86.261 148.729 80.647 149.009 75.217 149.29 69.978 149.571 64.934 149.852 60.091 150.133 55.452 150.413 51.023 150.694 46.807 150.975 42.811 151.256 39.035 151.537 35.486 151.817 32.167 152.098 29.08 152.379 26.228 152.66 23.615 152.941 21.242 153.221 19.114 153.502 17.231 153.783 15.595 154.064 14.207 154.345 13.071 154.625 12.185 154.906 11.553 155.187 11.173"/>
    <path class="cls-1" d="M200.2,269.191V12.391m35.25,256.8V12.391m35.25,256.8V12.391m35.25,256.8V12.391m35.25,256.8V12.391m0,256.8h-141m141-64.2h-141m141-64.2h-141m141-64.2h-141m141-64.2h-141" transform="translate(-0.334 -1.345)"/>
    <path class="cls-2" d="M200.2,269.191h141m-141-256.8h141m-141,256.8v-2.568m35.25,2.568v-2.568m35.25,2.568v-2.568m35.25,2.568v-2.568m35.25,2.568v-2.568M200.2,12.391v2.568m35.25-2.568v2.568m35.25-2.568v2.568m35.25-2.568v2.568m35.25-2.568v2.568" transform="translate(-0.334 -1.345)"/>
    <path class="cls-3" d="M196.4,278.9H198.6v.813H196.4Z" transform="translate(-0.334 -1.345)"/>
    <path class="cls-4" d="M199.911,281.641a.43.43,0,0,1,.038-.15c.168-.35.325-.692.468-1.027s.274-.661.39-.98.22-.656.313-1.012h-.571a1.031,1.031,0,0,0-.614.206,1.735,1.735,0,0,0-.474.516.059.059,0,0,1-.056.037h-.1a.075.075,0,0,1-.085-.084.151.151,0,0,1,.019-.056,4.2,4.2,0,0,1,.629-.839,1.037,1.037,0,0,1,.759-.343h3.262a.222.222,0,0,1,.159.062.21.21,0,0,1,.066.163.334.334,0,0,1-.094.24.3.3,0,0,1-.225.1h-1.143a7.048,7.048,0,0,0-.159,1.378,3.953,3.953,0,0,0,.3,1.566.2.2,0,0,1,.027.1.324.324,0,0,1-.056.187.411.411,0,0,1-.15.136.378.378,0,0,1-.187.052c-.163,0-.272-.13-.329-.389a3.578,3.578,0,0,1-.084-.755,5.681,5.681,0,0,1,.084-.984q.085-.478.282-1.294h-.985q-.7,2.879-.852,3.178a.392.392,0,0,1-.348.244.289.289,0,0,1-.2-.075.231.231,0,0,1-.084-.178Z" transform="translate(-0.334 -1.345)"/>
    <path class="cls-3" d="M227.6,278.9h2.206v.813H227.6Z" transform="translate(-0.334 -1.345)"/>
    <path class="cls-4" d="M231.111,281.641a.43.43,0,0,1,.038-.15c.168-.35.325-.692.468-1.027s.274-.661.39-.98.22-.656.313-1.012h-.571a1.031,1.031,0,0,0-.614.206,1.735,1.735,0,0,0-.474.516.059.059,0,0,1-.056.037h-.1a.075.075,0,0,1-.085-.084.151.151,0,0,1,.019-.056,4.2,4.2,0,0,1,.629-.839,1.037,1.037,0,0,1,.759-.343h3.262a.222.222,0,0,1,.159.062.21.21,0,0,1,.066.163.334.334,0,0,1-.094.24.3.3,0,0,1-.225.1h-1.143a7.048,7.048,0,0,0-.159,1.378,3.953,3.953,0,0,0,.3,1.566.2.2,0,0,1,.027.1.324.324,0,0,1-.056.187.411.411,0,0,1-.15.136.378.378,0,0,1-.187.052c-.163,0-.272-.13-.329-.389a3.578,3.578,0,0,1-.084-.755,5.681,5.681,0,0,1,.084-.984q.086-.478.282-1.294h-.985q-.7,2.879-.852,3.178a.392.392,0,0,1-.348.244.289.289,0,0,1-.2-.075.231.231,0,0,1-.084-.178Z" transform="translate(-0.334 -1.345)"/>
    <g>
      <path class="cls-3" d="M238.252,275.168l-2.2,6.8h-.6l2.2-6.8Z" transform="translate(-0.334 -1.345)"/>
      <path class="cls-3" d="M242.668,277.331a1.8,1.8,0,0,1-.358,1.149,4.636,4.636,0,0,1-1.347,1,5.042,5.042,0,0,0-1.464,1.076,2.018,2.018,0,0,0-.269.475h3.438v.769h-4.334a2.565,2.565,0,0,1,.5-1.631,6.2,6.2,0,0,1,1.863-1.387,3.073,3.073,0,0,0,.906-.678,1.244,1.244,0,0,0,.242-.792,1.055,1.055,0,0,0-.362-.827,1.328,1.328,0,0,0-.921-.322,1.142,1.142,0,0,0-.926.4,1.827,1.827,0,0,0-.358,1.144h-.769a2.2,2.2,0,0,1,.558-1.641,2.125,2.125,0,0,1,1.6-.6,2.031,2.031,0,0,1,1.441.524A1.745,1.745,0,0,1,242.668,277.331Z" transform="translate(-0.334 -1.345)"/>
    </g>
    <path class="cls-3" d="M268.9,280.913a5.412,5.412,0,0,1,0-4.811,1.946,1.946,0,0,1,3.211,0,5.42,5.42,0,0,1,0,4.811,1.95,1.95,0,0,1-3.211,0Zm2.6-.5a5.658,5.658,0,0,0,0-3.808,1.074,1.074,0,0,0-1-.635,1.059,1.059,0,0,0-.992.635,5.594,5.594,0,0,0,0,3.808,1.058,1.058,0,0,0,.992.632A1.073,1.073,0,0,0,271.5,280.411Z" transform="translate(-0.334 -1.345)"/>
    <path class="cls-4" d="M300.111,281.641a.43.43,0,0,1,.038-.15c.168-.35.325-.692.468-1.027s.274-.661.39-.98.22-.656.313-1.012h-.571a1.031,1.031,0,0,0-.614.206,1.735,1.735,0,0,0-.474.516.059.059,0,0,1-.056.037h-.1a.075.075,0,0,1-.085-.084.151.151,0,0,1,.019-.056,4.2,4.2,0,0,1,.629-.839,1.037,1.037,0,0,1,.759-.343h3.262a.222.222,0,0,1,.159.062.21.21,0,0,1,.066.163.334.334,0,0,1-.094.24.3.3,0,0,1-.225.1h-1.143a7.048,7.048,0,0,0-.159,1.378,3.953,3.953,0,0,0,.3,1.566.2.2,0,0,1,.027.1.324.324,0,0,1-.056.187.411.411,0,0,1-.15.136.378.378,0,0,1-.187.052c-.163,0-.272-.13-.329-.389a3.578,3.578,0,0,1-.084-.755,5.681,5.681,0,0,1,.084-.984q.085-.478.282-1.294h-.985q-.7,2.879-.852,3.178a.392.392,0,0,1-.348.244.289.289,0,0,1-.2-.075.231.231,0,0,1-.084-.178Z" transform="translate(-0.334 -1.345)"/>
    <g>
      <path class="cls-3" d="M307.252,275.168l-2.2,6.8h-.6l2.2-6.8Z" transform="translate(-0.334 -1.345)"/>
      <path class="cls-3" d="M311.668,277.331a1.8,1.8,0,0,1-.358,1.149,4.636,4.636,0,0,1-1.347,1,5.042,5.042,0,0,0-1.464,1.076,2.018,2.018,0,0,0-.269.475h3.438v.769h-4.334a2.565,2.565,0,0,1,.5-1.631,6.2,6.2,0,0,1,1.863-1.387,3.073,3.073,0,0,0,.906-.678,1.244,1.244,0,0,0,.242-.792,1.055,1.055,0,0,0-.362-.827,1.328,1.328,0,0,0-.921-.322,1.142,1.142,0,0,0-.926.4,1.827,1.827,0,0,0-.358,1.144h-.769a2.2,2.2,0,0,1,.558-1.641,2.125,2.125,0,0,1,1.6-.6,2.031,2.031,0,0,1,1.441.524A1.745,1.745,0,0,1,311.668,277.331Z" transform="translate(-0.334 -1.345)"/>
    </g>
    <path class="cls-4" d="M339.111,281.641a.43.43,0,0,1,.038-.15c.168-.35.325-.692.468-1.027s.274-.661.39-.98.22-.656.313-1.012h-.571a1.031,1.031,0,0,0-.614.206,1.735,1.735,0,0,0-.474.516.059.059,0,0,1-.056.037h-.1a.075.075,0,0,1-.085-.084.151.151,0,0,1,.019-.056,4.2,4.2,0,0,1,.629-.839,1.037,1.037,0,0,1,.759-.343h3.262a.222.222,0,0,1,.159.062.21.21,0,0,1,.066.163.334.334,0,0,1-.094.24.3.3,0,0,1-.225.1h-1.143a7.048,7.048,0,0,0-.159,1.378,3.953,3.953,0,0,0,.3,1.566.2.2,0,0,1,.027.1.324.324,0,0,1-.056.187.411.411,0,0,1-.15.136.378.378,0,0,1-.187.052c-.163,0-.272-.13-.329-.389a3.578,3.578,0,0,1-.084-.755,5.681,5.681,0,0,1,.084-.984q.085-.478.282-1.294h-.985q-.7,2.879-.852,3.178a.392.392,0,0,1-.348.244.289.289,0,0,1-.2-.075.231.231,0,0,1-.084-.178Z" transform="translate(-0.334 -1.345)"/>
    <path class="cls-4" d="M243.524,295.778a.159.159,0,0,1-.127-.061.2.2,0,0,1-.052-.126.207.207,0,0,1,.052-.136.159.159,0,0,1,.127-.061h7.284a3.413,3.413,0,0,1-.647-.605,3.558,3.558,0,0,1-.469-.74,3.244,3.244,0,0,1-.262-.84c0-.087.031-.131.094-.131h.2a.081.081,0,0,1,.057.028.147.147,0,0,1,.038.066,2.864,2.864,0,0,0,.248.764,3.23,3.23,0,0,0,.431.656,2.913,2.913,0,0,0,.576.525,3.028,3.028,0,0,0,.722.361.137.137,0,0,1,.066.113.086.086,0,0,1-.066.093,2.853,2.853,0,0,0-.923.516,3.073,3.073,0,0,0-.689.811,2.975,2.975,0,0,0-.365,1,.137.137,0,0,1-.038.066.083.083,0,0,1-.057.029h-.2c-.063,0-.094-.044-.094-.132a3.529,3.529,0,0,1,.487-1.238,3.361,3.361,0,0,1,.891-.956Z" transform="translate(-0.334 -1.345)"/>
    <path class="cls-4" d="M257.549,298.1a.849.849,0,0,1-.694-.324,1.864,1.864,0,0,1-.365-.774,3.964,3.964,0,0,1-.1-.89v-.01a5.585,5.585,0,0,1,.094-.993,7.089,7.089,0,0,1,.267-1.027,7.984,7.984,0,0,1,.37-.914,6.688,6.688,0,0,1,.366-.628,5.469,5.469,0,0,1,.5-.652,2.387,2.387,0,0,1,.59-.487,1.275,1.275,0,0,1,.638-.183h.009a.887.887,0,0,1,.582.192,1.262,1.262,0,0,1,.361.492,2.663,2.663,0,0,1,.178.643,4.426,4.426,0,0,1,.052.651,5.851,5.851,0,0,1-.2,1.481,7.608,7.608,0,0,1-.543,1.463,6.575,6.575,0,0,1-.361.633,4.6,4.6,0,0,1-.493.647,2.688,2.688,0,0,1-.585.482,1.239,1.239,0,0,1-.652.2Zm.018-.263a.832.832,0,0,0,.615-.338,3.347,3.347,0,0,0,.515-.825,9.67,9.67,0,0,0,.385-.994c.109-.337.192-.625.248-.862h-1.96q-.15.6-.234,1.041a4.591,4.591,0,0,0-.084.862q0,1.116.515,1.116Zm-.122-3.357h1.97c.068-.281.123-.517.163-.707s.076-.391.1-.6a4.448,4.448,0,0,0,.042-.586q0-1.125-.516-1.125-.609,0-1.05.984a12.9,12.9,0,0,0-.713,2.034Z" transform="translate(-0.334 -1.345)"/>
    <g>
      <path class="cls-3" d="M264.18,290.836h1.85v.7h-1.068v7.695h1.068v.7h-1.85Z" transform="translate(-0.334 -1.345)"/>
      <path class="cls-3" d="M267.069,292.818h.827v.885a3.038,3.038,0,0,1,.237-.377,1.467,1.467,0,0,1,1.214-.662.727.727,0,0,1,.246.044v.888l-.179,0a1.4,1.4,0,0,0-1.09.424,1.726,1.726,0,0,0-.385,1.206v2.77h-.87Z" transform="translate(-0.334 -1.345)"/>
      <path class="cls-3" d="M271.608,298.131a1.715,1.715,0,0,1-1.2-.406,1.411,1.411,0,0,1-.445-1.1,1.482,1.482,0,0,1,.418-1.106,2.062,2.062,0,0,1,1.221-.513l1.184-.15a1.8,1.8,0,0,0,.276-.048.44.44,0,0,0,.261-.174.56.56,0,0,0,.092-.329v-.043a.766.766,0,0,0-.314-.65,1.44,1.44,0,0,0-.875-.235,1.282,1.282,0,0,0-.839.249,1.1,1.1,0,0,0-.365.742h-.8a1.708,1.708,0,0,1,.6-1.279,2.423,2.423,0,0,1,1.539-.427,2.2,2.2,0,0,1,1.435.408,1.461,1.461,0,0,1,.493,1.192v2.842a.274.274,0,0,0,.3.29.847.847,0,0,0,.113-.01c.05-.006.1-.015.163-.028v.628a1.8,1.8,0,0,1-.267.077,1.147,1.147,0,0,1-.236.029.876.876,0,0,1-.716-.27,1.137,1.137,0,0,1-.208-.508,1.854,1.854,0,0,1-.222.232A2.3,2.3,0,0,1,271.608,298.131Zm1.8-2.19v-.561a1.847,1.847,0,0,1-.537.16l-.8.116a2.122,2.122,0,0,0-.918.293.648.648,0,0,0-.29.557.9.9,0,0,0,.236.67.916.916,0,0,0,.673.235,1.822,1.822,0,0,0,1.16-.372,1.265,1.265,0,0,0,.43-.59.947.947,0,0,0,.029-.2A2.907,2.907,0,0,0,273.412,295.941Z" transform="translate(-0.334 -1.345)"/>
      <path class="cls-3" d="M277.724,298.131a2,2,0,0,1-1.654-.776,3.29,3.29,0,0,1-.614-2.1,2.843,2.843,0,0,1,.595-1.88,1.921,1.921,0,0,1,1.552-.715,1.741,1.741,0,0,1,1.508.807l.068.1v-2.684h.87v7.107h-.808v-.706l-.111.16A1.7,1.7,0,0,1,277.724,298.131Zm.047-4.684a1.226,1.226,0,0,0-1.067.467,3.279,3.279,0,0,0,.026,2.956,1.2,1.2,0,0,0,1.041.516,1.251,1.251,0,0,0,1.021-.475,1.939,1.939,0,0,0,.387-1.26,3.032,3.032,0,0,0-.366-1.631A1.164,1.164,0,0,0,277.771,293.447Z" transform="translate(-0.334 -1.345)"/>
      <path class="cls-3" d="M281.475,296.942h1.034v1.049h-1.034Z" transform="translate(-0.334 -1.345)"/>
    </g>
    <path class="cls-3" d="M285.293,294.317a.9.9,0,0,0-.351-.667,1.355,1.355,0,0,0-.839-.237,1.5,1.5,0,0,0-.825.188.624.624,0,0,0-.283.552.478.478,0,0,0,.2.415,2.55,2.55,0,0,0,.788.28l.9.213a2.289,2.289,0,0,1,1.078.508,1.205,1.205,0,0,1,.321.894,1.487,1.487,0,0,1-.553,1.218,2.308,2.308,0,0,1-1.5.45,2.567,2.567,0,0,1-1.629-.432,1.8,1.8,0,0,1-.6-1.362h.837a1.1,1.1,0,0,0,.388.8,1.659,1.659,0,0,0,1,.246,1.5,1.5,0,0,0,.888-.221.758.758,0,0,0,.3-.649.473.473,0,0,0-.2-.41,2.585,2.585,0,0,0-.8-.281l-.9-.212a2.159,2.159,0,0,1-1.039-.488,1.173,1.173,0,0,1-.31-.87,1.422,1.422,0,0,1,.519-1.159,2.152,2.152,0,0,1,1.409-.427,2.19,2.19,0,0,1,1.438.44,1.581,1.581,0,0,1,.567,1.213Z" transform="translate(-0.334 -1.345)"/>
    <g>
      <path class="cls-3" d="M288.746,290.637h1.942v.716h-1.942Z" transform="translate(-0.334 -1.345)"/>
      <path class="cls-3" d="M293.14,289.234h-1.3v-.557a1.5,1.5,0,0,0,.935-.248,1.526,1.526,0,0,0,.538-.811h.569v5.568h-.739Z" transform="translate(-0.334 -1.345)"/>
    </g>
    <path class="cls-3" d="M297.729,299.934h-1.852v-.7h1.068v-7.695h-1.068v-.7h1.852Z" transform="translate(-0.334 -1.345)"/>
    <path class="cls-2" d="M200.2,269.191V12.391m141,256.8V12.391m-141,256.8h2.568m-2.568-64.2h2.568m-2.568-64.2h2.568m-2.568-64.2h2.568m-2.568-64.2h2.568M341.2,269.191h-2.568m2.568-64.2h-2.568m2.568-64.2h-2.568m2.568-64.2h-2.568m2.568-64.2h-2.568" transform="translate(-0.334 -1.345)"/>
    <path class="cls-3" d="M189.2,269.891h2.206v.814H189.2Z" transform="translate(-0.334 -1.345)"/>
    <path class="cls-4" d="M192.711,272.641a.43.43,0,0,1,.038-.15c.168-.35.325-.692.468-1.027s.274-.661.39-.98.22-.656.313-1.012h-.571a1.031,1.031,0,0,0-.614.206,1.735,1.735,0,0,0-.474.516.059.059,0,0,1-.056.037h-.1a.075.075,0,0,1-.085-.084.151.151,0,0,1,.019-.056,4.2,4.2,0,0,1,.629-.839,1.037,1.037,0,0,1,.759-.343h3.262a.222.222,0,0,1,.159.062.21.21,0,0,1,.066.163.334.334,0,0,1-.094.24.3.3,0,0,1-.225.1h-1.143a7.048,7.048,0,0,0-.159,1.378,3.953,3.953,0,0,0,.3,1.566.2.2,0,0,1,.027.1.324.324,0,0,1-.056.187.411.411,0,0,1-.15.136.378.378,0,0,1-.187.052c-.163,0-.272-.13-.329-.389a3.578,3.578,0,0,1-.084-.755,5.681,5.681,0,0,1,.084-.984q.085-.478.282-1.294h-.985q-.7,2.879-.852,3.178a.392.392,0,0,1-.348.244.289.289,0,0,1-.2-.075.231.231,0,0,1-.084-.178Z" transform="translate(-0.334 -1.345)"/>
    <path class="cls-3" d="M181.4,205.7H183.6v.813H181.4Z" transform="translate(-0.334 -1.345)"/>
    <path class="cls-4" d="M184.911,208.441a.43.43,0,0,1,.038-.15c.168-.35.325-.692.468-1.027s.274-.661.39-.98.22-.656.313-1.012h-.571a1.031,1.031,0,0,0-.614.206,1.747,1.747,0,0,0-.474.516.059.059,0,0,1-.056.037h-.1a.075.075,0,0,1-.085-.084.151.151,0,0,1,.019-.056,4.2,4.2,0,0,1,.629-.839,1.04,1.04,0,0,1,.759-.343h3.262a.222.222,0,0,1,.159.062.21.21,0,0,1,.066.163.334.334,0,0,1-.094.24.3.3,0,0,1-.225.1h-1.143a7.048,7.048,0,0,0-.159,1.378,3.953,3.953,0,0,0,.3,1.566.2.2,0,0,1,.027.1.324.324,0,0,1-.056.187.4.4,0,0,1-.15.136.378.378,0,0,1-.187.052c-.163,0-.272-.13-.329-.389a3.578,3.578,0,0,1-.084-.755,5.681,5.681,0,0,1,.084-.984q.085-.478.282-1.294h-.985q-.7,2.879-.852,3.178a.392.392,0,0,1-.348.244.289.289,0,0,1-.2-.075.231.231,0,0,1-.084-.178Z" transform="translate(-0.334 -1.345)"/>
    <g>
      <path class="cls-3" d="M192.049,201.965l-2.2,6.8h-.6l2.2-6.8Z" transform="translate(-0.334 -1.345)"/>
      <path class="cls-3" d="M196.465,204.127a1.792,1.792,0,0,1-.359,1.15,4.614,4.614,0,0,1-1.346,1,5.042,5.042,0,0,0-1.464,1.076,2.018,2.018,0,0,0-.269.475h3.438v.769h-4.334a2.57,2.57,0,0,1,.5-1.632,6.22,6.22,0,0,1,1.863-1.386,3.052,3.052,0,0,0,.9-.678,1.239,1.239,0,0,0,.243-.792,1.055,1.055,0,0,0-.362-.827,1.33,1.33,0,0,0-.922-.322,1.138,1.138,0,0,0-.925.4,1.824,1.824,0,0,0-.358,1.143H192.3a2.2,2.2,0,0,1,.558-1.64,2.121,2.121,0,0,1,1.6-.6,2.031,2.031,0,0,1,1.441.524A1.745,1.745,0,0,1,196.465,204.127Z" transform="translate(-0.334 -1.345)"/>
    </g>
    <path class="cls-3" d="M192.9,143.716a5.41,5.41,0,0,1,0-4.81,1.948,1.948,0,0,1,3.211,0,5.418,5.418,0,0,1,0,4.81,1.949,1.949,0,0,1-3.211,0Zm2.6-.5a5.658,5.658,0,0,0,0-3.808,1.074,1.074,0,0,0-1-.635,1.059,1.059,0,0,0-.992.635,5.594,5.594,0,0,0,0,3.808,1.059,1.059,0,0,0,.992.633A1.074,1.074,0,0,0,195.5,143.215Z" transform="translate(-0.334 -1.345)"/>
    <path class="cls-4" d="M184.911,80.041a.43.43,0,0,1,.038-.15c.168-.35.325-.692.468-1.027s.274-.661.39-.98.22-.656.313-1.012h-.571a1.031,1.031,0,0,0-.614.206,1.747,1.747,0,0,0-.474.516.059.059,0,0,1-.056.037h-.1a.075.075,0,0,1-.085-.084.151.151,0,0,1,.019-.056,4.2,4.2,0,0,1,.629-.839,1.04,1.04,0,0,1,.759-.343h3.262a.222.222,0,0,1,.159.062.21.21,0,0,1,.066.163.334.334,0,0,1-.094.24.3.3,0,0,1-.225.1h-1.143a7.048,7.048,0,0,0-.159,1.378,3.953,3.953,0,0,0,.3,1.566.2.2,0,0,1,.027.1.324.324,0,0,1-.056.187.4.4,0,0,1-.15.136.378.378,0,0,1-.187.052c-.163,0-.272-.13-.329-.389a3.578,3.578,0,0,1-.084-.755,5.681,5.681,0,0,1,.084-.984q.085-.478.282-1.294h-.985q-.7,2.878-.852,3.178a.392.392,0,0,1-.348.244.289.289,0,0,1-.2-.075.231.231,0,0,1-.084-.178Z" transform="translate(-0.334 -1.345)"/>
    <g>
      <path class="cls-3" d="M192.049,73.559l-2.2,6.8h-.6l2.2-6.8Z" transform="translate(-0.334 -1.345)"/>
      <path class="cls-3" d="M196.465,75.721a1.787,1.787,0,0,1-.359,1.149,4.614,4.614,0,0,1-1.346.995,5.023,5.023,0,0,0-1.464,1.077,2.018,2.018,0,0,0-.269.475h3.438v.769h-4.334a2.57,2.57,0,0,1,.5-1.632,6.186,6.186,0,0,1,1.863-1.386,3.086,3.086,0,0,0,.9-.678,1.244,1.244,0,0,0,.243-.793,1.056,1.056,0,0,0-.362-.827,1.33,1.33,0,0,0-.922-.322,1.139,1.139,0,0,0-.925.4,1.822,1.822,0,0,0-.358,1.143H192.3a2.2,2.2,0,0,1,.558-1.641,2.125,2.125,0,0,1,1.6-.6,2.035,2.035,0,0,1,1.441.523A1.749,1.749,0,0,1,196.465,75.721Z" transform="translate(-0.334 -1.345)"/>
    </g>
    <path class="cls-4" d="M192.711,15.841a.43.43,0,0,1,.038-.15c.168-.35.325-.692.468-1.027s.274-.661.39-.98.22-.656.313-1.012h-.571a1.031,1.031,0,0,0-.614.206,1.747,1.747,0,0,0-.474.516.059.059,0,0,1-.056.037h-.1a.075.075,0,0,1-.085-.084.151.151,0,0,1,.019-.056,4.2,4.2,0,0,1,.629-.839,1.04,1.04,0,0,1,.759-.343h3.262a.222.222,0,0,1,.159.062.21.21,0,0,1,.066.163.334.334,0,0,1-.094.24.3.3,0,0,1-.225.1h-1.143a7.048,7.048,0,0,0-.159,1.378,3.953,3.953,0,0,0,.3,1.566.2.2,0,0,1,.027.1.324.324,0,0,1-.056.187.4.4,0,0,1-.15.136.378.378,0,0,1-.187.052c-.163,0-.272-.13-.329-.389a3.578,3.578,0,0,1-.084-.755,5.681,5.681,0,0,1,.084-.984q.085-.478.282-1.294h-.985q-.7,2.878-.852,3.178a.392.392,0,0,1-.348.244.289.289,0,0,1-.2-.075.231.231,0,0,1-.084-.178Z" transform="translate(-0.334 -1.345)"/>
    <g>
      <path class="cls-5" d="M236.937,5.43a2.721,2.721,0,0,1-1.788.522h-1.483V8.514h-1.479V1.388h3.059a2.471,2.471,0,0,1,1.687.551,2.151,2.151,0,0,1,.629,1.707A2.212,2.212,0,0,1,236.937,5.43ZM235.8,2.863a1.2,1.2,0,0,0-.793-.237h-1.341v2.1h1.341a1.139,1.139,0,0,0,.793-.256,1.05,1.05,0,0,0,.283-.813A.983.983,0,0,0,235.8,2.863Z" transform="translate(-0.334 -1.345)"/>
      <path class="cls-5" d="M242.432,3.274a1.545,1.545,0,0,1,.652.518,1.379,1.379,0,0,1,.265.607,7.569,7.569,0,0,1,.047,1.018v3.1H241.99V5.305a1.419,1.419,0,0,0-.144-.687.721.721,0,0,0-.71-.368.973.973,0,0,0-.823.366,1.681,1.681,0,0,0-.281,1.042V8.514h-1.378v-7.1h1.378V3.926a1.683,1.683,0,0,1,.691-.64,1.943,1.943,0,0,1,.826-.182A2.232,2.232,0,0,1,242.432,3.274Z" transform="translate(-0.334 -1.345)"/>
      <path class="cls-5" d="M246.778,5.309a2.226,2.226,0,0,0,.551-.121.415.415,0,0,0,.3-.392.463.463,0,0,0-.228-.447,1.444,1.444,0,0,0-.669-.123.88.88,0,0,0-.7.242,1,1,0,0,0-.195.483H244.5a2.015,2.015,0,0,1,.389-1.136,2.263,2.263,0,0,1,1.883-.7,3.358,3.358,0,0,1,1.544.343,1.315,1.315,0,0,1,.675,1.3V7.175q0,.25.01.609a.77.77,0,0,0,.082.367.485.485,0,0,0,.2.16v.2h-1.5a1.6,1.6,0,0,1-.087-.3c-.015-.093-.028-.2-.038-.319a2.841,2.841,0,0,1-.662.527,1.994,1.994,0,0,1-1.011.256A1.744,1.744,0,0,1,244.8,8.27a1.452,1.452,0,0,1-.47-1.158,1.5,1.5,0,0,1,.755-1.407,3.377,3.377,0,0,1,1.218-.338Zm.843.643a1.538,1.538,0,0,1-.267.132,2.135,2.135,0,0,1-.37.1l-.313.058a2.084,2.084,0,0,0-.634.188.63.63,0,0,0-.325.585.614.614,0,0,0,.2.511.761.761,0,0,0,.484.156,1.445,1.445,0,0,0,.832-.26,1.11,1.11,0,0,0,.4-.953Z" transform="translate(-0.334 -1.345)"/>
      <path class="cls-5" d="M251.266,6.832a.923.923,0,0,0,.189.522,1.288,1.288,0,0,0,.952.275,1.45,1.45,0,0,0,.649-.121.386.386,0,0,0,.24-.362.393.393,0,0,0-.193-.353,7.9,7.9,0,0,0-1.442-.416,3,3,0,0,1-1.265-.556,1.2,1.2,0,0,1-.368-.947,1.643,1.643,0,0,1,.575-1.255,2.308,2.308,0,0,1,1.615-.524,2.966,2.966,0,0,1,1.611.394,1.684,1.684,0,0,1,.714,1.361h-1.377a.825.825,0,0,0-.15-.421.951.951,0,0,0-.776-.281,1.11,1.11,0,0,0-.642.141.4.4,0,0,0-.192.329.359.359,0,0,0,.2.342,8.764,8.764,0,0,0,1.439.383,2.643,2.643,0,0,1,1.234.584,1.329,1.329,0,0,1,.406.991A1.6,1.6,0,0,1,254.1,8.2a3.51,3.51,0,0,1-3.642-.029,1.7,1.7,0,0,1-.593-1.336Z" transform="translate(-0.334 -1.345)"/>
      <path class="cls-5" d="M259.137,3.352a2.14,2.14,0,0,1,.911.779,2.585,2.585,0,0,1,.419,1.089,6.708,6.708,0,0,1,.046,1.046h-3.838a1.26,1.26,0,0,0,.552,1.111,1.386,1.386,0,0,0,.758.2,1.162,1.162,0,0,0,.766-.242,1.176,1.176,0,0,0,.283-.362h1.406a1.721,1.721,0,0,1-.51.952,2.559,2.559,0,0,1-1.983.768,2.865,2.865,0,0,1-1.855-.648,2.553,2.553,0,0,1-.8-2.109,2.849,2.849,0,0,1,.726-2.1A2.538,2.538,0,0,1,257.9,3.1,2.994,2.994,0,0,1,259.137,3.352Zm-2.061,1.19a1.426,1.426,0,0,0-.367.815h2.373a1.145,1.145,0,0,0-.366-.833,1.21,1.21,0,0,0-.818-.284A1.092,1.092,0,0,0,257.076,4.542Z" transform="translate(-0.334 -1.345)"/>
      <path class="cls-5" d="M266.888,3.122l.118.006V4.54c-.087-.01-.164-.016-.233-.019s-.122,0-.164,0a1.141,1.141,0,0,0-1.116.541,2.112,2.112,0,0,0-.16.938V8.514h-1.387V3.245h1.315v.918a2.924,2.924,0,0,1,.555-.72,1.514,1.514,0,0,1,1.006-.324A.625.625,0,0,1,266.888,3.122Z" transform="translate(-0.334 -1.345)"/>
      <path class="cls-5" d="M271.246,3.352a2.14,2.14,0,0,1,.911.779,2.572,2.572,0,0,1,.419,1.089,6.708,6.708,0,0,1,.046,1.046h-3.838a1.262,1.262,0,0,0,.552,1.111,1.389,1.389,0,0,0,.759.2,1.073,1.073,0,0,0,1.049-.6h1.406a1.717,1.717,0,0,1-.511.952,2.558,2.558,0,0,1-1.982.768,2.866,2.866,0,0,1-1.856-.648,2.553,2.553,0,0,1-.8-2.109,2.853,2.853,0,0,1,.726-2.1,2.539,2.539,0,0,1,1.884-.731A2.99,2.99,0,0,1,271.246,3.352Zm-2.06,1.19a1.42,1.42,0,0,0-.368.815h2.373a1.145,1.145,0,0,0-.366-.833,1.21,1.21,0,0,0-.817-.284A1.089,1.089,0,0,0,269.186,4.542Z" transform="translate(-0.334 -1.345)"/>
      <path class="cls-5" d="M274.387,6.832a.923.923,0,0,0,.189.522,1.288,1.288,0,0,0,.952.275,1.45,1.45,0,0,0,.649-.121.386.386,0,0,0,.24-.362.391.391,0,0,0-.193-.353,7.9,7.9,0,0,0-1.442-.416,3,3,0,0,1-1.265-.556,1.2,1.2,0,0,1-.368-.947,1.643,1.643,0,0,1,.575-1.255,2.31,2.31,0,0,1,1.615-.524,2.966,2.966,0,0,1,1.611.394,1.681,1.681,0,0,1,.714,1.361h-1.377a.816.816,0,0,0-.15-.421.949.949,0,0,0-.776-.281,1.113,1.113,0,0,0-.642.141.4.4,0,0,0-.192.329.359.359,0,0,0,.2.342,8.764,8.764,0,0,0,1.439.383,2.643,2.643,0,0,1,1.234.584,1.329,1.329,0,0,1,.407.991,1.6,1.6,0,0,1-.584,1.279,3.511,3.511,0,0,1-3.643-.029,1.706,1.706,0,0,1-.593-1.336Z" transform="translate(-0.334 -1.345)"/>
      <path class="cls-5" d="M283.256,3.81a2.81,2.81,0,0,1,.644,2,3.166,3.166,0,0,1-.629,2.122,2.048,2.048,0,0,1-1.624.73,1.7,1.7,0,0,1-1.05-.315,2.023,2.023,0,0,1-.448-.507v2.745h-1.363V3.245h1.319v.778a2.264,2.264,0,0,1,.477-.542,1.764,1.764,0,0,1,1.1-.353A2.087,2.087,0,0,1,283.256,3.81ZM282.2,4.8a.982.982,0,0,0-.911-.469,1.037,1.037,0,0,0-1.04.711A2.661,2.661,0,0,0,280.1,6a1.52,1.52,0,0,0,.493,1.291,1.131,1.131,0,0,0,.693.217,1.008,1.008,0,0,0,.887-.445,2.06,2.06,0,0,0,.305-1.184A2.051,2.051,0,0,0,282.2,4.8Z" transform="translate(-0.334 -1.345)"/>
      <path class="cls-5" d="M289.266,7.869a2.9,2.9,0,0,1-4.051,0,3.049,3.049,0,0,1-.667-1.983,3.067,3.067,0,0,1,.667-1.975,2.872,2.872,0,0,1,4.051,0,3.073,3.073,0,0,1,.667,1.975A3.055,3.055,0,0,1,289.266,7.869Zm-1.1-.762a1.994,1.994,0,0,0,.324-1.221,1.987,1.987,0,0,0-.324-1.219,1.224,1.224,0,0,0-1.858,0,1.974,1.974,0,0,0-.326,1.219,1.98,1.98,0,0,0,.326,1.221,1.219,1.219,0,0,0,1.858,0Z" transform="translate(-0.334 -1.345)"/>
      <path class="cls-5" d="M295.168,3.547a1.742,1.742,0,0,1,.518,1.418V8.514h-1.412v-3.2a1.489,1.489,0,0,0-.11-.639.777.777,0,0,0-.768-.405.951.951,0,0,0-.955.594,2.07,2.07,0,0,0-.134.8V8.514h-1.378V3.254h1.334v.769a2.3,2.3,0,0,1,.5-.585,1.731,1.731,0,0,1,1.073-.319A2.02,2.02,0,0,1,295.168,3.547Z" transform="translate(-0.334 -1.345)"/>
      <path class="cls-5" d="M298.034,6.832a.922.922,0,0,0,.19.522,1.288,1.288,0,0,0,.952.275,1.448,1.448,0,0,0,.648-.121.386.386,0,0,0,.24-.362.391.391,0,0,0-.193-.353,7.873,7.873,0,0,0-1.441-.416,3,3,0,0,1-1.266-.556,1.2,1.2,0,0,1-.367-.947,1.642,1.642,0,0,1,.574-1.255,2.311,2.311,0,0,1,1.615-.524,2.968,2.968,0,0,1,1.612.394,1.684,1.684,0,0,1,.714,1.361h-1.377a.825.825,0,0,0-.151-.421.947.947,0,0,0-.775-.281,1.114,1.114,0,0,0-.643.141.4.4,0,0,0-.191.329.357.357,0,0,0,.2.342,8.738,8.738,0,0,0,1.438.383,2.652,2.652,0,0,1,1.235.584,1.332,1.332,0,0,1,.406.991,1.6,1.6,0,0,1-.584,1.279,3.511,3.511,0,0,1-3.643-.029,1.705,1.705,0,0,1-.592-1.336Z" transform="translate(-0.334 -1.345)"/>
      <path class="cls-5" d="M305.9,3.352a2.14,2.14,0,0,1,.911.779,2.572,2.572,0,0,1,.419,1.089,6.708,6.708,0,0,1,.046,1.046h-3.838A1.262,1.262,0,0,0,304,7.377a1.389,1.389,0,0,0,.759.2,1.07,1.07,0,0,0,1.049-.6h1.406a1.717,1.717,0,0,1-.511.952,2.557,2.557,0,0,1-1.982.768,2.868,2.868,0,0,1-1.856-.648,2.553,2.553,0,0,1-.8-2.109,2.852,2.852,0,0,1,.725-2.1,2.542,2.542,0,0,1,1.884-.731A2.99,2.99,0,0,1,305.9,3.352Zm-2.06,1.19a1.413,1.413,0,0,0-.367.815h2.373a1.149,1.149,0,0,0-.367-.833,1.208,1.208,0,0,0-.817-.284A1.089,1.089,0,0,0,303.845,4.542Z" transform="translate(-0.334 -1.345)"/>
    </g>
    <polyline class="cls-7" points="199.868 139.446 200.15 140.73 200.432 142.014 200.714 143.298 200.996 144.582 201.278 145.866 201.56 147.15 201.842 148.434 202.124 149.718 202.406 151.002 202.688 152.286 202.97 153.57 203.252 154.854 203.534 156.138 203.816 157.422 204.098 158.706 204.38 159.99 204.662 161.274 204.944 162.558 205.226 163.842 205.508 165.126 205.79 166.41 206.072 167.694 206.354 168.978 206.636 170.262 206.918 171.546 207.2 172.83 207.482 174.114 207.764 175.398 208.046 176.682 208.328 177.966 208.61 179.25 208.892 180.534 209.174 181.818 209.456 183.102 209.738 184.386 210.02 185.67 210.302 186.954 210.584 188.238 210.866 189.522 211.148 190.806 211.43 192.09 211.712 193.374 211.994 194.658 212.276 195.942 212.558 197.226 212.84 198.51 213.122 199.794 213.404 201.078 213.686 202.362 213.968 199.364 214.25 76.53 214.532 77.814 214.814 79.098 215.096 80.382 215.378 81.666 215.66 82.95 215.942 84.234 216.224 85.518 216.506 86.802 216.788 88.086 217.07 89.37 217.352 90.654 217.634 91.938 217.916 93.222 218.198 94.506 218.48 95.79 218.762 97.074 219.044 98.358 219.326 99.642 219.608 100.926 219.89 102.21 220.172 103.494 220.454 104.778 220.736 106.062 221.018 107.346 221.3 108.63 221.582 109.914 221.864 111.198 222.146 112.482 222.428 113.766 222.71 115.05 222.992 116.334 223.274 117.618 223.556 118.902 223.838 120.186 224.12 121.47 224.402 122.754 224.684 124.038 224.966 125.322 225.248 126.606 225.53 127.89 225.812 129.174 226.094 130.458 226.376 131.742 226.658 133.026 226.94 134.31 227.222 135.594 227.504 136.878 227.786 138.162 228.068 139.446 228.35 140.73 228.632 142.014 228.914 143.298 229.196 144.582 229.478 145.866 229.76 147.15 230.042 148.434 230.324 149.718 230.606 151.002 230.888 152.286 231.17 153.57 231.452 154.854 231.734 156.138 232.016 157.422 232.298 158.706 232.58 159.99 232.862 161.274 233.144 162.558 233.426 163.842 233.708 165.126 233.99 166.41 234.272 167.694 234.554 168.978 234.836 170.262 235.118 171.546 235.4 172.83 235.682 174.114 235.964 175.398 236.246 176.682 236.528 177.966 236.81 179.25 237.092 180.534 237.374 181.818 237.656 183.102 237.938 184.386 238.22 185.67 238.502 186.954 238.784 188.238 239.066 189.522 239.348 190.806 239.63 192.09 239.912 193.374 240.194 194.658 240.476 195.942 240.758 197.226 241.04 198.51 241.322 199.794 241.604 201.078 241.886 202.362 242.168 210.533 242.45 76.53 242.732 77.814 243.014 79.098 243.296 80.382 243.578 81.666 243.86 82.95 244.142 84.234 244.424 85.518 244.706 86.802 244.988 88.086 245.27 89.37 245.552 90.654 245.834 91.938 246.116 93.222 246.398 94.506 246.68 95.79 246.962 97.074 247.244 98.358 247.526 99.642 247.808 100.926 248.09 102.21 248.372 103.494 248.654 104.778 248.936 106.062 249.218 107.346 249.5 108.63 249.782 109.914 250.064 111.198 250.346 112.482 250.628 113.766 250.91 115.05 251.192 116.334 251.474 117.618 251.756 118.902 252.038 120.186 252.32 121.47 252.602 122.754 252.884 124.038 253.166 125.322 253.448 126.606 253.73 127.89 254.012 129.174 254.294 130.458 254.576 131.742 254.858 133.026 255.14 134.31 255.422 135.594 255.704 136.878 255.986 138.162 256.268 139.446 256.55 140.73 256.832 142.014 257.114 143.298 257.396 144.582 257.678 145.866 257.96 147.15 258.242 148.434 258.524 149.718 258.806 151.002 259.088 152.286 259.37 153.57 259.652 154.854 259.934 156.138 260.216 157.422 260.498 158.706 260.78 159.99 261.062 161.274 261.344 162.558 261.626 163.842 261.908 165.126 262.19 166.41 262.472 167.694 262.754 168.978 263.036 170.262 263.318 171.546 263.6 172.83 263.882 174.114 264.164 175.398 264.446 176.682 264.728 177.966 265.01 179.25 265.292 180.534 265.574 181.818 265.856 183.102 266.138 184.386 266.42 185.67 266.702 186.954 266.984 188.238 267.266 189.522 267.548 190.806 267.83 192.09 268.112 193.374 268.394 194.658 268.676 195.942 268.958 197.226 269.24 198.51 269.522 199.794 269.804 201.078 270.086 202.362 270.368 139.446 270.65 76.53 270.932 77.814 271.214 79.098 271.496 80.382 271.778 81.666 272.06 82.95 272.342 84.234 272.624 85.518 272.906 86.802 273.188 88.086 273.47 89.37 273.752 90.654 274.034 91.938 274.316 93.222 274.598 94.506 274.88 95.79 275.162 97.074 275.444 98.358 275.726 99.642 276.008 100.926 276.29 102.21 276.572 103.494 276.854 104.778 277.136 106.062 277.418 107.346 277.7 108.63 277.982 109.914 278.264 111.198 278.546 112.482 278.828 113.766 279.11 115.05 279.392 116.334 279.674 117.618 279.956 118.902 280.238 120.186 280.52 121.47 280.802 122.754 281.084 124.038 281.366 125.322 281.648 126.606 281.93 127.89 282.212 129.174 282.494 130.458 282.776 131.742 283.058 133.026 283.34 134.31 283.622 135.594 283.904 136.878 284.186 138.162 284.468 139.446 284.75 140.73 285.032 142.014 285.314 143.298 285.596 144.582 285.878 145.866 286.16 147.15 286.442 148.434 286.724 149.718 287.006 151.002 287.288 152.286 287.57 153.57 287.852 154.854 288.134 156.138 288.416 157.422 288.698 158.706 288.98 159.99 289.262 161.274 289.544 162.558 289.826 163.842 290.108 165.126 290.39 166.41 290.672 167.694 290.954 168.978 291.236 170.262 291.518 171.546 291.8 172.83 292.082 174.114 292.364 175.398 292.646 176.682 292.928 177.966 293.21 179.25 293.492 180.534 293.774 181.818 294.056 183.102 294.338 184.386 294.62 185.67 294.902 186.954 295.184 188.238 295.466 189.522 295.748 190.806 296.03 192.09 296.312 193.374 296.594 194.658 296.876 195.942 297.158 197.226 297.44 198.51 297.722 199.794 298.004 201.078 298.286 202.362 298.568 68.359 298.85 76.53 299.132 77.814 299.414 79.098 299.696 80.382 299.978 81.666 300.26 82.95 300.542 84.234 300.824 85.518 301.106 86.802 301.388 88.086 301.67 89.37 301.952 90.654 302.234 91.938 302.516 93.222 302.798 94.506 303.08 95.79 303.362 97.074 303.644 98.358 303.926 99.642 304.208 100.926 304.49 102.21 304.772 103.494 305.054 104.778 305.336 106.062 305.618 107.346 305.9 108.63 306.182 109.914 306.464 111.198 306.746 112.482 307.028 113.766 307.31 115.05 307.592 116.334 307.874 117.618 308.156 118.902 308.438 120.186 308.72 121.47 309.002 122.754 309.284 124.038 309.566 125.322 309.848 126.606 310.13 127.89 310.412 129.174 310.694 130.458 310.976 131.742 311.258 133.026 311.54 134.31 311.822 135.594 312.104 136.878 312.386 138.162 312.668 139.446 312.95 140.73 313.232 142.014 313.514 143.298 313.796 144.582 314.078 145.866 314.36 147.15 314.642 148.434 314.924 149.718 315.206 151.002 315.488 152.286 315.77 153.57 316.052 154.854 316.334 156.138 316.616 157.422 316.898 158.706 317.18 159.99 317.462 161.274 317.744 162.558 318.026 163.842 318.308 165.126 318.59 166.41 318.872 167.694 319.154 168.978 319.436 170.262 319.718 171.546 320 172.83 320.282 174.114 320.564 175.398 320.846 176.682 321.128 177.966 321.41 179.25 321.692 180.534 321.974 181.818 322.256 183.102 322.538 184.386 322.82 185.67 323.102 186.954 323.384 188.238 323.666 189.522 323.948 190.806 324.23 192.09 324.512 193.374 324.794 194.658 325.076 195.942 325.358 197.226 325.64 198.51 325.922 199.794 326.204 201.078 326.486 202.362 326.768 79.528 327.05 76.53 327.332 77.814 327.614 79.098 327.896 80.382 328.178 81.666 328.46 82.95 328.742 84.234 329.024 85.518 329.306 86.802 329.588 88.086 329.87 89.37 330.152 90.654 330.434 91.938 330.716 93.222 330.998 94.506 331.28 95.79 331.562 97.074 331.844 98.358 332.126 99.642 332.408 100.926 332.69 102.21 332.972 103.494 333.254 104.778 333.536 106.062 333.818 107.346 334.1 108.63 334.382 109.914 334.664 111.198 334.946 112.482 335.228 113.766 335.51 115.05 335.792 116.334 336.074 117.618 336.356 118.902 336.638 120.186 336.92 121.47 337.202 122.754 337.484 124.038 337.766 125.322 338.048 126.606 338.33 127.89 338.612 129.174 338.894 130.458 339.176 131.742 339.458 133.026 339.74 134.31 340.022 135.594 340.304 136.878 340.586 138.162"/>
  </g>
</svg>
