<?xml version="1.0" encoding="utf-8"?>
<!-- Generator: Adobe Illustrator 22.1.0, SVG Export Plug-In . SVG Version: 6.00 Build 0)  -->
<svg version="1.1" id="Layer_1" xmlns="http://www.w3.org/2000/svg" xmlns:xlink="http://www.w3.org/1999/xlink" x="0px" y="0px"
	 viewBox="0 0 335.9 57.2" style="enable-background:new 0 0 335.9 57.2;" xml:space="preserve">
<style type="text/css">
	.st0{fill:#FF0000;}
	.st1{fill:none;stroke:#000000;stroke-width:0.8504;stroke-miterlimit:10;}
	.st2{fill:#1D1D1B;}
	.st3{fill:none;stroke:#0000FF;stroke-width:1.7008;stroke-linecap:round;stroke-miterlimit:10;stroke-dasharray:0,4.5354;}
	.st4{fill:#0000FF;}
	.st5{fill:none;stroke:#FF0000;stroke-width:1.7008;stroke-linecap:round;stroke-miterlimit:10;stroke-dasharray:0,4.5409;}
</style>
<g>
	<g>
		<path class="st0" d="M99.9,12c-0.1,0-1-0.6-1.6-1.9C97.8,9,97.7,7.7,97.7,7c0-0.8,0.1-1.9,0.6-3C98.9,2.7,99.8,2,99.9,2
			c0.1,0,0.1,0,0.1,0.1c0,0,0,0-0.1,0.2c-1.2,1.2-1.6,3-1.6,4.7c0,1.5,0.3,3.4,1.6,4.7C100,11.8,100,11.8,99.9,12
			C100,11.9,100,12,99.9,12z"/>
		<path class="st0" d="M103.5,8.7c0,0.4,0,0.5,0.9,0.5h0.3v0.3c-0.3,0-1.2,0-1.6,0c-0.4,0-1.3,0-1.6,0V9.2h0.3
			c0.9,0,0.9-0.1,0.9-0.5V3.5c-0.5,0.3-1.1,0.3-1.3,0.3V3.5c0.3,0,1.2,0,1.8-0.6c0.2,0,0.2,0,0.2,0.3V8.7z"/>
	</g>
	<g>
		<path class="st0" d="M108.9,7.2c-0.2,0-0.3,0-0.3-0.2c0-0.2,0.2-0.2,0.3-0.2h5.4c0.2,0,0.3,0,0.3,0.2c0,0.2-0.2,0.2-0.3,0.2H108.9
			z"/>
	</g>
	<g>
		<path class="st0" d="M119.3,8.6c0.2,0,0.4,0,0.7,0.2c0.2,0.1,0.4,0.1,0.6,0.1c0.3,0,1-0.2,1.2-0.8c0-0.1,0-0.1,0.1-0.1
			c0.1,0,0.1,0,0.1,0.1c0,0.3-0.6,1.5-1.6,1.5c-0.3,0-0.5-0.2-0.6-0.4c-0.2-0.3-0.3-0.4-0.6-0.4c-0.3,0-0.6,0.3-0.8,0.6
			c-0.1,0.1-0.1,0.1-0.2,0.1c0,0-0.1,0-0.1-0.1c0-0.1,0.3-0.6,1-1.3l0.9-0.8c0.2-0.2,1-0.9,1.4-1.3c-0.3,0-0.4,0-0.8-0.1
			c-0.2-0.1-0.4-0.1-0.6-0.1c-0.1,0-0.7,0-0.8,0.5c0,0.1,0,0.1-0.1,0.1c-0.1,0-0.1-0.1-0.1-0.1c0-0.2,0.5-1.1,1.2-1.1
			c0.3,0,0.5,0.2,0.7,0.4c0.1,0.2,0.3,0.3,0.5,0.3c0.2,0,0.4-0.2,0.7-0.6c0-0.1,0.1-0.1,0.1-0.1c0,0,0.1,0,0.1,0.1
			c0,0-0.2,0.5-1.2,1.4c-0.4,0.4-1,0.9-1,0.9c-0.4,0.3-0.6,0.6-1.2,1.1C119.1,8.6,119.3,8.6,119.3,8.6z"/>
	</g>
	<g>
		<path class="st0" d="M123.9,4.3c-0.1,0-0.3,0-0.3-0.2c0-0.2,0.2-0.2,0.3-0.2h4.2c0.1,0,0.3,0,0.3,0.2c0,0.2-0.2,0.2-0.3,0.2H123.9
			z"/>
	</g>
	<g>
		<path class="st0" d="M130.2,3.3c0.3-0.3,0.7-0.3,1-0.3c0.9,0,1.5,0.7,1.5,1.5c0,0.9-0.8,1.5-1.7,1.5c-0.8,0-1.4-0.6-1.4-1.3
			c0-0.4,0.3-0.4,0.3-0.4c0.1,0,0.3,0.1,0.3,0.4c0,0.2-0.1,0.4-0.4,0.3c0.2,0.5,0.6,0.7,1.1,0.7c0.3,0,0.6-0.2,0.8-0.4
			c0.2-0.3,0.2-0.7,0.2-0.9c0-0.4,0-0.7-0.2-0.9c0-0.1-0.2-0.4-0.6-0.4c-0.2,0-0.7,0.1-1,0.4c-0.1,0.1-0.1,0.1-0.1,0.1
			c-0.1,0-0.1-0.1-0.1-0.2V1.4c0-0.1,0-0.2,0.1-0.2c0,0,0,0,0.1,0c0.5,0.2,0.8,0.2,1,0.2c0.5,0,0.9-0.1,1.1-0.2c0,0,0,0,0.1,0
			c0,0,0.1,0,0.1,0.1c0,0.1-0.5,0.7-1.5,0.7c-0.1,0-0.3,0-0.7-0.1V3.3z"/>
	</g>
	<g>
		<path class="st0" d="M135.7,10c-0.6,1.3-1.5,1.9-1.6,1.9c-0.1,0-0.1,0-0.1-0.1c0,0,0-0.1,0.1-0.2c1.2-1.3,1.6-3,1.6-4.7
			c0-2.1-0.6-3.7-1.5-4.7C134,2.1,134,2.1,134,2.1c0-0.1,0-0.1,0.1-0.1c0.1,0,1,0.6,1.6,1.9c0.5,1.1,0.7,2.3,0.7,3.1
			C136.3,7.8,136.2,8.9,135.7,10z"/>
	</g>
	<g>
		<path class="st0" d="M138.2,11.7c-0.1,0.2-0.1,0.2-0.2,0.2c-0.1,0-0.2-0.1-0.2-0.2c0,0,0,0,0-0.2l3.5-9.5c0-0.1,0.1-0.1,0.2-0.1
			c0.1,0,0.2,0.1,0.2,0.2c0,0,0,0,0,0.2L138.2,11.7z"/>
	</g>
	<g>
		<path class="st0" d="M144.6,9.7c-1.1,0-1.8-1-1.8-1.8c0-0.5,0.3-0.5,0.5-0.5c0.3,0,0.5,0.2,0.5,0.5s-0.2,0.5-0.5,0.5
			c-0.1,0-0.1,0-0.2,0c0.2,0.6,0.7,1.1,1.5,1.1c0.5,0,0.8-0.3,1.1-0.6c0.2-0.4,0.2-1,0.2-1.4c0-0.5,0-0.9-0.2-1.3
			c-0.1-0.2-0.3-0.6-0.8-0.6c-0.8,0-1.2,0.5-1.3,0.7c0,0.1-0.1,0.1-0.1,0.1c-0.1,0-0.1-0.1-0.1-0.3V3.1c0-0.2,0-0.2,0.1-0.2
			c0,0,0,0,0.1,0c0.5,0.2,0.9,0.3,1.3,0.3c0.7,0,1.2-0.2,1.4-0.3c0,0,0.1,0,0.1,0c0.1,0,0.1,0,0.1,0.1c0,0.1-0.7,1-1.9,1
			c-0.3,0-0.6-0.1-0.8-0.1v1.9c0.4-0.3,0.8-0.5,1.3-0.5c1.1,0,1.9,1,1.9,2.2C146.8,8.7,145.8,9.7,144.6,9.7z"/>
	</g>
	<polyline points="252.1,23.1 256.7,20.9 252.1,18.6 253.3,20.9 	"/>
	<line class="st1" x1="231.9" y1="20.9" x2="253.3" y2="20.9"/>
	<polyline points="326.5,23.1 331.1,20.9 326.5,18.6 327.7,20.9 	"/>
	<line class="st1" x1="263.8" y1="20.9" x2="327.7" y2="20.9"/>
	<g>
		<path class="st2" d="M277.3,44.7c0,0.2,0,0.2,0,0.2c0,0.2,0.1,0.2,0.4,0.2c0.3,0,0.4,0,0.6,0c0.3,0,0.3,0,0.3,0.1
			c0,0.2-0.1,0.2-0.2,0.2c-0.3,0-0.6,0-0.9,0c-0.3,0-0.5,0-0.8,0c-0.3,0-0.6,0-0.8,0c-0.3,0-0.5,0-0.8,0c-0.1,0-0.2,0-0.2-0.1
			c0-0.2,0.1-0.2,0.4-0.2c1.1,0,1.1-0.1,1.2-0.5l1.3-5.3c0,0,0-0.1,0-0.2c0-0.1,0-0.1-0.3-0.1h-0.4c-1.5,0-1.7,0.2-2.3,1.7
			c-0.1,0.2-0.1,0.2-0.2,0.2c-0.1,0-0.1-0.1-0.1-0.1c0,0,0-0.2,0.1-0.2l0.6-1.8c0.1-0.2,0.1-0.2,0.3-0.2h5.5c0.2,0,0.3,0,0.3,0.1
			c0,0,0,0.1,0,0.2l-0.3,1.7c0,0.1,0,0.2-0.1,0.2c-0.1,0-0.1-0.1-0.1-0.1c0,0,0-0.2,0-0.2c0-0.3,0.1-0.6,0.1-0.8
			c0-0.8-0.4-0.8-1.5-0.8c-0.2,0-0.5,0-0.6,0c-0.1,0-0.2,0.1-0.2,0.4L277.3,44.7z"/>
	</g>
	<polygon class="st1" points="267.3,42.1 267.3,49.2 288.6,49.2 288.6,35.1 267.3,35.1 	"/>
	<polyline points="293.1,39.9 288.6,42.1 293.1,44.4 292,42.1 	"/>
	<line class="st1" x1="295.6" y1="42.1" x2="292" y2="42.1"/>
	<polyline points="262.5,29 260.2,24.4 257.9,29 260.2,27.8 	"/>
	<line class="st1" x1="260.2" y1="42.1" x2="260.2" y2="27.8"/>
	<g>
		<path class="st2" d="M260.2,24.1c-1.8,0-3.3-1.5-3.3-3.3c0-1.8,1.5-3.3,3.3-3.3c1.8,0,3.3,1.5,3.3,3.3
			C263.6,22.6,262.1,24.1,260.2,24.1z M260.1,20.7v-2.9c-1.6,0.1-2.8,1.3-2.9,2.9H260.1z M260.1,20.9h-2.9c0.1,1.7,1.4,2.9,2.9,2.9
			V20.9z M260.4,20.7h3c-0.1-1.7-1.4-2.9-3-2.9V20.7z M260.4,20.9v2.9c1.5-0.1,2.9-1.2,3-2.9H260.4z"/>
	</g>
	<polygon class="st3" points="239,35.1 239,56.3 309.8,56.3 309.8,13.8 239,13.8 	"/>
	<g>
		<path class="st4" d="M252,8.7c0,0.4,0,0.5,0.9,0.5h0.3v0.3c-0.3,0-1.2,0-1.6,0s-1.3,0-1.6,0V9.2h0.3c0.9,0,0.9-0.1,0.9-0.5V3.5
			c-0.5,0.3-1.1,0.3-1.3,0.3V3.5c0.3,0,1.2,0,1.8-0.6c0.2,0,0.2,0,0.2,0.3V8.7z"/>
	</g>
	<g>
		<path class="st4" d="M255.1,11.7c-0.1,0.2-0.1,0.2-0.2,0.2c-0.1,0-0.2-0.1-0.2-0.2c0,0,0,0,0-0.2l3.5-9.5c0-0.1,0.1-0.1,0.2-0.1
			c0.1,0,0.2,0.1,0.2,0.2c0,0,0,0,0,0.2L255.1,11.7z"/>
	</g>
	<g>
		<path class="st4" d="M262.3,12c-0.1,0-1-0.6-1.6-1.9c-0.5-1.1-0.7-2.3-0.7-3.1c0-0.8,0.1-1.9,0.6-3c0.6-1.3,1.5-1.9,1.6-1.9
			c0.1,0,0.1,0,0.1,0.1c0,0,0,0-0.1,0.2c-1.2,1.2-1.6,3-1.6,4.7c0,1.5,0.3,3.4,1.6,4.7C262.4,11.8,262.4,11.8,262.3,12
			C262.4,11.9,262.4,12,262.3,12z"/>
		<path class="st4" d="M265.9,8.7c0,0.4,0,0.5,0.9,0.5h0.3v0.3c-0.3,0-1.2,0-1.6,0s-1.3,0-1.6,0V9.2h0.3c0.9,0,0.9-0.1,0.9-0.5V3.5
			c-0.5,0.3-1.1,0.3-1.3,0.3V3.5c0.3,0,1.2,0,1.8-0.6c0.2,0,0.2,0,0.2,0.3V8.7z"/>
	</g>
	<g>
		<path class="st4" d="M271.2,7.2c-0.2,0-0.3,0-0.3-0.2c0-0.2,0.2-0.2,0.3-0.2h5.4c0.2,0,0.3,0,0.3,0.2c0,0.2-0.2,0.2-0.3,0.2H271.2
			z"/>
	</g>
	<g>
		<path class="st4" d="M281.6,8.6c0.2,0,0.4,0,0.7,0.2c0.2,0.1,0.4,0.1,0.6,0.1c0.3,0,1-0.2,1.2-0.8c0-0.1,0-0.1,0.1-0.1
			c0.1,0,0.1,0,0.1,0.1c0,0.3-0.6,1.5-1.6,1.5c-0.3,0-0.5-0.2-0.6-0.4c-0.2-0.3-0.3-0.4-0.6-0.4c-0.3,0-0.6,0.3-0.8,0.6
			c-0.1,0.1-0.1,0.1-0.2,0.1c0,0-0.1,0-0.1-0.1c0-0.1,0.3-0.6,1-1.3l0.9-0.8c0.2-0.2,1-0.9,1.4-1.3c-0.3,0-0.4,0-0.8-0.1
			c-0.2-0.1-0.4-0.1-0.6-0.1c-0.1,0-0.7,0-0.8,0.5c0,0.1,0,0.1-0.1,0.1s-0.1-0.1-0.1-0.1c0-0.2,0.5-1.1,1.2-1.1
			c0.3,0,0.5,0.2,0.7,0.4c0.1,0.2,0.3,0.3,0.5,0.3s0.4-0.2,0.7-0.6c0-0.1,0.1-0.1,0.1-0.1c0,0,0.1,0,0.1,0.1c0,0-0.2,0.5-1.2,1.4
			c-0.4,0.4-1,0.9-1,0.9c-0.4,0.3-0.6,0.6-1.2,1.1C281.4,8.6,281.6,8.6,281.6,8.6z"/>
	</g>
	<g>
		<path class="st4" d="M286.2,4.3c-0.1,0-0.3,0-0.3-0.2c0-0.2,0.2-0.2,0.3-0.2h4.2c0.1,0,0.3,0,0.3,0.2c0,0.2-0.2,0.2-0.3,0.2H286.2
			z"/>
	</g>
	<g>
		<path class="st4" d="M293.8,5.3c0,0.2,0,0.3,0.7,0.3h0.3v0.3c-0.2,0-1,0-1.2,0c-0.3,0-1.1,0-1.2,0V5.6h0.3c0.7,0,0.7-0.1,0.7-0.3
			V1.7c-0.4,0.2-0.8,0.2-1,0.2V1.7c0.3,0,0.9,0,1.4-0.4c0.2,0,0.2,0,0.2,0.2V5.3z"/>
	</g>
	<g>
		<path class="st4" d="M298,10c-0.6,1.3-1.5,1.9-1.6,1.9c-0.1,0-0.1,0-0.1-0.1c0,0,0-0.1,0.1-0.2c1.2-1.3,1.6-3,1.6-4.7
			c0-2.1-0.6-3.7-1.5-4.7c-0.2-0.2-0.2-0.2-0.2-0.2c0-0.1,0-0.1,0.1-0.1c0.1,0,1,0.6,1.6,1.9c0.5,1.1,0.7,2.3,0.7,3.1
			C298.6,7.8,298.5,8.9,298,10z"/>
	</g>
	<path class="st1" d="M260.2,42.1h7.1 M295.6,42.1V20.9"/>
	<g>
		<path class="st2" d="M323,33.9c-0.3,1.1-1.3,2-2.3,2c-0.6,0-1.1-0.4-1.1-0.9c0-0.5,0.3-0.6,0.6-0.6c0.1,0,0.4,0,0.4,0.3
			c0,0.2-0.1,0.3-0.2,0.4c-0.1,0.1-0.3,0.1-0.4,0.1c0.2,0.4,0.6,0.4,0.8,0.4c0.5,0,0.8-0.3,1.1-0.6c0.4-0.5,0.5-1,0.6-1.5
			c-0.3,0.3-0.6,0.4-1,0.4c-0.6,0-1.2-0.3-1.2-1.2c0-0.5,0.2-1,0.6-2.1c0.1-0.2,0.2-0.4,0.2-0.7c0-0.3-0.2-0.3-0.2-0.3
			c-0.3,0-0.7,0.3-1,1.2c0,0.2-0.1,0.2-0.2,0.2c0,0-0.1,0-0.1-0.1c0-0.1,0.4-1.5,1.3-1.5c0.5,0,0.8,0.4,0.8,0.8c0,0.2,0,0.3-0.2,0.7
			c-0.3,0.9-0.5,1.5-0.5,2c0,0.4,0.1,0.8,0.6,0.8c0.7,0,1.1-0.7,1.1-0.8l0.4-1.8c0.1-0.3,0.1-0.5,0.2-0.8c0-0.2,0.1-0.5,0.1-0.5
			c0.1-0.1,0.2-0.2,0.3-0.2c0.1,0,0.3,0.1,0.3,0.3c0,0.1,0,0.1,0,0.2L323,33.9z"/>
	</g>
	<g>
		<path class="st2" d="M325.6,36.4v-10h1.4v0.4h-1V36h1v0.4H325.6z"/>
	</g>
	<g>
		<path class="st2" d="M328.6,31c0.1-0.5,0.2-0.6,0.2-0.8c0-0.3-0.1-0.5-0.3-0.5c-0.4,0-0.6,0.5-0.7,1.2c-0.1,0.2-0.1,0.2-0.2,0.2
			c0,0-0.1,0-0.1-0.1c0,0,0.1-0.6,0.3-1c0.1-0.2,0.3-0.6,0.7-0.6c0.5,0,0.9,0.3,0.9,0.9c0.2-0.2,0.7-0.9,1.6-0.9
			c0.7,0,1.1,0.4,1.1,1.1c0,0.6-0.4,1.7-0.6,2.2c-0.1,0.2-0.2,0.5-0.2,0.7c0,0.2,0.1,0.3,0.2,0.3c0.5,0,0.8-0.6,1-1.2
			c0.1-0.1,0.1-0.2,0.2-0.2c0,0,0.1,0,0.1,0.1c0,0.1-0.4,1.5-1.3,1.5c-0.5,0-0.8-0.3-0.8-0.8c0-0.1,0-0.2,0.1-0.5
			c0.2-0.4,0.6-1.7,0.6-2.3c0-0.3-0.1-0.7-0.5-0.7c-0.9,0-1.5,0.9-1.6,1.2c0,0-0.1,0.3-0.1,0.5c0,0.2-0.1,0.4-0.2,0.7l-0.2,0.9
			c-0.1,0.2-0.2,0.7-0.2,0.7c-0.1,0.2-0.2,0.3-0.4,0.3c-0.1,0-0.3-0.1-0.3-0.3c0,0,0.1-0.3,0.1-0.4L328.6,31z"/>
	</g>
	<g>
		<path class="st2" d="M334.8,36.4h-1.4V36h1v-9.2h-1v-0.4h1.4V36.4z"/>
	</g>
	<polygon class="st5" points="29.9,35.1 29.9,56.3 221.2,56.3 221.2,13.8 29.9,13.8 	"/>
	<g>
		<path class="st2" d="M3,21.6c-0.1,0.4-0.2,0.7-0.2,0.9c0,0.3,0.2,0.7,0.5,0.7c0.3,0,1-0.2,1.3-1.3c0-0.1,0-0.1,0.1-0.1
			c0,0,0.1,0,0.1,0.1c0,0.2-0.6,1.5-1.6,1.5c-0.6,0-1-0.4-1.1-0.8c0,0.1-0.4,0.8-1,0.8c-0.4,0-0.9-0.2-0.9-0.7
			c0-0.3,0.2-0.6,0.5-0.6c0.1,0,0.4,0.1,0.4,0.3C1.2,22.8,1,23,0.7,23c0.2,0.1,0.4,0.1,0.5,0.1c0.4,0,0.8-0.4,0.9-1
			c0.4-1.4,0.5-2.1,0.5-2.4c0-0.6-0.3-0.7-0.5-0.7c-0.3,0-1,0.2-1.3,1.3c0,0.1-0.1,0.1-0.1,0.1c0,0-0.1,0-0.1-0.1
			c0-0.2,0.6-1.5,1.6-1.5c0.3,0,0.8,0.1,1.1,0.8c0.1-0.2,0.5-0.8,1-0.8c0.3,0,0.9,0.1,0.9,0.7c0,0.4-0.3,0.6-0.5,0.6
			c-0.3,0-0.4-0.2-0.4-0.3c0-0.2,0.2-0.5,0.5-0.5c-0.2-0.1-0.4-0.1-0.5-0.1c-0.7,0-0.9,0.9-1,1.2L3,21.6z"/>
	</g>
	<g>
		<path class="st2" d="M6.8,25.8v-10h1.4v0.4h-1v9.2h1v0.4H6.8z"/>
	</g>
	<g>
		<path class="st2" d="M9.9,20.4c0.1-0.5,0.2-0.6,0.2-0.8c0-0.3-0.1-0.5-0.3-0.5c-0.4,0-0.6,0.5-0.7,1.2c-0.1,0.2-0.1,0.2-0.2,0.2
			c0,0-0.1,0-0.1-0.1c0,0,0.1-0.6,0.3-1c0.1-0.2,0.3-0.6,0.7-0.6c0.5,0,0.9,0.3,0.9,0.9c0.2-0.2,0.7-0.9,1.6-0.9
			c0.7,0,1.1,0.4,1.1,1.1c0,0.6-0.4,1.7-0.6,2.2c-0.1,0.2-0.2,0.5-0.2,0.7c0,0.2,0.1,0.3,0.2,0.3c0.5,0,0.8-0.6,1-1.2
			c0-0.1,0-0.2,0.1-0.2c0,0,0.1,0,0.1,0.1c0,0.1-0.4,1.5-1.3,1.5c-0.5,0-0.8-0.3-0.8-0.8c0-0.1,0-0.2,0.1-0.5
			c0.2-0.4,0.6-1.7,0.6-2.3c0-0.3-0.1-0.7-0.5-0.7c-0.9,0-1.5,0.9-1.6,1.2c0,0-0.1,0.3-0.1,0.5c0,0.2-0.1,0.4-0.2,0.7L10,22.4
			c-0.1,0.2-0.2,0.7-0.2,0.7c-0.1,0.2-0.2,0.3-0.4,0.3c-0.1,0-0.3-0.1-0.3-0.3c0-0.1,0.1-0.3,0.1-0.4L9.9,20.4z"/>
	</g>
	<g>
		<path class="st2" d="M16,25.8h-1.4v-0.4h1v-9.2h-1v-0.4H16V25.8z"/>
	</g>
	<polyline points="177.7,23.1 182.3,20.9 177.7,18.6 178.9,20.9 	"/>
	<path class="st1" d="M22.8,20.9h156 M37,42.1V20.9"/>
	<g>
		<path class="st2" d="M54,44.7c0,0.2,0,0.2,0,0.2c0,0.2,0.1,0.2,0.4,0.2c0.3,0,0.4,0,0.6,0c0.3,0,0.3,0,0.3,0.1
			c0,0.2-0.1,0.2-0.2,0.2c-0.3,0-0.6,0-0.9,0c-0.3,0-0.5,0-0.8,0c-0.3,0-0.6,0-0.8,0c-0.3,0-0.5,0-0.8,0c-0.1,0-0.2,0-0.2-0.1
			c0-0.2,0.1-0.2,0.4-0.2c1.1,0,1.1-0.1,1.2-0.5l1.3-5.3c0,0,0-0.1,0-0.2c0-0.1,0-0.1-0.3-0.1h-0.4c-1.5,0-1.7,0.2-2.3,1.7
			c-0.1,0.2-0.1,0.2-0.2,0.2c-0.1,0-0.1-0.1-0.1-0.1c0,0,0-0.2,0.1-0.2l0.6-1.8c0.1-0.2,0.1-0.2,0.3-0.2h5.5c0.2,0,0.3,0,0.3,0.1
			c0,0,0,0.1,0,0.2l-0.3,1.7c0,0.1,0,0.2-0.1,0.2c-0.1,0-0.1-0.1-0.1-0.1c0,0,0-0.2,0-0.2c0-0.3,0.1-0.6,0.1-0.8
			c0-0.8-0.4-0.8-1.5-0.8c-0.2,0-0.5,0-0.6,0c-0.1,0-0.2,0.1-0.2,0.4L54,44.7z"/>
	</g>
	<polygon class="st1" points="44.1,42.1 44.1,49.2 65.3,49.2 65.3,35.1 44.1,35.1 	"/>
	<polyline points="39.5,44.4 44.1,42.1 39.5,39.9 40.7,42.1 	"/>
	<line class="st1" x1="37" y1="42.1" x2="40.7" y2="42.1"/>
	<g>
		<path class="st2" d="M82.4,44.7c0,0.2,0,0.2,0,0.2c0,0.2,0.1,0.2,0.4,0.2c0.3,0,0.4,0,0.6,0c0.3,0,0.3,0,0.3,0.1
			c0,0.2-0.1,0.2-0.2,0.2c-0.3,0-0.6,0-0.9,0c-0.3,0-0.5,0-0.8,0c-0.3,0-0.6,0-0.8,0c-0.3,0-0.5,0-0.8,0c-0.1,0-0.2,0-0.2-0.1
			c0-0.2,0.1-0.2,0.4-0.2c1.1,0,1.1-0.1,1.2-0.5l1.3-5.3c0,0,0-0.1,0-0.2c0-0.1,0-0.1-0.3-0.1h-0.4c-1.5,0-1.7,0.2-2.3,1.7
			c-0.1,0.2-0.1,0.2-0.2,0.2c-0.1,0-0.1-0.1-0.1-0.1c0,0,0-0.2,0.1-0.2l0.6-1.8c0.1-0.2,0.1-0.2,0.3-0.2h5.5c0.2,0,0.3,0,0.3,0.1
			c0,0,0,0.1,0,0.2l-0.3,1.7c0,0.1,0,0.2-0.1,0.2c-0.1,0-0.1-0.1-0.1-0.1c0,0,0-0.2,0-0.2c0-0.3,0.1-0.6,0.1-0.8
			c0-0.8-0.4-0.8-1.5-0.8c-0.2,0-0.5,0-0.6,0c-0.1,0-0.2,0.1-0.2,0.4L82.4,44.7z"/>
	</g>
	<polygon class="st1" points="72.4,42.1 72.4,49.2 93.7,49.2 93.7,35.1 72.4,35.1 	"/>
	<polyline points="67.9,44.4 72.4,42.1 67.9,39.9 69,42.1 	"/>
	<line class="st1" x1="65.3" y1="42.1" x2="69" y2="42.1"/>
	<g>
		<path class="st2" d="M110.7,44.7c0,0.2,0,0.2,0,0.2c0,0.2,0.1,0.2,0.4,0.2c0.3,0,0.4,0,0.6,0c0.3,0,0.3,0,0.3,0.1
			c0,0.2-0.1,0.2-0.2,0.2c-0.3,0-0.6,0-0.9,0c-0.3,0-0.5,0-0.8,0c-0.3,0-0.6,0-0.8,0c-0.3,0-0.5,0-0.8,0c-0.1,0-0.2,0-0.2-0.1
			c0-0.2,0.1-0.2,0.4-0.2c1.1,0,1.1-0.1,1.2-0.5l1.3-5.3c0,0,0-0.1,0-0.2c0-0.1,0-0.1-0.3-0.1h-0.4c-1.5,0-1.7,0.2-2.3,1.7
			c-0.1,0.2-0.1,0.2-0.2,0.2c-0.1,0-0.1-0.1-0.1-0.1c0,0,0-0.2,0.1-0.2l0.6-1.8c0.1-0.2,0.1-0.2,0.3-0.2h5.5c0.2,0,0.3,0,0.3,0.1
			c0,0,0,0.1,0,0.2l-0.3,1.7c0,0.1,0,0.2-0.1,0.2c-0.1,0-0.1-0.1-0.1-0.1c0,0,0-0.2,0-0.2c0-0.3,0.1-0.6,0.1-0.8
			c0-0.8-0.4-0.8-1.5-0.8c-0.2,0-0.5,0-0.6,0c-0.1,0-0.2,0.1-0.2,0.4L110.7,44.7z"/>
	</g>
	<polygon class="st1" points="100.8,42.1 100.8,49.2 122,49.2 122,35.1 100.8,35.1 	"/>
	<polyline points="96.2,44.4 100.8,42.1 96.2,39.9 97.4,42.1 	"/>
	<line class="st1" x1="93.7" y1="42.1" x2="97.4" y2="42.1"/>
	<g>
		<path class="st2" d="M139.1,44.7c0,0.2,0,0.2,0,0.2c0,0.2,0.1,0.2,0.4,0.2c0.3,0,0.4,0,0.6,0c0.3,0,0.3,0,0.3,0.1
			c0,0.2-0.1,0.2-0.2,0.2c-0.3,0-0.6,0-0.9,0c-0.3,0-0.5,0-0.8,0c-0.3,0-0.6,0-0.8,0c-0.3,0-0.5,0-0.8,0c-0.1,0-0.2,0-0.2-0.1
			c0-0.2,0.1-0.2,0.4-0.2c1.1,0,1.1-0.1,1.2-0.5l1.3-5.3c0,0,0-0.1,0-0.2c0-0.1,0-0.1-0.3-0.1h-0.4c-1.5,0-1.7,0.2-2.3,1.7
			c-0.1,0.2-0.1,0.2-0.2,0.2c-0.1,0-0.1-0.1-0.1-0.1c0,0,0-0.2,0.1-0.2l0.6-1.8c0.1-0.2,0.1-0.2,0.3-0.2h5.5c0.2,0,0.3,0,0.3,0.1
			c0,0,0,0.1,0,0.2l-0.3,1.7c0,0.1,0,0.2-0.1,0.2c-0.1,0-0.1-0.1-0.1-0.1c0,0,0-0.2,0-0.2c0-0.3,0.1-0.6,0.1-0.8
			c0-0.8-0.4-0.8-1.5-0.8c-0.2,0-0.5,0-0.6,0c-0.1,0-0.2,0.1-0.2,0.4L139.1,44.7z"/>
	</g>
	<polygon class="st1" points="129.1,42.1 129.1,49.2 150.4,49.2 150.4,35.1 129.1,35.1 	"/>
	<polyline points="124.6,44.4 129.1,42.1 124.6,39.9 125.7,42.1 	"/>
	<line class="st1" x1="122" y1="42.1" x2="125.7" y2="42.1"/>
	<g>
		<path class="st2" d="M167.4,44.7c0,0.2,0,0.2,0,0.2c0,0.2,0.1,0.2,0.4,0.2c0.3,0,0.4,0,0.6,0c0.3,0,0.3,0,0.3,0.1
			c0,0.2-0.1,0.2-0.2,0.2c-0.3,0-0.6,0-0.9,0c-0.3,0-0.5,0-0.8,0c-0.3,0-0.6,0-0.8,0c-0.3,0-0.5,0-0.8,0c-0.1,0-0.2,0-0.2-0.1
			c0-0.2,0.1-0.2,0.4-0.2c1.1,0,1.1-0.1,1.2-0.5l1.3-5.3c0,0,0-0.1,0-0.2c0-0.1,0-0.1-0.3-0.1h-0.4c-1.5,0-1.7,0.2-2.3,1.7
			c-0.1,0.2-0.1,0.2-0.2,0.2c-0.1,0-0.1-0.1-0.1-0.1c0,0,0-0.2,0.1-0.2l0.6-1.8c0.1-0.2,0.1-0.2,0.3-0.2h5.5c0.2,0,0.3,0,0.3,0.1
			c0,0,0,0.1,0,0.2l-0.3,1.7c0,0.1,0,0.2-0.1,0.2c-0.1,0-0.1-0.1-0.1-0.1c0,0,0-0.2,0-0.2c0-0.3,0.1-0.6,0.1-0.8
			c0-0.8-0.4-0.8-1.5-0.8c-0.2,0-0.5,0-0.6,0c-0.1,0-0.2,0.1-0.2,0.4L167.4,44.7z"/>
	</g>
	<polygon class="st1" points="157.5,42.1 157.5,49.2 178.7,49.2 178.7,35.1 157.5,35.1 	"/>
	<polyline points="152.9,44.4 157.5,42.1 152.9,39.9 154.1,42.1 	"/>
	<line class="st1" x1="150.4" y1="42.1" x2="154.1" y2="42.1"/>
	<g>
		<path class="st2" d="M185.8,24.1c-1.8,0-3.3-1.5-3.3-3.3c0-1.8,1.5-3.3,3.3-3.3c1.8,0,3.3,1.5,3.3,3.3
			C189.2,22.6,187.7,24.1,185.8,24.1z M185.7,20.7v-2.9c-1.6,0.1-2.8,1.3-2.9,2.9H185.7z M185.7,20.9h-2.9c0.1,1.7,1.4,2.9,2.9,2.9
			V20.9z M186,20.7h3c-0.1-1.7-1.4-2.9-3-2.9V20.7z M186,20.9v2.9c1.5-0.1,2.9-1.2,3-2.9H186z"/>
	</g>
	<polyline points="188.1,29 185.8,24.4 183.5,29 185.8,27.8 	"/>
	<line class="st1" x1="185.8" y1="42.1" x2="185.8" y2="27.8"/>
	<g>
		<path class="st2" d="M177.1,28.1v-0.6h2.6v0.6H177.1z"/>
	</g>
	<line class="st1" x1="178.7" y1="42.1" x2="185.8" y2="42.1"/>
	<polyline points="199,23.1 203.5,20.9 199,18.6 200.1,20.9 	"/>
	<path class="st1" d="M189.3,20.9l10.8,0 M210.6,20.9h21.3"/>
	<g>
		<path class="st2" d="M207.1,24.1c-1.8,0-3.3-1.5-3.3-3.3c0-1.8,1.5-3.3,3.3-3.3c1.8,0,3.3,1.5,3.3,3.3
			C210.4,22.6,208.9,24.1,207.1,24.1z M206.9,20.8l-2.1-2.1c-0.5,0.6-0.8,1.3-0.8,2.1c0,0.6,0.2,1.4,0.8,2.1L206.9,20.8z M207.1,21
			L205,23c0.8,0.8,1.7,0.8,2.1,0.8c1.3,0,2.1-0.8,2.1-0.8c0,0-0.1-0.1-0.1-0.1L207.1,21z M207.1,20.6l2.1-2.1
			c-0.8-0.8-1.7-0.8-2.1-0.8c-1.3,0-2.1,0.8-2.1,0.8c0,0,0.1,0.1,0.1,0.1L207.1,20.6z M207.3,20.8l2.1,2.1c0.5-0.6,0.8-1.3,0.8-2.1
			c0-0.8-0.3-1.6-0.8-2.1L207.3,20.8z"/>
	</g>
	<polyline points="209.3,29 207.1,24.4 204.8,29 207.1,27.8 	"/>
	<line class="st1" x1="207.1" y1="35.1" x2="207.1" y2="27.8"/>
	<g>
		<path class="st2" d="M202.6,43.8c0,0.4,0,0.5,0.9,0.5h0.3v0.3c-0.3,0-1.2,0-1.6,0s-1.3,0-1.6,0v-0.3h0.3c0.9,0,0.9-0.1,0.9-0.5
			v-5.2c-0.5,0.3-1.1,0.3-1.3,0.3v-0.3c0.3,0,1.2,0,1.8-0.6c0.2,0,0.2,0,0.2,0.3V43.8z"/>
	</g>
	<g>
		<path class="st2" d="M205.6,46.8c-0.1,0.2-0.1,0.2-0.2,0.2c-0.1,0-0.2-0.1-0.2-0.2c0,0,0,0,0-0.2l3.5-9.5c0-0.1,0.1-0.1,0.2-0.1
			c0.1,0,0.2,0.1,0.2,0.2c0,0,0,0,0,0.2L205.6,46.8z"/>
	</g>
	<g>
		<path class="st2" d="M212,44.8c-1.1,0-1.8-1-1.8-1.8c0-0.5,0.3-0.5,0.5-0.5c0.3,0,0.5,0.3,0.5,0.5s-0.2,0.5-0.5,0.5
			c-0.1,0-0.1,0-0.2,0c0.2,0.6,0.7,1.1,1.5,1.1c0.5,0,0.8-0.3,1.1-0.6c0.2-0.4,0.2-1,0.2-1.4c0-0.5,0-0.9-0.2-1.3
			c-0.1-0.2-0.3-0.6-0.8-0.6c-0.8,0-1.2,0.5-1.3,0.7c0,0.1-0.1,0.1-0.1,0.1c-0.1,0-0.1-0.1-0.1-0.3v-2.9c0-0.2,0-0.2,0.1-0.2
			c0,0,0,0,0.1,0c0.5,0.2,0.9,0.3,1.3,0.3c0.7,0,1.2-0.2,1.4-0.3c0,0,0.1,0,0.1,0c0.1,0,0.1,0.1,0.1,0.1c0,0.1-0.7,1-1.9,1
			c-0.3,0-0.6-0.1-0.8-0.1v1.9c0.4-0.3,0.8-0.5,1.3-0.5c1.1,0,1.9,1,1.9,2.2C214.2,43.8,213.2,44.8,212,44.8z"/>
	</g>
</g>
</svg>
