<?xml version="1.0" encoding="utf-8"?>
<!-- Generator: Adobe Illustrator 22.1.0, SVG Export Plug-In . SVG Version: 6.00 Build 0)  -->
<svg version="1.1" id="Layer_1" xmlns="http://www.w3.org/2000/svg" xmlns:xlink="http://www.w3.org/1999/xlink" x="0px" y="0px"
	 viewBox="0 0 209.9 192.2" style="enable-background:new 0 0 209.9 192.2;" xml:space="preserve">
<style type="text/css">
	.st0{fill:none;stroke:#FCFFFF;stroke-width:0.8504;stroke-miterlimit:10;}
	.st1{fill:#1D1D1B;}
	.st2{fill:none;stroke:#000000;stroke-width:0.8504;stroke-miterlimit:10;}
	.st3{fill:#FF0000;}
	.st4{fill:none;stroke:#000000;stroke-width:0.8504;stroke-linecap:round;stroke-miterlimit:10;stroke-dasharray:0,3.9921;}
	.st5{fill:#0000FF;}
</style>
<g>
	<polygon class="st0" points="0.4,96.1 0.4,191.8 209.5,191.8 209.5,0.4 0.4,0.4 	"/>
	<g>
		<path class="st1" d="M8.9,22.4c-0.1,0.4-0.2,0.7-0.2,0.9c0,0.3,0.2,0.7,0.5,0.7c0.3,0,1-0.2,1.3-1.3c0-0.1,0-0.1,0.1-0.1
			c0,0,0.1,0,0.1,0.1c0,0.2-0.6,1.5-1.6,1.5c-0.6,0-1-0.4-1.1-0.8c0,0.1-0.4,0.8-1,0.8c-0.4,0-0.9-0.2-0.9-0.7
			c0-0.3,0.2-0.6,0.5-0.6c0.1,0,0.4,0.1,0.4,0.3c0,0.3-0.2,0.5-0.5,0.5C6.9,24,7.1,24,7.2,24c0.4,0,0.8-0.4,0.9-1
			c0.4-1.4,0.5-2.1,0.5-2.4c0-0.6-0.3-0.7-0.5-0.7c-0.3,0-1,0.2-1.3,1.3c0,0.1-0.1,0.1-0.1,0.1c0,0-0.1,0-0.1-0.1
			c0-0.2,0.6-1.5,1.6-1.5c0.3,0,0.8,0.1,1.1,0.8c0.1-0.2,0.5-0.8,1-0.8c0.3,0,0.9,0.1,0.9,0.7c0,0.4-0.3,0.6-0.5,0.6
			c-0.3,0-0.4-0.2-0.4-0.3c0-0.2,0.2-0.5,0.5-0.5c-0.2-0.1-0.4-0.1-0.5-0.1c-0.7,0-0.9,0.9-1,1.2L8.9,22.4z"/>
	</g>
	<g>
		<path class="st1" d="M12.8,26.6v-10h1.4V17h-1v9.2h1v0.4H12.8z"/>
	</g>
	<g>
		<path class="st1" d="M15.8,21.2c0.1-0.5,0.2-0.6,0.2-0.8c0-0.3-0.1-0.5-0.3-0.5c-0.4,0-0.6,0.5-0.7,1.2c-0.1,0.2-0.1,0.2-0.2,0.2
			c0,0-0.1,0-0.1-0.1c0,0,0.1-0.6,0.3-1c0.1-0.2,0.3-0.6,0.7-0.6c0.5,0,0.9,0.3,0.9,0.9c0.2-0.2,0.7-0.9,1.6-0.9
			c0.7,0,1.1,0.4,1.1,1.1c0,0.6-0.4,1.7-0.6,2.2c-0.1,0.2-0.2,0.5-0.2,0.7c0,0.2,0.1,0.3,0.2,0.3c0.5,0,0.8-0.6,1-1.2
			c0-0.1,0-0.2,0.1-0.2c0,0,0.1,0,0.1,0.1c0,0.1-0.4,1.5-1.3,1.5c-0.5,0-0.8-0.3-0.8-0.8c0-0.1,0-0.2,0.1-0.5
			c0.2-0.4,0.6-1.7,0.6-2.3c0-0.3-0.1-0.7-0.5-0.7c-0.9,0-1.5,0.9-1.6,1.2c0,0-0.1,0.3-0.1,0.5c0,0.2-0.1,0.4-0.2,0.7L16,23.2
			c-0.1,0.2-0.2,0.7-0.2,0.7c-0.1,0.2-0.2,0.3-0.4,0.3c-0.1,0-0.3-0.1-0.3-0.3c0-0.1,0.1-0.3,0.1-0.4L15.8,21.2z"/>
	</g>
	<g>
		<path class="st1" d="M21.9,26.6h-1.4v-0.4h1V17h-1v-0.4h1.4V26.6z"/>
	</g>
	<polyline points="130.5,24 135.1,21.7 130.5,19.4 131.7,21.7 	"/>
	<line class="st2" x1="46.5" y1="21.7" x2="131.7" y2="21.7"/>
	<polyline points="34.9,24 39.4,21.7 34.9,19.4 36,21.7 	"/>
	<line class="st2" x1="25.2" y1="21.7" x2="36" y2="21.7"/>
	<g>
		<path class="st3" d="M34.3,2.9c1,0,1.5,0.5,1.8,0.9L36.6,3c0.1-0.1,0.1-0.1,0.2-0.1c0.1,0,0.1,0.1,0.1,0.2v2.4
			c0,0.2,0,0.2-0.2,0.2c-0.1,0-0.1,0-0.2-0.2c-0.2-1.5-1.1-2.4-2.2-2.4c-0.6,0-2.6,0.3-2.6,3.3c0,3,2,3.3,2.6,3.3
			c1.1,0,2.2-0.8,2.2-2.2c0-0.1,0-0.2,0.1-0.2c0.1,0,0.1,0.1,0.1,0.2c0,1.2-1,2.5-2.6,2.5c-1.9,0-3.5-1.6-3.5-3.6
			C30.8,4.5,32.4,2.9,34.3,2.9z"/>
		<path class="st3" d="M39.5,10c-0.6,0-1.6-0.2-1.6-1.1c0-0.4,0.2-1,1-1.3c0.6-0.3,1.3-0.3,1.8-0.4V7c0-0.9-0.6-1.3-1.1-1.3
			c-0.3,0-0.8,0.1-1.1,0.5c0.5,0,0.5,0.3,0.5,0.5c0,0.3-0.2,0.5-0.5,0.5c-0.3,0-0.5-0.2-0.5-0.5c0-0.7,0.7-1.1,1.5-1.1
			c0.5,0,1,0.2,1.4,0.5c0.4,0.4,0.4,0.8,0.4,1.2v2c0,0,0,0.5,0.4,0.5c0.1,0,0.4-0.1,0.4-0.6V8.5h0.2V9c0,0.8-0.6,0.9-0.8,0.9
			c-0.5,0-0.7-0.4-0.8-0.8C40.6,9.6,40.2,10,39.5,10z M38.7,9c0,0.5,0.4,0.8,0.9,0.8c0.4,0,1.2-0.3,1.2-1.3v-1
			C39.1,7.6,38.7,8.4,38.7,9z"/>
		<path class="st3" d="M42.8,5.9V5.6l1.4-0.1v1c0.3-0.6,0.7-1,1.5-1c0.6,0,0.9,0.2,1,0.4C47,6.2,47,6.6,47,7.4v1.9
			c0,0.3,0.3,0.3,0.8,0.3v0.3c-0.3,0-0.9,0-1.1,0c-0.3,0-0.8,0-1.1,0V9.6c0.7,0,0.8,0,0.8-0.4V6.8c0-0.6-0.1-1.1-0.7-1.1
			c-0.6,0-1.3,0.6-1.3,1.6v1.8c0,0.4,0.1,0.4,0.8,0.4v0.3c-0.3,0-0.9,0-1.1,0c-0.3,0-0.8,0-1.1,0V9.6c0.7,0,0.8,0,0.8-0.4V6.5
			C43.6,6,43.5,5.9,42.8,5.9z"/>
		<path class="st3" d="M50.5,10c-1.2,0-2.2-1-2.2-2.2c0-1.2,1-2.3,2.2-2.3c1.2,0,2.2,1.1,2.2,2.3C52.7,9.1,51.7,10,50.5,10z M51.6,9
			c0.2-0.4,0.2-1,0.2-1.3c0-0.4,0-1-0.3-1.4c-0.3-0.4-0.7-0.6-1.1-0.6c-0.4,0-0.9,0.2-1.1,0.7c-0.2,0.4-0.2,1-0.2,1.4
			c0,0.4,0,1,0.2,1.4c0.3,0.5,0.7,0.7,1.1,0.7C51,9.8,51.4,9.5,51.6,9z"/>
		<path class="st3" d="M53.3,5.9V5.6l1.4-0.1v1c0.3-0.6,0.7-1,1.5-1c0.6,0,0.9,0.2,1,0.4c0.3,0.4,0.3,0.7,0.3,1.5v1.9
			c0,0.3,0.3,0.3,0.8,0.3v0.3c-0.3,0-0.9,0-1.1,0c-0.3,0-0.8,0-1.1,0V9.6c0.7,0,0.8,0,0.8-0.4V6.8c0-0.6-0.1-1.1-0.7-1.1
			c-0.6,0-1.3,0.6-1.3,1.6v1.8c0,0.4,0.1,0.4,0.8,0.4v0.3c-0.3,0-0.9,0-1.1,0c-0.3,0-0.8,0-1.1,0V9.6c0.7,0,0.8,0,0.8-0.4V6.5
			C54.1,6,54,5.9,53.3,5.9z"/>
		<path class="st3" d="M60.3,9.2c0,0.4,0,0.4,0.7,0.4v0.3c-0.3,0-0.7,0-1,0c-0.2,0-0.8,0-1.1,0V9.6c0.7,0,0.8,0,0.8-0.4V6.5
			c0-0.5-0.1-0.5-0.7-0.5V5.6l1.4-0.1V9.2z M59.8,4.3c-0.3,0-0.5-0.3-0.5-0.5c0-0.3,0.2-0.5,0.5-0.5c0.3,0,0.5,0.2,0.5,0.5
			S60.1,4.3,59.8,4.3z"/>
	</g>
	<g>
		<path class="st3" d="M63.9,9.8c0.4,0,1-0.1,1.3-1c0-0.1,0-0.1,0.1-0.1c0,0,0.1,0,0.1,0.1S65.2,10,63.8,10c-1.2,0-2.1-1-2.1-2.3
			c0-1.2,0.9-2.3,2.2-2.3c0.8,0,1.5,0.4,1.5,1.1c0,0.3-0.2,0.5-0.5,0.5c-0.3,0-0.5-0.2-0.5-0.5c0-0.1,0.1-0.4,0.5-0.5
			c-0.3-0.4-1-0.4-1.1-0.4c-0.5,0-1.3,0.4-1.3,2C62.5,9.4,63.4,9.8,63.9,9.8z"/>
		<path class="st3" d="M71.9,5.6v0.3h-1.1v3.2c0,0.4,0,0.5,0.8,0.5h0.2v0.3c-0.4,0-0.9,0-1.3,0c-0.3,0-0.7,0-1.1,0V9.6
			c0.7,0,0.8,0,0.8-0.4V5.9h-0.8V5.6h0.8V4.5c0-1.1,0.8-1.6,1.5-1.6c0.5,0,0.9,0.3,0.9,0.7c0,0.2-0.1,0.4-0.4,0.4
			c-0.3,0-0.4-0.2-0.4-0.4c0-0.2,0.2-0.4,0.3-0.4c-0.1-0.1-0.3-0.1-0.3-0.1c-0.4,0-0.9,0.5-0.9,1.4v1.2H71.9z"/>
	</g>
	<g>
		<path class="st3" d="M74.5,10c-1.2,0-2.2-1-2.2-2.2c0-1.2,1-2.3,2.2-2.3c1.2,0,2.2,1.1,2.2,2.3C76.7,9.1,75.7,10,74.5,10z M75.7,9
			c0.2-0.4,0.2-1,0.2-1.3c0-0.4,0-1-0.3-1.4c-0.3-0.4-0.7-0.6-1.1-0.6c-0.4,0-0.9,0.2-1.1,0.7c-0.2,0.4-0.2,1-0.2,1.4
			c0,0.4,0,1,0.2,1.4c0.3,0.5,0.7,0.7,1.1,0.7C75,9.8,75.5,9.5,75.7,9z"/>
		<path class="st3" d="M80,5.5c0.4,0,0.7,0.3,0.7,0.6s-0.2,0.4-0.4,0.4c-0.2,0-0.4-0.1-0.4-0.4c0-0.3,0.2-0.4,0.2-0.4c0,0,0,0-0.1,0
			c-0.8,0-1.2,0.9-1.2,1.9v1.5c0,0.4,0,0.5,0.8,0.5h0.2v0.3c-0.4,0-0.9,0-1.3,0c-0.3,0-0.7,0-1.1,0V9.6c0.7,0,0.8,0,0.8-0.4V6.5
			c0-0.5-0.1-0.6-0.8-0.6V5.6l1.4-0.1v1.1C78.9,6.2,79.2,5.5,80,5.5z"/>
	</g>
	<g>
		<path class="st3" d="M81.4,5.9V5.6l1.4-0.1v1c0.3-0.6,0.7-1,1.5-1c0.4,0,1.2,0.1,1.3,1c0.2-0.4,0.6-1,1.4-1c0.6,0,0.9,0.2,1,0.4
			c0.3,0.4,0.3,0.7,0.3,1.5v1.9c0,0.3,0.3,0.3,0.8,0.3v0.3c-0.3,0-0.9,0-1.1,0c-0.3,0-0.8,0-1.1,0V9.6c0.7,0,0.8,0,0.8-0.4V6.8
			c0-0.6-0.1-1.1-0.7-1.1c-0.6,0-1.3,0.6-1.3,1.6v1.8c0,0.4,0.1,0.4,0.8,0.4v0.3c-0.3,0-0.9,0-1.1,0c-0.3,0-0.8,0-1.1,0V9.6
			c0.7,0,0.8,0,0.8-0.4V6.8c0-0.6-0.1-1.1-0.7-1.1c-0.6,0-1.3,0.6-1.3,1.6v1.8c0,0.4,0.1,0.4,0.8,0.4v0.3c-0.3,0-0.9,0-1.1,0
			c-0.3,0-0.8,0-1.1,0V9.6c0.7,0,0.8,0,0.8-0.4V6.5C82.1,6,82.1,5.9,81.4,5.9z"/>
		<path class="st3" d="M95.8,12.4c-0.1,0-1-0.6-1.6-1.9c-0.5-1.1-0.7-2.3-0.7-3.1c0-0.8,0.1-1.9,0.6-3c0.6-1.3,1.5-1.9,1.6-1.9
			c0.1,0,0.1,0,0.1,0.1c0,0,0,0-0.1,0.2c-1.2,1.2-1.6,3-1.6,4.7c0,1.5,0.3,3.4,1.6,4.7C95.9,12.3,95.9,12.3,95.8,12.4
			C95.9,12.4,95.8,12.4,95.8,12.4z"/>
	</g>
	<g>
		<path class="st3" d="M96.7,5.9V5.6l1.4-0.1v1c0.3-0.6,0.7-1,1.5-1c0.4,0,1.2,0.1,1.3,1c0.2-0.4,0.6-1,1.4-1c0.6,0,0.9,0.2,1,0.4
			c0.3,0.4,0.3,0.7,0.3,1.5v1.9c0,0.3,0.3,0.3,0.8,0.3v0.3c-0.3,0-0.9,0-1.1,0c-0.3,0-0.8,0-1.1,0V9.6c0.7,0,0.8,0,0.8-0.4V6.8
			c0-0.6-0.1-1.1-0.7-1.1c-0.6,0-1.3,0.6-1.3,1.6v1.8c0,0.4,0.1,0.4,0.8,0.4v0.3c-0.3,0-0.9,0-1.1,0c-0.3,0-0.8,0-1.1,0V9.6
			c0.7,0,0.8,0,0.8-0.4V6.8c0-0.6-0.1-1.1-0.7-1.1c-0.6,0-1.3,0.6-1.3,1.6v1.8c0,0.4,0.1,0.4,0.8,0.4v0.3c-0.3,0-0.9,0-1.1,0
			c-0.3,0-0.8,0-1.1,0V9.6c0.7,0,0.8,0,0.8-0.4V6.5C97.5,6,97.4,5.9,96.7,5.9z"/>
		<path class="st3" d="M106.4,9.2c0,0.4,0,0.4,0.7,0.4v0.3c-0.3,0-0.7,0-1,0c-0.2,0-0.8,0-1.1,0V9.6c0.7,0,0.8,0,0.8-0.4V6.5
			c0-0.5-0.1-0.5-0.7-0.5V5.6l1.4-0.1V9.2z M106,4.3c-0.3,0-0.5-0.3-0.5-0.5c0-0.3,0.2-0.5,0.5-0.5c0.3,0,0.5,0.2,0.5,0.5
			S106.2,4.3,106,4.3z"/>
		<path class="st3" d="M107.7,5.9V5.6l1.4-0.1v1c0.3-0.6,0.7-1,1.5-1c0.6,0,0.9,0.2,1,0.4c0.3,0.4,0.3,0.7,0.3,1.5v1.9
			c0,0.3,0.3,0.3,0.8,0.3v0.3c-0.3,0-0.9,0-1.1,0c-0.3,0-0.8,0-1.1,0V9.6c0.7,0,0.8,0,0.8-0.4V6.8c0-0.6-0.1-1.1-0.7-1.1
			c-0.6,0-1.3,0.6-1.3,1.6v1.8c0,0.4,0.1,0.4,0.8,0.4v0.3c-0.3,0-0.9,0-1.1,0c-0.3,0-0.8,0-1.1,0V9.6c0.7,0,0.8,0,0.8-0.4V6.5
			C108.5,6,108.4,5.9,107.7,5.9z"/>
		<path class="st3" d="M114.7,9.2c0,0.4,0,0.4,0.7,0.4v0.3c-0.3,0-0.7,0-1,0c-0.2,0-0.8,0-1.1,0V9.6c0.7,0,0.8,0,0.8-0.4V6.5
			c0-0.5-0.1-0.5-0.7-0.5V5.6l1.4-0.1V9.2z M114.2,4.3c-0.3,0-0.5-0.3-0.5-0.5c0-0.3,0.2-0.5,0.5-0.5c0.3,0,0.5,0.2,0.5,0.5
			S114.5,4.3,114.2,4.3z"/>
	</g>
	<g>
		<path class="st3" d="M116,5.9V5.6l1.4-0.1v1c0.3-0.6,0.7-1,1.5-1c0.4,0,1.2,0.1,1.3,1c0.2-0.4,0.6-1,1.4-1c0.6,0,0.9,0.2,1,0.4
			c0.3,0.4,0.3,0.7,0.3,1.5v1.9c0,0.3,0.3,0.3,0.8,0.3v0.3c-0.3,0-0.9,0-1.1,0c-0.3,0-0.8,0-1.1,0V9.6c0.7,0,0.8,0,0.8-0.4V6.8
			c0-0.6-0.1-1.1-0.7-1.1c-0.6,0-1.3,0.6-1.3,1.6v1.8c0,0.4,0.1,0.4,0.8,0.4v0.3c-0.3,0-0.9,0-1.1,0c-0.3,0-0.8,0-1.1,0V9.6
			c0.7,0,0.8,0,0.8-0.4V6.8c0-0.6-0.1-1.1-0.7-1.1c-0.6,0-1.3,0.6-1.3,1.6v1.8c0,0.4,0.1,0.4,0.8,0.4v0.3c-0.3,0-0.9,0-1.1,0
			c-0.3,0-0.8,0-1.1,0V9.6c0.7,0,0.8,0,0.8-0.4V6.5C116.8,6,116.7,5.9,116,5.9z"/>
		<path class="st3" d="M126.4,10c-1.5,0-1.5-0.9-1.5-1.7V6.9c0-0.9,0-0.9-0.8-0.9V5.6l1.5-0.1v3.3c0,0.5,0,1,0.9,1
			c0.7,0,1.2-0.7,1.2-1.5V6.5c0-0.5-0.1-0.6-0.8-0.6V5.6l1.5-0.1v3.5c0,0.5,0.1,0.6,0.8,0.6v0.3l-1.4,0.1V9.1
			C127.4,9.8,126.9,10,126.4,10z"/>
	</g>
	<g>
		<path class="st3" d="M129.6,5.9V5.6l1.4-0.1v1c0.3-0.6,0.7-1,1.5-1c0.4,0,1.2,0.1,1.3,1c0.2-0.4,0.6-1,1.4-1c0.6,0,0.9,0.2,1,0.4
			c0.3,0.4,0.3,0.7,0.3,1.5v1.9c0,0.3,0.3,0.3,0.8,0.3v0.3c-0.3,0-0.9,0-1.1,0c-0.3,0-0.8,0-1.1,0V9.6c0.7,0,0.8,0,0.8-0.4V6.8
			c0-0.6-0.1-1.1-0.7-1.1c-0.6,0-1.3,0.6-1.3,1.6v1.8c0,0.4,0.1,0.4,0.8,0.4v0.3c-0.3,0-0.9,0-1.1,0c-0.3,0-0.8,0-1.1,0V9.6
			c0.7,0,0.8,0,0.8-0.4V6.8c0-0.6-0.1-1.1-0.7-1.1c-0.6,0-1.3,0.6-1.3,1.6v1.8c0,0.4,0.1,0.4,0.8,0.4v0.3c-0.3,0-0.9,0-1.1,0
			c-0.3,0-0.8,0-1.1,0V9.6c0.7,0,0.8,0,0.8-0.4V6.5C130.4,6,130.3,5.9,129.6,5.9z"/>
		<path class="st3" d="M145.3,11.6c0,0.1-0.1,0.2-0.2,0.2c-0.1,0-0.2-0.1-0.2-0.2c0,0,0-0.2,0-0.2l0.8-2.9h-1.9l-0.8,3
			c0,0.1-0.1,0.2-0.2,0.2c-0.1,0-0.2-0.1-0.2-0.2c0,0,0-0.2,0-0.2l0.8-2.9h-1.6c-0.1,0-0.3,0-0.3-0.2s0.2-0.2,0.3-0.2h1.7l0.4-1.5
			h-2.1c-0.1,0-0.3,0-0.3-0.2s0.2-0.2,0.3-0.2h2.2l0.8-3c0-0.1,0.1-0.2,0.2-0.2c0.1,0,0.2,0.1,0.2,0.2c0,0,0,0.2,0,0.2l-0.8,2.9h1.9
			l0.8-3c0-0.1,0.1-0.2,0.2-0.2c0.1,0,0.2,0.1,0.2,0.2c0,0,0,0.2,0,0.2l-0.8,2.9h1.6c0.1,0,0.3,0,0.3,0.2s-0.2,0.2-0.3,0.2h-1.7
			l-0.4,1.5h2.1c0.1,0,0.3,0,0.3,0.2s-0.2,0.2-0.3,0.2h-2.2L145.3,11.6z M145.8,8.2l0.4-1.5h-1.9l-0.4,1.5H145.8z"/>
		<path class="st3" d="M155,10c-1.1,0-2.1-1-2.1-2.3c0-1.3,1-2.3,2.2-2.3c0.5,0,1,0.3,1.3,0.6V4c0-0.5-0.1-0.6-0.8-0.6V3.1L157,3v6
			c0,0.5,0.1,0.6,0.8,0.6v0.3l-1.5,0.1V9.4C156.1,9.7,155.6,10,155,10z M156.2,6.3c-0.3-0.4-0.7-0.6-1.1-0.6c-0.5,0-0.9,0.3-1.1,0.6
			c-0.3,0.4-0.3,1-0.3,1.4c0,0.4,0,1,0.3,1.4c0.2,0.4,0.6,0.6,1,0.6c0.4,0,0.9-0.2,1.2-0.7c0.1-0.2,0.1-0.2,0.1-0.4v-2
			C156.3,6.5,156.3,6.5,156.2,6.3z"/>
	</g>
	<g>
		<path class="st3" d="M159.5,9.1c0.2,0.4,0.6,0.7,1.1,0.7c0.1,0,1,0,1.3-1c0-0.1,0-0.1,0.1-0.1c0,0,0.1,0,0.1,0.1
			c0,0.2-0.4,1.3-1.7,1.3c-1.1,0-2.2-1-2.2-2.3c0-1.2,0.9-2.3,2.1-2.3c1.2,0,1.8,1,1.8,2c0,0.2,0,0.2-0.2,0.2h-2.8
			C159.2,8,159.2,8.6,159.5,9.1z M161.5,7.4c0-0.4-0.1-1.7-1.1-1.7c-0.3,0-1.2,0.2-1.2,1.7H161.5z"/>
		<path class="st3" d="M164.3,9.2c0,0.4,0.1,0.4,0.8,0.4v0.3c-0.4,0-0.9,0-1.1,0s-0.8,0-1.1,0V9.6c0.7,0,0.8,0,0.8-0.4V4
			c0-0.5-0.1-0.6-0.8-0.6V3.1l1.4-0.1V9.2z"/>
	</g>
	<g>
		<path class="st3" d="M167.3,10c-0.6,0-1.6-0.2-1.6-1.1c0-0.4,0.2-1,1-1.3c0.6-0.3,1.3-0.3,1.8-0.4V7c0-0.9-0.6-1.3-1.1-1.3
			c-0.3,0-0.8,0.1-1.1,0.5c0.5,0,0.5,0.3,0.5,0.5c0,0.3-0.2,0.5-0.5,0.5c-0.3,0-0.5-0.2-0.5-0.5c0-0.7,0.7-1.1,1.5-1.1
			c0.5,0,1,0.2,1.4,0.5c0.4,0.4,0.4,0.8,0.4,1.2v2c0,0,0,0.5,0.4,0.5c0.1,0,0.4-0.1,0.4-0.6V8.5h0.2V9c0,0.8-0.6,0.9-0.8,0.9
			c-0.5,0-0.7-0.4-0.8-0.8C168.4,9.6,167.9,10,167.3,10z M166.4,9c0,0.5,0.4,0.8,0.9,0.8c0.4,0,1.2-0.3,1.2-1.3v-1
			C166.9,7.6,166.4,8.4,166.4,9z"/>
		<path class="st3" d="M172.4,10.8c-0.2,0.6-0.6,1.1-1.3,1.1c-0.5,0-0.9-0.4-0.9-0.8c0-0.3,0.2-0.4,0.4-0.4c0.2,0,0.4,0.2,0.4,0.4
			c0,0.2-0.1,0.4-0.4,0.4c0.2,0.2,0.4,0.2,0.5,0.2c0.6,0,0.9-0.7,1.1-1.2c0.1-0.1,0.2-0.5,0.2-0.6l-1.5-3.6
			c-0.1-0.3-0.3-0.3-0.8-0.3V5.6c0.3,0,0.7,0,1,0c0.2,0,0.8,0,1.1,0v0.3c-0.2,0-0.6,0-0.6,0.3c0,0,0,0.1,0.1,0.2l1.1,2.7l1-2.5
			c0-0.1,0.1-0.1,0.1-0.2c0-0.2-0.2-0.4-0.5-0.4V5.6c0.2,0,0.7,0,0.9,0c0.2,0,0.5,0,0.7,0v0.3c-0.2,0-0.7,0-0.9,0.6L172.4,10.8z"/>
	</g>
	<g>
		<path class="st3" d="M176.1,7.5c-0.3-0.2-0.4-0.5-0.4-0.8c0-0.6,0.4-1.2,1.6-1.2c0.1,0,0.6,0,0.9,0.3c0,0,0.1-0.1,0.2-0.2
			c0.1-0.1,0.1-0.1,0.2-0.1c0.1,0,0.1,0.1,0.1,0.2v1c0,0.2,0,0.2-0.1,0.2c0,0-0.1,0-0.1-0.1c0-0.3-0.1-1.2-1.2-1.2
			c-0.9,0-1.1,0.4-1.1,0.8c0,0.6,0.7,0.7,1.2,0.8c0.4,0.1,0.8,0.2,1.1,0.5c0.1,0.1,0.4,0.4,0.4,0.9c0,0.7-0.5,1.4-1.6,1.4
			c-0.2,0-0.7,0-1.1-0.4C176,9.8,176,9.8,176,9.8c-0.2,0.2-0.2,0.2-0.2,0.2c-0.1,0-0.1-0.1-0.1-0.2V8.5c0-0.2,0-0.2,0.1-0.2
			c0.1,0,0.1,0,0.1,0.2c0.2,0.8,0.5,1.4,1.4,1.4c0.8,0,1.1-0.4,1.1-0.9c0-0.7-0.8-0.9-1-0.9C176.7,7.8,176.4,7.8,176.1,7.5z"/>
		<path class="st3" d="M181.5,10.5c-0.6,1.3-1.5,1.9-1.6,1.9c-0.1,0-0.1,0-0.1-0.1c0,0,0-0.1,0.1-0.2c1.2-1.3,1.6-3,1.6-4.7
			c0-2.1-0.6-3.7-1.5-4.7c-0.2-0.2-0.2-0.2-0.2-0.2c0-0.1,0-0.1,0.1-0.1c0.1,0,1,0.6,1.6,1.9c0.5,1.1,0.7,2.3,0.7,3.1
			C182.2,8.3,182.1,9.4,181.5,10.5z"/>
	</g>
	<polyline points="82.9,54.9 78.4,57.1 82.9,59.4 81.8,57.1 	"/>
	<line class="st2" x1="81.8" y1="57.1" x2="106.7" y2="57.1"/>
	<polyline points="51,54.9 46.5,57.1 51,59.4 49.9,57.1 	"/>
	<line class="st2" x1="49.9" y1="57.1" x2="71.3" y2="57.1"/>
	<polyline points="82.9,118.6 78.4,120.9 82.9,123.2 81.8,120.9 	"/>
	<line class="st2" x1="81.8" y1="120.9" x2="106.7" y2="120.9"/>
	<polyline points="51,118.6 46.5,120.9 51,123.2 49.9,120.9 	"/>
	<line class="st2" x1="49.9" y1="120.9" x2="71.3" y2="120.9"/>
	<polyline points="82.9,154.1 78.4,156.3 82.9,158.6 81.8,156.3 	"/>
	<path class="st2" d="M81.8,156.3l24.9,0 M42.9,156.3h28.3"/>
	<polyline points="45.2,65.2 42.9,60.7 40.7,65.2 42.9,64.1 	"/>
	<line class="st2" x1="42.9" y1="74.8" x2="42.9" y2="64.1"/>
	<line class="st4" x1="42.9" y1="78.4" x2="42.9" y2="103.2"/>
	<polyline points="45.2,29.8 42.9,25.2 40.7,29.8 42.9,28.6 	"/>
	<line class="st2" x1="42.9" y1="53.6" x2="42.9" y2="28.6"/>
	<g>
		<path class="st1" d="M43,60.3c-1.8,0-3.3-1.5-3.3-3.3c0-1.8,1.5-3.3,3.3-3.3c1.8,0,3.3,1.5,3.3,3.3C46.3,58.8,44.8,60.3,43,60.3z
			 M42.8,56.9V54c-1.6,0.1-2.8,1.3-2.9,2.9H42.8z M42.8,57.1h-2.9c0.1,1.7,1.4,2.9,2.9,2.9V57.1z M43.1,56.9H46
			c-0.1-1.7-1.4-2.9-2.9-2.9V56.9z M43.1,57.1v2.9c1.5-0.1,2.8-1.2,2.9-2.9H43.1z"/>
	</g>
	<polyline points="45.2,111.3 42.9,106.7 40.7,111.3 42.9,110.1 	"/>
	<line class="st2" x1="42.9" y1="117.4" x2="42.9" y2="110.1"/>
	<g>
		<path class="st1" d="M43,124.1c-1.8,0-3.3-1.5-3.3-3.3c0-1.8,1.5-3.3,3.3-3.3c1.8,0,3.3,1.5,3.3,3.3
			C46.3,122.6,44.8,124.1,43,124.1z M42.8,120.7v-2.9c-1.6,0.1-2.8,1.3-2.9,2.9H42.8z M42.8,120.9h-2.9c0.1,1.7,1.4,2.9,2.9,2.9
			V120.9z M43.1,120.7H46c-0.1-1.7-1.4-2.9-2.9-2.9V120.7z M43.1,120.9v2.9c1.5-0.1,2.8-1.2,2.9-2.9H43.1z"/>
	</g>
	<polyline points="45.2,129 42.9,124.4 40.7,129 42.9,127.8 	"/>
	<line class="st2" x1="42.9" y1="156.3" x2="42.9" y2="127.8"/>
	<g>
		<path class="st1" d="M43,24.9c-1.8,0-3.3-1.5-3.3-3.3c0-1.8,1.5-3.3,3.3-3.3c1.8,0,3.3,1.5,3.3,3.3C46.3,23.4,44.8,24.9,43,24.9z
			 M42.8,21.5v-2.9c-1.6,0.1-2.8,1.3-2.9,2.9H42.8z M42.8,21.7h-2.9c0.1,1.7,1.4,2.9,2.9,2.9V21.7z M43.1,21.5H46
			c-0.1-1.7-1.4-2.9-2.9-2.9V21.5z M43.1,21.7v2.9c1.5-0.1,2.8-1.2,2.9-2.9H43.1z"/>
	</g>
	<g>
		<path class="st5" d="M7.5,110.3c-0.4,0-0.5,0-0.5,0.8v0.2H6.7v-5.6l2.2-0.3v0.2c-1.4,0.2-1.9,0.4-1.9,2v1.3c0,0.5,0.1,0.5,0.4,0.5
			h2.4v-0.9c0-1-0.3-1.1-1.2-1.1v-0.2h2.6v0.2c-0.8,0-1.2,0.1-1.2,1.1v0.9h2.7c0.3,0,0.4,0,0.4-0.5v-1.3c0-1.7-0.7-1.9-2.3-2.2v-0.2
			l2.6,0.4v5.7h-0.3v-0.2c0-0.8-0.1-0.8-0.5-0.8H7.5z"/>
		<path class="st5" d="M12.8,100.6c0.3-0.2,0.3-0.4,0.3-0.9h0.3c0,0.3,0,0.7,0,1c0,0.2,0,0.8,0,1.1h-0.3c0-0.3-0.2-0.4-0.2-0.4
			c-0.1,0-0.2,0.1-0.3,0.2l-1,0.8c0.7,0.6,1,0.9,1.3,0.9c0.1,0,0.3-0.1,0.3-0.3h0.3c0,0.2,0,0.7,0,0.9c0,0.3,0,0.6,0,0.8h-0.3
			c0-0.2,0-0.8-0.6-1.3l-1.2-0.9l-1.3,1c-0.6,0.5-0.6,0.5-0.6,1.2H9.2c0-0.3,0-0.7,0-0.9c0-0.2,0-0.8,0-1.1h0.3
			c0,0.2,0.1,0.3,0.2,0.3c0.1,0,0.1,0,0.2-0.1l1-0.8l-0.8-0.6c-0.1,0-0.2-0.1-0.3-0.1c-0.2,0-0.3,0.1-0.3,0.3H9.2c0-0.1,0-0.7,0-1
			c0-0.3,0-0.6,0-0.8h0.3c0,0.5,0.2,0.9,0.5,1.2c0.3,0.2,0.7,0.6,1.1,0.9L12.8,100.6z"/>
		<path class="st5" d="M13.6,97.5c0,0.6-0.2,1.6-1.1,1.6c-0.4,0-1-0.2-1.3-1c-0.3-0.6-0.3-1.3-0.4-1.8h-0.4c-0.9,0-1.3,0.6-1.3,1.1
			c0,0.3,0.1,0.8,0.5,1.1c0-0.5,0.3-0.5,0.5-0.5c0.3,0,0.5,0.2,0.5,0.5c0,0.3-0.2,0.5-0.5,0.5c-0.7,0-1.1-0.7-1.1-1.5
			c0-0.5,0.2-1,0.5-1.4c0.4-0.4,0.8-0.4,1.2-0.4h2c0,0,0.5,0,0.5-0.4c0-0.1-0.1-0.4-0.6-0.4H12v-0.2h0.6c0.8,0,0.9,0.6,0.9,0.8
			c0,0.5-0.4,0.7-0.8,0.8C13.2,96.4,13.6,96.9,13.6,97.5z M12.5,98.3c0.5,0,0.8-0.4,0.8-0.9c0-0.4-0.3-1.2-1.3-1.2h-1
			C11.1,97.9,11.9,98.3,12.5,98.3z"/>
		<path class="st5" d="M9.5,94.2H9.2L9,92.8h1c-0.6-0.3-1-0.7-1-1.5c0-0.4,0.1-1.2,1-1.3c-0.4-0.2-1-0.6-1-1.4c0-0.6,0.2-0.9,0.4-1
			c0.4-0.3,0.7-0.3,1.5-0.3h1.9c0.3,0,0.3-0.3,0.3-0.8h0.3c0,0.3,0,0.9,0,1.1c0,0.3,0,0.8,0,1.1h-0.3c0-0.7,0-0.8-0.4-0.8h-2.3
			c-0.6,0-1.1,0.1-1.1,0.7c0,0.6,0.6,1.3,1.6,1.3h1.8c0.4,0,0.4-0.1,0.4-0.8h0.3c0,0.3,0,0.9,0,1.1c0,0.3,0,0.8,0,1.1h-0.3
			c0-0.7,0-0.8-0.4-0.8h-2.3c-0.6,0-1.1,0.1-1.1,0.7c0,0.6,0.6,1.3,1.6,1.3h1.8c0.4,0,0.4-0.1,0.4-0.8h0.3c0,0.3,0,0.9,0,1.1
			c0,0.3,0,0.8,0,1.1h-0.3c0-0.7,0-0.8-0.4-0.8H10C9.5,93.4,9.5,93.5,9.5,94.2z"/>
		<path class="st5" d="M9,83.1C9,82,10,81,11.3,81c1.3,0,2.3,1,2.3,2.2c0,0.8-0.5,1.2-0.7,1.2H13h1.7c0.4,0,0.4-0.1,0.4-0.8h0.3
			c0,0.3,0,0.9,0,1.1c0,0.3,0,0.8,0,1.1h-0.3c0-0.7,0-0.8-0.4-0.8H10c-0.4,0-0.5,0.1-0.5,0.8H9.2L9,84.5h0.7C9.5,84.3,9,83.8,9,83.1
			z M12.7,84.3c0.4-0.3,0.6-0.6,0.6-1c0-0.7-0.8-1.4-2-1.4c-1.1,0-2,0.6-2,1.3c0,0.5,0.3,1,0.8,1.3h2.2
			C12.5,84.4,12.5,84.4,12.7,84.3z"/>
		<path class="st5" d="M12.7,78.8c0.4,0,0.4-0.1,0.4-0.8h0.3c0,0.4,0,0.9,0,1.1c0,0.2,0,0.8,0,1.1h-0.3c0-0.7,0-0.8-0.4-0.8H7.5
			C7,79.5,7,79.6,7,80.3H6.6l-0.1-1.4H12.7z"/>
	</g>
	<g>
		<path class="st5" d="M12.6,76.5c0.4-0.2,0.7-0.6,0.7-1.1c0-0.1,0-1-1-1.3c-0.1,0-0.1,0-0.1-0.1c0,0,0-0.1,0.1-0.1
			c0.2,0,1.3,0.4,1.3,1.7c0,1.1-1,2.2-2.3,2.2C10,77.6,9,76.7,9,75.6c0-1.2,1-1.8,2-1.8c0.2,0,0.2,0,0.2,0.2v2.8
			C11.5,76.8,12.2,76.8,12.6,76.5z M10.9,74.4c-0.4,0-1.7,0.1-1.7,1.1c0,0.3,0.2,1.2,1.7,1.2V74.4z"/>
	</g>
	<g>
		<path class="st5" d="M27.4,149.2c0.2,0,0.2,0,0.2,0.2c0,0.1,0,0.1-0.2,0.2l-5.9,2.5c-0.1,0-0.1,0-0.2,0.1l5.3,1.3
			c0.1,0,0.2,0,0.2,0c0.2,0,0.4-0.1,0.4-0.7c0-0.1,0-0.2,0.1-0.2c0.2,0,0.2,0.1,0.2,0.2c0,0.3,0,0.7,0,1c0,0.3,0,0.7,0,1
			c0,0.1,0,0.1-0.1,0.1c-0.2,0-0.2-0.1-0.2-0.2c0-0.8-0.3-1-0.7-1.1l-5.4-1.3c-0.1,0-0.1,0.6-0.1,0.7c0,0.2,0,0.3-0.1,0.3
			c-0.2,0-0.2-0.1-0.2-0.3v-1.3c0-0.2,0-0.2,0.2-0.3l5.2-2.2l-4.4-1.1c0,0-0.2,0-0.2,0c-0.2,0-0.4,0.1-0.4,0.7c0,0.1,0,0.2-0.1,0.2
			c-0.2,0-0.2-0.1-0.2-0.2c0-0.3,0-0.7,0-1c0-0.3,0-0.7,0-1c0-0.1,0.1-0.1,0.1-0.1c0.2,0,0.2,0.1,0.2,0.2c0,0.8,0.3,1,0.7,1.1
			L27.4,149.2z"/>
	</g>
	<g>
		<path class="st5" d="M24.4,142.5c0,0.1,0,0.3-0.2,0.3s-0.2-0.2-0.2-0.3v-6c0-0.1,0-0.3,0.2-0.3s0.2,0.2,0.2,0.3V142.5z
			 M26.3,142.5c0,0.1,0,0.3-0.2,0.3s-0.2-0.2-0.2-0.3v-5.9c0-0.1,0-0.3,0.2-0.3s0.2,0.2,0.2,0.3V142.5z"/>
	</g>
	<g>
		<path class="st5" d="M26.9,125.1c0.2,0,0.2,0,0.2,0c0.2,0,0.2-0.3,0.2-0.6c0-0.2,0-0.3,0.1-0.3c0.2,0,0.2,0.1,0.2,0.2
			c0,0.4,0,0.8,0,1.2c0,0.3,0,1,0,1.2c0,0,0,0.2-0.1,0.2c-0.2,0-0.2-0.1-0.2-0.3c0-0.8-0.1-0.8-0.5-0.9l-5.7-1.4v0l6.3,4
			c0.1,0,0.2,0.1,0.2,0.2c0,0.1-0.1,0.1-0.2,0.1l-6.2,0.9v0l5.4,1.4c0.1,0,0.2,0,0.2,0c0.2,0,0.4-0.1,0.4-0.7c0-0.1,0-0.2,0.1-0.2
			c0.2,0,0.2,0.1,0.2,0.2c0,0.3,0,0.7,0,1c0,0.3,0,0.7,0,1c0,0.1,0,0.1-0.1,0.1c-0.2,0-0.2-0.1-0.2-0.2c0-0.8-0.3-1-0.7-1.1
			l-5.1-1.3c-0.1,0-0.1,0-0.2,0c-0.1,0-0.1,0.1-0.2,0.2c0,0.1,0,0.3,0,0.4c0,0.2,0,0.3-0.1,0.3c-0.2,0-0.2-0.1-0.2-0.3v-1.4
			c0-0.3,0-0.3,0.2-0.3l5.6-0.8l-5.7-3.6c-0.2-0.1-0.2-0.1-0.2-0.4v-1.3c0-0.2,0-0.3,0.1-0.3c0.2,0,0.2,0.1,0.2,0.3
			c0,0.7,0.1,0.8,0.5,0.9L26.9,125.1z"/>
	</g>
	<g>
		<path class="st5" d="M30.1,115.6c0,0.1-0.6,1-1.9,1.6c-1.1,0.5-2.3,0.7-3.1,0.7c-0.8,0-1.9-0.1-3-0.6c-1.3-0.6-1.9-1.5-1.9-1.6
			c0-0.1,0-0.1,0.1-0.1c0,0,0,0,0.2,0.1c1.2,1.2,3,1.6,4.7,1.6c1.5,0,3.4-0.3,4.7-1.6C30,115.5,30,115.5,30.1,115.6
			C30.1,115.5,30.1,115.6,30.1,115.6z"/>
		<path class="st5" d="M29.3,110.6c0.1,0,0.2,0.1,0.2,0.2c0,0.1-0.1,0.2-0.2,0.2c0,0-0.2,0-0.2,0l-2.9-0.8v1.9l3,0.8
			c0.1,0,0.2,0.1,0.2,0.2c0,0.1-0.1,0.2-0.2,0.2c0,0-0.2,0-0.2,0l-2.9-0.8v1.6c0,0.1,0,0.3-0.2,0.3s-0.2-0.2-0.2-0.3v-1.7l-1.5-0.4
			v2.1c0,0.1,0,0.3-0.2,0.3s-0.2-0.2-0.2-0.3v-2.2l-3-0.8c-0.1,0-0.2-0.1-0.2-0.2c0-0.1,0.1-0.2,0.2-0.2c0,0,0.2,0,0.2,0l2.9,0.8
			v-1.9l-3-0.8c-0.1,0-0.2-0.1-0.2-0.2c0-0.1,0.1-0.2,0.2-0.2c0,0,0.2,0,0.2,0l2.9,0.8v-1.6c0-0.1,0-0.3,0.2-0.3s0.2,0.2,0.2,0.3
			v1.7l1.5,0.4v-2.1c0-0.1,0-0.3,0.2-0.3s0.2,0.2,0.2,0.3v2.2L29.3,110.6z M25.9,110.1l-1.5-0.4v1.9l1.5,0.4V110.1z"/>
	</g>
	<g>
		<path class="st5" d="M23.2,100.3c0-1.1,1-2.1,2.3-2.1c1.3,0,2.3,1,2.3,2.2c0,0.8-0.5,1.2-0.7,1.2h0.1h1.7c0.4,0,0.4-0.1,0.4-0.8
			h0.3c0,0.3,0,0.9,0,1.1c0,0.3,0,0.8,0,1.1h-0.3c0-0.7,0-0.8-0.4-0.8h-4.7c-0.4,0-0.5,0.1-0.5,0.8h-0.3l-0.1-1.4h0.7
			C23.7,101.4,23.2,101,23.2,100.3z M26.9,101.5c0.4-0.3,0.6-0.6,0.6-1c0-0.7-0.8-1.4-2-1.4c-1.1,0-2,0.6-2,1.3c0,0.5,0.3,1,0.8,1.3
			h2.2C26.7,101.6,26.7,101.6,26.9,101.5z"/>
		<path class="st5" d="M27.7,95.1c0,1.2-1,2.2-2.2,2.2c-1.2,0-2.3-1-2.3-2.2c0-1.2,1.1-2.2,2.3-2.2C26.8,92.9,27.7,93.9,27.7,95.1z
			 M26.8,94c-0.4-0.2-1-0.2-1.3-0.2c-0.4,0-1,0-1.4,0.3c-0.4,0.3-0.6,0.7-0.6,1.1c0,0.4,0.2,0.9,0.7,1.1c0.4,0.2,1,0.2,1.4,0.2
			c0.4,0,1,0,1.4-0.2c0.5-0.3,0.7-0.7,0.7-1.1C27.5,94.6,27.2,94.2,26.8,94z"/>
	</g>
	<g>
		<path class="st5" d="M26.9,90.8c0.4,0,0.4-0.1,0.4-0.8h0.3c0,0.4,0,0.9,0,1.1c0,0.2,0,0.8,0,1.1h-0.3c0-0.7,0-0.8-0.4-0.8h-5.2
			c-0.5,0-0.6,0.1-0.6,0.8h-0.3l-0.1-1.4H26.9z"/>
		<path class="st5" d="M26.8,88.4c0.4-0.2,0.7-0.6,0.7-1.1c0-0.1,0-1-1-1.3c-0.1,0-0.1,0-0.1-0.1c0,0,0-0.1,0.1-0.1
			c0.2,0,1.3,0.4,1.3,1.7c0,1.1-1,2.2-2.3,2.2c-1.2,0-2.3-0.9-2.3-2.1c0-1.2,1-1.8,2-1.8c0.2,0,0.2,0,0.2,0.2v2.8
			C25.7,88.7,26.3,88.7,26.8,88.4z M25.1,86.3c-0.4,0-1.7,0.1-1.7,1.1c0,0.3,0.2,1.2,1.7,1.2V86.3z"/>
	</g>
	<g>
		<path class="st5" d="M25.2,84.6C25,84.9,24.7,85,24.4,85c-0.6,0-1.2-0.4-1.2-1.6c0-0.1,0-0.6,0.3-0.9c0,0-0.1-0.1-0.2-0.2
			c-0.1-0.1-0.1-0.1-0.1-0.2c0-0.1,0.1-0.1,0.2-0.1h1c0.2,0,0.2,0,0.2,0.1c0,0,0,0.1-0.1,0.1c-0.3,0-1.2,0.1-1.2,1.2
			c0,0.9,0.4,1.1,0.8,1.1c0.6,0,0.7-0.7,0.8-1.2c0.1-0.4,0.2-0.8,0.5-1.1c0.1-0.1,0.4-0.4,0.9-0.4c0.7,0,1.4,0.5,1.4,1.6
			c0,0.2,0,0.7-0.4,1.1c0.2,0.2,0.2,0.2,0.2,0.2c0.2,0.2,0.2,0.2,0.2,0.2c0,0.1-0.1,0.1-0.2,0.1h-1.3c-0.2,0-0.2,0-0.2-0.1
			c0-0.1,0-0.1,0.2-0.1c0.8-0.2,1.4-0.5,1.4-1.4c0-0.8-0.4-1.1-0.9-1.1c-0.7,0-0.9,0.8-0.9,1C25.6,84,25.5,84.3,25.2,84.6z"/>
		<path class="st5" d="M24.4,77.3c0,0.1,0,0.3-0.2,0.3S24,77.4,24,77.3v-6c0-0.1,0-0.3,0.2-0.3s0.2,0.2,0.2,0.3V77.3z M26.3,77.3
			c0,0.1,0,0.3-0.2,0.3s-0.2-0.2-0.2-0.3v-5.9c0-0.1,0-0.3,0.2-0.3s0.2,0.2,0.2,0.3V77.3z"/>
		<path class="st5" d="M29.3,62.8c0.1,0,0.2,0.1,0.2,0.2c0,0.1-0.1,0.2-0.2,0.2c0,0-0.2,0-0.2,0l-2.9-0.8v1.9l3,0.8
			c0.1,0,0.2,0.1,0.2,0.2c0,0.1-0.1,0.2-0.2,0.2c0,0-0.2,0-0.2,0l-2.9-0.8v1.6c0,0.1,0,0.3-0.2,0.3s-0.2-0.2-0.2-0.3v-1.7l-1.5-0.4
			v2.1c0,0.1,0,0.3-0.2,0.3S24,66.4,24,66.3V64l-3-0.8c-0.1,0-0.2-0.1-0.2-0.2c0-0.1,0.1-0.2,0.2-0.2c0,0,0.2,0,0.2,0l2.9,0.8v-1.9
			l-3-0.8c-0.1,0-0.2-0.1-0.2-0.2c0-0.1,0.1-0.2,0.2-0.2c0,0,0.2,0,0.2,0l2.9,0.8v-1.6c0-0.1,0-0.3,0.2-0.3s0.2,0.2,0.2,0.3v1.7
			l1.5,0.4v-2.1c0-0.1,0-0.3,0.2-0.3s0.2,0.2,0.2,0.3V62L29.3,62.8z M25.9,62.3l-1.5-0.4v1.9l1.5,0.4V62.3z"/>
	</g>
	<g>
		<path class="st5" d="M27.4,54.4v-1.2c0-1.2-0.4-1.4-1.6-1.5v-0.2l1.9,0.2v3.3c0,0.2,0,0.3-0.1,0.3c0,0-0.1,0-0.2-0.1l-3.8-2.8v1.1
			c0,1.1,0.4,1.3,1.4,1.3v0.2L23.3,55v-3.2c0-0.2,0-0.3,0.1-0.3c0,0,0.1,0,0.2,0.1L27.4,54.4z"/>
		<path class="st5" d="M26.8,49.6c0.4-0.2,0.7-0.6,0.7-1.1c0-0.1,0-1-1-1.3c-0.1,0-0.1,0-0.1-0.1c0,0,0-0.1,0.1-0.1
			c0.2,0,1.3,0.4,1.3,1.7c0,1.1-1,2.2-2.3,2.2c-1.2,0-2.3-0.9-2.3-2.1c0-1.2,1-1.8,2-1.8c0.2,0,0.2,0,0.2,0.2v2.8
			C25.7,49.9,26.3,49.9,26.8,49.6z M25.1,47.6c-0.4,0-1.7,0.1-1.7,1.1c0,0.3,0.2,1.2,1.7,1.2V47.6z"/>
		<path class="st5" d="M23.2,43.7c0-0.4,0.3-0.7,0.6-0.7s0.4,0.2,0.4,0.4c0,0.2-0.1,0.4-0.4,0.4c-0.3,0-0.4-0.2-0.4-0.2
			c0,0,0,0,0,0.1c0,0.8,0.9,1.2,1.9,1.2h1.5c0.4,0,0.5,0,0.5-0.8v-0.2h0.3c0,0.4,0,0.9,0,1.3c0,0.3,0,0.7,0,1.1h-0.3
			c0-0.7,0-0.8-0.4-0.8h-2.7c-0.5,0-0.6,0.1-0.6,0.8h-0.3l-0.1-1.4h1.1C23.9,44.8,23.2,44.4,23.2,43.7z"/>
		<path class="st5" d="M27.7,40.2c0,1.2-1,2.2-2.2,2.2c-1.2,0-2.3-1-2.3-2.2c0-1.2,1.1-2.2,2.3-2.2C26.8,38,27.7,39,27.7,40.2z
			 M26.8,39c-0.4-0.2-1-0.2-1.3-0.2c-0.4,0-1,0-1.4,0.3c-0.4,0.3-0.6,0.7-0.6,1.1c0,0.4,0.2,0.9,0.7,1.1c0.4,0.2,1,0.2,1.4,0.2
			c0.4,0,1,0,1.4-0.2c0.5-0.3,0.7-0.7,0.7-1.1C27.5,39.7,27.2,39.2,26.8,39z"/>
		<path class="st5" d="M25.2,36.9c-0.2,0.3-0.5,0.4-0.8,0.4c-0.6,0-1.2-0.4-1.2-1.6c0-0.1,0-0.6,0.3-0.9c0,0-0.1-0.1-0.2-0.2
			c-0.1-0.1-0.1-0.1-0.1-0.2c0-0.1,0.1-0.1,0.2-0.1h1c0.2,0,0.2,0,0.2,0.1c0,0,0,0.1-0.1,0.1c-0.3,0-1.2,0.1-1.2,1.2
			c0,0.9,0.4,1.1,0.8,1.1c0.6,0,0.7-0.7,0.8-1.2c0.1-0.4,0.2-0.8,0.5-1.1c0.1-0.1,0.4-0.4,0.9-0.4c0.7,0,1.4,0.5,1.4,1.6
			c0,0.2,0,0.7-0.4,1.1c0.2,0.2,0.2,0.2,0.2,0.2c0.2,0.2,0.2,0.2,0.2,0.2c0,0.1-0.1,0.1-0.2,0.1h-1.3c-0.2,0-0.2,0-0.2-0.1
			c0-0.1,0-0.1,0.2-0.1c0.8-0.2,1.4-0.5,1.4-1.4c0-0.8-0.4-1.1-0.9-1.1c-0.7,0-0.9,0.8-0.9,1C25.6,36.3,25.5,36.6,25.2,36.9z"/>
	</g>
	<g>
		<path class="st5" d="M28.2,31.4c1.3,0.6,1.9,1.5,1.9,1.6c0,0.1,0,0.1-0.1,0.1c0,0-0.1,0-0.2-0.1c-1.3-1.2-3-1.6-4.7-1.6
			c-2.1,0-3.7,0.6-4.7,1.5c-0.2,0.2-0.2,0.2-0.2,0.2c-0.1,0-0.1,0-0.1-0.1c0-0.1,0.6-1,1.9-1.6c1.1-0.5,2.3-0.7,3.1-0.7
			C26,30.8,27.1,30.9,28.2,31.4z"/>
	</g>
	<g>
		<path class="st1" d="M74.9,60.3c-1.8,0-3.3-1.5-3.3-3.3c0-1.8,1.5-3.3,3.3-3.3c1.8,0,3.3,1.5,3.3,3.3
			C78.2,58.8,76.7,60.3,74.9,60.3z M74.7,57l-2.1-2.1c-0.5,0.6-0.8,1.3-0.8,2.1c0,0.6,0.2,1.4,0.8,2.1L74.7,57z M74.9,57.2l-2.1,2.1
			c0.8,0.8,1.7,0.8,2.1,0.8c1.3,0,2.1-0.8,2.1-0.8c0,0-0.1-0.1-0.1-0.1L74.9,57.2z M74.9,56.9l2.1-2.1C76.1,54,75.2,54,74.9,54
			c-1.3,0-2.1,0.8-2.1,0.8c0,0,0.1,0.1,0.1,0.1L74.9,56.9z M75,57l2.1,2.1c0.5-0.6,0.8-1.3,0.8-2.1c0-0.8-0.3-1.6-0.8-2.1L75,57z"/>
	</g>
	<g>
		<path class="st1" d="M74,75.6c0.2,0,0.3,0.1,0.3,0.3c0,0,0,0.1-0.1,0.3l-0.4,1.4c-0.1,0.4-0.1,0.5-0.2,0.9
			c-0.1,0.4-0.1,0.5-0.1,0.7c0,0.2,0,0.5,0.3,0.5c0.4,0,0.6-0.6,0.8-1.2c0-0.1,0-0.2,0.1-0.2c0,0,0.1,0,0.1,0.1c0,0-0.1,0.6-0.3,1
			c-0.2,0.3-0.4,0.5-0.7,0.5c-0.5,0-0.8-0.3-0.9-0.7c-0.6,0.7-1.1,0.7-1.3,0.7c-0.8,0-1.3-0.7-1.3-1.6c0-1.5,1.2-2.9,2.4-2.9
			c0.4,0,0.7,0.3,0.9,0.6C73.7,75.8,73.8,75.6,74,75.6z M73.5,76.7c0,0,0-0.1,0-0.2c0-0.1-0.1-0.9-0.8-0.9c-0.4,0-0.8,0.4-1.2,1
			C71.3,77,71,78.3,71,78.8c0,0.4,0.1,0.9,0.6,0.9c0.3,0,0.7-0.2,1.1-0.7c0.1-0.2,0.1-0.2,0.2-0.4L73.5,76.7z"/>
	</g>
	<g>
		<path class="st1" d="M77.5,80.7c0,0.2,0,0.3,0.7,0.3h0.3v0.3c-0.2,0-1,0-1.2,0c-0.3,0-1.1,0-1.2,0V81h0.3c0.7,0,0.7-0.1,0.7-0.3
			v-3.6c-0.4,0.2-0.8,0.2-1,0.2v-0.3c0.3,0,0.9,0,1.4-0.4c0.2,0,0.2,0,0.2,0.2V80.7z"/>
	</g>
	<polyline points="77.1,65.2 74.8,60.7 72.6,65.2 74.8,64.1 	"/>
	<line class="st2" x1="74.8" y1="71.3" x2="74.8" y2="64.1"/>
	<g>
		<path class="st1" d="M74.9,124.1c-1.8,0-3.3-1.5-3.3-3.3c0-1.8,1.5-3.3,3.3-3.3c1.8,0,3.3,1.5,3.3,3.3
			C78.2,122.6,76.7,124.1,74.9,124.1z M74.7,120.8l-2.1-2.1c-0.5,0.6-0.8,1.3-0.8,2.1c0,0.6,0.2,1.4,0.8,2.1L74.7,120.8z M74.9,121
			l-2.1,2.1c0.8,0.8,1.7,0.8,2.1,0.8c1.3,0,2.1-0.8,2.1-0.8c0,0-0.1-0.1-0.1-0.1L74.9,121z M74.9,120.6l2.1-2.1
			c-0.8-0.8-1.7-0.8-2.1-0.8c-1.3,0-2.1,0.8-2.1,0.8c0,0,0.1,0.1,0.1,0.1L74.9,120.6z M75,120.8l2.1,2.1c0.5-0.6,0.8-1.3,0.8-2.1
			c0-0.8-0.3-1.6-0.8-2.1L75,120.8z"/>
	</g>
	<g>
		<path class="st1" d="M67.4,138.9c0.2,0,0.3,0.1,0.3,0.3c0,0,0,0.1-0.1,0.3l-0.4,1.4c-0.1,0.4-0.1,0.5-0.2,0.9
			c-0.1,0.4-0.1,0.5-0.1,0.7c0,0.2,0,0.5,0.3,0.5c0.4,0,0.6-0.6,0.8-1.2c0-0.1,0-0.2,0.1-0.2c0,0,0.1,0,0.1,0.1c0,0-0.1,0.6-0.3,1
			c-0.2,0.3-0.4,0.5-0.7,0.5c-0.5,0-0.8-0.3-0.9-0.7c-0.6,0.7-1.1,0.7-1.3,0.7c-0.8,0-1.3-0.7-1.3-1.6c0-1.5,1.2-2.9,2.4-2.9
			c0.4,0,0.7,0.3,0.9,0.6C67.1,139.1,67.2,138.9,67.4,138.9z M66.9,140c0,0,0-0.1,0-0.2c0-0.1-0.1-0.9-0.8-0.9c-0.4,0-0.8,0.4-1.2,1
			c-0.2,0.5-0.5,1.7-0.5,2.2c0,0.4,0.1,0.9,0.6,0.9c0.3,0,0.7-0.2,1.1-0.7c0.1-0.2,0.1-0.2,0.2-0.4L66.9,140z"/>
	</g>
	<g>
		<path class="st1" d="M73.4,144.4c0,0.1,0,0.1-0.1,0.1c-0.1,0-0.1,0-0.2-0.1l-2-4.2l-0.9,3.6c0,0.1,0,0.1,0,0.2
			c0,0.1,0,0.3,0.4,0.3c0.1,0,0.2,0,0.2,0.1c0,0.1-0.1,0.1-0.1,0.1c-0.2,0-0.6,0-0.7,0c-0.2,0-0.5,0-0.7,0c0,0-0.1,0-0.1-0.1
			c0-0.1,0.1-0.1,0.1-0.1c0.5,0,0.7-0.2,0.7-0.5l0.9-3.7c-0.1,0-0.3,0-0.4,0s-0.2,0-0.2-0.1c0-0.2,0.1-0.2,0.2-0.2h1
			c0.2,0,0.2,0,0.2,0.1l1.8,3.6l0.8-3c0-0.1,0-0.1,0-0.2c0-0.2-0.1-0.3-0.4-0.3c-0.1,0-0.2,0-0.2-0.1c0-0.2,0.1-0.2,0.1-0.2
			c0.2,0,0.6,0,0.7,0c0.2,0,0.5,0,0.7,0c0.1,0,0.1,0.1,0.1,0.1c0,0.1-0.1,0.2-0.1,0.2c-0.6,0-0.7,0.2-0.7,0.5L73.4,144.4z"/>
	</g>
	<g>
		<path class="st1" d="M76.7,143c-0.1,0-0.3,0-0.3-0.2c0-0.2,0.2-0.2,0.3-0.2h4.2c0.1,0,0.3,0,0.3,0.2c0,0.2-0.2,0.2-0.3,0.2H76.7z"
			/>
	</g>
	<g>
		<path class="st1" d="M85.2,144.6h-2.9c0-0.2,0-0.2,0.1-0.3l1.7-1.7c0.2-0.3,0.7-0.7,0.7-1.3c0-0.6-0.4-1.1-1.1-1.1
			c-0.3,0-0.8,0.2-1,0.6c0.4,0,0.4,0.2,0.4,0.4c0,0.3-0.2,0.4-0.4,0.4c-0.1,0-0.4,0-0.4-0.4c0-0.6,0.6-1.2,1.5-1.2
			c0.9,0,1.6,0.5,1.6,1.4c0,0.7-0.5,1.1-1,1.5c-0.4,0.3-0.7,0.5-1.4,1.2h1.3c0.1,0,0.6,0,0.7,0c0.1-0.1,0.2-0.5,0.2-0.6h0.2
			L85.2,144.6z"/>
	</g>
	<polyline points="77.1,129 74.8,124.4 72.6,129 74.8,127.8 	"/>
	<line class="st2" x1="74.8" y1="135.1" x2="74.8" y2="127.8"/>
	<g>
		<path class="st1" d="M74.9,159.6c-1.8,0-3.3-1.5-3.3-3.3c0-1.8,1.5-3.3,3.3-3.3c1.8,0,3.3,1.5,3.3,3.3
			C78.2,158,76.7,159.6,74.9,159.6z M74.7,156.2l-2.1-2.1c-0.5,0.6-0.8,1.3-0.8,2.1c0,0.6,0.2,1.4,0.8,2.1L74.7,156.2z M74.9,156.4
			l-2.1,2.1c0.8,0.8,1.7,0.8,2.1,0.8c1.3,0,2.1-0.8,2.1-0.8c0,0-0.1-0.1-0.1-0.1L74.9,156.4z M74.9,156.1l2.1-2.1
			c-0.8-0.8-1.7-0.8-2.1-0.8c-1.3,0-2.1,0.8-2.1,0.8c0,0,0.1,0.1,0.1,0.1L74.9,156.1z M75,156.2l2.1,2.1c0.5-0.6,0.8-1.3,0.8-2.1
			c0-0.8-0.3-1.6-0.8-2.1L75,156.2z"/>
	</g>
	<g>
		<path class="st1" d="M67.4,174.3c0.2,0,0.3,0.1,0.3,0.3c0,0,0,0.1-0.1,0.3l-0.4,1.4c-0.1,0.4-0.1,0.5-0.2,0.9
			c-0.1,0.4-0.1,0.5-0.1,0.7c0,0.2,0,0.5,0.3,0.5c0.4,0,0.6-0.6,0.8-1.2c0-0.1,0-0.2,0.1-0.2c0,0,0.1,0,0.1,0.1c0,0-0.1,0.6-0.3,1
			c-0.2,0.3-0.4,0.5-0.7,0.5c-0.5,0-0.8-0.3-0.9-0.7c-0.6,0.7-1.1,0.7-1.3,0.7c-0.8,0-1.3-0.7-1.3-1.6c0-1.5,1.2-2.9,2.4-2.9
			c0.4,0,0.7,0.3,0.9,0.6C67.1,174.6,67.2,174.3,67.4,174.3z M66.9,175.4c0,0,0-0.1,0-0.2c0-0.1-0.1-0.9-0.8-0.9
			c-0.4,0-0.8,0.4-1.2,1c-0.2,0.5-0.5,1.7-0.5,2.2c0,0.4,0.1,0.9,0.6,0.9c0.3,0,0.7-0.2,1.1-0.7c0.1-0.2,0.1-0.2,0.2-0.4L66.9,175.4
			z"/>
	</g>
	<g>
		<path class="st1" d="M73.4,179.9c0,0.1,0,0.1-0.1,0.1c-0.1,0-0.1,0-0.2-0.1l-2-4.2l-0.9,3.6c0,0.1,0,0.1,0,0.2
			c0,0.1,0,0.3,0.4,0.3c0.1,0,0.2,0,0.2,0.1c0,0.1-0.1,0.1-0.1,0.1c-0.2,0-0.6,0-0.7,0c-0.2,0-0.5,0-0.7,0c0,0-0.1,0-0.1-0.1
			c0-0.1,0.1-0.1,0.1-0.1c0.5,0,0.7-0.2,0.7-0.5l0.9-3.7c-0.1,0-0.3,0-0.4,0s-0.2,0-0.2-0.1c0-0.2,0.1-0.2,0.2-0.2h1
			c0.2,0,0.2,0,0.2,0.1l1.8,3.6l0.8-3c0-0.1,0-0.1,0-0.2c0-0.2-0.1-0.3-0.4-0.3c-0.1,0-0.2,0-0.2-0.1c0-0.2,0.1-0.2,0.1-0.2
			c0.2,0,0.6,0,0.7,0c0.2,0,0.5,0,0.7,0c0.1,0,0.1,0.1,0.1,0.1c0,0.1-0.1,0.2-0.1,0.2c-0.6,0-0.7,0.2-0.7,0.5L73.4,179.9z"/>
	</g>
	<g>
		<path class="st1" d="M76.7,178.4c-0.1,0-0.3,0-0.3-0.2c0-0.2,0.2-0.2,0.3-0.2h4.2c0.1,0,0.3,0,0.3,0.2c0,0.2-0.2,0.2-0.3,0.2H76.7
			z"/>
	</g>
	<g>
		<path class="st1" d="M84.2,179.4c0,0.2,0,0.3,0.7,0.3h0.3v0.3c-0.2,0-1,0-1.2,0c-0.3,0-1.1,0-1.2,0v-0.3H83c0.7,0,0.7-0.1,0.7-0.3
			v-3.6c-0.4,0.2-0.8,0.2-1,0.2v-0.3c0.3,0,0.9,0,1.4-0.4c0.2,0,0.2,0,0.2,0.2V179.4z"/>
	</g>
	<polyline points="77.1,164.4 74.8,159.9 72.6,164.4 74.8,163.3 	"/>
	<line class="st2" x1="74.8" y1="170.5" x2="74.8" y2="163.3"/>
	<polyline points="183.7,24 188.2,21.7 183.7,19.4 184.8,21.7 	"/>
	<line class="st2" x1="174" y1="21.7" x2="184.8" y2="21.7"/>
	<g>
		<path class="st1" d="M194.3,24.1c-0.3,1.1-1.3,2-2.3,2c-0.6,0-1.1-0.4-1.1-0.9c0-0.5,0.3-0.6,0.6-0.6c0.1,0,0.4,0,0.4,0.3
			c0,0.2-0.1,0.3-0.2,0.4c-0.1,0.1-0.3,0.1-0.4,0.1c0.2,0.4,0.6,0.4,0.8,0.4c0.5,0,0.8-0.3,1.1-0.6c0.4-0.5,0.5-1,0.6-1.5
			c-0.3,0.3-0.6,0.4-1,0.4c-0.6,0-1.2-0.3-1.2-1.2c0-0.5,0.2-1,0.6-2.1c0.1-0.2,0.2-0.4,0.2-0.7c0-0.3-0.2-0.3-0.2-0.3
			c-0.3,0-0.7,0.3-1,1.2c0,0.2-0.1,0.2-0.2,0.2c0,0-0.1,0-0.1-0.1c0-0.1,0.4-1.5,1.3-1.5c0.5,0,0.8,0.4,0.8,0.8c0,0.2,0,0.3-0.2,0.7
			c-0.3,0.9-0.5,1.5-0.5,2c0,0.4,0.1,0.8,0.6,0.8c0.7,0,1.1-0.7,1.1-0.8l0.4-1.8c0.1-0.3,0.1-0.5,0.2-0.8c0-0.2,0.1-0.5,0.1-0.5
			c0.1-0.1,0.2-0.2,0.3-0.2c0.1,0,0.3,0.1,0.3,0.3c0,0.1,0,0.1,0,0.2L194.3,24.1z"/>
	</g>
	<g>
		<path class="st1" d="M196.9,26.6v-10h1.4V17h-1v9.2h1v0.4H196.9z"/>
	</g>
	<g>
		<path class="st1" d="M199.9,21.2c0.1-0.5,0.2-0.6,0.2-0.8c0-0.3-0.1-0.5-0.3-0.5c-0.4,0-0.6,0.5-0.7,1.2c-0.1,0.2-0.1,0.2-0.2,0.2
			c0,0-0.1,0-0.1-0.1c0,0,0.1-0.6,0.3-1c0.1-0.2,0.3-0.6,0.7-0.6c0.5,0,0.9,0.3,0.9,0.9c0.2-0.2,0.7-0.9,1.6-0.9
			c0.7,0,1.1,0.4,1.1,1.1c0,0.6-0.4,1.7-0.6,2.2c-0.1,0.2-0.2,0.5-0.2,0.7c0,0.2,0.1,0.3,0.2,0.3c0.5,0,0.8-0.6,1-1.2
			c0.1-0.1,0.1-0.2,0.2-0.2c0,0,0.1,0,0.1,0.1c0,0.1-0.4,1.5-1.3,1.5c-0.5,0-0.8-0.3-0.8-0.8c0-0.1,0-0.2,0.1-0.5
			c0.2-0.4,0.6-1.7,0.6-2.3c0-0.3-0.1-0.7-0.5-0.7c-0.9,0-1.5,0.9-1.6,1.2c0,0-0.1,0.3-0.1,0.5c0,0.2-0.1,0.4-0.2,0.7l-0.2,0.9
			c-0.1,0.2-0.2,0.7-0.2,0.7c-0.1,0.2-0.2,0.3-0.4,0.3c-0.1,0-0.3-0.1-0.3-0.3c0-0.1,0.1-0.3,0.1-0.4L199.9,21.2z"/>
	</g>
	<g>
		<path class="st1" d="M206.1,26.6h-1.4v-0.4h1V17h-1v-0.4h1.4V26.6z"/>
	</g>
	<g>
		<path class="st1" d="M170.5,24.9c-1.8,0-3.3-1.5-3.3-3.3c0-1.8,1.5-3.3,3.3-3.3c1.8,0,3.3,1.5,3.3,3.3
			C173.9,23.4,172.4,24.9,170.5,24.9z M170.4,21.5v-2.9c-1.6,0.1-2.8,1.3-2.9,2.9H170.4z M170.4,21.7h-2.9c0.1,1.7,1.4,2.9,2.9,2.9
			V21.7z M170.7,21.5h3c-0.1-1.7-1.4-2.9-3-2.9V21.5z M170.7,21.7v2.9c1.5-0.1,2.9-1.2,3-2.9H170.7z"/>
	</g>
	<polyline points="162.4,24 167,21.7 162.4,19.4 163.6,21.7 	"/>
	<line class="st2" x1="142.2" y1="21.7" x2="163.6" y2="21.7"/>
	<g>
		<path class="st1" d="M106.1,42c0,0.1,0,0.2,0,0.2c0,0.2,0.1,0.2,0.4,0.2c0.3,0,0.4,0,0.6,0c0.3,0,0.3,0,0.3,0.1
			c0,0.2-0.1,0.2-0.2,0.2c-0.3,0-0.6,0-0.9,0c-0.3,0-0.5,0-0.8,0c-0.3,0-0.6,0-0.8,0c-0.3,0-0.5,0-0.8,0c-0.1,0-0.2,0-0.2-0.1
			c0-0.2,0.1-0.2,0.4-0.2c1.1,0,1.1-0.1,1.2-0.5l1.3-5.3c0,0,0-0.1,0-0.2c0-0.1,0-0.1-0.3-0.1h-0.4c-1.5,0-1.7,0.2-2.3,1.7
			c-0.1,0.2-0.1,0.2-0.2,0.2c-0.1,0-0.1,0-0.1-0.1c0,0,0-0.2,0.1-0.2l0.6-1.8c0.1-0.2,0.1-0.2,0.3-0.2h5.5c0.2,0,0.3,0,0.3,0.1
			c0,0,0,0.1,0,0.2l-0.3,1.7c0,0.1,0,0.2-0.1,0.2c-0.1,0-0.1-0.1-0.1-0.1c0,0,0-0.1,0-0.2c0-0.3,0.1-0.6,0.1-0.8
			c0-0.8-0.4-0.8-1.5-0.8c-0.2,0-0.5,0-0.6,0c-0.1,0-0.2,0.1-0.2,0.4L106.1,42z"/>
	</g>
	<polygon class="st2" points="96.1,39.4 96.1,46.5 117.4,46.5 117.4,32.3 96.1,32.3 	"/>
	<polyline points="104.5,27.8 106.7,32.3 109,27.8 106.7,28.9 	"/>
	<line class="st2" x1="106.7" y1="21.7" x2="106.7" y2="28.9"/>
	<polyline points="104.5,70.3 106.7,74.8 109,70.3 106.7,71.4 	"/>
	<line class="st2" x1="106.7" y1="46.5" x2="106.7" y2="71.4"/>
	<polyline points="172.8,65.2 170.5,60.7 168.2,65.2 170.5,64.1 	"/>
	<line class="st2" x1="170.5" y1="74.8" x2="170.5" y2="64.1"/>
	<path class="st4" d="M106.7,78.4v24.8 M170.5,78.4v24.8"/>
	<polyline points="172.8,111.3 170.5,106.7 168.2,111.3 170.5,110.1 	"/>
	<line class="st2" x1="170.5" y1="117.4" x2="170.5" y2="110.1"/>
	<polyline points="130.5,123.2 135.1,120.9 130.5,118.6 131.7,120.9 	"/>
	<line class="st2" x1="106.7" y1="120.9" x2="131.7" y2="120.9"/>
	<g>
		<path class="st1" d="M138.6,124.1c-1.8,0-3.3-1.5-3.3-3.3c0-1.8,1.5-3.3,3.3-3.3c1.8,0,3.3,1.5,3.3,3.3
			C142,122.6,140.5,124.1,138.6,124.1z M138.5,120.8l-2.1-2.1c-0.5,0.6-0.8,1.3-0.8,2.1c0,0.6,0.2,1.4,0.8,2.1L138.5,120.8z
			 M138.6,121l-2.1,2.1c0.8,0.8,1.7,0.8,2.1,0.8c1.3,0,2.1-0.8,2.1-0.8c0,0-0.1-0.1-0.1-0.1L138.6,121z M138.6,120.6l2.1-2.1
			c-0.8-0.8-1.7-0.8-2.1-0.8c-1.3,0-2.1,0.8-2.1,0.8c0,0,0.1,0.1,0.1,0.1L138.6,120.6z M138.8,120.8l2.1,2.1
			c0.5-0.6,0.8-1.3,0.8-2.1c0-0.8-0.3-1.6-0.8-2.1L138.8,120.8z"/>
	</g>
	<g>
		<path class="st1" d="M128.5,140.6c0.3-0.3,0.7-0.6,1.2-0.6c0.8,0,1.3,0.7,1.3,1.6c0,1.4-1.2,2.9-2.4,2.9c-0.7,0-1.3-0.6-1.3-1.6
			c0-0.3,0-0.5,0.2-1l0.8-3.2c0-0.2,0.1-0.5,0.1-0.6c0-0.1,0-0.2-0.5-0.2c-0.1,0-0.2,0-0.2-0.1c0-0.2,0.1-0.2,0.2-0.2
			c0.3,0,1-0.1,1.2-0.1c0.1,0,0.1,0.1,0.1,0.1L128.5,140.6z M128.1,142.3c-0.2,0.6-0.2,0.8-0.2,1c0,0.7,0.3,1,0.7,1
			c0.4,0,0.8-0.4,1.2-1c0.2-0.4,0.5-1.5,0.5-2.1c0-0.6-0.3-0.9-0.6-0.9c-0.3,0-0.7,0.1-1.2,0.8c-0.1,0.1-0.1,0.1-0.1,0.3
			L128.1,142.3z"/>
	</g>
	<g>
		<path class="st1" d="M137.4,145.4c0,0,0,0.1,0,0.2c0,0.1,0,0.1,0.2,0.1c0.1,0,0.3,0,0.3,0c0.1,0,0.2,0,0.2,0.1
			c0,0.2-0.1,0.2-0.1,0.2c-0.2,0-0.7,0-0.9,0c-0.1,0-0.3,0-0.4,0s-0.3,0-0.4,0c-0.1,0-0.1-0.1-0.1-0.1c0-0.2,0.1-0.2,0.2-0.2
			c0.5,0,0.6-0.1,0.6-0.3l1-3.9l0,0l-2.9,4.3c0,0.1-0.1,0.2-0.2,0.2c-0.1,0-0.1-0.1-0.1-0.2l-0.7-4.2h0l-0.9,3.7c0,0.1,0,0.1,0,0.2
			c0,0.1,0,0.3,0.4,0.3c0.1,0,0.2,0,0.2,0.1c0,0.2-0.1,0.2-0.1,0.2c-0.2,0-0.6,0-0.7,0c-0.2,0-0.5,0-0.7,0c-0.1,0-0.1-0.1-0.1-0.1
			c0-0.1,0.1-0.2,0.1-0.2c0.6,0,0.7-0.3,0.7-0.5l0.9-3.5c0-0.1,0-0.1,0-0.2c0-0.1,0-0.1-0.2-0.1c-0.1,0-0.2,0-0.3,0
			c-0.2,0-0.2,0-0.2-0.1c0-0.2,0.1-0.2,0.2-0.2h1c0.2,0,0.2,0,0.2,0.2l0.7,3.9l2.7-4c0.1-0.1,0.1-0.1,0.3-0.1h0.9
			c0.1,0,0.2,0,0.2,0.1c0,0.1-0.1,0.1-0.2,0.1c-0.5,0-0.5,0.1-0.6,0.3L137.4,145.4z"/>
	</g>
	<g>
		<path class="st1" d="M140.5,144.3c-0.1,0-0.3,0-0.3-0.2c0-0.2,0.2-0.2,0.3-0.2h4.2c0.1,0,0.3,0,0.3,0.2c0,0.2-0.2,0.2-0.3,0.2
			H140.5z"/>
	</g>
	<g>
		<path class="st1" d="M149,145.9h-2.9c0-0.2,0-0.2,0.1-0.3l1.7-1.7c0.2-0.3,0.7-0.7,0.7-1.3c0-0.6-0.4-1.1-1.1-1.1
			c-0.3,0-0.8,0.2-1,0.6c0.4,0,0.4,0.2,0.4,0.4c0,0.3-0.2,0.4-0.4,0.4c-0.1,0-0.4,0-0.4-0.4c0-0.6,0.6-1.2,1.5-1.2
			c0.9,0,1.6,0.5,1.6,1.4c0,0.7-0.5,1.1-1,1.5c-0.4,0.3-0.7,0.5-1.4,1.2h1.3c0.1,0,0.6,0,0.7,0c0.1-0.1,0.2-0.5,0.2-0.6h0.2
			L149,145.9z"/>
	</g>
	<polyline points="140.9,129 138.6,124.4 136.3,129 138.6,127.8 	"/>
	<line class="st2" x1="138.6" y1="135.1" x2="138.6" y2="127.8"/>
	<g>
		<path class="st1" d="M170.5,124.1c-1.8,0-3.3-1.5-3.3-3.3c0-1.8,1.5-3.3,3.3-3.3c1.8,0,3.3,1.5,3.3,3.3
			C173.9,122.6,172.4,124.1,170.5,124.1z M170.4,120.7v-2.9c-1.6,0.1-2.8,1.3-2.9,2.9H170.4z M170.4,120.9h-2.9
			c0.1,1.7,1.4,2.9,2.9,2.9V120.9z M170.7,120.7h3c-0.1-1.7-1.4-2.9-3-2.9V120.7z M170.7,120.9v2.9c1.5-0.1,2.9-1.2,3-2.9H170.7z"/>
	</g>
	<polyline points="162.4,123.2 167,120.9 162.4,118.6 163.6,120.9 	"/>
	<line class="st2" x1="142.2" y1="120.9" x2="163.6" y2="120.9"/>
	<g>
		<path class="st1" d="M106.1,141.2c0,0.1,0,0.2,0,0.2c0,0.2,0.1,0.2,0.4,0.2c0.3,0,0.4,0,0.6,0c0.3,0,0.3,0,0.3,0.1
			c0,0.2-0.1,0.2-0.2,0.2c-0.3,0-0.6,0-0.9,0c-0.3,0-0.5,0-0.8,0c-0.3,0-0.6,0-0.8,0c-0.3,0-0.5,0-0.8,0c-0.1,0-0.2,0-0.2-0.1
			c0-0.2,0.1-0.2,0.4-0.2c1.1,0,1.1-0.1,1.2-0.5l1.3-5.3c0,0,0-0.1,0-0.2c0-0.1,0-0.1-0.3-0.1h-0.4c-1.5,0-1.7,0.2-2.3,1.7
			c-0.1,0.2-0.1,0.2-0.2,0.2c-0.1,0-0.1,0-0.1-0.1c0,0,0-0.2,0.1-0.2l0.6-1.8c0.1-0.2,0.1-0.2,0.3-0.2h5.5c0.2,0,0.3,0,0.3,0.1
			c0,0,0,0.1,0,0.2l-0.3,1.7c0,0.1,0,0.2-0.1,0.2c-0.1,0-0.1-0.1-0.1-0.1c0,0,0-0.2,0-0.2c0-0.3,0.1-0.6,0.1-0.8
			c0-0.8-0.4-0.8-1.5-0.8c-0.2,0-0.5,0-0.6,0c-0.1,0-0.2,0.1-0.2,0.4L106.1,141.2z"/>
	</g>
	<polygon class="st2" points="96.1,138.6 96.1,145.7 117.4,145.7 117.4,131.5 96.1,131.5 	"/>
	<polyline points="172.8,129 170.5,124.4 168.2,129 170.5,127.8 	"/>
	<line class="st2" x1="170.5" y1="156.3" x2="170.5" y2="127.8"/>
	<polyline points="104.5,127 106.7,131.5 109,127 106.7,128.1 	"/>
	<path class="st2" d="M106.7,106.7v21.4 M106.7,145.7v10.6"/>
	<polyline points="130.5,158.6 135.1,156.3 130.5,154.1 131.7,156.3 	"/>
	<line class="st2" x1="106.7" y1="156.3" x2="131.7" y2="156.3"/>
	<g>
		<path class="st1" d="M138.6,159.6c-1.8,0-3.3-1.5-3.3-3.3c0-1.8,1.5-3.3,3.3-3.3c1.8,0,3.3,1.5,3.3,3.3
			C142,158,140.5,159.6,138.6,159.6z M138.5,156.2l-2.1-2.1c-0.5,0.6-0.8,1.3-0.8,2.1c0,0.6,0.2,1.4,0.8,2.1L138.5,156.2z
			 M138.6,156.4l-2.1,2.1c0.8,0.8,1.7,0.8,2.1,0.8c1.3,0,2.1-0.8,2.1-0.8c0,0-0.1-0.1-0.1-0.1L138.6,156.4z M138.6,156.1l2.1-2.1
			c-0.8-0.8-1.7-0.8-2.1-0.8c-1.3,0-2.1,0.8-2.1,0.8c0,0,0.1,0.1,0.1,0.1L138.6,156.1z M138.8,156.2l2.1,2.1
			c0.5-0.6,0.8-1.3,0.8-2.1c0-0.8-0.3-1.6-0.8-2.1L138.8,156.2z"/>
	</g>
	<g>
		<path class="st1" d="M128.5,176.1c0.3-0.3,0.7-0.6,1.2-0.6c0.8,0,1.3,0.7,1.3,1.6c0,1.4-1.2,2.9-2.4,2.9c-0.7,0-1.3-0.6-1.3-1.6
			c0-0.3,0-0.5,0.2-1l0.8-3.2c0-0.2,0.1-0.5,0.1-0.6c0-0.1,0-0.2-0.5-0.2c-0.1,0-0.2,0-0.2-0.1c0-0.2,0.1-0.2,0.2-0.2
			c0.3,0,1-0.1,1.2-0.1c0.1,0,0.1,0.1,0.1,0.1L128.5,176.1z M128.1,177.7c-0.2,0.6-0.2,0.8-0.2,1c0,0.7,0.3,1,0.7,1
			c0.4,0,0.8-0.4,1.2-1c0.2-0.4,0.5-1.5,0.5-2.1c0-0.6-0.3-0.9-0.6-0.9c-0.3,0-0.7,0.1-1.2,0.8c-0.1,0.1-0.1,0.1-0.1,0.3
			L128.1,177.7z"/>
	</g>
	<g>
		<path class="st1" d="M137.4,180.8c0,0,0,0.1,0,0.2c0,0.1,0,0.1,0.2,0.1c0.1,0,0.3,0,0.3,0c0.1,0,0.2,0,0.2,0.1
			c0,0.2-0.1,0.2-0.1,0.2c-0.2,0-0.7,0-0.9,0c-0.1,0-0.3,0-0.4,0s-0.3,0-0.4,0c-0.1,0-0.1-0.1-0.1-0.1c0-0.2,0.1-0.2,0.2-0.2
			c0.5,0,0.6-0.1,0.6-0.3l1-3.9l0,0l-2.9,4.3c0,0.1-0.1,0.2-0.2,0.2c-0.1,0-0.1-0.1-0.1-0.2l-0.7-4.2h0l-0.9,3.7c0,0.1,0,0.1,0,0.2
			c0,0.1,0,0.3,0.4,0.3c0.1,0,0.2,0,0.2,0.1c0,0.2-0.1,0.2-0.1,0.2c-0.2,0-0.6,0-0.7,0c-0.2,0-0.5,0-0.7,0c-0.1,0-0.1-0.1-0.1-0.1
			c0-0.1,0.1-0.2,0.1-0.2c0.6,0,0.7-0.3,0.7-0.5l0.9-3.5c0-0.1,0-0.1,0-0.2c0-0.1,0-0.1-0.2-0.1c-0.1,0-0.2,0-0.3,0
			c-0.2,0-0.2,0-0.2-0.1c0-0.2,0.1-0.2,0.2-0.2h1c0.2,0,0.2,0,0.2,0.2l0.7,3.9l2.7-4c0.1-0.1,0.1-0.1,0.3-0.1h0.9
			c0.1,0,0.2,0,0.2,0.1c0,0.1-0.1,0.1-0.2,0.1c-0.5,0-0.5,0.1-0.6,0.3L137.4,180.8z"/>
	</g>
	<g>
		<path class="st1" d="M140.5,179.7c-0.1,0-0.3,0-0.3-0.2c0-0.2,0.2-0.2,0.3-0.2h4.2c0.1,0,0.3,0,0.3,0.2c0,0.2-0.2,0.2-0.3,0.2
			H140.5z"/>
	</g>
	<g>
		<path class="st1" d="M148,180.7c0,0.2,0,0.3,0.7,0.3h0.3v0.3c-0.2,0-1,0-1.2,0c-0.3,0-1.1,0-1.2,0v-0.3h0.3c0.7,0,0.7-0.1,0.7-0.3
			v-3.6c-0.4,0.2-0.8,0.2-1,0.2v-0.3c0.3,0,0.9,0,1.4-0.4c0.2,0,0.2,0,0.2,0.2V180.7z"/>
	</g>
	<polyline points="140.9,164.4 138.6,159.9 136.3,164.4 138.6,163.3 	"/>
	<path class="st2" d="M138.6,170.5v-7.2 M142.2,156.3h28.3"/>
	<g>
		<path class="st1" d="M138.6,24.9c-1.8,0-3.3-1.5-3.3-3.3c0-1.8,1.5-3.3,3.3-3.3c1.8,0,3.3,1.5,3.3,3.3
			C142,23.4,140.5,24.9,138.6,24.9z M138.5,21.6l-2.1-2.1c-0.5,0.6-0.8,1.3-0.8,2.1c0,0.6,0.2,1.4,0.8,2.1L138.5,21.6z M138.6,21.8
			l-2.1,2.1c0.8,0.8,1.7,0.8,2.1,0.8c1.3,0,2.1-0.8,2.1-0.8c0,0-0.1-0.1-0.1-0.1L138.6,21.8z M138.6,21.4l2.1-2.1
			c-0.8-0.8-1.7-0.8-2.1-0.8c-1.3,0-2.1,0.8-2.1,0.8c0,0,0.1,0.1,0.1,0.1L138.6,21.4z M138.8,21.6l2.1,2.1c0.5-0.6,0.8-1.3,0.8-2.1
			c0-0.8-0.3-1.6-0.8-2.1L138.8,21.6z"/>
	</g>
	<g>
		<path class="st1" d="M135.9,41.8c0.3-0.3,0.7-0.6,1.2-0.6c0.8,0,1.3,0.7,1.3,1.6c0,1.4-1.2,2.9-2.4,2.9c-0.7,0-1.3-0.6-1.3-1.6
			c0-0.3,0-0.5,0.2-1l0.8-3.2c0-0.2,0.1-0.5,0.1-0.6c0-0.1,0-0.2-0.5-0.2c-0.1,0-0.2,0-0.2-0.1c0-0.2,0.1-0.2,0.2-0.2
			c0.3,0,1-0.1,1.2-0.1c0.1,0,0.1,0.1,0.1,0.1L135.9,41.8z M135.5,43.5c-0.2,0.6-0.2,0.8-0.2,1c0,0.7,0.3,1,0.7,1
			c0.4,0,0.8-0.4,1.2-1c0.2-0.4,0.5-1.5,0.5-2.1c0-0.6-0.3-0.9-0.6-0.9c-0.3,0-0.7,0.1-1.2,0.8c-0.1,0.1-0.1,0.1-0.1,0.3L135.5,43.5
			z"/>
	</g>
	<g>
		<path class="st1" d="M140.6,47.2c-1.6,0-1.6-1.9-1.6-2.4c0-0.5,0-2.4,1.6-2.4c0.6,0,1,0.3,1.2,0.6c0.3,0.5,0.4,1,0.4,1.8
			C142.2,45.3,142.2,47.2,140.6,47.2z M141.5,46.2c0.1-0.4,0.1-1,0.1-1.5c0-0.6,0-1.1-0.1-1.5c-0.1-0.4-0.5-0.6-0.9-0.6
			c-0.3,0-0.7,0.1-0.9,0.7c-0.1,0.4-0.1,0.9-0.1,1.4c0,0.5,0,1.1,0.1,1.5c0.1,0.6,0.6,0.8,0.9,0.8C140.9,47,141.3,46.8,141.5,46.2z"
			/>
	</g>
	<polyline points="140.9,29.8 138.6,25.2 136.3,29.8 138.6,28.6 	"/>
	<line class="st2" x1="138.6" y1="35.9" x2="138.6" y2="28.6"/>
	<polyline points="172.8,29.8 170.5,25.2 168.2,29.8 170.5,28.6 	"/>
	<line class="st2" x1="170.5" y1="53.6" x2="170.5" y2="28.6"/>
	<polyline points="130.5,59.4 135.1,57.1 130.5,54.9 131.7,57.1 	"/>
	<line class="st2" x1="106.7" y1="57.1" x2="131.7" y2="57.1"/>
	<g>
		<path class="st1" d="M138.6,60.3c-1.8,0-3.3-1.5-3.3-3.3c0-1.8,1.5-3.3,3.3-3.3c1.8,0,3.3,1.5,3.3,3.3
			C142,58.8,140.5,60.3,138.6,60.3z M138.5,57l-2.1-2.1c-0.5,0.6-0.8,1.3-0.8,2.1c0,0.6,0.2,1.4,0.8,2.1L138.5,57z M138.6,57.2
			l-2.1,2.1c0.8,0.8,1.7,0.8,2.1,0.8c1.3,0,2.1-0.8,2.1-0.8c0,0-0.1-0.1-0.1-0.1L138.6,57.2z M138.6,56.9l2.1-2.1
			c-0.8-0.8-1.7-0.8-2.1-0.8c-1.3,0-2.1,0.8-2.1,0.8c0,0,0.1,0.1,0.1,0.1L138.6,56.9z M138.8,57l2.1,2.1c0.5-0.6,0.8-1.3,0.8-2.1
			c0-0.8-0.3-1.6-0.8-2.1L138.8,57z"/>
	</g>
	<g>
		<path class="st1" d="M135.9,77.2c0.3-0.3,0.7-0.6,1.2-0.6c0.8,0,1.3,0.7,1.3,1.6c0,1.4-1.2,2.9-2.4,2.9c-0.7,0-1.3-0.6-1.3-1.6
			c0-0.3,0-0.5,0.2-1l0.8-3.2c0-0.2,0.1-0.5,0.1-0.6c0-0.1,0-0.2-0.5-0.2c-0.1,0-0.2,0-0.2-0.1c0-0.2,0.1-0.2,0.2-0.2
			c0.3,0,1-0.1,1.2-0.1c0.1,0,0.1,0.1,0.1,0.1L135.9,77.2z M135.5,78.9c-0.2,0.6-0.2,0.8-0.2,1c0,0.7,0.3,1,0.7,1
			c0.4,0,0.8-0.4,1.2-1c0.2-0.4,0.5-1.5,0.5-2.1c0-0.6-0.3-0.9-0.6-0.9c-0.3,0-0.7,0.1-1.2,0.8c-0.1,0.1-0.1,0.1-0.1,0.3L135.5,78.9
			z"/>
	</g>
	<g>
		<path class="st1" d="M140.9,81.9c0,0.2,0,0.3,0.7,0.3h0.3v0.3c-0.2,0-1,0-1.2,0c-0.3,0-1.1,0-1.2,0v-0.3h0.3
			c0.7,0,0.7-0.1,0.7-0.3v-3.6c-0.4,0.2-0.8,0.2-1,0.2v-0.3c0.3,0,0.9,0,1.4-0.4c0.2,0,0.2,0,0.2,0.2V81.9z"/>
	</g>
	<polyline points="140.9,65.2 138.6,60.7 136.3,65.2 138.6,64.1 	"/>
	<line class="st2" x1="138.6" y1="71.3" x2="138.6" y2="64.1"/>
	<g>
		<path class="st1" d="M170.5,60.3c-1.8,0-3.3-1.5-3.3-3.3c0-1.8,1.5-3.3,3.3-3.3c1.8,0,3.3,1.5,3.3,3.3
			C173.9,58.8,172.4,60.3,170.5,60.3z M170.4,56.9V54c-1.6,0.1-2.8,1.3-2.9,2.9H170.4z M170.4,57.1h-2.9c0.1,1.7,1.4,2.9,2.9,2.9
			V57.1z M170.7,56.9h3c-0.1-1.7-1.4-2.9-3-2.9V56.9z M170.7,57.1v2.9c1.5-0.1,2.9-1.2,3-2.9H170.7z"/>
	</g>
	<polyline points="162.4,59.4 167,57.1 162.4,54.9 163.6,57.1 	"/>
	<line class="st2" x1="142.2" y1="57.1" x2="163.6" y2="57.1"/>
</g>
</svg>
