<?xml version="1.0" encoding="utf-8"?>
<!-- Generator: Adobe Illustrator 22.1.0, SVG Export Plug-In . SVG Version: 6.00 Build 0)  -->
<svg version="1.1" id="Layer_1" xmlns="http://www.w3.org/2000/svg" xmlns:xlink="http://www.w3.org/1999/xlink" x="0px" y="0px"
	 viewBox="0 0 364.3 133.8" style="enable-background:new 0 0 364.3 133.8;" xml:space="preserve">
<style type="text/css">
	.st0{fill:#1D1D1B;}
	.st1{fill:none;stroke:#000000;stroke-width:0.8504;stroke-miterlimit:10;}
	.st2{fill:none;stroke:#000000;stroke-width:0.8504;stroke-linecap:round;stroke-miterlimit:10;stroke-dasharray:0,3.7881;}
	.st3{fill:none;stroke:#000000;stroke-width:0.8504;stroke-miterlimit:10;stroke-dasharray:2.8454,2.8454;stroke-dashoffset:1;}
</style>
<g>
	<g>
		<path class="st0" d="M3,24.5c-0.1,0.4-0.2,0.7-0.2,0.9C2.8,25.7,3,26,3.4,26c0.3,0,1-0.2,1.3-1.3c0-0.1,0-0.1,0.1-0.1
			c0,0,0.1,0,0.1,0.1c0,0.2-0.6,1.5-1.6,1.5c-0.6,0-1-0.4-1.1-0.8c0,0.1-0.4,0.8-1,0.8c-0.4,0-0.9-0.2-0.9-0.7
			c0-0.3,0.2-0.6,0.5-0.6c0.1,0,0.4,0.1,0.4,0.3c0,0.3-0.2,0.5-0.5,0.5C0.9,26,1.2,26,1.2,26c0.4,0,0.8-0.4,0.9-1
			c0.4-1.4,0.5-2.1,0.5-2.4c0-0.6-0.3-0.7-0.5-0.7c-0.3,0-1,0.2-1.3,1.3c0,0.1-0.1,0.1-0.1,0.1c0,0-0.1,0-0.1-0.1
			c0-0.2,0.6-1.5,1.6-1.5c0.3,0,0.8,0.1,1.1,0.8c0.1-0.2,0.5-0.8,1-0.8c0.3,0,0.9,0.1,0.9,0.7c0,0.4-0.3,0.6-0.5,0.6
			c-0.3,0-0.4-0.2-0.4-0.3c0-0.2,0.2-0.5,0.5-0.5c-0.2-0.1-0.4-0.1-0.5-0.1c-0.7,0-0.9,0.9-1,1.2L3,24.5z"/>
	</g>
	<g>
		<path class="st0" d="M6.8,28.6v-10h1.4V19h-1v9.2h1v0.4H6.8z"/>
	</g>
	<g>
		<path class="st0" d="M9.9,23.2c0.1-0.5,0.2-0.6,0.2-0.8c0-0.3-0.1-0.5-0.3-0.5c-0.4,0-0.6,0.5-0.7,1.2c-0.1,0.2-0.1,0.2-0.2,0.2
			c0,0-0.1,0-0.1-0.1c0,0,0.1-0.6,0.3-1c0.1-0.2,0.3-0.6,0.7-0.6c0.5,0,0.9,0.3,0.9,0.9c0.2-0.2,0.7-0.9,1.6-0.9
			c0.7,0,1.1,0.4,1.1,1.1c0,0.6-0.4,1.7-0.6,2.2c-0.1,0.2-0.2,0.5-0.2,0.7c0,0.2,0.1,0.3,0.2,0.3c0.5,0,0.8-0.6,1-1.2
			c0-0.1,0-0.2,0.1-0.2c0,0,0.1,0,0.1,0.1c0,0.1-0.4,1.5-1.3,1.5c-0.5,0-0.8-0.3-0.8-0.8c0-0.1,0-0.2,0.1-0.5
			c0.2-0.4,0.6-1.7,0.6-2.3c0-0.3-0.1-0.7-0.5-0.7c-0.9,0-1.5,0.9-1.6,1.2c0,0-0.1,0.3-0.1,0.5c0,0.2-0.1,0.4-0.2,0.7L10,25.2
			c-0.1,0.2-0.2,0.7-0.2,0.7c-0.1,0.2-0.2,0.3-0.4,0.3c-0.1,0-0.3-0.1-0.3-0.3c0-0.1,0.1-0.3,0.1-0.4L9.9,23.2z"/>
	</g>
	<g>
		<path class="st0" d="M16,28.6h-1.4v-0.4h1V19h-1v-0.4H16V28.6z"/>
	</g>
	<g>
		<path class="st0" d="M351.4,26.1c-0.3,1.1-1.3,2-2.3,2c-0.6,0-1.1-0.4-1.1-0.9c0-0.5,0.3-0.6,0.6-0.6c0.1,0,0.4,0,0.4,0.3
			c0,0.2-0.1,0.3-0.2,0.4c-0.1,0.1-0.3,0.1-0.4,0.1c0.2,0.4,0.6,0.4,0.8,0.4c0.5,0,0.8-0.3,1.1-0.6c0.4-0.5,0.5-1,0.6-1.5
			c-0.3,0.3-0.6,0.4-1,0.4c-0.6,0-1.2-0.3-1.2-1.2c0-0.5,0.2-1,0.6-2.1c0.1-0.2,0.2-0.4,0.2-0.7c0-0.3-0.2-0.3-0.2-0.3
			c-0.3,0-0.7,0.3-1,1.2c0,0.2-0.1,0.2-0.2,0.2c0,0-0.1,0-0.1-0.1c0-0.1,0.4-1.5,1.3-1.5c0.5,0,0.8,0.4,0.8,0.8c0,0.2,0,0.3-0.2,0.7
			c-0.3,0.9-0.5,1.5-0.5,2c0,0.4,0.1,0.8,0.6,0.8c0.7,0,1.1-0.7,1.1-0.8l0.4-1.8c0.1-0.3,0.1-0.5,0.2-0.8c0-0.2,0.1-0.5,0.1-0.5
			c0.1-0.1,0.2-0.2,0.3-0.2c0.1,0,0.3,0.1,0.3,0.3c0,0.1,0,0.1,0,0.2L351.4,26.1z"/>
	</g>
	<g>
		<path class="st0" d="M353.9,28.6v-10h1.4V19h-1v9.2h1v0.4H353.9z"/>
	</g>
	<g>
		<path class="st0" d="M357,23.2c0.1-0.5,0.2-0.6,0.2-0.8c0-0.3-0.1-0.5-0.3-0.5c-0.4,0-0.6,0.5-0.7,1.2c-0.1,0.2-0.1,0.2-0.2,0.2
			c0,0-0.1,0-0.1-0.1c0,0,0.1-0.6,0.3-1c0.1-0.2,0.3-0.6,0.7-0.6c0.5,0,0.9,0.3,0.9,0.9c0.2-0.2,0.7-0.9,1.6-0.9
			c0.7,0,1.1,0.4,1.1,1.1c0,0.6-0.4,1.7-0.6,2.2c-0.1,0.2-0.2,0.5-0.2,0.7c0,0.2,0.1,0.3,0.2,0.3c0.5,0,0.8-0.6,1-1.2
			c0.1-0.1,0.1-0.2,0.2-0.2c0,0,0.1,0,0.1,0.1c0,0.1-0.4,1.5-1.3,1.5c-0.5,0-0.8-0.3-0.8-0.8c0-0.1,0-0.2,0.1-0.5
			c0.2-0.4,0.6-1.7,0.6-2.3c0-0.3-0.1-0.7-0.5-0.7c-0.9,0-1.5,0.9-1.6,1.2c0,0-0.1,0.3-0.1,0.5c0,0.2-0.1,0.4-0.2,0.7l-0.2,0.9
			c-0.1,0.2-0.2,0.7-0.2,0.7c-0.1,0.2-0.2,0.3-0.4,0.3c-0.1,0-0.3-0.1-0.3-0.3c0-0.1,0.1-0.3,0.1-0.4L357,23.2z"/>
	</g>
	<g>
		<path class="st0" d="M363.1,28.6h-1.4v-0.4h1V19h-1v-0.4h1.4V28.6z"/>
	</g>
	<polyline points="167.1,25.8 171.6,23.6 167.1,21.3 168.2,23.6 	"/>
	<line class="st1" x1="100.8" y1="23.6" x2="168.2" y2="23.6"/>
	<g>
		<path class="st0" d="M124.9,86.5c0,0.1,0,0.2,0,0.2c0,0.2,0.1,0.2,0.4,0.2c0.3,0,0.4,0,0.6,0c0.3,0,0.3,0,0.3,0.1
			c0,0.2-0.1,0.2-0.2,0.2c-0.3,0-0.6,0-0.9,0c-0.3,0-0.5,0-0.8,0c-0.3,0-0.6,0-0.8,0c-0.3,0-0.5,0-0.8,0c-0.1,0-0.2,0-0.2-0.1
			c0-0.2,0.1-0.2,0.4-0.2c1.1,0,1.1-0.1,1.2-0.5l1.3-5.3c0,0,0-0.1,0-0.2c0-0.1,0-0.1-0.3-0.1h-0.4c-1.5,0-1.7,0.2-2.3,1.7
			c-0.1,0.2-0.1,0.2-0.2,0.2c-0.1,0-0.1,0-0.1-0.1c0,0,0-0.2,0.1-0.2l0.6-1.8c0.1-0.2,0.1-0.2,0.3-0.2h5.5c0.2,0,0.3,0,0.3,0.1
			c0,0,0,0.1,0,0.2l-0.3,1.7c0,0.1,0,0.2-0.1,0.2c-0.1,0-0.1-0.1-0.1-0.1c0,0,0-0.2,0-0.2c0-0.3,0.1-0.6,0.1-0.8
			c0-0.8-0.4-0.8-1.5-0.8c-0.2,0-0.5,0-0.6,0c-0.1,0-0.2,0.1-0.2,0.4L124.9,86.5z"/>
	</g>
	<polygon class="st1" points="114.9,83.8 114.9,90.9 136.2,90.9 136.2,76.7 114.9,76.7 	"/>
	<polyline points="123.3,72.2 125.6,76.7 127.8,72.2 125.6,73.3 	"/>
	<path class="st1" d="M125.6,55.5v17.9 M125.6,105.1V90.9"/>
	<polyline points="142.3,107.3 146.8,105.1 142.3,102.8 143.4,105.1 	"/>
	<line class="st1" x1="125.6" y1="105.1" x2="143.4" y2="105.1"/>
	<g>
		<path class="st0" d="M150.4,108.4c-1.8,0-3.3-1.5-3.3-3.3c0-1.8,1.5-3.3,3.3-3.3c1.8,0,3.3,1.5,3.3,3.3
			C153.7,106.9,152.2,108.4,150.4,108.4z M150.2,105.1l-2.1-2.1c-0.5,0.6-0.8,1.3-0.8,2.1c0,0.6,0.2,1.4,0.8,2.1L150.2,105.1z
			 M150.4,105.3l-2.1,2.1c0.8,0.8,1.7,0.8,2.1,0.8c1.3,0,2.1-0.8,2.1-0.8c0,0-0.1-0.1-0.1-0.1L150.4,105.3z M150.4,104.9l2.1-2.1
			c-0.8-0.8-1.7-0.8-2.1-0.8c-1.3,0-2.1,0.8-2.1,0.8c0,0,0.1,0.1,0.1,0.1L150.4,104.9z M150.6,105.1l2.1,2.1
			c0.5-0.6,0.8-1.3,0.8-2.1c0-0.8-0.3-1.6-0.8-2.1L150.6,105.1z"/>
	</g>
	<polyline points="152.6,113.2 150.4,108.6 148.1,113.2 150.4,112 	"/>
	<line class="st1" x1="150.4" y1="119.3" x2="150.4" y2="112"/>
	<g>
		<path class="st0" d="M146.7,124.4c0.4,0.2,0.7,0.8,0.7,1.5c0,0.7-0.3,1.4-0.8,1.8c-0.4,0.4-1.2,0.8-1.9,0.8c-0.7,0-1.2-0.4-1.4-1
			l-0.7,2.8c0,0,0,0-0.1,0s-0.1-0.1-0.1-0.1l1.6-6.3c0.2-0.8,0.7-1.7,1.3-2.1c0.3-0.3,0.6-0.4,1.2-0.4c0.8,0,1.4,0.6,1.4,1.4
			C147.8,123.4,147.2,124,146.7,124.4z M146.3,121.6c-1.2,0-1.9,1.6-2.1,2.4l-0.6,2.5c0,0.2,0,0.3,0,0.4c0,0.7,0.4,1.3,1.1,1.3
			c0.6,0,1.2-0.4,1.6-0.9c0.3-0.4,0.5-1.1,0.5-1.7c0-0.5-0.1-0.8-0.4-1.1c-0.3,0.1-0.4,0.1-0.8,0.1c-0.2,0-0.7,0-0.7-0.2
			c0-0.3,0.6-0.3,0.8-0.3c0.3,0,0.5,0,0.8,0.1c0.5-0.3,0.9-1,0.9-1.7C147.3,121.9,146.9,121.6,146.3,121.6z M145.6,124.3
			c-0.1,0-0.5,0-0.5,0.1c0.1,0,0.3,0,0.4,0c0.2,0,0.3,0,0.5-0.1C145.9,124.3,145.8,124.3,145.6,124.3z"/>
	</g>
	<g>
		<path class="st0" d="M151,129.8h-2.9c0-0.2,0-0.2,0.1-0.3l1.7-1.7c0.2-0.3,0.7-0.7,0.7-1.3c0-0.6-0.4-1.1-1.1-1.1
			c-0.3,0-0.8,0.2-1,0.6c0.4,0,0.4,0.2,0.4,0.4c0,0.3-0.2,0.4-0.4,0.4c-0.1,0-0.4,0-0.4-0.4c0-0.6,0.6-1.2,1.5-1.2
			c0.9,0,1.6,0.5,1.6,1.4c0,0.7-0.5,1.1-1,1.5c-0.4,0.3-0.7,0.5-1.4,1.2h1.3c0.1,0,0.6,0,0.7,0c0.1-0.1,0.2-0.5,0.2-0.6h0.2
			L151,129.8z"/>
	</g>
	<g>
		<path class="st0" d="M152.9,129.8c-0.2,0-0.4-0.2-0.4-0.4c0-0.2,0.2-0.4,0.4-0.4c0.3,0,0.5,0.3,0.5,0.8c0,0.8-0.6,1.4-0.7,1.4
			c0,0-0.1,0-0.1-0.1c0,0,0-0.1,0-0.1c0.5-0.4,0.5-0.9,0.5-1.3C153.2,129.7,153,129.8,152.9,129.8z"/>
	</g>
	<g>
		<path class="st0" d="M157.4,129.8h-2.9c0-0.2,0-0.2,0.1-0.3l1.7-1.7c0.2-0.3,0.7-0.7,0.7-1.3c0-0.6-0.4-1.1-1.1-1.1
			c-0.3,0-0.8,0.2-1,0.6c0.4,0,0.4,0.2,0.4,0.4c0,0.3-0.2,0.4-0.4,0.4c-0.1,0-0.4,0-0.4-0.4c0-0.6,0.6-1.2,1.5-1.2
			c0.9,0,1.6,0.5,1.6,1.4c0,0.7-0.5,1.1-1,1.5c-0.4,0.3-0.7,0.5-1.4,1.2h1.3c0.1,0,0.6,0,0.7,0c0.1-0.1,0.2-0.5,0.2-0.6h0.2
			L157.4,129.8z"/>
	</g>
	<g>
		<path class="st0" d="M175.2,69.4c-1.8,0-3.3-1.5-3.3-3.3c0-1.8,1.5-3.3,3.3-3.3c1.8,0,3.3,1.5,3.3,3.3
			C178.5,67.9,177,69.4,175.2,69.4z M175.1,66v-2.9c-1.6,0.1-2.8,1.3-2.9,2.9H175.1z M175.1,66.2h-2.9c0.1,1.7,1.4,2.9,2.9,3V66.2z
			 M175.3,66h2.9c-0.1-1.7-1.4-2.9-2.9-2.9V66z M175.3,66.2v3c1.5-0.1,2.8-1.2,2.9-3H175.3z"/>
	</g>
	<polyline points="142.3,68.4 146.8,66.1 142.3,63.8 143.4,66.1 	"/>
	<line class="st1" x1="125.6" y1="66.1" x2="143.4" y2="66.1"/>
	<polyline points="167.1,68.4 171.6,66.1 167.1,63.8 168.2,66.1 	"/>
	<line class="st1" x1="153.9" y1="66.1" x2="168.2" y2="66.1"/>
	<polyline points="177.4,74.2 175.2,69.6 172.9,74.2 175.2,73 	"/>
	<path class="st1" d="M175.2,105.1V73 M153.9,105.1h21.3"/>
	<polyline points="177.4,31.7 175.2,27.1 172.9,31.7 175.2,30.5 	"/>
	<line class="st1" x1="175.2" y1="62.6" x2="175.2" y2="30.5"/>
	<g>
		<path class="st0" d="M175.2,26.9c-1.8,0-3.3-1.5-3.3-3.3c0-1.8,1.5-3.3,3.3-3.3c1.8,0,3.3,1.5,3.3,3.3
			C178.5,25.4,177,26.9,175.2,26.9z M175.1,23.5v-2.9c-1.6,0.1-2.8,1.3-2.9,2.9H175.1z M175.1,23.7h-2.9c0.1,1.7,1.4,2.9,2.9,2.9
			V23.7z M175.3,23.5h2.9c-0.1-1.7-1.4-2.9-2.9-2.9V23.5z M175.3,23.7v2.9c1.5-0.1,2.8-1.2,2.9-2.9H175.3z"/>
	</g>
	<g>
		<path class="st0" d="M124.9,51.1c0,0.1,0,0.2,0,0.2c0,0.2,0.1,0.2,0.4,0.2c0.3,0,0.4,0,0.6,0c0.3,0,0.3,0,0.3,0.1
			c0,0.2-0.1,0.2-0.2,0.2c-0.3,0-0.6,0-0.9,0c-0.3,0-0.5,0-0.8,0c-0.3,0-0.6,0-0.8,0c-0.3,0-0.5,0-0.8,0c-0.1,0-0.2,0-0.2-0.1
			c0-0.2,0.1-0.2,0.4-0.2c1.1,0,1.1-0.1,1.2-0.5l1.3-5.3c0,0,0-0.1,0-0.2c0-0.1,0-0.1-0.3-0.1h-0.4c-1.5,0-1.7,0.2-2.3,1.7
			c-0.1,0.2-0.1,0.2-0.2,0.2c-0.1,0-0.1,0-0.1-0.1c0,0,0-0.2,0.1-0.2l0.6-1.8c0.1-0.2,0.1-0.2,0.3-0.2h5.5c0.2,0,0.3,0,0.3,0.1
			c0,0,0,0.1,0,0.2l-0.3,1.7c0,0.1,0,0.2-0.1,0.2c-0.1,0-0.1-0.1-0.1-0.1c0,0,0-0.1,0-0.2c0-0.3,0.1-0.6,0.1-0.8
			c0-0.8-0.4-0.8-1.5-0.8c-0.2,0-0.5,0-0.6,0c-0.1,0-0.2,0.1-0.2,0.4L124.9,51.1z"/>
	</g>
	<polygon class="st1" points="114.9,48.4 114.9,55.5 136.2,55.5 136.2,41.3 114.9,41.3 	"/>
	<polyline points="123.3,36.8 125.6,41.3 127.8,36.8 125.6,37.9 	"/>
	<line class="st1" x1="125.6" y1="23.6" x2="125.6" y2="37.9"/>
	<g>
		<path class="st0" d="M150.4,69.4c-1.8,0-3.3-1.5-3.3-3.3c0-1.8,1.5-3.3,3.3-3.3c1.8,0,3.3,1.5,3.3,3.3
			C153.7,67.9,152.2,69.4,150.4,69.4z M150.2,66.1l-2.1-2.1c-0.5,0.6-0.8,1.3-0.8,2.1c0,0.6,0.2,1.4,0.8,2.1L150.2,66.1z
			 M150.4,66.3l-2.1,2.1c0.8,0.8,1.7,0.8,2.1,0.8c1.3,0,2.1-0.8,2.1-0.8c0,0-0.1-0.1-0.1-0.1L150.4,66.3z M150.4,66l2.1-2.1
			c-0.8-0.8-1.7-0.8-2.1-0.8c-1.3,0-2.1,0.8-2.1,0.8c0,0,0.1,0.1,0.1,0.1L150.4,66z M150.6,66.1l2.1,2.1c0.5-0.6,0.8-1.3,0.8-2.1
			c0-0.8-0.3-1.6-0.8-2.1L150.6,66.1z"/>
	</g>
	<polyline points="152.6,74.2 150.4,69.6 148.1,74.2 150.4,73 	"/>
	<line class="st1" x1="150.4" y1="80.3" x2="150.4" y2="73"/>
	<g>
		<path class="st0" d="M146.7,85.4c0.4,0.2,0.7,0.8,0.7,1.5c0,0.7-0.3,1.4-0.8,1.8c-0.4,0.4-1.2,0.8-1.9,0.8c-0.7,0-1.2-0.4-1.4-1
			l-0.7,2.8c0,0,0,0-0.1,0s-0.1-0.1-0.1-0.1l1.6-6.3c0.2-0.8,0.7-1.7,1.3-2.1c0.3-0.3,0.6-0.4,1.2-0.4c0.8,0,1.4,0.6,1.4,1.4
			C147.8,84.4,147.2,85.1,146.7,85.4z M146.3,82.6c-1.2,0-1.9,1.6-2.1,2.4l-0.6,2.5c0,0.2,0,0.3,0,0.4c0,0.7,0.4,1.3,1.1,1.3
			c0.6,0,1.2-0.4,1.6-0.9c0.3-0.4,0.5-1.1,0.5-1.7c0-0.5-0.1-0.8-0.4-1.1c-0.3,0.1-0.4,0.1-0.8,0.1c-0.2,0-0.7,0-0.7-0.2
			c0-0.3,0.6-0.3,0.8-0.3c0.3,0,0.5,0,0.8,0.1c0.5-0.3,0.9-1,0.9-1.7C147.3,82.9,146.9,82.6,146.3,82.6z M145.6,85.3
			c-0.1,0-0.5,0-0.5,0.1c0.1,0,0.3,0,0.4,0c0.2,0,0.3,0,0.5-0.1C145.9,85.3,145.8,85.3,145.6,85.3z"/>
	</g>
	<g>
		<path class="st0" d="M150.1,90.3c0,0.2,0,0.3,0.7,0.3h0.3v0.3c-0.2,0-1,0-1.2,0c-0.3,0-1.1,0-1.2,0v-0.3h0.3
			c0.7,0,0.7-0.1,0.7-0.3v-3.6c-0.4,0.2-0.8,0.2-1,0.2v-0.3c0.3,0,0.9,0,1.4-0.4c0.2,0,0.2,0,0.2,0.2V90.3z"/>
	</g>
	<g>
		<path class="st0" d="M152.9,90.8c-0.2,0-0.4-0.2-0.4-0.4c0-0.2,0.2-0.4,0.4-0.4c0.3,0,0.5,0.3,0.5,0.8c0,0.8-0.6,1.4-0.7,1.4
			c0,0-0.1,0-0.1-0.1c0,0,0-0.1,0-0.1c0.5-0.4,0.5-0.9,0.5-1.3C153.2,90.7,153,90.8,152.9,90.8z"/>
	</g>
	<g>
		<path class="st0" d="M157.4,90.8h-2.9c0-0.2,0-0.2,0.1-0.3l1.7-1.7c0.2-0.3,0.7-0.7,0.7-1.3c0-0.6-0.4-1.1-1.1-1.1
			c-0.3,0-0.8,0.2-1,0.6c0.4,0,0.4,0.2,0.4,0.4c0,0.3-0.2,0.4-0.4,0.4c-0.1,0-0.4,0-0.4-0.4c0-0.6,0.6-1.2,1.5-1.2
			c0.9,0,1.6,0.5,1.6,1.4c0,0.7-0.5,1.1-1,1.5c-0.4,0.3-0.7,0.5-1.4,1.2h1.3c0.1,0,0.6,0,0.7,0c0.1-0.1,0.2-0.5,0.2-0.6h0.2
			L157.4,90.8z"/>
	</g>
	<polyline points="312.4,25.8 316.9,23.6 312.4,21.3 313.5,23.6 	"/>
	<line class="st1" x1="246" y1="23.6" x2="313.5" y2="23.6"/>
	<g>
		<path class="st0" d="M270.2,86.5c0,0.1,0,0.2,0,0.2c0,0.2,0.1,0.2,0.4,0.2c0.3,0,0.4,0,0.6,0c0.3,0,0.3,0,0.3,0.1
			c0,0.2-0.1,0.2-0.2,0.2c-0.3,0-0.6,0-0.9,0c-0.3,0-0.5,0-0.8,0c-0.3,0-0.6,0-0.8,0c-0.3,0-0.5,0-0.8,0c-0.1,0-0.2,0-0.2-0.1
			c0-0.2,0.1-0.2,0.4-0.2c1.1,0,1.1-0.1,1.2-0.5l1.3-5.3c0,0,0-0.1,0-0.2c0-0.1,0-0.1-0.3-0.1H270c-1.5,0-1.7,0.2-2.3,1.7
			c-0.1,0.2-0.1,0.2-0.2,0.2c-0.1,0-0.1,0-0.1-0.1c0,0,0-0.2,0.1-0.2l0.6-1.8c0.1-0.2,0.1-0.2,0.3-0.2h5.5c0.2,0,0.3,0,0.3,0.1
			c0,0,0,0.1,0,0.2l-0.3,1.7c0,0.1,0,0.2-0.1,0.2c-0.1,0-0.1-0.1-0.1-0.1c0,0,0-0.2,0-0.2c0-0.3,0.1-0.6,0.1-0.8
			c0-0.8-0.4-0.8-1.5-0.8c-0.2,0-0.5,0-0.6,0c-0.1,0-0.2,0.1-0.2,0.4L270.2,86.5z"/>
	</g>
	<polygon class="st1" points="260.2,83.8 260.2,90.9 281.5,90.9 281.5,76.7 260.2,76.7 	"/>
	<polyline points="268.6,72.2 270.8,76.7 273.1,72.2 270.8,73.3 	"/>
	<path class="st1" d="M270.8,55.5v17.9 M270.8,105.1V90.9"/>
	<polyline points="287.6,107.3 292.1,105.1 287.6,102.8 288.7,105.1 	"/>
	<line class="st1" x1="270.8" y1="105.1" x2="288.7" y2="105.1"/>
	<g>
		<path class="st0" d="M295.7,108.4c-1.8,0-3.3-1.5-3.3-3.3c0-1.8,1.5-3.3,3.3-3.3c1.8,0,3.3,1.5,3.3,3.3
			C299,106.9,297.5,108.4,295.7,108.4z M295.5,105.1l-2.1-2.1c-0.5,0.6-0.8,1.3-0.8,2.1c0,0.6,0.2,1.4,0.8,2.1L295.5,105.1z
			 M295.7,105.3l-2.1,2.1c0.8,0.8,1.7,0.8,2.1,0.8c1.3,0,2.1-0.8,2.1-0.8c0,0-0.1-0.1-0.1-0.1L295.7,105.3z M295.7,104.9l2.1-2.1
			c-0.8-0.8-1.7-0.8-2.1-0.8c-1.3,0-2.1,0.8-2.1,0.8c0,0,0.1,0.1,0.1,0.1L295.7,104.9z M295.9,105.1l2.1,2.1
			c0.5-0.6,0.8-1.3,0.8-2.1c0-0.8-0.3-1.6-0.8-2.1L295.9,105.1z"/>
	</g>
	<polyline points="297.9,113.2 295.6,108.6 293.4,113.2 295.6,112 	"/>
	<line class="st1" x1="295.6" y1="119.3" x2="295.6" y2="112"/>
	<g>
		<path class="st0" d="M288.2,124.4c0.4,0.2,0.7,0.8,0.7,1.5c0,0.7-0.3,1.4-0.8,1.8c-0.4,0.4-1.2,0.8-1.9,0.8s-1.2-0.4-1.4-1
			l-0.7,2.8c0,0,0,0-0.1,0c-0.1,0-0.1-0.1-0.1-0.1l1.6-6.3c0.2-0.8,0.7-1.7,1.3-2.1c0.3-0.3,0.6-0.4,1.2-0.4c0.8,0,1.4,0.6,1.4,1.4
			C289.4,123.4,288.8,124,288.2,124.4z M287.9,121.6c-1.2,0-1.9,1.6-2.1,2.4l-0.6,2.5c0,0.2,0,0.3,0,0.4c0,0.7,0.4,1.3,1.1,1.3
			c0.6,0,1.2-0.4,1.6-0.9c0.3-0.4,0.5-1.1,0.5-1.7c0-0.5-0.1-0.8-0.4-1.1c-0.3,0.1-0.4,0.1-0.8,0.1c-0.2,0-0.7,0-0.7-0.2
			c0-0.3,0.6-0.3,0.8-0.3c0.3,0,0.5,0,0.8,0.1c0.5-0.3,0.9-1,0.9-1.7C288.8,121.9,288.5,121.6,287.9,121.6z M287.1,124.3
			c-0.1,0-0.5,0-0.5,0.1c0.1,0,0.3,0,0.4,0c0.2,0,0.3,0,0.5-0.1C287.4,124.3,287.4,124.3,287.1,124.3z"/>
	</g>
	<g>
		<path class="st0" d="M292.6,129.8h-2.9c0-0.2,0-0.2,0.1-0.3l1.7-1.7c0.2-0.3,0.7-0.7,0.7-1.3c0-0.6-0.4-1.1-1.1-1.1
			c-0.3,0-0.8,0.2-1,0.6c0.4,0,0.4,0.2,0.4,0.4c0,0.3-0.2,0.4-0.4,0.4c-0.1,0-0.4,0-0.4-0.4c0-0.6,0.6-1.2,1.5-1.2
			c0.9,0,1.6,0.5,1.6,1.4c0,0.7-0.5,1.1-1,1.5c-0.4,0.3-0.7,0.5-1.4,1.2h1.3c0.1,0,0.6,0,0.7,0c0.1-0.1,0.2-0.5,0.2-0.6h0.2
			L292.6,129.8z"/>
	</g>
	<g>
		<path class="st0" d="M294.4,129.8c-0.2,0-0.4-0.2-0.4-0.4c0-0.2,0.2-0.4,0.4-0.4c0.3,0,0.5,0.3,0.5,0.8c0,0.8-0.6,1.4-0.7,1.4
			c0,0-0.1,0-0.1-0.1c0,0,0-0.1,0-0.1c0.5-0.4,0.5-0.9,0.5-1.3C294.7,129.7,294.6,129.8,294.4,129.8z"/>
		<path class="st0" d="M301.8,129.3c0,0,0,0.1,0,0.2c0,0.1,0,0.1,0.2,0.1c0.1,0,0.3,0,0.3,0c0.1,0,0.2,0,0.2,0.1
			c0,0.2-0.1,0.2-0.1,0.2c-0.2,0-0.7,0-0.9,0c-0.1,0-0.3,0-0.4,0s-0.3,0-0.4,0c-0.1,0-0.1-0.1-0.1-0.1c0-0.2,0.1-0.2,0.2-0.2
			c0.5,0,0.6-0.1,0.6-0.3l1-3.9l0,0l-2.9,4.3c0,0.1-0.1,0.2-0.2,0.2c-0.1,0-0.1-0.1-0.1-0.2l-0.7-4.2h0l-0.9,3.7c0,0.1,0,0.1,0,0.2
			c0,0.1,0,0.3,0.4,0.3c0.1,0,0.2,0,0.2,0.1c0,0.2-0.1,0.2-0.1,0.2c-0.2,0-0.6,0-0.7,0c-0.2,0-0.5,0-0.7,0c-0.1,0-0.1-0.1-0.1-0.1
			c0-0.1,0.1-0.2,0.1-0.2c0.6,0,0.7-0.3,0.7-0.5l0.9-3.5c0-0.1,0-0.1,0-0.2c0-0.1,0-0.1-0.2-0.1c-0.1,0-0.2,0-0.3,0
			c-0.2,0-0.2,0-0.2-0.1c0-0.2,0.1-0.2,0.2-0.2h1c0.2,0,0.2,0,0.2,0.2l0.7,3.9l2.7-4c0.1-0.1,0.1-0.1,0.3-0.1h0.9
			c0.1,0,0.2,0,0.2,0.1c0,0.1-0.1,0.1-0.2,0.1c-0.5,0-0.5,0.1-0.6,0.3L301.8,129.3z"/>
	</g>
	<g>
		<path class="st0" d="M305.2,128.7c-0.7,0-0.7,0.4-0.7,0.4c0,0.2,0.2,0.2,0.6,0.3c0.3,0,0.8,0.1,0.8,0.6c0,0.2-0.2,0.8-1.2,0.8
			c-0.1,0-0.9,0-0.9-0.5c0-0.2,0.1-0.4,0.3-0.4c0.1,0,0.2,0.1,0.2,0.2c0,0.1-0.1,0.3-0.3,0.3c0.2,0.2,0.5,0.2,0.7,0.2
			c0.9,0,0.9-0.5,0.9-0.5c0-0.3-0.3-0.3-0.7-0.4c-0.3,0-0.4-0.1-0.6-0.2c-0.1-0.1-0.2-0.2-0.2-0.4c0-0.2,0.2-0.7,1-0.7
			c0.4,0,0.8,0.1,0.8,0.4c0,0.3-0.2,0.3-0.3,0.3c-0.1,0-0.2-0.1-0.2-0.2c0,0,0-0.2,0.2-0.2C305.6,128.8,305.3,128.7,305.2,128.7z"/>
	</g>
	<g>
		<path class="st0" d="M320.5,69.4c-1.8,0-3.3-1.5-3.3-3.3c0-1.8,1.5-3.3,3.3-3.3c1.8,0,3.3,1.5,3.3,3.3
			C323.8,67.9,322.3,69.4,320.5,69.4z M320.3,66v-2.9c-1.6,0.1-2.8,1.3-2.9,2.9H320.3z M320.3,66.2h-2.9c0.1,1.7,1.4,2.9,2.9,3V66.2
			z M320.6,66h3c-0.1-1.7-1.4-2.9-3-2.9V66z M320.6,66.2v3c1.5-0.1,2.9-1.2,3-3H320.6z"/>
	</g>
	<polyline points="287.6,68.4 292.1,66.1 287.6,63.8 288.7,66.1 	"/>
	<line class="st1" x1="270.8" y1="66.1" x2="288.7" y2="66.1"/>
	<polyline points="312.4,68.4 316.9,66.1 312.4,63.8 313.5,66.1 	"/>
	<line class="st1" x1="299.2" y1="66.1" x2="313.5" y2="66.1"/>
	<polyline points="322.7,74.2 320.4,69.6 318.2,74.2 320.4,73 	"/>
	<path class="st1" d="M320.4,105.1l0-32 M299.2,105.1h21.3"/>
	<polyline points="322.7,31.7 320.4,27.1 318.2,31.7 320.4,30.5 	"/>
	<line class="st1" x1="320.4" y1="62.6" x2="320.4" y2="30.5"/>
	<g>
		<path class="st0" d="M320.5,26.9c-1.8,0-3.3-1.5-3.3-3.3c0-1.8,1.5-3.3,3.3-3.3c1.8,0,3.3,1.5,3.3,3.3
			C323.8,25.4,322.3,26.9,320.5,26.9z M320.3,23.5v-2.9c-1.6,0.1-2.8,1.3-2.9,2.9H320.3z M320.3,23.7h-2.9c0.1,1.7,1.4,2.9,2.9,2.9
			V23.7z M320.6,23.5h3c-0.1-1.7-1.4-2.9-3-2.9V23.5z M320.6,23.7v2.9c1.5-0.1,2.9-1.2,3-2.9H320.6z"/>
	</g>
	<g>
		<path class="st0" d="M270.2,51.1c0,0.1,0,0.2,0,0.2c0,0.2,0.1,0.2,0.4,0.2c0.3,0,0.4,0,0.6,0c0.3,0,0.3,0,0.3,0.1
			c0,0.2-0.1,0.2-0.2,0.2c-0.3,0-0.6,0-0.9,0c-0.3,0-0.5,0-0.8,0c-0.3,0-0.6,0-0.8,0c-0.3,0-0.5,0-0.8,0c-0.1,0-0.2,0-0.2-0.1
			c0-0.2,0.1-0.2,0.4-0.2c1.1,0,1.1-0.1,1.2-0.5l1.3-5.3c0,0,0-0.1,0-0.2c0-0.1,0-0.1-0.3-0.1H270c-1.5,0-1.7,0.2-2.3,1.7
			c-0.1,0.2-0.1,0.2-0.2,0.2c-0.1,0-0.1,0-0.1-0.1c0,0,0-0.2,0.1-0.2l0.6-1.8c0.1-0.2,0.1-0.2,0.3-0.2h5.5c0.2,0,0.3,0,0.3,0.1
			c0,0,0,0.1,0,0.2l-0.3,1.7c0,0.1,0,0.2-0.1,0.2c-0.1,0-0.1-0.1-0.1-0.1c0,0,0-0.1,0-0.2c0-0.3,0.1-0.6,0.1-0.8
			c0-0.8-0.4-0.8-1.5-0.8c-0.2,0-0.5,0-0.6,0c-0.1,0-0.2,0.1-0.2,0.4L270.2,51.1z"/>
	</g>
	<polygon class="st1" points="260.2,48.4 260.2,55.5 281.5,55.5 281.5,41.3 260.2,41.3 	"/>
	<polyline points="268.6,36.8 270.8,41.3 273.1,36.8 270.8,37.9 	"/>
	<line class="st1" x1="270.8" y1="23.6" x2="270.8" y2="37.9"/>
	<g>
		<path class="st0" d="M295.7,69.4c-1.8,0-3.3-1.5-3.3-3.3c0-1.8,1.5-3.3,3.3-3.3c1.8,0,3.3,1.5,3.3,3.3
			C299,67.9,297.5,69.4,295.7,69.4z M295.5,66.1l-2.1-2.1c-0.5,0.6-0.8,1.3-0.8,2.1c0,0.6,0.2,1.4,0.8,2.1L295.5,66.1z M295.7,66.3
			l-2.1,2.1c0.8,0.8,1.7,0.8,2.1,0.8c1.3,0,2.1-0.8,2.1-0.8c0,0-0.1-0.1-0.1-0.1L295.7,66.3z M295.7,66l2.1-2.1
			c-0.8-0.8-1.7-0.8-2.1-0.8c-1.3,0-2.1,0.8-2.1,0.8c0,0,0.1,0.1,0.1,0.1L295.7,66z M295.9,66.1l2.1,2.1c0.5-0.6,0.8-1.3,0.8-2.1
			c0-0.8-0.3-1.6-0.8-2.1L295.9,66.1z"/>
	</g>
	<polyline points="297.9,74.2 295.6,69.6 293.4,74.2 295.6,73 	"/>
	<line class="st1" x1="295.6" y1="80.3" x2="295.6" y2="73"/>
	<g>
		<path class="st0" d="M288.2,85.4c0.4,0.2,0.7,0.8,0.7,1.5c0,0.7-0.3,1.4-0.8,1.8c-0.4,0.4-1.2,0.8-1.9,0.8s-1.2-0.4-1.4-1
			l-0.7,2.8c0,0,0,0-0.1,0c-0.1,0-0.1-0.1-0.1-0.1l1.6-6.3c0.2-0.8,0.7-1.7,1.3-2.1c0.3-0.3,0.6-0.4,1.2-0.4c0.8,0,1.4,0.6,1.4,1.4
			C289.4,84.4,288.8,85.1,288.2,85.4z M287.9,82.6c-1.2,0-1.9,1.6-2.1,2.4l-0.6,2.5c0,0.2,0,0.3,0,0.4c0,0.7,0.4,1.3,1.1,1.3
			c0.6,0,1.2-0.4,1.6-0.9c0.3-0.4,0.5-1.1,0.5-1.7c0-0.5-0.1-0.8-0.4-1.1c-0.3,0.1-0.4,0.1-0.8,0.1c-0.2,0-0.7,0-0.7-0.2
			c0-0.3,0.6-0.3,0.8-0.3c0.3,0,0.5,0,0.8,0.1c0.5-0.3,0.9-1,0.9-1.7C288.8,82.9,288.5,82.6,287.9,82.6z M287.1,85.3
			c-0.1,0-0.5,0-0.5,0.1c0.1,0,0.3,0,0.4,0c0.2,0,0.3,0,0.5-0.1C287.4,85.3,287.4,85.3,287.1,85.3z"/>
	</g>
	<g>
		<path class="st0" d="M291.6,90.3c0,0.2,0,0.3,0.7,0.3h0.3v0.3c-0.2,0-1,0-1.2,0c-0.3,0-1.1,0-1.2,0v-0.3h0.3
			c0.7,0,0.7-0.1,0.7-0.3v-3.6c-0.4,0.2-0.8,0.2-1,0.2v-0.3c0.3,0,0.9,0,1.4-0.4c0.2,0,0.2,0,0.2,0.2V90.3z"/>
	</g>
	<g>
		<path class="st0" d="M294.4,90.8c-0.2,0-0.4-0.2-0.4-0.4c0-0.2,0.2-0.4,0.4-0.4c0.3,0,0.5,0.3,0.5,0.8c0,0.8-0.6,1.4-0.7,1.4
			c0,0-0.1,0-0.1-0.1c0,0,0-0.1,0-0.1c0.5-0.4,0.5-0.9,0.5-1.3C294.7,90.7,294.6,90.8,294.4,90.8z"/>
		<path class="st0" d="M301.8,90.3c0,0,0,0.1,0,0.2c0,0.1,0,0.1,0.2,0.1c0.1,0,0.3,0,0.3,0c0.1,0,0.2,0,0.2,0.1
			c0,0.2-0.1,0.2-0.1,0.2c-0.2,0-0.7,0-0.9,0c-0.1,0-0.3,0-0.4,0s-0.3,0-0.4,0c-0.1,0-0.1-0.1-0.1-0.1c0-0.2,0.1-0.2,0.2-0.2
			c0.5,0,0.6-0.1,0.6-0.3l1-3.9l0,0l-2.9,4.3c0,0.1-0.1,0.2-0.2,0.2c-0.1,0-0.1-0.1-0.1-0.2l-0.7-4.2h0l-0.9,3.7c0,0.1,0,0.1,0,0.2
			c0,0.1,0,0.3,0.4,0.3c0.1,0,0.2,0,0.2,0.1c0,0.2-0.1,0.2-0.1,0.2c-0.2,0-0.6,0-0.7,0c-0.2,0-0.5,0-0.7,0c-0.1,0-0.1-0.1-0.1-0.1
			c0-0.1,0.1-0.2,0.1-0.2c0.6,0,0.7-0.3,0.7-0.5l0.9-3.5c0-0.1,0-0.1,0-0.2c0-0.1,0-0.1-0.2-0.1c-0.1,0-0.2,0-0.3,0
			c-0.2,0-0.2,0-0.2-0.1c0-0.2,0.1-0.2,0.2-0.2h1c0.2,0,0.2,0,0.2,0.2l0.7,3.9l2.7-4c0.1-0.1,0.1-0.1,0.3-0.1h0.9
			c0.1,0,0.2,0,0.2,0.1c0,0.1-0.1,0.1-0.2,0.1c-0.5,0-0.5,0.1-0.6,0.3L301.8,90.3z"/>
	</g>
	<g>
		<path class="st0" d="M305.2,89.8c-0.7,0-0.7,0.4-0.7,0.4c0,0.2,0.2,0.2,0.6,0.3c0.3,0,0.8,0.1,0.8,0.6c0,0.2-0.2,0.8-1.2,0.8
			c-0.1,0-0.9,0-0.9-0.5c0-0.2,0.1-0.4,0.3-0.4c0.1,0,0.2,0.1,0.2,0.2c0,0.1-0.1,0.3-0.3,0.3c0.2,0.2,0.5,0.2,0.7,0.2
			c0.9,0,0.9-0.5,0.9-0.5c0-0.3-0.3-0.3-0.7-0.4c-0.3,0-0.4-0.1-0.6-0.2c-0.1-0.1-0.2-0.2-0.2-0.4c0-0.2,0.2-0.7,1-0.7
			c0.4,0,0.8,0.1,0.8,0.4c0,0.3-0.2,0.3-0.3,0.3c-0.1,0-0.2-0.1-0.2-0.2c0,0,0-0.2,0.2-0.2C305.6,89.8,305.3,89.8,305.2,89.8z"/>
	</g>
	<polyline points="337.2,25.8 341.7,23.6 337.2,21.3 338.3,23.6 	"/>
	<line class="st1" x1="324" y1="23.6" x2="338.3" y2="23.6"/>
	<polyline points="191.9,25.8 196.4,23.6 191.9,21.3 193,23.6 	"/>
	<line class="st1" x1="178.7" y1="23.6" x2="193" y2="23.6"/>
	<line class="st2" x1="200" y1="23.6" x2="242.5" y2="23.6"/>
	<polygon class="st3" points="33.4,75 33.4,133.4 104.3,133.4 104.3,16.5 33.4,16.5 	"/>
	<g>
		<path class="st0" d="M62.3,7.7c0,0.1,0,0.1,0,0.2c0,0.2,0.3,0.2,0.6,0.2c0.2,0,0.3,0,0.3,0.1c0,0.2-0.1,0.2-0.2,0.2
			c-0.2,0-0.4,0-0.6,0c-0.2,0-0.4,0-0.6,0c-0.3,0-1,0-1.3,0c0,0-0.1,0-0.1-0.1c0-0.2,0.1-0.2,0.2-0.2c0.6,0,0.8,0,0.9-0.3
			c0-0.1,0.3-1.1,0.7-2.8h-3l-0.7,2.7c0,0.1,0,0.1,0,0.2c0,0.2,0.3,0.2,0.6,0.2c0.2,0,0.3,0,0.3,0.1c0,0.2-0.1,0.2-0.2,0.2
			c-0.2,0-0.4,0-0.6,0c-0.2,0-0.4,0-0.6,0c-0.3,0-1,0-1.3,0c0,0-0.1,0-0.1-0.1c0-0.2,0.1-0.2,0.3-0.2c0.8,0,0.8-0.1,0.9-0.5l1.3-5.4
			c0-0.1,0-0.1,0-0.2c0-0.1-0.1-0.1-0.3-0.2c-0.2,0-0.4,0-0.4,0c-0.2,0-0.3,0-0.3-0.1c0-0.2,0.1-0.2,0.2-0.2c0.3,0,1,0,1.3,0
			c0.3,0,1,0,1.3,0c0,0,0.1,0,0.1,0.1c0,0.2-0.1,0.2-0.3,0.2c-0.7,0-0.7,0.1-0.8,0.5l-0.6,2.3h3l0.6-2.4c0-0.1,0-0.1,0-0.2
			c0-0.1-0.1-0.1-0.3-0.2c-0.2,0-0.4,0-0.4,0c-0.2,0-0.3,0-0.3-0.1c0-0.2,0.1-0.2,0.2-0.2c0.3,0,1,0,1.3,0c0.3,0,1,0,1.3,0
			c0,0,0.1,0,0.1,0.1c0,0.2-0.1,0.2-0.3,0.2c-0.7,0-0.7,0.1-0.8,0.5L62.3,7.7z"/>
	</g>
	<g>
		<path class="st0" d="M66.6,9.3c0,0.2,0,0.3,0.7,0.3h0.3v0.3c-0.2,0-1,0-1.2,0c-0.3,0-1.1,0-1.2,0V9.6h0.3c0.7,0,0.7-0.1,0.7-0.3
			V5.7c-0.4,0.2-0.8,0.2-1,0.2V5.6c0.3,0,0.9,0,1.4-0.4c0.2,0,0.2,0,0.2,0.2V9.3z"/>
	</g>
	<g>
		<path class="st0" d="M71.9,10.9c-0.1,0-1-0.6-1.6-1.9c-0.5-1.1-0.7-2.3-0.7-3.1c0-0.8,0.1-1.9,0.6-3c0.6-1.3,1.5-1.9,1.6-1.9
			C72,0.9,72,0.9,72,1c0,0,0,0-0.1,0.2c-1.2,1.2-1.6,3-1.6,4.7c0,1.5,0.3,3.4,1.6,4.7C72,10.7,72,10.7,71.9,10.9
			C72,10.8,72,10.9,71.9,10.9z"/>
	</g>
	<g>
		<path class="st0" d="M74.2,7.5c0.2,0,0.4,0,0.7,0.2c0.2,0.1,0.4,0.1,0.6,0.1c0.3,0,1-0.2,1.2-0.8c0-0.1,0-0.1,0.1-0.1
			c0.1,0,0.1,0,0.1,0.1c0,0.3-0.6,1.5-1.6,1.5c-0.3,0-0.5-0.2-0.6-0.4c-0.2-0.3-0.3-0.4-0.6-0.4c-0.3,0-0.6,0.3-0.8,0.6
			c-0.1,0.1-0.1,0.1-0.2,0.1c0,0-0.1,0-0.1-0.1c0-0.1,0.3-0.6,1-1.3l0.9-0.8c0.2-0.2,1-0.9,1.4-1.3c-0.3,0-0.4,0-0.8-0.1
			c-0.2-0.1-0.4-0.1-0.6-0.1c-0.1,0-0.7,0-0.8,0.5c0,0.1,0,0.1-0.1,0.1c-0.1,0-0.1-0.1-0.1-0.1C73.8,4.9,74.3,4,75,4
			c0.3,0,0.5,0.2,0.7,0.4c0.1,0.2,0.3,0.3,0.5,0.3c0.2,0,0.4-0.2,0.7-0.6C77,4,77.1,4,77.1,4c0,0,0.1,0,0.1,0.1c0,0-0.2,0.5-1.2,1.4
			c-0.4,0.4-1,0.9-1,0.9c-0.4,0.3-0.6,0.6-1.2,1.1C74,7.5,74.2,7.5,74.2,7.5z"/>
	</g>
	<g>
		<path class="st0" d="M80,8.9c-0.6,1.3-1.5,1.9-1.6,1.9c-0.1,0-0.1,0-0.1-0.1c0,0,0-0.1,0.1-0.2c1.2-1.3,1.6-3,1.6-4.7
			c0-2.1-0.6-3.7-1.5-4.7C78.3,1.1,78.3,1,78.3,1c0-0.1,0-0.1,0.1-0.1c0.1,0,1,0.6,1.6,1.9c0.5,1.1,0.7,2.3,0.7,3.1
			C80.6,6.7,80.5,7.8,80,8.9z"/>
	</g>
	<polygon class="st3" points="256.7,75 256.7,133.4 327.5,133.4 327.5,16.5 256.7,16.5 	"/>
	<g>
		<path class="st0" d="M281.8,7.7c0,0.1,0,0.1,0,0.2c0,0.2,0.3,0.2,0.6,0.2c0.2,0,0.3,0,0.3,0.1c0,0.2-0.1,0.2-0.2,0.2
			c-0.2,0-0.4,0-0.6,0c-0.2,0-0.4,0-0.6,0c-0.3,0-1,0-1.3,0c0,0-0.1,0-0.1-0.1c0-0.2,0.1-0.2,0.2-0.2c0.6,0,0.8,0,0.9-0.3
			c0-0.1,0.3-1.1,0.7-2.8h-3l-0.7,2.7c0,0.1,0,0.1,0,0.2c0,0.2,0.3,0.2,0.6,0.2c0.2,0,0.3,0,0.3,0.1c0,0.2-0.1,0.2-0.2,0.2
			c-0.2,0-0.4,0-0.6,0c-0.2,0-0.4,0-0.6,0c-0.3,0-1,0-1.3,0c0,0-0.1,0-0.1-0.1c0-0.2,0.1-0.2,0.3-0.2c0.8,0,0.8-0.1,0.9-0.5l1.3-5.4
			c0-0.1,0-0.1,0-0.2c0-0.1-0.1-0.1-0.3-0.2c-0.2,0-0.4,0-0.4,0c-0.2,0-0.3,0-0.3-0.1c0-0.2,0.1-0.2,0.2-0.2c0.3,0,1,0,1.3,0
			c0.3,0,1,0,1.3,0c0,0,0.1,0,0.1,0.1c0,0.2-0.1,0.2-0.3,0.2c-0.7,0-0.7,0.1-0.8,0.5l-0.6,2.3h3l0.6-2.4c0-0.1,0-0.1,0-0.2
			c0-0.1-0.1-0.1-0.3-0.2c-0.2,0-0.4,0-0.4,0c-0.2,0-0.3,0-0.3-0.1c0-0.2,0.1-0.2,0.2-0.2c0.3,0,1,0,1.3,0c0.3,0,1,0,1.3,0
			c0,0,0.1,0,0.1,0.1c0,0.2-0.1,0.2-0.3,0.2c-0.7,0-0.7,0.1-0.8,0.5L281.8,7.7z"/>
	</g>
	<g>
		<path class="st0" d="M290,9.3c0,0,0,0.1,0,0.2c0,0.1,0,0.1,0.2,0.1c0.1,0,0.3,0,0.3,0c0.1,0,0.2,0,0.2,0.1c0,0.2-0.1,0.2-0.1,0.2
			c-0.2,0-0.7,0-0.9,0c-0.1,0-0.3,0-0.4,0s-0.3,0-0.4,0c-0.1,0-0.1-0.1-0.1-0.1c0-0.2,0.1-0.2,0.2-0.2c0.5,0,0.6-0.1,0.6-0.3l1-3.9
			l0,0l-2.9,4.3c0,0.1-0.1,0.2-0.2,0.2c-0.1,0-0.1-0.1-0.1-0.2l-0.7-4.2h0l-0.9,3.7c0,0.1,0,0.1,0,0.2c0,0.1,0,0.3,0.4,0.3
			c0.1,0,0.2,0,0.2,0.1c0,0.2-0.1,0.2-0.1,0.2c-0.2,0-0.6,0-0.7,0c-0.2,0-0.5,0-0.7,0c-0.1,0-0.1-0.1-0.1-0.1c0-0.1,0.1-0.2,0.1-0.2
			c0.6,0,0.7-0.3,0.7-0.5l0.9-3.5c0-0.1,0-0.1,0-0.2c0-0.1,0-0.1-0.2-0.1c-0.1,0-0.2,0-0.3,0c-0.2,0-0.2,0-0.2-0.1
			c0-0.2,0.1-0.2,0.2-0.2h1c0.2,0,0.2,0,0.2,0.2l0.7,3.9l2.7-4c0.1-0.1,0.1-0.1,0.3-0.1h0.9c0.1,0,0.2,0,0.2,0.1
			c0,0.1-0.1,0.1-0.2,0.1c-0.5,0-0.5,0.1-0.6,0.3L290,9.3z"/>
	</g>
	<g>
		<path class="st0" d="M293.4,8.8c-0.7,0-0.7,0.4-0.7,0.4c0,0.2,0.2,0.2,0.6,0.3c0.3,0,0.8,0.1,0.8,0.6c0,0.2-0.2,0.8-1.2,0.8
			c-0.1,0-0.9,0-0.9-0.5c0-0.2,0.1-0.4,0.3-0.4c0.1,0,0.2,0.1,0.2,0.2c0,0.1-0.1,0.3-0.3,0.3c0.2,0.2,0.5,0.2,0.7,0.2
			c0.9,0,0.9-0.5,0.9-0.5c0-0.3-0.3-0.3-0.7-0.4c-0.3,0-0.4-0.1-0.6-0.2c-0.1-0.1-0.2-0.2-0.2-0.4s0.2-0.7,1-0.7
			c0.4,0,0.8,0.1,0.8,0.4c0,0.3-0.2,0.3-0.3,0.3c-0.1,0-0.2-0.1-0.2-0.2c0,0,0-0.2,0.2-0.2C293.8,8.8,293.5,8.8,293.4,8.8z"/>
	</g>
	<g>
		<path class="st0" d="M298.9,10.9c-0.1,0-1-0.6-1.6-1.9c-0.5-1.1-0.7-2.3-0.7-3.1c0-0.8,0.1-1.9,0.6-3c0.6-1.3,1.5-1.9,1.6-1.9
			c0.1,0,0.1,0,0.1,0.1c0,0,0,0-0.1,0.2c-1.2,1.2-1.6,3-1.6,4.7c0,1.5,0.3,3.4,1.6,4.7C299,10.7,299,10.7,298.9,10.9
			C299,10.8,299,10.9,298.9,10.9z"/>
	</g>
	<g>
		<path class="st0" d="M301.1,7.5c0.2,0,0.4,0,0.7,0.2c0.2,0.1,0.4,0.1,0.6,0.1c0.3,0,1-0.2,1.2-0.8c0-0.1,0-0.1,0.1-0.1
			c0.1,0,0.1,0,0.1,0.1c0,0.3-0.6,1.5-1.6,1.5c-0.3,0-0.5-0.2-0.6-0.4c-0.2-0.3-0.3-0.4-0.6-0.4c-0.3,0-0.6,0.3-0.8,0.6
			c-0.1,0.1-0.1,0.1-0.2,0.1c0,0-0.1,0-0.1-0.1c0-0.1,0.3-0.6,1-1.3l0.9-0.8c0.2-0.2,1-0.9,1.4-1.3c-0.3,0-0.4,0-0.8-0.1
			c-0.2-0.1-0.4-0.1-0.6-0.1c-0.1,0-0.7,0-0.8,0.5c0,0.1,0,0.1-0.1,0.1s-0.1-0.1-0.1-0.1c0-0.2,0.5-1.1,1.2-1.1
			c0.3,0,0.5,0.2,0.7,0.4c0.1,0.2,0.3,0.3,0.5,0.3s0.4-0.2,0.7-0.6C304,4,304,4,304.1,4c0,0,0.1,0,0.1,0.1c0,0-0.2,0.5-1.2,1.4
			c-0.4,0.4-1,0.9-1,0.9c-0.4,0.3-0.6,0.6-1.2,1.1C301,7.5,301.1,7.5,301.1,7.5z"/>
	</g>
	<g>
		<path class="st0" d="M306.9,8.9c-0.6,1.3-1.5,1.9-1.6,1.9c-0.1,0-0.1,0-0.1-0.1c0,0,0-0.1,0.1-0.2c1.2-1.3,1.6-3,1.6-4.7
			c0-2.1-0.6-3.7-1.5-4.7c-0.2-0.2-0.2-0.2-0.2-0.2c0-0.1,0-0.1,0.1-0.1c0.1,0,1,0.6,1.6,1.9c0.5,1.1,0.7,2.3,0.7,3.1
			C307.6,6.7,307.5,7.8,306.9,8.9z"/>
	</g>
	<polygon class="st3" points="111.4,75 111.4,133.4 182.3,133.4 182.3,16.5 111.4,16.5 	"/>
	<g>
		<path class="st0" d="M140.2,7.7c0,0.1,0,0.1,0,0.2c0,0.2,0.3,0.2,0.6,0.2c0.2,0,0.3,0,0.3,0.1c0,0.2-0.1,0.2-0.2,0.2
			c-0.2,0-0.4,0-0.6,0c-0.2,0-0.4,0-0.6,0c-0.3,0-1,0-1.3,0c0,0-0.1,0-0.1-0.1c0-0.2,0.1-0.2,0.2-0.2c0.6,0,0.8,0,0.9-0.3
			c0-0.1,0.3-1.1,0.7-2.8h-3l-0.7,2.7c0,0.1,0,0.1,0,0.2c0,0.2,0.3,0.2,0.6,0.2c0.2,0,0.3,0,0.3,0.1c0,0.2-0.1,0.2-0.2,0.2
			c-0.2,0-0.4,0-0.6,0c-0.2,0-0.4,0-0.6,0c-0.3,0-1,0-1.3,0c0,0-0.1,0-0.1-0.1c0-0.2,0.1-0.2,0.3-0.2c0.8,0,0.8-0.1,0.9-0.5l1.3-5.4
			c0-0.1,0-0.1,0-0.2c0-0.1-0.1-0.1-0.3-0.2c-0.2,0-0.4,0-0.4,0c-0.2,0-0.3,0-0.3-0.1c0-0.2,0.1-0.2,0.2-0.2c0.3,0,1,0,1.3,0
			c0.3,0,1,0,1.3,0c0,0,0.1,0,0.1,0.1c0,0.2-0.1,0.2-0.3,0.2c-0.7,0-0.7,0.1-0.8,0.5l-0.6,2.3h3l0.6-2.4c0-0.1,0-0.1,0-0.2
			c0-0.1-0.1-0.1-0.3-0.2c-0.2,0-0.4,0-0.4,0c-0.2,0-0.3,0-0.3-0.1c0-0.2,0.1-0.2,0.2-0.2c0.3,0,1,0,1.3,0c0.3,0,1,0,1.3,0
			c0,0,0.1,0,0.1,0.1c0,0.2-0.1,0.2-0.3,0.2c-0.7,0-0.7,0.1-0.8,0.5L140.2,7.7z"/>
	</g>
	<g>
		<path class="st0" d="M145.6,9.8h-2.9c0-0.2,0-0.2,0.1-0.3l1.7-1.7c0.2-0.3,0.7-0.7,0.7-1.3c0-0.6-0.4-1.1-1.1-1.1
			c-0.3,0-0.8,0.2-1,0.6c0.4,0,0.4,0.2,0.4,0.4c0,0.3-0.2,0.4-0.4,0.4c-0.1,0-0.4,0-0.4-0.4c0-0.6,0.6-1.2,1.5-1.2
			c0.9,0,1.6,0.5,1.6,1.4c0,0.7-0.5,1.1-1,1.5c-0.4,0.3-0.7,0.5-1.4,1.2h1.3c0.1,0,0.6,0,0.7,0c0.1-0.1,0.2-0.5,0.2-0.6h0.2
			L145.6,9.8z"/>
	</g>
	<g>
		<path class="st0" d="M149.9,10.9c-0.1,0-1-0.6-1.6-1.9c-0.5-1.1-0.7-2.3-0.7-3.1c0-0.8,0.1-1.9,0.6-3c0.6-1.3,1.5-1.9,1.6-1.9
			c0.1,0,0.1,0,0.1,0.1c0,0,0,0-0.1,0.2c-1.2,1.2-1.6,3-1.6,4.7c0,1.5,0.3,3.4,1.6,4.7C150,10.7,150,10.7,149.9,10.9
			C150,10.8,150,10.9,149.9,10.9z"/>
	</g>
	<g>
		<path class="st0" d="M152.1,7.5c0.2,0,0.4,0,0.7,0.2c0.2,0.1,0.4,0.1,0.6,0.1c0.3,0,1-0.2,1.2-0.8c0-0.1,0-0.1,0.1-0.1
			c0.1,0,0.1,0,0.1,0.1c0,0.3-0.6,1.5-1.6,1.5c-0.3,0-0.5-0.2-0.6-0.4c-0.2-0.3-0.3-0.4-0.6-0.4c-0.3,0-0.6,0.3-0.8,0.6
			c-0.1,0.1-0.1,0.1-0.2,0.1c0,0-0.1,0-0.1-0.1c0-0.1,0.3-0.6,1-1.3l0.9-0.8c0.2-0.2,1-0.9,1.4-1.3c-0.3,0-0.4,0-0.8-0.1
			c-0.2-0.1-0.4-0.1-0.6-0.1c-0.1,0-0.7,0-0.8,0.5c0,0.1,0,0.1-0.1,0.1c-0.1,0-0.1-0.1-0.1-0.1c0-0.2,0.5-1.1,1.2-1.1
			c0.3,0,0.5,0.2,0.7,0.4c0.1,0.2,0.3,0.3,0.5,0.3c0.2,0,0.4-0.2,0.7-0.6C155,4,155,4,155.1,4c0,0,0.1,0,0.1,0.1
			c0,0-0.2,0.5-1.2,1.4c-0.4,0.4-1,0.9-1,0.9c-0.4,0.3-0.6,0.6-1.2,1.1C152,7.5,152.1,7.5,152.1,7.5z"/>
	</g>
	<g>
		<path class="st0" d="M158,8.9c-0.6,1.3-1.5,1.9-1.6,1.9c-0.1,0-0.1,0-0.1-0.1c0,0,0-0.1,0.1-0.2c1.2-1.3,1.6-3,1.6-4.7
			c0-2.1-0.6-3.7-1.5-4.7c-0.2-0.2-0.2-0.2-0.2-0.2c0-0.1,0-0.1,0.1-0.1c0.1,0,1,0.6,1.6,1.9c0.5,1.1,0.7,2.3,0.7,3.1
			C158.6,6.7,158.5,7.8,158,8.9z"/>
	</g>
	<polyline points="89.1,25.8 93.7,23.6 89.1,21.3 90.3,23.6 	"/>
	<line class="st1" x1="22.8" y1="23.6" x2="90.3" y2="23.6"/>
	<g>
		<path class="st0" d="M46.9,86.5c0,0.1,0,0.2,0,0.2c0,0.2,0.1,0.2,0.4,0.2c0.3,0,0.4,0,0.6,0c0.3,0,0.3,0,0.3,0.1
			c0,0.2-0.1,0.2-0.2,0.2c-0.3,0-0.6,0-0.9,0c-0.3,0-0.5,0-0.8,0c-0.3,0-0.6,0-0.8,0c-0.3,0-0.5,0-0.8,0c-0.1,0-0.2,0-0.2-0.1
			c0-0.2,0.1-0.2,0.4-0.2c1.1,0,1.1-0.1,1.2-0.5l1.3-5.3c0,0,0-0.1,0-0.2c0-0.1,0-0.1-0.3-0.1h-0.4c-1.5,0-1.7,0.2-2.3,1.7
			c-0.1,0.2-0.1,0.2-0.2,0.2c-0.1,0-0.1,0-0.1-0.1c0,0,0-0.2,0.1-0.2l0.6-1.8c0.1-0.2,0.1-0.2,0.3-0.2h5.5c0.2,0,0.3,0,0.3,0.1
			c0,0,0,0.1,0,0.2l-0.3,1.7c0,0.1,0,0.2-0.1,0.2c-0.1,0-0.1-0.1-0.1-0.1c0,0,0-0.2,0-0.2c0-0.3,0.1-0.6,0.1-0.8
			c0-0.8-0.4-0.8-1.5-0.8c-0.2,0-0.5,0-0.6,0c-0.1,0-0.2,0.1-0.2,0.4L46.9,86.5z"/>
	</g>
	<polygon class="st1" points="37,83.8 37,90.9 58.2,90.9 58.2,76.7 37,76.7 	"/>
	<polyline points="45.3,72.2 47.6,76.7 49.9,72.2 47.6,73.3 	"/>
	<path class="st1" d="M47.6,55.5v17.9 M47.6,105.1V90.9"/>
	<polyline points="64.3,107.3 68.9,105.1 64.3,102.8 65.5,105.1 	"/>
	<line class="st1" x1="47.6" y1="105.1" x2="65.5" y2="105.1"/>
	<g>
		<path class="st0" d="M72.4,108.4c-1.8,0-3.3-1.5-3.3-3.3c0-1.8,1.5-3.3,3.3-3.3c1.8,0,3.3,1.5,3.3,3.3
			C75.8,106.9,74.3,108.4,72.4,108.4z M72.3,105.1l-2.1-2.1c-0.5,0.6-0.8,1.3-0.8,2.1c0,0.6,0.2,1.4,0.8,2.1L72.3,105.1z
			 M72.4,105.3l-2.1,2.1c0.8,0.8,1.7,0.8,2.1,0.8c1.3,0,2.1-0.8,2.1-0.8c0,0-0.1-0.1-0.1-0.1L72.4,105.3z M72.5,104.9l2.1-2.1
			c-0.8-0.8-1.7-0.8-2.1-0.8c-1.3,0-2.1,0.8-2.1,0.8c0,0,0.1,0.1,0.1,0.1L72.5,104.9z M72.6,105.1l2.1,2.1c0.5-0.6,0.8-1.3,0.8-2.1
			c0-0.8-0.3-1.6-0.8-2.1L72.6,105.1z"/>
	</g>
	<polyline points="74.7,113.2 72.4,108.6 70.1,113.2 72.4,112 	"/>
	<line class="st1" x1="72.4" y1="119.3" x2="72.4" y2="112"/>
	<g>
		<path class="st0" d="M68.7,124.4c0.4,0.2,0.7,0.8,0.7,1.5c0,0.7-0.3,1.4-0.8,1.8c-0.4,0.4-1.2,0.8-1.9,0.8c-0.7,0-1.2-0.4-1.4-1
			l-0.7,2.8c0,0,0,0-0.1,0s-0.1-0.1-0.1-0.1l1.6-6.3c0.2-0.8,0.7-1.7,1.3-2.1c0.3-0.3,0.6-0.4,1.2-0.4c0.8,0,1.4,0.6,1.4,1.4
			C69.9,123.4,69.3,124,68.7,124.4z M68.4,121.6c-1.2,0-1.9,1.6-2.1,2.4l-0.6,2.5c0,0.2,0,0.3,0,0.4c0,0.7,0.4,1.3,1.1,1.3
			c0.6,0,1.2-0.4,1.6-0.9c0.3-0.4,0.5-1.1,0.5-1.7c0-0.5-0.1-0.8-0.4-1.1c-0.3,0.1-0.4,0.1-0.8,0.1c-0.2,0-0.7,0-0.7-0.2
			c0-0.3,0.6-0.3,0.8-0.3c0.3,0,0.5,0,0.8,0.1c0.5-0.3,0.9-1,0.9-1.7C69.3,121.9,69,121.6,68.4,121.6z M67.6,124.3
			c-0.1,0-0.5,0-0.5,0.1c0.1,0,0.3,0,0.4,0c0.2,0,0.3,0,0.5-0.1C67.9,124.3,67.8,124.3,67.6,124.3z"/>
	</g>
	<g>
		<path class="st0" d="M73.1,129.8h-2.9c0-0.2,0-0.2,0.1-0.3l1.7-1.7c0.2-0.3,0.7-0.7,0.7-1.3c0-0.6-0.4-1.1-1.1-1.1
			c-0.3,0-0.8,0.2-1,0.6c0.4,0,0.4,0.2,0.4,0.4c0,0.3-0.2,0.4-0.4,0.4c-0.1,0-0.4,0-0.4-0.4c0-0.6,0.6-1.2,1.5-1.2
			c0.9,0,1.6,0.5,1.6,1.4c0,0.7-0.5,1.1-1,1.5c-0.4,0.3-0.7,0.5-1.4,1.2h1.3c0.1,0,0.6,0,0.7,0c0.1-0.1,0.2-0.5,0.2-0.6h0.2
			L73.1,129.8z"/>
	</g>
	<g>
		<path class="st0" d="M74.9,129.8c-0.2,0-0.4-0.2-0.4-0.4c0-0.2,0.2-0.4,0.4-0.4c0.3,0,0.5,0.3,0.5,0.8c0,0.8-0.6,1.4-0.7,1.4
			c0,0-0.1,0-0.1-0.1c0,0,0-0.1,0-0.1c0.5-0.4,0.5-0.9,0.5-1.3C75.2,129.7,75.1,129.8,74.9,129.8z"/>
	</g>
	<g>
		<path class="st0" d="M78.5,129.2c0,0.2,0,0.3,0.7,0.3h0.3v0.3c-0.2,0-1,0-1.2,0c-0.3,0-1.1,0-1.2,0v-0.3h0.3
			c0.7,0,0.7-0.1,0.7-0.3v-3.6c-0.4,0.2-0.8,0.2-1,0.2v-0.3c0.3,0,0.9,0,1.4-0.4c0.2,0,0.2,0,0.2,0.2V129.2z"/>
	</g>
	<g>
		<path class="st0" d="M97.2,69.4c-1.8,0-3.3-1.5-3.3-3.3c0-1.8,1.5-3.3,3.3-3.3c1.8,0,3.3,1.5,3.3,3.3
			C100.6,67.9,99.1,69.4,97.2,69.4z M97.1,66v-2.9c-1.6,0.1-2.8,1.3-2.9,2.9H97.1z M97.1,66.2h-2.9c0.1,1.7,1.4,2.9,2.9,3V66.2z
			 M97.4,66h2.9c-0.1-1.7-1.4-2.9-2.9-2.9V66z M97.4,66.2v3c1.5-0.1,2.8-1.2,2.9-3H97.4z"/>
	</g>
	<polyline points="64.3,68.4 68.9,66.1 64.3,63.8 65.5,66.1 	"/>
	<line class="st1" x1="47.6" y1="66.1" x2="65.5" y2="66.1"/>
	<polyline points="89.1,68.4 93.7,66.1 89.1,63.8 90.3,66.1 	"/>
	<line class="st1" x1="76" y1="66.1" x2="90.3" y2="66.1"/>
	<polyline points="99.5,74.2 97.2,69.6 94.9,74.2 97.2,73 	"/>
	<path class="st1" d="M97.2,105.1V73 M76,105.1h21.3"/>
	<polyline points="99.5,31.7 97.2,27.1 94.9,31.7 97.2,30.5 	"/>
	<line class="st1" x1="97.2" y1="62.6" x2="97.2" y2="30.5"/>
	<g>
		<path class="st0" d="M97.2,26.9c-1.8,0-3.3-1.5-3.3-3.3c0-1.8,1.5-3.3,3.3-3.3c1.8,0,3.3,1.5,3.3,3.3
			C100.6,25.4,99.1,26.9,97.2,26.9z M97.1,23.5v-2.9c-1.6,0.1-2.8,1.3-2.9,2.9H97.1z M97.1,23.7h-2.9c0.1,1.7,1.4,2.9,2.9,2.9V23.7z
			 M97.4,23.5h2.9c-0.1-1.7-1.4-2.9-2.9-2.9V23.5z M97.4,23.7v2.9c1.5-0.1,2.8-1.2,2.9-2.9H97.4z"/>
	</g>
	<g>
		<path class="st0" d="M46.9,51.1c0,0.1,0,0.2,0,0.2c0,0.2,0.1,0.2,0.4,0.2c0.3,0,0.4,0,0.6,0c0.3,0,0.3,0,0.3,0.1
			c0,0.2-0.1,0.2-0.2,0.2c-0.3,0-0.6,0-0.9,0c-0.3,0-0.5,0-0.8,0c-0.3,0-0.6,0-0.8,0c-0.3,0-0.5,0-0.8,0c-0.1,0-0.2,0-0.2-0.1
			c0-0.2,0.1-0.2,0.4-0.2c1.1,0,1.1-0.1,1.2-0.5l1.3-5.3c0,0,0-0.1,0-0.2c0-0.1,0-0.1-0.3-0.1h-0.4c-1.5,0-1.7,0.2-2.3,1.7
			c-0.1,0.2-0.1,0.2-0.2,0.2c-0.1,0-0.1,0-0.1-0.1c0,0,0-0.2,0.1-0.2l0.6-1.8c0.1-0.2,0.1-0.2,0.3-0.2h5.5c0.2,0,0.3,0,0.3,0.1
			c0,0,0,0.1,0,0.2l-0.3,1.7c0,0.1,0,0.2-0.1,0.2c-0.1,0-0.1-0.1-0.1-0.1c0,0,0-0.1,0-0.2c0-0.3,0.1-0.6,0.1-0.8
			c0-0.8-0.4-0.8-1.5-0.8c-0.2,0-0.5,0-0.6,0c-0.1,0-0.2,0.1-0.2,0.4L46.9,51.1z"/>
	</g>
	<polygon class="st1" points="37,48.4 37,55.5 58.2,55.5 58.2,41.3 37,41.3 	"/>
	<polyline points="45.3,36.8 47.6,41.3 49.9,36.8 47.6,37.9 	"/>
	<line class="st1" x1="47.6" y1="23.6" x2="47.6" y2="37.9"/>
	<g>
		<path class="st0" d="M72.4,69.4c-1.8,0-3.3-1.5-3.3-3.3c0-1.8,1.5-3.3,3.3-3.3c1.8,0,3.3,1.5,3.3,3.3
			C75.8,67.9,74.3,69.4,72.4,69.4z M72.3,66.1L70.2,64c-0.5,0.6-0.8,1.3-0.8,2.1c0,0.6,0.2,1.4,0.8,2.1L72.3,66.1z M72.4,66.3
			l-2.1,2.1c0.8,0.8,1.7,0.8,2.1,0.8c1.3,0,2.1-0.8,2.1-0.8c0,0-0.1-0.1-0.1-0.1L72.4,66.3z M72.5,66l2.1-2.1
			c-0.8-0.8-1.7-0.8-2.1-0.8c-1.3,0-2.1,0.8-2.1,0.8c0,0,0.1,0.1,0.1,0.1L72.5,66z M72.6,66.1l2.1,2.1c0.5-0.6,0.8-1.3,0.8-2.1
			c0-0.8-0.3-1.6-0.8-2.1L72.6,66.1z"/>
	</g>
	<polyline points="74.7,74.2 72.4,69.6 70.1,74.2 72.4,73 	"/>
	<line class="st1" x1="72.4" y1="80.3" x2="72.4" y2="73"/>
	<g>
		<path class="st0" d="M68.7,85.4c0.4,0.2,0.7,0.8,0.7,1.5c0,0.7-0.3,1.4-0.8,1.8c-0.4,0.4-1.2,0.8-1.9,0.8c-0.7,0-1.2-0.4-1.4-1
			l-0.7,2.8c0,0,0,0-0.1,0s-0.1-0.1-0.1-0.1l1.6-6.3c0.2-0.8,0.7-1.7,1.3-2.1c0.3-0.3,0.6-0.4,1.2-0.4c0.8,0,1.4,0.6,1.4,1.4
			C69.9,84.4,69.3,85.1,68.7,85.4z M68.4,82.6c-1.2,0-1.9,1.6-2.1,2.4l-0.6,2.5c0,0.2,0,0.3,0,0.4c0,0.7,0.4,1.3,1.1,1.3
			c0.6,0,1.2-0.4,1.6-0.9c0.3-0.4,0.5-1.1,0.5-1.7c0-0.5-0.1-0.8-0.4-1.1c-0.3,0.1-0.4,0.1-0.8,0.1c-0.2,0-0.7,0-0.7-0.2
			c0-0.3,0.6-0.3,0.8-0.3c0.3,0,0.5,0,0.8,0.1c0.5-0.3,0.9-1,0.9-1.7C69.3,82.9,69,82.6,68.4,82.6z M67.6,85.3c-0.1,0-0.5,0-0.5,0.1
			c0.1,0,0.3,0,0.4,0c0.2,0,0.3,0,0.5-0.1C67.9,85.3,67.8,85.3,67.6,85.3z"/>
	</g>
	<g>
		<path class="st0" d="M72.1,90.3c0,0.2,0,0.3,0.7,0.3h0.3v0.3c-0.2,0-1,0-1.2,0c-0.3,0-1.1,0-1.2,0v-0.3h0.3c0.7,0,0.7-0.1,0.7-0.3
			v-3.6c-0.4,0.2-0.8,0.2-1,0.2v-0.3c0.3,0,0.9,0,1.4-0.4c0.2,0,0.2,0,0.2,0.2V90.3z"/>
	</g>
	<g>
		<path class="st0" d="M74.9,90.8c-0.2,0-0.4-0.2-0.4-0.4c0-0.2,0.2-0.4,0.4-0.4c0.3,0,0.5,0.3,0.5,0.8c0,0.8-0.6,1.4-0.7,1.4
			c0,0-0.1,0-0.1-0.1c0,0,0-0.1,0-0.1c0.5-0.4,0.5-0.9,0.5-1.3C75.2,90.7,75.1,90.8,74.9,90.8z"/>
	</g>
	<g>
		<path class="st0" d="M78.5,90.3c0,0.2,0,0.3,0.7,0.3h0.3v0.3c-0.2,0-1,0-1.2,0c-0.3,0-1.1,0-1.2,0v-0.3h0.3c0.7,0,0.7-0.1,0.7-0.3
			v-3.6c-0.4,0.2-0.8,0.2-1,0.2v-0.3c0.3,0,0.9,0,1.4-0.4c0.2,0,0.2,0,0.2,0.2V90.3z"/>
	</g>
</g>
</svg>
