<?xml version="1.0" encoding="utf-8"?>
<!-- Generator: Adobe Illustrator 22.1.0, SVG Export Plug-In . SVG Version: 6.00 Build 0)  -->
<svg version="1.1" id="Layer_1" xmlns="http://www.w3.org/2000/svg" xmlns:xlink="http://www.w3.org/1999/xlink" x="0px" y="0px"
	 viewBox="0 0 248.9 139" style="enable-background:new 0 0 248.9 139;" xml:space="preserve">
<style type="text/css">
	.st0{fill:#1D1D1B;}
	.st1{fill:none;stroke:#000000;stroke-width:0.8504;stroke-miterlimit:10;}
	.st2{fill:none;stroke:#FF0000;stroke-width:0.8504;stroke-linecap:round;stroke-miterlimit:10;stroke-dasharray:0,3.6683;}
	.st3{fill:none;stroke:#0000FF;stroke-width:0.8504;stroke-linecap:round;stroke-miterlimit:10;stroke-dasharray:0,3.6698;}
	.st4{fill:#FF0000;}
	.st5{fill:#0000FF;}
	.st6{fill:none;stroke:#FCFCFC;stroke-width:0.8504;stroke-miterlimit:10;}
</style>
<g>
	<g>
		<path class="st0" d="M229.8,24.2c-0.3,1.1-1.3,2-2.3,2c-0.6,0-1.1-0.4-1.1-0.9c0-0.5,0.3-0.6,0.6-0.6c0.1,0,0.4,0,0.4,0.3
			c0,0.2-0.1,0.3-0.2,0.4c-0.1,0.1-0.3,0.1-0.4,0.1c0.2,0.4,0.6,0.4,0.8,0.4c0.5,0,0.8-0.3,1.1-0.6c0.4-0.5,0.5-1,0.6-1.5
			c-0.3,0.3-0.6,0.4-1,0.4c-0.6,0-1.2-0.3-1.2-1.2c0-0.5,0.2-1,0.6-2.1c0.1-0.2,0.2-0.4,0.2-0.7c0-0.3-0.2-0.3-0.2-0.3
			c-0.3,0-0.7,0.3-1,1.2c0,0.2-0.1,0.2-0.2,0.2c0,0-0.1,0-0.1-0.1c0-0.1,0.4-1.5,1.3-1.5c0.5,0,0.8,0.4,0.8,0.8c0,0.2,0,0.3-0.2,0.7
			c-0.3,0.9-0.5,1.5-0.5,2c0,0.4,0.1,0.8,0.6,0.8c0.7,0,1.1-0.7,1.1-0.8l0.4-1.8c0.1-0.3,0.1-0.5,0.2-0.8c0-0.2,0.1-0.5,0.1-0.5
			c0.1-0.1,0.2-0.2,0.3-0.2c0.1,0,0.3,0.1,0.3,0.3c0,0.1,0,0.1,0,0.2L229.8,24.2z"/>
	</g>
	<g>
		<path class="st0" d="M232.4,26.6v-10h1.4v0.4h-1v9.2h1v0.4H232.4z"/>
	</g>
	<g>
		<path class="st0" d="M235.4,21.3c0.1-0.5,0.2-0.6,0.2-0.8c0-0.3-0.1-0.5-0.3-0.5c-0.4,0-0.6,0.5-0.7,1.2c-0.1,0.2-0.1,0.2-0.2,0.2
			c0,0-0.1,0-0.1-0.1c0,0,0.1-0.6,0.3-1c0.1-0.2,0.3-0.6,0.7-0.6c0.5,0,0.9,0.3,0.9,0.9c0.2-0.2,0.7-0.9,1.6-0.9
			c0.7,0,1.1,0.4,1.1,1.1c0,0.6-0.4,1.7-0.6,2.2c-0.1,0.2-0.2,0.5-0.2,0.7c0,0.2,0.1,0.3,0.2,0.3c0.5,0,0.8-0.6,1-1.2
			c0.1-0.1,0.1-0.2,0.2-0.2c0,0,0.1,0,0.1,0.1c0,0.1-0.4,1.5-1.3,1.5c-0.5,0-0.8-0.3-0.8-0.8c0-0.1,0-0.2,0.1-0.5
			c0.2-0.4,0.6-1.7,0.6-2.3c0-0.3-0.1-0.7-0.5-0.7c-0.9,0-1.5,0.9-1.6,1.2c0,0-0.1,0.3-0.1,0.5c0,0.2-0.1,0.4-0.2,0.7l-0.2,0.9
			c-0.1,0.2-0.2,0.7-0.2,0.7c-0.1,0.2-0.2,0.3-0.4,0.3c-0.1,0-0.3-0.1-0.3-0.3c0-0.1,0.1-0.3,0.1-0.4L235.4,21.3z"/>
	</g>
	<g>
		<path class="st0" d="M241.5,26.6h-1.4v-0.4h1v-9.2h-1v-0.4h1.4V26.6z"/>
	</g>
	<polyline points="105.7,24 110.3,21.7 105.7,19.4 106.9,21.7 	"/>
	<line class="st1" x1="46.5" y1="21.7" x2="106.9" y2="21.7"/>
	<polyline points="68.7,54.9 64.2,57.1 68.7,59.4 67.6,57.1 	"/>
	<path class="st1" d="M67.6,57.1h10.8 M42.9,57.1h14.2"/>
	<polyline points="127,24 131.5,21.7 127,19.4 128.1,21.7 	"/>
	<line class="st1" x1="117.4" y1="21.7" x2="128.1" y2="21.7"/>
	<g>
		<path class="st0" d="M113.8,25c-1.8,0-3.3-1.5-3.3-3.3c0-1.8,1.5-3.3,3.3-3.3c1.8,0,3.3,1.5,3.3,3.3C117.2,23.5,115.7,25,113.8,25
			z M113.7,21.5v-2.9c-1.6,0.1-2.8,1.3-2.9,2.9H113.7z M113.7,21.8h-2.9c0.1,1.7,1.4,2.9,2.9,2.9V21.8z M114,21.5h2.9
			c-0.1-1.7-1.4-2.9-2.9-2.9V21.5z M114,21.8v2.9c1.5-0.1,2.8-1.2,2.9-2.9H114z"/>
	</g>
	<g>
		<path class="st0" d="M77.8,42c0,0.1,0,0.2,0,0.2c0,0.2,0.1,0.2,0.4,0.2c0.3,0,0.4,0,0.6,0c0.3,0,0.3,0,0.3,0.1
			c0,0.2-0.1,0.2-0.2,0.2c-0.3,0-0.6,0-0.9,0c-0.3,0-0.5,0-0.8,0c-0.3,0-0.6,0-0.8,0c-0.3,0-0.5,0-0.8,0c-0.1,0-0.2,0-0.2-0.1
			c0-0.2,0.1-0.2,0.4-0.2c1.1,0,1.1-0.1,1.2-0.5l1.3-5.3c0,0,0-0.1,0-0.2c0-0.1,0-0.1-0.3-0.1h-0.4c-1.5,0-1.7,0.2-2.3,1.7
			c-0.1,0.2-0.1,0.2-0.2,0.2c-0.1,0-0.1,0-0.1-0.1c0,0,0-0.2,0.1-0.2l0.6-1.8C75.8,36,75.8,36,76,36h5.5c0.2,0,0.3,0,0.3,0.1
			c0,0,0,0.1,0,0.2L81.6,38c0,0.1,0,0.2-0.1,0.2c-0.1,0-0.1-0.1-0.1-0.1c0,0,0-0.1,0-0.2c0-0.3,0.1-0.6,0.1-0.8
			c0-0.8-0.4-0.8-1.5-0.8c-0.2,0-0.5,0-0.6,0c-0.1,0-0.2,0.1-0.2,0.4L77.8,42z"/>
	</g>
	<polygon class="st1" points="67.7,39.4 67.7,46.5 89,46.5 89,32.3 67.7,32.3 	"/>
	<polyline points="76.1,27.8 78.4,32.3 80.6,27.8 78.4,28.9 	"/>
	<path class="st1" d="M78.4,21.7l0,7.2 M78.4,46.5v10.6"/>
	<polyline points="116.1,29.8 113.8,25.2 111.5,29.8 113.8,28.6 	"/>
	<line class="st1" x1="113.8" y1="57.1" x2="113.8" y2="28.6"/>
	<polyline points="88,59.4 92.6,57.1 88,54.9 89.1,57.1 	"/>
	<path class="st1" d="M78.4,57.1h10.8 M99.6,57.1h14.2"/>
	<g>
		<path class="st0" d="M96.1,60.4c-1.8,0-3.3-1.5-3.3-3.3c0-1.8,1.5-3.3,3.3-3.3c1.8,0,3.3,1.5,3.3,3.3
			C99.4,58.9,97.9,60.4,96.1,60.4z M95.9,57L93.8,55C93.3,55.5,93,56.3,93,57c0,0.6,0.2,1.4,0.8,2.1L95.9,57z M96.1,57.2L94,59.3
			c0.8,0.8,1.7,0.8,2.1,0.8c1.3,0,2.1-0.8,2.1-0.8c0,0-0.1-0.1-0.1-0.1L96.1,57.2z M96.1,56.9l2.1-2.1C97.4,54,96.4,54,96.1,54
			c-1.3,0-2.1,0.8-2.1,0.8c0,0,0.1,0.1,0.1,0.1L96.1,56.9z M96.3,57l2.1,2.1c0.5-0.6,0.8-1.3,0.8-2.1c0-0.8-0.3-1.6-0.8-2.1L96.3,57
			z"/>
	</g>
	<g>
		<path class="st0" d="M93.2,79.1c0,1-0.9,1.9-2.1,1.9c-1.1,0-2-0.7-2-1.6c0-0.4,0.3-0.6,0.6-0.6c0.3,0,0.6,0.2,0.6,0.6
			c0,0.4-0.3,0.6-0.7,0.5c0.3,0.6,1.1,0.8,1.5,0.8c0.4,0,1.1-0.3,1.1-1.6c0-1-0.4-1.7-1.2-1.7h-0.4c-0.2,0-0.2,0-0.2-0.1
			c0-0.1,0.1-0.1,0.1-0.1c0.1,0,0.3,0,0.4,0c0.2,0,0.6,0,0.9-0.5c0.3-0.4,0.3-1,0.3-1.1c0-0.9-0.5-1.1-1-1.1c-0.4,0-1,0.1-1.3,0.6
			c0.1,0,0.6,0,0.6,0.5c0,0.3-0.2,0.5-0.5,0.5c-0.3,0-0.5-0.2-0.5-0.5c0-0.8,0.8-1.4,1.8-1.4c1,0,1.8,0.6,1.8,1.4
			c0,0.8-0.6,1.5-1.4,1.8C92.5,77.5,93.2,78.3,93.2,79.1z"/>
		<path class="st0" d="M94.6,83.1c0,0.1-0.1,0.2-0.2,0.2c-0.1,0-0.2-0.1-0.2-0.2c0,0,0,0,0-0.2l3.4-9.4c0-0.1,0.1-0.2,0.2-0.2
			c0.1,0,0.2,0.1,0.2,0.2c0,0,0,0,0,0.2L94.6,83.1z"/>
		<path class="st0" d="M99,79.1v-0.3l3.1-4.7c0.1-0.1,0.1-0.1,0.2-0.1c0.2,0,0.2,0.1,0.2,0.3v4.5h1v0.3h-1V80c0,0.4,0,0.5,0.8,0.5
			h0.2v0.3c-0.4,0-0.9,0-1.4,0s-0.9,0-1.3,0v-0.3h0.2c0.7,0,0.8-0.1,0.8-0.5v-0.9H99z M101.7,75.1l-2.4,3.7h2.4V75.1z"/>
	</g>
	<polyline points="98.4,65.2 96.1,60.7 93.8,65.2 96.1,64.1 	"/>
	<line class="st1" x1="96.1" y1="71.3" x2="96.1" y2="64.1"/>
	<g>
		<path class="st0" d="M60.7,60.4c-1.8,0-3.3-1.5-3.3-3.3c0-1.8,1.5-3.3,3.3-3.3c1.8,0,3.3,1.5,3.3,3.3C64,58.9,62.5,60.4,60.7,60.4
			z M60.5,57L58.4,55c-0.5,0.6-0.8,1.3-0.8,2.1c0,0.6,0.2,1.4,0.8,2.1L60.5,57z M60.7,57.2l-2.1,2.1c0.8,0.8,1.7,0.8,2.1,0.8
			c1.3,0,2.1-0.8,2.1-0.8c0,0-0.1-0.1-0.1-0.1L60.7,57.2z M60.7,56.9l2.1-2.1C62,54,61,54,60.7,54c-1.3,0-2.1,0.8-2.1,0.8
			c0,0,0.1,0.1,0.1,0.1L60.7,56.9z M60.9,57l2.1,2.1c0.5-0.6,0.8-1.3,0.8-2.1c0-0.8-0.3-1.6-0.8-2.1L60.9,57z"/>
	</g>
	<g>
		<path class="st0" d="M57.8,79.1c0,1-0.9,1.9-2.1,1.9c-1.1,0-2-0.7-2-1.6c0-0.4,0.3-0.6,0.6-0.6c0.3,0,0.6,0.2,0.6,0.6
			c0,0.4-0.3,0.6-0.7,0.5c0.3,0.6,1.1,0.8,1.5,0.8c0.4,0,1.1-0.3,1.1-1.6c0-1-0.4-1.7-1.2-1.7h-0.4c-0.2,0-0.2,0-0.2-0.1
			c0-0.1,0.1-0.1,0.1-0.1c0.1,0,0.3,0,0.4,0c0.2,0,0.6,0,0.9-0.5c0.3-0.4,0.3-1,0.3-1.1c0-0.9-0.5-1.1-1-1.1c-0.4,0-1,0.1-1.3,0.6
			c0.1,0,0.6,0,0.6,0.5c0,0.3-0.2,0.5-0.5,0.5c-0.3,0-0.5-0.2-0.5-0.5c0-0.8,0.8-1.4,1.8-1.4c1,0,1.8,0.6,1.8,1.4
			c0,0.8-0.6,1.5-1.4,1.8C57.2,77.5,57.8,78.3,57.8,79.1z"/>
		<path class="st0" d="M59.2,83.1c0,0.1-0.1,0.2-0.2,0.2c-0.1,0-0.2-0.1-0.2-0.2c0,0,0,0,0-0.2l3.4-9.4c0-0.1,0.1-0.2,0.2-0.2
			c0.1,0,0.2,0.1,0.2,0.2c0,0,0,0,0,0.2L59.2,83.1z"/>
		<path class="st0" d="M63.6,79.1v-0.3l3.1-4.7c0.1-0.1,0.1-0.1,0.2-0.1c0.2,0,0.2,0.1,0.2,0.3v4.5h1v0.3h-1V80c0,0.4,0,0.5,0.8,0.5
			H68v0.3c-0.4,0-0.9,0-1.4,0s-0.9,0-1.3,0v-0.3h0.2c0.7,0,0.8-0.1,0.8-0.5v-0.9H63.6z M66.3,75.1l-2.4,3.7h2.4V75.1z"/>
	</g>
	<polyline points="62.9,65.2 60.7,60.7 58.4,65.2 60.7,64.1 	"/>
	<line class="st1" x1="60.7" y1="71.3" x2="60.7" y2="64.1"/>
	<polyline points="45.2,29.8 42.9,25.2 40.7,29.8 42.9,28.6 	"/>
	<line class="st1" x1="42.9" y1="57.1" x2="42.9" y2="28.6"/>
	<g>
		<path class="st0" d="M42.9,25c-1.8,0-3.3-1.5-3.3-3.3c0-1.8,1.5-3.3,3.3-3.3c1.8,0,3.3,1.5,3.3,3.3C46.3,23.5,44.8,25,42.9,25z
			 M42.8,21.5v-2.9c-1.6,0.1-2.8,1.3-2.9,2.9H42.8z M42.8,21.8h-2.9c0.1,1.7,1.4,2.9,2.9,2.9V21.8z M43.1,21.5H46
			c-0.1-1.7-1.4-2.9-2.9-2.9V21.5z M43.1,21.8v2.9c1.5-0.1,2.8-1.2,2.9-2.9H43.1z"/>
	</g>
	<g>
		<path class="st0" d="M9,22.5c-0.1,0.4-0.2,0.7-0.2,0.9C8.9,23.7,9,24,9.4,24c0.3,0,1-0.2,1.3-1.3c0-0.1,0-0.1,0.1-0.1
			c0,0,0.1,0,0.1,0.1c0,0.2-0.6,1.5-1.6,1.5c-0.6,0-1-0.4-1.1-0.8c0,0.1-0.4,0.8-1,0.8c-0.4,0-0.9-0.2-0.9-0.7
			c0-0.3,0.2-0.6,0.5-0.6c0.1,0,0.4,0.1,0.4,0.3c0,0.3-0.2,0.5-0.5,0.5C7,24,7.2,24,7.3,24c0.4,0,0.8-0.4,0.9-1
			c0.4-1.4,0.5-2.1,0.5-2.4C8.8,20,8.4,20,8.2,20c-0.3,0-1,0.2-1.3,1.3c0,0.1-0.1,0.1-0.1,0.1c0,0-0.1,0-0.1-0.1
			c0-0.2,0.6-1.5,1.6-1.5c0.3,0,0.8,0.1,1.1,0.8c0.1-0.2,0.5-0.8,1-0.8c0.3,0,0.9,0.1,0.9,0.7c0,0.4-0.3,0.6-0.5,0.6
			c-0.3,0-0.4-0.2-0.4-0.3c0-0.2,0.2-0.5,0.5-0.5C10.7,20,10.4,20,10.4,20c-0.7,0-0.9,0.9-1,1.2L9,22.5z"/>
	</g>
	<g>
		<path class="st0" d="M12.9,26.6v-10h1.4v0.4h-1v9.2h1v0.4H12.9z"/>
	</g>
	<g>
		<path class="st0" d="M15.9,21.3c0.1-0.5,0.2-0.6,0.2-0.8c0-0.3-0.1-0.5-0.3-0.5c-0.4,0-0.6,0.5-0.7,1.2c-0.1,0.2-0.1,0.2-0.2,0.2
			c0,0-0.1,0-0.1-0.1c0,0,0.1-0.6,0.3-1c0.1-0.2,0.3-0.6,0.7-0.6c0.5,0,0.9,0.3,0.9,0.9c0.2-0.2,0.7-0.9,1.6-0.9
			c0.7,0,1.1,0.4,1.1,1.1c0,0.6-0.4,1.7-0.6,2.2c-0.1,0.2-0.2,0.5-0.2,0.7c0,0.2,0.1,0.3,0.2,0.3c0.5,0,0.8-0.6,1-1.2
			c0-0.1,0-0.2,0.1-0.2c0,0,0.1,0,0.1,0.1c0,0.1-0.4,1.5-1.3,1.5c-0.5,0-0.8-0.3-0.8-0.8c0-0.1,0-0.2,0.1-0.5
			c0.2-0.4,0.6-1.7,0.6-2.3c0-0.3-0.1-0.7-0.5-0.7c-0.9,0-1.5,0.9-1.6,1.2c0,0-0.1,0.3-0.1,0.5c0,0.2-0.1,0.4-0.2,0.7l-0.2,0.9
			C16,23.5,15.9,24,15.9,24c-0.1,0.2-0.2,0.3-0.4,0.3c-0.1,0-0.3-0.1-0.3-0.3c0-0.1,0.1-0.3,0.1-0.4L15.9,21.3z"/>
	</g>
	<g>
		<path class="st0" d="M22,26.6h-1.4v-0.4h1v-9.2h-1v-0.4H22V26.6z"/>
	</g>
	<polyline points="34.9,24 39.4,21.7 34.9,19.4 36,21.7 	"/>
	<line class="st1" x1="25.2" y1="21.7" x2="36" y2="21.7"/>
	<polyline points="197.9,24 202.4,21.7 197.9,19.4 199,21.7 	"/>
	<line class="st1" x1="138.6" y1="21.7" x2="199" y2="21.7"/>
	<polyline points="160.9,54.9 156.3,57.1 160.9,59.4 159.7,57.1 	"/>
	<path class="st1" d="M159.7,57.1h10.8 M138.6,57.1h10.6"/>
	<polyline points="219.1,24 223.7,21.7 219.1,19.4 220.3,21.7 	"/>
	<line class="st1" x1="209.5" y1="21.7" x2="220.3" y2="21.7"/>
	<g>
		<path class="st0" d="M206,25c-1.8,0-3.3-1.5-3.3-3.3c0-1.8,1.5-3.3,3.3-3.3c1.8,0,3.3,1.5,3.3,3.3C209.3,23.5,207.9,25,206,25z
			 M205.9,21.5v-2.9c-1.6,0.1-2.8,1.3-2.9,2.9H205.9z M205.9,21.8h-2.9c0.1,1.7,1.4,2.9,2.9,2.9V21.8z M206.1,21.5h3
			c-0.1-1.7-1.4-2.9-3-2.9V21.5z M206.1,21.8v2.9c1.5-0.1,2.9-1.2,3-2.9H206.1z"/>
	</g>
	<g>
		<path class="st0" d="M169.9,42c0,0.1,0,0.2,0,0.2c0,0.2,0.1,0.2,0.4,0.2c0.3,0,0.4,0,0.6,0c0.3,0,0.3,0,0.3,0.1
			c0,0.2-0.1,0.2-0.2,0.2c-0.3,0-0.6,0-0.9,0c-0.3,0-0.5,0-0.8,0c-0.3,0-0.6,0-0.8,0c-0.3,0-0.5,0-0.8,0c-0.1,0-0.2,0-0.2-0.1
			c0-0.2,0.1-0.2,0.4-0.2c1.1,0,1.1-0.1,1.2-0.5l1.3-5.3c0,0,0-0.1,0-0.2c0-0.1,0-0.1-0.3-0.1h-0.4c-1.5,0-1.7,0.2-2.3,1.7
			c-0.1,0.2-0.1,0.2-0.2,0.2c-0.1,0-0.1,0-0.1-0.1c0,0,0-0.2,0.1-0.2l0.6-1.8c0.1-0.2,0.1-0.2,0.3-0.2h5.5c0.2,0,0.3,0,0.3,0.1
			c0,0,0,0.1,0,0.2l-0.3,1.7c0,0.1,0,0.2-0.1,0.2c-0.1,0-0.1-0.1-0.1-0.1c0,0,0-0.1,0-0.2c0-0.3,0.1-0.6,0.1-0.8
			c0-0.8-0.4-0.8-1.5-0.8c-0.2,0-0.5,0-0.6,0c-0.1,0-0.2,0.1-0.2,0.4L169.9,42z"/>
	</g>
	<polygon class="st1" points="159.9,39.4 159.9,46.5 181.1,46.5 181.1,32.3 159.9,32.3 	"/>
	<polyline points="168.2,27.8 170.5,32.3 172.8,27.8 170.5,28.9 	"/>
	<path class="st1" d="M170.5,21.7l0,7.2 M170.5,46.5v10.6"/>
	<polyline points="208.2,29.8 205.9,25.2 203.7,29.8 205.9,28.6 	"/>
	<line class="st1" x1="205.9" y1="53.6" x2="205.9" y2="28.6"/>
	<polyline points="180.1,59.4 184.7,57.1 180.1,54.9 181.3,57.1 	"/>
	<path class="st1" d="M170.5,57.1h10.8 M191.8,57.1h10.6"/>
	<polyline points="137.3,29.8 135.1,25.2 132.8,29.8 135.1,28.6 	"/>
	<line class="st1" x1="135.1" y1="53.6" x2="135.1" y2="28.6"/>
	<g>
		<path class="st0" d="M135.1,25c-1.8,0-3.3-1.5-3.3-3.3c0-1.8,1.5-3.3,3.3-3.3c1.8,0,3.3,1.5,3.3,3.3C138.4,23.5,136.9,25,135.1,25
			z M135,21.5v-2.9c-1.6,0.1-2.8,1.3-2.9,2.9H135z M135,21.8H132c0.1,1.7,1.4,2.9,2.9,2.9V21.8z M135.2,21.5h3
			c-0.1-1.7-1.4-2.9-3-2.9V21.5z M135.2,21.8v2.9c1.5-0.1,2.9-1.2,3-2.9H135.2z"/>
	</g>
	<g>
		<path class="st0" d="M152.9,60.4c-1.8,0-3.3-1.5-3.3-3.3c0-1.8,1.5-3.3,3.3-3.3c1.8,0,3.3,1.5,3.3,3.3
			C156.2,58.9,154.7,60.4,152.9,60.4z M152.7,57l-2.1-2.1c-0.5,0.6-0.8,1.3-0.8,2.1c0,0.6,0.2,1.4,0.8,2.1L152.7,57z M152.9,57.2
			l-2.1,2.1c0.8,0.8,1.7,0.8,2.1,0.8c1.3,0,2.1-0.8,2.1-0.8c0,0-0.1-0.1-0.1-0.1L152.9,57.2z M152.9,56.9l2.1-2.1
			c-0.8-0.8-1.7-0.8-2.1-0.8c-1.3,0-2.1,0.8-2.1,0.8c0,0,0.1,0.1,0.1,0.1L152.9,56.9z M153,57l2.1,2.1c0.5-0.6,0.8-1.3,0.8-2.1
			c0-0.8-0.3-1.6-0.8-2.1L153,57z"/>
	</g>
	<g>
		<path class="st0" d="M148.7,79.6v-0.6h2.6v0.6H148.7z"/>
		<path class="st0" d="M154.9,80.7c0,0.4,0,0.5,0.9,0.5h0.3v0.3c-0.3,0-1.2,0-1.6,0s-1.3,0-1.6,0v-0.3h0.3c0.9,0,0.9-0.1,0.9-0.5
			v-5.2c-0.5,0.3-1.1,0.3-1.3,0.3v-0.3c0.3,0,1.2,0,1.8-0.6c0.2,0,0.2,0,0.2,0.3V80.7z"/>
	</g>
	<polyline points="155.1,65.2 152.8,60.7 150.5,65.2 152.8,64.1 	"/>
	<line class="st1" x1="152.8" y1="71.3" x2="152.8" y2="64.1"/>
	<g>
		<path class="st0" d="M188.2,60.4c-1.8,0-3.3-1.5-3.3-3.3c0-1.8,1.5-3.3,3.3-3.3c1.8,0,3.3,1.5,3.3,3.3
			C191.6,58.9,190.1,60.4,188.2,60.4z M188.1,57L186,55c-0.5,0.6-0.8,1.3-0.8,2.1c0,0.6,0.2,1.4,0.8,2.1L188.1,57z M188.2,57.2
			l-2.1,2.1c0.8,0.8,1.7,0.8,2.1,0.8c1.3,0,2.1-0.8,2.1-0.8c0,0-0.1-0.1-0.1-0.1L188.2,57.2z M188.3,56.9l2.1-2.1
			c-0.8-0.8-1.7-0.8-2.1-0.8c-1.3,0-2.1,0.8-2.1,0.8c0,0,0.1,0.1,0.1,0.1L188.3,56.9z M188.4,57l2.1,2.1c0.5-0.6,0.8-1.3,0.8-2.1
			c0-0.8-0.3-1.6-0.8-2.1L188.4,57z"/>
	</g>
	<g>
		<path class="st0" d="M184.3,79.6v-0.6h2.6v0.6H184.3z"/>
		<path class="st0" d="M190.4,80.7c0,0.4,0,0.5,0.9,0.5h0.3v0.3c-0.3,0-1.2,0-1.6,0s-1.3,0-1.6,0v-0.3h0.3c0.9,0,0.9-0.1,0.9-0.5
			v-5.2c-0.5,0.3-1.1,0.3-1.3,0.3v-0.3c0.3,0,1.2,0,1.8-0.6c0.2,0,0.2,0,0.2,0.3V80.7z"/>
	</g>
	<polyline points="190.5,65.2 188.2,60.7 186,65.2 188.2,64.1 	"/>
	<line class="st1" x1="188.2" y1="71.3" x2="188.2" y2="64.1"/>
	<g>
		<path class="st0" d="M206,60.4c-1.8,0-3.3-1.5-3.3-3.3c0-1.8,1.5-3.3,3.3-3.3c1.8,0,3.3,1.5,3.3,3.3
			C209.3,58.9,207.9,60.4,206,60.4z M205.9,56.9V54c-1.6,0.1-2.8,1.3-2.9,2.9H205.9z M205.9,57.2h-2.9c0.1,1.7,1.4,2.9,2.9,2.9V57.2
			z M206.1,56.9h3c-0.1-1.7-1.4-2.9-3-2.9V56.9z M206.1,57.2v2.9c1.5-0.1,2.9-1.2,3-2.9H206.1z"/>
	</g>
	<g>
		<path class="st0" d="M135.1,60.4c-1.8,0-3.3-1.5-3.3-3.3c0-1.8,1.5-3.3,3.3-3.3c1.8,0,3.3,1.5,3.3,3.3
			C138.4,58.9,136.9,60.4,135.1,60.4z M135,56.9V54c-1.6,0.1-2.8,1.3-2.9,2.9H135z M135,57.2H132c0.1,1.7,1.4,2.9,2.9,2.9V57.2z
			 M135.2,56.9h3c-0.1-1.7-1.4-2.9-3-2.9V56.9z M135.2,57.2v2.9c1.5-0.1,2.9-1.2,3-2.9H135.2z"/>
	</g>
	<g>
		<path class="st0" d="M170.6,58.7c-1.1,0-1.9-0.9-1.9-1.9c0-1,0.9-1.9,1.9-1.9c1,0,1.9,0.9,1.9,1.9
			C172.5,57.9,171.6,58.7,170.6,58.7z"/>
	</g>
	<polyline points="160.9,104.5 156.3,106.7 160.9,109 159.7,106.7 	"/>
	<path class="st1" d="M159.7,106.7h10.8 M135.1,106.7h14.2"/>
	<g>
		<path class="st0" d="M169.9,91.7c0,0.1,0,0.2,0,0.2c0,0.2,0.1,0.2,0.4,0.2c0.3,0,0.4,0,0.6,0c0.3,0,0.3,0,0.3,0.1
			c0,0.2-0.1,0.2-0.2,0.2c-0.3,0-0.6,0-0.9,0c-0.3,0-0.5,0-0.8,0c-0.3,0-0.6,0-0.8,0c-0.3,0-0.5,0-0.8,0c-0.1,0-0.2,0-0.2-0.1
			c0-0.2,0.1-0.2,0.4-0.2c1.1,0,1.1-0.1,1.2-0.5l1.3-5.3c0,0,0-0.1,0-0.2c0-0.1,0-0.1-0.3-0.1h-0.4c-1.5,0-1.7,0.2-2.3,1.7
			c-0.1,0.2-0.1,0.2-0.2,0.2c-0.1,0-0.1,0-0.1-0.1c0,0,0-0.2,0.1-0.2l0.6-1.8c0.1-0.2,0.1-0.2,0.3-0.2h5.5c0.2,0,0.3,0,0.3,0.1
			c0,0,0,0.1,0,0.2l-0.3,1.7c0,0.1,0,0.2-0.1,0.2c-0.1,0-0.1-0.1-0.1-0.1c0,0,0-0.2,0-0.2c0-0.3,0.1-0.6,0.1-0.8
			c0-0.8-0.4-0.8-1.5-0.8c-0.2,0-0.5,0-0.6,0c-0.1,0-0.2,0.1-0.2,0.4L169.9,91.7z"/>
	</g>
	<polygon class="st1" points="159.9,89 159.9,96.1 181.1,96.1 181.1,81.9 159.9,81.9 	"/>
	<polyline points="168.2,77.4 170.5,81.9 172.8,77.4 170.5,78.5 	"/>
	<path class="st1" d="M170.5,57.1l0,21.4 M170.5,96.1v10.6"/>
	<polyline points="208.2,65.2 205.9,60.7 203.7,65.2 205.9,64.1 	"/>
	<line class="st1" x1="205.9" y1="106.7" x2="205.9" y2="64.1"/>
	<polyline points="180.1,109 184.7,106.7 180.1,104.5 181.3,106.7 	"/>
	<path class="st1" d="M170.5,106.7h10.8 M191.8,106.7h14.2"/>
	<polyline points="137.3,65.2 135.1,60.7 132.8,65.2 135.1,64.1 	"/>
	<line class="st1" x1="135.1" y1="106.7" x2="135.1" y2="64.1"/>
	<g>
		<path class="st0" d="M152.9,110c-1.8,0-3.3-1.5-3.3-3.3c0-1.8,1.5-3.3,3.3-3.3c1.8,0,3.3,1.5,3.3,3.3
			C156.2,108.5,154.7,110,152.9,110z M152.7,106.7l-2.1-2.1c-0.5,0.6-0.8,1.3-0.8,2.1c0,0.6,0.2,1.4,0.8,2.1L152.7,106.7z
			 M152.9,106.9l-2.1,2.1c0.8,0.8,1.7,0.8,2.1,0.8c1.3,0,2.1-0.8,2.1-0.8c0,0-0.1-0.1-0.1-0.1L152.9,106.9z M152.9,106.6l2.1-2.1
			c-0.8-0.8-1.7-0.8-2.1-0.8c-1.3,0-2.1,0.8-2.1,0.8c0,0,0.1,0.1,0.1,0.1L152.9,106.6z M153,106.7l2.1,2.1c0.5-0.6,0.8-1.3,0.8-2.1
			c0-0.8-0.3-1.6-0.8-2.1L153,106.7z"/>
	</g>
	<g>
		<path class="st0" d="M143.8,128.6V128h2.6v0.6H143.8z"/>
		<path class="st0" d="M150,129.7c0,0.4,0,0.5,0.9,0.5h0.3v0.3c-0.3,0-1.2,0-1.6,0s-1.3,0-1.6,0v-0.3h0.3c0.9,0,0.9-0.1,0.9-0.5
			v-5.2c-0.5,0.3-1.1,0.3-1.3,0.3v-0.3c0.3,0,1.2,0,1.8-0.6c0.2,0,0.2,0,0.2,0.3V129.7z"/>
		<path class="st0" d="M153.1,132.7c0,0.1-0.1,0.2-0.2,0.2c-0.1,0-0.2-0.1-0.2-0.2c0,0,0,0,0-0.2l3.4-9.4c0-0.1,0.1-0.2,0.2-0.2
			c0.1,0,0.2,0.1,0.2,0.2c0,0,0,0,0,0.2L153.1,132.7z"/>
		<path class="st0" d="M160.2,129.7c0.2,0,0.9,0,0.9-0.1c0.1-0.1,0.2-0.6,0.2-0.9h0.2l-0.3,1.7h-3.7c0-0.2,0-0.3,0.1-0.4l1.9-2.1
			c0.5-0.6,1-1.4,1-2.2c0-0.8-0.4-1.6-1.3-1.6c-0.6,0-1.1,0.4-1.3,1c0,0,0,0,0.1,0c0.3,0,0.5,0.3,0.5,0.5c0,0.4-0.3,0.5-0.5,0.5
			c0,0-0.5,0-0.5-0.6c0-0.9,0.7-1.8,1.9-1.8c1.2,0,2.1,0.8,2.1,1.9c0,1-0.6,1.5-2.2,2.9l-1.1,1H160.2z"/>
	</g>
	<polyline points="155.1,114.8 152.8,110.3 150.5,114.8 152.8,113.7 	"/>
	<line class="st1" x1="152.8" y1="120.9" x2="152.8" y2="113.7"/>
	<g>
		<path class="st0" d="M188.2,110c-1.8,0-3.3-1.5-3.3-3.3c0-1.8,1.5-3.3,3.3-3.3c1.8,0,3.3,1.5,3.3,3.3
			C191.6,108.5,190.1,110,188.2,110z M188.1,106.7l-2.1-2.1c-0.5,0.6-0.8,1.3-0.8,2.1c0,0.6,0.2,1.4,0.8,2.1L188.1,106.7z
			 M188.2,106.9l-2.1,2.1c0.8,0.8,1.7,0.8,2.1,0.8c1.3,0,2.1-0.8,2.1-0.8c0,0-0.1-0.1-0.1-0.1L188.2,106.9z M188.3,106.6l2.1-2.1
			c-0.8-0.8-1.7-0.8-2.1-0.8c-1.3,0-2.1,0.8-2.1,0.8c0,0,0.1,0.1,0.1,0.1L188.3,106.6z M188.4,106.7l2.1,2.1
			c0.5-0.6,0.8-1.3,0.8-2.1c0-0.8-0.3-1.6-0.8-2.1L188.4,106.7z"/>
	</g>
	<g>
		<path class="st0" d="M183.7,129.7c0,0.4,0,0.5,0.9,0.5h0.3v0.3c-0.3,0-1.2,0-1.6,0s-1.3,0-1.6,0v-0.3h0.3c0.9,0,0.9-0.1,0.9-0.5
			v-5.2c-0.5,0.3-1.1,0.3-1.3,0.3v-0.3c0.3,0,1.2,0,1.8-0.6c0.2,0,0.2,0,0.2,0.3V129.7z"/>
		<path class="st0" d="M186.8,132.7c0,0.1-0.1,0.2-0.2,0.2c-0.1,0-0.2-0.1-0.2-0.2c0,0,0,0,0-0.2l3.4-9.4c0-0.1,0.1-0.2,0.2-0.2
			c0.1,0,0.2,0.1,0.2,0.2c0,0,0,0,0,0.2L186.8,132.7z"/>
		<path class="st0" d="M193.9,129.7c0.2,0,0.9,0,0.9-0.1c0.1-0.1,0.2-0.6,0.2-0.9h0.2l-0.3,1.7h-3.7c0-0.2,0-0.3,0.1-0.4l1.9-2.1
			c0.5-0.6,1-1.4,1-2.2c0-0.8-0.4-1.6-1.3-1.6c-0.6,0-1.1,0.4-1.3,1c0,0,0,0,0.1,0c0.3,0,0.5,0.3,0.5,0.5c0,0.4-0.3,0.5-0.5,0.5
			c0,0-0.5,0-0.5-0.6c0-0.9,0.7-1.8,1.9-1.8c1.2,0,2.1,0.8,2.1,1.9c0,1-0.6,1.5-2.2,2.9l-1.1,1H193.9z"/>
	</g>
	<polyline points="190.5,114.8 188.2,110.3 186,114.8 188.2,113.7 	"/>
	<line class="st1" x1="188.2" y1="120.9" x2="188.2" y2="113.7"/>
	<polygon class="st2" points="35.9,50 35.9,85.5 120.9,85.5 120.9,14.6 35.9,14.6 	"/>
	<polygon class="st3" points="128,74.8 128,135.1 213,135.1 213,14.6 128,14.6 	"/>
	<g>
		<path class="st4" d="M71.8,9.3c0,0.1,0,0.1,0,0.2c0,0.2,0.3,0.2,0.6,0.2c0.2,0,0.3,0,0.3,0.1c0,0.2-0.1,0.2-0.2,0.2
			c-0.2,0-0.4,0-0.6,0c-0.2,0-0.4,0-0.6,0c-0.3,0-1,0-1.3,0c0,0-0.1,0-0.1-0.1c0-0.2,0.1-0.2,0.2-0.2c0.6,0,0.8,0,0.9-0.3
			c0-0.1,0.3-1.1,0.7-2.8h-3L68,9.3c0,0.1,0,0.1,0,0.2c0,0.2,0.3,0.2,0.6,0.2c0.2,0,0.3,0,0.3,0.1c0,0.2-0.1,0.2-0.2,0.2
			c-0.2,0-0.4,0-0.6,0c-0.2,0-0.4,0-0.6,0c-0.3,0-1,0-1.3,0c0,0-0.1,0-0.1-0.1c0-0.2,0.1-0.2,0.3-0.2c0.8,0,0.8-0.1,0.9-0.5l1.3-5.4
			c0-0.1,0-0.1,0-0.2c0-0.1-0.1-0.1-0.3-0.2c-0.2,0-0.4,0-0.4,0c-0.2,0-0.3,0-0.3-0.1c0-0.2,0.1-0.2,0.2-0.2c0.3,0,1,0,1.3,0
			c0.3,0,1,0,1.3,0c0,0,0.1,0,0.1,0.1c0,0.2-0.1,0.2-0.3,0.2c-0.7,0-0.7,0.1-0.8,0.5l-0.6,2.3h3l0.6-2.4c0-0.1,0-0.1,0-0.2
			c0-0.1-0.1-0.1-0.3-0.2c-0.2,0-0.4,0-0.4,0c-0.2,0-0.3,0-0.3-0.1c0-0.2,0.1-0.2,0.2-0.2c0.3,0,1,0,1.3,0c0.3,0,1,0,1.3,0
			c0,0,0.1,0,0.1,0.1c0,0.2-0.1,0.2-0.3,0.2c-0.7,0-0.7,0.1-0.8,0.5L71.8,9.3z"/>
	</g>
	<g>
		<path class="st4" d="M76.2,10.8c0,0.2,0,0.3,0.7,0.3h0.3v0.3c-0.2,0-1,0-1.2,0c-0.3,0-1.1,0-1.2,0v-0.3h0.3c0.7,0,0.7-0.1,0.7-0.3
			V7.3c-0.4,0.2-0.8,0.2-1,0.2V7.2c0.3,0,0.9,0,1.4-0.4c0.2,0,0.2,0,0.2,0.2V10.8z"/>
	</g>
	<g>
		<path class="st4" d="M81.6,12.5c-0.1,0-1-0.6-1.6-1.9c-0.5-1.1-0.7-2.3-0.7-3.1c0-0.8,0.1-1.9,0.6-3c0.6-1.3,1.5-1.9,1.6-1.9
			c0.1,0,0.1,0,0.1,0.1c0,0,0,0-0.1,0.2C80.4,4,80,5.8,80,7.5c0,1.5,0.3,3.4,1.6,4.7C81.7,12.3,81.7,12.3,81.6,12.5
			C81.7,12.4,81.7,12.5,81.6,12.5z"/>
	</g>
	<g>
		<path class="st4" d="M83.9,9.1c0.2,0,0.4,0,0.7,0.2c0.2,0.1,0.4,0.1,0.6,0.1c0.3,0,1-0.2,1.2-0.8c0-0.1,0-0.1,0.1-0.1
			c0.1,0,0.1,0,0.1,0.1c0,0.3-0.6,1.5-1.6,1.5c-0.3,0-0.5-0.2-0.6-0.4c-0.2-0.3-0.3-0.4-0.6-0.4c-0.3,0-0.6,0.3-0.8,0.6
			c-0.1,0.1-0.1,0.1-0.2,0.1c0,0-0.1,0-0.1-0.1c0-0.1,0.3-0.6,1-1.3l0.9-0.8c0.2-0.2,1-0.9,1.4-1.3c-0.3,0-0.4,0-0.8-0.1
			c-0.2-0.1-0.4-0.1-0.6-0.1c-0.1,0-0.7,0-0.8,0.5c0,0.1,0,0.1-0.1,0.1c-0.1,0-0.1-0.1-0.1-0.1c0-0.2,0.5-1.1,1.2-1.1
			c0.3,0,0.5,0.2,0.7,0.4c0.1,0.2,0.3,0.3,0.5,0.3c0.2,0,0.4-0.2,0.7-0.6c0-0.1,0.1-0.1,0.1-0.1c0,0,0.1,0,0.1,0.1
			c0,0-0.2,0.5-1.2,1.4c-0.4,0.4-1,0.9-1,0.9c-0.4,0.3-0.6,0.6-1.2,1.1C83.7,9.1,83.8,9.1,83.9,9.1z"/>
	</g>
	<g>
		<path class="st4" d="M89.7,10.5c-0.6,1.3-1.5,1.9-1.6,1.9c-0.1,0-0.1,0-0.1-0.1c0,0,0-0.1,0.1-0.2c1.2-1.3,1.6-3,1.6-4.7
			c0-2.1-0.6-3.7-1.5-4.7C88,2.7,88,2.6,88,2.6c0-0.1,0-0.1,0.1-0.1c0.1,0,1,0.6,1.6,1.9c0.5,1.1,0.7,2.3,0.7,3.1
			C90.3,8.3,90.2,9.4,89.7,10.5z"/>
	</g>
	<g>
		<path class="st5" d="M164,9.3c0,0.1,0,0.1,0,0.2c0,0.2,0.3,0.2,0.6,0.2c0.2,0,0.3,0,0.3,0.1c0,0.2-0.1,0.2-0.2,0.2
			c-0.2,0-0.4,0-0.6,0c-0.2,0-0.4,0-0.6,0c-0.3,0-1,0-1.3,0c0,0-0.1,0-0.1-0.1c0-0.2,0.1-0.2,0.2-0.2c0.6,0,0.8,0,0.9-0.3
			c0-0.1,0.3-1.1,0.7-2.8h-3l-0.7,2.7c0,0.1,0,0.1,0,0.2c0,0.2,0.3,0.2,0.6,0.2c0.2,0,0.3,0,0.3,0.1c0,0.2-0.1,0.2-0.2,0.2
			c-0.2,0-0.4,0-0.6,0c-0.2,0-0.4,0-0.6,0c-0.3,0-1,0-1.3,0c0,0-0.1,0-0.1-0.1c0-0.2,0.1-0.2,0.3-0.2c0.8,0,0.8-0.1,0.9-0.5l1.3-5.4
			c0-0.1,0-0.1,0-0.2c0-0.1-0.1-0.1-0.3-0.2c-0.2,0-0.4,0-0.4,0c-0.2,0-0.3,0-0.3-0.1c0-0.2,0.1-0.2,0.2-0.2c0.3,0,1,0,1.3,0
			c0.3,0,1,0,1.3,0c0,0,0.1,0,0.1,0.1c0,0.2-0.1,0.2-0.3,0.2c-0.7,0-0.7,0.1-0.8,0.5l-0.6,2.3h3l0.6-2.4c0-0.1,0-0.1,0-0.2
			c0-0.1-0.1-0.1-0.3-0.2c-0.2,0-0.4,0-0.4,0c-0.2,0-0.3,0-0.3-0.1c0-0.2,0.1-0.2,0.2-0.2c0.3,0,1,0,1.3,0c0.3,0,1,0,1.3,0
			c0,0,0.1,0,0.1,0.1c0,0.2-0.1,0.2-0.3,0.2c-0.7,0-0.7,0.1-0.8,0.5L164,9.3z"/>
	</g>
	<g>
		<path class="st5" d="M169.3,11.4h-2.9c0-0.2,0-0.2,0.1-0.3l1.7-1.7c0.2-0.3,0.7-0.7,0.7-1.3c0-0.6-0.4-1.1-1.1-1.1
			c-0.3,0-0.8,0.2-1,0.6c0.4,0,0.4,0.2,0.4,0.4c0,0.3-0.2,0.4-0.4,0.4c-0.1,0-0.4,0-0.4-0.4c0-0.6,0.6-1.2,1.5-1.2
			c0.9,0,1.6,0.5,1.6,1.4c0,0.7-0.5,1.1-1,1.5c-0.4,0.3-0.7,0.5-1.4,1.2h1.3c0.1,0,0.6,0,0.7,0c0.1-0.1,0.2-0.5,0.2-0.6h0.2
			L169.3,11.4z"/>
	</g>
	<g>
		<path class="st5" d="M173.7,12.5c-0.1,0-1-0.6-1.6-1.9c-0.5-1.1-0.7-2.3-0.7-3.1c0-0.8,0.1-1.9,0.6-3c0.6-1.3,1.5-1.9,1.6-1.9
			c0.1,0,0.1,0,0.1,0.1c0,0,0,0-0.1,0.2c-1.2,1.2-1.6,3-1.6,4.7c0,1.5,0.3,3.4,1.6,4.7C173.8,12.3,173.8,12.3,173.7,12.5
			C173.8,12.4,173.7,12.5,173.7,12.5z"/>
	</g>
	<g>
		<path class="st5" d="M175.9,9.1c0.2,0,0.4,0,0.7,0.2c0.2,0.1,0.4,0.1,0.6,0.1c0.3,0,1-0.2,1.2-0.8c0-0.1,0-0.1,0.1-0.1
			c0.1,0,0.1,0,0.1,0.1c0,0.3-0.6,1.5-1.6,1.5c-0.3,0-0.5-0.2-0.6-0.4c-0.2-0.3-0.3-0.4-0.6-0.4c-0.3,0-0.6,0.3-0.8,0.6
			c-0.1,0.1-0.1,0.1-0.2,0.1c0,0-0.1,0-0.1-0.1c0-0.1,0.3-0.6,1-1.3l0.9-0.8c0.2-0.2,1-0.9,1.4-1.3c-0.3,0-0.4,0-0.8-0.1
			c-0.2-0.1-0.4-0.1-0.6-0.1c-0.1,0-0.7,0-0.8,0.5c0,0.1,0,0.1-0.1,0.1s-0.1-0.1-0.1-0.1c0-0.2,0.5-1.1,1.2-1.1
			c0.3,0,0.5,0.2,0.7,0.4c0.1,0.2,0.3,0.3,0.5,0.3s0.4-0.2,0.7-0.6c0-0.1,0.1-0.1,0.1-0.1c0,0,0.1,0,0.1,0.1c0,0-0.2,0.5-1.2,1.4
			c-0.4,0.4-1,0.9-1,0.9c-0.4,0.3-0.6,0.6-1.2,1.1C175.7,9.1,175.9,9.1,175.9,9.1z"/>
	</g>
	<g>
		<path class="st5" d="M181.7,10.5c-0.6,1.3-1.5,1.9-1.6,1.9c-0.1,0-0.1,0-0.1-0.1c0,0,0-0.1,0.1-0.2c1.2-1.3,1.6-3,1.6-4.7
			c0-2.1-0.6-3.7-1.5-4.7C180,2.7,180,2.6,180,2.6c0-0.1,0-0.1,0.1-0.1c0.1,0,1,0.6,1.6,1.9c0.5,1.1,0.7,2.3,0.7,3.1
			C182.3,8.3,182.2,9.4,181.7,10.5z"/>
	</g>
	<polygon class="st6" points="0.4,69.5 0.4,138.6 248.5,138.6 248.5,0.4 0.4,0.4 	"/>
</g>
</svg>
