<?xml version="1.0" encoding="utf-8"?>
<!-- Generator: Adobe Illustrator 22.1.0, SVG Export Plug-In . SVG Version: 6.00 Build 0)  -->
<svg version="1.1" id="Layer_1" xmlns="http://www.w3.org/2000/svg" xmlns:xlink="http://www.w3.org/1999/xlink" x="0px" y="0px"
	 viewBox="0 0 343.3 301" style="enable-background:new 0 0 343.3 301;" xml:space="preserve">
<style type="text/css">
	.st0{fill:none;stroke:#DFDFDF;stroke-width:0.4998;stroke-linejoin:round;stroke-miterlimit:10;}
	.st1{fill:none;stroke:#262626;stroke-width:0.4998;stroke-linecap:square;stroke-linejoin:round;stroke-miterlimit:10;}
	.st2{fill:#4A4A49;}
	.st3{fill:#262626;}
	.st4{fill:none;stroke:#000000;stroke-width:3;stroke-linejoin:round;stroke-miterlimit:10;}
</style>
<g>
	<path class="st0" d="M15.4,269.2V12.4 M50.5,269.2V12.4 M85.6,269.2V12.4 M120.7,269.2V12.4 M155.8,269.2V12.4 M155.8,269.2H15.4
		 M155.8,226.4H15.4 M155.8,183.6H15.4 M155.8,140.8H15.4 M155.8,98H15.4 M155.8,55.2H15.4 M155.8,12.4H15.4"/>
	<path class="st1" d="M15.4,269.2h140.4 M15.4,12.4h140.4 M15.4,269.2v-2.6 M50.5,269.2v-2.6 M85.6,269.2v-2.6 M120.7,269.2v-2.6
		 M155.8,269.2v-2.6 M15.4,12.4V15 M50.5,12.4V15 M85.6,12.4V15 M120.7,12.4V15 M155.8,12.4V15"/>
	<g>
		<path class="st2" d="M11.6,278.9h2.2v0.8h-2.2V278.9z"/>
	</g>
	<path class="st3" d="M15.1,281.6c0,0,0-0.1,0-0.1c0.2-0.4,0.3-0.7,0.5-1c0.1-0.3,0.3-0.7,0.4-1c0.1-0.3,0.2-0.7,0.3-1h-0.6
		c-0.2,0-0.4,0.1-0.6,0.2c-0.2,0.1-0.3,0.3-0.5,0.5c0,0,0,0-0.1,0h-0.1c-0.1,0-0.1,0-0.1-0.1c0,0,0,0,0-0.1c0.2-0.3,0.4-0.6,0.6-0.8
		c0.2-0.2,0.5-0.3,0.8-0.3h3.3c0.1,0,0.1,0,0.2,0.1c0,0,0.1,0.1,0.1,0.2c0,0.1,0,0.2-0.1,0.2c-0.1,0.1-0.1,0.1-0.2,0.1h-1.1
		c-0.1,0.5-0.2,0.9-0.2,1.4c0,0.6,0.1,1.1,0.3,1.6c0,0,0,0.1,0,0.1c0,0.1,0,0.1-0.1,0.2c0,0.1-0.1,0.1-0.2,0.1
		c-0.1,0-0.1,0.1-0.2,0.1c-0.2,0-0.3-0.1-0.3-0.4c-0.1-0.3-0.1-0.5-0.1-0.8c0-0.3,0-0.7,0.1-1c0.1-0.3,0.2-0.8,0.3-1.3h-1
		c-0.5,1.9-0.8,3-0.9,3.2c-0.1,0.2-0.2,0.2-0.3,0.2c-0.1,0-0.1,0-0.2-0.1C15.1,281.8,15.1,281.7,15.1,281.6L15.1,281.6z"/>
	<g>
		<path class="st2" d="M42.8,278.9H45v0.8h-2.2V278.9z"/>
	</g>
	<path class="st3" d="M46.3,281.6c0,0,0-0.1,0-0.1c0.2-0.4,0.3-0.7,0.5-1c0.1-0.3,0.3-0.7,0.4-1c0.1-0.3,0.2-0.7,0.3-1h-0.6
		c-0.2,0-0.4,0.1-0.6,0.2c-0.2,0.1-0.3,0.3-0.5,0.5c0,0,0,0-0.1,0h-0.1c-0.1,0-0.1,0-0.1-0.1c0,0,0,0,0-0.1c0.2-0.3,0.4-0.6,0.6-0.8
		c0.2-0.2,0.5-0.3,0.8-0.3h3.3c0.1,0,0.1,0,0.2,0.1c0,0,0.1,0.1,0.1,0.2c0,0.1,0,0.2-0.1,0.2c-0.1,0.1-0.1,0.1-0.2,0.1H49
		c-0.1,0.5-0.2,0.9-0.2,1.4c0,0.6,0.1,1.1,0.3,1.6c0,0,0,0.1,0,0.1c0,0.1,0,0.1-0.1,0.2c0,0.1-0.1,0.1-0.2,0.1
		c-0.1,0-0.1,0.1-0.2,0.1c-0.2,0-0.3-0.1-0.3-0.4c-0.1-0.3-0.1-0.5-0.1-0.8c0-0.3,0-0.7,0.1-1c0.1-0.3,0.2-0.8,0.3-1.3h-1
		c-0.5,1.9-0.8,3-0.9,3.2c-0.1,0.2-0.2,0.2-0.3,0.2c-0.1,0-0.1,0-0.2-0.1C46.3,281.8,46.3,281.7,46.3,281.6L46.3,281.6z"/>
	<g>
		<path class="st2" d="M53.5,275.2l-2.2,6.8h-0.6l2.2-6.8H53.5z"/>
		<path class="st2" d="M57.9,277.3c0,0.5-0.1,0.8-0.4,1.1c-0.2,0.3-0.7,0.6-1.3,1c-0.7,0.4-1.2,0.8-1.5,1.1
			c-0.1,0.1-0.2,0.3-0.3,0.5h3.4v0.8h-4.3v0c0-0.7,0.2-1.2,0.5-1.6c0.3-0.4,1-0.9,1.9-1.4c0.4-0.2,0.7-0.5,0.9-0.7
			c0.2-0.2,0.2-0.5,0.2-0.8c0-0.3-0.1-0.6-0.4-0.8c-0.2-0.2-0.5-0.3-0.9-0.3c-0.4,0-0.7,0.1-0.9,0.4c-0.2,0.3-0.3,0.7-0.4,1.1h-0.8
			c0-0.7,0.2-1.2,0.6-1.6c0.4-0.4,0.9-0.6,1.6-0.6c0.6,0,1.1,0.2,1.4,0.5C57.7,276.3,57.9,276.8,57.9,277.3z"/>
	</g>
	<g>
		<path class="st2" d="M83.8,280.9c-0.4-0.6-0.6-1.4-0.6-2.4s0.2-1.8,0.6-2.4c0.4-0.6,0.9-0.8,1.6-0.8c0.7,0,1.2,0.3,1.6,0.8
			c0.4,0.6,0.6,1.4,0.6,2.4s-0.2,1.8-0.6,2.4s-0.9,0.8-1.6,0.8C84.7,281.8,84.2,281.5,83.8,280.9z M86.4,280.4
			c0.2-0.4,0.3-1.1,0.3-1.9c0-0.8-0.1-1.5-0.3-1.9c-0.2-0.4-0.6-0.6-1-0.6c-0.4,0-0.8,0.2-1,0.6c-0.2,0.4-0.3,1.1-0.3,1.9
			c0,0.8,0.1,1.5,0.3,1.9s0.6,0.6,1,0.6C85.8,281,86.2,280.8,86.4,280.4z"/>
	</g>
	<path class="st3" d="M115.3,281.6c0,0,0-0.1,0-0.1c0.2-0.4,0.3-0.7,0.5-1c0.1-0.3,0.3-0.7,0.4-1c0.1-0.3,0.2-0.7,0.3-1h-0.6
		c-0.2,0-0.4,0.1-0.6,0.2c-0.2,0.1-0.3,0.3-0.5,0.5c0,0,0,0-0.1,0h-0.1c-0.1,0-0.1,0-0.1-0.1c0,0,0,0,0-0.1c0.2-0.3,0.4-0.6,0.6-0.8
		c0.2-0.2,0.5-0.3,0.8-0.3h3.3c0.1,0,0.1,0,0.2,0.1c0,0,0.1,0.1,0.1,0.2c0,0.1,0,0.2-0.1,0.2c-0.1,0.1-0.1,0.1-0.2,0.1H118
		c-0.1,0.5-0.2,0.9-0.2,1.4c0,0.6,0.1,1.1,0.3,1.6c0,0,0,0.1,0,0.1c0,0.1,0,0.1-0.1,0.2c0,0.1-0.1,0.1-0.1,0.1
		c-0.1,0-0.1,0.1-0.2,0.1c-0.2,0-0.3-0.1-0.3-0.4c-0.1-0.3-0.1-0.5-0.1-0.8c0-0.3,0-0.7,0.1-1c0.1-0.3,0.2-0.8,0.3-1.3h-1
		c-0.5,1.9-0.8,3-0.9,3.2c-0.1,0.2-0.2,0.2-0.3,0.2c-0.1,0-0.1,0-0.2-0.1C115.3,281.8,115.3,281.7,115.3,281.6L115.3,281.6z"/>
	<g>
		<path class="st2" d="M122.4,275.2l-2.2,6.8h-0.6l2.2-6.8H122.4z"/>
		<path class="st2" d="M126.9,277.3c0,0.5-0.1,0.8-0.4,1.1c-0.2,0.3-0.7,0.6-1.3,1c-0.7,0.4-1.2,0.8-1.5,1.1
			c-0.1,0.1-0.2,0.3-0.3,0.5h3.4v0.8h-4.3v0c0-0.7,0.2-1.2,0.5-1.6c0.3-0.4,1-0.9,1.9-1.4c0.4-0.2,0.7-0.5,0.9-0.7
			c0.2-0.2,0.2-0.5,0.2-0.8c0-0.3-0.1-0.6-0.4-0.8c-0.2-0.2-0.5-0.3-0.9-0.3c-0.4,0-0.7,0.1-0.9,0.4c-0.2,0.3-0.3,0.7-0.4,1.1h-0.8
			c0-0.7,0.2-1.2,0.6-1.6c0.4-0.4,0.9-0.6,1.6-0.6c0.6,0,1.1,0.2,1.4,0.5C126.7,276.3,126.9,276.8,126.9,277.3z"/>
	</g>
	<path class="st3" d="M153.7,281.6c0,0,0-0.1,0-0.1c0.2-0.4,0.3-0.7,0.5-1c0.1-0.3,0.3-0.7,0.4-1c0.1-0.3,0.2-0.7,0.3-1h-0.6
		c-0.2,0-0.4,0.1-0.6,0.2c-0.2,0.1-0.3,0.3-0.5,0.5c0,0,0,0-0.1,0h-0.1c-0.1,0-0.1,0-0.1-0.1c0,0,0,0,0-0.1c0.2-0.3,0.4-0.6,0.6-0.8
		c0.2-0.2,0.5-0.3,0.8-0.3h3.3c0.1,0,0.1,0,0.2,0.1c0,0,0.1,0.1,0.1,0.2c0,0.1,0,0.2-0.1,0.2c-0.1,0.1-0.1,0.1-0.2,0.1h-1.1
		c-0.1,0.5-0.2,0.9-0.2,1.4c0,0.6,0.1,1.1,0.3,1.6c0,0,0,0.1,0,0.1c0,0.1,0,0.1-0.1,0.2c0,0.1-0.1,0.1-0.2,0.1
		c-0.1,0-0.1,0.1-0.2,0.1c-0.2,0-0.3-0.1-0.3-0.4c-0.1-0.3-0.1-0.5-0.1-0.8c0-0.3,0-0.7,0.1-1c0.1-0.3,0.2-0.8,0.3-1.3h-1
		c-0.5,1.9-0.8,3-0.9,3.2c-0.1,0.2-0.2,0.2-0.3,0.2c-0.1,0-0.1,0-0.2-0.1C153.7,281.8,153.7,281.7,153.7,281.6L153.7,281.6z"/>
	<path class="st3" d="M58.1,295.8c0,0-0.1,0-0.1-0.1c0,0-0.1-0.1-0.1-0.1c0,0,0-0.1,0.1-0.1c0,0,0.1-0.1,0.1-0.1h7.3
		c-0.2-0.2-0.5-0.4-0.6-0.6c-0.2-0.2-0.3-0.5-0.5-0.7c-0.1-0.3-0.2-0.5-0.3-0.8c0-0.1,0-0.1,0.1-0.1h0.2c0,0,0,0,0.1,0
		c0,0,0,0,0,0.1c0.1,0.3,0.1,0.5,0.2,0.8s0.3,0.5,0.4,0.7c0.2,0.2,0.4,0.4,0.6,0.5c0.2,0.1,0.5,0.3,0.7,0.4c0,0,0.1,0.1,0.1,0.1
		c0,0.1,0,0.1-0.1,0.1c-0.3,0.1-0.6,0.3-0.9,0.5c-0.3,0.2-0.5,0.5-0.7,0.8c-0.2,0.3-0.3,0.6-0.4,1c0,0,0,0,0,0.1c0,0,0,0-0.1,0h-0.2
		c-0.1,0-0.1,0-0.1-0.1c0.1-0.4,0.2-0.9,0.5-1.2c0.2-0.4,0.5-0.7,0.9-1H58.1L58.1,295.8z"/>
	<g>
	</g>
	<path class="st3" d="M72.1,298.1c-0.3,0-0.5-0.1-0.7-0.3c-0.2-0.2-0.3-0.5-0.4-0.8c-0.1-0.3-0.1-0.6-0.1-0.9v0c0-0.3,0-0.6,0.1-1
		c0.1-0.3,0.2-0.7,0.3-1c0.1-0.3,0.2-0.6,0.4-0.9c0.1-0.2,0.2-0.4,0.4-0.6s0.3-0.4,0.5-0.7c0.2-0.2,0.4-0.4,0.6-0.5
		c0.2-0.1,0.4-0.2,0.6-0.2h0c0.2,0,0.4,0.1,0.6,0.2c0.2,0.1,0.3,0.3,0.4,0.5c0.1,0.2,0.1,0.4,0.2,0.6c0,0.2,0.1,0.4,0.1,0.7
		c0,0.5-0.1,1-0.2,1.5c-0.1,0.5-0.3,1-0.5,1.5c-0.1,0.2-0.2,0.4-0.4,0.6c-0.2,0.2-0.3,0.5-0.5,0.6c-0.2,0.2-0.4,0.4-0.6,0.5
		C72.6,298,72.4,298.1,72.1,298.1L72.1,298.1L72.1,298.1z M72.2,297.8c0.2,0,0.4-0.1,0.6-0.3c0.2-0.2,0.4-0.5,0.5-0.8
		c0.1-0.3,0.3-0.7,0.4-1c0.1-0.3,0.2-0.6,0.2-0.9h-2c-0.1,0.4-0.2,0.7-0.2,1c-0.1,0.3-0.1,0.6-0.1,0.9
		C71.7,297.5,71.8,297.8,72.2,297.8L72.2,297.8z M72,294.5h2c0.1-0.3,0.1-0.5,0.2-0.7c0-0.2,0.1-0.4,0.1-0.6c0-0.2,0-0.4,0-0.6
		c0-0.8-0.2-1.1-0.5-1.1c-0.4,0-0.8,0.3-1.1,1C72.5,293.1,72.2,293.8,72,294.5L72,294.5z"/>
	<g>
		<path class="st2" d="M78.8,290.8h1.9v0.7h-1.1v7.7h1.1v0.7h-1.9V290.8z"/>
		<path class="st2" d="M81.7,292.8h0.4h0.4v0.9c0.1-0.1,0.2-0.3,0.2-0.4c0.3-0.4,0.7-0.7,1.2-0.7c0.1,0,0.2,0,0.2,0v0.9l-0.2,0
			c-0.5,0-0.8,0.1-1.1,0.4c-0.3,0.3-0.4,0.7-0.4,1.2v2.8h-0.4h-0.4V292.8z"/>
		<path class="st2" d="M86.2,298.1c-0.5,0-0.9-0.1-1.2-0.4c-0.3-0.3-0.4-0.6-0.4-1.1c0-0.5,0.1-0.8,0.4-1.1c0.3-0.3,0.7-0.4,1.2-0.5
			l1.2-0.2c0.1,0,0.2,0,0.3,0c0.1,0,0.2-0.1,0.3-0.2s0.1-0.2,0.1-0.3v0c0-0.3-0.1-0.5-0.3-0.7s-0.5-0.2-0.9-0.2
			c-0.4,0-0.6,0.1-0.8,0.2c-0.2,0.2-0.3,0.4-0.4,0.7h-0.8c0-0.6,0.2-1,0.6-1.3s0.9-0.4,1.5-0.4c0.6,0,1.1,0.1,1.4,0.4
			c0.3,0.3,0.5,0.7,0.5,1.2v2.8c0,0.1,0,0.2,0.1,0.2c0.1,0.1,0.1,0.1,0.2,0.1c0,0,0.1,0,0.1,0c0,0,0.1,0,0.2,0v0.6
			c-0.1,0-0.2,0.1-0.3,0.1c-0.1,0-0.2,0-0.2,0c-0.3,0-0.6-0.1-0.7-0.3c-0.1-0.1-0.2-0.3-0.2-0.5c-0.1,0.1-0.1,0.2-0.2,0.2
			C87.4,297.9,86.8,298.1,86.2,298.1z M88,295.9v-0.6c-0.2,0.1-0.3,0.1-0.5,0.2l-0.8,0.1c-0.4,0.1-0.7,0.2-0.9,0.3
			c-0.2,0.1-0.3,0.3-0.3,0.6c0,0.3,0.1,0.5,0.2,0.7c0.2,0.2,0.4,0.2,0.7,0.2c0.5,0,0.8-0.1,1.2-0.4c0.2-0.2,0.4-0.4,0.4-0.6
			c0,0,0-0.1,0-0.2C88,296.2,88,296.1,88,295.9z"/>
		<path class="st2" d="M92.3,298.1c-0.7,0-1.2-0.3-1.7-0.8s-0.6-1.2-0.6-2.1c0-0.8,0.2-1.4,0.6-1.9c0.4-0.5,0.9-0.7,1.6-0.7
			c0.6,0,1.1,0.3,1.5,0.8l0.1,0.1v-2.7h0.4h0.4v7.1h-0.4h-0.4v-0.7l-0.1,0.2C93.4,297.9,92.9,298.1,92.3,298.1z M92.4,293.4
			c-0.5,0-0.8,0.2-1.1,0.5c-0.2,0.3-0.3,0.8-0.3,1.5c0,0.6,0.1,1.1,0.4,1.5c0.2,0.3,0.6,0.5,1,0.5c0.4,0,0.8-0.2,1-0.5
			s0.4-0.7,0.4-1.3c0-0.7-0.1-1.2-0.4-1.6C93.2,293.6,92.8,293.4,92.4,293.4z"/>
		<path class="st2" d="M96.1,296.9h1v1h-1V296.9z"/>
	</g>
	<g>
		<path class="st2" d="M99.9,294.3c0-0.3-0.1-0.5-0.4-0.7s-0.5-0.2-0.8-0.2c-0.4,0-0.6,0.1-0.8,0.2c-0.2,0.1-0.3,0.3-0.3,0.6
			c0,0.2,0.1,0.3,0.2,0.4c0.1,0.1,0.4,0.2,0.8,0.3l0.9,0.2c0.5,0.1,0.9,0.3,1.1,0.5c0.2,0.2,0.3,0.5,0.3,0.9c0,0.5-0.2,0.9-0.6,1.2
			s-0.9,0.5-1.5,0.5c-0.7,0-1.3-0.1-1.6-0.4c-0.4-0.3-0.6-0.7-0.6-1.4h0.8c0,0.4,0.2,0.6,0.4,0.8c0.2,0.2,0.6,0.2,1,0.2
			c0.4,0,0.7-0.1,0.9-0.2c0.2-0.1,0.3-0.4,0.3-0.6c0-0.2-0.1-0.3-0.2-0.4c-0.1-0.1-0.4-0.2-0.8-0.3l-0.9-0.2c-0.5-0.1-0.8-0.3-1-0.5
			c-0.2-0.2-0.3-0.5-0.3-0.9c0-0.5,0.2-0.9,0.5-1.2c0.3-0.3,0.8-0.4,1.4-0.4c0.6,0,1.1,0.1,1.4,0.4c0.4,0.3,0.5,0.7,0.6,1.2H99.9z"
			/>
	</g>
	<g>
		<path class="st2" d="M103.3,290.6h1.9v0.7h-1.9V290.6z"/>
		<path class="st2" d="M107.7,289.2h-1.3v-0.6c0.4,0,0.7-0.1,0.9-0.2c0.2-0.2,0.4-0.4,0.5-0.8h0.6v5.6h-0.4h-0.4V289.2z"/>
	</g>
	<g>
		<path class="st2" d="M112.3,299.9h-1.9v-0.7h1.1v-7.7h-1.1v-0.7h1.9V299.9z"/>
	</g>
	<path class="st1" d="M15.4,269.2V12.4 M155.8,269.2V12.4 M15.4,269.2H18 M15.4,226.4H18 M15.4,183.6H18 M15.4,140.8H18 M15.4,98H18
		 M15.4,55.2H18 M15.4,12.4H18 M155.8,269.2h-2.6 M155.8,226.4h-2.6 M155.8,183.6h-2.6 M155.8,140.8h-2.6 M155.8,98h-2.6
		 M155.8,55.2h-2.6 M155.8,12.4h-2.6"/>
	<g>
		<path class="st2" d="M8.1,272.1c-0.4-0.6-0.6-1.4-0.6-2.4s0.2-1.8,0.6-2.4c0.4-0.6,0.9-0.8,1.6-0.8c0.7,0,1.2,0.3,1.6,0.8
			c0.4,0.6,0.6,1.4,0.6,2.4s-0.2,1.8-0.6,2.4s-0.9,0.8-1.6,0.8C9,273,8.5,272.7,8.1,272.1z M10.7,271.6c0.2-0.4,0.3-1.1,0.3-1.9
			c0-0.8-0.1-1.5-0.3-1.9c-0.2-0.4-0.6-0.6-1-0.6c-0.4,0-0.8,0.2-1,0.6c-0.2,0.4-0.3,1.1-0.3,1.9c0,0.8,0.1,1.5,0.3,1.9
			s0.6,0.6,1,0.6C10.1,272.2,10.5,272,10.7,271.6z"/>
	</g>
	<g>
		<path class="st2" d="M0.9,229.3c-0.4-0.6-0.6-1.4-0.6-2.4s0.2-1.8,0.6-2.4c0.4-0.6,0.9-0.8,1.6-0.8c0.7,0,1.2,0.3,1.6,0.8
			c0.4,0.6,0.6,1.4,0.6,2.4s-0.2,1.8-0.6,2.4s-0.9,0.8-1.6,0.8C1.8,230.2,1.3,229.9,0.9,229.3z M3.5,228.8c0.2-0.4,0.3-1.1,0.3-1.9
			c0-0.8-0.1-1.5-0.3-1.9c-0.2-0.4-0.6-0.6-1-0.6c-0.4,0-0.8,0.2-1,0.6c-0.2,0.4-0.3,1.1-0.3,1.9c0,0.8,0.1,1.5,0.3,1.9
			s0.6,0.6,1,0.6C2.9,229.4,3.3,229.2,3.5,228.8z"/>
		<path class="st2" d="M5.8,229h0.9v1H5.8V229z"/>
	</g>
	<g>
		<path class="st2" d="M11.4,227.9c0,0.6-0.2,1.2-0.6,1.6c-0.4,0.4-0.9,0.6-1.6,0.6c-0.6,0-1.1-0.2-1.5-0.5s-0.6-0.8-0.6-1.3h0.8
			c0,0.4,0.2,0.6,0.4,0.8c0.2,0.2,0.6,0.3,1,0.3c0.4,0,0.7-0.1,0.9-0.4c0.2-0.3,0.4-0.6,0.4-1c0-0.4-0.1-0.8-0.4-1
			c-0.3-0.3-0.6-0.4-1-0.4c-0.2,0-0.5,0.1-0.7,0.2c-0.2,0.1-0.4,0.3-0.5,0.4l-0.7,0l0.5-3.4H11v0.8H8.3l-0.3,1.7l0,0
			c0.3-0.2,0.7-0.4,1.1-0.4c0.7,0,1.2,0.2,1.6,0.6C11.2,226.8,11.4,227.3,11.4,227.9z"/>
	</g>
	<g>
		<path class="st2" d="M9.6,182.7H8.1v-0.6c0.4,0,0.8-0.1,1.1-0.3c0.3-0.2,0.5-0.5,0.6-0.9h0.6v6.3H10H9.6V182.7z"/>
	</g>
	<g>
		<path class="st2" d="M2.4,139.9H0.9v-0.6c0.4,0,0.8-0.1,1.1-0.3c0.3-0.2,0.5-0.5,0.6-0.9h0.6v6.3H2.8H2.4V139.9z"/>
		<path class="st2" d="M5.8,143.4h0.9v1H5.8V143.4z"/>
	</g>
	<g>
		<path class="st2" d="M11.4,142.4c0,0.6-0.2,1.2-0.6,1.6c-0.4,0.4-0.9,0.6-1.6,0.6c-0.6,0-1.1-0.2-1.5-0.5s-0.6-0.8-0.6-1.3h0.8
			c0,0.4,0.2,0.6,0.4,0.8c0.2,0.2,0.6,0.3,1,0.3c0.4,0,0.7-0.1,0.9-0.4c0.2-0.3,0.4-0.6,0.4-1c0-0.4-0.1-0.8-0.4-1
			c-0.3-0.3-0.6-0.4-1-0.4c-0.2,0-0.5,0.1-0.7,0.2c-0.2,0.1-0.4,0.3-0.5,0.4l-0.7,0l0.5-3.4H11v0.8H8.3l-0.3,1.7l0,0
			c0.3-0.2,0.7-0.4,1.1-0.4c0.7,0,1.2,0.2,1.6,0.6C11.2,141.2,11.4,141.7,11.4,142.4z"/>
	</g>
	<g>
		<path class="st2" d="M11.8,97.1c0,0.5-0.1,0.8-0.4,1.1c-0.2,0.3-0.7,0.6-1.3,1c-0.7,0.4-1.2,0.8-1.5,1.1c-0.1,0.1-0.2,0.3-0.3,0.5
			h3.4v0.8H7.4v0c0-0.7,0.2-1.2,0.5-1.6c0.3-0.4,1-0.9,1.9-1.4c0.4-0.2,0.7-0.5,0.9-0.7s0.2-0.5,0.2-0.8c0-0.3-0.1-0.6-0.4-0.8
			s-0.5-0.3-0.9-0.3c-0.4,0-0.7,0.1-0.9,0.4c-0.2,0.3-0.3,0.6-0.4,1.1H7.6c0-0.7,0.2-1.2,0.6-1.6s0.9-0.6,1.6-0.6
			c0.6,0,1.1,0.2,1.4,0.5C11.6,96.1,11.8,96.6,11.8,97.1z"/>
	</g>
	<g>
		<path class="st2" d="M4.6,54.3c0,0.5-0.1,0.8-0.4,1.1c-0.2,0.3-0.7,0.6-1.3,1c-0.7,0.4-1.2,0.8-1.5,1.1c-0.1,0.1-0.2,0.3-0.3,0.5
			h3.4v0.8H0.2v0c0-0.7,0.2-1.2,0.5-1.6c0.3-0.4,1-0.9,1.9-1.4c0.4-0.2,0.7-0.5,0.9-0.7s0.2-0.5,0.2-0.8c0-0.3-0.1-0.6-0.4-0.8
			s-0.5-0.3-0.9-0.3c-0.4,0-0.7,0.1-0.9,0.4c-0.2,0.3-0.3,0.6-0.4,1.1H0.4c0-0.7,0.2-1.2,0.6-1.6s0.9-0.6,1.6-0.6
			c0.6,0,1.1,0.2,1.4,0.5C4.4,53.3,4.6,53.8,4.6,54.3z"/>
		<path class="st2" d="M5.8,57.8h0.9v1H5.8V57.8z"/>
	</g>
	<g>
		<path class="st2" d="M11.4,56.8c0,0.6-0.2,1.2-0.6,1.6C10.4,58.8,9.8,59,9.2,59c-0.6,0-1.1-0.2-1.5-0.5S7.1,57.7,7,57.2h0.8
			c0,0.4,0.2,0.6,0.4,0.8c0.2,0.2,0.6,0.3,1,0.3c0.4,0,0.7-0.1,0.9-0.4c0.2-0.3,0.4-0.6,0.4-1c0-0.4-0.1-0.8-0.4-1
			c-0.3-0.3-0.6-0.4-1-0.4c-0.2,0-0.5,0.1-0.7,0.2C8.2,55.7,8.1,55.8,8,56l-0.7,0l0.5-3.4H11v0.8H8.3l-0.3,1.7l0,0
			c0.3-0.2,0.7-0.4,1.1-0.4c0.7,0,1.2,0.2,1.6,0.6C11.2,55.6,11.4,56.1,11.4,56.8z"/>
	</g>
	<g>
		<path class="st2" d="M10.9,11.4c0-0.3-0.1-0.5-0.3-0.7s-0.5-0.3-0.9-0.3c-0.4,0-0.7,0.1-0.9,0.3c-0.2,0.2-0.3,0.6-0.3,1H7.7
			c0-0.7,0.2-1.2,0.5-1.5C8.6,9.8,9,9.7,9.7,9.7c0.6,0,1.1,0.2,1.5,0.5c0.4,0.3,0.6,0.7,0.6,1.2c0,0.5-0.2,0.9-0.6,1.2
			c-0.1,0.1-0.1,0.1-0.2,0.2c0.2,0.1,0.3,0.1,0.4,0.2c0.4,0.3,0.6,0.7,0.6,1.3c0,0.6-0.2,1.1-0.6,1.5c-0.4,0.4-0.9,0.6-1.6,0.6
			c-0.7,0-1.2-0.2-1.6-0.5c-0.4-0.3-0.6-0.9-0.6-1.6h0.8c0,0.5,0.2,0.8,0.4,1.1c0.2,0.2,0.5,0.3,1,0.3c0.4,0,0.7-0.1,1-0.3
			c0.2-0.2,0.4-0.5,0.4-0.9c0-0.4-0.1-0.7-0.4-0.9c-0.2-0.2-0.5-0.3-0.8-0.3c-0.1,0-0.3,0-0.4,0c-0.1,0-0.2,0-0.3,0v-0.7
			c0.1,0,0.2,0,0.3,0s0.3,0,0.4,0c0.3,0,0.5-0.1,0.6-0.3C10.8,11.9,10.9,11.7,10.9,11.4z"/>
	</g>
	<g>
		<path d="M42.8,1.4h2.1v7.1h-1.4V3.7c0-0.1,0-0.3,0-0.6c0-0.3,0-0.4,0-0.6l-1.4,6h-1.4l-1.3-6c0,0.1,0,0.3,0,0.6c0,0.2,0,0.4,0,0.6
			v4.8H38V1.4h2.2L41.5,7L42.8,1.4z"/>
		<path d="M48.3,5.3c0.3,0,0.4-0.1,0.6-0.1C49,5.1,49.1,5,49.1,4.8c0-0.2-0.1-0.4-0.2-0.4s-0.4-0.1-0.7-0.1c-0.3,0-0.6,0.1-0.7,0.2
			c-0.1,0.1-0.2,0.3-0.2,0.5H46c0-0.5,0.2-0.8,0.4-1.1c0.4-0.5,1-0.7,1.9-0.7c0.6,0,1.1,0.1,1.5,0.3c0.4,0.2,0.7,0.7,0.7,1.3v2.4
			c0,0.2,0,0.4,0,0.6c0,0.2,0,0.3,0.1,0.4c0,0.1,0.1,0.1,0.2,0.2v0.2h-1.5c0-0.1-0.1-0.2-0.1-0.3c0-0.1,0-0.2,0-0.3
			c-0.2,0.2-0.4,0.4-0.7,0.5c-0.3,0.2-0.6,0.3-1,0.3c-0.5,0-0.9-0.1-1.2-0.4s-0.5-0.7-0.5-1.2c0-0.6,0.3-1.1,0.8-1.4
			c0.3-0.2,0.7-0.3,1.2-0.3L48.3,5.3z M49.1,6C49,6,48.9,6.1,48.8,6.1c-0.1,0-0.2,0.1-0.4,0.1l-0.3,0.1c-0.3,0.1-0.5,0.1-0.6,0.2
			c-0.2,0.1-0.3,0.3-0.3,0.6c0,0.2,0.1,0.4,0.2,0.5c0.1,0.1,0.3,0.2,0.5,0.2c0.3,0,0.6-0.1,0.8-0.3c0.3-0.2,0.4-0.5,0.4-1V6z"/>
		<path d="M54.3,3.2c0.3,0.1,0.6,0.4,0.8,0.8V3.2h1.3v5c0,0.7-0.1,1.2-0.3,1.5c-0.4,0.6-1.1,0.9-2.3,0.9c-0.7,0-1.2-0.1-1.6-0.4
			c-0.4-0.3-0.7-0.7-0.7-1.2H53c0,0.2,0.1,0.3,0.2,0.3c0.1,0.1,0.4,0.2,0.7,0.2c0.5,0,0.8-0.2,1-0.5c0.1-0.2,0.2-0.6,0.2-1.1V7.7
			c-0.1,0.2-0.3,0.4-0.4,0.5c-0.3,0.2-0.6,0.3-1.1,0.3c-0.7,0-1.2-0.2-1.6-0.7c-0.4-0.5-0.6-1.1-0.6-1.9c0-0.8,0.2-1.4,0.6-2
			c0.4-0.5,0.9-0.8,1.7-0.8C53.9,3.1,54.1,3.2,54.3,3.2z M54.8,7c0.2-0.2,0.3-0.6,0.3-1.2c0-0.5-0.1-0.9-0.3-1.1
			c-0.2-0.3-0.5-0.4-0.8-0.4c-0.5,0-0.8,0.2-1,0.7c-0.1,0.2-0.1,0.5-0.1,0.9c0,0.3,0.1,0.6,0.2,0.8c0.2,0.4,0.5,0.7,1,0.7
			C54.3,7.4,54.5,7.3,54.8,7z"/>
		<path d="M62,3.5c0.3,0.3,0.5,0.8,0.5,1.4v3.5h-1.4V5.3c0-0.3,0-0.5-0.1-0.6c-0.1-0.3-0.4-0.4-0.8-0.4c-0.5,0-0.8,0.2-1,0.6
			c-0.1,0.2-0.1,0.5-0.1,0.8v2.9h-1.4V3.3h1.3V4c0.2-0.3,0.3-0.5,0.5-0.6c0.3-0.2,0.6-0.3,1.1-0.3C61.2,3.1,61.6,3.3,62,3.5z"/>
		<path d="M65.2,2.6h-1.4V1.3h1.4V2.6z M63.8,3.2h1.4v5.3h-1.4V3.2z"/>
		<path d="M66,4.3v-1h0.7V1.8h1.4v1.5h0.9v1h-0.9v2.8c0,0.2,0,0.4,0.1,0.4c0.1,0.1,0.2,0.1,0.5,0.1c0,0,0.1,0,0.1,0c0,0,0.1,0,0.1,0
			v1l-0.7,0c-0.7,0-1.1-0.1-1.3-0.3c-0.2-0.2-0.2-0.4-0.2-0.7V4.3H66z"/>
		<path d="M71.2,3.2v3.2c0,0.3,0,0.5,0.1,0.7c0.1,0.3,0.4,0.4,0.7,0.4c0.5,0,0.8-0.2,1-0.6c0.1-0.2,0.1-0.5,0.1-0.8V3.2h1.4v5.3
			h-1.3V7.8c0,0,0,0.1-0.1,0.1C73.1,8,73,8.1,72.9,8.1c-0.2,0.2-0.4,0.3-0.6,0.4s-0.4,0.1-0.7,0.1c-0.8,0-1.3-0.3-1.6-0.8
			c-0.2-0.3-0.2-0.8-0.2-1.4V3.2H71.2z"/>
		<path d="M78.7,3.3c0.2,0.1,0.4,0.3,0.6,0.6V1.4h1.4v7.1h-1.3V7.8c-0.2,0.3-0.4,0.5-0.7,0.7s-0.6,0.2-0.9,0.2
			c-0.6,0-1.1-0.2-1.6-0.7c-0.4-0.5-0.6-1.1-0.6-1.9c0-0.9,0.2-1.6,0.6-2.1s1-0.8,1.7-0.8C78.1,3.1,78.4,3.2,78.7,3.3z M79,7.1
			c0.2-0.3,0.3-0.7,0.3-1.1c0-0.6-0.2-1.1-0.5-1.4c-0.2-0.2-0.4-0.3-0.7-0.3c-0.4,0-0.7,0.2-0.9,0.5C77.1,5.1,77,5.5,77,5.9
			c0,0.5,0.1,0.9,0.3,1.2c0.2,0.3,0.5,0.4,0.9,0.4C78.5,7.5,78.8,7.4,79,7.1z"/>
		<path d="M85.4,3.4c0.4,0.2,0.7,0.4,0.9,0.8c0.2,0.3,0.4,0.7,0.4,1.1c0,0.2,0.1,0.6,0,1h-3.8c0,0.5,0.2,0.9,0.6,1.1
			c0.2,0.1,0.5,0.2,0.8,0.2c0.3,0,0.6-0.1,0.8-0.2c0.1-0.1,0.2-0.2,0.3-0.4h1.4c0,0.3-0.2,0.6-0.5,1c-0.5,0.5-1.1,0.8-2,0.8
			c-0.7,0-1.3-0.2-1.9-0.6c-0.5-0.4-0.8-1.1-0.8-2.1c0-0.9,0.2-1.6,0.7-2.1c0.5-0.5,1.1-0.7,1.9-0.7C84.6,3.1,85,3.2,85.4,3.4z
			 M83.3,4.5C83.1,4.7,83,5,82.9,5.4h2.4c0-0.4-0.1-0.6-0.4-0.8s-0.5-0.3-0.8-0.3C83.8,4.2,83.5,4.3,83.3,4.5z"/>
		<path d="M93.1,3.1c0,0,0.1,0,0.1,0v1.4c-0.1,0-0.2,0-0.2,0c-0.1,0-0.1,0-0.2,0c-0.6,0-0.9,0.2-1.1,0.5c-0.1,0.2-0.2,0.5-0.2,0.9
			v2.5h-1.4V3.2h1.3v0.9c0.2-0.4,0.4-0.6,0.6-0.7C92.3,3.2,92.6,3.1,93.1,3.1C93.1,3.1,93.1,3.1,93.1,3.1z"/>
		<path d="M97.5,3.4c0.4,0.2,0.7,0.4,0.9,0.8c0.2,0.3,0.4,0.7,0.4,1.1c0,0.2,0.1,0.6,0,1H95c0,0.5,0.2,0.9,0.6,1.1
			c0.2,0.1,0.5,0.2,0.8,0.2c0.3,0,0.6-0.1,0.8-0.2c0.1-0.1,0.2-0.2,0.3-0.4h1.4c0,0.3-0.2,0.6-0.5,1c-0.5,0.5-1.1,0.8-2,0.8
			c-0.7,0-1.3-0.2-1.9-0.6c-0.5-0.4-0.8-1.1-0.8-2.1c0-0.9,0.2-1.6,0.7-2.1c0.5-0.5,1.1-0.7,1.9-0.7C96.7,3.1,97.1,3.2,97.5,3.4z
			 M95.4,4.5C95.2,4.7,95.1,5,95,5.4h2.4c0-0.4-0.1-0.6-0.4-0.8s-0.5-0.3-0.8-0.3C95.9,4.2,95.6,4.3,95.4,4.5z"/>
		<path d="M100.6,6.8c0,0.2,0.1,0.4,0.2,0.5c0.2,0.2,0.5,0.3,1,0.3c0.3,0,0.5,0,0.6-0.1s0.2-0.2,0.2-0.4c0-0.2-0.1-0.3-0.2-0.4
			c-0.1-0.1-0.6-0.2-1.4-0.4c-0.6-0.1-1-0.3-1.3-0.6c-0.2-0.2-0.4-0.5-0.4-0.9c0-0.5,0.2-0.9,0.6-1.3s0.9-0.5,1.6-0.5
			c0.7,0,1.2,0.1,1.6,0.4s0.7,0.7,0.7,1.4h-1.4c0-0.2-0.1-0.3-0.1-0.4c-0.2-0.2-0.4-0.3-0.8-0.3c-0.3,0-0.5,0-0.6,0.1
			c-0.1,0.1-0.2,0.2-0.2,0.3c0,0.2,0.1,0.3,0.2,0.3c0.1,0.1,0.6,0.2,1.4,0.4c0.5,0.1,1,0.3,1.2,0.6c0.3,0.3,0.4,0.6,0.4,1
			c0,0.5-0.2,0.9-0.6,1.3c-0.4,0.3-1,0.5-1.8,0.5c-0.8,0-1.4-0.2-1.8-0.5c-0.4-0.3-0.6-0.8-0.6-1.3H100.6z"/>
		<path d="M109.5,3.8c0.4,0.5,0.6,1.1,0.6,2c0,0.9-0.2,1.6-0.6,2.1c-0.4,0.5-1,0.7-1.6,0.7c-0.4,0-0.8-0.1-1.1-0.3
			c-0.2-0.1-0.3-0.3-0.4-0.5v2.7H105V3.2h1.3V4c0.1-0.2,0.3-0.4,0.5-0.5c0.3-0.2,0.7-0.4,1.1-0.4C108.5,3.1,109.1,3.4,109.5,3.8z
			 M108.4,4.8c-0.2-0.3-0.5-0.5-0.9-0.5c-0.5,0-0.9,0.2-1,0.7c-0.1,0.3-0.1,0.6-0.1,1c0,0.6,0.2,1,0.5,1.3c0.2,0.1,0.4,0.2,0.7,0.2
			c0.4,0,0.7-0.1,0.9-0.4s0.3-0.7,0.3-1.2C108.7,5.5,108.6,5.1,108.4,4.8z"/>
		<path d="M115.5,7.9c-0.4,0.5-1.1,0.8-2,0.8c-0.9,0-1.6-0.3-2-0.8c-0.4-0.5-0.7-1.2-0.7-2c0-0.8,0.2-1.4,0.7-2
			c0.4-0.6,1.1-0.8,2-0.8c0.9,0,1.6,0.3,2,0.8s0.7,1.2,0.7,2C116.2,6.7,115.9,7.3,115.5,7.9z M114.4,7.1c0.2-0.3,0.3-0.7,0.3-1.2
			c0-0.5-0.1-0.9-0.3-1.2c-0.2-0.3-0.5-0.4-0.9-0.4s-0.7,0.1-0.9,0.4c-0.2,0.3-0.3,0.7-0.3,1.2c0,0.5,0.1,0.9,0.3,1.2
			c0.2,0.3,0.5,0.4,0.9,0.4S114.2,7.4,114.4,7.1z"/>
		<path d="M121.4,3.5c0.3,0.3,0.5,0.8,0.5,1.4v3.5h-1.4V5.3c0-0.3,0-0.5-0.1-0.6c-0.1-0.3-0.4-0.4-0.8-0.4c-0.5,0-0.8,0.2-1,0.6
			c-0.1,0.2-0.1,0.5-0.1,0.8v2.9h-1.4V3.3h1.3V4c0.2-0.3,0.3-0.5,0.5-0.6c0.3-0.2,0.6-0.3,1.1-0.3C120.6,3.1,121,3.3,121.4,3.5z"/>
		<path d="M124.3,6.8c0,0.2,0.1,0.4,0.2,0.5c0.2,0.2,0.5,0.3,1,0.3c0.3,0,0.5,0,0.6-0.1s0.2-0.2,0.2-0.4c0-0.2-0.1-0.3-0.2-0.4
			c-0.1-0.1-0.6-0.2-1.4-0.4c-0.6-0.1-1-0.3-1.3-0.6c-0.2-0.2-0.4-0.5-0.4-0.9c0-0.5,0.2-0.9,0.6-1.3s0.9-0.5,1.6-0.5
			c0.7,0,1.2,0.1,1.6,0.4s0.7,0.7,0.7,1.4h-1.4c0-0.2-0.1-0.3-0.1-0.4c-0.2-0.2-0.4-0.3-0.8-0.3c-0.3,0-0.5,0-0.6,0.1
			c-0.1,0.1-0.2,0.2-0.2,0.3c0,0.2,0.1,0.3,0.2,0.3c0.1,0.1,0.6,0.2,1.4,0.4c0.5,0.1,1,0.3,1.2,0.6c0.3,0.3,0.4,0.6,0.4,1
			c0,0.5-0.2,0.9-0.6,1.3c-0.4,0.3-1,0.5-1.8,0.5c-0.8,0-1.4-0.2-1.8-0.5c-0.4-0.3-0.6-0.8-0.6-1.3H124.3z"/>
		<path d="M132.1,3.4c0.4,0.2,0.7,0.4,0.9,0.8c0.2,0.3,0.4,0.7,0.4,1.1c0,0.2,0.1,0.6,0,1h-3.8c0,0.5,0.2,0.9,0.6,1.1
			c0.2,0.1,0.5,0.2,0.8,0.2c0.3,0,0.6-0.1,0.8-0.2c0.1-0.1,0.2-0.2,0.3-0.4h1.4c0,0.3-0.2,0.6-0.5,1c-0.5,0.5-1.1,0.8-2,0.8
			c-0.7,0-1.3-0.2-1.9-0.6c-0.5-0.4-0.8-1.1-0.8-2.1c0-0.9,0.2-1.6,0.7-2.1c0.5-0.5,1.1-0.7,1.9-0.7C131.4,3.1,131.8,3.2,132.1,3.4z
			 M130.1,4.5c-0.2,0.2-0.3,0.5-0.4,0.8h2.4c0-0.4-0.1-0.6-0.4-0.8s-0.5-0.3-0.8-0.3C130.5,4.2,130.3,4.3,130.1,4.5z"/>
	</g>
	<polyline class="st4" points="15.4,208 15.7,208 16,207.8 16.2,207.5 16.5,207 16.8,206.4 17.1,205.7 17.4,204.9 17.6,203.9 
		17.9,202.8 18.2,201.6 18.5,200.3 18.8,198.9 19.1,197.4 19.3,195.7 19.6,194 19.9,192.2 20.2,190.2 20.5,188.2 20.7,186.1 
		21,183.8 21.3,181.5 21.6,179.1 21.9,176.6 22.1,174 22.4,171.4 22.7,168.6 23,165.8 23.3,162.8 23.5,159.8 23.8,156.7 24.1,153.5 
		24.4,150.3 24.7,146.9 24.9,143.5 25.2,140 25.5,136.5 25.8,132.8 26.1,129.1 26.4,125.4 26.6,121.5 26.9,117.7 27.2,113.8 
		27.5,109.9 27.8,105.9 28,102 28.3,98 28.6,94.1 28.9,90.2 29.2,86.4 29.4,82.6 29.7,79 30,75.4 30.3,72.1 30.6,68.8 30.8,65.8 
		31.1,63 31.4,60.3 31.7,58 32,55.9 32.2,54.1 32.5,52.6 32.8,51.4 33.1,50.6 33.4,50 33.7,49.8 33.9,49.9 34.2,50.3 34.5,51 
		34.8,52 35.1,53.2 35.3,54.7 35.6,56.5 35.9,58.4 36.2,60.6 36.5,62.9 36.7,65.3 37,67.9 37.3,70.6 37.6,73.4 37.9,76.3 38.1,79.2 
		38.4,82.2 38.7,85.2 39,88.3 39.3,91.3 39.6,94.4 39.8,97.4 40.1,100.4 40.4,103.4 40.7,106.4 41,109.3 41.2,112.2 41.5,115.1 
		41.8,117.9 42.1,120.7 42.4,123.4 42.6,126.1 42.9,128.7 43.2,131.3 43.5,133.9 43.8,136.4 44,138.8 44.3,141.2 44.6,143.6 
		44.9,145.9 45.2,148.1 45.4,150.3 45.7,152.5 46,154.6 46.3,156.7 46.6,158.8 46.9,160.8 47.1,162.7 47.4,164.7 47.7,166.6 
		48,168.4 48.3,170.2 48.5,172 48.8,173.8 49.1,175.5 49.4,177.2 49.7,178.8 49.9,180.4 50.2,182 50.5,183.6 50.8,185.1 51.1,186.6 
		51.3,188.1 51.6,189.6 51.9,191 52.2,192.4 52.5,193.8 52.7,195.1 53,196.5 53.3,197.8 53.6,199.1 53.9,200.4 54.2,201.6 
		54.4,202.8 54.7,204 55,205.2 55.3,206.4 55.6,207.5 55.8,208.7 56.1,209.8 56.4,210.9 56.7,211.9 57,213 57.2,214 57.5,215 
		57.8,216 58.1,217 58.4,218 58.6,218.9 58.9,219.9 59.2,220.8 59.5,221.6 59.8,222.5 60,223.4 60.3,224.2 60.6,225 60.9,225.8 
		61.2,226.5 61.5,227.3 61.7,228 62,228.7 62.3,229.4 62.6,230 62.9,230.6 63.1,231.2 63.4,231.8 63.7,232.3 64,232.8 64.3,233.2 
		64.5,233.7 64.8,234.1 65.1,234.4 65.4,234.7 65.7,235 65.9,235.3 66.2,235.5 66.5,235.6 66.8,235.7 67.1,235.8 67.3,235.8 
		67.6,235.8 67.9,235.7 68.2,235.5 68.5,235.4 68.8,235.1 69,234.8 69.3,234.5 69.6,234.1 69.9,233.7 70.2,233.2 70.4,232.6 
		70.7,232 71,231.4 71.3,230.7 71.6,229.9 71.8,229.1 72.1,228.3 72.4,227.3 72.7,226.4 73,225.4 73.2,224.3 73.5,223.2 73.8,222 
		74.1,220.8 74.4,219.6 74.7,218.2 74.9,216.9 75.2,215.5 75.5,214 75.8,212.5 76.1,210.9 76.3,209.3 76.6,207.6 76.9,205.8 
		77.2,204 77.5,202.2 77.7,200.3 78,198.3 78.3,196.3 78.6,194.3 78.9,192.2 79.1,190 79.4,187.8 79.7,185.6 80,183.3 80.3,181.1 
		80.5,178.7 80.8,176.4 81.1,174.1 81.4,171.7 81.7,169.4 82,167.2 82.2,165 82.5,162.8 82.8,160.7 83.1,158.8 83.4,157 83.6,155.3 
		83.9,153.8 84.2,152.5 84.5,151.4 84.8,150.5 85,149.9 85.3,149.5 85.6,149.4 85.9,149.5 86.2,149.9 86.4,150.5 86.7,151.4 
		87,152.5 87.3,153.8 87.6,155.3 87.8,157 88.1,158.8 88.4,160.7 88.7,162.8 89,165 89.3,167.2 89.5,169.4 89.8,171.7 90.1,174.1 
		90.4,176.4 90.7,178.7 90.9,181.1 91.2,183.3 91.5,185.6 91.8,187.8 92.1,190 92.3,192.2 92.6,194.3 92.9,196.3 93.2,198.3 
		93.5,200.3 93.7,202.2 94,204 94.3,205.8 94.6,207.6 94.9,209.3 95.1,210.9 95.4,212.5 95.7,214 96,215.5 96.3,216.9 96.6,218.2 
		96.8,219.6 97.1,220.8 97.4,222 97.7,223.2 98,224.3 98.2,225.4 98.5,226.4 98.8,227.3 99.1,228.3 99.4,229.1 99.6,229.9 
		99.9,230.7 100.2,231.4 100.5,232 100.8,232.6 101,233.2 101.3,233.7 101.6,234.1 101.9,234.5 102.2,234.8 102.4,235.1 
		102.7,235.4 103,235.5 103.3,235.7 103.6,235.8 103.9,235.8 104.1,235.8 104.4,235.7 104.7,235.6 105,235.5 105.3,235.3 105.5,235 
		105.8,234.7 106.1,234.4 106.4,234.1 106.7,233.7 106.9,233.2 107.2,232.8 107.5,232.3 107.8,231.8 108.1,231.2 108.3,230.6 
		108.6,230 108.9,229.4 109.2,228.7 109.5,228 109.8,227.3 110,226.5 110.3,225.8 110.6,225 110.9,224.2 111.2,223.4 111.4,222.5 
		111.7,221.6 112,220.8 112.3,219.9 112.6,218.9 112.8,218 113.1,217 113.4,216 113.7,215 114,214 114.2,213 114.5,211.9 
		114.8,210.9 115.1,209.8 115.4,208.7 115.6,207.5 115.9,206.4 116.2,205.2 116.5,204 116.8,202.8 117.1,201.6 117.3,200.4 
		117.6,199.1 117.9,197.8 118.2,196.5 118.5,195.1 118.7,193.8 119,192.4 119.3,191 119.6,189.6 119.9,188.1 120.1,186.6 
		120.4,185.1 120.7,183.6 121,182 121.3,180.4 121.5,178.8 121.8,177.2 122.1,175.5 122.4,173.8 122.7,172 122.9,170.2 123.2,168.4 
		123.5,166.6 123.8,164.7 124.1,162.7 124.4,160.8 124.6,158.8 124.9,156.7 125.2,154.6 125.5,152.5 125.8,150.3 126,148.1 
		126.3,145.9 126.6,143.6 126.9,141.2 127.2,138.8 127.4,136.4 127.7,133.9 128,131.3 128.3,128.7 128.6,126.1 128.8,123.4 
		129.1,120.7 129.4,117.9 129.7,115.1 130,112.2 130.2,109.3 130.5,106.4 130.8,103.4 131.1,100.4 131.4,97.4 131.7,94.4 
		131.9,91.3 132.2,88.3 132.5,85.2 132.8,82.2 133.1,79.2 133.3,76.3 133.6,73.4 133.9,70.6 134.2,67.9 134.5,65.3 134.7,62.9 
		135,60.6 135.3,58.4 135.6,56.5 135.9,54.7 136.1,53.2 136.4,52 136.7,51 137,50.3 137.3,49.9 137.5,49.8 137.8,50 138.1,50.6 
		138.4,51.4 138.7,52.6 139,54.1 139.2,55.9 139.5,58 139.8,60.3 140.1,63 140.4,65.8 140.6,68.8 140.9,72.1 141.2,75.4 141.5,79 
		141.8,82.6 142,86.4 142.3,90.2 142.6,94.1 142.9,98 143.2,102 143.4,105.9 143.7,109.9 144,113.8 144.3,117.7 144.6,121.5 
		144.9,125.4 145.1,129.1 145.4,132.8 145.7,136.5 146,140 146.3,143.5 146.5,146.9 146.8,150.3 147.1,153.5 147.4,156.7 
		147.7,159.8 147.9,162.8 148.2,165.8 148.5,168.6 148.8,171.4 149.1,174 149.3,176.6 149.6,179.1 149.9,181.5 150.2,183.8 
		150.5,186.1 150.7,188.2 151,190.2 151.3,192.2 151.6,194 151.9,195.7 152.2,197.4 152.4,198.9 152.7,200.3 153,201.6 153.3,202.8 
		153.6,203.9 153.8,204.9 154.1,205.7 154.4,206.4 154.7,207 155,207.5 155.2,207.8 155.5,208 	"/>
	<path class="st0" d="M200.2,269.2V12.4 M235.5,269.2V12.4 M270.7,269.2V12.4 M306,269.2V12.4 M341.2,269.2V12.4 M341.2,269.2h-141
		 M341.2,205h-141 M341.2,140.8h-141 M341.2,76.6h-141 M341.2,12.4h-141"/>
	<path class="st1" d="M200.2,269.2h141 M200.2,12.4h141 M200.2,269.2v-2.6 M235.5,269.2v-2.6 M270.7,269.2v-2.6 M306,269.2v-2.6
		 M341.2,269.2v-2.6 M200.2,12.4V15 M235.5,12.4V15 M270.7,12.4V15 M306,12.4V15 M341.2,12.4V15"/>
	<g>
		<path class="st2" d="M196.4,278.9h2.2v0.8h-2.2V278.9z"/>
	</g>
	<path class="st3" d="M199.9,281.6c0,0,0-0.1,0-0.1c0.2-0.4,0.3-0.7,0.5-1c0.1-0.3,0.3-0.7,0.4-1c0.1-0.3,0.2-0.7,0.3-1h-0.6
		c-0.2,0-0.4,0.1-0.6,0.2c-0.2,0.1-0.3,0.3-0.5,0.5c0,0,0,0-0.1,0h-0.1c-0.1,0-0.1,0-0.1-0.1c0,0,0,0,0-0.1c0.2-0.3,0.4-0.6,0.6-0.8
		c0.2-0.2,0.5-0.3,0.8-0.3h3.3c0.1,0,0.1,0,0.2,0.1c0,0,0.1,0.1,0.1,0.2c0,0.1,0,0.2-0.1,0.2c-0.1,0.1-0.1,0.1-0.2,0.1h-1.1
		c-0.1,0.5-0.2,0.9-0.2,1.4c0,0.6,0.1,1.1,0.3,1.6c0,0,0,0.1,0,0.1c0,0.1,0,0.1-0.1,0.2c0,0.1-0.1,0.1-0.2,0.1
		c-0.1,0-0.1,0.1-0.2,0.1c-0.2,0-0.3-0.1-0.3-0.4c-0.1-0.3-0.1-0.5-0.1-0.8c0-0.3,0-0.7,0.1-1c0.1-0.3,0.2-0.8,0.3-1.3h-1
		c-0.5,1.9-0.8,3-0.9,3.2c-0.1,0.2-0.2,0.2-0.3,0.2c-0.1,0-0.1,0-0.2-0.1C199.9,281.8,199.9,281.7,199.9,281.6L199.9,281.6z"/>
	<g>
		<path class="st2" d="M227.6,278.9h2.2v0.8h-2.2V278.9z"/>
	</g>
	<path class="st3" d="M231.1,281.6c0,0,0-0.1,0-0.1c0.2-0.4,0.3-0.7,0.5-1c0.1-0.3,0.3-0.7,0.4-1s0.2-0.7,0.3-1h-0.6
		c-0.2,0-0.4,0.1-0.6,0.2c-0.2,0.1-0.3,0.3-0.5,0.5c0,0,0,0-0.1,0h-0.1c-0.1,0-0.1,0-0.1-0.1c0,0,0,0,0-0.1c0.2-0.3,0.4-0.6,0.6-0.8
		c0.2-0.2,0.5-0.3,0.8-0.3h3.3c0.1,0,0.1,0,0.2,0.1c0,0,0.1,0.1,0.1,0.2c0,0.1,0,0.2-0.1,0.2c-0.1,0.1-0.1,0.1-0.2,0.1h-1.1
		c-0.1,0.5-0.2,0.9-0.2,1.4c0,0.6,0.1,1.1,0.3,1.6c0,0,0,0.1,0,0.1c0,0.1,0,0.1-0.1,0.2c0,0.1-0.1,0.1-0.2,0.1
		c-0.1,0-0.1,0.1-0.2,0.1c-0.2,0-0.3-0.1-0.3-0.4c-0.1-0.3-0.1-0.5-0.1-0.8c0-0.3,0-0.7,0.1-1c0.1-0.3,0.2-0.8,0.3-1.3h-1
		c-0.5,1.9-0.8,3-0.9,3.2c-0.1,0.2-0.2,0.2-0.3,0.2c-0.1,0-0.1,0-0.2-0.1C231.1,281.8,231.1,281.7,231.1,281.6L231.1,281.6z"/>
	<g>
		<path class="st2" d="M238.3,275.2l-2.2,6.8h-0.6l2.2-6.8H238.3z"/>
		<path class="st2" d="M242.7,277.3c0,0.5-0.1,0.8-0.4,1.1c-0.2,0.3-0.7,0.6-1.3,1c-0.7,0.4-1.2,0.8-1.5,1.1
			c-0.1,0.1-0.2,0.3-0.3,0.5h3.4v0.8h-4.3v0c0-0.7,0.2-1.2,0.5-1.6c0.3-0.4,1-0.9,1.9-1.4c0.4-0.2,0.7-0.5,0.9-0.7
			c0.2-0.2,0.2-0.5,0.2-0.8c0-0.3-0.1-0.6-0.4-0.8c-0.2-0.2-0.5-0.3-0.9-0.3c-0.4,0-0.7,0.1-0.9,0.4c-0.2,0.3-0.3,0.7-0.4,1.1h-0.8
			c0-0.7,0.2-1.2,0.6-1.6c0.4-0.4,0.9-0.6,1.6-0.6c0.6,0,1.1,0.2,1.4,0.5C242.5,276.3,242.7,276.8,242.7,277.3z"/>
	</g>
	<g>
		<path class="st2" d="M268.9,280.9c-0.4-0.6-0.6-1.4-0.6-2.4s0.2-1.8,0.6-2.4c0.4-0.6,0.9-0.8,1.6-0.8c0.7,0,1.2,0.3,1.6,0.8
			c0.4,0.6,0.6,1.4,0.6,2.4s-0.2,1.8-0.6,2.4c-0.4,0.6-0.9,0.8-1.6,0.8C269.8,281.8,269.3,281.5,268.9,280.9z M271.5,280.4
			c0.2-0.4,0.3-1.1,0.3-1.9c0-0.8-0.1-1.5-0.3-1.9c-0.2-0.4-0.6-0.6-1-0.6c-0.4,0-0.8,0.2-1,0.6c-0.2,0.4-0.3,1.1-0.3,1.9
			c0,0.8,0.1,1.5,0.3,1.9c0.2,0.4,0.5,0.6,1,0.6C270.9,281,271.3,280.8,271.5,280.4z"/>
	</g>
	<path class="st3" d="M300.1,281.6c0,0,0-0.1,0-0.1c0.2-0.4,0.3-0.7,0.5-1c0.1-0.3,0.3-0.7,0.4-1s0.2-0.7,0.3-1h-0.6
		c-0.2,0-0.4,0.1-0.6,0.2c-0.2,0.1-0.3,0.3-0.5,0.5c0,0,0,0-0.1,0h-0.1c-0.1,0-0.1,0-0.1-0.1c0,0,0,0,0-0.1c0.2-0.3,0.4-0.6,0.6-0.8
		c0.2-0.2,0.5-0.3,0.8-0.3h3.3c0.1,0,0.1,0,0.2,0.1c0,0,0.1,0.1,0.1,0.2c0,0.1,0,0.2-0.1,0.2c-0.1,0.1-0.1,0.1-0.2,0.1h-1.1
		c-0.1,0.5-0.2,0.9-0.2,1.4c0,0.6,0.1,1.1,0.3,1.6c0,0,0,0.1,0,0.1c0,0.1,0,0.1-0.1,0.2c0,0.1-0.1,0.1-0.1,0.1
		c-0.1,0-0.1,0.1-0.2,0.1c-0.2,0-0.3-0.1-0.3-0.4c-0.1-0.3-0.1-0.5-0.1-0.8c0-0.3,0-0.7,0.1-1c0.1-0.3,0.2-0.8,0.3-1.3h-1
		c-0.5,1.9-0.8,3-0.9,3.2c-0.1,0.2-0.2,0.2-0.3,0.2c-0.1,0-0.1,0-0.2-0.1C300.1,281.8,300.1,281.7,300.1,281.6L300.1,281.6z"/>
	<g>
		<path class="st2" d="M307.3,275.2l-2.2,6.8h-0.6l2.2-6.8H307.3z"/>
		<path class="st2" d="M311.7,277.3c0,0.5-0.1,0.8-0.4,1.1c-0.2,0.3-0.7,0.6-1.3,1c-0.7,0.4-1.2,0.8-1.5,1.1
			c-0.1,0.1-0.2,0.3-0.3,0.5h3.4v0.8h-4.3v0c0-0.7,0.2-1.2,0.5-1.6c0.3-0.4,1-0.9,1.9-1.4c0.4-0.2,0.7-0.5,0.9-0.7
			c0.2-0.2,0.2-0.5,0.2-0.8c0-0.3-0.1-0.6-0.4-0.8c-0.2-0.2-0.5-0.3-0.9-0.3c-0.4,0-0.7,0.1-0.9,0.4c-0.2,0.3-0.3,0.7-0.4,1.1h-0.8
			c0-0.7,0.2-1.2,0.6-1.6c0.4-0.4,0.9-0.6,1.6-0.6c0.6,0,1.1,0.2,1.4,0.5C311.5,276.3,311.7,276.8,311.7,277.3z"/>
	</g>
	<path class="st3" d="M339.1,281.6c0,0,0-0.1,0-0.1c0.2-0.4,0.3-0.7,0.5-1c0.1-0.3,0.3-0.7,0.4-1s0.2-0.7,0.3-1h-0.6
		c-0.2,0-0.4,0.1-0.6,0.2c-0.2,0.1-0.3,0.3-0.5,0.5c0,0,0,0-0.1,0h-0.1c-0.1,0-0.1,0-0.1-0.1c0,0,0,0,0-0.1c0.2-0.3,0.4-0.6,0.6-0.8
		c0.2-0.2,0.5-0.3,0.8-0.3h3.3c0.1,0,0.1,0,0.2,0.1c0,0,0.1,0.1,0.1,0.2c0,0.1,0,0.2-0.1,0.2c-0.1,0.1-0.1,0.1-0.2,0.1h-1.1
		c-0.1,0.5-0.2,0.9-0.2,1.4c0,0.6,0.1,1.1,0.3,1.6c0,0,0,0.1,0,0.1c0,0.1,0,0.1-0.1,0.2c0,0.1-0.1,0.1-0.1,0.1
		c-0.1,0-0.1,0.1-0.2,0.1c-0.2,0-0.3-0.1-0.3-0.4c-0.1-0.3-0.1-0.5-0.1-0.8c0-0.3,0-0.7,0.1-1c0.1-0.3,0.2-0.8,0.3-1.3h-1
		c-0.5,1.9-0.8,3-0.9,3.2c-0.1,0.2-0.2,0.2-0.3,0.2c-0.1,0-0.1,0-0.2-0.1C339.1,281.8,339.1,281.7,339.1,281.6L339.1,281.6z"/>
	<path class="st3" d="M243.5,295.8c0,0-0.1,0-0.1-0.1c0,0-0.1-0.1-0.1-0.1c0,0,0-0.1,0.1-0.1c0,0,0.1-0.1,0.1-0.1h7.3
		c-0.2-0.2-0.5-0.4-0.6-0.6c-0.2-0.2-0.3-0.5-0.5-0.7c-0.1-0.3-0.2-0.5-0.3-0.8c0-0.1,0-0.1,0.1-0.1h0.2c0,0,0,0,0.1,0s0,0,0,0.1
		c0.1,0.3,0.1,0.5,0.2,0.8s0.3,0.5,0.4,0.7c0.2,0.2,0.4,0.4,0.6,0.5c0.2,0.1,0.5,0.3,0.7,0.4c0,0,0.1,0.1,0.1,0.1
		c0,0.1,0,0.1-0.1,0.1c-0.3,0.1-0.6,0.3-0.9,0.5c-0.3,0.2-0.5,0.5-0.7,0.8c-0.2,0.3-0.3,0.6-0.4,1c0,0,0,0,0,0.1s0,0-0.1,0h-0.2
		c-0.1,0-0.1,0-0.1-0.1c0.1-0.4,0.2-0.9,0.5-1.2c0.2-0.4,0.5-0.7,0.9-1H243.5L243.5,295.8z"/>
	<g>
	</g>
	<path class="st3" d="M257.5,298.1c-0.3,0-0.5-0.1-0.7-0.3c-0.2-0.2-0.3-0.5-0.4-0.8c-0.1-0.3-0.1-0.6-0.1-0.9v0c0-0.3,0-0.6,0.1-1
		c0.1-0.3,0.2-0.7,0.3-1c0.1-0.3,0.2-0.6,0.4-0.9c0.1-0.2,0.2-0.4,0.4-0.6s0.3-0.4,0.5-0.7c0.2-0.2,0.4-0.4,0.6-0.5
		c0.2-0.1,0.4-0.2,0.6-0.2h0c0.2,0,0.4,0.1,0.6,0.2c0.2,0.1,0.3,0.3,0.4,0.5c0.1,0.2,0.1,0.4,0.2,0.6c0,0.2,0.1,0.4,0.1,0.7
		c0,0.5-0.1,1-0.2,1.5c-0.1,0.5-0.3,1-0.5,1.5c-0.1,0.2-0.2,0.4-0.4,0.6c-0.2,0.2-0.3,0.5-0.5,0.6c-0.2,0.2-0.4,0.4-0.6,0.5
		C258,298,257.8,298.1,257.5,298.1L257.5,298.1L257.5,298.1z M257.6,297.8c0.2,0,0.4-0.1,0.6-0.3c0.2-0.2,0.4-0.5,0.5-0.8
		c0.1-0.3,0.3-0.7,0.4-1c0.1-0.3,0.2-0.6,0.2-0.9h-2c-0.1,0.4-0.2,0.7-0.2,1c-0.1,0.3-0.1,0.6-0.1,0.9
		C257.1,297.5,257.2,297.8,257.6,297.8L257.6,297.8z M257.4,294.5h2c0.1-0.3,0.1-0.5,0.2-0.7c0-0.2,0.1-0.4,0.1-0.6
		c0-0.2,0-0.4,0-0.6c0-0.8-0.2-1.1-0.5-1.1c-0.4,0-0.8,0.3-1.1,1C257.9,293.1,257.6,293.8,257.4,294.5L257.4,294.5z"/>
	<g>
		<path class="st2" d="M264.2,290.8h1.9v0.7H265v7.7h1.1v0.7h-1.9V290.8z"/>
		<path class="st2" d="M267.1,292.8h0.4h0.4v0.9c0.1-0.1,0.2-0.3,0.2-0.4c0.3-0.4,0.7-0.7,1.2-0.7c0.1,0,0.2,0,0.2,0v0.9l-0.2,0
			c-0.5,0-0.8,0.1-1.1,0.4c-0.3,0.3-0.4,0.7-0.4,1.2v2.8h-0.4h-0.4V292.8z"/>
		<path class="st2" d="M271.6,298.1c-0.5,0-0.9-0.1-1.2-0.4c-0.3-0.3-0.4-0.6-0.4-1.1c0-0.5,0.1-0.8,0.4-1.1
			c0.3-0.3,0.7-0.4,1.2-0.5l1.2-0.2c0.1,0,0.2,0,0.3,0c0.1,0,0.2-0.1,0.3-0.2c0.1-0.1,0.1-0.2,0.1-0.3v0c0-0.3-0.1-0.5-0.3-0.7
			c-0.2-0.2-0.5-0.2-0.9-0.2c-0.4,0-0.6,0.1-0.8,0.2s-0.3,0.4-0.4,0.7h-0.8c0-0.6,0.2-1,0.6-1.3c0.4-0.3,0.9-0.4,1.5-0.4
			c0.6,0,1.1,0.1,1.4,0.4c0.3,0.3,0.5,0.7,0.5,1.2v2.8c0,0.1,0,0.2,0.1,0.2c0.1,0.1,0.1,0.1,0.2,0.1c0,0,0.1,0,0.1,0
			c0,0,0.1,0,0.2,0v0.6c-0.1,0-0.2,0.1-0.3,0.1c-0.1,0-0.2,0-0.2,0c-0.3,0-0.6-0.1-0.7-0.3c-0.1-0.1-0.2-0.3-0.2-0.5
			c-0.1,0.1-0.1,0.2-0.2,0.2C272.8,297.9,272.2,298.1,271.6,298.1z M273.4,295.9v-0.6c-0.2,0.1-0.3,0.1-0.5,0.2l-0.8,0.1
			c-0.4,0.1-0.7,0.2-0.9,0.3c-0.2,0.1-0.3,0.3-0.3,0.6c0,0.3,0.1,0.5,0.2,0.7c0.2,0.2,0.4,0.2,0.7,0.2c0.5,0,0.8-0.1,1.2-0.4
			c0.2-0.2,0.4-0.4,0.4-0.6c0,0,0-0.1,0-0.2C273.4,296.2,273.4,296.1,273.4,295.9z"/>
		<path class="st2" d="M277.7,298.1c-0.7,0-1.2-0.3-1.7-0.8s-0.6-1.2-0.6-2.1c0-0.8,0.2-1.4,0.6-1.9c0.4-0.5,0.9-0.7,1.6-0.7
			c0.6,0,1.1,0.3,1.5,0.8l0.1,0.1v-2.7h0.4h0.4v7.1h-0.4h-0.4v-0.7l-0.1,0.2C278.8,297.9,278.3,298.1,277.7,298.1z M277.8,293.4
			c-0.5,0-0.8,0.2-1.1,0.5c-0.2,0.3-0.3,0.8-0.3,1.5c0,0.6,0.1,1.1,0.4,1.5s0.6,0.5,1,0.5c0.4,0,0.8-0.2,1-0.5s0.4-0.7,0.4-1.3
			c0-0.7-0.1-1.2-0.4-1.6S278.2,293.4,277.8,293.4z"/>
		<path class="st2" d="M281.5,296.9h1v1h-1V296.9z"/>
	</g>
	<g>
		<path class="st2" d="M285.3,294.3c0-0.3-0.1-0.5-0.4-0.7c-0.2-0.2-0.5-0.2-0.8-0.2c-0.4,0-0.6,0.1-0.8,0.2
			c-0.2,0.1-0.3,0.3-0.3,0.6c0,0.2,0.1,0.3,0.2,0.4c0.1,0.1,0.4,0.2,0.8,0.3l0.9,0.2c0.5,0.1,0.9,0.3,1.1,0.5
			c0.2,0.2,0.3,0.5,0.3,0.9c0,0.5-0.2,0.9-0.6,1.2s-0.9,0.5-1.5,0.5c-0.7,0-1.3-0.1-1.6-0.4c-0.4-0.3-0.6-0.7-0.6-1.4h0.8
			c0,0.4,0.2,0.6,0.4,0.8s0.6,0.2,1,0.2c0.4,0,0.7-0.1,0.9-0.2c0.2-0.1,0.3-0.4,0.3-0.6c0-0.2-0.1-0.3-0.2-0.4
			c-0.1-0.1-0.4-0.2-0.8-0.3l-0.9-0.2c-0.5-0.1-0.8-0.3-1-0.5c-0.2-0.2-0.3-0.5-0.3-0.9c0-0.5,0.2-0.9,0.5-1.2s0.8-0.4,1.4-0.4
			c0.6,0,1.1,0.1,1.4,0.4c0.4,0.3,0.5,0.7,0.6,1.2H285.3z"/>
	</g>
	<g>
		<path class="st2" d="M288.7,290.6h1.9v0.7h-1.9V290.6z"/>
		<path class="st2" d="M293.1,289.2h-1.3v-0.6c0.4,0,0.7-0.1,0.9-0.2c0.2-0.2,0.4-0.4,0.5-0.8h0.6v5.6h-0.4h-0.4V289.2z"/>
	</g>
	<g>
		<path class="st2" d="M297.7,299.9h-1.9v-0.7h1.1v-7.7h-1.1v-0.7h1.9V299.9z"/>
	</g>
	<path class="st1" d="M200.2,269.2V12.4 M341.2,269.2V12.4 M200.2,269.2h2.6 M200.2,205h2.6 M200.2,140.8h2.6 M200.2,76.6h2.6
		 M200.2,12.4h2.6 M341.2,269.2h-2.6 M341.2,205h-2.6 M341.2,140.8h-2.6 M341.2,76.6h-2.6 M341.2,12.4h-2.6"/>
	<g>
		<path class="st2" d="M189.2,269.9h2.2v0.8h-2.2V269.9z"/>
	</g>
	<path class="st3" d="M192.7,272.6c0,0,0-0.1,0-0.1c0.2-0.4,0.3-0.7,0.5-1c0.1-0.3,0.3-0.7,0.4-1s0.2-0.7,0.3-1h-0.6
		c-0.2,0-0.4,0.1-0.6,0.2c-0.2,0.1-0.3,0.3-0.5,0.5c0,0,0,0-0.1,0h-0.1c-0.1,0-0.1,0-0.1-0.1c0,0,0,0,0-0.1c0.2-0.3,0.4-0.6,0.6-0.8
		c0.2-0.2,0.5-0.3,0.8-0.3h3.3c0.1,0,0.1,0,0.2,0.1c0,0,0.1,0.1,0.1,0.2c0,0.1,0,0.2-0.1,0.2c-0.1,0.1-0.1,0.1-0.2,0.1h-1.1
		c-0.1,0.5-0.2,0.9-0.2,1.4c0,0.6,0.1,1.1,0.3,1.6c0,0,0,0.1,0,0.1c0,0.1,0,0.1-0.1,0.2c0,0.1-0.1,0.1-0.1,0.1
		c-0.1,0-0.1,0.1-0.2,0.1c-0.2,0-0.3-0.1-0.3-0.4c-0.1-0.3-0.1-0.5-0.1-0.8c0-0.3,0-0.7,0.1-1c0.1-0.3,0.2-0.8,0.3-1.3h-1
		c-0.5,1.9-0.8,3-0.9,3.2c-0.1,0.2-0.2,0.2-0.3,0.2c-0.1,0-0.1,0-0.2-0.1C192.7,272.8,192.7,272.7,192.7,272.6L192.7,272.6z"/>
	<g>
		<path class="st2" d="M181.4,205.7h2.2v0.8h-2.2V205.7z"/>
	</g>
	<path class="st3" d="M184.9,208.4c0,0,0-0.1,0-0.1c0.2-0.4,0.3-0.7,0.5-1c0.1-0.3,0.3-0.7,0.4-1c0.1-0.3,0.2-0.7,0.3-1h-0.6
		c-0.2,0-0.4,0.1-0.6,0.2c-0.2,0.1-0.3,0.3-0.5,0.5c0,0,0,0-0.1,0h-0.1c-0.1,0-0.1,0-0.1-0.1c0,0,0,0,0-0.1c0.2-0.3,0.4-0.6,0.6-0.8
		c0.2-0.2,0.5-0.3,0.8-0.3h3.3c0.1,0,0.1,0,0.2,0.1c0,0,0.1,0.1,0.1,0.2c0,0.1,0,0.2-0.1,0.2c-0.1,0.1-0.1,0.1-0.2,0.1h-1.1
		c-0.1,0.5-0.2,0.9-0.2,1.4c0,0.6,0.1,1.1,0.3,1.6c0,0,0,0.1,0,0.1c0,0.1,0,0.1-0.1,0.2c0,0.1-0.1,0.1-0.2,0.1
		c-0.1,0-0.1,0.1-0.2,0.1c-0.2,0-0.3-0.1-0.3-0.4c-0.1-0.3-0.1-0.5-0.1-0.8c0-0.3,0-0.7,0.1-1c0.1-0.3,0.2-0.8,0.3-1.3h-1
		c-0.5,1.9-0.8,3-0.9,3.2c-0.1,0.2-0.2,0.2-0.3,0.2c-0.1,0-0.1,0-0.2-0.1C184.9,208.6,184.9,208.5,184.9,208.4L184.9,208.4z"/>
	<g>
		<path class="st2" d="M192,202l-2.2,6.8h-0.6l2.2-6.8H192z"/>
		<path class="st2" d="M196.5,204.1c0,0.5-0.1,0.8-0.4,1.1c-0.2,0.3-0.7,0.6-1.3,1c-0.7,0.4-1.2,0.8-1.5,1.1
			c-0.1,0.1-0.2,0.3-0.3,0.5h3.4v0.8h-4.3v0c0-0.7,0.2-1.2,0.5-1.6c0.3-0.4,1-0.9,1.9-1.4c0.4-0.2,0.7-0.5,0.9-0.7
			c0.2-0.2,0.2-0.5,0.2-0.8c0-0.3-0.1-0.6-0.4-0.8c-0.2-0.2-0.5-0.3-0.9-0.3c-0.4,0-0.7,0.1-0.9,0.4c-0.2,0.3-0.3,0.7-0.4,1.1h-0.8
			c0-0.7,0.2-1.2,0.6-1.6c0.4-0.4,0.9-0.6,1.6-0.6c0.6,0,1.1,0.2,1.4,0.5C196.3,203.1,196.5,203.6,196.5,204.1z"/>
	</g>
	<g>
		<path class="st2" d="M192.9,143.7c-0.4-0.6-0.6-1.4-0.6-2.4s0.2-1.8,0.6-2.4c0.4-0.6,0.9-0.8,1.6-0.8c0.7,0,1.2,0.3,1.6,0.8
			c0.4,0.6,0.6,1.4,0.6,2.4s-0.2,1.8-0.6,2.4c-0.4,0.6-0.9,0.8-1.6,0.8C193.8,144.6,193.3,144.3,192.9,143.7z M195.5,143.2
			c0.2-0.4,0.3-1.1,0.3-1.9c0-0.8-0.1-1.5-0.3-1.9c-0.2-0.4-0.6-0.6-1-0.6c-0.4,0-0.8,0.2-1,0.6c-0.2,0.4-0.3,1.1-0.3,1.9
			c0,0.8,0.1,1.5,0.3,1.9c0.2,0.4,0.5,0.6,1,0.6C194.9,143.8,195.3,143.6,195.5,143.2z"/>
	</g>
	<path class="st3" d="M184.9,80c0,0,0-0.1,0-0.1c0.2-0.3,0.3-0.7,0.5-1c0.1-0.3,0.3-0.7,0.4-1c0.1-0.3,0.2-0.7,0.3-1h-0.6
		c-0.2,0-0.4,0.1-0.6,0.2c-0.2,0.1-0.3,0.3-0.5,0.5c0,0,0,0-0.1,0h-0.1c-0.1,0-0.1,0-0.1-0.1c0,0,0,0,0-0.1c0.2-0.3,0.4-0.6,0.6-0.8
		c0.2-0.2,0.5-0.3,0.8-0.3h3.3c0.1,0,0.1,0,0.2,0.1c0,0,0.1,0.1,0.1,0.2c0,0.1,0,0.2-0.1,0.2c-0.1,0.1-0.1,0.1-0.2,0.1h-1.1
		c-0.1,0.5-0.2,0.9-0.2,1.4c0,0.6,0.1,1.1,0.3,1.6c0,0,0,0.1,0,0.1c0,0.1,0,0.1-0.1,0.2c0,0.1-0.1,0.1-0.2,0.1
		c-0.1,0-0.1,0.1-0.2,0.1c-0.2,0-0.3-0.1-0.3-0.4c-0.1-0.3-0.1-0.5-0.1-0.8c0-0.3,0-0.7,0.1-1c0.1-0.3,0.2-0.8,0.3-1.3h-1
		c-0.5,1.9-0.8,3-0.9,3.2c-0.1,0.2-0.2,0.2-0.3,0.2c-0.1,0-0.1,0-0.2-0.1C184.9,80.2,184.9,80.1,184.9,80L184.9,80z"/>
	<g>
		<path class="st2" d="M192,73.6l-2.2,6.8h-0.6l2.2-6.8H192z"/>
		<path class="st2" d="M196.5,75.7c0,0.5-0.1,0.8-0.4,1.1c-0.2,0.3-0.7,0.6-1.3,1c-0.7,0.4-1.2,0.8-1.5,1.1
			c-0.1,0.1-0.2,0.3-0.3,0.5h3.4v0.8h-4.3v0c0-0.7,0.2-1.2,0.5-1.6c0.3-0.4,1-0.9,1.9-1.4c0.4-0.2,0.7-0.5,0.9-0.7s0.2-0.5,0.2-0.8
			c0-0.3-0.1-0.6-0.4-0.8s-0.5-0.3-0.9-0.3c-0.4,0-0.7,0.1-0.9,0.4c-0.2,0.3-0.3,0.6-0.4,1.1h-0.8c0-0.7,0.2-1.2,0.6-1.6
			c0.4-0.4,0.9-0.6,1.6-0.6c0.6,0,1.1,0.2,1.4,0.5C196.3,74.7,196.5,75.2,196.5,75.7z"/>
	</g>
	<path class="st3" d="M192.7,15.8c0,0,0-0.1,0-0.1c0.2-0.4,0.3-0.7,0.5-1c0.1-0.3,0.3-0.7,0.4-1c0.1-0.3,0.2-0.7,0.3-1h-0.6
		c-0.2,0-0.4,0.1-0.6,0.2c-0.2,0.1-0.3,0.3-0.5,0.5c0,0,0,0-0.1,0h-0.1c-0.1,0-0.1,0-0.1-0.1c0,0,0,0,0-0.1c0.2-0.3,0.4-0.6,0.6-0.8
		c0.2-0.2,0.5-0.3,0.8-0.3h3.3c0.1,0,0.1,0,0.2,0.1c0,0,0.1,0.1,0.1,0.2c0,0.1,0,0.2-0.1,0.2c-0.1,0.1-0.1,0.1-0.2,0.1h-1.1
		c-0.1,0.5-0.2,0.9-0.2,1.4c0,0.6,0.1,1.1,0.3,1.6c0,0,0,0.1,0,0.1c0,0.1,0,0.1-0.1,0.2c0,0.1-0.1,0.1-0.1,0.1
		c-0.1,0-0.1,0.1-0.2,0.1c-0.2,0-0.3-0.1-0.3-0.4c-0.1-0.3-0.1-0.5-0.1-0.8c0-0.3,0-0.7,0.1-1c0.1-0.3,0.2-0.8,0.3-1.3h-1
		c-0.5,1.9-0.8,3-0.9,3.2c-0.1,0.2-0.2,0.2-0.3,0.2c-0.1,0-0.1,0-0.2-0.1C192.7,16,192.7,15.9,192.7,15.8L192.7,15.8z"/>
	<g>
		<path d="M238.1,5.4c-0.4,0.3-1,0.5-1.8,0.5h-1.5v2.6h-1.5V1.4h3.1c0.7,0,1.3,0.2,1.7,0.6c0.4,0.4,0.6,0.9,0.6,1.7
			C238.8,4.5,238.6,5.1,238.1,5.4z M237,2.9c-0.2-0.2-0.5-0.2-0.8-0.2h-1.3v2.1h1.3c0.3,0,0.6-0.1,0.8-0.3s0.3-0.4,0.3-0.8
			C237.3,3.3,237.2,3,237,2.9z"/>
		<path d="M243.6,3.3c0.3,0.1,0.5,0.3,0.7,0.5c0.1,0.2,0.2,0.4,0.3,0.6s0,0.5,0,1v3.1h-1.4V5.3c0-0.3,0-0.5-0.1-0.7
			c-0.1-0.2-0.4-0.4-0.7-0.4c-0.4,0-0.6,0.1-0.8,0.4c-0.2,0.2-0.3,0.6-0.3,1v2.9h-1.4V1.4h1.4v2.5c0.2-0.3,0.4-0.5,0.7-0.6
			c0.3-0.1,0.5-0.2,0.8-0.2C243.1,3.1,243.4,3.2,243.6,3.3z"/>
		<path d="M248,5.3c0.3,0,0.4-0.1,0.6-0.1c0.2-0.1,0.3-0.2,0.3-0.4c0-0.2-0.1-0.4-0.2-0.4c-0.2-0.1-0.4-0.1-0.7-0.1
			c-0.3,0-0.6,0.1-0.7,0.2c-0.1,0.1-0.2,0.3-0.2,0.5h-1.3c0-0.5,0.2-0.8,0.4-1.1c0.4-0.5,1-0.7,1.9-0.7c0.6,0,1.1,0.1,1.5,0.3
			c0.5,0.2,0.7,0.7,0.7,1.3v2.4c0,0.2,0,0.4,0,0.6c0,0.2,0,0.3,0.1,0.4c0,0.1,0.1,0.1,0.2,0.2v0.2H249c0-0.1-0.1-0.2-0.1-0.3
			c0-0.1,0-0.2,0-0.3c-0.2,0.2-0.4,0.4-0.7,0.5c-0.3,0.2-0.6,0.3-1,0.3c-0.5,0-0.9-0.1-1.2-0.4c-0.3-0.3-0.5-0.7-0.5-1.2
			c0-0.6,0.3-1.1,0.8-1.4c0.3-0.2,0.7-0.3,1.2-0.3L248,5.3z M248.8,6c-0.1,0.1-0.2,0.1-0.3,0.1c-0.1,0-0.2,0.1-0.4,0.1l-0.3,0.1
			c-0.3,0.1-0.5,0.1-0.6,0.2c-0.2,0.1-0.3,0.3-0.3,0.6c0,0.2,0.1,0.4,0.2,0.5c0.1,0.1,0.3,0.2,0.5,0.2c0.3,0,0.6-0.1,0.8-0.3
			c0.3-0.2,0.4-0.5,0.4-1V6z"/>
		<path d="M252.5,6.8c0,0.2,0.1,0.4,0.2,0.5c0.2,0.2,0.5,0.3,1,0.3c0.3,0,0.5,0,0.6-0.1s0.2-0.2,0.2-0.4c0-0.2-0.1-0.3-0.2-0.4
			s-0.6-0.2-1.4-0.4c-0.6-0.1-1-0.3-1.3-0.6c-0.2-0.2-0.4-0.5-0.4-0.9c0-0.5,0.2-0.9,0.6-1.3s0.9-0.5,1.6-0.5c0.7,0,1.2,0.1,1.6,0.4
			s0.7,0.7,0.7,1.4h-1.4c0-0.2-0.1-0.3-0.2-0.4c-0.2-0.2-0.4-0.3-0.8-0.3c-0.3,0-0.5,0-0.6,0.1c-0.1,0.1-0.2,0.2-0.2,0.3
			c0,0.2,0.1,0.3,0.2,0.3c0.1,0.1,0.6,0.2,1.4,0.4c0.5,0.1,1,0.3,1.2,0.6c0.3,0.3,0.4,0.6,0.4,1c0,0.5-0.2,0.9-0.6,1.3
			c-0.4,0.3-1,0.5-1.8,0.5c-0.8,0-1.4-0.2-1.8-0.5s-0.6-0.8-0.6-1.3H252.5z"/>
		<path d="M260.3,3.4c0.4,0.2,0.7,0.4,0.9,0.8c0.2,0.3,0.4,0.7,0.4,1.1c0,0.2,0.1,0.6,0,1h-3.8c0,0.5,0.2,0.9,0.6,1.1
			c0.2,0.1,0.5,0.2,0.8,0.2c0.3,0,0.6-0.1,0.8-0.2c0.1-0.1,0.2-0.2,0.3-0.4h1.4c0,0.3-0.2,0.6-0.5,1c-0.5,0.5-1.1,0.8-2,0.8
			c-0.7,0-1.3-0.2-1.9-0.6c-0.5-0.4-0.8-1.1-0.8-2.1c0-0.9,0.2-1.6,0.7-2.1c0.5-0.5,1.1-0.7,1.9-0.7C259.6,3.1,260,3.2,260.3,3.4z
			 M258.3,4.5c-0.2,0.2-0.3,0.5-0.4,0.8h2.4c0-0.4-0.1-0.6-0.4-0.8s-0.5-0.3-0.8-0.3C258.7,4.2,258.5,4.3,258.3,4.5z"/>
		<path d="M268.1,3.1c0,0,0.1,0,0.1,0v1.4c-0.1,0-0.2,0-0.2,0c-0.1,0-0.1,0-0.2,0c-0.6,0-0.9,0.2-1.1,0.5c-0.1,0.2-0.2,0.5-0.2,0.9
			v2.5h-1.4V3.2h1.3v0.9c0.2-0.4,0.4-0.6,0.6-0.7C267.3,3.2,267.6,3.1,268.1,3.1C268.1,3.1,268.1,3.1,268.1,3.1z"/>
		<path d="M272.4,3.4c0.4,0.2,0.7,0.4,0.9,0.8c0.2,0.3,0.4,0.7,0.4,1.1c0,0.2,0.1,0.6,0,1H270c0,0.5,0.2,0.9,0.6,1.1
			c0.2,0.1,0.5,0.2,0.8,0.2c0.3,0,0.6-0.1,0.8-0.2c0.1-0.1,0.2-0.2,0.3-0.4h1.4c0,0.3-0.2,0.6-0.5,1c-0.5,0.5-1.1,0.8-2,0.8
			c-0.7,0-1.3-0.2-1.9-0.6c-0.5-0.4-0.8-1.1-0.8-2.1c0-0.9,0.2-1.6,0.7-2.1c0.5-0.5,1.1-0.7,1.9-0.7C271.7,3.1,272.1,3.2,272.4,3.4z
			 M270.4,4.5c-0.2,0.2-0.3,0.5-0.4,0.8h2.4c0-0.4-0.1-0.6-0.4-0.8s-0.5-0.3-0.8-0.3C270.9,4.2,270.6,4.3,270.4,4.5z"/>
		<path d="M275.6,6.8c0,0.2,0.1,0.4,0.2,0.5c0.2,0.2,0.5,0.3,1,0.3c0.3,0,0.5,0,0.6-0.1s0.2-0.2,0.2-0.4c0-0.2-0.1-0.3-0.2-0.4
			s-0.6-0.2-1.4-0.4c-0.6-0.1-1-0.3-1.3-0.6c-0.2-0.2-0.4-0.5-0.4-0.9c0-0.5,0.2-0.9,0.6-1.3s0.9-0.5,1.6-0.5c0.7,0,1.2,0.1,1.6,0.4
			s0.7,0.7,0.7,1.4h-1.4c0-0.2-0.1-0.3-0.2-0.4c-0.2-0.2-0.4-0.3-0.8-0.3c-0.3,0-0.5,0-0.6,0.1c-0.1,0.1-0.2,0.2-0.2,0.3
			c0,0.2,0.1,0.3,0.2,0.3c0.1,0.1,0.6,0.2,1.4,0.4c0.5,0.1,1,0.3,1.2,0.6c0.3,0.3,0.4,0.6,0.4,1c0,0.5-0.2,0.9-0.6,1.3
			c-0.4,0.3-1,0.5-1.8,0.5c-0.8,0-1.4-0.2-1.8-0.5s-0.6-0.8-0.6-1.3H275.6z"/>
		<path d="M284.5,3.8c0.4,0.5,0.6,1.1,0.6,2c0,0.9-0.2,1.6-0.6,2.1c-0.4,0.5-1,0.7-1.6,0.7c-0.4,0-0.8-0.1-1.1-0.3
			c-0.2-0.1-0.3-0.3-0.4-0.5v2.7H280V3.2h1.3V4c0.1-0.2,0.3-0.4,0.5-0.5c0.3-0.2,0.7-0.4,1.1-0.4C283.5,3.1,284,3.4,284.5,3.8z
			 M283.4,4.8c-0.2-0.3-0.5-0.5-0.9-0.5c-0.5,0-0.9,0.2-1,0.7c-0.1,0.3-0.1,0.6-0.1,1c0,0.6,0.2,1,0.5,1.3c0.2,0.1,0.4,0.2,0.7,0.2
			c0.4,0,0.7-0.1,0.9-0.4c0.2-0.3,0.3-0.7,0.3-1.2C283.7,5.5,283.6,5.1,283.4,4.8z"/>
		<path d="M290.5,7.9c-0.4,0.5-1.1,0.8-2,0.8c-0.9,0-1.6-0.3-2-0.8c-0.4-0.5-0.7-1.2-0.7-2c0-0.8,0.2-1.4,0.7-2
			c0.4-0.6,1.1-0.8,2-0.8c0.9,0,1.6,0.3,2,0.8s0.7,1.2,0.7,2C291.1,6.7,290.9,7.3,290.5,7.9z M289.4,7.1c0.2-0.3,0.3-0.7,0.3-1.2
			c0-0.5-0.1-0.9-0.3-1.2s-0.5-0.4-0.9-0.4c-0.4,0-0.7,0.1-0.9,0.4s-0.3,0.7-0.3,1.2c0,0.5,0.1,0.9,0.3,1.2c0.2,0.3,0.5,0.4,0.9,0.4
			C288.8,7.5,289.2,7.4,289.4,7.1z"/>
		<path d="M296.4,3.5c0.3,0.3,0.5,0.8,0.5,1.4v3.5h-1.4V5.3c0-0.3,0-0.5-0.1-0.6c-0.1-0.3-0.4-0.4-0.8-0.4c-0.5,0-0.8,0.2-1,0.6
			c-0.1,0.2-0.1,0.5-0.1,0.8v2.9h-1.4V3.3h1.3V4c0.2-0.3,0.3-0.5,0.5-0.6c0.3-0.2,0.6-0.3,1.1-0.3C295.6,3.1,296,3.3,296.4,3.5z"/>
		<path d="M299.2,6.8c0,0.2,0.1,0.4,0.2,0.5c0.2,0.2,0.5,0.3,1,0.3c0.3,0,0.5,0,0.6-0.1s0.2-0.2,0.2-0.4c0-0.2-0.1-0.3-0.2-0.4
			s-0.6-0.2-1.4-0.4c-0.6-0.1-1-0.3-1.3-0.6c-0.2-0.2-0.4-0.5-0.4-0.9c0-0.5,0.2-0.9,0.6-1.3s0.9-0.5,1.6-0.5c0.7,0,1.2,0.1,1.6,0.4
			s0.7,0.7,0.7,1.4h-1.4c0-0.2-0.1-0.3-0.2-0.4c-0.2-0.2-0.4-0.3-0.8-0.3c-0.3,0-0.5,0-0.6,0.1c-0.1,0.1-0.2,0.2-0.2,0.3
			c0,0.2,0.1,0.3,0.2,0.3c0.1,0.1,0.6,0.2,1.4,0.4c0.5,0.1,1,0.3,1.2,0.6c0.3,0.3,0.4,0.6,0.4,1c0,0.5-0.2,0.9-0.6,1.3
			c-0.4,0.3-1,0.5-1.8,0.5c-0.8,0-1.4-0.2-1.8-0.5s-0.6-0.8-0.6-1.3H299.2z"/>
	</g>
	<g>
		<path d="M307.5,3.4c0.4,0.2,0.7,0.4,0.9,0.8c0.2,0.3,0.4,0.7,0.4,1.1c0,0.2,0.1,0.6,0,1H305c0,0.5,0.2,0.9,0.6,1.1
			c0.2,0.1,0.5,0.2,0.8,0.2c0.3,0,0.6-0.1,0.8-0.2c0.1-0.1,0.2-0.2,0.3-0.4h1.4c0,0.3-0.2,0.6-0.5,1c-0.5,0.5-1.1,0.8-2,0.8
			c-0.7,0-1.3-0.2-1.9-0.6c-0.5-0.4-0.8-1.1-0.8-2.1c0-0.9,0.2-1.6,0.7-2.1c0.5-0.5,1.1-0.7,1.9-0.7C306.7,3.1,307.1,3.2,307.5,3.4z
			 M305.4,4.5c-0.2,0.2-0.3,0.5-0.4,0.8h2.4c0-0.4-0.1-0.6-0.4-0.8s-0.5-0.3-0.8-0.3C305.9,4.2,305.6,4.3,305.4,4.5z"/>
	</g>
	<polyline class="st4" points="200.2,140.8 200.5,139.4 200.8,138.1 201,136.8 201.3,135.5 201.6,134.2 201.9,132.9 202.2,131.7 
		202.5,130.6 202.7,129.5 203,128.4 203.3,127.4 203.6,126.4 203.9,125.5 204.1,124.7 204.4,123.9 204.7,123.2 205,122.5 
		205.3,121.9 205.6,121.3 205.8,120.8 206.1,120.4 206.4,120 206.7,119.6 207,119.4 207.3,119.1 207.5,118.9 207.8,118.8 
		208.1,118.7 208.4,118.7 208.7,118.7 208.9,118.7 209.2,118.8 209.5,119 209.8,119.2 210.1,119.4 210.4,119.7 210.6,120 
		210.9,120.4 211.2,120.8 211.5,121.3 211.8,121.8 212,122.4 212.3,123 212.6,123.7 212.9,124.4 213.2,125.1 213.5,125.9 
		213.7,126.7 214,127.6 214.3,128.5 214.6,129.5 214.9,130.5 215.1,131.6 215.4,132.6 215.7,133.8 216,134.9 216.3,136.1 
		216.6,137.3 216.8,138.5 217.1,139.7 217.4,141 217.7,142.3 218,143.5 218.2,144.8 218.5,146.1 218.8,147.3 219.1,148.6 
		219.4,149.8 219.7,151.1 219.9,152.3 220.2,153.4 220.5,154.6 220.8,155.7 221.1,156.8 221.4,157.9 221.6,158.9 221.9,160 
		222.2,160.9 222.5,161.9 222.8,162.8 223,163.6 223.3,164.5 223.6,165.3 223.9,166.1 224.2,166.8 224.5,167.5 224.7,168.2 
		225,168.9 225.3,169.5 225.6,170.1 225.9,170.6 226.1,171.2 226.4,171.7 226.7,172.2 227,172.7 227.3,173.1 227.6,173.5 
		227.8,173.9 228.1,174.3 228.4,174.7 228.7,175 229,175.3 229.2,175.6 229.5,175.9 229.8,176.2 230.1,176.5 230.4,176.7 
		230.7,176.9 230.9,177.1 231.2,177.3 231.5,177.5 231.8,177.7 232.1,177.8 232.3,178 232.6,178.1 232.9,178.2 233.2,178.3 
		233.5,178.4 233.8,178.5 234,178.5 234.3,178.6 234.6,178.6 234.9,178.7 235.2,178.7 235.5,178.7 235.7,178.7 236,178.7 
		236.3,178.6 236.6,178.6 236.9,178.5 237.1,178.5 237.4,178.4 237.7,178.3 238,178.2 238.3,178.1 238.6,178 238.8,177.8 
		239.1,177.7 239.4,177.5 239.7,177.3 240,177.1 240.2,176.9 240.5,176.7 240.8,176.5 241.1,176.2 241.4,175.9 241.7,175.6 
		241.9,175.3 242.2,175 242.5,174.7 242.8,174.3 243.1,173.9 243.3,173.5 243.6,173.1 243.9,172.7 244.2,172.2 244.5,171.7 
		244.8,171.2 245,170.6 245.3,170.1 245.6,169.5 245.9,168.9 246.2,168.2 246.4,167.5 246.7,166.8 247,166.1 247.3,165.3 
		247.6,164.5 247.9,163.6 248.1,162.8 248.4,161.9 248.7,160.9 249,160 249.3,158.9 249.6,157.9 249.8,156.8 250.1,155.7 
		250.4,154.6 250.7,153.4 251,152.3 251.2,151.1 251.5,149.8 251.8,148.6 252.1,147.3 252.4,146.1 252.7,144.8 252.9,143.5 
		253.2,142.3 253.5,141 253.8,139.7 254.1,138.5 254.3,137.3 254.6,136.1 254.9,134.9 255.2,133.8 255.5,132.6 255.8,131.6 
		256,130.5 256.3,129.5 256.6,128.5 256.9,127.6 257.2,126.7 257.4,125.9 257.7,125.1 258,124.4 258.3,123.7 258.6,123 258.9,122.4 
		259.1,121.8 259.4,121.3 259.7,120.8 260,120.4 260.3,120 260.5,119.7 260.8,119.4 261.1,119.2 261.4,119 261.7,118.8 262,118.7 
		262.2,118.7 262.5,118.7 262.8,118.7 263.1,118.8 263.4,118.9 263.7,119.1 263.9,119.4 264.2,119.6 264.5,120 264.8,120.4 
		265.1,120.8 265.3,121.3 265.6,121.9 265.9,122.5 266.2,123.2 266.5,123.9 266.8,124.7 267,125.5 267.3,126.4 267.6,127.4 
		267.9,128.4 268.2,129.5 268.4,130.6 268.7,131.7 269,132.9 269.3,134.2 269.6,135.5 269.9,136.8 270.1,138.1 270.4,139.4 
		270.7,140.8 271,142.1 271.3,143.5 271.5,144.8 271.8,146.1 272.1,147.4 272.4,148.6 272.7,149.8 273,151 273.2,152.1 273.5,153.2 
		273.8,154.2 274.1,155.2 274.4,156.1 274.6,156.9 274.9,157.7 275.2,158.4 275.5,159.1 275.8,159.7 276.1,160.3 276.3,160.8 
		276.6,161.2 276.9,161.6 277.2,161.9 277.5,162.2 277.8,162.5 278,162.7 278.3,162.8 278.6,162.9 278.9,162.9 279.2,162.9 
		279.4,162.8 279.7,162.7 280,162.6 280.3,162.4 280.6,162.2 280.9,161.9 281.1,161.5 281.4,161.2 281.7,160.7 282,160.3 
		282.3,159.7 282.5,159.2 282.8,158.6 283.1,157.9 283.4,157.2 283.7,156.5 284,155.7 284.2,154.8 284.5,154 284.8,153 285.1,152.1 
		285.4,151.1 285.6,150 285.9,148.9 286.2,147.8 286.5,146.7 286.8,145.5 287.1,144.3 287.3,143.1 287.6,141.8 287.9,140.6 
		288.2,139.3 288.5,138.1 288.7,136.8 289,135.5 289.3,134.2 289.6,133 289.9,131.7 290.2,130.5 290.4,129.3 290.7,128.1 291,127 
		291.3,125.8 291.6,124.7 291.9,123.7 292.1,122.6 292.4,121.6 292.7,120.7 293,119.7 293.3,118.8 293.5,117.9 293.8,117.1 
		294.1,116.3 294.4,115.5 294.7,114.8 295,114.1 295.2,113.4 295.5,112.7 295.8,112.1 296.1,111.5 296.4,110.9 296.6,110.4 
		296.9,109.9 297.2,109.4 297.5,108.9 297.8,108.5 298.1,108.1 298.3,107.7 298.6,107.3 298.9,106.9 299.2,106.6 299.5,106.2 
		299.7,105.9 300,105.6 300.3,105.4 300.6,105.1 300.9,104.9 301.2,104.7 301.4,104.4 301.7,104.3 302,104.1 302.3,103.9 
		302.6,103.8 302.8,103.6 303.1,103.5 303.4,103.4 303.7,103.3 304,103.2 304.3,103.1 304.5,103 304.8,103 305.1,102.9 305.4,102.9 
		305.7,102.9 306,102.9 306.2,102.9 306.5,102.9 306.8,102.9 307.1,103 307.4,103 307.6,103.1 307.9,103.2 308.2,103.3 308.5,103.4 
		308.8,103.5 309.1,103.6 309.3,103.8 309.6,103.9 309.9,104.1 310.2,104.3 310.5,104.4 310.7,104.7 311,104.9 311.3,105.1 
		311.6,105.4 311.9,105.6 312.2,105.9 312.4,106.2 312.7,106.6 313,106.9 313.3,107.3 313.6,107.7 313.8,108.1 314.1,108.5 
		314.4,108.9 314.7,109.4 315,109.9 315.3,110.4 315.5,110.9 315.8,111.5 316.1,112.1 316.4,112.7 316.7,113.4 316.9,114.1 
		317.2,114.8 317.5,115.5 317.8,116.3 318.1,117.1 318.4,117.9 318.6,118.8 318.9,119.7 319.2,120.7 319.5,121.6 319.8,122.6 
		320.1,123.7 320.3,124.7 320.6,125.8 320.9,127 321.2,128.1 321.5,129.3 321.7,130.5 322,131.7 322.3,133 322.6,134.2 322.9,135.5 
		323.2,136.8 323.4,138.1 323.7,139.3 324,140.6 324.3,141.8 324.6,143.1 324.8,144.3 325.1,145.5 325.4,146.7 325.7,147.8 
		326,148.9 326.3,150 326.5,151.1 326.8,152.1 327.1,153 327.4,154 327.7,154.8 327.9,155.7 328.2,156.5 328.5,157.2 328.8,157.9 
		329.1,158.6 329.4,159.2 329.6,159.7 329.9,160.3 330.2,160.7 330.5,161.2 330.8,161.5 331,161.9 331.3,162.2 331.6,162.4 
		331.9,162.6 332.2,162.7 332.5,162.8 332.7,162.9 333,162.9 333.3,162.9 333.6,162.8 333.9,162.7 334.2,162.5 334.4,162.2 
		334.7,161.9 335,161.6 335.3,161.2 335.6,160.8 335.8,160.3 336.1,159.7 336.4,159.1 336.7,158.4 337,157.7 337.3,156.9 
		337.5,156.1 337.8,155.2 338.1,154.2 338.4,153.2 338.7,152.1 338.9,151 339.2,149.8 339.5,148.6 339.8,147.4 340.1,146.1 
		340.4,144.8 340.6,143.5 340.9,142.1 	"/>
</g>
</svg>
