<?xml version="1.0" encoding="utf-8"?>
<!-- Generator: Adobe Illustrator 22.1.0, SVG Export Plug-In . SVG Version: 6.00 Build 0)  -->
<svg version="1.1" id="Layer_1" xmlns="http://www.w3.org/2000/svg" xmlns:xlink="http://www.w3.org/1999/xlink" x="0px" y="0px"
	 viewBox="0 0 256.9 192.2" style="enable-background:new 0 0 256.9 192.2;" xml:space="preserve">
<style type="text/css">
	.st0{fill:none;stroke:#FFFFFF;stroke-width:0.8504;stroke-miterlimit:10;}
	.st1{fill:none;stroke:#000000;stroke-width:0.8504;stroke-miterlimit:10;}
	.st2{fill:none;stroke:#0000FF;stroke-width:0.8504;stroke-miterlimit:10;stroke-dasharray:2.8424,2.8424;stroke-dashoffset:1;}
	.st3{fill:#1D1D1B;}
	.st4{fill:none;stroke:#630000;stroke-width:0.8504;stroke-miterlimit:10;stroke-dasharray:2.8427,2.8427;stroke-dashoffset:1;}
	.st5{fill:#0000FF;}
	.st6{fill:#BF8040;}
	.st7{fill:#FF0000;}
	.st8{fill:none;stroke:#000000;stroke-width:0.8504;stroke-linecap:round;stroke-miterlimit:10;stroke-dasharray:0,3.9921;}
</style>
<g>
	<polygon class="st0" points="0.4,96.1 0.4,191.8 255.5,191.8 255.5,0.4 0.4,0.4 	"/>
	<polyline points="137.6,24 142.2,21.7 137.6,19.4 138.8,21.7 	"/>
	<line class="st1" x1="113.8" y1="21.7" x2="138.8" y2="21.7"/>
	<polygon class="st2" points="28.8,99.6 28.8,184.7 117.4,184.7 117.4,14.6 28.8,14.6 	"/>
	<g>
		<path class="st3" d="M5.4,22.4c-0.1,0.4-0.2,0.7-0.2,0.9c0,0.3,0.2,0.7,0.5,0.7c0.3,0,1-0.2,1.3-1.3c0-0.1,0-0.1,0.1-0.1
			c0,0,0.1,0,0.1,0.1c0,0.2-0.6,1.5-1.6,1.5c-0.6,0-1-0.4-1.1-0.8c0,0.1-0.4,0.8-1,0.8c-0.4,0-0.9-0.2-0.9-0.7C2.7,23.2,3,23,3.2,23
			c0.1,0,0.4,0.1,0.4,0.3c0,0.3-0.2,0.5-0.5,0.5C3.4,24,3.6,24,3.6,24c0.4,0,0.8-0.4,0.9-1c0.4-1.4,0.5-2.1,0.5-2.4
			c0-0.6-0.3-0.7-0.5-0.7c-0.3,0-1,0.2-1.3,1.3c0,0.1-0.1,0.1-0.1,0.1c0,0-0.1,0-0.1-0.1c0-0.2,0.6-1.5,1.6-1.5
			c0.3,0,0.8,0.1,1.1,0.8c0.1-0.2,0.5-0.8,1-0.8c0.3,0,0.9,0.1,0.9,0.7c0,0.4-0.3,0.6-0.5,0.6c-0.3,0-0.4-0.2-0.4-0.3
			c0-0.2,0.2-0.5,0.5-0.5c-0.2-0.1-0.4-0.1-0.5-0.1c-0.7,0-0.9,0.9-1,1.2L5.4,22.4z"/>
	</g>
	<g>
		<path class="st3" d="M9.2,26.6v-10h1.4V17h-1v9.2h1v0.4H9.2z"/>
	</g>
	<g>
		<path class="st3" d="M12.3,21.2c0.1-0.5,0.2-0.6,0.2-0.8c0-0.3-0.1-0.5-0.3-0.5c-0.4,0-0.6,0.5-0.7,1.2c-0.1,0.2-0.1,0.2-0.2,0.2
			c0,0-0.1,0-0.1-0.1c0,0,0.1-0.6,0.3-1c0.1-0.2,0.3-0.6,0.7-0.6c0.5,0,0.9,0.3,0.9,0.9c0.2-0.2,0.7-0.9,1.6-0.9
			c0.7,0,1.1,0.4,1.1,1.1c0,0.6-0.4,1.7-0.6,2.2c-0.1,0.2-0.2,0.5-0.2,0.7c0,0.2,0.1,0.3,0.2,0.3c0.5,0,0.8-0.6,1-1.2
			c0-0.1,0-0.2,0.1-0.2c0,0,0.1,0,0.1,0.1c0,0.1-0.4,1.5-1.3,1.5c-0.5,0-0.8-0.3-0.8-0.8c0-0.1,0-0.2,0.1-0.5
			c0.2-0.4,0.6-1.7,0.6-2.3c0-0.3-0.1-0.7-0.5-0.7c-0.9,0-1.5,0.9-1.6,1.2c0,0-0.1,0.3-0.1,0.5c0,0.2-0.1,0.4-0.2,0.7l-0.2,0.9
			c-0.1,0.2-0.2,0.7-0.2,0.7c-0.1,0.2-0.2,0.3-0.4,0.3c-0.1,0-0.3-0.1-0.3-0.3c0-0.1,0.1-0.3,0.1-0.4L12.3,21.2z"/>
	</g>
	<g>
		<path class="st3" d="M18.4,26.6H17v-0.4h1V17h-1v-0.4h1.4V26.6z"/>
	</g>
	<polygon class="st4" points="136.8,99.6 136.8,184.7 225.4,184.7 225.4,14.6 136.8,14.6 	"/>
	<g>
		<path class="st5" d="M18,107.1c-0.1,0-0.1,0-0.2,0c-0.1,0-0.1,0.1-0.2,0.3c0,0.2,0,0.4,0,0.4c0,0.2,0,0.3-0.1,0.3
			c-0.2,0-0.2-0.1-0.2-0.3v-3.3c0-1.2,0.6-1.9,1.4-1.9c0.9,0,1.7,1,1.9,2.1c0.1-1,0.7-1.5,1.4-1.5c1,0,2.2,1.2,2.2,2.8v3.6
			c0,0.2,0,0.3-0.1,0.3c-0.2,0-0.2-0.1-0.2-0.3c0-0.8-0.1-0.8-0.5-0.9L18,107.1z M20.4,105.5c0-1.2-0.9-2.1-1.8-2.1
			c-0.4,0-1,0.2-1,1.1v1.3c0,0.4,0,0.4,0.4,0.5l2.5,0.6V105.5z M23.8,106.1c0-1.2-1-2.1-2-2.1c-0.4,0-1.2,0.2-1.2,1.1v1.9l2.8,0.7
			c0.2,0,0.2,0,0.2,0c0.1,0,0.1,0,0.1-0.1c0-0.1,0-0.1,0-0.2V106.1z"/>
	</g>
	<g>
		<path class="st5" d="M26.6,98.8c0,0.1-0.6,1-1.9,1.6c-1.1,0.5-2.3,0.7-3.1,0.7c-0.8,0-1.9-0.1-3-0.6c-1.3-0.6-1.9-1.5-1.9-1.6
			c0-0.1,0-0.1,0.1-0.1c0,0,0,0,0.2,0.1c1.2,1.2,3,1.6,4.7,1.6c1.5,0,3.4-0.3,4.7-1.6C26.4,98.7,26.4,98.7,26.6,98.8
			C26.5,98.7,26.6,98.8,26.6,98.8z"/>
	</g>
	<g>
		<path class="st5" d="M23.2,96.6c0-0.2,0-0.4,0.2-0.7c0.1-0.2,0.1-0.4,0.1-0.6c0-0.3-0.2-1-0.8-1.2c-0.1,0-0.1,0-0.1-0.1
			c0-0.1,0-0.1,0.1-0.1c0.3,0,1.5,0.6,1.5,1.6c0,0.3-0.2,0.5-0.4,0.6c-0.3,0.2-0.4,0.3-0.4,0.6c0,0.3,0.3,0.6,0.6,0.8
			c0.1,0.1,0.1,0.1,0.1,0.2c0,0,0,0.1-0.1,0.1c-0.1,0-0.6-0.3-1.3-1L22,95.9c-0.2-0.2-0.9-1-1.3-1.4c0,0.3,0,0.4-0.1,0.8
			c-0.1,0.2-0.1,0.4-0.1,0.6c0,0.1,0,0.7,0.5,0.8c0.1,0,0.1,0,0.1,0.1S20.9,97,20.8,97c-0.2,0-1.1-0.5-1.1-1.2
			c0-0.3,0.2-0.5,0.4-0.7c0.2-0.1,0.3-0.3,0.3-0.5c0-0.2-0.2-0.4-0.6-0.7c-0.1,0-0.1-0.1-0.1-0.1c0,0,0-0.1,0.1-0.1
			c0,0,0.5,0.2,1.4,1.2c0.4,0.4,0.9,1,0.9,1c0.3,0.4,0.6,0.6,1.1,1.2C23.2,96.8,23.2,96.6,23.2,96.6z"/>
	</g>
	<g>
		<path class="st5" d="M24.6,90.8c1.3,0.6,1.9,1.5,1.9,1.6c0,0.1,0,0.1-0.1,0.1c0,0-0.1,0-0.2-0.1c-1.3-1.2-3-1.6-4.7-1.6
			c-2.1,0-3.7,0.6-4.7,1.5c-0.2,0.2-0.2,0.2-0.2,0.2c-0.1,0-0.1,0-0.1-0.1c0-0.1,0.6-1,1.9-1.6c1.1-0.5,2.3-0.7,3.1-0.7
			C22.4,90.2,23.5,90.3,24.6,90.8z"/>
	</g>
	<g>
		<path class="st6" d="M133.1,111.6c0.4,0,0.5,0,0.5-0.9v-0.3h0.3c0,0.3,0,1.2,0,1.6s0,1.3,0,1.6h-0.3v-0.3c0-0.9-0.1-0.9-0.5-0.9
			H128c0.3,0.5,0.3,1.1,0.3,1.3h-0.3c0-0.3,0-1.2-0.6-1.8c0-0.2,0-0.2,0.3-0.2H133.1z"/>
	</g>
	<g>
		<path class="st6" d="M136.2,108.5c0.2,0.1,0.2,0.1,0.2,0.2c0,0.1-0.1,0.2-0.2,0.2c0,0,0,0-0.2,0l-9.5-3.5c-0.1,0-0.1-0.1-0.1-0.2
			c0-0.1,0.1-0.2,0.2-0.2c0,0,0,0,0.2,0L136.2,108.5z"/>
		<path class="st6" d="M127,99.8c-0.1-0.1-0.2-0.1-0.2-0.3c0-0.2,0-0.2,0.2-0.2l6.2-0.6c0.3,0,0.4,0,0.4-0.6c0-0.1,0-0.2,0.1-0.2
			c0.2,0,0.2,0.1,0.2,0.2c0,0.2,0,0.9,0,1.1c0,0.4,0,0.8,0,1.2c0,0,0,0.1-0.1,0.1c-0.2,0-0.2-0.1-0.2-0.2c0-0.2,0-0.7-0.3-0.7
			c-0.1,0-1.5,0.1-1.7,0.2v2.5l1.3,0.8c0.1,0.1,0.2,0.1,0.4,0.1c0.2,0,0.3-0.2,0.3-0.5c0-0.1,0-0.2,0.1-0.2c0.2,0,0.2,0.1,0.2,0.2
			c0,0.3,0,0.7,0,1c0,0.3,0,0.6,0,0.9c0,0.1,0,0.1-0.1,0.1c-0.2,0-0.2-0.1-0.2-0.2c0-0.4-0.2-0.8-0.8-1.2L127,99.8z M131.3,99.8
			l-3.3,0.3l3.3,2V99.8z"/>
	</g>
	<g>
		<path class="st6" d="M136.4,94.4c0,0.1-0.6,1-1.9,1.6c-1.1,0.5-2.3,0.7-3.1,0.7c-0.8,0-1.9-0.1-3-0.6c-1.3-0.6-1.9-1.5-1.9-1.6
			c0-0.1,0-0.1,0.1-0.1c0,0,0,0,0.2,0.1c1.2,1.2,3,1.6,4.7,1.6c1.5,0,3.4-0.3,4.7-1.6C136.3,94.3,136.3,94.3,136.4,94.4
			C136.4,94.3,136.4,94.3,136.4,94.4z"/>
	</g>
	<g>
		<path class="st6" d="M133.1,92.2c0-0.2,0-0.4,0.2-0.7c0.1-0.2,0.1-0.4,0.1-0.6c0-0.3-0.2-1-0.8-1.2c-0.1,0-0.1,0-0.1-0.1
			c0-0.1,0-0.1,0.1-0.1c0.3,0,1.5,0.6,1.5,1.6c0,0.3-0.2,0.5-0.4,0.6c-0.3,0.2-0.4,0.3-0.4,0.6c0,0.3,0.3,0.6,0.6,0.8
			c0.1,0.1,0.1,0.1,0.1,0.2c0,0,0,0.1-0.1,0.1c-0.1,0-0.6-0.3-1.3-1l-0.8-0.9c-0.2-0.2-0.9-1-1.3-1.4c0,0.3,0,0.4-0.1,0.8
			c-0.1,0.2-0.1,0.4-0.1,0.6c0,0.1,0,0.7,0.5,0.8c0.1,0,0.1,0,0.1,0.1c0,0.1-0.1,0.1-0.1,0.1c-0.2,0-1.1-0.5-1.1-1.2
			c0-0.3,0.2-0.5,0.4-0.7c0.2-0.1,0.3-0.3,0.3-0.5c0-0.2-0.2-0.4-0.6-0.7c-0.1,0-0.1-0.1-0.1-0.1c0,0,0-0.1,0.1-0.1
			c0,0,0.5,0.2,1.4,1.2c0.4,0.4,0.9,1,0.9,1c0.3,0.4,0.6,0.6,1.1,1.2C133.1,92.3,133.1,92.2,133.1,92.2z"/>
	</g>
	<g>
		<path class="st6" d="M134.5,86.3c1.3,0.6,1.9,1.5,1.9,1.6c0,0.1,0,0.1-0.1,0.1c0,0,0,0-0.2-0.1c-1.3-1.2-3-1.6-4.7-1.6
			c-2.1,0-3.7,0.6-4.7,1.5c-0.2,0.2-0.2,0.2-0.2,0.2c-0.1,0-0.1,0-0.1-0.1c0-0.1,0.6-1,1.9-1.6c1.1-0.5,2.3-0.7,3.1-0.7
			C132.3,85.7,133.4,85.8,134.5,86.3z"/>
	</g>
	<g>
		<path class="st7" d="M103.2,4.1c1.7,0,3,1.6,3,3.5c0,1.9-1.4,3.3-3,3.3h-3.6v-0.3h0.2c0.8,0,0.8-0.1,0.8-0.5V4.8
			c0-0.4,0-0.5-0.8-0.5h-0.2V4.1H103.2z M102.9,10.6c1,0,1.6-0.6,1.8-0.8c0.4-0.5,0.5-1.1,0.5-2.2c0-0.8-0.1-1.6-0.5-2.2
			c-0.5-0.7-1.2-0.9-1.8-0.9h-1c-0.5,0-0.5,0.1-0.5,0.4v5.4c0,0.3,0,0.4,0.5,0.4H102.9z"/>
		<path class="st7" d="M108.6,10.1c0,0.4,0,0.4,0.7,0.4v0.3c-0.3,0-0.7,0-1,0c-0.2,0-0.8,0-1.1,0v-0.3c0.7,0,0.8,0,0.8-0.4V7.4
			c0-0.5-0.1-0.5-0.7-0.5V6.6l1.4-0.1V10.1z M108.1,5.3c-0.3,0-0.5-0.3-0.5-0.5c0-0.3,0.2-0.5,0.5-0.5c0.3,0,0.5,0.2,0.5,0.5
			S108.3,5.3,108.1,5.3z"/>
		<path class="st7" d="M112.4,6.5c0.4,0,0.7,0.3,0.7,0.6s-0.2,0.4-0.4,0.4c-0.2,0-0.4-0.1-0.4-0.4c0-0.3,0.2-0.4,0.2-0.4
			c0,0,0,0-0.1,0c-0.8,0-1.2,0.9-1.2,1.9v1.5c0,0.4,0,0.5,0.8,0.5h0.2v0.3c-0.4,0-0.9,0-1.3,0c-0.3,0-0.7,0-1.1,0v-0.3
			c0.7,0,0.8,0,0.8-0.4V7.4c0-0.5-0.1-0.6-0.8-0.6V6.6l1.4-0.1v1.1C111.4,7.1,111.7,6.5,112.4,6.5z"/>
		<path class="st7" d="M114.8,10.1c0.2,0.4,0.6,0.7,1.1,0.7c0.1,0,1,0,1.3-1c0-0.1,0-0.1,0.1-0.1c0,0,0.1,0,0.1,0.1
			c0,0.2-0.4,1.3-1.7,1.3c-1.1,0-2.2-1-2.2-2.3c0-1.2,0.9-2.3,2.1-2.3c1.2,0,1.8,1,1.8,2c0,0.2,0,0.2-0.2,0.2h-2.8
			C114.5,8.9,114.5,9.6,114.8,10.1z M116.9,8.4c0-0.4-0.1-1.7-1.1-1.7c-0.3,0-1.2,0.2-1.2,1.7H116.9z"/>
		<path class="st7" d="M120.4,10.7c0.4,0,1-0.1,1.3-1c0-0.1,0-0.1,0.1-0.1c0,0,0.1,0,0.1,0.1s-0.3,1.3-1.7,1.3c-1.2,0-2.1-1-2.1-2.3
			c0-1.2,0.9-2.3,2.2-2.3c0.8,0,1.5,0.4,1.5,1.1c0,0.3-0.2,0.5-0.5,0.5c-0.3,0-0.5-0.2-0.5-0.5c0-0.1,0.1-0.4,0.5-0.5
			c-0.3-0.4-1-0.4-1.1-0.4c-0.5,0-1.3,0.4-1.3,2C119,10.3,119.9,10.7,120.4,10.7z"/>
		<path class="st7" d="M124,9.7c0,0.2,0,1.1,0.7,1.1c0.4,0,0.7-0.4,0.7-1.1V9.1h0.2v0.6c0,0.6-0.3,1.3-1,1.3c-0.4,0-1.3-0.1-1.3-1.3
			V6.9h-0.8V6.7c1,0,1.3-1.1,1.3-1.9h0.2v1.8h1.4v0.3H124V9.7z"/>
	</g>
	<g>
		<path class="st7" d="M132.4,6.6v0.3h-1.1v3.2c0,0.4,0,0.5,0.8,0.5h0.2v0.3c-0.4,0-0.9,0-1.3,0c-0.3,0-0.7,0-1.1,0v-0.3
			c0.7,0,0.8,0,0.8-0.4V6.9h-0.8V6.6h0.8V5.4c0-1.1,0.8-1.6,1.5-1.6c0.5,0,0.9,0.3,0.9,0.7c0,0.2-0.2,0.4-0.4,0.4
			c-0.3,0-0.4-0.2-0.4-0.4c0-0.2,0.2-0.4,0.3-0.4c-0.1-0.1-0.3-0.1-0.3-0.1c-0.4,0-0.9,0.5-0.9,1.4v1.2H132.4z"/>
		<path class="st7" d="M135.1,11c-1.2,0-2.2-1-2.2-2.2c0-1.2,1-2.3,2.2-2.3c1.2,0,2.2,1.1,2.2,2.3C137.3,10,136.3,11,135.1,11z
			 M136.2,10c0.2-0.4,0.2-1,0.2-1.3c0-0.4,0-1-0.3-1.4c-0.3-0.4-0.7-0.6-1.1-0.6c-0.4,0-0.9,0.2-1.1,0.7c-0.2,0.4-0.2,1-0.2,1.4
			c0,0.4,0,1,0.2,1.4c0.3,0.5,0.7,0.7,1.1,0.7C135.6,10.7,136,10.4,136.2,10z"/>
		<path class="st7" d="M140.5,6.5c0.4,0,0.7,0.3,0.7,0.6s-0.2,0.4-0.4,0.4c-0.2,0-0.4-0.1-0.4-0.4c0-0.3,0.2-0.4,0.2-0.4
			c0,0,0,0-0.1,0c-0.8,0-1.2,0.9-1.2,1.9v1.5c0,0.4,0,0.5,0.8,0.5h0.2v0.3c-0.4,0-0.9,0-1.3,0c-0.3,0-0.7,0-1.1,0v-0.3
			c0.7,0,0.8,0,0.8-0.4V7.4c0-0.5-0.1-0.6-0.8-0.6V6.6l1.4-0.1v1.1C139.4,7.1,139.7,6.5,140.5,6.5z"/>
		<path class="st7" d="M141.8,6.9V6.6l1.4-0.1v1c0.3-0.6,0.7-1,1.5-1c0.4,0,1.2,0.1,1.3,1c0.2-0.4,0.6-1,1.4-1c0.6,0,0.9,0.2,1,0.4
			c0.3,0.4,0.3,0.7,0.3,1.5v1.9c0,0.3,0.3,0.3,0.8,0.3v0.3c-0.3,0-0.9,0-1.1,0c-0.3,0-0.8,0-1.1,0v-0.3c0.7,0,0.8,0,0.8-0.4V7.8
			c0-0.6-0.1-1.1-0.7-1.1c-0.6,0-1.3,0.6-1.3,1.6v1.8c0,0.4,0.1,0.4,0.8,0.4v0.3c-0.3,0-0.9,0-1.1,0c-0.3,0-0.8,0-1.1,0v-0.3
			c0.7,0,0.8,0,0.8-0.4V7.8c0-0.6-0.1-1.1-0.7-1.1c-0.6,0-1.3,0.6-1.3,1.6v1.8c0,0.4,0.1,0.4,0.8,0.4v0.3c-0.3,0-0.9,0-1.1,0
			c-0.3,0-0.8,0-1.1,0v-0.3c0.7,0,0.8,0,0.8-0.4V7.4C142.6,7,142.5,6.9,141.8,6.9z"/>
	</g>
	<g>
		<path class="st7" d="M155.3,10.1c0,0.4,0,0.5,0.8,0.5h0.3v0.3c-0.3,0-1.1,0-1.5,0c-0.4,0-1.2,0-1.5,0v-0.3h0.3
			c0.8,0,0.8-0.1,0.8-0.5V4.8c0-0.4,0-0.5-0.8-0.5h-0.3V4.1c0.3,0,1.1,0,1.5,0c0.4,0,1.2,0,1.5,0v0.3h-0.3c-0.8,0-0.8,0.1-0.8,0.5
			V10.1z"/>
	</g>
	<polyline points="70.3,24 74.8,21.7 70.3,19.4 71.4,21.7 	"/>
	<line class="st1" x1="21.7" y1="21.7" x2="71.4" y2="21.7"/>
	<g>
		<path class="st3" d="M110.3,24.9c-1.8,0-3.3-1.5-3.3-3.3c0-1.8,1.5-3.3,3.3-3.3c1.8,0,3.3,1.5,3.3,3.3
			C113.6,23.4,112.1,24.9,110.3,24.9z M110.2,21.5v-2.9c-1.6,0.1-2.8,1.3-2.9,2.9H110.2z M110.2,21.7h-2.9c0.1,1.7,1.4,2.9,2.9,2.9
			V21.7z M110.4,21.5h2.9c-0.1-1.7-1.4-2.9-2.9-2.9V21.5z M110.4,21.7v2.9c1.5-0.1,2.8-1.2,2.9-2.9H110.4z"/>
	</g>
	<polyline points="102.2,24 106.7,21.7 102.2,19.4 103.3,21.7 	"/>
	<line class="st1" x1="81.9" y1="21.7" x2="103.3" y2="21.7"/>
	<g>
		<path class="st3" d="M45.8,42c0,0.1,0,0.2,0,0.2c0,0.2,0.1,0.2,0.4,0.2c0.3,0,0.4,0,0.6,0c0.3,0,0.3,0,0.3,0.1
			c0,0.2-0.1,0.2-0.2,0.2c-0.3,0-0.6,0-0.9,0c-0.3,0-0.5,0-0.8,0c-0.3,0-0.6,0-0.8,0c-0.3,0-0.5,0-0.8,0c-0.1,0-0.2,0-0.2-0.1
			c0-0.2,0.1-0.2,0.4-0.2c1.1,0,1.1-0.1,1.2-0.5l1.3-5.3c0,0,0-0.1,0-0.2c0-0.1,0-0.1-0.3-0.1h-0.4c-1.5,0-1.7,0.2-2.3,1.7
			c-0.1,0.2-0.1,0.2-0.2,0.2c-0.1,0-0.1,0-0.1-0.1c0,0,0-0.2,0.1-0.2l0.6-1.8c0.1-0.2,0.1-0.2,0.3-0.2h5.5c0.2,0,0.3,0,0.3,0.1
			c0,0,0,0.1,0,0.2L49.6,38c0,0.1,0,0.2-0.1,0.2c-0.1,0-0.1-0.1-0.1-0.1c0,0,0-0.1,0-0.2c0-0.3,0.1-0.6,0.1-0.8
			c0-0.8-0.4-0.8-1.5-0.8c-0.2,0-0.5,0-0.6,0c-0.1,0-0.2,0.1-0.2,0.4L45.8,42z"/>
	</g>
	<polygon class="st1" points="35.9,39.4 35.9,46.5 57.1,46.5 57.1,32.3 35.9,32.3 	"/>
	<polyline points="44.2,27.8 46.5,32.3 48.8,27.8 46.5,28.9 	"/>
	<line class="st1" x1="46.5" y1="21.7" x2="46.5" y2="28.9"/>
	<polyline points="44.2,70.3 46.5,74.8 48.8,70.3 46.5,71.4 	"/>
	<line class="st1" x1="46.5" y1="46.5" x2="46.5" y2="71.4"/>
	<polyline points="112.5,65.2 110.3,60.7 108,65.2 110.3,64.1 	"/>
	<line class="st1" x1="110.3" y1="74.8" x2="110.3" y2="64.1"/>
	<path class="st8" d="M46.5,78.4v24.8 M110.3,78.4v24.8"/>
	<polyline points="112.5,111.3 110.3,106.7 108,111.3 110.3,110.1 	"/>
	<line class="st1" x1="110.3" y1="117.4" x2="110.3" y2="110.1"/>
	<polyline points="70.3,123.2 74.8,120.9 70.3,118.6 71.4,120.9 	"/>
	<line class="st1" x1="46.5" y1="120.9" x2="71.4" y2="120.9"/>
	<g>
		<path class="st3" d="M78.4,124.1c-1.8,0-3.3-1.5-3.3-3.3c0-1.8,1.5-3.3,3.3-3.3c1.8,0,3.3,1.5,3.3,3.3
			C81.7,122.6,80.3,124.1,78.4,124.1z M78.2,120.8l-2.1-2.1c-0.5,0.6-0.8,1.3-0.8,2.1c0,0.6,0.2,1.4,0.8,2.1L78.2,120.8z M78.4,121
			l-2.1,2.1c0.8,0.8,1.7,0.8,2.1,0.8c1.3,0,2.1-0.8,2.1-0.8c0,0-0.1-0.1-0.1-0.1L78.4,121z M78.4,120.6l2.1-2.1
			c-0.8-0.8-1.7-0.8-2.1-0.8c-1.3,0-2.1,0.8-2.1,0.8c0,0,0.1,0.1,0.1,0.1L78.4,120.6z M78.6,120.8l2.1,2.1c0.5-0.6,0.8-1.3,0.8-2.1
			c0-0.8-0.3-1.6-0.8-2.1L78.6,120.8z"/>
	</g>
	<g>
		<path class="st3" d="M68.3,140.6c0.3-0.3,0.7-0.6,1.2-0.6c0.8,0,1.3,0.7,1.3,1.6c0,1.4-1.2,2.9-2.4,2.9c-0.7,0-1.3-0.6-1.3-1.6
			c0-0.3,0-0.5,0.2-1l0.8-3.2c0-0.2,0.1-0.5,0.1-0.6c0-0.1,0-0.2-0.5-0.2c-0.1,0-0.2,0-0.2-0.1c0-0.2,0.1-0.2,0.2-0.2
			c0.3,0,1-0.1,1.2-0.1c0.1,0,0.1,0.1,0.1,0.1L68.3,140.6z M67.8,142.3c-0.2,0.6-0.2,0.8-0.2,1c0,0.7,0.3,1,0.7,1
			c0.4,0,0.8-0.4,1.2-1c0.2-0.4,0.5-1.5,0.5-2.1c0-0.6-0.3-0.9-0.6-0.9c-0.3,0-0.7,0.1-1.2,0.8c-0.1,0.1-0.1,0.1-0.1,0.3L67.8,142.3
			z"/>
	</g>
	<g>
		<path class="st3" d="M77.1,145.4c0,0,0,0.1,0,0.2c0,0.1,0,0.1,0.2,0.1c0.1,0,0.3,0,0.3,0c0.1,0,0.2,0,0.2,0.1
			c0,0.2-0.1,0.2-0.1,0.2c-0.2,0-0.7,0-0.9,0c-0.1,0-0.3,0-0.4,0c-0.1,0-0.3,0-0.4,0c-0.1,0-0.1-0.1-0.1-0.1c0-0.2,0.1-0.2,0.2-0.2
			c0.5,0,0.6-0.1,0.6-0.3l1-3.9l0,0l-2.9,4.3c0,0.1-0.1,0.2-0.2,0.2c-0.1,0-0.1-0.1-0.1-0.2l-0.7-4.2h0l-0.9,3.7c0,0.1,0,0.1,0,0.2
			c0,0.1,0,0.3,0.4,0.3c0.1,0,0.2,0,0.2,0.1c0,0.2-0.1,0.2-0.1,0.2c-0.2,0-0.6,0-0.7,0c-0.2,0-0.5,0-0.7,0c-0.1,0-0.1-0.1-0.1-0.1
			c0-0.1,0.1-0.2,0.1-0.2c0.6,0,0.7-0.3,0.7-0.5l0.9-3.5c0-0.1,0-0.1,0-0.2c0-0.1,0-0.1-0.2-0.1c-0.1,0-0.2,0-0.3,0
			c-0.2,0-0.2,0-0.2-0.1c0-0.2,0.1-0.2,0.2-0.2h1c0.2,0,0.2,0,0.2,0.2l0.7,3.9l2.7-4c0.1-0.1,0.1-0.1,0.3-0.1h0.9
			c0.1,0,0.2,0,0.2,0.1c0,0.1-0.1,0.1-0.2,0.1c-0.5,0-0.5,0.1-0.6,0.3L77.1,145.4z"/>
	</g>
	<g>
		<path class="st3" d="M80.2,144.3c-0.1,0-0.3,0-0.3-0.2c0-0.2,0.2-0.2,0.3-0.2h4.2c0.1,0,0.3,0,0.3,0.2c0,0.2-0.2,0.2-0.3,0.2H80.2
			z"/>
	</g>
	<g>
		<path class="st3" d="M88.8,145.9h-2.9c0-0.2,0-0.2,0.1-0.3l1.7-1.7c0.2-0.3,0.7-0.7,0.7-1.3c0-0.6-0.4-1.1-1.1-1.1
			c-0.3,0-0.8,0.2-1,0.6c0.4,0,0.4,0.2,0.4,0.4c0,0.3-0.2,0.4-0.4,0.4c-0.1,0-0.4,0-0.4-0.4c0-0.6,0.6-1.2,1.5-1.2
			c0.9,0,1.6,0.5,1.6,1.4c0,0.7-0.5,1.1-1,1.5c-0.4,0.3-0.7,0.5-1.4,1.2h1.3c0.1,0,0.6,0,0.7,0c0.1-0.1,0.2-0.5,0.2-0.6H89
			L88.8,145.9z"/>
	</g>
	<polyline points="80.6,129 78.4,124.4 76.1,129 78.4,127.8 	"/>
	<line class="st1" x1="78.4" y1="135.1" x2="78.4" y2="127.8"/>
	<g>
		<path class="st3" d="M110.3,124.1c-1.8,0-3.3-1.5-3.3-3.3c0-1.8,1.5-3.3,3.3-3.3c1.8,0,3.3,1.5,3.3,3.3
			C113.6,122.6,112.1,124.1,110.3,124.1z M110.2,120.7v-2.9c-1.6,0.1-2.8,1.3-2.9,2.9H110.2z M110.2,120.9h-2.9
			c0.1,1.7,1.4,2.9,2.9,2.9V120.9z M110.4,120.7h2.9c-0.1-1.7-1.4-2.9-2.9-2.9V120.7z M110.4,120.9v2.9c1.5-0.1,2.8-1.2,2.9-2.9
			H110.4z"/>
	</g>
	<polyline points="102.2,123.2 106.7,120.9 102.2,118.6 103.3,120.9 	"/>
	<line class="st1" x1="81.9" y1="120.9" x2="103.3" y2="120.9"/>
	<g>
		<path class="st3" d="M45.8,141.2c0,0.1,0,0.2,0,0.2c0,0.2,0.1,0.2,0.4,0.2c0.3,0,0.4,0,0.6,0c0.3,0,0.3,0,0.3,0.1
			c0,0.2-0.1,0.2-0.2,0.2c-0.3,0-0.6,0-0.9,0c-0.3,0-0.5,0-0.8,0c-0.3,0-0.6,0-0.8,0c-0.3,0-0.5,0-0.8,0c-0.1,0-0.2,0-0.2-0.1
			c0-0.2,0.1-0.2,0.4-0.2c1.1,0,1.1-0.1,1.2-0.5l1.3-5.3c0,0,0-0.1,0-0.2c0-0.1,0-0.1-0.3-0.1h-0.4c-1.5,0-1.7,0.2-2.3,1.7
			c-0.1,0.2-0.1,0.2-0.2,0.2c-0.1,0-0.1,0-0.1-0.1c0,0,0-0.2,0.1-0.2l0.6-1.8c0.1-0.2,0.1-0.2,0.3-0.2h5.5c0.2,0,0.3,0,0.3,0.1
			c0,0,0,0.1,0,0.2l-0.3,1.7c0,0.1,0,0.2-0.1,0.2c-0.1,0-0.1-0.1-0.1-0.1c0,0,0-0.2,0-0.2c0-0.3,0.1-0.6,0.1-0.8
			c0-0.8-0.4-0.8-1.5-0.8c-0.2,0-0.5,0-0.6,0c-0.1,0-0.2,0.1-0.2,0.4L45.8,141.2z"/>
	</g>
	<polygon class="st1" points="35.9,138.6 35.9,145.7 57.1,145.7 57.1,131.5 35.9,131.5 	"/>
	<polyline points="112.5,129 110.3,124.4 108,129 110.3,127.8 	"/>
	<line class="st1" x1="110.3" y1="156.3" x2="110.3" y2="127.8"/>
	<polyline points="44.2,127 46.5,131.5 48.8,127 46.5,128.1 	"/>
	<path class="st1" d="M46.5,106.7v21.4 M46.5,145.7v10.6"/>
	<polyline points="70.3,158.6 74.8,156.3 70.3,154.1 71.4,156.3 	"/>
	<line class="st1" x1="46.5" y1="156.3" x2="71.4" y2="156.3"/>
	<g>
		<path class="st3" d="M78.4,159.6c-1.8,0-3.3-1.5-3.3-3.3c0-1.8,1.5-3.3,3.3-3.3c1.8,0,3.3,1.5,3.3,3.3
			C81.7,158.1,80.3,159.6,78.4,159.6z M78.2,156.2l-2.1-2.1c-0.5,0.6-0.8,1.3-0.8,2.1c0,0.6,0.2,1.4,0.8,2.1L78.2,156.2z
			 M78.4,156.4l-2.1,2.1c0.8,0.8,1.7,0.8,2.1,0.8c1.3,0,2.1-0.8,2.1-0.8c0,0-0.1-0.1-0.1-0.1L78.4,156.4z M78.4,156.1l2.1-2.1
			c-0.8-0.8-1.7-0.8-2.1-0.8c-1.3,0-2.1,0.8-2.1,0.8c0,0,0.1,0.1,0.1,0.1L78.4,156.1z M78.6,156.2l2.1,2.1c0.5-0.6,0.8-1.3,0.8-2.1
			c0-0.8-0.3-1.6-0.8-2.1L78.6,156.2z"/>
	</g>
	<g>
		<path class="st3" d="M68.3,176.1c0.3-0.3,0.7-0.6,1.2-0.6c0.8,0,1.3,0.7,1.3,1.6c0,1.4-1.2,2.9-2.4,2.9c-0.7,0-1.3-0.6-1.3-1.6
			c0-0.3,0-0.5,0.2-1l0.8-3.2c0-0.2,0.1-0.5,0.1-0.6c0-0.1,0-0.2-0.5-0.2c-0.1,0-0.2,0-0.2-0.1c0-0.2,0.1-0.2,0.2-0.2
			c0.3,0,1-0.1,1.2-0.1c0.1,0,0.1,0.1,0.1,0.1L68.3,176.1z M67.8,177.7c-0.2,0.6-0.2,0.8-0.2,1c0,0.7,0.3,1,0.7,1
			c0.4,0,0.8-0.4,1.2-1c0.2-0.4,0.5-1.5,0.5-2.1c0-0.6-0.3-0.9-0.6-0.9c-0.3,0-0.7,0.1-1.2,0.8c-0.1,0.1-0.1,0.1-0.1,0.3L67.8,177.7
			z"/>
	</g>
	<g>
		<path class="st3" d="M77.1,180.8c0,0,0,0.1,0,0.2c0,0.1,0,0.1,0.2,0.1c0.1,0,0.3,0,0.3,0c0.1,0,0.2,0,0.2,0.1
			c0,0.2-0.1,0.2-0.1,0.2c-0.2,0-0.7,0-0.9,0c-0.1,0-0.3,0-0.4,0c-0.1,0-0.3,0-0.4,0c-0.1,0-0.1-0.1-0.1-0.1c0-0.2,0.1-0.2,0.2-0.2
			c0.5,0,0.6-0.1,0.6-0.3l1-3.9l0,0l-2.9,4.3c0,0.1-0.1,0.2-0.2,0.2c-0.1,0-0.1-0.1-0.1-0.2l-0.7-4.2h0l-0.9,3.7c0,0.1,0,0.1,0,0.2
			c0,0.1,0,0.3,0.4,0.3c0.1,0,0.2,0,0.2,0.1c0,0.2-0.1,0.2-0.1,0.2c-0.2,0-0.6,0-0.7,0c-0.2,0-0.5,0-0.7,0c-0.1,0-0.1-0.1-0.1-0.1
			c0-0.1,0.1-0.2,0.1-0.2c0.6,0,0.7-0.3,0.7-0.5l0.9-3.5c0-0.1,0-0.1,0-0.2c0-0.1,0-0.1-0.2-0.1c-0.1,0-0.2,0-0.3,0
			c-0.2,0-0.2,0-0.2-0.1c0-0.2,0.1-0.2,0.2-0.2h1c0.2,0,0.2,0,0.2,0.2l0.7,3.9l2.7-4c0.1-0.1,0.1-0.1,0.3-0.1h0.9
			c0.1,0,0.2,0,0.2,0.1c0,0.1-0.1,0.1-0.2,0.1c-0.5,0-0.5,0.1-0.6,0.3L77.1,180.8z"/>
	</g>
	<g>
		<path class="st3" d="M80.2,179.7c-0.1,0-0.3,0-0.3-0.2c0-0.2,0.2-0.2,0.3-0.2h4.2c0.1,0,0.3,0,0.3,0.2c0,0.2-0.2,0.2-0.3,0.2H80.2
			z"/>
	</g>
	<g>
		<path class="st3" d="M87.8,180.7c0,0.2,0,0.3,0.7,0.3h0.3v0.3c-0.2,0-1,0-1.2,0c-0.3,0-1.1,0-1.2,0v-0.3h0.3
			c0.7,0,0.7-0.1,0.7-0.3v-3.6c-0.4,0.2-0.8,0.2-1,0.2v-0.3c0.3,0,0.9,0,1.4-0.4c0.2,0,0.2,0,0.2,0.2V180.7z"/>
	</g>
	<polyline points="80.6,164.4 78.4,159.9 76.1,164.4 78.4,163.3 	"/>
	<path class="st1" d="M78.4,170.5l0-7.2 M81.9,156.3h28.3"/>
	<polyline points="112.5,29.8 110.3,25.2 108,29.8 110.3,28.6 	"/>
	<line class="st1" x1="110.3" y1="53.6" x2="110.3" y2="28.6"/>
	<polyline points="70.3,59.4 74.8,57.1 70.3,54.9 71.4,57.1 	"/>
	<line class="st1" x1="46.5" y1="57.1" x2="71.4" y2="57.1"/>
	<g>
		<path class="st3" d="M78.4,60.3c-1.8,0-3.3-1.5-3.3-3.3c0-1.8,1.5-3.3,3.3-3.3c1.8,0,3.3,1.5,3.3,3.3
			C81.7,58.8,80.3,60.3,78.4,60.3z M78.2,57l-2.1-2.1c-0.5,0.6-0.8,1.3-0.8,2.1c0,0.6,0.2,1.4,0.8,2.1L78.2,57z M78.4,57.2l-2.1,2.1
			c0.8,0.8,1.7,0.8,2.1,0.8c1.3,0,2.1-0.8,2.1-0.8c0,0-0.1-0.1-0.1-0.1L78.4,57.2z M78.4,56.9l2.1-2.1C79.7,54,78.8,54,78.4,54
			c-1.3,0-2.1,0.8-2.1,0.8c0,0,0.1,0.1,0.1,0.1L78.4,56.9z M78.6,57l2.1,2.1c0.5-0.6,0.8-1.3,0.8-2.1c0-0.8-0.3-1.6-0.8-2.1L78.6,57
			z"/>
	</g>
	<g>
		<path class="st3" d="M75.7,77.2c0.3-0.3,0.7-0.6,1.2-0.6c0.8,0,1.3,0.7,1.3,1.6c0,1.4-1.2,2.9-2.4,2.9c-0.7,0-1.3-0.6-1.3-1.6
			c0-0.3,0-0.5,0.2-1l0.8-3.2c0-0.2,0.1-0.5,0.1-0.6c0-0.1,0-0.2-0.5-0.2c-0.1,0-0.2,0-0.2-0.1c0-0.2,0.1-0.2,0.2-0.2
			c0.3,0,1-0.1,1.2-0.1c0.1,0,0.1,0.1,0.1,0.1L75.7,77.2z M75.3,78.9c-0.2,0.6-0.2,0.8-0.2,1c0,0.7,0.3,1,0.7,1c0.4,0,0.8-0.4,1.2-1
			c0.2-0.4,0.5-1.5,0.5-2.1c0-0.6-0.3-0.9-0.6-0.9c-0.3,0-0.7,0.1-1.2,0.8c-0.1,0.1-0.1,0.1-0.1,0.3L75.3,78.9z"/>
	</g>
	<g>
		<path class="st3" d="M80.7,81.9c0,0.2,0,0.3,0.7,0.3h0.3v0.3c-0.2,0-1,0-1.2,0c-0.3,0-1.1,0-1.2,0v-0.3h0.3c0.7,0,0.7-0.1,0.7-0.3
			v-3.6c-0.4,0.2-0.8,0.2-1,0.2v-0.3c0.3,0,0.9,0,1.4-0.4c0.2,0,0.2,0,0.2,0.2V81.9z"/>
	</g>
	<polyline points="80.6,65.2 78.4,60.7 76.1,65.2 78.4,64.1 	"/>
	<line class="st1" x1="78.4" y1="71.3" x2="78.4" y2="64.1"/>
	<g>
		<path class="st3" d="M110.3,60.3c-1.8,0-3.3-1.5-3.3-3.3c0-1.8,1.5-3.3,3.3-3.3c1.8,0,3.3,1.5,3.3,3.3
			C113.6,58.8,112.1,60.3,110.3,60.3z M110.2,56.9V54c-1.6,0.1-2.8,1.3-2.9,2.9H110.2z M110.2,57.1h-2.9c0.1,1.7,1.4,2.9,2.9,2.9
			V57.1z M110.4,56.9h2.9c-0.1-1.7-1.4-2.9-2.9-2.9V56.9z M110.4,57.1v2.9c1.5-0.1,2.8-1.2,2.9-2.9H110.4z"/>
	</g>
	<polyline points="102.2,59.4 106.7,57.1 102.2,54.9 103.3,57.1 	"/>
	<line class="st1" x1="81.9" y1="57.1" x2="103.3" y2="57.1"/>
	<g>
		<path class="st3" d="M78.4,24.9c-1.8,0-3.3-1.5-3.3-3.3c0-1.8,1.5-3.3,3.3-3.3c1.8,0,3.3,1.5,3.3,3.3
			C81.7,23.4,80.3,24.9,78.4,24.9z M78.2,21.6l-2.1-2.1c-0.5,0.6-0.8,1.3-0.8,2.1c0,0.6,0.2,1.4,0.8,2.1L78.2,21.6z M78.4,21.8
			l-2.1,2.1c0.8,0.8,1.7,0.8,2.1,0.8c1.3,0,2.1-0.8,2.1-0.8c0,0-0.1-0.1-0.1-0.1L78.4,21.8z M78.4,21.4l2.1-2.1
			c-0.8-0.8-1.7-0.8-2.1-0.8c-1.3,0-2.1,0.8-2.1,0.8c0,0,0.1,0.1,0.1,0.1L78.4,21.4z M78.6,21.6l2.1,2.1c0.5-0.6,0.8-1.3,0.8-2.1
			c0-0.8-0.3-1.6-0.8-2.1L78.6,21.6z"/>
	</g>
	<g>
		<path class="st3" d="M75.7,41.8c0.3-0.3,0.7-0.6,1.2-0.6c0.8,0,1.3,0.7,1.3,1.6c0,1.4-1.2,2.9-2.4,2.9c-0.7,0-1.3-0.6-1.3-1.6
			c0-0.3,0-0.5,0.2-1l0.8-3.2c0-0.2,0.1-0.5,0.1-0.6c0-0.1,0-0.2-0.5-0.2c-0.1,0-0.2,0-0.2-0.1c0-0.2,0.1-0.2,0.2-0.2
			c0.3,0,1-0.1,1.2-0.1c0.1,0,0.1,0.1,0.1,0.1L75.7,41.8z M75.3,43.5c-0.2,0.6-0.2,0.8-0.2,1c0,0.7,0.3,1,0.7,1c0.4,0,0.8-0.4,1.2-1
			c0.2-0.4,0.5-1.5,0.5-2.1c0-0.6-0.3-0.9-0.6-0.9c-0.3,0-0.7,0.1-1.2,0.8c-0.1,0.1-0.1,0.1-0.1,0.3L75.3,43.5z"/>
	</g>
	<g>
		<path class="st3" d="M80.4,47.2c-1.6,0-1.6-1.9-1.6-2.4c0-0.5,0-2.4,1.6-2.4c0.6,0,1,0.3,1.2,0.6c0.3,0.5,0.4,1,0.4,1.8
			C82,45.3,82,47.2,80.4,47.2z M81.3,46.2c0.1-0.4,0.1-1,0.1-1.5c0-0.6,0-1.1-0.1-1.5c-0.1-0.4-0.5-0.6-0.9-0.6
			c-0.3,0-0.7,0.1-0.9,0.7c-0.1,0.4-0.1,0.9-0.1,1.4c0,0.5,0,1.1,0.1,1.5c0.1,0.6,0.6,0.8,0.9,0.8C80.6,47,81.1,46.8,81.3,46.2z"/>
	</g>
	<polyline points="80.6,29.8 78.4,25.2 76.1,29.8 78.4,28.6 	"/>
	<line class="st1" x1="78.4" y1="35.9" x2="78.4" y2="28.6"/>
	<g>
		<path class="st3" d="M243.9,24.1c-0.3,1.1-1.3,2-2.3,2c-0.6,0-1.1-0.4-1.1-0.9c0-0.5,0.3-0.6,0.6-0.6c0.1,0,0.4,0,0.4,0.3
			c0,0.2-0.1,0.3-0.2,0.4c-0.1,0.1-0.3,0.1-0.4,0.1c0.2,0.4,0.6,0.4,0.8,0.4c0.5,0,0.8-0.3,1.1-0.6c0.4-0.5,0.5-1,0.6-1.5
			c-0.3,0.3-0.6,0.4-1,0.4c-0.6,0-1.2-0.3-1.2-1.2c0-0.5,0.2-1,0.6-2.1c0.1-0.2,0.2-0.4,0.2-0.7c0-0.3-0.2-0.3-0.2-0.3
			c-0.3,0-0.7,0.3-1,1.2c0,0.2-0.1,0.2-0.2,0.2c0,0-0.1,0-0.1-0.1c0-0.1,0.4-1.5,1.3-1.5c0.5,0,0.8,0.4,0.8,0.8c0,0.2,0,0.3-0.2,0.7
			c-0.3,0.9-0.5,1.5-0.5,2c0,0.4,0.1,0.8,0.6,0.8c0.7,0,1.1-0.7,1.1-0.8l0.4-1.8c0.1-0.3,0.1-0.5,0.2-0.8c0-0.2,0.1-0.5,0.1-0.5
			c0.1-0.1,0.2-0.2,0.3-0.2c0.1,0,0.3,0.1,0.3,0.3c0,0.1,0,0.1,0,0.2L243.9,24.1z"/>
	</g>
	<g>
		<path class="st3" d="M246.5,26.6v-10h1.4V17h-1v9.2h1v0.4H246.5z"/>
	</g>
	<g>
		<path class="st3" d="M249.5,21.2c0.1-0.5,0.2-0.6,0.2-0.8c0-0.3-0.1-0.5-0.3-0.5c-0.4,0-0.6,0.5-0.7,1.2c-0.1,0.2-0.1,0.2-0.2,0.2
			c0,0-0.1,0-0.1-0.1c0,0,0.1-0.6,0.3-1c0.1-0.2,0.3-0.6,0.7-0.6c0.5,0,0.9,0.3,0.9,0.9c0.2-0.2,0.7-0.9,1.6-0.9
			c0.7,0,1.1,0.4,1.1,1.1c0,0.6-0.4,1.7-0.6,2.2c-0.1,0.2-0.2,0.5-0.2,0.7c0,0.2,0.1,0.3,0.2,0.3c0.5,0,0.8-0.6,1-1.2
			c0.1-0.1,0.1-0.2,0.2-0.2c0,0,0.1,0,0.1,0.1c0,0.1-0.4,1.5-1.3,1.5c-0.5,0-0.8-0.3-0.8-0.8c0-0.1,0-0.2,0.1-0.5
			c0.2-0.4,0.6-1.7,0.6-2.3c0-0.3-0.1-0.7-0.5-0.7c-0.9,0-1.5,0.9-1.6,1.2c0,0-0.1,0.3-0.1,0.5c0,0.2-0.1,0.4-0.2,0.7l-0.2,0.9
			c-0.1,0.2-0.2,0.7-0.2,0.7c-0.1,0.2-0.2,0.3-0.4,0.3c-0.1,0-0.3-0.1-0.3-0.3c0-0.1,0.1-0.3,0.1-0.4L249.5,21.2z"/>
	</g>
	<g>
		<path class="st3" d="M255.7,26.6h-1.4v-0.4h1V17h-1v-0.4h1.4V26.6z"/>
	</g>
	<polyline points="233.3,24 237.8,21.7 233.3,19.4 234.4,21.7 	"/>
	<line class="st1" x1="149.2" y1="21.7" x2="234.4" y2="21.7"/>
	<g>
		<path class="st3" d="M208.8,42c0,0.1,0,0.2,0,0.2c0,0.2,0.1,0.2,0.4,0.2c0.3,0,0.4,0,0.6,0c0.3,0,0.3,0,0.3,0.1
			c0,0.2-0.1,0.2-0.2,0.2c-0.3,0-0.6,0-0.9,0c-0.3,0-0.5,0-0.8,0c-0.3,0-0.6,0-0.8,0c-0.3,0-0.5,0-0.8,0c-0.1,0-0.2,0-0.2-0.1
			c0-0.2,0.1-0.2,0.4-0.2c1.1,0,1.1-0.1,1.2-0.5l1.3-5.3c0,0,0-0.1,0-0.2c0-0.1,0-0.1-0.3-0.1h-0.4c-1.5,0-1.7,0.2-2.3,1.7
			c-0.1,0.2-0.1,0.2-0.2,0.2c-0.1,0-0.1,0-0.1-0.1c0,0,0-0.2,0.1-0.2l0.6-1.8c0.1-0.2,0.1-0.2,0.3-0.2h5.5c0.2,0,0.3,0,0.3,0.1
			c0,0,0,0.1,0,0.2l-0.3,1.7c0,0.1,0,0.2-0.1,0.2c-0.1,0-0.1-0.1-0.1-0.1c0,0,0-0.1,0-0.2c0-0.3,0.1-0.6,0.1-0.8
			c0-0.8-0.4-0.8-1.5-0.8c-0.2,0-0.5,0-0.6,0c-0.1,0-0.2,0.1-0.2,0.4L208.8,42z"/>
	</g>
	<polygon class="st1" points="198.8,39.4 198.8,46.5 220.1,46.5 220.1,32.3 198.8,32.3 	"/>
	<polyline points="207.2,27.8 209.5,32.3 211.7,27.8 209.5,28.9 	"/>
	<line class="st1" x1="209.5" y1="21.7" x2="209.5" y2="28.9"/>
	<polyline points="207.2,70.3 209.5,74.8 211.7,70.3 209.5,71.4 	"/>
	<line class="st1" x1="209.5" y1="46.5" x2="209.5" y2="71.4"/>
	<line class="st8" x1="209.5" y1="78.4" x2="209.5" y2="103.2"/>
	<polyline points="185.7,54.9 181.1,57.1 185.7,59.4 184.5,57.1 	"/>
	<line class="st1" x1="184.5" y1="57.1" x2="209.5" y2="57.1"/>
	<polyline points="153.8,54.9 149.2,57.1 153.8,59.4 152.6,57.1 	"/>
	<line class="st1" x1="152.6" y1="57.1" x2="174" y2="57.1"/>
	<polyline points="185.7,118.6 181.1,120.9 185.7,123.2 184.5,120.9 	"/>
	<line class="st1" x1="184.5" y1="120.9" x2="209.5" y2="120.9"/>
	<polyline points="153.8,118.6 149.2,120.9 153.8,123.2 152.6,120.9 	"/>
	<line class="st1" x1="152.6" y1="120.9" x2="174" y2="120.9"/>
	<g>
		<path class="st3" d="M208.8,141.2c0,0.1,0,0.2,0,0.2c0,0.2,0.1,0.2,0.4,0.2c0.3,0,0.4,0,0.6,0c0.3,0,0.3,0,0.3,0.1
			c0,0.2-0.1,0.2-0.2,0.2c-0.3,0-0.6,0-0.9,0c-0.3,0-0.5,0-0.8,0c-0.3,0-0.6,0-0.8,0c-0.3,0-0.5,0-0.8,0c-0.1,0-0.2,0-0.2-0.1
			c0-0.2,0.1-0.2,0.4-0.2c1.1,0,1.1-0.1,1.2-0.5l1.3-5.3c0,0,0-0.1,0-0.2c0-0.1,0-0.1-0.3-0.1h-0.4c-1.5,0-1.7,0.2-2.3,1.7
			c-0.1,0.2-0.1,0.2-0.2,0.2c-0.1,0-0.1,0-0.1-0.1c0,0,0-0.2,0.1-0.2l0.6-1.8c0.1-0.2,0.1-0.2,0.3-0.2h5.5c0.2,0,0.3,0,0.3,0.1
			c0,0,0,0.1,0,0.2l-0.3,1.7c0,0.1,0,0.2-0.1,0.2c-0.1,0-0.1-0.1-0.1-0.1c0,0,0-0.2,0-0.2c0-0.3,0.1-0.6,0.1-0.8
			c0-0.8-0.4-0.8-1.5-0.8c-0.2,0-0.5,0-0.6,0c-0.1,0-0.2,0.1-0.2,0.4L208.8,141.2z"/>
	</g>
	<polygon class="st1" points="198.8,138.6 198.8,145.7 220.1,145.7 220.1,131.5 198.8,131.5 	"/>
	<polyline points="207.2,127 209.5,131.5 211.7,127 209.5,128.1 	"/>
	<path class="st1" d="M209.5,106.7v21.4 M209.5,145.7v10.6"/>
	<polyline points="185.7,154.1 181.1,156.3 185.7,158.6 184.5,156.3 	"/>
	<path class="st1" d="M184.5,156.3l24.9,0 M145.7,156.3H174"/>
	<polyline points="148,65.2 145.7,60.7 143.4,65.2 145.7,64.1 	"/>
	<line class="st1" x1="145.7" y1="74.8" x2="145.7" y2="64.1"/>
	<line class="st8" x1="145.7" y1="78.4" x2="145.7" y2="103.2"/>
	<polyline points="148,29.8 145.7,25.2 143.4,29.8 145.7,28.6 	"/>
	<line class="st1" x1="145.7" y1="53.6" x2="145.7" y2="28.6"/>
	<g>
		<path class="st3" d="M145.7,60.3c-1.8,0-3.3-1.5-3.3-3.3c0-1.8,1.5-3.3,3.3-3.3c1.8,0,3.3,1.5,3.3,3.3
			C149.1,58.8,147.6,60.3,145.7,60.3z M145.6,56.9V54c-1.6,0.1-2.8,1.3-2.9,2.9H145.6z M145.6,57.1h-2.9c0.1,1.7,1.4,2.9,2.9,2.9
			V57.1z M145.9,56.9h3c-0.1-1.7-1.4-2.9-3-2.9V56.9z M145.9,57.1v2.9c1.5-0.1,2.9-1.2,3-2.9H145.9z"/>
	</g>
	<polyline points="148,111.3 145.7,106.7 143.4,111.3 145.7,110.1 	"/>
	<line class="st1" x1="145.7" y1="117.4" x2="145.7" y2="110.1"/>
	<g>
		<path class="st3" d="M145.7,124.1c-1.8,0-3.3-1.5-3.3-3.3c0-1.8,1.5-3.3,3.3-3.3c1.8,0,3.3,1.5,3.3,3.3
			C149.1,122.6,147.6,124.1,145.7,124.1z M145.6,120.7v-2.9c-1.6,0.1-2.8,1.3-2.9,2.9H145.6z M145.6,120.9h-2.9
			c0.1,1.7,1.4,2.9,2.9,2.9V120.9z M145.9,120.7h3c-0.1-1.7-1.4-2.9-3-2.9V120.7z M145.9,120.9v2.9c1.5-0.1,2.9-1.2,3-2.9H145.9z"/>
	</g>
	<polyline points="148,129 145.7,124.4 143.4,129 145.7,127.8 	"/>
	<line class="st1" x1="145.7" y1="156.3" x2="145.7" y2="127.8"/>
	<g>
		<path class="st3" d="M145.7,24.9c-1.8,0-3.3-1.5-3.3-3.3c0-1.8,1.5-3.3,3.3-3.3c1.8,0,3.3,1.5,3.3,3.3
			C149.1,23.4,147.6,24.9,145.7,24.9z M145.6,21.5v-2.9c-1.6,0.1-2.8,1.3-2.9,2.9H145.6z M145.6,21.7h-2.9c0.1,1.7,1.4,2.9,2.9,2.9
			V21.7z M145.9,21.5h3c-0.1-1.7-1.4-2.9-3-2.9V21.5z M145.9,21.7v2.9c1.5-0.1,2.9-1.2,3-2.9H145.9z"/>
	</g>
	<g>
		<path class="st3" d="M177.6,60.3c-1.8,0-3.3-1.5-3.3-3.3c0-1.8,1.5-3.3,3.3-3.3c1.8,0,3.3,1.5,3.3,3.3
			C180.9,58.8,179.5,60.3,177.6,60.3z M177.4,57l-2.1-2.1c-0.5,0.6-0.8,1.3-0.8,2.1c0,0.6,0.2,1.4,0.8,2.1L177.4,57z M177.6,57.2
			l-2.1,2.1c0.8,0.8,1.7,0.8,2.1,0.8c1.3,0,2.1-0.8,2.1-0.8c0,0-0.1-0.1-0.1-0.1L177.6,57.2z M177.6,56.9l2.1-2.1
			c-0.8-0.8-1.7-0.8-2.1-0.8c-1.3,0-2.1,0.8-2.1,0.8c0,0,0.1,0.1,0.1,0.1L177.6,56.9z M177.8,57l2.1,2.1c0.5-0.6,0.8-1.3,0.8-2.1
			c0-0.8-0.3-1.6-0.8-2.1L177.8,57z"/>
	</g>
	<g>
		<path class="st3" d="M176.8,75.6c0.2,0,0.3,0.1,0.3,0.3c0,0,0,0.1-0.1,0.3l-0.4,1.4c-0.1,0.4-0.1,0.5-0.2,0.9
			c-0.1,0.4-0.1,0.5-0.1,0.7c0,0.2,0,0.5,0.3,0.5c0.4,0,0.6-0.6,0.8-1.2c0-0.1,0-0.2,0.1-0.2c0,0,0.1,0,0.1,0.1c0,0-0.1,0.6-0.3,1
			c-0.2,0.3-0.4,0.5-0.7,0.5c-0.5,0-0.8-0.3-0.9-0.7c-0.6,0.7-1.1,0.7-1.3,0.7c-0.8,0-1.3-0.7-1.3-1.6c0-1.5,1.2-2.9,2.4-2.9
			c0.4,0,0.7,0.3,0.9,0.6C176.4,75.8,176.6,75.6,176.8,75.6z M176.2,76.7c0,0,0-0.1,0-0.2c0-0.1-0.1-0.9-0.8-0.9
			c-0.4,0-0.8,0.4-1.2,1c-0.2,0.5-0.5,1.7-0.5,2.2c0,0.4,0.1,0.9,0.6,0.9c0.3,0,0.7-0.2,1.1-0.7c0.2-0.2,0.2-0.2,0.2-0.4L176.2,76.7
			z"/>
	</g>
	<g>
		<path class="st3" d="M180.3,80.7c0,0.2,0,0.3,0.7,0.3h0.3v0.3c-0.2,0-1,0-1.2,0c-0.3,0-1.1,0-1.2,0V81h0.3c0.7,0,0.7-0.1,0.7-0.3
			v-3.6c-0.4,0.2-0.8,0.2-1,0.2v-0.3c0.3,0,0.9,0,1.4-0.4c0.2,0,0.2,0,0.2,0.2V80.7z"/>
	</g>
	<polyline points="179.9,65.2 177.6,60.7 175.3,65.2 177.6,64.1 	"/>
	<line class="st1" x1="177.6" y1="71.3" x2="177.6" y2="64.1"/>
	<g>
		<path class="st3" d="M177.6,124.1c-1.8,0-3.3-1.5-3.3-3.3c0-1.8,1.5-3.3,3.3-3.3c1.8,0,3.3,1.5,3.3,3.3
			C180.9,122.6,179.5,124.1,177.6,124.1z M177.4,120.8l-2.1-2.1c-0.5,0.6-0.8,1.3-0.8,2.1c0,0.6,0.2,1.4,0.8,2.1L177.4,120.8z
			 M177.6,121l-2.1,2.1c0.8,0.8,1.7,0.8,2.1,0.8c1.3,0,2.1-0.8,2.1-0.8c0,0-0.1-0.1-0.1-0.1L177.6,121z M177.6,120.6l2.1-2.1
			c-0.8-0.8-1.7-0.8-2.1-0.8c-1.3,0-2.1,0.8-2.1,0.8c0,0,0.1,0.1,0.1,0.1L177.6,120.6z M177.8,120.8l2.1,2.1
			c0.5-0.6,0.8-1.3,0.8-2.1c0-0.8-0.3-1.6-0.8-2.1L177.8,120.8z"/>
	</g>
	<g>
		<path class="st3" d="M170.2,138.9c0.2,0,0.3,0.1,0.3,0.3c0,0,0,0.1-0.1,0.3l-0.4,1.4c-0.1,0.4-0.1,0.5-0.2,0.9
			c-0.1,0.4-0.1,0.5-0.1,0.7c0,0.2,0,0.5,0.3,0.5c0.4,0,0.6-0.6,0.8-1.2c0-0.1,0-0.2,0.1-0.2c0,0,0.1,0,0.1,0.1c0,0-0.1,0.6-0.3,1
			c-0.2,0.3-0.4,0.5-0.7,0.5c-0.5,0-0.8-0.3-0.9-0.7c-0.6,0.7-1.1,0.7-1.3,0.7c-0.8,0-1.3-0.7-1.3-1.6c0-1.5,1.2-2.9,2.4-2.9
			c0.4,0,0.7,0.3,0.9,0.6C169.8,139.1,170,138.9,170.2,138.9z M169.6,140c0,0,0-0.1,0-0.2c0-0.1-0.1-0.9-0.8-0.9
			c-0.4,0-0.8,0.4-1.2,1c-0.2,0.5-0.5,1.7-0.5,2.2c0,0.4,0.1,0.9,0.6,0.9c0.3,0,0.7-0.2,1.1-0.7c0.2-0.2,0.2-0.2,0.2-0.4L169.6,140z
			"/>
	</g>
	<g>
		<path class="st3" d="M176.2,144.4c0,0.1,0,0.1-0.1,0.1c-0.1,0-0.1,0-0.2-0.1l-2-4.2l-0.9,3.6c0,0.1,0,0.1,0,0.2
			c0,0.1,0,0.3,0.4,0.3c0.1,0,0.2,0,0.2,0.1c0,0.1-0.1,0.1-0.1,0.1c-0.2,0-0.6,0-0.7,0c-0.2,0-0.5,0-0.7,0c0,0-0.1,0-0.1-0.1
			c0-0.1,0.1-0.1,0.1-0.1c0.5,0,0.7-0.2,0.7-0.5l0.9-3.7c-0.1,0-0.3,0-0.4,0s-0.2,0-0.2-0.1c0-0.2,0.1-0.2,0.2-0.2h1
			c0.2,0,0.2,0,0.2,0.1l1.8,3.6l0.8-3c0-0.1,0-0.1,0-0.2c0-0.2-0.1-0.3-0.4-0.3c-0.1,0-0.2,0-0.2-0.1c0-0.2,0.1-0.2,0.1-0.2
			c0.2,0,0.6,0,0.7,0c0.2,0,0.5,0,0.7,0c0.1,0,0.1,0.1,0.1,0.1c0,0.1-0.1,0.2-0.1,0.2c-0.6,0-0.7,0.2-0.7,0.5L176.2,144.4z"/>
	</g>
	<g>
		<path class="st3" d="M179.5,143c-0.1,0-0.3,0-0.3-0.2c0-0.2,0.2-0.2,0.3-0.2h4.2c0.1,0,0.3,0,0.3,0.2c0,0.2-0.2,0.2-0.3,0.2H179.5
			z"/>
	</g>
	<g>
		<path class="st3" d="M188,144.6h-2.9c0-0.2,0-0.2,0.1-0.3l1.7-1.7c0.2-0.3,0.7-0.7,0.7-1.3c0-0.6-0.4-1.1-1.1-1.1
			c-0.3,0-0.8,0.2-1,0.6c0.4,0,0.4,0.2,0.4,0.4c0,0.3-0.2,0.4-0.4,0.4c-0.1,0-0.4,0-0.4-0.4c0-0.6,0.6-1.2,1.5-1.2
			c0.9,0,1.6,0.5,1.6,1.4c0,0.7-0.5,1.1-1,1.5c-0.4,0.3-0.7,0.5-1.4,1.2h1.3c0.1,0,0.6,0,0.7,0c0.1-0.1,0.2-0.5,0.2-0.6h0.2
			L188,144.6z"/>
	</g>
	<polyline points="179.9,129 177.6,124.4 175.3,129 177.6,127.8 	"/>
	<line class="st1" x1="177.6" y1="135.1" x2="177.6" y2="127.8"/>
	<g>
		<path class="st3" d="M177.6,159.6c-1.8,0-3.3-1.5-3.3-3.3c0-1.8,1.5-3.3,3.3-3.3c1.8,0,3.3,1.5,3.3,3.3
			C180.9,158.1,179.5,159.6,177.6,159.6z M177.4,156.2l-2.1-2.1c-0.5,0.6-0.8,1.3-0.8,2.1c0,0.6,0.2,1.4,0.8,2.1L177.4,156.2z
			 M177.6,156.4l-2.1,2.1c0.8,0.8,1.7,0.8,2.1,0.8c1.3,0,2.1-0.8,2.1-0.8c0,0-0.1-0.1-0.1-0.1L177.6,156.4z M177.6,156.1l2.1-2.1
			c-0.8-0.8-1.7-0.8-2.1-0.8c-1.3,0-2.1,0.8-2.1,0.8c0,0,0.1,0.1,0.1,0.1L177.6,156.1z M177.8,156.2l2.1,2.1
			c0.5-0.6,0.8-1.3,0.8-2.1c0-0.8-0.3-1.6-0.8-2.1L177.8,156.2z"/>
	</g>
	<g>
		<path class="st3" d="M170.2,174.3c0.2,0,0.3,0.1,0.3,0.3c0,0,0,0.1-0.1,0.3l-0.4,1.4c-0.1,0.4-0.1,0.5-0.2,0.9
			c-0.1,0.4-0.1,0.5-0.1,0.7c0,0.2,0,0.5,0.3,0.5c0.4,0,0.6-0.6,0.8-1.2c0-0.1,0-0.2,0.1-0.2c0,0,0.1,0,0.1,0.1c0,0-0.1,0.6-0.3,1
			c-0.2,0.3-0.4,0.5-0.7,0.5c-0.5,0-0.8-0.3-0.9-0.7c-0.6,0.7-1.1,0.7-1.3,0.7c-0.8,0-1.3-0.7-1.3-1.6c0-1.5,1.2-2.9,2.4-2.9
			c0.4,0,0.7,0.3,0.9,0.6C169.8,174.6,170,174.3,170.2,174.3z M169.6,175.4c0,0,0-0.1,0-0.2c0-0.1-0.1-0.9-0.8-0.9
			c-0.4,0-0.8,0.4-1.2,1c-0.2,0.5-0.5,1.7-0.5,2.2c0,0.4,0.1,0.9,0.6,0.9c0.3,0,0.7-0.2,1.1-0.7c0.2-0.2,0.2-0.2,0.2-0.4
			L169.6,175.4z"/>
	</g>
	<g>
		<path class="st3" d="M176.2,179.8c0,0.1,0,0.1-0.1,0.1c-0.1,0-0.1,0-0.2-0.1l-2-4.2l-0.9,3.6c0,0.1,0,0.1,0,0.2
			c0,0.1,0,0.3,0.4,0.3c0.1,0,0.2,0,0.2,0.1c0,0.1-0.1,0.1-0.1,0.1c-0.2,0-0.6,0-0.7,0c-0.2,0-0.5,0-0.7,0c0,0-0.1,0-0.1-0.1
			c0-0.1,0.1-0.1,0.1-0.1c0.5,0,0.7-0.2,0.7-0.5l0.9-3.7c-0.1,0-0.3,0-0.4,0s-0.2,0-0.2-0.1c0-0.2,0.1-0.2,0.2-0.2h1
			c0.2,0,0.2,0,0.2,0.1l1.8,3.6l0.8-3c0-0.1,0-0.1,0-0.2c0-0.2-0.1-0.3-0.4-0.3c-0.1,0-0.2,0-0.2-0.1c0-0.2,0.1-0.2,0.1-0.2
			c0.2,0,0.6,0,0.7,0c0.2,0,0.5,0,0.7,0c0.1,0,0.1,0.1,0.1,0.1c0,0.1-0.1,0.2-0.1,0.2c-0.6,0-0.7,0.2-0.7,0.5L176.2,179.8z"/>
	</g>
	<g>
		<path class="st3" d="M179.5,178.4c-0.1,0-0.3,0-0.3-0.2c0-0.2,0.2-0.2,0.3-0.2h4.2c0.1,0,0.3,0,0.3,0.2c0,0.2-0.2,0.2-0.3,0.2
			H179.5z"/>
	</g>
	<g>
		<path class="st3" d="M187,179.4c0,0.2,0,0.3,0.7,0.3h0.3v0.3c-0.2,0-1,0-1.2,0c-0.3,0-1.1,0-1.2,0v-0.3h0.3c0.7,0,0.7-0.1,0.7-0.3
			v-3.6c-0.4,0.2-0.8,0.2-1,0.2v-0.3c0.3,0,0.9,0,1.4-0.4c0.2,0,0.2,0,0.2,0.2V179.4z"/>
	</g>
	<polyline points="179.9,164.4 177.6,159.9 175.3,164.4 177.6,163.3 	"/>
	<line class="st1" x1="177.6" y1="170.5" x2="177.6" y2="163.3"/>
</g>
</svg>
