<?xml version="1.0" encoding="utf-8"?>
<!-- Generator: Adobe Illustrator 22.1.0, SVG Export Plug-In . SVG Version: 6.00 Build 0)  -->
<svg version="1.1" id="Layer_1" xmlns="http://www.w3.org/2000/svg" xmlns:xlink="http://www.w3.org/1999/xlink" x="0px" y="0px"
	 viewBox="0 0 324.4 108.2" style="enable-background:new 0 0 324.4 108.2;" xml:space="preserve">
<style type="text/css">
	.st0{fill:none;stroke:#000000;stroke-width:0.8504;stroke-linecap:round;stroke-miterlimit:10;stroke-dasharray:0,3.928;}
	.st1{fill:none;stroke:#000000;stroke-width:0.8504;stroke-miterlimit:10;}
</style>
<g>
	<g>
		<path d="M3,8.4C2.9,8.8,2.8,9,2.8,9.3c0,0.3,0.2,0.7,0.5,0.7c0.3,0,1-0.2,1.3-1.3c0-0.1,0-0.1,0.1-0.1c0,0,0.1,0,0.1,0.1
			c0,0.2-0.6,1.5-1.6,1.5c-0.6,0-1-0.4-1.1-0.8c0,0.1-0.4,0.8-1,0.8c-0.4,0-0.9-0.2-0.9-0.7c0-0.3,0.2-0.6,0.5-0.6
			C1,8.9,1.2,9,1.2,9.3c0,0.3-0.2,0.5-0.5,0.5c0.2,0.1,0.4,0.1,0.5,0.1c0.4,0,0.8-0.4,0.9-1c0.4-1.4,0.5-2.1,0.5-2.4
			c0-0.6-0.3-0.7-0.5-0.7c-0.3,0-1,0.2-1.3,1.3c0,0.1-0.1,0.1-0.1,0.1c0,0-0.1,0-0.1-0.1c0-0.2,0.6-1.5,1.6-1.5
			c0.3,0,0.8,0.1,1.1,0.8c0.1-0.2,0.5-0.8,1-0.8c0.3,0,0.9,0.1,0.9,0.7c0,0.4-0.3,0.6-0.5,0.6c-0.3,0-0.4-0.2-0.4-0.3
			C4.3,6.3,4.5,6,4.8,6C4.6,5.8,4.4,5.8,4.3,5.8c-0.7,0-0.9,0.9-1,1.2L3,8.4z"/>
	</g>
	<g>
		<path d="M6.8,12.5v-10h1.4V3h-1v9.2h1v0.4H6.8z"/>
	</g>
	<g>
		<path d="M9.9,7.1C10,6.6,10,6.5,10,6.3C10,6,9.9,5.8,9.7,5.8C9.3,5.8,9.1,6.3,9,7C8.9,7.3,8.9,7.3,8.8,7.3c0,0-0.1,0-0.1-0.1
			c0,0,0.1-0.6,0.3-1C9.1,6,9.3,5.6,9.7,5.6c0.5,0,0.9,0.3,0.9,0.9c0.2-0.2,0.7-0.9,1.6-0.9c0.7,0,1.1,0.4,1.1,1.1
			c0,0.6-0.4,1.7-0.6,2.2c-0.1,0.2-0.2,0.5-0.2,0.7c0,0.2,0.1,0.3,0.2,0.3c0.5,0,0.8-0.6,1-1.2c0-0.1,0-0.2,0.1-0.2
			c0,0,0.1,0,0.1,0.1c0,0.1-0.4,1.5-1.3,1.5c-0.5,0-0.8-0.3-0.8-0.8c0-0.1,0-0.2,0.1-0.5c0.2-0.4,0.6-1.7,0.6-2.3
			c0-0.3-0.1-0.7-0.5-0.7c-0.9,0-1.5,0.9-1.6,1.2c0,0-0.1,0.3-0.1,0.5c0,0.2-0.1,0.4-0.2,0.7L10,9.1C10,9.4,9.9,9.8,9.8,9.9
			c-0.1,0.2-0.2,0.3-0.4,0.3c-0.1,0-0.3-0.1-0.3-0.3c0-0.1,0.1-0.3,0.1-0.4L9.9,7.1z"/>
	</g>
	<g>
		<path d="M16,12.5h-1.4v-0.4h1V3h-1V2.6H16V12.5z"/>
	</g>
	<g>
		<path d="M4.1,98.6c-0.3,1.1-1.3,2-2.3,2c-0.6,0-1.1-0.4-1.1-0.9c0-0.5,0.3-0.6,0.6-0.6c0.1,0,0.4,0,0.4,0.3c0,0.2-0.1,0.3-0.2,0.4
			C1.3,100,1.2,100,1,100c0.2,0.4,0.6,0.4,0.8,0.4c0.5,0,0.8-0.3,1.1-0.6c0.4-0.5,0.5-1,0.6-1.5c-0.3,0.3-0.6,0.4-1,0.4
			c-0.6,0-1.2-0.3-1.2-1.2c0-0.5,0.2-1,0.6-2.1C2,95.3,2.1,95,2.1,94.7c0-0.3-0.2-0.3-0.2-0.3c-0.3,0-0.7,0.3-1,1.2
			c0,0.2-0.1,0.2-0.2,0.2c0,0-0.1,0-0.1-0.1c0-0.1,0.4-1.5,1.3-1.5c0.5,0,0.8,0.4,0.8,0.8c0,0.2,0,0.3-0.2,0.7
			c-0.3,0.9-0.5,1.5-0.5,2c0,0.4,0.1,0.8,0.6,0.8c0.7,0,1.1-0.7,1.1-0.8l0.4-1.8c0.1-0.3,0.1-0.5,0.2-0.8c0-0.2,0.1-0.5,0.1-0.5
			c0.1-0.1,0.2-0.2,0.3-0.2c0.1,0,0.3,0.1,0.3,0.3c0,0.1,0,0.1,0,0.2L4.1,98.6z"/>
	</g>
	<g>
		<path d="M6.7,101.1v-10h1.4v0.4h-1v9.2h1v0.4H6.7z"/>
	</g>
	<g>
		<path d="M9.7,95.7c0.1-0.5,0.2-0.6,0.2-0.8c0-0.3-0.1-0.5-0.3-0.5c-0.4,0-0.6,0.5-0.7,1.2c-0.1,0.2-0.1,0.2-0.2,0.2
			c0,0-0.1,0-0.1-0.1c0,0,0.1-0.6,0.3-1c0.1-0.2,0.3-0.6,0.7-0.6c0.5,0,0.9,0.3,0.9,0.9c0.2-0.2,0.7-0.9,1.6-0.9
			c0.7,0,1.1,0.4,1.1,1.1c0,0.6-0.4,1.7-0.6,2.2c-0.1,0.2-0.2,0.5-0.2,0.7c0,0.2,0.1,0.3,0.2,0.3c0.5,0,0.8-0.6,1-1.2
			c0-0.1,0-0.2,0.1-0.2c0,0,0.1,0,0.1,0.1c0,0.1-0.4,1.5-1.3,1.5c-0.5,0-0.8-0.3-0.8-0.8c0-0.1,0-0.2,0.1-0.5
			c0.2-0.4,0.6-1.7,0.6-2.3c0-0.3-0.1-0.7-0.5-0.7c-0.9,0-1.5,0.9-1.6,1.2c0,0-0.1,0.3-0.1,0.5c0,0.2-0.1,0.4-0.2,0.7l-0.2,0.9
			c-0.1,0.2-0.2,0.7-0.2,0.7c-0.1,0.2-0.2,0.3-0.4,0.3c-0.1,0-0.3-0.1-0.3-0.3c0,0,0.1-0.3,0.1-0.4L9.7,95.7z"/>
	</g>
	<g>
		<path d="M15.9,101.1h-1.4v-0.4h1v-9.2h-1v-0.4h1.4V101.1z"/>
	</g>
	<g>
		<path d="M26.8,74c0.4-0.5,0.8-0.8,1.5-0.8c0.7,0,1.1,0.4,1.1,1.1c0,0.6-0.4,1.8-0.6,2.2c-0.1,0.2-0.2,0.5-0.2,0.7
			c0,0.2,0.1,0.3,0.2,0.3c0.5,0,0.9-0.7,1-1.2c0-0.1,0-0.2,0.1-0.2c0,0,0.1,0,0.1,0.1c0,0.1-0.4,1.5-1.3,1.5c-0.5,0-0.8-0.3-0.8-0.8
			c0-0.2,0-0.3,0.1-0.5c0.2-0.6,0.6-1.7,0.6-2.2c0-0.4-0.1-0.7-0.5-0.7c-0.4,0-0.7,0.2-1,0.3c-0.3,0.3-0.6,0.8-0.7,0.9
			c0,0.1-0.1,0.4-0.1,0.4c0,0.2-0.1,0.4-0.2,0.7l-0.2,0.9l-0.2,0.8c0,0.1-0.2,0.3-0.4,0.3c-0.1,0-0.3,0-0.3-0.3c0-0.1,0-0.1,0-0.2
			l1.4-5.7l0-0.2c0-0.1,0-0.2-0.5-0.2c-0.1,0-0.2,0-0.2-0.1c0-0.2,0.1-0.2,0.2-0.2c0.3,0,1-0.1,1.2-0.1c0.1,0,0.1,0.1,0.1,0.1
			L26.8,74z"/>
	</g>
	<g>
		<path d="M32.5,79.2c-1.6,0-1.6-1.9-1.6-2.4s0-2.4,1.6-2.4c0.6,0,1,0.3,1.2,0.6c0.3,0.5,0.4,1,0.4,1.8
			C34.1,77.3,34.1,79.2,32.5,79.2z M33.4,78.2c0.1-0.4,0.1-1,0.1-1.5c0-0.6,0-1.1-0.1-1.5c-0.1-0.4-0.5-0.6-0.9-0.6
			c-0.3,0-0.7,0.1-0.9,0.7c-0.1,0.4-0.1,0.9-0.1,1.4c0,0.5,0,1.1,0.1,1.5c0.1,0.6,0.6,0.8,0.9,0.8C32.8,79,33.2,78.8,33.4,78.2z"/>
	</g>
	<g>
		<path d="M80,74c0.4-0.5,0.8-0.8,1.5-0.8c0.7,0,1.1,0.4,1.1,1.1c0,0.6-0.4,1.8-0.6,2.2c-0.1,0.2-0.2,0.5-0.2,0.7
			c0,0.2,0.1,0.3,0.2,0.3c0.5,0,0.9-0.7,1-1.2c0-0.1,0-0.2,0.1-0.2c0,0,0.1,0,0.1,0.1c0,0.1-0.4,1.5-1.3,1.5c-0.5,0-0.8-0.3-0.8-0.8
			c0-0.2,0-0.3,0.1-0.5c0.2-0.6,0.6-1.7,0.6-2.2c0-0.4-0.1-0.7-0.5-0.7c-0.4,0-0.7,0.2-1,0.3c-0.3,0.3-0.6,0.8-0.7,0.9
			c0,0.1-0.1,0.4-0.1,0.4c0,0.2-0.1,0.4-0.2,0.7l-0.2,0.9l-0.2,0.8c0,0.1-0.2,0.3-0.4,0.3c-0.1,0-0.3,0-0.3-0.3c0-0.1,0-0.1,0-0.2
			l1.4-5.7l0-0.2c0-0.1,0-0.2-0.5-0.2c-0.1,0-0.2,0-0.2-0.1c0-0.2,0.1-0.2,0.2-0.2c0.3,0,1-0.1,1.2-0.1c0.1,0,0.1,0.1,0.1,0.1L80,74
			z"/>
	</g>
	<g>
		<path d="M86,78.5c0,0.2,0,0.3,0.7,0.3h0.3V79c-0.2,0-1,0-1.2,0c-0.3,0-1.1,0-1.2,0v-0.3h0.3c0.7,0,0.7-0.1,0.7-0.3v-3.6
			c-0.4,0.2-0.8,0.2-1,0.2v-0.3c0.3,0,0.9,0,1.4-0.4c0.2,0,0.2,0,0.2,0.2V78.5z"/>
	</g>
	<path class="st0" d="M164.5,7.5h28.3 M164.5,35.9h28.3 M164.5,96.1h28.3"/>
	<g>
		<path d="M291.4,10.2c0,0.1,0,0.2,0,0.2c0,0.2,0.1,0.2,0.4,0.2c0.3,0,0.4,0,0.6,0c0.3,0,0.3,0,0.3,0.1c0,0.2-0.1,0.2-0.2,0.2
			c-0.3,0-0.6,0-0.9,0c-0.3,0-0.5,0-0.8,0c-0.3,0-0.6,0-0.8,0c-0.3,0-0.5,0-0.8,0c-0.1,0-0.2,0-0.2-0.1c0-0.2,0.1-0.2,0.4-0.2
			c1.1,0,1.1-0.1,1.2-0.5l1.3-5.3c0,0,0-0.1,0-0.2c0-0.1,0-0.1-0.3-0.1h-0.4c-1.5,0-1.7,0.2-2.3,1.7c-0.1,0.2-0.1,0.2-0.2,0.2
			c-0.1,0-0.1,0-0.1-0.1c0,0,0-0.2,0.1-0.2l0.6-1.8c0.1-0.2,0.1-0.2,0.3-0.2h5.5c0.2,0,0.3,0,0.3,0.1c0,0,0,0.1,0,0.2l-0.3,1.7
			c0,0.1,0,0.2-0.1,0.2c-0.1,0-0.1-0.1-0.1-0.1c0,0,0-0.1,0-0.2c0-0.3,0.1-0.6,0.1-0.8c0-0.8-0.4-0.8-1.5-0.8c-0.2,0-0.5,0-0.6,0
			c-0.1,0-0.2,0.1-0.2,0.4L291.4,10.2z"/>
	</g>
	<polygon class="st1" points="281.5,7.5 281.5,14.6 302.7,14.6 302.7,0.4 281.5,0.4 	"/>
	<g>
		<path d="M291.4,38.6c0,0.1,0,0.2,0,0.2c0,0.2,0.1,0.2,0.4,0.2c0.3,0,0.4,0,0.6,0c0.3,0,0.3,0,0.3,0.1c0,0.2-0.1,0.2-0.2,0.2
			c-0.3,0-0.6,0-0.9,0c-0.3,0-0.5,0-0.8,0c-0.3,0-0.6,0-0.8,0c-0.3,0-0.5,0-0.8,0c-0.1,0-0.2,0-0.2-0.1c0-0.2,0.1-0.2,0.4-0.2
			c1.1,0,1.1-0.1,1.2-0.5l1.3-5.3c0,0,0-0.1,0-0.2c0-0.1,0-0.1-0.3-0.1h-0.4c-1.5,0-1.7,0.2-2.3,1.7c-0.1,0.2-0.1,0.2-0.2,0.2
			c-0.1,0-0.1,0-0.1-0.1c0,0,0-0.2,0.1-0.2l0.6-1.8c0.1-0.2,0.1-0.2,0.3-0.2h5.5c0.2,0,0.3,0,0.3,0.1c0,0,0,0.1,0,0.2l-0.3,1.7
			c0,0.1,0,0.2-0.1,0.2c-0.1,0-0.1-0.1-0.1-0.1c0,0,0-0.1,0-0.2c0-0.3,0.1-0.6,0.1-0.8c0-0.8-0.4-0.8-1.5-0.8c-0.2,0-0.5,0-0.6,0
			c-0.1,0-0.2,0.1-0.2,0.4L291.4,38.6z"/>
	</g>
	<polygon class="st1" points="281.5,35.9 281.5,42.9 302.7,42.9 302.7,28.8 281.5,28.8 	"/>
	<polyline points="211.6,33.6 207.1,35.9 211.6,38.1 210.5,35.9 	"/>
	<line class="st1" x1="281.5" y1="35.9" x2="210.5" y2="35.9"/>
	<polyline points="276.9,9.8 281.5,7.5 276.9,5.2 278.1,7.5 	"/>
	<path class="st1" d="M207.1,7.5h71 M302.7,7.5h17.7"/>
	<polyline points="307.3,33.6 302.7,35.9 307.3,38.1 306.1,35.9 	"/>
	<line class="st1" x1="320.4" y1="35.9" x2="306.1" y2="35.9"/>
	<polyline points="318.2,66.8 320.4,71.3 322.7,66.8 320.4,67.9 	"/>
	<line class="st1" x1="320.4" y1="7.5" x2="320.4" y2="67.9"/>
	<polyline points="239.9,93.8 235.4,96.1 239.9,98.4 238.8,96.1 	"/>
	<line class="st1" x1="320.4" y1="96.1" x2="238.8" y2="96.1"/>
	<g>
		<path d="M320.5,78.2c-1.8,0-3.3-1.5-3.3-3.3c0-1.8,1.5-3.3,3.3-3.3c1.8,0,3.3,1.5,3.3,3.3C323.8,76.7,322.3,78.2,320.5,78.2z
			 M320.3,74.9l-2.1-2.1c-0.5,0.6-0.8,1.3-0.8,2.1c0,0.6,0.2,1.4,0.8,2.1L320.3,74.9z M320.5,75l-2.1,2.1c0.8,0.8,1.7,0.8,2.1,0.8
			c1.3,0,2.1-0.8,2.1-0.8c0,0-0.1-0.1-0.1-0.1L320.5,75z M320.5,74.7l2.1-2.1c-0.8-0.8-1.7-0.8-2.1-0.8c-1.3,0-2.1,0.8-2.1,0.8
			c0,0,0.1,0.1,0.1,0.1L320.5,74.7z M320.7,74.9l2.1,2.1c0.5-0.6,0.8-1.3,0.8-2.1c0-0.8-0.3-1.6-0.8-2.1L320.7,74.9z"/>
	</g>
	<polyline points="312.4,77.1 316.9,74.8 312.4,72.6 313.5,74.8 	"/>
	<line class="st1" x1="307.8" y1="74.8" x2="313.5" y2="74.8"/>
	<g>
		<path d="M257.1,72.9c0.4-0.5,0.8-0.8,1.5-0.8c0.7,0,1.1,0.4,1.1,1.1c0,0.6-0.4,1.8-0.6,2.2c-0.1,0.2-0.2,0.5-0.2,0.7
			c0,0.2,0.1,0.3,0.2,0.3c0.5,0,0.9-0.7,1-1.2c0-0.1,0-0.2,0.1-0.2c0,0,0.1,0,0.1,0.1c0,0.1-0.4,1.5-1.3,1.5c-0.5,0-0.8-0.3-0.8-0.8
			c0-0.2,0-0.3,0.1-0.5c0.2-0.6,0.6-1.7,0.6-2.2c0-0.4-0.1-0.7-0.5-0.7s-0.7,0.2-1,0.3c-0.3,0.3-0.6,0.8-0.7,0.9
			c0,0.1-0.1,0.4-0.1,0.4c0,0.2-0.1,0.4-0.2,0.7l-0.2,0.9l-0.2,0.8c0,0.1-0.2,0.3-0.4,0.3c-0.1,0-0.3,0-0.3-0.3c0-0.1,0-0.1,0-0.2
			l1.4-5.7l0-0.2c0-0.1,0-0.2-0.5-0.2c-0.1,0-0.2,0-0.2-0.1c0-0.2,0.1-0.2,0.2-0.2c0.3,0,1-0.1,1.2-0.1c0.1,0,0.1,0.1,0.1,0.1
			L257.1,72.9z"/>
	</g>
	<g>
		<path d="M263.4,73.2C263.4,73.2,263.4,73.2,263.4,73.2c-0.6,0.6-1.3,1.5-1.3,3.4c0,1.3,0.3,2.5,1.3,3.3c0,0,0.1,0.1,0.1,0.1
			c0,0.1-0.1,0.1-0.1,0.1c-1.4-1-1.7-2.5-1.7-3.5c0-1.1,0.3-2.5,1.7-3.5C263.4,73.1,263.4,73.1,263.4,73.2z"/>
	</g>
	<g>
		<path d="M270.1,77.8c0,0,0,0.1,0,0.2c0,0.1,0,0.1,0.2,0.1c0.1,0,0.3,0,0.3,0c0.1,0,0.2,0,0.2,0.1c0,0.2-0.1,0.2-0.1,0.2
			c-0.2,0-0.7,0-0.9,0c-0.1,0-0.3,0-0.4,0s-0.3,0-0.4,0c-0.1,0-0.1-0.1-0.1-0.1c0-0.2,0.1-0.2,0.2-0.2c0.5,0,0.6-0.1,0.6-0.3l1-3.9
			l0,0l-2.9,4.3c0,0.1-0.1,0.2-0.2,0.2c-0.1,0-0.1-0.1-0.1-0.2l-0.7-4.2h0l-0.9,3.7c0,0.1,0,0.1,0,0.2c0,0.1,0,0.3,0.4,0.3
			c0.1,0,0.2,0,0.2,0.1c0,0.2-0.1,0.2-0.1,0.2c-0.2,0-0.6,0-0.7,0c-0.2,0-0.5,0-0.7,0c-0.1,0-0.1-0.1-0.1-0.1c0-0.1,0.1-0.2,0.1-0.2
			c0.6,0,0.7-0.3,0.7-0.5l0.9-3.5c0-0.1,0-0.1,0-0.2c0-0.1,0-0.1-0.2-0.1c-0.1,0-0.2,0-0.3,0c-0.2,0-0.2,0-0.2-0.1
			c0-0.2,0.1-0.2,0.2-0.2h1c0.2,0,0.2,0,0.2,0.2l0.7,3.9l2.7-4c0.1-0.1,0.1-0.1,0.3-0.1h0.9c0.1,0,0.2,0,0.2,0.1
			c0,0.1-0.1,0.1-0.2,0.1c-0.5,0-0.5,0.1-0.6,0.3L270.1,77.8z"/>
		<path d="M272.8,79.9c0,0.1-0.1,0.2-0.2,0.2c-0.1,0-0.2-0.1-0.2-0.2c0,0,0,0,0-0.1l2.6-6.5c0-0.1,0.1-0.2,0.2-0.2
			c0.1,0,0.2,0.1,0.2,0.2c0,0,0,0,0,0.1L272.8,79.9z"/>
	</g>
	<g>
		<path d="M279.3,78.3h-2.9c0-0.2,0-0.2,0.1-0.3l1.7-1.7c0.2-0.3,0.7-0.7,0.7-1.3c0-0.6-0.4-1.1-1.1-1.1c-0.3,0-0.8,0.2-1,0.6
			c0.4,0,0.4,0.2,0.4,0.4c0,0.3-0.2,0.4-0.4,0.4c-0.1,0-0.4,0-0.4-0.4c0-0.6,0.6-1.2,1.5-1.2c0.9,0,1.6,0.5,1.6,1.4
			c0,0.7-0.5,1.1-1,1.5c-0.4,0.3-0.7,0.5-1.4,1.2h1.3c0.1,0,0.6,0,0.7,0c0.1-0.1,0.2-0.5,0.2-0.6h0.2L279.3,78.3z"/>
		<path d="M282.2,76.6c0,0.8-0.2,1.6-0.5,2.1c-0.5,0.9-1.1,1.3-1.2,1.3c-0.1,0-0.1,0-0.1-0.1c0,0,0,0,0.1-0.2
			c0.8-0.7,1.2-1.8,1.2-3.2c0-1.8-0.7-2.7-1.3-3.3c0,0-0.1-0.1-0.1-0.1c0-0.1,0.1-0.1,0.1-0.1C281.9,74.1,282.2,75.6,282.2,76.6z"/>
	</g>
	<g>
		<path d="M284,76.7c-0.1,0-0.3,0-0.3-0.2c0-0.2,0.2-0.2,0.3-0.2h4.2c0.1,0,0.3,0,0.3,0.2c0,0.2-0.2,0.2-0.3,0.2H284z"/>
	</g>
	<g>
		<path d="M291.6,77.7c0,0.2,0,0.3,0.7,0.3h0.3v0.3c-0.2,0-1,0-1.2,0c-0.3,0-1.1,0-1.2,0v-0.3h0.3c0.7,0,0.7-0.1,0.7-0.3v-3.6
			c-0.4,0.2-0.8,0.2-1,0.2v-0.3c0.3,0,0.9,0,1.4-0.4c0.2,0,0.2,0,0.2,0.2V77.7z"/>
	</g>
	<line class="st1" x1="320.4" y1="96.1" x2="320.4" y2="78.4"/>
	<g>
		<path d="M135.5,10.2c0,0.1,0,0.2,0,0.2c0,0.2,0.1,0.2,0.4,0.2c0.3,0,0.4,0,0.6,0c0.3,0,0.3,0,0.3,0.1c0,0.2-0.1,0.2-0.2,0.2
			c-0.3,0-0.6,0-0.9,0c-0.3,0-0.5,0-0.8,0c-0.3,0-0.6,0-0.8,0c-0.3,0-0.5,0-0.8,0c-0.1,0-0.2,0-0.2-0.1c0-0.2,0.1-0.2,0.4-0.2
			c1.1,0,1.1-0.1,1.2-0.5l1.3-5.3c0,0,0-0.1,0-0.2c0-0.1,0-0.1-0.3-0.1h-0.4c-1.5,0-1.7,0.2-2.3,1.7c-0.1,0.2-0.1,0.2-0.2,0.2
			c-0.1,0-0.1,0-0.1-0.1c0,0,0-0.2,0.1-0.2l0.6-1.8c0.1-0.2,0.1-0.2,0.3-0.2h5.5c0.2,0,0.3,0,0.3,0.1c0,0,0,0.1,0,0.2l-0.3,1.7
			c0,0.1,0,0.2-0.1,0.2c-0.1,0-0.1-0.1-0.1-0.1c0,0,0-0.1,0-0.2c0-0.3,0.1-0.6,0.1-0.8c0-0.8-0.4-0.8-1.5-0.8c-0.2,0-0.5,0-0.6,0
			c-0.1,0-0.2,0.1-0.2,0.4L135.5,10.2z"/>
	</g>
	<polygon class="st1" points="125.6,7.5 125.6,14.6 146.8,14.6 146.8,0.4 125.6,0.4 	"/>
	<g>
		<path d="M135.5,38.6c0,0.1,0,0.2,0,0.2c0,0.2,0.1,0.2,0.4,0.2c0.3,0,0.4,0,0.6,0c0.3,0,0.3,0,0.3,0.1c0,0.2-0.1,0.2-0.2,0.2
			c-0.3,0-0.6,0-0.9,0c-0.3,0-0.5,0-0.8,0c-0.3,0-0.6,0-0.8,0c-0.3,0-0.5,0-0.8,0c-0.1,0-0.2,0-0.2-0.1c0-0.2,0.1-0.2,0.4-0.2
			c1.1,0,1.1-0.1,1.2-0.5l1.3-5.3c0,0,0-0.1,0-0.2c0-0.1,0-0.1-0.3-0.1h-0.4c-1.5,0-1.7,0.2-2.3,1.7c-0.1,0.2-0.1,0.2-0.2,0.2
			c-0.1,0-0.1,0-0.1-0.1c0,0,0-0.2,0.1-0.2l0.6-1.8c0.1-0.2,0.1-0.2,0.3-0.2h5.5c0.2,0,0.3,0,0.3,0.1c0,0,0,0.1,0,0.2l-0.3,1.7
			c0,0.1,0,0.2-0.1,0.2c-0.1,0-0.1-0.1-0.1-0.1c0,0,0-0.1,0-0.2c0-0.3,0.1-0.6,0.1-0.8c0-0.8-0.4-0.8-1.5-0.8c-0.2,0-0.5,0-0.6,0
			c-0.1,0-0.2,0.1-0.2,0.4L135.5,38.6z"/>
	</g>
	<polygon class="st1" points="125.6,35.9 125.6,42.9 146.8,42.9 146.8,28.8 125.6,28.8 	"/>
	<polyline points="98.2,33.6 93.7,35.9 98.2,38.1 97.1,35.9 	"/>
	<line class="st1" x1="125.6" y1="35.9" x2="97.1" y2="35.9"/>
	<polyline points="115.9,54.9 111.4,57.1 115.9,59.4 114.8,57.1 	"/>
	<line class="st1" x1="118.5" y1="57.1" x2="114.8" y2="57.1"/>
	<polyline points="121,9.8 125.6,7.5 121,5.2 122.2,7.5 	"/>
	<line class="st1" x1="93.7" y1="7.5" x2="122.2" y2="7.5"/>
	<polyline points="99.8,77.1 104.3,74.8 99.8,72.6 100.9,74.8 	"/>
	<line class="st1" x1="95.2" y1="74.8" x2="100.9" y2="74.8"/>
	<g>
		<path d="M107.9,99.4c-1.8,0-3.3-1.5-3.3-3.3c0-1.8,1.5-3.3,3.3-3.3c1.8,0,3.3,1.5,3.3,3.3C111.2,97.9,109.7,99.4,107.9,99.4z
			 M107.8,96v-2.9c-1.6,0.1-2.8,1.3-2.9,2.9H107.8z M107.8,96.2h-2.9c0.1,1.7,1.4,2.9,2.9,2.9V96.2z M108,96h2.9
			c-0.1-1.7-1.4-2.9-2.9-2.9V96z M108,96.2v2.9c1.5-0.1,2.8-1.2,2.9-2.9H108z"/>
	</g>
	<polyline points="62.8,93.8 58.2,96.1 62.8,98.4 61.6,96.1 	"/>
	<line class="st1" x1="104.3" y1="96.1" x2="61.6" y2="96.1"/>
	<polyline points="152.9,9.8 157.5,7.5 152.9,5.2 154.1,7.5 	"/>
	<line class="st1" x1="146.8" y1="7.5" x2="154.1" y2="7.5"/>
	<polyline points="151.4,33.6 146.8,35.9 151.4,38.1 150.2,35.9 	"/>
	<line class="st1" x1="157.5" y1="35.9" x2="150.2" y2="35.9"/>
	<polyline points="115.9,93.8 111.4,96.1 115.9,98.4 114.8,96.1 	"/>
	<line class="st1" x1="157.5" y1="96.1" x2="114.8" y2="96.1"/>
	<g>
		<path d="M107.9,60.5c-1.8,0-3.3-1.5-3.3-3.3c0-1.8,1.5-3.3,3.3-3.3c1.8,0,3.3,1.5,3.3,3.3C111.2,59,109.7,60.5,107.9,60.5z
			 M107.8,57v-2.9c-1.6,0.1-2.8,1.3-2.9,2.9H107.8z M107.8,57.3h-2.9c0.1,1.7,1.4,2.9,2.9,2.9V57.3z M108,57h2.9
			c-0.1-1.7-1.4-2.9-2.9-2.9V57z M108,57.3v2.9c1.5-0.1,2.8-1.2,2.9-2.9H108z"/>
	</g>
	<line class="st1" x1="118.5" y1="35.9" x2="118.5" y2="57.1"/>
	<polyline points="105.6,49 107.9,53.6 110.1,49 107.9,50.2 	"/>
	<line class="st1" x1="107.9" y1="39.4" x2="107.9" y2="50.2"/>
	<polyline points="105.6,66.8 107.9,71.3 110.1,66.8 107.9,67.9 	"/>
	<line class="st1" x1="107.9" y1="60.7" x2="107.9" y2="67.9"/>
	<g>
		<path d="M107.9,78.2c-1.8,0-3.3-1.5-3.3-3.3c0-1.8,1.5-3.3,3.3-3.3c1.8,0,3.3,1.5,3.3,3.3C111.2,76.7,109.7,78.2,107.9,78.2z
			 M107.7,74.9l-2.1-2.1c-0.5,0.6-0.8,1.3-0.8,2.1c0,0.6,0.2,1.4,0.8,2.1L107.7,74.9z M107.9,75l-2.1,2.1c0.8,0.8,1.7,0.8,2.1,0.8
			c1.3,0,2.1-0.8,2.1-0.8c0,0-0.1-0.1-0.1-0.1L107.9,75z M107.9,74.7l2.1-2.1c-0.8-0.8-1.7-0.8-2.1-0.8c-1.3,0-2.1,0.8-2.1,0.8
			c0,0,0.1,0.1,0.1,0.1L107.9,74.7z M108.1,74.9l2.1,2.1c0.5-0.6,0.8-1.3,0.8-2.1c0-0.8-0.3-1.6-0.8-2.1L108.1,74.9z"/>
	</g>
	<polyline points="105.6,88 107.9,92.6 110.1,88 107.9,89.1 	"/>
	<path class="st1" d="M107.9,78.4v10.8 M107.9,32.3c0,0,3.5,1.9,3.5,3.5c0,1.7-3.5,3.5-3.5,3.5l0,0 M107.9,32.3V7.5"/>
	<g>
		<path d="M231.9,60.5c-1.8,0-3.3-1.5-3.3-3.3c0-1.8,1.5-3.3,3.3-3.3c1.8,0,3.3,1.5,3.3,3.3C235.2,59,233.7,60.5,231.9,60.5z
			 M231.8,57v-2.9c-1.6,0.1-2.8,1.3-2.9,2.9H231.8z M231.8,57.3h-2.9c0.1,1.7,1.4,2.9,2.9,2.9V57.3z M232,57h3
			c-0.1-1.7-1.4-2.9-3-2.9V57z M232,57.3v2.9c1.5-0.1,2.9-1.2,3-2.9H232z"/>
	</g>
	<line class="st1" x1="242.5" y1="35.9" x2="242.5" y2="57.1"/>
	<polyline points="229.6,49 231.9,53.6 234.1,49 231.9,50.2 	"/>
	<line class="st1" x1="231.9" y1="39.4" x2="231.9" y2="50.2"/>
	<polyline points="229.6,66.8 231.9,71.3 234.1,66.8 231.9,67.9 	"/>
	<line class="st1" x1="231.9" y1="60.7" x2="231.9" y2="67.9"/>
	<g>
		<path d="M231.9,78.2c-1.8,0-3.3-1.5-3.3-3.3c0-1.8,1.5-3.3,3.3-3.3c1.8,0,3.3,1.5,3.3,3.3C235.2,76.7,233.7,78.2,231.9,78.2z
			 M231.7,74.9l-2.1-2.1c-0.5,0.6-0.8,1.3-0.8,2.1c0,0.6,0.2,1.4,0.8,2.1L231.7,74.9z M231.9,75l-2.1,2.1c0.8,0.8,1.7,0.8,2.1,0.8
			c1.3,0,2.1-0.8,2.1-0.8c0,0-0.1-0.1-0.1-0.1L231.9,75z M231.9,74.7l2.1-2.1c-0.8-0.8-1.7-0.8-2.1-0.8c-1.3,0-2.1,0.8-2.1,0.8
			c0,0,0.1,0.1,0.1,0.1L231.9,74.7z M232.1,74.9l2.1,2.1c0.5-0.6,0.8-1.3,0.8-2.1c0-0.8-0.3-1.6-0.8-2.1L232.1,74.9z"/>
	</g>
	<polyline points="229.6,88 231.9,92.6 234.1,88 231.9,89.1 	"/>
	<path class="st1" d="M231.9,78.4v10.8 M231.9,32.3c0,0,3.5,1.9,3.5,3.5c0,1.7-3.5,3.5-3.5,3.5l0,0 M231.9,32.3V7.5"/>
	<g>
		<path d="M231.9,99.4c-1.8,0-3.3-1.5-3.3-3.3c0-1.8,1.5-3.3,3.3-3.3c1.8,0,3.3,1.5,3.3,3.3C235.2,97.9,233.7,99.4,231.9,99.4z
			 M231.8,96v-2.9c-1.6,0.1-2.8,1.3-2.9,2.9H231.8z M231.8,96.2h-2.9c0.1,1.7,1.4,2.9,2.9,2.9V96.2z M232,96h3
			c-0.1-1.7-1.4-2.9-3-2.9V96z M232,96.2v2.9c1.5-0.1,2.9-1.2,3-2.9H232z"/>
	</g>
	<polyline points="211.6,93.8 207.1,96.1 211.6,98.4 210.5,96.1 	"/>
	<line class="st1" x1="228.3" y1="96.1" x2="210.5" y2="96.1"/>
	<polyline points="222.3,77.1 226.8,74.8 222.3,72.6 223.4,74.8 	"/>
	<line class="st1" x1="217.7" y1="74.8" x2="223.4" y2="74.8"/>
	<polyline points="239.9,54.9 235.4,57.1 239.9,59.4 238.8,57.1 	"/>
	<line class="st1" x1="242.5" y1="57.1" x2="238.8" y2="57.1"/>
	<g>
		<path d="M168.6,72.9c0.4-0.5,0.8-0.8,1.5-0.8c0.7,0,1.1,0.4,1.1,1.1c0,0.6-0.4,1.8-0.6,2.2c-0.1,0.2-0.2,0.5-0.2,0.7
			c0,0.2,0.1,0.3,0.2,0.3c0.5,0,0.9-0.7,1-1.2c0-0.1,0-0.2,0.1-0.2c0,0,0.1,0,0.1,0.1c0,0.1-0.4,1.5-1.3,1.5c-0.5,0-0.8-0.3-0.8-0.8
			c0-0.2,0-0.3,0.1-0.5c0.2-0.6,0.6-1.7,0.6-2.2c0-0.4-0.1-0.7-0.5-0.7s-0.7,0.2-1,0.3c-0.3,0.3-0.6,0.8-0.7,0.9
			c0,0.1-0.1,0.4-0.1,0.4c0,0.2-0.1,0.4-0.2,0.7l-0.2,0.9l-0.2,0.8c0,0.1-0.2,0.3-0.4,0.3c-0.1,0-0.3,0-0.3-0.3c0-0.1,0-0.1,0-0.2
			l1.4-5.7l0-0.2c0-0.1,0-0.2-0.5-0.2c-0.1,0-0.2,0-0.2-0.1c0-0.2,0.1-0.2,0.2-0.2c0.3,0,1-0.1,1.2-0.1c0.1,0,0.1,0.1,0.1,0.1
			L168.6,72.9z"/>
	</g>
	<g>
		<path d="M174.9,73.2C174.9,73.2,174.8,73.2,174.9,73.2c-0.6,0.6-1.3,1.5-1.3,3.4c0,1.3,0.3,2.5,1.3,3.3c0,0,0.1,0.1,0.1,0.1
			c0,0.1-0.1,0.1-0.1,0.1c-1.4-1-1.7-2.5-1.7-3.5c0-1.1,0.3-2.5,1.7-3.5C174.8,73.1,174.9,73.1,174.9,73.2z"/>
	</g>
	<g>
		<path d="M181.6,77.8c0,0,0,0.1,0,0.2c0,0.1,0,0.1,0.2,0.1c0.1,0,0.3,0,0.3,0c0.1,0,0.2,0,0.2,0.1c0,0.2-0.1,0.2-0.1,0.2
			c-0.2,0-0.7,0-0.9,0c-0.1,0-0.3,0-0.4,0s-0.3,0-0.4,0c-0.1,0-0.1-0.1-0.1-0.1c0-0.2,0.1-0.2,0.2-0.2c0.5,0,0.6-0.1,0.6-0.3l1-3.9
			l0,0l-2.9,4.3c0,0.1-0.1,0.2-0.2,0.2c-0.1,0-0.1-0.1-0.1-0.2l-0.7-4.2h0l-0.9,3.7c0,0.1,0,0.1,0,0.2c0,0.1,0,0.3,0.4,0.3
			c0.1,0,0.2,0,0.2,0.1c0,0.2-0.1,0.2-0.1,0.2c-0.2,0-0.6,0-0.7,0c-0.2,0-0.5,0-0.7,0c-0.1,0-0.1-0.1-0.1-0.1c0-0.1,0.1-0.2,0.1-0.2
			c0.6,0,0.7-0.3,0.7-0.5l0.9-3.5c0-0.1,0-0.1,0-0.2c0-0.1,0-0.1-0.2-0.1c-0.1,0-0.2,0-0.3,0c-0.2,0-0.2,0-0.2-0.1
			c0-0.2,0.1-0.2,0.2-0.2h1c0.2,0,0.2,0,0.2,0.2l0.7,3.9l2.7-4c0.1-0.1,0.1-0.1,0.3-0.1h0.9c0.1,0,0.2,0,0.2,0.1
			c0,0.1-0.1,0.1-0.2,0.1c-0.5,0-0.5,0.1-0.6,0.3L181.6,77.8z"/>
		<path d="M184.2,79.9c0,0.1-0.1,0.2-0.2,0.2c-0.1,0-0.2-0.1-0.2-0.2c0,0,0,0,0-0.1l2.6-6.5c0-0.1,0.1-0.2,0.2-0.2
			c0.1,0,0.2,0.1,0.2,0.2c0,0,0,0,0,0.1L184.2,79.9z"/>
	</g>
	<g>
		<path d="M190.7,78.3h-2.9c0-0.2,0-0.2,0.1-0.3l1.7-1.7c0.2-0.3,0.7-0.7,0.7-1.3c0-0.6-0.4-1.1-1.1-1.1c-0.3,0-0.8,0.2-1,0.6
			c0.4,0,0.4,0.2,0.4,0.4c0,0.3-0.2,0.4-0.4,0.4c-0.1,0-0.4,0-0.4-0.4c0-0.6,0.6-1.2,1.5-1.2c0.9,0,1.6,0.5,1.6,1.4
			c0,0.7-0.5,1.1-1,1.5c-0.4,0.3-0.7,0.5-1.4,1.2h1.3c0.1,0,0.6,0,0.7,0c0.1-0.1,0.2-0.5,0.2-0.6h0.2L190.7,78.3z"/>
		<path d="M193.6,76.6c0,0.8-0.2,1.6-0.5,2.1c-0.5,0.9-1.1,1.3-1.2,1.3c-0.1,0-0.1,0-0.1-0.1c0,0,0,0,0.1-0.2
			c0.8-0.7,1.2-1.8,1.2-3.2c0-1.8-0.7-2.7-1.3-3.3c0,0-0.1-0.1-0.1-0.1c0-0.1,0.1-0.1,0.1-0.1C193.3,74.1,193.6,75.6,193.6,76.6z"/>
	</g>
	<g>
		<path d="M195.5,76.7c-0.1,0-0.3,0-0.3-0.2c0-0.2,0.2-0.2,0.3-0.2h4.2c0.1,0,0.3,0,0.3,0.2c0,0.2-0.2,0.2-0.3,0.2H195.5z"/>
	</g>
	<g>
		<path d="M204,78.3h-2.9c0-0.2,0-0.2,0.1-0.3l1.7-1.7c0.2-0.3,0.7-0.7,0.7-1.3c0-0.6-0.4-1.1-1.1-1.1c-0.3,0-0.8,0.2-1,0.6
			c0.4,0,0.4,0.2,0.4,0.4c0,0.3-0.2,0.4-0.4,0.4c-0.1,0-0.4,0-0.4-0.4c0-0.6,0.6-1.2,1.5-1.2c0.9,0,1.6,0.5,1.6,1.4
			c0,0.7-0.5,1.1-1,1.5c-0.4,0.3-0.7,0.5-1.4,1.2h1.3c0.1,0,0.6,0,0.7,0c0.1-0.1,0.2-0.5,0.2-0.6h0.2L204,78.3z"/>
	</g>
	<g>
		<path d="M82.4,10.2c0,0.1,0,0.2,0,0.2c0,0.2,0.1,0.2,0.4,0.2c0.3,0,0.4,0,0.6,0c0.3,0,0.3,0,0.3,0.1c0,0.2-0.1,0.2-0.2,0.2
			c-0.3,0-0.6,0-0.9,0c-0.3,0-0.5,0-0.8,0c-0.3,0-0.6,0-0.8,0c-0.3,0-0.5,0-0.8,0c-0.1,0-0.2,0-0.2-0.1c0-0.2,0.1-0.2,0.4-0.2
			c1.1,0,1.1-0.1,1.2-0.5l1.3-5.3c0,0,0-0.1,0-0.2c0-0.1,0-0.1-0.3-0.1h-0.4c-1.5,0-1.7,0.2-2.3,1.7c-0.1,0.2-0.1,0.2-0.2,0.2
			c-0.1,0-0.1,0-0.1-0.1c0,0,0-0.2,0.1-0.2l0.6-1.8c0.1-0.2,0.1-0.2,0.3-0.2h5.5c0.2,0,0.3,0,0.3,0.1c0,0,0,0.1,0,0.2l-0.3,1.7
			c0,0.1,0,0.2-0.1,0.2c-0.1,0-0.1-0.1-0.1-0.1c0,0,0-0.1,0-0.2C86,5.9,86,5.5,86,5.4c0-0.8-0.4-0.8-1.5-0.8c-0.2,0-0.5,0-0.6,0
			c-0.1,0-0.2,0.1-0.2,0.4L82.4,10.2z"/>
	</g>
	<polygon class="st1" points="72.4,7.5 72.4,14.6 93.7,14.6 93.7,0.4 72.4,0.4 	"/>
	<g>
		<path d="M54.7,60.5c-1.8,0-3.3-1.5-3.3-3.3c0-1.8,1.5-3.3,3.3-3.3c1.8,0,3.3,1.5,3.3,3.3C58.1,59,56.6,60.5,54.7,60.5z M54.6,57
			v-2.9c-1.6,0.1-2.8,1.3-2.9,2.9H54.6z M54.6,57.3h-2.9c0.1,1.7,1.4,2.9,2.9,2.9V57.3z M54.9,57h2.9c-0.1-1.7-1.4-2.9-2.9-2.9V57z
			 M54.9,57.3v2.9c1.5-0.1,2.8-1.2,2.9-2.9H54.9z"/>
	</g>
	<g>
		<path d="M82.4,38.6c0,0.1,0,0.2,0,0.2c0,0.2,0.1,0.2,0.4,0.2c0.3,0,0.4,0,0.6,0c0.3,0,0.3,0,0.3,0.1c0,0.2-0.1,0.2-0.2,0.2
			c-0.3,0-0.6,0-0.9,0c-0.3,0-0.5,0-0.8,0c-0.3,0-0.6,0-0.8,0c-0.3,0-0.5,0-0.8,0c-0.1,0-0.2,0-0.2-0.1c0-0.2,0.1-0.2,0.4-0.2
			c1.1,0,1.1-0.1,1.2-0.5l1.3-5.3c0,0,0-0.1,0-0.2c0-0.1,0-0.1-0.3-0.1h-0.4c-1.5,0-1.7,0.2-2.3,1.7c-0.1,0.2-0.1,0.2-0.2,0.2
			c-0.1,0-0.1,0-0.1-0.1c0,0,0-0.2,0.1-0.2l0.6-1.8c0.1-0.2,0.1-0.2,0.3-0.2h5.5c0.2,0,0.3,0,0.3,0.1c0,0,0,0.1,0,0.2l-0.3,1.7
			c0,0.1,0,0.2-0.1,0.2c-0.1,0-0.1-0.1-0.1-0.1c0,0,0-0.1,0-0.2c0-0.3,0.1-0.6,0.1-0.8c0-0.8-0.4-0.8-1.5-0.8c-0.2,0-0.5,0-0.6,0
			c-0.1,0-0.2,0.1-0.2,0.4L82.4,38.6z"/>
	</g>
	<path class="st1" d="M72.4,35.9v7.1h21.3V28.8H72.4V35.9z M72.4,35.9h-7.1 M65.3,35.9v21.3"/>
	<polyline points="62.8,54.9 58.2,57.1 62.8,59.4 61.6,57.1 	"/>
	<line class="st1" x1="65.3" y1="57.1" x2="61.6" y2="57.1"/>
	<polyline points="52.4,49 54.7,53.6 57,49 54.7,50.2 	"/>
	<line class="st1" x1="54.7" y1="7.5" x2="54.7" y2="50.2"/>
	<polyline points="67.9,9.8 72.4,7.5 67.9,5.2 69,7.5 	"/>
	<line class="st1" x1="22.8" y1="7.5" x2="69" y2="7.5"/>
	<polyline points="52.4,66.8 54.7,71.3 57,66.8 54.7,67.9 	"/>
	<line class="st1" x1="54.7" y1="60.7" x2="54.7" y2="67.9"/>
	<g>
		<path d="M54.7,78.2c-1.8,0-3.3-1.5-3.3-3.3c0-1.8,1.5-3.3,3.3-3.3c1.8,0,3.3,1.5,3.3,3.3C58.1,76.7,56.6,78.2,54.7,78.2z
			 M54.5,74.9l-2.1-2.1c-0.5,0.6-0.8,1.3-0.8,2.1c0,0.6,0.2,1.4,0.8,2.1L54.5,74.9z M54.7,75l-2.1,2.1c0.8,0.8,1.7,0.8,2.1,0.8
			c1.3,0,2.1-0.8,2.1-0.8c0,0-0.1-0.1-0.1-0.1L54.7,75z M54.7,74.7l2.1-2.1c-0.8-0.8-1.7-0.8-2.1-0.8c-1.3,0-2.1,0.8-2.1,0.8
			c0,0,0.1,0.1,0.1,0.1L54.7,74.7z M54.9,74.9l2.1,2.1c0.5-0.6,0.8-1.3,0.8-2.1c0-0.8-0.3-1.6-0.8-2.1L54.9,74.9z"/>
	</g>
	<polyline points="46.6,77.1 51.2,74.8 46.6,72.6 47.8,74.8 	"/>
	<line class="st1" x1="42" y1="74.8" x2="47.8" y2="74.8"/>
	<polyline points="52.4,88 54.7,92.6 57,88 54.7,89.1 	"/>
	<line class="st1" x1="54.7" y1="78.4" x2="54.7" y2="89.1"/>
	<g>
		<path d="M54.7,99.4c-1.8,0-3.3-1.5-3.3-3.3c0-1.8,1.5-3.3,3.3-3.3c1.8,0,3.3,1.5,3.3,3.3C58.1,97.9,56.6,99.4,54.7,99.4z M54.6,96
			v-2.9c-1.6,0.1-2.8,1.3-2.9,2.9H54.6z M54.6,96.2h-2.9c0.1,1.7,1.4,2.9,2.9,2.9V96.2z M54.9,96h2.9c-0.1-1.7-1.4-2.9-2.9-2.9V96z
			 M54.9,96.2v2.9c1.5-0.1,2.8-1.2,2.9-2.9H54.9z"/>
	</g>
	<polyline points="27.3,93.8 22.8,96.1 27.3,98.4 26.2,96.1 	"/>
	<line class="st1" x1="51.2" y1="96.1" x2="26.2" y2="96.1"/>
</g>
</svg>
