<?xml version="1.0" encoding="utf-8"?>
<!-- Generator: Adobe Illustrator 22.1.0, SVG Export Plug-In . SVG Version: 6.00 Build 0)  -->
<svg version="1.1" id="Layer_1" xmlns="http://www.w3.org/2000/svg" xmlns:xlink="http://www.w3.org/1999/xlink" x="0px" y="0px"
	 viewBox="0 0 178.4 121.8" style="enable-background:new 0 0 178.4 121.8;" xml:space="preserve">
<style type="text/css">
	.st0{fill:none;stroke:#000000;stroke-width:0.8504;stroke-miterlimit:10;}
	.st1{fill:none;stroke:#00FF00;stroke-width:1.7008;stroke-miterlimit:10;}
	.st2{fill:#1D1D1B;}
	.st3{fill:none;stroke:#000000;stroke-width:0.2835;stroke-miterlimit:10;}
	.st4{fill:none;stroke:#000000;stroke-width:1.7008;stroke-miterlimit:10;}
</style>
<g>
	<polyline points="154.9,71 159.4,68.7 154.9,66.4 156,68.7 	"/>
	<path class="st0" d="M0,68.7h156 M101.3,68.7L101.3,68.7c0-26.6-21.6-48.2-48.2-48.2S5,42.1,5,68.7s21.6,48.2,48.2,48.2
		S101.3,95.3,101.3,68.7L101.3,68.7z"/>
	<polyline points="55.4,16.5 53.1,12 50.9,16.5 53.1,15.4 	"/>
	<line class="st0" x1="53.1" y1="121.8" x2="53.1" y2="15.4"/>
	<path class="st1" d="M148.8,68.7L148.8,68.7c0-2-1.6-3.5-3.5-3.5s-3.5,1.6-3.5,3.5c0,2,1.6,3.5,3.5,3.5S148.8,70.6,148.8,68.7
		L148.8,68.7z"/>
	<path d="M172.2,65.2c-0.1-0.1-0.1-0.1-0.2-0.1c-0.7,0-1.9,0.3-2.4,1.1c-0.1-0.3-0.6-1-1.4-1c-0.7,0-1.1,0.6-1.1,1.2
		c0,0.4,0.2,0.6,0.5,0.9c0.6,0.6,0.6,0.7,0.6,1.1c0,0.6-0.1,1.2-0.5,1.2c-0.3,0-0.3-0.4-0.3-0.5c0-0.1,0-0.2-0.1-0.2
		s-0.1,0.1-0.1,0.1c0,0.2,0.1,0.8,0.6,0.8c0.8,0,0.8-1.3,0.8-1.5c0-0.3,0-0.7-0.7-1.3c-0.3-0.2-0.4-0.4-0.4-0.6c0-0.4,0.3-1,0.8-1
		s0.9,0.8,0.9,1.9v2.9c0,0.1,0,1.9-0.6,1.9c-0.4,0-0.7-0.3-0.9-0.9c0,0,0.2-0.1,0.2-0.2c0-0.1-0.1-0.1-0.1-0.1c0,0-0.2,0-0.2,0.1
		c0-0.1-0.1-0.2-0.1-0.2c-0.1,0-0.1,0.1-0.1,0.1c0,0,0,0.1,0,0.1c-0.1,0-0.2,0.1-0.2,0.1c0,0,0.1,0.1,0.1,0.1c0,0,0.1,0,0.2-0.1
		c0.3,0.9,0.8,1.1,1.2,1.1c0.7,0,1.5-0.9,1.5-2.9v-0.7h1.1l0.1,2.2c0,0.1,0,0.1,0,0.3c0,0.6,0.5,1.1,1.2,1.1c0.1,0,0.1,0,0.3-0.1
		l0.7-0.6c0.1-0.1,0.1-0.1,0.1-0.1c0-0.1-0.2-0.1-0.2-0.1c0,0-0.4,0.3-0.9,0.7c-0.3-0.2-0.5-0.5-0.5-0.8c0-0.2,0-0.2,0-0.3
		c0-0.3,0-0.8-0.1-1.1c0-0.2-0.1-1-0.1-1.1c0.6-0.2,1.6-0.8,1.7-0.8c0,0,0,0,0-0.1c0,0-0.1-0.1-0.1-0.1L172.2,65.2z M172.8,67.9
		c-0.9,0.5-1.1,0.5-1.4,0.5H170v-0.5c0-0.7-0.1-1.1-0.2-1.4c0.3-1,1.6-1.1,1.6-1.1c0,0,0.1,0.1,0.1,0.1L172.8,67.9z"/>
	<g>
		<path class="st2" d="M175.1,69.9c-0.1,0.6-0.2,0.9-0.2,1c0,0.3,0.1,1.2,0.9,1.2c0.1,0,1.2,0,2-1c0.1-0.1,0.1-0.1,0.1-0.1
			c0.1,0,0.1,0.1,0.1,0.1c0,0.1-0.8,1.2-2.3,1.2c-1,0-1.6-0.8-1.6-1.8c0-1.7,1.5-2.7,2.6-2.7c0.7,0,1.1,0.4,1.1,0.8
			c0,0.1,0,0.7-0.7,1c-0.5,0.2-1.2,0.2-1.5,0.2H175.1z M175.5,69.7c0.4,0,2,0,2-1c0-0.3-0.3-0.6-0.7-0.6c-0.3,0-1.3,0.1-1.7,1.7
			H175.5z"/>
	</g>
	<path d="M48.1,5C48.1,5,48,4.9,48,4.9c-1.5-0.1-1.9-1.1-1.9-1.7c0-1,0.9-1.7,1.8-1.7c0.6,0,0.9,0.4,1.3,0.9
		c0.4,0.6,0.9,1.2,1.8,1.2c0.7,0,1.1-0.3,1.1-0.7c0-0.1-0.1-0.1-0.2-0.1c-0.1,0-0.1,0-0.1,0.1C51.7,3.4,51,3.4,51,3.4
		c-0.1,0-0.2,0-0.4-0.3c-0.9-1.7-2.3-1.8-2.7-1.8c-1.2,0-2.2,0.8-2.2,1.9c0,1.2,1.2,1.9,2.1,1.9C48,5.2,48.1,5.2,48.1,5L48.1,5z
		 M46,6.6c-0.2,0-0.3,0-0.3,0.1c0,0,0,0.1,0.1,0.1c0.3,0,0.7,0,1.4,0.7c1.1,1,1.3,1,2.1,1c0.5,0,0.9,0,1.4-0.3
		c0.3-0.2,0.6-0.6,0.6-1.1c0-0.4-0.1-0.6-0.5-1c-0.4-0.4-0.4-0.6-0.4-0.8c0-0.4,0.1-0.9,0.5-0.9c0,0,0.7,0,0.8,0.7
		c0,0.1,0,0.1,0.1,0.1s0.2,0,0.2-0.1c0-0.4-0.4-0.9-1.2-0.9c-0.7,0-1.3,0.5-1.3,1.1c0,0.4,0.2,0.6,0.5,1c0.4,0.4,0.4,0.6,0.4,0.8
		c0,0.9-1,1.3-1.2,1.3c-0.1,0-0.3-0.1-0.7-0.3c-0.2-0.1-0.5-0.4-0.5-0.4c-0.7-0.7-1.1-1-1.8-1H46z"/>
	<g>
		<path class="st2" d="M53.9,5.5C54,5,54,4.9,54,4.7c0-0.4-0.1-0.5-0.3-0.5c-0.4,0-0.6,0.5-0.7,1.2c-0.1,0.2-0.1,0.2-0.2,0.2
			c0,0-0.1,0-0.1-0.1c0,0,0.1-0.6,0.3-1C53.1,4.4,53.3,4,53.8,4c0.4,0,0.9,0.3,0.9,0.9C54.8,4.6,55.3,4,56.2,4c0.2,0,0.6,0,0.8,0.3
			c0.3,0.2,0.3,0.6,0.3,0.7c0.4-0.5,0.9-1,1.6-1c0.7,0,1.1,0.4,1.1,1.1c0,0.6-0.4,1.7-0.6,2.2c-0.1,0.2-0.2,0.5-0.2,0.7
			c0,0.2,0.1,0.3,0.2,0.3c0.5,0,0.9-0.7,1-1.2c0-0.1,0-0.2,0.1-0.2c0,0,0.1,0,0.1,0.1c0,0.1-0.4,1.5-1.3,1.5c-0.5,0-0.8-0.3-0.8-0.8
			c0-0.2,0-0.3,0.1-0.5c0.2-0.5,0.6-1.7,0.6-2.2c0-0.4-0.1-0.7-0.5-0.7c-1.1,0-1.6,1.2-1.6,1.3c-0.1,0.4-0.5,1.8-0.6,2.4
			c-0.1,0.3-0.1,0.6-0.4,0.6c-0.1,0-0.3-0.1-0.3-0.3c0-0.1,0.1-0.4,0.1-0.6l0.2-0.8l0.3-1.2c0.1-0.3,0.1-0.6,0.1-0.8
			c0-0.3-0.1-0.7-0.5-0.7c-0.9,0-1.5,0.9-1.6,1.2c0,0-0.1,0.3-0.1,0.5c0,0.2-0.1,0.4-0.2,0.7l-0.2,0.9c-0.1,0.2-0.2,0.7-0.2,0.7
			c-0.1,0.2-0.2,0.3-0.4,0.3c-0.1,0-0.3-0.1-0.3-0.3c0-0.1,0.1-0.3,0.1-0.4L53.9,5.5z"/>
	</g>
	<g>
		<path class="st2" d="M107,10.7h1.2c1.2,0,1.4-0.4,1.5-1.6h0.2l-0.2,1.9h-3.3c-0.2,0-0.3,0-0.3-0.1c0,0,0-0.1,0.1-0.2l2.8-3.8h-1.1
			c-1.1,0-1.3,0.4-1.3,1.4h-0.2l0.1-1.6h3.2c0.2,0,0.3,0,0.3,0.1c0,0,0,0.1-0.1,0.2L107,10.7z"/>
	</g>
	<g>
		<path class="st2" d="M111.5,8.7c-0.2,0-0.3,0-0.3-0.2c0-0.2,0.2-0.2,0.3-0.2h5.4c0.2,0,0.3,0,0.3,0.2c0,0.2-0.2,0.2-0.3,0.2H111.5
			z"/>
	</g>
	<g>
		<path class="st2" d="M119.7,7.8c0-0.2,0.1-0.3,0.1-0.5c0-0.4-0.1-0.5-0.3-0.5c-0.4,0-0.6,0.5-0.7,1.2c-0.1,0.2-0.1,0.2-0.2,0.2
			c0,0-0.1,0-0.1-0.1c0,0,0.1-0.6,0.3-1c0.1-0.2,0.3-0.6,0.7-0.6c0.4,0,0.8,0.2,0.9,0.7c0.3-0.4,0.8-0.7,1.3-0.7
			c0.8,0,1.3,0.7,1.3,1.6c0,1.5-1.2,2.9-2.4,2.9c-0.5,0-0.8-0.3-0.9-0.6c-0.1,0.2-0.5,1.9-0.5,2c0,0.1,0,0.2,0.5,0.2
			c0.1,0,0.2,0,0.2,0.1c0,0.2-0.1,0.2-0.2,0.2c-0.3,0-0.7,0-1,0c-0.3,0-0.6,0-0.8,0c-0.1,0-0.1,0-0.1-0.1c0-0.2,0.1-0.2,0.2-0.2
			c0.4,0,0.5-0.1,0.5-0.4L119.7,7.8z M119.8,9.8c0,0.1,0,0.1,0,0.2c0,0.1,0.1,0.9,0.8,0.9c0.4,0,0.8-0.3,1.2-1
			c0.2-0.4,0.5-1.5,0.5-2.1s-0.2-0.9-0.6-0.9c-0.2,0-0.5,0.1-0.8,0.4c-0.2,0.1-0.4,0.4-0.5,0.7L119.8,9.8z"/>
		<path class="st2" d="M124.3,9.9c0,0.2-0.1,0.2-0.1,0.5c0,0.1,0,0.5,0.3,0.5c0.4,0,0.6-0.6,0.8-1.2c0-0.1,0-0.2,0.1-0.2
			c0,0,0.1,0,0.1,0.1c0,0-0.1,0.6-0.3,1c-0.2,0.4-0.4,0.6-0.7,0.6c-0.5,0-0.9-0.3-0.9-0.9c0-0.2,0-0.2,0-0.3l1.3-5l0-0.2
			c0-0.1,0-0.2-0.5-0.2c-0.1,0-0.2,0-0.2-0.1c0-0.2,0.1-0.2,0.2-0.2c0.3,0,1-0.1,1.2-0.1c0.1,0,0.1,0.1,0.1,0.1L124.3,9.9z"/>
	</g>
	<g>
		<path class="st2" d="M130.5,6.8c0.2,0,0.3,0.1,0.3,0.3c0,0,0,0.1-0.1,0.3l-0.4,1.4c-0.1,0.4-0.1,0.5-0.2,0.9
			c-0.1,0.4-0.1,0.5-0.1,0.7c0,0.2,0,0.5,0.3,0.5c0.4,0,0.6-0.6,0.8-1.2c0-0.1,0-0.2,0.1-0.2c0,0,0.1,0,0.1,0.1c0,0-0.1,0.6-0.3,1
			c-0.2,0.3-0.4,0.5-0.7,0.5c-0.5,0-0.8-0.3-0.9-0.7c-0.6,0.7-1.1,0.7-1.3,0.7c-0.8,0-1.3-0.7-1.3-1.6c0-1.5,1.2-2.9,2.4-2.9
			c0.4,0,0.7,0.3,0.9,0.6C130.2,7,130.3,6.8,130.5,6.8z M130,7.8c0,0,0-0.1,0-0.2c0-0.1-0.1-0.9-0.8-0.9c-0.4,0-0.8,0.4-1.2,1
			c-0.2,0.5-0.5,1.7-0.5,2.2c0,0.4,0.1,0.9,0.6,0.9c0.3,0,0.7-0.2,1.1-0.7c0.2-0.2,0.2-0.2,0.2-0.4L130,7.8z"/>
		<path class="st2" d="M133.1,8.1c0.1-0.5,0.2-0.6,0.2-0.8c0-0.3-0.1-0.5-0.3-0.5c-0.4,0-0.6,0.5-0.7,1.2c-0.1,0.2-0.1,0.2-0.2,0.2
			c0,0-0.1,0-0.1-0.1c0,0,0.1-0.6,0.3-1c0.1-0.2,0.3-0.6,0.7-0.6c0.5,0,0.9,0.3,0.9,0.9c0.2-0.2,0.7-0.9,1.6-0.9
			c0.7,0,1.1,0.4,1.1,1.1c0,0.6-0.4,1.7-0.6,2.2c-0.1,0.2-0.2,0.5-0.2,0.7c0,0.2,0.1,0.3,0.2,0.3c0.5,0,0.8-0.6,1-1.2
			c0-0.1,0-0.2,0.1-0.2c0,0,0.1,0,0.1,0.1c0,0.1-0.4,1.5-1.3,1.5c-0.5,0-0.8-0.3-0.8-0.8c0-0.1,0-0.2,0.1-0.5
			c0.2-0.4,0.6-1.7,0.6-2.3c0-0.3-0.1-0.7-0.5-0.7c-0.9,0-1.5,0.9-1.6,1.2c0,0-0.1,0.3-0.1,0.5c0,0.2-0.1,0.4-0.2,0.7l-0.2,0.9
			c-0.1,0.2-0.2,0.7-0.2,0.7c-0.1,0.2-0.2,0.3-0.4,0.3c-0.1,0-0.3-0.1-0.3-0.3c0-0.1,0.1-0.3,0.1-0.4L133.1,8.1z"/>
	</g>
	<g>
		<path class="st2" d="M139,8.7c-0.1,0.6-0.2,0.9-0.2,1c0,0.3,0.1,1.2,0.9,1.2c0.1,0,1.2,0,2-1c0.1-0.1,0.1-0.1,0.1-0.1
			c0.1,0,0.1,0.1,0.1,0.1c0,0.1-0.8,1.2-2.3,1.2c-1,0-1.6-0.8-1.6-1.8c0-1.7,1.5-2.7,2.6-2.7c0.7,0,1.1,0.4,1.1,0.8
			c0,0.1,0,0.7-0.7,1c-0.5,0.2-1.2,0.2-1.5,0.2H139z M139.5,8.5c0.4,0,2,0,2-1c0-0.3-0.3-0.6-0.7-0.6c-0.3,0-1.3,0.1-1.7,1.7H139.5z
			"/>
	</g>
	<polyline points="102.4,1 145.5,1 145.5,0.5 102.4,0.5 	"/>
	<polyline points="102.4,16.1 102.9,16.1 102.9,0.9 102.4,0.9 	"/>
	<polyline points="145,16.1 145.5,16.1 145.5,0.9 145,0.9 	"/>
	<polyline points="102.4,16.4 145.5,16.4 145.5,15.9 102.4,15.9 	"/>
	<g>
		<path class="st2" d="M111.4,37.9c0,0.2,0,0.4-0.2,0.4s-0.2-0.2-0.2-0.4v-9.2c0-0.2,0-0.4,0.2-0.4s0.2,0.2,0.2,0.4V37.9z"/>
	</g>
	<g>
		<path class="st2" d="M114.2,34.9c0.2,0,0.4,0,0.7,0.2c0.2,0.1,0.4,0.1,0.6,0.1c0.3,0,1-0.2,1.2-0.8c0-0.1,0-0.1,0.1-0.1
			c0.1,0,0.1,0,0.1,0.1c0,0.3-0.6,1.5-1.6,1.5c-0.3,0-0.5-0.2-0.6-0.4c-0.2-0.3-0.3-0.4-0.6-0.4c-0.3,0-0.6,0.3-0.8,0.6
			c-0.1,0.1-0.1,0.1-0.2,0.1c0,0-0.1,0-0.1-0.1c0-0.1,0.3-0.6,1-1.3l0.9-0.8c0.2-0.2,1-0.9,1.4-1.3c-0.3,0-0.4,0-0.8-0.1
			c-0.2-0.1-0.4-0.1-0.6-0.1c-0.1,0-0.7,0-0.8,0.5c0,0.1,0,0.1-0.1,0.1s-0.1-0.1-0.1-0.1c0-0.2,0.5-1.1,1.2-1.1
			c0.3,0,0.5,0.2,0.7,0.4c0.1,0.2,0.3,0.3,0.5,0.3s0.4-0.2,0.7-0.6c0-0.1,0.1-0.1,0.1-0.1c0,0,0.1,0,0.1,0.1c0,0-0.2,0.5-1.2,1.4
			c-0.4,0.4-1,0.9-1,0.9c-0.4,0.3-0.6,0.6-1.2,1.1C114,34.9,114.2,34.9,114.2,34.9z"/>
	</g>
	<g>
		<path class="st2" d="M119.3,37.9c0,0.2,0,0.4-0.2,0.4s-0.2-0.2-0.2-0.4v-9.2c0-0.2,0-0.4,0.2-0.4s0.2,0.2,0.2,0.4V37.9z"/>
	</g>
	<g>
		<path class="st2" d="M124.1,32.5c-0.1,0-0.3,0-0.3-0.2s0.2-0.2,0.3-0.2h6c0.1,0,0.3,0,0.3,0.2s-0.2,0.2-0.3,0.2H124.1z M124,34.5
			c-0.1,0-0.3,0-0.3-0.2s0.2-0.2,0.3-0.2h5.9c0.1,0,0.3,0,0.3,0.2s-0.2,0.2-0.3,0.2H124z"/>
		<path class="st2" d="M136.7,35c0,0.4,0,0.5,0.9,0.5h0.3v0.3c-0.3,0-1.2,0-1.6,0s-1.3,0-1.6,0v-0.3h0.3c0.9,0,0.9-0.1,0.9-0.5v-5.2
			c-0.5,0.3-1.1,0.3-1.3,0.3v-0.3c0.3,0,1.2,0,1.8-0.6c0.2,0,0.2,0,0.2,0.3V35z"/>
	</g>
	<polyline points="95,34.3 92.1,36.8 95.8,37.6 94.6,36.2 	"/>
	<line class="st3" x1="106.3" y1="33.3" x2="94.6" y2="36.2"/>
	<g>
		<path class="st2" d="M145.8,81.8c0.2,0,0.9,0,0.9-0.1c0.1-0.1,0.2-0.6,0.2-0.9h0.2l-0.3,1.7h-3.7c0-0.2,0-0.3,0.1-0.4l1.9-2.1
			c0.5-0.6,1-1.4,1-2.2c0-0.8-0.4-1.6-1.3-1.6c-0.6,0-1.1,0.4-1.3,1c0,0,0,0,0.1,0c0.3,0,0.5,0.3,0.5,0.5c0,0.4-0.3,0.5-0.5,0.5
			c0,0-0.5,0-0.5-0.6c0-0.9,0.7-1.8,1.9-1.8c1.2,0,2.1,0.8,2.1,1.9c0,1-0.6,1.5-2.2,2.9l-1.1,1H145.8z"/>
	</g>
	<path class="st4" d="M88.6,65.1l7.1,7.1 M88.6,72.2l7.1-7.1"/>
	<g>
		<path class="st2" d="M90,81.6c-0.4,0.9-1.2,1.2-1.7,1.2c-0.5,0-1.2-0.2-1.6-1c-0.4-0.8-0.4-1.7-0.4-2.4c0-0.8,0-1.6,0.4-2.3
			c0.4-0.9,1.1-1.2,1.7-1.2c0.4,0,1.2,0.2,1.7,1.1c0.3,0.7,0.4,1.5,0.4,2.3C90.3,80.2,90.3,80.9,90,81.6z M89.4,81.3
			c0.1-0.6,0.1-1.3,0.1-2.1c0-0.6,0-1.4-0.1-1.9c-0.2-1-0.8-1.2-1.2-1.2c-0.2,0-1,0.1-1.2,1.3C87,78,87,78.6,87,79.3
			c0,0.6,0,1.5,0.1,2.1c0.2,1,0.8,1.2,1.2,1.2C88.7,82.6,89.3,82.3,89.4,81.3z"/>
		<path class="st2" d="M92.2,82.6c-0.3,0-0.5-0.2-0.5-0.5s0.2-0.5,0.5-0.5c0.3,0,0.5,0.2,0.5,0.5S92.5,82.6,92.2,82.6z"/>
	</g>
	<g>
		<path class="st2" d="M96,80.4c-1.1,0-2-1-2-2.2c0-0.7,0.2-1.2,0.6-1.6c0.4-0.4,0.9-0.6,1.5-0.6c0.9,0,2,0.7,2,3.4
			c0,2.1-1.2,3.5-2.5,3.5c-0.8,0-1.4-0.4-1.4-1.1c0-0.4,0.3-0.5,0.5-0.5c0.2,0,0.5,0.1,0.5,0.5c0,0.2-0.1,0.5-0.5,0.5
			c0.3,0.3,0.8,0.4,1,0.4c0.6,0,1.6-0.5,1.6-2.8v-0.3C97,80,96.6,80.4,96,80.4z M97.2,78.4c0-0.5,0-1.1-0.2-1.4
			c-0.2-0.4-0.5-0.8-1-0.8c-0.3,0-0.7,0.1-1,0.6c-0.2,0.4-0.2,0.8-0.2,1.4c0,0.5,0,1,0.2,1.4c0.3,0.6,0.8,0.6,0.9,0.6
			C96.9,80.2,97.2,79.2,97.2,78.4z"/>
	</g>
</g>
</svg>
