<?xml version="1.0" encoding="utf-8"?>
<!-- Generator: Adobe Illustrator 22.1.0, SVG Export Plug-In . SVG Version: 6.00 Build 0)  -->
<svg version="1.1" id="Layer_1" xmlns="http://www.w3.org/2000/svg" xmlns:xlink="http://www.w3.org/1999/xlink" x="0px" y="0px"
	 viewBox="0 0 242.9 70.2" style="enable-background:new 0 0 242.9 70.2;" xml:space="preserve">
<style type="text/css">
	.st0{fill:none;stroke:#000000;stroke-width:0.8504;stroke-miterlimit:10;}
	.st1{fill:none;stroke:#000000;stroke-width:0.8504;stroke-linecap:round;stroke-miterlimit:10;stroke-dasharray:0,3.4016;}
</style>
<g>
	<g>
		<path d="M22.9,41.1c-1.8,0-3.3-1.5-3.3-3.3c0-1.8,1.5-3.3,3.3-3.3c1.8,0,3.3,1.5,3.3,3.3C26.2,39.6,24.8,41.1,22.9,41.1z
			 M22.7,37.8l-2.1-2.1c-0.5,0.6-0.8,1.3-0.8,2.1c0,0.6,0.2,1.4,0.8,2.1L22.7,37.8z M22.9,38L20.8,40c0.8,0.8,1.7,0.8,2.1,0.8
			c1.3,0,2.1-0.8,2.1-0.8c0,0-0.1-0.1-0.1-0.1L22.9,38z M22.9,37.6l2.1-2.1c-0.8-0.8-1.7-0.8-2.1-0.8c-1.3,0-2.1,0.8-2.1,0.8
			c0,0,0.1,0.1,0.1,0.1L22.9,37.6z M23.1,37.8l2.1,2.1c0.5-0.6,0.8-1.3,0.8-2.1c0-0.8-0.3-1.6-0.8-2.1L23.1,37.8z"/>
	</g>
	<polyline points="14.8,40.1 19.3,37.9 14.8,35.6 15.9,37.9 	"/>
	<line class="st0" x1="5.2" y1="37.9" x2="15.9" y2="37.9"/>
	<g>
		<path d="M2.1,44c0.4-0.5,0.8-0.8,1.5-0.8c0.7,0,1.1,0.4,1.1,1.1c0,0.6-0.4,1.8-0.6,2.2c-0.1,0.2-0.2,0.5-0.2,0.7
			c0,0.2,0.1,0.3,0.2,0.3c0.5,0,0.9-0.7,1-1.2c0-0.2,0-0.2,0.1-0.2c0,0,0.1,0,0.1,0.1c0,0.1-0.4,1.5-1.3,1.5c-0.5,0-0.8-0.3-0.8-0.8
			c0-0.2,0-0.3,0.1-0.5c0.2-0.6,0.6-1.7,0.6-2.2c0-0.4-0.1-0.7-0.5-0.7c-0.4,0-0.7,0.2-1,0.3c-0.3,0.3-0.6,0.8-0.7,0.9
			c0,0.1-0.1,0.4-0.1,0.4c0,0.2-0.1,0.4-0.2,0.7l-0.2,0.9l-0.2,0.8c0,0.1-0.2,0.3-0.4,0.3c-0.1,0-0.3,0-0.3-0.3c0-0.1,0-0.1,0-0.2
			L2,41.5l0-0.2c0-0.1,0-0.2-0.5-0.2c-0.1,0-0.2,0-0.2-0.1c0-0.2,0.1-0.2,0.2-0.2c0.3,0,1-0.1,1.2-0.1c0.1,0,0.1,0.1,0.1,0.1L2.1,44
			z"/>
	</g>
	<g>
		<path d="M7.7,49.2c-1.6,0-1.6-1.9-1.6-2.4s0-2.4,1.6-2.4c0.6,0,1,0.3,1.2,0.6c0.3,0.5,0.4,1,0.4,1.8C9.4,47.3,9.4,49.2,7.7,49.2z
			 M8.6,48.2c0.1-0.4,0.1-1,0.1-1.5c0-0.6,0-1.1-0.1-1.5c-0.1-0.4-0.5-0.6-0.9-0.6c-0.3,0-0.7,0.1-0.9,0.7c-0.1,0.4-0.1,0.9-0.1,1.4
			c0,0.5,0,1.1,0.1,1.5C7,48.8,7.4,49,7.7,49C8,49,8.5,48.8,8.6,48.2z"/>
	</g>
	<polyline points="20.6,51.1 22.9,55.6 25.1,51.1 22.9,52.2 	"/>
	<line class="st0" x1="22.9" y1="41.4" x2="22.9" y2="52.2"/>
	<g>
		<path d="M72.5,41.1c-1.8,0-3.3-1.5-3.3-3.3c0-1.8,1.5-3.3,3.3-3.3c1.8,0,3.3,1.5,3.3,3.3C75.8,39.6,74.4,41.1,72.5,41.1z
			 M72.3,37.8l-2.1-2.1c-0.5,0.6-0.8,1.3-0.8,2.1c0,0.6,0.2,1.4,0.8,2.1L72.3,37.8z M72.5,38L70.4,40c0.8,0.8,1.7,0.8,2.1,0.8
			c1.3,0,2.1-0.8,2.1-0.8c0,0-0.1-0.1-0.1-0.1L72.5,38z M72.5,37.6l2.1-2.1c-0.8-0.8-1.7-0.8-2.1-0.8c-1.3,0-2.1,0.8-2.1,0.8
			c0,0,0.1,0.1,0.1,0.1L72.5,37.6z M72.7,37.8l2.1,2.1c0.5-0.6,0.8-1.3,0.8-2.1c0-0.8-0.3-1.6-0.8-2.1L72.7,37.8z"/>
	</g>
	<polyline points="64.4,40.1 68.9,37.9 64.4,35.6 65.5,37.9 	"/>
	<line class="st0" x1="54.8" y1="37.9" x2="65.5" y2="37.9"/>
	<g>
		<path d="M51.7,44c0.4-0.5,0.8-0.8,1.5-0.8c0.7,0,1.1,0.4,1.1,1.1c0,0.6-0.4,1.8-0.6,2.2c-0.1,0.2-0.2,0.5-0.2,0.7
			c0,0.2,0.1,0.3,0.2,0.3c0.5,0,0.9-0.7,1-1.2c0-0.2,0-0.2,0.1-0.2c0,0,0.1,0,0.1,0.1c0,0.1-0.4,1.5-1.3,1.5c-0.5,0-0.8-0.3-0.8-0.8
			c0-0.2,0-0.3,0.1-0.5c0.2-0.6,0.6-1.7,0.6-2.2c0-0.4-0.1-0.7-0.5-0.7c-0.4,0-0.7,0.2-1,0.3c-0.3,0.3-0.6,0.8-0.7,0.9
			c0,0.1-0.1,0.4-0.1,0.4c0,0.2-0.1,0.4-0.2,0.7L51,46.7l-0.2,0.8c0,0.1-0.2,0.3-0.4,0.3c-0.1,0-0.3,0-0.3-0.3c0-0.1,0-0.1,0-0.2
			l1.4-5.7l0-0.2c0-0.1,0-0.2-0.5-0.2c-0.1,0-0.2,0-0.2-0.1c0-0.2,0.1-0.2,0.2-0.2c0.3,0,1-0.1,1.2-0.1c0.1,0,0.1,0.1,0.1,0.1
			L51.7,44z"/>
	</g>
	<g>
		<path d="M57.7,48.5c0,0.2,0,0.3,0.7,0.3h0.3V49c-0.2,0-1,0-1.2,0c-0.3,0-1.1,0-1.2,0v-0.3h0.3c0.7,0,0.7-0.1,0.7-0.3v-3.6
			c-0.4,0.2-0.8,0.2-1,0.2v-0.3c0.3,0,0.9,0,1.4-0.4c0.2,0,0.2,0,0.2,0.2V48.5z"/>
	</g>
	<polyline points="70.2,51.1 72.5,55.6 74.7,51.1 72.5,52.2 	"/>
	<line class="st0" x1="72.5" y1="41.4" x2="72.5" y2="52.2"/>
	<g>
		<path d="M200.1,41.1c-1.8,0-3.3-1.5-3.3-3.3c0-1.8,1.5-3.3,3.3-3.3c1.8,0,3.3,1.5,3.3,3.3C203.4,39.6,201.9,41.1,200.1,41.1z
			 M199.9,37.8l-2.1-2.1c-0.5,0.6-0.8,1.3-0.8,2.1c0,0.6,0.2,1.4,0.8,2.1L199.9,37.8z M200.1,38L198,40c0.8,0.8,1.7,0.8,2.1,0.8
			c1.3,0,2.1-0.8,2.1-0.8c0,0-0.1-0.1-0.1-0.1L200.1,38z M200.1,37.6l2.1-2.1c-0.8-0.8-1.7-0.8-2.1-0.8c-1.3,0-2.1,0.8-2.1,0.8
			c0,0,0.1,0.1,0.1,0.1L200.1,37.6z M200.3,37.8l2.1,2.1c0.5-0.6,0.8-1.3,0.8-2.1c0-0.8-0.3-1.6-0.8-2.1L200.3,37.8z"/>
	</g>
	<polyline points="192,40.1 196.5,37.9 192,35.6 193.1,37.9 	"/>
	<line class="st0" x1="182.3" y1="37.9" x2="193.1" y2="37.9"/>
	<g>
		<path d="M171.9,43.6c0.4-0.5,0.8-0.8,1.5-0.8c0.7,0,1.1,0.4,1.1,1.1c0,0.6-0.4,1.8-0.6,2.2c-0.1,0.2-0.2,0.5-0.2,0.7
			c0,0.2,0.1,0.3,0.2,0.3c0.5,0,0.9-0.7,1-1.2c0-0.2,0-0.2,0.1-0.2c0,0,0.1,0,0.1,0.1c0,0.1-0.4,1.5-1.3,1.5c-0.5,0-0.8-0.3-0.8-0.8
			c0-0.2,0-0.3,0.1-0.5c0.2-0.6,0.6-1.7,0.6-2.2c0-0.4-0.1-0.7-0.5-0.7s-0.7,0.2-1,0.3c-0.3,0.3-0.6,0.8-0.7,0.9
			c0,0.1-0.1,0.4-0.1,0.4c0,0.2-0.1,0.4-0.2,0.7l-0.2,0.9l-0.2,0.8c0,0.1-0.2,0.3-0.4,0.3c-0.1,0-0.3,0-0.3-0.3c0-0.1,0-0.1,0-0.2
			l1.4-5.7l0-0.2c0-0.1,0-0.2-0.5-0.2c-0.1,0-0.2,0-0.2-0.1c0-0.2,0.1-0.2,0.2-0.2c0.3,0,1-0.1,1.2-0.1c0.1,0,0.1,0.1,0.1,0.1
			L171.9,43.6z"/>
	</g>
	<g>
		<path d="M181.8,48.2c0,0,0,0.1,0,0.2c0,0.1,0,0.1,0.2,0.1c0.1,0,0.3,0,0.3,0c0.1,0,0.2,0,0.2,0.1c0,0.2-0.1,0.2-0.1,0.2
			c-0.2,0-0.7,0-0.9,0c-0.1,0-0.3,0-0.4,0s-0.3,0-0.4,0c-0.1,0-0.1-0.1-0.1-0.1c0-0.2,0.1-0.2,0.2-0.2c0.5,0,0.6-0.1,0.6-0.3l1-3.9
			l0,0l-2.9,4.3c0,0.1-0.1,0.2-0.2,0.2c-0.1,0-0.1-0.1-0.1-0.2l-0.7-4.2h0l-0.9,3.7c0,0.1,0,0.1,0,0.2c0,0.1,0,0.3,0.4,0.3
			c0.1,0,0.2,0,0.2,0.1c0,0.2-0.1,0.2-0.1,0.2c-0.2,0-0.6,0-0.7,0c-0.2,0-0.5,0-0.7,0c-0.1,0-0.1-0.1-0.1-0.1c0-0.1,0.1-0.2,0.1-0.2
			c0.6,0,0.7-0.3,0.7-0.5l0.9-3.5c0-0.1,0-0.1,0-0.2c0-0.1,0-0.1-0.2-0.1c-0.1,0-0.2,0-0.3,0c-0.2,0-0.2,0-0.2-0.1
			c0-0.2,0.1-0.2,0.2-0.2h1c0.2,0,0.2,0,0.2,0.2l0.7,3.9l2.7-4c0.1-0.1,0.1-0.1,0.3-0.1h0.9c0.1,0,0.2,0,0.2,0.1
			c0,0.1-0.1,0.1-0.2,0.1c-0.5,0-0.5,0.1-0.6,0.3L181.8,48.2z"/>
	</g>
	<g>
		<path d="M184.9,47.1c-0.1,0-0.3,0-0.3-0.2c0-0.2,0.2-0.2,0.3-0.2h4.2c0.1,0,0.3,0,0.3,0.2c0,0.2-0.2,0.2-0.3,0.2H184.9z"/>
	</g>
	<g>
		<path d="M192.5,48.1c0,0.2,0,0.3,0.7,0.3h0.3v0.3c-0.2,0-1,0-1.2,0c-0.3,0-1.1,0-1.2,0v-0.3h0.3c0.7,0,0.7-0.1,0.7-0.3v-3.6
			c-0.4,0.2-0.8,0.2-1,0.2v-0.3c0.3,0,0.9,0,1.4-0.4c0.2,0,0.2,0,0.2,0.2V48.1z"/>
	</g>
	<polyline points="197.8,51.1 200,55.6 202.3,51.1 200,52.2 	"/>
	<path class="st0" d="M200,41.4l0,10.8 M15.8,62.7v-7.1h191.3v14.2H15.8V62.7z M107.9,62.7h7.1 M111.5,66.2v-7.1"/>
	<g>
		<path d="M220.3,54.5c-0.3,1.1-1.3,2-2.3,2c-0.6,0-1.1-0.4-1.1-0.9c0-0.5,0.3-0.6,0.6-0.6c0.1,0,0.4,0,0.4,0.3
			c0,0.2-0.1,0.3-0.2,0.4c-0.1,0.1-0.3,0.1-0.4,0.1c0.2,0.4,0.6,0.4,0.8,0.4c0.5,0,0.8-0.3,1.1-0.6c0.4-0.5,0.5-1,0.6-1.5
			c-0.3,0.3-0.6,0.4-1,0.4c-0.6,0-1.2-0.3-1.2-1.2c0-0.5,0.2-1,0.6-2.1c0.1-0.2,0.2-0.4,0.2-0.7c0-0.3-0.2-0.3-0.2-0.3
			c-0.3,0-0.7,0.3-1,1.2c0,0.2-0.1,0.2-0.2,0.2c0,0-0.1,0-0.1-0.1c0-0.1,0.4-1.5,1.3-1.5c0.5,0,0.8,0.4,0.8,0.8c0,0.2,0,0.3-0.2,0.7
			c-0.3,0.9-0.5,1.5-0.5,2c0,0.4,0.1,0.8,0.6,0.8c0.7,0,1.1-0.7,1.1-0.8l0.4-1.8c0.1-0.3,0.1-0.5,0.2-0.8c0-0.2,0.1-0.5,0.1-0.5
			c0.1-0.2,0.2-0.2,0.3-0.2c0.1,0,0.3,0.1,0.3,0.3c0,0.1,0,0.1,0,0.2L220.3,54.5z"/>
	</g>
	<g>
		<path d="M222.9,57V47h1.4v0.4h-1v9.2h1V57H222.9z"/>
	</g>
	<g>
		<path d="M225.9,51.6c0.1-0.5,0.2-0.6,0.2-0.8c0-0.3-0.1-0.5-0.3-0.5c-0.4,0-0.6,0.5-0.7,1.2c-0.1,0.2-0.1,0.2-0.2,0.2
			c0,0-0.1,0-0.1-0.1c0,0,0.1-0.6,0.3-1c0.1-0.2,0.3-0.6,0.7-0.6c0.5,0,0.9,0.3,0.9,0.9c0.2-0.2,0.7-0.9,1.6-0.9
			c0.7,0,1.1,0.4,1.1,1.1c0,0.6-0.4,1.7-0.6,2.2c-0.1,0.2-0.2,0.5-0.2,0.7c0,0.2,0.1,0.3,0.2,0.3c0.5,0,0.8-0.6,1-1.2
			c0.1-0.2,0.1-0.2,0.2-0.2c0,0,0.1,0,0.1,0.1c0,0.1-0.4,1.5-1.3,1.5c-0.5,0-0.8-0.3-0.8-0.8c0-0.1,0-0.2,0.1-0.5
			c0.2-0.4,0.6-1.7,0.6-2.3c0-0.3-0.1-0.7-0.5-0.7c-0.9,0-1.5,0.9-1.6,1.2c0,0-0.1,0.3-0.1,0.5c0,0.2-0.1,0.4-0.2,0.7l-0.2,0.9
			c-0.1,0.3-0.2,0.7-0.2,0.7c-0.1,0.2-0.2,0.3-0.4,0.3c-0.1,0-0.3-0.1-0.3-0.3c0-0.1,0.1-0.3,0.1-0.4L225.9,51.6z"/>
	</g>
	<g>
		<path d="M232.1,57h-1.4v-0.4h1v-9.2h-1V47h1.4V57z"/>
	</g>
	<polyline points="220.3,64.9 224.8,62.7 220.3,60.4 221.4,62.7 	"/>
	<line class="st0" x1="207.1" y1="62.7" x2="221.4" y2="62.7"/>
	<g>
		<path d="M188.5,6.7c-0.1,0.4-0.2,0.7-0.2,0.9c0,0.3,0.2,0.7,0.5,0.7c0.3,0,1-0.2,1.3-1.3c0-0.1,0-0.1,0.1-0.1c0,0,0.1,0,0.1,0.1
			c0,0.2-0.6,1.5-1.6,1.5c-0.6,0-1-0.4-1.1-0.8c0,0.1-0.4,0.8-1,0.8c-0.4,0-0.9-0.2-0.9-0.7c0-0.3,0.2-0.6,0.5-0.6
			c0.1,0,0.4,0.1,0.4,0.3c0,0.3-0.2,0.5-0.5,0.5c0.2,0.1,0.4,0.1,0.5,0.1c0.4,0,0.8-0.4,0.9-1c0.4-1.4,0.5-2.1,0.5-2.4
			c0-0.6-0.3-0.7-0.5-0.7c-0.3,0-1,0.2-1.3,1.3c0,0.1,0,0.1-0.1,0.1c0,0-0.1,0-0.1-0.1c0-0.2,0.6-1.5,1.6-1.5c0.3,0,0.8,0.1,1.1,0.8
			c0.1-0.2,0.5-0.8,1-0.8c0.3,0,0.9,0.1,0.9,0.7c0,0.4-0.3,0.6-0.5,0.6c-0.3,0-0.4-0.2-0.4-0.3c0-0.2,0.2-0.5,0.5-0.5
			c-0.2-0.1-0.4-0.1-0.5-0.1c-0.7,0-0.9,0.9-1,1.2L188.5,6.7z"/>
	</g>
	<g>
		<path d="M192.3,10.9v-10h1.4v0.4h-1v9.2h1v0.4H192.3z"/>
	</g>
	<g>
		<path d="M195.4,5.5c0.1-0.5,0.2-0.6,0.2-0.8c0-0.3-0.1-0.5-0.3-0.5c-0.4,0-0.6,0.5-0.7,1.2c-0.1,0.2-0.1,0.2-0.2,0.2
			c0,0-0.1,0-0.1-0.1c0,0,0.1-0.6,0.3-1c0.1-0.2,0.3-0.6,0.7-0.6c0.5,0,0.9,0.3,0.9,0.9c0.2-0.2,0.7-0.9,1.6-0.9
			c0.7,0,1.1,0.4,1.1,1.1c0,0.6-0.4,1.7-0.6,2.2c-0.1,0.2-0.2,0.5-0.2,0.7c0,0.2,0.1,0.3,0.2,0.3c0.5,0,0.8-0.6,1-1.2
			c0.1-0.1,0.1-0.2,0.2-0.2c0,0,0.1,0,0.1,0.1c0,0.1-0.4,1.5-1.3,1.5c-0.5,0-0.8-0.3-0.8-0.8c0-0.1,0-0.2,0.1-0.5
			c0.2-0.4,0.6-1.7,0.6-2.3c0-0.3-0.1-0.7-0.5-0.7c-0.9,0-1.5,0.9-1.6,1.2c0,0-0.1,0.3-0.1,0.5c0,0.2-0.1,0.4-0.2,0.7l-0.2,0.9
			c-0.1,0.2-0.2,0.7-0.2,0.7c-0.1,0.2-0.2,0.3-0.4,0.3c-0.1,0-0.3-0.1-0.3-0.3c0-0.1,0.1-0.3,0.1-0.4L195.4,5.5z"/>
	</g>
	<g>
		<path d="M203.4,6.1c-0.2,0-0.3,0-0.3-0.2c0-0.2,0.2-0.2,0.3-0.2h5.4c0.2,0,0.3,0,0.3,0.2c0,0.2-0.2,0.2-0.3,0.2H203.4z"/>
	</g>
	<g>
		<path d="M220.1,7.7c0,0.2,0,0.2,0,0.2c0,0.2,0.3,0.2,0.6,0.2c0.2,0,0.3,0,0.3,0.1c0,0.2-0.1,0.2-0.2,0.2c-0.4,0-0.8,0-1.2,0
			c-0.3,0-1,0-1.2,0c0,0-0.2,0-0.2-0.1c0-0.2,0.1-0.2,0.3-0.2c0.8,0,0.8-0.1,0.9-0.5l1.4-5.7h0l-4,6.3c0,0.1-0.1,0.2-0.2,0.2
			c-0.1,0-0.1-0.1-0.1-0.2L215.5,2h0l-1.4,5.4c0,0.1,0,0.2,0,0.2c0,0.2,0.1,0.4,0.7,0.4c0.1,0,0.2,0,0.2,0.1c0,0.2-0.1,0.2-0.2,0.2
			c-0.3,0-0.7,0-1,0c-0.3,0-0.7,0-1,0c-0.1,0-0.1,0-0.1-0.1c0-0.2,0.1-0.2,0.2-0.2c0.8,0,1-0.3,1.1-0.7l1.3-5.1c0-0.1,0-0.1,0-0.2
			c0-0.1-0.1-0.1-0.2-0.2c-0.1,0-0.3,0-0.4,0c-0.2,0-0.3,0-0.3-0.1c0-0.2,0.1-0.2,0.3-0.2h1.4c0.3,0,0.3,0,0.3,0.2l0.8,5.6l3.6-5.7
			c0.1-0.2,0.1-0.2,0.4-0.2h1.3c0.2,0,0.3,0,0.3,0.1c0,0.2-0.1,0.2-0.3,0.2c-0.7,0-0.8,0.1-0.9,0.5L220.1,7.7z"/>
	</g>
	<g>
		<path d="M229.2,8.9c0,0.1,0,0.3-0.2,0.3s-0.2-0.2-0.2-0.3V6.1H226c-0.1,0-0.3,0-0.3-0.2c0-0.2,0.2-0.2,0.3-0.2h2.8V2.9
			c0-0.1,0-0.3,0.2-0.3s0.2,0.2,0.2,0.3v2.8h2.8c0.1,0,0.3,0,0.3,0.2c0,0.2-0.2,0.2-0.3,0.2h-2.8V8.9z"/>
		<path d="M238,7.6c0,0.4,0,0.5,0.9,0.5h0.3v0.3c-0.3,0-1.2,0-1.6,0s-1.3,0-1.6,0V8.1h0.3c0.9,0,0.9-0.1,0.9-0.5V2.4
			c-0.5,0.3-1.1,0.3-1.3,0.3V2.4c0.3,0,1.2,0,1.8-0.6c0.2,0,0.2,0,0.2,0.3V7.6z"/>
	</g>
	<g>
		<path d="M241.7,10.9h-1.4v-0.4h1V1.3h-1V0.9h1.4V10.9z"/>
	</g>
	<polyline points="82.1,18.9 86.7,16.6 82.1,14.4 83.3,16.6 	"/>
	<line class="st0" x1="51.2" y1="16.6" x2="83.3" y2="16.6"/>
	<g>
		<path d="M93.1,19.2c0,0.1,0,0.2,0,0.2c0,0.2,0.1,0.2,0.4,0.2c0.3,0,0.4,0,0.6,0c0.3,0,0.3,0,0.3,0.1c0,0.2-0.1,0.2-0.2,0.2
			c-0.3,0-0.6,0-0.9,0c-0.3,0-0.5,0-0.8,0c-0.3,0-0.6,0-0.8,0c-0.3,0-0.5,0-0.8,0c-0.1,0-0.2,0-0.2-0.1c0-0.2,0.1-0.2,0.4-0.2
			c1.1,0,1.1-0.1,1.2-0.5l1.3-5.3c0,0,0-0.1,0-0.2c0-0.1,0-0.1-0.3-0.1h-0.4c-1.5,0-1.7,0.2-2.3,1.7c-0.1,0.2-0.1,0.2-0.2,0.2
			c-0.1,0-0.1,0-0.1-0.1c0,0,0-0.2,0.1-0.2l0.6-1.8c0.1-0.2,0.1-0.2,0.3-0.2h5.5c0.2,0,0.3,0,0.3,0.1c0,0,0,0.1,0,0.2l-0.3,1.7
			c0,0.1,0,0.2-0.1,0.2c-0.1,0-0.1-0.1-0.1-0.1c0,0,0-0.1,0-0.2c0-0.3,0.1-0.6,0.1-0.8c0-0.8-0.4-0.8-1.5-0.8c-0.2,0-0.5,0-0.6,0
			c-0.1,0-0.2,0.1-0.2,0.4L93.1,19.2z"/>
	</g>
	<polygon class="st0" points="86.7,16.6 86.7,9.5 100.8,9.5 100.8,23.7 86.7,23.7 	"/>
	<polyline points="70.2,29.8 72.5,34.3 74.7,29.8 72.5,30.9 	"/>
	<line class="st0" x1="72.5" y1="16.6" x2="72.5" y2="30.9"/>
	<g>
		<path d="M10.1,6.7C10,7.2,10,7.4,10,7.6c0,0.3,0.2,0.7,0.5,0.7c0.3,0,1-0.2,1.3-1.3c0-0.1,0-0.1,0.1-0.1c0,0,0.1,0,0.1,0.1
			c0,0.2-0.6,1.5-1.6,1.5c-0.6,0-1-0.4-1.1-0.8c0,0.1-0.4,0.8-1,0.8c-0.4,0-0.9-0.2-0.9-0.7c0-0.3,0.2-0.6,0.5-0.6
			c0.1,0,0.4,0.1,0.4,0.3c0,0.3-0.2,0.5-0.5,0.5c0.2,0.1,0.4,0.1,0.5,0.1c0.4,0,0.8-0.4,0.9-1c0.4-1.4,0.5-2.1,0.5-2.4
			c0-0.6-0.3-0.7-0.5-0.7C9,4.2,8.3,4.4,8,5.5c0,0.1-0.1,0.1-0.1,0.1c0,0-0.1,0-0.1-0.1C7.7,5.3,8.3,4,9.4,4c0.3,0,0.8,0.1,1.1,0.8
			c0.1-0.2,0.5-0.8,1-0.8c0.3,0,0.9,0.1,0.9,0.7c0,0.4-0.3,0.6-0.5,0.6c-0.3,0-0.4-0.2-0.4-0.3c0-0.2,0.2-0.5,0.5-0.5
			c-0.2-0.1-0.4-0.1-0.5-0.1c-0.7,0-0.9,0.9-1,1.2L10.1,6.7z"/>
	</g>
	<g>
		<path d="M14,10.9v-10h1.4v0.4h-1v9.2h1v0.4H14z"/>
	</g>
	<g>
		<path d="M17,5.5c0.1-0.5,0.2-0.6,0.2-0.8c0-0.3-0.1-0.5-0.3-0.5c-0.4,0-0.6,0.5-0.7,1.2c-0.1,0.2-0.1,0.2-0.2,0.2
			c0,0-0.1,0-0.1-0.1c0,0,0.1-0.6,0.3-1C16.2,4.4,16.4,4,16.9,4c0.5,0,0.9,0.3,0.9,0.9C18,4.6,18.5,4,19.4,4c0.7,0,1.1,0.4,1.1,1.1
			c0,0.6-0.4,1.7-0.6,2.2c-0.1,0.2-0.2,0.5-0.2,0.7c0,0.2,0.1,0.3,0.2,0.3c0.5,0,0.8-0.6,1-1.2c0-0.1,0-0.2,0.1-0.2
			c0,0,0.1,0,0.1,0.1c0,0.1-0.4,1.5-1.3,1.5c-0.5,0-0.8-0.3-0.8-0.8c0-0.1,0-0.2,0.1-0.5c0.2-0.4,0.6-1.7,0.6-2.3
			c0-0.3-0.1-0.7-0.5-0.7c-0.9,0-1.5,0.9-1.6,1.2c0,0-0.1,0.3-0.1,0.5c0,0.2-0.1,0.4-0.2,0.7l-0.2,0.9C17.1,7.7,17,8.2,17,8.2
			c-0.1,0.2-0.2,0.3-0.4,0.3c-0.1,0-0.3-0.1-0.3-0.3c0-0.1,0.1-0.3,0.1-0.4L17,5.5z"/>
	</g>
	<g>
		<path d="M23.1,10.9h-1.4v-0.4h1V1.3h-1V0.9h1.4V10.9z"/>
	</g>
	<polyline points="32.5,18.9 37,16.6 32.5,14.4 33.6,16.6 	"/>
	<line class="st0" x1="1.6" y1="16.6" x2="33.6" y2="16.6"/>
	<g>
		<path d="M43.5,19.2c0,0.1,0,0.2,0,0.2c0,0.2,0.1,0.2,0.4,0.2c0.3,0,0.4,0,0.6,0c0.3,0,0.3,0,0.3,0.1c0,0.2-0.1,0.2-0.2,0.2
			c-0.3,0-0.6,0-0.9,0c-0.3,0-0.5,0-0.8,0c-0.3,0-0.6,0-0.8,0c-0.3,0-0.5,0-0.8,0c-0.1,0-0.2,0-0.2-0.1c0-0.2,0.1-0.2,0.4-0.2
			c1.1,0,1.1-0.1,1.2-0.5l1.3-5.3c0,0,0-0.1,0-0.2c0-0.1,0-0.1-0.3-0.1h-0.4c-1.5,0-1.7,0.2-2.3,1.7c-0.1,0.2-0.1,0.2-0.2,0.2
			c-0.1,0-0.1,0-0.1-0.1c0,0,0-0.2,0.1-0.2l0.6-1.8c0.1-0.2,0.1-0.2,0.3-0.2h5.5c0.2,0,0.3,0,0.3,0.1c0,0,0,0.1,0,0.2l-0.3,1.7
			c0,0.1,0,0.2-0.1,0.2c-0.1,0-0.1-0.1-0.1-0.1c0,0,0-0.1,0-0.2c0-0.3,0.1-0.6,0.1-0.8c0-0.8-0.4-0.8-1.5-0.8c-0.2,0-0.5,0-0.6,0
			c-0.1,0-0.2,0.1-0.2,0.4L43.5,19.2z"/>
	</g>
	<polygon class="st0" points="37,16.6 37,9.5 51.2,9.5 51.2,23.7 37,23.7 	"/>
	<polyline points="20.6,29.8 22.9,34.3 25.1,29.8 22.9,30.9 	"/>
	<line class="st0" x1="22.9" y1="16.6" x2="22.9" y2="30.9"/>
	<g>
		<path d="M171,19.2c0,0.1,0,0.2,0,0.2c0,0.2,0.1,0.2,0.4,0.2c0.3,0,0.4,0,0.6,0c0.3,0,0.3,0,0.3,0.1c0,0.2-0.1,0.2-0.2,0.2
			c-0.3,0-0.6,0-0.9,0c-0.3,0-0.5,0-0.8,0c-0.3,0-0.6,0-0.8,0c-0.3,0-0.5,0-0.8,0c-0.1,0-0.2,0-0.2-0.1c0-0.2,0.1-0.2,0.4-0.2
			c1.1,0,1.1-0.1,1.2-0.5l1.3-5.3c0,0,0-0.1,0-0.2c0-0.1,0-0.1-0.3-0.1h-0.4c-1.5,0-1.7,0.2-2.3,1.7c-0.1,0.2-0.1,0.2-0.2,0.2
			c-0.1,0-0.1,0-0.1-0.1c0,0,0-0.2,0.1-0.2l0.6-1.8c0.1-0.2,0.1-0.2,0.3-0.2h5.5c0.2,0,0.3,0,0.3,0.1c0,0,0,0.1,0,0.2l-0.3,1.7
			c0,0.1,0,0.2-0.1,0.2c-0.1,0-0.1-0.1-0.1-0.1c0,0,0-0.1,0-0.2c0-0.3,0.1-0.6,0.1-0.8c0-0.8-0.4-0.8-1.5-0.8c-0.2,0-0.5,0-0.6,0
			c-0.1,0-0.2,0.1-0.2,0.4L171,19.2z"/>
	</g>
	<path class="st0" d="M164.6,16.6V9.5h14.2v14.2h-14.2V16.6z M178.8,16.6H200"/>
	<polyline points="197.8,29.8 200,34.3 202.3,29.8 200,30.9 	"/>
	<line class="st0" x1="200" y1="16.6" x2="200" y2="30.9"/>
	<polyline points="160.1,18.9 164.6,16.6 160.1,14.4 161.2,16.6 	"/>
	<line class="st0" x1="150.4" y1="16.6" x2="161.2" y2="16.6"/>
	<polyline points="110.5,18.9 115,16.6 110.5,14.4 111.6,16.6 	"/>
	<line class="st0" x1="100.8" y1="16.6" x2="111.6" y2="16.6"/>
	<line class="st1" x1="122.1" y1="16.6" x2="143.3" y2="16.6"/>
	<g>
		<path d="M54.6,6.7c-0.1,0.4-0.2,0.7-0.2,0.9c0,0.3,0.2,0.7,0.5,0.7c0.3,0,1-0.2,1.3-1.3c0-0.1,0-0.1,0.1-0.1c0,0,0.1,0,0.1,0.1
			c0,0.2-0.6,1.5-1.6,1.5c-0.6,0-1-0.4-1.1-0.8c0,0.1-0.4,0.8-1,0.8c-0.4,0-0.9-0.2-0.9-0.7c0-0.3,0.2-0.6,0.5-0.6
			c0.1,0,0.4,0.1,0.4,0.3c0,0.3-0.2,0.5-0.5,0.5c0.2,0.1,0.4,0.1,0.5,0.1c0.4,0,0.8-0.4,0.9-1c0.4-1.4,0.5-2.1,0.5-2.4
			c0-0.6-0.3-0.7-0.5-0.7c-0.3,0-1,0.2-1.3,1.3c0,0.1-0.1,0.1-0.1,0.1c0,0-0.1,0-0.1-0.1c0-0.2,0.6-1.5,1.6-1.5
			c0.3,0,0.8,0.1,1.1,0.8C55.1,4.5,55.4,4,56,4c0.3,0,0.9,0.1,0.9,0.7c0,0.4-0.3,0.6-0.5,0.6C56.1,5.2,56,5,56,4.9
			c0-0.2,0.2-0.5,0.5-0.5C56.3,4.2,56,4.2,56,4.2c-0.7,0-0.9,0.9-1,1.2L54.6,6.7z"/>
	</g>
	<g>
		<path d="M58.5,10.9v-10h1.4v0.4h-1v9.2h1v0.4H58.5z"/>
	</g>
	<g>
		<path d="M61.5,5.5c0.1-0.5,0.2-0.6,0.2-0.8c0-0.3-0.1-0.5-0.3-0.5c-0.4,0-0.6,0.5-0.7,1.2c-0.1,0.2-0.1,0.2-0.2,0.2
			c0,0-0.1,0-0.1-0.1c0,0,0.1-0.6,0.3-1C60.7,4.4,60.9,4,61.4,4c0.5,0,0.9,0.3,0.9,0.9C62.5,4.6,63,4,63.9,4C64.6,4,65,4.4,65,5
			c0,0.6-0.4,1.7-0.6,2.2c-0.1,0.2-0.2,0.5-0.2,0.7c0,0.2,0.1,0.3,0.2,0.3c0.5,0,0.8-0.6,1-1.2c0-0.1,0-0.2,0.1-0.2
			c0,0,0.1,0,0.1,0.1c0,0.1-0.4,1.5-1.3,1.5c-0.5,0-0.8-0.3-0.8-0.8c0-0.1,0-0.2,0.1-0.5c0.2-0.4,0.6-1.7,0.6-2.3
			c0-0.3-0.1-0.7-0.5-0.7c-0.9,0-1.5,0.9-1.6,1.2c0,0-0.1,0.3-0.1,0.5c0,0.2-0.1,0.4-0.2,0.7l-0.2,0.9c-0.1,0.2-0.2,0.7-0.2,0.7
			c-0.1,0.2-0.2,0.3-0.4,0.3c-0.1,0-0.3-0.1-0.3-0.3c0-0.1,0.1-0.3,0.1-0.4L61.5,5.5z"/>
	</g>
	<g>
		<path d="M69.5,6.1c-0.2,0-0.3,0-0.3-0.2c0-0.2,0.2-0.2,0.3-0.2h5.4c0.2,0,0.3,0,0.3,0.2c0,0.2-0.2,0.2-0.3,0.2H69.5z"/>
	</g>
	<g>
		<path d="M81.2,7.6c0,0.4,0,0.5,0.9,0.5h0.3v0.3c-0.3,0-1.2,0-1.6,0c-0.4,0-1.3,0-1.6,0V8.1h0.3c0.9,0,0.9-0.1,0.9-0.5V2.4
			c-0.5,0.3-1.1,0.3-1.3,0.3V2.4c0.3,0,1.2,0,1.8-0.6c0.2,0,0.2,0,0.2,0.3V7.6z"/>
		<path d="M84.9,10.9h-1.4v-0.4h1V1.3h-1V0.9h1.4V10.9z"/>
	</g>
</g>
</svg>
