<?xml version="1.0" encoding="utf-8"?>
<!-- Generator: Adobe Illustrator 22.1.0, SVG Export Plug-In . SVG Version: 6.00 Build 0)  -->
<svg version="1.1" id="Layer_1" xmlns="http://www.w3.org/2000/svg" xmlns:xlink="http://www.w3.org/1999/xlink" x="0px" y="0px"
	 viewBox="0 0 346.6 111.5" style="enable-background:new 0 0 346.6 111.5;" xml:space="preserve">
<style type="text/css">
	.st0{fill:none;stroke:#FF0000;stroke-width:1.7008;stroke-linecap:round;stroke-miterlimit:10;stroke-dasharray:0,4.5354;}
	.st1{fill:#1D1D1B;}
	.st2{fill:none;stroke:#000000;stroke-width:0.8504;stroke-miterlimit:10;}
	.st3{fill:none;stroke:#0000FF;stroke-width:1.7008;stroke-linecap:round;stroke-miterlimit:10;stroke-dasharray:0,4.544;}
</style>
<g>
	<polygon class="st0" points="29.9,45.1 29.9,66.4 214.1,66.4 214.1,23.9 29.9,23.9 	"/>
	<g>
		<path class="st1" d="M3,31.8c-0.1,0.4-0.2,0.7-0.2,0.9c0,0.3,0.2,0.7,0.5,0.7c0.3,0,1-0.2,1.3-1.3c0-0.1,0-0.1,0.1-0.1
			c0,0,0.1,0,0.1,0.1c0,0.2-0.6,1.5-1.6,1.5c-0.6,0-1-0.4-1.1-0.8c0,0.1-0.4,0.8-1,0.8c-0.4,0-0.9-0.2-0.9-0.7
			c0-0.3,0.2-0.6,0.5-0.6c0.1,0,0.4,0.1,0.4,0.3c0,0.3-0.2,0.5-0.5,0.5c0.2,0.1,0.4,0.1,0.5,0.1c0.4,0,0.8-0.4,0.9-1
			c0.4-1.4,0.5-2.1,0.5-2.4c0-0.6-0.3-0.7-0.5-0.7c-0.3,0-1,0.2-1.3,1.3c0,0.1-0.1,0.1-0.1,0.1c0,0-0.1,0-0.1-0.1
			c0-0.2,0.6-1.5,1.6-1.5c0.3,0,0.8,0.1,1.1,0.8c0.1-0.2,0.5-0.8,1-0.8c0.3,0,0.9,0.1,0.9,0.7c0,0.4-0.3,0.6-0.5,0.6
			c-0.3,0-0.4-0.2-0.4-0.3c0-0.2,0.2-0.5,0.5-0.5c-0.2-0.1-0.4-0.1-0.5-0.1c-0.7,0-0.9,0.9-1,1.2L3,31.8z"/>
	</g>
	<g>
		<path class="st1" d="M6.8,36V26h1.4v0.4h-1v9.2h1V36H6.8z"/>
	</g>
	<g>
		<path class="st1" d="M9.9,30.6C10,30.1,10,30,10,29.7c0-0.3-0.1-0.5-0.3-0.5c-0.4,0-0.6,0.5-0.7,1.2c-0.1,0.2-0.1,0.2-0.2,0.2
			c0,0-0.1,0-0.1-0.1c0,0,0.1-0.6,0.3-1c0.1-0.2,0.3-0.6,0.7-0.6c0.5,0,0.9,0.3,0.9,0.9c0.2-0.2,0.7-0.9,1.6-0.9
			c0.7,0,1.1,0.4,1.1,1.1c0,0.6-0.4,1.7-0.6,2.2c-0.1,0.2-0.2,0.5-0.2,0.7c0,0.2,0.1,0.3,0.2,0.3c0.5,0,0.8-0.6,1-1.2
			c0-0.1,0-0.2,0.1-0.2c0,0,0.1,0,0.1,0.1c0,0.1-0.4,1.5-1.3,1.5c-0.5,0-0.8-0.3-0.8-0.8c0-0.1,0-0.2,0.1-0.5
			c0.2-0.4,0.6-1.7,0.6-2.3c0-0.3-0.1-0.7-0.5-0.7c-0.9,0-1.5,0.9-1.6,1.2c0,0-0.1,0.3-0.1,0.5c0,0.2-0.1,0.4-0.2,0.7L10,32.6
			c-0.1,0.2-0.2,0.7-0.2,0.7c-0.1,0.2-0.2,0.3-0.4,0.3c-0.1,0-0.3-0.1-0.3-0.3c0-0.1,0.1-0.3,0.1-0.4L9.9,30.6z"/>
	</g>
	<g>
		<path class="st1" d="M16,36h-1.4v-0.4h1v-9.2h-1V26H16V36z"/>
	</g>
	<polyline points="177.7,33.2 182.3,31 177.7,28.7 178.9,31 	"/>
	<path class="st2" d="M22.8,31l156,0 M37,52.2V31"/>
	<g>
		<path class="st1" d="M54,54.9c0,0.1,0,0.2,0,0.2c0,0.2,0.1,0.2,0.4,0.2c0.3,0,0.4,0,0.6,0c0.3,0,0.3,0,0.3,0.1
			c0,0.2-0.1,0.2-0.2,0.2c-0.3,0-0.6,0-0.9,0c-0.3,0-0.5,0-0.8,0c-0.3,0-0.6,0-0.8,0c-0.3,0-0.5,0-0.8,0c-0.1,0-0.2,0-0.2-0.1
			c0-0.2,0.1-0.2,0.4-0.2c1.1,0,1.1-0.1,1.2-0.5l1.3-5.3c0,0,0-0.1,0-0.2c0-0.1,0-0.1-0.3-0.1h-0.4c-1.5,0-1.7,0.2-2.3,1.7
			c-0.1,0.2-0.1,0.2-0.2,0.2c-0.1,0-0.1,0-0.1-0.1c0,0,0-0.2,0.1-0.2l0.6-1.8c0.1-0.2,0.1-0.2,0.3-0.2h5.5c0.2,0,0.3,0,0.3,0.1
			c0,0,0,0.1,0,0.2L57.8,51c0,0.1,0,0.2-0.1,0.2c-0.1,0-0.1-0.1-0.1-0.1c0,0,0-0.1,0-0.2c0-0.3,0.1-0.6,0.1-0.8
			c0-0.8-0.4-0.8-1.5-0.8c-0.2,0-0.5,0-0.6,0c-0.1,0-0.2,0.1-0.2,0.4L54,54.9z"/>
	</g>
	<polygon class="st2" points="44.1,52.2 44.1,59.3 65.3,59.3 65.3,45.1 44.1,45.1 	"/>
	<polyline points="39.5,54.5 44.1,52.2 39.5,49.9 40.7,52.2 	"/>
	<line class="st2" x1="37" y1="52.2" x2="40.7" y2="52.2"/>
	<g>
		<path class="st1" d="M82.4,54.9c0,0.1,0,0.2,0,0.2c0,0.2,0.1,0.2,0.4,0.2c0.3,0,0.4,0,0.6,0c0.3,0,0.3,0,0.3,0.1
			c0,0.2-0.1,0.2-0.2,0.2c-0.3,0-0.6,0-0.9,0c-0.3,0-0.5,0-0.8,0c-0.3,0-0.6,0-0.8,0c-0.3,0-0.5,0-0.8,0c-0.1,0-0.2,0-0.2-0.1
			c0-0.2,0.1-0.2,0.4-0.2c1.1,0,1.1-0.1,1.2-0.5l1.3-5.3c0,0,0-0.1,0-0.2c0-0.1,0-0.1-0.3-0.1h-0.4c-1.5,0-1.7,0.2-2.3,1.7
			c-0.1,0.2-0.1,0.2-0.2,0.2c-0.1,0-0.1,0-0.1-0.1c0,0,0-0.2,0.1-0.2l0.6-1.8c0.1-0.2,0.1-0.2,0.3-0.2h5.5c0.2,0,0.3,0,0.3,0.1
			c0,0,0,0.1,0,0.2L86.2,51c0,0.1,0,0.2-0.1,0.2c-0.1,0-0.1-0.1-0.1-0.1c0,0,0-0.1,0-0.2c0-0.3,0.1-0.6,0.1-0.8
			c0-0.8-0.4-0.8-1.5-0.8c-0.2,0-0.5,0-0.6,0c-0.1,0-0.2,0.1-0.2,0.4L82.4,54.9z"/>
	</g>
	<polygon class="st2" points="72.4,52.2 72.4,59.3 93.7,59.3 93.7,45.1 72.4,45.1 	"/>
	<polyline points="67.9,54.5 72.4,52.2 67.9,49.9 69,52.2 	"/>
	<line class="st2" x1="65.3" y1="52.2" x2="69" y2="52.2"/>
	<g>
		<path class="st1" d="M110.7,54.9c0,0.1,0,0.2,0,0.2c0,0.2,0.1,0.2,0.4,0.2c0.3,0,0.4,0,0.6,0c0.3,0,0.3,0,0.3,0.1
			c0,0.2-0.1,0.2-0.2,0.2c-0.3,0-0.6,0-0.9,0c-0.3,0-0.5,0-0.8,0c-0.3,0-0.6,0-0.8,0c-0.3,0-0.5,0-0.8,0c-0.1,0-0.2,0-0.2-0.1
			c0-0.2,0.1-0.2,0.4-0.2c1.1,0,1.1-0.1,1.2-0.5l1.3-5.3c0,0,0-0.1,0-0.2c0-0.1,0-0.1-0.3-0.1h-0.4c-1.5,0-1.7,0.2-2.3,1.7
			c-0.1,0.2-0.1,0.2-0.2,0.2c-0.1,0-0.1,0-0.1-0.1c0,0,0-0.2,0.1-0.2l0.6-1.8c0.1-0.2,0.1-0.2,0.3-0.2h5.5c0.2,0,0.3,0,0.3,0.1
			c0,0,0,0.1,0,0.2l-0.3,1.7c0,0.1,0,0.2-0.1,0.2c-0.1,0-0.1-0.1-0.1-0.1c0,0,0-0.1,0-0.2c0-0.3,0.1-0.6,0.1-0.8
			c0-0.8-0.4-0.8-1.5-0.8c-0.2,0-0.5,0-0.6,0c-0.1,0-0.2,0.1-0.2,0.4L110.7,54.9z"/>
	</g>
	<polygon class="st2" points="100.8,52.2 100.8,59.3 122,59.3 122,45.1 100.8,45.1 	"/>
	<polyline points="96.2,54.5 100.8,52.2 96.2,49.9 97.4,52.2 	"/>
	<line class="st2" x1="93.7" y1="52.2" x2="97.4" y2="52.2"/>
	<g>
		<path class="st1" d="M139.1,54.9c0,0.1,0,0.2,0,0.2c0,0.2,0.1,0.2,0.4,0.2c0.3,0,0.4,0,0.6,0c0.3,0,0.3,0,0.3,0.1
			c0,0.2-0.1,0.2-0.2,0.2c-0.3,0-0.6,0-0.9,0c-0.3,0-0.5,0-0.8,0c-0.3,0-0.6,0-0.8,0c-0.3,0-0.5,0-0.8,0c-0.1,0-0.2,0-0.2-0.1
			c0-0.2,0.1-0.2,0.4-0.2c1.1,0,1.1-0.1,1.2-0.5l1.3-5.3c0,0,0-0.1,0-0.2c0-0.1,0-0.1-0.3-0.1h-0.4c-1.5,0-1.7,0.2-2.3,1.7
			c-0.1,0.2-0.1,0.2-0.2,0.2c-0.1,0-0.1,0-0.1-0.1c0,0,0-0.2,0.1-0.2l0.6-1.8c0.1-0.2,0.1-0.2,0.3-0.2h5.5c0.2,0,0.3,0,0.3,0.1
			c0,0,0,0.1,0,0.2l-0.3,1.7c0,0.1,0,0.2-0.1,0.2c-0.1,0-0.1-0.1-0.1-0.1c0,0,0-0.1,0-0.2c0-0.3,0.1-0.6,0.1-0.8
			c0-0.8-0.4-0.8-1.5-0.8c-0.2,0-0.5,0-0.6,0c-0.1,0-0.2,0.1-0.2,0.4L139.1,54.9z"/>
	</g>
	<polygon class="st2" points="129.1,52.2 129.1,59.3 150.4,59.3 150.4,45.1 129.1,45.1 	"/>
	<polyline points="124.6,54.5 129.1,52.2 124.6,49.9 125.7,52.2 	"/>
	<line class="st2" x1="122" y1="52.2" x2="125.7" y2="52.2"/>
	<g>
		<path class="st1" d="M167.4,54.9c0,0.1,0,0.2,0,0.2c0,0.2,0.1,0.2,0.4,0.2c0.3,0,0.4,0,0.6,0c0.3,0,0.3,0,0.3,0.1
			c0,0.2-0.1,0.2-0.2,0.2c-0.3,0-0.6,0-0.9,0c-0.3,0-0.5,0-0.8,0c-0.3,0-0.6,0-0.8,0c-0.3,0-0.5,0-0.8,0c-0.1,0-0.2,0-0.2-0.1
			c0-0.2,0.1-0.2,0.4-0.2c1.1,0,1.1-0.1,1.2-0.5l1.3-5.3c0,0,0-0.1,0-0.2c0-0.1,0-0.1-0.3-0.1h-0.4c-1.5,0-1.7,0.2-2.3,1.7
			c-0.1,0.2-0.1,0.2-0.2,0.2c-0.1,0-0.1,0-0.1-0.1c0,0,0-0.2,0.1-0.2l0.6-1.8c0.1-0.2,0.1-0.2,0.3-0.2h5.5c0.2,0,0.3,0,0.3,0.1
			c0,0,0,0.1,0,0.2l-0.3,1.7c0,0.1,0,0.2-0.1,0.2c-0.1,0-0.1-0.1-0.1-0.1c0,0,0-0.1,0-0.2c0-0.3,0.1-0.6,0.1-0.8
			c0-0.8-0.4-0.8-1.5-0.8c-0.2,0-0.5,0-0.6,0c-0.1,0-0.2,0.1-0.2,0.4L167.4,54.9z"/>
	</g>
	<polygon class="st2" points="157.5,52.2 157.5,59.3 178.7,59.3 178.7,45.1 157.5,45.1 	"/>
	<polyline points="152.9,54.5 157.5,52.2 152.9,49.9 154.1,52.2 	"/>
	<line class="st2" x1="150.4" y1="52.2" x2="154.1" y2="52.2"/>
	<g>
		<path class="st1" d="M185.8,34.3c-1.8,0-3.3-1.5-3.3-3.3c0-1.8,1.5-3.3,3.3-3.3c1.8,0,3.3,1.5,3.3,3.3
			C189.2,32.8,187.7,34.3,185.8,34.3z M185.7,30.8v-2.9c-1.6,0.1-2.8,1.3-2.9,2.9H185.7z M185.7,31.1h-2.9c0.1,1.7,1.4,2.9,2.9,2.9
			V31.1z M186,30.8h3c-0.1-1.7-1.4-2.9-3-2.9V30.8z M186,31.1V34c1.5-0.1,2.9-1.2,3-2.9H186z"/>
	</g>
	<polyline points="188.1,39 185.8,34.5 183.5,39 185.8,37.9 	"/>
	<line class="st2" x1="185.8" y1="52.2" x2="185.8" y2="37.9"/>
	<g>
		<path class="st1" d="M177.1,38.3v-0.6h2.6v0.6H177.1z"/>
	</g>
	<line class="st2" x1="178.7" y1="52.2" x2="185.8" y2="52.2"/>
	<polyline points="191.9,33.2 196.4,31 191.9,28.7 193,31 	"/>
	<path class="st2" d="M189.3,31l3.7,0 M203.5,31h17.7"/>
	<g>
		<path class="st1" d="M200,34.3c-1.8,0-3.3-1.5-3.3-3.3c0-1.8,1.5-3.3,3.3-3.3c1.8,0,3.3,1.5,3.3,3.3
			C203.3,32.8,201.9,34.3,200,34.3z M199.8,31l-2.1-2.1c-0.5,0.6-0.8,1.3-0.8,2.1c0,0.6,0.2,1.4,0.8,2.1L199.8,31z M200,31.1
			l-2.1,2.1c0.8,0.8,1.7,0.8,2.1,0.8c1.3,0,2.1-0.8,2.1-0.8c0,0-0.1-0.1-0.1-0.1L200,31.1z M200,30.8l2.1-2.1
			c-0.8-0.8-1.7-0.8-2.1-0.8c-1.3,0-2.1,0.8-2.1,0.8c0,0,0.1,0.1,0.1,0.1L200,30.8z M200.2,31l2.1,2.1c0.5-0.6,0.8-1.3,0.8-2.1
			c0-0.8-0.3-1.6-0.8-2.1L200.2,31z"/>
	</g>
	<polyline points="202.2,39 200,34.5 197.7,39 200,37.9 	"/>
	<line class="st2" x1="200" y1="41.6" x2="200" y2="37.9"/>
	<g>
		<path class="st1" d="M195.5,50.4c0,0.4,0,0.5,0.9,0.5h0.3v0.3c-0.3,0-1.2,0-1.6,0s-1.3,0-1.6,0v-0.3h0.3c0.9,0,0.9-0.1,0.9-0.5
			v-5.2c-0.5,0.3-1.1,0.3-1.3,0.3v-0.3c0.3,0,1.2,0,1.8-0.6c0.2,0,0.2,0,0.2,0.3V50.4z"/>
		<path class="st1" d="M198.5,53.5c0,0.1-0.1,0.2-0.2,0.2c-0.1,0-0.2-0.1-0.2-0.2c0,0,0,0,0-0.2l3.4-9.4c0-0.1,0.1-0.2,0.2-0.2
			c0.1,0,0.2,0.1,0.2,0.2c0,0,0,0,0,0.2L198.5,53.5z"/>
		<path class="st1" d="M204.9,51.4c-1.1,0-1.8-1-1.8-1.8c0-0.5,0.3-0.5,0.5-0.5c0.3,0,0.5,0.2,0.5,0.5s-0.2,0.5-0.5,0.5
			c-0.1,0-0.1,0-0.2,0c0.2,0.6,0.7,1.1,1.5,1.1c0.5,0,0.8-0.3,1.1-0.6c0.2-0.4,0.2-1,0.2-1.4c0-0.5,0-0.9-0.2-1.3
			c-0.1-0.2-0.3-0.6-0.8-0.6c-0.8,0-1.2,0.5-1.3,0.7c0,0.1-0.1,0.1-0.1,0.1c-0.1,0-0.1-0.1-0.1-0.3v-2.9c0-0.2,0-0.2,0.1-0.2
			c0,0,0,0,0.1,0c0.5,0.2,0.9,0.3,1.3,0.3c0.7,0,1.2-0.2,1.4-0.3c0,0,0.1,0,0.1,0c0.1,0,0.1,0,0.1,0.1c0,0.1-0.7,1-1.9,1
			c-0.3,0-0.6-0.1-0.8-0.1v1.9c0.4-0.3,0.8-0.5,1.3-0.5c1.1,0,1.9,1,1.9,2.2C207.1,50.5,206.1,51.4,204.9,51.4z"/>
	</g>
	<g>
		<path class="st1" d="M333.7,37c-0.3,1.1-1.3,2-2.3,2c-0.6,0-1.1-0.4-1.1-0.9c0-0.5,0.3-0.6,0.6-0.6c0.1,0,0.4,0,0.4,0.3
			c0,0.2-0.1,0.3-0.2,0.4c-0.1,0.1-0.3,0.1-0.4,0.1c0.2,0.4,0.6,0.4,0.8,0.4c0.5,0,0.8-0.3,1.1-0.6c0.4-0.5,0.5-1,0.6-1.5
			c-0.3,0.3-0.6,0.4-1,0.4c-0.6,0-1.2-0.3-1.2-1.2c0-0.5,0.2-1,0.6-2.1c0.1-0.2,0.2-0.4,0.2-0.7c0-0.3-0.2-0.3-0.2-0.3
			c-0.3,0-0.7,0.3-1,1.2c0,0.2-0.1,0.2-0.2,0.2c0,0-0.1,0-0.1-0.1c0-0.1,0.4-1.5,1.3-1.5c0.5,0,0.8,0.4,0.8,0.8c0,0.2,0,0.3-0.2,0.7
			c-0.3,0.9-0.5,1.5-0.5,2c0,0.4,0.1,0.8,0.6,0.8c0.7,0,1.1-0.7,1.1-0.8l0.4-1.8c0.1-0.3,0.1-0.5,0.2-0.8c0-0.2,0.1-0.5,0.1-0.5
			c0.1-0.1,0.2-0.2,0.3-0.2c0.1,0,0.3,0.1,0.3,0.3c0,0.1,0,0.1,0,0.2L333.7,37z"/>
	</g>
	<g>
		<path class="st1" d="M336.2,39.5v-10h1.4v0.4h-1v9.2h1v0.4H336.2z"/>
	</g>
	<g>
		<path class="st1" d="M339.3,34.1c0.1-0.5,0.2-0.6,0.2-0.8c0-0.3-0.1-0.5-0.3-0.5c-0.4,0-0.6,0.5-0.7,1.2c-0.1,0.2-0.1,0.2-0.2,0.2
			c0,0-0.1,0-0.1-0.1c0,0,0.1-0.6,0.3-1c0.1-0.2,0.3-0.6,0.7-0.6c0.5,0,0.9,0.3,0.9,0.9c0.2-0.2,0.7-0.9,1.6-0.9
			c0.7,0,1.1,0.4,1.1,1.1c0,0.6-0.4,1.7-0.6,2.2c-0.1,0.2-0.2,0.5-0.2,0.7c0,0.2,0.1,0.3,0.2,0.3c0.5,0,0.8-0.6,1-1.2
			c0.1-0.1,0.1-0.2,0.2-0.2c0,0,0.1,0,0.1,0.1c0,0.1-0.4,1.5-1.3,1.5c-0.5,0-0.8-0.3-0.8-0.8c0-0.1,0-0.2,0.1-0.5
			c0.2-0.4,0.6-1.7,0.6-2.3c0-0.3-0.1-0.7-0.5-0.7c-0.9,0-1.5,0.9-1.6,1.2c0,0-0.1,0.3-0.1,0.5c0,0.2-0.1,0.4-0.2,0.7l-0.2,0.9
			c-0.1,0.2-0.2,0.7-0.2,0.7c-0.1,0.2-0.2,0.3-0.4,0.3c-0.1,0-0.3-0.1-0.3-0.3c0-0.1,0.1-0.3,0.1-0.4L339.3,34.1z"/>
	</g>
	<g>
		<path class="st1" d="M345.4,39.5H344v-0.4h1v-9.2h-1v-0.4h1.4V39.5z"/>
	</g>
	<polyline points="323,36.8 327.5,34.5 323,32.2 324.1,34.5 	"/>
	<line class="st2" x1="313.4" y1="34.5" x2="324.1" y2="34.5"/>
	<g>
		<path class="st1" d="M309.8,37.8c-1.8,0-3.3-1.5-3.3-3.3c0-1.8,1.5-3.3,3.3-3.3c1.8,0,3.3,1.5,3.3,3.3
			C313.2,36.3,311.7,37.8,309.8,37.8z M309.7,34.4v-2.9c-1.6,0.1-2.8,1.3-2.9,2.9H309.7z M309.7,34.7h-2.9c0.1,1.7,1.4,2.9,2.9,2.9
			V34.7z M310,34.4h3c-0.1-1.7-1.4-2.9-3-2.9V34.4z M310,34.7v2.9c1.5-0.1,2.9-1.2,3-2.9H310z"/>
	</g>
	<polyline points="312.1,42.6 309.8,38 307.5,42.6 309.8,41.4 	"/>
	<line class="st2" x1="309.8" y1="62.8" x2="309.8" y2="41.4"/>
	<polyline points="241.5,8.4 246,6.2 241.5,3.9 242.6,6.2 	"/>
	<path class="st2" d="M238.9,6.2l3.7,0 M253.1,6.2h56.7"/>
	<polyline points="275.4,39.3 270.8,41.6 275.4,43.9 274.2,41.6 	"/>
	<path class="st2" d="M274.2,41.6H285 M249.6,41.6h10.6"/>
	<g>
		<path class="st1" d="M284.3,26.6c0,0.1,0,0.2,0,0.2c0,0.2,0.1,0.2,0.4,0.2c0.3,0,0.4,0,0.6,0c0.3,0,0.3,0,0.3,0.1
			c0,0.2-0.1,0.2-0.2,0.2c-0.3,0-0.6,0-0.9,0c-0.3,0-0.5,0-0.8,0c-0.3,0-0.6,0-0.8,0c-0.3,0-0.5,0-0.8,0c-0.1,0-0.2,0-0.2-0.1
			c0-0.2,0.1-0.2,0.4-0.2c1.1,0,1.1-0.1,1.2-0.5l1.3-5.3c0,0,0-0.1,0-0.2c0-0.1,0-0.1-0.3-0.1h-0.4c-1.5,0-1.7,0.2-2.3,1.7
			c-0.1,0.2-0.1,0.2-0.2,0.2c-0.1,0-0.1,0-0.1-0.1c0,0,0-0.2,0.1-0.2l0.6-1.8c0.1-0.2,0.1-0.2,0.3-0.2h5.5c0.2,0,0.3,0,0.3,0.1
			c0,0,0,0.1,0,0.2l-0.3,1.7c0,0.1,0,0.2-0.1,0.2c-0.1,0-0.1-0.1-0.1-0.1c0,0,0-0.1,0-0.2c0-0.3,0.1-0.6,0.1-0.8
			c0-0.8-0.4-0.8-1.5-0.8c-0.2,0-0.5,0-0.6,0c-0.1,0-0.2,0.1-0.2,0.4L284.3,26.6z"/>
	</g>
	<polygon class="st2" points="274.4,23.9 274.4,31 295.6,31 295.6,16.8 274.4,16.8 	"/>
	<polyline points="282.7,12.2 285,16.8 287.3,12.2 285,13.4 	"/>
	<path class="st2" d="M285,6.2v7.2 M285,31v10.6"/>
	<polyline points="251.8,14.2 249.6,9.7 247.3,14.2 249.6,13.1 	"/>
	<line class="st2" x1="249.6" y1="41.6" x2="249.6" y2="13.1"/>
	<g>
		<path class="st1" d="M249.6,9.5c-1.8,0-3.3-1.5-3.3-3.3c0-1.8,1.5-3.3,3.3-3.3c1.8,0,3.3,1.5,3.3,3.3C252.9,8,251.5,9.5,249.6,9.5
			z M249.5,6.1V3.1c-1.6,0.1-2.8,1.3-2.9,2.9H249.5z M249.5,6.3h-2.9c0.1,1.7,1.4,2.9,2.9,2.9V6.3z M249.7,6.1h3
			c-0.1-1.7-1.4-2.9-3-2.9V6.1z M249.7,6.3v2.9c1.5-0.1,2.9-1.2,3-2.9H249.7z"/>
	</g>
	<g>
		<path class="st1" d="M263.8,44.9c-1.8,0-3.3-1.5-3.3-3.3c0-1.8,1.5-3.3,3.3-3.3c1.8,0,3.3,1.5,3.3,3.3
			C267.1,43.4,265.6,44.9,263.8,44.9z M263.6,41.6l-2.1-2.1c-0.5,0.6-0.8,1.3-0.8,2.1c0,0.6,0.2,1.4,0.8,2.1L263.6,41.6z
			 M263.8,41.8l-2.1,2.1c0.8,0.8,1.7,0.8,2.1,0.8c1.3,0,2.1-0.8,2.1-0.8c0,0-0.1-0.1-0.1-0.1L263.8,41.8z M263.8,41.4l2.1-2.1
			c-0.8-0.8-1.7-0.8-2.1-0.8c-1.3,0-2.1,0.8-2.1,0.8c0,0,0.1,0.1,0.1,0.1L263.8,41.4z M264,41.6l2.1,2.1c0.5-0.6,0.8-1.3,0.8-2.1
			c0-0.8-0.3-1.6-0.8-2.1L264,41.6z"/>
	</g>
	<polyline points="261.5,33.5 263.8,38 266,33.5 263.8,34.6 	"/>
	<line class="st2" x1="263.8" y1="34.6" x2="263.8" y2="27.4"/>
	<g>
		<path class="st1" d="M263.1,20c0.5-0.6,0.8-1.3,1-2c0-0.2,0-0.2,0.1-0.2c0.1,0,0.1,0.1,0.1,0.1c0,0-0.2,1.2-1.1,2.3
			c-0.1,0.1-0.1,0.1-0.1,0.3c0,0.2,0,1,0.3,1c0,0,0.4,0,0.6-0.5c0-0.1,0.1-0.1,0.1-0.1c0.1,0,0.1,0,0.1,0.1c0,0.2-0.3,0.7-0.8,0.7
			c-0.4,0-0.8-0.3-0.9-0.8c-0.8,0.6-1.5,0.8-2.1,0.8c-1,0-1.6-0.8-1.6-1.7c0-1.4,1.3-2.8,2.7-2.8c0.7,0,1.7,0.5,1.7,2.1V20z
			 M262.4,19.7c0-0.8,0-2.1-1-2.1c-0.3,0-0.9,0.2-1.4,0.9c-0.3,0.5-0.6,1.6-0.6,2.1c0,0.6,0.3,1.1,0.9,1.1c0.4,0,1.2-0.1,2-0.9
			C262.4,20.6,262.4,20,262.4,19.7z"/>
	</g>
	<g>
		<path class="st1" d="M267,22.6c0,0.2,0,0.3,0.7,0.3h0.3v0.3c-0.2,0-1,0-1.2,0c-0.3,0-1.1,0-1.2,0V23h0.3c0.7,0,0.7-0.1,0.7-0.3
			v-3.6c-0.4,0.2-0.8,0.2-1,0.2V19c0.3,0,0.9,0,1.4-0.4c0.2,0,0.2,0,0.2,0.2V22.6z"/>
	</g>
	<polyline points="227.3,8.4 231.9,6.2 227.3,3.9 228.5,6.2 	"/>
	<path class="st2" d="M228.5,6.2l-7.2,0 M221.2,62.8V6.2"/>
	<polyline points="307.5,26.4 309.8,31 312.1,26.4 309.8,27.6 	"/>
	<line class="st2" x1="309.8" y1="6.2" x2="309.8" y2="27.6"/>
	<polygon class="st3" points="217.7,55.8 217.7,110.7 316.9,110.7 316.9,0.9 217.7,0.9 	"/>
	<polyline points="241.5,65.1 246,62.8 241.5,60.6 242.6,62.8 	"/>
	<path class="st2" d="M238.9,62.8l3.7,0 M253.1,62.8h56.7"/>
	<polyline points="275.4,96 270.8,98.3 275.4,100.5 274.2,98.3 	"/>
	<path class="st2" d="M274.2,98.3H285 M249.6,98.3h10.6"/>
	<g>
		<path class="st1" d="M284.3,83.3c0,0.1,0,0.2,0,0.2c0,0.2,0.1,0.2,0.4,0.2c0.3,0,0.4,0,0.6,0c0.3,0,0.3,0,0.3,0.1
			c0,0.2-0.1,0.2-0.2,0.2c-0.3,0-0.6,0-0.9,0c-0.3,0-0.5,0-0.8,0c-0.3,0-0.6,0-0.8,0c-0.3,0-0.5,0-0.8,0c-0.1,0-0.2,0-0.2-0.1
			c0-0.2,0.1-0.2,0.4-0.2c1.1,0,1.1-0.1,1.2-0.5l1.3-5.3c0,0,0-0.1,0-0.2c0-0.1,0-0.1-0.3-0.1h-0.4c-1.5,0-1.7,0.2-2.3,1.7
			c-0.1,0.2-0.1,0.2-0.2,0.2c-0.1,0-0.1,0-0.1-0.1c0,0,0-0.2,0.1-0.2l0.6-1.8c0.1-0.2,0.1-0.2,0.3-0.2h5.5c0.2,0,0.3,0,0.3,0.1
			c0,0,0,0.1,0,0.2l-0.3,1.7c0,0.1,0,0.2-0.1,0.2c-0.1,0-0.1-0.1-0.1-0.1c0,0,0-0.2,0-0.2c0-0.3,0.1-0.6,0.1-0.8
			c0-0.8-0.4-0.8-1.5-0.8c-0.2,0-0.5,0-0.6,0c-0.1,0-0.2,0.1-0.2,0.4L284.3,83.3z"/>
	</g>
	<polygon class="st2" points="274.4,80.6 274.4,87.6 295.6,87.6 295.6,73.5 274.4,73.5 	"/>
	<polyline points="282.7,68.9 285,73.5 287.3,68.9 285,70.1 	"/>
	<path class="st2" d="M285,62.8v7.2 M285,87.6v10.6"/>
	<polyline points="251.8,70.9 249.6,66.4 247.3,70.9 249.6,69.8 	"/>
	<line class="st2" x1="249.6" y1="98.3" x2="249.6" y2="69.8"/>
	<g>
		<path class="st1" d="M249.6,66.2c-1.8,0-3.3-1.5-3.3-3.3c0-1.8,1.5-3.3,3.3-3.3c1.8,0,3.3,1.5,3.3,3.3
			C252.9,64.7,251.5,66.2,249.6,66.2z M249.5,62.7v-2.9c-1.6,0.1-2.8,1.3-2.9,2.9H249.5z M249.5,63h-2.9c0.1,1.7,1.4,2.9,2.9,2.9V63
			z M249.7,62.7h3c-0.1-1.7-1.4-2.9-3-2.9V62.7z M249.7,63v2.9c1.5-0.1,2.9-1.2,3-2.9H249.7z"/>
	</g>
	<g>
		<path class="st1" d="M263.8,101.6c-1.8,0-3.3-1.5-3.3-3.3c0-1.8,1.5-3.3,3.3-3.3c1.8,0,3.3,1.5,3.3,3.3
			C267.1,100.1,265.6,101.6,263.8,101.6z M263.6,98.3l-2.1-2.1c-0.5,0.6-0.8,1.3-0.8,2.1c0,0.6,0.2,1.4,0.8,2.1L263.6,98.3z
			 M263.8,98.5l-2.1,2.1c0.8,0.8,1.7,0.8,2.1,0.8c1.3,0,2.1-0.8,2.1-0.8c0,0-0.1-0.1-0.1-0.1L263.8,98.5z M263.8,98.1l2.1-2.1
			c-0.8-0.8-1.7-0.8-2.1-0.8c-1.3,0-2.1,0.8-2.1,0.8c0,0,0.1,0.1,0.1,0.1L263.8,98.1z M264,98.3l2.1,2.1c0.5-0.6,0.8-1.3,0.8-2.1
			c0-0.8-0.3-1.6-0.8-2.1L264,98.3z"/>
	</g>
	<polyline points="261.5,90.2 263.8,94.7 266,90.2 263.8,91.3 	"/>
	<line class="st2" x1="263.8" y1="91.3" x2="263.8" y2="84.1"/>
	<g>
		<path class="st1" d="M263,77.4c0.5-0.6,0.8-1.3,1-2c0-0.2,0-0.2,0.1-0.2c0.1,0,0.1,0.1,0.1,0.1c0,0-0.2,1.2-1.1,2.3
			c-0.1,0.1-0.1,0.1-0.1,0.3c0,0.2,0,1,0.3,1c0,0,0.4,0,0.6-0.5c0-0.1,0.1-0.1,0.1-0.1c0.1,0,0.1,0,0.1,0.1c0,0.2-0.3,0.7-0.8,0.7
			c-0.4,0-0.8-0.3-0.9-0.8c-0.8,0.6-1.5,0.8-2.1,0.8c-1,0-1.6-0.8-1.6-1.7c0-1.4,1.3-2.8,2.7-2.8c0.7,0,1.7,0.5,1.7,2.1V77.4z
			 M262.3,77.1c0-0.8,0-2.1-1-2.1c-0.3,0-0.9,0.2-1.4,0.9c-0.3,0.5-0.6,1.6-0.6,2.1c0,0.6,0.3,1.1,0.9,1.1c0.4,0,1.2-0.1,2-0.9
			C262.3,78,262.3,77.4,262.3,77.1z"/>
	</g>
	<g>
		<path class="st1" d="M267.9,74.3c0.1,0,0.1,0.1,0.1,0.2c0,0.1-0.1,0.2-0.2,0.2c-0.1,0-0.1,0-0.3-0.1l-0.8-0.6
			c0,0.2,0.1,0.7,0.1,0.8c0,0.1,0,0.3,0,0.3c0,0.2-0.1,0.2-0.2,0.2s-0.2-0.1-0.2-0.2l0.1-1.1l-0.9,0.6c-0.1,0.1-0.1,0.1-0.1,0.1
			c-0.1,0-0.2-0.1-0.2-0.2c0-0.1,0.1-0.2,0.2-0.2c0.2-0.1,0.4-0.2,1-0.4l-1.1-0.4c-0.1,0-0.1-0.1-0.1-0.2c0-0.1,0.1-0.2,0.2-0.2
			c0.1,0,0.1,0,0.2,0.1l0.9,0.6c0-0.2-0.1-0.7-0.1-0.8c0-0.1,0-0.3,0-0.3c0-0.2,0.1-0.2,0.2-0.2c0.2,0,0.2,0.2,0.2,0.3l-0.1,1
			l0.9-0.6c0.1-0.1,0.1-0.1,0.1-0.1c0.1,0,0.2,0.1,0.2,0.2c0,0.1-0.1,0.2-0.2,0.2c-0.2,0.1-0.4,0.2-1,0.4L267.9,74.3z"/>
	</g>
	<g>
		<path class="st1" d="M266.9,81.1c0,0.2,0,0.3,0.7,0.3h0.3v0.3c-0.2,0-1,0-1.2,0c-0.3,0-1.1,0-1.2,0v-0.3h0.3
			c0.7,0,0.7-0.1,0.7-0.3v-3.6c-0.4,0.2-0.8,0.2-1,0.2v-0.3c0.3,0,0.9,0,1.4-0.4c0.2,0,0.2,0,0.2,0.2V81.1z"/>
	</g>
	<polyline points="227.3,65.1 231.9,62.8 227.3,60.6 228.5,62.8 	"/>
	<line class="st2" x1="228.5" y1="62.8" x2="221.2" y2="62.8"/>
	<g>
		<path class="st1" d="M235.4,9.5c-1.8,0-3.3-1.5-3.3-3.3c0-1.8,1.5-3.3,3.3-3.3c1.8,0,3.3,1.5,3.3,3.3C238.8,8,237.3,9.5,235.4,9.5
			z M235.2,6.2l-2.1-2.1c-0.5,0.6-0.8,1.3-0.8,2.1c0,0.6,0.2,1.4,0.8,2.1L235.2,6.2z M235.4,6.3l-2.1,2.1c0.8,0.8,1.7,0.8,2.1,0.8
			c1.3,0,2.1-0.8,2.1-0.8c0,0-0.1-0.1-0.1-0.1L235.4,6.3z M235.4,6l2.1-2.1c-0.8-0.8-1.7-0.8-2.1-0.8c-1.3,0-2.1,0.8-2.1,0.8
			c0,0,0.1,0.1,0.1,0.1L235.4,6z M235.6,6.2l2.1,2.1c0.5-0.6,0.8-1.3,0.8-2.1c0-0.8-0.3-1.6-0.8-2.1L235.6,6.2z"/>
	</g>
	<polyline points="237.7,14.2 235.4,9.7 233.1,14.2 235.4,13.1 	"/>
	<line class="st2" x1="235.4" y1="20.3" x2="235.4" y2="13.1"/>
	<g>
		<path class="st1" d="M237.4,29c0,1-0.9,1.9-2.1,1.9c-1.1,0-2-0.7-2-1.6c0-0.4,0.3-0.6,0.6-0.6c0.3,0,0.6,0.2,0.6,0.6
			c0,0.4-0.3,0.6-0.7,0.5c0.3,0.6,1.1,0.8,1.5,0.8c0.4,0,1.1-0.3,1.1-1.6c0-1-0.4-1.7-1.2-1.7h-0.4c-0.2,0-0.2,0-0.2-0.1
			c0-0.1,0.1-0.1,0.1-0.1c0.1,0,0.3,0,0.4,0c0.2,0,0.6,0,0.9-0.5c0.3-0.4,0.3-1,0.3-1.1c0-0.9-0.5-1.1-1-1.1c-0.4,0-1,0.1-1.3,0.6
			c0.1,0,0.6,0,0.6,0.5c0,0.3-0.2,0.5-0.5,0.5c-0.3,0-0.5-0.2-0.5-0.5c0-0.8,0.8-1.4,1.8-1.4c1,0,1.8,0.6,1.8,1.4
			c0,0.8-0.6,1.5-1.4,1.8C236.8,27.4,237.4,28.1,237.4,29z"/>
	</g>
	<g>
		<path class="st1" d="M235.4,66.2c-1.8,0-3.3-1.5-3.3-3.3c0-1.8,1.5-3.3,3.3-3.3c1.8,0,3.3,1.5,3.3,3.3
			C238.8,64.7,237.3,66.2,235.4,66.2z M235.2,62.9l-2.1-2.1c-0.5,0.6-0.8,1.3-0.8,2.1c0,0.6,0.2,1.4,0.8,2.1L235.2,62.9z M235.4,63
			l-2.1,2.1c0.8,0.8,1.7,0.8,2.1,0.8c1.3,0,2.1-0.8,2.1-0.8c0,0-0.1-0.1-0.1-0.1L235.4,63z M235.4,62.7l2.1-2.1
			c-0.8-0.8-1.7-0.8-2.1-0.8c-1.3,0-2.1,0.8-2.1,0.8c0,0,0.1,0.1,0.1,0.1L235.4,62.7z M235.6,62.9l2.1,2.1c0.5-0.6,0.8-1.3,0.8-2.1
			c0-0.8-0.3-1.6-0.8-2.1L235.6,62.9z"/>
	</g>
	<polyline points="237.7,70.9 235.4,66.4 233.1,70.9 235.4,69.8 	"/>
	<line class="st2" x1="235.4" y1="77" x2="235.4" y2="69.8"/>
	<g>
		<path class="st1" d="M237.4,85.6c0,1-0.9,1.9-2.1,1.9c-1.1,0-2-0.7-2-1.6c0-0.4,0.3-0.6,0.6-0.6c0.3,0,0.6,0.2,0.6,0.6
			c0,0.4-0.3,0.6-0.7,0.5c0.3,0.6,1.1,0.8,1.5,0.8c0.4,0,1.1-0.3,1.1-1.6c0-1-0.4-1.7-1.2-1.7h-0.4c-0.2,0-0.2,0-0.2-0.1
			c0-0.1,0.1-0.1,0.1-0.1c0.1,0,0.3,0,0.4,0c0.2,0,0.6,0,0.9-0.5c0.3-0.4,0.3-1,0.3-1.1c0-0.9-0.5-1.1-1-1.1c-0.4,0-1,0.1-1.3,0.6
			c0.1,0,0.6,0,0.6,0.5c0,0.3-0.2,0.5-0.5,0.5c-0.3,0-0.5-0.2-0.5-0.5c0-0.8,0.8-1.4,1.8-1.4c1,0,1.8,0.6,1.8,1.4
			c0,0.8-0.6,1.5-1.4,1.8C236.8,84,237.4,84.8,237.4,85.6z"/>
	</g>
</g>
</svg>
