<svg id="Layer_1" data-name="Layer 1" xmlns="http://www.w3.org/2000/svg" viewBox="0 0 359.263 97.398">
  <defs>
    <style>
      .cls-1, .cls-3, .cls-4 {
        fill: none;
        stroke-miterlimit: 10;
      }

      .cls-1 {
        stroke: red;
        stroke-dasharray: 0 4.535;
      }

      .cls-1, .cls-4 {
        stroke-linecap: round;
        stroke-width: 1.701px;
      }

      .cls-2 {
        fill: #1d1d1b;
      }

      .cls-3 {
        stroke: #000;
        stroke-width: 0.85px;
      }

      .cls-4 {
        stroke: blue;
        stroke-dasharray: 0 4.561;
      }
    </style>
  </defs>
  <title>Freqsampl2</title>
  <g>
    <polygon class="cls-1" points="29.605 48.699 29.605 69.959 213.856 69.959 213.856 27.439 29.605 27.439 29.605 48.699"/>
    <path class="cls-2" d="M2.989,35.408a3.87,3.87,0,0,0-.169.877c0,.339.159.659.548.659.319,0,1-.24,1.325-1.306.02-.069.04-.109.13-.109.03,0,.119,0,.119.1,0,.249-.568,1.534-1.594,1.534a1.1,1.1,0,0,1-1.076-.757,1.324,1.324,0,0,1-1.046.757c-.439,0-.937-.2-.937-.657a.566.566,0,0,1,.548-.578.342.342,0,0,1,.369.349.565.565,0,0,1-.469.538.958.958,0,0,0,.5.13c.439,0,.787-.419.947-1.037a14.494,14.494,0,0,0,.538-2.371c0-.578-.348-.668-.538-.668-.339,0-1,.249-1.335,1.306-.02.089-.05.109-.13.109-.02,0-.119,0-.119-.1,0-.249.568-1.534,1.6-1.534a1.1,1.1,0,0,1,1.076.757,1.291,1.291,0,0,1,1.046-.757c.339,0,.927.139.927.657a.556.556,0,0,1-.538.578.348.348,0,0,1-.379-.348A.58.58,0,0,1,4.813,33a.976.976,0,0,0-.5-.13c-.7,0-.926.917-.986,1.176Z" transform="translate(-0.289)"/>
    <path class="cls-2" d="M6.809,39.544V29.58H8.174v.4H7.207v9.167h.967v.4Z" transform="translate(-0.289)"/>
    <path class="cls-2" d="M9.853,34.163a3.194,3.194,0,0,0,.16-.837c0-.328-.11-.458-.309-.458-.359,0-.558.478-.727,1.186-.06.219-.07.229-.17.229-.02,0-.119,0-.119-.1a5.007,5.007,0,0,1,.3-.966.869.869,0,0,1,.747-.568.9.9,0,0,1,.917.867,1.926,1.926,0,0,1,1.555-.867,1.019,1.019,0,0,1,1.146,1.066,8.982,8.982,0,0,1-.608,2.192,1.893,1.893,0,0,0-.18.707c0,.23.07.33.24.33.488,0,.817-.559,1.016-1.236.05-.149.05-.179.149-.179.03,0,.12,0,.12.1,0,.08-.369,1.534-1.3,1.534a.8.8,0,0,1-.818-.816,1.151,1.151,0,0,1,.1-.459,9.466,9.466,0,0,0,.648-2.321c0-.329-.09-.7-.538-.7a1.981,1.981,0,0,0-1.624,1.216c-.01.04-.09.328-.13.5-.05.229-.109.448-.169.667l-.219.9c-.06.249-.18.716-.19.737a.406.406,0,0,1-.368.278.266.266,0,0,1-.289-.268c0-.05.06-.28.089-.429Z" transform="translate(-0.289)"/>
    <path class="cls-2" d="M15.975,39.544H14.61v-.4h.966V29.979H14.61v-.4h1.365Z" transform="translate(-0.289)"/>
    <polyline points="177.431 36.794 181.967 34.526 177.431 32.258 178.565 34.526"/>
    <path class="cls-3" d="M22.808,34.526H178.854M36.981,55.786V34.526" transform="translate(-0.289)"/>
    <path class="cls-2" d="M54.023,58.507a.856.856,0,0,0-.04.209c0,.159.08.189.369.219.259.02.389.02.638.02s.339,0,.339.11c0,.2-.12.2-.22.2-.279,0-.578-.02-.867-.02-.269,0-.548-.01-.826-.01s-.568.01-.848.01-.547.02-.817.02c-.06,0-.169,0-.169-.119,0-.19.06-.19.418-.19,1.066,0,1.1-.11,1.186-.478l1.335-5.322a.959.959,0,0,0,.04-.208c0-.08,0-.12-.279-.12h-.388c-1.475,0-1.734.179-2.272,1.724-.06.159-.07.209-.169.209a.113.113,0,0,1-.12-.109,1.266,1.266,0,0,1,.06-.18l.6-1.753c.069-.189.079-.2.319-.2h5.529c.17,0,.269,0,.269.11a1,1,0,0,1-.02.169l-.269,1.734c-.02.15-.039.229-.149.229a.117.117,0,0,1-.12-.129,1.441,1.441,0,0,1,.03-.189,7.383,7.383,0,0,0,.08-.8c0-.777-.449-.817-1.455-.817a5.4,5.4,0,0,0-.627.02c-.12.03-.16.09-.23.369Z" transform="translate(-0.289)"/>
    <polygon class="cls-3" points="43.778 55.786 43.778 62.872 65.038 62.872 65.038 48.699 43.778 48.699 43.778 55.786"/>
    <polyline points="39.243 58.053 43.778 55.786 39.243 53.518 40.377 55.786"/>
    <line class="cls-3" x1="36.692" y1="55.786" x2="40.377" y2="55.786"/>
    <path class="cls-2" d="M82.375,58.507a.856.856,0,0,0-.04.209c0,.159.08.189.369.219.258.02.388.02.637.02s.339,0,.339.11c0,.2-.119.2-.219.2-.279,0-.578-.02-.867-.02-.269,0-.548-.01-.827-.01s-.568.01-.847.01-.548.02-.817.02c-.06,0-.169,0-.169-.119,0-.19.059-.19.418-.19,1.066,0,1.1-.11,1.186-.478l1.335-5.322a.959.959,0,0,0,.04-.208c0-.08,0-.12-.279-.12h-.389c-1.474,0-1.734.179-2.271,1.724-.06.159-.07.209-.17.209a.112.112,0,0,1-.119-.109,1.26,1.26,0,0,1,.059-.18l.6-1.753c.07-.189.08-.2.319-.2h5.53c.169,0,.269,0,.269.11a1.116,1.116,0,0,1-.02.169l-.269,1.734c-.02.15-.04.229-.15.229a.116.116,0,0,1-.119-.129,1.441,1.441,0,0,1,.03-.189,7.383,7.383,0,0,0,.08-.8c0-.777-.449-.817-1.455-.817a5.429,5.429,0,0,0-.628.02c-.119.03-.159.09-.229.369Z" transform="translate(-0.289)"/>
    <polygon class="cls-3" points="72.125 55.786 72.125 62.872 93.385 62.872 93.385 48.699 72.125 48.699 72.125 55.786"/>
    <polyline points="67.589 58.053 72.125 55.786 67.589 53.518 68.723 55.786"/>
    <line class="cls-3" x1="65.038" y1="55.786" x2="68.723" y2="55.786"/>
    <path class="cls-2" d="M110.718,58.507a.876.876,0,0,0-.039.209c0,.159.079.189.368.219.259.02.389.02.638.02s.339,0,.339.11c0,.2-.12.2-.219.2-.28,0-.578-.02-.867-.02-.27,0-.548-.01-.827-.01s-.568.01-.847.01-.548.02-.817.02c-.06,0-.17,0-.17-.119,0-.19.06-.19.419-.19,1.066,0,1.1-.11,1.185-.478l1.336-5.322a.966.966,0,0,0,.039-.208c0-.08,0-.12-.278-.12h-.389c-1.475,0-1.734.179-2.272,1.724-.06.159-.069.209-.169.209a.113.113,0,0,1-.12-.109,1.266,1.266,0,0,1,.06-.18l.6-1.753c.069-.189.08-.2.319-.2h5.53c.169,0,.269,0,.269.11a1.116,1.116,0,0,1-.02.169l-.269,1.734c-.02.15-.04.229-.15.229a.116.116,0,0,1-.119-.129,1.617,1.617,0,0,1,.029-.189,7.383,7.383,0,0,0,.08-.8c0-.777-.448-.817-1.455-.817a5.4,5.4,0,0,0-.627.02c-.12.03-.16.09-.23.369Z" transform="translate(-0.289)"/>
    <polygon class="cls-3" points="100.471 55.786 100.471 62.872 121.731 62.872 121.731 48.699 100.471 48.699 100.471 55.786"/>
    <polyline points="95.936 58.053 100.471 55.786 95.936 53.518 97.07 55.786"/>
    <line class="cls-3" x1="93.385" y1="55.786" x2="97.07" y2="55.786"/>
    <path class="cls-2" d="M139.062,58.507a.856.856,0,0,0-.04.209c0,.159.08.189.369.219.259.02.389.02.638.02s.339,0,.339.11c0,.2-.12.2-.22.2-.279,0-.578-.02-.867-.02-.269,0-.548-.01-.826-.01s-.568.01-.848.01-.547.02-.816.02c-.061,0-.17,0-.17-.119,0-.19.06-.19.419-.19,1.065,0,1.1-.11,1.185-.478l1.336-5.322a1.031,1.031,0,0,0,.039-.208c0-.08,0-.12-.279-.12h-.388c-1.475,0-1.734.179-2.272,1.724-.06.159-.07.209-.169.209a.113.113,0,0,1-.12-.109,1.266,1.266,0,0,1,.06-.18l.6-1.753c.069-.189.079-.2.319-.2h5.529c.17,0,.269,0,.269.11a1,1,0,0,1-.02.169l-.269,1.734c-.02.15-.039.229-.149.229a.117.117,0,0,1-.12-.129,1.441,1.441,0,0,1,.03-.189,7.383,7.383,0,0,0,.08-.8c0-.777-.449-.817-1.455-.817a5.4,5.4,0,0,0-.627.02c-.12.03-.16.09-.23.369Z" transform="translate(-0.289)"/>
    <polygon class="cls-3" points="128.817 55.786 128.817 62.872 150.077 62.872 150.077 48.699 128.817 48.699 128.817 55.786"/>
    <polyline points="124.282 58.053 128.817 55.786 124.282 53.518 125.416 55.786"/>
    <line class="cls-3" x1="121.731" y1="55.786" x2="125.416" y2="55.786"/>
    <path class="cls-2" d="M167.414,58.507a.856.856,0,0,0-.04.209c0,.159.08.189.369.219.258.02.388.02.637.02s.339,0,.339.11c0,.2-.119.2-.219.2-.279,0-.578-.02-.867-.02-.269,0-.548-.01-.827-.01s-.568.01-.847.01-.548.02-.817.02c-.06,0-.169,0-.169-.119,0-.19.059-.19.418-.19,1.066,0,1.1-.11,1.186-.478l1.335-5.322a.959.959,0,0,0,.04-.208c0-.08,0-.12-.279-.12h-.389c-1.474,0-1.734.179-2.271,1.724-.06.159-.07.209-.17.209a.112.112,0,0,1-.119-.109,1.26,1.26,0,0,1,.059-.18l.6-1.753c.07-.189.08-.2.319-.2h5.53c.169,0,.269,0,.269.11a1.116,1.116,0,0,1-.02.169l-.269,1.734c-.02.15-.04.229-.149.229a.117.117,0,0,1-.12-.129,1.441,1.441,0,0,1,.03-.189,7.383,7.383,0,0,0,.08-.8c0-.777-.449-.817-1.455-.817a5.429,5.429,0,0,0-.628.02c-.119.03-.159.09-.229.369Z" transform="translate(-0.289)"/>
    <polygon class="cls-3" points="157.164 55.786 157.164 62.872 178.423 62.872 178.423 48.699 157.164 48.699 157.164 55.786"/>
    <polyline points="152.628 58.053 157.164 55.786 152.628 53.518 153.762 55.786"/>
    <line class="cls-3" x1="150.077" y1="55.786" x2="153.762" y2="55.786"/>
    <path class="cls-2" d="M185.827,37.88a3.318,3.318,0,1,1,3.328-3.318A3.322,3.322,0,0,1,185.827,37.88Zm-.12-3.448V31.493a3.086,3.086,0,0,0-2.95,2.939Zm0,.249h-2.95a3.08,3.08,0,0,0,2.95,2.95Zm.249-.249h2.95a3.085,3.085,0,0,0-2.95-2.939Zm0,.249v2.95a3.087,3.087,0,0,0,2.95-2.95Z" transform="translate(-0.289)"/>
    <polyline points="187.778 42.605 185.51 38.069 183.242 42.605 185.51 41.471"/>
    <line class="cls-3" x1="185.51" y1="55.786" x2="185.51" y2="41.471"/>
    <path class="cls-2" d="M177.141,41.908V41.33h2.64v.578Z" transform="translate(-0.289)"/>
    <line class="cls-3" x1="178.423" y1="55.786" x2="185.51" y2="55.786"/>
    <polyline points="191.604 36.794 196.14 34.526 191.604 32.258 192.738 34.526"/>
    <path class="cls-3" d="M189.342,34.526h3.685m10.488,0h17.717" transform="translate(-0.289)"/>
    <path class="cls-2" d="M200,37.88a3.318,3.318,0,1,1,3.328-3.318A3.323,3.323,0,0,1,200,37.88Zm-.18-3.318-2.082-2.082a3.133,3.133,0,0,0-.808,2.082,3.092,3.092,0,0,0,.808,2.083Zm.18.169-2.073,2.083a3.009,3.009,0,0,0,2.082.817,2.912,2.912,0,0,0,2.063-.817c0-.02-.07-.09-.09-.11Zm.009-.338,2.073-2.083A3.009,3.009,0,0,0,200,31.493a2.912,2.912,0,0,0-2.063.817c0,.02.069.09.09.11Zm.18.169,2.082,2.083a3.136,3.136,0,0,0,.808-2.083,3.086,3.086,0,0,0-.818-2.082Z" transform="translate(-0.289)"/>
    <polyline points="201.951 42.605 199.683 38.069 197.415 42.605 199.683 41.471"/>
    <line class="cls-3" x1="199.683" y1="45.156" x2="199.683" y2="41.471"/>
    <g>
      <path class="cls-2" d="M195.46,53.977c0,.368.03.478.927.478h.319v.309c-.349-.03-1.216-.03-1.615-.03s-1.265,0-1.614.03v-.309h.319c.9,0,.927-.12.927-.478V48.816a3,3,0,0,1-1.306.258v-.308a2.461,2.461,0,0,0,1.814-.638c.229,0,.229.02.229.259Z" transform="translate(-0.289)"/>
      <path class="cls-2" d="M198.539,57.056c-.031.1-.071.2-.21.2a.2.2,0,0,1-.2-.2.479.479,0,0,1,.05-.18l3.4-9.386c.029-.1.069-.2.209-.2a.2.2,0,0,1,.2.2.477.477,0,0,1-.05.179Z" transform="translate(-0.289)"/>
      <path class="cls-2" d="M204.915,54.983a1.829,1.829,0,0,1-1.8-1.824.494.494,0,1,1,.488.449.445.445,0,0,1-.169-.02A1.552,1.552,0,0,0,204.9,54.7a1.244,1.244,0,0,0,1.065-.647,2.889,2.889,0,0,0,.24-1.365,3.059,3.059,0,0,0-.18-1.256.971.971,0,0,0-.847-.638,1.5,1.5,0,0,0-1.285.7c-.04.061-.059.09-.13.09-.138,0-.138-.079-.138-.259V48.377c0-.159,0-.239.1-.239a.3.3,0,0,1,.119.03,3.243,3.243,0,0,0,1.326.279,3.282,3.282,0,0,0,1.355-.29.148.148,0,0,1,.079-.029.1.1,0,0,1,.1.11,2.174,2.174,0,0,1-1.923,1.036,3.15,3.15,0,0,1-.847-.13v1.943a1.752,1.752,0,0,1,1.266-.508,2.044,2.044,0,0,1,1.892,2.182A2.2,2.2,0,0,1,204.915,54.983Z" transform="translate(-0.289)"/>
    </g>
    <polyline points="230.581 11.991 235.116 9.723 230.581 7.455 231.714 9.723"/>
    <line class="cls-3" x1="220.943" y1="9.723" x2="231.714" y2="9.723"/>
    <polyline points="246.738 42.888 242.203 45.156 246.738 47.423 245.604 45.156"/>
    <line class="cls-3" x1="245.604" y1="45.156" x2="252.832" y2="45.156"/>
    <polyline points="240.927 53.234 238.659 48.699 236.392 53.234 238.659 52.101"/>
    <line class="cls-3" x1="238.659" y1="87.675" x2="238.659" y2="52.101"/>
    <polyline points="240.927 17.802 238.659 13.266 236.392 17.802 238.659 16.668"/>
    <line class="cls-3" x1="238.659" y1="41.612" x2="238.659" y2="16.668"/>
    <path class="cls-2" d="M238.975,48.505a3.318,3.318,0,1,1,3.328-3.318A3.323,3.323,0,0,1,238.975,48.505Zm-.12-3.447v-2.94a3.083,3.083,0,0,0-2.949,2.94Zm0,.249h-2.949a3.078,3.078,0,0,0,2.949,2.949Zm.249-.249h2.95a3.085,3.085,0,0,0-2.95-2.94Zm0,.249v2.949a3.086,3.086,0,0,0,2.95-2.949Z" transform="translate(-0.289)"/>
    <path class="cls-2" d="M238.975,13.068A3.319,3.319,0,1,1,242.3,9.749,3.324,3.324,0,0,1,238.975,13.068Zm-.12-3.448V6.68a3.084,3.084,0,0,0-2.949,2.94Zm0,.249h-2.949a3.079,3.079,0,0,0,2.949,2.95Zm.249-.249h2.95a3.086,3.086,0,0,0-2.95-2.94Zm0,.249v2.95a3.087,3.087,0,0,0,2.95-2.95Z" transform="translate(-0.289)"/>
    <path class="cls-3" d="M238.948,87.675h14.174M242.492,9.723h10.63" transform="translate(-0.289)"/>
    <polyline points="264.454 42.888 259.919 45.156 264.454 47.423 263.321 45.156"/>
    <line class="cls-3" x1="263.321" y1="45.156" x2="277.635" y2="45.156"/>
    <path class="cls-2" d="M256.686,48.505a3.318,3.318,0,1,1,3.328-3.318A3.323,3.323,0,0,1,256.686,48.505Zm-.18-3.318-2.082-2.082a3.137,3.137,0,0,0-.807,2.082,3.1,3.1,0,0,0,.807,2.083Zm.18.17-2.072,2.082a3.006,3.006,0,0,0,2.082.817,2.908,2.908,0,0,0,2.062-.817c0-.02-.069-.09-.09-.11Zm.01-.339,2.072-2.083a3.006,3.006,0,0,0-2.082-.817,2.908,2.908,0,0,0-2.062.817c0,.02.069.09.089.11Zm.179.169,2.083,2.083a3.14,3.14,0,0,0,.807-2.083,3.09,3.09,0,0,0-.817-2.082Z" transform="translate(-0.289)"/>
    <path class="cls-2" d="M255.876,21.13a.262.262,0,0,1,.29.269,1.419,1.419,0,0,1-.07.338l-.359,1.4c-.089.379-.11.479-.219.9a2.56,2.56,0,0,0-.13.737c0,.2.03.459.3.459.409,0,.588-.588.758-1.236.029-.14.04-.179.139-.179.03,0,.12,0,.12.1a5.111,5.111,0,0,1-.3.987.831.831,0,0,1-.738.548.905.905,0,0,1-.906-.747,1.68,1.68,0,0,1-1.3.747,1.417,1.417,0,0,1-1.325-1.595c0-1.454,1.235-2.919,2.4-2.919a1,1,0,0,1,.916.638A.461.461,0,0,1,255.876,21.13Zm-.567,1.066a.86.86,0,0,0,.029-.17c0-.059-.139-.877-.787-.877a1.537,1.537,0,0,0-1.155.957,7.32,7.32,0,0,0-.548,2.182c0,.388.139.937.638.937a1.545,1.545,0,0,0,1.125-.708.646.646,0,0,0,.2-.368Z" transform="translate(-0.289)"/>
    <path class="cls-2" d="M259.359,26.2c0,.23,0,.321.7.321h.266v.251c-.155-.007-1.032-.028-1.249-.028-.258,0-1.115.021-1.241.028v-.251h.265c.7,0,.7-.091.7-.321V22.644a2.3,2.3,0,0,1-1.011.2v-.251a1.9,1.9,0,0,0,1.367-.447c.2,0,.209.008.209.2Z" transform="translate(-0.289)"/>
    <polyline points="254.108 37.077 256.376 41.612 258.643 37.077 256.376 38.211"/>
    <line class="cls-3" x1="256.376" y1="38.211" x2="256.376" y2="30.983"/>
    <polyline points="264.454 85.407 259.919 87.675 264.454 89.943 263.321 87.675"/>
    <line class="cls-3" x1="263.321" y1="87.675" x2="277.635" y2="87.675"/>
    <path class="cls-2" d="M256.686,91.021a3.318,3.318,0,1,1,3.328-3.319A3.324,3.324,0,0,1,256.686,91.021Zm-.18-3.319-2.082-2.082a3.139,3.139,0,0,0-.807,2.082,3.092,3.092,0,0,0,.807,2.083Zm.18.17-2.072,2.082a3,3,0,0,0,2.082.818,2.907,2.907,0,0,0,2.062-.818c0-.019-.069-.09-.09-.109Zm.01-.339,2.072-2.083a3.008,3.008,0,0,0-2.082-.816,2.909,2.909,0,0,0-2.062.816c0,.021.069.09.089.111Zm.179.169,2.083,2.083a3.138,3.138,0,0,0,.807-2.083,3.092,3.092,0,0,0-.817-2.082Z" transform="translate(-0.289)"/>
    <path class="cls-2" d="M255.876,63.645a.262.262,0,0,1,.29.269,1.411,1.411,0,0,1-.07.339l-.359,1.395c-.089.379-.11.478-.219.9a2.57,2.57,0,0,0-.13.737c0,.2.03.459.3.459.409,0,.588-.587.758-1.235.029-.14.04-.18.139-.18.03,0,.12,0,.12.1a5.089,5.089,0,0,1-.3.986.83.83,0,0,1-.738.548.9.9,0,0,1-.906-.747,1.68,1.68,0,0,1-1.3.747,1.416,1.416,0,0,1-1.325-1.594c0-1.455,1.235-2.919,2.4-2.919a1,1,0,0,1,.916.637A.461.461,0,0,1,255.876,63.645Zm-.567,1.066a.85.85,0,0,0,.029-.169c0-.06-.139-.877-.787-.877a1.535,1.535,0,0,0-1.155.956,7.334,7.334,0,0,0-.548,2.183c0,.389.139.936.638.936a1.541,1.541,0,0,0,1.125-.708.646.646,0,0,0,.2-.368Z" transform="translate(-0.289)"/>
    <path class="cls-2" d="M260.335,69.3h-2.873c0-.2,0-.209.07-.271l1.68-1.661a2.112,2.112,0,0,0,.656-1.338,1.044,1.044,0,0,0-1.06-1.109,1.1,1.1,0,0,0-1.018.649c.363,0,.412.244.412.369a.37.37,0,1,1-.74-.021,1.353,1.353,0,0,1,1.451-1.248,1.459,1.459,0,0,1,1.631,1.36,2.015,2.015,0,0,1-1,1.5c-.419.329-.662.524-1.394,1.172h1.283a3.583,3.583,0,0,0,.69-.042,1.608,1.608,0,0,0,.181-.634h.237Z" transform="translate(-0.289)"/>
    <polyline points="254.108 79.596 256.376 84.132 258.643 79.596 256.376 80.73"/>
    <line class="cls-3" x1="256.376" y1="80.73" x2="256.376" y2="73.502"/>
    <polyline points="290.817 11.991 295.352 9.723 290.817 7.455 291.95 9.723"/>
    <line class="cls-3" x1="252.832" y1="9.723" x2="291.95" y2="9.723"/>
    <path class="cls-2" d="M277.25,30.155a.837.837,0,0,0-.041.209c0,.16.081.189.369.22.259.019.388.019.637.019s.339,0,.339.11c0,.2-.119.2-.219.2-.279,0-.578-.02-.867-.02-.268,0-.548-.009-.827-.009s-.567.009-.847.009-.547.02-.817.02c-.06,0-.169,0-.169-.119,0-.19.06-.19.418-.19,1.066,0,1.1-.109,1.187-.478l1.335-5.321a1.021,1.021,0,0,0,.04-.209c0-.08,0-.119-.28-.119h-.388c-1.475,0-1.734.179-2.272,1.723-.059.16-.07.209-.17.209a.112.112,0,0,1-.119-.109,1.214,1.214,0,0,1,.06-.179l.6-1.754c.071-.19.08-.2.32-.2h5.53c.169,0,.268,0,.268.109a1.1,1.1,0,0,1-.019.17l-.27,1.733c-.019.15-.04.229-.149.229a.116.116,0,0,1-.119-.129,1.455,1.455,0,0,1,.029-.189,7.344,7.344,0,0,0,.08-.8c0-.778-.448-.817-1.455-.817a5.713,5.713,0,0,0-.628.019c-.119.031-.159.09-.228.369Z" transform="translate(-0.289)"/>
    <polygon class="cls-3" points="267.006 27.439 267.006 34.526 288.265 34.526 288.265 20.353 267.006 20.353 267.006 27.439"/>
    <polyline points="275.368 15.817 277.635 20.353 279.903 15.817 277.635 16.951"/>
    <line class="cls-3" x1="277.635" y1="9.723" x2="277.635" y2="16.951"/>
    <polyline points="275.368 58.337 277.635 62.872 279.903 58.337 277.635 59.471"/>
    <line class="cls-3" x1="277.635" y1="34.526" x2="277.635" y2="59.471"/>
    <polyline points="290.817 47.423 295.352 45.156 290.817 42.888 291.95 45.156"/>
    <line class="cls-3" x1="277.635" y1="45.156" x2="291.95" y2="45.156"/>
    <path class="cls-2" d="M277.25,72.679a.837.837,0,0,0-.041.209c0,.159.081.189.369.219.259.02.388.02.637.02s.339,0,.339.11c0,.2-.119.2-.219.2-.279,0-.578-.02-.867-.02-.268,0-.548-.011-.827-.011s-.567.011-.847.011-.547.02-.817.02c-.06,0-.169,0-.169-.119,0-.19.06-.19.418-.19,1.066,0,1.1-.11,1.187-.478l1.335-5.322a1.021,1.021,0,0,0,.04-.209c0-.079,0-.119-.28-.119h-.388c-1.475,0-1.734.179-2.272,1.724-.059.159-.07.209-.17.209a.113.113,0,0,1-.119-.11,1.3,1.3,0,0,1,.06-.179l.6-1.753c.071-.19.08-.2.32-.2h5.53c.169,0,.268,0,.268.11a1.106,1.106,0,0,1-.019.169l-.27,1.734c-.019.15-.04.229-.149.229a.116.116,0,0,1-.119-.129,1.469,1.469,0,0,1,.029-.19,7.344,7.344,0,0,0,.08-.8c0-.777-.448-.817-1.455-.817a5.429,5.429,0,0,0-.628.02c-.119.03-.159.09-.228.369Z" transform="translate(-0.289)"/>
    <path class="cls-3" d="M267.3,69.959v7.086h21.259V62.872H267.3Zm10.63,7.086v10.63" transform="translate(-0.289)"/>
    <path class="cls-2" d="M324.014,13.068a3.319,3.319,0,1,1,3.328-3.319A3.324,3.324,0,0,1,324.014,13.068Zm-.12-3.448V6.68a3.084,3.084,0,0,0-2.949,2.94Zm0,.249h-2.949a3.079,3.079,0,0,0,2.949,2.95Zm.249-.249h2.95a3.085,3.085,0,0,0-2.95-2.94Zm0,.249v2.95a3.087,3.087,0,0,0,2.95-2.95Z" transform="translate(-0.289)"/>
    <polyline points="315.619 11.991 320.155 9.723 315.619 7.455 316.753 9.723"/>
    <line class="cls-3" x1="302.438" y1="9.723" x2="316.753" y2="9.723"/>
    <path class="cls-2" d="M299.209,13.068a3.319,3.319,0,1,1,3.329-3.319A3.324,3.324,0,0,1,299.209,13.068Zm-.179-3.319-2.082-2.082a3.133,3.133,0,0,0-.808,2.082,3.088,3.088,0,0,0,.808,2.083Zm.179.17L297.137,12a3.006,3.006,0,0,0,2.082.818A2.91,2.91,0,0,0,301.282,12c0-.02-.07-.089-.09-.109Zm.01-.339L301.292,7.5a3.007,3.007,0,0,0-2.083-.818,2.909,2.909,0,0,0-2.062.818c0,.019.069.089.09.109Zm.18.169,2.082,2.083a3.134,3.134,0,0,0,.808-2.083,3.086,3.086,0,0,0-.818-2.082Z" transform="translate(-0.289)"/>
    <path class="cls-2" d="M296.511,29.942a1.71,1.71,0,0,1,1.165-.6A1.42,1.42,0,0,1,299,30.938c0,1.435-1.225,2.92-2.4,2.92-.737,0-1.265-.618-1.265-1.564a3.607,3.607,0,0,1,.16-1.007l.816-3.248c.05-.209.14-.548.14-.618,0-.1-.02-.169-.5-.169-.15,0-.24,0-.24-.12,0-.179.111-.189.19-.2.259-.02.986-.1,1.216-.1.13,0,.13.1.13.11Zm-.419,1.684a3.482,3.482,0,0,0-.159,1.006c0,.738.328,1.007.667,1.007.389,0,.848-.359,1.176-1.026a7.052,7.052,0,0,0,.509-2.113c0-.637-.27-.937-.628-.937a1.628,1.628,0,0,0-1.2.8.692.692,0,0,0-.149.348Z" transform="translate(-0.289)"/>
    <path class="cls-2" d="M301.16,35.325c-1.618,0-1.618-1.861-1.618-2.364s0-2.406,1.618-2.406a1.449,1.449,0,0,1,1.206.6,3.1,3.1,0,0,1,.412,1.806C302.778,33.464,302.778,35.325,301.16,35.325Zm.892-.983a7.588,7.588,0,0,0,.091-1.471,5.653,5.653,0,0,0-.119-1.486.9.9,0,0,0-1.743.063,5.957,5.957,0,0,0-.105,1.423,7.2,7.2,0,0,0,.1,1.5.9.9,0,0,0,1.778-.028Z" transform="translate(-0.289)"/>
    <polyline points="301.163 17.802 298.895 13.266 296.627 17.802 298.895 16.668"/>
    <line class="cls-3" x1="298.895" y1="23.896" x2="298.895" y2="16.668"/>
    <polyline points="325.966 17.802 323.698 13.266 321.43 17.802 323.698 16.668"/>
    <line class="cls-3" x1="323.698" y1="45.156" x2="323.698" y2="16.668"/>
    <path class="cls-2" d="M299.209,48.505a3.318,3.318,0,1,1,3.329-3.318A3.323,3.323,0,0,1,299.209,48.505Zm-.179-3.318-2.082-2.082a3.133,3.133,0,0,0-.808,2.082,3.092,3.092,0,0,0,.808,2.083Zm.179.17-2.072,2.082a3.009,3.009,0,0,0,2.082.817,2.912,2.912,0,0,0,2.063-.817c0-.02-.07-.09-.09-.11Zm.01-.339,2.073-2.083a3.009,3.009,0,0,0-2.083-.817,2.911,2.911,0,0,0-2.062.817c0,.02.069.09.09.11Zm.18.169,2.082,2.083a3.136,3.136,0,0,0,.808-2.083,3.086,3.086,0,0,0-.818-2.082Z" transform="translate(-0.289)"/>
    <path class="cls-2" d="M296.511,65.371a1.713,1.713,0,0,1,1.165-.6A1.42,1.42,0,0,1,299,66.368c0,1.435-1.225,2.919-2.4,2.919-.737,0-1.265-.617-1.265-1.564a3.6,3.6,0,0,1,.16-1.006l.816-3.248c.05-.21.14-.549.14-.618,0-.1-.02-.169-.5-.169-.15,0-.24,0-.24-.12,0-.18.111-.19.19-.2.259-.02.986-.1,1.216-.1.13,0,.13.1.13.109Zm-.419,1.685a3.478,3.478,0,0,0-.159,1.006c0,.737.328,1.007.667,1.007.389,0,.848-.36,1.176-1.027a7.045,7.045,0,0,0,.509-2.112c0-.638-.27-.937-.628-.937a1.629,1.629,0,0,0-1.2.8.7.7,0,0,0-.149.349Z" transform="translate(-0.289)"/>
    <path class="cls-2" d="M301.515,70.043c0,.231,0,.321.7.321h.266v.251c-.154-.006-1.032-.028-1.249-.028-.258,0-1.115.022-1.241.028v-.251h.265c.7,0,.7-.09.7-.321V66.488a2.3,2.3,0,0,1-1.012.2v-.251a1.909,1.909,0,0,0,1.367-.446c.195,0,.209.006.209.195Z" transform="translate(-0.289)"/>
    <polyline points="301.163 53.234 298.895 48.699 296.627 53.234 298.895 52.101"/>
    <path class="cls-3" d="M299.184,59.329V52.1m3.544-6.945h21.259" transform="translate(-0.289)"/>
    <polyline points="336.879 11.991 341.415 9.723 336.879 7.455 338.013 9.723"/>
    <line class="cls-3" x1="327.241" y1="9.723" x2="338.013" y2="9.723"/>
    <path class="cls-2" d="M347.815,12.25a2.627,2.627,0,0,1-2.331,2.033.943.943,0,0,1-1.057-.867.574.574,0,0,1,.559-.647.339.339,0,0,1,.368.348.543.543,0,0,1-.2.409.573.573,0,0,1-.429.119.806.806,0,0,0,.758.419,1.427,1.427,0,0,0,1.1-.628,3.823,3.823,0,0,0,.647-1.534,1.4,1.4,0,0,1-1.006.448,1.111,1.111,0,0,1-1.216-1.186,6.59,6.59,0,0,1,.578-2.092,2.1,2.1,0,0,0,.169-.7c0-.319-.169-.319-.249-.319-.338,0-.737.3-1,1.236-.05.159-.061.179-.161.179-.019,0-.119,0-.119-.1s.368-1.535,1.316-1.535a.79.79,0,0,1,.816.818,1.789,1.789,0,0,1-.2.717,5.934,5.934,0,0,0-.508,1.953c0,.369.109.807.618.807a1.385,1.385,0,0,0,1.125-.847l.449-1.794c.06-.269.129-.538.2-.8.039-.179.119-.488.139-.538a.433.433,0,0,1,.349-.209.267.267,0,0,1,.289.269.622.622,0,0,1-.04.229Z" transform="translate(-0.289)"/>
    <path class="cls-2" d="M350.386,14.732V4.767h1.365v.4h-.966v9.167h.966v.4Z" transform="translate(-0.289)"/>
    <path class="cls-2" d="M353.431,9.351a3.227,3.227,0,0,0,.159-.837c0-.329-.109-.459-.308-.459-.36,0-.559.479-.728,1.186-.059.22-.07.229-.17.229-.019,0-.119,0-.119-.1a5.035,5.035,0,0,1,.3-.966.87.87,0,0,1,.747-.569.9.9,0,0,1,.917.867,1.925,1.925,0,0,1,1.555-.867A1.018,1.018,0,0,1,356.928,8.9a9.016,9.016,0,0,1-.607,2.191,1.9,1.9,0,0,0-.18.708c0,.229.069.329.239.329.489,0,.817-.558,1.016-1.236.051-.149.051-.179.15-.179.03,0,.12,0,.12.1,0,.079-.37,1.534-1.306,1.534a.8.8,0,0,1-.817-.817,1.139,1.139,0,0,1,.1-.459,9.5,9.5,0,0,0,.648-2.321c0-.329-.09-.7-.539-.7a1.984,1.984,0,0,0-1.624,1.216c-.009.04-.089.329-.129.5-.05.23-.11.449-.169.668l-.22.9c-.06.249-.179.717-.19.737a.407.407,0,0,1-.368.279.267.267,0,0,1-.289-.269c0-.05.06-.279.09-.428Z" transform="translate(-0.289)"/>
    <path class="cls-2" d="M359.552,14.732h-1.365v-.4h.967V5.166h-.967v-.4h1.365Z" transform="translate(-0.289)"/>
    <line class="cls-3" x1="220.943" y1="9.723" x2="220.943" y2="34.526"/>
    <polygon class="cls-4" points="229.815 48.699 229.815 0.85 332.542 0.85 332.542 96.548 229.815 96.548 229.815 48.699"/>
  </g>
</svg>
