<?xml version="1.0" encoding="utf-8"?>
<!-- Generator: Adobe Illustrator 22.1.0, SVG Export Plug-In . SVG Version: 6.00 Build 0)  -->
<svg version="1.1" id="Layer_1" xmlns="http://www.w3.org/2000/svg" xmlns:xlink="http://www.w3.org/1999/xlink" x="0px" y="0px"
	 viewBox="0 0 425.8 58.5" style="enable-background:new 0 0 425.8 58.5;" xml:space="preserve">
<style type="text/css">
	.st0{fill:none;stroke:#000000;stroke-width:0.8504;stroke-miterlimit:10;}
	.st1{fill:#1D1D1B;}
	.st2{fill:#FF0000;}
	.st3{fill:#0000FF;}
</style>
<g>
	<path class="st0" d="M214.1,23.4h14.2 M214.1,27h14.2 M228.3,23.4v-3.5 M228.3,19.9l7.1,5.3 M235.4,25.2l-7.1,5.3 M228.3,30.5V27
		 M214.1,23.4v-3.5 M214.1,19.9l-7.1,5.3 M207.1,25.2l7.1,5.3 M214.1,30.5V27 M58.2,25.2V0.4h35.4V50H58.2V25.2z"/>
	<polyline points="53.7,16.9 58.2,14.6 53.7,12.3 54.8,14.6 	"/>
	<line class="st0" x1="29.9" y1="14.6" x2="54.8" y2="14.6"/>
	<polyline points="53.7,38.1 58.2,35.9 53.7,33.6 54.8,35.9 	"/>
	<line class="st0" x1="29.9" y1="35.9" x2="54.8" y2="35.9"/>
	<g>
		<path class="st1" d="M33.1,9.1c0,0.1-0.2,1.3-0.6,1.9c-0.2,0.4-0.6,1-1.1,1c-0.4,0-0.8-0.2-0.8-0.7c0-0.4,0.3-0.6,0.5-0.6
			c0.2,0,0.4,0.1,0.4,0.3c0,0.1-0.1,0.5-0.5,0.5c0.2,0.2,0.4,0.2,0.5,0.2c0.5,0,0.7-0.9,0.9-1.9l0.7-3.9h-0.7c-0.2,0-0.3,0-0.3-0.1
			c0-0.2,0.1-0.2,0.3-0.2h0.7c0.2-1.3,0.3-1.4,0.3-1.6c0.3-1,0.9-1.2,1.3-1.2c0.4,0,0.9,0.2,0.9,0.7c0,0.4-0.3,0.6-0.5,0.6
			c-0.2,0-0.4-0.1-0.4-0.3c0-0.1,0.1-0.5,0.5-0.5c-0.2-0.2-0.4-0.2-0.5-0.2c-0.2,0-0.4,0.1-0.5,0.3c-0.1,0.1-0.2,0.8-0.2,1l-0.2,1.1
			h0.8c0.2,0,0.3,0,0.3,0.1c0,0.2-0.1,0.2-0.3,0.2h-0.9L33.1,9.1z"/>
	</g>
	<g>
		<path class="st1" d="M37,11.5c-1.6,0-1.6-1.9-1.6-2.4c0-0.5,0-2.4,1.6-2.4c0.6,0,1,0.3,1.2,0.6c0.3,0.5,0.4,1,0.4,1.8
			C38.6,9.6,38.6,11.5,37,11.5z M37.9,10.5C38,10.1,38,9.6,38,9c0-0.6,0-1.1-0.1-1.5c-0.1-0.4-0.5-0.6-0.9-0.6
			c-0.3,0-0.7,0.1-0.9,0.7C36,8,36,8.5,36,9c0,0.5,0,1.1,0.1,1.5c0.1,0.6,0.6,0.8,0.9,0.8C37.3,11.3,37.7,11.1,37.9,10.5z"/>
	</g>
	<g>
		<path class="st1" d="M40.6,12.4v-10H42v0.4h-1V12h1v0.4H40.6z"/>
	</g>
	<g>
		<path class="st1" d="M43.7,7c0.1-0.5,0.2-0.6,0.2-0.8c0-0.3-0.1-0.5-0.3-0.5c-0.4,0-0.6,0.5-0.7,1.2c-0.1,0.2-0.1,0.2-0.2,0.2
			c0,0-0.1,0-0.1-0.1c0,0,0.1-0.6,0.3-1c0.1-0.2,0.3-0.6,0.7-0.6c0.5,0,0.9,0.3,0.9,0.9c0.2-0.2,0.7-0.9,1.6-0.9
			c0.7,0,1.1,0.4,1.1,1.1c0,0.6-0.4,1.7-0.6,2.2c-0.1,0.2-0.2,0.5-0.2,0.7c0,0.2,0.1,0.3,0.2,0.3c0.5,0,0.8-0.6,1-1.2
			c0-0.1,0-0.2,0.1-0.2c0,0,0.1,0,0.1,0.1c0,0.1-0.4,1.5-1.3,1.5c-0.5,0-0.8-0.3-0.8-0.8c0-0.1,0-0.2,0.1-0.5
			C46,8.3,46.5,7,46.5,6.4c0-0.3-0.1-0.7-0.5-0.7c-0.9,0-1.5,0.9-1.6,1.2c0,0-0.1,0.3-0.1,0.5c0,0.2-0.1,0.4-0.2,0.7L43.8,9
			c-0.1,0.2-0.2,0.7-0.2,0.7c-0.1,0.2-0.2,0.3-0.4,0.3C43.1,10,43,9.9,43,9.7c0-0.1,0.1-0.3,0.1-0.4L43.7,7z"/>
	</g>
	<g>
		<path class="st1" d="M49.8,12.4h-1.4V12h1V2.8h-1V2.4h1.4V12.4z"/>
	</g>
	<g>
		<path class="st1" d="M33.7,46c-0.1,0.6-0.9,1.4-2.1,1.4c-1,0-1.3-0.2-1.3-0.6c0-0.4,0.3-0.6,0.5-0.6c0.3,0,0.4,0.2,0.4,0.3
			c0,0.2-0.1,0.4-0.4,0.5c0.3,0.1,0.6,0.1,0.8,0.1c1.1,0,1.4-1,1.4-1.1c0,0,0.1-0.4,0.3-1.3l0,0c-0.1,0.1-0.6,0.6-1.2,0.6
			c-0.7,0-1.3-0.6-1.3-1.6c0-1.4,1.2-2.8,2.4-2.8c0.4,0,0.7,0.3,0.9,0.6c0-0.4,0.3-0.4,0.4-0.4c0.2,0,0.3,0.1,0.3,0.3
			c0,0.1,0,0.1,0,0.2L33.7,46z M34,42.2c0,0,0-0.1,0-0.1s-0.1-0.9-0.8-0.9c-0.4,0-0.8,0.4-1.1,0.9c-0.3,0.5-0.6,1.7-0.6,2.2
			c0,0.4,0.1,0.9,0.6,0.9c0.3,0,0.6-0.2,0.8-0.4c0.2-0.2,0.4-0.4,0.5-0.7L34,42.2z"/>
	</g>
	<g>
		<path class="st1" d="M36.9,46.9c-1.6,0-1.6-1.9-1.6-2.4s0-2.4,1.6-2.4c0.6,0,1,0.3,1.2,0.6c0.3,0.5,0.4,1,0.4,1.8
			C38.5,45.1,38.5,46.9,36.9,46.9z M37.8,45.9c0.1-0.4,0.1-1,0.1-1.5c0-0.6,0-1.1-0.1-1.5c-0.1-0.4-0.5-0.6-0.9-0.6
			c-0.3,0-0.7,0.1-0.9,0.7c-0.1,0.4-0.1,0.9-0.1,1.4c0,0.5,0,1.1,0.1,1.5c0.1,0.6,0.6,0.8,0.9,0.8C37.1,46.7,37.6,46.6,37.8,45.9z"
			/>
	</g>
	<g>
		<path class="st1" d="M40.5,47.8v-10h1.4v0.4h-1v9.2h1v0.4H40.5z"/>
	</g>
	<g>
		<path class="st1" d="M43.5,42.5c0.1-0.5,0.2-0.6,0.2-0.8c0-0.3-0.1-0.5-0.3-0.5c-0.4,0-0.6,0.5-0.7,1.2c-0.1,0.2-0.1,0.2-0.2,0.2
			c0,0-0.1,0-0.1-0.1c0,0,0.1-0.6,0.3-1c0.1-0.2,0.3-0.6,0.7-0.6c0.5,0,0.9,0.3,0.9,0.9c0.2-0.2,0.7-0.9,1.6-0.9
			c0.7,0,1.1,0.4,1.1,1.1c0,0.6-0.4,1.7-0.6,2.2c-0.1,0.2-0.2,0.5-0.2,0.7c0,0.2,0.1,0.3,0.2,0.3c0.5,0,0.8-0.6,1-1.2
			c0-0.1,0-0.2,0.1-0.2c0,0,0.1,0,0.1,0.1c0,0.1-0.4,1.5-1.3,1.5c-0.5,0-0.8-0.3-0.8-0.8c0-0.1,0-0.2,0.1-0.5
			c0.2-0.4,0.6-1.7,0.6-2.3c0-0.3-0.1-0.7-0.5-0.7c-0.9,0-1.5,0.9-1.6,1.2c0,0-0.1,0.3-0.1,0.5c0,0.2-0.1,0.4-0.2,0.7l-0.2,0.9
			c-0.1,0.2-0.2,0.7-0.2,0.7c-0.1,0.2-0.2,0.3-0.4,0.3c-0.1,0-0.3-0.1-0.3-0.3c0,0,0.1-0.3,0.1-0.4L43.5,42.5z"/>
	</g>
	<g>
		<path class="st1" d="M49.7,47.8h-1.4v-0.4h1v-9.2h-1v-0.4h1.4V47.8z"/>
	</g>
	<polyline points="117.5,16.9 122,14.6 117.5,12.3 118.6,14.6 	"/>
	<line class="st0" x1="93.7" y1="14.6" x2="118.6" y2="14.6"/>
	<polyline points="117.5,38.1 122,35.9 117.5,33.6 118.6,35.9 	"/>
	<line class="st0" x1="93.7" y1="35.9" x2="118.6" y2="35.9"/>
	<g>
		<path class="st1" d="M100.5,9.1c0,0.1-0.2,1.3-0.6,1.9c-0.2,0.4-0.6,1-1.1,1c-0.4,0-0.8-0.2-0.8-0.7c0-0.4,0.3-0.6,0.5-0.6
			c0.2,0,0.4,0.1,0.4,0.3c0,0.1-0.1,0.5-0.5,0.5c0.2,0.2,0.4,0.2,0.5,0.2c0.5,0,0.7-0.9,0.9-1.9l0.7-3.9h-0.7c-0.2,0-0.3,0-0.3-0.1
			c0-0.2,0.1-0.2,0.3-0.2h0.7c0.2-1.3,0.3-1.4,0.3-1.6c0.3-1,0.9-1.2,1.3-1.2c0.4,0,0.9,0.2,0.9,0.7c0,0.4-0.3,0.6-0.5,0.6
			c-0.2,0-0.4-0.1-0.4-0.3c0-0.1,0.1-0.5,0.5-0.5c-0.2-0.2-0.4-0.2-0.5-0.2c-0.2,0-0.4,0.1-0.5,0.3c-0.1,0.1-0.2,0.8-0.2,1l-0.2,1.1
			h0.8c0.2,0,0.3,0,0.3,0.1c0,0.2-0.1,0.2-0.3,0.2h-0.9L100.5,9.1z"/>
	</g>
	<g>
		<path class="st1" d="M104.7,10.8c0,0.2,0,0.3,0.7,0.3h0.3v0.3c-0.2,0-1,0-1.2,0c-0.3,0-1.1,0-1.2,0v-0.3h0.3
			c0.7,0,0.7-0.1,0.7-0.3V7.2c-0.4,0.2-0.8,0.2-1,0.2V7.2c0.3,0,0.9,0,1.4-0.4c0.2,0,0.2,0,0.2,0.2V10.8z"/>
	</g>
	<g>
		<path class="st1" d="M107.9,12.4v-10h1.4v0.4h-1V12h1v0.4H107.9z"/>
	</g>
	<g>
		<path class="st1" d="M111,7c0.1-0.5,0.2-0.6,0.2-0.8c0-0.3-0.1-0.5-0.3-0.5c-0.4,0-0.6,0.5-0.7,1.2c-0.1,0.2-0.1,0.2-0.2,0.2
			c0,0-0.1,0-0.1-0.1c0,0,0.1-0.6,0.3-1c0.1-0.2,0.3-0.6,0.7-0.6c0.5,0,0.9,0.3,0.9,0.9c0.2-0.2,0.7-0.9,1.6-0.9
			c0.7,0,1.1,0.4,1.1,1.1c0,0.6-0.4,1.7-0.6,2.2c-0.1,0.2-0.2,0.5-0.2,0.7c0,0.2,0.1,0.3,0.2,0.3c0.5,0,0.8-0.6,1-1.2
			c0-0.1,0-0.2,0.1-0.2c0,0,0.1,0,0.1,0.1c0,0.1-0.4,1.5-1.3,1.5c-0.5,0-0.8-0.3-0.8-0.8c0-0.1,0-0.2,0.1-0.5
			c0.2-0.4,0.6-1.7,0.6-2.3c0-0.3-0.1-0.7-0.5-0.7c-0.9,0-1.5,0.9-1.6,1.2c0,0-0.1,0.3-0.1,0.5c0,0.2-0.1,0.4-0.2,0.7L111.2,9
			c-0.1,0.2-0.2,0.7-0.2,0.7c-0.1,0.2-0.2,0.3-0.4,0.3c-0.1,0-0.3-0.1-0.3-0.3c0-0.1,0.1-0.3,0.1-0.4L111,7z"/>
	</g>
	<g>
		<path class="st1" d="M117.1,12.4h-1.4V12h1V2.8h-1V2.4h1.4V12.4z"/>
	</g>
	<g>
		<path class="st1" d="M101,46c-0.1,0.6-0.9,1.4-2.1,1.4c-1,0-1.3-0.2-1.3-0.6c0-0.4,0.3-0.6,0.5-0.6c0.3,0,0.4,0.2,0.4,0.3
			c0,0.2-0.1,0.4-0.4,0.5c0.3,0.1,0.6,0.1,0.8,0.1c1.1,0,1.4-1,1.4-1.1c0,0,0.1-0.4,0.3-1.3l0,0c-0.1,0.1-0.6,0.6-1.2,0.6
			c-0.7,0-1.3-0.6-1.3-1.6c0-1.4,1.2-2.8,2.4-2.8c0.4,0,0.7,0.3,0.9,0.6c0-0.4,0.3-0.4,0.4-0.4c0.2,0,0.3,0.1,0.3,0.3
			c0,0.1,0,0.1,0,0.2L101,46z M101.3,42.2c0,0,0-0.1,0-0.1s-0.1-0.9-0.8-0.9c-0.4,0-0.8,0.4-1.1,0.9c-0.3,0.5-0.6,1.7-0.6,2.2
			c0,0.4,0.1,0.9,0.6,0.9c0.3,0,0.6-0.2,0.8-0.4c0.2-0.2,0.4-0.4,0.5-0.7L101.3,42.2z"/>
	</g>
	<g>
		<path class="st1" d="M104.5,46.2c0,0.2,0,0.3,0.7,0.3h0.3v0.3c-0.2,0-1,0-1.2,0c-0.3,0-1.1,0-1.2,0v-0.3h0.3
			c0.7,0,0.7-0.1,0.7-0.3v-3.6c-0.4,0.2-0.8,0.2-1,0.2v-0.3c0.3,0,0.9,0,1.4-0.4c0.2,0,0.2,0,0.2,0.2V46.2z"/>
	</g>
	<g>
		<path class="st1" d="M107.8,47.8v-10h1.4v0.4h-1v9.2h1v0.4H107.8z"/>
	</g>
	<g>
		<path class="st1" d="M110.9,42.5c0.1-0.5,0.2-0.6,0.2-0.8c0-0.3-0.1-0.5-0.3-0.5c-0.4,0-0.6,0.5-0.7,1.2c-0.1,0.2-0.1,0.2-0.2,0.2
			c0,0-0.1,0-0.1-0.1c0,0,0.1-0.6,0.3-1c0.1-0.2,0.3-0.6,0.7-0.6c0.5,0,0.9,0.3,0.9,0.9c0.2-0.2,0.7-0.9,1.6-0.9
			c0.7,0,1.1,0.4,1.1,1.1c0,0.6-0.4,1.7-0.6,2.2c-0.1,0.2-0.2,0.5-0.2,0.7c0,0.2,0.1,0.3,0.2,0.3c0.5,0,0.8-0.6,1-1.2
			c0-0.1,0-0.2,0.1-0.2c0,0,0.1,0,0.1,0.1c0,0.1-0.4,1.5-1.3,1.5c-0.5,0-0.8-0.3-0.8-0.8c0-0.1,0-0.2,0.1-0.5
			c0.2-0.4,0.6-1.7,0.6-2.3c0-0.3-0.1-0.7-0.5-0.7c-0.9,0-1.5,0.9-1.6,1.2c0,0-0.1,0.3-0.1,0.5c0,0.2-0.1,0.4-0.2,0.7l-0.2,0.9
			c-0.1,0.2-0.2,0.7-0.2,0.7c-0.1,0.2-0.2,0.3-0.4,0.3c-0.1,0-0.3-0.1-0.3-0.3c0,0,0.1-0.3,0.1-0.4L110.9,42.5z"/>
	</g>
	<g>
		<path class="st1" d="M117,47.8h-1.4v-0.4h1v-9.2h-1v-0.4h1.4V47.8z"/>
	</g>
	<path class="st0" d="M29.9,35.9V14.6 M29.9,25.2H8.6"/>
	<g>
		<path class="st2" d="M3,15.3c-0.1,0.4-0.2,0.7-0.2,0.9c0,0.3,0.2,0.7,0.5,0.7c0.3,0,1-0.2,1.3-1.3c0-0.1,0-0.1,0.1-0.1
			c0,0,0.1,0,0.1,0.1c0,0.2-0.6,1.5-1.6,1.5c-0.6,0-1-0.4-1.1-0.8c0,0.1-0.4,0.8-1,0.8c-0.4,0-0.9-0.2-0.9-0.7
			c0-0.3,0.2-0.6,0.5-0.6c0.1,0,0.4,0.1,0.4,0.3c0,0.3-0.2,0.5-0.5,0.5c0.2,0.1,0.4,0.1,0.5,0.1c0.4,0,0.8-0.4,0.9-1
			c0.4-1.4,0.5-2.1,0.5-2.4c0-0.6-0.3-0.7-0.5-0.7c-0.3,0-1,0.2-1.3,1.3c0,0.1-0.1,0.1-0.1,0.1c0,0-0.1,0-0.1-0.1
			c0-0.2,0.6-1.5,1.6-1.5c0.3,0,0.8,0.1,1.1,0.8c0.1-0.2,0.5-0.8,1-0.8c0.3,0,0.9,0.1,0.9,0.7c0,0.4-0.3,0.6-0.5,0.6
			c-0.3,0-0.4-0.2-0.4-0.3c0-0.2,0.2-0.5,0.5-0.5c-0.2-0.1-0.4-0.1-0.5-0.1c-0.7,0-0.9,0.9-1,1.2L3,15.3z"/>
	</g>
	<g>
		<path class="st2" d="M6.8,19.5v-10h1.4v0.4h-1v9.2h1v0.4H6.8z"/>
	</g>
	<g>
		<path class="st2" d="M9.9,14.1c0.1-0.5,0.2-0.6,0.2-0.8c0-0.3-0.1-0.5-0.3-0.5c-0.4,0-0.6,0.5-0.7,1.2c-0.1,0.2-0.1,0.2-0.2,0.2
			c0,0-0.1,0-0.1-0.1c0,0,0.1-0.6,0.3-1c0.1-0.2,0.3-0.6,0.7-0.6c0.5,0,0.9,0.3,0.9,0.9c0.2-0.2,0.7-0.9,1.6-0.9
			c0.7,0,1.1,0.4,1.1,1.1c0,0.6-0.4,1.7-0.6,2.2c-0.1,0.2-0.2,0.5-0.2,0.7c0,0.2,0.1,0.3,0.2,0.3c0.5,0,0.8-0.6,1-1.2
			c0-0.1,0-0.2,0.1-0.2c0,0,0.1,0,0.1,0.1c0,0.1-0.4,1.5-1.3,1.5c-0.5,0-0.8-0.3-0.8-0.8c0-0.1,0-0.2,0.1-0.5
			c0.2-0.4,0.6-1.7,0.6-2.3c0-0.3-0.1-0.7-0.5-0.7c-0.9,0-1.5,0.9-1.6,1.2c0,0-0.1,0.3-0.1,0.5c0,0.2-0.1,0.4-0.2,0.7L10,16.1
			c-0.1,0.2-0.2,0.7-0.2,0.7c-0.1,0.2-0.2,0.3-0.4,0.3c-0.1,0-0.3-0.1-0.3-0.3c0-0.1,0.1-0.3,0.1-0.4L9.9,14.1z"/>
	</g>
	<g>
		<path class="st2" d="M16,19.5h-1.4v-0.4h1V9.9h-1V9.5H16V19.5z"/>
	</g>
	<g>
		<path class="st1" d="M66.5,23.1h-0.2c-0.2-1.3-0.4-1.9-1.8-1.9h-1c-0.5,0-0.5,0.1-0.5,0.4v5.3c0,0.3,0,0.5,0.9,0.5h0.3v0.3
			c-0.4,0-1.3,0-1.7,0c-0.4,0-1.2,0-1.5,0v-0.3h0.2c0.8,0,0.8-0.1,0.8-0.5v-5.2c0-0.4,0-0.5-0.8-0.5H61v-0.3h5.2L66.5,23.1z"/>
	</g>
	<g>
		<path class="st1" d="M69.3,28.5c0,0.2,0,0.3,0.7,0.3h0.3v0.3c-0.2,0-1,0-1.2,0c-0.3,0-1.1,0-1.2,0v-0.3H68c0.7,0,0.7-0.1,0.7-0.3
			v-3.6c-0.4,0.2-0.8,0.2-1,0.2v-0.3c0.3,0,0.9,0,1.4-0.4c0.2,0,0.2,0,0.2,0.2V28.5z"/>
	</g>
	<g>
		<path class="st1" d="M75.1,24.4c-0.1,0-0.3,0-0.3-0.2S74.9,24,75,24h6c0.1,0,0.3,0,0.3,0.2s-0.2,0.2-0.3,0.2H75.1z M75,26.3
			c-0.1,0-0.3,0-0.3-0.2c0-0.2,0.2-0.2,0.3-0.2H81c0.1,0,0.3,0,0.3,0.2c0,0.2-0.2,0.2-0.3,0.2H75z"/>
	</g>
	<g>
		<path class="st1" d="M88.3,23.2c0,0.2,0,0.3,0.7,0.3h0.3v0.3c-0.2,0-1,0-1.2,0c-0.3,0-1.1,0-1.2,0v-0.3H87c0.7,0,0.7-0.1,0.7-0.3
			v-3.6c-0.4,0.2-0.8,0.2-1,0.2v-0.3c0.3,0,0.9,0,1.4-0.4c0.2,0,0.2,0,0.2,0.2V23.2z"/>
	</g>
	<polyline points="85.9,25.5 90,25.5 90,25 85.9,25 	"/>
	<g>
		<path class="st1" d="M89.2,31.1h-2.9c0-0.2,0-0.2,0.1-0.3l1.7-1.7c0.2-0.3,0.7-0.7,0.7-1.3c0-0.6-0.4-1.1-1.1-1.1
			c-0.3,0-0.8,0.2-1,0.6c0.4,0,0.4,0.2,0.4,0.4c0,0.3-0.2,0.4-0.4,0.4c-0.1,0-0.4,0-0.4-0.4c0-0.6,0.6-1.2,1.5-1.2
			c0.9,0,1.6,0.5,1.6,1.4c0,0.7-0.5,1.1-1,1.5c-0.4,0.3-0.7,0.5-1.4,1.2h1.3c0.1,0,0.6,0,0.7,0c0.1-0.1,0.2-0.5,0.2-0.6h0.2
			L89.2,31.1z"/>
	</g>
	<polygon class="st0" points="122,25.2 122,0.4 157.5,0.4 157.5,50 122,50 	"/>
	<polyline points="181.3,16.9 185.8,14.6 181.3,12.3 182.4,14.6 	"/>
	<line class="st0" x1="157.5" y1="14.6" x2="182.4" y2="14.6"/>
	<polyline points="181.3,38.1 185.8,35.9 181.3,33.6 182.4,35.9 	"/>
	<line class="st0" x1="157.5" y1="35.9" x2="182.4" y2="35.9"/>
	<g>
		<path class="st1" d="M167.6,9.1c0,0.1-0.2,1.3-0.6,1.9c-0.2,0.4-0.6,1-1.1,1c-0.4,0-0.8-0.2-0.8-0.7c0-0.4,0.3-0.6,0.5-0.6
			c0.2,0,0.4,0.1,0.4,0.3c0,0.1-0.1,0.5-0.5,0.5c0.2,0.2,0.4,0.2,0.5,0.2c0.5,0,0.7-0.9,0.9-1.9l0.7-3.9h-0.7c-0.2,0-0.3,0-0.3-0.1
			c0-0.2,0.1-0.2,0.3-0.2h0.7c0.2-1.3,0.3-1.4,0.3-1.6c0.3-1,0.9-1.2,1.3-1.2c0.4,0,0.9,0.2,0.9,0.7c0,0.4-0.3,0.6-0.5,0.6
			c-0.2,0-0.4-0.1-0.4-0.3c0-0.1,0.1-0.5,0.5-0.5c-0.2-0.2-0.4-0.2-0.5-0.2c-0.2,0-0.4,0.1-0.5,0.3c-0.1,0.1-0.2,0.8-0.2,1l-0.2,1.1
			h0.8c0.2,0,0.3,0,0.3,0.1c0,0.2-0.1,0.2-0.3,0.2h-0.9L167.6,9.1z"/>
	</g>
	<g>
		<path class="st1" d="M172.8,11.4h-2.9c0-0.2,0-0.2,0.1-0.3l1.7-1.7c0.2-0.3,0.7-0.7,0.7-1.3c0-0.6-0.4-1.1-1.1-1.1
			c-0.3,0-0.8,0.2-1,0.6c0.4,0,0.4,0.2,0.4,0.4c0,0.3-0.2,0.4-0.4,0.4c-0.1,0-0.4,0-0.4-0.4c0-0.6,0.6-1.2,1.5-1.2
			c0.9,0,1.6,0.5,1.6,1.4c0,0.7-0.5,1.1-1,1.5c-0.4,0.3-0.7,0.5-1.4,1.2h1.3c0.1,0,0.6,0,0.7,0c0.1-0.1,0.2-0.5,0.2-0.6h0.2
			L172.8,11.4z"/>
	</g>
	<g>
		<path class="st1" d="M175,12.4v-10h1.4v0.4h-1V12h1v0.4H175z"/>
	</g>
	<g>
		<path class="st1" d="M178,7c0.1-0.5,0.2-0.6,0.2-0.8c0-0.3-0.1-0.5-0.3-0.5c-0.4,0-0.6,0.5-0.7,1.2c-0.1,0.2-0.1,0.2-0.2,0.2
			c0,0-0.1,0-0.1-0.1c0,0,0.1-0.6,0.3-1c0.1-0.2,0.3-0.6,0.7-0.6c0.5,0,0.9,0.3,0.9,0.9c0.2-0.2,0.7-0.9,1.6-0.9
			c0.7,0,1.1,0.4,1.1,1.1c0,0.6-0.4,1.7-0.6,2.2c-0.1,0.2-0.2,0.5-0.2,0.7c0,0.2,0.1,0.3,0.2,0.3c0.5,0,0.8-0.6,1-1.2
			c0-0.1,0-0.2,0.1-0.2c0,0,0.1,0,0.1,0.1c0,0.1-0.4,1.5-1.3,1.5c-0.5,0-0.8-0.3-0.8-0.8c0-0.1,0-0.2,0.1-0.5
			c0.2-0.4,0.6-1.7,0.6-2.3c0-0.3-0.1-0.7-0.5-0.7c-0.9,0-1.5,0.9-1.6,1.2c0,0-0.1,0.3-0.1,0.5c0,0.2-0.1,0.4-0.2,0.7L178.2,9
			c-0.1,0.2-0.2,0.7-0.2,0.7c-0.1,0.2-0.2,0.3-0.4,0.3c-0.1,0-0.3-0.1-0.3-0.3c0-0.1,0.1-0.3,0.1-0.4L178,7z"/>
	</g>
	<g>
		<path class="st1" d="M184.1,12.4h-1.4V12h1V2.8h-1V2.4h1.4V12.4z"/>
		<path class="st1" d="M189,6.6c-0.1,0-0.3,0-0.3-0.2s0.2-0.2,0.3-0.2h6c0.1,0,0.3,0,0.3,0.2s-0.2,0.2-0.3,0.2H189z M189,8.6
			c-0.1,0-0.3,0-0.3-0.2s0.2-0.2,0.3-0.2h5.9c0.1,0,0.3,0,0.3,0.2s-0.2,0.2-0.3,0.2H189z"/>
	</g>
	<g>
		<path class="st3" d="M202.5,9.9c-0.3,1.1-1.3,2-2.3,2c-0.6,0-1.1-0.4-1.1-0.9c0-0.5,0.3-0.6,0.6-0.6c0.1,0,0.4,0,0.4,0.3
			c0,0.2-0.1,0.3-0.2,0.4c-0.1,0.1-0.3,0.1-0.4,0.1c0.2,0.4,0.6,0.4,0.8,0.4c0.5,0,0.8-0.3,1.1-0.6c0.4-0.5,0.5-1,0.6-1.5
			c-0.3,0.3-0.6,0.4-1,0.4c-0.6,0-1.2-0.3-1.2-1.2c0-0.5,0.2-1,0.6-2.1c0.1-0.2,0.2-0.4,0.2-0.7c0-0.3-0.2-0.3-0.2-0.3
			c-0.3,0-0.7,0.3-1,1.2c0,0.2-0.1,0.2-0.2,0.2c0,0-0.1,0-0.1-0.1c0-0.1,0.4-1.5,1.3-1.5c0.5,0,0.8,0.4,0.8,0.8c0,0.2,0,0.3-0.2,0.7
			c-0.3,0.9-0.5,1.5-0.5,2c0,0.4,0.1,0.8,0.6,0.8c0.7,0,1.1-0.7,1.1-0.8l0.4-1.8c0.1-0.3,0.1-0.5,0.2-0.8c0-0.2,0.1-0.5,0.1-0.5
			c0.1-0.1,0.2-0.2,0.3-0.2c0.1,0,0.3,0.1,0.3,0.3c0,0.1,0,0.1,0,0.2L202.5,9.9z"/>
	</g>
	<g>
		<path class="st3" d="M205.1,12.4v-10h1.4v0.4h-1V12h1v0.4H205.1z"/>
	</g>
	<g>
		<path class="st3" d="M208.1,7c0.1-0.5,0.2-0.6,0.2-0.8c0-0.3-0.1-0.5-0.3-0.5c-0.4,0-0.6,0.5-0.7,1.2c-0.1,0.2-0.1,0.2-0.2,0.2
			c0,0-0.1,0-0.1-0.1c0,0,0.1-0.6,0.3-1c0.1-0.2,0.3-0.6,0.7-0.6c0.5,0,0.9,0.3,0.9,0.9c0.2-0.2,0.7-0.9,1.6-0.9
			c0.7,0,1.1,0.4,1.1,1.1c0,0.6-0.4,1.7-0.6,2.2c-0.1,0.2-0.2,0.5-0.2,0.7c0,0.2,0.1,0.3,0.2,0.3c0.5,0,0.8-0.6,1-1.2
			c0-0.1,0-0.2,0.1-0.2c0,0,0.1,0,0.1,0.1c0,0.1-0.4,1.5-1.3,1.5c-0.5,0-0.8-0.3-0.8-0.8c0-0.1,0-0.2,0.1-0.5
			c0.2-0.4,0.6-1.7,0.6-2.3c0-0.3-0.1-0.7-0.5-0.7c-0.9,0-1.5,0.9-1.6,1.2c0,0-0.1,0.3-0.1,0.5c0,0.2-0.1,0.4-0.2,0.7L208.3,9
			c-0.1,0.2-0.2,0.7-0.2,0.7c-0.1,0.2-0.2,0.3-0.4,0.3c-0.1,0-0.3-0.1-0.3-0.3c0-0.1,0.1-0.3,0.1-0.4L208.1,7z"/>
	</g>
	<g>
		<path class="st3" d="M214.2,12.4h-1.4V12h1V2.8h-1V2.4h1.4V12.4z"/>
	</g>
	<g>
		<path class="st1" d="M130.3,23.1H130c-0.2-1.3-0.4-1.9-1.8-1.9h-1c-0.5,0-0.5,0.1-0.5,0.4v5.3c0,0.3,0,0.5,0.9,0.5h0.3v0.3
			c-0.4,0-1.3,0-1.7,0c-0.4,0-1.2,0-1.5,0v-0.3h0.2c0.8,0,0.8-0.1,0.8-0.5v-5.2c0-0.4,0-0.5-0.8-0.5h-0.2v-0.3h5.2L130.3,23.1z"/>
	</g>
	<g>
		<path class="st1" d="M134.1,29.1h-2.9c0-0.2,0-0.2,0.1-0.3l1.7-1.7c0.2-0.3,0.7-0.7,0.7-1.3c0-0.6-0.4-1.1-1.1-1.1
			c-0.3,0-0.8,0.2-1,0.6c0.4,0,0.4,0.2,0.4,0.4c0,0.3-0.2,0.4-0.4,0.4c-0.1,0-0.4,0-0.4-0.4c0-0.6,0.6-1.2,1.5-1.2
			c0.9,0,1.6,0.5,1.6,1.4c0,0.7-0.5,1.1-1,1.5c-0.4,0.3-0.7,0.5-1.4,1.2h1.3c0.1,0,0.6,0,0.7,0c0.1-0.1,0.2-0.5,0.2-0.6h0.2
			L134.1,29.1z"/>
	</g>
	<g>
		<path class="st1" d="M138.8,24.4c-0.1,0-0.3,0-0.3-0.2s0.2-0.2,0.3-0.2h6c0.1,0,0.3,0,0.3,0.2s-0.2,0.2-0.3,0.2H138.8z
			 M138.8,26.3c-0.1,0-0.3,0-0.3-0.2c0-0.2,0.2-0.2,0.3-0.2h5.9c0.1,0,0.3,0,0.3,0.2c0,0.2-0.2,0.2-0.3,0.2H138.8z"/>
	</g>
	<g>
		<path class="st1" d="M152,23.2c0,0.2,0,0.3,0.7,0.3h0.3v0.3c-0.2,0-1,0-1.2,0c-0.3,0-1.1,0-1.2,0v-0.3h0.3c0.7,0,0.7-0.1,0.7-0.3
			v-3.6c-0.4,0.2-0.8,0.2-1,0.2v-0.3c0.3,0,0.9,0,1.4-0.4c0.2,0,0.2,0,0.2,0.2V23.2z"/>
	</g>
	<polyline points="149.7,25.5 153.8,25.5 153.8,25 149.7,25 	"/>
	<g>
		<path class="st1" d="M152.6,30v0.6c0,0.2,0,0.3,0.6,0.3h0.2v0.3c-0.3,0-0.8,0-1.1,0c-0.3,0-0.7,0-1,0v-0.3h0.2
			c0.6,0,0.6-0.1,0.6-0.3V30H150v-0.3l2.3-3.2c0.1-0.1,0.1-0.1,0.2-0.1c0.2,0,0.2,0,0.2,0.2v3.1h0.8V30H152.6z M150.2,29.7h1.8v-2.6
			L150.2,29.7z"/>
	</g>
	<g>
		<path class="st1" d="M168.3,46c-0.1,0.6-0.9,1.4-2.1,1.4c-1,0-1.3-0.2-1.3-0.6c0-0.4,0.3-0.6,0.5-0.6c0.3,0,0.4,0.2,0.4,0.3
			c0,0.2-0.1,0.4-0.4,0.5c0.3,0.1,0.6,0.1,0.8,0.1c1.1,0,1.4-1,1.4-1.1c0,0,0.1-0.4,0.3-1.3l0,0c-0.1,0.1-0.6,0.6-1.2,0.6
			c-0.7,0-1.3-0.6-1.3-1.6c0-1.4,1.2-2.8,2.4-2.8c0.4,0,0.7,0.3,0.9,0.6c0-0.4,0.3-0.4,0.4-0.4c0.2,0,0.3,0.1,0.3,0.3
			c0,0.1,0,0.1,0,0.2L168.3,46z M168.6,42.2c0,0,0-0.1,0-0.1s-0.1-0.9-0.8-0.9c-0.4,0-0.8,0.4-1.1,0.9c-0.3,0.5-0.6,1.7-0.6,2.2
			c0,0.4,0.1,0.9,0.6,0.9c0.3,0,0.6-0.2,0.8-0.4c0.2-0.2,0.4-0.4,0.5-0.7L168.6,42.2z"/>
	</g>
	<g>
		<path class="st1" d="M172.8,46.8H170c0-0.2,0-0.2,0.1-0.3l1.7-1.7c0.2-0.3,0.7-0.7,0.7-1.3c0-0.6-0.4-1.1-1.1-1.1
			c-0.3,0-0.8,0.2-1,0.6c0.4,0,0.4,0.2,0.4,0.4c0,0.3-0.2,0.4-0.4,0.4c-0.1,0-0.4,0-0.4-0.4c0-0.6,0.6-1.2,1.5-1.2
			c0.9,0,1.6,0.5,1.6,1.4c0,0.7-0.5,1.1-1,1.5c-0.4,0.3-0.7,0.5-1.4,1.2h1.3c0.1,0,0.6,0,0.7,0c0.1-0.1,0.2-0.5,0.2-0.6h0.2
			L172.8,46.8z"/>
	</g>
	<g>
		<path class="st1" d="M175.2,47.8v-10h1.4v0.4h-1v9.2h1v0.4H175.2z"/>
	</g>
	<g>
		<path class="st1" d="M178.2,42.5c0.1-0.5,0.2-0.6,0.2-0.8c0-0.3-0.1-0.5-0.3-0.5c-0.4,0-0.6,0.5-0.7,1.2c-0.1,0.2-0.1,0.2-0.2,0.2
			c0,0-0.1,0-0.1-0.1c0,0,0.1-0.6,0.3-1c0.1-0.2,0.3-0.6,0.7-0.6c0.5,0,0.9,0.3,0.9,0.9c0.2-0.2,0.7-0.9,1.6-0.9
			c0.7,0,1.1,0.4,1.1,1.1c0,0.6-0.4,1.7-0.6,2.2c-0.1,0.2-0.2,0.5-0.2,0.7c0,0.2,0.1,0.3,0.2,0.3c0.5,0,0.8-0.6,1-1.2
			c0-0.1,0-0.2,0.1-0.2c0,0,0.1,0,0.1,0.1c0,0.1-0.4,1.5-1.3,1.5c-0.5,0-0.8-0.3-0.8-0.8c0-0.1,0-0.2,0.1-0.5
			c0.2-0.4,0.6-1.7,0.6-2.3c0-0.3-0.1-0.7-0.5-0.7c-0.9,0-1.5,0.9-1.6,1.2c0,0-0.1,0.3-0.1,0.5c0,0.2-0.1,0.4-0.2,0.7l-0.2,0.9
			c-0.1,0.2-0.2,0.7-0.2,0.7c-0.1,0.2-0.2,0.3-0.4,0.3c-0.1,0-0.3-0.1-0.3-0.3c0,0,0.1-0.3,0.1-0.4L178.2,42.5z"/>
	</g>
	<g>
		<path class="st1" d="M184.3,47.8H183v-0.4h1v-9.2h-1v-0.4h1.4V47.8z"/>
	</g>
	<g>
		<path class="st2" d="M253,11.8c-0.1,0.4-0.2,0.7-0.2,0.9c0,0.3,0.2,0.7,0.5,0.7c0.3,0,1-0.2,1.3-1.3c0-0.1,0-0.1,0.1-0.1
			c0,0,0.1,0,0.1,0.1c0,0.2-0.6,1.5-1.6,1.5c-0.6,0-1-0.4-1.1-0.8c0,0.1-0.4,0.8-1,0.8c-0.4,0-0.9-0.2-0.9-0.7
			c0-0.3,0.2-0.6,0.5-0.6c0.1,0,0.4,0.1,0.4,0.3c0,0.3-0.2,0.5-0.5,0.5c0.2,0.1,0.4,0.1,0.5,0.1c0.4,0,0.8-0.4,0.9-1
			c0.4-1.4,0.5-2.1,0.5-2.4c0-0.6-0.3-0.7-0.5-0.7c-0.3,0-1,0.2-1.3,1.3c0,0.1,0,0.1-0.1,0.1c0,0-0.1,0-0.1-0.1
			c0-0.2,0.6-1.5,1.6-1.5c0.3,0,0.8,0.1,1.1,0.8c0.1-0.2,0.5-0.8,1-0.8c0.3,0,0.9,0.1,0.9,0.7c0,0.4-0.3,0.6-0.5,0.6
			c-0.3,0-0.4-0.2-0.4-0.3c0-0.2,0.2-0.5,0.5-0.5c-0.2-0.1-0.4-0.1-0.5-0.1c-0.7,0-0.9,0.9-1,1.2L253,11.8z"/>
	</g>
	<g>
		<path class="st2" d="M256.8,16V6h1.4v0.4h-1v9.2h1V16H256.8z"/>
	</g>
	<g>
		<path class="st2" d="M259.9,10.6c0.1-0.5,0.2-0.6,0.2-0.8c0-0.3-0.1-0.5-0.3-0.5c-0.4,0-0.6,0.5-0.7,1.2c-0.1,0.2-0.1,0.2-0.2,0.2
			c0,0-0.1,0-0.1-0.1c0,0,0.1-0.6,0.3-1c0.1-0.2,0.3-0.6,0.7-0.6c0.5,0,0.9,0.3,0.9,0.9c0.2-0.2,0.7-0.9,1.6-0.9
			c0.7,0,1.1,0.4,1.1,1.1c0,0.6-0.4,1.7-0.6,2.2c-0.1,0.2-0.2,0.5-0.2,0.7c0,0.2,0.1,0.3,0.2,0.3c0.5,0,0.8-0.6,1-1.2
			c0.1-0.1,0.1-0.2,0.2-0.2c0,0,0.1,0,0.1,0.1c0,0.1-0.4,1.5-1.3,1.5c-0.5,0-0.8-0.3-0.8-0.8c0-0.1,0-0.2,0.1-0.5
			c0.2-0.4,0.6-1.7,0.6-2.3c0-0.3-0.1-0.7-0.5-0.7c-0.9,0-1.5,0.9-1.6,1.2c0,0-0.1,0.3-0.1,0.5c0,0.2-0.1,0.4-0.2,0.7l-0.2,0.9
			c-0.1,0.2-0.2,0.7-0.2,0.7c-0.1,0.2-0.2,0.3-0.4,0.3c-0.1,0-0.3-0.1-0.3-0.3c0-0.1,0.1-0.3,0.1-0.4L259.9,10.6z"/>
	</g>
	<g>
		<path class="st2" d="M266,16h-1.4v-0.4h1V6.4h-1V6h1.4V16z"/>
	</g>
	<polyline points="298.2,13.4 302.7,11.1 298.2,8.8 299.3,11.1 	"/>
	<line class="st0" x1="274.4" y1="11.1" x2="299.3" y2="11.1"/>
	<g>
		<path class="st1" d="M362.3,13.7c0,0.1,0,0.2,0,0.2c0,0.2,0.1,0.2,0.4,0.2c0.3,0,0.4,0,0.6,0c0.3,0,0.3,0,0.3,0.1
			c0,0.2-0.1,0.2-0.2,0.2c-0.3,0-0.6,0-0.9,0c-0.3,0-0.5,0-0.8,0c-0.3,0-0.6,0-0.8,0c-0.3,0-0.5,0-0.8,0c-0.1,0-0.2,0-0.2-0.1
			c0-0.2,0.1-0.2,0.4-0.2c1.1,0,1.1-0.1,1.2-0.5l1.3-5.3c0,0,0-0.1,0-0.2c0-0.1,0-0.1-0.3-0.1h-0.4c-1.5,0-1.7,0.2-2.3,1.7
			c-0.1,0.2-0.1,0.2-0.2,0.2c-0.1,0-0.1,0-0.1-0.1c0,0,0-0.2,0.1-0.2l0.6-1.8c0.1-0.2,0.1-0.2,0.3-0.2h5.5c0.2,0,0.3,0,0.3,0.1
			c0,0,0,0.1,0,0.2l-0.3,1.7c0,0.1,0,0.2-0.1,0.2c-0.1,0-0.1-0.1-0.1-0.1c0,0,0-0.1,0-0.2c0-0.3,0.1-0.6,0.1-0.8
			c0-0.8-0.4-0.8-1.5-0.8c-0.2,0-0.5,0-0.6,0c-0.1,0-0.2,0.1-0.2,0.4L362.3,13.7z"/>
	</g>
	<polygon class="st0" points="352.3,11.1 352.3,18.2 373.6,18.2 373.6,4 352.3,4 	"/>
	<g>
		<path class="st1" d="M387.8,49.7c-1.8,0-3.3-1.5-3.3-3.3c0-1.8,1.5-3.3,3.3-3.3c1.8,0,3.3,1.5,3.3,3.3
			C391.1,48.2,389.6,49.7,387.8,49.7z M387.7,46.3v-2.9c-1.6,0.1-2.8,1.3-2.9,2.9H387.7z M387.7,46.5h-2.9c0.1,1.7,1.4,2.9,2.9,2.9
			V46.5z M387.9,46.3h3c-0.1-1.7-1.4-2.9-3-2.9V46.3z M387.9,46.5v2.9c1.5-0.1,2.9-1.2,3-2.9H387.9z"/>
	</g>
	<polyline points="379.7,48.8 384.2,46.5 379.7,44.2 380.8,46.5 	"/>
	<line class="st0" x1="341.7" y1="46.5" x2="380.8" y2="46.5"/>
	<polyline points="385.5,20.7 387.8,25.3 390,20.7 387.8,21.9 	"/>
	<line class="st0" x1="387.8" y1="11.1" x2="387.8" y2="21.9"/>
	<polyline points="385.5,38.4 387.8,42.9 390,38.4 387.8,39.5 	"/>
	<path class="st0" d="M387.8,32.3l0,7.2 M373.6,11.1h14.2"/>
	<g>
		<path class="st1" d="M387.8,32c-1.8,0-3.3-1.5-3.3-3.3c0-1.8,1.5-3.3,3.3-3.3c1.8,0,3.3,1.5,3.3,3.3C391.1,30.5,389.6,32,387.8,32
			z M387.6,28.7l-2.1-2.1c-0.5,0.6-0.8,1.3-0.8,2.1c0,0.6,0.2,1.4,0.8,2.1L387.6,28.7z M387.8,28.9l-2.1,2.1
			c0.8,0.8,1.7,0.8,2.1,0.8c1.3,0,2.1-0.8,2.1-0.8c0,0-0.1-0.1-0.1-0.1L387.8,28.9z M387.8,28.5l2.1-2.1c-0.8-0.8-1.7-0.8-2.1-0.8
			c-1.3,0-2.1,0.8-2.1,0.8c0,0,0.1,0.1,0.1,0.1L387.8,28.5z M388,28.7l2.1,2.1c0.5-0.6,0.8-1.3,0.8-2.1c0-0.8-0.3-1.6-0.8-2.1
			L388,28.7z"/>
	</g>
	<polyline points="379.7,31 384.2,28.8 379.7,26.5 380.8,28.8 	"/>
	<line class="st0" x1="373.6" y1="28.8" x2="380.8" y2="28.8"/>
	<g>
		<path class="st1" d="M363.3,26.8c0,0.2,0,0.3,0.7,0.3h0.3v0.3c-0.2,0-1,0-1.2,0c-0.3,0-1.1,0-1.2,0v-0.3h0.3
			c0.7,0,0.7-0.1,0.7-0.3v-3.6c-0.4,0.2-0.8,0.2-1,0.2v-0.3c0.3,0,0.9,0,1.4-0.4c0.2,0,0.2,0,0.2,0.2V26.8z"/>
	</g>
	<polyline points="360.9,29 365,29 365,28.5 360.9,28.5 	"/>
	<g>
		<path class="st1" d="M363.8,33.5v0.6c0,0.2,0,0.3,0.6,0.3h0.2v0.3c-0.3,0-0.8,0-1.1,0c-0.3,0-0.7,0-1,0v-0.3h0.2
			c0.6,0,0.6-0.1,0.6-0.3v-0.6h-2.1v-0.3l2.3-3.2c0.1-0.1,0.1-0.1,0.2-0.1c0.2,0,0.2,0,0.2,0.2v3.1h0.8v0.3H363.8z M361.5,33.3h1.8
			v-2.6L361.5,33.3z"/>
	</g>
	<polyline points="397.4,48.8 401.9,46.5 397.4,44.2 398.5,46.5 	"/>
	<line class="st0" x1="391.3" y1="46.5" x2="398.5" y2="46.5"/>
	<g>
		<path class="st3" d="M412.9,48.9c-0.3,1.1-1.3,2-2.3,2c-0.6,0-1.1-0.4-1.1-0.9c0-0.5,0.3-0.6,0.6-0.6c0.1,0,0.4,0,0.4,0.3
			c0,0.2-0.1,0.3-0.2,0.4c-0.1,0.1-0.3,0.1-0.4,0.1c0.2,0.4,0.6,0.4,0.8,0.4c0.5,0,0.8-0.3,1.1-0.6c0.4-0.5,0.5-1,0.6-1.5
			c-0.3,0.3-0.6,0.4-1,0.4c-0.6,0-1.2-0.3-1.2-1.2c0-0.5,0.2-1,0.6-2.1c0.1-0.2,0.2-0.4,0.2-0.7c0-0.3-0.2-0.3-0.2-0.3
			c-0.3,0-0.7,0.3-1,1.2c0,0.2-0.1,0.2-0.2,0.2c0,0-0.1,0-0.1-0.1c0-0.1,0.4-1.5,1.3-1.5c0.5,0,0.8,0.4,0.8,0.8c0,0.2,0,0.3-0.2,0.7
			c-0.3,0.9-0.5,1.5-0.5,2c0,0.4,0.1,0.8,0.6,0.8c0.7,0,1.1-0.7,1.1-0.8l0.4-1.8c0.1-0.3,0.1-0.5,0.2-0.8c0-0.2,0.1-0.5,0.1-0.5
			c0.1-0.1,0.2-0.2,0.3-0.2c0.1,0,0.3,0.1,0.3,0.3c0,0.1,0,0.1,0,0.2L412.9,48.9z"/>
	</g>
	<g>
		<path class="st3" d="M415.5,51.4v-10h1.4v0.4h-1V51h1v0.4H415.5z"/>
	</g>
	<g>
		<path class="st3" d="M418.5,46c0.1-0.5,0.2-0.6,0.2-0.8c0-0.3-0.1-0.5-0.3-0.5c-0.4,0-0.6,0.5-0.7,1.2c-0.1,0.2-0.1,0.2-0.2,0.2
			c0,0-0.1,0-0.1-0.1c0,0,0.1-0.6,0.3-1c0.1-0.2,0.3-0.6,0.7-0.6c0.5,0,0.9,0.3,0.9,0.9c0.2-0.2,0.7-0.9,1.6-0.9
			c0.7,0,1.1,0.4,1.1,1.1c0,0.6-0.4,1.7-0.6,2.2c-0.1,0.2-0.2,0.5-0.2,0.7c0,0.2,0.1,0.3,0.2,0.3c0.5,0,0.8-0.6,1-1.2
			c0.1-0.1,0.1-0.2,0.2-0.2c0,0,0.1,0,0.1,0.1c0,0.1-0.4,1.5-1.3,1.5c-0.5,0-0.8-0.3-0.8-0.8c0-0.1,0-0.2,0.1-0.5
			c0.2-0.4,0.6-1.7,0.6-2.3c0-0.3-0.1-0.7-0.5-0.7c-0.9,0-1.5,0.9-1.6,1.2c0,0-0.1,0.3-0.1,0.5c0,0.2-0.1,0.4-0.2,0.7l-0.2,0.9
			c-0.1,0.2-0.2,0.7-0.2,0.7c-0.1,0.2-0.2,0.3-0.4,0.3c-0.1,0-0.3-0.1-0.3-0.3c0,0,0.1-0.3,0.1-0.4L418.5,46z"/>
	</g>
	<g>
		<path class="st3" d="M424.6,51.4h-1.4V51h1v-9.2h-1v-0.4h1.4V51.4z"/>
	</g>
	<line class="st0" x1="288.6" y1="11.1" x2="288.6" y2="46.5"/>
	<g>
		<path class="st1" d="M312.7,13.7c0,0.1,0,0.2,0,0.2c0,0.2,0.1,0.2,0.4,0.2c0.3,0,0.4,0,0.6,0c0.3,0,0.3,0,0.3,0.1
			c0,0.2-0.1,0.2-0.2,0.2c-0.3,0-0.6,0-0.9,0c-0.3,0-0.5,0-0.8,0c-0.3,0-0.6,0-0.8,0c-0.3,0-0.5,0-0.8,0c-0.1,0-0.2,0-0.2-0.1
			c0-0.2,0.1-0.2,0.4-0.2c1.1,0,1.1-0.1,1.2-0.5l1.3-5.3c0,0,0-0.1,0-0.2c0-0.1,0-0.1-0.3-0.1h-0.4c-1.5,0-1.7,0.2-2.3,1.7
			c-0.1,0.2-0.1,0.2-0.2,0.2c-0.1,0-0.1,0-0.1-0.1c0,0,0-0.2,0.1-0.2l0.6-1.8c0.1-0.2,0.1-0.2,0.3-0.2h5.5c0.2,0,0.3,0,0.3,0.1
			c0,0,0,0.1,0,0.2l-0.3,1.7c0,0.1,0,0.2-0.1,0.2c-0.1,0-0.1-0.1-0.1-0.1c0,0,0-0.1,0-0.2c0-0.3,0.1-0.6,0.1-0.8
			c0-0.8-0.4-0.8-1.5-0.8c-0.2,0-0.5,0-0.6,0c-0.1,0-0.2,0.1-0.2,0.4L312.7,13.7z"/>
	</g>
	<polygon class="st0" points="302.7,11.1 302.7,18.2 324,18.2 324,4 302.7,4 	"/>
	<g>
		<path class="st1" d="M338.2,49.7c-1.8,0-3.3-1.5-3.3-3.3c0-1.8,1.5-3.3,3.3-3.3c1.8,0,3.3,1.5,3.3,3.3
			C341.5,48.2,340,49.7,338.2,49.7z M338.1,46.3v-2.9c-1.6,0.1-2.8,1.3-2.9,2.9H338.1z M338.1,46.5h-2.9c0.1,1.7,1.4,2.9,2.9,2.9
			V46.5z M338.3,46.3h3c-0.1-1.7-1.4-2.9-3-2.9V46.3z M338.3,46.5v2.9c1.5-0.1,2.9-1.2,3-2.9H338.3z"/>
	</g>
	<polyline points="330.1,48.8 334.6,46.5 330.1,44.2 331.2,46.5 	"/>
	<line class="st0" x1="288.6" y1="46.5" x2="331.2" y2="46.5"/>
	<polyline points="335.9,20.7 338.2,25.3 340.4,20.7 338.2,21.9 	"/>
	<line class="st0" x1="338.2" y1="11.1" x2="338.2" y2="21.9"/>
	<polyline points="335.9,38.4 338.2,42.9 340.4,38.4 338.2,39.5 	"/>
	<line class="st0" x1="338.2" y1="32.3" x2="338.2" y2="39.5"/>
	<polyline points="347.8,13.4 352.3,11.1 347.8,8.8 348.9,11.1 	"/>
	<line class="st0" x1="324" y1="11.1" x2="348.9" y2="11.1"/>
	<g>
		<path class="st1" d="M338.2,32c-1.8,0-3.3-1.5-3.3-3.3c0-1.8,1.5-3.3,3.3-3.3c1.8,0,3.3,1.5,3.3,3.3C341.5,30.5,340,32,338.2,32z
			 M338,28.7l-2.1-2.1c-0.5,0.6-0.8,1.3-0.8,2.1c0,0.6,0.2,1.4,0.8,2.1L338,28.7z M338.2,28.9l-2.1,2.1c0.8,0.8,1.7,0.8,2.1,0.8
			c1.3,0,2.1-0.8,2.1-0.8c0,0-0.1-0.1-0.1-0.1L338.2,28.9z M338.2,28.5l2.1-2.1c-0.8-0.8-1.7-0.8-2.1-0.8c-1.3,0-2.1,0.8-2.1,0.8
			c0,0,0.1,0.1,0.1,0.1L338.2,28.5z M338.4,28.7l2.1,2.1c0.5-0.6,0.8-1.3,0.8-2.1c0-0.8-0.3-1.6-0.8-2.1L338.4,28.7z"/>
	</g>
	<polyline points="330.1,31 334.6,28.8 330.1,26.5 331.2,28.8 	"/>
	<line class="st0" x1="324" y1="28.8" x2="331.2" y2="28.8"/>
	<g>
		<path class="st1" d="M312.4,24.8c0.3-0.3,0.7-0.3,1-0.3c0.9,0,1.5,0.7,1.5,1.5c0,0.9-0.8,1.5-1.7,1.5c-0.8,0-1.4-0.6-1.4-1.3
			c0-0.4,0.3-0.4,0.3-0.4c0.1,0,0.3,0.1,0.3,0.4c0,0.2-0.1,0.4-0.4,0.3c0.2,0.5,0.6,0.7,1.1,0.7c0.3,0,0.6-0.2,0.8-0.4
			c0.2-0.3,0.2-0.7,0.2-0.9c0-0.4,0-0.7-0.2-0.9c0-0.1-0.2-0.4-0.6-0.4c-0.2,0-0.7,0.1-1,0.4c-0.1,0.1-0.1,0.1-0.1,0.1
			c-0.1,0-0.1-0.1-0.1-0.2v-2.1c0-0.1,0-0.2,0.1-0.2c0,0,0,0,0.1,0c0.5,0.2,0.8,0.2,1,0.2c0.5,0,0.9-0.1,1.1-0.2c0,0,0,0,0.1,0
			c0,0,0.1,0,0.1,0.1c0,0.1-0.5,0.7-1.5,0.7c-0.1,0-0.3,0-0.7-0.1V24.8z"/>
	</g>
	<polyline points="311.3,29 315.4,29 315.4,28.5 311.3,28.5 	"/>
	<g>
		<path class="st1" d="M314.2,32.4c0.4,0.2,0.7,0.6,0.7,1.1c0,0.8-0.7,1.3-1.6,1.3c-0.8,0-1.6-0.4-1.6-1.2c0-0.7,0.7-1.1,1.1-1.3
			c-0.4-0.2-0.5-0.3-0.6-0.4c-0.1-0.1-0.3-0.4-0.3-0.7c0-0.7,0.6-1.2,1.4-1.2c0.7,0,1.4,0.4,1.4,1c0,0.5-0.3,0.8-0.9,1.1
			C313.9,32.2,314.1,32.3,314.2,32.4z M312.1,33.6c0,0.6,0.6,1,1.2,1c0.6,0,1.2-0.3,1.2-0.9c0-0.4-0.3-0.6-0.5-0.7l-1-0.6
			C312.5,32.7,312.1,33.1,312.1,33.6z M313.5,32C313.6,32,313.6,32,313.5,32c0.1,0,0.8-0.3,0.8-0.9c0-0.5-0.5-0.8-1-0.8
			c-0.5,0-1,0.3-1,0.7c0,0.3,0.2,0.4,0.4,0.6L313.5,32z"/>
	</g>
</g>
</svg>
