<svg id="Layer_1" data-name="Layer 1" xmlns="http://www.w3.org/2000/svg" viewBox="0 0 461.35 80.941">
  <defs>
    <style>
      .cls-1 {
        fill: #1d1d1b;
      }

      .cls-2, .cls-3, .cls-4 {
        fill: none;
        stroke: #000;
        stroke-miterlimit: 10;
        stroke-width: 0.85px;
      }

      .cls-3, .cls-4 {
        stroke-linecap: round;
        stroke-dashoffset: -0.425px;
      }

      .cls-3 {
        stroke-dasharray: 0 3.677;
      }

      .cls-4 {
        stroke-dasharray: 0 3.928;
      }
    </style>
  </defs>
  <title>LatticeIIR</title>
  <g>
    <path class="cls-1" d="M114.575,7.556a9.013,9.013,0,0,1-.558,1.9c-.18.379-.579.967-1.126.967a.768.768,0,0,1-.847-.688.571.571,0,0,1,.548-.6.344.344,0,0,1,.368.348.539.539,0,0,1-.547.538.709.709,0,0,0,.478.18c.518,0,.687-.907.866-1.874l.748-3.935h-.658c-.189,0-.279,0-.279-.12,0-.189.11-.189.3-.189h.688c.239-1.256.269-1.355.328-1.565.3-.986.927-1.165,1.266-1.165.409,0,.867.229.867.687a.571.571,0,0,1-.548.6A.345.345,0,0,1,116.1,2.3a.552.552,0,0,1,.538-.538.732.732,0,0,0-.488-.179.539.539,0,0,0-.468.339,9.447,9.447,0,0,0-.24,1.036l-.209,1.136h.827c.17,0,.269,0,.269.109,0,.2-.1.2-.3.2h-.857Z" transform="translate(-0.289 -0.91)"/>
    <path class="cls-1" d="M117.755,7.492a1.4,1.4,0,0,0,.021-.209c0-.189-.048-.342-.23-.342-.272,0-.4.349-.509.753-.049.188-.056.209-.153.209-.021,0-.119,0-.119-.09a2.689,2.689,0,0,1,.251-.7.643.643,0,0,1,.551-.369.725.725,0,0,1,.719.488,1.476,1.476,0,0,1,.989-.488,1.062,1.062,0,0,1,1.047,1.164,2.037,2.037,0,0,1-1.793,1.981.821.821,0,0,1-.718-.412c-.077.293-.174.669-.258,1.039a3.171,3.171,0,0,0-.076.321c0,.083.188.083.341.083.084,0,.182,0,.182.1,0,.133-.077.154-.14.154-.23,0-.5-.028-.732-.028-.189,0-.419.028-.6.028a.1.1,0,0,1-.1-.1c0-.147.1-.147.188-.147.279,0,.293-.055.341-.251Zm.175,1.492a.564.564,0,0,0-.021.1c0,.07.125.607.62.607a1.135,1.135,0,0,0,.872-.676,4.055,4.055,0,0,0,.363-1.4c0-.474-.237-.676-.509-.676-.223,0-.572.1-.977.642Z" transform="translate(-0.289 -0.91)"/>
    <path class="cls-1" d="M121.548,8.245c-.119,0-.279,0-.279-.175s.167-.167.279-.167H125.7c.118,0,.278,0,.278.175s-.167.167-.278.167Z" transform="translate(-0.289 -0.91)"/>
    <path class="cls-1" d="M129.094,9.249c0,.23,0,.321.7.321h.265v.251c-.153-.007-1.032-.028-1.248-.028-.258,0-1.116.021-1.241.028V9.57h.265c.7,0,.7-.091.7-.321V5.693a2.3,2.3,0,0,1-1.011.2V5.637a1.9,1.9,0,0,0,1.367-.447c.2,0,.209.008.209.2Z" transform="translate(-0.289 -0.91)"/>
    <path class="cls-1" d="M132.379,10.875V.91h1.365v.4h-.967v9.167h.967v.4Z" transform="translate(-0.289 -0.91)"/>
    <path class="cls-1" d="M135.416,5.494a3.227,3.227,0,0,0,.159-.837c0-.329-.11-.459-.309-.459-.358,0-.558.479-.727,1.186-.06.22-.07.229-.169.229-.02,0-.12,0-.12-.1a4.983,4.983,0,0,1,.3-.967.87.87,0,0,1,.747-.568.9.9,0,0,1,.917.867,1.926,1.926,0,0,1,1.554-.867,1.019,1.019,0,0,1,1.146,1.066,8.937,8.937,0,0,1-.608,2.192,1.9,1.9,0,0,0-.179.708c0,.229.07.329.239.329.488,0,.817-.558,1.016-1.236.05-.149.05-.179.15-.179.03,0,.119,0,.119.1,0,.08-.368,1.535-1.305,1.535a.8.8,0,0,1-.817-.817,1.136,1.136,0,0,1,.1-.459,9.5,9.5,0,0,0,.647-2.321c0-.329-.089-.7-.538-.7a1.984,1.984,0,0,0-1.624,1.216c-.01.04-.09.329-.13.5-.049.23-.109.449-.169.668l-.219.9c-.06.249-.179.717-.189.737a.408.408,0,0,1-.369.279.267.267,0,0,1-.289-.269c0-.05.06-.279.09-.429Z" transform="translate(-0.289 -0.91)"/>
    <path class="cls-1" d="M141.545,10.875H140.18v-.4h.966V1.309h-.966V.91h1.365Z" transform="translate(-0.289 -0.91)"/>
    <path class="cls-1" d="M115.1,30.3a2.086,2.086,0,0,1-2.113,1.375c-.956,0-1.325-.2-1.325-.608a.556.556,0,0,1,.538-.578.348.348,0,0,1,.379.349.556.556,0,0,1-.409.518,2.745,2.745,0,0,0,.8.1,1.569,1.569,0,0,0,1.435-1.077c0-.019.12-.428.329-1.315l-.01-.01a1.733,1.733,0,0,1-1.156.578,1.4,1.4,0,0,1-1.325-1.574,2.861,2.861,0,0,1,2.371-2.83,1.055,1.055,0,0,1,.927.628.433.433,0,0,1,.409-.428.262.262,0,0,1,.289.269.891.891,0,0,1-.031.179Zm.289-3.846a.726.726,0,0,0,.029-.15c0-.05-.139-.857-.8-.857a1.5,1.5,0,0,0-1.117.887,6.609,6.609,0,0,0-.558,2.163c0,.4.15.916.648.916a1.357,1.357,0,0,0,.807-.359,1.487,1.487,0,0,0,.509-.7Z" transform="translate(-0.289 -0.91)"/>
    <path class="cls-1" d="M117.638,28.75a1.4,1.4,0,0,0,.021-.209c0-.189-.049-.342-.23-.342-.272,0-.405.348-.509.753-.049.188-.056.209-.153.209-.021,0-.119,0-.119-.091a2.687,2.687,0,0,1,.251-.7.644.644,0,0,1,.551-.37.724.724,0,0,1,.718.489,1.475,1.475,0,0,1,.99-.489,1.063,1.063,0,0,1,1.047,1.165,2.036,2.036,0,0,1-1.793,1.98.822.822,0,0,1-.718-.411c-.077.293-.174.669-.258,1.039a3.174,3.174,0,0,0-.077.321c0,.083.189.083.342.083.084,0,.181,0,.181.1,0,.133-.076.154-.139.154-.23,0-.495-.029-.732-.029-.189,0-.419.029-.6.029a.1.1,0,0,1-.1-.105c0-.147.1-.147.188-.147.28,0,.293-.055.342-.251Zm.175,1.492a.548.548,0,0,0-.021.1c0,.07.125.607.62.607a1.136,1.136,0,0,0,.872-.676,4.051,4.051,0,0,0,.362-1.4c0-.474-.236-.676-.508-.676-.223,0-.572.1-.977.641Z" transform="translate(-0.289 -0.91)"/>
    <path class="cls-1" d="M121.431,29.5c-.119,0-.28,0-.28-.174s.168-.167.28-.167h4.155c.119,0,.279,0,.279.174s-.167.167-.279.167Z" transform="translate(-0.289 -0.91)"/>
    <path class="cls-1" d="M128.977,30.507c0,.23,0,.321.7.321h.265v.251c-.153-.007-1.032-.028-1.248-.028-.258,0-1.116.021-1.241.028v-.251h.264c.7,0,.7-.091.7-.321V26.951a2.3,2.3,0,0,1-1.011.2V26.9a1.9,1.9,0,0,0,1.367-.447c.195,0,.209.008.209.2Z" transform="translate(-0.289 -0.91)"/>
    <path class="cls-1" d="M132.254,32.125V22.16h1.365v.4h-.967v9.167h.967v.4Z" transform="translate(-0.289 -0.91)"/>
    <path class="cls-1" d="M135.3,26.744a3.2,3.2,0,0,0,.16-.837c0-.329-.11-.459-.309-.459-.358,0-.558.479-.727,1.186-.06.22-.07.229-.17.229-.02,0-.119,0-.119-.1a4.983,4.983,0,0,1,.3-.967.87.87,0,0,1,.747-.568.9.9,0,0,1,.917.867,1.924,1.924,0,0,1,1.554-.867A1.019,1.019,0,0,1,138.8,26.3a8.982,8.982,0,0,1-.608,2.192,1.9,1.9,0,0,0-.179.708c0,.229.07.329.239.329.488,0,.817-.558,1.016-1.236.05-.149.05-.179.15-.179.029,0,.119,0,.119.1,0,.08-.368,1.535-1.3,1.535a.8.8,0,0,1-.817-.817,1.136,1.136,0,0,1,.1-.459,9.5,9.5,0,0,0,.647-2.321c0-.329-.09-.7-.538-.7A1.983,1.983,0,0,0,136,26.664c-.01.04-.09.329-.13.5-.05.23-.109.449-.169.668l-.219.9c-.06.249-.18.717-.189.737a.408.408,0,0,1-.369.279.267.267,0,0,1-.289-.269c0-.05.06-.279.09-.429Z" transform="translate(-0.289 -0.91)"/>
    <path class="cls-1" d="M141.42,32.125h-1.365v-.4h.966V22.559h-.966v-.4h1.365Z" transform="translate(-0.289 -0.91)"/>
    <polygon class="cls-2" points="144.548 26.329 144.548 1.526 179.981 1.526 179.981 51.132 144.548 51.132 144.548 26.329"/>
    <polyline points="239.225 17.967 243.76 15.699 239.225 13.431 240.359 15.699"/>
    <line class="cls-2" x1="179.981" y1="15.699" x2="240.359" y2="15.699"/>
    <polyline points="184.517 34.691 179.981 36.959 184.517 39.226 183.383 36.959"/>
    <line class="cls-2" x1="183.383" y1="36.959" x2="243.76" y2="36.959"/>
    <path class="cls-1" d="M188.989,7.556a8.889,8.889,0,0,1-.558,1.9c-.18.379-.578.967-1.126.967a.768.768,0,0,1-.847-.688.571.571,0,0,1,.548-.6.345.345,0,0,1,.369.348.54.54,0,0,1-.548.538.709.709,0,0,0,.478.18c.518,0,.687-.907.866-1.874l.748-3.935h-.658c-.189,0-.279,0-.279-.12,0-.189.11-.189.3-.189h.688c.239-1.256.269-1.355.328-1.565.3-.986.927-1.165,1.266-1.165.409,0,.867.229.867.687a.571.571,0,0,1-.548.6.345.345,0,0,1-.369-.349.552.552,0,0,1,.538-.538.732.732,0,0,0-.488-.179.54.54,0,0,0-.468.339,9.684,9.684,0,0,0-.24,1.036l-.209,1.136h.827c.17,0,.269,0,.269.109,0,.2-.1.2-.3.2h-.857Z" transform="translate(-0.289 -0.91)"/>
    <path class="cls-1" d="M192.169,7.492a1.4,1.4,0,0,0,.021-.209c0-.189-.048-.342-.23-.342-.272,0-.4.349-.509.753-.049.188-.055.209-.153.209-.021,0-.119,0-.119-.09a2.689,2.689,0,0,1,.251-.7.643.643,0,0,1,.551-.369.725.725,0,0,1,.719.488,1.476,1.476,0,0,1,.989-.488,1.062,1.062,0,0,1,1.047,1.164,2.037,2.037,0,0,1-1.793,1.981.821.821,0,0,1-.718-.412c-.077.293-.174.669-.258,1.039a3.171,3.171,0,0,0-.076.321c0,.083.188.083.341.083.084,0,.182,0,.182.1,0,.133-.077.154-.14.154-.23,0-.5-.028-.732-.028-.188,0-.418.028-.6.028a.1.1,0,0,1-.1-.1c0-.147.1-.147.188-.147.279,0,.293-.055.342-.251Zm.175,1.492a.564.564,0,0,0-.021.1c0,.07.125.607.62.607a1.135,1.135,0,0,0,.872-.676,4.055,4.055,0,0,0,.363-1.4c0-.474-.237-.676-.509-.676-.223,0-.572.1-.977.642Z" transform="translate(-0.289 -0.91)"/>
    <path class="cls-1" d="M195.962,8.245c-.119,0-.279,0-.279-.175s.167-.167.279-.167h4.156c.118,0,.278,0,.278.175s-.167.167-.278.167Z" transform="translate(-0.289 -0.91)"/>
    <path class="cls-1" d="M204.477,9.821H201.6c0-.2,0-.209.069-.272l1.681-1.66a2.119,2.119,0,0,0,.655-1.339,1.044,1.044,0,0,0-1.06-1.109,1.1,1.1,0,0,0-1.018.649c.363,0,.412.244.412.369a.37.37,0,1,1-.739-.02,1.352,1.352,0,0,1,1.45-1.249,1.461,1.461,0,0,1,1.632,1.36,2.017,2.017,0,0,1-1,1.507c-.418.327-.662.523-1.394,1.171h1.283a3.589,3.589,0,0,0,.69-.042,1.6,1.6,0,0,0,.181-.634h.238Z" transform="translate(-0.289 -0.91)"/>
    <path class="cls-1" d="M206.785,10.875V.91h1.365v.4h-.966v9.167h.966v.4Z" transform="translate(-0.289 -0.91)"/>
    <path class="cls-1" d="M209.822,5.494a3.182,3.182,0,0,0,.159-.837c0-.329-.109-.459-.309-.459-.358,0-.558.479-.727,1.186-.06.22-.07.229-.169.229-.02,0-.12,0-.12-.1a4.983,4.983,0,0,1,.3-.967.871.871,0,0,1,.747-.568.9.9,0,0,1,.917.867,1.928,1.928,0,0,1,1.554-.867,1.018,1.018,0,0,1,1.146,1.066,8.937,8.937,0,0,1-.608,2.192,1.921,1.921,0,0,0-.179.708c0,.229.07.329.239.329.488,0,.817-.558,1.017-1.236.049-.149.049-.179.149-.179.03,0,.12,0,.12.1,0,.08-.369,1.535-1.306,1.535a.8.8,0,0,1-.817-.817,1.136,1.136,0,0,1,.1-.459,9.5,9.5,0,0,0,.648-2.321c0-.329-.09-.7-.538-.7a1.981,1.981,0,0,0-1.624,1.216c-.011.04-.09.329-.13.5-.05.23-.11.449-.169.668l-.22.9c-.06.249-.179.717-.189.737a.408.408,0,0,1-.369.279.267.267,0,0,1-.289-.269c0-.05.06-.279.09-.429Z" transform="translate(-0.289 -0.91)"/>
    <path class="cls-1" d="M215.952,10.875h-1.366v-.4h.967V1.309h-.967V.91h1.366Z" transform="translate(-0.289 -0.91)"/>
    <path class="cls-1" d="M189.517,30.3a2.086,2.086,0,0,1-2.113,1.375c-.956,0-1.325-.2-1.325-.608a.556.556,0,0,1,.538-.578.348.348,0,0,1,.379.349.556.556,0,0,1-.409.518,2.745,2.745,0,0,0,.8.1,1.569,1.569,0,0,0,1.435-1.077c0-.019.12-.428.329-1.315l-.01-.01a1.733,1.733,0,0,1-1.156.578,1.4,1.4,0,0,1-1.325-1.574,2.861,2.861,0,0,1,2.371-2.83,1.055,1.055,0,0,1,.927.628.433.433,0,0,1,.409-.428.262.262,0,0,1,.289.269.969.969,0,0,1-.03.179Zm.289-3.846a.726.726,0,0,0,.029-.15c0-.05-.139-.857-.8-.857a1.5,1.5,0,0,0-1.117.887,6.609,6.609,0,0,0-.558,2.163c0,.4.15.916.648.916a1.357,1.357,0,0,0,.807-.359,1.487,1.487,0,0,0,.509-.7Z" transform="translate(-0.289 -0.91)"/>
    <path class="cls-1" d="M192.044,28.75a1.4,1.4,0,0,0,.021-.209c0-.189-.048-.342-.23-.342-.272,0-.4.348-.509.753-.049.188-.055.209-.153.209-.021,0-.119,0-.119-.091a2.687,2.687,0,0,1,.251-.7.644.644,0,0,1,.551-.37.726.726,0,0,1,.719.489,1.472,1.472,0,0,1,.989-.489,1.063,1.063,0,0,1,1.047,1.165,2.036,2.036,0,0,1-1.793,1.98.822.822,0,0,1-.718-.411c-.077.293-.174.669-.258,1.039a3.109,3.109,0,0,0-.076.321c0,.083.188.083.341.083.084,0,.182,0,.182.1,0,.133-.077.154-.14.154-.23,0-.5-.029-.732-.029-.188,0-.418.029-.6.029a.1.1,0,0,1-.1-.105c0-.147.1-.147.188-.147.279,0,.293-.055.342-.251Zm.175,1.492a.548.548,0,0,0-.021.1c0,.07.125.607.62.607a1.135,1.135,0,0,0,.872-.676,4.055,4.055,0,0,0,.363-1.4c0-.474-.237-.676-.509-.676-.223,0-.572.1-.977.641Z" transform="translate(-0.289 -0.91)"/>
    <path class="cls-1" d="M195.845,29.5c-.119,0-.28,0-.28-.174s.168-.167.28-.167H200c.119,0,.279,0,.279.174s-.167.167-.279.167Z" transform="translate(-0.289 -0.91)"/>
    <path class="cls-1" d="M204.359,31.079h-2.873c0-.2,0-.209.07-.272l1.68-1.66a2.119,2.119,0,0,0,.656-1.339,1.044,1.044,0,0,0-1.06-1.109,1.1,1.1,0,0,0-1.018.649c.363,0,.412.244.412.369a.37.37,0,1,1-.74-.02,1.353,1.353,0,0,1,1.451-1.249,1.459,1.459,0,0,1,1.631,1.36,2.015,2.015,0,0,1-1,1.506c-.418.328-.662.523-1.394,1.172h1.282a3.594,3.594,0,0,0,.691-.042,1.6,1.6,0,0,0,.181-.634h.237Z" transform="translate(-0.289 -0.91)"/>
    <path class="cls-1" d="M206.668,32.125V22.16h1.365v.4h-.967v9.167h.967v.4Z" transform="translate(-0.289 -0.91)"/>
    <path class="cls-1" d="M209.705,26.744a3.227,3.227,0,0,0,.159-.837c0-.329-.11-.459-.309-.459-.358,0-.558.479-.727,1.186-.06.22-.07.229-.169.229-.02,0-.12,0-.12-.1a4.983,4.983,0,0,1,.3-.967.871.871,0,0,1,.747-.568.9.9,0,0,1,.917.867,1.926,1.926,0,0,1,1.554-.867A1.019,1.019,0,0,1,213.2,26.3a8.937,8.937,0,0,1-.608,2.192,1.9,1.9,0,0,0-.179.708c0,.229.07.329.239.329.488,0,.817-.558,1.016-1.236.05-.149.05-.179.15-.179.03,0,.119,0,.119.1,0,.08-.368,1.535-1.305,1.535a.8.8,0,0,1-.817-.817,1.136,1.136,0,0,1,.1-.459,9.5,9.5,0,0,0,.647-2.321c0-.329-.089-.7-.538-.7a1.984,1.984,0,0,0-1.624,1.216c-.01.04-.089.329-.13.5-.049.23-.109.449-.168.668l-.22.9c-.06.249-.179.717-.189.737a.408.408,0,0,1-.369.279.267.267,0,0,1-.289-.269c0-.05.06-.279.09-.429Z" transform="translate(-0.289 -0.91)"/>
    <path class="cls-1" d="M215.834,32.125h-1.365v-.4h.967V22.559h-.967v-.4h1.365Z" transform="translate(-0.289 -0.91)"/>
    <path class="cls-1" d="M157.791,24.748h-.249c-.159-1.345-.369-1.933-1.793-1.933h-1.027c-.468,0-.488.07-.488.4V28.5c0,.348,0,.478.947.478h.328v.309c-.358-.03-1.265-.03-1.674-.03-.388,0-1.165,0-1.514.03v-.309h.239c.767,0,.787-.11.787-.469V23.283c0-.358-.02-.468-.787-.468h-.239v-.309h5.191Z" transform="translate(-0.289 -0.91)"/>
    <path class="cls-1" d="M159.552,28.39a1.387,1.387,0,0,0,.021-.209c0-.188-.049-.342-.23-.342-.272,0-.405.349-.509.753-.049.189-.056.21-.153.21-.021,0-.119,0-.119-.091a2.674,2.674,0,0,1,.251-.7.642.642,0,0,1,.551-.37.726.726,0,0,1,.719.488,1.476,1.476,0,0,1,.989-.488,1.063,1.063,0,0,1,1.047,1.165,2.036,2.036,0,0,1-1.793,1.98.821.821,0,0,1-.718-.412c-.077.293-.174.67-.258,1.04a3.235,3.235,0,0,0-.077.32c0,.084.189.084.342.084.084,0,.181,0,.181.1,0,.133-.076.154-.139.154-.23,0-.5-.028-.732-.028-.189,0-.419.028-.6.028a.1.1,0,0,1-.1-.105c0-.146.1-.146.188-.146.279,0,.292-.056.341-.251Zm.175,1.492a.558.558,0,0,0-.021.1c0,.07.125.607.62.607a1.135,1.135,0,0,0,.872-.677,4.045,4.045,0,0,0,.363-1.4c0-.474-.237-.677-.509-.677-.223,0-.572.105-.977.642Z" transform="translate(-0.289 -0.91)"/>
    <path class="cls-1" d="M163.345,29.143c-.119,0-.28,0-.28-.174s.168-.167.28-.167H167.5c.119,0,.279,0,.279.174s-.167.167-.279.167Z" transform="translate(-0.289 -0.91)"/>
    <path class="cls-1" d="M170.883,30.147c0,.23,0,.321.7.321h.265v.251c-.153-.007-1.032-.028-1.248-.028-.258,0-1.116.021-1.241.028v-.251h.265c.7,0,.7-.091.7-.321V26.591a2.3,2.3,0,0,1-1.011.2v-.251a1.9,1.9,0,0,0,1.367-.446c.195,0,.209.007.209.2Z" transform="translate(-0.289 -0.91)"/>
    <polygon class="cls-2" points="321.713 26.329 321.713 1.526 357.146 1.526 357.146 51.132 321.713 51.132 321.713 26.329"/>
    <polyline points="317.177 17.967 321.713 15.699 317.177 13.431 318.311 15.699"/>
    <line class="cls-2" x1="286.28" y1="15.699" x2="318.311" y2="15.699"/>
    <polyline points="290.815 34.691 286.28 36.959 290.815 39.226 289.681 36.959"/>
    <line class="cls-2" x1="289.681" y1="36.959" x2="321.713" y2="36.959"/>
    <path class="cls-1" d="M296.91,7.673a8.949,8.949,0,0,1-.557,1.9c-.18.378-.579.966-1.126.966a.768.768,0,0,1-.847-.688.571.571,0,0,1,.548-.6.344.344,0,0,1,.368.348.54.54,0,0,1-.548.539.715.715,0,0,0,.479.179c.518,0,.687-.907.867-1.873l.747-3.936h-.657c-.19,0-.28,0-.28-.119,0-.19.11-.19.3-.19h.688a15.588,15.588,0,0,1,.329-1.564c.3-.987.926-1.166,1.264-1.166.41,0,.868.229.868.688a.571.571,0,0,1-.548.6.344.344,0,0,1-.369-.348.55.55,0,0,1,.538-.538.731.731,0,0,0-.489-.18.539.539,0,0,0-.467.339,9.447,9.447,0,0,0-.24,1.036l-.209,1.136h.828c.168,0,.268,0,.268.109,0,.2-.1.2-.3.2h-.856Z" transform="translate(-0.289 -0.91)"/>
    <path class="cls-1" d="M301.1,9.374c0,.23,0,.321.7.321h.265v.251c-.154-.007-1.032-.028-1.249-.028-.257,0-1.115.021-1.241.028V9.7h.266c.7,0,.7-.091.7-.321V5.818a2.3,2.3,0,0,1-1.012.2V5.762a1.9,1.9,0,0,0,1.368-.447c.2,0,.209.008.209.2Z" transform="translate(-0.289 -0.91)"/>
    <path class="cls-1" d="M304.379,10.992V1.027h1.365v.4h-.967v9.167h.967v.4Z" transform="translate(-0.289 -0.91)"/>
    <path class="cls-1" d="M307.424,5.611a3.227,3.227,0,0,0,.159-.837c0-.329-.109-.459-.309-.459-.359,0-.558.479-.727,1.186-.06.22-.07.229-.17.229-.02,0-.119,0-.119-.1a4.96,4.96,0,0,1,.3-.966A.869.869,0,0,1,307.3,4.1a.9.9,0,0,1,.917.867,1.924,1.924,0,0,1,1.554-.867,1.019,1.019,0,0,1,1.146,1.067,8.974,8.974,0,0,1-.608,2.191,1.921,1.921,0,0,0-.179.708c0,.229.069.329.239.329.488,0,.816-.558,1.016-1.236.05-.149.05-.179.15-.179.029,0,.119,0,.119.1,0,.079-.369,1.534-1.305,1.534a.8.8,0,0,1-.817-.817,1.139,1.139,0,0,1,.1-.459,9.5,9.5,0,0,0,.647-2.321c0-.329-.09-.7-.538-.7a1.984,1.984,0,0,0-1.624,1.216c-.01.04-.09.329-.13.5-.05.23-.109.449-.169.668l-.219.9c-.06.249-.179.717-.19.737a.407.407,0,0,1-.368.279.266.266,0,0,1-.289-.269c0-.05.059-.279.09-.428Z" transform="translate(-0.289 -0.91)"/>
    <path class="cls-1" d="M313.545,10.992H312.18v-.4h.966V1.426h-.966v-.4h1.365Z" transform="translate(-0.289 -0.91)"/>
    <path class="cls-1" d="M297.438,30.426a2.084,2.084,0,0,1-2.112,1.375c-.956,0-1.325-.2-1.325-.608a.556.556,0,0,1,.538-.578.348.348,0,0,1,.379.349.555.555,0,0,1-.409.518,2.747,2.747,0,0,0,.8.1,1.569,1.569,0,0,0,1.434-1.077c0-.019.119-.428.329-1.315l-.01-.01a1.735,1.735,0,0,1-1.156.578,1.4,1.4,0,0,1-1.325-1.574,2.86,2.86,0,0,1,2.371-2.83,1.056,1.056,0,0,1,.927.628.433.433,0,0,1,.408-.428.261.261,0,0,1,.289.269.97.97,0,0,1-.029.179Zm.29-3.846a.724.724,0,0,0,.03-.15c0-.05-.14-.857-.8-.857a1.5,1.5,0,0,0-1.115.887,6.587,6.587,0,0,0-.559,2.163c0,.4.15.916.648.916a1.357,1.357,0,0,0,.807-.359,1.491,1.491,0,0,0,.508-.7Z" transform="translate(-0.289 -0.91)"/>
    <path class="cls-1" d="M300.977,30.632c0,.23,0,.321.7.321h.265V31.2c-.154-.007-1.032-.028-1.249-.028-.257,0-1.115.021-1.241.028v-.251h.266c.7,0,.7-.091.7-.321V27.076a2.3,2.3,0,0,1-1.012.2V27.02a1.9,1.9,0,0,0,1.368-.447c.2,0,.209.008.209.2Z" transform="translate(-0.289 -0.91)"/>
    <path class="cls-1" d="M304.262,32.25V22.285h1.365v.4h-.967v9.167h.967v.4Z" transform="translate(-0.289 -0.91)"/>
    <path class="cls-1" d="M307.3,26.869a3.227,3.227,0,0,0,.159-.837c0-.329-.109-.459-.309-.459-.359,0-.558.479-.727,1.186-.06.22-.07.229-.17.229-.02,0-.119,0-.119-.1a4.983,4.983,0,0,1,.3-.967.87.87,0,0,1,.747-.568.9.9,0,0,1,.917.867,1.924,1.924,0,0,1,1.554-.867A1.019,1.019,0,0,1,310.8,26.42a8.982,8.982,0,0,1-.608,2.192,1.921,1.921,0,0,0-.179.708c0,.229.069.329.239.329.488,0,.816-.558,1.016-1.236.05-.149.05-.179.15-.179.029,0,.119,0,.119.1,0,.08-.369,1.535-1.305,1.535a.8.8,0,0,1-.817-.817,1.136,1.136,0,0,1,.1-.459,9.5,9.5,0,0,0,.647-2.321c0-.329-.09-.7-.538-.7A1.984,1.984,0,0,0,308,26.789c-.01.04-.09.329-.13.5-.05.23-.109.449-.169.668l-.219.9c-.06.249-.179.717-.19.737a.407.407,0,0,1-.368.279.267.267,0,0,1-.289-.269c0-.05.059-.279.09-.429Z" transform="translate(-0.289 -0.91)"/>
    <path class="cls-1" d="M313.428,32.25h-1.365v-.4h.966V22.684h-.966v-.4h1.365Z" transform="translate(-0.289 -0.91)"/>
    <line class="cls-2" x1="357.146" y1="15.699" x2="392.578" y2="15.699"/>
    <polyline points="361.681 34.691 357.146 36.959 361.681 39.226 360.547 36.959"/>
    <line class="cls-2" x1="360.547" y1="36.959" x2="392.578" y2="36.959"/>
    <path class="cls-1" d="M367.582,7.673a8.909,8.909,0,0,1-.558,1.9c-.179.378-.578.966-1.126.966a.768.768,0,0,1-.846-.688.571.571,0,0,1,.548-.6.344.344,0,0,1,.368.348.54.54,0,0,1-.548.539.712.712,0,0,0,.478.179c.519,0,.688-.907.868-1.873l.747-3.936h-.658c-.189,0-.279,0-.279-.119,0-.19.11-.19.3-.19h.688a15.588,15.588,0,0,1,.329-1.564c.3-.987.926-1.166,1.264-1.166.409,0,.867.229.867.688a.571.571,0,0,1-.547.6.345.345,0,0,1-.37-.348.551.551,0,0,1,.539-.538.731.731,0,0,0-.489-.18.541.541,0,0,0-.468.339,9.7,9.7,0,0,0-.239,1.036l-.209,1.136h.827c.169,0,.269,0,.269.109,0,.2-.1.2-.3.2h-.856Z" transform="translate(-0.289 -0.91)"/>
    <path class="cls-1" d="M371.418,10.085c-1.618,0-1.618-1.861-1.618-2.364s0-2.406,1.618-2.406a1.448,1.448,0,0,1,1.206.6,3.1,3.1,0,0,1,.412,1.806C373.036,8.224,373.036,10.085,371.418,10.085Zm.893-.983a7.671,7.671,0,0,0,.09-1.471,5.6,5.6,0,0,0-.119-1.485.9.9,0,0,0-1.743.062,6.012,6.012,0,0,0-.1,1.423,7.273,7.273,0,0,0,.1,1.5.9.9,0,0,0,1.779-.028Z" transform="translate(-0.289 -0.91)"/>
    <path class="cls-1" d="M374.934,10.992V1.027H376.3v.4h-.967v9.167h.967v.4Z" transform="translate(-0.289 -0.91)"/>
    <path class="cls-1" d="M377.971,5.611a3.227,3.227,0,0,0,.159-.837c0-.329-.109-.459-.309-.459-.359,0-.558.479-.727,1.186-.06.22-.071.229-.17.229-.02,0-.119,0-.119-.1a4.96,4.96,0,0,1,.3-.966.869.869,0,0,1,.747-.569.9.9,0,0,1,.917.867,1.924,1.924,0,0,1,1.554-.867,1.019,1.019,0,0,1,1.146,1.067,8.974,8.974,0,0,1-.608,2.191,1.921,1.921,0,0,0-.179.708c0,.229.069.329.239.329.488,0,.816-.558,1.016-1.236.05-.149.05-.179.15-.179.029,0,.119,0,.119.1,0,.079-.369,1.534-1.306,1.534a.8.8,0,0,1-.816-.817,1.139,1.139,0,0,1,.1-.459,9.5,9.5,0,0,0,.647-2.321c0-.329-.09-.7-.538-.7a1.983,1.983,0,0,0-1.624,1.216c-.01.04-.09.329-.13.5-.05.23-.109.449-.169.668l-.22.9c-.059.249-.178.717-.189.737a.407.407,0,0,1-.368.279.266.266,0,0,1-.289-.269c0-.05.059-.279.09-.428Z" transform="translate(-0.289 -0.91)"/>
    <path class="cls-1" d="M384.107,10.992h-1.365v-.4h.967V1.426h-.967v-.4h1.365Z" transform="translate(-0.289 -0.91)"/>
    <path class="cls-1" d="M368.11,30.426A2.084,2.084,0,0,1,366,31.8c-.956,0-1.325-.2-1.325-.608a.556.556,0,0,1,.538-.578.348.348,0,0,1,.379.349.556.556,0,0,1-.409.518,2.747,2.747,0,0,0,.8.1,1.569,1.569,0,0,0,1.434-1.077c0-.019.119-.428.329-1.315l-.011-.01a1.729,1.729,0,0,1-1.155.578,1.4,1.4,0,0,1-1.325-1.574,2.86,2.86,0,0,1,2.371-2.83,1.056,1.056,0,0,1,.927.628.432.432,0,0,1,.408-.428.261.261,0,0,1,.289.269.97.97,0,0,1-.029.179Zm.289-3.846a.663.663,0,0,0,.031-.15c0-.05-.14-.857-.8-.857a1.5,1.5,0,0,0-1.115.887,6.587,6.587,0,0,0-.559,2.163c0,.4.149.916.647.916a1.357,1.357,0,0,0,.808-.359,1.491,1.491,0,0,0,.508-.7Z" transform="translate(-0.289 -0.91)"/>
    <path class="cls-1" d="M371.3,31.343c-1.618,0-1.618-1.862-1.618-2.364s0-2.406,1.618-2.406a1.449,1.449,0,0,1,1.206.6,3.1,3.1,0,0,1,.412,1.806C372.919,29.481,372.919,31.343,371.3,31.343Zm.892-.983a7.594,7.594,0,0,0,.091-1.471,5.653,5.653,0,0,0-.119-1.486.9.9,0,0,0-1.743.063,5.952,5.952,0,0,0-.105,1.423,7.2,7.2,0,0,0,.1,1.5.9.9,0,0,0,1.778-.028Z" transform="translate(-0.289 -0.91)"/>
    <path class="cls-1" d="M374.816,32.25V22.285h1.366v.4h-.967v9.167h.967v.4Z" transform="translate(-0.289 -0.91)"/>
    <path class="cls-1" d="M377.854,26.869a3.273,3.273,0,0,0,.159-.837c0-.329-.11-.459-.309-.459-.359,0-.558.479-.727,1.186-.06.22-.071.229-.17.229-.02,0-.119,0-.119-.1a5.031,5.031,0,0,1,.3-.967.871.871,0,0,1,.747-.568.9.9,0,0,1,.917.867,1.926,1.926,0,0,1,1.555-.867,1.019,1.019,0,0,1,1.146,1.066,8.982,8.982,0,0,1-.608,2.192,1.9,1.9,0,0,0-.18.708c0,.229.07.329.24.329.488,0,.816-.558,1.015-1.236.051-.149.051-.179.151-.179.029,0,.119,0,.119.1,0,.08-.369,1.535-1.306,1.535a.8.8,0,0,1-.816-.817,1.148,1.148,0,0,1,.1-.459,9.454,9.454,0,0,0,.648-2.321c0-.329-.09-.7-.538-.7a1.983,1.983,0,0,0-1.624,1.216c-.01.04-.09.329-.13.5-.05.23-.109.449-.169.668l-.22.9c-.059.249-.178.717-.189.737a.408.408,0,0,1-.368.279.266.266,0,0,1-.289-.269c0-.05.059-.279.089-.429Z" transform="translate(-0.289 -0.91)"/>
    <path class="cls-1" d="M383.982,32.25h-1.365v-.4h.967V22.684h-.967v-.4h1.365Z" transform="translate(-0.289 -0.91)"/>
    <path class="cls-1" d="M340.119,25.467h-.249c-.159-1.345-.368-1.933-1.793-1.933h-1.026c-.469,0-.488.07-.488.4v5.28c0,.349,0,.478.946.478h.329V30c-.359-.029-1.266-.029-1.674-.029-.389,0-1.166,0-1.515.029v-.309h.24c.766,0,.787-.109.787-.468V24c0-.358-.021-.468-.787-.468h-.24v-.309h5.192Z" transform="translate(-0.289 -0.91)"/>
    <path class="cls-1" d="M342.891,30.866c0,.23,0,.321.7.321h.266v.251c-.155-.007-1.033-.028-1.25-.028-.257,0-1.115.021-1.241.028v-.251h.266c.7,0,.7-.091.7-.321V27.31a2.3,2.3,0,0,1-1.012.2v-.251a1.906,1.906,0,0,0,1.368-.446c.195,0,.209.007.209.2Z" transform="translate(-0.289 -0.91)"/>
    <line class="cls-3" x1="252.604" y1="15.699" x2="279.193" y2="15.699"/>
    <line class="cls-4" x1="250.847" y1="36.959" x2="279.193" y2="36.959"/>
    <path class="cls-2" d="M392.868,37.869V16.609m-318.9,10.63V2.436h35.433V52.042H73.972Z" transform="translate(-0.289 -0.91)"/>
    <polyline points="69.147 17.967 73.683 15.699 69.147 13.431 70.281 15.699"/>
    <path class="cls-2" d="M24.366,16.609h46.2M56.255,37.869H73.972" transform="translate(-0.289 -0.91)"/>
    <path class="cls-1" d="M48.942,7.556a8.889,8.889,0,0,1-.558,1.9c-.179.379-.578.967-1.126.967a.768.768,0,0,1-.847-.688.571.571,0,0,1,.548-.6.345.345,0,0,1,.369.348.54.54,0,0,1-.548.538.709.709,0,0,0,.478.18c.518,0,.687-.907.867-1.874L48.872,4.4h-.658c-.189,0-.278,0-.278-.12,0-.189.109-.189.3-.189h.688c.239-1.256.269-1.355.328-1.565.3-.986.927-1.165,1.266-1.165.409,0,.867.229.867.687a.571.571,0,0,1-.548.6.346.346,0,0,1-.369-.349A.552.552,0,0,1,51,1.757a.732.732,0,0,0-.488-.179.54.54,0,0,0-.468.339,9.462,9.462,0,0,0-.239,1.036L49.6,4.089h.826c.17,0,.269,0,.269.109,0,.2-.1.2-.3.2H49.54Z" transform="translate(-0.289 -0.91)"/>
    <path class="cls-1" d="M52.123,7.492a1.549,1.549,0,0,0,.021-.209c0-.189-.049-.342-.23-.342-.272,0-.405.349-.51.753-.049.188-.055.209-.153.209-.021,0-.119,0-.119-.09a2.689,2.689,0,0,1,.251-.7.645.645,0,0,1,.552-.369.724.724,0,0,1,.718.488,1.476,1.476,0,0,1,.99-.488A1.062,1.062,0,0,1,54.689,7.91,2.036,2.036,0,0,1,52.9,9.891a.822.822,0,0,1-.718-.412c-.076.293-.174.669-.258,1.039-.027.1-.076.286-.076.321,0,.083.188.083.342.083.083,0,.181,0,.181.1,0,.133-.077.154-.14.154-.23,0-.495-.028-.732-.028-.188,0-.418.028-.6.028a.1.1,0,0,1-.1-.1c0-.147.1-.147.188-.147.279,0,.293-.055.342-.251ZM52.3,8.984a.564.564,0,0,0-.021.1c0,.07.125.607.62.607a1.138,1.138,0,0,0,.873-.676,4.051,4.051,0,0,0,.362-1.4c0-.474-.237-.676-.509-.676-.223,0-.572.1-.976.642Z" transform="translate(-0.289 -0.91)"/>
    <path class="cls-1" d="M56.543,10.875V.91h1.365v.4h-.967v9.167h.967v.4Z" transform="translate(-0.289 -0.91)"/>
    <path class="cls-1" d="M59.58,5.494a3.227,3.227,0,0,0,.159-.837c0-.329-.11-.459-.309-.459-.358,0-.558.479-.727,1.186-.06.22-.07.229-.169.229-.02,0-.12,0-.12-.1a4.983,4.983,0,0,1,.3-.967.871.871,0,0,1,.747-.568.9.9,0,0,1,.917.867,1.926,1.926,0,0,1,1.554-.867,1.019,1.019,0,0,1,1.146,1.066,8.937,8.937,0,0,1-.608,2.192,1.9,1.9,0,0,0-.179.708c0,.229.07.329.239.329.488,0,.817-.558,1.016-1.236.05-.149.05-.179.15-.179.03,0,.119,0,.119.1,0,.08-.368,1.535-1.3,1.535a.8.8,0,0,1-.817-.817,1.136,1.136,0,0,1,.1-.459A9.5,9.5,0,0,0,62.439,4.9c0-.329-.089-.7-.538-.7a1.984,1.984,0,0,0-1.624,1.216c-.01.04-.089.329-.13.5-.049.23-.109.449-.168.668l-.22.9c-.06.249-.179.717-.189.737a.408.408,0,0,1-.369.279.267.267,0,0,1-.289-.269c0-.05.06-.279.09-.429Z" transform="translate(-0.289 -0.91)"/>
    <path class="cls-1" d="M65.7,10.875H64.336v-.4H65.3V1.309h-.967V.91H65.7Z" transform="translate(-0.289 -0.91)"/>
    <path class="cls-1" d="M49.6,30.3a2.086,2.086,0,0,1-2.113,1.375c-.956,0-1.325-.2-1.325-.608a.556.556,0,0,1,.538-.578.348.348,0,0,1,.379.349.556.556,0,0,1-.408.518,2.734,2.734,0,0,0,.8.1A1.568,1.568,0,0,0,48.9,30.38c0-.019.12-.428.329-1.315l-.01-.01a1.732,1.732,0,0,1-1.155.578,1.4,1.4,0,0,1-1.326-1.574,2.861,2.861,0,0,1,2.371-2.83,1.055,1.055,0,0,1,.927.628.433.433,0,0,1,.409-.428.262.262,0,0,1,.289.269.969.969,0,0,1-.03.179Zm.289-3.846a.664.664,0,0,0,.03-.15c0-.05-.14-.857-.8-.857A1.505,1.505,0,0,0,48,26.335a6.609,6.609,0,0,0-.558,2.163c0,.4.15.916.648.916a1.357,1.357,0,0,0,.807-.359,1.487,1.487,0,0,0,.509-.7Z" transform="translate(-0.289 -0.91)"/>
    <path class="cls-1" d="M52.123,28.75a1.549,1.549,0,0,0,.021-.209c0-.189-.049-.342-.23-.342-.272,0-.405.348-.51.753-.049.188-.055.209-.153.209-.021,0-.119,0-.119-.091a2.687,2.687,0,0,1,.251-.7.646.646,0,0,1,.552-.37.725.725,0,0,1,.718.489,1.472,1.472,0,0,1,.99-.489,1.063,1.063,0,0,1,1.046,1.165,2.035,2.035,0,0,1-1.793,1.98.824.824,0,0,1-.718-.411c-.076.293-.174.669-.258,1.039-.027.1-.076.286-.076.321,0,.083.188.083.342.083.083,0,.181,0,.181.1,0,.133-.077.154-.14.154-.23,0-.495-.029-.732-.029-.188,0-.418.029-.6.029a.1.1,0,0,1-.1-.105c0-.147.1-.147.188-.147.279,0,.293-.055.342-.251Zm.174,1.492a.548.548,0,0,0-.021.1c0,.07.125.607.62.607a1.138,1.138,0,0,0,.873-.676,4.051,4.051,0,0,0,.362-1.4c0-.474-.237-.676-.509-.676-.223,0-.572.1-.976.641Z" transform="translate(-0.289 -0.91)"/>
    <path class="cls-1" d="M56.543,32.125V22.16h1.365v.4h-.967v9.167h.967v.4Z" transform="translate(-0.289 -0.91)"/>
    <path class="cls-1" d="M59.58,26.744a3.227,3.227,0,0,0,.159-.837c0-.329-.11-.459-.309-.459-.358,0-.558.479-.727,1.186-.06.22-.07.229-.169.229-.02,0-.12,0-.12-.1a4.983,4.983,0,0,1,.3-.967.871.871,0,0,1,.747-.568.9.9,0,0,1,.917.867,1.926,1.926,0,0,1,1.554-.867A1.019,1.019,0,0,1,63.077,26.3a8.937,8.937,0,0,1-.608,2.192,1.9,1.9,0,0,0-.179.708c0,.229.07.329.239.329.488,0,.817-.558,1.016-1.236.05-.149.05-.179.15-.179.03,0,.119,0,.119.1,0,.08-.368,1.535-1.3,1.535a.8.8,0,0,1-.817-.817,1.136,1.136,0,0,1,.1-.459,9.5,9.5,0,0,0,.647-2.321c0-.329-.089-.7-.538-.7a1.984,1.984,0,0,0-1.624,1.216c-.01.04-.089.329-.13.5-.049.23-.109.449-.168.668l-.22.9c-.06.249-.179.717-.189.737a.408.408,0,0,1-.369.279.267.267,0,0,1-.289-.269c0-.05.06-.279.09-.429Z" transform="translate(-0.289 -0.91)"/>
    <path class="cls-1" d="M65.7,32.125H64.336v-.4H65.3V22.559h-.967v-.4H65.7Z" transform="translate(-0.289 -0.91)"/>
    <polyline points="140.013 17.967 144.548 15.699 140.013 13.431 141.147 15.699"/>
    <line class="cls-2" x1="109.115" y1="15.699" x2="141.147" y2="15.699"/>
    <polyline points="113.651 34.691 109.115 36.959 113.651 39.226 112.517 36.959"/>
    <line class="cls-2" x1="112.517" y1="36.959" x2="144.548" y2="36.959"/>
    <path class="cls-1" d="M92.088,24.748h-.249c-.159-1.345-.369-1.933-1.794-1.933H89.019c-.468,0-.488.07-.488.4V28.5c0,.348,0,.478.947.478h.328v.309c-.358-.03-1.265-.03-1.674-.03-.388,0-1.165,0-1.514.03v-.309h.239c.767,0,.787-.11.787-.469V23.283c0-.358-.02-.468-.787-.468h-.239v-.309h5.191Z" transform="translate(-0.289 -0.91)"/>
    <path class="cls-1" d="M93.849,28.39a1.387,1.387,0,0,0,.021-.209c0-.188-.049-.342-.23-.342-.272,0-.405.349-.509.753-.049.189-.056.21-.153.21-.021,0-.119,0-.119-.091a2.674,2.674,0,0,1,.251-.7.642.642,0,0,1,.551-.37.724.724,0,0,1,.718.488,1.478,1.478,0,0,1,.99-.488,1.063,1.063,0,0,1,1.047,1.165,2.036,2.036,0,0,1-1.793,1.98.821.821,0,0,1-.718-.412c-.077.293-.175.67-.258,1.04a3.235,3.235,0,0,0-.077.32c0,.084.189.084.342.084.084,0,.181,0,.181.1,0,.133-.076.154-.139.154-.23,0-.5-.028-.732-.028-.189,0-.419.028-.6.028a.1.1,0,0,1-.1-.105c0-.146.1-.146.188-.146.28,0,.293-.056.342-.251Zm.174,1.492a.651.651,0,0,0-.021.1c0,.07.126.607.621.607a1.135,1.135,0,0,0,.872-.677,4.041,4.041,0,0,0,.362-1.4c0-.474-.236-.677-.508-.677-.224,0-.572.105-.977.642Z" transform="translate(-0.289 -0.91)"/>
    <polyline points="53.358 53.683 55.626 58.218 57.894 53.683 55.626 54.817"/>
    <path class="cls-2" d="M55.915,37.869V55.727m.34,10.488v10.63m0,0h53.15" transform="translate(-0.289 -0.91)"/>
    <polyline points="64.045 59.125 59.509 61.393 64.045 63.661 62.911 61.393"/>
    <line class="cls-2" x1="62.911" y1="61.393" x2="70.139" y2="61.393"/>
    <path class="cls-1" d="M77.058,58.84a1.75,1.75,0,0,0-1.405,1,5.2,5.2,0,0,0-.538,1.992c0,.6.269,1.086.9,1.086A2.6,2.6,0,0,0,78,61.928c.06-.08.08-.1.13-.1a.139.139,0,0,1,.119.129,2.656,2.656,0,0,1-2.262,1.176,1.581,1.581,0,0,1-1.614-1.684,2.963,2.963,0,0,1,2.671-2.83c.707,0,1.175.369,1.175.858a.586.586,0,0,1-.557.638.34.34,0,0,1-.369-.349.549.549,0,0,1,.618-.528A.968.968,0,0,0,77.058,58.84Z" transform="translate(-0.289 -0.91)"/>
    <g>
      <path class="cls-1" d="M79.607,62.141a1.416,1.416,0,0,0,.021-.209c0-.19-.049-.342-.23-.342-.272,0-.405.348-.509.752-.049.189-.056.209-.154.209-.021,0-.118,0-.118-.09a2.687,2.687,0,0,1,.251-.7.642.642,0,0,1,.551-.369.722.722,0,0,1,.718.488,1.478,1.478,0,0,1,.99-.488,1.061,1.061,0,0,1,1.046,1.164,2.035,2.035,0,0,1-1.792,1.98.819.819,0,0,1-.718-.412c-.077.293-.175.67-.258,1.039a3.243,3.243,0,0,0-.077.322c0,.082.189.082.342.082.083,0,.181,0,.181.1,0,.133-.077.154-.14.154-.23,0-.5-.027-.732-.027-.188,0-.418.027-.6.027a.1.1,0,0,1-.1-.105c0-.147.1-.147.188-.147.28,0,.293-.054.342-.25Zm.174,1.492a.538.538,0,0,0-.021.1c0,.071.126.608.621.608a1.134,1.134,0,0,0,.872-.676,4.051,4.051,0,0,0,.362-1.4c0-.475-.237-.676-.509-.676-.223,0-.571.1-.976.64Z" transform="translate(-0.289 -0.91)"/>
      <path class="cls-1" d="M83.554,64.469a.4.4,0,1,1-.007-.8c.321,0,.488.326.488.76a1.655,1.655,0,0,1-.69,1.386.11.11,0,0,1-.1-.1c0-.035.021-.055.049-.084a1.607,1.607,0,0,0,.544-1.276A.478.478,0,0,1,83.554,64.469Z" transform="translate(-0.289 -0.91)"/>
    </g>
    <path class="cls-1" d="M86.091,62.141a1.416,1.416,0,0,0,.021-.209c0-.19-.049-.342-.23-.342-.272,0-.4.348-.509.752-.049.189-.056.209-.153.209-.021,0-.119,0-.119-.09a2.687,2.687,0,0,1,.251-.7A.643.643,0,0,1,85.9,61.4a.724.724,0,0,1,.719.488,1.476,1.476,0,0,1,.989-.488,1.061,1.061,0,0,1,1.047,1.164,2.036,2.036,0,0,1-1.793,1.98.819.819,0,0,1-.718-.412c-.077.293-.174.67-.258,1.039a3.175,3.175,0,0,0-.076.322c0,.082.188.082.341.082.084,0,.181,0,.181.1,0,.133-.076.154-.139.154-.23,0-.5-.027-.732-.027-.189,0-.419.027-.6.027a.1.1,0,0,1-.1-.105c0-.147.1-.147.188-.147.279,0,.293-.054.341-.25Zm.175,1.492a.538.538,0,0,0-.021.1c0,.071.125.608.62.608a1.133,1.133,0,0,0,.872-.676,4.055,4.055,0,0,0,.363-1.4c0-.475-.237-.676-.509-.676-.223,0-.572.1-.977.64Z" transform="translate(-0.289 -0.91)"/>
    <path class="cls-2" d="M59.43,62.3h0a3.175,3.175,0,1,0-3.175,3.175A3.176,3.176,0,0,0,59.43,62.3ZM54.5,64.089l3.543-3.543m0,3.543L54.5,60.546m76.166,16.639h0a3.2,3.2,0,1,0-3.2,3.2,3.2,3.2,0,0,0,3.2-3.2Zm-4.96,0h3.515m-1.758,1.758V75.428" transform="translate(-0.289 -0.91)"/>
    <polyline points="135.251 59.125 130.715 61.393 135.251 63.661 134.117 61.393"/>
    <line class="cls-2" x1="134.117" y1="61.393" x2="141.345" y2="61.393"/>
    <path class="cls-1" d="M148.269,58.84a1.75,1.75,0,0,0-1.405,1,5.2,5.2,0,0,0-.538,1.992c0,.6.269,1.086.9,1.086a2.6,2.6,0,0,0,1.993-.986c.06-.08.08-.1.13-.1a.139.139,0,0,1,.119.129,2.657,2.657,0,0,1-2.262,1.176,1.581,1.581,0,0,1-1.614-1.684,2.963,2.963,0,0,1,2.671-2.83c.707,0,1.175.369,1.175.858a.586.586,0,0,1-.558.638.34.34,0,0,1-.368-.349.549.549,0,0,1,.617-.528A.965.965,0,0,0,148.269,58.84Z" transform="translate(-0.289 -0.91)"/>
    <g>
      <path class="cls-1" d="M150.818,62.141a1.416,1.416,0,0,0,.021-.209c0-.19-.049-.342-.23-.342-.272,0-.405.348-.509.752-.049.189-.056.209-.154.209-.021,0-.118,0-.118-.09a2.648,2.648,0,0,1,.251-.7.642.642,0,0,1,.551-.369.723.723,0,0,1,.718.488,1.478,1.478,0,0,1,.99-.488,1.061,1.061,0,0,1,1.046,1.164,2.035,2.035,0,0,1-1.792,1.98.819.819,0,0,1-.718-.412c-.077.293-.175.67-.258,1.039a3.243,3.243,0,0,0-.077.322c0,.082.189.082.342.082.083,0,.181,0,.181.1,0,.133-.077.154-.14.154-.23,0-.5-.027-.732-.027-.188,0-.418.027-.6.027a.1.1,0,0,1-.1-.105c0-.147.1-.147.188-.147.279,0,.293-.054.342-.25Zm.174,1.492a.538.538,0,0,0-.021.1c0,.071.126.608.621.608a1.134,1.134,0,0,0,.872-.676,4.051,4.051,0,0,0,.362-1.4c0-.475-.237-.676-.509-.676-.223,0-.571.1-.976.64Z" transform="translate(-0.289 -0.91)"/>
      <path class="cls-1" d="M154.765,64.469a.4.4,0,1,1-.007-.8c.321,0,.488.326.488.76a1.655,1.655,0,0,1-.69,1.386.11.11,0,0,1-.1-.1c0-.035.021-.055.049-.084a1.611,1.611,0,0,0,.544-1.276A.478.478,0,0,1,154.765,64.469Z" transform="translate(-0.289 -0.91)"/>
    </g>
    <path class="cls-1" d="M157.294,62.141a1.416,1.416,0,0,0,.021-.209c0-.19-.048-.342-.23-.342-.272,0-.4.348-.509.752-.049.189-.055.209-.153.209-.021,0-.119,0-.119-.09a2.687,2.687,0,0,1,.251-.7.643.643,0,0,1,.551-.369.724.724,0,0,1,.719.488,1.476,1.476,0,0,1,.989-.488,1.061,1.061,0,0,1,1.047,1.164,2.036,2.036,0,0,1-1.793,1.98.819.819,0,0,1-.718-.412c-.077.293-.174.67-.258,1.039a3.175,3.175,0,0,0-.076.322c0,.082.188.082.341.082.084,0,.182,0,.182.1,0,.133-.077.154-.14.154-.23,0-.5-.027-.732-.027-.188,0-.418.027-.6.027a.1.1,0,0,1-.1-.105c0-.147.1-.147.188-.147.279,0,.293-.054.342-.25Zm.175,1.492a.538.538,0,0,0-.021.1c0,.071.125.608.62.608a1.133,1.133,0,0,0,.872-.676,4.055,4.055,0,0,0,.363-1.4c0-.475-.237-.676-.509-.676-.223,0-.572.1-.977.64Z" transform="translate(-0.289 -0.91)"/>
    <path class="cls-1" d="M161.087,62.893c-.119,0-.279,0-.279-.174s.167-.168.279-.168h4.156c.118,0,.278,0,.278.176s-.167.166-.278.166Z" transform="translate(-0.289 -0.91)"/>
    <path class="cls-1" d="M168.633,63.9c0,.231,0,.323.7.323h.265v.25c-.153-.006-1.032-.028-1.248-.028-.258,0-1.116.022-1.241.028v-.25h.265c.7,0,.7-.092.7-.323V60.342a2.3,2.3,0,0,1-1.011.2v-.252a1.912,1.912,0,0,0,1.367-.445c.195,0,.209.006.209.195Z" transform="translate(-0.289 -0.91)"/>
    <path class="cls-2" d="M130.664,62.3h0a3.175,3.175,0,1,0-3.175,3.175,3.176,3.176,0,0,0,3.175-3.175Zm-4.96,1.786,3.543-3.543m0,3.543L125.7,60.546" transform="translate(-0.289 -0.91)"/>
    <polyline points="124.564 53.683 126.832 58.218 129.1 53.683 126.832 54.817"/>
    <line class="cls-2" x1="126.832" y1="36.959" x2="126.832" y2="54.817"/>
    <polyline points="124.564 67.856 126.832 72.391 129.1 67.856 126.832 68.99"/>
    <line class="cls-2" x1="126.832" y1="65.305" x2="126.832" y2="68.99"/>
    <polyline points="118.753 78.202 123.289 75.935 118.753 73.667 119.887 75.935"/>
    <path class="cls-2" d="M109.405,76.845h10.771m10.488,0H180.27m21.26.34h0a3.2,3.2,0,1,0-3.2,3.2,3.2,3.2,0,0,0,3.2-3.2Zm-4.961,0h3.515m-1.757,1.758V75.428" transform="translate(-0.289 -0.91)"/>
    <polyline points="195.43 53.683 197.698 58.218 199.965 53.683 197.698 54.817"/>
    <line class="cls-2" x1="197.698" y1="36.959" x2="197.698" y2="54.817"/>
    <polyline points="195.43 67.856 197.698 72.391 199.965 67.856 197.698 68.99"/>
    <line class="cls-2" x1="197.698" y1="65.305" x2="197.698" y2="68.99"/>
    <polyline points="189.619 78.202 194.154 75.935 189.619 73.667 190.753 75.935"/>
    <line class="cls-2" x1="179.981" y1="75.935" x2="190.753" y2="75.935"/>
    <polyline points="239.225 78.202 243.76 75.935 239.225 73.667 240.359 75.935"/>
    <line class="cls-2" x1="201.241" y1="75.935" x2="240.359" y2="75.935"/>
    <polyline points="206.116 59.125 201.581 61.393 206.116 63.661 204.983 61.393"/>
    <line class="cls-2" x1="204.983" y1="61.393" x2="212.211" y2="61.393"/>
    <path class="cls-1" d="M219.136,58.84a1.751,1.751,0,0,0-1.405,1,5.2,5.2,0,0,0-.538,1.992c0,.6.269,1.086.9,1.086a2.6,2.6,0,0,0,1.994-.986c.059-.08.079-.1.129-.1a.14.14,0,0,1,.12.129,2.658,2.658,0,0,1-2.263,1.176,1.581,1.581,0,0,1-1.613-1.684,2.962,2.962,0,0,1,2.67-2.83c.707,0,1.175.369,1.175.858a.586.586,0,0,1-.557.638.34.34,0,0,1-.369-.349.549.549,0,0,1,.618-.528A.967.967,0,0,0,219.136,58.84Z" transform="translate(-0.289 -0.91)"/>
    <g>
      <path class="cls-1" d="M221.677,62.141a1.416,1.416,0,0,0,.021-.209c0-.19-.049-.342-.23-.342-.272,0-.405.348-.509.752-.049.189-.056.209-.153.209-.021,0-.119,0-.119-.09a2.687,2.687,0,0,1,.251-.7.643.643,0,0,1,.551-.369.724.724,0,0,1,.719.488,1.476,1.476,0,0,1,.989-.488,1.061,1.061,0,0,1,1.047,1.164,2.036,2.036,0,0,1-1.793,1.98.819.819,0,0,1-.718-.412c-.077.293-.174.67-.258,1.039a3.243,3.243,0,0,0-.077.322c0,.082.189.082.342.082.084,0,.181,0,.181.1,0,.133-.076.154-.139.154-.23,0-.5-.027-.732-.027-.189,0-.419.027-.6.027a.1.1,0,0,1-.1-.105c0-.147.1-.147.188-.147.279,0,.292-.054.341-.25Zm.175,1.492a.538.538,0,0,0-.021.1c0,.071.125.608.62.608a1.134,1.134,0,0,0,.872-.676,4.055,4.055,0,0,0,.363-1.4c0-.475-.237-.676-.509-.676-.223,0-.572.1-.977.64Z" transform="translate(-0.289 -0.91)"/>
      <path class="cls-1" d="M225.625,64.469a.4.4,0,1,1-.007-.8c.32,0,.487.326.487.76a1.652,1.652,0,0,1-.69,1.386.111.111,0,0,1-.1-.1c0-.035.021-.055.049-.084a1.607,1.607,0,0,0,.544-1.276A.477.477,0,0,1,225.625,64.469Z" transform="translate(-0.289 -0.91)"/>
    </g>
    <path class="cls-1" d="M228.162,62.141a1.567,1.567,0,0,0,.021-.209c0-.19-.049-.342-.23-.342-.272,0-.405.348-.51.752-.048.189-.055.209-.153.209-.021,0-.119,0-.119-.09a2.687,2.687,0,0,1,.251-.7.645.645,0,0,1,.552-.369.723.723,0,0,1,.718.488,1.478,1.478,0,0,1,.99-.488,1.061,1.061,0,0,1,1.046,1.164,2.035,2.035,0,0,1-1.792,1.98.821.821,0,0,1-.719-.412c-.076.293-.174.67-.258,1.039-.027.105-.076.287-.076.322,0,.082.188.082.342.082.083,0,.181,0,.181.1,0,.133-.077.154-.14.154-.23,0-.5-.027-.732-.027-.188,0-.418.027-.6.027a.1.1,0,0,1-.1-.105c0-.147.1-.147.188-.147.279,0,.293-.054.342-.25Zm.174,1.492a.538.538,0,0,0-.021.1c0,.071.125.608.621.608a1.134,1.134,0,0,0,.872-.676,4.051,4.051,0,0,0,.362-1.4c0-.475-.237-.676-.509-.676-.223,0-.572.1-.976.64Z" transform="translate(-0.289 -0.91)"/>
    <path class="cls-1" d="M231.954,62.893c-.119,0-.279,0-.279-.174s.168-.168.279-.168h4.156c.119,0,.279,0,.279.176s-.167.166-.279.166Z" transform="translate(-0.289 -0.91)"/>
    <path class="cls-1" d="M240.469,64.469H237.6c0-.2,0-.209.069-.272l1.681-1.66A2.116,2.116,0,0,0,240,61.2a1.044,1.044,0,0,0-1.06-1.109,1.1,1.1,0,0,0-1.018.648c.363,0,.412.244.412.369a.37.37,0,1,1-.739-.019,1.351,1.351,0,0,1,1.45-1.248,1.459,1.459,0,0,1,1.632,1.359,2.021,2.021,0,0,1-1,1.506c-.419.328-.662.524-1.4,1.172h1.283a3.517,3.517,0,0,0,.691-.043,1.6,1.6,0,0,0,.18-.635h.238Z" transform="translate(-0.289 -0.91)"/>
    <path class="cls-2" d="M201.53,62.3h0a3.175,3.175,0,1,0-3.175,3.175A3.176,3.176,0,0,0,201.53,62.3Zm-4.961,1.786,3.544-3.543m0,3.543-3.544-3.543m111.26,16.639h0a3.2,3.2,0,1,0-3.2,3.2,3.2,3.2,0,0,0,3.2-3.2Zm-4.961,0h3.515m-1.758,1.758V75.428" transform="translate(-0.289 -0.91)"/>
    <polyline points="301.729 53.683 303.996 58.218 306.264 53.683 303.996 54.817"/>
    <line class="cls-2" x1="303.996" y1="36.959" x2="303.996" y2="54.817"/>
    <polyline points="301.729 67.856 303.996 72.391 306.264 67.856 303.996 68.99"/>
    <line class="cls-2" x1="303.996" y1="65.305" x2="303.996" y2="68.99"/>
    <polyline points="295.918 78.202 300.453 75.935 295.918 73.667 297.051 75.935"/>
    <path class="cls-2" d="M286.569,76.845H297.34m10.489,0h67.322" transform="translate(-0.289 -0.91)"/>
    <polyline points="312.415 59.125 307.88 61.393 312.415 63.661 311.281 61.393"/>
    <line class="cls-2" x1="311.281" y1="61.393" x2="318.51" y2="61.393"/>
    <path class="cls-1" d="M325.433,58.84a1.754,1.754,0,0,0-1.406,1,5.2,5.2,0,0,0-.538,1.992c0,.6.27,1.086.9,1.086a2.6,2.6,0,0,0,1.992-.986c.059-.08.08-.1.13-.1a.139.139,0,0,1,.119.129,2.657,2.657,0,0,1-2.262,1.176,1.581,1.581,0,0,1-1.614-1.684,2.962,2.962,0,0,1,2.671-2.83c.707,0,1.176.369,1.176.858a.587.587,0,0,1-.559.638.34.34,0,0,1-.368-.349.551.551,0,0,1,.617-.528A.965.965,0,0,0,325.433,58.84Z" transform="translate(-0.289 -0.91)"/>
    <g>
      <path class="cls-1" d="M327.982,62.141a1.416,1.416,0,0,0,.021-.209c0-.19-.049-.342-.231-.342-.271,0-.4.348-.508.752-.049.189-.056.209-.154.209-.02,0-.118,0-.118-.09a2.687,2.687,0,0,1,.251-.7.641.641,0,0,1,.551-.369.722.722,0,0,1,.718.488,1.478,1.478,0,0,1,.99-.488,1.061,1.061,0,0,1,1.046,1.164,2.035,2.035,0,0,1-1.792,1.98.817.817,0,0,1-.718-.412c-.077.293-.175.67-.259,1.039-.027.105-.076.287-.076.322,0,.082.189.082.342.082.084,0,.182,0,.182.1,0,.133-.078.154-.14.154-.231,0-.5-.027-.733-.027-.188,0-.418.027-.6.027a.1.1,0,0,1-.1-.105c0-.147.1-.147.189-.147.278,0,.293-.054.342-.25Zm.174,1.492a.535.535,0,0,0-.02.1c0,.071.125.608.62.608a1.136,1.136,0,0,0,.872-.676,4.051,4.051,0,0,0,.362-1.4c0-.475-.237-.676-.509-.676-.223,0-.572.1-.976.64Z" transform="translate(-0.289 -0.91)"/>
      <path class="cls-1" d="M331.93,64.469a.4.4,0,1,1-.007-.8c.32,0,.488.326.488.76a1.655,1.655,0,0,1-.69,1.386.11.11,0,0,1-.1-.1c0-.035.021-.055.049-.084a1.611,1.611,0,0,0,.544-1.276A.482.482,0,0,1,331.93,64.469Z" transform="translate(-0.289 -0.91)"/>
    </g>
    <path class="cls-1" d="M335.477,63.9c0,.231,0,.323.7.323h.265v.25c-.154-.006-1.032-.028-1.249-.028-.257,0-1.115.022-1.241.028v-.25h.266c.7,0,.7-.092.7-.323V60.342a2.3,2.3,0,0,1-1.012.2v-.252a1.914,1.914,0,0,0,1.368-.445c.2,0,.209.006.209.195Z" transform="translate(-0.289 -0.91)"/>
    <path class="cls-2" d="M307.829,62.3h0a3.175,3.175,0,1,0-3.175,3.175,3.177,3.177,0,0,0,3.175-3.175Zm-4.961,1.786,3.543-3.543m0,3.543-3.543-3.543" transform="translate(-0.289 -0.91)"/>
    <polyline points="384.5 78.202 389.035 75.935 384.5 73.667 385.634 75.935"/>
    <path class="cls-2" d="M375.151,76.845h10.772m10.488,1.049h0a3.2,3.2,0,1,0-3.2,3.2,3.2,3.2,0,0,0,3.2-3.2Zm-4.961,0h3.515m-1.757,1.757V76.136" transform="translate(-0.289 -0.91)"/>
    <polyline points="390.311 54.392 392.578 58.927 394.846 54.392 392.578 55.525"/>
    <line class="cls-2" x1="392.578" y1="37.667" x2="392.578" y2="55.525"/>
    <polyline points="390.311 68.565 392.578 73.1 394.846 68.565 392.578 69.699"/>
    <line class="cls-2" x1="392.578" y1="66.014" x2="392.578" y2="69.699"/>
    <polyline points="434.106 78.911 438.641 76.643 434.106 74.376 435.24 76.643"/>
    <line class="cls-2" x1="396.122" y1="76.643" x2="435.24" y2="76.643"/>
    <polyline points="400.997 59.834 396.462 62.102 400.997 64.369 399.863 62.102"/>
    <line class="cls-2" x1="399.863" y1="62.102" x2="407.092" y2="62.102"/>
    <path class="cls-1" d="M414.011,59.551a1.754,1.754,0,0,0-1.406,1,5.215,5.215,0,0,0-.538,1.992c0,.6.27,1.086.9,1.086a2.6,2.6,0,0,0,1.992-.986c.06-.08.08-.1.13-.1a.139.139,0,0,1,.119.129,2.657,2.657,0,0,1-2.262,1.176,1.581,1.581,0,0,1-1.614-1.684A2.962,2.962,0,0,1,414,59.33c.707,0,1.176.369,1.176.858a.587.587,0,0,1-.559.638.34.34,0,0,1-.368-.349.538.538,0,0,1,.18-.389.53.53,0,0,1,.437-.139A.963.963,0,0,0,414.011,59.551Z" transform="translate(-0.289 -0.91)"/>
    <g>
      <path class="cls-1" d="M416.561,62.844a1.592,1.592,0,0,0,.02-.209c0-.19-.049-.342-.23-.342-.272,0-.4.348-.509.752-.049.189-.056.209-.154.209-.02,0-.118,0-.118-.09a2.687,2.687,0,0,1,.251-.7.643.643,0,0,1,.551-.369.723.723,0,0,1,.718.488,1.478,1.478,0,0,1,.99-.488,1.061,1.061,0,0,1,1.046,1.164,2.035,2.035,0,0,1-1.792,1.98.817.817,0,0,1-.718-.412c-.077.293-.175.67-.259,1.039-.027.106-.076.287-.076.322,0,.082.189.082.342.082.084,0,.182,0,.182.1,0,.133-.077.154-.14.154-.23,0-.5-.027-.732-.027-.189,0-.419.027-.6.027a.1.1,0,0,1-.1-.105c0-.147.1-.147.189-.147.278,0,.293-.054.342-.25Zm.173,1.492a.624.624,0,0,0-.02.1c0,.071.125.608.62.608a1.136,1.136,0,0,0,.872-.676,4.051,4.051,0,0,0,.362-1.4c0-.475-.237-.676-.508-.676-.224,0-.573.1-.977.641Z" transform="translate(-0.289 -0.91)"/>
      <path class="cls-1" d="M420.508,65.172a.4.4,0,0,1-.007-.8c.32,0,.488.326.488.76a1.658,1.658,0,0,1-.69,1.387.112.112,0,0,1-.1-.1c0-.035.021-.055.049-.084a1.61,1.61,0,0,0,.544-1.275A.484.484,0,0,1,420.508,65.172Z" transform="translate(-0.289 -0.91)"/>
    </g>
    <path class="cls-1" d="M423.707,65.313c-1.618,0-1.618-1.864-1.618-2.366s0-2.4,1.618-2.4a1.443,1.443,0,0,1,1.206.6,3.1,3.1,0,0,1,.412,1.8C425.325,63.449,425.325,65.313,423.707,65.313Zm.893-.985a7.666,7.666,0,0,0,.09-1.471,5.611,5.611,0,0,0-.119-1.486.9.9,0,0,0-1.743.065,5.987,5.987,0,0,0-.1,1.421,7.278,7.278,0,0,0,.1,1.5.9.9,0,0,0,1.779-.029Z" transform="translate(-0.289 -0.91)"/>
    <path class="cls-2" d="M396.411,63.04h0a3.175,3.175,0,1,0-3.175,3.175,3.175,3.175,0,0,0,3.175-3.175ZM391.45,64.8l3.544-3.544m0,3.544-3.544-3.544" transform="translate(-0.289 -0.91)"/>
    <path class="cls-1" d="M449.9,79.369A2.625,2.625,0,0,1,447.57,81.4a.942.942,0,0,1-1.056-.867.573.573,0,0,1,.558-.646.338.338,0,0,1,.368.347.538.538,0,0,1-.2.409.563.563,0,0,1-.428.121.805.805,0,0,0,.757.418,1.425,1.425,0,0,0,1.1-.629,3.809,3.809,0,0,0,.647-1.534,1.4,1.4,0,0,1-1,.448,1.111,1.111,0,0,1-1.216-1.186,6.575,6.575,0,0,1,.578-2.092,2.129,2.129,0,0,0,.169-.7c0-.318-.169-.318-.249-.318-.339,0-.737.3-1.006,1.234-.05.16-.061.18-.16.18-.02,0-.119,0-.119-.1s.368-1.535,1.315-1.535a.791.791,0,0,1,.817.818,1.788,1.788,0,0,1-.2.717,5.934,5.934,0,0,0-.508,1.953c0,.37.11.807.619.807a1.382,1.382,0,0,0,1.125-.848l.449-1.793c.059-.269.129-.537.2-.8.039-.18.119-.489.14-.538a.433.433,0,0,1,.348-.211.267.267,0,0,1,.289.27.629.629,0,0,1-.04.23Z" transform="translate(-0.289 -0.91)"/>
    <path class="cls-1" d="M452.473,81.852V71.887h1.365v.4h-.967v9.168h.967v.4Z" transform="translate(-0.289 -0.91)"/>
    <path class="cls-1" d="M455.51,76.471a3.232,3.232,0,0,0,.159-.838c0-.328-.109-.457-.309-.457-.359,0-.558.476-.727,1.185-.06.219-.07.229-.17.229-.02,0-.119,0-.119-.1a5.025,5.025,0,0,1,.3-.967.87.87,0,0,1,.747-.568.9.9,0,0,1,.917.867,1.927,1.927,0,0,1,1.554-.867,1.019,1.019,0,0,1,1.146,1.066,9,9,0,0,1-.608,2.194,1.906,1.906,0,0,0-.179.707c0,.228.069.328.239.328.488,0,.816-.559,1.016-1.234.05-.151.05-.18.15-.18.029,0,.119,0,.119.1,0,.08-.369,1.533-1.306,1.533a.8.8,0,0,1-.816-.817,1.142,1.142,0,0,1,.1-.459,9.49,9.49,0,0,0,.647-2.32c0-.33-.09-.7-.538-.7a1.982,1.982,0,0,0-1.624,1.215c-.01.039-.09.328-.13.5-.05.228-.109.449-.169.668l-.22.9c-.059.25-.178.717-.189.738a.4.4,0,0,1-.368.278.266.266,0,0,1-.289-.268c0-.051.059-.279.09-.43Z" transform="translate(-0.289 -0.91)"/>
    <path class="cls-1" d="M461.639,81.852h-1.366v-.4h.967V72.285h-.967v-.4h1.366Z" transform="translate(-0.289 -0.91)"/>
    <path class="cls-1" d="M2.989,17.481a3.86,3.86,0,0,0-.169.877c0,.339.159.658.548.658.319,0,1-.239,1.325-1.306.02-.069.04-.109.13-.109.03,0,.119,0,.119.1,0,.249-.568,1.534-1.594,1.534a1.1,1.1,0,0,1-1.076-.757,1.324,1.324,0,0,1-1.046.757c-.439,0-.937-.2-.937-.657A.566.566,0,0,1,.837,18a.341.341,0,0,1,.369.348.565.565,0,0,1-.469.538.958.958,0,0,0,.5.13c.439,0,.787-.419.947-1.037a14.471,14.471,0,0,0,.538-2.371c0-.578-.348-.668-.538-.668-.339,0-1,.25-1.335,1.306-.02.089-.05.109-.13.109-.02,0-.119,0-.119-.1,0-.249.568-1.535,1.6-1.535a1.1,1.1,0,0,1,1.076.758,1.291,1.291,0,0,1,1.046-.758c.339,0,.927.14.927.658a.556.556,0,0,1-.538.578.348.348,0,0,1-.379-.349.58.58,0,0,1,.479-.538.976.976,0,0,0-.5-.13c-.7,0-.926.917-.986,1.176Z" transform="translate(-0.289 -0.91)"/>
    <path class="cls-1" d="M6.816,21.617V11.652H8.182v.4H7.215v9.167h.967v.4Z" transform="translate(-0.289 -0.91)"/>
    <path class="cls-1" d="M9.853,16.236a3.2,3.2,0,0,0,.16-.837c0-.329-.11-.459-.309-.459-.359,0-.558.479-.727,1.186-.06.22-.07.229-.17.229-.02,0-.119,0-.119-.1a5.007,5.007,0,0,1,.3-.966.87.87,0,0,1,.747-.569.9.9,0,0,1,.917.867,1.928,1.928,0,0,1,1.555-.867,1.019,1.019,0,0,1,1.146,1.067,8.974,8.974,0,0,1-.608,2.191,1.9,1.9,0,0,0-.18.708c0,.229.07.329.24.329.488,0,.817-.558,1.016-1.236.05-.149.05-.179.149-.179.03,0,.12,0,.12.1,0,.079-.369,1.534-1.3,1.534a.8.8,0,0,1-.818-.817,1.157,1.157,0,0,1,.1-.459,9.454,9.454,0,0,0,.648-2.321c0-.329-.09-.7-.538-.7a1.981,1.981,0,0,0-1.624,1.216c-.01.04-.09.329-.13.5-.05.23-.109.449-.169.668l-.219.9c-.06.249-.18.717-.19.737a.408.408,0,0,1-.368.279.266.266,0,0,1-.289-.269c0-.05.06-.279.089-.428Z" transform="translate(-0.289 -0.91)"/>
    <path class="cls-1" d="M15.983,21.617H14.618v-.4h.966V12.051h-.966v-.4h1.365Z" transform="translate(-0.289 -0.91)"/>
    <line class="cls-4" x1="250.847" y1="75.935" x2="279.193" y2="75.935"/>
  </g>
</svg>
