<?xml version="1.0" encoding="utf-8"?>
<!-- Generator: Adobe Illustrator 22.1.0, SVG Export Plug-In . SVG Version: 6.00 Build 0)  -->
<svg version="1.1" id="Layer_1" xmlns="http://www.w3.org/2000/svg" xmlns:xlink="http://www.w3.org/1999/xlink" x="0px" y="0px"
	 viewBox="0 0 363 152.6" style="enable-background:new 0 0 363 152.6;" xml:space="preserve">
<style type="text/css">
	.st0{fill:#1D1D1B;}
	.st1{fill:none;stroke:#000000;stroke-width:0.8504;stroke-miterlimit:10;}
	.st2{fill:none;stroke:#000000;stroke-width:0.8504;stroke-linecap:round;stroke-miterlimit:10;stroke-dasharray:0,3.6973;}
	.st3{fill:none;stroke:#000000;stroke-width:0.8504;stroke-linecap:round;stroke-miterlimit:10;stroke-dasharray:0,3.685;}
</style>
<g>
	<g>
		<path class="st0" d="M139.1,74c0,0.1,0,0.2,0,0.2c0,0.2,0.1,0.2,0.4,0.2c0.3,0,0.4,0,0.6,0c0.3,0,0.3,0,0.3,0.1
			c0,0.2-0.1,0.2-0.2,0.2c-0.3,0-0.6,0-0.9,0c-0.3,0-0.5,0-0.8,0c-0.3,0-0.6,0-0.8,0c-0.3,0-0.5,0-0.8,0c-0.1,0-0.2,0-0.2-0.1
			c0-0.2,0.1-0.2,0.4-0.2c1.1,0,1.1-0.1,1.2-0.5l1.3-5.3c0,0,0-0.1,0-0.2c0-0.1,0-0.1-0.3-0.1h-0.4c-1.5,0-1.7,0.2-2.3,1.7
			c-0.1,0.2-0.1,0.2-0.2,0.2c-0.1,0-0.1,0-0.1-0.1c0,0,0-0.2,0.1-0.2l0.6-1.8c0.1-0.2,0.1-0.2,0.3-0.2h5.5c0.2,0,0.3,0,0.3,0.1
			c0,0,0,0.1,0,0.2l-0.3,1.7c0,0.1,0,0.2-0.1,0.2c-0.1,0-0.1-0.1-0.1-0.1c0,0,0-0.1,0-0.2c0-0.3,0.1-0.6,0.1-0.8
			c0-0.8-0.4-0.8-1.5-0.8c-0.2,0-0.5,0-0.6,0c-0.1,0-0.2,0.1-0.2,0.4L139.1,74z"/>
	</g>
	<polygon class="st1" points="129.1,71.3 129.1,78.4 150.4,78.4 150.4,64.2 129.1,64.2 	"/>
	<polyline points="195.2,48.4 200,50 198.4,45.2 197.6,47.6 	"/>
	<line class="st1" x1="197.6" y1="47.6" x2="191.1" y2="41.2"/>
	<polyline points="214.7,67.9 219.5,69.5 217.9,64.7 217.1,67.1 	"/>
	<line class="st1" x1="207.1" y1="57.1" x2="217.1" y2="67.1"/>
	<polyline points="198.4,33.6 200,28.8 195.2,30.4 197.6,31.2 	"/>
	<line class="st1" x1="197.6" y1="31.2" x2="157.5" y2="71.3"/>
	<polyline points="217.9,14.1 219.5,9.3 214.7,10.9 217.1,11.7 	"/>
	<path class="st1" d="M207.1,21.7l10-10 M224.4,7.5L224.4,7.5c0-1.8-1.4-3.2-3.2-3.2S218,5.7,218,7.5c0,1.8,1.4,3.2,3.2,3.2
		S224.4,9.3,224.4,7.5L224.4,7.5z M219.5,7.5h3.5 M221.2,9.3V5.8"/>
	<polyline points="211.9,23.3 207.4,25.6 211.9,27.8 210.8,25.6 	"/>
	<line class="st1" x1="210.8" y1="25.6" x2="218" y2="25.6"/>
	<g>
		<path class="st0" d="M227.4,23.8h-0.2c-0.2-1.3-0.4-1.9-1.8-1.9h-1c-0.5,0-0.5,0.1-0.5,0.4v5.3c0,0.3,0,0.5,0.9,0.5h0.3v0.3
			c-0.4,0-1.3,0-1.7,0c-0.4,0-1.2,0-1.5,0V28h0.2c0.8,0,0.8-0.1,0.8-0.5v-5.2c0-0.4,0-0.5-0.8-0.5h-0.2v-0.3h5.2L227.4,23.8z"/>
	</g>
	<g>
		<path class="st0" d="M229.3,27.9c0.3-0.1,0.5-0.3,0.8-0.6c0.4-0.3,0.7-0.6,1.1-0.6c0.4,0,0.5,0.3,0.5,0.5c0,0.3-0.2,0.4-0.4,0.4
			c-0.2,0-0.3-0.1-0.3-0.3c0-0.1,0.1-0.3,0.4-0.4c-0.1-0.1-0.1-0.1-0.2-0.1c-0.4,0-0.7,0.3-1.1,0.7c-0.1,0.1-0.4,0.3-0.6,0.5
			c0.3,0,1.1,0.1,1.1,0.7c0,0.1,0,0.2,0,0.2c0,0.2,0,0.2,0,0.3c0,0.2,0.1,0.4,0.2,0.4c0.3,0,0.5-0.5,0.6-0.8c0-0.1,0-0.2,0.1-0.2
			c0,0,0.1,0,0.1,0.1c0,0-0.2,1.1-0.9,1.1c-0.3,0-0.7-0.2-0.7-0.7c0-0.1,0-0.1,0-0.2c0-0.1,0-0.1,0-0.1c0-0.4-0.4-0.5-0.9-0.6
			c0,0.1-0.3,1.3-0.3,1.4c0,0.2-0.1,0.3-0.3,0.3c-0.2,0-0.2-0.1-0.2-0.2c0,0,0,0,0-0.2l1-3.9c0-0.1,0-0.1,0-0.2c0-0.1,0-0.1-0.3-0.1
			c-0.1,0-0.2,0-0.2-0.1c0-0.1,0.1-0.2,0.2-0.2c0.2,0,0.8-0.1,0.9-0.1c0.1,0,0.1,0.1,0.1,0.1c0,0,0,0.1,0,0.1L229.3,27.9z"/>
	</g>
	<path class="st1" d="M207.1,25.6L207.1,25.6c0-1.8-1.4-3.2-3.2-3.2c-1.8,0-3.2,1.4-3.2,3.2c0,1.8,1.4,3.2,3.2,3.2
		C205.6,28.8,207.1,27.3,207.1,25.6L207.1,25.6z M202.1,27.4l3.5-3.5 M205.6,27.4l-3.5-3.5"/>
	<polyline points="211.6,51.3 207.1,53.6 211.6,55.8 210.5,53.6 	"/>
	<line class="st1" x1="210.5" y1="53.6" x2="217.7" y2="53.6"/>
	<g>
		<path class="st0" d="M227,51.8h-0.2c-0.2-1.3-0.4-1.9-1.8-1.9h-1c-0.5,0-0.5,0.1-0.5,0.4v5.3c0,0.3,0,0.5,0.9,0.5h0.3v0.3
			c-0.4,0-1.3,0-1.7,0c-0.4,0-1.2,0-1.5,0V56h0.2c0.8,0,0.8-0.1,0.8-0.5v-5.2c0-0.4,0-0.5-0.8-0.5h-0.2v-0.3h5.2L227,51.8z"/>
	</g>
	<g>
		<path class="st0" d="M229,55.9c0.3-0.1,0.5-0.3,0.8-0.6c0.4-0.3,0.7-0.6,1.1-0.6c0.4,0,0.5,0.3,0.5,0.5c0,0.3-0.2,0.4-0.4,0.4
			c-0.2,0-0.3-0.1-0.3-0.3c0-0.1,0.1-0.3,0.4-0.4c-0.1-0.1-0.1-0.1-0.2-0.1c-0.4,0-0.7,0.3-1.1,0.7c-0.1,0.1-0.4,0.3-0.6,0.5
			c0.3,0,1.1,0.1,1.1,0.7c0,0.1,0,0.2,0,0.2c0,0.2,0,0.2,0,0.3c0,0.2,0.1,0.4,0.2,0.4c0.3,0,0.5-0.5,0.6-0.8c0-0.1,0-0.2,0.1-0.2
			c0,0,0.1,0,0.1,0.1c0,0-0.2,1.1-0.9,1.1c-0.3,0-0.7-0.2-0.7-0.7c0-0.1,0-0.1,0-0.2c0-0.1,0-0.1,0-0.1c0-0.4-0.4-0.5-0.9-0.6
			c0,0.1-0.3,1.3-0.3,1.4c0,0.2-0.1,0.3-0.3,0.3c-0.2,0-0.2-0.1-0.2-0.2c0,0,0,0,0-0.2l1-3.9c0-0.1,0-0.1,0-0.2c0-0.1,0-0.1-0.3-0.1
			c-0.1,0-0.2,0-0.2-0.1c0-0.1,0.1-0.2,0.2-0.2c0.2,0,0.8-0.1,0.9-0.1c0.1,0,0.1,0.1,0.1,0.1c0,0,0,0.1,0,0.1L229,55.9z"/>
	</g>
	<path class="st1" d="M206.7,53.6L206.7,53.6c0-1.8-1.4-3.2-3.2-3.2s-3.2,1.4-3.2,3.2s1.4,3.2,3.2,3.2S206.7,55.3,206.7,53.6
		L206.7,53.6z M201.7,55.4l3.6-3.5 M205.3,55.4l-3.6-3.5 M224.4,71.3L224.4,71.3c0-1.8-1.4-3.2-3.2-3.2s-3.2,1.4-3.2,3.2
		c0,1.8,1.4,3.2,3.2,3.2S224.4,73.1,224.4,71.3L224.4,71.3z M219.5,71.3h3.5 M221.2,73.1v-3.5 M191.1,41.2c0-2.5-0.5-3.5-1.8-3.5
		l0,0c-1.2,0-1.8,0-1.8,0 M187.6,37.6L157.5,7.5"/>
	<polyline points="124.6,73.6 129.1,71.3 124.6,69 125.7,71.3 	"/>
	<line class="st1" x1="107.9" y1="71.3" x2="125.7" y2="71.3"/>
	<polyline points="213.2,73.6 217.7,71.3 213.2,69 214.3,71.3 	"/>
	<line class="st1" x1="150.4" y1="71.3" x2="214.3" y2="71.3"/>
	<polyline points="259.2,73.6 263.8,71.3 259.2,69 260.4,71.3 	"/>
	<line class="st1" x1="224.8" y1="71.3" x2="260.4" y2="71.3"/>
	<polyline points="213.2,9.8 217.7,7.5 213.2,5.2 214.3,7.5 	"/>
	<line class="st1" x1="107.9" y1="7.5" x2="214.3" y2="7.5"/>
	<polyline points="259.2,9.8 263.8,7.5 259.2,5.2 260.4,7.5 	"/>
	<line class="st1" x1="224.8" y1="7.5" x2="260.4" y2="7.5"/>
	<polygon class="st2" points="122,42.9 122,85.5 249.6,85.5 249.6,0.4 122,0.4 	"/>
	<g>
		<path class="st0" d="M72.3,9.2c0,0.1-0.2,1.3-0.6,1.9c-0.2,0.4-0.6,1-1.1,1c-0.4,0-0.8-0.2-0.8-0.7c0-0.4,0.3-0.6,0.5-0.6
			c0.2,0,0.4,0.1,0.4,0.3c0,0.1-0.1,0.5-0.5,0.5c0.2,0.2,0.4,0.2,0.5,0.2c0.5,0,0.7-0.9,0.9-1.9l0.7-3.9h-0.7c-0.2,0-0.3,0-0.3-0.1
			c0-0.2,0.1-0.2,0.3-0.2h0.7c0.2-1.3,0.3-1.4,0.3-1.6c0.3-1,0.9-1.2,1.3-1.2c0.4,0,0.9,0.2,0.9,0.7c0,0.4-0.3,0.6-0.5,0.6
			c-0.2,0-0.4-0.1-0.4-0.3c0-0.1,0.1-0.5,0.5-0.5c-0.2-0.2-0.4-0.2-0.5-0.2c-0.2,0-0.4,0.1-0.5,0.3c-0.1,0.1-0.2,0.8-0.2,1l-0.2,1.1
			h0.8c0.2,0,0.3,0,0.3,0.1c0,0.2-0.1,0.2-0.3,0.2h-0.9L72.3,9.2z"/>
	</g>
	<g>
		<path class="st0" d="M75.6,9.6c0.3-0.1,0.5-0.3,0.8-0.6c0.4-0.3,0.7-0.6,1.1-0.6c0.4,0,0.5,0.3,0.5,0.5c0,0.3-0.2,0.4-0.4,0.4
			c-0.2,0-0.3-0.1-0.3-0.3c0-0.1,0.1-0.3,0.4-0.4c-0.1-0.1-0.1-0.1-0.2-0.1c-0.4,0-0.7,0.3-1.1,0.7c-0.1,0.1-0.4,0.3-0.6,0.5
			c0.3,0,1.1,0.1,1.1,0.7c0,0.1,0,0.2,0,0.2c0,0.2,0,0.2,0,0.3c0,0.2,0.1,0.4,0.2,0.4c0.3,0,0.5-0.5,0.6-0.8c0-0.1,0-0.2,0.1-0.2
			c0,0,0.1,0,0.1,0.1c0,0-0.2,1.1-0.9,1.1c-0.3,0-0.7-0.2-0.7-0.7c0-0.1,0-0.1,0-0.2c0-0.1,0-0.1,0-0.1c0-0.4-0.4-0.5-0.9-0.6
			c0,0.1-0.3,1.3-0.3,1.4c0,0.2-0.1,0.3-0.3,0.3c-0.2,0-0.2-0.1-0.2-0.2c0,0,0,0,0-0.2l1-3.9c0-0.1,0-0.1,0-0.2c0-0.1,0-0.1-0.3-0.1
			c-0.1,0-0.2,0-0.2-0.1c0-0.1,0.1-0.2,0.2-0.2c0.2,0,0.8-0.1,0.9-0.1c0.1,0,0.1,0.1,0.1,0.1c0,0,0,0.1,0,0.1L75.6,9.6z"/>
	</g>
	<g>
		<path class="st0" d="M79.5,9.9c-0.1,0-0.3,0-0.3-0.2c0-0.2,0.2-0.2,0.3-0.2h4.2c0.1,0,0.3,0,0.3,0.2c0,0.2-0.2,0.2-0.3,0.2H79.5z"
			/>
	</g>
	<g>
		<path class="st0" d="M87,10.9c0,0.2,0,0.3,0.7,0.3H88v0.3c-0.2,0-1,0-1.2,0c-0.3,0-1.1,0-1.2,0v-0.3h0.3c0.7,0,0.7-0.1,0.7-0.3
			V7.3c-0.4,0.2-0.8,0.2-1,0.2V7.3c0.3,0,0.9,0,1.4-0.4C87,6.8,87,6.9,87,7V10.9z"/>
	</g>
	<g>
		<path class="st0" d="M90.4,12.5v-10h1.4V3h-1v9.2h1v0.4H90.4z"/>
	</g>
	<g>
		<path class="st0" d="M93.5,7.1c0.1-0.5,0.2-0.6,0.2-0.8c0-0.3-0.1-0.5-0.3-0.5c-0.4,0-0.6,0.5-0.7,1.2c-0.1,0.2-0.1,0.2-0.2,0.2
			c0,0-0.1,0-0.1-0.1c0,0,0.1-0.6,0.3-1c0.1-0.2,0.3-0.6,0.7-0.6c0.5,0,0.9,0.3,0.9,0.9c0.2-0.2,0.7-0.9,1.6-0.9
			C96.5,5.6,97,6,97,6.7c0,0.6-0.4,1.7-0.6,2.2c-0.1,0.2-0.2,0.5-0.2,0.7c0,0.2,0.1,0.3,0.2,0.3c0.5,0,0.8-0.6,1-1.2
			c0-0.1,0-0.2,0.1-0.2c0,0,0.1,0,0.1,0.1c0,0.1-0.4,1.5-1.3,1.5c-0.5,0-0.8-0.3-0.8-0.8c0-0.1,0-0.2,0.1-0.5
			c0.2-0.4,0.6-1.7,0.6-2.3c0-0.3-0.1-0.7-0.5-0.7c-0.9,0-1.5,0.9-1.6,1.2c0,0-0.1,0.3-0.1,0.5c0,0.2-0.1,0.4-0.2,0.7l-0.2,0.9
			c-0.1,0.2-0.2,0.7-0.2,0.7c-0.1,0.2-0.2,0.3-0.4,0.3c-0.1,0-0.3-0.1-0.3-0.3c0-0.1,0.1-0.3,0.1-0.4L93.5,7.1z"/>
	</g>
	<g>
		<path class="st0" d="M99.6,12.5h-1.4v-0.4h1V3h-1V2.6h1.4V12.5z"/>
	</g>
	<g>
		<path class="st0" d="M72.9,74.5c-0.1,0.6-0.9,1.4-2.1,1.4c-1,0-1.3-0.2-1.3-0.6c0-0.4,0.3-0.6,0.5-0.6c0.3,0,0.4,0.2,0.4,0.3
			c0,0.2-0.1,0.4-0.4,0.5c0.3,0.1,0.6,0.1,0.8,0.1c1.1,0,1.4-1,1.4-1.1c0,0,0.1-0.4,0.3-1.3l0,0c-0.1,0.1-0.6,0.6-1.2,0.6
			c-0.7,0-1.3-0.6-1.3-1.6c0-1.4,1.2-2.8,2.4-2.8c0.4,0,0.7,0.3,0.9,0.6c0-0.4,0.3-0.4,0.4-0.4c0.2,0,0.3,0.1,0.3,0.3
			c0,0.1,0,0.1,0,0.2L72.9,74.5z M73.2,70.6c0,0,0-0.1,0-0.1s-0.1-0.9-0.8-0.9c-0.4,0-0.8,0.4-1.1,0.9c-0.3,0.5-0.6,1.7-0.6,2.2
			c0,0.4,0.1,0.9,0.6,0.9c0.3,0,0.6-0.2,0.8-0.4c0.2-0.2,0.4-0.4,0.5-0.7L73.2,70.6z"/>
	</g>
	<g>
		<path class="st0" d="M75.6,73.4c0.3-0.1,0.5-0.3,0.8-0.6c0.4-0.3,0.7-0.6,1.1-0.6c0.4,0,0.5,0.3,0.5,0.5c0,0.3-0.2,0.4-0.4,0.4
			c-0.2,0-0.3-0.1-0.3-0.3c0-0.1,0.1-0.3,0.4-0.4c-0.1-0.1-0.1-0.1-0.2-0.1c-0.4,0-0.7,0.3-1.1,0.7c-0.1,0.1-0.4,0.3-0.6,0.5
			c0.3,0,1.1,0.1,1.1,0.7c0,0.1,0,0.2,0,0.2c0,0.2,0,0.2,0,0.3c0,0.2,0.1,0.4,0.2,0.4c0.3,0,0.5-0.5,0.6-0.8c0-0.1,0-0.2,0.1-0.2
			c0,0,0.1,0,0.1,0.1c0,0-0.2,1.1-0.9,1.1c-0.3,0-0.7-0.2-0.7-0.7c0-0.1,0-0.1,0-0.2c0-0.1,0-0.1,0-0.1c0-0.4-0.4-0.5-0.9-0.6
			c0,0.1-0.3,1.3-0.3,1.4c0,0.2-0.1,0.3-0.3,0.3c-0.2,0-0.2-0.1-0.2-0.2c0,0,0,0,0-0.2l1-3.9c0-0.1,0-0.1,0-0.2c0-0.1,0-0.1-0.3-0.1
			c-0.1,0-0.2,0-0.2-0.1c0-0.1,0.1-0.2,0.2-0.2c0.2,0,0.8-0.1,0.9-0.1c0.1,0,0.1,0.1,0.1,0.1c0,0,0,0.1,0,0.1L75.6,73.4z"/>
	</g>
	<g>
		<path class="st0" d="M79.5,73.7c-0.1,0-0.3,0-0.3-0.2c0-0.2,0.2-0.2,0.3-0.2h4.2c0.1,0,0.3,0,0.3,0.2c0,0.2-0.2,0.2-0.3,0.2H79.5z
			"/>
	</g>
	<g>
		<path class="st0" d="M87,74.7c0,0.2,0,0.3,0.7,0.3H88v0.3c-0.2,0-1,0-1.2,0c-0.3,0-1.1,0-1.2,0V75h0.3c0.7,0,0.7-0.1,0.7-0.3v-3.6
			c-0.4,0.2-0.8,0.2-1,0.2v-0.3c0.3,0,0.9,0,1.4-0.4c0.2,0,0.2,0,0.2,0.2V74.7z"/>
	</g>
	<g>
		<path class="st0" d="M90.4,76.3v-10h1.4v0.4h-1v9.2h1v0.4H90.4z"/>
	</g>
	<g>
		<path class="st0" d="M93.5,70.9c0.1-0.5,0.2-0.6,0.2-0.8c0-0.3-0.1-0.5-0.3-0.5c-0.4,0-0.6,0.5-0.7,1.2C92.5,71,92.5,71,92.4,71
			c0,0-0.1,0-0.1-0.1c0,0,0.1-0.6,0.3-1c0.1-0.2,0.3-0.6,0.7-0.6c0.5,0,0.9,0.3,0.9,0.9c0.2-0.2,0.7-0.9,1.6-0.9
			c0.7,0,1.1,0.4,1.1,1.1c0,0.6-0.4,1.7-0.6,2.2c-0.1,0.2-0.2,0.5-0.2,0.7c0,0.2,0.1,0.3,0.2,0.3c0.5,0,0.8-0.6,1-1.2
			c0-0.1,0-0.2,0.1-0.2c0,0,0.1,0,0.1,0.1c0,0.1-0.4,1.5-1.3,1.5c-0.5,0-0.8-0.3-0.8-0.8c0-0.1,0-0.2,0.1-0.5
			c0.2-0.4,0.6-1.7,0.6-2.3c0-0.3-0.1-0.7-0.5-0.7c-0.9,0-1.5,0.9-1.6,1.2c0,0-0.1,0.3-0.1,0.5c0,0.2-0.1,0.4-0.2,0.7l-0.2,0.9
			c-0.1,0.2-0.2,0.7-0.2,0.7c-0.1,0.2-0.2,0.3-0.4,0.3c-0.1,0-0.3-0.1-0.3-0.3c0-0.1,0.1-0.3,0.1-0.4L93.5,70.9z"/>
	</g>
	<g>
		<path class="st0" d="M99.6,76.3h-1.4v-0.4h1v-9.2h-1v-0.4h1.4V76.3z"/>
	</g>
	<g>
		<path class="st0" d="M273.9,9.2c0,0.1-0.2,1.3-0.6,1.9c-0.2,0.4-0.6,1-1.1,1c-0.4,0-0.8-0.2-0.8-0.7c0-0.4,0.3-0.6,0.5-0.6
			c0.2,0,0.4,0.1,0.4,0.3c0,0.1-0.1,0.5-0.5,0.5c0.2,0.2,0.4,0.2,0.5,0.2c0.5,0,0.7-0.9,0.9-1.9l0.7-3.9h-0.7c-0.2,0-0.3,0-0.3-0.1
			c0-0.2,0.1-0.2,0.3-0.2h0.7c0.2-1.3,0.3-1.4,0.3-1.6c0.3-1,0.9-1.2,1.3-1.2c0.4,0,0.9,0.2,0.9,0.7c0,0.4-0.3,0.6-0.5,0.6
			c-0.2,0-0.4-0.1-0.4-0.3c0-0.1,0.1-0.5,0.5-0.5c-0.2-0.2-0.4-0.2-0.5-0.2c-0.2,0-0.4,0.1-0.5,0.3c-0.1,0.1-0.2,0.8-0.2,1l-0.2,1.1
			h0.8c0.2,0,0.3,0,0.3,0.1c0,0.2-0.1,0.2-0.3,0.2h-0.9L273.9,9.2z"/>
	</g>
	<g>
		<path class="st0" d="M277.2,9.6c0.3-0.1,0.5-0.3,0.8-0.6c0.4-0.3,0.7-0.6,1.1-0.6c0.4,0,0.5,0.3,0.5,0.5c0,0.3-0.2,0.4-0.4,0.4
			c-0.2,0-0.3-0.1-0.3-0.3c0-0.1,0.1-0.3,0.4-0.4c-0.1-0.1-0.1-0.1-0.2-0.1c-0.4,0-0.7,0.3-1.1,0.7c-0.1,0.1-0.4,0.3-0.6,0.5
			c0.3,0,1.1,0.1,1.1,0.7c0,0.1,0,0.2,0,0.2c0,0.2,0,0.2,0,0.3c0,0.2,0.1,0.4,0.2,0.4c0.3,0,0.5-0.5,0.6-0.8c0-0.1,0-0.2,0.1-0.2
			c0,0,0.1,0,0.1,0.1c0,0-0.2,1.1-0.9,1.1c-0.3,0-0.7-0.2-0.7-0.7c0-0.1,0-0.1,0-0.2c0-0.1,0-0.1,0-0.1c0-0.4-0.4-0.5-0.9-0.6
			c0,0.1-0.3,1.3-0.3,1.4c0,0.2-0.1,0.3-0.3,0.3c-0.2,0-0.2-0.1-0.2-0.2c0,0,0,0,0-0.2l1-3.9c0-0.1,0-0.1,0-0.2c0-0.1,0-0.1-0.3-0.1
			c-0.1,0-0.2,0-0.2-0.1c0-0.1,0.1-0.2,0.2-0.2c0.2,0,0.8-0.1,0.9-0.1c0.1,0,0.1,0.1,0.1,0.1c0,0,0,0.1,0,0.1L277.2,9.6z"/>
	</g>
	<g>
		<path class="st0" d="M281.7,12.5v-10h1.4V3h-1v9.2h1v0.4H281.7z"/>
	</g>
	<g>
		<path class="st0" d="M284.8,7.1c0.1-0.5,0.2-0.6,0.2-0.8c0-0.3-0.1-0.5-0.3-0.5c-0.4,0-0.6,0.5-0.7,1.2c-0.1,0.2-0.1,0.2-0.2,0.2
			c0,0-0.1,0-0.1-0.1c0,0,0.1-0.6,0.3-1c0.1-0.2,0.3-0.6,0.7-0.6c0.5,0,0.9,0.3,0.9,0.9c0.2-0.2,0.7-0.9,1.6-0.9
			c0.7,0,1.1,0.4,1.1,1.1c0,0.6-0.4,1.7-0.6,2.2c-0.1,0.2-0.2,0.5-0.2,0.7c0,0.2,0.1,0.3,0.2,0.3c0.5,0,0.8-0.6,1-1.2
			c0.1-0.1,0.1-0.2,0.2-0.2c0,0,0.1,0,0.1,0.1c0,0.1-0.4,1.5-1.3,1.5c-0.5,0-0.8-0.3-0.8-0.8c0-0.1,0-0.2,0.1-0.5
			c0.2-0.4,0.6-1.7,0.6-2.3c0-0.3-0.1-0.7-0.5-0.7c-0.9,0-1.5,0.9-1.6,1.2c0,0-0.1,0.3-0.1,0.5c0,0.2-0.1,0.4-0.2,0.7L285,9.1
			c-0.1,0.2-0.2,0.7-0.2,0.7c-0.1,0.2-0.2,0.3-0.4,0.3c-0.1,0-0.3-0.1-0.3-0.3c0-0.1,0.1-0.3,0.1-0.4L284.8,7.1z"/>
	</g>
	<g>
		<path class="st0" d="M290.9,12.5h-1.4v-0.4h1V3h-1V2.6h1.4V12.5z"/>
	</g>
	<g>
		<path class="st0" d="M274.4,74.5c-0.1,0.6-0.9,1.4-2.1,1.4c-1,0-1.3-0.2-1.3-0.6c0-0.4,0.3-0.6,0.5-0.6c0.3,0,0.4,0.2,0.4,0.3
			c0,0.2-0.1,0.4-0.4,0.5c0.3,0.1,0.6,0.1,0.8,0.1c1.1,0,1.4-1,1.4-1.1c0,0,0.1-0.4,0.3-1.3l0,0c-0.1,0.1-0.6,0.6-1.2,0.6
			c-0.7,0-1.3-0.6-1.3-1.6c0-1.4,1.2-2.8,2.4-2.8c0.4,0,0.7,0.3,0.9,0.6c0-0.4,0.3-0.4,0.4-0.4c0.2,0,0.3,0.1,0.3,0.3
			c0,0.1,0,0.1,0,0.2L274.4,74.5z M274.7,70.6c0,0,0-0.1,0-0.1s-0.1-0.9-0.8-0.9c-0.4,0-0.8,0.4-1.1,0.9c-0.3,0.5-0.6,1.7-0.6,2.2
			c0,0.4,0.1,0.9,0.6,0.9c0.3,0,0.6-0.2,0.8-0.4c0.2-0.2,0.4-0.4,0.5-0.7L274.7,70.6z"/>
	</g>
	<g>
		<path class="st0" d="M277.1,73.4c0.3-0.1,0.5-0.3,0.8-0.6c0.4-0.3,0.7-0.6,1.1-0.6c0.4,0,0.5,0.3,0.5,0.5c0,0.3-0.2,0.4-0.4,0.4
			c-0.2,0-0.3-0.1-0.3-0.3c0-0.1,0.1-0.3,0.4-0.4c-0.1-0.1-0.1-0.1-0.2-0.1c-0.4,0-0.7,0.3-1.1,0.7c-0.1,0.1-0.4,0.3-0.6,0.5
			c0.3,0,1.1,0.1,1.1,0.7c0,0.1,0,0.2,0,0.2c0,0.2,0,0.2,0,0.3c0,0.2,0.1,0.4,0.2,0.4c0.3,0,0.5-0.5,0.6-0.8c0-0.1,0-0.2,0.1-0.2
			c0,0,0.1,0,0.1,0.1c0,0-0.2,1.1-0.9,1.1c-0.3,0-0.7-0.2-0.7-0.7c0-0.1,0-0.1,0-0.2c0-0.1,0-0.1,0-0.1c0-0.4-0.4-0.5-0.9-0.6
			c0,0.1-0.3,1.3-0.3,1.4c0,0.2-0.1,0.3-0.3,0.3c-0.2,0-0.2-0.1-0.2-0.2c0,0,0,0,0-0.2l1-3.9c0-0.1,0-0.1,0-0.2c0-0.1,0-0.1-0.3-0.1
			c-0.1,0-0.2,0-0.2-0.1c0-0.1,0.1-0.2,0.2-0.2c0.2,0,0.8-0.1,0.9-0.1c0.1,0,0.1,0.1,0.1,0.1c0,0,0,0.1,0,0.1L277.1,73.4z"/>
	</g>
	<g>
		<path class="st0" d="M281.6,76.3v-10h1.4v0.4h-1v9.2h1v0.4H281.6z"/>
	</g>
	<g>
		<path class="st0" d="M284.7,70.9c0.1-0.5,0.2-0.6,0.2-0.8c0-0.3-0.1-0.5-0.3-0.5c-0.4,0-0.6,0.5-0.7,1.2c-0.1,0.2-0.1,0.2-0.2,0.2
			c0,0-0.1,0-0.1-0.1c0,0,0.1-0.6,0.3-1c0.1-0.2,0.3-0.6,0.7-0.6c0.5,0,0.9,0.3,0.9,0.9c0.2-0.2,0.7-0.9,1.6-0.9
			c0.7,0,1.1,0.4,1.1,1.1c0,0.6-0.4,1.7-0.6,2.2c-0.1,0.2-0.2,0.5-0.2,0.7c0,0.2,0.1,0.3,0.2,0.3c0.5,0,0.8-0.6,1-1.2
			c0.1-0.1,0.1-0.2,0.2-0.2c0,0,0.1,0,0.1,0.1c0,0.1-0.4,1.5-1.3,1.5c-0.5,0-0.8-0.3-0.8-0.8c0-0.1,0-0.2,0.1-0.5
			c0.2-0.4,0.6-1.7,0.6-2.3c0-0.3-0.1-0.7-0.5-0.7c-0.9,0-1.5,0.9-1.6,1.2c0,0-0.1,0.3-0.1,0.5c0,0.2-0.1,0.4-0.2,0.7l-0.2,0.9
			c-0.1,0.2-0.2,0.7-0.2,0.7c-0.1,0.2-0.2,0.3-0.4,0.3c-0.1,0-0.3-0.1-0.3-0.3c0-0.1,0.1-0.3,0.1-0.4L284.7,70.9z"/>
	</g>
	<g>
		<path class="st0" d="M290.8,76.3h-1.4v-0.4h1v-9.2h-1v-0.4h1.4V76.3z"/>
	</g>
	<polygon class="st1" points="58.2,124.4 58.2,99.6 93.7,99.6 93.7,149.2 58.2,149.2 	"/>
	<polyline points="53.7,116.1 58.2,113.8 53.7,111.5 54.8,113.8 	"/>
	<line class="st1" x1="29.9" y1="113.8" x2="54.8" y2="113.8"/>
	<polyline points="53.7,137.3 58.2,135.1 53.7,132.8 54.8,135.1 	"/>
	<line class="st1" x1="29.9" y1="135.1" x2="54.8" y2="135.1"/>
	<g>
		<path class="st0" d="M33.1,108.4c0,0.1-0.2,1.3-0.6,1.9c-0.2,0.4-0.6,1-1.1,1c-0.4,0-0.8-0.2-0.8-0.7c0-0.4,0.3-0.6,0.5-0.6
			c0.2,0,0.4,0.1,0.4,0.3c0,0.1-0.1,0.5-0.5,0.5c0.2,0.2,0.4,0.2,0.5,0.2c0.5,0,0.7-0.9,0.9-1.9l0.7-3.9h-0.7c-0.2,0-0.3,0-0.3-0.1
			c0-0.2,0.1-0.2,0.3-0.2h0.7c0.2-1.3,0.3-1.4,0.3-1.6c0.3-1,0.9-1.2,1.3-1.2c0.4,0,0.9,0.2,0.9,0.7c0,0.4-0.3,0.6-0.5,0.6
			c-0.2,0-0.4-0.1-0.4-0.3c0-0.1,0.1-0.5,0.5-0.5c-0.2-0.2-0.4-0.2-0.5-0.2c-0.2,0-0.4,0.1-0.5,0.3c-0.1,0.1-0.2,0.8-0.2,1l-0.2,1.1
			h0.8c0.2,0,0.3,0,0.3,0.1c0,0.2-0.1,0.2-0.3,0.2h-0.9L33.1,108.4z"/>
	</g>
	<g>
		<path class="st0" d="M37,110.8c-1.6,0-1.6-1.9-1.6-2.4s0-2.4,1.6-2.4c0.6,0,1,0.3,1.2,0.6c0.3,0.5,0.4,1,0.4,1.8
			C38.6,109,38.6,110.8,37,110.8z M37.9,109.8c0.1-0.4,0.1-1,0.1-1.5c0-0.6,0-1.1-0.1-1.5c-0.1-0.4-0.5-0.6-0.9-0.6
			c-0.3,0-0.7,0.1-0.9,0.7c-0.1,0.4-0.1,0.9-0.1,1.4c0,0.5,0,1.1,0.1,1.5c0.1,0.6,0.6,0.8,0.9,0.8C37.3,110.6,37.7,110.5,37.9,109.8
			z"/>
	</g>
	<g>
		<path class="st0" d="M40.6,111.7v-10H42v0.4h-1v9.2h1v0.4H40.6z"/>
	</g>
	<g>
		<path class="st0" d="M43.7,106.4c0.1-0.5,0.2-0.6,0.2-0.8c0-0.3-0.1-0.5-0.3-0.5c-0.4,0-0.6,0.5-0.7,1.2c-0.1,0.2-0.1,0.2-0.2,0.2
			c0,0-0.1,0-0.1-0.1c0,0,0.1-0.6,0.3-1c0.1-0.2,0.3-0.6,0.7-0.6c0.5,0,0.9,0.3,0.9,0.9c0.2-0.2,0.7-0.9,1.6-0.9
			c0.7,0,1.1,0.4,1.1,1.1c0,0.6-0.4,1.7-0.6,2.2c-0.1,0.2-0.2,0.5-0.2,0.7c0,0.2,0.1,0.3,0.2,0.3c0.5,0,0.8-0.6,1-1.2
			c0-0.1,0-0.2,0.1-0.2c0,0,0.1,0,0.1,0.1c0,0.1-0.4,1.5-1.3,1.5c-0.5,0-0.8-0.3-0.8-0.8c0-0.1,0-0.2,0.1-0.5
			c0.2-0.4,0.6-1.7,0.6-2.3c0-0.3-0.1-0.7-0.5-0.7c-0.9,0-1.5,0.9-1.6,1.2c0,0-0.1,0.3-0.1,0.5c0,0.2-0.1,0.4-0.2,0.7l-0.2,0.9
			c-0.1,0.2-0.2,0.7-0.2,0.7c-0.1,0.2-0.2,0.3-0.4,0.3c-0.1,0-0.3-0.1-0.3-0.3c0,0,0.1-0.3,0.1-0.4L43.7,106.4z"/>
	</g>
	<g>
		<path class="st0" d="M49.8,111.7h-1.4v-0.4h1v-9.2h-1v-0.4h1.4V111.7z"/>
	</g>
	<g>
		<path class="st0" d="M33.7,145.3c-0.1,0.6-0.9,1.4-2.1,1.4c-1,0-1.3-0.2-1.3-0.6c0-0.4,0.3-0.6,0.5-0.6c0.3,0,0.4,0.2,0.4,0.3
			c0,0.2-0.1,0.4-0.4,0.5c0.3,0.1,0.6,0.1,0.8,0.1c1.1,0,1.4-1,1.4-1.1c0,0,0.1-0.4,0.3-1.3l0,0c-0.1,0.1-0.6,0.6-1.2,0.6
			c-0.7,0-1.3-0.6-1.3-1.6c0-1.4,1.2-2.8,2.4-2.8c0.4,0,0.7,0.3,0.9,0.6c0-0.4,0.3-0.4,0.4-0.4c0.2,0,0.3,0.1,0.3,0.3
			c0,0.1,0,0.1,0,0.2L33.7,145.3z M34,141.5c0,0,0-0.1,0-0.1s-0.1-0.9-0.8-0.9c-0.4,0-0.8,0.4-1.1,0.9c-0.3,0.5-0.6,1.7-0.6,2.2
			c0,0.4,0.1,0.9,0.6,0.9c0.3,0,0.6-0.2,0.8-0.4c0.2-0.2,0.4-0.4,0.5-0.7L34,141.5z"/>
	</g>
	<g>
		<path class="st0" d="M36.9,146.3c-1.6,0-1.6-1.9-1.6-2.4s0-2.4,1.6-2.4c0.6,0,1,0.3,1.2,0.6c0.3,0.5,0.4,1,0.4,1.8
			C38.5,144.4,38.5,146.3,36.9,146.3z M37.8,145.3c0.1-0.4,0.1-1,0.1-1.5c0-0.6,0-1.1-0.1-1.5c-0.1-0.4-0.5-0.6-0.9-0.6
			c-0.3,0-0.7,0.1-0.9,0.7c-0.1,0.4-0.1,0.9-0.1,1.4c0,0.5,0,1.1,0.1,1.5c0.1,0.6,0.6,0.8,0.9,0.8C37.1,146.1,37.6,145.9,37.8,145.3
			z"/>
	</g>
	<g>
		<path class="st0" d="M40.5,147.2v-10h1.4v0.4h-1v9.2h1v0.4H40.5z"/>
	</g>
	<g>
		<path class="st0" d="M43.5,141.8c0.1-0.5,0.2-0.6,0.2-0.8c0-0.3-0.1-0.5-0.3-0.5c-0.4,0-0.6,0.5-0.7,1.2c-0.1,0.2-0.1,0.2-0.2,0.2
			c0,0-0.1,0-0.1-0.1c0,0,0.1-0.6,0.3-1c0.1-0.2,0.3-0.6,0.7-0.6c0.5,0,0.9,0.3,0.9,0.9c0.2-0.2,0.7-0.9,1.6-0.9
			c0.7,0,1.1,0.4,1.1,1.1c0,0.6-0.4,1.7-0.6,2.2c-0.1,0.2-0.2,0.5-0.2,0.7c0,0.2,0.1,0.3,0.2,0.3c0.5,0,0.8-0.6,1-1.2
			c0-0.1,0-0.2,0.1-0.2c0,0,0.1,0,0.1,0.1c0,0.1-0.4,1.5-1.3,1.5c-0.5,0-0.8-0.3-0.8-0.8c0-0.1,0-0.2,0.1-0.5
			c0.2-0.4,0.6-1.7,0.6-2.3c0-0.3-0.1-0.7-0.5-0.7c-0.9,0-1.5,0.9-1.6,1.2c0,0-0.1,0.3-0.1,0.5c0,0.2-0.1,0.4-0.2,0.7l-0.2,0.9
			c-0.1,0.2-0.2,0.7-0.2,0.7c-0.1,0.2-0.2,0.3-0.4,0.3c-0.1,0-0.3-0.1-0.3-0.3c0,0,0.1-0.3,0.1-0.4L43.5,141.8z"/>
	</g>
	<g>
		<path class="st0" d="M49.7,147.2h-1.4v-0.4h1v-9.2h-1v-0.4h1.4V147.2z"/>
	</g>
	<polyline points="117.5,116.1 122,113.8 117.5,111.5 118.6,113.8 	"/>
	<line class="st1" x1="93.7" y1="113.8" x2="118.6" y2="113.8"/>
	<polyline points="117.5,137.3 122,135.1 117.5,132.8 118.6,135.1 	"/>
	<line class="st1" x1="93.7" y1="135.1" x2="118.6" y2="135.1"/>
	<g>
		<path class="st0" d="M100.5,108.4c0,0.1-0.2,1.3-0.6,1.9c-0.2,0.4-0.6,1-1.1,1c-0.4,0-0.8-0.2-0.8-0.7c0-0.4,0.3-0.6,0.5-0.6
			c0.2,0,0.4,0.1,0.4,0.3c0,0.1-0.1,0.5-0.5,0.5c0.2,0.2,0.4,0.2,0.5,0.2c0.5,0,0.7-0.9,0.9-1.9l0.7-3.9h-0.7c-0.2,0-0.3,0-0.3-0.1
			c0-0.2,0.1-0.2,0.3-0.2h0.7c0.2-1.3,0.3-1.4,0.3-1.6c0.3-1,0.9-1.2,1.3-1.2c0.4,0,0.9,0.2,0.9,0.7c0,0.4-0.3,0.6-0.5,0.6
			c-0.2,0-0.4-0.1-0.4-0.3c0-0.1,0.1-0.5,0.5-0.5c-0.2-0.2-0.4-0.2-0.5-0.2c-0.2,0-0.4,0.1-0.5,0.3c-0.1,0.1-0.2,0.8-0.2,1l-0.2,1.1
			h0.8c0.2,0,0.3,0,0.3,0.1c0,0.2-0.1,0.2-0.3,0.2h-0.9L100.5,108.4z"/>
	</g>
	<g>
		<path class="st0" d="M104.7,110.1c0,0.2,0,0.3,0.7,0.3h0.3v0.3c-0.2,0-1,0-1.2,0c-0.3,0-1.1,0-1.2,0v-0.3h0.3
			c0.7,0,0.7-0.1,0.7-0.3v-3.6c-0.4,0.2-0.8,0.2-1,0.2v-0.3c0.3,0,0.9,0,1.4-0.4c0.2,0,0.2,0,0.2,0.2V110.1z"/>
	</g>
	<g>
		<path class="st0" d="M107.9,111.7v-10h1.4v0.4h-1v9.2h1v0.4H107.9z"/>
	</g>
	<g>
		<path class="st0" d="M111,106.4c0.1-0.5,0.2-0.6,0.2-0.8c0-0.3-0.1-0.5-0.3-0.5c-0.4,0-0.6,0.5-0.7,1.2c-0.1,0.2-0.1,0.2-0.2,0.2
			c0,0-0.1,0-0.1-0.1c0,0,0.1-0.6,0.3-1c0.1-0.2,0.3-0.6,0.7-0.6c0.5,0,0.9,0.3,0.9,0.9c0.2-0.2,0.7-0.9,1.6-0.9
			c0.7,0,1.1,0.4,1.1,1.1c0,0.6-0.4,1.7-0.6,2.2c-0.1,0.2-0.2,0.5-0.2,0.7c0,0.2,0.1,0.3,0.2,0.3c0.5,0,0.8-0.6,1-1.2
			c0-0.1,0-0.2,0.1-0.2c0,0,0.1,0,0.1,0.1c0,0.1-0.4,1.5-1.3,1.5c-0.5,0-0.8-0.3-0.8-0.8c0-0.1,0-0.2,0.1-0.5
			c0.2-0.4,0.6-1.7,0.6-2.3c0-0.3-0.1-0.7-0.5-0.7c-0.9,0-1.5,0.9-1.6,1.2c0,0-0.1,0.3-0.1,0.5c0,0.2-0.1,0.4-0.2,0.7l-0.2,0.9
			c-0.1,0.2-0.2,0.7-0.2,0.7c-0.1,0.2-0.2,0.3-0.4,0.3c-0.1,0-0.3-0.1-0.3-0.3c0,0,0.1-0.3,0.1-0.4L111,106.4z"/>
	</g>
	<g>
		<path class="st0" d="M117.1,111.7h-1.4v-0.4h1v-9.2h-1v-0.4h1.4V111.7z"/>
	</g>
	<g>
		<path class="st0" d="M101,145.3c-0.1,0.6-0.9,1.4-2.1,1.4c-1,0-1.3-0.2-1.3-0.6c0-0.4,0.3-0.6,0.5-0.6c0.3,0,0.4,0.2,0.4,0.3
			c0,0.2-0.1,0.4-0.4,0.5c0.3,0.1,0.6,0.1,0.8,0.1c1.1,0,1.4-1,1.4-1.1c0,0,0.1-0.4,0.3-1.3l0,0c-0.1,0.1-0.6,0.6-1.2,0.6
			c-0.7,0-1.3-0.6-1.3-1.6c0-1.4,1.2-2.8,2.4-2.8c0.4,0,0.7,0.3,0.9,0.6c0-0.4,0.3-0.4,0.4-0.4c0.2,0,0.3,0.1,0.3,0.3
			c0,0.1,0,0.1,0,0.2L101,145.3z M101.3,141.5c0,0,0-0.1,0-0.1s-0.1-0.9-0.8-0.9c-0.4,0-0.8,0.4-1.1,0.9c-0.3,0.5-0.6,1.7-0.6,2.2
			c0,0.4,0.1,0.9,0.6,0.9c0.3,0,0.6-0.2,0.8-0.4c0.2-0.2,0.4-0.4,0.5-0.7L101.3,141.5z"/>
	</g>
	<g>
		<path class="st0" d="M104.5,145.6c0,0.2,0,0.3,0.7,0.3h0.3v0.3c-0.2,0-1,0-1.2,0c-0.3,0-1.1,0-1.2,0v-0.3h0.3
			c0.7,0,0.7-0.1,0.7-0.3V142c-0.4,0.2-0.8,0.2-1,0.2v-0.3c0.3,0,0.9,0,1.4-0.4c0.2,0,0.2,0,0.2,0.2V145.6z"/>
	</g>
	<g>
		<path class="st0" d="M107.8,147.2v-10h1.4v0.4h-1v9.2h1v0.4H107.8z"/>
	</g>
	<g>
		<path class="st0" d="M110.9,141.8c0.1-0.5,0.2-0.6,0.2-0.8c0-0.3-0.1-0.5-0.3-0.5c-0.4,0-0.6,0.5-0.7,1.2
			c-0.1,0.2-0.1,0.2-0.2,0.2c0,0-0.1,0-0.1-0.1c0,0,0.1-0.6,0.3-1c0.1-0.2,0.3-0.6,0.7-0.6c0.5,0,0.9,0.3,0.9,0.9
			c0.2-0.2,0.7-0.9,1.6-0.9c0.7,0,1.1,0.4,1.1,1.1c0,0.6-0.4,1.7-0.6,2.2c-0.1,0.2-0.2,0.5-0.2,0.7c0,0.2,0.1,0.3,0.2,0.3
			c0.5,0,0.8-0.6,1-1.2c0-0.1,0-0.2,0.1-0.2c0,0,0.1,0,0.1,0.1c0,0.1-0.4,1.5-1.3,1.5c-0.5,0-0.8-0.3-0.8-0.8c0-0.1,0-0.2,0.1-0.5
			c0.2-0.4,0.6-1.7,0.6-2.3c0-0.3-0.1-0.7-0.5-0.7c-0.9,0-1.5,0.9-1.6,1.2c0,0-0.1,0.3-0.1,0.5c0,0.2-0.1,0.4-0.2,0.7l-0.2,0.9
			c-0.1,0.2-0.2,0.7-0.2,0.7c-0.1,0.2-0.2,0.3-0.4,0.3c-0.1,0-0.3-0.1-0.3-0.3c0,0,0.1-0.3,0.1-0.4L110.9,141.8z"/>
	</g>
	<g>
		<path class="st0" d="M117,147.2h-1.4v-0.4h1v-9.2h-1v-0.4h1.4V147.2z"/>
	</g>
	<path class="st1" d="M29.9,135.1v-21.3 M29.9,124.4H8.6"/>
	<g>
		<path class="st0" d="M3,114.7c-0.1,0.4-0.2,0.7-0.2,0.9c0,0.3,0.2,0.7,0.5,0.7c0.3,0,1-0.2,1.3-1.3c0-0.1,0-0.1,0.1-0.1
			c0,0,0.1,0,0.1,0.1c0,0.2-0.6,1.5-1.6,1.5c-0.6,0-1-0.4-1.1-0.8c0,0.1-0.4,0.8-1,0.8c-0.4,0-0.9-0.2-0.9-0.7
			c0-0.3,0.2-0.6,0.5-0.6c0.1,0,0.4,0.1,0.4,0.3c0,0.3-0.2,0.5-0.5,0.5c0.2,0.1,0.4,0.1,0.5,0.1c0.4,0,0.8-0.4,0.9-1
			c0.4-1.4,0.5-2.1,0.5-2.4c0-0.6-0.3-0.7-0.5-0.7c-0.3,0-1,0.2-1.3,1.3c0,0.1-0.1,0.1-0.1,0.1c0,0-0.1,0-0.1-0.1
			c0-0.3,0.6-1.5,1.6-1.5c0.3,0,0.8,0.1,1.1,0.8c0.1-0.2,0.5-0.8,1-0.8c0.3,0,0.9,0.1,0.9,0.7c0,0.4-0.3,0.6-0.5,0.6
			c-0.3,0-0.4-0.2-0.4-0.3c0-0.2,0.2-0.5,0.5-0.5c-0.2-0.1-0.4-0.1-0.5-0.1c-0.7,0-0.9,0.9-1,1.2L3,114.7z"/>
	</g>
	<g>
		<path class="st0" d="M6.8,118.8v-10h1.4v0.4h-1v9.2h1v0.4H6.8z"/>
	</g>
	<g>
		<path class="st0" d="M9.9,113.4c0.1-0.5,0.2-0.6,0.2-0.8c0-0.3-0.1-0.5-0.3-0.5c-0.4,0-0.6,0.5-0.7,1.2c-0.1,0.2-0.1,0.2-0.2,0.2
			c0,0-0.1,0-0.1-0.1c0,0,0.1-0.6,0.3-1c0.1-0.2,0.3-0.6,0.7-0.6c0.5,0,0.9,0.3,0.9,0.9c0.2-0.2,0.7-0.9,1.6-0.9
			c0.7,0,1.1,0.4,1.1,1.1c0,0.6-0.4,1.7-0.6,2.2c-0.1,0.2-0.2,0.5-0.2,0.7c0,0.2,0.1,0.3,0.2,0.3c0.5,0,0.8-0.6,1-1.2
			c0-0.1,0-0.2,0.1-0.2c0,0,0.1,0,0.1,0.1c0,0.1-0.4,1.5-1.3,1.5c-0.5,0-0.8-0.3-0.8-0.8c0-0.1,0-0.2,0.1-0.5
			c0.2-0.4,0.6-1.7,0.6-2.3c0-0.3-0.1-0.7-0.5-0.7c-0.9,0-1.5,0.9-1.6,1.2c0,0-0.1,0.3-0.1,0.5c0,0.2-0.1,0.4-0.2,0.7l-0.2,0.9
			c-0.1,0.2-0.2,0.7-0.2,0.7c-0.1,0.2-0.2,0.3-0.4,0.3c-0.1,0-0.3-0.1-0.3-0.3c0,0,0.1-0.3,0.1-0.4L9.9,113.4z"/>
	</g>
	<g>
		<path class="st0" d="M16,118.8h-1.4v-0.4h1v-9.2h-1v-0.4H16V118.8z"/>
	</g>
	<g>
		<path class="st0" d="M76.4,122.7h-0.2c-0.2-1.3-0.4-1.9-1.8-1.9h-1c-0.5,0-0.5,0.1-0.5,0.4v5.3c0,0.3,0,0.5,0.9,0.5h0.3v0.3
			c-0.4,0-1.3,0-1.7,0c-0.4,0-1.2,0-1.5,0v-0.3h0.2c0.8,0,0.8-0.1,0.8-0.5v-5.2c0-0.4,0-0.5-0.8-0.5h-0.2v-0.3h5.2L76.4,122.7z"/>
	</g>
	<g>
		<path class="st0" d="M79.1,128.1c0,0.2,0,0.3,0.7,0.3h0.3v0.3c-0.2,0-1,0-1.2,0c-0.3,0-1.1,0-1.2,0v-0.3h0.3
			c0.7,0,0.7-0.1,0.7-0.3v-3.6c-0.4,0.2-0.8,0.2-1,0.2v-0.3c0.3,0,0.9,0,1.4-0.4c0.2,0,0.2,0,0.2,0.2V128.1z"/>
	</g>
	<polygon class="st1" points="122,124.4 122,99.6 157.5,99.6 157.5,149.2 122,149.2 	"/>
	<polyline points="181.3,116.1 185.8,113.8 181.3,111.5 182.4,113.8 	"/>
	<line class="st1" x1="157.5" y1="113.8" x2="182.4" y2="113.8"/>
	<polyline points="181.3,137.3 185.8,135.1 181.3,132.8 182.4,135.1 	"/>
	<line class="st1" x1="157.5" y1="135.1" x2="182.4" y2="135.1"/>
	<g>
		<path class="st0" d="M164.2,108.4c0,0.1-0.2,1.3-0.6,1.9c-0.2,0.4-0.6,1-1.1,1c-0.4,0-0.8-0.2-0.8-0.7c0-0.4,0.3-0.6,0.5-0.6
			c0.2,0,0.4,0.1,0.4,0.3c0,0.1-0.1,0.5-0.5,0.5c0.2,0.2,0.4,0.2,0.5,0.2c0.5,0,0.7-0.9,0.9-1.9l0.7-3.9h-0.7c-0.2,0-0.3,0-0.3-0.1
			c0-0.2,0.1-0.2,0.3-0.2h0.7c0.2-1.3,0.3-1.4,0.3-1.6c0.3-1,0.9-1.2,1.3-1.2c0.4,0,0.9,0.2,0.9,0.7c0,0.4-0.3,0.6-0.5,0.6
			c-0.2,0-0.4-0.1-0.4-0.3c0-0.1,0.1-0.5,0.5-0.5c-0.2-0.2-0.4-0.2-0.5-0.2c-0.2,0-0.4,0.1-0.5,0.3c-0.1,0.1-0.2,0.8-0.2,1l-0.2,1.1
			h0.8c0.2,0,0.3,0,0.3,0.1c0,0.2-0.1,0.2-0.3,0.2h-0.9L164.2,108.4z"/>
	</g>
	<g>
		<path class="st0" d="M169.4,110.7h-2.9c0-0.2,0-0.2,0.1-0.3l1.7-1.7c0.2-0.3,0.7-0.7,0.7-1.3c0-0.6-0.4-1.1-1.1-1.1
			c-0.3,0-0.8,0.2-1,0.6c0.4,0,0.4,0.2,0.4,0.4c0,0.3-0.2,0.4-0.4,0.4c-0.1,0-0.4,0-0.4-0.4c0-0.6,0.6-1.2,1.5-1.2
			c0.9,0,1.6,0.5,1.6,1.4c0,0.7-0.5,1.1-1,1.5c-0.4,0.3-0.7,0.5-1.4,1.2h1.3c0.1,0,0.6,0,0.7,0c0.1-0.1,0.2-0.5,0.2-0.6h0.2
			L169.4,110.7z"/>
	</g>
	<g>
		<path class="st0" d="M171.7,111.7v-10h1.4v0.4h-1v9.2h1v0.4H171.7z"/>
	</g>
	<g>
		<path class="st0" d="M174.8,106.4c0.1-0.5,0.2-0.6,0.2-0.8c0-0.3-0.1-0.5-0.3-0.5c-0.4,0-0.6,0.5-0.7,1.2
			c-0.1,0.2-0.1,0.2-0.2,0.2c0,0-0.1,0-0.1-0.1c0,0,0.1-0.6,0.3-1c0.1-0.2,0.3-0.6,0.7-0.6c0.5,0,0.9,0.3,0.9,0.9
			c0.2-0.2,0.7-0.9,1.6-0.9c0.7,0,1.1,0.4,1.1,1.1c0,0.6-0.4,1.7-0.6,2.2c-0.1,0.2-0.2,0.5-0.2,0.7c0,0.2,0.1,0.3,0.2,0.3
			c0.5,0,0.8-0.6,1-1.2c0-0.1,0-0.2,0.1-0.2c0,0,0.1,0,0.1,0.1c0,0.1-0.4,1.5-1.3,1.5c-0.5,0-0.8-0.3-0.8-0.8c0-0.1,0-0.2,0.1-0.5
			c0.2-0.4,0.6-1.7,0.6-2.3c0-0.3-0.1-0.7-0.5-0.7c-0.9,0-1.5,0.9-1.6,1.2c0,0-0.1,0.3-0.1,0.5c0,0.2-0.1,0.4-0.2,0.7l-0.2,0.9
			c-0.1,0.2-0.2,0.7-0.2,0.7c-0.1,0.2-0.2,0.3-0.4,0.3c-0.1,0-0.3-0.1-0.3-0.3c0,0,0.1-0.3,0.1-0.4L174.8,106.4z"/>
	</g>
	<g>
		<path class="st0" d="M180.9,111.7h-1.4v-0.4h1v-9.2h-1v-0.4h1.4V111.7z"/>
	</g>
	<g>
		<path class="st0" d="M164.8,145.3c-0.1,0.6-0.9,1.4-2.1,1.4c-1,0-1.3-0.2-1.3-0.6c0-0.4,0.3-0.6,0.5-0.6c0.3,0,0.4,0.2,0.4,0.3
			c0,0.2-0.1,0.4-0.4,0.5c0.3,0.1,0.6,0.1,0.8,0.1c1.1,0,1.4-1,1.4-1.1c0,0,0.1-0.4,0.3-1.3l0,0c-0.1,0.1-0.6,0.6-1.2,0.6
			c-0.7,0-1.3-0.6-1.3-1.6c0-1.4,1.2-2.8,2.4-2.8c0.4,0,0.7,0.3,0.9,0.6c0-0.4,0.3-0.4,0.4-0.4c0.2,0,0.3,0.1,0.3,0.3
			c0,0.1,0,0.1,0,0.2L164.8,145.3z M165.1,141.5c0,0,0-0.1,0-0.1s-0.1-0.9-0.8-0.9c-0.4,0-0.8,0.4-1.1,0.9c-0.3,0.5-0.6,1.7-0.6,2.2
			c0,0.4,0.1,0.9,0.6,0.9c0.3,0,0.6-0.2,0.8-0.4c0.2-0.2,0.4-0.4,0.5-0.7L165.1,141.5z"/>
	</g>
	<g>
		<path class="st0" d="M169.3,146.1h-2.9c0-0.2,0-0.2,0.1-0.3l1.7-1.7c0.2-0.3,0.7-0.7,0.7-1.3c0-0.6-0.4-1.1-1.1-1.1
			c-0.3,0-0.8,0.2-1,0.6c0.4,0,0.4,0.2,0.4,0.4c0,0.3-0.2,0.4-0.4,0.4c-0.1,0-0.4,0-0.4-0.4c0-0.6,0.6-1.2,1.5-1.2
			c0.9,0,1.6,0.5,1.6,1.4c0,0.7-0.5,1.1-1,1.5c-0.4,0.3-0.7,0.5-1.4,1.2h1.3c0.1,0,0.6,0,0.7,0c0.1-0.1,0.2-0.5,0.2-0.6h0.2
			L169.3,146.1z"/>
	</g>
	<g>
		<path class="st0" d="M171.6,147.2v-10h1.4v0.4h-1v9.2h1v0.4H171.6z"/>
	</g>
	<g>
		<path class="st0" d="M174.6,141.8c0.1-0.5,0.2-0.6,0.2-0.8c0-0.3-0.1-0.5-0.3-0.5c-0.4,0-0.6,0.5-0.7,1.2
			c-0.1,0.2-0.1,0.2-0.2,0.2c0,0-0.1,0-0.1-0.1c0,0,0.1-0.6,0.3-1c0.1-0.2,0.3-0.6,0.7-0.6c0.5,0,0.9,0.3,0.9,0.9
			c0.2-0.2,0.7-0.9,1.6-0.9c0.7,0,1.1,0.4,1.1,1.1c0,0.6-0.4,1.7-0.6,2.2c-0.1,0.2-0.2,0.5-0.2,0.7c0,0.2,0.1,0.3,0.2,0.3
			c0.5,0,0.8-0.6,1-1.2c0-0.1,0-0.2,0.1-0.2c0,0,0.1,0,0.1,0.1c0,0.1-0.4,1.5-1.3,1.5c-0.5,0-0.8-0.3-0.8-0.8c0-0.1,0-0.2,0.1-0.5
			c0.2-0.4,0.6-1.7,0.6-2.3c0-0.3-0.1-0.7-0.5-0.7c-0.9,0-1.5,0.9-1.6,1.2c0,0-0.1,0.3-0.1,0.5c0,0.2-0.1,0.4-0.2,0.7l-0.2,0.9
			c-0.1,0.2-0.2,0.7-0.2,0.7c-0.1,0.2-0.2,0.3-0.4,0.3c-0.1,0-0.3-0.1-0.3-0.3c0,0,0.1-0.3,0.1-0.4L174.6,141.8z"/>
	</g>
	<g>
		<path class="st0" d="M180.8,147.2h-1.4v-0.4h1v-9.2h-1v-0.4h1.4V147.2z"/>
	</g>
	<g>
		<path class="st0" d="M140.1,122.7h-0.2c-0.2-1.3-0.4-1.9-1.8-1.9h-1c-0.5,0-0.5,0.1-0.5,0.4v5.3c0,0.3,0,0.5,0.9,0.5h0.3v0.3
			c-0.4,0-1.3,0-1.7,0c-0.4,0-1.2,0-1.5,0v-0.3h0.2c0.8,0,0.8-0.1,0.8-0.5v-5.2c0-0.4,0-0.5-0.8-0.5h-0.2v-0.3h5.2L140.1,122.7z"/>
	</g>
	<g>
		<path class="st0" d="M143.9,128.6H141c0-0.2,0-0.2,0.1-0.3l1.7-1.7c0.2-0.3,0.7-0.7,0.7-1.3c0-0.6-0.4-1.1-1.1-1.1
			c-0.3,0-0.8,0.2-1,0.6c0.4,0,0.4,0.2,0.4,0.4c0,0.3-0.2,0.4-0.4,0.4c-0.1,0-0.4,0-0.4-0.4c0-0.6,0.6-1.2,1.5-1.2
			c0.9,0,1.6,0.5,1.6,1.4c0,0.7-0.5,1.1-1,1.5c-0.4,0.3-0.7,0.5-1.4,1.2h1.3c0.1,0,0.6,0,0.7,0c0.1-0.1,0.2-0.5,0.2-0.6h0.2
			L143.9,128.6z"/>
	</g>
	<polygon class="st1" points="299.2,124.4 299.2,99.6 334.6,99.6 334.6,149.2 299.2,149.2 	"/>
	<polyline points="294.7,116.1 299.2,113.8 294.7,111.5 295.8,113.8 	"/>
	<line class="st1" x1="270.8" y1="113.8" x2="295.8" y2="113.8"/>
	<polyline points="294.7,137.3 299.2,135.1 294.7,132.8 295.8,135.1 	"/>
	<line class="st1" x1="270.8" y1="135.1" x2="295.8" y2="135.1"/>
	<g>
		<path class="st0" d="M268.9,108.3c0,0.1-0.2,1.3-0.6,1.9c-0.2,0.4-0.6,1-1.1,1c-0.4,0-0.8-0.2-0.8-0.7c0-0.4,0.3-0.6,0.5-0.6
			c0.2,0,0.4,0.1,0.4,0.3c0,0.1-0.1,0.5-0.5,0.5c0.2,0.2,0.4,0.2,0.5,0.2c0.5,0,0.7-0.9,0.9-1.9l0.7-3.9h-0.7c-0.2,0-0.3,0-0.3-0.1
			c0-0.2,0.1-0.2,0.3-0.2h0.7c0.2-1.3,0.3-1.4,0.3-1.6c0.3-1,0.9-1.2,1.3-1.2c0.4,0,0.9,0.2,0.9,0.7c0,0.4-0.3,0.6-0.5,0.6
			c-0.2,0-0.4-0.1-0.4-0.3c0-0.1,0.1-0.5,0.5-0.5c-0.2-0.2-0.4-0.2-0.5-0.2c-0.2,0-0.4,0.1-0.5,0.3c-0.1,0.1-0.2,0.8-0.2,1l-0.2,1.1
			h0.8c0.2,0,0.3,0,0.3,0.1c0,0.2-0.1,0.2-0.3,0.2h-0.9L268.9,108.3z"/>
	</g>
	<g>
		<path class="st0" d="M272.1,108.2c0,0,0-0.1,0-0.2c0-0.2,0-0.3-0.2-0.3c-0.3,0-0.4,0.3-0.5,0.8c0,0.2-0.1,0.2-0.2,0.2
			c0,0-0.1,0-0.1-0.1c0,0,0.1-0.5,0.3-0.7c0.1-0.2,0.3-0.4,0.6-0.4c0.2,0,0.6,0.1,0.7,0.5c0.2-0.2,0.6-0.5,1-0.5c0.5,0,1,0.3,1,1.2
			c0,1-0.9,2-1.8,2c-0.4,0-0.6-0.3-0.7-0.4c-0.1,0.3-0.2,0.7-0.3,1c0,0.1-0.1,0.3-0.1,0.3c0,0.1,0.2,0.1,0.3,0.1
			c0.1,0,0.2,0,0.2,0.1c0,0.1-0.1,0.2-0.1,0.2c-0.2,0-0.5,0-0.7,0c-0.2,0-0.4,0-0.6,0c0,0-0.1,0-0.1-0.1c0-0.1,0.1-0.1,0.2-0.1
			c0.3,0,0.3-0.1,0.3-0.3L272.1,108.2z M272.3,109.7c0,0,0,0.1,0,0.1c0,0.1,0.1,0.6,0.6,0.6c0.4,0,0.7-0.3,0.9-0.7
			c0.2-0.4,0.4-1.1,0.4-1.4c0-0.5-0.2-0.7-0.5-0.7c-0.2,0-0.6,0.1-1,0.6L272.3,109.7z"/>
	</g>
	<g>
		<path class="st0" d="M275.9,109c-0.1,0-0.3,0-0.3-0.2c0-0.2,0.2-0.2,0.3-0.2h4.2c0.1,0,0.3,0,0.3,0.2c0,0.2-0.2,0.2-0.3,0.2H275.9
			z"/>
	</g>
	<g>
		<path class="st0" d="M283.4,110c0,0.2,0,0.3,0.7,0.3h0.3v0.3c-0.2,0-1,0-1.2,0c-0.3,0-1.1,0-1.2,0v-0.3h0.3c0.7,0,0.7-0.1,0.7-0.3
			v-3.6c-0.4,0.2-0.8,0.2-1,0.2v-0.3c0.3,0,0.9,0,1.4-0.4c0.2,0,0.2,0,0.2,0.2V110z"/>
	</g>
	<g>
		<path class="st0" d="M286.7,111.6v-10h1.4v0.4h-1v9.2h1v0.4H286.7z"/>
	</g>
	<g>
		<path class="st0" d="M289.8,106.2c0.1-0.5,0.2-0.6,0.2-0.8c0-0.3-0.1-0.5-0.3-0.5c-0.4,0-0.6,0.5-0.7,1.2
			c-0.1,0.2-0.1,0.2-0.2,0.2c0,0-0.1,0-0.1-0.1c0,0,0.1-0.6,0.3-1c0.1-0.2,0.3-0.6,0.7-0.6c0.5,0,0.9,0.3,0.9,0.9
			c0.2-0.2,0.7-0.9,1.6-0.9c0.7,0,1.1,0.4,1.1,1.1c0,0.6-0.4,1.7-0.6,2.2c-0.1,0.2-0.2,0.5-0.2,0.7c0,0.2,0.1,0.3,0.2,0.3
			c0.5,0,0.8-0.6,1-1.2c0.1-0.1,0.1-0.2,0.2-0.2c0,0,0.1,0,0.1,0.1c0,0.1-0.4,1.5-1.3,1.5c-0.5,0-0.8-0.3-0.8-0.8
			c0-0.1,0-0.2,0.1-0.5c0.2-0.4,0.6-1.7,0.6-2.3c0-0.3-0.1-0.7-0.5-0.7c-0.9,0-1.5,0.9-1.6,1.2c0,0-0.1,0.3-0.1,0.5
			c0,0.2-0.1,0.4-0.2,0.7l-0.2,0.9c-0.1,0.2-0.2,0.7-0.2,0.7c-0.1,0.2-0.2,0.3-0.4,0.3c-0.1,0-0.3-0.1-0.3-0.3c0,0,0.1-0.3,0.1-0.4
			L289.8,106.2z"/>
	</g>
	<g>
		<path class="st0" d="M295.9,111.6h-1.4v-0.4h1V102h-1v-0.4h1.4V111.6z"/>
	</g>
	<g>
		<path class="st0" d="M269.5,145.2c-0.1,0.6-0.9,1.4-2.1,1.4c-1,0-1.3-0.2-1.3-0.6c0-0.4,0.3-0.6,0.5-0.6c0.3,0,0.4,0.2,0.4,0.3
			c0,0.2-0.1,0.4-0.4,0.5c0.3,0.1,0.6,0.1,0.8,0.1c1.1,0,1.4-1,1.4-1.1c0,0,0.1-0.4,0.3-1.3l0,0c-0.1,0.1-0.6,0.6-1.2,0.6
			c-0.7,0-1.3-0.6-1.3-1.6c0-1.4,1.2-2.8,2.4-2.8c0.4,0,0.7,0.3,0.9,0.6c0-0.4,0.3-0.4,0.4-0.4c0.2,0,0.3,0.1,0.3,0.3
			c0,0.1,0,0.1,0,0.2L269.5,145.2z M269.8,141.4c0,0,0-0.1,0-0.1s-0.1-0.9-0.8-0.9c-0.4,0-0.8,0.4-1.1,0.9c-0.3,0.5-0.6,1.7-0.6,2.2
			c0,0.4,0.1,0.9,0.6,0.9c0.3,0,0.6-0.2,0.8-0.4c0.2-0.2,0.4-0.4,0.5-0.7L269.8,141.4z"/>
	</g>
	<g>
		<path class="st0" d="M272,143.7c0,0,0-0.1,0-0.2c0-0.2,0-0.3-0.2-0.3c-0.3,0-0.4,0.3-0.5,0.8c0,0.2-0.1,0.2-0.2,0.2
			c0,0-0.1,0-0.1-0.1c0,0,0.1-0.5,0.3-0.7c0.1-0.2,0.3-0.4,0.6-0.4c0.2,0,0.6,0.1,0.7,0.5c0.2-0.2,0.6-0.5,1-0.5c0.5,0,1,0.3,1,1.2
			c0,1-0.9,2-1.8,2c-0.4,0-0.6-0.3-0.7-0.4c-0.1,0.3-0.2,0.7-0.3,1c0,0.1-0.1,0.3-0.1,0.3c0,0.1,0.2,0.1,0.3,0.1
			c0.1,0,0.2,0,0.2,0.1c0,0.1-0.1,0.2-0.1,0.2c-0.2,0-0.5,0-0.7,0c-0.2,0-0.4,0-0.6,0c0,0-0.1,0-0.1-0.1c0-0.1,0.1-0.1,0.2-0.1
			c0.3,0,0.3-0.1,0.3-0.3L272,143.7z M272.2,145.2c0,0,0,0.1,0,0.1c0,0.1,0.1,0.6,0.6,0.6c0.4,0,0.7-0.3,0.9-0.7
			c0.2-0.4,0.4-1.1,0.4-1.4c0-0.5-0.2-0.7-0.5-0.7c-0.2,0-0.6,0.1-1,0.6L272.2,145.2z"/>
	</g>
	<g>
		<path class="st0" d="M275.8,144.4c-0.1,0-0.3,0-0.3-0.2c0-0.2,0.2-0.2,0.3-0.2h4.2c0.1,0,0.3,0,0.3,0.2c0,0.2-0.2,0.2-0.3,0.2
			H275.8z"/>
	</g>
	<g>
		<path class="st0" d="M283.3,145.4c0,0.2,0,0.3,0.7,0.3h0.3v0.3c-0.2,0-1,0-1.2,0c-0.3,0-1.1,0-1.2,0v-0.3h0.3
			c0.7,0,0.7-0.1,0.7-0.3v-3.6c-0.4,0.2-0.8,0.2-1,0.2v-0.3c0.3,0,0.9,0,1.4-0.4c0.2,0,0.2,0,0.2,0.2V145.4z"/>
	</g>
	<g>
		<path class="st0" d="M286.6,147.1v-10h1.4v0.4h-1v9.2h1v0.4H286.6z"/>
	</g>
	<g>
		<path class="st0" d="M289.6,141.7c0.1-0.5,0.2-0.6,0.2-0.8c0-0.3-0.1-0.5-0.3-0.5c-0.4,0-0.6,0.5-0.7,1.2
			c-0.1,0.2-0.1,0.2-0.2,0.2c0,0-0.1,0-0.1-0.1c0,0,0.1-0.6,0.3-1c0.1-0.2,0.3-0.6,0.7-0.6c0.5,0,0.9,0.3,0.9,0.9
			c0.2-0.2,0.7-0.9,1.6-0.9c0.7,0,1.1,0.4,1.1,1.1c0,0.6-0.4,1.7-0.6,2.2c-0.1,0.2-0.2,0.5-0.2,0.7c0,0.2,0.1,0.3,0.2,0.3
			c0.5,0,0.8-0.6,1-1.2c0.1-0.1,0.1-0.2,0.2-0.2c0,0,0.1,0,0.1,0.1c0,0.1-0.4,1.5-1.3,1.5c-0.5,0-0.8-0.3-0.8-0.8
			c0-0.1,0-0.2,0.1-0.5c0.2-0.4,0.6-1.7,0.6-2.3c0-0.3-0.1-0.7-0.5-0.7c-0.9,0-1.5,0.9-1.6,1.2c0,0-0.1,0.3-0.1,0.5
			c0,0.2-0.1,0.4-0.2,0.7l-0.2,0.9c-0.1,0.2-0.2,0.7-0.2,0.7c-0.1,0.2-0.2,0.3-0.4,0.3c-0.1,0-0.3-0.1-0.3-0.3c0,0,0.1-0.3,0.1-0.4
			L289.6,141.7z"/>
	</g>
	<g>
		<path class="st0" d="M295.8,147.1h-1.4v-0.4h1v-9.2h-1v-0.4h1.4V147.1z"/>
	</g>
	<polyline points="358.4,116.1 363,113.8 358.4,111.5 359.6,113.8 	"/>
	<line class="st1" x1="334.6" y1="113.8" x2="359.6" y2="113.8"/>
	<polyline points="358.4,137.3 363,135.1 358.4,132.8 359.6,135.1 	"/>
	<line class="st1" x1="334.6" y1="135.1" x2="359.6" y2="135.1"/>
	<g>
		<path class="st0" d="M344.8,108.3c0,0.1-0.2,1.3-0.6,1.9c-0.2,0.4-0.6,1-1.1,1c-0.4,0-0.8-0.2-0.8-0.7c0-0.4,0.3-0.6,0.5-0.6
			c0.2,0,0.4,0.1,0.4,0.3c0,0.1-0.1,0.5-0.5,0.5c0.2,0.2,0.4,0.2,0.5,0.2c0.5,0,0.7-0.9,0.9-1.9l0.7-3.9h-0.7c-0.2,0-0.3,0-0.3-0.1
			c0-0.2,0.1-0.2,0.3-0.2h0.7c0.2-1.3,0.3-1.4,0.3-1.6c0.3-1,0.9-1.2,1.3-1.2c0.4,0,0.9,0.2,0.9,0.7c0,0.4-0.3,0.6-0.5,0.6
			c-0.2,0-0.4-0.1-0.4-0.3c0-0.1,0.1-0.5,0.5-0.5c-0.2-0.2-0.4-0.2-0.5-0.2c-0.2,0-0.4,0.1-0.5,0.3c-0.1,0.1-0.2,0.8-0.2,1l-0.2,1.1
			h0.8c0.2,0,0.3,0,0.3,0.1c0,0.2-0.1,0.2-0.3,0.2h-0.9L344.8,108.3z"/>
	</g>
	<g>
		<path class="st0" d="M348,108.2c0,0,0-0.1,0-0.2c0-0.2,0-0.3-0.2-0.3c-0.3,0-0.4,0.3-0.5,0.8c0,0.2-0.1,0.2-0.2,0.2
			c0,0-0.1,0-0.1-0.1c0,0,0.1-0.5,0.3-0.7c0.1-0.2,0.3-0.4,0.6-0.4c0.2,0,0.6,0.1,0.7,0.5c0.2-0.2,0.6-0.5,1-0.5c0.5,0,1,0.3,1,1.2
			c0,1-0.9,2-1.8,2c-0.4,0-0.6-0.3-0.7-0.4c-0.1,0.3-0.2,0.7-0.3,1c0,0.1-0.1,0.3-0.1,0.3c0,0.1,0.2,0.1,0.3,0.1
			c0.1,0,0.2,0,0.2,0.1c0,0.1-0.1,0.2-0.1,0.2c-0.2,0-0.5,0-0.7,0c-0.2,0-0.4,0-0.6,0c0,0-0.1,0-0.1-0.1c0-0.1,0.1-0.1,0.2-0.1
			c0.3,0,0.3-0.1,0.3-0.3L348,108.2z M348.2,109.7c0,0,0,0.1,0,0.1c0,0.1,0.1,0.6,0.6,0.6c0.4,0,0.7-0.3,0.9-0.7
			c0.2-0.4,0.4-1.1,0.4-1.4c0-0.5-0.2-0.7-0.5-0.7c-0.2,0-0.6,0.1-1,0.6L348.2,109.7z"/>
	</g>
	<g>
		<path class="st0" d="M352.4,111.6v-10h1.4v0.4h-1v9.2h1v0.4H352.4z"/>
	</g>
	<g>
		<path class="st0" d="M355.5,106.2c0.1-0.5,0.2-0.6,0.2-0.8c0-0.3-0.1-0.5-0.3-0.5c-0.4,0-0.6,0.5-0.7,1.2
			c-0.1,0.2-0.1,0.2-0.2,0.2c0,0-0.1,0-0.1-0.1c0,0,0.1-0.6,0.3-1c0.1-0.2,0.3-0.6,0.7-0.6c0.5,0,0.9,0.3,0.9,0.9
			c0.2-0.2,0.7-0.9,1.6-0.9c0.7,0,1.1,0.4,1.1,1.1c0,0.6-0.4,1.7-0.6,2.2c-0.1,0.2-0.2,0.5-0.2,0.7c0,0.2,0.1,0.3,0.2,0.3
			c0.5,0,0.8-0.6,1-1.2c0.1-0.1,0.1-0.2,0.2-0.2c0,0,0.1,0,0.1,0.1c0,0.1-0.4,1.5-1.3,1.5c-0.5,0-0.8-0.3-0.8-0.8
			c0-0.1,0-0.2,0.1-0.5c0.2-0.4,0.6-1.7,0.6-2.3c0-0.3-0.1-0.7-0.5-0.7c-0.9,0-1.5,0.9-1.6,1.2c0,0-0.1,0.3-0.1,0.5
			c0,0.2-0.1,0.4-0.2,0.7l-0.2,0.9c-0.1,0.2-0.2,0.7-0.2,0.7c-0.1,0.2-0.2,0.3-0.4,0.3c-0.1,0-0.3-0.1-0.3-0.3c0,0,0.1-0.3,0.1-0.4
			L355.5,106.2z"/>
	</g>
	<g>
		<path class="st0" d="M361.6,111.6h-1.4v-0.4h1V102h-1v-0.4h1.4V111.6z"/>
	</g>
	<g>
		<path class="st0" d="M345.5,145.2c-0.1,0.6-0.9,1.4-2.1,1.4c-1,0-1.3-0.2-1.3-0.6c0-0.4,0.3-0.6,0.5-0.6c0.3,0,0.4,0.2,0.4,0.3
			c0,0.2-0.1,0.4-0.4,0.5c0.3,0.1,0.6,0.1,0.8,0.1c1.1,0,1.4-1,1.4-1.1c0,0,0.1-0.4,0.3-1.3l0,0c-0.1,0.1-0.6,0.6-1.2,0.6
			c-0.7,0-1.3-0.6-1.3-1.6c0-1.4,1.2-2.8,2.4-2.8c0.4,0,0.7,0.3,0.9,0.6c0-0.4,0.3-0.4,0.4-0.4c0.2,0,0.3,0.1,0.3,0.3
			c0,0.1,0,0.1,0,0.2L345.5,145.2z M345.8,141.4c0,0,0-0.1,0-0.1s-0.1-0.9-0.8-0.9c-0.4,0-0.8,0.4-1.1,0.9c-0.3,0.5-0.6,1.7-0.6,2.2
			c0,0.4,0.1,0.9,0.6,0.9c0.3,0,0.6-0.2,0.8-0.4c0.2-0.2,0.4-0.4,0.5-0.7L345.8,141.4z"/>
	</g>
	<g>
		<path class="st0" d="M348,143.7c0,0,0-0.1,0-0.2c0-0.2,0-0.3-0.2-0.3c-0.3,0-0.4,0.3-0.5,0.8c0,0.2-0.1,0.2-0.2,0.2
			c0,0-0.1,0-0.1-0.1c0,0,0.1-0.5,0.3-0.7c0.1-0.2,0.3-0.4,0.6-0.4c0.2,0,0.6,0.1,0.7,0.5c0.2-0.2,0.6-0.5,1-0.5c0.5,0,1,0.3,1,1.2
			c0,1-0.9,2-1.8,2c-0.4,0-0.6-0.3-0.7-0.4c-0.1,0.3-0.2,0.7-0.3,1c0,0.1-0.1,0.3-0.1,0.3c0,0.1,0.2,0.1,0.3,0.1
			c0.1,0,0.2,0,0.2,0.1c0,0.1-0.1,0.2-0.1,0.2c-0.2,0-0.5,0-0.7,0c-0.2,0-0.4,0-0.6,0c0,0-0.1,0-0.1-0.1c0-0.1,0.1-0.1,0.2-0.1
			c0.3,0,0.3-0.1,0.3-0.3L348,143.7z M348.2,145.2c0,0,0,0.1,0,0.1c0,0.1,0.1,0.6,0.6,0.6c0.4,0,0.7-0.3,0.9-0.7
			c0.2-0.4,0.4-1.1,0.4-1.4c0-0.5-0.2-0.7-0.5-0.7c-0.2,0-0.6,0.1-1,0.6L348.2,145.2z"/>
	</g>
	<g>
		<path class="st0" d="M352.4,147.1v-10h1.4v0.4h-1v9.2h1v0.4H352.4z"/>
	</g>
	<g>
		<path class="st0" d="M355.5,141.7c0.1-0.5,0.2-0.6,0.2-0.8c0-0.3-0.1-0.5-0.3-0.5c-0.4,0-0.6,0.5-0.7,1.2
			c-0.1,0.2-0.1,0.2-0.2,0.2c0,0-0.1,0-0.1-0.1c0,0,0.1-0.6,0.3-1c0.1-0.2,0.3-0.6,0.7-0.6c0.5,0,0.9,0.3,0.9,0.9
			c0.2-0.2,0.7-0.9,1.6-0.9c0.7,0,1.1,0.4,1.1,1.1c0,0.6-0.4,1.7-0.6,2.2c-0.1,0.2-0.2,0.5-0.2,0.7c0,0.2,0.1,0.3,0.2,0.3
			c0.5,0,0.8-0.6,1-1.2c0.1-0.1,0.1-0.2,0.2-0.2c0,0,0.1,0,0.1,0.1c0,0.1-0.4,1.5-1.3,1.5c-0.5,0-0.8-0.3-0.8-0.8
			c0-0.1,0-0.2,0.1-0.5c0.2-0.4,0.6-1.7,0.6-2.3c0-0.3-0.1-0.7-0.5-0.7c-0.9,0-1.5,0.9-1.6,1.2c0,0-0.1,0.3-0.1,0.5
			c0,0.2-0.1,0.4-0.2,0.7l-0.2,0.9c-0.1,0.2-0.2,0.7-0.2,0.7c-0.1,0.2-0.2,0.3-0.4,0.3c-0.1,0-0.3-0.1-0.3-0.3c0,0,0.1-0.3,0.1-0.4
			L355.5,141.7z"/>
	</g>
	<g>
		<path class="st0" d="M361.6,147.1h-1.4v-0.4h1v-9.2h-1v-0.4h1.4V147.1z"/>
	</g>
	<g>
		<path class="st0" d="M317.3,121.9H317c-0.2-1.3-0.4-1.9-1.8-1.9h-1c-0.5,0-0.5,0.1-0.5,0.4v5.3c0,0.3,0,0.5,0.9,0.5h0.3v0.3
			c-0.4,0-1.3,0-1.7,0c-0.4,0-1.2,0-1.5,0v-0.3h0.2c0.8,0,0.8-0.1,0.8-0.5v-5.2c0-0.4,0-0.5-0.8-0.5h-0.2v-0.3h5.2L317.3,121.9z"/>
	</g>
	<g>
		<path class="st0" d="M319.1,125.6c0,0,0-0.1,0-0.2c0-0.2,0-0.3-0.2-0.3c-0.3,0-0.4,0.3-0.5,0.8c0,0.2-0.1,0.2-0.2,0.2
			c0,0-0.1,0-0.1-0.1c0,0,0.1-0.5,0.3-0.7c0.1-0.2,0.3-0.4,0.6-0.4c0.2,0,0.6,0.1,0.7,0.5c0.2-0.2,0.6-0.5,1-0.5c0.5,0,1,0.3,1,1.2
			c0,1-0.9,2-1.8,2c-0.4,0-0.6-0.3-0.7-0.4c-0.1,0.3-0.2,0.7-0.3,1c0,0.1-0.1,0.3-0.1,0.3c0,0.1,0.2,0.1,0.3,0.1
			c0.1,0,0.2,0,0.2,0.1c0,0.1-0.1,0.2-0.1,0.2c-0.2,0-0.5,0-0.7,0c-0.2,0-0.4,0-0.6,0c0,0-0.1,0-0.1-0.1c0-0.1,0.1-0.1,0.2-0.1
			c0.3,0,0.3-0.1,0.3-0.3L319.1,125.6z M319.2,127.1c0,0,0,0.1,0,0.1c0,0.1,0.1,0.6,0.6,0.6c0.4,0,0.7-0.3,0.9-0.7
			c0.2-0.4,0.4-1.1,0.4-1.4c0-0.5-0.2-0.7-0.5-0.7c-0.2,0-0.6,0.1-1,0.6L319.2,127.1z"/>
	</g>
	<path class="st3" d="M192.9,113.8h70.9 M192.9,135.1h70.9"/>
</g>
</svg>
