<?xml version="1.0" encoding="utf-8"?>
<!-- Generator: Adobe Illustrator 22.1.0, SVG Export Plug-In . SVG Version: 6.00 Build 0)  -->
<svg version="1.1" id="Layer_1" xmlns="http://www.w3.org/2000/svg" xmlns:xlink="http://www.w3.org/1999/xlink" x="0px" y="0px"
	 viewBox="0 0 343.3 303.8" style="enable-background:new 0 0 343.3 303.8;" xml:space="preserve">
<style type="text/css">
	.st0{fill:none;stroke:#DFDFDF;stroke-width:0.4998;stroke-linejoin:round;stroke-miterlimit:10;}
	.st1{fill:none;stroke:#262626;stroke-width:0.4998;stroke-linecap:square;stroke-linejoin:round;stroke-miterlimit:10;}
	.st2{fill:#4A4A49;}
	.st3{fill:#262626;}
	.st4{fill:#1D1D1B;}
	.st5{fill:none;stroke:#000000;stroke-width:3;stroke-linejoin:round;stroke-miterlimit:10;}
	.st6{fill:none;stroke:#FF0000;stroke-width:3;stroke-linejoin:round;stroke-miterlimit:10;}
</style>
<g>
	<path class="st0" d="M15.4,272V15.2 M50.5,272V15.2 M85.6,272V15.2 M120.7,272V15.2 M155.8,272V15.2 M155.8,272H15.4 M155.8,239.9
		H15.4 M155.8,207.8H15.4 M155.8,175.7H15.4 M155.8,143.6H15.4 M155.8,111.5H15.4 M155.8,79.4H15.4 M155.8,47.3H15.4 M155.8,15.2
		H15.4"/>
	<path class="st1" d="M15.4,272h140.4 M15.4,15.2h140.4 M15.4,272v-2.6 M50.5,272v-2.6 M85.6,272v-2.6 M120.7,272v-2.6 M155.8,272
		v-2.6 M15.4,15.2v2.6 M50.5,15.2v2.6 M85.6,15.2v2.6 M120.7,15.2v2.6 M155.8,15.2v2.6"/>
	<g>
		<path class="st2" d="M11.6,281.7h2.2v0.8h-2.2V281.7z"/>
	</g>
	<path class="st3" d="M15.1,284.5c0,0,0-0.1,0-0.1c0.2-0.4,0.3-0.7,0.5-1c0.1-0.3,0.3-0.7,0.4-1c0.1-0.3,0.2-0.7,0.3-1h-0.6
		c-0.2,0-0.4,0.1-0.6,0.2c-0.2,0.1-0.3,0.3-0.5,0.5c0,0,0,0-0.1,0h-0.1c-0.1,0-0.1,0-0.1-0.1c0,0,0,0,0-0.1c0.2-0.3,0.4-0.6,0.6-0.8
		c0.2-0.2,0.5-0.3,0.8-0.3h3.3c0.1,0,0.1,0,0.2,0.1c0,0,0.1,0.1,0.1,0.2c0,0.1,0,0.2-0.1,0.2c-0.1,0.1-0.1,0.1-0.2,0.1h-1.1
		c-0.1,0.5-0.2,0.9-0.2,1.4c0,0.6,0.1,1.1,0.3,1.6c0,0,0,0.1,0,0.1c0,0.1,0,0.1-0.1,0.2c0,0.1-0.1,0.1-0.2,0.1
		c-0.1,0-0.1,0.1-0.2,0.1c-0.2,0-0.3-0.1-0.3-0.4c-0.1-0.3-0.1-0.5-0.1-0.8c0-0.3,0-0.7,0.1-1c0.1-0.3,0.2-0.8,0.3-1.3h-1
		c-0.5,1.9-0.8,3-0.9,3.2c-0.1,0.2-0.2,0.2-0.3,0.2c-0.1,0-0.1,0-0.2-0.1C15.1,284.6,15.1,284.5,15.1,284.5L15.1,284.5z"/>
	<g>
		<path class="st2" d="M42.8,281.7H45v0.8h-2.2V281.7z"/>
	</g>
	<path class="st3" d="M46.3,284.5c0,0,0-0.1,0-0.1c0.2-0.4,0.3-0.7,0.5-1c0.1-0.3,0.3-0.7,0.4-1c0.1-0.3,0.2-0.7,0.3-1h-0.6
		c-0.2,0-0.4,0.1-0.6,0.2c-0.2,0.1-0.3,0.3-0.5,0.5c0,0,0,0-0.1,0h-0.1c-0.1,0-0.1,0-0.1-0.1c0,0,0,0,0-0.1c0.2-0.3,0.4-0.6,0.6-0.8
		c0.2-0.2,0.5-0.3,0.8-0.3h3.3c0.1,0,0.1,0,0.2,0.1c0,0,0.1,0.1,0.1,0.2c0,0.1,0,0.2-0.1,0.2c-0.1,0.1-0.1,0.1-0.2,0.1H49
		c-0.1,0.5-0.2,0.9-0.2,1.4c0,0.6,0.1,1.1,0.3,1.6c0,0,0,0.1,0,0.1c0,0.1,0,0.1-0.1,0.2c0,0.1-0.1,0.1-0.2,0.1
		c-0.1,0-0.1,0.1-0.2,0.1c-0.2,0-0.3-0.1-0.3-0.4c-0.1-0.3-0.1-0.5-0.1-0.8c0-0.3,0-0.7,0.1-1c0.1-0.3,0.2-0.8,0.3-1.3h-1
		c-0.5,1.9-0.8,3-0.9,3.2c-0.1,0.2-0.2,0.2-0.3,0.2c-0.1,0-0.1,0-0.2-0.1C46.3,284.6,46.3,284.5,46.3,284.5L46.3,284.5z"/>
	<g>
		<path class="st2" d="M53.5,278l-2.2,6.8h-0.6l2.2-6.8H53.5z"/>
		<path class="st2" d="M57.9,280.2c0,0.5-0.1,0.8-0.4,1.1c-0.2,0.3-0.7,0.6-1.3,1c-0.7,0.4-1.2,0.8-1.5,1.1
			c-0.1,0.1-0.2,0.3-0.3,0.5h3.4v0.8h-4.3v0c0-0.7,0.2-1.2,0.5-1.6c0.3-0.4,1-0.9,1.9-1.4c0.4-0.2,0.7-0.5,0.9-0.7
			c0.2-0.2,0.2-0.5,0.2-0.8c0-0.3-0.1-0.6-0.4-0.8c-0.2-0.2-0.5-0.3-0.9-0.3c-0.4,0-0.7,0.1-0.9,0.4c-0.2,0.3-0.3,0.7-0.4,1.1h-0.8
			c0-0.7,0.2-1.2,0.6-1.6c0.4-0.4,0.9-0.6,1.6-0.6c0.6,0,1.1,0.2,1.4,0.5C57.7,279.2,57.9,279.6,57.9,280.2z"/>
	</g>
	<g>
		<path class="st2" d="M83.8,283.7c-0.4-0.6-0.6-1.4-0.6-2.4s0.2-1.8,0.6-2.4c0.4-0.6,0.9-0.8,1.6-0.8c0.7,0,1.2,0.3,1.6,0.8
			c0.4,0.6,0.6,1.4,0.6,2.4s-0.2,1.8-0.6,2.4s-0.9,0.8-1.6,0.8C84.7,284.6,84.2,284.3,83.8,283.7z M86.4,283.2
			c0.2-0.4,0.3-1.1,0.3-1.9c0-0.8-0.1-1.5-0.3-1.9c-0.2-0.4-0.6-0.6-1-0.6c-0.4,0-0.8,0.2-1,0.6c-0.2,0.4-0.3,1.1-0.3,1.9
			c0,0.8,0.1,1.5,0.3,1.9s0.6,0.6,1,0.6C85.8,283.9,86.2,283.7,86.4,283.2z"/>
	</g>
	<path class="st3" d="M115.3,284.5c0,0,0-0.1,0-0.1c0.2-0.4,0.3-0.7,0.5-1c0.1-0.3,0.3-0.7,0.4-1c0.1-0.3,0.2-0.7,0.3-1h-0.6
		c-0.2,0-0.4,0.1-0.6,0.2c-0.2,0.1-0.3,0.3-0.5,0.5c0,0,0,0-0.1,0h-0.1c-0.1,0-0.1,0-0.1-0.1c0,0,0,0,0-0.1c0.2-0.3,0.4-0.6,0.6-0.8
		c0.2-0.2,0.5-0.3,0.8-0.3h3.3c0.1,0,0.1,0,0.2,0.1c0,0,0.1,0.1,0.1,0.2c0,0.1,0,0.2-0.1,0.2c-0.1,0.1-0.1,0.1-0.2,0.1H118
		c-0.1,0.5-0.2,0.9-0.2,1.4c0,0.6,0.1,1.1,0.3,1.6c0,0,0,0.1,0,0.1c0,0.1,0,0.1-0.1,0.2c0,0.1-0.1,0.1-0.1,0.1
		c-0.1,0-0.1,0.1-0.2,0.1c-0.2,0-0.3-0.1-0.3-0.4c-0.1-0.3-0.1-0.5-0.1-0.8c0-0.3,0-0.7,0.1-1c0.1-0.3,0.2-0.8,0.3-1.3h-1
		c-0.5,1.9-0.8,3-0.9,3.2c-0.1,0.2-0.2,0.2-0.3,0.2c-0.1,0-0.1,0-0.2-0.1C115.3,284.6,115.3,284.5,115.3,284.5L115.3,284.5z"/>
	<g>
		<path class="st2" d="M122.4,278l-2.2,6.8h-0.6l2.2-6.8H122.4z"/>
		<path class="st2" d="M126.9,280.2c0,0.5-0.1,0.8-0.4,1.1c-0.2,0.3-0.7,0.6-1.3,1c-0.7,0.4-1.2,0.8-1.5,1.1
			c-0.1,0.1-0.2,0.3-0.3,0.5h3.4v0.8h-4.3v0c0-0.7,0.2-1.2,0.5-1.6c0.3-0.4,1-0.9,1.9-1.4c0.4-0.2,0.7-0.5,0.9-0.7
			c0.2-0.2,0.2-0.5,0.2-0.8c0-0.3-0.1-0.6-0.4-0.8c-0.2-0.2-0.5-0.3-0.9-0.3c-0.4,0-0.7,0.1-0.9,0.4c-0.2,0.3-0.3,0.7-0.4,1.1h-0.8
			c0-0.7,0.2-1.2,0.6-1.6c0.4-0.4,0.9-0.6,1.6-0.6c0.6,0,1.1,0.2,1.4,0.5C126.7,279.2,126.9,279.6,126.9,280.2z"/>
	</g>
	<path class="st3" d="M153.7,284.5c0,0,0-0.1,0-0.1c0.2-0.4,0.3-0.7,0.5-1c0.1-0.3,0.3-0.7,0.4-1c0.1-0.3,0.2-0.7,0.3-1h-0.6
		c-0.2,0-0.4,0.1-0.6,0.2c-0.2,0.1-0.3,0.3-0.5,0.5c0,0,0,0-0.1,0h-0.1c-0.1,0-0.1,0-0.1-0.1c0,0,0,0,0-0.1c0.2-0.3,0.4-0.6,0.6-0.8
		c0.2-0.2,0.5-0.3,0.8-0.3h3.3c0.1,0,0.1,0,0.2,0.1c0,0,0.1,0.1,0.1,0.2c0,0.1,0,0.2-0.1,0.2c-0.1,0.1-0.1,0.1-0.2,0.1h-1.1
		c-0.1,0.5-0.2,0.9-0.2,1.4c0,0.6,0.1,1.1,0.3,1.6c0,0,0,0.1,0,0.1c0,0.1,0,0.1-0.1,0.2c0,0.1-0.1,0.1-0.2,0.1
		c-0.1,0-0.1,0.1-0.2,0.1c-0.2,0-0.3-0.1-0.3-0.4c-0.1-0.3-0.1-0.5-0.1-0.8c0-0.3,0-0.7,0.1-1c0.1-0.3,0.2-0.8,0.3-1.3h-1
		c-0.5,1.9-0.8,3-0.9,3.2c-0.1,0.2-0.2,0.2-0.3,0.2c-0.1,0-0.1,0-0.2-0.1C153.7,284.6,153.7,284.5,153.7,284.5L153.7,284.5z"/>
	<path class="st3" d="M58.1,298.6c0,0-0.1,0-0.1-0.1c0,0-0.1-0.1-0.1-0.1c0,0,0-0.1,0.1-0.1c0,0,0.1-0.1,0.1-0.1h7.3
		c-0.2-0.2-0.5-0.4-0.6-0.6c-0.2-0.2-0.3-0.5-0.5-0.7c-0.1-0.3-0.2-0.5-0.3-0.8c0-0.1,0-0.1,0.1-0.1h0.2c0,0,0,0,0.1,0
		c0,0,0,0,0,0.1c0.1,0.3,0.1,0.5,0.2,0.8s0.3,0.5,0.4,0.7c0.2,0.2,0.4,0.4,0.6,0.5c0.2,0.1,0.5,0.3,0.7,0.4c0,0,0.1,0.1,0.1,0.1
		c0,0.1,0,0.1-0.1,0.1c-0.3,0.1-0.6,0.3-0.9,0.5c-0.3,0.2-0.5,0.5-0.7,0.8c-0.2,0.3-0.3,0.6-0.4,1c0,0,0,0,0,0.1c0,0,0,0-0.1,0h-0.2
		c-0.1,0-0.1,0-0.1-0.1c0.1-0.4,0.2-0.9,0.5-1.2c0.2-0.4,0.5-0.7,0.9-1H58.1L58.1,298.6z"/>
	<g>
	</g>
	<path class="st3" d="M72.1,300.9c-0.3,0-0.5-0.1-0.7-0.3c-0.2-0.2-0.3-0.5-0.4-0.8c-0.1-0.3-0.1-0.6-0.1-0.9v0c0-0.3,0-0.6,0.1-1
		c0.1-0.3,0.2-0.7,0.3-1c0.1-0.3,0.2-0.6,0.4-0.9c0.1-0.2,0.2-0.4,0.4-0.6s0.3-0.4,0.5-0.7c0.2-0.2,0.4-0.4,0.6-0.5
		c0.2-0.1,0.4-0.2,0.6-0.2h0c0.2,0,0.4,0.1,0.6,0.2c0.2,0.1,0.3,0.3,0.4,0.5c0.1,0.2,0.1,0.4,0.2,0.6c0,0.2,0.1,0.4,0.1,0.7
		c0,0.5-0.1,1-0.2,1.5c-0.1,0.5-0.3,1-0.5,1.5c-0.1,0.2-0.2,0.4-0.4,0.6c-0.2,0.2-0.3,0.5-0.5,0.6c-0.2,0.2-0.4,0.4-0.6,0.5
		C72.6,300.9,72.4,300.9,72.1,300.9L72.1,300.9L72.1,300.9z M72.2,300.7c0.2,0,0.4-0.1,0.6-0.3c0.2-0.2,0.4-0.5,0.5-0.8
		c0.1-0.3,0.3-0.7,0.4-1c0.1-0.3,0.2-0.6,0.2-0.9h-2c-0.1,0.4-0.2,0.7-0.2,1c-0.1,0.3-0.1,0.6-0.1,0.9
		C71.7,300.3,71.8,300.7,72.2,300.7L72.2,300.7z M72,297.3h2c0.1-0.3,0.1-0.5,0.2-0.7c0-0.2,0.1-0.4,0.1-0.6c0-0.2,0-0.4,0-0.6
		c0-0.8-0.2-1.1-0.5-1.1c-0.4,0-0.8,0.3-1.1,1C72.5,295.9,72.2,296.6,72,297.3L72,297.3z"/>
	<g>
		<path class="st2" d="M78.8,293.7h1.9v0.7h-1.1v7.7h1.1v0.7h-1.9V293.7z"/>
		<path class="st2" d="M81.7,295.6h0.4h0.4v0.9c0.1-0.1,0.2-0.3,0.2-0.4c0.3-0.4,0.7-0.7,1.2-0.7c0.1,0,0.2,0,0.2,0v0.9l-0.2,0
			c-0.5,0-0.8,0.1-1.1,0.4c-0.3,0.3-0.4,0.7-0.4,1.2v2.8h-0.4h-0.4V295.6z"/>
		<path class="st2" d="M86.2,301c-0.5,0-0.9-0.1-1.2-0.4c-0.3-0.3-0.4-0.6-0.4-1.1c0-0.5,0.1-0.8,0.4-1.1c0.3-0.3,0.7-0.4,1.2-0.5
			l1.2-0.2c0.1,0,0.2,0,0.3,0c0.1,0,0.2-0.1,0.3-0.2s0.1-0.2,0.1-0.3v0c0-0.3-0.1-0.5-0.3-0.7s-0.5-0.2-0.9-0.2
			c-0.4,0-0.6,0.1-0.8,0.2c-0.2,0.2-0.3,0.4-0.4,0.7h-0.8c0-0.6,0.2-1,0.6-1.3s0.9-0.4,1.5-0.4c0.6,0,1.1,0.1,1.4,0.4
			c0.3,0.3,0.5,0.7,0.5,1.2v2.8c0,0.1,0,0.2,0.1,0.2c0.1,0.1,0.1,0.1,0.2,0.1c0,0,0.1,0,0.1,0c0,0,0.1,0,0.2,0v0.6
			c-0.1,0-0.2,0.1-0.3,0.1c-0.1,0-0.2,0-0.2,0c-0.3,0-0.6-0.1-0.7-0.3c-0.1-0.1-0.2-0.3-0.2-0.5c-0.1,0.1-0.1,0.2-0.2,0.2
			C87.4,300.8,86.8,301,86.2,301z M88,298.8v-0.6c-0.2,0.1-0.3,0.1-0.5,0.2l-0.8,0.1c-0.4,0.1-0.7,0.2-0.9,0.3
			c-0.2,0.1-0.3,0.3-0.3,0.6c0,0.3,0.1,0.5,0.2,0.7c0.2,0.2,0.4,0.2,0.7,0.2c0.5,0,0.8-0.1,1.2-0.4c0.2-0.2,0.4-0.4,0.4-0.6
			c0,0,0-0.1,0-0.2C88,299,88,298.9,88,298.8z"/>
		<path class="st2" d="M92.3,301c-0.7,0-1.2-0.3-1.7-0.8s-0.6-1.2-0.6-2.1c0-0.8,0.2-1.4,0.6-1.9c0.4-0.5,0.9-0.7,1.6-0.7
			c0.6,0,1.1,0.3,1.5,0.8l0.1,0.1v-2.7h0.4h0.4v7.1h-0.4h-0.4v-0.7l-0.1,0.2C93.4,300.7,92.9,301,92.3,301z M92.4,296.3
			c-0.5,0-0.8,0.2-1.1,0.5c-0.2,0.3-0.3,0.8-0.3,1.5c0,0.6,0.1,1.1,0.4,1.5c0.2,0.3,0.6,0.5,1,0.5c0.4,0,0.8-0.2,1-0.5
			s0.4-0.7,0.4-1.3c0-0.7-0.1-1.2-0.4-1.6C93.2,296.5,92.8,296.3,92.4,296.3z"/>
		<path class="st2" d="M96.1,299.8h1v1h-1V299.8z"/>
	</g>
	<g>
		<path class="st2" d="M99.9,297.1c0-0.3-0.1-0.5-0.4-0.7s-0.5-0.2-0.8-0.2c-0.4,0-0.6,0.1-0.8,0.2c-0.2,0.1-0.3,0.3-0.3,0.6
			c0,0.2,0.1,0.3,0.2,0.4c0.1,0.1,0.4,0.2,0.8,0.3l0.9,0.2c0.5,0.1,0.9,0.3,1.1,0.5c0.2,0.2,0.3,0.5,0.3,0.9c0,0.5-0.2,0.9-0.6,1.2
			s-0.9,0.5-1.5,0.5c-0.7,0-1.3-0.1-1.6-0.4c-0.4-0.3-0.6-0.7-0.6-1.4h0.8c0,0.4,0.2,0.6,0.4,0.8c0.2,0.2,0.6,0.2,1,0.2
			c0.4,0,0.7-0.1,0.9-0.2c0.2-0.1,0.3-0.4,0.3-0.6c0-0.2-0.1-0.3-0.2-0.4c-0.1-0.1-0.4-0.2-0.8-0.3l-0.9-0.2c-0.5-0.1-0.8-0.3-1-0.5
			c-0.2-0.2-0.3-0.5-0.3-0.9c0-0.5,0.2-0.9,0.5-1.2c0.3-0.3,0.8-0.4,1.4-0.4c0.6,0,1.1,0.1,1.4,0.4c0.4,0.3,0.5,0.7,0.6,1.2H99.9z"
			/>
	</g>
	<g>
		<path class="st2" d="M103.3,293.5h1.9v0.7h-1.9V293.5z"/>
		<path class="st2" d="M107.7,292.1h-1.3v-0.6c0.4,0,0.7-0.1,0.9-0.2c0.2-0.2,0.4-0.4,0.5-0.8h0.6v5.6h-0.4h-0.4V292.1z"/>
	</g>
	<g>
		<path class="st2" d="M112.3,302.8h-1.9v-0.7h1.1v-7.7h-1.1v-0.7h1.9V302.8z"/>
	</g>
	<path class="st1" d="M15.4,272V15.2 M155.8,272V15.2 M15.4,272H18 M15.4,239.9H18 M15.4,207.8H18 M15.4,175.7H18 M15.4,143.6H18
		 M15.4,111.5H18 M15.4,79.4H18 M15.4,47.3H18 M15.4,15.2H18 M155.8,272h-2.6 M155.8,239.9h-2.6 M155.8,207.8h-2.6 M155.8,175.7
		h-2.6 M155.8,143.6h-2.6 M155.8,111.5h-2.6 M155.8,79.4h-2.6 M155.8,47.3h-2.6 M155.8,15.2h-2.6"/>
	<g>
		<path class="st2" d="M8.1,274.9c-0.4-0.6-0.6-1.4-0.6-2.4s0.2-1.8,0.6-2.4c0.4-0.6,0.9-0.8,1.6-0.8c0.7,0,1.2,0.3,1.6,0.8
			c0.4,0.6,0.6,1.4,0.6,2.4s-0.2,1.8-0.6,2.4s-0.9,0.8-1.6,0.8C9,275.8,8.5,275.5,8.1,274.9z M10.7,274.4c0.2-0.4,0.3-1.1,0.3-1.9
			c0-0.8-0.1-1.5-0.3-1.9c-0.2-0.4-0.6-0.6-1-0.6c-0.4,0-0.8,0.2-1,0.6c-0.2,0.4-0.3,1.1-0.3,1.9c0,0.8,0.1,1.5,0.3,1.9
			s0.6,0.6,1,0.6C10.1,275.1,10.5,274.9,10.7,274.4z"/>
	</g>
	<g>
		<path class="st2" d="M0.9,242.8c-0.4-0.6-0.6-1.4-0.6-2.4s0.2-1.8,0.6-2.4c0.4-0.6,0.9-0.8,1.6-0.8c0.7,0,1.2,0.3,1.6,0.8
			c0.4,0.6,0.6,1.4,0.6,2.4s-0.2,1.8-0.6,2.4s-0.9,0.8-1.6,0.8C1.8,243.7,1.3,243.4,0.9,242.8z M3.5,242.3c0.2-0.4,0.3-1.1,0.3-1.9
			c0-0.8-0.1-1.5-0.3-1.9c-0.2-0.4-0.6-0.6-1-0.6c-0.4,0-0.8,0.2-1,0.6c-0.2,0.4-0.3,1.1-0.3,1.9c0,0.8,0.1,1.5,0.3,1.9
			s0.6,0.6,1,0.6C2.9,243,3.3,242.8,3.5,242.3z"/>
		<path class="st2" d="M5.8,242.6h0.9v1H5.8V242.6z"/>
	</g>
	<g>
		<path class="st2" d="M11.4,241.5c0,0.6-0.2,1.2-0.6,1.6c-0.4,0.4-0.9,0.6-1.6,0.6c-0.6,0-1.1-0.2-1.5-0.5s-0.6-0.8-0.6-1.3h0.8
			c0,0.4,0.2,0.6,0.4,0.8c0.2,0.2,0.6,0.3,1,0.3c0.4,0,0.7-0.1,0.9-0.4c0.2-0.3,0.4-0.6,0.4-1c0-0.4-0.1-0.8-0.4-1
			c-0.3-0.3-0.6-0.4-1-0.4c-0.2,0-0.5,0.1-0.7,0.2c-0.2,0.1-0.4,0.3-0.5,0.4l-0.7,0l0.5-3.4H11v0.8H8.3l-0.3,1.7l0,0
			c0.3-0.2,0.7-0.4,1.1-0.4c0.7,0,1.2,0.2,1.6,0.6C11.2,240.3,11.4,240.8,11.4,241.5z"/>
	</g>
	<g>
		<path class="st2" d="M9.6,206.9H8.1v-0.6c0.4,0,0.8-0.1,1.1-0.3c0.3-0.2,0.5-0.5,0.6-0.9h0.6v6.3H10H9.6V206.9z"/>
	</g>
	<g>
		<path class="st2" d="M2.4,174.8H0.9v-0.6c0.4,0,0.8-0.1,1.1-0.3c0.3-0.2,0.5-0.5,0.6-0.9h0.6v6.3H2.8H2.4V174.8z"/>
		<path class="st2" d="M5.8,178.4h0.9v1H5.8V178.4z"/>
	</g>
	<g>
		<path class="st2" d="M11.4,177.3c0,0.6-0.2,1.2-0.6,1.6c-0.4,0.4-0.9,0.6-1.6,0.6c-0.6,0-1.1-0.2-1.5-0.5s-0.6-0.8-0.6-1.3h0.8
			c0,0.4,0.2,0.6,0.4,0.8c0.2,0.2,0.6,0.3,1,0.3c0.4,0,0.7-0.1,0.9-0.4c0.2-0.3,0.4-0.6,0.4-1c0-0.4-0.1-0.8-0.4-1
			c-0.3-0.3-0.6-0.4-1-0.4c-0.2,0-0.5,0.1-0.7,0.2c-0.2,0.1-0.4,0.3-0.5,0.4l-0.7,0l0.5-3.4H11v0.8H8.3l-0.3,1.7l0,0
			c0.3-0.2,0.7-0.4,1.1-0.4c0.7,0,1.2,0.2,1.6,0.6C11.2,176.2,11.4,176.7,11.4,177.3z"/>
	</g>
	<g>
		<path class="st2" d="M11.8,142.7c0,0.5-0.1,0.8-0.4,1.1c-0.2,0.3-0.7,0.6-1.3,1c-0.7,0.4-1.2,0.8-1.5,1.1
			c-0.1,0.1-0.2,0.3-0.3,0.5h3.4v0.8H7.4v0c0-0.7,0.2-1.2,0.5-1.6c0.3-0.4,1-0.9,1.9-1.4c0.4-0.2,0.7-0.5,0.9-0.7s0.2-0.5,0.2-0.8
			c0-0.3-0.1-0.6-0.4-0.8s-0.5-0.3-0.9-0.3c-0.4,0-0.7,0.1-0.9,0.4c-0.2,0.3-0.3,0.6-0.4,1.1H7.6c0-0.7,0.2-1.2,0.6-1.6
			s0.9-0.6,1.6-0.6c0.6,0,1.1,0.2,1.4,0.5C11.6,141.8,11.8,142.2,11.8,142.7z"/>
	</g>
	<g>
		<path class="st2" d="M4.6,110.6c0,0.5-0.1,0.8-0.4,1.1c-0.2,0.3-0.7,0.6-1.3,1c-0.7,0.4-1.2,0.8-1.5,1.1c-0.1,0.1-0.2,0.3-0.3,0.5
			h3.4v0.8H0.2v0c0-0.7,0.2-1.2,0.5-1.6c0.3-0.4,1-0.9,1.9-1.4c0.4-0.2,0.7-0.5,0.9-0.7s0.2-0.5,0.2-0.8c0-0.3-0.1-0.6-0.4-0.8
			s-0.5-0.3-0.9-0.3c-0.4,0-0.7,0.1-0.9,0.4c-0.2,0.3-0.3,0.6-0.4,1.1H0.4c0-0.7,0.2-1.2,0.6-1.6s0.9-0.6,1.6-0.6
			c0.6,0,1.1,0.2,1.4,0.5C4.4,109.6,4.6,110.1,4.6,110.6z"/>
		<path class="st2" d="M5.8,114.2h0.9v1H5.8V114.2z"/>
	</g>
	<g>
		<path class="st2" d="M11.4,113.1c0,0.6-0.2,1.2-0.6,1.6c-0.4,0.4-0.9,0.6-1.6,0.6c-0.6,0-1.1-0.2-1.5-0.5s-0.6-0.8-0.6-1.3h0.8
			c0,0.4,0.2,0.6,0.4,0.8c0.2,0.2,0.6,0.3,1,0.3c0.4,0,0.7-0.1,0.9-0.4c0.2-0.3,0.4-0.6,0.4-1c0-0.4-0.1-0.8-0.4-1
			c-0.3-0.3-0.6-0.4-1-0.4c-0.2,0-0.5,0.1-0.7,0.2c-0.2,0.1-0.4,0.3-0.5,0.4l-0.7,0l0.5-3.4H11v0.8H8.3l-0.3,1.7l0,0
			c0.3-0.2,0.7-0.4,1.1-0.4c0.7,0,1.2,0.2,1.6,0.6C11.2,111.9,11.4,112.4,11.4,113.1z"/>
	</g>
	<g>
		<path class="st2" d="M10.9,78.4c0-0.3-0.1-0.5-0.3-0.7s-0.5-0.3-0.9-0.3c-0.4,0-0.7,0.1-0.9,0.3c-0.2,0.2-0.3,0.6-0.3,1H7.7
			c0-0.7,0.2-1.2,0.5-1.5c0.3-0.4,0.8-0.5,1.5-0.5c0.6,0,1.1,0.2,1.5,0.5c0.4,0.3,0.6,0.7,0.6,1.2c0,0.5-0.2,0.9-0.6,1.2
			c-0.1,0.1-0.1,0.1-0.2,0.2c0.2,0.1,0.3,0.1,0.4,0.2c0.4,0.3,0.6,0.7,0.6,1.3c0,0.6-0.2,1.1-0.6,1.5c-0.4,0.4-0.9,0.6-1.6,0.6
			c-0.7,0-1.2-0.2-1.6-0.5c-0.4-0.3-0.6-0.9-0.6-1.6h0.8c0,0.5,0.2,0.8,0.4,1.1c0.2,0.2,0.5,0.3,1,0.3c0.4,0,0.7-0.1,1-0.3
			c0.2-0.2,0.4-0.5,0.4-0.9c0-0.4-0.1-0.7-0.4-0.9c-0.2-0.2-0.5-0.3-0.8-0.3c-0.1,0-0.3,0-0.4,0c-0.1,0-0.2,0-0.3,0v-0.7
			c0.1,0,0.2,0,0.3,0s0.3,0,0.4,0c0.3,0,0.5-0.1,0.6-0.3C10.8,79,10.9,78.7,10.9,78.4z"/>
	</g>
	<g>
		<path class="st2" d="M3.7,46.3c0-0.3-0.1-0.5-0.3-0.7s-0.5-0.3-0.9-0.3c-0.4,0-0.7,0.1-0.9,0.3c-0.2,0.2-0.3,0.6-0.3,1H0.5
			c0-0.7,0.2-1.2,0.5-1.5c0.3-0.4,0.8-0.5,1.5-0.5c0.6,0,1.1,0.2,1.5,0.5c0.4,0.3,0.6,0.7,0.6,1.2c0,0.5-0.2,0.9-0.6,1.2
			c-0.1,0.1-0.1,0.1-0.2,0.2c0.2,0.1,0.3,0.1,0.4,0.2c0.4,0.3,0.6,0.7,0.6,1.3c0,0.6-0.2,1.1-0.6,1.5c-0.4,0.4-0.9,0.6-1.6,0.6
			c-0.7,0-1.2-0.2-1.6-0.5c-0.4-0.3-0.6-0.9-0.6-1.6h0.8c0,0.5,0.2,0.8,0.4,1.1c0.2,0.2,0.5,0.3,1,0.3c0.4,0,0.7-0.1,1-0.3
			c0.2-0.2,0.4-0.5,0.4-0.9c0-0.4-0.1-0.7-0.4-0.9C3.3,48.1,3,48,2.7,48c-0.1,0-0.3,0-0.4,0c-0.1,0-0.2,0-0.3,0v-0.7
			c0.1,0,0.2,0,0.3,0s0.3,0,0.4,0c0.3,0,0.5-0.1,0.6-0.3C3.5,46.9,3.7,46.6,3.7,46.3z"/>
		<path class="st2" d="M5.8,50h0.9v1H5.8V50z"/>
	</g>
	<g>
		<path class="st2" d="M11.4,48.9c0,0.6-0.2,1.2-0.6,1.6c-0.4,0.4-0.9,0.6-1.6,0.6c-0.6,0-1.1-0.2-1.5-0.5S7.1,49.9,7,49.3h0.8
			c0,0.4,0.2,0.6,0.4,0.8c0.2,0.2,0.6,0.3,1,0.3c0.4,0,0.7-0.1,0.9-0.4c0.2-0.3,0.4-0.6,0.4-1c0-0.4-0.1-0.8-0.4-1
			c-0.3-0.3-0.6-0.4-1-0.4c-0.2,0-0.5,0.1-0.7,0.2C8.2,47.8,8.1,48,8,48.1l-0.7,0l0.5-3.4H11v0.8H8.3l-0.3,1.7l0,0
			c0.3-0.2,0.7-0.4,1.1-0.4c0.7,0,1.2,0.2,1.6,0.6C11.2,47.8,11.4,48.3,11.4,48.9z"/>
	</g>
	<g>
		<path class="st2" d="M7.4,17.3v-0.4v-0.4l2.9-4.1h0.3H11v4.1h0.9v0.7H11v1.5h-0.8v-1.5H7.4z M10.2,16.6v-2.9l-2,2.8l0,0.1H10.2z"
			/>
	</g>
	<g>
		<path class="st4" d="M42.8,4.2h2.1v7.1h-1.4V6.5c0-0.1,0-0.3,0-0.6c0-0.3,0-0.4,0-0.6l-1.4,6h-1.4l-1.3-6c0,0.1,0,0.3,0,0.6
			c0,0.2,0,0.4,0,0.6v4.8H38V4.2h2.2l1.3,5.6L42.8,4.2z"/>
		<path class="st4" d="M48.3,8.1c0.3,0,0.4-0.1,0.6-0.1c0.2-0.1,0.3-0.2,0.3-0.4c0-0.2-0.1-0.4-0.2-0.4S48.5,7,48.2,7
			c-0.3,0-0.6,0.1-0.7,0.2c-0.1,0.1-0.2,0.3-0.2,0.5H46c0-0.5,0.2-0.8,0.4-1.1c0.4-0.5,1-0.7,1.9-0.7c0.6,0,1.1,0.1,1.5,0.3
			c0.4,0.2,0.7,0.7,0.7,1.3V10c0,0.2,0,0.4,0,0.6c0,0.2,0,0.3,0.1,0.4c0,0.1,0.1,0.1,0.2,0.2v0.2h-1.5c0-0.1-0.1-0.2-0.1-0.3
			c0-0.1,0-0.2,0-0.3c-0.2,0.2-0.4,0.4-0.7,0.5c-0.3,0.2-0.6,0.3-1,0.3c-0.5,0-0.9-0.1-1.2-0.4s-0.5-0.7-0.5-1.2
			c0-0.6,0.3-1.1,0.8-1.4c0.3-0.2,0.7-0.3,1.2-0.3L48.3,8.1z M49.1,8.8c-0.1,0.1-0.2,0.1-0.3,0.1c-0.1,0-0.2,0.1-0.4,0.1l-0.3,0.1
			c-0.3,0.1-0.5,0.1-0.6,0.2c-0.2,0.1-0.3,0.3-0.3,0.6c0,0.2,0.1,0.4,0.2,0.5c0.1,0.1,0.3,0.2,0.5,0.2c0.3,0,0.6-0.1,0.8-0.3
			c0.3-0.2,0.4-0.5,0.4-1V8.8z"/>
		<path class="st4" d="M54.3,6.1c0.3,0.1,0.6,0.4,0.8,0.8V6.1h1.3v5c0,0.7-0.1,1.2-0.3,1.5c-0.4,0.6-1.1,0.9-2.3,0.9
			c-0.7,0-1.2-0.1-1.6-0.4c-0.4-0.3-0.7-0.7-0.7-1.2H53c0,0.2,0.1,0.3,0.2,0.3c0.1,0.1,0.4,0.2,0.7,0.2c0.5,0,0.8-0.2,1-0.5
			c0.1-0.2,0.2-0.6,0.2-1.1v-0.3c-0.1,0.2-0.3,0.4-0.4,0.5c-0.3,0.2-0.6,0.3-1.1,0.3c-0.7,0-1.2-0.2-1.6-0.7
			c-0.4-0.5-0.6-1.1-0.6-1.9c0-0.8,0.2-1.4,0.6-2c0.4-0.5,0.9-0.8,1.7-0.8C53.9,5.9,54.1,6,54.3,6.1z M54.8,9.8
			c0.2-0.2,0.3-0.6,0.3-1.2c0-0.5-0.1-0.9-0.3-1.1c-0.2-0.3-0.5-0.4-0.8-0.4c-0.5,0-0.8,0.2-1,0.7c-0.1,0.2-0.1,0.5-0.1,0.9
			c0,0.3,0.1,0.6,0.2,0.8c0.2,0.4,0.5,0.7,1,0.7C54.3,10.2,54.5,10.1,54.8,9.8z"/>
		<path class="st4" d="M62,6.4c0.3,0.3,0.5,0.8,0.5,1.4v3.5h-1.4V8.1c0-0.3,0-0.5-0.1-0.6c-0.1-0.3-0.4-0.4-0.8-0.4
			c-0.5,0-0.8,0.2-1,0.6c-0.1,0.2-0.1,0.5-0.1,0.8v2.9h-1.4V6.1h1.3v0.8c0.2-0.3,0.3-0.5,0.5-0.6c0.3-0.2,0.6-0.3,1.1-0.3
			C61.2,5.9,61.6,6.1,62,6.4z"/>
		<path class="st4" d="M65.2,5.4h-1.4V4.2h1.4V5.4z M63.8,6.1h1.4v5.3h-1.4V6.1z"/>
		<path class="st4" d="M66,7.1v-1h0.7V4.6h1.4v1.5h0.9v1h-0.9v2.8c0,0.2,0,0.4,0.1,0.4c0.1,0.1,0.2,0.1,0.5,0.1c0,0,0.1,0,0.1,0
			c0,0,0.1,0,0.1,0v1l-0.7,0c-0.7,0-1.1-0.1-1.3-0.3c-0.2-0.2-0.2-0.4-0.2-0.7V7.1H66z"/>
		<path class="st4" d="M71.2,6.1v3.2c0,0.3,0,0.5,0.1,0.7c0.1,0.3,0.4,0.4,0.7,0.4c0.5,0,0.8-0.2,1-0.6c0.1-0.2,0.1-0.5,0.1-0.8V6.1
			h1.4v5.3h-1.3v-0.7c0,0,0,0.1-0.1,0.1c-0.1,0.1-0.1,0.2-0.2,0.2c-0.2,0.2-0.4,0.3-0.6,0.4s-0.4,0.1-0.7,0.1
			c-0.8,0-1.3-0.3-1.6-0.8c-0.2-0.3-0.2-0.8-0.2-1.4V6.1H71.2z"/>
		<path class="st4" d="M78.7,6.1c0.2,0.1,0.4,0.3,0.6,0.6V4.2h1.4v7.1h-1.3v-0.7c-0.2,0.3-0.4,0.5-0.7,0.7s-0.6,0.2-0.9,0.2
			c-0.6,0-1.1-0.2-1.6-0.7c-0.4-0.5-0.6-1.1-0.6-1.9c0-0.9,0.2-1.6,0.6-2.1s1-0.8,1.7-0.8C78.1,5.9,78.4,6,78.7,6.1z M79,9.9
			c0.2-0.3,0.3-0.7,0.3-1.1c0-0.6-0.2-1.1-0.5-1.4c-0.2-0.2-0.4-0.3-0.7-0.3c-0.4,0-0.7,0.2-0.9,0.5C77.1,7.9,77,8.3,77,8.7
			c0,0.5,0.1,0.9,0.3,1.2c0.2,0.3,0.5,0.4,0.9,0.4C78.5,10.3,78.8,10.2,79,9.9z"/>
		<path class="st4" d="M85.4,6.2C85.7,6.3,86,6.6,86.3,7c0.2,0.3,0.4,0.7,0.4,1.1c0,0.2,0.1,0.6,0,1h-3.8c0,0.5,0.2,0.9,0.6,1.1
			c0.2,0.1,0.5,0.2,0.8,0.2c0.3,0,0.6-0.1,0.8-0.2c0.1-0.1,0.2-0.2,0.3-0.4h1.4c0,0.3-0.2,0.6-0.5,1c-0.5,0.5-1.1,0.8-2,0.8
			c-0.7,0-1.3-0.2-1.9-0.6c-0.5-0.4-0.8-1.1-0.8-2.1c0-0.9,0.2-1.6,0.7-2.1c0.5-0.5,1.1-0.7,1.9-0.7C84.6,5.9,85,6,85.4,6.2z
			 M83.3,7.4c-0.2,0.2-0.3,0.5-0.4,0.8h2.4c0-0.4-0.1-0.6-0.4-0.8s-0.5-0.3-0.8-0.3C83.8,7.1,83.5,7.2,83.3,7.4z"/>
		<path class="st4" d="M93.1,5.9c0,0,0.1,0,0.1,0v1.4c-0.1,0-0.2,0-0.2,0c-0.1,0-0.1,0-0.2,0c-0.6,0-0.9,0.2-1.1,0.5
			c-0.1,0.2-0.2,0.5-0.2,0.9v2.5h-1.4V6.1h1.3V7c0.2-0.4,0.4-0.6,0.6-0.7C92.3,6,92.6,5.9,93.1,5.9C93.1,5.9,93.1,5.9,93.1,5.9z"/>
		<path class="st4" d="M97.5,6.2c0.4,0.2,0.7,0.4,0.9,0.8c0.2,0.3,0.4,0.7,0.4,1.1c0,0.2,0.1,0.6,0,1H95c0,0.5,0.2,0.9,0.6,1.1
			c0.2,0.1,0.5,0.2,0.8,0.2c0.3,0,0.6-0.1,0.8-0.2c0.1-0.1,0.2-0.2,0.3-0.4h1.4c0,0.3-0.2,0.6-0.5,1c-0.5,0.5-1.1,0.8-2,0.8
			c-0.7,0-1.3-0.2-1.9-0.6c-0.5-0.4-0.8-1.1-0.8-2.1c0-0.9,0.2-1.6,0.7-2.1c0.5-0.5,1.1-0.7,1.9-0.7C96.7,5.9,97.1,6,97.5,6.2z
			 M95.4,7.4c-0.2,0.2-0.3,0.5-0.4,0.8h2.4c0-0.4-0.1-0.6-0.4-0.8s-0.5-0.3-0.8-0.3C95.9,7.1,95.6,7.2,95.4,7.4z"/>
		<path class="st4" d="M100.6,9.7c0,0.2,0.1,0.4,0.2,0.5c0.2,0.2,0.5,0.3,1,0.3c0.3,0,0.5,0,0.6-0.1s0.2-0.2,0.2-0.4
			c0-0.2-0.1-0.3-0.2-0.4c-0.1-0.1-0.6-0.2-1.4-0.4c-0.6-0.1-1-0.3-1.3-0.6c-0.2-0.2-0.4-0.5-0.4-0.9c0-0.5,0.2-0.9,0.6-1.3
			s0.9-0.5,1.6-0.5c0.7,0,1.2,0.1,1.6,0.4s0.7,0.7,0.7,1.4h-1.4c0-0.2-0.1-0.3-0.1-0.4C102.2,7.1,102,7,101.6,7
			c-0.3,0-0.5,0-0.6,0.1c-0.1,0.1-0.2,0.2-0.2,0.3c0,0.2,0.1,0.3,0.2,0.3c0.1,0.1,0.6,0.2,1.4,0.4c0.5,0.1,1,0.3,1.2,0.6
			c0.3,0.3,0.4,0.6,0.4,1c0,0.5-0.2,0.9-0.6,1.3c-0.4,0.3-1,0.5-1.8,0.5c-0.8,0-1.4-0.2-1.8-0.5c-0.4-0.3-0.6-0.8-0.6-1.3H100.6z"/>
		<path class="st4" d="M109.5,6.6c0.4,0.5,0.6,1.1,0.6,2c0,0.9-0.2,1.6-0.6,2.1c-0.4,0.5-1,0.7-1.6,0.7c-0.4,0-0.8-0.1-1.1-0.3
			c-0.2-0.1-0.3-0.3-0.4-0.5v2.7H105V6.1h1.3v0.8c0.1-0.2,0.3-0.4,0.5-0.5c0.3-0.2,0.7-0.4,1.1-0.4C108.5,5.9,109.1,6.2,109.5,6.6z
			 M108.4,7.6c-0.2-0.3-0.5-0.5-0.9-0.5c-0.5,0-0.9,0.2-1,0.7c-0.1,0.3-0.1,0.6-0.1,1c0,0.6,0.2,1,0.5,1.3c0.2,0.1,0.4,0.2,0.7,0.2
			c0.4,0,0.7-0.1,0.9-0.4s0.3-0.7,0.3-1.2C108.7,8.3,108.6,7.9,108.4,7.6z"/>
		<path class="st4" d="M115.5,10.7c-0.4,0.5-1.1,0.8-2,0.8c-0.9,0-1.6-0.3-2-0.8c-0.4-0.5-0.7-1.2-0.7-2c0-0.8,0.2-1.4,0.7-2
			c0.4-0.6,1.1-0.8,2-0.8c0.9,0,1.6,0.3,2,0.8s0.7,1.2,0.7,2C116.2,9.5,115.9,10.1,115.5,10.7z M114.4,9.9c0.2-0.3,0.3-0.7,0.3-1.2
			c0-0.5-0.1-0.9-0.3-1.2c-0.2-0.3-0.5-0.4-0.9-0.4s-0.7,0.1-0.9,0.4c-0.2,0.3-0.3,0.7-0.3,1.2c0,0.5,0.1,0.9,0.3,1.2
			c0.2,0.3,0.5,0.4,0.9,0.4S114.2,10.2,114.4,9.9z"/>
		<path class="st4" d="M121.4,6.4c0.3,0.3,0.5,0.8,0.5,1.4v3.5h-1.4V8.1c0-0.3,0-0.5-0.1-0.6c-0.1-0.3-0.4-0.4-0.8-0.4
			c-0.5,0-0.8,0.2-1,0.6c-0.1,0.2-0.1,0.5-0.1,0.8v2.9h-1.4V6.1h1.3v0.8c0.2-0.3,0.3-0.5,0.5-0.6c0.3-0.2,0.6-0.3,1.1-0.3
			C120.6,5.9,121,6.1,121.4,6.4z"/>
		<path class="st4" d="M124.3,9.7c0,0.2,0.1,0.4,0.2,0.5c0.2,0.2,0.5,0.3,1,0.3c0.3,0,0.5,0,0.6-0.1s0.2-0.2,0.2-0.4
			c0-0.2-0.1-0.3-0.2-0.4c-0.1-0.1-0.6-0.2-1.4-0.4c-0.6-0.1-1-0.3-1.3-0.6c-0.2-0.2-0.4-0.5-0.4-0.9c0-0.5,0.2-0.9,0.6-1.3
			s0.9-0.5,1.6-0.5c0.7,0,1.2,0.1,1.6,0.4s0.7,0.7,0.7,1.4h-1.4c0-0.2-0.1-0.3-0.1-0.4c-0.2-0.2-0.4-0.3-0.8-0.3
			c-0.3,0-0.5,0-0.6,0.1c-0.1,0.1-0.2,0.2-0.2,0.3c0,0.2,0.1,0.3,0.2,0.3c0.1,0.1,0.6,0.2,1.4,0.4c0.5,0.1,1,0.3,1.2,0.6
			c0.3,0.3,0.4,0.6,0.4,1c0,0.5-0.2,0.9-0.6,1.3c-0.4,0.3-1,0.5-1.8,0.5c-0.8,0-1.4-0.2-1.8-0.5c-0.4-0.3-0.6-0.8-0.6-1.3H124.3z"/>
		<path class="st4" d="M132.1,6.2c0.4,0.2,0.7,0.4,0.9,0.8c0.2,0.3,0.4,0.7,0.4,1.1c0,0.2,0.1,0.6,0,1h-3.8c0,0.5,0.2,0.9,0.6,1.1
			c0.2,0.1,0.5,0.2,0.8,0.2c0.3,0,0.6-0.1,0.8-0.2c0.1-0.1,0.2-0.2,0.3-0.4h1.4c0,0.3-0.2,0.6-0.5,1c-0.5,0.5-1.1,0.8-2,0.8
			c-0.7,0-1.3-0.2-1.9-0.6c-0.5-0.4-0.8-1.1-0.8-2.1c0-0.9,0.2-1.6,0.7-2.1c0.5-0.5,1.1-0.7,1.9-0.7C131.4,5.9,131.8,6,132.1,6.2z
			 M130.1,7.4c-0.2,0.2-0.3,0.5-0.4,0.8h2.4c0-0.4-0.1-0.6-0.4-0.8s-0.5-0.3-0.8-0.3C130.5,7.1,130.3,7.2,130.1,7.4z"/>
	</g>
	<polyline class="st5" points="15.4,235.9 15.7,235.7 16,234.9 16.2,233.7 16.5,232 16.8,230 17.1,227.7 17.4,225.1 17.6,222.3 
		17.9,219.3 18.2,216.1 18.5,212.8 18.8,209.4 19.1,206 19.3,202.4 19.6,198.9 19.9,195.2 20.2,191.6 20.5,187.9 20.7,184.2 
		21,180.5 21.3,176.8 21.6,173.1 21.9,169.4 22.1,165.7 22.4,162 22.7,158.4 23,154.7 23.3,151.1 23.5,147.5 23.8,143.9 24.1,140.3 
		24.4,136.8 24.7,133.3 24.9,129.9 25.2,126.5 25.5,123.1 25.8,119.7 26.1,116.4 26.4,113.1 26.6,109.9 26.9,106.7 27.2,103.6 
		27.5,100.5 27.8,97.4 28,94.4 28.3,91.5 28.6,88.6 28.9,85.7 29.2,82.9 29.4,80.2 29.7,77.5 30,74.8 30.3,72.2 30.6,69.7 
		30.8,67.2 31.1,64.8 31.4,62.5 31.7,60.2 32,57.9 32.2,55.8 32.5,53.6 32.8,51.6 33.1,49.6 33.4,47.7 33.7,45.8 33.9,44 34.2,42.3 
		34.5,40.6 34.8,39 35.1,37.5 35.3,36 35.6,34.6 35.9,33.3 36.2,32 36.5,30.8 36.7,29.6 37,28.6 37.3,27.6 37.6,26.6 37.9,25.8 
		38.1,25 38.4,24.3 38.7,23.6 39,23 39.3,22.5 39.6,22 39.8,21.6 40.1,21.3 40.4,21.1 40.7,20.9 41,20.8 41.2,20.7 41.5,20.7 
		41.8,20.8 42.1,21 42.4,21.2 42.6,21.5 42.9,21.8 43.2,22.2 43.5,22.7 43.8,23.3 44,23.9 44.3,24.5 44.6,25.3 44.9,26.1 45.2,26.9 
		45.4,27.8 45.7,28.8 46,29.9 46.3,31 46.6,32.1 46.9,33.3 47.1,34.6 47.4,35.9 47.7,37.3 48,38.7 48.3,40.2 48.5,41.8 48.8,43.3 
		49.1,45 49.4,46.7 49.7,48.4 49.9,50.2 50.2,52 50.5,53.9 50.8,55.8 51.1,57.8 51.3,59.8 51.6,61.8 51.9,63.9 52.2,66 52.5,68.2 
		52.7,70.4 53,72.6 53.3,74.8 53.6,77.1 53.9,79.4 54.2,81.8 54.4,84.1 54.7,86.5 55,88.9 55.3,91.3 55.6,93.8 55.8,96.2 56.1,98.7 
		56.4,101.2 56.7,103.7 57,106.2 57.2,108.7 57.5,111.2 57.8,113.7 58.1,116.2 58.4,118.7 58.6,121.2 58.9,123.7 59.2,126.2 
		59.5,128.6 59.8,131.1 60,133.5 60.3,135.9 60.6,138.3 60.9,140.6 61.2,142.9 61.5,145.2 61.7,147.4 62,149.6 62.3,151.7 
		62.6,153.8 62.9,155.8 63.1,157.7 63.4,159.6 63.7,161.4 64,163.2 64.3,164.9 64.5,166.5 64.8,168 65.1,169.4 65.4,170.7 65.7,172 
		65.9,173.1 66.2,174.2 66.5,175.1 66.8,175.9 67.1,176.7 67.3,177.3 67.6,177.8 67.9,178.2 68.2,178.6 68.5,178.8 68.8,178.9 
		69,178.9 69.3,178.8 69.6,178.6 69.9,178.3 70.2,177.9 70.4,177.5 70.7,176.9 71,176.3 71.3,175.6 71.6,174.9 71.8,174.1 
		72.1,173.2 72.4,172.3 72.7,171.3 73,170.3 73.2,169.3 73.5,168.2 73.8,167.1 74.1,166 74.4,164.8 74.7,163.7 74.9,162.5 
		75.2,161.3 75.5,160.1 75.8,158.9 76.1,157.7 76.3,156.6 76.6,155.4 76.9,154.2 77.2,153.1 77.5,151.9 77.7,150.8 78,149.7 
		78.3,148.7 78.6,147.6 78.9,146.6 79.1,145.6 79.4,144.7 79.7,143.7 80,142.9 80.3,142 80.5,141.2 80.8,140.4 81.1,139.7 
		81.4,138.9 81.7,138.3 82,137.7 82.2,137.1 82.5,136.6 82.8,136.1 83.1,135.6 83.4,135.2 83.6,134.9 83.9,134.6 84.2,134.3 
		84.5,134.1 84.8,133.9 85,133.8 85.3,133.7 85.6,133.7 85.9,133.7 86.2,133.8 86.4,133.9 86.7,134.1 87,134.3 87.3,134.6 
		87.6,134.9 87.8,135.2 88.1,135.6 88.4,136.1 88.7,136.6 89,137.1 89.3,137.7 89.5,138.3 89.8,138.9 90.1,139.7 90.4,140.4 
		90.7,141.2 90.9,142 91.2,142.9 91.5,143.7 91.8,144.7 92.1,145.6 92.3,146.6 92.6,147.6 92.9,148.7 93.2,149.7 93.5,150.8 
		93.7,151.9 94,153.1 94.3,154.2 94.6,155.4 94.9,156.6 95.1,157.7 95.4,158.9 95.7,160.1 96,161.3 96.3,162.5 96.6,163.7 
		96.8,164.8 97.1,166 97.4,167.1 97.7,168.2 98,169.3 98.2,170.3 98.5,171.3 98.8,172.3 99.1,173.2 99.4,174.1 99.6,174.9 
		99.9,175.6 100.2,176.3 100.5,176.9 100.8,177.5 101,177.9 101.3,178.3 101.6,178.6 101.9,178.8 102.2,178.9 102.4,178.9 
		102.7,178.8 103,178.6 103.3,178.2 103.6,177.8 103.9,177.3 104.1,176.7 104.4,175.9 104.7,175.1 105,174.2 105.3,173.1 105.5,172 
		105.8,170.7 106.1,169.4 106.4,168 106.7,166.5 106.9,164.9 107.2,163.2 107.5,161.4 107.8,159.6 108.1,157.7 108.3,155.8 
		108.6,153.8 108.9,151.7 109.2,149.6 109.5,147.4 109.8,145.2 110,142.9 110.3,140.6 110.6,138.3 110.9,135.9 111.2,133.5 
		111.4,131.1 111.7,128.6 112,126.2 112.3,123.7 112.6,121.2 112.8,118.7 113.1,116.2 113.4,113.7 113.7,111.2 114,108.7 
		114.2,106.2 114.5,103.7 114.8,101.2 115.1,98.7 115.4,96.2 115.6,93.8 115.9,91.3 116.2,88.9 116.5,86.5 116.8,84.1 117.1,81.8 
		117.3,79.4 117.6,77.1 117.9,74.8 118.2,72.6 118.5,70.4 118.7,68.2 119,66 119.3,63.9 119.6,61.8 119.9,59.8 120.1,57.8 
		120.4,55.8 120.7,53.9 121,52 121.3,50.2 121.5,48.4 121.8,46.7 122.1,45 122.4,43.3 122.7,41.8 122.9,40.2 123.2,38.7 123.5,37.3 
		123.8,35.9 124.1,34.6 124.4,33.3 124.6,32.1 124.9,31 125.2,29.9 125.5,28.8 125.8,27.8 126,26.9 126.3,26.1 126.6,25.3 
		126.9,24.5 127.2,23.9 127.4,23.3 127.7,22.7 128,22.2 128.3,21.8 128.6,21.5 128.8,21.2 129.1,21 129.4,20.8 129.7,20.7 130,20.7 
		130.2,20.8 130.5,20.9 130.8,21.1 131.1,21.3 131.4,21.6 131.7,22 131.9,22.5 132.2,23 132.5,23.6 132.8,24.3 133.1,25 133.3,25.8 
		133.6,26.6 133.9,27.6 134.2,28.6 134.5,29.6 134.7,30.8 135,32 135.3,33.3 135.6,34.6 135.9,36 136.1,37.5 136.4,39 136.7,40.6 
		137,42.3 137.3,44 137.5,45.8 137.8,47.7 138.1,49.6 138.4,51.6 138.7,53.6 139,55.8 139.2,57.9 139.5,60.2 139.8,62.5 140.1,64.8 
		140.4,67.2 140.6,69.7 140.9,72.2 141.2,74.8 141.5,77.5 141.8,80.2 142,82.9 142.3,85.7 142.6,88.6 142.9,91.5 143.2,94.4 
		143.4,97.4 143.7,100.5 144,103.6 144.3,106.7 144.6,109.9 144.9,113.1 145.1,116.4 145.4,119.7 145.7,123.1 146,126.5 
		146.3,129.9 146.5,133.3 146.8,136.8 147.1,140.3 147.4,143.9 147.7,147.5 147.9,151.1 148.2,154.7 148.5,158.4 148.8,162 
		149.1,165.7 149.3,169.4 149.6,173.1 149.9,176.8 150.2,180.5 150.5,184.2 150.7,187.9 151,191.6 151.3,195.2 151.6,198.9 
		151.9,202.4 152.2,206 152.4,209.4 152.7,212.8 153,216.1 153.3,219.3 153.6,222.3 153.8,225.1 154.1,227.7 154.4,230 154.7,232 
		155,233.7 155.2,234.9 155.5,235.7 	"/>
	<path class="st0" d="M200.2,272V15.2 M235.5,272V15.2 M270.7,272V15.2 M306,272V15.2 M341.2,272V15.2 M341.2,272h-141 M341.2,207.8
		h-141 M341.2,143.6h-141 M341.2,79.4h-141 M341.2,15.2h-141"/>
	<path class="st1" d="M200.2,272h141 M200.2,15.2h141 M200.2,272v-2.6 M235.5,272v-2.6 M270.7,272v-2.6 M306,272v-2.6 M341.2,272
		v-2.6 M200.2,15.2v2.6 M235.5,15.2v2.6 M270.7,15.2v2.6 M306,15.2v2.6 M341.2,15.2v2.6"/>
	<g>
		<path class="st2" d="M196.4,281.7h2.2v0.8h-2.2V281.7z"/>
	</g>
	<path class="st3" d="M199.9,284.5c0,0,0-0.1,0-0.1c0.2-0.4,0.3-0.7,0.5-1c0.1-0.3,0.3-0.7,0.4-1c0.1-0.3,0.2-0.7,0.3-1h-0.6
		c-0.2,0-0.4,0.1-0.6,0.2c-0.2,0.1-0.3,0.3-0.5,0.5c0,0,0,0-0.1,0h-0.1c-0.1,0-0.1,0-0.1-0.1c0,0,0,0,0-0.1c0.2-0.3,0.4-0.6,0.6-0.8
		c0.2-0.2,0.5-0.3,0.8-0.3h3.3c0.1,0,0.1,0,0.2,0.1c0,0,0.1,0.1,0.1,0.2c0,0.1,0,0.2-0.1,0.2c-0.1,0.1-0.1,0.1-0.2,0.1h-1.1
		c-0.1,0.5-0.2,0.9-0.2,1.4c0,0.6,0.1,1.1,0.3,1.6c0,0,0,0.1,0,0.1c0,0.1,0,0.1-0.1,0.2c0,0.1-0.1,0.1-0.2,0.1
		c-0.1,0-0.1,0.1-0.2,0.1c-0.2,0-0.3-0.1-0.3-0.4c-0.1-0.3-0.1-0.5-0.1-0.8c0-0.3,0-0.7,0.1-1c0.1-0.3,0.2-0.8,0.3-1.3h-1
		c-0.5,1.9-0.8,3-0.9,3.2c-0.1,0.2-0.2,0.2-0.3,0.2c-0.1,0-0.1,0-0.2-0.1C199.9,284.6,199.9,284.5,199.9,284.5L199.9,284.5z"/>
	<g>
		<path class="st2" d="M227.6,281.7h2.2v0.8h-2.2V281.7z"/>
	</g>
	<path class="st3" d="M231.1,284.5c0,0,0-0.1,0-0.1c0.2-0.4,0.3-0.7,0.5-1c0.1-0.3,0.3-0.7,0.4-1s0.2-0.7,0.3-1h-0.6
		c-0.2,0-0.4,0.1-0.6,0.2c-0.2,0.1-0.3,0.3-0.5,0.5c0,0,0,0-0.1,0h-0.1c-0.1,0-0.1,0-0.1-0.1c0,0,0,0,0-0.1c0.2-0.3,0.4-0.6,0.6-0.8
		c0.2-0.2,0.5-0.3,0.8-0.3h3.3c0.1,0,0.1,0,0.2,0.1c0,0,0.1,0.1,0.1,0.2c0,0.1,0,0.2-0.1,0.2c-0.1,0.1-0.1,0.1-0.2,0.1h-1.1
		c-0.1,0.5-0.2,0.9-0.2,1.4c0,0.6,0.1,1.1,0.3,1.6c0,0,0,0.1,0,0.1c0,0.1,0,0.1-0.1,0.2c0,0.1-0.1,0.1-0.2,0.1
		c-0.1,0-0.1,0.1-0.2,0.1c-0.2,0-0.3-0.1-0.3-0.4c-0.1-0.3-0.1-0.5-0.1-0.8c0-0.3,0-0.7,0.1-1c0.1-0.3,0.2-0.8,0.3-1.3h-1
		c-0.5,1.9-0.8,3-0.9,3.2c-0.1,0.2-0.2,0.2-0.3,0.2c-0.1,0-0.1,0-0.2-0.1C231.1,284.6,231.1,284.5,231.1,284.5L231.1,284.5z"/>
	<g>
		<path class="st2" d="M238.3,278l-2.2,6.8h-0.6l2.2-6.8H238.3z"/>
		<path class="st2" d="M242.7,280.2c0,0.5-0.1,0.8-0.4,1.1c-0.2,0.3-0.7,0.6-1.3,1c-0.7,0.4-1.2,0.8-1.5,1.1
			c-0.1,0.1-0.2,0.3-0.3,0.5h3.4v0.8h-4.3v0c0-0.7,0.2-1.2,0.5-1.6c0.3-0.4,1-0.9,1.9-1.4c0.4-0.2,0.7-0.5,0.9-0.7
			c0.2-0.2,0.2-0.5,0.2-0.8c0-0.3-0.1-0.6-0.4-0.8c-0.2-0.2-0.5-0.3-0.9-0.3c-0.4,0-0.7,0.1-0.9,0.4c-0.2,0.3-0.3,0.7-0.4,1.1h-0.8
			c0-0.7,0.2-1.2,0.6-1.6c0.4-0.4,0.9-0.6,1.6-0.6c0.6,0,1.1,0.2,1.4,0.5C242.5,279.2,242.7,279.6,242.7,280.2z"/>
	</g>
	<g>
		<path class="st2" d="M268.9,283.7c-0.4-0.6-0.6-1.4-0.6-2.4s0.2-1.8,0.6-2.4c0.4-0.6,0.9-0.8,1.6-0.8c0.7,0,1.2,0.3,1.6,0.8
			c0.4,0.6,0.6,1.4,0.6,2.4s-0.2,1.8-0.6,2.4c-0.4,0.6-0.9,0.8-1.6,0.8C269.8,284.6,269.3,284.3,268.9,283.7z M271.5,283.2
			c0.2-0.4,0.3-1.1,0.3-1.9c0-0.8-0.1-1.5-0.3-1.9c-0.2-0.4-0.6-0.6-1-0.6c-0.4,0-0.8,0.2-1,0.6c-0.2,0.4-0.3,1.1-0.3,1.9
			c0,0.8,0.1,1.5,0.3,1.9c0.2,0.4,0.5,0.6,1,0.6C270.9,283.9,271.3,283.7,271.5,283.2z"/>
	</g>
	<path class="st3" d="M300.1,284.5c0,0,0-0.1,0-0.1c0.2-0.4,0.3-0.7,0.5-1c0.1-0.3,0.3-0.7,0.4-1s0.2-0.7,0.3-1h-0.6
		c-0.2,0-0.4,0.1-0.6,0.2c-0.2,0.1-0.3,0.3-0.5,0.5c0,0,0,0-0.1,0h-0.1c-0.1,0-0.1,0-0.1-0.1c0,0,0,0,0-0.1c0.2-0.3,0.4-0.6,0.6-0.8
		c0.2-0.2,0.5-0.3,0.8-0.3h3.3c0.1,0,0.1,0,0.2,0.1c0,0,0.1,0.1,0.1,0.2c0,0.1,0,0.2-0.1,0.2c-0.1,0.1-0.1,0.1-0.2,0.1h-1.1
		c-0.1,0.5-0.2,0.9-0.2,1.4c0,0.6,0.1,1.1,0.3,1.6c0,0,0,0.1,0,0.1c0,0.1,0,0.1-0.1,0.2c0,0.1-0.1,0.1-0.1,0.1
		c-0.1,0-0.1,0.1-0.2,0.1c-0.2,0-0.3-0.1-0.3-0.4c-0.1-0.3-0.1-0.5-0.1-0.8c0-0.3,0-0.7,0.1-1c0.1-0.3,0.2-0.8,0.3-1.3h-1
		c-0.5,1.9-0.8,3-0.9,3.2c-0.1,0.2-0.2,0.2-0.3,0.2c-0.1,0-0.1,0-0.2-0.1C300.1,284.6,300.1,284.5,300.1,284.5L300.1,284.5z"/>
	<g>
		<path class="st2" d="M307.3,278l-2.2,6.8h-0.6l2.2-6.8H307.3z"/>
		<path class="st2" d="M311.7,280.2c0,0.5-0.1,0.8-0.4,1.1c-0.2,0.3-0.7,0.6-1.3,1c-0.7,0.4-1.2,0.8-1.5,1.1
			c-0.1,0.1-0.2,0.3-0.3,0.5h3.4v0.8h-4.3v0c0-0.7,0.2-1.2,0.5-1.6c0.3-0.4,1-0.9,1.9-1.4c0.4-0.2,0.7-0.5,0.9-0.7
			c0.2-0.2,0.2-0.5,0.2-0.8c0-0.3-0.1-0.6-0.4-0.8c-0.2-0.2-0.5-0.3-0.9-0.3c-0.4,0-0.7,0.1-0.9,0.4c-0.2,0.3-0.3,0.7-0.4,1.1h-0.8
			c0-0.7,0.2-1.2,0.6-1.6c0.4-0.4,0.9-0.6,1.6-0.6c0.6,0,1.1,0.2,1.4,0.5C311.5,279.2,311.7,279.6,311.7,280.2z"/>
	</g>
	<path class="st3" d="M339.1,284.5c0,0,0-0.1,0-0.1c0.2-0.4,0.3-0.7,0.5-1c0.1-0.3,0.3-0.7,0.4-1s0.2-0.7,0.3-1h-0.6
		c-0.2,0-0.4,0.1-0.6,0.2c-0.2,0.1-0.3,0.3-0.5,0.5c0,0,0,0-0.1,0h-0.1c-0.1,0-0.1,0-0.1-0.1c0,0,0,0,0-0.1c0.2-0.3,0.4-0.6,0.6-0.8
		c0.2-0.2,0.5-0.3,0.8-0.3h3.3c0.1,0,0.1,0,0.2,0.1c0,0,0.1,0.1,0.1,0.2c0,0.1,0,0.2-0.1,0.2c-0.1,0.1-0.1,0.1-0.2,0.1h-1.1
		c-0.1,0.5-0.2,0.9-0.2,1.4c0,0.6,0.1,1.1,0.3,1.6c0,0,0,0.1,0,0.1c0,0.1,0,0.1-0.1,0.2c0,0.1-0.1,0.1-0.1,0.1
		c-0.1,0-0.1,0.1-0.2,0.1c-0.2,0-0.3-0.1-0.3-0.4c-0.1-0.3-0.1-0.5-0.1-0.8c0-0.3,0-0.7,0.1-1c0.1-0.3,0.2-0.8,0.3-1.3h-1
		c-0.5,1.9-0.8,3-0.9,3.2c-0.1,0.2-0.2,0.2-0.3,0.2c-0.1,0-0.1,0-0.2-0.1C339.1,284.6,339.1,284.5,339.1,284.5L339.1,284.5z"/>
	<path class="st3" d="M243.5,298.6c0,0-0.1,0-0.1-0.1c0,0-0.1-0.1-0.1-0.1c0,0,0-0.1,0.1-0.1c0,0,0.1-0.1,0.1-0.1h7.3
		c-0.2-0.2-0.5-0.4-0.6-0.6c-0.2-0.2-0.3-0.5-0.5-0.7c-0.1-0.3-0.2-0.5-0.3-0.8c0-0.1,0-0.1,0.1-0.1h0.2c0,0,0,0,0.1,0s0,0,0,0.1
		c0.1,0.3,0.1,0.5,0.2,0.8s0.3,0.5,0.4,0.7c0.2,0.2,0.4,0.4,0.6,0.5c0.2,0.1,0.5,0.3,0.7,0.4c0,0,0.1,0.1,0.1,0.1
		c0,0.1,0,0.1-0.1,0.1c-0.3,0.1-0.6,0.3-0.9,0.5c-0.3,0.2-0.5,0.5-0.7,0.8c-0.2,0.3-0.3,0.6-0.4,1c0,0,0,0,0,0.1s0,0-0.1,0h-0.2
		c-0.1,0-0.1,0-0.1-0.1c0.1-0.4,0.2-0.9,0.5-1.2c0.2-0.4,0.5-0.7,0.9-1H243.5L243.5,298.6z"/>
	<g>
	</g>
	<path class="st3" d="M257.5,300.9c-0.3,0-0.5-0.1-0.7-0.3c-0.2-0.2-0.3-0.5-0.4-0.8c-0.1-0.3-0.1-0.6-0.1-0.9v0c0-0.3,0-0.6,0.1-1
		c0.1-0.3,0.2-0.7,0.3-1c0.1-0.3,0.2-0.6,0.4-0.9c0.1-0.2,0.2-0.4,0.4-0.6s0.3-0.4,0.5-0.7c0.2-0.2,0.4-0.4,0.6-0.5
		c0.2-0.1,0.4-0.2,0.6-0.2h0c0.2,0,0.4,0.1,0.6,0.2c0.2,0.1,0.3,0.3,0.4,0.5c0.1,0.2,0.1,0.4,0.2,0.6c0,0.2,0.1,0.4,0.1,0.7
		c0,0.5-0.1,1-0.2,1.5c-0.1,0.5-0.3,1-0.5,1.5c-0.1,0.2-0.2,0.4-0.4,0.6c-0.2,0.2-0.3,0.5-0.5,0.6c-0.2,0.2-0.4,0.4-0.6,0.5
		C258,300.9,257.8,300.9,257.5,300.9L257.5,300.9L257.5,300.9z M257.6,300.7c0.2,0,0.4-0.1,0.6-0.3c0.2-0.2,0.4-0.5,0.5-0.8
		c0.1-0.3,0.3-0.7,0.4-1c0.1-0.3,0.2-0.6,0.2-0.9h-2c-0.1,0.4-0.2,0.7-0.2,1c-0.1,0.3-0.1,0.6-0.1,0.9
		C257.1,300.3,257.2,300.7,257.6,300.7L257.6,300.7z M257.4,297.3h2c0.1-0.3,0.1-0.5,0.2-0.7c0-0.2,0.1-0.4,0.1-0.6
		c0-0.2,0-0.4,0-0.6c0-0.8-0.2-1.1-0.5-1.1c-0.4,0-0.8,0.3-1.1,1C257.9,295.9,257.6,296.6,257.4,297.3L257.4,297.3z"/>
	<g>
		<path class="st2" d="M264.2,293.7h1.9v0.7H265v7.7h1.1v0.7h-1.9V293.7z"/>
		<path class="st2" d="M267.1,295.6h0.4h0.4v0.9c0.1-0.1,0.2-0.3,0.2-0.4c0.3-0.4,0.7-0.7,1.2-0.7c0.1,0,0.2,0,0.2,0v0.9l-0.2,0
			c-0.5,0-0.8,0.1-1.1,0.4c-0.3,0.3-0.4,0.7-0.4,1.2v2.8h-0.4h-0.4V295.6z"/>
		<path class="st2" d="M271.6,301c-0.5,0-0.9-0.1-1.2-0.4c-0.3-0.3-0.4-0.6-0.4-1.1c0-0.5,0.1-0.8,0.4-1.1c0.3-0.3,0.7-0.4,1.2-0.5
			l1.2-0.2c0.1,0,0.2,0,0.3,0c0.1,0,0.2-0.1,0.3-0.2c0.1-0.1,0.1-0.2,0.1-0.3v0c0-0.3-0.1-0.5-0.3-0.7c-0.2-0.2-0.5-0.2-0.9-0.2
			c-0.4,0-0.6,0.1-0.8,0.2s-0.3,0.4-0.4,0.7h-0.8c0-0.6,0.2-1,0.6-1.3c0.4-0.3,0.9-0.4,1.5-0.4c0.6,0,1.1,0.1,1.4,0.4
			c0.3,0.3,0.5,0.7,0.5,1.2v2.8c0,0.1,0,0.2,0.1,0.2c0.1,0.1,0.1,0.1,0.2,0.1c0,0,0.1,0,0.1,0c0,0,0.1,0,0.2,0v0.6
			c-0.1,0-0.2,0.1-0.3,0.1c-0.1,0-0.2,0-0.2,0c-0.3,0-0.6-0.1-0.7-0.3c-0.1-0.1-0.2-0.3-0.2-0.5c-0.1,0.1-0.1,0.2-0.2,0.2
			C272.8,300.8,272.2,301,271.6,301z M273.4,298.8v-0.6c-0.2,0.1-0.3,0.1-0.5,0.2l-0.8,0.1c-0.4,0.1-0.7,0.2-0.9,0.3
			c-0.2,0.1-0.3,0.3-0.3,0.6c0,0.3,0.1,0.5,0.2,0.7c0.2,0.2,0.4,0.2,0.7,0.2c0.5,0,0.8-0.1,1.2-0.4c0.2-0.2,0.4-0.4,0.4-0.6
			c0,0,0-0.1,0-0.2C273.4,299,273.4,298.9,273.4,298.8z"/>
		<path class="st2" d="M277.7,301c-0.7,0-1.2-0.3-1.7-0.8s-0.6-1.2-0.6-2.1c0-0.8,0.2-1.4,0.6-1.9c0.4-0.5,0.9-0.7,1.6-0.7
			c0.6,0,1.1,0.3,1.5,0.8l0.1,0.1v-2.7h0.4h0.4v7.1h-0.4h-0.4v-0.7l-0.1,0.2C278.8,300.7,278.3,301,277.7,301z M277.8,296.3
			c-0.5,0-0.8,0.2-1.1,0.5c-0.2,0.3-0.3,0.8-0.3,1.5c0,0.6,0.1,1.1,0.4,1.5s0.6,0.5,1,0.5c0.4,0,0.8-0.2,1-0.5s0.4-0.7,0.4-1.3
			c0-0.7-0.1-1.2-0.4-1.6S278.2,296.3,277.8,296.3z"/>
		<path class="st2" d="M281.5,299.8h1v1h-1V299.8z"/>
	</g>
	<g>
		<path class="st2" d="M285.3,297.1c0-0.3-0.1-0.5-0.4-0.7c-0.2-0.2-0.5-0.2-0.8-0.2c-0.4,0-0.6,0.1-0.8,0.2
			c-0.2,0.1-0.3,0.3-0.3,0.6c0,0.2,0.1,0.3,0.2,0.4c0.1,0.1,0.4,0.2,0.8,0.3l0.9,0.2c0.5,0.1,0.9,0.3,1.1,0.5
			c0.2,0.2,0.3,0.5,0.3,0.9c0,0.5-0.2,0.9-0.6,1.2s-0.9,0.5-1.5,0.5c-0.7,0-1.3-0.1-1.6-0.4c-0.4-0.3-0.6-0.7-0.6-1.4h0.8
			c0,0.4,0.2,0.6,0.4,0.8s0.6,0.2,1,0.2c0.4,0,0.7-0.1,0.9-0.2c0.2-0.1,0.3-0.4,0.3-0.6c0-0.2-0.1-0.3-0.2-0.4
			c-0.1-0.1-0.4-0.2-0.8-0.3l-0.9-0.2c-0.5-0.1-0.8-0.3-1-0.5c-0.2-0.2-0.3-0.5-0.3-0.9c0-0.5,0.2-0.9,0.5-1.2s0.8-0.4,1.4-0.4
			c0.6,0,1.1,0.1,1.4,0.4c0.4,0.3,0.5,0.7,0.6,1.2H285.3z"/>
	</g>
	<g>
		<path class="st2" d="M288.7,293.5h1.9v0.7h-1.9V293.5z"/>
		<path class="st2" d="M293.1,292.1h-1.3v-0.6c0.4,0,0.7-0.1,0.9-0.2c0.2-0.2,0.4-0.4,0.5-0.8h0.6v5.6h-0.4h-0.4V292.1z"/>
	</g>
	<g>
		<path class="st2" d="M297.7,302.8h-1.9v-0.7h1.1v-7.7h-1.1v-0.7h1.9V302.8z"/>
	</g>
	<path class="st1" d="M200.2,272V15.2 M341.2,272V15.2 M200.2,272h2.6 M200.2,207.8h2.6 M200.2,143.6h2.6 M200.2,79.4h2.6
		 M200.2,15.2h2.6 M341.2,272h-2.6 M341.2,207.8h-2.6 M341.2,143.6h-2.6 M341.2,79.4h-2.6 M341.2,15.2h-2.6"/>
	<g>
		<path class="st2" d="M189.2,272.7h2.2v0.8h-2.2V272.7z"/>
	</g>
	<path class="st3" d="M192.7,275.5c0,0,0-0.1,0-0.1c0.2-0.4,0.3-0.7,0.5-1c0.1-0.3,0.3-0.7,0.4-1s0.2-0.7,0.3-1h-0.6
		c-0.2,0-0.4,0.1-0.6,0.2c-0.2,0.1-0.3,0.3-0.5,0.5c0,0,0,0-0.1,0h-0.1c-0.1,0-0.1,0-0.1-0.1c0,0,0,0,0-0.1c0.2-0.3,0.4-0.6,0.6-0.8
		c0.2-0.2,0.5-0.3,0.8-0.3h3.3c0.1,0,0.1,0,0.2,0.1c0,0,0.1,0.1,0.1,0.2c0,0.1,0,0.2-0.1,0.2c-0.1,0.1-0.1,0.1-0.2,0.1h-1.1
		c-0.1,0.5-0.2,0.9-0.2,1.4c0,0.6,0.1,1.1,0.3,1.6c0,0,0,0.1,0,0.1c0,0.1,0,0.1-0.1,0.2c0,0.1-0.1,0.1-0.1,0.1
		c-0.1,0-0.1,0.1-0.2,0.1c-0.2,0-0.3-0.1-0.3-0.4c-0.1-0.3-0.1-0.5-0.1-0.8c0-0.3,0-0.7,0.1-1c0.1-0.3,0.2-0.8,0.3-1.3h-1
		c-0.5,1.9-0.8,3-0.9,3.2c-0.1,0.2-0.2,0.2-0.3,0.2c-0.1,0-0.1,0-0.2-0.1C192.7,275.6,192.7,275.5,192.7,275.5L192.7,275.5z"/>
	<g>
		<path class="st2" d="M181.4,208.5h2.2v0.8h-2.2V208.5z"/>
	</g>
	<path class="st3" d="M184.9,211.3c0,0,0-0.1,0-0.1c0.2-0.4,0.3-0.7,0.5-1c0.1-0.3,0.3-0.7,0.4-1c0.1-0.3,0.2-0.7,0.3-1h-0.6
		c-0.2,0-0.4,0.1-0.6,0.2c-0.2,0.1-0.3,0.3-0.5,0.5c0,0,0,0-0.1,0h-0.1c-0.1,0-0.1,0-0.1-0.1c0,0,0,0,0-0.1c0.2-0.3,0.4-0.6,0.6-0.8
		c0.2-0.2,0.5-0.3,0.8-0.3h3.3c0.1,0,0.1,0,0.2,0.1c0,0,0.1,0.1,0.1,0.2c0,0.1,0,0.2-0.1,0.2c-0.1,0.1-0.1,0.1-0.2,0.1h-1.1
		c-0.1,0.5-0.2,0.9-0.2,1.4c0,0.6,0.1,1.1,0.3,1.6c0,0,0,0.1,0,0.1c0,0.1,0,0.1-0.1,0.2c0,0.1-0.1,0.1-0.2,0.1
		c-0.1,0-0.1,0.1-0.2,0.1c-0.2,0-0.3-0.1-0.3-0.4c-0.1-0.3-0.1-0.5-0.1-0.8c0-0.3,0-0.7,0.1-1c0.1-0.3,0.2-0.8,0.3-1.3h-1
		c-0.5,1.9-0.8,3-0.9,3.2c-0.1,0.2-0.2,0.2-0.3,0.2c-0.1,0-0.1,0-0.2-0.1C184.9,211.4,184.9,211.3,184.9,211.3L184.9,211.3z"/>
	<g>
		<path class="st2" d="M192,204.8l-2.2,6.8h-0.6l2.2-6.8H192z"/>
		<path class="st2" d="M196.5,206.9c0,0.5-0.1,0.8-0.4,1.1c-0.2,0.3-0.7,0.6-1.3,1c-0.7,0.4-1.2,0.8-1.5,1.1
			c-0.1,0.1-0.2,0.3-0.3,0.5h3.4v0.8h-4.3v0c0-0.7,0.2-1.2,0.5-1.6c0.3-0.4,1-0.9,1.9-1.4c0.4-0.2,0.7-0.5,0.9-0.7
			c0.2-0.2,0.2-0.5,0.2-0.8c0-0.3-0.1-0.6-0.4-0.8c-0.2-0.2-0.5-0.3-0.9-0.3c-0.4,0-0.7,0.1-0.9,0.4c-0.2,0.3-0.3,0.7-0.4,1.1h-0.8
			c0-0.7,0.2-1.2,0.6-1.6c0.4-0.4,0.9-0.6,1.6-0.6c0.6,0,1.1,0.2,1.4,0.5C196.3,206,196.5,206.4,196.5,206.9z"/>
	</g>
	<g>
		<path class="st2" d="M192.9,146.5c-0.4-0.6-0.6-1.4-0.6-2.4s0.2-1.8,0.6-2.4c0.4-0.6,0.9-0.8,1.6-0.8c0.7,0,1.2,0.3,1.6,0.8
			c0.4,0.6,0.6,1.4,0.6,2.4s-0.2,1.8-0.6,2.4c-0.4,0.6-0.9,0.8-1.6,0.8C193.8,147.4,193.3,147.1,192.9,146.5z M195.5,146
			c0.2-0.4,0.3-1.1,0.3-1.9c0-0.8-0.1-1.5-0.3-1.9c-0.2-0.4-0.6-0.6-1-0.6c-0.4,0-0.8,0.2-1,0.6c-0.2,0.4-0.3,1.1-0.3,1.9
			c0,0.8,0.1,1.5,0.3,1.9c0.2,0.4,0.5,0.6,1,0.6C194.9,146.7,195.3,146.5,195.5,146z"/>
	</g>
	<path class="st3" d="M184.9,82.9c0,0,0-0.1,0-0.1c0.2-0.3,0.3-0.7,0.5-1c0.1-0.3,0.3-0.7,0.4-1c0.1-0.3,0.2-0.7,0.3-1h-0.6
		c-0.2,0-0.4,0.1-0.6,0.2c-0.2,0.1-0.3,0.3-0.5,0.5c0,0,0,0-0.1,0h-0.1c-0.1,0-0.1,0-0.1-0.1c0,0,0,0,0-0.1c0.2-0.3,0.4-0.6,0.6-0.8
		c0.2-0.2,0.5-0.3,0.8-0.3h3.3c0.1,0,0.1,0,0.2,0.1c0,0,0.1,0.1,0.1,0.2c0,0.1,0,0.2-0.1,0.2c-0.1,0.1-0.1,0.1-0.2,0.1h-1.1
		c-0.1,0.5-0.2,0.9-0.2,1.4c0,0.6,0.1,1.1,0.3,1.6c0,0,0,0.1,0,0.1c0,0.1,0,0.1-0.1,0.2c0,0.1-0.1,0.1-0.2,0.1
		c-0.1,0-0.1,0.1-0.2,0.1c-0.2,0-0.3-0.1-0.3-0.4c-0.1-0.3-0.1-0.5-0.1-0.8c0-0.3,0-0.7,0.1-1c0.1-0.3,0.2-0.8,0.3-1.3h-1
		c-0.5,1.9-0.8,3-0.9,3.2c-0.1,0.2-0.2,0.2-0.3,0.2c-0.1,0-0.1,0-0.2-0.1C184.9,83,184.9,82.9,184.9,82.9L184.9,82.9z"/>
	<g>
		<path class="st2" d="M192,76.4l-2.2,6.8h-0.6l2.2-6.8H192z"/>
		<path class="st2" d="M196.5,78.5c0,0.5-0.1,0.8-0.4,1.1c-0.2,0.3-0.7,0.6-1.3,1c-0.7,0.4-1.2,0.8-1.5,1.1
			c-0.1,0.1-0.2,0.3-0.3,0.5h3.4V83h-4.3v0c0-0.7,0.2-1.2,0.5-1.6c0.3-0.4,1-0.9,1.9-1.4c0.4-0.2,0.7-0.5,0.9-0.7s0.2-0.5,0.2-0.8
			c0-0.3-0.1-0.6-0.4-0.8s-0.5-0.3-0.9-0.3c-0.4,0-0.7,0.1-0.9,0.4c-0.2,0.3-0.3,0.6-0.4,1.1h-0.8c0-0.7,0.2-1.2,0.6-1.6
			c0.4-0.4,0.9-0.6,1.6-0.6c0.6,0,1.1,0.2,1.4,0.5C196.3,77.5,196.5,78,196.5,78.5z"/>
	</g>
	<path class="st3" d="M192.7,18.7c0,0,0-0.1,0-0.1c0.2-0.4,0.3-0.7,0.5-1c0.1-0.3,0.3-0.7,0.4-1c0.1-0.3,0.2-0.7,0.3-1h-0.6
		c-0.2,0-0.4,0.1-0.6,0.2c-0.2,0.1-0.3,0.3-0.5,0.5c0,0,0,0-0.1,0h-0.1c-0.1,0-0.1,0-0.1-0.1c0,0,0,0,0-0.1c0.2-0.3,0.4-0.6,0.6-0.8
		c0.2-0.2,0.5-0.3,0.8-0.3h3.3c0.1,0,0.1,0,0.2,0.1c0,0,0.1,0.1,0.1,0.2c0,0.1,0,0.2-0.1,0.2c-0.1,0.1-0.1,0.1-0.2,0.1h-1.1
		c-0.1,0.5-0.2,0.9-0.2,1.4c0,0.6,0.1,1.1,0.3,1.6c0,0,0,0.1,0,0.1c0,0.1,0,0.1-0.1,0.2c0,0.1-0.1,0.1-0.1,0.1
		c-0.1,0-0.1,0.1-0.2,0.1c-0.2,0-0.3-0.1-0.3-0.4c-0.1-0.3-0.1-0.5-0.1-0.8c0-0.3,0-0.7,0.1-1c0.1-0.3,0.2-0.8,0.3-1.3h-1
		c-0.5,1.9-0.8,3-0.9,3.2c-0.1,0.2-0.2,0.2-0.3,0.2c-0.1,0-0.1,0-0.2-0.1C192.7,18.8,192.7,18.7,192.7,18.7L192.7,18.7z"/>
	<g>
		<path class="st4" d="M222.5,8.5c-0.4,0.3-1,0.5-1.8,0.5h-1.5v2.6h-1.5V4.5h3.1c0.7,0,1.3,0.2,1.7,0.6c0.4,0.4,0.6,0.9,0.6,1.7
			C223.2,7.6,223,8.2,222.5,8.5z M221.4,6c-0.2-0.2-0.5-0.2-0.8-0.2h-1.3v2.1h1.3c0.3,0,0.6-0.1,0.8-0.3s0.3-0.4,0.3-0.8
			C221.7,6.4,221.6,6.1,221.4,6z"/>
		<path class="st4" d="M228,6.4c0.3,0.1,0.5,0.3,0.7,0.5c0.1,0.2,0.2,0.4,0.3,0.6s0,0.5,0,1v3.1h-1.4V8.4c0-0.3,0-0.5-0.1-0.7
			c-0.1-0.2-0.4-0.4-0.7-0.4c-0.4,0-0.6,0.1-0.8,0.4c-0.2,0.2-0.3,0.6-0.3,1v2.9h-1.4V4.5h1.4V7c0.2-0.3,0.4-0.5,0.7-0.6
			c0.3-0.1,0.5-0.2,0.8-0.2C227.5,6.2,227.8,6.3,228,6.4z"/>
		<path class="st4" d="M232.4,8.4c0.3,0,0.4-0.1,0.6-0.1c0.2-0.1,0.3-0.2,0.3-0.4c0-0.2-0.1-0.4-0.2-0.4c-0.2-0.1-0.4-0.1-0.7-0.1
			c-0.3,0-0.6,0.1-0.7,0.2c-0.1,0.1-0.2,0.3-0.2,0.5h-1.3c0-0.5,0.2-0.8,0.4-1.1c0.4-0.5,1-0.7,1.9-0.7c0.6,0,1.1,0.1,1.5,0.3
			c0.5,0.2,0.7,0.7,0.7,1.3v2.4c0,0.2,0,0.4,0,0.6c0,0.2,0,0.3,0.1,0.4c0,0.1,0.1,0.1,0.2,0.2v0.2h-1.5c0-0.1-0.1-0.2-0.1-0.3
			c0-0.1,0-0.2,0-0.3c-0.2,0.2-0.4,0.4-0.7,0.5c-0.3,0.2-0.6,0.3-1,0.3c-0.5,0-0.9-0.1-1.2-0.4c-0.3-0.3-0.5-0.7-0.5-1.2
			c0-0.6,0.3-1.1,0.8-1.4c0.3-0.2,0.7-0.3,1.2-0.3L232.4,8.4z M233.2,9.1c-0.1,0.1-0.2,0.1-0.3,0.1c-0.1,0-0.2,0.1-0.4,0.1l-0.3,0.1
			c-0.3,0.1-0.5,0.1-0.6,0.2c-0.2,0.1-0.3,0.3-0.3,0.6c0,0.2,0.1,0.4,0.2,0.5c0.1,0.1,0.3,0.2,0.5,0.2c0.3,0,0.6-0.1,0.8-0.3
			c0.3-0.2,0.4-0.5,0.4-1V9.1z"/>
		<path class="st4" d="M236.9,9.9c0,0.2,0.1,0.4,0.2,0.5c0.2,0.2,0.5,0.3,1,0.3c0.3,0,0.5,0,0.6-0.1s0.2-0.2,0.2-0.4
			c0-0.2-0.1-0.3-0.2-0.4s-0.6-0.2-1.4-0.4c-0.6-0.1-1-0.3-1.3-0.6c-0.2-0.2-0.4-0.5-0.4-0.9c0-0.5,0.2-0.9,0.6-1.3s0.9-0.5,1.6-0.5
			c0.7,0,1.2,0.1,1.6,0.4s0.7,0.7,0.7,1.4h-1.4c0-0.2-0.1-0.3-0.2-0.4c-0.2-0.2-0.4-0.3-0.8-0.3c-0.3,0-0.5,0-0.6,0.1
			c-0.1,0.1-0.2,0.2-0.2,0.3c0,0.2,0.1,0.3,0.2,0.3c0.1,0.1,0.6,0.2,1.4,0.4c0.5,0.1,1,0.3,1.2,0.6c0.3,0.3,0.4,0.6,0.4,1
			c0,0.5-0.2,0.9-0.6,1.3c-0.4,0.3-1,0.5-1.8,0.5c-0.8,0-1.4-0.2-1.8-0.5s-0.6-0.8-0.6-1.3H236.9z"/>
		<path class="st4" d="M244.7,6.5c0.4,0.2,0.7,0.4,0.9,0.8c0.2,0.3,0.4,0.7,0.4,1.1c0,0.2,0.1,0.6,0,1h-3.8c0,0.5,0.2,0.9,0.6,1.1
			c0.2,0.1,0.5,0.2,0.8,0.2c0.3,0,0.6-0.1,0.8-0.2c0.1-0.1,0.2-0.2,0.3-0.4h1.4c0,0.3-0.2,0.6-0.5,1c-0.5,0.5-1.1,0.8-2,0.8
			c-0.7,0-1.3-0.2-1.9-0.6c-0.5-0.4-0.8-1.1-0.8-2.1c0-0.9,0.2-1.6,0.7-2.1c0.5-0.5,1.1-0.7,1.9-0.7C244,6.2,244.4,6.3,244.7,6.5z
			 M242.7,7.6c-0.2,0.2-0.3,0.5-0.4,0.8h2.4c0-0.4-0.1-0.6-0.4-0.8s-0.5-0.3-0.8-0.3C243.1,7.3,242.9,7.4,242.7,7.6z"/>
		<path class="st4" d="M252.5,6.2c0,0,0.1,0,0.1,0v1.4c-0.1,0-0.2,0-0.2,0c-0.1,0-0.1,0-0.2,0c-0.6,0-0.9,0.2-1.1,0.5
			c-0.1,0.2-0.2,0.5-0.2,0.9v2.5h-1.4V6.3h1.3v0.9c0.2-0.4,0.4-0.6,0.6-0.7C251.7,6.3,252,6.2,252.5,6.2
			C252.4,6.2,252.5,6.2,252.5,6.2z"/>
		<path class="st4" d="M256.8,6.5c0.4,0.2,0.7,0.4,0.9,0.8c0.2,0.3,0.4,0.7,0.4,1.1c0,0.2,0.1,0.6,0,1h-3.8c0,0.5,0.2,0.9,0.6,1.1
			c0.2,0.1,0.5,0.2,0.8,0.2c0.3,0,0.6-0.1,0.8-0.2c0.1-0.1,0.2-0.2,0.3-0.4h1.4c0,0.3-0.2,0.6-0.5,1c-0.5,0.5-1.1,0.8-2,0.8
			c-0.7,0-1.3-0.2-1.9-0.6C253.3,10.7,253,10,253,9c0-0.9,0.2-1.6,0.7-2.1c0.5-0.5,1.1-0.7,1.9-0.7C256.1,6.2,256.5,6.3,256.8,6.5z
			 M254.8,7.6c-0.2,0.2-0.3,0.5-0.4,0.8h2.4c0-0.4-0.1-0.6-0.4-0.8s-0.5-0.3-0.8-0.3C255.3,7.3,255,7.4,254.8,7.6z"/>
		<path class="st4" d="M260,9.9c0,0.2,0.1,0.4,0.2,0.5c0.2,0.2,0.5,0.3,1,0.3c0.3,0,0.5,0,0.6-0.1s0.2-0.2,0.2-0.4
			c0-0.2-0.1-0.3-0.2-0.4s-0.6-0.2-1.4-0.4c-0.6-0.1-1-0.3-1.3-0.6c-0.2-0.2-0.4-0.5-0.4-0.9c0-0.5,0.2-0.9,0.6-1.3s0.9-0.5,1.6-0.5
			c0.7,0,1.2,0.1,1.6,0.4s0.7,0.7,0.7,1.4h-1.4c0-0.2-0.1-0.3-0.2-0.4c-0.2-0.2-0.4-0.3-0.8-0.3c-0.3,0-0.5,0-0.6,0.1
			c-0.1,0.1-0.2,0.2-0.2,0.3c0,0.2,0.1,0.3,0.2,0.3c0.1,0.1,0.6,0.2,1.4,0.4c0.5,0.1,1,0.3,1.2,0.6c0.3,0.3,0.4,0.6,0.4,1
			c0,0.5-0.2,0.9-0.6,1.3c-0.4,0.3-1,0.5-1.8,0.5c-0.8,0-1.4-0.2-1.8-0.5s-0.6-0.8-0.6-1.3H260z"/>
		<path class="st4" d="M268.9,6.9c0.4,0.5,0.6,1.1,0.6,2c0,0.9-0.2,1.6-0.6,2.1c-0.4,0.5-1,0.7-1.6,0.7c-0.4,0-0.8-0.1-1.1-0.3
			c-0.2-0.1-0.3-0.3-0.4-0.5v2.7h-1.4V6.3h1.3v0.8c0.1-0.2,0.3-0.4,0.5-0.5c0.3-0.2,0.7-0.4,1.1-0.4C267.9,6.2,268.4,6.5,268.9,6.9z
			 M267.8,7.9c-0.2-0.3-0.5-0.5-0.9-0.5c-0.5,0-0.9,0.2-1,0.7c-0.1,0.3-0.1,0.6-0.1,1c0,0.6,0.2,1,0.5,1.3c0.2,0.1,0.4,0.2,0.7,0.2
			c0.4,0,0.7-0.1,0.9-0.4c0.2-0.3,0.3-0.7,0.3-1.2C268.1,8.6,268,8.2,267.8,7.9z"/>
		<path class="st4" d="M274.9,11c-0.4,0.5-1.1,0.8-2,0.8c-0.9,0-1.6-0.3-2-0.8c-0.4-0.5-0.7-1.2-0.7-2c0-0.8,0.2-1.4,0.7-2
			c0.4-0.6,1.1-0.8,2-0.8c0.9,0,1.6,0.3,2,0.8s0.7,1.2,0.7,2C275.5,9.8,275.3,10.4,274.9,11z M273.8,10.2c0.2-0.3,0.3-0.7,0.3-1.2
			c0-0.5-0.1-0.9-0.3-1.2s-0.5-0.4-0.9-0.4c-0.4,0-0.7,0.1-0.9,0.4s-0.3,0.7-0.3,1.2c0,0.5,0.1,0.9,0.3,1.2c0.2,0.3,0.5,0.4,0.9,0.4
			C273.2,10.6,273.5,10.5,273.8,10.2z"/>
		<path class="st4" d="M280.8,6.6c0.3,0.3,0.5,0.8,0.5,1.4v3.5h-1.4V8.4c0-0.3,0-0.5-0.1-0.6c-0.1-0.3-0.4-0.4-0.8-0.4
			c-0.5,0-0.8,0.2-1,0.6c-0.1,0.2-0.1,0.5-0.1,0.8v2.9h-1.4V6.4h1.3v0.8c0.2-0.3,0.3-0.5,0.5-0.6c0.3-0.2,0.6-0.3,1.1-0.3
			C280,6.2,280.4,6.4,280.8,6.6z"/>
		<path class="st4" d="M283.6,9.9c0,0.2,0.1,0.4,0.2,0.5c0.2,0.2,0.5,0.3,1,0.3c0.3,0,0.5,0,0.6-0.1s0.2-0.2,0.2-0.4
			c0-0.2-0.1-0.3-0.2-0.4s-0.6-0.2-1.4-0.4c-0.6-0.1-1-0.3-1.3-0.6c-0.2-0.2-0.4-0.5-0.4-0.9c0-0.5,0.2-0.9,0.6-1.3s0.9-0.5,1.6-0.5
			c0.7,0,1.2,0.1,1.6,0.4s0.7,0.7,0.7,1.4h-1.4c0-0.2-0.1-0.3-0.2-0.4c-0.2-0.2-0.4-0.3-0.8-0.3c-0.3,0-0.5,0-0.6,0.1
			c-0.1,0.1-0.2,0.2-0.2,0.3c0,0.2,0.1,0.3,0.2,0.3c0.1,0.1,0.6,0.2,1.4,0.4c0.5,0.1,1,0.3,1.2,0.6c0.3,0.3,0.4,0.6,0.4,1
			c0,0.5-0.2,0.9-0.6,1.3c-0.4,0.3-1,0.5-1.8,0.5c-0.8,0-1.4-0.2-1.8-0.5s-0.6-0.8-0.6-1.3H283.6z"/>
		<path class="st4" d="M291.5,6.5c0.4,0.2,0.7,0.4,0.9,0.8c0.2,0.3,0.4,0.7,0.4,1.1c0,0.2,0.1,0.6,0,1H289c0,0.5,0.2,0.9,0.6,1.1
			c0.2,0.1,0.5,0.2,0.8,0.2c0.3,0,0.6-0.1,0.8-0.2c0.1-0.1,0.2-0.2,0.3-0.4h1.4c0,0.3-0.2,0.6-0.5,1c-0.5,0.5-1.1,0.8-2,0.8
			c-0.7,0-1.3-0.2-1.9-0.6c-0.5-0.4-0.8-1.1-0.8-2.1c0-0.9,0.2-1.6,0.7-2.1c0.5-0.5,1.1-0.7,1.9-0.7C290.7,6.2,291.1,6.3,291.5,6.5z
			 M289.4,7.6c-0.2,0.2-0.3,0.5-0.4,0.8h2.4c0-0.4-0.1-0.6-0.4-0.8s-0.5-0.3-0.8-0.3C289.9,7.3,289.6,7.4,289.4,7.6z"/>
	</g>
	<path d="M297.4,11.6v-0.3c0.8,0,1.2-0.1,1.2-0.3v-0.7c-0.6-0.1-1.2-0.2-1.6-0.6c-0.2-0.2-0.4-0.4-0.6-0.6c-0.2-0.2-0.2-0.5-0.2-0.8
		c0-0.3,0.1-0.5,0.2-0.8c0.2-0.2,0.4-0.4,0.6-0.6c0.2-0.2,0.5-0.3,0.8-0.4c0.3-0.1,0.6-0.1,0.9-0.2V5.7c0-0.2-0.4-0.3-1.2-0.3V5h3.9
		v0.3c-0.8,0-1.2,0.1-1.2,0.3v0.7c0.3,0,0.5,0,0.8,0.1c0.3,0.1,0.6,0.2,0.8,0.4c0.3,0.2,0.5,0.4,0.6,0.6c0.2,0.2,0.2,0.5,0.2,0.8
		c0,0.3-0.1,0.5-0.2,0.8c-0.2,0.2-0.4,0.4-0.6,0.6c-0.3,0.2-0.5,0.3-0.8,0.4c-0.3,0.1-0.6,0.1-0.8,0.1V11c0,0.2,0.4,0.3,1.2,0.3v0.3
		H297.4L297.4,11.6z M300,10c0.1,0,0.3-0.2,0.6-0.4c0.3-0.3,0.4-0.7,0.4-1.2c0-0.5-0.1-0.9-0.4-1.2c-0.3-0.3-0.5-0.4-0.6-0.4V10
		L300,10z M298.6,9.9V6.7c-0.6,0.1-0.9,0.6-0.9,1.6C297.7,9.3,298,9.9,298.6,9.9L298.6,9.9z"/>
	<g>
		<path class="st4" d="M304.4,6.2c0.2-0.5,0.5-1,0.7-1.4l0.3-0.5l0.8,0c-0.4,0.8-0.8,1.5-0.9,1.9c-0.3,0.8-0.4,1.7-0.4,2.7
			c0,0.6,0.1,1.2,0.2,1.7c0.2,0.8,0.4,1.6,0.8,2.3l0.3,0.5h-0.8c-0.5-0.7-0.9-1.4-1.2-2.1c-0.3-0.8-0.5-1.6-0.5-2.4
			C303.7,8.1,303.9,7.2,304.4,6.2z"/>
		<path class="st4" d="M310.8,6.5c0.4,0.2,0.7,0.4,0.9,0.8c0.2,0.3,0.4,0.7,0.4,1.1c0,0.2,0.1,0.6,0,1h-3.8c0,0.5,0.2,0.9,0.6,1.1
			c0.2,0.1,0.5,0.2,0.8,0.2c0.3,0,0.6-0.1,0.8-0.2c0.1-0.1,0.2-0.2,0.3-0.4h1.4c0,0.3-0.2,0.6-0.5,1c-0.5,0.5-1.1,0.8-2,0.8
			c-0.7,0-1.3-0.2-1.9-0.6c-0.5-0.4-0.8-1.1-0.8-2.1c0-0.9,0.2-1.6,0.7-2.1c0.5-0.5,1.1-0.7,1.9-0.7C310,6.2,310.4,6.3,310.8,6.5z
			 M308.7,7.6c-0.2,0.2-0.3,0.5-0.4,0.8h2.4c0-0.4-0.1-0.6-0.4-0.8s-0.5-0.3-0.8-0.3C309.2,7.3,308.9,7.4,308.7,7.6z"/>
	</g>
	<g>
		<path class="st4" d="M312.4,7.6c0.1,0,0.1,0,0.1,0c0,0,0,0,0.1,0c0.1,0,0.2,0,0.2-0.1c0.1-0.1,0.1-0.2,0.1-0.3V2.6h1.1v4.6
			c0,0.4-0.1,0.7-0.3,0.9c-0.2,0.2-0.5,0.3-1,0.3c0,0-0.1,0-0.1,0s-0.1,0-0.2,0V7.6z M314.1,2.1H313v-1h1.1V2.1z"/>
	</g>
	<path d="M318.5,6.9c-0.2,0-0.4-0.1-0.6-0.3c-0.1-0.2-0.2-0.4-0.3-0.6c-0.1-0.2-0.1-0.5-0.1-0.7v0c0-0.3,0-0.5,0.1-0.8
		c0-0.3,0.1-0.6,0.2-0.8s0.2-0.5,0.3-0.7c0.1-0.1,0.2-0.3,0.3-0.5c0.1-0.2,0.3-0.4,0.4-0.5c0.1-0.2,0.3-0.3,0.5-0.4
		c0.2-0.1,0.3-0.2,0.5-0.2h0c0.6,0,0.9,0.1,1.1,0.2c0.1,0.1,0.2,0.2,0.3,0.4c0.1,0.2,0.1,0.3,0.1,0.5c0,0.2,0,0.4,0,0.5
		c0,0.4-0.1,0.8-0.2,1.2c-0.1,0.4-0.3,0.8-0.4,1.2c-0.1,0.1-0.2,0.3-0.3,0.5c-0.1,0.2-0.3,0.4-0.4,0.5c-0.1,0.2-0.3,0.3-0.5,0.4
		C319.4,6.8,319,6.9,318.5,6.9L318.5,6.9L318.5,6.9z M318.7,6.7c0,0,0.2-0.1,0.3-0.3c0.2-0.2,0.3-0.4,0.4-0.7
		c0.1-0.3,0.2-0.5,0.3-0.8c0.1-0.3,0.2-0.5,0.2-0.7h-1c-0.1,0.3-0.1,0.6-0.2,0.9c0,0.2-0.1,0.5-0.1,0.7
		C318.7,6.4,318.7,6.7,318.7,6.7L318.7,6.7z M319,4h1c0.1-0.2,0.1-0.4,0.1-0.6c0-0.2,0.1-0.3,0.1-0.5c0-0.2,0-0.3,0-0.5
		c0-0.6-0.1-0.9-0.4-0.9c0,0-0.1,0.3-0.3,0.8C319.3,2.8,319.1,3.4,319,4L319,4z"/>
	<g>
		<path class="st4" d="M323.7,6.3c0.4,0.9,0.6,1.7,0.6,2.6c0,1-0.2,2-0.7,3c-0.3,0.6-0.5,1-0.7,1.3l-0.3,0.5h-1
			c0.4-0.8,0.7-1.4,0.9-1.9c0.3-0.8,0.4-1.7,0.4-2.7c0-0.6-0.1-1.2-0.2-1.8c-0.2-0.8-0.4-1.6-0.8-2.3l-0.3-0.5h1
			C323.1,5.1,323.4,5.7,323.7,6.3z"/>
	</g>
	<polyline class="st6" points="200.2,15.2 200.5,20.9 200.8,26.5 201,31.9 201.3,36.9 201.6,41.6 201.9,45.9 202.2,49.8 202.5,53.4 
		202.7,56.7 203,59.7 203.3,62.5 203.6,65.1 203.9,67.5 204.1,69.7 204.4,71.8 204.7,73.8 205,75.7 205.3,77.5 205.6,79.2 
		205.8,80.8 206.1,82.4 206.4,83.9 206.7,85.4 207,86.8 207.3,88.2 207.5,89.6 207.8,90.9 208.1,92.2 208.4,93.5 208.7,94.7 
		208.9,96 209.2,97.2 209.5,98.4 209.8,99.5 210.1,100.7 210.4,101.9 210.6,103 210.9,104.1 211.2,105.2 211.5,106.3 211.8,107.4 
		212,108.5 212.3,109.6 212.6,110.6 212.9,111.7 213.2,112.8 213.5,113.8 213.7,114.8 214,115.9 214.3,116.9 214.6,117.9 214.9,119 
		215.1,120 215.4,121 215.7,122 216,123 216.3,124 216.6,125 216.8,126 217.1,127 217.4,128 217.7,129 218,130 218.2,131 218.5,132 
		218.8,133 219.1,134 219.4,135 219.7,136 219.9,137 220.2,137.9 220.5,138.9 220.8,139.9 221.1,140.9 221.4,141.9 221.6,142.9 
		221.9,143.8 222.2,144.8 222.5,145.8 222.8,146.8 223,147.8 223.3,148.8 223.6,149.8 223.9,150.7 224.2,151.7 224.5,152.7 
		224.7,153.7 225,154.7 225.3,155.7 225.6,156.7 225.9,157.7 226.1,158.7 226.4,159.7 226.7,160.7 227,161.7 227.3,162.7 
		227.6,163.7 227.8,164.7 228.1,165.7 228.4,166.7 228.7,167.7 229,168.7 229.2,169.7 229.5,170.7 229.8,171.8 230.1,172.8 
		230.4,173.8 230.7,174.9 230.9,175.9 231.2,176.9 231.5,178 231.8,179 232.1,180.1 232.3,181.1 232.6,182.2 232.9,183.2 
		233.2,184.3 233.5,185.4 233.8,186.4 234,187.5 234.3,188.6 234.6,189.7 234.9,190.8 235.2,191.9 235.5,193 235.7,194.1 236,195.2 
		236.3,196.4 236.6,197.5 236.9,198.7 237.1,199.8 237.4,201 237.7,202.1 238,203.3 238.3,204.5 238.6,205.7 238.8,206.9 
		239.1,208.1 239.4,209.3 239.7,210.6 240,211.8 240.2,213.1 240.5,214.4 240.8,215.7 241.1,217 241.4,218.3 241.7,219.6 241.9,221 
		242.2,222.3 242.5,223.7 242.8,225.1 243.1,226.5 243.3,228 243.6,229.4 243.9,230.9 244.2,232.4 244.5,234 244.8,235.5 245,237.1 
		245.3,238.7 245.6,240.3 245.9,242 246.2,243.6 246.4,245.4 246.7,247.1 247,248.9 247.3,250.7 247.6,252.5 247.9,254.4 
		248.1,256.3 248.4,258.2 248.7,260.2 249,262.2 249.3,264.2 249.6,266.3 249.8,268.4 250.1,270.5 250.4,15.9 250.7,18.1 251,20.3 
		251.2,22.5 251.5,24.8 251.8,27.1 252.1,29.4 252.4,31.7 252.7,34 252.9,36.3 253.2,38.7 253.5,41 253.8,43.3 254.1,45.6 
		254.3,47.9 254.6,50.2 254.9,52.5 255.2,54.8 255.5,57 255.8,59.2 256,61.4 256.3,63.5 256.6,65.7 256.9,67.8 257.2,69.8 
		257.4,71.9 257.7,73.9 258,75.8 258.3,77.8 258.6,79.7 258.9,81.6 259.1,83.4 259.4,85.2 259.7,87 260,88.8 260.3,90.5 260.5,92.2 
		260.8,93.9 261.1,95.6 261.4,97.2 261.7,98.8 262,100.4 262.2,102 262.5,103.5 262.8,105.1 263.1,106.6 263.4,108.1 263.7,109.6 
		263.9,111 264.2,112.5 264.5,113.9 264.8,115.4 265.1,116.8 265.3,118.2 265.6,119.6 265.9,121 266.2,122.3 266.5,123.7 
		266.8,125.1 267,126.4 267.3,127.8 267.6,129.1 267.9,130.5 268.2,131.8 268.4,133.1 268.7,134.4 269,135.7 269.3,137.1 
		269.6,138.4 269.9,139.7 270.1,141 270.4,142.3 270.7,143.6 271,144.9 271.3,146.2 271.5,147.5 271.8,148.8 272.1,150.2 
		272.4,151.5 272.7,152.8 273,154.1 273.2,155.4 273.5,156.8 273.8,158.1 274.1,159.4 274.4,160.8 274.6,162.1 274.9,163.5 
		275.2,164.9 275.5,166.3 275.8,167.6 276.1,169 276.3,170.4 276.6,171.9 276.9,173.3 277.2,174.7 277.5,176.2 277.8,177.7 
		278,179.1 278.3,180.6 278.6,182.2 278.9,183.7 279.2,185.3 279.4,186.8 279.7,188.4 280,190 280.3,191.7 280.6,193.3 280.9,195 
		281.1,196.7 281.4,198.5 281.7,200.2 282,202 282.3,203.8 282.5,205.7 282.8,207.5 283.1,209.5 283.4,211.4 283.7,213.4 284,215.4 
		284.2,217.4 284.5,219.5 284.8,221.6 285.1,223.7 285.4,225.8 285.6,228 285.9,230.2 286.2,232.5 286.5,234.7 286.8,237 
		287.1,239.3 287.3,241.6 287.6,243.9 287.9,246.2 288.2,248.5 288.5,250.9 288.7,253.2 289,255.5 289.3,257.8 289.6,260.1 
		289.9,262.4 290.2,264.7 290.4,266.9 290.7,269.1 291,271.3 291.3,16.7 291.6,18.8 291.9,20.9 292.1,23 292.4,25 292.7,27 293,29 
		293.3,30.9 293.5,32.8 293.8,34.7 294.1,36.5 294.4,38.3 294.7,40.1 295,41.9 295.2,43.6 295.5,45.3 295.8,46.9 296.1,48.5 
		296.4,50.1 296.6,51.7 296.9,53.3 297.2,54.8 297.5,56.3 297.8,57.8 298.1,59.2 298.3,60.7 298.6,62.1 298.9,63.5 299.2,64.9 
		299.5,66.3 299.7,67.6 300,68.9 300.3,70.3 300.6,71.6 300.9,72.8 301.2,74.1 301.4,75.4 301.7,76.6 302,77.9 302.3,79.1 
		302.6,80.3 302.8,81.5 303.1,82.7 303.4,83.9 303.7,85.1 304,86.3 304.3,87.4 304.5,88.6 304.8,89.7 305.1,90.9 305.4,92 
		305.7,93.1 306,94.2 306.2,95.3 306.5,96.4 306.8,97.5 307.1,98.6 307.4,99.7 307.6,100.8 307.9,101.9 308.2,102.9 308.5,104 
		308.8,105.1 309.1,106.1 309.3,107.2 309.6,108.2 309.9,109.3 310.2,110.3 310.5,111.3 310.7,112.4 311,113.4 311.3,114.4 
		311.6,115.5 311.9,116.5 312.2,117.5 312.4,118.5 312.7,119.5 313,120.5 313.3,121.5 313.6,122.6 313.8,123.6 314.1,124.6 
		314.4,125.6 314.7,126.6 315,127.6 315.3,128.6 315.5,129.6 315.8,130.5 316.1,131.5 316.4,132.5 316.7,133.5 316.9,134.5 
		317.2,135.5 317.5,136.5 317.8,137.5 318.1,138.5 318.4,139.4 318.6,140.4 318.9,141.4 319.2,142.4 319.5,143.4 319.8,144.4 
		320.1,145.3 320.3,146.3 320.6,147.3 320.9,148.3 321.2,149.3 321.5,150.3 321.7,151.3 322,152.2 322.3,153.2 322.6,154.2 
		322.9,155.2 323.2,156.2 323.4,157.2 323.7,158.2 324,159.2 324.3,160.2 324.6,161.2 324.8,162.2 325.1,163.2 325.4,164.2 
		325.7,165.2 326,166.2 326.3,167.2 326.5,168.3 326.8,169.3 327.1,170.3 327.4,171.3 327.7,172.4 327.9,173.4 328.2,174.5 
		328.5,175.5 328.8,176.6 329.1,177.7 329.4,178.7 329.6,179.8 329.9,180.9 330.2,182 330.5,183.1 330.8,184.2 331,185.4 
		331.3,186.5 331.6,187.7 331.9,188.8 332.2,190 332.5,191.2 332.7,192.5 333,193.7 333.3,195 333.6,196.3 333.9,197.6 334.2,199 
		334.4,200.4 334.7,201.8 335,203.3 335.3,204.8 335.6,206.4 335.8,208.1 336.1,209.8 336.4,211.6 336.7,213.4 337,215.4 
		337.3,217.5 337.5,219.8 337.8,222.2 338.1,224.7 338.4,227.5 338.7,230.5 338.9,233.8 339.2,237.4 339.5,241.3 339.8,245.6 
		340.1,250.3 340.4,255.3 340.6,260.7 340.9,266.3 	"/>
</g>
</svg>
