<?xml version="1.0" encoding="utf-8"?>
<!-- Generator: Adobe Illustrator 22.1.0, SVG Export Plug-In . SVG Version: 6.00 Build 0)  -->
<svg version="1.1" id="Layer_1" xmlns="http://www.w3.org/2000/svg" xmlns:xlink="http://www.w3.org/1999/xlink" x="0px" y="0px"
	 viewBox="0 0 340.9 301" style="enable-background:new 0 0 340.9 301;" xml:space="preserve">
<style type="text/css">
	.st0{fill:none;stroke:#DFDFDF;stroke-width:0.4998;stroke-linejoin:round;stroke-miterlimit:10;}
	.st1{fill:none;stroke:#262626;stroke-width:0.4998;stroke-linecap:square;stroke-linejoin:round;stroke-miterlimit:10;}
	.st2{fill:#4A4A49;}
	.st3{fill:#262626;}
	.st4{fill:#1D1D1B;}
	.st5{fill:none;stroke:#000000;stroke-width:3;stroke-linejoin:round;stroke-miterlimit:10;}
	.st6{fill:none;stroke:#FF0000;stroke-width:3;stroke-linejoin:round;stroke-miterlimit:10;}
</style>
<g>
	<path class="st0" d="M13,269.2V12.4 M48.1,269.2V12.4 M83.2,269.2V12.4 M118.3,269.2V12.4 M153.4,269.2V12.4 M153.4,269.2H13
		 M153.4,228.1H13 M153.4,187H13 M153.4,145.9H13 M153.4,104.8H13 M153.4,63.8H13 M153.4,22.7H13"/>
	<path class="st1" d="M13,269.2h140.4 M13,12.4h140.4 M13,269.2v-2.6 M48.1,269.2v-2.6 M83.2,269.2v-2.6 M118.3,269.2v-2.6
		 M153.4,269.2v-2.6 M13,12.4V15 M48.1,12.4V15 M83.2,12.4V15 M118.3,12.4V15 M153.4,12.4V15"/>
	<g>
		<path class="st2" d="M9.2,278.9h2.2v0.8H9.2V278.9z"/>
	</g>
	<path class="st3" d="M12.7,281.6c0,0,0-0.1,0-0.1c0.2-0.4,0.3-0.7,0.5-1c0.1-0.3,0.3-0.7,0.4-1c0.1-0.3,0.2-0.7,0.3-1h-0.6
		c-0.2,0-0.4,0.1-0.6,0.2c-0.2,0.1-0.3,0.3-0.5,0.5c0,0,0,0-0.1,0h-0.1c-0.1,0-0.1,0-0.1-0.1c0,0,0,0,0-0.1c0.2-0.3,0.4-0.6,0.6-0.8
		c0.2-0.2,0.5-0.3,0.8-0.3h3.3c0.1,0,0.1,0,0.2,0.1c0,0,0.1,0.1,0.1,0.2c0,0.1,0,0.2-0.1,0.2c-0.1,0.1-0.1,0.1-0.2,0.1h-1.1
		c-0.1,0.5-0.2,0.9-0.2,1.4c0,0.6,0.1,1.1,0.3,1.6c0,0,0,0.1,0,0.1c0,0.1,0,0.1-0.1,0.2c0,0.1-0.1,0.1-0.2,0.1
		c-0.1,0-0.1,0.1-0.2,0.1c-0.2,0-0.3-0.1-0.3-0.4c-0.1-0.3-0.1-0.5-0.1-0.8c0-0.3,0-0.7,0.1-1c0.1-0.3,0.2-0.8,0.3-1.3h-1
		c-0.5,1.9-0.8,3-0.9,3.2c-0.1,0.2-0.2,0.2-0.3,0.2c-0.1,0-0.1,0-0.2-0.1C12.7,281.8,12.7,281.7,12.7,281.6L12.7,281.6z"/>
	<g>
		<path class="st2" d="M40.4,278.9h2.2v0.8h-2.2V278.9z"/>
	</g>
	<path class="st3" d="M43.9,281.6c0,0,0-0.1,0-0.1c0.2-0.4,0.3-0.7,0.5-1c0.1-0.3,0.3-0.7,0.4-1c0.1-0.3,0.2-0.7,0.3-1h-0.6
		c-0.2,0-0.4,0.1-0.6,0.2c-0.2,0.1-0.3,0.3-0.5,0.5c0,0,0,0-0.1,0h-0.1c-0.1,0-0.1,0-0.1-0.1c0,0,0,0,0-0.1c0.2-0.3,0.4-0.6,0.6-0.8
		c0.2-0.2,0.5-0.3,0.8-0.3h3.3c0.1,0,0.1,0,0.2,0.1c0,0,0.1,0.1,0.1,0.2c0,0.1,0,0.2-0.1,0.2c-0.1,0.1-0.1,0.1-0.2,0.1h-1.1
		c-0.1,0.5-0.2,0.9-0.2,1.4c0,0.6,0.1,1.1,0.3,1.6c0,0,0,0.1,0,0.1c0,0.1,0,0.1-0.1,0.2c0,0.1-0.1,0.1-0.2,0.1
		c-0.1,0-0.1,0.1-0.2,0.1c-0.2,0-0.3-0.1-0.3-0.4c-0.1-0.3-0.1-0.5-0.1-0.8c0-0.3,0-0.7,0.1-1c0.1-0.3,0.2-0.8,0.3-1.3h-1
		c-0.5,1.9-0.8,3-0.9,3.2c-0.1,0.2-0.2,0.2-0.3,0.2c-0.1,0-0.1,0-0.2-0.1C43.9,281.8,43.9,281.7,43.9,281.6L43.9,281.6z"/>
	<g>
		<path class="st2" d="M51.1,275.2l-2.2,6.8h-0.6l2.2-6.8H51.1z"/>
		<path class="st2" d="M55.5,277.3c0,0.5-0.1,0.8-0.4,1.1c-0.2,0.3-0.7,0.6-1.3,1c-0.7,0.4-1.2,0.8-1.5,1.1
			c-0.1,0.1-0.2,0.3-0.3,0.5h3.4v0.8h-4.3v0c0-0.7,0.2-1.2,0.5-1.6c0.3-0.4,1-0.9,1.9-1.4c0.4-0.2,0.7-0.5,0.9-0.7
			c0.2-0.2,0.2-0.5,0.2-0.8c0-0.3-0.1-0.6-0.4-0.8c-0.2-0.2-0.5-0.3-0.9-0.3c-0.4,0-0.7,0.1-0.9,0.4c-0.2,0.3-0.3,0.7-0.4,1.1h-0.8
			c0-0.7,0.2-1.2,0.6-1.6c0.4-0.4,0.9-0.6,1.6-0.6c0.6,0,1.1,0.2,1.4,0.5C55.3,276.3,55.5,276.8,55.5,277.3z"/>
	</g>
	<g>
		<path class="st2" d="M81.4,280.9c-0.4-0.6-0.6-1.4-0.6-2.4s0.2-1.8,0.6-2.4c0.4-0.6,0.9-0.8,1.6-0.8c0.7,0,1.2,0.3,1.6,0.8
			c0.4,0.6,0.6,1.4,0.6,2.4s-0.2,1.8-0.6,2.4s-0.9,0.8-1.6,0.8C82.3,281.8,81.8,281.5,81.4,280.9z M84,280.4
			c0.2-0.4,0.3-1.1,0.3-1.9c0-0.8-0.1-1.5-0.3-1.9c-0.2-0.4-0.6-0.6-1-0.6c-0.4,0-0.8,0.2-1,0.6c-0.2,0.4-0.3,1.1-0.3,1.9
			c0,0.8,0.1,1.5,0.3,1.9s0.6,0.6,1,0.6C83.4,281,83.8,280.8,84,280.4z"/>
	</g>
	<path class="st3" d="M112.9,281.6c0,0,0-0.1,0-0.1c0.2-0.4,0.3-0.7,0.5-1c0.1-0.3,0.3-0.7,0.4-1c0.1-0.3,0.2-0.7,0.3-1h-0.6
		c-0.2,0-0.4,0.1-0.6,0.2c-0.2,0.1-0.3,0.3-0.5,0.5c0,0,0,0-0.1,0h-0.1c-0.1,0-0.1,0-0.1-0.1c0,0,0,0,0-0.1c0.2-0.3,0.4-0.6,0.6-0.8
		c0.2-0.2,0.5-0.3,0.8-0.3h3.3c0.1,0,0.1,0,0.2,0.1c0,0,0.1,0.1,0.1,0.2c0,0.1,0,0.2-0.1,0.2c-0.1,0.1-0.1,0.1-0.2,0.1h-1.1
		c-0.1,0.5-0.2,0.9-0.2,1.4c0,0.6,0.1,1.1,0.3,1.6c0,0,0,0.1,0,0.1c0,0.1,0,0.1-0.1,0.2c0,0.1-0.1,0.1-0.1,0.1
		c-0.1,0-0.1,0.1-0.2,0.1c-0.2,0-0.3-0.1-0.3-0.4c-0.1-0.3-0.1-0.5-0.1-0.8c0-0.3,0-0.7,0.1-1c0.1-0.3,0.2-0.8,0.3-1.3h-1
		c-0.5,1.9-0.8,3-0.9,3.2c-0.1,0.2-0.2,0.2-0.3,0.2c-0.1,0-0.1,0-0.2-0.1C112.9,281.8,112.9,281.7,112.9,281.6L112.9,281.6z"/>
	<g>
		<path class="st2" d="M120,275.2l-2.2,6.8h-0.6l2.2-6.8H120z"/>
		<path class="st2" d="M124.5,277.3c0,0.5-0.1,0.8-0.4,1.1c-0.2,0.3-0.7,0.6-1.3,1c-0.7,0.4-1.2,0.8-1.5,1.1
			c-0.1,0.1-0.2,0.3-0.3,0.5h3.4v0.8h-4.3v0c0-0.7,0.2-1.2,0.5-1.6c0.3-0.4,1-0.9,1.9-1.4c0.4-0.2,0.7-0.5,0.9-0.7
			c0.2-0.2,0.2-0.5,0.2-0.8c0-0.3-0.1-0.6-0.4-0.8c-0.2-0.2-0.5-0.3-0.9-0.3c-0.4,0-0.7,0.1-0.9,0.4c-0.2,0.3-0.3,0.7-0.4,1.1h-0.8
			c0-0.7,0.2-1.2,0.6-1.6c0.4-0.4,0.9-0.6,1.6-0.6c0.6,0,1.1,0.2,1.4,0.5C124.3,276.3,124.5,276.8,124.5,277.3z"/>
	</g>
	<path class="st3" d="M151.3,281.6c0,0,0-0.1,0-0.1c0.2-0.4,0.3-0.7,0.5-1c0.1-0.3,0.3-0.7,0.4-1c0.1-0.3,0.2-0.7,0.3-1H152
		c-0.2,0-0.4,0.1-0.6,0.2c-0.2,0.1-0.3,0.3-0.5,0.5c0,0,0,0-0.1,0h-0.1c-0.1,0-0.1,0-0.1-0.1c0,0,0,0,0-0.1c0.2-0.3,0.4-0.6,0.6-0.8
		c0.2-0.2,0.5-0.3,0.8-0.3h3.3c0.1,0,0.1,0,0.2,0.1c0,0,0.1,0.1,0.1,0.2c0,0.1,0,0.2-0.1,0.2c-0.1,0.1-0.1,0.1-0.2,0.1h-1.1
		c-0.1,0.5-0.2,0.9-0.2,1.4c0,0.6,0.1,1.1,0.3,1.6c0,0,0,0.1,0,0.1c0,0.1,0,0.1-0.1,0.2c0,0.1-0.1,0.1-0.2,0.1
		c-0.1,0-0.1,0.1-0.2,0.1c-0.2,0-0.3-0.1-0.3-0.4c-0.1-0.3-0.1-0.5-0.1-0.8c0-0.3,0-0.7,0.1-1c0.1-0.3,0.2-0.8,0.3-1.3h-1
		c-0.5,1.9-0.8,3-0.9,3.2c-0.1,0.2-0.2,0.2-0.3,0.2c-0.1,0-0.1,0-0.2-0.1C151.3,281.8,151.3,281.7,151.3,281.6L151.3,281.6z"/>
	<path class="st3" d="M55.7,295.8c0,0-0.1,0-0.1-0.1c0,0-0.1-0.1-0.1-0.1c0,0,0-0.1,0.1-0.1c0,0,0.1-0.1,0.1-0.1H63
		c-0.2-0.2-0.5-0.4-0.6-0.6c-0.2-0.2-0.3-0.5-0.5-0.7c-0.1-0.3-0.2-0.5-0.3-0.8c0-0.1,0-0.1,0.1-0.1h0.2c0,0,0,0,0.1,0
		c0,0,0,0,0,0.1c0.1,0.3,0.1,0.5,0.2,0.8s0.3,0.5,0.4,0.7c0.2,0.2,0.4,0.4,0.6,0.5c0.2,0.1,0.5,0.3,0.7,0.4c0,0,0.1,0.1,0.1,0.1
		c0,0.1,0,0.1-0.1,0.1c-0.3,0.1-0.6,0.3-0.9,0.5c-0.3,0.2-0.5,0.5-0.7,0.8c-0.2,0.3-0.3,0.6-0.4,1c0,0,0,0,0,0.1c0,0,0,0-0.1,0h-0.2
		c-0.1,0-0.1,0-0.1-0.1c0.1-0.4,0.2-0.9,0.5-1.2c0.2-0.4,0.5-0.7,0.9-1H55.7L55.7,295.8z"/>
	<g>
	</g>
	<path class="st3" d="M69.8,298.1c-0.3,0-0.5-0.1-0.7-0.3c-0.2-0.2-0.3-0.5-0.4-0.8c-0.1-0.3-0.1-0.6-0.1-0.9v0c0-0.3,0-0.6,0.1-1
		c0.1-0.3,0.2-0.7,0.3-1c0.1-0.3,0.2-0.6,0.4-0.9c0.1-0.2,0.2-0.4,0.4-0.6s0.3-0.4,0.5-0.7c0.2-0.2,0.4-0.4,0.6-0.5
		c0.2-0.1,0.4-0.2,0.6-0.2h0c0.2,0,0.4,0.1,0.6,0.2c0.2,0.1,0.3,0.3,0.4,0.5c0.1,0.2,0.1,0.4,0.2,0.6c0,0.2,0.1,0.4,0.1,0.7
		c0,0.5-0.1,1-0.2,1.5c-0.1,0.5-0.3,1-0.5,1.5c-0.1,0.2-0.2,0.4-0.4,0.6c-0.2,0.2-0.3,0.5-0.5,0.6c-0.2,0.2-0.4,0.4-0.6,0.5
		C70.2,298,70,298.1,69.8,298.1L69.8,298.1L69.8,298.1z M69.8,297.8c0.2,0,0.4-0.1,0.6-0.3c0.2-0.2,0.4-0.5,0.5-0.8
		c0.1-0.3,0.3-0.7,0.4-1c0.1-0.3,0.2-0.6,0.2-0.9h-2c-0.1,0.4-0.2,0.7-0.2,1c-0.1,0.3-0.1,0.6-0.1,0.9
		C69.3,297.5,69.4,297.8,69.8,297.8L69.8,297.8z M69.6,294.5h2c0.1-0.3,0.1-0.5,0.2-0.7c0-0.2,0.1-0.4,0.1-0.6c0-0.2,0-0.4,0-0.6
		c0-0.8-0.2-1.1-0.5-1.1c-0.4,0-0.8,0.3-1.1,1C70.1,293.1,69.8,293.8,69.6,294.5L69.6,294.5z"/>
	<g>
		<path class="st2" d="M76.4,290.8h1.9v0.7h-1.1v7.7h1.1v0.7h-1.9V290.8z"/>
		<path class="st2" d="M79.3,292.8h0.4h0.4v0.9c0.1-0.1,0.2-0.3,0.2-0.4c0.3-0.4,0.7-0.7,1.2-0.7c0.1,0,0.2,0,0.2,0v0.9l-0.2,0
			c-0.5,0-0.8,0.1-1.1,0.4c-0.3,0.3-0.4,0.7-0.4,1.2v2.8h-0.4h-0.4V292.8z"/>
		<path class="st2" d="M83.8,298.1c-0.5,0-0.9-0.1-1.2-0.4c-0.3-0.3-0.4-0.6-0.4-1.1c0-0.5,0.1-0.8,0.4-1.1c0.3-0.3,0.7-0.4,1.2-0.5
			l1.2-0.2c0.1,0,0.2,0,0.3,0c0.1,0,0.2-0.1,0.3-0.2s0.1-0.2,0.1-0.3v0c0-0.3-0.1-0.5-0.3-0.7s-0.5-0.2-0.9-0.2
			c-0.4,0-0.6,0.1-0.8,0.2c-0.2,0.2-0.3,0.4-0.4,0.7h-0.8c0-0.6,0.2-1,0.6-1.3s0.9-0.4,1.5-0.4c0.6,0,1.1,0.1,1.4,0.4
			c0.3,0.3,0.5,0.7,0.5,1.2v2.8c0,0.1,0,0.2,0.1,0.2c0.1,0.1,0.1,0.1,0.2,0.1c0,0,0.1,0,0.1,0c0,0,0.1,0,0.2,0v0.6
			c-0.1,0-0.2,0.1-0.3,0.1c-0.1,0-0.2,0-0.2,0c-0.3,0-0.6-0.1-0.7-0.3c-0.1-0.1-0.2-0.3-0.2-0.5c-0.1,0.1-0.1,0.2-0.2,0.2
			C85,297.9,84.4,298.1,83.8,298.1z M85.6,295.9v-0.6c-0.2,0.1-0.3,0.1-0.5,0.2l-0.8,0.1c-0.4,0.1-0.7,0.2-0.9,0.3
			c-0.2,0.1-0.3,0.3-0.3,0.6c0,0.3,0.1,0.5,0.2,0.7c0.2,0.2,0.4,0.2,0.7,0.2c0.5,0,0.8-0.1,1.2-0.4c0.2-0.2,0.4-0.4,0.4-0.6
			c0,0,0-0.1,0-0.2C85.6,296.2,85.6,296.1,85.6,295.9z"/>
		<path class="st2" d="M89.9,298.1c-0.7,0-1.2-0.3-1.7-0.8s-0.6-1.2-0.6-2.1c0-0.8,0.2-1.4,0.6-1.9c0.4-0.5,0.9-0.7,1.6-0.7
			c0.6,0,1.1,0.3,1.5,0.8l0.1,0.1v-2.7h0.4h0.4v7.1h-0.4h-0.4v-0.7l-0.1,0.2C91,297.9,90.5,298.1,89.9,298.1z M90,293.4
			c-0.5,0-0.8,0.2-1.1,0.5c-0.2,0.3-0.3,0.8-0.3,1.5c0,0.6,0.1,1.1,0.4,1.5c0.2,0.3,0.6,0.5,1,0.5c0.4,0,0.8-0.2,1-0.5
			s0.4-0.7,0.4-1.3c0-0.7-0.1-1.2-0.4-1.6C90.8,293.6,90.4,293.4,90,293.4z"/>
		<path class="st2" d="M93.7,296.9h1v1h-1V296.9z"/>
	</g>
	<g>
		<path class="st2" d="M97.5,294.3c0-0.3-0.1-0.5-0.4-0.7s-0.5-0.2-0.8-0.2c-0.4,0-0.6,0.1-0.8,0.2c-0.2,0.1-0.3,0.3-0.3,0.6
			c0,0.2,0.1,0.3,0.2,0.4c0.1,0.1,0.4,0.2,0.8,0.3l0.9,0.2c0.5,0.1,0.9,0.3,1.1,0.5c0.2,0.2,0.3,0.5,0.3,0.9c0,0.5-0.2,0.9-0.6,1.2
			s-0.9,0.5-1.5,0.5c-0.7,0-1.3-0.1-1.6-0.4c-0.4-0.3-0.6-0.7-0.6-1.4H95c0,0.4,0.2,0.6,0.4,0.8c0.2,0.2,0.6,0.2,1,0.2
			c0.4,0,0.7-0.1,0.9-0.2c0.2-0.1,0.3-0.4,0.3-0.6c0-0.2-0.1-0.3-0.2-0.4c-0.1-0.1-0.4-0.2-0.8-0.3l-0.9-0.2c-0.5-0.1-0.8-0.3-1-0.5
			c-0.2-0.2-0.3-0.5-0.3-0.9c0-0.5,0.2-0.9,0.5-1.2c0.3-0.3,0.8-0.4,1.4-0.4c0.6,0,1.1,0.1,1.4,0.4c0.4,0.3,0.5,0.7,0.6,1.2H97.5z"
			/>
	</g>
	<g>
		<path class="st2" d="M100.9,290.6h1.9v0.7h-1.9V290.6z"/>
		<path class="st2" d="M105.3,289.2H104v-0.6c0.4,0,0.7-0.1,0.9-0.2c0.2-0.2,0.4-0.4,0.5-0.8h0.6v5.6h-0.4h-0.4V289.2z"/>
	</g>
	<g>
		<path class="st2" d="M109.9,299.9h-1.9v-0.7h1.1v-7.7h-1.1v-0.7h1.9V299.9z"/>
	</g>
	<path class="st1" d="M13,269.2V12.4 M153.4,269.2V12.4 M13,269.2h2.6 M13,228.1h2.6 M13,187h2.6 M13,145.9h2.6 M13,104.8h2.6
		 M13,63.8h2.6 M13,22.7h2.6 M153.4,269.2h-2.6 M153.4,228.1h-2.6 M153.4,187h-2.6 M153.4,145.9h-2.6 M153.4,104.8h-2.6 M153.4,63.8
		h-2.6 M153.4,22.7h-2.6"/>
	<g>
		<path class="st2" d="M5.7,272.1c-0.4-0.6-0.6-1.4-0.6-2.4s0.2-1.8,0.6-2.4c0.4-0.6,0.9-0.8,1.6-0.8c0.7,0,1.2,0.3,1.6,0.8
			c0.4,0.6,0.6,1.4,0.6,2.4s-0.2,1.8-0.6,2.4S8,273,7.3,273C6.6,273,6.1,272.7,5.7,272.1z M8.3,271.6c0.2-0.4,0.3-1.1,0.3-1.9
			c0-0.8-0.1-1.5-0.3-1.9c-0.2-0.4-0.6-0.6-1-0.6c-0.4,0-0.8,0.2-1,0.6c-0.2,0.4-0.3,1.1-0.3,1.9c0,0.8,0.1,1.5,0.3,1.9
			s0.6,0.6,1,0.6C7.8,272.2,8.1,272,8.3,271.6z"/>
	</g>
	<g>
		<path class="st2" d="M9.4,227.2c0,0.5-0.1,0.8-0.4,1.1c-0.2,0.3-0.7,0.6-1.3,1c-0.7,0.4-1.2,0.8-1.5,1.1c-0.1,0.1-0.2,0.3-0.3,0.5
			h3.4v0.8H5v0c0-0.7,0.2-1.2,0.5-1.6c0.3-0.4,1-0.9,1.9-1.4c0.4-0.2,0.7-0.5,0.9-0.7c0.2-0.2,0.2-0.5,0.2-0.8
			c0-0.3-0.1-0.6-0.4-0.8c-0.2-0.2-0.5-0.3-0.9-0.3c-0.4,0-0.7,0.1-0.9,0.4c-0.2,0.3-0.3,0.7-0.4,1.1H5.2c0-0.7,0.2-1.2,0.6-1.6
			c0.4-0.4,0.9-0.6,1.6-0.6c0.6,0,1.1,0.2,1.4,0.5C9.2,226.2,9.4,226.7,9.4,227.2z"/>
	</g>
	<g>
		<path class="st2" d="M5,189.1v-0.4v-0.4l2.9-4.1h0.3h0.3v4.1h0.9v0.7H8.6v1.5H7.8v-1.5H5z M7.8,188.4v-2.9l-2,2.8l0,0.1H7.8z"/>
	</g>
	<g>
		<path class="st2" d="M7.5,143.2c0.6,0,1,0.2,1.3,0.5c0.3,0.3,0.5,0.7,0.5,1.2H8.6c0-0.3-0.1-0.6-0.3-0.7s-0.4-0.3-0.8-0.3
			c-0.5,0-0.9,0.2-1.1,0.7C6.1,145,6,145.6,6,146.3c0.4-0.5,0.9-0.8,1.5-0.8c0.6,0,1.1,0.2,1.4,0.6c0.4,0.4,0.5,0.9,0.5,1.5
			c0,0.6-0.2,1.1-0.6,1.5c-0.4,0.4-0.9,0.6-1.6,0.6c-0.7,0-1.2-0.3-1.6-0.8c-0.4-0.5-0.6-1.3-0.6-2.3c0-1.1,0.2-1.9,0.6-2.5
			C6.2,143.5,6.7,143.2,7.5,143.2z M6.1,147.6c0,0.4,0.1,0.7,0.4,1c0.2,0.3,0.5,0.4,0.9,0.4s0.7-0.1,0.9-0.4c0.2-0.3,0.4-0.6,0.4-1
			s-0.1-0.7-0.4-1c-0.2-0.3-0.5-0.4-0.9-0.4s-0.7,0.1-0.9,0.4C6.2,146.9,6.1,147.2,6.1,147.6z"/>
	</g>
	<g>
		<path class="st2" d="M8.4,105.1c0.2,0.1,0.3,0.2,0.5,0.3c0.4,0.3,0.6,0.7,0.6,1.3c0,0.6-0.2,1.1-0.6,1.4s-0.9,0.5-1.6,0.5
			s-1.2-0.2-1.6-0.5s-0.6-0.8-0.6-1.4c0-0.5,0.2-0.9,0.6-1.3c0.1-0.1,0.3-0.2,0.5-0.3C6.1,105,6,105,5.9,104.9
			c-0.4-0.3-0.5-0.6-0.5-1.1c0-0.5,0.2-0.9,0.5-1.2c0.4-0.3,0.8-0.5,1.4-0.5s1,0.2,1.4,0.5c0.4,0.3,0.5,0.7,0.5,1.2
			c0,0.5-0.2,0.8-0.5,1.1C8.6,105,8.5,105,8.4,105.1z M7.3,105.5c-0.4,0-0.7,0.1-0.9,0.3S6,106.3,6,106.7c0,0.4,0.1,0.7,0.4,0.9
			s0.6,0.3,0.9,0.3s0.7-0.1,0.9-0.3s0.4-0.5,0.4-0.9c0-0.4-0.1-0.7-0.4-0.9C8,105.6,7.7,105.5,7.3,105.5z M7.3,104.8
			c0.3,0,0.6-0.1,0.8-0.3c0.2-0.2,0.3-0.4,0.3-0.7s-0.1-0.5-0.3-0.7s-0.5-0.3-0.8-0.3s-0.6,0.1-0.8,0.3s-0.3,0.4-0.3,0.7
			s0.1,0.5,0.3,0.7C6.7,104.7,7,104.8,7.3,104.8z"/>
	</g>
	<g>
		<path class="st2" d="M2.4,62.9H0.9v-0.6c0.4,0,0.8-0.1,1.1-0.3c0.3-0.2,0.5-0.5,0.6-0.9h0.6v6.3H2.8H2.4V62.9z"/>
		<path class="st2" d="M5.9,66.7c-0.4-0.6-0.6-1.4-0.6-2.4s0.2-1.8,0.6-2.4C6.3,61.3,6.8,61,7.5,61c0.7,0,1.2,0.3,1.6,0.8
			c0.4,0.6,0.6,1.4,0.6,2.4s-0.2,1.8-0.6,2.4s-0.9,0.8-1.6,0.8C6.8,67.5,6.3,67.2,5.9,66.7z M8.5,66.2c0.2-0.4,0.3-1.1,0.3-1.9
			c0-0.8-0.1-1.5-0.3-1.9c-0.2-0.4-0.6-0.6-1-0.6c-0.4,0-0.8,0.2-1,0.6c-0.2,0.4-0.3,1.1-0.3,1.9c0,0.8,0.1,1.5,0.3,1.9
			s0.6,0.6,1,0.6C8,66.8,8.3,66.6,8.5,66.2z"/>
	</g>
	<g>
		<path class="st2" d="M2.4,21.8H0.9v-0.6c0.4,0,0.8-0.1,1.1-0.3c0.3-0.2,0.5-0.5,0.6-0.9h0.6v6.3H2.8H2.4V21.8z"/>
		<path class="st2" d="M9.6,21.8c0,0.5-0.1,0.8-0.4,1.1c-0.2,0.3-0.7,0.6-1.3,1c-0.7,0.4-1.2,0.8-1.5,1.1c-0.1,0.1-0.2,0.3-0.3,0.5
			h3.4v0.8H5.2v0c0-0.7,0.2-1.2,0.5-1.6c0.3-0.4,1-0.9,1.9-1.4C8,23,8.3,22.8,8.5,22.6s0.2-0.5,0.2-0.8c0-0.3-0.1-0.6-0.4-0.8
			s-0.5-0.3-0.9-0.3c-0.4,0-0.7,0.1-0.9,0.4c-0.2,0.3-0.3,0.6-0.4,1.1H5.4c0-0.7,0.2-1.2,0.6-1.6s0.9-0.6,1.6-0.6
			c0.6,0,1.1,0.2,1.4,0.5C9.4,20.8,9.6,21.3,9.6,21.8z"/>
	</g>
	<g>
		<path class="st4" d="M40.4,1.4h2.1v7.1h-1.4V3.7c0-0.1,0-0.3,0-0.6c0-0.3,0-0.4,0-0.6l-1.4,6h-1.4l-1.3-6c0,0.1,0,0.3,0,0.6
			c0,0.2,0,0.4,0,0.6v4.8h-1.4V1.4h2.2L39.1,7L40.4,1.4z"/>
		<path class="st4" d="M45.9,5.3c0.3,0,0.4-0.1,0.6-0.1c0.2-0.1,0.3-0.2,0.3-0.4c0-0.2-0.1-0.4-0.2-0.4s-0.4-0.1-0.7-0.1
			c-0.3,0-0.6,0.1-0.7,0.2C45,4.6,45,4.7,44.9,5h-1.3c0-0.5,0.2-0.8,0.4-1.1c0.4-0.5,1-0.7,1.9-0.7c0.6,0,1.1,0.1,1.5,0.3
			c0.4,0.2,0.7,0.7,0.7,1.3v2.4c0,0.2,0,0.4,0,0.6c0,0.2,0,0.3,0.1,0.4c0,0.1,0.1,0.1,0.2,0.2v0.2h-1.5c0-0.1-0.1-0.2-0.1-0.3
			c0-0.1,0-0.2,0-0.3c-0.2,0.2-0.4,0.4-0.7,0.5c-0.3,0.2-0.6,0.3-1,0.3c-0.5,0-0.9-0.1-1.2-0.4s-0.5-0.7-0.5-1.2
			c0-0.6,0.3-1.1,0.8-1.4c0.3-0.2,0.7-0.3,1.2-0.3L45.9,5.3z M46.7,6c-0.1,0.1-0.2,0.1-0.3,0.1c-0.1,0-0.2,0.1-0.4,0.1l-0.3,0.1
			c-0.3,0.1-0.5,0.1-0.6,0.2c-0.2,0.1-0.3,0.3-0.3,0.6c0,0.2,0.1,0.4,0.2,0.5c0.1,0.1,0.3,0.2,0.5,0.2c0.3,0,0.6-0.1,0.8-0.3
			c0.3-0.2,0.4-0.5,0.4-1V6z"/>
		<path class="st4" d="M51.9,3.2c0.3,0.1,0.6,0.4,0.8,0.8V3.2h1.3v5c0,0.7-0.1,1.2-0.3,1.5c-0.4,0.6-1.1,0.9-2.3,0.9
			c-0.7,0-1.2-0.1-1.6-0.4c-0.4-0.3-0.7-0.7-0.7-1.2h1.5c0,0.2,0.1,0.3,0.2,0.3c0.1,0.1,0.4,0.2,0.7,0.2c0.5,0,0.8-0.2,1-0.5
			c0.1-0.2,0.2-0.6,0.2-1.1V7.7c-0.1,0.2-0.3,0.4-0.4,0.5c-0.3,0.2-0.6,0.3-1.1,0.3c-0.7,0-1.2-0.2-1.6-0.7C49.2,7.3,49,6.7,49,5.9
			c0-0.8,0.2-1.4,0.6-2c0.4-0.5,0.9-0.8,1.7-0.8C51.5,3.1,51.7,3.2,51.9,3.2z M52.4,7c0.2-0.2,0.3-0.6,0.3-1.2
			c0-0.5-0.1-0.9-0.3-1.1c-0.2-0.3-0.5-0.4-0.8-0.4c-0.5,0-0.8,0.2-1,0.7c-0.1,0.2-0.1,0.5-0.1,0.9c0,0.3,0.1,0.6,0.2,0.8
			c0.2,0.4,0.5,0.7,1,0.7C51.9,7.4,52.1,7.3,52.4,7z"/>
		<path class="st4" d="M59.6,3.5c0.3,0.3,0.5,0.8,0.5,1.4v3.5h-1.4V5.3c0-0.3,0-0.5-0.1-0.6c-0.1-0.3-0.4-0.4-0.8-0.4
			c-0.5,0-0.8,0.2-1,0.6c-0.1,0.2-0.1,0.5-0.1,0.8v2.9h-1.4V3.3h1.3V4c0.2-0.3,0.3-0.5,0.5-0.6c0.3-0.2,0.6-0.3,1.1-0.3
			C58.8,3.1,59.2,3.3,59.6,3.5z"/>
		<path class="st4" d="M62.8,2.6h-1.4V1.3h1.4V2.6z M61.4,3.2h1.4v5.3h-1.4V3.2z"/>
		<path class="st4" d="M63.6,4.3v-1h0.7V1.8h1.4v1.5h0.9v1h-0.9v2.8c0,0.2,0,0.4,0.1,0.4c0.1,0.1,0.2,0.1,0.5,0.1c0,0,0.1,0,0.1,0
			c0,0,0.1,0,0.1,0v1l-0.7,0c-0.7,0-1.1-0.1-1.3-0.3c-0.2-0.2-0.2-0.4-0.2-0.7V4.3H63.6z"/>
		<path class="st4" d="M68.8,3.2v3.2c0,0.3,0,0.5,0.1,0.7c0.1,0.3,0.4,0.4,0.7,0.4c0.5,0,0.8-0.2,1-0.6c0.1-0.2,0.1-0.5,0.1-0.8V3.2
			h1.4v5.3h-1.3V7.8c0,0,0,0.1-0.1,0.1c-0.1,0.1-0.1,0.2-0.2,0.2c-0.2,0.2-0.4,0.3-0.6,0.4s-0.4,0.1-0.7,0.1c-0.8,0-1.3-0.3-1.6-0.8
			c-0.2-0.3-0.2-0.8-0.2-1.4V3.2H68.8z"/>
		<path class="st4" d="M76.3,3.3c0.2,0.1,0.4,0.3,0.6,0.6V1.4h1.4v7.1h-1.3V7.8c-0.2,0.3-0.4,0.5-0.7,0.7s-0.6,0.2-0.9,0.2
			c-0.6,0-1.1-0.2-1.6-0.7c-0.4-0.5-0.6-1.1-0.6-1.9c0-0.9,0.2-1.6,0.6-2.1s1-0.8,1.7-0.8C75.7,3.1,76,3.2,76.3,3.3z M76.6,7.1
			c0.2-0.3,0.3-0.7,0.3-1.1c0-0.6-0.2-1.1-0.5-1.4c-0.2-0.2-0.4-0.3-0.7-0.3c-0.4,0-0.7,0.2-0.9,0.5c-0.2,0.3-0.3,0.7-0.3,1.1
			c0,0.5,0.1,0.9,0.3,1.2c0.2,0.3,0.5,0.4,0.9,0.4C76.1,7.5,76.4,7.4,76.6,7.1z"/>
		<path class="st4" d="M83,3.4c0.4,0.2,0.7,0.4,0.9,0.8c0.2,0.3,0.4,0.7,0.4,1.1c0,0.2,0.1,0.6,0,1h-3.8c0,0.5,0.2,0.9,0.6,1.1
			c0.2,0.1,0.5,0.2,0.8,0.2c0.3,0,0.6-0.1,0.8-0.2c0.1-0.1,0.2-0.2,0.3-0.4h1.4c0,0.3-0.2,0.6-0.5,1c-0.5,0.5-1.1,0.8-2,0.8
			c-0.7,0-1.3-0.2-1.9-0.6c-0.5-0.4-0.8-1.1-0.8-2.1c0-0.9,0.2-1.6,0.7-2.1c0.5-0.5,1.1-0.7,1.9-0.7C82.2,3.1,82.6,3.2,83,3.4z
			 M80.9,4.5c-0.2,0.2-0.3,0.5-0.4,0.8h2.4c0-0.4-0.1-0.6-0.4-0.8s-0.5-0.3-0.8-0.3C81.4,4.2,81.1,4.3,80.9,4.5z"/>
		<path class="st4" d="M90.7,3.1c0,0,0.1,0,0.1,0v1.4c-0.1,0-0.2,0-0.2,0c-0.1,0-0.1,0-0.2,0c-0.6,0-0.9,0.2-1.1,0.5
			c-0.1,0.2-0.2,0.5-0.2,0.9v2.5h-1.4V3.2h1.3v0.9c0.2-0.4,0.4-0.6,0.6-0.7C89.9,3.2,90.2,3.1,90.7,3.1C90.7,3.1,90.7,3.1,90.7,3.1z
			"/>
		<path class="st4" d="M95.1,3.4c0.4,0.2,0.7,0.4,0.9,0.8c0.2,0.3,0.4,0.7,0.4,1.1c0,0.2,0.1,0.6,0,1h-3.8c0,0.5,0.2,0.9,0.6,1.1
			c0.2,0.1,0.5,0.2,0.8,0.2c0.3,0,0.6-0.1,0.8-0.2C94.8,7.2,94.9,7.1,95,7h1.4c0,0.3-0.2,0.6-0.5,1c-0.5,0.5-1.1,0.8-2,0.8
			c-0.7,0-1.3-0.2-1.9-0.6c-0.5-0.4-0.8-1.1-0.8-2.1c0-0.9,0.2-1.6,0.7-2.1c0.5-0.5,1.1-0.7,1.9-0.7C94.3,3.1,94.7,3.2,95.1,3.4z
			 M93,4.5c-0.2,0.2-0.3,0.5-0.4,0.8H95c0-0.4-0.1-0.6-0.4-0.8s-0.5-0.3-0.8-0.3C93.5,4.2,93.2,4.3,93,4.5z"/>
		<path class="st4" d="M98.2,6.8c0,0.2,0.1,0.4,0.2,0.5c0.2,0.2,0.5,0.3,1,0.3c0.3,0,0.5,0,0.6-0.1s0.2-0.2,0.2-0.4
			c0-0.2-0.1-0.3-0.2-0.4c-0.1-0.1-0.6-0.2-1.4-0.4c-0.6-0.1-1-0.3-1.3-0.6C97.1,5.6,97,5.3,97,4.9c0-0.5,0.2-0.9,0.6-1.3
			s0.9-0.5,1.6-0.5c0.7,0,1.2,0.1,1.6,0.4s0.7,0.7,0.7,1.4h-1.4c0-0.2-0.1-0.3-0.1-0.4c-0.2-0.2-0.4-0.3-0.8-0.3
			c-0.3,0-0.5,0-0.6,0.1c-0.1,0.1-0.2,0.2-0.2,0.3c0,0.2,0.1,0.3,0.2,0.3c0.1,0.1,0.6,0.2,1.4,0.4c0.5,0.1,1,0.3,1.2,0.6
			c0.3,0.3,0.4,0.6,0.4,1c0,0.5-0.2,0.9-0.6,1.3c-0.4,0.3-1,0.5-1.8,0.5c-0.8,0-1.4-0.2-1.8-0.5c-0.4-0.3-0.6-0.8-0.6-1.3H98.2z"/>
		<path class="st4" d="M107.1,3.8c0.4,0.5,0.6,1.1,0.6,2c0,0.9-0.2,1.6-0.6,2.1c-0.4,0.5-1,0.7-1.6,0.7c-0.4,0-0.8-0.1-1.1-0.3
			c-0.2-0.1-0.3-0.3-0.4-0.5v2.7h-1.4V3.2h1.3V4c0.1-0.2,0.3-0.4,0.5-0.5c0.3-0.2,0.7-0.4,1.1-0.4C106.1,3.1,106.7,3.4,107.1,3.8z
			 M106,4.8c-0.2-0.3-0.5-0.5-0.9-0.5c-0.5,0-0.9,0.2-1,0.7c-0.1,0.3-0.1,0.6-0.1,1c0,0.6,0.2,1,0.5,1.3c0.2,0.1,0.4,0.2,0.7,0.2
			c0.4,0,0.7-0.1,0.9-0.4s0.3-0.7,0.3-1.2C106.3,5.5,106.2,5.1,106,4.8z"/>
		<path class="st4" d="M113.1,7.9c-0.4,0.5-1.1,0.8-2,0.8c-0.9,0-1.6-0.3-2-0.8c-0.4-0.5-0.7-1.2-0.7-2c0-0.8,0.2-1.4,0.7-2
			c0.4-0.6,1.1-0.8,2-0.8c0.9,0,1.6,0.3,2,0.8s0.7,1.2,0.7,2C113.8,6.7,113.5,7.3,113.1,7.9z M112,7.1c0.2-0.3,0.3-0.7,0.3-1.2
			c0-0.5-0.1-0.9-0.3-1.2c-0.2-0.3-0.5-0.4-0.9-0.4s-0.7,0.1-0.9,0.4c-0.2,0.3-0.3,0.7-0.3,1.2c0,0.5,0.1,0.9,0.3,1.2
			c0.2,0.3,0.5,0.4,0.9,0.4S111.8,7.4,112,7.1z"/>
		<path class="st4" d="M119,3.5c0.3,0.3,0.5,0.8,0.5,1.4v3.5h-1.4V5.3c0-0.3,0-0.5-0.1-0.6c-0.1-0.3-0.4-0.4-0.8-0.4
			c-0.5,0-0.8,0.2-1,0.6c-0.1,0.2-0.1,0.5-0.1,0.8v2.9h-1.4V3.3h1.3V4c0.2-0.3,0.3-0.5,0.5-0.6c0.3-0.2,0.6-0.3,1.1-0.3
			C118.2,3.1,118.6,3.3,119,3.5z"/>
		<path class="st4" d="M121.9,6.8c0,0.2,0.1,0.4,0.2,0.5c0.2,0.2,0.5,0.3,1,0.3c0.3,0,0.5,0,0.6-0.1s0.2-0.2,0.2-0.4
			c0-0.2-0.1-0.3-0.2-0.4c-0.1-0.1-0.6-0.2-1.4-0.4c-0.6-0.1-1-0.3-1.3-0.6c-0.2-0.2-0.4-0.5-0.4-0.9c0-0.5,0.2-0.9,0.6-1.3
			s0.9-0.5,1.6-0.5c0.7,0,1.2,0.1,1.6,0.4s0.7,0.7,0.7,1.4h-1.4c0-0.2-0.1-0.3-0.1-0.4c-0.2-0.2-0.4-0.3-0.8-0.3
			c-0.3,0-0.5,0-0.6,0.1c-0.1,0.1-0.2,0.2-0.2,0.3c0,0.2,0.1,0.3,0.2,0.3c0.1,0.1,0.6,0.2,1.4,0.4c0.5,0.1,1,0.3,1.2,0.6
			c0.3,0.3,0.4,0.6,0.4,1c0,0.5-0.2,0.9-0.6,1.3c-0.4,0.3-1,0.5-1.8,0.5c-0.8,0-1.4-0.2-1.8-0.5c-0.4-0.3-0.6-0.8-0.6-1.3H121.9z"/>
		<path class="st4" d="M129.7,3.4c0.4,0.2,0.7,0.4,0.9,0.8c0.2,0.3,0.4,0.7,0.4,1.1c0,0.2,0.1,0.6,0,1h-3.8c0,0.5,0.2,0.9,0.6,1.1
			c0.2,0.1,0.5,0.2,0.8,0.2c0.3,0,0.6-0.1,0.8-0.2c0.1-0.1,0.2-0.2,0.3-0.4h1.4c0,0.3-0.2,0.6-0.5,1c-0.5,0.5-1.1,0.8-2,0.8
			c-0.7,0-1.3-0.2-1.9-0.6c-0.5-0.4-0.8-1.1-0.8-2.1c0-0.9,0.2-1.6,0.7-2.1c0.5-0.5,1.1-0.7,1.9-0.7C129,3.1,129.4,3.2,129.7,3.4z
			 M127.7,4.5c-0.2,0.2-0.3,0.5-0.4,0.8h2.4c0-0.4-0.1-0.6-0.4-0.8s-0.5-0.3-0.8-0.3C128.1,4.2,127.9,4.3,127.7,4.5z"/>
	</g>
	<polyline class="st5" points="13,12.4 13.3,12.4 13.6,12.5 13.8,12.6 14.1,12.8 14.4,13 14.7,13.2 15,13.5 15.2,13.8 15.5,14.2 
		15.8,14.7 16.1,15.1 16.4,15.6 16.7,16.2 16.9,16.8 17.2,17.5 17.5,18.2 17.8,18.9 18.1,19.7 18.3,20.5 18.6,21.3 18.9,22.2 
		19.2,23.2 19.5,24.2 19.7,25.2 20,26.3 20.3,27.4 20.6,28.5 20.9,29.7 21.1,30.9 21.4,32.2 21.7,33.5 22,34.8 22.3,36.2 22.6,37.6 
		22.8,39 23.1,40.5 23.4,42 23.7,43.5 24,45.1 24.2,46.7 24.5,48.3 24.8,50 25.1,51.7 25.4,53.4 25.6,55.2 25.9,57 26.2,58.8 
		26.5,60.6 26.8,62.4 27,64.3 27.3,66.2 27.6,68.2 27.9,70.1 28.2,72.1 28.4,74.1 28.7,76.1 29,78.1 29.3,80.2 29.6,82.2 29.9,84.3 
		30.1,86.4 30.4,88.5 30.7,90.6 31,92.8 31.3,94.9 31.5,97.1 31.8,99.3 32.1,101.5 32.4,103.7 32.7,105.9 32.9,108.1 33.2,110.3 
		33.5,112.5 33.8,114.8 34.1,117 34.3,119.2 34.6,121.5 34.9,123.7 35.2,125.9 35.5,128.2 35.7,130.4 36,132.7 36.3,134.9 
		36.6,137.1 36.9,139.4 37.2,141.6 37.4,143.8 37.7,146 38,148.2 38.3,150.5 38.6,152.6 38.8,154.8 39.1,157 39.4,159.2 39.7,161.3 
		40,163.5 40.2,165.6 40.5,167.7 40.8,169.8 41.1,171.9 41.4,174 41.6,176 41.9,178.1 42.2,180.1 42.5,182.1 42.8,184.1 43,186.1 
		43.3,188 43.6,189.9 43.9,191.8 44.2,193.7 44.5,195.6 44.7,197.5 45,199.3 45.3,201.1 45.6,202.9 45.9,204.6 46.1,206.4 
		46.4,208.1 46.7,209.8 47,211.4 47.3,213.1 47.5,214.7 47.8,216.3 48.1,217.8 48.4,219.4 48.7,220.9 48.9,222.4 49.2,223.8 
		49.5,225.2 49.8,226.6 50.1,228 50.3,229.4 50.6,230.7 50.9,232 51.2,233.3 51.5,234.5 51.8,235.7 52,236.9 52.3,238 52.6,239.2 
		52.9,240.3 53.2,241.3 53.4,242.4 53.7,243.4 54,244.4 54.3,245.4 54.6,246.3 54.8,247.2 55.1,248.1 55.4,248.9 55.7,249.8 
		56,250.6 56.2,251.3 56.5,252.1 56.8,252.8 57.1,253.5 57.4,254.2 57.7,254.8 57.9,255.4 58.2,256 58.5,256.6 58.8,257.1 
		59.1,257.6 59.3,258.1 59.6,258.6 59.9,259.1 60.2,259.5 60.5,259.9 60.7,260.3 61,260.6 61.3,261 61.6,261.3 61.9,261.6 
		62.1,261.9 62.4,262.2 62.7,262.4 63,262.6 63.3,262.8 63.5,263 63.8,263.2 64.1,263.3 64.4,263.5 64.7,263.6 65,263.7 65.2,263.8 
		65.5,263.9 65.8,263.9 66.1,264 66.4,264 66.6,264 66.9,264.1 67.2,264.1 67.5,264 67.8,264 68,264 68.3,263.9 68.6,263.9 
		68.9,263.8 69.2,263.8 69.4,263.7 69.7,263.6 70,263.5 70.3,263.4 70.6,263.3 70.8,263.2 71.1,263.1 71.4,263 71.7,262.9 72,262.7 
		72.3,262.6 72.5,262.5 72.8,262.4 73.1,262.2 73.4,262.1 73.7,261.9 73.9,261.8 74.2,261.7 74.5,261.5 74.8,261.4 75.1,261.3 
		75.3,261.1 75.6,261 75.9,260.9 76.2,260.7 76.5,260.6 76.7,260.5 77,260.4 77.3,260.2 77.6,260.1 77.9,260 78.1,259.9 78.4,259.8 
		78.7,259.7 79,259.6 79.3,259.5 79.6,259.5 79.8,259.4 80.1,259.3 80.4,259.2 80.7,259.2 81,259.1 81.2,259.1 81.5,259 81.8,259 
		82.1,259 82.4,258.9 82.6,258.9 82.9,258.9 83.2,258.9 83.5,258.9 83.8,258.9 84,258.9 84.3,259 84.6,259 84.9,259 85.2,259.1 
		85.4,259.1 85.7,259.2 86,259.2 86.3,259.3 86.6,259.4 86.9,259.5 87.1,259.5 87.4,259.6 87.7,259.7 88,259.8 88.3,259.9 88.5,260 
		88.8,260.1 89.1,260.2 89.4,260.4 89.7,260.5 89.9,260.6 90.2,260.7 90.5,260.9 90.8,261 91.1,261.1 91.3,261.3 91.6,261.4 
		91.9,261.5 92.2,261.7 92.5,261.8 92.8,261.9 93,262.1 93.3,262.2 93.6,262.4 93.9,262.5 94.2,262.6 94.4,262.7 94.7,262.9 95,263 
		95.3,263.1 95.6,263.2 95.8,263.3 96.1,263.4 96.4,263.5 96.7,263.6 97,263.7 97.2,263.8 97.5,263.8 97.8,263.9 98.1,263.9 
		98.4,264 98.6,264 98.9,264 99.2,264.1 99.5,264.1 99.8,264 100.1,264 100.3,264 100.6,263.9 100.9,263.9 101.2,263.8 101.5,263.7 
		101.7,263.6 102,263.5 102.3,263.3 102.6,263.2 102.9,263 103.1,262.8 103.4,262.6 103.7,262.4 104,262.2 104.3,261.9 104.5,261.6 
		104.8,261.3 105.1,261 105.4,260.6 105.7,260.3 105.9,259.9 106.2,259.5 106.5,259.1 106.8,258.6 107.1,258.1 107.4,257.6 
		107.6,257.1 107.9,256.6 108.2,256 108.5,255.4 108.8,254.8 109,254.2 109.3,253.5 109.6,252.8 109.9,252.1 110.2,251.3 
		110.4,250.6 110.7,249.8 111,248.9 111.3,248.1 111.6,247.2 111.8,246.3 112.1,245.4 112.4,244.4 112.7,243.4 113,242.4 
		113.2,241.3 113.5,240.3 113.8,239.2 114.1,238 114.4,236.9 114.7,235.7 114.9,234.5 115.2,233.3 115.5,232 115.8,230.7 
		116.1,229.4 116.3,228 116.6,226.6 116.9,225.2 117.2,223.8 117.5,222.4 117.7,220.9 118,219.4 118.3,217.8 118.6,216.3 
		118.9,214.7 119.1,213.1 119.4,211.4 119.7,209.8 120,208.1 120.3,206.4 120.5,204.6 120.8,202.9 121.1,201.1 121.4,199.3 
		121.7,197.5 122,195.6 122.2,193.7 122.5,191.8 122.8,189.9 123.1,188 123.4,186.1 123.6,184.1 123.9,182.1 124.2,180.1 
		124.5,178.1 124.8,176 125,174 125.3,171.9 125.6,169.8 125.9,167.7 126.2,165.6 126.4,163.5 126.7,161.3 127,159.2 127.3,157 
		127.6,154.8 127.9,152.6 128.1,150.5 128.4,148.2 128.7,146 129,143.8 129.3,141.6 129.5,139.4 129.8,137.1 130.1,134.9 
		130.4,132.7 130.7,130.4 130.9,128.2 131.2,125.9 131.5,123.7 131.8,121.5 132.1,119.2 132.3,117 132.6,114.8 132.9,112.5 
		133.2,110.3 133.5,108.1 133.7,105.9 134,103.7 134.3,101.5 134.6,99.3 134.9,97.1 135.2,94.9 135.4,92.8 135.7,90.6 136,88.5 
		136.3,86.4 136.6,84.3 136.8,82.2 137.1,80.2 137.4,78.1 137.7,76.1 138,74.1 138.2,72.1 138.5,70.1 138.8,68.2 139.1,66.2 
		139.4,64.3 139.6,62.4 139.9,60.6 140.2,58.8 140.5,57 140.8,55.2 141,53.4 141.3,51.7 141.6,50 141.9,48.3 142.2,46.7 142.5,45.1 
		142.7,43.5 143,42 143.3,40.5 143.6,39 143.9,37.6 144.1,36.2 144.4,34.8 144.7,33.5 145,32.2 145.3,30.9 145.5,29.7 145.8,28.5 
		146.1,27.4 146.4,26.3 146.7,25.2 146.9,24.2 147.2,23.2 147.5,22.2 147.8,21.3 148.1,20.5 148.3,19.7 148.6,18.9 148.9,18.2 
		149.2,17.5 149.5,16.8 149.8,16.2 150,15.6 150.3,15.1 150.6,14.7 150.9,14.2 151.2,13.8 151.4,13.5 151.7,13.2 152,13 152.3,12.8 
		152.6,12.6 152.8,12.5 153.1,12.4 	"/>
	<path class="st0" d="M197.8,269.2V12.4 M233.1,269.2V12.4 M268.3,269.2V12.4 M303.6,269.2V12.4 M338.8,269.2V12.4 M338.8,269.2
		h-141 M338.8,205h-141 M338.8,140.8h-141 M338.8,76.6h-141 M338.8,12.4h-141"/>
	<path class="st1" d="M197.8,269.2h141 M197.8,12.4h141 M197.8,269.2v-2.6 M233.1,269.2v-2.6 M268.3,269.2v-2.6 M303.6,269.2v-2.6
		 M338.8,269.2v-2.6 M197.8,12.4V15 M233.1,12.4V15 M268.3,12.4V15 M303.6,12.4V15 M338.8,12.4V15"/>
	<g>
		<path class="st2" d="M194,278.9h2.2v0.8H194V278.9z"/>
	</g>
	<path class="st3" d="M197.5,281.6c0,0,0-0.1,0-0.1c0.2-0.4,0.3-0.7,0.5-1c0.1-0.3,0.3-0.7,0.4-1c0.1-0.3,0.2-0.7,0.3-1h-0.6
		c-0.2,0-0.4,0.1-0.6,0.2c-0.2,0.1-0.3,0.3-0.5,0.5c0,0,0,0-0.1,0h-0.1c-0.1,0-0.1,0-0.1-0.1c0,0,0,0,0-0.1c0.2-0.3,0.4-0.6,0.6-0.8
		c0.2-0.2,0.5-0.3,0.8-0.3h3.3c0.1,0,0.1,0,0.2,0.1c0,0,0.1,0.1,0.1,0.2c0,0.1,0,0.2-0.1,0.2c-0.1,0.1-0.1,0.1-0.2,0.1h-1.1
		c-0.1,0.5-0.2,0.9-0.2,1.4c0,0.6,0.1,1.1,0.3,1.6c0,0,0,0.1,0,0.1c0,0.1,0,0.1-0.1,0.2c0,0.1-0.1,0.1-0.2,0.1
		c-0.1,0-0.1,0.1-0.2,0.1c-0.2,0-0.3-0.1-0.3-0.4c-0.1-0.3-0.1-0.5-0.1-0.8c0-0.3,0-0.7,0.1-1c0.1-0.3,0.2-0.8,0.3-1.3h-1
		c-0.5,1.9-0.8,3-0.9,3.2c-0.1,0.2-0.2,0.2-0.3,0.2c-0.1,0-0.1,0-0.2-0.1C197.5,281.8,197.5,281.7,197.5,281.6L197.5,281.6z"/>
	<g>
		<path class="st2" d="M225.2,278.9h2.2v0.8h-2.2V278.9z"/>
	</g>
	<path class="st3" d="M228.7,281.6c0,0,0-0.1,0-0.1c0.2-0.4,0.3-0.7,0.5-1c0.1-0.3,0.3-0.7,0.4-1s0.2-0.7,0.3-1h-0.6
		c-0.2,0-0.4,0.1-0.6,0.2c-0.2,0.1-0.3,0.3-0.5,0.5c0,0,0,0-0.1,0h-0.1c-0.1,0-0.1,0-0.1-0.1c0,0,0,0,0-0.1c0.2-0.3,0.4-0.6,0.6-0.8
		c0.2-0.2,0.5-0.3,0.8-0.3h3.3c0.1,0,0.1,0,0.2,0.1c0,0,0.1,0.1,0.1,0.2c0,0.1,0,0.2-0.1,0.2c-0.1,0.1-0.1,0.1-0.2,0.1h-1.1
		c-0.1,0.5-0.2,0.9-0.2,1.4c0,0.6,0.1,1.1,0.3,1.6c0,0,0,0.1,0,0.1c0,0.1,0,0.1-0.1,0.2c0,0.1-0.1,0.1-0.2,0.1
		c-0.1,0-0.1,0.1-0.2,0.1c-0.2,0-0.3-0.1-0.3-0.4c-0.1-0.3-0.1-0.5-0.1-0.8c0-0.3,0-0.7,0.1-1c0.1-0.3,0.2-0.8,0.3-1.3h-1
		c-0.5,1.9-0.8,3-0.9,3.2c-0.1,0.2-0.2,0.2-0.3,0.2c-0.1,0-0.1,0-0.2-0.1C228.7,281.8,228.7,281.7,228.7,281.6L228.7,281.6z"/>
	<g>
		<path class="st2" d="M235.9,275.2l-2.2,6.8h-0.6l2.2-6.8H235.9z"/>
		<path class="st2" d="M240.3,277.3c0,0.5-0.1,0.8-0.4,1.1c-0.2,0.3-0.7,0.6-1.3,1c-0.7,0.4-1.2,0.8-1.5,1.1
			c-0.1,0.1-0.2,0.3-0.3,0.5h3.4v0.8h-4.3v0c0-0.7,0.2-1.2,0.5-1.6c0.3-0.4,1-0.9,1.9-1.4c0.4-0.2,0.7-0.5,0.9-0.7
			c0.2-0.2,0.2-0.5,0.2-0.8c0-0.3-0.1-0.6-0.4-0.8c-0.2-0.2-0.5-0.3-0.9-0.3c-0.4,0-0.7,0.1-0.9,0.4c-0.2,0.3-0.3,0.7-0.4,1.1h-0.8
			c0-0.7,0.2-1.2,0.6-1.6c0.4-0.4,0.9-0.6,1.6-0.6c0.6,0,1.1,0.2,1.4,0.5C240.1,276.3,240.3,276.8,240.3,277.3z"/>
	</g>
	<g>
		<path class="st2" d="M266.5,280.9c-0.4-0.6-0.6-1.4-0.6-2.4s0.2-1.8,0.6-2.4c0.4-0.6,0.9-0.8,1.6-0.8c0.7,0,1.2,0.3,1.6,0.8
			c0.4,0.6,0.6,1.4,0.6,2.4s-0.2,1.8-0.6,2.4c-0.4,0.6-0.9,0.8-1.6,0.8C267.4,281.8,266.9,281.5,266.5,280.9z M269.1,280.4
			c0.2-0.4,0.3-1.1,0.3-1.9c0-0.8-0.1-1.5-0.3-1.9c-0.2-0.4-0.6-0.6-1-0.6c-0.4,0-0.8,0.2-1,0.6c-0.2,0.4-0.3,1.1-0.3,1.9
			c0,0.8,0.1,1.5,0.3,1.9c0.2,0.4,0.5,0.6,1,0.6C268.5,281,268.9,280.8,269.1,280.4z"/>
	</g>
	<path class="st3" d="M297.7,281.6c0,0,0-0.1,0-0.1c0.2-0.4,0.3-0.7,0.5-1c0.1-0.3,0.3-0.7,0.4-1s0.2-0.7,0.3-1h-0.6
		c-0.2,0-0.4,0.1-0.6,0.2c-0.2,0.1-0.3,0.3-0.5,0.5c0,0,0,0-0.1,0h-0.1c-0.1,0-0.1,0-0.1-0.1c0,0,0,0,0-0.1c0.2-0.3,0.4-0.6,0.6-0.8
		c0.2-0.2,0.5-0.3,0.8-0.3h3.3c0.1,0,0.1,0,0.2,0.1c0,0,0.1,0.1,0.1,0.2c0,0.1,0,0.2-0.1,0.2c-0.1,0.1-0.1,0.1-0.2,0.1h-1.1
		c-0.1,0.5-0.2,0.9-0.2,1.4c0,0.6,0.1,1.1,0.3,1.6c0,0,0,0.1,0,0.1c0,0.1,0,0.1-0.1,0.2c0,0.1-0.1,0.1-0.1,0.1
		c-0.1,0-0.1,0.1-0.2,0.1c-0.2,0-0.3-0.1-0.3-0.4c-0.1-0.3-0.1-0.5-0.1-0.8c0-0.3,0-0.7,0.1-1c0.1-0.3,0.2-0.8,0.3-1.3h-1
		c-0.5,1.9-0.8,3-0.9,3.2c-0.1,0.2-0.2,0.2-0.3,0.2c-0.1,0-0.1,0-0.2-0.1C297.7,281.8,297.7,281.7,297.7,281.6L297.7,281.6z"/>
	<g>
		<path class="st2" d="M304.9,275.2l-2.2,6.8h-0.6l2.2-6.8H304.9z"/>
		<path class="st2" d="M309.3,277.3c0,0.5-0.1,0.8-0.4,1.1c-0.2,0.3-0.7,0.6-1.3,1c-0.7,0.4-1.2,0.8-1.5,1.1
			c-0.1,0.1-0.2,0.3-0.3,0.5h3.4v0.8h-4.3v0c0-0.7,0.2-1.2,0.5-1.6c0.3-0.4,1-0.9,1.9-1.4c0.4-0.2,0.7-0.5,0.9-0.7
			c0.2-0.2,0.2-0.5,0.2-0.8c0-0.3-0.1-0.6-0.4-0.8c-0.2-0.2-0.5-0.3-0.9-0.3c-0.4,0-0.7,0.1-0.9,0.4c-0.2,0.3-0.3,0.7-0.4,1.1h-0.8
			c0-0.7,0.2-1.2,0.6-1.6c0.4-0.4,0.9-0.6,1.6-0.6c0.6,0,1.1,0.2,1.4,0.5C309.1,276.3,309.3,276.8,309.3,277.3z"/>
	</g>
	<path class="st3" d="M336.7,281.6c0,0,0-0.1,0-0.1c0.2-0.4,0.3-0.7,0.5-1c0.1-0.3,0.3-0.7,0.4-1s0.2-0.7,0.3-1h-0.6
		c-0.2,0-0.4,0.1-0.6,0.2c-0.2,0.1-0.3,0.3-0.5,0.5c0,0,0,0-0.1,0h-0.1c-0.1,0-0.1,0-0.1-0.1c0,0,0,0,0-0.1c0.2-0.3,0.4-0.6,0.6-0.8
		c0.2-0.2,0.5-0.3,0.8-0.3h3.3c0.1,0,0.1,0,0.2,0.1c0,0,0.1,0.1,0.1,0.2c0,0.1,0,0.2-0.1,0.2c-0.1,0.1-0.1,0.1-0.2,0.1h-1.1
		c-0.1,0.5-0.2,0.9-0.2,1.4c0,0.6,0.1,1.1,0.3,1.6c0,0,0,0.1,0,0.1c0,0.1,0,0.1-0.1,0.2c0,0.1-0.1,0.1-0.1,0.1
		c-0.1,0-0.1,0.1-0.2,0.1c-0.2,0-0.3-0.1-0.3-0.4c-0.1-0.3-0.1-0.5-0.1-0.8c0-0.3,0-0.7,0.1-1c0.1-0.3,0.2-0.8,0.3-1.3h-1
		c-0.5,1.9-0.8,3-0.9,3.2c-0.1,0.2-0.2,0.2-0.3,0.2c-0.1,0-0.1,0-0.2-0.1C336.7,281.8,336.7,281.7,336.7,281.6L336.7,281.6z"/>
	<path class="st3" d="M241.1,295.8c0,0-0.1,0-0.1-0.1c0,0-0.1-0.1-0.1-0.1c0,0,0-0.1,0.1-0.1c0,0,0.1-0.1,0.1-0.1h7.3
		c-0.2-0.2-0.5-0.4-0.6-0.6c-0.2-0.2-0.3-0.5-0.5-0.7c-0.1-0.3-0.2-0.5-0.3-0.8c0-0.1,0-0.1,0.1-0.1h0.2c0,0,0,0,0.1,0s0,0,0,0.1
		c0.1,0.3,0.1,0.5,0.2,0.8s0.3,0.5,0.4,0.7c0.2,0.2,0.4,0.4,0.6,0.5c0.2,0.1,0.5,0.3,0.7,0.4c0,0,0.1,0.1,0.1,0.1
		c0,0.1,0,0.1-0.1,0.1c-0.3,0.1-0.6,0.3-0.9,0.5c-0.3,0.2-0.5,0.5-0.7,0.8c-0.2,0.3-0.3,0.6-0.4,1c0,0,0,0,0,0.1s0,0-0.1,0h-0.2
		c-0.1,0-0.1,0-0.1-0.1c0.1-0.4,0.2-0.9,0.5-1.2c0.2-0.4,0.5-0.7,0.9-1H241.1L241.1,295.8z"/>
	<g>
	</g>
	<path class="st3" d="M255.2,298.1c-0.3,0-0.5-0.1-0.7-0.3c-0.2-0.2-0.3-0.5-0.4-0.8c-0.1-0.3-0.1-0.6-0.1-0.9v0c0-0.3,0-0.6,0.1-1
		c0.1-0.3,0.2-0.7,0.3-1c0.1-0.3,0.2-0.6,0.4-0.9c0.1-0.2,0.2-0.4,0.4-0.6s0.3-0.4,0.5-0.7c0.2-0.2,0.4-0.4,0.6-0.5
		c0.2-0.1,0.4-0.2,0.6-0.2h0c0.2,0,0.4,0.1,0.6,0.2c0.2,0.1,0.3,0.3,0.4,0.5c0.1,0.2,0.1,0.4,0.2,0.6c0,0.2,0.1,0.4,0.1,0.7
		c0,0.5-0.1,1-0.2,1.5c-0.1,0.5-0.3,1-0.5,1.5c-0.1,0.2-0.2,0.4-0.4,0.6c-0.2,0.2-0.3,0.5-0.5,0.6c-0.2,0.2-0.4,0.4-0.6,0.5
		C255.6,298,255.4,298.1,255.2,298.1L255.2,298.1L255.2,298.1z M255.2,297.8c0.2,0,0.4-0.1,0.6-0.3c0.2-0.2,0.4-0.5,0.5-0.8
		c0.1-0.3,0.3-0.7,0.4-1c0.1-0.3,0.2-0.6,0.2-0.9h-2c-0.1,0.4-0.2,0.7-0.2,1c-0.1,0.3-0.1,0.6-0.1,0.9
		C254.7,297.5,254.8,297.8,255.2,297.8L255.2,297.8z M255,294.5h2c0.1-0.3,0.1-0.5,0.2-0.7c0-0.2,0.1-0.4,0.1-0.6c0-0.2,0-0.4,0-0.6
		c0-0.8-0.2-1.1-0.5-1.1c-0.4,0-0.8,0.3-1.1,1C255.5,293.1,255.2,293.8,255,294.5L255,294.5z"/>
	<g>
		<path class="st2" d="M261.8,290.8h1.9v0.7h-1.1v7.7h1.1v0.7h-1.9V290.8z"/>
		<path class="st2" d="M264.7,292.8h0.4h0.4v0.9c0.1-0.1,0.2-0.3,0.2-0.4c0.3-0.4,0.7-0.7,1.2-0.7c0.1,0,0.2,0,0.2,0v0.9l-0.2,0
			c-0.5,0-0.8,0.1-1.1,0.4c-0.3,0.3-0.4,0.7-0.4,1.2v2.8h-0.4h-0.4V292.8z"/>
		<path class="st2" d="M269.2,298.1c-0.5,0-0.9-0.1-1.2-0.4c-0.3-0.3-0.4-0.6-0.4-1.1c0-0.5,0.1-0.8,0.4-1.1
			c0.3-0.3,0.7-0.4,1.2-0.5l1.2-0.2c0.1,0,0.2,0,0.3,0c0.1,0,0.2-0.1,0.3-0.2c0.1-0.1,0.1-0.2,0.1-0.3v0c0-0.3-0.1-0.5-0.3-0.7
			c-0.2-0.2-0.5-0.2-0.9-0.2c-0.4,0-0.6,0.1-0.8,0.2s-0.3,0.4-0.4,0.7h-0.8c0-0.6,0.2-1,0.6-1.3c0.4-0.3,0.9-0.4,1.5-0.4
			c0.6,0,1.1,0.1,1.4,0.4c0.3,0.3,0.5,0.7,0.5,1.2v2.8c0,0.1,0,0.2,0.1,0.2c0.1,0.1,0.1,0.1,0.2,0.1c0,0,0.1,0,0.1,0
			c0,0,0.1,0,0.2,0v0.6c-0.1,0-0.2,0.1-0.3,0.1c-0.1,0-0.2,0-0.2,0c-0.3,0-0.6-0.1-0.7-0.3c-0.1-0.1-0.2-0.3-0.2-0.5
			c-0.1,0.1-0.1,0.2-0.2,0.2C270.4,297.9,269.8,298.1,269.2,298.1z M271,295.9v-0.6c-0.2,0.1-0.3,0.1-0.5,0.2l-0.8,0.1
			c-0.4,0.1-0.7,0.2-0.9,0.3c-0.2,0.1-0.3,0.3-0.3,0.6c0,0.3,0.1,0.5,0.2,0.7c0.2,0.2,0.4,0.2,0.7,0.2c0.5,0,0.8-0.1,1.2-0.4
			c0.2-0.2,0.4-0.4,0.4-0.6c0,0,0-0.1,0-0.2C271,296.2,271,296.1,271,295.9z"/>
		<path class="st2" d="M275.3,298.1c-0.7,0-1.2-0.3-1.7-0.8s-0.6-1.2-0.6-2.1c0-0.8,0.2-1.4,0.6-1.9c0.4-0.5,0.9-0.7,1.6-0.7
			c0.6,0,1.1,0.3,1.5,0.8l0.1,0.1v-2.7h0.4h0.4v7.1h-0.4h-0.4v-0.7l-0.1,0.2C276.4,297.9,275.9,298.1,275.3,298.1z M275.4,293.4
			c-0.5,0-0.8,0.2-1.1,0.5c-0.2,0.3-0.3,0.8-0.3,1.5c0,0.6,0.1,1.1,0.4,1.5s0.6,0.5,1,0.5c0.4,0,0.8-0.2,1-0.5s0.4-0.7,0.4-1.3
			c0-0.7-0.1-1.2-0.4-1.6S275.8,293.4,275.4,293.4z"/>
		<path class="st2" d="M279.1,296.9h1v1h-1V296.9z"/>
	</g>
	<g>
		<path class="st2" d="M282.9,294.3c0-0.3-0.1-0.5-0.4-0.7c-0.2-0.2-0.5-0.2-0.8-0.2c-0.4,0-0.6,0.1-0.8,0.2
			c-0.2,0.1-0.3,0.3-0.3,0.6c0,0.2,0.1,0.3,0.2,0.4c0.1,0.1,0.4,0.2,0.8,0.3l0.9,0.2c0.5,0.1,0.9,0.3,1.1,0.5
			c0.2,0.2,0.3,0.5,0.3,0.9c0,0.5-0.2,0.9-0.6,1.2s-0.9,0.5-1.5,0.5c-0.7,0-1.3-0.1-1.6-0.4c-0.4-0.3-0.6-0.7-0.6-1.4h0.8
			c0,0.4,0.2,0.6,0.4,0.8s0.6,0.2,1,0.2c0.4,0,0.7-0.1,0.9-0.2c0.2-0.1,0.3-0.4,0.3-0.6c0-0.2-0.1-0.3-0.2-0.4
			c-0.1-0.1-0.4-0.2-0.8-0.3l-0.9-0.2c-0.5-0.1-0.8-0.3-1-0.5c-0.2-0.2-0.3-0.5-0.3-0.9c0-0.5,0.2-0.9,0.5-1.2s0.8-0.4,1.4-0.4
			c0.6,0,1.1,0.1,1.4,0.4c0.4,0.3,0.5,0.7,0.6,1.2H282.9z"/>
	</g>
	<g>
		<path class="st2" d="M286.3,290.6h1.9v0.7h-1.9V290.6z"/>
		<path class="st2" d="M290.7,289.2h-1.3v-0.6c0.4,0,0.7-0.1,0.9-0.2c0.2-0.2,0.4-0.4,0.5-0.8h0.6v5.6h-0.4h-0.4V289.2z"/>
	</g>
	<g>
		<path class="st2" d="M295.3,299.9h-1.9v-0.7h1.1v-7.7h-1.1v-0.7h1.9V299.9z"/>
	</g>
	<path class="st1" d="M197.8,269.2V12.4 M338.8,269.2V12.4 M197.8,269.2h2.6 M197.8,205h2.6 M197.8,140.8h2.6 M197.8,76.6h2.6
		 M197.8,12.4h2.6 M338.8,269.2h-2.6 M338.8,205h-2.6 M338.8,140.8h-2.6 M338.8,76.6h-2.6 M338.8,12.4h-2.6"/>
	<g>
		<path class="st2" d="M186.8,269.9h2.2v0.8h-2.2V269.9z"/>
	</g>
	<path class="st3" d="M190.3,272.6c0,0,0-0.1,0-0.1c0.2-0.4,0.3-0.7,0.5-1c0.1-0.3,0.3-0.7,0.4-1s0.2-0.7,0.3-1H191
		c-0.2,0-0.4,0.1-0.6,0.2c-0.2,0.1-0.3,0.3-0.5,0.5c0,0,0,0-0.1,0h-0.1c-0.1,0-0.1,0-0.1-0.1c0,0,0,0,0-0.1c0.2-0.3,0.4-0.6,0.6-0.8
		c0.2-0.2,0.5-0.3,0.8-0.3h3.3c0.1,0,0.1,0,0.2,0.1c0,0,0.1,0.1,0.1,0.2c0,0.1,0,0.2-0.1,0.2c-0.1,0.1-0.1,0.1-0.2,0.1h-1.1
		c-0.1,0.5-0.2,0.9-0.2,1.4c0,0.6,0.1,1.1,0.3,1.6c0,0,0,0.1,0,0.1c0,0.1,0,0.1-0.1,0.2c0,0.1-0.1,0.1-0.1,0.1
		c-0.1,0-0.1,0.1-0.2,0.1c-0.2,0-0.3-0.1-0.3-0.4c-0.1-0.3-0.1-0.5-0.1-0.8c0-0.3,0-0.7,0.1-1c0.1-0.3,0.2-0.8,0.3-1.3h-1
		c-0.5,1.9-0.8,3-0.9,3.2c-0.1,0.2-0.2,0.2-0.3,0.2c-0.1,0-0.1,0-0.2-0.1C190.3,272.8,190.3,272.7,190.3,272.6L190.3,272.6z"/>
	<g>
		<path class="st2" d="M179,205.7h2.2v0.8H179V205.7z"/>
	</g>
	<path class="st3" d="M182.5,208.4c0,0,0-0.1,0-0.1c0.2-0.4,0.3-0.7,0.5-1c0.1-0.3,0.3-0.7,0.4-1c0.1-0.3,0.2-0.7,0.3-1h-0.6
		c-0.2,0-0.4,0.1-0.6,0.2c-0.2,0.1-0.3,0.3-0.5,0.5c0,0,0,0-0.1,0h-0.1c-0.1,0-0.1,0-0.1-0.1c0,0,0,0,0-0.1c0.2-0.3,0.4-0.6,0.6-0.8
		c0.2-0.2,0.5-0.3,0.8-0.3h3.3c0.1,0,0.1,0,0.2,0.1c0,0,0.1,0.1,0.1,0.2c0,0.1,0,0.2-0.1,0.2c-0.1,0.1-0.1,0.1-0.2,0.1h-1.1
		c-0.1,0.5-0.2,0.9-0.2,1.4c0,0.6,0.1,1.1,0.3,1.6c0,0,0,0.1,0,0.1c0,0.1,0,0.1-0.1,0.2c0,0.1-0.1,0.1-0.2,0.1
		c-0.1,0-0.1,0.1-0.2,0.1c-0.2,0-0.3-0.1-0.3-0.4c-0.1-0.3-0.1-0.5-0.1-0.8c0-0.3,0-0.7,0.1-1c0.1-0.3,0.2-0.8,0.3-1.3h-1
		c-0.5,1.9-0.8,3-0.9,3.2c-0.1,0.2-0.2,0.2-0.3,0.2c-0.1,0-0.1,0-0.2-0.1C182.5,208.6,182.5,208.5,182.5,208.4L182.5,208.4z"/>
	<g>
		<path class="st2" d="M189.7,202l-2.2,6.8h-0.6l2.2-6.8H189.7z"/>
		<path class="st2" d="M194.1,204.1c0,0.5-0.1,0.8-0.4,1.1c-0.2,0.3-0.7,0.6-1.3,1c-0.7,0.4-1.2,0.8-1.5,1.1
			c-0.1,0.1-0.2,0.3-0.3,0.5h3.4v0.8h-4.3v0c0-0.7,0.2-1.2,0.5-1.6c0.3-0.4,1-0.9,1.9-1.4c0.4-0.2,0.7-0.5,0.9-0.7
			c0.2-0.2,0.2-0.5,0.2-0.8c0-0.3-0.1-0.6-0.4-0.8c-0.2-0.2-0.5-0.3-0.9-0.3c-0.4,0-0.7,0.1-0.9,0.4c-0.2,0.3-0.3,0.7-0.4,1.1h-0.8
			c0-0.7,0.2-1.2,0.6-1.6c0.4-0.4,0.9-0.6,1.6-0.6c0.6,0,1.1,0.2,1.4,0.5C193.9,203.1,194.1,203.6,194.1,204.1z"/>
	</g>
	<g>
		<path class="st2" d="M190.5,143.7c-0.4-0.6-0.6-1.4-0.6-2.4s0.2-1.8,0.6-2.4c0.4-0.6,0.9-0.8,1.6-0.8c0.7,0,1.2,0.3,1.6,0.8
			c0.4,0.6,0.6,1.4,0.6,2.4s-0.2,1.8-0.6,2.4c-0.4,0.6-0.9,0.8-1.6,0.8C191.4,144.6,190.9,144.3,190.5,143.7z M193.1,143.2
			c0.2-0.4,0.3-1.1,0.3-1.9c0-0.8-0.1-1.5-0.3-1.9c-0.2-0.4-0.6-0.6-1-0.6c-0.4,0-0.8,0.2-1,0.6c-0.2,0.4-0.3,1.1-0.3,1.9
			c0,0.8,0.1,1.5,0.3,1.9c0.2,0.4,0.5,0.6,1,0.6C192.5,143.8,192.9,143.6,193.1,143.2z"/>
	</g>
	<path class="st3" d="M182.5,80c0,0,0-0.1,0-0.1c0.2-0.3,0.3-0.7,0.5-1c0.1-0.3,0.3-0.7,0.4-1c0.1-0.3,0.2-0.7,0.3-1h-0.6
		c-0.2,0-0.4,0.1-0.6,0.2c-0.2,0.1-0.3,0.3-0.5,0.5c0,0,0,0-0.1,0h-0.1c-0.1,0-0.1,0-0.1-0.1c0,0,0,0,0-0.1c0.2-0.3,0.4-0.6,0.6-0.8
		c0.2-0.2,0.5-0.3,0.8-0.3h3.3c0.1,0,0.1,0,0.2,0.1c0,0,0.1,0.1,0.1,0.2c0,0.1,0,0.2-0.1,0.2c-0.1,0.1-0.1,0.1-0.2,0.1h-1.1
		c-0.1,0.5-0.2,0.9-0.2,1.4c0,0.6,0.1,1.1,0.3,1.6c0,0,0,0.1,0,0.1c0,0.1,0,0.1-0.1,0.2c0,0.1-0.1,0.1-0.2,0.1
		c-0.1,0-0.1,0.1-0.2,0.1c-0.2,0-0.3-0.1-0.3-0.4c-0.1-0.3-0.1-0.5-0.1-0.8c0-0.3,0-0.7,0.1-1c0.1-0.3,0.2-0.8,0.3-1.3h-1
		c-0.5,1.9-0.8,3-0.9,3.2c-0.1,0.2-0.2,0.2-0.3,0.2c-0.1,0-0.1,0-0.2-0.1C182.5,80.2,182.5,80.1,182.5,80L182.5,80z"/>
	<g>
		<path class="st2" d="M189.7,73.6l-2.2,6.8h-0.6l2.2-6.8H189.7z"/>
		<path class="st2" d="M194.1,75.7c0,0.5-0.1,0.8-0.4,1.1c-0.2,0.3-0.7,0.6-1.3,1c-0.7,0.4-1.2,0.8-1.5,1.1
			c-0.1,0.1-0.2,0.3-0.3,0.5h3.4v0.8h-4.3v0c0-0.7,0.2-1.2,0.5-1.6c0.3-0.4,1-0.9,1.9-1.4c0.4-0.2,0.7-0.5,0.9-0.7s0.2-0.5,0.2-0.8
			c0-0.3-0.1-0.6-0.4-0.8s-0.5-0.3-0.9-0.3c-0.4,0-0.7,0.1-0.9,0.4c-0.2,0.3-0.3,0.6-0.4,1.1h-0.8c0-0.7,0.2-1.2,0.6-1.6
			c0.4-0.4,0.9-0.6,1.6-0.6c0.6,0,1.1,0.2,1.4,0.5C193.9,74.7,194.1,75.2,194.1,75.7z"/>
	</g>
	<path class="st3" d="M190.3,15.8c0,0,0-0.1,0-0.1c0.2-0.4,0.3-0.7,0.5-1c0.1-0.3,0.3-0.7,0.4-1c0.1-0.3,0.2-0.7,0.3-1H191
		c-0.2,0-0.4,0.1-0.6,0.2c-0.2,0.1-0.3,0.3-0.5,0.5c0,0,0,0-0.1,0h-0.1c-0.1,0-0.1,0-0.1-0.1c0,0,0,0,0-0.1c0.2-0.3,0.4-0.6,0.6-0.8
		c0.2-0.2,0.5-0.3,0.8-0.3h3.3c0.1,0,0.1,0,0.2,0.1c0,0,0.1,0.1,0.1,0.2c0,0.1,0,0.2-0.1,0.2c-0.1,0.1-0.1,0.1-0.2,0.1h-1.1
		c-0.1,0.5-0.2,0.9-0.2,1.4c0,0.6,0.1,1.1,0.3,1.6c0,0,0,0.1,0,0.1c0,0.1,0,0.1-0.1,0.2c0,0.1-0.1,0.1-0.1,0.1
		c-0.1,0-0.1,0.1-0.2,0.1c-0.2,0-0.3-0.1-0.3-0.4c-0.1-0.3-0.1-0.5-0.1-0.8c0-0.3,0-0.7,0.1-1c0.1-0.3,0.2-0.8,0.3-1.3h-1
		c-0.5,1.9-0.8,3-0.9,3.2c-0.1,0.2-0.2,0.2-0.3,0.2c-0.1,0-0.1,0-0.2-0.1C190.3,16,190.3,15.9,190.3,15.8L190.3,15.8z"/>
	<g>
		<path class="st4" d="M235.7,5.4c-0.4,0.3-1,0.5-1.8,0.5h-1.5v2.6H231V1.4h3.1c0.7,0,1.3,0.2,1.7,0.6c0.4,0.4,0.6,0.9,0.6,1.7
			C236.4,4.5,236.2,5.1,235.7,5.4z M234.6,2.9c-0.2-0.2-0.5-0.2-0.8-0.2h-1.3v2.1h1.3c0.3,0,0.6-0.1,0.8-0.3s0.3-0.4,0.3-0.8
			C234.9,3.3,234.8,3,234.6,2.9z"/>
		<path class="st4" d="M241.2,3.3c0.3,0.1,0.5,0.3,0.7,0.5c0.1,0.2,0.2,0.4,0.3,0.6s0,0.5,0,1v3.1h-1.4V5.3c0-0.3,0-0.5-0.1-0.7
			c-0.1-0.2-0.4-0.4-0.7-0.4c-0.4,0-0.6,0.1-0.8,0.4c-0.2,0.2-0.3,0.6-0.3,1v2.9h-1.4V1.4h1.4v2.5c0.2-0.3,0.4-0.5,0.7-0.6
			c0.3-0.1,0.5-0.2,0.8-0.2C240.7,3.1,241,3.2,241.2,3.3z"/>
		<path class="st4" d="M245.6,5.3c0.3,0,0.4-0.1,0.6-0.1c0.2-0.1,0.3-0.2,0.3-0.4c0-0.2-0.1-0.4-0.2-0.4c-0.2-0.1-0.4-0.1-0.7-0.1
			c-0.3,0-0.6,0.1-0.7,0.2c-0.1,0.1-0.2,0.3-0.2,0.5h-1.3c0-0.5,0.2-0.8,0.4-1.1c0.4-0.5,1-0.7,1.9-0.7c0.6,0,1.1,0.1,1.5,0.3
			c0.5,0.2,0.7,0.7,0.7,1.3v2.4c0,0.2,0,0.4,0,0.6c0,0.2,0,0.3,0.1,0.4c0,0.1,0.1,0.1,0.2,0.2v0.2h-1.5c0-0.1-0.1-0.2-0.1-0.3
			c0-0.1,0-0.2,0-0.3c-0.2,0.2-0.4,0.4-0.7,0.5c-0.3,0.2-0.6,0.3-1,0.3c-0.5,0-0.9-0.1-1.2-0.4c-0.3-0.3-0.5-0.7-0.5-1.2
			c0-0.6,0.3-1.1,0.8-1.4c0.3-0.2,0.7-0.3,1.2-0.3L245.6,5.3z M246.4,6c-0.1,0.1-0.2,0.1-0.3,0.1c-0.1,0-0.2,0.1-0.4,0.1l-0.3,0.1
			c-0.3,0.1-0.5,0.1-0.6,0.2c-0.2,0.1-0.3,0.3-0.3,0.6c0,0.2,0.1,0.4,0.2,0.5c0.1,0.1,0.3,0.2,0.5,0.2c0.3,0,0.6-0.1,0.8-0.3
			c0.3-0.2,0.4-0.5,0.4-1V6z"/>
		<path class="st4" d="M250.1,6.8c0,0.2,0.1,0.4,0.2,0.5c0.2,0.2,0.5,0.3,1,0.3c0.3,0,0.5,0,0.6-0.1s0.2-0.2,0.2-0.4
			c0-0.2-0.1-0.3-0.2-0.4s-0.6-0.2-1.4-0.4c-0.6-0.1-1-0.3-1.3-0.6c-0.2-0.2-0.4-0.5-0.4-0.9c0-0.5,0.2-0.9,0.6-1.3s0.9-0.5,1.6-0.5
			c0.7,0,1.2,0.1,1.6,0.4s0.7,0.7,0.7,1.4H252c0-0.2-0.1-0.3-0.2-0.4c-0.2-0.2-0.4-0.3-0.8-0.3c-0.3,0-0.5,0-0.6,0.1
			c-0.1,0.1-0.2,0.2-0.2,0.3c0,0.2,0.1,0.3,0.2,0.3c0.1,0.1,0.6,0.2,1.4,0.4c0.5,0.1,1,0.3,1.2,0.6c0.3,0.3,0.4,0.6,0.4,1
			c0,0.5-0.2,0.9-0.6,1.3c-0.4,0.3-1,0.5-1.8,0.5c-0.8,0-1.4-0.2-1.8-0.5s-0.6-0.8-0.6-1.3H250.1z"/>
		<path class="st4" d="M257.9,3.4c0.4,0.2,0.7,0.4,0.9,0.8c0.2,0.3,0.4,0.7,0.4,1.1c0,0.2,0.1,0.6,0,1h-3.8c0,0.5,0.2,0.9,0.6,1.1
			c0.2,0.1,0.5,0.2,0.8,0.2c0.3,0,0.6-0.1,0.8-0.2c0.1-0.1,0.2-0.2,0.3-0.4h1.4c0,0.3-0.2,0.6-0.5,1c-0.5,0.5-1.1,0.8-2,0.8
			c-0.7,0-1.3-0.2-1.9-0.6c-0.5-0.4-0.8-1.1-0.8-2.1c0-0.9,0.2-1.6,0.7-2.1c0.5-0.5,1.1-0.7,1.9-0.7C257.2,3.1,257.6,3.2,257.9,3.4z
			 M255.9,4.5c-0.2,0.2-0.3,0.5-0.4,0.8h2.4c0-0.4-0.1-0.6-0.4-0.8s-0.5-0.3-0.8-0.3C256.3,4.2,256.1,4.3,255.9,4.5z"/>
		<path class="st4" d="M265.7,3.1c0,0,0.1,0,0.1,0v1.4c-0.1,0-0.2,0-0.2,0c-0.1,0-0.1,0-0.2,0c-0.6,0-0.9,0.2-1.1,0.5
			c-0.1,0.2-0.2,0.5-0.2,0.9v2.5h-1.4V3.2h1.3v0.9c0.2-0.4,0.4-0.6,0.6-0.7C264.9,3.2,265.2,3.1,265.7,3.1
			C265.7,3.1,265.7,3.1,265.7,3.1z"/>
		<path class="st4" d="M270.1,3.4c0.4,0.2,0.7,0.4,0.9,0.8c0.2,0.3,0.4,0.7,0.4,1.1c0,0.2,0.1,0.6,0,1h-3.8c0,0.5,0.2,0.9,0.6,1.1
			c0.2,0.1,0.5,0.2,0.8,0.2c0.3,0,0.6-0.1,0.8-0.2c0.1-0.1,0.2-0.2,0.3-0.4h1.4c0,0.3-0.2,0.6-0.5,1c-0.5,0.5-1.1,0.8-2,0.8
			c-0.7,0-1.3-0.2-1.9-0.6c-0.5-0.4-0.8-1.1-0.8-2.1c0-0.9,0.2-1.6,0.7-2.1c0.5-0.5,1.1-0.7,1.9-0.7C269.3,3.1,269.7,3.2,270.1,3.4z
			 M268,4.5c-0.2,0.2-0.3,0.5-0.4,0.8h2.4c0-0.4-0.1-0.6-0.4-0.8s-0.5-0.3-0.8-0.3C268.5,4.2,268.2,4.3,268,4.5z"/>
		<path class="st4" d="M273.2,6.8c0,0.2,0.1,0.4,0.2,0.5c0.2,0.2,0.5,0.3,1,0.3c0.3,0,0.5,0,0.6-0.1s0.2-0.2,0.2-0.4
			c0-0.2-0.1-0.3-0.2-0.4s-0.6-0.2-1.4-0.4c-0.6-0.1-1-0.3-1.3-0.6c-0.2-0.2-0.4-0.5-0.4-0.9c0-0.5,0.2-0.9,0.6-1.3s0.9-0.5,1.6-0.5
			c0.7,0,1.2,0.1,1.6,0.4s0.7,0.7,0.7,1.4h-1.4c0-0.2-0.1-0.3-0.2-0.4c-0.2-0.2-0.4-0.3-0.8-0.3c-0.3,0-0.5,0-0.6,0.1
			c-0.1,0.1-0.2,0.2-0.2,0.3c0,0.2,0.1,0.3,0.2,0.3c0.1,0.1,0.6,0.2,1.4,0.4c0.5,0.1,1,0.3,1.2,0.6c0.3,0.3,0.4,0.6,0.4,1
			c0,0.5-0.2,0.9-0.6,1.3c-0.4,0.3-1,0.5-1.8,0.5c-0.8,0-1.4-0.2-1.8-0.5s-0.6-0.8-0.6-1.3H273.2z"/>
		<path class="st4" d="M282.1,3.8c0.4,0.5,0.6,1.1,0.6,2c0,0.9-0.2,1.6-0.6,2.1c-0.4,0.5-1,0.7-1.6,0.7c-0.4,0-0.8-0.1-1.1-0.3
			c-0.2-0.1-0.3-0.3-0.4-0.5v2.7h-1.4V3.2h1.3V4c0.1-0.2,0.3-0.4,0.5-0.5c0.3-0.2,0.7-0.4,1.1-0.4C281.1,3.1,281.6,3.4,282.1,3.8z
			 M281,4.8c-0.2-0.3-0.5-0.5-0.9-0.5c-0.5,0-0.9,0.2-1,0.7c-0.1,0.3-0.1,0.6-0.1,1c0,0.6,0.2,1,0.5,1.3c0.2,0.1,0.4,0.2,0.7,0.2
			c0.4,0,0.7-0.1,0.9-0.4c0.2-0.3,0.3-0.7,0.3-1.2C281.3,5.5,281.2,5.1,281,4.8z"/>
		<path class="st4" d="M288.1,7.9c-0.4,0.5-1.1,0.8-2,0.8c-0.9,0-1.6-0.3-2-0.8c-0.4-0.5-0.7-1.2-0.7-2c0-0.8,0.2-1.4,0.7-2
			c0.4-0.6,1.1-0.8,2-0.8c0.9,0,1.6,0.3,2,0.8s0.7,1.2,0.7,2C288.7,6.7,288.5,7.3,288.1,7.9z M287,7.1c0.2-0.3,0.3-0.7,0.3-1.2
			c0-0.5-0.1-0.9-0.3-1.2s-0.5-0.4-0.9-0.4c-0.4,0-0.7,0.1-0.9,0.4s-0.3,0.7-0.3,1.2c0,0.5,0.1,0.9,0.3,1.2c0.2,0.3,0.5,0.4,0.9,0.4
			C286.4,7.5,286.8,7.4,287,7.1z"/>
		<path class="st4" d="M294,3.5c0.3,0.3,0.5,0.8,0.5,1.4v3.5h-1.4V5.3c0-0.3,0-0.5-0.1-0.6c-0.1-0.3-0.4-0.4-0.8-0.4
			c-0.5,0-0.8,0.2-1,0.6c-0.1,0.2-0.1,0.5-0.1,0.8v2.9h-1.4V3.3h1.3V4c0.2-0.3,0.3-0.5,0.5-0.6c0.3-0.2,0.6-0.3,1.1-0.3
			C293.2,3.1,293.6,3.3,294,3.5z"/>
		<path class="st4" d="M296.8,6.8c0,0.2,0.1,0.4,0.2,0.5c0.2,0.2,0.5,0.3,1,0.3c0.3,0,0.5,0,0.6-0.1s0.2-0.2,0.2-0.4
			c0-0.2-0.1-0.3-0.2-0.4s-0.6-0.2-1.4-0.4c-0.6-0.1-1-0.3-1.3-0.6c-0.2-0.2-0.4-0.5-0.4-0.9c0-0.5,0.2-0.9,0.6-1.3s0.9-0.5,1.6-0.5
			c0.7,0,1.2,0.1,1.6,0.4s0.7,0.7,0.7,1.4h-1.4c0-0.2-0.1-0.3-0.2-0.4c-0.2-0.2-0.4-0.3-0.8-0.3c-0.3,0-0.5,0-0.6,0.1
			C297,4.4,297,4.5,297,4.6c0,0.2,0.1,0.3,0.2,0.3c0.1,0.1,0.6,0.2,1.4,0.4c0.5,0.1,1,0.3,1.2,0.6c0.3,0.3,0.4,0.6,0.4,1
			c0,0.5-0.2,0.9-0.6,1.3c-0.4,0.3-1,0.5-1.8,0.5c-0.8,0-1.4-0.2-1.8-0.5s-0.6-0.8-0.6-1.3H296.8z"/>
	</g>
	<g>
		<path class="st4" d="M305.1,3.4c0.4,0.2,0.7,0.4,0.9,0.8c0.2,0.3,0.4,0.7,0.4,1.1c0,0.2,0.1,0.6,0,1h-3.8c0,0.5,0.2,0.9,0.6,1.1
			c0.2,0.1,0.5,0.2,0.8,0.2c0.3,0,0.6-0.1,0.8-0.2c0.1-0.1,0.2-0.2,0.3-0.4h1.4c0,0.3-0.2,0.6-0.5,1c-0.5,0.5-1.1,0.8-2,0.8
			c-0.7,0-1.3-0.2-1.9-0.6c-0.5-0.4-0.8-1.1-0.8-2.1c0-0.9,0.2-1.6,0.7-2.1c0.5-0.5,1.1-0.7,1.9-0.7C304.3,3.1,304.7,3.2,305.1,3.4z
			 M303,4.5c-0.2,0.2-0.3,0.5-0.4,0.8h2.4c0-0.4-0.1-0.6-0.4-0.8s-0.5-0.3-0.8-0.3C303.5,4.2,303.2,4.3,303,4.5z"/>
	</g>
	<polyline class="st6" points="197.8,140.8 198.1,141.8 198.4,142.8 198.6,143.9 198.9,144.9 199.2,145.9 199.5,147 199.8,148 
		200.1,149 200.3,150 200.6,151.1 200.9,152.1 201.2,153.1 201.5,154.1 201.8,155.2 202,156.2 202.3,157.2 202.6,158.3 202.9,159.3 
		203.2,160.3 203.4,161.3 203.7,162.4 204,163.4 204.3,164.4 204.6,165.4 204.9,166.5 205.1,167.5 205.4,168.5 205.7,169.6 
		206,170.6 206.3,171.6 206.5,172.6 206.8,173.7 207.1,174.7 207.4,175.7 207.7,176.7 208,177.8 208.2,178.8 208.5,179.8 
		208.8,180.9 209.1,181.9 209.4,182.9 209.6,183.9 209.9,185 210.2,186 210.5,187 210.8,188 211.1,189.1 211.3,190.1 211.6,191.1 
		211.9,192.2 212.2,193.2 212.5,194.2 212.7,195.2 213,196.3 213.3,197.3 213.6,198.3 213.9,199.3 214.2,200.4 214.4,201.4 
		214.7,202.4 215,203.4 215.3,204.5 215.6,205.5 215.9,206.5 216.1,207.6 216.4,208.6 216.7,209.6 217,210.6 217.3,211.7 
		217.5,212.7 217.8,213.7 218.1,214.7 218.4,215.8 218.7,216.8 219,217.8 219.2,218.9 219.5,219.9 219.8,220.9 220.1,221.9 
		220.4,223 220.6,224 220.9,225 221.2,226 221.5,227.1 221.8,228.1 222.1,229.1 222.3,230.2 222.6,231.2 222.9,232.2 223.2,233.2 
		223.5,234.3 223.7,235.3 224,236.3 224.3,237.3 224.6,238.4 224.9,239.4 225.2,240.4 225.4,241.5 225.7,242.5 226,243.5 
		226.3,244.5 226.6,245.6 226.8,246.6 227.1,247.6 227.4,248.6 227.7,249.7 228,250.7 228.3,251.7 228.5,252.8 228.8,253.8 
		229.1,254.8 229.4,255.8 229.7,256.9 230,257.9 230.2,258.9 230.5,259.9 230.8,261 231.1,262 231.4,263 231.6,264.1 231.9,265.1 
		232.2,266.1 232.5,267.1 232.8,268.2 233.1,12.4 233.3,13.4 233.6,14.4 233.9,15.5 234.2,16.5 234.5,17.5 234.7,18.6 235,19.6 
		235.3,20.6 235.6,21.6 235.9,22.7 236.2,23.7 236.4,24.7 236.7,25.7 237,26.8 237.3,27.8 237.6,28.8 237.8,29.9 238.1,30.9 
		238.4,31.9 238.7,32.9 239,34 239.3,35 239.5,36 239.8,37 240.1,38.1 240.4,39.1 240.7,40.1 240.9,41.2 241.2,42.2 241.5,43.2 
		241.8,44.2 242.1,45.3 242.4,46.3 242.6,47.3 242.9,48.3 243.2,49.4 243.5,50.4 243.8,51.4 244.1,52.5 244.3,53.5 244.6,54.5 
		244.9,55.5 245.2,56.6 245.5,57.6 245.7,58.6 246,59.6 246.3,60.7 246.6,61.7 246.9,62.7 247.2,63.8 247.4,64.8 247.7,65.8 
		248,66.8 248.3,67.9 248.6,68.9 248.8,69.9 249.1,70.9 249.4,72 249.7,73 250,74 250.3,75 250.5,76.1 250.8,77.1 251.1,78.1 
		251.4,79.2 251.7,80.2 251.9,81.2 252.2,82.2 252.5,83.3 252.8,84.3 253.1,85.3 253.4,86.3 253.6,87.4 253.9,88.4 254.2,89.4 
		254.5,90.5 254.8,91.5 255,92.5 255.3,93.5 255.6,94.6 255.9,95.6 256.2,96.6 256.5,97.6 256.7,98.7 257,99.7 257.3,100.7 
		257.6,101.8 257.9,102.8 258.2,103.8 258.4,104.8 258.7,105.9 259,106.9 259.3,107.9 259.6,108.9 259.8,110 260.1,111 260.4,112 
		260.7,113.1 261,114.1 261.3,115.1 261.5,116.1 261.8,117.2 262.1,118.2 262.4,119.2 262.7,120.2 262.9,121.3 263.2,122.3 
		263.5,123.3 263.8,124.4 264.1,125.4 264.4,126.4 264.6,127.4 264.9,128.5 265.2,129.5 265.5,130.5 265.8,131.5 266,132.6 
		266.3,133.6 266.6,134.6 266.9,135.7 267.2,136.7 267.5,137.7 267.7,138.7 268,139.8 268.3,140.8 268.6,141.8 268.9,142.8 
		269.1,143.9 269.4,144.9 269.7,145.9 270,147 270.3,148 270.6,149 270.8,150 271.1,151.1 271.4,152.1 271.7,153.1 272,154.1 
		272.3,155.2 272.5,156.2 272.8,157.2 273.1,158.3 273.4,159.3 273.7,160.3 273.9,161.3 274.2,162.4 274.5,163.4 274.8,164.4 
		275.1,165.4 275.4,166.5 275.6,167.5 275.9,168.5 276.2,169.6 276.5,170.6 276.8,171.6 277,172.6 277.3,173.7 277.6,174.7 
		277.9,175.7 278.2,176.7 278.5,177.8 278.7,178.8 279,179.8 279.3,180.9 279.6,181.9 279.9,182.9 280.1,183.9 280.4,185 280.7,186 
		281,187 281.3,188 281.6,189.1 281.8,190.1 282.1,191.1 282.4,192.2 282.7,193.2 283,194.2 283.2,195.2 283.5,196.3 283.8,197.3 
		284.1,198.3 284.4,199.3 284.7,200.4 284.9,201.4 285.2,202.4 285.5,203.4 285.8,204.5 286.1,205.5 286.4,206.5 286.6,207.6 
		286.9,208.6 287.2,209.6 287.5,210.6 287.8,211.7 288,212.7 288.3,213.7 288.6,214.7 288.9,215.8 289.2,216.8 289.5,217.8 
		289.7,218.9 290,219.9 290.3,220.9 290.6,221.9 290.9,223 291.1,224 291.4,225 291.7,226 292,227.1 292.3,228.1 292.6,229.1 
		292.8,230.2 293.1,231.2 293.4,232.2 293.7,233.2 294,234.3 294.2,235.3 294.5,236.3 294.8,237.3 295.1,238.4 295.4,239.4 
		295.7,240.4 295.9,241.5 296.2,242.5 296.5,243.5 296.8,244.5 297.1,245.6 297.3,246.6 297.6,247.6 297.9,248.6 298.2,249.7 
		298.5,250.7 298.8,251.7 299,252.8 299.3,253.8 299.6,254.8 299.9,255.8 300.2,256.9 300.5,257.9 300.7,258.9 301,259.9 301.3,261 
		301.6,262 301.9,263 302.1,264.1 302.4,265.1 302.7,266.1 303,267.1 303.3,268.2 303.6,12.4 303.8,13.4 304.1,14.4 304.4,15.5 
		304.7,16.5 305,17.5 305.2,18.6 305.5,19.6 305.8,20.6 306.1,21.6 306.4,22.7 306.7,23.7 306.9,24.7 307.2,25.7 307.5,26.8 
		307.8,27.8 308.1,28.8 308.3,29.9 308.6,30.9 308.9,31.9 309.2,32.9 309.5,34 309.8,35 310,36 310.3,37 310.6,38.1 310.9,39.1 
		311.2,40.1 311.4,41.2 311.7,42.2 312,43.2 312.3,44.2 312.6,45.3 312.9,46.3 313.1,47.3 313.4,48.3 313.7,49.4 314,50.4 
		314.3,51.4 314.6,52.5 314.8,53.5 315.1,54.5 315.4,55.5 315.7,56.6 316,57.6 316.2,58.6 316.5,59.6 316.8,60.7 317.1,61.7 
		317.4,62.7 317.7,63.8 317.9,64.8 318.2,65.8 318.5,66.8 318.8,67.9 319.1,68.9 319.3,69.9 319.6,70.9 319.9,72 320.2,73 320.5,74 
		320.8,75 321,76.1 321.3,77.1 321.6,78.1 321.9,79.2 322.2,80.2 322.4,81.2 322.7,82.2 323,83.3 323.3,84.3 323.6,85.3 323.9,86.3 
		324.1,87.4 324.4,88.4 324.7,89.4 325,90.5 325.3,91.5 325.5,92.5 325.8,93.5 326.1,94.6 326.4,95.6 326.7,96.6 327,97.6 
		327.2,98.7 327.5,99.7 327.8,100.7 328.1,101.8 328.4,102.8 328.7,103.8 328.9,104.8 329.2,105.9 329.5,106.9 329.8,107.9 
		330.1,108.9 330.3,110 330.6,111 330.9,112 331.2,113.1 331.5,114.1 331.8,115.1 332,116.1 332.3,117.2 332.6,118.2 332.9,119.2 
		333.2,120.2 333.4,121.3 333.7,122.3 334,123.3 334.3,124.4 334.6,125.4 334.9,126.4 335.1,127.4 335.4,128.5 335.7,129.5 
		336,130.5 336.3,131.5 336.5,132.6 336.8,133.6 337.1,134.6 337.4,135.7 337.7,136.7 338,137.7 338.2,138.7 338.5,139.8 	"/>
</g>
</svg>
