<svg id="Layer_1" data-name="Layer 1" xmlns="http://www.w3.org/2000/svg" viewBox="0 0 342.977 301.679">
  <defs>
    <style>
      .cls-1, .cls-2, .cls-6, .cls-7 {
        fill: none;
        stroke-linejoin: round;
      }

      .cls-1 {
        stroke: #dfdfdf;
      }

      .cls-1, .cls-2 {
        stroke-width: 0.5px;
      }

      .cls-2 {
        stroke: #262626;
        stroke-linecap: square;
      }

      .cls-3 {
        fill: #4a4a49;
      }

      .cls-4 {
        fill: #262626;
      }

      .cls-5 {
        fill: #1d1d1b;
      }

      .cls-6 {
        stroke: #000;
      }

      .cls-6, .cls-7 {
        stroke-width: 3px;
      }

      .cls-7 {
        stroke: red;
      }
    </style>
  </defs>
  <title>magphaseminphase</title>
  <g>
    <path class="cls-1" d="M15.4,272.012V15.212m35.1,256.8V15.212m35.1,256.8V15.212m35.1,256.8V15.212m35.1,256.8V15.212m0,256.8H15.4m140.4-25.68H15.4m140.4-25.68H15.4m140.4-25.68H15.4m140.4-25.68H15.4m140.4-25.68H15.4m140.4-25.68H15.4m140.4-25.68H15.4m140.4-25.68H15.4m140.4-25.68H15.4m140.4-25.68H15.4" transform="translate(-0.334 -1.076)"/>
    <path class="cls-2" d="M15.4,272.012H155.8M15.4,15.212H155.8M15.4,272.012v-2.568m35.1,2.568v-2.568m35.1,2.568v-2.568m35.1,2.568v-2.568m35.1,2.568v-2.568M15.4,15.212V17.78m35.1-2.568V17.78m35.1-2.568V17.78m35.1-2.568V17.78m35.1-2.568V17.78" transform="translate(-0.334 -1.076)"/>
    <path class="cls-3" d="M11.6,281.72h2.206v.813H11.6Z" transform="translate(-0.334 -1.076)"/>
    <path class="cls-4" d="M15.111,284.462a.43.43,0,0,1,.038-.15c.168-.351.325-.693.468-1.027s.274-.661.39-.98.22-.656.313-1.012h-.571a1.031,1.031,0,0,0-.614.206,1.723,1.723,0,0,0-.474.516.059.059,0,0,1-.056.037h-.1a.075.075,0,0,1-.085-.084.154.154,0,0,1,.019-.057,4.194,4.194,0,0,1,.629-.838,1.037,1.037,0,0,1,.759-.343h3.262a.221.221,0,0,1,.159.061.212.212,0,0,1,.066.164.33.33,0,0,1-.094.239.3.3,0,0,1-.225.1H17.849a7.048,7.048,0,0,0-.159,1.378,3.953,3.953,0,0,0,.3,1.566.2.2,0,0,1,.027.1.324.324,0,0,1-.056.187.411.411,0,0,1-.15.136.378.378,0,0,1-.187.052c-.163,0-.272-.13-.329-.39a3.562,3.562,0,0,1-.084-.754,5.664,5.664,0,0,1,.084-.984q.085-.479.282-1.294h-.985q-.7,2.878-.852,3.178a.392.392,0,0,1-.348.244.289.289,0,0,1-.2-.075.232.232,0,0,1-.084-.178Z" transform="translate(-0.334 -1.076)"/>
    <path class="cls-3" d="M42.794,281.72H45v.813H42.794Z" transform="translate(-0.334 -1.076)"/>
    <path class="cls-4" d="M46.311,284.462a.43.43,0,0,1,.038-.15c.168-.351.325-.693.468-1.027s.274-.661.39-.98.22-.656.313-1.012h-.571a1.031,1.031,0,0,0-.614.206,1.723,1.723,0,0,0-.474.516.059.059,0,0,1-.056.037h-.1a.075.075,0,0,1-.085-.084.154.154,0,0,1,.019-.057,4.194,4.194,0,0,1,.629-.838,1.037,1.037,0,0,1,.759-.343h3.262a.221.221,0,0,1,.159.061.212.212,0,0,1,.066.164.33.33,0,0,1-.094.239.3.3,0,0,1-.225.1H49.049a7.048,7.048,0,0,0-.159,1.378,3.953,3.953,0,0,0,.3,1.566.2.2,0,0,1,.027.1.324.324,0,0,1-.056.187.411.411,0,0,1-.15.136.378.378,0,0,1-.187.052c-.163,0-.272-.13-.329-.39a3.562,3.562,0,0,1-.084-.754,5.664,5.664,0,0,1,.084-.984q.086-.479.282-1.294h-.985q-.7,2.878-.852,3.178a.392.392,0,0,1-.348.244.289.289,0,0,1-.2-.075.232.232,0,0,1-.084-.178Z" transform="translate(-0.334 -1.076)"/>
    <g>
      <path class="cls-3" d="M53.455,277.989l-2.2,6.8h-.6l2.2-6.8Z" transform="translate(-0.334 -1.076)"/>
      <path class="cls-3" d="M57.871,280.151a1.8,1.8,0,0,1-.358,1.15,4.607,4.607,0,0,1-1.347,1,5.016,5.016,0,0,0-1.463,1.076,1.947,1.947,0,0,0-.268.475h3.436v.769H53.538a2.57,2.57,0,0,1,.5-1.632A6.22,6.22,0,0,1,55.9,281.6a3.065,3.065,0,0,0,.9-.678,1.244,1.244,0,0,0,.242-.792,1.056,1.056,0,0,0-.36-.827,1.333,1.333,0,0,0-.923-.322,1.141,1.141,0,0,0-.926.4,1.83,1.83,0,0,0-.357,1.143h-.77a2.205,2.205,0,0,1,.559-1.64,2.121,2.121,0,0,1,1.6-.6,2.031,2.031,0,0,1,1.441.524A1.744,1.744,0,0,1,57.871,280.151Z" transform="translate(-0.334 -1.076)"/>
    </g>
    <path class="cls-3" d="M83.8,283.733a5.4,5.4,0,0,1,0-4.81,1.945,1.945,0,0,1,3.21,0,5.418,5.418,0,0,1,0,4.81,1.948,1.948,0,0,1-3.21,0Zm2.6-.5a5.671,5.671,0,0,0,0-3.807,1.074,1.074,0,0,0-1-.635,1.061,1.061,0,0,0-.993.635,5.591,5.591,0,0,0,0,3.807,1.06,1.06,0,0,0,.993.633A1.074,1.074,0,0,0,86.4,283.231Z" transform="translate(-0.334 -1.076)"/>
    <path class="cls-4" d="M115.311,284.462a.43.43,0,0,1,.038-.15c.168-.351.325-.693.468-1.027s.274-.661.39-.98.22-.656.313-1.012h-.571a1.031,1.031,0,0,0-.614.206,1.723,1.723,0,0,0-.474.516.059.059,0,0,1-.056.037h-.1a.075.075,0,0,1-.085-.084.154.154,0,0,1,.019-.057,4.194,4.194,0,0,1,.629-.838,1.037,1.037,0,0,1,.759-.343h3.262a.221.221,0,0,1,.159.061.212.212,0,0,1,.066.164.33.33,0,0,1-.094.239.3.3,0,0,1-.225.1h-1.143a7.048,7.048,0,0,0-.159,1.378,3.953,3.953,0,0,0,.3,1.566.2.2,0,0,1,.027.1.324.324,0,0,1-.056.187.411.411,0,0,1-.15.136.378.378,0,0,1-.187.052c-.163,0-.272-.13-.329-.39a3.562,3.562,0,0,1-.084-.754,5.664,5.664,0,0,1,.084-.984q.085-.479.282-1.294h-.985q-.7,2.878-.852,3.178a.392.392,0,0,1-.348.244.289.289,0,0,1-.2-.075.232.232,0,0,1-.084-.178Z" transform="translate(-0.334 -1.076)"/>
    <g>
      <path class="cls-3" d="M122.447,277.989l-2.2,6.8h-.6l2.2-6.8Z" transform="translate(-0.334 -1.076)"/>
      <path class="cls-3" d="M126.863,280.151a1.791,1.791,0,0,1-.358,1.15,4.607,4.607,0,0,1-1.347,1,5.03,5.03,0,0,0-1.463,1.076,1.947,1.947,0,0,0-.268.475h3.436v.769H122.53a2.57,2.57,0,0,1,.5-1.632,6.22,6.22,0,0,1,1.863-1.386,3.052,3.052,0,0,0,.905-.678,1.238,1.238,0,0,0,.242-.792,1.056,1.056,0,0,0-.36-.827,1.331,1.331,0,0,0-.923-.322,1.138,1.138,0,0,0-.925.4,1.824,1.824,0,0,0-.358,1.143H122.7a2.2,2.2,0,0,1,.558-1.64,2.123,2.123,0,0,1,1.6-.6,2.031,2.031,0,0,1,1.441.524A1.744,1.744,0,0,1,126.863,280.151Z" transform="translate(-0.334 -1.076)"/>
    </g>
    <path class="cls-4" d="M153.711,284.462a.43.43,0,0,1,.038-.15c.168-.351.325-.693.468-1.027s.274-.661.39-.98.22-.656.313-1.012h-.571a1.031,1.031,0,0,0-.614.206,1.723,1.723,0,0,0-.474.516.059.059,0,0,1-.056.037h-.1a.075.075,0,0,1-.085-.084.154.154,0,0,1,.019-.057,4.194,4.194,0,0,1,.629-.838,1.037,1.037,0,0,1,.759-.343h3.262a.221.221,0,0,1,.159.061.212.212,0,0,1,.066.164.33.33,0,0,1-.094.239.3.3,0,0,1-.225.1h-1.143a7.048,7.048,0,0,0-.159,1.378,3.953,3.953,0,0,0,.3,1.566.2.2,0,0,1,.027.1.324.324,0,0,1-.056.187.411.411,0,0,1-.15.136.378.378,0,0,1-.187.052c-.163,0-.272-.13-.329-.39a3.562,3.562,0,0,1-.084-.754,5.664,5.664,0,0,1,.084-.984q.085-.479.282-1.294h-.985q-.7,2.878-.852,3.178a.392.392,0,0,1-.348.244.289.289,0,0,1-.2-.075.232.232,0,0,1-.084-.178Z" transform="translate(-0.334 -1.076)"/>
    <path class="cls-4" d="M58.124,298.6a.159.159,0,0,1-.127-.061.2.2,0,0,1-.052-.126.211.211,0,0,1,.052-.137.161.161,0,0,1,.127-.06h7.284a3.413,3.413,0,0,1-.647-.6,3.558,3.558,0,0,1-.469-.74,3.244,3.244,0,0,1-.262-.84c0-.087.031-.131.094-.131h.2a.081.081,0,0,1,.057.028.147.147,0,0,1,.038.066,2.876,2.876,0,0,0,.248.764,3.23,3.23,0,0,0,.431.656,2.976,2.976,0,0,0,.576.525,3.028,3.028,0,0,0,.722.361.136.136,0,0,1,.066.113.086.086,0,0,1-.066.093,2.853,2.853,0,0,0-.923.516,3.057,3.057,0,0,0-.689.811,2.967,2.967,0,0,0-.365,1,.147.147,0,0,1-.038.066.081.081,0,0,1-.057.028h-.2c-.063,0-.094-.043-.094-.131a3.521,3.521,0,0,1,.487-1.238,3.361,3.361,0,0,1,.891-.956Z" transform="translate(-0.334 -1.076)"/>
    <path class="cls-4" d="M72.149,300.924a.849.849,0,0,1-.694-.324,1.854,1.854,0,0,1-.365-.773,3.964,3.964,0,0,1-.1-.89v-.01a5.605,5.605,0,0,1,.094-.994,7.11,7.11,0,0,1,.267-1.026,7.911,7.911,0,0,1,.37-.914,6.563,6.563,0,0,1,.366-.628,5.39,5.39,0,0,1,.5-.652,2.392,2.392,0,0,1,.59-.488,1.284,1.284,0,0,1,.638-.182h.009a.887.887,0,0,1,.582.192,1.262,1.262,0,0,1,.361.492,2.663,2.663,0,0,1,.178.643,4.426,4.426,0,0,1,.052.651,5.857,5.857,0,0,1-.2,1.481,7.633,7.633,0,0,1-.543,1.463,6.575,6.575,0,0,1-.361.633,4.6,4.6,0,0,1-.493.647,2.688,2.688,0,0,1-.585.482,1.238,1.238,0,0,1-.652.2Zm.018-.262a.832.832,0,0,0,.615-.338,3.347,3.347,0,0,0,.515-.825,9.67,9.67,0,0,0,.385-.994c.109-.337.192-.625.248-.862H71.97q-.15.6-.234,1.04a4.609,4.609,0,0,0-.084.863q0,1.116.515,1.116Zm-.122-3.357h1.97c.068-.281.123-.517.163-.707s.076-.391.1-.6a4.448,4.448,0,0,0,.042-.586q0-1.125-.516-1.125-.609,0-1.05.984a12.9,12.9,0,0,0-.713,2.034Z" transform="translate(-0.334 -1.076)"/>
    <g>
      <path class="cls-3" d="M78.772,293.657h1.852v.7H79.556v7.7h1.068v.7H78.772Z" transform="translate(-0.334 -1.076)"/>
      <path class="cls-3" d="M81.663,295.639h.827v.884a3.194,3.194,0,0,1,.237-.377,1.468,1.468,0,0,1,1.213-.662.754.754,0,0,1,.247.044v.889l-.179,0a1.4,1.4,0,0,0-1.091.424,1.736,1.736,0,0,0-.384,1.206v2.77h-.87Z" transform="translate(-0.334 -1.076)"/>
      <path class="cls-3" d="M86.2,300.952a1.717,1.717,0,0,1-1.2-.406,1.413,1.413,0,0,1-.445-1.1,1.477,1.477,0,0,1,.418-1.106,2.05,2.05,0,0,1,1.221-.513l1.184-.15a1.959,1.959,0,0,0,.276-.048.443.443,0,0,0,.261-.174.56.56,0,0,0,.091-.329v-.043a.764.764,0,0,0-.314-.65,1.431,1.431,0,0,0-.875-.235,1.279,1.279,0,0,0-.838.249,1.089,1.089,0,0,0-.365.741h-.8a1.709,1.709,0,0,1,.6-1.278,2.417,2.417,0,0,1,1.537-.428,2.2,2.2,0,0,1,1.435.409,1.458,1.458,0,0,1,.493,1.192v2.842a.281.281,0,0,0,.081.21.287.287,0,0,0,.214.08.873.873,0,0,0,.114-.01c.05-.006.1-.016.162-.028v.628a1.824,1.824,0,0,1-.266.077,1.23,1.23,0,0,1-.237.029.875.875,0,0,1-.715-.27,1.142,1.142,0,0,1-.208-.508,1.854,1.854,0,0,1-.222.232A2.3,2.3,0,0,1,86.2,300.952Zm1.8-2.19V298.2a1.83,1.83,0,0,1-.536.159l-.8.117a2.117,2.117,0,0,0-.918.293.648.648,0,0,0-.29.557.9.9,0,0,0,.237.67.914.914,0,0,0,.672.234,1.822,1.822,0,0,0,1.16-.372,1.258,1.258,0,0,0,.43-.589,1.019,1.019,0,0,0,.029-.2C88,298.978,88.005,298.875,88.005,298.762Z" transform="translate(-0.334 -1.076)"/>
      <path class="cls-3" d="M92.317,300.952a2,2,0,0,1-1.653-.776,3.29,3.29,0,0,1-.614-2.1,2.848,2.848,0,0,1,.595-1.88,1.921,1.921,0,0,1,1.551-.716,1.742,1.742,0,0,1,1.509.808l.067.1v-2.684h.871v7.107h-.808v-.707l-.111.161A1.7,1.7,0,0,1,92.317,300.952Zm.049-4.684a1.232,1.232,0,0,0-1.069.466,2.561,2.561,0,0,0-.338,1.482,2.535,2.535,0,0,0,.365,1.474,1.2,1.2,0,0,0,1.042.517,1.248,1.248,0,0,0,1.02-.476,1.933,1.933,0,0,0,.386-1.259,3.032,3.032,0,0,0-.365-1.631A1.164,1.164,0,0,0,92.366,296.268Z" transform="translate(-0.334 -1.076)"/>
      <path class="cls-3" d="M96.068,299.763H97.1v1.049H96.068Z" transform="translate(-0.334 -1.076)"/>
    </g>
    <path class="cls-3" d="M99.886,297.138a.9.9,0,0,0-.35-.667,1.355,1.355,0,0,0-.839-.238,1.5,1.5,0,0,0-.825.189.622.622,0,0,0-.283.552.474.474,0,0,0,.2.415,2.535,2.535,0,0,0,.788.28l.9.213a2.289,2.289,0,0,1,1.078.508,1.2,1.2,0,0,1,.321.894,1.488,1.488,0,0,1-.554,1.218,2.3,2.3,0,0,1-1.5.45,2.57,2.57,0,0,1-1.63-.432,1.807,1.807,0,0,1-.594-1.362h.836a1.1,1.1,0,0,0,.39.8,1.653,1.653,0,0,0,1,.246,1.491,1.491,0,0,0,.888-.222.755.755,0,0,0,.3-.648.47.47,0,0,0-.2-.41,2.538,2.538,0,0,0-.8-.281l-.9-.212a2.154,2.154,0,0,1-1.039-.489,1.173,1.173,0,0,1-.31-.87,1.419,1.419,0,0,1,.519-1.158,2.151,2.151,0,0,1,1.409-.428,2.187,2.187,0,0,1,1.437.441,1.579,1.579,0,0,1,.568,1.213Z" transform="translate(-0.334 -1.076)"/>
    <g>
      <path class="cls-3" d="M103.348,293.458h1.942v.716h-1.942Z" transform="translate(-0.334 -1.076)"/>
      <path class="cls-3" d="M107.741,292.055h-1.3V291.5a1.508,1.508,0,0,0,.936-.248,1.53,1.53,0,0,0,.537-.812h.568v5.569h-.738Z" transform="translate(-0.334 -1.076)"/>
    </g>
    <path class="cls-3" d="M112.33,302.755h-1.851v-.7h1.068v-7.7h-1.068v-.7h1.851Z" transform="translate(-0.334 -1.076)"/>
    <path class="cls-2" d="M15.4,272.012V15.212m140.4,256.8V15.212M15.4,272.012H17.97M15.4,246.332H17.97M15.4,220.652H17.97M15.4,194.972H17.97M15.4,169.292H17.97M15.4,143.612H17.97M15.4,117.932H17.97M15.4,92.252H17.97M15.4,66.572H17.97M15.4,40.892H17.97M15.4,15.212H17.97M155.8,272.012h-2.568m2.568-25.68h-2.568m2.568-25.68h-2.568m2.568-25.68h-2.568m2.568-25.68h-2.568m2.568-25.68h-2.568m2.568-25.68h-2.568m2.568-25.68h-2.568m2.568-25.68h-2.568m2.568-25.68h-2.568m2.568-25.68h-2.568" transform="translate(-0.334 -1.076)"/>
    <path class="cls-3" d="M8.1,274.937a5.4,5.4,0,0,1,0-4.811,1.816,1.816,0,0,1,1.6-.846,1.819,1.819,0,0,1,1.608.846,5.42,5.42,0,0,1,0,4.811,1.819,1.819,0,0,1-1.608.843A1.816,1.816,0,0,1,8.1,274.937Zm2.6-.5a5.674,5.674,0,0,0,0-3.808,1.074,1.074,0,0,0-1-.635,1.062,1.062,0,0,0-.994.635,5.594,5.594,0,0,0,0,3.808,1.062,1.062,0,0,0,.994.632A1.074,1.074,0,0,0,10.706,274.435Z" transform="translate(-0.334 -1.076)"/>
    <g>
      <path class="cls-3" d="M.9,249.265a5.412,5.412,0,0,1,0-4.811,1.818,1.818,0,0,1,1.6-.846,1.82,1.82,0,0,1,1.609.846,4.335,4.335,0,0,1,.562,2.406,4.327,4.327,0,0,1-.562,2.4,1.819,1.819,0,0,1-1.609.843A1.818,1.818,0,0,1,.9,249.265Zm2.6-.5a4.177,4.177,0,0,0,.33-1.9,4.2,4.2,0,0,0-.33-1.905,1.072,1.072,0,0,0-1-.635,1.062,1.062,0,0,0-.993.635,5.594,5.594,0,0,0,0,3.808,1.061,1.061,0,0,0,.993.633A1.072,1.072,0,0,0,3.5,248.763Z" transform="translate(-0.334 -1.076)"/>
      <path class="cls-3" d="M5.788,248.983h.94v.954h-.94Z" transform="translate(-0.334 -1.076)"/>
    </g>
    <path class="cls-3" d="M11.316,245.472a1.794,1.794,0,0,1-.358,1.149,4.607,4.607,0,0,1-1.347,1,5.056,5.056,0,0,0-1.464,1.076,2.015,2.015,0,0,0-.268.475h3.437v.77H6.983a2.57,2.57,0,0,1,.5-1.632,6.223,6.223,0,0,1,1.864-1.387,3.065,3.065,0,0,0,.9-.678,1.242,1.242,0,0,0,.242-.792,1.054,1.054,0,0,0-.361-.827,1.329,1.329,0,0,0-.922-.322,1.144,1.144,0,0,0-.926.4,1.841,1.841,0,0,0-.358,1.144H7.154a2.211,2.211,0,0,1,.558-1.641,2.128,2.128,0,0,1,1.6-.6,2.034,2.034,0,0,1,1.442.524A1.746,1.746,0,0,1,11.316,245.472Z" transform="translate(-0.334 -1.076)"/>
    <g>
      <path class="cls-3" d="M.9,223.577a5.41,5.41,0,0,1,0-4.81,1.816,1.816,0,0,1,1.6-.846,1.818,1.818,0,0,1,1.609.846,4.333,4.333,0,0,1,.562,2.406,4.321,4.321,0,0,1-.562,2.4,1.818,1.818,0,0,1-1.609.844A1.817,1.817,0,0,1,.9,223.577Zm2.6-.5a4.172,4.172,0,0,0,.33-1.9,4.189,4.189,0,0,0-.33-1.905,1.072,1.072,0,0,0-1-.635,1.062,1.062,0,0,0-.993.635,5.591,5.591,0,0,0,0,3.807,1.061,1.061,0,0,0,.993.633A1.072,1.072,0,0,0,3.5,223.075Z" transform="translate(-0.334 -1.076)"/>
      <path class="cls-3" d="M5.788,223.3h.94v.953h-.94Z" transform="translate(-0.334 -1.076)"/>
    </g>
    <path class="cls-3" d="M6.974,222.733V222L9.9,217.921h.659v4.135h.9v.677h-.9v1.516H9.765v-1.516Zm2.791-.677v-2.883L7.748,222l-.044.061Z" transform="translate(-0.334 -1.076)"/>
    <g>
      <path class="cls-3" d="M.9,197.9a5.41,5.41,0,0,1,0-4.81,1.816,1.816,0,0,1,1.6-.846,1.818,1.818,0,0,1,1.609.846,4.333,4.333,0,0,1,.562,2.406,4.321,4.321,0,0,1-.562,2.4,1.818,1.818,0,0,1-1.609.844A1.817,1.817,0,0,1,.9,197.9Zm2.6-.5a4.177,4.177,0,0,0,.33-1.9,4.192,4.192,0,0,0-.33-1.905,1.072,1.072,0,0,0-1-.635,1.062,1.062,0,0,0-.993.635,5.594,5.594,0,0,0,0,3.808,1.062,1.062,0,0,0,.993.632A1.072,1.072,0,0,0,3.5,197.4Z" transform="translate(-0.334 -1.076)"/>
      <path class="cls-3" d="M5.788,197.616h.94v.953h-.94Z" transform="translate(-0.334 -1.076)"/>
    </g>
    <path class="cls-3" d="M9.426,192.241a1.906,1.906,0,0,1,1.33.45,1.705,1.705,0,0,1,.529,1.242H10.5a.994.994,0,0,0-1.077-.98,1.238,1.238,0,0,0-1.129.7,3.563,3.563,0,0,0-.378,1.64,1.828,1.828,0,0,1,1.5-.752,1.89,1.89,0,0,1,1.443.578,2.123,2.123,0,0,1,.548,1.523,2.019,2.019,0,0,1-.6,1.52,2.158,2.158,0,0,1-1.567.576,1.829,1.829,0,0,1-1.6-.8,3.947,3.947,0,0,1-.56-2.283,4.422,4.422,0,0,1,.611-2.526A1.962,1.962,0,0,1,9.426,192.241Zm-1.41,4.4a1.406,1.406,0,0,0,.358,1,1.291,1.291,0,0,0,1.841,0,1.571,1.571,0,0,0,0-2,1.284,1.284,0,0,0-1.843,0A1.412,1.412,0,0,0,8.016,196.645Z" transform="translate(-0.334 -1.076)"/>
    <g>
      <path class="cls-3" d="M.9,172.226a5.412,5.412,0,0,1,0-4.811,1.818,1.818,0,0,1,1.6-.846,1.82,1.82,0,0,1,1.609.846,4.333,4.333,0,0,1,.562,2.406,4.327,4.327,0,0,1-.562,2.405,1.819,1.819,0,0,1-1.609.843A1.818,1.818,0,0,1,.9,172.226Zm2.6-.5a4.177,4.177,0,0,0,.33-1.9,4.2,4.2,0,0,0-.33-1.905,1.072,1.072,0,0,0-1-.635,1.062,1.062,0,0,0-.993.635,5.594,5.594,0,0,0,0,3.808,1.06,1.06,0,0,0,.993.632A1.071,1.071,0,0,0,3.5,171.724Z" transform="translate(-0.334 -1.076)"/>
      <path class="cls-3" d="M5.788,171.944h.94v.953h-.94Z" transform="translate(-0.334 -1.076)"/>
    </g>
    <path class="cls-3" d="M10.345,169.549a2.068,2.068,0,0,1,.466.286A1.547,1.547,0,0,1,11.4,171.1a1.839,1.839,0,0,1-.593,1.427,2.231,2.231,0,0,1-1.565.541,2.222,2.222,0,0,1-1.562-.541,1.841,1.841,0,0,1-.591-1.427,1.561,1.561,0,0,1,.593-1.271,2.008,2.008,0,0,1,.457-.276,3,3,0,0,1-.3-.194,1.31,1.31,0,0,1-.532-1.089,1.563,1.563,0,0,1,.534-1.234,2.058,2.058,0,0,1,1.4-.468,2.058,2.058,0,0,1,1.4.468,1.563,1.563,0,0,1,.534,1.234,1.308,1.308,0,0,1-.536,1.089A1.69,1.69,0,0,1,10.345,169.549Zm-1.1.356a1.325,1.325,0,0,0-.947.345,1.245,1.245,0,0,0,0,1.765,1.331,1.331,0,0,0,.947.341,1.34,1.34,0,0,0,.949-.341,1.148,1.148,0,0,0,.369-.879,1.166,1.166,0,0,0-.369-.889A1.34,1.34,0,0,0,9.246,169.905Zm0-.685a1.156,1.156,0,0,0,.791-.271.944.944,0,0,0,0-1.4,1.148,1.148,0,0,0-.791-.273,1.148,1.148,0,0,0-.791.273.946.946,0,0,0,0,1.4A1.16,1.16,0,0,0,9.246,169.22Z" transform="translate(-0.334 -1.076)"/>
    <path class="cls-3" d="M9.594,142.718H8.113v-.633a1.715,1.715,0,0,0,1.063-.281,1.74,1.74,0,0,0,.611-.923h.646v6.328H9.594Z" transform="translate(-0.334 -1.076)"/>
    <g>
      <path class="cls-3" d="M2.391,117.031H.91V116.4a1.715,1.715,0,0,0,1.063-.281,1.744,1.744,0,0,0,.611-.923H3.23v6.328H2.391Z" transform="translate(-0.334 -1.076)"/>
      <path class="cls-3" d="M5.788,120.568h.94v.954h-.94Z" transform="translate(-0.334 -1.076)"/>
    </g>
    <path class="cls-3" d="M11.316,117.057a1.8,1.8,0,0,1-.358,1.15,4.625,4.625,0,0,1-1.347,1,5.02,5.02,0,0,0-1.464,1.076,2.015,2.015,0,0,0-.268.475h3.437v.769H6.983a2.57,2.57,0,0,1,.5-1.632A6.24,6.24,0,0,1,9.343,118.5a3.083,3.083,0,0,0,.9-.678,1.246,1.246,0,0,0,.242-.792,1.056,1.056,0,0,0-.361-.828,1.333,1.333,0,0,0-.922-.321,1.141,1.141,0,0,0-.926.4,1.837,1.837,0,0,0-.358,1.144H7.154a2.21,2.21,0,0,1,.558-1.641,2.128,2.128,0,0,1,1.6-.6,2.033,2.033,0,0,1,1.442.523A1.746,1.746,0,0,1,11.316,117.057Z" transform="translate(-0.334 -1.076)"/>
    <g>
      <path class="cls-3" d="M2.391,91.359H.91v-.633a1.715,1.715,0,0,0,1.063-.281,1.74,1.74,0,0,0,.611-.923H3.23V95.85H2.391Z" transform="translate(-0.334 -1.076)"/>
      <path class="cls-3" d="M5.788,94.9h.94v.954h-.94Z" transform="translate(-0.334 -1.076)"/>
    </g>
    <path class="cls-3" d="M6.974,94.334V93.6L9.9,89.522h.659v4.135h.9v.677h-.9V95.85H9.765V94.334Zm2.791-.677V90.773L7.748,93.6l-.044.061Z" transform="translate(-0.334 -1.076)"/>
    <g>
      <path class="cls-3" d="M2.391,65.679H.91v-.633a1.715,1.715,0,0,0,1.063-.281,1.74,1.74,0,0,0,.611-.923H3.23V70.17H2.391Z" transform="translate(-0.334 -1.076)"/>
      <path class="cls-3" d="M5.788,69.217h.94v.953h-.94Z" transform="translate(-0.334 -1.076)"/>
    </g>
    <path class="cls-3" d="M9.426,63.842a1.906,1.906,0,0,1,1.33.45,1.707,1.707,0,0,1,.529,1.242H10.5a.994.994,0,0,0-1.077-.98,1.238,1.238,0,0,0-1.129.7A3.562,3.562,0,0,0,7.919,66.9a1.832,1.832,0,0,1,1.5-.751,1.894,1.894,0,0,1,1.443.578,2.123,2.123,0,0,1,.548,1.523,2.019,2.019,0,0,1-.6,1.52,2.158,2.158,0,0,1-1.567.576,1.831,1.831,0,0,1-1.6-.8,3.953,3.953,0,0,1-.56-2.283A4.424,4.424,0,0,1,7.7,64.73,1.962,1.962,0,0,1,9.426,63.842Zm-1.41,4.4a1.408,1.408,0,0,0,.358,1,1.288,1.288,0,0,0,1.841,0,1.571,1.571,0,0,0,0-2,1.284,1.284,0,0,0-1.843,0A1.412,1.412,0,0,0,8.016,68.246Z" transform="translate(-0.334 -1.076)"/>
    <g>
      <path class="cls-3" d="M2.391,40H.91v-.633a1.715,1.715,0,0,0,1.063-.282,1.737,1.737,0,0,0,.611-.922H3.23v6.328H2.391Z" transform="translate(-0.334 -1.076)"/>
      <path class="cls-3" d="M5.788,43.537h.94v.954h-.94Z" transform="translate(-0.334 -1.076)"/>
    </g>
    <path class="cls-3" d="M10.345,41.142a2.068,2.068,0,0,1,.466.286,1.546,1.546,0,0,1,.593,1.265,1.843,1.843,0,0,1-.593,1.429,2.236,2.236,0,0,1-1.565.54,2.226,2.226,0,0,1-1.562-.54,1.845,1.845,0,0,1-.591-1.429,1.561,1.561,0,0,1,.593-1.27,2.048,2.048,0,0,1,.457-.277,2.986,2.986,0,0,1-.3-.193,1.312,1.312,0,0,1-.532-1.09,1.563,1.563,0,0,1,.534-1.233,2.057,2.057,0,0,1,1.4-.467,2.057,2.057,0,0,1,1.4.467,1.563,1.563,0,0,1,.534,1.233,1.31,1.31,0,0,1-.536,1.09A1.748,1.748,0,0,1,10.345,41.142Zm-1.1.356a1.325,1.325,0,0,0-.947.345,1.16,1.16,0,0,0-.367.886,1.146,1.146,0,0,0,.367.878,1.328,1.328,0,0,0,.947.343,1.337,1.337,0,0,0,.949-.343,1.144,1.144,0,0,0,.369-.878,1.164,1.164,0,0,0-.369-.888A1.337,1.337,0,0,0,9.246,41.5Zm0-.685a1.156,1.156,0,0,0,.791-.271.884.884,0,0,0,.308-.7.893.893,0,0,0-.308-.7,1.147,1.147,0,0,0-.791-.272,1.147,1.147,0,0,0-.791.272.946.946,0,0,0,0,1.4A1.16,1.16,0,0,0,9.246,40.813Z" transform="translate(-0.334 -1.076)"/>
    <path class="cls-3" d="M11.769,14.346a1.8,1.8,0,0,1-.358,1.15,4.625,4.625,0,0,1-1.347.995A5,5,0,0,0,8.6,17.567a1.947,1.947,0,0,0-.268.475h3.436v.769H7.436a2.57,2.57,0,0,1,.5-1.632A6.22,6.22,0,0,1,9.8,15.792a3.083,3.083,0,0,0,.905-.678,1.244,1.244,0,0,0,.242-.792,1.058,1.058,0,0,0-.36-.828,1.337,1.337,0,0,0-.923-.321,1.141,1.141,0,0,0-.926.4,1.837,1.837,0,0,0-.358,1.144H7.607a2.206,2.206,0,0,1,.559-1.641,2.125,2.125,0,0,1,1.6-.6,2.032,2.032,0,0,1,1.441.523A1.746,1.746,0,0,1,11.769,14.346Z" transform="translate(-0.334 -1.076)"/>
    <g>
      <path class="cls-5" d="M42.778,4.209H44.92v7.125H43.533V6.515c0-.139,0-.333,0-.582s0-.443,0-.578l-1.35,5.979H40.745L39.4,5.355c0,.135,0,.328,0,.578s.005.443.005.582v4.819H38.027V4.209h2.166l1.3,5.6Z" transform="translate(-0.334 -1.076)"/>
      <path class="cls-5" d="M48.273,8.129a2.2,2.2,0,0,0,.551-.12.417.417,0,0,0,.3-.392.464.464,0,0,0-.228-.447,1.444,1.444,0,0,0-.669-.123.876.876,0,0,0-.7.242,1,1,0,0,0-.2.483H46a2.015,2.015,0,0,1,.388-1.136,2.266,2.266,0,0,1,1.884-.7,3.358,3.358,0,0,1,1.544.343,1.317,1.317,0,0,1,.675,1.3V10q0,.251.01.608a.748.748,0,0,0,.082.368.47.47,0,0,0,.2.159v.2h-1.5a1.516,1.516,0,0,1-.087-.3c-.016-.094-.029-.2-.039-.319a2.836,2.836,0,0,1-.661.527,1.994,1.994,0,0,1-1.011.256A1.742,1.742,0,0,1,46.3,11.09a1.451,1.451,0,0,1-.469-1.157,1.5,1.5,0,0,1,.754-1.407A3.357,3.357,0,0,1,47.8,8.188Zm.843.643a1.509,1.509,0,0,1-.267.133,2.258,2.258,0,0,1-.37.1l-.314.058a2.048,2.048,0,0,0-.633.188.63.63,0,0,0-.325.585.61.61,0,0,0,.2.51.756.756,0,0,0,.484.157,1.443,1.443,0,0,0,.832-.261,1.107,1.107,0,0,0,.4-.952Z" transform="translate(-0.334 -1.076)"/>
      <path class="cls-5" d="M54.3,6.061a1.655,1.655,0,0,1,.811.763V6.065h1.344v5A2.8,2.8,0,0,1,56.11,12.6a2.524,2.524,0,0,1-2.262.889,3.084,3.084,0,0,1-1.648-.4,1.46,1.46,0,0,1-.706-1.184h1.5a.617.617,0,0,0,.188.348,1.168,1.168,0,0,0,.749.188,1.006,1.006,0,0,0,1-.5,2.512,2.512,0,0,0,.164-1.073v-.338a1.666,1.666,0,0,1-.425.507,1.707,1.707,0,0,1-1.068.315,2.022,2.022,0,0,1-1.622-.713,2.884,2.884,0,0,1-.607-1.932,3.252,3.252,0,0,1,.585-1.974,1.928,1.928,0,0,1,1.655-.8A1.8,1.8,0,0,1,54.3,6.061Zm.469,3.777A1.694,1.694,0,0,0,55.1,8.676a1.785,1.785,0,0,0-.315-1.141,1.029,1.029,0,0,0-.845-.391.994.994,0,0,0-1,.681,2.412,2.412,0,0,0-.145.894,2.059,2.059,0,0,0,.154.817,1,1,0,0,0,1,.667A1.057,1.057,0,0,0,54.768,9.838Z" transform="translate(-0.334 -1.076)"/>
      <path class="cls-5" d="M61.988,6.368a1.742,1.742,0,0,1,.518,1.418v3.548H61.094v-3.2a1.472,1.472,0,0,0-.11-.638.776.776,0,0,0-.768-.406.953.953,0,0,0-.955.595,2.068,2.068,0,0,0-.134.8v2.852H57.75V6.075h1.333v.769a2.342,2.342,0,0,1,.5-.585,1.732,1.732,0,0,1,1.074-.319A2.017,2.017,0,0,1,61.988,6.368Z" transform="translate(-0.334 -1.076)"/>
      <path class="cls-5" d="M65.2,5.437h-1.4V4.166h1.4Zm-1.4.628h1.4v5.269h-1.4Z" transform="translate(-0.334 -1.076)"/>
      <path class="cls-5" d="M66,7.1V6.114h.735V4.644h1.363v1.47h.856V7.1h-.856V9.879a.627.627,0,0,0,.082.4.906.906,0,0,0,.5.08l.133,0c.046,0,.092,0,.138-.007v1.03l-.653.024a1.744,1.744,0,0,1-1.334-.339,1,1,0,0,1-.232-.729V7.1Z" transform="translate(-0.334 -1.076)"/>
      <path class="cls-5" d="M71.207,6.065V9.241a1.678,1.678,0,0,0,.106.677.731.731,0,0,0,.736.4.962.962,0,0,0,.962-.57,2.067,2.067,0,0,0,.135-.817V6.065h1.4v5.269H73.2V10.59c-.013.016-.045.065-.1.145a.959.959,0,0,1-.183.213,1.934,1.934,0,0,1-.624.4,2.118,2.118,0,0,1-.706.107,1.574,1.574,0,0,1-1.572-.842A3.226,3.226,0,0,1,69.8,9.241V6.065Z" transform="translate(-0.334 -1.076)"/>
      <path class="cls-5" d="M78.676,6.15a1.675,1.675,0,0,1,.6.582V4.219h1.4v7.115H79.338V10.6a1.933,1.933,0,0,1-.672.682,1.882,1.882,0,0,1-.937.213,1.96,1.96,0,0,1-1.555-.747,2.867,2.867,0,0,1-.631-1.917,3.294,3.294,0,0,1,.622-2.122,2.021,2.021,0,0,1,1.66-.773A1.7,1.7,0,0,1,78.676,6.15ZM79.014,9.9a1.924,1.924,0,0,0,.305-1.127A1.728,1.728,0,0,0,78.831,7.4a1.053,1.053,0,0,0-.7-.251.968.968,0,0,0-.887.456,2.124,2.124,0,0,0-.283,1.134A2.1,2.1,0,0,0,77.252,9.9a.974.974,0,0,0,.873.438A1.016,1.016,0,0,0,79.014,9.9Z" transform="translate(-0.334 -1.076)"/>
      <path class="cls-5" d="M85.362,6.172a2.143,2.143,0,0,1,.911.78,2.586,2.586,0,0,1,.42,1.089,6.725,6.725,0,0,1,.045,1.045H82.9a1.262,1.262,0,0,0,.551,1.112,1.391,1.391,0,0,0,.759.2,1.069,1.069,0,0,0,1.049-.6h1.407a1.732,1.732,0,0,1-.511.953,2.562,2.562,0,0,1-1.983.768,2.875,2.875,0,0,1-1.856-.648,2.555,2.555,0,0,1-.8-2.11,2.852,2.852,0,0,1,.726-2.1,2.541,2.541,0,0,1,1.885-.731A3,3,0,0,1,85.362,6.172ZM83.3,7.362a1.426,1.426,0,0,0-.367.816h2.373a1.149,1.149,0,0,0-.367-.833,1.21,1.21,0,0,0-.817-.284A1.094,1.094,0,0,0,83.3,7.362Z" transform="translate(-0.334 -1.076)"/>
      <path class="cls-5" d="M93.112,5.942l.119.007V7.361c-.087-.01-.165-.016-.232-.019s-.123,0-.165,0a1.141,1.141,0,0,0-1.116.541,2.1,2.1,0,0,0-.16.938v2.518H90.171V6.065h1.315v.919a2.9,2.9,0,0,1,.556-.72,1.511,1.511,0,0,1,1-.324A.613.613,0,0,1,93.112,5.942Z" transform="translate(-0.334 -1.076)"/>
      <path class="cls-5" d="M97.471,6.172a2.143,2.143,0,0,1,.911.78,2.586,2.586,0,0,1,.42,1.089,6.725,6.725,0,0,1,.045,1.045H95.01a1.262,1.262,0,0,0,.551,1.112,1.389,1.389,0,0,0,.759.2,1.069,1.069,0,0,0,1.049-.6h1.406a1.724,1.724,0,0,1-.51.953,2.564,2.564,0,0,1-1.983.768,2.873,2.873,0,0,1-1.856-.648,2.555,2.555,0,0,1-.8-2.11,2.852,2.852,0,0,1,.726-2.1,2.541,2.541,0,0,1,1.884-.731A3.005,3.005,0,0,1,97.471,6.172Zm-2.06,1.19a1.433,1.433,0,0,0-.368.816h2.374a1.149,1.149,0,0,0-.367-.833,1.21,1.21,0,0,0-.817-.284A1.093,1.093,0,0,0,95.411,7.362Z" transform="translate(-0.334 -1.076)"/>
      <path class="cls-5" d="M100.612,9.652a.916.916,0,0,0,.19.522,1.281,1.281,0,0,0,.951.276,1.453,1.453,0,0,0,.649-.121.4.4,0,0,0,.047-.715,7.926,7.926,0,0,0-1.442-.416,3,3,0,0,1-1.265-.556,1.205,1.205,0,0,1-.367-.948,1.641,1.641,0,0,1,.574-1.254,2.307,2.307,0,0,1,1.615-.524,2.966,2.966,0,0,1,1.611.394,1.687,1.687,0,0,1,.715,1.36h-1.378a.815.815,0,0,0-.15-.42.949.949,0,0,0-.776-.281,1.119,1.119,0,0,0-.642.14.405.405,0,0,0-.192.329.359.359,0,0,0,.2.343,8.844,8.844,0,0,0,1.439.383,2.629,2.629,0,0,1,1.233.584,1.329,1.329,0,0,1,.407.991,1.6,1.6,0,0,1-.584,1.279,2.75,2.75,0,0,1-1.8.495,2.721,2.721,0,0,1-1.837-.524,1.7,1.7,0,0,1-.594-1.337Z" transform="translate(-0.334 -1.076)"/>
      <path class="cls-5" d="M109.48,6.631a2.8,2.8,0,0,1,.645,2,3.152,3.152,0,0,1-.63,2.122,2.044,2.044,0,0,1-1.622.73,1.7,1.7,0,0,1-1.051-.314,2.023,2.023,0,0,1-.448-.507v2.745h-1.363V6.065h1.32v.779a2.222,2.222,0,0,1,.477-.542,1.759,1.759,0,0,1,1.1-.353A2.083,2.083,0,0,1,109.48,6.631Zm-1.057.991a.98.98,0,0,0-.91-.469,1.037,1.037,0,0,0-1.041.711,2.683,2.683,0,0,0-.146.957,1.517,1.517,0,0,0,.493,1.29,1.129,1.129,0,0,0,.693.218,1.008,1.008,0,0,0,.887-.445,2.052,2.052,0,0,0,.3-1.184A2.06,2.06,0,0,0,108.423,7.622Z" transform="translate(-0.334 -1.076)"/>
      <path class="cls-5" d="M115.491,10.69a2.9,2.9,0,0,1-4.051,0,3.055,3.055,0,0,1-.667-1.983,3.073,3.073,0,0,1,.667-1.975,2.872,2.872,0,0,1,4.051,0,3.067,3.067,0,0,1,.667,1.975A3.049,3.049,0,0,1,115.491,10.69Zm-1.1-.762a1.994,1.994,0,0,0,.324-1.221,1.987,1.987,0,0,0-.324-1.219,1.225,1.225,0,0,0-1.859,0,1.981,1.981,0,0,0-.326,1.219,1.987,1.987,0,0,0,.326,1.221,1.22,1.22,0,0,0,1.859,0Z" transform="translate(-0.334 -1.076)"/>
      <path class="cls-5" d="M121.393,6.368a1.742,1.742,0,0,1,.518,1.418v3.548H120.5v-3.2a1.487,1.487,0,0,0-.11-.638.777.777,0,0,0-.768-.406.953.953,0,0,0-.955.595,2.068,2.068,0,0,0-.134.8v2.852h-1.378V6.075h1.334v.769a2.342,2.342,0,0,1,.5-.585,1.732,1.732,0,0,1,1.074-.319A2.021,2.021,0,0,1,121.393,6.368Z" transform="translate(-0.334 -1.076)"/>
      <path class="cls-5" d="M124.26,9.652a.916.916,0,0,0,.19.522,1.28,1.28,0,0,0,.951.276,1.453,1.453,0,0,0,.649-.121.4.4,0,0,0,.047-.715,7.926,7.926,0,0,0-1.442-.416,3,3,0,0,1-1.265-.556,1.206,1.206,0,0,1-.368-.948A1.642,1.642,0,0,1,123.6,6.44a2.3,2.3,0,0,1,1.615-.524,2.966,2.966,0,0,1,1.611.394,1.687,1.687,0,0,1,.715,1.36H126.16a.815.815,0,0,0-.15-.42.949.949,0,0,0-.776-.281,1.119,1.119,0,0,0-.642.14.405.405,0,0,0-.192.329.359.359,0,0,0,.2.343,8.851,8.851,0,0,0,1.438.383,2.629,2.629,0,0,1,1.234.584,1.329,1.329,0,0,1,.407.991,1.6,1.6,0,0,1-.584,1.279,2.751,2.751,0,0,1-1.805.495,2.721,2.721,0,0,1-1.837-.524,1.7,1.7,0,0,1-.594-1.337Z" transform="translate(-0.334 -1.076)"/>
      <path class="cls-5" d="M132.131,6.172a2.149,2.149,0,0,1,.911.78,2.6,2.6,0,0,1,.419,1.089,6.578,6.578,0,0,1,.046,1.045h-3.838a1.264,1.264,0,0,0,.551,1.112,1.4,1.4,0,0,0,.76.2,1.168,1.168,0,0,0,.765-.241,1.155,1.155,0,0,0,.283-.363h1.407a1.72,1.72,0,0,1-.511.953,2.56,2.56,0,0,1-1.982.768,2.873,2.873,0,0,1-1.856-.648,2.555,2.555,0,0,1-.8-2.11,2.852,2.852,0,0,1,.726-2.1,2.541,2.541,0,0,1,1.884-.731A3.005,3.005,0,0,1,132.131,6.172Zm-2.061,1.19a1.432,1.432,0,0,0-.367.816h2.374a1.154,1.154,0,0,0-.368-.833,1.205,1.205,0,0,0-.816-.284A1.1,1.1,0,0,0,130.07,7.362Z" transform="translate(-0.334 -1.076)"/>
    </g>
    <polyline class="cls-6" points="15.068 239.093 15.349 238.869 15.629 238.206 15.91 237.131 16.191 235.683 16.472 233.908 16.753 231.851 17.033 229.557 17.314 227.066 17.595 224.412 17.876 221.625 18.157 218.728 18.437 215.744 18.718 212.687 18.999 209.573 19.28 206.413 19.561 203.218 19.841 199.995 20.122 196.753 20.403 193.496 20.684 190.231 20.965 186.962 21.245 183.694 21.526 180.431 21.807 177.174 22.088 173.928 22.369 170.695 22.649 167.478 22.93 164.279 23.211 161.1 23.492 157.943 23.773 154.81 24.053 151.703 24.334 148.622 24.615 145.571 24.896 142.551 25.177 139.562 25.457 136.606 25.738 133.684 26.019 130.799 26.3 127.949 26.581 125.138 26.861 122.366 27.142 119.635 27.423 116.944 27.704 114.296 27.985 111.69 28.265 109.129 28.546 106.612 28.827 104.141 29.108 101.717 29.389 99.34 29.669 97.012 29.95 94.732 30.231 92.503 30.512 90.323 30.793 88.195 31.073 86.117 31.354 84.093 31.635 82.121 31.916 80.204 32.197 78.34 32.477 76.53 32.758 74.776 33.039 73.078 33.32 71.435 33.601 69.848 33.881 68.32 34.162 66.847 34.443 65.433 34.724 64.076 35.005 62.779 35.285 61.539 35.566 60.358 35.847 59.237 36.128 58.175 36.409 57.172 36.689 56.229 36.97 55.346 37.251 54.523 37.532 53.759 37.813 53.057 38.093 52.414 38.374 51.832 38.655 51.31 38.936 50.848 39.217 50.446 39.497 50.104 39.778 49.822 40.059 49.6 40.34 49.438 40.621 49.336 40.901 49.293 41.182 49.31 41.463 49.385 41.744 49.519 42.025 49.711 42.305 49.962 42.586 50.27 42.867 50.636 43.148 51.059 43.429 51.539 43.709 52.075 43.99 52.667 44.271 53.314 44.552 54.016 44.833 54.772 45.113 55.582 45.394 56.444 45.675 57.36 45.956 58.327 46.237 59.346 46.517 60.416 46.798 61.535 47.079 62.703 47.36 63.92 47.641 65.185 47.921 66.496 48.202 67.853 48.483 69.256 48.764 70.702 49.045 72.193 49.325 73.725 49.606 75.299 49.887 76.913 50.168 78.568 50.449 80.26 50.729 81.989 51.01 83.755 51.291 85.556 51.572 87.391 51.853 89.259 52.133 91.158 52.414 93.087 52.695 95.045 52.976 97.031 53.257 99.043 53.537 101.08 53.818 103.141 54.099 105.223 54.38 107.326 54.661 109.447 54.941 111.586 55.222 113.74 55.503 115.907 55.784 118.088 56.065 120.278 56.345 122.477 56.626 124.682 56.907 126.892 57.188 129.105 57.469 131.318 57.749 133.529 58.03 135.736 58.311 137.937 58.592 140.13 58.873 142.311 59.153 144.479 59.434 146.631 59.715 148.764 59.996 150.875 60.277 152.962 60.557 155.022 60.838 157.051 61.119 159.047 61.4 161.006 61.681 162.926 61.961 164.802 62.242 166.631 62.523 168.411 62.804 170.138 63.085 171.807 63.365 173.416 63.646 174.961 63.927 176.439 64.208 177.847 64.489 179.18 64.769 180.436 65.05 181.612 65.331 182.705 65.612 183.713 65.893 184.633 66.173 185.464 66.454 186.203 66.735 186.851 67.016 187.404 67.297 187.864 67.577 188.231 67.858 188.504 68.139 188.685 68.42 188.775 68.701 188.777 68.981 188.692 69.262 188.522 69.543 188.272 69.824 187.943 70.105 187.54 70.385 187.067 70.666 186.527 70.947 185.926 71.228 185.265 71.509 184.55 71.789 183.787 72.07 182.977 72.351 182.127 72.632 181.24 72.913 180.319 73.193 179.371 73.474 178.397 73.755 177.402 74.036 176.39 74.317 175.364 74.597 174.329 74.878 173.285 75.159 172.239 75.44 171.191 75.721 170.145 76.001 169.104 76.282 168.07 76.563 167.046 76.844 166.034 77.125 165.037 77.405 164.056 77.686 163.093 77.967 162.151 78.248 161.231 78.529 160.334 78.809 159.464 79.09 158.62 79.371 157.804 79.652 157.018 79.933 156.263 80.213 155.54 80.494 154.851 80.775 154.195 81.056 153.575 81.337 152.99 81.617 152.443 81.898 151.934 82.179 151.462 82.46 151.03 82.741 150.637 83.021 150.283 83.302 149.971 83.583 149.699 83.864 149.469 84.145 149.28 84.425 149.132 84.706 149.027 84.987 148.964 85.268 148.943 85.549 148.964 85.829 149.027 86.11 149.132 86.391 149.28 86.672 149.469 86.953 149.699 87.233 149.971 87.514 150.283 87.795 150.637 88.076 151.03 88.357 151.462 88.637 151.934 88.918 152.443 89.199 152.99 89.48 153.575 89.761 154.195 90.041 154.851 90.322 155.54 90.603 156.263 90.884 157.018 91.165 157.804 91.445 158.62 91.726 159.464 92.007 160.334 92.288 161.231 92.569 162.151 92.849 163.093 93.13 164.056 93.411 165.037 93.692 166.034 93.973 167.046 94.253 168.07 94.534 169.104 94.815 170.145 95.096 171.191 95.377 172.239 95.657 173.285 95.938 174.329 96.219 175.364 96.5 176.39 96.781 177.402 97.061 178.397 97.342 179.371 97.623 180.319 97.904 181.24 98.185 182.127 98.465 182.977 98.746 183.787 99.027 184.55 99.308 185.265 99.589 185.926 99.869 186.527 100.15 187.067 100.431 187.54 100.712 187.943 100.993 188.272 101.273 188.522 101.554 188.692 101.835 188.777 102.116 188.775 102.397 188.685 102.677 188.504 102.958 188.231 103.239 187.864 103.52 187.404 103.801 186.851 104.081 186.203 104.362 185.464 104.643 184.633 104.924 183.713 105.205 182.705 105.485 181.612 105.766 180.436 106.047 179.18 106.328 177.847 106.609 176.439 106.889 174.961 107.17 173.416 107.451 171.807 107.732 170.138 108.013 168.411 108.293 166.631 108.574 164.802 108.855 162.926 109.136 161.006 109.417 159.047 109.697 157.051 109.978 155.022 110.259 152.962 110.54 150.875 110.821 148.764 111.101 146.631 111.382 144.479 111.663 142.311 111.944 140.13 112.225 137.937 112.505 135.736 112.786 133.529 113.067 131.318 113.348 129.105 113.629 126.892 113.909 124.682 114.19 122.477 114.471 120.278 114.752 118.088 115.033 115.907 115.313 113.74 115.594 111.586 115.875 109.447 116.156 107.326 116.437 105.223 116.717 103.141 116.998 101.08 117.279 99.043 117.56 97.031 117.841 95.045 118.121 93.087 118.402 91.158 118.683 89.259 118.964 87.391 119.245 85.556 119.525 83.755 119.806 81.989 120.087 80.26 120.368 78.568 120.649 76.913 120.929 75.299 121.21 73.725 121.491 72.193 121.772 70.702 122.053 69.256 122.333 67.853 122.614 66.496 122.895 65.185 123.176 63.92 123.457 62.703 123.737 61.535 124.018 60.416 124.299 59.346 124.58 58.327 124.861 57.36 125.141 56.444 125.422 55.582 125.703 54.772 125.984 54.016 126.265 53.314 126.545 52.667 126.826 52.075 127.107 51.539 127.388 51.059 127.669 50.636 127.949 50.27 128.23 49.962 128.511 49.711 128.792 49.519 129.073 49.385 129.353 49.31 129.634 49.293 129.915 49.336 130.196 49.438 130.477 49.6 130.757 49.822 131.038 50.104 131.319 50.446 131.6 50.848 131.881 51.31 132.161 51.832 132.442 52.414 132.723 53.057 133.004 53.759 133.285 54.523 133.565 55.346 133.846 56.229 134.127 57.172 134.408 58.175 134.689 59.237 134.969 60.358 135.25 61.539 135.531 62.779 135.812 64.076 136.093 65.433 136.373 66.847 136.654 68.32 136.935 69.848 137.216 71.435 137.497 73.078 137.777 74.776 138.058 76.53 138.339 78.34 138.62 80.204 138.901 82.121 139.181 84.093 139.462 86.117 139.743 88.195 140.024 90.323 140.305 92.503 140.585 94.732 140.866 97.012 141.147 99.34 141.428 101.717 141.709 104.141 141.989 106.612 142.27 109.129 142.551 111.69 142.832 114.296 143.113 116.944 143.393 119.635 143.674 122.366 143.955 125.138 144.236 127.949 144.517 130.799 144.797 133.684 145.078 136.606 145.359 139.562 145.64 142.551 145.921 145.571 146.201 148.622 146.482 151.703 146.763 154.81 147.044 157.943 147.325 161.1 147.605 164.279 147.886 167.478 148.167 170.695 148.448 173.928 148.729 177.174 149.009 180.431 149.29 183.694 149.571 186.962 149.852 190.231 150.133 193.496 150.413 196.753 150.694 199.995 150.975 203.218 151.256 206.413 151.537 209.573 151.817 212.687 152.098 215.744 152.379 218.728 152.66 221.625 152.941 224.412 153.221 227.066 153.502 229.557 153.783 231.851 154.064 233.908 154.345 235.683 154.625 237.131 154.906 238.206 155.187 238.869"/>
    <path class="cls-1" d="M200.2,272.012V15.212m35.25,256.8V15.212m35.25,256.8V15.212m35.25,256.8V15.212m35.25,256.8V15.212m0,256.8h-141m141-64.2h-141m141-64.2h-141m141-64.2h-141m141-64.2h-141" transform="translate(-0.334 -1.076)"/>
    <path class="cls-2" d="M200.2,272.012h141m-141-256.8h141m-141,256.8v-2.568m35.25,2.568v-2.568m35.25,2.568v-2.568m35.25,2.568v-2.568m35.25,2.568v-2.568M200.2,15.212V17.78m35.25-2.568V17.78m35.25-2.568V17.78m35.25-2.568V17.78m35.25-2.568V17.78" transform="translate(-0.334 -1.076)"/>
    <path class="cls-3" d="M196.4,281.72H198.6v.813H196.4Z" transform="translate(-0.334 -1.076)"/>
    <path class="cls-4" d="M199.911,284.462a.43.43,0,0,1,.038-.15c.168-.351.325-.693.468-1.027s.274-.661.39-.98.22-.656.313-1.012h-.571a1.031,1.031,0,0,0-.614.206,1.723,1.723,0,0,0-.474.516.059.059,0,0,1-.056.037h-.1a.075.075,0,0,1-.085-.084.154.154,0,0,1,.019-.057,4.194,4.194,0,0,1,.629-.838,1.037,1.037,0,0,1,.759-.343h3.262a.221.221,0,0,1,.159.061.212.212,0,0,1,.066.164.33.33,0,0,1-.094.239.3.3,0,0,1-.225.1h-1.143a7.048,7.048,0,0,0-.159,1.378,3.953,3.953,0,0,0,.3,1.566.2.2,0,0,1,.027.1.324.324,0,0,1-.056.187.411.411,0,0,1-.15.136.378.378,0,0,1-.187.052c-.163,0-.272-.13-.329-.39a3.562,3.562,0,0,1-.084-.754,5.664,5.664,0,0,1,.084-.984q.085-.479.282-1.294h-.985q-.7,2.878-.852,3.178a.392.392,0,0,1-.348.244.289.289,0,0,1-.2-.075.232.232,0,0,1-.084-.178Z" transform="translate(-0.334 -1.076)"/>
    <path class="cls-3" d="M227.6,281.72h2.206v.813H227.6Z" transform="translate(-0.334 -1.076)"/>
    <path class="cls-4" d="M231.111,284.462a.43.43,0,0,1,.038-.15c.168-.351.325-.693.468-1.027s.274-.661.39-.98.22-.656.313-1.012h-.571a1.031,1.031,0,0,0-.614.206,1.723,1.723,0,0,0-.474.516.059.059,0,0,1-.056.037h-.1a.075.075,0,0,1-.085-.084.154.154,0,0,1,.019-.057,4.194,4.194,0,0,1,.629-.838,1.037,1.037,0,0,1,.759-.343h3.262a.221.221,0,0,1,.159.061.212.212,0,0,1,.066.164.33.33,0,0,1-.094.239.3.3,0,0,1-.225.1h-1.143a7.048,7.048,0,0,0-.159,1.378,3.953,3.953,0,0,0,.3,1.566.2.2,0,0,1,.027.1.324.324,0,0,1-.056.187.411.411,0,0,1-.15.136.378.378,0,0,1-.187.052c-.163,0-.272-.13-.329-.39a3.562,3.562,0,0,1-.084-.754,5.664,5.664,0,0,1,.084-.984q.086-.479.282-1.294h-.985q-.7,2.878-.852,3.178a.392.392,0,0,1-.348.244.289.289,0,0,1-.2-.075.232.232,0,0,1-.084-.178Z" transform="translate(-0.334 -1.076)"/>
    <g>
      <path class="cls-3" d="M238.252,277.989l-2.2,6.8h-.6l2.2-6.8Z" transform="translate(-0.334 -1.076)"/>
      <path class="cls-3" d="M242.668,280.151a1.8,1.8,0,0,1-.358,1.15,4.636,4.636,0,0,1-1.347,1,5.024,5.024,0,0,0-1.464,1.076,2.018,2.018,0,0,0-.269.475h3.438v.769h-4.334a2.57,2.57,0,0,1,.5-1.632,6.22,6.22,0,0,1,1.863-1.386,3.073,3.073,0,0,0,.906-.678,1.244,1.244,0,0,0,.242-.792,1.055,1.055,0,0,0-.362-.827,1.328,1.328,0,0,0-.921-.322,1.139,1.139,0,0,0-.926.4,1.824,1.824,0,0,0-.358,1.143h-.769a2.2,2.2,0,0,1,.558-1.64,2.121,2.121,0,0,1,1.6-.6,2.031,2.031,0,0,1,1.441.524A1.745,1.745,0,0,1,242.668,280.151Z" transform="translate(-0.334 -1.076)"/>
    </g>
    <path class="cls-3" d="M268.9,283.733a5.41,5.41,0,0,1,0-4.81,1.946,1.946,0,0,1,3.211,0,5.418,5.418,0,0,1,0,4.81,1.949,1.949,0,0,1-3.211,0Zm2.6-.5a5.655,5.655,0,0,0,0-3.807,1.074,1.074,0,0,0-1-.635,1.059,1.059,0,0,0-.992.635,5.591,5.591,0,0,0,0,3.807,1.059,1.059,0,0,0,.992.633A1.074,1.074,0,0,0,271.5,283.231Z" transform="translate(-0.334 -1.076)"/>
    <path class="cls-4" d="M300.111,284.462a.43.43,0,0,1,.038-.15c.168-.351.325-.693.468-1.027s.274-.661.39-.98.22-.656.313-1.012h-.571a1.031,1.031,0,0,0-.614.206,1.723,1.723,0,0,0-.474.516.059.059,0,0,1-.056.037h-.1a.075.075,0,0,1-.085-.084.154.154,0,0,1,.019-.057,4.194,4.194,0,0,1,.629-.838,1.037,1.037,0,0,1,.759-.343h3.262a.221.221,0,0,1,.159.061.212.212,0,0,1,.066.164.33.33,0,0,1-.094.239.3.3,0,0,1-.225.1h-1.143a7.048,7.048,0,0,0-.159,1.378,3.953,3.953,0,0,0,.3,1.566.2.2,0,0,1,.027.1.324.324,0,0,1-.056.187.411.411,0,0,1-.15.136.378.378,0,0,1-.187.052c-.163,0-.272-.13-.329-.39a3.562,3.562,0,0,1-.084-.754,5.664,5.664,0,0,1,.084-.984q.085-.479.282-1.294h-.985q-.7,2.878-.852,3.178a.392.392,0,0,1-.348.244.289.289,0,0,1-.2-.075.232.232,0,0,1-.084-.178Z" transform="translate(-0.334 -1.076)"/>
    <g>
      <path class="cls-3" d="M307.252,277.989l-2.2,6.8h-.6l2.2-6.8Z" transform="translate(-0.334 -1.076)"/>
      <path class="cls-3" d="M311.668,280.151a1.8,1.8,0,0,1-.358,1.15,4.636,4.636,0,0,1-1.347,1,5.024,5.024,0,0,0-1.464,1.076,2.018,2.018,0,0,0-.269.475h3.438v.769h-4.334a2.57,2.57,0,0,1,.5-1.632,6.22,6.22,0,0,1,1.863-1.386,3.073,3.073,0,0,0,.906-.678,1.244,1.244,0,0,0,.242-.792,1.055,1.055,0,0,0-.362-.827,1.328,1.328,0,0,0-.921-.322,1.139,1.139,0,0,0-.926.4,1.824,1.824,0,0,0-.358,1.143h-.769a2.2,2.2,0,0,1,.558-1.64,2.121,2.121,0,0,1,1.6-.6,2.031,2.031,0,0,1,1.441.524A1.745,1.745,0,0,1,311.668,280.151Z" transform="translate(-0.334 -1.076)"/>
    </g>
    <path class="cls-4" d="M339.111,284.462a.43.43,0,0,1,.038-.15c.168-.351.325-.693.468-1.027s.274-.661.39-.98.22-.656.313-1.012h-.571a1.031,1.031,0,0,0-.614.206,1.723,1.723,0,0,0-.474.516.059.059,0,0,1-.056.037h-.1a.075.075,0,0,1-.085-.084.154.154,0,0,1,.019-.057,4.194,4.194,0,0,1,.629-.838,1.037,1.037,0,0,1,.759-.343h3.262a.221.221,0,0,1,.159.061.212.212,0,0,1,.066.164.33.33,0,0,1-.094.239.3.3,0,0,1-.225.1h-1.143a7.048,7.048,0,0,0-.159,1.378,3.953,3.953,0,0,0,.3,1.566.2.2,0,0,1,.027.1.324.324,0,0,1-.056.187.411.411,0,0,1-.15.136.378.378,0,0,1-.187.052c-.163,0-.272-.13-.329-.39a3.562,3.562,0,0,1-.084-.754,5.664,5.664,0,0,1,.084-.984q.085-.479.282-1.294h-.985q-.7,2.878-.852,3.178a.392.392,0,0,1-.348.244.289.289,0,0,1-.2-.075.232.232,0,0,1-.084-.178Z" transform="translate(-0.334 -1.076)"/>
    <path class="cls-4" d="M243.524,298.6a.159.159,0,0,1-.127-.061.2.2,0,0,1-.052-.126.211.211,0,0,1,.052-.137.161.161,0,0,1,.127-.06h7.284a3.413,3.413,0,0,1-.647-.6,3.558,3.558,0,0,1-.469-.74,3.244,3.244,0,0,1-.262-.84c0-.087.031-.131.094-.131h.2a.081.081,0,0,1,.057.028.147.147,0,0,1,.038.066,2.876,2.876,0,0,0,.248.764,3.23,3.23,0,0,0,.431.656,2.976,2.976,0,0,0,.576.525,3.028,3.028,0,0,0,.722.361.136.136,0,0,1,.066.113.086.086,0,0,1-.066.093,2.853,2.853,0,0,0-.923.516,3.057,3.057,0,0,0-.689.811,2.967,2.967,0,0,0-.365,1,.147.147,0,0,1-.038.066.081.081,0,0,1-.057.028h-.2c-.063,0-.094-.043-.094-.131a3.521,3.521,0,0,1,.487-1.238,3.361,3.361,0,0,1,.891-.956Z" transform="translate(-0.334 -1.076)"/>
    <path class="cls-4" d="M257.549,300.924a.849.849,0,0,1-.694-.324,1.854,1.854,0,0,1-.365-.773,3.964,3.964,0,0,1-.1-.89v-.01a5.605,5.605,0,0,1,.094-.994,7.11,7.11,0,0,1,.267-1.026,7.911,7.911,0,0,1,.37-.914,6.563,6.563,0,0,1,.366-.628,5.39,5.39,0,0,1,.5-.652,2.392,2.392,0,0,1,.59-.488,1.284,1.284,0,0,1,.638-.182h.009a.887.887,0,0,1,.582.192,1.262,1.262,0,0,1,.361.492,2.663,2.663,0,0,1,.178.643,4.426,4.426,0,0,1,.052.651,5.857,5.857,0,0,1-.2,1.481,7.633,7.633,0,0,1-.543,1.463,6.575,6.575,0,0,1-.361.633,4.6,4.6,0,0,1-.493.647,2.688,2.688,0,0,1-.585.482,1.238,1.238,0,0,1-.652.2Zm.018-.262a.832.832,0,0,0,.615-.338,3.347,3.347,0,0,0,.515-.825,9.67,9.67,0,0,0,.385-.994c.109-.337.192-.625.248-.862h-1.96q-.15.6-.234,1.04a4.609,4.609,0,0,0-.084.863q0,1.116.515,1.116Zm-.122-3.357h1.97c.068-.281.123-.517.163-.707s.076-.391.1-.6a4.448,4.448,0,0,0,.042-.586q0-1.125-.516-1.125-.609,0-1.05.984a12.9,12.9,0,0,0-.713,2.034Z" transform="translate(-0.334 -1.076)"/>
    <g>
      <path class="cls-3" d="M264.18,293.657h1.85v.7h-1.068v7.7h1.068v.7h-1.85Z" transform="translate(-0.334 -1.076)"/>
      <path class="cls-3" d="M267.069,295.639h.827v.884a3.194,3.194,0,0,1,.237-.377,1.47,1.47,0,0,1,1.214-.662.752.752,0,0,1,.246.044v.889l-.179,0a1.4,1.4,0,0,0-1.09.424,1.726,1.726,0,0,0-.385,1.206v2.77h-.87Z" transform="translate(-0.334 -1.076)"/>
      <path class="cls-3" d="M271.608,300.952a1.719,1.719,0,0,1-1.2-.406,1.413,1.413,0,0,1-.445-1.1,1.481,1.481,0,0,1,.418-1.106,2.05,2.05,0,0,1,1.221-.513l1.184-.15a1.934,1.934,0,0,0,.276-.048.44.44,0,0,0,.261-.174.56.56,0,0,0,.092-.329v-.043a.766.766,0,0,0-.314-.65,1.433,1.433,0,0,0-.875-.235,1.282,1.282,0,0,0-.839.249,1.1,1.1,0,0,0-.365.741h-.8a1.707,1.707,0,0,1,.6-1.278,2.423,2.423,0,0,1,1.539-.428,2.2,2.2,0,0,1,1.435.409,1.461,1.461,0,0,1,.493,1.192v2.842a.288.288,0,0,0,.079.21.294.294,0,0,0,.216.08.847.847,0,0,0,.113-.01c.05-.006.1-.016.163-.028v.628a1.8,1.8,0,0,1-.267.077,1.221,1.221,0,0,1-.236.029.876.876,0,0,1-.716-.27,1.142,1.142,0,0,1-.208-.508,1.854,1.854,0,0,1-.222.232A2.3,2.3,0,0,1,271.608,300.952Zm1.8-2.19V298.2a1.846,1.846,0,0,1-.537.159l-.8.117a2.122,2.122,0,0,0-.918.293.648.648,0,0,0-.29.557.9.9,0,0,0,.236.67.92.92,0,0,0,.673.234,1.822,1.822,0,0,0,1.16-.372,1.258,1.258,0,0,0,.43-.589.947.947,0,0,0,.029-.2A2.907,2.907,0,0,0,273.412,298.762Z" transform="translate(-0.334 -1.076)"/>
      <path class="cls-3" d="M277.724,300.952a2,2,0,0,1-1.654-.776,3.29,3.29,0,0,1-.614-2.1,2.843,2.843,0,0,1,.595-1.88,1.922,1.922,0,0,1,1.552-.716,1.742,1.742,0,0,1,1.508.808l.068.1v-2.684h.87v7.107h-.808v-.707l-.111.161A1.7,1.7,0,0,1,277.724,300.952Zm.047-4.684a1.228,1.228,0,0,0-1.067.466,3.279,3.279,0,0,0,.026,2.956,1.2,1.2,0,0,0,1.041.517,1.249,1.249,0,0,0,1.021-.476,1.934,1.934,0,0,0,.387-1.259,3.032,3.032,0,0,0-.366-1.631A1.164,1.164,0,0,0,277.771,296.268Z" transform="translate(-0.334 -1.076)"/>
      <path class="cls-3" d="M281.475,299.763h1.034v1.049h-1.034Z" transform="translate(-0.334 -1.076)"/>
    </g>
    <path class="cls-3" d="M285.293,297.138a.9.9,0,0,0-.351-.667,1.355,1.355,0,0,0-.839-.238,1.5,1.5,0,0,0-.825.189.622.622,0,0,0-.283.552.478.478,0,0,0,.2.415,2.577,2.577,0,0,0,.788.28l.9.213a2.289,2.289,0,0,1,1.078.508,1.2,1.2,0,0,1,.321.894,1.487,1.487,0,0,1-.553,1.218,2.308,2.308,0,0,1-1.5.45,2.567,2.567,0,0,1-1.629-.432,1.8,1.8,0,0,1-.6-1.362h.837a1.1,1.1,0,0,0,.388.8,1.659,1.659,0,0,0,1,.246,1.491,1.491,0,0,0,.888-.222.755.755,0,0,0,.3-.648.472.472,0,0,0-.2-.41,2.559,2.559,0,0,0-.8-.281l-.9-.212a2.159,2.159,0,0,1-1.039-.489,1.173,1.173,0,0,1-.31-.87,1.421,1.421,0,0,1,.519-1.158,2.153,2.153,0,0,1,1.409-.428,2.19,2.19,0,0,1,1.438.441,1.581,1.581,0,0,1,.567,1.213Z" transform="translate(-0.334 -1.076)"/>
    <g>
      <path class="cls-3" d="M288.746,293.458h1.942v.716h-1.942Z" transform="translate(-0.334 -1.076)"/>
      <path class="cls-3" d="M293.14,292.055h-1.3V291.5a1.5,1.5,0,0,0,.935-.248,1.525,1.525,0,0,0,.538-.812h.569v5.569h-.739Z" transform="translate(-0.334 -1.076)"/>
    </g>
    <path class="cls-3" d="M297.729,302.755h-1.852v-.7h1.068v-7.7h-1.068v-.7h1.852Z" transform="translate(-0.334 -1.076)"/>
    <path class="cls-2" d="M200.2,272.012V15.212m141,256.8V15.212m-141,256.8h2.568m-2.568-64.2h2.568m-2.568-64.2h2.568m-2.568-64.2h2.568m-2.568-64.2h2.568M341.2,272.012h-2.568m2.568-64.2h-2.568m2.568-64.2h-2.568m2.568-64.2h-2.568m2.568-64.2h-2.568" transform="translate(-0.334 -1.076)"/>
    <path class="cls-3" d="M189.2,272.712h2.206v.813H189.2Z" transform="translate(-0.334 -1.076)"/>
    <path class="cls-4" d="M192.711,275.462a.43.43,0,0,1,.038-.15c.168-.351.325-.693.468-1.027s.274-.661.39-.98.22-.656.313-1.012h-.571a1.031,1.031,0,0,0-.614.206,1.723,1.723,0,0,0-.474.516.059.059,0,0,1-.056.037h-.1a.075.075,0,0,1-.085-.084.154.154,0,0,1,.019-.057,4.194,4.194,0,0,1,.629-.838,1.037,1.037,0,0,1,.759-.343h3.262a.221.221,0,0,1,.159.061.212.212,0,0,1,.066.164.33.33,0,0,1-.094.239.3.3,0,0,1-.225.1h-1.143a7.048,7.048,0,0,0-.159,1.378,3.953,3.953,0,0,0,.3,1.566.2.2,0,0,1,.027.1.324.324,0,0,1-.056.187.411.411,0,0,1-.15.136.378.378,0,0,1-.187.052c-.163,0-.272-.13-.329-.39a3.562,3.562,0,0,1-.084-.754,5.664,5.664,0,0,1,.084-.984q.085-.479.282-1.294h-.985q-.7,2.878-.852,3.178a.392.392,0,0,1-.348.244.289.289,0,0,1-.2-.075.232.232,0,0,1-.084-.178Z" transform="translate(-0.334 -1.076)"/>
    <path class="cls-3" d="M181.4,208.517H183.6v.813H181.4Z" transform="translate(-0.334 -1.076)"/>
    <path class="cls-4" d="M184.911,211.262a.43.43,0,0,1,.038-.15c.168-.35.325-.693.468-1.027s.274-.661.39-.98.22-.656.313-1.012h-.571a1.031,1.031,0,0,0-.614.206,1.723,1.723,0,0,0-.474.516.059.059,0,0,1-.056.037h-.1a.075.075,0,0,1-.085-.084.146.146,0,0,1,.019-.056,4.173,4.173,0,0,1,.629-.839,1.037,1.037,0,0,1,.759-.343h3.262a.225.225,0,0,1,.159.061.212.212,0,0,1,.066.164.334.334,0,0,1-.094.24.3.3,0,0,1-.225.1h-1.143a7.048,7.048,0,0,0-.159,1.378,3.953,3.953,0,0,0,.3,1.566.2.2,0,0,1,.027.1.324.324,0,0,1-.056.187.411.411,0,0,1-.15.136.378.378,0,0,1-.187.052c-.163,0-.272-.13-.329-.39a3.562,3.562,0,0,1-.084-.754,5.673,5.673,0,0,1,.084-.984q.085-.478.282-1.294h-.985q-.7,2.879-.852,3.178a.392.392,0,0,1-.348.244.289.289,0,0,1-.2-.075.232.232,0,0,1-.084-.178Z" transform="translate(-0.334 -1.076)"/>
    <g>
      <path class="cls-3" d="M192.049,204.786l-2.2,6.8h-.6l2.2-6.8Z" transform="translate(-0.334 -1.076)"/>
      <path class="cls-3" d="M196.465,206.948a1.792,1.792,0,0,1-.359,1.15,4.65,4.65,0,0,1-1.346.995,5.024,5.024,0,0,0-1.464,1.076,2.018,2.018,0,0,0-.269.475h3.438v.769h-4.334a2.57,2.57,0,0,1,.5-1.632,6.2,6.2,0,0,1,1.863-1.386,3.069,3.069,0,0,0,.9-.678,1.239,1.239,0,0,0,.243-.792,1.055,1.055,0,0,0-.362-.827,1.331,1.331,0,0,0-.922-.323,1.139,1.139,0,0,0-.925.4,1.824,1.824,0,0,0-.358,1.143H192.3a2.2,2.2,0,0,1,.558-1.64,2.121,2.121,0,0,1,1.6-.6,2.035,2.035,0,0,1,1.441.523A1.747,1.747,0,0,1,196.465,206.948Z" transform="translate(-0.334 -1.076)"/>
    </g>
    <path class="cls-3" d="M192.9,146.537a5.41,5.41,0,0,1,0-4.81,1.946,1.946,0,0,1,3.211,0,5.418,5.418,0,0,1,0,4.81,1.949,1.949,0,0,1-3.211,0Zm2.6-.5a5.658,5.658,0,0,0,0-3.808,1.074,1.074,0,0,0-1-.635,1.059,1.059,0,0,0-.992.635,5.594,5.594,0,0,0,0,3.808,1.059,1.059,0,0,0,.992.633A1.074,1.074,0,0,0,195.5,146.036Z" transform="translate(-0.334 -1.076)"/>
    <path class="cls-4" d="M184.911,82.862a.43.43,0,0,1,.038-.15c.168-.35.325-.693.468-1.027s.274-.661.39-.98.22-.656.313-1.012h-.571a1.031,1.031,0,0,0-.614.206,1.723,1.723,0,0,0-.474.516.059.059,0,0,1-.056.037h-.1a.075.075,0,0,1-.085-.084.146.146,0,0,1,.019-.056,4.173,4.173,0,0,1,.629-.839,1.037,1.037,0,0,1,.759-.343h3.262a.225.225,0,0,1,.159.061.212.212,0,0,1,.066.164.334.334,0,0,1-.094.24.3.3,0,0,1-.225.1h-1.143a7.048,7.048,0,0,0-.159,1.378,3.953,3.953,0,0,0,.3,1.566.2.2,0,0,1,.027.1.324.324,0,0,1-.056.187.411.411,0,0,1-.15.136.378.378,0,0,1-.187.052c-.163,0-.272-.13-.329-.39a3.562,3.562,0,0,1-.084-.754,5.673,5.673,0,0,1,.084-.984q.085-.478.282-1.294h-.985q-.7,2.878-.852,3.178a.392.392,0,0,1-.348.244.289.289,0,0,1-.2-.075.232.232,0,0,1-.084-.178Z" transform="translate(-0.334 -1.076)"/>
    <g>
      <path class="cls-3" d="M192.049,76.379l-2.2,6.8h-.6l2.2-6.8Z" transform="translate(-0.334 -1.076)"/>
      <path class="cls-3" d="M196.465,78.542a1.789,1.789,0,0,1-.359,1.149,4.614,4.614,0,0,1-1.346,1,5.023,5.023,0,0,0-1.464,1.077,2.011,2.011,0,0,0-.269.474h3.438v.769h-4.334a2.565,2.565,0,0,1,.5-1.631,6.2,6.2,0,0,1,1.863-1.387,3.069,3.069,0,0,0,.9-.677,1.244,1.244,0,0,0,.243-.793,1.06,1.06,0,0,0-.362-.828,1.335,1.335,0,0,0-.922-.321,1.138,1.138,0,0,0-.925.4,1.825,1.825,0,0,0-.358,1.144H192.3a2.2,2.2,0,0,1,.558-1.641,2.125,2.125,0,0,1,1.6-.6,2.035,2.035,0,0,1,1.441.523A1.749,1.749,0,0,1,196.465,78.542Z" transform="translate(-0.334 -1.076)"/>
    </g>
    <path class="cls-4" d="M192.711,18.662a.43.43,0,0,1,.038-.15c.168-.35.325-.693.468-1.027s.274-.661.39-.98.22-.656.313-1.012h-.571a1.031,1.031,0,0,0-.614.206,1.723,1.723,0,0,0-.474.516.059.059,0,0,1-.056.037h-.1a.075.075,0,0,1-.085-.084.146.146,0,0,1,.019-.056,4.173,4.173,0,0,1,.629-.839,1.037,1.037,0,0,1,.759-.343h3.262a.225.225,0,0,1,.159.061.212.212,0,0,1,.066.164.334.334,0,0,1-.094.24.3.3,0,0,1-.225.1h-1.143a7.048,7.048,0,0,0-.159,1.378,3.953,3.953,0,0,0,.3,1.566.2.2,0,0,1,.027.1.324.324,0,0,1-.056.187.411.411,0,0,1-.15.136.378.378,0,0,1-.187.052c-.163,0-.272-.13-.329-.39a3.562,3.562,0,0,1-.084-.754,5.673,5.673,0,0,1,.084-.984q.085-.478.282-1.294h-.985q-.7,2.878-.852,3.178a.392.392,0,0,1-.348.244.289.289,0,0,1-.2-.075.232.232,0,0,1-.084-.178Z" transform="translate(-0.334 -1.076)"/>
    <g>
      <path class="cls-5" d="M222.538,8.532a2.72,2.72,0,0,1-1.787.522h-1.483v2.562h-1.48V4.49h3.06a2.464,2.464,0,0,1,1.686.552,2.148,2.148,0,0,1,.629,1.706A2.212,2.212,0,0,1,222.538,8.532ZM221.4,5.965a1.2,1.2,0,0,0-.793-.237h-1.34v2.1h1.34a1.137,1.137,0,0,0,.793-.256,1.046,1.046,0,0,0,.284-.813A.98.98,0,0,0,221.4,5.965Z" transform="translate(-0.334 -1.076)"/>
      <path class="cls-5" d="M228.033,6.376a1.542,1.542,0,0,1,.653.518,1.377,1.377,0,0,1,.264.607A7.527,7.527,0,0,1,229,8.519v3.1h-1.406V8.407a1.407,1.407,0,0,0-.145-.687.72.72,0,0,0-.71-.368.975.975,0,0,0-.823.366,1.687,1.687,0,0,0-.28,1.042v2.856h-1.378v-7.1h1.378V7.028a1.687,1.687,0,0,1,.69-.64,1.946,1.946,0,0,1,.826-.181A2.224,2.224,0,0,1,228.033,6.376Z" transform="translate(-0.334 -1.076)"/>
      <path class="cls-5" d="M232.38,8.411a2.238,2.238,0,0,0,.551-.121.415.415,0,0,0,.3-.392A.465.465,0,0,0,233,7.451a1.444,1.444,0,0,0-.669-.123.88.88,0,0,0-.7.242.988.988,0,0,0-.195.483H230.1a2.03,2.03,0,0,1,.389-1.136,2.264,2.264,0,0,1,1.884-.7,3.358,3.358,0,0,1,1.544.343,1.317,1.317,0,0,1,.675,1.3v2.417q0,.251.009.609a.767.767,0,0,0,.083.367.479.479,0,0,0,.2.16v.2h-1.5a1.524,1.524,0,0,1-.087-.3c-.016-.093-.029-.2-.038-.319a2.867,2.867,0,0,1-.663.527,1.988,1.988,0,0,1-1.01.256,1.747,1.747,0,0,1-1.189-.408,1.454,1.454,0,0,1-.469-1.158,1.5,1.5,0,0,1,.754-1.407,3.384,3.384,0,0,1,1.218-.338Zm.843.643a1.59,1.59,0,0,1-.268.133,2.256,2.256,0,0,1-.369.094l-.314.058a2.085,2.085,0,0,0-.633.188.63.63,0,0,0-.326.585.614.614,0,0,0,.2.511.76.76,0,0,0,.483.156,1.443,1.443,0,0,0,.832-.26,1.108,1.108,0,0,0,.4-.953Z" transform="translate(-0.334 -1.076)"/>
      <path class="cls-5" d="M236.867,9.934a.919.919,0,0,0,.19.522,1.288,1.288,0,0,0,.952.275,1.448,1.448,0,0,0,.648-.121.386.386,0,0,0,.24-.362A.391.391,0,0,0,238.7,9.9a7.873,7.873,0,0,0-1.441-.416A2.985,2.985,0,0,1,236,8.923a1.2,1.2,0,0,1-.367-.947,1.642,1.642,0,0,1,.574-1.255,2.311,2.311,0,0,1,1.615-.524,2.968,2.968,0,0,1,1.612.394,1.686,1.686,0,0,1,.714,1.361h-1.377a.825.825,0,0,0-.151-.421.947.947,0,0,0-.775-.281,1.114,1.114,0,0,0-.643.141.4.4,0,0,0-.191.329.359.359,0,0,0,.2.343,8.9,8.9,0,0,0,1.438.382,2.652,2.652,0,0,1,1.235.584,1.333,1.333,0,0,1,.406.992,1.6,1.6,0,0,1-.584,1.278,3.511,3.511,0,0,1-3.643-.029,1.705,1.705,0,0,1-.592-1.336Z" transform="translate(-0.334 -1.076)"/>
      <path class="cls-5" d="M244.738,6.454a2.14,2.14,0,0,1,.911.779,2.572,2.572,0,0,1,.419,1.089,6.708,6.708,0,0,1,.046,1.046h-3.838a1.262,1.262,0,0,0,.552,1.111,1.389,1.389,0,0,0,.759.2,1.07,1.07,0,0,0,1.049-.6h1.406a1.717,1.717,0,0,1-.511.952,2.557,2.557,0,0,1-1.982.768,2.868,2.868,0,0,1-1.856-.648,2.553,2.553,0,0,1-.8-2.109,2.852,2.852,0,0,1,.725-2.1,2.542,2.542,0,0,1,1.884-.73A2.989,2.989,0,0,1,244.738,6.454Zm-2.06,1.19a1.413,1.413,0,0,0-.367.815h2.373a1.149,1.149,0,0,0-.367-.833,1.208,1.208,0,0,0-.817-.284A1.089,1.089,0,0,0,242.678,7.644Z" transform="translate(-0.334 -1.076)"/>
      <path class="cls-5" d="M252.489,6.224c.018,0,.057,0,.118.006V7.642c-.086-.01-.164-.016-.232-.019s-.122,0-.164,0a1.139,1.139,0,0,0-1.116.541,2.1,2.1,0,0,0-.16.938v2.519h-1.387V6.347h1.314v.918a2.922,2.922,0,0,1,.556-.72,1.514,1.514,0,0,1,1.006-.324A.6.6,0,0,1,252.489,6.224Z" transform="translate(-0.334 -1.076)"/>
      <path class="cls-5" d="M256.848,6.454a2.14,2.14,0,0,1,.911.779,2.585,2.585,0,0,1,.419,1.089,6.835,6.835,0,0,1,.046,1.046h-3.838a1.26,1.26,0,0,0,.552,1.111,1.383,1.383,0,0,0,.758.2,1.07,1.07,0,0,0,1.049-.6h1.406a1.721,1.721,0,0,1-.51.952,2.559,2.559,0,0,1-1.983.768,2.865,2.865,0,0,1-1.855-.648,2.553,2.553,0,0,1-.8-2.109,2.849,2.849,0,0,1,.726-2.1,2.538,2.538,0,0,1,1.883-.73A3,3,0,0,1,256.848,6.454Zm-2.061,1.19a1.426,1.426,0,0,0-.367.815h2.373a1.149,1.149,0,0,0-.366-.833,1.21,1.21,0,0,0-.818-.284A1.091,1.091,0,0,0,254.787,7.644Z" transform="translate(-0.334 -1.076)"/>
      <path class="cls-5" d="M259.988,9.934a.927.927,0,0,0,.19.522,1.288,1.288,0,0,0,.952.275,1.448,1.448,0,0,0,.648-.121.387.387,0,0,0,.241-.362.392.392,0,0,0-.194-.353,7.873,7.873,0,0,0-1.441-.416,2.985,2.985,0,0,1-1.266-.556,1.2,1.2,0,0,1-.367-.947,1.642,1.642,0,0,1,.574-1.255A2.311,2.311,0,0,1,260.94,6.2a2.968,2.968,0,0,1,1.612.394,1.686,1.686,0,0,1,.714,1.361h-1.377a.825.825,0,0,0-.151-.421.947.947,0,0,0-.775-.281,1.114,1.114,0,0,0-.643.141.4.4,0,0,0-.191.329.359.359,0,0,0,.2.343,8.9,8.9,0,0,0,1.439.382,2.653,2.653,0,0,1,1.234.584,1.333,1.333,0,0,1,.406.992,1.6,1.6,0,0,1-.584,1.278,2.746,2.746,0,0,1-1.8.5,2.716,2.716,0,0,1-1.838-.524,1.7,1.7,0,0,1-.593-1.336Z" transform="translate(-0.334 -1.076)"/>
      <path class="cls-5" d="M268.857,6.912a2.81,2.81,0,0,1,.645,2,3.161,3.161,0,0,1-.63,2.122,2.048,2.048,0,0,1-1.623.73,1.7,1.7,0,0,1-1.051-.315,2.021,2.021,0,0,1-.447-.507v2.745h-1.363V6.347h1.319v.778a2.243,2.243,0,0,1,.477-.542,1.759,1.759,0,0,1,1.1-.353A2.085,2.085,0,0,1,268.857,6.912ZM267.8,7.9a.983.983,0,0,0-.911-.469,1.036,1.036,0,0,0-1.04.711,2.659,2.659,0,0,0-.147.957,1.519,1.519,0,0,0,.493,1.291,1.134,1.134,0,0,0,.694.217,1.009,1.009,0,0,0,.886-.444,2.058,2.058,0,0,0,.306-1.185A2.06,2.06,0,0,0,267.8,7.9Z" transform="translate(-0.334 -1.076)"/>
      <path class="cls-5" d="M274.867,10.971a2.9,2.9,0,0,1-4.051,0,3.049,3.049,0,0,1-.667-1.983,3.069,3.069,0,0,1,.667-1.975,2.872,2.872,0,0,1,4.051,0,3.069,3.069,0,0,1,.667,1.975A3.049,3.049,0,0,1,274.867,10.971Zm-1.1-.762a2,2,0,0,0,.324-1.221,1.989,1.989,0,0,0-.324-1.218,1.223,1.223,0,0,0-1.859,0,1.969,1.969,0,0,0-.326,1.218,1.98,1.98,0,0,0,.326,1.221,1.22,1.22,0,0,0,1.859,0Z" transform="translate(-0.334 -1.076)"/>
      <path class="cls-5" d="M280.77,6.649a1.745,1.745,0,0,1,.517,1.418v3.549h-1.411v-3.2a1.489,1.489,0,0,0-.11-.639A.778.778,0,0,0,279,7.367a.95.95,0,0,0-.954.594,2.05,2.05,0,0,0-.135.8v2.852H276.53V6.356h1.334v.769a2.342,2.342,0,0,1,.5-.585,1.733,1.733,0,0,1,1.073-.319A2.023,2.023,0,0,1,280.77,6.649Z" transform="translate(-0.334 -1.076)"/>
      <path class="cls-5" d="M283.636,9.934a.927.927,0,0,0,.189.522,1.288,1.288,0,0,0,.952.275,1.45,1.45,0,0,0,.649-.121.386.386,0,0,0,.24-.362.391.391,0,0,0-.193-.353,7.9,7.9,0,0,0-1.442-.416,2.986,2.986,0,0,1-1.265-.556,1.2,1.2,0,0,1-.368-.947,1.643,1.643,0,0,1,.575-1.255,2.31,2.31,0,0,1,1.615-.524,2.966,2.966,0,0,1,1.611.394,1.683,1.683,0,0,1,.714,1.361h-1.377a.816.816,0,0,0-.15-.421.949.949,0,0,0-.776-.281,1.113,1.113,0,0,0-.642.141.4.4,0,0,0-.192.329.361.361,0,0,0,.2.343,8.929,8.929,0,0,0,1.439.382,2.643,2.643,0,0,1,1.234.584,1.33,1.33,0,0,1,.407.992,1.6,1.6,0,0,1-.584,1.278,3.511,3.511,0,0,1-3.643-.029,1.706,1.706,0,0,1-.593-1.336Z" transform="translate(-0.334 -1.076)"/>
      <path class="cls-5" d="M291.507,6.454a2.14,2.14,0,0,1,.911.779,2.585,2.585,0,0,1,.419,1.089,6.708,6.708,0,0,1,.046,1.046h-3.838a1.26,1.26,0,0,0,.552,1.111,1.388,1.388,0,0,0,.758.2,1.162,1.162,0,0,0,.766-.242,1.15,1.15,0,0,0,.283-.362h1.407a1.724,1.724,0,0,1-.511.952,2.559,2.559,0,0,1-1.983.768,2.865,2.865,0,0,1-1.855-.648,2.553,2.553,0,0,1-.8-2.109,2.849,2.849,0,0,1,.726-2.1,2.538,2.538,0,0,1,1.884-.73A2.989,2.989,0,0,1,291.507,6.454Zm-2.061,1.19a1.426,1.426,0,0,0-.367.815h2.373a1.145,1.145,0,0,0-.366-.833,1.21,1.21,0,0,0-.817-.284A1.093,1.093,0,0,0,289.446,7.644Z" transform="translate(-0.334 -1.076)"/>
    </g>
    <path d="M297.392,11.612v-.338q1.228,0,1.228-.309v-.694A3.393,3.393,0,0,1,297,9.718a2.17,2.17,0,0,1-.609-.61,1.358,1.358,0,0,1,0-1.556A2.154,2.154,0,0,1,297,6.943a2.918,2.918,0,0,1,.759-.375,4.089,4.089,0,0,1,.862-.178V5.7q0-.309-1.228-.309V5.049h3.891v.338q-1.229,0-1.228.309V6.39a2.708,2.708,0,0,1,.839.145,3.382,3.382,0,0,1,.825.4,2.213,2.213,0,0,1,.623.619,1.375,1.375,0,0,1,.244.778,1.356,1.356,0,0,1-.244.774,2.316,2.316,0,0,1-.632.623,3.2,3.2,0,0,1-.835.4,2.733,2.733,0,0,1-.82.141v.694q0,.309,1.228.309v.338Zm2.625-1.66a1.285,1.285,0,0,0,.591-.445,1.673,1.673,0,0,0,.384-1.177,1.669,1.669,0,0,0-.389-1.185c-.259-.279-.454-.424-.586-.437V9.952Zm-1.4-.009V6.727q-.88.121-.88,1.6t.88,1.613Z" transform="translate(-0.334 -1.076)"/>
    <g>
      <path class="cls-5" d="M304.365,6.207a7.328,7.328,0,0,1,.749-1.359l.344-.473.793.009a13.37,13.37,0,0,0-.914,1.938,8.271,8.271,0,0,0-.4,2.659,9.106,9.106,0,0,0,.155,1.745,8.07,8.07,0,0,0,.846,2.345l.294.541h-.817a9.6,9.6,0,0,1-1.193-2.112,6.469,6.469,0,0,1-.484-2.432A7.151,7.151,0,0,1,304.365,6.207Z" transform="translate(-0.334 -1.076)"/>
      <path class="cls-5" d="M310.771,6.454a2.142,2.142,0,0,1,.912.779,2.6,2.6,0,0,1,.419,1.089,6.733,6.733,0,0,1,.045,1.046H308.31a1.262,1.262,0,0,0,.551,1.111,1.389,1.389,0,0,0,.759.2,1.07,1.07,0,0,0,1.049-.6h1.406a1.717,1.717,0,0,1-.511.952,2.555,2.555,0,0,1-1.982.768,2.865,2.865,0,0,1-1.855-.648,2.55,2.55,0,0,1-.8-2.109,2.852,2.852,0,0,1,.725-2.1,2.542,2.542,0,0,1,1.884-.73A2.989,2.989,0,0,1,310.771,6.454Zm-2.06,1.19a1.426,1.426,0,0,0-.367.815h2.373a1.153,1.153,0,0,0-.366-.833,1.212,1.212,0,0,0-.818-.284A1.091,1.091,0,0,0,308.711,7.644Z" transform="translate(-0.334 -1.076)"/>
    </g>
    <path class="cls-5" d="M312.434,7.615l.13.013.071,0a.348.348,0,0,0,.245-.079.426.426,0,0,0,.083-.308V2.615h1.1V7.264a1.466,1.466,0,0,1-.252.943,1.24,1.24,0,0,1-.985.306c-.034,0-.084,0-.149-.006l-.245-.01Zm1.631-5.522h-1.1V1.076h1.1Z" transform="translate(-0.334 -1.076)"/>
    <path d="M318.458,6.9a.694.694,0,0,1-.567-.258,1.51,1.51,0,0,1-.3-.623,3.222,3.222,0,0,1-.084-.722v-.01a4.607,4.607,0,0,1,.075-.806,5.778,5.778,0,0,1,.216-.839,5.4,5.4,0,0,1,.309-.745,5.742,5.742,0,0,1,.291-.506,3.836,3.836,0,0,1,.4-.53,2.026,2.026,0,0,1,.483-.4,1.024,1.024,0,0,1,.52-.15h.009a2.074,2.074,0,0,1,1.069.16,1.06,1.06,0,0,1,.291.4,2.16,2.16,0,0,1,.145.52,3.544,3.544,0,0,1,.043.53,4.787,4.787,0,0,1-.16,1.2,6.251,6.251,0,0,1-.44,1.187,4.805,4.805,0,0,1-.3.511,4.289,4.289,0,0,1-.4.529,2.016,2.016,0,0,1-.474.389,2.587,2.587,0,0,1-1.125.155Zm.2-.206c.05,0,.155-.092.314-.277a2.74,2.74,0,0,0,.417-.67,8.047,8.047,0,0,0,.314-.806c.091-.276.158-.51.2-.7h-.994c-.081.332-.144.616-.188.854a3.88,3.88,0,0,0-.065.693v.91Zm.319-2.728h.993c.057-.226.1-.416.136-.572s.063-.319.085-.488a3.7,3.7,0,0,0,.032-.478q0-.909-.412-.909l-.309.8a14.167,14.167,0,0,0-.525,1.65Z" transform="translate(-0.334 -1.076)"/>
    <path class="cls-5" d="M323.676,6.289a6.562,6.562,0,0,1,.565,2.629,7.213,7.213,0,0,1-.671,2.959,6.206,6.206,0,0,1-.71,1.266l-.341.469H321.5a12.412,12.412,0,0,0,.886-1.885,8.288,8.288,0,0,0,.428-2.722,9.285,9.285,0,0,0-.153-1.75,8.056,8.056,0,0,0-.844-2.339l-.293-.541h1.038A10.342,10.342,0,0,1,323.676,6.289Z" transform="translate(-0.334 -1.076)"/>
    <polyline class="cls-7" points="199.868 142.535 200.15 138.344 200.432 134.285 200.714 130.472 200.996 126.983 201.278 123.859 201.56 121.11 201.842 118.724 202.124 116.675 202.406 114.929 202.688 113.453 202.97 112.214 203.252 111.18 203.534 110.326 203.816 109.627 204.098 109.064 204.38 108.619 204.662 108.277 204.944 108.025 205.226 107.852 205.508 107.749 205.79 107.708 206.072 107.722 206.354 107.784 206.636 107.89 206.918 108.035 207.2 108.216 207.482 108.428 207.764 108.669 208.046 108.936 208.328 109.226 208.61 109.538 208.892 109.87 209.174 110.219 209.456 110.585 209.738 110.966 210.02 111.361 210.302 111.768 210.584 112.187 210.866 112.617 211.148 113.057 211.43 113.507 211.712 113.965 211.994 114.43 212.276 114.904 212.558 115.384 212.84 115.871 213.122 116.363 213.404 116.861 213.686 117.364 213.968 117.872 214.25 118.385 214.532 118.901 214.814 119.422 215.096 119.946 215.378 120.473 215.66 121.003 215.942 121.537 216.224 122.072 216.506 122.611 216.788 123.152 217.07 123.694 217.352 124.239 217.634 124.786 217.916 125.333 218.198 125.882 218.48 126.433 218.762 126.985 219.044 127.538 219.326 128.092 219.608 128.647 219.89 129.202 220.172 129.757 220.454 130.313 220.736 130.87 221.018 131.427 221.3 131.984 221.582 132.541 221.864 133.098 222.146 133.655 222.428 134.211 222.71 134.767 222.992 135.323 223.274 135.878 223.556 136.432 223.838 136.986 224.12 137.539 224.402 138.091 224.684 138.642 224.966 139.192 225.248 139.741 225.53 140.288 225.812 140.834 226.094 141.379 226.376 141.922 226.658 142.463 226.94 143.002 227.222 143.54 227.504 144.076 227.786 144.609 228.068 145.141 228.35 145.67 228.632 146.197 228.914 146.721 229.196 147.242 229.478 147.761 229.76 148.277 230.042 148.791 230.324 149.3 230.606 149.807 230.888 150.311 231.17 150.811 231.452 151.306 231.734 151.799 232.016 152.287 232.298 152.771 232.58 153.251 232.862 153.726 233.144 154.196 233.426 154.662 233.708 155.122 233.99 155.578 234.272 156.028 234.554 156.472 234.836 156.91 235.118 157.342 235.4 157.767 235.682 158.186 235.964 158.597 236.246 159.002 236.528 159.399 236.81 159.788 237.092 160.169 237.374 160.541 237.656 160.904 237.938 161.259 238.22 161.603 238.502 161.938 238.784 162.262 239.066 162.575 239.348 162.877 239.63 163.166 239.912 163.444 240.194 163.708 240.476 163.959 240.758 164.196 241.04 164.418 241.322 164.625 241.604 164.816 241.886 164.991 242.168 165.148 242.45 165.287 242.732 165.407 243.014 165.508 243.296 165.589 243.578 165.648 243.86 165.685 244.142 165.699 244.424 165.689 244.706 165.655 244.988 165.595 245.27 165.508 245.552 165.394 245.834 165.251 246.116 165.079 246.398 164.878 246.68 164.645 246.962 164.381 247.244 164.085 247.526 163.756 247.808 163.394 248.09 162.998 248.372 162.569 248.654 162.107 248.936 161.611 249.218 161.083 249.5 160.522 249.782 159.931 250.064 159.31 250.346 158.66 250.628 157.985 250.91 157.285 251.192 156.563 251.474 155.823 251.756 155.066 252.038 154.297 252.32 153.517 252.602 152.731 252.884 151.943 253.166 151.156 253.448 150.372 253.73 149.597 254.012 148.832 254.294 148.082 254.576 147.349 254.858 146.636 255.14 145.945 255.422 145.278 255.704 144.638 255.986 144.025 256.268 143.441 256.55 142.888 256.832 142.364 257.114 141.872 257.396 141.412 257.678 140.983 257.96 140.585 258.242 140.218 258.524 139.882 258.806 139.576 259.088 139.298 259.37 139.05 259.652 138.829 259.934 138.635 260.216 138.467 260.498 138.324 260.78 138.205 261.062 138.109 261.344 138.035 261.626 137.983 261.908 137.951 262.19 137.938 262.472 137.944 262.754 137.968 263.036 138.007 263.318 138.063 263.6 138.134 263.882 138.219 264.164 138.317 264.446 138.428 264.728 138.551 265.01 138.685 265.292 138.83 265.574 138.984 265.856 139.148 266.138 139.319 266.42 139.499 266.702 139.687 266.984 139.881 267.266 140.081 267.548 140.287 267.83 140.497 268.112 140.713 268.394 140.932 268.676 141.155 268.958 141.38 269.24 141.608 269.522 141.838 269.804 142.07 270.086 142.303 270.368 142.535 270.65 142.768 270.932 143.001 271.214 143.233 271.496 143.462 271.778 143.69 272.06 143.916 272.342 144.139 272.624 144.358 272.906 144.574 273.188 144.784 273.47 144.99 273.752 145.19 274.034 145.384 274.316 145.571 274.598 145.751 274.88 145.923 275.162 146.087 275.444 146.241 275.726 146.386 276.008 146.52 276.29 146.642 276.572 146.753 276.854 146.852 277.136 146.937 277.418 147.008 277.7 147.064 277.982 147.103 278.264 147.127 278.546 147.133 278.828 147.119 279.11 147.088 279.392 147.035 279.674 146.962 279.956 146.866 280.238 146.747 280.52 146.604 280.802 146.436 281.084 146.242 281.366 146.021 281.648 145.772 281.93 145.495 282.212 145.189 282.494 144.853 282.776 144.486 283.058 144.088 283.34 143.659 283.622 143.198 283.904 142.706 284.186 142.183 284.468 141.629 284.75 141.046 285.032 140.433 285.314 139.793 285.596 139.126 285.878 138.435 286.16 137.722 286.442 136.989 286.724 136.238 287.006 135.474 287.288 134.699 287.57 133.915 287.852 133.128 288.134 132.34 288.416 131.554 288.698 130.774 288.98 130.004 289.262 129.248 289.544 128.507 289.826 127.786 290.108 127.086 290.39 126.41 290.672 125.761 290.954 125.14 291.236 124.549 291.518 123.988 291.8 123.46 292.082 122.964 292.364 122.501 292.646 122.072 292.928 121.677 293.21 121.315 293.492 120.986 293.774 120.69 294.056 120.426 294.338 120.193 294.62 119.992 294.902 119.819 295.184 119.677 295.466 119.563 295.748 119.476 296.03 119.416 296.312 119.381 296.594 119.372 296.876 119.386 297.158 119.423 297.44 119.482 297.722 119.563 298.004 119.663 298.286 119.783 298.568 119.923 298.85 120.08 299.132 120.254 299.414 120.446 299.696 120.653 299.978 120.875 300.26 121.112 300.542 121.363 300.824 121.627 301.106 121.904 301.388 122.194 301.67 122.496 301.952 122.809 302.234 123.133 302.516 123.467 302.798 123.812 303.08 124.166 303.362 124.529 303.644 124.902 303.926 125.283 304.208 125.672 304.49 126.069 304.772 126.473 305.054 126.885 305.336 127.304 305.618 127.729 305.9 128.161 306.182 128.599 306.464 129.043 306.746 129.493 307.028 129.949 307.31 130.409 307.592 130.874 307.874 131.345 308.156 131.82 308.438 132.3 308.72 132.784 309.002 133.272 309.284 133.765 309.566 134.26 309.848 134.76 310.13 135.263 310.412 135.77 310.694 136.28 310.976 136.793 311.258 137.309 311.54 137.828 311.822 138.35 312.104 138.874 312.386 139.401 312.668 139.93 312.95 140.462 313.232 140.995 313.514 141.531 313.796 142.069 314.078 142.608 314.36 143.149 314.642 143.692 314.924 144.237 315.206 144.783 315.488 145.33 315.77 145.879 316.052 146.429 316.334 146.98 316.616 147.532 316.898 148.085 317.18 148.639 317.462 149.193 317.744 149.748 318.026 150.304 318.308 150.86 318.59 151.416 318.872 151.973 319.154 152.53 319.436 153.087 319.718 153.644 320 154.201 320.282 154.757 320.564 155.314 320.846 155.869 321.128 156.424 321.41 156.979 321.692 157.533 321.974 158.086 322.256 158.638 322.538 159.188 322.82 159.737 323.102 160.285 323.384 160.832 323.666 161.377 323.948 161.919 324.23 162.46 324.512 162.998 324.794 163.534 325.076 164.068 325.358 164.598 325.64 165.125 325.922 165.649 326.204 166.169 326.486 166.686 326.768 167.198 327.05 167.707 327.332 168.209 327.614 168.707 327.896 169.2 328.178 169.687 328.46 170.167 328.742 170.641 329.024 171.106 329.306 171.564 329.588 172.013 329.87 172.454 330.152 172.883 330.434 173.303 330.716 173.71 330.998 174.105 331.28 174.486 331.562 174.851 331.844 175.201 332.126 175.532 332.408 175.844 332.69 176.135 332.972 176.402 333.254 176.642 333.536 176.855 333.818 177.035 334.1 177.181 334.382 177.287 334.664 177.349 334.946 177.363 335.228 177.322 335.51 177.219 335.792 177.046 336.074 176.794 336.356 176.452 336.638 176.006 336.92 175.444 337.202 174.745 337.484 173.891 337.766 172.857 338.048 171.617 338.33 170.141 338.612 168.396 338.894 166.346 339.176 163.961 339.458 161.212 339.74 158.088 340.022 154.598 340.304 150.785 340.586 146.727"/>
  </g>
</svg>
