<?xml version="1.0" encoding="utf-8"?>
<!-- Generator: Adobe Illustrator 22.1.0, SVG Export Plug-In . SVG Version: 6.00 Build 0)  -->
<svg version="1.1" id="Layer_1" xmlns="http://www.w3.org/2000/svg" xmlns:xlink="http://www.w3.org/1999/xlink" x="0px" y="0px"
	 viewBox="0 0 362.7 289.4" style="enable-background:new 0 0 362.7 289.4;" xml:space="preserve">
<style type="text/css">
	.st0{fill:#FFFFFF;}
	.st1{fill:none;stroke:#262626;stroke-width:0.4998;stroke-linecap:square;stroke-linejoin:round;stroke-miterlimit:10;}
	.st2{fill:#4A4A49;}
	.st3{fill:#0072BD;}
	.st4{fill:none;stroke:#FF0000;stroke-width:4.0002;stroke-miterlimit:10;}
	.st5{fill:none;stroke:#0072BD;stroke-width:1.9998;stroke-linejoin:round;stroke-miterlimit:10;}
	.st6{fill:#1D1D1B;}
</style>
<g>
	<rect x="36.9" y="0.2" class="st0" width="325.6" height="256.8"/>
	<path class="st1" d="M36.9,257h325.6 M36.9,0.2h325.6 M89.9,257v-3.3 M147.7,257v-3.3 M205.5,257v-3.3 M263.3,257v-3.3 M321,257
		v-3.3 M89.9,0.2v3.3 M147.7,0.2v3.3 M205.5,0.2v3.3 M263.3,0.2v3.3 M321,0.2v3.3"/>
	<g>
		<path class="st2" d="M85.9,268h2.5v0.9h-2.5V268z"/>
		<path class="st2" d="M91.4,266.3h-1.6v-0.7c0.5,0,0.9-0.1,1.2-0.3c0.3-0.2,0.5-0.6,0.7-1h0.7v7h-0.5h-0.5V266.3z"/>
	</g>
	<g>
		<path class="st2" d="M139.5,268h2.5v0.9h-2.5V268z"/>
		<path class="st2" d="M143.3,270.5c-0.4-0.6-0.6-1.5-0.6-2.7s0.2-2,0.6-2.7c0.4-0.6,1-0.9,1.8-0.9c0.8,0,1.4,0.3,1.8,0.9
			c0.4,0.6,0.6,1.5,0.6,2.7s-0.2,2-0.6,2.7s-1,0.9-1.8,0.9C144.4,271.4,143.8,271.1,143.3,270.5z M146.2,269.9
			c0.2-0.5,0.4-1.2,0.4-2.1c0-0.9-0.1-1.6-0.4-2.1c-0.2-0.5-0.6-0.7-1.1-0.7c-0.5,0-0.9,0.2-1.1,0.7c-0.2,0.5-0.4,1.2-0.4,2.1
			c0,0.9,0.1,1.6,0.4,2.1s0.6,0.7,1.1,0.7C145.6,270.6,146,270.4,146.2,269.9z"/>
		<path class="st2" d="M148.8,270.2h1v1.1h-1V270.2z"/>
		<path class="st2" d="M155.8,269c0,0.7-0.2,1.3-0.7,1.8c-0.5,0.5-1,0.7-1.7,0.7c-0.7,0-1.3-0.2-1.7-0.5s-0.7-0.8-0.7-1.5h0.9
			c0,0.4,0.2,0.7,0.5,0.9c0.3,0.2,0.6,0.3,1.1,0.3c0.4,0,0.8-0.1,1-0.4s0.4-0.7,0.4-1.1c0-0.5-0.1-0.9-0.4-1.2s-0.7-0.4-1.1-0.4
			c-0.3,0-0.5,0.1-0.7,0.2s-0.4,0.3-0.5,0.5l-0.7,0l0.5-3.8h3.6v0.9h-3l-0.3,1.9l0,0c0.4-0.3,0.8-0.4,1.2-0.4c0.7,0,1.3,0.2,1.8,0.6
			C155.6,267.7,155.8,268.3,155.8,269z"/>
	</g>
	<g>
		<path class="st2" d="M203.5,270.5c-0.4-0.6-0.6-1.5-0.6-2.7s0.2-2,0.6-2.7c0.4-0.6,1-0.9,1.8-0.9c0.8,0,1.4,0.3,1.8,0.9
			c0.4,0.6,0.6,1.5,0.6,2.7s-0.2,2-0.6,2.7s-1,0.9-1.8,0.9C204.5,271.4,203.9,271.1,203.5,270.5z M206.4,269.9
			c0.2-0.5,0.4-1.2,0.4-2.1c0-0.9-0.1-1.6-0.4-2.1c-0.2-0.5-0.6-0.7-1.1-0.7c-0.5,0-0.9,0.2-1.1,0.7c-0.2,0.5-0.4,1.2-0.4,2.1
			c0,0.9,0.1,1.6,0.4,2.1s0.6,0.7,1.1,0.7C205.8,270.6,206.1,270.4,206.4,269.9z"/>
	</g>
	<g>
		<path class="st2" d="M257.1,270.5c-0.4-0.6-0.6-1.5-0.6-2.7s0.2-2,0.6-2.7c0.4-0.6,1-0.9,1.8-0.9c0.8,0,1.4,0.3,1.8,0.9
			c0.4,0.6,0.6,1.5,0.6,2.7s-0.2,2-0.6,2.7s-1,0.9-1.8,0.9C258.1,271.4,257.5,271.1,257.1,270.5z M259.9,269.9
			c0.2-0.5,0.4-1.2,0.4-2.1c0-0.9-0.1-1.6-0.4-2.1c-0.2-0.5-0.6-0.7-1.1-0.7c-0.5,0-0.9,0.2-1.1,0.7c-0.2,0.5-0.4,1.2-0.4,2.1
			c0,0.9,0.1,1.6,0.4,2.1s0.6,0.7,1.1,0.7C259.3,270.6,259.7,270.4,259.9,269.9z"/>
		<path class="st2" d="M262.5,270.2h1v1.1h-1V270.2z"/>
		<path class="st2" d="M269.5,269c0,0.7-0.2,1.3-0.7,1.8c-0.5,0.5-1,0.7-1.7,0.7c-0.7,0-1.3-0.2-1.7-0.5s-0.7-0.8-0.7-1.5h0.9
			c0,0.4,0.2,0.7,0.5,0.9c0.3,0.2,0.6,0.3,1.1,0.3c0.4,0,0.8-0.1,1-0.4c0.3-0.3,0.4-0.7,0.4-1.1c0-0.5-0.1-0.9-0.4-1.2
			s-0.7-0.4-1.1-0.4c-0.3,0-0.5,0.1-0.7,0.2c-0.2,0.1-0.4,0.3-0.5,0.5l-0.7,0l0.5-3.8h3.6v0.9h-3l-0.3,1.9l0,0
			c0.4-0.3,0.8-0.4,1.2-0.4c0.7,0,1.3,0.2,1.8,0.6C269.3,267.7,269.5,268.3,269.5,269z"/>
	</g>
	<g>
		<path class="st2" d="M320.7,266.3H319v-0.7c0.5,0,0.9-0.1,1.2-0.3c0.3-0.2,0.5-0.6,0.7-1h0.7v7h-0.5h-0.5V266.3z"/>
	</g>
	<g>
		<path class="st2" d="M177.5,278.1h0.5h3.1c0.8,0,1.5,0.2,1.9,0.5c0.4,0.4,0.7,0.9,0.7,1.6c0,0.7-0.2,1.2-0.7,1.6
			c-0.1,0.1-0.2,0.2-0.4,0.3l0.2,0.1c0.5,0.3,0.7,0.7,0.7,1.4l0,1.4c0,0.2,0,0.4,0.1,0.5c0.1,0.1,0.2,0.2,0.3,0.3v0.2h-1.3
			c0-0.1-0.1-0.2-0.1-0.5c0-0.3-0.1-0.6-0.1-0.9l0-0.6c0-0.5-0.1-0.8-0.4-1c-0.2-0.2-0.6-0.3-1.1-0.3h-2.5v3.4h-0.5h-0.5V278.1z
			 M178.6,281.7h2.6c0.5,0,0.9-0.1,1.1-0.3c0.2-0.2,0.3-0.6,0.3-1c0-0.5-0.1-0.8-0.4-1c-0.2-0.2-0.6-0.3-1.1-0.3h-2.6V281.7z"/>
		<path class="st2" d="M187.6,286.2c-0.8,0-1.5-0.3-1.9-0.8s-0.7-1.2-0.7-2.1c0-1,0.2-1.7,0.7-2.3c0.5-0.6,1.2-0.9,2-0.9
			c0.8,0,1.4,0.3,1.8,0.8s0.7,1.3,0.7,2.2l0,0.3H186c0,0.6,0.2,1,0.4,1.3c0.3,0.4,0.7,0.5,1.3,0.5c0.4,0,0.7-0.1,1-0.3
			c0.3-0.2,0.4-0.5,0.5-0.8h1c-0.1,0.6-0.4,1.1-0.9,1.4S188.2,286.2,187.6,286.2z M189.2,282.7c0-0.5-0.2-0.9-0.4-1.2
			c-0.3-0.3-0.6-0.5-1.1-0.5c-0.5,0-0.9,0.2-1.2,0.6c-0.2,0.3-0.4,0.7-0.4,1.2H189.2z"/>
		<path class="st2" d="M192.8,286.2c-0.6,0-1-0.2-1.3-0.5c-0.3-0.3-0.5-0.7-0.5-1.2c0-0.5,0.2-0.9,0.5-1.2c0.3-0.3,0.8-0.5,1.4-0.6
			l1.3-0.2c0.1,0,0.2,0,0.3-0.1c0.1,0,0.2-0.1,0.3-0.2c0.1-0.1,0.1-0.2,0.1-0.4v0c0-0.3-0.1-0.5-0.3-0.7c-0.2-0.2-0.6-0.3-1-0.3
			c-0.4,0-0.7,0.1-0.9,0.3c-0.2,0.2-0.4,0.5-0.4,0.8h-0.9c0-0.6,0.3-1.1,0.7-1.4c0.4-0.3,1-0.5,1.7-0.5c0.7,0,1.2,0.2,1.6,0.5
			s0.5,0.7,0.5,1.3v3.2c0,0.1,0,0.2,0.1,0.2c0.1,0.1,0.1,0.1,0.2,0.1c0,0,0.1,0,0.1,0c0.1,0,0.1,0,0.2,0v0.7c-0.1,0-0.2,0.1-0.3,0.1
			c-0.1,0-0.2,0-0.3,0c-0.4,0-0.6-0.1-0.8-0.3c-0.1-0.1-0.2-0.3-0.2-0.6c-0.1,0.1-0.2,0.2-0.2,0.3
			C194.1,286,193.5,286.2,192.8,286.2z M194.8,283.8v-0.6c-0.2,0.1-0.4,0.1-0.6,0.2l-0.9,0.1c-0.5,0.1-0.8,0.2-1,0.3
			s-0.3,0.4-0.3,0.6c0,0.3,0.1,0.6,0.3,0.7s0.4,0.3,0.7,0.3c0.5,0,0.9-0.1,1.3-0.4c0.2-0.2,0.4-0.4,0.5-0.7c0,0,0-0.1,0-0.2
			C194.8,284,194.8,283.9,194.8,283.8z"/>
		<path class="st2" d="M197.5,278.1h0.5h0.5v7.9h-0.5h-0.5V278.1z"/>
		<path class="st2" d="M203.2,278.1h0.5h2.9c0.8,0,1.4,0.2,1.8,0.6c0.4,0.4,0.6,0.9,0.6,1.6c0,0.7-0.2,1.3-0.6,1.8s-1,0.6-1.8,0.6
			c-1,0-1.8,0-2.4,0v3.3h-0.5h-0.5V278.1z M204.2,281.8h2.1c0.6,0,1-0.1,1.2-0.4s0.4-0.6,0.4-1.1c0-0.4-0.1-0.8-0.4-1
			c-0.3-0.2-0.7-0.3-1.2-0.3h-2.1V281.8z"/>
		<path class="st2" d="M211.8,286.2c-0.6,0-1-0.2-1.3-0.5c-0.3-0.3-0.5-0.7-0.5-1.2c0-0.5,0.2-0.9,0.5-1.2c0.3-0.3,0.8-0.5,1.4-0.6
			l1.3-0.2c0.1,0,0.2,0,0.3-0.1c0.1,0,0.2-0.1,0.3-0.2c0.1-0.1,0.1-0.2,0.1-0.4v0c0-0.3-0.1-0.5-0.3-0.7c-0.2-0.2-0.6-0.3-1-0.3
			c-0.4,0-0.7,0.1-0.9,0.3c-0.2,0.2-0.4,0.5-0.4,0.8h-0.9c0-0.6,0.3-1.1,0.7-1.4c0.4-0.3,1-0.5,1.7-0.5c0.7,0,1.2,0.2,1.6,0.5
			s0.5,0.7,0.5,1.3v3.2c0,0.1,0,0.2,0.1,0.2c0.1,0.1,0.1,0.1,0.2,0.1c0,0,0.1,0,0.1,0c0.1,0,0.1,0,0.2,0v0.7c-0.1,0-0.2,0.1-0.3,0.1
			c-0.1,0-0.2,0-0.3,0c-0.4,0-0.6-0.1-0.8-0.3c-0.1-0.1-0.2-0.3-0.2-0.6c-0.1,0.1-0.2,0.2-0.2,0.3
			C213.1,286,212.5,286.2,211.8,286.2z M213.8,283.8v-0.6c-0.2,0.1-0.4,0.1-0.6,0.2l-0.9,0.1c-0.5,0.1-0.8,0.2-1,0.3
			s-0.3,0.4-0.3,0.6c0,0.3,0.1,0.6,0.3,0.7c0.2,0.2,0.4,0.3,0.7,0.3c0.5,0,0.9-0.1,1.3-0.4c0.2-0.2,0.4-0.4,0.5-0.7c0,0,0-0.1,0-0.2
			C213.8,284,213.8,283.9,213.8,283.8z"/>
		<path class="st2" d="M216.5,280.3h0.5h0.5v1c0.1-0.2,0.2-0.3,0.3-0.4c0.4-0.5,0.8-0.7,1.3-0.7c0.1,0,0.2,0,0.3,0v1l-0.2,0
			c-0.5,0-0.9,0.2-1.2,0.5c-0.3,0.3-0.4,0.8-0.4,1.3v3.1H217h-0.5V280.3z"/>
		<path class="st2" d="M222.2,286c-0.3,0-0.6,0.1-0.7,0.1c-0.4,0-0.7-0.1-0.9-0.3c-0.2-0.2-0.3-0.5-0.3-1v-3.8h-0.8v-0.8h0.8v-1.6h1
			v1.6h0.9v0.8h-0.9v3.8c0,0.1,0.1,0.2,0.2,0.3c0.1,0.1,0.2,0.1,0.4,0.1h0.3V286z"/>
	</g>
	<path class="st1" d="M36.9,257V0.2 M362.4,257V0.2 M36.9,244.2h3.3 M36.9,221.1h3.3 M36.9,198h3.3 M36.9,174.9h3.3 M36.9,151.8h3.3
		 M36.9,128.6h3.3 M36.9,105.5h3.3 M36.9,82.4h3.3 M36.9,59.3h3.3 M36.9,36.2h3.3 M36.9,13.1h3.3 M362.4,244.2h-3.3 M362.4,221.1
		h-3.3 M362.4,198h-3.3 M362.4,174.9h-3.3 M362.4,151.8h-3.3 M362.4,128.6h-3.3 M362.4,105.5h-3.3 M362.4,82.4h-3.3 M362.4,59.3
		h-3.3 M362.4,36.2h-3.3 M362.4,13.1h-3.3"/>
	<g>
		<path class="st2" d="M24.3,244.9h2.5v0.9h-2.5V244.9z"/>
		<path class="st2" d="M29.8,243.1h-1.6v-0.7c0.5,0,0.9-0.1,1.2-0.3c0.3-0.2,0.5-0.6,0.7-1h0.7v7h-0.5h-0.5V243.1z"/>
	</g>
	<g>
		<path class="st2" d="M15.9,221.8h2.5v0.9h-2.5V221.8z"/>
		<path class="st2" d="M19.8,224.2c-0.4-0.6-0.6-1.5-0.6-2.7s0.2-2,0.6-2.7c0.4-0.6,1-0.9,1.8-0.9c0.8,0,1.4,0.3,1.8,0.9
			c0.4,0.6,0.6,1.5,0.6,2.7s-0.2,2-0.6,2.7s-1,0.9-1.8,0.9C20.8,225.2,20.2,224.9,19.8,224.2z M22.7,223.7c0.2-0.5,0.4-1.2,0.4-2.1
			c0-0.9-0.1-1.6-0.4-2.1c-0.2-0.5-0.6-0.7-1.1-0.7c-0.5,0-0.9,0.2-1.1,0.7c-0.2,0.5-0.4,1.2-0.4,2.1c0,0.9,0.1,1.6,0.4,2.1
			s0.6,0.7,1.1,0.7C22.1,224.4,22.4,224.2,22.7,223.7z"/>
		<path class="st2" d="M25.2,223.9h1v1.1h-1V223.9z"/>
		<path class="st2" d="M31.1,221.3c0.2,0.1,0.4,0.2,0.5,0.3c0.4,0.4,0.7,0.8,0.7,1.4c0,0.7-0.2,1.2-0.7,1.6s-1,0.6-1.7,0.6
			s-1.3-0.2-1.7-0.6s-0.7-0.9-0.7-1.6c0-0.6,0.2-1.1,0.7-1.4c0.2-0.1,0.3-0.2,0.5-0.3c-0.1-0.1-0.2-0.1-0.3-0.2
			c-0.4-0.3-0.6-0.7-0.6-1.2c0-0.6,0.2-1,0.6-1.4s0.9-0.5,1.6-0.5s1.2,0.2,1.6,0.5s0.6,0.8,0.6,1.4c0,0.5-0.2,0.9-0.6,1.2
			C31.4,221.1,31.2,221.2,31.1,221.3z M29.9,221.7c-0.4,0-0.8,0.1-1.1,0.4c-0.3,0.3-0.4,0.6-0.4,1c0,0.4,0.1,0.7,0.4,1
			s0.6,0.4,1.1,0.4s0.8-0.1,1.1-0.4s0.4-0.6,0.4-1c0-0.4-0.1-0.7-0.4-1C30.7,221.8,30.3,221.7,29.9,221.7z M29.9,220.9
			c0.4,0,0.7-0.1,0.9-0.3s0.3-0.5,0.3-0.8s-0.1-0.6-0.3-0.8s-0.5-0.3-0.9-0.3s-0.7,0.1-0.9,0.3s-0.3,0.5-0.3,0.8s0.1,0.6,0.3,0.8
			C29.2,220.8,29.5,220.9,29.9,220.9z"/>
	</g>
	<g>
		<path class="st2" d="M15.9,198.7h2.5v0.9h-2.5V198.7z"/>
		<path class="st2" d="M19.8,201.1c-0.4-0.6-0.6-1.5-0.6-2.7s0.2-2,0.6-2.7c0.4-0.6,1-0.9,1.8-0.9c0.8,0,1.4,0.3,1.8,0.9
			c0.4,0.6,0.6,1.5,0.6,2.7s-0.2,2-0.6,2.7s-1,0.9-1.8,0.9C20.8,202.1,20.2,201.8,19.8,201.1z M22.7,200.6c0.2-0.5,0.4-1.2,0.4-2.1
			c0-0.9-0.1-1.6-0.4-2.1c-0.2-0.5-0.6-0.7-1.1-0.7c-0.5,0-0.9,0.2-1.1,0.7c-0.2,0.5-0.4,1.2-0.4,2.1c0,0.9,0.1,1.6,0.4,2.1
			s0.6,0.7,1.1,0.7C22.1,201.3,22.4,201,22.7,200.6z"/>
		<path class="st2" d="M25.2,200.8h1v1.1h-1V200.8z"/>
		<path class="st2" d="M30.1,194.8c0.6,0,1.1,0.2,1.5,0.5c0.4,0.3,0.6,0.8,0.6,1.4h-0.9c0-0.3-0.2-0.6-0.4-0.8s-0.5-0.3-0.8-0.3
			c-0.5,0-1,0.3-1.3,0.8c-0.3,0.4-0.4,1.1-0.4,1.8c0.4-0.6,1-0.8,1.7-0.8c0.7,0,1.2,0.2,1.6,0.6c0.4,0.4,0.6,1,0.6,1.7
			s-0.2,1.3-0.7,1.7s-1,0.6-1.7,0.6c-0.8,0-1.4-0.3-1.8-0.9c-0.4-0.6-0.6-1.4-0.6-2.5c0-1.2,0.2-2.2,0.7-2.8
			C28.6,195.2,29.3,194.8,30.1,194.8z M28.5,199.7c0,0.5,0.1,0.8,0.4,1.1s0.6,0.4,1,0.4s0.8-0.1,1-0.4s0.4-0.7,0.4-1.1
			s-0.1-0.8-0.4-1.1s-0.6-0.4-1-0.4s-0.8,0.1-1,0.4C28.7,198.9,28.5,199.3,28.5,199.7z"/>
	</g>
	<g>
		<path class="st2" d="M15.9,175.6h2.5v0.9h-2.5V175.6z"/>
		<path class="st2" d="M19.8,178c-0.4-0.6-0.6-1.5-0.6-2.7s0.2-2,0.6-2.7c0.4-0.6,1-0.9,1.8-0.9c0.8,0,1.4,0.3,1.8,0.9
			c0.4,0.6,0.6,1.5,0.6,2.7s-0.2,2-0.6,2.7s-1,0.9-1.8,0.9C20.8,179,20.2,178.6,19.8,178z M22.7,177.5c0.2-0.5,0.4-1.2,0.4-2.1
			c0-0.9-0.1-1.6-0.4-2.1c-0.2-0.5-0.6-0.7-1.1-0.7c-0.5,0-0.9,0.2-1.1,0.7c-0.2,0.5-0.4,1.2-0.4,2.1c0,0.9,0.1,1.6,0.4,2.1
			s0.6,0.7,1.1,0.7C22.1,178.2,22.4,177.9,22.7,177.5z"/>
		<path class="st2" d="M25.2,177.7h1v1.1h-1V177.7z"/>
		<path class="st2" d="M27.4,177.1v-0.4v-0.4l3.3-4.5H31h0.4v4.6h1v0.8h-1v1.7h-0.9v-1.7H27.4z M30.5,176.3v-3.2l-2.2,3.1l0,0.1
			H30.5z"/>
	</g>
	<g>
		<path class="st2" d="M15.9,152.4h2.5v0.9h-2.5V152.4z"/>
		<path class="st2" d="M19.8,154.9c-0.4-0.6-0.6-1.5-0.6-2.7s0.2-2,0.6-2.7c0.4-0.6,1-0.9,1.8-0.9c0.8,0,1.4,0.3,1.8,0.9
			c0.4,0.6,0.6,1.5,0.6,2.7s-0.2,2-0.6,2.7s-1,0.9-1.8,0.9C20.8,155.8,20.2,155.5,19.8,154.9z M22.7,154.4c0.2-0.5,0.4-1.2,0.4-2.1
			c0-0.9-0.1-1.6-0.4-2.1c-0.2-0.5-0.6-0.7-1.1-0.7c-0.5,0-0.9,0.2-1.1,0.7c-0.2,0.5-0.4,1.2-0.4,2.1c0,0.9,0.1,1.6,0.4,2.1
			s0.6,0.7,1.1,0.7C22.1,155.1,22.4,154.8,22.7,154.4z"/>
		<path class="st2" d="M25.2,154.6h1v1.1h-1V154.6z"/>
		<path class="st2" d="M32.2,150.7c0,0.5-0.1,0.9-0.4,1.3c-0.3,0.3-0.8,0.7-1.5,1.1c-0.8,0.4-1.3,0.8-1.6,1.2
			c-0.1,0.2-0.2,0.3-0.3,0.5h3.8v0.9h-4.8v0c0-0.7,0.2-1.3,0.6-1.8c0.4-0.5,1.1-1,2.1-1.5c0.5-0.3,0.8-0.5,1-0.8
			c0.2-0.2,0.3-0.5,0.3-0.9c0-0.4-0.1-0.7-0.4-0.9c-0.3-0.2-0.6-0.4-1-0.4c-0.4,0-0.8,0.1-1,0.4s-0.4,0.7-0.4,1.3h-0.9
			c0-0.8,0.2-1.4,0.6-1.8c0.4-0.4,1-0.7,1.8-0.7c0.7,0,1.2,0.2,1.6,0.6C32,149.6,32.2,150.1,32.2,150.7z"/>
	</g>
	<g>
		<path class="st2" d="M27.9,131.8c-0.4-0.6-0.6-1.5-0.6-2.7c0-1.2,0.2-2,0.6-2.7c0.4-0.6,1-0.9,1.8-0.9c0.8,0,1.4,0.3,1.8,0.9
			c0.4,0.6,0.6,1.5,0.6,2.7c0,1.2-0.2,2-0.6,2.7s-1,0.9-1.8,0.9C28.9,132.7,28.3,132.4,27.9,131.8z M30.7,131.2
			c0.2-0.5,0.4-1.2,0.4-2.1c0-0.9-0.1-1.6-0.4-2.1c-0.2-0.5-0.6-0.7-1.1-0.7c-0.5,0-0.9,0.2-1.1,0.7c-0.2,0.5-0.4,1.2-0.4,2.1
			c0,0.9,0.1,1.6,0.4,2.1s0.6,0.7,1.1,0.7C30.1,132,30.5,131.7,30.7,131.2z"/>
	</g>
	<g>
		<path class="st2" d="M19.4,108.7c-0.4-0.6-0.6-1.5-0.6-2.7s0.2-2,0.6-2.7c0.4-0.6,1-0.9,1.8-0.9c0.8,0,1.4,0.3,1.8,0.9
			c0.4,0.6,0.6,1.5,0.6,2.7s-0.2,2-0.6,2.7s-1,0.9-1.8,0.9C20.5,109.6,19.9,109.3,19.4,108.7z M22.3,108.1c0.2-0.5,0.4-1.2,0.4-2.1
			c0-0.9-0.1-1.6-0.4-2.1c-0.2-0.5-0.6-0.7-1.1-0.7c-0.5,0-0.9,0.2-1.1,0.7c-0.2,0.5-0.4,1.2-0.4,2.1c0,0.9,0.1,1.6,0.4,2.1
			s0.6,0.7,1.1,0.7C21.7,108.8,22.1,108.6,22.3,108.1z"/>
		<path class="st2" d="M24.9,108.4h1v1.1h-1V108.4z"/>
	</g>
	<g>
		<path class="st2" d="M31,104.5c0,0.5-0.1,0.9-0.4,1.3s-0.8,0.7-1.5,1.1c-0.8,0.4-1.3,0.8-1.6,1.2c-0.1,0.2-0.2,0.3-0.3,0.5H31v0.9
			h-4.8v0c0-0.7,0.2-1.3,0.6-1.8s1.1-1,2.1-1.5c0.5-0.3,0.8-0.5,1-0.8c0.2-0.2,0.3-0.5,0.3-0.9c0-0.4-0.1-0.7-0.4-0.9
			s-0.6-0.4-1-0.4c-0.4,0-0.8,0.1-1,0.4c-0.2,0.3-0.4,0.7-0.4,1.3h-0.9c0-0.8,0.2-1.4,0.6-1.8c0.4-0.4,1-0.7,1.8-0.7
			c0.7,0,1.2,0.2,1.6,0.6C30.8,103.4,31,103.9,31,104.5z"/>
	</g>
	<g>
		<path class="st2" d="M19.4,85.6c-0.4-0.6-0.6-1.5-0.6-2.7s0.2-2,0.6-2.7c0.4-0.6,1-0.9,1.8-0.9c0.8,0,1.4,0.3,1.8,0.9
			c0.4,0.6,0.6,1.5,0.6,2.7s-0.2,2-0.6,2.7s-1,0.9-1.8,0.9C20.5,86.5,19.9,86.2,19.4,85.6z M22.3,85c0.2-0.5,0.4-1.2,0.4-2.1
			c0-0.9-0.1-1.6-0.4-2.1c-0.2-0.5-0.6-0.7-1.1-0.7c-0.5,0-0.9,0.2-1.1,0.7c-0.2,0.5-0.4,1.2-0.4,2.1c0,0.9,0.1,1.6,0.4,2.1
			s0.6,0.7,1.1,0.7C21.7,85.7,22.1,85.5,22.3,85z"/>
		<path class="st2" d="M24.9,85.3h1v1.1h-1V85.3z"/>
	</g>
	<g>
		<path class="st2" d="M26.2,84.6v-0.4v-0.4l3.3-4.5h0.4h0.4v4.6h1v0.8h-1v1.7h-0.9v-1.7H26.2z M29.3,83.9v-3.2l-2.2,3.1l0,0.1H29.3
			z"/>
	</g>
	<g>
		<path class="st2" d="M19.4,62.5c-0.4-0.6-0.6-1.5-0.6-2.7s0.2-2,0.6-2.7c0.4-0.6,1-0.9,1.8-0.9c0.8,0,1.4,0.3,1.8,0.9
			c0.4,0.6,0.6,1.5,0.6,2.7s-0.2,2-0.6,2.7s-1,0.9-1.8,0.9C20.5,63.4,19.9,63.1,19.4,62.5z M22.3,61.9c0.2-0.5,0.4-1.2,0.4-2.1
			c0-0.9-0.1-1.6-0.4-2.1c-0.2-0.5-0.6-0.7-1.1-0.7c-0.5,0-0.9,0.2-1.1,0.7c-0.2,0.5-0.4,1.2-0.4,2.1c0,0.9,0.1,1.6,0.4,2.1
			s0.6,0.7,1.1,0.7C21.7,62.6,22.1,62.4,22.3,61.9z"/>
		<path class="st2" d="M24.9,62.2h1v1.1h-1V62.2z"/>
	</g>
	<g>
		<path class="st2" d="M28.9,56.2c0.6,0,1.1,0.2,1.5,0.5c0.4,0.3,0.6,0.8,0.6,1.4h-0.9c0-0.3-0.2-0.6-0.4-0.8
			c-0.2-0.2-0.5-0.3-0.8-0.3c-0.5,0-1,0.3-1.3,0.8c-0.3,0.4-0.4,1.1-0.4,1.8c0.4-0.6,1-0.8,1.7-0.8c0.7,0,1.2,0.2,1.6,0.6
			s0.6,1,0.6,1.7s-0.2,1.3-0.7,1.7s-1,0.6-1.7,0.6c-0.8,0-1.4-0.3-1.8-0.9s-0.6-1.4-0.6-2.5c0-1.2,0.2-2.2,0.7-2.8
			C27.5,56.5,28.1,56.2,28.9,56.2z M27.4,61.1c0,0.5,0.1,0.8,0.4,1.1s0.6,0.4,1,0.4s0.8-0.1,1-0.4s0.4-0.7,0.4-1.1s-0.1-0.8-0.4-1.1
			s-0.6-0.4-1-0.4s-0.8,0.1-1,0.4C27.5,60.3,27.4,60.6,27.4,61.1z"/>
	</g>
	<g>
		<path class="st2" d="M19.4,39.4c-0.4-0.6-0.6-1.5-0.6-2.7s0.2-2,0.6-2.7c0.4-0.6,1-0.9,1.8-0.9c0.8,0,1.4,0.3,1.8,0.9
			c0.4,0.6,0.6,1.5,0.6,2.7s-0.2,2-0.6,2.7s-1,0.9-1.8,0.9C20.5,40.3,19.9,40,19.4,39.4z M22.3,38.8c0.2-0.5,0.4-1.2,0.4-2.1
			c0-0.9-0.1-1.6-0.4-2.1c-0.2-0.5-0.6-0.7-1.1-0.7c-0.5,0-0.9,0.2-1.1,0.7c-0.2,0.5-0.4,1.2-0.4,2.1c0,0.9,0.1,1.6,0.4,2.1
			s0.6,0.7,1.1,0.7C21.7,39.5,22.1,39.3,22.3,38.8z"/>
		<path class="st2" d="M24.9,39h1v1.1h-1V39z"/>
	</g>
	<g>
		<path class="st2" d="M29.9,36.4c0.2,0.1,0.4,0.2,0.5,0.3c0.4,0.4,0.7,0.8,0.7,1.4c0,0.7-0.2,1.2-0.7,1.6s-1,0.6-1.7,0.6
			s-1.3-0.2-1.7-0.6s-0.7-0.9-0.7-1.6c0-0.6,0.2-1.1,0.7-1.4c0.2-0.1,0.3-0.2,0.5-0.3c-0.1-0.1-0.2-0.1-0.3-0.2
			c-0.4-0.3-0.6-0.7-0.6-1.2c0-0.6,0.2-1,0.6-1.4s0.9-0.5,1.6-0.5s1.2,0.2,1.6,0.5s0.6,0.8,0.6,1.4c0,0.5-0.2,0.9-0.6,1.2
			C30.2,36.3,30.1,36.3,29.9,36.4z M28.7,36.8c-0.4,0-0.8,0.1-1.1,0.4s-0.4,0.6-0.4,1c0,0.4,0.1,0.7,0.4,1s0.6,0.4,1.1,0.4
			s0.8-0.1,1.1-0.4s0.4-0.6,0.4-1c0-0.4-0.1-0.7-0.4-1C29.5,36.9,29.2,36.8,28.7,36.8z M28.7,36c0.4,0,0.7-0.1,0.9-0.3
			s0.3-0.5,0.3-0.8s-0.1-0.6-0.3-0.8c-0.2-0.2-0.5-0.3-0.9-0.3s-0.7,0.1-0.9,0.3c-0.2,0.2-0.3,0.5-0.3,0.8s0.1,0.6,0.3,0.8
			C28.1,35.9,28.4,36,28.7,36z"/>
	</g>
	<g>
		<path class="st2" d="M29.5,12h-1.6v-0.7c0.5,0,0.9-0.1,1.2-0.3c0.3-0.2,0.5-0.6,0.7-1h0.7v7H30h-0.5V12z"/>
	</g>
	<g>
		<path class="st2" d="M1.6,163.7v-0.5v-0.5h7.9v0.5v0.5H1.6z"/>
		<path class="st2" d="M3.7,160.9v-0.5V160h0.9l-0.3-0.2c-0.5-0.4-0.8-1-0.8-1.6c0-0.5,0.2-0.9,0.5-1.2c0.1-0.1,0.3-0.2,0.5-0.3
			l-0.2-0.2c-0.5-0.4-0.7-0.9-0.7-1.5c0-0.6,0.2-1.1,0.5-1.4c0.3-0.3,0.8-0.5,1.4-0.5h4v0.5v0.5H5.7c-0.4,0-0.8,0.1-1,0.3
			c-0.2,0.2-0.3,0.4-0.3,0.8c0,0.4,0.2,0.8,0.5,1c0.3,0.2,0.8,0.4,1.3,0.4h3.2v0.5v0.5H5.5c-0.4,0-0.6,0.1-0.8,0.2
			c-0.2,0.2-0.3,0.4-0.3,0.7c0,0.4,0.2,0.8,0.5,1.1c0.4,0.3,0.8,0.4,1.4,0.4h3.1v0.5v0.5H3.7z"/>
		<path class="st2" d="M9.6,150.2c0,0.6-0.2,1-0.5,1.3S8.4,152,7.9,152c-0.5,0-0.9-0.2-1.2-0.5s-0.5-0.8-0.6-1.4L6,148.9
			c0-0.1,0-0.2-0.1-0.3c0-0.1-0.1-0.2-0.2-0.3c-0.1-0.1-0.2-0.1-0.4-0.1h0c-0.3,0-0.5,0.1-0.7,0.3c-0.2,0.2-0.3,0.6-0.3,1
			c0,0.4,0.1,0.7,0.3,0.9c0.2,0.2,0.5,0.4,0.8,0.4v0.9c-0.6,0-1.1-0.3-1.4-0.7s-0.5-1-0.5-1.7c0-0.7,0.2-1.2,0.5-1.6
			c0.3-0.4,0.7-0.5,1.3-0.5h3.2c0.1,0,0.2,0,0.2-0.1c0.1-0.1,0.1-0.1,0.1-0.2c0,0,0-0.1,0-0.1c0-0.1,0-0.1,0-0.2h0.7
			c0,0.1,0.1,0.2,0.1,0.3c0,0.1,0,0.2,0,0.3c0,0.4-0.1,0.6-0.3,0.8c-0.1,0.1-0.3,0.2-0.6,0.2c0.1,0.1,0.2,0.2,0.3,0.2
			C9.4,148.9,9.6,149.5,9.6,150.2z M7.2,148.2H6.5c0.1,0.2,0.1,0.4,0.2,0.6l0.1,0.9c0.1,0.5,0.2,0.8,0.3,1c0.2,0.2,0.4,0.3,0.6,0.3
			c0.3,0,0.6-0.1,0.7-0.3c0.2-0.2,0.3-0.4,0.3-0.7c0-0.5-0.1-0.9-0.4-1.3c-0.2-0.2-0.4-0.4-0.7-0.5c0,0-0.1,0-0.2,0
			C7.4,148.2,7.3,148.2,7.2,148.2z"/>
		<path class="st2" d="M11.1,143.5c0-0.6-0.2-1-0.5-1.3s-0.9-0.4-1.5-0.4H8.8l0,0c0.5,0.4,0.8,0.9,0.8,1.6c0,0.8-0.3,1.4-0.9,1.8
			c-0.6,0.5-1.4,0.7-2.3,0.7c-0.9,0-1.6-0.2-2.1-0.7c-0.5-0.4-0.8-1-0.8-1.8c0-0.7,0.3-1.2,0.9-1.6l0.1-0.1H3.7v-0.9H9
			c1,0,1.7,0.2,2.2,0.7s0.7,1.1,0.7,2c0,0.7-0.2,1.2-0.5,1.6c-0.3,0.4-0.7,0.6-1.3,0.7v-1c0.3-0.1,0.5-0.2,0.7-0.4
			S11.1,143.8,11.1,143.5z M4.4,143.3c0,0.5,0.2,0.9,0.5,1.2s0.9,0.4,1.6,0.4c0.7,0,1.2-0.1,1.6-0.4s0.6-0.7,0.6-1.2
			c0-0.5-0.2-0.8-0.5-1.1c-0.4-0.3-0.8-0.4-1.4-0.4c-0.8,0-1.4,0.1-1.8,0.4C4.6,142.4,4.4,142.8,4.4,143.3z"/>
		<path class="st2" d="M1.6,139.5v-1h1.1v1H1.6z M3.7,139.5V139v-0.5h5.7v0.5v0.5H3.7z"/>
		<path class="st2" d="M3.7,137v-0.5v-0.5h0.8l-0.3-0.2c-0.5-0.4-0.7-0.9-0.7-1.6c0-0.6,0.2-1.1,0.5-1.5s0.8-0.5,1.5-0.5h3.9v0.5
			v0.5H5.8c-0.5,0-0.9,0.1-1.1,0.3c-0.2,0.2-0.3,0.5-0.3,0.9c0,0.5,0.2,0.8,0.5,1.1c0.4,0.3,0.8,0.4,1.4,0.4h3.1v0.5v0.5H3.7z"/>
		<path class="st2" d="M9.6,129.4c0,0.6-0.2,1-0.5,1.3s-0.7,0.5-1.2,0.5c-0.5,0-0.9-0.2-1.2-0.5c-0.3-0.3-0.5-0.8-0.6-1.4L6,128.1
			c0-0.1,0-0.2-0.1-0.3c0-0.1-0.1-0.2-0.2-0.3c-0.1-0.1-0.2-0.1-0.4-0.1h0c-0.3,0-0.5,0.1-0.7,0.3c-0.2,0.2-0.3,0.6-0.3,1
			c0,0.4,0.1,0.7,0.3,0.9c0.2,0.2,0.5,0.4,0.8,0.4v0.9c-0.6,0-1.1-0.3-1.4-0.7s-0.5-1-0.5-1.7c0-0.7,0.2-1.2,0.5-1.6
			c0.3-0.4,0.7-0.5,1.3-0.5h3.2c0.1,0,0.2,0,0.2-0.1s0.1-0.1,0.1-0.2c0,0,0-0.1,0-0.1c0-0.1,0-0.1,0-0.2h0.7c0,0.1,0.1,0.2,0.1,0.3
			c0,0.1,0,0.2,0,0.3c0,0.4-0.1,0.6-0.3,0.8c-0.1,0.1-0.3,0.2-0.6,0.2c0.1,0.1,0.2,0.2,0.3,0.2C9.4,128.1,9.6,128.7,9.6,129.4z
			 M7.2,127.4H6.5c0.1,0.2,0.1,0.4,0.2,0.6l0.1,0.9c0.1,0.5,0.2,0.8,0.3,1c0.2,0.2,0.4,0.3,0.6,0.3c0.3,0,0.6-0.1,0.7-0.3
			c0.2-0.2,0.3-0.4,0.3-0.7c0-0.5-0.1-0.9-0.4-1.3c-0.2-0.2-0.4-0.4-0.7-0.5c0,0-0.1,0-0.2,0C7.4,127.4,7.3,127.4,7.2,127.4z"/>
		<path class="st2" d="M3.7,124.7v-0.5v-0.5h1c-0.2-0.1-0.3-0.2-0.4-0.3c-0.5-0.4-0.7-0.8-0.7-1.3c0-0.1,0-0.2,0-0.3h1l0,0.2
			c0,0.5,0.2,0.9,0.5,1.2c0.3,0.3,0.8,0.4,1.3,0.4h3.1v0.5v0.5H3.7z"/>
		<path class="st2" d="M9.6,118.7c0.9,0.3,1.5,0.6,1.7,0.9s0.4,0.7,0.4,1.2c0,0.2,0,0.3-0.1,0.5h-0.9c0.1-0.1,0.1-0.3,0.1-0.6
			c0-0.2-0.1-0.4-0.3-0.5c-0.2-0.1-0.5-0.3-1-0.5l-0.1,0h0l-5.8,2.1v-0.5v-0.6l4.8-1.5l-4.8-1.6V117v-0.5L9.6,118.7z"/>
		<path class="st2" d="M1.6,112.4v-0.5v-2.9c0-0.8,0.2-1.4,0.6-1.8c0.4-0.4,0.9-0.6,1.6-0.6c0.7,0,1.3,0.2,1.8,0.6
			c0.4,0.4,0.6,1,0.6,1.8c0,1,0,1.8,0,2.4h3.3v0.5v0.5H1.6z M5.2,111.3v-2.1c0-0.6-0.1-1-0.4-1.2c-0.2-0.3-0.6-0.4-1.1-0.4
			c-0.4,0-0.8,0.1-1,0.4s-0.3,0.7-0.3,1.2v2.1H5.2z"/>
		<path class="st2" d="M9.6,103.7c0,0.6-0.2,1-0.5,1.3s-0.7,0.5-1.2,0.5c-0.5,0-0.9-0.2-1.2-0.5c-0.3-0.3-0.5-0.8-0.6-1.4L6,102.4
			c0-0.1,0-0.2-0.1-0.3c0-0.1-0.1-0.2-0.2-0.3c-0.1-0.1-0.2-0.1-0.4-0.1h0c-0.3,0-0.5,0.1-0.7,0.3c-0.2,0.2-0.3,0.6-0.3,1
			c0,0.4,0.1,0.7,0.3,0.9c0.2,0.2,0.5,0.4,0.8,0.4v0.9c-0.6,0-1.1-0.3-1.4-0.7s-0.5-1-0.5-1.7c0-0.7,0.2-1.2,0.5-1.6
			c0.3-0.4,0.7-0.5,1.3-0.5h3.2c0.1,0,0.2,0,0.2-0.1s0.1-0.1,0.1-0.2c0,0,0-0.1,0-0.1c0-0.1,0-0.1,0-0.2h0.7c0,0.1,0.1,0.2,0.1,0.3
			c0,0.1,0,0.2,0,0.3c0,0.4-0.1,0.6-0.3,0.8c-0.1,0.1-0.3,0.2-0.6,0.2c0.1,0.1,0.2,0.2,0.3,0.2C9.4,102.4,9.6,103,9.6,103.7z
			 M7.2,101.7H6.5c0.1,0.2,0.1,0.4,0.2,0.6l0.1,0.9c0.1,0.5,0.2,0.8,0.3,1c0.2,0.2,0.4,0.3,0.6,0.3c0.3,0,0.6-0.1,0.7-0.3
			c0.2-0.2,0.3-0.4,0.3-0.7c0-0.5-0.1-0.9-0.4-1.3c-0.2-0.2-0.4-0.4-0.7-0.5c0,0-0.1,0-0.2,0C7.4,101.7,7.3,101.7,7.2,101.7z"/>
		<path class="st2" d="M3.7,99v-0.5v-0.5h1c-0.2-0.1-0.3-0.2-0.4-0.3c-0.5-0.4-0.7-0.8-0.7-1.3c0-0.1,0-0.2,0-0.3h1l0,0.2
			c0,0.5,0.2,0.9,0.5,1.2C5.3,97.9,5.8,98,6.4,98h3.1v0.5V99H3.7z"/>
		<path class="st2" d="M9.4,93.4c0.1,0.3,0.1,0.6,0.1,0.7c0,0.4-0.1,0.7-0.3,0.9c-0.2,0.2-0.5,0.3-1,0.3H4.5V96H3.7v-0.8H2.1v-1h1.6
			v-0.9h0.8v0.9h3.8c0.1,0,0.2-0.1,0.3-0.2s0.1-0.2,0.1-0.4v-0.3H9.4z"/>
	</g>
	<path class="st3" d="M77.1,123.7c2.8,0,5,2.2,5,5l0,0c0,2.8-2.2,5-5,5s-5-2.2-5-5C72.1,125.9,74.3,123.7,77.1,123.7L77.1,123.7z
		 M77.1,119.6c-5,0-9,4-9,9c0,5,4,9,9,9c5,0,9-4,9-9l0,0C86.1,123.7,82.1,119.6,77.1,119.6L77.1,119.6z"/>
	<path class="st3" d="M322.2,6.9c2.8,0,5,2.2,5,5l0,0c0,2.8-2.2,5-5,5s-5-2.2-5-5S319.4,6.9,322.2,6.9L322.2,6.9z M322.2,2.9
		c-5,0-9,4-9,9s4,9,9,9c5,0,9-4,9-9l0,0C331.2,7,327.2,2.9,322.2,2.9L322.2,2.9z"/>
	<path class="st3" d="M322.2,240.4c2.8,0,5,2.2,5,5l0,0c0,2.8-2.2,5-5,5s-5-2.2-5-5S319.4,240.4,322.2,240.4L322.2,240.4z
		 M322.2,236.4c-5,0-9,4-9,9s4,9,9,9c5,0,9-4,9-9l0,0C331.2,240.4,327.2,236.4,322.2,236.4L322.2,236.4z"/>
	<path class="st4" d="M198.4,121.6l14.1,14.1 M198.4,135.7l14.1-14.1 M198.4,121.6l14.1,14.1 M198.4,135.7l14.1-14.1 M198.4,121.6
		l14.1,14.1 M198.4,135.7l14.1-14.1"/>
	<path class="st5" d="M321,128.6l-0.2-7.3l-0.7-7.3l-1.2-7.2l-1.6-7.2l-2.1-7l-2.5-6.9l-2.9-6.7l-3.4-6.5l-3.8-6.3l-4.2-6l-4.5-5.8
		l-4.9-5.5l-5.2-5.1l-5.5-4.8l-5.8-4.4l-6.1-4.1l-6.3-3.7l-6.6-3.3l-6.8-2.8l-6.9-2.4l-7.1-2l-7.2-1.5l-7.3-1l-7.3-0.6l-7.3-0.1
		l-7.3,0.3l-7.3,0.8l-7.2,1.3l-7.1,1.7l-7,2.2l-6.8,2.6l-6.7,3l-6.5,3.5l-6.2,3.9l-6,4.3l-5.7,4.6l-5.4,5l-5.1,5.3l-4.7,5.6
		l-4.3,5.9l-4,6.2l-3.6,6.4l-3.2,6.6l-2.7,6.8l-2.3,7l-1.8,7.1l-1.4,7.2l-0.9,7.3L90,125v7.3l0.5,7.3l0.9,7.3l1.4,7.2l1.8,7.1l2.3,7
		l2.7,6.8l3.2,6.6l3.6,6.4l4,6.2l4.3,5.9l4.7,5.6l5.1,5.3l5.4,5l5.7,4.6l6,4.3l6.2,3.9l6.5,3.5l6.7,3l6.8,2.6l7,2.2l7.1,1.7l7.2,1.3
		l7.3,0.8l7.3,0.3l7.3-0.1l7.3-0.6l7.3-1l7.2-1.5l7.1-2l6.9-2.4l6.8-2.8l6.6-3.3l6.3-3.7l6.1-4.1l5.8-4.4l5.5-4.8l5.2-5.1l4.9-5.5
		l4.5-5.8l4.2-6l3.8-6.3l3.4-6.5l2.9-6.7l2.5-6.9l2.1-7l1.6-7.2l1.2-7.2l0.7-7.3L321,128.6 M36.8,128.6h325.7 M205.5,257.1V0.2"/>
	<g>
		<path class="st6" d="M218.6,117.1c0-0.3-0.1-0.6-0.4-0.8c-0.3-0.2-0.6-0.3-1-0.3c-0.4,0-0.7,0.1-1,0.4c-0.2,0.3-0.3,0.6-0.4,1.1
			h-0.9c0-0.7,0.2-1.3,0.6-1.7c0.4-0.4,0.9-0.6,1.6-0.6c0.7,0,1.2,0.2,1.6,0.5c0.4,0.3,0.6,0.8,0.6,1.3c0,0.5-0.2,1-0.6,1.3
			c-0.1,0.1-0.2,0.1-0.3,0.2c0.2,0.1,0.3,0.2,0.4,0.3c0.4,0.3,0.7,0.8,0.7,1.4c0,0.7-0.2,1.2-0.7,1.6s-1,0.6-1.8,0.6
			c-0.8,0-1.4-0.2-1.8-0.6s-0.6-1-0.7-1.7h0.9c0.1,0.5,0.2,0.9,0.4,1.2c0.2,0.2,0.6,0.4,1.1,0.4c0.4,0,0.8-0.1,1.1-0.4
			c0.3-0.2,0.4-0.6,0.4-1c0-0.4-0.1-0.7-0.4-1c-0.2-0.2-0.5-0.3-0.9-0.4c-0.2,0-0.3,0-0.5,0c-0.1,0-0.2,0-0.3,0v-0.8
			c0.1,0,0.2,0,0.3,0s0.3,0,0.4,0c0.3,0,0.5-0.1,0.7-0.3C218.5,117.8,218.6,117.5,218.6,117.1z"/>
	</g>
</g>
</svg>
