<?xml version="1.0" encoding="utf-8"?>
<!-- Generator: Adobe Illustrator 22.1.0, SVG Export Plug-In . SVG Version: 6.00 Build 0)  -->
<svg version="1.1" id="Layer_1" xmlns="http://www.w3.org/2000/svg" xmlns:xlink="http://www.w3.org/1999/xlink" x="0px" y="0px"
	 viewBox="0 0 362.7 303.2" style="enable-background:new 0 0 362.7 303.2;" xml:space="preserve">
<style type="text/css">
	.st0{fill:none;stroke:#262626;stroke-width:0.4998;stroke-linecap:square;stroke-linejoin:round;stroke-miterlimit:10;}
	.st1{fill:#4A4A49;}
	.st2{fill:#1D1D1B;}
	.st3{fill:#0072BD;}
	.st4{fill:none;stroke:#FF0000;stroke-width:4.0002;stroke-miterlimit:10;}
	.st5{fill:none;stroke:#0072BD;stroke-width:1.9998;stroke-linejoin:round;stroke-miterlimit:10;}
</style>
<g>
	<path class="st0" d="M36.9,270.9h325.6 M36.9,14.1h325.6 M82.9,270.9v-3.3 M141.3,270.9v-3.3 M199.6,270.9v-3.3 M258,270.9v-3.3
		 M316.4,270.9v-3.3 M82.9,14.1v3.3 M141.3,14.1v3.3 M199.6,14.1v3.3 M258,14.1v3.3 M316.4,14.1v3.3"/>
	<g>
		<path class="st1" d="M78.9,281.9h2.5v0.9h-2.5V281.9z"/>
		<path class="st1" d="M84.4,280.1h-1.6v-0.7c0.5,0,0.9-0.1,1.2-0.3c0.3-0.2,0.5-0.6,0.7-1h0.7v7h-0.5h-0.5V280.1z"/>
	</g>
	<g>
		<path class="st1" d="M133,281.9h2.5v0.9H133V281.9z"/>
		<path class="st1" d="M136.9,284.4c-0.4-0.6-0.6-1.5-0.6-2.7s0.2-2,0.6-2.7c0.4-0.6,1-0.9,1.8-0.9c0.8,0,1.4,0.3,1.8,0.9
			c0.4,0.6,0.6,1.5,0.6,2.7s-0.2,2-0.6,2.7s-1,0.9-1.8,0.9C137.9,285.3,137.3,285,136.9,284.4z M139.8,283.8
			c0.2-0.5,0.4-1.2,0.4-2.1c0-0.9-0.1-1.6-0.4-2.1c-0.2-0.5-0.6-0.7-1.1-0.7c-0.5,0-0.9,0.2-1.1,0.7c-0.2,0.5-0.4,1.2-0.4,2.1
			c0,0.9,0.1,1.6,0.4,2.1s0.6,0.7,1.1,0.7C139.2,284.5,139.6,284.3,139.8,283.8z"/>
		<path class="st1" d="M142.4,284h1v1.1h-1V284z"/>
		<path class="st1" d="M149.4,282.8c0,0.7-0.2,1.3-0.7,1.8c-0.5,0.5-1,0.7-1.7,0.7c-0.7,0-1.3-0.2-1.7-0.5s-0.7-0.8-0.7-1.5h0.9
			c0,0.4,0.2,0.7,0.5,0.9c0.3,0.2,0.6,0.3,1.1,0.3c0.4,0,0.8-0.1,1-0.4s0.4-0.7,0.4-1.1c0-0.5-0.1-0.9-0.4-1.2s-0.7-0.4-1.1-0.4
			c-0.3,0-0.5,0.1-0.7,0.2s-0.4,0.3-0.5,0.5l-0.7,0l0.5-3.8h3.6v0.9h-3l-0.3,1.9l0,0c0.4-0.3,0.8-0.4,1.2-0.4c0.7,0,1.3,0.2,1.8,0.6
			C149.2,281.6,149.4,282.2,149.4,282.8z"/>
	</g>
	<g>
		<path class="st1" d="M197.7,284.4c-0.4-0.6-0.6-1.5-0.6-2.7s0.2-2,0.6-2.7c0.4-0.6,1-0.9,1.8-0.9c0.8,0,1.4,0.3,1.8,0.9
			c0.4,0.6,0.6,1.5,0.6,2.7s-0.2,2-0.6,2.7s-1,0.9-1.8,0.9C198.7,285.3,198.1,285,197.7,284.4z M200.5,283.8
			c0.2-0.5,0.4-1.2,0.4-2.1c0-0.9-0.1-1.6-0.4-2.1c-0.2-0.5-0.6-0.7-1.1-0.7c-0.5,0-0.9,0.2-1.1,0.7c-0.2,0.5-0.4,1.2-0.4,2.1
			c0,0.9,0.1,1.6,0.4,2.1s0.6,0.7,1.1,0.7C199.9,284.5,200.3,284.3,200.5,283.8z"/>
		<path class="st1" d="M252.4,284.4c-0.4-0.6-0.6-1.5-0.6-2.7s0.2-2,0.6-2.7c0.4-0.6,1-0.9,1.8-0.9c0.8,0,1.4,0.3,1.8,0.9
			c0.4,0.6,0.6,1.5,0.6,2.7s-0.2,2-0.6,2.7s-1,0.9-1.8,0.9C253.4,285.3,252.8,285,252.4,284.4z M255.3,283.8
			c0.2-0.5,0.4-1.2,0.4-2.1c0-0.9-0.1-1.6-0.4-2.1c-0.2-0.5-0.6-0.7-1.1-0.7c-0.5,0-0.9,0.2-1.1,0.7c-0.2,0.5-0.4,1.2-0.4,2.1
			c0,0.9,0.1,1.6,0.4,2.1s0.6,0.7,1.1,0.7C254.6,284.5,255,284.3,255.3,283.8z"/>
	</g>
	<g>
		<path class="st1" d="M256.7,284h1v1.1h-1V284z"/>
		<path class="st1" d="M263.7,282.8c0,0.7-0.2,1.3-0.7,1.8c-0.5,0.5-1,0.7-1.7,0.7c-0.7,0-1.3-0.2-1.7-0.5s-0.7-0.8-0.7-1.5h0.9
			c0,0.4,0.2,0.7,0.5,0.9c0.3,0.2,0.6,0.3,1.1,0.3c0.4,0,0.8-0.1,1-0.4c0.3-0.3,0.4-0.7,0.4-1.1c0-0.5-0.1-0.9-0.4-1.2
			s-0.7-0.4-1.1-0.4c-0.3,0-0.5,0.1-0.7,0.2c-0.2,0.1-0.4,0.3-0.5,0.5l-0.7,0l0.5-3.8h3.6v0.9h-3l-0.3,1.9l0,0
			c0.4-0.3,0.8-0.4,1.2-0.4c0.7,0,1.3,0.2,1.8,0.6C263.5,281.6,263.7,282.2,263.7,282.8z"/>
	</g>
	<g>
		<path class="st1" d="M316,280.1h-1.6v-0.7c0.5,0,0.9-0.1,1.2-0.3c0.3-0.2,0.5-0.6,0.7-1h0.7v7h-0.5H316V280.1z"/>
	</g>
	<g>
		<path class="st1" d="M177.5,292h0.5h3.1c0.8,0,1.5,0.2,1.9,0.5c0.4,0.4,0.7,0.9,0.7,1.6c0,0.7-0.2,1.2-0.7,1.6
			c-0.1,0.1-0.2,0.2-0.4,0.3l0.2,0.1c0.5,0.3,0.7,0.7,0.7,1.4l0,1.4c0,0.2,0,0.4,0.1,0.5c0.1,0.1,0.2,0.2,0.3,0.3v0.2h-1.3
			c0-0.1-0.1-0.2-0.1-0.5c0-0.3-0.1-0.6-0.1-0.9l0-0.6c0-0.5-0.1-0.8-0.4-1c-0.2-0.2-0.6-0.3-1.1-0.3h-2.5v3.4h-0.5h-0.5V292z
			 M178.6,295.6h2.6c0.5,0,0.9-0.1,1.1-0.3c0.2-0.2,0.3-0.6,0.3-1c0-0.5-0.1-0.8-0.4-1c-0.2-0.2-0.6-0.3-1.1-0.3h-2.6V295.6z"/>
		<path class="st1" d="M187.6,300.1c-0.8,0-1.5-0.3-1.9-0.8s-0.7-1.2-0.7-2.1c0-1,0.2-1.7,0.7-2.3c0.5-0.6,1.2-0.9,2-0.9
			c0.8,0,1.4,0.3,1.8,0.8s0.7,1.3,0.7,2.2l0,0.3H186c0,0.6,0.2,1,0.4,1.3c0.3,0.4,0.7,0.5,1.3,0.5c0.4,0,0.7-0.1,1-0.3
			c0.3-0.2,0.4-0.5,0.5-0.8h1c-0.1,0.6-0.4,1.1-0.9,1.4S188.2,300.1,187.6,300.1z M189.2,296.6c0-0.5-0.2-0.9-0.4-1.2
			c-0.3-0.3-0.6-0.5-1.1-0.5c-0.5,0-0.9,0.2-1.2,0.6c-0.2,0.3-0.4,0.7-0.4,1.2H189.2z"/>
		<path class="st1" d="M192.8,300.1c-0.6,0-1-0.2-1.3-0.5c-0.3-0.3-0.5-0.7-0.5-1.2c0-0.5,0.2-0.9,0.5-1.2c0.3-0.3,0.8-0.5,1.4-0.6
			l1.3-0.2c0.1,0,0.2,0,0.3-0.1c0.1,0,0.2-0.1,0.3-0.2c0.1-0.1,0.1-0.2,0.1-0.4v0c0-0.3-0.1-0.5-0.3-0.7c-0.2-0.2-0.6-0.3-1-0.3
			c-0.4,0-0.7,0.1-0.9,0.3c-0.2,0.2-0.4,0.5-0.4,0.8h-0.9c0-0.6,0.3-1.1,0.7-1.4c0.4-0.3,1-0.5,1.7-0.5c0.7,0,1.2,0.2,1.6,0.5
			s0.5,0.7,0.5,1.3v3.2c0,0.1,0,0.2,0.1,0.2c0.1,0.1,0.1,0.1,0.2,0.1c0,0,0.1,0,0.1,0c0.1,0,0.1,0,0.2,0v0.7c-0.1,0-0.2,0.1-0.3,0.1
			c-0.1,0-0.2,0-0.3,0c-0.4,0-0.6-0.1-0.8-0.3c-0.1-0.1-0.2-0.3-0.2-0.6c-0.1,0.1-0.2,0.2-0.2,0.3
			C194.1,299.8,193.5,300.1,192.8,300.1z M194.8,297.6V297c-0.2,0.1-0.4,0.1-0.6,0.2l-0.9,0.1c-0.5,0.1-0.8,0.2-1,0.3
			s-0.3,0.4-0.3,0.6c0,0.3,0.1,0.6,0.3,0.7s0.4,0.3,0.7,0.3c0.5,0,0.9-0.1,1.3-0.4c0.2-0.2,0.4-0.4,0.5-0.7c0,0,0-0.1,0-0.2
			C194.8,297.9,194.8,297.8,194.8,297.6z"/>
		<path class="st1" d="M197.5,292h0.5h0.5v7.9h-0.5h-0.5V292z"/>
		<path class="st1" d="M203.2,292h0.5h2.9c0.8,0,1.4,0.2,1.8,0.6c0.4,0.4,0.6,0.9,0.6,1.6c0,0.7-0.2,1.3-0.6,1.8s-1,0.6-1.8,0.6
			c-1,0-1.8,0-2.4,0v3.3h-0.5h-0.5V292z M204.2,295.7h2.1c0.6,0,1-0.1,1.2-0.4s0.4-0.6,0.4-1.1c0-0.4-0.1-0.8-0.4-1
			c-0.3-0.2-0.7-0.3-1.2-0.3h-2.1V295.7z"/>
		<path class="st1" d="M211.8,300.1c-0.6,0-1-0.2-1.3-0.5c-0.3-0.3-0.5-0.7-0.5-1.2c0-0.5,0.2-0.9,0.5-1.2c0.3-0.3,0.8-0.5,1.4-0.6
			l1.3-0.2c0.1,0,0.2,0,0.3-0.1c0.1,0,0.2-0.1,0.3-0.2c0.1-0.1,0.1-0.2,0.1-0.4v0c0-0.3-0.1-0.5-0.3-0.7c-0.2-0.2-0.6-0.3-1-0.3
			c-0.4,0-0.7,0.1-0.9,0.3c-0.2,0.2-0.4,0.5-0.4,0.8h-0.9c0-0.6,0.3-1.1,0.7-1.4c0.4-0.3,1-0.5,1.7-0.5c0.7,0,1.2,0.2,1.6,0.5
			s0.5,0.7,0.5,1.3v3.2c0,0.1,0,0.2,0.1,0.2c0.1,0.1,0.1,0.1,0.2,0.1c0,0,0.1,0,0.1,0c0.1,0,0.1,0,0.2,0v0.7c-0.1,0-0.2,0.1-0.3,0.1
			c-0.1,0-0.2,0-0.3,0c-0.4,0-0.6-0.1-0.8-0.3c-0.1-0.1-0.2-0.3-0.2-0.6c-0.1,0.1-0.2,0.2-0.2,0.3
			C213.1,299.8,212.5,300.1,211.8,300.1z M213.8,297.6V297c-0.2,0.1-0.4,0.1-0.6,0.2l-0.9,0.1c-0.5,0.1-0.8,0.2-1,0.3
			s-0.3,0.4-0.3,0.6c0,0.3,0.1,0.6,0.3,0.7c0.2,0.2,0.4,0.3,0.7,0.3c0.5,0,0.9-0.1,1.3-0.4c0.2-0.2,0.4-0.4,0.5-0.7c0,0,0-0.1,0-0.2
			C213.8,297.9,213.8,297.8,213.8,297.6z"/>
		<path class="st1" d="M216.5,294.2h0.5h0.5v1c0.1-0.2,0.2-0.3,0.3-0.4c0.4-0.5,0.8-0.7,1.3-0.7c0.1,0,0.2,0,0.3,0v1l-0.2,0
			c-0.5,0-0.9,0.2-1.2,0.5c-0.3,0.3-0.4,0.8-0.4,1.3v3.1H217h-0.5V294.2z"/>
		<path class="st1" d="M222.2,299.9c-0.3,0-0.6,0.1-0.7,0.1c-0.4,0-0.7-0.1-0.9-0.3c-0.2-0.2-0.3-0.5-0.3-1v-3.8h-0.8v-0.8h0.8v-1.6
			h1v1.6h0.9v0.8h-0.9v3.8c0,0.1,0.1,0.2,0.2,0.3c0.1,0.1,0.2,0.1,0.4,0.1h0.3V299.9z"/>
	</g>
	<path class="st0" d="M36.9,270.9V14.1 M362.4,270.9V14.1 M36.9,259.2h3.3 M36.9,235.9h3.3 M36.9,212.5h3.3 M36.9,189.2h3.3
		 M36.9,165.9h3.3 M36.9,142.5h3.3 M36.9,119.2h3.3 M36.9,95.8h3.3 M36.9,72.5h3.3 M36.9,49.1h3.3 M36.9,25.8h3.3 M362.4,259.2h-3.3
		 M362.4,235.9h-3.3 M362.4,212.5h-3.3 M362.4,189.2h-3.3 M362.4,165.9h-3.3 M362.4,142.5h-3.3 M362.4,119.2h-3.3 M362.4,95.8h-3.3
		 M362.4,72.5h-3.3 M362.4,49.1h-3.3 M362.4,25.8h-3.3"/>
	<g>
		<path class="st1" d="M24.3,259.9h2.5v0.9h-2.5V259.9z"/>
		<path class="st1" d="M29.8,258.1h-1.6v-0.7c0.5,0,0.9-0.1,1.2-0.3c0.3-0.2,0.5-0.6,0.7-1h0.7v7h-0.5h-0.5V258.1z"/>
	</g>
	<g>
		<path class="st1" d="M15.9,236.6h2.5v0.9h-2.5V236.6z"/>
		<path class="st1" d="M19.8,239c-0.4-0.6-0.6-1.5-0.6-2.7s0.2-2,0.6-2.7c0.4-0.6,1-0.9,1.8-0.9c0.8,0,1.4,0.3,1.8,0.9
			c0.4,0.6,0.6,1.5,0.6,2.7s-0.2,2-0.6,2.7s-1,0.9-1.8,0.9C20.8,240,20.2,239.7,19.8,239z M22.7,238.5c0.2-0.5,0.4-1.2,0.4-2.1
			c0-0.9-0.1-1.6-0.4-2.1c-0.2-0.5-0.6-0.7-1.1-0.7c-0.5,0-0.9,0.2-1.1,0.7c-0.2,0.5-0.4,1.2-0.4,2.1c0,0.9,0.1,1.6,0.4,2.1
			s0.6,0.7,1.1,0.7C22.1,239.2,22.4,239,22.7,238.5z"/>
		<path class="st1" d="M25.2,238.7h1v1.1h-1V238.7z"/>
		<path class="st1" d="M31.1,236.1c0.2,0.1,0.4,0.2,0.5,0.3c0.4,0.4,0.7,0.8,0.7,1.4c0,0.7-0.2,1.2-0.7,1.6s-1,0.6-1.7,0.6
			s-1.3-0.2-1.7-0.6s-0.7-0.9-0.7-1.6c0-0.6,0.2-1.1,0.7-1.4c0.2-0.1,0.3-0.2,0.5-0.3c-0.1-0.1-0.2-0.1-0.3-0.2
			c-0.4-0.3-0.6-0.7-0.6-1.2c0-0.6,0.2-1,0.6-1.4s0.9-0.5,1.6-0.5s1.2,0.2,1.6,0.5s0.6,0.8,0.6,1.4c0,0.5-0.2,0.9-0.6,1.2
			C31.4,235.9,31.2,236,31.1,236.1z M29.9,236.5c-0.4,0-0.8,0.1-1.1,0.4c-0.3,0.3-0.4,0.6-0.4,1c0,0.4,0.1,0.7,0.4,1
			s0.6,0.4,1.1,0.4s0.8-0.1,1.1-0.4s0.4-0.6,0.4-1c0-0.4-0.1-0.7-0.4-1C30.7,236.6,30.3,236.5,29.9,236.5z M29.9,235.7
			c0.4,0,0.7-0.1,0.9-0.3s0.3-0.5,0.3-0.8s-0.1-0.6-0.3-0.8s-0.5-0.3-0.9-0.3s-0.7,0.1-0.9,0.3s-0.3,0.5-0.3,0.8s0.1,0.6,0.3,0.8
			C29.2,235.6,29.5,235.7,29.9,235.7z"/>
	</g>
	<g>
		<path class="st1" d="M15.9,213.2h2.5v0.9h-2.5V213.2z"/>
		<path class="st1" d="M19.8,215.7c-0.4-0.6-0.6-1.5-0.6-2.7s0.2-2,0.6-2.7c0.4-0.6,1-0.9,1.8-0.9c0.8,0,1.4,0.3,1.8,0.9
			c0.4,0.6,0.6,1.5,0.6,2.7s-0.2,2-0.6,2.7s-1,0.9-1.8,0.9C20.8,216.6,20.2,216.3,19.8,215.7z M22.7,215.1c0.2-0.5,0.4-1.2,0.4-2.1
			c0-0.9-0.1-1.6-0.4-2.1c-0.2-0.5-0.6-0.7-1.1-0.7c-0.5,0-0.9,0.2-1.1,0.7c-0.2,0.5-0.4,1.2-0.4,2.1c0,0.9,0.1,1.6,0.4,2.1
			s0.6,0.7,1.1,0.7C22.1,215.8,22.4,215.6,22.7,215.1z"/>
		<path class="st1" d="M25.2,215.4h1v1.1h-1V215.4z"/>
		<path class="st1" d="M30.1,209.4c0.6,0,1.1,0.2,1.5,0.5c0.4,0.3,0.6,0.8,0.6,1.4h-0.9c0-0.3-0.2-0.6-0.4-0.8s-0.5-0.3-0.8-0.3
			c-0.5,0-1,0.3-1.3,0.8c-0.3,0.4-0.4,1.1-0.4,1.8c0.4-0.6,1-0.8,1.7-0.8c0.7,0,1.2,0.2,1.6,0.6c0.4,0.4,0.6,1,0.6,1.7
			s-0.2,1.3-0.7,1.7s-1,0.6-1.7,0.6c-0.8,0-1.4-0.3-1.8-0.9c-0.4-0.6-0.6-1.4-0.6-2.5c0-1.2,0.2-2.2,0.7-2.8
			C28.6,209.7,29.3,209.4,30.1,209.4z M28.5,214.3c0,0.5,0.1,0.8,0.4,1.1s0.6,0.4,1,0.4s0.8-0.1,1-0.4s0.4-0.7,0.4-1.1
			s-0.1-0.8-0.4-1.1s-0.6-0.4-1-0.4s-0.8,0.1-1,0.4C28.7,213.5,28.5,213.8,28.5,214.3z"/>
	</g>
	<g>
		<path class="st1" d="M15.9,189.9h2.5v0.9h-2.5V189.9z"/>
		<path class="st1" d="M19.8,192.4c-0.4-0.6-0.6-1.5-0.6-2.7s0.2-2,0.6-2.7c0.4-0.6,1-0.9,1.8-0.9c0.8,0,1.4,0.3,1.8,0.9
			c0.4,0.6,0.6,1.5,0.6,2.7s-0.2,2-0.6,2.7s-1,0.9-1.8,0.9C20.8,193.3,20.2,193,19.8,192.4z M22.7,191.8c0.2-0.5,0.4-1.2,0.4-2.1
			c0-0.9-0.1-1.6-0.4-2.1c-0.2-0.5-0.6-0.7-1.1-0.7c-0.5,0-0.9,0.2-1.1,0.7c-0.2,0.5-0.4,1.2-0.4,2.1c0,0.9,0.1,1.6,0.4,2.1
			s0.6,0.7,1.1,0.7C22.1,192.5,22.4,192.3,22.7,191.8z"/>
		<path class="st1" d="M25.2,192h1v1.1h-1V192z"/>
		<path class="st1" d="M27.4,191.4V191v-0.4l3.3-4.5H31h0.4v4.6h1v0.8h-1v1.7h-0.9v-1.7H27.4z M30.5,190.7v-3.2l-2.2,3.1l0,0.1H30.5
			z"/>
	</g>
	<g>
		<path class="st1" d="M15.9,166.5h2.5v0.9h-2.5V166.5z"/>
		<path class="st1" d="M19.8,169c-0.4-0.6-0.6-1.5-0.6-2.7s0.2-2,0.6-2.7c0.4-0.6,1-0.9,1.8-0.9c0.8,0,1.4,0.3,1.8,0.9
			c0.4,0.6,0.6,1.5,0.6,2.7s-0.2,2-0.6,2.7s-1,0.9-1.8,0.9C20.8,169.9,20.2,169.6,19.8,169z M22.7,168.4c0.2-0.5,0.4-1.2,0.4-2.1
			c0-0.9-0.1-1.6-0.4-2.1c-0.2-0.5-0.6-0.7-1.1-0.7c-0.5,0-0.9,0.2-1.1,0.7c-0.2,0.5-0.4,1.2-0.4,2.1c0,0.9,0.1,1.6,0.4,2.1
			s0.6,0.7,1.1,0.7C22.1,169.1,22.4,168.9,22.7,168.4z"/>
		<path class="st1" d="M25.2,168.7h1v1.1h-1V168.7z"/>
		<path class="st1" d="M32.2,164.8c0,0.5-0.1,0.9-0.4,1.3c-0.3,0.3-0.8,0.7-1.5,1.1c-0.8,0.4-1.3,0.8-1.6,1.2
			c-0.1,0.2-0.2,0.3-0.3,0.5h3.8v0.9h-4.8v0c0-0.7,0.2-1.3,0.6-1.8c0.4-0.5,1.1-1,2.1-1.5c0.5-0.3,0.8-0.5,1-0.8
			c0.2-0.2,0.3-0.5,0.3-0.9c0-0.4-0.1-0.7-0.4-0.9c-0.3-0.2-0.6-0.4-1-0.4c-0.4,0-0.8,0.1-1,0.4s-0.4,0.7-0.4,1.3h-0.9
			c0-0.8,0.2-1.4,0.6-1.8c0.4-0.4,1-0.7,1.8-0.7c0.7,0,1.2,0.2,1.6,0.6C32,163.7,32.2,164.2,32.2,164.8z"/>
	</g>
	<g>
		<path class="st1" d="M27.9,145.7c-0.4-0.6-0.6-1.5-0.6-2.7s0.2-2,0.6-2.7c0.4-0.6,1-0.9,1.8-0.9c0.8,0,1.4,0.3,1.8,0.9
			c0.4,0.6,0.6,1.5,0.6,2.7s-0.2,2-0.6,2.7s-1,0.9-1.8,0.9C28.9,146.6,28.3,146.3,27.9,145.7z M30.7,145.1c0.2-0.5,0.4-1.2,0.4-2.1
			c0-0.9-0.1-1.6-0.4-2.1c-0.2-0.5-0.6-0.7-1.1-0.7c-0.5,0-0.9,0.2-1.1,0.7c-0.2,0.5-0.4,1.2-0.4,2.1c0,0.9,0.1,1.6,0.4,2.1
			s0.6,0.7,1.1,0.7C30.1,145.8,30.5,145.6,30.7,145.1z"/>
	</g>
	<g>
		<path class="st1" d="M19.4,122.3c-0.4-0.6-0.6-1.5-0.6-2.7s0.2-2,0.6-2.7c0.4-0.6,1-0.9,1.8-0.9c0.8,0,1.4,0.3,1.8,0.9
			c0.4,0.6,0.6,1.5,0.6,2.7s-0.2,2-0.6,2.7s-1,0.9-1.8,0.9C20.5,123.3,19.9,122.9,19.4,122.3z M22.3,121.8c0.2-0.5,0.4-1.2,0.4-2.1
			c0-0.9-0.1-1.6-0.4-2.1c-0.2-0.5-0.6-0.7-1.1-0.7c-0.5,0-0.9,0.2-1.1,0.7c-0.2,0.5-0.4,1.2-0.4,2.1c0,0.9,0.1,1.6,0.4,2.1
			s0.6,0.7,1.1,0.7C21.7,122.5,22.1,122.2,22.3,121.8z"/>
		<path class="st1" d="M24.9,122h1v1.1h-1V122z"/>
	</g>
	<g>
		<path class="st1" d="M31,118.1c0,0.5-0.1,0.9-0.4,1.3s-0.8,0.7-1.5,1.1c-0.8,0.4-1.3,0.8-1.6,1.2c-0.1,0.2-0.2,0.3-0.3,0.5H31v0.9
			h-4.8v0c0-0.7,0.2-1.3,0.6-1.8s1.1-1,2.1-1.5c0.5-0.3,0.8-0.5,1-0.8c0.2-0.2,0.3-0.5,0.3-0.9c0-0.4-0.1-0.7-0.4-0.9
			s-0.6-0.4-1-0.4c-0.4,0-0.8,0.1-1,0.4c-0.2,0.3-0.4,0.7-0.4,1.3h-0.9c0-0.8,0.2-1.4,0.6-1.8c0.4-0.4,1-0.7,1.8-0.7
			c0.7,0,1.2,0.2,1.6,0.6C30.8,117,31,117.5,31,118.1z"/>
	</g>
	<g>
		<path class="st1" d="M19.4,99c-0.4-0.6-0.6-1.5-0.6-2.7s0.2-2,0.6-2.7c0.4-0.6,1-0.9,1.8-0.9c0.8,0,1.4,0.3,1.8,0.9
			c0.4,0.6,0.6,1.5,0.6,2.7s-0.2,2-0.6,2.7s-1,0.9-1.8,0.9C20.5,99.9,19.9,99.6,19.4,99z M22.3,98.4c0.2-0.5,0.4-1.2,0.4-2.1
			c0-0.9-0.1-1.6-0.4-2.1c-0.2-0.5-0.6-0.7-1.1-0.7c-0.5,0-0.9,0.2-1.1,0.7c-0.2,0.5-0.4,1.2-0.4,2.1c0,0.9,0.1,1.6,0.4,2.1
			s0.6,0.7,1.1,0.7C21.7,99.1,22.1,98.9,22.3,98.4z"/>
		<path class="st1" d="M24.9,98.7h1v1.1h-1V98.7z"/>
	</g>
	<g>
		<path class="st1" d="M26.2,98v-0.4v-0.4l3.3-4.5h0.4h0.4v4.6h1V98h-1v1.7h-0.9V98H26.2z M29.3,97.3v-3.2l-2.2,3.1l0,0.1H29.3z"/>
	</g>
	<g>
		<path class="st1" d="M19.4,75.6C19,75,18.8,74.1,18.8,73s0.2-2,0.6-2.7c0.4-0.6,1-0.9,1.8-0.9c0.8,0,1.4,0.3,1.8,0.9
			c0.4,0.6,0.6,1.5,0.6,2.7s-0.2,2-0.6,2.7s-1,0.9-1.8,0.9C20.5,76.6,19.9,76.3,19.4,75.6z M22.3,75.1c0.2-0.5,0.4-1.2,0.4-2.1
			c0-0.9-0.1-1.6-0.4-2.1c-0.2-0.5-0.6-0.7-1.1-0.7c-0.5,0-0.9,0.2-1.1,0.7c-0.2,0.5-0.4,1.2-0.4,2.1c0,0.9,0.1,1.6,0.4,2.1
			s0.6,0.7,1.1,0.7C21.7,75.8,22.1,75.5,22.3,75.1z"/>
		<path class="st1" d="M24.9,75.3h1v1.1h-1V75.3z"/>
	</g>
	<g>
		<path class="st1" d="M28.9,69.3c0.6,0,1.1,0.2,1.5,0.5c0.4,0.3,0.6,0.8,0.6,1.4h-0.9c0-0.3-0.2-0.6-0.4-0.8
			c-0.2-0.2-0.5-0.3-0.8-0.3c-0.5,0-1,0.3-1.3,0.8c-0.3,0.4-0.4,1.1-0.4,1.8c0.4-0.6,1-0.8,1.7-0.8c0.7,0,1.2,0.2,1.6,0.6
			s0.6,1,0.6,1.7s-0.2,1.3-0.7,1.7s-1,0.6-1.7,0.6c-0.8,0-1.4-0.3-1.8-0.9s-0.6-1.4-0.6-2.5c0-1.2,0.2-2.2,0.7-2.8
			C27.5,69.7,28.1,69.3,28.9,69.3z M27.4,74.2c0,0.5,0.1,0.8,0.4,1.1s0.6,0.4,1,0.4s0.8-0.1,1-0.4s0.4-0.7,0.4-1.1s-0.1-0.8-0.4-1.1
			s-0.6-0.4-1-0.4s-0.8,0.1-1,0.4C27.5,73.4,27.4,73.8,27.4,74.2z"/>
	</g>
	<g>
		<path class="st1" d="M19.4,52.3c-0.4-0.6-0.6-1.5-0.6-2.7s0.2-2,0.6-2.7c0.4-0.6,1-0.9,1.8-0.9c0.8,0,1.4,0.3,1.8,0.9
			c0.4,0.6,0.6,1.5,0.6,2.7s-0.2,2-0.6,2.7s-1,0.9-1.8,0.9C20.5,53.2,19.9,52.9,19.4,52.3z M22.3,51.7c0.2-0.5,0.4-1.2,0.4-2.1
			c0-0.9-0.1-1.6-0.4-2.1c-0.2-0.5-0.6-0.7-1.1-0.7c-0.5,0-0.9,0.2-1.1,0.7c-0.2,0.5-0.4,1.2-0.4,2.1c0,0.9,0.1,1.6,0.4,2.1
			s0.6,0.7,1.1,0.7C21.7,52.4,22.1,52.2,22.3,51.7z"/>
		<path class="st1" d="M24.9,52h1V53h-1V52z"/>
	</g>
	<g>
		<path class="st1" d="M29.9,49.3c0.2,0.1,0.4,0.2,0.5,0.3c0.4,0.4,0.7,0.8,0.7,1.4c0,0.7-0.2,1.2-0.7,1.6s-1,0.6-1.7,0.6
			S27.4,53,27,52.6s-0.7-0.9-0.7-1.6c0-0.6,0.2-1.1,0.7-1.4c0.2-0.1,0.3-0.2,0.5-0.3c-0.1-0.1-0.2-0.1-0.3-0.2
			c-0.4-0.3-0.6-0.7-0.6-1.2c0-0.6,0.2-1,0.6-1.4s0.9-0.5,1.6-0.5s1.2,0.2,1.6,0.5s0.6,0.8,0.6,1.4c0,0.5-0.2,0.9-0.6,1.2
			C30.2,49.2,30.1,49.2,29.9,49.3z M28.7,49.7c-0.4,0-0.8,0.1-1.1,0.4s-0.4,0.6-0.4,1c0,0.4,0.1,0.7,0.4,1s0.6,0.4,1.1,0.4
			s0.8-0.1,1.1-0.4s0.4-0.6,0.4-1c0-0.4-0.1-0.7-0.4-1C29.5,49.8,29.2,49.7,28.7,49.7z M28.7,48.9c0.4,0,0.7-0.1,0.9-0.3
			s0.3-0.5,0.3-0.8s-0.1-0.6-0.3-0.8c-0.2-0.2-0.5-0.3-0.9-0.3s-0.7,0.1-0.9,0.3c-0.2,0.2-0.3,0.5-0.3,0.8s0.1,0.6,0.3,0.8
			C28.1,48.8,28.4,48.9,28.7,48.9z"/>
	</g>
	<g>
		<path class="st1" d="M29.5,24.7h-1.6V24c0.5,0,0.9-0.1,1.2-0.3c0.3-0.2,0.5-0.6,0.7-1h0.7v7H30h-0.5V24.7z"/>
	</g>
	<g>
		<path class="st1" d="M1.6,177.5V177v-0.5h7.9v0.5v0.5H1.6z"/>
		<path class="st1" d="M3.7,174.7v-0.5v-0.5h0.9l-0.3-0.2c-0.5-0.4-0.8-1-0.8-1.6c0-0.5,0.2-0.9,0.5-1.2c0.1-0.1,0.3-0.2,0.5-0.3
			l-0.2-0.2c-0.5-0.4-0.7-0.9-0.7-1.5c0-0.6,0.2-1.1,0.5-1.4c0.3-0.3,0.8-0.5,1.4-0.5h4v0.5v0.5H5.7c-0.4,0-0.8,0.1-1,0.3
			c-0.2,0.2-0.3,0.4-0.3,0.8c0,0.4,0.2,0.8,0.5,1c0.3,0.2,0.8,0.4,1.3,0.4h3.2v0.5v0.5H5.5c-0.4,0-0.6,0.1-0.8,0.2
			c-0.2,0.2-0.3,0.4-0.3,0.7c0,0.4,0.2,0.8,0.5,1.1c0.4,0.3,0.8,0.4,1.4,0.4h3.1v0.5v0.5H3.7z"/>
		<path class="st1" d="M9.6,164.1c0,0.6-0.2,1-0.5,1.3s-0.7,0.5-1.2,0.5c-0.5,0-0.9-0.2-1.2-0.5s-0.5-0.8-0.6-1.4L6,162.8
			c0-0.1,0-0.2-0.1-0.3c0-0.1-0.1-0.2-0.2-0.3c-0.1-0.1-0.2-0.1-0.4-0.1h0c-0.3,0-0.5,0.1-0.7,0.3c-0.2,0.2-0.3,0.6-0.3,1
			c0,0.4,0.1,0.7,0.3,0.9c0.2,0.2,0.5,0.4,0.8,0.4v0.9c-0.6,0-1.1-0.3-1.4-0.7s-0.5-1-0.5-1.7c0-0.7,0.2-1.2,0.5-1.6
			c0.3-0.4,0.7-0.5,1.3-0.5h3.2c0.1,0,0.2,0,0.2-0.1c0.1-0.1,0.1-0.1,0.1-0.2c0,0,0-0.1,0-0.1c0-0.1,0-0.1,0-0.2h0.7
			c0,0.1,0.1,0.2,0.1,0.3c0,0.1,0,0.2,0,0.3c0,0.4-0.1,0.6-0.3,0.8c-0.1,0.1-0.3,0.2-0.6,0.2c0.1,0.1,0.2,0.2,0.3,0.2
			C9.4,162.8,9.6,163.4,9.6,164.1z M7.2,162.1H6.5c0.1,0.2,0.1,0.4,0.2,0.6l0.1,0.9c0.1,0.5,0.2,0.8,0.3,1c0.2,0.2,0.4,0.3,0.6,0.3
			c0.3,0,0.6-0.1,0.7-0.3c0.2-0.2,0.3-0.4,0.3-0.7c0-0.5-0.1-0.9-0.4-1.3c-0.2-0.2-0.4-0.4-0.7-0.5c0,0-0.1,0-0.2,0
			C7.4,162.1,7.3,162.1,7.2,162.1z"/>
		<path class="st1" d="M11.1,157.4c0-0.6-0.2-1-0.5-1.3s-0.9-0.4-1.5-0.4H8.8l0,0c0.5,0.4,0.8,0.9,0.8,1.6c0,0.8-0.3,1.4-0.9,1.8
			c-0.6,0.5-1.4,0.7-2.3,0.7c-0.9,0-1.6-0.2-2.1-0.7c-0.5-0.4-0.8-1-0.8-1.8c0-0.7,0.3-1.2,0.9-1.6l0.1-0.1H3.7v-0.9H9
			c1,0,1.7,0.2,2.2,0.7s0.7,1.1,0.7,2c0,0.7-0.2,1.2-0.5,1.6c-0.3,0.4-0.7,0.6-1.3,0.7v-1c0.3-0.1,0.5-0.2,0.7-0.4
			S11.1,157.7,11.1,157.4z M4.4,157.2c0,0.5,0.2,0.9,0.5,1.2s0.9,0.4,1.6,0.4c0.7,0,1.2-0.1,1.6-0.4s0.6-0.7,0.6-1.2
			c0-0.5-0.2-0.8-0.5-1.1c-0.4-0.3-0.8-0.4-1.4-0.4c-0.8,0-1.4,0.1-1.8,0.4C4.6,156.3,4.4,156.6,4.4,157.2z"/>
		<path class="st1" d="M1.6,153.3v-1h1.1v1H1.6z M3.7,153.3v-0.5v-0.5h5.7v0.5v0.5H3.7z"/>
		<path class="st1" d="M3.7,150.9v-0.5V150h0.8l-0.3-0.2c-0.5-0.4-0.7-0.9-0.7-1.6c0-0.6,0.2-1.1,0.5-1.5s0.8-0.5,1.5-0.5h3.9v0.5
			v0.5H5.8c-0.5,0-0.9,0.1-1.1,0.3c-0.2,0.2-0.3,0.5-0.3,0.9c0,0.5,0.2,0.8,0.5,1.1c0.4,0.3,0.8,0.4,1.4,0.4h3.1v0.5v0.5H3.7z"/>
		<path class="st1" d="M9.6,143.3c0,0.6-0.2,1-0.5,1.3s-0.7,0.5-1.2,0.5c-0.5,0-0.9-0.2-1.2-0.5c-0.3-0.3-0.5-0.8-0.6-1.4L6,142
			c0-0.1,0-0.2-0.1-0.3c0-0.1-0.1-0.2-0.2-0.3c-0.1-0.1-0.2-0.1-0.4-0.1h0c-0.3,0-0.5,0.1-0.7,0.3c-0.2,0.2-0.3,0.6-0.3,1
			c0,0.4,0.1,0.7,0.3,0.9c0.2,0.2,0.5,0.4,0.8,0.4v0.9c-0.6,0-1.1-0.3-1.4-0.7s-0.5-1-0.5-1.7c0-0.7,0.2-1.2,0.5-1.6
			c0.3-0.4,0.7-0.5,1.3-0.5h3.2c0.1,0,0.2,0,0.2-0.1s0.1-0.1,0.1-0.2c0,0,0-0.1,0-0.1c0-0.1,0-0.1,0-0.2h0.7c0,0.1,0.1,0.2,0.1,0.3
			c0,0.1,0,0.2,0,0.3c0,0.4-0.1,0.6-0.3,0.8c-0.1,0.1-0.3,0.2-0.6,0.2c0.1,0.1,0.2,0.2,0.3,0.2C9.4,142,9.6,142.6,9.6,143.3z
			 M7.2,141.3H6.5c0.1,0.2,0.1,0.4,0.2,0.6l0.1,0.9c0.1,0.5,0.2,0.8,0.3,1c0.2,0.2,0.4,0.3,0.6,0.3c0.3,0,0.6-0.1,0.7-0.3
			c0.2-0.2,0.3-0.4,0.3-0.7c0-0.5-0.1-0.9-0.4-1.3c-0.2-0.2-0.4-0.4-0.7-0.5c0,0-0.1,0-0.2,0C7.4,141.3,7.3,141.3,7.2,141.3z"/>
		<path class="st1" d="M3.7,138.5v-0.5v-0.5h1c-0.2-0.1-0.3-0.2-0.4-0.3c-0.5-0.4-0.7-0.8-0.7-1.3c0-0.1,0-0.2,0-0.3h1l0,0.2
			c0,0.5,0.2,0.9,0.5,1.2c0.3,0.3,0.8,0.4,1.3,0.4h3.1v0.5v0.5H3.7z"/>
		<path class="st1" d="M9.6,132.5c0.9,0.3,1.5,0.6,1.7,0.9s0.4,0.7,0.4,1.2c0,0.2,0,0.3-0.1,0.5h-0.9c0.1-0.1,0.1-0.3,0.1-0.6
			c0-0.2-0.1-0.4-0.3-0.5c-0.2-0.1-0.5-0.3-1-0.5l-0.1,0h0l-5.8,2.1V135v-0.6l4.8-1.5l-4.8-1.6v-0.5v-0.5L9.6,132.5z"/>
		<path class="st1" d="M1.6,126.2v-0.5v-2.9c0-0.8,0.2-1.4,0.6-1.8c0.4-0.4,0.9-0.6,1.6-0.6c0.7,0,1.3,0.2,1.8,0.6
			c0.4,0.4,0.6,1,0.6,1.8c0,1,0,1.8,0,2.4h3.3v0.5v0.5H1.6z M5.2,125.1V123c0-0.6-0.1-1-0.4-1.2c-0.2-0.3-0.6-0.4-1.1-0.4
			c-0.4,0-0.8,0.1-1,0.4s-0.3,0.7-0.3,1.2v2.1H5.2z"/>
		<path class="st1" d="M9.6,117.6c0,0.6-0.2,1-0.5,1.3s-0.7,0.5-1.2,0.5c-0.5,0-0.9-0.2-1.2-0.5c-0.3-0.3-0.5-0.8-0.6-1.4L6,116.3
			c0-0.1,0-0.2-0.1-0.3c0-0.1-0.1-0.2-0.2-0.3c-0.1-0.1-0.2-0.1-0.4-0.1h0c-0.3,0-0.5,0.1-0.7,0.3c-0.2,0.2-0.3,0.6-0.3,1
			c0,0.4,0.1,0.7,0.3,0.9c0.2,0.2,0.5,0.4,0.8,0.4v0.9c-0.6,0-1.1-0.3-1.4-0.7s-0.5-1-0.5-1.7c0-0.7,0.2-1.2,0.5-1.6
			c0.3-0.4,0.7-0.5,1.3-0.5h3.2c0.1,0,0.2,0,0.2-0.1s0.1-0.1,0.1-0.2c0,0,0-0.1,0-0.1c0-0.1,0-0.1,0-0.2h0.7c0,0.1,0.1,0.2,0.1,0.3
			c0,0.1,0,0.2,0,0.3c0,0.4-0.1,0.6-0.3,0.8c-0.1,0.1-0.3,0.2-0.6,0.2c0.1,0.1,0.2,0.2,0.3,0.2C9.4,116.3,9.6,116.9,9.6,117.6z
			 M7.2,115.6H6.5c0.1,0.2,0.1,0.4,0.2,0.6l0.1,0.9c0.1,0.5,0.2,0.8,0.3,1c0.2,0.2,0.4,0.3,0.6,0.3c0.3,0,0.6-0.1,0.7-0.3
			c0.2-0.2,0.3-0.4,0.3-0.7c0-0.5-0.1-0.9-0.4-1.3c-0.2-0.2-0.4-0.4-0.7-0.5c0,0-0.1,0-0.2,0C7.4,115.6,7.3,115.6,7.2,115.6z"/>
		<path class="st1" d="M3.7,112.9v-0.5v-0.5h1c-0.2-0.1-0.3-0.2-0.4-0.3c-0.5-0.4-0.7-0.8-0.7-1.3c0-0.1,0-0.2,0-0.3h1l0,0.2
			c0,0.5,0.2,0.9,0.5,1.2c0.3,0.3,0.8,0.4,1.3,0.4h3.1v0.5v0.5H3.7z"/>
		<path class="st1" d="M9.4,107.2c0.1,0.3,0.1,0.6,0.1,0.7c0,0.4-0.1,0.7-0.3,0.9c-0.2,0.2-0.5,0.3-1,0.3H4.5v0.8H3.7v-0.8H2.1v-1
			h1.6v-0.9h0.8v0.9h3.8c0.1,0,0.2-0.1,0.3-0.2s0.1-0.2,0.1-0.4v-0.3H9.4z"/>
	</g>
	<g>
		<path class="st2" d="M167.1,6c-0.5,0.4-1.1,0.6-2,0.6h-1.6v2.8h-1.6V1.5h3.4c0.8,0,1.4,0.2,1.9,0.6c0.5,0.4,0.7,1,0.7,1.9
			C167.8,5,167.6,5.6,167.1,6z M165.8,3.2c-0.2-0.2-0.5-0.3-0.9-0.3h-1.5v2.3h1.5c0.4,0,0.7-0.1,0.9-0.3c0.2-0.2,0.3-0.5,0.3-0.9
			C166.2,3.6,166,3.4,165.8,3.2z"/>
		<path class="st2" d="M173.9,8.7c-0.5,0.6-1.2,0.9-2.3,0.9c-1,0-1.8-0.3-2.3-0.9s-0.7-1.3-0.7-2.2c0-0.8,0.2-1.6,0.7-2.2
			c0.5-0.6,1.2-0.9,2.3-0.9c1,0,1.8,0.3,2.3,0.9c0.5,0.6,0.7,1.4,0.7,2.2C174.6,7.4,174.4,8.1,173.9,8.7z M172.7,7.9
			c0.2-0.3,0.4-0.8,0.4-1.4s-0.1-1-0.4-1.4c-0.2-0.3-0.6-0.5-1-0.5c-0.4,0-0.8,0.2-1,0.5s-0.4,0.8-0.4,1.4s0.1,1,0.4,1.4
			c0.2,0.3,0.6,0.5,1,0.5C172.1,8.4,172.4,8.2,172.7,7.9z"/>
		<path class="st2" d="M177.3,9.5h-1.5V1.5h1.5V9.5z"/>
		<path class="st2" d="M182.6,3.7c0.4,0.2,0.7,0.5,1,0.9c0.2,0.3,0.4,0.8,0.5,1.2c0,0.3,0.1,0.7,0.1,1.2h-4.3c0,0.6,0.2,1,0.6,1.2
			c0.2,0.1,0.5,0.2,0.8,0.2c0.3,0,0.6-0.1,0.9-0.3c0.1-0.1,0.2-0.2,0.3-0.4h1.6c0,0.3-0.2,0.7-0.6,1.1c-0.5,0.6-1.3,0.9-2.2,0.9
			c-0.8,0-1.5-0.2-2.1-0.7c-0.6-0.5-0.9-1.3-0.9-2.3c0-1,0.3-1.8,0.8-2.3c0.5-0.5,1.2-0.8,2.1-0.8C181.7,3.4,182.2,3.5,182.6,3.7z
			 M180.3,5c-0.2,0.2-0.4,0.5-0.4,0.9h2.6c0-0.4-0.2-0.7-0.4-0.9c-0.2-0.2-0.5-0.3-0.9-0.3C180.8,4.7,180.5,4.8,180.3,5z"/>
		<path class="st2" d="M184.4,5.7h3v1.5h-3V5.7z"/>
		<path class="st2" d="M191.2,8.1l4-5.1h-3.9V1.5h6v1.3l-4.1,5.2h4.1v1.4h-6.1V8.1z"/>
		<path class="st2" d="M202.1,3.7c0.4,0.2,0.7,0.5,1,0.9c0.2,0.3,0.4,0.8,0.5,1.2c0,0.3,0.1,0.7,0,1.2h-4.3c0,0.6,0.2,1,0.6,1.2
			c0.2,0.1,0.5,0.2,0.8,0.2c0.3,0,0.6-0.1,0.8-0.3c0.1-0.1,0.2-0.2,0.3-0.4h1.6c0,0.3-0.2,0.7-0.6,1.1c-0.5,0.6-1.3,0.9-2.2,0.9
			c-0.8,0-1.5-0.2-2.1-0.7c-0.6-0.5-0.9-1.3-0.9-2.3c0-1,0.3-1.8,0.8-2.3c0.5-0.5,1.2-0.8,2.1-0.8C201.3,3.4,201.7,3.5,202.1,3.7z
			 M199.9,5c-0.2,0.2-0.4,0.5-0.4,0.9h2.6c0-0.4-0.2-0.7-0.4-0.9c-0.2-0.2-0.5-0.3-0.9-0.3C200.4,4.7,200.1,4.8,199.9,5z"/>
		<path class="st2" d="M207.7,3.5c0,0,0.1,0,0.1,0V5c-0.1,0-0.2,0-0.3,0c-0.1,0-0.1,0-0.2,0c-0.6,0-1,0.2-1.2,0.6
			c-0.1,0.2-0.2,0.6-0.2,1v2.8h-1.5V3.6h1.5v1c0.2-0.4,0.4-0.7,0.6-0.8C206.8,3.6,207.2,3.5,207.7,3.5
			C207.7,3.5,207.7,3.5,207.7,3.5z"/>
		<path class="st2" d="M213.6,8.7c-0.5,0.6-1.2,0.9-2.3,0.9c-1,0-1.8-0.3-2.3-0.9s-0.7-1.3-0.7-2.2c0-0.8,0.2-1.6,0.7-2.2
			c0.5-0.6,1.2-0.9,2.3-0.9c1,0,1.8,0.3,2.3,0.9c0.5,0.6,0.7,1.4,0.7,2.2C214.4,7.4,214.1,8.1,213.6,8.7z M212.4,7.9
			c0.2-0.3,0.4-0.8,0.4-1.4s-0.1-1-0.4-1.4s-0.6-0.5-1-0.5s-0.8,0.2-1,0.5C210.1,5.5,210,6,210,6.5s0.1,1,0.4,1.4
			c0.2,0.3,0.6,0.5,1,0.5S212.1,8.2,212.4,7.9z"/>
		<path class="st2" d="M223.4,4.2c0.5,0.5,0.7,1.2,0.7,2.2c0,1-0.2,1.8-0.7,2.4c-0.5,0.5-1.1,0.8-1.8,0.8c-0.5,0-0.9-0.1-1.2-0.3
			c-0.2-0.1-0.3-0.3-0.5-0.6v3.1h-1.5V3.6h1.5v0.9c0.2-0.3,0.3-0.5,0.5-0.6c0.3-0.3,0.8-0.4,1.2-0.4C222.4,3.5,222.9,3.7,223.4,4.2z
			 M222.3,5.3c-0.2-0.3-0.5-0.5-1-0.5c-0.6,0-0.9,0.3-1.2,0.8c-0.1,0.3-0.2,0.6-0.2,1.1c0,0.7,0.2,1.2,0.5,1.4
			c0.2,0.2,0.5,0.2,0.8,0.2c0.4,0,0.8-0.2,1-0.5s0.3-0.8,0.3-1.3C222.6,6.1,222.5,5.7,222.3,5.3z"/>
		<path class="st2" d="M226.8,9.5h-1.5V1.5h1.5V9.5z"/>
		<path class="st2" d="M233.2,8.7c-0.5,0.6-1.2,0.9-2.3,0.9c-1,0-1.8-0.3-2.3-0.9s-0.7-1.3-0.7-2.2c0-0.8,0.2-1.6,0.7-2.2
			c0.5-0.6,1.2-0.9,2.3-0.9c1,0,1.8,0.3,2.3,0.9c0.5,0.6,0.7,1.4,0.7,2.2C233.9,7.4,233.7,8.1,233.2,8.7z M231.9,7.9
			c0.2-0.3,0.4-0.8,0.4-1.4s-0.1-1-0.4-1.4s-0.6-0.5-1-0.5s-0.8,0.2-1,0.5c-0.2,0.3-0.4,0.8-0.4,1.4s0.1,1,0.4,1.4
			c0.2,0.3,0.6,0.5,1,0.5S231.7,8.2,231.9,7.9z"/>
	</g>
	<g>
		<path class="st2" d="M234.6,4.7V3.7h0.8V2h1.5v1.6h1v1.1h-1v3.1c0,0.2,0,0.4,0.1,0.4s0.2,0.1,0.6,0.1c0,0,0.1,0,0.1,0
			c0.1,0,0.1,0,0.2,0v1.1l-0.7,0c-0.7,0-1.2-0.1-1.5-0.4c-0.2-0.2-0.3-0.4-0.3-0.8V4.7H234.6z"/>
	</g>
	<path class="st3" d="M258,238.6c2.8,0,5,2.2,5,5l0,0c0,2.8-2.2,5-5,5s-5-2.2-5-5S255.3,238.6,258,238.6L258,238.6z M258,234.6
		c-5,0-9,4-9,9s4,9,9,9s9-4,9-9l0,0C267,238.6,263,234.6,258,234.6L258,234.6z"/>
	<path class="st3" d="M258,36.4c2.8,0,5,2.2,5,5l0,0c0,2.8-2.2,5-5,5s-5-2.2-5-5C253,38.7,255.3,36.4,258,36.4L258,36.4z M258,32.4
		c-5,0-9,4-9,9s4,9,9,9s9-4,9-9l0,0C267,36.5,263,32.4,258,32.4L258,32.4z"/>
	<path class="st3" d="M316.4,137.5c2.8,0,5,2.2,5,5l0,0c0,2.8-2.2,5-5,5s-5-2.2-5-5S313.6,137.5,316.4,137.5L316.4,137.5z
		 M316.4,133.5c-5,0-9,4-9,9c0,5,4,9,9,9c5,0,9-4,9-9l0,0C325.4,137.5,321.3,133.5,316.4,133.5L316.4,133.5z"/>
	<path class="st3" d="M82.9,137.5c2.8,0,5,2.2,5,5l0,0c0,2.8-2.2,5-5,5s-5-2.2-5-5S80.2,137.5,82.9,137.5L82.9,137.5z M82.9,133.5
		c-5,0-9,4-9,9c0,5,4,9,9,9c5,0,9-4,9-9l0,0C91.9,137.5,87.9,133.5,82.9,133.5L82.9,133.5z"/>
	<path class="st4" d="M192.6,135.4l14.1,14.1 M192.6,149.6l14.1-14.1 M192.6,135.4l14.1,14.1 M192.6,149.6l14.1-14.1 M192.6,135.4
		l14.1,14.1 M192.6,149.6l14.1-14.1 M192.6,135.4l14.1,14.1 M192.6,149.6l14.1-14.1"/>
	<path class="st5" d="M316.4,142.5l-0.2-7.3l0,0l-0.5-5.7l0,0l-0.5-3.9l0,0l-0.5-3.1l0,0l-0.5-2.7l0,0l-0.5-2.4l0,0l-0.5-2.2l0,0
		l-0.5-2l0,0l-0.5-1.9l0,0l-0.5-1.7l0,0l-0.5-1.6l0,0l-0.5-1.6l0,0l-0.5-1.5l0,0l-0.5-1.4l0,0l-0.5-1.4l0,0l-0.5-1.3l0,0l-0.5-1.3
		l0,0l-0.5-1.2l0,0l-0.5-1.2l0,0l-0.5-1.1l0,0l-0.5-1.1l0,0l-0.5-1.1l0,0l-0.5-1.1l0,0l-0.5-1l0,0l-0.5-1l0,0l-0.5-1l0,0l-0.5-1l0,0
		l-0.5-0.9l0,0l-0.5-0.9l0,0l-0.5-0.9l0,0l-0.5-0.9l0,0l-0.5-0.9l0,0l-0.5-0.8l0,0l-0.5-0.8l0,0l-0.5-0.8l0,0l-0.5-0.8l0,0l-0.5-0.8
		l0,0l-0.5-0.8l0,0l-0.5-0.7l0,0l-0.5-0.7l0,0l-0.5-0.7l0,0l-0.5-0.7l0,0l-0.5-0.7l0,0l-0.5-0.7l0,0l-0.5-0.7l0,0l-0.5-0.7l0,0
		l-0.5-0.7l0,0l-0.5-0.6l0,0l-0.5-0.7l0,0l-0.5-0.6l0,0l-0.5-0.6l0,0l-0.5-0.6l0,0l-0.5-0.6l0,0l-0.5-0.6l0,0l-0.5-0.6l0,0l-0.5-0.6
		l0,0l-0.5-0.6l0,0l-0.5-0.6l0,0l-0.5-0.6l0,0l-0.5-0.6l0,0l-0.5-0.5l0,0l-0.5-0.5l0,0l-0.5-0.5l0,0l-0.5-0.5l0,0l-0.5-0.5l0,0
		l-0.5-0.5l0,0l-0.5-0.5l0,0l-0.5-0.5l0,0l-0.5-0.5l0,0l-0.5-0.5l0,0l-0.5-0.5l0,0l-0.5-0.5l0,0l-0.5-0.5l0,0l-0.5-0.5l0,0l-0.5-0.5
		l0,0l-0.5-0.5l0,0l-0.5-0.4l0,0l-0.5-0.4l0,0l-0.5-0.4l0,0l-0.5-0.4l0,0l-0.5-0.4l0,0l-0.5-0.4l0,0l-0.5-0.4l0,0l-0.5-0.4l0,0
		l-0.5-0.4l0,0l-0.5-0.4l0,0l-0.5-0.4l0,0l-0.5-0.4l0,0l-0.5-0.4l0,0l-0.5-0.4l0,0l-0.5-0.4l0,0l-0.5-0.4l0,0l-0.5-0.4l0,0l-0.5-0.4
		l0,0l-0.5-0.4l0,0l-0.5-0.4l0,0l-0.5-0.4l0,0l-0.5-0.4l0,0l-0.5-0.3l0,0l-0.5-0.3l0,0l-0.5-0.3l0,0l-0.5-0.3l0,0l-0.5-0.3l0,0
		l-0.5-0.3l0,0l-0.5-0.3l0,0l-0.5-0.3l0,0l-0.5-0.3l0,0l-0.5-0.3l0,0l-0.5-0.3l0,0l-0.5-0.3l0,0l-0.5-0.3l0,0l-0.5-0.3l0,0l-0.5-0.3
		l0,0l-0.5-0.3l0,0l-0.5-0.3l0,0l-0.5-0.3l0,0l-0.5-0.3l0,0l-0.5-0.3l0,0l-0.5-0.3l0,0l-0.5-0.3l0,0l-0.5-0.3l0,0l-0.5-0.3l0,0
		l-0.5-0.3l0,0l-0.5-0.3l0,0l-0.5-0.3l0,0l-0.5-0.3l0,0l-0.5-0.2l0,0l-0.5-0.3l0,0l-0.5-0.2l0,0l-0.5-0.2l0,0l-0.5-0.2l0,0l-0.5-0.2
		l0,0l-0.5-0.2l0,0l-0.5-0.2l0,0l-0.5-0.2l0,0l-0.5-0.2l0,0l-0.5-0.2l0,0l-0.5-0.2l0,0l-0.5-0.2l0,0l-0.5-0.2l0,0l-0.5-0.2l0,0
		l-0.5-0.2l0,0l-0.5-0.2l0,0l-0.5-0.2l0,0l-0.5-0.2l0,0l-0.5-0.2l0,0l-0.5-0.2l0,0l-0.5-0.2l0,0l-0.5-0.2l0,0l-0.5-0.2l0,0l-0.5-0.2
		l0,0l-0.5-0.2l0,0l-0.5-0.2l0,0l-0.5-0.2l0,0l-0.5-0.2l0,0l-0.5-0.2l0,0l-0.5-0.2l0,0l-0.5-0.2l0,0l-0.5-0.2l0,0l-0.5-0.2l0,0
		l-0.5-0.2l0,0l-0.5-0.2l0,0l-0.5-0.2l0,0l-0.5-0.2l0,0l-0.5-0.2l0,0l-0.5-0.1l0,0l-0.5-0.1l0,0l-0.5-0.1l0,0l-0.5-0.1l0,0l-0.5-0.1
		l0,0l-0.5-0.1l0,0l-0.5-0.1l0,0l-0.5-0.1l0,0l-0.5-0.1l0,0l-0.5-0.1l0,0l-0.5-0.1l0,0l-0.5-0.1l0,0l-0.5-0.1l0,0l-0.5-0.1l0,0
		l-0.5-0.1l0,0l-0.5-0.1l0,0l-0.5-0.1l0,0l-0.5-0.1l0,0l-0.5-0.1l0,0l-0.5-0.1l0,0l-0.5-0.1l0,0l-0.5-0.1l0,0l-0.5-0.1l0,0l-0.5-0.1
		l0,0l-0.5-0.1l0,0l-0.5-0.1l0,0l-0.5-0.1l0,0l-0.5-0.1l0,0l-0.5-0.1l0,0l-0.5-0.1l0,0l-0.5-0.1l0,0l-0.5-0.1l0,0l-0.5-0.1l0,0
		l-0.5-0.1l0,0l-0.5-0.1l0,0l-0.5-0.1l0,0l-0.5-0.1l0,0l-0.5-0.1l0,0l-0.5-0.1l0,0l-0.5-0.1l0,0l-0.5-0.1l0,0l-0.5-0.1l0,0l-0.5-0.1
		l0,0l-0.5-0.1l0,0l-0.5-0.1l0,0l-0.5,0l0,0l-0.5,0l0,0l-0.5,0l0,0l-0.5,0l0,0l-0.5,0l0,0l-0.5,0l0,0l-0.5,0l0,0l-0.5,0l0,0l-0.5,0
		l0,0l-0.5,0l0,0l-0.5,0l0,0l-0.5,0l0,0l-0.5,0l0,0l-0.5,0l0,0l-0.5,0l0,0l-0.5,0l0,0l-0.5,0l0,0l-0.5,0l0,0l-0.5,0h0l-0.5,0h0
		l-0.5,0l0,0l-0.5,0h0l-0.5,0h0l-0.5,0h0l-0.5,0h0l-0.5,0l0,0l-0.5,0h0l-0.5,0h0l-0.5,0l0,0l-0.5,0h0l-0.5,0h0l-0.5,0l0,0l-0.5,0
		l0,0l-0.5,0l0,0l-0.5,0l0,0l-0.5,0l0,0l-0.5,0l0,0l-0.5,0l0,0l-0.5,0l0,0l-0.5,0l0,0l-0.5,0l0,0l-0.5,0l0,0l-0.5,0l0,0l-0.5,0l0,0
		l-0.5,0l0,0l-0.5,0l0,0l-0.5,0l0,0l-0.5,0l0,0l-0.5,0.1l0,0l-0.5,0.1l0,0l-0.5,0.1l0,0l-0.5,0.1l0,0l-0.5,0.1l0,0l-0.5,0.1l0,0
		l-0.5,0.1l0,0l-0.5,0.1l0,0l-0.5,0.1l0,0l-0.5,0.1l0,0l-0.5,0.1l0,0l-0.5,0.1l0,0l-0.5,0.1l0,0l-0.5,0.1l0,0l-0.5,0.1l0,0l-0.5,0.1
		l0,0l-0.5,0.1l0,0l-0.5,0.1l0,0l-0.5,0.1l0,0l-0.5,0.1l0,0l-0.5,0.1l0,0l-0.5,0.1l0,0l-0.5,0.1l0,0l-0.5,0.1l0,0l-0.5,0.1l0,0
		l-0.5,0.1l0,0l-0.5,0.1l0,0l-0.5,0.1l0,0l-0.5,0.1l0,0l-0.5,0.1l0,0l-0.5,0.1l0,0l-0.5,0.1l0,0l-0.5,0.1l0,0l-0.5,0.1l0,0l-0.5,0.1
		l0,0l-0.5,0.1l0,0l-0.5,0.1l0,0l-0.5,0.1l0,0l-0.5,0.1l0,0l-0.5,0.1l0,0l-0.5,0.1l0,0l-0.5,0.1l0,0l-0.5,0.1l0,0l-0.5,0.1l0,0
		l-0.5,0.2l0,0l-0.5,0.2l0,0l-0.5,0.2l0,0l-0.5,0.2l0,0l-0.5,0.2l0,0l-0.5,0.2l0,0l-0.5,0.2l0,0l-0.5,0.2l0,0l-0.5,0.2l0,0l-0.5,0.2
		l0,0l-0.5,0.2l0,0l-0.5,0.2l0,0l-0.5,0.2l0,0l-0.5,0.2l0,0l-0.5,0.2l0,0l-0.5,0.2l0,0l-0.5,0.2l0,0l-0.5,0.2l0,0l-0.5,0.2l0,0
		l-0.5,0.2l0,0l-0.5,0.2l0,0l-0.5,0.2l0,0l-0.5,0.2l0,0l-0.5,0.2l0,0l-0.5,0.2l0,0l-0.5,0.2l0,0l-0.5,0.2l0,0l-0.5,0.2l0,0l-0.5,0.2
		l0,0l-0.5,0.2l0,0l-0.5,0.2l0,0l-0.5,0.2l0,0l-0.5,0.2l0,0l-0.5,0.2l0,0l-0.5,0.2l0,0l-0.5,0.2l0,0l-0.5,0.2l0,0l-0.5,0.3l0,0
		l-0.5,0.2l0,0l-0.5,0.3l0,0l-0.5,0.3l0,0l-0.5,0.3l0,0l-0.5,0.3l0,0l-0.5,0.3l0,0l-0.5,0.3l0,0l-0.5,0.3l0,0l-0.5,0.3l0,0l-0.5,0.3
		l0,0l-0.5,0.3l0,0l-0.5,0.3l0,0l-0.5,0.3l0,0l-0.5,0.3l0,0l-0.5,0.3l0,0l-0.5,0.3l0,0l-0.5,0.3l0,0l-0.5,0.3l0,0l-0.5,0.3l0,0
		l-0.5,0.3l0,0l-0.5,0.3l0,0l-0.5,0.3l0,0l-0.5,0.3l0,0l-0.5,0.3l0,0l-0.5,0.3l0,0l-0.5,0.3l0,0l-0.5,0.3l0,0l-0.5,0.3l0,0l-0.5,0.3
		l0,0l-0.5,0.3l0,0l-0.5,0.4l0,0l-0.5,0.4l0,0l-0.5,0.4l0,0l-0.5,0.4l0,0l-0.5,0.4l0,0l-0.5,0.4l0,0l-0.5,0.4l0,0l-0.5,0.4l0,0
		l-0.5,0.4l0,0l-0.5,0.4l0,0l-0.5,0.4l0,0l-0.5,0.4l0,0l-0.5,0.4l0,0l-0.5,0.4l0,0l-0.5,0.4l0,0l-0.5,0.4l0,0l-0.5,0.4l0,0l-0.5,0.4
		l0,0l-0.5,0.4l0,0l-0.5,0.4l0,0l-0.5,0.4l0,0l-0.5,0.4l0,0l-0.5,0.4l0,0l-0.5,0.5l0,0l-0.5,0.5l0,0l-0.5,0.5l0,0l-0.5,0.5l0,0
		l-0.5,0.5l0,0l-0.5,0.5l0,0l-0.5,0.5l0,0l-0.5,0.5l0,0l-0.5,0.5l0,0l-0.5,0.5l0,0l-0.5,0.5l0,0l-0.5,0.5l0,0l-0.5,0.5l0,0l-0.5,0.5
		l0,0l-0.5,0.5l0,0l-0.5,0.5l0,0l-0.5,0.6l0,0l-0.5,0.6l0,0l-0.5,0.6l0,0l-0.5,0.6l0,0l-0.5,0.6l0,0l-0.5,0.6l0,0l-0.5,0.6l0,0
		l-0.5,0.6l0,0l-0.5,0.6l0,0l-0.5,0.6l0,0l-0.5,0.6l0,0l-0.5,0.7l0,0l-0.5,0.7l0,0l-0.5,0.7l0,0l-0.5,0.7l0,0l-0.5,0.7l0,0l-0.5,0.7
		l0,0l-0.5,0.7l0,0l-0.5,0.7l0,0l-0.5,0.7l0,0l-0.5,0.8l0,0l-0.5,0.8l0,0l-0.5,0.8l0,0l-0.5,0.8l0,0l-0.5,0.8l0,0l-0.5,0.8l0,0
		L98.7,84l0,0l-0.5,0.9l0,0l-0.5,0.9l0,0l-0.5,0.9l0,0l-0.5,0.9l0,0l-0.5,0.9l0,0l-0.5,1l0,0l-0.5,1l0,0l-0.5,1l0,0l-0.5,1l0,0
		l-0.5,1.1l0,0l-0.5,1.1l0,0l-0.5,1.1l0,0L92.1,97l0,0l-0.5,1.2l0,0l-0.5,1.2l0,0l-0.5,1.3l0,0l-0.5,1.3l0,0l-0.5,1.4l0,0l-0.5,1.4
		l0,0l-0.5,1.5l0,0l-0.5,1.6l0,0l-0.5,1.6l0,0l-0.5,1.7l0,0l-0.5,1.9l0,0l-0.5,2l0,0l-0.5,2.2l0,0l-0.5,2.4l0,0l-0.5,2.7l0,0
		l-0.5,3.1l0,0l-0.5,3.9l0,0l-0.5,5.7l0,0v14.6l0,0l0.5,5.7l0,0l0.5,3.9l0,0l0.5,3.1l0,0l0.5,2.7l0,0l0.5,2.4l0,0l0.5,2.2l0,0l0.5,2
		l0,0l0.5,1.9l0,0l0.5,1.7l0,0l0.5,1.6l0,0l0.5,1.6l0,0l0.5,1.5l0,0l0.5,1.4l0,0l0.5,1.4l0,0l0.5,1.3l0,0l0.5,1.3l0,0l0.5,1.2l0,0
		l0.5,1.2l0,0l0.5,1.2l0,0l0.5,1.1l0,0l0.5,1.1l0,0l0.5,1.1l0,0l0.5,1l0,0l0.5,1l0,0l0.5,1l0,0l0.5,1l0,0l0.5,0.9l0,0l0.5,0.9l0,0
		l0.5,0.9l0,0l0.5,0.9l0,0l0.5,0.9l0,0l0.5,0.8l0,0l0.5,0.8l0,0l0.5,0.8l0,0l0.5,0.8l0,0l0.5,0.8l0,0l0.5,0.8l0,0l0.5,0.8l0,0
		l0.5,0.7l0,0l0.5,0.7l0,0l0.5,0.7l0,0l0.5,0.7l0,0l0.5,0.7l0,0l0.5,0.7l0,0l0.5,0.7l0,0l0.5,0.7l0,0l0.5,0.7l0,0l0.5,0.6l0,0
		l0.5,0.6l0,0l0.5,0.6l0,0l0.5,0.6l0,0l0.5,0.6l0,0l0.5,0.6l0,0l0.5,0.6l0,0l0.5,0.6l0,0l0.5,0.6l0,0l0.5,0.6l0,0l0.5,0.6l0,0
		l0.5,0.5l0,0l0.5,0.5l0,0l0.5,0.5l0,0l0.5,0.5l0,0l0.5,0.5l0,0l0.5,0.5l0,0l0.5,0.5l0,0l0.5,0.5l0,0l0.5,0.5l0,0l0.5,0.5l0,0
		l0.5,0.5l0,0l0.5,0.5l0,0l0.5,0.5l0,0l0.5,0.5l0,0l0.5,0.5l0,0l0.5,0.5l0,0l0.5,0.4l0,0l0.5,0.4l0,0l0.5,0.4l0,0l0.5,0.4l0,0
		l0.5,0.4l0,0l0.5,0.4l0,0l0.5,0.4l0,0l0.5,0.4l0,0l0.5,0.4l0,0l0.5,0.4l0,0l0.5,0.4l0,0l0.5,0.4l0,0l0.5,0.4l0,0l0.5,0.4l0,0
		l0.5,0.4l0,0l0.5,0.4l0,0l0.5,0.4l0,0l0.5,0.4l0,0l0.5,0.4l0,0l0.5,0.4l0,0l0.5,0.4l0,0l0.5,0.4l0,0l0.5,0.4l0,0l0.5,0.3l0,0
		l0.5,0.3l0,0l0.5,0.3l0,0l0.5,0.3l0,0l0.5,0.3l0,0l0.5,0.3l0,0l0.5,0.3l0,0l0.5,0.3l0,0l0.5,0.3l0,0l0.5,0.3l0,0l0.5,0.3l0,0
		l0.5,0.3l0,0l0.5,0.3l0,0l0.5,0.3l0,0l0.5,0.3l0,0l0.5,0.3l0,0l0.5,0.3l0,0l0.5,0.3l0,0l0.5,0.3l0,0l0.5,0.3l0,0l0.5,0.3l0,0
		l0.5,0.3l0,0l0.5,0.3l0,0l0.5,0.3l0,0l0.5,0.3l0,0l0.5,0.3l0,0l0.5,0.3l0,0l0.5,0.3l0,0l0.5,0.3l0,0l0.5,0.2l0,0l0.5,0.3l0,0
		l0.5,0.2l0,0l0.5,0.2l0,0l0.5,0.2l0,0l0.5,0.2l0,0l0.5,0.2l0,0l0.5,0.2l0,0l0.5,0.2l0,0l0.5,0.2l0,0l0.5,0.2l0,0l0.5,0.2l0,0
		l0.5,0.2l0,0l0.5,0.2l0,0l0.5,0.2l0,0l0.5,0.2l0,0l0.5,0.2l0,0l0.5,0.2l0,0l0.5,0.2l0,0l0.5,0.2l0,0l0.5,0.2l0,0l0.5,0.2l0,0
		l0.5,0.2l0,0l0.5,0.2l0,0l0.5,0.2l0,0l0.5,0.2l0,0l0.5,0.2l0,0l0.5,0.2l0,0l0.5,0.2l0,0l0.5,0.2l0,0l0.5,0.2l0,0l0.5,0.2l0,0
		l0.5,0.2l0,0l0.5,0.2l0,0l0.5,0.2l0,0l0.5,0.2l0,0l0.5,0.2l0,0l0.5,0.2l0,0l0.5,0.2l0,0l0.5,0.1l0,0l0.5,0.1l0,0l0.5,0.1l0,0
		l0.5,0.1l0,0l0.5,0.1l0,0l0.5,0.1l0,0l0.5,0.1l0,0l0.5,0.1l0,0l0.5,0.1l0,0l0.5,0.1l0,0l0.5,0.1l0,0l0.5,0.1l0,0l0.5,0.1l0,0
		l0.5,0.1l0,0l0.5,0.1l0,0l0.5,0.1l0,0l0.5,0.1l0,0l0.5,0.1l0,0l0.5,0.1l0,0l0.5,0.1l0,0l0.5,0.1l0,0l0.5,0.1l0,0l0.5,0.1l0,0
		l0.5,0.1l0,0l0.5,0.1l0,0l0.5,0.1l0,0l0.5,0.1l0,0l0.5,0.1l0,0l0.5,0.1l0,0l0.5,0.1l0,0l0.5,0.1l0,0l0.5,0.1l0,0l0.5,0.1l0,0
		l0.5,0.1l0,0l0.5,0.1l0,0l0.5,0.1l0,0l0.5,0.1l0,0l0.5,0.1l0,0l0.5,0.1l0,0l0.5,0.1l0,0l0.5,0.1l0,0l0.5,0.1l0,0l0.5,0.1l0,0
		l0.5,0.1l0,0l0.5,0l0,0l0.5,0l0,0l0.5,0l0,0l0.5,0l0,0l0.5,0l0,0l0.5,0l0,0l0.5,0l0,0l0.5,0l0,0l0.5,0l0,0l0.5,0l0,0l0.5,0l0,0
		l0.5,0l0,0l0.5,0l0,0l0.5,0l0,0l0.5,0l0,0l0.5,0l0,0l0.5,0h0l0.5,0h0l0.5,0l0,0l0.5,0h0l0.5,0h0l0.5,0l0,0l0.5,0h0l0.5,0h0l0.5,0h0
		l0.5,0h0l0.5,0l0,0l0.5,0h0l0.5,0h0l0.5,0l0,0l0.5,0l0,0l0.5,0l0,0l0.5,0l0,0l0.5,0l0,0l0.5,0l0,0l0.5,0l0,0l0.5,0l0,0l0.5,0l0,0
		l0.5,0l0,0l0.5,0l0,0l0.5,0l0,0l0.5,0l0,0l0.5,0l0,0l0.5,0l0,0l0.5,0l0,0l0.5,0l0,0l0.5,0l0,0l0.5,0l0,0l0.5-0.1l0,0l0.5-0.1l0,0
		l0.5-0.1l0,0l0.5-0.1l0,0l0.5-0.1l0,0l0.5-0.1l0,0l0.5-0.1l0,0l0.5-0.1l0,0l0.5-0.1l0,0l0.5-0.1l0,0l0.5-0.1l0,0l0.5-0.1l0,0
		l0.5-0.1l0,0l0.5-0.1l0,0l0.5-0.1l0,0l0.5-0.1l0,0l0.5-0.1l0,0l0.5-0.1l0,0l0.5-0.1l0,0l0.5-0.1l0,0l0.5-0.1l0,0l0.5-0.1l0,0
		l0.5-0.1l0,0l0.5-0.1l0,0l0.5-0.1l0,0l0.5-0.1l0,0l0.5-0.1l0,0l0.5-0.1l0,0l0.5-0.1l0,0l0.5-0.1l0,0l0.5-0.1l0,0l0.5-0.1l0,0
		l0.5-0.1l0,0l0.5-0.1l0,0l0.5-0.1l0,0l0.5-0.1l0,0l0.5-0.1l0,0l0.5-0.1l0,0l0.5-0.1l0,0l0.5-0.1l0,0l0.5-0.1l0,0l0.5-0.1l0,0
		l0.5-0.1l0,0l0.5-0.1l0,0l0.5-0.1l0,0l0.5-0.2l0,0l0.5-0.2l0,0l0.5-0.2l0,0l0.5-0.2l0,0l0.5-0.2l0,0l0.5-0.2l0,0l0.5-0.2l0,0
		l0.5-0.2l0,0l0.5-0.2l0,0l0.5-0.2l0,0l0.5-0.2l0,0l0.5-0.2l0,0l0.5-0.2l0,0l0.5-0.2l0,0l0.5-0.2l0,0l0.5-0.2l0,0l0.5-0.2l0,0
		l0.5-0.2l0,0l0.5-0.2l0,0l0.5-0.2l0,0l0.5-0.2l0,0l0.5-0.2l0,0l0.5-0.2l0,0l0.5-0.2l0,0l0.5-0.2l0,0l0.5-0.2l0,0l0.5-0.2l0,0
		l0.5-0.2l0,0l0.5-0.2l0,0l0.5-0.2l0,0l0.5-0.2l0,0l0.5-0.2l0,0l0.5-0.2l0,0l0.5-0.2l0,0l0.5-0.2l0,0l0.5-0.2l0,0l0.5-0.2l0,0
		l0.5-0.3l0,0l0.5-0.3l0,0l0.5-0.3l0,0l0.5-0.3l0,0l0.5-0.3l0,0l0.5-0.3l0,0l0.5-0.3l0,0l0.5-0.3l0,0l0.5-0.3l0,0l0.5-0.3l0,0
		l0.5-0.3l0,0l0.5-0.3l0,0l0.5-0.3l0,0l0.5-0.3l0,0l0.5-0.3l0,0l0.5-0.3l0,0l0.5-0.3l0,0l0.5-0.3l0,0l0.5-0.3l0,0l0.5-0.3l0,0
		l0.5-0.3l0,0l0.5-0.3l0,0l0.5-0.3l0,0l0.5-0.3l0,0l0.5-0.3l0,0l0.5-0.3l0,0l0.5-0.3l0,0l0.5-0.3l0,0l0.5-0.3l0,0l0.5-0.3l0,0
		l0.5-0.4l0,0l0.5-0.4l0,0l0.5-0.4l0,0l0.5-0.4l0,0l0.5-0.4l0,0l0.5-0.4l0,0l0.5-0.4l0,0l0.5-0.4l0,0l0.5-0.4l0,0l0.5-0.4l0,0
		l0.5-0.4l0,0l0.5-0.4l0,0l0.5-0.4l0,0l0.5-0.4l0,0l0.5-0.4l0,0l0.5-0.4l0,0l0.5-0.4l0,0l0.5-0.4l0,0l0.5-0.4l0,0l0.5-0.4l0,0
		l0.5-0.4l0,0l0.5-0.4l0,0l0.5-0.5l0,0l0.5-0.5l0,0l0.5-0.5l0,0l0.5-0.5l0,0l0.5-0.5l0,0l0.5-0.5l0,0l0.5-0.5l0,0l0.5-0.5l0,0
		l0.5-0.5l0,0l0.5-0.5l0,0l0.5-0.5l0,0l0.5-0.5l0,0l0.5-0.5l0,0l0.5-0.5l0,0l0.5-0.5l0,0l0.5-0.5l0,0l0.5-0.6l0,0l0.5-0.6l0,0
		l0.5-0.6l0,0l0.5-0.6l0,0l0.5-0.6l0,0l0.5-0.6l0,0l0.5-0.6l0,0l0.5-0.6l0,0l0.5-0.6l0,0l0.5-0.6l0,0l0.5-0.6l0,0l0.5-0.7l0,0
		l0.5-0.6l0,0l0.5-0.7l0,0l0.5-0.7l0,0l0.5-0.7l0,0l0.5-0.7l0,0l0.5-0.7l0,0l0.5-0.7l0,0l0.5-0.7l0,0l0.5-0.7l0,0l0.5-0.7l0,0
		l0.5-0.8l0,0l0.5-0.8l0,0l0.5-0.8l0,0l0.5-0.8l0,0l0.5-0.8l0,0l0.5-0.8l0,0l0.5-0.9l0,0l0.5-0.9l0,0l0.5-0.9l0,0l0.5-0.9l0,0
		l0.5-0.9l0,0l0.5-1l0,0l0.5-1l0,0l0.5-1l0,0l0.5-1l0,0l0.5-1l0,0l0.5-1.1l0,0l0.5-1.1l0,0l0.5-1.1l0,0l0.5-1.2l0,0l0.5-1.2l0,0
		l0.5-1.3l0,0l0.5-1.3l0,0l0.5-1.4l0,0l0.5-1.4l0,0l0.5-1.5l0,0l0.5-1.6l0,0l0.5-1.6l0,0l0.5-1.7l0,0l0.5-1.9l0,0l0.5-2l0,0l0.5-2.2
		l0,0l0.5-2.4l0,0l0.5-2.7l0,0l0.5-3.1l0,0l0.5-3.9l0,0l0.5-5.7l0,0L316.4,142.5 M36.8,142.5h325.7 M199.6,270.9V14.1"/>
	<g>
		<path class="st2" d="M209,132.4V132v-0.4l3.3-4.5h0.4h0.4v4.6h1v0.8h-1v1.7h-0.9v-1.7H209z M212.1,131.7v-3.2l-2.2,3.1l0,0.1
			H212.1z"/>
	</g>
</g>
</svg>
