<?xml version="1.0" encoding="utf-8"?>
<!-- Generator: Adobe Illustrator 22.1.0, SVG Export Plug-In . SVG Version: 6.00 Build 0)  -->
<svg version="1.1" id="Layer_1" xmlns="http://www.w3.org/2000/svg" xmlns:xlink="http://www.w3.org/1999/xlink" x="0px" y="0px"
	 viewBox="0 0 175.8 55" style="enable-background:new 0 0 175.8 55;" xml:space="preserve">
<style type="text/css">
	.st0{fill:#00FF00;}
	.st1{fill:none;stroke:#000000;stroke-width:0.8504;stroke-miterlimit:10;}
	.st2{fill:#1D1D1B;}
	.st3{fill:#FF0000;}
	.st4{fill:#0000FF;}
</style>
<g>
	<g>
		<path class="st0" d="M3,8.4C2.9,8.8,2.8,9,2.8,9.3c0,0.3,0.2,0.7,0.5,0.7c0.3,0,1-0.2,1.3-1.3c0-0.1,0-0.1,0.1-0.1
			c0,0,0.1,0,0.1,0.1c0,0.2-0.6,1.5-1.6,1.5c-0.6,0-1-0.4-1.1-0.8c0,0.1-0.4,0.8-1,0.8c-0.4,0-0.9-0.2-0.9-0.7
			c0-0.3,0.2-0.6,0.5-0.6C1,8.9,1.2,9,1.2,9.3c0,0.3-0.2,0.5-0.5,0.5c0.2,0.1,0.4,0.1,0.5,0.1c0.4,0,0.8-0.4,0.9-1
			c0.4-1.4,0.5-2.1,0.5-2.4c0-0.6-0.3-0.7-0.5-0.7c-0.3,0-1,0.2-1.3,1.3c0,0.1-0.1,0.1-0.1,0.1c0,0-0.1,0-0.1-0.1
			c0-0.2,0.6-1.5,1.6-1.5c0.3,0,0.8,0.1,1.1,0.8c0.1-0.2,0.5-0.8,1-0.8c0.3,0,0.9,0.1,0.9,0.7c0,0.4-0.3,0.6-0.5,0.6
			c-0.3,0-0.4-0.2-0.4-0.3C4.3,6.3,4.5,6,4.8,6C4.6,5.8,4.4,5.8,4.3,5.8c-0.7,0-0.9,0.9-1,1.2L3,8.4z"/>
	</g>
	<g>
		<path class="st0" d="M6.8,12.5v-10h1.4V3h-1v9.2h1v0.4H6.8z"/>
	</g>
	<g>
		<path class="st0" d="M9.9,7.1C10,6.6,10,6.5,10,6.3C10,6,9.9,5.8,9.7,5.8C9.3,5.8,9.1,6.3,9,7C8.9,7.3,8.9,7.3,8.8,7.3
			c0,0-0.1,0-0.1-0.1c0,0,0.1-0.6,0.3-1C9.1,6,9.3,5.6,9.7,5.6c0.5,0,0.9,0.3,0.9,0.9c0.2-0.2,0.7-0.9,1.6-0.9
			c0.7,0,1.1,0.4,1.1,1.1c0,0.6-0.4,1.7-0.6,2.2c-0.1,0.2-0.2,0.5-0.2,0.7c0,0.2,0.1,0.3,0.2,0.3c0.5,0,0.8-0.6,1-1.2
			c0-0.1,0-0.2,0.1-0.2c0,0,0.1,0,0.1,0.1c0,0.1-0.4,1.5-1.3,1.5c-0.5,0-0.8-0.3-0.8-0.8c0-0.1,0-0.2,0.1-0.5
			c0.2-0.4,0.6-1.7,0.6-2.3c0-0.3-0.1-0.7-0.5-0.7c-0.9,0-1.5,0.9-1.6,1.2c0,0-0.1,0.3-0.1,0.5c0,0.2-0.1,0.4-0.2,0.7L10,9.1
			C10,9.4,9.9,9.8,9.8,9.9c-0.1,0.2-0.2,0.3-0.4,0.3c-0.1,0-0.3-0.1-0.3-0.3c0-0.1,0.1-0.3,0.1-0.4L9.9,7.1z"/>
	</g>
	<g>
		<path class="st0" d="M16,12.5h-1.4v-0.4h1V3h-1V2.6H16V12.5z"/>
	</g>
	<polyline points="48.2,9.8 52.7,7.5 48.2,5.2 49.3,7.5 	"/>
	<line class="st1" x1="24.4" y1="7.5" x2="49.3" y2="7.5"/>
	<g>
		<path class="st2" d="M112.3,10.2c0,0.1,0,0.2,0,0.2c0,0.2,0.1,0.2,0.4,0.2c0.3,0,0.4,0,0.6,0c0.3,0,0.3,0,0.3,0.1
			c0,0.2-0.1,0.2-0.2,0.2c-0.3,0-0.6,0-0.9,0c-0.3,0-0.5,0-0.8,0c-0.3,0-0.6,0-0.8,0c-0.3,0-0.5,0-0.8,0c-0.1,0-0.2,0-0.2-0.1
			c0-0.2,0.1-0.2,0.4-0.2c1.1,0,1.1-0.1,1.2-0.5l1.3-5.3c0,0,0-0.1,0-0.2c0-0.1,0-0.1-0.3-0.1h-0.4c-1.5,0-1.7,0.2-2.3,1.7
			c-0.1,0.2-0.1,0.2-0.2,0.2c-0.1,0-0.1,0-0.1-0.1c0,0,0-0.2,0.1-0.2l0.6-1.8c0.1-0.2,0.1-0.2,0.3-0.2h5.5c0.2,0,0.3,0,0.3,0.1
			c0,0,0,0.1,0,0.2l-0.3,1.7c0,0.1,0,0.2-0.1,0.2c-0.1,0-0.1-0.1-0.1-0.1c0,0,0-0.1,0-0.2c0-0.3,0.1-0.6,0.1-0.8
			c0-0.8-0.4-0.8-1.5-0.8c-0.2,0-0.5,0-0.6,0c-0.1,0-0.2,0.1-0.2,0.4L112.3,10.2z"/>
	</g>
	<polygon class="st1" points="102.3,7.5 102.3,14.6 123.6,14.6 123.6,0.4 102.3,0.4 	"/>
	<g>
		<path class="st3" d="M137.8,46.3c-1.8,0-3.3-1.5-3.3-3.3c0-1.8,1.5-3.3,3.3-3.3c1.8,0,3.3,1.5,3.3,3.3
			C141.1,44.8,139.6,46.3,137.8,46.3z M137.7,42.8v-2.9c-1.6,0.1-2.8,1.3-2.9,2.9H137.7z M137.7,43.1h-2.9c0.1,1.7,1.4,2.9,2.9,2.9
			V43.1z M137.9,42.8h3c-0.1-1.7-1.4-2.9-3-2.9V42.8z M137.9,43.1V46c1.5-0.1,2.9-1.2,3-2.9H137.9z"/>
	</g>
	<polyline points="129.7,45.2 134.2,42.9 129.7,40.7 130.8,42.9 	"/>
	<line class="st1" x1="91.7" y1="42.9" x2="130.8" y2="42.9"/>
	<polyline points="135.5,17.1 137.8,21.7 140,17.1 137.8,18.3 	"/>
	<line class="st1" x1="137.8" y1="7.5" x2="137.8" y2="18.3"/>
	<polyline points="135.5,34.8 137.8,39.4 140,34.8 137.8,36 	"/>
	<path class="st1" d="M137.8,28.8V36 M123.6,7.5h14.2"/>
	<g>
		<path class="st2" d="M137.8,28.5c-1.8,0-3.3-1.5-3.3-3.3c0-1.8,1.5-3.3,3.3-3.3c1.8,0,3.3,1.5,3.3,3.3
			C141.1,27,139.6,28.5,137.8,28.5z M137.6,25.2l-2.1-2.1c-0.5,0.6-0.8,1.3-0.8,2.1c0,0.6,0.2,1.4,0.8,2.1L137.6,25.2z M137.8,25.4
			l-2.1,2.1c0.8,0.8,1.7,0.8,2.1,0.8c1.3,0,2.1-0.8,2.1-0.8c0,0-0.1-0.1-0.1-0.1L137.8,25.4z M137.8,25.1l2.1-2.1
			c-0.8-0.8-1.7-0.8-2.1-0.8c-1.3,0-2.1,0.8-2.1,0.8c0,0,0.1,0.1,0.1,0.1L137.8,25.1z M138,25.2l2.1,2.1c0.5-0.6,0.8-1.3,0.8-2.1
			c0-0.8-0.3-1.6-0.8-2.1L138,25.2z"/>
	</g>
	<polyline points="129.7,27.5 134.2,25.2 129.7,22.9 130.8,25.2 	"/>
	<line class="st1" x1="123.6" y1="25.2" x2="130.8" y2="25.2"/>
	<g>
		<path class="st2" d="M109.9,24.3c0.4-0.5,0.8-0.8,1.5-0.8c0.7,0,1.1,0.4,1.1,1.1c0,0.6-0.4,1.8-0.6,2.2c-0.1,0.2-0.2,0.5-0.2,0.7
			c0,0.2,0.1,0.3,0.2,0.3c0.5,0,0.9-0.7,1-1.2c0-0.1,0-0.2,0.1-0.2c0,0,0.1,0,0.1,0.1c0,0.1-0.4,1.5-1.3,1.5c-0.5,0-0.8-0.3-0.8-0.8
			c0-0.2,0-0.3,0.1-0.5c0.2-0.6,0.6-1.7,0.6-2.2c0-0.4-0.1-0.7-0.5-0.7s-0.7,0.2-1,0.3c-0.3,0.3-0.6,0.8-0.7,0.9
			c0,0.1-0.1,0.4-0.1,0.4c0,0.2-0.1,0.4-0.2,0.7l-0.2,0.9l-0.2,0.8c0,0.1-0.2,0.3-0.4,0.3c-0.1,0-0.3,0-0.3-0.3c0-0.1,0-0.1,0-0.2
			l1.4-5.7l0-0.2c0-0.1,0-0.2-0.5-0.2c-0.1,0-0.2,0-0.2-0.1c0-0.2,0.1-0.2,0.2-0.2c0.3,0,1-0.1,1.2-0.1c0.1,0,0.1,0.1,0.1,0.1
			L109.9,24.3z"/>
	</g>
	<g>
		<path class="st2" d="M116.9,29.4H114c0-0.2,0-0.2,0.1-0.3l1.7-1.7c0.2-0.3,0.7-0.7,0.7-1.3c0-0.6-0.4-1.1-1.1-1.1
			c-0.3,0-0.8,0.2-1,0.6c0.4,0,0.4,0.2,0.4,0.4c0,0.3-0.2,0.4-0.4,0.4c-0.1,0-0.4,0-0.4-0.4c0-0.6,0.6-1.2,1.5-1.2
			c0.9,0,1.6,0.5,1.6,1.4c0,0.7-0.5,1.1-1,1.5c-0.4,0.3-0.7,0.5-1.4,1.2h1.3c0.1,0,0.6,0,0.7,0c0.1-0.1,0.2-0.5,0.2-0.6h0.2
			L116.9,29.4z"/>
	</g>
	<polyline points="147.4,45.2 151.9,42.9 147.4,40.7 148.5,42.9 	"/>
	<line class="st1" x1="141.3" y1="42.9" x2="148.5" y2="42.9"/>
	<g>
		<path class="st2" d="M162.9,45.5c-0.3,1.1-1.3,2-2.3,2c-0.6,0-1.1-0.4-1.1-0.9c0-0.5,0.3-0.6,0.6-0.6c0.1,0,0.4,0,0.4,0.3
			c0,0.2-0.1,0.3-0.2,0.4c-0.1,0.1-0.3,0.1-0.4,0.1c0.2,0.4,0.6,0.4,0.8,0.4c0.5,0,0.8-0.3,1.1-0.6c0.4-0.5,0.5-1,0.6-1.5
			c-0.3,0.3-0.6,0.4-1,0.4c-0.6,0-1.2-0.3-1.2-1.2c0-0.5,0.2-1,0.6-2.1c0.1-0.2,0.2-0.4,0.2-0.7c0-0.3-0.2-0.3-0.2-0.3
			c-0.3,0-0.7,0.3-1,1.2c0,0.2-0.1,0.2-0.2,0.2c0,0-0.1,0-0.1-0.1c0-0.1,0.4-1.5,1.3-1.5c0.5,0,0.8,0.4,0.8,0.8c0,0.2,0,0.3-0.2,0.7
			c-0.3,0.9-0.5,1.5-0.5,2c0,0.4,0.1,0.8,0.6,0.8c0.7,0,1.1-0.7,1.1-0.8l0.4-1.8c0.1-0.3,0.1-0.5,0.2-0.8c0-0.2,0.1-0.5,0.1-0.5
			c0.1-0.1,0.2-0.2,0.3-0.2c0.1,0,0.3,0.1,0.3,0.3c0,0.1,0,0.1,0,0.2L162.9,45.5z"/>
	</g>
	<g>
		<path class="st2" d="M165.5,47.9V38h1.4v0.4h-1v9.2h1v0.4H165.5z"/>
	</g>
	<g>
		<path class="st2" d="M168.5,42.6c0.1-0.5,0.2-0.6,0.2-0.8c0-0.3-0.1-0.5-0.3-0.5c-0.4,0-0.6,0.5-0.7,1.2c-0.1,0.2-0.1,0.2-0.2,0.2
			c0,0-0.1,0-0.1-0.1c0,0,0.1-0.6,0.3-1c0.1-0.2,0.3-0.6,0.7-0.6c0.5,0,0.9,0.3,0.9,0.9c0.2-0.2,0.7-0.9,1.6-0.9
			c0.7,0,1.1,0.4,1.1,1.1c0,0.6-0.4,1.7-0.6,2.2c-0.1,0.2-0.2,0.5-0.2,0.7c0,0.2,0.1,0.3,0.2,0.3c0.5,0,0.8-0.6,1-1.2
			c0.1-0.1,0.1-0.2,0.2-0.2c0,0,0.1,0,0.1,0.1c0,0.1-0.4,1.5-1.3,1.5c-0.5,0-0.8-0.3-0.8-0.8c0-0.1,0-0.2,0.1-0.5
			c0.2-0.4,0.6-1.7,0.6-2.3c0-0.3-0.1-0.7-0.5-0.7c-0.9,0-1.5,0.9-1.6,1.2c0,0-0.1,0.3-0.1,0.5c0,0.2-0.1,0.4-0.2,0.7l-0.2,0.9
			c-0.1,0.2-0.2,0.7-0.2,0.7c-0.1,0.2-0.2,0.3-0.4,0.3c-0.1,0-0.3-0.1-0.3-0.3c0,0,0.1-0.3,0.1-0.4L168.5,42.6z"/>
	</g>
	<g>
		<path class="st2" d="M174.6,47.9h-1.4v-0.4h1v-9.2h-1V38h1.4V47.9z"/>
	</g>
	<polyline points="36.3,17.1 38.5,21.7 40.8,17.1 38.5,18.3 	"/>
	<path class="st1" d="M38.5,7.5v10.8 M38.5,28.8v14.2"/>
	<g>
		<path class="st2" d="M38.6,28.5c-1.8,0-3.3-1.5-3.3-3.3c0-1.8,1.5-3.3,3.3-3.3c1.8,0,3.3,1.5,3.3,3.3C41.9,27,40.4,28.5,38.6,28.5
			z M38.4,25.2l-2.1-2.1c-0.5,0.6-0.8,1.3-0.8,2.1c0,0.6,0.2,1.4,0.8,2.1L38.4,25.2z M38.6,25.4l-2.1,2.1c0.8,0.8,1.7,0.8,2.1,0.8
			c1.3,0,2.1-0.8,2.1-0.8c0,0-0.1-0.1-0.1-0.1L38.6,25.4z M38.6,25.1l2.1-2.1c-0.8-0.8-1.7-0.8-2.1-0.8c-1.3,0-2.1,0.8-2.1,0.8
			c0,0,0.1,0.1,0.1,0.1L38.6,25.1z M38.8,25.2l2.1,2.1c0.5-0.6,0.8-1.3,0.8-2.1c0-0.8-0.3-1.6-0.8-2.1L38.8,25.2z"/>
	</g>
	<polyline points="31,27.5 35.5,25.2 31,22.9 32.1,25.2 	"/>
	<line class="st1" x1="26.4" y1="25.2" x2="32.1" y2="25.2"/>
	<g>
		<path class="st2" d="M14.2,24.3c0.4-0.5,0.8-0.8,1.5-0.8c0.7,0,1.1,0.4,1.1,1.1c0,0.6-0.4,1.8-0.6,2.2C16.1,27,16,27.3,16,27.5
			c0,0.2,0.1,0.3,0.2,0.3c0.5,0,0.9-0.7,1-1.2c0-0.1,0-0.2,0.1-0.2c0,0,0.1,0,0.1,0.1c0,0.1-0.4,1.5-1.3,1.5c-0.5,0-0.8-0.3-0.8-0.8
			c0-0.2,0-0.3,0.1-0.5c0.2-0.6,0.6-1.7,0.6-2.2c0-0.4-0.1-0.7-0.5-0.7c-0.4,0-0.7,0.2-1,0.3C14.3,24.4,14,24.9,14,25
			c0,0.1-0.1,0.4-0.1,0.4c0,0.2-0.1,0.4-0.2,0.7L13.5,27l-0.2,0.8c0,0.1-0.2,0.3-0.4,0.3c-0.1,0-0.3,0-0.3-0.3c0-0.1,0-0.1,0-0.2
			l1.4-5.7l0-0.2c0-0.1,0-0.2-0.5-0.2c-0.1,0-0.2,0-0.2-0.1c0-0.2,0.1-0.2,0.2-0.2c0.3,0,1-0.1,1.2-0.1c0.1,0,0.1,0.1,0.1,0.1
			L14.2,24.3z"/>
	</g>
	<g>
		<path class="st2" d="M19.9,29.5c-1.6,0-1.6-1.9-1.6-2.4s0-2.4,1.6-2.4c0.6,0,1,0.3,1.2,0.6c0.3,0.5,0.4,1,0.4,1.8
			C21.5,27.7,21.5,29.5,19.9,29.5z M20.8,28.6c0.1-0.4,0.1-1,0.1-1.5c0-0.6,0-1.1-0.1-1.5c-0.1-0.4-0.5-0.6-0.9-0.6
			c-0.3,0-0.7,0.1-0.9,0.7c-0.1,0.4-0.1,0.9-0.1,1.4c0,0.5,0,1.1,0.1,1.5c0.1,0.6,0.6,0.8,0.9,0.8C20.1,29.4,20.6,29.2,20.8,28.6z"
			/>
	</g>
	<g>
		<path class="st2" d="M62.7,10.2c0,0.1,0,0.2,0,0.2c0,0.2,0.1,0.2,0.4,0.2c0.3,0,0.4,0,0.6,0c0.3,0,0.3,0,0.3,0.1
			c0,0.2-0.1,0.2-0.2,0.2c-0.3,0-0.6,0-0.9,0c-0.3,0-0.5,0-0.8,0c-0.3,0-0.6,0-0.8,0c-0.3,0-0.5,0-0.8,0c-0.1,0-0.2,0-0.2-0.1
			c0-0.2,0.1-0.2,0.4-0.2c1.1,0,1.1-0.1,1.2-0.5l1.3-5.3c0,0,0-0.1,0-0.2c0-0.1,0-0.1-0.3-0.1h-0.4c-1.5,0-1.7,0.2-2.3,1.7
			c-0.1,0.2-0.1,0.2-0.2,0.2c-0.1,0-0.1,0-0.1-0.1c0,0,0-0.2,0.1-0.2l0.6-1.8c0.1-0.2,0.1-0.2,0.3-0.2h5.5c0.2,0,0.3,0,0.3,0.1
			c0,0,0,0.1,0,0.2l-0.3,1.7c0,0.1,0,0.2-0.1,0.2c-0.1,0-0.1-0.1-0.1-0.1c0,0,0-0.1,0-0.2c0-0.3,0.1-0.6,0.1-0.8
			c0-0.8-0.4-0.8-1.5-0.8c-0.2,0-0.5,0-0.6,0c-0.1,0-0.2,0.1-0.2,0.4L62.7,10.2z"/>
	</g>
	<polygon class="st1" points="52.7,7.5 52.7,14.6 74,14.6 74,0.4 52.7,0.4 	"/>
	<g>
		<path class="st3" d="M88.2,46.3c-1.8,0-3.3-1.5-3.3-3.3c0-1.8,1.5-3.3,3.3-3.3c1.8,0,3.3,1.5,3.3,3.3C91.5,44.8,90,46.3,88.2,46.3
			z M88.1,42.8v-2.9c-1.6,0.1-2.8,1.3-2.9,2.9H88.1z M88.1,43.1h-2.9c0.1,1.7,1.4,2.9,2.9,2.9V43.1z M88.3,42.8h3
			c-0.1-1.7-1.4-2.9-3-2.9V42.8z M88.3,43.1V46c1.5-0.1,2.9-1.2,3-2.9H88.3z"/>
	</g>
	<polyline points="80.1,45.2 84.6,42.9 80.1,40.7 81.2,42.9 	"/>
	<line class="st1" x1="38.5" y1="42.9" x2="81.2" y2="42.9"/>
	<polyline points="85.9,17.1 88.1,21.7 90.4,17.1 88.1,18.3 	"/>
	<line class="st1" x1="88.1" y1="7.5" x2="88.1" y2="18.3"/>
	<polyline points="85.9,34.8 88.1,39.4 90.4,34.8 88.1,36 	"/>
	<line class="st1" x1="88.1" y1="28.8" x2="88.1" y2="36"/>
	<polyline points="97.8,9.8 102.3,7.5 97.8,5.2 98.9,7.5 	"/>
	<line class="st1" x1="74" y1="7.5" x2="98.9" y2="7.5"/>
	<g>
		<path class="st2" d="M88.2,28.5c-1.8,0-3.3-1.5-3.3-3.3c0-1.8,1.5-3.3,3.3-3.3c1.8,0,3.3,1.5,3.3,3.3C91.5,27,90,28.5,88.2,28.5z
			 M88,25.2l-2.1-2.1c-0.5,0.6-0.8,1.3-0.8,2.1c0,0.6,0.2,1.4,0.8,2.1L88,25.2z M88.2,25.4l-2.1,2.1c0.8,0.8,1.7,0.8,2.1,0.8
			c1.3,0,2.1-0.8,2.1-0.8c0,0-0.1-0.1-0.1-0.1L88.2,25.4z M88.2,25.1l2.1-2.1c-0.8-0.8-1.7-0.8-2.1-0.8c-1.3,0-2.1,0.8-2.1,0.8
			c0,0,0.1,0.1,0.1,0.1L88.2,25.1z M88.4,25.2l2.1,2.1c0.5-0.6,0.8-1.3,0.8-2.1c0-0.8-0.3-1.6-0.8-2.1L88.4,25.2z"/>
	</g>
	<polyline points="80.1,27.5 84.6,25.2 80.1,22.9 81.2,25.2 	"/>
	<line class="st1" x1="74" y1="25.2" x2="81.2" y2="25.2"/>
	<g>
		<path class="st2" d="M60.3,24.3c0.4-0.5,0.8-0.8,1.5-0.8c0.7,0,1.1,0.4,1.1,1.1c0,0.6-0.4,1.8-0.6,2.2c-0.1,0.2-0.2,0.5-0.2,0.7
			c0,0.2,0.1,0.3,0.2,0.3c0.5,0,0.9-0.7,1-1.2c0-0.1,0-0.2,0.1-0.2c0,0,0.1,0,0.1,0.1c0,0.1-0.4,1.5-1.3,1.5c-0.5,0-0.8-0.3-0.8-0.8
			c0-0.2,0-0.3,0.1-0.5c0.2-0.6,0.6-1.7,0.6-2.2c0-0.4-0.1-0.7-0.5-0.7c-0.4,0-0.7,0.2-1,0.3c-0.3,0.3-0.6,0.8-0.7,0.9
			c0,0.1-0.1,0.4-0.1,0.4c0,0.2-0.1,0.4-0.2,0.7L59.6,27l-0.2,0.8c0,0.1-0.2,0.3-0.4,0.3c-0.1,0-0.3,0-0.3-0.3c0-0.1,0-0.1,0-0.2
			l1.4-5.7l0-0.2c0-0.1,0-0.2-0.5-0.2c-0.1,0-0.2,0-0.2-0.1c0-0.2,0.1-0.2,0.2-0.2c0.3,0,1-0.1,1.2-0.1c0.1,0,0.1,0.1,0.1,0.1
			L60.3,24.3z"/>
	</g>
	<g>
		<path class="st2" d="M66.3,28.8c0,0.2,0,0.3,0.7,0.3h0.3v0.3c-0.2,0-1,0-1.2,0c-0.3,0-1.1,0-1.2,0v-0.3H65c0.7,0,0.7-0.1,0.7-0.3
			v-3.6c-0.4,0.2-0.8,0.2-1,0.2v-0.3c0.3,0,0.9,0,1.4-0.4c0.2,0,0.2,0,0.2,0.2V28.8z"/>
	</g>
	<g>
		<path class="st4" d="M88.1,9.2c-1.1,0-1.9-0.9-1.9-1.9c0-1,0.9-1.9,1.9-1.9c1,0,1.9,0.9,1.9,1.9C90,8.4,89.2,9.2,88.1,9.2z"/>
	</g>
	<g>
		<path class="st4" d="M38.5,9.2c-1.1,0-1.9-0.9-1.9-1.9c0-1,0.9-1.9,1.9-1.9c1,0,1.9,0.9,1.9,1.9C40.4,8.4,39.6,9.2,38.5,9.2z"/>
	</g>
</g>
</svg>
