<svg id="Layer_1" data-name="Layer 1" xmlns="http://www.w3.org/2000/svg" viewBox="0 0 105.336 30.03">
  <defs>
    <style>
      .cls-1 {
        fill: none;
        stroke: #000;
        stroke-miterlimit: 10;
        stroke-width: 0.85px;
      }

      .cls-2 {
        fill: #1d1d1b;
      }
    </style>
  </defs>
  <title>delay</title>
  <g>
    <polyline points="25.147 17.699 29.682 15.432 25.147 13.164 26.28 15.432"/>
    <line class="cls-1" x1="1.336" y1="15.432" x2="26.28" y2="15.432"/>
    <path class="cls-2" d="M631.989,375.739a3.86,3.86,0,0,0-.169.877c0,.339.159.658.548.658.319,0,1-.239,1.325-1.306.02-.07.04-.109.13-.109.03,0,.119,0,.119.1,0,.25-.568,1.535-1.594,1.535a1.1,1.1,0,0,1-1.076-.757,1.326,1.326,0,0,1-1.046.757c-.439,0-.937-.2-.937-.658a.567.567,0,0,1,.548-.578.342.342,0,0,1,.369.349.565.565,0,0,1-.469.538.958.958,0,0,0,.5.13c.439,0,.787-.419.947-1.037a14.471,14.471,0,0,0,.538-2.371c0-.578-.348-.668-.538-.668-.339,0-1,.25-1.335,1.306-.02.089-.05.109-.13.109-.02,0-.119,0-.119-.1,0-.249.568-1.535,1.6-1.535a1.1,1.1,0,0,1,1.076.757,1.291,1.291,0,0,1,1.046-.757c.339,0,.927.14.927.658a.556.556,0,0,1-.538.578.348.348,0,0,1-.379-.349.58.58,0,0,1,.479-.538.976.976,0,0,0-.5-.13c-.7,0-.926.917-.986,1.176Z" transform="translate(-629.289 -369.91)"/>
    <path class="cls-2" d="M635.816,379.875V369.91h1.366v.4h-.967v9.167h.967v.4Z" transform="translate(-629.289 -369.91)"/>
    <path class="cls-2" d="M638.853,374.494a3.2,3.2,0,0,0,.16-.837c0-.329-.11-.459-.309-.459-.359,0-.558.479-.727,1.186-.06.22-.07.229-.17.229-.02,0-.119,0-.119-.1a5.031,5.031,0,0,1,.3-.967.871.871,0,0,1,.747-.568.9.9,0,0,1,.917.867,1.928,1.928,0,0,1,1.555-.867,1.019,1.019,0,0,1,1.146,1.066,8.982,8.982,0,0,1-.608,2.192,1.9,1.9,0,0,0-.18.708c0,.229.07.329.24.329.488,0,.817-.558,1.016-1.236.05-.149.05-.179.149-.179.03,0,.12,0,.12.1,0,.08-.369,1.535-1.3,1.535a.8.8,0,0,1-.818-.817,1.154,1.154,0,0,1,.1-.459,9.454,9.454,0,0,0,.648-2.321c0-.329-.09-.7-.538-.7a1.981,1.981,0,0,0-1.624,1.216c-.01.04-.09.329-.13.5-.05.23-.109.449-.169.668l-.219.9c-.06.249-.18.717-.19.737a.408.408,0,0,1-.368.279.266.266,0,0,1-.289-.269c0-.05.06-.279.089-.429Z" transform="translate(-629.289 -369.91)"/>
    <path class="cls-2" d="M644.983,379.875h-1.365v-.4h.966v-9.167h-.966v-.4h1.365Z" transform="translate(-629.289 -369.91)"/>
    <polyline points="88.745 17.848 93.291 15.602 88.767 13.312 89.89 15.585"/>
    <line class="cls-1" x1="58.028" y1="15.432" x2="89.89" y2="15.585"/>
    <path class="cls-2" d="M704.356,375.739a3.918,3.918,0,0,0-.169.877c0,.339.16.658.548.658.319,0,1-.239,1.326-1.306.019-.07.039-.109.128-.109.031,0,.121,0,.121.1,0,.25-.569,1.535-1.595,1.535a1.1,1.1,0,0,1-1.076-.757,1.326,1.326,0,0,1-1.046.757c-.439,0-.937-.2-.937-.658a.567.567,0,0,1,.548-.578.342.342,0,0,1,.369.349.565.565,0,0,1-.469.538.957.957,0,0,0,.5.13c.438,0,.787-.419.946-1.037a14.471,14.471,0,0,0,.538-2.371c0-.578-.349-.668-.538-.668-.338,0-1,.25-1.335,1.306-.02.089-.05.109-.129.109-.021,0-.12,0-.12-.1,0-.249.568-1.535,1.6-1.535a1.1,1.1,0,0,1,1.077.757,1.286,1.286,0,0,1,1.045-.757c.339,0,.927.14.927.658a.555.555,0,0,1-.538.578.349.349,0,0,1-.379-.349.578.578,0,0,1,.479-.538.976.976,0,0,0-.5-.13c-.7,0-.927.917-.987,1.176Z" transform="translate(-629.289 -369.91)"/>
    <path class="cls-2" d="M708.184,379.875V369.91h1.365v.4h-.967v9.167h.967v.4Z" transform="translate(-629.289 -369.91)"/>
    <path class="cls-2" d="M711.221,374.494a3.227,3.227,0,0,0,.159-.837c0-.329-.109-.459-.309-.459-.359,0-.558.479-.727,1.186-.06.22-.071.229-.17.229-.02,0-.119,0-.119-.1a4.983,4.983,0,0,1,.3-.967.87.87,0,0,1,.747-.568.9.9,0,0,1,.917.867,1.924,1.924,0,0,1,1.554-.867,1.019,1.019,0,0,1,1.146,1.066,8.982,8.982,0,0,1-.608,2.192,1.921,1.921,0,0,0-.179.708c0,.229.069.329.239.329.488,0,.816-.558,1.016-1.236.05-.149.05-.179.15-.179.029,0,.119,0,.119.1,0,.08-.369,1.535-1.306,1.535a.8.8,0,0,1-.816-.817,1.136,1.136,0,0,1,.1-.459,9.5,9.5,0,0,0,.647-2.321c0-.329-.09-.7-.538-.7a1.983,1.983,0,0,0-1.624,1.216c-.01.04-.09.329-.13.5-.05.23-.109.449-.169.668l-.22.9c-.059.249-.178.717-.189.737a.407.407,0,0,1-.368.279.266.266,0,0,1-.289-.269c0-.05.059-.279.09-.429Z" transform="translate(-629.289 -369.91)"/>
    <path class="cls-2" d="M719.215,375.092c-.169,0-.349,0-.349-.2s.18-.2.349-.2h5.39c.169,0,.349,0,.349.2s-.18.2-.349.2Z" transform="translate(-629.289 -369.91)"/>
    <g>
      <path class="cls-2" d="M730.93,376.6c0,.369.029.478.926.478h.319v.309c-.349-.029-1.216-.029-1.614-.029s-1.266,0-1.615.029v-.309h.32c.9,0,.926-.119.926-.478v-5.161a2.984,2.984,0,0,1-1.305.259v-.309a2.46,2.46,0,0,0,1.813-.638c.23,0,.23.02.23.259Z" transform="translate(-629.289 -369.91)"/>
      <path class="cls-2" d="M734.625,379.875H733.26v-.4h.967v-9.167h-.967v-.4h1.365Z" transform="translate(-629.289 -369.91)"/>
    </g>
    <path class="cls-2" d="M672.734,387.9a.864.864,0,0,0-.04.209c0,.159.08.19.369.219.259.02.389.02.638.02s.339,0,.339.109c0,.2-.12.2-.22.2-.279,0-.578-.019-.867-.019-.269,0-.548-.01-.827-.01s-.567.01-.847.01-.548.019-.817.019c-.06,0-.169,0-.169-.119,0-.189.06-.189.418-.189,1.066,0,1.1-.11,1.186-.479l1.335-5.32a.981.981,0,0,0,.04-.21c0-.079,0-.119-.279-.119H672.6c-1.474,0-1.733.179-2.271,1.724-.06.16-.07.208-.169.208a.112.112,0,0,1-.12-.109,1.255,1.255,0,0,1,.06-.179l.6-1.754c.069-.189.079-.2.319-.2h5.529c.17,0,.269,0,.269.11a.99.99,0,0,1-.02.169l-.269,1.734c-.02.149-.039.228-.149.228a.116.116,0,0,1-.12-.129,1.5,1.5,0,0,1,.03-.189,7.32,7.32,0,0,0,.08-.8c0-.777-.449-.817-1.455-.817a5.4,5.4,0,0,0-.627.02c-.12.03-.16.09-.23.368Z" transform="translate(-629.289 -369.91)"/>
    <polygon class="cls-1" points="29.682 15.432 29.682 1.259 58.028 1.259 58.028 29.605 29.682 29.605 29.682 15.432"/>
  </g>
</svg>
