<svg id="Layer_1" data-name="Layer 1" xmlns="http://www.w3.org/2000/svg" viewBox="0 0 375.75 125.429">
  <defs>
    <style>
      .cls-1 {
        fill: #1d1d1b;
      }

      .cls-2 {
        fill: red;
      }

      .cls-3 {
        fill: blue;
      }

      .cls-4, .cls-5, .cls-6, .cls-7, .cls-8, .cls-9 {
        fill: none;
        stroke-miterlimit: 10;
      }

      .cls-4, .cls-5, .cls-6, .cls-8 {
        stroke: #000;
      }

      .cls-4, .cls-6, .cls-8, .cls-9 {
        stroke-width: 0.85px;
      }

      .cls-5, .cls-7 {
        stroke-width: 1.701px;
      }

      .cls-6, .cls-8 {
        stroke-linecap: round;
        stroke-dashoffset: -0.425px;
      }

      .cls-6 {
        stroke-dasharray: 0 3.668;
      }

      .cls-7 {
        stroke: lime;
      }

      .cls-8 {
        stroke-dasharray: 0 3.706;
      }

      .cls-9 {
        stroke: blue;
      }
    </style>
  </defs>
  <title>examplecosinout</title>
  <g>
    <path class="cls-1" d="M643.448,433.527a1.017,1.017,0,0,0-.03.169c0,.18.279.18.647.18.19,0,.28,0,.28.109,0,.2-.12.2-.2.2-.21,0-.429-.02-.648-.02s-.429-.011-.638-.011c-.279,0-.986.031-1.265.031-.02,0-.14,0-.14-.11,0-.2.09-.2.239-.2.618,0,.807-.01.907-.329.04-.15.269-1.1.688-2.75H640.25l-.678,2.73a1.017,1.017,0,0,0-.03.169c0,.18.279.18.647.18.19,0,.28,0,.28.109,0,.2-.12.2-.2.2-.21,0-.429-.02-.648-.02s-.429-.011-.638-.011c-.279,0-.986.031-1.265.031-.02,0-.14,0-.14-.11,0-.2.09-.2.269-.2.787,0,.807-.08.907-.469l1.335-5.35a.864.864,0,0,0,.04-.19c0-.129-.09-.139-.269-.159a3.628,3.628,0,0,0-.379-.02c-.189,0-.279,0-.279-.11,0-.2.11-.2.19-.2.289,0,1,.03,1.285.03s1-.03,1.275-.03c.03,0,.14,0,.14.11,0,.2-.08.2-.339.2-.717,0-.747.1-.837.458l-.588,2.342h3.039l.6-2.431a1.011,1.011,0,0,0,.04-.19c0-.129-.09-.139-.269-.159a3.628,3.628,0,0,0-.379-.02c-.189,0-.279,0-.279-.11,0-.2.11-.2.19-.2.289,0,1,.03,1.285.03s1-.03,1.275-.03c.03,0,.14,0,.14.11,0,.2-.08.2-.339.2-.728,0-.747.1-.837.458Z" transform="translate(-498.055 -322.555)"/>
    <g>
      <path class="cls-1" d="M649.506,436.676a4.3,4.3,0,0,1-1.554-1.873,7.673,7.673,0,0,1-.03-6.149,4.335,4.335,0,0,1,1.584-1.942.089.089,0,0,1,.1.1c0,.029,0,.049-.129.168a6.519,6.519,0,0,0-1.6,4.713,6.6,6.6,0,0,0,1.565,4.663c.168.17.168.19.168.22A.089.089,0,0,1,649.506,436.676Z" transform="translate(-498.055 -322.555)"/>
      <path class="cls-1" d="M651.548,433.378a1.343,1.343,0,0,0,1.126.667,1.4,1.4,0,0,0,1.345-1.026c.02-.08.04-.14.129-.14a.116.116,0,0,1,.13.12,1.7,1.7,0,0,1-1.664,1.295,2.249,2.249,0,0,1-2.192-2.3,2.177,2.177,0,0,1,2.073-2.271,1.767,1.767,0,0,1,1.783,1.953c0,.209-.03.209-.249.209h-2.78A2.9,2.9,0,0,0,651.548,433.378Zm2.073-1.7c0-.389-.1-1.735-1.126-1.735-.339,0-1.176.25-1.236,1.735Z" transform="translate(-498.055 -322.555)"/>
    </g>
    <path class="cls-1" d="M656.681,431.081a1.435,1.435,0,0,1-1.365,1.545c-.568,0-1.126-.279-1.126-.8a.459.459,0,0,1,.917,0,.459.459,0,0,1-.349.449,1.217,1.217,0,0,0,.538.129c.638,0,.727-.856.727-1.3v-3.947c0-.488-.089-.557-.856-.557v-.31l1.514-.109Zm-.528-6.107a.529.529,0,1,1,.528-.529A.532.532,0,0,1,656.153,424.974Z" transform="translate(-498.055 -322.555)"/>
    <g>
      <path class="cls-1" d="M659.325,429.711c-.167.628-.244.941-.523.941a.225.225,0,0,1-.244-.222.344.344,0,0,1,.021-.105,2.921,2.921,0,0,0,.132-.265,12.565,12.565,0,0,0,.8-2.008h-.426a1.088,1.088,0,0,0-.942.488c-.041.063-.048.076-.125.076-.028,0-.118,0-.118-.083a2.131,2.131,0,0,1,.453-.6,1.023,1.023,0,0,1,.795-.357h2.629c.118,0,.3,0,.3.2a.293.293,0,0,1-.119.217.366.366,0,0,1-.258.056h-.871a4.311,4.311,0,0,0-.1.906,2.659,2.659,0,0,0,.258,1.228.256.256,0,0,1,.056.153.34.34,0,0,1-.328.313c-.112,0-.2-.027-.314-.376a2.247,2.247,0,0,1-.076-.621,7.1,7.1,0,0,1,.257-1.6h-.83Z" transform="translate(-498.055 -322.555)"/>
      <path class="cls-1" d="M663.4,432.152c-.035.09-.07.174-.189.174a.17.17,0,0,1-.167-.174c0-.028,0-.042.042-.132l2.6-6.493c.035-.09.07-.173.189-.173a.17.17,0,0,1,.167.173c0,.029,0,.042-.042.133Z" transform="translate(-498.055 -322.555)"/>
    </g>
    <path class="cls-1" d="M668.116,428.254c-.118,0-.181,0-.181-.1a.081.081,0,0,1,.069-.091c.035-.006.049-.006.224-.02a.9.9,0,0,0,.773-.3,1.337,1.337,0,0,0,.28-.83.7.7,0,0,0-.754-.76,1.325,1.325,0,0,0-.983.383.356.356,0,0,1,.356.363.359.359,0,1,1-.718-.014c0-.558.592-.934,1.366-.934s1.409.411,1.409.962a1.33,1.33,0,0,1-1,1.213,1.378,1.378,0,0,1,1.213,1.249,1.5,1.5,0,0,1-1.639,1.346c-.844,0-1.569-.426-1.569-1.081a.387.387,0,1,1,.774-.021.377.377,0,0,1-.4.39,1.517,1.517,0,0,0,1.186.488c.4,0,.906-.258.906-1.122,0-.746-.39-1.123-.934-1.123Z" transform="translate(-498.055 -322.555)"/>
    <g>
      <path class="cls-1" d="M673.4,434.732a4.347,4.347,0,0,1-1.584,1.944.094.094,0,0,1-.1-.1c0-.03,0-.05.13-.17a6.535,6.535,0,0,0,1.6-4.713,6.466,6.466,0,0,0-1.544-4.653c-.19-.179-.19-.2-.19-.228a.094.094,0,0,1,.1-.1,4.308,4.308,0,0,1,1.555,1.873,7.674,7.674,0,0,1,.029,6.147Z" transform="translate(-498.055 -322.555)"/>
      <path class="cls-1" d="M678.644,430.927c-.15,0-.339,0-.339-.2s.189-.2.328-.2H684.6c.139,0,.329,0,.329.2s-.19.2-.339.2Zm-.011,1.932c-.139,0-.328,0-.328-.2s.189-.2.339-.2h5.948c.149,0,.339,0,.339.2s-.19.2-.329.2Z" transform="translate(-498.055 -322.555)"/>
    </g>
    <path class="cls-2" d="M692.861,432.48a2.032,2.032,0,0,1-2.122,1.923,1.816,1.816,0,0,1-2.012-1.563.558.558,0,1,1,1.115-.021.545.545,0,0,1-.657.548,1.812,1.812,0,0,0,1.524.758c.438,0,1.126-.289,1.126-1.645,0-.976-.369-1.653-1.186-1.653h-.438c-.17,0-.239,0-.239-.11s.069-.11.149-.119.309-.021.389-.031a.963.963,0,0,0,.886-.517,2.5,2.5,0,0,0,.28-1.136c0-.9-.549-1.116-.957-1.116a1.613,1.613,0,0,0-1.325.617c.149,0,.618,0,.618.5A.509.509,0,1,1,689,428.9c0-.757.757-1.354,1.764-1.354.956,0,1.833.557,1.833,1.375a1.8,1.8,0,0,0,.269,3.556Z" transform="translate(-498.055 -322.555)"/>
    <path class="cls-1" d="M694.627,433.378a1.34,1.34,0,0,0,1.126.667,1.4,1.4,0,0,0,1.345-1.026c.019-.08.04-.14.13-.14a.115.115,0,0,1,.128.12,1.7,1.7,0,0,1-1.664,1.295,2.249,2.249,0,0,1-2.191-2.3,2.177,2.177,0,0,1,2.072-2.271,1.767,1.767,0,0,1,1.783,1.953c0,.209-.029.209-.249.209h-2.779A2.9,2.9,0,0,0,694.627,433.378Zm2.072-1.7c0-.389-.1-1.735-1.126-1.735-.339,0-1.176.25-1.235,1.735Z" transform="translate(-498.055 -322.555)"/>
    <path class="cls-1" d="M698.7,429.007c-.119,0-.279,0-.279-.174s.168-.168.279-.168h4.156c.119,0,.279,0,.279.175s-.167.167-.279.167Z" transform="translate(-498.055 -322.555)"/>
    <path class="cls-1" d="M706,431.081a1.435,1.435,0,0,1-1.365,1.545c-.569,0-1.126-.279-1.126-.8a.459.459,0,0,1,.917,0,.46.46,0,0,1-.35.449,1.217,1.217,0,0,0,.538.129c.638,0,.728-.856.728-1.3v-3.947c0-.488-.09-.557-.857-.557v-.31l1.515-.109Zm-.528-6.107a.529.529,0,1,1,.528-.529A.533.533,0,0,1,705.474,424.974Z" transform="translate(-498.055 -322.555)"/>
    <g>
      <path class="cls-3" d="M708.638,429.711c-.167.628-.244.941-.524.941a.225.225,0,0,1-.243-.222.344.344,0,0,1,.021-.105c.02-.028.09-.175.132-.265a12.67,12.67,0,0,0,.8-2.008H708.4a1.085,1.085,0,0,0-.941.488c-.042.063-.049.076-.125.076-.028,0-.119,0-.119-.083a2.131,2.131,0,0,1,.453-.6,1.025,1.025,0,0,1,.8-.357h2.629c.118,0,.3,0,.3.2a.3.3,0,0,1-.12.217.361.361,0,0,1-.257.056h-.872a4.311,4.311,0,0,0-.1.906,2.657,2.657,0,0,0,.259,1.228.261.261,0,0,1,.055.153.34.34,0,0,1-.328.313c-.111,0-.2-.027-.313-.376a2.241,2.241,0,0,1-.077-.621,7.1,7.1,0,0,1,.257-1.6h-.829Z" transform="translate(-498.055 -322.555)"/>
      <path class="cls-3" d="M712.711,432.152c-.035.09-.069.174-.189.174a.17.17,0,0,1-.167-.174c0-.028,0-.042.042-.132l2.6-6.493c.035-.09.07-.173.189-.173a.17.17,0,0,1,.167.173c0,.029,0,.042-.042.133Z" transform="translate(-498.055 -322.555)"/>
    </g>
    <path class="cls-3" d="M717.429,428.254c-.119,0-.182,0-.182-.1a.081.081,0,0,1,.07-.091c.035-.006.049-.006.223-.02a.9.9,0,0,0,.774-.3,1.342,1.342,0,0,0,.279-.83.7.7,0,0,0-.753-.76,1.327,1.327,0,0,0-.984.383.355.355,0,0,1,.356.363.359.359,0,1,1-.718-.014c0-.558.593-.934,1.367-.934s1.409.411,1.409.962a1.329,1.329,0,0,1-1,1.213,1.378,1.378,0,0,1,1.213,1.249,1.5,1.5,0,0,1-1.638,1.346c-.844,0-1.569-.426-1.569-1.081a.387.387,0,1,1,.774-.021.378.378,0,0,1-.4.39,1.517,1.517,0,0,0,1.186.488c.4,0,.906-.258.906-1.122,0-.746-.39-1.123-.934-1.123Z" transform="translate(-498.055 -322.555)"/>
    <g>
      <path class="cls-1" d="M676.187,398.185H671v-.309h.239c.767,0,.787-.11.787-.469v-5.251c0-.358-.02-.468-.787-.468H671v-.309c.349.03,1.126.03,1.514.03.409,0,1.316,0,1.674-.03v.309h-.329c-.946,0-.946.139-.946.478v5.312c0,.328.02.4.488.4h.817c1.754,0,1.893-1.246,2-2.262h.249Z" transform="translate(-498.055 -322.555)"/>
      <path class="cls-1" d="M682.893,393.681h-.249c-.14-1.6-.29-1.933-1.794-1.933a4.666,4.666,0,0,0-.568.02c-.179.04-.179.179-.179.378V397.4c0,.339,0,.479,1.045.479h.4v.309c-.408-.031-1.435-.031-1.893-.031s-1.475,0-1.883.031v-.309h.4c1.046,0,1.046-.14,1.046-.479v-5.251c0-.229,0-.338-.209-.378a4.161,4.161,0,0,0-.538-.02c-1.5,0-1.654.328-1.793,1.933h-.249l.189-2.243H682.7Z" transform="translate(-498.055 -322.555)"/>
    </g>
    <path class="cls-1" d="M685.511,397.407c0,.359.029.469.816.469h.26v.309c-.349-.031-1.137-.031-1.524-.031s-1.167,0-1.515.031v-.309h.259c.787,0,.817-.11.817-.469v-5.251c0-.358-.03-.468-.817-.468h-.259v-.309c.348.03,1.136.03,1.524.03s1.166,0,1.515-.03v.309h-.26c-.787,0-.816.11-.816.468Z" transform="translate(-498.055 -322.555)"/>
    <polygon class="cls-4" points="180.708 65.193 212.597 65.193 212.597 93.539 148.818 93.539 148.818 65.193 180.708 65.193"/>
    <path class="cls-1" d="M651.992,407.86a1.847,1.847,0,0,1,1.474-.767,1.013,1.013,0,0,1,1.146,1.066,8.925,8.925,0,0,1-.608,2.193,1.906,1.906,0,0,0-.179.707c0,.229.07.329.239.329.548,0,.867-.708,1.017-1.236.049-.149.049-.179.149-.179.03,0,.12,0,.12.1,0,.08-.369,1.534-1.306,1.534a.8.8,0,0,1-.817-.816,1.508,1.508,0,0,1,.13-.549,8.455,8.455,0,0,0,.618-2.231c0-.359-.11-.7-.538-.7a1.588,1.588,0,0,0-.957.348,2.95,2.95,0,0,0-.678.916c-.01.061-.089.389-.109.449-.05.229-.11.449-.17.667l-.219.9-.189.757a.415.415,0,0,1-.369.258.273.273,0,0,1-.289-.278.616.616,0,0,1,.04-.22l1.445-5.739.03-.2c0-.1-.02-.169-.5-.169-.15,0-.24,0-.24-.12,0-.18.11-.19.19-.2.259-.02.986-.1,1.215-.1.13,0,.13.1.13.109Z" transform="translate(-498.055 -322.555)"/>
    <path class="cls-1" d="M657.159,411.1a2.8,2.8,0,0,0,.809-.615,1.813,1.813,0,0,1,1.116-.613.493.493,0,0,1,.537.488.415.415,0,0,1-.4.447.259.259,0,0,1-.279-.258.4.4,0,0,1,.363-.391.285.285,0,0,0-.23-.091,1.844,1.844,0,0,0-1.1.662,5.061,5.061,0,0,1-.579.461c.293.021,1.13.119,1.13.739a.974.974,0,0,1-.035.216.986.986,0,0,0-.042.314c0,.188.056.362.244.362.342,0,.53-.5.614-.8.035-.132.042-.167.14-.167.021,0,.111,0,.111.091,0,.007-.209,1.067-.885,1.067a.71.71,0,0,1-.74-.718.648.648,0,0,1,.028-.216.615.615,0,0,0,.014-.14c0-.363-.4-.523-.893-.572-.027.1-.327,1.325-.341,1.354a.337.337,0,0,1-.321.292.228.228,0,0,1-.237-.223.611.611,0,0,1,.035-.153l.983-3.948a.7.7,0,0,0,.028-.153c0-.056,0-.105-.335-.105-.084,0-.181,0-.181-.1,0-.147.1-.153.154-.16.174-.014.752-.071.892-.071a.1.1,0,0,1,.111.1,1,1,0,0,1-.027.112Z" transform="translate(-498.055 -322.555)"/>
    <path class="cls-1" d="M664.244,408.239c-.15,0-.339,0-.339-.2s.189-.2.328-.2H670.2c.139,0,.329,0,.329.2s-.19.2-.339.2Zm-.011,1.933c-.139,0-.328,0-.328-.2s.189-.2.339-.2h5.948c.149,0,.339,0,.339.2s-.19.2-.329.2Z" transform="translate(-498.055 -322.555)"/>
    <path class="cls-1" d="M676.729,407.74c0,.578-.359,1.037-1.176,1.266a1.752,1.752,0,0,1,.778.389,1.077,1.077,0,0,1,.4.946v2.093a1.285,1.285,0,0,0,.03.468,1.267,1.267,0,0,0,1.245.867c.1.01.16.01.16.11s-.08.109-.189.109a2.62,2.62,0,0,1-1.435-.409,1.155,1.155,0,0,1-.478-1.115V410.49a1.513,1.513,0,0,0-.03-.487,1.263,1.263,0,0,0-1.246-.888c-.1-.01-.16-.01-.16-.109a.11.11,0,0,1,.09-.11,1.492,1.492,0,0,0,.947-.319,1.113,1.113,0,0,0,.4-1.036V405.27c.009-.738.916-1.246,1.913-1.246.109,0,.189,0,.189.11a.108.108,0,0,1-.09.109c-1.086.07-1.345.708-1.345,1.107Z" transform="translate(-498.055 -322.555)"/>
    <path class="cls-1" d="M681.878,410.71c0,.368.029.478.927.478h.318v.309c-.349-.03-1.216-.03-1.614-.03s-1.265,0-1.614.03v-.309h.319c.9,0,.926-.12.926-.478v-5.161a2.984,2.984,0,0,1-1.3.259V405.5a2.459,2.459,0,0,0,1.813-.638c.23,0,.23.02.23.259Z" transform="translate(-498.055 -322.555)"/>
    <path class="cls-1" d="M685.1,413.42a.1.1,0,0,1-.1-.109c0-.031,0-.05.109-.16a2.406,2.406,0,0,0,.678-1.664c0-.139-.01-.149-.02-.149s-.02.01-.05.029a.529.529,0,0,1-.877-.4.514.514,0,0,1,.528-.529c.389,0,.638.389.638,1.047A2.379,2.379,0,0,1,685.1,413.42Z" transform="translate(-498.055 -322.555)"/>
    <path class="cls-1" d="M691.483,410.729a.8.8,0,0,0,1.166-.965h.249l-.278,1.733h-3.7c0-.239,0-.259.109-.369L690.945,409a3.566,3.566,0,0,0,1.047-2.2c0-.817-.429-1.624-1.335-1.624a1.437,1.437,0,0,0-1.345,1.017.374.374,0,0,1,.129-.01.5.5,0,0,1,.528.517.524.524,0,1,1-1.046-.03,1.84,1.84,0,0,1,1.863-1.8,1.957,1.957,0,0,1,2.112,1.933c0,1-.6,1.534-2.152,2.909l-1.056,1.026Z" transform="translate(-498.055 -322.555)"/>
    <path class="cls-1" d="M694.58,413.42a.1.1,0,0,1-.1-.109c0-.031,0-.05.11-.16a2.406,2.406,0,0,0,.678-1.664c0-.139-.01-.149-.021-.149s-.019.01-.05.029a.529.529,0,1,1-.348-.927c.388,0,.637.389.637,1.047A2.379,2.379,0,0,1,694.58,413.42Z" transform="translate(-498.055 -322.555)"/>
    <path class="cls-1" d="M700.831,410.71c0,.368.029.478.927.478h.318v.309c-.348-.03-1.216-.03-1.614-.03s-1.266,0-1.614.03v-.309h.319c.9,0,.927-.12.927-.478v-5.161a2.99,2.99,0,0,1-1.306.259V405.5a2.464,2.464,0,0,0,1.814-.638c.229,0,.229.02.229.259Z" transform="translate(-498.055 -322.555)"/>
    <path class="cls-1" d="M705.093,410.271c0-.578.358-1.036,1.176-1.265a1.721,1.721,0,0,1-.778-.389,1.076,1.076,0,0,1-.4-.946v-2.093a1.289,1.289,0,0,0-.03-.468,1.269,1.269,0,0,0-1.246-.867c-.1-.01-.159-.01-.159-.109s.11-.11.2-.11a2.649,2.649,0,0,1,1.425.409,1.157,1.157,0,0,1,.478,1.116v1.972a1.529,1.529,0,0,0,.03.489,1.26,1.26,0,0,0,1.245.886c.1.01.16.01.16.11a.108.108,0,0,1-.09.109,1.505,1.505,0,0,0-.946.32,1.114,1.114,0,0,0-.4,1.036v2.271c-.01.758-.937,1.246-1.9,1.246-.089,0-.2,0-.2-.109a.107.107,0,0,1,.089-.11c1.087-.07,1.346-.707,1.346-1.106Z" transform="translate(-498.055 -322.555)"/>
    <path class="cls-2" d="M726.939,360.957a2.033,2.033,0,0,1-2.122,1.923,1.816,1.816,0,0,1-2.012-1.565.558.558,0,1,1,1.115-.02.546.546,0,0,1-.657.549,1.81,1.81,0,0,0,1.524.757c.439,0,1.126-.289,1.126-1.644,0-.977-.369-1.654-1.185-1.654h-.439c-.17,0-.239,0-.239-.11s.069-.11.149-.119.309-.02.389-.03a.966.966,0,0,0,.887-.519,2.5,2.5,0,0,0,.279-1.135c0-.9-.549-1.116-.957-1.116a1.611,1.611,0,0,0-1.325.618c.149,0,.618,0,.618.5a.509.509,0,1,1-1.017-.01c0-.757.757-1.356,1.764-1.356.956,0,1.833.559,1.833,1.376a1.917,1.917,0,0,1-1.395,1.753A1.922,1.922,0,0,1,726.939,360.957Z" transform="translate(-498.055 -322.555)"/>
    <polyline points="363.967 81.634 368.502 79.366 363.967 77.098 365.1 79.366"/>
    <line class="cls-4" x1="212.597" y1="79.366" x2="365.1" y2="79.366"/>
    <polyline points="239.668 23.666 237.4 19.13 235.133 23.666 237.4 22.532"/>
    <line class="cls-4" x1="237.4" y1="125.429" x2="237.4" y2="22.532"/>
    <line class="cls-5" x1="237.4" y1="79.366" x2="237.4" y2="54.563"/>
    <path class="cls-6" d="M728.369,401.921s6.123-42.52,21.26-42.52,13.923,27.847,21.259,42.52,6.123,42.519,21.26,42.519,13.923-27.846,21.26-42.519,6.123-42.52,21.259-42.52,21.26,42.52,21.26,42.52h0" transform="translate(-498.055 -322.555)"/>
    <line class="cls-7" x1="251.573" y1="79.366" x2="251.573" y2="36.847"/>
    <path class="cls-5" d="M763.8,401.921v-21.26m14.173,21.26v21.26m14.173-21.26V444.44m14.173-21.259v-21.26m14.173-21.26v21.26m14.173-42.52v42.52" transform="translate(-498.055 -322.555)"/>
    <path class="cls-1" d="M861.481,408.248a3.246,3.246,0,0,0,.16-.837c0-.329-.11-.458-.309-.458-.359,0-.559.478-.728,1.186-.059.218-.07.229-.169.229-.02,0-.12,0-.12-.1a5.058,5.058,0,0,1,.3-.967.87.87,0,0,1,.747-.569.9.9,0,0,1,.917.868,1.924,1.924,0,0,1,1.555-.868,1.019,1.019,0,0,1,1.146,1.067,8.982,8.982,0,0,1-.608,2.192,1.893,1.893,0,0,0-.18.707c0,.23.07.329.24.329.488,0,.816-.558,1.015-1.235.051-.149.051-.18.151-.18.029,0,.119,0,.119.1,0,.08-.369,1.534-1.306,1.534a.8.8,0,0,1-.816-.816,1.142,1.142,0,0,1,.1-.459,9.449,9.449,0,0,0,.648-2.322c0-.329-.09-.7-.538-.7a1.98,1.98,0,0,0-1.624,1.215c-.01.04-.09.329-.13.5-.05.229-.11.448-.169.667l-.22.9c-.059.249-.179.717-.189.738a.406.406,0,0,1-.368.278.267.267,0,0,1-.29-.268c0-.05.06-.28.09-.429Z" transform="translate(-498.055 -322.555)"/>
    <g>
      <path class="cls-1" d="M750.159,411.437c0,.368.029.478.927.478h.318v.309c-.348-.031-1.216-.031-1.614-.031s-1.266,0-1.614.031v-.309h.319c.9,0,.927-.12.927-.478v-5.162a2.99,2.99,0,0,1-1.306.259v-.308a2.461,2.461,0,0,0,1.814-.638c.229,0,.229.019.229.259Z" transform="translate(-498.055 -322.555)"/>
      <path class="cls-1" d="M764.445,411.456a.8.8,0,0,0,1.166-.966h.249l-.278,1.734h-3.7c0-.24,0-.259.109-.37l1.913-2.131a3.571,3.571,0,0,0,1.047-2.2c0-.818-.429-1.625-1.336-1.625a1.44,1.44,0,0,0-1.345,1.017.384.384,0,0,1,.13-.01.5.5,0,0,1,.528.518.524.524,0,1,1-1.046-.03,1.84,1.84,0,0,1,1.863-1.8,1.957,1.957,0,0,1,2.112,1.933c0,1-.6,1.534-2.152,2.909l-1.056,1.026Z" transform="translate(-498.055 -322.555)"/>
    </g>
    <g>
      <path class="cls-1" d="M780.1,396.355a2.033,2.033,0,0,1-2.123,1.923,1.816,1.816,0,0,1-2.012-1.563.558.558,0,1,1,1.115-.021.545.545,0,0,1-.657.548,1.812,1.812,0,0,0,1.524.758c.439,0,1.126-.289,1.126-1.645,0-.976-.369-1.653-1.185-1.653h-.439c-.17,0-.239,0-.239-.11s.069-.11.149-.119.309-.021.389-.031a.965.965,0,0,0,.887-.517,2.505,2.505,0,0,0,.279-1.136c0-.9-.549-1.116-.957-1.116a1.614,1.614,0,0,0-1.325.617c.149,0,.618,0,.618.5a.509.509,0,1,1-1.017-.011c0-.757.757-1.354,1.764-1.354.956,0,1.833.557,1.833,1.375a1.8,1.8,0,0,0,.27,3.556Z" transform="translate(-498.055 -322.555)"/>
      <path class="cls-1" d="M789.986,396.415v-.309l3.059-4.672c.08-.121.109-.121.2-.121.159,0,.159.061.159.26v4.533h1v.309h-1v.867c0,.359.021.469.758.469h.209v.309c-.408-.031-.936-.031-1.355-.031s-.937,0-1.345.031v-.309h.209c.737,0,.758-.11.758-.469v-.867Zm2.71-4.025-2.431,3.716H792.7Z" transform="translate(-498.055 -322.555)"/>
      <path class="cls-1" d="M806.165,398.278a1.829,1.829,0,0,1-1.8-1.823.495.495,0,1,1,.489.448.45.45,0,0,1-.169-.019A1.552,1.552,0,0,0,806.146,398a1.246,1.246,0,0,0,1.065-.647,2.9,2.9,0,0,0,.239-1.366,3.062,3.062,0,0,0-.179-1.256.975.975,0,0,0-.847-.637,1.5,1.5,0,0,0-1.285.7c-.04.061-.06.09-.13.09-.139,0-.139-.079-.139-.259v-2.949c0-.159,0-.239.1-.239a.3.3,0,0,1,.119.03,3.24,3.24,0,0,0,1.325.278,3.3,3.3,0,0,0,1.356-.289.145.145,0,0,1,.079-.029.1.1,0,0,1,.1.109,2.171,2.171,0,0,1-1.923,1.036,3.1,3.1,0,0,1-.846-.13v1.944a1.75,1.75,0,0,1,1.265-.508,2.044,2.044,0,0,1,1.893,2.182A2.2,2.2,0,0,1,806.165,398.278Z" transform="translate(-498.055 -322.555)"/>
    </g>
    <g>
      <path class="cls-1" d="M820.587,407.969a2.09,2.09,0,0,1,1.993,2.222,2.131,2.131,0,0,1-2.053,2.251c-.926,0-2.082-.707-2.082-3.367,0-2.2,1.345-3.487,2.62-3.487.828,0,1.266.477,1.266,1.076a.459.459,0,1,1-.917.02c0-.449.4-.449.548-.449a1.027,1.027,0,0,0-.877-.4c-.508,0-1.743.358-1.743,2.879v.239A1.377,1.377,0,0,1,820.587,407.969Zm.927,3.548a3.319,3.319,0,0,0,.17-1.336,3.282,3.282,0,0,0-.18-1.365.962.962,0,0,0-.927-.618c-.9,0-1.216,1-1.216,1.774a4.853,4.853,0,0,0,.18,1.445,1.146,1.146,0,0,0,.986.747A1.042,1.042,0,0,0,821.514,411.517Z" transform="translate(-498.055 -322.555)"/>
      <path class="cls-1" d="M835.581,408.049a4.355,4.355,0,0,0-.617,1.7,11.122,11.122,0,0,0-.11,1.634v.508c0,.1,0,.547-.458.547s-.458-.448-.458-.547a6.96,6.96,0,0,1,1.225-3.747c.219-.329,1.006-1.415,1.115-1.574h-2.062a5.022,5.022,0,0,0-.976.06,2.794,2.794,0,0,0-.25.907h-.249l.329-2.053h.249c.04.19.06.319,1.276.319h2.422c0,.209,0,.229-.09.348Z" transform="translate(-498.055 -322.555)"/>
    </g>
    <line class="cls-4" x1="233.857" y1="36.847" x2="240.944" y2="36.847"/>
    <path class="cls-1" d="M737.163,411.287a1.864,1.864,0,0,1-3.378.15,5.056,5.056,0,0,1-.448-2.4,5.343,5.343,0,0,1,.368-2.262,1.828,1.828,0,0,1,1.734-1.185,1.848,1.848,0,0,1,1.694,1.115,7.052,7.052,0,0,1,.03,4.584Zm-.568-.308a19.167,19.167,0,0,0,.01-4.006c-.189-.987-.847-1.166-1.175-1.166-.249,0-1,.089-1.187,1.275a13.491,13.491,0,0,0-.079,1.834,13.651,13.651,0,0,0,.109,2.1c.18.957.768,1.206,1.157,1.206C735.878,412.224,736.445,411.925,736.6,410.979Z" transform="translate(-498.055 -322.555)"/>
    <line class="cls-5" x1="350.785" y1="58.106" x2="350.785" y2="79.366"/>
    <path class="cls-1" d="M762.99,330.038a2.625,2.625,0,0,1-2.331,2.032.941.941,0,0,1-1.056-.866.575.575,0,0,1,.558-.648.339.339,0,0,1,.368.349.536.536,0,0,1-.2.408.568.568,0,0,1-.429.12.807.807,0,0,0,.758.418,1.426,1.426,0,0,0,1.1-.627,3.833,3.833,0,0,0,.647-1.535,1.4,1.4,0,0,1-1.006.448,1.111,1.111,0,0,1-1.215-1.185,6.566,6.566,0,0,1,.578-2.093,2.123,2.123,0,0,0,.169-.7c0-.319-.169-.319-.249-.319-.339,0-.738.3-1.006,1.236-.05.159-.061.179-.16.179-.02,0-.119,0-.119-.1s.368-1.534,1.315-1.534a.789.789,0,0,1,.816.817,1.785,1.785,0,0,1-.2.717,5.94,5.94,0,0,0-.508,1.953c0,.369.11.807.619.807a1.385,1.385,0,0,0,1.125-.847l.449-1.793c.059-.269.129-.538.2-.8.039-.179.119-.488.14-.538a.431.431,0,0,1,.348-.209.266.266,0,0,1,.289.269.622.622,0,0,1-.04.229Z" transform="translate(-498.055 -322.555)"/>
    <path class="cls-1" d="M765.562,332.519v-9.964h1.365v.4h-.967v9.166h.967v.4Z" transform="translate(-498.055 -322.555)"/>
    <path class="cls-1" d="M768.6,327.138a3.22,3.22,0,0,0,.159-.837c0-.328-.11-.458-.309-.458-.359,0-.558.478-.727,1.186-.06.219-.071.229-.17.229-.02,0-.119,0-.119-.1a5.007,5.007,0,0,1,.3-.966.871.871,0,0,1,.748-.568.9.9,0,0,1,.917.867,1.92,1.92,0,0,1,1.554-.867,1.018,1.018,0,0,1,1.146,1.066,8.982,8.982,0,0,1-.608,2.192,1.892,1.892,0,0,0-.179.707c0,.229.069.329.239.329.488,0,.816-.558,1.015-1.235.051-.15.051-.18.151-.18.029,0,.119,0,.119.1,0,.08-.369,1.534-1.306,1.534a.8.8,0,0,1-.816-.817,1.132,1.132,0,0,1,.1-.458,9.511,9.511,0,0,0,.647-2.321c0-.33-.09-.7-.538-.7a1.983,1.983,0,0,0-1.624,1.216c-.01.04-.09.328-.13.5-.05.229-.109.448-.169.667l-.22.9c-.059.249-.178.717-.189.737a.405.405,0,0,1-.368.279.266.266,0,0,1-.289-.268c0-.051.059-.28.09-.429Z" transform="translate(-498.055 -322.555)"/>
    <g>
      <path class="cls-1" d="M774.728,332.519h-1.366v-.4h.967v-9.166h-.967v-.4h1.366Z" transform="translate(-498.055 -322.555)"/>
      <path class="cls-1" d="M779.56,326.77c-.15,0-.339,0-.339-.2s.189-.2.329-.2h5.969c.139,0,.328,0,.328.2s-.189.2-.338.2Zm-.01,1.933c-.14,0-.329,0-.329-.2s.189-.2.339-.2h5.949c.149,0,.338,0,.338.2s-.189.2-.328.2Z" transform="translate(-498.055 -322.555)"/>
    </g>
    <path class="cls-2" d="M793.775,328.324a2.033,2.033,0,0,1-2.122,1.923,1.816,1.816,0,0,1-2.012-1.564.558.558,0,1,1,1.115-.02.545.545,0,0,1-.657.548,1.81,1.81,0,0,0,1.524.757c.439,0,1.126-.289,1.126-1.644,0-.976-.369-1.654-1.186-1.654h-.438c-.17,0-.239,0-.239-.109s.069-.11.149-.12.309-.02.389-.03a.966.966,0,0,0,.887-.518,2.5,2.5,0,0,0,.279-1.136c0-.9-.549-1.116-.957-1.116a1.614,1.614,0,0,0-1.325.618c.149,0,.618,0,.618.5a.509.509,0,1,1-1.017-.01c0-.757.757-1.355,1.764-1.355.956,0,1.833.558,1.833,1.375a1.919,1.919,0,0,1-1.395,1.754A1.922,1.922,0,0,1,793.775,328.324Z" transform="translate(-498.055 -322.555)"/>
    <g>
      <path class="cls-1" d="M798.394,329.888a1.3,1.3,0,0,0,1.3-1.046c.02-.06.04-.1.13-.1.029,0,.129,0,.129.1a1.638,1.638,0,0,1-1.653,1.3,2.205,2.205,0,0,1-2.143-2.262,2.233,2.233,0,0,1,2.162-2.311c.768,0,1.525.389,1.525,1.066a.459.459,0,1,1-.917.01.449.449,0,0,1,.468-.458,1.622,1.622,0,0,0-1.066-.369c-.528,0-1.345.418-1.345,2.042C796.989,329.46,797.866,329.888,798.394,329.888Z" transform="translate(-498.055 -322.555)"/>
      <path class="cls-1" d="M802.748,330.137a2.223,2.223,0,0,1-2.2-2.241,2.21,2.21,0,1,1,4.414,0A2.22,2.22,0,0,1,802.748,330.137Zm1.165-.986a3.019,3.019,0,0,0,.22-1.335,2.734,2.734,0,0,0-.259-1.385,1.305,1.305,0,0,0-1.126-.648,1.338,1.338,0,0,0-1.137.668,2.867,2.867,0,0,0-.238,1.365,2.969,2.969,0,0,0,.249,1.405,1.3,1.3,0,0,0,1.136.667A1.283,1.283,0,0,0,803.913,329.151Z" transform="translate(-498.055 -322.555)"/>
    </g>
    <g>
      <path class="cls-1" d="M806.057,327.636a1.06,1.06,0,0,1-.428-.846c0-.559.378-1.226,1.594-1.226a1.533,1.533,0,0,1,.936.279,1.35,1.35,0,0,0,.17-.159c.129-.12.15-.12.2-.12.11,0,.11.07.11.239v1.007c0,.189,0,.239-.13.239a.106.106,0,0,1-.119-.09,1.1,1.1,0,0,0-1.166-1.206c-.857,0-1.117.409-1.117.758,0,.577.668.707,1.226.817a2.028,2.028,0,0,1,1.137.478,1.285,1.285,0,0,1,.418.946c0,.718-.458,1.385-1.6,1.385a1.488,1.488,0,0,1-1.1-.428,2.217,2.217,0,0,0-.2.229c-.189.189-.2.2-.249.2-.109,0-.109-.069-.109-.239v-1.315c0-.179,0-.249.129-.249.1,0,.11.04.139.169.19.847.548,1.415,1.385,1.415.778,0,1.126-.4,1.126-.906,0-.718-.816-.877-1.036-.917A2.6,2.6,0,0,1,806.057,327.636Z" transform="translate(-498.055 -322.555)"/>
      <path class="cls-1" d="M812.334,332.519a4.3,4.3,0,0,1-1.554-1.873,7.671,7.671,0,0,1-.03-6.148,4.334,4.334,0,0,1,1.584-1.943.089.089,0,0,1,.1.1c0,.031,0,.05-.129.17a6.515,6.515,0,0,0-1.6,4.713,6.6,6.6,0,0,0,1.565,4.663c.169.169.169.189.169.219A.09.09,0,0,1,812.334,332.519Z" transform="translate(-498.055 -322.555)"/>
    </g>
    <path class="cls-1" d="M816.178,332.519a4.3,4.3,0,0,1-1.554-1.873,7.671,7.671,0,0,1-.03-6.148,4.334,4.334,0,0,1,1.584-1.943.089.089,0,0,1,.1.1c0,.031,0,.05-.129.17a6.518,6.518,0,0,0-1.6,4.713,6.6,6.6,0,0,0,1.564,4.663c.169.169.169.189.169.219A.089.089,0,0,1,816.178,332.519Z" transform="translate(-498.055 -322.555)"/>
    <g>
      <path class="cls-1" d="M818.9,328.513c-.128.5-.128.518-.268.977-.119.368-.2.647-.5.647a.27.27,0,0,1-.289-.268c0-.07,0-.09.08-.24a21.037,21.037,0,0,0,1.275-3.318h-.568a1.405,1.405,0,0,0-1.266.768c-.059.079-.079.119-.159.119-.12,0-.12-.09-.12-.1a3.57,3.57,0,0,1,.608-.9,1.268,1.268,0,0,1,1.037-.469h3.337c.19,0,.4,0,.4.24,0,.338-.359.338-.488.338h-1.136a7.71,7.71,0,0,0-.18,1.585,4.288,4.288,0,0,0,.289,1.644.388.388,0,0,1-.348.6c-.15,0-.259-.059-.359-.5a3.131,3.131,0,0,1-.08-.757,10.952,10.952,0,0,1,.419-2.571h-1.126Z" transform="translate(-498.055 -322.555)"/>
      <path class="cls-1" d="M823.779,332.28c-.06.169-.09.239-.219.239a.2.2,0,0,1-.2-.2.54.54,0,0,1,.05-.179l3.458-9.5a.184.184,0,0,1,.169-.09.2.2,0,0,1,.2.2.544.544,0,0,1-.049.18Z" transform="translate(-498.055 -322.555)"/>
    </g>
    <g>
      <path class="cls-1" d="M832.408,328.324a2.033,2.033,0,0,1-2.122,1.923,1.817,1.817,0,0,1-2.013-1.564.558.558,0,1,1,1.116-.02.546.546,0,0,1-.658.548,1.813,1.813,0,0,0,1.525.757c.438,0,1.126-.289,1.126-1.644,0-.976-.369-1.654-1.186-1.654h-.438c-.17,0-.239,0-.239-.109s.069-.11.149-.12.309-.02.389-.03a.964.964,0,0,0,.886-.518,2.494,2.494,0,0,0,.28-1.136c0-.9-.549-1.116-.957-1.116a1.617,1.617,0,0,0-1.326.618c.15,0,.619,0,.619.5a.509.509,0,1,1-1.017-.01c0-.757.757-1.355,1.764-1.355.956,0,1.833.558,1.833,1.375a1.919,1.919,0,0,1-1.395,1.754A1.922,1.922,0,0,1,832.408,328.324Z" transform="translate(-498.055 -322.555)"/>
      <path class="cls-1" d="M835.147,330.576a4.334,4.334,0,0,1-1.584,1.943.094.094,0,0,1-.1-.1c0-.03,0-.05.129-.169a6.536,6.536,0,0,0,1.6-4.713,6.462,6.462,0,0,0-1.545-4.653c-.188-.18-.188-.2-.188-.23a.093.093,0,0,1,.1-.1,4.3,4.3,0,0,1,1.554,1.873,7.671,7.671,0,0,1,.03,6.148Z" transform="translate(-498.055 -322.555)"/>
    </g>
    <path class="cls-1" d="M838.185,327.138a3.266,3.266,0,0,0,.159-.837c0-.328-.11-.458-.309-.458-.359,0-.558.478-.727,1.186-.06.219-.071.229-.17.229-.02,0-.119,0-.119-.1a5.007,5.007,0,0,1,.3-.966.869.869,0,0,1,.747-.568.9.9,0,0,1,.917.867,1.924,1.924,0,0,1,1.555-.867,1.018,1.018,0,0,1,1.146,1.066,8.982,8.982,0,0,1-.608,2.192,1.892,1.892,0,0,0-.179.707c0,.229.069.329.239.329.488,0,.816-.558,1.015-1.235.051-.15.051-.18.151-.18.029,0,.119,0,.119.1,0,.08-.369,1.534-1.306,1.534a.8.8,0,0,1-.816-.817,1.144,1.144,0,0,1,.1-.458,9.466,9.466,0,0,0,.648-2.321c0-.33-.09-.7-.538-.7a1.983,1.983,0,0,0-1.624,1.216c-.01.04-.09.328-.13.5-.05.229-.109.448-.169.667l-.22.9c-.059.249-.178.717-.189.737a.406.406,0,0,1-.368.279.266.266,0,0,1-.289-.268c0-.051.059-.28.089-.429Z" transform="translate(-498.055 -322.555)"/>
    <path class="cls-1" d="M846.187,327.736c-.169,0-.349,0-.349-.2s.18-.2.349-.2h5.39c.169,0,.349,0,.349.2s-.18.2-.349.2Z" transform="translate(-498.055 -322.555)"/>
    <g>
      <path class="cls-3" d="M857.054,328.513c-.129.5-.129.518-.269.977-.119.368-.2.647-.5.647a.27.27,0,0,1-.289-.268c0-.07,0-.09.08-.24a21.133,21.133,0,0,0,1.276-3.318h-.569a1.4,1.4,0,0,0-1.265.768c-.06.079-.08.119-.16.119-.12,0-.12-.09-.12-.1a3.556,3.556,0,0,1,.609-.9,1.265,1.265,0,0,1,1.036-.469h3.338c.189,0,.4,0,.4.24,0,.338-.358.338-.488.338H859a7.779,7.779,0,0,0-.18,1.585,4.288,4.288,0,0,0,.289,1.644.388.388,0,0,1-.348.6c-.15,0-.259-.059-.359-.5a3.131,3.131,0,0,1-.08-.757,10.952,10.952,0,0,1,.419-2.571h-1.126Z" transform="translate(-498.055 -322.555)"/>
      <path class="cls-3" d="M861.936,332.28c-.061.169-.09.239-.22.239a.2.2,0,0,1-.2-.2.549.549,0,0,1,.049-.179l3.458-9.5a.185.185,0,0,1,.169-.09.2.2,0,0,1,.2.2.535.535,0,0,1-.05.18Z" transform="translate(-498.055 -322.555)"/>
    </g>
    <path class="cls-3" d="M870.564,328.324a2.033,2.033,0,0,1-2.122,1.923,1.816,1.816,0,0,1-2.012-1.564.558.558,0,1,1,1.115-.02.545.545,0,0,1-.657.548,1.81,1.81,0,0,0,1.524.757c.439,0,1.126-.289,1.126-1.644,0-.976-.369-1.654-1.185-1.654h-.439c-.17,0-.239,0-.239-.109s.069-.11.149-.12.309-.02.389-.03a.966.966,0,0,0,.887-.518,2.5,2.5,0,0,0,.279-1.136c0-.9-.549-1.116-.957-1.116a1.614,1.614,0,0,0-1.325.618c.149,0,.618,0,.618.5a.509.509,0,1,1-1.017-.01c0-.757.757-1.355,1.764-1.355.956,0,1.833.558,1.833,1.375a1.919,1.919,0,0,1-1.395,1.754A1.921,1.921,0,0,1,870.564,328.324Z" transform="translate(-498.055 -322.555)"/>
    <path class="cls-1" d="M873.177,330.576a4.348,4.348,0,0,1-1.584,1.943.094.094,0,0,1-.1-.1c0-.03,0-.05.129-.169a6.537,6.537,0,0,0,1.605-4.713,6.466,6.466,0,0,0-1.545-4.653c-.189-.18-.189-.2-.189-.23a.094.094,0,0,1,.1-.1,4.3,4.3,0,0,1,1.553,1.873,7.665,7.665,0,0,1,.031,6.148Z" transform="translate(-498.055 -322.555)"/>
    <path class="cls-1" d="M538.414,367.376a3.851,3.851,0,0,0-.169.877c0,.339.159.658.547.658.319,0,1-.24,1.326-1.306.02-.07.04-.109.13-.109.029,0,.119,0,.119.1,0,.249-.568,1.534-1.595,1.534a1.1,1.1,0,0,1-1.075-.756,1.326,1.326,0,0,1-1.047.756c-.438,0-.936-.2-.936-.657a.566.566,0,0,1,.548-.578.341.341,0,0,1,.368.349.565.565,0,0,1-.468.538.958.958,0,0,0,.5.13c.439,0,.787-.419.947-1.037a14.471,14.471,0,0,0,.538-2.371c0-.578-.349-.668-.538-.668-.339,0-1,.249-1.335,1.306-.02.089-.05.109-.13.109-.02,0-.12,0-.12-.1,0-.249.569-1.534,1.6-1.534a1.1,1.1,0,0,1,1.076.757,1.289,1.289,0,0,1,1.046-.757c.339,0,.927.139.927.657a.557.557,0,0,1-.538.579.348.348,0,0,1-.379-.349.579.579,0,0,1,.478-.538.974.974,0,0,0-.5-.13c-.7,0-.926.917-.986,1.176Z" transform="translate(-498.055 -322.555)"/>
    <path class="cls-1" d="M542.241,371.511v-9.964h1.365v.4h-.966v9.166h.966v.4Z" transform="translate(-498.055 -322.555)"/>
    <path class="cls-1" d="M545.278,366.13a3.194,3.194,0,0,0,.16-.837c0-.328-.11-.458-.31-.458-.358,0-.558.478-.727,1.186-.06.219-.069.229-.169.229-.02,0-.12,0-.12-.1a4.96,4.96,0,0,1,.3-.966.869.869,0,0,1,.747-.568.9.9,0,0,1,.917.867,1.925,1.925,0,0,1,1.554-.867,1.018,1.018,0,0,1,1.146,1.066,8.937,8.937,0,0,1-.608,2.192,1.916,1.916,0,0,0-.179.708c0,.229.07.329.24.329.487,0,.816-.558,1.016-1.236.049-.15.049-.179.149-.179.03,0,.12,0,.12.1,0,.08-.369,1.534-1.305,1.534a.8.8,0,0,1-.818-.816,1.133,1.133,0,0,1,.1-.459,9.511,9.511,0,0,0,.648-2.321c0-.329-.09-.7-.538-.7a1.981,1.981,0,0,0-1.624,1.216c-.011.04-.09.328-.13.5-.05.229-.11.449-.169.667l-.219.9c-.061.249-.18.718-.19.738a.407.407,0,0,1-.369.278.266.266,0,0,1-.289-.268c0-.05.06-.279.09-.429Z" transform="translate(-498.055 -322.555)"/>
    <g>
      <path class="cls-1" d="M551.408,371.511h-1.366v-.4h.967v-9.166h-.967v-.4h1.366Z" transform="translate(-498.055 -322.555)"/>
      <path class="cls-1" d="M556.239,365.762c-.15,0-.339,0-.339-.2s.189-.2.329-.2H562.2c.14,0,.329,0,.329.2s-.189.2-.338.2Zm-.01,1.933c-.14,0-.329,0-.329-.2s.189-.2.339-.2h5.949c.149,0,.338,0,.338.2s-.189.2-.329.2Z" transform="translate(-498.055 -322.555)"/>
    </g>
    <g>
      <path class="cls-1" d="M568.472,368.88a1.3,1.3,0,0,0,1.305-1.046c.02-.06.04-.1.13-.1.03,0,.13,0,.13.1a1.64,1.64,0,0,1-1.655,1.3,2.205,2.205,0,0,1-2.142-2.261,2.233,2.233,0,0,1,2.162-2.312c.767,0,1.525.389,1.525,1.066a.459.459,0,1,1-.917.01.45.45,0,0,1,.469-.458,1.625,1.625,0,0,0-1.067-.369c-.528,0-1.345.419-1.345,2.043C567.067,368.452,567.944,368.88,568.472,368.88Z" transform="translate(-498.055 -322.555)"/>
      <path class="cls-1" d="M572.826,369.129a2.223,2.223,0,0,1-2.2-2.241,2.21,2.21,0,1,1,4.414,0A2.22,2.22,0,0,1,572.826,369.129Zm1.166-.986a3.027,3.027,0,0,0,.219-1.335,2.736,2.736,0,0,0-.259-1.385,1.309,1.309,0,0,0-1.126-.648,1.336,1.336,0,0,0-1.136.668,2.856,2.856,0,0,0-.239,1.365,2.967,2.967,0,0,0,.249,1.405,1.3,1.3,0,0,0,1.136.667A1.285,1.285,0,0,0,573.992,368.143Z" transform="translate(-498.055 -322.555)"/>
    </g>
    <g>
      <path class="cls-1" d="M576.135,366.628a1.059,1.059,0,0,1-.428-.846c0-.558.378-1.226,1.594-1.226a1.537,1.537,0,0,1,.937.279,1.413,1.413,0,0,0,.169-.159c.13-.12.15-.12.2-.12.11,0,.11.07.11.239V365.8c0,.189,0,.239-.13.239a.106.106,0,0,1-.119-.09,1.1,1.1,0,0,0-1.166-1.205c-.857,0-1.116.408-1.116.757,0,.578.668.707,1.226.817a2.022,2.022,0,0,1,1.135.478,1.282,1.282,0,0,1,.419.947c0,.717-.458,1.384-1.6,1.384a1.484,1.484,0,0,1-1.1-.428,2.563,2.563,0,0,0-.2.229c-.189.19-.2.2-.249.2-.109,0-.109-.069-.109-.238v-1.316c0-.179,0-.249.129-.249.1,0,.11.04.14.17.189.846.548,1.415,1.385,1.415.777,0,1.126-.4,1.126-.907,0-.718-.818-.877-1.037-.917A2.6,2.6,0,0,1,576.135,366.628Z" transform="translate(-498.055 -322.555)"/>
      <path class="cls-1" d="M582.412,371.511a4.3,4.3,0,0,1-1.555-1.873,7.676,7.676,0,0,1-.029-6.148,4.341,4.341,0,0,1,1.584-1.943.089.089,0,0,1,.1.1c0,.031,0,.05-.129.17a6.516,6.516,0,0,0-1.6,4.713,6.6,6.6,0,0,0,1.564,4.663c.169.169.169.189.169.22A.089.089,0,0,1,582.412,371.511Z" transform="translate(-498.055 -322.555)"/>
    </g>
    <path class="cls-1" d="M586.256,371.511a4.3,4.3,0,0,1-1.554-1.873,7.671,7.671,0,0,1-.03-6.148,4.341,4.341,0,0,1,1.584-1.943.089.089,0,0,1,.1.1c0,.031,0,.05-.129.17a6.516,6.516,0,0,0-1.6,4.713,6.6,6.6,0,0,0,1.565,4.663c.168.169.168.189.168.22A.089.089,0,0,1,586.256,371.511Z" transform="translate(-498.055 -322.555)"/>
    <g>
      <path class="cls-1" d="M588.984,367.505c-.13.5-.13.518-.269.977-.12.369-.2.647-.5.647a.27.27,0,0,1-.289-.268c0-.07,0-.09.079-.239a20.989,20.989,0,0,0,1.276-3.319h-.568a1.405,1.405,0,0,0-1.266.768c-.059.079-.079.119-.159.119-.12,0-.12-.089-.12-.1a3.589,3.589,0,0,1,.608-.9,1.268,1.268,0,0,1,1.036-.468h3.338c.19,0,.4,0,.4.239,0,.338-.359.338-.488.338h-1.136a7.709,7.709,0,0,0-.179,1.585,4.285,4.285,0,0,0,.289,1.644.436.436,0,0,1,.059.219.419.419,0,0,1-.408.378c-.15,0-.259-.059-.359-.5a3.131,3.131,0,0,1-.08-.757,10.959,10.959,0,0,1,.419-2.571h-1.126Z" transform="translate(-498.055 -322.555)"/>
      <path class="cls-1" d="M593.865,371.272c-.059.169-.089.239-.219.239a.2.2,0,0,1-.2-.2.535.535,0,0,1,.05-.18l3.457-9.5a.185.185,0,0,1,.17-.09.2.2,0,0,1,.2.2.535.535,0,0,1-.05.18Z" transform="translate(-498.055 -322.555)"/>
    </g>
    <g>
      <path class="cls-1" d="M602.494,367.316a2.032,2.032,0,0,1-2.122,1.923,1.817,1.817,0,0,1-2.013-1.564.558.558,0,1,1,1.116-.02.546.546,0,0,1-.658.548,1.813,1.813,0,0,0,1.525.757c.438,0,1.126-.289,1.126-1.644,0-.976-.369-1.654-1.186-1.654h-.438c-.17,0-.24,0-.24-.109s.07-.11.15-.12.309-.02.389-.03a.965.965,0,0,0,.886-.518,2.487,2.487,0,0,0,.279-1.136c0-.9-.548-1.116-.956-1.116a1.617,1.617,0,0,0-1.326.618c.15,0,.618,0,.618.5a.508.508,0,1,1-1.016-.01c0-.757.757-1.355,1.764-1.355.956,0,1.833.558,1.833,1.375a1.919,1.919,0,0,1-1.395,1.754A1.922,1.922,0,0,1,602.494,367.316Z" transform="translate(-498.055 -322.555)"/>
      <path class="cls-1" d="M605.233,369.568a4.334,4.334,0,0,1-1.584,1.943.094.094,0,0,1-.1-.1c0-.031,0-.051.13-.17a6.532,6.532,0,0,0,1.6-4.713,6.466,6.466,0,0,0-1.544-4.653c-.19-.18-.19-.2-.19-.23a.094.094,0,0,1,.1-.1,4.309,4.309,0,0,1,1.555,1.873,7.676,7.676,0,0,1,.029,6.148Z" transform="translate(-498.055 -322.555)"/>
    </g>
    <path class="cls-1" d="M608.27,366.13a3.194,3.194,0,0,0,.16-.837c0-.328-.11-.458-.309-.458-.359,0-.558.478-.727,1.186-.061.219-.07.229-.17.229-.02,0-.12,0-.12-.1a5.035,5.035,0,0,1,.3-.966.869.869,0,0,1,.747-.568.9.9,0,0,1,.917.867,1.926,1.926,0,0,1,1.555-.867,1.019,1.019,0,0,1,1.146,1.066,8.982,8.982,0,0,1-.608,2.192,1.9,1.9,0,0,0-.18.708c0,.229.07.329.24.329.488,0,.817-.558,1.016-1.236.05-.15.05-.179.149-.179.03,0,.12,0,.12.1,0,.08-.369,1.534-1.3,1.534a.8.8,0,0,1-.818-.816,1.151,1.151,0,0,1,.1-.459,9.466,9.466,0,0,0,.648-2.321c0-.329-.09-.7-.538-.7a1.981,1.981,0,0,0-1.624,1.216c-.01.04-.09.328-.13.5-.05.229-.109.449-.169.667l-.219.9c-.06.249-.18.718-.19.738a.406.406,0,0,1-.368.278.266.266,0,0,1-.289-.268c0-.05.06-.279.089-.429Z" transform="translate(-498.055 -322.555)"/>
    <path class="cls-1" d="M615.067,369.568a4.341,4.341,0,0,1-1.584,1.943.094.094,0,0,1-.1-.1c0-.031,0-.051.13-.17a6.532,6.532,0,0,0,1.6-4.713,6.466,6.466,0,0,0-1.544-4.653c-.19-.18-.19-.2-.19-.23a.094.094,0,0,1,.1-.1,4.309,4.309,0,0,1,1.555,1.873,7.676,7.676,0,0,1,.029,6.148Z" transform="translate(-498.055 -322.555)"/>
    <polyline points="144.283 81.634 148.818 79.366 144.283 77.098 145.417 79.366"/>
    <line class="cls-4" y1="79.366" x2="145.417" y2="79.366"/>
    <polyline points="27.071 23.666 24.803 19.13 22.535 23.666 24.803 22.532"/>
    <line class="cls-4" x1="24.803" y1="97.083" x2="24.803" y2="22.532"/>
    <line class="cls-7" x1="24.803" y1="79.366" x2="24.803" y2="65.193"/>
    <path class="cls-8" d="M501.6,401.921s12.6-14.173,21.26-14.173,13.923,9.282,21.26,14.173,12.6,14.173,21.26,14.173,13.923-9.282,21.259-14.173,12.6-14.173,21.26-14.173,21.26,14.173,21.26,14.173h0" transform="translate(-498.055 -322.555)"/>
    <path class="cls-5" d="M537.031,401.921v-7.087m14.173,7.087v7.086m14.174-7.086v14.173m14.173-14.173v7.086m14.173-14.173v7.087M607.9,387.748v14.173m14.173-7.087v7.087m-113.385,0v-7.087" transform="translate(-498.055 -322.555)"/>
    <path class="cls-1" d="M638.278,408.248a3.2,3.2,0,0,0,.16-.837c0-.329-.11-.458-.31-.458-.358,0-.558.478-.727,1.186-.06.218-.069.229-.169.229-.02,0-.12,0-.12-.1a4.983,4.983,0,0,1,.3-.967.87.87,0,0,1,.747-.569.9.9,0,0,1,.917.868,1.926,1.926,0,0,1,1.554-.868,1.018,1.018,0,0,1,1.146,1.067,8.937,8.937,0,0,1-.608,2.192,1.911,1.911,0,0,0-.179.707c0,.23.07.329.24.329.487,0,.816-.558,1.016-1.235.049-.149.049-.18.149-.18.03,0,.12,0,.12.1,0,.08-.369,1.534-1.305,1.534a.8.8,0,0,1-.818-.816,1.13,1.13,0,0,1,.1-.459,9.494,9.494,0,0,0,.648-2.322c0-.329-.09-.7-.538-.7a1.98,1.98,0,0,0-1.624,1.215c-.011.04-.09.329-.13.5-.05.229-.11.448-.169.667l-.219.9c-.061.249-.18.717-.19.738a.407.407,0,0,1-.369.278.267.267,0,0,1-.289-.268c0-.05.06-.28.09-.429Z" transform="translate(-498.055 -322.555)"/>
    <path class="cls-1" d="M537.518,411.437c0,.368.03.478.927.478h.319v.309c-.349-.031-1.216-.031-1.615-.031s-1.265,0-1.613.031v-.309h.318c.9,0,.927-.12.927-.478v-5.162a2.984,2.984,0,0,1-1.3.259v-.308a2.461,2.461,0,0,0,1.813-.638c.229,0,.229.019.229.259Z" transform="translate(-498.055 -322.555)"/>
    <g>
      <path class="cls-1" d="M551.8,397.292a.8.8,0,0,0,1.166-.966h.249l-.279,1.734h-3.7c0-.24,0-.259.11-.37l1.913-2.131a3.575,3.575,0,0,0,1.046-2.2c0-.817-.428-1.624-1.335-1.624a1.438,1.438,0,0,0-1.345,1.017.377.377,0,0,1,.129-.01.5.5,0,0,1,.529.518.524.524,0,1,1-1.047-.03,1.84,1.84,0,0,1,1.863-1.8,1.957,1.957,0,0,1,2.113,1.932c0,1-.6,1.535-2.152,2.91l-1.056,1.026Z" transform="translate(-498.055 -322.555)"/>
      <path class="cls-1" d="M567.456,396.355a2.032,2.032,0,0,1-2.123,1.923,1.817,1.817,0,0,1-2.013-1.563.559.559,0,1,1,1.117-.021.546.546,0,0,1-.658.548A1.813,1.813,0,0,0,565.3,398c.439,0,1.126-.289,1.126-1.645,0-.976-.368-1.653-1.186-1.653H564.8c-.169,0-.239,0-.239-.11s.07-.11.149-.119.309-.021.389-.031a.965.965,0,0,0,.887-.517,2.492,2.492,0,0,0,.279-1.136c0-.9-.548-1.116-.957-1.116a1.615,1.615,0,0,0-1.325.617c.149,0,.617,0,.617.5a.508.508,0,1,1-1.016-.011c0-.757.758-1.354,1.764-1.354.957,0,1.834.557,1.834,1.375a1.8,1.8,0,0,0,.269,3.556Z" transform="translate(-498.055 -322.555)"/>
      <path class="cls-1" d="M577.338,396.415v-.309l3.059-4.672c.08-.121.11-.121.2-.121.16,0,.16.061.16.26v4.533h1v.309h-1v.867c0,.359.02.469.757.469h.209v.309c-.409-.031-.936-.031-1.355-.031s-.936,0-1.345.031v-.309h.209c.738,0,.757-.11.757-.469v-.867Zm2.71-4.025-2.431,3.716h2.431Z" transform="translate(-498.055 -322.555)"/>
    </g>
    <g>
      <path class="cls-1" d="M593.531,412.442a1.828,1.828,0,0,1-1.8-1.823.494.494,0,1,1,.488.448.466.466,0,0,1-.17-.019,1.554,1.554,0,0,0,1.465,1.116,1.246,1.246,0,0,0,1.066-.647,2.9,2.9,0,0,0,.239-1.366,3.072,3.072,0,0,0-.179-1.255.971.971,0,0,0-.847-.638,1.5,1.5,0,0,0-1.285.7c-.04.061-.06.09-.13.09-.139,0-.139-.079-.139-.259v-2.949c0-.159,0-.239.1-.239a.3.3,0,0,1,.12.03,3.236,3.236,0,0,0,1.325.278,3.287,3.287,0,0,0,1.355-.289.15.15,0,0,1,.08-.029.1.1,0,0,1,.1.109,2.172,2.172,0,0,1-1.923,1.036,3.148,3.148,0,0,1-.847-.129v1.943a1.75,1.75,0,0,1,1.265-.508,2.045,2.045,0,0,1,1.893,2.182A2.2,2.2,0,0,1,593.531,412.442Z" transform="translate(-498.055 -322.555)"/>
      <path class="cls-1" d="M607.947,407.969a2.09,2.09,0,0,1,1.993,2.222,2.132,2.132,0,0,1-2.053,2.251c-.927,0-2.082-.707-2.082-3.367,0-2.2,1.345-3.487,2.62-3.487.827,0,1.265.477,1.265,1.076a.458.458,0,1,1-.916.02c0-.449.4-.449.548-.449a1.027,1.027,0,0,0-.877-.4c-.508,0-1.743.358-1.743,2.879v.239A1.378,1.378,0,0,1,607.947,407.969Zm.927,3.548a3.338,3.338,0,0,0,.169-1.336,3.3,3.3,0,0,0-.179-1.365.961.961,0,0,0-.927-.618c-.9,0-1.216,1-1.216,1.774a4.853,4.853,0,0,0,.18,1.445,1.144,1.144,0,0,0,.986.747A1.043,1.043,0,0,0,608.874,411.517Z" transform="translate(-498.055 -322.555)"/>
    </g>
    <path class="cls-1" d="M623.065,408.049a4.361,4.361,0,0,0-.618,1.7,11.122,11.122,0,0,0-.11,1.634v.508c0,.1,0,.547-.458.547s-.458-.448-.458-.547a6.969,6.969,0,0,1,1.225-3.747c.219-.329,1.006-1.415,1.116-1.574H621.7a5.027,5.027,0,0,0-.977.06,2.793,2.793,0,0,0-.249.907h-.249l.329-2.053h.249c.04.19.06.319,1.275.319H624.5c0,.209,0,.229-.09.348Z" transform="translate(-498.055 -322.555)"/>
    <g>
      <path class="cls-1" d="M504.7,410.36v-.578h2.641v.578Z" transform="translate(-498.055 -322.555)"/>
      <path class="cls-1" d="M510.875,411.437c0,.368.031.478.927.478h.319v.309c-.349-.031-1.215-.031-1.614-.031s-1.265,0-1.614.031v-.309h.319c.9,0,.926-.12.926-.478v-5.162a2.984,2.984,0,0,1-1.3.259v-.308a2.459,2.459,0,0,0,1.813-.638c.229,0,.229.019.229.259Z" transform="translate(-498.055 -322.555)"/>
    </g>
    <line class="cls-4" x1="21.26" y1="65.193" x2="28.346" y2="65.193"/>
    <path class="cls-1" d="M524.64,411.287a1.864,1.864,0,0,1-3.378.15,5.045,5.045,0,0,1-.449-2.4,5.328,5.328,0,0,1,.369-2.262,1.827,1.827,0,0,1,1.734-1.185,1.848,1.848,0,0,1,1.694,1.115,7.052,7.052,0,0,1,.03,4.584Zm-.568-.308a19.351,19.351,0,0,0,.01-4.006c-.19-.987-.847-1.166-1.176-1.166-.249,0-1,.089-1.186,1.275a13.491,13.491,0,0,0-.079,1.834,13.651,13.651,0,0,0,.109,2.1c.179.957.767,1.206,1.156,1.206C523.354,412.224,523.922,411.925,524.072,410.979Z" transform="translate(-498.055 -322.555)"/>
    <path class="cls-1" d="M512.674,390.194c0,.369.031.479.927.479h.319v.308c-.349-.03-1.215-.03-1.614-.03s-1.265,0-1.614.03v-.308h.319c.9,0,.926-.12.926-.479v-5.161a2.984,2.984,0,0,1-1.305.259v-.309a2.462,2.462,0,0,0,1.813-.637c.229,0,.229.019.229.258Z" transform="translate(-498.055 -322.555)"/>
    <line class="cls-4" x1="251.573" y1="26.217" x2="251.573" y2="33.303"/>
    <polyline class="cls-3" points="241.936 27.492 237.4 29.76 241.936 32.028 240.802 29.76"/>
    <polyline class="cls-3" points="247.038 32.028 251.573 29.76 247.038 27.492 248.172 29.76"/>
    <line class="cls-9" x1="240.802" y1="29.76" x2="248.172" y2="29.76"/>
    <path class="cls-3" d="M742.522,341.893c-.168,0-.348,0-.348-.2s.18-.2.348-.2h5.391c.169,0,.349,0,.349.2s-.18.2-.349.2Z" transform="translate(-498.055 -322.555)"/>
    <g>
      <path class="cls-3" d="M751.226,342.669c-.129.5-.129.519-.269.977-.119.369-.2.647-.5.647a.27.27,0,0,1-.289-.268c0-.07,0-.09.08-.239a21.089,21.089,0,0,0,1.275-3.319h-.568a1.405,1.405,0,0,0-1.266.768c-.059.079-.079.119-.159.119-.12,0-.12-.089-.12-.1a3.575,3.575,0,0,1,.609-.9,1.267,1.267,0,0,1,1.036-.468H754.4c.189,0,.4,0,.4.239,0,.338-.358.338-.488.338h-1.136a7.779,7.779,0,0,0-.18,1.585,4.283,4.283,0,0,0,.289,1.644.388.388,0,0,1-.348.6c-.15,0-.259-.059-.359-.5a3.122,3.122,0,0,1-.08-.757,10.959,10.959,0,0,1,.419-2.571h-1.126Z" transform="translate(-498.055 -322.555)"/>
      <path class="cls-3" d="M756.107,346.436c-.06.169-.089.239-.219.239a.2.2,0,0,1-.2-.2.535.535,0,0,1,.05-.18l3.458-9.5a.185.185,0,0,1,.169-.09.2.2,0,0,1,.2.2.544.544,0,0,1-.049.18Z" transform="translate(-498.055 -322.555)"/>
    </g>
    <path class="cls-3" d="M764.736,342.48a2.032,2.032,0,0,1-2.122,1.923,1.816,1.816,0,0,1-2.012-1.564.558.558,0,1,1,1.115-.02.545.545,0,0,1-.657.548,1.812,1.812,0,0,0,1.524.758c.438,0,1.126-.29,1.126-1.645,0-.976-.369-1.654-1.186-1.654h-.438c-.17,0-.239,0-.239-.109s.069-.11.149-.12.309-.02.389-.03a.964.964,0,0,0,.886-.518,2.492,2.492,0,0,0,.28-1.136c0-.9-.549-1.116-.957-1.116a1.614,1.614,0,0,0-1.325.618c.149,0,.618,0,.618.5a.509.509,0,1,1-1.017-.01c0-.757.757-1.355,1.764-1.355.956,0,1.833.558,1.833,1.375a1.918,1.918,0,0,1-1.395,1.754A1.922,1.922,0,0,1,764.736,342.48Z" transform="translate(-498.055 -322.555)"/>
  </g>
</svg>
