<svg id="Layer_1" data-name="Layer 1" xmlns="http://www.w3.org/2000/svg" viewBox="0 0 197.437 80.2">
  <defs>
    <style>
      .cls-1 {
        fill: none;
        stroke: #000;
        stroke-miterlimit: 10;
        stroke-width: 0.85px;
      }

      .cls-2 {
        fill: #1d1d1b;
      }
    </style>
  </defs>
  <title>example3</title>
  <g>
    <polyline points="170.15 74.559 174.686 72.291 170.15 70.024 171.284 72.291"/>
    <line class="cls-1" x1="153.426" y1="72.291" x2="171.284" y2="72.291"/>
    <path class="cls-2" d="M769.526,418.721a2.625,2.625,0,0,1-2.331,2.033.942.942,0,0,1-1.056-.867.574.574,0,0,1,.558-.647.338.338,0,0,1,.368.348.538.538,0,0,1-.2.408.563.563,0,0,1-.428.121.8.8,0,0,0,.757.418,1.425,1.425,0,0,0,1.1-.629,3.8,3.8,0,0,0,.647-1.533,1.4,1.4,0,0,1-1,.447,1.111,1.111,0,0,1-1.216-1.185,6.575,6.575,0,0,1,.578-2.092,2.129,2.129,0,0,0,.169-.7c0-.319-.169-.319-.249-.319-.339,0-.737.3-1.006,1.235-.05.16-.061.179-.16.179-.02,0-.119,0-.119-.1s.368-1.535,1.315-1.535a.791.791,0,0,1,.817.818,1.792,1.792,0,0,1-.2.717,5.934,5.934,0,0,0-.508,1.953c0,.369.11.807.619.807a1.384,1.384,0,0,0,1.125-.848l.449-1.793c.059-.27.129-.537.2-.8.039-.18.119-.488.14-.537a.433.433,0,0,1,.348-.211.267.267,0,0,1,.289.27.632.632,0,0,1-.04.23Z" transform="translate(-583.827 -343.91)"/>
    <path class="cls-2" d="M772.1,421.2v-9.965h1.365v.4H772.5v9.168h.967v.4Z" transform="translate(-583.827 -343.91)"/>
    <path class="cls-2" d="M775.135,415.822a3.225,3.225,0,0,0,.159-.838c0-.328-.109-.457-.309-.457-.359,0-.558.477-.727,1.186-.06.219-.07.228-.17.228-.02,0-.119,0-.119-.1a5.025,5.025,0,0,1,.3-.967.868.868,0,0,1,.747-.568.9.9,0,0,1,.917.867,1.924,1.924,0,0,1,1.554-.867,1.018,1.018,0,0,1,1.146,1.066,9,9,0,0,1-.608,2.193,1.906,1.906,0,0,0-.179.707c0,.229.069.329.239.329.488,0,.816-.559,1.016-1.235.05-.15.05-.179.15-.179.029,0,.119,0,.119.1,0,.08-.369,1.533-1.306,1.533a.8.8,0,0,1-.816-.816,1.139,1.139,0,0,1,.1-.459,9.5,9.5,0,0,0,.647-2.32c0-.33-.09-.7-.538-.7a1.984,1.984,0,0,0-1.624,1.215c-.01.039-.09.328-.13.5-.05.229-.109.449-.169.668l-.22.9c-.059.25-.178.716-.189.738a.4.4,0,0,1-.368.277.266.266,0,0,1-.289-.267c0-.051.059-.28.09-.43Z" transform="translate(-583.827 -343.91)"/>
    <path class="cls-2" d="M781.264,421.2H779.9v-.4h.967v-9.168H779.9v-.4h1.366Z" transform="translate(-583.827 -343.91)"/>
    <path class="cls-2" d="M588.63,349.739a3.877,3.877,0,0,0-.17.877c0,.339.16.658.548.658.319,0,1-.239,1.325-1.306.021-.07.041-.109.13-.109.03,0,.12,0,.12.1,0,.25-.568,1.535-1.595,1.535a1.1,1.1,0,0,1-1.075-.757,1.329,1.329,0,0,1-1.047.757c-.438,0-.936-.2-.936-.658a.567.567,0,0,1,.548-.578.341.341,0,0,1,.368.349.565.565,0,0,1-.468.538.954.954,0,0,0,.5.13c.438,0,.787-.419.947-1.037a14.59,14.59,0,0,0,.538-2.371c0-.578-.349-.668-.538-.668-.339,0-1,.25-1.335,1.306-.02.089-.05.109-.13.109-.02,0-.12,0-.12-.1,0-.249.569-1.535,1.6-1.535a1.1,1.1,0,0,1,1.076.757,1.289,1.289,0,0,1,1.046-.757c.339,0,.927.14.927.658a.556.556,0,0,1-.538.578.348.348,0,0,1-.379-.349.579.579,0,0,1,.478-.538.974.974,0,0,0-.5-.13c-.7,0-.927.917-.986,1.176Z" transform="translate(-583.827 -343.91)"/>
    <path class="cls-2" d="M592.457,353.875V343.91h1.365v.4h-.967v9.167h.967v.4Z" transform="translate(-583.827 -343.91)"/>
    <path class="cls-2" d="M595.5,348.494a3.2,3.2,0,0,0,.16-.837c0-.329-.11-.459-.309-.459-.358,0-.558.479-.727,1.186-.06.22-.07.229-.169.229-.02,0-.12,0-.12-.1a4.983,4.983,0,0,1,.3-.967.87.87,0,0,1,.747-.568.9.9,0,0,1,.917.867,1.926,1.926,0,0,1,1.554-.867A1.019,1.019,0,0,1,599,348.045a8.937,8.937,0,0,1-.608,2.192,1.9,1.9,0,0,0-.179.708c0,.229.07.329.239.329.488,0,.817-.558,1.016-1.236.05-.149.05-.179.15-.179.029,0,.119,0,.119.1,0,.08-.368,1.535-1.3,1.535a.8.8,0,0,1-.817-.817,1.136,1.136,0,0,1,.1-.459,9.5,9.5,0,0,0,.647-2.321c0-.329-.09-.7-.538-.7a1.983,1.983,0,0,0-1.624,1.216c-.01.04-.09.329-.13.5-.049.23-.109.449-.169.668l-.219.9c-.06.249-.18.717-.189.737a.408.408,0,0,1-.369.279.267.267,0,0,1-.289-.269c0-.05.06-.279.09-.429Z" transform="translate(-583.827 -343.91)"/>
    <path class="cls-2" d="M601.624,353.875h-1.366v-.4h.967v-9.167h-.967v-.4h1.366Z" transform="translate(-583.827 -343.91)"/>
    <polyline points="42.592 17.866 47.127 15.599 42.592 13.331 43.726 15.599"/>
    <line class="cls-1" x1="4.778" y1="15.599" x2="43.726" y2="15.599"/>
    <path class="cls-2" d="M644.617,362.157a.858.858,0,0,0-.04.21c0,.159.08.189.369.219.259.019.388.019.637.019s.339,0,.339.11c0,.2-.119.2-.219.2-.279,0-.578-.02-.867-.02-.269,0-.548-.01-.827-.01s-.568.01-.847.01-.548.02-.817.02c-.06,0-.169,0-.169-.12,0-.19.059-.19.418-.19,1.066,0,1.1-.109,1.186-.478l1.335-5.32a.981.981,0,0,0,.04-.21c0-.079,0-.119-.279-.119h-.389c-1.474,0-1.734.179-2.271,1.724-.06.159-.07.209-.17.209a.113.113,0,0,1-.119-.11,1.387,1.387,0,0,1,.059-.179l.6-1.754c.07-.189.08-.2.319-.2h5.53c.17,0,.269,0,.269.109a1.1,1.1,0,0,1-.02.17l-.269,1.734c-.02.149-.039.229-.149.229a.117.117,0,0,1-.12-.13,1.468,1.468,0,0,1,.03-.189,7.344,7.344,0,0,0,.08-.8c0-.777-.449-.817-1.455-.817a5.429,5.429,0,0,0-.628.02c-.119.03-.159.089-.229.368Z" transform="translate(-583.827 -343.91)"/>
    <path class="cls-1" d="M630.954,359.509V345.336H659.3v28.346H630.954Zm84.869,0h14.343" transform="translate(-583.827 -343.91)"/>
    <polyline points="78.025 74.559 82.56 72.291 78.025 70.024 79.159 72.291"/>
    <path class="cls-1" d="M616.781,416.2h46.205m-46.035-21.26-.17,21.26" transform="translate(-583.827 -343.91)"/>
    <polyline points="30.856 32.323 33.124 36.859 35.392 32.323 33.124 33.457"/>
    <path class="cls-1" d="M616.951,359.509v17.858m7.268,10.5a7.257,7.257,0,1,0-7.257,7.257,7.259,7.259,0,0,0,7.257-7.257Zm-10.811-3.556L620.5,391.4m-7.087,0,7.087-7.087" transform="translate(-583.827 -343.91)"/>
    <polyline points="21.502 46.213 26.038 43.945 21.502 41.677 22.636 43.945"/>
    <line class="cls-1" x1="15.408" y1="43.945" x2="22.636" y2="43.945"/>
    <path class="cls-2" d="M584.176,388.451c-.17,0-.349,0-.349-.2s.179-.2.349-.2h5.39c.17,0,.349,0,.349.2s-.179.2-.349.2Z" transform="translate(-583.827 -343.91)"/>
    <path class="cls-2" d="M593.726,389.955c0,.369.03.479.927.479h.319v.308c-.349-.029-1.216-.029-1.615-.029s-1.265,0-1.613.029v-.308h.319c.9,0,.926-.12.926-.479V384.8a2.994,2.994,0,0,1-1.305.258v-.309a2.464,2.464,0,0,0,1.813-.637c.229,0,.229.02.229.258Z" transform="translate(-583.827 -343.91)"/>
    <polyline points="144.242 32.493 146.509 37.029 148.777 32.493 146.509 33.627"/>
    <path class="cls-1" d="M730.336,359.679v17.858m7.283,10.571a7.257,7.257,0,1,0-7.257,7.257,7.259,7.259,0,0,0,7.257-7.257Zm-10.826-3.626,7.087,7.087m-7.087,0,7.087-7.087" transform="translate(-583.827 -343.91)"/>
    <polyline points="134.887 46.383 139.423 44.115 134.887 41.847 136.021 44.115"/>
    <line class="cls-1" x1="128.793" y1="44.115" x2="136.021" y2="44.115"/>
    <path class="cls-2" d="M697.582,388.576c-.169,0-.349,0-.349-.2s.18-.2.349-.2h5.391c.169,0,.348,0,.348.2s-.179.2-.348.2Z" transform="translate(-583.827 -343.91)"/>
    <path class="cls-2" d="M707.133,390.08c0,.369.029.479.927.479h.318v.308c-.349-.029-1.216-.029-1.614-.029s-1.266,0-1.615.029v-.308h.32c.9,0,.927-.12.927-.479v-5.16a3,3,0,0,1-1.306.258v-.309a2.463,2.463,0,0,0,1.813-.637c.23,0,.23.02.23.258Z" transform="translate(-583.827 -343.91)"/>
    <polyline points="99.284 17.866 103.82 15.599 99.284 13.331 100.418 15.599"/>
    <line class="cls-1" x1="75.473" y1="15.599" x2="100.418" y2="15.599"/>
    <path class="cls-2" d="M701.133,362.157a.858.858,0,0,0-.04.21c0,.159.08.189.368.219.26.019.389.019.638.019s.339,0,.339.11c0,.2-.12.2-.219.2-.28,0-.578-.02-.867-.02-.269,0-.548-.01-.828-.01s-.567.01-.846.01-.548.02-.818.02c-.059,0-.169,0-.169-.12,0-.19.06-.19.418-.19,1.067,0,1.1-.109,1.187-.478l1.335-5.32a.981.981,0,0,0,.04-.21c0-.079,0-.119-.279-.119H701c-1.475,0-1.733.179-2.272,1.724-.059.159-.07.209-.169.209a.113.113,0,0,1-.12-.11,1.255,1.255,0,0,1,.06-.179l.6-1.754c.07-.189.08-.2.319-.2h5.53c.169,0,.269,0,.269.109a1.1,1.1,0,0,1-.02.17l-.269,1.734c-.02.149-.04.229-.15.229a.117.117,0,0,1-.119-.13,1.65,1.65,0,0,1,.029-.189,7.382,7.382,0,0,0,.081-.8c0-.777-.449-.817-1.456-.817a5.4,5.4,0,0,0-.627.02c-.12.03-.16.089-.229.368Z" transform="translate(-583.827 -343.91)"/>
    <polygon class="cls-1" points="103.65 15.599 103.65 1.426 131.996 1.426 131.996 29.772 103.65 29.772 103.65 15.599"/>
    <polyline points="87.209 32.153 89.477 36.688 91.744 32.153 89.477 33.287"/>
    <path class="cls-1" d="M673.3,359.339V377.2m7.315,10.551a7.257,7.257,0,1,0-7.257,7.257,7.259,7.259,0,0,0,7.257-7.257Zm-10.859-3.606,7.087,7.086m-7.087,0,7.087-7.086" transform="translate(-583.827 -343.91)"/>
    <polyline points="77.855 46.043 82.39 43.775 77.855 41.507 78.988 43.775"/>
    <line class="cls-1" x1="71.76" y1="43.775" x2="78.988" y2="43.775"/>
    <path class="cls-2" d="M651.64,389.164a2.032,2.032,0,0,1-2.123,1.922,1.817,1.817,0,0,1-2.013-1.563.559.559,0,1,1,1.117-.021.547.547,0,0,1-.658.549,1.814,1.814,0,0,0,1.524.758c.439,0,1.126-.289,1.126-1.645,0-.976-.368-1.654-1.186-1.654h-.438c-.169,0-.239,0-.239-.11s.07-.109.149-.119.309-.021.389-.031a.964.964,0,0,0,.887-.518,2.48,2.48,0,0,0,.279-1.134c0-.9-.548-1.118-.957-1.118a1.613,1.613,0,0,0-1.325.618c.149,0,.618,0,.618.5a.509.509,0,1,1-1.017-.012c0-.756.758-1.354,1.764-1.354.957,0,1.834.557,1.834,1.375a1.8,1.8,0,0,0,.269,3.557Z" transform="translate(-583.827 -343.91)"/>
    <path class="cls-1" d="M680.619,416.068a7.257,7.257,0,1,0-7.257,7.257,7.259,7.259,0,0,0,7.257-7.257Zm-10.859.134h7.087m-3.543,3.543v-7.087" transform="translate(-583.827 -343.91)"/>
    <polyline points="87.379 60.669 89.647 65.205 91.914 60.669 89.647 61.803"/>
    <path class="cls-1" d="M673.474,394.942v10.771m63.785,10.715A7.257,7.257,0,1,0,730,423.685a7.259,7.259,0,0,0,7.257-7.257Zm-10.806.114h7.087M730,420.085V413" transform="translate(-583.827 -343.91)"/>
    <polyline points="144.072 61.01 146.339 65.545 148.607 61.01 146.339 62.143"/>
    <line class="cls-1" x1="146.339" y1="51.372" x2="146.339" y2="62.143"/>
    <polyline points="134.717 74.559 139.253 72.291 134.717 70.024 135.851 72.291"/>
    <line class="cls-1" x1="96.733" y1="72.291" x2="135.851" y2="72.291"/>
  </g>
</svg>
