<svg id="Layer_1" data-name="Layer 1" xmlns="http://www.w3.org/2000/svg" viewBox="0 0 336.328 85.323">
  <defs>
    <style>
      .cls-1 {
        fill: #1d1d1b;
      }

      .cls-2, .cls-3 {
        fill: none;
        stroke: #000;
        stroke-miterlimit: 10;
        stroke-width: 0.85px;
      }

      .cls-3 {
        stroke-linecap: round;
        stroke-dasharray: 0 3.685;
      }
    </style>
  </defs>
  <title>example2</title>
  <g>
    <path class="cls-1" d="M515.989,368.138a3.841,3.841,0,0,0-.169.877c0,.339.159.657.548.657.319,0,1-.239,1.325-1.305.02-.07.04-.11.13-.11.03,0,.119,0,.119.1,0,.249-.568,1.534-1.594,1.534a1.1,1.1,0,0,1-1.076-.757,1.324,1.324,0,0,1-1.046.757c-.439,0-.937-.2-.937-.657a.566.566,0,0,1,.548-.578.341.341,0,0,1,.369.348.564.564,0,0,1-.469.538.958.958,0,0,0,.5.13c.439,0,.787-.419.947-1.036a14.494,14.494,0,0,0,.538-2.371c0-.578-.348-.668-.538-.668-.339,0-1,.249-1.335,1.305-.02.09-.05.11-.13.11-.02,0-.119,0-.119-.1,0-.249.568-1.535,1.6-1.535a1.1,1.1,0,0,1,1.076.758,1.291,1.291,0,0,1,1.046-.758c.339,0,.927.14.927.658a.556.556,0,0,1-.538.578.348.348,0,0,1-.379-.348.578.578,0,0,1,.479-.538.976.976,0,0,0-.5-.13c-.7,0-.926.917-.986,1.175Z" transform="translate(-513.289 -342.578)"/>
    <path class="cls-1" d="M519.816,372.273v-9.964h1.366v.4h-.967v9.166h.967v.4Z" transform="translate(-513.289 -342.578)"/>
    <path class="cls-1" d="M522.853,366.892a3.194,3.194,0,0,0,.16-.837c0-.328-.11-.458-.309-.458-.359,0-.558.478-.727,1.186-.06.219-.07.229-.17.229-.02,0-.119,0-.119-.1a5.007,5.007,0,0,1,.3-.966.87.87,0,0,1,.747-.569.9.9,0,0,1,.917.868,1.926,1.926,0,0,1,1.555-.868,1.019,1.019,0,0,1,1.146,1.067,8.982,8.982,0,0,1-.608,2.192,1.893,1.893,0,0,0-.18.707c0,.229.07.329.24.329.488,0,.817-.558,1.016-1.235.05-.15.05-.18.149-.18.03,0,.12,0,.12.1,0,.08-.369,1.534-1.3,1.534a.8.8,0,0,1-.818-.817,1.15,1.15,0,0,1,.1-.458,9.462,9.462,0,0,0,.648-2.322c0-.329-.09-.7-.538-.7a1.979,1.979,0,0,0-1.624,1.216c-.01.04-.09.328-.13.5-.05.229-.109.448-.169.667l-.219.9c-.06.249-.18.717-.19.737a.406.406,0,0,1-.368.279.266.266,0,0,1-.289-.268c0-.051.06-.28.089-.429Z" transform="translate(-513.289 -342.578)"/>
    <path class="cls-1" d="M528.983,372.273h-1.365v-.4h.966v-9.166h-.966v-.4h1.365Z" transform="translate(-513.289 -342.578)"/>
    <polyline points="40.56 37.56 45.095 35.292 40.56 33.024 41.693 35.292"/>
    <line class="cls-2" x1="2.746" y1="35.292" x2="41.693" y2="35.292"/>
    <path class="cls-1" d="M572.093,380.548a.876.876,0,0,0-.039.209c0,.16.079.189.368.22.259.019.389.019.638.019s.339,0,.339.11c0,.2-.12.2-.219.2-.28,0-.578-.02-.867-.02-.27,0-.548-.01-.827-.01s-.568.01-.847.01-.548.02-.817.02c-.06,0-.17,0-.17-.119,0-.19.06-.19.419-.19,1.066,0,1.1-.109,1.185-.478l1.336-5.321a.976.976,0,0,0,.039-.209c0-.08,0-.119-.278-.119h-.389c-1.475,0-1.734.179-2.272,1.723-.06.159-.069.209-.169.209a.113.113,0,0,1-.12-.109,1.214,1.214,0,0,1,.06-.179l.6-1.754c.069-.19.08-.2.319-.2h5.53c.169,0,.269,0,.269.109a1.087,1.087,0,0,1-.02.169l-.269,1.734c-.02.15-.04.229-.15.229a.116.116,0,0,1-.119-.129,1.665,1.665,0,0,1,.029-.19,7.306,7.306,0,0,0,.08-.8c0-.778-.448-.817-1.455-.817a5.683,5.683,0,0,0-.627.019c-.12.03-.16.09-.23.369Z" transform="translate(-513.289 -342.578)"/>
    <polygon class="cls-2" points="45.095 35.292 45.095 21.119 73.441 21.119 73.441 49.465 45.095 49.465 45.095 35.292"/>
    <polyline points="83.079 37.56 87.615 35.292 83.079 33.024 84.213 35.292"/>
    <line class="cls-2" x1="73.441" y1="35.292" x2="84.213" y2="35.292"/>
    <path class="cls-1" d="M614.453,380.548a.856.856,0,0,0-.04.209c0,.16.08.189.369.22.259.019.388.019.637.019s.339,0,.339.11c0,.2-.119.2-.219.2-.279,0-.578-.02-.867-.02-.269,0-.548-.01-.827-.01s-.568.01-.847.01-.548.02-.817.02c-.06,0-.169,0-.169-.119,0-.19.059-.19.418-.19,1.066,0,1.1-.109,1.186-.478l1.335-5.321a.97.97,0,0,0,.04-.209c0-.08,0-.119-.279-.119h-.389c-1.474,0-1.734.179-2.271,1.723-.06.159-.07.209-.17.209a.113.113,0,0,1-.119-.109,1.338,1.338,0,0,1,.059-.179l.6-1.754c.07-.19.08-.2.319-.2h5.53c.169,0,.269,0,.269.109a1.087,1.087,0,0,1-.02.169l-.269,1.734c-.02.15-.04.229-.149.229a.117.117,0,0,1-.12-.129,1.481,1.481,0,0,1,.03-.19,7.306,7.306,0,0,0,.08-.8c0-.778-.449-.817-1.455-.817a5.713,5.713,0,0,0-.628.019c-.119.03-.159.09-.229.369Z" transform="translate(-513.289 -342.578)"/>
    <polygon class="cls-2" points="87.444 35.292 87.444 21.119 115.791 21.119 115.791 49.465 87.444 49.465 87.444 35.292"/>
    <polyline points="125.769 37.56 130.304 35.292 125.769 33.024 126.902 35.292"/>
    <line class="cls-2" x1="116.131" y1="35.292" x2="126.902" y2="35.292"/>
    <path class="cls-1" d="M657.171,380.548a.876.876,0,0,0-.039.209c0,.16.079.189.368.22.259.019.389.019.638.019s.339,0,.339.11c0,.2-.12.2-.219.2-.279,0-.578-.02-.867-.02-.269,0-.548-.01-.827-.01s-.568.01-.847.01-.548.02-.817.02c-.06,0-.17,0-.17-.119,0-.19.06-.19.419-.19,1.066,0,1.1-.109,1.185-.478l1.336-5.321a.976.976,0,0,0,.039-.209c0-.08,0-.119-.278-.119h-.389c-1.475,0-1.734.179-2.271,1.723-.061.159-.07.209-.17.209a.113.113,0,0,1-.12-.109,1.214,1.214,0,0,1,.06-.179l.6-1.754c.069-.19.08-.2.319-.2h5.53c.169,0,.269,0,.269.109a1.087,1.087,0,0,1-.02.169l-.269,1.734c-.02.15-.04.229-.15.229a.116.116,0,0,1-.119-.129,1.481,1.481,0,0,1,.03-.19,7.306,7.306,0,0,0,.08-.8c0-.778-.449-.817-1.455-.817a5.7,5.7,0,0,0-.628.019c-.12.03-.16.09-.229.369Z" transform="translate(-513.289 -342.578)"/>
    <polygon class="cls-2" points="130.134 35.292 130.134 21.119 158.48 21.119 158.48 49.465 130.134 49.465 130.134 35.292"/>
    <polyline points="168.288 37.56 172.823 35.292 168.288 33.024 169.422 35.292"/>
    <line class="cls-2" x1="158.65" y1="35.292" x2="169.422" y2="35.292"/>
    <path class="cls-1" d="M699.648,380.548a.856.856,0,0,0-.04.209c0,.16.08.189.369.22.259.019.388.019.637.019s.339,0,.339.11c0,.2-.119.2-.219.2-.279,0-.578-.02-.867-.02-.268,0-.548-.01-.827-.01s-.567.01-.847.01-.547.02-.817.02c-.06,0-.169,0-.169-.119,0-.19.06-.19.418-.19,1.066,0,1.1-.109,1.187-.478l1.334-5.321a.964.964,0,0,0,.041-.209c0-.08,0-.119-.28-.119h-.388c-1.475,0-1.734.179-2.272,1.723-.059.159-.07.209-.17.209a.113.113,0,0,1-.119-.109,1.214,1.214,0,0,1,.06-.179l.6-1.754c.071-.19.08-.2.32-.2h5.53c.169,0,.268,0,.268.109a1.079,1.079,0,0,1-.019.169l-.27,1.734c-.019.15-.04.229-.149.229a.116.116,0,0,1-.119-.129,1.469,1.469,0,0,1,.029-.19,7.306,7.306,0,0,0,.08-.8c0-.778-.448-.817-1.455-.817a5.713,5.713,0,0,0-.628.019c-.119.03-.159.09-.228.369Z" transform="translate(-513.289 -342.578)"/>
    <path class="cls-2" d="M685.942,377.87V363.7h28.347v28.346H685.942Zm28.347,0h14.343m7.267,35.359a7.257,7.257,0,1,0-7.257,7.257,7.259,7.259,0,0,0,7.257-7.257Zm-10.81.074h7.086m-3.543,3.543V409.76M544.381,377.87V413.3" transform="translate(-513.289 -342.578)"/>
    <polyline points="203.721 72.992 208.256 70.725 203.721 68.457 204.855 70.725"/>
    <line class="cls-2" x1="31.092" y1="70.725" x2="204.855" y2="70.725"/>
    <polyline points="213.075 59.103 215.343 63.638 217.611 59.103 215.343 60.237"/>
    <line class="cls-2" x1="215.343" y1="35.292" x2="215.343" y2="60.237"/>
    <polyline points="246.24 72.992 250.776 70.725 246.24 68.457 247.374 70.725"/>
    <line class="cls-2" x1="222.43" y1="70.725" x2="247.374" y2="70.725"/>
    <polygon class="cls-3" points="24.005 49.465 24.005 84.898 229.516 84.898 229.516 14.032 24.005 14.032 24.005 49.465"/>
    <g>
      <path class="cls-1" d="M637.4,344.85h-.249c-.159-1.375-.408-1.933-1.9-1.933h-1.2c-.468,0-.488.069-.488.4v2.521h.857c.956,0,1.056-.329,1.056-1.166h.25v2.641h-.25c0-.847-.1-1.166-1.056-1.166h-.857V348.6c0,.349,0,.478.947.478h.328v.309c-.358-.029-1.265-.029-1.673-.029-.389,0-1.166,0-1.515.029v-.309h.239c.767,0,.787-.109.787-.468v-5.221c0-.359-.02-.468-.787-.468h-.239v-.309h5.47Z" transform="translate(-513.289 -342.578)"/>
      <path class="cls-1" d="M640.038,348.606c0,.359.03.468.817.468h.259v.309c-.349-.029-1.136-.029-1.525-.029s-1.165,0-1.514.029v-.309h.259c.787,0,.817-.109.817-.468v-5.251c0-.358-.03-.468-.817-.468h-.259v-.309c.349.03,1.136.03,1.525.03s1.165,0,1.514-.03v.309h-.259c-.787,0-.817.11-.817.468Z" transform="translate(-513.289 -342.578)"/>
    </g>
    <path class="cls-1" d="M646.948,347.151l.13.8c.139.926.219,1.434.707,1.434.25,0,.6-.179.658-.886.01-.07.01-.16.12-.16.129,0,.129.11.129.169,0,.28-.17,1.1-.946,1.1a1.945,1.945,0,0,1-1.256-.419c-.408-.379-.408-.777-.408-1.425,0-.667,0-.976-.379-1.335a1.27,1.27,0,0,0-.927-.339H643.63v2.521c0,.359.02.468.787.468h.24v.309c-.359-.029-1.067-.029-1.455-.029s-1.1,0-1.455.029v-.309h.239c.767,0,.787-.109.787-.468v-5.251c0-.358-.02-.468-.787-.468h-.239v-.309h3.129c1.465,0,2.6.837,2.6,1.794,0,.776-.778,1.384-1.744,1.624A1.726,1.726,0,0,1,646.948,347.151Zm-2.212-1.285c1.475,0,1.714-.807,1.714-1.494,0-1.445-1.116-1.485-2.012-1.485a4.85,4.85,0,0,0-.588.02c-.22.03-.22.149-.22.378v2.581Z" transform="translate(-513.289 -342.578)"/>
    <path class="cls-1" d="M760.847,401.721a2.627,2.627,0,0,1-2.331,2.033.943.943,0,0,1-1.057-.867.574.574,0,0,1,.559-.647.339.339,0,0,1,.368.348.541.541,0,0,1-.2.408.566.566,0,0,1-.429.121.8.8,0,0,0,.758.418,1.422,1.422,0,0,0,1.1-.629,3.8,3.8,0,0,0,.648-1.533,1.4,1.4,0,0,1-1.006.447,1.111,1.111,0,0,1-1.216-1.185,6.6,6.6,0,0,1,.578-2.092,2.1,2.1,0,0,0,.169-.7c0-.319-.169-.319-.249-.319-.339,0-.737.3-1.006,1.235-.05.16-.06.179-.16.179-.019,0-.119,0-.119-.1s.368-1.535,1.315-1.535a.791.791,0,0,1,.817.818,1.785,1.785,0,0,1-.2.717,5.934,5.934,0,0,0-.508,1.953c0,.369.109.807.618.807a1.384,1.384,0,0,0,1.125-.848l.449-1.793c.06-.27.129-.537.2-.8.039-.18.12-.488.14-.537a.433.433,0,0,1,.349-.211.267.267,0,0,1,.289.27.632.632,0,0,1-.04.23Z" transform="translate(-513.289 -342.578)"/>
    <path class="cls-1" d="M763.418,404.2v-9.965h1.365v.4h-.967v9.168h.967v.4Z" transform="translate(-513.289 -342.578)"/>
    <path class="cls-1" d="M766.455,398.822a3.225,3.225,0,0,0,.159-.838c0-.328-.109-.457-.308-.457-.36,0-.559.477-.728,1.186-.059.219-.07.228-.17.228-.019,0-.119,0-.119-.1a5.1,5.1,0,0,1,.3-.967.869.869,0,0,1,.747-.568.9.9,0,0,1,.917.867,1.925,1.925,0,0,1,1.555-.867,1.018,1.018,0,0,1,1.145,1.066,9.044,9.044,0,0,1-.607,2.193,1.888,1.888,0,0,0-.18.707c0,.229.069.329.239.329.489,0,.817-.559,1.016-1.235.051-.15.051-.179.15-.179.03,0,.119,0,.119.1,0,.08-.369,1.533-1.3,1.533a.8.8,0,0,1-.817-.816,1.139,1.139,0,0,1,.1-.459,9.5,9.5,0,0,0,.647-2.32c0-.33-.089-.7-.538-.7a1.985,1.985,0,0,0-1.624,1.215c-.009.039-.089.328-.13.5-.049.229-.109.449-.168.668l-.22.9c-.06.25-.179.716-.19.738a.4.4,0,0,1-.368.277.267.267,0,0,1-.289-.267c0-.051.06-.28.09-.43Z" transform="translate(-513.289 -342.578)"/>
    <g>
      <path class="cls-1" d="M772.584,404.2h-1.365v-.4h.967v-9.168h-.967v-.4h1.365Z" transform="translate(-513.289 -342.578)"/>
      <path class="cls-1" d="M777.416,398.453c-.149,0-.339,0-.339-.2s.19-.2.329-.2h5.969c.14,0,.328,0,.328.2s-.188.2-.338.2Zm-.01,1.934c-.139,0-.329,0-.329-.2s.19-.2.339-.2h5.949c.15,0,.338,0,.338.2s-.188.2-.328.2Z" transform="translate(-513.289 -342.578)"/>
    </g>
    <path class="cls-1" d="M790.067,400.066a3.956,3.956,0,0,0-.17.877c0,.34.161.659.549.659.319,0,1-.239,1.325-1.3.02-.07.04-.109.129-.109.031,0,.121,0,.121.1,0,.248-.569,1.533-1.595,1.533a1.1,1.1,0,0,1-1.076-.756,1.326,1.326,0,0,1-1.046.756c-.439,0-.937-.2-.937-.656a.565.565,0,0,1,.548-.578.342.342,0,0,1,.369.348.567.567,0,0,1-.469.539.962.962,0,0,0,.5.129c.439,0,.788-.418.947-1.036a14.449,14.449,0,0,0,.538-2.373c0-.576-.349-.666-.538-.666-.338,0-1,.248-1.335,1.305-.02.09-.05.109-.129.109-.021,0-.12,0-.12-.1,0-.25.568-1.535,1.6-1.535a1.1,1.1,0,0,1,1.076.757,1.291,1.291,0,0,1,1.046-.757c.339,0,.927.14.927.658a.556.556,0,0,1-.538.578.348.348,0,0,1-.379-.35.577.577,0,0,1,.479-.537.982.982,0,0,0-.5-.129c-.7,0-.927.916-.987,1.176Z" transform="translate(-513.289 -342.578)"/>
    <path class="cls-1" d="M793.9,404.2v-9.965h1.365v.4h-.967v9.168h.967v.4Z" transform="translate(-513.289 -342.578)"/>
    <path class="cls-1" d="M796.932,398.822a3.225,3.225,0,0,0,.159-.838c0-.328-.11-.457-.309-.457-.359,0-.558.477-.727,1.186-.06.219-.071.228-.17.228-.02,0-.119,0-.119-.1a5.074,5.074,0,0,1,.3-.967.871.871,0,0,1,.748-.568.9.9,0,0,1,.917.867,1.922,1.922,0,0,1,1.554-.867,1.018,1.018,0,0,1,1.146,1.066,9,9,0,0,1-.608,2.193,1.887,1.887,0,0,0-.179.707c0,.229.069.329.239.329.488,0,.816-.559,1.015-1.235.051-.15.051-.179.151-.179.029,0,.119,0,.119.1,0,.08-.369,1.533-1.306,1.533a.8.8,0,0,1-.816-.816,1.139,1.139,0,0,1,.1-.459,9.5,9.5,0,0,0,.647-2.32c0-.33-.09-.7-.538-.7a1.984,1.984,0,0,0-1.624,1.215c-.01.039-.09.328-.13.5-.05.229-.109.449-.169.668l-.22.9c-.059.25-.178.716-.189.738a.4.4,0,0,1-.368.277.266.266,0,0,1-.289-.267c0-.051.059-.28.09-.43Z" transform="translate(-513.289 -342.578)"/>
    <path class="cls-1" d="M803.061,404.2H801.7v-.4h.967v-9.168H801.7v-.4h1.366Z" transform="translate(-513.289 -342.578)"/>
    <path class="cls-1" d="M807.691,399.42c-.169,0-.348,0-.348-.2s.179-.2.348-.2h5.391c.169,0,.349,0,.349.2s-.18.2-.349.2Z" transform="translate(-513.289 -342.578)"/>
    <path class="cls-1" d="M819.466,400.066a3.9,3.9,0,0,0-.17.877c0,.34.16.659.549.659.318,0,1-.239,1.325-1.3.019-.07.039-.109.129-.109.03,0,.12,0,.12.1,0,.248-.568,1.533-1.6,1.533a1.1,1.1,0,0,1-1.076-.756,1.324,1.324,0,0,1-1.046.756c-.438,0-.936-.2-.936-.656a.565.565,0,0,1,.547-.578.342.342,0,0,1,.37.348.567.567,0,0,1-.469.539.96.96,0,0,0,.5.129c.438,0,.787-.418.946-1.036a14.449,14.449,0,0,0,.538-2.373c0-.576-.348-.666-.538-.666-.338,0-1,.248-1.335,1.305-.019.09-.05.109-.129.109-.02,0-.12,0-.12-.1,0-.25.569-1.535,1.605-1.535a1.1,1.1,0,0,1,1.076.757,1.289,1.289,0,0,1,1.046-.757c.339,0,.927.14.927.658a.557.557,0,0,1-.539.578.348.348,0,0,1-.378-.35.577.577,0,0,1,.478-.537.98.98,0,0,0-.5-.129c-.7,0-.927.916-.986,1.176Z" transform="translate(-513.289 -342.578)"/>
    <path class="cls-1" d="M823.285,404.2v-9.965h1.365v.4h-.966v9.168h.966v.4Z" transform="translate(-513.289 -342.578)"/>
    <path class="cls-1" d="M826.33,398.822a3.225,3.225,0,0,0,.159-.838c0-.328-.109-.457-.308-.457-.36,0-.559.477-.728,1.186-.059.219-.07.228-.17.228-.019,0-.119,0-.119-.1a5.1,5.1,0,0,1,.3-.967.869.869,0,0,1,.747-.568.9.9,0,0,1,.917.867,1.925,1.925,0,0,1,1.555-.867,1.018,1.018,0,0,1,1.145,1.066,9.044,9.044,0,0,1-.607,2.193,1.888,1.888,0,0,0-.18.707c0,.229.069.329.239.329.489,0,.817-.559,1.016-1.235.051-.15.051-.179.15-.179.03,0,.119,0,.119.1,0,.08-.369,1.533-1.3,1.533a.8.8,0,0,1-.817-.816,1.139,1.139,0,0,1,.1-.459,9.5,9.5,0,0,0,.647-2.32c0-.33-.089-.7-.538-.7a1.985,1.985,0,0,0-1.624,1.215c-.009.039-.089.328-.13.5-.049.229-.109.449-.168.668l-.22.9c-.06.25-.179.716-.19.738a.4.4,0,0,1-.368.277.267.267,0,0,1-.289-.267c0-.051.06-.28.09-.43Z" transform="translate(-513.289 -342.578)"/>
    <path class="cls-1" d="M834.207,399.42c-.169,0-.349,0-.349-.2s.18-.2.349-.2H839.6c.169,0,.348,0,.348.2s-.179.2-.348.2Z" transform="translate(-513.289 -342.578)"/>
    <g>
      <path class="cls-1" d="M843.271,400.066v-.308l3.059-4.672c.08-.121.109-.121.2-.121.159,0,.159.06.159.26v4.533h1v.308h-1v.868c0,.359.021.468.758.468h.209v.309c-.408-.029-.936-.029-1.355-.029s-.937,0-1.345.029V401.4h.209c.737,0,.758-.109.758-.468v-.868Zm2.71-4.025-2.431,3.717h2.431Z" transform="translate(-513.289 -342.578)"/>
      <path class="cls-1" d="M849.617,404.2h-1.365v-.4h.967v-9.168h-.967v-.4h1.365Z" transform="translate(-513.289 -342.578)"/>
    </g>
  </g>
</svg>
