<svg id="Layer_1" data-name="Layer 1" xmlns="http://www.w3.org/2000/svg" viewBox="0 0 140.26 197.757">
  <defs>
    <style>
      .cls-1, .cls-4, .cls-5 {
        fill: none;
        stroke-miterlimit: 10;
      }

      .cls-1, .cls-4 {
        stroke: #000;
      }

      .cls-1 {
        stroke-width: 0.85px;
      }

      .cls-2 {
        fill: #1d1d1b;
      }

      .cls-3 {
        fill: red;
      }

      .cls-4 {
        stroke-linecap: round;
        stroke-dashoffset: -0.283px;
        stroke-width: 0.567px;
        stroke-dasharray: 0 3.419;
      }

      .cls-5 {
        stroke: #0000f7;
        stroke-width: 1.701px;
      }

      .cls-6 {
        fill: blue;
      }
    </style>
  </defs>
  <title>firstorder</title>
  <g>
    <polyline points="124.059 90.183 128.595 87.915 124.059 85.648 125.193 87.915"/>
    <path class="cls-1" d="M613.146,374.633H737.3m-120.614,3.543v-7.087" transform="translate(-612.109 -286.717)"/>
    <polyline points="63.54 7.412 61.272 2.876 59.005 7.412 61.272 6.278"/>
    <path class="cls-1" d="M673.382,385.263V293m-3.544,53.291h7.087m-17.716,31.89v-7.087m-14.174,7.087v-7.087m-14.173,7.087v-7.087m56.693,7.087v-7.087m14.173,7.087v-7.087m14.173,7.087v-7.087m14.173,7.087v-7.087" transform="translate(-612.109 -286.717)"/>
    <path class="cls-2" d="M749.45,378.211c-.907,0-1.2-1.106-1.2-2.042,0-2.282,1.534-5.091,2.919-5.091,1.016,0,1.2,1.384,1.2,2.042C752.369,375.352,750.855,378.211,749.45,378.211Zm-.22-3.407a7.656,7.656,0,0,0-.318,1.973c0,.927.209,1.216.538,1.216.429,0,.807-.489,1.155-1.166a8.977,8.977,0,0,0,.7-2.023Zm2.164-.319a8.3,8.3,0,0,0,.318-1.983c0-.567-.06-1.2-.548-1.2-.448,0-.817.557-1.086,1.046a9,9,0,0,0-.767,2.142Z" transform="translate(-612.109 -286.717)"/>
    <path class="cls-3" d="M682.1,299.109c0,.18,0,.359-.2.359s-.2-.179-.2-.359v-9.246c0-.179,0-.359.2-.359s.2.18.2.359Z" transform="translate(-612.109 -286.717)"/>
    <path class="cls-3" d="M689.531,296.319a1.01,1.01,0,0,0-.03.17c0,.179.279.179.647.179.19,0,.28,0,.28.11,0,.2-.12.2-.2.2-.209,0-.429-.02-.648-.02s-.429-.01-.638-.01c-.279,0-.987.03-1.265.03-.021,0-.14,0-.14-.109,0-.2.09-.2.239-.2.618,0,.807-.01.907-.329.04-.149.269-1.1.687-2.75h-3.039l-.677,2.73a1.01,1.01,0,0,0-.03.17c0,.179.279.179.647.179.19,0,.28,0,.28.11,0,.2-.12.2-.2.2-.21,0-.429-.02-.648-.02s-.429-.01-.638-.01c-.279,0-.987.03-1.265.03-.021,0-.14,0-.14-.109,0-.2.09-.2.269-.2.787,0,.807-.08.907-.468l1.335-5.351a.871.871,0,0,0,.04-.189c0-.13-.09-.139-.27-.16a3.6,3.6,0,0,0-.378-.02c-.189,0-.279,0-.279-.109,0-.2.11-.2.19-.2.289,0,1,.03,1.285.03s1-.03,1.275-.03c.03,0,.14,0,.14.109,0,.2-.08.2-.339.2-.718,0-.747.1-.837.459l-.588,2.341h3.039l.6-2.431a.992.992,0,0,0,.04-.189c0-.13-.09-.139-.27-.16a3.6,3.6,0,0,0-.378-.02c-.189,0-.279,0-.279-.109,0-.2.109-.2.19-.2.289,0,1,.03,1.285.03s1-.03,1.275-.03c.03,0,.14,0,.14.109,0,.2-.08.2-.339.2-.728,0-.747.1-.837.459Z" transform="translate(-612.109 -286.717)"/>
    <g>
      <path class="cls-3" d="M695.6,299.468a4.3,4.3,0,0,1-1.554-1.873,7.671,7.671,0,0,1-.03-6.148A4.341,4.341,0,0,1,695.6,289.5a.089.089,0,0,1,.1.1c0,.03,0,.049-.129.169a6.52,6.52,0,0,0-1.6,4.713,6.6,6.6,0,0,0,1.564,4.663c.169.169.169.189.169.22A.089.089,0,0,1,695.6,299.468Z" transform="translate(-612.109 -286.717)"/>
      <path class="cls-3" d="M697.64,296.17a1.338,1.338,0,0,0,1.126.667,1.4,1.4,0,0,0,1.344-1.026c.02-.08.04-.139.13-.139a.115.115,0,0,1,.129.12,1.7,1.7,0,0,1-1.664,1.294,2.249,2.249,0,0,1-2.191-2.3,2.177,2.177,0,0,1,2.072-2.272,1.767,1.767,0,0,1,1.783,1.953c0,.209-.029.209-.249.209h-2.779A2.9,2.9,0,0,0,697.64,296.17Zm2.072-1.7c0-.388-.1-1.734-1.126-1.734-.339,0-1.176.249-1.235,1.734Z" transform="translate(-612.109 -286.717)"/>
    </g>
    <path class="cls-3" d="M702.772,293.881a1.435,1.435,0,0,1-1.365,1.545c-.568,0-1.126-.279-1.126-.8a.459.459,0,1,1,.917,0,.46.46,0,0,1-.349.448,1.207,1.207,0,0,0,.538.13c.637,0,.727-.857.727-1.306v-3.945c0-.489-.09-.558-.856-.558v-.309l1.514-.11Zm-.528-6.108a.528.528,0,1,1,.528-.527A.531.531,0,0,1,702.244,287.773Z" transform="translate(-612.109 -286.717)"/>
    <path class="cls-3" d="M705.081,293.453c-.642,0-.962-.683-.962-1.513,0-1.6,1.115-3.466,2.161-3.466.684,0,.963.781.963,1.513C707.243,291.549,706.142,293.453,705.081,293.453Zm-.237-2.364a5.342,5.342,0,0,0-.2,1.262c0,.377.063.907.446.907.308,0,.586-.328.8-.691a5,5,0,0,0,.564-1.478Zm1.674-.251a5.559,5.559,0,0,0,.2-1.262c0-.133,0-.907-.447-.907-.411,0-1.01.663-1.366,2.169Z" transform="translate(-612.109 -286.717)"/>
    <path class="cls-3" d="M710.486,297.525a4.334,4.334,0,0,1-1.584,1.943.093.093,0,0,1-.1-.1c0-.031,0-.051.129-.17a6.536,6.536,0,0,0,1.6-4.713,6.462,6.462,0,0,0-1.545-4.653c-.188-.18-.188-.2-.188-.229a.094.094,0,0,1,.1-.1,4.3,4.3,0,0,1,1.554,1.873,7.671,7.671,0,0,1,.03,6.148Z" transform="translate(-612.109 -286.717)"/>
    <path class="cls-3" d="M713.662,299.109c0,.18,0,.359-.2.359s-.2-.179-.2-.359v-9.246c0-.179,0-.359.2-.359s.2.18.2.359Z" transform="translate(-612.109 -286.717)"/>
    <path class="cls-2" d="M729.16,385.822c-.129.5-.129.518-.268.977-.12.369-.2.646-.5.646a.27.27,0,0,1-.29-.267c0-.071,0-.09.081-.24a21.075,21.075,0,0,0,1.275-3.318h-.568a1.4,1.4,0,0,0-1.266.767c-.06.08-.079.12-.159.12-.12,0-.12-.09-.12-.1a3.558,3.558,0,0,1,.608-.9,1.268,1.268,0,0,1,1.036-.468h3.338c.19,0,.4,0,.4.239,0,.339-.359.339-.489.339H731.1a7.7,7.7,0,0,0-.18,1.584,4.285,4.285,0,0,0,.289,1.644.435.435,0,0,1,.06.22.419.419,0,0,1-.409.377c-.149,0-.259-.058-.358-.5a3.12,3.12,0,0,1-.08-.756,10.952,10.952,0,0,1,.419-2.571h-1.126Z" transform="translate(-612.109 -286.717)"/>
    <path class="cls-2" d="M612.109,385.473V384.9h2.641v.578Z" transform="translate(-612.109 -286.717)"/>
    <path class="cls-2" d="M617.442,385.822c-.129.5-.129.518-.269.977-.12.369-.2.646-.5.646a.269.269,0,0,1-.289-.267c0-.071,0-.09.079-.24a20.976,20.976,0,0,0,1.276-3.318h-.568a1.406,1.406,0,0,0-1.266.767c-.059.08-.079.12-.159.12-.12,0-.12-.09-.12-.1a3.589,3.589,0,0,1,.608-.9,1.268,1.268,0,0,1,1.036-.468h3.338c.19,0,.4,0,.4.239,0,.339-.359.339-.488.339h-1.136a7.7,7.7,0,0,0-.179,1.584,4.285,4.285,0,0,0,.289,1.644.441.441,0,0,1,.059.22.418.418,0,0,1-.408.377c-.15,0-.259-.058-.359-.5a3.12,3.12,0,0,1-.08-.756,10.952,10.952,0,0,1,.419-2.571H618Z" transform="translate(-612.109 -286.717)"/>
    <line class="cls-1" x1="57.729" y1="31.223" x2="64.816" y2="31.223"/>
    <path class="cls-2" d="M663.3,313.257a3.237,3.237,0,0,0,.947-.08,3.317,3.317,0,0,0,.219-.887h.249l-.279,1.734h-3.7c0-.239,0-.259.11-.369l1.913-2.132a3.57,3.57,0,0,0,1.046-2.2c0-.817-.428-1.624-1.335-1.624a1.436,1.436,0,0,0-1.345,1.016.377.377,0,0,1,.129-.01.5.5,0,0,1,.529.518.524.524,0,1,1-1.047-.03,1.842,1.842,0,0,1,1.864-1.8,1.957,1.957,0,0,1,2.112,1.933c0,1-.6,1.534-2.152,2.909l-1.056,1.027Z" transform="translate(-612.109 -286.717)"/>
    <line class="cls-4" x1="4.58" y1="31.223" x2="117.965" y2="31.223"/>
    <path class="cls-1" d="M673.382,374.633s8.685-18.889,14.173-28.347c2.212-3.812,4.061-7.431,7.086-10.629a52.449,52.449,0,0,1,14.174-10.63c6.841-3.585,21.259-7.087,21.259-7.087h0m-56.692,56.693s-8.685-18.889-14.173-28.347c-2.213-3.812-4.062-7.431-7.087-10.629a52.444,52.444,0,0,0-14.173-10.63c-6.841-3.585-21.26-7.087-21.26-7.087h0" transform="translate(-612.109 -286.717)"/>
    <polyline points="124.059 161.049 128.595 158.781 124.059 156.513 125.193 158.781"/>
    <path class="cls-1" d="M613.146,445.5H737.3m-120.614,3.544v-7.087" transform="translate(-612.109 -286.717)"/>
    <polyline points="63.54 117.254 61.272 112.718 59.005 117.254 61.272 116.12"/>
    <path class="cls-1" d="M673.382,484.475V402.837m-3.544,28.488h7.087m-7.087-14.173h7.087m-7.087,42.52h7.087m-7.087,14.173h7.087m-17.716-24.8v-7.087m-14.174,7.087v-7.087m-14.173,7.087v-7.087" transform="translate(-612.109 -286.717)"/>
    <line class="cls-5" x1="61.272" y1="130.435" x2="117.965" y2="158.781"/>
    <path class="cls-1" d="M687.555,449.042v-7.087m14.173,7.087v-7.087m14.173,7.087v-7.087m14.173,7.087v-7.087" transform="translate(-612.109 -286.717)"/>
    <path class="cls-5" d="M616.689,445.5l56.693,28.347m0,0V417.152" transform="translate(-612.109 -286.717)"/>
    <path class="cls-2" d="M749.45,449.008c-.907,0-1.2-1.106-1.2-2.041,0-2.283,1.534-5.092,2.919-5.092,1.016,0,1.2,1.385,1.2,2.041C752.369,446.148,750.855,449.008,749.45,449.008Zm-.22-3.406a7.644,7.644,0,0,0-.318,1.972c0,.926.209,1.215.538,1.215.429,0,.807-.488,1.155-1.166a8.966,8.966,0,0,0,.7-2.021Zm2.164-.321a8.3,8.3,0,0,0,.318-1.982c0-.569-.06-1.2-.548-1.2-.448,0-.817.558-1.086,1.047a9.006,9.006,0,0,0-.767,2.14Z" transform="translate(-612.109 -286.717)"/>
    <path class="cls-6" d="M681.711,406.383h5.082c.169,0,.349,0,.349.2s-.18.2-.349.2h-5.361c-.169,0-.358,0-.358-.2,0-.08.03-.109.119-.209l5.531-6.367c.1-.11.159-.139.218-.139a.2.2,0,0,1,.2.2c0,.039,0,.09-.11.209Z" transform="translate(-612.109 -286.717)"/>
    <path class="cls-6" d="M693.969,406.125a.9.9,0,0,0-.031.168c0,.18.28.18.648.18.189,0,.279,0,.279.109,0,.2-.12.2-.2.2-.209,0-.429-.019-.647-.019s-.429-.01-.638-.01c-.279,0-.987.029-1.266.029-.02,0-.139,0-.139-.109,0-.2.089-.2.239-.2.617,0,.806-.01.906-.328.04-.151.27-1.1.688-2.75H690.77l-.677,2.73a.9.9,0,0,0-.03.168c0,.18.279.18.647.18.189,0,.279,0,.279.109,0,.2-.12.2-.2.2-.21,0-.429-.019-.647-.019s-.429-.01-.638-.01c-.279,0-.987.029-1.266.029-.02,0-.139,0-.139-.109,0-.2.089-.2.268-.2.787,0,.808-.08.907-.469l1.335-5.35a.809.809,0,0,0,.04-.189c0-.129-.089-.141-.269-.16a3.613,3.613,0,0,0-.378-.02c-.19,0-.279,0-.279-.109,0-.2.109-.2.189-.2.289,0,1,.029,1.285.029s1-.029,1.276-.029c.03,0,.139,0,.139.109,0,.2-.08.2-.339.2-.717,0-.747.1-.836.459l-.588,2.342h3.039l.6-2.432a.951.951,0,0,0,.04-.189c0-.129-.089-.141-.269-.16a3.613,3.613,0,0,0-.378-.02c-.19,0-.279,0-.279-.109,0-.2.109-.2.189-.2.289,0,1,.029,1.285.029s1-.029,1.276-.029c.03,0,.139,0,.139.109,0,.2-.08.2-.339.2-.727,0-.747.1-.837.459Z" transform="translate(-612.109 -286.717)"/>
    <g>
      <path class="cls-6" d="M700.034,409.273a4.31,4.31,0,0,1-1.554-1.873,7.671,7.671,0,0,1-.03-6.148,4.341,4.341,0,0,1,1.584-1.943.089.089,0,0,1,.1.1c0,.03,0,.051-.129.17a6.516,6.516,0,0,0-1.605,4.713,6.6,6.6,0,0,0,1.565,4.662c.169.17.169.19.169.221A.09.09,0,0,1,700.034,409.273Z" transform="translate(-612.109 -286.717)"/>
      <path class="cls-6" d="M702.077,405.975a1.34,1.34,0,0,0,1.126.668,1.4,1.4,0,0,0,1.345-1.028c.019-.078.04-.138.13-.138a.115.115,0,0,1,.129.119,1.7,1.7,0,0,1-1.664,1.3,2.248,2.248,0,0,1-2.192-2.3,2.177,2.177,0,0,1,2.072-2.272,1.768,1.768,0,0,1,1.784,1.953c0,.209-.03.209-.249.209h-2.78A2.9,2.9,0,0,0,702.077,405.975Zm2.072-1.7c0-.388-.1-1.734-1.126-1.734-.338,0-1.175.25-1.235,1.734Z" transform="translate(-612.109 -286.717)"/>
    </g>
    <path class="cls-6" d="M707.21,403.678a1.434,1.434,0,0,1-1.365,1.545c-.569,0-1.126-.28-1.126-.8a.459.459,0,1,1,.917,0,.462.462,0,0,1-.35.449,1.217,1.217,0,0,0,.538.129c.638,0,.728-.858.728-1.305v-3.947c0-.488-.09-.557-.857-.557v-.31l1.515-.11Zm-.528-6.108a.528.528,0,1,1,.528-.527A.531.531,0,0,1,706.682,397.57Z" transform="translate(-612.109 -286.717)"/>
    <path class="cls-6" d="M709.519,403.25c-.642,0-.962-.684-.962-1.514,0-1.595,1.115-3.465,2.161-3.465.683,0,.963.782.963,1.514C711.681,401.346,710.579,403.25,709.519,403.25Zm-.238-2.363a5.385,5.385,0,0,0-.2,1.261c0,.377.064.907.446.907.308,0,.586-.328.8-.69a5.042,5.042,0,0,0,.565-1.478Zm1.674-.252a5.5,5.5,0,0,0,.2-1.262c0-.133,0-.906-.446-.906-.411,0-1.011.662-1.366,2.168Z" transform="translate(-612.109 -286.717)"/>
    <path class="cls-6" d="M714.932,407.33a4.341,4.341,0,0,1-1.584,1.943.094.094,0,0,1-.1-.1c0-.031,0-.051.129-.17a6.538,6.538,0,0,0,1.6-4.713,6.468,6.468,0,0,0-1.544-4.654c-.189-.178-.189-.2-.189-.229a.093.093,0,0,1,.1-.1,4.3,4.3,0,0,1,1.553,1.873,7.665,7.665,0,0,1,.031,6.148Z" transform="translate(-612.109 -286.717)"/>
    <path class="cls-2" d="M729.16,456.744c-.129.5-.129.518-.268.977-.12.369-.2.646-.5.646a.27.27,0,0,1-.29-.267c0-.071,0-.09.081-.241a21,21,0,0,0,1.275-3.318h-.568a1.4,1.4,0,0,0-1.266.768c-.06.08-.079.119-.159.119-.12,0-.12-.09-.12-.1a3.561,3.561,0,0,1,.608-.9,1.266,1.266,0,0,1,1.036-.469h3.338c.19,0,.4,0,.4.24,0,.338-.359.338-.489.338H731.1a7.719,7.719,0,0,0-.18,1.586,4.284,4.284,0,0,0,.289,1.643.435.435,0,0,1,.06.22.419.419,0,0,1-.409.377c-.149,0-.259-.058-.358-.5a3.12,3.12,0,0,1-.08-.756,10.958,10.958,0,0,1,.419-2.572h-1.126Z" transform="translate(-612.109 -286.717)"/>
    <path class="cls-2" d="M612.109,456.4v-.579h2.641v.579Z" transform="translate(-612.109 -286.717)"/>
    <path class="cls-2" d="M617.442,456.744c-.129.5-.129.518-.269.977-.12.369-.2.646-.5.646a.269.269,0,0,1-.289-.267c0-.071,0-.09.079-.241a20.9,20.9,0,0,0,1.276-3.318h-.568a1.405,1.405,0,0,0-1.266.768c-.059.08-.079.119-.159.119-.12,0-.12-.09-.12-.1a3.592,3.592,0,0,1,.608-.9,1.266,1.266,0,0,1,1.036-.469h3.338c.19,0,.4,0,.4.24,0,.338-.359.338-.488.338h-1.136a7.718,7.718,0,0,0-.179,1.586,4.284,4.284,0,0,0,.289,1.643.441.441,0,0,1,.059.22.418.418,0,0,1-.408.377c-.15,0-.259-.058-.359-.5a3.12,3.12,0,0,1-.08-.756,10.958,10.958,0,0,1,.419-2.572H618Z" transform="translate(-612.109 -286.717)"/>
    <path class="cls-2" d="M661.979,414.066c-.168.627-.245.942-.523.942a.226.226,0,0,1-.245-.223.369.369,0,0,1,.021-.105,2.914,2.914,0,0,0,.133-.266,12.5,12.5,0,0,0,.8-2.008h-.426a1.085,1.085,0,0,0-.941.489c-.042.062-.049.076-.126.076-.028,0-.118,0-.118-.082a2.1,2.1,0,0,1,.453-.6,1.023,1.023,0,0,1,.795-.357h2.629c.119,0,.3,0,.3.2a.3.3,0,0,1-.119.217.375.375,0,0,1-.258.054h-.871a4.329,4.329,0,0,0-.1.907,2.671,2.671,0,0,0,.258,1.228.256.256,0,0,1,.056.152.34.34,0,0,1-.328.315c-.111,0-.2-.028-.313-.377a2.241,2.241,0,0,1-.077-.621,7.054,7.054,0,0,1,.258-1.6h-.83Z" transform="translate(-612.109 -286.717)"/>
    <polyline points="48.127 129.907 53.047 129.907 53.047 129.427 48.127 129.427"/>
    <path class="cls-2" d="M664.031,422.258h-2.873c0-.195,0-.209.07-.272l1.68-1.66a2.116,2.116,0,0,0,.656-1.338,1.045,1.045,0,0,0-1.06-1.109,1.1,1.1,0,0,0-1.018.648c.363,0,.411.244.411.369a.37.37,0,1,1-.739-.019,1.351,1.351,0,0,1,1.45-1.248,1.459,1.459,0,0,1,1.632,1.359,2.018,2.018,0,0,1-1,1.506c-.418.328-.662.524-1.394,1.172h1.282a3.512,3.512,0,0,0,.691-.043,1.6,1.6,0,0,0,.181-.635h.237Z" transform="translate(-612.109 -286.717)"/>
    <path class="cls-2" d="M648.934,473.248c-.17,0-.349,0-.349-.2s.179-.2.349-.2h5.39c.17,0,.349,0,.349.2s-.179.2-.349.2Z" transform="translate(-612.109 -286.717)"/>
    <path class="cls-2" d="M658.494,470.707c-.167.627-.244.941-.523.941a.225.225,0,0,1-.244-.222.351.351,0,0,1,.021-.106,2.672,2.672,0,0,0,.132-.265,12.527,12.527,0,0,0,.8-2.008h-.426a1.088,1.088,0,0,0-.942.488c-.041.063-.048.076-.125.076-.028,0-.118,0-.118-.082a2.117,2.117,0,0,1,.453-.6,1.025,1.025,0,0,1,.8-.358h2.629c.118,0,.3,0,.3.2a.292.292,0,0,1-.119.217.371.371,0,0,1-.258.055H660a4.365,4.365,0,0,0-.1.906,2.663,2.663,0,0,0,.258,1.229.253.253,0,0,1,.056.152.34.34,0,0,1-.328.314c-.112,0-.2-.027-.314-.377a2.242,2.242,0,0,1-.076-.621,7.113,7.113,0,0,1,.257-1.6h-.83Z" transform="translate(-612.109 -286.717)"/>
    <polyline points="44.527 186.547 49.447 186.547 49.447 186.067 44.527 186.067"/>
    <path class="cls-2" d="M660.43,479.023h-2.873c0-.2,0-.209.069-.271l1.681-1.66a2.119,2.119,0,0,0,.655-1.338,1.044,1.044,0,0,0-1.06-1.109,1.1,1.1,0,0,0-1.018.648c.363,0,.412.244.412.369a.37.37,0,1,1-.739-.019,1.35,1.35,0,0,1,1.45-1.248,1.459,1.459,0,0,1,1.632,1.359,2.018,2.018,0,0,1-1,1.506c-.419.328-.663.523-1.4,1.172h1.283a3.5,3.5,0,0,0,.69-.043,1.6,1.6,0,0,0,.181-.635h.238Z" transform="translate(-612.109 -286.717)"/>
  </g>
</svg>
