<svg id="Layer_1" data-name="Layer 1" xmlns="http://www.w3.org/2000/svg" viewBox="0 0 301.718 76.551">
  <defs>
    <style>
      .cls-1 {
        fill: none;
        stroke: #000;
        stroke-miterlimit: 10;
        stroke-width: 0.85px;
      }

      .cls-2 {
        fill: #1d1d1b;
      }

      .cls-3 {
        fill: red;
      }

      .cls-4 {
        fill: blue;
      }
    </style>
  </defs>
  <title>Freq1</title>
  <g>
    <polyline points="51.052 35.615 55.588 33.347 51.052 31.08 52.186 33.347"/>
    <line class="cls-1" x1="27.242" y1="33.347" x2="52.186" y2="33.347"/>
    <path class="cls-2" d="M562.95,366.372a3.86,3.86,0,0,0-.169.877c0,.339.159.658.548.658.318,0,1-.24,1.325-1.306.02-.07.04-.109.13-.109.029,0,.119,0,.119.1,0,.249-.568,1.534-1.594,1.534a1.1,1.1,0,0,1-1.076-.756,1.326,1.326,0,0,1-1.046.756c-.439,0-.937-.2-.937-.657a.566.566,0,0,1,.548-.578.342.342,0,0,1,.369.349.565.565,0,0,1-.469.538.958.958,0,0,0,.5.13c.439,0,.787-.419.947-1.037a14.471,14.471,0,0,0,.538-2.371c0-.578-.348-.668-.538-.668-.339,0-1,.25-1.335,1.306-.02.089-.05.109-.13.109-.02,0-.119,0-.119-.1,0-.249.568-1.534,1.6-1.534a1.1,1.1,0,0,1,1.076.757,1.291,1.291,0,0,1,1.046-.757c.339,0,.927.139.927.658a.556.556,0,0,1-.538.578.348.348,0,0,1-.379-.349.58.58,0,0,1,.478-.538.974.974,0,0,0-.5-.13c-.7,0-.926.917-.986,1.176Z" transform="translate(-532.349 -342.91)"/>
    <path class="cls-2" d="M566.777,370.507v-9.964h1.366v.4h-.967v9.166h.967v.4Z" transform="translate(-532.349 -342.91)"/>
    <path class="cls-2" d="M569.814,365.126a3.2,3.2,0,0,0,.16-.836c0-.329-.11-.459-.309-.459-.359,0-.559.479-.727,1.186-.061.219-.07.229-.17.229-.02,0-.12,0-.12-.1a5.056,5.056,0,0,1,.3-.966.869.869,0,0,1,.747-.568.9.9,0,0,1,.917.867,1.928,1.928,0,0,1,1.555-.867,1.019,1.019,0,0,1,1.146,1.066,8.982,8.982,0,0,1-.608,2.192,1.9,1.9,0,0,0-.18.708c0,.229.07.329.24.329.487,0,.817-.558,1.016-1.236.05-.15.05-.179.149-.179.03,0,.12,0,.12.1,0,.08-.369,1.534-1.3,1.534a.8.8,0,0,1-.818-.816,1.154,1.154,0,0,1,.1-.459,9.466,9.466,0,0,0,.648-2.321c0-.329-.09-.7-.538-.7a1.981,1.981,0,0,0-1.624,1.216c-.011.04-.09.328-.13.5-.05.229-.11.449-.169.667l-.219.9c-.06.249-.18.718-.19.738a.406.406,0,0,1-.368.278.266.266,0,0,1-.29-.268c0-.05.061-.279.09-.429Z" transform="translate(-532.349 -342.91)"/>
    <path class="cls-2" d="M575.944,370.507h-1.365v-.4h.966v-9.166h-.966v-.4h1.365Z" transform="translate(-532.349 -342.91)"/>
    <polyline points="192.614 35.615 197.149 33.347 192.614 31.08 193.748 33.347"/>
    <line class="cls-1" x1="161.716" y1="33.347" x2="193.748" y2="33.347"/>
    <path class="cls-2" d="M712.167,368.026a2.627,2.627,0,0,1-2.331,2.033.943.943,0,0,1-1.057-.867.575.575,0,0,1,.559-.648.339.339,0,0,1,.368.349.539.539,0,0,1-.2.408.569.569,0,0,1-.429.12.8.8,0,0,0,.758.418,1.426,1.426,0,0,0,1.1-.627,3.827,3.827,0,0,0,.647-1.535,1.4,1.4,0,0,1-1.006.448,1.111,1.111,0,0,1-1.216-1.185,6.572,6.572,0,0,1,.579-2.092,2.135,2.135,0,0,0,.168-.7c0-.319-.168-.319-.249-.319-.338,0-.737.3-1,1.236-.05.159-.061.179-.161.179-.019,0-.119,0-.119-.1s.368-1.534,1.316-1.534a.789.789,0,0,1,.816.817,1.785,1.785,0,0,1-.2.717A5.938,5.938,0,0,0,710,367.1c0,.368.109.807.618.807a1.383,1.383,0,0,0,1.125-.847l.45-1.794c.059-.269.128-.538.2-.8.039-.179.119-.489.139-.538a.43.43,0,0,1,.349-.209.267.267,0,0,1,.289.269.622.622,0,0,1-.04.229Z" transform="translate(-532.349 -342.91)"/>
    <path class="cls-2" d="M714.738,370.507v-9.964H716.1v.4h-.967v9.166h.967v.4Z" transform="translate(-532.349 -342.91)"/>
    <path class="cls-2" d="M717.775,365.126a3.241,3.241,0,0,0,.16-.836c0-.329-.11-.459-.309-.459-.359,0-.559.479-.728,1.186-.059.219-.07.229-.169.229-.02,0-.12,0-.12-.1a5.056,5.056,0,0,1,.3-.966.869.869,0,0,1,.747-.568.9.9,0,0,1,.917.867,1.925,1.925,0,0,1,1.555-.867,1.018,1.018,0,0,1,1.145,1.066,8.979,8.979,0,0,1-.607,2.192,1.9,1.9,0,0,0-.18.708c0,.229.07.329.24.329.488,0,.816-.558,1.015-1.236.051-.15.051-.179.151-.179.029,0,.119,0,.119.1,0,.08-.369,1.534-1.306,1.534a.8.8,0,0,1-.816-.816,1.13,1.13,0,0,1,.1-.459,9.511,9.511,0,0,0,.648-2.321c0-.329-.09-.7-.538-.7a1.981,1.981,0,0,0-1.624,1.216c-.01.04-.09.328-.13.5-.05.229-.11.449-.169.667l-.22.9c-.059.249-.179.718-.189.738a.407.407,0,0,1-.369.278.266.266,0,0,1-.289-.268c0-.05.06-.279.09-.429Z" transform="translate(-532.349 -342.91)"/>
    <path class="cls-2" d="M723.9,370.507h-1.365v-.4h.967v-9.166h-.967v-.4H723.9Z" transform="translate(-532.349 -342.91)"/>
    <path class="cls-3" d="M537.251,385.059c.06-.1.1-.168.259-.168s.17.039.189.238l.608,6.226c.03.29.03.36.648.36.129,0,.229,0,.229.109,0,.2-.12.2-.179.2-.25,0-.877-.029-1.126-.029-.409,0-.837.029-1.246.029-.02,0-.139,0-.139-.109,0-.2.1-.2.239-.2.2,0,.717-.029.717-.328,0-.1-.139-1.455-.159-1.664h-2.5L534.033,391a.766.766,0,0,0-.14.369c0,.248.239.328.468.348.07,0,.16.01.16.119,0,.189-.129.189-.189.189-.319,0-.668-.029-1-.029-.279,0-.588.029-.856.029a.115.115,0,0,1-.13-.109c0-.189.089-.189.209-.2a1.409,1.409,0,0,0,1.226-.836Zm.01,4.355-.319-3.289-1.963,3.289Z" transform="translate(-532.349 -342.91)"/>
    <path class="cls-3" d="M540.85,391.217a1.343,1.343,0,0,0,1.126.668,1.4,1.4,0,0,0,1.345-1.028c.02-.078.04-.138.13-.138a.116.116,0,0,1,.13.119,1.7,1.7,0,0,1-1.664,1.295,2.249,2.249,0,0,1-2.193-2.3,2.177,2.177,0,0,1,2.073-2.271,1.768,1.768,0,0,1,1.784,1.953c0,.209-.031.209-.25.209h-2.78A2.9,2.9,0,0,0,540.85,391.217Zm2.073-1.7c0-.389-.1-1.735-1.126-1.735-.339,0-1.176.25-1.235,1.735Z" transform="translate(-532.349 -342.91)"/>
    <path class="cls-3" d="M545.975,388.8a1.434,1.434,0,0,1-1.365,1.545c-.568,0-1.126-.279-1.126-.8a.459.459,0,1,1,.917,0,.46.46,0,0,1-.349.449,1.217,1.217,0,0,0,.538.129c.638,0,.727-.857.727-1.305v-3.947c0-.488-.089-.556-.856-.556V384l1.514-.109Zm-.528-6.107a.529.529,0,1,1,.528-.528A.531.531,0,0,1,545.447,382.688Z" transform="translate(-532.349 -342.91)"/>
    <path class="cls-3" d="M549.5,383.151c0,.035-.021.056-.049.084a4.116,4.116,0,0,0-1.29,3.32,4.255,4.255,0,0,0,1.269,3.291c.049.049.07.062.07.1,0,.084-.084.084-.14.084a4.461,4.461,0,0,1,0-6.965C549.414,383.068,549.5,383.068,549.5,383.151Z" transform="translate(-532.349 -342.91)"/>
    <path class="cls-3" d="M551.4,388.367c-.642,0-.963-.683-.963-1.513,0-1.6,1.116-3.466,2.162-3.466.683,0,.962.782.962,1.514C553.563,386.463,552.461,388.367,551.4,388.367ZM551.165,386a5.327,5.327,0,0,0-.2,1.262c0,.377.063.906.447.906.306,0,.585-.328.8-.69a4.963,4.963,0,0,0,.565-1.478Zm1.673-.252a5.575,5.575,0,0,0,.2-1.262c0-.133,0-.907-.447-.907-.411,0-1.011.663-1.366,2.169Z" transform="translate(-532.349 -342.91)"/>
    <path class="cls-3" d="M555.824,388.83c0,.154,0,.209.527.209h.249v.219c-.274-.02-.717-.02-1-.02s-.732,0-1,.02v-.219h.249c.527,0,.527-.055.527-.209v-2.486a2,2,0,0,1-.726.138h-.085v-.218h.085a1.584,1.584,0,0,0,1-.319c.164,0,.179,0,.179.149Z" transform="translate(-532.349 -342.91)"/>
    <path class="cls-3" d="M558.753,386.965c.036-.152.1-.44.154-.627a3.086,3.086,0,0,0,.112-.578c0-.19-.049-.342-.23-.342-.272,0-.4.342-.51.752-.049.189-.055.209-.153.209-.021,0-.119,0-.119-.09a2.471,2.471,0,0,1,.251-.689.634.634,0,0,1,.552-.377.707.707,0,0,1,.746.634,1.481,1.481,0,0,1,1.178-.634c.37,0,.907.117.907.795a5.144,5.144,0,0,1-.37,1.345,1.407,1.407,0,0,0-.161.565c0,.146.029.244.175.244.279,0,.579-.285.739-.844.028-.076.035-.119.133-.119.02,0,.111,0,.111.092s-.307,1.066-1,1.066a.614.614,0,0,1-.662-.6.92.92,0,0,1,.1-.377,5.617,5.617,0,0,0,.412-1.485c0-.133-.008-.488-.412-.488a1.293,1.293,0,0,0-1.046.641,1.428,1.428,0,0,0-.293.629c-.034.16-.076.312-.118.466-.042.174-.119.494-.154.627a2.84,2.84,0,0,1-.125.432.341.341,0,0,1-.272.154.222.222,0,0,1-.237-.222,2.584,2.584,0,0,1,.069-.288Z" transform="translate(-532.349 -342.91)"/>
    <path class="cls-3" d="M565.83,388.861c0,.1,0,.26-.174.26s-.168-.168-.168-.26v-2.14h-2.14c-.1,0-.258,0-.258-.174s.167-.168.258-.168h2.14v-2.141c0-.1,0-.257.175-.257s.167.167.167.257v2.141h2.134c.1,0,.258,0,.258.176s-.167.166-.258.166H565.83Z" transform="translate(-532.349 -342.91)"/>
    <path class="cls-3" d="M571.738,385.215a1.4,1.4,0,0,1,1.492,1.291,2.269,2.269,0,0,1-2.287,1.875l-.293,1.172c-.035.146-.042.168-.146.168-.021,0-.111,0-.111-.084,0-.022.062-.28.146-.608.056-.216.105-.439.16-.654a1.4,1.4,0,0,1-1.492-1.291,2.253,2.253,0,0,1,2.287-1.875l.4-1.6c.027-.119.034-.154.139-.154.035,0,.118,0,.118.09Zm-.3.2a1.847,1.847,0,0,0-1.722,1.793.973.973,0,0,0,1.032.977Zm-.446,2.77a1.854,1.854,0,0,0,1.729-1.793.969.969,0,0,0-1.038-.977Z" transform="translate(-532.349 -342.91)"/>
    <path class="cls-3" d="M575.825,386.555a4.632,4.632,0,0,1-.51,2.146,3.085,3.085,0,0,1-1.206,1.332.082.082,0,0,1-.09-.084c0-.033.006-.041.125-.16a4.235,4.235,0,0,0,1.207-3.242,4.15,4.15,0,0,0-1.27-3.292c-.041-.048-.062-.069-.062-.1,0-.083.083-.083.132-.083A4.18,4.18,0,0,1,575.825,386.555Z" transform="translate(-532.349 -342.91)"/>
    <path class="cls-2" d="M634.4,346.747a1.847,1.847,0,0,1,1.474-.768,1.013,1.013,0,0,1,1.146,1.066,8.949,8.949,0,0,1-.607,2.192,1.9,1.9,0,0,0-.18.708c0,.229.07.329.239.329.548,0,.867-.708,1.017-1.236.05-.149.05-.179.149-.179.03,0,.12,0,.12.1,0,.08-.369,1.535-1.3,1.535a.8.8,0,0,1-.818-.817,1.5,1.5,0,0,1,.13-.548,8.472,8.472,0,0,0,.618-2.232c0-.359-.11-.7-.538-.7a1.588,1.588,0,0,0-.957.349,2.94,2.94,0,0,0-.678.917c-.009.059-.089.389-.109.448-.05.23-.11.449-.169.668l-.22.9-.189.757a.414.414,0,0,1-.369.259.274.274,0,0,1-.289-.279.609.609,0,0,1,.04-.219l1.445-5.74.03-.2c0-.1-.02-.169-.5-.169-.15,0-.239,0-.239-.12,0-.179.109-.189.189-.2.259-.02.986-.1,1.215-.1.13,0,.13.1.13.11Z" transform="translate(-532.349 -342.91)"/>
    <path class="cls-2" d="M639.254,352.875V342.91h1.365v.4h-.967v9.167h.967v.4Z" transform="translate(-532.349 -342.91)"/>
    <path class="cls-2" d="M642.291,347.494a3.227,3.227,0,0,0,.159-.837c0-.329-.11-.459-.309-.459-.358,0-.558.479-.727,1.186-.06.22-.07.229-.169.229-.02,0-.12,0-.12-.1a4.983,4.983,0,0,1,.3-.967.87.87,0,0,1,.747-.568.9.9,0,0,1,.917.867,1.926,1.926,0,0,1,1.554-.867,1.019,1.019,0,0,1,1.146,1.066,8.937,8.937,0,0,1-.608,2.192,1.9,1.9,0,0,0-.179.708c0,.229.07.329.239.329.488,0,.817-.558,1.016-1.236.05-.149.05-.179.15-.179.03,0,.119,0,.119.1,0,.08-.368,1.535-1.3,1.535a.8.8,0,0,1-.817-.817,1.136,1.136,0,0,1,.1-.459,9.5,9.5,0,0,0,.647-2.321c0-.329-.089-.7-.538-.7a1.984,1.984,0,0,0-1.624,1.216c-.01.04-.09.329-.13.5-.049.23-.109.449-.169.668l-.219.9c-.06.249-.179.717-.189.737a.408.408,0,0,1-.369.279.267.267,0,0,1-.289-.269c0-.05.06-.279.09-.429Z" transform="translate(-532.349 -342.91)"/>
    <path class="cls-2" d="M648.428,352.875h-1.365v-.4h.966v-9.167h-.966v-.4h1.365Z" transform="translate(-532.349 -342.91)"/>
    <path class="cls-4" d="M709.865,394.391c0,.179,0,.359-.2.359s-.2-.18-.2-.359v-9.246c0-.18,0-.36.2-.36s.2.18.2.36Z" transform="translate(-532.349 -342.91)"/>
    <path class="cls-4" d="M717.3,391.6a.884.884,0,0,0-.03.168c0,.179.279.179.647.179.19,0,.279,0,.279.11,0,.2-.12.2-.2.2-.209,0-.429-.02-.647-.02s-.429-.009-.638-.009c-.279,0-.987.029-1.266.029-.02,0-.139,0-.139-.11,0-.2.09-.2.239-.2.617,0,.807-.01.906-.328.04-.15.27-1.1.688-2.75H714.1l-.677,2.731a.884.884,0,0,0-.03.168c0,.179.279.179.647.179.19,0,.279,0,.279.11,0,.2-.12.2-.2.2-.21,0-.429-.02-.647-.02s-.429-.009-.638-.009c-.279,0-.987.029-1.266.029-.02,0-.139,0-.139-.11,0-.2.09-.2.268-.2.787,0,.808-.08.908-.469l1.334-5.349a.841.841,0,0,0,.041-.19c0-.128-.09-.14-.27-.16s-.358-.019-.378-.019c-.189,0-.279,0-.279-.11,0-.2.109-.2.189-.2.289,0,1,.029,1.285.029s1-.029,1.276-.029c.03,0,.139,0,.139.11,0,.2-.08.2-.338.2-.718,0-.748.1-.837.459l-.588,2.342h3.039l.6-2.432a.954.954,0,0,0,.04-.19c0-.128-.089-.14-.269-.16s-.358-.019-.378-.019c-.189,0-.279,0-.279-.11,0-.2.109-.2.189-.2.289,0,1,.029,1.285.029s1-.029,1.276-.029c.03,0,.139,0,.139.11,0,.2-.08.2-.338.2-.728,0-.748.1-.837.459Z" transform="translate(-532.349 -342.91)"/>
    <g>
      <path class="cls-4" d="M723.362,394.75a4.3,4.3,0,0,1-1.553-1.873,7.665,7.665,0,0,1-.031-6.148,4.347,4.347,0,0,1,1.584-1.944.089.089,0,0,1,.1.1c0,.029,0,.051-.129.17a6.514,6.514,0,0,0-1.6,4.713,6.6,6.6,0,0,0,1.564,4.662c.169.17.169.189.169.22A.09.09,0,0,1,723.362,394.75Z" transform="translate(-532.349 -342.91)"/>
      <path class="cls-4" d="M725.405,391.451a1.34,1.34,0,0,0,1.126.668,1.4,1.4,0,0,0,1.345-1.027c.02-.078.04-.139.13-.139a.115.115,0,0,1,.129.119,1.7,1.7,0,0,1-1.664,1.3,2.248,2.248,0,0,1-2.192-2.3,2.176,2.176,0,0,1,2.073-2.271,1.767,1.767,0,0,1,1.783,1.953c0,.209-.03.209-.249.209h-2.78A2.9,2.9,0,0,0,725.405,391.451Zm2.073-1.7c0-.389-.1-1.734-1.126-1.734-.339,0-1.176.25-1.236,1.734Z" transform="translate(-532.349 -342.91)"/>
    </g>
    <path class="cls-4" d="M730.538,389.146a1.433,1.433,0,0,1-1.365,1.545c-.569,0-1.126-.279-1.126-.8a.459.459,0,1,1,.917,0,.462.462,0,0,1-.35.449,1.22,1.22,0,0,0,.538.129c.638,0,.728-.858.728-1.305v-3.947c0-.489-.09-.557-.857-.557v-.31l1.515-.11Zm-.528-6.106a.529.529,0,1,1,.528-.529A.533.533,0,0,1,730.01,383.04Z" transform="translate(-532.349 -342.91)"/>
    <path class="cls-4" d="M732.839,388.719c-.642,0-.962-.684-.962-1.514,0-1.6,1.115-3.465,2.161-3.465.684,0,.963.781.963,1.514C735,386.814,733.9,388.719,732.839,388.719Zm-.237-2.364a5.327,5.327,0,0,0-.2,1.262c0,.377.064.906.447.906.307,0,.586-.328.8-.689a5.011,5.011,0,0,0,.565-1.479Zm1.673-.251a5.525,5.525,0,0,0,.2-1.262c0-.133,0-.907-.447-.907-.411,0-1.01.663-1.366,2.169Z" transform="translate(-532.349 -342.91)"/>
    <path class="cls-4" d="M737.261,389.189c0,.155,0,.209.527.209h.249v.219c-.273-.019-.717-.019-1-.019s-.731,0-1,.019V389.4h.249c.528,0,.528-.054.528-.209V386.7a2.013,2.013,0,0,1-.727.139h-.085v-.219h.085a1.586,1.586,0,0,0,1-.318c.164,0,.179,0,.179.148Z" transform="translate(-532.349 -342.91)"/>
    <path class="cls-4" d="M741.854,392.807a4.348,4.348,0,0,1-1.584,1.943.094.094,0,0,1-.1-.1c0-.031,0-.05.129-.17a6.534,6.534,0,0,0,1.6-4.712,6.469,6.469,0,0,0-1.545-4.655c-.188-.177-.188-.2-.188-.228a.093.093,0,0,1,.1-.1,4.312,4.312,0,0,1,1.553,1.873,7.678,7.678,0,0,1,.031,6.149Z" transform="translate(-532.349 -342.91)"/>
    <path class="cls-4" d="M745.029,394.391c0,.179,0,.359-.2.359s-.2-.18-.2-.359v-9.246c0-.18,0-.36.2-.36s.2.18.2.36Z" transform="translate(-532.349 -342.91)"/>
    <path class="cls-2" d="M749.869,390.3a.529.529,0,1,1,.528-.527A.531.531,0,0,1,749.869,390.3Z" transform="translate(-532.349 -342.91)"/>
    <path class="cls-3" d="M758.774,385.293c.06-.1.1-.168.259-.168s.17.039.19.238l.608,6.227c.029.289.029.359.648.359.128,0,.228,0,.228.11,0,.2-.119.2-.179.2-.249,0-.877-.029-1.126-.029-.408,0-.837.029-1.246.029-.019,0-.138,0-.138-.11,0-.2.1-.2.238-.2.2,0,.718-.029.718-.328,0-.1-.14-1.455-.16-1.664h-2.5l-.757,1.275a.774.774,0,0,0-.139.37c0,.248.238.328.468.347.07,0,.159.01.159.119,0,.19-.129.19-.189.19-.319,0-.667-.029-1-.029-.278,0-.587.029-.856.029a.116.116,0,0,1-.13-.11c0-.189.09-.189.209-.2a1.409,1.409,0,0,0,1.226-.836Zm.01,4.355-.318-3.289-1.963,3.289Z" transform="translate(-532.349 -342.91)"/>
    <path class="cls-3" d="M762.366,391.451a1.34,1.34,0,0,0,1.126.668,1.4,1.4,0,0,0,1.345-1.027c.019-.078.04-.139.13-.139a.115.115,0,0,1,.129.119,1.7,1.7,0,0,1-1.664,1.3,2.248,2.248,0,0,1-2.192-2.3,2.176,2.176,0,0,1,2.073-2.271,1.767,1.767,0,0,1,1.783,1.953c0,.209-.03.209-.249.209h-2.78A2.9,2.9,0,0,0,762.366,391.451Zm2.072-1.7c0-.389-.1-1.734-1.125-1.734-.339,0-1.176.25-1.236,1.734Z" transform="translate(-532.349 -342.91)"/>
    <path class="cls-3" d="M767.5,389.146a1.433,1.433,0,0,1-1.365,1.545c-.569,0-1.126-.279-1.126-.8a.459.459,0,1,1,.917,0,.462.462,0,0,1-.35.449,1.217,1.217,0,0,0,.538.129c.638,0,.728-.858.728-1.305v-3.947c0-.489-.09-.557-.857-.557v-.31l1.515-.11Zm-.528-6.106a.529.529,0,1,1,.528-.529A.533.533,0,0,1,766.971,383.04Z" transform="translate(-532.349 -342.91)"/>
    <path class="cls-3" d="M771.021,383.5c0,.036-.021.056-.048.084a4.114,4.114,0,0,0-1.29,3.32,4.257,4.257,0,0,0,1.268,3.291c.049.049.07.063.07.1,0,.084-.083.084-.139.084a4.46,4.46,0,0,1,0-6.966C770.938,383.419,771.021,383.419,771.021,383.5Z" transform="translate(-532.349 -342.91)"/>
    <g>
      <path class="cls-3" d="M772.925,388.719c-.642,0-.962-.684-.962-1.514,0-1.6,1.115-3.465,2.161-3.465.684,0,.963.781.963,1.514C775.087,386.814,773.985,388.719,772.925,388.719Zm-.237-2.364a5.327,5.327,0,0,0-.2,1.262c0,.377.064.906.447.906.307,0,.586-.328.8-.689a5.011,5.011,0,0,0,.565-1.479Zm1.673-.251a5.509,5.509,0,0,0,.2-1.262c0-.133,0-.907-.446-.907-.411,0-1.011.663-1.366,2.169Z" transform="translate(-532.349 -342.91)"/>
      <path class="cls-3" d="M776.678,387.316c.034-.152.1-.439.153-.627a3.061,3.061,0,0,0,.111-.578c0-.189-.048-.341-.23-.341-.272,0-.4.341-.509.751-.049.19-.056.209-.153.209-.021,0-.118,0-.118-.089a2.44,2.44,0,0,1,.251-.69.632.632,0,0,1,.55-.377.706.706,0,0,1,.746.635,1.484,1.484,0,0,1,1.179-.635c.369,0,.906.117.906.8a5.1,5.1,0,0,1-.37,1.346,1.393,1.393,0,0,0-.16.564c0,.147.029.244.175.244.278,0,.578-.285.739-.843.028-.076.034-.119.132-.119.022,0,.112,0,.112.091s-.307,1.067-1,1.067a.616.616,0,0,1-.663-.6.933.933,0,0,1,.105-.377,5.648,5.648,0,0,0,.411-1.484c0-.133-.007-.488-.411-.488a1.293,1.293,0,0,0-1.046.64,1.433,1.433,0,0,0-.293.629c-.035.16-.077.313-.118.467-.042.174-.119.494-.153.627a2.923,2.923,0,0,1-.126.431.34.34,0,0,1-.272.155.223.223,0,0,1-.237-.223,2.9,2.9,0,0,1,.069-.287Z" transform="translate(-532.349 -342.91)"/>
    </g>
    <path class="cls-3" d="M783.744,389.213c0,.1,0,.26-.174.26s-.168-.168-.168-.26v-2.141h-2.14c-.1,0-.258,0-.258-.174s.167-.168.258-.168h2.14v-2.14c0-.1,0-.258.175-.258s.167.168.167.258v2.14h2.134c.1,0,.258,0,.258.176s-.167.166-.258.166h-2.134Z" transform="translate(-532.349 -342.91)"/>
    <path class="cls-3" d="M789.66,385.566a1.4,1.4,0,0,1,1.492,1.291,2.267,2.267,0,0,1-2.287,1.875l-.293,1.172c-.035.147-.042.168-.146.168-.021,0-.112,0-.112-.084,0-.021.063-.279.147-.607.056-.217.1-.44.16-.654a1.4,1.4,0,0,1-1.492-1.291,2.252,2.252,0,0,1,2.287-1.875l.4-1.6c.029-.119.036-.154.14-.154.035,0,.118,0,.118.091Zm-.3.2a1.846,1.846,0,0,0-1.722,1.793.971.971,0,0,0,1.032.976Zm-.446,2.769a1.853,1.853,0,0,0,1.73-1.793.968.968,0,0,0-1.04-.976Z" transform="translate(-532.349 -342.91)"/>
    <path class="cls-4" d="M794.666,389.213c0,.1,0,.26-.174.26s-.168-.168-.168-.26v-2.141h-2.14c-.1,0-.258,0-.258-.174s.167-.168.258-.168h2.14v-2.14c0-.1,0-.258.175-.258s.167.168.167.258v2.14H796.8c.1,0,.258,0,.258.176s-.167.166-.258.166h-2.134Z" transform="translate(-532.349 -342.91)"/>
    <path class="cls-4" d="M798.67,388.307h3.856c.113,0,.273,0,.273.175s-.168.166-.273.166h-4.148c-.119,0-.279,0-.279-.173,0-.063.02-.077.1-.161l4.268-4.407c.069-.07.091-.1.167-.1a.172.172,0,0,1,.168.175c0,.063-.015.069-.1.161Z" transform="translate(-532.349 -342.91)"/>
    <path class="cls-4" d="M808.257,388.125a1.252,1.252,0,0,0-.028.154c0,.071,0,.084.153.106a1.907,1.907,0,0,0,.265.013c.161,0,.23,0,.23.1a.13.13,0,0,1-.147.146c-.131,0-.306-.013-.446-.019-.118-.008-.362-.008-.48-.008-.2,0-.7.027-.908.027a.1.1,0,0,1-.111-.1c0-.147.091-.147.209-.147.544,0,.559-.056.614-.293l.454-1.806h-2.336l-.461,1.826a.618.618,0,0,0-.028.154c0,.071,0,.084.154.106a1.893,1.893,0,0,0,.264.013c.16,0,.231,0,.231.1a.13.13,0,0,1-.147.146c-.133,0-.306-.013-.446-.019-.118-.008-.362-.008-.481-.008-.2,0-.705.027-.907.027a.1.1,0,0,1-.111-.1c0-.147.091-.147.209-.147.544,0,.558-.056.613-.293l.928-3.7a.567.567,0,0,0,.028-.154c0-.068-.014-.082-.161-.1-.125-.013-.258-.013-.265-.013-.139,0-.223,0-.223-.1,0-.153.105-.153.146-.153.133,0,.3.014.44.021.119.008.363.008.481.008.2,0,.711-.029.913-.029a.1.1,0,0,1,.113.1c0,.153-.091.153-.21.153-.536,0-.551.056-.614.293l-.4,1.619h2.336l.411-1.647a.618.618,0,0,0,.028-.154c0-.068-.013-.082-.16-.1-.126-.013-.258-.013-.265-.013-.14,0-.223,0-.223-.1,0-.153.105-.153.147-.153.131,0,.3.014.439.021.118.008.362.008.48.008.2,0,.712-.029.915-.029a.1.1,0,0,1,.111.1c0,.153-.084.153-.237.153-.516,0-.53.056-.593.314Z" transform="translate(-532.349 -342.91)"/>
    <path class="cls-4" d="M812.889,383.5c0,.036-.022.056-.049.084a4.117,4.117,0,0,0-1.29,3.32,4.26,4.26,0,0,0,1.268,3.291c.049.049.071.063.071.1,0,.084-.084.084-.14.084a4.46,4.46,0,0,1,0-6.966C812.805,383.419,812.889,383.419,812.889,383.5Z" transform="translate(-532.349 -342.91)"/>
    <path class="cls-4" d="M814.8,387.842a1.339,1.339,0,0,0,1.126.668,1.4,1.4,0,0,0,1.345-1.028c.019-.078.04-.138.129-.138a.115.115,0,0,1,.129.119,1.7,1.7,0,0,1-1.664,1.295,2.248,2.248,0,0,1-2.191-2.3,2.176,2.176,0,0,1,2.072-2.271,1.767,1.767,0,0,1,1.783,1.953c0,.209-.029.209-.249.209H814.5A2.9,2.9,0,0,0,814.8,387.842Zm2.072-1.7c0-.389-.1-1.735-1.126-1.735-.339,0-1.176.25-1.235,1.735Z" transform="translate(-532.349 -342.91)"/>
    <path class="cls-4" d="M820.054,386.146a1.434,1.434,0,0,1-1.366,1.545c-.568,0-1.125-.279-1.125-.8a.458.458,0,1,1,.916,0,.462.462,0,0,1-.349.449,1.217,1.217,0,0,0,.538.129c.638,0,.728-.858.728-1.305v-3.947c0-.488-.09-.557-.857-.557v-.31l1.515-.109Zm-.529-6.107a.528.528,0,1,1,.529-.528A.531.531,0,0,1,819.525,380.039Z" transform="translate(-532.349 -342.91)"/>
    <path class="cls-4" d="M822.3,385.7c-.488,0-.806-.473-.806-1.148,0-1.165.86-2.413,1.656-2.413.537,0,.812.547.812,1.15C823.966,384.42,823.12,385.7,822.3,385.7Zm-.269-1.666a3.672,3.672,0,0,0-.119.8c0,.148.024.7.4.7.249,0,.751-.305,1.049-1.5Zm1.388-.229a3.077,3.077,0,0,0,.12-.791c0-.392-.115-.706-.394-.706-.233,0-.736.259-1.054,1.5Z" transform="translate(-532.349 -342.91)"/>
    <path class="cls-4" d="M826.3,386.674c0,.154,0,.209.527.209h.249v.219c-.273-.02-.717-.02-1-.02s-.731,0-1,.02v-.219h.249c.528,0,.528-.055.528-.209v-2.486a2.006,2.006,0,0,1-.727.138h-.085v-.219h.085a1.59,1.59,0,0,0,1-.317c.164,0,.179,0,.179.148Z" transform="translate(-532.349 -342.91)"/>
    <path class="cls-4" d="M831.066,386.906a4.658,4.658,0,0,1-.508,2.147,3.085,3.085,0,0,1-1.206,1.332.082.082,0,0,1-.091-.084c0-.033.007-.041.126-.16a4.237,4.237,0,0,0,1.206-3.243,4.15,4.15,0,0,0-1.27-3.291c-.042-.049-.062-.069-.062-.105,0-.083.084-.083.133-.083A4.185,4.185,0,0,1,831.066,386.906Z" transform="translate(-532.349 -342.91)"/>
    <path class="cls-3" d="M834.066,386.906a4.658,4.658,0,0,1-.508,2.147,3.085,3.085,0,0,1-1.206,1.332.082.082,0,0,1-.091-.084c0-.033.007-.041.126-.16a4.237,4.237,0,0,0,1.206-3.243,4.15,4.15,0,0,0-1.27-3.291c-.042-.049-.062-.069-.062-.105,0-.083.084-.083.133-.083A4.185,4.185,0,0,1,834.066,386.906Z" transform="translate(-532.349 -342.91)"/>
    <path class="cls-2" d="M587.7,416.313a.977.977,0,0,0-.03.167c0,.18.279.18.648.18.189,0,.279,0,.279.11,0,.2-.12.2-.2.2-.21,0-.429-.02-.648-.02s-.429-.01-.638-.01c-.279,0-.986.03-1.265.03-.02,0-.14,0-.14-.11,0-.2.09-.2.239-.2.618,0,.808-.01.907-.328.04-.15.269-1.1.688-2.75H584.5l-.678,2.731a.977.977,0,0,0-.03.167c0,.18.279.18.648.18.189,0,.279,0,.279.11,0,.2-.12.2-.2.2-.21,0-.429-.02-.648-.02s-.429-.01-.638-.01c-.279,0-.986.03-1.265.03-.02,0-.14,0-.14-.11,0-.2.09-.2.269-.2.787,0,.807-.08.907-.469l1.335-5.349a.875.875,0,0,0,.04-.19c0-.129-.09-.14-.269-.16s-.359-.019-.379-.019c-.189,0-.279,0-.279-.11,0-.2.11-.2.19-.2.289,0,1,.029,1.285.029s1-.029,1.275-.029c.03,0,.14,0,.14.109,0,.2-.08.2-.339.2-.717,0-.747.1-.837.459l-.588,2.341h3.039l.6-2.431a1.044,1.044,0,0,0,.04-.19c0-.129-.09-.14-.269-.16s-.359-.019-.379-.019c-.189,0-.279,0-.279-.11,0-.2.11-.2.19-.2.289,0,1,.029,1.285.029s1-.029,1.275-.029c.03,0,.14,0,.14.109,0,.2-.08.2-.339.2-.728,0-.747.1-.837.459Z" transform="translate(-532.349 -342.91)"/>
    <g>
      <path class="cls-2" d="M593.761,419.461a4.3,4.3,0,0,1-1.554-1.873,7.673,7.673,0,0,1-.03-6.149,4.341,4.341,0,0,1,1.584-1.943.089.089,0,0,1,.1.1c0,.029,0,.05-.129.17a6.514,6.514,0,0,0-1.6,4.713,6.6,6.6,0,0,0,1.564,4.662c.169.17.169.189.169.22A.089.089,0,0,1,593.761,419.461Z" transform="translate(-532.349 -342.91)"/>
      <path class="cls-2" d="M595.8,416.162a1.341,1.341,0,0,0,1.126.668,1.4,1.4,0,0,0,1.345-1.027c.02-.078.04-.139.129-.139a.116.116,0,0,1,.13.119,1.7,1.7,0,0,1-1.664,1.295,2.248,2.248,0,0,1-2.192-2.3,2.177,2.177,0,0,1,2.073-2.271,1.767,1.767,0,0,1,1.783,1.953c0,.209-.03.209-.249.209H595.5A2.9,2.9,0,0,0,595.8,416.162Zm2.072-1.7c0-.389-.1-1.734-1.125-1.734-.339,0-1.176.25-1.236,1.734Z" transform="translate(-532.349 -342.91)"/>
    </g>
    <path class="cls-2" d="M600.936,413.873a1.434,1.434,0,0,1-1.365,1.545c-.568,0-1.126-.279-1.126-.8a.459.459,0,1,1,.917,0,.46.46,0,0,1-.349.449,1.214,1.214,0,0,0,.538.129c.638,0,.727-.857.727-1.3v-3.948c0-.488-.089-.556-.856-.556v-.311l1.514-.109Zm-.528-6.107a.529.529,0,1,1,.528-.528A.531.531,0,0,1,600.408,407.766Z" transform="translate(-532.349 -342.91)"/>
    <path class="cls-2" d="M603.246,413.445c-.642,0-.963-.683-.963-1.513,0-1.6,1.116-3.465,2.162-3.465.683,0,.962.781.962,1.513C605.407,411.541,604.3,413.445,603.246,413.445Zm-.238-2.363a5.333,5.333,0,0,0-.2,1.262c0,.377.063.906.446.906.307,0,.586-.328.8-.689a4.983,4.983,0,0,0,.565-1.479Zm1.674-.252a5.559,5.559,0,0,0,.2-1.262c0-.132,0-.906-.446-.906-.412,0-1.011.662-1.367,2.168Z" transform="translate(-532.349 -342.91)"/>
    <g>
      <path class="cls-2" d="M608.533,417.518a4.348,4.348,0,0,1-1.584,1.943.1.1,0,0,1-.1-.1c0-.031,0-.05.13-.17a7.756,7.756,0,0,0,.06-9.367c-.19-.178-.19-.2-.19-.228a.094.094,0,0,1,.1-.1,4.318,4.318,0,0,1,1.554,1.873,7.673,7.673,0,0,1,.03,6.149Z" transform="translate(-532.349 -342.91)"/>
      <path class="cls-2" d="M613.9,413.711c-.15,0-.339,0-.339-.2s.189-.2.329-.2h5.968c.139,0,.329,0,.329.2s-.19.2-.339.2Zm-.01,1.934c-.14,0-.329,0-.329-.2s.189-.2.339-.2h5.948c.149,0,.339,0,.339.2s-.19.2-.329.2Z" transform="translate(-532.349 -342.91)"/>
    </g>
    <path class="cls-4" d="M625.03,419.1c0,.179,0,.359-.2.359s-.2-.18-.2-.359v-9.247c0-.179,0-.359.2-.359s.2.18.2.359Z" transform="translate(-532.349 -342.91)"/>
    <path class="cls-4" d="M632.46,416.313a1.082,1.082,0,0,0-.029.167c0,.18.278.18.647.18.19,0,.279,0,.279.11,0,.2-.119.2-.2.2-.209,0-.429-.02-.648-.02s-.428-.01-.637-.01c-.279,0-.987.03-1.266.03-.02,0-.139,0-.139-.11,0-.2.09-.2.239-.2.618,0,.807-.01.907-.328.039-.15.269-1.1.687-2.75h-3.039l-.678,2.731a1.082,1.082,0,0,0-.029.167c0,.18.278.18.647.18.19,0,.279,0,.279.11,0,.2-.119.2-.2.2-.209,0-.428-.02-.648-.02s-.428-.01-.637-.01c-.279,0-.987.03-1.266.03-.02,0-.139,0-.139-.11,0-.2.09-.2.269-.2.787,0,.807-.08.907-.469l1.335-5.349a.947.947,0,0,0,.04-.19c0-.129-.09-.14-.269-.16s-.359-.019-.379-.019c-.189,0-.279,0-.279-.11,0-.2.11-.2.189-.2.289,0,1,.029,1.285.029s1-.029,1.276-.029c.03,0,.139,0,.139.109,0,.2-.079.2-.338.2-.718,0-.747.1-.837.459l-.588,2.341h3.039l.6-2.431a1.152,1.152,0,0,0,.04-.19c0-.129-.09-.14-.269-.16s-.359-.019-.379-.019c-.189,0-.279,0-.279-.11,0-.2.11-.2.189-.2.289,0,1,.029,1.285.029s1-.029,1.276-.029c.03,0,.139,0,.139.109,0,.2-.079.2-.338.2-.728,0-.747.1-.837.459Z" transform="translate(-532.349 -342.91)"/>
    <g>
      <path class="cls-4" d="M638.519,419.461a4.3,4.3,0,0,1-1.555-1.873,7.678,7.678,0,0,1-.029-6.149,4.334,4.334,0,0,1,1.584-1.943.089.089,0,0,1,.1.1c0,.029,0,.05-.129.17a6.514,6.514,0,0,0-1.6,4.713,6.6,6.6,0,0,0,1.564,4.662c.169.17.169.189.169.22A.089.089,0,0,1,638.519,419.461Z" transform="translate(-532.349 -342.91)"/>
      <path class="cls-4" d="M640.561,416.162a1.34,1.34,0,0,0,1.126.668,1.4,1.4,0,0,0,1.345-1.027c.02-.078.04-.139.129-.139a.116.116,0,0,1,.13.119,1.7,1.7,0,0,1-1.664,1.295,2.248,2.248,0,0,1-2.192-2.3,2.177,2.177,0,0,1,2.072-2.271,1.768,1.768,0,0,1,1.784,1.953c0,.209-.03.209-.249.209h-2.78A2.9,2.9,0,0,0,640.561,416.162Zm2.072-1.7c0-.389-.1-1.734-1.126-1.734-.339,0-1.175.25-1.236,1.734Z" transform="translate(-532.349 -342.91)"/>
    </g>
    <path class="cls-4" d="M645.694,413.873a1.434,1.434,0,0,1-1.365,1.545c-.568,0-1.126-.279-1.126-.8a.459.459,0,1,1,.917,0,.461.461,0,0,1-.349.449,1.214,1.214,0,0,0,.538.129c.638,0,.727-.857.727-1.3v-3.948c0-.488-.089-.556-.856-.556v-.311l1.514-.109Zm-.528-6.107a.529.529,0,1,1,.528-.528A.531.531,0,0,1,645.166,407.766Z" transform="translate(-532.349 -342.91)"/>
    <path class="cls-4" d="M648.128,413.445c-.641,0-.962-.683-.962-1.513,0-1.6,1.116-3.465,2.162-3.465.683,0,.962.781.962,1.513C650.29,411.541,649.188,413.445,648.128,413.445Zm-.237-2.363a5.333,5.333,0,0,0-.2,1.262c0,.377.062.906.446.906.307,0,.586-.328.8-.689a5.011,5.011,0,0,0,.565-1.479Zm1.673-.252a5.517,5.517,0,0,0,.2-1.262c0-.132,0-.906-.446-.906-.412,0-1.011.662-1.367,2.168Z" transform="translate(-532.349 -342.91)"/>
    <path class="cls-4" d="M653.416,417.518a4.348,4.348,0,0,1-1.584,1.943.1.1,0,0,1-.1-.1c0-.031,0-.05.129-.17a7.752,7.752,0,0,0,.06-9.367c-.189-.178-.189-.2-.189-.228a.094.094,0,0,1,.1-.1,4.318,4.318,0,0,1,1.554,1.873,7.684,7.684,0,0,1,.03,6.149Z" transform="translate(-532.349 -342.91)"/>
    <path class="cls-4" d="M656.584,419.1c0,.179,0,.359-.2.359s-.2-.18-.2-.359v-9.247c0-.179,0-.359.2-.359s.2.18.2.359Z" transform="translate(-532.349 -342.91)"/>
    <path class="cls-2" d="M661.432,415.006a.529.529,0,1,1,.528-.527A.531.531,0,0,1,661.432,415.006Z" transform="translate(-532.349 -342.91)"/>
    <path class="cls-2" d="M666.491,416.162a1.341,1.341,0,0,0,1.126.668,1.4,1.4,0,0,0,1.345-1.027c.02-.078.04-.139.129-.139a.116.116,0,0,1,.13.119,1.7,1.7,0,0,1-1.664,1.295,2.248,2.248,0,0,1-2.192-2.3,2.177,2.177,0,0,1,2.073-2.271,1.767,1.767,0,0,1,1.783,1.953c0,.209-.03.209-.249.209h-2.78A2.9,2.9,0,0,0,666.491,416.162Zm2.072-1.7c0-.389-.1-1.734-1.125-1.734-.339,0-1.176.25-1.236,1.734Z" transform="translate(-532.349 -342.91)"/>
    <path class="cls-2" d="M671.616,413.873a1.434,1.434,0,0,1-1.365,1.545c-.568,0-1.126-.279-1.126-.8a.459.459,0,1,1,.917,0,.461.461,0,0,1-.349.449,1.214,1.214,0,0,0,.538.129c.638,0,.727-.857.727-1.3v-3.948c0-.488-.089-.556-.856-.556v-.311l1.514-.109Zm-.528-6.107a.529.529,0,1,1,.528-.528A.531.531,0,0,1,671.088,407.766Z" transform="translate(-532.349 -342.91)"/>
    <path class="cls-4" d="M673.639,413.033H677.5c.111,0,.272,0,.272.176s-.168.166-.272.166h-4.15c-.118,0-.279,0-.279-.174,0-.062.021-.076.1-.16l4.268-4.408c.069-.069.09-.1.167-.1a.172.172,0,0,1,.168.176c0,.062-.015.068-.1.16Z" transform="translate(-532.349 -342.91)"/>
    <path class="cls-4" d="M683.226,412.852a1.259,1.259,0,0,0-.029.154c0,.07,0,.084.154.105a1.772,1.772,0,0,0,.265.014c.16,0,.23,0,.23.1a.13.13,0,0,1-.147.146c-.132,0-.306-.014-.446-.02-.118-.007-.362-.007-.481-.007-.2,0-.7.027-.906.027a.1.1,0,0,1-.112-.1c0-.146.091-.146.209-.146.544,0,.558-.057.614-.293l.453-1.807h-2.336l-.46,1.827a.618.618,0,0,0-.028.154c0,.07,0,.084.153.105a1.779,1.779,0,0,0,.265.014c.161,0,.23,0,.23.1a.129.129,0,0,1-.146.146c-.132,0-.307-.014-.446-.02-.119-.007-.363-.007-.482-.007-.2,0-.7.027-.906.027a.1.1,0,0,1-.112-.1c0-.146.091-.146.21-.146.544,0,.557-.057.613-.293l.928-3.7a.579.579,0,0,0,.028-.154c0-.069-.014-.082-.161-.1-.125-.014-.258-.014-.265-.014-.139,0-.223,0-.223-.1,0-.153.1-.153.147-.153.132,0,.3.014.439.02.118.008.362.008.481.008.2,0,.711-.028.914-.028a.1.1,0,0,1,.111.1c0,.152-.09.152-.209.152-.537,0-.551.057-.614.293l-.4,1.619h2.336l.411-1.646a.633.633,0,0,0,.028-.154c0-.069-.013-.082-.16-.1-.126-.014-.259-.014-.266-.014-.139,0-.222,0-.222-.1,0-.153.1-.153.146-.153.132,0,.3.014.44.02.118.008.362.008.48.008.2,0,.712-.028.914-.028a.1.1,0,0,1,.112.1c0,.152-.084.152-.238.152-.515,0-.529.057-.592.315Z" transform="translate(-532.349 -342.91)"/>
    <path class="cls-4" d="M687.857,408.229c0,.035-.021.056-.048.084a4.112,4.112,0,0,0-1.29,3.32,4.258,4.258,0,0,0,1.268,3.291c.049.049.07.062.07.1,0,.084-.084.084-.139.084a4.459,4.459,0,0,1,0-6.965C687.773,408.146,687.857,408.146,687.857,408.229Z" transform="translate(-532.349 -342.91)"/>
    <path class="cls-4" d="M689.765,412.568a1.337,1.337,0,0,0,1.126.668,1.4,1.4,0,0,0,1.344-1.027c.02-.078.04-.139.13-.139a.115.115,0,0,1,.129.119,1.7,1.7,0,0,1-1.664,1.295,2.247,2.247,0,0,1-2.191-2.3,2.177,2.177,0,0,1,2.072-2.272,1.767,1.767,0,0,1,1.783,1.953c0,.209-.029.209-.249.209h-2.779A2.9,2.9,0,0,0,689.765,412.568Zm2.072-1.7c0-.388-.1-1.734-1.126-1.734-.339,0-1.176.25-1.235,1.734Z" transform="translate(-532.349 -342.91)"/>
    <path class="cls-4" d="M695.015,410.881a1.435,1.435,0,0,1-1.366,1.545c-.568,0-1.126-.28-1.126-.8a.459.459,0,1,1,.917,0,.462.462,0,0,1-.349.449,1.217,1.217,0,0,0,.538.129c.638,0,.727-.857.727-1.305v-3.947c0-.488-.089-.557-.856-.557v-.31l1.515-.109Zm-.529-6.108a.528.528,0,1,1,.529-.527A.531.531,0,0,1,694.486,404.773Z" transform="translate(-532.349 -342.91)"/>
    <path class="cls-4" d="M697.265,410.438c-.488,0-.806-.473-.806-1.149,0-1.164.86-2.412,1.656-2.412.537,0,.812.547.812,1.148C698.927,409.154,698.081,410.438,697.265,410.438ZM697,408.771a3.68,3.68,0,0,0-.119.8c0,.149.024.7.4.7.248,0,.751-.305,1.049-1.5Zm1.388-.228a3.093,3.093,0,0,0,.12-.791c0-.393-.115-.707-.394-.707-.233,0-.736.26-1.054,1.5Z" transform="translate(-532.349 -342.91)"/>
    <g>
      <path class="cls-2" d="M638.281,378.6h-.249c-.159-1.375-.408-1.933-1.9-1.933h-1.2c-.468,0-.488.069-.488.4v2.521h.857c.956,0,1.056-.329,1.056-1.166h.249v2.641h-.249c0-.847-.1-1.166-1.056-1.166h-.857v2.451c0,.349,0,.479.947.479h.328v.308c-.358-.03-1.265-.03-1.674-.03-.388,0-1.165,0-1.514.03v-.308h.239c.767,0,.787-.111.787-.469v-5.221c0-.359-.02-.468-.787-.468h-.239v-.309H638Z" transform="translate(-532.349 -342.91)"/>
      <path class="cls-2" d="M640.92,382.356c0,.358.031.469.818.469H642v.308c-.349-.03-1.136-.03-1.525-.03s-1.165,0-1.514.03v-.308h.259c.787,0,.817-.111.817-.469v-5.251c0-.358-.03-.468-.817-.468h-.259v-.309c.349.03,1.136.03,1.524.03s1.166,0,1.515-.03v.309h-.259c-.787,0-.818.11-.818.468Z" transform="translate(-532.349 -342.91)"/>
    </g>
    <path class="cls-2" d="M647.831,380.9l.13.8c.139.926.219,1.434.707,1.434.249,0,.6-.179.658-.886.01-.071.01-.16.119-.16.13,0,.13.11.13.169,0,.28-.17,1.1-.947,1.1a1.943,1.943,0,0,1-1.255-.418c-.409-.379-.409-.777-.409-1.425,0-.667,0-.976-.378-1.335a1.271,1.271,0,0,0-.927-.339h-1.146v2.521c0,.358.02.469.787.469h.24v.308c-.359-.03-1.067-.03-1.455-.03s-1.1,0-1.455.03v-.308h.239c.767,0,.787-.111.787-.469v-5.251c0-.358-.02-.468-.787-.468h-.239v-.309h3.129c1.465,0,2.6.837,2.6,1.794,0,.776-.777,1.384-1.743,1.624A1.726,1.726,0,0,1,647.831,380.9Zm-2.212-1.285c1.475,0,1.714-.807,1.714-1.494,0-1.445-1.116-1.485-2.013-1.485a4.868,4.868,0,0,0-.588.02c-.219.03-.219.149-.219.378v2.581Z" transform="translate(-532.349 -342.91)"/>
    <polygon class="cls-1" points="55.418 36.891 55.418 19.174 161.716 19.174 161.716 54.607 55.418 54.607 55.418 36.891"/>
  </g>
</svg>
