<svg id="Layer_1" data-name="Layer 1" xmlns="http://www.w3.org/2000/svg" viewBox="0 0 422.52 247.23">
  <defs>
    <style>
      .cls-1 {
        fill: none;
        stroke: #000;
        stroke-miterlimit: 10;
        stroke-width: 0.85px;
      }

      .cls-2 {
        fill: #1d1d1b;
      }

      .cls-3 {
        fill: red;
      }

      .cls-4 {
        fill: blue;
      }
    </style>
  </defs>
  <title>Freq2</title>
  <g>
    <path class="cls-1" d="M601.975,305.46l7.087-7.087m0,0,7.086,7.087m-10.63-3.544v14.173m7.087-14.173v14.173m-10.63-3.543,7.087,7.087m0,0,7.086-7.087m-10.63,85.039,7.087-7.086m0,0,7.087,7.086m-10.63-3.543v14.173m7.086-14.173v14.173m-10.63-3.543,7.087,7.086m0,0,7.087-7.086" transform="translate(-471 -257.91)"/>
    <g>
      <path class="cls-2" d="M628.119,306.424c0-.359-.02-.468-.787-.468h-.239v-.309h5.61l.279,2.242h-.25c-.159-1.385-.428-1.933-1.952-1.933h-1.286c-.468,0-.488.069-.488.4v2.392h.9c.966,0,1.076-.309,1.076-1.166h.249v2.64h-.249c0-.846-.11-1.165-1.076-1.165h-.9v2.66c0,.329.02.4.488.4h1.325c1.714,0,1.944-.727,2.193-2.261h.249l-.419,2.57h-5.749v-.309h.239c.767,0,.787-.109.787-.468Z" transform="translate(-471 -257.91)"/>
      <path class="cls-2" d="M636.179,312.532c-1.514,0-1.514-.907-1.514-1.684v-1.494c0-.887,0-.917-.778-.917v-.309l1.465-.11v3.308c0,.518.04.987.877.987.727,0,1.206-.678,1.206-1.544V309c0-.489-.081-.558-.778-.558v-.309l1.465-.11v3.538c0,.488.08.557.777.557v.309l-1.435.11v-.9A1.359,1.359,0,0,1,636.179,312.532Z" transform="translate(-471 -257.91)"/>
      <path class="cls-2" d="M640.891,311.665c0,.448.109.448.777.448v.309c-.368-.009-.856-.029-1.106-.029s-.777.02-1.106.029v-.309c.668,0,.777,0,.777-.448v-5.181c0-.488-.079-.558-.777-.558v-.309l1.435-.11Z" transform="translate(-471 -257.91)"/>
      <path class="cls-2" d="M643.322,311.615a1.341,1.341,0,0,0,1.126.668,1.4,1.4,0,0,0,1.345-1.027c.02-.079.04-.139.129-.139a.116.116,0,0,1,.13.12,1.7,1.7,0,0,1-1.664,1.295,2.25,2.25,0,0,1-2.192-2.3,2.178,2.178,0,0,1,2.073-2.272,1.768,1.768,0,0,1,1.783,1.954c0,.209-.03.209-.249.209h-2.78A2.9,2.9,0,0,0,643.322,311.615Zm2.073-1.7c0-.389-.1-1.734-1.126-1.734-.339,0-1.176.249-1.236,1.734Z" transform="translate(-471 -257.91)"/>
    </g>
    <path class="cls-2" d="M649.208,308.018a.68.68,0,0,1,.738.608.418.418,0,0,1-.429.438.412.412,0,0,1-.428-.428.429.429,0,0,1,.229-.388c-.02-.011-.04-.011-.11-.011-.757,0-1.175.888-1.175,1.874v1.534c0,.359.02.468.757.468H649v.309c-.4-.029-.867-.029-1.265-.029-.279,0-.748.02-1.136.029v-.309c.668,0,.777,0,.777-.448V309c0-.489-.08-.558-.777-.558v-.309l1.385-.11v1.1A1.4,1.4,0,0,1,649.208,308.018Z" transform="translate(-471 -257.91)"/>
    <g>
      <path class="cls-2" d="M632.284,404.461h-5.191v-.309h.239c.767,0,.787-.109.787-.468v-5.25c0-.36-.02-.469-.787-.469h-.239v-.309c.349.03,1.126.03,1.514.03.409,0,1.316,0,1.674-.03v.309h-.328c-.947,0-.947.139-.947.478v5.311c0,.328.02.4.488.4h.818c1.753,0,1.893-1.246,2-2.261h.249Z" transform="translate(-471 -257.91)"/>
      <path class="cls-2" d="M638.989,399.957h-.249c-.139-1.6-.289-1.932-1.793-1.932a4.666,4.666,0,0,0-.568.02c-.179.039-.179.18-.179.379v5.25c0,.34,0,.478,1.046.478h.4v.309c-.408-.029-1.435-.029-1.893-.029s-1.475,0-1.883.029v-.309h.4c1.046,0,1.046-.138,1.046-.478v-5.25c0-.231,0-.34-.209-.379a4.178,4.178,0,0,0-.539-.02c-1.5,0-1.654.329-1.793,1.932h-.249l.189-2.242H638.8Z" transform="translate(-471 -257.91)"/>
    </g>
    <path class="cls-2" d="M641.6,403.684c0,.359.03.468.817.468h.259v.309c-.349-.029-1.136-.029-1.525-.029s-1.165,0-1.514.029v-.309h.259c.787,0,.817-.109.817-.468v-5.25c0-.36-.03-.469-.817-.469h-.259v-.309c.349.03,1.136.03,1.525.03s1.165,0,1.514-.03v.309h-.259c-.787,0-.817.109-.817.469Z" transform="translate(-471 -257.91)"/>
    <path class="cls-2" d="M658.853,276.065a2.628,2.628,0,0,1-2.332,2.033.943.943,0,0,1-1.056-.867.575.575,0,0,1,.558-.648.34.34,0,0,1,.369.349.539.539,0,0,1-.2.408.569.569,0,0,1-.429.12.8.8,0,0,0,.757.418,1.426,1.426,0,0,0,1.1-.627,3.827,3.827,0,0,0,.647-1.535,1.4,1.4,0,0,1-1.006.449,1.111,1.111,0,0,1-1.216-1.186,6.59,6.59,0,0,1,.578-2.092,2.11,2.11,0,0,0,.17-.7c0-.319-.17-.319-.249-.319-.339,0-.738.3-1.007,1.236-.05.159-.059.179-.159.179-.02,0-.12,0-.12-.1s.369-1.535,1.315-1.535a.791.791,0,0,1,.818.817,1.8,1.8,0,0,1-.2.718,5.959,5.959,0,0,0-.508,1.953c0,.368.11.807.618.807a1.387,1.387,0,0,0,1.126-.847l.448-1.794c.06-.269.13-.538.2-.8.04-.179.12-.488.14-.538a.431.431,0,0,1,.349-.209.267.267,0,0,1,.289.269.622.622,0,0,1-.04.229Z" transform="translate(-471 -257.91)"/>
    <path class="cls-2" d="M661.417,278.546v-9.964h1.365v.4h-.967v9.166h.967v.4Z" transform="translate(-471 -257.91)"/>
    <path class="cls-2" d="M664.453,273.166a3.207,3.207,0,0,0,.16-.837c0-.329-.11-.459-.309-.459-.359,0-.558.479-.727,1.186-.06.219-.07.229-.17.229-.02,0-.119,0-.119-.1a5.031,5.031,0,0,1,.3-.967.871.871,0,0,1,.747-.568.9.9,0,0,1,.917.867,1.928,1.928,0,0,1,1.555-.867,1.019,1.019,0,0,1,1.146,1.066,8.982,8.982,0,0,1-.608,2.192,1.9,1.9,0,0,0-.179.708c0,.229.069.329.239.329.488,0,.817-.558,1.016-1.236.05-.149.05-.179.149-.179.03,0,.12,0,.12.1,0,.08-.369,1.535-1.3,1.535a.8.8,0,0,1-.818-.817,1.142,1.142,0,0,1,.1-.459,9.5,9.5,0,0,0,.647-2.321c0-.329-.09-.7-.538-.7a1.981,1.981,0,0,0-1.624,1.216c-.01.04-.09.329-.13.5-.05.229-.109.449-.169.667l-.219.9c-.06.249-.18.718-.19.738a.407.407,0,0,1-.368.279.266.266,0,0,1-.289-.269c0-.05.06-.279.089-.429Z" transform="translate(-471 -257.91)"/>
    <g>
      <path class="cls-2" d="M670.583,278.546h-1.365v-.4h.966v-9.166h-.966v-.4h1.365Z" transform="translate(-471 -257.91)"/>
      <path class="cls-2" d="M675.415,272.8c-.15,0-.339,0-.339-.2s.189-.2.328-.2h5.969c.139,0,.329,0,.329.2s-.19.2-.339.2Zm-.011,1.933c-.139,0-.328,0-.328-.2s.189-.2.339-.2h5.948c.149,0,.339,0,.339.2s-.19.2-.329.2Z" transform="translate(-471 -257.91)"/>
    </g>
    <path class="cls-2" d="M684.661,273.923c0,.179,0,.269-.13.269s-.119-.06-.119-.239V273.5a3.44,3.44,0,0,1,.877-2.241,1.1,1.1,0,0,0,.338-.947c0-.389,0-1.066-1.086-1.066a1.479,1.479,0,0,0-1.305.677c.14,0,.558,0,.558.448a.459.459,0,1,1-.918-.019,1.512,1.512,0,0,1,1.7-1.325c1.485,0,1.883.767,1.883,1.344a1.228,1.228,0,0,1-.477.977,2.805,2.805,0,0,0-1.316,2.222Zm-.13,2.132a.528.528,0,1,1,.529-.528A.531.531,0,0,1,684.531,276.055Z" transform="translate(-471 -257.91)"/>
    <polyline points="122.896 17.928 127.432 15.66 122.896 13.392 124.03 15.66"/>
    <line class="cls-1" x1="84.912" y1="15.66" x2="124.03" y2="15.66"/>
    <path class="cls-2" d="M500.386,263.739a3.86,3.86,0,0,0-.169.877c0,.339.159.658.548.658.318,0,1-.239,1.325-1.306.02-.07.04-.109.13-.109.03,0,.119,0,.119.1,0,.25-.568,1.535-1.594,1.535a1.1,1.1,0,0,1-1.076-.757,1.326,1.326,0,0,1-1.046.757c-.439,0-.937-.2-.937-.658a.567.567,0,0,1,.548-.578.342.342,0,0,1,.369.349.565.565,0,0,1-.469.538.958.958,0,0,0,.5.13c.439,0,.787-.419.947-1.037a14.471,14.471,0,0,0,.538-2.371c0-.578-.348-.668-.538-.668-.339,0-1,.25-1.335,1.306-.02.089-.05.109-.13.109-.02,0-.119,0-.119-.1,0-.249.568-1.535,1.6-1.535a1.1,1.1,0,0,1,1.076.757,1.291,1.291,0,0,1,1.046-.757c.339,0,.927.14.927.658a.556.556,0,0,1-.538.578.348.348,0,0,1-.379-.349.58.58,0,0,1,.478-.538.974.974,0,0,0-.5-.13c-.7,0-.926.917-.986,1.176Z" transform="translate(-471 -257.91)"/>
    <path class="cls-2" d="M504.213,267.875V257.91h1.366v.4h-.967v9.167h.967v.4Z" transform="translate(-471 -257.91)"/>
    <path class="cls-2" d="M507.25,262.494a3.2,3.2,0,0,0,.16-.837c0-.329-.11-.459-.309-.459-.359,0-.559.479-.727,1.186-.061.22-.07.229-.17.229-.02,0-.12,0-.12-.1a5.058,5.058,0,0,1,.3-.967.871.871,0,0,1,.747-.568.9.9,0,0,1,.917.867,1.928,1.928,0,0,1,1.555-.867,1.019,1.019,0,0,1,1.146,1.066,8.982,8.982,0,0,1-.608,2.192,1.9,1.9,0,0,0-.18.708c0,.229.07.329.24.329.488,0,.817-.558,1.016-1.236.05-.149.05-.179.149-.179.03,0,.12,0,.12.1,0,.08-.369,1.535-1.305,1.535a.8.8,0,0,1-.818-.817,1.154,1.154,0,0,1,.1-.459,9.454,9.454,0,0,0,.648-2.321c0-.329-.09-.7-.538-.7a1.981,1.981,0,0,0-1.624,1.216c-.01.04-.09.329-.13.5-.05.23-.11.449-.169.668l-.219.9c-.06.249-.18.717-.19.737a.408.408,0,0,1-.368.279.266.266,0,0,1-.289-.269c0-.05.06-.279.089-.429Z" transform="translate(-471 -257.91)"/>
    <g>
      <path class="cls-2" d="M513.38,267.875h-1.365v-.4h.966v-9.167h-.966v-.4h1.365Z" transform="translate(-471 -257.91)"/>
      <path class="cls-2" d="M518.331,262.125c-.15,0-.339,0-.339-.2s.189-.2.329-.2h5.969c.139,0,.328,0,.328.2s-.189.2-.339.2Zm-.01,1.933c-.14,0-.329,0-.329-.2s.189-.2.339-.2h5.948c.15,0,.339,0,.339.2s-.189.2-.328.2Z" transform="translate(-471 -257.91)"/>
    </g>
    <path class="cls-3" d="M533.132,258.418c.06-.1.1-.169.26-.169s.169.04.189.239l.607,6.228c.03.289.03.358.648.358.13,0,.229,0,.229.11,0,.2-.119.2-.179.2-.249,0-.877-.029-1.126-.029-.408,0-.837.029-1.245.029-.02,0-.14,0-.14-.109,0-.2.1-.2.239-.2.2,0,.718-.03.718-.328,0-.1-.14-1.455-.16-1.664h-2.5l-.757,1.275a.774.774,0,0,0-.14.369c0,.249.24.329.469.348.07,0,.159.01.159.12,0,.189-.129.189-.189.189-.319,0-.668-.029-1-.029-.278,0-.588.029-.856.029a.117.117,0,0,1-.13-.109c0-.19.09-.19.209-.2a1.409,1.409,0,0,0,1.226-.837Zm.01,4.355-.318-3.288-1.964,3.288Z" transform="translate(-471 -257.91)"/>
    <g>
      <path class="cls-3" d="M539.569,265.244a1.3,1.3,0,0,0,1.306-1.046c.02-.06.04-.1.129-.1.03,0,.13,0,.13.1a1.641,1.641,0,0,1-1.655,1.3,2.206,2.206,0,0,1-2.142-2.262,2.234,2.234,0,0,1,2.163-2.312c.767,0,1.524.389,1.524,1.066a.459.459,0,1,1-.917.011.45.45,0,0,1,.469-.459,1.631,1.631,0,0,0-1.067-.369c-.528,0-1.344.419-1.344,2.043C538.165,264.815,539.041,265.244,539.569,265.244Z" transform="translate(-471 -257.91)"/>
      <path class="cls-3" d="M543.933,265.493a2.225,2.225,0,0,1-2.2-2.242,2.211,2.211,0,1,1,4.415,0A2.22,2.22,0,0,1,543.933,265.493Zm1.166-.987a3.027,3.027,0,0,0,.219-1.335,2.736,2.736,0,0,0-.259-1.385,1.308,1.308,0,0,0-1.126-.647,1.337,1.337,0,0,0-1.136.667,2.86,2.86,0,0,0-.239,1.365,2.965,2.965,0,0,0,.249,1.405,1.3,1.3,0,0,0,1.136.668A1.286,1.286,0,0,0,545.1,264.506Z" transform="translate(-471 -257.91)"/>
      <path class="cls-3" d="M547.22,262.992a1.061,1.061,0,0,1-.428-.847c0-.558.378-1.226,1.594-1.226a1.536,1.536,0,0,1,.937.279,1.337,1.337,0,0,0,.169-.159c.13-.12.15-.12.2-.12.11,0,.11.07.11.24v1.006c0,.189,0,.239-.13.239a.106.106,0,0,1-.119-.09,1.1,1.1,0,0,0-1.166-1.205c-.857,0-1.116.408-1.116.757,0,.578.668.707,1.226.817a2.029,2.029,0,0,1,1.135.478,1.286,1.286,0,0,1,.419.947c0,.717-.458,1.385-1.6,1.385a1.486,1.486,0,0,1-1.1-.429,2.563,2.563,0,0,0-.2.229c-.189.19-.2.2-.249.2-.109,0-.109-.07-.109-.239v-1.316c0-.179,0-.249.129-.249.1,0,.11.04.14.17.189.847.548,1.415,1.385,1.415.777,0,1.126-.4,1.126-.907,0-.718-.818-.877-1.036-.917A2.609,2.609,0,0,1,547.22,262.992Z" transform="translate(-471 -257.91)"/>
      <path class="cls-3" d="M553.616,267.875A4.309,4.309,0,0,1,552.062,266a7.668,7.668,0,0,1-.03-6.147,4.347,4.347,0,0,1,1.584-1.944.09.09,0,0,1,.1.1c0,.03,0,.05-.13.169a6.521,6.521,0,0,0-1.6,4.713,6.6,6.6,0,0,0,1.565,4.664c.169.169.169.189.169.219A.09.09,0,0,1,553.616,267.875Z" transform="translate(-471 -257.91)"/>
    </g>
    <path class="cls-3" d="M555.886,265.493c-.907,0-1.2-1.106-1.2-2.043,0-2.282,1.535-5.091,2.92-5.091,1.016,0,1.2,1.385,1.2,2.042C558.806,262.633,557.291,265.493,555.886,265.493Zm-.219-3.408a7.637,7.637,0,0,0-.319,1.973c0,.927.209,1.216.538,1.216.428,0,.807-.488,1.156-1.166a8.89,8.89,0,0,0,.7-2.023Zm2.162-.318a8.275,8.275,0,0,0,.319-1.983c0-.568-.06-1.206-.548-1.206-.449,0-.817.558-1.086,1.046a8.966,8.966,0,0,0-.767,2.143Z" transform="translate(-471 -257.91)"/>
    <path class="cls-3" d="M561.295,266.241c0,.23,0,.321.7.321h.265v.251c-.154-.007-1.032-.028-1.248-.028-.259,0-1.116.021-1.241.028v-.251h.264c.7,0,.7-.091.7-.321v-3.556a2.3,2.3,0,0,1-1.01.195v-.251a1.9,1.9,0,0,0,1.366-.446c.2,0,.209.007.209.195Z" transform="translate(-471 -257.91)"/>
    <path class="cls-3" d="M564.859,262.494a3.2,3.2,0,0,0,.16-.837c0-.329-.11-.459-.309-.459-.358,0-.558.479-.727,1.186-.06.22-.07.229-.17.229-.02,0-.119,0-.119-.1a4.983,4.983,0,0,1,.3-.967.87.87,0,0,1,.747-.568.9.9,0,0,1,.917.867,1.924,1.924,0,0,1,1.554-.867,1.019,1.019,0,0,1,1.146,1.066,8.982,8.982,0,0,1-.608,2.192,1.9,1.9,0,0,0-.179.708c0,.229.07.329.239.329.488,0,.817-.558,1.016-1.236.05-.149.05-.179.15-.179.029,0,.119,0,.119.1,0,.08-.368,1.535-1.305,1.535a.8.8,0,0,1-.817-.817,1.136,1.136,0,0,1,.1-.459,9.5,9.5,0,0,0,.647-2.321c0-.329-.09-.7-.538-.7a1.983,1.983,0,0,0-1.624,1.216c-.01.04-.09.329-.13.5-.05.23-.109.449-.169.668l-.219.9c-.06.249-.18.717-.189.737a.408.408,0,0,1-.369.279.267.267,0,0,1-.289-.269c0-.05.06-.279.09-.429Z" transform="translate(-471 -257.91)"/>
    <path class="cls-3" d="M575.636,265.881c0,.14,0,.329-.2.329s-.2-.189-.2-.329v-2.789h-2.79c-.14,0-.329,0-.329-.2s.189-.2.329-.2h2.79V259.9c0-.139,0-.329.2-.329s.2.19.2.329v2.79h2.781c.139,0,.328,0,.328.2s-.189.2-.328.2h-2.781Z" transform="translate(-471 -257.91)"/>
    <path class="cls-3" d="M585.318,260.969a1.835,1.835,0,0,1,1.913,1.8,3.125,3.125,0,0,1-3.049,2.73l-.378,1.484a2.453,2.453,0,0,1-.11.4.115.115,0,0,1-.1.04c-.05,0-.119-.01-.119-.11,0-.029.1-.408.219-.877.08-.309.15-.627.229-.936a1.835,1.835,0,0,1-1.913-1.8,3.126,3.126,0,0,1,3.049-2.73l.578-2.3c.04-.169.05-.2.15-.2.119,0,.119.09.119.1s-.03.12-.03.14Zm-.318.219a2.7,2.7,0,0,0-2.342,2.721,1.294,1.294,0,0,0,1.315,1.375Zm-.768,4.1a2.705,2.705,0,0,0,2.351-2.721,1.291,1.291,0,0,0-1.325-1.375Z" transform="translate(-471 -257.91)"/>
    <path class="cls-3" d="M589.649,265.931a4.339,4.339,0,0,1-1.585,1.944.1.1,0,0,1-.1-.1c0-.03,0-.05.129-.17a6.531,6.531,0,0,0,1.6-4.713,6.463,6.463,0,0,0-1.545-4.653c-.189-.179-.189-.2-.189-.229a.094.094,0,0,1,.1-.1,4.3,4.3,0,0,1,1.555,1.874,7.679,7.679,0,0,1,.03,6.147Z" transform="translate(-471 -257.91)"/>
    <g>
      <path class="cls-2" d="M610.038,272.357h-.249c-.16-1.375-.409-1.933-1.9-1.933h-1.2c-.468,0-.488.07-.488.4v2.521h.857c.957,0,1.056-.329,1.056-1.166h.25v2.641h-.25c0-.847-.1-1.166-1.056-1.166H606.2V276.1c0,.349,0,.478.947.478h.329v.309c-.359-.03-1.266-.03-1.674-.03-.389,0-1.166,0-1.515.03v-.309h.239c.767,0,.787-.109.787-.468v-5.221c0-.359-.02-.469-.787-.469h-.239v-.308h5.47Z" transform="translate(-471 -257.91)"/>
      <path class="cls-2" d="M612.677,276.114c0,.359.03.468.817.468h.259v.309c-.349-.03-1.136-.03-1.524-.03s-1.166,0-1.515.03v-.309h.259c.787,0,.817-.109.817-.468v-5.251c0-.359-.03-.468-.817-.468h-.259v-.309c.349.03,1.136.03,1.525.03s1.165,0,1.514-.03v.309h-.259c-.787,0-.817.109-.817.468Z" transform="translate(-471 -257.91)"/>
    </g>
    <path class="cls-2" d="M619.587,274.659l.13.8c.139.926.219,1.434.707,1.434.25,0,.6-.179.658-.887.01-.069.01-.159.12-.159.129,0,.129.11.129.169,0,.279-.169,1.1-.946,1.1a1.945,1.945,0,0,1-1.256-.418c-.408-.379-.408-.777-.408-1.425,0-.667,0-.976-.379-1.335a1.269,1.269,0,0,0-.926-.339H616.27v2.521c0,.359.02.468.787.468h.239v.309c-.359-.03-1.067-.03-1.455-.03s-1.1,0-1.455.03v-.309h.239c.768,0,.788-.109.788-.468v-5.251c0-.359-.02-.468-.788-.468h-.239v-.309h3.129c1.465,0,2.6.837,2.6,1.793,0,.777-.778,1.385-1.744,1.624A1.727,1.727,0,0,1,619.587,274.659Zm-2.212-1.285c1.475,0,1.714-.807,1.714-1.5,0-1.444-1.116-1.484-2.012-1.484a4.85,4.85,0,0,0-.588.02c-.219.029-.219.149-.219.378v2.581Z" transform="translate(-471 -257.91)"/>
    <polygon class="cls-1" points="127.262 15.66 127.262 1.487 155.608 1.487 155.608 29.833 127.262 29.833 127.262 15.66"/>
    <polyline points="172.502 17.928 177.038 15.66 172.502 13.392 173.636 15.66"/>
    <line class="cls-1" x1="155.778" y1="15.66" x2="173.636" y2="15.66"/>
    <path class="cls-2" d="M508.616,382.647c0,.23,0,.321.7.321h.265v.251c-.153-.007-1.032-.028-1.248-.028-.258,0-1.116.021-1.241.028v-.251h.265c.7,0,.7-.091.7-.321v-3.556a2.3,2.3,0,0,1-1.011.195v-.251a1.905,1.905,0,0,0,1.367-.446c.195,0,.209.007.209.195Z" transform="translate(-471 -257.91)"/>
    <polyline points="35.28 126.99 39.36 126.99 39.36 126.51 35.28 126.51"/>
    <path class="cls-2" d="M509.592,390.539h-2.873c0-.195,0-.209.07-.271l1.68-1.661a2.116,2.116,0,0,0,.656-1.337,1.045,1.045,0,0,0-1.06-1.11,1.1,1.1,0,0,0-1.018.649c.363,0,.411.244.411.369a.37.37,0,1,1-.739-.02,1.352,1.352,0,0,1,1.45-1.248,1.46,1.46,0,0,1,1.632,1.36,2.017,2.017,0,0,1-1,1.5c-.418.329-.662.524-1.394,1.172h1.282a3.512,3.512,0,0,0,.691-.043,1.6,1.6,0,0,0,.181-.634h.237Z" transform="translate(-471 -257.91)"/>
    <path class="cls-2" d="M516.7,380.215c.06-.1.1-.169.259-.169s.17.04.189.239l.608,6.227c.03.289.03.359.648.359.129,0,.229,0,.229.109,0,.2-.12.2-.179.2-.25,0-.877-.03-1.126-.03-.409,0-.837.03-1.246.03-.02,0-.139,0-.139-.11,0-.2.1-.2.239-.2.2,0,.717-.029.717-.328,0-.1-.139-1.455-.159-1.664h-2.5l-.757,1.275a.766.766,0,0,0-.14.369c0,.248.239.329.468.348.07,0,.16.01.16.119,0,.19-.13.19-.19.19-.318,0-.667-.03-1-.03-.279,0-.588.03-.857.03a.116.116,0,0,1-.13-.11c0-.189.09-.189.21-.2a1.41,1.41,0,0,0,1.226-.836Zm.01,4.355-.319-3.288-1.963,3.288Z" transform="translate(-471 -257.91)"/>
    <path class="cls-2" d="M520.286,386.373a1.343,1.343,0,0,0,1.126.668,1.4,1.4,0,0,0,1.345-1.027c.02-.078.04-.139.13-.139a.116.116,0,0,1,.13.119,1.7,1.7,0,0,1-1.664,1.295,2.249,2.249,0,0,1-2.193-2.3,2.178,2.178,0,0,1,2.073-2.272,1.768,1.768,0,0,1,1.784,1.954c0,.209-.031.209-.25.209h-2.78A2.9,2.9,0,0,0,520.286,386.373Zm2.073-1.7c0-.389-.1-1.735-1.126-1.735-.339,0-1.176.25-1.235,1.735Z" transform="translate(-471 -257.91)"/>
    <path class="cls-2" d="M524.359,382c-.119,0-.279,0-.279-.173s.167-.168.279-.168h4.156c.118,0,.278,0,.278.174s-.167.167-.278.167Z" transform="translate(-471 -257.91)"/>
    <path class="cls-2" d="M531.653,384.076a1.433,1.433,0,0,1-1.364,1.545c-.569,0-1.126-.279-1.126-.8a.458.458,0,1,1,.916,0,.46.46,0,0,1-.349.449,1.218,1.218,0,0,0,.539.129c.637,0,.727-.857.727-1.3v-3.947c0-.488-.09-.558-.857-.558v-.309l1.514-.11Zm-.528-6.107a.528.528,0,1,1,.528-.528A.531.531,0,0,1,531.125,377.969Z" transform="translate(-471 -257.91)"/>
    <path class="cls-2" d="M535.293,378.432c0,.035-.021.056-.048.084a4.113,4.113,0,0,0-1.291,3.319,4.256,4.256,0,0,0,1.27,3.292c.048.049.069.062.069.1,0,.084-.084.084-.139.084a4.459,4.459,0,0,1,0-6.965C535.209,378.349,535.293,378.349,535.293,378.432Z" transform="translate(-471 -257.91)"/>
    <path class="cls-2" d="M537.2,383.648c-.641,0-.962-.683-.962-1.513,0-1.6,1.116-3.466,2.161-3.466.684,0,.963.782.963,1.514C539.359,381.745,538.257,383.648,537.2,383.648Zm-.237-2.363a5.323,5.323,0,0,0-.2,1.261c0,.377.062.907.446.907.307,0,.586-.328.8-.69a5.042,5.042,0,0,0,.565-1.478Zm1.673-.251a5.524,5.524,0,0,0,.2-1.263c0-.132,0-.906-.446-.906-.412,0-1.012.662-1.367,2.169Z" transform="translate(-471 -257.91)"/>
    <path class="cls-2" d="M541.619,384.111c0,.155,0,.209.527.209h.249v.219c-.273-.019-.716-.019-1-.019s-.731,0-1,.019v-.219h.249c.527,0,.527-.054.527-.209v-2.486a1.983,1.983,0,0,1-.726.139h-.084v-.219h.084a1.586,1.586,0,0,0,1.005-.318c.164,0,.179,0,.179.148Z" transform="translate(-471 -257.91)"/>
    <path class="cls-2" d="M544.432,382.247c.035-.154.105-.44.153-.628a3.086,3.086,0,0,0,.112-.578c0-.189-.049-.342-.23-.342-.272,0-.4.342-.509.753-.049.188-.056.209-.154.209-.021,0-.118,0-.118-.09a2.453,2.453,0,0,1,.251-.691.635.635,0,0,1,.551-.377.709.709,0,0,1,.746.635,1.482,1.482,0,0,1,1.178-.635c.37,0,.907.119.907.8a5.092,5.092,0,0,1-.37,1.346,1.4,1.4,0,0,0-.16.565c0,.147.028.244.174.244.279,0,.579-.286.739-.844.028-.076.035-.118.133-.118.02,0,.111,0,.111.091s-.306,1.066-1,1.066a.615.615,0,0,1-.662-.6.945.945,0,0,1,.1-.376,5.617,5.617,0,0,0,.412-1.485c0-.133-.007-.488-.412-.488a1.3,1.3,0,0,0-1.046.641,1.43,1.43,0,0,0-.293.628c-.034.16-.076.314-.118.467-.042.174-.119.5-.154.628a2.761,2.761,0,0,1-.125.432.343.343,0,0,1-.272.153.222.222,0,0,1-.237-.223,2.832,2.832,0,0,1,.069-.286Z" transform="translate(-471 -257.91)"/>
    <path class="cls-2" d="M551.508,384.143c0,.1,0,.259-.174.259s-.167-.168-.167-.259V382h-2.141c-.1,0-.258,0-.258-.173s.167-.168.258-.168h2.141V379.52c0-.1,0-.258.174-.258s.167.168.167.258v2.141h2.134c.1,0,.258,0,.258.174s-.167.167-.258.167h-2.134Z" transform="translate(-471 -257.91)"/>
    <path class="cls-2" d="M557.417,380.5a1.4,1.4,0,0,1,1.492,1.29,2.27,2.27,0,0,1-2.287,1.876l-.293,1.171c-.036.146-.042.168-.147.168-.021,0-.111,0-.111-.084,0-.022.062-.279.146-.607.056-.217.105-.439.16-.655a1.4,1.4,0,0,1-1.492-1.29,2.254,2.254,0,0,1,2.287-1.877l.4-1.6c.028-.119.034-.154.139-.154.035,0,.119,0,.119.091Zm-.3.195a1.846,1.846,0,0,0-1.723,1.792.97.97,0,0,0,1.032.976Zm-.447,2.768a1.852,1.852,0,0,0,1.729-1.793.966.966,0,0,0-1.038-.975Z" transform="translate(-471 -257.91)"/>
    <path class="cls-2" d="M561.5,381.835a4.65,4.65,0,0,1-.509,2.148,3.093,3.093,0,0,1-1.206,1.331.082.082,0,0,1-.091-.084c0-.033.007-.041.125-.16a4.231,4.231,0,0,0,1.207-3.241,4.145,4.145,0,0,0-1.27-3.292c-.041-.049-.062-.07-.062-.1,0-.083.083-.083.132-.083A4.182,4.182,0,0,1,561.5,381.835Z" transform="translate(-471 -257.91)"/>
    <path class="cls-2" d="M514.858,318.929c0,.23,0,.321.7.321h.265v.25c-.153-.006-1.032-.027-1.248-.027-.258,0-1.115.021-1.241.027v-.25h.265c.7,0,.7-.091.7-.321v-3.556a2.31,2.31,0,0,1-1.011.194v-.251a1.9,1.9,0,0,0,1.367-.446c.2,0,.209.007.209.195Z" transform="translate(-471 -257.91)"/>
    <polyline points="41.52 63.27 45.6 63.27 45.6 62.79 41.52 62.79"/>
    <path class="cls-2" d="M515.834,326.813h-2.873c0-.195,0-.209.07-.272l1.68-1.66a2.114,2.114,0,0,0,.656-1.339,1.044,1.044,0,0,0-1.06-1.108,1.1,1.1,0,0,0-1.018.649c.363,0,.412.243.412.369a.37.37,0,1,1-.74-.021,1.353,1.353,0,0,1,1.451-1.248,1.459,1.459,0,0,1,1.631,1.359,2.016,2.016,0,0,1-1,1.507c-.418.327-.662.523-1.394,1.171h1.283a3.589,3.589,0,0,0,.69-.042,1.6,1.6,0,0,0,.181-.634h.237Z" transform="translate(-471 -257.91)"/>
    <path class="cls-2" d="M522.937,316.379c.06-.1.1-.169.259-.169s.17.04.189.239l.608,6.228c.03.289.03.358.648.358.13,0,.229,0,.229.11,0,.2-.12.2-.179.2-.25,0-.877-.03-1.126-.03-.409,0-.837.03-1.246.03-.02,0-.139,0-.139-.109,0-.2.1-.2.239-.2.2,0,.717-.03.717-.328,0-.1-.139-1.455-.159-1.665h-2.5l-.757,1.276a.774.774,0,0,0-.14.369c0,.249.239.329.468.348.07,0,.16.01.16.12,0,.189-.129.189-.189.189-.319,0-.668-.03-1-.03-.279,0-.588.03-.856.03a.116.116,0,0,1-.13-.109c0-.19.09-.19.209-.2a1.409,1.409,0,0,0,1.226-.837Zm.01,4.355-.319-3.288-1.963,3.288Z" transform="translate(-471 -257.91)"/>
    <path class="cls-2" d="M526.528,322.537a1.343,1.343,0,0,0,1.126.668A1.4,1.4,0,0,0,529,322.178c.02-.079.04-.139.129-.139a.116.116,0,0,1,.13.12,1.7,1.7,0,0,1-1.664,1.3,2.251,2.251,0,0,1-2.193-2.3,2.178,2.178,0,0,1,2.073-2.272,1.768,1.768,0,0,1,1.784,1.953c0,.209-.03.209-.25.209h-2.78A2.9,2.9,0,0,0,526.528,322.537Zm2.073-1.7c0-.388-.1-1.733-1.126-1.733-.339,0-1.176.249-1.235,1.733Z" transform="translate(-471 -257.91)"/>
    <path class="cls-2" d="M531.653,320.233a1.433,1.433,0,0,1-1.364,1.544c-.569,0-1.126-.278-1.126-.8a.458.458,0,1,1,.916,0,.459.459,0,0,1-.349.449,1.218,1.218,0,0,0,.539.129c.637,0,.727-.857.727-1.305v-3.946c0-.488-.09-.557-.857-.557v-.31l1.514-.109Zm-.528-6.108a.528.528,0,1,1,.528-.528A.531.531,0,0,1,531.125,314.125Z" transform="translate(-471 -257.91)"/>
    <path class="cls-2" d="M535.3,314.588c0,.036-.021.057-.049.084a4.117,4.117,0,0,0-1.29,3.32,4.255,4.255,0,0,0,1.269,3.291c.049.049.07.063.07.1,0,.083-.084.083-.139.083a4.46,4.46,0,0,1,0-6.966C535.217,314.505,535.3,314.505,535.3,314.588Z" transform="translate(-471 -257.91)"/>
    <path class="cls-2" d="M537.2,319.805c-.641,0-.962-.684-.962-1.513,0-1.6,1.116-3.466,2.161-3.466.684,0,.963.781.963,1.513C539.359,317.9,538.257,319.805,537.2,319.805Zm-.237-2.365a5.361,5.361,0,0,0-.2,1.263c0,.377.062.906.446.906.307,0,.586-.327.8-.69a5.027,5.027,0,0,0,.565-1.479Zm1.673-.251a5.509,5.509,0,0,0,.2-1.262c0-.132,0-.906-.446-.906-.412,0-1.012.663-1.367,2.168Z" transform="translate(-471 -257.91)"/>
    <path class="cls-2" d="M541.619,320.276c0,.154,0,.209.527.209h.249v.219c-.273-.02-.716-.02-1-.02s-.731,0-1,.02v-.219h.249c.527,0,.527-.055.527-.209v-2.487a1.983,1.983,0,0,1-.726.139h-.084v-.219h.084a1.586,1.586,0,0,0,1.005-.318c.164,0,.179,0,.179.149Z" transform="translate(-471 -257.91)"/>
    <path class="cls-2" d="M544.432,318.4c.035-.153.105-.439.153-.628a3.071,3.071,0,0,0,.112-.578c0-.189-.049-.342-.23-.342-.272,0-.4.342-.509.753-.049.188-.056.209-.154.209-.021,0-.118,0-.118-.09a2.453,2.453,0,0,1,.251-.691.635.635,0,0,1,.551-.376.708.708,0,0,1,.746.634,1.481,1.481,0,0,1,1.178-.634c.37,0,.907.118.907.795a5.1,5.1,0,0,1-.37,1.345,1.4,1.4,0,0,0-.16.565c0,.147.028.244.174.244.279,0,.579-.286.739-.843.028-.077.035-.119.133-.119.02,0,.111,0,.111.091s-.306,1.067-1,1.067a.615.615,0,0,1-.662-.6.941.941,0,0,1,.1-.377,5.606,5.606,0,0,0,.412-1.485c0-.133-.007-.488-.412-.488a1.3,1.3,0,0,0-1.046.642,1.422,1.422,0,0,0-.293.627c-.034.161-.076.314-.118.467-.042.175-.119.5-.154.628a2.761,2.761,0,0,1-.125.432.343.343,0,0,1-.272.154.223.223,0,0,1-.237-.223,2.834,2.834,0,0,1,.069-.287Z" transform="translate(-471 -257.91)"/>
    <path class="cls-2" d="M551.508,320.3c0,.1,0,.258-.174.258s-.167-.168-.167-.258v-2.141h-2.141c-.1,0-.258,0-.258-.175s.167-.167.258-.167h2.141v-2.141c0-.1,0-.258.174-.258s.167.168.167.258v2.141h2.134c.1,0,.258,0,.258.175s-.167.167-.258.167h-2.134Z" transform="translate(-471 -257.91)"/>
    <path class="cls-2" d="M557.417,316.653a1.4,1.4,0,0,1,1.492,1.29,2.268,2.268,0,0,1-2.287,1.875l-.293,1.172c-.036.147-.042.167-.147.167-.021,0-.111,0-.111-.083,0-.021.062-.279.146-.607.056-.216.105-.439.16-.655a1.4,1.4,0,0,1-1.492-1.291,2.254,2.254,0,0,1,2.287-1.875l.4-1.6c.028-.119.034-.153.139-.153.035,0,.119,0,.119.09Zm-.3.195a1.846,1.846,0,0,0-1.723,1.792.97.97,0,0,0,1.032.976Zm-.447,2.768a1.851,1.851,0,0,0,1.729-1.792.967.967,0,0,0-1.038-.976Z" transform="translate(-471 -257.91)"/>
    <path class="cls-2" d="M561.5,317.992a4.642,4.642,0,0,1-.509,2.147,3.1,3.1,0,0,1-1.206,1.332.082.082,0,0,1-.091-.083c0-.035.007-.042.125-.161a4.235,4.235,0,0,0,1.207-3.243,4.146,4.146,0,0,0-1.27-3.291c-.041-.048-.062-.069-.062-.1,0-.083.083-.083.132-.083A4.182,4.182,0,0,1,561.5,317.992Z" transform="translate(-471 -257.91)"/>
    <path class="cls-1" d="M542.079,373.122h35.263m7.235-21.462a7.257,7.257,0,1,0-7.257,7.257,7.259,7.259,0,0,0,7.257-7.257Zm-10.778.2h7.086m-3.543,3.544v-7.087" transform="translate(-471 -257.91)"/>
    <polyline points="179.589 95.88 184.124 93.612 179.589 91.344 180.723 93.612"/>
    <line class="cls-1" x1="113.429" y1="93.612" x2="180.723" y2="93.612"/>
    <polyline points="104.074 82.33 106.342 86.866 108.61 82.33 106.342 83.464"/>
    <line class="cls-1" x1="106.342" y1="72.693" x2="106.342" y2="83.464"/>
    <polyline points="108.61 105.574 106.342 101.039 104.074 105.574 106.342 104.44"/>
    <path class="cls-1" d="M577.342,373.122V362.351M542.079,330.6h35.263" transform="translate(-471 -257.91)"/>
    <path class="cls-3" d="M589.89,336.411c.06-.1.1-.17.259-.17s.17.04.189.239l.608,6.228c.03.289.03.358.648.358.13,0,.229,0,.229.11,0,.2-.119.2-.179.2-.249,0-.877-.029-1.126-.029-.409,0-.837.029-1.246.029-.02,0-.139,0-.139-.109,0-.2.1-.2.239-.2.2,0,.717-.029.717-.328,0-.1-.139-1.455-.159-1.664h-2.5l-.757,1.275a.774.774,0,0,0-.14.369c0,.249.239.329.468.348.07,0,.16.011.16.12,0,.189-.129.189-.189.189-.319,0-.668-.029-1-.029-.279,0-.588.029-.856.029a.116.116,0,0,1-.13-.109c0-.189.09-.189.209-.2a1.407,1.407,0,0,0,1.226-.837Zm.01,4.354-.318-3.288-1.964,3.288Z" transform="translate(-471 -257.91)"/>
    <g>
      <path class="cls-3" d="M596.335,343.236a1.3,1.3,0,0,0,1.3-1.046c.02-.06.04-.1.13-.1.03,0,.129,0,.129.1a1.638,1.638,0,0,1-1.654,1.3,2.2,2.2,0,0,1-2.142-2.262,2.233,2.233,0,0,1,2.162-2.311c.767,0,1.525.388,1.525,1.066a.459.459,0,1,1-.917.01.45.45,0,0,1,.468-.459,1.625,1.625,0,0,0-1.066-.368c-.528,0-1.345.418-1.345,2.042C594.93,342.808,595.807,343.236,596.335,343.236Z" transform="translate(-471 -257.91)"/>
      <path class="cls-3" d="M600.688,343.485a2.225,2.225,0,0,1-2.2-2.242,2.21,2.21,0,1,1,4.414,0A2.219,2.219,0,0,1,600.688,343.485Zm1.166-.986a3.019,3.019,0,0,0,.22-1.335,2.73,2.73,0,0,0-.26-1.386,1.305,1.305,0,0,0-1.126-.647,1.336,1.336,0,0,0-1.135.667,2.852,2.852,0,0,0-.24,1.366,2.952,2.952,0,0,0,.25,1.4,1.3,1.3,0,0,0,1.136.668A1.285,1.285,0,0,0,601.854,342.5Z" transform="translate(-471 -257.91)"/>
    </g>
    <g>
      <path class="cls-3" d="M604,340.984a1.062,1.062,0,0,1-.429-.847c0-.558.379-1.225,1.6-1.225a1.542,1.542,0,0,1,.937.278,1.268,1.268,0,0,0,.169-.159c.129-.119.149-.119.2-.119.11,0,.11.069.11.239v1.006c0,.189,0,.239-.13.239-.02,0-.11,0-.119-.089a1.1,1.1,0,0,0-1.166-1.206c-.857,0-1.116.408-1.116.757,0,.578.667.707,1.225.817a2.029,2.029,0,0,1,1.136.478,1.286,1.286,0,0,1,.419.947c0,.717-.458,1.385-1.6,1.385a1.492,1.492,0,0,1-1.1-.428,2.252,2.252,0,0,0-.2.229c-.189.189-.2.2-.249.2-.11,0-.11-.069-.11-.239v-1.315c0-.18,0-.249.13-.249.1,0,.11.04.139.169.19.847.549,1.415,1.386,1.415.777,0,1.126-.4,1.126-.907,0-.717-.818-.877-1.037-.917A2.608,2.608,0,0,1,604,340.984Z" transform="translate(-471 -257.91)"/>
      <path class="cls-3" d="M610.274,345.867a4.309,4.309,0,0,1-1.554-1.874,7.679,7.679,0,0,1-.03-6.147,4.347,4.347,0,0,1,1.584-1.944.09.09,0,0,1,.1.1c0,.03,0,.05-.129.169a6.517,6.517,0,0,0-1.6,4.713,6.6,6.6,0,0,0,1.564,4.664c.169.169.169.189.169.219A.09.09,0,0,1,610.274,345.867Z" transform="translate(-471 -257.91)"/>
    </g>
    <path class="cls-3" d="M612.527,343.485c-.907,0-1.2-1.106-1.2-2.043,0-2.281,1.535-5.091,2.919-5.091,1.017,0,1.2,1.385,1.2,2.043C615.446,340.625,613.932,343.485,612.527,343.485Zm-.219-3.407a7.581,7.581,0,0,0-.319,1.972c0,.927.209,1.216.538,1.216.428,0,.807-.488,1.156-1.166a8.885,8.885,0,0,0,.7-2.022Zm2.162-.319a8.275,8.275,0,0,0,.319-1.983c0-.568-.06-1.206-.548-1.206-.449,0-.818.558-1.087,1.046a9.054,9.054,0,0,0-.767,2.143Z" transform="translate(-471 -257.91)"/>
    <path class="cls-3" d="M617.936,344.241c0,.23,0,.321.7.321h.265v.251c-.153-.007-1.032-.028-1.248-.028-.258,0-1.115.021-1.241.028v-.251h.265c.7,0,.7-.091.7-.321v-3.556a2.3,2.3,0,0,1-1.011.195v-.251a1.9,1.9,0,0,0,1.367-.446c.2,0,.209.007.209.195Z" transform="translate(-471 -257.91)"/>
    <path class="cls-3" d="M621.617,340.486a3.2,3.2,0,0,0,.16-.837c0-.329-.11-.459-.309-.459-.359,0-.558.479-.727,1.186-.06.22-.07.229-.17.229-.02,0-.119,0-.119-.1a5.007,5.007,0,0,1,.3-.966.872.872,0,0,1,.748-.569.9.9,0,0,1,.917.867,1.924,1.924,0,0,1,1.554-.867,1.019,1.019,0,0,1,1.146,1.067,8.974,8.974,0,0,1-.608,2.191,1.9,1.9,0,0,0-.179.708c0,.229.069.329.239.329.488,0,.817-.558,1.016-1.236.05-.149.05-.179.149-.179.03,0,.12,0,.12.1,0,.079-.369,1.534-1.3,1.534a.8.8,0,0,1-.818-.817,1.145,1.145,0,0,1,.1-.459,9.5,9.5,0,0,0,.647-2.321c0-.329-.09-.7-.538-.7a1.981,1.981,0,0,0-1.624,1.216c-.01.04-.09.329-.13.5-.05.23-.109.449-.169.668l-.219.9c-.06.249-.18.717-.19.737a.407.407,0,0,1-.368.279.266.266,0,0,1-.289-.269c0-.05.06-.279.09-.428Z" transform="translate(-471 -257.91)"/>
    <path class="cls-3" d="M632.4,343.874c0,.139,0,.329-.2.329s-.2-.19-.2-.329v-2.79h-2.79c-.139,0-.328,0-.328-.2s.189-.2.328-.2H632V337.9c0-.14,0-.33.2-.33s.2.19.2.33v2.789h2.78c.139,0,.329,0,.329.2s-.19.2-.329.2H632.4Z" transform="translate(-471 -257.91)"/>
    <path class="cls-3" d="M642.076,338.961a1.835,1.835,0,0,1,1.913,1.8,3.126,3.126,0,0,1-3.049,2.73l-.378,1.484a2.453,2.453,0,0,1-.11.4.116.116,0,0,1-.1.04c-.05,0-.119-.01-.119-.109,0-.03.1-.409.219-.877.08-.309.15-.628.229-.937a1.834,1.834,0,0,1-1.913-1.8,3.126,3.126,0,0,1,3.049-2.73l.578-2.3c.04-.17.05-.2.149-.2.12,0,.12.09.12.1s-.03.12-.03.14Zm-.319.22a2.7,2.7,0,0,0-2.341,2.72,1.294,1.294,0,0,0,1.315,1.375Zm-.767,4.1a2.706,2.706,0,0,0,2.351-2.72,1.29,1.29,0,0,0-1.325-1.375Z" transform="translate(-471 -257.91)"/>
    <path class="cls-3" d="M646.407,343.923a4.339,4.339,0,0,1-1.585,1.944.094.094,0,0,1-.1-.1c0-.03,0-.05.129-.169a6.535,6.535,0,0,0,1.605-4.714,6.463,6.463,0,0,0-1.545-4.653c-.189-.179-.189-.2-.189-.229a.094.094,0,0,1,.1-.1,4.3,4.3,0,0,1,1.555,1.874,7.679,7.679,0,0,1,.03,6.147Z" transform="translate(-471 -257.91)"/>
    <path class="cls-2" d="M715.846,353.948a2.627,2.627,0,0,1-2.331,2.032.942.942,0,0,1-1.057-.866.575.575,0,0,1,.559-.648.34.34,0,0,1,.368.349.539.539,0,0,1-.2.408.569.569,0,0,1-.429.12.807.807,0,0,0,.758.418,1.422,1.422,0,0,0,1.1-.627,3.821,3.821,0,0,0,.648-1.535,1.405,1.405,0,0,1-1.006.448,1.111,1.111,0,0,1-1.216-1.185,6.59,6.59,0,0,1,.578-2.092,2.11,2.11,0,0,0,.169-.7c0-.319-.169-.319-.249-.319-.339,0-.737.3-1.006,1.236-.049.159-.06.179-.16.179-.019,0-.119,0-.119-.1s.368-1.534,1.315-1.534a.789.789,0,0,1,.817.817,1.785,1.785,0,0,1-.2.717,5.94,5.94,0,0,0-.508,1.953c0,.369.109.808.618.808a1.384,1.384,0,0,0,1.125-.848l.449-1.793c.06-.269.129-.538.2-.8.039-.18.12-.489.14-.538a.43.43,0,0,1,.349-.209.266.266,0,0,1,.289.269.628.628,0,0,1-.04.229Z" transform="translate(-471 -257.91)"/>
    <path class="cls-2" d="M718.417,356.429v-9.964h1.365v.4h-.967v9.166h.967v.4Z" transform="translate(-471 -257.91)"/>
    <path class="cls-2" d="M721.454,351.048a3.22,3.22,0,0,0,.159-.837c0-.328-.109-.458-.308-.458-.36,0-.559.478-.728,1.186-.059.219-.07.229-.17.229-.019,0-.119,0-.119-.1a5.035,5.035,0,0,1,.3-.966.869.869,0,0,1,.747-.568.9.9,0,0,1,.917.867,1.922,1.922,0,0,1,1.555-.867,1.018,1.018,0,0,1,1.145,1.066,9.024,9.024,0,0,1-.607,2.192,1.893,1.893,0,0,0-.18.708c0,.229.069.329.239.329.489,0,.817-.558,1.016-1.236.051-.15.051-.179.15-.179.03,0,.119,0,.119.1,0,.08-.369,1.534-1.3,1.534a.8.8,0,0,1-.817-.817,1.132,1.132,0,0,1,.1-.458,9.511,9.511,0,0,0,.647-2.321c0-.329-.089-.7-.538-.7a1.984,1.984,0,0,0-1.624,1.216c-.009.04-.089.328-.13.5-.049.229-.109.449-.168.667l-.22.9c-.06.249-.179.718-.19.738a.405.405,0,0,1-.368.278.266.266,0,0,1-.289-.268c0-.05.06-.279.09-.429Z" transform="translate(-471 -257.91)"/>
    <g>
      <path class="cls-2" d="M727.583,356.429h-1.365v-.4h.967v-9.166h-.967v-.4h1.365Z" transform="translate(-471 -257.91)"/>
      <path class="cls-2" d="M732.415,350.68c-.149,0-.339,0-.339-.2s.19-.2.329-.2h5.969c.14,0,.328,0,.328.2s-.188.2-.338.2Zm-.01,1.933c-.139,0-.329,0-.329-.2s.19-.2.339-.2h5.949c.15,0,.338,0,.338.2s-.188.2-.328.2Z" transform="translate(-471 -257.91)"/>
    </g>
    <path class="cls-2" d="M741.661,351.806c0,.179,0,.269-.13.269s-.119-.06-.119-.24v-.448a3.44,3.44,0,0,1,.877-2.241,1.1,1.1,0,0,0,.338-.947c0-.389,0-1.066-1.086-1.066a1.479,1.479,0,0,0-1.305.677c.14,0,.558,0,.558.448a.459.459,0,1,1-.917-.019,1.511,1.511,0,0,1,1.694-1.325c1.485,0,1.883.767,1.883,1.344a1.228,1.228,0,0,1-.477.977,2.805,2.805,0,0,0-1.316,2.222Zm-.13,2.132a.528.528,0,1,1,.529-.528A.531.531,0,0,1,741.531,353.938Z" transform="translate(-471 -257.91)"/>
    <g>
      <path class="cls-2" d="M666.92,350.373h-.249c-.159-1.375-.408-1.933-1.9-1.933h-1.2c-.468,0-.488.07-.488.4v2.52h.857c.956,0,1.056-.328,1.056-1.165h.25v2.64H665c0-.847-.1-1.166-1.056-1.166h-.857v2.452c0,.348,0,.478.947.478h.328v.309c-.358-.03-1.265-.03-1.673-.03-.389,0-1.166,0-1.515.03V354.6h.239c.767,0,.787-.11.787-.469v-5.221c0-.358-.02-.468-.787-.468h-.239v-.309h5.47Z" transform="translate(-471 -257.91)"/>
      <path class="cls-2" d="M669.56,354.129c0,.359.03.469.817.469h.259v.309c-.349-.03-1.136-.03-1.525-.03s-1.165,0-1.514.03V354.6h.259c.787,0,.817-.11.817-.469v-5.251c0-.358-.03-.468-.817-.468H667.6V348.1c.349.029,1.136.029,1.525.029s1.165,0,1.514-.029v.308h-.259c-.787,0-.817.11-.817.468Z" transform="translate(-471 -257.91)"/>
    </g>
    <path class="cls-2" d="M676.47,352.675l.13.8c.139.926.219,1.435.707,1.435.25,0,.6-.179.658-.887.01-.07.01-.16.119-.16.13,0,.13.11.13.17,0,.279-.17,1.1-.946,1.1a1.944,1.944,0,0,1-1.256-.418c-.408-.379-.408-.778-.408-1.425,0-.668,0-.977-.379-1.336a1.272,1.272,0,0,0-.927-.338h-1.146v2.52c0,.359.02.469.787.469h.24v.309c-.359-.03-1.067-.03-1.455-.03s-1.1,0-1.455.03V354.6h.239c.767,0,.787-.11.787-.469v-5.251c0-.358-.02-.468-.787-.468h-.239V348.1H674.4c1.465,0,2.6.836,2.6,1.793,0,.777-.778,1.385-1.744,1.624A1.726,1.726,0,0,1,676.47,352.675Zm-2.212-1.285c1.475,0,1.714-.807,1.714-1.5,0-1.445-1.116-1.485-2.013-1.485a4.841,4.841,0,0,0-.587.02c-.22.03-.22.15-.22.379v2.581Z" transform="translate(-471 -257.91)"/>
    <polygon class="cls-1" points="184.124 93.612 184.124 79.439 212.471 79.439 212.471 107.785 184.124 107.785 184.124 93.612"/>
    <polyline points="229.365 95.88 233.9 93.612 229.365 91.344 230.499 93.612"/>
    <line class="cls-1" x1="212.641" y1="93.612" x2="230.499" y2="93.612"/>
    <polyline points="59.457 230.525 63.993 228.257 59.457 225.989 60.591 228.257"/>
    <path class="cls-1" d="M506.646,486.167h24.945m31.748,0H669.3" transform="translate(-471 -257.91)"/>
    <g>
      <path class="cls-2" d="M546.561,485.006h-.249c-.16-1.375-.409-1.934-1.9-1.934h-1.2c-.468,0-.488.071-.488.4v2.521h.857c.956,0,1.056-.328,1.056-1.166h.249v2.641h-.249c0-.848-.1-1.166-1.056-1.166h-.857v2.451c0,.35,0,.478.946.478H544v.309c-.358-.029-1.265-.029-1.674-.029-.388,0-1.165,0-1.514.029v-.309h.239c.767,0,.787-.109.787-.468v-5.221c0-.359-.02-.469-.787-.469h-.239v-.308h5.47Z" transform="translate(-471 -257.91)"/>
      <path class="cls-2" d="M549.2,488.762c0,.359.03.468.818.468h.258v.309c-.348-.029-1.135-.029-1.524-.029s-1.166,0-1.515.029v-.309h.26c.787,0,.816-.109.816-.468v-5.25c0-.36-.029-.469-.816-.469h-.26v-.309c.349.03,1.137.03,1.525.03s1.166,0,1.514-.03v.309h-.258c-.788,0-.818.109-.818.469Z" transform="translate(-471 -257.91)"/>
    </g>
    <path class="cls-2" d="M556.111,487.307l.13.8c.139.926.218,1.434.707,1.434.249,0,.6-.18.657-.887.011-.07.011-.158.12-.158.129,0,.129.11.129.168,0,.279-.169,1.1-.946,1.1a1.935,1.935,0,0,1-1.255-.418c-.409-.379-.409-.777-.409-1.424,0-.668,0-.977-.378-1.336a1.273,1.273,0,0,0-.927-.338h-1.146v2.52c0,.359.02.468.787.468h.239v.309c-.359-.029-1.066-.029-1.454-.029s-1.1,0-1.455.029v-.309h.239c.767,0,.787-.109.787-.468v-5.25c0-.36-.02-.469-.787-.469h-.239v-.309h3.129c1.464,0,2.6.836,2.6,1.793,0,.778-.777,1.385-1.743,1.625A1.73,1.73,0,0,1,556.111,487.307Zm-2.212-1.286c1.475,0,1.714-.806,1.714-1.494,0-1.445-1.116-1.484-2.013-1.484a4.868,4.868,0,0,0-.588.02c-.219.031-.219.15-.219.378v2.58Z" transform="translate(-471 -257.91)"/>
    <path class="cls-1" d="M534.823,486.167V471.994h28.346V500.34H534.823ZM676.617,464.7a7.257,7.257,0,1,0-7.257,7.257,7.259,7.259,0,0,0,7.257-7.257Zm-10.863.208h7.087m-3.543,3.543v-7.087" transform="translate(-471 -257.91)"/>
    <polyline points="222.108 209.265 226.644 206.997 222.108 204.73 223.242 206.997"/>
    <line class="cls-1" x1="205.384" y1="206.997" x2="223.242" y2="206.997"/>
    <polyline points="196.03 195.375 198.298 199.911 200.565 195.375 198.298 196.509"/>
    <line class="cls-1" x1="198.298" y1="185.738" x2="198.298" y2="196.509"/>
    <polyline points="200.565 218.619 198.298 214.084 196.03 218.619 198.298 217.486"/>
    <line class="cls-1" x1="198.298" y1="228.257" x2="198.298" y2="217.486"/>
    <path class="cls-2" d="M712.244,468.791a2.626,2.626,0,0,1-2.331,2.033.943.943,0,0,1-1.057-.867.574.574,0,0,1,.559-.646.338.338,0,0,1,.368.347.534.534,0,0,1-.2.408.563.563,0,0,1-.429.122.805.805,0,0,0,.758.417,1.427,1.427,0,0,0,1.1-.628,3.823,3.823,0,0,0,.647-1.534,1.4,1.4,0,0,1-1.006.448,1.111,1.111,0,0,1-1.215-1.186,6.575,6.575,0,0,1,.578-2.092,2.129,2.129,0,0,0,.169-.7c0-.318-.169-.318-.249-.318-.339,0-.738.3-1.006,1.234-.05.16-.061.18-.16.18-.02,0-.12,0-.12-.1s.369-1.535,1.316-1.535a.79.79,0,0,1,.816.818,1.781,1.781,0,0,1-.2.717,5.934,5.934,0,0,0-.508,1.953c0,.369.11.807.618.807a1.38,1.38,0,0,0,1.125-.848l.45-1.793c.059-.269.129-.537.2-.8.039-.179.119-.488.14-.537a.431.431,0,0,1,.348-.211.267.267,0,0,1,.289.27.629.629,0,0,1-.04.23Z" transform="translate(-471 -257.91)"/>
    <path class="cls-2" d="M714.815,471.273v-9.964h1.366v.4h-.967v9.168h.967v.4Z" transform="translate(-471 -257.91)"/>
    <path class="cls-2" d="M717.853,465.893a3.278,3.278,0,0,0,.159-.838c0-.328-.11-.457-.309-.457-.359,0-.558.476-.727,1.185-.06.219-.071.229-.17.229-.02,0-.119,0-.119-.1a5.074,5.074,0,0,1,.3-.967.871.871,0,0,1,.747-.568.9.9,0,0,1,.917.867,1.929,1.929,0,0,1,1.555-.867,1.018,1.018,0,0,1,1.146,1.066,9.009,9.009,0,0,1-.608,2.194,1.882,1.882,0,0,0-.179.707c0,.228.069.328.239.328.488,0,.816-.559,1.015-1.234.051-.151.051-.18.151-.18.029,0,.119,0,.119.1,0,.081-.369,1.534-1.306,1.534a.8.8,0,0,1-.816-.817,1.154,1.154,0,0,1,.1-.459,9.446,9.446,0,0,0,.648-2.32c0-.33-.09-.7-.538-.7a1.982,1.982,0,0,0-1.624,1.215c-.01.039-.09.328-.13.5-.05.228-.109.449-.169.668l-.22.9c-.059.25-.178.717-.189.738a.4.4,0,0,1-.368.278.266.266,0,0,1-.289-.268c0-.051.059-.279.089-.43Z" transform="translate(-471 -257.91)"/>
    <g>
      <path class="cls-2" d="M723.981,471.273h-1.365v-.4h.967v-9.168h-.967v-.4h1.365Z" transform="translate(-471 -257.91)"/>
      <path class="cls-2" d="M728.693,465.523c-.149,0-.339,0-.339-.2s.19-.2.33-.2h5.968c.14,0,.328,0,.328.2s-.188.2-.337.2Zm-.009,1.934c-.14,0-.33,0-.33-.2s.19-.2.339-.2h5.95c.149,0,.337,0,.337.2s-.188.2-.328.2Z" transform="translate(-471 -257.91)"/>
    </g>
    <path class="cls-4" d="M739.942,470.914c0,.18,0,.359-.2.359s-.2-.179-.2-.359v-9.246c0-.18,0-.359.2-.359s.2.179.2.359Z" transform="translate(-471 -257.91)"/>
    <path class="cls-4" d="M747.374,468.125a.9.9,0,0,0-.03.168c0,.18.279.18.647.18.19,0,.28,0,.28.109,0,.2-.121.2-.2.2-.209,0-.428-.019-.647-.019s-.429-.01-.638-.01c-.279,0-.987.029-1.265.029-.021,0-.14,0-.14-.109,0-.2.09-.2.239-.2.617,0,.807-.01.906-.328.04-.151.27-1.1.688-2.75h-3.039l-.677,2.73a.9.9,0,0,0-.03.168c0,.18.279.18.647.18.19,0,.28,0,.28.109,0,.2-.121.2-.2.2-.21,0-.428-.019-.647-.019s-.429-.01-.638-.01c-.279,0-.987.029-1.265.029-.021,0-.14,0-.14-.109,0-.2.09-.2.268-.2.788,0,.808-.08.908-.469l1.335-5.35a.871.871,0,0,0,.04-.189c0-.129-.09-.141-.27-.16a3.6,3.6,0,0,0-.378-.02c-.189,0-.279,0-.279-.109,0-.2.109-.2.189-.2.289,0,1,.029,1.286.029s1-.029,1.275-.029c.03,0,.14,0,.14.109,0,.2-.081.2-.339.2-.718,0-.747.1-.837.459l-.588,2.342h3.039l.6-2.432a1.042,1.042,0,0,0,.04-.189c0-.129-.09-.141-.27-.16a3.6,3.6,0,0,0-.378-.02c-.189,0-.279,0-.279-.109,0-.2.109-.2.189-.2.289,0,1,.029,1.285.029s1-.029,1.276-.029c.03,0,.14,0,.14.109,0,.2-.081.2-.339.2-.728,0-.747.1-.837.459Z" transform="translate(-471 -257.91)"/>
    <g>
      <path class="cls-4" d="M753.432,471.273a4.3,4.3,0,0,1-1.554-1.873,7.671,7.671,0,0,1-.03-6.148,4.334,4.334,0,0,1,1.584-1.943.089.089,0,0,1,.1.1c0,.03,0,.051-.129.17a6.52,6.52,0,0,0-1.6,4.713,6.6,6.6,0,0,0,1.564,4.662c.169.17.169.19.169.221A.09.09,0,0,1,753.432,471.273Z" transform="translate(-471 -257.91)"/>
      <path class="cls-4" d="M755.475,467.975a1.339,1.339,0,0,0,1.126.668,1.4,1.4,0,0,0,1.344-1.028c.02-.078.04-.138.13-.138a.115.115,0,0,1,.129.119,1.7,1.7,0,0,1-1.664,1.3,2.248,2.248,0,0,1-2.191-2.3,2.177,2.177,0,0,1,2.072-2.272,1.767,1.767,0,0,1,1.783,1.953c0,.209-.029.209-.249.209h-2.779A2.9,2.9,0,0,0,755.475,467.975Zm2.072-1.7c0-.388-.1-1.734-1.126-1.734-.339,0-1.176.25-1.235,1.734Z" transform="translate(-471 -257.91)"/>
    </g>
    <path class="cls-4" d="M760.615,465.67a1.434,1.434,0,0,1-1.365,1.545c-.568,0-1.126-.279-1.126-.8a.459.459,0,1,1,.917,0,.461.461,0,0,1-.35.449,1.22,1.22,0,0,0,.538.129c.638,0,.728-.857.728-1.305v-3.947c0-.488-.09-.556-.856-.556v-.311l1.514-.109Zm-.528-6.107a.529.529,0,1,1,.528-.528A.531.531,0,0,1,760.087,459.563Z" transform="translate(-471 -257.91)"/>
    <path class="cls-4" d="M762.924,465.242c-.642,0-.962-.683-.962-1.513,0-1.6,1.115-3.465,2.161-3.465.684,0,.963.781.963,1.513C765.086,463.338,763.984,465.242,762.924,465.242Zm-.237-2.363a5.327,5.327,0,0,0-.2,1.262c0,.377.064.906.447.906.307,0,.586-.328.8-.69a4.99,4.99,0,0,0,.565-1.478Zm1.673-.252a5.517,5.517,0,0,0,.2-1.262c0-.133,0-.906-.447-.906-.411,0-1.011.662-1.366,2.168Z" transform="translate(-471 -257.91)"/>
    <path class="cls-4" d="M767.346,465.713c0,.154,0,.209.527.209h.249v.219c-.273-.02-.717-.02-1-.02s-.731,0-1,.02v-.219h.249c.528,0,.528-.055.528-.209v-2.486a2.006,2.006,0,0,1-.727.138h-.085v-.219h.085a1.588,1.588,0,0,0,1-.318c.164,0,.179,0,.179.149Z" transform="translate(-471 -257.91)"/>
    <path class="cls-4" d="M771.931,469.33a4.341,4.341,0,0,1-1.584,1.943.094.094,0,0,1-.1-.1c0-.031,0-.051.129-.17a6.538,6.538,0,0,0,1.6-4.713,6.468,6.468,0,0,0-1.544-4.654c-.189-.178-.189-.2-.189-.229a.093.093,0,0,1,.1-.1,4.3,4.3,0,0,1,1.553,1.873,7.665,7.665,0,0,1,.031,6.148Z" transform="translate(-471 -257.91)"/>
    <path class="cls-4" d="M775.106,470.914c0,.18,0,.359-.2.359s-.2-.179-.2-.359v-9.246c0-.18,0-.359.2-.359s.2.179.2.359Z" transform="translate(-471 -257.91)"/>
    <path class="cls-2" d="M779.946,466.818a.528.528,0,1,1,.529-.527A.531.531,0,0,1,779.946,466.818Z" transform="translate(-471 -257.91)"/>
    <path class="cls-3" d="M788.852,461.816c.059-.1.1-.168.258-.168s.17.04.19.239l.608,6.226c.03.289.03.36.648.36.129,0,.228,0,.228.109,0,.2-.119.2-.179.2-.249,0-.876-.029-1.126-.029-.408,0-.836.029-1.246.029-.019,0-.138,0-.138-.109,0-.2.1-.2.238-.2.2,0,.718-.03.718-.328,0-.1-.14-1.456-.159-1.665h-2.5l-.758,1.276a.774.774,0,0,0-.139.369c0,.248.238.328.468.348.07,0,.159.009.159.119,0,.189-.129.189-.188.189-.32,0-.668-.029-1-.029-.279,0-.588.029-.857.029a.116.116,0,0,1-.13-.109c0-.19.09-.19.209-.2a1.411,1.411,0,0,0,1.226-.836Zm.009,4.356-.318-3.289-1.963,3.289Z" transform="translate(-471 -257.91)"/>
    <g>
      <path class="cls-3" d="M795.288,468.643a1.3,1.3,0,0,0,1.306-1.047.116.116,0,0,1,.13-.1c.029,0,.129,0,.129.1a1.64,1.64,0,0,1-1.654,1.3,2.206,2.206,0,0,1-2.142-2.262,2.234,2.234,0,0,1,2.162-2.311c.767,0,1.524.389,1.524,1.067a.435.435,0,0,1-.458.467.44.44,0,0,1-.459-.457.45.45,0,0,1,.469-.459,1.622,1.622,0,0,0-1.066-.37c-.529,0-1.345.42-1.345,2.043C793.884,468.213,794.761,468.643,795.288,468.643Z" transform="translate(-471 -257.91)"/>
      <path class="cls-3" d="M799.643,468.891a2.224,2.224,0,0,1-2.2-2.241,2.21,2.21,0,1,1,4.414,0A2.22,2.22,0,0,1,799.643,468.891Zm1.165-.987a3.023,3.023,0,0,0,.219-1.334,2.738,2.738,0,0,0-.258-1.384,1.305,1.305,0,0,0-1.126-.649,1.336,1.336,0,0,0-1.137.668,2.869,2.869,0,0,0-.238,1.365,2.967,2.967,0,0,0,.249,1.405,1.3,1.3,0,0,0,1.135.668A1.284,1.284,0,0,0,800.808,467.9Z" transform="translate(-471 -257.91)"/>
    </g>
    <g>
      <path class="cls-3" d="M802.951,466.391a1.064,1.064,0,0,1-.428-.848c0-.557.378-1.225,1.594-1.225a1.53,1.53,0,0,1,.937.28,1.615,1.615,0,0,0,.17-.16c.129-.12.149-.12.2-.12.109,0,.109.069.109.239v1.006c0,.189,0,.24-.13.24a.107.107,0,0,1-.119-.09,1.1,1.1,0,0,0-1.166-1.205c-.856,0-1.116.408-1.116.756,0,.578.668.709,1.226.818a2.019,2.019,0,0,1,1.136.479,1.284,1.284,0,0,1,.418.945c0,.719-.458,1.385-1.6,1.385a1.491,1.491,0,0,1-1.1-.428,2.135,2.135,0,0,0-.2.228c-.19.19-.2.2-.249.2-.11,0-.11-.069-.11-.239v-1.314c0-.18,0-.25.129-.25.1,0,.111.039.14.17.189.846.548,1.414,1.385,1.414.777,0,1.126-.4,1.126-.906,0-.717-.817-.877-1.036-.916A2.635,2.635,0,0,1,802.951,466.391Z" transform="translate(-471 -257.91)"/>
      <path class="cls-3" d="M809.229,471.273a4.3,4.3,0,0,1-1.554-1.873,7.671,7.671,0,0,1-.03-6.148,4.327,4.327,0,0,1,1.584-1.943.089.089,0,0,1,.1.1c0,.03,0,.051-.129.17a6.52,6.52,0,0,0-1.6,4.713,6.6,6.6,0,0,0,1.564,4.662c.169.17.169.19.169.221A.09.09,0,0,1,809.229,471.273Z" transform="translate(-471 -257.91)"/>
    </g>
    <path class="cls-3" d="M811.488,468.891c-.907,0-1.2-1.106-1.2-2.041,0-2.284,1.534-5.092,2.919-5.092,1.017,0,1.2,1.385,1.2,2.041C814.407,466.031,812.894,468.891,811.488,468.891Zm-.219-3.407a7.625,7.625,0,0,0-.319,1.973c0,.926.209,1.215.538,1.215.429,0,.807-.488,1.156-1.166a9.012,9.012,0,0,0,.7-2.022Zm2.163-.32a8.3,8.3,0,0,0,.318-1.982c0-.569-.06-1.205-.548-1.205-.448,0-.817.558-1.086,1.046a9.041,9.041,0,0,0-.767,2.141Z" transform="translate(-471 -257.91)"/>
    <path class="cls-3" d="M816.9,469.646c0,.231,0,.323.7.323h.265v.25c-.154-.006-1.032-.028-1.249-.028-.257,0-1.115.022-1.241.028v-.25h.266c.7,0,.7-.092.7-.323v-3.554a2.3,2.3,0,0,1-1.012.195v-.252a1.912,1.912,0,0,0,1.367-.445c.2,0,.209.006.209.2Z" transform="translate(-471 -257.91)"/>
    <path class="cls-3" d="M820.579,465.893a3.232,3.232,0,0,0,.159-.838c0-.328-.109-.457-.308-.457-.36,0-.559.476-.728,1.185-.059.219-.07.229-.17.229-.019,0-.119,0-.119-.1a5.1,5.1,0,0,1,.3-.967.871.871,0,0,1,.747-.568.9.9,0,0,1,.917.867,1.927,1.927,0,0,1,1.555-.867,1.018,1.018,0,0,1,1.145,1.066,9.052,9.052,0,0,1-.607,2.194,1.883,1.883,0,0,0-.18.707c0,.228.069.328.239.328.489,0,.817-.559,1.016-1.234.051-.151.051-.18.15-.18.03,0,.119,0,.119.1,0,.081-.369,1.534-1.3,1.534a.8.8,0,0,1-.817-.817,1.142,1.142,0,0,1,.1-.459,9.49,9.49,0,0,0,.647-2.32c0-.33-.089-.7-.538-.7a1.983,1.983,0,0,0-1.624,1.215c-.009.039-.089.328-.13.5-.049.228-.109.449-.168.668l-.22.9c-.06.25-.179.717-.19.738a.4.4,0,0,1-.368.278.267.267,0,0,1-.289-.268c0-.051.06-.279.09-.43Z" transform="translate(-471 -257.91)"/>
    <path class="cls-3" d="M831.355,469.279c0,.141,0,.33-.2.33s-.2-.189-.2-.33V466.49h-2.79c-.14,0-.329,0-.329-.2s.189-.2.329-.2h2.79V463.3c0-.139,0-.328.2-.328s.2.189.2.328v2.791h2.781c.139,0,.328,0,.328.2s-.189.2-.328.2h-2.781Z" transform="translate(-471 -257.91)"/>
    <path class="cls-3" d="M841.037,464.367a1.835,1.835,0,0,1,1.913,1.805A3.123,3.123,0,0,1,839.9,468.9l-.378,1.487a2.421,2.421,0,0,1-.11.4.117.117,0,0,1-.1.039c-.049,0-.119-.01-.119-.109,0-.029.1-.408.219-.877.08-.309.15-.627.23-.938a1.832,1.832,0,0,1-1.914-1.8,3.126,3.126,0,0,1,3.049-2.731l.578-2.3c.04-.17.05-.2.15-.2.119,0,.119.09.119.1s-.029.119-.029.138Zm-.318.219a2.7,2.7,0,0,0-2.342,2.721,1.294,1.294,0,0,0,1.315,1.375Zm-.768,4.1a2.7,2.7,0,0,0,2.352-2.719,1.292,1.292,0,0,0-1.325-1.377Z" transform="translate(-471 -257.91)"/>
    <path class="cls-4" d="M847.191,469.279c0,.141,0,.33-.2.33s-.2-.189-.2-.33V466.49H844c-.14,0-.329,0-.329-.2s.189-.2.329-.2h2.79V463.3c0-.139,0-.328.2-.328s.2.189.2.328v2.791h2.781c.139,0,.328,0,.328.2s-.189.2-.328.2h-2.781Z" transform="translate(-471 -257.91)"/>
    <path class="cls-4" d="M852.108,468.383h5.082c.169,0,.349,0,.349.2s-.18.2-.349.2h-5.36c-.17,0-.359,0-.359-.2,0-.08.03-.109.12-.209l5.53-6.367c.1-.11.159-.139.219-.139a.2.2,0,0,1,.2.2c0,.039,0,.09-.109.209Z" transform="translate(-471 -257.91)"/>
    <path class="cls-4" d="M864.374,468.125a.9.9,0,0,0-.03.168c0,.18.279.18.647.18.19,0,.28,0,.28.109,0,.2-.121.2-.2.2-.209,0-.428-.019-.647-.019s-.429-.01-.638-.01c-.279,0-.987.029-1.265.029-.021,0-.14,0-.14-.109,0-.2.09-.2.239-.2.617,0,.807-.01.906-.328.04-.151.27-1.1.688-2.75h-3.039l-.677,2.73a.9.9,0,0,0-.03.168c0,.18.279.18.647.18.19,0,.28,0,.28.109,0,.2-.121.2-.2.2-.21,0-.428-.019-.647-.019s-.429-.01-.638-.01c-.279,0-.987.029-1.265.029-.021,0-.14,0-.14-.109,0-.2.09-.2.268-.2.788,0,.808-.08.908-.469l1.335-5.35a.871.871,0,0,0,.04-.189c0-.129-.09-.141-.27-.16a3.6,3.6,0,0,0-.378-.02c-.189,0-.279,0-.279-.109,0-.2.109-.2.189-.2.289,0,1,.029,1.286.029s1-.029,1.275-.029c.03,0,.14,0,.14.109,0,.2-.081.2-.339.2-.718,0-.747.1-.837.459l-.588,2.342h3.039l.6-2.432a1.042,1.042,0,0,0,.04-.189c0-.129-.09-.141-.27-.16a3.6,3.6,0,0,0-.378-.02c-.189,0-.279,0-.279-.109,0-.2.109-.2.189-.2.289,0,1,.029,1.285.029s1-.029,1.276-.029c.03,0,.14,0,.14.109,0,.2-.081.2-.339.2-.728,0-.747.1-.837.459Z" transform="translate(-471 -257.91)"/>
    <g>
      <path class="cls-4" d="M870.432,471.273a4.3,4.3,0,0,1-1.554-1.873,7.671,7.671,0,0,1-.03-6.148,4.334,4.334,0,0,1,1.584-1.943.089.089,0,0,1,.1.1c0,.03,0,.051-.129.17a6.52,6.52,0,0,0-1.6,4.713,6.6,6.6,0,0,0,1.564,4.662c.169.17.169.19.169.221A.09.09,0,0,1,870.432,471.273Z" transform="translate(-471 -257.91)"/>
      <path class="cls-4" d="M872.475,467.975a1.339,1.339,0,0,0,1.126.668,1.4,1.4,0,0,0,1.344-1.028c.02-.078.04-.138.13-.138a.115.115,0,0,1,.129.119,1.7,1.7,0,0,1-1.664,1.3,2.248,2.248,0,0,1-2.191-2.3,2.177,2.177,0,0,1,2.072-2.272,1.767,1.767,0,0,1,1.783,1.953c0,.209-.029.209-.249.209h-2.779A2.9,2.9,0,0,0,872.475,467.975Zm2.072-1.7c0-.388-.1-1.734-1.126-1.734-.339,0-1.176.25-1.235,1.734Z" transform="translate(-471 -257.91)"/>
    </g>
    <path class="cls-4" d="M877.615,465.67a1.434,1.434,0,0,1-1.365,1.545c-.568,0-1.126-.279-1.126-.8a.459.459,0,1,1,.917,0,.461.461,0,0,1-.35.449,1.22,1.22,0,0,0,.538.129c.638,0,.728-.857.728-1.305v-3.947c0-.488-.09-.556-.856-.556v-.311l1.514-.109Zm-.528-6.107a.529.529,0,1,1,.528-.528A.531.531,0,0,1,877.087,459.563Z" transform="translate(-471 -257.91)"/>
    <path class="cls-4" d="M879.924,465.242c-.642,0-.962-.683-.962-1.513,0-1.6,1.115-3.465,2.161-3.465.684,0,.963.781.963,1.513C882.086,463.338,880.984,465.242,879.924,465.242Zm-.237-2.363a5.327,5.327,0,0,0-.2,1.262c0,.377.064.906.447.906.307,0,.586-.328.8-.69a4.99,4.99,0,0,0,.565-1.478Zm1.673-.252a5.517,5.517,0,0,0,.2-1.262c0-.133,0-.906-.447-.906-.411,0-1.011.662-1.366,2.168Z" transform="translate(-471 -257.91)"/>
    <path class="cls-4" d="M884.338,465.713c0,.154,0,.209.527.209h.249v.219c-.273-.02-.717-.02-1-.02s-.731,0-1,.02v-.219h.25c.527,0,.527-.055.527-.209v-2.486a2,2,0,0,1-.727.138h-.085v-.219h.085a1.586,1.586,0,0,0,1-.318c.164,0,.179,0,.179.149Z" transform="translate(-471 -257.91)"/>
    <path class="cls-4" d="M888.938,469.33a4.327,4.327,0,0,1-1.584,1.943.094.094,0,0,1-.1-.1c0-.031,0-.051.129-.17a6.538,6.538,0,0,0,1.6-4.713,6.464,6.464,0,0,0-1.545-4.654c-.188-.178-.188-.2-.188-.229a.093.093,0,0,1,.1-.1,4.3,4.3,0,0,1,1.554,1.873,7.671,7.671,0,0,1,.03,6.148Z" transform="translate(-471 -257.91)"/>
    <path class="cls-2" d="M892.892,469.33a4.341,4.341,0,0,1-1.584,1.943.094.094,0,0,1-.1-.1c0-.031,0-.051.129-.17a6.538,6.538,0,0,0,1.6-4.713,6.464,6.464,0,0,0-1.545-4.654c-.188-.178-.188-.2-.188-.229a.093.093,0,0,1,.1-.1,4.3,4.3,0,0,1,1.553,1.873,7.665,7.665,0,0,1,.031,6.148Z" transform="translate(-471 -257.91)"/>
    <polyline points="59.457 188.005 63.993 185.738 59.457 183.47 60.591 185.738"/>
    <path class="cls-1" d="M506.646,443.648h24.945m31.748,0H669.3" transform="translate(-471 -257.91)"/>
    <g>
      <path class="cls-2" d="M546.561,442.529h-.249c-.16-1.375-.409-1.933-1.9-1.933h-1.2c-.468,0-.488.07-.488.4v2.522h.857c.956,0,1.056-.328,1.056-1.166h.249v2.64h-.249c0-.847-.1-1.166-1.056-1.166h-.857v2.451c0,.35,0,.479.946.479H544v.309c-.358-.03-1.265-.03-1.674-.03-.388,0-1.165,0-1.514.03v-.309h.239c.767,0,.787-.109.787-.469v-5.221c0-.359-.02-.468-.787-.468h-.239v-.309h5.47Z" transform="translate(-471 -257.91)"/>
      <path class="cls-2" d="M549.2,446.285c0,.36.03.469.818.469h.258v.309c-.348-.03-1.135-.03-1.524-.03s-1.166,0-1.515.03v-.309h.26c.787,0,.816-.109.816-.469v-5.25c0-.359-.029-.469-.816-.469h-.26v-.308c.349.029,1.137.029,1.525.029s1.166,0,1.514-.029v.308h-.258c-.788,0-.818.11-.818.469Z" transform="translate(-471 -257.91)"/>
    </g>
    <path class="cls-2" d="M556.111,444.83l.13.8c.139.926.218,1.434.707,1.434.249,0,.6-.18.657-.887.011-.071.011-.158.12-.158.129,0,.129.109.129.168,0,.279-.169,1.1-.946,1.1a1.93,1.93,0,0,1-1.255-.418c-.409-.379-.409-.777-.409-1.424,0-.668,0-.976-.378-1.335a1.273,1.273,0,0,0-.927-.338h-1.146v2.519c0,.36.02.469.787.469h.239v.309c-.359-.03-1.066-.03-1.454-.03s-1.1,0-1.455.03v-.309h.239c.767,0,.787-.109.787-.469v-5.25c0-.359-.02-.469-.787-.469h-.239v-.308h3.129c1.464,0,2.6.836,2.6,1.793,0,.777-.777,1.385-1.743,1.625A1.727,1.727,0,0,1,556.111,444.83Zm-2.212-1.285c1.475,0,1.714-.807,1.714-1.494,0-1.446-1.116-1.485-2.013-1.485a4.868,4.868,0,0,0-.588.02c-.219.031-.219.15-.219.379v2.58Z" transform="translate(-471 -257.91)"/>
    <polygon class="cls-1" points="63.823 185.738 63.823 171.565 92.169 171.565 92.169 199.911 63.823 199.911 63.823 185.738"/>
    <path class="cls-2" d="M479.577,431.967c0,.23,0,.322.7.322h.265v.25c-.153-.006-1.032-.027-1.248-.027-.258,0-1.116.021-1.241.027v-.25h.264c.7,0,.7-.092.7-.322v-3.555a2.3,2.3,0,0,1-1.011.2v-.252a1.908,1.908,0,0,0,1.367-.445c.195,0,.209.006.209.195Z" transform="translate(-471 -257.91)"/>
    <polyline points="6.24 176.31 10.32 176.31 10.32 175.83 6.24 175.83"/>
    <path class="cls-2" d="M480.553,439.852H477.68c0-.2,0-.209.07-.272l1.68-1.66a2.116,2.116,0,0,0,.656-1.338,1.045,1.045,0,0,0-1.06-1.109,1.1,1.1,0,0,0-1.018.648c.363,0,.411.244.411.369a.37.37,0,1,1-.739-.019,1.351,1.351,0,0,1,1.45-1.248,1.459,1.459,0,0,1,1.632,1.359,2.018,2.018,0,0,1-1,1.506c-.418.328-.662.523-1.394,1.172h1.282a3.512,3.512,0,0,0,.691-.043,1.613,1.613,0,0,0,.181-.635h.237Z" transform="translate(-471 -257.91)"/>
    <path class="cls-2" d="M487.648,429.41c.06-.1.1-.168.259-.168s.17.039.189.238l.608,6.227c.03.289.03.359.648.359.129,0,.229,0,.229.11,0,.2-.12.2-.179.2-.25,0-.877-.029-1.126-.029-.409,0-.837.029-1.246.029-.02,0-.139,0-.139-.109,0-.2.1-.2.239-.2.2,0,.717-.029.717-.328,0-.1-.139-1.455-.159-1.664h-2.5l-.757,1.276a.763.763,0,0,0-.14.369c0,.248.239.328.468.347.07,0,.16.01.16.12,0,.189-.129.189-.189.189-.319,0-.668-.029-1-.029-.279,0-.588.029-.857.029a.115.115,0,0,1-.129-.109c0-.19.089-.19.209-.2a1.409,1.409,0,0,0,1.226-.836Zm.01,4.356-.319-3.289-1.963,3.289Z" transform="translate(-471 -257.91)"/>
    <path class="cls-2" d="M491.247,435.568a1.341,1.341,0,0,0,1.126.668,1.4,1.4,0,0,0,1.345-1.027c.02-.078.04-.139.13-.139a.116.116,0,0,1,.13.119,1.7,1.7,0,0,1-1.665,1.295,2.247,2.247,0,0,1-2.192-2.3,2.178,2.178,0,0,1,2.073-2.272,1.768,1.768,0,0,1,1.784,1.953c0,.209-.031.209-.25.209h-2.78A2.9,2.9,0,0,0,491.247,435.568Zm2.073-1.7c0-.388-.1-1.734-1.126-1.734-.339,0-1.176.25-1.236,1.734Z" transform="translate(-471 -257.91)"/>
    <path class="cls-2" d="M496.372,433.279a1.433,1.433,0,0,1-1.365,1.545c-.568,0-1.126-.279-1.126-.8a.459.459,0,1,1,.917,0,.462.462,0,0,1-.349.45,1.225,1.225,0,0,0,.538.128c.638,0,.727-.857.727-1.3v-3.947c0-.489-.089-.557-.856-.557v-.311l1.514-.109Zm-.528-6.107a.529.529,0,1,1,.528-.527A.531.531,0,0,1,495.844,427.172Z" transform="translate(-471 -257.91)"/>
    <path class="cls-2" d="M500.012,427.627a.117.117,0,0,1-.049.084,4.117,4.117,0,0,0-1.29,3.32,4.258,4.258,0,0,0,1.269,3.291c.049.049.07.063.07.1,0,.084-.084.084-.139.084a4.459,4.459,0,0,1,0-6.965C499.928,427.545,500.012,427.545,500.012,427.627Z" transform="translate(-471 -257.91)"/>
    <path class="cls-2" d="M501.924,432.844c-.642,0-.963-.684-.963-1.514,0-1.6,1.116-3.465,2.162-3.465.683,0,.962.781.962,1.514C504.085,430.939,502.983,432.844,501.924,432.844Zm-.237-2.364a5.327,5.327,0,0,0-.2,1.262c0,.377.063.906.447.906.306,0,.585-.328.8-.689a4.983,4.983,0,0,0,.565-1.479Zm1.673-.251a5.583,5.583,0,0,0,.2-1.262c0-.133,0-.906-.447-.906-.411,0-1.011.662-1.366,2.168Z" transform="translate(-471 -257.91)"/>
    <path class="cls-2" d="M506.346,433.314c0,.155,0,.209.527.209h.249v.219c-.274-.019-.717-.019-1-.019s-.732,0-1,.019v-.219h.249c.527,0,.527-.054.527-.209v-2.486a2.009,2.009,0,0,1-.726.139h-.085v-.219h.085a1.589,1.589,0,0,0,1-.318c.164,0,.179,0,.179.148Z" transform="translate(-471 -257.91)"/>
    <path class="cls-2" d="M509.275,431.441c.036-.152.105-.439.154-.627a3.071,3.071,0,0,0,.112-.578c0-.189-.049-.341-.23-.341-.272,0-.4.341-.51.751-.049.19-.055.209-.153.209-.021,0-.119,0-.119-.089a2.474,2.474,0,0,1,.251-.69.634.634,0,0,1,.552-.377.708.708,0,0,1,.746.635,1.482,1.482,0,0,1,1.178-.635c.369,0,.907.117.907.8a5.141,5.141,0,0,1-.37,1.346,1.383,1.383,0,0,0-.161.564c0,.147.029.244.175.244.279,0,.579-.285.739-.843.028-.076.035-.119.133-.119.02,0,.111,0,.111.091s-.307,1.067-1,1.067a.615.615,0,0,1-.662-.6.928.928,0,0,1,.1-.377,5.609,5.609,0,0,0,.412-1.484c0-.133-.008-.488-.412-.488a1.294,1.294,0,0,0-1.046.64,1.433,1.433,0,0,0-.293.629c-.035.16-.076.313-.118.467-.042.174-.119.494-.154.627a2.821,2.821,0,0,1-.125.431.339.339,0,0,1-.272.155.223.223,0,0,1-.237-.223,2.634,2.634,0,0,1,.069-.287Z" transform="translate(-471 -257.91)"/>
    <path class="cls-2" d="M516.352,433.338c0,.1,0,.26-.174.26s-.168-.168-.168-.26V431.2h-2.14c-.1,0-.258,0-.258-.174s.167-.168.258-.168h2.14v-2.14c0-.1,0-.258.175-.258s.167.168.167.258v2.14h2.134c.1,0,.258,0,.258.176s-.167.166-.258.166h-2.134Z" transform="translate(-471 -257.91)"/>
    <path class="cls-2" d="M522.26,429.691a1.4,1.4,0,0,1,1.492,1.291,2.267,2.267,0,0,1-2.287,1.875l-.293,1.172c-.035.147-.042.168-.146.168-.021,0-.111,0-.111-.084,0-.021.062-.279.146-.607.056-.217.105-.44.16-.654a1.4,1.4,0,0,1-1.492-1.291,2.252,2.252,0,0,1,2.287-1.875l.4-1.6c.027-.119.034-.154.139-.154.035,0,.118,0,.118.091Zm-.3.2a1.846,1.846,0,0,0-1.722,1.793.971.971,0,0,0,1.032.976Zm-.446,2.769a1.852,1.852,0,0,0,1.729-1.793.967.967,0,0,0-1.038-.976Z" transform="translate(-471 -257.91)"/>
    <path class="cls-2" d="M526.339,431.031a4.645,4.645,0,0,1-.509,2.147,3.092,3.092,0,0,1-1.206,1.332.082.082,0,0,1-.091-.084c0-.033.007-.041.125-.16a4.238,4.238,0,0,0,1.207-3.243,4.15,4.15,0,0,0-1.27-3.291c-.041-.048-.062-.07-.062-.105,0-.082.083-.082.132-.082A4.179,4.179,0,0,1,526.339,431.031Z" transform="translate(-471 -257.91)"/>
    <path class="cls-2" d="M473.342,495.686c0,.23,0,.322.7.322h.265v.25c-.154-.006-1.033-.028-1.248-.028-.259,0-1.116.022-1.242.028v-.25h.265c.7,0,.7-.092.7-.322v-3.555a2.3,2.3,0,0,1-1.01.2v-.252a1.911,1.911,0,0,0,1.366-.445c.2,0,.209.006.209.195Z" transform="translate(-471 -257.91)"/>
    <polyline points="0 240.03 4.08 240.03 4.08 239.55 0 239.55"/>
    <path class="cls-2" d="M474.319,503.578h-2.873c0-.195,0-.209.07-.271l1.68-1.661a2.116,2.116,0,0,0,.656-1.337,1.045,1.045,0,0,0-1.06-1.11,1.1,1.1,0,0,0-1.019.649c.363,0,.412.244.412.369a.37.37,0,1,1-.739-.02,1.351,1.351,0,0,1,1.45-1.248,1.46,1.46,0,0,1,1.632,1.36,2.017,2.017,0,0,1-1,1.5c-.419.329-.663.524-1.395,1.172h1.283a3.5,3.5,0,0,0,.69-.043,1.6,1.6,0,0,0,.182-.634h.237Z" transform="translate(-471 -257.91)"/>
    <path class="cls-2" d="M481.414,493.254c.06-.1.1-.168.259-.168s.169.039.189.238l.608,6.227c.03.289.03.359.648.359.129,0,.229,0,.229.11,0,.2-.12.2-.18.2-.249,0-.876-.03-1.125-.03-.409,0-.837.03-1.246.03-.02,0-.14,0-.14-.11,0-.2.1-.2.24-.2.2,0,.717-.029.717-.328,0-.1-.139-1.455-.159-1.664h-2.5l-.758,1.275a.774.774,0,0,0-.139.37c0,.248.239.328.468.347.07,0,.16.01.16.119,0,.19-.13.19-.19.19-.319,0-.667-.03-1-.03-.279,0-.588.03-.857.03a.116.116,0,0,1-.13-.11c0-.189.09-.189.21-.2a1.409,1.409,0,0,0,1.225-.836Zm.009,4.355-.318-3.289-1.963,3.289Z" transform="translate(-471 -257.91)"/>
    <path class="cls-2" d="M485.005,499.412a1.341,1.341,0,0,0,1.126.668,1.4,1.4,0,0,0,1.345-1.027c.02-.078.04-.139.129-.139a.116.116,0,0,1,.13.119,1.7,1.7,0,0,1-1.664,1.295,2.248,2.248,0,0,1-2.192-2.3,2.177,2.177,0,0,1,2.073-2.271,1.767,1.767,0,0,1,1.783,1.953c0,.209-.03.209-.249.209h-2.78A2.9,2.9,0,0,0,485.005,499.412Zm2.073-1.7c0-.389-.1-1.734-1.126-1.734-.339,0-1.176.25-1.236,1.734Z" transform="translate(-471 -257.91)"/>
    <path class="cls-2" d="M489.07,495.049c-.119,0-.279,0-.279-.174s.167-.168.279-.168h4.156c.118,0,.278,0,.278.176s-.167.166-.278.166Z" transform="translate(-471 -257.91)"/>
    <path class="cls-2" d="M496.372,497.123a1.434,1.434,0,0,1-1.365,1.545c-.568,0-1.126-.279-1.126-.8a.459.459,0,1,1,.917,0,.46.46,0,0,1-.349.449,1.217,1.217,0,0,0,.538.129c.638,0,.727-.857.727-1.3V493.2c0-.488-.089-.556-.856-.556v-.311l1.514-.109Zm-.528-6.107a.529.529,0,1,1,.528-.528A.531.531,0,0,1,495.844,491.016Z" transform="translate(-471 -257.91)"/>
    <path class="cls-2" d="M500.012,491.479c0,.035-.021.056-.049.084a4.116,4.116,0,0,0-1.29,3.32,4.259,4.259,0,0,0,1.269,3.291c.049.049.07.062.07.1,0,.084-.084.084-.139.084a4.459,4.459,0,0,1,0-6.965C499.928,491.4,500.012,491.4,500.012,491.479Z" transform="translate(-471 -257.91)"/>
    <path class="cls-2" d="M501.924,496.7c-.642,0-.963-.683-.963-1.513,0-1.6,1.116-3.465,2.162-3.465.683,0,.962.781.962,1.513C504.085,494.791,502.983,496.7,501.924,496.7Zm-.237-2.363a5.327,5.327,0,0,0-.2,1.262c0,.377.063.906.447.906.306,0,.585-.328.8-.689a4.983,4.983,0,0,0,.565-1.479Zm1.673-.252a5.575,5.575,0,0,0,.2-1.262c0-.132,0-.906-.447-.906-.411,0-1.011.662-1.366,2.168Z" transform="translate(-471 -257.91)"/>
    <path class="cls-2" d="M506.346,497.15c0,.155,0,.209.527.209h.249v.219c-.274-.019-.717-.019-1-.019s-.732,0-1,.019v-.219h.249c.527,0,.527-.054.527-.209v-2.486a2.009,2.009,0,0,1-.726.139h-.085v-.219h.085a1.589,1.589,0,0,0,1-.318c.164,0,.179,0,.179.148Z" transform="translate(-471 -257.91)"/>
    <path class="cls-2" d="M509.275,495.293c.036-.152.105-.439.154-.627a3.071,3.071,0,0,0,.112-.578c0-.19-.049-.342-.23-.342-.272,0-.4.342-.51.752-.049.19-.055.209-.153.209-.021,0-.119,0-.119-.09a2.482,2.482,0,0,1,.251-.689.634.634,0,0,1,.552-.377.707.707,0,0,1,.746.635,1.479,1.479,0,0,1,1.178-.635c.369,0,.907.117.907.8a5.133,5.133,0,0,1-.37,1.345,1.39,1.39,0,0,0-.161.565c0,.146.029.244.175.244.279,0,.579-.285.739-.844.028-.076.035-.119.133-.119.02,0,.111,0,.111.092s-.307,1.066-1,1.066a.614.614,0,0,1-.662-.6.924.924,0,0,1,.1-.377,5.617,5.617,0,0,0,.412-1.485c0-.132-.008-.488-.412-.488a1.293,1.293,0,0,0-1.046.641,1.433,1.433,0,0,0-.293.629c-.035.16-.076.312-.118.466-.042.174-.119.495-.154.627a2.805,2.805,0,0,1-.125.432.341.341,0,0,1-.272.154.222.222,0,0,1-.237-.222,2.528,2.528,0,0,1,.069-.287Z" transform="translate(-471 -257.91)"/>
    <path class="cls-2" d="M516.352,497.189c0,.1,0,.26-.174.26s-.168-.168-.168-.26v-2.14h-2.14c-.1,0-.258,0-.258-.174s.167-.168.258-.168h2.14v-2.141c0-.1,0-.257.175-.257s.167.168.167.257v2.141h2.134c.1,0,.258,0,.258.176s-.167.166-.258.166h-2.134Z" transform="translate(-471 -257.91)"/>
    <path class="cls-2" d="M522.26,493.543a1.4,1.4,0,0,1,1.492,1.291,2.269,2.269,0,0,1-2.287,1.875l-.293,1.172c-.035.146-.042.168-.146.168-.021,0-.111,0-.111-.084,0-.022.062-.279.146-.608.056-.216.105-.439.16-.654a1.4,1.4,0,0,1-1.492-1.291,2.254,2.254,0,0,1,2.287-1.875l.4-1.6c.027-.119.034-.154.139-.154.035,0,.118,0,.118.092Zm-.3.195a1.848,1.848,0,0,0-1.722,1.793.971.971,0,0,0,1.032.977Zm-.446,2.77a1.853,1.853,0,0,0,1.729-1.793.969.969,0,0,0-1.038-.977Z" transform="translate(-471 -257.91)"/>
    <path class="cls-2" d="M526.339,494.883a4.644,4.644,0,0,1-.509,2.146,3.092,3.092,0,0,1-1.206,1.332.082.082,0,0,1-.091-.084c0-.033.007-.041.125-.16a4.234,4.234,0,0,0,1.207-3.242,4.148,4.148,0,0,0-1.27-3.291c-.041-.049-.062-.07-.062-.105,0-.083.083-.083.132-.083A4.18,4.18,0,0,1,526.339,494.883Z" transform="translate(-471 -257.91)"/>
    <path class="cls-4" d="M571.708,440.07c0,.18,0,.36-.2.36s-.2-.18-.2-.36v-9.246c0-.179,0-.359.2-.359s.2.18.2.359Z" transform="translate(-471 -257.91)"/>
    <path class="cls-4" d="M579.139,437.281a1.006,1.006,0,0,0-.03.168c0,.18.279.18.647.18.19,0,.28,0,.28.109,0,.2-.12.2-.2.2-.209,0-.428-.02-.648-.02s-.428-.01-.637-.01c-.279,0-.987.03-1.265.03-.02,0-.14,0-.14-.11,0-.2.09-.2.239-.2.618,0,.807-.01.907-.328.04-.151.269-1.1.687-2.75H575.94l-.677,2.73a1.006,1.006,0,0,0-.03.168c0,.18.279.18.647.18.19,0,.28,0,.28.109,0,.2-.12.2-.2.2-.209,0-.428-.02-.647-.02s-.429-.01-.638-.01c-.279,0-.987.03-1.265.03-.02,0-.14,0-.14-.11,0-.2.09-.2.269-.2.787,0,.807-.08.907-.469l1.335-5.349a.887.887,0,0,0,.04-.19c0-.129-.09-.141-.269-.16a3.628,3.628,0,0,0-.379-.02c-.189,0-.279,0-.279-.109,0-.2.11-.2.189-.2.29,0,1,.029,1.286.029s1-.029,1.275-.029c.03,0,.14,0,.14.109,0,.2-.08.2-.339.2-.717,0-.747.1-.837.459l-.588,2.342h3.039l.6-2.431a1.044,1.044,0,0,0,.04-.19c0-.129-.09-.141-.269-.16a3.628,3.628,0,0,0-.379-.02c-.189,0-.279,0-.279-.109,0-.2.11-.2.189-.2.29,0,1,.029,1.286.029s1-.029,1.275-.029c.03,0,.14,0,.14.109,0,.2-.08.2-.339.2-.728,0-.747.1-.837.459Z" transform="translate(-471 -257.91)"/>
    <g>
      <path class="cls-4" d="M585.2,440.43a4.3,4.3,0,0,1-1.554-1.873,7.673,7.673,0,0,1-.03-6.149,4.341,4.341,0,0,1,1.584-1.943.088.088,0,0,1,.1.1c0,.03,0,.051-.129.17a6.516,6.516,0,0,0-1.6,4.713,6.6,6.6,0,0,0,1.564,4.662c.169.17.169.19.169.221A.09.09,0,0,1,585.2,440.43Z" transform="translate(-471 -257.91)"/>
      <path class="cls-4" d="M587.239,437.131a1.341,1.341,0,0,0,1.126.668,1.4,1.4,0,0,0,1.345-1.028c.02-.078.04-.138.129-.138a.115.115,0,0,1,.13.119,1.7,1.7,0,0,1-1.664,1.3,2.248,2.248,0,0,1-2.192-2.3,2.177,2.177,0,0,1,2.073-2.271,1.767,1.767,0,0,1,1.783,1.953c0,.209-.03.209-.249.209h-2.78A2.9,2.9,0,0,0,587.239,437.131Zm2.073-1.7c0-.389-.1-1.735-1.126-1.735-.339,0-1.176.25-1.236,1.735Z" transform="translate(-471 -257.91)"/>
    </g>
    <path class="cls-4" d="M592.372,434.834a1.434,1.434,0,0,1-1.365,1.545c-.568,0-1.126-.279-1.126-.8a.459.459,0,1,1,.917,0,.46.46,0,0,1-.349.449,1.217,1.217,0,0,0,.538.129c.638,0,.727-.857.727-1.305v-3.947c0-.488-.089-.556-.856-.556v-.311l1.514-.109Zm-.528-6.107a.529.529,0,1,1,.528-.528A.531.531,0,0,1,591.844,428.727Z" transform="translate(-471 -257.91)"/>
    <path class="cls-4" d="M594.682,434.406c-.642,0-.963-.683-.963-1.513,0-1.6,1.116-3.465,2.162-3.465.683,0,.962.781.962,1.513C596.843,432.5,595.741,434.406,594.682,434.406Zm-.238-2.363a5.385,5.385,0,0,0-.2,1.262c0,.377.063.906.446.906.307,0,.586-.328.8-.69a4.963,4.963,0,0,0,.565-1.478Zm1.674-.252a5.559,5.559,0,0,0,.2-1.262c0-.133,0-.906-.446-.906-.412,0-1.011.662-1.367,2.168Z" transform="translate(-471 -257.91)"/>
    <path class="cls-4" d="M599.1,434.877c0,.154,0,.209.526.209h.249v.219c-.273-.02-.716-.02-1-.02s-.732,0-1,.02v-.219h.249c.527,0,.527-.055.527-.209v-2.486a2,2,0,0,1-.727.138h-.084v-.218h.084a1.583,1.583,0,0,0,1-.319c.164,0,.18,0,.18.149Z" transform="translate(-471 -257.91)"/>
    <path class="cls-4" d="M603.813,438.486a4.347,4.347,0,0,1-1.584,1.944.1.1,0,0,1-.1-.1c0-.031,0-.051.129-.17a6.534,6.534,0,0,0,1.605-4.713,6.464,6.464,0,0,0-1.545-4.654c-.189-.178-.189-.2-.189-.229a.094.094,0,0,1,.1-.1,4.31,4.31,0,0,1,1.554,1.873,7.681,7.681,0,0,1,.03,6.148Z" transform="translate(-471 -257.91)"/>
    <path class="cls-4" d="M606.989,440.07c0,.18,0,.36-.2.36s-.2-.18-.2-.36v-9.246c0-.179,0-.359.2-.359s.2.18.2.359Z" transform="translate(-471 -257.91)"/>
    <path class="cls-2" d="M609.567,437.131a1.343,1.343,0,0,0,1.126.668,1.4,1.4,0,0,0,1.346-1.028c.02-.078.04-.138.129-.138a.115.115,0,0,1,.13.119,1.7,1.7,0,0,1-1.664,1.3,2.249,2.249,0,0,1-2.193-2.3,2.177,2.177,0,0,1,2.073-2.271,1.767,1.767,0,0,1,1.784,1.953c0,.209-.03.209-.25.209h-2.779A2.912,2.912,0,0,0,609.567,437.131Zm2.073-1.7c0-.389-.1-1.735-1.126-1.735-.339,0-1.176.25-1.235,1.735Z" transform="translate(-471 -257.91)"/>
    <path class="cls-2" d="M614.692,434.834a1.433,1.433,0,0,1-1.364,1.545c-.569,0-1.126-.279-1.126-.8a.458.458,0,1,1,.916,0,.461.461,0,0,1-.348.449,1.212,1.212,0,0,0,.538.129c.637,0,.727-.857.727-1.305v-3.947c0-.488-.09-.556-.857-.556v-.311l1.514-.109Zm-.527-6.107a.529.529,0,1,1,.527-.528A.532.532,0,0,1,614.165,428.727Z" transform="translate(-471 -257.91)"/>
    <path class="cls-4" d="M616.716,433.994h3.856c.112,0,.272,0,.272.176s-.167.166-.272.166h-4.149c-.119,0-.279,0-.279-.174,0-.062.021-.076.1-.16l4.267-4.408c.07-.069.091-.1.168-.1a.171.171,0,0,1,.167.176c0,.062-.014.068-.1.16Z" transform="translate(-471 -257.91)"/>
    <path class="cls-4" d="M626.3,433.813a1.219,1.219,0,0,0-.028.154c0,.07,0,.084.153.105a1.779,1.779,0,0,0,.265.014c.161,0,.23,0,.23.1a.13.13,0,0,1-.146.147c-.132,0-.307-.014-.446-.02-.119-.007-.363-.007-.481-.007-.2,0-.7.027-.907.027a.1.1,0,0,1-.111-.1c0-.146.09-.146.209-.146.543,0,.558-.057.613-.293l.454-1.807h-2.336l-.46,1.827a.618.618,0,0,0-.028.154c0,.07,0,.084.153.105a1.772,1.772,0,0,0,.265.014c.16,0,.23,0,.23.1a.13.13,0,0,1-.146.147c-.133,0-.307-.014-.447-.02-.118-.007-.362-.007-.481-.007-.2,0-.7.027-.906.027a.1.1,0,0,1-.112-.1c0-.146.091-.146.209-.146.544,0,.558-.057.614-.293l.927-3.7a.579.579,0,0,0,.028-.154c0-.069-.013-.082-.16-.1-.125-.014-.258-.014-.265-.014-.14,0-.223,0-.223-.1,0-.153.1-.153.146-.153.133,0,.3.014.44.02.118.008.362.008.481.008.2,0,.711-.028.913-.028a.1.1,0,0,1,.112.1c0,.152-.091.152-.209.152-.538,0-.551.057-.614.293l-.405,1.619h2.336l.412-1.646a.633.633,0,0,0,.028-.154c0-.069-.014-.082-.161-.1-.125-.014-.258-.014-.264-.014-.14,0-.224,0-.224-.1,0-.153.105-.153.147-.153.132,0,.3.014.439.02.119.008.363.008.481.008.2,0,.711-.028.914-.028a.1.1,0,0,1,.111.1c0,.152-.083.152-.237.152-.516,0-.53.057-.592.315Z" transform="translate(-471 -257.91)"/>
    <path class="cls-4" d="M630.934,429.189c0,.036-.021.057-.049.084a4.12,4.12,0,0,0-1.29,3.321,4.259,4.259,0,0,0,1.269,3.291c.049.049.07.062.07.1,0,.084-.084.084-.14.084a4.461,4.461,0,0,1,0-6.965C630.85,429.107,630.934,429.107,630.934,429.189Z" transform="translate(-471 -257.91)"/>
    <path class="cls-4" d="M632.841,433.529a1.341,1.341,0,0,0,1.126.668,1.4,1.4,0,0,0,1.345-1.027c.02-.078.04-.139.129-.139a.116.116,0,0,1,.13.119,1.7,1.7,0,0,1-1.664,1.3,2.248,2.248,0,0,1-2.192-2.3,2.177,2.177,0,0,1,2.073-2.272,1.767,1.767,0,0,1,1.783,1.953c0,.209-.03.209-.249.209h-2.78A2.9,2.9,0,0,0,632.841,433.529Zm2.073-1.7c0-.388-.1-1.734-1.126-1.734-.339,0-1.176.25-1.236,1.734Z" transform="translate(-471 -257.91)"/>
    <path class="cls-4" d="M638.1,431.834a1.434,1.434,0,0,1-1.365,1.545c-.568,0-1.126-.279-1.126-.8a.458.458,0,1,1,.916,0,.461.461,0,0,1-.348.449,1.214,1.214,0,0,0,.538.129c.638,0,.727-.857.727-1.305v-3.947c0-.488-.089-.556-.857-.556v-.311l1.515-.109Zm-.528-6.107a.529.529,0,1,1,.528-.528A.532.532,0,0,1,637.571,425.727Z" transform="translate(-471 -257.91)"/>
    <path class="cls-4" d="M640.342,431.391c-.488,0-.806-.473-.806-1.149,0-1.164.86-2.412,1.656-2.412.537,0,.811.547.811,1.149C642,430.107,641.157,431.391,640.342,431.391Zm-.269-1.666a3.6,3.6,0,0,0-.119.8c0,.149.025.7.4.7.248,0,.751-.305,1.049-1.5Zm1.388-.229a3.068,3.068,0,0,0,.119-.791c0-.392-.114-.707-.393-.707-.233,0-.736.26-1.054,1.5Z" transform="translate(-471 -257.91)"/>
    <path class="cls-4" d="M644.338,432.354c0,.154,0,.209.527.209h.249v.218c-.274-.019-.717-.019-1-.019s-.732,0-1,.019v-.218h.249c.527,0,.527-.055.527-.209v-2.487a2.009,2.009,0,0,1-.726.139h-.085v-.219h.085a1.588,1.588,0,0,0,1-.318c.164,0,.179,0,.179.148Z" transform="translate(-471 -257.91)"/>
    <path class="cls-4" d="M649.1,432.594a4.632,4.632,0,0,1-.51,2.146,3.085,3.085,0,0,1-1.206,1.332.082.082,0,0,1-.09-.084c0-.033.006-.041.125-.16a4.234,4.234,0,0,0,1.207-3.242,4.148,4.148,0,0,0-1.27-3.291c-.041-.049-.062-.07-.062-.106,0-.082.083-.082.132-.082A4.18,4.18,0,0,1,649.1,432.594Z" transform="translate(-471 -257.91)"/>
    <path class="cls-2" d="M654.071,435.975a.529.529,0,1,1,.528-.528A.531.531,0,0,1,654.071,435.975Z" transform="translate(-471 -257.91)"/>
    <path class="cls-2" d="M661.139,433.4c0,.231,0,.323.7.323h.266v.25c-.154-.006-1.033-.028-1.248-.028-.259,0-1.116.022-1.242.028v-.25h.265c.7,0,.7-.092.7-.323V429.85a2.3,2.3,0,0,1-1.011.195v-.252a1.912,1.912,0,0,0,1.367-.445c.2,0,.209.006.209.195Z" transform="translate(-471 -257.91)"/>
    <polyline points="187.8 177.75 191.88 177.75 191.88 177.27 187.8 177.27"/>
    <path class="cls-2" d="M662.116,441.3h-2.873c0-.2,0-.209.07-.272l1.68-1.66a2.116,2.116,0,0,0,.655-1.338,1.044,1.044,0,0,0-1.06-1.109,1.1,1.1,0,0,0-1.018.648c.363,0,.412.245.412.37a.37.37,0,1,1-.739-.02,1.35,1.35,0,0,1,1.45-1.248,1.46,1.46,0,0,1,1.632,1.359,2.018,2.018,0,0,1-1,1.506c-.419.328-.663.524-1.395,1.172h1.283a3.5,3.5,0,0,0,.69-.043,1.587,1.587,0,0,0,.181-.635h.238Z" transform="translate(-471 -257.91)"/>
    <path class="cls-2" d="M669.21,430.973c.061-.1.1-.168.26-.168s.169.039.189.238l.608,6.227c.029.289.029.359.648.359.129,0,.229,0,.229.109,0,.2-.12.2-.18.2-.249,0-.877-.03-1.126-.03-.408,0-.837.03-1.245.03-.02,0-.14,0-.14-.11,0-.2.1-.2.239-.2.2,0,.718-.029.718-.328,0-.1-.139-1.455-.16-1.664h-2.5l-.758,1.275a.774.774,0,0,0-.139.369c0,.248.239.328.468.348.07,0,.159.01.159.119,0,.19-.129.19-.189.19-.319,0-.667-.03-1-.03-.278,0-.587.03-.856.03a.116.116,0,0,1-.13-.11c0-.189.09-.189.21-.2a1.409,1.409,0,0,0,1.225-.836Zm.01,4.355-.318-3.289-1.964,3.289Z" transform="translate(-471 -257.91)"/>
    <path class="cls-2" d="M672.8,437.131a1.341,1.341,0,0,0,1.126.668,1.4,1.4,0,0,0,1.345-1.028c.02-.078.04-.138.129-.138a.115.115,0,0,1,.13.119,1.7,1.7,0,0,1-1.664,1.3,2.248,2.248,0,0,1-2.192-2.3,2.177,2.177,0,0,1,2.073-2.271,1.767,1.767,0,0,1,1.783,1.953c0,.209-.03.209-.249.209H672.5A2.9,2.9,0,0,0,672.8,437.131Zm2.073-1.7c0-.389-.1-1.735-1.126-1.735-.339,0-1.176.25-1.236,1.735Z" transform="translate(-471 -257.91)"/>
    <path class="cls-2" d="M677.935,434.834a1.434,1.434,0,0,1-1.365,1.545c-.569,0-1.126-.279-1.126-.8a.458.458,0,1,1,.916,0,.461.461,0,0,1-.348.449,1.214,1.214,0,0,0,.538.129c.638,0,.727-.857.727-1.305v-3.947c0-.488-.089-.556-.857-.556v-.311l1.515-.109Zm-.528-6.107a.529.529,0,1,1,.528-.528A.532.532,0,0,1,677.407,428.727Z" transform="translate(-471 -257.91)"/>
    <path class="cls-2" d="M681.574,429.189a.114.114,0,0,1-.048.084,4.12,4.12,0,0,0-1.291,3.321,4.256,4.256,0,0,0,1.27,3.291c.049.049.069.062.069.1,0,.084-.083.084-.139.084a4.459,4.459,0,0,1,0-6.965C681.491,429.107,681.574,429.107,681.574,429.189Z" transform="translate(-471 -257.91)"/>
    <path class="cls-2" d="M683.486,434.406c-.642,0-.962-.683-.962-1.513,0-1.6,1.116-3.465,2.162-3.465.683,0,.962.781.962,1.513C685.648,432.5,684.547,434.406,683.486,434.406Zm-.237-2.363a5.385,5.385,0,0,0-.2,1.262c0,.377.063.906.446.906.308,0,.586-.328.8-.69a5,5,0,0,0,.564-1.478Zm1.674-.252a5.559,5.559,0,0,0,.2-1.262c0-.133,0-.906-.446-.906-.411,0-1.011.662-1.366,2.168Z" transform="translate(-471 -257.91)"/>
    <path class="cls-2" d="M687.9,434.877c0,.154,0,.209.528.209h.249v.219c-.274-.02-.717-.02-1-.02s-.732,0-1,.02v-.219h.249c.527,0,.527-.055.527-.209v-2.486a2,2,0,0,1-.726.138h-.085v-.218h.085a1.586,1.586,0,0,0,1-.319c.164,0,.178,0,.178.149Z" transform="translate(-471 -257.91)"/>
    <path class="cls-2" d="M690.839,433c.034-.152.1-.44.153-.627a3.086,3.086,0,0,0,.112-.578c0-.19-.049-.342-.231-.342-.271,0-.4.342-.509.752-.049.189-.055.209-.153.209-.021,0-.118,0-.118-.09a2.437,2.437,0,0,1,.251-.689.633.633,0,0,1,.551-.377.707.707,0,0,1,.746.634,1.481,1.481,0,0,1,1.178-.634c.369,0,.907.117.907.8a5.093,5.093,0,0,1-.371,1.345,1.4,1.4,0,0,0-.16.565c0,.146.029.244.175.244.278,0,.578-.285.739-.844.028-.076.035-.119.132-.119.022,0,.113,0,.113.092s-.308,1.066-1,1.066a.614.614,0,0,1-.662-.6.924.924,0,0,1,.1-.377,5.655,5.655,0,0,0,.411-1.485c0-.132-.007-.488-.411-.488a1.293,1.293,0,0,0-1.046.641,1.428,1.428,0,0,0-.293.629c-.035.16-.077.312-.118.466-.042.174-.119.5-.153.627a2.823,2.823,0,0,1-.126.432.341.341,0,0,1-.272.154.222.222,0,0,1-.237-.222,2.837,2.837,0,0,1,.069-.288Z" transform="translate(-471 -257.91)"/>
    <path class="cls-2" d="M697.907,434.9c0,.1,0,.26-.174.26s-.168-.168-.168-.26v-2.14h-2.14c-.1,0-.258,0-.258-.174s.167-.168.258-.168h2.14v-2.141c0-.1,0-.257.175-.257s.167.168.167.257v2.141h2.134c.1,0,.258,0,.258.176s-.167.166-.258.166h-2.134Z" transform="translate(-471 -257.91)"/>
    <path class="cls-2" d="M703.815,431.254a1.4,1.4,0,0,1,1.493,1.291,2.27,2.27,0,0,1-2.287,1.875l-.293,1.172c-.036.146-.042.168-.147.168-.02,0-.111,0-.111-.084,0-.022.062-.28.146-.608.056-.216.105-.439.16-.654a1.4,1.4,0,0,1-1.492-1.291,2.253,2.253,0,0,1,2.287-1.875l.4-1.6c.028-.119.035-.154.139-.154.036,0,.119,0,.119.092Zm-.3.195a1.848,1.848,0,0,0-1.723,1.793.973.973,0,0,0,1.032.977Zm-.447,2.77a1.854,1.854,0,0,0,1.73-1.793.969.969,0,0,0-1.039-.977Z" transform="translate(-471 -257.91)"/>
    <path class="cls-2" d="M707.9,432.594a4.657,4.657,0,0,1-.508,2.146,3.085,3.085,0,0,1-1.206,1.332.082.082,0,0,1-.091-.084c0-.033.007-.041.126-.16a4.233,4.233,0,0,0,1.206-3.242,4.148,4.148,0,0,0-1.27-3.291c-.042-.049-.062-.07-.062-.106,0-.082.084-.082.133-.082A4.183,4.183,0,0,1,707.9,432.594Z" transform="translate(-471 -257.91)"/>
    <path class="cls-4" d="M571.708,503.789c0,.18,0,.359-.2.359s-.2-.179-.2-.359v-9.246c0-.18,0-.359.2-.359s.2.179.2.359Z" transform="translate(-471 -257.91)"/>
    <path class="cls-4" d="M579.139,501a.988.988,0,0,0-.03.168c0,.18.279.18.647.18.19,0,.28,0,.28.109,0,.2-.12.2-.2.2-.209,0-.428-.019-.648-.019s-.428-.01-.637-.01c-.279,0-.987.029-1.265.029-.02,0-.14,0-.14-.109,0-.2.09-.2.239-.2.618,0,.807-.01.907-.328.04-.151.269-1.1.687-2.75H575.94l-.677,2.73a.988.988,0,0,0-.03.168c0,.18.279.18.647.18.19,0,.28,0,.28.109,0,.2-.12.2-.2.2-.209,0-.428-.019-.647-.019s-.429-.01-.638-.01c-.279,0-.987.029-1.265.029-.02,0-.14,0-.14-.109,0-.2.09-.2.269-.2.787,0,.807-.08.907-.469l1.335-5.35a.871.871,0,0,0,.04-.189c0-.129-.09-.141-.269-.16a3.628,3.628,0,0,0-.379-.02c-.189,0-.279,0-.279-.109,0-.2.11-.2.189-.2.29,0,1,.029,1.286.029s1-.029,1.275-.029c.03,0,.14,0,.14.109,0,.2-.08.2-.339.2-.717,0-.747.1-.837.459l-.588,2.342h3.039l.6-2.432a1.042,1.042,0,0,0,.04-.189c0-.129-.09-.141-.269-.16a3.628,3.628,0,0,0-.379-.02c-.189,0-.279,0-.279-.109,0-.2.11-.2.189-.2.29,0,1,.029,1.286.029s1-.029,1.275-.029c.03,0,.14,0,.14.109,0,.2-.08.2-.339.2-.728,0-.747.1-.837.459Z" transform="translate(-471 -257.91)"/>
    <g>
      <path class="cls-4" d="M585.2,504.148a4.3,4.3,0,0,1-1.554-1.873,7.671,7.671,0,0,1-.03-6.148,4.334,4.334,0,0,1,1.584-1.943.088.088,0,0,1,.1.1c0,.03,0,.051-.129.17a6.516,6.516,0,0,0-1.6,4.713,6.6,6.6,0,0,0,1.564,4.662c.169.17.169.19.169.221A.089.089,0,0,1,585.2,504.148Z" transform="translate(-471 -257.91)"/>
      <path class="cls-4" d="M587.239,500.85a1.341,1.341,0,0,0,1.126.668,1.4,1.4,0,0,0,1.345-1.028c.02-.078.04-.138.129-.138a.115.115,0,0,1,.13.119,1.7,1.7,0,0,1-1.664,1.3,2.248,2.248,0,0,1-2.192-2.3,2.178,2.178,0,0,1,2.073-2.272,1.767,1.767,0,0,1,1.783,1.953c0,.209-.03.209-.249.209h-2.78A2.9,2.9,0,0,0,587.239,500.85Zm2.073-1.7c0-.388-.1-1.734-1.126-1.734-.339,0-1.176.25-1.236,1.734Z" transform="translate(-471 -257.91)"/>
    </g>
    <path class="cls-4" d="M591.312,496.479c-.119,0-.279,0-.279-.174s.167-.168.279-.168h4.156c.118,0,.279,0,.279.176s-.167.166-.279.166Z" transform="translate(-471 -257.91)"/>
    <path class="cls-4" d="M598.614,498.553a1.433,1.433,0,0,1-1.364,1.545c-.569,0-1.126-.28-1.126-.8a.458.458,0,1,1,.916,0,.461.461,0,0,1-.349.449,1.217,1.217,0,0,0,.538.129c.638,0,.728-.858.728-1.305v-3.947c0-.488-.09-.557-.857-.557v-.31l1.514-.11Zm-.528-6.108a.528.528,0,1,1,.528-.527A.531.531,0,0,1,598.086,492.445Z" transform="translate(-471 -257.91)"/>
    <path class="cls-4" d="M600.924,498.125c-.642,0-.963-.684-.963-1.514,0-1.595,1.116-3.465,2.162-3.465.683,0,.962.782.962,1.514C603.085,496.221,601.983,498.125,600.924,498.125Zm-.237-2.363a5.326,5.326,0,0,0-.2,1.261c0,.377.063.907.447.907.306,0,.585-.328.8-.69a4.986,4.986,0,0,0,.565-1.478Zm1.673-.252a5.575,5.575,0,0,0,.2-1.262c0-.133,0-.906-.447-.906-.411,0-1.011.662-1.366,2.168Z" transform="translate(-471 -257.91)"/>
    <path class="cls-4" d="M605.338,498.588c0,.154,0,.209.527.209h.249v.219c-.274-.02-.717-.02-1-.02s-.732,0-1,.02V498.8h.249c.527,0,.527-.055.527-.209V496.1a2,2,0,0,1-.726.138h-.085v-.219h.085a1.588,1.588,0,0,0,1-.318c.164,0,.179,0,.179.149Z" transform="translate(-471 -257.91)"/>
    <path class="cls-4" d="M609.938,502.205a4.341,4.341,0,0,1-1.584,1.943.1.1,0,0,1-.1-.1c0-.031,0-.051.129-.17a6.534,6.534,0,0,0,1.605-4.713,6.464,6.464,0,0,0-1.545-4.654c-.189-.178-.189-.2-.189-.229a.094.094,0,0,1,.1-.1,4.31,4.31,0,0,1,1.554,1.873,7.681,7.681,0,0,1,.03,6.148Z" transform="translate(-471 -257.91)"/>
    <path class="cls-4" d="M613.106,503.789c0,.18,0,.359-.2.359s-.2-.179-.2-.359v-9.246c0-.18,0-.359.2-.359s.2.179.2.359Z" transform="translate(-471 -257.91)"/>
    <path class="cls-2" d="M615.81,500.85a1.341,1.341,0,0,0,1.126.668,1.4,1.4,0,0,0,1.345-1.028c.02-.078.04-.138.129-.138a.115.115,0,0,1,.13.119,1.7,1.7,0,0,1-1.664,1.3,2.248,2.248,0,0,1-2.192-2.3,2.177,2.177,0,0,1,2.072-2.272,1.768,1.768,0,0,1,1.784,1.953c0,.209-.03.209-.249.209h-2.78A2.9,2.9,0,0,0,615.81,500.85Zm2.072-1.7c0-.388-.1-1.734-1.126-1.734-.339,0-1.175.25-1.235,1.734Z" transform="translate(-471 -257.91)"/>
    <path class="cls-2" d="M620.935,498.553a1.434,1.434,0,0,1-1.365,1.545c-.569,0-1.126-.28-1.126-.8a.458.458,0,1,1,.916,0,.462.462,0,0,1-.348.449,1.214,1.214,0,0,0,.538.129c.638,0,.727-.858.727-1.305v-3.947c0-.488-.089-.557-.857-.557v-.31l1.515-.11Zm-.528-6.108a.528.528,0,1,1,.528-.527A.531.531,0,0,1,620.407,492.445Z" transform="translate(-471 -257.91)"/>
    <path class="cls-4" d="M622.958,497.713h3.856c.112,0,.272,0,.272.176s-.167.166-.272.166h-4.149c-.119,0-.279,0-.279-.174,0-.063.021-.076.1-.16l4.267-4.408c.07-.069.091-.1.168-.1a.171.171,0,0,1,.167.176c0,.062-.014.068-.1.16Z" transform="translate(-471 -257.91)"/>
    <path class="cls-4" d="M632.544,497.531a1.267,1.267,0,0,0-.028.155c0,.07,0,.084.153.105a1.785,1.785,0,0,0,.266.014c.16,0,.23,0,.23.1a.13.13,0,0,1-.146.147c-.133,0-.308-.014-.447-.02-.118-.008-.363-.008-.481-.008-.2,0-.7.028-.906.028a.1.1,0,0,1-.112-.1c0-.146.091-.146.209-.146.544,0,.558-.057.614-.293l.453-1.807h-2.336l-.46,1.826a.629.629,0,0,0-.028.155c0,.07,0,.084.153.105a1.779,1.779,0,0,0,.265.014c.161,0,.23,0,.23.1a.13.13,0,0,1-.146.147c-.132,0-.307-.014-.446-.02-.119-.008-.363-.008-.482-.008-.2,0-.7.028-.906.028a.1.1,0,0,1-.112-.1c0-.146.091-.146.21-.146.543,0,.557-.057.613-.293l.928-3.7a.6.6,0,0,0,.027-.155c0-.068-.013-.082-.16-.1-.125-.014-.258-.014-.265-.014-.14,0-.223,0-.223-.1,0-.152.1-.152.146-.152.133,0,.3.014.44.02.118.007.362.007.481.007.2,0,.711-.027.913-.027a.1.1,0,0,1,.112.1c0,.152-.091.152-.209.152-.537,0-.551.057-.614.293l-.4,1.619h2.336l.411-1.646a.629.629,0,0,0,.028-.155c0-.068-.014-.082-.161-.1-.125-.014-.257-.014-.264-.014-.14,0-.223,0-.223-.1,0-.152.1-.152.146-.152.132,0,.3.014.439.02.119.007.363.007.482.007.2,0,.71-.027.913-.027a.1.1,0,0,1,.111.1c0,.152-.083.152-.237.152-.515,0-.53.057-.592.314Z" transform="translate(-471 -257.91)"/>
    <path class="cls-4" d="M637.176,492.908a.117.117,0,0,1-.049.084,4.12,4.12,0,0,0-1.29,3.321,4.259,4.259,0,0,0,1.269,3.291c.049.048.07.062.07.1,0,.084-.084.084-.139.084a4.459,4.459,0,0,1,0-6.965C637.092,492.826,637.176,492.826,637.176,492.908Z" transform="translate(-471 -257.91)"/>
    <path class="cls-4" d="M639.083,497.248a1.343,1.343,0,0,0,1.126.668,1.4,1.4,0,0,0,1.345-1.027c.02-.078.04-.139.13-.139a.116.116,0,0,1,.129.119,1.7,1.7,0,0,1-1.664,1.295,2.248,2.248,0,0,1-2.192-2.3,2.177,2.177,0,0,1,2.073-2.271,1.767,1.767,0,0,1,1.783,1.953c0,.209-.03.209-.249.209h-2.78A2.9,2.9,0,0,0,639.083,497.248Zm2.073-1.7c0-.389-.1-1.734-1.126-1.734-.339,0-1.176.25-1.236,1.734Z" transform="translate(-471 -257.91)"/>
    <path class="cls-4" d="M643.25,493.959c-.079,0-.213,0-.213-.139s.134-.14.213-.14h3.368c.08,0,.214,0,.214.14s-.134.139-.214.139Z" transform="translate(-471 -257.91)"/>
    <path class="cls-4" d="M649.731,495.561a1.432,1.432,0,0,1-1.364,1.544c-.569,0-1.126-.279-1.126-.8a.458.458,0,1,1,.916,0,.462.462,0,0,1-.348.449,1.212,1.212,0,0,0,.538.129c.637,0,.727-.858.727-1.305v-3.947c0-.489-.09-.557-.857-.557v-.31l1.514-.11Zm-.527-6.108a.529.529,0,1,1,.527-.527A.531.531,0,0,1,649.2,489.453Z" transform="translate(-471 -257.91)"/>
    <path class="cls-4" d="M651.982,495.117c-.487,0-.806-.472-.806-1.148,0-1.164.861-2.412,1.657-2.412.537,0,.811.547.811,1.148C653.644,493.834,652.8,495.117,651.982,495.117Zm-.269-1.666a3.672,3.672,0,0,0-.119.8c0,.148.025.7.4.7.249,0,.751-.3,1.05-1.5Zm1.389-.228a3.079,3.079,0,0,0,.119-.791c0-.393-.115-.707-.393-.707-.234,0-.736.259-1.055,1.5Z" transform="translate(-471 -257.91)"/>
    <path class="cls-4" d="M655.979,496.064c0,.155,0,.209.526.209h.249v.219c-.273-.019-.716-.019-1-.019s-.732,0-1,.019v-.219h.249c.527,0,.527-.054.527-.209v-2.486a2.01,2.01,0,0,1-.727.139h-.084V493.5h.084a1.586,1.586,0,0,0,1-.318c.164,0,.18,0,.18.148Z" transform="translate(-471 -257.91)"/>
    <path class="cls-4" d="M660.737,496.313a4.644,4.644,0,0,1-.509,2.146,3.092,3.092,0,0,1-1.206,1.332.082.082,0,0,1-.091-.084c0-.033.007-.041.126-.16a4.235,4.235,0,0,0,1.206-3.242,4.146,4.146,0,0,0-1.269-3.291c-.042-.049-.063-.071-.063-.106,0-.082.084-.082.132-.082A4.18,4.18,0,0,1,660.737,496.313Z" transform="translate(-471 -257.91)"/>
    <path class="cls-2" d="M665.711,499.693a.528.528,0,1,1,.529-.527A.53.53,0,0,1,665.711,499.693Z" transform="translate(-471 -257.91)"/>
    <path class="cls-2" d="M672.78,497.248c0,.231,0,.322.7.322h.265v.25c-.153-.006-1.032-.027-1.248-.027-.258,0-1.116.021-1.241.027v-.25h.265c.7,0,.7-.091.7-.322v-3.555a2.29,2.29,0,0,1-1.011.2v-.252a1.909,1.909,0,0,0,1.367-.446c.195,0,.209.006.209.2Z" transform="translate(-471 -257.91)"/>
    <polyline points="199.44 241.59 203.52 241.59 203.52 241.11 199.44 241.11"/>
    <path class="cls-2" d="M673.756,505.141h-2.873c0-.2,0-.209.07-.272l1.68-1.66a2.116,2.116,0,0,0,.656-1.338,1.045,1.045,0,0,0-1.06-1.109,1.1,1.1,0,0,0-1.018.648c.363,0,.412.244.412.369a.37.37,0,1,1-.74-.019,1.351,1.351,0,0,1,1.45-1.248,1.459,1.459,0,0,1,1.632,1.359,2.018,2.018,0,0,1-1,1.506c-.418.328-.662.523-1.394,1.172h1.282a3.512,3.512,0,0,0,.691-.043,1.591,1.591,0,0,0,.181-.635h.237Z" transform="translate(-471 -257.91)"/>
    <path class="cls-2" d="M680.851,494.691c.06-.1.1-.168.259-.168s.17.04.189.239l.608,6.226c.03.289.03.36.648.36.129,0,.229,0,.229.109,0,.2-.119.2-.179.2-.249,0-.877-.029-1.126-.029-.409,0-.837.029-1.246.029-.02,0-.139,0-.139-.109,0-.2.1-.2.239-.2.2,0,.717-.03.717-.328,0-.1-.139-1.456-.159-1.665h-2.5l-.757,1.276a.766.766,0,0,0-.14.369c0,.248.239.328.468.348.07,0,.16.009.16.119,0,.189-.129.189-.189.189-.319,0-.668-.029-1-.029-.279,0-.588.029-.856.029a.116.116,0,0,1-.13-.109c0-.19.09-.19.209-.2a1.411,1.411,0,0,0,1.226-.836Zm.01,4.356-.319-3.289-1.963,3.289Z" transform="translate(-471 -257.91)"/>
    <path class="cls-2" d="M684.443,500.85a1.34,1.34,0,0,0,1.126.668,1.4,1.4,0,0,0,1.345-1.028c.02-.078.04-.138.13-.138a.115.115,0,0,1,.129.119,1.7,1.7,0,0,1-1.664,1.3,2.248,2.248,0,0,1-2.192-2.3,2.177,2.177,0,0,1,2.073-2.272,1.767,1.767,0,0,1,1.783,1.953c0,.209-.029.209-.249.209h-2.779A2.913,2.913,0,0,0,684.443,500.85Zm2.073-1.7c0-.388-.1-1.734-1.126-1.734-.339,0-1.176.25-1.236,1.734Z" transform="translate(-471 -257.91)"/>
    <path class="cls-2" d="M688.516,496.479c-.12,0-.28,0-.28-.174s.168-.168.28-.168h4.156c.118,0,.278,0,.278.176s-.167.166-.278.166Z" transform="translate(-471 -257.91)"/>
    <path class="cls-2" d="M695.811,498.553a1.435,1.435,0,0,1-1.366,1.545c-.568,0-1.126-.28-1.126-.8a.459.459,0,1,1,.917,0,.462.462,0,0,1-.349.449,1.214,1.214,0,0,0,.538.129c.638,0,.727-.858.727-1.305v-3.947c0-.488-.089-.557-.856-.557v-.31l1.515-.11Zm-.529-6.108a.528.528,0,1,1,.529-.527A.531.531,0,0,1,695.282,492.445Z" transform="translate(-471 -257.91)"/>
    <path class="cls-2" d="M699.458,492.908a.117.117,0,0,1-.049.084,4.12,4.12,0,0,0-1.29,3.321,4.259,4.259,0,0,0,1.269,3.291c.049.048.07.062.07.1,0,.084-.084.084-.14.084a4.461,4.461,0,0,1,0-6.965C699.374,492.826,699.458,492.826,699.458,492.908Z" transform="translate(-471 -257.91)"/>
    <path class="cls-2" d="M701.361,498.125c-.641,0-.962-.684-.962-1.514,0-1.595,1.116-3.465,2.162-3.465.683,0,.962.782.962,1.514C703.523,496.221,702.422,498.125,701.361,498.125Zm-.237-2.363a5.385,5.385,0,0,0-.2,1.261c0,.377.063.907.446.907.308,0,.586-.328.8-.69a5.018,5.018,0,0,0,.564-1.478Zm1.674-.252a5.559,5.559,0,0,0,.2-1.262c0-.133,0-.906-.446-.906-.411,0-1.011.662-1.366,2.168Z" transform="translate(-471 -257.91)"/>
    <path class="cls-2" d="M705.783,498.588c0,.154,0,.209.528.209h.249v.219c-.274-.02-.717-.02-1-.02s-.732,0-1,.02V498.8h.249c.527,0,.527-.055.527-.209V496.1a2,2,0,0,1-.726.138h-.085v-.219h.085a1.585,1.585,0,0,0,1-.318c.165,0,.179,0,.179.149Z" transform="translate(-471 -257.91)"/>
    <path class="cls-2" d="M708.6,496.723c.034-.153.1-.44.153-.627a3.09,3.09,0,0,0,.111-.578c0-.19-.048-.342-.23-.342-.272,0-.4.342-.509.752-.049.189-.056.209-.153.209-.021,0-.118,0-.118-.09a2.45,2.45,0,0,1,.251-.69.632.632,0,0,1,.55-.377.707.707,0,0,1,.746.635,1.484,1.484,0,0,1,1.179-.635c.369,0,.906.118.906.795a5.1,5.1,0,0,1-.37,1.346,1.4,1.4,0,0,0-.16.565c0,.146.028.244.175.244.278,0,.578-.285.739-.844.028-.076.034-.119.132-.119.022,0,.112,0,.112.092s-.307,1.066-1,1.066a.615.615,0,0,1-.662-.6.933.933,0,0,1,.105-.377,5.648,5.648,0,0,0,.411-1.484c0-.133-.007-.488-.411-.488a1.293,1.293,0,0,0-1.046.64,1.438,1.438,0,0,0-.293.629c-.035.16-.077.313-.118.467-.042.174-.119.494-.154.627a2.84,2.84,0,0,1-.125.432.342.342,0,0,1-.272.154.222.222,0,0,1-.237-.223,2.9,2.9,0,0,1,.069-.287Z" transform="translate(-471 -257.91)"/>
    <path class="cls-2" d="M715.665,498.619c0,.1,0,.26-.174.26s-.168-.168-.168-.26v-2.14h-2.14c-.1,0-.258,0-.258-.174s.167-.168.258-.168h2.14V494c0-.1,0-.258.175-.258s.167.168.167.258v2.141H717.8c.1,0,.258,0,.258.176s-.167.166-.258.166h-2.134Z" transform="translate(-471 -257.91)"/>
    <path class="cls-2" d="M721.581,494.973a1.4,1.4,0,0,1,1.492,1.291,2.269,2.269,0,0,1-2.287,1.875l-.293,1.172c-.035.146-.042.168-.146.168-.021,0-.112,0-.112-.084,0-.022.063-.28.147-.608.056-.217.1-.439.16-.654a1.4,1.4,0,0,1-1.492-1.291,2.252,2.252,0,0,1,2.287-1.875l.4-1.6c.029-.119.036-.154.14-.154.035,0,.118,0,.118.092Zm-.3.195a1.847,1.847,0,0,0-1.722,1.793.973.973,0,0,0,1.032.977Zm-.446,2.77a1.854,1.854,0,0,0,1.729-1.793.967.967,0,0,0-1.039-.977Z" transform="translate(-471 -257.91)"/>
    <path class="cls-2" d="M725.659,496.313a4.644,4.644,0,0,1-.509,2.146,3.085,3.085,0,0,1-1.206,1.332.081.081,0,0,1-.09-.084c0-.033.006-.041.125-.16a4.235,4.235,0,0,0,1.207-3.242,4.146,4.146,0,0,0-1.27-3.291c-.042-.049-.062-.071-.062-.106,0-.082.084-.082.132-.082A4.182,4.182,0,0,1,725.659,496.313Z" transform="translate(-471 -257.91)"/>
  </g>
</svg>
