<svg id="Layer_1" data-name="Layer 1" xmlns="http://www.w3.org/2000/svg" xmlns:xlink="http://www.w3.org/1999/xlink" viewBox="0 0 345.325 302.749">
  <defs>
    <style>
      .cls-1, .cls-2, .cls-3, .cls-4, .cls-7 {
        fill: none;
      }

      .cls-2 {
        stroke: #fff;
      }

      .cls-2, .cls-3, .cls-4, .cls-7 {
        stroke-linejoin: round;
      }

      .cls-2, .cls-4 {
        stroke-width: 0.5px;
      }

      .cls-3, .cls-4 {
        stroke: #000;
      }

      .cls-3 {
        stroke-width: 0.333px;
        stroke-dasharray: 0.5 4;
      }

      .cls-5 {
        fill: #1d1d1b;
      }

      .cls-6 {
        clip-path: url(#clip-path);
      }

      .cls-7 {
        stroke: blue;
        stroke-width: 2px;
      }

      .cls-8 {
        clip-path: url(#clip-path-2);
      }
    </style>
    <clipPath id="clip-path" transform="translate(-510.285 -228.266)">
      <rect class="cls-1" x="526.667" y="251.417" width="140.75" height="255.167"/>
    </clipPath>
    <clipPath id="clip-path-2" transform="translate(-510.285 -228.266)">
      <rect class="cls-1" x="711.75" y="251.417" width="140.833" height="255.167"/>
    </clipPath>
  </defs>
  <title>magphase11</title>
  <g>
    <polyline class="cls-2" points="16.382 278.234 16.382 23.151 157.048 23.151 157.048 278.234 16.382 278.234"/>
    <path class="cls-3" d="M526.667,506.5V251.417m0,0h0M561.833,506.5V251.417m0,0h0M597,506.5V251.417m0,0h0M632.167,506.5V251.417m0,0h0M667.333,506.5V251.417m0,0h0M526.667,506.5H667.333m0,0h0M526.667,480.917H667.333m0,0h0m-140.666-25.5H667.333m0,0h0m-140.666-25.5H667.333m0,0h0m-140.666-25.5H667.333m0,0h0m-140.666-25.5H667.333m0,0h0m-140.666-25.5H667.333m0,0h0m-140.666-25.5H667.333m0,0h0m-140.666-25.5H667.333m0,0h0m-140.666-25.5H667.333m0,0h0m-140.666-25.5H667.333m0,0h0" transform="translate(-510.285 -228.266)"/>
    <path class="cls-4" d="M526.667,251.417H667.333M526.667,506.5H667.333m0,0V251.417M526.667,506.5V251.417m0,255.083H667.333m-140.666,0V251.417m0,255.083v-2.583m0-252.5v2.5" transform="translate(-510.285 -228.266)"/>
    <path class="cls-4" d="M561.833,506.5v-2.583m0-252.5v2.5" transform="translate(-510.285 -228.266)"/>
    <path class="cls-4" d="M597,506.5v-2.583m0-252.5v2.5" transform="translate(-510.285 -228.266)"/>
    <path class="cls-5" d="M595.249,517.839a6,6,0,0,1,0-5.345,2.162,2.162,0,0,1,3.566,0,6.026,6.026,0,0,1,0,5.345,2.165,2.165,0,0,1-3.566,0Zm2.893-.557a6.3,6.3,0,0,0,0-4.231,1.193,1.193,0,0,0-1.114-.705,1.178,1.178,0,0,0-1.1.705,6.217,6.217,0,0,0,0,4.231,1.178,1.178,0,0,0,1.1.7A1.193,1.193,0,0,0,598.142,517.282Z" transform="translate(-510.285 -228.266)"/>
    <path class="cls-4" d="M632.167,506.5v-2.583m0-252.5v2.5" transform="translate(-510.285 -228.266)"/>
    <path class="cls-4" d="M667.333,506.5v-2.583m0-252.5v2.5" transform="translate(-510.285 -228.266)"/>
    <path class="cls-4" d="M526.667,506.5h2.5m138.166,0H664.75" transform="translate(-510.285 -228.266)"/>
    <path class="cls-5" d="M519.249,509.425a6,6,0,0,1,0-5.345,2.162,2.162,0,0,1,3.566,0,6.026,6.026,0,0,1,0,5.345,2.165,2.165,0,0,1-3.566,0Zm2.893-.557a6.3,6.3,0,0,0,0-4.231,1.193,1.193,0,0,0-1.114-.7,1.178,1.178,0,0,0-1.1.7,6.217,6.217,0,0,0,0,4.231,1.178,1.178,0,0,0,1.1.7A1.193,1.193,0,0,0,522.142,508.868Z" transform="translate(-510.285 -228.266)"/>
    <path class="cls-4" d="M526.667,480.917h2.5m138.166,0H664.75" transform="translate(-510.285 -228.266)"/>
    <g>
      <path class="cls-5" d="M510.913,483.831a6,6,0,0,1,0-5.345,2.162,2.162,0,0,1,3.566,0,6.026,6.026,0,0,1,0,5.345,2.164,2.164,0,0,1-3.566,0Zm2.893-.557a6.3,6.3,0,0,0,0-4.231,1.193,1.193,0,0,0-1.114-.7,1.178,1.178,0,0,0-1.1.7,6.217,6.217,0,0,0,0,4.231,1.179,1.179,0,0,0,1.1.7A1.194,1.194,0,0,0,513.806,483.274Z" transform="translate(-510.285 -228.266)"/>
      <path class="cls-5" d="M516.345,483.519h1.045v1.059h-1.045Z" transform="translate(-510.285 -228.266)"/>
    </g>
    <path class="cls-5" d="M520.078,479.588h-1.645v-.7a1.9,1.9,0,0,0,1.181-.313,1.938,1.938,0,0,0,.679-1.025h.718v7.031h-.933Z" transform="translate(-510.285 -228.266)"/>
    <path class="cls-4" d="M526.667,455.417h2.5m138.166,0H664.75" transform="translate(-510.285 -228.266)"/>
    <g>
      <path class="cls-5" d="M510.913,458.339a6,6,0,0,1,0-5.345,2.162,2.162,0,0,1,3.566,0,6.026,6.026,0,0,1,0,5.345,2.165,2.165,0,0,1-3.566,0Zm2.893-.557a6.3,6.3,0,0,0,0-4.231,1.193,1.193,0,0,0-1.114-.7,1.178,1.178,0,0,0-1.1.7,6.217,6.217,0,0,0,0,4.231,1.178,1.178,0,0,0,1.1.7A1.193,1.193,0,0,0,513.806,457.782Z" transform="translate(-510.285 -228.266)"/>
      <path class="cls-5" d="M516.345,458.026h1.045v1.06h-1.045Z" transform="translate(-510.285 -228.266)"/>
    </g>
    <path class="cls-5" d="M522.5,454.125a1.99,1.99,0,0,1-.4,1.277,5.127,5.127,0,0,1-1.5,1.106,5.56,5.56,0,0,0-1.626,1.2,2.168,2.168,0,0,0-.3.527H522.5v.855h-4.814a2.862,2.862,0,0,1,.551-1.814,6.93,6.93,0,0,1,2.071-1.54,3.436,3.436,0,0,0,1.006-.752,1.387,1.387,0,0,0,.268-.881,1.173,1.173,0,0,0-.4-.919,1.48,1.48,0,0,0-1.026-.358,1.265,1.265,0,0,0-1.027.449,2.024,2.024,0,0,0-.4,1.27h-.855a2.45,2.45,0,0,1,.62-1.823,2.36,2.36,0,0,1,1.782-.662,2.258,2.258,0,0,1,1.6.581A1.939,1.939,0,0,1,522.5,454.125Z" transform="translate(-510.285 -228.266)"/>
    <path class="cls-4" d="M526.667,429.917h2.5m138.166,0H664.75" transform="translate(-510.285 -228.266)"/>
    <g>
      <path class="cls-5" d="M510.913,432.839a6,6,0,0,1,0-5.345,2.162,2.162,0,0,1,3.566,0,6.026,6.026,0,0,1,0,5.345,2.165,2.165,0,0,1-3.566,0Zm2.893-.557a6.3,6.3,0,0,0,0-4.231,1.193,1.193,0,0,0-1.114-.7,1.178,1.178,0,0,0-1.1.7,6.217,6.217,0,0,0,0,4.231,1.178,1.178,0,0,0,1.1.7A1.193,1.193,0,0,0,513.806,432.282Z" transform="translate(-510.285 -228.266)"/>
      <path class="cls-5" d="M516.345,432.526h1.045v1.06h-1.045Z" transform="translate(-510.285 -228.266)"/>
    </g>
    <path class="cls-5" d="M521.484,428.467a1.015,1.015,0,0,0-.378-.816,1.463,1.463,0,0,0-.969-.315,1.2,1.2,0,0,0-.957.383,1.837,1.837,0,0,0-.367,1.145h-.854a2.365,2.365,0,0,1,.579-1.706,2.161,2.161,0,0,1,1.638-.6,2.477,2.477,0,0,1,1.614.5,1.721,1.721,0,0,1-.257,2.815,1.98,1.98,0,0,1,.449.269,1.679,1.679,0,0,1,.66,1.4,2.09,2.09,0,0,1-.684,1.613,2.917,2.917,0,0,1-3.54.059,2.453,2.453,0,0,1-.654-1.74h.918a1.87,1.87,0,0,0,.435,1.174,1.807,1.807,0,0,0,2.176-.02,1.229,1.229,0,0,0,.416-.959,1.249,1.249,0,0,0-.4-.976,1.414,1.414,0,0,0-.879-.352c-.166-.01-.324-.015-.472-.015a1.4,1.4,0,0,0-.295.02v-.767a1.576,1.576,0,0,0,.332.025,3.268,3.268,0,0,0,.444-.03,1.283,1.283,0,0,0,.689-.279A1,1,0,0,0,521.484,428.467Z" transform="translate(-510.285 -228.266)"/>
    <path class="cls-4" d="M526.667,404.417h2.5m138.166,0H664.75" transform="translate(-510.285 -228.266)"/>
    <g>
      <path class="cls-5" d="M510.913,407.339a6,6,0,0,1,0-5.345,2.162,2.162,0,0,1,3.566,0,6.026,6.026,0,0,1,0,5.345,2.165,2.165,0,0,1-3.566,0Zm2.893-.557a6.3,6.3,0,0,0,0-4.231,1.193,1.193,0,0,0-1.114-.7,1.178,1.178,0,0,0-1.1.7,6.217,6.217,0,0,0,0,4.231,1.178,1.178,0,0,0,1.1.7A1.193,1.193,0,0,0,513.806,406.782Z" transform="translate(-510.285 -228.266)"/>
      <path class="cls-5" d="M516.345,407.026h1.045v1.06h-1.045Z" transform="translate(-510.285 -228.266)"/>
    </g>
    <path class="cls-5" d="M517.671,406.4v-.82l3.252-4.526h.732v4.594h1v.752h-1v1.685h-.884V406.4Zm3.1-.752v-3.2l-2.241,3.136-.049.068Z" transform="translate(-510.285 -228.266)"/>
    <path class="cls-4" d="M526.667,378.917h2.5m138.166,0H664.75" transform="translate(-510.285 -228.266)"/>
    <g>
      <path class="cls-5" d="M510.913,381.831a6,6,0,0,1,0-5.344,2.161,2.161,0,0,1,3.566,0,6.024,6.024,0,0,1,0,5.344,2.164,2.164,0,0,1-3.566,0Zm2.893-.557a6.3,6.3,0,0,0,0-4.231,1.193,1.193,0,0,0-1.114-.7,1.178,1.178,0,0,0-1.1.7,6.217,6.217,0,0,0,0,4.231,1.179,1.179,0,0,0,1.1.7A1.194,1.194,0,0,0,513.806,381.274Z" transform="translate(-510.285 -228.266)"/>
      <path class="cls-5" d="M516.345,381.519h1.045v1.059h-1.045Z" transform="translate(-510.285 -228.266)"/>
    </g>
    <path class="cls-5" d="M522.563,380.317a2.409,2.409,0,0,1-.676,1.766,2.332,2.332,0,0,1-1.736.686,2.576,2.576,0,0,1-1.694-.528,2,2,0,0,1-.713-1.455h.918a1.313,1.313,0,0,0,.473.906,1.644,1.644,0,0,0,1.058.32,1.334,1.334,0,0,0,1.036-.445,1.637,1.637,0,0,0,.4-1.142,1.6,1.6,0,0,0-.42-1.165,1.513,1.513,0,0,0-1.138-.432,1.624,1.624,0,0,0-.749.186,1.372,1.372,0,0,0-.55.473l-.742-.049.508-3.75h3.643v.855H519.2l-.3,1.924.029-.02a2.129,2.129,0,0,1,1.227-.4,2.475,2.475,0,0,1,1.765.615A2.162,2.162,0,0,1,522.563,380.317Z" transform="translate(-510.285 -228.266)"/>
    <path class="cls-4" d="M526.667,353.417h2.5m138.166,0H664.75" transform="translate(-510.285 -228.266)"/>
    <g>
      <path class="cls-5" d="M510.913,356.331a6,6,0,0,1,0-5.344,2.161,2.161,0,0,1,3.566,0,6.024,6.024,0,0,1,0,5.344,2.164,2.164,0,0,1-3.566,0Zm2.893-.557a6.3,6.3,0,0,0,0-4.231,1.193,1.193,0,0,0-1.114-.7,1.178,1.178,0,0,0-1.1.7,6.217,6.217,0,0,0,0,4.231,1.179,1.179,0,0,0,1.1.7A1.194,1.194,0,0,0,513.806,355.774Z" transform="translate(-510.285 -228.266)"/>
      <path class="cls-5" d="M516.345,356.019h1.045v1.059h-1.045Z" transform="translate(-510.285 -228.266)"/>
    </g>
    <path class="cls-5" d="M520.4,350.047a2.114,2.114,0,0,1,1.477.5,1.9,1.9,0,0,1,.588,1.38h-.869a1.1,1.1,0,0,0-1.2-1.089,1.373,1.373,0,0,0-1.255.781,3.965,3.965,0,0,0-.42,1.821,2.032,2.032,0,0,1,1.67-.835,2.1,2.1,0,0,1,1.6.643,2.36,2.36,0,0,1,.608,1.691,2.244,2.244,0,0,1-.662,1.69,2.4,2.4,0,0,1-1.741.64,2.035,2.035,0,0,1-1.775-.892,4.393,4.393,0,0,1-.622-2.536,4.926,4.926,0,0,1,.678-2.808A2.183,2.183,0,0,1,520.4,350.047Zm-1.568,4.892a1.57,1.57,0,0,0,.4,1.109,1.432,1.432,0,0,0,2.046,0,1.745,1.745,0,0,0,0-2.219,1.425,1.425,0,0,0-2.048,0A1.572,1.572,0,0,0,518.828,354.939Z" transform="translate(-510.285 -228.266)"/>
    <path class="cls-4" d="M526.667,327.917h2.5m138.166,0H664.75" transform="translate(-510.285 -228.266)"/>
    <g>
      <path class="cls-5" d="M510.913,330.839a6,6,0,0,1,0-5.344,2.161,2.161,0,0,1,3.566,0,6.024,6.024,0,0,1,0,5.344,2.165,2.165,0,0,1-3.566,0Zm2.893-.557a6.3,6.3,0,0,0,0-4.231,1.193,1.193,0,0,0-1.114-.7,1.178,1.178,0,0,0-1.1.7,6.217,6.217,0,0,0,0,4.231,1.178,1.178,0,0,0,1.1.7A1.193,1.193,0,0,0,513.806,330.282Z" transform="translate(-510.285 -228.266)"/>
      <path class="cls-5" d="M516.345,330.526h1.045v1.06h-1.045Z" transform="translate(-510.285 -228.266)"/>
    </g>
    <path class="cls-5" d="M518.809,331.586a12.459,12.459,0,0,1,2.9-6.035h-3.918V324.7h4.858v.782a12.873,12.873,0,0,0-1.855,2.851,12.716,12.716,0,0,0-1.006,3.257Z" transform="translate(-510.285 -228.266)"/>
    <path class="cls-4" d="M526.667,302.417h2.5m138.166,0H664.75" transform="translate(-510.285 -228.266)"/>
    <g>
      <path class="cls-5" d="M510.913,305.339a6,6,0,0,1,0-5.344,2.161,2.161,0,0,1,3.566,0,6.024,6.024,0,0,1,0,5.344,2.165,2.165,0,0,1-3.566,0Zm2.893-.557a6.3,6.3,0,0,0,0-4.231,1.193,1.193,0,0,0-1.114-.7,1.178,1.178,0,0,0-1.1.7,6.217,6.217,0,0,0,0,4.231,1.178,1.178,0,0,0,1.1.7A1.193,1.193,0,0,0,513.806,304.782Z" transform="translate(-510.285 -228.266)"/>
      <path class="cls-5" d="M516.345,305.026h1.045v1.06h-1.045Z" transform="translate(-510.285 -228.266)"/>
    </g>
    <path class="cls-5" d="M521.416,302.365a2.354,2.354,0,0,1,.518.318,1.719,1.719,0,0,1,.659,1.406,2.046,2.046,0,0,1-.659,1.587,2.816,2.816,0,0,1-3.475,0,2.047,2.047,0,0,1-.656-1.587,1.729,1.729,0,0,1,.659-1.411,2.228,2.228,0,0,1,.508-.308,3.263,3.263,0,0,1-.337-.215,1.458,1.458,0,0,1-.591-1.211,1.733,1.733,0,0,1,.593-1.369,2.6,2.6,0,0,1,3.12,0,1.73,1.73,0,0,1,.594,1.369,1.455,1.455,0,0,1-.6,1.211A1.8,1.8,0,0,1,521.416,302.365Zm-1.221.4a1.477,1.477,0,0,0-1.052.383,1.29,1.29,0,0,0-.408.984,1.274,1.274,0,0,0,.408.976,1.647,1.647,0,0,0,2.107,0,1.272,1.272,0,0,0,.41-.976,1.3,1.3,0,0,0-.41-.986A1.488,1.488,0,0,0,520.2,302.761Zm0-.762a1.284,1.284,0,0,0,.879-.3,1.05,1.05,0,0,0,0-1.551,1.43,1.43,0,0,0-1.758,0,1.055,1.055,0,0,0,0,1.553A1.288,1.288,0,0,0,520.2,302Z" transform="translate(-510.285 -228.266)"/>
    <path class="cls-4" d="M526.667,276.917h2.5m138.166,0H664.75" transform="translate(-510.285 -228.266)"/>
    <g>
      <path class="cls-5" d="M510.913,279.839a6,6,0,0,1,0-5.344,2.161,2.161,0,0,1,3.566,0,6.024,6.024,0,0,1,0,5.344,2.165,2.165,0,0,1-3.566,0Zm2.893-.557a6.3,6.3,0,0,0,0-4.231,1.193,1.193,0,0,0-1.114-.7,1.178,1.178,0,0,0-1.1.7,6.217,6.217,0,0,0,0,4.231,1.178,1.178,0,0,0,1.1.7A1.193,1.193,0,0,0,513.806,279.282Z" transform="translate(-510.285 -228.266)"/>
      <path class="cls-5" d="M516.345,279.526h1.045v1.06h-1.045Z" transform="translate(-510.285 -228.266)"/>
    </g>
    <path class="cls-5" d="M520.015,280.776a2.137,2.137,0,0,1-1.487-.5,1.88,1.88,0,0,1-.593-1.38h.849a1.26,1.26,0,0,0,.374.838,1.213,1.213,0,0,0,.857.3,1.333,1.333,0,0,0,1.22-.883,5.12,5.12,0,0,0,.406-1.734,2.016,2.016,0,0,1-1.626.806,2.052,2.052,0,0,1-1.575-.642,2.385,2.385,0,0,1-.6-1.692,2.267,2.267,0,0,1,.649-1.69,2.339,2.339,0,0,1,1.714-.639,2.066,2.066,0,0,1,1.746.8,3.7,3.7,0,0,1,.612,2.283,5.846,5.846,0,0,1-.664,3.061A2.1,2.1,0,0,1,520.015,280.776Zm1.523-4.892a1.594,1.594,0,0,0-.386-1.109,1.371,1.371,0,0,0-1.992,0,1.789,1.789,0,0,0,0,2.22,1.361,1.361,0,0,0,1.992,0A1.591,1.591,0,0,0,521.538,275.884Z" transform="translate(-510.285 -228.266)"/>
    <path class="cls-4" d="M526.667,251.417h2.5m138.166,0H664.75" transform="translate(-510.285 -228.266)"/>
    <path class="cls-5" d="M520.906,250.088h-1.645v-.7a1.9,1.9,0,0,0,1.181-.313,1.927,1.927,0,0,0,.679-1.025h.718v7.031h-.933Z" transform="translate(-510.285 -228.266)"/>
    <path class="cls-4" d="M526.667,251.417H667.333M526.667,506.5H667.333m0,0V251.417M526.667,506.5V251.417" transform="translate(-510.285 -228.266)"/>
    <g class="cls-6">
      <path class="cls-7" d="M554.917,483.833l.083.584.167.583.166.583.167.667.083.75.167.667.167.75.083.75.167.833.166.75.084.833.166.917.167.833.083.917.167.917.167.916.083.917.167,1,.166,1,.167,1,.083,1,.167,1,.167,1,.083,1.083.167,1,.166,1.084.084-.5.166-1.084.167-1,.083-1.083.167-1.083.167-1.084.083-1.083.167-1.083.166-1.084.167-1,.083-1.083.167-1.083.167-1,.083-1,.167-1.084.166-1,.084-1,.166-.916.167-1,.083-.917.167-.917.167-.916.166-.917.084-.833.166-.834.167-.833.083-.75.167-.833.167-.667.083-.75.167-.667.166-.666.084-.584.167-.583.166-.583.084-.5.166-.5.167-.417.167-.417.083-.416.167-.334.166-.25.084-.25.166-.25.167-.166L565,471l.167-.083.167-.084h.083l.167.084h.166l.084.166.166.167.167.167.167.25.083.25.167.333.166.417.084.416.166.417.167.5.083.583.167.584.167.666.083.667.167.667.166.75.084.833.166.833.167.834.167.916.083.917.167,1,.166,1,.084,1.083.166,1.084.167,1.166.083,1.167.167,1.167.167,1.166.083,1.25.167,1.334.166,1.25.084,1.333.166,1.417.167,1.333.167,1.417.083,1.416.167,1.417.166,1.5.084,1.417.166-.917.167-1.5.083-1.5.167-1.583.167-1.5.083-1.5.167-1.584.166-1.5.084-1.583.166-1.583.167-1.5.167-1.584.083-1.5.167-1.5.166-1.583.084-1.5.166-1.5.167-1.5.083-1.417.167-1.5.167-1.416.083-1.417.167-1.417.166-1.333.084-1.333.166-1.334.167-1.25.167-1.25.083-1.25.167-1.166.166-1.084.084-1.166.166-1,.167-1.084.083-.916.167-.917.167-.917.083-.833.167-.75.166-.75.084-.667.166-.666.167-.584.167-.5.083-.416.167-.417.166-.333.084-.25.166-.25.167-.084.083-.083h.334l.083.167.167.166.166.334.167.333.083.417.167.416.167.584.083.666.167.667.167.833.083.834.167.916.166,1,.084,1.084.166,1.166.167,1.25.083,1.334.167,1.333.167,1.5.166,1.5.084,1.667.166,1.666.167,1.75.083,1.917.167,1.917.167,1.916.083,2.084.167,2.166.166,2.167.084,2.333.166,2.334.167,2.416.083,2.5.167,2.5.167,2.667.166,2.667.084,2.75.166,2.75.167-2.334.083-2.916.167-3,.167-3,.083-3.167.167-3.083.166-3.25.084-3.25.166-3.25.167-3.417.083-3.333.167-3.5L586,465.25l.166-3.583.084-3.5.166-3.584.167-3.666.083-3.667.167-3.667.167-3.666.083-3.75.167-3.75.166-3.75.084-3.834.166-3.833.167-3.75.083-3.833.167-3.834.167-3.916.166-3.834L588.5,398l.166-3.833.167-3.834.083-3.833.167-3.833.167-3.834.083-3.75.167-3.833.166-3.75.084-3.75.166-3.667.167-3.75.083-3.666.167-3.584.167-3.583.166-3.583.084-3.5.166-3.5.167-3.5.083-3.334.167-3.333.167-3.333.083-3.25.167-3.167.166-3.167L592,308.75l.166-3,.167-2.917.083-2.916.167-2.834.167-2.75.166-2.666.084-2.584.166-2.5.167-2.5.083-2.333.167-2.333.167-2.25.083-2.084L594,273l.166-1.917.084-1.916.166-1.75.167-1.75.083-1.584.167-1.5.167-1.416.166-1.334.084-1.25.166-1.166.167-1,.083-1,.167-.834.167-.75.083-.666.167-.5.166-.5.084-.334.166-.25.167-.166h.083M526.667,483.25h.083l.167.083.166.084.084.083.166.083.167.167.083.167.167.25.167.166.083.334.167.25.166.333.084.333.166.334.167.416.167.334.083.5.167.416.166.5.084.5.166.5.167.5.083.584.167.583.167.583.083.667.167.583.166.667.084.667.166.666.167.75.167.667.083.75.167.75.166.75.084.75.166.75.167.75.083.75.167.833.167.75.083.834.167.833.166.75.084.833.166-.083.167-.833.167-.75.083-.834.167-.833.166-.75.084-.833.166-.75.167-.834.083-.75.167-.75.167-.75.083-.75.167-.75.167-.75.083-.75.167-.666L535.5,493l.167-.667.083-.666.167-.667.167-.583.083-.667.167-.583.166-.5.084-.584.166-.5.167-.5.083-.5.167-.5.167-.416.083-.417.167-.333.166-.417.167-.333.083-.25.167-.334.167-.25.083-.25.167-.166.166-.167.084-.167L539,482.5l.167-.083.083-.084.167-.083h.167l.083.083h.167l.166.084.167.166.083.084.167.166.167.25.083.167.167.25.166.333.084.25.166.334.167.416.083.334.167.416.167.417.083.5.167.5.166.5.167.5.083.583.167.584.167.583.083.667.167.666.166.667.084.667.166.666.167.75.083.75.167.75.167.75.166.75.084.834.166.75.167.833.083.833.167.834.167.916.083.834.167.833.166.917.084.833.166.917.167-.25L546,505l.167-.833.167-.917.166-.917.084-.833.166-.917.167-.833.083-.917.167-.833.167-.833.083-.834.167-.833.166-.833.084-.834L548,493l.167-.75.083-.75.167-.833.167-.667.166-.75.084-.75.166-.667.167-.666.083-.667.167-.583.167-.667.083-.583.167-.5.166-.584.084-.5.166-.5.167-.416.083-.417.167-.417.167-.416.166-.334.084-.25.166-.333.167-.25.083-.25.167-.167.167-.166.083-.084.167-.166h.167l.083-.084h.167l.166.084h.084l.166.166.167.084.167.166.083.167.167.25.166.25.084.333.166.334.167.333.083.417.167.416.167.417.083.5.167.5.166.583m70.333-1.583.083-.917.167-.916.167-.834.166-.833.084-.833.166-.75.167-.667.083-.667.167-.666.167-.584.083-.583.167-.5.166-.417.084-.416.166-.417.167-.333.083-.25.167-.25.167-.167.166-.167.084-.166h.166l.167-.084h.083l.167.084.167.083.083.167.167.166.166.25.084.25.166.25.167.334.083.416.167.417.167.417.166.5.084.5.166.583.167.583.083.584.167.666.167.667.083.75.167.667.166.833.084.75.166.833.167.834.167.833.083.917.167.916.166.917.084.917.166,1,.167.916.083,1,.167,1,.167,1.084.083,1,.167,1,.166,1.083.084,1.083.166,1,.167,1.084.167,1.083.083,1.083.167,1.084.166,1.083.084,1.083.166,1,.167,1.084.083.5.167-1.084.167-1L635.75,503l.167-1,.166-1,.084-1,.166-1,.167-1,.167-1,.083-.917.167-.916.166-.917.084-.917.166-.833.167-.917.083-.833.167-.75.167-.833.083-.75.167-.75.166-.667.084-.75.166-.667.167-.583.167-.583.083-.584.167-.583.166-.5.084-.5.166-.417.167-.416.083-.417.167-.333.167-.334.083-.333.167-.25.166-.25.084-.167.166-.166.167-.084.167-.166h.083l.167-.084h.166l.084.084h.166l.167.166.083.084.167.166.167.167.083.25.167.25.166.333.084.25.166.334.167.416.167.417.083.417.167.416.166.5.084.5.166.584.167.5.083.583.167.667.167.583.083.667.167.666.166.667.084.75.166.75.167.667.167.833.083.75.167.75.166.833.084.834.166.833.167.833.083.834.167.833.167.833.083.917.167.833.166.917.084.833.166.917.167.917.167.833.083.917.167.25.166-.917.084-.833.166-.917.167-.833.083-.834.167-.916.167-.834.083-.833.167-.833.166-.75.167-.834.083-.75.167-.75.167-.75.083-.75.167-.75.166-.666.084-.667.166-.667.167-.666.083-.667.167-.583.167-.584L651.5,488l.167-.5.166-.5.167-.5.083-.5.167-.417.167-.416.083-.334.167-.416.166-.334.084-.25.166-.333.167-.25.083-.167.167-.25.167-.166.083-.084.167-.166.166-.084h.167l.083-.083h.167l.167.083.083.084.167.083.166.083.084.167.166.167.167.166.083.25.167.25.167.334.083.25.167.333.166.417.167.333.083.417.167.416.167.5.083.5.167.5.166.5.084.584.166.5.167.583.083.667L658,491l.167.667.083.666.167.667.166.667.167.666.083.75.167.75.167.75.083.75.167.75.166.75.084.75.166.834.167.75.083.833.167.75.167.833.083.834.167.75.166.833.167.083.083-.833.167-.75.167-.833.083-.834.167-.75.166-.833.084-.75.166-.75.167-.75.083-.75.167-.75.167-.75.083-.75.167-.667.166-.75.167-.666.083-.667.167-.667.167-.583.083-.667.167-.583.166-.583.084-.584.166-.5.167-.5.083-.5.167-.5.167-.416.083-.5.167-.334.166-.416.167-.334.083-.333.167-.333.167-.25.083-.334.167-.166.166-.25.084-.167.166-.167.167-.083.083-.083.167-.084.167-.083h.166M597,251.417h.083l.167.166.167.25.083.334.167.5.166.5.084.666.166.75.167.834.083,1,.167,1,.167,1.166.083,1.25.167,1.334.166,1.416.167,1.5.083,1.584.167,1.75.167,1.75.083,1.916.167,1.917.166,2.083.084,2.084.166,2.25.167,2.333.083,2.333.167,2.5.167,2.5.083,2.584.167,2.666.166,2.75.167,2.834.083,2.916.167,2.917.167,3,.083,3.083.167,3.167.166,3.167.084,3.25.166,3.333.167,3.333.083,3.334.167,3.5.167,3.5.083,3.5.167,3.583.166,3.583.167,3.584.083,3.666.167,3.75.167,3.667.083,3.75.167,3.75.166,3.833.084,3.75.166,3.834L605,386.5l.083,3.833.167,3.834.167,3.833.083,3.833.167,3.834.167,3.916.166,3.834.084,3.833.166,3.75.167,3.833.083,3.834.167,3.75.167,3.75.083,3.75.167,3.666.166,3.667.084,3.667.166,3.666.167,3.584.083,3.5.167,3.583.167,3.417.166,3.5.084,3.333.166,3.417.167,3.25.083,3.25.167,3.25.167,3.083.083,3.167.167,3,.166,3,.084,2.916.166,2.334.167-2.75.083-2.75.167-2.667.167-2.667.166-2.5.084-2.5.166-2.416.167-2.334L611,483.25l.167-2.167.167-2.166.083-2.084.167-1.916L611.75,473l.084-1.917.166-1.75.167-1.666L612.25,466l.167-1.5.167-1.5.166-1.333.084-1.334.166-1.25.167-1.166.083-1.084.167-1,.167-.916.083-.834.167-.833.166-.667.084-.666.166-.584.167-.416.167-.417.083-.333.167-.334.166-.166.084-.167h.333l.083.083.167.084.167.25.083.25.167.333.166.417.084.416.166.5.167.584.167.666.083.667.167.75.166.75.084.833.166.917.167.917.083.916.167,1.084.167,1,.083,1.166.167,1.084.166,1.166.084,1.25.166,1.25.167,1.25.167,1.334.083,1.333.167,1.333.166,1.417.084,1.417.166,1.416.167,1.5L620,479.25l.167,1.5.167,1.5.083,1.5.167,1.583.166,1.5.084,1.5.166,1.584.167,1.5.167,1.583.083,1.583.167,1.5.166,1.584.084,1.5.167,1.5.166,1.583.084,1.5.166,1.5.167.917.083-1.417.167-1.5.167-1.417.083-1.416.167-1.417.166-1.333.167-1.417.083-1.333.167-1.25.167-1.334.083-1.25.167-1.166.166-1.167.084-1.167.166-1.166.167-1.084.083-1.083.167-1,.167-1" transform="translate(-510.285 -228.266)"/>
    </g>
    <g>
      <path class="cls-5" d="M568.773,530.5v-7.178h4.971v.86h-4v2.192h3.5v.859h-3.5V530.5h-.972Z" transform="translate(-510.285 -228.266)"/>
      <path class="cls-5" d="M574.931,523.322h.971V530.5h-.971Z" transform="translate(-510.285 -228.266)"/>
      <path class="cls-5" d="M577.67,525.329h1.045v1.06H577.67Zm0,4.111h1.045v1.06H577.67Z" transform="translate(-510.285 -228.266)"/>
    </g>
    <g>
      <path class="cls-5" d="M553.5,239h-.942v-7.178h1.4l2.053,6.109h0l2.034-6.109h1.4V239H558.5v-6.074h0L556.472,239h-.938l-2.029-6.055h0Z" transform="translate(-510.285 -228.266)"/>
      <path class="cls-5" d="M562.185,239.142a1.73,1.73,0,0,1-1.216-.411,1.424,1.424,0,0,1-.449-1.108,1.494,1.494,0,0,1,.422-1.118,2.081,2.081,0,0,1,1.233-.518l1.2-.151a1.807,1.807,0,0,0,.278-.049.445.445,0,0,0,.264-.176.561.561,0,0,0,.093-.332v-.044a.772.772,0,0,0-.318-.656,1.448,1.448,0,0,0-.883-.237,1.3,1.3,0,0,0-.847.251,1.106,1.106,0,0,0-.369.75h-.811a1.727,1.727,0,0,1,.606-1.292,2.44,2.44,0,0,1,1.553-.432,2.224,2.224,0,0,1,1.45.413,1.473,1.473,0,0,1,.5,1.2v2.871a.276.276,0,0,0,.3.293,1.057,1.057,0,0,0,.114-.009c.051-.007.105-.016.164-.03V239a1.614,1.614,0,0,1-.269.078,1.183,1.183,0,0,1-.239.03.885.885,0,0,1-.723-.274,1.155,1.155,0,0,1-.209-.513,1.9,1.9,0,0,1-.225.235A2.329,2.329,0,0,1,562.185,239.142Zm1.821-2.212v-.567a1.872,1.872,0,0,1-.542.161l-.806.118a2.16,2.16,0,0,0-.928.3.655.655,0,0,0-.292.564.905.905,0,0,0,.239.676.922.922,0,0,0,.678.237,1.835,1.835,0,0,0,1.172-.376,1.269,1.269,0,0,0,.435-.6.948.948,0,0,0,.029-.2A2.98,2.98,0,0,0,564.006,236.93Z" transform="translate(-510.285 -228.266)"/>
      <path class="cls-5" d="M568.283,240.479a1.412,1.412,0,0,0,1.153-.476,2.128,2.128,0,0,0,.395-1.389v-.171l0,0a1.711,1.711,0,0,1-1.416.694,2.021,2.021,0,0,1-1.67-.784,3.323,3.323,0,0,1-.62-2.117,2.849,2.849,0,0,1,.61-1.9,1.989,1.989,0,0,1,1.6-.723,1.715,1.715,0,0,1,1.494.816l.064.092v-.752h.825v4.839a2.807,2.807,0,0,1-.6,1.958,2.365,2.365,0,0,1-1.816.635,2.228,2.228,0,0,1-1.411-.41,1.749,1.749,0,0,1-.63-1.192h.9a1.018,1.018,0,0,0,.374.647A1.2,1.2,0,0,0,568.283,240.479Zm.171-6.059a1.239,1.239,0,0,0-1.077.469,2.574,2.574,0,0,0-.339,1.489,2.539,2.539,0,0,0,.369,1.482,1.2,1.2,0,0,0,1.047.52,1.264,1.264,0,0,0,1.03-.479,1.931,1.931,0,0,0,.391-1.264,3.133,3.133,0,0,0-.354-1.663A1.18,1.18,0,0,0,568.454,234.42Z" transform="translate(-510.285 -228.266)"/>
      <path class="cls-5" d="M571.931,233.775h.835v.772l.2-.259a1.775,1.775,0,0,1,3.232,1.133V239h-.879v-3.281a1.5,1.5,0,0,0-.266-.994,1.085,1.085,0,0,0-.861-.305,1.2,1.2,0,0,0-1.006.481,2.074,2.074,0,0,0-.371,1.3V239h-.879Z" transform="translate(-510.285 -228.266)"/>
      <path class="cls-5" d="M577.512,231.822h.9v1h-.9Zm.009,1.953h.879V239h-.879Z" transform="translate(-510.285 -228.266)"/>
      <path class="cls-5" d="M581.633,239a4.827,4.827,0,0,1-.654.068,1.077,1.077,0,0,1-.813-.253,1.275,1.275,0,0,1-.237-.874v-3.443h-.723v-.718h.723v-1.464h.879v1.464h.825v.718h-.825v3.443a.326.326,0,0,0,.139.278.618.618,0,0,0,.373.1h.313Z" transform="translate(-510.285 -228.266)"/>
      <path class="cls-5" d="M583.4,237.145a1.433,1.433,0,0,0,.254.949,1.044,1.044,0,0,0,.825.291,1.194,1.194,0,0,0,1.006-.491,2.151,2.151,0,0,0,.371-1.331v-2.788h.879V239H585.9v-.8a2.217,2.217,0,0,1-.195.269,1.763,1.763,0,0,1-1.406.669,1.573,1.573,0,0,1-1.778-1.778v-3.589h.879Z" transform="translate(-510.285 -228.266)"/>
      <path class="cls-5" d="M590.046,239.142a2.021,2.021,0,0,1-1.67-.784,3.317,3.317,0,0,1-.62-2.117,2.877,2.877,0,0,1,.6-1.9,1.942,1.942,0,0,1,1.568-.723,1.757,1.757,0,0,1,1.523.816l.069.1v-2.71h.879V239h-.816v-.713l-.112.161A1.717,1.717,0,0,1,590.046,239.142Zm.049-4.732a1.243,1.243,0,0,0-1.079.471,3.317,3.317,0,0,0,.026,2.986,1.213,1.213,0,0,0,1.053.523,1.263,1.263,0,0,0,1.03-.481,1.96,1.96,0,0,0,.391-1.272,3.07,3.07,0,0,0-.369-1.648A1.177,1.177,0,0,0,590.1,234.41Z" transform="translate(-510.285 -228.266)"/>
      <path class="cls-5" d="M595.744,239.142a2.229,2.229,0,0,1-1.743-.7,2.793,2.793,0,0,1-.635-1.943,3.1,3.1,0,0,1,.672-2.1,2.259,2.259,0,0,1,1.8-.779,2.043,2.043,0,0,1,1.655.762,3.04,3.04,0,0,1,.63,2l-.01.312H594.3a2.26,2.26,0,0,0,.357,1.192,1.363,1.363,0,0,0,1.171.5,1.415,1.415,0,0,0,.878-.283,1.146,1.146,0,0,0,.459-.723h.869a2.2,2.2,0,0,1-.781,1.311A2.4,2.4,0,0,1,595.744,239.142Zm1.467-3.155a1.961,1.961,0,0,0-.361-1.133,1.256,1.256,0,0,0-1.045-.449,1.349,1.349,0,0,0-1.109.518,1.985,1.985,0,0,0-.4,1.064Z" transform="translate(-510.285 -228.266)"/>
      <path class="cls-5" d="M602.248,241.5v-10h.728v10Z" transform="translate(-510.285 -228.266)"/>
      <path class="cls-5" d="M604.714,231.822h2.949a2.679,2.679,0,0,1,2.175.974,3.976,3.976,0,0,1,.808,2.62,3.892,3.892,0,0,1-.827,2.612,2.784,2.784,0,0,1-2.234.972h-2.871Zm.972,6.348h1.777a1.94,1.94,0,0,0,1.614-.718,3.208,3.208,0,0,0,.569-2.036,3.324,3.324,0,0,0-.547-2.043,1.837,1.837,0,0,0-1.553-.721h-1.86Z" transform="translate(-510.285 -228.266)"/>
    </g>
    <g>
      <path class="cls-5" d="M613.211,240.016H611.9v-.563a1.526,1.526,0,0,0,.945-.25,1.555,1.555,0,0,0,.543-.82h.574v5.625h-.746Z" transform="translate(-510.285 -228.266)"/>
      <path class="cls-5" d="M617.66,240.016h-1.316v-.563a1.526,1.526,0,0,0,.945-.25,1.549,1.549,0,0,0,.543-.82h.574v5.625h-.746Z" transform="translate(-510.285 -228.266)"/>
    </g>
    <g>
      <path class="cls-5" d="M620.593,236.363a6.787,6.787,0,0,1,.41-2.346,9.722,9.722,0,0,1,1.3-2.351h.6a11.282,11.282,0,0,0-1.042,2.383,8.317,8.317,0,0,0,0,4.639,11.2,11.2,0,0,0,1.042,2.377h-.6a9.676,9.676,0,0,1-1.3-2.353A6.807,6.807,0,0,1,620.593,236.363Z" transform="translate(-510.285 -228.266)"/>
      <path class="cls-5" d="M626.022,239.142a2.232,2.232,0,0,1-1.743-.7,2.793,2.793,0,0,1-.634-1.943,3.1,3.1,0,0,1,.671-2.1,2.262,2.262,0,0,1,1.8-.779,2.042,2.042,0,0,1,1.655.762,3.04,3.04,0,0,1,.63,2l-.01.312h-3.816a2.251,2.251,0,0,0,.356,1.192,1.364,1.364,0,0,0,1.171.5,1.415,1.415,0,0,0,.878-.283,1.146,1.146,0,0,0,.459-.723h.87a2.205,2.205,0,0,1-.782,1.311A2.4,2.4,0,0,1,626.022,239.142Zm1.467-3.155a1.954,1.954,0,0,0-.361-1.133,1.256,1.256,0,0,0-1.045-.449,1.351,1.351,0,0,0-1.109.518,1.976,1.976,0,0,0-.4,1.064Z" transform="translate(-510.285 -228.266)"/>
    </g>
    <path class="cls-5" d="M629.281,229.828h.7v4.75a1.177,1.177,0,0,1-.25.84,1.091,1.091,0,0,1-.812.258,2.1,2.1,0,0,1-.3-.02v-.613h.137a.641.641,0,0,0,.412-.1.487.487,0,0,0,.107-.369Zm-.008-1.562h.719v.8h-.719Z" transform="translate(-510.285 -228.266)"/>
    <path class="cls-5" d="M633.1,231.449a3.886,3.886,0,0,1,.625-2.371,1.39,1.39,0,0,1,1.132-.625,1.336,1.336,0,0,1,1.094.6,3.712,3.712,0,0,1,.633,2.285,3.449,3.449,0,0,1-.621,2.172,1.422,1.422,0,0,1-1.141.617,1.252,1.252,0,0,1-.648-.172,1.681,1.681,0,0,1-.52-.5,2.634,2.634,0,0,1-.347-.688A4.177,4.177,0,0,1,633.1,231.449Zm2.73-.277a5.768,5.768,0,0,0-.195-1.637,1.4,1.4,0,0,0-.395-.676.63.63,0,0,0-.414-.148.7.7,0,0,0-.488.207,1.369,1.369,0,0,0-.338.691,8.879,8.879,0,0,0-.154,1.563Zm-1.984.258a9.09,9.09,0,0,0,.1,1.25,2.362,2.362,0,0,0,.231.734.881.881,0,0,0,.285.318.684.684,0,0,0,.4.131.658.658,0,0,0,.475-.234,1.578,1.578,0,0,0,.34-.754,7.987,7.987,0,0,0,.138-1.445Z" transform="translate(-510.285 -228.266)"/>
    <path class="cls-5" d="M639.565,236.368a6.782,6.782,0,0,1-.41,2.346,9.685,9.685,0,0,1-1.3,2.351h-.6a11.225,11.225,0,0,0,1.042-2.382,8.317,8.317,0,0,0,0-4.639,11.156,11.156,0,0,0-1.042-2.378h.6a9.7,9.7,0,0,1,1.3,2.354A6.8,6.8,0,0,1,639.565,236.368Z" transform="translate(-510.285 -228.266)"/>
    <path class="cls-5" d="M641.185,241.5v-10h.727v10Z" transform="translate(-510.285 -228.266)"/>
    <polyline class="cls-2" points="201.465 278.234 201.465 23.151 342.215 23.151 342.215 278.234 201.465 278.234"/>
    <path class="cls-3" d="M711.75,506.5V251.417m0,0h0M746.917,506.5V251.417m0,0h0M782.083,506.5V251.417m0,0h0M817.25,506.5V251.417m0,0h0M852.5,506.5V251.417m0,0h0M711.75,506.5H852.5m0,0h0M711.75,378.917H852.5m0,0h0m-140.75-127.5H852.5m0,0h0" transform="translate(-510.285 -228.266)"/>
    <path class="cls-4" d="M711.75,251.417H852.5M711.75,506.5H852.5m0,0V251.417M711.75,506.5V251.417m0,255.083H852.5m-140.75,0V251.417m0,255.083v-2.583m0-252.5v2.5" transform="translate(-510.285 -228.266)"/>
    <path class="cls-4" d="M746.917,506.5v-2.583m0-252.5v2.5" transform="translate(-510.285 -228.266)"/>
    <path class="cls-4" d="M782.083,506.5v-2.583m0-252.5v2.5" transform="translate(-510.285 -228.266)"/>
    <path class="cls-5" d="M780.326,517.839a6.009,6.009,0,0,1,0-5.345,2.164,2.164,0,0,1,3.568,0,6.026,6.026,0,0,1,0,5.345,2.167,2.167,0,0,1-3.568,0Zm2.894-.557a6.3,6.3,0,0,0,0-4.231,1.191,1.191,0,0,0-1.114-.705,1.178,1.178,0,0,0-1.1.705,6.217,6.217,0,0,0,0,4.231,1.178,1.178,0,0,0,1.1.7A1.191,1.191,0,0,0,783.22,517.282Z" transform="translate(-510.285 -228.266)"/>
    <path class="cls-4" d="M817.25,506.5v-2.583m0-252.5v2.5" transform="translate(-510.285 -228.266)"/>
    <path class="cls-4" d="M852.5,506.5v-2.583m0-252.5v2.5" transform="translate(-510.285 -228.266)"/>
    <path class="cls-4" d="M711.75,506.5h2.5m138.25,0h-2.583" transform="translate(-510.285 -228.266)"/>
    <path class="cls-4" d="M711.75,378.917h2.5m138.25,0h-2.583" transform="translate(-510.285 -228.266)"/>
    <path class="cls-5" d="M704.326,381.831a6.007,6.007,0,0,1,0-5.344,2.163,2.163,0,0,1,3.568,0,6.024,6.024,0,0,1,0,5.344,2.166,2.166,0,0,1-3.568,0Zm2.894-.557a6.3,6.3,0,0,0,0-4.231,1.191,1.191,0,0,0-1.114-.7,1.178,1.178,0,0,0-1.1.7,6.217,6.217,0,0,0,0,4.231,1.179,1.179,0,0,0,1.1.7A1.192,1.192,0,0,0,707.22,381.274Z" transform="translate(-510.285 -228.266)"/>
    <path class="cls-4" d="M711.75,251.417h2.5m138.25,0h-2.583" transform="translate(-510.285 -228.266)"/>
    <path class="cls-4" d="M711.75,251.417H852.5M711.75,506.5H852.5m0,0V251.417M711.75,506.5V251.417" transform="translate(-510.285 -228.266)"/>
    <g class="cls-8">
      <path class="cls-7" d="M810.333,380.167l.167,1.333.167,1.25.166,1.25.084,1.333.166,1.25.167,1.25.083,1.25.167,1.334.167,1.25.083,1.25.167,1.333.166,1.25.084,1.25.166,1.333.167,1.25.167,1.25.083,1.25.167,1.334.166,1.25.084,1.25.166,1.333.167,1.25.083,1.25.167,1.333.167,1.25.083,1.25.167,1.334.166,1.25.084,1.25.166,1.25.167,1.333.167,1.25.083,1.25.167,1.333.166,1.25.084,1.25.166,1.334.167,1.25.083,1.25L816,431.25l.167,1.25.083,1.25.167,1.25.166,1.333.084,1.25.166,1.25.167,1.334.167,1.25.083,1.25.167,1.333.166,1.25.084,1.25.166,1.25.167,1.333.083,1.25.167,1.25.167,1.334.083,1.25.167,1.25.167,1.333L819,458l.084,1.25.166,1.333.167,1.25.083,1.25.167,1.25.167,1.334.083,1.25.167,1.25.166,1.333.084,1.25L820.5,344.5l.167,1.25.083,1.25.167,1.333.167,1.25.166,1.25.084,1.334.166,1.25.167,1.25L821.75,356l.167,1.25.167,1.25.083,1.25.167,1.333.166,1.25.084,1.25.166,1.334.167,1.25.083,1.25.167,1.333.167,1.25.166,1.25.084,1.25.166,1.333.167,1.25.083,1.25.167,1.334.167,1.25.083,1.25.167,1.333.166,1.25.084,1.25.166,1.333.167,1.25.167,1.25.083,1.25.167,1.334.166,1.25.084,1.25L826,394.25l.167,1.25.083,1.25.167,1.333.167,1.25.083,1.25.167,1.25.166,1.334.084,1.25.166,1.25.167,1.333.167,1.25.083,1.25.167,1.333.166,1.25.084,1.25.166,1.334.167,1.25.083,1.25.167,1.25.167,1.333.083,1.25.167,1.25.166,1.333.167,1.25.083,1.25.167,1.334.167,1.25.083,1.25.167,1.333.166,1.25.084,1.25L830.5,435l.167,1.333.083,1.25.167,1.25.167,1.334.083,1.25.167,1.25L831.5,444l.167,1.25.083,1.25.167,1.25.167,1.333.083,1.25.167,1.25.166,1.334.084,1.25.166,1.25.167,1.333L833,458l.167,1.25L833.334,333l.083,1.25.167,1.333.166,1.25.167,1.25.083,1.334.167,1.25.167,1.25.083,1.25.167,1.333.167,1.25.083,1.25.167,1.333.166,1.25.084,1.25.166,1.334.167,1.25.167,1.25.083,1.333.167,1.25.166,1.25.084,1.25.166,1.333.167,1.25.083,1.25.167,1.334.167,1.25.083,1.25.167,1.333.166,1.25.084,1.25.166,1.25.167,1.333.167,1.25.083,1.25.167,1.334.166,1.25.084,1.25.166,1.333.167,1.25.083,1.25.167,1.333.167,1.25.083,1.25.167,1.25.166,1.334.084,1.25.166,1.25.167,1.333.167,1.25.083,1.25.167,1.333.166,1.25.084,1.25.166,1.25.167,1.334.083,1.25.167,1.25L841.5,407l.083,1.25.167,1.25.166,1.333.167,1.25.083,1.25.167,1.334.167,1.25.083,1.25.167,1.25.166,1.333L843,421l.166,1.25.167,1.333.083,1.25.167,1.25.167,1.334.083,1.25.167,1.25.166,1.333.167,1.25.083,1.25.167,1.25.167,1.333.083,1.25.167,1.25.166,1.334.084,1.25.166,1.25.167,1.333.083,1.25.167,1.25.167,1.25.083-126.25.167,1.333.166,1.25.167,1.25.083,1.25.167,1.334.167,1.25.083,1.25.167,1.333.166,1.25.084,1.25.166,1.333.167,1.25.083,1.25.167,1.334.167,1.25.166,1.25.084,1.25.166,1.333.167,1.25.083,1.25.167,1.333.167,1.25.083,1.25.167,1.334.166,1.25.084,1.25.166,1.333.167,1.25.083,1.25.167,1.25.167,1.333.166,1.25.084,1.25.166,1.334.167,1.25.083,1.25.167,1.333L851.5,370l.083,1.25.167,1.25.166,1.333.084,1.25.166,1.25.167,1.334.167,1.25M768.25,381.5l.167,1.25.166,1.25.167,1.333.083,1.25.167,1.25.167,1.25.083,1.334.167-126.25.166,1.25.084,1.25.166,1.25L770,269.25l.083,1.25.167,1.25.167,1.333.166,1.25.084,1.25.166,1.334.167,1.25.083,1.25.167,1.333.167,1.25.083,1.25.167,1.25.166,1.333.084,1.25.166,1.25.167,1.334.083,1.25.167,1.25.167,1.333.166,1.25.084,1.25.166,1.25.167,1.333.083,1.25.167,1.25.167,1.334.083,1.25.167,1.25.166,1.333.084,1.25.166,1.25.167,1.333.083,1.25.167,1.25.167,1.25.166,1.334.084,1.25.166,1.25L775.5,319l.084,1.25.166,1.25.167,1.333.083,1.25.167,1.25.167,1.25.083,1.334.167,1.25.166,1.25.167,1.333L777,333l.167,1.25.167,1.333.083,1.25.167,1.25.166,1.334.084,1.25.166,1.25.167,1.25.083,1.333.167,1.25.167,1.25.083,1.333.167,1.25.166,1.25.167,1.334.083,1.25.167,1.25.167,1.333.083,1.25.167,1.25.166,1.25.084,1.333.166,1.25.167,1.25.083,1.334.167,1.25.167,1.25.083,1.333.167,1.25.166,1.25.167,1.25.083,1.333.167,1.25.167,1.25.083,1.334.167,1.25.166,1.25.084,1.333.166,1.25.167,1.25.083,1.333.167,1.25.167,1.25.166,1.25.084,1.334.166,1.25.167,1.25.083,1.333.167,1.25.167,1.25.083,1.333.167,1.25.166,1.25.084,1.25.166,1.334.167,1.25.083,1.25.167,1.333.167,1.25.166,1.25.084,1.333.166,1.25.167,1.25.083,1.334.167,1.25.167,1.25.083,1.25.167,1.333.166,1.25.084,1.25.166,1.333.167,1.25.083,1.25.167,1.334.167,1.25.166,1.25.084,1.333L788,432.5l.167,1.25.083,1.25.167,1.333.167,1.25.083,1.25.167,1.334.166,1.25.084,1.25L789.25,444l.167,1.25.167,1.25.083,1.25.167,1.333.166,1.25.084,1.25.166,1.334.167,1.25.083,1.25.167,1.333.167,1.25.083,1.25.167,1.333.166,1.25.084,1.25.166,1.25.167,1.334.167,1.25.083,1.25.167,1.333.167,1.25.083,1.25.167,1.333.166,1.25.084,1.25.166,1.25.167,1.334.083,1.25.167,1.25.167,1.333.083,1.25.167,1.25.166,1.333.167,1.25.083,1.25.167,1.334.167,1.25.083,1.25.167,1.25.166-126.25L795,368.75l.166,1.25.167,1.25.083,1.25.167,1.333.167,1.25.166,1.25.084,1.334.166,1.25.167,1.25.083,1.333.167,1.25.167,1.25.083,1.333.167,1.25.166,1.25.084,1.25.166,1.334.167,1.25.083,1.25.167,1.333L798,395.5l.166,1.25.084,1.333.166,1.25.167,1.25.083,1.25.167,1.334.167,1.25.083,1.25.167,1.333.166,1.25.084,1.25.166,1.333.167,1.25.167,1.25.083,1.334.167,1.25.166,1.25.084,1.25.166,1.333.167,1.25.083,1.25.167,1.333.167,1.25.083,1.25.167,1.334.166,1.25.084,1.25.166,1.333.167,1.25.167,1.25.083,1.25.167,1.333.166,1.25.084,1.25.166,1.334.167,1.25.083,1.25.167,1.333.167,1.25.083,1.25.167,1.25.166,1.333.084,1.25.166,1.25.167,1.334.167,1.25.083,1.25.167,1.333.166,1.25.084,1.25.166,1.333.167,1.25.083,1.25.167,1.25.167,1.334.083,1.25.167,1.25.166,1.333.167,1.25.083,1.25.167,1.333.167,1.25.083,1.25.167,1.25.166,1.334.084,1.25.166,1.25.167,1.333L807.667,356l.167,1.25L808,358.5l.083,1.25.167,1.333.166,1.25.167,1.25.083,1.334.167,1.25.167,1.25.083,1.333.167,1.25.166,1.25.084,1.25.166,1.333.167,1.25.083,1.25.167,1.334.167,1.25.083,1.25m-84.167,2.583.166,1.25.167,1.333.167,1.25.083,1.25.167,1.25.166,1.334.084,1.25.166,1.25.167,1.333.083,1.25.167,1.25.167,1.333.083,1.25.167,1.25.166,1.25.084,1.334.166,1.25.167,1.25.167,1.333.083,1.25.167,1.25.166,1.333.084,1.25.166,1.25.167,1.334.083,1.25.167,1.25.167,1.25.083,1.333.167,1.25.166,1.25.167,1.333.083,1.25L731,298.583l.167,1.25.083,1.25.167,1.334.166,1.25.084,1.25.166,1.333L732,307.5l.083,1.25.167,1.333.167,1.25.083,1.25.167,1.25.166,1.334.167,1.25.083,1.25L733.25,319l.167,1.25.083,1.25.167,1.333.166,1.25.084,1.25.166,1.25.167,1.334.083,1.25.167,1.25.167,1.333.083,1.25.167,1.25.166,1.333.167,1.25.083,1.25.167,1.334.167,1.25.083,1.25.167,1.25.166,1.333.084,1.25.166,1.25.167,1.333.083,1.25.167,1.25.167,1.334.166,1.25.084,1.25.166,1.333.167,1.25.083,1.25.167,1.25.167,1.333.083,1.25.167,1.25.166,1.334.084,1.25.166,1.25.167,1.333.083,1.25.167,1.25.167,1.25.166,1.333.084,1.25.166,1.25.167,1.334.083,1.25.167,1.25.167,1.333.083,1.25.167,1.25.166,1.333.084,1.25.166,1.25.167,1.25.167,1.334.083,1.25.167,1.25.166,1.333.084,1.25.166,1.25.167,1.333.083,1.25.167,1.25.167,1.25.083,1.334.167,1.25.166,1.25.084,1.333.166,1.25.167,1.25.167,1.333.083,1.25.167,1.25.166-126.25.084,1.25.166,1.334.167,1.25.083,1.25.167,1.333.167,1.25.083,1.25.167,1.25.166,1.333.084,1.25.166,1.25.167,1.334.167,1.25.083,1.25.167,1.333.166,1.25.084,1.25.166,1.333.167,1.25.083,1.25.167,1.25.167,1.334.083,1.25.167,1.25.166,1.333.167,1.25.083,1.25.167,1.333.167,1.25.083,1.25.167,1.25.166,1.334.084,1.25.166,1.25.167,1.333.083,1.25.167,1.25.167,1.333.083,1.25.167,1.25.166,1.334.167,1.25.083,1.25.167,1.25.167,1.333.083,1.25.167,1.25.166,1.333.084,1.25.166,1.25.167,1.334.083,1.25.167,1.25.167,1.333.083,1.25.167,1.25.166,1.25.167,1.333.083,1.25.167,1.25.167,1.334.083,1.25.167,1.25.166,1.333.084,1.25.166,1.25.167,1.25.083,1.333.167,1.25.167,1.25.166,1.334.084,1.25.166,1.25.167,1.333.083,1.25L754.5,384l.167,1.333.083,1.25.167,1.25.166,1.25.084,1.334.166,1.25.167,1.25.083,1.333.167,1.25.167,1.25.166,1.333.084,1.25.166,1.25.167,1.25.083-126.25.167,1.334.167,1.25.083,1.25.167,1.333.166,1.25.084,1.25.166,1.25.167,1.333.083,1.25.167,1.25.167,1.334.166,1.25.084,1.25.166,1.333.167,1.25.084,1.25.166,1.25.167,1.333.083,1.25.167,1.25.167,1.334.083,1.25.167,1.25L760,306.25l.167,1.25.083,1.25.167,1.333.167,1.25.083,1.25.167,1.25.166,1.334.084,1.25.166,1.25.167,1.333.083,1.25.167,1.25.167,1.333.083,1.25.167,1.25.166,1.25.167,1.334.083,1.25.167,1.25.167,1.333.083,1.25.167,1.25.166,1.333.084,1.25.166,1.25.167,1.334.083,1.25.167,1.25.167,1.25.083,1.333.167,1.25L764.5,347l.167,1.333.083,1.25.167,1.25.167,1.334.083,1.25.167,1.25L765.5,356l.084,1.25.166,1.25.167,1.25.083,1.333.167,1.25.167,1.25.166,1.334.084,1.25.166,1.25.167,1.333L767,370l.167,1.25.167,1.25.083,1.333.167,1.25.166,1.25.084,1.334.166,1.25.167,1.25.083,1.333m-56.5-2.583.083,1.25L712,381.5l.167,1.25.083,1.25.167,1.333.166,1.25.084,1.25.166,1.25.167,1.334.083,1.25.167,1.25.167,1.333.083,1.25.167,1.25.166,1.333.167,1.25.083,1.25.167,1.25.167,1.334.083,1.25.167,1.25.166,1.333.084,1.25.166,1.25.167,1.333.083,1.25.167,1.25.167,1.334.083,1.25.167,1.25.166,1.25.167,1.333.083,1.25.167,1.25.167,1.333.083,1.25.167,1.25.166,1.334.084,1.25.166,1.25.167,1.333.083,1.25.167,1.25.167,1.25.166,1.333.084-126.25.166,1.25.167,1.25.083,1.25.167,1.334.167,1.25.083,1.25.167,1.333.166,1.25.084,1.25.166,1.333.167,1.25.083,1.25.167,1.25.167,1.334.166,1.25.084,1.25.166,1.333.167,1.25.083,1.25.167,1.333.167,1.25.083,1.25.167,1.334.166,1.25.084,1.25.166,1.25L722,344.5l.083,1.25.167,1.25.167,1.333.166,1.25.084,1.25.166,1.334.167,1.25.083,1.25L723.25,356l.167,1.25.083,1.25.167,1.25.166,1.333.084,1.25.166,1.25.167,1.334.167,1.25.083,1.25.167,1.333.166,1.25.084,1.25.166,1.25.167,1.333.083,1.25.167,1.25.167,1.334.083,1.25.167,1.25.166,1.333.084,1.25" transform="translate(-510.285 -228.266)"/>
    </g>
    <g>
      <path class="cls-5" d="M753.859,530.5v-7.178h4.971v.86h-4v2.192h3.5v.859h-3.5V530.5h-.972Z" transform="translate(-510.285 -228.266)"/>
      <path class="cls-5" d="M760.017,523.322h.971V530.5h-.971Z" transform="translate(-510.285 -228.266)"/>
      <path class="cls-5" d="M762.756,525.329H763.8v1.06h-1.045Zm0,4.111H763.8v1.06h-1.045Z" transform="translate(-510.285 -228.266)"/>
    </g>
    <path class="cls-5" d="M730.175,231.822h2.949a2.684,2.684,0,0,1,2.176.974,3.981,3.981,0,0,1,.807,2.62,3.9,3.9,0,0,1-.827,2.612,2.784,2.784,0,0,1-2.234.972h-2.871Zm.971,6.348h1.778a1.941,1.941,0,0,0,1.614-.718,3.208,3.208,0,0,0,.568-2.036,3.324,3.324,0,0,0-.546-2.043,1.836,1.836,0,0,0-1.553-.721h-1.861Z" transform="translate(-510.285 -228.266)"/>
    <g>
      <path class="cls-5" d="M738.711,240.016H737.4v-.563a1.528,1.528,0,0,0,.945-.25,1.549,1.549,0,0,0,.543-.82h.574v5.625h-.746Z" transform="translate(-510.285 -228.266)"/>
      <path class="cls-5" d="M743.16,240.016h-1.316v-.563a1.528,1.528,0,0,0,.945-.25,1.549,1.549,0,0,0,.543-.82h.574v5.625h-.746Z" transform="translate(-510.285 -228.266)"/>
    </g>
    <g>
      <path class="cls-5" d="M746.093,236.363a6.787,6.787,0,0,1,.41-2.346,9.722,9.722,0,0,1,1.3-2.351h.6a11.341,11.341,0,0,0-1.043,2.383,8.341,8.341,0,0,0,0,4.639,11.258,11.258,0,0,0,1.043,2.377h-.6a9.676,9.676,0,0,1-1.3-2.353A6.807,6.807,0,0,1,746.093,236.363Z" transform="translate(-510.285 -228.266)"/>
      <path class="cls-5" d="M751.522,239.142a2.229,2.229,0,0,1-1.743-.7,2.793,2.793,0,0,1-.634-1.943,3.1,3.1,0,0,1,.671-2.1,2.262,2.262,0,0,1,1.8-.779,2.042,2.042,0,0,1,1.655.762,3.04,3.04,0,0,1,.63,2l-.01.312h-3.816a2.251,2.251,0,0,0,.356,1.192,1.364,1.364,0,0,0,1.171.5,1.415,1.415,0,0,0,.878-.283,1.146,1.146,0,0,0,.459-.723h.87a2.2,2.2,0,0,1-.782,1.311A2.4,2.4,0,0,1,751.522,239.142Zm1.467-3.155a1.954,1.954,0,0,0-.361-1.133,1.255,1.255,0,0,0-1.045-.449,1.346,1.346,0,0,0-1.108.518,1.969,1.969,0,0,0-.4,1.064Z" transform="translate(-510.285 -228.266)"/>
    </g>
    <path class="cls-5" d="M754.781,229.828h.7v4.75a1.177,1.177,0,0,1-.25.84,1.093,1.093,0,0,1-.812.258,2.1,2.1,0,0,1-.3-.02v-.613h.137a.639.639,0,0,0,.412-.1.491.491,0,0,0,.107-.369Zm-.008-1.562h.719v.8h-.719Z" transform="translate(-510.285 -228.266)"/>
    <path class="cls-5" d="M758.6,231.449a3.886,3.886,0,0,1,.625-2.371,1.389,1.389,0,0,1,1.132-.625,1.337,1.337,0,0,1,1.094.6,3.712,3.712,0,0,1,.633,2.285,3.449,3.449,0,0,1-.621,2.172,1.422,1.422,0,0,1-1.141.617,1.252,1.252,0,0,1-.648-.172,1.692,1.692,0,0,1-.52-.5,2.665,2.665,0,0,1-.347-.688A4.177,4.177,0,0,1,758.6,231.449Zm2.73-.277a5.768,5.768,0,0,0-.195-1.637,1.4,1.4,0,0,0-.395-.676.631.631,0,0,0-.414-.148.7.7,0,0,0-.488.207,1.369,1.369,0,0,0-.338.691,8.879,8.879,0,0,0-.154,1.563Zm-1.984.258a9.25,9.25,0,0,0,.1,1.25,2.336,2.336,0,0,0,.231.734.881.881,0,0,0,.285.318.684.684,0,0,0,.4.131.658.658,0,0,0,.475-.234,1.6,1.6,0,0,0,.34-.754,7.9,7.9,0,0,0,.138-1.445Z" transform="translate(-510.285 -228.266)"/>
    <g>
      <path class="cls-5" d="M765.065,236.368a6.782,6.782,0,0,1-.41,2.346,9.685,9.685,0,0,1-1.3,2.351h-.6a11.335,11.335,0,0,0,1.043-2.382,8.341,8.341,0,0,0,0-4.639,11.264,11.264,0,0,0-1.043-2.378h.6a9.7,9.7,0,0,1,1.3,2.354A6.8,6.8,0,0,1,765.065,236.368Z" transform="translate(-510.285 -228.266)"/>
      <path class="cls-5" d="M770.148,239l-1.484-5.225h.965l1,4.161h0l1.02-4.161h.977l1.05,4.19h0l1.059-4.19h.873L774.133,239h-.943l-1.08-4.082h0L771.091,239h-.943Z" transform="translate(-510.285 -228.266)"/>
      <path class="cls-5" d="M776.413,231.822h.9v1h-.9Zm.01,1.953h.879V239h-.879Z" transform="translate(-510.285 -228.266)"/>
      <path class="cls-5" d="M780.534,239a4.812,4.812,0,0,1-.654.068,1.08,1.08,0,0,1-.813-.253,1.275,1.275,0,0,1-.237-.874v-3.443h-.723v-.718h.723v-1.464h.879v1.464h.825v.718h-.825v3.443a.325.325,0,0,0,.14.278.612.612,0,0,0,.373.1h.312Z" transform="translate(-510.285 -228.266)"/>
      <path class="cls-5" d="M781.394,231.822h.878v2.661l.152-.195a1.775,1.775,0,0,1,3.232,1.133V239h-.879v-3.359a1.412,1.412,0,0,0-.249-.935,1.021,1.021,0,0,0-.81-.286,1.288,1.288,0,0,0-1.055.481,2,2,0,0,0-.391,1.3V239h-.878Z" transform="translate(-510.285 -228.266)"/>
    </g>
    <path class="cls-5" d="M789.521,235.8a4.858,4.858,0,0,1,.781-2.964,1.734,1.734,0,0,1,1.416-.781,1.668,1.668,0,0,1,1.367.752,4.641,4.641,0,0,1,.791,2.856,4.311,4.311,0,0,1-.776,2.715,1.777,1.777,0,0,1-1.426.771,1.576,1.576,0,0,1-.811-.214,2.094,2.094,0,0,1-.649-.621,3.325,3.325,0,0,1-.435-.859A5.219,5.219,0,0,1,789.521,235.8Zm3.413-.347a7.17,7.17,0,0,0-.245-2.046,1.756,1.756,0,0,0-.493-.845.79.79,0,0,0-.517-.185.878.878,0,0,0-.611.259,1.7,1.7,0,0,0-.422.864,11.064,11.064,0,0,0-.193,1.953Zm-2.481.322a11.431,11.431,0,0,0,.132,1.563,2.965,2.965,0,0,0,.288.918,1.105,1.105,0,0,0,.356.4.866.866,0,0,0,.5.163.821.821,0,0,0,.594-.293,1.97,1.97,0,0,0,.424-.942,9.9,9.9,0,0,0,.174-1.807Z" transform="translate(-510.285 -228.266)"/>
    <g>
      <path class="cls-5" d="M797.678,233.775h.835v.777l.18-.235a1.8,1.8,0,0,1,1.411-.7,1.512,1.512,0,0,1,1.119.415,1.349,1.349,0,0,1,.288.425l.141-.181a1.677,1.677,0,0,1,3.067,1.055V239h-.879v-3.369a1.427,1.427,0,0,0-.244-.9.855.855,0,0,0-.713-.308,1.08,1.08,0,0,0-.908.444,1.942,1.942,0,0,0-.337,1.2V239h-.879v-3.579a1.1,1.1,0,0,0-.223-.745.806.806,0,0,0-.646-.256,1.147,1.147,0,0,0-.959.5,2.077,2.077,0,0,0-.374,1.284V239h-.879Z" transform="translate(-510.285 -228.266)"/>
      <path class="cls-5" d="M806.382,238.38a3.311,3.311,0,0,1,0-4,2.41,2.41,0,0,1,3.517,0,3.323,3.323,0,0,1,0,4,2.41,2.41,0,0,1-3.517,0Zm2.858-.537a2.81,2.81,0,0,0,0-2.923,1.388,1.388,0,0,0-2.2,0,2.822,2.822,0,0,0,0,2.923,1.391,1.391,0,0,0,2.2,0Z" transform="translate(-510.285 -228.266)"/>
      <path class="cls-5" d="M813.562,239.142a2.018,2.018,0,0,1-1.67-.784,3.323,3.323,0,0,1-.621-2.117,2.877,2.877,0,0,1,.6-1.9,1.94,1.94,0,0,1,1.567-.723,1.757,1.757,0,0,1,1.524.816l.068.1v-2.71h.879V239H815.1v-.713l-.113.161A1.715,1.715,0,0,1,813.562,239.142Zm.048-4.732a1.244,1.244,0,0,0-1.079.471,2.588,2.588,0,0,0-.342,1.5,2.558,2.558,0,0,0,.37,1.489,1.208,1.208,0,0,0,1.051.523,1.265,1.265,0,0,0,1.031-.481,1.959,1.959,0,0,0,.39-1.272,3.07,3.07,0,0,0-.369-1.648A1.175,1.175,0,0,0,813.61,234.41Z" transform="translate(-510.285 -228.266)"/>
      <path class="cls-5" d="M818.039,237.145a1.433,1.433,0,0,0,.254.949,1.042,1.042,0,0,0,.825.291,1.2,1.2,0,0,0,1.006-.491,2.157,2.157,0,0,0,.371-1.331v-2.788h.879V239h-.835v-.8a2.456,2.456,0,0,1-.195.269,1.763,1.763,0,0,1-1.406.669,1.572,1.572,0,0,1-1.778-1.778v-3.589h.879Z" transform="translate(-510.285 -228.266)"/>
      <path class="cls-5" d="M822.712,231.822h.879V239h-.879Z" transform="translate(-510.285 -228.266)"/>
      <path class="cls-5" d="M825.288,238.38a3.311,3.311,0,0,1,0-4,2.411,2.411,0,0,1,3.518,0,3.323,3.323,0,0,1,0,4,2.411,2.411,0,0,1-3.518,0Zm2.858-.537a2.8,2.8,0,0,0,0-2.923,1.388,1.388,0,0,0-2.2,0,2.822,2.822,0,0,0,0,2.923,1.391,1.391,0,0,0,2.2,0Z" transform="translate(-510.285 -228.266)"/>
      <path class="cls-5" d="M837.678,234.039a1.99,1.99,0,0,1-.4,1.277,5.12,5.12,0,0,1-1.5,1.106,5.589,5.589,0,0,0-1.626,1.2,2.223,2.223,0,0,0-.3.528h3.819V239h-4.815a2.853,2.853,0,0,1,.552-1.813,6.889,6.889,0,0,1,2.07-1.54,3.412,3.412,0,0,0,1.006-.753,1.387,1.387,0,0,0,.269-.881,1.178,1.178,0,0,0-.4-.92,1.48,1.48,0,0,0-1.025-.357,1.267,1.267,0,0,0-1.028.449,2.038,2.038,0,0,0-.4,1.27h-.854a2.449,2.449,0,0,1,.62-1.824,2.363,2.363,0,0,1,1.782-.661,2.262,2.262,0,0,1,1.6.581A1.941,1.941,0,0,1,837.678,234.039Z" transform="translate(-510.285 -228.266)"/>
    </g>
    <path class="cls-5" d="M844.036,234.527v.708h-1.182a14.191,14.191,0,0,0-.17,2.144,1.156,1.156,0,0,0,.175.72.544.544,0,0,0,.44.217.517.517,0,0,0,.366-.146.708.708,0,0,0,.2-.425h.171a1.969,1.969,0,0,1-.368,1.089.853.853,0,0,1-.643.317.759.759,0,0,1-.634-.346,2.336,2.336,0,0,1-.254-1.294q0-.6.185-2.276h-1.269a17.857,17.857,0,0,1-.366,3.238c-.144.452-.34.678-.591.678a.392.392,0,0,1-.291-.117.4.4,0,0,1-.115-.293.569.569,0,0,1,.039-.22,1.954,1.954,0,0,1,.23-.356,2.434,2.434,0,0,0,.415-.83,9.8,9.8,0,0,0,.273-2.1h-.224a.962.962,0,0,0-.532.118,1.6,1.6,0,0,0-.518.585h-.19a2.643,2.643,0,0,1,.639-1.167,1.153,1.153,0,0,1,.782-.244Z" transform="translate(-510.285 -228.266)"/>
    <path d="M708.018,249.8c-.022.123-.044.235-.064.347-.042.243-.072.487-.092.733a6.107,6.107,0,0,0-.02.7,4.1,4.1,0,0,0,.171,1.088c.043.139.095.276.146.412a.346.346,0,0,1-.079.4.414.414,0,0,1-.344.13.231.231,0,0,1-.181-.114.873.873,0,0,1-.1-.25,2.755,2.755,0,0,1-.1-.65c0-.139-.013-.278-.008-.417a6.182,6.182,0,0,1,.132-1.059c.089-.423.181-.846.272-1.269,0-.014,0-.027.007-.046h-1.116l-.075.3c-.165.647-.328,1.294-.494,1.941-.095.368-.191.736-.314,1.1a1.274,1.274,0,0,1-.146.318.347.347,0,0,1-.378.143.272.272,0,0,1-.186-.394c.029-.066.062-.13.093-.2.323-.689.628-1.387.884-2.1.122-.34.222-.687.331-1.032.006-.02.009-.042.015-.069-.02,0-.038-.006-.056-.006-.2,0-.4,0-.6,0a1.219,1.219,0,0,0-.682.237,1.919,1.919,0,0,0-.472.508.88.88,0,0,1-.07.091.131.131,0,0,1-.137.041.092.092,0,0,1-.073-.139,1.448,1.448,0,0,1,.088-.165,4.141,4.141,0,0,1,.476-.656,1.444,1.444,0,0,1,.648-.449,1.2,1.2,0,0,1,.346-.053q1.746,0,3.491,0a.635.635,0,0,1,.157.017.2.2,0,0,1,.171.236.29.29,0,0,1-.261.3.951.951,0,0,1-.22.024c-.35,0-.7,0-1.051,0Z" transform="translate(-510.285 -228.266)"/>
  </g>
  <g>
    <path d="M804.021,531.014l-.072-.026a.157.157,0,0,1-.113-.164.165.165,0,0,1,.108-.183.712.712,0,0,1,.234-.032c.016,0,.033,0,.05,0h5.311a1.343,1.343,0,0,1,.229.017c.141.022.189.126.154.261a.165.165,0,0,1-.131.111l-.053.015Z" transform="translate(-510.285 -228.266)"/>
    <path d="M795.739,527.71a6.633,6.633,0,0,1,.1-1.014,7.313,7.313,0,0,1,.289-1.118,6.948,6.948,0,0,1,.877-1.755,4.04,4.04,0,0,1,.54-.634,2.352,2.352,0,0,1,.507-.375,1.251,1.251,0,0,1,.718-.165.9.9,0,0,1,.58.283,1.547,1.547,0,0,1,.334.573,3.145,3.145,0,0,1,.164.792c.01.124.022.248.022.372,0,.141-.01.282-.021.422s-.027.271-.044.406a6.582,6.582,0,0,1-.208.961,7.58,7.58,0,0,1-.562,1.413,5.5,5.5,0,0,1-.755,1.125,2.761,2.761,0,0,1-.678.573,1.314,1.314,0,0,1-.647.194.922.922,0,0,1-.735-.33,1.773,1.773,0,0,1-.36-.736,3.255,3.255,0,0,1-.107-.722C795.75,527.886,795.744,527.8,795.739,527.71Zm3.141-1.669A.384.384,0,0,0,798.9,526c.042-.179.085-.358.124-.538a6.8,6.8,0,0,0,.177-1.161,4.068,4.068,0,0,0-.03-.818,1.1,1.1,0,0,0-.13-.393.426.426,0,0,0-.422-.218.674.674,0,0,0-.318.121,1.544,1.544,0,0,0-.384.385,5.337,5.337,0,0,0-.619,1.116,10.486,10.486,0,0,0-.428,1.332c-.019.071-.037.142-.057.218Zm-2.154.329c-.007.026-.015.051-.022.076a10.845,10.845,0,0,0-.236,1.116,5.333,5.333,0,0,0-.062.714c0,.1.007.2.009.3a2.358,2.358,0,0,0,.046.42.965.965,0,0,0,.13.348.387.387,0,0,0,.341.19.665.665,0,0,0,.389-.127,1.4,1.4,0,0,0,.33-.318,5.151,5.151,0,0,0,.644-1.135,9.07,9.07,0,0,0,.424-1.288c.025-.1.047-.194.073-.3Z" transform="translate(-510.285 -228.266)"/>
    <path d="M780.04,525.948c-.018.093-.037.179-.052.265-.047.269-.085.539-.106.811a6.472,6.472,0,0,0-.021.7,4.165,4.165,0,0,0,.305,1.482.452.452,0,0,1,.038.137.387.387,0,0,1-.3.4.539.539,0,0,1-.17.013.206.206,0,0,1-.157-.1.83.83,0,0,1-.109-.25,2.758,2.758,0,0,1-.107-.657c0-.139-.013-.278-.007-.416a4.982,4.982,0,0,1,.09-.826c.1-.507.211-1.012.317-1.518l0-.028c-.052-.015-1.023-.019-1.116,0-.013.048-.025.1-.038.15-.153.6-.3,1.2-.459,1.8-.1.4-.216.8-.328,1.2a2.063,2.063,0,0,1-.161.43.378.378,0,0,1-.254.216.359.359,0,0,1-.231-.023.263.263,0,0,1-.134-.334,2.228,2.228,0,0,1,.1-.229c.309-.662.6-1.332.853-2.018.137-.371.258-.747.366-1.127,0-.021.008-.042.014-.069-.025,0-.045,0-.066,0-.194,0-.389,0-.583,0a1.245,1.245,0,0,0-.7.241,1.918,1.918,0,0,0-.463.5.879.879,0,0,1-.079.1.143.143,0,0,1-.17.028.087.087,0,0,1-.04-.122,2.319,2.319,0,0,1,.113-.208,3.763,3.763,0,0,1,.58-.749,1.269,1.269,0,0,1,.726-.364,1.238,1.238,0,0,1,.136-.006q1.749,0,3.5,0a.737.737,0,0,1,.156.016.2.2,0,0,1,.169.238.289.289,0,0,1-.257.3.953.953,0,0,1-.213.024c-.355,0-.71,0-1.066,0Z" transform="translate(-510.285 -228.266)"/>
    <path d="M817.209,525.951h-1.115l-.025.1c-.157.62-.312,1.24-.473,1.859q-.158.6-.33,1.2a3.371,3.371,0,0,1-.16.423.346.346,0,0,1-.258.218.4.4,0,0,1-.114.006.273.273,0,0,1-.234-.4c.029-.066.063-.13.093-.195.322-.688.627-1.383.882-2.1.122-.343.223-.693.334-1.04.006-.02.009-.041.015-.068a.421.421,0,0,0-.057-.007c-.2,0-.4,0-.6,0a1.237,1.237,0,0,0-.689.24,1.913,1.913,0,0,0-.468.5c-.023.033-.05.064-.074.1a.144.144,0,0,1-.17.029.088.088,0,0,1-.041-.127c.04-.079.083-.157.13-.233a3.91,3.91,0,0,1,.435-.589,1.375,1.375,0,0,1,.745-.473,1.333,1.333,0,0,1,.235-.027q1.756,0,3.513,0a.641.641,0,0,1,.157.018.2.2,0,0,1,.163.234.286.286,0,0,1-.255.3.954.954,0,0,1-.213.025c-.358,0-.715,0-1.073,0h-.084c-.011.054-.022.1-.031.151a8.435,8.435,0,0,0-.124.866,6.316,6.316,0,0,0-.025.753,4.133,4.133,0,0,0,.295,1.456.52.52,0,0,1,.051.192.335.335,0,0,1-.089.243.422.422,0,0,1-.357.151.2.2,0,0,1-.177-.105,1.209,1.209,0,0,1-.108-.241,2.57,2.57,0,0,1-.11-.664c0-.139-.014-.278-.009-.416a5.217,5.217,0,0,1,.09-.827c.1-.5.21-1.007.315-1.511A.391.391,0,0,0,817.209,525.951Z" transform="translate(-510.285 -228.266)"/>
    <path d="M804.518,526.214l.309.147.638.3.983.459.846.4.872.409.716.335c.29.137.581.273.871.411a.845.845,0,0,1,.124.084.2.2,0,0,1-.2.321c-.071-.028-.14-.063-.209-.1l-.963-.453-1.191-.556-1.08-.507-1.192-.556-.864-.407c-.052-.025-.106-.046-.157-.073a.716.716,0,0,1-.115-.072.191.191,0,0,1,.019-.308c.078-.047.159-.088.241-.127.221-.1.443-.207.664-.311l.924-.434.78-.367,1.028-.482.656-.31.924-.434c.158-.074.316-.15.475-.222a.245.245,0,0,1,.16-.027.186.186,0,0,1,.153.16.179.179,0,0,1-.084.2c-.083.048-.17.089-.256.13l-.8.376-.936.44-.787.371-.93.437-.767.361-.813.383Z" transform="translate(-510.285 -228.266)"/>
    <path d="M786.273,527.167c.072.035.132.065.192.093l.956.45,1.041.488c.306.143.611.289.916.432l1.041.489q.459.214.916.433c.076.035.152.071.227.11a.2.2,0,0,1,.12.143.191.191,0,0,1-.063.193.179.179,0,0,1-.2.038c-.09-.04-.177-.084-.266-.126l-1.133-.531-.773-.364-.872-.408-.768-.361c-.288-.136-.577-.27-.865-.4l-.761-.358c-.08-.038-.161-.075-.24-.114a.579.579,0,0,1-.079-.049.2.2,0,0,1,0-.3,1.931,1.931,0,0,1,.219-.12c.221-.105.443-.208.664-.311l.878-.412.755-.354.885-.415.761-.358.885-.414.648-.309a.291.291,0,0,1,.144-.039.191.191,0,0,1,.182.137.183.183,0,0,1-.069.215c-.085.049-.172.1-.26.138-.227.108-.455.213-.683.32l-.93.437-.78.368-.937.44-.8.381-.905.424Z" transform="translate(-510.285 -228.266)"/>
    <path d="M772.078,526.966h2.743a.814.814,0,0,1,.164.016.189.189,0,0,1,.01.366.693.693,0,0,1-.163.02h-5.256c-.091,0-.182,0-.273,0a.609.609,0,0,1-.148-.023.19.19,0,0,1,0-.36.745.745,0,0,1,.17-.019Z" transform="translate(-510.285 -228.266)"/>
  </g>
  <g>
    <path d="M520.637,515.265l.007,0a.294.294,0,0,1,.286-.126h5.527a.687.687,0,0,1,.142.016.191.191,0,0,1,.006.37.615.615,0,0,1-.135.016h-5.556a.658.658,0,0,1-.107-.011.185.185,0,0,1-.144-.094.12.12,0,0,0-.026-.024Z" transform="translate(-510.285 -228.266)"/>
    <path d="M531.646,514.121c-.022.122-.044.235-.064.347-.041.243-.072.487-.091.732a5.913,5.913,0,0,0-.021.7,4.1,4.1,0,0,0,.171,1.088c.043.139.1.276.147.412a.348.348,0,0,1-.08.4.414.414,0,0,1-.344.13.231.231,0,0,1-.181-.114.873.873,0,0,1-.105-.25,2.764,2.764,0,0,1-.1-.651c0-.138-.013-.277-.008-.416a6.182,6.182,0,0,1,.132-1.059c.089-.423.181-.846.272-1.27a.391.391,0,0,0,.007-.045h-1.116l-.075.3c-.165.647-.328,1.294-.494,1.941-.1.368-.191.736-.314,1.1a1.274,1.274,0,0,1-.146.318.347.347,0,0,1-.378.143.272.272,0,0,1-.186-.394c.029-.066.062-.13.093-.2.323-.689.628-1.387.884-2.1.122-.34.222-.687.331-1.032a.672.672,0,0,0,.015-.069c-.02,0-.038-.006-.055-.006-.2,0-.4,0-.605,0a1.231,1.231,0,0,0-.682.238,1.9,1.9,0,0,0-.472.508,1,1,0,0,1-.07.091.13.13,0,0,1-.136.041.093.093,0,0,1-.074-.14,1.723,1.723,0,0,1,.088-.164,4.141,4.141,0,0,1,.476-.656,1.45,1.45,0,0,1,.648-.449,1.162,1.162,0,0,1,.346-.053h3.491a.686.686,0,0,1,.157.016.2.2,0,0,1,.172.237.29.29,0,0,1-.261.3.914.914,0,0,1-.221.025c-.35,0-.7,0-1.051,0Z" transform="translate(-510.285 -228.266)"/>
    <path d="M668.4,513.925c-.023.123-.045.235-.064.347q-.063.364-.092.733a6.108,6.108,0,0,0-.021.7,4.179,4.179,0,0,0,.171,1.088c.043.139.1.276.147.412a.346.346,0,0,1-.08.4.412.412,0,0,1-.343.13.23.23,0,0,1-.181-.114.876.876,0,0,1-.106-.25,2.755,2.755,0,0,1-.1-.65c0-.139-.013-.278-.008-.417a6.3,6.3,0,0,1,.133-1.059c.088-.423.181-.846.271-1.269,0-.014,0-.027.008-.046h-1.116l-.076.3q-.246.971-.494,1.941c-.094.368-.191.736-.314,1.1a1.239,1.239,0,0,1-.146.318.347.347,0,0,1-.378.143.271.271,0,0,1-.185-.394c.029-.066.062-.13.092-.195.323-.689.628-1.387.885-2.105.121-.34.221-.687.33-1.032a.481.481,0,0,0,.015-.069c-.02,0-.037-.006-.055-.006-.2,0-.4,0-.605,0a1.216,1.216,0,0,0-.681.237,1.939,1.939,0,0,0-.473.508,1.035,1.035,0,0,1-.069.091.132.132,0,0,1-.137.041.093.093,0,0,1-.074-.139,1.626,1.626,0,0,1,.088-.165,4.271,4.271,0,0,1,.476-.656,1.455,1.455,0,0,1,.648-.449,1.2,1.2,0,0,1,.347-.053H669.7a.627.627,0,0,1,.156.017.2.2,0,0,1,.172.236.29.29,0,0,1-.261.3.96.96,0,0,1-.221.024c-.35,0-.7,0-1.051,0Z" transform="translate(-510.285 -228.266)"/>
    <g>
      <path d="M637.21,516.855h.082c.691,0,1.382,0,2.074,0a2.548,2.548,0,0,0,.485-.041.134.134,0,0,0,.115-.1c.038-.133.079-.266.11-.4s.051-.272.077-.412h.253l-.276,1.71c-.052.015-3.606.02-3.7,0a.4.4,0,0,1,.1-.361c.133-.131.253-.274.378-.413.141-.156.281-.313.422-.47.163-.181.327-.362.49-.544s.326-.364.491-.544a5.672,5.672,0,0,0,.845-1.14,2.649,2.649,0,0,0,.334-1.046,2.021,2.021,0,0,0-.172-1.023,1.208,1.208,0,0,0-.822-.715,1.33,1.33,0,0,0-1.216.289,1.553,1.553,0,0,0-.437.623l-.007.021v.024h.139a.525.525,0,0,1,.308.1.476.476,0,0,1,.184.3.524.524,0,0,1-.094.449.545.545,0,0,1-.571.174.471.471,0,0,1-.365-.422,1.425,1.425,0,0,1,.082-.657,1.819,1.819,0,0,1,.823-1.007,1.719,1.719,0,0,1,.732-.238,2.29,2.29,0,0,1,1.534.367,1.775,1.775,0,0,1,.765,1.155,2.031,2.031,0,0,1,.037.521,1.864,1.864,0,0,1-.311.936,3.492,3.492,0,0,1-.448.551c-.192.192-.383.383-.582.566-.248.229-.5.45-.755.675-.041.036-.083.073-.122.111l-.6.588c-.1.1-.211.2-.317.3C637.251,516.809,637.236,516.827,637.21,516.855Z" transform="translate(-510.285 -228.266)"/>
      <path d="M628.911,513.925c-.023.123-.045.235-.064.347q-.063.364-.092.733a6.342,6.342,0,0,0-.021.7,4.179,4.179,0,0,0,.171,1.088c.043.139.1.276.147.412a.346.346,0,0,1-.08.4.412.412,0,0,1-.343.13.23.23,0,0,1-.181-.114.876.876,0,0,1-.106-.25,2.755,2.755,0,0,1-.1-.65c0-.139-.013-.278-.008-.417a6.3,6.3,0,0,1,.133-1.059c.088-.423.181-.846.272-1.269l.007-.046h-1.116l-.076.3q-.246.971-.494,1.941c-.094.368-.19.736-.314,1.1a1.239,1.239,0,0,1-.146.318.347.347,0,0,1-.378.143.271.271,0,0,1-.185-.394c.029-.066.062-.13.092-.195.324-.689.628-1.387.885-2.105.121-.34.221-.687.331-1.032a.694.694,0,0,0,.014-.069c-.02,0-.037-.006-.055-.006-.2,0-.4,0-.605,0a1.216,1.216,0,0,0-.681.237,1.919,1.919,0,0,0-.472.508c-.022.032-.046.062-.07.091a.131.131,0,0,1-.137.041.093.093,0,0,1-.074-.139,1.853,1.853,0,0,1,.088-.165,4.271,4.271,0,0,1,.476-.656,1.455,1.455,0,0,1,.648-.449,1.2,1.2,0,0,1,.347-.053h3.491a.627.627,0,0,1,.156.017.2.2,0,0,1,.172.236.29.29,0,0,1-.261.3.96.96,0,0,1-.221.024c-.35,0-.7,0-1.05,0Z" transform="translate(-510.285 -228.266)"/>
      <path d="M635.313,510.4c-.007.027-.02.08-.038.131q-.258.709-.518,1.417-.415,1.137-.831,2.273-.423,1.157-.848,2.313l-.9,2.462q-.166.451-.331.9c-.014.038-.031.075-.049.112a.17.17,0,0,1-.2.1.2.2,0,0,1-.158-.173.39.39,0,0,1,.017-.127c.068-.192.139-.382.208-.573l.7-1.93q.414-1.13.827-2.259.42-1.151.839-2.3.426-1.167.855-2.333c.014-.038.029-.076.041-.115a.191.191,0,0,1,.237-.121A.2.2,0,0,1,635.313,510.4Z" transform="translate(-510.285 -228.266)"/>
    </g>
    <g>
      <path d="M549.691,515.208l.007,0a.294.294,0,0,1,.286-.126h5.527a.679.679,0,0,1,.142.016.191.191,0,0,1,.006.37.615.615,0,0,1-.135.016h-5.556a.762.762,0,0,1-.106-.011.185.185,0,0,1-.145-.094c0-.01-.017-.016-.026-.024Z" transform="translate(-510.285 -228.266)"/>
      <path d="M569,516.994h.083c.691,0,1.382,0,2.073,0a2.553,2.553,0,0,0,.486-.042.13.13,0,0,0,.114-.1c.039-.133.08-.266.111-.4s.051-.272.077-.412h.253l-.276,1.709c-.053.016-3.606.02-3.7,0a.4.4,0,0,1,.1-.361c.132-.131.253-.275.378-.413.141-.156.281-.314.422-.47.163-.181.327-.362.49-.544s.325-.364.491-.544a5.667,5.667,0,0,0,.844-1.14,2.622,2.622,0,0,0,.334-1.046,2.01,2.01,0,0,0-.171-1.023,1.206,1.206,0,0,0-.822-.715,1.325,1.325,0,0,0-1.216.289,1.555,1.555,0,0,0-.438.623l-.006.021,0,.024c.047,0,.093,0,.14,0a.521.521,0,0,1,.308.1.473.473,0,0,1,.184.3.527.527,0,0,1-.094.449.546.546,0,0,1-.572.174.47.47,0,0,1-.364-.423,1.434,1.434,0,0,1,.081-.656,1.832,1.832,0,0,1,.823-1.008,1.731,1.731,0,0,1,.733-.237,2.288,2.288,0,0,1,1.533.367,1.773,1.773,0,0,1,.766,1.155,2.077,2.077,0,0,1,.037.521,1.864,1.864,0,0,1-.311.936,3.5,3.5,0,0,1-.449.551c-.191.191-.383.383-.581.566-.248.229-.5.45-.755.675-.042.036-.083.073-.122.111l-.6.588-.317.3C569.04,516.948,569.026,516.965,569,516.994Z" transform="translate(-510.285 -228.266)"/>
      <path d="M560.7,514.064c-.023.122-.045.235-.064.347q-.063.365-.092.732a5.9,5.9,0,0,0-.021.7,4.173,4.173,0,0,0,.171,1.088c.043.14.095.277.147.413a.347.347,0,0,1-.08.4.409.409,0,0,1-.343.129.225.225,0,0,1-.181-.113.843.843,0,0,1-.106-.251,2.747,2.747,0,0,1-.1-.65c0-.138-.013-.278-.008-.416a6.285,6.285,0,0,1,.133-1.059c.088-.424.181-.846.271-1.27,0-.013,0-.027.008-.045h-1.116l-.076.3q-.246.971-.494,1.941c-.094.368-.191.736-.314,1.1a1.264,1.264,0,0,1-.146.319.347.347,0,0,1-.378.143.271.271,0,0,1-.185-.394c.028-.066.061-.13.092-.195.323-.69.628-1.387.884-2.105.122-.34.222-.688.331-1.032a.672.672,0,0,0,.015-.069c-.02,0-.038-.006-.055-.006-.2,0-.4-.005-.605,0a1.231,1.231,0,0,0-.682.238,1.92,1.92,0,0,0-.472.508c-.021.031-.045.061-.07.091a.13.13,0,0,1-.136.041.093.093,0,0,1-.074-.14,1.723,1.723,0,0,1,.088-.164,4.158,4.158,0,0,1,.476-.656,1.45,1.45,0,0,1,.648-.449,1.167,1.167,0,0,1,.346-.053H562a.677.677,0,0,1,.156.016.2.2,0,0,1,.172.237.29.29,0,0,1-.261.3.914.914,0,0,1-.221.025c-.35,0-.7,0-1.051,0Z" transform="translate(-510.285 -228.266)"/>
      <path d="M567.1,510.541c-.008.026-.02.08-.039.131q-.256.709-.517,1.417l-.831,2.273q-.423,1.157-.848,2.313-.45,1.23-.9,2.462-.165.452-.331.9a1.109,1.109,0,0,1-.048.112.17.17,0,0,1-.2.1.194.194,0,0,1-.158-.172.342.342,0,0,1,.017-.127c.067-.192.138-.383.208-.574l.705-1.929q.413-1.13.827-2.259.42-1.151.838-2.3.427-1.167.856-2.333c.014-.038.029-.076.04-.115a.192.192,0,0,1,.238-.121A.2.2,0,0,1,567.1,510.541Z" transform="translate(-510.285 -228.266)"/>
    </g>
  </g>
  <g>
    <path d="M706.218,514.592l.007,0a.294.294,0,0,1,.286-.126h5.527a.678.678,0,0,1,.142.015.177.177,0,0,1,.146.18.174.174,0,0,1-.14.19.615.615,0,0,1-.135.016H706.5a.762.762,0,0,1-.106-.011.188.188,0,0,1-.145-.1c0-.01-.017-.016-.026-.024Z" transform="translate(-510.285 -228.266)"/>
    <path d="M717.228,513.449c-.023.122-.045.234-.064.347q-.063.363-.092.732a5.89,5.89,0,0,0-.021.7,4.179,4.179,0,0,0,.171,1.088c.043.139.1.276.147.413a.347.347,0,0,1-.08.4.412.412,0,0,1-.343.13.23.23,0,0,1-.181-.113.854.854,0,0,1-.106-.251,2.755,2.755,0,0,1-.1-.65c0-.139-.013-.278-.008-.417a6.209,6.209,0,0,1,.133-1.059c.088-.423.181-.846.271-1.269,0-.014,0-.027.008-.046h-1.116l-.076.3q-.246.971-.494,1.941c-.094.369-.191.737-.314,1.1a1.3,1.3,0,0,1-.146.319.35.35,0,0,1-.378.143.272.272,0,0,1-.185-.395c.028-.066.061-.129.092-.2.323-.689.628-1.387.884-2.1.122-.341.222-.688.331-1.033a.672.672,0,0,0,.015-.069c-.02,0-.038-.006-.055-.006-.2,0-.4,0-.605,0a1.222,1.222,0,0,0-.682.237,1.951,1.951,0,0,0-.472.508.88.88,0,0,1-.07.091.13.13,0,0,1-.136.041.093.093,0,0,1-.074-.139,1.739,1.739,0,0,1,.088-.165,4.141,4.141,0,0,1,.476-.656,1.448,1.448,0,0,1,.648-.448,1.168,1.168,0,0,1,.346-.054h3.492a.627.627,0,0,1,.156.017.2.2,0,0,1,.172.236.291.291,0,0,1-.261.3.966.966,0,0,1-.221.024c-.35,0-.7,0-1.051,0Z" transform="translate(-510.285 -228.266)"/>
    <path d="M853.981,513.253c-.023.122-.045.234-.064.347q-.063.363-.092.732a6.349,6.349,0,0,0-.021.7,4.179,4.179,0,0,0,.171,1.088c.044.139.1.276.147.413a.345.345,0,0,1-.08.4.412.412,0,0,1-.343.13.231.231,0,0,1-.181-.113.852.852,0,0,1-.105-.251,2.706,2.706,0,0,1-.105-.65c0-.139-.013-.278-.008-.417a6.286,6.286,0,0,1,.133-1.058c.089-.424.181-.847.272-1.27,0-.014,0-.027.007-.046H852.6l-.076.3q-.246.971-.494,1.941c-.094.369-.19.737-.313,1.1a1.264,1.264,0,0,1-.147.319.35.35,0,0,1-.378.143.272.272,0,0,1-.185-.395c.029-.065.062-.129.092-.194.324-.69.628-1.388.885-2.105.121-.34.221-.688.331-1.032.006-.021.009-.042.014-.069a.376.376,0,0,0-.055-.007c-.2,0-.4,0-.605,0a1.217,1.217,0,0,0-.681.238,1.915,1.915,0,0,0-.472.507c-.022.032-.046.062-.07.091a.129.129,0,0,1-.137.041.093.093,0,0,1-.074-.139c.026-.057.057-.111.088-.165a4.211,4.211,0,0,1,.477-.656,1.445,1.445,0,0,1,.647-.448,1.169,1.169,0,0,1,.347-.054h3.491a.64.64,0,0,1,.157.017.2.2,0,0,1,.171.236.29.29,0,0,1-.261.3,1.017,1.017,0,0,1-.22.025c-.351,0-.7,0-1.051,0Z" transform="translate(-510.285 -228.266)"/>
    <g>
      <path d="M822.791,516.182h.082c.692,0,1.383,0,2.074,0a2.548,2.548,0,0,0,.485-.041.134.134,0,0,0,.115-.1c.038-.134.079-.266.11-.4s.051-.272.077-.413h.253l-.276,1.71c-.052.015-3.606.02-3.7,0a.4.4,0,0,1,.1-.361c.133-.131.253-.274.378-.413.141-.156.281-.313.422-.47l.491-.543c.163-.182.325-.365.49-.545a5.644,5.644,0,0,0,.845-1.14,2.65,2.65,0,0,0,.334-1.045,2.023,2.023,0,0,0-.172-1.024,1.211,1.211,0,0,0-.822-.715,1.328,1.328,0,0,0-1.216.29,1.546,1.546,0,0,0-.437.623l-.006.02,0,.024c.046,0,.093,0,.139,0a.525.525,0,0,1,.308.1.476.476,0,0,1,.184.3.525.525,0,0,1-.094.449.545.545,0,0,1-.571.174.472.472,0,0,1-.365-.423,1.439,1.439,0,0,1,.082-.657,1.819,1.819,0,0,1,.823-1.007,1.747,1.747,0,0,1,.732-.238,2.284,2.284,0,0,1,1.534.368,1.766,1.766,0,0,1,.765,1.154,2.036,2.036,0,0,1,.037.522,1.871,1.871,0,0,1-.311.936,3.53,3.53,0,0,1-.448.55c-.191.192-.383.383-.582.567-.248.229-.5.45-.755.674-.041.037-.082.073-.122.111-.2.2-.4.393-.6.588-.1.1-.211.2-.317.3C822.832,516.136,822.817,516.154,822.791,516.182Z" transform="translate(-510.285 -228.266)"/>
      <path d="M814.492,513.253c-.023.122-.045.234-.064.347q-.063.363-.092.732a6.349,6.349,0,0,0-.021.7,4.179,4.179,0,0,0,.171,1.088c.044.139.1.276.147.413a.345.345,0,0,1-.08.4.411.411,0,0,1-.343.13.233.233,0,0,1-.181-.113.852.852,0,0,1-.105-.251,2.706,2.706,0,0,1-.105-.65c0-.139-.013-.278-.008-.417a6.286,6.286,0,0,1,.133-1.058c.089-.424.181-.847.272-1.27,0-.014,0-.027.007-.046h-1.116l-.075.3q-.248.971-.494,1.941c-.1.369-.191.737-.314,1.1a1.264,1.264,0,0,1-.147.319.349.349,0,0,1-.378.143.272.272,0,0,1-.185-.395c.029-.065.062-.129.092-.194.324-.69.628-1.388.885-2.105.121-.34.221-.688.331-1.032.006-.021.009-.042.014-.069a.376.376,0,0,0-.055-.007c-.2,0-.4,0-.6,0a1.217,1.217,0,0,0-.681.238,1.915,1.915,0,0,0-.472.507c-.022.032-.046.062-.07.091a.129.129,0,0,1-.137.041.093.093,0,0,1-.074-.139c.026-.057.057-.111.088-.165a4.211,4.211,0,0,1,.477-.656,1.445,1.445,0,0,1,.647-.448,1.169,1.169,0,0,1,.347-.054h3.491a.64.64,0,0,1,.157.017.2.2,0,0,1,.171.236.289.289,0,0,1-.261.3,1.017,1.017,0,0,1-.22.025c-.351,0-.7,0-1.051,0Z" transform="translate(-510.285 -228.266)"/>
      <path d="M820.9,509.729c-.008.027-.02.08-.039.132q-.258.708-.518,1.416-.415,1.137-.831,2.273-.423,1.158-.847,2.313-.451,1.231-.9,2.462-.165.451-.331.9c-.014.038-.031.075-.048.112a.172.172,0,0,1-.2.1.2.2,0,0,1-.158-.173.38.38,0,0,1,.017-.126c.068-.192.139-.383.209-.574q.351-.964.7-1.929.414-1.131.827-2.26.42-1.151.839-2.3t.855-2.333c.014-.038.029-.076.041-.115a.189.189,0,0,1,.237-.12A.2.2,0,0,1,820.9,509.729Z" transform="translate(-510.285 -228.266)"/>
    </g>
    <g>
      <path d="M735.273,514.535l.006,0a.294.294,0,0,1,.286-.126h5.527a.679.679,0,0,1,.142.016.177.177,0,0,1,.146.18.174.174,0,0,1-.14.19.608.608,0,0,1-.135.016H735.55a.636.636,0,0,1-.107-.011.185.185,0,0,1-.145-.094c0-.01-.017-.016-.025-.024Z" transform="translate(-510.285 -228.266)"/>
      <path d="M754.581,516.321h.082c.691,0,1.382,0,2.073,0a2.552,2.552,0,0,0,.486-.041.134.134,0,0,0,.115-.1c.038-.133.079-.266.11-.4s.051-.273.077-.413h.253l-.276,1.71c-.052.015-3.606.02-3.7,0a.4.4,0,0,1,.1-.361c.132-.131.253-.274.378-.413.141-.156.281-.313.422-.47l.49-.543c.164-.182.326-.365.491-.545a5.6,5.6,0,0,0,.844-1.14,2.617,2.617,0,0,0,.334-1.046,2.01,2.01,0,0,0-.171-1.023,1.208,1.208,0,0,0-.822-.715,1.33,1.33,0,0,0-1.216.289,1.553,1.553,0,0,0-.437.623l-.007.021v.024c.046,0,.093,0,.139,0a.525.525,0,0,1,.308.1.476.476,0,0,1,.184.3.526.526,0,0,1-.094.449.546.546,0,0,1-.572.174.471.471,0,0,1-.364-.422,1.438,1.438,0,0,1,.081-.657,1.827,1.827,0,0,1,.823-1.007,1.727,1.727,0,0,1,.733-.238,2.281,2.281,0,0,1,1.533.368,1.769,1.769,0,0,1,.766,1.154,2.036,2.036,0,0,1,.037.522,1.864,1.864,0,0,1-.311.935,3.549,3.549,0,0,1-.448.551c-.192.192-.383.383-.582.567-.248.228-.5.449-.755.674-.041.036-.083.073-.122.111l-.6.588c-.105.1-.211.2-.317.3C754.622,516.275,754.607,516.293,754.581,516.321Z" transform="translate(-510.285 -228.266)"/>
      <path d="M746.282,513.392c-.023.122-.045.234-.064.347q-.063.363-.092.732a6.108,6.108,0,0,0-.021.7,4.179,4.179,0,0,0,.171,1.088c.043.139.1.276.147.413a.345.345,0,0,1-.08.4.412.412,0,0,1-.343.13.231.231,0,0,1-.181-.113.894.894,0,0,1-.106-.251,2.755,2.755,0,0,1-.1-.65c0-.139-.013-.278-.008-.417a6.311,6.311,0,0,1,.133-1.059c.088-.423.181-.846.271-1.269,0-.014,0-.027.008-.046H744.9l-.076.3q-.246.971-.494,1.941c-.094.369-.191.736-.314,1.1a1.261,1.261,0,0,1-.146.319.348.348,0,0,1-.378.142.271.271,0,0,1-.185-.394c.029-.066.062-.13.092-.195.323-.689.628-1.387.884-2.105.122-.34.222-.687.331-1.032a.672.672,0,0,0,.015-.069c-.02,0-.037-.006-.055-.006-.2,0-.4-.005-.605,0a1.222,1.222,0,0,0-.682.237,1.952,1.952,0,0,0-.472.508,1.035,1.035,0,0,1-.069.091.132.132,0,0,1-.137.041.093.093,0,0,1-.074-.139,1.739,1.739,0,0,1,.088-.165,4.271,4.271,0,0,1,.476-.656,1.445,1.445,0,0,1,.648-.448,1.169,1.169,0,0,1,.347-.054h3.491a.627.627,0,0,1,.156.017.2.2,0,0,1,.172.236.29.29,0,0,1-.261.3.96.96,0,0,1-.221.024c-.35,0-.7,0-1.051,0Z" transform="translate(-510.285 -228.266)"/>
      <path d="M752.684,509.868c-.007.027-.02.08-.038.131q-.258.709-.518,1.417l-.831,2.273q-.423,1.157-.848,2.313l-.9,2.462q-.167.451-.331.9c-.014.038-.031.075-.049.112a.171.171,0,0,1-.2.1.2.2,0,0,1-.158-.173.342.342,0,0,1,.017-.127c.067-.192.139-.382.208-.573l.705-1.93q.412-1.13.827-2.259.42-1.151.839-2.3.426-1.167.855-2.333c.014-.038.029-.076.04-.115a.192.192,0,0,1,.238-.121A.2.2,0,0,1,752.684,509.868Z" transform="translate(-510.285 -228.266)"/>
    </g>
  </g>
  <path d="M694.218,506.592l.007,0a.294.294,0,0,1,.286-.126h5.527a.678.678,0,0,1,.142.015.177.177,0,0,1,.146.18.174.174,0,0,1-.14.19.615.615,0,0,1-.135.016H694.5a.762.762,0,0,1-.106-.011.188.188,0,0,1-.145-.1c0-.01-.017-.016-.026-.024Z" transform="translate(-510.285 -228.266)"/>
  <path d="M705.228,505.449c-.023.122-.045.234-.064.347q-.063.363-.092.732a5.89,5.89,0,0,0-.021.7,4.179,4.179,0,0,0,.171,1.088c.043.139.1.276.147.413a.347.347,0,0,1-.08.4.412.412,0,0,1-.343.13.23.23,0,0,1-.181-.113.854.854,0,0,1-.106-.251,2.755,2.755,0,0,1-.1-.65c0-.139-.013-.278-.008-.417a6.209,6.209,0,0,1,.133-1.059c.088-.423.181-.846.271-1.269,0-.014,0-.027.008-.046h-1.116l-.076.3q-.246.971-.494,1.941c-.094.369-.191.737-.314,1.1a1.3,1.3,0,0,1-.146.319.35.35,0,0,1-.378.143.272.272,0,0,1-.185-.395c.028-.066.061-.129.092-.195.323-.689.628-1.387.884-2.1.122-.341.222-.688.331-1.033a.672.672,0,0,0,.015-.069c-.02,0-.038-.006-.055-.006-.2,0-.4,0-.605,0a1.222,1.222,0,0,0-.682.237,1.951,1.951,0,0,0-.472.508.88.88,0,0,1-.07.091.13.13,0,0,1-.136.041.093.093,0,0,1-.074-.139,1.739,1.739,0,0,1,.088-.165,4.141,4.141,0,0,1,.476-.656,1.448,1.448,0,0,1,.648-.448,1.168,1.168,0,0,1,.346-.054q1.746,0,3.492,0a.627.627,0,0,1,.156.017.2.2,0,0,1,.172.236.291.291,0,0,1-.261.305.966.966,0,0,1-.221.024c-.35,0-.7,0-1.051,0Z" transform="translate(-510.285 -228.266)"/>
  <path d="M721.229,238.59h5.1a.591.591,0,0,1,.22.029.141.141,0,0,1,.1.113c.021.133,0,.229-.166.252a.861.861,0,0,1-.124.008h-5.537a.4.4,0,0,1-.162-.039.184.184,0,0,1-.055-.257c.031-.043.067-.083.1-.123.078-.091.157-.181.235-.271l.165-.187c.075-.086.149-.173.223-.259l.121-.135.225-.261.158-.18.233-.268.11-.126.236-.271.172-.194c.073-.084.143-.168.216-.251.054-.063.11-.124.164-.187.078-.088.154-.178.231-.266l.165-.187.223-.258c.04-.047.082-.092.123-.139.075-.085.148-.172.223-.258l.157-.179.233-.269.111-.125c.078-.091.157-.181.235-.271l.17-.192c.09-.1.178-.207.267-.31.039-.045.079-.088.118-.133.077-.088.152-.176.228-.264.055-.062.111-.124.165-.187.075-.085.149-.172.223-.258.041-.046.083-.092.123-.138.075-.086.148-.173.224-.258a.655.655,0,0,1,.2-.177.2.2,0,0,1,.276.168.294.294,0,0,1-.094.211c-.1.112-.192.222-.289.332-.059.068-.121.135-.18.2-.091.1-.181.21-.272.314-.058.067-.117.131-.175.2l-.228.264-.175.2-.228.263c-.055.064-.112.126-.167.19-.077.087-.152.176-.228.263-.057.066-.116.13-.173.195-.077.088-.153.178-.23.266-.057.065-.116.129-.173.2l-.23.265c-.038.044-.078.087-.116.131-.08.091-.158.183-.238.274l-.167.189c-.077.088-.152.176-.228.264-.057.065-.116.129-.173.194-.077.089-.153.178-.23.266-.057.066-.116.13-.173.195-.077.088-.153.177-.23.266l-.116.13-.238.274-.168.19-.228.263c-.054.063-.109.125-.165.187Z" transform="translate(-510.285 -228.266)"/>
  <g>
    <path d="M619.848,530.766l-.072-.026a.157.157,0,0,1-.113-.164.165.165,0,0,1,.109-.183.706.706,0,0,1,.233-.032h5.362a1.449,1.449,0,0,1,.228.017.187.187,0,0,1,.154.262.162.162,0,0,1-.131.11l-.053.016Z" transform="translate(-510.285 -228.266)"/>
    <path d="M611.566,527.461a6.632,6.632,0,0,1,.1-1.013,7.283,7.283,0,0,1,.289-1.118,6.971,6.971,0,0,1,.877-1.756,4.079,4.079,0,0,1,.54-.633,2.39,2.39,0,0,1,.507-.376,1.25,1.25,0,0,1,.718-.164.9.9,0,0,1,.58.282,1.542,1.542,0,0,1,.334.573,3.119,3.119,0,0,1,.164.792c.01.124.023.248.023.372,0,.141-.011.282-.022.423s-.027.271-.044.406a6.538,6.538,0,0,1-.207.96,7.631,7.631,0,0,1-.562,1.414,5.5,5.5,0,0,1-.755,1.125,2.747,2.747,0,0,1-.679.573,1.309,1.309,0,0,1-.646.193.919.919,0,0,1-.736-.329,1.786,1.786,0,0,1-.36-.736,3.262,3.262,0,0,1-.106-.723C611.577,527.638,611.571,527.55,611.566,527.461Zm3.142-1.669c0-.016.011-.029.014-.043.042-.179.086-.358.125-.538a6.726,6.726,0,0,0,.176-1.162,3.989,3.989,0,0,0-.03-.817,1.1,1.1,0,0,0-.129-.393.426.426,0,0,0-.422-.218.664.664,0,0,0-.319.121,1.54,1.54,0,0,0-.383.385,5.285,5.285,0,0,0-.619,1.115,10.434,10.434,0,0,0-.429,1.332c-.018.071-.037.142-.056.218Zm-2.155.33c-.007.026-.015.05-.021.076a10.591,10.591,0,0,0-.237,1.116,5.158,5.158,0,0,0-.061.713c0,.1.007.2.008.3a2.289,2.289,0,0,0,.047.42.945.945,0,0,0,.129.348.392.392,0,0,0,.341.19.683.683,0,0,0,.39-.127,1.419,1.419,0,0,0,.329-.318,5.151,5.151,0,0,0,.644-1.135,8.986,8.986,0,0,0,.424-1.288c.026-.1.048-.194.073-.3Z" transform="translate(-510.285 -228.266)"/>
    <path d="M595.867,525.7c-.018.092-.036.179-.052.265a8.173,8.173,0,0,0-.105.811,6.473,6.473,0,0,0-.022.7,4.145,4.145,0,0,0,.306,1.482.423.423,0,0,1,.037.137.386.386,0,0,1-.3.4.536.536,0,0,1-.17.013.206.206,0,0,1-.157-.1.788.788,0,0,1-.108-.249,2.708,2.708,0,0,1-.107-.657c0-.139-.013-.278-.008-.417a5.1,5.1,0,0,1,.09-.826q.156-.759.318-1.517l0-.028c-.053-.015-1.023-.019-1.117,0l-.038.15c-.152.6-.3,1.2-.459,1.8-.1.4-.216.8-.327,1.2a2.143,2.143,0,0,1-.161.43.377.377,0,0,1-.255.215.359.359,0,0,1-.231-.022.264.264,0,0,1-.134-.334,2.466,2.466,0,0,1,.1-.229c.309-.663.6-1.332.854-2.018q.206-.557.365-1.128a.669.669,0,0,0,.014-.068c-.025,0-.045,0-.065,0-.195,0-.389,0-.584,0a1.24,1.24,0,0,0-.7.24,1.926,1.926,0,0,0-.464.5.86.86,0,0,1-.078.1.145.145,0,0,1-.171.029.088.088,0,0,1-.04-.122c.035-.072.072-.142.113-.209a3.757,3.757,0,0,1,.58-.748,1.269,1.269,0,0,1,.726-.364,1.033,1.033,0,0,1,.136-.007h3.5a.692.692,0,0,1,.157.016.2.2,0,0,1,.169.238.288.288,0,0,1-.258.3.9.9,0,0,1-.213.025c-.355,0-.71,0-1.065,0Z" transform="translate(-510.285 -228.266)"/>
    <path d="M633.036,525.7h-1.114l-.025.1c-.158.62-.313,1.24-.474,1.859q-.158.6-.33,1.205a3.271,3.271,0,0,1-.159.423.347.347,0,0,1-.259.218.4.4,0,0,1-.114.006.274.274,0,0,1-.234-.4c.029-.065.063-.129.093-.194.322-.688.627-1.384.882-2.1.122-.342.224-.692.334-1.039a.648.648,0,0,0,.015-.068.427.427,0,0,0-.056-.007c-.2,0-.4,0-.6,0a1.238,1.238,0,0,0-.689.239,1.928,1.928,0,0,0-.468.5c-.023.034-.05.065-.073.1a.147.147,0,0,1-.171.029.088.088,0,0,1-.04-.128c.04-.079.083-.156.129-.232a3.98,3.98,0,0,1,.435-.589,1.372,1.372,0,0,1,.746-.473,1.158,1.158,0,0,1,.234-.027q1.756,0,3.514,0a.684.684,0,0,1,.156.017.2.2,0,0,1,.164.235.288.288,0,0,1-.256.3.954.954,0,0,1-.213.025c-.358,0-.715,0-1.073,0h-.083c-.012.053-.023.1-.032.151a8.147,8.147,0,0,0-.123.865,6.13,6.13,0,0,0-.026.754,4.15,4.15,0,0,0,.295,1.455.553.553,0,0,1,.052.193.336.336,0,0,1-.09.243.421.421,0,0,1-.356.151.205.205,0,0,1-.178-.1,1.277,1.277,0,0,1-.108-.242,2.569,2.569,0,0,1-.11-.663c0-.139-.013-.278-.008-.417a5.09,5.09,0,0,1,.089-.826c.1-.5.21-1.007.316-1.511A.414.414,0,0,0,633.036,525.7Z" transform="translate(-510.285 -228.266)"/>
    <path d="M620.346,525.966l.308.147.638.3.983.459.846.4.872.408.716.336c.291.137.581.273.871.411a.684.684,0,0,1,.125.084.186.186,0,0,1,.025.235.189.189,0,0,1-.229.086c-.071-.028-.139-.064-.209-.1-.321-.151-.641-.3-.962-.453l-1.192-.556c-.36-.169-.719-.339-1.08-.507l-1.191-.557-.865-.407c-.052-.024-.106-.046-.157-.072a.716.716,0,0,1-.115-.072.192.192,0,0,1,.019-.308c.078-.047.159-.088.241-.127.221-.105.443-.207.664-.311l.924-.434.78-.368,1.028-.482.657-.309.923-.434c.159-.074.316-.15.476-.222a.235.235,0,0,1,.159-.027.186.186,0,0,1,.153.16.177.177,0,0,1-.084.2c-.083.047-.17.089-.256.13l-.8.376-.937.44-.787.371-.93.437-.767.361-.813.382Z" transform="translate(-510.285 -228.266)"/>
    <path d="M602.1,526.919l.192.093.955.449,1.041.488.917.433,1.041.488.916.433c.076.036.152.072.226.11a.208.208,0,0,1,.121.143.192.192,0,0,1-.064.194.177.177,0,0,1-.2.037c-.089-.04-.177-.084-.266-.125l-1.132-.531-.774-.365-.872-.407-.767-.362-.866-.4-.761-.357c-.08-.038-.161-.075-.24-.114a.8.8,0,0,1-.079-.049.2.2,0,0,1,0-.3,1.673,1.673,0,0,1,.22-.12c.22-.106.442-.208.663-.311l.879-.412.754-.355.885-.414.761-.358.885-.415c.217-.1.432-.2.648-.309a.313.313,0,0,1,.144-.039.192.192,0,0,1,.182.137.183.183,0,0,1-.068.216c-.086.048-.172.1-.261.137-.227.109-.455.214-.683.321l-.93.437-.78.368-.936.44-.806.38-.9.424C602.128,526.9,602.12,526.908,602.1,526.919Z" transform="translate(-510.285 -228.266)"/>
    <path d="M587.906,526.717h2.743a.812.812,0,0,1,.163.016.175.175,0,0,1,.146.18.171.171,0,0,1-.136.185.694.694,0,0,1-.163.021H585.4c-.092,0-.183,0-.274,0a.671.671,0,0,1-.148-.023.19.19,0,0,1,0-.36.745.745,0,0,1,.17-.019Z" transform="translate(-510.285 -228.266)"/>
  </g>
</svg>
