<svg id="Layer_1" data-name="Layer 1" xmlns="http://www.w3.org/2000/svg" viewBox="0 0 256.577 231.129">
  <defs>
    <style>
      .cls-1, .cls-2, .cls-5, .cls-7, .cls-8, .cls-9 {
        fill: none;
        stroke: #000;
        stroke-miterlimit: 10;
        stroke-width: 0.85px;
      }

      .cls-2, .cls-5, .cls-7, .cls-8, .cls-9 {
        stroke-linecap: round;
      }

      .cls-2, .cls-5, .cls-7, .cls-9 {
        stroke-dashoffset: -0.425px;
      }

      .cls-2 {
        stroke-dasharray: 0 3.706;
      }

      .cls-3 {
        fill: red;
      }

      .cls-4 {
        fill: #1d1d1b;
      }

      .cls-5 {
        stroke-dasharray: 0 3.331;
      }

      .cls-6 {
        fill: blue;
      }

      .cls-7 {
        stroke-dasharray: 0 3.684;
      }

      .cls-8 {
        stroke-dashoffset: 0.425px;
        stroke-dasharray: 0 4.677;
      }

      .cls-9 {
        stroke-dasharray: 0 3.331;
      }
    </style>
  </defs>
  <title>sininLTIsinout</title>
  <g>
    <line class="cls-1" x1="50.15" y1="36.871" x2="195.425" y2="36.871"/>
    <polyline points="63.048 5.973 60.78 1.438 58.512 5.973 60.78 4.839"/>
    <line class="cls-1" x1="60.78" y1="58.13" x2="60.78" y2="4.839"/>
    <path class="cls-2" d="M611.422,304.781s12.6-14.173,21.26-14.173,13.923,9.282,21.26,14.173,12.6,14.173,21.26,14.173,13.923-9.282,21.259-14.173,12.6-14.173,21.26-14.173,21.26,14.173,21.26,14.173h0" transform="translate(-554.186 -267.91)"/>
    <path class="cls-1" d="M717.721,290.608v14.173m-85.039,14.173v7.087" transform="translate(-554.186 -267.91)"/>
    <polyline points="73.961 56.855 78.497 54.587 73.961 52.319 75.095 54.587"/>
    <line class="cls-1" x1="60.78" y1="54.587" x2="75.095" y2="54.587"/>
    <path class="cls-3" d="M606.516,293.4c.11.329.25.4.847.4h.179v.309c-.418-.02-.876-.03-1.305-.03-.378,0-1.076,0-1.434.03V293.8c.269,0,.826,0,.826-.3a.747.747,0,0,0-.029-.139l-.528-1.525H602.61l-.458,1.306a.663.663,0,0,0-.02.149c0,.259.249.508.747.508v.309c-.318-.01-.837-.03-1.146-.03-.358,0-.787.02-1.016.03V293.8a1.035,1.035,0,0,0,1.116-.668l2.063-5.958c.05-.139.08-.2.239-.2s.179.069.229.2Zm-3.8-1.873h2.242l-1.126-3.238Z" transform="translate(-554.186 -267.91)"/>
    <path class="cls-3" d="M622.921,327.735a1.834,1.834,0,0,1,1.913,1.8,3.125,3.125,0,0,1-3.049,2.73l-.378,1.484a2.453,2.453,0,0,1-.11.4.114.114,0,0,1-.1.039c-.05,0-.119-.009-.119-.109,0-.03.1-.409.219-.877.08-.309.15-.628.229-.936a1.835,1.835,0,0,1-1.913-1.8,3.126,3.126,0,0,1,3.049-2.73l.578-2.3c.04-.169.05-.2.15-.2.119,0,.119.09.119.1s-.03.12-.03.14Zm-.318.219a2.7,2.7,0,0,0-2.342,2.72,1.294,1.294,0,0,0,1.315,1.375Zm-.768,4.095a2.7,2.7,0,0,0,2.352-2.72,1.29,1.29,0,0,0-1.326-1.375Z" transform="translate(-554.186 -267.91)"/>
    <path class="cls-1" d="M632.682,304.781V290.608m-21.26,0h7.087" transform="translate(-554.186 -267.91)"/>
    <path class="cls-4" d="M628.591,273.739a3.877,3.877,0,0,0-.17.877c0,.339.16.658.548.658.319,0,1-.239,1.325-1.306.02-.07.04-.109.13-.109.03,0,.12,0,.12.1,0,.25-.568,1.535-1.6,1.535a1.1,1.1,0,0,1-1.075-.757,1.329,1.329,0,0,1-1.047.757c-.438,0-.936-.2-.936-.658a.567.567,0,0,1,.547-.578.342.342,0,0,1,.369.349.565.565,0,0,1-.468.538.954.954,0,0,0,.5.13c.438,0,.787-.419.947-1.037a14.59,14.59,0,0,0,.538-2.371c0-.578-.349-.668-.538-.668-.339,0-1,.25-1.335,1.306-.02.089-.051.109-.13.109-.02,0-.12,0-.12-.1,0-.249.569-1.535,1.605-1.535a1.1,1.1,0,0,1,1.076.757,1.289,1.289,0,0,1,1.046-.757c.339,0,.927.14.927.658a.556.556,0,0,1-.539.578.347.347,0,0,1-.378-.349.579.579,0,0,1,.478-.538.974.974,0,0,0-.5-.13c-.7,0-.927.917-.986,1.176Z" transform="translate(-554.186 -267.91)"/>
    <path class="cls-4" d="M632.418,277.875V267.91h1.365v.4h-.967v9.167h.967v.4Z" transform="translate(-554.186 -267.91)"/>
    <path class="cls-4" d="M635.455,272.494a3.227,3.227,0,0,0,.159-.837c0-.329-.11-.459-.309-.459-.358,0-.558.479-.727,1.186-.06.22-.07.229-.169.229-.02,0-.12,0-.12-.1a4.983,4.983,0,0,1,.3-.967.871.871,0,0,1,.747-.568.9.9,0,0,1,.917.867,1.926,1.926,0,0,1,1.554-.867,1.019,1.019,0,0,1,1.146,1.066,8.937,8.937,0,0,1-.608,2.192,1.9,1.9,0,0,0-.179.708c0,.229.07.329.239.329.488,0,.817-.558,1.016-1.236.05-.149.05-.179.15-.179.03,0,.119,0,.119.1,0,.08-.368,1.535-1.3,1.535a.8.8,0,0,1-.817-.817,1.136,1.136,0,0,1,.1-.459,9.5,9.5,0,0,0,.647-2.321c0-.329-.089-.7-.538-.7a1.984,1.984,0,0,0-1.624,1.216c-.01.04-.089.329-.13.5-.049.23-.109.449-.168.668l-.22.9c-.06.249-.179.717-.189.737a.408.408,0,0,1-.369.279.267.267,0,0,1-.289-.269c0-.05.06-.279.09-.429Z" transform="translate(-554.186 -267.91)"/>
    <g>
      <path class="cls-4" d="M641.584,277.875h-1.365v-.4h.967v-9.167h-.967v-.4h1.365Z" transform="translate(-554.186 -267.91)"/>
      <path class="cls-4" d="M646.536,272.125c-.15,0-.339,0-.339-.2s.189-.2.328-.2h5.969c.139,0,.329,0,.329.2s-.19.2-.339.2Zm-.011,1.933c-.139,0-.328,0-.328-.2s.189-.2.339-.2h5.948c.149,0,.339,0,.339.2s-.19.2-.329.2Z" transform="translate(-554.186 -267.91)"/>
    </g>
    <path class="cls-3" d="M661.329,268.418c.06-.1.1-.169.259-.169s.17.04.189.239l.608,6.228c.03.289.03.358.648.358.13,0,.229,0,.229.11,0,.2-.119.2-.179.2-.25,0-.877-.029-1.126-.029-.409,0-.837.029-1.246.029-.02,0-.139,0-.139-.109,0-.2.1-.2.239-.2.2,0,.717-.03.717-.328,0-.1-.139-1.455-.159-1.664h-2.5l-.757,1.275a.774.774,0,0,0-.14.369c0,.249.239.329.468.348.07,0,.16.01.16.12,0,.189-.129.189-.189.189-.319,0-.668-.029-1-.029-.279,0-.588.029-.856.029a.117.117,0,0,1-.13-.109c0-.19.09-.19.209-.2a1.409,1.409,0,0,0,1.226-.837Zm.01,4.355-.318-3.288-1.964,3.288Z" transform="translate(-554.186 -267.91)"/>
    <g>
      <path class="cls-3" d="M667.766,275.244a1.3,1.3,0,0,0,1.305-1.046c.02-.06.04-.1.13-.1.03,0,.13,0,.13.1a1.641,1.641,0,0,1-1.655,1.3,2.206,2.206,0,0,1-2.142-2.262,2.234,2.234,0,0,1,2.162-2.312c.767,0,1.525.389,1.525,1.066a.459.459,0,1,1-.917.011.45.45,0,0,1,.468-.459,1.628,1.628,0,0,0-1.066-.369c-.528,0-1.345.419-1.345,2.043C666.361,274.815,667.238,275.244,667.766,275.244Z" transform="translate(-554.186 -267.91)"/>
      <path class="cls-3" d="M672.129,275.493a2.225,2.225,0,0,1-2.2-2.242,2.21,2.21,0,1,1,4.414,0A2.219,2.219,0,0,1,672.129,275.493Zm1.166-.987a3.015,3.015,0,0,0,.22-1.335,2.727,2.727,0,0,0-.26-1.385,1.305,1.305,0,0,0-1.126-.647,1.336,1.336,0,0,0-1.135.667,2.85,2.85,0,0,0-.24,1.365,2.965,2.965,0,0,0,.249,1.405,1.3,1.3,0,0,0,1.137.668A1.284,1.284,0,0,0,673.3,274.506Z" transform="translate(-554.186 -267.91)"/>
      <path class="cls-3" d="M675.417,272.992a1.062,1.062,0,0,1-.429-.847c0-.558.379-1.226,1.595-1.226a1.537,1.537,0,0,1,.937.279,1.264,1.264,0,0,0,.168-.159c.13-.12.15-.12.2-.12.11,0,.11.07.11.24v1.006c0,.189,0,.239-.13.239a.106.106,0,0,1-.119-.09,1.1,1.1,0,0,0-1.166-1.205c-.857,0-1.116.408-1.116.757,0,.578.667.707,1.225.817a2.029,2.029,0,0,1,1.136.478,1.286,1.286,0,0,1,.419.947c0,.717-.458,1.385-1.6,1.385a1.489,1.489,0,0,1-1.1-.429,2.61,2.61,0,0,0-.2.229c-.189.19-.2.2-.249.2-.11,0-.11-.07-.11-.239v-1.316c0-.179,0-.249.13-.249.1,0,.11.04.139.17.19.847.549,1.415,1.386,1.415.777,0,1.126-.4,1.126-.907,0-.718-.818-.877-1.037-.917A2.608,2.608,0,0,1,675.417,272.992Z" transform="translate(-554.186 -267.91)"/>
      <path class="cls-3" d="M681.813,277.875A4.3,4.3,0,0,1,680.259,276a7.668,7.668,0,0,1-.03-6.147,4.34,4.34,0,0,1,1.584-1.944.09.09,0,0,1,.1.1c0,.03,0,.05-.13.169a6.521,6.521,0,0,0-1.6,4.713,6.6,6.6,0,0,0,1.565,4.664c.169.169.169.189.169.219A.09.09,0,0,1,681.813,277.875Z" transform="translate(-554.186 -267.91)"/>
    </g>
    <path class="cls-3" d="M684.091,275.493c-.907,0-1.2-1.106-1.2-2.043,0-2.282,1.534-5.091,2.918-5.091,1.017,0,1.2,1.385,1.2,2.042C687.01,272.633,685.5,275.493,684.091,275.493Zm-.22-3.408a7.623,7.623,0,0,0-.318,1.973c0,.927.209,1.216.538,1.216.429,0,.806-.488,1.155-1.166a8.9,8.9,0,0,0,.7-2.023Zm2.163-.318a8.328,8.328,0,0,0,.319-1.983c0-.568-.06-1.206-.548-1.206-.449,0-.818.558-1.086,1.046a9.015,9.015,0,0,0-.768,2.143Z" transform="translate(-554.186 -267.91)"/>
    <path class="cls-3" d="M689.5,276.249c0,.23,0,.321.7.321h.266v.251c-.154-.007-1.032-.028-1.249-.028-.258,0-1.115.021-1.241.028v-.251h.265c.7,0,.7-.091.7-.321v-3.556a2.3,2.3,0,0,1-1.012.195v-.251a1.9,1.9,0,0,0,1.367-.447c.195,0,.209.008.209.2Z" transform="translate(-554.186 -267.91)"/>
    <path class="cls-3" d="M693.057,272.494a3.227,3.227,0,0,0,.159-.837c0-.329-.11-.459-.309-.459-.359,0-.558.479-.727,1.186-.06.22-.071.229-.17.229-.02,0-.119,0-.119-.1a5.031,5.031,0,0,1,.3-.967.872.872,0,0,1,.748-.568.9.9,0,0,1,.917.867,1.922,1.922,0,0,1,1.554-.867,1.019,1.019,0,0,1,1.146,1.066,8.982,8.982,0,0,1-.608,2.192,1.9,1.9,0,0,0-.179.708c0,.229.069.329.239.329.488,0,.816-.558,1.015-1.236.051-.149.051-.179.151-.179.029,0,.119,0,.119.1,0,.08-.369,1.535-1.306,1.535a.8.8,0,0,1-.816-.817,1.136,1.136,0,0,1,.1-.459,9.5,9.5,0,0,0,.647-2.321c0-.329-.09-.7-.538-.7a1.983,1.983,0,0,0-1.624,1.216c-.01.04-.09.329-.13.5-.05.23-.109.449-.169.668l-.22.9c-.059.249-.178.717-.189.737a.407.407,0,0,1-.368.279.266.266,0,0,1-.289-.269c0-.05.059-.279.09-.429Z" transform="translate(-554.186 -267.91)"/>
    <path class="cls-3" d="M703.841,275.881c0,.14,0,.329-.2.329s-.2-.189-.2-.329v-2.789h-2.79c-.139,0-.329,0-.329-.2s.19-.2.329-.2h2.79V269.9c0-.139,0-.329.2-.329s.2.19.2.329v2.79h2.78c.14,0,.328,0,.328.2s-.188.2-.328.2h-2.78Z" transform="translate(-554.186 -267.91)"/>
    <path class="cls-3" d="M713.515,270.969a1.835,1.835,0,0,1,1.913,1.8,3.126,3.126,0,0,1-3.049,2.73L712,276.987a2.453,2.453,0,0,1-.11.4.116.116,0,0,1-.1.04c-.05,0-.119-.01-.119-.11,0-.029.1-.408.219-.877.08-.309.149-.627.229-.936a1.834,1.834,0,0,1-1.913-1.8,3.126,3.126,0,0,1,3.049-2.73l.578-2.3c.04-.169.05-.2.149-.2.12,0,.12.09.12.1s-.03.12-.03.14Zm-.319.219a2.7,2.7,0,0,0-2.342,2.721,1.3,1.3,0,0,0,1.316,1.375Zm-.767,4.1a2.705,2.705,0,0,0,2.351-2.721,1.291,1.291,0,0,0-1.325-1.375Z" transform="translate(-554.186 -267.91)"/>
    <path class="cls-3" d="M717.854,275.931a4.347,4.347,0,0,1-1.584,1.944.094.094,0,0,1-.1-.1c0-.03,0-.05.129-.17a6.535,6.535,0,0,0,1.6-4.713,6.463,6.463,0,0,0-1.545-4.653c-.188-.179-.188-.2-.188-.229a.094.094,0,0,1,.1-.1,4.3,4.3,0,0,1,1.553,1.874,7.674,7.674,0,0,1,.031,6.147Z" transform="translate(-554.186 -267.91)"/>
    <path class="cls-1" d="M614.966,304.781v-3.543m3.543,3.543v-7.087m3.543,7.087v-10.63m3.544,10.63v-10.63m3.543,10.63V290.608m7.086,14.173V290.608m3.544,14.173v-10.63m3.543,10.63v-7.087m3.543,7.087v-3.543m3.544,3.543h0m7.086,0v3.543m3.543-3.543v7.086m3.544-7.086v10.63m3.543-10.63v10.63m3.543-10.63v14.173m3.544-14.173v14.173m3.543-14.173v14.173m3.543-14.173v10.63m3.543-10.63v7.086m3.544-7.086v3.543m3.543-3.543v3.543m7.087-3.543v-3.543m3.543,3.543v-7.087m3.543,7.087v-10.63m3.543,10.63v-10.63m3.544,10.63V290.608m7.086,14.173v-10.63m3.544,10.63v-10.63m3.543,10.63v-7.087m3.543,7.087v-7.087m3.544,7.087v-3.543m-17.717,17.716v7.087" transform="translate(-554.186 -267.91)"/>
    <polyline points="83.032 52.319 78.497 54.587 83.032 56.855 81.898 54.587"/>
    <polyline points="159 56.855 163.536 54.587 159 52.319 160.134 54.587"/>
    <line class="cls-1" x1="81.898" y1="54.587" x2="160.134" y2="54.587"/>
    <g>
      <path class="cls-4" d="M651.187,332.368a3.635,3.635,0,1,1,3.317-3.6A3.461,3.461,0,0,1,651.187,332.368Zm2.291-3.736c0-2.551-1.425-3.258-2.291-3.258-.828,0-2.282.677-2.282,3.258,0,2.6,1.335,3.477,2.291,3.477C652.113,332.109,653.478,331.272,653.478,328.632Z" transform="translate(-554.186 -267.91)"/>
      <path class="cls-4" d="M655.44,328.164v-.31l1.4-.109v1.046a1.57,1.57,0,0,1,1.474-1.046,1.333,1.333,0,0,1,1.047.368c.309.359.309.668.309,1.525v1.9c.01.3.259.3.777.3v.309c-.339-.01-.857-.03-1.116-.03s-.777.02-1.126.03v-.309c.667,0,.777,0,.777-.448V329.07c0-.568-.11-1.106-.737-1.106a1.455,1.455,0,0,0-1.345,1.594v1.834c0,.448.109.448.777.448v.309c-.339-.01-.857-.03-1.116-.03s-.777.02-1.126.03v-.309c.667,0,.777,0,.777-.448v-2.671C656.217,328.233,656.137,328.164,655.44,328.164Z" transform="translate(-554.186 -267.91)"/>
    </g>
    <g>
      <path class="cls-4" d="M662.045,331.342a1.344,1.344,0,0,0,1.126.667,1.4,1.4,0,0,0,1.346-1.026c.02-.08.04-.139.129-.139a.116.116,0,0,1,.13.119,1.7,1.7,0,0,1-1.664,1.295,2.25,2.25,0,0,1-2.193-2.3,2.178,2.178,0,0,1,2.073-2.272,1.767,1.767,0,0,1,1.784,1.953c0,.209-.03.209-.25.209h-2.779A2.91,2.91,0,0,0,662.045,331.342Zm2.073-1.7c0-.388-.1-1.734-1.126-1.734-.339,0-1.176.249-1.235,1.734Z" transform="translate(-554.186 -267.91)"/>
      <path class="cls-4" d="M671.431,327.745A2.181,2.181,0,0,1,673.513,330a2.245,2.245,0,0,1-2.222,2.261,1.354,1.354,0,0,1-1.226-.7v1.764c0,.448.11.448.778.448v.309c-.349-.01-.857-.03-1.126-.03s-.778.02-1.116.03v-.309c.668,0,.777,0,.777-.448v-4.663c0-.439-.07-.5-.777-.5v-.31l1.435-.109v.657A1.794,1.794,0,0,1,671.431,327.745Zm-1.226,3.687a1.243,1.243,0,0,0,1.046.608c.737,0,1.435-.838,1.435-2.043,0-1.126-.608-2-1.335-2a1.5,1.5,0,0,0-1.286.8v2.222A.523.523,0,0,0,670.205,331.432Z" transform="translate(-554.186 -267.91)"/>
    </g>
    <g>
      <path class="cls-4" d="M675.483,331.342a1.343,1.343,0,0,0,1.126.667,1.4,1.4,0,0,0,1.345-1.026c.02-.08.04-.139.129-.139a.116.116,0,0,1,.13.119,1.7,1.7,0,0,1-1.664,1.295,2.249,2.249,0,0,1-2.192-2.3,2.178,2.178,0,0,1,2.073-2.272,1.767,1.767,0,0,1,1.783,1.953c0,.209-.03.209-.249.209h-2.78A2.9,2.9,0,0,0,675.483,331.342Zm2.073-1.7c0-.388-.1-1.734-1.126-1.734-.339,0-1.176.249-1.236,1.734Z" transform="translate(-554.186 -267.91)"/>
      <path class="cls-4" d="M681.4,327.745a.68.68,0,0,1,.737.608.419.419,0,0,1-.429.438.412.412,0,0,1-.428-.428.432.432,0,0,1,.229-.389c-.02-.01-.039-.01-.109-.01-.757,0-1.176.887-1.176,1.873v1.535c0,.358.02.468.757.468h.209v.309c-.4-.03-.866-.03-1.265-.03-.279,0-.747.02-1.136.03v-.309c.668,0,.777,0,.777-.448v-2.671c0-.488-.079-.557-.777-.557v-.31l1.385-.109v1.1A1.4,1.4,0,0,1,681.4,327.745Z" transform="translate(-554.186 -267.91)"/>
      <path class="cls-4" d="M684.18,331.4c0,.388.04.438.7.438v.309c-.339-.01-.688-.03-1.036-.03-.239,0-.778.02-1.1.03v-.309c.668,0,.777,0,.777-.448v-2.681c0-.488-.089-.547-.737-.547v-.31l1.395-.109Zm-.489-4.863a.531.531,0,0,1-.527-.528.537.537,0,0,1,.527-.528.528.528,0,1,1,0,1.056Z" transform="translate(-554.186 -267.91)"/>
      <path class="cls-4" d="M687.668,332.258a2.223,2.223,0,0,1-2.2-2.241,2.21,2.21,0,1,1,4.414,0A2.22,2.22,0,0,1,687.668,332.258Zm1.165-.986a3.019,3.019,0,0,0,.22-1.335,2.734,2.734,0,0,0-.259-1.385,1.309,1.309,0,0,0-1.126-.648,1.338,1.338,0,0,0-1.137.668,2.867,2.867,0,0,0-.238,1.365,2.969,2.969,0,0,0,.249,1.4,1.3,1.3,0,0,0,1.136.667A1.283,1.283,0,0,0,688.833,331.272Z" transform="translate(-554.186 -267.91)"/>
    </g>
    <path class="cls-4" d="M692.967,332.258a2.192,2.192,0,0,1-2.113-2.251,2.252,2.252,0,0,1,2.222-2.262,1.591,1.591,0,0,1,1.256.618V326.21c0-.488-.08-.558-.777-.558v-.308l1.434-.11v6.048c0,.489.08.558.778.558v.309l-1.465.109V331.6A1.683,1.683,0,0,1,692.967,332.258Zm1.225-3.7a1.289,1.289,0,0,0-1.076-.6,1.369,1.369,0,0,0-1.126.638,3.433,3.433,0,0,0-.019,2.8,1.239,1.239,0,0,0,1.046.638,1.388,1.388,0,0,0,1.175-.7.477.477,0,0,0,.11-.369v-2.042A.475.475,0,0,0,694.192,328.562Z" transform="translate(-554.186 -267.91)"/>
    <path class="cls-5" d="M632.682,318.954V304.781m85.039,14.173V304.781" transform="translate(-554.186 -267.91)"/>
    <line class="cls-1" x1="50.15" y1="185.689" x2="195.425" y2="185.689"/>
    <polyline points="63.048 154.791 60.78 150.256 58.512 154.791 60.78 153.657"/>
    <line class="cls-1" x1="60.78" y1="206.949" x2="60.78" y2="153.657"/>
    <polyline points="63.331 205.673 67.867 203.405 63.331 201.138 64.465 203.405"/>
    <line class="cls-1" x1="60.78" y1="203.405" x2="64.465" y2="203.405"/>
    <path class="cls-6" d="M554.584,449c0,.18,0,.359-.2.359s-.2-.179-.2-.359v-9.246c0-.18,0-.359.2-.359s.2.179.2.359Z" transform="translate(-554.186 -267.91)"/>
    <path class="cls-6" d="M562.015,446.211a.988.988,0,0,0-.03.168c0,.18.279.18.648.18.189,0,.279,0,.279.109,0,.2-.12.2-.2.2-.21,0-.429-.019-.648-.019s-.428-.01-.638-.01c-.279,0-.986.029-1.265.029-.02,0-.14,0-.14-.109,0-.2.09-.2.24-.2.617,0,.807-.01.906-.329.04-.15.27-1.1.688-2.75h-3.039l-.678,2.731a.988.988,0,0,0-.03.168c0,.18.279.18.648.18.189,0,.279,0,.279.109,0,.2-.119.2-.2.2-.21,0-.429-.019-.648-.019s-.428-.01-.638-.01c-.279,0-.986.029-1.265.029-.02,0-.14,0-.14-.109,0-.2.09-.2.27-.2.787,0,.807-.08.906-.469l1.335-5.35a.871.871,0,0,0,.04-.189c0-.129-.09-.141-.269-.16a3.617,3.617,0,0,0-.379-.02c-.189,0-.278,0-.278-.109,0-.2.109-.2.189-.2.289,0,1,.029,1.285.029s1-.029,1.276-.029c.029,0,.139,0,.139.109,0,.2-.079.2-.339.2-.717,0-.747.1-.837.459l-.588,2.342h3.04l.6-2.432a1.042,1.042,0,0,0,.04-.189c0-.129-.09-.141-.269-.16a3.617,3.617,0,0,0-.379-.02c-.189,0-.279,0-.279-.109,0-.2.11-.2.19-.2.289,0,1,.029,1.285.029s1-.029,1.275-.029c.03,0,.14,0,.14.109,0,.2-.079.2-.339.2-.727,0-.747.1-.837.459Z" transform="translate(-554.186 -267.91)"/>
    <g>
      <path class="cls-6" d="M568.081,449.359a4.3,4.3,0,0,1-1.554-1.873,7.671,7.671,0,0,1-.03-6.148,4.334,4.334,0,0,1,1.584-1.943.089.089,0,0,1,.1.1c0,.029,0,.051-.13.17a6.52,6.52,0,0,0-1.6,4.713,6.6,6.6,0,0,0,1.565,4.662c.169.17.169.19.169.221A.09.09,0,0,1,568.081,449.359Z" transform="translate(-554.186 -267.91)"/>
      <path class="cls-6" d="M570.123,446.061a1.343,1.343,0,0,0,1.126.668,1.4,1.4,0,0,0,1.345-1.028c.02-.078.04-.138.13-.138a.116.116,0,0,1,.13.119,1.7,1.7,0,0,1-1.665,1.295,2.248,2.248,0,0,1-2.192-2.3,2.178,2.178,0,0,1,2.073-2.272,1.768,1.768,0,0,1,1.784,1.953c0,.209-.031.209-.25.209h-2.78A2.9,2.9,0,0,0,570.123,446.061Zm2.073-1.7c0-.388-.1-1.734-1.126-1.734-.339,0-1.176.25-1.236,1.734Z" transform="translate(-554.186 -267.91)"/>
    </g>
    <path class="cls-6" d="M575.256,443.764a1.433,1.433,0,0,1-1.364,1.545c-.569,0-1.126-.28-1.126-.8a.458.458,0,1,1,.916,0,.461.461,0,0,1-.349.449,1.218,1.218,0,0,0,.539.129c.637,0,.727-.858.727-1.3v-3.947c0-.488-.09-.557-.857-.557v-.31l1.514-.11Zm-.527-6.108a.528.528,0,1,1,.527-.527A.531.531,0,0,1,574.729,437.656Z" transform="translate(-554.186 -267.91)"/>
    <path class="cls-6" d="M577.558,443.336c-.641,0-.962-.684-.962-1.514,0-1.6,1.115-3.465,2.161-3.465.683,0,.963.782.963,1.514C579.72,441.432,578.618,443.336,577.558,443.336Zm-.237-2.363a5.315,5.315,0,0,0-.2,1.261c0,.377.062.907.446.907.307,0,.585-.328.8-.69a5.042,5.042,0,0,0,.565-1.478Zm1.673-.252a5.525,5.525,0,0,0,.2-1.262c0-.133,0-.906-.447-.906-.411,0-1.011.662-1.366,2.168Z" transform="translate(-554.186 -267.91)"/>
    <path class="cls-6" d="M581.98,443.8c0,.154,0,.209.527.209h.249v.219c-.274-.02-.716-.02-1-.02s-.731,0-1,.02v-.219H581c.527,0,.527-.055.527-.209v-2.486a2,2,0,0,1-.726.138h-.085v-.219h.085a1.586,1.586,0,0,0,1-.318c.164,0,.179,0,.179.149Z" transform="translate(-554.186 -267.91)"/>
    <path class="cls-6" d="M586.689,447.416a4.327,4.327,0,0,1-1.584,1.943.1.1,0,0,1-.1-.1c0-.031,0-.051.13-.17a7.756,7.756,0,0,0,.06-9.367c-.19-.178-.19-.2-.19-.229a.094.094,0,0,1,.1-.1,4.3,4.3,0,0,1,1.555,1.873,7.676,7.676,0,0,1,.029,6.148Z" transform="translate(-554.186 -267.91)"/>
    <path class="cls-6" d="M589.866,449c0,.18,0,.359-.2.359s-.2-.179-.2-.359v-9.246c0-.18,0-.359.2-.359s.2.179.2.359Z" transform="translate(-554.186 -267.91)"/>
    <path class="cls-4" d="M595.783,444.9a.528.528,0,1,1,.529-.527A.531.531,0,0,1,595.783,444.9Z" transform="translate(-554.186 -267.91)"/>
    <path class="cls-3" d="M606.516,446.16c.11.328.25.4.847.4h.179v.308c-.418-.019-.876-.029-1.305-.029-.378,0-1.076,0-1.434.029v-.308c.269,0,.826,0,.826-.3a.764.764,0,0,0-.029-.139l-.528-1.525H602.61l-.458,1.3a.707.707,0,0,0-.02.151c0,.26.249.508.747.508v.308c-.318-.01-.837-.029-1.146-.029-.358,0-.787.019-1.016.029v-.308a1.037,1.037,0,0,0,1.116-.668l2.063-5.957c.05-.141.08-.2.239-.2s.179.069.229.2Zm-3.8-1.873h2.242l-1.126-3.238Z" transform="translate(-554.186 -267.91)"/>
    <line class="cls-1" x1="57.237" y1="175.059" x2="64.323" y2="175.059"/>
    <path class="cls-4" d="M629.487,429.236a2.628,2.628,0,0,1-2.331,2.034.943.943,0,0,1-1.056-.868.573.573,0,0,1,.558-.646.339.339,0,0,1,.368.348.538.538,0,0,1-.2.408.565.565,0,0,1-.429.121.807.807,0,0,0,.758.418,1.425,1.425,0,0,0,1.1-.629,3.819,3.819,0,0,0,.647-1.533,1.4,1.4,0,0,1-1.006.447,1.111,1.111,0,0,1-1.215-1.186,6.589,6.589,0,0,1,.577-2.091,2.116,2.116,0,0,0,.17-.7c0-.318-.17-.318-.249-.318-.339,0-.738.3-1.007,1.234-.049.161-.059.18-.159.18-.02,0-.119,0-.119-.1s.368-1.535,1.315-1.535a.791.791,0,0,1,.817.819,1.8,1.8,0,0,1-.2.716,5.946,5.946,0,0,0-.509,1.954c0,.369.11.806.618.806a1.385,1.385,0,0,0,1.126-.847l.448-1.793c.06-.27.13-.538.2-.8.04-.18.119-.489.139-.537a.432.432,0,0,1,.349-.211.266.266,0,0,1,.289.269.636.636,0,0,1-.04.231Z" transform="translate(-554.186 -267.91)"/>
    <path class="cls-4" d="M632.059,431.719v-9.965h1.365v.4h-.967v9.168h.967v.4Z" transform="translate(-554.186 -267.91)"/>
    <path class="cls-4" d="M635.1,426.338a3.205,3.205,0,0,0,.16-.838c0-.328-.11-.457-.309-.457-.359,0-.558.477-.727,1.186-.06.218-.07.228-.17.228-.02,0-.119,0-.119-.1a5,5,0,0,1,.3-.966.869.869,0,0,1,.747-.569.9.9,0,0,1,.917.867,1.927,1.927,0,0,1,1.554-.867,1.019,1.019,0,0,1,1.146,1.067,9,9,0,0,1-.608,2.193,1.887,1.887,0,0,0-.179.707c0,.229.069.328.239.328.488,0,.817-.558,1.016-1.234.05-.151.05-.18.149-.18.03,0,.12,0,.12.1,0,.08-.369,1.533-1.305,1.533a.8.8,0,0,1-.817-.816,1.136,1.136,0,0,1,.1-.459,9.511,9.511,0,0,0,.647-2.321c0-.33-.09-.7-.538-.7a1.98,1.98,0,0,0-1.624,1.215c-.01.039-.09.328-.13.5-.05.228-.109.449-.169.668l-.219.9c-.06.25-.18.717-.19.739a.4.4,0,0,1-.368.277.266.266,0,0,1-.289-.268c0-.05.06-.279.09-.429Z" transform="translate(-554.186 -267.91)"/>
    <g>
      <path class="cls-4" d="M641.225,431.719H639.86v-.4h.966v-9.168h-.966v-.4h1.365Z" transform="translate(-554.186 -267.91)"/>
      <path class="cls-4" d="M646.057,425.969c-.15,0-.339,0-.339-.2s.189-.2.328-.2h5.969c.139,0,.329,0,.329.2s-.19.2-.339.2Zm-.011,1.933c-.139,0-.328,0-.328-.2s.189-.2.339-.2h5.948c.149,0,.339,0,.339.2s-.19.2-.329.2Z" transform="translate(-554.186 -267.91)"/>
    </g>
    <path class="cls-6" d="M657.3,431.359c0,.18,0,.36-.2.36s-.2-.18-.2-.36v-9.246c0-.179,0-.359.2-.359s.2.18.2.359Z" transform="translate(-554.186 -267.91)"/>
    <path class="cls-6" d="M664.734,428.57a1.006,1.006,0,0,0-.03.168c0,.18.279.18.648.18.189,0,.279,0,.279.109,0,.2-.12.2-.2.2-.21,0-.429-.02-.648-.02s-.429-.01-.638-.01c-.279,0-.986.03-1.265.03-.02,0-.14,0-.14-.11,0-.2.09-.2.239-.2.618,0,.808-.01.907-.328.04-.151.269-1.1.688-2.75h-3.039l-.678,2.73a1.006,1.006,0,0,0-.03.168c0,.18.279.18.648.18.189,0,.279,0,.279.109,0,.2-.12.2-.2.2-.21,0-.429-.02-.648-.02s-.429-.01-.638-.01c-.279,0-.986.03-1.265.03-.02,0-.14,0-.14-.11,0-.2.09-.2.269-.2.787,0,.807-.08.907-.469l1.335-5.349a.887.887,0,0,0,.04-.19c0-.129-.09-.14-.269-.16a3.617,3.617,0,0,0-.379-.02c-.189,0-.279,0-.279-.109,0-.2.11-.2.19-.2.289,0,1,.029,1.285.029s1-.029,1.275-.029c.03,0,.14,0,.14.109,0,.2-.08.2-.339.2-.717,0-.747.1-.837.459l-.588,2.342h3.039l.6-2.431a1.044,1.044,0,0,0,.04-.19c0-.129-.09-.14-.269-.16a3.617,3.617,0,0,0-.379-.02c-.189,0-.279,0-.279-.109,0-.2.11-.2.19-.2.289,0,1,.029,1.285.029s1-.029,1.275-.029c.03,0,.14,0,.14.109,0,.2-.08.2-.339.2-.728,0-.747.1-.837.459Z" transform="translate(-554.186 -267.91)"/>
    <g>
      <path class="cls-6" d="M670.792,431.719a4.3,4.3,0,0,1-1.554-1.873,7.673,7.673,0,0,1-.03-6.149,4.341,4.341,0,0,1,1.584-1.943.089.089,0,0,1,.1.1c0,.029,0,.05-.13.169a6.521,6.521,0,0,0-1.6,4.713,6.6,6.6,0,0,0,1.565,4.662c.169.17.169.19.169.221A.09.09,0,0,1,670.792,431.719Z" transform="translate(-554.186 -267.91)"/>
      <path class="cls-6" d="M672.834,428.42a1.341,1.341,0,0,0,1.126.668,1.4,1.4,0,0,0,1.345-1.027c.02-.079.04-.139.13-.139a.115.115,0,0,1,.129.119,1.7,1.7,0,0,1-1.664,1.3,2.248,2.248,0,0,1-2.192-2.3,2.177,2.177,0,0,1,2.073-2.271,1.767,1.767,0,0,1,1.783,1.953c0,.209-.03.209-.249.209h-2.78A2.9,2.9,0,0,0,672.834,428.42Zm2.073-1.7c0-.389-.1-1.735-1.126-1.735-.339,0-1.176.25-1.236,1.735Z" transform="translate(-554.186 -267.91)"/>
    </g>
    <path class="cls-6" d="M677.975,426.131a1.434,1.434,0,0,1-1.365,1.545c-.568,0-1.126-.28-1.126-.8a.459.459,0,1,1,.917,0,.461.461,0,0,1-.349.449,1.217,1.217,0,0,0,.538.129c.638,0,.727-.857.727-1.305v-3.947c0-.488-.089-.557-.856-.557v-.31l1.514-.109Zm-.528-6.108a.528.528,0,1,1,.528-.527A.531.531,0,0,1,677.447,420.023Z" transform="translate(-554.186 -267.91)"/>
    <path class="cls-6" d="M680.285,425.688c-.642,0-.963-.684-.963-1.514,0-1.6,1.116-3.465,2.162-3.465.683,0,.962.781.962,1.514C682.446,423.783,681.344,425.688,680.285,425.688Zm-.238-2.364a5.385,5.385,0,0,0-.2,1.262c0,.377.063.906.447.906.306,0,.585-.328.8-.689a4.983,4.983,0,0,0,.565-1.479Zm1.674-.252a5.56,5.56,0,0,0,.2-1.261c0-.133,0-.907-.446-.907-.412,0-1.011.662-1.367,2.168Z" transform="translate(-554.186 -267.91)"/>
    <path class="cls-6" d="M684.7,426.158c0,.155,0,.209.528.209h.249v.219c-.274-.02-.717-.02-1-.02s-.732,0-1,.02v-.219h.249c.527,0,.527-.054.527-.209v-2.486a2.009,2.009,0,0,1-.726.139h-.085v-.219h.085a1.586,1.586,0,0,0,1-.319c.164,0,.178,0,.178.149Z" transform="translate(-554.186 -267.91)"/>
    <path class="cls-6" d="M689.291,429.775a4.34,4.34,0,0,1-1.584,1.944.094.094,0,0,1-.1-.1c0-.031,0-.051.129-.17a6.534,6.534,0,0,0,1.605-4.713,6.469,6.469,0,0,0-1.545-4.654c-.189-.178-.189-.2-.189-.228a.093.093,0,0,1,.1-.1,4.3,4.3,0,0,1,1.554,1.873,7.671,7.671,0,0,1,.03,6.148Z" transform="translate(-554.186 -267.91)"/>
    <path class="cls-6" d="M692.467,431.359c0,.18,0,.36-.2.36s-.2-.18-.2-.36v-9.246c0-.179,0-.359.2-.359s.2.18.2.359Z" transform="translate(-554.186 -267.91)"/>
    <path class="cls-4" d="M697.307,427.264a.529.529,0,1,1,.528-.528A.532.532,0,0,1,697.307,427.264Z" transform="translate(-554.186 -267.91)"/>
    <path class="cls-3" d="M706.1,422.262a.254.254,0,0,1,.259-.168c.169,0,.169.039.189.238l.608,6.227c.03.289.03.359.648.359.129,0,.228,0,.228.109,0,.2-.119.2-.178.2-.249,0-.877-.03-1.126-.03-.409,0-.837.03-1.246.03-.02,0-.139,0-.139-.11,0-.2.1-.2.238-.2.2,0,.718-.029.718-.328,0-.1-.14-1.455-.159-1.664h-2.5l-.758,1.275a.774.774,0,0,0-.139.369c0,.248.239.328.468.348.07,0,.159.01.159.119,0,.19-.129.19-.188.19-.32,0-.668-.03-1-.03-.279,0-.588.03-.857.03a.116.116,0,0,1-.13-.11c0-.189.09-.189.209-.2a1.408,1.408,0,0,0,1.226-.836Zm.009,4.355-.318-3.289-1.963,3.289Z" transform="translate(-554.186 -267.91)"/>
    <g>
      <path class="cls-3" d="M712.531,429.088a1.3,1.3,0,0,0,1.306-1.047.116.116,0,0,1,.13-.1c.029,0,.129,0,.129.1a1.639,1.639,0,0,1-1.654,1.3,2.2,2.2,0,0,1-2.142-2.262,2.233,2.233,0,0,1,2.162-2.31c.767,0,1.524.388,1.524,1.066a.459.459,0,1,1-.917.01.45.45,0,0,1,.469-.459,1.618,1.618,0,0,0-1.066-.369c-.529,0-1.345.42-1.345,2.043C711.127,428.658,712,429.088,712.531,429.088Z" transform="translate(-554.186 -267.91)"/>
      <path class="cls-3" d="M716.9,429.336a2.223,2.223,0,0,1-2.2-2.24,2.21,2.21,0,1,1,4.414,0A2.219,2.219,0,0,1,716.9,429.336Zm1.165-.986a3.027,3.027,0,0,0,.219-1.334,2.734,2.734,0,0,0-.259-1.385,1.3,1.3,0,0,0-1.125-.649,1.336,1.336,0,0,0-1.137.668,2.871,2.871,0,0,0-.238,1.366,2.965,2.965,0,0,0,.249,1.4,1.3,1.3,0,0,0,1.135.668A1.285,1.285,0,0,0,718.061,428.35Z" transform="translate(-554.186 -267.91)"/>
      <path class="cls-3" d="M720.183,426.836a1.061,1.061,0,0,1-.428-.848c0-.556.378-1.224,1.594-1.224a1.533,1.533,0,0,1,.936.279,1.435,1.435,0,0,0,.17-.16c.129-.119.149-.119.2-.119.11,0,.11.068.11.238v1.006c0,.189,0,.24-.13.24a.106.106,0,0,1-.119-.09,1.1,1.1,0,0,0-1.166-1.205c-.857,0-1.117.408-1.117.756,0,.578.668.709,1.226.818a2.029,2.029,0,0,1,1.137.479,1.284,1.284,0,0,1,.418.945c0,.719-.458,1.385-1.605,1.385a1.488,1.488,0,0,1-1.1-.428,2.377,2.377,0,0,0-.2.229c-.189.189-.2.2-.249.2-.109,0-.109-.068-.109-.238v-1.315c0-.179,0-.25.129-.25.1,0,.11.039.139.17.19.846.548,1.414,1.385,1.414.778,0,1.126-.4,1.126-.906,0-.717-.816-.877-1.036-.916A2.617,2.617,0,0,1,720.183,426.836Z" transform="translate(-554.186 -267.91)"/>
      <path class="cls-3" d="M726.579,431.719a4.31,4.31,0,0,1-1.554-1.873A7.673,7.673,0,0,1,725,423.7a4.341,4.341,0,0,1,1.584-1.943.089.089,0,0,1,.1.1c0,.029,0,.05-.129.169a6.518,6.518,0,0,0-1.6,4.713,6.6,6.6,0,0,0,1.565,4.662c.169.17.169.19.169.221A.09.09,0,0,1,726.579,431.719Z" transform="translate(-554.186 -267.91)"/>
    </g>
    <path class="cls-3" d="M728.849,429.336c-.908,0-1.2-1.106-1.2-2.041,0-2.283,1.535-5.092,2.919-5.092,1.017,0,1.2,1.385,1.2,2.041C731.768,426.477,730.254,429.336,728.849,429.336Zm-.22-3.406a7.6,7.6,0,0,0-.318,1.972c0,.926.209,1.215.538,1.215.428,0,.806-.488,1.155-1.166a8.906,8.906,0,0,0,.7-2.021Zm2.163-.321a8.3,8.3,0,0,0,.318-1.982c0-.568-.059-1.2-.547-1.2-.449,0-.818.558-1.086,1.047a9.011,9.011,0,0,0-.768,2.14Z" transform="translate(-554.186 -267.91)"/>
    <path class="cls-3" d="M734.258,430.1c0,.23,0,.322.7.322h.266v.25c-.155-.006-1.033-.027-1.249-.027-.258,0-1.116.021-1.242.027v-.25H733c.7,0,.7-.092.7-.322v-3.555a2.3,2.3,0,0,1-1.011.195v-.252a1.912,1.912,0,0,0,1.367-.445c.2,0,.209.006.209.195Z" transform="translate(-554.186 -267.91)"/>
    <path class="cls-3" d="M737.814,426.338a3.251,3.251,0,0,0,.16-.838c0-.328-.11-.457-.309-.457-.359,0-.559.477-.727,1.186-.06.218-.071.228-.17.228-.02,0-.12,0-.12-.1a5.078,5.078,0,0,1,.3-.966.87.87,0,0,1,.747-.569.9.9,0,0,1,.917.867,1.929,1.929,0,0,1,1.555-.867,1.019,1.019,0,0,1,1.146,1.067,9,9,0,0,1-.608,2.193,1.888,1.888,0,0,0-.18.707c0,.229.07.328.24.328.488,0,.816-.558,1.015-1.234.051-.151.051-.18.151-.18.029,0,.119,0,.119.1,0,.08-.369,1.533-1.306,1.533a.8.8,0,0,1-.816-.816,1.148,1.148,0,0,1,.1-.459,9.466,9.466,0,0,0,.648-2.321c0-.33-.09-.7-.538-.7a1.98,1.98,0,0,0-1.624,1.215c-.01.039-.09.328-.13.5-.05.228-.11.449-.169.668l-.22.9c-.059.25-.179.717-.189.739a.405.405,0,0,1-.368.277.267.267,0,0,1-.29-.268c0-.05.06-.279.09-.429Z" transform="translate(-554.186 -267.91)"/>
    <path class="cls-3" d="M748.591,429.725c0,.14,0,.33-.2.33s-.2-.19-.2-.33v-2.789H745.4c-.139,0-.329,0-.329-.2s.19-.2.329-.2h2.79v-2.791c0-.139,0-.328.2-.328s.2.189.2.328v2.791h2.78c.14,0,.328,0,.328.2s-.188.2-.328.2h-2.78Z" transform="translate(-554.186 -267.91)"/>
    <path class="cls-3" d="M758.272,424.813a1.835,1.835,0,0,1,1.914,1.8,3.125,3.125,0,0,1-3.049,2.729l-.378,1.486a2.366,2.366,0,0,1-.111.4.113.113,0,0,1-.1.04c-.05,0-.119-.01-.119-.11,0-.029.1-.408.218-.877.081-.308.15-.627.23-.937a1.833,1.833,0,0,1-1.913-1.8,3.126,3.126,0,0,1,3.049-2.73l.578-2.3c.04-.17.05-.2.149-.2.119,0,.119.089.119.1s-.029.119-.029.139Zm-.318.218a2.7,2.7,0,0,0-2.342,2.721,1.294,1.294,0,0,0,1.316,1.375Zm-.767,4.1a2.7,2.7,0,0,0,2.351-2.719,1.292,1.292,0,0,0-1.325-1.377Z" transform="translate(-554.186 -267.91)"/>
    <path class="cls-6" d="M764.552,429.725c0,.14,0,.33-.2.33s-.2-.19-.2-.33v-2.789h-2.79c-.139,0-.329,0-.329-.2s.19-.2.329-.2h2.79v-2.791c0-.139,0-.328.2-.328s.2.189.2.328v2.791h2.78c.14,0,.328,0,.328.2s-.188.2-.328.2h-2.78Z" transform="translate(-554.186 -267.91)"/>
    <path class="cls-6" d="M769.477,428.828h5.082c.169,0,.348,0,.348.2s-.179.2-.348.2H769.2c-.17,0-.359,0-.359-.2,0-.08.03-.109.12-.209l5.53-6.367c.1-.109.159-.138.219-.138a.2.2,0,0,1,.2.2c0,.039,0,.09-.109.209Z" transform="translate(-554.186 -267.91)"/>
    <path class="cls-6" d="M781.734,428.57a1.006,1.006,0,0,0-.03.168c0,.18.279.18.648.18.189,0,.279,0,.279.109,0,.2-.12.2-.2.2-.209,0-.429-.02-.648-.02s-.429-.01-.638-.01c-.279,0-.987.03-1.265.03-.021,0-.14,0-.14-.11,0-.2.09-.2.239-.2.618,0,.807-.01.907-.328.04-.151.269-1.1.687-2.75h-3.039l-.677,2.73a1.006,1.006,0,0,0-.03.168c0,.18.279.18.648.18.189,0,.279,0,.279.109,0,.2-.12.2-.2.2-.21,0-.429-.02-.648-.02s-.429-.01-.637-.01c-.28,0-.988.03-1.266.03-.021,0-.14,0-.14-.11,0-.2.09-.2.269-.2.787,0,.807-.08.907-.469l1.335-5.349a.887.887,0,0,0,.04-.19c0-.129-.09-.14-.27-.16a3.588,3.588,0,0,0-.377-.02c-.19,0-.28,0-.28-.109,0-.2.11-.2.19-.2.289,0,1,.029,1.285.029s1-.029,1.275-.029c.031,0,.14,0,.14.109,0,.2-.08.2-.339.2-.718,0-.747.1-.837.459l-.588,2.342h3.039l.6-2.431a1.044,1.044,0,0,0,.04-.19c0-.129-.09-.14-.27-.16a3.588,3.588,0,0,0-.377-.02c-.19,0-.28,0-.28-.109,0-.2.11-.2.19-.2.289,0,1,.029,1.285.029s1-.029,1.275-.029c.031,0,.14,0,.14.109,0,.2-.08.2-.339.2-.728,0-.747.1-.837.459Z" transform="translate(-554.186 -267.91)"/>
    <g>
      <path class="cls-6" d="M787.792,431.719a4.31,4.31,0,0,1-1.554-1.873,7.673,7.673,0,0,1-.03-6.149,4.341,4.341,0,0,1,1.584-1.943.089.089,0,0,1,.1.1c0,.029,0,.05-.129.169a6.518,6.518,0,0,0-1.605,4.713,6.6,6.6,0,0,0,1.565,4.662c.169.17.169.19.169.221A.09.09,0,0,1,787.792,431.719Z" transform="translate(-554.186 -267.91)"/>
      <path class="cls-6" d="M789.835,428.42a1.339,1.339,0,0,0,1.126.668,1.4,1.4,0,0,0,1.345-1.027c.019-.079.04-.139.13-.139a.114.114,0,0,1,.128.119,1.7,1.7,0,0,1-1.664,1.3,2.248,2.248,0,0,1-2.191-2.3,2.176,2.176,0,0,1,2.072-2.271,1.767,1.767,0,0,1,1.783,1.953c0,.209-.029.209-.249.209h-2.779A2.9,2.9,0,0,0,789.835,428.42Zm2.072-1.7c0-.389-.1-1.735-1.126-1.735-.339,0-1.176.25-1.235,1.735Z" transform="translate(-554.186 -267.91)"/>
    </g>
    <path class="cls-6" d="M794.851,426.131a1.435,1.435,0,0,1-1.366,1.545c-.568,0-1.126-.28-1.126-.8a.459.459,0,1,1,.917,0,.462.462,0,0,1-.349.449,1.217,1.217,0,0,0,.538.129c.638,0,.727-.857.727-1.305v-3.947c0-.488-.089-.557-.856-.557v-.31l1.515-.109Zm-.529-6.108a.528.528,0,1,1,.529-.527A.531.531,0,0,1,794.322,420.023Z" transform="translate(-554.186 -267.91)"/>
    <path class="cls-6" d="M797.284,425.688c-.641,0-.962-.684-.962-1.514,0-1.6,1.116-3.465,2.161-3.465.684,0,.963.781.963,1.514C799.446,423.783,798.345,425.688,797.284,425.688Zm-.237-2.364a5.385,5.385,0,0,0-.2,1.262c0,.377.063.906.446.906.308,0,.586-.328.8-.689a5.015,5.015,0,0,0,.564-1.479Zm1.674-.252a5.56,5.56,0,0,0,.2-1.261c0-.133,0-.907-.446-.907-.412,0-1.011.662-1.367,2.168Z" transform="translate(-554.186 -267.91)"/>
    <path class="cls-6" d="M801.706,426.158c0,.155,0,.209.527.209h.249v.219c-.273-.02-.716-.02-1-.02s-.732,0-1,.02v-.219h.249c.527,0,.527-.054.527-.209v-2.486a2.01,2.01,0,0,1-.727.139h-.084v-.219h.084a1.583,1.583,0,0,0,1-.319c.164,0,.179,0,.179.149Z" transform="translate(-554.186 -267.91)"/>
    <path class="cls-6" d="M806.291,429.775a4.34,4.34,0,0,1-1.584,1.944.094.094,0,0,1-.1-.1c0-.031,0-.051.129-.17a6.534,6.534,0,0,0,1.605-4.713,6.469,6.469,0,0,0-1.545-4.654c-.189-.178-.189-.2-.189-.228a.093.093,0,0,1,.1-.1,4.3,4.3,0,0,1,1.554,1.873,7.671,7.671,0,0,1,.03,6.148Z" transform="translate(-554.186 -267.91)"/>
    <path class="cls-4" d="M810.135,429.775a4.347,4.347,0,0,1-1.584,1.944.094.094,0,0,1-.1-.1c0-.031,0-.051.129-.17a6.538,6.538,0,0,0,1.6-4.713,6.469,6.469,0,0,0-1.545-4.654c-.189-.178-.189-.2-.189-.228a.093.093,0,0,1,.1-.1,4.3,4.3,0,0,1,1.553,1.873,7.665,7.665,0,0,1,.031,6.148Z" transform="translate(-554.186 -267.91)"/>
    <path class="cls-7" d="M600.793,453.6s13.148-10.63,21.259-10.63,13.924,6.962,21.26,10.63,13.148,10.63,21.26,10.63,13.923-6.962,21.259-10.63,13.149-10.63,21.26-10.63,21.26,10.63,21.26,10.63h0" transform="translate(-554.186 -267.91)"/>
    <path class="cls-1" d="M707.091,442.969V453.6m-85.039,0v-10.63M604.336,453.6v-2.665m3.543,2.665V448.27m3.543,5.329v-7.965m3.544,7.965v-7.965m3.543,7.965v-10.63M625.6,453.6v-10.63m3.543,10.63v-7.965m3.543,7.965V448.27m3.543,5.329v-2.665m3.544,2.665h0m7.086,0v2.665M650.4,453.6v5.329m3.543-5.329v7.965m3.543-7.965v7.965m3.543-7.965v10.63m3.544-10.63v10.63m3.543-10.63v10.63m3.543-10.63v7.965M675.2,453.6v5.329m3.543-5.329v2.665m3.543-2.665v2.665m7.087-2.665v-2.665m3.543,2.665V448.27m3.543,5.329v-7.965m3.544,7.965v-7.965m3.543,7.965v-10.63m7.086,10.63v-7.965m3.544,7.965v-7.965m3.543,7.965V448.27m3.543,5.329V448.27m3.544,5.329v-2.665M622.052,467.772v7.087m85.039-7.087v7.087" transform="translate(-554.186 -267.91)"/>
    <polyline points="72.402 201.138 67.867 203.405 72.402 205.673 71.268 203.405"/>
    <polyline points="148.37 205.673 152.906 203.405 148.37 201.138 149.504 203.405"/>
    <line class="cls-1" x1="71.268" y1="203.405" x2="149.504" y2="203.405"/>
    <g>
      <path class="cls-4" d="M640.507,481.164a3.636,3.636,0,0,1,0-7.242,3.635,3.635,0,0,1,0,7.242Zm2.291-3.736c0-2.551-1.424-3.258-2.291-3.258-.827,0-2.282.678-2.282,3.258,0,2.6,1.335,3.478,2.292,3.478C641.433,480.906,642.8,480.068,642.8,477.428Z" transform="translate(-554.186 -267.91)"/>
      <path class="cls-4" d="M644.76,476.961v-.311l1.4-.109v1.047a1.573,1.573,0,0,1,1.475-1.047,1.326,1.326,0,0,1,1.046.369c.309.36.309.668.309,1.526v1.9c.01.3.259.3.777.3v.308c-.338-.009-.857-.029-1.116-.029s-.777.02-1.126.029v-.308c.668,0,.778,0,.778-.448v-2.322c0-.568-.11-1.105-.738-1.105a1.454,1.454,0,0,0-1.345,1.593v1.834c0,.448.109.448.777.448v.308c-.338-.009-.857-.029-1.116-.029s-.777.02-1.126.029v-.308c.668,0,.778,0,.778-.448v-2.671C645.538,477.029,645.458,476.961,644.76,476.961Z" transform="translate(-554.186 -267.91)"/>
    </g>
    <g>
      <path class="cls-4" d="M651.366,480.139a1.341,1.341,0,0,0,1.126.668,1.4,1.4,0,0,0,1.345-1.028c.02-.078.04-.138.129-.138a.115.115,0,0,1,.13.119,1.7,1.7,0,0,1-1.664,1.3,2.248,2.248,0,0,1-2.192-2.3,2.178,2.178,0,0,1,2.073-2.272,1.768,1.768,0,0,1,1.783,1.954c0,.209-.03.209-.249.209h-2.78A2.9,2.9,0,0,0,651.366,480.139Zm2.072-1.7c0-.389-.1-1.735-1.125-1.735-.339,0-1.176.25-1.236,1.735Z" transform="translate(-554.186 -267.91)"/>
      <path class="cls-4" d="M660.871,476.541a2.181,2.181,0,0,1,2.082,2.252,2.246,2.246,0,0,1-2.222,2.262,1.352,1.352,0,0,1-1.226-.7v1.764c0,.449.11.449.778.449v.309c-.349-.01-.857-.029-1.126-.029s-.778.019-1.116.029v-.309c.667,0,.777,0,.777-.449v-4.662c0-.439-.07-.5-.777-.5v-.311l1.435-.109v.658A1.794,1.794,0,0,1,660.871,476.541Zm-1.226,3.688a1.241,1.241,0,0,0,1.046.607c.738,0,1.435-.836,1.435-2.043,0-1.125-.608-2-1.335-2a1.5,1.5,0,0,0-1.286.8v2.223A.52.52,0,0,0,659.645,480.229Z" transform="translate(-554.186 -267.91)"/>
    </g>
    <g>
      <path class="cls-4" d="M664.92,480.139a1.343,1.343,0,0,0,1.126.668,1.4,1.4,0,0,0,1.346-1.028c.02-.078.04-.138.129-.138a.115.115,0,0,1,.13.119,1.7,1.7,0,0,1-1.664,1.3,2.249,2.249,0,0,1-2.193-2.3,2.178,2.178,0,0,1,2.073-2.272,1.768,1.768,0,0,1,1.784,1.954c0,.209-.03.209-.25.209h-2.779A2.912,2.912,0,0,0,664.92,480.139Zm2.073-1.7c0-.389-.1-1.735-1.126-1.735-.339,0-1.176.25-1.235,1.735Z" transform="translate(-554.186 -267.91)"/>
      <path class="cls-4" d="M670.838,476.541a.68.68,0,0,1,.738.609.418.418,0,0,1-.429.438.413.413,0,0,1-.428-.428.431.431,0,0,1,.229-.389.28.28,0,0,0-.11-.009c-.757,0-1.175.886-1.175,1.873v1.533c0,.359.02.469.757.469h.209v.308c-.4-.029-.867-.029-1.265-.029-.28,0-.748.02-1.136.029v-.308c.668,0,.777,0,.777-.448v-2.671c0-.489-.08-.557-.777-.557v-.311l1.385-.109v1.1A1.4,1.4,0,0,1,670.838,476.541Z" transform="translate(-554.186 -267.91)"/>
      <path class="cls-4" d="M673.618,480.2c0,.389.04.438.7.438v.308c-.338-.009-.688-.029-1.036-.029-.239,0-.778.02-1.1.029v-.308c.668,0,.777,0,.777-.448v-2.681c0-.488-.09-.547-.737-.547v-.311l1.4-.109Zm-.489-4.863a.532.532,0,0,1-.528-.527.539.539,0,0,1,.528-.53.529.529,0,1,1,0,1.057Z" transform="translate(-554.186 -267.91)"/>
      <path class="cls-4" d="M677.1,481.055a2.223,2.223,0,0,1-2.2-2.241,2.21,2.21,0,1,1,4.414,0A2.22,2.22,0,0,1,677.1,481.055Zm1.167-.987a3.023,3.023,0,0,0,.219-1.334,2.719,2.719,0,0,0-.26-1.384,1.3,1.3,0,0,0-1.126-.649,1.335,1.335,0,0,0-1.135.668,2.848,2.848,0,0,0-.24,1.365,2.956,2.956,0,0,0,.25,1.405,1.3,1.3,0,0,0,1.136.668A1.286,1.286,0,0,0,678.271,480.068Z" transform="translate(-554.186 -267.91)"/>
    </g>
    <path class="cls-4" d="M682.4,481.055a2.192,2.192,0,0,1-2.112-2.252,2.252,2.252,0,0,1,2.222-2.262,1.593,1.593,0,0,1,1.256.619v-2.152c0-.488-.081-.559-.778-.559v-.308l1.435-.11v6.047c0,.488.08.559.777.559v.308l-1.465.11V480.4A1.681,1.681,0,0,1,682.4,481.055Zm1.226-3.7a1.29,1.29,0,0,0-1.076-.6,1.37,1.37,0,0,0-1.126.636,3.43,3.43,0,0,0-.02,2.8,1.241,1.241,0,0,0,1.046.637,1.388,1.388,0,0,0,1.176-.7.48.48,0,0,0,.109-.369v-2.043A.477.477,0,0,0,683.63,477.359Z" transform="translate(-554.186 -267.91)"/>
    <polyline points="66.591 211.484 64.323 206.949 62.056 211.484 64.323 210.35"/>
    <polyline points="62.056 213.043 64.323 217.578 66.591 213.043 64.323 214.177"/>
    <line class="cls-8" x1="64.323" y1="210.35" x2="64.323" y2="214.177"/>
    <path class="cls-3" d="M594,492.133a1.835,1.835,0,0,1,1.913,1.805,3.125,3.125,0,0,1-3.05,2.728l-.378,1.486a2.549,2.549,0,0,1-.11.4.117.117,0,0,1-.1.039c-.049,0-.119-.01-.119-.11,0-.029.1-.408.219-.876.08-.309.15-.627.229-.938a1.832,1.832,0,0,1-1.913-1.8,3.126,3.126,0,0,1,3.049-2.73l.578-2.3c.04-.17.05-.2.15-.2.119,0,.119.09.119.1s-.029.12-.029.139Zm-.319.219a2.7,2.7,0,0,0-2.342,2.72,1.294,1.294,0,0,0,1.315,1.375Zm-.768,4.1a2.7,2.7,0,0,0,2.352-2.718,1.292,1.292,0,0,0-1.326-1.377Z" transform="translate(-554.186 -267.91)"/>
    <path class="cls-6" d="M603.513,497.045c0,.141,0,.33-.2.33s-.2-.189-.2-.33v-2.789h-2.79c-.139,0-.328,0-.328-.2s.189-.2.328-.2h2.79v-2.791c0-.138,0-.328.2-.328s.2.19.2.328v2.791h2.78c.139,0,.329,0,.329.2s-.19.2-.329.2h-2.78Z" transform="translate(-554.186 -267.91)"/>
    <path class="cls-6" d="M608.438,496.148h5.082c.169,0,.348,0,.348.2s-.179.2-.348.2h-5.361c-.17,0-.359,0-.359-.2,0-.08.03-.11.12-.209l5.53-6.368c.1-.109.159-.138.219-.138a.2.2,0,0,1,.2.2c0,.039,0,.09-.109.209Z" transform="translate(-554.186 -267.91)"/>
    <path class="cls-6" d="M620.7,495.891a.971.971,0,0,0-.03.168c0,.179.279.179.648.179.189,0,.279,0,.279.11,0,.2-.12.2-.2.2-.21,0-.429-.02-.648-.02s-.429-.009-.638-.009c-.279,0-.986.029-1.265.029-.02,0-.14,0-.14-.109,0-.2.09-.2.239-.2.618,0,.808-.009.907-.328.04-.15.269-1.1.688-2.75H617.5l-.678,2.731a.971.971,0,0,0-.03.168c0,.179.279.179.648.179.189,0,.279,0,.279.11,0,.2-.12.2-.2.2-.21,0-.429-.02-.648-.02s-.429-.009-.638-.009c-.279,0-.986.029-1.265.029-.02,0-.14,0-.14-.109,0-.2.09-.2.269-.2.787,0,.807-.08.907-.468l1.335-5.35a.864.864,0,0,0,.04-.19c0-.128-.09-.14-.269-.16s-.359-.019-.379-.019c-.189,0-.279,0-.279-.11,0-.2.11-.2.19-.2.289,0,1,.029,1.285.029s1-.029,1.275-.029c.03,0,.14,0,.14.11,0,.2-.08.2-.339.2-.717,0-.747.1-.837.459l-.588,2.342h3.039l.6-2.432a1.027,1.027,0,0,0,.04-.19c0-.128-.09-.14-.269-.16s-.359-.019-.379-.019c-.189,0-.279,0-.279-.11,0-.2.11-.2.19-.2.289,0,1,.029,1.285.029s1-.029,1.275-.029c.03,0,.14,0,.14.11,0,.2-.08.2-.339.2-.728,0-.747.1-.837.459Z" transform="translate(-554.186 -267.91)"/>
    <g>
      <path class="cls-6" d="M626.753,499.039a4.3,4.3,0,0,1-1.554-1.873,7.671,7.671,0,0,1-.03-6.148,4.34,4.34,0,0,1,1.584-1.944.09.09,0,0,1,.1.1c0,.029,0,.051-.13.17a6.518,6.518,0,0,0-1.6,4.713,6.6,6.6,0,0,0,1.565,4.662c.169.17.169.189.169.22A.09.09,0,0,1,626.753,499.039Z" transform="translate(-554.186 -267.91)"/>
      <path class="cls-6" d="M628.795,495.74a1.341,1.341,0,0,0,1.126.668,1.4,1.4,0,0,0,1.345-1.027c.02-.078.04-.139.13-.139a.116.116,0,0,1,.129.119,1.7,1.7,0,0,1-1.664,1.3,2.248,2.248,0,0,1-2.192-2.3,2.177,2.177,0,0,1,2.073-2.271,1.767,1.767,0,0,1,1.783,1.953c0,.209-.03.209-.249.209H628.5A2.9,2.9,0,0,0,628.795,495.74Zm2.073-1.7c0-.389-.1-1.734-1.126-1.734-.339,0-1.176.25-1.236,1.734Z" transform="translate(-554.186 -267.91)"/>
    </g>
    <path class="cls-6" d="M633.936,493.443a1.433,1.433,0,0,1-1.365,1.545c-.568,0-1.126-.279-1.126-.8a.459.459,0,1,1,.917,0,.462.462,0,0,1-.349.45,1.214,1.214,0,0,0,.538.129c.638,0,.727-.858.727-1.305v-3.947c0-.489-.089-.557-.856-.557v-.311l1.514-.109Zm-.528-6.107a.529.529,0,1,1,.528-.527A.531.531,0,0,1,633.408,487.336Z" transform="translate(-554.186 -267.91)"/>
    <path class="cls-6" d="M636.246,493.016c-.642,0-.963-.684-.963-1.514,0-1.6,1.116-3.465,2.162-3.465.683,0,.962.781.962,1.514C638.407,491.111,637.3,493.016,636.246,493.016Zm-.238-2.364a5.333,5.333,0,0,0-.2,1.262c0,.377.063.906.446.906.307,0,.586-.328.8-.689a4.983,4.983,0,0,0,.565-1.479Zm1.674-.252a5.56,5.56,0,0,0,.2-1.261c0-.133,0-.907-.446-.907-.412,0-1.011.663-1.367,2.168Z" transform="translate(-554.186 -267.91)"/>
    <path class="cls-6" d="M640.66,493.471c0,.154,0,.209.527.209h.249v.218c-.274-.019-.717-.019-1-.019s-.732,0-1,.019v-.218h.249c.527,0,.527-.055.527-.209v-2.487a2.009,2.009,0,0,1-.726.139h-.085V490.9h.085a1.585,1.585,0,0,0,1-.318c.165,0,.18,0,.18.148Z" transform="translate(-554.186 -267.91)"/>
    <path class="cls-6" d="M645.252,497.1a4.34,4.34,0,0,1-1.585,1.943.1.1,0,0,1-.1-.1c0-.031,0-.05.129-.169a6.534,6.534,0,0,0,1.605-4.713,6.469,6.469,0,0,0-1.545-4.655c-.189-.177-.189-.2-.189-.228a.094.094,0,0,1,.1-.1,4.309,4.309,0,0,1,1.555,1.873,7.684,7.684,0,0,1,.03,6.149Z" transform="translate(-554.186 -267.91)"/>
    <path class="cls-9" d="M622.052,467.772V453.6m85.039,14.173V453.6" transform="translate(-554.186 -267.91)"/>
    <polyline points="108.118 131.547 110.386 136.083 112.654 131.547 110.386 132.681"/>
    <line class="cls-1" x1="110.386" y1="121.91" x2="110.386" y2="132.681"/>
    <polyline points="108.118 89.028 110.386 93.563 112.654 89.028 110.386 90.162"/>
    <line class="cls-1" x1="110.386" y1="79.39" x2="110.386" y2="90.162"/>
    <g>
      <path class="cls-4" d="M661.922,367.459h-.249c-.16-1.375-.409-1.933-1.9-1.933h-1.2c-.469,0-.489.07-.489.4v2.52h.857c.957,0,1.057-.328,1.057-1.165h.249v2.64H660c0-.847-.1-1.166-1.057-1.166h-.857v2.452c0,.348,0,.478.947.478h.329v.309c-.359-.03-1.265-.03-1.674-.03-.389,0-1.166,0-1.515.03v-.309h.24c.767,0,.787-.11.787-.469v-5.221c0-.358-.02-.468-.787-.468h-.24v-.309h5.471Z" transform="translate(-554.186 -267.91)"/>
      <path class="cls-4" d="M664.561,371.215c0,.359.03.469.817.469h.259v.309c-.348-.03-1.136-.03-1.524-.03s-1.166,0-1.515.03v-.309h.259c.788,0,.817-.11.817-.469v-5.251c0-.358-.029-.468-.817-.468H662.6v-.308c.349.029,1.136.029,1.525.029s1.166,0,1.514-.029v.308h-.259c-.787,0-.817.11-.817.468Z" transform="translate(-554.186 -267.91)"/>
    </g>
    <path class="cls-4" d="M671.472,369.761l.13.8c.139.926.218,1.435.707,1.435.249,0,.6-.18.657-.887.011-.07.011-.16.12-.16.129,0,.129.11.129.17,0,.279-.169,1.1-.946,1.1a1.937,1.937,0,0,1-1.255-.419c-.409-.378-.409-.777-.409-1.424,0-.668,0-.977-.378-1.336a1.274,1.274,0,0,0-.927-.338h-1.146v2.52c0,.359.02.469.787.469h.239v.309c-.359-.03-1.066-.03-1.454-.03s-1.1,0-1.455.03v-.309h.239c.767,0,.787-.11.787-.469v-5.251c0-.358-.02-.468-.787-.468h-.239v-.308H669.4c1.465,0,2.6.836,2.6,1.793,0,.777-.777,1.385-1.744,1.624A1.729,1.729,0,0,1,671.472,369.761Zm-2.212-1.285c1.474,0,1.714-.808,1.714-1.5,0-1.445-1.117-1.485-2.013-1.485a4.868,4.868,0,0,0-.588.02c-.219.03-.219.15-.219.379v2.581Z" transform="translate(-554.186 -267.91)"/>
    <g>
      <path class="cls-4" d="M653.972,383.327a2,2,0,0,1-1.963,2.071,2.492,2.492,0,0,1-1.833-.7c-.329.529-.359.559-.359.569-.07.109-.08.128-.15.128-.109,0-.109-.068-.109-.238v-1.993c0-.179,0-.249.13-.249a.1.1,0,0,1,.119.1,2.019,2.019,0,0,0,.618,1.535,2.4,2.4,0,0,0,1.574.537,1.365,1.365,0,0,0,1.335-1.424,1.45,1.45,0,0,0-.309-.917,1.319,1.319,0,0,0-.846-.508c-.7-.17-1.206-.289-1.316-.329a1.93,1.93,0,0,1,.638-3.756,2.049,2.049,0,0,1,1.594.7l.349-.568c.07-.119.079-.129.149-.129.11,0,.11.069.11.239v2c0,.19,0,.24-.13.24-.109,0-.109-.06-.119-.12-.06-.448-.279-2.082-1.943-2.082a1.3,1.3,0,0,0-.309,2.57l1.276.309A2.04,2.04,0,0,1,653.972,383.327Z" transform="translate(-554.186 -267.91)"/>
      <path class="cls-4" d="M656.92,386.086c-.239.568-.647,1.137-1.275,1.137a.871.871,0,0,1-.916-.807.418.418,0,1,1,.448.408.676.676,0,0,0,.468.18c.638,0,.917-.688,1.136-1.236.06-.129.2-.457.249-.588l-1.494-3.637c-.14-.348-.329-.348-.807-.348v-.309c.3.02.7.03.966.03.169,0,.827-.02,1.086-.03v.309c-.189,0-.558,0-.558.259a.586.586,0,0,0,.06.179l1.106,2.68,1.006-2.451a.466.466,0,0,0,.06-.239c0-.249-.16-.418-.468-.428v-.309c.219.01.687.03.867.03.229,0,.518-.01.747-.03v.309a.938.938,0,0,0-.927.638Z" transform="translate(-554.186 -267.91)"/>
      <path class="cls-4" d="M660.557,382.789a1.062,1.062,0,0,1-.429-.847c0-.558.379-1.226,1.594-1.226a1.536,1.536,0,0,1,.937.279,1.341,1.341,0,0,0,.169-.159c.13-.12.15-.12.2-.12.109,0,.109.07.109.24v1.006c0,.189,0,.239-.129.239a.107.107,0,0,1-.12-.09,1.1,1.1,0,0,0-1.166-1.2c-.857,0-1.116.408-1.116.757,0,.578.668.707,1.226.817a2.035,2.035,0,0,1,1.136.478,1.288,1.288,0,0,1,.418.947c0,.718-.458,1.384-1.6,1.384a1.491,1.491,0,0,1-1.1-.428,2.417,2.417,0,0,0-.2.229c-.19.189-.2.2-.249.2-.11,0-.11-.068-.11-.238v-1.315c0-.18,0-.25.13-.25.1,0,.109.04.139.17.189.846.548,1.414,1.385,1.414.778,0,1.126-.4,1.126-.906,0-.717-.817-.877-1.036-.916A2.609,2.609,0,0,1,660.557,382.789Z" transform="translate(-554.186 -267.91)"/>
      <path class="cls-4" d="M665.458,383.964c0,.171,0,1.077.668,1.077.369,0,.667-.379.667-1.117v-.548h.249v.569c0,.637-.278,1.344-.986,1.344a1.2,1.2,0,0,1-1.285-1.344V381.2h-.847v-.219c.976-.04,1.275-1.107,1.285-1.924h.249v1.834h1.425v.309h-1.425Z" transform="translate(-554.186 -267.91)"/>
      <path class="cls-4" d="M669.015,384.373a1.341,1.341,0,0,0,1.126.668,1.4,1.4,0,0,0,1.345-1.027c.02-.079.04-.139.129-.139a.116.116,0,0,1,.13.12,1.7,1.7,0,0,1-1.664,1.294,2.248,2.248,0,0,1-2.192-2.3,2.178,2.178,0,0,1,2.072-2.272,1.768,1.768,0,0,1,1.784,1.953c0,.209-.03.209-.249.209h-2.78A2.9,2.9,0,0,0,669.015,384.373Zm2.072-1.7c0-.388-.1-1.733-1.126-1.733-.338,0-1.175.249-1.235,1.733Z" transform="translate(-554.186 -267.91)"/>
      <path class="cls-4" d="M672.362,381.2v-.309l1.405-.11v1.046a1.571,1.571,0,0,1,1.474-1.046,1.179,1.179,0,0,1,1.325.976,1.578,1.578,0,0,1,1.445-.976,1.333,1.333,0,0,1,1.047.369c.309.358.309.668.309,1.524v1.9c.009.3.258.3.777.3v.309c-.339-.01-.857-.03-1.116-.03s-.778.02-1.126.03v-.309c.667,0,.777,0,.777-.447V382.1c0-.568-.11-1.106-.738-1.106a1.455,1.455,0,0,0-1.344,1.594v1.835c0,.447.109.447.777.447v.309c-.339-.01-.857-.03-1.116-.03s-.778.02-1.126.03v-.309c.667,0,.777,0,.777-.447V382.1c0-.568-.11-1.106-.737-1.106a1.455,1.455,0,0,0-1.345,1.594v1.835c0,.447.109.447.777.447v.309c-.339-.01-.857-.03-1.116-.03s-.778.02-1.126.03v-.309c.667,0,.777,0,.777-.447v-2.672C673.139,381.264,673.059,381.2,672.362,381.2Z" transform="translate(-554.186 -267.91)"/>
    </g>
    <polygon class="cls-1" points="89.126 107.736 89.126 93.563 131.646 93.563 131.646 121.91 89.126 121.91 89.126 107.736"/>
    <path class="cls-4" d="M615.567,374.59a1.851,1.851,0,0,1,1.475-.767,1.014,1.014,0,0,1,1.146,1.066,8.949,8.949,0,0,1-.608,2.192,1.9,1.9,0,0,0-.18.708c0,.229.07.329.239.329.549,0,.867-.708,1.017-1.236.05-.15.05-.179.149-.179.03,0,.12,0,.12.1,0,.08-.369,1.534-1.3,1.534a.8.8,0,0,1-.818-.816,1.494,1.494,0,0,1,.13-.548,8.472,8.472,0,0,0,.618-2.232c0-.359-.11-.7-.538-.7a1.582,1.582,0,0,0-.957.349,2.94,2.94,0,0,0-.678.917c-.009.059-.089.388-.109.448-.05.229-.11.449-.169.667l-.22.9-.189.758a.415.415,0,0,1-.369.258.273.273,0,0,1-.289-.278.616.616,0,0,1,.04-.22l1.445-5.739.03-.2c0-.1-.02-.17-.5-.17-.15,0-.239,0-.239-.119,0-.179.109-.189.189-.2.259-.02.986-.1,1.215-.1.13,0,.13.1.13.11Z" transform="translate(-554.186 -267.91)"/>
    <path class="cls-4" d="M620.418,380.718v-9.964h1.365v.4h-.967v9.166h.967v.4Z" transform="translate(-554.186 -267.91)"/>
    <path class="cls-4" d="M623.455,375.337a3.22,3.22,0,0,0,.159-.837c0-.328-.11-.458-.309-.458-.358,0-.558.479-.727,1.186-.06.219-.07.229-.169.229-.02,0-.12,0-.12-.1a4.96,4.96,0,0,1,.3-.966.869.869,0,0,1,.747-.568.9.9,0,0,1,.917.867,1.923,1.923,0,0,1,1.554-.867,1.019,1.019,0,0,1,1.146,1.066,8.937,8.937,0,0,1-.608,2.192,1.9,1.9,0,0,0-.179.708c0,.229.07.329.239.329.488,0,.817-.558,1.016-1.236.05-.15.05-.179.15-.179.03,0,.119,0,.119.1,0,.08-.368,1.534-1.3,1.534a.8.8,0,0,1-.817-.816,1.136,1.136,0,0,1,.1-.459,9.511,9.511,0,0,0,.647-2.321c0-.329-.089-.7-.538-.7a1.984,1.984,0,0,0-1.624,1.216c-.01.04-.089.328-.13.5-.049.229-.109.449-.168.667l-.22.9c-.06.249-.179.718-.189.738a.407.407,0,0,1-.369.278.266.266,0,0,1-.289-.268c0-.05.06-.279.09-.429Z" transform="translate(-554.186 -267.91)"/>
    <path class="cls-4" d="M629.584,380.718h-1.365v-.4h.967v-9.166h-.967v-.4h1.365Z" transform="translate(-554.186 -267.91)"/>
    <path class="cls-4" d="M698.938,378.89a.927.927,0,0,0-.031.169c0,.179.28.179.648.179.189,0,.279,0,.279.11,0,.2-.12.2-.2.2-.209,0-.429-.02-.648-.02s-.428-.009-.637-.009c-.28,0-.988.029-1.266.029-.021,0-.14,0-.14-.109,0-.2.09-.2.24-.2.617,0,.806-.009.906-.328.04-.15.269-1.1.687-2.75h-3.039l-.676,2.73a.927.927,0,0,0-.031.169c0,.179.28.179.648.179.189,0,.279,0,.279.11,0,.2-.12.2-.2.2-.21,0-.429-.02-.648-.02s-.428-.009-.637-.009c-.28,0-.988.029-1.266.029-.02,0-.14,0-.14-.109,0-.2.09-.2.269-.2.787,0,.808-.079.907-.468l1.335-5.351a.86.86,0,0,0,.04-.189c0-.129-.09-.139-.269-.159a3.613,3.613,0,0,0-.378-.02c-.19,0-.28,0-.28-.11,0-.2.11-.2.19-.2.289,0,1,.03,1.285.03s1-.03,1.275-.03c.031,0,.14,0,.14.11,0,.2-.08.2-.339.2-.718,0-.747.1-.837.458l-.588,2.342h3.039l.6-2.432a.992.992,0,0,0,.04-.189c0-.129-.09-.139-.269-.159a3.613,3.613,0,0,0-.378-.02c-.19,0-.28,0-.28-.11,0-.2.11-.2.19-.2.289,0,1,.03,1.285.03s1-.03,1.275-.03c.031,0,.14,0,.14.11,0,.2-.08.2-.339.2-.727,0-.747.1-.837.458Z" transform="translate(-554.186 -267.91)"/>
    <g>
      <path class="cls-4" d="M705,382.039a4.309,4.309,0,0,1-1.554-1.874,7.668,7.668,0,0,1-.03-6.147A4.347,4.347,0,0,1,705,372.074a.09.09,0,0,1,.1.1c0,.03,0,.05-.129.169a6.518,6.518,0,0,0-1.605,4.713,6.6,6.6,0,0,0,1.565,4.664c.169.169.169.189.169.219A.09.09,0,0,1,705,382.039Z" transform="translate(-554.186 -267.91)"/>
      <path class="cls-4" d="M707.038,378.74a1.34,1.34,0,0,0,1.126.668,1.4,1.4,0,0,0,1.345-1.027c.019-.079.04-.139.13-.139a.116.116,0,0,1,.129.12,1.7,1.7,0,0,1-1.664,1.295,2.25,2.25,0,0,1-2.192-2.3,2.177,2.177,0,0,1,2.072-2.272,1.769,1.769,0,0,1,1.784,1.954c0,.209-.03.209-.249.209h-2.78A2.9,2.9,0,0,0,707.038,378.74Zm2.072-1.7c0-.389-.1-1.734-1.126-1.734-.338,0-1.175.249-1.235,1.734Z" transform="translate(-554.186 -267.91)"/>
    </g>
    <path class="cls-4" d="M712.171,376.444a1.434,1.434,0,0,1-1.365,1.544c-.569,0-1.126-.279-1.126-.8a.459.459,0,0,1,.917,0,.462.462,0,0,1-.35.449,1.217,1.217,0,0,0,.538.129c.638,0,.728-.857.728-1.305v-3.946c0-.488-.09-.558-.857-.558v-.309l1.515-.109Zm-.528-6.108a.528.528,0,1,1,.528-.528A.532.532,0,0,1,711.643,370.336Z" transform="translate(-554.186 -267.91)"/>
    <path class="cls-4" d="M714.6,376.016c-.641,0-.961-.684-.961-1.514,0-1.6,1.115-3.465,2.161-3.465.683,0,.963.781.963,1.513C716.767,374.112,715.665,376.016,714.6,376.016Zm-.237-2.365a5.413,5.413,0,0,0-.2,1.263c0,.377.064.906.446.906.308,0,.586-.327.8-.69a5.027,5.027,0,0,0,.565-1.479Zm1.674-.251a5.493,5.493,0,0,0,.2-1.262c0-.132,0-.906-.446-.906-.411,0-1.011.663-1.366,2.168Z" transform="translate(-554.186 -267.91)"/>
    <path class="cls-4" d="M719.893,380.1a4.347,4.347,0,0,1-1.584,1.944.094.094,0,0,1-.1-.1c0-.03,0-.05.129-.169a6.539,6.539,0,0,0,1.6-4.714A6.463,6.463,0,0,0,718.4,372.4c-.188-.179-.188-.2-.188-.229a.094.094,0,0,1,.1-.1,4.3,4.3,0,0,1,1.553,1.874,7.663,7.663,0,0,1,.031,6.147Z" transform="translate(-554.186 -267.91)"/>
  </g>
</svg>
