<svg id="Layer_1" data-name="Layer 1" xmlns="http://www.w3.org/2000/svg" viewBox="0 0 390.07 105.605">
  <defs>
    <style>
      .cls-1 {
        fill: none;
        stroke: #000;
        stroke-miterlimit: 10;
        stroke-width: 0.85px;
      }

      .cls-2 {
        fill: #1d1d1b;
      }
    </style>
  </defs>
  <title>SUMfiltcont</title>
  <g>
    <polyline points="58.23 42.683 62.765 40.416 58.23 38.148 59.363 40.416"/>
    <line class="cls-1" x1="6.072" y1="40.416" x2="59.363" y2="40.416"/>
    <path class="cls-2" d="M519.63,366.06a3.858,3.858,0,0,0-.17.877c0,.338.16.657.548.657.319,0,1-.239,1.325-1.305.021-.07.041-.11.13-.11.03,0,.12,0,.12.1,0,.249-.568,1.534-1.595,1.534a1.1,1.1,0,0,1-1.075-.757,1.327,1.327,0,0,1-1.047.757c-.438,0-.936-.2-.936-.657a.566.566,0,0,1,.548-.578.34.34,0,0,1,.368.348.563.563,0,0,1-.468.538.954.954,0,0,0,.5.13c.438,0,.787-.419.947-1.036a14.614,14.614,0,0,0,.538-2.371c0-.579-.349-.668-.538-.668-.339,0-1,.249-1.335,1.305-.02.09-.05.11-.13.11-.02,0-.12,0-.12-.1,0-.249.569-1.535,1.6-1.535a1.1,1.1,0,0,1,1.076.758,1.29,1.29,0,0,1,1.046-.758c.339,0,.927.14.927.658a.556.556,0,0,1-.538.578.347.347,0,0,1-.379-.348.579.579,0,0,1,.478-.539.98.98,0,0,0-.5-.129c-.7,0-.927.917-.986,1.175Z" transform="translate(-487.179 -331.91)"/>
    <path class="cls-2" d="M525.479,370.2a4.309,4.309,0,0,1-1.554-1.874,7.674,7.674,0,0,1-.029-6.147,4.341,4.341,0,0,1,1.583-1.944.09.09,0,0,1,.1.1c0,.03,0,.05-.129.17a6.513,6.513,0,0,0-1.6,4.712,6.607,6.607,0,0,0,1.564,4.664c.169.169.169.189.169.219A.089.089,0,0,1,525.479,370.2Z" transform="translate(-487.179 -331.91)"/>
    <path class="cls-2" d="M527.433,366.657a1.6,1.6,0,0,0-.06.479c0,.328.1.458.309.458.339,0,.866-.239,1.295-1.275.05-.11.06-.14.149-.14.04,0,.12,0,.12.1,0,.079-.568,1.534-1.584,1.534a.879.879,0,0,1-.917-.917,25.814,25.814,0,0,1,.757-3.178h-.877c-.2,0-.279,0-.279-.119,0-.19.1-.19.3-.19h.936l.389-1.584a.424.424,0,0,1,.4-.359.262.262,0,0,1,.289.269c0,.06-.05.259-.408,1.674h.876c.18,0,.279,0,.279.11,0,.2-.1.2-.3.2h-.936Z" transform="translate(-487.179 -331.91)"/>
    <path class="cls-2" d="M531.971,368.251a4.339,4.339,0,0,1-1.585,1.944.094.094,0,0,1-.1-.1c0-.03,0-.05.129-.169a6.533,6.533,0,0,0,1.6-4.714,6.459,6.459,0,0,0-1.545-4.652c-.189-.18-.189-.2-.189-.23a.1.1,0,0,1,.1-.1,4.3,4.3,0,0,1,1.555,1.874,7.679,7.679,0,0,1,.03,6.147Z" transform="translate(-487.179 -331.91)"/>
    <path class="cls-2" d="M669.414,375.569a1.01,1.01,0,0,0-.03.17c0,.179.279.179.647.179.19,0,.28,0,.28.11,0,.2-.12.2-.2.2-.209,0-.428-.02-.648-.02s-.428-.01-.637-.01c-.279,0-.987.03-1.265.03-.02,0-.14,0-.14-.109,0-.2.09-.2.239-.2.618,0,.807-.01.907-.329.039-.149.269-1.1.687-2.75h-3.039l-.677,2.73a1.01,1.01,0,0,0-.03.17c0,.179.279.179.647.179.19,0,.28,0,.28.11,0,.2-.12.2-.2.2-.209,0-.428-.02-.648-.02s-.428-.01-.637-.01c-.279,0-.987.03-1.265.03-.02,0-.14,0-.14-.109,0-.2.09-.2.269-.2.787,0,.807-.08.907-.468l1.335-5.351a.944.944,0,0,0,.04-.189c0-.13-.09-.139-.269-.16a3.628,3.628,0,0,0-.379-.02c-.189,0-.279,0-.279-.109,0-.2.11-.2.189-.2.289,0,1,.03,1.286.03s1-.03,1.275-.03c.03,0,.14,0,.14.109,0,.2-.08.2-.339.2-.718,0-.747.1-.837.459l-.588,2.341h3.039l.6-2.431a1.09,1.09,0,0,0,.04-.189c0-.13-.09-.139-.269-.16a3.628,3.628,0,0,0-.379-.02c-.189,0-.279,0-.279-.109,0-.2.11-.2.189-.2.289,0,1,.03,1.286.03s1-.03,1.275-.03c.03,0,.14,0,.14.109,0,.2-.08.2-.339.2-.728,0-.747.1-.837.459Z" transform="translate(-487.179 -331.91)"/>
    <g>
      <path class="cls-2" d="M675.479,378.718a4.31,4.31,0,0,1-1.554-1.873,7.676,7.676,0,0,1-.029-6.148,4.342,4.342,0,0,1,1.583-1.943.089.089,0,0,1,.1.1c0,.03,0,.049-.129.169a6.516,6.516,0,0,0-1.6,4.713,6.6,6.6,0,0,0,1.564,4.663c.169.169.169.189.169.22A.089.089,0,0,1,675.479,378.718Z" transform="translate(-487.179 -331.91)"/>
      <path class="cls-2" d="M677.521,375.42a1.342,1.342,0,0,0,1.126.667,1.4,1.4,0,0,0,1.346-1.026c.02-.08.04-.139.129-.139a.116.116,0,0,1,.13.12,1.7,1.7,0,0,1-1.664,1.294,2.249,2.249,0,0,1-2.192-2.3,2.178,2.178,0,0,1,2.072-2.272,1.767,1.767,0,0,1,1.784,1.953c0,.209-.03.209-.25.209h-2.779A2.91,2.91,0,0,0,677.521,375.42Zm2.073-1.7c0-.388-.1-1.734-1.126-1.734-.339,0-1.176.249-1.236,1.734Z" transform="translate(-487.179 -331.91)"/>
    </g>
    <path class="cls-2" d="M682.655,373.124a1.434,1.434,0,0,1-1.365,1.544c-.568,0-1.126-.279-1.126-.8a.459.459,0,0,1,.917,0,.46.46,0,0,1-.349.448,1.207,1.207,0,0,0,.538.13c.638,0,.727-.857.727-1.305V369.2c0-.489-.089-.558-.856-.558v-.309l1.514-.11Zm-.528-6.108a.529.529,0,1,1,.528-.528A.531.531,0,0,1,682.127,367.016Z" transform="translate(-487.179 -331.91)"/>
    <path class="cls-2" d="M684.956,372.7c-.642,0-.962-.683-.962-1.513,0-1.6,1.115-3.466,2.161-3.466.684,0,.963.782.963,1.513C687.118,370.792,686.017,372.7,684.956,372.7Zm-.237-2.364a5.342,5.342,0,0,0-.2,1.262c0,.377.063.907.446.907.308,0,.586-.328.8-.69a5.015,5.015,0,0,0,.564-1.479Zm1.674-.251a5.551,5.551,0,0,0,.2-1.262c0-.132,0-.906-.447-.906-.411,0-1.01.662-1.366,2.168Z" transform="translate(-487.179 -331.91)"/>
    <path class="cls-2" d="M690.369,376.775a4.334,4.334,0,0,1-1.584,1.943.093.093,0,0,1-.1-.1c0-.031,0-.051.128-.17a6.533,6.533,0,0,0,1.605-4.713,6.462,6.462,0,0,0-1.545-4.653c-.188-.18-.188-.2-.188-.229a.094.094,0,0,1,.1-.1,4.3,4.3,0,0,1,1.554,1.873,7.671,7.671,0,0,1,.03,6.148Z" transform="translate(-487.179 -331.91)"/>
    <polygon class="cls-1" points="169.064 40.416 169.064 54.589 211.583 54.589 211.583 26.242 169.064 26.242 169.064 40.416"/>
    <polyline points="164.528 42.683 169.064 40.416 164.528 38.148 165.662 40.416"/>
    <line class="cls-1" x1="112.371" y1="40.416" x2="165.662" y2="40.416"/>
    <path class="cls-2" d="M622.349,366.06a3.858,3.858,0,0,0-.17.877c0,.338.159.657.548.657.319,0,1-.239,1.325-1.305.02-.07.04-.11.13-.11.03,0,.12,0,.12.1,0,.249-.569,1.534-1.6,1.534a1.1,1.1,0,0,1-1.076-.757,1.323,1.323,0,0,1-1.046.757c-.439,0-.937-.2-.937-.657a.566.566,0,0,1,.548-.578.341.341,0,0,1,.369.348.563.563,0,0,1-.468.538.954.954,0,0,0,.5.13c.438,0,.787-.419.947-1.036a14.614,14.614,0,0,0,.538-2.371c0-.579-.349-.668-.538-.668-.339,0-1,.249-1.335,1.305-.02.09-.051.11-.13.11-.02,0-.12,0-.12-.1,0-.249.568-1.535,1.605-1.535a1.1,1.1,0,0,1,1.076.758,1.288,1.288,0,0,1,1.046-.758c.338,0,.926.14.926.658a.555.555,0,0,1-.538.578.347.347,0,0,1-.378-.348.579.579,0,0,1,.478-.539.98.98,0,0,0-.5-.129c-.7,0-.927.917-.986,1.175Z" transform="translate(-487.179 -331.91)"/>
    <path class="cls-2" d="M626.176,370.2V360.23h1.365v.4h-.967V369.8h.967v.4Z" transform="translate(-487.179 -331.91)"/>
    <path class="cls-2" d="M629.212,364.814a3.194,3.194,0,0,0,.16-.837c0-.329-.11-.458-.309-.458-.358,0-.558.478-.727,1.186-.06.219-.07.229-.169.229-.021,0-.12,0-.12-.1a4.96,4.96,0,0,1,.3-.966.869.869,0,0,1,.747-.569.9.9,0,0,1,.917.868,1.922,1.922,0,0,1,1.554-.868,1.019,1.019,0,0,1,1.146,1.067,8.937,8.937,0,0,1-.608,2.192,1.892,1.892,0,0,0-.179.707c0,.229.07.329.239.329.488,0,.817-.558,1.016-1.236.05-.149.05-.179.15-.179.029,0,.119,0,.119.1,0,.079-.368,1.534-1.3,1.534a.8.8,0,0,1-.817-.817,1.132,1.132,0,0,1,.1-.458,9.519,9.519,0,0,0,.647-2.322c0-.329-.09-.7-.538-.7a1.982,1.982,0,0,0-1.624,1.215c-.01.04-.09.329-.13.5-.05.23-.109.449-.169.668l-.219.9c-.06.249-.18.717-.189.737a.408.408,0,0,1-.369.279.266.266,0,0,1-.289-.269c0-.05.06-.279.09-.428Z" transform="translate(-487.179 -331.91)"/>
    <path class="cls-2" d="M635.342,370.2h-1.365v-.4h.966v-9.167h-.966v-.4h1.365Z" transform="translate(-487.179 -331.91)"/>
    <g>
      <path class="cls-2" d="M566.4,364.4c0,.359.03.468.817.468h.259v.309c-.349-.03-1.136-.03-1.524-.03s-1.166,0-1.515.03v-.309h.259c.787,0,.817-.109.817-.468v-5.251c0-.359-.03-.468-.817-.468h-.259v-.309c.349.03,1.136.03,1.525.03s1.165,0,1.514-.03v.309h-.259c-.787,0-.817.109-.817.468Z" transform="translate(-487.179 -331.91)"/>
      <path class="cls-2" d="M570.214,365.29a2.192,2.192,0,0,1-2.112-2.252,2.251,2.251,0,0,1,2.221-2.262,1.591,1.591,0,0,1,1.256.618v-2.152c0-.489-.08-.558-.777-.558v-.309l1.434-.11v6.048c0,.489.08.558.778.558v.309l-1.465.11v-.658A1.682,1.682,0,0,1,570.214,365.29Zm1.225-3.7a1.293,1.293,0,0,0-1.076-.6,1.371,1.371,0,0,0-1.126.638,3.439,3.439,0,0,0-.02,2.8,1.24,1.24,0,0,0,1.047.638,1.386,1.386,0,0,0,1.175-.7.475.475,0,0,0,.11-.369v-2.042A.476.476,0,0,0,571.439,361.593Z" transform="translate(-487.179 -331.91)"/>
      <path class="cls-2" d="M574.707,364.373a1.34,1.34,0,0,0,1.126.668,1.4,1.4,0,0,0,1.345-1.027c.02-.079.04-.139.129-.139a.116.116,0,0,1,.13.12,1.7,1.7,0,0,1-1.664,1.3,2.25,2.25,0,0,1-2.192-2.3,2.178,2.178,0,0,1,2.072-2.272,1.768,1.768,0,0,1,1.784,1.953c0,.209-.03.209-.249.209h-2.78A2.9,2.9,0,0,0,574.707,364.373Zm2.072-1.7c0-.388-.1-1.733-1.126-1.733-.339,0-1.175.249-1.235,1.733Z" transform="translate(-487.179 -331.91)"/>
      <path class="cls-2" d="M579.748,365.29c-.628,0-1.6-.249-1.6-1.057a1.452,1.452,0,0,1,1-1.3,4.825,4.825,0,0,1,1.833-.358v-.369a1.128,1.128,0,0,0-1.056-1.275,1.4,1.4,0,0,0-1.076.458c.458.01.508.338.508.458a.459.459,0,1,1-.917-.01c0-.657.688-1.126,1.5-1.126a1.9,1.9,0,0,1,1.365.548,1.476,1.476,0,0,1,.358,1.176v1.993c0,.05.04.5.369.5.11,0,.359-.06.359-.638v-.558h.249v.558a.846.846,0,0,1-.817.947.835.835,0,0,1-.777-.817A1.379,1.379,0,0,1,579.748,365.29Zm-.828-1.066a.858.858,0,0,0,.9.847,1.2,1.2,0,0,0,1.166-1.286v-1C579.339,362.849,578.92,363.676,578.92,364.224Z" transform="translate(-487.179 -331.91)"/>
    </g>
    <path class="cls-2" d="M584.521,364.423c0,.448.11.448.778.448v.309c-.369-.01-.857-.03-1.107-.03s-.776.02-1.106.03v-.309c.668,0,.778,0,.778-.448v-5.181c0-.489-.08-.558-.778-.558v-.309l1.435-.11Z" transform="translate(-487.179 -331.91)"/>
    <g>
      <path class="cls-2" d="M563.627,368.71a2.441,2.441,0,0,1,1.833.857l.5-.737c.08-.12.12-.12.16-.12.11,0,.11.07.11.239v2.362c0,.209,0,.239-.16.239-.139,0-.139-.03-.159-.17-.2-1.454-1.086-2.361-2.172-2.361-.608,0-2.551.339-2.551,3.318s1.953,3.308,2.561,3.308a2.257,2.257,0,0,0,2.232-2.242c.009-.1.009-.159.119-.159.13,0,.13.069.13.169a2.606,2.606,0,0,1-2.6,2.541,3.625,3.625,0,0,1,0-7.244Z" transform="translate(-487.179 -331.91)"/>
      <path class="cls-2" d="M566.914,373.872v-.579h2.64v.579Z" transform="translate(-487.179 -331.91)"/>
      <path class="cls-2" d="M571.855,374.519c0,.169,0,1.076.668,1.076.369,0,.668-.378.668-1.116v-.548h.249v.569c0,.637-.279,1.344-.986,1.344a1.205,1.205,0,0,1-1.286-1.344v-2.75h-.847v-.22c.977-.04,1.276-1.106,1.285-1.923h.249v1.833h1.425v.31h-1.425Z" transform="translate(-487.179 -331.91)"/>
      <path class="cls-2" d="M576.488,375.844a2.224,2.224,0,0,1-2.2-2.241,2.21,2.21,0,1,1,4.414,0A2.219,2.219,0,0,1,576.488,375.844Zm1.166-.986a3.019,3.019,0,0,0,.22-1.335,2.725,2.725,0,0,0-.26-1.385,1.3,1.3,0,0,0-1.126-.648,1.335,1.335,0,0,0-1.135.668,2.846,2.846,0,0,0-.24,1.365,2.969,2.969,0,0,0,.249,1.4,1.3,1.3,0,0,0,1.137.667A1.283,1.283,0,0,0,577.654,374.858Z" transform="translate(-487.179 -331.91)"/>
      <path class="cls-2" d="M579.108,373.872v-.579h2.641v.579Z" transform="translate(-487.179 -331.91)"/>
      <path class="cls-2" d="M586.321,368.93a3.269,3.269,0,0,1,3.049,3.457,3.2,3.2,0,0,1-3.049,3.348h-3.647v-.309h.24c.767,0,.787-.11.787-.468v-5.251c0-.359-.02-.469-.787-.469h-.24v-.308Zm-.269,6.5a2.185,2.185,0,0,0,1.774-.847,3.416,3.416,0,0,0,.548-2.192,3.85,3.85,0,0,0-.519-2.222,2.148,2.148,0,0,0-1.813-.927h-1c-.468,0-.488.07-.488.4v5.39c0,.329.02.4.488.4Z" transform="translate(-487.179 -331.91)"/>
    </g>
    <g>
      <path class="cls-2" d="M557.025,379.281a2.444,2.444,0,0,1,1.834.857l.5-.738c.08-.119.12-.119.16-.119.109,0,.109.069.109.239v2.361c0,.209,0,.239-.159.239-.14,0-.14-.03-.16-.169-.2-1.455-1.086-2.362-2.172-2.362-.608,0-2.551.339-2.551,3.318s1.953,3.308,2.561,3.308a2.256,2.256,0,0,0,2.232-2.241c.01-.1.01-.16.12-.16.129,0,.129.07.129.169a2.605,2.605,0,0,1-2.6,2.54,3.624,3.624,0,0,1,0-7.242Z" transform="translate(-487.179 -331.91)"/>
      <path class="cls-2" d="M562.684,386.414a2.223,2.223,0,0,1-2.2-2.24,2.211,2.211,0,1,1,4.415,0A2.22,2.22,0,0,1,562.684,386.414Zm1.166-.986a3.027,3.027,0,0,0,.219-1.334,2.738,2.738,0,0,0-.259-1.386,1.306,1.306,0,0,0-1.126-.647,1.337,1.337,0,0,0-1.136.667,2.862,2.862,0,0,0-.239,1.366,2.963,2.963,0,0,0,.249,1.4,1.3,1.3,0,0,0,1.136.668A1.286,1.286,0,0,0,563.85,385.428Z" transform="translate(-487.179 -331.91)"/>
    </g>
    <g>
      <path class="cls-2" d="M565.561,382.32v-.309l1.4-.11v1.046a1.571,1.571,0,0,1,1.474-1.046,1.331,1.331,0,0,1,1.047.369c.309.358.309.668.309,1.524v1.9c.01.3.259.3.777.3v.309c-.339-.01-.857-.03-1.116-.03s-.777.02-1.126.03V386c.668,0,.777,0,.777-.447v-2.323c0-.568-.109-1.106-.737-1.106a1.455,1.455,0,0,0-1.345,1.594v1.835c0,.447.109.447.777.447v.309c-.339-.01-.857-.03-1.116-.03s-.777.02-1.126.03V386c.668,0,.777,0,.777-.447v-2.672C566.338,382.389,566.258,382.32,565.561,382.32Z" transform="translate(-487.179 -331.91)"/>
      <path class="cls-2" d="M573.362,386.225c-.04.1-.079.189-.209.189s-.15-.049-.209-.189l-1.435-3.537c-.13-.309-.17-.368-.8-.368v-.309c.3.02.7.03.966.03.229,0,.787-.02,1.086-.03v.309c-.179,0-.568,0-.568.259,0,.02,0,.04.06.169l1.116,2.779,1.017-2.54a.612.612,0,0,0,.059-.239c0-.189-.109-.418-.478-.428v-.309c.169.01.628.03.867.03s.518-.01.747-.03v.309a.9.9,0,0,0-.917.667Z" transform="translate(-487.179 -331.91)"/>
    </g>
    <g>
      <path class="cls-2" d="M576.959,385.5a1.343,1.343,0,0,0,1.126.668,1.4,1.4,0,0,0,1.346-1.027c.02-.078.04-.139.129-.139a.116.116,0,0,1,.13.119,1.7,1.7,0,0,1-1.664,1.295,2.249,2.249,0,0,1-2.193-2.3,2.178,2.178,0,0,1,2.073-2.272,1.768,1.768,0,0,1,1.784,1.953c0,.21-.03.21-.25.21h-2.779A2.91,2.91,0,0,0,576.959,385.5Zm2.073-1.7c0-.388-.1-1.733-1.126-1.733-.339,0-1.176.249-1.235,1.733Z" transform="translate(-487.179 -331.91)"/>
      <path class="cls-2" d="M582.857,381.9a.68.68,0,0,1,.738.608.418.418,0,0,1-.429.438.412.412,0,0,1-.428-.428.432.432,0,0,1,.229-.389.253.253,0,0,0-.11-.01c-.757,0-1.175.887-1.175,1.874v1.533c0,.36.02.469.757.469h.209v.309c-.4-.03-.867-.03-1.265-.03-.279,0-.748.02-1.136.03V386c.668,0,.777,0,.777-.447v-2.672c0-.488-.08-.557-.777-.557v-.309l1.385-.11V383A1.4,1.4,0,0,1,582.857,381.9Z" transform="translate(-487.179 -331.91)"/>
      <path class="cls-2" d="M585.577,385.09c0,.17,0,1.076.668,1.076.369,0,.668-.379.668-1.117V384.5h.249v.568c0,.637-.279,1.344-.987,1.344a1.2,1.2,0,0,1-1.285-1.344v-2.75h-.847V382.1c.977-.04,1.275-1.107,1.285-1.924h.249v1.834H587v.309h-1.425Z" transform="translate(-487.179 -331.91)"/>
      <path class="cls-2" d="M590.189,386.414a2.223,2.223,0,0,1-2.2-2.24,2.21,2.21,0,1,1,4.414,0A2.219,2.219,0,0,1,590.189,386.414Zm1.166-.986a3.015,3.015,0,0,0,.22-1.334,2.728,2.728,0,0,0-.26-1.386,1.3,1.3,0,0,0-1.126-.647,1.336,1.336,0,0,0-1.135.667,2.852,2.852,0,0,0-.24,1.366,2.963,2.963,0,0,0,.249,1.4,1.3,1.3,0,0,0,1.137.668A1.284,1.284,0,0,0,591.355,385.428Z" transform="translate(-487.179 -331.91)"/>
    </g>
    <path class="cls-2" d="M595.726,381.9a.68.68,0,0,1,.737.608.418.418,0,0,1-.429.438.412.412,0,0,1-.428-.428.432.432,0,0,1,.229-.389.25.25,0,0,0-.109-.01c-.758,0-1.176.887-1.176,1.874v1.533c0,.36.02.469.757.469h.209v.309c-.4-.03-.867-.03-1.265-.03-.279,0-.748.02-1.136.03V386c.668,0,.777,0,.777-.447v-2.672c0-.488-.079-.557-.777-.557v-.309l1.385-.11V383A1.4,1.4,0,0,1,595.726,381.9Z" transform="translate(-487.179 -331.91)"/>
    <polygon class="cls-1" points="62.765 40.416 62.765 22.699 112.371 22.699 112.371 58.132 62.765 58.132 62.765 40.416"/>
    <polyline points="85.3 18.164 87.568 22.699 89.836 18.164 87.568 19.297"/>
    <line class="cls-1" x1="87.568" y1="19.297" x2="87.568" y2="12.069"/>
    <path class="cls-2" d="M556.661,338.556a9.013,9.013,0,0,1-.558,1.9c-.18.379-.579.967-1.126.967a.768.768,0,0,1-.847-.688.57.57,0,0,1,.548-.6.344.344,0,0,1,.368.348.539.539,0,0,1-.547.538.709.709,0,0,0,.478.18c.518,0,.687-.907.866-1.874l.748-3.935h-.658c-.189,0-.279,0-.279-.12,0-.189.11-.189.3-.189h.688c.239-1.256.269-1.355.328-1.565.3-.986.927-1.165,1.266-1.165.409,0,.867.229.867.687a.571.571,0,0,1-.548.6.345.345,0,0,1-.369-.349.552.552,0,0,1,.538-.538.732.732,0,0,0-.488-.179.539.539,0,0,0-.468.339,9.447,9.447,0,0,0-.24,1.036l-.209,1.136h.827c.169,0,.269,0,.269.109,0,.2-.1.2-.3.2h-.857Z" transform="translate(-487.179 -331.91)"/>
    <path class="cls-2" d="M560.866,337.949a1.08,1.08,0,0,0-.551.132.6.6,0,0,0-.278.446c0,.154.125.3.383.349.042.014.216.042.279.056.258.048.963.174.963.816,0,.272-.238,1.15-1.521,1.15-.676,0-1.122-.258-1.122-.676a.422.422,0,0,1,.4-.467.249.249,0,0,1,.272.258.412.412,0,0,1-.383.4,1.067,1.067,0,0,0,.836.293,1.5,1.5,0,0,0,.7-.153.709.709,0,0,0,.369-.558c0-.349-.446-.432-.592-.46a1.529,1.529,0,0,1-.789-.251.672.672,0,0,1-.244-.51,1.135,1.135,0,0,1,1.284-1.018c.425,0,.927.154.927.607a.347.347,0,0,1-.335.4.223.223,0,0,1-.23-.223.358.358,0,0,1,.293-.327A.807.807,0,0,0,560.866,337.949Z" transform="translate(-487.179 -331.91)"/>
    <g>
      <path class="cls-2" d="M566.381,336.125c-.15,0-.339,0-.339-.2s.189-.2.329-.2h5.969c.139,0,.328,0,.328.2s-.189.2-.338.2Zm-.01,1.933c-.14,0-.329,0-.329-.2s.189-.2.339-.2h5.949c.149,0,.338,0,.338.2s-.189.2-.328.2Z" transform="translate(-487.179 -331.91)"/>
      <path class="cls-2" d="M578.854,338.6c0,.369.031.478.927.478h.319v.309c-.349-.029-1.215-.029-1.614-.029s-1.265,0-1.614.029v-.309h.319c.9,0,.926-.119.926-.478v-5.161a2.984,2.984,0,0,1-1.3.259v-.309a2.459,2.459,0,0,0,1.813-.638c.229,0,.229.02.229.259Z" transform="translate(-487.179 -331.91)"/>
    </g>
    <g>
      <path class="cls-2" d="M581.919,341.635c-.059.17-.089.24-.219.24a.2.2,0,0,1-.2-.2.528.528,0,0,1,.05-.179l3.457-9.5a.186.186,0,0,1,.17-.09.2.2,0,0,1,.2.2.53.53,0,0,1-.05.18Z" transform="translate(-487.179 -331.91)"/>
      <path class="cls-2" d="M588.923,338.626a.876.876,0,0,0-.039.209c0,.16.079.189.368.22.259.019.389.019.638.019s.339,0,.339.11c0,.2-.12.2-.219.2-.28,0-.578-.02-.867-.02-.269,0-.548-.009-.827-.009s-.568.009-.847.009-.548.02-.817.02c-.06,0-.17,0-.17-.119,0-.19.06-.19.419-.19,1.066,0,1.1-.109,1.185-.478l1.336-5.321a.964.964,0,0,0,.039-.209c0-.08,0-.119-.278-.119h-.389c-1.475,0-1.734.179-2.272,1.723-.06.16-.069.209-.169.209a.113.113,0,0,1-.12-.109,1.214,1.214,0,0,1,.06-.179l.6-1.754c.069-.19.08-.2.319-.2h5.53c.169,0,.269,0,.269.109a1.114,1.114,0,0,1-.02.17l-.269,1.733c-.02.15-.04.229-.15.229a.116.116,0,0,1-.119-.129,1.65,1.65,0,0,1,.029-.189,7.135,7.135,0,0,0,.081-.8c0-.778-.449-.817-1.456-.817a5.683,5.683,0,0,0-.627.019c-.12.031-.16.09-.229.369Z" transform="translate(-487.179 -331.91)"/>
    </g>
    <path class="cls-2" d="M594.226,337.949a1.076,1.076,0,0,0-.551.132.594.594,0,0,0-.279.446c0,.154.125.3.383.349.042.014.217.042.28.056.257.048.962.174.962.816,0,.272-.237,1.15-1.521,1.15-.676,0-1.122-.258-1.122-.676a.422.422,0,0,1,.4-.467.248.248,0,0,1,.272.258.412.412,0,0,1-.383.4,1.07,1.07,0,0,0,.837.293,1.5,1.5,0,0,0,.7-.153.708.708,0,0,0,.37-.558c0-.349-.447-.432-.593-.46a1.521,1.521,0,0,1-.788-.251.669.669,0,0,1-.244-.51,1.134,1.134,0,0,1,1.283-1.018c.425,0,.927.154.927.607a.347.347,0,0,1-.334.4.224.224,0,0,1-.231-.223.358.358,0,0,1,.293-.327A.805.805,0,0,0,594.226,337.949Z" transform="translate(-487.179 -331.91)"/>
    <polyline points="270.827 42.683 275.362 40.416 270.827 38.148 271.961 40.416"/>
    <line class="cls-1" x1="211.583" y1="40.416" x2="271.961" y2="40.416"/>
    <path class="cls-2" d="M722.6,367.713a2.626,2.626,0,0,1-2.331,2.033.942.942,0,0,1-1.056-.867.574.574,0,0,1,.558-.647.339.339,0,0,1,.369.349.538.538,0,0,1-.2.408.569.569,0,0,1-.428.119.805.805,0,0,0,.757.419,1.427,1.427,0,0,0,1.1-.628,3.812,3.812,0,0,0,.648-1.534,1.407,1.407,0,0,1-1.006.448,1.111,1.111,0,0,1-1.216-1.186,6.59,6.59,0,0,1,.578-2.092,2.123,2.123,0,0,0,.169-.7c0-.318-.169-.318-.249-.318-.339,0-.737.3-1.006,1.235-.05.16-.06.18-.16.18-.02,0-.119,0-.119-.1s.368-1.535,1.315-1.535a.791.791,0,0,1,.817.818,1.778,1.778,0,0,1-.2.717,5.958,5.958,0,0,0-.507,1.953c0,.369.109.807.618.807a1.385,1.385,0,0,0,1.125-.847l.449-1.793c.06-.269.129-.538.2-.8.039-.179.119-.488.14-.538a.433.433,0,0,1,.349-.209.267.267,0,0,1,.289.269.622.622,0,0,1-.04.229Z" transform="translate(-487.179 -331.91)"/>
    <path class="cls-2" d="M725.176,370.2V360.23h1.365v.4h-.967V369.8h.967v.4Z" transform="translate(-487.179 -331.91)"/>
    <path class="cls-2" d="M728.213,364.814a3.22,3.22,0,0,0,.159-.837c0-.329-.109-.458-.309-.458-.359,0-.558.478-.727,1.186-.06.219-.07.229-.17.229-.02,0-.119,0-.119-.1a5.035,5.035,0,0,1,.3-.966.869.869,0,0,1,.747-.569.9.9,0,0,1,.917.868,1.922,1.922,0,0,1,1.554-.868,1.019,1.019,0,0,1,1.146,1.067,9.024,9.024,0,0,1-.607,2.192,1.893,1.893,0,0,0-.18.707c0,.229.069.329.239.329.488,0,.817-.558,1.016-1.236.051-.149.051-.179.15-.179.029,0,.119,0,.119.1,0,.079-.369,1.534-1.3,1.534a.8.8,0,0,1-.817-.817,1.132,1.132,0,0,1,.1-.458,9.519,9.519,0,0,0,.647-2.322c0-.329-.09-.7-.538-.7a1.983,1.983,0,0,0-1.624,1.215c-.01.04-.09.329-.13.5-.05.23-.109.449-.169.668l-.219.9c-.06.249-.179.717-.19.737a.407.407,0,0,1-.368.279.266.266,0,0,1-.289-.269c0-.05.059-.279.09-.428Z" transform="translate(-487.179 -331.91)"/>
    <path class="cls-2" d="M734.342,370.2h-1.365v-.4h.966v-9.167h-.966v-.4h1.365Z" transform="translate(-487.179 -331.91)"/>
    <path class="cls-2" d="M700.375,403.891a.884.884,0,0,0-.03.168c0,.179.279.179.647.179.19,0,.279,0,.279.11,0,.2-.12.2-.2.2-.209,0-.428-.02-.647-.02s-.429-.009-.638-.009c-.279,0-.987.029-1.266.029-.02,0-.139,0-.139-.109,0-.2.09-.2.239-.2.617,0,.807-.009.906-.328.04-.15.27-1.1.688-2.75h-3.039l-.677,2.731a.884.884,0,0,0-.03.168c0,.179.279.179.647.179.19,0,.28,0,.28.11,0,.2-.121.2-.2.2-.21,0-.428-.02-.647-.02s-.429-.009-.638-.009c-.279,0-.987.029-1.265.029-.021,0-.14,0-.14-.109,0-.2.09-.2.268-.2.788,0,.808-.08.908-.468l1.335-5.35a.864.864,0,0,0,.04-.19c0-.128-.09-.14-.27-.16s-.358-.019-.378-.019c-.189,0-.279,0-.279-.11,0-.2.109-.2.189-.2.289,0,1,.029,1.285.029s1-.029,1.276-.029c.03,0,.14,0,.14.11,0,.2-.081.2-.339.2-.718,0-.747.1-.837.459l-.588,2.342H700.3l.6-2.432a1.027,1.027,0,0,0,.04-.19c0-.128-.09-.14-.27-.16s-.358-.019-.378-.019c-.189,0-.279,0-.279-.11,0-.2.109-.2.189-.2.289,0,1,.029,1.285.029s1-.029,1.276-.029c.03,0,.14,0,.14.11,0,.2-.081.2-.339.2-.728,0-.747.1-.837.459Z" transform="translate(-487.179 -331.91)"/>
    <g>
      <path class="cls-2" d="M706.44,407.039a4.3,4.3,0,0,1-1.553-1.873,7.676,7.676,0,0,1-.031-6.148,4.347,4.347,0,0,1,1.584-1.944.09.09,0,0,1,.1.1c0,.029,0,.051-.129.17a6.518,6.518,0,0,0-1.6,4.713,6.6,6.6,0,0,0,1.564,4.662c.169.17.169.189.169.22A.09.09,0,0,1,706.44,407.039Z" transform="translate(-487.179 -331.91)"/>
      <path class="cls-2" d="M708.483,403.74a1.34,1.34,0,0,0,1.126.668,1.4,1.4,0,0,0,1.345-1.027c.02-.078.04-.139.13-.139a.115.115,0,0,1,.129.119,1.7,1.7,0,0,1-1.664,1.3,2.248,2.248,0,0,1-2.192-2.3,2.176,2.176,0,0,1,2.073-2.271,1.767,1.767,0,0,1,1.783,1.953c0,.209-.029.209-.249.209h-2.779A2.908,2.908,0,0,0,708.483,403.74Zm2.073-1.7c0-.389-.1-1.734-1.126-1.734-.339,0-1.176.25-1.236,1.734Z" transform="translate(-487.179 -331.91)"/>
    </g>
    <path class="cls-2" d="M713.616,401.443a1.433,1.433,0,0,1-1.365,1.545c-.568,0-1.126-.279-1.126-.8a.459.459,0,1,1,.917,0,.462.462,0,0,1-.35.45,1.22,1.22,0,0,0,.538.129c.638,0,.728-.858.728-1.305v-3.947c0-.489-.09-.557-.856-.557v-.311l1.514-.109Zm-.528-6.107a.529.529,0,1,1,.528-.527A.531.531,0,0,1,713.088,395.336Z" transform="translate(-487.179 -331.91)"/>
    <path class="cls-2" d="M716.042,401.016c-.642,0-.962-.684-.962-1.514,0-1.6,1.115-3.465,2.161-3.465.684,0,.963.781.963,1.514C718.2,399.111,717.1,401.016,716.042,401.016Zm-.237-2.364a5.333,5.333,0,0,0-.2,1.262c0,.377.063.906.446.906.307,0,.586-.328.8-.689a5.015,5.015,0,0,0,.564-1.479Zm1.674-.252a5.56,5.56,0,0,0,.2-1.261c0-.133,0-.907-.447-.907-.411,0-1.01.663-1.366,2.168Z" transform="translate(-487.179 -331.91)"/>
    <path class="cls-2" d="M721.33,405.1a4.341,4.341,0,0,1-1.584,1.943.1.1,0,0,1-.1-.1c0-.031,0-.05.129-.169a6.534,6.534,0,0,0,1.605-4.713,6.469,6.469,0,0,0-1.545-4.655c-.189-.177-.189-.2-.189-.228a.094.094,0,0,1,.1-.1,4.31,4.31,0,0,1,1.554,1.873,7.673,7.673,0,0,1,.03,6.149Z" transform="translate(-487.179 -331.91)"/>
    <path class="cls-2" d="M728.173,397.582a.254.254,0,0,1,.259-.168c.17,0,.17.039.189.238l.608,6.227c.03.289.03.359.648.359.129,0,.228,0,.228.11,0,.2-.119.2-.178.2-.249,0-.877-.029-1.126-.029-.408,0-.837.029-1.246.029-.02,0-.139,0-.139-.109,0-.2.1-.2.238-.2.2,0,.718-.029.718-.328,0-.1-.14-1.455-.159-1.664h-2.5l-.758,1.275a.777.777,0,0,0-.139.37c0,.248.239.328.468.347.071,0,.159.01.159.119,0,.19-.129.19-.188.19-.319,0-.668-.029-1-.029-.278,0-.588.029-.857.029a.115.115,0,0,1-.129-.109c0-.19.089-.19.208-.2a1.408,1.408,0,0,0,1.226-.836Zm.01,4.356-.319-3.29-1.963,3.29Z" transform="translate(-487.179 -331.91)"/>
    <path class="cls-2" d="M731.765,403.74a1.339,1.339,0,0,0,1.126.668,1.4,1.4,0,0,0,1.344-1.027c.02-.078.04-.139.13-.139a.115.115,0,0,1,.129.119,1.7,1.7,0,0,1-1.664,1.3,2.248,2.248,0,0,1-2.191-2.3,2.176,2.176,0,0,1,2.072-2.271,1.767,1.767,0,0,1,1.783,1.953c0,.209-.029.209-.249.209h-2.779A2.9,2.9,0,0,0,731.765,403.74Zm2.072-1.7c0-.389-.1-1.734-1.126-1.734-.339,0-1.176.25-1.235,1.734Z" transform="translate(-487.179 -331.91)"/>
    <path class="cls-2" d="M737.015,401.443a1.434,1.434,0,0,1-1.366,1.545c-.568,0-1.126-.279-1.126-.8a.459.459,0,1,1,.917,0,.463.463,0,0,1-.349.45,1.217,1.217,0,0,0,.538.129c.638,0,.727-.858.727-1.305v-3.947c0-.489-.089-.557-.856-.557v-.311l1.515-.109Zm-.529-6.107a.529.529,0,1,1,.529-.527A.531.531,0,0,1,736.486,395.336Z" transform="translate(-487.179 -331.91)"/>
    <path class="cls-2" d="M740.941,397.863a1.4,1.4,0,0,1,1.493,1.291,2.269,2.269,0,0,1-2.288,1.875l-.292,1.172c-.036.147-.042.168-.147.168-.02,0-.111,0-.111-.084,0-.021.062-.279.146-.607.056-.217.105-.44.16-.655a1.4,1.4,0,0,1-1.492-1.291,2.254,2.254,0,0,1,2.287-1.875l.4-1.6c.028-.119.035-.155.139-.155.036,0,.119,0,.119.092Zm-.3.2a1.847,1.847,0,0,0-1.723,1.793.971.971,0,0,0,1.032.976Zm-.447,2.769a1.854,1.854,0,0,0,1.73-1.793.968.968,0,0,0-1.039-.976Z" transform="translate(-487.179 -331.91)"/>
    <path class="cls-2" d="M744.608,403.74a1.34,1.34,0,0,0,1.126.668,1.4,1.4,0,0,0,1.345-1.027c.02-.078.04-.139.13-.139a.115.115,0,0,1,.129.119,1.7,1.7,0,0,1-1.664,1.3,2.248,2.248,0,0,1-2.192-2.3,2.176,2.176,0,0,1,2.073-2.271,1.767,1.767,0,0,1,1.783,1.953c0,.209-.029.209-.249.209H744.31A2.908,2.908,0,0,0,744.608,403.74Zm2.073-1.7c0-.389-.1-1.734-1.126-1.734-.339,0-1.176.25-1.236,1.734Z" transform="translate(-487.179 -331.91)"/>
    <path class="cls-2" d="M749.733,401.443a1.433,1.433,0,0,1-1.365,1.545c-.568,0-1.126-.279-1.126-.8a.459.459,0,1,1,.917,0,.463.463,0,0,1-.349.45,1.214,1.214,0,0,0,.538.129c.637,0,.727-.858.727-1.305v-3.947c0-.489-.09-.557-.856-.557v-.311l1.514-.109Zm-.528-6.107a.529.529,0,1,1,.528-.527A.531.531,0,0,1,749.205,395.336Z" transform="translate(-487.179 -331.91)"/>
    <g>
      <path class="cls-2" d="M751.715,399.613c.034-.152.1-.439.153-.627a3.061,3.061,0,0,0,.111-.578c0-.189-.048-.342-.23-.342-.271,0-.4.342-.509.752-.049.19-.055.209-.153.209-.021,0-.118,0-.118-.089a2.44,2.44,0,0,1,.251-.69.633.633,0,0,1,.551-.377.707.707,0,0,1,.746.635,1.482,1.482,0,0,1,1.178-.635c.369,0,.907.117.907.8a5.1,5.1,0,0,1-.371,1.346,1.393,1.393,0,0,0-.16.564c0,.147.029.244.175.244.278,0,.578-.285.739-.843.028-.077.035-.12.132-.12.022,0,.112,0,.112.092s-.307,1.067-1,1.067a.615.615,0,0,1-.662-.6.924.924,0,0,1,.1-.377,5.648,5.648,0,0,0,.411-1.484c0-.133-.007-.489-.411-.489a1.3,1.3,0,0,0-1.046.641,1.433,1.433,0,0,0-.293.629c-.035.16-.077.312-.118.467-.042.174-.119.494-.153.627a2.923,2.923,0,0,1-.126.431.339.339,0,0,1-.272.155.223.223,0,0,1-.237-.223,2.834,2.834,0,0,1,.069-.287Z" transform="translate(-487.179 -331.91)"/>
      <path class="cls-2" d="M756.958,401.016c-.642,0-.962-.684-.962-1.514,0-1.6,1.115-3.465,2.161-3.465.684,0,.963.781.963,1.514C759.12,399.111,758.019,401.016,756.958,401.016Zm-.237-2.364a5.333,5.333,0,0,0-.2,1.262c0,.377.063.906.446.906.307,0,.586-.328.8-.689a5.015,5.015,0,0,0,.564-1.479Zm1.674-.252a5.56,5.56,0,0,0,.2-1.261c0-.133,0-.907-.447-.907-.411,0-1.01.663-1.366,2.168Z" transform="translate(-487.179 -331.91)"/>
    </g>
    <path class="cls-2" d="M505.1,398.77c.06-.1.1-.168.259-.168s.169.039.189.238l.608,6.226c.03.289.03.36.648.36.129,0,.229,0,.229.109,0,.2-.12.2-.179.2-.25,0-.877-.029-1.126-.029-.409,0-.837.029-1.246.029-.02,0-.14,0-.14-.109,0-.2.1-.2.24-.2.2,0,.717-.03.717-.328,0-.1-.139-1.455-.159-1.664h-2.5l-.758,1.275a.774.774,0,0,0-.139.369c0,.248.239.328.468.348.07,0,.16.01.16.119,0,.189-.13.189-.19.189-.319,0-.667-.029-1-.029-.279,0-.588.029-.857.029a.116.116,0,0,1-.13-.109c0-.189.09-.189.21-.2a1.41,1.41,0,0,0,1.225-.836Zm.009,4.355-.318-3.289-1.963,3.289Z" transform="translate(-487.179 -331.91)"/>
    <path class="cls-2" d="M508.686,404.928a1.343,1.343,0,0,0,1.126.668,1.4,1.4,0,0,0,1.345-1.028c.02-.078.04-.138.13-.138a.116.116,0,0,1,.13.119,1.7,1.7,0,0,1-1.665,1.3,2.248,2.248,0,0,1-2.192-2.3,2.178,2.178,0,0,1,2.073-2.272,1.769,1.769,0,0,1,1.784,1.954c0,.209-.031.209-.25.209h-2.78A2.9,2.9,0,0,0,508.686,404.928Zm2.073-1.7c0-.389-.1-1.735-1.126-1.735-.339,0-1.176.25-1.236,1.735Z" transform="translate(-487.179 -331.91)"/>
    <path class="cls-2" d="M513.819,402.639a1.434,1.434,0,0,1-1.365,1.545c-.568,0-1.126-.28-1.126-.8a.459.459,0,1,1,.917,0,.462.462,0,0,1-.349.449,1.214,1.214,0,0,0,.538.129c.638,0,.727-.858.727-1.3v-3.947c0-.488-.089-.557-.856-.557v-.31l1.514-.11Zm-.528-6.108a.528.528,0,1,1,.528-.527A.531.531,0,0,1,513.291,396.531Z" transform="translate(-487.179 -331.91)"/>
    <path class="cls-2" d="M517.738,399.059a1.4,1.4,0,0,1,1.492,1.291,2.269,2.269,0,0,1-2.287,1.875l-.293,1.171c-.035.147-.042.168-.146.168-.021,0-.111,0-.111-.084,0-.021.062-.279.146-.607.056-.217.105-.439.16-.654a1.4,1.4,0,0,1-1.492-1.291,2.252,2.252,0,0,1,2.287-1.875l.4-1.6c.027-.119.034-.154.139-.154.035,0,.118,0,.118.092Zm-.3.195a1.847,1.847,0,0,0-1.722,1.793.971.971,0,0,0,1.032.976Zm-.446,2.769a1.852,1.852,0,0,0,1.729-1.793.967.967,0,0,0-1.038-.976Z" transform="translate(-487.179 -331.91)"/>
    <path class="cls-2" d="M523.666,403.771a.528.528,0,1,1,.528-.527A.531.531,0,0,1,523.666,403.771Z" transform="translate(-487.179 -331.91)"/>
    <path class="cls-2" d="M528.608,404.928a1.341,1.341,0,0,0,1.126.668,1.4,1.4,0,0,0,1.345-1.028c.02-.078.04-.138.129-.138a.115.115,0,0,1,.13.119,1.7,1.7,0,0,1-1.664,1.3,2.248,2.248,0,0,1-2.192-2.3,2.178,2.178,0,0,1,2.073-2.272,1.768,1.768,0,0,1,1.783,1.954c0,.209-.03.209-.249.209h-2.78A2.9,2.9,0,0,0,528.608,404.928Zm2.073-1.7c0-.389-.1-1.735-1.126-1.735-.339,0-1.176.25-1.236,1.735Z" transform="translate(-487.179 -331.91)"/>
    <path class="cls-2" d="M533.733,402.639a1.434,1.434,0,0,1-1.365,1.545c-.568,0-1.126-.28-1.126-.8a.459.459,0,1,1,.917,0,.462.462,0,0,1-.349.449,1.214,1.214,0,0,0,.538.129c.638,0,.727-.858.727-1.3v-3.947c0-.488-.089-.557-.856-.557v-.31l1.514-.11Zm-.528-6.108a.528.528,0,1,1,.528-.527A.531.531,0,0,1,533.205,396.531Z" transform="translate(-487.179 -331.91)"/>
    <g>
      <path class="cls-2" d="M537.75,402.2a.89.89,0,0,1-.885-.676,1.408,1.408,0,0,1-1.123.684c-.641,0-.864-.551-.864-1.109a3.233,3.233,0,0,1,.418-1.512,3.035,3.035,0,0,1,.265-.4.2.2,0,0,1,.161-.1.16.16,0,0,1,.146.16c0,.1-.718.781-.718,1.59a.722.722,0,0,0,.655.808,1.323,1.323,0,0,0,1-.564c0-.244.028-1,.384-1a.19.19,0,0,1,.181.209,2.563,2.563,0,0,1-.258.814.754.754,0,0,0,.711.537c.782,0,1.228-1,1.228-1.449,0-.474-.377-.523-.377-.754a.423.423,0,0,1,.356-.383c.286,0,.376.286.376.5C539.4,400.141,538.978,402.2,537.75,402.2Z" transform="translate(-487.179 -331.91)"/>
      <path class="cls-2" d="M541.133,401.389a1.959,1.959,0,0,0-.042.285c0,.252.1.342.244.342.384,0,.74-.391.935-.83.056-.12.063-.133.147-.133.021,0,.111,0,.111.092s-.44,1.066-1.214,1.066a.688.688,0,0,1-.746-.662,3.671,3.671,0,0,1,.105-.516l.411-1.646h-.662c-.126,0-.209,0-.209-.1,0-.154.09-.154.223-.154h.711c.307-1.213.216-.877.265-1.053s.153-.3.328-.3a.224.224,0,0,1,.237.223.672.672,0,0,1-.021.1l-.258,1.031h.662c.119,0,.21,0,.21.1,0,.155-.091.155-.223.155h-.712Z" transform="translate(-487.179 -331.91)"/>
    </g>
    <g>
      <path class="cls-2" d="M492,420.787c-.04.1-.07.19-.2.19s-.16-.079-.2-.19l-1.017-2.828-1.006,2.818c-.05.141-.07.2-.2.2s-.159-.079-.209-.219l-1.255-3.528c-.12-.318-.239-.347-.738-.347v-.311c.359.022.887.032.927.032.229,0,.787-.02,1.086-.032v.311c-.2,0-.588,0-.588.267a.379.379,0,0,0,.05.18l.947,2.66.857-2.41a3.851,3.851,0,0,0-.229-.549c-.1-.129-.26-.148-.628-.148v-.311c.3.022.587.032.886.032.24,0,.748-.02,1.036-.032v.311c-.2,0-.587,0-.587.267a.571.571,0,0,0,.049.19l.987,2.781.907-2.551a.453.453,0,0,0,.05-.211c0-.287-.22-.466-.578-.476v-.311c.189.012.637.032.926.032.22,0,.509-.01.728-.032v.311a.836.836,0,0,0-.838.637Z" transform="translate(-487.179 -331.91)"/>
      <path class="cls-2" d="M495.947,420.121c0,.389.04.438.7.438v.308c-.338-.01-.687-.029-1.036-.029-.239,0-.777.019-1.1.029v-.308c.668,0,.777,0,.777-.448V417.43c0-.489-.09-.547-.737-.547v-.311l1.395-.109Zm-.489-4.863a.532.532,0,0,1-.528-.528.538.538,0,0,1,.528-.529.529.529,0,1,1,0,1.057Z" transform="translate(-487.179 -331.91)"/>
      <path class="cls-2" d="M498.656,419.652c0,.17,0,1.077.668,1.077.369,0,.668-.379.668-1.118v-.547h.249v.569c0,.637-.279,1.344-.987,1.344a1.205,1.205,0,0,1-1.285-1.344v-2.75h-.847v-.221c.977-.039,1.275-1.1,1.285-1.922h.249v1.832h1.425v.311h-1.425Z" transform="translate(-487.179 -331.91)"/>
      <path class="cls-2" d="M501.884,414.93c0-.489-.08-.559-.777-.559v-.308l1.435-.11v3.486a1.576,1.576,0,0,1,1.444-.976,1.329,1.329,0,0,1,1.047.369c.309.359.309.668.309,1.525v1.9c.01.3.259.3.777.3v.308c-.339-.01-.857-.029-1.116-.029s-.777.019-1.126.029v-.308c.667,0,.777,0,.777-.448v-2.322c0-.568-.11-1.1-.737-1.1a1.453,1.453,0,0,0-1.345,1.593v1.834c0,.448.109.448.777.448v.308c-.339-.01-.857-.029-1.116-.029s-.777.019-1.126.029v-.308c.667,0,.777,0,.777-.448Z" transform="translate(-487.179 -331.91)"/>
    </g>
    <path class="cls-2" d="M511.381,423c0,.18,0,.359-.2.359s-.2-.179-.2-.359v-9.246c0-.18,0-.359.2-.359s.2.179.2.359Z" transform="translate(-487.179 -331.91)"/>
    <path class="cls-2" d="M517.965,419.623c-.359.746-.837,1.354-1.614,1.354a1.123,1.123,0,0,1-1.1-1.045,1.894,1.894,0,0,1-1.534,1.045c-.818,0-1.047-.737-1.047-1.424a5.578,5.578,0,0,1,.887-2.83c.06-.09.129-.219.259-.219a.183.183,0,0,1,.189.189,4.957,4.957,0,0,0-1.016,2.42c0,.559.209,1.147.867,1.147a1.712,1.712,0,0,0,1.355-.916,3.644,3.644,0,0,1,.229-1.207.282.282,0,0,1,.269-.168c.13,0,.18.1.18.219a4.5,4.5,0,0,1-.339,1.175.942.942,0,0,0,.967.9,1.469,1.469,0,0,0,1.135-.768,2.818,2.818,0,0,0,.5-1.424,1.085,1.085,0,0,0-.348-.838.411.411,0,0,1-.15-.3.548.548,0,0,1,.529-.469c.218,0,.4.25.4.7A8.2,8.2,0,0,1,517.965,419.623Z" transform="translate(-487.179 -331.91)"/>
    <path class="cls-2" d="M520.741,423c0,.18,0,.359-.2.359s-.2-.179-.2-.359v-9.246c0-.18,0-.359.2-.359s.2.179.2.359Z" transform="translate(-487.179 -331.91)"/>
    <g>
      <path class="cls-2" d="M526.049,418.377l5.231,2.471c.12.06.19.109.19.218a.2.2,0,0,1-.2.2c-.03,0-.05,0-.18-.069l-5.52-2.6c-.11-.049-.189-.1-.189-.219s.079-.17.189-.219l5.52-2.6c.13-.071.15-.071.18-.071a.2.2,0,0,1,.2.2c0,.111-.07.16-.19.22Z" transform="translate(-487.179 -331.91)"/>
      <path class="cls-2" d="M537.2,419.354c-.13.5-.13.517-.269.976-.12.369-.2.647-.5.647a.27.27,0,0,1-.289-.268c0-.07,0-.09.079-.24a20.914,20.914,0,0,0,1.276-3.319h-.568a1.4,1.4,0,0,0-1.266.768c-.059.08-.08.119-.159.119-.12,0-.12-.09-.12-.1a3.608,3.608,0,0,1,.608-.9,1.266,1.266,0,0,1,1.036-.469h3.338c.19,0,.4,0,.4.241,0,.337-.359.337-.489.337h-1.135a7.719,7.719,0,0,0-.18,1.586,4.281,4.281,0,0,0,.289,1.643.438.438,0,0,1,.06.221.419.419,0,0,1-.409.377c-.149,0-.258-.059-.358-.5a3.124,3.124,0,0,1-.08-.756,10.964,10.964,0,0,1,.419-2.573h-1.126Z" transform="translate(-487.179 -331.91)"/>
    </g>
    <g>
      <path class="cls-2" d="M542.076,423.119c-.06.17-.09.24-.22.24a.2.2,0,0,1-.2-.2.53.53,0,0,1,.05-.18l3.458-9.5a.183.183,0,0,1,.169-.089.2.2,0,0,1,.2.2.522.522,0,0,1-.05.179Z" transform="translate(-487.179 -331.91)"/>
      <path class="cls-2" d="M549.08,420.111a.864.864,0,0,0-.04.209c0,.159.08.19.369.219.258.02.388.02.637.02s.339,0,.339.109c0,.2-.119.2-.219.2-.279,0-.578-.019-.867-.019-.269,0-.548-.01-.827-.01s-.568.01-.847.01-.548.019-.817.019c-.06,0-.169,0-.169-.119,0-.189.059-.189.418-.189,1.066,0,1.1-.11,1.186-.479l1.335-5.32a1,1,0,0,0,.04-.209c0-.08,0-.119-.279-.119h-.389c-1.474,0-1.734.177-2.271,1.722-.06.16-.07.209-.17.209a.112.112,0,0,1-.119-.109,1.348,1.348,0,0,1,.059-.18l.6-1.752c.07-.189.08-.2.319-.2h5.53c.169,0,.269,0,.269.111a1.076,1.076,0,0,1-.02.168l-.269,1.735c-.02.15-.04.228-.149.228a.116.116,0,0,1-.12-.129,1.468,1.468,0,0,1,.03-.189,7.392,7.392,0,0,0,.08-.8c0-.777-.449-.816-1.455-.816a5.713,5.713,0,0,0-.628.019c-.119.029-.159.09-.229.369Z" transform="translate(-487.179 -331.91)"/>
    </g>
    <path class="cls-2" d="M554.382,419.418a1.083,1.083,0,0,0-.551.133.594.594,0,0,0-.279.445c0,.154.126.3.384.35.042.013.216.041.279.054.258.049.962.174.962.817,0,.271-.237,1.15-1.52,1.15-.677,0-1.123-.258-1.123-.676a.424.424,0,0,1,.4-.468.249.249,0,0,1,.272.259.412.412,0,0,1-.383.4,1.07,1.07,0,0,0,.837.293,1.489,1.489,0,0,0,.7-.154.7.7,0,0,0,.37-.557c0-.35-.446-.434-.593-.461a1.527,1.527,0,0,1-.788-.25.669.669,0,0,1-.244-.51,1.133,1.133,0,0,1,1.283-1.017c.425,0,.927.152.927.6a.349.349,0,0,1-.334.4.225.225,0,0,1-.231-.223.356.356,0,0,1,.293-.328A.8.8,0,0,0,554.382,419.418Z" transform="translate(-487.179 -331.91)"/>
    <path class="cls-2" d="M611.048,398.77c.06-.1.1-.168.259-.168s.17.039.189.238l.608,6.226c.03.289.03.36.648.36.129,0,.229,0,.229.109,0,.2-.12.2-.179.2-.25,0-.877-.029-1.126-.029-.409,0-.837.029-1.246.029-.02,0-.139,0-.139-.109,0-.2.1-.2.239-.2.2,0,.717-.03.717-.328,0-.1-.139-1.455-.159-1.664h-2.5l-.757,1.275a.766.766,0,0,0-.14.369c0,.248.239.328.468.348.07,0,.16.01.16.119,0,.189-.13.189-.19.189-.318,0-.667-.029-1-.029-.279,0-.588.029-.857.029a.115.115,0,0,1-.129-.109c0-.189.089-.189.209-.2a1.412,1.412,0,0,0,1.226-.836Zm.01,4.355-.319-3.289-1.963,3.289Z" transform="translate(-487.179 -331.91)"/>
    <path class="cls-2" d="M614.647,404.928a1.341,1.341,0,0,0,1.126.668,1.4,1.4,0,0,0,1.345-1.028c.02-.078.04-.138.13-.138a.115.115,0,0,1,.129.119,1.7,1.7,0,0,1-1.664,1.3,2.248,2.248,0,0,1-2.192-2.3,2.178,2.178,0,0,1,2.073-2.272,1.768,1.768,0,0,1,1.783,1.954c0,.209-.03.209-.249.209h-2.78A2.9,2.9,0,0,0,614.647,404.928Zm2.073-1.7c0-.389-.1-1.735-1.126-1.735-.339,0-1.176.25-1.236,1.735Z" transform="translate(-487.179 -331.91)"/>
    <path class="cls-2" d="M619.772,402.639a1.434,1.434,0,0,1-1.365,1.545c-.568,0-1.126-.28-1.126-.8a.459.459,0,1,1,.917,0,.461.461,0,0,1-.349.449,1.214,1.214,0,0,0,.538.129c.638,0,.727-.858.727-1.3v-3.947c0-.488-.089-.557-.856-.557v-.31l1.514-.11Zm-.528-6.108a.528.528,0,1,1,.528-.527A.531.531,0,0,1,619.244,396.531Z" transform="translate(-487.179 -331.91)"/>
    <path class="cls-2" d="M623.7,399.059a1.4,1.4,0,0,1,1.492,1.291,2.269,2.269,0,0,1-2.287,1.875l-.293,1.171c-.035.147-.042.168-.146.168-.021,0-.111,0-.111-.084,0-.021.062-.279.146-.607.056-.217.1-.439.16-.654a1.4,1.4,0,0,1-1.492-1.291,2.252,2.252,0,0,1,2.287-1.875l.4-1.6c.027-.119.034-.154.139-.154.035,0,.118,0,.118.092Zm-.3.195a1.847,1.847,0,0,0-1.722,1.793.971.971,0,0,0,1.032.976Zm-.446,2.769a1.852,1.852,0,0,0,1.729-1.793.967.967,0,0,0-1.038-.976Z" transform="translate(-487.179 -331.91)"/>
    <path class="cls-2" d="M629.627,403.771a.528.528,0,1,1,.528-.527A.531.531,0,0,1,629.627,403.771Z" transform="translate(-487.179 -331.91)"/>
    <path class="cls-2" d="M634.561,404.928a1.343,1.343,0,0,0,1.126.668,1.4,1.4,0,0,0,1.345-1.028c.02-.078.04-.138.13-.138a.116.116,0,0,1,.13.119,1.7,1.7,0,0,1-1.665,1.3,2.248,2.248,0,0,1-2.192-2.3,2.178,2.178,0,0,1,2.073-2.272,1.769,1.769,0,0,1,1.784,1.954c0,.209-.031.209-.25.209h-2.78A2.9,2.9,0,0,0,634.561,404.928Zm2.073-1.7c0-.389-.1-1.735-1.126-1.735-.339,0-1.176.25-1.236,1.735Z" transform="translate(-487.179 -331.91)"/>
    <path class="cls-2" d="M639.694,402.639a1.434,1.434,0,0,1-1.365,1.545c-.568,0-1.126-.28-1.126-.8a.459.459,0,1,1,.917,0,.462.462,0,0,1-.349.449,1.214,1.214,0,0,0,.538.129c.638,0,.727-.858.727-1.3v-3.947c0-.488-.089-.557-.856-.557v-.31l1.514-.11Zm-.528-6.108a.528.528,0,1,1,.528-.527A.531.531,0,0,1,639.166,396.531Z" transform="translate(-487.179 -331.91)"/>
    <g>
      <path class="cls-2" d="M641.792,400.809c.036-.153.105-.44.154-.627a3.1,3.1,0,0,0,.112-.578c0-.19-.049-.342-.23-.342-.272,0-.4.342-.51.752-.048.189-.055.209-.153.209-.021,0-.119,0-.119-.09a2.485,2.485,0,0,1,.251-.69.634.634,0,0,1,.552-.377.708.708,0,0,1,.746.635,1.482,1.482,0,0,1,1.178-.635c.37,0,.907.118.907.8a5.1,5.1,0,0,1-.37,1.346,1.4,1.4,0,0,0-.161.564c0,.147.029.245.175.245.279,0,.579-.286.739-.844.028-.076.035-.119.133-.119.02,0,.111,0,.111.092s-.307,1.066-1,1.066a.615.615,0,0,1-.662-.6.928.928,0,0,1,.1-.377,5.609,5.609,0,0,0,.412-1.484c0-.133-.008-.488-.412-.488a1.3,1.3,0,0,0-1.046.64,1.433,1.433,0,0,0-.293.629c-.034.16-.076.313-.118.467-.042.174-.119.494-.154.627a2.875,2.875,0,0,1-.125.432.341.341,0,0,1-.272.154.222.222,0,0,1-.237-.223,2.9,2.9,0,0,1,.069-.287Z" transform="translate(-487.179 -331.91)"/>
      <path class="cls-2" d="M647.037,402.211c-.641,0-.962-.684-.962-1.514,0-1.6,1.115-3.465,2.161-3.465.683,0,.963.782.963,1.514C649.2,400.307,648.1,402.211,647.037,402.211Zm-.237-2.363a5.315,5.315,0,0,0-.2,1.261c0,.377.062.907.446.907.307,0,.585-.328.8-.69a5.042,5.042,0,0,0,.565-1.478Zm1.673-.252a5.525,5.525,0,0,0,.2-1.262c0-.133,0-.906-.447-.906-.411,0-1.011.662-1.367,2.168Z" transform="translate(-487.179 -331.91)"/>
    </g>
    <g>
      <path class="cls-2" d="M604.2,421.021c-.04.1-.07.19-.2.19s-.16-.078-.2-.19l-1.017-2.828-1.006,2.819c-.05.14-.07.2-.2.2s-.16-.078-.209-.219l-1.256-3.527c-.12-.319-.239-.348-.737-.348v-.31c.358.021.886.031.926.031.229,0,.787-.02,1.086-.031v.31c-.2,0-.588,0-.588.268a.376.376,0,0,0,.05.179l.947,2.661.857-2.411a3.668,3.668,0,0,0-.229-.548c-.1-.129-.259-.149-.628-.149v-.31c.3.021.588.031.887.031.239,0,.747-.02,1.036-.031v.31c-.2,0-.588,0-.588.268a.553.553,0,0,0,.05.189l.986,2.781.907-2.55a.455.455,0,0,0,.05-.211c0-.287-.219-.467-.578-.477v-.31c.189.011.638.031.927.031.219,0,.508-.01.727-.031v.31a.835.835,0,0,0-.837.637Z" transform="translate(-487.179 -331.91)"/>
      <path class="cls-2" d="M608.142,420.355c0,.389.04.438.7.438v.309c-.338-.01-.687-.03-1.036-.03-.239,0-.777.02-1.1.03v-.309c.668,0,.777,0,.777-.447v-2.682c0-.488-.089-.547-.737-.547v-.31l1.4-.11Zm-.488-4.863a.532.532,0,0,1-.529-.527.539.539,0,0,1,.529-.529.528.528,0,1,1,0,1.056Z" transform="translate(-487.179 -331.91)"/>
      <path class="cls-2" d="M610.852,419.887c0,.17,0,1.076.668,1.076.368,0,.667-.379.667-1.117V419.3h.249v.568c0,.637-.279,1.344-.986,1.344a1.205,1.205,0,0,1-1.286-1.344v-2.75h-.847V416.9c.977-.039,1.276-1.105,1.286-1.921h.249v1.832h1.424v.31h-1.424Z" transform="translate(-487.179 -331.91)"/>
      <path class="cls-2" d="M614.08,415.164c0-.488-.08-.559-.778-.559V414.3l1.435-.109v3.486a1.576,1.576,0,0,1,1.445-.977,1.326,1.326,0,0,1,1.046.369c.309.36.309.668.309,1.526v1.9c.01.3.259.3.777.3v.309c-.338-.01-.857-.03-1.116-.03s-.777.02-1.126.03v-.309c.668,0,.778,0,.778-.447v-2.323c0-.568-.11-1.105-.738-1.105a1.455,1.455,0,0,0-1.345,1.594v1.834c0,.447.109.447.777.447v.309c-.338-.01-.857-.03-1.116-.03s-.777.02-1.126.03v-.309c.668,0,.778,0,.778-.447Z" transform="translate(-487.179 -331.91)"/>
    </g>
    <path class="cls-2" d="M623.5,421.211c-.907,0-1.2-1.106-1.2-2.041,0-2.283,1.535-5.092,2.92-5.092,1.016,0,1.2,1.385,1.2,2.041C626.417,418.352,624.9,421.211,623.5,421.211Zm-.219-3.406a7.614,7.614,0,0,0-.319,1.972c0,.926.209,1.215.538,1.215.428,0,.807-.488,1.156-1.166a8.9,8.9,0,0,0,.7-2.021Zm2.162-.321a8.262,8.262,0,0,0,.319-1.982c0-.568-.06-1.2-.548-1.2-.449,0-.817.558-1.086,1.047a9.011,9.011,0,0,0-.768,2.14Z" transform="translate(-487.179 -331.91)"/>
    <path class="cls-2" d="M630.452,417.844c-.15,0-.339,0-.339-.2s.189-.2.328-.2h5.969c.139,0,.329,0,.329.2s-.19.2-.339.2Zm-.011,1.933c-.139,0-.328,0-.328-.2s.189-.2.339-.2H636.4c.149,0,.339,0,.339.2s-.19.2-.329.2Z" transform="translate(-487.179 -331.91)"/>
    <g>
      <path class="cls-2" d="M645.528,419.857c-.359.747-.838,1.354-1.614,1.354a1.124,1.124,0,0,1-1.1-1.045,1.894,1.894,0,0,1-1.534,1.045c-.817,0-1.046-.736-1.046-1.424a5.571,5.571,0,0,1,.887-2.83c.059-.09.129-.219.259-.219a.184.184,0,0,1,.189.19,4.957,4.957,0,0,0-1.016,2.42c0,.558.209,1.146.866,1.146a1.711,1.711,0,0,0,1.355-.916,3.647,3.647,0,0,1,.23-1.207.282.282,0,0,1,.269-.168c.129,0,.179.1.179.219a4.52,4.52,0,0,1-.339,1.176.941.941,0,0,0,.967.9,1.472,1.472,0,0,0,1.136-.767,2.821,2.821,0,0,0,.5-1.424,1.08,1.08,0,0,0-.349-.838.415.415,0,0,1-.149-.3.549.549,0,0,1,.528-.469c.219,0,.4.25.4.7A8.191,8.191,0,0,1,645.528,419.857Z" transform="translate(-487.179 -331.91)"/>
      <path class="cls-2" d="M649.642,420.346a.848.848,0,0,0-.04.209c0,.158.08.189.369.218.258.02.388.02.637.02s.339,0,.339.109c0,.2-.119.2-.219.2-.279,0-.578-.02-.867-.02-.269,0-.548-.01-.827-.01s-.568.01-.847.01-.548.02-.817.02c-.06,0-.169,0-.169-.12,0-.189.059-.189.418-.189,1.066,0,1.1-.109,1.186-.479l1.335-5.32a.97.97,0,0,0,.04-.209c0-.08,0-.119-.279-.119h-.389c-1.474,0-1.734.178-2.271,1.723-.06.16-.07.209-.17.209a.112.112,0,0,1-.119-.11,1.336,1.336,0,0,1,.059-.179l.6-1.752c.07-.19.08-.2.319-.2h5.53c.169,0,.269,0,.269.112a1.09,1.09,0,0,1-.02.168l-.269,1.734c-.02.151-.04.229-.149.229a.117.117,0,0,1-.12-.129,1.455,1.455,0,0,1,.03-.19,7.344,7.344,0,0,0,.08-.8c0-.777-.449-.816-1.455-.816a5.429,5.429,0,0,0-.628.02c-.119.029-.159.089-.229.369Z" transform="translate(-487.179 -331.91)"/>
    </g>
    <path class="cls-2" d="M654.944,419.668a1.078,1.078,0,0,0-.55.133.591.591,0,0,0-.279.445c0,.154.125.3.383.35.042.013.216.041.279.054.258.049.963.174.963.817,0,.271-.238,1.15-1.521,1.15-.676,0-1.122-.258-1.122-.676a.424.424,0,0,1,.4-.468.249.249,0,0,1,.272.259.412.412,0,0,1-.383.4,1.068,1.068,0,0,0,.837.293,1.491,1.491,0,0,0,.7-.154.7.7,0,0,0,.369-.557c0-.35-.446-.434-.592-.461-.482-.084-.607-.111-.788-.25a.669.669,0,0,1-.245-.51,1.134,1.134,0,0,1,1.284-1.017c.425,0,.927.152.927.6a.349.349,0,0,1-.335.4.224.224,0,0,1-.23-.223.356.356,0,0,1,.293-.328A.8.8,0,0,0,654.944,419.668Z" transform="translate(-487.179 -331.91)"/>
    <g>
      <path class="cls-2" d="M629.256,431.766c-.15,0-.339,0-.339-.2s.189-.2.329-.2h5.969c.139,0,.328,0,.328.2s-.189.2-.338.2Zm-.01,1.933c-.14,0-.329,0-.329-.2s.189-.2.339-.2h5.949c.149,0,.338,0,.338.2s-.189.2-.328.2Z" transform="translate(-487.179 -331.91)"/>
      <path class="cls-2" d="M641.979,434.256a.8.8,0,0,0,1.166-.965h.249l-.279,1.732h-3.7c0-.238,0-.257.11-.369l1.913-2.131a3.575,3.575,0,0,0,1.046-2.2c0-.816-.428-1.623-1.335-1.623a1.437,1.437,0,0,0-1.345,1.016.37.37,0,0,1,.129-.01.5.5,0,0,1,.528.518.524.524,0,1,1-1.046-.03,1.84,1.84,0,0,1,1.863-1.8,1.957,1.957,0,0,1,2.113,1.931c0,1-.6,1.535-2.152,2.91l-1.056,1.026Z" transform="translate(-487.179 -331.91)"/>
    </g>
    <g>
      <path class="cls-2" d="M646.043,433.51c-.129.5-.129.517-.269.976-.119.369-.2.647-.5.647a.269.269,0,0,1-.289-.268c0-.07,0-.09.08-.24a21,21,0,0,0,1.275-3.318h-.568a1.4,1.4,0,0,0-1.265.767c-.06.08-.08.119-.159.119-.12,0-.12-.089-.12-.1a3.577,3.577,0,0,1,.608-.9,1.267,1.267,0,0,1,1.036-.468h3.338c.189,0,.4,0,.4.24,0,.338-.358.338-.488.338h-1.136a7.772,7.772,0,0,0-.179,1.586,4.28,4.28,0,0,0,.289,1.642.438.438,0,0,1,.06.221.419.419,0,0,1-.409.377c-.149,0-.259-.059-.358-.5a3.124,3.124,0,0,1-.08-.756,10.9,10.9,0,0,1,.419-2.572H646.6Z" transform="translate(-487.179 -331.91)"/>
      <path class="cls-2" d="M653.018,434.2a8.956,8.956,0,0,1-.559,1.9c-.179.379-.578.966-1.126.966a.767.767,0,0,1-.846-.687.571.571,0,0,1,.548-.6.344.344,0,0,1,.368.35.54.54,0,0,1-.548.537.709.709,0,0,0,.478.18c.519,0,.688-.907.867-1.873l.748-3.936h-.658c-.189,0-.279,0-.279-.121,0-.189.11-.189.3-.189H653c.239-1.254.269-1.354.328-1.563.3-.988.927-1.166,1.266-1.166.408,0,.866.229.866.688a.571.571,0,0,1-.547.6.345.345,0,0,1-.369-.349.552.552,0,0,1,.538-.538.732.732,0,0,0-.488-.179.536.536,0,0,0-.468.338,9.348,9.348,0,0,0-.24,1.037l-.209,1.135h.827c.169,0,.269,0,.269.111,0,.2-.1.2-.3.2h-.857Z" transform="translate(-487.179 -331.91)"/>
    </g>
    <g>
      <path class="cls-2" d="M656.919,437.275c-.059.17-.089.241-.219.241a.2.2,0,0,1-.2-.2.534.534,0,0,1,.05-.179l3.457-9.5a.184.184,0,0,1,.17-.09.2.2,0,0,1,.2.2.53.53,0,0,1-.05.18Z" transform="translate(-487.179 -331.91)"/>
      <path class="cls-2" d="M664.053,434.2a8.873,8.873,0,0,1-.558,1.9c-.179.379-.578.966-1.126.966a.767.767,0,0,1-.847-.687.571.571,0,0,1,.548-.6.345.345,0,0,1,.369.35.54.54,0,0,1-.548.537.709.709,0,0,0,.478.18c.518,0,.688-.907.867-1.873l.747-3.936h-.657c-.19,0-.279,0-.279-.121,0-.189.109-.189.3-.189h.687c.239-1.254.269-1.354.329-1.563.3-.988.927-1.166,1.265-1.166.409,0,.867.229.867.688a.571.571,0,0,1-.548.6.344.344,0,0,1-.368-.349.551.551,0,0,1,.538-.538.736.736,0,0,0-.489-.179.538.538,0,0,0-.468.338,9.593,9.593,0,0,0-.239,1.037l-.209,1.135h.827c.169,0,.269,0,.269.111,0,.2-.1.2-.3.2h-.857Z" transform="translate(-487.179 -331.91)"/>
    </g>
    <path class="cls-2" d="M668.265,433.582a1.079,1.079,0,0,0-.551.133.6.6,0,0,0-.279.445c0,.154.126.3.383.35.042.013.217.041.28.054.257.049.962.174.962.817,0,.271-.237,1.15-1.52,1.15-.677,0-1.123-.258-1.123-.676a.424.424,0,0,1,.4-.468.249.249,0,0,1,.272.259.412.412,0,0,1-.383.4,1.07,1.07,0,0,0,.837.293,1.491,1.491,0,0,0,.7-.154.7.7,0,0,0,.37-.557c0-.35-.447-.434-.593-.461a1.527,1.527,0,0,1-.788-.25.669.669,0,0,1-.244-.51,1.134,1.134,0,0,1,1.283-1.017c.425,0,.927.152.927.605a.349.349,0,0,1-.334.4.225.225,0,0,1-.231-.223.356.356,0,0,1,.293-.328A.8.8,0,0,0,668.265,433.582Z" transform="translate(-487.179 -331.91)"/>
    <path class="cls-2" d="M809.219,403.891a.887.887,0,0,0-.031.168c0,.179.28.179.648.179.189,0,.279,0,.279.11,0,.2-.12.2-.2.2-.209,0-.429-.02-.647-.02s-.429-.009-.638-.009c-.279,0-.987.029-1.266.029-.02,0-.139,0-.139-.109,0-.2.089-.2.239-.2.617,0,.806-.009.906-.328.04-.15.27-1.1.688-2.75H806.02l-.677,2.731a.884.884,0,0,0-.03.168c0,.179.279.179.647.179.189,0,.279,0,.279.11,0,.2-.12.2-.2.2-.21,0-.429-.02-.647-.02s-.429-.009-.638-.009c-.279,0-.987.029-1.266.029-.02,0-.139,0-.139-.109,0-.2.089-.2.268-.2.787,0,.808-.08.907-.468l1.335-5.35a.8.8,0,0,0,.04-.19c0-.128-.089-.14-.269-.16s-.359-.019-.378-.019c-.19,0-.279,0-.279-.11,0-.2.109-.2.189-.2.289,0,1,.029,1.285.029s1-.029,1.276-.029c.03,0,.139,0,.139.11,0,.2-.08.2-.339.2-.717,0-.747.1-.836.459l-.588,2.342h3.039l.6-2.432a.94.94,0,0,0,.04-.19c0-.128-.089-.14-.269-.16s-.359-.019-.378-.019c-.19,0-.279,0-.279-.11,0-.2.109-.2.189-.2.289,0,1,.029,1.285.029s1-.029,1.276-.029c.03,0,.139,0,.139.11,0,.2-.08.2-.339.2-.727,0-.747.1-.837.459Z" transform="translate(-487.179 -331.91)"/>
    <g>
      <path class="cls-2" d="M815.276,407.039a4.3,4.3,0,0,1-1.553-1.873,7.665,7.665,0,0,1-.031-6.148,4.347,4.347,0,0,1,1.584-1.944.09.09,0,0,1,.1.1c0,.029,0,.051-.129.17a6.514,6.514,0,0,0-1.6,4.713,6.6,6.6,0,0,0,1.564,4.662c.169.17.169.189.169.22A.09.09,0,0,1,815.276,407.039Z" transform="translate(-487.179 -331.91)"/>
      <path class="cls-2" d="M817.319,403.74a1.34,1.34,0,0,0,1.126.668,1.4,1.4,0,0,0,1.345-1.027c.02-.078.04-.139.13-.139a.115.115,0,0,1,.129.119,1.7,1.7,0,0,1-1.664,1.3,2.248,2.248,0,0,1-2.192-2.3,2.176,2.176,0,0,1,2.073-2.271,1.767,1.767,0,0,1,1.783,1.953c0,.209-.029.209-.249.209h-2.779A2.908,2.908,0,0,0,817.319,403.74Zm2.073-1.7c0-.389-.1-1.734-1.126-1.734-.339,0-1.176.25-1.236,1.734Z" transform="translate(-487.179 -331.91)"/>
    </g>
    <path class="cls-2" d="M822.452,401.443a1.433,1.433,0,0,1-1.365,1.545c-.568,0-1.126-.279-1.126-.8a.459.459,0,1,1,.917,0,.462.462,0,0,1-.35.45,1.22,1.22,0,0,0,.538.129c.638,0,.728-.858.728-1.305v-3.947c0-.489-.09-.557-.856-.557v-.311l1.514-.109Zm-.528-6.107a.529.529,0,1,1,.528-.527A.531.531,0,0,1,821.924,395.336Z" transform="translate(-487.179 -331.91)"/>
    <g>
      <path class="cls-2" d="M826.47,401.008a.89.89,0,0,1-.886-.676,1.407,1.407,0,0,1-1.123.684c-.642,0-.864-.551-.864-1.11a3.229,3.229,0,0,1,.418-1.511,3.035,3.035,0,0,1,.265-.4.2.2,0,0,1,.16-.1.161.161,0,0,1,.147.161c0,.1-.719.781-.719,1.589a.723.723,0,0,0,.655.809,1.321,1.321,0,0,0,1-.564c0-.245.028-1,.383-1a.191.191,0,0,1,.182.209,2.56,2.56,0,0,1-.258.815.753.753,0,0,0,.711.537c.781,0,1.228-1,1.228-1.449,0-.475-.377-.524-.377-.754a.423.423,0,0,1,.355-.383c.286,0,.377.285.377.494C828.122,398.945,827.7,401.008,826.47,401.008Z" transform="translate(-487.179 -331.91)"/>
      <path class="cls-2" d="M831.107,400.389a.433.433,0,0,0-.028.16c0,.084.015.111.251.133.133.006.273.013.4.013.217,0,.287,0,.287.1,0,.152-.1.152-.161.152-.188,0-.4-.013-.586-.019s-.432-.008-.628-.008-.4.008-.6.008-.4.019-.6.019c-.1,0-.118-.076-.118-.1,0-.153.063-.153.314-.153.732,0,.753-.07.816-.328l.92-3.668a.6.6,0,0,0,.028-.146c0-.063-.007-.071-.217-.071H830.9c-1.06,0-1.29.071-1.7,1.186-.041.133-.056.168-.146.168s-.119-.07-.119-.1a.652.652,0,0,1,.036-.125l.439-1.234c.049-.147.063-.147.236-.147h4.289c.125,0,.209,0,.209.1l-.188,1.332c-.014.111-.027.174-.132.174-.07,0-.119-.035-.119-.106l.015-.076a3.581,3.581,0,0,0,.048-.564c0-.252-.014-.453-.328-.551a2.582,2.582,0,0,0-.781-.057c-.14,0-.384,0-.418.008-.153.014-.168.035-.217.237Z" transform="translate(-487.179 -331.91)"/>
    </g>
    <path class="cls-2" d="M835.32,399.869c-.716,0-.716.414-.716.418,0,.2.244.244.6.3.259.045.807.129.807.576,0,.205-.175.791-1.194.791-.145,0-.92,0-.92-.486a.329.329,0,0,1,.318-.36.2.2,0,0,1,.214.206.314.314,0,0,1-.259.3,1,1,0,0,0,.656.17c.916,0,.916-.514.916-.517,0-.254-.348-.309-.662-.36a1.25,1.25,0,0,1-.552-.164.431.431,0,0,1-.194-.351c0-.18.159-.692,1-.692.373,0,.766.1.766.438a.278.278,0,0,1-.264.308.179.179,0,0,1-.188-.179.257.257,0,0,1,.2-.248A.754.754,0,0,0,835.32,399.869Z" transform="translate(-487.179 -331.91)"/>
    <path class="cls-2" d="M840.018,405.1a4.348,4.348,0,0,1-1.584,1.943.094.094,0,0,1-.1-.1c0-.031,0-.05.129-.169a6.538,6.538,0,0,0,1.6-4.713,6.469,6.469,0,0,0-1.545-4.655c-.188-.177-.188-.2-.188-.228a.093.093,0,0,1,.1-.1,4.312,4.312,0,0,1,1.553,1.873,7.668,7.668,0,0,1,.031,6.149Z" transform="translate(-487.179 -331.91)"/>
    <path class="cls-2" d="M846.853,397.582c.059-.1.1-.168.258-.168s.17.039.19.238l.608,6.227c.029.289.029.359.648.359.129,0,.228,0,.228.11,0,.2-.119.2-.179.2-.249,0-.877-.029-1.126-.029-.408,0-.836.029-1.246.029-.019,0-.138,0-.138-.109,0-.2.1-.2.238-.2.2,0,.718-.029.718-.328,0-.1-.14-1.455-.159-1.664h-2.5l-.758,1.275a.777.777,0,0,0-.139.37c0,.248.238.328.468.347.07,0,.159.01.159.119,0,.19-.129.19-.188.19-.32,0-.668-.029-1-.029-.279,0-.588.029-.857.029a.116.116,0,0,1-.13-.109c0-.19.09-.19.209-.2a1.409,1.409,0,0,0,1.226-.836Zm.009,4.356-.318-3.29-1.963,3.29Z" transform="translate(-487.179 -331.91)"/>
    <path class="cls-2" d="M850.444,403.74a1.34,1.34,0,0,0,1.126.668,1.4,1.4,0,0,0,1.345-1.027c.02-.078.04-.139.13-.139a.115.115,0,0,1,.129.119,1.7,1.7,0,0,1-1.664,1.3,2.248,2.248,0,0,1-2.192-2.3,2.176,2.176,0,0,1,2.073-2.271,1.767,1.767,0,0,1,1.783,1.953c0,.209-.029.209-.249.209h-2.779A2.908,2.908,0,0,0,850.444,403.74Zm2.073-1.7c0-.389-.1-1.734-1.126-1.734-.339,0-1.176.25-1.236,1.734Z" transform="translate(-487.179 -331.91)"/>
    <path class="cls-2" d="M855.569,401.443a1.433,1.433,0,0,1-1.365,1.545c-.568,0-1.126-.279-1.126-.8a.459.459,0,1,1,.917,0,.463.463,0,0,1-.349.45,1.214,1.214,0,0,0,.538.129c.637,0,.727-.858.727-1.305v-3.947c0-.489-.09-.557-.856-.557v-.311l1.514-.109Zm-.528-6.107a.529.529,0,1,1,.528-.527A.531.531,0,0,1,855.041,395.336Z" transform="translate(-487.179 -331.91)"/>
    <path class="cls-2" d="M859.621,397.863a1.4,1.4,0,0,1,1.492,1.291,2.268,2.268,0,0,1-2.287,1.875l-.293,1.172c-.035.147-.042.168-.146.168-.021,0-.112,0-.112-.084,0-.021.063-.279.147-.607.056-.217.1-.44.16-.655a1.4,1.4,0,0,1-1.492-1.291,2.254,2.254,0,0,1,2.287-1.875l.4-1.6c.029-.119.036-.155.14-.155.035,0,.118,0,.118.092Zm-.3.2a1.846,1.846,0,0,0-1.722,1.793.971.971,0,0,0,1.032.976Zm-.446,2.769a1.853,1.853,0,0,0,1.729-1.793.967.967,0,0,0-1.039-.976Z" transform="translate(-487.179 -331.91)"/>
    <path class="cls-2" d="M863.288,403.74a1.34,1.34,0,0,0,1.126.668,1.4,1.4,0,0,0,1.345-1.027c.019-.078.04-.139.13-.139a.116.116,0,0,1,.129.119,1.7,1.7,0,0,1-1.664,1.3,2.248,2.248,0,0,1-2.192-2.3,2.176,2.176,0,0,1,2.072-2.271,1.768,1.768,0,0,1,1.784,1.953c0,.209-.03.209-.249.209h-2.78A2.9,2.9,0,0,0,863.288,403.74Zm2.072-1.7c0-.389-.1-1.734-1.126-1.734-.338,0-1.175.25-1.235,1.734Z" transform="translate(-487.179 -331.91)"/>
    <path class="cls-2" d="M868.3,401.443a1.433,1.433,0,0,1-1.365,1.545c-.569,0-1.126-.279-1.126-.8a.459.459,0,1,1,.917,0,.463.463,0,0,1-.35.45,1.217,1.217,0,0,0,.538.129c.638,0,.728-.858.728-1.305v-3.947c0-.489-.09-.557-.857-.557v-.311l1.515-.109Zm-.528-6.107a.529.529,0,1,1,.528-.527A.531.531,0,0,1,867.768,395.336Z" transform="translate(-487.179 -331.91)"/>
    <g>
      <path class="cls-2" d="M872.431,401.008a.89.89,0,0,1-.886-.676,1.407,1.407,0,0,1-1.123.684c-.642,0-.864-.551-.864-1.11a3.217,3.217,0,0,1,.418-1.511,3.035,3.035,0,0,1,.265-.4.2.2,0,0,1,.16-.1.161.161,0,0,1,.147.161c0,.1-.719.781-.719,1.589a.723.723,0,0,0,.655.809,1.323,1.323,0,0,0,1-.564c0-.245.028-1,.383-1a.191.191,0,0,1,.182.209,2.56,2.56,0,0,1-.258.815.753.753,0,0,0,.711.537c.781,0,1.228-1,1.228-1.449,0-.475-.377-.524-.377-.754a.423.423,0,0,1,.355-.383c.286,0,.377.285.377.494C874.083,398.945,873.657,401.008,872.431,401.008Z" transform="translate(-487.179 -331.91)"/>
      <path class="cls-2" d="M875.813,400.193a1.972,1.972,0,0,0-.042.286c0,.251.1.341.245.341.382,0,.738-.39.933-.83.057-.119.064-.133.147-.133.021,0,.112,0,.112.092s-.439,1.067-1.214,1.067a.688.688,0,0,1-.746-.662,3.671,3.671,0,0,1,.1-.516l.411-1.647H875.1c-.125,0-.209,0-.209-.1,0-.155.09-.155.222-.155h.712c.307-1.212.216-.876.265-1.052s.153-.3.328-.3a.223.223,0,0,1,.236.223.622.622,0,0,1-.02.1l-.258,1.031h.662c.119,0,.209,0,.209.1,0,.154-.09.154-.223.154h-.711Z" transform="translate(-487.179 -331.91)"/>
    </g>
    <g>
      <path class="cls-2" d="M812.589,416.572v.311h-1.136v3.207c0,.359.021.469.758.469h.209v.308c-.4-.029-.867-.029-1.266-.029-.279,0-.747.019-1.135.029v-.308c.668,0,.777,0,.777-.448v-3.228h-.787v-.311h.787v-1.144a1.543,1.543,0,0,1,1.544-1.584.807.807,0,0,1,.9.7.434.434,0,0,1-.867.01.434.434,0,0,1,.3-.418.8.8,0,0,0-.329-.07c-.439,0-.916.478-.916,1.355v1.154Z" transform="translate(-487.179 -331.91)"/>
      <path class="cls-2" d="M815.16,420.977a2.223,2.223,0,0,1-2.2-2.241,2.21,2.21,0,1,1,4.414,0A2.22,2.22,0,0,1,815.16,420.977Zm1.165-.987a3.01,3.01,0,0,0,.22-1.334,2.734,2.734,0,0,0-.259-1.385,1.305,1.305,0,0,0-1.126-.648,1.338,1.338,0,0,0-1.137.668,2.869,2.869,0,0,0-.238,1.365,2.967,2.967,0,0,0,.249,1.4,1.3,1.3,0,0,0,1.136.668A1.285,1.285,0,0,0,816.325,419.99Z" transform="translate(-487.179 -331.91)"/>
    </g>
    <path class="cls-2" d="M820.608,416.463a.68.68,0,0,1,.738.609.418.418,0,0,1-.429.438.414.414,0,0,1-.429-.428.431.431,0,0,1,.23-.389.28.28,0,0,0-.11-.009c-.757,0-1.175.886-1.175,1.873v1.533c0,.359.019.469.756.469h.21v.308c-.4-.029-.867-.029-1.265-.029-.28,0-.747.019-1.136.029v-.308c.667,0,.777,0,.777-.448v-2.672c0-.488-.08-.556-.777-.556v-.311l1.385-.109v1.1A1.4,1.4,0,0,1,820.608,416.463Z" transform="translate(-487.179 -331.91)"/>
    <path class="cls-2" d="M826.5,423c0,.18,0,.359-.2.359s-.2-.179-.2-.359v-9.246c0-.18,0-.359.2-.359s.2.179.2.359Z" transform="translate(-487.179 -331.91)"/>
    <path class="cls-2" d="M833.09,419.623c-.359.746-.837,1.354-1.614,1.354a1.123,1.123,0,0,1-1.1-1.045,1.894,1.894,0,0,1-1.534,1.045c-.818,0-1.047-.737-1.047-1.424a5.569,5.569,0,0,1,.888-2.83c.059-.09.128-.219.258-.219a.184.184,0,0,1,.19.189,4.955,4.955,0,0,0-1.017,2.42c0,.559.209,1.147.867,1.147a1.712,1.712,0,0,0,1.355-.916,3.67,3.67,0,0,1,.229-1.207.282.282,0,0,1,.269-.168c.13,0,.18.1.18.219a4.541,4.541,0,0,1-.339,1.175.941.941,0,0,0,.967.9,1.471,1.471,0,0,0,1.135-.768,2.818,2.818,0,0,0,.5-1.424,1.085,1.085,0,0,0-.348-.838.411.411,0,0,1-.15-.3.548.548,0,0,1,.529-.469c.218,0,.4.25.4.7A8.2,8.2,0,0,1,833.09,419.623Z" transform="translate(-487.179 -331.91)"/>
    <path class="cls-2" d="M835.857,423c0,.18,0,.359-.2.359s-.2-.179-.2-.359v-9.246c0-.18,0-.359.2-.359s.2.179.2.359Z" transform="translate(-487.179 -331.91)"/>
    <g>
      <path class="cls-2" d="M841.291,418.377l5.231,2.471c.121.06.19.109.19.218a.2.2,0,0,1-.2.2c-.031,0-.05,0-.18-.069l-5.52-2.6c-.11-.049-.189-.1-.189-.219s.079-.17.189-.219l5.52-2.6c.13-.071.149-.071.18-.071a.2.2,0,0,1,.2.2c0,.111-.069.16-.19.22Z" transform="translate(-487.179 -331.91)"/>
      <path class="cls-2" d="M852.319,419.354c-.129.5-.129.517-.268.976-.119.369-.2.647-.5.647a.27.27,0,0,1-.289-.268c0-.07,0-.09.08-.24a21.013,21.013,0,0,0,1.275-3.319h-.568a1.4,1.4,0,0,0-1.266.768c-.059.08-.079.119-.159.119-.12,0-.12-.09-.12-.1a3.608,3.608,0,0,1,.608-.9,1.267,1.267,0,0,1,1.036-.469h3.338c.19,0,.4,0,.4.241,0,.337-.359.337-.489.337h-1.135a7.719,7.719,0,0,0-.18,1.586,4.281,4.281,0,0,0,.289,1.643.432.432,0,0,1,.061.221.42.42,0,0,1-.41.377c-.149,0-.258-.059-.358-.5a3.124,3.124,0,0,1-.08-.756A10.964,10.964,0,0,1,854,417.15h-1.126Z" transform="translate(-487.179 -331.91)"/>
    </g>
    <g>
      <path class="cls-2" d="M857.2,423.119c-.06.17-.09.24-.22.24a.2.2,0,0,1-.2-.2.53.53,0,0,1,.05-.18l3.458-9.5a.183.183,0,0,1,.169-.089.2.2,0,0,1,.2.2.522.522,0,0,1-.05.179Z" transform="translate(-487.179 -331.91)"/>
      <path class="cls-2" d="M864.205,420.111a.864.864,0,0,0-.04.209c0,.159.08.19.368.219.26.02.389.02.638.02s.339,0,.339.109c0,.2-.119.2-.219.2-.279,0-.578-.019-.867-.019-.269,0-.548-.01-.827-.01s-.568.01-.847.01-.548.019-.817.019c-.06,0-.169,0-.169-.119,0-.189.059-.189.418-.189,1.066,0,1.1-.11,1.186-.479l1.335-5.32a1,1,0,0,0,.04-.209c0-.08,0-.119-.279-.119h-.389c-1.474,0-1.733.177-2.271,1.722-.06.16-.071.209-.17.209a.112.112,0,0,1-.119-.109,1.348,1.348,0,0,1,.059-.18l.6-1.752c.07-.189.08-.2.319-.2h5.53c.169,0,.269,0,.269.111a1.2,1.2,0,0,1-.019.168l-.27,1.735c-.02.15-.04.228-.149.228a.116.116,0,0,1-.12-.129,1.468,1.468,0,0,1,.03-.189,7.392,7.392,0,0,0,.08-.8c0-.777-.448-.816-1.455-.816a5.713,5.713,0,0,0-.628.019c-.119.029-.159.09-.229.369Z" transform="translate(-487.179 -331.91)"/>
    </g>
    <path class="cls-2" d="M869.507,419.418a1.083,1.083,0,0,0-.551.133.592.592,0,0,0-.278.445c0,.154.125.3.383.35.042.013.216.041.279.054.258.049.962.174.962.817,0,.271-.238,1.15-1.52,1.15-.677,0-1.123-.258-1.123-.676a.424.424,0,0,1,.4-.468.25.25,0,0,1,.273.259.413.413,0,0,1-.384.4,1.07,1.07,0,0,0,.837.293,1.491,1.491,0,0,0,.7-.154.7.7,0,0,0,.369-.557c0-.35-.446-.434-.592-.461a1.527,1.527,0,0,1-.788-.25.669.669,0,0,1-.244-.51,1.133,1.133,0,0,1,1.283-1.017c.425,0,.927.152.927.6a.349.349,0,0,1-.335.4.224.224,0,0,1-.229-.223.355.355,0,0,1,.293-.328A.8.8,0,0,0,869.507,419.418Z" transform="translate(-487.179 -331.91)"/>
    <polyline points="297.898 18.164 300.165 22.699 302.433 18.164 300.165 19.297"/>
    <line class="cls-1" x1="300.165" y1="19.297" x2="300.165" y2="12.069"/>
    <path class="cls-2" d="M769.184,338.556a8.951,8.951,0,0,1-.558,1.9c-.18.379-.578.967-1.126.967a.769.769,0,0,1-.847-.688.571.571,0,0,1,.548-.6.343.343,0,0,1,.368.348.539.539,0,0,1-.548.538.713.713,0,0,0,.479.18c.519,0,.688-.907.867-1.874l.747-3.935h-.657c-.189,0-.279,0-.279-.12,0-.189.109-.189.3-.189h.687c.239-1.256.269-1.355.329-1.565.3-.986.927-1.165,1.265-1.165.409,0,.867.229.867.687a.571.571,0,0,1-.548.6.346.346,0,0,1-.369-.349.552.552,0,0,1,.538-.538.731.731,0,0,0-.488-.179.541.541,0,0,0-.468.339,9.462,9.462,0,0,0-.239,1.036l-.209,1.136h.827c.169,0,.269,0,.269.109,0,.2-.1.2-.3.2h-.857Z" transform="translate(-487.179 -331.91)"/>
    <path class="cls-2" d="M773.382,337.949a1.08,1.08,0,0,0-.551.132.6.6,0,0,0-.278.446c0,.154.125.3.383.349.042.014.216.042.279.056.258.048.962.174.962.816,0,.272-.238,1.15-1.52,1.15-.677,0-1.123-.258-1.123-.676a.422.422,0,0,1,.4-.467.249.249,0,0,1,.273.258.413.413,0,0,1-.384.4,1.07,1.07,0,0,0,.837.293,1.5,1.5,0,0,0,.7-.153.706.706,0,0,0,.369-.558c0-.349-.446-.432-.592-.46a1.525,1.525,0,0,1-.788-.251.669.669,0,0,1-.244-.51,1.134,1.134,0,0,1,1.283-1.018c.425,0,.927.154.927.607a.347.347,0,0,1-.335.4.223.223,0,0,1-.229-.223.357.357,0,0,1,.293-.327A.807.807,0,0,0,773.382,337.949Z" transform="translate(-487.179 -331.91)"/>
    <g>
      <path class="cls-2" d="M778.9,336.125c-.149,0-.338,0-.338-.2s.189-.2.329-.2h5.968c.14,0,.329,0,.329.2s-.189.2-.338.2Zm-.009,1.933c-.14,0-.329,0-.329-.2s.189-.2.338-.2h5.95c.149,0,.338,0,.338.2s-.189.2-.329.2Z" transform="translate(-487.179 -331.91)"/>
      <path class="cls-2" d="M791.49,338.6c0,.369.03.478.927.478h.318v.309c-.348-.029-1.215-.029-1.614-.029s-1.266,0-1.614.029v-.309h.319c.9,0,.927-.119.927-.478v-5.161a2.99,2.99,0,0,1-1.306.259v-.309a2.461,2.461,0,0,0,1.814-.638c.229,0,.229.02.229.259Z" transform="translate(-487.179 -331.91)"/>
    </g>
    <g>
      <path class="cls-2" d="M794.568,341.635c-.06.17-.089.24-.219.24a.2.2,0,0,1-.2-.2.528.528,0,0,1,.05-.179l3.458-9.5a.185.185,0,0,1,.169-.09.2.2,0,0,1,.2.2.538.538,0,0,1-.049.18Z" transform="translate(-487.179 -331.91)"/>
      <path class="cls-2" d="M801.572,338.626a.856.856,0,0,0-.04.209c0,.16.08.189.368.22.26.019.389.019.638.019s.339,0,.339.11c0,.2-.119.2-.219.2-.279,0-.578-.02-.867-.02-.269,0-.548-.009-.827-.009s-.568.009-.847.009-.548.02-.817.02c-.06,0-.169,0-.169-.119,0-.19.059-.19.418-.19,1.066,0,1.1-.109,1.186-.478l1.335-5.321a.958.958,0,0,0,.04-.209c0-.08,0-.119-.279-.119h-.389c-1.474,0-1.733.179-2.271,1.723-.06.16-.07.209-.17.209a.112.112,0,0,1-.119-.109,1.338,1.338,0,0,1,.059-.179l.6-1.754c.07-.19.08-.2.319-.2h5.531c.169,0,.268,0,.268.109a1.244,1.244,0,0,1-.019.17l-.27,1.733c-.019.15-.04.229-.149.229a.116.116,0,0,1-.119-.129,1.455,1.455,0,0,1,.029-.189,7.344,7.344,0,0,0,.08-.8c0-.778-.448-.817-1.455-.817a5.713,5.713,0,0,0-.628.019c-.119.031-.159.09-.229.369Z" transform="translate(-487.179 -331.91)"/>
    </g>
    <path class="cls-2" d="M806.866,337.949a1.08,1.08,0,0,0-.551.132.6.6,0,0,0-.278.446c0,.154.125.3.383.349.042.014.217.042.279.056.258.048.962.174.962.816,0,.272-.237,1.15-1.519,1.15-.677,0-1.123-.258-1.123-.676a.422.422,0,0,1,.4-.467.249.249,0,0,1,.272.258.412.412,0,0,1-.383.4,1.067,1.067,0,0,0,.836.293,1.505,1.505,0,0,0,.7-.153.706.706,0,0,0,.369-.558c0-.349-.446-.432-.593-.46a1.532,1.532,0,0,1-.788-.251.668.668,0,0,1-.243-.51,1.133,1.133,0,0,1,1.282-1.018c.426,0,.928.154.928.607a.347.347,0,0,1-.335.4.224.224,0,0,1-.23-.223.358.358,0,0,1,.293-.327A.806.806,0,0,0,806.866,337.949Z" transform="translate(-487.179 -331.91)"/>
    <g>
      <path class="cls-2" d="M778.922,364.4c0,.359.029.468.816.468H780v.309c-.349-.03-1.137-.03-1.524-.03s-1.166,0-1.515.03v-.309h.259c.787,0,.817-.109.817-.468v-5.251c0-.359-.03-.468-.817-.468h-.259v-.309c.349.03,1.136.03,1.524.03s1.166,0,1.515-.03v.309h-.26c-.787,0-.816.109-.816.468Z" transform="translate(-487.179 -331.91)"/>
      <path class="cls-2" d="M782.737,365.29a2.192,2.192,0,0,1-2.112-2.252,2.252,2.252,0,0,1,2.222-2.262,1.593,1.593,0,0,1,1.256.618v-2.152c0-.489-.081-.558-.778-.558v-.309l1.435-.11v6.048c0,.489.08.558.777.558v.309l-1.465.11v-.658A1.682,1.682,0,0,1,782.737,365.29Zm1.226-3.7a1.294,1.294,0,0,0-1.076-.6,1.369,1.369,0,0,0-1.126.638,3.428,3.428,0,0,0-.02,2.8,1.238,1.238,0,0,0,1.046.638,1.387,1.387,0,0,0,1.176-.7.478.478,0,0,0,.109-.369v-2.042A.479.479,0,0,0,783.963,361.593Z" transform="translate(-487.179 -331.91)"/>
      <path class="cls-2" d="M787.23,364.373a1.34,1.34,0,0,0,1.126.668,1.4,1.4,0,0,0,1.345-1.027c.02-.079.04-.139.13-.139a.115.115,0,0,1,.129.12,1.7,1.7,0,0,1-1.664,1.3,2.25,2.25,0,0,1-2.192-2.3,2.178,2.178,0,0,1,2.073-2.272,1.767,1.767,0,0,1,1.783,1.953c0,.209-.029.209-.249.209h-2.779A2.91,2.91,0,0,0,787.23,364.373Zm2.073-1.7c0-.388-.1-1.733-1.126-1.733-.339,0-1.176.249-1.236,1.733Z" transform="translate(-487.179 -331.91)"/>
      <path class="cls-2" d="M792.271,365.29c-.627,0-1.593-.249-1.593-1.057a1.452,1.452,0,0,1,1-1.3,4.828,4.828,0,0,1,1.833-.358v-.369a1.128,1.128,0,0,0-1.056-1.275,1.4,1.4,0,0,0-1.076.458c.458.01.508.338.508.458a.459.459,0,1,1-.917-.01c0-.657.687-1.126,1.5-1.126a1.9,1.9,0,0,1,1.365.548,1.476,1.476,0,0,1,.358,1.176v1.993c0,.05.04.5.369.5.11,0,.359-.06.359-.638v-.558h.249v.558a.846.846,0,0,1-.817.947.834.834,0,0,1-.777-.817A1.379,1.379,0,0,1,792.271,365.29Zm-.827-1.066a.859.859,0,0,0,.9.847,1.2,1.2,0,0,0,1.166-1.286v-1C791.863,362.849,791.444,363.676,791.444,364.224Z" transform="translate(-487.179 -331.91)"/>
    </g>
    <path class="cls-2" d="M797.037,364.423c0,.448.109.448.777.448v.309c-.369-.01-.857-.03-1.106-.03s-.777.02-1.105.03v-.309c.667,0,.777,0,.777-.448v-5.181c0-.489-.08-.558-.777-.558v-.309l1.434-.11Z" transform="translate(-487.179 -331.91)"/>
    <g>
      <path class="cls-2" d="M776.237,368.93a3.27,3.27,0,0,1,3.05,3.457,3.2,3.2,0,0,1-3.05,3.348h-3.646v-.309h.239c.768,0,.787-.11.787-.468v-5.251c0-.359-.019-.469-.787-.469h-.239v-.308Zm-.268,6.5a2.183,2.183,0,0,0,1.773-.847,3.416,3.416,0,0,0,.548-2.192,3.858,3.858,0,0,0-.518-2.222,2.15,2.15,0,0,0-1.813-.927h-1c-.468,0-.487.07-.487.4v5.39c0,.329.019.4.487.4Z" transform="translate(-487.179 -331.91)"/>
      <path class="cls-2" d="M779.943,373.872v-.579h2.641v.579Z" transform="translate(-487.179 -331.91)"/>
      <path class="cls-2" d="M784.864,374.519c0,.169,0,1.076.668,1.076.368,0,.667-.378.667-1.116v-.548h.249v.569c0,.637-.278,1.344-.986,1.344a1.2,1.2,0,0,1-1.285-1.344v-2.75h-.847v-.22c.977-.04,1.275-1.106,1.285-1.923h.249v1.833h1.425v.31h-1.425Z" transform="translate(-487.179 -331.91)"/>
      <path class="cls-2" d="M789.478,375.844a2.224,2.224,0,0,1-2.2-2.241,2.21,2.21,0,1,1,4.414,0A2.219,2.219,0,0,1,789.478,375.844Zm1.165-.986a3.031,3.031,0,0,0,.219-1.335,2.743,2.743,0,0,0-.258-1.385,1.307,1.307,0,0,0-1.126-.648,1.336,1.336,0,0,0-1.137.668,2.867,2.867,0,0,0-.238,1.365,2.969,2.969,0,0,0,.249,1.4,1.3,1.3,0,0,0,1.135.667A1.284,1.284,0,0,0,790.643,374.858Z" transform="translate(-487.179 -331.91)"/>
      <path class="cls-2" d="M792.077,373.872v-.579h2.641v.579Z" transform="translate(-487.179 -331.91)"/>
      <path class="cls-2" d="M799.3,368.71a2.439,2.439,0,0,1,1.833.857l.5-.737c.079-.12.119-.12.159-.12.109,0,.109.07.109.239v2.362c0,.209,0,.239-.159.239-.139,0-.139-.03-.159-.17-.2-1.454-1.087-2.361-2.173-2.361-.607,0-2.551.339-2.551,3.318s1.954,3.308,2.561,3.308a2.256,2.256,0,0,0,2.232-2.242c.01-.1.01-.159.119-.159.13,0,.13.069.13.169a2.6,2.6,0,0,1-2.6,2.541,3.625,3.625,0,0,1,0-7.244Z" transform="translate(-487.179 -331.91)"/>
    </g>
    <g>
      <path class="cls-2" d="M769.666,379.281a2.439,2.439,0,0,1,1.833.857l.5-.738c.079-.119.119-.119.159-.119.11,0,.11.069.11.239v2.361c0,.209,0,.239-.16.239-.139,0-.139-.03-.159-.169-.2-1.455-1.087-2.362-2.173-2.362-.607,0-2.55.339-2.55,3.318s1.953,3.308,2.56,3.308a2.257,2.257,0,0,0,2.233-2.241c.009-.1.009-.16.119-.16.13,0,.13.07.13.169a2.605,2.605,0,0,1-2.6,2.54,3.624,3.624,0,0,1,0-7.242Z" transform="translate(-487.179 -331.91)"/>
      <path class="cls-2" d="M775.325,386.414a2.223,2.223,0,0,1-2.2-2.24,2.21,2.21,0,1,1,4.414,0A2.22,2.22,0,0,1,775.325,386.414Zm1.165-.986a3.015,3.015,0,0,0,.22-1.334,2.738,2.738,0,0,0-.259-1.386,1.306,1.306,0,0,0-1.126-.647,1.339,1.339,0,0,0-1.137.667,2.873,2.873,0,0,0-.238,1.366,2.963,2.963,0,0,0,.249,1.4,1.3,1.3,0,0,0,1.136.668A1.284,1.284,0,0,0,776.49,385.428Z" transform="translate(-487.179 -331.91)"/>
    </g>
    <g>
      <path class="cls-2" d="M778.2,382.32v-.309l1.4-.11v1.046a1.573,1.573,0,0,1,1.475-1.046,1.333,1.333,0,0,1,1.047.369c.309.358.309.668.309,1.524v1.9c.009.3.258.3.777.3v.309c-.339-.01-.858-.03-1.116-.03s-.778.02-1.126.03V386c.668,0,.777,0,.777-.447v-2.323c0-.568-.109-1.106-.737-1.106a1.456,1.456,0,0,0-1.346,1.594v1.835c0,.447.11.447.777.447v.309c-.339-.01-.856-.03-1.116-.03s-.776.02-1.126.03V386c.668,0,.778,0,.778-.447v-2.672C778.979,382.389,778.9,382.32,778.2,382.32Z" transform="translate(-487.179 -331.91)"/>
      <path class="cls-2" d="M786,386.225c-.04.1-.08.189-.209.189s-.149-.049-.21-.189l-1.435-3.537c-.129-.309-.169-.368-.8-.368v-.309c.3.02.7.03.966.03.229,0,.787-.02,1.086-.03v.309c-.179,0-.568,0-.568.259,0,.02,0,.04.059.169l1.117,2.779,1.016-2.54a.6.6,0,0,0,.06-.239c0-.189-.11-.418-.479-.428v-.309c.17.01.628.03.868.03s.518-.01.747-.03v.309a.9.9,0,0,0-.916.667Z" transform="translate(-487.179 -331.91)"/>
    </g>
    <g>
      <path class="cls-2" d="M789.6,385.5a1.339,1.339,0,0,0,1.126.668,1.4,1.4,0,0,0,1.344-1.027c.02-.078.04-.139.13-.139a.115.115,0,0,1,.129.119,1.7,1.7,0,0,1-1.664,1.295,2.248,2.248,0,0,1-2.191-2.3,2.177,2.177,0,0,1,2.072-2.272,1.767,1.767,0,0,1,1.783,1.953c0,.21-.029.21-.249.21H789.3A2.9,2.9,0,0,0,789.6,385.5Zm2.072-1.7c0-.388-.1-1.733-1.126-1.733-.339,0-1.176.249-1.235,1.733Z" transform="translate(-487.179 -331.91)"/>
      <path class="cls-2" d="M795.5,381.9a.679.679,0,0,1,.737.608.418.418,0,0,1-.428.438.413.413,0,0,1-.429-.428.434.434,0,0,1,.229-.389c-.019-.01-.04-.01-.109-.01-.758,0-1.176.887-1.176,1.874v1.533c0,.36.02.469.757.469h.21v.309c-.4-.03-.867-.03-1.266-.03-.279,0-.747.02-1.135.03V386c.667,0,.777,0,.777-.447v-2.672c0-.488-.08-.557-.777-.557v-.309l1.384-.11V383A1.4,1.4,0,0,1,795.5,381.9Z" transform="translate(-487.179 -331.91)"/>
      <path class="cls-2" d="M798.218,385.09c0,.17,0,1.076.668,1.076.368,0,.667-.379.667-1.117V384.5h.249v.568c0,.637-.279,1.344-.987,1.344a1.2,1.2,0,0,1-1.285-1.344v-2.75h-.846V382.1c.976-.04,1.275-1.107,1.285-1.924h.249v1.834h1.425v.309h-1.425Z" transform="translate(-487.179 -331.91)"/>
      <path class="cls-2" d="M802.831,386.414a2.223,2.223,0,0,1-2.2-2.24,2.21,2.21,0,1,1,4.414,0A2.22,2.22,0,0,1,802.831,386.414Zm1.165-.986a3.015,3.015,0,0,0,.22-1.334,2.738,2.738,0,0,0-.259-1.386,1.306,1.306,0,0,0-1.126-.647,1.339,1.339,0,0,0-1.137.667,2.873,2.873,0,0,0-.238,1.366,2.963,2.963,0,0,0,.249,1.4,1.3,1.3,0,0,0,1.136.668A1.284,1.284,0,0,0,804,385.428Z" transform="translate(-487.179 -331.91)"/>
    </g>
    <path class="cls-2" d="M808.366,381.9a.68.68,0,0,1,.738.608.419.419,0,0,1-.429.438.413.413,0,0,1-.429-.428.433.433,0,0,1,.23-.389.253.253,0,0,0-.11-.01c-.758,0-1.176.887-1.176,1.874v1.533c0,.36.02.469.757.469h.21v.309c-.4-.03-.867-.03-1.265-.03-.28,0-.747.02-1.136.03V386c.667,0,.777,0,.777-.447v-2.672c0-.488-.08-.557-.777-.557v-.309l1.385-.11V383A1.4,1.4,0,0,1,808.366,381.9Z" transform="translate(-487.179 -331.91)"/>
    <polygon class="cls-1" points="275.362 40.416 275.362 22.699 324.968 22.699 324.968 58.132 275.362 58.132 275.362 40.416"/>
    <polyline points="370.039 42.683 374.574 40.416 370.039 38.148 371.173 40.416"/>
    <line class="cls-1" x1="324.968" y1="40.416" x2="371.173" y2="40.416"/>
    <path class="cls-2" d="M836.128,367.713a2.627,2.627,0,0,1-2.331,2.033.943.943,0,0,1-1.057-.867.574.574,0,0,1,.559-.647.339.339,0,0,1,.368.349.541.541,0,0,1-.2.408.573.573,0,0,1-.429.119.806.806,0,0,0,.758.419,1.427,1.427,0,0,0,1.1-.628,3.823,3.823,0,0,0,.647-1.534,1.4,1.4,0,0,1-1.006.448,1.111,1.111,0,0,1-1.216-1.186,6.59,6.59,0,0,1,.578-2.092,2.1,2.1,0,0,0,.169-.7c0-.318-.169-.318-.249-.318-.338,0-.737.3-1,1.235-.05.16-.061.18-.161.18-.019,0-.119,0-.119-.1s.368-1.535,1.316-1.535a.79.79,0,0,1,.816.818,1.789,1.789,0,0,1-.2.717,5.94,5.94,0,0,0-.508,1.953c0,.369.109.807.618.807a1.385,1.385,0,0,0,1.125-.847l.449-1.793c.06-.269.129-.538.2-.8.039-.179.119-.488.139-.538a.433.433,0,0,1,.349-.209.267.267,0,0,1,.289.269.622.622,0,0,1-.04.229Z" transform="translate(-487.179 -331.91)"/>
    <path class="cls-2" d="M840.714,370.2a4.3,4.3,0,0,1-1.554-1.874,7.668,7.668,0,0,1-.03-6.147,4.34,4.34,0,0,1,1.584-1.944.09.09,0,0,1,.1.1c0,.03,0,.05-.128.17a6.514,6.514,0,0,0-1.6,4.712,6.6,6.6,0,0,0,1.565,4.664c.168.169.168.189.168.219A.089.089,0,0,1,840.714,370.2Z" transform="translate(-487.179 -331.91)"/>
    <path class="cls-2" d="M842.675,366.657a1.6,1.6,0,0,0-.06.479c0,.328.1.458.309.458.339,0,.867-.239,1.3-1.275.05-.11.06-.14.149-.14.04,0,.12,0,.12.1,0,.079-.568,1.534-1.585,1.534a.879.879,0,0,1-.916-.917,25.814,25.814,0,0,1,.757-3.178h-.877c-.2,0-.278,0-.278-.119,0-.19.1-.19.3-.19h.936l.389-1.584a.425.425,0,0,1,.4-.359.262.262,0,0,1,.289.269c0,.06-.049.259-.409,1.674h.877c.18,0,.279,0,.279.11,0,.2-.1.2-.3.2h-.937Z" transform="translate(-487.179 -331.91)"/>
    <path class="cls-2" d="M847.213,368.251a4.34,4.34,0,0,1-1.584,1.944.094.094,0,0,1-.1-.1c0-.03,0-.05.129-.169a6.533,6.533,0,0,0,1.605-4.714,6.463,6.463,0,0,0-1.545-4.652c-.189-.18-.189-.2-.189-.23a.094.094,0,0,1,.1-.1,4.3,4.3,0,0,1,1.554,1.874,7.668,7.668,0,0,1,.03,6.147Z" transform="translate(-487.179 -331.91)"/>
  </g>
</svg>
