<svg id="Layer_1" data-name="Layer 1" xmlns="http://www.w3.org/2000/svg" viewBox="0 0 195.334 80.2">
  <defs>
    <style>
      .cls-1 {
        fill: none;
        stroke: #000;
        stroke-miterlimit: 10;
        stroke-width: 0.85px;
      }

      .cls-2 {
        fill: #1d1d1b;
      }
    </style>
  </defs>
  <title>transientH</title>
  <g>
    <polyline points="168.048 74.559 172.583 72.291 168.048 70.024 169.181 72.291"/>
    <line class="cls-1" x1="151.323" y1="72.291" x2="169.181" y2="72.291"/>
    <path class="cls-2" d="M767.886,418.721a2.627,2.627,0,0,1-2.331,2.033.943.943,0,0,1-1.057-.867.574.574,0,0,1,.559-.647.339.339,0,0,1,.368.348.541.541,0,0,1-.2.408.566.566,0,0,1-.429.121.8.8,0,0,0,.758.418,1.422,1.422,0,0,0,1.1-.629,3.8,3.8,0,0,0,.648-1.533,1.4,1.4,0,0,1-1.006.447,1.111,1.111,0,0,1-1.216-1.185,6.6,6.6,0,0,1,.578-2.092,2.1,2.1,0,0,0,.169-.7c0-.319-.169-.319-.249-.319-.339,0-.737.3-1.006,1.235-.049.16-.06.179-.16.179-.019,0-.119,0-.119-.1s.368-1.535,1.315-1.535a.79.79,0,0,1,.817.818,1.785,1.785,0,0,1-.2.717,5.934,5.934,0,0,0-.508,1.953c0,.369.109.807.618.807a1.384,1.384,0,0,0,1.125-.848l.449-1.793c.06-.27.129-.537.2-.8.04-.18.12-.488.14-.537a.433.433,0,0,1,.349-.211.267.267,0,0,1,.289.27.632.632,0,0,1-.04.23Z" transform="translate(-584.289 -343.91)"/>
    <path class="cls-2" d="M770.457,421.2v-9.965h1.365v.4h-.967v9.168h.967v.4Z" transform="translate(-584.289 -343.91)"/>
    <path class="cls-2" d="M773.494,415.822a3.225,3.225,0,0,0,.159-.838c0-.328-.109-.457-.308-.457-.36,0-.559.477-.728,1.186-.059.219-.07.228-.17.228-.019,0-.119,0-.119-.1a5.1,5.1,0,0,1,.3-.967.869.869,0,0,1,.747-.568.9.9,0,0,1,.917.867,1.925,1.925,0,0,1,1.555-.867,1.017,1.017,0,0,1,1.145,1.066,9.044,9.044,0,0,1-.607,2.193,1.888,1.888,0,0,0-.18.707c0,.229.069.329.239.329.489,0,.817-.559,1.016-1.235.051-.15.051-.179.15-.179.03,0,.12,0,.12.1,0,.08-.37,1.533-1.306,1.533a.8.8,0,0,1-.817-.816,1.139,1.139,0,0,1,.1-.459,9.5,9.5,0,0,0,.648-2.32c0-.33-.09-.7-.539-.7a1.985,1.985,0,0,0-1.624,1.215c-.009.039-.089.328-.129.5-.05.229-.11.449-.169.668l-.22.9c-.06.25-.179.716-.19.738a.4.4,0,0,1-.368.277.267.267,0,0,1-.289-.267c0-.051.06-.28.09-.43Z" transform="translate(-584.289 -343.91)"/>
    <path class="cls-2" d="M779.623,421.2h-1.365v-.4h.967v-9.168h-.967v-.4h1.365Z" transform="translate(-584.289 -343.91)"/>
    <path class="cls-2" d="M586.989,349.739a3.86,3.86,0,0,0-.169.877c0,.339.159.658.548.658.319,0,1-.239,1.325-1.306.02-.07.04-.109.13-.109.03,0,.119,0,.119.1,0,.25-.568,1.535-1.594,1.535a1.1,1.1,0,0,1-1.076-.757,1.326,1.326,0,0,1-1.046.757c-.439,0-.937-.2-.937-.658a.567.567,0,0,1,.548-.578.342.342,0,0,1,.369.349.565.565,0,0,1-.469.538.958.958,0,0,0,.5.13c.439,0,.787-.419.947-1.037a14.471,14.471,0,0,0,.538-2.371c0-.578-.348-.668-.538-.668-.339,0-1,.25-1.335,1.306-.02.089-.05.109-.13.109-.02,0-.119,0-.119-.1,0-.249.568-1.535,1.6-1.535a1.1,1.1,0,0,1,1.076.757,1.291,1.291,0,0,1,1.046-.757c.339,0,.927.14.927.658a.556.556,0,0,1-.538.578.348.348,0,0,1-.379-.349.58.58,0,0,1,.479-.538.976.976,0,0,0-.5-.13c-.7,0-.926.917-.986,1.176Z" transform="translate(-584.289 -343.91)"/>
    <path class="cls-2" d="M590.816,353.875V343.91h1.366v.4h-.967v9.167h.967v.4Z" transform="translate(-584.289 -343.91)"/>
    <path class="cls-2" d="M593.853,348.494a3.2,3.2,0,0,0,.16-.837c0-.329-.11-.459-.309-.459-.359,0-.558.479-.727,1.186-.06.22-.07.229-.17.229-.02,0-.119,0-.119-.1a5.031,5.031,0,0,1,.3-.967.871.871,0,0,1,.747-.568.9.9,0,0,1,.917.867,1.928,1.928,0,0,1,1.555-.867,1.019,1.019,0,0,1,1.146,1.066,8.982,8.982,0,0,1-.608,2.192,1.9,1.9,0,0,0-.18.708c0,.229.07.329.24.329.488,0,.817-.558,1.016-1.236.05-.149.05-.179.149-.179.03,0,.12,0,.12.1,0,.08-.369,1.535-1.3,1.535a.8.8,0,0,1-.818-.817,1.154,1.154,0,0,1,.1-.459,9.454,9.454,0,0,0,.648-2.321c0-.329-.09-.7-.538-.7a1.981,1.981,0,0,0-1.624,1.216c-.01.04-.09.329-.13.5-.05.23-.109.449-.169.668l-.219.9c-.06.249-.18.717-.19.737a.408.408,0,0,1-.368.279.266.266,0,0,1-.289-.269c0-.05.06-.279.089-.429Z" transform="translate(-584.289 -343.91)"/>
    <path class="cls-2" d="M599.991,353.875h-1.366v-.4h.967v-9.167h-.967v-.4h1.366Z" transform="translate(-584.289 -343.91)"/>
    <polyline points="40.489 17.866 45.025 15.599 40.489 13.331 41.623 15.599"/>
    <line class="cls-1" x1="2.675" y1="15.599" x2="41.623" y2="15.599"/>
    <path class="cls-2" d="M642.976,362.157a.878.878,0,0,0-.039.21c0,.159.079.189.368.219.259.019.389.019.638.019s.339,0,.339.11c0,.2-.12.2-.219.2-.28,0-.579-.02-.868-.02-.269,0-.548-.01-.826-.01s-.568.01-.848.01-.547.02-.816.02c-.06,0-.17,0-.17-.12,0-.19.06-.19.419-.19,1.066,0,1.1-.109,1.185-.478l1.336-5.32a1.054,1.054,0,0,0,.039-.21c0-.079,0-.119-.279-.119h-.388c-1.475,0-1.734.179-2.272,1.724-.06.159-.07.209-.169.209a.113.113,0,0,1-.12-.11,1.255,1.255,0,0,1,.06-.179l.6-1.754c.069-.189.079-.2.319-.2h5.529c.17,0,.27,0,.27.109a1.1,1.1,0,0,1-.02.17l-.27,1.734c-.02.149-.039.229-.149.229a.117.117,0,0,1-.12-.13,1.468,1.468,0,0,1,.03-.189,7.344,7.344,0,0,0,.08-.8c0-.777-.448-.817-1.455-.817a5.4,5.4,0,0,0-.627.02c-.12.03-.16.089-.23.368Z" transform="translate(-584.289 -343.91)"/>
    <path class="cls-1" d="M629.314,359.509V345.336H657.66v28.346H629.314Zm84.869,0h14.343" transform="translate(-584.289 -343.91)"/>
    <polyline points="75.922 74.559 80.458 72.291 75.922 70.024 77.056 72.291"/>
    <path class="cls-1" d="M615.141,416.2h46.2m-45.864-56.353v56.693" transform="translate(-584.289 -343.91)"/>
    <polyline points="97.182 17.866 101.717 15.599 97.182 13.331 98.316 15.599"/>
    <line class="cls-1" x1="73.371" y1="15.599" x2="98.316" y2="15.599"/>
    <path class="cls-2" d="M699.492,362.157a.858.858,0,0,0-.04.21c0,.159.08.189.368.219.26.019.389.019.638.019s.339,0,.339.11c0,.2-.119.2-.219.2-.279,0-.578-.02-.867-.02-.269,0-.548-.01-.827-.01s-.568.01-.847.01-.548.02-.817.02c-.06,0-.169,0-.169-.12,0-.19.059-.19.418-.19,1.066,0,1.1-.109,1.186-.478l1.335-5.32a.981.981,0,0,0,.04-.21c0-.079,0-.119-.279-.119h-.389c-1.474,0-1.733.179-2.271,1.724-.06.159-.07.209-.17.209a.113.113,0,0,1-.119-.11,1.387,1.387,0,0,1,.059-.179l.6-1.754c.07-.189.08-.2.319-.2h5.531c.169,0,.268,0,.268.109a1.227,1.227,0,0,1-.019.17l-.27,1.734c-.019.149-.04.229-.149.229a.117.117,0,0,1-.119-.13,1.455,1.455,0,0,1,.029-.189,7.344,7.344,0,0,0,.08-.8c0-.777-.448-.817-1.455-.817a5.429,5.429,0,0,0-.628.02c-.119.03-.159.089-.229.368Z" transform="translate(-584.289 -343.91)"/>
    <polygon class="cls-1" points="101.547 15.599 101.547 1.426 129.893 1.426 129.893 29.772 101.547 29.772 101.547 15.599"/>
    <polyline points="85.106 32.153 87.374 36.688 89.642 32.153 87.374 33.287"/>
    <path class="cls-1" d="M671.663,359.339V377.2m7.315,10.551a7.257,7.257,0,1,0-7.257,7.257,7.259,7.259,0,0,0,7.257-7.257Zm-10.858-3.606,7.086,7.086m-7.086,0,7.086-7.086" transform="translate(-584.289 -343.91)"/>
    <polyline points="75.752 46.043 80.287 43.775 75.752 41.507 76.886 43.775"/>
    <line class="cls-1" x1="69.658" y1="43.775" x2="76.886" y2="43.775"/>
    <path class="cls-2" d="M648.5,390.1a.8.8,0,0,0,1.166-.965h.249l-.279,1.732h-3.7c0-.238,0-.258.11-.369l1.913-2.131a3.575,3.575,0,0,0,1.046-2.2c0-.816-.428-1.623-1.335-1.623a1.438,1.438,0,0,0-1.345,1.016.377.377,0,0,1,.129-.01.5.5,0,0,1,.529.517.524.524,0,1,1-1.047-.029,1.841,1.841,0,0,1,1.864-1.8,1.957,1.957,0,0,1,2.112,1.932c0,1-.6,1.535-2.152,2.91l-1.056,1.026Z" transform="translate(-584.289 -343.91)"/>
    <path class="cls-1" d="M678.978,416.068a7.257,7.257,0,1,0-7.257,7.257,7.259,7.259,0,0,0,7.257-7.257Zm-10.858.134h7.086m-3.543,3.543v-7.087" transform="translate(-584.289 -343.91)"/>
    <polyline points="85.276 60.669 87.544 65.205 89.812 60.669 87.544 61.803"/>
    <line class="cls-1" x1="87.544" y1="51.032" x2="87.544" y2="61.803"/>
    <polyline points="132.615 74.559 137.15 72.291 132.615 70.024 133.749 72.291"/>
    <line class="cls-1" x1="94.631" y1="72.291" x2="133.749" y2="72.291"/>
    <polyline points="142.309 61.01 144.577 65.545 146.845 61.01 144.577 62.143"/>
    <path class="cls-1" d="M728.866,359.849v46.2m6.752,10.375a7.257,7.257,0,1,0-7.257,7.257,7.259,7.259,0,0,0,7.257-7.257Zm-10.806.114H731.9m-3.543,3.543V413" transform="translate(-584.289 -343.91)"/>
  </g>
</svg>
