<svg id="Layer_1" data-name="Layer 1" xmlns="http://www.w3.org/2000/svg" xmlns:xlink="http://www.w3.org/1999/xlink" viewBox="0 0 344.781 298.843">
  <defs>
    <style>
      .cls-1, .cls-2, .cls-3, .cls-4, .cls-6 {
        fill: none;
      }

      .cls-2 {
        stroke: #fff;
      }

      .cls-2, .cls-3, .cls-4, .cls-6 {
        stroke-linejoin: round;
      }

      .cls-2, .cls-4 {
        stroke-width: 0.5px;
      }

      .cls-3, .cls-4, .cls-6 {
        stroke: #000;
      }

      .cls-3 {
        stroke-width: 0.333px;
        stroke-dasharray: 0.5 4;
      }

      .cls-5 {
        fill: #1d1d1b;
      }

      .cls-6 {
        stroke-width: 2px;
      }

      .cls-7 {
        clip-path: url(#clip-path);
      }
    </style>
    <clipPath id="clip-path" transform="translate(-512.971 -233.723)">
      <rect class="cls-1" x="526.667" y="249.667" width="325.917" height="256.917"/>
    </clipPath>
  </defs>
  <title>transientin</title>
  <g>
    <polyline class="cls-2" points="13.696 272.777 13.696 15.944 339.529 15.944 339.529 272.777 13.696 272.777"/>
    <path class="cls-3" d="M569.167,506.5V249.667m0,0h0M640,506.5V249.667m0,0h0M710.833,506.5V249.667m0,0h0M781.667,506.5V249.667m0,0h0M852.5,506.5V249.667m0,0h0M526.667,506.5H852.5m0,0h0M526.667,463.667H852.5m0,0h0M526.667,420.833H852.5m0,0h0m-325.833-42.75H852.5m0,0h0M526.667,335.25H852.5m0,0h0M526.667,292.417H852.5m0,0h0m-325.833-42.75H852.5m0,0h0" transform="translate(-512.971 -233.723)"/>
    <path class="cls-4" d="M526.667,249.667H852.5M526.667,506.5H852.5m0,0V249.667M526.667,506.5V249.667m0,256.833H852.5m-325.833,0V249.667m42.5,256.833v-3.333m0-253.5v3.25" transform="translate(-512.971 -233.723)"/>
    <path class="cls-5" d="M567.413,517.839a6,6,0,0,1,0-5.345,2.162,2.162,0,0,1,3.566,0,6.026,6.026,0,0,1,0,5.345,2.165,2.165,0,0,1-3.566,0Zm2.893-.557a6.3,6.3,0,0,0,0-4.231,1.193,1.193,0,0,0-1.114-.705,1.178,1.178,0,0,0-1.1.705,6.217,6.217,0,0,0,0,4.231,1.178,1.178,0,0,0,1.1.7A1.193,1.193,0,0,0,570.306,517.282Z" transform="translate(-512.971 -233.723)"/>
    <path class="cls-4" d="M640,506.5v-3.333m0-253.5v3.25" transform="translate(-512.971 -233.723)"/>
    <path class="cls-5" d="M642.392,516.325a2.406,2.406,0,0,1-.677,1.765,2.328,2.328,0,0,1-1.736.686,2.575,2.575,0,0,1-1.694-.527,2,2,0,0,1-.713-1.455h.918a1.311,1.311,0,0,0,.473.9,1.638,1.638,0,0,0,1.058.321,1.336,1.336,0,0,0,1.036-.445,1.637,1.637,0,0,0,.4-1.142,1.6,1.6,0,0,0-.42-1.165,1.513,1.513,0,0,0-1.138-.432,1.626,1.626,0,0,0-.749.185,1.379,1.379,0,0,0-.549.474l-.743-.049.508-3.75h3.643v.855h-2.985l-.3,1.924.029-.02a2.129,2.129,0,0,1,1.227-.4,2.475,2.475,0,0,1,1.765.615A2.163,2.163,0,0,1,642.392,516.325Z" transform="translate(-512.971 -233.723)"/>
    <path class="cls-4" d="M710.833,506.5v-3.333m0-253.5v3.25" transform="translate(-512.971 -233.723)"/>
    <g>
      <path class="cls-5" d="M707.992,513.6h-1.645v-.7a1.909,1.909,0,0,0,1.181-.313,1.936,1.936,0,0,0,.679-1.025h.718v7.031h-.933Z" transform="translate(-512.971 -233.723)"/>
      <path class="cls-5" d="M711.9,517.839a6.009,6.009,0,0,1,0-5.345,2.163,2.163,0,0,1,3.567,0,6.026,6.026,0,0,1,0,5.345,2.166,2.166,0,0,1-3.567,0Zm2.893-.557a6.3,6.3,0,0,0,0-4.231,1.224,1.224,0,0,0-2.217,0,6.217,6.217,0,0,0,0,4.231,1.225,1.225,0,0,0,2.217,0Z" transform="translate(-512.971 -233.723)"/>
    </g>
    <path class="cls-4" d="M781.667,506.5v-3.333m0-253.5v3.25" transform="translate(-512.971 -233.723)"/>
    <g>
      <path class="cls-5" d="M778.82,513.6h-1.645v-.7a1.909,1.909,0,0,0,1.181-.313,1.936,1.936,0,0,0,.679-1.025h.718v7.031h-.933Z" transform="translate(-512.971 -233.723)"/>
      <path class="cls-5" d="M786.867,516.325a2.4,2.4,0,0,1-.677,1.765,2.327,2.327,0,0,1-1.735.686,2.577,2.577,0,0,1-1.694-.527,2,2,0,0,1-.713-1.455h.918a1.314,1.314,0,0,0,.472.9,1.642,1.642,0,0,0,1.058.321,1.333,1.333,0,0,0,1.036-.445,1.633,1.633,0,0,0,.4-1.142,1.6,1.6,0,0,0-.42-1.165,1.516,1.516,0,0,0-1.138-.432,1.623,1.623,0,0,0-.749.185,1.389,1.389,0,0,0-.55.474l-.742-.049.508-3.75h3.642v.855H783.5l-.306,1.924.03-.02a2.127,2.127,0,0,1,1.227-.4,2.474,2.474,0,0,1,1.764.615A2.163,2.163,0,0,1,786.867,516.325Z" transform="translate(-512.971 -233.723)"/>
    </g>
    <path class="cls-4" d="M852.5,506.5v-3.333m0-253.5v3.25" transform="translate(-512.971 -233.723)"/>
    <g>
      <path class="cls-5" d="M852.073,513.625a2,2,0,0,1-.4,1.277,5.149,5.149,0,0,1-1.5,1.106,5.589,5.589,0,0,0-1.626,1.2,2.2,2.2,0,0,0-.3.527h3.818v.855h-4.814a2.85,2.85,0,0,1,.552-1.814,6.909,6.909,0,0,1,2.07-1.54,3.423,3.423,0,0,0,1.006-.752,1.393,1.393,0,0,0,.268-.881,1.176,1.176,0,0,0-.4-.919,1.48,1.48,0,0,0-1.026-.358,1.268,1.268,0,0,0-1.028.449,2.03,2.03,0,0,0-.4,1.27h-.855a2.454,2.454,0,0,1,.62-1.823,2.362,2.362,0,0,1,1.783-.662,2.255,2.255,0,0,1,1.6.581A1.942,1.942,0,0,1,852.073,513.625Z" transform="translate(-512.971 -233.723)"/>
      <path class="cls-5" d="M853.56,517.839a6.009,6.009,0,0,1,0-5.345,2.163,2.163,0,0,1,3.567,0,6.026,6.026,0,0,1,0,5.345,2.166,2.166,0,0,1-3.567,0Zm2.893-.557a6.3,6.3,0,0,0,0-4.231,1.224,1.224,0,0,0-2.217,0,6.217,6.217,0,0,0,0,4.231,1.225,1.225,0,0,0,2.217,0Z" transform="translate(-512.971 -233.723)"/>
    </g>
    <path class="cls-4" d="M526.667,506.5h3.25m322.583,0h-3.333" transform="translate(-512.971 -233.723)"/>
    <g>
      <path class="cls-5" d="M512.971,507.286H517.7v.737h-4.726Z" transform="translate(-512.971 -233.723)"/>
      <path class="cls-5" d="M522.316,505.053a1.015,1.015,0,0,0-.378-.816,1.463,1.463,0,0,0-.969-.315,1.2,1.2,0,0,0-.957.383,1.837,1.837,0,0,0-.366,1.145h-.855a2.365,2.365,0,0,1,.579-1.706,2.161,2.161,0,0,1,1.638-.6,2.477,2.477,0,0,1,1.614.5,1.721,1.721,0,0,1-.257,2.815,1.98,1.98,0,0,1,.449.269,1.679,1.679,0,0,1,.66,1.4,2.09,2.09,0,0,1-.684,1.613,2.917,2.917,0,0,1-3.54.059,2.453,2.453,0,0,1-.654-1.74h.918a1.87,1.87,0,0,0,.435,1.174,1.807,1.807,0,0,0,2.176-.02,1.229,1.229,0,0,0,.416-.959,1.252,1.252,0,0,0-.4-.977,1.413,1.413,0,0,0-.879-.351c-.166-.01-.324-.015-.471-.015a1.406,1.406,0,0,0-.3.02v-.767a1.576,1.576,0,0,0,.332.025,3.268,3.268,0,0,0,.444-.03,1.283,1.283,0,0,0,.689-.279A1,1,0,0,0,522.316,505.053Z" transform="translate(-512.971 -233.723)"/>
    </g>
    <path class="cls-4" d="M526.667,463.667h3.25m322.583,0h-3.333" transform="translate(-512.971 -233.723)"/>
    <g>
      <path class="cls-5" d="M512.971,464.45H517.7v.738h-4.726Z" transform="translate(-512.971 -233.723)"/>
      <path class="cls-5" d="M523.327,462.375a1.99,1.99,0,0,1-.4,1.277,5.127,5.127,0,0,1-1.5,1.106,5.56,5.56,0,0,0-1.626,1.2,2.168,2.168,0,0,0-.3.527h3.818v.855h-4.814a2.862,2.862,0,0,1,.551-1.814,6.93,6.93,0,0,1,2.071-1.54,3.436,3.436,0,0,0,1.006-.752,1.387,1.387,0,0,0,.268-.881,1.173,1.173,0,0,0-.4-.919,1.48,1.48,0,0,0-1.026-.358,1.265,1.265,0,0,0-1.027.449,2.024,2.024,0,0,0-.4,1.27H518.7a2.45,2.45,0,0,1,.62-1.823,2.361,2.361,0,0,1,1.782-.662,2.256,2.256,0,0,1,1.6.581A1.939,1.939,0,0,1,523.327,462.375Z" transform="translate(-512.971 -233.723)"/>
    </g>
    <path class="cls-4" d="M526.667,420.833h3.25m322.583,0h-3.333" transform="translate(-512.971 -233.723)"/>
    <g>
      <path class="cls-5" d="M512.971,421.614H517.7v.738h-4.726Z" transform="translate(-512.971 -233.723)"/>
      <path class="cls-5" d="M520.91,419.51h-1.645v-.7a1.909,1.909,0,0,0,1.181-.313,1.936,1.936,0,0,0,.679-1.025h.718V424.5h-.933Z" transform="translate(-512.971 -233.723)"/>
    </g>
    <path class="cls-4" d="M526.667,378.083h3.25m322.583,0h-3.333" transform="translate(-512.971 -233.723)"/>
    <path class="cls-5" d="M519.249,381a6,6,0,0,1,0-5.344,2.161,2.161,0,0,1,3.566,0,6.024,6.024,0,0,1,0,5.344,2.165,2.165,0,0,1-3.566,0Zm2.893-.557a6.3,6.3,0,0,0,0-4.231,1.193,1.193,0,0,0-1.114-.7,1.178,1.178,0,0,0-1.1.7,6.217,6.217,0,0,0,0,4.231,1.178,1.178,0,0,0,1.1.7A1.193,1.193,0,0,0,522.142,380.446Z" transform="translate(-512.971 -233.723)"/>
    <path class="cls-4" d="M526.667,335.25h3.25m322.583,0h-3.333" transform="translate(-512.971 -233.723)"/>
    <path class="cls-5" d="M520.906,333.932h-1.645v-.7a1.724,1.724,0,0,0,1.86-1.338h.718v7.031h-.933Z" transform="translate(-512.971 -233.723)"/>
    <path class="cls-4" d="M526.667,292.417h3.25m322.583,0h-3.333" transform="translate(-512.971 -233.723)"/>
    <path class="cls-5" d="M523.323,291.125a1.99,1.99,0,0,1-.4,1.277,5.127,5.127,0,0,1-1.5,1.106,5.56,5.56,0,0,0-1.626,1.2,2.168,2.168,0,0,0-.3.527h3.818v.855h-4.814a2.858,2.858,0,0,1,.552-1.814,6.909,6.909,0,0,1,2.07-1.54,3.409,3.409,0,0,0,1.006-.752,1.387,1.387,0,0,0,.268-.881,1.178,1.178,0,0,0-.4-.92,1.484,1.484,0,0,0-1.026-.357,1.265,1.265,0,0,0-1.027.449,2.026,2.026,0,0,0-.4,1.27H518.7a2.453,2.453,0,0,1,.62-1.824,2.365,2.365,0,0,1,1.783-.661,2.26,2.26,0,0,1,1.6.581A1.937,1.937,0,0,1,523.323,291.125Z" transform="translate(-512.971 -233.723)"/>
    <path class="cls-4" d="M526.667,249.667h3.25m322.583,0h-3.333" transform="translate(-512.971 -233.723)"/>
    <path class="cls-5" d="M522.313,248.208a1.01,1.01,0,0,0-.379-.814,1.458,1.458,0,0,0-.969-.316,1.2,1.2,0,0,0-.957.383,1.846,1.846,0,0,0-.366,1.145h-.855a2.365,2.365,0,0,1,.579-1.706,2.161,2.161,0,0,1,1.638-.6,2.477,2.477,0,0,1,1.614.5,1.727,1.727,0,0,1,0,2.64,1.782,1.782,0,0,1-.254.175,2.047,2.047,0,0,1,.45.269,1.683,1.683,0,0,1,.659,1.4,2.09,2.09,0,0,1-.684,1.614,2.917,2.917,0,0,1-3.54.059,2.457,2.457,0,0,1-.654-1.741h.918a1.87,1.87,0,0,0,.435,1.174,1.522,1.522,0,0,0,1.11.354,1.537,1.537,0,0,0,1.067-.373,1.353,1.353,0,0,0,.015-1.936,1.408,1.408,0,0,0-.879-.352c-.166-.01-.323-.014-.471-.014a1.429,1.429,0,0,0-.3.019v-.767a1.576,1.576,0,0,0,.332.025,3.464,3.464,0,0,0,.445-.029,1.283,1.283,0,0,0,.688-.279A1.006,1.006,0,0,0,522.313,248.208Z" transform="translate(-512.971 -233.723)"/>
    <path class="cls-4" d="M526.667,249.667H852.5M526.667,506.5H852.5m0,0V249.667M526.667,506.5V249.667" transform="translate(-512.971 -233.723)"/>
    <path class="cls-6" d="M529.6,378a3,3,0,1,1-3-3,3,3,0,0,1,3,3m14.16,0a3,3,0,1,1-3-3,3,3,0,0,1,3,3m14.16,0a3,3,0,1,1-3-3,3,3,0,0,1,3,3m14.16-42.72a3,3,0,1,1-3-3,3,3,0,0,1,3,3m14.16,21.36a3,3,0,1,1-3-3,3,3,0,0,1,3,3m14.16,42.72a3,3,0,1,1-3-3,3,3,0,0,1,3,3m14.16,21.36a3,3,0,1,1-3-3,3,3,0,0,1,3,3m14.16-21.36a3,3,0,1,1-3-3,3,3,0,0,1,3,3M643,356.64a3,3,0,1,1-3-3,3,3,0,0,1,3,3m14.28-21.36a3,3,0,1,1-3-3,3,3,0,0,1,3,3m14.16,21.36a3,3,0,1,1-3-3,3,3,0,0,1,3,3m14.16,42.72a3,3,0,1,1-3-3,3,3,0,0,1,3,3m14.16,21.36a3,3,0,1,1-3-3,3,3,0,0,1,3,3m14.16-21.36a3,3,0,1,1-3-3,3,3,0,0,1,3,3m14.16-42.72a3,3,0,1,1-3-3,3,3,0,0,1,3,3m14.16-21.36a3,3,0,1,1-3-3,3,3,0,0,1,3,3m14.16,21.36a3,3,0,1,1-3-3,3,3,0,0,1,3,3m14.16,42.72a3,3,0,1,1-3-3,3,3,0,0,1,3,3m14.16,21.36a3,3,0,1,1-3-3,3,3,0,0,1,3,3m14.16-21.36a3,3,0,1,1-3-3,3,3,0,0,1,3,3m14.16-42.72a3,3,0,1,1-3-3,3,3,0,0,1,3,3m14.16-21.36a3,3,0,1,1-3-3,3,3,0,0,1,3,3m14.16,21.36a3,3,0,1,1-3-3,3,3,0,0,1,3,3m14.16,42.72a3,3,0,1,1-3-3,3,3,0,0,1,3,3" transform="translate(-512.971 -233.723)"/>
    <g class="cls-7">
      <path d="M527.72,378.12a1,1,0,1,1-1-1,1,1,0,0,1,1,1" transform="translate(-512.971 -233.723)"/>
    </g>
    <path d="M541.88,378.12a1,1,0,1,1-1-1,1,1,0,0,1,1,1" transform="translate(-512.971 -233.723)"/>
    <path d="M556.04,378.12a1,1,0,1,1-1-1,1,1,0,0,1,1,1" transform="translate(-512.971 -233.723)"/>
    <g class="cls-7">
      <path class="cls-6" d="M569.167,378.083V335.25m14.166,42.833V356.667M597.5,378.083v21.334m14.167-21.334v42.75m14.166-42.75v21.334M640,378.083V356.667m14.167,21.416V335.25m14.166,42.833V356.667M682.5,378.083v21.334m14.167-21.334v42.75m14.166-42.75v21.334M725,378.083V356.667m14.167,21.416V335.25m14.166,42.833V356.667M767.5,378.083v21.334m14.167-21.334v42.75m14.166-42.75v21.334M810,378.083V356.667m14.167,21.416V335.25m14.166,42.833V356.667M852.5,378.083v21.334" transform="translate(-512.971 -233.723)"/>
      <line class="cls-4" x1="13.696" y1="144.361" x2="339.529" y2="144.361"/>
    </g>
    <g>
      <path class="cls-5" d="M619.822,233.908h.972v7.178h-.972Z" transform="translate(-512.971 -233.723)"/>
      <path class="cls-5" d="M622.342,235.861h.835v.772l.195-.259a1.775,1.775,0,0,1,3.232,1.133v3.579h-.878v-3.281a1.5,1.5,0,0,0-.267-.994,1.084,1.084,0,0,0-.861-.305,1.2,1.2,0,0,0-1.006.481,2.074,2.074,0,0,0-.371,1.3v2.8h-.879Z" transform="translate(-512.971 -233.723)"/>
      <path class="cls-5" d="M627.835,235.861h.835v.743l.044-.064a1.725,1.725,0,0,1,1.489-.835,2.017,2.017,0,0,1,1.624.706,2.85,2.85,0,0,1,.6,1.906,3.4,3.4,0,0,1-.6,2.137,2,2,0,0,1-1.673.774,1.684,1.684,0,0,1-1.406-.679l-.029-.039v2.641h-.879Zm2.27,4.605a1.187,1.187,0,0,0,1.045-.52,2.676,2.676,0,0,0,.357-1.516,2.485,2.485,0,0,0-.342-1.453,1.217,1.217,0,0,0-1.055-.471,1.161,1.161,0,0,0-1.062.532,3.266,3.266,0,0,0-.334,1.685,2.026,2.026,0,0,0,.361,1.289A1.243,1.243,0,0,0,630.105,240.466Z" transform="translate(-512.971 -233.723)"/>
      <path class="cls-5" d="M634.373,239.23a1.434,1.434,0,0,0,.254.95,1.042,1.042,0,0,0,.825.291,1.2,1.2,0,0,0,1.006-.491,2.153,2.153,0,0,0,.371-1.331v-2.788h.879v5.225h-.835v-.8a2.331,2.331,0,0,1-.2.269,1.767,1.767,0,0,1-1.407.669,1.571,1.571,0,0,1-1.777-1.778v-3.589h.879Z" transform="translate(-512.971 -233.723)"/>
      <path class="cls-5" d="M640.945,241.081a4.968,4.968,0,0,1-.654.068,1.08,1.08,0,0,1-.813-.253,1.276,1.276,0,0,1-.237-.875v-3.442h-.722v-.718h.722V234.4h.879v1.465h.825v.718h-.825v3.442a.33.33,0,0,0,.139.279.621.621,0,0,0,.374.1h.312Z" transform="translate(-512.971 -233.723)"/>
      <path class="cls-5" d="M647.575,237.375a.906.906,0,0,0-.354-.674,1.369,1.369,0,0,0-.847-.239,1.5,1.5,0,0,0-.833.19.627.627,0,0,0-.286.557.479.479,0,0,0,.2.42,2.577,2.577,0,0,0,.8.283l.909.215a2.3,2.3,0,0,1,1.089.513,1.219,1.219,0,0,1,.323.9,1.5,1.5,0,0,1-.559,1.23,2.326,2.326,0,0,1-1.511.455,2.593,2.593,0,0,1-1.646-.437,1.82,1.82,0,0,1-.6-1.375h.845a1.113,1.113,0,0,0,.394.806,1.666,1.666,0,0,0,1.008.249,1.5,1.5,0,0,0,.9-.225.763.763,0,0,0,.3-.654.477.477,0,0,0-.2-.415,2.591,2.591,0,0,0-.806-.283l-.908-.215a2.177,2.177,0,0,1-1.05-.493,1.188,1.188,0,0,1-.313-.879,1.436,1.436,0,0,1,.525-1.17,2.168,2.168,0,0,1,1.423-.432,2.217,2.217,0,0,1,1.452.444,1.6,1.6,0,0,1,.573,1.226Z" transform="translate(-512.971 -233.723)"/>
      <path class="cls-5" d="M649.6,233.908h.9v1h-.9Zm.009,1.953h.879v5.225h-.879Z" transform="translate(-512.971 -233.723)"/>
      <path class="cls-5" d="M653.719,242.565a1.411,1.411,0,0,0,1.152-.476,2.122,2.122,0,0,0,.4-1.389v-.171l-.005,0a1.713,1.713,0,0,1-1.416.694,2.019,2.019,0,0,1-1.67-.784,3.317,3.317,0,0,1-.62-2.117,2.842,2.842,0,0,1,.61-1.9,1.989,1.989,0,0,1,1.6-.723,1.717,1.717,0,0,1,1.494.816l.063.092v-.752h.826V240.7a2.812,2.812,0,0,1-.6,1.958,2.367,2.367,0,0,1-1.817.635,2.228,2.228,0,0,1-1.411-.41,1.749,1.749,0,0,1-.63-1.192h.9a1.017,1.017,0,0,0,.373.647A1.2,1.2,0,0,0,653.719,242.565Zm.171-6.059a1.238,1.238,0,0,0-1.077.469,2.574,2.574,0,0,0-.339,1.489,2.547,2.547,0,0,0,.368,1.482,1.21,1.21,0,0,0,1.048.52,1.264,1.264,0,0,0,1.03-.479,1.938,1.938,0,0,0,.391-1.264,3.142,3.142,0,0,0-.354-1.663A1.18,1.18,0,0,0,653.89,236.506Z" transform="translate(-512.971 -233.723)"/>
      <path class="cls-5" d="M657.366,235.861h.835v.772l.195-.259a1.775,1.775,0,0,1,3.233,1.133v3.579h-.879v-3.281a1.5,1.5,0,0,0-.266-.994,1.086,1.086,0,0,0-.862-.305,1.2,1.2,0,0,0-1.006.481,2.08,2.08,0,0,0-.371,1.3v2.8h-.879Z" transform="translate(-512.971 -233.723)"/>
      <path class="cls-5" d="M664.305,241.228a1.73,1.73,0,0,1-1.216-.411,1.428,1.428,0,0,1-.449-1.108,1.494,1.494,0,0,1,.422-1.118,2.081,2.081,0,0,1,1.233-.518l1.2-.151a1.842,1.842,0,0,0,.279-.049.446.446,0,0,0,.263-.176.561.561,0,0,0,.093-.332v-.044a.773.773,0,0,0-.317-.656,1.453,1.453,0,0,0-.884-.237,1.3,1.3,0,0,0-.847.251,1.106,1.106,0,0,0-.369.75H662.9a1.73,1.73,0,0,1,.606-1.292,2.44,2.44,0,0,1,1.553-.432,2.224,2.224,0,0,1,1.45.413,1.473,1.473,0,0,1,.5,1.2v2.871a.291.291,0,0,0,.08.213.3.3,0,0,0,.218.08,1.039,1.039,0,0,0,.114-.009c.051-.007.105-.017.164-.03v.635a1.6,1.6,0,0,1-.268.078,1.189,1.189,0,0,1-.24.029.881.881,0,0,1-.722-.273,1.143,1.143,0,0,1-.21-.513,1.9,1.9,0,0,1-.225.235A2.327,2.327,0,0,1,664.305,241.228Zm1.821-2.212v-.567a1.872,1.872,0,0,1-.542.161l-.806.118a2.15,2.15,0,0,0-.927.295.653.653,0,0,0-.293.564.907.907,0,0,0,.239.676.925.925,0,0,0,.679.237,1.832,1.832,0,0,0,1.171-.376,1.269,1.269,0,0,0,.435-.6.948.948,0,0,0,.029-.2A2.98,2.98,0,0,0,666.126,239.016Z" transform="translate(-512.971 -233.723)"/>
      <path class="cls-5" d="M668.509,233.908h.879v7.178h-.879Z" transform="translate(-512.971 -233.723)"/>
      <path class="cls-5" d="M674.808,238.391l-1.758-2.53h1.136l1.2,1.861,1.208-1.861h1.087l-1.758,2.544,1.816,2.681h-1.1l-1.3-1.992-1.282,1.992h-1.109Z" transform="translate(-512.971 -233.723)"/>
      <path class="cls-5" d="M678.47,233.859h1.87v.708h-1.079v7.774h1.079v.708h-1.87Z" transform="translate(-512.971 -233.723)"/>
      <path class="cls-5" d="M681.268,235.861h.835v.772l.2-.259a1.775,1.775,0,0,1,3.232,1.133v3.579h-.879v-3.281a1.5,1.5,0,0,0-.265-.994,1.089,1.089,0,0,0-.863-.305,1.2,1.2,0,0,0-1,.481,2.074,2.074,0,0,0-.372,1.3v2.8h-.878Z" transform="translate(-512.971 -233.723)"/>
      <path class="cls-5" d="M688.328,243.049h-1.87v-.708h1.079v-7.774h-1.079v-.708h1.87Z" transform="translate(-512.971 -233.723)"/>
      <path class="cls-5" d="M689.349,237.189h5.058v.738h-5.058Zm0,2.022h5.058v.737h-5.058Z" transform="translate(-512.971 -233.723)"/>
      <path class="cls-5" d="M699.568,239.206a2.414,2.414,0,0,1-.7,1.5,2.117,2.117,0,0,1-1.494.518,2.045,2.045,0,0,1-1.66-.748,3.052,3.052,0,0,1-.62-2.011,2.993,2.993,0,0,1,.641-2.014,2.4,2.4,0,0,1,3.231-.235,1.952,1.952,0,0,1,.6,1.419h-.844a1.291,1.291,0,0,0-.391-.869,1.277,1.277,0,0,0-.9-.308,1.206,1.206,0,0,0-1.042.535,2.5,2.5,0,0,0-.379,1.472,2.626,2.626,0,0,0,.351,1.5,1.311,1.311,0,0,0,1.9.173,1.681,1.681,0,0,0,.457-.935Z" transform="translate(-512.971 -233.723)"/>
      <path class="cls-5" d="M700.821,240.466a3.311,3.311,0,0,1,0-4,2.411,2.411,0,0,1,3.518,0,3.323,3.323,0,0,1,0,4,2.411,2.411,0,0,1-3.518,0Zm2.859-.537a2.81,2.81,0,0,0,0-2.923,1.388,1.388,0,0,0-2.2,0,2.816,2.816,0,0,0,0,2.923,1.391,1.391,0,0,0,2.2,0Z" transform="translate(-512.971 -233.723)"/>
      <path class="cls-5" d="M709,237.375a.907.907,0,0,0-.355-.674,1.367,1.367,0,0,0-.847-.239,1.5,1.5,0,0,0-.832.19.625.625,0,0,0-.286.557.479.479,0,0,0,.2.42,2.577,2.577,0,0,0,.8.283l.908.215a2.3,2.3,0,0,1,1.09.513,1.215,1.215,0,0,1,.323.9,1.5,1.5,0,0,1-.56,1.23,2.321,2.321,0,0,1-1.51.455,2.593,2.593,0,0,1-1.646-.437,1.819,1.819,0,0,1-.6-1.375h.844a1.112,1.112,0,0,0,.393.806,1.673,1.673,0,0,0,1.009.249,1.5,1.5,0,0,0,.9-.225.761.761,0,0,0,.306-.654.477.477,0,0,0-.2-.415,2.612,2.612,0,0,0-.806-.283l-.908-.215a2.181,2.181,0,0,1-1.05-.493,1.188,1.188,0,0,1-.313-.879,1.435,1.435,0,0,1,.524-1.17,2.174,2.174,0,0,1,1.423-.432,2.213,2.213,0,0,1,1.452.444,1.6,1.6,0,0,1,.574,1.226Z" transform="translate(-512.971 -233.723)"/>
    </g>
    <path class="cls-5" d="M711.233,238.449a6.787,6.787,0,0,1,.411-2.346,9.75,9.75,0,0,1,1.3-2.351h.6a11.289,11.289,0,0,0-1.043,2.383,8.337,8.337,0,0,0,0,4.638,11.191,11.191,0,0,0,1.043,2.378h-.6a9.722,9.722,0,0,1-1.3-2.353A6.808,6.808,0,0,1,711.233,238.449Z" transform="translate(-512.971 -233.723)"/>
    <path class="cls-5" d="M718.786,236.613v.708H717.6a14.191,14.191,0,0,0-.17,2.144,1.156,1.156,0,0,0,.175.72.544.544,0,0,0,.44.217.517.517,0,0,0,.366-.146.708.708,0,0,0,.2-.425h.171a1.972,1.972,0,0,1-.368,1.089.853.853,0,0,1-.643.317.759.759,0,0,1-.634-.346,2.336,2.336,0,0,1-.254-1.294q0-.6.185-2.276H715.8a17.857,17.857,0,0,1-.366,3.238c-.144.452-.34.678-.591.678a.392.392,0,0,1-.291-.117.4.4,0,0,1-.115-.293.569.569,0,0,1,.039-.22,1.954,1.954,0,0,1,.23-.356,2.443,2.443,0,0,0,.415-.83,9.8,9.8,0,0,0,.273-2.1h-.224a.971.971,0,0,0-.532.117,1.612,1.612,0,0,0-.518.586h-.19a2.643,2.643,0,0,1,.639-1.167,1.153,1.153,0,0,1,.782-.244Z" transform="translate(-512.971 -233.723)"/>
    <g>
      <path class="cls-5" d="M724.809,233.723l-2.444,7.558H721.7l2.444-7.558Z" transform="translate(-512.971 -233.723)"/>
      <path class="cls-5" d="M728.705,235.966a1.013,1.013,0,0,0-.379-.815,1.463,1.463,0,0,0-.969-.315,1.2,1.2,0,0,0-.957.383,1.843,1.843,0,0,0-.366,1.145h-.854a2.367,2.367,0,0,1,.578-1.706,2.166,2.166,0,0,1,1.638-.6,2.475,2.475,0,0,1,1.614.5,1.725,1.725,0,0,1,0,2.639,1.763,1.763,0,0,1-.254.176,2.04,2.04,0,0,1,.449.269,1.68,1.68,0,0,1,.659,1.4,2.091,2.091,0,0,1-.683,1.614,2.921,2.921,0,0,1-3.54.059,2.462,2.462,0,0,1-.655-1.741h.918a1.87,1.87,0,0,0,.436,1.174,1.519,1.519,0,0,0,1.11.354,1.535,1.535,0,0,0,1.066-.373,1.233,1.233,0,0,0,.416-.96,1.248,1.248,0,0,0-.4-.976,1.4,1.4,0,0,0-.879-.352c-.166-.01-.323-.015-.47-.015a1.4,1.4,0,0,0-.3.02v-.767a1.641,1.641,0,0,0,.332.025,3.279,3.279,0,0,0,.444-.03,1.286,1.286,0,0,0,.689-.278A1.009,1.009,0,0,0,728.705,235.966Z" transform="translate(-512.971 -233.723)"/>
      <path class="cls-5" d="M733.632,235.861h.835v.772l.2-.259a1.775,1.775,0,0,1,3.233,1.133v3.579h-.879v-3.281a1.5,1.5,0,0,0-.266-.994,1.088,1.088,0,0,0-.862-.305,1.2,1.2,0,0,0-1.006.481,2.08,2.08,0,0,0-.371,1.3v2.8h-.879Z" transform="translate(-512.971 -233.723)"/>
      <path class="cls-5" d="M741.2,238.454a6.782,6.782,0,0,1-.41,2.346,9.7,9.7,0,0,1-1.3,2.351h-.6a11.335,11.335,0,0,0,1.043-2.382,8.341,8.341,0,0,0,0-4.639,11.242,11.242,0,0,0-1.043-2.378h.6a9.713,9.713,0,0,1,1.3,2.353A6.807,6.807,0,0,1,741.2,238.454Z" transform="translate(-512.971 -233.723)"/>
      <path class="cls-5" d="M746.21,239.23a1.434,1.434,0,0,0,.254.95,1.042,1.042,0,0,0,.825.291,1.2,1.2,0,0,0,1.006-.491,2.159,2.159,0,0,0,.371-1.331v-2.788h.879v5.225h-.835v-.8a2.456,2.456,0,0,1-.2.269,1.764,1.764,0,0,1-1.407.669,1.571,1.571,0,0,1-1.777-1.778v-3.589h.879Z" transform="translate(-512.971 -233.723)"/>
      <path class="cls-5" d="M750.844,233.859h1.87v.708h-1.079v7.774h1.079v.708h-1.87Z" transform="translate(-512.971 -233.723)"/>
      <path class="cls-5" d="M753.642,235.861h.835v.772l.2-.259a1.775,1.775,0,0,1,3.232,1.133v3.579h-.879v-3.281a1.5,1.5,0,0,0-.265-.994,1.089,1.089,0,0,0-.863-.305,1.2,1.2,0,0,0-1,.481,2.08,2.08,0,0,0-.371,1.3v2.8h-.879Z" transform="translate(-512.971 -233.723)"/>
    </g>
    <path class="cls-5" d="M761.172,243.049H759.3v-.708h1.079v-7.774H759.3v-.708h1.87Z" transform="translate(-512.971 -233.723)"/>
    <g>
      <path class="cls-5" d="M657.548,525.4a1.432,1.432,0,0,0-.534-1.047,2,2,0,0,0-1.267-.369,2.056,2.056,0,0,0-1.245.318,1.086,1.086,0,0,0-.425.927.716.716,0,0,0,.283.621,3.593,3.593,0,0,0,1.138.4l1.25.3a2.788,2.788,0,0,1,1.436.708,2.082,2.082,0,0,1-.309,2.861,3.2,3.2,0,0,1-2,.571,3.333,3.333,0,0,1-2.2-.659,2.2,2.2,0,0,1-.772-1.777v-.054h.894a1.507,1.507,0,0,0,.566,1.206,2.4,2.4,0,0,0,1.511.425,2.468,2.468,0,0,0,1.358-.308,1.015,1.015,0,0,0,.464-.9.934.934,0,0,0-.3-.767,3.4,3.4,0,0,0-1.222-.463l-1.252-.3a2.882,2.882,0,0,1-1.354-.625,1.493,1.493,0,0,1-.4-1.109,2.047,2.047,0,0,1,.7-1.633,2.8,2.8,0,0,1,1.892-.6,2.9,2.9,0,0,1,1.928.605,2.208,2.208,0,0,1,.766,1.67Z" transform="translate(-512.971 -233.723)"/>
      <path class="cls-5" d="M661.11,530.642a1.729,1.729,0,0,1-1.215-.411,1.423,1.423,0,0,1-.45-1.108,1.493,1.493,0,0,1,.423-1.118,2.084,2.084,0,0,1,1.233-.518l1.2-.151a1.829,1.829,0,0,0,.278-.049.445.445,0,0,0,.264-.176.561.561,0,0,0,.093-.332v-.044a.773.773,0,0,0-.318-.657,1.456,1.456,0,0,0-.884-.236,1.294,1.294,0,0,0-.847.252,1.1,1.1,0,0,0-.368.749H659.7a1.729,1.729,0,0,1,.606-1.292,2.443,2.443,0,0,1,1.552-.432,2.233,2.233,0,0,1,1.451.412,1.476,1.476,0,0,1,.5,1.2v2.871a.282.282,0,0,0,.08.212.289.289,0,0,0,.217.081,1.053,1.053,0,0,0,.115-.009c.05-.007.105-.017.164-.03v.635a1.747,1.747,0,0,1-.269.078,1.183,1.183,0,0,1-.239.03.882.882,0,0,1-.723-.274,1.161,1.161,0,0,1-.21-.513,1.966,1.966,0,0,1-.224.235A2.334,2.334,0,0,1,661.11,530.642Zm1.822-2.212v-.567a1.881,1.881,0,0,1-.542.161l-.806.118a2.145,2.145,0,0,0-.928.3.654.654,0,0,0-.293.563.91.91,0,0,0,.24.677.924.924,0,0,0,.678.236,1.835,1.835,0,0,0,1.172-.376,1.275,1.275,0,0,0,.435-.6.948.948,0,0,0,.029-.2A2.98,2.98,0,0,0,662.932,528.43Z" transform="translate(-512.971 -233.723)"/>
      <path class="cls-5" d="M665.3,525.275h.835v.777l.181-.235a1.794,1.794,0,0,1,1.411-.7,1.515,1.515,0,0,1,1.118.415,1.36,1.36,0,0,1,.288.425l.142-.181a1.677,1.677,0,0,1,3.066,1.055V530.5h-.879v-3.369a1.432,1.432,0,0,0-.244-.9.853.853,0,0,0-.713-.308,1.08,1.08,0,0,0-.908.444,1.94,1.94,0,0,0-.337,1.2V530.5h-.879v-3.579a1.11,1.11,0,0,0-.222-.745.813.813,0,0,0-.647-.256,1.15,1.15,0,0,0-.96.5,2.083,2.083,0,0,0-.373,1.284v2.8H665.3Z" transform="translate(-512.971 -233.723)"/>
      <path class="cls-5" d="M673.557,525.275h.835v.743l.044-.064a1.725,1.725,0,0,1,1.489-.835,2.018,2.018,0,0,1,1.623.7,2.855,2.855,0,0,1,.6,1.907,3.391,3.391,0,0,1-.6,2.136,2,2,0,0,1-1.672.775,1.684,1.684,0,0,1-1.406-.679l-.029-.039v2.641h-.879Zm2.27,4.605a1.185,1.185,0,0,0,1.045-.521,2.668,2.668,0,0,0,.357-1.515,2.485,2.485,0,0,0-.342-1.453,1.217,1.217,0,0,0-1.055-.471,1.163,1.163,0,0,0-1.062.532,3.263,3.263,0,0,0-.334,1.685,2.026,2.026,0,0,0,.361,1.289A1.239,1.239,0,0,0,675.827,529.88Z" transform="translate(-512.971 -233.723)"/>
      <path class="cls-5" d="M679.206,523.322h.879V530.5h-.879Z" transform="translate(-512.971 -233.723)"/>
      <path class="cls-5" d="M683.537,530.642a2.229,2.229,0,0,1-1.743-.7,2.793,2.793,0,0,1-.635-1.943,3.1,3.1,0,0,1,.672-2.1,2.261,2.261,0,0,1,1.8-.779,2.043,2.043,0,0,1,1.655.762,3.04,3.04,0,0,1,.63,2l-.011.312h-3.815a2.261,2.261,0,0,0,.355,1.192,1.366,1.366,0,0,0,1.172.5,1.422,1.422,0,0,0,.878-.283,1.15,1.15,0,0,0,.459-.723h.869a2.194,2.194,0,0,1-.781,1.31A2.4,2.4,0,0,1,683.537,530.642ZM685,527.487a1.961,1.961,0,0,0-.361-1.133,1.256,1.256,0,0,0-1.045-.449,1.353,1.353,0,0,0-1.11.518,1.984,1.984,0,0,0-.394,1.064Z" transform="translate(-512.971 -233.723)"/>
      <path class="cls-5" d="M689.768,523.322h.9v1h-.9Zm.009,1.953h.879V530.5h-.879Z" transform="translate(-512.971 -233.723)"/>
      <path class="cls-5" d="M691.97,525.275h.835v.772l.2-.259a1.775,1.775,0,0,1,3.232,1.133V530.5h-.878v-3.281a1.5,1.5,0,0,0-.266-.994,1.088,1.088,0,0,0-.862-.305,1.2,1.2,0,0,0-1.006.48,2.085,2.085,0,0,0-.371,1.3v2.8h-.879Z" transform="translate(-512.971 -233.723)"/>
      <path class="cls-5" d="M699.523,530.642a2.013,2.013,0,0,1-1.669-.785,3.311,3.311,0,0,1-.621-2.116,2.875,2.875,0,0,1,.6-1.9,1.94,1.94,0,0,1,1.567-.723,1.757,1.757,0,0,1,1.524.816l.068.1v-2.71h.879V530.5h-.815v-.713l-.113.161A1.719,1.719,0,0,1,699.523,530.642Zm.049-4.732a1.244,1.244,0,0,0-1.079.471,2.588,2.588,0,0,0-.342,1.5,2.551,2.551,0,0,0,.37,1.489,1.206,1.206,0,0,0,1.051.523,1.263,1.263,0,0,0,1.031-.482,1.955,1.955,0,0,0,.39-1.271,3.076,3.076,0,0,0-.369-1.649A1.178,1.178,0,0,0,699.572,525.91Z" transform="translate(-512.971 -233.723)"/>
      <path class="cls-5" d="M705.222,530.642a2.226,2.226,0,0,1-1.743-.7,2.793,2.793,0,0,1-.635-1.943,3.094,3.094,0,0,1,.672-2.1,2.259,2.259,0,0,1,1.8-.779,2.044,2.044,0,0,1,1.656.762,3.039,3.039,0,0,1,.629,2l-.01.312h-3.816a2.26,2.26,0,0,0,.356,1.192,1.365,1.365,0,0,0,1.172.5,1.422,1.422,0,0,0,.878-.283,1.15,1.15,0,0,0,.459-.723h.869a2.195,2.195,0,0,1-.782,1.31A2.393,2.393,0,0,1,705.222,530.642Zm1.466-3.155a1.954,1.954,0,0,0-.361-1.133,1.255,1.255,0,0,0-1.045-.449,1.346,1.346,0,0,0-1.108.518,1.969,1.969,0,0,0-.4,1.064Z" transform="translate(-512.971 -233.723)"/>
      <path class="cls-5" d="M709.973,527.8l-1.758-2.53h1.136l1.2,1.861,1.209-1.861h1.086l-1.758,2.544,1.816,2.681h-1.1l-1.3-1.991-1.282,1.991h-1.109Z" transform="translate(-512.971 -233.723)"/>
      <path class="cls-5" d="M716.413,523.273h1.87v.708H717.2v7.774h1.079v.708h-1.87Z" transform="translate(-512.971 -233.723)"/>
      <path class="cls-5" d="M719.211,525.275h.835v.772l.195-.259a1.775,1.775,0,0,1,3.233,1.133V530.5H722.6v-3.281a1.5,1.5,0,0,0-.266-.994,1.088,1.088,0,0,0-.862-.305,1.2,1.2,0,0,0-1.006.48,2.085,2.085,0,0,0-.371,1.3v2.8h-.879Z" transform="translate(-512.971 -233.723)"/>
    </g>
    <path class="cls-5" d="M726.125,532.463h-1.87v-.708h1.079v-7.774h-1.079v-.708h1.87Z" transform="translate(-512.971 -233.723)"/>
  </g>
</svg>
