<svg id="Layer_1" data-name="Layer 1" xmlns="http://www.w3.org/2000/svg" xmlns:xlink="http://www.w3.org/1999/xlink" viewBox="0 0 724.927 212.83">
  <defs>
    <style>
      .cls-1, .cls-10, .cls-2, .cls-4, .cls-5, .cls-6, .cls-7 {
        fill: none;
      }

      .cls-2, .cls-5, .cls-6, .cls-7 {
        stroke: #000;
      }

      .cls-2 {
        stroke-miterlimit: 10;
        stroke-width: 0.85px;
      }

      .cls-3 {
        fill: #1d1d1b;
      }

      .cls-4 {
        stroke: #fff;
      }

      .cls-10, .cls-4, .cls-5, .cls-6, .cls-7 {
        stroke-linejoin: round;
      }

      .cls-4, .cls-6 {
        stroke-width: 0.5px;
      }

      .cls-5 {
        stroke-width: 0.333px;
        stroke-dasharray: 0.5 4;
      }

      .cls-10, .cls-7 {
        stroke-width: 2px;
      }

      .cls-8 {
        clip-path: url(#clip-path);
      }

      .cls-9 {
        clip-path: url(#clip-path-3);
      }

      .cls-10 {
        stroke: red;
      }

      .cls-11 {
        fill: red;
      }
    </style>
    <clipPath id="clip-path" transform="translate(-280.809 -322.018)">
      <rect class="cls-1" x="290.516" y="333.319" width="231.012" height="182.104"/>
    </clipPath>
    <clipPath id="clip-path-3" transform="translate(-280.809 -322.018)">
      <rect class="cls-1" x="770.367" y="333.735" width="231.695" height="182.643"/>
    </clipPath>
  </defs>
  <title>transient</title>
  <g>
    <polyline points="431.528 145.451 436.063 143.183 431.528 140.916 432.662 143.183"/>
    <line class="cls-2" x1="414.804" y1="143.183" x2="432.662" y2="143.183"/>
    <path class="cls-3" d="M727.886,467.721a2.627,2.627,0,0,1-2.331,2.033.943.943,0,0,1-1.057-.867.574.574,0,0,1,.559-.647.339.339,0,0,1,.368.348.541.541,0,0,1-.2.408.566.566,0,0,1-.429.121.8.8,0,0,0,.758.418,1.422,1.422,0,0,0,1.1-.629,3.8,3.8,0,0,0,.648-1.533,1.4,1.4,0,0,1-1.006.447,1.111,1.111,0,0,1-1.216-1.185,6.6,6.6,0,0,1,.578-2.092,2.1,2.1,0,0,0,.169-.7c0-.319-.169-.319-.249-.319-.339,0-.737.3-1.006,1.235-.049.16-.06.179-.16.179-.019,0-.119,0-.119-.1s.368-1.535,1.315-1.535a.79.79,0,0,1,.817.818,1.785,1.785,0,0,1-.2.717,5.934,5.934,0,0,0-.508,1.953c0,.369.109.807.618.807a1.384,1.384,0,0,0,1.125-.848l.449-1.793c.06-.27.129-.537.2-.8.04-.18.12-.488.14-.537a.433.433,0,0,1,.349-.211.267.267,0,0,1,.289.27.632.632,0,0,1-.04.23Z" transform="translate(-280.809 -322.018)"/>
    <path class="cls-3" d="M730.457,470.2v-9.965h1.365v.4h-.967v9.168h.967v.4Z" transform="translate(-280.809 -322.018)"/>
    <path class="cls-3" d="M733.494,464.822a3.225,3.225,0,0,0,.159-.838c0-.328-.109-.457-.308-.457-.36,0-.559.477-.728,1.186-.059.219-.07.228-.17.228-.019,0-.119,0-.119-.1a5.1,5.1,0,0,1,.3-.967.869.869,0,0,1,.747-.568.9.9,0,0,1,.917.867,1.925,1.925,0,0,1,1.555-.867,1.017,1.017,0,0,1,1.145,1.066,9.044,9.044,0,0,1-.607,2.193,1.888,1.888,0,0,0-.18.707c0,.229.069.329.239.329.489,0,.817-.559,1.016-1.235.051-.15.051-.179.15-.179.03,0,.12,0,.12.1,0,.08-.37,1.533-1.306,1.533a.8.8,0,0,1-.817-.816,1.139,1.139,0,0,1,.1-.459,9.5,9.5,0,0,0,.648-2.32c0-.33-.09-.7-.539-.7a1.985,1.985,0,0,0-1.624,1.215c-.009.039-.089.328-.129.5-.05.229-.11.449-.169.668l-.22.9c-.06.25-.179.716-.19.738a.4.4,0,0,1-.368.277.267.267,0,0,1-.289-.267c0-.051.06-.28.09-.43Z" transform="translate(-280.809 -322.018)"/>
    <path class="cls-3" d="M739.623,470.2h-1.365v-.4h.967v-9.168h-.967v-.4h1.365Z" transform="translate(-280.809 -322.018)"/>
    <path class="cls-3" d="M546.989,398.739a3.851,3.851,0,0,0-.169.877c0,.339.159.657.548.657.319,0,1-.238,1.325-1.3.02-.071.04-.11.13-.11.03,0,.119,0,.119.1,0,.248-.568,1.533-1.594,1.533a1.1,1.1,0,0,1-1.076-.756,1.326,1.326,0,0,1-1.046.756c-.439,0-.937-.2-.937-.656a.566.566,0,0,1,.548-.578.341.341,0,0,1,.369.347.568.568,0,0,1-.469.54.97.97,0,0,0,.5.128c.439,0,.787-.418.947-1.036a14.471,14.471,0,0,0,.538-2.371c0-.578-.348-.668-.538-.668-.339,0-1,.249-1.335,1.306-.02.09-.05.109-.13.109-.02,0-.119,0-.119-.1,0-.249.568-1.535,1.6-1.535a1.1,1.1,0,0,1,1.076.757,1.292,1.292,0,0,1,1.046-.757c.339,0,.927.14.927.658a.556.556,0,0,1-.538.578.348.348,0,0,1-.379-.349.58.58,0,0,1,.479-.538.976.976,0,0,0-.5-.13c-.7,0-.926.917-.986,1.176Z" transform="translate(-280.809 -322.018)"/>
    <path class="cls-3" d="M550.816,402.875V392.91h1.366v.4h-.967v9.167h.967v.4Z" transform="translate(-280.809 -322.018)"/>
    <path class="cls-3" d="M553.853,397.494a3.2,3.2,0,0,0,.16-.838c0-.328-.11-.458-.309-.458-.359,0-.558.479-.727,1.187-.06.219-.07.228-.17.228-.02,0-.119,0-.119-.1a5.031,5.031,0,0,1,.3-.967.869.869,0,0,1,.747-.568.9.9,0,0,1,.917.867,1.928,1.928,0,0,1,1.555-.867,1.019,1.019,0,0,1,1.146,1.066,8.982,8.982,0,0,1-.608,2.192,1.9,1.9,0,0,0-.18.708c0,.229.07.328.24.328.488,0,.817-.557,1.016-1.235.05-.149.05-.179.149-.179.03,0,.12,0,.12.1,0,.079-.369,1.533-1.3,1.533a.8.8,0,0,1-.818-.816,1.154,1.154,0,0,1,.1-.459,9.454,9.454,0,0,0,.648-2.321c0-.33-.09-.7-.538-.7a1.981,1.981,0,0,0-1.624,1.216c-.01.04-.09.328-.13.5-.05.23-.109.449-.169.668l-.219.9c-.06.249-.18.716-.19.737a.406.406,0,0,1-.368.278.265.265,0,0,1-.289-.267c0-.051.06-.28.089-.43Z" transform="translate(-280.809 -322.018)"/>
    <path class="cls-3" d="M559.991,402.875h-1.366v-.4h.967v-9.167h-.967v-.4h1.366Z" transform="translate(-280.809 -322.018)"/>
    <polyline points="303.97 88.759 308.505 86.491 303.97 84.223 305.104 86.491"/>
    <line class="cls-2" x1="266.156" y1="86.491" x2="305.104" y2="86.491"/>
    <path class="cls-3" d="M602.976,411.157a.878.878,0,0,0-.039.21c0,.158.079.189.368.219.259.019.389.019.638.019s.339,0,.339.11c0,.2-.12.2-.219.2-.28,0-.579-.019-.868-.019-.269,0-.548-.01-.826-.01s-.568.01-.848.01-.547.019-.816.019c-.06,0-.17,0-.17-.119,0-.19.06-.19.419-.19,1.066,0,1.1-.109,1.185-.478l1.336-5.32a1.057,1.057,0,0,0,.039-.209c0-.08,0-.119-.279-.119h-.388c-1.475,0-1.734.178-2.272,1.722-.06.16-.07.209-.169.209a.113.113,0,0,1-.12-.109,1.255,1.255,0,0,1,.06-.179l.6-1.754c.069-.189.079-.2.319-.2h5.529c.17,0,.27,0,.27.109a1.074,1.074,0,0,1-.02.169l-.27,1.735c-.02.149-.039.228-.149.228a.116.116,0,0,1-.12-.129,1.5,1.5,0,0,1,.03-.189,7.344,7.344,0,0,0,.08-.8c0-.777-.448-.816-1.455-.816a5.683,5.683,0,0,0-.627.019c-.12.029-.16.09-.23.368Z" transform="translate(-280.809 -322.018)"/>
    <path class="cls-2" d="M589.314,408.509V394.336H617.66v28.346H589.314Zm84.869,0h14.343" transform="translate(-280.809 -322.018)"/>
    <polyline points="339.403 145.451 343.938 143.183 339.403 140.916 340.536 143.183"/>
    <path class="cls-2" d="M575.141,465.2h46.2m-45.864-56.353v56.693" transform="translate(-280.809 -322.018)"/>
    <polyline points="360.662 88.759 365.198 86.491 360.662 84.223 361.796 86.491"/>
    <line class="cls-2" x1="336.851" y1="86.491" x2="361.796" y2="86.491"/>
    <path class="cls-3" d="M659.492,411.157a.858.858,0,0,0-.04.21c0,.158.08.189.368.219.26.019.389.019.638.019s.339,0,.339.11c0,.2-.119.2-.219.2-.279,0-.578-.019-.867-.019-.269,0-.548-.01-.827-.01s-.568.01-.847.01-.548.019-.817.019c-.06,0-.169,0-.169-.119,0-.19.059-.19.418-.19,1.066,0,1.1-.109,1.186-.478l1.335-5.32a.982.982,0,0,0,.04-.209c0-.08,0-.119-.279-.119h-.389c-1.474,0-1.733.178-2.271,1.722-.06.16-.07.209-.17.209a.112.112,0,0,1-.119-.109,1.387,1.387,0,0,1,.059-.179l.6-1.754c.07-.189.08-.2.319-.2h5.531c.169,0,.268,0,.268.109a1.2,1.2,0,0,1-.019.169l-.27,1.735c-.019.149-.04.228-.149.228a.115.115,0,0,1-.119-.129,1.481,1.481,0,0,1,.029-.189,7.344,7.344,0,0,0,.08-.8c0-.777-.448-.816-1.455-.816a5.713,5.713,0,0,0-.628.019c-.119.029-.159.09-.229.368Z" transform="translate(-280.809 -322.018)"/>
    <polygon class="cls-2" points="365.028 86.491 365.028 72.318 393.374 72.318 393.374 100.664 365.028 100.664 365.028 86.491"/>
    <polyline points="348.587 103.045 350.854 107.581 353.122 103.045 350.854 104.179"/>
    <path class="cls-2" d="M631.663,408.339V426.2m7.315,10.551a7.257,7.257,0,1,0-7.257,7.257,7.259,7.259,0,0,0,7.257-7.257Zm-10.858-3.606,7.086,7.086m-7.086,0,7.086-7.086" transform="translate(-280.809 -322.018)"/>
    <polyline points="339.232 116.935 343.768 114.667 339.233 112.399 340.366 114.667"/>
    <line class="cls-2" x1="333.138" y1="114.667" x2="340.366" y2="114.667"/>
    <path class="cls-3" d="M608.5,439.1a.8.8,0,0,0,1.166-.965h.249l-.279,1.732h-3.7c0-.238,0-.258.11-.369l1.913-2.131a3.575,3.575,0,0,0,1.046-2.2c0-.816-.428-1.623-1.335-1.623a1.438,1.438,0,0,0-1.345,1.016.377.377,0,0,1,.129-.01.5.5,0,0,1,.529.517.524.524,0,1,1-1.047-.029,1.841,1.841,0,0,1,1.864-1.8,1.957,1.957,0,0,1,2.112,1.932c0,1-.6,1.535-2.152,2.91l-1.056,1.026Z" transform="translate(-280.809 -322.018)"/>
    <path class="cls-2" d="M638.978,465.068a7.257,7.257,0,1,0-7.257,7.257,7.259,7.259,0,0,0,7.257-7.257Zm-10.858.134h7.086m-3.543,3.543v-7.087" transform="translate(-280.809 -322.018)"/>
    <polyline points="348.757 131.561 351.025 136.097 353.292 131.561 351.025 132.695"/>
    <line class="cls-2" x1="351.025" y1="121.924" x2="351.025" y2="132.695"/>
    <polyline points="396.095 145.451 400.631 143.183 396.095 140.916 397.229 143.183"/>
    <line class="cls-2" x1="358.111" y1="143.183" x2="397.229" y2="143.183"/>
    <polyline points="405.79 131.902 408.057 136.437 410.325 131.902 408.057 133.035"/>
    <path class="cls-2" d="M688.866,408.849v46.2m6.752,10.375a7.257,7.257,0,1,0-7.257,7.257,7.259,7.259,0,0,0,7.257-7.257Zm-10.806.114H691.9m-3.543,3.543V462" transform="translate(-280.809 -322.018)"/>
  </g>
  <g>
    <polyline class="cls-4" points="9.708 193.346 9.708 11.301 240.661 11.301 240.661 193.346 9.708 193.346"/>
    <path class="cls-5" d="M320.641,515.365V333.319m0,0h0m50.207,182.046V333.319m0,0h0m50.207,182.046V333.319m0,0h0m50.207,182.046V333.319m0,0h0m50.207,182.046V333.319m0,0h0M290.516,515.365H521.469m0,0h0M290.516,485H521.469m0,0h0M290.516,454.643H521.469m0,0h0m-230.953-30.3H521.469m0,0h0M290.516,393.981H521.469m0,0h0m-230.953-30.36H521.469m0,0h0m-230.953-30.3H521.469m0,0h0" transform="translate(-280.809 -322.018)"/>
    <path class="cls-6" d="M290.516,333.319H521.469M290.516,515.365H521.469m0,0V333.319M290.516,515.365V333.319m0,182.046H521.469m-230.953,0V333.319m30.125,182.046V513m0-179.683v2.3" transform="translate(-280.809 -322.018)"/>
    <path class="cls-3" d="M319.4,523.4a4.262,4.262,0,0,1,0-3.788,1.532,1.532,0,0,1,2.528,0,4.262,4.262,0,0,1,0,3.788,1.535,1.535,0,0,1-2.528,0Zm2.051-.394a4.454,4.454,0,0,0,0-3,.868.868,0,0,0-1.572,0,4.422,4.422,0,0,0,0,3,.869.869,0,0,0,1.572,0Z" transform="translate(-280.809 -322.018)"/>
    <path class="cls-6" d="M370.848,515.365V513m0-179.683v2.3" transform="translate(-280.809 -322.018)"/>
    <path class="cls-3" d="M372.543,522.329a1.7,1.7,0,0,1-.48,1.251,1.651,1.651,0,0,1-1.23.486,1.826,1.826,0,0,1-1.2-.374,1.418,1.418,0,0,1-.5-1.031h.65a.938.938,0,0,0,.336.643,1.163,1.163,0,0,0,.749.226.946.946,0,0,0,.735-.315,1.161,1.161,0,0,0,.285-.81,1.132,1.132,0,0,0-.3-.825,1.072,1.072,0,0,0-.806-.307,1.147,1.147,0,0,0-.531.132.976.976,0,0,0-.39.336l-.526-.035.36-2.658h2.582v.606h-2.116l-.216,1.364.021-.014a1.5,1.5,0,0,1,.87-.284,1.751,1.751,0,0,1,1.25.436A1.533,1.533,0,0,1,372.543,522.329Z" transform="translate(-280.809 -322.018)"/>
    <path class="cls-6" d="M421.055,515.365V513m0-179.683v2.3" transform="translate(-280.809 -322.018)"/>
    <g>
      <path class="cls-3" d="M419.041,520.4h-1.166v-.5a1.353,1.353,0,0,0,.837-.221,1.376,1.376,0,0,0,.481-.727h.509v4.984h-.661Z" transform="translate(-280.809 -322.018)"/>
      <path class="cls-3" d="M421.808,523.4a4.253,4.253,0,0,1,0-3.788,1.532,1.532,0,0,1,2.528,0,4.27,4.27,0,0,1,0,3.788,1.535,1.535,0,0,1-2.528,0Zm2.05-.394a4.454,4.454,0,0,0,0-3,.843.843,0,0,0-.789-.5.834.834,0,0,0-.782.5,4.406,4.406,0,0,0,0,3,.836.836,0,0,0,.782.5A.844.844,0,0,0,423.858,523.008Z" transform="translate(-280.809 -322.018)"/>
    </g>
    <path class="cls-6" d="M471.262,515.365V513m0-179.683v2.3" transform="translate(-280.809 -322.018)"/>
    <g>
      <path class="cls-3" d="M469.245,520.4h-1.167v-.5a1.356,1.356,0,0,0,.838-.221,1.376,1.376,0,0,0,.481-.727h.509v4.984h-.661Z" transform="translate(-280.809 -322.018)"/>
      <path class="cls-3" d="M474.948,522.329a1.708,1.708,0,0,1-.479,1.251,1.655,1.655,0,0,1-1.231.486,1.821,1.821,0,0,1-1.2-.374,1.415,1.415,0,0,1-.506-1.031h.651a.933.933,0,0,0,.335.643,1.166,1.166,0,0,0,.75.226.945.945,0,0,0,.734-.315,1.161,1.161,0,0,0,.285-.81,1.132,1.132,0,0,0-.3-.825,1.072,1.072,0,0,0-.806-.307,1.15,1.15,0,0,0-.531.132.976.976,0,0,0-.39.336l-.526-.035.36-2.658h2.582v.606h-2.115l-.216,1.364.02-.014a1.5,1.5,0,0,1,.87-.284,1.75,1.75,0,0,1,1.25.436A1.533,1.533,0,0,1,474.948,522.329Z" transform="translate(-280.809 -322.018)"/>
    </g>
    <path class="cls-6" d="M521.469,515.365V513m0-179.683v2.3" transform="translate(-280.809 -322.018)"/>
    <g>
      <path class="cls-3" d="M521.167,520.415a1.408,1.408,0,0,1-.282.905,3.615,3.615,0,0,1-1.061.784,3.965,3.965,0,0,0-1.153.848,1.6,1.6,0,0,0-.211.374h2.707v.606h-3.413a2.021,2.021,0,0,1,.392-1.285,4.873,4.873,0,0,1,1.467-1.092,2.465,2.465,0,0,0,.713-.533.986.986,0,0,0,.19-.625.835.835,0,0,0-.284-.652,1.049,1.049,0,0,0-.727-.253.9.9,0,0,0-.728.318,1.438,1.438,0,0,0-.282.9h-.606a1.734,1.734,0,0,1,.44-1.293,1.673,1.673,0,0,1,1.263-.469,1.6,1.6,0,0,1,1.135.411A1.377,1.377,0,0,1,521.167,520.415Z" transform="translate(-280.809 -322.018)"/>
      <path class="cls-3" d="M522.221,523.4a4.253,4.253,0,0,1,0-3.788,1.532,1.532,0,0,1,2.528,0,4.27,4.27,0,0,1,0,3.788,1.535,1.535,0,0,1-2.528,0Zm2.05-.394a4.454,4.454,0,0,0,0-3,.843.843,0,0,0-.789-.5.834.834,0,0,0-.782.5,4.406,4.406,0,0,0,0,3,.836.836,0,0,0,.782.5A.844.844,0,0,0,524.271,523.008Z" transform="translate(-280.809 -322.018)"/>
    </g>
    <path class="cls-6" d="M290.516,515.365h2.3m228.649,0h-2.363" transform="translate(-280.809 -322.018)"/>
    <g>
      <path class="cls-3" d="M280.809,515.922h3.35v.523h-3.35Z" transform="translate(-280.809 -322.018)"/>
      <path class="cls-3" d="M287.433,514.339a.718.718,0,0,0-.268-.577,1.033,1.033,0,0,0-.687-.224.847.847,0,0,0-.679.272,1.3,1.3,0,0,0-.259.811h-.606a1.681,1.681,0,0,1,.41-1.21,1.537,1.537,0,0,1,1.161-.427,1.756,1.756,0,0,1,1.144.355,1.22,1.22,0,0,1-.182,1.995,1.447,1.447,0,0,1,.319.19,1.2,1.2,0,0,1,.467.991,1.486,1.486,0,0,1-.484,1.143,2.068,2.068,0,0,1-2.51.041,1.743,1.743,0,0,1-.464-1.233h.651a1.323,1.323,0,0,0,.309.832,1.28,1.28,0,0,0,1.542-.014.872.872,0,0,0,.295-.68.883.883,0,0,0-.284-.692,1.008,1.008,0,0,0-.623-.249c-.118-.007-.229-.011-.334-.011a1,1,0,0,0-.209.014v-.543a1.124,1.124,0,0,0,.235.017,2.358,2.358,0,0,0,.315-.021.9.9,0,0,0,.488-.2A.712.712,0,0,0,287.433,514.339Z" transform="translate(-280.809 -322.018)"/>
    </g>
    <path class="cls-6" d="M290.516,485h2.3m228.649,0h-2.363" transform="translate(-280.809 -322.018)"/>
    <g>
      <path class="cls-3" d="M280.809,485.559h3.35v.523h-3.35Z" transform="translate(-280.809 -322.018)"/>
      <path class="cls-3" d="M288.149,484.088a1.408,1.408,0,0,1-.282.9,3.619,3.619,0,0,1-1.061.784,3.943,3.943,0,0,0-1.152.848,1.5,1.5,0,0,0-.211.374h2.706v.6h-3.412a2.023,2.023,0,0,1,.391-1.286,4.887,4.887,0,0,1,1.467-1.091,2.464,2.464,0,0,0,.713-.534.982.982,0,0,0,.191-.624.835.835,0,0,0-.284-.652,1.052,1.052,0,0,0-.727-.253.9.9,0,0,0-.729.317,1.441,1.441,0,0,0-.281.9h-.606a1.733,1.733,0,0,1,.439-1.293,1.674,1.674,0,0,1,1.263-.469,1.6,1.6,0,0,1,1.135.411A1.377,1.377,0,0,1,288.149,484.088Z" transform="translate(-280.809 -322.018)"/>
    </g>
    <path class="cls-6" d="M290.516,454.643h2.3m228.649,0h-2.363" transform="translate(-280.809 -322.018)"/>
    <g>
      <path class="cls-3" d="M280.809,455.2h3.35v.524h-3.35Z" transform="translate(-280.809 -322.018)"/>
      <path class="cls-3" d="M286.436,453.705H285.27v-.5a1.347,1.347,0,0,0,.837-.222,1.373,1.373,0,0,0,.481-.726h.509v4.983h-.661Z" transform="translate(-280.809 -322.018)"/>
    </g>
    <path class="cls-6" d="M290.516,424.342h2.3m228.649,0h-2.363" transform="translate(-280.809 -322.018)"/>
    <path class="cls-3" d="M285.259,426.412a4.253,4.253,0,0,1,0-3.788,1.532,1.532,0,0,1,2.528,0,4.27,4.27,0,0,1,0,3.788,1.535,1.535,0,0,1-2.528,0Zm2.05-.394a4.454,4.454,0,0,0,0-3,.843.843,0,0,0-.789-.5.834.834,0,0,0-.782.5,4.406,4.406,0,0,0,0,3,.836.836,0,0,0,.782.5A.844.844,0,0,0,287.309,426.018Z" transform="translate(-280.809 -322.018)"/>
    <path class="cls-6" d="M290.516,393.981h2.3m228.649,0h-2.363" transform="translate(-280.809 -322.018)"/>
    <path class="cls-3" d="M286.434,393.047h-1.167v-.5a1.357,1.357,0,0,0,.838-.222,1.373,1.373,0,0,0,.481-.726h.509v4.983h-.661Z" transform="translate(-280.809 -322.018)"/>
    <path class="cls-6" d="M290.516,363.621h2.3m228.649,0h-2.363" transform="translate(-280.809 -322.018)"/>
    <path class="cls-3" d="M288.146,362.706a1.407,1.407,0,0,1-.281.9,3.632,3.632,0,0,1-1.061.785,3.966,3.966,0,0,0-1.153.847,1.6,1.6,0,0,0-.211.374h2.706v.606h-3.412a2.026,2.026,0,0,1,.391-1.285,4.877,4.877,0,0,1,1.468-1.092,2.429,2.429,0,0,0,.713-.534.981.981,0,0,0,.19-.624.835.835,0,0,0-.284-.652,1.053,1.053,0,0,0-.727-.253.9.9,0,0,0-.728.318,1.44,1.44,0,0,0-.282.9h-.606a1.735,1.735,0,0,1,.44-1.293,1.673,1.673,0,0,1,1.263-.469,1.6,1.6,0,0,1,1.135.412A1.375,1.375,0,0,1,288.146,362.706Z" transform="translate(-280.809 -322.018)"/>
    <path class="cls-6" d="M290.516,333.319h2.3m228.649,0h-2.363" transform="translate(-280.809 -322.018)"/>
    <path class="cls-3" d="M287.43,332.286a.719.719,0,0,0-.268-.578,1.043,1.043,0,0,0-.687-.223.849.849,0,0,0-.678.272,1.3,1.3,0,0,0-.26.811h-.6a1.674,1.674,0,0,1,.41-1.209,1.532,1.532,0,0,1,1.161-.428,1.745,1.745,0,0,1,1.143.355,1.223,1.223,0,0,1,0,1.871,1.335,1.335,0,0,1-.18.124,1.42,1.42,0,0,1,.318.191,1.189,1.189,0,0,1,.467.989,1.48,1.48,0,0,1-.484,1.144,2.068,2.068,0,0,1-2.509.042,1.739,1.739,0,0,1-.464-1.234h.651a1.317,1.317,0,0,0,.308.832,1.282,1.282,0,0,0,1.543-.014.873.873,0,0,0,.294-.68.887.887,0,0,0-.283-.692,1,1,0,0,0-.623-.249c-.118-.007-.229-.01-.334-.01a1.044,1.044,0,0,0-.21.013v-.543a1.141,1.141,0,0,0,.236.017,2.333,2.333,0,0,0,.314-.02.917.917,0,0,0,.489-.2A.714.714,0,0,0,287.43,332.286Z" transform="translate(-280.809 -322.018)"/>
    <path class="cls-6" d="M290.516,333.319H521.469M290.516,515.365H521.469m0,0V333.319M290.516,515.365V333.319" transform="translate(-280.809 -322.018)"/>
    <path class="cls-7" d="M292.6,424.283a2.127,2.127,0,1,1-2.127-2.127,2.127,2.127,0,0,1,2.127,2.127m10.036,0a2.127,2.127,0,1,1-2.126-2.127,2.126,2.126,0,0,1,2.126,2.127m10.037,0a2.127,2.127,0,1,1-2.126-2.127,2.127,2.127,0,0,1,2.126,2.127M322.706,394a2.127,2.127,0,1,1-2.127-2.127A2.128,2.128,0,0,1,322.706,394m10.036,15.14a2.126,2.126,0,1,1-2.126-2.127,2.126,2.126,0,0,1,2.126,2.127m10.037,30.28a2.127,2.127,0,1,1-2.126-2.126,2.127,2.127,0,0,1,2.126,2.126m10.037,15.14a2.127,2.127,0,1,1-2.127-2.126,2.128,2.128,0,0,1,2.127,2.126m10.036-15.14a2.126,2.126,0,1,1-2.126-2.126,2.126,2.126,0,0,1,2.126,2.126m10.122-30.28a2.127,2.127,0,1,1-2.126-2.127,2.126,2.126,0,0,1,2.126,2.127M383.1,394a2.127,2.127,0,1,1-2.126-2.127A2.127,2.127,0,0,1,383.1,394m10.037,15.14a2.127,2.127,0,1,1-2.127-2.127,2.127,2.127,0,0,1,2.127,2.127m10.036,30.28a2.126,2.126,0,1,1-2.126-2.126,2.126,2.126,0,0,1,2.126,2.126m10.037,15.14a2.127,2.127,0,1,1-2.126-2.126,2.128,2.128,0,0,1,2.126,2.126m10.037-15.14a2.127,2.127,0,1,1-2.127-2.126,2.127,2.127,0,0,1,2.127,2.126m10.036-30.28a2.126,2.126,0,1,1-2.126-2.127,2.126,2.126,0,0,1,2.126,2.127M443.316,394a2.127,2.127,0,1,1-2.126-2.127A2.127,2.127,0,0,1,443.316,394m10.037,15.14a2.127,2.127,0,1,1-2.127-2.127,2.127,2.127,0,0,1,2.127,2.127m10.037,30.28a2.127,2.127,0,1,1-2.127-2.126,2.127,2.127,0,0,1,2.127,2.126m10.036,15.14a2.127,2.127,0,1,1-2.126-2.126,2.127,2.127,0,0,1,2.126,2.126m10.037-15.14a2.127,2.127,0,1,1-2.126-2.126,2.127,2.127,0,0,1,2.126,2.126m10.037-30.28a2.127,2.127,0,1,1-2.127-2.127,2.127,2.127,0,0,1,2.127,2.127M503.536,394a2.127,2.127,0,1,1-2.126-2.127A2.127,2.127,0,0,1,503.536,394m10.037,15.14a2.127,2.127,0,1,1-2.126-2.127,2.127,2.127,0,0,1,2.126,2.127m10.037,30.28a2.127,2.127,0,1,1-2.127-2.126,2.127,2.127,0,0,1,2.127,2.126" transform="translate(-280.809 -322.018)"/>
    <g class="cls-8">
      <path d="M291.263,424.368a.709.709,0,1,1-.709-.709.71.71,0,0,1,.709.709" transform="translate(-280.809 -322.018)"/>
    </g>
    <path d="M301.3,424.368a.709.709,0,1,1-.709-.709.71.71,0,0,1,.709.709" transform="translate(-280.809 -322.018)"/>
    <path d="M311.336,424.368a.709.709,0,1,1-.708-.709.709.709,0,0,1,.708.709" transform="translate(-280.809 -322.018)"/>
    <g class="cls-8">
      <path class="cls-7" d="M320.641,424.342V393.981m10.041,30.361v-15.18m10.042,15.18v15.121m10.041-15.121v30.3m10.041-30.3v15.121m10.042-15.121v-15.18m10.041,15.18V393.981m10.042,30.361v-15.18m10.041,15.18v15.121m10.041-15.121v30.3m10.042-30.3v15.121M431.1,424.342v-15.18m10.042,15.18V393.981m10.041,30.361v-15.18m10.042,15.18v15.121m10.041-15.121v30.3m10.041-30.3v15.121m10.042-15.121v-15.18m10.041,15.18V393.981m10.042,30.361v-15.18m10.041,15.18v15.121" transform="translate(-280.809 -322.018)"/>
      <line class="cls-6" x1="9.708" y1="102.324" x2="240.661" y2="102.324"/>
    </g>
    <g>
      <path class="cls-3" d="M356.545,322.15h.689v5.087h-.689Z" transform="translate(-280.809 -322.018)"/>
      <path class="cls-3" d="M358.332,323.534h.591v.547l.139-.184a1.258,1.258,0,0,1,2.291.8v2.537h-.623v-2.325a1.064,1.064,0,0,0-.189-.7.77.77,0,0,0-.611-.216.852.852,0,0,0-.713.341,1.474,1.474,0,0,0-.262.922v1.983h-.623Z" transform="translate(-280.809 -322.018)"/>
      <path class="cls-3" d="M362.225,323.534h.592v.526l.031-.045a1.223,1.223,0,0,1,1.055-.592,1.431,1.431,0,0,1,1.151.5,2.024,2.024,0,0,1,.424,1.352,2.414,2.414,0,0,1-.427,1.514,1.419,1.419,0,0,1-1.186.549,1.191,1.191,0,0,1-1-.482l-.021-.027V328.7h-.623Zm1.609,3.264a.841.841,0,0,0,.741-.369,1.9,1.9,0,0,0,.253-1.075,1.756,1.756,0,0,0-.243-1.029.86.86,0,0,0-.747-.334.824.824,0,0,0-.753.377,2.316,2.316,0,0,0-.237,1.194,1.435,1.435,0,0,0,.256.914A.879.879,0,0,0,363.834,326.8Z" transform="translate(-280.809 -322.018)"/>
      <path class="cls-3" d="M366.859,325.922a1.009,1.009,0,0,0,.181.673.738.738,0,0,0,.585.206.847.847,0,0,0,.712-.347,1.527,1.527,0,0,0,.263-.944v-1.976h.623v3.7h-.592v-.564a1.439,1.439,0,0,1-.138.19,1.245,1.245,0,0,1-1,.475,1.114,1.114,0,0,1-1.26-1.26v-2.544h.623Z" transform="translate(-280.809 -322.018)"/>
      <path class="cls-3" d="M371.518,327.234a3.5,3.5,0,0,1-.464.048.768.768,0,0,1-.576-.179.906.906,0,0,1-.168-.62v-2.44H369.8v-.509h.512V322.5h.623v1.038h.585v.509h-.585v2.44a.233.233,0,0,0,.1.2.436.436,0,0,0,.265.073h.222Z" transform="translate(-280.809 -322.018)"/>
      <path class="cls-3" d="M376.217,324.607a.645.645,0,0,0-.251-.478.97.97,0,0,0-.6-.169,1.064,1.064,0,0,0-.59.135.444.444,0,0,0-.2.394.343.343,0,0,0,.142.3,1.835,1.835,0,0,0,.564.2l.644.152a1.643,1.643,0,0,1,.772.363.866.866,0,0,1,.23.641,1.063,1.063,0,0,1-.4.872,1.652,1.652,0,0,1-1.071.322,1.839,1.839,0,0,1-1.166-.31,1.29,1.29,0,0,1-.426-.974h.6a.793.793,0,0,0,.279.571,1.193,1.193,0,0,0,.716.176,1.064,1.064,0,0,0,.635-.159.541.541,0,0,0,.216-.464.338.338,0,0,0-.141-.294,1.852,1.852,0,0,0-.572-.2l-.643-.152a1.535,1.535,0,0,1-.744-.349.839.839,0,0,1-.223-.623,1.02,1.02,0,0,1,.372-.83,1.54,1.54,0,0,1,1.009-.306,1.569,1.569,0,0,1,1.029.315,1.133,1.133,0,0,1,.407.869Z" transform="translate(-280.809 -322.018)"/>
      <path class="cls-3" d="M377.654,322.15h.637v.706h-.637Zm.007,1.384h.623v3.7h-.623Z" transform="translate(-280.809 -322.018)"/>
      <path class="cls-3" d="M380.571,328.286a1,1,0,0,0,.817-.337,1.506,1.506,0,0,0,.28-.985v-.121l0,0a1.214,1.214,0,0,1-1,.492,1.431,1.431,0,0,1-1.184-.556,2.351,2.351,0,0,1-.44-1.5,2.011,2.011,0,0,1,.433-1.346,1.408,1.408,0,0,1,1.132-.513,1.218,1.218,0,0,1,1.059.578l.045.066v-.533h.585v3.43a2,2,0,0,1-.423,1.388,1.678,1.678,0,0,1-1.287.45,1.576,1.576,0,0,1-1-.291,1.233,1.233,0,0,1-.447-.844h.637a.717.717,0,0,0,.265.458A.851.851,0,0,0,380.571,328.286Zm.121-4.3a.88.88,0,0,0-.763.332,1.826,1.826,0,0,0-.24,1.056,1.8,1.8,0,0,0,.261,1.05.857.857,0,0,0,.742.369.9.9,0,0,0,.731-.34,1.374,1.374,0,0,0,.277-.9,2.221,2.221,0,0,0-.251-1.178A.839.839,0,0,0,380.692,323.991Z" transform="translate(-280.809 -322.018)"/>
      <path class="cls-3" d="M383.157,323.534h.592v.547l.138-.184a1.259,1.259,0,0,1,2.292.8v2.537h-.623v-2.325a1.064,1.064,0,0,0-.189-.7.772.772,0,0,0-.611-.216.851.851,0,0,0-.713.341,1.475,1.475,0,0,0-.263.922v1.983h-.623Z" transform="translate(-280.809 -322.018)"/>
      <path class="cls-3" d="M388.075,327.338a1.229,1.229,0,0,1-.862-.291,1.013,1.013,0,0,1-.318-.786,1.062,1.062,0,0,1,.3-.792,1.467,1.467,0,0,1,.874-.367l.848-.107a1.324,1.324,0,0,0,.2-.035.319.319,0,0,0,.187-.125.4.4,0,0,0,.066-.235v-.031a.547.547,0,0,0-.225-.465,1.028,1.028,0,0,0-.626-.168.917.917,0,0,0-.6.178.784.784,0,0,0-.261.531h-.575a1.226,1.226,0,0,1,.429-.916,1.733,1.733,0,0,1,1.1-.306,1.577,1.577,0,0,1,1.028.293,1.045,1.045,0,0,1,.353.853V326.6a.2.2,0,0,0,.057.15.208.208,0,0,0,.154.058.611.611,0,0,0,.081-.007c.036,0,.075-.012.116-.021v.45a1.233,1.233,0,0,1-.19.055.858.858,0,0,1-.17.021.623.623,0,0,1-.512-.194.813.813,0,0,1-.149-.363,1.3,1.3,0,0,1-.159.166A1.65,1.65,0,0,1,388.075,327.338Zm1.291-1.568v-.4a1.292,1.292,0,0,1-.384.114l-.571.083a1.54,1.54,0,0,0-.658.21.466.466,0,0,0-.208.4.645.645,0,0,0,.17.479.654.654,0,0,0,.481.168,1.307,1.307,0,0,0,.831-.266.911.911,0,0,0,.308-.423.666.666,0,0,0,.02-.142A2.12,2.12,0,0,0,389.366,325.77Z" transform="translate(-280.809 -322.018)"/>
      <path class="cls-3" d="M391.055,322.15h.623v5.087h-.623Z" transform="translate(-280.809 -322.018)"/>
      <path class="cls-3" d="M395.519,325.327l-1.246-1.793h.8l.854,1.319.856-1.319h.77l-1.246,1.8,1.287,1.9h-.777l-.924-1.411-.908,1.411H394.2Z" transform="translate(-280.809 -322.018)"/>
      <path class="cls-3" d="M398.115,322.115h1.326v.5h-.765v5.51h.765v.5h-1.326Z" transform="translate(-280.809 -322.018)"/>
      <path class="cls-3" d="M400.1,323.534h.591v.547l.139-.184a1.258,1.258,0,0,1,2.291.8v2.537H402.5v-2.325a1.064,1.064,0,0,0-.189-.7.77.77,0,0,0-.611-.216.852.852,0,0,0-.713.341,1.474,1.474,0,0,0-.262.922v1.983H400.1Z" transform="translate(-280.809 -322.018)"/>
      <path class="cls-3" d="M405.1,328.628h-1.326v-.5h.765v-5.51h-.765v-.5H405.1Z" transform="translate(-280.809 -322.018)"/>
      <path class="cls-3" d="M405.826,324.476h3.586V325h-3.586Zm0,1.432h3.586v.523h-3.586Z" transform="translate(-280.809 -322.018)"/>
      <path class="cls-3" d="M413.07,325.9a1.72,1.72,0,0,1-.5,1.066,1.5,1.5,0,0,1-1.059.367,1.451,1.451,0,0,1-1.177-.53,2.163,2.163,0,0,1-.44-1.426,2.121,2.121,0,0,1,.455-1.427,1.532,1.532,0,0,1,1.224-.532,1.513,1.513,0,0,1,1.066.366,1.38,1.38,0,0,1,.426,1h-.6a.847.847,0,0,0-.913-.834.859.859,0,0,0-.74.379,1.783,1.783,0,0,0-.268,1.043,1.86,1.86,0,0,0,.249,1.063.929.929,0,0,0,1.348.122,1.182,1.182,0,0,0,.324-.662Z" transform="translate(-280.809 -322.018)"/>
      <path class="cls-3" d="M413.958,326.8a2.345,2.345,0,0,1,0-2.835,1.709,1.709,0,0,1,2.493,0,2.357,2.357,0,0,1,0,2.835,1.709,1.709,0,0,1-2.493,0Zm2.026-.381a1.994,1.994,0,0,0,0-2.071.984.984,0,0,0-1.563,0,2,2,0,0,0,0,2.071.987.987,0,0,0,1.563,0Z" transform="translate(-280.809 -322.018)"/>
      <path class="cls-3" d="M419.756,324.607a.645.645,0,0,0-.251-.478.97.97,0,0,0-.6-.169,1.066,1.066,0,0,0-.59.135.444.444,0,0,0-.2.394.343.343,0,0,0,.142.3,1.835,1.835,0,0,0,.564.2l.644.152a1.643,1.643,0,0,1,.772.363.866.866,0,0,1,.23.641,1.063,1.063,0,0,1-.4.872,1.652,1.652,0,0,1-1.071.322,1.839,1.839,0,0,1-1.166-.31,1.29,1.29,0,0,1-.426-.974h.6a.8.8,0,0,0,.279.571,1.193,1.193,0,0,0,.716.176,1.064,1.064,0,0,0,.635-.159.541.541,0,0,0,.216-.464.338.338,0,0,0-.141-.294,1.852,1.852,0,0,0-.572-.2l-.643-.152a1.535,1.535,0,0,1-.744-.349.839.839,0,0,1-.223-.623,1.02,1.02,0,0,1,.372-.83,1.54,1.54,0,0,1,1.009-.306,1.569,1.569,0,0,1,1.029.315,1.133,1.133,0,0,1,.407.869Z" transform="translate(-280.809 -322.018)"/>
    </g>
    <path class="cls-3" d="M421.338,325.368a4.833,4.833,0,0,1,.291-1.662,6.914,6.914,0,0,1,.921-1.667h.426a8,8,0,0,0-.739,1.689,5.892,5.892,0,0,0,0,3.288,7.905,7.905,0,0,0,.739,1.685h-.426a6.9,6.9,0,0,1-.921-1.668A4.854,4.854,0,0,1,421.338,325.368Z" transform="translate(-280.809 -322.018)"/>
    <path class="cls-3" d="M426.692,324.067v.5h-.838a10.158,10.158,0,0,0-.121,1.519.82.82,0,0,0,.125.511.384.384,0,0,0,.311.154.368.368,0,0,0,.26-.1.508.508,0,0,0,.142-.3h.121a1.385,1.385,0,0,1-.261.772.6.6,0,0,1-.455.225.539.539,0,0,1-.45-.246,1.654,1.654,0,0,1-.18-.917q0-.423.131-1.613h-.9a12.682,12.682,0,0,1-.26,2.294c-.1.321-.241.482-.419.482a.279.279,0,0,1-.206-.083.287.287,0,0,1-.081-.208.392.392,0,0,1,.028-.156,1.273,1.273,0,0,1,.162-.252,1.715,1.715,0,0,0,.294-.589,6.961,6.961,0,0,0,.194-1.488h-.159a.688.688,0,0,0-.377.083,1.143,1.143,0,0,0-.367.415h-.135a1.876,1.876,0,0,1,.453-.827.815.815,0,0,1,.554-.173Z" transform="translate(-280.809 -322.018)"/>
    <g>
      <path class="cls-3" d="M430.96,322.018l-1.731,5.358h-.473l1.732-5.358Z" transform="translate(-280.809 -322.018)"/>
      <path class="cls-3" d="M433.722,323.608a.717.717,0,0,0-.268-.577,1.038,1.038,0,0,0-.687-.224.849.849,0,0,0-.678.272,1.3,1.3,0,0,0-.26.812h-.605a1.675,1.675,0,0,1,.41-1.21,1.532,1.532,0,0,1,1.161-.428,1.751,1.751,0,0,1,1.143.355,1.223,1.223,0,0,1,0,1.871,1.44,1.44,0,0,1-.18.125,1.417,1.417,0,0,1,.318.19,1.191,1.191,0,0,1,.467.99,1.483,1.483,0,0,1-.484,1.144,2.07,2.07,0,0,1-2.509.041,1.739,1.739,0,0,1-.464-1.234h.651a1.317,1.317,0,0,0,.308.832,1.077,1.077,0,0,0,.787.251,1.09,1.09,0,0,0,.756-.264.96.96,0,0,0,.011-1.372,1,1,0,0,0-.623-.25c-.118-.007-.229-.01-.334-.01a1.02,1.02,0,0,0-.21.014v-.543a1.217,1.217,0,0,0,.236.017,2.333,2.333,0,0,0,.314-.021.917.917,0,0,0,.489-.2A.713.713,0,0,0,433.722,323.608Z" transform="translate(-280.809 -322.018)"/>
      <path class="cls-3" d="M437.215,323.534h.592v.547l.138-.184a1.258,1.258,0,0,1,2.291.8v2.537h-.623v-2.325a1.064,1.064,0,0,0-.189-.7.77.77,0,0,0-.611-.216.85.85,0,0,0-.712.341,1.468,1.468,0,0,0-.263.922v1.983h-.623Z" transform="translate(-280.809 -322.018)"/>
      <path class="cls-3" d="M442.576,325.372a4.815,4.815,0,0,1-.291,1.663,6.928,6.928,0,0,1-.921,1.666h-.426a7.945,7.945,0,0,0,.739-1.689,5.889,5.889,0,0,0,0-3.287,7.84,7.84,0,0,0-.739-1.686h.426a6.9,6.9,0,0,1,.921,1.668A4.83,4.83,0,0,1,442.576,325.372Z" transform="translate(-280.809 -322.018)"/>
      <path class="cls-3" d="M446.13,325.922a1.015,1.015,0,0,0,.18.673.741.741,0,0,0,.585.206.848.848,0,0,0,.713-.347,1.533,1.533,0,0,0,.263-.944v-1.976h.623v3.7H447.9v-.564a1.647,1.647,0,0,1-.138.19,1.248,1.248,0,0,1-1,.475,1.114,1.114,0,0,1-1.26-1.26v-2.544h.623Z" transform="translate(-280.809 -322.018)"/>
      <path class="cls-3" d="M449.414,322.115h1.326v.5h-.765v5.51h.765v.5h-1.326Z" transform="translate(-280.809 -322.018)"/>
      <path class="cls-3" d="M451.4,323.534h.592v.547l.138-.184a1.259,1.259,0,0,1,2.292.8v2.537H453.8v-2.325a1.064,1.064,0,0,0-.189-.7.772.772,0,0,0-.611-.216.851.851,0,0,0-.713.341,1.474,1.474,0,0,0-.262.922v1.983H451.4Z" transform="translate(-280.809 -322.018)"/>
    </g>
    <path class="cls-3" d="M456.735,328.628H455.41v-.5h.764v-5.51h-.764v-.5h1.325Z" transform="translate(-280.809 -322.018)"/>
    <g>
      <path class="cls-3" d="M383.286,528.763a1.011,1.011,0,0,0-.379-.742,1.413,1.413,0,0,0-.9-.262,1.46,1.46,0,0,0-.882.225.77.77,0,0,0-.3.658.508.508,0,0,0,.2.439,2.536,2.536,0,0,0,.807.287l.886.211a1.979,1.979,0,0,1,1.018.5,1.323,1.323,0,0,1,.3.932,1.309,1.309,0,0,1-.524,1.1,2.264,2.264,0,0,1-1.421.406,2.367,2.367,0,0,1-1.558-.468,1.559,1.559,0,0,1-.547-1.26v-.038h.633a1.068,1.068,0,0,0,.4.855,1.694,1.694,0,0,0,1.07.3,1.754,1.754,0,0,0,.963-.217.723.723,0,0,0,.329-.641.66.66,0,0,0-.217-.543,2.4,2.4,0,0,0-.866-.329l-.887-.211a2.045,2.045,0,0,1-.96-.443,1.063,1.063,0,0,1-.286-.786,1.449,1.449,0,0,1,.5-1.158,1.985,1.985,0,0,1,1.341-.427,2.047,2.047,0,0,1,1.366.429,1.566,1.566,0,0,1,.543,1.184Z" transform="translate(-280.809 -322.018)"/>
      <path class="cls-3" d="M385.811,532.477a1.229,1.229,0,0,1-.862-.291,1.014,1.014,0,0,1-.318-.786,1.06,1.06,0,0,1,.3-.793,1.476,1.476,0,0,1,.874-.367l.848-.107a1.326,1.326,0,0,0,.2-.034.319.319,0,0,0,.187-.125.4.4,0,0,0,.066-.236v-.03a.548.548,0,0,0-.225-.466,1.029,1.029,0,0,0-.627-.168.916.916,0,0,0-.6.179.779.779,0,0,0-.261.531h-.575a1.225,1.225,0,0,1,.429-.916,1.733,1.733,0,0,1,1.1-.306,1.577,1.577,0,0,1,1.028.292,1.048,1.048,0,0,1,.353.854v2.034a.195.195,0,0,0,.211.208.624.624,0,0,0,.081-.007c.036,0,.075-.011.116-.02v.449a1.132,1.132,0,0,1-.19.056.927.927,0,0,1-.17.02.626.626,0,0,1-.512-.193.813.813,0,0,1-.149-.363,1.369,1.369,0,0,1-.159.166A1.65,1.65,0,0,1,385.811,532.477Zm1.291-1.569v-.4a1.3,1.3,0,0,1-.384.114l-.572.083a1.522,1.522,0,0,0-.657.21.466.466,0,0,0-.208.4.646.646,0,0,0,.17.48.658.658,0,0,0,.481.168,1.3,1.3,0,0,0,.831-.267.906.906,0,0,0,.308-.423.665.665,0,0,0,.02-.141A2.14,2.14,0,0,0,387.1,530.908Z" transform="translate(-280.809 -322.018)"/>
      <path class="cls-3" d="M388.777,528.673h.592v.55l.128-.166a1.271,1.271,0,0,1,1-.5,1.071,1.071,0,0,1,.793.294.96.96,0,0,1,.2.3l.1-.128a1.228,1.228,0,0,1,.959-.467,1.1,1.1,0,0,1,1.215,1.214v2.6h-.623v-2.388a1.013,1.013,0,0,0-.173-.64.606.606,0,0,0-.5-.218.765.765,0,0,0-.644.314,1.379,1.379,0,0,0-.239.852v2.08h-.623v-2.537a.781.781,0,0,0-.157-.527.572.572,0,0,0-.459-.182.814.814,0,0,0-.68.352,1.476,1.476,0,0,0-.265.911v1.983h-.623Z" transform="translate(-280.809 -322.018)"/>
      <path class="cls-3" d="M394.633,528.673h.592v.526l.031-.045a1.222,1.222,0,0,1,1.056-.592,1.427,1.427,0,0,1,1.15.5,2.017,2.017,0,0,1,.424,1.351,2.4,2.4,0,0,1-.427,1.514,1.419,1.419,0,0,1-1.186.549,1.191,1.191,0,0,1-1-.482l-.021-.027v1.872h-.623Zm1.609,3.264a.842.842,0,0,0,.741-.37,1.9,1.9,0,0,0,.253-1.074,1.764,1.764,0,0,0-.242-1.029.862.862,0,0,0-.748-.334.824.824,0,0,0-.753.377,2.313,2.313,0,0,0-.237,1.194,1.43,1.43,0,0,0,.256.913A.879.879,0,0,0,396.242,531.937Z" transform="translate(-280.809 -322.018)"/>
      <path class="cls-3" d="M398.637,527.288h.623v5.088h-.623Z" transform="translate(-280.809 -322.018)"/>
      <path class="cls-3" d="M401.707,532.477a1.575,1.575,0,0,1-1.235-.5,1.975,1.975,0,0,1-.451-1.377,2.2,2.2,0,0,1,.477-1.487,1.6,1.6,0,0,1,1.278-.552,1.45,1.45,0,0,1,1.174.54,2.158,2.158,0,0,1,.446,1.419l-.007.221h-2.7a1.6,1.6,0,0,0,.252.845.968.968,0,0,0,.831.352,1,1,0,0,0,.622-.2.814.814,0,0,0,.325-.512h.616a1.561,1.561,0,0,1-.554.929A1.7,1.7,0,0,1,401.707,532.477Zm1.04-2.237a1.378,1.378,0,0,0-.256-.8.892.892,0,0,0-.741-.319.955.955,0,0,0-.786.367,1.408,1.408,0,0,0-.28.754Z" transform="translate(-280.809 -322.018)"/>
      <path class="cls-3" d="M406.124,527.288h.636v.706h-.636Zm.006,1.385h.623v3.7h-.623Z" transform="translate(-280.809 -322.018)"/>
      <path class="cls-3" d="M407.685,528.673h.591v.547l.139-.184a1.258,1.258,0,0,1,2.291.8v2.537h-.623V530.05a1.061,1.061,0,0,0-.189-.7.77.77,0,0,0-.611-.216.852.852,0,0,0-.713.341,1.472,1.472,0,0,0-.262.922v1.983h-.623Z" transform="translate(-280.809 -322.018)"/>
      <path class="cls-3" d="M413.039,532.477a1.431,1.431,0,0,1-1.184-.556,2.351,2.351,0,0,1-.44-1.5,2.038,2.038,0,0,1,.426-1.347,1.374,1.374,0,0,1,1.111-.512,1.248,1.248,0,0,1,1.08.578l.048.069v-1.921h.623v5.088h-.578v-.5l-.08.114A1.214,1.214,0,0,1,413.039,532.477Zm.034-3.354a.881.881,0,0,0-.765.334,2.351,2.351,0,0,0,.019,2.116.858.858,0,0,0,.746.37.894.894,0,0,0,.73-.34,1.388,1.388,0,0,0,.277-.9,2.178,2.178,0,0,0-.261-1.168A.835.835,0,0,0,413.073,529.123Z" transform="translate(-280.809 -322.018)"/>
      <path class="cls-3" d="M417.077,532.477a1.577,1.577,0,0,1-1.235-.5,1.979,1.979,0,0,1-.45-1.377,2.2,2.2,0,0,1,.476-1.487,1.6,1.6,0,0,1,1.278-.552,1.45,1.45,0,0,1,1.174.54,2.158,2.158,0,0,1,.446,1.419l-.007.221h-2.705a1.609,1.609,0,0,0,.252.845.968.968,0,0,0,.831.352,1,1,0,0,0,.622-.2.81.81,0,0,0,.325-.512h.616a1.561,1.561,0,0,1-.554.929A1.7,1.7,0,0,1,417.077,532.477Zm1.04-2.237a1.378,1.378,0,0,0-.256-.8.892.892,0,0,0-.741-.319.955.955,0,0,0-.786.367,1.408,1.408,0,0,0-.28.754Z" transform="translate(-280.809 -322.018)"/>
      <path class="cls-3" d="M420.444,530.466l-1.245-1.793h.8l.854,1.318.856-1.318h.77l-1.246,1.8,1.287,1.9h-.777l-.923-1.412-.909,1.412h-.786Z" transform="translate(-280.809 -322.018)"/>
      <path class="cls-3" d="M425.01,527.254h1.325v.5h-.764v5.51h.764v.5H425.01Z" transform="translate(-280.809 -322.018)"/>
      <path class="cls-3" d="M426.993,528.673h.592v.547l.138-.184a1.259,1.259,0,0,1,2.292.8v2.537h-.623V530.05a1.061,1.061,0,0,0-.189-.7.772.772,0,0,0-.611-.216.851.851,0,0,0-.713.341,1.473,1.473,0,0,0-.263.922v1.983h-.623Z" transform="translate(-280.809 -322.018)"/>
    </g>
    <path class="cls-3" d="M431.894,533.768h-1.326v-.5h.765v-5.51h-.765v-.5h1.326Z" transform="translate(-280.809 -322.018)"/>
  </g>
  <g>
    <polyline class="cls-4" points="489.558 194.3 489.558 11.716 721.194 11.716 721.194 194.3 489.558 194.3"/>
    <path class="cls-5" d="M800.58,516.318V333.735m0,0h0m50.356,182.583V333.735m0,0h0m50.355,182.583V333.735m0,0h0m50.356,182.583V333.735m0,0h0M1002,516.318V333.735m0,0h0M770.367,516.318H1002m0,0h0m-231.636-30.45H1002m0,0h0M770.367,455.417H1002m0,0h0M770.367,425.026H1002m0,0h0m-231.636-30.45H1002m0,0h0m-231.636-30.45H1002m0,0h0M770.367,333.735H1002m0,0h0" transform="translate(-280.809 -322.018)"/>
    <path class="cls-6" d="M770.367,333.735H1002M770.367,516.318H1002m0,0V333.735M770.367,516.318V333.735m0,182.583H1002m-231.636,0V333.735M800.58,516.318v-2.369m0-180.214v2.31" transform="translate(-280.809 -322.018)"/>
    <path class="cls-3" d="M799.333,524.379a4.268,4.268,0,0,1,0-3.8,1.536,1.536,0,0,1,2.536,0,4.285,4.285,0,0,1,0,3.8,1.539,1.539,0,0,1-2.536,0Zm2.057-.4a4.477,4.477,0,0,0,0-3.007.85.85,0,0,0-.792-.5.839.839,0,0,0-.785.5,4.429,4.429,0,0,0,0,3.007.839.839,0,0,0,.785.5A.85.85,0,0,0,801.39,523.983Z" transform="translate(-280.809 -322.018)"/>
    <path class="cls-6" d="M850.936,516.318v-2.369m0-180.214v2.31" transform="translate(-280.809 -322.018)"/>
    <path class="cls-3" d="M852.637,523.3a1.709,1.709,0,0,1-.482,1.255,1.656,1.656,0,0,1-1.233.488,1.834,1.834,0,0,1-1.205-.375,1.421,1.421,0,0,1-.507-1.035h.653a.932.932,0,0,0,.336.644,1.167,1.167,0,0,0,.752.228.951.951,0,0,0,.737-.317,1.164,1.164,0,0,0,.285-.812,1.138,1.138,0,0,0-.3-.827,1.077,1.077,0,0,0-.81-.308,1.163,1.163,0,0,0-.532.132.974.974,0,0,0-.391.337l-.527-.035.36-2.665h2.59v.607h-2.121l-.217,1.367.021-.013a1.508,1.508,0,0,1,.872-.286,1.762,1.762,0,0,1,1.254.438A1.539,1.539,0,0,1,852.637,523.3Z" transform="translate(-280.809 -322.018)"/>
    <path class="cls-6" d="M901.291,516.318v-2.369m0-180.214v2.31" transform="translate(-280.809 -322.018)"/>
    <g>
      <path class="cls-3" d="M899.271,521.362H898.1v-.5a1.343,1.343,0,0,0,.839-.221,1.378,1.378,0,0,0,.483-.73h.511v5h-.664Z" transform="translate(-280.809 -322.018)"/>
      <path class="cls-3" d="M902.047,524.379a4.268,4.268,0,0,1,0-3.8,1.535,1.535,0,0,1,2.535,0,4.277,4.277,0,0,1,0,3.8,1.538,1.538,0,0,1-2.535,0Zm2.057-.4a4.493,4.493,0,0,0,0-3.007.87.87,0,0,0-1.577,0,4.429,4.429,0,0,0,0,3.007.872.872,0,0,0,1.577,0Z" transform="translate(-280.809 -322.018)"/>
    </g>
    <path class="cls-6" d="M951.647,516.318v-2.369m0-180.214v2.31" transform="translate(-280.809 -322.018)"/>
    <g>
      <path class="cls-3" d="M949.623,521.362h-1.17v-.5a1.348,1.348,0,0,0,.84-.221,1.377,1.377,0,0,0,.482-.73h.511v5h-.663Z" transform="translate(-280.809 -322.018)"/>
      <path class="cls-3" d="M955.344,523.3a1.712,1.712,0,0,1-.481,1.255,1.66,1.66,0,0,1-1.234.488,1.831,1.831,0,0,1-1.2-.375,1.418,1.418,0,0,1-.507-1.035h.652a.932.932,0,0,0,.336.644,1.169,1.169,0,0,0,.752.228.948.948,0,0,0,.737-.317,1.165,1.165,0,0,0,.286-.812,1.134,1.134,0,0,0-.3-.827,1.076,1.076,0,0,0-.809-.308,1.164,1.164,0,0,0-.533.132.978.978,0,0,0-.39.337l-.528-.035.361-2.665h2.59v.607h-2.122l-.217,1.367.021-.013a1.513,1.513,0,0,1,.872-.286,1.763,1.763,0,0,1,1.255.438A1.542,1.542,0,0,1,955.344,523.3Z" transform="translate(-280.809 -322.018)"/>
    </g>
    <path class="cls-6" d="M1002,516.318v-2.369m0-180.214v2.31" transform="translate(-280.809 -322.018)"/>
    <g>
      <path class="cls-3" d="M1001.7,521.384a1.411,1.411,0,0,1-.283.907,3.633,3.633,0,0,1-1.063.786,3.983,3.983,0,0,0-1.157.851,1.555,1.555,0,0,0-.211.375h2.714v.607h-3.423a2.027,2.027,0,0,1,.393-1.289,4.924,4.924,0,0,1,1.472-1.1,2.408,2.408,0,0,0,.714-.535.98.98,0,0,0,.192-.626.838.838,0,0,0-.285-.654,1.056,1.056,0,0,0-.729-.253.9.9,0,0,0-.73.318,1.435,1.435,0,0,0-.283.9h-.608a1.744,1.744,0,0,1,.441-1.3,1.678,1.678,0,0,1,1.267-.471,1.614,1.614,0,0,1,1.139.413A1.382,1.382,0,0,1,1001.7,521.384Z" transform="translate(-280.809 -322.018)"/>
      <path class="cls-3" d="M1002.756,524.379a4.268,4.268,0,0,1,0-3.8,1.535,1.535,0,0,1,2.535,0,4.285,4.285,0,0,1,0,3.8,1.538,1.538,0,0,1-2.535,0Zm2.057-.4a4.477,4.477,0,0,0,0-3.007.849.849,0,0,0-.792-.5.84.84,0,0,0-.785.5,4.429,4.429,0,0,0,0,3.007.84.84,0,0,0,.785.5A.849.849,0,0,0,1004.813,523.983Z" transform="translate(-280.809 -322.018)"/>
    </g>
    <path class="cls-6" d="M770.367,516.318h2.31m229.326,0h-2.37" transform="translate(-280.809 -322.018)"/>
    <g>
      <path class="cls-3" d="M760.631,516.876h3.359v.524h-3.359Z" transform="translate(-280.809 -322.018)"/>
      <path class="cls-3" d="M767.274,515.288a.719.719,0,0,0-.268-.579,1.047,1.047,0,0,0-.69-.225.85.85,0,0,0-.68.273,1.313,1.313,0,0,0-.261.814h-.607a1.683,1.683,0,0,1,.412-1.214,1.538,1.538,0,0,1,1.164-.428,1.757,1.757,0,0,1,1.147.356,1.225,1.225,0,0,1,0,1.876,1.28,1.28,0,0,1-.18.125,1.46,1.46,0,0,1,.32.192,1.2,1.2,0,0,1,.469.992,1.484,1.484,0,0,1-.487,1.147,2.076,2.076,0,0,1-2.517.042,1.748,1.748,0,0,1-.465-1.238h.652a1.327,1.327,0,0,0,.311.835,1.077,1.077,0,0,0,.789.252,1.094,1.094,0,0,0,.758-.266.874.874,0,0,0,.295-.681.889.889,0,0,0-.285-.7,1.006,1.006,0,0,0-.625-.25c-.118-.007-.229-.011-.335-.011a1.02,1.02,0,0,0-.21.014v-.545a1.126,1.126,0,0,0,.236.018,2.351,2.351,0,0,0,.316-.021.916.916,0,0,0,.49-.2A.719.719,0,0,0,767.274,515.288Z" transform="translate(-280.809 -322.018)"/>
    </g>
    <path class="cls-6" d="M770.367,485.868h2.31m229.326,0h-2.37" transform="translate(-280.809 -322.018)"/>
    <g>
      <path class="cls-3" d="M760.631,486.425h3.359v.524h-3.359Z" transform="translate(-280.809 -322.018)"/>
      <path class="cls-3" d="M767.992,484.95a1.416,1.416,0,0,1-.282.907,3.654,3.654,0,0,1-1.064.787,3.958,3.958,0,0,0-1.156.85,1.558,1.558,0,0,0-.212.375h2.714v.608H764.57a2.025,2.025,0,0,1,.393-1.289,4.914,4.914,0,0,1,1.471-1.1,2.461,2.461,0,0,0,.715-.535.985.985,0,0,0,.191-.626.841.841,0,0,0-.284-.655,1.058,1.058,0,0,0-.73-.253.9.9,0,0,0-.73.319,1.438,1.438,0,0,0-.283.9h-.608a1.75,1.75,0,0,1,.441-1.3,1.683,1.683,0,0,1,1.268-.47,1.606,1.606,0,0,1,1.138.413A1.38,1.38,0,0,1,767.992,484.95Z" transform="translate(-280.809 -322.018)"/>
    </g>
    <path class="cls-6" d="M770.367,455.417h2.31m229.326,0h-2.37" transform="translate(-280.809 -322.018)"/>
    <g>
      <path class="cls-3" d="M760.631,455.972h3.359v.524h-3.359Z" transform="translate(-280.809 -322.018)"/>
      <path class="cls-3" d="M766.274,454.476h-1.169v-.5a1.358,1.358,0,0,0,.84-.222,1.381,1.381,0,0,0,.483-.73h.51v5h-.664Z" transform="translate(-280.809 -322.018)"/>
    </g>
    <path class="cls-6" d="M770.367,425.026h2.31m229.326,0h-2.37" transform="translate(-280.809 -322.018)"/>
    <path class="cls-3" d="M765.094,427.1a4.251,4.251,0,0,1,0-3.8,1.535,1.535,0,0,1,2.535,0,4.285,4.285,0,0,1,0,3.8,1.538,1.538,0,0,1-2.535,0Zm2.056-.4a4.48,4.48,0,0,0,0-3.008.848.848,0,0,0-.792-.5.839.839,0,0,0-.784.5,4.432,4.432,0,0,0,0,3.008.839.839,0,0,0,.784.5A.848.848,0,0,0,767.15,426.705Z" transform="translate(-280.809 -322.018)"/>
    <path class="cls-6" d="M770.367,394.576h2.31m229.326,0h-2.37" transform="translate(-280.809 -322.018)"/>
    <path class="cls-3" d="M766.271,393.639H765.1v-.5a1.349,1.349,0,0,0,.839-.222,1.371,1.371,0,0,0,.483-.729h.511v5h-.664Z" transform="translate(-280.809 -322.018)"/>
    <path class="cls-6" d="M770.367,364.126h2.31m229.326,0h-2.37" transform="translate(-280.809 -322.018)"/>
    <path class="cls-3" d="M767.99,363.207a1.409,1.409,0,0,1-.283.907,3.591,3.591,0,0,1-1.064.786,3.975,3.975,0,0,0-1.156.851,1.558,1.558,0,0,0-.212.375h2.715v.607h-3.423a2.031,2.031,0,0,1,.392-1.289,4.9,4.9,0,0,1,1.473-1.094,2.407,2.407,0,0,0,.714-.536.985.985,0,0,0,.192-.625.838.838,0,0,0-.285-.654,1.051,1.051,0,0,0-.729-.254.9.9,0,0,0-.731.318,1.442,1.442,0,0,0-.282.9H764.7a1.737,1.737,0,0,1,.441-1.3,1.68,1.68,0,0,1,1.266-.47,1.608,1.608,0,0,1,1.139.413A1.379,1.379,0,0,1,767.99,363.207Z" transform="translate(-280.809 -322.018)"/>
    <path class="cls-6" d="M770.367,333.735h2.31m229.326,0h-2.37" transform="translate(-280.809 -322.018)"/>
    <path class="cls-3" d="M767.271,332.7a.719.719,0,0,0-.269-.579,1.042,1.042,0,0,0-.689-.224.85.85,0,0,0-.68.272,1.309,1.309,0,0,0-.26.814h-.607a1.682,1.682,0,0,1,.41-1.213,1.54,1.54,0,0,1,1.165-.429,1.759,1.759,0,0,1,1.147.356,1.226,1.226,0,0,1-.181,2,1.482,1.482,0,0,1,.318.191,1.194,1.194,0,0,1,.469.993,1.482,1.482,0,0,1-.487,1.147,2.073,2.073,0,0,1-2.515.042,1.743,1.743,0,0,1-.465-1.237h.652a1.329,1.329,0,0,0,.309.834,1.284,1.284,0,0,0,1.547-.014.876.876,0,0,0,.3-.682.889.889,0,0,0-.286-.694,1,1,0,0,0-.625-.25c-.118-.007-.229-.01-.334-.01a1.12,1.12,0,0,0-.21.013v-.545a1.106,1.106,0,0,0,.236.018,2.37,2.37,0,0,0,.315-.021.9.9,0,0,0,.49-.2A.712.712,0,0,0,767.271,332.7Z" transform="translate(-280.809 -322.018)"/>
    <path class="cls-6" d="M770.367,333.735H1002M770.367,516.318H1002m0,0V333.735M770.367,516.318V333.735" transform="translate(-280.809 -322.018)"/>
    <path class="cls-7" d="M772.452,424.967a2.133,2.133,0,1,1-2.133-2.133,2.134,2.134,0,0,1,2.133,2.133m10.066,0a2.133,2.133,0,1,1-2.132-2.133,2.133,2.133,0,0,1,2.132,2.133m10.067,0a2.133,2.133,0,1,1-2.133-2.133,2.134,2.134,0,0,1,2.133,2.133m10.066-30.37a2.133,2.133,0,1,1-2.133-2.132,2.133,2.133,0,0,1,2.133,2.132m10.066-45.725a2.133,2.133,0,1,1-2.132-2.133,2.133,2.133,0,0,1,2.132,2.133m10.067,30.54a2.133,2.133,0,1,1-2.133-2.132,2.134,2.134,0,0,1,2.133,2.132m10.066,91.28a2.133,2.133,0,1,1-2.133-2.132,2.133,2.133,0,0,1,2.133,2.132m10.067,45.555a2.133,2.133,0,1,1-2.133-2.133,2.134,2.134,0,0,1,2.133,2.133m10.151-45.555a2.133,2.133,0,1,1-2.132-2.132,2.133,2.133,0,0,1,2.132,2.132m10.152-91.28a2.133,2.133,0,1,1-2.133-2.132,2.133,2.133,0,0,1,2.133,2.132m10.066-45.725a2.133,2.133,0,1,1-2.132-2.133,2.133,2.133,0,0,1,2.132,2.133m10.067,45.725a2.133,2.133,0,1,1-2.133-2.132,2.134,2.134,0,0,1,2.133,2.132m10.066,91.28a2.133,2.133,0,1,1-2.133-2.132,2.133,2.133,0,0,1,2.133,2.132m10.067,45.555a2.133,2.133,0,1,1-2.133-2.133,2.134,2.134,0,0,1,2.133,2.133m10.066-45.555a2.133,2.133,0,1,1-2.133-2.132,2.133,2.133,0,0,1,2.133,2.132m10.066-91.28a2.133,2.133,0,1,1-2.132-2.132,2.133,2.133,0,0,1,2.132,2.132m10.067-45.725a2.133,2.133,0,1,1-2.133-2.133,2.134,2.134,0,0,1,2.133,2.133m10.066,45.725a2.133,2.133,0,1,1-2.133-2.132,2.133,2.133,0,0,1,2.133,2.132m10.067,91.28a2.133,2.133,0,1,1-2.133-2.132,2.134,2.134,0,0,1,2.133,2.132m10.066,45.555a2.133,2.133,0,1,1-2.133-2.133,2.134,2.134,0,0,1,2.133,2.133m10.066-45.555a2.133,2.133,0,1,1-2.132-2.132,2.133,2.133,0,0,1,2.132,2.132m10.067-91.28a2.133,2.133,0,1,1-2.133-2.132,2.134,2.134,0,0,1,2.133,2.132m10.066-45.725a2.133,2.133,0,1,1-2.133-2.133,2.134,2.134,0,0,1,2.133,2.133m10.067,45.725a2.133,2.133,0,1,1-2.133-2.132,2.134,2.134,0,0,1,2.133,2.132" transform="translate(-280.809 -322.018)"/>
    <g class="cls-9">
      <path d="M771.115,425.052a.711.711,0,1,1-.711-.71.711.711,0,0,1,.711.71" transform="translate(-280.809 -322.018)"/>
    </g>
    <path d="M781.182,425.052a.711.711,0,1,1-.711-.71.711.711,0,0,1,.711.71" transform="translate(-280.809 -322.018)"/>
    <path d="M791.248,425.052a.711.711,0,1,1-.711-.71.711.711,0,0,1,.711.71" transform="translate(-280.809 -322.018)"/>
    <g class="cls-9">
      <path class="cls-7" d="M800.58,425.026v-30.45m10.071,30.45V348.9m10.071,76.126V379.351m10.071,45.675v45.617m10.071-45.617v91.292m10.072-91.292v45.617m10.071-45.617V379.351m10.071,45.675V333.735m10.071,91.291V379.351m10.071,45.675v45.617m10.071-45.617v91.292m10.071-91.292v45.617m10.072-45.617V379.351m10.071,45.675V333.735m10.071,91.291V379.351m10.071,45.675v45.617m10.071-45.617v91.292m10.071-91.292v45.617m10.071-45.617V379.351m10.071,45.675V333.735M1002,425.026V379.351" transform="translate(-280.809 -322.018)"/>
      <line class="cls-6" x1="489.558" y1="103.008" x2="721.194" y2="103.008"/>
    </g>
    <path class="cls-10" d="M802.651,394.6a2.133,2.133,0,1,1-2.133-2.132,2.133,2.133,0,0,1,2.133,2.132m10.066-45.725a2.133,2.133,0,1,1-2.132-2.133,2.133,2.133,0,0,1,2.132,2.133" transform="translate(-280.809 -322.018)"/>
    <g class="cls-9">
      <path class="cls-11" d="M771.115,425.052a.711.711,0,1,1-.711-.71.711.711,0,0,1,.711.71" transform="translate(-280.809 -322.018)"/>
    </g>
    <path class="cls-11" d="M781.182,425.052a.711.711,0,1,1-.711-.71.711.711,0,0,1,.711.71" transform="translate(-280.809 -322.018)"/>
    <path class="cls-11" d="M791.248,425.052a.711.711,0,1,1-.711-.71.711.711,0,0,1,.711.71" transform="translate(-280.809 -322.018)"/>
    <path class="cls-10" d="M800.58,425.026v-30.45m10.071,30.45V348.9" transform="translate(-280.809 -322.018)"/>
    <path class="cls-11" d="M821.447,425.052a.711.711,0,1,1-.711-.71.711.711,0,0,1,.711.71" transform="translate(-280.809 -322.018)"/>
    <path class="cls-11" d="M831.514,425.052a.711.711,0,1,1-.711-.71.711.711,0,0,1,.711.71" transform="translate(-280.809 -322.018)"/>
    <path class="cls-11" d="M841.58,425.052a.711.711,0,1,1-.711-.71.711.711,0,0,1,.711.71" transform="translate(-280.809 -322.018)"/>
    <path class="cls-11" d="M851.646,425.052a.711.711,0,1,1-.71-.71.71.71,0,0,1,.71.71" transform="translate(-280.809 -322.018)"/>
    <path class="cls-11" d="M861.713,425.052a.711.711,0,1,1-.711-.71.711.711,0,0,1,.711.71" transform="translate(-280.809 -322.018)"/>
    <path class="cls-11" d="M871.779,425.052a.711.711,0,1,1-.711-.71.711.711,0,0,1,.711.71" transform="translate(-280.809 -322.018)"/>
    <path class="cls-11" d="M881.846,425.052a.711.711,0,1,1-.711-.71.711.711,0,0,1,.711.71" transform="translate(-280.809 -322.018)"/>
    <path class="cls-11" d="M891.912,425.052a.711.711,0,1,1-.711-.71.711.711,0,0,1,.711.71" transform="translate(-280.809 -322.018)"/>
    <path class="cls-11" d="M901.978,425.052a.711.711,0,1,1-.71-.71.71.71,0,0,1,.71.71" transform="translate(-280.809 -322.018)"/>
    <path class="cls-11" d="M912.045,425.052a.711.711,0,1,1-.711-.71.711.711,0,0,1,.711.71" transform="translate(-280.809 -322.018)"/>
    <path class="cls-11" d="M922.111,425.052a.711.711,0,1,1-.711-.71.711.711,0,0,1,.711.71" transform="translate(-280.809 -322.018)"/>
    <path class="cls-11" d="M932.178,425.052a.711.711,0,1,1-.711-.71.711.711,0,0,1,.711.71" transform="translate(-280.809 -322.018)"/>
    <path class="cls-11" d="M942.244,425.052a.711.711,0,1,1-.711-.71.711.711,0,0,1,.711.71" transform="translate(-280.809 -322.018)"/>
    <path class="cls-11" d="M952.31,425.052a.711.711,0,1,1-.71-.71.71.71,0,0,1,.71.71" transform="translate(-280.809 -322.018)"/>
    <path class="cls-11" d="M962.377,425.052a.711.711,0,1,1-.711-.71.711.711,0,0,1,.711.71" transform="translate(-280.809 -322.018)"/>
    <path class="cls-11" d="M972.443,425.052a.711.711,0,1,1-.711-.71.711.711,0,0,1,.711.71" transform="translate(-280.809 -322.018)"/>
    <path class="cls-11" d="M982.6,425.052a.711.711,0,1,1-.711-.71.711.711,0,0,1,.711.71" transform="translate(-280.809 -322.018)"/>
    <g class="cls-9">
      <path class="cls-11" d="M992.661,425.052a.711.711,0,1,1-.711-.71.711.711,0,0,1,.711.71" transform="translate(-280.809 -322.018)"/>
      <path class="cls-11" d="M1002.728,425.052a.711.711,0,1,1-.711-.71.711.711,0,0,1,.711.71" transform="translate(-280.809 -322.018)"/>
    </g>
    <g>
      <path class="cls-3" d="M869.672,327.5a3.105,3.105,0,0,1,0-3.9,2.553,2.553,0,0,1,3.6,0,3.109,3.109,0,0,1,0,3.9,2.558,2.558,0,0,1-3.6,0Zm3.086-.442a2.559,2.559,0,0,0,0-3.012,1.728,1.728,0,0,0-2.572,0,2.564,2.564,0,0,0,0,3.012,1.732,1.732,0,0,0,2.572,0Z" transform="translate(-280.809 -322.018)"/>
      <path class="cls-3" d="M875.345,326.788a1.011,1.011,0,0,0,.18.674.742.742,0,0,0,.586.207.848.848,0,0,0,.715-.349,1.532,1.532,0,0,0,.265-.945v-1.983h.624v3.714h-.593v-.565a1.631,1.631,0,0,1-.14.19,1.246,1.246,0,0,1-1,.476,1.116,1.116,0,0,1-1.263-1.264v-2.551h.625Z" transform="translate(-280.809 -322.018)"/>
      <path class="cls-3" d="M880.017,328.1a3.544,3.544,0,0,1-.465.048.766.766,0,0,1-.578-.18.9.9,0,0,1-.169-.621V324.9h-.514v-.51h.514v-1.041h.625v1.041h.587v.51h-.587v2.448a.231.231,0,0,0,.1.2.439.439,0,0,0,.266.074h.222Z" transform="translate(-280.809 -322.018)"/>
      <path class="cls-3" d="M880.579,324.392h.594v.528l.031-.045a1.228,1.228,0,0,1,1.059-.594,1.434,1.434,0,0,1,1.154.5,2.029,2.029,0,0,1,.425,1.355,2.419,2.419,0,0,1-.428,1.519,1.425,1.425,0,0,1-1.189.55,1.2,1.2,0,0,1-1-.482l-.021-.028v1.878h-.625Zm1.614,3.274a.843.843,0,0,0,.743-.37,1.906,1.906,0,0,0,.253-1.078,1.765,1.765,0,0,0-.243-1.032.86.86,0,0,0-.749-.335.828.828,0,0,0-.756.378,2.323,2.323,0,0,0-.237,1.2,1.438,1.438,0,0,0,.257.917A.881.881,0,0,0,882.193,327.666Z" transform="translate(-280.809 -322.018)"/>
      <path class="cls-3" d="M885.227,326.788a1.016,1.016,0,0,0,.18.674.741.741,0,0,0,.587.207.848.848,0,0,0,.715-.349,1.532,1.532,0,0,0,.264-.945v-1.983h.625v3.714H887v-.565a1.516,1.516,0,0,1-.139.19,1.248,1.248,0,0,1-1,.476,1.117,1.117,0,0,1-1.263-1.264v-2.551h.625Z" transform="translate(-280.809 -322.018)"/>
      <path class="cls-3" d="M889.9,328.1a3.5,3.5,0,0,1-.464.048.772.772,0,0,1-.579-.18.911.911,0,0,1-.167-.621V324.9h-.514v-.51h.514v-1.041h.625v1.041h.585v.51h-.585v2.448a.231.231,0,0,0,.1.2.434.434,0,0,0,.265.074h.221Z" transform="translate(-280.809 -322.018)"/>
      <path class="cls-3" d="M894.086,328.228a3.679,3.679,0,0,1-.582,1.121,1.018,1.018,0,0,1-.766.264.952.952,0,0,1-.3-.038V329a1.106,1.106,0,0,0,.358.056.438.438,0,0,0,.353-.174,2.509,2.509,0,0,0,.323-.648l.01-.06h0l-1.377-3.777h.712l.993,3.072,1-3.072h.684Z" transform="translate(-280.809 -322.018)"/>
      <path class="cls-3" d="M896.025,322.969h1.33v.5h-.767V329h.767v.5h-1.33Z" transform="translate(-280.809 -322.018)"/>
      <path class="cls-3" d="M898.016,324.392h.592v.549l.14-.184a1.261,1.261,0,0,1,2.3.805v2.544h-.625v-2.332a1.068,1.068,0,0,0-.189-.707.776.776,0,0,0-.612-.216.857.857,0,0,0-.716.341,1.485,1.485,0,0,0-.263.926v1.988h-.624Z" transform="translate(-280.809 -322.018)"/>
    </g>
    <path class="cls-3" d="M902.664,329.5h-1.329V329h.767v-5.527h-.767v-.5h1.329Z" transform="translate(-280.809 -322.018)"/>
    <g>
      <path class="cls-3" d="M863.411,529.755a1.02,1.02,0,0,0-.38-.744,1.417,1.417,0,0,0-.9-.263,1.459,1.459,0,0,0-.885.226.771.771,0,0,0-.3.66.507.507,0,0,0,.2.44,2.49,2.49,0,0,0,.808.288l.889.212a1.994,1.994,0,0,1,1.021.5,1.479,1.479,0,0,1-.219,2.034,2.268,2.268,0,0,1-1.425.407,2.375,2.375,0,0,1-1.564-.469,1.563,1.563,0,0,1-.548-1.264v-.038h.635a1.07,1.07,0,0,0,.4.857,1.692,1.692,0,0,0,1.074.3,1.749,1.749,0,0,0,.965-.219.722.722,0,0,0,.33-.642.665.665,0,0,0-.217-.545,2.44,2.44,0,0,0-.869-.33l-.889-.211a2.039,2.039,0,0,1-.963-.444,1.064,1.064,0,0,1-.287-.788,1.454,1.454,0,0,1,.5-1.162,1.987,1.987,0,0,1,1.344-.428,2.061,2.061,0,0,1,1.371.429,1.577,1.577,0,0,1,.545,1.188Z" transform="translate(-280.809 -322.018)"/>
      <path class="cls-3" d="M865.943,533.479a1.23,1.23,0,0,1-.864-.291,1.015,1.015,0,0,1-.319-.788,1.057,1.057,0,0,1,.3-.795,1.474,1.474,0,0,1,.876-.368l.85-.107a1.324,1.324,0,0,0,.2-.035.315.315,0,0,0,.188-.125.4.4,0,0,0,.066-.237V530.7a.553.553,0,0,0-.225-.467,1.037,1.037,0,0,0-.628-.168.923.923,0,0,0-.6.179.785.785,0,0,0-.262.533h-.577a1.233,1.233,0,0,1,.431-.919,1.741,1.741,0,0,1,1.105-.306,1.575,1.575,0,0,1,1.03.293,1.048,1.048,0,0,1,.354.855v2.042a.2.2,0,0,0,.211.208.818.818,0,0,0,.082-.007c.036,0,.074-.011.116-.021v.451a1.234,1.234,0,0,1-.19.056.858.858,0,0,1-.17.021.629.629,0,0,1-.514-.194.822.822,0,0,1-.15-.365,1.38,1.38,0,0,1-.159.167A1.655,1.655,0,0,1,865.943,533.479Zm1.3-1.572v-.4a1.322,1.322,0,0,1-.384.114l-.574.083a1.541,1.541,0,0,0-.659.21.468.468,0,0,0-.209.4.649.649,0,0,0,.17.481.658.658,0,0,0,.482.168,1.306,1.306,0,0,0,.834-.267.9.9,0,0,0,.309-.424.718.718,0,0,0,.022-.142C867.234,532.063,867.238,531.988,867.238,531.907Z" transform="translate(-280.809 -322.018)"/>
      <path class="cls-3" d="M868.918,529.665h.594v.552l.129-.167a1.27,1.27,0,0,1,1-.5,1.07,1.07,0,0,1,.794.3.947.947,0,0,1,.205.3l.1-.128a1.227,1.227,0,0,1,.961-.468,1.107,1.107,0,0,1,1.219,1.218v2.607H873.3v-2.4a1.01,1.01,0,0,0-.174-.641.606.606,0,0,0-.506-.219.772.772,0,0,0-.646.315,1.382,1.382,0,0,0-.24.855v2.086h-.625v-2.544a.791.791,0,0,0-.157-.53.579.579,0,0,0-.461-.182.816.816,0,0,0-.681.354,1.476,1.476,0,0,0-.266.913v1.989h-.625Z" transform="translate(-280.809 -322.018)"/>
      <path class="cls-3" d="M874.791,529.665h.594v.527l.031-.045a1.229,1.229,0,0,1,1.059-.593,1.432,1.432,0,0,1,1.154.5,2.029,2.029,0,0,1,.426,1.355,2.413,2.413,0,0,1-.429,1.519,1.425,1.425,0,0,1-1.188.549,1.2,1.2,0,0,1-1-.482l-.022-.027v1.878h-.625Zm1.615,3.273a.844.844,0,0,0,.742-.37,1.9,1.9,0,0,0,.254-1.078,1.766,1.766,0,0,0-.244-1.032.86.86,0,0,0-.749-.335.826.826,0,0,0-.755.378,2.326,2.326,0,0,0-.238,1.2,1.433,1.433,0,0,0,.258.916A.879.879,0,0,0,876.406,532.938Z" transform="translate(-280.809 -322.018)"/>
      <path class="cls-3" d="M878.808,528.276h.625v5.1h-.625Z" transform="translate(-280.809 -322.018)"/>
      <path class="cls-3" d="M881.887,533.479a1.584,1.584,0,0,1-1.24-.5,1.988,1.988,0,0,1-.451-1.38,2.206,2.206,0,0,1,.478-1.492,1.607,1.607,0,0,1,1.282-.553,1.455,1.455,0,0,1,1.177.541,2.16,2.16,0,0,1,.447,1.424l-.007.221H880.86a1.626,1.626,0,0,0,.253.848.972.972,0,0,0,.833.353,1,1,0,0,0,.624-.2.81.81,0,0,0,.326-.513h.619a1.57,1.57,0,0,1-.556.931A1.7,1.7,0,0,1,881.887,533.479Zm1.043-2.242a1.391,1.391,0,0,0-.258-.8.889.889,0,0,0-.742-.32.959.959,0,0,0-.788.368,1.411,1.411,0,0,0-.282.757Z" transform="translate(-280.809 -322.018)"/>
      <path class="cls-3" d="M886.316,528.276h.639v.708h-.639Zm.006,1.389h.625v3.714h-.625Z" transform="translate(-280.809 -322.018)"/>
      <path class="cls-3" d="M887.882,529.665h.593v.548l.139-.184a1.262,1.262,0,0,1,2.3.806v2.544h-.625v-2.333a1.06,1.06,0,0,0-.189-.706.772.772,0,0,0-.613-.217.856.856,0,0,0-.715.342,1.474,1.474,0,0,0-.264.925v1.989h-.624Z" transform="translate(-280.809 -322.018)"/>
      <path class="cls-3" d="M893.252,533.479a1.436,1.436,0,0,1-1.188-.556,2.367,2.367,0,0,1-.441-1.5,2.044,2.044,0,0,1,.428-1.351,1.379,1.379,0,0,1,1.113-.513,1.25,1.25,0,0,1,1.084.58l.049.069v-1.927h.624v5.1h-.579v-.507l-.08.114A1.221,1.221,0,0,1,893.252,533.479Zm.034-3.363a.883.883,0,0,0-.766.335,2.343,2.343,0,0,0,.018,2.122.86.86,0,0,0,.748.372.9.9,0,0,0,.733-.341,1.4,1.4,0,0,0,.278-.905,2.183,2.183,0,0,0-.263-1.172A.837.837,0,0,0,893.286,530.116Z" transform="translate(-280.809 -322.018)"/>
      <path class="cls-3" d="M897.3,533.479a1.582,1.582,0,0,1-1.24-.5,1.983,1.983,0,0,1-.452-1.38,2.211,2.211,0,0,1,.478-1.492,1.607,1.607,0,0,1,1.282-.553,1.455,1.455,0,0,1,1.178.541,2.16,2.16,0,0,1,.447,1.424l-.008.221h-2.713a1.617,1.617,0,0,0,.254.848.971.971,0,0,0,.832.353,1.007,1.007,0,0,0,.625-.2.819.819,0,0,0,.327-.513h.617a1.564,1.564,0,0,1-.555.931A1.7,1.7,0,0,1,897.3,533.479Zm1.043-2.242a1.405,1.405,0,0,0-.258-.8.89.89,0,0,0-.742-.32.961.961,0,0,0-.789.368,1.428,1.428,0,0,0-.282.757Z" transform="translate(-280.809 -322.018)"/>
      <path class="cls-3" d="M900.68,531.463l-1.25-1.8h.807l.857,1.322.858-1.322h.773l-1.25,1.809,1.291,1.9h-.78l-.925-1.416-.913,1.416h-.787Z" transform="translate(-280.809 -322.018)"/>
      <path class="cls-3" d="M905.258,528.241h1.33v.5h-.768v5.526h.768v.5h-1.33Z" transform="translate(-280.809 -322.018)"/>
      <path class="cls-3" d="M907.248,529.665h.593v.548l.139-.184a1.261,1.261,0,0,1,2.3.806v2.544h-.625v-2.333a1.065,1.065,0,0,0-.188-.706.772.772,0,0,0-.612-.217.858.858,0,0,0-.716.342,1.474,1.474,0,0,0-.264.925v1.989h-.624Z" transform="translate(-280.809 -322.018)"/>
    </g>
    <path class="cls-3" d="M912.162,534.774h-1.329v-.5h.767v-5.526h-.767v-.5h1.329Z" transform="translate(-280.809 -322.018)"/>
  </g>
</svg>
