<svg xmlns:xlink="http://www.w3.org/1999/xlink" width="78.851ex" height="6.176ex" style="vertical-align: -4.171ex;" viewBox="0 -863.1 33949.5 2659.1" role="img" focusable="false" xmlns="http://www.w3.org/2000/svg"><defs><path stroke-width="1" id="E1-MJMATHI-78" d="M52 289Q59 331 106 386T222 442Q257 442 286 424T329 379Q371 442 430 442Q467 442 494 420T522 361Q522 332 508 314T481 292T458 288Q439 288 427 299T415 328Q415 374 465 391Q454 404 425 404Q412 404 406 402Q368 386 350 336Q290 115 290 78Q290 50 306 38T341 26Q378 26 414 59T463 140Q466 150 469 151T485 153H489Q504 153 504 145Q504 144 502 134Q486 77 440 33T333 -11Q263 -11 227 52Q186 -10 133 -10H127Q78 -10 57 16T35 71Q35 103 54 123T99 143Q142 143 142 101Q142 81 130 66T107 46T94 41L91 40Q91 39 97 36T113 29T132 26Q168 26 194 71Q203 87 217 139T245 247T261 313Q266 340 266 352Q266 380 251 392T217 404Q177 404 142 372T93 290Q91 281 88 280T72 278H58Q52 284 52 289Z"></path><path stroke-width="1" id="E1-MJMAIN-31" d="M213 578L200 573Q186 568 160 563T102 556H83V602H102Q149 604 189 617T245 641T273 663Q275 666 285 666Q294 666 302 660V361L303 61Q310 54 315 52T339 48T401 46H427V0H416Q395 3 257 3Q121 3 100 0H88V46H114Q136 46 152 46T177 47T193 50T201 52T207 57T213 61V578Z"></path><path stroke-width="1" id="E1-MJMAIN-5B" d="M118 -250V750H255V710H158V-210H255V-250H118Z"></path><path stroke-width="1" id="E1-MJMATHI-6E" d="M21 287Q22 293 24 303T36 341T56 388T89 425T135 442Q171 442 195 424T225 390T231 369Q231 367 232 367L243 378Q304 442 382 442Q436 442 469 415T503 336T465 179T427 52Q427 26 444 26Q450 26 453 27Q482 32 505 65T540 145Q542 153 560 153Q580 153 580 145Q580 144 576 130Q568 101 554 73T508 17T439 -10Q392 -10 371 17T350 73Q350 92 386 193T423 345Q423 404 379 404H374Q288 404 229 303L222 291L189 157Q156 26 151 16Q138 -11 108 -11Q95 -11 87 -5T76 7T74 17Q74 30 112 180T152 343Q153 348 153 366Q153 405 129 405Q91 405 66 305Q60 285 60 284Q58 278 41 278H27Q21 284 21 287Z"></path><path stroke-width="1" id="E1-MJMAIN-5D" d="M22 710V750H159V-250H22V-210H119V710H22Z"></path><path stroke-width="1" id="E1-MJMAIN-3D" d="M56 347Q56 360 70 367H707Q722 359 722 347Q722 336 708 328L390 327H72Q56 332 56 347ZM56 153Q56 168 72 173H708Q722 163 722 153Q722 140 707 133H70Q56 140 56 153Z"></path><path stroke-width="1" id="E1-MJMATHI-3B4" d="M195 609Q195 656 227 686T302 717Q319 716 351 709T407 697T433 690Q451 682 451 662Q451 644 438 628T403 612Q382 612 348 641T288 671T249 657T235 628Q235 584 334 463Q401 379 401 292Q401 169 340 80T205 -10H198Q127 -10 83 36T36 153Q36 286 151 382Q191 413 252 434Q252 435 245 449T230 481T214 521T201 566T195 609ZM112 130Q112 83 136 55T204 27Q233 27 256 51T291 111T309 178T316 232Q316 267 309 298T295 344T269 400L259 396Q215 381 183 342T137 256T118 179T112 130Z"></path><path stroke-width="1" id="E1-MJMAIN-2B" d="M56 237T56 250T70 270H369V420L370 570Q380 583 389 583Q402 583 409 568V270H707Q722 262 722 250T707 230H409V-68Q401 -82 391 -82H389H387Q375 -82 369 -68V230H70Q56 237 56 250Z"></path><path stroke-width="1" id="E1-MJMAIN-2212" d="M84 237T84 250T98 270H679Q694 262 694 250T679 230H98Q84 237 84 250Z"></path><path stroke-width="1" id="E1-MJMAIN-2192" d="M56 237T56 250T70 270H835Q719 357 692 493Q692 494 692 496T691 499Q691 511 708 511H711Q720 511 723 510T729 506T732 497T735 481T743 456Q765 389 816 336T935 261Q944 258 944 250Q944 244 939 241T915 231T877 212Q836 186 806 152T761 85T740 35T732 4Q730 -6 727 -8T711 -11Q691 -11 691 0Q691 7 696 25Q728 151 835 230H70Q56 237 56 250Z"></path><path stroke-width="1" id="E1-MJMATHI-79" d="M21 287Q21 301 36 335T84 406T158 442Q199 442 224 419T250 355Q248 336 247 334Q247 331 231 288T198 191T182 105Q182 62 196 45T238 27Q261 27 281 38T312 61T339 94Q339 95 344 114T358 173T377 247Q415 397 419 404Q432 431 462 431Q475 431 483 424T494 412T496 403Q496 390 447 193T391 -23Q363 -106 294 -155T156 -205Q111 -205 77 -183T43 -117Q43 -95 50 -80T69 -58T89 -48T106 -45Q150 -45 150 -87Q150 -107 138 -122T115 -142T102 -147L99 -148Q101 -153 118 -160T152 -167H160Q177 -167 186 -165Q219 -156 247 -127T290 -65T313 -9T321 21L315 17Q309 13 296 6T270 -6Q250 -11 231 -11Q185 -11 150 11T104 82Q103 89 103 113Q103 170 138 262T173 379Q173 380 173 381Q173 390 173 393T169 400T158 404H154Q131 404 112 385T82 344T65 302T57 280Q55 278 41 278H27Q21 284 21 287Z"></path><path stroke-width="1" id="E1-MJMAIN-32" d="M109 429Q82 429 66 447T50 491Q50 562 103 614T235 666Q326 666 387 610T449 465Q449 422 429 383T381 315T301 241Q265 210 201 149L142 93L218 92Q375 92 385 97Q392 99 409 186V189H449V186Q448 183 436 95T421 3V0H50V19V31Q50 38 56 46T86 81Q115 113 136 137Q145 147 170 174T204 211T233 244T261 278T284 308T305 340T320 369T333 401T340 431T343 464Q343 527 309 573T212 619Q179 619 154 602T119 569T109 550Q109 549 114 549Q132 549 151 535T170 489Q170 464 154 447T109 429Z"></path><path stroke-width="1" id="E1-MJMAIN-33" d="M127 463Q100 463 85 480T69 524Q69 579 117 622T233 665Q268 665 277 664Q351 652 390 611T430 522Q430 470 396 421T302 350L299 348Q299 347 308 345T337 336T375 315Q457 262 457 175Q457 96 395 37T238 -22Q158 -22 100 21T42 130Q42 158 60 175T105 193Q133 193 151 175T169 130Q169 119 166 110T159 94T148 82T136 74T126 70T118 67L114 66Q165 21 238 21Q293 21 321 74Q338 107 338 175V195Q338 290 274 322Q259 328 213 329L171 330L168 332Q166 335 166 348Q166 366 174 366Q202 366 232 371Q266 376 294 413T322 525V533Q322 590 287 612Q265 626 240 626Q208 626 181 615T143 592T132 580H135Q138 579 143 578T153 573T165 566T175 555T183 540T186 520Q186 498 172 481T127 463Z"></path></defs><g stroke="currentColor" fill="currentColor" stroke-width="0" transform="matrix(1 0 0 -1 0 0)"><use href="#E1-MJMATHI-78" x="0" y="0"></use><use transform="scale(0.707)" href="#E1-MJMAIN-31" x="809" y="-213"></use><use href="#E1-MJMAIN-5B" x="1026" y="0"></use><use href="#E1-MJMATHI-6E" x="1304" y="0"></use><use href="#E1-MJMAIN-5D" x="1905" y="0"></use><use href="#E1-MJMAIN-3D" x="2461" y="0"></use><use href="#E1-MJMATHI-3B4" x="3517" y="0"></use><use href="#E1-MJMAIN-5B" x="3969" y="0"></use><use href="#E1-MJMATHI-6E" x="4247" y="0"></use><use href="#E1-MJMAIN-5D" x="4848" y="0"></use><use href="#E1-MJMAIN-2B" x="5349" y="0"></use><use href="#E1-MJMATHI-3B4" x="6349" y="0"></use><use href="#E1-MJMAIN-5B" x="6801" y="0"></use><use href="#E1-MJMATHI-6E" x="7079" y="0"></use><use href="#E1-MJMAIN-2212" x="7902" y="0"></use><use href="#E1-MJMAIN-31" x="8903" y="0"></use><use href="#E1-MJMAIN-5D" x="9403" y="0"></use><use href="#E1-MJMAIN-2192" x="11960" y="0"></use><g transform="translate(15238,0)"><use href="#E1-MJMATHI-79" x="0" y="0"></use><use transform="scale(0.707)" href="#E1-MJMAIN-31" x="693" y="-213"></use></g><use href="#E1-MJMAIN-5B" x="16182" y="0"></use><use href="#E1-MJMATHI-6E" x="16461" y="0"></use><use href="#E1-MJMAIN-5D" x="17061" y="0"></use><use href="#E1-MJMAIN-3D" x="17618" y="0"></use><use href="#E1-MJMATHI-3B4" x="18674" y="0"></use><use href="#E1-MJMAIN-5B" x="19125" y="0"></use><use href="#E1-MJMATHI-6E" x="19404" y="0"></use><use href="#E1-MJMAIN-5D" x="20004" y="0"></use><use href="#E1-MJMAIN-2B" x="20505" y="0"></use><use href="#E1-MJMATHI-3B4" x="21506" y="0"></use><use href="#E1-MJMAIN-5B" x="21957" y="0"></use><use href="#E1-MJMATHI-6E" x="22236" y="0"></use><use href="#E1-MJMAIN-2212" x="23059" y="0"></use><use href="#E1-MJMAIN-31" x="24059" y="0"></use><use href="#E1-MJMAIN-5D" x="24560" y="0"></use><use href="#E1-MJMAIN-2212" x="25060" y="0"></use><use href="#E1-MJMATHI-3B4" x="26061" y="0"></use><use href="#E1-MJMAIN-5B" x="26513" y="0"></use><use href="#E1-MJMATHI-6E" x="26791" y="0"></use><use href="#E1-MJMAIN-2212" x="27614" y="0"></use><use href="#E1-MJMAIN-32" x="28615" y="0"></use><use href="#E1-MJMAIN-5D" x="29115" y="0"></use><use href="#E1-MJMAIN-2212" x="29616" y="0"></use><use href="#E1-MJMATHI-3B4" x="30617" y="0"></use><use href="#E1-MJMAIN-5B" x="31068" y="0"></use><use href="#E1-MJMATHI-6E" x="31347" y="0"></use><use href="#E1-MJMAIN-2212" x="32169" y="0"></use><use href="#E1-MJMAIN-33" x="33170" y="0"></use><use href="#E1-MJMAIN-5D" x="33671" y="0"></use><g transform="translate(0,-1433)"><use href="#E1-MJMATHI-78" x="0" y="0"></use><use transform="scale(0.707)" href="#E1-MJMAIN-32" x="809" y="-213"></use><use href="#E1-MJMAIN-5B" x="1026" y="0"></use><use href="#E1-MJMATHI-6E" x="1304" y="0"></use><use href="#E1-MJMAIN-5D" x="1905" y="0"></use><use href="#E1-MJMAIN-3D" x="2461" y="0"></use><use href="#E1-MJMATHI-3B4" x="3517" y="0"></use><use href="#E1-MJMAIN-5B" x="3969" y="0"></use><use href="#E1-MJMATHI-6E" x="4247" y="0"></use><use href="#E1-MJMAIN-5D" x="4848" y="0"></use><use href="#E1-MJMAIN-2212" x="5349" y="0"></use><use href="#E1-MJMATHI-3B4" x="6349" y="0"></use><use href="#E1-MJMAIN-5B" x="6801" y="0"></use><use href="#E1-MJMATHI-6E" x="7079" y="0"></use><use href="#E1-MJMAIN-2212" x="7902" y="0"></use><use href="#E1-MJMAIN-31" x="8903" y="0"></use><use href="#E1-MJMAIN-5D" x="9403" y="0"></use><use href="#E1-MJMAIN-2192" x="11960" y="0"></use><g transform="translate(15238,0)"><use href="#E1-MJMATHI-79" x="0" y="0"></use><use transform="scale(0.707)" href="#E1-MJMAIN-32" x="693" y="-213"></use></g><use href="#E1-MJMAIN-5B" x="16182" y="0"></use><use href="#E1-MJMATHI-6E" x="16461" y="0"></use><use href="#E1-MJMAIN-5D" x="17061" y="0"></use><use href="#E1-MJMAIN-3D" x="17618" y="0"></use><use href="#E1-MJMATHI-3B4" x="18674" y="0"></use><use href="#E1-MJMAIN-5B" x="19125" y="0"></use><use href="#E1-MJMATHI-6E" x="19404" y="0"></use><use href="#E1-MJMAIN-5D" x="20004" y="0"></use><use href="#E1-MJMAIN-2212" x="20505" y="0"></use><use href="#E1-MJMATHI-3B4" x="21506" y="0"></use><use href="#E1-MJMAIN-5B" x="21957" y="0"></use><use href="#E1-MJMATHI-6E" x="22236" y="0"></use><use href="#E1-MJMAIN-2212" x="23059" y="0"></use><use href="#E1-MJMAIN-31" x="24059" y="0"></use><use href="#E1-MJMAIN-5D" x="24560" y="0"></use><use href="#E1-MJMAIN-2212" x="25060" y="0"></use><use href="#E1-MJMATHI-3B4" x="26061" y="0"></use><use href="#E1-MJMAIN-5B" x="26513" y="0"></use><use href="#E1-MJMATHI-6E" x="26791" y="0"></use><use href="#E1-MJMAIN-2212" x="27614" y="0"></use><use href="#E1-MJMAIN-32" x="28615" y="0"></use><use href="#E1-MJMAIN-5D" x="29115" y="0"></use><use href="#E1-MJMAIN-2B" x="29616" y="0"></use><use href="#E1-MJMATHI-3B4" x="30617" y="0"></use><use href="#E1-MJMAIN-5B" x="31068" y="0"></use><use href="#E1-MJMATHI-6E" x="31347" y="0"></use><use href="#E1-MJMAIN-2212" x="32169" y="0"></use><use href="#E1-MJMAIN-33" x="33170" y="0"></use><use href="#E1-MJMAIN-5D" x="33671" y="0"></use></g></g></svg>