<?xml version="1.0" encoding="utf-8"?>
<!-- Generator: Adobe Illustrator 22.1.0, SVG Export Plug-In . SVG Version: 6.00 Build 0)  -->
<svg version="1.1" id="Layer_1" xmlns="http://www.w3.org/2000/svg" xmlns:xlink="http://www.w3.org/1999/xlink" x="0px" y="0px"
	 viewBox="0 0 384.4 79" style="enable-background:new 0 0 384.4 79;" xml:space="preserve">
<style type="text/css">
	.st0{fill:none;stroke:#000000;stroke-width:0.8504;stroke-miterlimit:10;}
	.st1{fill:#1D1D1B;}
	.st2{fill:none;stroke:#FF0000;stroke-width:1.7008;stroke-miterlimit:10;}
	.st3{fill:none;stroke:#FF0000;stroke-width:1.1338;stroke-miterlimit:10;stroke-dasharray:2.8346,2.8346;}
	.st4{fill:none;stroke:#000000;stroke-width:0.8504;stroke-linecap:round;stroke-miterlimit:10;stroke-dasharray:0,3.6603;}
</style>
<g>
	<polyline points="84.7,47.1 89.2,44.8 84.7,42.6 85.8,44.8 	"/>
	<line class="st0" x1="0.7" y1="44.8" x2="85.8" y2="44.8"/>
	<g>
		<path class="st1" d="M0.1,53.3v-0.6h2.6v0.6H0.1z"/>
		<path class="st1" d="M6.4,54.4c0.2,0,0.9,0,0.9-0.1c0.1-0.1,0.2-0.6,0.2-0.9h0.2l-0.3,1.7H3.9c0-0.2,0-0.3,0.1-0.4l1.9-2.1
			c0.5-0.6,1-1.4,1-2.2c0-0.8-0.4-1.6-1.3-1.6c-0.6,0-1.1,0.4-1.3,1c0,0,0,0,0.1,0c0.3,0,0.5,0.3,0.5,0.5c0,0.4-0.3,0.5-0.5,0.5
			c0,0-0.5,0-0.5-0.6c0-0.9,0.7-1.8,1.9-1.8c1.2,0,2.1,0.8,2.1,1.9c0,1-0.6,1.5-2.2,2.9l-1.1,1H6.4z"/>
	</g>
	<g>
		<path class="st1" d="M14.3,53.3v-0.6h2.6v0.6H14.3z"/>
		<path class="st1" d="M20.5,54.4c0,0.4,0,0.5,0.9,0.5h0.3v0.3c-0.3,0-1.2,0-1.6,0c-0.4,0-1.3,0-1.6,0v-0.3h0.3
			c0.9,0,0.9-0.1,0.9-0.5v-5.2c-0.5,0.3-1.1,0.3-1.3,0.3v-0.3c0.3,0,1.2,0,1.8-0.6c0.2,0,0.2,0,0.2,0.3V54.4z"/>
	</g>
	<g>
		<path class="st1" d="M34.2,54.2c-0.4,0.9-1.2,1.2-1.7,1.2c-0.5,0-1.2-0.2-1.6-1c-0.4-0.8-0.4-1.7-0.4-2.4c0-0.8,0-1.6,0.4-2.3
			c0.4-0.9,1.1-1.2,1.7-1.2c0.4,0,1.2,0.2,1.7,1.1c0.3,0.7,0.4,1.5,0.4,2.3C34.6,52.8,34.6,53.5,34.2,54.2z M33.7,53.9
			c0.1-0.6,0.1-1.3,0.1-2.1c0-0.6,0-1.4-0.1-1.9c-0.2-1-0.8-1.2-1.2-1.2c-0.2,0-1,0.1-1.2,1.3c-0.1,0.5-0.1,1.2-0.1,1.8
			c0,0.6,0,1.5,0.1,2.1c0.2,1,0.8,1.2,1.2,1.2C33,55.2,33.5,54.9,33.7,53.9z"/>
		<path class="st1" d="M47.1,54.4c0,0.4,0,0.5,0.9,0.5h0.3v0.3c-0.3,0-1.2,0-1.6,0c-0.4,0-1.3,0-1.6,0v-0.3h0.3
			c0.9,0,0.9-0.1,0.9-0.5v-5.2c-0.5,0.3-1.1,0.3-1.3,0.3v-0.3c0.3,0,1.2,0,1.8-0.6c0.2,0,0.2,0,0.2,0.3V54.4z"/>
		<path class="st1" d="M61.4,54.4c0.2,0,0.9,0,0.9-0.1c0.1-0.1,0.2-0.6,0.2-0.9h0.2l-0.3,1.7h-3.7c0-0.2,0-0.3,0.1-0.4l1.9-2.1
			c0.5-0.6,1-1.4,1-2.2c0-0.8-0.4-1.6-1.3-1.6c-0.6,0-1.1,0.4-1.3,1c0,0,0,0,0.1,0c0.3,0,0.5,0.3,0.5,0.5c0,0.4-0.3,0.5-0.5,0.5
			c0,0-0.5,0-0.5-0.6c0-0.9,0.7-1.8,1.9-1.8c1.2,0,2.1,0.8,2.1,1.9c0,1-0.6,1.5-2.2,2.9l-1.1,1H61.4z"/>
		<path class="st1" d="M77.1,53.5c0,1-0.9,1.9-2.1,1.9c-1.1,0-2-0.7-2-1.6c0-0.4,0.3-0.6,0.6-0.6c0.3,0,0.6,0.2,0.6,0.6
			c0,0.4-0.3,0.6-0.7,0.5c0.3,0.6,1.1,0.8,1.5,0.8c0.4,0,1.1-0.3,1.1-1.6c0-1-0.4-1.7-1.2-1.7h-0.4c-0.2,0-0.2,0-0.2-0.1
			c0-0.1,0.1-0.1,0.1-0.1c0.1,0,0.3,0,0.4,0c0.2,0,0.6,0,0.9-0.5c0.3-0.4,0.3-1,0.3-1.1c0-0.9-0.5-1.1-1-1.1c-0.4,0-1,0.1-1.3,0.6
			c0.1,0,0.6,0,0.6,0.5c0,0.3-0.2,0.5-0.5,0.5c-0.3,0-0.5-0.2-0.5-0.5c0-0.8,0.8-1.4,1.8-1.4c1,0,1.8,0.6,1.8,1.4
			c0,0.8-0.6,1.5-1.4,1.8C76.5,51.9,77.1,52.6,77.1,53.5z"/>
	</g>
	<polyline points="34.8,10.4 32.5,5.9 30.3,10.4 32.5,9.3 	"/>
	<line class="st0" x1="32.5" y1="48.4" x2="32.5" y2="9.3"/>
	<g>
		<path class="st1" d="M32.5,18.1c-1.1,0-1.9-0.9-1.9-1.9c0-1,0.9-1.9,1.9-1.9c1,0,1.9,0.9,1.9,1.9C34.4,17.2,33.6,18.1,32.5,18.1z"
			/>
	</g>
	<g>
		<path class="st1" d="M4.2,46.4c-1.1,0-1.9-0.9-1.9-1.9c0-1,0.9-1.9,1.9-1.9c1,0,1.9,0.9,1.9,1.9S5.2,46.4,4.2,46.4z"/>
		<path class="st1" d="M18.3,46.4c-1.1,0-1.9-0.9-1.9-1.9c0-1,0.9-1.9,1.9-1.9c1,0,1.9,0.9,1.9,1.9S19.4,46.4,18.3,46.4z"/>
	</g>
	<g>
		<path class="st1" d="M75,46.4c-1.1,0-1.9-0.9-1.9-1.9c0-1,0.9-1.9,1.9-1.9c1,0,1.9,0.9,1.9,1.9S76.1,46.4,75,46.4z"/>
	</g>
	<g>
		<path class="st1" d="M46.7,46.4c-1.1,0-1.9-0.9-1.9-1.9c0-1,0.9-1.9,1.9-1.9c1,0,1.9,0.9,1.9,1.9S47.7,46.4,46.7,46.4z"/>
		<path class="st1" d="M60.9,46.4c-1.1,0-1.9-0.9-1.9-1.9c0-1,0.9-1.9,1.9-1.9c1,0,1.9,0.9,1.9,1.9S61.9,46.4,60.9,46.4z"/>
	</g>
	<line class="st0" x1="29" y1="16.5" x2="36.1" y2="16.5"/>
	<line class="st2" x1="32.5" y1="44.8" x2="32.5" y2="16.5"/>
	<g>
		<path class="st1" d="M84.1,51.2c0.1-0.5,0.2-0.6,0.2-0.8c0-0.3-0.1-0.5-0.3-0.5c-0.4,0-0.6,0.5-0.7,1.2c-0.1,0.2-0.1,0.2-0.2,0.2
			c0,0-0.1,0-0.1-0.1c0,0,0.1-0.6,0.3-1c0.1-0.2,0.3-0.6,0.7-0.6c0.5,0,0.9,0.3,0.9,0.9c0.2-0.2,0.7-0.9,1.6-0.9
			c0.7,0,1.1,0.4,1.1,1.1c0,0.6-0.4,1.7-0.6,2.2c-0.1,0.2-0.2,0.5-0.2,0.7c0,0.2,0.1,0.3,0.2,0.3c0.5,0,0.8-0.6,1-1.2
			c0-0.1,0-0.2,0.1-0.2c0,0,0.1,0,0.1,0.1c0,0.1-0.4,1.5-1.3,1.5c-0.5,0-0.8-0.3-0.8-0.8c0-0.1,0-0.2,0.1-0.5
			c0.2-0.4,0.6-1.7,0.6-2.3c0-0.3-0.1-0.7-0.5-0.7c-0.9,0-1.5,0.9-1.6,1.2c0,0-0.1,0.3-0.1,0.5c0,0.2-0.1,0.4-0.2,0.7l-0.2,0.9
			c-0.1,0.2-0.2,0.7-0.2,0.7c-0.1,0.2-0.2,0.3-0.4,0.3c-0.1,0-0.3-0.1-0.3-0.3c0,0,0.1-0.3,0.1-0.4L84.1,51.2z"/>
	</g>
	<g>
		<path class="st1" d="M22.3,18.9c0,0.4,0,0.5,0.9,0.5h0.3v0.3c-0.3,0-1.2,0-1.6,0c-0.4,0-1.3,0-1.6,0v-0.3h0.3
			c0.9,0,0.9-0.1,0.9-0.5v-5.2C21.1,14,20.5,14,20.3,14v-0.3c0.3,0,1.2,0,1.8-0.6c0.2,0,0.2,0,0.2,0.3V18.9z"/>
	</g>
	<g>
		<path class="st1" d="M40.6,5.9c0-0.6,0.4-1,1.1-1c0.2,0,0.3,0,0.8,0.1c0.4,0.1,0.5,0.1,0.5,0.3c0,0.2-0.1,0.4-0.4,0.4
			c-0.1,0-0.3-0.1-0.5-0.2c-0.2-0.1-0.4-0.3-0.7-0.3c-0.3,0-0.5,0.2-0.5,0.5c0,0.4,0.6,1.2,0.9,1.6c0.3,0.4,0.7,0.9,0.7,1.9
			c0,1.4-0.8,2.9-2,2.9c-0.9,0-1.6-0.7-1.6-1.7c0-1.2,1-2.5,2.2-2.8C40.9,7,40.6,6.4,40.6,5.9z M39.6,10.6c0,0.8,0.4,1.2,1,1.2
			c0.9,0,1.3-1.7,1.3-2.3c0-0.7-0.3-1.3-0.5-1.7C40,8.1,39.6,10,39.6,10.6z"/>
	</g>
	<g>
		<path class="st1" d="M44.5,14.4v-10h1.4v0.4h-1V14h1v0.4H44.5z"/>
	</g>
	<g>
		<path class="st1" d="M47.6,9c0.1-0.5,0.2-0.6,0.2-0.8c0-0.3-0.1-0.5-0.3-0.5c-0.4,0-0.6,0.5-0.7,1.2c-0.1,0.2-0.1,0.2-0.2,0.2
			c0,0-0.1,0-0.1-0.1c0,0,0.1-0.6,0.3-1c0.1-0.2,0.3-0.6,0.7-0.6c0.5,0,0.9,0.3,0.9,0.9c0.2-0.2,0.7-0.9,1.6-0.9
			c0.7,0,1.1,0.4,1.1,1.1c0,0.6-0.4,1.7-0.6,2.2c-0.1,0.2-0.2,0.5-0.2,0.7c0,0.2,0.1,0.3,0.2,0.3c0.5,0,0.8-0.6,1-1.2
			c0-0.1,0-0.2,0.1-0.2c0,0,0.1,0,0.1,0.1c0,0.1-0.4,1.5-1.3,1.5c-0.5,0-0.8-0.3-0.8-0.8c0-0.1,0-0.2,0.1-0.5
			c0.2-0.4,0.6-1.7,0.6-2.3c0-0.3-0.1-0.7-0.5-0.7c-0.9,0-1.5,0.9-1.6,1.2c0,0-0.1,0.3-0.1,0.5c0,0.2-0.1,0.4-0.2,0.7L47.8,11
			c-0.1,0.2-0.2,0.7-0.2,0.7C47.5,12,47.3,12,47.2,12c-0.1,0-0.3-0.1-0.3-0.3c0-0.1,0.1-0.3,0.1-0.4L47.6,9z"/>
	</g>
	<g>
		<path class="st1" d="M53.7,14.4h-1.4V14h1V4.8h-1V4.4h1.4V14.4z"/>
	</g>
	<polyline points="191,47.1 195.5,44.8 191,42.6 192.1,44.8 	"/>
	<line class="st0" x1="110.5" y1="44.8" x2="192.1" y2="44.8"/>
	<g>
		<path class="st1" d="M106.4,53.3v-0.6h2.6v0.6H106.4z"/>
		<path class="st1" d="M112.7,54.4c0.2,0,0.9,0,0.9-0.1c0.1-0.1,0.2-0.6,0.2-0.9h0.2l-0.3,1.7h-3.7c0-0.2,0-0.3,0.1-0.4l1.9-2.1
			c0.5-0.6,1-1.4,1-2.2c0-0.8-0.4-1.6-1.3-1.6c-0.6,0-1.1,0.4-1.3,1c0,0,0,0,0.1,0c0.3,0,0.5,0.3,0.5,0.5c0,0.4-0.3,0.5-0.5,0.5
			c0,0-0.5,0-0.5-0.6c0-0.9,0.7-1.8,1.9-1.8c1.2,0,2.1,0.8,2.1,1.9c0,1-0.6,1.5-2.2,2.9l-1.1,1H112.7z"/>
	</g>
	<g>
		<path class="st1" d="M120.6,53.3v-0.6h2.6v0.6H120.6z"/>
		<path class="st1" d="M126.8,54.4c0,0.4,0,0.5,0.9,0.5h0.3v0.3c-0.3,0-1.2,0-1.6,0c-0.4,0-1.3,0-1.6,0v-0.3h0.3
			c0.9,0,0.9-0.1,0.9-0.5v-5.2c-0.5,0.3-1.1,0.3-1.3,0.3v-0.3c0.3,0,1.2,0,1.8-0.6c0.2,0,0.2,0,0.2,0.3V54.4z"/>
	</g>
	<g>
		<path class="st1" d="M140.5,54.2c-0.4,0.9-1.2,1.2-1.7,1.2c-0.5,0-1.2-0.2-1.6-1c-0.4-0.8-0.4-1.7-0.4-2.4c0-0.8,0-1.6,0.4-2.3
			c0.4-0.9,1.1-1.2,1.7-1.2c0.4,0,1.2,0.2,1.7,1.1c0.3,0.7,0.4,1.5,0.4,2.3C140.9,52.8,140.9,53.5,140.5,54.2z M140,53.9
			c0.1-0.6,0.1-1.3,0.1-2.1c0-0.6,0-1.4-0.1-1.9c-0.2-1-0.8-1.2-1.2-1.2c-0.2,0-1,0.1-1.2,1.3c-0.1,0.5-0.1,1.2-0.1,1.8
			c0,0.6,0,1.5,0.1,2.1c0.2,1,0.8,1.2,1.2,1.2C139.3,55.2,139.8,54.9,140,53.9z"/>
		<path class="st1" d="M153.4,54.4c0,0.4,0,0.5,0.9,0.5h0.3v0.3c-0.3,0-1.2,0-1.6,0c-0.4,0-1.3,0-1.6,0v-0.3h0.3
			c0.9,0,0.9-0.1,0.9-0.5v-5.2c-0.5,0.3-1.1,0.3-1.3,0.3v-0.3c0.3,0,1.2,0,1.8-0.6c0.2,0,0.2,0,0.2,0.3V54.4z"/>
		<path class="st1" d="M167.7,54.4c0.2,0,0.9,0,0.9-0.1c0.1-0.1,0.2-0.6,0.2-0.9h0.2l-0.3,1.7h-3.7c0-0.2,0-0.3,0.1-0.4l1.9-2.1
			c0.5-0.6,1-1.4,1-2.2c0-0.8-0.4-1.6-1.3-1.6c-0.6,0-1.1,0.4-1.3,1c0,0,0,0,0.1,0c0.3,0,0.5,0.3,0.5,0.5c0,0.4-0.3,0.5-0.5,0.5
			c0,0-0.5,0-0.5-0.6c0-0.9,0.7-1.8,1.9-1.8c1.2,0,2.1,0.8,2.1,1.9c0,1-0.6,1.5-2.2,2.9l-1.1,1H167.7z"/>
		<path class="st1" d="M183.4,53.5c0,1-0.9,1.9-2.1,1.9c-1.1,0-2-0.7-2-1.6c0-0.4,0.3-0.6,0.6-0.6c0.3,0,0.6,0.2,0.6,0.6
			c0,0.4-0.3,0.6-0.7,0.5c0.3,0.6,1.1,0.8,1.5,0.8c0.4,0,1.1-0.3,1.1-1.6c0-1-0.4-1.7-1.2-1.7h-0.4c-0.2,0-0.2,0-0.2-0.1
			c0-0.1,0.1-0.1,0.1-0.1c0.1,0,0.3,0,0.4,0c0.2,0,0.6,0,0.9-0.5c0.3-0.4,0.3-1,0.3-1.1c0-0.9-0.5-1.1-1-1.1c-0.4,0-1,0.1-1.3,0.6
			c0.1,0,0.6,0,0.6,0.5c0,0.3-0.2,0.5-0.5,0.5c-0.3,0-0.5-0.2-0.5-0.5c0-0.8,0.8-1.4,1.8-1.4c1,0,1.8,0.6,1.8,1.4
			c0,0.8-0.6,1.5-1.4,1.8C182.8,51.9,183.4,52.6,183.4,53.5z"/>
	</g>
	<polyline points="141.1,10.4 138.8,5.9 136.6,10.4 138.8,9.3 	"/>
	<line class="st0" x1="138.8" y1="48.4" x2="138.8" y2="9.3"/>
	<g>
		<path class="st1" d="M110.5,46.4c-1.1,0-1.9-0.9-1.9-1.9c0-1,0.9-1.9,1.9-1.9c1,0,1.9,0.9,1.9,1.9S111.5,46.4,110.5,46.4z"/>
		<path class="st1" d="M124.7,46.4c-1.1,0-1.9-0.9-1.9-1.9c0-1,0.9-1.9,1.9-1.9c1,0,1.9,0.9,1.9,1.9S125.7,46.4,124.7,46.4z"/>
	</g>
	<line class="st0" x1="135.3" y1="16.5" x2="142.4" y2="16.5"/>
	<g>
		<path class="st1" d="M190.5,51.2c0.1-0.5,0.2-0.6,0.2-0.8c0-0.3-0.1-0.5-0.3-0.5c-0.4,0-0.6,0.5-0.7,1.2c-0.1,0.2-0.1,0.2-0.2,0.2
			c0,0-0.1,0-0.1-0.1c0,0,0.1-0.6,0.3-1c0.1-0.2,0.3-0.6,0.7-0.6c0.5,0,0.9,0.3,0.9,0.9c0.2-0.2,0.7-0.9,1.6-0.9
			c0.7,0,1.1,0.4,1.1,1.1c0,0.6-0.4,1.7-0.6,2.2c-0.1,0.2-0.2,0.5-0.2,0.7c0,0.2,0.1,0.3,0.2,0.3c0.5,0,0.8-0.6,1-1.2
			c0.1-0.1,0.1-0.2,0.2-0.2c0,0,0.1,0,0.1,0.1c0,0.1-0.4,1.5-1.3,1.5c-0.5,0-0.8-0.3-0.8-0.8c0-0.1,0-0.2,0.1-0.5
			c0.2-0.4,0.6-1.7,0.6-2.3c0-0.3-0.1-0.7-0.5-0.7c-0.9,0-1.5,0.9-1.6,1.2c0,0-0.1,0.3-0.1,0.5c0,0.2-0.1,0.4-0.2,0.7l-0.2,0.9
			c-0.1,0.2-0.2,0.7-0.2,0.7c-0.1,0.2-0.2,0.3-0.4,0.3c-0.1,0-0.3-0.1-0.3-0.3c0,0,0.1-0.3,0.1-0.4L190.5,51.2z"/>
	</g>
	<g>
		<path class="st1" d="M128.6,18.9c0,0.4,0,0.5,0.9,0.5h0.3v0.3c-0.3,0-1.2,0-1.6,0c-0.4,0-1.3,0-1.6,0v-0.3h0.3
			c0.9,0,0.9-0.1,0.9-0.5v-5.2c-0.5,0.3-1.1,0.3-1.3,0.3v-0.3c0.3,0,1.2,0,1.8-0.6c0.2,0,0.2,0,0.2,0.3V18.9z"/>
	</g>
	<g>
		<path class="st1" d="M146.7,8.5c-0.5,0-1.2-0.2-1.2-1.2c0-0.5,0.2-1.1,0.6-2.1c0.1-0.1,0.2-0.4,0.2-0.7c0-0.3-0.2-0.3-0.2-0.3
			c-0.4,0-0.8,0.4-1,1.2c0,0.2-0.1,0.2-0.2,0.2c0,0-0.1,0-0.1-0.1c0-0.1,0.4-1.5,1.3-1.5c0.5,0,0.8,0.4,0.8,0.8c0,0.2,0,0.3-0.2,0.6
			c-0.3,0.7-0.5,1.5-0.5,2c0,0.4,0.1,0.8,0.6,0.8c0.7,0,1.1-0.8,1.1-0.8c0.1-0.5,0.6-2.3,0.7-3c0.1-0.3,0.3-0.3,0.4-0.3
			c0.1,0,0.3,0.1,0.3,0.3c0,0.1-0.1,0.4-0.1,0.7c0,0.1-0.1,0.5-0.2,0.7l-0.3,1.1c-0.1,0.3-0.2,0.8-0.2,1c0,0.3,0.1,0.5,0.3,0.5
			c0.4,0,0.6-0.7,0.7-1.2c0-0.1,0-0.2,0.1-0.2c0,0,0.1,0,0.1,0.1c0,0-0.1,0.6-0.3,1c-0.2,0.3-0.4,0.5-0.7,0.5
			c-0.4,0-0.8-0.3-0.9-0.7C147.7,8,147.3,8.5,146.7,8.5z"/>
	</g>
	<g>
		<path class="st1" d="M151.3,10.9v-10h1.4v0.4h-1v9.2h1v0.4H151.3z"/>
	</g>
	<g>
		<path class="st1" d="M154.4,5.5c0.1-0.5,0.2-0.6,0.2-0.8c0-0.3-0.1-0.5-0.3-0.5c-0.4,0-0.6,0.5-0.7,1.2c-0.1,0.2-0.1,0.2-0.2,0.2
			c0,0-0.1,0-0.1-0.1c0,0,0.1-0.6,0.3-1c0.1-0.2,0.3-0.6,0.7-0.6c0.5,0,0.9,0.3,0.9,0.9c0.2-0.2,0.7-0.9,1.6-0.9
			c0.7,0,1.1,0.4,1.1,1.1c0,0.6-0.4,1.7-0.6,2.2c-0.1,0.2-0.2,0.5-0.2,0.7c0,0.2,0.1,0.3,0.2,0.3c0.5,0,0.8-0.6,1-1.2
			c0-0.1,0-0.2,0.1-0.2c0,0,0.1,0,0.1,0.1c0,0.1-0.4,1.5-1.3,1.5c-0.5,0-0.8-0.3-0.8-0.8c0-0.1,0-0.2,0.1-0.5
			c0.2-0.4,0.6-1.7,0.6-2.3c0-0.3-0.1-0.7-0.5-0.7c-0.9,0-1.5,0.9-1.6,1.2c0,0-0.1,0.3-0.1,0.5c0,0.2-0.1,0.4-0.2,0.7l-0.2,0.9
			c-0.1,0.2-0.2,0.7-0.2,0.7c-0.1,0.2-0.2,0.3-0.4,0.3c-0.1,0-0.3-0.1-0.3-0.3c0-0.1,0.1-0.3,0.1-0.4L154.4,5.5z"/>
	</g>
	<g>
		<path class="st1" d="M160.5,10.9h-1.4v-0.4h1V1.3h-1V0.9h1.4V10.9z"/>
	</g>
	<g>
		<path class="st1" d="M167.2,18.1c-1.1,0-1.9-0.9-1.9-1.9c0-1,0.9-1.9,1.9-1.9c1,0,1.9,0.9,1.9,1.9
			C169.1,17.2,168.2,18.1,167.2,18.1z"/>
	</g>
	<line class="st2" x1="167.2" y1="44.8" x2="167.2" y2="16.5"/>
	<g>
		<path class="st1" d="M138.8,18.1c-1.1,0-1.9-0.9-1.9-1.9c0-1,0.9-1.9,1.9-1.9c1,0,1.9,0.9,1.9,1.9
			C140.8,17.2,139.9,18.1,138.8,18.1z"/>
	</g>
	<line class="st2" x1="138.8" y1="44.8" x2="138.8" y2="16.5"/>
	<g>
		<path class="st1" d="M153,18.1c-1.1,0-1.9-0.9-1.9-1.9c0-1,0.9-1.9,1.9-1.9c1,0,1.9,0.9,1.9,1.9C154.9,17.2,154,18.1,153,18.1z"/>
	</g>
	<line class="st2" x1="153" y1="44.8" x2="153" y2="16.5"/>
	<g>
		<path class="st1" d="M181.3,18.1c-1.1,0-1.9-0.9-1.9-1.9c0-1,0.9-1.9,1.9-1.9c1,0,1.9,0.9,1.9,1.9
			C183.3,17.2,182.4,18.1,181.3,18.1z"/>
	</g>
	<line class="st2" x1="181.4" y1="44.8" x2="181.4" y2="16.5"/>
	<line class="st3" x1="184.9" y1="30.7" x2="199.1" y2="30.7"/>
	<polyline points="368.2,47.1 372.7,44.8 368.2,42.6 369.3,44.8 	"/>
	<line class="st0" x1="213.3" y1="44.8" x2="369.3" y2="44.8"/>
	<polyline points="247.4,13.8 245.1,9.3 242.9,13.8 245.1,12.7 	"/>
	<line class="st0" x1="245.1" y1="76.8" x2="245.1" y2="12.7"/>
	<g>
		<path class="st1" d="M259.3,67.8c-1.1,0-1.9-0.9-1.9-1.9c0-1,0.9-1.9,1.9-1.9c1,0,1.9,0.9,1.9,1.9S260.3,67.8,259.3,67.8z"/>
	</g>
	<line class="st2" x1="259.3" y1="66.2" x2="259.3" y2="44.8"/>
	<g>
		<path class="st1" d="M273.5,32.2c-1.1,0-1.9-0.9-1.9-1.9c0-1,0.9-1.9,1.9-1.9c1,0,1.9,0.9,1.9,1.9
			C275.4,31.3,274.5,32.2,273.5,32.2z"/>
	</g>
	<line class="st2" x1="273.5" y1="44.8" x2="273.5" y2="30.6"/>
	<path class="st4" d="M245.1,16.4c0,0,18.1,10.4,28.3,14.2c9.4,3.5,18.4,5.3,28.3,7.1c9.7,1.8,18.5,2.6,28.3,3.5
		c9.8,0.9,28.3,1.8,28.3,1.8l0,0"/>
	<path class="st4" d="M245.1,73.3c0,0,18.1-10.4,28.3-14.2c9.4-3.5,18.4-5.3,28.3-7.1c9.7-1.8,18.5-2.6,28.3-3.5
		c9.8-0.9,28.3-1.8,28.3-1.8l0,0"/>
	<line class="st2" x1="287.7" y1="55.5" x2="287.7" y2="44.8"/>
	<g>
		<path class="st1" d="M287.6,57.1c-1.1,0-1.9-0.9-1.9-1.9c0-1,0.9-1.9,1.9-1.9c1,0,1.9,0.9,1.9,1.9S288.7,57.1,287.6,57.1z"/>
	</g>
	<g>
		<path class="st1" d="M301.8,39.3c-1.1,0-1.9-0.9-1.9-1.9c0-1,0.9-1.9,1.9-1.9c1,0,1.9,0.9,1.9,1.9
			C303.7,38.5,302.9,39.3,301.8,39.3z"/>
	</g>
	<path class="st2" d="M301.8,44.8v-7.1 M316,50.2v-5.3"/>
	<g>
		<path class="st1" d="M316,51.8c-1.1,0-1.9-0.9-1.9-1.9c0-1,0.9-1.9,1.9-1.9c1,0,1.9,0.9,1.9,1.9S317,51.8,316,51.8z"/>
	</g>
	<g>
		<path class="st1" d="M330.2,42.9c-1.1,0-1.9-0.9-1.9-1.9c0-1,0.9-1.9,1.9-1.9c1,0,1.9,0.9,1.9,1.9S331.2,42.9,330.2,42.9z"/>
	</g>
	<path class="st2" d="M330.2,44.8v-3.6 M344.4,47.5v-2.7"/>
	<g>
		<path class="st1" d="M344.3,50c-1.1,0-1.9-0.9-1.9-1.9c0-1,0.9-1.9,1.9-1.9c1,0,1.9,0.9,1.9,1.9S345.4,50,344.3,50z"/>
	</g>
	<line class="st2" x1="358.5" y1="44.8" x2="358.5" y2="43.1"/>
	<g>
		<path class="st1" d="M358.5,44.7c-1.1,0-1.9-0.9-1.9-1.9c0-1,0.9-1.9,1.9-1.9c1,0,1.9,0.9,1.9,1.9S359.6,44.7,358.5,44.7z"/>
	</g>
	<g>
		<path class="st1" d="M230.9,46.4c-1.1,0-1.9-0.9-1.9-1.9c0-1,0.9-1.9,1.9-1.9c1,0,1.9,0.9,1.9,1.9S232,46.4,230.9,46.4z"/>
	</g>
	<g>
		<path class="st1" d="M216.8,46.4c-1.1,0-1.9-0.9-1.9-1.9c0-1,0.9-1.9,1.9-1.9c1,0,1.9,0.9,1.9,1.9S217.8,46.4,216.8,46.4z"/>
	</g>
	<g>
		<path class="st1" d="M371.2,51.2c0.1-0.5,0.2-0.6,0.2-0.8c0-0.3-0.1-0.5-0.3-0.5c-0.4,0-0.6,0.5-0.7,1.2c-0.1,0.2-0.1,0.2-0.2,0.2
			c0,0-0.1,0-0.1-0.1c0,0,0.1-0.6,0.3-1c0.1-0.2,0.3-0.6,0.7-0.6c0.5,0,0.9,0.3,0.9,0.9c0.2-0.2,0.7-0.9,1.6-0.9
			c0.7,0,1.1,0.4,1.1,1.1c0,0.6-0.4,1.7-0.6,2.2c-0.1,0.2-0.2,0.5-0.2,0.7c0,0.2,0.1,0.3,0.2,0.3c0.5,0,0.8-0.6,1-1.2
			c0.1-0.1,0.1-0.2,0.2-0.2c0,0,0.1,0,0.1,0.1c0,0.1-0.4,1.5-1.3,1.5c-0.5,0-0.8-0.3-0.8-0.8c0-0.1,0-0.2,0.1-0.5
			c0.2-0.4,0.6-1.7,0.6-2.3c0-0.3-0.1-0.7-0.5-0.7c-0.9,0-1.5,0.9-1.6,1.2c0,0-0.1,0.3-0.1,0.5c0,0.2-0.1,0.4-0.2,0.7l-0.2,0.9
			c-0.1,0.2-0.2,0.7-0.2,0.7c-0.1,0.2-0.2,0.3-0.4,0.3c-0.1,0-0.3-0.1-0.3-0.3c0,0,0.1-0.3,0.1-0.4L371.2,51.2z"/>
	</g>
	<g>
		<path class="st1" d="M255.4,14.4c-0.1,0-1-0.6-1.6-1.9c-0.5-1.1-0.7-2.3-0.7-3.1c0-0.8,0.1-1.9,0.6-3c0.6-1.3,1.5-1.9,1.6-1.9
			c0.1,0,0.1,0,0.1,0.1c0,0,0,0-0.1,0.2c-1.2,1.2-1.6,3-1.6,4.7c0,1.5,0.3,3.4,1.6,4.7C255.5,14.3,255.5,14.3,255.4,14.4
			C255.5,14.4,255.5,14.4,255.4,14.4z"/>
	</g>
	<g>
		<path class="st1" d="M257.2,9.6c-0.2,0-0.3,0-0.3-0.2c0-0.2,0.2-0.2,0.3-0.2h5.4c0.2,0,0.3,0,0.3,0.2c0,0.2-0.2,0.2-0.3,0.2H257.2
			z"/>
	</g>
	<g>
		<path class="st1" d="M268.1,11c-0.4,0.9-1.2,1.2-1.7,1.2c-0.5,0-1.2-0.2-1.6-1c-0.4-0.8-0.4-1.7-0.4-2.4c0-0.8,0-1.6,0.4-2.3
			c0.4-0.9,1.1-1.2,1.7-1.2c0.4,0,1.2,0.2,1.7,1.1c0.3,0.7,0.4,1.5,0.4,2.3C268.4,9.5,268.4,10.3,268.1,11z M267.5,10.7
			c0.1-0.6,0.1-1.3,0.1-2.1c0-0.6,0-1.4-0.1-1.9c-0.2-1-0.8-1.2-1.2-1.2c-0.2,0-1,0.1-1.2,1.3c-0.1,0.5-0.1,1.2-0.1,1.8
			c0,0.6,0,1.5,0.1,2.1c0.2,1,0.8,1.2,1.2,1.2C266.8,11.9,267.4,11.6,267.5,10.7z"/>
	</g>
	<g>
		<path class="st1" d="M270.3,11.9c-0.3,0-0.5-0.2-0.5-0.5c0-0.3,0.2-0.5,0.5-0.5s0.5,0.2,0.5,0.5C270.8,11.7,270.6,11.9,270.3,11.9
			z"/>
	</g>
	<g>
		<path class="st1" d="M275.7,9c0.4,0.4,0.5,0.9,0.5,1.2c0,1.1-0.9,1.9-2.1,1.9c-1,0-2.1-0.7-2.1-1.7c0-1,0.9-1.5,1.4-1.8
			c-0.2-0.2-0.6-0.4-0.7-0.5c-0.4-0.5-0.4-0.9-0.4-1.1c0-0.9,0.8-1.7,1.8-1.7c0.9,0,1.8,0.6,1.8,1.5c0,0.7-0.5,1.2-1.2,1.5
			C275.4,8.7,275.5,8.8,275.7,9z M272.6,10.4c0,0.8,0.7,1.4,1.6,1.4c0.8,0,1.6-0.5,1.6-1.3c0-0.6-0.5-0.9-0.7-1.1l-1.2-0.8
			C272.9,9.2,272.6,9.8,272.6,10.4z M274.5,8.2c0.6-0.3,1-0.8,1-1.4c0-0.7-0.6-1.2-1.4-1.2c-0.7,0-1.4,0.4-1.4,1
			c0,0.2,0,0.5,0.5,0.8L274.5,8.2z"/>
		<path class="st1" d="M279,12.5c-0.6,1.3-1.5,1.9-1.6,1.9c-0.1,0-0.1,0-0.1-0.1c0,0,0-0.1,0.1-0.2c1.2-1.3,1.6-3,1.6-4.7
			c0-2.1-0.6-3.7-1.5-4.7c-0.2-0.2-0.2-0.2-0.2-0.2c0-0.1,0-0.1,0.1-0.1c0.1,0,1,0.6,1.6,1.9c0.5,1.1,0.7,2.3,0.7,3.1
			C279.6,10.3,279.5,11.4,279,12.5z"/>
	</g>
	<g>
		<path class="st1" d="M281.6,6.9c0-0.2,0.1-0.4,0.2-0.6s0.1-0.4,0.1-0.6c0-0.2,0-0.3-0.2-0.3c-0.3,0-0.4,0.3-0.5,0.8
			c0,0.2-0.1,0.2-0.2,0.2c0,0-0.1,0-0.1-0.1c0,0,0.1-0.4,0.3-0.7c0.1-0.2,0.3-0.4,0.6-0.4c0.3,0,0.7,0.2,0.7,0.6
			c0.2-0.3,0.6-0.6,1.2-0.6c0.4,0,0.9,0.1,0.9,0.8c0,0.4-0.3,1.1-0.4,1.3C284,7.6,284,7.7,284,7.8c0,0.1,0,0.2,0.2,0.2
			c0.3,0,0.6-0.3,0.7-0.8c0-0.1,0-0.1,0.1-0.1c0,0,0.1,0,0.1,0.1c0,0.1-0.3,1.1-1,1.1c-0.4,0-0.7-0.2-0.7-0.6c0-0.1,0-0.2,0.1-0.4
			c0.1-0.3,0.4-1.1,0.4-1.5c0-0.1,0-0.5-0.4-0.5c-0.5,0-0.9,0.4-1,0.6c-0.2,0.3-0.2,0.3-0.3,0.6c0,0.2-0.1,0.3-0.1,0.5
			c0,0.2-0.1,0.5-0.2,0.6c0,0.1-0.1,0.4-0.1,0.4c0,0.1-0.1,0.2-0.3,0.2c-0.1,0-0.2-0.1-0.2-0.2c0,0,0-0.2,0.1-0.3L281.6,6.9z"/>
	</g>
	<g>
		<path class="st1" d="M289.4,10c-0.3,0-0.5-0.2-0.5-0.5c0-0.3,0.2-0.5,0.5-0.5s0.5,0.2,0.5,0.5C289.9,9.7,289.7,10,289.4,10z"/>
	</g>
	<g>
		<path class="st1" d="M295.3,12c-0.5,0-1.2-0.2-1.2-1.2c0-0.5,0.2-1.1,0.6-2.1c0.1-0.1,0.2-0.4,0.2-0.7c0-0.3-0.2-0.3-0.2-0.3
			c-0.4,0-0.8,0.4-1,1.2c0,0.2-0.1,0.2-0.2,0.2c0,0-0.1,0-0.1-0.1c0-0.1,0.4-1.5,1.3-1.5c0.5,0,0.8,0.4,0.8,0.8c0,0.2,0,0.3-0.2,0.6
			c-0.3,0.7-0.5,1.5-0.5,2c0,0.4,0.1,0.8,0.6,0.8c0.7,0,1.1-0.8,1.1-0.8c0.1-0.5,0.6-2.3,0.7-3c0.1-0.3,0.3-0.3,0.4-0.3
			c0.1,0,0.3,0.1,0.3,0.3c0,0.1-0.1,0.4-0.1,0.7c0,0.1-0.1,0.5-0.2,0.7l-0.3,1.1c-0.1,0.3-0.2,0.8-0.2,1c0,0.3,0.1,0.5,0.3,0.5
			c0.4,0,0.6-0.7,0.7-1.2c0-0.1,0-0.2,0.1-0.2c0,0,0.1,0,0.1,0.1c0,0-0.1,0.6-0.3,1c-0.2,0.3-0.4,0.5-0.7,0.5
			c-0.4,0-0.8-0.3-0.9-0.7C296.3,11.6,296,12,295.3,12z"/>
	</g>
	<g>
		<path class="st1" d="M300,14.4v-10h1.4v0.4h-1V14h1v0.4H300z"/>
	</g>
	<g>
		<path class="st1" d="M303,9c0.1-0.5,0.2-0.6,0.2-0.8c0-0.3-0.1-0.5-0.3-0.5c-0.4,0-0.6,0.5-0.7,1.2c-0.1,0.2-0.1,0.2-0.2,0.2
			c0,0-0.1,0-0.1-0.1c0,0,0.1-0.6,0.3-1c0.1-0.2,0.3-0.6,0.7-0.6c0.5,0,0.9,0.3,0.9,0.9c0.2-0.2,0.7-0.9,1.6-0.9
			c0.7,0,1.1,0.4,1.1,1.1c0,0.6-0.4,1.7-0.6,2.2c-0.1,0.2-0.2,0.5-0.2,0.7c0,0.2,0.1,0.3,0.2,0.3c0.5,0,0.8-0.6,1-1.2
			c0.1-0.1,0.1-0.2,0.2-0.2c0,0,0.1,0,0.1,0.1c0,0.1-0.4,1.5-1.3,1.5c-0.5,0-0.8-0.3-0.8-0.8c0-0.1,0-0.2,0.1-0.5
			c0.2-0.4,0.6-1.7,0.6-2.3c0-0.3-0.1-0.7-0.5-0.7c-0.9,0-1.5,0.9-1.6,1.2c0,0-0.1,0.3-0.1,0.5c0,0.2-0.1,0.4-0.2,0.7l-0.2,0.9
			c-0.1,0.2-0.2,0.7-0.2,0.7c-0.1,0.2-0.2,0.3-0.4,0.3c-0.1,0-0.3-0.1-0.3-0.3c0-0.1,0.1-0.3,0.1-0.4L303,9z"/>
	</g>
	<g>
		<path class="st1" d="M309.1,14.4h-1.4V14h1V4.8h-1V4.4h1.4V14.4z"/>
	</g>
	<g>
		<path class="st1" d="M274,54.4c0.2,0,0.9,0,0.9-0.1c0.1-0.1,0.2-0.6,0.2-0.9h0.2l-0.3,1.7h-3.7c0-0.2,0-0.3,0.1-0.4l1.9-2.1
			c0.5-0.6,1-1.4,1-2.2c0-0.8-0.4-1.6-1.3-1.6c-0.6,0-1.1,0.4-1.3,1c0,0,0,0,0.1,0c0.3,0,0.5,0.3,0.5,0.5c0,0.4-0.3,0.5-0.5,0.5
			c0,0-0.5,0-0.5-0.6c0-0.9,0.7-1.8,1.9-1.8c1.2,0,2.1,0.8,2.1,1.9c0,1-0.6,1.5-2.2,2.9l-1.1,1H274z"/>
	</g>
	<g>
		<path class="st1" d="M226.9,53.3v-0.6h2.6v0.6H226.9z"/>
		<path class="st1" d="M233.1,54.4c0,0.4,0,0.5,0.9,0.5h0.3v0.3c-0.3,0-1.2,0-1.6,0s-1.3,0-1.6,0v-0.3h0.3c0.9,0,0.9-0.1,0.9-0.5
			v-5.2c-0.5,0.3-1.1,0.3-1.3,0.3v-0.3c0.3,0,1.2,0,1.8-0.6c0.2,0,0.2,0,0.2,0.3V54.4z"/>
	</g>
	<g>
		<path class="st1" d="M212.7,53.3v-0.6h2.6v0.6H212.7z"/>
		<path class="st1" d="M219,54.4c0.2,0,0.9,0,0.9-0.1c0.1-0.1,0.2-0.6,0.2-0.9h0.2l-0.3,1.7h-3.7c0-0.2,0-0.3,0.1-0.4l1.9-2.1
			c0.5-0.6,1-1.4,1-2.2c0-0.8-0.4-1.6-1.3-1.6c-0.6,0-1.1,0.4-1.3,1c0,0,0,0,0.1,0c0.3,0,0.5,0.3,0.5,0.5c0,0.4-0.3,0.5-0.5,0.5
			c0,0-0.5,0-0.5-0.6c0-0.9,0.7-1.8,1.9-1.8c1.2,0,2.1,0.8,2.1,1.9c0,1-0.6,1.5-2.2,2.9l-1.1,1H219z"/>
	</g>
	<g>
		<path class="st1" d="M299.6,53.5v-0.3l3.1-4.7c0.1-0.1,0.1-0.1,0.2-0.1c0.2,0,0.2,0.1,0.2,0.3v4.5h1v0.3h-1v0.9
			c0,0.4,0,0.5,0.8,0.5h0.2v0.3c-0.4,0-0.9,0-1.4,0c-0.4,0-0.9,0-1.3,0v-0.3h0.2c0.7,0,0.8-0.1,0.8-0.5v-0.9H299.6z M302.3,49.5
			l-2.4,3.7h2.4V49.5z"/>
		<path class="st1" d="M330.2,50.9c1.1,0,2,1,2,2.2c0,1.3-0.9,2.3-2.1,2.3c-0.9,0-2.1-0.7-2.1-3.4c0-2.2,1.3-3.5,2.6-3.5
			c0.8,0,1.3,0.5,1.3,1.1c0,0.4-0.3,0.5-0.5,0.5c-0.2,0-0.5-0.1-0.5-0.5c0-0.4,0.4-0.4,0.5-0.4c-0.2-0.3-0.6-0.4-0.9-0.4
			c-0.5,0-1.7,0.4-1.7,2.9v0.2C329.2,51.4,329.5,50.9,330.2,50.9z M331.2,54.5c0.2-0.4,0.2-0.9,0.2-1.3c0-0.5,0-1-0.2-1.4
			c-0.3-0.6-0.8-0.6-0.9-0.6c-0.9,0-1.2,1-1.2,1.8c0,0.2,0,1,0.2,1.4c0.1,0.1,0.4,0.7,1,0.7C330.4,55.1,330.9,55.1,331.2,54.5z"/>
		<path class="st1" d="M360.1,52.3c0.4,0.4,0.5,0.9,0.5,1.2c0,1.1-0.9,1.9-2.1,1.9c-1,0-2.1-0.7-2.1-1.7c0-1,0.9-1.5,1.4-1.8
			c-0.2-0.2-0.6-0.4-0.7-0.5c-0.4-0.5-0.4-0.9-0.4-1.1c0-0.9,0.8-1.7,1.8-1.7c0.9,0,1.8,0.6,1.8,1.5c0,0.7-0.5,1.2-1.2,1.5
			C359.7,52,359.9,52.1,360.1,52.3z M356.9,53.7c0,0.8,0.7,1.4,1.6,1.4c0.8,0,1.6-0.5,1.6-1.3c0-0.6-0.5-0.9-0.7-1.1l-1.2-0.8
			C357.2,52.4,356.9,53.1,356.9,53.7z M358.9,51.4c0.6-0.3,1-0.8,1-1.4c0-0.7-0.6-1.2-1.4-1.2c-0.7,0-1.4,0.4-1.4,1
			c0,0.2,0,0.5,0.5,0.8L358.9,51.4z"/>
	</g>
	<g>
		<path class="st1" d="M234.9,18.8c0,0.4,0,0.5,0.9,0.5h0.3v0.3c-0.3,0-1.2,0-1.6,0s-1.3,0-1.6,0v-0.3h0.3c0.9,0,0.9-0.1,0.9-0.5
			v-5.2c-0.5,0.3-1.1,0.3-1.3,0.3v-0.3c0.3,0,1.2,0,1.8-0.6c0.2,0,0.2,0,0.2,0.3V18.8z"/>
	</g>
	<path class="st0" d="M231,43.1v3.5 M216.8,43.1v3.5 M259.3,43.1v3.5 M273.5,43.1v3.5 M287.7,43.1v3.5 M301.8,43.1v3.5 M316,43.1
		v3.5 M330.2,43.1v3.5 M344.4,43.1v3.5 M358.5,43.1v3.5"/>
	<g>
		<path class="st1" d="M230.4,74.6v-0.6h2.6v0.6H230.4z"/>
		<path class="st1" d="M236.6,75.7c0,0.4,0,0.5,0.9,0.5h0.3v0.3c-0.3,0-1.2,0-1.6,0s-1.3,0-1.6,0v-0.3h0.3c0.9,0,0.9-0.1,0.9-0.5
			v-5.2c-0.5,0.3-1.1,0.3-1.3,0.3v-0.3c0.3,0,1.2,0,1.8-0.6c0.2,0,0.2,0,0.2,0.3V75.7z"/>
	</g>
	<path class="st0" d="M241.6,73.3h7.1 M241.6,16.4c0,0.1,7.1,0.1,7.1,0.1"/>
	<g>
		<path class="st1" d="M245.1,18c-1.1,0-1.9-0.9-1.9-1.9c0-1,0.9-1.9,1.9-1.9c1,0,1.9,0.9,1.9,1.9C247,17.1,246.2,18,245.1,18z"/>
	</g>
	<line class="st2" x1="245.1" y1="44.8" x2="245.1" y2="16.4"/>
</g>
</svg>
