<?xml version="1.0" encoding="utf-8"?>
<!-- Generator: Adobe Illustrator 22.1.0, SVG Export Plug-In . SVG Version: 6.00 Build 0)  -->
<svg version="1.1" id="Layer_1" xmlns="http://www.w3.org/2000/svg" xmlns:xlink="http://www.w3.org/1999/xlink" x="0px" y="0px"
	 viewBox="0 0 421.1 90.6" style="enable-background:new 0 0 421.1 90.6;" xml:space="preserve">
<style type="text/css">
	.st0{fill:#1D1D1B;}
	.st1{fill:none;stroke:#000000;stroke-width:0.8504;stroke-miterlimit:10;}
	.st2{fill:none;stroke:#FF0000;stroke-width:1.7008;stroke-miterlimit:10;}
	.st3{fill:none;stroke:#FF0000;stroke-width:1.1338;stroke-miterlimit:10;stroke-dasharray:2.8346,2.8346;}
</style>
<g>
	<g>
		<path class="st0" d="M3.9,22c-0.1,0.4-0.2,0.7-0.2,0.9c0,0.3,0.2,0.7,0.5,0.7c0.3,0,1-0.2,1.3-1.3c0-0.1,0-0.1,0.1-0.1
			c0,0,0.1,0,0.1,0.1c0,0.2-0.6,1.5-1.6,1.5c-0.6,0-1-0.4-1.1-0.8c0,0.1-0.4,0.8-1,0.8c-0.4,0-0.9-0.2-0.9-0.7
			c0-0.3,0.2-0.6,0.5-0.6c0.1,0,0.4,0.1,0.4,0.3c0,0.3-0.2,0.5-0.5,0.5c0.2,0.1,0.4,0.1,0.5,0.1c0.4,0,0.8-0.4,0.9-1
			c0.4-1.4,0.5-2.1,0.5-2.4c0-0.6-0.3-0.7-0.5-0.7c-0.3,0-1,0.2-1.3,1.3c0,0.1-0.1,0.1-0.1,0.1c0,0-0.1,0-0.1-0.1
			c0-0.2,0.6-1.5,1.6-1.5c0.3,0,0.8,0.1,1.1,0.8c0.1-0.2,0.5-0.8,1-0.8c0.3,0,0.9,0.1,0.9,0.7c0,0.4-0.3,0.6-0.5,0.6
			c-0.3,0-0.4-0.2-0.4-0.3c0-0.2,0.2-0.5,0.5-0.5c-0.2-0.1-0.4-0.1-0.5-0.1c-0.7,0-0.9,0.9-1,1.2L3.9,22z"/>
	</g>
	<g>
		<path class="st0" d="M7.7,26.1v-10h1.4v0.4h-1v9.2h1v0.4H7.7z"/>
	</g>
	<g>
		<path class="st0" d="M10.7,20.8c0.1-0.5,0.2-0.6,0.2-0.8c0-0.3-0.1-0.5-0.3-0.5c-0.4,0-0.6,0.5-0.7,1.2c-0.1,0.2-0.1,0.2-0.2,0.2
			c0,0-0.1,0-0.1-0.1c0,0,0.1-0.6,0.3-1c0.1-0.2,0.3-0.6,0.7-0.6c0.5,0,0.9,0.3,0.9,0.9c0.2-0.2,0.7-0.9,1.6-0.9
			c0.7,0,1.1,0.4,1.1,1.1c0,0.6-0.4,1.7-0.6,2.2c-0.1,0.2-0.2,0.5-0.2,0.7c0,0.2,0.1,0.3,0.2,0.3c0.5,0,0.8-0.6,1-1.2
			c0-0.1,0-0.2,0.1-0.2c0,0,0.1,0,0.1,0.1c0,0.1-0.4,1.5-1.3,1.5c-0.5,0-0.8-0.3-0.8-0.8c0-0.1,0-0.2,0.1-0.5
			c0.2-0.4,0.6-1.7,0.6-2.3c0-0.3-0.1-0.7-0.5-0.7c-0.9,0-1.5,0.9-1.6,1.2c0,0-0.1,0.3-0.1,0.5c0,0.2-0.1,0.4-0.2,0.7l-0.2,0.9
			c-0.1,0.2-0.2,0.7-0.2,0.7c-0.1,0.2-0.2,0.3-0.4,0.3c-0.1,0-0.3-0.1-0.3-0.3c0-0.1,0.1-0.3,0.1-0.4L10.7,20.8z"/>
	</g>
	<g>
		<path class="st0" d="M16.9,26.1h-1.4v-0.4h1v-9.2h-1v-0.4h1.4V26.1z"/>
		<path class="st0" d="M21.8,20.4c-0.1,0-0.3,0-0.3-0.2s0.2-0.2,0.3-0.2h6c0.1,0,0.3,0,0.3,0.2s-0.2,0.2-0.3,0.2H21.8z M21.8,22.3
			c-0.1,0-0.3,0-0.3-0.2s0.2-0.2,0.3-0.2h5.9c0.1,0,0.3,0,0.3,0.2s-0.2,0.2-0.3,0.2H21.8z"/>
	</g>
	<g>
		<path class="st0" d="M33.7,23.8c-0.5,0-1.2-0.2-1.2-1.2c0-0.5,0.2-1.1,0.6-2.1c0.1-0.1,0.2-0.4,0.2-0.7c0-0.3-0.2-0.3-0.2-0.3
			c-0.4,0-0.8,0.4-1,1.2c0,0.2-0.1,0.2-0.2,0.2c0,0-0.1,0-0.1-0.1c0-0.1,0.4-1.5,1.3-1.5c0.5,0,0.8,0.4,0.8,0.8c0,0.2,0,0.3-0.2,0.6
			c-0.3,0.7-0.5,1.5-0.5,2c0,0.4,0.1,0.8,0.6,0.8c0.7,0,1.1-0.8,1.1-0.8c0.1-0.5,0.6-2.3,0.7-3c0.1-0.3,0.3-0.3,0.4-0.3
			c0.1,0,0.3,0.1,0.3,0.3c0,0.1-0.1,0.4-0.1,0.7c0,0.1-0.1,0.5-0.2,0.7L35.7,22c-0.1,0.3-0.2,0.8-0.2,1c0,0.3,0.1,0.5,0.3,0.5
			c0.4,0,0.6-0.7,0.7-1.2c0-0.1,0-0.2,0.1-0.2c0,0,0.1,0,0.1,0.1c0,0-0.1,0.6-0.3,1c-0.2,0.3-0.4,0.5-0.7,0.5
			c-0.4,0-0.8-0.3-0.9-0.7C34.7,23.3,34.3,23.8,33.7,23.8z"/>
	</g>
	<g>
		<path class="st0" d="M38.3,26.1v-10h1.4v0.4h-1v9.2h1v0.4H38.3z"/>
	</g>
	<g>
		<path class="st0" d="M41.3,20.8c0.1-0.5,0.2-0.6,0.2-0.8c0-0.3-0.1-0.5-0.3-0.5c-0.4,0-0.6,0.5-0.7,1.2c-0.1,0.2-0.1,0.2-0.2,0.2
			c0,0-0.1,0-0.1-0.1c0,0,0.1-0.6,0.3-1c0.1-0.2,0.3-0.6,0.7-0.6c0.5,0,0.9,0.3,0.9,0.9c0.2-0.2,0.7-0.9,1.6-0.9
			c0.7,0,1.1,0.4,1.1,1.1c0,0.6-0.4,1.7-0.6,2.2c-0.1,0.2-0.2,0.5-0.2,0.7c0,0.2,0.1,0.3,0.2,0.3c0.5,0,0.8-0.6,1-1.2
			c0-0.1,0-0.2,0.1-0.2c0,0,0.1,0,0.1,0.1c0,0.1-0.4,1.5-1.3,1.5c-0.5,0-0.8-0.3-0.8-0.8c0-0.1,0-0.2,0.1-0.5
			c0.2-0.4,0.6-1.7,0.6-2.3c0-0.3-0.1-0.7-0.5-0.7c-0.9,0-1.5,0.9-1.6,1.2c0,0-0.1,0.3-0.1,0.5c0,0.2-0.1,0.4-0.2,0.7l-0.2,0.9
			c-0.1,0.2-0.2,0.7-0.2,0.7c-0.1,0.2-0.2,0.3-0.4,0.3c-0.1,0-0.3-0.1-0.3-0.3c0-0.1,0.1-0.3,0.1-0.4L41.3,20.8z"/>
	</g>
	<g>
		<path class="st0" d="M52.1,24.1c0,0.1,0,0.3-0.2,0.3s-0.2-0.2-0.2-0.3v-2.8h-2.8c-0.1,0-0.3,0-0.3-0.2c0-0.2,0.2-0.2,0.3-0.2h2.8
			v-2.8c0-0.1,0-0.3,0.2-0.3s0.2,0.2,0.2,0.3V21h2.8c0.1,0,0.3,0,0.3,0.2c0,0.2-0.2,0.2-0.3,0.2h-2.8V24.1z"/>
		<path class="st0" d="M60.9,22.9c0,0.4,0,0.5,0.9,0.5h0.3v0.3c-0.3,0-1.2,0-1.6,0c-0.4,0-1.3,0-1.6,0v-0.3h0.3
			c0.9,0,0.9-0.1,0.9-0.5v-5.2C59.7,18,59.1,18,58.9,18v-0.3c0.3,0,1.2,0,1.8-0.6c0.2,0,0.2,0,0.2,0.3V22.9z"/>
	</g>
	<g>
		<path class="st0" d="M64.6,26.1h-1.4v-0.4h1v-9.2h-1v-0.4h1.4V26.1z"/>
	</g>
	<g>
		<path class="st0" d="M69.1,21.3c-0.2,0-0.3,0-0.3-0.2c0-0.2,0.2-0.2,0.3-0.2h5.4c0.2,0,0.3,0,0.3,0.2c0,0.2-0.2,0.2-0.3,0.2H69.1z
			"/>
	</g>
	<g>
		<path class="st0" d="M80.2,23.8c-0.5,0-1.2-0.2-1.2-1.2c0-0.5,0.2-1.1,0.6-2.1c0.1-0.1,0.2-0.4,0.2-0.7c0-0.3-0.2-0.3-0.2-0.3
			c-0.4,0-0.8,0.4-1,1.2c0,0.2-0.1,0.2-0.2,0.2c0,0-0.1,0-0.1-0.1c0-0.1,0.4-1.5,1.3-1.5c0.5,0,0.8,0.4,0.8,0.8c0,0.2,0,0.3-0.2,0.6
			c-0.3,0.7-0.5,1.5-0.5,2c0,0.4,0.1,0.8,0.6,0.8c0.7,0,1.1-0.8,1.1-0.8c0.1-0.5,0.6-2.3,0.7-3c0.1-0.3,0.3-0.3,0.4-0.3
			c0.1,0,0.3,0.1,0.3,0.3c0,0.1-0.1,0.4-0.1,0.7c0,0.1-0.1,0.5-0.2,0.7L82.2,22c-0.1,0.3-0.2,0.8-0.2,1c0,0.3,0.1,0.5,0.3,0.5
			c0.4,0,0.6-0.7,0.7-1.2c0-0.1,0-0.2,0.1-0.2c0,0,0.1,0,0.1,0.1c0,0-0.1,0.6-0.3,1c-0.2,0.3-0.4,0.5-0.7,0.5
			c-0.4,0-0.8-0.3-0.9-0.7C81.2,23.3,80.9,23.8,80.2,23.8z"/>
	</g>
	<g>
		<path class="st0" d="M84.9,26.1v-10h1.4v0.4h-1v9.2h1v0.4H84.9z"/>
	</g>
	<g>
		<path class="st0" d="M87.9,20.8c0.1-0.5,0.2-0.6,0.2-0.8c0-0.3-0.1-0.5-0.3-0.5c-0.4,0-0.6,0.5-0.7,1.2c-0.1,0.2-0.1,0.2-0.2,0.2
			c0,0-0.1,0-0.1-0.1c0,0,0.1-0.6,0.3-1c0.1-0.2,0.3-0.6,0.7-0.6c0.5,0,0.9,0.3,0.9,0.9c0.2-0.2,0.7-0.9,1.6-0.9
			c0.7,0,1.1,0.4,1.1,1.1c0,0.6-0.4,1.7-0.6,2.2c-0.1,0.2-0.2,0.5-0.2,0.7c0,0.2,0.1,0.3,0.2,0.3c0.5,0,0.8-0.6,1-1.2
			c0-0.1,0-0.2,0.1-0.2c0,0,0.1,0,0.1,0.1c0,0.1-0.4,1.5-1.3,1.5c-0.5,0-0.8-0.3-0.8-0.8c0-0.1,0-0.2,0.1-0.5
			c0.2-0.4,0.6-1.7,0.6-2.3c0-0.3-0.1-0.7-0.5-0.7c-0.9,0-1.5,0.9-1.6,1.2c0,0-0.1,0.3-0.1,0.5c0,0.2-0.1,0.4-0.2,0.7l-0.2,0.9
			c-0.1,0.2-0.2,0.7-0.2,0.7c-0.1,0.2-0.2,0.3-0.4,0.3c-0.1,0-0.3-0.1-0.3-0.3c0-0.1,0.1-0.3,0.1-0.4L87.9,20.8z"/>
	</g>
	<g>
		<path class="st0" d="M95.8,21.3c-0.2,0-0.3,0-0.3-0.2c0-0.2,0.2-0.2,0.3-0.2h5.4c0.2,0,0.3,0,0.3,0.2c0,0.2-0.2,0.2-0.3,0.2H95.8z
			"/>
	</g>
	<g>
		<path class="st0" d="M107.5,22.9c0,0.4,0,0.5,0.9,0.5h0.3v0.3c-0.3,0-1.2,0-1.6,0c-0.4,0-1.3,0-1.6,0v-0.3h0.3
			c0.9,0,0.9-0.1,0.9-0.5v-5.2c-0.5,0.3-1.1,0.3-1.3,0.3v-0.3c0.3,0,1.2,0,1.8-0.6c0.2,0,0.2,0,0.2,0.3V22.9z"/>
		<path class="st0" d="M111.2,26.1h-1.4v-0.4h1v-9.2h-1v-0.4h1.4V26.1z"/>
	</g>
	<g>
		<path class="st0" d="M33.1,3.8h-0.2c-0.2-1.4-0.4-1.9-1.9-1.9h-1.2c-0.5,0-0.5,0.1-0.5,0.4v2.5h0.9c1,0,1.1-0.3,1.1-1.2h0.2v2.6
			h-0.2c0-0.8-0.1-1.2-1.1-1.2h-0.9v2.5c0,0.3,0,0.5,0.9,0.5h0.3v0.3c-0.4,0-1.3,0-1.7,0c-0.4,0-1.2,0-1.5,0V8.1h0.2
			c0.8,0,0.8-0.1,0.8-0.5V2.4c0-0.4,0-0.5-0.8-0.5h-0.2V1.6h5.5L33.1,3.8z"/>
		<path class="st0" d="M35.3,7.6c0,0.4,0,0.4,0.7,0.4v0.3c-0.3,0-0.7,0-1,0c-0.2,0-0.8,0-1.1,0V8.1c0.7,0,0.8,0,0.8-0.4V4.9
			c0-0.5-0.1-0.5-0.7-0.5V4.1L35.3,4V7.6z M34.8,2.8c-0.3,0-0.5-0.3-0.5-0.5c0-0.3,0.2-0.5,0.5-0.5c0.3,0,0.5,0.2,0.5,0.5
			S35.1,2.8,34.8,2.8z"/>
		<path class="st0" d="M36.6,4.4V4.1L38,4v1c0.3-0.6,0.7-1,1.5-1c0.6,0,0.9,0.2,1,0.4c0.3,0.4,0.3,0.7,0.3,1.5v1.9
			c0,0.3,0.3,0.3,0.8,0.3v0.3c-0.3,0-0.9,0-1.1,0c-0.3,0-0.8,0-1.1,0V8.1c0.7,0,0.8,0,0.8-0.4V5.3c0-0.6-0.1-1.1-0.7-1.1
			c-0.6,0-1.3,0.6-1.3,1.6v1.8c0,0.4,0.1,0.4,0.8,0.4v0.3c-0.3,0-0.9,0-1.1,0c-0.3,0-0.8,0-1.1,0V8.1c0.7,0,0.8,0,0.8-0.4V5
			C37.4,4.5,37.3,4.4,36.6,4.4z"/>
		<path class="st0" d="M43.5,7.6c0,0.4,0,0.4,0.7,0.4v0.3c-0.3,0-0.7,0-1,0c-0.2,0-0.8,0-1.1,0V8.1c0.7,0,0.8,0,0.8-0.4V4.9
			c0-0.5-0.1-0.5-0.7-0.5V4.1L43.5,4V7.6z M43,2.8c-0.3,0-0.5-0.3-0.5-0.5c0-0.3,0.2-0.5,0.5-0.5c0.3,0,0.5,0.2,0.5,0.5
			S43.3,2.8,43,2.8z"/>
		<path class="st0" d="M46.2,7.2c0,0.2,0,1.1,0.7,1.1c0.4,0,0.7-0.4,0.7-1.1V6.6h0.2v0.6c0,0.6-0.3,1.3-1,1.3
			c-0.4,0-1.3-0.1-1.3-1.3V4.4h-0.8V4.2c1,0,1.3-1.1,1.3-1.9h0.2v1.8h1.4v0.3h-1.4V7.2z"/>
		<path class="st0" d="M49.8,7.6c0.2,0.4,0.6,0.7,1.1,0.7c0.1,0,1,0,1.3-1c0-0.1,0-0.1,0.1-0.1c0,0,0.1,0,0.1,0.1
			c0,0.2-0.4,1.3-1.7,1.3c-1.1,0-2.2-1-2.2-2.3c0-1.2,0.9-2.3,2.1-2.3c1.2,0,1.8,1,1.8,2c0,0.2,0,0.2-0.2,0.2h-2.8
			C49.5,6.4,49.5,7.1,49.8,7.6z M51.8,5.9c0-0.4-0.1-1.7-1.1-1.7c-0.3,0-1.2,0.2-1.2,1.7H51.8z"/>
	</g>
	<g>
		<path class="st0" d="M58.1,7.6c0,0.4,0.1,0.4,0.8,0.4v0.3c-0.4,0-0.9,0-1.1,0c-0.2,0-0.8,0-1.1,0V8.1c0.7,0,0.8,0,0.8-0.4V2.4
			c0-0.5-0.1-0.6-0.8-0.6V1.6l1.4-0.1V7.6z"/>
		<path class="st0" d="M60.5,7.6c0.2,0.4,0.6,0.7,1.1,0.7c0.1,0,1,0,1.3-1c0-0.1,0-0.1,0.1-0.1c0,0,0.1,0,0.1,0.1
			c0,0.2-0.4,1.3-1.7,1.3c-1.1,0-2.2-1-2.2-2.3c0-1.2,0.9-2.3,2.1-2.3c1.2,0,1.8,1,1.8,2c0,0.2,0,0.2-0.2,0.2h-2.8
			C60.2,6.4,60.2,7.1,60.5,7.6z M62.6,5.9c0-0.4-0.1-1.7-1.1-1.7c-0.3,0-1.2,0.2-1.2,1.7H62.6z"/>
		<path class="st0" d="M63.8,4.4V4.1L65.2,4v1c0.3-0.6,0.7-1,1.5-1c0.6,0,0.9,0.2,1,0.4C68,4.7,68,5,68,5.9v1.9
			c0,0.3,0.3,0.3,0.8,0.3v0.3c-0.3,0-0.9,0-1.1,0c-0.3,0-0.8,0-1.1,0V8.1c0.7,0,0.8,0,0.8-0.4V5.3c0-0.6-0.1-1.1-0.7-1.1
			c-0.6,0-1.3,0.6-1.3,1.6v1.8c0,0.4,0.1,0.4,0.8,0.4v0.3c-0.3,0-0.9,0-1.1,0c-0.3,0-0.8,0-1.1,0V8.1c0.7,0,0.8,0,0.8-0.4V5
			C64.6,4.5,64.5,4.4,63.8,4.4z"/>
		<path class="st0" d="M70.6,7.7c0.1,0,0.5,0,0.7,0c0.6,0,1.2,0,1.7,0.3c0.5,0.3,0.6,0.8,0.6,1.1c0,0.8-1,1.3-2.2,1.3
			c-1.2,0-2.2-0.5-2.2-1.3c0-0.4,0.3-0.8,0.9-1c-0.3-0.2-0.4-0.6-0.4-0.9c0-0.3,0.2-0.7,0.3-0.8c-0.2-0.2-0.5-0.6-0.5-1
			c0-0.8,0.7-1.5,1.6-1.5c0.2,0,0.6,0,1.1,0.4c0.4-0.4,0.9-0.5,1.1-0.5c0.4,0,0.5,0.3,0.5,0.5c0,0.2-0.2,0.3-0.3,0.3
			c-0.2,0-0.3-0.1-0.3-0.3c0-0.1,0-0.2,0.2-0.3c0,0-0.1,0-0.1,0c-0.2,0-0.5,0-0.9,0.4c0.2,0.2,0.4,0.6,0.4,1c0,0.8-0.7,1.5-1.6,1.5
			c-0.2,0-0.6,0-1-0.3c-0.2,0.2-0.2,0.4-0.2,0.5C70.1,7.4,70.3,7.7,70.6,7.7z M73.2,9.2c0-0.9-1.1-0.9-2-0.9h-0.6
			c-0.4,0-0.8,0.4-0.8,0.9c0,0.5,0.7,1,1.7,1C72.5,10.2,73.2,9.7,73.2,9.2z M71.9,6.3c0.1-0.2,0.2-0.6,0.2-0.8c0-0.2,0-1.2-0.9-1.2
			c-0.4,0-0.6,0.3-0.7,0.4c-0.1,0.2-0.2,0.6-0.2,0.8c0,0.2,0,1.2,0.9,1.2C71.6,6.7,71.9,6.4,71.9,6.3z"/>
		<path class="st0" d="M75.7,7.2c0,0.2,0,1.1,0.7,1.1c0.4,0,0.7-0.4,0.7-1.1V6.6h0.2v0.6c0,0.6-0.3,1.3-1,1.3
			c-0.4,0-1.3-0.1-1.3-1.3V4.4h-0.8V4.2c1,0,1.3-1.1,1.3-1.9h0.2v1.8h1.4v0.3h-1.4V7.2z"/>
		<path class="st0" d="M78.9,2.4c0-0.5-0.1-0.6-0.8-0.6V1.6l1.4-0.1V5c0.2-0.4,0.6-1,1.4-1c0.6,0,0.9,0.2,1,0.4
			c0.3,0.4,0.3,0.7,0.3,1.5v1.9c0,0.3,0.3,0.3,0.8,0.3v0.3c-0.3,0-0.9,0-1.1,0c-0.3,0-0.8,0-1.1,0V8.1c0.7,0,0.8,0,0.8-0.4V5.3
			c0-0.6-0.1-1.1-0.7-1.1c-0.6,0-1.3,0.6-1.3,1.6v1.8c0,0.4,0.1,0.4,0.8,0.4v0.3c-0.3,0-0.9,0-1.1,0c-0.3,0-0.8,0-1.1,0V8.1
			c0.7,0,0.8,0,0.8-0.4V2.4z"/>
	</g>
	<g>
		<path class="st0" d="M84.8,5.1c-0.3,0-0.5-0.2-0.5-0.5c0-0.3,0.2-0.5,0.5-0.5c0.3,0,0.5,0.2,0.5,0.5C85.4,4.9,85.1,5.1,84.8,5.1z
			 M84.8,8.4c-0.3,0-0.5-0.2-0.5-0.5c0-0.3,0.2-0.5,0.5-0.5c0.3,0,0.5,0.2,0.5,0.5C85.4,8.1,85.1,8.4,84.8,8.4z"/>
	</g>
	<polyline points="27.1,12 86.2,12 86.2,11.5 27.1,11.5 	"/>
	<g>
		<path class="st0" d="M328,22c-0.1,0.4-0.2,0.7-0.2,0.9c0,0.3,0.2,0.7,0.5,0.7c0.3,0,1-0.2,1.3-1.3c0-0.1,0-0.1,0.1-0.1
			c0,0,0.1,0,0.1,0.1c0,0.2-0.6,1.5-1.6,1.5c-0.6,0-1-0.4-1.1-0.8c0,0.1-0.4,0.8-1,0.8c-0.4,0-0.9-0.2-0.9-0.7
			c0-0.3,0.2-0.6,0.5-0.6c0.1,0,0.4,0.1,0.4,0.3c0,0.3-0.2,0.5-0.5,0.5c0.2,0.1,0.4,0.1,0.5,0.1c0.4,0,0.8-0.4,0.9-1
			c0.4-1.4,0.5-2.1,0.5-2.4c0-0.6-0.3-0.7-0.5-0.7c-0.3,0-1,0.2-1.3,1.3c0,0.1,0,0.1-0.1,0.1c0,0-0.1,0-0.1-0.1
			c0-0.2,0.6-1.5,1.6-1.5c0.3,0,0.8,0.1,1.1,0.8c0.1-0.2,0.5-0.8,1-0.8c0.3,0,0.9,0.1,0.9,0.7c0,0.4-0.3,0.6-0.5,0.6
			c-0.3,0-0.4-0.2-0.4-0.3c0-0.2,0.2-0.5,0.5-0.5c-0.2-0.1-0.4-0.1-0.5-0.1c-0.7,0-0.9,0.9-1,1.2L328,22z"/>
	</g>
	<g>
		<path class="st0" d="M331.9,26.1v-10h1.4v0.4h-1v9.2h1v0.4H331.9z"/>
	</g>
	<g>
		<path class="st0" d="M334.9,20.8c0.1-0.5,0.2-0.6,0.2-0.8c0-0.3-0.1-0.5-0.3-0.5c-0.4,0-0.6,0.5-0.7,1.2c-0.1,0.2-0.1,0.2-0.2,0.2
			c0,0-0.1,0-0.1-0.1c0,0,0.1-0.6,0.3-1c0.1-0.2,0.3-0.6,0.7-0.6c0.5,0,0.9,0.3,0.9,0.9c0.2-0.2,0.7-0.9,1.6-0.9
			c0.7,0,1.1,0.4,1.1,1.1c0,0.6-0.4,1.7-0.6,2.2c-0.1,0.2-0.2,0.5-0.2,0.7c0,0.2,0.1,0.3,0.2,0.3c0.5,0,0.8-0.6,1-1.2
			c0.1-0.1,0.1-0.2,0.2-0.2c0,0,0.1,0,0.1,0.1c0,0.1-0.4,1.5-1.3,1.5c-0.5,0-0.8-0.3-0.8-0.8c0-0.1,0-0.2,0.1-0.5
			c0.2-0.4,0.6-1.7,0.6-2.3c0-0.3-0.1-0.7-0.5-0.7c-0.9,0-1.5,0.9-1.6,1.2c0,0-0.1,0.3-0.1,0.5c0,0.2-0.1,0.4-0.2,0.7l-0.2,0.9
			c-0.1,0.2-0.2,0.7-0.2,0.7c-0.1,0.2-0.2,0.3-0.4,0.3c-0.1,0-0.3-0.1-0.3-0.3c0-0.1,0.1-0.3,0.1-0.4L334.9,20.8z"/>
	</g>
	<g>
		<path class="st0" d="M341,26.1h-1.4v-0.4h1v-9.2h-1v-0.4h1.4V26.1z"/>
		<path class="st0" d="M345.9,20.4c-0.1,0-0.3,0-0.3-0.2s0.2-0.2,0.3-0.2h6c0.1,0,0.3,0,0.3,0.2s-0.2,0.2-0.3,0.2H345.9z
			 M345.9,22.3c-0.1,0-0.3,0-0.3-0.2s0.2-0.2,0.3-0.2h5.9c0.1,0,0.3,0,0.3,0.2s-0.2,0.2-0.3,0.2H345.9z"/>
	</g>
	<g>
		<path class="st0" d="M357.8,23.8c-0.5,0-1.2-0.2-1.2-1.2c0-0.5,0.2-1.1,0.6-2.1c0.1-0.1,0.2-0.4,0.2-0.7c0-0.3-0.2-0.3-0.2-0.3
			c-0.4,0-0.8,0.4-1,1.2c0,0.2-0.1,0.2-0.2,0.2c0,0-0.1,0-0.1-0.1c0-0.1,0.4-1.5,1.3-1.5c0.5,0,0.8,0.4,0.8,0.8c0,0.2,0,0.3-0.2,0.6
			c-0.3,0.7-0.5,1.5-0.5,2c0,0.4,0.1,0.8,0.6,0.8c0.7,0,1.1-0.8,1.1-0.8c0.1-0.5,0.6-2.3,0.7-3c0.1-0.3,0.3-0.3,0.4-0.3
			c0.1,0,0.3,0.1,0.3,0.3c0,0.1-0.1,0.4-0.1,0.7c0,0.1-0.1,0.5-0.2,0.7l-0.3,1.1c-0.1,0.3-0.2,0.8-0.2,1c0,0.3,0.1,0.5,0.3,0.5
			c0.4,0,0.6-0.7,0.7-1.2c0-0.1,0-0.2,0.1-0.2c0,0,0.1,0,0.1,0.1c0,0-0.1,0.6-0.3,1c-0.2,0.3-0.4,0.5-0.7,0.5
			c-0.4,0-0.8-0.3-0.9-0.7C358.9,23.3,358.5,23.8,357.8,23.8z"/>
	</g>
	<g>
		<path class="st0" d="M362.5,26.1v-10h1.4v0.4h-1v9.2h1v0.4H362.5z"/>
	</g>
	<g>
		<path class="st0" d="M365.2,21.3c-0.2,0-0.3,0-0.3-0.2c0-0.2,0.2-0.2,0.3-0.2h5.4c0.2,0,0.3,0,0.3,0.2c0,0.2-0.2,0.2-0.3,0.2
			H365.2z"/>
	</g>
	<g>
		<path class="st0" d="M373.3,20.8c0.1-0.5,0.2-0.6,0.2-0.8c0-0.3-0.1-0.5-0.3-0.5c-0.4,0-0.6,0.5-0.7,1.2c-0.1,0.2-0.1,0.2-0.2,0.2
			c0,0-0.1,0-0.1-0.1c0,0,0.1-0.6,0.3-1c0.1-0.2,0.3-0.6,0.7-0.6c0.5,0,0.9,0.3,0.9,0.9c0.2-0.2,0.7-0.9,1.6-0.9
			c0.7,0,1.1,0.4,1.1,1.1c0,0.6-0.4,1.7-0.6,2.2c-0.1,0.2-0.2,0.5-0.2,0.7c0,0.2,0.1,0.3,0.2,0.3c0.5,0,0.8-0.6,1-1.2
			c0.1-0.1,0.1-0.2,0.2-0.2c0,0,0.1,0,0.1,0.1c0,0.1-0.4,1.5-1.3,1.5c-0.5,0-0.8-0.3-0.8-0.8c0-0.1,0-0.2,0.1-0.5
			c0.2-0.4,0.6-1.7,0.6-2.3c0-0.3-0.1-0.7-0.5-0.7c-0.9,0-1.5,0.9-1.6,1.2c0,0-0.1,0.3-0.1,0.5c0,0.2-0.1,0.4-0.2,0.7l-0.2,0.9
			c-0.1,0.2-0.2,0.7-0.2,0.7c-0.1,0.2-0.2,0.3-0.4,0.3c-0.1,0-0.3-0.1-0.3-0.3c0-0.1,0.1-0.3,0.1-0.4L373.3,20.8z"/>
	</g>
	<g>
		<path class="st0" d="M384.1,24.1c0,0.1,0,0.3-0.2,0.3s-0.2-0.2-0.2-0.3v-2.8h-2.8c-0.1,0-0.3,0-0.3-0.2c0-0.2,0.2-0.2,0.3-0.2h2.8
			v-2.8c0-0.1,0-0.3,0.2-0.3s0.2,0.2,0.2,0.3V21h2.8c0.1,0,0.3,0,0.3,0.2c0,0.2-0.2,0.2-0.3,0.2h-2.8V24.1z"/>
		<path class="st0" d="M393,22.9c0.2,0,0.9,0,0.9-0.1c0.1-0.1,0.2-0.6,0.2-0.9h0.2l-0.3,1.7h-3.7c0-0.2,0-0.3,0.1-0.4l1.9-2.1
			c0.5-0.6,1-1.4,1-2.2c0-0.8-0.4-1.6-1.3-1.6c-0.6,0-1.1,0.4-1.3,1c0,0,0,0,0.1,0c0.3,0,0.5,0.3,0.5,0.5c0,0.4-0.3,0.5-0.5,0.5
			c0,0-0.5,0-0.5-0.6c0-0.9,0.7-1.8,1.9-1.8c1.2,0,2.1,0.8,2.1,1.9c0,1-0.6,1.5-2.2,2.9l-1.1,1H393z"/>
	</g>
	<g>
		<path class="st0" d="M396.6,26.1h-1.4v-0.4h1v-9.2h-1v-0.4h1.4V26.1z"/>
	</g>
	<g>
		<path class="st0" d="M306.1,7.6c0,0.4,0,0.5,0.8,0.5h0.3v0.3c-0.3,0-1.1,0-1.5,0c-0.4,0-1.2,0-1.5,0V8.1h0.3
			c0.8,0,0.8-0.1,0.8-0.5V2.4c0-0.4,0-0.5-0.8-0.5h-0.3V1.6c0.3,0,1.1,0,1.5,0c0.4,0,1.2,0,1.5,0v0.3h-0.3c-0.8,0-0.8,0.1-0.8,0.5
			V7.6z"/>
		<path class="st0" d="M307.7,4.4V4.1l1.4-0.1v1c0.3-0.6,0.7-1,1.5-1c0.6,0,0.9,0.2,1,0.4c0.3,0.4,0.3,0.7,0.3,1.5v1.9
			c0,0.3,0.3,0.3,0.8,0.3v0.3c-0.3,0-0.9,0-1.1,0c-0.3,0-0.8,0-1.1,0V8.1c0.7,0,0.8,0,0.8-0.4V5.3c0-0.6-0.1-1.1-0.7-1.1
			c-0.6,0-1.3,0.6-1.3,1.6v1.8c0,0.4,0.1,0.4,0.8,0.4v0.3c-0.3,0-0.9,0-1.1,0c-0.3,0-0.8,0-1.1,0V8.1c0.7,0,0.8,0,0.8-0.4V5
			C308.5,4.5,308.4,4.4,307.7,4.4z"/>
		<path class="st0" d="M314.6,4.4v3.2c0,0.4,0.1,0.4,0.8,0.4v0.3c-0.4,0-0.9,0-1.1,0s-0.8,0-1.1,0V8.1c0.7,0,0.8,0,0.8-0.4V4.4h-0.8
			V4.1h0.8V3c0-1.1,1.2-1.6,2.1-1.6c0.7,0,1.3,0.4,1.3,1c0,0.3-0.2,0.5-0.5,0.5c-0.2,0-0.4-0.1-0.4-0.5c0-0.2,0.1-0.4,0.5-0.5
			c-0.2-0.2-0.6-0.3-0.9-0.3c-0.6,0-1.5,0.4-1.5,1.4v1.1h1.2c0.1,0,0.2,0,0.2,0c0,0,0,0,0.2,0l1.3-0.1v3.7c0,0.4,0.1,0.4,0.8,0.4
			v0.3c-0.4,0-0.9,0-1.1,0c-0.2,0-0.8,0-1.1,0V8.1c0.7,0,0.8,0,0.8-0.4V4.9c0-0.4-0.1-0.5-0.5-0.5H314.6z"/>
		<path class="st0" d="M318.7,4.4V4.1l1.4-0.1v1c0.3-0.6,0.7-1,1.5-1c0.6,0,0.9,0.2,1,0.4C323,4.7,323,5,323,5.9v1.9
			c0,0.3,0.3,0.3,0.8,0.3v0.3c-0.3,0-0.9,0-1.1,0c-0.3,0-0.8,0-1.1,0V8.1c0.7,0,0.8,0,0.8-0.4V5.3c0-0.6-0.1-1.1-0.7-1.1
			c-0.6,0-1.3,0.6-1.3,1.6v1.8c0,0.4,0.1,0.4,0.8,0.4v0.3c-0.3,0-0.9,0-1.1,0c-0.3,0-0.8,0-1.1,0V8.1c0.7,0,0.8,0,0.8-0.4V5
			C319.5,4.5,319.4,4.4,318.7,4.4z"/>
		<path class="st0" d="M325.7,7.6c0,0.4,0,0.4,0.7,0.4v0.3c-0.3,0-0.7,0-1,0c-0.2,0-0.8,0-1.1,0V8.1c0.7,0,0.8,0,0.8-0.4V4.9
			c0-0.5-0.1-0.5-0.7-0.5V4.1l1.4-0.1V7.6z M325.2,2.8c-0.3,0-0.5-0.3-0.5-0.5c0-0.3,0.2-0.5,0.5-0.5c0.3,0,0.5,0.2,0.5,0.5
			S325.5,2.8,325.2,2.8z"/>
		<path class="st0" d="M328.4,7.2c0,0.2,0,1.1,0.7,1.1c0.4,0,0.7-0.4,0.7-1.1V6.6h0.2v0.6c0,0.6-0.3,1.3-1,1.3
			c-0.4,0-1.3-0.1-1.3-1.3V4.4h-0.8V4.2c1,0,1.3-1.1,1.3-1.9h0.2v1.8h1.4v0.3h-1.4V7.2z"/>
		<path class="st0" d="M331.9,7.6c0.2,0.4,0.6,0.7,1.1,0.7c0.1,0,1,0,1.3-1c0-0.1,0-0.1,0.1-0.1c0,0,0.1,0,0.1,0.1
			c0,0.2-0.4,1.3-1.7,1.3c-1.1,0-2.2-1-2.2-2.3c0-1.2,0.9-2.3,2.1-2.3c1.2,0,1.8,1,1.8,2c0,0.2,0,0.2-0.2,0.2h-2.8
			C331.6,6.4,331.6,7.1,331.9,7.6z M334,5.9c0-0.4-0.1-1.7-1.1-1.7c-0.3,0-1.2,0.2-1.2,1.7H334z"/>
	</g>
	<g>
		<path class="st0" d="M340.1,7.6c0,0.4,0.1,0.4,0.8,0.4v0.3c-0.4,0-0.9,0-1.1,0s-0.8,0-1.1,0V8.1c0.7,0,0.8,0,0.8-0.4V2.4
			c0-0.5-0.1-0.6-0.8-0.6V1.6l1.4-0.1V7.6z"/>
		<path class="st0" d="M342.5,7.6c0.2,0.4,0.6,0.7,1.1,0.7c0.1,0,1,0,1.3-1c0-0.1,0-0.1,0.1-0.1c0,0,0.1,0,0.1,0.1
			c0,0.2-0.4,1.3-1.7,1.3c-1.1,0-2.2-1-2.2-2.3c0-1.2,0.9-2.3,2.1-2.3c1.2,0,1.8,1,1.8,2c0,0.2,0,0.2-0.2,0.2h-2.8
			C342.2,6.4,342.2,7.1,342.5,7.6z M344.6,5.9c0-0.4-0.1-1.7-1.1-1.7c-0.3,0-1.2,0.2-1.2,1.7H344.6z"/>
		<path class="st0" d="M345.9,4.4V4.1l1.4-0.1v1c0.3-0.6,0.7-1,1.5-1c0.6,0,0.9,0.2,1,0.4c0.3,0.4,0.3,0.7,0.3,1.5v1.9
			c0,0.3,0.3,0.3,0.8,0.3v0.3c-0.3,0-0.9,0-1.1,0c-0.3,0-0.8,0-1.1,0V8.1c0.7,0,0.8,0,0.8-0.4V5.3c0-0.6-0.1-1.1-0.7-1.1
			c-0.6,0-1.3,0.6-1.3,1.6v1.8c0,0.4,0.1,0.4,0.8,0.4v0.3c-0.3,0-0.9,0-1.1,0c-0.3,0-0.8,0-1.1,0V8.1c0.7,0,0.8,0,0.8-0.4V5
			C346.6,4.5,346.5,4.4,345.9,4.4z"/>
		<path class="st0" d="M352.6,7.7c0.1,0,0.5,0,0.7,0c0.6,0,1.2,0,1.7,0.3c0.5,0.3,0.6,0.8,0.6,1.1c0,0.8-1,1.3-2.2,1.3
			c-1.2,0-2.2-0.5-2.2-1.3c0-0.4,0.3-0.8,0.9-1c-0.3-0.2-0.4-0.6-0.4-0.9c0-0.3,0.2-0.7,0.3-0.8c-0.2-0.2-0.5-0.6-0.5-1
			c0-0.8,0.7-1.5,1.6-1.5c0.2,0,0.6,0,1.1,0.4c0.4-0.4,0.9-0.5,1.1-0.5c0.4,0,0.5,0.3,0.5,0.5c0,0.2-0.2,0.3-0.3,0.3
			c-0.2,0-0.3-0.1-0.3-0.3c0-0.1,0-0.2,0.2-0.3c0,0-0.1,0-0.1,0c-0.2,0-0.5,0-0.9,0.4c0.2,0.2,0.4,0.6,0.4,1c0,0.8-0.7,1.5-1.6,1.5
			c-0.2,0-0.6,0-1-0.3c-0.2,0.2-0.2,0.4-0.2,0.5C352.1,7.4,352.3,7.7,352.6,7.7z M355.2,9.2c0-0.9-1.1-0.9-2-0.9h-0.6
			c-0.4,0-0.8,0.4-0.8,0.9c0,0.5,0.7,1,1.7,1C354.5,10.2,355.2,9.7,355.2,9.2z M354,6.3c0.1-0.2,0.2-0.6,0.2-0.8
			c0-0.2,0-1.2-0.9-1.2c-0.4,0-0.6,0.3-0.7,0.4c-0.1,0.2-0.2,0.6-0.2,0.8c0,0.2,0,1.2,0.9,1.2C353.7,6.7,353.9,6.4,354,6.3z"/>
		<path class="st0" d="M357.7,7.2c0,0.2,0,1.1,0.7,1.1c0.4,0,0.7-0.4,0.7-1.1V6.6h0.2v0.6c0,0.6-0.3,1.3-1,1.3
			c-0.4,0-1.3-0.1-1.3-1.3V4.4h-0.8V4.2c1,0,1.3-1.1,1.3-1.9h0.2v1.8h1.4v0.3h-1.4V7.2z"/>
		<path class="st0" d="M361,2.4c0-0.5-0.1-0.6-0.8-0.6V1.6l1.4-0.1V5c0.2-0.4,0.6-1,1.4-1c0.6,0,0.9,0.2,1,0.4
			c0.3,0.4,0.3,0.7,0.3,1.5v1.9c0,0.3,0.3,0.3,0.8,0.3v0.3c-0.3,0-0.9,0-1.1,0c-0.3,0-0.8,0-1.1,0V8.1c0.7,0,0.8,0,0.8-0.4V5.3
			c0-0.6-0.1-1.1-0.7-1.1c-0.6,0-1.3,0.6-1.3,1.6v1.8c0,0.4,0.1,0.4,0.8,0.4v0.3c-0.3,0-0.9,0-1.1,0c-0.3,0-0.8,0-1.1,0V8.1
			c0.7,0,0.8,0,0.8-0.4V2.4z"/>
	</g>
	<g>
		<path class="st0" d="M372,10.9c-0.1,0-1-0.6-1.6-1.9c-0.5-1.1-0.7-2.3-0.7-3.1c0-0.8,0.1-1.9,0.6-3c0.6-1.3,1.5-1.9,1.6-1.9
			c0.1,0,0.1,0,0.1,0.1c0,0,0,0-0.1,0.2c-1.2,1.2-1.6,3-1.6,4.7c0,1.5,0.3,3.4,1.6,4.7C372.1,10.7,372.1,10.7,372,10.9
			C372.1,10.8,372.1,10.9,372,10.9z"/>
		<path class="st0" d="M374.5,7.6c0,0.4,0.1,0.4,0.8,0.4v0.3c-0.4,0-0.9,0-1.1,0s-0.8,0-1.1,0V8.1c0.7,0,0.8,0,0.8-0.4V2.4
			c0-0.5-0.1-0.6-0.8-0.6V1.6l1.4-0.1V7.6z"/>
		<path class="st0" d="M376.9,7.6c0.2,0.4,0.6,0.7,1.1,0.7c0.1,0,1,0,1.3-1c0-0.1,0-0.1,0.1-0.1c0,0,0.1,0,0.1,0.1
			c0,0.2-0.4,1.3-1.7,1.3c-1.1,0-2.2-1-2.2-2.3c0-1.2,0.9-2.3,2.1-2.3c1.2,0,1.8,1,1.8,2c0,0.2,0,0.2-0.2,0.2h-2.8
			C376.6,6.4,376.6,7.1,376.9,7.6z M378.9,5.9c0-0.4-0.1-1.7-1.1-1.7c-0.3,0-1.2,0.2-1.2,1.7H378.9z"/>
		<path class="st0" d="M382.8,4.1v0.3h-1.1v3.2c0,0.4,0,0.5,0.8,0.5h0.2v0.3c-0.4,0-0.9,0-1.3,0c-0.3,0-0.7,0-1.1,0V8.1
			c0.7,0,0.8,0,0.8-0.4V4.4h-0.8V4.1h0.8V2.9c0-1.1,0.8-1.6,1.5-1.6c0.5,0,0.9,0.3,0.9,0.7c0,0.2-0.2,0.4-0.4,0.4
			c-0.3,0-0.4-0.2-0.4-0.4c0-0.2,0.2-0.4,0.3-0.4c-0.1-0.1-0.3-0.1-0.3-0.1c-0.4,0-0.9,0.5-0.9,1.4v1.2H382.8z"/>
	</g>
	<g>
		<path class="st0" d="M384.6,7.2c0,0.2,0,1.1,0.7,1.1c0.4,0,0.7-0.4,0.7-1.1V6.6h0.2v0.6c0,0.6-0.3,1.3-1,1.3
			c-0.4,0-1.3-0.1-1.3-1.3V4.4h-0.8V4.2c1,0,1.3-1.1,1.3-1.9h0.2v1.8h1.4v0.3h-1.4V7.2z"/>
		<path class="st0" d="M390.8,6c-0.3-0.2-0.4-0.5-0.4-0.8c0-0.6,0.4-1.2,1.6-1.2c0.1,0,0.6,0,0.9,0.3c0,0,0.1-0.1,0.2-0.2
			c0.1-0.1,0.1-0.1,0.2-0.1c0.1,0,0.1,0.1,0.1,0.2v1c0,0.2,0,0.2-0.1,0.2c0,0-0.1,0-0.1-0.1c0-0.3-0.1-1.2-1.2-1.2
			c-0.9,0-1.1,0.4-1.1,0.8c0,0.6,0.7,0.7,1.2,0.8c0.4,0.1,0.8,0.2,1.1,0.5c0.1,0.1,0.4,0.4,0.4,0.9c0,0.7-0.5,1.4-1.6,1.4
			c-0.2,0-0.7,0-1.1-0.4c-0.2,0.2-0.2,0.2-0.2,0.2c-0.2,0.2-0.2,0.2-0.2,0.2c-0.1,0-0.1-0.1-0.1-0.2V6.9c0-0.2,0-0.2,0.1-0.2
			c0.1,0,0.1,0,0.1,0.2c0.2,0.8,0.5,1.4,1.4,1.4c0.8,0,1.1-0.4,1.1-0.9c0-0.7-0.8-0.9-1-0.9C391.4,6.3,391.2,6.3,390.8,6z"/>
	</g>
	<g>
		<path class="st0" d="M395.8,7.6c0,0.4,0,0.4,0.7,0.4v0.3c-0.3,0-0.7,0-1,0c-0.2,0-0.8,0-1.1,0V8.1c0.7,0,0.8,0,0.8-0.4V4.9
			c0-0.5-0.1-0.5-0.7-0.5V4.1l1.4-0.1V7.6z M395.3,2.8c-0.3,0-0.5-0.3-0.5-0.5c0-0.3,0.2-0.5,0.5-0.5c0.3,0,0.5,0.2,0.5,0.5
			S395.6,2.8,395.3,2.8z"/>
		<path class="st0" d="M399.3,8.5c-1.1,0-2.1-1-2.1-2.3c0-1.3,1-2.3,2.2-2.3c0.5,0,1,0.3,1.3,0.6V2.4c0-0.5-0.1-0.6-0.8-0.6V1.6
			l1.4-0.1v6c0,0.5,0.1,0.6,0.8,0.6v0.3l-1.5,0.1V7.8C400.3,8.2,399.9,8.5,399.3,8.5z M400.5,4.8c-0.3-0.4-0.7-0.6-1.1-0.6
			c-0.5,0-0.9,0.3-1.1,0.6c-0.3,0.4-0.3,1-0.3,1.4c0,0.4,0,1,0.3,1.4c0.2,0.4,0.6,0.6,1,0.6c0.4,0,0.9-0.2,1.2-0.7
			c0.1-0.2,0.1-0.2,0.1-0.4v-2C400.6,5,400.6,5,400.5,4.8z"/>
		<path class="st0" d="M403.7,7.6c0.2,0.4,0.6,0.7,1.1,0.7c0.1,0,1,0,1.3-1c0-0.1,0-0.1,0.1-0.1c0,0,0.1,0,0.1,0.1
			c0,0.2-0.4,1.3-1.7,1.3c-1.1,0-2.2-1-2.2-2.3c0-1.2,0.9-2.3,2.1-2.3c1.2,0,1.8,1,1.8,2c0,0.2,0,0.2-0.2,0.2h-2.8
			C403.4,6.4,403.4,7.1,403.7,7.6z M405.8,5.9c0-0.4-0.1-1.7-1.1-1.7c-0.3,0-1.2,0.2-1.2,1.7H405.8z"/>
		<path class="st0" d="M409.2,8.5c-1.1,0-2.1-1-2.1-2.3c0-1.3,1-2.3,2.2-2.3c0.5,0,1,0.3,1.3,0.6V2.4c0-0.5-0.1-0.6-0.8-0.6V1.6
			l1.4-0.1v6c0,0.5,0.1,0.6,0.8,0.6v0.3l-1.5,0.1V7.8C410.3,8.2,409.8,8.5,409.2,8.5z M410.4,4.8c-0.3-0.4-0.7-0.6-1.1-0.6
			c-0.5,0-0.9,0.3-1.1,0.6c-0.3,0.4-0.3,1-0.3,1.4c0,0.4,0,1,0.3,1.4c0.2,0.4,0.6,0.6,1,0.6c0.4,0,0.9-0.2,1.2-0.7
			c0.1-0.2,0.1-0.2,0.1-0.4v-2C410.5,5,410.5,5,410.4,4.8z"/>
		<path class="st0" d="M414.5,8.9c-0.6,1.3-1.5,1.9-1.6,1.9c-0.1,0-0.1,0-0.1-0.1c0,0,0-0.1,0.1-0.2c1.2-1.3,1.6-3,1.6-4.7
			c0-2.1-0.6-3.7-1.5-4.7c-0.2-0.2-0.2-0.2-0.2-0.2c0-0.1,0-0.1,0.1-0.1c0.1,0,1,0.6,1.6,1.9c0.5,1.1,0.7,2.3,0.7,3.1
			C415.2,6.7,415,7.8,414.5,8.9z"/>
		<path class="st0" d="M417.5,5.1c-0.3,0-0.5-0.2-0.5-0.5c0-0.3,0.2-0.5,0.5-0.5s0.5,0.2,0.5,0.5C418.1,4.9,417.8,5.1,417.5,5.1z
			 M417.5,8.4c-0.3,0-0.5-0.2-0.5-0.5c0-0.3,0.2-0.5,0.5-0.5s0.5,0.2,0.5,0.5C418.1,8.1,417.8,8.4,417.5,8.4z"/>
	</g>
	<polyline points="303.8,12.5 419,12.5 419,12 303.8,12 	"/>
	<polyline points="413.6,80.1 418.1,77.8 413.6,75.5 414.7,77.8 	"/>
	<line class="st1" x1="304.7" y1="77.8" x2="414.7" y2="77.8"/>
	<g>
		<path class="st0" d="M314.8,86.3v-0.6h2.6v0.6H314.8z"/>
		<path class="st0" d="M321.1,87.4c0.2,0,0.9,0,0.9-0.1c0.1-0.1,0.2-0.6,0.2-0.9h0.2l-0.3,1.7h-3.7c0-0.2,0-0.3,0.1-0.4l1.9-2.1
			c0.5-0.6,1-1.4,1-2.2c0-0.8-0.4-1.6-1.3-1.6c-0.6,0-1.1,0.4-1.3,1c0,0,0,0,0.1,0c0.3,0,0.5,0.3,0.5,0.5c0,0.4-0.3,0.5-0.5,0.5
			c0,0-0.5,0-0.5-0.6c0-0.9,0.7-1.8,1.9-1.8c1.2,0,2.1,0.8,2.1,1.9c0,1-0.6,1.5-2.2,2.9l-1.1,1H321.1z"/>
	</g>
	<g>
		<path class="st0" d="M329,86.3v-0.6h2.6v0.6H329z"/>
		<path class="st0" d="M335.2,87.3c0,0.4,0,0.5,0.9,0.5h0.3v0.3c-0.3,0-1.2,0-1.6,0s-1.3,0-1.6,0v-0.3h0.3c0.9,0,0.9-0.1,0.9-0.5
			v-5.2c-0.5,0.3-1.1,0.3-1.3,0.3v-0.3c0.3,0,1.2,0,1.8-0.6c0.2,0,0.2,0,0.2,0.3V87.3z"/>
	</g>
	<g>
		<path class="st0" d="M348.9,87.2c-0.4,0.9-1.2,1.2-1.7,1.2c-0.5,0-1.2-0.2-1.6-1c-0.4-0.8-0.4-1.7-0.4-2.4c0-0.8,0-1.6,0.4-2.3
			c0.4-0.9,1.1-1.2,1.7-1.2c0.4,0,1.2,0.2,1.7,1.1c0.3,0.7,0.4,1.5,0.4,2.3C349.3,85.7,349.3,86.5,348.9,87.2z M348.4,86.9
			c0.1-0.6,0.1-1.3,0.1-2.1c0-0.6,0-1.4-0.1-1.9c-0.2-1-0.8-1.2-1.2-1.2c-0.2,0-1,0.1-1.2,1.3c-0.1,0.5-0.1,1.2-0.1,1.8
			c0,0.6,0,1.5,0.1,2.1c0.2,1,0.8,1.2,1.2,1.2C347.7,88.1,348.2,87.8,348.4,86.9z"/>
		<path class="st0" d="M361.8,87.3c0,0.4,0,0.5,0.9,0.5h0.3v0.3c-0.3,0-1.2,0-1.6,0s-1.3,0-1.6,0v-0.3h0.3c0.9,0,0.9-0.1,0.9-0.5
			v-5.2c-0.5,0.3-1.1,0.3-1.3,0.3v-0.3c0.3,0,1.2,0,1.8-0.6c0.2,0,0.2,0,0.2,0.3V87.3z"/>
		<path class="st0" d="M376.1,87.4c0.2,0,0.9,0,0.9-0.1c0.1-0.1,0.2-0.6,0.2-0.9h0.2l-0.3,1.7h-3.7c0-0.2,0-0.3,0.1-0.4l1.9-2.1
			c0.5-0.6,1-1.4,1-2.2c0-0.8-0.4-1.6-1.3-1.6c-0.6,0-1.1,0.4-1.3,1c0,0,0,0,0.1,0c0.3,0,0.5,0.3,0.5,0.5c0,0.4-0.3,0.5-0.5,0.5
			c0,0-0.5,0-0.5-0.6c0-0.9,0.7-1.8,1.9-1.8c1.2,0,2.1,0.8,2.1,1.9c0,1-0.6,1.5-2.2,2.9l-1.1,1H376.1z"/>
		<path class="st0" d="M391.8,86.4c0,1-0.9,1.9-2.1,1.9c-1.1,0-2-0.7-2-1.6c0-0.4,0.3-0.6,0.6-0.6c0.3,0,0.6,0.2,0.6,0.6
			c0,0.4-0.3,0.6-0.7,0.5c0.3,0.6,1.1,0.8,1.5,0.8c0.4,0,1.1-0.3,1.1-1.6c0-1-0.4-1.7-1.2-1.7h-0.4c-0.2,0-0.2,0-0.2-0.1
			c0-0.1,0.1-0.1,0.1-0.1c0.1,0,0.3,0,0.4,0c0.2,0,0.6,0,0.9-0.5c0.3-0.4,0.3-1,0.3-1.1c0-0.9-0.5-1.1-1-1.1c-0.4,0-1,0.1-1.3,0.6
			c0.1,0,0.6,0,0.6,0.5c0,0.3-0.2,0.5-0.5,0.5c-0.3,0-0.5-0.2-0.5-0.5c0-0.8,0.8-1.4,1.8-1.4c1,0,1.8,0.6,1.8,1.4
			c0,0.8-0.6,1.5-1.4,1.8C391.2,84.8,391.8,85.6,391.8,86.4z"/>
	</g>
	<polyline points="349.5,43.4 347.2,38.8 345,43.4 347.2,42.2 	"/>
	<line class="st1" x1="347.2" y1="81.3" x2="347.2" y2="42.2"/>
	<g>
		<path class="st0" d="M389.7,79.4c-1.1,0-1.9-0.9-1.9-1.9c0-1,0.9-1.9,1.9-1.9c1,0,1.9,0.9,1.9,1.9S390.8,79.4,389.7,79.4z"/>
		<path class="st0" d="M403.9,79.4c-1.1,0-1.9-0.9-1.9-1.9c0-1,0.9-1.9,1.9-1.9c1,0,1.9,0.9,1.9,1.9S405,79.4,403.9,79.4z"/>
	</g>
	<line class="st1" x1="343.7" y1="49.5" x2="350.8" y2="49.5"/>
	<g>
		<path class="st0" d="M416.6,84.2c0.1-0.5,0.2-0.6,0.2-0.8c0-0.3-0.1-0.5-0.3-0.5c-0.4,0-0.6,0.5-0.7,1.2c-0.1,0.2-0.1,0.2-0.2,0.2
			c0,0-0.1,0-0.1-0.1c0,0,0.1-0.6,0.3-1c0.1-0.2,0.3-0.6,0.7-0.6c0.5,0,0.9,0.3,0.9,0.9c0.2-0.2,0.7-0.9,1.6-0.9
			c0.7,0,1.1,0.4,1.1,1.1c0,0.6-0.4,1.7-0.6,2.2c-0.1,0.2-0.2,0.5-0.2,0.7c0,0.2,0.1,0.3,0.2,0.3c0.5,0,0.8-0.6,1-1.2
			c0.1-0.1,0.1-0.2,0.2-0.2c0,0,0.1,0,0.1,0.1c0,0.1-0.4,1.5-1.3,1.5c-0.5,0-0.8-0.3-0.8-0.8c0-0.1,0-0.2,0.1-0.5
			c0.2-0.4,0.6-1.7,0.6-2.3c0-0.3-0.1-0.7-0.5-0.7c-0.9,0-1.5,0.9-1.6,1.2c0,0-0.1,0.3-0.1,0.5c0,0.2-0.1,0.4-0.2,0.7l-0.2,0.9
			c-0.1,0.2-0.2,0.7-0.2,0.7c-0.1,0.2-0.2,0.3-0.4,0.3c-0.1,0-0.3-0.1-0.3-0.3c0,0,0.1-0.3,0.1-0.4L416.6,84.2z"/>
	</g>
	<g>
		<path class="st0" d="M337,51.9c0,0.4,0,0.5,0.9,0.5h0.3v0.3c-0.3,0-1.2,0-1.6,0s-1.3,0-1.6,0v-0.3h0.3c0.9,0,0.9-0.1,0.9-0.5v-5.2
			c-0.5,0.3-1.1,0.3-1.3,0.3v-0.3c0.3,0,1.2,0,1.8-0.6c0.2,0,0.2,0,0.2,0.3V51.9z"/>
	</g>
	<g>
		<path class="st0" d="M401.7,86.5v-0.3l3.1-4.7c0.1-0.1,0.1-0.1,0.2-0.1c0.2,0,0.2,0.1,0.2,0.3v4.5h1v0.3h-1v0.9
			c0,0.4,0,0.5,0.8,0.5h0.2v0.3c-0.4,0-0.9,0-1.4,0c-0.4,0-0.9,0-1.3,0v-0.3h0.2c0.7,0,0.8-0.1,0.8-0.5v-0.9H401.7z M404.4,82.5
			l-2.4,3.7h2.4V82.5z"/>
	</g>
	<g>
		<path class="st0" d="M375.6,51.1c-1.1,0-1.9-0.9-1.9-1.9c0-1,0.9-1.9,1.9-1.9c1,0,1.9,0.9,1.9,1.9S376.6,51.1,375.6,51.1z"/>
	</g>
	<line class="st2" x1="375.6" y1="77.8" x2="375.6" y2="49.5"/>
	<g>
		<path class="st0" d="M347.2,51.1c-1.1,0-1.9-0.9-1.9-1.9c0-1,0.9-1.9,1.9-1.9c1,0,1.9,0.9,1.9,1.9S348.3,51.1,347.2,51.1z"/>
	</g>
	<line class="st2" x1="347.2" y1="77.8" x2="347.2" y2="49.5"/>
	<g>
		<path class="st0" d="M361.4,51.1c-1.1,0-1.9-0.9-1.9-1.9c0-1,0.9-1.9,1.9-1.9c1,0,1.9,0.9,1.9,1.9S362.4,51.1,361.4,51.1z"/>
	</g>
	<line class="st2" x1="361.4" y1="77.8" x2="361.4" y2="49.5"/>
	<g>
		<path class="st0" d="M333,51.1c-1.1,0-1.9-0.9-1.9-1.9c0-1,0.9-1.9,1.9-1.9c1,0,1.9,0.9,1.9,1.9S334.1,51.1,333,51.1z"/>
	</g>
	<line class="st2" x1="333.1" y1="77.8" x2="333.1" y2="49.5"/>
	<g>
		<path class="st0" d="M318.9,51.1c-1.1,0-1.9-0.9-1.9-1.9c0-1,0.9-1.9,1.9-1.9c1,0,1.9,0.9,1.9,1.9S319.9,51.1,318.9,51.1z"/>
	</g>
	<line class="st2" x1="318.9" y1="77.8" x2="318.9" y2="49.5"/>
	<line class="st3" x1="301.2" y1="63.6" x2="315.4" y2="63.6"/>
	<g>
		<path class="st0" d="M172.4,22c-0.1,0.4-0.2,0.7-0.2,0.9c0,0.3,0.2,0.7,0.5,0.7c0.3,0,1-0.2,1.3-1.3c0-0.1,0-0.1,0.1-0.1
			c0,0,0.1,0,0.1,0.1c0,0.2-0.6,1.5-1.6,1.5c-0.6,0-1-0.4-1.1-0.8c0,0.1-0.4,0.8-1,0.8c-0.4,0-0.9-0.2-0.9-0.7
			c0-0.3,0.2-0.6,0.5-0.6c0.1,0,0.4,0.1,0.4,0.3c0,0.3-0.2,0.5-0.5,0.5c0.2,0.1,0.4,0.1,0.5,0.1c0.4,0,0.8-0.4,0.9-1
			c0.4-1.4,0.5-2.1,0.5-2.4c0-0.6-0.3-0.7-0.5-0.7c-0.3,0-1,0.2-1.3,1.3c0,0.1-0.1,0.1-0.1,0.1c0,0-0.1,0-0.1-0.1
			c0-0.2,0.6-1.5,1.6-1.5c0.3,0,0.8,0.1,1.1,0.8c0.1-0.2,0.5-0.8,1-0.8c0.3,0,0.9,0.1,0.9,0.7c0,0.4-0.3,0.6-0.5,0.6
			c-0.3,0-0.4-0.2-0.4-0.3c0-0.2,0.2-0.5,0.5-0.5c-0.2-0.1-0.4-0.1-0.5-0.1c-0.7,0-0.9,0.9-1,1.2L172.4,22z"/>
	</g>
	<g>
		<path class="st0" d="M176.3,26.1v-10h1.4v0.4h-1v9.2h1v0.4H176.3z"/>
	</g>
	<g>
		<path class="st0" d="M179.3,20.8c0.1-0.5,0.2-0.6,0.2-0.8c0-0.3-0.1-0.5-0.3-0.5c-0.4,0-0.6,0.5-0.7,1.2c-0.1,0.2-0.1,0.2-0.2,0.2
			c0,0-0.1,0-0.1-0.1c0,0,0.1-0.6,0.3-1c0.1-0.2,0.3-0.6,0.7-0.6c0.5,0,0.9,0.3,0.9,0.9c0.2-0.2,0.7-0.9,1.6-0.9
			c0.7,0,1.1,0.4,1.1,1.1c0,0.6-0.4,1.7-0.6,2.2c-0.1,0.2-0.2,0.5-0.2,0.7c0,0.2,0.1,0.3,0.2,0.3c0.5,0,0.8-0.6,1-1.2
			c0-0.1,0-0.2,0.1-0.2c0,0,0.1,0,0.1,0.1c0,0.1-0.4,1.5-1.3,1.5c-0.5,0-0.8-0.3-0.8-0.8c0-0.1,0-0.2,0.1-0.5
			c0.2-0.4,0.6-1.7,0.6-2.3c0-0.3-0.1-0.7-0.5-0.7c-0.9,0-1.5,0.9-1.6,1.2c0,0-0.1,0.3-0.1,0.5c0,0.2-0.1,0.4-0.2,0.7l-0.2,0.9
			c-0.1,0.2-0.2,0.7-0.2,0.7c-0.1,0.2-0.2,0.3-0.4,0.3c-0.1,0-0.3-0.1-0.3-0.3c0-0.1,0.1-0.3,0.1-0.4L179.3,20.8z"/>
	</g>
	<g>
		<path class="st0" d="M185.4,26.1h-1.4v-0.4h1v-9.2h-1v-0.4h1.4V26.1z"/>
		<path class="st0" d="M190.4,20.4c-0.1,0-0.3,0-0.3-0.2s0.2-0.2,0.3-0.2h6c0.1,0,0.3,0,0.3,0.2s-0.2,0.2-0.3,0.2H190.4z
			 M190.4,22.3c-0.1,0-0.3,0-0.3-0.2s0.2-0.2,0.3-0.2h5.9c0.1,0,0.3,0,0.3,0.2s-0.2,0.2-0.3,0.2H190.4z"/>
	</g>
	<g>
		<path class="st0" d="M202.2,23.8c-0.5,0-1.2-0.2-1.2-1.2c0-0.5,0.2-1.1,0.6-2.1c0.1-0.1,0.2-0.4,0.2-0.7c0-0.3-0.2-0.3-0.2-0.3
			c-0.4,0-0.8,0.4-1,1.2c0,0.2-0.1,0.2-0.2,0.2c0,0-0.1,0-0.1-0.1c0-0.1,0.4-1.5,1.3-1.5c0.5,0,0.8,0.4,0.8,0.8c0,0.2,0,0.3-0.2,0.6
			c-0.3,0.7-0.5,1.5-0.5,2c0,0.4,0.1,0.8,0.6,0.8c0.7,0,1.1-0.8,1.1-0.8c0.1-0.5,0.6-2.3,0.7-3c0.1-0.3,0.3-0.3,0.4-0.3
			c0.1,0,0.3,0.1,0.3,0.3c0,0.1-0.1,0.4-0.1,0.7c0,0.1-0.1,0.5-0.2,0.7l-0.3,1.1c-0.1,0.3-0.2,0.8-0.2,1c0,0.3,0.1,0.5,0.3,0.5
			c0.4,0,0.6-0.7,0.7-1.2c0-0.1,0-0.2,0.1-0.2c0,0,0.1,0,0.1,0.1c0,0-0.1,0.6-0.3,1c-0.2,0.3-0.4,0.5-0.7,0.5
			c-0.4,0-0.8-0.3-0.9-0.7C203.2,23.3,202.9,23.8,202.2,23.8z"/>
	</g>
	<g>
		<path class="st0" d="M206.9,26.1v-10h1.4v0.4h-1v9.2h1v0.4H206.9z"/>
	</g>
	<g>
		<path class="st0" d="M209.9,20.8c0.1-0.5,0.2-0.6,0.2-0.8c0-0.3-0.1-0.5-0.3-0.5c-0.4,0-0.6,0.5-0.7,1.2c-0.1,0.2-0.1,0.2-0.2,0.2
			c0,0-0.1,0-0.1-0.1c0,0,0.1-0.6,0.3-1c0.1-0.2,0.3-0.6,0.7-0.6c0.5,0,0.9,0.3,0.9,0.9c0.2-0.2,0.7-0.9,1.6-0.9
			c0.7,0,1.1,0.4,1.1,1.1c0,0.6-0.4,1.7-0.6,2.2c-0.1,0.2-0.2,0.5-0.2,0.7c0,0.2,0.1,0.3,0.2,0.3c0.5,0,0.8-0.6,1-1.2
			c0.1-0.1,0.1-0.2,0.2-0.2c0,0,0.1,0,0.1,0.1c0,0.1-0.4,1.5-1.3,1.5c-0.5,0-0.8-0.3-0.8-0.8c0-0.1,0-0.2,0.1-0.5
			c0.2-0.4,0.6-1.7,0.6-2.3c0-0.3-0.1-0.7-0.5-0.7c-0.9,0-1.5,0.9-1.6,1.2c0,0-0.1,0.3-0.1,0.5c0,0.2-0.1,0.4-0.2,0.7l-0.2,0.9
			c-0.1,0.2-0.2,0.7-0.2,0.7c-0.1,0.2-0.2,0.3-0.4,0.3c-0.1,0-0.3-0.1-0.3-0.3c0-0.1,0.1-0.3,0.1-0.4L209.9,20.8z"/>
	</g>
	<g>
		<path class="st0" d="M217.8,21.3c-0.2,0-0.3,0-0.3-0.2c0-0.2,0.2-0.2,0.3-0.2h5.4c0.2,0,0.3,0,0.3,0.2c0,0.2-0.2,0.2-0.3,0.2
			H217.8z"/>
	</g>
	<g>
		<path class="st0" d="M229.6,22.9c0.2,0,0.9,0,0.9-0.1c0.1-0.1,0.2-0.6,0.2-0.9h0.2l-0.3,1.7h-3.7c0-0.2,0-0.3,0.1-0.4l1.9-2.1
			c0.5-0.6,1-1.4,1-2.2c0-0.8-0.4-1.6-1.3-1.6c-0.6,0-1.1,0.4-1.3,1c0,0,0,0,0.1,0c0.3,0,0.5,0.3,0.5,0.5c0,0.4-0.3,0.5-0.5,0.5
			c0,0-0.5,0-0.5-0.6c0-0.9,0.7-1.8,1.9-1.8c1.2,0,2.1,0.8,2.1,1.9c0,1-0.6,1.5-2.2,2.9l-1.1,1H229.6z"/>
		<path class="st0" d="M233.2,26.1h-1.4v-0.4h1v-9.2h-1v-0.4h1.4V26.1z"/>
	</g>
	<g>
		<path class="st0" d="M143.3,7.6c0,0.4,0,0.5,0.8,0.5h0.3v0.3c-0.3,0-1.1,0-1.5,0c-0.4,0-1.2,0-1.5,0V8.1h0.3
			c0.8,0,0.8-0.1,0.8-0.5V2.4c0-0.4,0-0.5-0.8-0.5h-0.3V1.6c0.3,0,1.1,0,1.5,0c0.4,0,1.2,0,1.5,0v0.3h-0.3c-0.8,0-0.8,0.1-0.8,0.5
			V7.6z"/>
		<path class="st0" d="M144.9,4.4V4.1l1.4-0.1v1c0.3-0.6,0.7-1,1.5-1c0.6,0,0.9,0.2,1,0.4c0.3,0.4,0.3,0.7,0.3,1.5v1.9
			c0,0.3,0.3,0.3,0.8,0.3v0.3c-0.3,0-0.9,0-1.1,0c-0.3,0-0.8,0-1.1,0V8.1c0.7,0,0.8,0,0.8-0.4V5.3c0-0.6-0.1-1.1-0.7-1.1
			c-0.6,0-1.3,0.6-1.3,1.6v1.8c0,0.4,0.1,0.4,0.8,0.4v0.3c-0.3,0-0.9,0-1.1,0c-0.3,0-0.8,0-1.1,0V8.1c0.7,0,0.8,0,0.8-0.4V5
			C145.7,4.5,145.6,4.4,144.9,4.4z"/>
		<path class="st0" d="M151.8,4.4v3.2c0,0.4,0.1,0.4,0.8,0.4v0.3c-0.4,0-0.9,0-1.1,0c-0.2,0-0.8,0-1.1,0V8.1c0.7,0,0.8,0,0.8-0.4
			V4.4h-0.8V4.1h0.8V3c0-1.1,1.2-1.6,2.1-1.6c0.7,0,1.3,0.4,1.3,1c0,0.3-0.2,0.5-0.5,0.5c-0.2,0-0.4-0.1-0.4-0.5
			c0-0.2,0.1-0.4,0.5-0.5c-0.2-0.2-0.6-0.3-0.9-0.3c-0.6,0-1.5,0.4-1.5,1.4v1.1h1.2c0.1,0,0.2,0,0.2,0c0,0,0,0,0.2,0l1.3-0.1v3.7
			c0,0.4,0.1,0.4,0.8,0.4v0.3c-0.4,0-0.9,0-1.1,0s-0.8,0-1.1,0V8.1c0.7,0,0.8,0,0.8-0.4V4.9c0-0.4-0.1-0.5-0.5-0.5H151.8z"/>
		<path class="st0" d="M155.9,4.4V4.1l1.4-0.1v1c0.3-0.6,0.7-1,1.5-1c0.6,0,0.9,0.2,1,0.4c0.3,0.4,0.3,0.7,0.3,1.5v1.9
			c0,0.3,0.3,0.3,0.8,0.3v0.3c-0.3,0-0.9,0-1.1,0c-0.3,0-0.8,0-1.1,0V8.1c0.7,0,0.8,0,0.8-0.4V5.3c0-0.6-0.1-1.1-0.7-1.1
			c-0.6,0-1.3,0.6-1.3,1.6v1.8c0,0.4,0.1,0.4,0.8,0.4v0.3c-0.3,0-0.9,0-1.1,0c-0.3,0-0.8,0-1.1,0V8.1c0.7,0,0.8,0,0.8-0.4V5
			C156.7,4.5,156.6,4.4,155.9,4.4z"/>
		<path class="st0" d="M162.9,7.6c0,0.4,0,0.4,0.7,0.4v0.3c-0.3,0-0.7,0-1,0c-0.2,0-0.8,0-1.1,0V8.1c0.7,0,0.8,0,0.8-0.4V4.9
			c0-0.5-0.1-0.5-0.7-0.5V4.1l1.4-0.1V7.6z M162.4,2.8c-0.3,0-0.5-0.3-0.5-0.5c0-0.3,0.2-0.5,0.5-0.5c0.3,0,0.5,0.2,0.5,0.5
			S162.7,2.8,162.4,2.8z"/>
		<path class="st0" d="M165.6,7.2c0,0.2,0,1.1,0.7,1.1c0.4,0,0.7-0.4,0.7-1.1V6.6h0.2v0.6c0,0.6-0.3,1.3-1,1.3
			c-0.4,0-1.3-0.1-1.3-1.3V4.4H164V4.2c1,0,1.3-1.1,1.3-1.9h0.2v1.8h1.4v0.3h-1.4V7.2z"/>
		<path class="st0" d="M169.1,7.6c0.2,0.4,0.6,0.7,1.1,0.7c0.1,0,1,0,1.3-1c0-0.1,0-0.1,0.1-0.1c0,0,0.1,0,0.1,0.1
			c0,0.2-0.4,1.3-1.7,1.3c-1.1,0-2.2-1-2.2-2.3c0-1.2,0.9-2.3,2.1-2.3c1.2,0,1.8,1,1.8,2c0,0.2,0,0.2-0.2,0.2h-2.8
			C168.8,6.4,168.8,7.1,169.1,7.6z M171.2,5.9c0-0.4-0.1-1.7-1.1-1.7c-0.3,0-1.2,0.2-1.2,1.7H171.2z"/>
	</g>
	<g>
		<path class="st0" d="M177.3,7.6c0,0.4,0.1,0.4,0.8,0.4v0.3c-0.4,0-0.9,0-1.1,0c-0.2,0-0.8,0-1.1,0V8.1c0.7,0,0.8,0,0.8-0.4V2.4
			c0-0.5-0.1-0.6-0.8-0.6V1.6l1.4-0.1V7.6z"/>
		<path class="st0" d="M179.7,7.6c0.2,0.4,0.6,0.7,1.1,0.7c0.1,0,1,0,1.3-1c0-0.1,0-0.1,0.1-0.1c0,0,0.1,0,0.1,0.1
			c0,0.2-0.4,1.3-1.7,1.3c-1.1,0-2.2-1-2.2-2.3c0-1.2,0.9-2.3,2.1-2.3c1.2,0,1.8,1,1.8,2c0,0.2,0,0.2-0.2,0.2h-2.8
			C179.4,6.4,179.4,7.1,179.7,7.6z M181.8,5.9c0-0.4-0.1-1.7-1.1-1.7c-0.3,0-1.2,0.2-1.2,1.7H181.8z"/>
		<path class="st0" d="M183,4.4V4.1l1.4-0.1v1c0.3-0.6,0.7-1,1.5-1c0.6,0,0.9,0.2,1,0.4c0.3,0.4,0.3,0.7,0.3,1.5v1.9
			c0,0.3,0.3,0.3,0.8,0.3v0.3c-0.3,0-0.9,0-1.1,0c-0.3,0-0.8,0-1.1,0V8.1c0.7,0,0.8,0,0.8-0.4V5.3c0-0.6-0.1-1.1-0.7-1.1
			c-0.6,0-1.3,0.6-1.3,1.6v1.8c0,0.4,0.1,0.4,0.8,0.4v0.3c-0.3,0-0.9,0-1.1,0c-0.3,0-0.8,0-1.1,0V8.1c0.7,0,0.8,0,0.8-0.4V5
			C183.8,4.5,183.7,4.4,183,4.4z"/>
		<path class="st0" d="M189.8,7.7c0.1,0,0.5,0,0.7,0c0.6,0,1.2,0,1.7,0.3c0.5,0.3,0.6,0.8,0.6,1.1c0,0.8-1,1.3-2.2,1.3
			c-1.2,0-2.2-0.5-2.2-1.3c0-0.4,0.3-0.8,0.9-1C189.1,8,189,7.6,189,7.3c0-0.3,0.2-0.7,0.3-0.8c-0.2-0.2-0.5-0.6-0.5-1
			c0-0.8,0.7-1.5,1.6-1.5c0.2,0,0.6,0,1.1,0.4c0.4-0.4,0.9-0.5,1.1-0.5c0.4,0,0.5,0.3,0.5,0.5c0,0.2-0.2,0.3-0.3,0.3
			c-0.2,0-0.3-0.1-0.3-0.3c0-0.1,0-0.2,0.2-0.3c0,0-0.1,0-0.1,0c-0.2,0-0.5,0-0.9,0.4c0.2,0.2,0.4,0.6,0.4,1c0,0.8-0.7,1.5-1.6,1.5
			c-0.2,0-0.6,0-1-0.3c-0.2,0.2-0.2,0.4-0.2,0.5C189.3,7.4,189.5,7.7,189.8,7.7z M192.4,9.2c0-0.9-1.1-0.9-2-0.9h-0.6
			c-0.4,0-0.8,0.4-0.8,0.9c0,0.5,0.7,1,1.7,1C191.7,10.2,192.4,9.7,192.4,9.2z M191.2,6.3c0.1-0.2,0.2-0.6,0.2-0.8
			c0-0.2,0-1.2-0.9-1.2c-0.4,0-0.6,0.3-0.7,0.4c-0.1,0.2-0.2,0.6-0.2,0.8c0,0.2,0,1.2,0.9,1.2C190.9,6.7,191.1,6.4,191.2,6.3z"/>
		<path class="st0" d="M194.9,7.2c0,0.2,0,1.1,0.7,1.1c0.4,0,0.7-0.4,0.7-1.1V6.6h0.2v0.6c0,0.6-0.3,1.3-1,1.3
			c-0.4,0-1.3-0.1-1.3-1.3V4.4h-0.8V4.2c1,0,1.3-1.1,1.3-1.9h0.2v1.8h1.4v0.3h-1.4V7.2z"/>
		<path class="st0" d="M198.2,2.4c0-0.5-0.1-0.6-0.8-0.6V1.6l1.4-0.1V5c0.2-0.4,0.6-1,1.4-1c0.6,0,0.9,0.2,1,0.4
			c0.3,0.4,0.3,0.7,0.3,1.5v1.9c0,0.3,0.3,0.3,0.8,0.3v0.3c-0.3,0-0.9,0-1.1,0c-0.3,0-0.8,0-1.1,0V8.1c0.7,0,0.8,0,0.8-0.4V5.3
			c0-0.6-0.1-1.1-0.7-1.1c-0.6,0-1.3,0.6-1.3,1.6v1.8c0,0.4,0.1,0.4,0.8,0.4v0.3c-0.3,0-0.9,0-1.1,0c-0.3,0-0.8,0-1.1,0V8.1
			c0.7,0,0.8,0,0.8-0.4V2.4z"/>
	</g>
	<g>
		<path class="st0" d="M209.2,10.9c-0.1,0-1-0.6-1.6-1.9c-0.5-1.1-0.7-2.3-0.7-3.1c0-0.8,0.1-1.9,0.6-3c0.6-1.3,1.5-1.9,1.6-1.9
			c0.1,0,0.1,0,0.1,0.1c0,0,0,0-0.1,0.2c-1.2,1.2-1.6,3-1.6,4.7c0,1.5,0.3,3.4,1.6,4.7C209.3,10.7,209.3,10.7,209.2,10.9
			C209.3,10.8,209.3,10.9,209.2,10.9z"/>
		<path class="st0" d="M212.8,4c0.4,0,0.7,0.3,0.7,0.6S213.3,5,213.1,5c-0.2,0-0.4-0.1-0.4-0.4c0-0.3,0.2-0.4,0.2-0.4c0,0,0,0-0.1,0
			c-0.8,0-1.2,0.9-1.2,1.9v1.5c0,0.4,0,0.5,0.8,0.5h0.2v0.3c-0.4,0-0.9,0-1.3,0c-0.3,0-0.7,0-1.1,0V8.1c0.7,0,0.8,0,0.8-0.4V5
			c0-0.5-0.1-0.6-0.8-0.6V4.1l1.4-0.1v1.1C211.7,4.6,212,4,212.8,4z"/>
		<path class="st0" d="M215.5,7.6c0,0.4,0,0.4,0.7,0.4v0.3c-0.3,0-0.7,0-1,0c-0.2,0-0.8,0-1.1,0V8.1c0.7,0,0.8,0,0.8-0.4V4.9
			c0-0.5-0.1-0.5-0.7-0.5V4.1l1.4-0.1V7.6z M215,2.8c-0.3,0-0.5-0.3-0.5-0.5c0-0.3,0.2-0.5,0.5-0.5c0.3,0,0.5,0.2,0.5,0.5
			S215.3,2.8,215,2.8z"/>
		<path class="st0" d="M218.1,7.7c0.1,0,0.5,0,0.7,0c0.6,0,1.2,0,1.7,0.3c0.5,0.3,0.6,0.8,0.6,1.1c0,0.8-1,1.3-2.2,1.3
			c-1.2,0-2.2-0.5-2.2-1.3c0-0.4,0.3-0.8,0.9-1c-0.3-0.2-0.4-0.6-0.4-0.9c0-0.3,0.2-0.7,0.3-0.8c-0.2-0.2-0.5-0.6-0.5-1
			c0-0.8,0.7-1.5,1.6-1.5c0.2,0,0.6,0,1.1,0.4c0.4-0.4,0.9-0.5,1.1-0.5c0.4,0,0.5,0.3,0.5,0.5c0,0.2-0.2,0.3-0.3,0.3
			c-0.2,0-0.3-0.1-0.3-0.3c0-0.1,0-0.2,0.2-0.3c0,0-0.1,0-0.1,0c-0.2,0-0.5,0-0.9,0.4c0.2,0.2,0.4,0.6,0.4,1c0,0.8-0.7,1.5-1.6,1.5
			c-0.2,0-0.6,0-1-0.3c-0.2,0.2-0.2,0.4-0.2,0.5C217.6,7.4,217.8,7.7,218.1,7.7z M220.7,9.2c0-0.9-1.1-0.9-2-0.9h-0.6
			c-0.4,0-0.8,0.4-0.8,0.9c0,0.5,0.7,1,1.7,1C220,10.2,220.7,9.7,220.7,9.2z M219.4,6.3c0.1-0.2,0.2-0.6,0.2-0.8
			c0-0.2,0-1.2-0.9-1.2c-0.4,0-0.6,0.3-0.7,0.4c-0.1,0.2-0.2,0.6-0.2,0.8c0,0.2,0,1.2,0.9,1.2C219.1,6.7,219.3,6.4,219.4,6.3z"/>
	</g>
	<g>
		<path class="st0" d="M222.7,2.4c0-0.5-0.1-0.6-0.8-0.6V1.6l1.4-0.1V5c0.2-0.4,0.6-1,1.4-1c0.6,0,0.9,0.2,1,0.4
			c0.3,0.4,0.3,0.7,0.3,1.5v1.9c0,0.3,0.3,0.3,0.8,0.3v0.3c-0.3,0-0.9,0-1.1,0c-0.3,0-0.8,0-1.1,0V8.1c0.7,0,0.8,0,0.8-0.4V5.3
			c0-0.6-0.1-1.1-0.7-1.1c-0.6,0-1.3,0.6-1.3,1.6v1.8c0,0.4,0.1,0.4,0.8,0.4v0.3c-0.3,0-0.9,0-1.1,0c-0.3,0-0.8,0-1.1,0V8.1
			c0.7,0,0.8,0,0.8-0.4V2.4z"/>
		<path class="st0" d="M228.6,7.2c0,0.2,0,1.1,0.7,1.1c0.4,0,0.7-0.4,0.7-1.1V6.6h0.2v0.6c0,0.6-0.3,1.3-1,1.3
			c-0.4,0-1.3-0.1-1.3-1.3V4.4h-0.8V4.2c1,0,1.3-1.1,1.3-1.9h0.2v1.8h1.4v0.3h-1.4V7.2z"/>
	</g>
	<g>
		<path class="st0" d="M234.8,6c-0.3-0.2-0.4-0.5-0.4-0.8c0-0.6,0.4-1.2,1.6-1.2c0.1,0,0.6,0,0.9,0.3c0,0,0.1-0.1,0.2-0.2
			c0.1-0.1,0.1-0.1,0.2-0.1c0.1,0,0.1,0.1,0.1,0.2v1c0,0.2,0,0.2-0.1,0.2c0,0-0.1,0-0.1-0.1c0-0.3-0.1-1.2-1.2-1.2
			c-0.9,0-1.1,0.4-1.1,0.8c0,0.6,0.7,0.7,1.2,0.8c0.4,0.1,0.8,0.2,1.1,0.5c0.1,0.1,0.4,0.4,0.4,0.9c0,0.7-0.5,1.4-1.6,1.4
			c-0.2,0-0.7,0-1.1-0.4c-0.2,0.2-0.2,0.2-0.2,0.2c-0.2,0.2-0.2,0.2-0.2,0.2c-0.1,0-0.1-0.1-0.1-0.2V6.9c0-0.2,0-0.2,0.1-0.2
			c0.1,0,0.1,0,0.1,0.2c0.2,0.8,0.5,1.4,1.4,1.4c0.8,0,1.1-0.4,1.1-0.9c0-0.7-0.8-0.9-1-0.9C235.3,6.3,235.1,6.3,234.8,6z"/>
		<path class="st0" d="M239.7,7.6c0,0.4,0,0.4,0.7,0.4v0.3c-0.3,0-0.7,0-1,0c-0.2,0-0.8,0-1.1,0V8.1c0.7,0,0.8,0,0.8-0.4V4.9
			c0-0.5-0.1-0.5-0.7-0.5V4.1l1.4-0.1V7.6z M239.2,2.8c-0.3,0-0.5-0.3-0.5-0.5c0-0.3,0.2-0.5,0.5-0.5c0.3,0,0.5,0.2,0.5,0.5
			S239.5,2.8,239.2,2.8z"/>
		<path class="st0" d="M243.1,8.5c-1.1,0-2.1-1-2.1-2.3c0-1.3,1-2.3,2.2-2.3c0.5,0,1,0.3,1.3,0.6V2.4c0-0.5-0.1-0.6-0.8-0.6V1.6
			l1.4-0.1v6c0,0.5,0.1,0.6,0.8,0.6v0.3l-1.5,0.1V7.8C244.2,8.2,243.8,8.5,243.1,8.5z M244.4,4.8c-0.3-0.4-0.7-0.6-1.1-0.6
			c-0.5,0-0.9,0.3-1.1,0.6c-0.3,0.4-0.3,1-0.3,1.4c0,0.4,0,1,0.3,1.4c0.2,0.4,0.6,0.6,1,0.6c0.4,0,0.9-0.2,1.2-0.7
			c0.1-0.2,0.1-0.2,0.1-0.4v-2C244.5,5,244.5,5,244.4,4.8z"/>
		<path class="st0" d="M247.6,7.6c0.2,0.4,0.6,0.7,1.1,0.7c0.1,0,1,0,1.3-1c0-0.1,0-0.1,0.1-0.1c0,0,0.1,0,0.1,0.1
			c0,0.2-0.4,1.3-1.7,1.3c-1.1,0-2.2-1-2.2-2.3c0-1.2,0.9-2.3,2.1-2.3c1.2,0,1.8,1,1.8,2c0,0.2,0,0.2-0.2,0.2h-2.8
			C247.3,6.4,247.3,7.1,247.6,7.6z M249.7,5.9c0-0.4-0.1-1.7-1.1-1.7c-0.3,0-1.2,0.2-1.2,1.7H249.7z"/>
		<path class="st0" d="M253.1,8.5c-1.1,0-2.1-1-2.1-2.3c0-1.3,1-2.3,2.2-2.3c0.5,0,1,0.3,1.3,0.6V2.4c0-0.5-0.1-0.6-0.8-0.6V1.6
			l1.4-0.1v6c0,0.5,0.1,0.6,0.8,0.6v0.3l-1.5,0.1V7.8C254.2,8.2,253.7,8.5,253.1,8.5z M254.3,4.8c-0.3-0.4-0.7-0.6-1.1-0.6
			c-0.5,0-0.9,0.3-1.1,0.6c-0.3,0.4-0.3,1-0.3,1.4c0,0.4,0,1,0.3,1.4c0.2,0.4,0.6,0.6,1,0.6c0.4,0,0.9-0.2,1.2-0.7
			c0.1-0.2,0.1-0.2,0.1-0.4v-2C254.4,5,254.4,5,254.3,4.8z"/>
		<path class="st0" d="M258.4,8.9c-0.6,1.3-1.5,1.9-1.6,1.9c-0.1,0-0.1,0-0.1-0.1c0,0,0-0.1,0.1-0.2c1.2-1.3,1.6-3,1.6-4.7
			c0-2.1-0.6-3.7-1.5-4.7c-0.2-0.2-0.2-0.2-0.2-0.2c0-0.1,0-0.1,0.1-0.1c0.1,0,1,0.6,1.6,1.9c0.5,1.1,0.7,2.3,0.7,3.1
			C259,6.7,258.9,7.8,258.4,8.9z"/>
	</g>
	<g>
		<path class="st0" d="M261.4,5.1c-0.3,0-0.5-0.2-0.5-0.5c0-0.3,0.2-0.5,0.5-0.5s0.5,0.2,0.5,0.5C261.9,4.9,261.7,5.1,261.4,5.1z
			 M261.4,8.4c-0.3,0-0.5-0.2-0.5-0.5c0-0.3,0.2-0.5,0.5-0.5s0.5,0.2,0.5,0.5C261.9,8.1,261.7,8.4,261.4,8.4z"/>
	</g>
	<polyline points="141,12.5 262.9,12.5 262.9,12 141,12 	"/>
	<polyline points="250.6,80.1 255.1,77.8 250.6,75.5 251.7,77.8 	"/>
	<line class="st1" x1="141.7" y1="77.8" x2="251.7" y2="77.8"/>
	<g>
		<path class="st0" d="M151.8,86.3v-0.6h2.6v0.6H151.8z"/>
		<path class="st0" d="M158.1,87.4c0.2,0,0.9,0,0.9-0.1c0.1-0.1,0.2-0.6,0.2-0.9h0.2l-0.3,1.7h-3.7c0-0.2,0-0.3,0.1-0.4l1.9-2.1
			c0.5-0.6,1-1.4,1-2.2c0-0.8-0.4-1.6-1.3-1.6c-0.6,0-1.1,0.4-1.3,1c0,0,0,0,0.1,0c0.3,0,0.5,0.3,0.5,0.5c0,0.4-0.3,0.5-0.5,0.5
			c0,0-0.5,0-0.5-0.6c0-0.9,0.7-1.8,1.9-1.8c1.2,0,2.1,0.8,2.1,1.9c0,1-0.6,1.5-2.2,2.9l-1.1,1H158.1z"/>
	</g>
	<g>
		<path class="st0" d="M166,86.3v-0.6h2.6v0.6H166z"/>
		<path class="st0" d="M172.2,87.3c0,0.4,0,0.5,0.9,0.5h0.3v0.3c-0.3,0-1.2,0-1.6,0c-0.4,0-1.3,0-1.6,0v-0.3h0.3
			c0.9,0,0.9-0.1,0.9-0.5v-5.2c-0.5,0.3-1.1,0.3-1.3,0.3v-0.3c0.3,0,1.2,0,1.8-0.6c0.2,0,0.2,0,0.2,0.3V87.3z"/>
	</g>
	<g>
		<path class="st0" d="M185.9,87.2c-0.4,0.9-1.2,1.2-1.7,1.2c-0.5,0-1.2-0.2-1.6-1c-0.4-0.8-0.4-1.7-0.4-2.4c0-0.8,0-1.6,0.4-2.3
			c0.4-0.9,1.1-1.2,1.7-1.2c0.4,0,1.2,0.2,1.7,1.1c0.3,0.7,0.4,1.5,0.4,2.3C186.3,85.7,186.3,86.5,185.9,87.2z M185.4,86.9
			c0.1-0.6,0.1-1.3,0.1-2.1c0-0.6,0-1.4-0.1-1.9c-0.2-1-0.8-1.2-1.2-1.2c-0.2,0-1,0.1-1.2,1.3c-0.1,0.5-0.1,1.2-0.1,1.8
			c0,0.6,0,1.5,0.1,2.1c0.2,1,0.8,1.2,1.2,1.2C184.7,88.1,185.2,87.8,185.4,86.9z"/>
		<path class="st0" d="M198.8,87.3c0,0.4,0,0.5,0.9,0.5h0.3v0.3c-0.3,0-1.2,0-1.6,0c-0.4,0-1.3,0-1.6,0v-0.3h0.3
			c0.9,0,0.9-0.1,0.9-0.5v-5.2c-0.5,0.3-1.1,0.3-1.3,0.3v-0.3c0.3,0,1.2,0,1.8-0.6c0.2,0,0.2,0,0.2,0.3V87.3z"/>
		<path class="st0" d="M213.1,87.4c0.2,0,0.9,0,0.9-0.1c0.1-0.1,0.2-0.6,0.2-0.9h0.2l-0.3,1.7h-3.7c0-0.2,0-0.3,0.1-0.4l1.9-2.1
			c0.5-0.6,1-1.4,1-2.2c0-0.8-0.4-1.6-1.3-1.6c-0.6,0-1.1,0.4-1.3,1c0,0,0,0,0.1,0c0.3,0,0.5,0.3,0.5,0.5c0,0.4-0.3,0.5-0.5,0.5
			c0,0-0.5,0-0.5-0.6c0-0.9,0.7-1.8,1.9-1.8c1.2,0,2.1,0.8,2.1,1.9c0,1-0.6,1.5-2.2,2.9l-1.1,1H213.1z"/>
		<path class="st0" d="M228.8,86.4c0,1-0.9,1.9-2.1,1.9c-1.1,0-2-0.7-2-1.6c0-0.4,0.3-0.6,0.6-0.6c0.3,0,0.6,0.2,0.6,0.6
			c0,0.4-0.3,0.6-0.7,0.5c0.3,0.6,1.1,0.8,1.5,0.8c0.4,0,1.1-0.3,1.1-1.6c0-1-0.4-1.7-1.2-1.7h-0.4c-0.2,0-0.2,0-0.2-0.1
			c0-0.1,0.1-0.1,0.1-0.1c0.1,0,0.3,0,0.4,0c0.2,0,0.6,0,0.9-0.5c0.3-0.4,0.3-1,0.3-1.1c0-0.9-0.5-1.1-1-1.1c-0.4,0-1,0.1-1.3,0.6
			c0.1,0,0.6,0,0.6,0.5c0,0.3-0.2,0.5-0.5,0.5c-0.3,0-0.5-0.2-0.5-0.5c0-0.8,0.8-1.4,1.8-1.4c1,0,1.8,0.6,1.8,1.4
			c0,0.8-0.6,1.5-1.4,1.8C228.2,84.8,228.8,85.6,228.8,86.4z"/>
	</g>
	<polyline points="186.5,43.4 184.3,38.8 182,43.4 184.3,42.2 	"/>
	<line class="st1" x1="184.3" y1="81.3" x2="184.3" y2="42.2"/>
	<g>
		<path class="st0" d="M155.9,79.4c-1.1,0-1.9-0.9-1.9-1.9c0-1,0.9-1.9,1.9-1.9c1,0,1.9,0.9,1.9,1.9S156.9,79.4,155.9,79.4z"/>
		<path class="st0" d="M170.1,79.4c-1.1,0-1.9-0.9-1.9-1.9c0-1,0.9-1.9,1.9-1.9c1,0,1.9,0.9,1.9,1.9S171.1,79.4,170.1,79.4z"/>
	</g>
	<line class="st1" x1="180.7" y1="49.5" x2="187.8" y2="49.5"/>
	<g>
		<path class="st0" d="M253.6,84.2c0.1-0.5,0.2-0.6,0.2-0.8c0-0.3-0.1-0.5-0.3-0.5c-0.4,0-0.6,0.5-0.7,1.2c-0.1,0.2-0.1,0.2-0.2,0.2
			c0,0-0.1,0-0.1-0.1c0,0,0.1-0.6,0.3-1c0.1-0.2,0.3-0.6,0.7-0.6c0.5,0,0.9,0.3,0.9,0.9c0.2-0.2,0.7-0.9,1.6-0.9
			c0.7,0,1.1,0.4,1.1,1.1c0,0.6-0.4,1.7-0.6,2.2c-0.1,0.2-0.2,0.5-0.2,0.7c0,0.2,0.1,0.3,0.2,0.3c0.5,0,0.8-0.6,1-1.2
			c0.1-0.1,0.1-0.2,0.2-0.2c0,0,0.1,0,0.1,0.1c0,0.1-0.4,1.5-1.3,1.5c-0.5,0-0.8-0.3-0.8-0.8c0-0.1,0-0.2,0.1-0.5
			c0.2-0.4,0.6-1.7,0.6-2.3c0-0.3-0.1-0.7-0.5-0.7c-0.9,0-1.5,0.9-1.6,1.2c0,0-0.1,0.3-0.1,0.5c0,0.2-0.1,0.4-0.2,0.7l-0.2,0.9
			c-0.1,0.2-0.2,0.7-0.2,0.7c-0.1,0.2-0.2,0.3-0.4,0.3c-0.1,0-0.3-0.1-0.3-0.3c0,0,0.1-0.3,0.1-0.4L253.6,84.2z"/>
	</g>
	<g>
		<path class="st0" d="M174,51.9c0,0.4,0,0.5,0.9,0.5h0.3v0.3c-0.3,0-1.2,0-1.6,0c-0.4,0-1.3,0-1.6,0v-0.3h0.3
			c0.9,0,0.9-0.1,0.9-0.5v-5.2c-0.5,0.3-1.1,0.3-1.3,0.3v-0.3c0.3,0,1.2,0,1.8-0.6c0.2,0,0.2,0,0.2,0.3V51.9z"/>
	</g>
	<g>
		<path class="st0" d="M238.7,86.5v-0.3l3.1-4.7c0.1-0.1,0.1-0.1,0.2-0.1c0.2,0,0.2,0.1,0.2,0.3v4.5h1v0.3h-1v0.9
			c0,0.4,0,0.5,0.8,0.5h0.2v0.3c-0.4,0-0.9,0-1.4,0c-0.4,0-0.9,0-1.3,0v-0.3h0.2c0.7,0,0.8-0.1,0.8-0.5v-0.9H238.7z M241.4,82.5
			l-2.4,3.7h2.4V82.5z"/>
	</g>
	<g>
		<path class="st0" d="M212.6,51.1c-1.1,0-1.9-0.9-1.9-1.9c0-1,0.9-1.9,1.9-1.9c1,0,1.9,0.9,1.9,1.9S213.6,51.1,212.6,51.1z"/>
	</g>
	<line class="st2" x1="212.6" y1="77.8" x2="212.6" y2="49.5"/>
	<g>
		<path class="st0" d="M226.7,51.1c-1.1,0-1.9-0.9-1.9-1.9c0-1,0.9-1.9,1.9-1.9c1,0,1.9,0.9,1.9,1.9S227.8,51.1,226.7,51.1z"/>
	</g>
	<line class="st2" x1="226.8" y1="77.8" x2="226.8" y2="49.5"/>
	<g>
		<path class="st0" d="M240.9,51.1c-1.1,0-1.9-0.9-1.9-1.9c0-1,0.9-1.9,1.9-1.9c1,0,1.9,0.9,1.9,1.9S242,51.1,240.9,51.1z"/>
	</g>
	<line class="st2" x1="240.9" y1="77.8" x2="240.9" y2="49.5"/>
	<line class="st3" x1="248" y1="63.6" x2="262.2" y2="63.6"/>
	<g>
		<path class="st0" d="M184.2,79.4c-1.1,0-1.9-0.9-1.9-1.9c0-1,0.9-1.9,1.9-1.9c1,0,1.9,0.9,1.9,1.9S185.3,79.4,184.2,79.4z"/>
		<path class="st0" d="M198.4,79.4c-1.1,0-1.9-0.9-1.9-1.9c0-1,0.9-1.9,1.9-1.9c1,0,1.9,0.9,1.9,1.9S199.4,79.4,198.4,79.4z"/>
	</g>
	<polyline points="108.8,80.1 113.4,77.8 108.8,75.5 110,77.8 	"/>
	<line class="st1" x1="0" y1="77.8" x2="110" y2="77.8"/>
	<g>
		<path class="st0" d="M10.1,86.3v-0.6h2.6v0.6H10.1z"/>
		<path class="st0" d="M16.4,87.4c0.2,0,0.9,0,0.9-0.1c0.1-0.1,0.2-0.6,0.2-0.9h0.2l-0.3,1.7h-3.7c0-0.2,0-0.3,0.1-0.4l1.9-2.1
			c0.5-0.6,1-1.4,1-2.2c0-0.8-0.4-1.6-1.3-1.6c-0.6,0-1.1,0.4-1.3,1c0,0,0,0,0.1,0c0.3,0,0.5,0.3,0.5,0.5c0,0.4-0.3,0.5-0.5,0.5
			c0,0-0.5,0-0.5-0.6c0-0.9,0.7-1.8,1.9-1.8c1.2,0,2.1,0.8,2.1,1.9c0,1-0.6,1.5-2.2,2.9l-1.1,1H16.4z"/>
	</g>
	<g>
		<path class="st0" d="M24.3,86.3v-0.6h2.6v0.6H24.3z"/>
		<path class="st0" d="M30.4,87.3c0,0.4,0,0.5,0.9,0.5h0.3v0.3c-0.3,0-1.2,0-1.6,0c-0.4,0-1.3,0-1.6,0v-0.3h0.3
			c0.9,0,0.9-0.1,0.9-0.5v-5.2c-0.5,0.3-1.1,0.3-1.3,0.3v-0.3c0.3,0,1.2,0,1.8-0.6c0.2,0,0.2,0,0.2,0.3V87.3z"/>
	</g>
	<g>
		<path class="st0" d="M44.2,87.2c-0.4,0.9-1.2,1.2-1.7,1.2c-0.5,0-1.2-0.2-1.6-1c-0.4-0.8-0.4-1.7-0.4-2.4c0-0.8,0-1.6,0.4-2.3
			c0.4-0.9,1.1-1.2,1.7-1.2c0.4,0,1.2,0.2,1.7,1.1c0.3,0.7,0.4,1.5,0.4,2.3C44.6,85.7,44.5,86.5,44.2,87.2z M43.6,86.9
			c0.1-0.6,0.1-1.3,0.1-2.1c0-0.6,0-1.4-0.1-1.9c-0.2-1-0.8-1.2-1.2-1.2c-0.2,0-1,0.1-1.2,1.3c-0.1,0.5-0.1,1.2-0.1,1.8
			c0,0.6,0,1.5,0.1,2.1c0.2,1,0.8,1.2,1.2,1.2C42.9,88.1,43.5,87.8,43.6,86.9z"/>
		<path class="st0" d="M57.1,87.3c0,0.4,0,0.5,0.9,0.5h0.3v0.3c-0.3,0-1.2,0-1.6,0c-0.4,0-1.3,0-1.6,0v-0.3h0.3
			c0.9,0,0.9-0.1,0.9-0.5v-5.2c-0.5,0.3-1.1,0.3-1.3,0.3v-0.3c0.3,0,1.2,0,1.8-0.6c0.2,0,0.2,0,0.2,0.3V87.3z"/>
		<path class="st0" d="M71.4,87.4c0.2,0,0.9,0,0.9-0.1c0.1-0.1,0.2-0.6,0.2-0.9h0.2l-0.3,1.7h-3.7c0-0.2,0-0.3,0.1-0.4l1.9-2.1
			c0.5-0.6,1-1.4,1-2.2c0-0.8-0.4-1.6-1.3-1.6c-0.6,0-1.1,0.4-1.3,1c0,0,0,0,0.1,0c0.3,0,0.5,0.3,0.5,0.5c0,0.4-0.3,0.5-0.5,0.5
			c0,0-0.5,0-0.5-0.6c0-0.9,0.7-1.8,1.9-1.8c1.2,0,2.1,0.8,2.1,1.9c0,1-0.6,1.5-2.2,2.9l-1.1,1H71.4z"/>
		<path class="st0" d="M87.1,86.4c0,1-0.9,1.9-2.1,1.9c-1.1,0-2-0.7-2-1.6c0-0.4,0.3-0.6,0.6-0.6c0.3,0,0.6,0.2,0.6,0.6
			c0,0.4-0.3,0.6-0.7,0.5c0.3,0.6,1.1,0.8,1.5,0.8c0.4,0,1.1-0.3,1.1-1.6c0-1-0.4-1.7-1.2-1.7h-0.4c-0.2,0-0.2,0-0.2-0.1
			c0-0.1,0.1-0.1,0.1-0.1c0.1,0,0.3,0,0.4,0c0.2,0,0.6,0,0.9-0.5c0.3-0.4,0.3-1,0.3-1.1c0-0.9-0.5-1.1-1-1.1c-0.4,0-1,0.1-1.3,0.6
			c0.1,0,0.6,0,0.6,0.5c0,0.3-0.2,0.5-0.5,0.5c-0.3,0-0.5-0.2-0.5-0.5c0-0.8,0.8-1.4,1.8-1.4c1,0,1.8,0.6,1.8,1.4
			c0,0.8-0.6,1.5-1.4,1.8C86.5,84.8,87.1,85.6,87.1,86.4z"/>
	</g>
	<polyline points="44.8,43.4 42.5,38.8 40.3,43.4 42.5,42.2 	"/>
	<line class="st1" x1="42.5" y1="81.3" x2="42.5" y2="42.2"/>
	<g>
		<path class="st0" d="M14.1,79.4c-1.1,0-1.9-0.9-1.9-1.9c0-1,0.9-1.9,1.9-1.9c1,0,1.9,0.9,1.9,1.9S15.2,79.4,14.1,79.4z"/>
	</g>
	<line class="st1" x1="39" y1="49.5" x2="46.1" y2="49.5"/>
	<g>
		<path class="st0" d="M111.8,84.2c0.1-0.5,0.2-0.6,0.2-0.8c0-0.3-0.1-0.5-0.3-0.5c-0.4,0-0.6,0.5-0.7,1.2c-0.1,0.2-0.1,0.2-0.2,0.2
			c0,0-0.1,0-0.1-0.1c0,0,0.1-0.6,0.3-1c0.1-0.2,0.3-0.6,0.7-0.6c0.5,0,0.9,0.3,0.9,0.9c0.2-0.2,0.7-0.9,1.6-0.9
			c0.7,0,1.1,0.4,1.1,1.1c0,0.6-0.4,1.7-0.6,2.2c-0.1,0.2-0.2,0.5-0.2,0.7c0,0.2,0.1,0.3,0.2,0.3c0.5,0,0.8-0.6,1-1.2
			c0-0.1,0-0.2,0.1-0.2c0,0,0.1,0,0.1,0.1c0,0.1-0.4,1.5-1.3,1.5c-0.5,0-0.8-0.3-0.8-0.8c0-0.1,0-0.2,0.1-0.5
			c0.2-0.4,0.6-1.7,0.6-2.3c0-0.3-0.1-0.7-0.5-0.7c-0.9,0-1.5,0.9-1.6,1.2c0,0-0.1,0.3-0.1,0.5c0,0.2-0.1,0.4-0.2,0.7l-0.2,0.9
			c-0.1,0.2-0.2,0.7-0.2,0.7c-0.1,0.2-0.2,0.3-0.4,0.3c-0.1,0-0.3-0.1-0.3-0.3c0,0,0.1-0.3,0.1-0.4L111.8,84.2z"/>
	</g>
	<g>
		<path class="st0" d="M32.3,51.9c0,0.4,0,0.5,0.9,0.5h0.3v0.3c-0.3,0-1.2,0-1.6,0c-0.4,0-1.3,0-1.6,0v-0.3h0.3
			c0.9,0,0.9-0.1,0.9-0.5v-5.2C31,47,30.5,47,30.3,47v-0.3c0.3,0,1.2,0,1.8-0.6c0.2,0,0.2,0,0.2,0.3V51.9z"/>
	</g>
	<g>
		<path class="st0" d="M97,86.5v-0.3l3.1-4.7c0.1-0.1,0.1-0.1,0.2-0.1c0.2,0,0.2,0.1,0.2,0.3v4.5h1v0.3h-1v0.9c0,0.4,0,0.5,0.8,0.5
			h0.2v0.3c-0.4,0-0.9,0-1.4,0s-0.9,0-1.3,0v-0.3h0.2c0.7,0,0.8-0.1,0.8-0.5v-0.9H97z M99.7,82.5l-2.4,3.7h2.4V82.5z"/>
	</g>
	<g>
		<path class="st0" d="M70.8,79.4c-1.1,0-1.9-0.9-1.9-1.9c0-1,0.9-1.9,1.9-1.9c1,0,1.9,0.9,1.9,1.9S71.9,79.4,70.8,79.4z"/>
		<path class="st0" d="M85,79.4c-1.1,0-1.9-0.9-1.9-1.9c0-1,0.9-1.9,1.9-1.9c1,0,1.9,0.9,1.9,1.9S86.1,79.4,85,79.4z"/>
		<path class="st0" d="M99.2,79.4c-1.1,0-1.9-0.9-1.9-1.9c0-1,0.9-1.9,1.9-1.9c1,0,1.9,0.9,1.9,1.9S100.2,79.4,99.2,79.4z"/>
	</g>
	<g>
		<path class="st0" d="M28.3,51.1c-1.1,0-1.9-0.9-1.9-1.9c0-1,0.9-1.9,1.9-1.9c1,0,1.9,0.9,1.9,1.9S29.4,51.1,28.3,51.1z"/>
	</g>
	<line class="st2" x1="28.3" y1="77.8" x2="28.3" y2="49.5"/>
	<g>
		<path class="st0" d="M42.5,51.1c-1.1,0-1.9-0.9-1.9-1.9c0-1,0.9-1.9,1.9-1.9c1,0,1.9,0.9,1.9,1.9S43.5,51.1,42.5,51.1z"/>
	</g>
	<line class="st2" x1="42.5" y1="77.8" x2="42.5" y2="49.5"/>
	<g>
		<path class="st0" d="M56.7,51.1c-1.1,0-1.9-0.9-1.9-1.9c0-1,0.9-1.9,1.9-1.9c1,0,1.9,0.9,1.9,1.9S57.7,51.1,56.7,51.1z"/>
	</g>
	<line class="st2" x1="56.7" y1="77.8" x2="56.7" y2="49.5"/>
</g>
</svg>
