<?xml version="1.0" encoding="utf-8"?>
<!-- Generator: Adobe Illustrator 22.1.0, SVG Export Plug-In . SVG Version: 6.00 Build 0)  -->
<svg version="1.1" id="Layer_1" xmlns="http://www.w3.org/2000/svg" xmlns:xlink="http://www.w3.org/1999/xlink" x="0px" y="0px"
	 viewBox="0 0 373.2 288.3" style="enable-background:new 0 0 373.2 288.3;" xml:space="preserve">
<style type="text/css">
	.st0{fill:none;stroke:#DFDFDF;stroke-width:0.4998;stroke-linejoin:round;stroke-miterlimit:10;}
	.st1{fill:none;stroke:#262626;stroke-width:0.4998;stroke-linecap:square;stroke-linejoin:round;stroke-miterlimit:10;}
	.st2{fill:#4A4A49;}
	.st3{fill:#262626;}
	.st4{fill:#1D1D1B;}
	.st5{fill:none;stroke:#0000FF;stroke-width:3;stroke-linejoin:round;stroke-miterlimit:10;}
</style>
<g>
	<path class="st0" d="M44.6,270.9V14.1 M126.1,270.9V14.1 M207.5,270.9V14.1 M289,270.9V14.1 M370.4,270.9V14.1 M370.4,270.9H44.6
		 M370.4,245.2H44.6 M370.4,219.5H44.6 M370.4,193.9H44.6 M370.4,168.2H44.6 M370.4,142.5H44.6 M370.4,116.8H44.6 M370.4,91.2H44.6
		 M370.4,65.5H44.6 M370.4,39.8H44.6 M370.4,14.1H44.6"/>
	<path class="st1" d="M44.6,270.9h325.8 M44.6,14.1h325.8 M44.6,270.9v-3.3 M126.1,270.9v-3.3 M207.5,270.9v-3.3 M289,270.9v-3.3
		 M370.4,270.9v-3.3 M44.6,14.1v3.3 M126.1,14.1v3.3 M207.5,14.1v3.3 M289,14.1v3.3 M370.4,14.1v3.3"/>
	<g>
		<path class="st2" d="M40.3,282.1h2.5v0.9h-2.5V282.1z"/>
	</g>
	<path class="st3" d="M44.5,285.1c0,0,0-0.1,0-0.2c0.2-0.4,0.4-0.8,0.5-1.2c0.2-0.4,0.3-0.8,0.4-1.1c0.1-0.4,0.3-0.7,0.4-1.2h-0.7
		c-0.3,0-0.5,0.1-0.7,0.2c-0.2,0.2-0.4,0.4-0.5,0.6c0,0,0,0-0.1,0h-0.1c-0.1,0-0.1,0-0.1-0.1c0,0,0,0,0-0.1c0.2-0.4,0.5-0.7,0.7-1
		c0.3-0.3,0.5-0.4,0.9-0.4H49c0.1,0,0.1,0,0.2,0.1c0.1,0,0.1,0.1,0.1,0.2c0,0.1,0,0.2-0.1,0.3c-0.1,0.1-0.2,0.1-0.3,0.1h-1.3
		c-0.1,0.5-0.2,1.1-0.2,1.6c0,0.7,0.1,1.2,0.3,1.8c0,0,0,0.1,0,0.1c0,0.1,0,0.1-0.1,0.2c0,0.1-0.1,0.1-0.2,0.2
		c-0.1,0-0.1,0.1-0.2,0.1c-0.2,0-0.3-0.1-0.4-0.4s-0.1-0.6-0.1-0.8c0-0.4,0-0.8,0.1-1.1c0.1-0.4,0.2-0.8,0.3-1.5h-1.1
		c-0.5,2.2-0.9,3.4-1,3.6c-0.1,0.2-0.2,0.3-0.4,0.3c-0.1,0-0.2,0-0.2-0.1C44.5,285.3,44.5,285.2,44.5,285.1L44.5,285.1z"/>
	<g>
		<path class="st2" d="M117.7,282.1h2.5v0.9h-2.5V282.1z"/>
	</g>
	<path class="st3" d="M121.9,285.1c0,0,0-0.1,0-0.2c0.2-0.4,0.4-0.8,0.5-1.2c0.2-0.4,0.3-0.8,0.4-1.1c0.1-0.4,0.3-0.7,0.4-1.2h-0.7
		c-0.3,0-0.5,0.1-0.7,0.2c-0.2,0.2-0.4,0.4-0.5,0.6c0,0,0,0-0.1,0h-0.1c-0.1,0-0.1,0-0.1-0.1c0,0,0,0,0-0.1c0.2-0.4,0.5-0.7,0.7-1
		c0.3-0.3,0.5-0.4,0.9-0.4h3.7c0.1,0,0.1,0,0.2,0.1c0,0,0.1,0.1,0.1,0.2c0,0.1,0,0.2-0.1,0.3c-0.1,0.1-0.2,0.1-0.3,0.1H125
		c-0.1,0.5-0.2,1.1-0.2,1.6c0,0.7,0.1,1.2,0.3,1.8c0,0,0,0.1,0,0.1c0,0.1,0,0.1-0.1,0.2c0,0.1-0.1,0.1-0.2,0.2
		c-0.1,0-0.1,0.1-0.2,0.1c-0.2,0-0.3-0.1-0.4-0.4c-0.1-0.3-0.1-0.6-0.1-0.8c0-0.4,0-0.8,0.1-1.1c0.1-0.4,0.2-0.8,0.3-1.5h-1.1
		c-0.5,2.2-0.9,3.4-1,3.6c-0.1,0.2-0.2,0.3-0.4,0.3c-0.1,0-0.2,0-0.2-0.1C121.9,285.3,121.9,285.2,121.9,285.1L121.9,285.1z"/>
	<g>
		<path class="st2" d="M129.8,277.9l-2.4,7.6h-0.7l2.4-7.6H129.8z"/>
		<path class="st2" d="M134.7,280.4c0,0.5-0.1,0.9-0.4,1.3c-0.3,0.3-0.8,0.7-1.5,1.1c-0.8,0.4-1.3,0.8-1.6,1.2
			c-0.1,0.2-0.2,0.3-0.3,0.5h3.8v0.9h-4.8v0c0-0.7,0.2-1.3,0.6-1.8c0.4-0.5,1.1-1,2.1-1.5c0.5-0.3,0.8-0.5,1-0.8
			c0.2-0.2,0.3-0.5,0.3-0.9c0-0.4-0.1-0.7-0.4-0.9c-0.3-0.2-0.6-0.4-1-0.4c-0.4,0-0.8,0.1-1,0.4s-0.4,0.7-0.4,1.3h-0.9
			c0-0.8,0.2-1.4,0.6-1.8c0.4-0.4,1-0.7,1.8-0.7c0.7,0,1.2,0.2,1.6,0.6C134.5,279.2,134.7,279.7,134.7,280.4z"/>
	</g>
	<g>
		<path class="st2" d="M205.5,284.4c-0.4-0.6-0.6-1.5-0.6-2.7s0.2-2,0.6-2.7c0.4-0.6,1-0.9,1.8-0.9c0.8,0,1.4,0.3,1.8,0.9
			c0.4,0.6,0.6,1.5,0.6,2.7s-0.2,2-0.6,2.7s-1,0.9-1.8,0.9C206.6,285.3,206,285,205.5,284.4z M208.4,283.8c0.2-0.5,0.4-1.2,0.4-2.1
			c0-0.9-0.1-1.6-0.4-2.1c-0.2-0.5-0.6-0.7-1.1-0.7c-0.5,0-0.9,0.2-1.1,0.7c-0.2,0.5-0.4,1.2-0.4,2.1c0,0.9,0.1,1.6,0.4,2.1
			s0.6,0.7,1.1,0.7C207.8,284.5,208.2,284.3,208.4,283.8z"/>
	</g>
	<path class="st3" d="M282.7,285.1c0,0,0-0.1,0-0.2c0.2-0.4,0.4-0.8,0.5-1.2c0.2-0.4,0.3-0.8,0.4-1.1c0.1-0.4,0.3-0.7,0.4-1.2h-0.7
		c-0.3,0-0.5,0.1-0.7,0.2c-0.2,0.2-0.4,0.4-0.5,0.6c0,0,0,0-0.1,0H282c-0.1,0-0.1,0-0.1-0.1c0,0,0,0,0-0.1c0.2-0.4,0.5-0.7,0.7-1
		c0.3-0.3,0.5-0.4,0.9-0.4h3.7c0.1,0,0.1,0,0.2,0.1c0,0,0.1,0.1,0.1,0.2c0,0.1,0,0.2-0.1,0.3c-0.1,0.1-0.2,0.1-0.3,0.1h-1.3
		c-0.1,0.5-0.2,1.1-0.2,1.6c0,0.7,0.1,1.2,0.3,1.8c0,0,0,0.1,0,0.1c0,0.1,0,0.1-0.1,0.2c0,0.1-0.1,0.1-0.2,0.2
		c-0.1,0-0.1,0.1-0.2,0.1c-0.2,0-0.3-0.1-0.4-0.4c-0.1-0.3-0.1-0.6-0.1-0.8c0-0.4,0-0.8,0.1-1.1c0.1-0.4,0.2-0.8,0.3-1.5h-1.1
		c-0.5,2.2-0.9,3.4-1,3.6c-0.1,0.2-0.2,0.3-0.4,0.3c-0.1,0-0.2,0-0.2-0.1C282.7,285.3,282.7,285.2,282.7,285.1L282.7,285.1z"/>
	<g>
		<path class="st2" d="M290.6,277.9l-2.4,7.6h-0.7l2.4-7.6H290.6z"/>
		<path class="st2" d="M295.5,280.4c0,0.5-0.1,0.9-0.4,1.3c-0.3,0.3-0.8,0.7-1.5,1.1c-0.8,0.4-1.3,0.8-1.6,1.2
			c-0.1,0.2-0.2,0.3-0.3,0.5h3.8v0.9h-4.8v0c0-0.7,0.2-1.3,0.6-1.8c0.4-0.5,1.1-1,2.1-1.5c0.5-0.3,0.8-0.5,1-0.8
			c0.2-0.2,0.3-0.5,0.3-0.9c0-0.4-0.1-0.7-0.4-0.9c-0.3-0.2-0.6-0.4-1-0.4c-0.4,0-0.8,0.1-1,0.4s-0.4,0.7-0.4,1.3h-0.9
			c0-0.8,0.2-1.4,0.6-1.8c0.4-0.4,1-0.7,1.8-0.7c0.7,0,1.2,0.2,1.6,0.6C295.3,279.2,295.5,279.7,295.5,280.4z"/>
	</g>
	<path class="st3" d="M368.5,285.1c0,0,0-0.1,0-0.2c0.2-0.4,0.4-0.8,0.5-1.2c0.2-0.4,0.3-0.8,0.4-1.1c0.1-0.4,0.3-0.7,0.4-1.2h-0.7
		c-0.3,0-0.5,0.1-0.7,0.2c-0.2,0.2-0.4,0.4-0.5,0.6c0,0,0,0-0.1,0h-0.1c-0.1,0-0.1,0-0.1-0.1c0,0,0,0,0-0.1c0.2-0.4,0.5-0.7,0.7-1
		c0.3-0.3,0.5-0.4,0.9-0.4h3.7c0.1,0,0.1,0,0.2,0.1c0,0,0.1,0.1,0.1,0.2c0,0.1,0,0.2-0.1,0.3c-0.1,0.1-0.2,0.1-0.3,0.1h-1.3
		c-0.1,0.5-0.2,1.1-0.2,1.6c0,0.7,0.1,1.2,0.3,1.8c0,0,0,0.1,0,0.1c0,0.1,0,0.1-0.1,0.2c0,0.1-0.1,0.1-0.2,0.2
		c-0.1,0-0.1,0.1-0.2,0.1c-0.2,0-0.3-0.1-0.4-0.4s-0.1-0.6-0.1-0.8c0-0.4,0-0.8,0.1-1.1c0.1-0.4,0.2-0.8,0.3-1.5h-1.1
		c-0.5,2.2-0.9,3.4-1,3.6c-0.1,0.2-0.2,0.3-0.4,0.3c-0.1,0-0.2,0-0.2-0.1C368.5,285.3,368.5,285.2,368.5,285.1L368.5,285.1z"/>
	<path class="st1" d="M44.6,270.9V14.1 M370.4,270.9V14.1 M44.6,270.9h3.3 M44.6,245.2h3.3 M44.6,219.5h3.3 M44.6,193.9h3.3
		 M44.6,168.2h3.3 M44.6,142.5h3.3 M44.6,116.8h3.3 M44.6,91.2h3.3 M44.6,65.5h3.3 M44.6,39.8h3.3 M44.6,14.1h3.3 M370.4,270.9h-3.3
		 M370.4,245.2h-3.3 M370.4,219.5h-3.3 M370.4,193.9h-3.3 M370.4,168.2h-3.3 M370.4,142.5h-3.3 M370.4,116.8h-3.3 M370.4,91.2h-3.3
		 M370.4,65.5h-3.3 M370.4,39.8h-3.3 M370.4,14.1h-3.3"/>
	<g>
		<path class="st2" d="M21.8,274.1c-0.4-0.6-0.6-1.5-0.6-2.7s0.2-2,0.6-2.7c0.4-0.6,1-0.9,1.8-0.9c0.8,0,1.4,0.3,1.8,0.9
			c0.4,0.6,0.6,1.5,0.6,2.7s-0.2,2-0.6,2.7s-1,0.9-1.8,0.9C22.9,275,22.3,274.7,21.8,274.1z M24.7,273.5c0.2-0.5,0.4-1.2,0.4-2.1
			c0-0.9-0.1-1.6-0.4-2.1c-0.2-0.5-0.6-0.7-1.1-0.7c-0.5,0-0.9,0.2-1.1,0.7c-0.2,0.5-0.4,1.2-0.4,2.1c0,0.9,0.1,1.6,0.4,2.1
			s0.6,0.7,1.1,0.7C24.1,274.2,24.5,274,24.7,273.5z"/>
		<path class="st2" d="M27.3,273.8h1v1.1h-1V273.8z"/>
		<path class="st2" d="M31.8,275c-0.6,0-1.1-0.2-1.5-0.5c-0.4-0.3-0.6-0.8-0.6-1.4h0.8c0,0.4,0.2,0.6,0.4,0.8
			c0.2,0.2,0.5,0.3,0.9,0.3c0.5,0,0.9-0.3,1.2-0.9c0.2-0.4,0.3-1,0.4-1.7c-0.4,0.5-1,0.8-1.6,0.8c-0.7,0-1.2-0.2-1.6-0.6
			c-0.4-0.4-0.6-1-0.6-1.7s0.2-1.3,0.6-1.7s1-0.6,1.7-0.6c0.8,0,1.3,0.3,1.7,0.8c0.4,0.5,0.6,1.3,0.6,2.3c0,1.3-0.2,2.3-0.7,3.1
			S32.6,275,31.8,275z M33.3,270.1c0-0.5-0.1-0.8-0.4-1.1s-0.6-0.4-1-0.4s-0.7,0.1-1,0.4s-0.4,0.7-0.4,1.1s0.1,0.8,0.4,1.1
			s0.6,0.4,1,0.4s0.7-0.1,1-0.4C33.2,270.9,33.3,270.6,33.3,270.1z"/>
		<path class="st2" d="M37.3,275c-0.6,0-1.1-0.2-1.5-0.5c-0.4-0.3-0.6-0.8-0.6-1.4h0.8c0,0.4,0.2,0.6,0.4,0.8
			c0.2,0.2,0.5,0.3,0.9,0.3c0.5,0,0.9-0.3,1.2-0.9c0.2-0.4,0.3-1,0.4-1.7c-0.4,0.5-1,0.8-1.6,0.8c-0.7,0-1.2-0.2-1.6-0.6
			c-0.4-0.4-0.6-1-0.6-1.7s0.2-1.3,0.6-1.7s1-0.6,1.7-0.6c0.8,0,1.3,0.3,1.7,0.8c0.4,0.5,0.6,1.3,0.6,2.3c0,1.3-0.2,2.3-0.7,3.1
			S38.2,275,37.3,275z M38.9,270.1c0-0.5-0.1-0.8-0.4-1.1s-0.6-0.4-1-0.4s-0.7,0.1-1,0.4s-0.4,0.7-0.4,1.1s0.1,0.8,0.4,1.1
			s0.6,0.4,1,0.4s0.7-0.1,1-0.4C38.7,270.9,38.9,270.6,38.9,270.1z"/>
	</g>
	<g>
		<path class="st2" d="M16.4,248.4c-0.4-0.6-0.6-1.5-0.6-2.7s0.2-2,0.6-2.7c0.4-0.6,1-0.9,1.8-0.9c0.8,0,1.4,0.3,1.8,0.9
			c0.4,0.6,0.6,1.5,0.6,2.7s-0.2,2-0.6,2.7s-1,0.9-1.8,0.9C17.5,249.3,16.9,249,16.4,248.4z M19.3,247.8c0.2-0.5,0.4-1.2,0.4-2.1
			c0-0.9-0.1-1.6-0.4-2.1c-0.2-0.5-0.6-0.7-1.1-0.7c-0.5,0-0.9,0.2-1.1,0.7c-0.2,0.5-0.4,1.2-0.4,2.1c0,0.9,0.1,1.6,0.4,2.1
			s0.6,0.7,1.1,0.7C18.7,248.5,19.1,248.3,19.3,247.8z"/>
		<path class="st2" d="M21.9,248.1h1v1.1h-1V248.1z"/>
		<path class="st2" d="M26.4,249.3c-0.6,0-1.1-0.2-1.5-0.5c-0.4-0.3-0.6-0.8-0.6-1.4h0.8c0,0.4,0.2,0.6,0.4,0.8
			c0.2,0.2,0.5,0.3,0.9,0.3c0.5,0,0.9-0.3,1.2-0.9c0.2-0.4,0.3-1,0.4-1.7c-0.4,0.5-1,0.8-1.6,0.8c-0.7,0-1.2-0.2-1.6-0.6
			c-0.4-0.4-0.6-1-0.6-1.7s0.2-1.3,0.6-1.7s1-0.6,1.7-0.6c0.8,0,1.3,0.3,1.7,0.8c0.4,0.5,0.6,1.3,0.6,2.3c0,1.3-0.2,2.3-0.7,3.1
			S27.2,249.3,26.4,249.3z M27.9,244.4c0-0.5-0.1-0.8-0.4-1.1s-0.6-0.4-1-0.4s-0.7,0.1-1,0.4s-0.4,0.7-0.4,1.1s0.1,0.8,0.4,1.1
			s0.6,0.4,1,0.4s0.7-0.1,1-0.4C27.8,245.2,27.9,244.9,27.9,244.4z"/>
		<path class="st2" d="M31.9,249.3c-0.6,0-1.1-0.2-1.5-0.5c-0.4-0.3-0.6-0.8-0.6-1.4h0.8c0,0.4,0.2,0.6,0.4,0.8
			c0.2,0.2,0.5,0.3,0.9,0.3c0.5,0,0.9-0.3,1.2-0.9c0.2-0.4,0.3-1,0.4-1.7c-0.4,0.5-1,0.8-1.6,0.8c-0.7,0-1.2-0.2-1.6-0.6
			c-0.4-0.4-0.6-1-0.6-1.7s0.2-1.3,0.6-1.7s1-0.6,1.7-0.6c0.8,0,1.3,0.3,1.7,0.8c0.4,0.5,0.6,1.3,0.6,2.3c0,1.3-0.2,2.3-0.7,3.1
			S32.8,249.3,31.9,249.3z M33.5,244.4c0-0.5-0.1-0.8-0.4-1.1s-0.6-0.4-1-0.4s-0.7,0.1-1,0.4s-0.4,0.7-0.4,1.1s0.1,0.8,0.4,1.1
			s0.6,0.4,1,0.4s0.7-0.1,1-0.4C33.3,245.2,33.5,244.9,33.5,244.4z"/>
		<path class="st2" d="M40,244.2c0,0.5-0.1,0.9-0.4,1.3c-0.3,0.3-0.8,0.7-1.5,1.1c-0.8,0.4-1.3,0.8-1.6,1.2
			c-0.1,0.2-0.2,0.3-0.3,0.5H40v0.9h-4.8v0c0-0.7,0.2-1.3,0.6-1.8c0.4-0.5,1.1-1,2.1-1.5c0.5-0.3,0.8-0.5,1-0.8
			c0.2-0.2,0.3-0.5,0.3-0.9c0-0.4-0.1-0.7-0.4-0.9c-0.3-0.2-0.6-0.4-1-0.4c-0.4,0-0.8,0.1-1,0.4s-0.4,0.7-0.4,1.3h-0.9
			c0-0.8,0.2-1.4,0.6-1.8c0.4-0.4,1-0.7,1.8-0.7c0.7,0,1.2,0.2,1.6,0.6C39.8,243.1,40,243.6,40,244.2z"/>
	</g>
	<g>
		<path class="st2" d="M16.4,222.7c-0.4-0.6-0.6-1.5-0.6-2.7s0.2-2,0.6-2.7c0.4-0.6,1-0.9,1.8-0.9c0.8,0,1.4,0.3,1.8,0.9
			c0.4,0.6,0.6,1.5,0.6,2.7s-0.2,2-0.6,2.7s-1,0.9-1.8,0.9C17.5,223.6,16.9,223.3,16.4,222.7z M19.3,222.1c0.2-0.5,0.4-1.2,0.4-2.1
			c0-0.9-0.1-1.6-0.4-2.1c-0.2-0.5-0.6-0.7-1.1-0.7c-0.5,0-0.9,0.2-1.1,0.7c-0.2,0.5-0.4,1.2-0.4,2.1c0,0.9,0.1,1.6,0.4,2.1
			s0.6,0.7,1.1,0.7C18.7,222.9,19.1,222.6,19.3,222.1z"/>
		<path class="st2" d="M21.9,222.4h1v1.1h-1V222.4z"/>
		<path class="st2" d="M26.4,223.6c-0.6,0-1.1-0.2-1.5-0.5c-0.4-0.3-0.6-0.8-0.6-1.4h0.8c0,0.4,0.2,0.6,0.4,0.8
			c0.2,0.2,0.5,0.3,0.9,0.3c0.5,0,0.9-0.3,1.2-0.9c0.2-0.4,0.3-1,0.4-1.7c-0.4,0.5-1,0.8-1.6,0.8c-0.7,0-1.2-0.2-1.6-0.6
			c-0.4-0.4-0.6-1-0.6-1.7s0.2-1.3,0.6-1.7s1-0.6,1.7-0.6c0.8,0,1.3,0.3,1.7,0.8c0.4,0.5,0.6,1.3,0.6,2.3c0,1.3-0.2,2.3-0.7,3.1
			S27.2,223.6,26.4,223.6z M27.9,218.8c0-0.5-0.1-0.8-0.4-1.1s-0.6-0.4-1-0.4s-0.7,0.1-1,0.4s-0.4,0.7-0.4,1.1s0.1,0.8,0.4,1.1
			s0.6,0.4,1,0.4s0.7-0.1,1-0.4C27.8,219.6,27.9,219.2,27.9,218.8z"/>
		<path class="st2" d="M31.9,223.6c-0.6,0-1.1-0.2-1.5-0.5c-0.4-0.3-0.6-0.8-0.6-1.4h0.8c0,0.4,0.2,0.6,0.4,0.8
			c0.2,0.2,0.5,0.3,0.9,0.3c0.5,0,0.9-0.3,1.2-0.9c0.2-0.4,0.3-1,0.4-1.7c-0.4,0.5-1,0.8-1.6,0.8c-0.7,0-1.2-0.2-1.6-0.6
			c-0.4-0.4-0.6-1-0.6-1.7s0.2-1.3,0.6-1.7s1-0.6,1.7-0.6c0.8,0,1.3,0.3,1.7,0.8c0.4,0.5,0.6,1.3,0.6,2.3c0,1.3-0.2,2.3-0.7,3.1
			S32.8,223.6,31.9,223.6z M33.5,218.8c0-0.5-0.1-0.8-0.4-1.1s-0.6-0.4-1-0.4s-0.7,0.1-1,0.4s-0.4,0.7-0.4,1.1s0.1,0.8,0.4,1.1
			s0.6,0.4,1,0.4s0.7-0.1,1-0.4C33.3,219.6,33.5,219.2,33.5,218.8z"/>
		<path class="st2" d="M35.2,221.8v-0.4v-0.4l3.3-4.5h0.4h0.4v4.6h1v0.8h-1v1.7h-0.9v-1.7H35.2z M38.3,221v-3.2l-2.2,3.1l0,0.1H38.3
			z"/>
	</g>
	<g>
		<path class="st2" d="M16.4,197c-0.4-0.6-0.6-1.5-0.6-2.7s0.2-2,0.6-2.7c0.4-0.6,1-0.9,1.8-0.9c0.8,0,1.4,0.3,1.8,0.9
			c0.4,0.6,0.6,1.5,0.6,2.7s-0.2,2-0.6,2.7s-1,0.9-1.8,0.9C17.5,198,16.9,197.6,16.4,197z M19.3,196.5c0.2-0.5,0.4-1.2,0.4-2.1
			c0-0.9-0.1-1.6-0.4-2.1c-0.2-0.5-0.6-0.7-1.1-0.7c-0.5,0-0.9,0.2-1.1,0.7c-0.2,0.5-0.4,1.2-0.4,2.1c0,0.9,0.1,1.6,0.4,2.1
			s0.6,0.7,1.1,0.7C18.7,197.2,19.1,196.9,19.3,196.5z"/>
		<path class="st2" d="M21.9,196.7h1v1.1h-1V196.7z"/>
		<path class="st2" d="M26.4,198c-0.6,0-1.1-0.2-1.5-0.5c-0.4-0.3-0.6-0.8-0.6-1.4h0.8c0,0.4,0.2,0.6,0.4,0.8
			c0.2,0.2,0.5,0.3,0.9,0.3c0.5,0,0.9-0.3,1.2-0.9c0.2-0.4,0.3-1,0.4-1.7c-0.4,0.5-1,0.8-1.6,0.8c-0.7,0-1.2-0.2-1.6-0.6
			c-0.4-0.4-0.6-1-0.6-1.7s0.2-1.3,0.6-1.7s1-0.6,1.7-0.6c0.8,0,1.3,0.3,1.7,0.8c0.4,0.5,0.6,1.3,0.6,2.3c0,1.3-0.2,2.3-0.7,3.1
			S27.2,198,26.4,198z M27.9,193.1c0-0.5-0.1-0.8-0.4-1.1s-0.6-0.4-1-0.4s-0.7,0.1-1,0.4s-0.4,0.7-0.4,1.1s0.1,0.8,0.4,1.1
			s0.6,0.4,1,0.4s0.7-0.1,1-0.4C27.8,193.9,27.9,193.5,27.9,193.1z"/>
		<path class="st2" d="M31.9,198c-0.6,0-1.1-0.2-1.5-0.5c-0.4-0.3-0.6-0.8-0.6-1.4h0.8c0,0.4,0.2,0.6,0.4,0.8
			c0.2,0.2,0.5,0.3,0.9,0.3c0.5,0,0.9-0.3,1.2-0.9c0.2-0.4,0.3-1,0.4-1.7c-0.4,0.5-1,0.8-1.6,0.8c-0.7,0-1.2-0.2-1.6-0.6
			c-0.4-0.4-0.6-1-0.6-1.7s0.2-1.3,0.6-1.7s1-0.6,1.7-0.6c0.8,0,1.3,0.3,1.7,0.8c0.4,0.5,0.6,1.3,0.6,2.3c0,1.3-0.2,2.3-0.7,3.1
			S32.8,198,31.9,198z M33.5,193.1c0-0.5-0.1-0.8-0.4-1.1s-0.6-0.4-1-0.4s-0.7,0.1-1,0.4s-0.4,0.7-0.4,1.1s0.1,0.8,0.4,1.1
			s0.6,0.4,1,0.4s0.7-0.1,1-0.4C33.3,193.9,33.5,193.5,33.5,193.1z"/>
		<path class="st2" d="M37.9,190.7c0.6,0,1.1,0.2,1.5,0.5c0.4,0.3,0.6,0.8,0.6,1.4h-0.9c0-0.3-0.2-0.6-0.4-0.8s-0.5-0.3-0.8-0.3
			c-0.5,0-1,0.3-1.3,0.8c-0.3,0.4-0.4,1.1-0.4,1.8c0.4-0.6,1-0.8,1.7-0.8c0.7,0,1.2,0.2,1.6,0.6c0.4,0.4,0.6,1,0.6,1.7
			s-0.2,1.3-0.7,1.7s-1,0.6-1.7,0.6c-0.8,0-1.4-0.3-1.8-0.9c-0.4-0.6-0.6-1.4-0.6-2.5c0-1.2,0.2-2.2,0.7-2.8
			C36.4,191.1,37.1,190.7,37.9,190.7z M36.3,195.6c0,0.5,0.1,0.8,0.4,1.1s0.6,0.4,1,0.4s0.8-0.1,1-0.4s0.4-0.7,0.4-1.1
			s-0.1-0.8-0.4-1.1s-0.6-0.4-1-0.4s-0.8,0.1-1,0.4C36.5,194.8,36.3,195.2,36.3,195.6z"/>
	</g>
	<g>
		<path class="st2" d="M16.4,171.3c-0.4-0.6-0.6-1.5-0.6-2.7s0.2-2,0.6-2.7c0.4-0.6,1-0.9,1.8-0.9c0.8,0,1.4,0.3,1.8,0.9
			c0.4,0.6,0.6,1.5,0.6,2.7s-0.2,2-0.6,2.7s-1,0.9-1.8,0.9C17.5,172.3,16.9,172,16.4,171.3z M19.3,170.8c0.2-0.5,0.4-1.2,0.4-2.1
			c0-0.9-0.1-1.6-0.4-2.1c-0.2-0.5-0.6-0.7-1.1-0.7c-0.5,0-0.9,0.2-1.1,0.7c-0.2,0.5-0.4,1.2-0.4,2.1c0,0.9,0.1,1.6,0.4,2.1
			s0.6,0.7,1.1,0.7C18.7,171.5,19.1,171.3,19.3,170.8z"/>
		<path class="st2" d="M21.9,171h1v1.1h-1V171z"/>
		<path class="st2" d="M26.4,172.3c-0.6,0-1.1-0.2-1.5-0.5c-0.4-0.3-0.6-0.8-0.6-1.4h0.8c0,0.4,0.2,0.6,0.4,0.8
			c0.2,0.2,0.5,0.3,0.9,0.3c0.5,0,0.9-0.3,1.2-0.9c0.2-0.4,0.3-1,0.4-1.7c-0.4,0.5-1,0.8-1.6,0.8c-0.7,0-1.2-0.2-1.6-0.6
			c-0.4-0.4-0.6-1-0.6-1.7s0.2-1.3,0.6-1.7s1-0.6,1.7-0.6c0.8,0,1.3,0.3,1.7,0.8c0.4,0.5,0.6,1.3,0.6,2.3c0,1.3-0.2,2.3-0.7,3.1
			S27.2,172.3,26.4,172.3z M27.9,167.4c0-0.5-0.1-0.8-0.4-1.1s-0.6-0.4-1-0.4s-0.7,0.1-1,0.4s-0.4,0.7-0.4,1.1s0.1,0.8,0.4,1.1
			s0.6,0.4,1,0.4s0.7-0.1,1-0.4C27.8,168.2,27.9,167.8,27.9,167.4z"/>
		<path class="st2" d="M31.9,172.3c-0.6,0-1.1-0.2-1.5-0.5c-0.4-0.3-0.6-0.8-0.6-1.4h0.8c0,0.4,0.2,0.6,0.4,0.8
			c0.2,0.2,0.5,0.3,0.9,0.3c0.5,0,0.9-0.3,1.2-0.9c0.2-0.4,0.3-1,0.4-1.7c-0.4,0.5-1,0.8-1.6,0.8c-0.7,0-1.2-0.2-1.6-0.6
			c-0.4-0.4-0.6-1-0.6-1.7s0.2-1.3,0.6-1.7s1-0.6,1.7-0.6c0.8,0,1.3,0.3,1.7,0.8c0.4,0.5,0.6,1.3,0.6,2.3c0,1.3-0.2,2.3-0.7,3.1
			S32.8,172.3,31.9,172.3z M33.5,167.4c0-0.5-0.1-0.8-0.4-1.1s-0.6-0.4-1-0.4s-0.7,0.1-1,0.4s-0.4,0.7-0.4,1.1s0.1,0.8,0.4,1.1
			s0.6,0.4,1,0.4s0.7-0.1,1-0.4C33.3,168.2,33.5,167.8,33.5,167.4z"/>
		<path class="st2" d="M38.9,168.4c0.2,0.1,0.4,0.2,0.5,0.3c0.4,0.4,0.7,0.8,0.7,1.4c0,0.7-0.2,1.2-0.7,1.6s-1,0.6-1.7,0.6
			s-1.3-0.2-1.7-0.6s-0.7-0.9-0.7-1.6c0-0.6,0.2-1.1,0.7-1.4c0.2-0.1,0.3-0.2,0.5-0.3c-0.1-0.1-0.2-0.1-0.3-0.2
			c-0.4-0.3-0.6-0.7-0.6-1.2c0-0.6,0.2-1,0.6-1.4s0.9-0.5,1.6-0.5s1.2,0.2,1.6,0.5s0.6,0.8,0.6,1.4c0,0.5-0.2,0.9-0.6,1.2
			C39.1,168.2,39,168.3,38.9,168.4z M37.7,168.8c-0.4,0-0.8,0.1-1.1,0.4c-0.3,0.3-0.4,0.6-0.4,1c0,0.4,0.1,0.7,0.4,1
			s0.6,0.4,1.1,0.4s0.8-0.1,1.1-0.4s0.4-0.6,0.4-1c0-0.4-0.1-0.7-0.4-1C38.5,168.9,38.1,168.8,37.7,168.8z M37.7,168
			c0.4,0,0.7-0.1,0.9-0.3s0.3-0.5,0.3-0.8s-0.1-0.6-0.3-0.8s-0.5-0.3-0.9-0.3s-0.7,0.1-0.9,0.3s-0.3,0.5-0.3,0.8s0.1,0.6,0.3,0.8
			C37,167.9,37.3,168,37.7,168z"/>
	</g>
	<g>
		<path class="st2" d="M37.3,141.4h-1.6v-0.7c0.5,0,0.9-0.1,1.2-0.3c0.3-0.2,0.5-0.6,0.7-1h0.7v7h-0.5h-0.5V141.4z"/>
	</g>
	<g>
		<path class="st2" d="M18.1,115.7h-1.6V115c0.5,0,0.9-0.1,1.2-0.3c0.3-0.2,0.5-0.6,0.7-1H19v7h-0.5h-0.5V115.7z"/>
		<path class="st2" d="M21.9,119.7h1v1.1h-1V119.7z"/>
		<path class="st2" d="M24.8,120c-0.4-0.6-0.6-1.5-0.6-2.7s0.2-2,0.6-2.7c0.4-0.6,1-0.9,1.8-0.9c0.8,0,1.4,0.3,1.8,0.9
			c0.4,0.6,0.6,1.5,0.6,2.7s-0.2,2-0.6,2.7s-1,0.9-1.8,0.9C25.8,120.9,25.2,120.6,24.8,120z M27.7,119.4c0.2-0.5,0.4-1.2,0.4-2.1
			c0-0.9-0.1-1.6-0.4-2.1c-0.2-0.5-0.6-0.7-1.1-0.7c-0.5,0-0.9,0.2-1.1,0.7c-0.2,0.5-0.4,1.2-0.4,2.1c0,0.9,0.1,1.6,0.4,2.1
			s0.6,0.7,1.1,0.7C27.1,120.1,27.4,119.9,27.7,119.4z"/>
		<path class="st2" d="M30.3,120c-0.4-0.6-0.6-1.5-0.6-2.7s0.2-2,0.6-2.7c0.4-0.6,1-0.9,1.8-0.9c0.8,0,1.4,0.3,1.8,0.9
			c0.4,0.6,0.6,1.5,0.6,2.7s-0.2,2-0.6,2.7s-1,0.9-1.8,0.9C31.4,120.9,30.8,120.6,30.3,120z M33.2,119.4c0.2-0.5,0.4-1.2,0.4-2.1
			c0-0.9-0.1-1.6-0.4-2.1c-0.2-0.5-0.6-0.7-1.1-0.7c-0.5,0-0.9,0.2-1.1,0.7c-0.2,0.5-0.4,1.2-0.4,2.1c0,0.9,0.1,1.6,0.4,2.1
			s0.6,0.7,1.1,0.7C32.6,120.1,33,119.9,33.2,119.4z"/>
		<path class="st2" d="M40,115.8c0,0.5-0.1,0.9-0.4,1.3s-0.8,0.7-1.5,1.1c-0.8,0.4-1.3,0.8-1.6,1.2c-0.1,0.2-0.2,0.3-0.3,0.5H40v0.9
			h-4.8v0c0-0.7,0.2-1.3,0.6-1.8s1.1-1,2.1-1.5c0.5-0.3,0.8-0.5,1-0.8c0.2-0.2,0.3-0.5,0.3-0.9c0-0.4-0.1-0.7-0.4-0.9
			s-0.6-0.4-1-0.4c-0.4,0-0.8,0.1-1,0.4c-0.2,0.3-0.4,0.7-0.4,1.3h-0.9c0-0.8,0.2-1.4,0.6-1.8c0.4-0.4,1-0.7,1.8-0.7
			c0.7,0,1.2,0.2,1.6,0.6C39.8,114.7,40,115.2,40,115.8z"/>
	</g>
	<g>
		<path class="st2" d="M18.1,90.1h-1.6v-0.7c0.5,0,0.9-0.1,1.2-0.3c0.3-0.2,0.5-0.6,0.7-1H19v7h-0.5h-0.5V90.1z"/>
		<path class="st2" d="M21.9,94h1v1.1h-1V94z"/>
		<path class="st2" d="M24.8,94.3c-0.4-0.6-0.6-1.5-0.6-2.7s0.2-2,0.6-2.7c0.4-0.6,1-0.9,1.8-0.9c0.8,0,1.4,0.3,1.8,0.9
			c0.4,0.6,0.6,1.5,0.6,2.7s-0.2,2-0.6,2.7s-1,0.9-1.8,0.9C25.8,95.2,25.2,94.9,24.8,94.3z M27.7,93.7c0.2-0.5,0.4-1.2,0.4-2.1
			c0-0.9-0.1-1.6-0.4-2.1c-0.2-0.5-0.6-0.7-1.1-0.7c-0.5,0-0.9,0.2-1.1,0.7c-0.2,0.5-0.4,1.2-0.4,2.1c0,0.9,0.1,1.6,0.4,2.1
			s0.6,0.7,1.1,0.7C27.1,94.5,27.4,94.2,27.7,93.7z"/>
		<path class="st2" d="M30.3,94.3c-0.4-0.6-0.6-1.5-0.6-2.7s0.2-2,0.6-2.7c0.4-0.6,1-0.9,1.8-0.9c0.8,0,1.4,0.3,1.8,0.9
			c0.4,0.6,0.6,1.5,0.6,2.7s-0.2,2-0.6,2.7s-1,0.9-1.8,0.9C31.4,95.2,30.8,94.9,30.3,94.3z M33.2,93.7c0.2-0.5,0.4-1.2,0.4-2.1
			c0-0.9-0.1-1.6-0.4-2.1c-0.2-0.5-0.6-0.7-1.1-0.7c-0.5,0-0.9,0.2-1.1,0.7c-0.2,0.5-0.4,1.2-0.4,2.1c0,0.9,0.1,1.6,0.4,2.1
			s0.6,0.7,1.1,0.7C32.6,94.5,33,94.2,33.2,93.7z"/>
		<path class="st2" d="M35.2,93.4V93v-0.4l3.3-4.5h0.4h0.4v4.6h1v0.8h-1v1.7h-0.9v-1.7H35.2z M38.3,92.6v-3.2L36,92.5l0,0.1H38.3z"
			/>
	</g>
	<g>
		<path class="st2" d="M18.1,64.4h-1.6v-0.7c0.5,0,0.9-0.1,1.2-0.3c0.3-0.2,0.5-0.6,0.7-1H19v7h-0.5h-0.5V64.4z"/>
		<path class="st2" d="M21.9,68.3h1v1.1h-1V68.3z"/>
		<path class="st2" d="M24.8,68.6c-0.4-0.6-0.6-1.5-0.6-2.7s0.2-2,0.6-2.7c0.4-0.6,1-0.9,1.8-0.9c0.8,0,1.4,0.3,1.8,0.9
			c0.4,0.6,0.6,1.5,0.6,2.7s-0.2,2-0.6,2.7s-1,0.9-1.8,0.9C25.8,69.6,25.2,69.3,24.8,68.6z M27.7,68.1c0.2-0.5,0.4-1.2,0.4-2.1
			c0-0.9-0.1-1.6-0.4-2.1c-0.2-0.5-0.6-0.7-1.1-0.7c-0.5,0-0.9,0.2-1.1,0.7c-0.2,0.5-0.4,1.2-0.4,2.1c0,0.9,0.1,1.6,0.4,2.1
			s0.6,0.7,1.1,0.7C27.1,68.8,27.4,68.5,27.7,68.1z"/>
		<path class="st2" d="M30.3,68.6c-0.4-0.6-0.6-1.5-0.6-2.7s0.2-2,0.6-2.7c0.4-0.6,1-0.9,1.8-0.9c0.8,0,1.4,0.3,1.8,0.9
			c0.4,0.6,0.6,1.5,0.6,2.7s-0.2,2-0.6,2.7s-1,0.9-1.8,0.9C31.4,69.6,30.8,69.3,30.3,68.6z M33.2,68.1c0.2-0.5,0.4-1.2,0.4-2.1
			c0-0.9-0.1-1.6-0.4-2.1c-0.2-0.5-0.6-0.7-1.1-0.7c-0.5,0-0.9,0.2-1.1,0.7c-0.2,0.5-0.4,1.2-0.4,2.1c0,0.9,0.1,1.6,0.4,2.1
			s0.6,0.7,1.1,0.7C32.6,68.8,33,68.5,33.2,68.1z"/>
		<path class="st2" d="M37.9,62.3c0.6,0,1.1,0.2,1.5,0.5c0.4,0.3,0.6,0.8,0.6,1.4h-0.9c0-0.3-0.2-0.6-0.4-0.8
			c-0.2-0.2-0.5-0.3-0.8-0.3c-0.5,0-1,0.3-1.3,0.8c-0.3,0.4-0.4,1.1-0.4,1.8c0.4-0.6,1-0.8,1.7-0.8c0.7,0,1.2,0.2,1.6,0.6
			s0.6,1,0.6,1.7s-0.2,1.3-0.7,1.7s-1,0.6-1.7,0.6c-0.8,0-1.4-0.3-1.8-0.9s-0.6-1.4-0.6-2.5c0-1.2,0.2-2.2,0.7-2.8
			C36.4,62.7,37.1,62.3,37.9,62.3z M36.3,67.2c0,0.5,0.1,0.8,0.4,1.1s0.6,0.4,1,0.4s0.8-0.1,1-0.4s0.4-0.7,0.4-1.1s-0.1-0.8-0.4-1.1
			s-0.6-0.4-1-0.4s-0.8,0.1-1,0.4C36.5,66.4,36.3,66.8,36.3,67.2z"/>
	</g>
	<g>
		<path class="st2" d="M18.1,38.7h-1.6V38c0.5,0,0.9-0.1,1.2-0.3c0.3-0.2,0.5-0.6,0.7-1H19v7h-0.5h-0.5V38.7z"/>
		<path class="st2" d="M21.9,42.6h1v1.1h-1V42.6z"/>
		<path class="st2" d="M24.8,42.9c-0.4-0.6-0.6-1.5-0.6-2.7s0.2-2,0.6-2.7c0.4-0.6,1-0.9,1.8-0.9c0.8,0,1.4,0.3,1.8,0.9
			c0.4,0.6,0.6,1.5,0.6,2.7s-0.2,2-0.6,2.7s-1,0.9-1.8,0.9C25.8,43.9,25.2,43.6,24.8,42.9z M27.7,42.4c0.2-0.5,0.4-1.2,0.4-2.1
			c0-0.9-0.1-1.6-0.4-2.1c-0.2-0.5-0.6-0.7-1.1-0.7c-0.5,0-0.9,0.2-1.1,0.7c-0.2,0.5-0.4,1.2-0.4,2.1c0,0.9,0.1,1.6,0.4,2.1
			s0.6,0.7,1.1,0.7C27.1,43.1,27.4,42.9,27.7,42.4z"/>
		<path class="st2" d="M30.3,42.9c-0.4-0.6-0.6-1.5-0.6-2.7s0.2-2,0.6-2.7c0.4-0.6,1-0.9,1.8-0.9c0.8,0,1.4,0.3,1.8,0.9
			c0.4,0.6,0.6,1.5,0.6,2.7s-0.2,2-0.6,2.7s-1,0.9-1.8,0.9C31.4,43.9,30.8,43.6,30.3,42.9z M33.2,42.4c0.2-0.5,0.4-1.2,0.4-2.1
			c0-0.9-0.1-1.6-0.4-2.1c-0.2-0.5-0.6-0.7-1.1-0.7c-0.5,0-0.9,0.2-1.1,0.7c-0.2,0.5-0.4,1.2-0.4,2.1c0,0.9,0.1,1.6,0.4,2.1
			s0.6,0.7,1.1,0.7C32.6,43.1,33,42.9,33.2,42.4z"/>
		<path class="st2" d="M38.9,40c0.2,0.1,0.4,0.2,0.5,0.3c0.4,0.4,0.7,0.8,0.7,1.4c0,0.7-0.2,1.2-0.7,1.6s-1,0.6-1.7,0.6
			s-1.3-0.2-1.7-0.6s-0.7-0.9-0.7-1.6c0-0.6,0.2-1.1,0.7-1.4c0.2-0.1,0.3-0.2,0.5-0.3c-0.1-0.1-0.2-0.1-0.3-0.2
			c-0.4-0.3-0.6-0.7-0.6-1.2c0-0.6,0.2-1,0.6-1.4s0.9-0.5,1.6-0.5s1.2,0.2,1.6,0.5s0.6,0.8,0.6,1.4c0,0.5-0.2,0.9-0.6,1.2
			C39.1,39.8,39,39.9,38.9,40z M37.7,40.4c-0.4,0-0.8,0.1-1.1,0.4s-0.4,0.6-0.4,1c0,0.4,0.1,0.7,0.4,1s0.6,0.4,1.1,0.4
			s0.8-0.1,1.1-0.4s0.4-0.6,0.4-1c0-0.4-0.1-0.7-0.4-1C38.5,40.5,38.1,40.4,37.7,40.4z M37.7,39.6c0.4,0,0.7-0.1,0.9-0.3
			s0.3-0.5,0.3-0.8s-0.1-0.6-0.3-0.8c-0.2-0.2-0.5-0.3-0.9-0.3s-0.7,0.1-0.9,0.3c-0.2,0.2-0.3,0.5-0.3,0.8s0.1,0.6,0.3,0.8
			C37,39.5,37.3,39.6,37.7,39.6z"/>
	</g>
	<g>
		<path class="st2" d="M23.5,13h-1.6v-0.7c0.5,0,0.9-0.1,1.2-0.3c0.3-0.2,0.5-0.6,0.7-1h0.7v7H24h-0.5V13z"/>
		<path class="st2" d="M27.3,17h1V18h-1V17z"/>
		<path class="st2" d="M30.2,17.3c-0.4-0.6-0.6-1.5-0.6-2.7s0.2-2,0.6-2.7c0.4-0.6,1-0.9,1.8-0.9c0.8,0,1.4,0.3,1.8,0.9
			c0.4,0.6,0.6,1.5,0.6,2.7s-0.2,2-0.6,2.7s-1,0.9-1.8,0.9C31.2,18.2,30.6,17.9,30.2,17.3z M33.1,16.7c0.2-0.5,0.4-1.2,0.4-2.1
			c0-0.9-0.1-1.6-0.4-2.1c-0.2-0.5-0.6-0.7-1.1-0.7c-0.5,0-0.9,0.2-1.1,0.7c-0.2,0.5-0.4,1.2-0.4,2.1c0,0.9,0.1,1.6,0.4,2.1
			s0.6,0.7,1.1,0.7C32.5,17.4,32.8,17.2,33.1,16.7z"/>
		<path class="st2" d="M37.4,13h-1.6v-0.7c0.5,0,0.9-0.1,1.2-0.3c0.3-0.2,0.5-0.6,0.7-1h0.7v7h-0.5h-0.5V13z"/>
	</g>
	<g>
		<path class="st2" d="M9.4,166.5v0.5v0.5H1.6v-0.8V166l6.7-2.3l-6.7-2.2v-0.8v-0.8h7.9v0.5v0.5H2.8v0l6.7,2.2v0.5v0.5l-6.7,2.2v0
			H9.4z"/>
		<path class="st2" d="M9.6,156.9c0,0.6-0.2,1-0.5,1.3s-0.7,0.5-1.2,0.5c-0.5,0-0.9-0.2-1.2-0.5s-0.5-0.8-0.6-1.4L6,155.6
			c0-0.1,0-0.2-0.1-0.3c0-0.1-0.1-0.2-0.2-0.3c-0.1-0.1-0.2-0.1-0.4-0.1h0c-0.3,0-0.5,0.1-0.7,0.3c-0.2,0.2-0.3,0.6-0.3,1
			c0,0.4,0.1,0.7,0.3,0.9c0.2,0.2,0.5,0.4,0.8,0.4v0.9c-0.6,0-1.1-0.3-1.4-0.7s-0.5-1-0.5-1.7c0-0.7,0.2-1.2,0.5-1.6
			c0.3-0.4,0.7-0.5,1.3-0.5h3.2c0.1,0,0.2,0,0.2-0.1c0.1-0.1,0.1-0.1,0.1-0.2c0,0,0-0.1,0-0.1c0-0.1,0-0.1,0-0.2h0.7
			c0,0.1,0.1,0.2,0.1,0.3c0,0.1,0,0.2,0,0.3c0,0.4-0.1,0.6-0.3,0.8c-0.1,0.1-0.3,0.2-0.6,0.2c0.1,0.1,0.2,0.2,0.3,0.2
			C9.4,155.6,9.6,156.2,9.6,156.9z M7.2,154.9H6.5c0.1,0.2,0.1,0.4,0.2,0.6l0.1,0.9c0.1,0.5,0.2,0.8,0.3,1c0.2,0.2,0.4,0.3,0.6,0.3
			c0.3,0,0.6-0.1,0.7-0.3c0.2-0.2,0.3-0.4,0.3-0.7c0-0.5-0.1-0.9-0.4-1.3C8.2,155.2,8,155,7.7,155c0,0-0.1,0-0.2,0
			C7.4,154.9,7.3,154.9,7.2,154.9z"/>
		<path class="st2" d="M11.1,150.2c0-0.6-0.2-1-0.5-1.3c-0.3-0.3-0.9-0.4-1.5-0.4H8.8l0,0c0.5,0.4,0.8,0.9,0.8,1.6
			c0,0.8-0.3,1.4-0.9,1.8c-0.6,0.5-1.4,0.7-2.3,0.7c-0.9,0-1.6-0.2-2.1-0.7c-0.5-0.4-0.8-1-0.8-1.8c0-0.7,0.3-1.2,0.9-1.6l0.1-0.1
			H3.7v-0.9H9c1,0,1.7,0.2,2.2,0.7c0.5,0.4,0.7,1.1,0.7,2c0,0.7-0.2,1.2-0.5,1.6c-0.3,0.4-0.7,0.6-1.3,0.7v-1
			c0.3-0.1,0.5-0.2,0.7-0.4S11.1,150.5,11.1,150.2z M4.4,150c0,0.5,0.2,0.9,0.5,1.2s0.9,0.4,1.6,0.4c0.7,0,1.2-0.1,1.6-0.4
			s0.6-0.7,0.6-1.2c0-0.5-0.2-0.8-0.5-1.1c-0.4-0.3-0.8-0.4-1.4-0.4c-0.8,0-1.4,0.1-1.8,0.4C4.6,149.1,4.4,149.5,4.4,150z"/>
		<path class="st2" d="M3.7,146.2v-0.5v-0.5h0.8l-0.3-0.2c-0.5-0.4-0.7-0.9-0.7-1.6c0-0.6,0.2-1.1,0.5-1.5s0.8-0.5,1.5-0.5h3.9v0.5
			v0.5H5.8c-0.5,0-0.9,0.1-1.1,0.3c-0.2,0.2-0.3,0.5-0.3,0.9c0,0.5,0.2,0.8,0.5,1.1c0.4,0.3,0.8,0.4,1.4,0.4h3.1v0.5v0.5H3.7z"/>
		<path class="st2" d="M1.6,140.1v-1h1.1v1H1.6z M3.7,140v-0.5v-0.5h5.7v0.5v0.5H3.7z"/>
		<path class="st2" d="M9.4,135.5c0.1,0.3,0.1,0.6,0.1,0.7c0,0.4-0.1,0.7-0.3,0.9c-0.2,0.2-0.5,0.3-1,0.3H4.5v0.8H3.7v-0.8H2.1v-1
			h1.6v-0.9h0.8v0.9h3.8c0.1,0,0.2-0.1,0.3-0.2s0.1-0.2,0.1-0.4v-0.3H9.4z"/>
		<path class="st2" d="M7.4,133.6c0.5,0,0.8-0.1,1-0.3c0.2-0.2,0.3-0.5,0.3-0.9c0-0.5-0.2-0.8-0.5-1.1c-0.4-0.3-0.8-0.4-1.5-0.4H3.7
			v-0.5v-0.5h5.7v0.5v0.5H8.6c0.1,0.1,0.2,0.1,0.3,0.2c0.5,0.4,0.7,0.9,0.7,1.5c0,0.7-0.2,1.1-0.5,1.5s-0.8,0.5-1.5,0.5H3.7v-0.5
			v-0.5H7.4z"/>
		<path class="st2" d="M9.6,126.3c0,0.8-0.3,1.4-0.9,1.8s-1.4,0.7-2.3,0.7c-0.9,0-1.6-0.2-2.1-0.7c-0.5-0.4-0.8-1-0.8-1.7
			c0-0.7,0.3-1.3,0.9-1.7l0.1-0.1h-3v-0.5v-0.5h7.9v0.4v0.5H8.7l0.2,0.1C9.4,125.1,9.6,125.6,9.6,126.3z M4.4,126.2
			c0,0.5,0.2,0.9,0.5,1.2c0.3,0.3,0.9,0.4,1.6,0.4c0.7,0,1.3-0.1,1.6-0.4c0.4-0.3,0.6-0.7,0.6-1.2c0-0.5-0.2-0.8-0.5-1.1
			c-0.4-0.3-0.8-0.4-1.4-0.4c-0.8,0-1.4,0.1-1.8,0.4C4.6,125.3,4.4,125.7,4.4,126.2z"/>
		<path class="st2" d="M9.6,120c0,0.8-0.3,1.5-0.8,1.9s-1.2,0.7-2.1,0.7c-1,0-1.7-0.2-2.3-0.7c-0.6-0.5-0.9-1.2-0.9-2
			c0-0.8,0.3-1.4,0.8-1.8s1.3-0.7,2.2-0.7l0.3,0v4.2c0.6,0,1-0.2,1.3-0.4c0.4-0.3,0.5-0.7,0.5-1.3c0-0.4-0.1-0.7-0.3-1
			c-0.2-0.3-0.5-0.4-0.8-0.5v-1c0.6,0.1,1.1,0.4,1.4,0.9C9.4,118.8,9.6,119.3,9.6,120z M6.1,118.4c-0.5,0-0.9,0.2-1.2,0.4
			c-0.3,0.3-0.5,0.6-0.5,1.1c0,0.5,0.2,0.9,0.6,1.2c0.3,0.2,0.7,0.4,1.2,0.4V118.4z"/>
	</g>
	<g>
		<path class="st4" d="M186.2,8.1l4-5.1h-3.9V1.5h6v1.3l-4.1,5.2h4.1v1.4h-6.1V8.1z"/>
		<path class="st4" d="M198.3,8.7c-0.5,0.6-1.2,0.9-2.3,0.9c-1,0-1.8-0.3-2.3-0.9S193,7.4,193,6.5c0-0.8,0.2-1.6,0.7-2.2
			c0.5-0.6,1.2-0.9,2.3-0.9c1,0,1.8,0.3,2.3,0.9c0.5,0.6,0.7,1.4,0.7,2.2C199,7.4,198.8,8.1,198.3,8.7z M197,7.9
			c0.2-0.3,0.4-0.8,0.4-1.4s-0.1-1-0.4-1.4c-0.2-0.3-0.6-0.5-1-0.5c-0.4,0-0.8,0.2-1,0.5s-0.4,0.8-0.4,1.4s0.1,1,0.4,1.4
			c0.2,0.3,0.6,0.5,1,0.5C196.5,8.4,196.8,8.2,197,7.9z"/>
		<path class="st4" d="M205,8.7c-0.5,0.6-1.2,0.9-2.3,0.9c-1,0-1.8-0.3-2.3-0.9s-0.7-1.3-0.7-2.2c0-0.8,0.2-1.6,0.7-2.2
			c0.5-0.6,1.2-0.9,2.3-0.9c1,0,1.8,0.3,2.3,0.9c0.5,0.6,0.7,1.4,0.7,2.2C205.7,7.4,205.5,8.1,205,8.7z M203.8,7.9
			c0.2-0.3,0.4-0.8,0.4-1.4s-0.1-1-0.4-1.4s-0.6-0.5-1-0.5s-0.8,0.2-1,0.5c-0.2,0.3-0.4,0.8-0.4,1.4s0.1,1,0.4,1.4
			c0.2,0.3,0.6,0.5,1,0.5S203.5,8.2,203.8,7.9z"/>
		<path class="st4" d="M214.1,3.6c0.3,0.1,0.5,0.3,0.7,0.5c0.2,0.2,0.3,0.5,0.3,0.8c0,0.2,0.1,0.5,0.1,0.9l0,3.7h-1.6V5.7
			c0-0.2,0-0.4-0.1-0.5c-0.1-0.3-0.4-0.4-0.8-0.4c-0.4,0-0.7,0.2-0.9,0.5c-0.1,0.2-0.1,0.4-0.1,0.7v3.5h-1.5V6c0-0.3,0-0.6-0.1-0.8
			c-0.1-0.3-0.4-0.4-0.8-0.4c-0.4,0-0.7,0.1-0.9,0.4c-0.1,0.2-0.1,0.4-0.1,0.7v3.5h-1.6V3.6h1.5v0.9c0.2-0.3,0.4-0.5,0.5-0.6
			c0.3-0.2,0.7-0.3,1.2-0.3c0.4,0,0.8,0.1,1.1,0.3c0.2,0.2,0.4,0.4,0.5,0.7c0.2-0.3,0.4-0.6,0.7-0.8c0.3-0.2,0.7-0.2,1.1-0.2
			C213.6,3.5,213.9,3.5,214.1,3.6z"/>
		<path class="st4" d="M221.2,2.9h-1.6V1.5h1.6V2.9z M219.7,3.6h1.6v5.9h-1.6V3.6z"/>
		<path class="st4" d="M227.4,3.9c0.4,0.3,0.6,0.8,0.6,1.6v3.9h-1.6V5.9c0-0.3,0-0.5-0.1-0.7c-0.1-0.3-0.4-0.5-0.9-0.5
			c-0.5,0-0.9,0.2-1.1,0.7c-0.1,0.2-0.1,0.5-0.1,0.9v3.2h-1.5V3.6h1.5v0.9c0.2-0.3,0.4-0.5,0.6-0.6c0.3-0.2,0.7-0.4,1.2-0.4
			C226.6,3.5,227.1,3.6,227.4,3.9z"/>
	</g>
	<polyline class="st5" points="176.9,270.9 177.1,61 178.1,166.3 179.2,132.4 180.2,147.6 181.3,139.5 182.3,144.4 183.4,141.2 
		184.4,143.4 185.5,141.8 186.5,143 187.6,142.1 188.6,142.8 189.7,142.2 190.7,142.7 191.8,142.3 192.8,142.6 193.9,142.4 
		194.9,142.6 196,142.4 197,142.5 198.1,142.4 199.1,142.5 200.2,142.4 201.2,142.5 202.3,142.4 203.3,142.5 204.4,142.4 
		205.4,142.5 206.5,142.4 207.5,142.5 208.6,142.4 209.6,142.5 210.7,142.4 211.8,142.5 212.8,142.4 213.9,142.5 214.9,142.4 
		216,142.5 217,142.4 218.1,142.5 219.1,142.4 220.2,142.6 221.2,142.4 222.3,142.6 223.3,142.3 224.4,142.7 225.4,142.2 
		226.5,142.8 227.5,142.1 228.6,143 229.6,141.8 230.7,143.4 231.7,141.2 232.8,144.4 233.8,139.5 234.9,147.6 235.9,132.4 
		237,166.3 238,61 238.2,270.9 	"/>
</g>
</svg>
