<?xml version="1.0" encoding="utf-8"?>
<!-- Generator: Adobe Illustrator 22.1.0, SVG Export Plug-In . SVG Version: 6.00 Build 0)  -->
<svg version="1.1" id="Layer_1" xmlns="http://www.w3.org/2000/svg" xmlns:xlink="http://www.w3.org/1999/xlink" x="0px" y="0px"
	 viewBox="0 0 346.6 305" style="enable-background:new 0 0 346.6 305;" xml:space="preserve">
<style type="text/css">
	.st0{fill:none;stroke:#DFDFDF;stroke-width:0.4998;stroke-linejoin:round;stroke-miterlimit:10;}
	.st1{fill:none;stroke:#262626;stroke-width:0.4998;stroke-linecap:square;stroke-linejoin:round;stroke-miterlimit:10;}
	.st2{fill:#4A4A49;}
	.st3{fill:#262626;}
	.st4{fill:#1D1D1B;}
	.st5{fill:#FF0000;}
	.st6{fill:none;stroke:#262626;stroke-width:0.4998;stroke-linejoin:round;stroke-miterlimit:10;}
	.st7{fill:none;stroke:#000000;stroke-width:4.0002;stroke-linejoin:bevel;stroke-miterlimit:10;stroke-dasharray:14.4,14.4;}
	.st8{fill:none;stroke:#FF0000;stroke-width:1.9998;stroke-linejoin:round;stroke-miterlimit:10;}
	.st9{fill:none;stroke:#000000;stroke-width:4.0002;stroke-linejoin:round;stroke-miterlimit:10;}
	.st10{fill:none;stroke:#FF0000;stroke-width:4.0002;stroke-linejoin:round;stroke-miterlimit:10;}
</style>
<g>
	<path class="st0" d="M15.4,276.2V19.4 M85.6,276.2V19.4 M155.8,276.2V19.4 M155.8,276.2H15.4 M155.8,250.5H15.4 M155.8,224.9H15.4
		 M155.8,199.2H15.4 M155.8,173.5H15.4 M155.8,147.8H15.4 M155.8,122.1H15.4 M155.8,96.5H15.4 M155.8,70.8H15.4 M155.8,45.1H15.4
		 M155.8,19.4H15.4"/>
	<path class="st1" d="M15.4,276.2h140.4 M15.4,19.4h140.4 M15.4,276.2v-2.6 M85.6,276.2v-2.6 M155.8,276.2v-2.6 M15.4,19.4V22
		 M85.6,19.4V22 M155.8,19.4V22"/>
	<g>
		<path class="st2" d="M13.6,287.9c-0.4-0.6-0.6-1.4-0.6-2.4s0.2-1.8,0.6-2.4c0.4-0.6,0.9-0.8,1.6-0.8c0.7,0,1.2,0.3,1.6,0.8
			c0.4,0.6,0.6,1.4,0.6,2.4s-0.2,1.8-0.6,2.4s-0.9,0.8-1.6,0.8C14.5,288.8,14,288.5,13.6,287.9z M16.2,287.4
			c0.2-0.4,0.3-1.1,0.3-1.9c0-0.8-0.1-1.5-0.3-1.9c-0.2-0.4-0.6-0.6-1-0.6c-0.4,0-0.8,0.2-1,0.6c-0.2,0.4-0.3,1.1-0.3,1.9
			c0,0.8,0.1,1.5,0.3,1.9s0.6,0.6,1,0.6C15.6,288.1,16,287.9,16.2,287.4z"/>
		<path class="st2" d="M88,286.6c0,0.6-0.2,1.2-0.6,1.6c-0.4,0.4-0.9,0.6-1.6,0.6c-0.6,0-1.1-0.2-1.5-0.5s-0.6-0.8-0.6-1.3h0.8
			c0,0.4,0.2,0.6,0.4,0.8c0.2,0.2,0.6,0.3,1,0.3c0.4,0,0.7-0.1,0.9-0.4c0.2-0.3,0.4-0.6,0.4-1c0-0.4-0.1-0.8-0.4-1
			c-0.3-0.3-0.6-0.4-1-0.4c-0.2,0-0.5,0.1-0.7,0.2c-0.2,0.1-0.4,0.3-0.5,0.4l-0.7,0l0.5-3.4h3.3v0.8H85l-0.3,1.7l0,0
			c0.3-0.2,0.7-0.4,1.1-0.4c0.7,0,1.2,0.2,1.6,0.6C87.8,285.5,88,285.9,88,286.6z"/>
	</g>
	<g>
		<path class="st2" d="M153.1,284.1h-1.5v-0.6c0.4,0,0.8-0.1,1.1-0.3c0.3-0.2,0.5-0.5,0.6-0.9h0.6v6.3h-0.4h-0.4V284.1z"/>
		<path class="st2" d="M156.6,287.9c-0.4-0.6-0.6-1.4-0.6-2.4s0.2-1.8,0.6-2.4c0.4-0.6,0.9-0.8,1.6-0.8c0.7,0,1.2,0.3,1.6,0.8
			c0.4,0.6,0.6,1.4,0.6,2.4s-0.2,1.8-0.6,2.4s-0.9,0.8-1.6,0.8C157.5,288.8,157,288.5,156.6,287.9z M159.2,287.4
			c0.2-0.4,0.3-1.1,0.3-1.9c0-0.8-0.1-1.5-0.3-1.9c-0.2-0.4-0.6-0.6-1-0.6c-0.4,0-0.8,0.2-1,0.6c-0.2,0.4-0.3,1.1-0.3,1.9
			c0,0.8,0.1,1.5,0.3,1.9s0.6,0.6,1,0.6C158.7,288.1,159,287.9,159.2,287.4z"/>
	</g>
	<path class="st3" d="M66.5,299.8c0,0-0.1,0-0.1-0.1c0,0-0.1-0.1-0.1-0.1c0,0,0-0.1,0.1-0.1c0,0,0.1-0.1,0.1-0.1h7.3
		c-0.2-0.2-0.5-0.4-0.6-0.6c-0.2-0.2-0.3-0.5-0.5-0.7c-0.1-0.3-0.2-0.5-0.3-0.8c0-0.1,0-0.1,0.1-0.1h0.2c0,0,0,0,0.1,0s0,0,0,0.1
		c0.1,0.3,0.1,0.5,0.2,0.8c0.1,0.2,0.3,0.5,0.4,0.7c0.2,0.2,0.4,0.4,0.6,0.5c0.2,0.1,0.5,0.3,0.7,0.4c0,0,0.1,0.1,0.1,0.1
		c0,0.1,0,0.1-0.1,0.1c-0.3,0.1-0.6,0.3-0.9,0.5c-0.3,0.2-0.5,0.5-0.7,0.8c-0.2,0.3-0.3,0.6-0.4,1c0,0,0,0,0,0.1s0,0-0.1,0h-0.2
		c-0.1,0-0.1,0-0.1-0.1c0.1-0.4,0.2-0.9,0.5-1.2c0.2-0.4,0.5-0.7,0.9-1H66.5L66.5,299.8z"/>
	<g>
		<path class="st2" d="M81.3,302c-0.3,0-0.5,0.1-0.6,0.1c-0.4,0-0.6-0.1-0.8-0.3s-0.2-0.5-0.2-0.9v-3.4h-0.7v-0.7h0.7v-1.5h0.9v1.5
			h0.8v0.7h-0.8v3.4c0,0.1,0,0.2,0.1,0.3c0.1,0.1,0.2,0.1,0.4,0.1h0.3V302z"/>
		<path class="st2" d="M84.9,294.9h1.9v0.7h-1.1v7.7h1.1v0.7h-1.9V294.9z"/>
		<path class="st2" d="M90.6,298.3c0-0.3-0.1-0.5-0.4-0.7s-0.5-0.2-0.8-0.2c-0.4,0-0.6,0.1-0.8,0.2c-0.2,0.1-0.3,0.3-0.3,0.6
			c0,0.2,0.1,0.3,0.2,0.4c0.1,0.1,0.4,0.2,0.8,0.3l0.9,0.2c0.5,0.1,0.9,0.3,1.1,0.5c0.2,0.2,0.3,0.5,0.3,0.9c0,0.5-0.2,0.9-0.6,1.2
			s-0.9,0.5-1.5,0.5c-0.7,0-1.3-0.1-1.6-0.4c-0.4-0.3-0.6-0.7-0.6-1.4h0.8c0,0.4,0.2,0.6,0.4,0.8c0.2,0.2,0.6,0.2,1,0.2
			c0.4,0,0.7-0.1,0.9-0.2c0.2-0.1,0.3-0.4,0.3-0.6c0-0.2-0.1-0.3-0.2-0.4c-0.1-0.1-0.4-0.2-0.8-0.3l-0.9-0.2c-0.5-0.1-0.8-0.3-1-0.5
			c-0.2-0.2-0.3-0.5-0.3-0.9c0-0.5,0.2-0.9,0.5-1.2c0.3-0.3,0.8-0.4,1.4-0.4c0.6,0,1.1,0.1,1.4,0.4c0.4,0.3,0.5,0.7,0.6,1.2H90.6z"
			/>
		<path class="st2" d="M94.7,302.2c-0.7,0-1.3-0.2-1.7-0.7s-0.6-1.1-0.6-1.9c0-0.9,0.2-1.6,0.7-2.1c0.4-0.5,1-0.8,1.8-0.8
			c0.7,0,1.2,0.3,1.6,0.8c0.4,0.5,0.6,1.2,0.6,2l0,0.3h-3.8c0,0.5,0.2,0.9,0.4,1.2c0.2,0.3,0.6,0.5,1.2,0.5c0.3,0,0.6-0.1,0.9-0.3
			c0.2-0.2,0.4-0.4,0.5-0.7H97c-0.1,0.6-0.4,1-0.8,1.3C95.8,302,95.3,302.2,94.7,302.2z M96.2,299c0-0.5-0.1-0.9-0.4-1.1
			c-0.2-0.3-0.6-0.4-1-0.4c-0.5,0-0.8,0.2-1.1,0.5c-0.2,0.3-0.3,0.6-0.4,1.1H96.2z"/>
		<path class="st2" d="M102.2,300.2c-0.1,0.7-0.3,1.1-0.7,1.5c-0.4,0.3-0.9,0.5-1.5,0.5c-0.7,0-1.2-0.2-1.6-0.7s-0.6-1.2-0.6-2
			s0.2-1.5,0.6-2s1-0.7,1.7-0.7c0.6,0,1.1,0.2,1.5,0.5c0.4,0.3,0.6,0.8,0.6,1.4h-0.8c0-0.4-0.2-0.7-0.4-0.9
			c-0.2-0.2-0.5-0.3-0.9-0.3c-0.4,0-0.8,0.2-1,0.5c-0.3,0.4-0.4,0.8-0.4,1.5c0,0.7,0.1,1.2,0.3,1.5c0.2,0.3,0.6,0.5,1,0.5
			c0.3,0,0.6-0.1,0.8-0.3s0.4-0.5,0.5-0.9H102.2z"/>
		<path class="st2" d="M104.5,304h-1.9v-0.7h1.1v-7.7h-1.1v-0.7h1.9V304z"/>
	</g>
	<path class="st1" d="M15.4,276.2V19.4 M155.8,276.2V19.4 M15.4,276.2H18 M15.4,250.5H18 M15.4,224.9H18 M15.4,199.2H18 M15.4,173.5
		H18 M15.4,147.8H18 M15.4,122.1H18 M15.4,96.5H18 M15.4,70.8H18 M15.4,45.1H18 M15.4,19.4H18 M155.8,276.2h-2.6 M155.8,250.5h-2.6
		 M155.8,224.9h-2.6 M155.8,199.2h-2.6 M155.8,173.5h-2.6 M155.8,147.8h-2.6 M155.8,122.1h-2.6 M155.8,96.5h-2.6 M155.8,70.8h-2.6
		 M155.8,45.1h-2.6 M155.8,19.4h-2.6"/>
	<g>
		<path class="st2" d="M8.1,279.1c-0.4-0.6-0.6-1.4-0.6-2.4s0.2-1.8,0.6-2.4c0.4-0.6,0.9-0.8,1.6-0.8c0.7,0,1.2,0.3,1.6,0.8
			c0.4,0.6,0.6,1.4,0.6,2.4s-0.2,1.8-0.6,2.4s-0.9,0.8-1.6,0.8C9,280,8.5,279.7,8.1,279.1z M10.7,278.6c0.2-0.4,0.3-1.1,0.3-1.9
			c0-0.8-0.1-1.5-0.3-1.9c-0.2-0.4-0.6-0.6-1-0.6c-0.4,0-0.8,0.2-1,0.6c-0.2,0.4-0.3,1.1-0.3,1.9c0,0.8,0.1,1.5,0.3,1.9
			s0.6,0.6,1,0.6C10.1,279.3,10.5,279.1,10.7,278.6z"/>
	</g>
	<g>
		<path class="st2" d="M0.9,253.5c-0.4-0.6-0.6-1.4-0.6-2.4s0.2-1.8,0.6-2.4c0.4-0.6,0.9-0.8,1.6-0.8c0.7,0,1.2,0.3,1.6,0.8
			c0.4,0.6,0.6,1.4,0.6,2.4s-0.2,1.8-0.6,2.4s-0.9,0.8-1.6,0.8C1.8,254.3,1.3,254,0.9,253.5z M3.5,253c0.2-0.4,0.3-1.1,0.3-1.9
			c0-0.8-0.1-1.5-0.3-1.9c-0.2-0.4-0.6-0.6-1-0.6c-0.4,0-0.8,0.2-1,0.6c-0.2,0.4-0.3,1.1-0.3,1.9c0,0.8,0.1,1.5,0.3,1.9
			s0.6,0.6,1,0.6C2.9,253.6,3.3,253.4,3.5,253z"/>
		<path class="st2" d="M5.8,253.2h0.9v1H5.8V253.2z"/>
	</g>
	<g>
		<path class="st2" d="M11.3,249.7c0,0.5-0.1,0.8-0.4,1.1c-0.2,0.3-0.7,0.6-1.3,1c-0.7,0.4-1.2,0.8-1.5,1.1
			c-0.1,0.1-0.2,0.3-0.3,0.5h3.4v0.8H7v0c0-0.7,0.2-1.2,0.5-1.6c0.3-0.4,1-0.9,1.9-1.4c0.4-0.2,0.7-0.5,0.9-0.7
			c0.2-0.2,0.2-0.5,0.2-0.8c0-0.3-0.1-0.6-0.4-0.8c-0.2-0.2-0.5-0.3-0.9-0.3c-0.4,0-0.7,0.1-0.9,0.4c-0.2,0.3-0.3,0.7-0.4,1.1H7.2
			c0-0.7,0.2-1.2,0.6-1.6c0.4-0.4,0.9-0.6,1.6-0.6c0.6,0,1.1,0.2,1.4,0.5C11.1,248.7,11.3,249.1,11.3,249.7z"/>
	</g>
	<g>
		<path class="st2" d="M0.9,227.8c-0.4-0.6-0.6-1.4-0.6-2.4s0.2-1.8,0.6-2.4c0.4-0.6,0.9-0.8,1.6-0.8c0.7,0,1.2,0.3,1.6,0.8
			c0.4,0.6,0.6,1.4,0.6,2.4s-0.2,1.8-0.6,2.4s-0.9,0.8-1.6,0.8C1.8,228.6,1.3,228.3,0.9,227.8z M3.5,227.3c0.2-0.4,0.3-1.1,0.3-1.9
			c0-0.8-0.1-1.5-0.3-1.9c-0.2-0.4-0.6-0.6-1-0.6c-0.4,0-0.8,0.2-1,0.6c-0.2,0.4-0.3,1.1-0.3,1.9c0,0.8,0.1,1.5,0.3,1.9
			s0.6,0.6,1,0.6C2.9,227.9,3.3,227.7,3.5,227.3z"/>
		<path class="st2" d="M5.8,227.5h0.9v1H5.8V227.5z"/>
	</g>
	<g>
		<path class="st2" d="M7,226.9v-0.4v-0.4l2.9-4.1h0.3h0.3v4.1h0.9v0.7h-0.9v1.5H9.8v-1.5H7z M9.8,226.3v-2.9l-2,2.8l0,0.1H9.8z"/>
	</g>
	<g>
		<path class="st2" d="M0.9,202.1c-0.4-0.6-0.6-1.4-0.6-2.4s0.2-1.8,0.6-2.4c0.4-0.6,0.9-0.8,1.6-0.8c0.7,0,1.2,0.3,1.6,0.8
			c0.4,0.6,0.6,1.4,0.6,2.4s-0.2,1.8-0.6,2.4s-0.9,0.8-1.6,0.8C1.8,202.9,1.3,202.7,0.9,202.1z M3.5,201.6c0.2-0.4,0.3-1.1,0.3-1.9
			c0-0.8-0.1-1.5-0.3-1.9c-0.2-0.4-0.6-0.6-1-0.6c-0.4,0-0.8,0.2-1,0.6c-0.2,0.4-0.3,1.1-0.3,1.9c0,0.8,0.1,1.5,0.3,1.9
			s0.6,0.6,1,0.6C2.9,202.2,3.3,202,3.5,201.6z"/>
		<path class="st2" d="M5.8,201.8h0.9v1H5.8V201.8z"/>
	</g>
	<g>
		<path class="st2" d="M9.4,196.4c0.6,0,1,0.2,1.3,0.5c0.3,0.3,0.5,0.7,0.5,1.2h-0.8c0-0.3-0.1-0.6-0.3-0.7s-0.4-0.3-0.8-0.3
			c-0.5,0-0.9,0.2-1.1,0.7c-0.2,0.4-0.4,0.9-0.4,1.6c0.4-0.5,0.9-0.8,1.5-0.8c0.6,0,1.1,0.2,1.4,0.6c0.4,0.4,0.5,0.9,0.5,1.5
			s-0.2,1.1-0.6,1.5c-0.4,0.4-0.9,0.6-1.6,0.6c-0.7,0-1.2-0.3-1.6-0.8c-0.4-0.5-0.6-1.3-0.6-2.3c0-1.1,0.2-1.9,0.6-2.5
			C8.1,196.7,8.7,196.4,9.4,196.4z M8,200.8c0,0.4,0.1,0.7,0.4,1c0.2,0.3,0.5,0.4,0.9,0.4s0.7-0.1,0.9-0.4c0.2-0.3,0.4-0.6,0.4-1
			s-0.1-0.7-0.4-1c-0.2-0.3-0.5-0.4-0.9-0.4s-0.7,0.1-0.9,0.4C8.1,200.1,8,200.4,8,200.8z"/>
	</g>
	<g>
		<path class="st2" d="M0.9,176.4c-0.4-0.6-0.6-1.4-0.6-2.4s0.2-1.8,0.6-2.4c0.4-0.6,0.9-0.8,1.6-0.8c0.7,0,1.2,0.3,1.6,0.8
			c0.4,0.6,0.6,1.4,0.6,2.4s-0.2,1.8-0.6,2.4s-0.9,0.8-1.6,0.8C1.8,177.3,1.3,177,0.9,176.4z M3.5,175.9c0.2-0.4,0.3-1.1,0.3-1.9
			c0-0.8-0.1-1.5-0.3-1.9c-0.2-0.4-0.6-0.6-1-0.6c-0.4,0-0.8,0.2-1,0.6c-0.2,0.4-0.3,1.1-0.3,1.9c0,0.8,0.1,1.5,0.3,1.9
			s0.6,0.6,1,0.6C2.9,176.6,3.3,176.3,3.5,175.9z"/>
		<path class="st2" d="M5.8,176.1h0.9v1H5.8V176.1z"/>
	</g>
	<g>
		<path class="st2" d="M10.3,173.8c0.2,0.1,0.3,0.2,0.5,0.3c0.4,0.3,0.6,0.7,0.6,1.3c0,0.6-0.2,1.1-0.6,1.4s-0.9,0.5-1.6,0.5
			s-1.2-0.2-1.6-0.5s-0.6-0.8-0.6-1.4c0-0.5,0.2-0.9,0.6-1.3c0.1-0.1,0.3-0.2,0.5-0.3c-0.1-0.1-0.2-0.1-0.3-0.2
			c-0.4-0.3-0.5-0.6-0.5-1.1c0-0.5,0.2-0.9,0.5-1.2c0.4-0.3,0.8-0.5,1.4-0.5s1,0.2,1.4,0.5c0.4,0.3,0.5,0.7,0.5,1.2
			c0,0.5-0.2,0.8-0.5,1.1C10.6,173.6,10.5,173.7,10.3,173.8z M9.2,174.1c-0.4,0-0.7,0.1-0.9,0.3c-0.2,0.2-0.4,0.5-0.4,0.9
			c0,0.4,0.1,0.7,0.4,0.9s0.6,0.3,0.9,0.3s0.7-0.1,0.9-0.3s0.4-0.5,0.4-0.9c0-0.4-0.1-0.7-0.4-0.9C9.9,174.2,9.6,174.1,9.2,174.1z
			 M9.2,173.4c0.3,0,0.6-0.1,0.8-0.3c0.2-0.2,0.3-0.4,0.3-0.7s-0.1-0.5-0.3-0.7s-0.5-0.3-0.8-0.3s-0.6,0.1-0.8,0.3s-0.3,0.4-0.3,0.7
			s0.1,0.5,0.3,0.7C8.7,173.3,8.9,173.4,9.2,173.4z"/>
	</g>
	<g>
		<path class="st2" d="M9.6,146.9H8.1v-0.6c0.4,0,0.8-0.1,1.1-0.3c0.3-0.2,0.5-0.5,0.6-0.9h0.6v6.3H10H9.6V146.9z"/>
	</g>
	<g>
		<path class="st2" d="M2.4,121.2H0.9v-0.6c0.4,0,0.8-0.1,1.1-0.3c0.3-0.2,0.5-0.5,0.6-0.9h0.6v6.3H2.8H2.4V121.2z"/>
		<path class="st2" d="M5.8,124.8h0.9v1H5.8V124.8z"/>
	</g>
	<g>
		<path class="st2" d="M11.3,121.3c0,0.5-0.1,0.8-0.4,1.1c-0.2,0.3-0.7,0.6-1.3,1c-0.7,0.4-1.2,0.8-1.5,1.1
			c-0.1,0.1-0.2,0.3-0.3,0.5h3.4v0.8H7v0c0-0.7,0.2-1.2,0.5-1.6c0.3-0.4,1-0.9,1.9-1.4c0.4-0.2,0.7-0.5,0.9-0.7s0.2-0.5,0.2-0.8
			c0-0.3-0.1-0.6-0.4-0.8s-0.5-0.3-0.9-0.3c-0.4,0-0.7,0.1-0.9,0.4c-0.2,0.3-0.3,0.6-0.4,1.1H7.2c0-0.7,0.2-1.2,0.6-1.6
			s0.9-0.6,1.6-0.6c0.6,0,1.1,0.2,1.4,0.5C11.1,120.3,11.3,120.7,11.3,121.3z"/>
	</g>
	<g>
		<path class="st2" d="M2.4,95.6H0.9v-0.6c0.4,0,0.8-0.1,1.1-0.3c0.3-0.2,0.5-0.5,0.6-0.9h0.6v6.3H2.8H2.4V95.6z"/>
		<path class="st2" d="M5.8,99.1h0.9v1H5.8V99.1z"/>
	</g>
	<g>
		<path class="st2" d="M7,98.5v-0.4v-0.4l2.9-4.1h0.3h0.3v4.1h0.9v0.7h-0.9v1.5H9.8v-1.5H7z M9.8,97.9V95l-2,2.8l0,0.1H9.8z"/>
	</g>
	<g>
		<path class="st2" d="M2.4,69.9H0.9v-0.6c0.4,0,0.8-0.1,1.1-0.3c0.3-0.2,0.5-0.5,0.6-0.9h0.6v6.3H2.8H2.4V69.9z"/>
		<path class="st2" d="M5.8,73.4h0.9v1H5.8V73.4z"/>
	</g>
	<g>
		<path class="st2" d="M9.4,68c0.6,0,1,0.2,1.3,0.5c0.3,0.3,0.5,0.7,0.5,1.2h-0.8c0-0.3-0.1-0.6-0.3-0.7s-0.4-0.3-0.8-0.3
			c-0.5,0-0.9,0.2-1.1,0.7c-0.2,0.4-0.4,0.9-0.4,1.6c0.4-0.5,0.9-0.8,1.5-0.8c0.6,0,1.1,0.2,1.4,0.6c0.4,0.4,0.5,0.9,0.5,1.5
			s-0.2,1.1-0.6,1.5c-0.4,0.4-0.9,0.6-1.6,0.6c-0.7,0-1.2-0.3-1.6-0.8c-0.4-0.5-0.6-1.3-0.6-2.3c0-1.1,0.2-1.9,0.6-2.5
			C8.1,68.3,8.7,68,9.4,68z M8,72.4c0,0.4,0.1,0.7,0.4,1c0.2,0.3,0.5,0.4,0.9,0.4s0.7-0.1,0.9-0.4s0.4-0.6,0.4-1s-0.1-0.7-0.4-1
			c-0.2-0.3-0.5-0.4-0.9-0.4s-0.7,0.1-0.9,0.4C8.1,71.7,8,72,8,72.4z"/>
	</g>
	<g>
		<path class="st2" d="M2.4,44.2H0.9v-0.6c0.4,0,0.8-0.1,1.1-0.3c0.3-0.2,0.5-0.5,0.6-0.9h0.6v6.3H2.8H2.4V44.2z"/>
		<path class="st2" d="M5.8,47.7h0.9v1H5.8V47.7z"/>
	</g>
	<g>
		<path class="st2" d="M10.3,45.3c0.2,0.1,0.3,0.2,0.5,0.3c0.4,0.3,0.6,0.7,0.6,1.3c0,0.6-0.2,1.1-0.6,1.4s-0.9,0.5-1.6,0.5
			s-1.2-0.2-1.6-0.5s-0.6-0.8-0.6-1.4c0-0.5,0.2-0.9,0.6-1.3c0.1-0.1,0.3-0.2,0.5-0.3c-0.1-0.1-0.2-0.1-0.3-0.2
			c-0.4-0.3-0.5-0.6-0.5-1.1c0-0.5,0.2-0.9,0.5-1.2c0.4-0.3,0.8-0.5,1.4-0.5s1,0.2,1.4,0.5c0.4,0.3,0.5,0.7,0.5,1.2
			c0,0.5-0.2,0.8-0.5,1.1C10.6,45.2,10.5,45.3,10.3,45.3z M9.2,45.7c-0.4,0-0.7,0.1-0.9,0.3s-0.4,0.5-0.4,0.9c0,0.4,0.1,0.7,0.4,0.9
			s0.6,0.3,0.9,0.3s0.7-0.1,0.9-0.3s0.4-0.5,0.4-0.9c0-0.4-0.1-0.7-0.4-0.9C9.9,45.8,9.6,45.7,9.2,45.7z M9.2,45
			c0.3,0,0.6-0.1,0.8-0.3c0.2-0.2,0.3-0.4,0.3-0.7s-0.1-0.5-0.3-0.7s-0.5-0.3-0.8-0.3s-0.6,0.1-0.8,0.3S8.1,43.8,8.1,44
			s0.1,0.5,0.3,0.7C8.7,44.9,8.9,45,9.2,45z"/>
	</g>
	<g>
		<path class="st2" d="M11.8,18.5c0,0.5-0.1,0.8-0.4,1.1c-0.2,0.3-0.7,0.6-1.3,1c-0.7,0.4-1.2,0.8-1.5,1.1c-0.1,0.1-0.2,0.3-0.3,0.5
			h3.4V23H7.4v0c0-0.7,0.2-1.2,0.5-1.6c0.3-0.4,1-0.9,1.9-1.4c0.4-0.2,0.7-0.5,0.9-0.7s0.2-0.5,0.2-0.8c0-0.3-0.1-0.6-0.4-0.8
			s-0.5-0.3-0.9-0.3c-0.4,0-0.7,0.1-0.9,0.4c-0.2,0.3-0.3,0.6-0.4,1.1H7.6c0-0.7,0.2-1.2,0.6-1.6s0.9-0.6,1.6-0.6
			c0.6,0,1.1,0.2,1.4,0.5C11.6,17.6,11.8,18,11.8,18.5z"/>
	</g>
	<g>
		<path class="st4" d="M27,6.4c0.3,0.1,0.5,0.3,0.7,0.5c0.1,0.2,0.2,0.4,0.3,0.6c0,0.2,0,0.5,0,1v3.1h-1.4V8.4c0-0.3,0-0.5-0.1-0.7
			c-0.1-0.2-0.4-0.4-0.7-0.4c-0.4,0-0.6,0.1-0.8,0.4c-0.2,0.2-0.3,0.6-0.3,1v2.9h-1.4V4.5h1.4V7c0.2-0.3,0.4-0.5,0.7-0.6
			c0.3-0.1,0.5-0.2,0.8-0.2C26.5,6.2,26.8,6.3,27,6.4z"/>
	</g>
	<g>
		<path class="st4" d="M31.4,13.8c0.2,0,0.4-0.1,0.4-0.1c0.2-0.1,0.2-0.2,0.2-0.3c0-0.2-0.1-0.3-0.2-0.4C31.8,13,31.6,13,31.3,13
			c-0.3,0-0.5,0.1-0.6,0.2c-0.1,0.1-0.1,0.2-0.2,0.4h-1.1c0-0.4,0.1-0.7,0.3-0.9c0.3-0.4,0.8-0.6,1.5-0.6c0.5,0,0.9,0.1,1.2,0.3
			c0.4,0.2,0.5,0.5,0.5,1v1.9c0,0.1,0,0.3,0,0.5c0,0.1,0,0.2,0.1,0.3s0.1,0.1,0.2,0.1v0.2h-1.2c0-0.1-0.1-0.2-0.1-0.2
			c0-0.1,0-0.2,0-0.3c-0.2,0.2-0.3,0.3-0.5,0.4c-0.2,0.1-0.5,0.2-0.8,0.2c-0.4,0-0.7-0.1-1-0.3c-0.3-0.2-0.4-0.5-0.4-0.9
			c0-0.5,0.2-0.9,0.6-1.1c0.2-0.1,0.5-0.2,1-0.3L31.4,13.8z M32.1,14.4c-0.1,0-0.1,0.1-0.2,0.1c-0.1,0-0.2,0.1-0.3,0.1l-0.3,0
			c-0.2,0-0.4,0.1-0.5,0.2c-0.2,0.1-0.3,0.3-0.3,0.5c0,0.2,0.1,0.3,0.2,0.4c0.1,0.1,0.2,0.1,0.4,0.1c0.2,0,0.5-0.1,0.7-0.2
			c0.2-0.1,0.3-0.4,0.3-0.8V14.4z"/>
	</g>
	<g>
		<path class="st4" d="M35,6.2c0.2-0.5,0.5-1,0.7-1.4l0.3-0.5l0.8,0c-0.4,0.8-0.8,1.5-0.9,1.9C35.7,7.1,35.5,8,35.5,9
			c0,0.6,0.1,1.2,0.2,1.7c0.2,0.8,0.4,1.6,0.8,2.3l0.3,0.5H36c-0.5-0.7-0.9-1.4-1.2-2.1c-0.3-0.8-0.5-1.6-0.5-2.4
			C34.3,8.1,34.5,7.2,35,6.2z"/>
		<path class="st4" d="M37.4,7.4v-1h0.7V4.9h1.4v1.5h0.9v1h-0.9v2.8c0,0.2,0,0.4,0.1,0.4c0.1,0.1,0.2,0.1,0.5,0.1c0,0,0.1,0,0.1,0
			c0,0,0.1,0,0.1,0v1l-0.7,0c-0.7,0-1.1-0.1-1.3-0.3c-0.2-0.2-0.2-0.4-0.2-0.7V7.4H37.4z"/>
		<path class="st4" d="M42.9,6.3c0.4,0.9,0.6,1.7,0.6,2.6c0,1-0.2,2-0.7,3c-0.3,0.6-0.5,1-0.7,1.3l-0.3,0.5h-1
			c0.4-0.8,0.7-1.4,0.9-1.9C41.9,10.9,42,10,42,9c0-0.6-0.1-1.2-0.2-1.8c-0.2-0.8-0.4-1.6-0.8-2.3l-0.3-0.5h1
			C42.2,5.1,42.6,5.7,42.9,6.3z"/>
		<path class="st4" d="M49.4,8.4c0.3,0,0.4-0.1,0.6-0.1c0.2-0.1,0.3-0.2,0.3-0.4c0-0.2-0.1-0.4-0.2-0.4s-0.4-0.1-0.7-0.1
			c-0.3,0-0.6,0.1-0.7,0.2c-0.1,0.1-0.2,0.3-0.2,0.5h-1.3c0-0.5,0.2-0.8,0.4-1.1c0.4-0.5,1-0.7,1.9-0.7c0.6,0,1.1,0.1,1.5,0.3
			c0.4,0.2,0.7,0.7,0.7,1.3v2.4c0,0.2,0,0.4,0,0.6c0,0.2,0,0.3,0.1,0.4c0,0.1,0.1,0.1,0.2,0.2v0.2h-1.5c0-0.1-0.1-0.2-0.1-0.3
			c0-0.1,0-0.2,0-0.3c-0.2,0.2-0.4,0.4-0.7,0.5c-0.3,0.2-0.6,0.3-1,0.3c-0.5,0-0.9-0.1-1.2-0.4s-0.5-0.7-0.5-1.2
			c0-0.6,0.3-1.1,0.8-1.4c0.3-0.2,0.7-0.3,1.2-0.3L49.4,8.4z M50.2,9.1c-0.1,0.1-0.2,0.1-0.3,0.1c-0.1,0-0.2,0.1-0.4,0.1l-0.3,0.1
			c-0.3,0.1-0.5,0.1-0.6,0.2c-0.2,0.1-0.3,0.3-0.3,0.6c0,0.2,0.1,0.4,0.2,0.5c0.1,0.1,0.3,0.2,0.5,0.2c0.3,0,0.6-0.1,0.8-0.3
			c0.3-0.2,0.4-0.5,0.4-1V9.1z"/>
		<path class="st4" d="M57,6.6c0.3,0.3,0.5,0.8,0.5,1.4v3.5h-1.4V8.4c0-0.3,0-0.5-0.1-0.6c-0.1-0.3-0.4-0.4-0.8-0.4
			c-0.5,0-0.8,0.2-1,0.6c-0.1,0.2-0.1,0.5-0.1,0.8v2.9h-1.4V6.4h1.3v0.8c0.2-0.3,0.3-0.5,0.5-0.6c0.3-0.2,0.6-0.3,1.1-0.3
			C56.2,6.2,56.7,6.4,57,6.6z"/>
		<path class="st4" d="M61.6,6.4c0.2,0.1,0.4,0.3,0.6,0.6V4.5h1.4v7.1h-1.3v-0.7c-0.2,0.3-0.4,0.5-0.7,0.7s-0.6,0.2-0.9,0.2
			c-0.6,0-1.1-0.2-1.6-0.7c-0.4-0.5-0.6-1.1-0.6-1.9c0-0.9,0.2-1.6,0.6-2.1s1-0.8,1.7-0.8C61.1,6.2,61.4,6.3,61.6,6.4z M62,10.2
			c0.2-0.3,0.3-0.7,0.3-1.1c0-0.6-0.2-1.1-0.5-1.4c-0.2-0.2-0.4-0.3-0.7-0.3c-0.4,0-0.7,0.2-0.9,0.5C60,8.2,59.9,8.6,59.9,9
			c0,0.5,0.1,0.9,0.3,1.2c0.2,0.3,0.5,0.4,0.9,0.4C61.5,10.6,61.8,10.5,62,10.2z"/>
	</g>
	<g>
		<path class="st5" d="M71.4,6.4c0.3,0.1,0.5,0.3,0.7,0.5c0.1,0.2,0.2,0.4,0.3,0.6c0,0.2,0,0.5,0,1v3.1H71V8.4c0-0.3,0-0.5-0.1-0.7
			c-0.1-0.2-0.4-0.4-0.7-0.4c-0.4,0-0.6,0.1-0.8,0.4C69.1,8,69,8.3,69,8.8v2.9h-1.4V4.5H69V7c0.2-0.3,0.4-0.5,0.7-0.6
			c0.3-0.1,0.5-0.2,0.8-0.2C70.9,6.2,71.2,6.3,71.4,6.4z"/>
	</g>
	<g>
		<path class="st5" d="M76.4,12.3c0.2,0.1,0.4,0.3,0.5,0.5v-2H78v5.7h-1.1v-0.6c-0.2,0.3-0.3,0.4-0.5,0.5s-0.5,0.2-0.8,0.2
			c-0.5,0-0.9-0.2-1.2-0.6c-0.3-0.4-0.5-0.9-0.5-1.5c0-0.7,0.2-1.3,0.5-1.7c0.3-0.4,0.8-0.6,1.3-0.6C75.9,12.1,76.2,12.2,76.4,12.3z
			 M76.6,15.3c0.2-0.2,0.2-0.5,0.2-0.9c0-0.5-0.1-0.9-0.4-1.1c-0.2-0.1-0.3-0.2-0.6-0.2c-0.3,0-0.6,0.1-0.7,0.4S75,14,75,14.3
			c0,0.4,0.1,0.7,0.2,0.9c0.2,0.2,0.4,0.3,0.7,0.3S76.5,15.5,76.6,15.3z"/>
	</g>
	<g>
		<path class="st5" d="M79.6,4.4H82v1h-1.1v7.1H82v1h-2.4V4.4z"/>
		<path class="st5" d="M87.2,6.6c0.3,0.3,0.5,0.8,0.5,1.4v3.5h-1.4V8.4c0-0.3,0-0.5-0.1-0.6c-0.1-0.3-0.4-0.4-0.8-0.4
			c-0.5,0-0.8,0.2-1,0.6c-0.1,0.2-0.1,0.5-0.1,0.8v2.9h-1.4V6.4h1.3v0.8c0.2-0.3,0.3-0.5,0.5-0.6c0.3-0.2,0.6-0.3,1.1-0.3
			C86.4,6.2,86.8,6.4,87.2,6.6z"/>
	</g>
	<g>
		<path class="st5" d="M87.5,12.5h1.1V5.4h-1.1v-1h2.4v9.1h-2.4V12.5z"/>
	</g>
	<g>
		<path class="st4" d="M98.1,6.3h1.4l0.8,3.8l0.8-3.8h1.4l-1.5,5.3h-1.4l-0.8-3.8l-0.8,3.8h-1.4L95,6.3h1.5l0.8,3.8L98.1,6.3z"/>
		<path class="st4" d="M104.7,5.7h-1.4V4.4h1.4V5.7z M103.3,6.3h1.4v5.3h-1.4V6.3z"/>
		<path class="st4" d="M105.5,7.4v-1h0.7V4.9h1.4v1.5h0.9v1h-0.9v2.8c0,0.2,0,0.4,0.1,0.4c0.1,0.1,0.2,0.1,0.5,0.1c0,0,0.1,0,0.1,0
			c0,0,0.1,0,0.1,0v1l-0.7,0c-0.7,0-1.1-0.1-1.3-0.3c-0.2-0.2-0.2-0.4-0.2-0.7V7.4H105.5z"/>
		<path class="st4" d="M113.1,6.4c0.3,0.1,0.5,0.3,0.7,0.5c0.1,0.2,0.2,0.4,0.3,0.6c0,0.2,0,0.5,0,1v3.1h-1.4V8.4
			c0-0.3,0-0.5-0.1-0.7c-0.1-0.2-0.4-0.4-0.7-0.4c-0.4,0-0.6,0.1-0.8,0.4c-0.2,0.2-0.3,0.6-0.3,1v2.9h-1.4V4.5h1.4V7
			c0.2-0.3,0.4-0.5,0.7-0.6c0.3-0.1,0.5-0.2,0.8-0.2C112.6,6.2,112.9,6.3,113.1,6.4z"/>
		<path class="st4" d="M123.4,4.5v1.3h-2.1v5.9h-1.5V5.8h-2.1V4.5H123.4z"/>
		<path class="st4" d="M129.1,7.2v1.3h-5.2V7.2H129.1z M129.1,9.5v1.3h-5.2V9.5H129.1z"/>
		<path class="st4" d="M133.9,5.5c0.4,0.6,0.5,1.5,0.5,2.7c0,1.2-0.2,2-0.5,2.7c-0.4,0.6-1,0.9-1.9,0.9c-0.9,0-1.5-0.3-1.9-0.9
			c-0.4-0.6-0.5-1.5-0.5-2.7c0-1.2,0.2-2,0.5-2.7s1-0.9,1.9-0.9C132.9,4.6,133.6,4.9,133.9,5.5z M131.2,10c0.1,0.4,0.4,0.6,0.8,0.6
			c0.4,0,0.7-0.2,0.8-0.6c0.1-0.4,0.2-1,0.2-1.8c0-0.8-0.1-1.5-0.2-1.9c-0.1-0.4-0.4-0.6-0.8-0.6c-0.4,0-0.7,0.2-0.8,0.6
			c-0.1,0.4-0.2,1-0.2,1.9C131,9,131.1,9.6,131.2,10z"/>
		<path class="st4" d="M135.5,10.2h1.5v1.4h-1.5V10.2z"/>
		<path class="st4" d="M138.2,10.2c0.2-0.5,0.7-1,1.4-1.5c0.6-0.5,1-0.8,1.2-1c0.3-0.3,0.4-0.6,0.4-1c0-0.3-0.1-0.5-0.2-0.7
			c-0.2-0.2-0.4-0.3-0.7-0.3c-0.4,0-0.7,0.2-0.9,0.5c-0.1,0.2-0.1,0.5-0.2,0.9H138c0-0.6,0.1-1.1,0.3-1.4c0.4-0.7,1-1,2-1
			c0.7,0,1.3,0.2,1.8,0.6c0.4,0.4,0.7,1,0.7,1.6c0,0.5-0.2,1-0.5,1.4c-0.2,0.3-0.5,0.6-1,0.9l-0.6,0.4c-0.3,0.2-0.6,0.4-0.7,0.5
			s-0.2,0.2-0.3,0.4h3.1v1.2h-4.8C137.9,11.1,138,10.7,138.2,10.2z"/>
		<path class="st4" d="M144.7,9.7c0.1,0.3,0.2,0.5,0.3,0.7c0.2,0.2,0.4,0.2,0.7,0.2c0.3,0,0.6-0.1,0.8-0.4s0.3-0.5,0.3-0.9
			c0-0.4-0.1-0.7-0.3-0.9c-0.2-0.2-0.4-0.4-0.8-0.4c-0.2,0-0.3,0-0.4,0.1c-0.2,0.1-0.4,0.2-0.5,0.4l-1.2-0.1l0.5-3.9h3.9v1.2h-2.9
			l-0.3,1.5c0.2-0.1,0.4-0.2,0.5-0.3c0.2-0.1,0.4-0.1,0.7-0.1c0.6,0,1.1,0.2,1.5,0.6c0.4,0.4,0.6,1,0.6,1.7c0,0.6-0.2,1.2-0.6,1.7
			c-0.4,0.5-1,0.8-1.9,0.8c-0.7,0-1.2-0.2-1.6-0.5c-0.4-0.4-0.7-0.9-0.7-1.5H144.7z"/>
	</g>
	<line class="st6" x1="15.4" y1="276.2" x2="155.8" y2="276.2"/>
	<polyline class="st7" points="15.4,19.4 15.5,22 15.7,24.5 15.8,27 16,29.5 16.1,31.9 16.2,34.4 16.4,36.8 16.5,39.2 16.7,41.5 
		16.8,43.9 16.9,46.2 17.1,48.5 17.2,50.7 17.4,53 17.5,55.2 17.6,57.4 17.8,59.6 17.9,61.7 18.1,63.9 18.2,66 18.4,68.1 18.5,70.1 
		18.6,72.2 18.8,74.2 18.9,76.2 19.1,78.2 19.2,80.2 19.3,82.1 19.5,84.1 19.6,86 19.8,87.9 19.9,89.7 20,91.6 20.2,93.4 20.3,95.3 
		20.5,97.1 20.6,98.8 20.7,100.6 20.9,102.3 21,104.1 21.2,105.8 21.3,107.5 21.4,109.2 21.6,110.8 21.7,112.5 21.9,114.1 22,115.7 
		22.1,117.3 22.3,118.9 22.4,120.5 22.6,122 22.7,123.5 22.8,125.1 23,126.6 23.1,128.1 23.3,129.5 23.4,131 23.5,132.4 23.7,133.9 
		23.8,135.3 24,136.7 24.1,138.1 24.2,139.4 24.4,140.8 24.5,142.2 24.7,143.5 24.8,144.8 24.9,146.1 25.1,147.4 25.2,148.7 
		25.4,150 25.5,151.2 25.7,152.5 25.8,153.7 25.9,154.9 26.1,156.1 26.2,157.3 26.4,158.5 26.5,159.7 26.6,160.8 26.8,162 
		26.9,163.1 27.1,164.2 27.2,165.4 27.3,166.5 27.5,167.5 27.6,168.6 27.8,169.7 27.9,170.8 28,171.8 28.2,172.8 28.3,173.9 
		28.5,174.9 28.6,175.9 28.7,176.9 28.9,177.9 29,178.9 29.2,179.8 29.3,180.8 29.4,181.7 29.6,182.7 29.7,183.6 29.9,184.5 
		30,185.4 30.1,186.4 30.3,187.2 30.4,188.1 30.6,189 30.7,189.9 30.8,190.7 31,191.6 31.1,192.4 31.3,193.3 31.4,194.1 31.5,194.9 
		31.7,195.7 31.8,196.5 32,197.3 32.1,198.1 32.2,198.9 32.4,199.6 32.5,200.4 32.7,201.2 32.8,201.9 33,202.6 33.1,203.4 
		33.2,204.1 33.4,204.8 33.5,205.5 33.7,206.2 33.8,206.9 33.9,207.6 34.1,208.3 34.2,209 34.4,209.6 34.5,210.3 34.6,211 
		34.8,211.6 34.9,212.3 35.1,212.9 35.2,213.5 35.3,214.1 35.5,214.8 35.6,215.4 35.8,216 35.9,216.6 36,217.2 36.2,217.8 
		36.3,218.3 36.5,218.9 36.6,219.5 36.7,220 36.9,220.6 37,221.2 37.2,221.7 37.3,222.3 37.4,222.8 37.6,223.3 37.7,223.8 
		37.9,224.4 38,224.9 38.1,225.4 38.3,225.9 38.4,226.4 38.6,226.9 38.7,227.4 38.8,227.9 39,228.4 39.1,228.8 39.3,229.3 
		39.4,229.8 39.6,230.2 39.7,230.7 39.8,231.1 40,231.6 40.1,232 40.3,232.5 40.4,232.9 40.5,233.3 40.7,233.8 40.8,234.2 41,234.6 
		41.1,235 41.2,235.4 41.4,235.8 41.5,236.2 41.7,236.6 41.8,237 41.9,237.4 42.1,237.8 42.2,238.2 42.4,238.6 42.5,238.9 
		42.6,239.3 42.8,239.7 42.9,240 43.1,240.4 43.2,240.8 43.3,241.1 43.5,241.5 43.6,241.8 43.8,242.1 43.9,242.5 44,242.8 
		44.2,243.2 44.3,243.5 44.5,243.8 44.6,244.1 44.7,244.5 44.9,244.8 45,245.1 45.2,245.4 45.3,245.7 45.4,246 45.6,246.3 
		45.7,246.6 45.9,246.9 46,247.2 46.1,247.5 46.3,247.8 46.4,248 46.6,248.3 46.7,248.6 46.9,248.9 47,249.1 47.1,249.4 47.3,249.7 
		47.4,249.9 47.6,250.2 47.7,250.5 47.8,250.7 48,251 48.1,251.2 48.3,251.5 48.4,251.7 48.5,252 48.7,252.2 48.8,252.4 49,252.7 
		49.1,252.9 49.2,253.2 49.4,253.4 49.5,253.6 49.7,253.8 49.8,254.1 49.9,254.3 50.1,254.5 50.2,254.7 50.4,254.9 50.5,255.1 
		50.6,255.3 50.8,255.6 50.9,255.8 51.1,256 51.2,256.2 51.3,256.4 51.5,256.6 51.6,256.8 51.8,256.9 51.9,257.1 52,257.3 
		52.2,257.5 52.3,257.7 52.5,257.9 52.6,258.1 52.7,258.3 52.9,258.4 53,258.6 53.2,258.8 53.3,259 53.5,259.1 53.6,259.3 
		53.7,259.5 53.9,259.6 54,259.8 54.2,260 54.3,260.1 54.4,260.3 54.6,260.4 54.7,260.6 54.9,260.8 55,260.9 55.1,261.1 55.3,261.2 
		55.4,261.4 55.6,261.5 55.7,261.7 55.8,261.8 56,261.9 56.1,262.1 56.3,262.2 56.4,262.4 56.5,262.5 56.7,262.6 56.8,262.8 
		57,262.9 57.1,263 57.2,263.2 57.4,263.3 57.5,263.4 57.7,263.6 57.8,263.7 57.9,263.8 58.1,263.9 58.2,264.1 58.4,264.2 
		58.5,264.3 58.6,264.4 58.8,264.5 58.9,264.6 59.1,264.8 59.2,264.9 59.3,265 59.5,265.1 59.6,265.2 59.8,265.3 59.9,265.4 
		60,265.5 60.2,265.6 60.3,265.7 60.5,265.9 60.6,266 60.8,266.1 60.9,266.2 61,266.3 61.2,266.4 61.3,266.5 61.5,266.6 61.6,266.6 
		61.7,266.7 61.9,266.8 62,266.9 62.2,267 62.3,267.1 62.4,267.2 62.6,267.3 62.7,267.4 62.9,267.5 63,267.6 63.1,267.6 63.3,267.7 
		63.4,267.8 63.6,267.9 63.7,268 63.8,268.1 64,268.1 64.1,268.2 64.3,268.3 64.4,268.4 64.5,268.5 64.7,268.5 64.8,268.6 65,268.7 
		65.1,268.8 65.2,268.8 65.4,268.9 65.5,269 65.7,269.1 65.8,269.1 65.9,269.2 66.1,269.3 66.2,269.3 66.4,269.4 66.5,269.5 
		66.6,269.5 66.8,269.6 66.9,269.7 67.1,269.7 67.2,269.8 67.3,269.9 67.5,269.9 67.6,270 67.8,270.1 67.9,270.1 68.1,270.2 
		68.2,270.2 68.3,270.3 68.5,270.4 68.6,270.4 68.8,270.5 68.9,270.5 69,270.6 69.2,270.6 69.3,270.7 69.5,270.7 69.6,270.8 
		69.7,270.9 69.9,270.9 70,271 70.2,271 70.3,271.1 70.4,271.1 70.6,271.2 70.7,271.2 70.9,271.3 71,271.3 71.1,271.4 71.3,271.4 
		71.4,271.5 71.6,271.5 71.7,271.6 71.8,271.6 72,271.7 72.1,271.7 72.3,271.7 72.4,271.8 72.5,271.8 72.7,271.9 72.8,271.9 73,272 
		73.1,272 73.2,272 73.4,272.1 73.5,272.1 73.7,272.2 73.8,272.2 73.9,272.2 74.1,272.3 74.2,272.3 74.4,272.4 74.5,272.4 
		74.7,272.4 74.8,272.5 74.9,272.5 75.1,272.6 75.2,272.6 75.4,272.6 75.5,272.7 75.6,272.7 75.8,272.7 75.9,272.8 76.1,272.8 
		76.2,272.8 76.3,272.9 76.5,272.9 76.6,272.9 76.8,273 76.9,273 77,273 77.2,273.1 77.3,273.1 77.5,273.1 77.6,273.2 77.7,273.2 
		77.9,273.2 78,273.2 78.2,273.3 78.3,273.3 78.4,273.3 78.6,273.4 78.7,273.4 78.9,273.4 79,273.4 79.1,273.5 79.3,273.5 
		79.4,273.5 79.6,273.6 79.7,273.6 79.8,273.6 80,273.6 80.1,273.7 80.3,273.7 80.4,273.7 80.5,273.7 80.7,273.8 80.8,273.8 
		81,273.8 81.1,273.8 81.2,273.9 81.4,273.9 81.5,273.9 81.7,273.9 81.8,273.9 82,274 82.1,274 82.2,274 82.4,274 82.5,274.1 
		82.7,274.1 82.8,274.1 82.9,274.1 83.1,274.1 83.2,274.2 83.4,274.2 83.5,274.2 83.6,274.2 83.8,274.2 83.9,274.3 84.1,274.3 
		84.2,274.3 84.3,274.3 84.5,274.3 84.6,274.4 84.8,274.4 84.9,274.4 85,274.4 85.2,274.4 85.3,274.4 85.5,274.5 85.6,274.5 
		85.7,274.5 85.9,274.5 86,274.5 86.2,274.6 86.3,274.6 86.4,274.6 86.6,274.6 86.7,274.6 86.9,274.6 87,274.6 87.1,274.7 
		87.3,274.7 87.4,274.7 87.6,274.7 87.7,274.7 87.8,274.7 88,274.8 88.1,274.8 88.3,274.8 88.4,274.8 88.6,274.8 88.7,274.8 
		88.8,274.8 89,274.9 89.1,274.9 89.3,274.9 89.4,274.9 89.5,274.9 89.7,274.9 89.8,274.9 90,274.9 90.1,275 90.2,275 90.4,275 
		90.5,275 90.7,275 90.8,275 90.9,275 91.1,275 91.2,275.1 91.4,275.1 91.5,275.1 91.6,275.1 91.8,275.1 91.9,275.1 92.1,275.1 
		92.2,275.1 92.3,275.1 92.5,275.2 92.6,275.2 92.8,275.2 92.9,275.2 93,275.2 93.2,275.2 93.3,275.2 93.5,275.2 93.6,275.2 
		93.7,275.2 93.9,275.3 94,275.3 94.2,275.3 94.3,275.3 94.4,275.3 94.6,275.3 94.7,275.3 94.9,275.3 95,275.3 95.1,275.3 
		95.3,275.3 95.4,275.4 95.6,275.4 95.7,275.4 95.9,275.4 96,275.4 96.1,275.4 96.3,275.4 96.4,275.4 96.6,275.4 96.7,275.4 
		96.8,275.4 97,275.4 97.1,275.5 97.3,275.5 97.4,275.5 97.5,275.5 97.7,275.5 97.8,275.5 98,275.5 98.1,275.5 98.2,275.5 
		98.4,275.5 98.5,275.5 98.7,275.5 98.8,275.5 98.9,275.5 99.1,275.6 99.2,275.6 99.4,275.6 99.5,275.6 99.6,275.6 99.8,275.6 
		99.9,275.6 100.1,275.6 100.2,275.6 100.3,275.6 100.5,275.6 100.6,275.6 100.8,275.6 100.9,275.6 101,275.6 101.2,275.6 
		101.3,275.7 101.5,275.7 101.6,275.7 101.7,275.7 101.9,275.7 102,275.7 102.2,275.7 102.3,275.7 102.4,275.7 102.6,275.7 
		102.7,275.7 102.9,275.7 103,275.7 103.2,275.7 103.3,275.7 103.4,275.7 103.6,275.7 103.7,275.7 103.9,275.7 104,275.7 
		104.1,275.8 104.3,275.8 104.4,275.8 104.6,275.8 104.7,275.8 104.8,275.8 105,275.8 105.1,275.8 105.3,275.8 105.4,275.8 
		105.5,275.8 105.7,275.8 105.8,275.8 106,275.8 106.1,275.8 106.2,275.8 106.4,275.8 106.5,275.8 106.7,275.8 106.8,275.8 
		106.9,275.8 107.1,275.8 107.2,275.8 107.4,275.8 107.5,275.9 107.6,275.9 107.8,275.9 107.9,275.9 108.1,275.9 108.2,275.9 
		108.3,275.9 108.5,275.9 108.6,275.9 108.8,275.9 108.9,275.9 109,275.9 109.2,275.9 109.3,275.9 109.5,275.9 109.6,275.9 
		109.8,275.9 109.9,275.9 110,275.9 110.2,275.9 110.3,275.9 110.5,275.9 110.6,275.9 110.7,275.9 110.9,275.9 111,275.9 
		111.2,275.9 111.3,275.9 111.4,275.9 111.6,275.9 111.7,275.9 111.9,275.9 112,276 112.1,276 112.3,276 112.4,276 112.6,276 
		112.7,276 112.8,276 113,276 113.1,276 113.3,276 113.4,276 113.5,276 113.7,276 113.8,276 114,276 114.1,276 114.2,276 114.4,276 
		114.5,276 114.7,276 114.8,276 114.9,276 115.1,276 115.2,276 115.4,276 115.5,276 115.6,276 115.8,276 115.9,276 116.1,276 
		116.2,276 116.3,276 116.5,276 116.6,276 116.8,276 116.9,276 117.1,276 117.2,276 117.3,276 117.5,276 117.6,276 117.8,276 
		117.9,276 118,276 118.2,276 118.3,276 118.5,276 118.6,276 118.7,276.1 118.9,276.1 119,276.1 119.2,276.1 119.3,276.1 
		119.4,276.1 119.6,276.1 119.7,276.1 119.9,276.1 120,276.1 120.1,276.1 120.3,276.1 120.4,276.1 120.6,276.1 120.7,276.1 
		120.8,276.1 121,276.1 121.1,276.1 121.3,276.1 121.4,276.1 121.5,276.1 121.7,276.1 121.8,276.1 122,276.1 122.1,276.1 
		122.2,276.1 122.4,276.1 122.5,276.1 122.7,276.1 122.8,276.1 122.9,276.1 123.1,276.1 123.2,276.1 123.4,276.1 123.5,276.1 
		123.7,276.1 123.8,276.1 123.9,276.1 124.1,276.1 124.2,276.1 124.4,276.1 124.5,276.1 124.6,276.1 124.8,276.1 124.9,276.1 
		125.1,276.1 125.2,276.1 125.3,276.1 125.5,276.1 125.6,276.1 125.8,276.1 125.9,276.1 126,276.1 126.2,276.1 126.3,276.1 
		126.5,276.1 126.6,276.1 126.7,276.1 126.9,276.1 127,276.1 127.2,276.1 127.3,276.1 127.4,276.1 127.6,276.1 127.7,276.1 
		127.9,276.1 128,276.1 128.1,276.1 128.3,276.1 128.4,276.1 128.6,276.1 128.7,276.1 128.8,276.1 129,276.1 129.1,276.1 
		129.3,276.1 129.4,276.1 129.5,276.1 129.7,276.1 129.8,276.1 130,276.1 130.1,276.1 130.2,276.1 130.4,276.1 130.5,276.1 
		130.7,276.1 130.8,276.1 131,276.1 131.1,276.1 131.2,276.1 131.4,276.1 131.5,276.1 131.7,276.1 131.8,276.2 131.9,276.2 
		132.1,276.2 132.2,276.2 132.4,276.2 132.5,276.2 132.6,276.2 132.8,276.2 132.9,276.2 133.1,276.2 133.2,276.2 133.3,276.2 
		133.5,276.2 133.6,276.2 133.8,276.2 133.9,276.2 134,276.2 134.2,276.2 134.3,276.2 134.5,276.2 134.6,276.2 134.7,276.2 
		134.9,276.2 135,276.2 135.2,276.2 135.3,276.2 135.4,276.2 135.6,276.2 135.7,276.2 135.9,276.2 136,276.2 136.1,276.2 
		136.3,276.2 136.4,276.2 136.6,276.2 136.7,276.2 136.8,276.2 137,276.2 137.1,276.2 137.3,276.2 137.4,276.2 137.5,276.2 
		137.7,276.2 137.8,276.2 138,276.2 138.1,276.2 138.3,276.2 138.4,276.2 138.5,276.2 138.7,276.2 138.8,276.2 139,276.2 
		139.1,276.2 139.2,276.2 139.4,276.2 139.5,276.2 139.7,276.2 139.8,276.2 139.9,276.2 140.1,276.2 140.2,276.2 140.4,276.2 
		140.5,276.2 140.6,276.2 140.8,276.2 140.9,276.2 141.1,276.2 141.2,276.2 141.3,276.2 141.5,276.2 141.6,276.2 141.8,276.2 
		141.9,276.2 142,276.2 142.2,276.2 142.3,276.2 142.5,276.2 142.6,276.2 142.7,276.2 142.9,276.2 143,276.2 143.2,276.2 
		143.3,276.2 143.4,276.2 143.6,276.2 143.7,276.2 143.9,276.2 144,276.2 144.1,276.2 144.3,276.2 144.4,276.2 144.6,276.2 
		144.7,276.2 144.9,276.2 145,276.2 145.1,276.2 145.3,276.2 145.4,276.2 145.6,276.2 145.7,276.2 145.8,276.2 146,276.2 
		146.1,276.2 146.3,276.2 146.4,276.2 146.5,276.2 146.7,276.2 146.8,276.2 147,276.2 147.1,276.2 147.2,276.2 147.4,276.2 
		147.5,276.2 147.7,276.2 147.8,276.2 147.9,276.2 148.1,276.2 148.2,276.2 148.4,276.2 148.5,276.2 148.6,276.2 148.8,276.2 
		148.9,276.2 149.1,276.2 149.2,276.2 149.3,276.2 149.5,276.2 149.6,276.2 149.8,276.2 149.9,276.2 150,276.2 150.2,276.2 
		150.3,276.2 150.5,276.2 150.6,276.2 150.7,276.2 150.9,276.2 151,276.2 151.2,276.2 151.3,276.2 151.4,276.2 151.6,276.2 
		151.7,276.2 151.9,276.2 152,276.2 152.2,276.2 152.3,276.2 152.4,276.2 152.6,276.2 152.7,276.2 152.9,276.2 153,276.2 
		153.1,276.2 153.3,276.2 153.4,276.2 153.6,276.2 153.7,276.2 153.8,276.2 154,276.2 154.1,276.2 154.3,276.2 154.4,276.2 
		154.5,276.2 154.7,276.2 154.8,276.2 155,276.2 155.1,276.2 155.2,276.2 155.4,276.2 155.5,276.2 155.7,276.2 155.8,276.2 	"/>
	<path class="st5" d="M15.4,17.4c1.1,0,2,0.9,2,2l0,0c0,1.1-0.9,2-2,2s-2-0.9-2-2C13.4,18.3,14.3,17.4,15.4,17.4L15.4,17.4z
		 M15.4,15.4c-2.2,0-4,1.8-4,4s1.8,4,4,4c2.2,0,4-1.8,4-4l0,0C19.4,17.2,17.6,15.4,15.4,15.4L15.4,15.4z"/>
	<path class="st5" d="M18.9,74.2c1.1,0,2,0.9,2,2l0,0c0,1.1-0.9,2-2,2c-1.1,0-2-0.9-2-2S17.8,74.2,18.9,74.2L18.9,74.2z M18.9,72.2
		c-2.2,0-4,1.8-4,4c0,2.2,1.8,4,4,4c2.2,0,4-1.8,4-4l0,0C22.9,74,21.1,72.2,18.9,72.2L18.9,72.2z"/>
	<path class="st5" d="M22.4,118.5c1.1,0,2,0.9,2,2l0,0c0,1.1-0.9,2-2,2c-1.1,0-2-0.9-2-2C20.4,119.4,21.3,118.5,22.4,118.5
		L22.4,118.5z M22.4,116.5c-2.2,0-4,1.8-4,4c0,2.2,1.8,4,4,4s4-1.8,4-4l0,0C26.4,118.2,24.6,116.5,22.4,116.5L22.4,116.5z"/>
	<path class="st5" d="M25.9,152.9c1.1,0,2,0.9,2,2l0,0c0,1.1-0.9,2-2,2s-2-0.9-2-2S24.8,152.9,25.9,152.9L25.9,152.9z M25.9,150.9
		c-2.2,0-4,1.8-4,4c0,2.2,1.8,4,4,4s4-1.8,4-4l0,0C29.9,152.7,28.1,150.9,25.9,150.9L25.9,150.9z"/>
	<path class="st5" d="M29.4,179.7c1.1,0,2,0.9,2,2l0,0c0,1.1-0.9,2-2,2c-1.1,0-2-0.9-2-2S28.3,179.7,29.4,179.7L29.4,179.7z
		 M29.4,177.7c-2.2,0-4,1.8-4,4s1.8,4,4,4c2.2,0,4-1.8,4-4l0,0C33.4,179.5,31.7,177.7,29.4,177.7L29.4,177.7z"/>
	<path class="st5" d="M33,200.6c1.1,0,2,0.9,2,2l0,0c0,1.1-0.9,2-2,2s-2-0.9-2-2C31,201.5,31.8,200.6,33,200.6L33,200.6z M33,198.6
		c-2.2,0-4,1.8-4,4c0,2.2,1.8,4,4,4c2.2,0,4-1.8,4-4l0,0C37,200.4,35.2,198.6,33,198.6L33,198.6z"/>
	<path class="st5" d="M36.5,216.9c1.1,0,2,0.9,2,2l0,0c0,1.1-0.9,2-2,2s-2-0.9-2-2C34.5,217.8,35.4,216.9,36.5,216.9L36.5,216.9z
		 M36.5,214.9c-2.2,0-4,1.8-4,4c0,2.2,1.8,4,4,4c2.2,0,4-1.8,4-4l0,0C40.5,216.7,38.7,214.9,36.5,214.9L36.5,214.9z"/>
	<path class="st5" d="M40,229.6c1.1,0,2,0.9,2,2l0,0c0,1.1-0.9,2-2,2c-1.1,0-2-0.9-2-2S38.9,229.6,40,229.6L40,229.6z M40,227.6
		c-2.2,0-4,1.8-4,4c0,2.2,1.8,4,4,4c2.2,0,4-1.8,4-4l0,0C44,229.4,42.2,227.6,40,227.6L40,227.6z"/>
	<path class="st5" d="M43.5,239.5c1.1,0,2,0.9,2,2l0,0c0,1.1-0.9,2-2,2s-2-0.9-2-2S42.4,239.5,43.5,239.5L43.5,239.5z M43.5,237.5
		c-2.2,0-4,1.8-4,4s1.8,4,4,4c2.2,0,4-1.8,4-4l0,0C47.5,239.3,45.7,237.5,43.5,237.5L43.5,237.5z"/>
	<path class="st5" d="M47,247.1c1.1,0,2,0.9,2,2l0,0c0,1.1-0.9,2-2,2c-1.1,0-2-0.9-2-2S45.9,247.1,47,247.1L47,247.1z M47,245.1
		c-2.2,0-4,1.8-4,4s1.8,4,4,4c2.2,0,4-1.8,4-4l0,0C51,246.9,49.2,245.1,47,245.1L47,245.1z"/>
	<path class="st5" d="M50.5,253.1c1.1,0,2,0.9,2,2l0,0c0,1.1-0.9,2-2,2c-1.1,0-2-0.9-2-2C48.5,254,49.4,253.1,50.5,253.1L50.5,253.1
		z M50.5,251.1c-2.2,0-4,1.8-4,4c0,2.2,1.8,4,4,4c2.2,0,4-1.8,4-4l0,0C54.5,252.9,52.7,251.1,50.5,251.1L50.5,251.1z"/>
	<path class="st5" d="M54,257.8c1.1,0,2,0.9,2,2l0,0c0,1.1-0.9,2-2,2s-2-0.9-2-2S52.9,257.8,54,257.8L54,257.8z M54,255.8
		c-2.2,0-4,1.8-4,4c0,2.2,1.8,4,4,4s4-1.8,4-4l0,0C58,257.6,56.2,255.8,54,255.8L54,255.8z"/>
	<path class="st5" d="M57.5,261.4c1.1,0,2,0.9,2,2l0,0c0,1.1-0.9,2-2,2c-1.1,0-2-0.9-2-2S56.4,261.4,57.5,261.4L57.5,261.4z
		 M57.5,259.4c-2.2,0-4,1.8-4,4c0,2.2,1.8,4,4,4c2.2,0,4-1.8,4-4l0,0C61.5,261.2,59.7,259.4,57.5,259.4L57.5,259.4z"/>
	<path class="st5" d="M61,264.3c1.1,0,2,0.9,2,2l0,0c0,1.1-0.9,2-2,2c-1.1,0-2-0.9-2-2S59.9,264.3,61,264.3L61,264.3z M61,262.3
		c-2.2,0-4,1.8-4,4s1.8,4,4,4c2.2,0,4-1.8,4-4l0,0C65,264,63.2,262.3,61,262.3L61,262.3z"/>
	<path class="st5" d="M64.5,266.5c1.1,0,2,0.9,2,2l0,0c0,1.1-0.9,2-2,2s-2-0.9-2-2S63.4,266.5,64.5,266.5L64.5,266.5z M64.5,264.5
		c-2.2,0-4,1.8-4,4s1.8,4,4,4c2.2,0,4-1.8,4-4l0,0C68.5,266.3,66.8,264.5,64.5,264.5L64.5,264.5z"/>
	<path class="st5" d="M68.1,268.2c1.1,0,2,0.9,2,2l0,0c0,1.1-0.9,2-2,2c-1.1,0-2-0.9-2-2S66.9,268.2,68.1,268.2L68.1,268.2z
		 M68.1,266.2c-2.2,0-4,1.8-4,4s1.8,4,4,4c2.2,0,4-1.8,4-4l0,0C72.1,268,70.3,266.2,68.1,266.2L68.1,266.2z"/>
	<path class="st5" d="M71.6,269.5c1.1,0,2,0.9,2,2l0,0c0,1.1-0.9,2-2,2s-2-0.9-2-2S70.5,269.5,71.6,269.5L71.6,269.5z M71.6,267.5
		c-2.2,0-4,1.8-4,4s1.8,4,4,4c2.2,0,4-1.8,4-4l0,0C75.6,269.3,73.8,267.5,71.6,267.5L71.6,267.5z"/>
	<path class="st5" d="M75.1,270.6c1.1,0,2,0.9,2,2l0,0c0,1.1-0.9,2-2,2s-2-0.9-2-2C73.1,271.4,74,270.6,75.1,270.6L75.1,270.6z
		 M75.1,268.6c-2.2,0-4,1.8-4,4c0,2.2,1.8,4,4,4c2.2,0,4-1.8,4-4l0,0C79.1,270.3,77.3,268.6,75.1,268.6L75.1,268.6z"/>
	<path class="st5" d="M78.6,271.4c1.1,0,2,0.9,2,2l0,0c0,1.1-0.9,2-2,2c-1.1,0-2-0.9-2-2S77.5,271.4,78.6,271.4L78.6,271.4z
		 M78.6,269.4c-2.2,0-4,1.8-4,4s1.8,4,4,4c2.2,0,4-1.8,4-4l0,0C82.6,271.2,80.8,269.4,78.6,269.4L78.6,269.4z"/>
	<path class="st5" d="M82.1,272c1.1,0,2,0.9,2,2l0,0c0,1.1-0.9,2-2,2s-2-0.9-2-2C80.1,272.9,81,272,82.1,272L82.1,272z M82.1,270
		c-2.2,0-4,1.8-4,4c0,2.2,1.8,4,4,4s4-1.8,4-4l0,0C86.1,271.8,84.3,270,82.1,270L82.1,270z"/>
	<path class="st5" d="M85.6,272.5c1.1,0,2,0.9,2,2l0,0c0,1.1-0.9,2-2,2c-1.1,0-2-0.9-2-2C83.6,273.4,84.5,272.5,85.6,272.5
		L85.6,272.5z M85.6,270.5c-2.2,0-4,1.8-4,4c0,2.2,1.8,4,4,4c2.2,0,4-1.8,4-4l0,0C89.6,272.3,87.8,270.5,85.6,270.5L85.6,270.5z"/>
	<path class="st5" d="M89.1,272.9c1.1,0,2,0.9,2,2l0,0c0,1.1-0.9,2-2,2c-1.1,0-2-0.9-2-2S88,272.9,89.1,272.9L89.1,272.9z
		 M89.1,270.9c-2.2,0-4,1.8-4,4s1.8,4,4,4c2.2,0,4-1.8,4-4l0,0C93.1,272.7,91.3,270.9,89.1,270.9L89.1,270.9z"/>
	<path class="st5" d="M92.6,273.2c1.1,0,2,0.9,2,2l0,0c0,1.1-0.9,2-2,2s-2-0.9-2-2S91.5,273.2,92.6,273.2L92.6,273.2z M92.6,271.2
		c-2.2,0-4,1.8-4,4s1.8,4,4,4s4-1.8,4-4l0,0C96.6,273,94.8,271.2,92.6,271.2L92.6,271.2z"/>
	<path class="st5" d="M96.1,273.4c1.1,0,2,0.9,2,2l0,0c0,1.1-0.9,2-2,2c-1.1,0-2-0.9-2-2S95,273.4,96.1,273.4L96.1,273.4z
		 M96.1,271.4c-2.2,0-4,1.8-4,4s1.8,4,4,4c2.2,0,4-1.8,4-4l0,0C100.1,273.2,98.3,271.4,96.1,271.4L96.1,271.4z"/>
	<path class="st5" d="M99.6,273.6c1.1,0,2,0.9,2,2l0,0c0,1.1-0.9,2-2,2s-2-0.9-2-2S98.5,273.6,99.6,273.6L99.6,273.6z M99.6,271.6
		c-2.2,0-4,1.8-4,4s1.8,4,4,4c2.2,0,4-1.8,4-4l0,0C103.6,273.4,101.9,271.6,99.6,271.6L99.6,271.6z"/>
	<path class="st5" d="M103.2,273.7c1.1,0,2,0.9,2,2l0,0c0,1.1-0.9,2-2,2s-2-0.9-2-2S102,273.7,103.2,273.7L103.2,273.7z
		 M103.2,271.7c-2.2,0-4,1.8-4,4s1.8,4,4,4c2.2,0,4-1.8,4-4l0,0C107.2,273.5,105.4,271.7,103.2,271.7L103.2,271.7z"/>
	<path class="st5" d="M106.7,273.8c1.1,0,2,0.9,2,2l0,0c0,1.1-0.9,2-2,2c-1.1,0-2-0.9-2-2S105.6,273.8,106.7,273.8L106.7,273.8z
		 M106.7,271.8c-2.2,0-4,1.8-4,4s1.8,4,4,4c2.2,0,4-1.8,4-4l0,0C110.7,273.6,108.9,271.8,106.7,271.8L106.7,271.8z"/>
	<path class="st5" d="M110.2,273.9c1.1,0,2,0.9,2,2l0,0c0,1.1-0.9,2-2,2s-2-0.9-2-2C108.2,274.8,109.1,273.9,110.2,273.9
		L110.2,273.9z M110.2,271.9c-2.2,0-4,1.8-4,4c0,2.2,1.8,4,4,4s4-1.8,4-4l0,0C114.2,273.7,112.4,271.9,110.2,271.9L110.2,271.9z"/>
	<path class="st5" d="M113.7,274c1.1,0,2,0.9,2,2l0,0c0,1.1-0.9,2-2,2c-1.1,0-2-0.9-2-2S112.6,274,113.7,274L113.7,274z M113.7,272
		c-2.2,0-4,1.8-4,4s1.8,4,4,4c2.2,0,4-1.8,4-4l0,0C117.7,273.8,115.9,272,113.7,272L113.7,272z"/>
	<path class="st5" d="M117.2,274c1.1,0,2,0.9,2,2l0,0c0,1.1-0.9,2-2,2c-1.1,0-2-0.9-2-2S116.1,274,117.2,274L117.2,274z M117.2,272
		c-2.2,0-4,1.8-4,4s1.8,4,4,4c2.2,0,4-1.8,4-4l0,0C121.2,273.8,119.4,272,117.2,272L117.2,272z"/>
	<path class="st5" d="M120.7,274.1c1.1,0,2,0.9,2,2l0,0c0,1.1-0.9,2-2,2s-2-0.9-2-2S119.6,274.1,120.7,274.1L120.7,274.1z
		 M120.7,272.1c-2.2,0-4,1.8-4,4s1.8,4,4,4s4-1.8,4-4l0,0C124.7,273.9,122.9,272.1,120.7,272.1L120.7,272.1z"/>
	<path class="st5" d="M124.2,274.1c1.1,0,2,0.9,2,2l0,0c0,1.1-0.9,2-2,2c-1.1,0-2-0.9-2-2S123.1,274.1,124.2,274.1L124.2,274.1z
		 M124.2,272.1c-2.2,0-4,1.8-4,4s1.8,4,4,4c2.2,0,4-1.8,4-4l0,0C128.2,273.9,126.4,272.1,124.2,272.1L124.2,272.1z"/>
	<path class="st5" d="M127.7,274.1c1.1,0,2,0.9,2,2l0,0c0,1.1-0.9,2-2,2c-1.1,0-2-0.9-2-2S126.6,274.1,127.7,274.1L127.7,274.1z
		 M127.7,272.1c-2.2,0-4,1.8-4,4c0,2.2,1.8,4,4,4c2.2,0,4-1.8,4-4l0,0C131.7,273.9,129.9,272.1,127.7,272.1L127.7,272.1z"/>
	<path class="st5" d="M131.2,274.1c1.1,0,2,0.9,2,2l0,0c0,1.1-0.9,2-2,2s-2-0.9-2-2S130.1,274.1,131.2,274.1L131.2,274.1z
		 M131.2,272.1c-2.2,0-4,1.8-4,4c0,2.2,1.8,4,4,4c2.2,0,4-1.8,4-4l0,0C135.2,273.9,133.4,272.1,131.2,272.1L131.2,272.1z"/>
	<path class="st5" d="M134.7,274.2c1.1,0,2,0.9,2,2l0,0c0,1.1-0.9,2-2,2c-1.1,0-2-0.9-2-2C132.7,275.1,133.6,274.2,134.7,274.2
		L134.7,274.2z M134.7,272.2c-2.2,0-4,1.8-4,4c0,2.2,1.8,4,4,4c2.2,0,4-1.8,4-4l0,0C138.7,274,137,272.2,134.7,272.2L134.7,272.2z"
		/>
	<path class="st5" d="M138.3,274.2c1.1,0,2,0.9,2,2l0,0c0,1.1-0.9,2-2,2c-1.1,0-2-0.9-2-2S137.1,274.2,138.3,274.2L138.3,274.2z
		 M138.3,272.2c-2.2,0-4,1.8-4,4c0,2.2,1.8,4,4,4c2.2,0,4-1.8,4-4l0,0C142.3,274,140.5,272.2,138.3,272.2L138.3,272.2z"/>
	<path class="st5" d="M141.8,274.2c1.1,0,2,0.9,2,2l0,0c0,1.1-0.9,2-2,2c-1.1,0-2-0.9-2-2C139.8,275.1,140.7,274.2,141.8,274.2
		L141.8,274.2z M141.8,272.2c-2.2,0-4,1.8-4,4c0,2.2,1.8,4,4,4s4-1.8,4-4l0,0C145.8,274,144,272.2,141.8,272.2L141.8,272.2z"/>
	<path class="st5" d="M145.3,274.2c1.1,0,2,0.9,2,2l0,0c0,1.1-0.9,2-2,2c-1.1,0-2-0.9-2-2S144.2,274.2,145.3,274.2L145.3,274.2z
		 M145.3,272.2c-2.2,0-4,1.8-4,4s1.8,4,4,4s4-1.8,4-4l0,0C149.3,274,147.5,272.2,145.3,272.2L145.3,272.2z"/>
	<path class="st5" d="M148.8,274.2c1.1,0,2,0.9,2,2l0,0c0,1.1-0.9,2-2,2s-2-0.9-2-2C146.8,275.1,147.7,274.2,148.8,274.2
		L148.8,274.2z M148.8,272.2c-2.2,0-4,1.8-4,4c0,2.2,1.8,4,4,4s4-1.8,4-4l0,0C152.8,274,151,272.2,148.8,272.2L148.8,272.2z"/>
	<path class="st5" d="M152.3,274.2c1.1,0,2,0.9,2,2l0,0c0,1.1-0.9,2-2,2c-1.1,0-2-0.9-2-2C150.3,275.1,151.2,274.2,152.3,274.2
		L152.3,274.2z M152.3,272.2c-2.2,0-4,1.8-4,4c0,2.2,1.8,4,4,4s4-1.8,4-4l0,0C156.3,274,154.5,272.2,152.3,272.2L152.3,272.2z"/>
	<path class="st5" d="M155.8,274.2c1.1,0,2,0.9,2,2l0,0c0,1.1-0.9,2-2,2s-2-0.9-2-2S154.7,274.2,155.8,274.2L155.8,274.2z
		 M155.8,272.2c-2.2,0-4,1.8-4,4s1.8,4,4,4c2.2,0,4-1.8,4-4l0,0C159.8,274,158,272.2,155.8,272.2L155.8,272.2z"/>
	<path class="st8" d="M15.4,276.2V19.4 M18.9,276.2v-200 M22.4,276.2V120.5 M25.9,276.2V154.9 M29.4,276.2v-94.5 M33,276.2v-73.6
		 M36.5,276.2v-57.3 M40,276.2v-44.6 M43.5,276.2v-34.8 M47,276.2v-27.1 M50.5,276.2v-21.1 M54,276.2v-16.4 M57.5,276.2v-12.8
		 M61,276.2v-10 M64.5,276.2v-7.8 M68.1,276.2v-6 M71.6,276.2v-4.7 M75.1,276.2v-3.7 M78.6,276.2v-2.9 M82.1,276.2V274 M85.6,276.2
		v-1.7 M89.1,276.2v-1.3 M92.6,276.2v-1 M96.1,276.2v-0.8 M99.6,276.2v-0.6 M103.2,276.2v-0.5 M106.7,276.2v-0.4 M110.2,276.2v-0.3
		 M113.7,276.2V276 M117.2,276.2V276 M120.7,276.2v-0.1 M124.2,276.2v-0.1 M127.7,276.2L127.7,276.2 M131.2,276.2L131.2,276.2
		 M134.7,276.2L134.7,276.2 M138.3,276.2L138.3,276.2 M141.8,276.2L141.8,276.2 M145.3,276.2L145.3,276.2 M148.8,276.2L148.8,276.2
		 M152.3,276.2L152.3,276.2 M155.8,276.2L155.8,276.2"/>
	<path class="st0" d="M200.2,276.2V19.4 M235.5,276.2V19.4 M270.7,276.2V19.4 M306,276.2V19.4 M341.2,276.2V19.4 M341.2,276.2h-141
		 M341.2,250.5h-141 M341.2,224.9h-141 M341.2,199.2h-141 M341.2,173.5h-141 M341.2,147.8h-141 M341.2,122.1h-141 M341.2,96.5h-141
		 M341.2,70.8h-141 M341.2,45.1h-141 M341.2,19.4h-141"/>
	<path class="st1" d="M200.2,276.2h141 M200.2,19.4h141 M200.2,276.2v-2.6 M235.5,276.2v-2.6 M270.7,276.2v-2.6 M306,276.2v-2.6
		 M341.2,276.2v-2.6 M200.2,19.4V22 M235.5,19.4V22 M270.7,19.4V22 M306,19.4V22 M341.2,19.4V22"/>
	<g>
		<path class="st2" d="M193.4,285.9h2.2v0.8h-2.2V285.9z"/>
		<path class="st2" d="M200.6,284.4c0,0.5-0.1,0.8-0.4,1.1c-0.2,0.3-0.7,0.6-1.3,1c-0.7,0.4-1.2,0.8-1.5,1.1
			c-0.1,0.1-0.2,0.3-0.3,0.5h3.4v0.8h-4.3v0c0-0.7,0.2-1.2,0.5-1.6c0.3-0.4,1-0.9,1.9-1.4c0.4-0.2,0.7-0.5,0.9-0.7
			c0.2-0.2,0.2-0.5,0.2-0.8c0-0.3-0.1-0.6-0.4-0.8c-0.2-0.2-0.5-0.3-0.9-0.3c-0.4,0-0.7,0.1-0.9,0.4c-0.2,0.3-0.3,0.7-0.4,1.1h-0.8
			c0-0.7,0.2-1.2,0.6-1.6c0.4-0.4,0.9-0.6,1.6-0.6c0.6,0,1.1,0.2,1.4,0.5C200.4,283.4,200.6,283.8,200.6,284.4z"/>
	</g>
	<path class="st3" d="M202.3,288.7c0,0,0-0.1,0-0.1c0.2-0.4,0.3-0.7,0.5-1c0.1-0.3,0.3-0.7,0.4-1c0.1-0.3,0.2-0.7,0.3-1h-0.6
		c-0.2,0-0.4,0.1-0.6,0.2c-0.2,0.1-0.3,0.3-0.5,0.5c0,0,0,0-0.1,0h-0.1c-0.1,0-0.1,0-0.1-0.1c0,0,0,0,0-0.1c0.2-0.3,0.4-0.6,0.6-0.8
		c0.2-0.2,0.5-0.3,0.8-0.3h3.3c0.1,0,0.1,0,0.2,0.1c0,0,0.1,0.1,0.1,0.2c0,0.1,0,0.2-0.1,0.2c-0.1,0.1-0.1,0.1-0.2,0.1H205
		c-0.1,0.5-0.2,0.9-0.2,1.4c0,0.6,0.1,1.1,0.3,1.6c0,0,0,0.1,0,0.1c0,0.1,0,0.1-0.1,0.2c0,0.1-0.1,0.1-0.2,0.1
		c-0.1,0-0.1,0.1-0.2,0.1c-0.2,0-0.3-0.1-0.3-0.4c-0.1-0.3-0.1-0.5-0.1-0.8c0-0.3,0-0.7,0.1-1c0.1-0.3,0.2-0.8,0.3-1.3h-1
		c-0.5,1.9-0.8,3-0.9,3.2c-0.1,0.2-0.2,0.2-0.3,0.2c-0.1,0-0.1,0-0.2-0.1C202.3,288.8,202.3,288.7,202.3,288.7L202.3,288.7z"/>
	<g>
		<path class="st2" d="M231.8,285.9h2.2v0.8h-2.2V285.9z"/>
	</g>
	<path class="st3" d="M235.3,288.7c0,0,0-0.1,0-0.1c0.2-0.4,0.3-0.7,0.5-1c0.1-0.3,0.3-0.7,0.4-1s0.2-0.7,0.3-1h-0.6
		c-0.2,0-0.4,0.1-0.6,0.2c-0.2,0.1-0.3,0.3-0.5,0.5c0,0,0,0-0.1,0h-0.1c-0.1,0-0.1,0-0.1-0.1c0,0,0,0,0-0.1c0.2-0.3,0.4-0.6,0.6-0.8
		c0.2-0.2,0.5-0.3,0.8-0.3h3.3c0.1,0,0.1,0,0.2,0.1c0,0,0.1,0.1,0.1,0.2c0,0.1,0,0.2-0.1,0.2c-0.1,0.1-0.1,0.1-0.2,0.1H238
		c-0.1,0.5-0.2,0.9-0.2,1.4c0,0.6,0.1,1.1,0.3,1.6c0,0,0,0.1,0,0.1c0,0.1,0,0.1-0.1,0.2c0,0.1-0.1,0.1-0.1,0.1
		c-0.1,0-0.1,0.1-0.2,0.1c-0.2,0-0.3-0.1-0.3-0.4c-0.1-0.3-0.1-0.5-0.1-0.8c0-0.3,0-0.7,0.1-1c0.1-0.3,0.2-0.8,0.3-1.3h-1
		c-0.5,1.9-0.8,3-0.9,3.2c-0.1,0.2-0.2,0.2-0.3,0.2c-0.1,0-0.1,0-0.2-0.1C235.3,288.8,235.3,288.7,235.3,288.7L235.3,288.7z"/>
	<g>
		<path class="st2" d="M268.9,287.9c-0.4-0.6-0.6-1.4-0.6-2.4s0.2-1.8,0.6-2.4c0.4-0.6,0.9-0.8,1.6-0.8c0.7,0,1.2,0.3,1.6,0.8
			c0.4,0.6,0.6,1.4,0.6,2.4s-0.2,1.8-0.6,2.4c-0.4,0.6-0.9,0.8-1.6,0.8C269.8,288.8,269.3,288.5,268.9,287.9z M271.5,287.4
			c0.2-0.4,0.3-1.1,0.3-1.9c0-0.8-0.1-1.5-0.3-1.9c-0.2-0.4-0.6-0.6-1-0.6c-0.4,0-0.8,0.2-1,0.6c-0.2,0.4-0.3,1.1-0.3,1.9
			c0,0.8,0.1,1.5,0.3,1.9c0.2,0.4,0.5,0.6,1,0.6C270.9,288.1,271.3,287.9,271.5,287.4z"/>
	</g>
	<path class="st3" d="M303.7,288.7c0,0,0-0.1,0-0.1c0.2-0.4,0.3-0.7,0.5-1c0.1-0.3,0.3-0.7,0.4-1s0.2-0.7,0.3-1h-0.6
		c-0.2,0-0.4,0.1-0.6,0.2c-0.2,0.1-0.3,0.3-0.5,0.5c0,0,0,0-0.1,0h-0.1c-0.1,0-0.1,0-0.1-0.1c0,0,0,0,0-0.1c0.2-0.3,0.4-0.6,0.6-0.8
		c0.2-0.2,0.5-0.3,0.8-0.3h3.3c0.1,0,0.1,0,0.2,0.1c0,0,0.1,0.1,0.1,0.2c0,0.1,0,0.2-0.1,0.2c-0.1,0.1-0.1,0.1-0.2,0.1h-1.1
		c-0.1,0.5-0.2,0.9-0.2,1.4c0,0.6,0.1,1.1,0.3,1.6c0,0,0,0.1,0,0.1c0,0.1,0,0.1-0.1,0.2c0,0.1-0.1,0.1-0.1,0.1
		c-0.1,0-0.1,0.1-0.2,0.1c-0.2,0-0.3-0.1-0.3-0.4c-0.1-0.3-0.1-0.5-0.1-0.8c0-0.3,0-0.7,0.1-1c0.1-0.3,0.2-0.8,0.3-1.3h-1
		c-0.5,1.9-0.8,3-0.9,3.2c-0.1,0.2-0.2,0.2-0.3,0.2c-0.1,0-0.1,0-0.2-0.1C303.7,288.8,303.7,288.7,303.7,288.7L303.7,288.7z"/>
	<g>
		<path class="st2" d="M340.4,284.4c0,0.5-0.1,0.8-0.4,1.1c-0.2,0.3-0.7,0.6-1.3,1c-0.7,0.4-1.2,0.8-1.5,1.1
			c-0.1,0.1-0.2,0.3-0.3,0.5h3.4v0.8H336v0c0-0.7,0.2-1.2,0.5-1.6c0.3-0.4,1-0.9,1.9-1.4c0.4-0.2,0.7-0.5,0.9-0.7
			c0.2-0.2,0.2-0.5,0.2-0.8c0-0.3-0.1-0.6-0.4-0.8c-0.2-0.2-0.5-0.3-0.9-0.3c-0.4,0-0.7,0.1-0.9,0.4c-0.2,0.3-0.3,0.7-0.4,1.1h-0.8
			c0-0.7,0.2-1.2,0.6-1.6c0.4-0.4,0.9-0.6,1.6-0.6c0.6,0,1.1,0.2,1.4,0.5C340.2,283.4,340.4,283.8,340.4,284.4z"/>
	</g>
	<path class="st3" d="M342.1,288.7c0,0,0-0.1,0-0.1c0.2-0.4,0.3-0.7,0.5-1c0.1-0.3,0.3-0.7,0.4-1s0.2-0.7,0.3-1h-0.6
		c-0.2,0-0.4,0.1-0.6,0.2c-0.2,0.1-0.3,0.3-0.5,0.5c0,0,0,0-0.1,0h-0.1c-0.1,0-0.1,0-0.1-0.1c0,0,0,0,0-0.1c0.2-0.3,0.4-0.6,0.6-0.8
		c0.2-0.2,0.5-0.3,0.8-0.3h3.3c0.1,0,0.1,0,0.2,0.1c0,0,0.1,0.1,0.1,0.2c0,0.1,0,0.2-0.1,0.2c-0.1,0.1-0.1,0.1-0.2,0.1h-1.1
		c-0.1,0.5-0.2,0.9-0.2,1.4c0,0.6,0.1,1.1,0.3,1.6c0,0,0,0.1,0,0.1c0,0.1,0,0.1-0.1,0.2c0,0.1-0.1,0.1-0.1,0.1
		c-0.1,0-0.1,0.1-0.2,0.1c-0.2,0-0.3-0.1-0.3-0.4c-0.1-0.3-0.1-0.5-0.1-0.8c0-0.3,0-0.7,0.1-1c0.1-0.3,0.2-0.8,0.3-1.3h-1
		c-0.5,1.9-0.8,3-0.9,3.2c-0.1,0.2-0.2,0.2-0.3,0.2c-0.1,0-0.1,0-0.2-0.1C342.1,288.8,342.1,288.7,342.1,288.7L342.1,288.7z"/>
	<path class="st3" d="M240.5,299.8c0,0-0.1,0-0.1-0.1c0,0-0.1-0.1-0.1-0.1c0,0,0-0.1,0.1-0.1c0,0,0.1-0.1,0.1-0.1h7.3
		c-0.2-0.2-0.5-0.4-0.6-0.6c-0.2-0.2-0.3-0.5-0.5-0.7c-0.1-0.3-0.2-0.5-0.3-0.8c0-0.1,0-0.1,0.1-0.1h0.2c0,0,0,0,0.1,0s0,0,0,0.1
		c0.1,0.3,0.1,0.5,0.2,0.8s0.3,0.5,0.4,0.7c0.2,0.2,0.4,0.4,0.6,0.5c0.2,0.1,0.5,0.3,0.7,0.4c0,0,0.1,0.1,0.1,0.1
		c0,0.1,0,0.1-0.1,0.1c-0.3,0.1-0.6,0.3-0.9,0.5c-0.3,0.2-0.5,0.5-0.7,0.8c-0.2,0.3-0.3,0.6-0.4,1c0,0,0,0,0,0.1s0,0-0.1,0h-0.2
		c-0.1,0-0.1,0-0.1-0.1c0.1-0.4,0.2-0.9,0.5-1.2c0.2-0.4,0.5-0.7,0.9-1H240.5L240.5,299.8z"/>
	<g>
	</g>
	<path class="st3" d="M254.5,302.1c-0.3,0-0.5-0.1-0.7-0.3c-0.2-0.2-0.3-0.5-0.4-0.8c-0.1-0.3-0.1-0.6-0.1-0.9v0c0-0.3,0-0.6,0.1-1
		c0.1-0.3,0.2-0.7,0.3-1c0.1-0.3,0.2-0.6,0.4-0.9c0.1-0.2,0.2-0.4,0.4-0.6s0.3-0.4,0.5-0.7c0.2-0.2,0.4-0.4,0.6-0.5
		c0.2-0.1,0.4-0.2,0.6-0.2h0c0.2,0,0.4,0.1,0.6,0.2c0.2,0.1,0.3,0.3,0.4,0.5c0.1,0.2,0.1,0.4,0.2,0.6c0,0.2,0.1,0.4,0.1,0.7
		c0,0.5-0.1,1-0.2,1.5c-0.1,0.5-0.3,1-0.5,1.5c-0.1,0.2-0.2,0.4-0.4,0.6c-0.2,0.2-0.3,0.5-0.5,0.6c-0.2,0.2-0.4,0.4-0.6,0.5
		C255,302.1,254.8,302.1,254.5,302.1L254.5,302.1L254.5,302.1z M254.6,301.9c0.2,0,0.4-0.1,0.6-0.3c0.2-0.2,0.4-0.5,0.5-0.8
		c0.1-0.3,0.3-0.7,0.4-1c0.1-0.3,0.2-0.6,0.2-0.9h-2c-0.1,0.4-0.2,0.7-0.2,1c-0.1,0.3-0.1,0.6-0.1,0.9
		C254.1,301.5,254.2,301.9,254.6,301.9L254.6,301.9z M254.4,298.5h2c0.1-0.3,0.1-0.5,0.2-0.7c0-0.2,0.1-0.4,0.1-0.6
		c0-0.2,0-0.4,0-0.6c0-0.8-0.2-1.1-0.5-1.1c-0.4,0-0.8,0.3-1.1,1C254.9,297.1,254.6,297.8,254.4,298.5L254.4,298.5z"/>
	<g>
		<path class="st2" d="M260.9,298.2h5v0.7h-5V298.2z M260.9,300.2h5v0.7h-5V300.2z"/>
	</g>
	<g>
	</g>
	<path class="st3" d="M270.4,302.1c-0.4,0-0.6-0.1-0.8-0.4c-0.2-0.3-0.2-0.6-0.2-1c0-0.3,0-0.5,0.1-0.7c0-0.2,0.1-0.5,0.2-0.7
		c0.1-0.3,0.2-0.5,0.3-0.7c0.1-0.2,0.3-0.4,0.4-0.6c0,0,0.1-0.1,0.1-0.1c0,0,0.1,0,0.1,0c0,0,0,0.1,0,0.1c0,0,0,0.1,0,0.1
		c-0.6,0.8-0.9,1.5-0.9,2.2c0,0.3,0.1,0.5,0.2,0.8c0.1,0.2,0.3,0.3,0.6,0.3c0.2,0,0.5-0.1,0.7-0.2c0.2-0.1,0.4-0.3,0.5-0.5
		c0-0.1,0-0.3,0.1-0.5c0-0.2,0.1-0.4,0.2-0.6c0.1-0.2,0.2-0.3,0.3-0.3c0.1,0,0.2,0.1,0.2,0.3c0,0.1,0,0.2-0.1,0.4
		c0,0.2-0.1,0.3-0.1,0.4c-0.1,0.1-0.1,0.3-0.2,0.4c0.1,0.5,0.3,0.7,0.7,0.7c0.2,0,0.4-0.1,0.7-0.2c0.2-0.1,0.4-0.3,0.6-0.5
		c0.2-0.2,0.3-0.4,0.4-0.7c0.1-0.2,0.1-0.5,0.1-0.7c0-0.2,0-0.3-0.1-0.5c-0.1-0.1-0.1-0.2-0.2-0.3c-0.1-0.1-0.1-0.2-0.1-0.3
		c0-0.1,0.1-0.2,0.2-0.3c0.1-0.1,0.2-0.2,0.3-0.2c0.2,0,0.3,0.1,0.3,0.2c0.1,0.1,0.1,0.3,0.1,0.5c0,0.3-0.1,0.7-0.2,1.1
		c-0.1,0.4-0.3,0.8-0.4,1.1c-0.2,0.4-0.5,0.7-0.8,1c-0.3,0.3-0.7,0.4-1,0.4c-0.3,0-0.5-0.1-0.6-0.2c-0.1-0.2-0.2-0.4-0.3-0.6
		c-0.2,0.3-0.4,0.5-0.6,0.6C270.9,302.1,270.6,302.1,270.4,302.1L270.4,302.1z"/>
	<g>
	</g>
	<path class="st3" d="M279.6,299.6c0-0.1,0-0.2,0.1-0.3c0-0.1,0.1-0.1,0.2-0.2c0.1,0,0.2-0.1,0.3-0.1c0.1,0,0.2,0,0.3,0.1
		c0.1,0.1,0.2,0.1,0.2,0.2c0,0.1,0.1,0.2,0.1,0.3c0,0.1-0.1,0.3-0.2,0.4c-0.1,0.1-0.2,0.2-0.4,0.2c-0.1,0-0.3-0.1-0.4-0.2
		C279.7,299.9,279.6,299.8,279.6,299.6L279.6,299.6z"/>
	<g>
		<path class="st2" d="M287.1,295.8h-2.4v-0.4v-0.4h5.8v0.4v0.4h-2.4v6.3h-0.5h-0.5V295.8z"/>
		<path class="st2" d="M294,294.9h1.9v0.7h-1.1v7.7h1.1v0.7H294V294.9z"/>
		<path class="st2" d="M296.5,298.8h2.4v0.9h-2.4V298.8z"/>
		<path class="st2" d="M301.5,304h-1.9v-0.7h1.1v-7.7h-1.1v-0.7h1.9V304z"/>
	</g>
	<path class="st1" d="M200.2,276.2V19.4 M341.2,276.2V19.4 M200.2,276.2h2.6 M200.2,250.5h2.6 M200.2,224.9h2.6 M200.2,199.2h2.6
		 M200.2,173.5h2.6 M200.2,147.8h2.6 M200.2,122.1h2.6 M200.2,96.5h2.6 M200.2,70.8h2.6 M200.2,45.1h2.6 M200.2,19.4h2.6
		 M341.2,276.2h-2.6 M341.2,250.5h-2.6 M341.2,224.9h-2.6 M341.2,199.2h-2.6 M341.2,173.5h-2.6 M341.2,147.8h-2.6 M341.2,122.1h-2.6
		 M341.2,96.5h-2.6 M341.2,70.8h-2.6 M341.2,45.1h-2.6 M341.2,19.4h-2.6"/>
	<g>
		<path class="st2" d="M192.9,279.1c-0.4-0.6-0.6-1.4-0.6-2.4s0.2-1.8,0.6-2.4c0.4-0.6,0.9-0.8,1.6-0.8c0.7,0,1.2,0.3,1.6,0.8
			c0.4,0.6,0.6,1.4,0.6,2.4s-0.2,1.8-0.6,2.4c-0.4,0.6-0.9,0.8-1.6,0.8C193.8,280,193.3,279.7,192.9,279.1z M195.5,278.6
			c0.2-0.4,0.3-1.1,0.3-1.9c0-0.8-0.1-1.5-0.3-1.9c-0.2-0.4-0.6-0.6-1-0.6c-0.4,0-0.8,0.2-1,0.6c-0.2,0.4-0.3,1.1-0.3,1.9
			c0,0.8,0.1,1.5,0.3,1.9c0.2,0.4,0.5,0.6,1,0.6C194.9,279.3,195.3,279.1,195.5,278.6z"/>
	</g>
	<g>
		<path class="st2" d="M185.7,253.5c-0.4-0.6-0.6-1.4-0.6-2.4s0.2-1.8,0.6-2.4c0.4-0.6,0.9-0.8,1.6-0.8c0.7,0,1.2,0.3,1.6,0.8
			c0.4,0.6,0.6,1.4,0.6,2.4s-0.2,1.8-0.6,2.4c-0.4,0.6-0.9,0.8-1.6,0.8C186.6,254.3,186.1,254,185.7,253.5z M188.3,253
			c0.2-0.4,0.3-1.1,0.3-1.9c0-0.8-0.1-1.5-0.3-1.9c-0.2-0.4-0.6-0.6-1-0.6c-0.4,0-0.8,0.2-1,0.6c-0.2,0.4-0.3,1.1-0.3,1.9
			c0,0.8,0.1,1.5,0.3,1.9c0.2,0.4,0.5,0.6,1,0.6C187.7,253.6,188.1,253.4,188.3,253z"/>
		<path class="st2" d="M190.6,253.2h0.9v1h-0.9V253.2z"/>
	</g>
	<g>
		<path class="st2" d="M196.1,249.7c0,0.5-0.1,0.8-0.4,1.1c-0.2,0.3-0.7,0.6-1.3,1c-0.7,0.4-1.2,0.8-1.5,1.1
			c-0.1,0.1-0.2,0.3-0.3,0.5h3.4v0.8h-4.3v0c0-0.7,0.2-1.2,0.5-1.6c0.3-0.4,1-0.9,1.9-1.4c0.4-0.2,0.7-0.5,0.9-0.7
			c0.2-0.2,0.2-0.5,0.2-0.8c0-0.3-0.1-0.6-0.4-0.8c-0.2-0.2-0.5-0.3-0.9-0.3c-0.4,0-0.7,0.1-0.9,0.4c-0.2,0.3-0.3,0.7-0.4,1.1H192
			c0-0.7,0.2-1.2,0.6-1.6c0.4-0.4,0.9-0.6,1.6-0.6c0.6,0,1.1,0.2,1.4,0.5C195.9,248.7,196.1,249.1,196.1,249.7z"/>
	</g>
	<g>
		<path class="st2" d="M185.7,227.8c-0.4-0.6-0.6-1.4-0.6-2.4s0.2-1.8,0.6-2.4c0.4-0.6,0.9-0.8,1.6-0.8c0.7,0,1.2,0.3,1.6,0.8
			c0.4,0.6,0.6,1.4,0.6,2.4s-0.2,1.8-0.6,2.4c-0.4,0.6-0.9,0.8-1.6,0.8C186.6,228.6,186.1,228.3,185.7,227.8z M188.3,227.3
			c0.2-0.4,0.3-1.1,0.3-1.9c0-0.8-0.1-1.5-0.3-1.9c-0.2-0.4-0.6-0.6-1-0.6c-0.4,0-0.8,0.2-1,0.6c-0.2,0.4-0.3,1.1-0.3,1.9
			c0,0.8,0.1,1.5,0.3,1.9c0.2,0.4,0.5,0.6,1,0.6C187.7,227.9,188.1,227.7,188.3,227.3z"/>
		<path class="st2" d="M190.6,227.5h0.9v1h-0.9V227.5z"/>
	</g>
	<g>
		<path class="st2" d="M191.8,226.9v-0.4v-0.4l2.9-4.1h0.3h0.3v4.1h0.9v0.7h-0.9v1.5h-0.8v-1.5H191.8z M194.6,226.3v-2.9l-2,2.8
			l0,0.1H194.6z"/>
	</g>
	<g>
		<path class="st2" d="M185.7,202.1c-0.4-0.6-0.6-1.4-0.6-2.4s0.2-1.8,0.6-2.4c0.4-0.6,0.9-0.8,1.6-0.8c0.7,0,1.2,0.3,1.6,0.8
			c0.4,0.6,0.6,1.4,0.6,2.4s-0.2,1.8-0.6,2.4c-0.4,0.6-0.9,0.8-1.6,0.8C186.6,202.9,186.1,202.7,185.7,202.1z M188.3,201.6
			c0.2-0.4,0.3-1.1,0.3-1.9c0-0.8-0.1-1.5-0.3-1.9c-0.2-0.4-0.6-0.6-1-0.6c-0.4,0-0.8,0.2-1,0.6c-0.2,0.4-0.3,1.1-0.3,1.9
			c0,0.8,0.1,1.5,0.3,1.9c0.2,0.4,0.5,0.6,1,0.6C187.7,202.2,188.1,202,188.3,201.6z"/>
		<path class="st2" d="M190.6,201.8h0.9v1h-0.9V201.8z"/>
	</g>
	<g>
		<path class="st2" d="M194.2,196.4c0.6,0,1,0.2,1.3,0.5c0.3,0.3,0.5,0.7,0.5,1.2h-0.8c0-0.3-0.1-0.6-0.3-0.7s-0.4-0.3-0.8-0.3
			c-0.5,0-0.9,0.2-1.1,0.7c-0.2,0.4-0.4,0.9-0.4,1.6c0.4-0.5,0.9-0.8,1.5-0.8c0.6,0,1.1,0.2,1.4,0.6c0.4,0.4,0.5,0.9,0.5,1.5
			s-0.2,1.1-0.6,1.5c-0.4,0.4-0.9,0.6-1.6,0.6c-0.7,0-1.2-0.3-1.6-0.8c-0.4-0.5-0.6-1.3-0.6-2.3c0-1.1,0.2-1.9,0.6-2.5
			C192.9,196.7,193.5,196.4,194.2,196.4z M192.8,200.8c0,0.4,0.1,0.7,0.4,1c0.2,0.3,0.5,0.4,0.9,0.4c0.4,0,0.7-0.1,0.9-0.4
			c0.2-0.3,0.4-0.6,0.4-1s-0.1-0.7-0.4-1c-0.2-0.3-0.5-0.4-0.9-0.4c-0.4,0-0.7,0.1-0.9,0.4C192.9,200.1,192.8,200.4,192.8,200.8z"/>
	</g>
	<g>
		<path class="st2" d="M185.7,176.4c-0.4-0.6-0.6-1.4-0.6-2.4s0.2-1.8,0.6-2.4c0.4-0.6,0.9-0.8,1.6-0.8c0.7,0,1.2,0.3,1.6,0.8
			c0.4,0.6,0.6,1.4,0.6,2.4s-0.2,1.8-0.6,2.4c-0.4,0.6-0.9,0.8-1.6,0.8C186.6,177.3,186.1,177,185.7,176.4z M188.3,175.9
			c0.2-0.4,0.3-1.1,0.3-1.9c0-0.8-0.1-1.5-0.3-1.9c-0.2-0.4-0.6-0.6-1-0.6c-0.4,0-0.8,0.2-1,0.6c-0.2,0.4-0.3,1.1-0.3,1.9
			c0,0.8,0.1,1.5,0.3,1.9c0.2,0.4,0.5,0.6,1,0.6C187.7,176.6,188.1,176.3,188.3,175.9z"/>
		<path class="st2" d="M190.6,176.1h0.9v1h-0.9V176.1z"/>
	</g>
	<g>
		<path class="st2" d="M195.1,173.8c0.2,0.1,0.3,0.2,0.5,0.3c0.4,0.3,0.6,0.7,0.6,1.3c0,0.6-0.2,1.1-0.6,1.4s-0.9,0.5-1.6,0.5
			s-1.2-0.2-1.6-0.5c-0.4-0.4-0.6-0.8-0.6-1.4c0-0.5,0.2-0.9,0.6-1.3c0.1-0.1,0.3-0.2,0.5-0.3c-0.1-0.1-0.2-0.1-0.3-0.2
			c-0.4-0.3-0.5-0.6-0.5-1.1c0-0.5,0.2-0.9,0.5-1.2c0.4-0.3,0.8-0.5,1.4-0.5s1,0.2,1.4,0.5c0.4,0.3,0.5,0.7,0.5,1.2
			c0,0.5-0.2,0.8-0.5,1.1C195.4,173.6,195.3,173.7,195.1,173.8z M194.1,174.1c-0.4,0-0.7,0.1-0.9,0.3c-0.2,0.2-0.4,0.5-0.4,0.9
			c0,0.4,0.1,0.7,0.4,0.9c0.2,0.2,0.6,0.3,0.9,0.3s0.7-0.1,0.9-0.3s0.4-0.5,0.4-0.9c0-0.4-0.1-0.7-0.4-0.9
			C194.8,174.2,194.4,174.1,194.1,174.1z M194.1,173.4c0.3,0,0.6-0.1,0.8-0.3c0.2-0.2,0.3-0.4,0.3-0.7s-0.1-0.5-0.3-0.7
			s-0.5-0.3-0.8-0.3s-0.6,0.1-0.8,0.3s-0.3,0.4-0.3,0.7s0.1,0.5,0.3,0.7C193.5,173.3,193.7,173.4,194.1,173.4z"/>
	</g>
	<g>
		<path class="st2" d="M194.4,146.9h-1.5v-0.6c0.4,0,0.8-0.1,1.1-0.3c0.3-0.2,0.5-0.5,0.6-0.9h0.6v6.3h-0.4h-0.4V146.9z"/>
	</g>
	<g>
		<path class="st2" d="M187.2,121.2h-1.5v-0.6c0.4,0,0.8-0.1,1.1-0.3c0.3-0.2,0.5-0.5,0.6-0.9h0.6v6.3h-0.4h-0.4V121.2z"/>
		<path class="st2" d="M190.6,124.8h0.9v1h-0.9V124.8z"/>
	</g>
	<g>
		<path class="st2" d="M196.1,121.3c0,0.5-0.1,0.8-0.4,1.1c-0.2,0.3-0.7,0.6-1.3,1c-0.7,0.4-1.2,0.8-1.5,1.1
			c-0.1,0.1-0.2,0.3-0.3,0.5h3.4v0.8h-4.3v0c0-0.7,0.2-1.2,0.5-1.6c0.3-0.4,1-0.9,1.9-1.4c0.4-0.2,0.7-0.5,0.9-0.7s0.2-0.5,0.2-0.8
			c0-0.3-0.1-0.6-0.4-0.8s-0.5-0.3-0.9-0.3c-0.4,0-0.7,0.1-0.9,0.4c-0.2,0.3-0.3,0.6-0.4,1.1H192c0-0.7,0.2-1.2,0.6-1.6
			c0.4-0.4,0.9-0.6,1.6-0.6c0.6,0,1.1,0.2,1.4,0.5C195.9,120.3,196.1,120.7,196.1,121.3z"/>
	</g>
	<g>
		<path class="st2" d="M187.2,95.6h-1.5v-0.6c0.4,0,0.8-0.1,1.1-0.3c0.3-0.2,0.5-0.5,0.6-0.9h0.6v6.3h-0.4h-0.4V95.6z"/>
		<path class="st2" d="M190.6,99.1h0.9v1h-0.9V99.1z"/>
	</g>
	<g>
		<path class="st2" d="M191.8,98.5v-0.4v-0.4l2.9-4.1h0.3h0.3v4.1h0.9v0.7h-0.9v1.5h-0.8v-1.5H191.8z M194.6,97.9V95l-2,2.8l0,0.1
			H194.6z"/>
	</g>
	<g>
		<path class="st2" d="M187.2,69.9h-1.5v-0.6c0.4,0,0.8-0.1,1.1-0.3c0.3-0.2,0.5-0.5,0.6-0.9h0.6v6.3h-0.4h-0.4V69.9z"/>
		<path class="st2" d="M190.6,73.4h0.9v1h-0.9V73.4z"/>
	</g>
	<g>
		<path class="st2" d="M194.2,68c0.6,0,1,0.2,1.3,0.5c0.3,0.3,0.5,0.7,0.5,1.2h-0.8c0-0.3-0.1-0.6-0.3-0.7s-0.4-0.3-0.8-0.3
			c-0.5,0-0.9,0.2-1.1,0.7c-0.2,0.4-0.4,0.9-0.4,1.6c0.4-0.5,0.9-0.8,1.5-0.8c0.6,0,1.1,0.2,1.4,0.6c0.4,0.4,0.5,0.9,0.5,1.5
			s-0.2,1.1-0.6,1.5c-0.4,0.4-0.9,0.6-1.6,0.6c-0.7,0-1.2-0.3-1.6-0.8c-0.4-0.5-0.6-1.3-0.6-2.3c0-1.1,0.2-1.9,0.6-2.5
			C192.9,68.3,193.5,68,194.2,68z M192.8,72.4c0,0.4,0.1,0.7,0.4,1c0.2,0.3,0.5,0.4,0.9,0.4c0.4,0,0.7-0.1,0.9-0.4
			c0.2-0.3,0.4-0.6,0.4-1s-0.1-0.7-0.4-1c-0.2-0.3-0.5-0.4-0.9-0.4c-0.4,0-0.7,0.1-0.9,0.4C192.9,71.7,192.8,72,192.8,72.4z"/>
	</g>
	<g>
		<path class="st2" d="M187.2,44.2h-1.5v-0.6c0.4,0,0.8-0.1,1.1-0.3c0.3-0.2,0.5-0.5,0.6-0.9h0.6v6.3h-0.4h-0.4V44.2z"/>
		<path class="st2" d="M190.6,47.7h0.9v1h-0.9V47.7z"/>
	</g>
	<g>
		<path class="st2" d="M195.1,45.3c0.2,0.1,0.3,0.2,0.5,0.3c0.4,0.3,0.6,0.7,0.6,1.3c0,0.6-0.2,1.1-0.6,1.4s-0.9,0.5-1.6,0.5
			s-1.2-0.2-1.6-0.5c-0.4-0.4-0.6-0.8-0.6-1.4c0-0.5,0.2-0.9,0.6-1.3c0.1-0.1,0.3-0.2,0.5-0.3c-0.1-0.1-0.2-0.1-0.3-0.2
			c-0.4-0.3-0.5-0.6-0.5-1.1c0-0.5,0.2-0.9,0.5-1.2c0.4-0.3,0.8-0.5,1.4-0.5s1,0.2,1.4,0.5c0.4,0.3,0.5,0.7,0.5,1.2
			c0,0.5-0.2,0.8-0.5,1.1C195.4,45.2,195.3,45.3,195.1,45.3z M194.1,45.7c-0.4,0-0.7,0.1-0.9,0.3c-0.2,0.2-0.4,0.5-0.4,0.9
			c0,0.4,0.1,0.7,0.4,0.9c0.2,0.2,0.6,0.3,0.9,0.3s0.7-0.1,0.9-0.3s0.4-0.5,0.4-0.9c0-0.4-0.1-0.7-0.4-0.9
			C194.8,45.8,194.4,45.7,194.1,45.7z M194.1,45c0.3,0,0.6-0.1,0.8-0.3c0.2-0.2,0.3-0.4,0.3-0.7s-0.1-0.5-0.3-0.7s-0.5-0.3-0.8-0.3
			s-0.6,0.1-0.8,0.3S193,43.8,193,44s0.1,0.5,0.3,0.7C193.5,44.9,193.7,45,194.1,45z"/>
	</g>
	<g>
		<path class="st2" d="M196.6,18.5c0,0.5-0.1,0.8-0.4,1.1c-0.2,0.3-0.7,0.6-1.3,1c-0.7,0.4-1.2,0.8-1.5,1.1
			c-0.1,0.1-0.2,0.3-0.3,0.5h3.4V23h-4.3v0c0-0.7,0.2-1.2,0.5-1.6c0.3-0.4,1-0.9,1.9-1.4c0.4-0.2,0.7-0.5,0.9-0.7s0.2-0.5,0.2-0.8
			c0-0.3-0.1-0.6-0.4-0.8s-0.5-0.3-0.9-0.3c-0.4,0-0.7,0.1-0.9,0.4c-0.2,0.3-0.3,0.6-0.4,1.1h-0.8c0-0.7,0.2-1.2,0.6-1.6
			c0.4-0.4,0.9-0.6,1.6-0.6c0.6,0,1.1,0.2,1.4,0.5C196.4,17.6,196.6,18,196.6,18.5z"/>
	</g>
	<g>
		<path class="st4" d="M196.9,4.4v7.2h-1.3V4.4H196.9z"/>
		<path class="st4" d="M198.3,11.6V4.5h1.5v2.7h2.8V4.5h1.5v7.1h-1.5V8.4h-2.8v3.2H198.3z"/>
	</g>
	<g>
		<path class="st4" d="M207.2,13.8c0.2,0,0.4-0.1,0.4-0.1c0.2-0.1,0.2-0.2,0.2-0.3c0-0.2-0.1-0.3-0.2-0.4c-0.1-0.1-0.3-0.1-0.5-0.1
			c-0.3,0-0.5,0.1-0.6,0.2c-0.1,0.1-0.1,0.2-0.2,0.4h-1.1c0-0.4,0.1-0.7,0.3-0.9c0.3-0.4,0.8-0.6,1.5-0.6c0.5,0,0.9,0.1,1.2,0.3
			c0.4,0.2,0.5,0.5,0.5,1v1.9c0,0.1,0,0.3,0,0.5c0,0.1,0,0.2,0.1,0.3s0.1,0.1,0.2,0.1v0.2H208c0-0.1-0.1-0.2-0.1-0.2s0-0.2,0-0.3
			c-0.2,0.2-0.3,0.3-0.5,0.4c-0.2,0.1-0.5,0.2-0.8,0.2c-0.4,0-0.7-0.1-1-0.3s-0.4-0.5-0.4-0.9c0-0.5,0.2-0.9,0.6-1.1
			c0.2-0.1,0.5-0.2,1-0.3L207.2,13.8z M207.9,14.4c-0.1,0-0.1,0.1-0.2,0.1c-0.1,0-0.2,0.1-0.3,0.1l-0.3,0c-0.2,0-0.4,0.1-0.5,0.2
			c-0.2,0.1-0.3,0.3-0.3,0.5c0,0.2,0.1,0.3,0.2,0.4c0.1,0.1,0.2,0.1,0.4,0.1c0.2,0,0.5-0.1,0.7-0.2c0.2-0.1,0.3-0.4,0.3-0.8V14.4z"
			/>
	</g>
	<g>
		<path class="st4" d="M210.8,6.2c0.2-0.5,0.5-1,0.7-1.4l0.3-0.5l0.8,0c-0.4,0.8-0.8,1.5-0.9,1.9c-0.3,0.8-0.4,1.7-0.4,2.7
			c0,0.6,0.1,1.2,0.2,1.7c0.2,0.8,0.4,1.6,0.8,2.3l0.3,0.5h-0.8c-0.5-0.7-0.9-1.4-1.2-2.1c-0.3-0.8-0.5-1.6-0.5-2.4
			C210.1,8.1,210.3,7.2,210.8,6.2z"/>
	</g>
	<path d="M214.6,11.7c-0.4,0-0.6-0.1-0.8-0.4c-0.2-0.3-0.2-0.6-0.2-1c0-0.3,0-0.5,0.1-0.7c0-0.2,0.1-0.5,0.2-0.7
		c0.1-0.3,0.2-0.5,0.3-0.7c0.1-0.2,0.3-0.4,0.4-0.6c0,0,0.1-0.1,0.1-0.1c0.4,0,0.7,0,0.7,0c0,0,0,0.1,0,0.1c0,0,0,0.1,0,0.1
		c-0.6,0.8-0.9,1.5-0.9,2.2c0,0.3,0.1,0.5,0.2,0.8c0.1,0.2,0.2,0.3,0.2,0.3c0.1,0,0.3-0.1,0.5-0.2c0.2-0.1,0.4-0.3,0.5-0.5
		c0-0.1,0-0.3,0.1-0.5c0-0.2,0.1-0.4,0.2-0.6c0.1-0.2,0.2-0.3,0.3-0.3c0.5,0,0.8,0.1,0.8,0.3c0,0.1,0,0.2-0.1,0.4
		c0,0.2-0.1,0.3-0.1,0.4c-0.1,0.1-0.1,0.3-0.2,0.4c0.1,0.5,0.1,0.7,0.1,0.7c0.2,0,0.4-0.1,0.6-0.2c0.2-0.1,0.4-0.3,0.6-0.5
		c0.2-0.2,0.3-0.4,0.4-0.7c0.1-0.2,0.1-0.5,0.1-0.7c0-0.2,0-0.3-0.1-0.5c-0.1-0.1-0.1-0.2-0.2-0.3s-0.1-0.2-0.1-0.3
		c0-0.1,0.1-0.2,0.2-0.3c0.1-0.1,0.2-0.2,0.3-0.2c0.6,0,0.9,0.1,0.9,0.2c0.1,0.1,0.1,0.3,0.1,0.5c0,0.3-0.1,0.7-0.2,1.1
		c-0.1,0.4-0.3,0.8-0.4,1.1c-0.2,0.4-0.5,0.7-0.8,1c-0.3,0.3-0.9,0.4-1.6,0.4c-0.3,0-0.4-0.1-0.6-0.2c-0.1-0.2-0.2-0.2-0.2-0.2
		s-0.1,0.1-0.2,0.2C215.6,11.7,215.2,11.7,214.6,11.7L214.6,11.7z"/>
	<g>
		<path class="st4" d="M222.9,6.3c0.4,0.9,0.6,1.7,0.6,2.6c0,1-0.2,2-0.7,3c-0.3,0.6-0.5,1-0.7,1.3l-0.3,0.5h-1
			c0.4-0.8,0.7-1.4,0.9-1.9c0.3-0.8,0.4-1.7,0.4-2.7c0-0.6-0.1-1.2-0.2-1.8c-0.2-0.8-0.4-1.6-0.8-2.3l-0.3-0.5h1
			C222.3,5.1,222.6,5.7,222.9,6.3z"/>
		<path class="st4" d="M226,4.4v7.2h-1.3V4.4H226z"/>
		<path class="st4" d="M232.1,8.4c0.3,0,0.4-0.1,0.6-0.1c0.2-0.1,0.3-0.2,0.3-0.4c0-0.2-0.1-0.4-0.2-0.4c-0.2-0.1-0.4-0.1-0.7-0.1
			c-0.3,0-0.6,0.1-0.7,0.2c-0.1,0.1-0.2,0.3-0.2,0.5h-1.3c0-0.5,0.2-0.8,0.4-1.1c0.4-0.5,1-0.7,1.9-0.7c0.6,0,1.1,0.1,1.5,0.3
			c0.5,0.2,0.7,0.7,0.7,1.3v2.4c0,0.2,0,0.4,0,0.6c0,0.2,0,0.3,0.1,0.4c0,0.1,0.1,0.1,0.2,0.2v0.2h-1.5c0-0.1-0.1-0.2-0.1-0.3
			c0-0.1,0-0.2,0-0.3c-0.2,0.2-0.4,0.4-0.7,0.5c-0.3,0.2-0.6,0.3-1,0.3c-0.5,0-0.9-0.1-1.2-0.4c-0.3-0.3-0.5-0.7-0.5-1.2
			c0-0.6,0.3-1.1,0.8-1.4c0.3-0.2,0.7-0.3,1.2-0.3L232.1,8.4z M233,9.1c-0.1,0.1-0.2,0.1-0.3,0.1c-0.1,0-0.2,0.1-0.4,0.1L232,9.3
			c-0.3,0.1-0.5,0.1-0.6,0.2c-0.2,0.1-0.3,0.3-0.3,0.6c0,0.2,0.1,0.4,0.2,0.5c0.1,0.1,0.3,0.2,0.5,0.2c0.3,0,0.6-0.1,0.8-0.3
			c0.3-0.2,0.4-0.5,0.4-1V9.1z"/>
		<path class="st4" d="M239.8,6.6c0.3,0.3,0.5,0.8,0.5,1.4v3.5h-1.4V8.4c0-0.3,0-0.5-0.1-0.6c-0.1-0.3-0.4-0.4-0.8-0.4
			c-0.5,0-0.8,0.2-1,0.6C237,8.2,237,8.4,237,8.8v2.9h-1.4V6.4h1.3v0.8c0.2-0.3,0.3-0.5,0.5-0.6c0.3-0.2,0.6-0.3,1.1-0.3
			C239,6.2,239.5,6.4,239.8,6.6z"/>
		<path class="st4" d="M244.4,6.4c0.2,0.1,0.5,0.3,0.6,0.6V4.5h1.4v7.1h-1.3v-0.7c-0.2,0.3-0.4,0.5-0.7,0.7
			c-0.3,0.1-0.6,0.2-0.9,0.2c-0.6,0-1.1-0.2-1.6-0.7c-0.4-0.5-0.6-1.1-0.6-1.9c0-0.9,0.2-1.6,0.6-2.1s1-0.8,1.7-0.8
			C243.9,6.2,244.2,6.3,244.4,6.4z M244.7,10.2c0.2-0.3,0.3-0.7,0.3-1.1c0-0.6-0.2-1.1-0.5-1.4c-0.2-0.2-0.4-0.3-0.7-0.3
			c-0.4,0-0.7,0.2-0.9,0.5c-0.2,0.3-0.3,0.7-0.3,1.1c0,0.5,0.1,0.9,0.3,1.2c0.2,0.3,0.5,0.4,0.9,0.4S244.5,10.5,244.7,10.2z"/>
	</g>
	<g>
		<path class="st5" d="M252.1,4.4v7.2h-1.3V4.4H252.1z"/>
		<path class="st5" d="M253.5,11.6V4.5h1.5v2.7h2.8V4.5h1.5v7.1h-1.5V8.4H255v3.2H253.5z"/>
	</g>
	<g>
		<path class="st5" d="M263,12.3c0.2,0.1,0.4,0.3,0.5,0.5v-2h1.1v5.7h-1.1v-0.6c-0.2,0.3-0.3,0.4-0.5,0.5s-0.5,0.2-0.8,0.2
			c-0.5,0-0.9-0.2-1.2-0.6c-0.3-0.4-0.5-0.9-0.5-1.5c0-0.7,0.2-1.3,0.5-1.7c0.3-0.4,0.8-0.6,1.3-0.6C262.5,12.1,262.8,12.2,263,12.3
			z M263.2,15.3c0.2-0.2,0.2-0.5,0.2-0.9c0-0.5-0.1-0.9-0.4-1.1c-0.2-0.1-0.3-0.2-0.6-0.2c-0.3,0-0.6,0.1-0.7,0.4
			c-0.2,0.2-0.2,0.5-0.2,0.9c0,0.4,0.1,0.7,0.2,0.9s0.4,0.3,0.7,0.3C262.8,15.6,263.1,15.5,263.2,15.3z"/>
	</g>
	<g>
		<path class="st5" d="M266.6,6.2c0.2-0.5,0.5-1,0.7-1.4l0.3-0.5l0.8,0c-0.4,0.8-0.8,1.5-0.9,1.9c-0.3,0.8-0.4,1.7-0.4,2.7
			c0,0.6,0.1,1.2,0.2,1.7c0.2,0.8,0.4,1.6,0.8,2.3l0.3,0.5h-0.8c-0.5-0.7-0.9-1.4-1.2-2.1c-0.3-0.8-0.5-1.6-0.5-2.4
			C265.9,8.1,266.1,7.2,266.6,6.2z"/>
		<path class="st5" d="M273,6.5c0.4,0.2,0.7,0.4,0.9,0.8c0.2,0.3,0.4,0.7,0.4,1.1c0,0.2,0.1,0.6,0,1h-3.8c0,0.5,0.2,0.9,0.6,1.1
			c0.2,0.1,0.5,0.2,0.8,0.2c0.3,0,0.6-0.1,0.8-0.2c0.1-0.1,0.2-0.2,0.3-0.4h1.4c0,0.3-0.2,0.6-0.5,1c-0.5,0.5-1.1,0.8-2,0.8
			c-0.7,0-1.3-0.2-1.9-0.6c-0.5-0.4-0.8-1.1-0.8-2.1c0-0.9,0.2-1.6,0.7-2.1c0.5-0.5,1.1-0.7,1.9-0.7C272.2,6.2,272.6,6.3,273,6.5z
			 M270.9,7.6c-0.2,0.2-0.3,0.5-0.4,0.8h2.4c0-0.4-0.1-0.6-0.4-0.8s-0.5-0.3-0.8-0.3C271.4,7.3,271.1,7.4,270.9,7.6z"/>
	</g>
	<g>
		<path class="st5" d="M274.6,7.6c0.1,0,0.1,0,0.1,0c0,0,0,0,0.1,0c0.1,0,0.2,0,0.2-0.1c0.1-0.1,0.1-0.2,0.1-0.3V2.6h1.1v4.6
			c0,0.4-0.1,0.7-0.3,0.9c-0.2,0.2-0.5,0.3-1,0.3c0,0-0.1,0-0.1,0s-0.1,0-0.2,0V7.6z M276.3,2.1h-1.1v-1h1.1V2.1z"/>
	</g>
	<path class="st5" d="M280.7,6.9c-0.2,0-0.4-0.1-0.6-0.3c-0.1-0.2-0.2-0.4-0.3-0.6c-0.1-0.2-0.1-0.5-0.1-0.7v0c0-0.3,0-0.5,0.1-0.8
		c0.1-0.3,0.1-0.6,0.2-0.8c0.1-0.3,0.2-0.5,0.3-0.7c0.1-0.1,0.2-0.3,0.3-0.5c0.1-0.2,0.3-0.4,0.4-0.5c0.1-0.2,0.3-0.3,0.5-0.4
		c0.2-0.1,0.3-0.1,0.5-0.1h0c0.6,0,0.9,0.1,1.1,0.2c0.1,0.1,0.2,0.2,0.3,0.4c0.1,0.2,0.1,0.3,0.1,0.5c0,0.2,0,0.4,0,0.5
		c0,0.4-0.1,0.8-0.2,1.2c-0.1,0.4-0.3,0.8-0.4,1.2c-0.1,0.1-0.2,0.3-0.3,0.5c-0.1,0.2-0.3,0.4-0.4,0.5c-0.1,0.2-0.3,0.3-0.5,0.4
		C281.6,6.8,281.2,6.9,280.7,6.9L280.7,6.9L280.7,6.9z M280.9,6.7c0.1,0,0.2-0.1,0.3-0.3c0.2-0.2,0.3-0.4,0.4-0.7
		c0.1-0.3,0.2-0.5,0.3-0.8c0.1-0.3,0.2-0.5,0.2-0.7h-1c-0.1,0.3-0.1,0.6-0.2,0.9c0,0.2-0.1,0.5-0.1,0.7
		C280.9,6.4,280.9,6.7,280.9,6.7L280.9,6.7z M281.2,4h1c0.1-0.2,0.1-0.4,0.1-0.6c0-0.2,0.1-0.3,0.1-0.5c0-0.2,0-0.3,0-0.5
		c0-0.6-0.1-0.9-0.4-0.9c0,0-0.1,0.3-0.3,0.8C281.5,2.8,281.3,3.4,281.2,4L281.2,4z"/>
	<g>
		<path class="st5" d="M285.9,6.3c0.4,0.9,0.6,1.7,0.6,2.6c0,1-0.2,2-0.7,3c-0.3,0.6-0.5,1-0.7,1.3l-0.3,0.5h-1
			c0.4-0.8,0.7-1.4,0.9-1.9c0.3-0.8,0.4-1.7,0.4-2.7c0-0.6-0.1-1.2-0.2-1.8c-0.2-0.8-0.4-1.6-0.8-2.3l-0.3-0.5h1
			C285.3,5.1,285.6,5.7,285.9,6.3z"/>
		<path class="st5" d="M289,4.4v7.2h-1.3V4.4H289z"/>
	</g>
	<g>
		<path class="st4" d="M296.1,6.3h1.4l0.8,3.8l0.8-3.8h1.4l-1.5,5.3h-1.4l-0.8-3.8l-0.8,3.8h-1.4L293,6.3h1.5l0.8,3.8L296.1,6.3z"/>
		<path class="st4" d="M302.7,5.7h-1.4V4.4h1.4V5.7z M301.3,6.3h1.4v5.3h-1.4V6.3z"/>
		<path class="st4" d="M303.5,7.4v-1h0.7V4.9h1.4v1.5h0.9v1h-0.9v2.8c0,0.2,0,0.4,0.1,0.4s0.2,0.1,0.5,0.1c0,0,0.1,0,0.1,0
			c0,0,0.1,0,0.1,0v1l-0.7,0c-0.7,0-1.1-0.1-1.3-0.3c-0.2-0.2-0.2-0.4-0.2-0.7V7.4H303.5z"/>
		<path class="st4" d="M311.1,6.4c0.3,0.1,0.5,0.3,0.7,0.5c0.1,0.2,0.2,0.4,0.3,0.6s0,0.5,0,1v3.1h-1.4V8.4c0-0.3,0-0.5-0.1-0.7
			c-0.1-0.2-0.4-0.4-0.7-0.4c-0.4,0-0.6,0.1-0.8,0.4c-0.2,0.2-0.3,0.6-0.3,1v2.9h-1.4V4.5h1.4V7c0.2-0.3,0.4-0.5,0.7-0.6
			c0.3-0.1,0.5-0.2,0.8-0.2C310.6,6.2,310.9,6.3,311.1,6.4z"/>
		<path class="st4" d="M321.4,4.5v1.3h-2.1v5.9h-1.5V5.8h-2.1V4.5H321.4z"/>
		<path class="st4" d="M327.1,7.2v1.3h-5.2V7.2H327.1z M327.1,9.5v1.3h-5.2V9.5H327.1z"/>
		<path class="st4" d="M331.9,5.5c0.4,0.6,0.5,1.5,0.5,2.7c0,1.2-0.2,2-0.5,2.7c-0.4,0.6-1,0.9-1.9,0.9s-1.5-0.3-1.9-0.9
			c-0.4-0.6-0.5-1.5-0.5-2.7c0-1.2,0.2-2,0.5-2.7s1-0.9,1.9-0.9S331.6,4.9,331.9,5.5z M329.2,10c0.1,0.4,0.4,0.6,0.8,0.6
			s0.7-0.2,0.8-0.6c0.1-0.4,0.2-1,0.2-1.8c0-0.8-0.1-1.5-0.2-1.9c-0.1-0.4-0.4-0.6-0.8-0.6s-0.7,0.2-0.8,0.6c-0.1,0.4-0.2,1-0.2,1.9
			C329,9,329.1,9.6,329.2,10z"/>
		<path class="st4" d="M333.5,10.2h1.5v1.4h-1.5V10.2z"/>
		<path class="st4" d="M336.2,10.2c0.2-0.5,0.7-1,1.4-1.5c0.6-0.5,1-0.8,1.2-1c0.3-0.3,0.4-0.6,0.4-1c0-0.3-0.1-0.5-0.2-0.7
			c-0.2-0.2-0.4-0.3-0.7-0.3c-0.4,0-0.7,0.2-0.9,0.5c-0.1,0.2-0.1,0.5-0.2,0.9H336c0-0.6,0.1-1.1,0.3-1.4c0.4-0.7,1-1,2-1
			c0.7,0,1.3,0.2,1.8,0.6c0.4,0.4,0.7,1,0.7,1.6c0,0.5-0.2,1-0.5,1.4c-0.2,0.3-0.5,0.6-1,0.9l-0.6,0.4c-0.3,0.2-0.6,0.4-0.7,0.5
			s-0.2,0.2-0.3,0.4h3.1v1.2h-4.8C335.9,11.1,336,10.7,336.2,10.2z"/>
		<path class="st4" d="M342.7,9.7c0.1,0.3,0.2,0.5,0.3,0.7c0.2,0.2,0.4,0.2,0.7,0.2c0.3,0,0.6-0.1,0.8-0.4s0.3-0.5,0.3-0.9
			c0-0.4-0.1-0.7-0.3-0.9s-0.4-0.4-0.8-0.4c-0.2,0-0.3,0-0.4,0.1c-0.2,0.1-0.4,0.2-0.5,0.4l-1.2-0.1l0.5-3.9h3.9v1.2h-2.9l-0.3,1.5
			c0.2-0.1,0.4-0.2,0.5-0.3c0.2-0.1,0.4-0.1,0.7-0.1c0.6,0,1.1,0.2,1.5,0.6c0.4,0.4,0.6,1,0.6,1.7c0,0.6-0.2,1.2-0.6,1.7
			c-0.4,0.5-1,0.8-1.9,0.8c-0.7,0-1.2-0.2-1.6-0.5c-0.4-0.4-0.7-0.9-0.7-1.5H342.7z"/>
	</g>
	<polyline class="st9" points="200.2,266 203,265.6 208.7,264.6 214.3,263.5 219.9,262 225.6,260.3 231.2,258 236.9,255 
		242.5,250.8 248.1,244.5 253.8,234.2 259.4,214.2 265.1,161.9 270.7,19.4 276.3,161.9 282,214.2 287.6,234.2 293.3,244.5 
		298.9,250.8 304.5,255 310.2,258 315.8,260.3 321.5,262 327.1,263.5 332.7,264.6 338.4,265.6 341.2,266 	"/>
	<polyline class="st10" points="200.2,19.4 201.6,46.6 203,94.6 204.4,133.4 205.8,160.6 207.3,179.7 208.7,193.5 210.1,203.7 
		211.5,211.6 212.9,217.7 214.3,222.7 215.7,226.7 217.1,230 218.5,232.7 219.9,235 221.4,236.9 222.8,238.5 224.2,239.9 225.6,241 
		227,241.9 228.4,242.7 229.8,243.3 231.2,243.7 232.6,244 234,244.2 235.5,244.3 236.9,244.2 238.3,244 239.7,243.7 241.1,243.3 
		242.5,242.7 243.9,241.9 245.3,241 246.7,239.9 248.1,238.5 249.6,236.9 251,235 252.4,232.7 253.8,230 255.2,226.7 256.6,222.7 
		258,217.7 259.4,211.6 260.8,203.7 262.2,193.5 263.7,179.7 265.1,160.6 266.5,133.4 267.9,94.6 269.3,46.6 270.7,19.4 272.1,46.6 
		273.5,94.6 274.9,133.4 276.3,160.6 277.8,179.7 279.2,193.5 280.6,203.7 282,211.6 283.4,217.7 284.8,222.7 286.2,226.7 
		287.6,230 289,232.7 290.4,235 291.9,236.9 293.3,238.5 294.7,239.9 296.1,241 297.5,241.9 298.9,242.7 300.3,243.3 301.7,243.7 
		303.1,244 304.5,244.2 306,244.3 307.4,244.2 308.8,244 310.2,243.7 311.6,243.3 313,242.7 314.4,241.9 315.8,241 317.2,239.9 
		318.6,238.5 320.1,236.9 321.5,235 322.9,232.7 324.3,230 325.7,226.7 327.1,222.7 328.5,217.7 329.9,211.6 331.3,203.7 
		332.7,193.5 334.2,179.7 335.6,160.6 337,133.4 338.4,94.6 339.8,46.6 341.2,19.4 	"/>
</g>
</svg>
