<?xml version="1.0" encoding="utf-8"?>
<!-- Generator: Adobe Illustrator 22.1.0, SVG Export Plug-In . SVG Version: 6.00 Build 0)  -->
<svg version="1.1" id="Layer_1" xmlns="http://www.w3.org/2000/svg" xmlns:xlink="http://www.w3.org/1999/xlink" x="0px" y="0px"
	 viewBox="0 0 242.5 113.1" style="enable-background:new 0 0 242.5 113.1;" xml:space="preserve">
<style type="text/css">
	.st0{fill:none;stroke:#000000;stroke-width:0.8504;stroke-miterlimit:10;}
	.st1{fill:#1D1D1B;}
	.st2{fill:none;stroke:#000000;stroke-width:0.8504;stroke-linecap:round;stroke-miterlimit:10;stroke-dasharray:0,3.7504;}
	.st3{fill:none;stroke:#000000;stroke-width:1.7008;stroke-miterlimit:10;stroke-dasharray:2.8346,2.8346,0,0;}
	.st4{fill:none;stroke:#000000;stroke-width:1.7008;stroke-miterlimit:10;stroke-dasharray:2.6996,2.6996,0,0;}
	.st5{fill:none;stroke:#000000;stroke-width:2.2677;stroke-miterlimit:10;}
	.st6{fill:none;stroke:#000000;stroke-width:0.8504;stroke-linecap:round;stroke-miterlimit:10;stroke-dasharray:0,3.7356;}
	.st7{fill:none;stroke:#000000;stroke-width:0.8504;stroke-miterlimit:10;stroke-dasharray:2.5769,2.5769,0,0;}
	.st8{fill:none;stroke:#000000;stroke-width:0.8504;stroke-linecap:round;stroke-miterlimit:10;stroke-dasharray:0,3.7382;}
</style>
<g>
	<polyline points="225.2,88.4 229.7,86.1 225.2,83.8 226.3,86.1 	"/>
	<line class="st0" x1="34.8" y1="86.1" x2="226.3" y2="86.1"/>
	<polyline points="44.2,9.1 41.9,4.6 39.7,9.1 41.9,8 	"/>
	<path class="st0" d="M41.9,8v81.6 M219.1,82.6v7.1"/>
	<g>
		<path class="st1" d="M43.7,99c-0.4,0.9-1.2,1.2-1.7,1.2c-0.5,0-1.2-0.2-1.6-1c-0.4-0.8-0.4-1.7-0.4-2.4c0-0.8,0-1.6,0.4-2.3
			c0.4-0.9,1.1-1.2,1.7-1.2c0.4,0,1.2,0.2,1.7,1.1c0.3,0.7,0.4,1.5,0.4,2.3C44.1,97.5,44,98.3,43.7,99z M43.1,98.7
			c0.1-0.6,0.1-1.3,0.1-2.1c0-0.6,0-1.4-0.1-1.9c-0.2-1-0.8-1.2-1.2-1.2c-0.2,0-1,0.1-1.2,1.3c-0.1,0.5-0.1,1.2-0.1,1.8
			c0,0.6,0,1.5,0.1,2.1c0.2,1,0.8,1.2,1.2,1.2C42.4,99.9,43,99.6,43.1,98.7z"/>
	</g>
	<g>
		<path class="st1" d="M218.2,97.3c-0.1,0.5-0.1,0.5-0.3,1c-0.1,0.4-0.2,0.6-0.5,0.6c-0.1,0-0.3-0.1-0.3-0.3c0-0.1,0-0.1,0.1-0.2
			c0.4-0.9,1-2.1,1.3-3.3h-0.6c-0.2,0-0.8,0-1.3,0.8c-0.1,0.1-0.1,0.1-0.2,0.1c-0.1,0-0.1-0.1-0.1-0.1c0,0,0.3-0.5,0.6-0.9
			c0.4-0.5,0.8-0.5,1-0.5h3.3c0.2,0,0.4,0,0.4,0.2c0,0.3-0.4,0.3-0.5,0.3h-1.1c-0.1,0.5-0.2,1.1-0.2,1.6c0,0.3,0,0.9,0.3,1.6
			c0.1,0.1,0.1,0.2,0.1,0.2c0,0.2-0.2,0.4-0.4,0.4c-0.1,0-0.3-0.1-0.4-0.5c-0.1-0.3-0.1-0.6-0.1-0.8c0-0.7,0.1-1.1,0.4-2.6h-1.1
			L218.2,97.3z"/>
	</g>
	<line class="st2" x1="112.8" y1="36.5" x2="112.8" y2="86.1"/>
	<g>
		<path class="st1" d="M239.5,89.7c-0.9,0-1.2-1.1-1.2-2c0-2.3,1.5-5.1,2.9-5.1c1,0,1.2,1.4,1.2,2C242.4,86.9,240.9,89.7,239.5,89.7
			z M239.2,86.3c-0.3,1-0.3,1.6-0.3,2c0,0.9,0.2,1.2,0.5,1.2c0.4,0,0.8-0.5,1.2-1.2c0.4-0.7,0.6-1.6,0.7-2H239.2z M241.4,86
			c0.2-1,0.3-1.5,0.3-2c0-0.6-0.1-1.2-0.5-1.2c-0.4,0-0.8,0.6-1.1,1c-0.4,0.7-0.6,1.5-0.8,2.1H241.4z"/>
	</g>
	<g>
		<path class="st1" d="M47.7,14.2c0,0.2,0,0.4-0.2,0.4c-0.2,0-0.2-0.2-0.2-0.4V5c0-0.2,0-0.4,0.2-0.4c0.2,0,0.2,0.2,0.2,0.4V14.2z"
			/>
	</g>
	<g>
		<path class="st1" d="M55.1,11.4c0,0.1,0,0.1,0,0.2c0,0.2,0.3,0.2,0.6,0.2c0.2,0,0.3,0,0.3,0.1c0,0.2-0.1,0.2-0.2,0.2
			c-0.2,0-0.4,0-0.6,0c-0.2,0-0.4,0-0.6,0c-0.3,0-1,0-1.3,0c0,0-0.1,0-0.1-0.1c0-0.2,0.1-0.2,0.2-0.2c0.6,0,0.8,0,0.9-0.3
			c0-0.1,0.3-1.1,0.7-2.8h-3l-0.7,2.7c0,0.1,0,0.1,0,0.2c0,0.2,0.3,0.2,0.6,0.2c0.2,0,0.3,0,0.3,0.1c0,0.2-0.1,0.2-0.2,0.2
			c-0.2,0-0.4,0-0.6,0c-0.2,0-0.4,0-0.6,0c-0.3,0-1,0-1.3,0c0,0-0.1,0-0.1-0.1c0-0.2,0.1-0.2,0.3-0.2c0.8,0,0.8-0.1,0.9-0.5L51.7,6
			c0-0.1,0-0.1,0-0.2c0-0.1-0.1-0.1-0.3-0.2c-0.2,0-0.4,0-0.4,0c-0.2,0-0.3,0-0.3-0.1c0-0.2,0.1-0.2,0.2-0.2c0.3,0,1,0,1.3,0
			c0.3,0,1,0,1.3,0c0,0,0.1,0,0.1,0.1c0,0.2-0.1,0.2-0.3,0.2c-0.7,0-0.7,0.1-0.8,0.5L52,8.4h3L55.6,6c0-0.1,0-0.1,0-0.2
			c0-0.1-0.1-0.1-0.3-0.2c-0.2,0-0.4,0-0.4,0c-0.2,0-0.3,0-0.3-0.1c0-0.2,0.1-0.2,0.2-0.2c0.3,0,1,0,1.3,0c0.3,0,1,0,1.3,0
			c0,0,0.1,0,0.1,0.1c0,0.2-0.1,0.2-0.3,0.2c-0.7,0-0.7,0.1-0.8,0.5L55.1,11.4z"/>
	</g>
	<g>
		<path class="st1" d="M61.2,14.6c-0.1,0-1-0.6-1.6-1.9c-0.5-1.1-0.7-2.3-0.7-3.1c0-0.8,0.1-1.9,0.6-3c0.6-1.3,1.5-1.9,1.6-1.9
			c0.1,0,0.1,0,0.1,0.1c0,0,0,0-0.1,0.2c-1.2,1.2-1.6,3-1.6,4.7c0,1.5,0.3,3.4,1.6,4.7C61.3,14.4,61.3,14.4,61.2,14.6
			C61.3,14.5,61.2,14.6,61.2,14.6z"/>
		<path class="st1" d="M63.2,11.3c0.2,0.4,0.6,0.7,1.1,0.7c0.1,0,1,0,1.3-1c0-0.1,0-0.1,0.1-0.1c0,0,0.1,0,0.1,0.1
			c0,0.2-0.4,1.3-1.7,1.3c-1.1,0-2.2-1-2.2-2.3c0-1.2,0.9-2.3,2.1-2.3c1.2,0,1.8,1,1.8,2c0,0.2,0,0.2-0.2,0.2h-2.8
			C62.9,10.1,62.9,10.8,63.2,11.3z M65.3,9.6c0-0.4-0.1-1.7-1.1-1.7c-0.3,0-1.2,0.2-1.2,1.7H65.3z"/>
	</g>
	<g>
		<path class="st1" d="M68.3,8.9c0,0.9-0.6,1.5-1.4,1.5c-0.6,0-1.1-0.3-1.1-0.8c0-0.3,0.2-0.5,0.5-0.5c0.3,0,0.5,0.2,0.5,0.5
			c0,0.3-0.2,0.4-0.3,0.4c0.3,0.1,0.5,0.1,0.5,0.1c0.6,0,0.7-0.9,0.7-1.3V5c0-0.5-0.1-0.6-0.9-0.6V4.1L68.3,4V8.9z M67.8,2.8
			c-0.3,0-0.5-0.2-0.5-0.5s0.2-0.5,0.5-0.5s0.5,0.2,0.5,0.5S68.1,2.8,67.8,2.8z"/>
	</g>
	<g>
		<path class="st1" d="M70.6,8.5c-0.6,0-1-0.7-1-1.5c0-1.6,1.1-3.5,2.2-3.5c0.7,0,1,0.8,1,1.5C72.8,6.5,71.7,8.5,70.6,8.5z
			 M70.4,6.1c-0.1,0.3-0.2,0.8-0.2,1.3c0,0.4,0.1,0.9,0.4,0.9c0.3,0,0.6-0.3,0.8-0.7c0.2-0.3,0.4-0.7,0.6-1.5H70.4z M72.1,5.8
			c0.1-0.6,0.2-1,0.2-1.3c0-0.1,0-0.9-0.4-0.9c-0.4,0-1,0.7-1.4,2.2H72.1z"/>
	</g>
	<g>
		<path class="st1" d="M76.1,12.6c-0.6,1.3-1.5,1.9-1.6,1.9c-0.1,0-0.1,0-0.1-0.1c0,0,0-0.1,0.1-0.2c1.2-1.3,1.6-3,1.6-4.7
			c0-2.1-0.6-3.7-1.5-4.7c-0.2-0.2-0.2-0.2-0.2-0.2c0-0.1,0-0.1,0.1-0.1c0.1,0,1,0.6,1.6,1.9c0.5,1.1,0.7,2.3,0.7,3.1
			C76.7,10.4,76.6,11.5,76.1,12.6z"/>
	</g>
	<g>
		<path class="st1" d="M79.2,14.2c0,0.2,0,0.4-0.2,0.4c-0.2,0-0.2-0.2-0.2-0.4V5c0-0.2,0-0.4,0.2-0.4c0.2,0,0.2,0.2,0.2,0.4V14.2z"
			/>
	</g>
	<g>
		<path class="st1" d="M109.7,98.8c-0.9,0-1.2-1.1-1.2-2c0-2.3,1.5-5.1,2.9-5.1c1,0,1.2,1.4,1.2,2C112.7,96,111.1,98.8,109.7,98.8z
			 M109.5,95.4c-0.3,1-0.3,1.6-0.3,2c0,0.9,0.2,1.2,0.5,1.2c0.4,0,0.8-0.5,1.2-1.2c0.4-0.7,0.6-1.6,0.7-2H109.5z M111.7,95.1
			c0.2-1,0.3-1.5,0.3-2c0-0.6-0.1-1.2-0.5-1.2c-0.4,0-0.8,0.6-1.1,1c-0.4,0.7-0.6,1.5-0.8,2.1H111.7z"/>
	</g>
	<g>
		<path class="st1" d="M114.1,97.9c0,0,0-0.1,0-0.2c0-0.2,0-0.3-0.2-0.3c-0.3,0-0.4,0.3-0.5,0.8c0,0.2-0.1,0.2-0.2,0.2
			c0,0-0.1,0-0.1-0.1c0,0,0.1-0.5,0.3-0.7c0.1-0.2,0.3-0.4,0.6-0.4c0.2,0,0.6,0.1,0.7,0.5c0.2-0.2,0.6-0.5,1-0.5c0.5,0,1,0.3,1,1.2
			c0,1-0.9,2-1.8,2c-0.4,0-0.6-0.3-0.7-0.4c-0.1,0.3-0.2,0.7-0.3,1c0,0.1-0.1,0.3-0.1,0.3c0,0.1,0.2,0.1,0.3,0.1
			c0.1,0,0.2,0,0.2,0.1c0,0.1-0.1,0.2-0.1,0.2c-0.2,0-0.5,0-0.7,0c-0.2,0-0.4,0-0.6,0c0,0-0.1,0-0.1-0.1c0-0.1,0.1-0.1,0.2-0.1
			c0.3,0,0.3-0.1,0.3-0.3L114.1,97.9z M114.3,99.3c0,0,0,0.1,0,0.1c0,0.1,0.1,0.6,0.6,0.6c0.4,0,0.7-0.3,0.9-0.7
			c0.2-0.4,0.4-1.1,0.4-1.4c0-0.5-0.2-0.7-0.5-0.7c-0.2,0-0.6,0.1-1,0.6L114.3,99.3z"/>
	</g>
	<g>
		<path class="st1" d="M159.5,99.6c-0.9,0-1.2-1.1-1.2-2c0-2.3,1.5-5.1,2.9-5.1c1,0,1.2,1.4,1.2,2C162.5,96.7,160.9,99.6,159.5,99.6
			z M159.3,96.2c-0.3,1-0.3,1.6-0.3,2c0,0.9,0.2,1.2,0.5,1.2c0.4,0,0.8-0.5,1.2-1.2c0.4-0.7,0.6-1.6,0.7-2H159.3z M161.5,95.8
			c0.2-1,0.3-1.5,0.3-2c0-0.6-0.1-1.2-0.5-1.2c-0.4,0-0.8,0.6-1.1,1c-0.4,0.7-0.6,1.5-0.8,2.1H161.5z"/>
	</g>
	<g>
		<path class="st1" d="M164.9,98c-0.1,0-0.4,0-0.6,0.1c-0.2,0.1-0.3,0.3-0.3,0.4c0,0.2,0.1,0.3,0.4,0.3c0,0,0.2,0,0.3,0.1
			c0.3,0,1,0.2,1,0.8c0,0.3-0.2,1.2-1.5,1.2c-0.7,0-1.1-0.3-1.1-0.7c0-0.3,0.2-0.5,0.4-0.5c0.1,0,0.3,0.1,0.3,0.3
			c0,0.2-0.2,0.4-0.4,0.4c0.2,0.2,0.6,0.3,0.8,0.3c0.1,0,0.4,0,0.7-0.2c0.3-0.2,0.4-0.4,0.4-0.6c0-0.3-0.4-0.4-0.6-0.5
			c-0.5-0.1-0.6-0.1-0.8-0.3c-0.1-0.1-0.2-0.3-0.2-0.5c0-0.2,0.2-1,1.3-1c0.4,0,0.9,0.2,0.9,0.6c0,0.4-0.3,0.4-0.3,0.4
			c-0.1,0-0.2-0.1-0.2-0.2c0-0.1,0.1-0.3,0.3-0.3C165.5,98,165.1,98,164.9,98z"/>
	</g>
	<path class="st3" d="M41.9,36.5h70.9 M41.9,22.3h70.9"/>
	<line class="st4" x1="162.4" y1="79" x2="219.1" y2="79"/>
	<path class="st0" d="M112.8,89.7v-7.1 M162.4,89.7v-7.1 M38.4,79h7.1 M38.4,36.5h7.1 M38.4,22.3h7.1"/>
	<g>
		<path class="st1" d="M2,75.6c0-0.6,0.4-1,1.1-1c0.2,0,0.3,0,0.8,0.1c0.4,0.1,0.5,0.1,0.5,0.3c0,0.2-0.1,0.4-0.4,0.4
			c-0.1,0-0.3-0.1-0.5-0.2c-0.2-0.1-0.4-0.3-0.7-0.3c-0.3,0-0.5,0.2-0.5,0.5c0,0.4,0.6,1.2,0.9,1.6C3.6,77.5,4,78,4,78.9
			c0,1.4-0.8,2.9-2,2.9c-0.9,0-1.6-0.7-1.6-1.7c0-1.2,1-2.5,2.2-2.8C2.3,76.7,2,76.2,2,75.6z M1,80.4c0,0.8,0.4,1.2,1,1.2
			c0.9,0,1.3-1.7,1.3-2.3c0-0.7-0.3-1.3-0.5-1.7C1.4,77.9,1,79.8,1,80.4z"/>
	</g>
	<g>
		<path class="st1" d="M6.8,80.3c-0.1,0-0.4,0-0.6,0.1C6.1,80.5,6,80.7,6,80.8c0,0.2,0.1,0.3,0.4,0.3c0,0,0.2,0,0.3,0.1
			c0.3,0,1,0.2,1,0.8c0,0.3-0.2,1.2-1.5,1.2c-0.7,0-1.1-0.3-1.1-0.7c0-0.3,0.2-0.5,0.4-0.5c0.1,0,0.3,0.1,0.3,0.3
			c0,0.2-0.2,0.4-0.4,0.4C5.4,82.9,5.8,83,6.1,83c0.1,0,0.4,0,0.7-0.2c0.3-0.2,0.4-0.4,0.4-0.6c0-0.3-0.4-0.4-0.6-0.5
			c-0.5-0.1-0.6-0.1-0.8-0.3c-0.1-0.1-0.2-0.3-0.2-0.5c0-0.2,0.2-1,1.3-1c0.4,0,0.9,0.2,0.9,0.6c0,0.4-0.3,0.4-0.3,0.4
			c-0.1,0-0.2-0.1-0.2-0.2c0-0.1,0.1-0.3,0.3-0.3C7.3,80.3,6.9,80.3,6.8,80.3z"/>
	</g>
	<g>
		<path class="st1" d="M9.7,78.4c-0.1,0-0.3,0-0.3-0.2C9.3,78,9.5,78,9.6,78h6c0.1,0,0.3,0,0.3,0.2c0,0.2-0.2,0.2-0.3,0.2H9.7z
			 M9.6,80.4c-0.1,0-0.3,0-0.3-0.2S9.5,80,9.7,80h5.9c0.1,0,0.3,0,0.3,0.2s-0.2,0.2-0.3,0.2H9.6z"/>
		<path class="st1" d="M20.7,80.8c-0.4,0.9-1.2,1.2-1.7,1.2c-0.5,0-1.2-0.2-1.6-1c-0.4-0.8-0.4-1.7-0.4-2.4c0-0.8,0-1.6,0.4-2.3
			c0.4-0.9,1.1-1.2,1.7-1.2c0.4,0,1.2,0.2,1.7,1.1c0.3,0.7,0.4,1.5,0.4,2.3C21.1,79.3,21.1,80.1,20.7,80.8z M20.2,80.5
			c0.1-0.6,0.1-1.3,0.1-2.1c0-0.6,0-1.4-0.1-1.9c-0.2-1-0.8-1.2-1.2-1.2c-0.2,0-1,0.1-1.2,1.3c-0.1,0.5-0.1,1.2-0.1,1.8
			c0,0.6,0,1.5,0.1,2.1c0.2,1,0.8,1.2,1.2,1.2C19.4,81.7,20,81.4,20.2,80.5z"/>
		<path class="st1" d="M22.9,81.7c-0.3,0-0.5-0.2-0.5-0.5s0.2-0.5,0.5-0.5c0.3,0,0.5,0.2,0.5,0.5S23.2,81.7,22.9,81.7z"/>
		<path class="st1" d="M28.5,80.8c-0.4,0.9-1.2,1.2-1.7,1.2c-0.5,0-1.2-0.2-1.6-1c-0.4-0.8-0.4-1.7-0.4-2.4c0-0.8,0-1.6,0.4-2.3
			c0.4-0.9,1.1-1.2,1.7-1.2c0.4,0,1.2,0.2,1.7,1.1c0.3,0.7,0.4,1.5,0.4,2.3C28.9,79.3,28.8,80.1,28.5,80.8z M27.9,80.5
			c0.1-0.6,0.1-1.3,0.1-2.1c0-0.6,0-1.4-0.1-1.9c-0.2-1-0.8-1.2-1.2-1.2c-0.2,0-1,0.1-1.2,1.3c-0.1,0.5-0.1,1.2-0.1,1.8
			c0,0.6,0,1.5,0.1,2.1c0.2,1,0.8,1.2,1.2,1.2C27.2,81.7,27.8,81.4,27.9,80.5z"/>
	</g>
	<g>
		<path class="st1" d="M32.3,80.9c0,0.4,0,0.5,0.9,0.5h0.3v0.3c-0.3,0-1.2,0-1.6,0c-0.4,0-1.3,0-1.6,0v-0.3h0.3
			c0.9,0,0.9-0.1,0.9-0.5v-5.2C31.1,76,30.5,76,30.3,76v-0.3c0.3,0,1.2,0,1.8-0.6c0.2,0,0.2,0,0.2,0.3V80.9z"/>
	</g>
	<g>
		<path class="st1" d="M172.4,30.6c0.2,0,0.9,0,0.9-0.1c0.1-0.1,0.2-0.6,0.2-0.9h0.2l-0.3,1.7h-3.7c0-0.2,0-0.3,0.1-0.4l1.9-2.1
			c0.5-0.6,1-1.4,1-2.2c0-0.8-0.4-1.6-1.3-1.6c-0.6,0-1.1,0.4-1.3,1c0,0,0,0,0.1,0c0.3,0,0.5,0.3,0.5,0.5c0,0.4-0.3,0.5-0.5,0.5
			c0,0-0.5,0-0.5-0.6c0-0.9,0.7-1.8,1.9-1.8c1.2,0,2.1,0.8,2.1,1.9c0,1-0.6,1.5-2.2,2.9l-1.1,1H172.4z"/>
	</g>
	<g>
		<path class="st1" d="M179.8,25.4c0-0.6,0.4-1,1.1-1c0.2,0,0.3,0,0.8,0.1c0.4,0.1,0.5,0.1,0.5,0.3c0,0.2-0.1,0.4-0.4,0.4
			c-0.1,0-0.3-0.1-0.5-0.2c-0.2-0.1-0.4-0.3-0.7-0.3c-0.3,0-0.5,0.2-0.5,0.5c0,0.4,0.6,1.2,0.9,1.6c0.3,0.4,0.7,0.9,0.7,1.9
			c0,1.4-0.8,2.9-2,2.9c-0.9,0-1.6-0.7-1.6-1.7c0-1.2,1-2.5,2.2-2.8C180,26.5,179.8,25.9,179.8,25.4z M178.8,30.1
			c0,0.8,0.4,1.2,1,1.2c0.9,0,1.3-1.7,1.3-2.3c0-0.7-0.3-1.3-0.5-1.7C179.1,27.6,178.8,29.5,178.8,30.1z"/>
	</g>
	<g>
		<path class="st1" d="M183.5,30.5c0,0,0-0.1,0-0.2c0-0.2,0-0.3-0.2-0.3c-0.3,0-0.4,0.3-0.5,0.8c0,0.2-0.1,0.2-0.2,0.2
			c0,0-0.1,0-0.1-0.1c0,0,0.1-0.5,0.3-0.7c0.1-0.2,0.3-0.4,0.6-0.4c0.2,0,0.6,0.1,0.7,0.5c0.2-0.2,0.6-0.5,1-0.5c0.5,0,1,0.3,1,1.2
			c0,1-0.9,2-1.8,2c-0.4,0-0.6-0.3-0.7-0.4c-0.1,0.3-0.2,0.7-0.3,1c0,0.1-0.1,0.3-0.1,0.3c0,0.1,0.2,0.1,0.3,0.1
			c0.1,0,0.2,0,0.2,0.1c0,0.1-0.1,0.2-0.1,0.2c-0.2,0-0.5,0-0.7,0c-0.2,0-0.4,0-0.6,0c0,0-0.1,0-0.1-0.1c0-0.1,0.1-0.1,0.2-0.1
			c0.3,0,0.3-0.1,0.3-0.3L183.5,30.5z M183.7,32c0,0,0,0.1,0,0.1c0,0.1,0.1,0.6,0.6,0.6c0.4,0,0.7-0.3,0.9-0.7
			c0.2-0.4,0.4-1.1,0.4-1.4c0-0.5-0.2-0.7-0.5-0.7c-0.2,0-0.6,0.1-1,0.6L183.7,32z"/>
	</g>
	<g>
		<path class="st1" d="M187.6,28.2c-0.1,0-0.3,0-0.3-0.2s0.2-0.2,0.3-0.2h6c0.1,0,0.3,0,0.3,0.2s-0.2,0.2-0.3,0.2H187.6z
			 M187.6,30.1c-0.1,0-0.3,0-0.3-0.2s0.2-0.2,0.3-0.2h5.9c0.1,0,0.3,0,0.3,0.2s-0.2,0.2-0.3,0.2H187.6z"/>
		<path class="st1" d="M198.7,30.5c-0.4,0.9-1.2,1.2-1.7,1.2c-0.5,0-1.2-0.2-1.6-1c-0.4-0.8-0.4-1.7-0.4-2.4c0-0.8,0-1.6,0.4-2.3
			c0.4-0.9,1.1-1.2,1.7-1.2c0.4,0,1.2,0.2,1.7,1.1c0.3,0.7,0.4,1.5,0.4,2.3C199.1,29,199,29.8,198.7,30.5z M198.1,30.2
			c0.1-0.6,0.1-1.3,0.1-2.1c0-0.6,0-1.4-0.1-1.9c-0.2-1-0.8-1.2-1.2-1.2c-0.3,0-1,0.1-1.2,1.3c-0.1,0.5-0.1,1.2-0.1,1.8
			c0,0.6,0,1.5,0.1,2.1c0.2,1,0.8,1.2,1.2,1.2C197.4,31.4,198,31.1,198.1,30.2z"/>
		<path class="st1" d="M200.9,31.4c-0.3,0-0.5-0.2-0.5-0.5c0-0.3,0.2-0.5,0.5-0.5s0.5,0.2,0.5,0.5C201.4,31.2,201.2,31.4,200.9,31.4
			z"/>
		<path class="st1" d="M206.5,30.5c-0.4,0.9-1.2,1.2-1.7,1.2c-0.5,0-1.2-0.2-1.6-1c-0.4-0.8-0.4-1.7-0.4-2.4c0-0.8,0-1.6,0.4-2.3
			c0.4-0.9,1.1-1.2,1.7-1.2c0.4,0,1.2,0.2,1.7,1.1c0.3,0.7,0.4,1.5,0.4,2.3C206.9,29,206.8,29.8,206.5,30.5z M205.9,30.2
			c0.1-0.6,0.1-1.3,0.1-2.1c0-0.6,0-1.4-0.1-1.9c-0.2-1-0.8-1.2-1.2-1.2c-0.3,0-1,0.1-1.2,1.3c-0.1,0.5-0.1,1.2-0.1,1.8
			c0,0.6,0,1.5,0.1,2.1c0.2,1,0.8,1.2,1.2,1.2C205.2,31.4,205.8,31.1,205.9,30.2z"/>
	</g>
	<g>
		<path class="st1" d="M210.4,30.6c0.2,0,0.9,0,0.9-0.1c0.1-0.1,0.2-0.6,0.2-0.9h0.2l-0.3,1.7h-3.7c0-0.2,0-0.3,0.1-0.4l1.9-2.1
			c0.5-0.6,1-1.4,1-2.2c0-0.8-0.4-1.6-1.3-1.6c-0.6,0-1.1,0.4-1.3,1c0,0,0,0,0.1,0c0.3,0,0.5,0.3,0.5,0.5c0,0.4-0.3,0.5-0.5,0.5
			c0,0-0.5,0-0.5-0.6c0-0.9,0.7-1.8,1.9-1.8c1.2,0,2.1,0.8,2.1,1.9c0,1-0.6,1.5-2.2,2.9l-1.1,1H210.4z"/>
	</g>
	<line class="st0" x1="38.4" y1="29.4" x2="45.5" y2="29.4"/>
	<g>
		<path class="st1" d="M28.2,31.8c0,0.4,0,0.5,0.9,0.5h0.3v0.3c-0.3,0-1.2,0-1.6,0c-0.4,0-1.3,0-1.6,0v-0.3h0.3
			c0.9,0,0.9-0.1,0.9-0.5v-5.2c-0.5,0.3-1.1,0.3-1.3,0.3v-0.3c0.3,0,1.2,0,1.8-0.6c0.2,0,0.2,0,0.2,0.3V31.8z"/>
	</g>
	<line class="st0" x1="137.6" y1="82.6" x2="137.6" y2="89.7"/>
	<g>
		<path class="st1" d="M134.8,99.6c-0.9,0-1.2-1.1-1.2-2c0-2.3,1.5-5.1,2.9-5.1c1,0,1.2,1.4,1.2,2C137.7,96.7,136.2,99.6,134.8,99.6
			z M134.6,96.2c-0.3,1-0.3,1.6-0.3,2c0,0.9,0.2,1.2,0.5,1.2c0.4,0,0.8-0.5,1.2-1.2c0.4-0.7,0.6-1.6,0.7-2H134.6z M136.8,95.8
			c0.2-1,0.3-1.5,0.3-2c0-0.6-0.1-1.2-0.5-1.2c-0.4,0-0.8,0.6-1.1,1c-0.4,0.7-0.6,1.5-0.8,2.1H136.8z"/>
	</g>
	<g>
		<path class="st1" d="M140.3,98c-0.3,0-0.7,0.2-1,0.5c-0.4,0.5-0.5,1.2-0.5,1.4c0,0.4,0.2,0.8,0.7,0.8c0.1,0,0.9,0,1.5-0.6
			c0.1-0.1,0.1-0.1,0.1-0.1c0.1,0,0.1,0.1,0.1,0.1c0,0.1-0.6,0.8-1.7,0.8c-0.9,0-1.3-0.6-1.3-1.2c0-1,1-1.9,2-1.9
			c0.4,0,0.9,0.1,0.9,0.6c0,0.3-0.2,0.4-0.4,0.4c-0.1,0-0.3-0.1-0.3-0.3c0-0.2,0.1-0.3,0.4-0.4C140.8,98,140.4,98,140.3,98z"/>
	</g>
	<path class="st5" d="M41.9,29.4h70.9 M112.8,29.4l49.6,56.7 M162.4,86.1h56.7"/>
	<polyline points="164.7,26.9 162.4,22.3 160.1,26.9 162.4,25.7 	"/>
	<polyline points="160.1,32 162.4,36.5 164.7,32 162.4,33.1 	"/>
	<line class="st0" x1="162.4" y1="25.7" x2="162.4" y2="33.1"/>
	<line class="st2" x1="116.3" y1="22.3" x2="165.9" y2="22.3"/>
	<line class="st6" x1="112.8" y1="36.5" x2="165.9" y2="36.5"/>
	<line class="st7" x1="137.6" y1="86.1" x2="137.6" y2="57.8"/>
	<g>
		<path class="st1" d="M154.8,109.7c-0.4,0.9-1.2,1.2-1.7,1.2c-0.5,0-1.2-0.2-1.6-1c-0.4-0.8-0.4-1.7-0.4-2.4c0-0.8,0-1.6,0.4-2.3
			c0.4-0.9,1.1-1.2,1.7-1.2c0.4,0,1.2,0.2,1.7,1.1c0.3,0.7,0.4,1.5,0.4,2.3C155.2,108.2,155.1,109,154.8,109.7z M154.2,109.4
			c0.1-0.6,0.1-1.3,0.1-2.1c0-0.6,0-1.4-0.1-1.9c-0.2-1-0.8-1.2-1.2-1.2c-0.2,0-1,0.1-1.2,1.3c-0.1,0.5-0.1,1.2-0.1,1.8
			c0,0.6,0,1.5,0.1,2.1c0.2,1,0.8,1.2,1.2,1.2C153.5,110.6,154.1,110.3,154.2,109.4z"/>
	</g>
	<g>
		<path class="st1" d="M157,110.6c-0.3,0-0.5-0.2-0.5-0.5s0.2-0.5,0.5-0.5s0.5,0.2,0.5,0.5S157.3,110.6,157,110.6z"/>
	</g>
	<g>
		<path class="st1" d="M161.5,109.8c0.2,0,0.9,0,0.9-0.1c0.1-0.1,0.2-0.6,0.2-0.9h0.2l-0.3,1.7h-3.7c0-0.2,0-0.3,0.1-0.4l1.9-2.1
			c0.5-0.6,1-1.4,1-2.2c0-0.8-0.4-1.6-1.3-1.6c-0.6,0-1.1,0.4-1.3,1c0,0,0,0,0.1,0c0.3,0,0.5,0.3,0.5,0.5c0,0.4-0.3,0.5-0.5,0.5
			c0,0-0.5,0-0.5-0.6c0-0.9,0.7-1.8,1.9-1.8c1.2,0,2.1,0.8,2.1,1.9c0,1-0.6,1.5-2.2,2.9l-1.1,1H161.5z"/>
		<path class="st1" d="M166.4,109.8c0,0.4,0,0.5,0.9,0.5h0.3v0.3c-0.3,0-1.2,0-1.6,0s-1.3,0-1.6,0v-0.3h0.3c0.9,0,0.9-0.1,0.9-0.5
			v-5.2c-0.5,0.3-1.1,0.3-1.3,0.3v-0.3c0.3,0,1.2,0,1.8-0.6c0.2,0,0.2,0,0.2,0.3V109.8z"/>
	</g>
	<g>
		<path class="st1" d="M170.6,109.1c-0.1,0.5-0.1,0.5-0.3,1c-0.1,0.4-0.2,0.6-0.5,0.6c-0.1,0-0.3-0.1-0.3-0.3c0-0.1,0-0.1,0.1-0.2
			c0.4-0.9,1-2.1,1.3-3.3h-0.6c-0.2,0-0.8,0-1.3,0.8c-0.1,0.1-0.1,0.1-0.2,0.1c-0.1,0-0.1-0.1-0.1-0.1c0,0,0.3-0.5,0.6-0.9
			c0.4-0.5,0.8-0.5,1-0.5h3.3c0.2,0,0.4,0,0.4,0.2c0,0.3-0.4,0.3-0.5,0.3h-1.1c-0.1,0.5-0.2,1.1-0.2,1.6c0,0.3,0,0.9,0.3,1.6
			c0.1,0.1,0.1,0.2,0.1,0.2c0,0.2-0.2,0.4-0.4,0.4c-0.1,0-0.3-0.1-0.4-0.5c-0.1-0.3-0.1-0.6-0.1-0.8c0-0.7,0.1-1.1,0.4-2.6h-1.1
			L170.6,109.1z"/>
	</g>
	<g>
		<path class="st1" d="M105.1,109.7c-0.4,0.9-1.2,1.2-1.7,1.2c-0.5,0-1.2-0.2-1.6-1c-0.4-0.8-0.4-1.7-0.4-2.4c0-0.8,0-1.6,0.4-2.3
			c0.4-0.9,1.1-1.2,1.7-1.2c0.4,0,1.2,0.2,1.7,1.1c0.3,0.7,0.4,1.5,0.4,2.3C105.5,108.2,105.5,109,105.1,109.7z M104.6,109.4
			c0.1-0.6,0.1-1.3,0.1-2.1c0-0.6,0-1.4-0.1-1.9c-0.2-1-0.8-1.2-1.2-1.2c-0.2,0-1,0.1-1.2,1.3c-0.1,0.5-0.1,1.2-0.1,1.8
			c0,0.6,0,1.5,0.1,2.1c0.2,1,0.8,1.2,1.2,1.2C103.9,110.6,104.4,110.3,104.6,109.4z"/>
	</g>
	<g>
		<path class="st1" d="M107.3,110.6c-0.3,0-0.5-0.2-0.5-0.5s0.2-0.5,0.5-0.5c0.3,0,0.5,0.2,0.5,0.5S107.6,110.6,107.3,110.6z"/>
	</g>
	<g>
		<path class="st1" d="M111.6,109.8c0,0.4,0,0.5,0.9,0.5h0.3v0.3c-0.3,0-1.2,0-1.6,0c-0.4,0-1.3,0-1.6,0v-0.3h0.3
			c0.9,0,0.9-0.1,0.9-0.5v-5.2c-0.5,0.3-1.1,0.3-1.3,0.3v-0.3c0.3,0,1.2,0,1.8-0.6c0.2,0,0.2,0,0.2,0.3V109.8z"/>
		<path class="st1" d="M116.2,108.4c-1.1,0-2-1-2-2.2c0-0.7,0.2-1.2,0.6-1.6c0.4-0.4,0.9-0.6,1.5-0.6c0.9,0,2,0.7,2,3.4
			c0,2.1-1.2,3.5-2.5,3.5c-0.8,0-1.4-0.4-1.4-1.1c0-0.4,0.3-0.5,0.5-0.5c0.2,0,0.5,0.1,0.5,0.5c0,0.2-0.1,0.5-0.5,0.5
			c0.3,0.3,0.8,0.4,1,0.4c0.6,0,1.6-0.5,1.6-2.8v-0.3C117.2,108,116.8,108.4,116.2,108.4z M117.4,106.4c0-0.5,0-1.1-0.2-1.4
			c-0.2-0.4-0.5-0.8-1-0.8c-0.3,0-0.7,0.1-1,0.6c-0.2,0.4-0.2,0.8-0.2,1.4c0,0.5,0,1,0.2,1.4c0.3,0.6,0.8,0.6,0.9,0.6
			C117.1,108.2,117.4,107.2,117.4,106.4z"/>
	</g>
	<g>
		<path class="st1" d="M120.9,109.1c-0.1,0.5-0.1,0.5-0.3,1c-0.1,0.4-0.2,0.6-0.5,0.6c-0.1,0-0.3-0.1-0.3-0.3c0-0.1,0-0.1,0.1-0.2
			c0.4-0.9,1-2.1,1.3-3.3h-0.6c-0.2,0-0.8,0-1.3,0.8c-0.1,0.1-0.1,0.1-0.2,0.1c-0.1,0-0.1-0.1-0.1-0.1c0,0,0.3-0.5,0.6-0.9
			c0.4-0.5,0.8-0.5,1-0.5h3.3c0.2,0,0.4,0,0.4,0.2c0,0.3-0.4,0.3-0.5,0.3h-1.1c-0.1,0.5-0.2,1.1-0.2,1.6c0,0.3,0,0.9,0.3,1.6
			c0.1,0.1,0.1,0.2,0.1,0.2c0,0.2-0.2,0.4-0.4,0.4c-0.1,0-0.3-0.1-0.4-0.5c-0.1-0.3-0.1-0.6-0.1-0.8c0-0.7,0.1-1.1,0.4-2.6h-1.1
			L120.9,109.1z"/>
	</g>
	<line class="st8" x1="41.9" y1="79" x2="162.4" y2="79"/>
</g>
</svg>
