<?xml version="1.0" encoding="utf-8"?>
<!-- Generator: Adobe Illustrator 22.1.0, SVG Export Plug-In . SVG Version: 6.00 Build 0)  -->
<svg version="1.1" id="Layer_1" xmlns="http://www.w3.org/2000/svg" xmlns:xlink="http://www.w3.org/1999/xlink" x="0px" y="0px"
	 viewBox="0 0 368.4 288.3" style="enable-background:new 0 0 368.4 288.3;" xml:space="preserve">
<style type="text/css">
	.st0{fill:none;stroke:#DFDFDF;stroke-width:0.4998;stroke-linejoin:round;stroke-miterlimit:10;}
	.st1{fill:none;stroke:#262626;stroke-width:0.4998;stroke-linecap:square;stroke-linejoin:round;stroke-miterlimit:10;}
	.st2{fill:#4A4A49;}
	.st3{fill:#262626;}
	.st4{fill:#1D1D1B;}
	.st5{fill:none;stroke:#0000FF;stroke-width:3;stroke-linejoin:round;stroke-miterlimit:10;}
</style>
<g>
	<path class="st0" d="M39.8,270.9V14.1 M121.3,270.9V14.1 M202.7,270.9V14.1 M284.2,270.9V14.1 M365.6,270.9V14.1 M365.6,270.9H39.8
		 M365.6,242.4H39.8 M365.6,213.8H39.8 M365.6,185.3H39.8 M365.6,156.8H39.8 M365.6,128.2H39.8 M365.6,99.7H39.8 M365.6,71.2H39.8
		 M365.6,42.6H39.8 M365.6,14.1H39.8"/>
	<path class="st1" d="M39.8,270.9h325.8 M39.8,14.1h325.8 M39.8,270.9v-3.3 M121.3,270.9v-3.3 M202.7,270.9v-3.3 M284.2,270.9v-3.3
		 M365.6,270.9v-3.3 M39.8,14.1v3.3 M121.3,14.1v3.3 M202.7,14.1v3.3 M284.2,14.1v3.3 M365.6,14.1v3.3"/>
	<g>
		<path class="st2" d="M35.5,282.1h2.5v0.9h-2.5V282.1z"/>
	</g>
	<path class="st3" d="M39.7,285.1c0,0,0-0.1,0-0.2c0.2-0.4,0.4-0.8,0.5-1.2c0.2-0.4,0.3-0.8,0.4-1.1c0.1-0.4,0.3-0.7,0.4-1.2h-0.7
		c-0.3,0-0.5,0.1-0.7,0.2c-0.2,0.2-0.4,0.4-0.5,0.6c0,0,0,0-0.1,0H39c-0.1,0-0.1,0-0.1-0.1c0,0,0,0,0-0.1c0.2-0.4,0.5-0.7,0.7-1
		c0.3-0.3,0.5-0.4,0.9-0.4h3.7c0.1,0,0.1,0,0.2,0.1c0.1,0,0.1,0.1,0.1,0.2c0,0.1,0,0.2-0.1,0.3c-0.1,0.1-0.2,0.1-0.3,0.1h-1.3
		c-0.1,0.5-0.2,1.1-0.2,1.6c0,0.7,0.1,1.2,0.3,1.8c0,0,0,0.1,0,0.1c0,0.1,0,0.1-0.1,0.2c0,0.1-0.1,0.1-0.2,0.2
		c-0.1,0-0.1,0.1-0.2,0.1c-0.2,0-0.3-0.1-0.4-0.4s-0.1-0.6-0.1-0.8c0-0.4,0-0.8,0.1-1.1c0.1-0.4,0.2-0.8,0.3-1.5h-1.1
		c-0.5,2.2-0.9,3.4-1,3.6c-0.1,0.2-0.2,0.3-0.4,0.3c-0.1,0-0.2,0-0.2-0.1C39.7,285.3,39.7,285.2,39.7,285.1L39.7,285.1z"/>
	<g>
		<path class="st2" d="M112.9,282.1h2.5v0.9h-2.5V282.1z"/>
	</g>
	<path class="st3" d="M117.1,285.1c0,0,0-0.1,0-0.2c0.2-0.4,0.4-0.8,0.5-1.2c0.2-0.4,0.3-0.8,0.4-1.1c0.1-0.4,0.3-0.7,0.4-1.2h-0.7
		c-0.3,0-0.5,0.1-0.7,0.2c-0.2,0.2-0.4,0.4-0.5,0.6c0,0,0,0-0.1,0h-0.1c-0.1,0-0.1,0-0.1-0.1c0,0,0,0,0-0.1c0.2-0.4,0.5-0.7,0.7-1
		c0.3-0.3,0.5-0.4,0.9-0.4h3.7c0.1,0,0.1,0,0.2,0.1c0,0,0.1,0.1,0.1,0.2c0,0.1,0,0.2-0.1,0.3c-0.1,0.1-0.2,0.1-0.3,0.1h-1.3
		c-0.1,0.5-0.2,1.1-0.2,1.6c0,0.7,0.1,1.2,0.3,1.8c0,0,0,0.1,0,0.1c0,0.1,0,0.1-0.1,0.2c0,0.1-0.1,0.1-0.2,0.2
		c-0.1,0-0.1,0.1-0.2,0.1c-0.2,0-0.3-0.1-0.4-0.4c-0.1-0.3-0.1-0.6-0.1-0.8c0-0.4,0-0.8,0.1-1.1c0.1-0.4,0.2-0.8,0.3-1.5h-1.1
		c-0.5,2.2-0.9,3.4-1,3.6c-0.1,0.2-0.2,0.3-0.4,0.3c-0.1,0-0.2,0-0.2-0.1C117.1,285.3,117.1,285.2,117.1,285.1L117.1,285.1z"/>
	<g>
		<path class="st2" d="M125,277.9l-2.4,7.6h-0.7l2.4-7.6H125z"/>
		<path class="st2" d="M129.9,280.4c0,0.5-0.1,0.9-0.4,1.3c-0.3,0.3-0.8,0.7-1.5,1.1c-0.8,0.4-1.3,0.8-1.6,1.2
			c-0.1,0.2-0.2,0.3-0.3,0.5h3.8v0.9h-4.8v0c0-0.7,0.2-1.3,0.6-1.8c0.4-0.5,1.1-1,2.1-1.5c0.5-0.3,0.8-0.5,1-0.8
			c0.2-0.2,0.3-0.5,0.3-0.9c0-0.4-0.1-0.7-0.4-0.9c-0.3-0.2-0.6-0.4-1-0.4c-0.4,0-0.8,0.1-1,0.4s-0.4,0.7-0.4,1.3h-0.9
			c0-0.8,0.2-1.4,0.6-1.8c0.4-0.4,1-0.7,1.8-0.7c0.7,0,1.2,0.2,1.6,0.6C129.7,279.2,129.9,279.7,129.9,280.4z"/>
	</g>
	<g>
		<path class="st2" d="M200.7,284.4c-0.4-0.6-0.6-1.5-0.6-2.7s0.2-2,0.6-2.7c0.4-0.6,1-0.9,1.8-0.9c0.8,0,1.4,0.3,1.8,0.9
			c0.4,0.6,0.6,1.5,0.6,2.7s-0.2,2-0.6,2.7s-1,0.9-1.8,0.9C201.8,285.3,201.2,285,200.7,284.4z M203.6,283.8
			c0.2-0.5,0.4-1.2,0.4-2.1c0-0.9-0.1-1.6-0.4-2.1c-0.2-0.5-0.6-0.7-1.1-0.7c-0.5,0-0.9,0.2-1.1,0.7c-0.2,0.5-0.4,1.2-0.4,2.1
			c0,0.9,0.1,1.6,0.4,2.1s0.6,0.7,1.1,0.7C203,284.5,203.4,284.3,203.6,283.8z"/>
	</g>
	<path class="st3" d="M277.9,285.1c0,0,0-0.1,0-0.2c0.2-0.4,0.4-0.8,0.5-1.2c0.2-0.4,0.3-0.8,0.4-1.1c0.1-0.4,0.3-0.7,0.4-1.2h-0.7
		c-0.3,0-0.5,0.1-0.7,0.2c-0.2,0.2-0.4,0.4-0.5,0.6c0,0,0,0-0.1,0h-0.1c-0.1,0-0.1,0-0.1-0.1c0,0,0,0,0-0.1c0.2-0.4,0.5-0.7,0.7-1
		c0.3-0.3,0.5-0.4,0.9-0.4h3.7c0.1,0,0.1,0,0.2,0.1c0,0,0.1,0.1,0.1,0.2c0,0.1,0,0.2-0.1,0.3c-0.1,0.1-0.2,0.1-0.3,0.1H281
		c-0.1,0.5-0.2,1.1-0.2,1.6c0,0.7,0.1,1.2,0.3,1.8c0,0,0,0.1,0,0.1c0,0.1,0,0.1-0.1,0.2c0,0.1-0.1,0.1-0.2,0.2
		c-0.1,0-0.1,0.1-0.2,0.1c-0.2,0-0.3-0.1-0.4-0.4c-0.1-0.3-0.1-0.6-0.1-0.8c0-0.4,0-0.8,0.1-1.1c0.1-0.4,0.2-0.8,0.3-1.5h-1.1
		c-0.5,2.2-0.9,3.4-1,3.6c-0.1,0.2-0.2,0.3-0.4,0.3c-0.1,0-0.2,0-0.2-0.1C277.9,285.3,277.9,285.2,277.9,285.1L277.9,285.1z"/>
	<g>
		<path class="st2" d="M285.8,277.9l-2.4,7.6h-0.7l2.4-7.6H285.8z"/>
		<path class="st2" d="M290.7,280.4c0,0.5-0.1,0.9-0.4,1.3c-0.3,0.3-0.8,0.7-1.5,1.1c-0.8,0.4-1.3,0.8-1.6,1.2
			c-0.1,0.2-0.2,0.3-0.3,0.5h3.8v0.9h-4.8v0c0-0.7,0.2-1.3,0.6-1.8c0.4-0.5,1.1-1,2.1-1.5c0.5-0.3,0.8-0.5,1-0.8
			c0.2-0.2,0.3-0.5,0.3-0.9c0-0.4-0.1-0.7-0.4-0.9c-0.3-0.2-0.6-0.4-1-0.4c-0.4,0-0.8,0.1-1,0.4s-0.4,0.7-0.4,1.3h-0.9
			c0-0.8,0.2-1.4,0.6-1.8c0.4-0.4,1-0.7,1.8-0.7c0.7,0,1.2,0.2,1.6,0.6C290.5,279.2,290.7,279.7,290.7,280.4z"/>
	</g>
	<path class="st3" d="M363.7,285.1c0,0,0-0.1,0-0.2c0.2-0.4,0.4-0.8,0.5-1.2c0.2-0.4,0.3-0.8,0.4-1.1c0.1-0.4,0.3-0.7,0.4-1.2h-0.7
		c-0.3,0-0.5,0.1-0.7,0.2c-0.2,0.2-0.4,0.4-0.5,0.6c0,0,0,0-0.1,0H363c-0.1,0-0.1,0-0.1-0.1c0,0,0,0,0-0.1c0.2-0.4,0.5-0.7,0.7-1
		c0.3-0.3,0.5-0.4,0.9-0.4h3.7c0.1,0,0.1,0,0.2,0.1c0,0,0.1,0.1,0.1,0.2c0,0.1,0,0.2-0.1,0.3c-0.1,0.1-0.2,0.1-0.3,0.1h-1.3
		c-0.1,0.5-0.2,1.1-0.2,1.6c0,0.7,0.1,1.2,0.3,1.8c0,0,0,0.1,0,0.1c0,0.1,0,0.1-0.1,0.2c0,0.1-0.1,0.1-0.2,0.2
		c-0.1,0-0.1,0.1-0.2,0.1c-0.2,0-0.3-0.1-0.4-0.4s-0.1-0.6-0.1-0.8c0-0.4,0-0.8,0.1-1.1c0.1-0.4,0.2-0.8,0.3-1.5h-1.1
		c-0.5,2.2-0.9,3.4-1,3.6c-0.1,0.2-0.2,0.3-0.4,0.3c-0.1,0-0.2,0-0.2-0.1C363.7,285.3,363.7,285.2,363.7,285.1L363.7,285.1z"/>
	<path class="st1" d="M39.8,270.9V14.1 M365.6,270.9V14.1 M39.8,270.9h3.3 M39.8,242.4h3.3 M39.8,213.8h3.3 M39.8,185.3h3.3
		 M39.8,156.8h3.3 M39.8,128.2h3.3 M39.8,99.7h3.3 M39.8,71.2h3.3 M39.8,42.6h3.3 M39.8,14.1h3.3 M365.6,270.9h-3.3 M365.6,242.4
		h-3.3 M365.6,213.8h-3.3 M365.6,185.3h-3.3 M365.6,156.8h-3.3 M365.6,128.2h-3.3 M365.6,99.7h-3.3 M365.6,71.2h-3.3 M365.6,42.6
		h-3.3 M365.6,14.1h-3.3"/>
	<g>
		<path class="st2" d="M15.9,271.6h2.5v0.9h-2.5V271.6z"/>
		<path class="st2" d="M21.4,269.8h-1.6v-0.7c0.5,0,0.9-0.1,1.2-0.3c0.3-0.2,0.5-0.6,0.7-1h0.7v7h-0.5h-0.5V269.8z"/>
		<path class="st2" d="M28.3,271.1c0.2,0.1,0.4,0.2,0.5,0.3c0.4,0.4,0.7,0.8,0.7,1.4c0,0.7-0.2,1.2-0.7,1.6s-1,0.6-1.7,0.6
			s-1.3-0.2-1.7-0.6s-0.7-0.9-0.7-1.6c0-0.6,0.2-1.1,0.7-1.4c0.2-0.1,0.3-0.2,0.5-0.3c-0.1-0.1-0.2-0.1-0.3-0.2
			c-0.4-0.3-0.6-0.7-0.6-1.2c0-0.6,0.2-1,0.6-1.4s0.9-0.5,1.6-0.5s1.2,0.2,1.6,0.5s0.6,0.8,0.6,1.4c0,0.5-0.2,0.9-0.6,1.2
			C28.6,271,28.4,271,28.3,271.1z M27.1,271.5c-0.4,0-0.8,0.1-1.1,0.4c-0.3,0.3-0.4,0.6-0.4,1c0,0.4,0.1,0.7,0.4,1s0.6,0.4,1.1,0.4
			s0.8-0.1,1.1-0.4s0.4-0.6,0.4-1c0-0.4-0.1-0.7-0.4-1C27.9,271.6,27.5,271.5,27.1,271.5z M27.1,270.7c0.4,0,0.7-0.1,0.9-0.3
			s0.3-0.5,0.3-0.8s-0.1-0.6-0.3-0.8s-0.5-0.3-0.9-0.3s-0.7,0.1-0.9,0.3s-0.3,0.5-0.3,0.8s0.1,0.6,0.3,0.8
			C26.5,270.6,26.7,270.7,27.1,270.7z"/>
		<path class="st2" d="M30.9,274.1c-0.4-0.6-0.6-1.5-0.6-2.7s0.2-2,0.6-2.7c0.4-0.6,1-0.9,1.8-0.9c0.8,0,1.4,0.3,1.8,0.9
			c0.4,0.6,0.6,1.5,0.6,2.7s-0.2,2-0.6,2.7s-1,0.9-1.8,0.9C31.9,275,31.3,274.7,30.9,274.1z M33.8,273.5c0.2-0.5,0.4-1.2,0.4-2.1
			c0-0.9-0.1-1.6-0.4-2.1c-0.2-0.5-0.6-0.7-1.1-0.7c-0.5,0-0.9,0.2-1.1,0.7c-0.2,0.5-0.4,1.2-0.4,2.1c0,0.9,0.1,1.6,0.4,2.1
			s0.6,0.7,1.1,0.7C33.2,274.2,33.5,274,33.8,273.5z"/>
	</g>
	<g>
		<path class="st2" d="M15.9,243.1h2.5v0.9h-2.5V243.1z"/>
		<path class="st2" d="M21.4,241.3h-1.6v-0.7c0.5,0,0.9-0.1,1.2-0.3c0.3-0.2,0.5-0.6,0.7-1h0.7v7h-0.5h-0.5V241.3z"/>
		<path class="st2" d="M27.3,239.2c0.6,0,1.1,0.2,1.5,0.5c0.4,0.3,0.6,0.8,0.6,1.4h-0.9c0-0.3-0.2-0.6-0.4-0.8s-0.5-0.3-0.8-0.3
			c-0.5,0-1,0.3-1.3,0.8c-0.3,0.4-0.4,1.1-0.4,1.8c0.4-0.6,1-0.8,1.7-0.8c0.7,0,1.2,0.2,1.6,0.6c0.4,0.4,0.6,1,0.6,1.7
			s-0.2,1.3-0.7,1.7s-1,0.6-1.7,0.6c-0.8,0-1.4-0.3-1.8-0.9c-0.4-0.6-0.6-1.4-0.6-2.5c0-1.2,0.2-2.2,0.7-2.8
			C25.8,239.6,26.5,239.2,27.3,239.2z M25.7,244.1c0,0.5,0.1,0.8,0.4,1.1s0.6,0.4,1,0.4s0.8-0.1,1-0.4s0.4-0.7,0.4-1.1
			s-0.1-0.8-0.4-1.1s-0.6-0.4-1-0.4s-0.8,0.1-1,0.4C25.9,243.3,25.7,243.7,25.7,244.1z"/>
		<path class="st2" d="M30.9,245.5c-0.4-0.6-0.6-1.5-0.6-2.7s0.2-2,0.6-2.7c0.4-0.6,1-0.9,1.8-0.9c0.8,0,1.4,0.3,1.8,0.9
			c0.4,0.6,0.6,1.5,0.6,2.7s-0.2,2-0.6,2.7s-1,0.9-1.8,0.9C31.9,246.5,31.3,246.2,30.9,245.5z M33.8,245c0.2-0.5,0.4-1.2,0.4-2.1
			c0-0.9-0.1-1.6-0.4-2.1c-0.2-0.5-0.6-0.7-1.1-0.7c-0.5,0-0.9,0.2-1.1,0.7c-0.2,0.5-0.4,1.2-0.4,2.1c0,0.9,0.1,1.6,0.4,2.1
			s0.6,0.7,1.1,0.7C33.2,245.7,33.5,245.4,33.8,245z"/>
	</g>
	<g>
		<path class="st2" d="M15.9,214.5h2.5v0.9h-2.5V214.5z"/>
		<path class="st2" d="M21.4,212.8h-1.6V212c0.5,0,0.9-0.1,1.2-0.3c0.3-0.2,0.5-0.6,0.7-1h0.7v7h-0.5h-0.5V212.8z"/>
		<path class="st2" d="M24.6,216.1v-0.4v-0.4l3.3-4.5h0.4h0.4v4.6h1v0.8h-1v1.7h-0.9v-1.7H24.6z M27.7,215.3v-3.2l-2.2,3.1l0,0.1
			H27.7z"/>
		<path class="st2" d="M30.9,217c-0.4-0.6-0.6-1.5-0.6-2.7s0.2-2,0.6-2.7c0.4-0.6,1-0.9,1.8-0.9c0.8,0,1.4,0.3,1.8,0.9
			c0.4,0.6,0.6,1.5,0.6,2.7s-0.2,2-0.6,2.7s-1,0.9-1.8,0.9C31.9,217.9,31.3,217.6,30.9,217z M33.8,216.4c0.2-0.5,0.4-1.2,0.4-2.1
			c0-0.9-0.1-1.6-0.4-2.1c-0.2-0.5-0.6-0.7-1.1-0.7c-0.5,0-0.9,0.2-1.1,0.7c-0.2,0.5-0.4,1.2-0.4,2.1c0,0.9,0.1,1.6,0.4,2.1
			s0.6,0.7,1.1,0.7C33.2,217.1,33.5,216.9,33.8,216.4z"/>
	</g>
	<g>
		<path class="st2" d="M15.9,186h2.5v0.9h-2.5V186z"/>
		<path class="st2" d="M21.4,184.2h-1.6v-0.7c0.5,0,0.9-0.1,1.2-0.3c0.3-0.2,0.5-0.6,0.7-1h0.7v7h-0.5h-0.5V184.2z"/>
		<path class="st2" d="M29.4,184.2c0,0.5-0.1,0.9-0.4,1.3c-0.3,0.3-0.8,0.7-1.5,1.1c-0.8,0.4-1.3,0.8-1.6,1.2
			c-0.1,0.2-0.2,0.3-0.3,0.5h3.8v0.9h-4.8v0c0-0.7,0.2-1.3,0.6-1.8c0.4-0.5,1.1-1,2.1-1.5c0.5-0.3,0.8-0.5,1-0.8
			c0.2-0.2,0.3-0.5,0.3-0.9c0-0.4-0.1-0.7-0.4-0.9c-0.3-0.2-0.6-0.4-1-0.4c-0.4,0-0.8,0.1-1,0.4s-0.4,0.7-0.4,1.3h-0.9
			c0-0.8,0.2-1.4,0.6-1.8c0.4-0.4,1-0.7,1.8-0.7c0.7,0,1.2,0.2,1.6,0.6C29.2,183.1,29.4,183.6,29.4,184.2z"/>
		<path class="st2" d="M30.9,188.5c-0.4-0.6-0.6-1.5-0.6-2.7s0.2-2,0.6-2.7c0.4-0.6,1-0.9,1.8-0.9c0.8,0,1.4,0.3,1.8,0.9
			c0.4,0.6,0.6,1.5,0.6,2.7s-0.2,2-0.6,2.7s-1,0.9-1.8,0.9C31.9,189.4,31.3,189.1,30.9,188.5z M33.8,187.9c0.2-0.5,0.4-1.2,0.4-2.1
			c0-0.9-0.1-1.6-0.4-2.1c-0.2-0.5-0.6-0.7-1.1-0.7c-0.5,0-0.9,0.2-1.1,0.7c-0.2,0.5-0.4,1.2-0.4,2.1c0,0.9,0.1,1.6,0.4,2.1
			s0.6,0.7,1.1,0.7C33.2,188.6,33.5,188.4,33.8,187.9z"/>
	</g>
	<g>
		<path class="st2" d="M15.9,157.5h2.5v0.9h-2.5V157.5z"/>
		<path class="st2" d="M21.4,155.7h-1.6V155c0.5,0,0.9-0.1,1.2-0.3c0.3-0.2,0.5-0.6,0.7-1h0.7v7h-0.5h-0.5V155.7z"/>
		<path class="st2" d="M25.3,159.9c-0.4-0.6-0.6-1.5-0.6-2.7s0.2-2,0.6-2.7c0.4-0.6,1-0.9,1.8-0.9c0.8,0,1.4,0.3,1.8,0.9
			c0.4,0.6,0.6,1.5,0.6,2.7s-0.2,2-0.6,2.7s-1,0.9-1.8,0.9C26.3,160.9,25.7,160.6,25.3,159.9z M28.2,159.4c0.2-0.5,0.4-1.2,0.4-2.1
			c0-0.9-0.1-1.6-0.4-2.1c-0.2-0.5-0.6-0.7-1.1-0.7c-0.5,0-0.9,0.2-1.1,0.7c-0.2,0.5-0.4,1.2-0.4,2.1c0,0.9,0.1,1.6,0.4,2.1
			s0.6,0.7,1.1,0.7C27.6,160.1,28,159.8,28.2,159.4z"/>
		<path class="st2" d="M30.9,159.9c-0.4-0.6-0.6-1.5-0.6-2.7s0.2-2,0.6-2.7c0.4-0.6,1-0.9,1.8-0.9c0.8,0,1.4,0.3,1.8,0.9
			c0.4,0.6,0.6,1.5,0.6,2.7s-0.2,2-0.6,2.7s-1,0.9-1.8,0.9C31.9,160.9,31.3,160.6,30.9,159.9z M33.8,159.4c0.2-0.5,0.4-1.2,0.4-2.1
			c0-0.9-0.1-1.6-0.4-2.1c-0.2-0.5-0.6-0.7-1.1-0.7c-0.5,0-0.9,0.2-1.1,0.7c-0.2,0.5-0.4,1.2-0.4,2.1c0,0.9,0.1,1.6,0.4,2.1
			s0.6,0.7,1.1,0.7C33.2,160.1,33.5,159.8,33.8,159.4z"/>
	</g>
	<g>
		<path class="st2" d="M21.3,128.9h2.5v0.9h-2.5V128.9z"/>
		<path class="st2" d="M28.2,128.4c0.2,0.1,0.4,0.2,0.5,0.3c0.4,0.4,0.7,0.8,0.7,1.4c0,0.7-0.2,1.2-0.7,1.6s-1,0.6-1.7,0.6
			s-1.3-0.2-1.7-0.6s-0.7-0.9-0.7-1.6c0-0.6,0.2-1.1,0.7-1.4c0.2-0.1,0.3-0.2,0.5-0.3c-0.1-0.1-0.2-0.1-0.3-0.2
			c-0.4-0.3-0.6-0.7-0.6-1.2c0-0.6,0.2-1,0.6-1.4s0.9-0.5,1.6-0.5s1.2,0.2,1.6,0.5s0.6,0.8,0.6,1.4c0,0.5-0.2,0.9-0.6,1.2
			C28.4,128.3,28.3,128.4,28.2,128.4z M26.9,128.8c-0.4,0-0.8,0.1-1.1,0.4s-0.4,0.6-0.4,1c0,0.4,0.1,0.7,0.4,1s0.6,0.4,1.1,0.4
			s0.8-0.1,1.1-0.4s0.4-0.6,0.4-1c0-0.4-0.1-0.7-0.4-1C27.7,128.9,27.4,128.8,26.9,128.8z M26.9,128.1c0.4,0,0.7-0.1,0.9-0.3
			s0.3-0.5,0.3-0.8s-0.1-0.6-0.3-0.8c-0.2-0.2-0.5-0.3-0.9-0.3s-0.7,0.1-0.9,0.3c-0.2,0.2-0.3,0.5-0.3,0.8s0.1,0.6,0.3,0.8
			C26.3,128,26.6,128.1,26.9,128.1z"/>
		<path class="st2" d="M30.7,131.4c-0.4-0.6-0.6-1.5-0.6-2.7s0.2-2,0.6-2.7c0.4-0.6,1-0.9,1.8-0.9c0.8,0,1.4,0.3,1.8,0.9
			c0.4,0.6,0.6,1.5,0.6,2.7s-0.2,2-0.6,2.7s-1,0.9-1.8,0.9C31.7,132.3,31.1,132,30.7,131.4z M33.6,130.8c0.2-0.5,0.4-1.2,0.4-2.1
			c0-0.9-0.1-1.6-0.4-2.1c-0.2-0.5-0.6-0.7-1.1-0.7c-0.5,0-0.9,0.2-1.1,0.7c-0.2,0.5-0.4,1.2-0.4,2.1c0,0.9,0.1,1.6,0.4,2.1
			s0.6,0.7,1.1,0.7C33,131.5,33.4,131.3,33.6,130.8z"/>
	</g>
	<g>
		<path class="st2" d="M21.3,100.4h2.5v0.9h-2.5V100.4z"/>
		<path class="st2" d="M27.1,96.6c0.6,0,1.1,0.2,1.5,0.5c0.4,0.3,0.6,0.8,0.6,1.4h-0.9c0-0.3-0.2-0.6-0.4-0.8
			c-0.2-0.2-0.5-0.3-0.8-0.3c-0.5,0-1,0.3-1.3,0.8c-0.3,0.4-0.4,1.1-0.4,1.8c0.4-0.6,1-0.8,1.7-0.8c0.7,0,1.2,0.2,1.6,0.6
			s0.6,1,0.6,1.7s-0.2,1.3-0.7,1.7s-1,0.6-1.7,0.6c-0.8,0-1.4-0.3-1.8-0.9s-0.6-1.4-0.6-2.5c0-1.2,0.2-2.2,0.7-2.8
			C25.7,96.9,26.3,96.6,27.1,96.6z M25.6,101.5c0,0.5,0.1,0.8,0.4,1.1s0.6,0.4,1,0.4s0.8-0.1,1-0.4s0.4-0.7,0.4-1.1
			s-0.1-0.8-0.4-1.1s-0.6-0.4-1-0.4s-0.8,0.1-1,0.4C25.7,100.6,25.6,101,25.6,101.5z"/>
		<path class="st2" d="M30.7,102.9c-0.4-0.6-0.6-1.5-0.6-2.7s0.2-2,0.6-2.7c0.4-0.6,1-0.9,1.8-0.9c0.8,0,1.4,0.3,1.8,0.9
			c0.4,0.6,0.6,1.5,0.6,2.7s-0.2,2-0.6,2.7s-1,0.9-1.8,0.9C31.7,103.8,31.1,103.5,30.7,102.9z M33.6,102.3c0.2-0.5,0.4-1.2,0.4-2.1
			c0-0.9-0.1-1.6-0.4-2.1c-0.2-0.5-0.6-0.7-1.1-0.7c-0.5,0-0.9,0.2-1.1,0.7c-0.2,0.5-0.4,1.2-0.4,2.1c0,0.9,0.1,1.6,0.4,2.1
			s0.6,0.7,1.1,0.7C33,103,33.4,102.8,33.6,102.3z"/>
	</g>
	<g>
		<path class="st2" d="M21.3,71.9h2.5v0.9h-2.5V71.9z"/>
		<path class="st2" d="M24.4,73.4V73v-0.4l3.3-4.5H28h0.4v4.6h1v0.8h-1v1.7h-0.9v-1.7H24.4z M27.5,72.6v-3.2l-2.2,3.1l0,0.1H27.5z"
			/>
		<path class="st2" d="M30.7,74.3c-0.4-0.6-0.6-1.5-0.6-2.7s0.2-2,0.6-2.7c0.4-0.6,1-0.9,1.8-0.9c0.8,0,1.4,0.3,1.8,0.9
			c0.4,0.6,0.6,1.5,0.6,2.7s-0.2,2-0.6,2.7s-1,0.9-1.8,0.9C31.7,75.3,31.1,75,30.7,74.3z M33.6,73.8c0.2-0.5,0.4-1.2,0.4-2.1
			c0-0.9-0.1-1.6-0.4-2.1c-0.2-0.5-0.6-0.7-1.1-0.7c-0.5,0-0.9,0.2-1.1,0.7C31.2,70,31,70.7,31,71.7c0,0.9,0.1,1.6,0.4,2.1
			s0.6,0.7,1.1,0.7C33,74.5,33.4,74.2,33.6,73.8z"/>
	</g>
	<g>
		<path class="st2" d="M21.3,43.3h2.5v0.9h-2.5V43.3z"/>
		<path class="st2" d="M29.2,41.6c0,0.5-0.1,0.9-0.4,1.3s-0.8,0.7-1.5,1.1c-0.8,0.4-1.3,0.8-1.6,1.2c-0.1,0.2-0.2,0.3-0.3,0.5h3.8
			v0.9h-4.8v0c0-0.7,0.2-1.3,0.6-1.8s1.1-1,2.1-1.5c0.5-0.3,0.8-0.5,1-0.8c0.2-0.2,0.3-0.5,0.3-0.9c0-0.4-0.1-0.7-0.4-0.9
			s-0.6-0.4-1-0.4c-0.4,0-0.8,0.1-1,0.4c-0.2,0.3-0.4,0.7-0.4,1.3h-0.9c0-0.8,0.2-1.4,0.6-1.8c0.4-0.4,1-0.7,1.8-0.7
			c0.7,0,1.2,0.2,1.6,0.6C29,40.5,29.2,41,29.2,41.6z"/>
		<path class="st2" d="M30.7,45.8c-0.4-0.6-0.6-1.5-0.6-2.7s0.2-2,0.6-2.7c0.4-0.6,1-0.9,1.8-0.9c0.8,0,1.4,0.3,1.8,0.9
			c0.4,0.6,0.6,1.5,0.6,2.7s-0.2,2-0.6,2.7s-1,0.9-1.8,0.9C31.7,46.7,31.1,46.4,30.7,45.8z M33.6,45.2c0.2-0.5,0.4-1.2,0.4-2.1
			c0-0.9-0.1-1.6-0.4-2.1c-0.2-0.5-0.6-0.7-1.1-0.7c-0.5,0-0.9,0.2-1.1,0.7c-0.2,0.5-0.4,1.2-0.4,2.1c0,0.9,0.1,1.6,0.4,2.1
			s0.6,0.7,1.1,0.7C33,45.9,33.4,45.7,33.6,45.2z"/>
	</g>
	<g>
		<path class="st2" d="M30.8,17.3c-0.4-0.6-0.6-1.5-0.6-2.7s0.2-2,0.6-2.7c0.4-0.6,1-0.9,1.8-0.9c0.8,0,1.4,0.3,1.8,0.9
			c0.4,0.6,0.6,1.5,0.6,2.7s-0.2,2-0.6,2.7s-1,0.9-1.8,0.9C31.9,18.2,31.3,17.9,30.8,17.3z M33.7,16.7c0.2-0.5,0.4-1.2,0.4-2.1
			c0-0.9-0.1-1.6-0.4-2.1c-0.2-0.5-0.6-0.7-1.1-0.7c-0.5,0-0.9,0.2-1.1,0.7c-0.2,0.5-0.4,1.2-0.4,2.1c0,0.9,0.1,1.6,0.4,2.1
			s0.6,0.7,1.1,0.7C33.1,17.4,33.5,17.2,33.7,16.7z"/>
	</g>
	<g>
		<path class="st2" d="M9.4,177.9v0.5v0.5H1.6v-0.8v-0.8l6.7-2.3l-6.7-2.2v-0.8v-0.8h7.9v0.5v0.5H2.8v0l6.7,2.2v0.5v0.5l-6.7,2.2v0
			H9.4z"/>
		<path class="st2" d="M9.6,168.3c0,0.6-0.2,1-0.5,1.3s-0.7,0.5-1.2,0.5c-0.5,0-0.9-0.2-1.2-0.5s-0.5-0.8-0.6-1.4L6,167
			c0-0.1,0-0.2-0.1-0.3c0-0.1-0.1-0.2-0.2-0.3c-0.1-0.1-0.2-0.1-0.4-0.1h0c-0.3,0-0.5,0.1-0.7,0.3c-0.2,0.2-0.3,0.6-0.3,1
			c0,0.4,0.1,0.7,0.3,0.9c0.2,0.2,0.5,0.4,0.8,0.4v0.9c-0.6,0-1.1-0.3-1.4-0.7s-0.5-1-0.5-1.7c0-0.7,0.2-1.2,0.5-1.6
			c0.3-0.4,0.7-0.5,1.3-0.5h3.2c0.1,0,0.2,0,0.2-0.1c0.1-0.1,0.1-0.1,0.1-0.2c0,0,0-0.1,0-0.1c0-0.1,0-0.1,0-0.2h0.7
			c0,0.1,0.1,0.2,0.1,0.3c0,0.1,0,0.2,0,0.3c0,0.4-0.1,0.6-0.3,0.8c-0.1,0.1-0.3,0.2-0.6,0.2c0.1,0.1,0.2,0.2,0.3,0.2
			C9.4,167,9.6,167.6,9.6,168.3z M7.2,166.3H6.5c0.1,0.2,0.1,0.4,0.2,0.6l0.1,0.9c0.1,0.5,0.2,0.8,0.3,1c0.2,0.2,0.4,0.3,0.6,0.3
			c0.3,0,0.6-0.1,0.7-0.3c0.2-0.2,0.3-0.4,0.3-0.7c0-0.5-0.1-0.9-0.4-1.3c-0.2-0.2-0.4-0.4-0.7-0.5c0,0-0.1,0-0.2,0
			C7.4,166.3,7.3,166.3,7.2,166.3z"/>
		<path class="st2" d="M11.1,161.6c0-0.6-0.2-1-0.5-1.3s-0.9-0.4-1.5-0.4H8.8l0,0c0.5,0.4,0.8,0.9,0.8,1.6c0,0.8-0.3,1.4-0.9,1.8
			c-0.6,0.5-1.4,0.7-2.3,0.7c-0.9,0-1.6-0.2-2.1-0.7c-0.5-0.4-0.8-1-0.8-1.8c0-0.7,0.3-1.2,0.9-1.6l0.1-0.1H3.7v-0.9H9
			c1,0,1.7,0.2,2.2,0.7s0.7,1.1,0.7,2c0,0.7-0.2,1.2-0.5,1.6c-0.3,0.4-0.7,0.6-1.3,0.7v-1c0.3-0.1,0.5-0.2,0.7-0.4
			S11.1,161.9,11.1,161.6z M4.4,161.4c0,0.5,0.2,0.9,0.5,1.2s0.9,0.4,1.6,0.4c0.7,0,1.2-0.1,1.6-0.4s0.6-0.7,0.6-1.2
			c0-0.5-0.2-0.8-0.5-1.1c-0.4-0.3-0.8-0.4-1.4-0.4c-0.8,0-1.4,0.1-1.8,0.4C4.6,160.5,4.4,160.9,4.4,161.4z"/>
		<path class="st2" d="M3.7,157.6v-0.5v-0.5h0.8l-0.3-0.2c-0.5-0.4-0.7-0.9-0.7-1.6c0-0.6,0.2-1.1,0.5-1.5s0.8-0.5,1.5-0.5h3.9v0.5
			v0.5H5.8c-0.5,0-0.9,0.1-1.1,0.3c-0.2,0.2-0.3,0.5-0.3,0.9c0,0.5,0.2,0.8,0.5,1.1c0.4,0.3,0.8,0.4,1.4,0.4h3.1v0.5v0.5H3.7z"/>
		<path class="st2" d="M1.6,151.5v-1h1.1v1H1.6z M3.7,151.4V151v-0.5h5.7v0.5v0.5H3.7z"/>
		<path class="st2" d="M9.4,146.9c0.1,0.3,0.1,0.6,0.1,0.7c0,0.4-0.1,0.7-0.3,0.9c-0.2,0.2-0.5,0.3-1,0.3H4.5v0.8H3.7v-0.8H2.1v-1
			h1.6v-0.9h0.8v0.9h3.8c0.1,0,0.2-0.1,0.3-0.2s0.1-0.2,0.1-0.4v-0.3H9.4z"/>
		<path class="st2" d="M7.4,145c0.5,0,0.8-0.1,1-0.3c0.2-0.2,0.3-0.5,0.3-0.9c0-0.5-0.2-0.8-0.5-1.1c-0.4-0.3-0.8-0.4-1.5-0.4H3.7
			v-0.5v-0.5h5.7v0.5v0.5H8.6c0.1,0.1,0.2,0.1,0.3,0.2c0.5,0.4,0.7,0.9,0.7,1.5c0,0.7-0.2,1.1-0.5,1.5s-0.8,0.5-1.5,0.5H3.7v-0.5
			V145H7.4z"/>
		<path class="st2" d="M9.6,137.7c0,0.8-0.3,1.4-0.9,1.8s-1.4,0.7-2.3,0.7c-0.9,0-1.6-0.2-2.1-0.7c-0.5-0.4-0.8-1-0.8-1.7
			c0-0.7,0.3-1.3,0.9-1.7l0.1-0.1h-3v-0.5v-0.5h7.9v0.4v0.5H8.7l0.2,0.1C9.4,136.5,9.6,137,9.6,137.7z M4.4,137.6
			c0,0.5,0.2,0.9,0.5,1.2c0.3,0.3,0.9,0.4,1.6,0.4c0.7,0,1.3-0.1,1.6-0.4c0.4-0.3,0.6-0.7,0.6-1.2c0-0.5-0.2-0.8-0.5-1.1
			c-0.4-0.3-0.8-0.4-1.4-0.4c-0.8,0-1.4,0.1-1.8,0.4C4.6,136.7,4.4,137.1,4.4,137.6z"/>
		<path class="st2" d="M9.6,131.4c0,0.8-0.3,1.5-0.8,1.9S7.6,134,6.7,134c-1,0-1.7-0.2-2.3-0.7c-0.6-0.5-0.9-1.2-0.9-2
			c0-0.8,0.3-1.4,0.8-1.8s1.3-0.7,2.2-0.7l0.3,0v4.2c0.6,0,1-0.2,1.3-0.4c0.4-0.3,0.5-0.7,0.5-1.3c0-0.4-0.1-0.7-0.3-1
			c-0.2-0.3-0.5-0.4-0.8-0.5v-1c0.6,0.1,1.1,0.4,1.4,0.9C9.4,130.2,9.6,130.7,9.6,131.4z M6.1,129.8c-0.5,0-0.9,0.2-1.2,0.4
			c-0.3,0.3-0.5,0.6-0.5,1.1c0,0.5,0.2,0.9,0.6,1.2c0.3,0.2,0.7,0.4,1.2,0.4V129.8z"/>
		<path class="st2" d="M1.5,124.6v-2.1h0.8v1.2h8.6v-1.2h0.8v2.1H1.5z"/>
		<path class="st2" d="M9.6,119.3c0,0.8-0.3,1.4-0.9,1.8s-1.4,0.7-2.3,0.7c-0.9,0-1.6-0.2-2.1-0.7c-0.5-0.4-0.8-1-0.8-1.7
			c0-0.7,0.3-1.3,0.9-1.7l0.1-0.1h-3v-0.5v-0.5h7.9v0.4v0.5H8.7l0.2,0.1C9.4,118.2,9.6,118.7,9.6,119.3z M4.4,119.3
			c0,0.5,0.2,0.9,0.5,1.2c0.3,0.3,0.9,0.4,1.6,0.4c0.7,0,1.3-0.1,1.6-0.4c0.4-0.3,0.6-0.7,0.6-1.2c0-0.5-0.2-0.8-0.5-1.1
			c-0.4-0.3-0.8-0.4-1.4-0.4c-0.8,0-1.4,0.1-1.8,0.4C4.6,118.4,4.4,118.8,4.4,119.3z"/>
		<path class="st2" d="M1.6,115.3v-0.5v-2.9c0-0.7,0.2-1.2,0.5-1.6c0.3-0.4,0.8-0.6,1.4-0.6c0.7,0,1.2,0.2,1.5,0.7
			c0.1,0.1,0.2,0.2,0.2,0.4c0.1-0.3,0.2-0.5,0.3-0.7c0.4-0.5,0.9-0.8,1.6-0.8c0.7,0,1.3,0.3,1.7,0.8s0.6,1.2,0.6,2.1v2.7v0.5H1.6z
			 M4.9,114.2v-1.9c0-0.6-0.1-1-0.3-1.3s-0.5-0.4-1-0.4c-0.4,0-0.7,0.1-0.9,0.4s-0.3,0.6-0.3,1.2v2H4.9z M8.5,114.2v-2.2
			c0-0.6-0.1-1.1-0.4-1.3s-0.6-0.4-1.1-0.4c-0.4,0-0.8,0.1-1,0.4c-0.2,0.3-0.3,0.8-0.3,1.4v2.1H8.5z"/>
		<path class="st2" d="M11.6,106.4v2.1h-0.8v-1.2H2.3v1.2H1.5v-2.1H11.6z"/>
	</g>
	<g>
		<path class="st4" d="M154.7,1.6h5.6v1.4h-4v1.8h3.5v1.4h-3.5v3.3h-1.6V1.6z"/>
		<path class="st4" d="M164.5,3.5c0,0,0.1,0,0.1,0V5c-0.1,0-0.2,0-0.3,0c-0.1,0-0.1,0-0.2,0c-0.6,0-1,0.2-1.2,0.6
			c-0.1,0.2-0.2,0.6-0.2,1v2.8h-1.5V3.6h1.5v1c0.2-0.4,0.4-0.7,0.6-0.8C163.6,3.6,164,3.5,164.5,3.5C164.5,3.5,164.5,3.5,164.5,3.5z
			"/>
		<path class="st4" d="M169.4,3.7c0.4,0.2,0.7,0.5,1,0.9c0.2,0.3,0.4,0.8,0.5,1.2c0,0.3,0.1,0.7,0.1,1.2h-4.3c0,0.6,0.2,1,0.6,1.2
			c0.2,0.1,0.5,0.2,0.8,0.2c0.3,0,0.6-0.1,0.9-0.3c0.1-0.1,0.2-0.2,0.3-0.4h1.6c0,0.3-0.2,0.7-0.6,1.1c-0.5,0.6-1.3,0.9-2.2,0.9
			c-0.8,0-1.5-0.2-2.1-0.7c-0.6-0.5-0.9-1.3-0.9-2.3c0-1,0.3-1.8,0.8-2.3c0.5-0.5,1.2-0.8,2.1-0.8C168.5,3.4,169,3.5,169.4,3.7z
			 M167.1,5c-0.2,0.2-0.4,0.5-0.4,0.9h2.6c0-0.4-0.2-0.7-0.4-0.9c-0.2-0.2-0.5-0.3-0.9-0.3C167.6,4.7,167.3,4.8,167.1,5z"/>
		<path class="st4" d="M175,3.8c0.2,0.1,0.4,0.4,0.5,0.7V3.6h1.5v8.2h-1.5v-3c-0.1,0.2-0.3,0.4-0.6,0.6c-0.3,0.2-0.7,0.3-1.1,0.3
			c-0.7,0-1.3-0.3-1.7-0.8c-0.5-0.5-0.7-1.3-0.7-2.2c0-1,0.2-1.8,0.7-2.3s1.1-0.9,1.8-0.9C174.3,3.4,174.7,3.6,175,3.8z M175.3,7.7
			c0.1-0.3,0.2-0.7,0.2-1.1c0-0.4-0.1-0.7-0.2-1c-0.2-0.5-0.6-0.8-1.2-0.8c-0.4,0-0.7,0.1-0.9,0.4c-0.2,0.3-0.4,0.7-0.4,1.4
			c0,0.4,0.1,0.7,0.2,1c0.2,0.5,0.6,0.7,1.1,0.7C174.7,8.3,175.1,8.1,175.3,7.7z"/>
		<path class="st4" d="M179.9,3.6v3.5c0,0.3,0,0.6,0.1,0.8c0.1,0.3,0.4,0.4,0.8,0.4c0.5,0,0.9-0.2,1.1-0.6c0.1-0.2,0.1-0.5,0.1-0.9
			V3.6h1.6v5.9h-1.5V8.6c0,0-0.1,0.1-0.1,0.2C182,8.9,181.9,9,181.8,9c-0.2,0.2-0.5,0.4-0.7,0.4s-0.5,0.1-0.8,0.1
			c-0.9,0-1.4-0.3-1.7-0.9c-0.2-0.3-0.3-0.9-0.3-1.5V3.6H179.9z"/>
		<path class="st4" d="M188.9,3.7c0.4,0.2,0.7,0.5,1,0.9c0.2,0.3,0.4,0.8,0.5,1.2c0,0.3,0.1,0.7,0.1,1.2h-4.3c0,0.6,0.2,1,0.6,1.2
			c0.2,0.1,0.5,0.2,0.8,0.2c0.3,0,0.6-0.1,0.9-0.3c0.1-0.1,0.2-0.2,0.3-0.4h1.6c0,0.3-0.2,0.7-0.6,1.1c-0.5,0.6-1.3,0.9-2.2,0.9
			c-0.8,0-1.5-0.2-2.1-0.7c-0.6-0.5-0.9-1.3-0.9-2.3c0-1,0.3-1.8,0.8-2.3c0.5-0.5,1.2-0.8,2.1-0.8C188.1,3.4,188.5,3.5,188.9,3.7z
			 M186.6,5c-0.2,0.2-0.4,0.5-0.4,0.9h2.6c0-0.4-0.2-0.7-0.4-0.9c-0.2-0.2-0.5-0.3-0.9-0.3C187.2,4.7,186.9,4.8,186.6,5z"/>
		<path class="st4" d="M196,3.9c0.4,0.3,0.6,0.8,0.6,1.6v3.9H195V5.9c0-0.3,0-0.5-0.1-0.7c-0.1-0.3-0.4-0.5-0.9-0.5
			c-0.5,0-0.9,0.2-1.1,0.7c-0.1,0.2-0.1,0.5-0.1,0.9v3.2h-1.5V3.6h1.5v0.9c0.2-0.3,0.4-0.5,0.6-0.6c0.3-0.2,0.7-0.4,1.2-0.4
			C195.1,3.5,195.6,3.6,196,3.9z"/>
		<path class="st4" d="M201.5,5.7c0-0.2-0.1-0.4-0.2-0.6c-0.2-0.2-0.4-0.4-0.8-0.4c-0.5,0-0.9,0.3-1.1,0.8c-0.1,0.3-0.2,0.6-0.2,1.1
			c0,0.4,0.1,0.8,0.2,1c0.2,0.5,0.5,0.7,1,0.7c0.4,0,0.6-0.1,0.8-0.3c0.2-0.2,0.2-0.4,0.3-0.8h1.6c0,0.5-0.2,0.9-0.5,1.3
			c-0.5,0.7-1.2,1-2.1,1c-0.9,0-1.6-0.3-2.1-0.8s-0.7-1.3-0.7-2.2c0-1,0.2-1.8,0.7-2.3c0.5-0.6,1.2-0.8,2-0.8c0.7,0,1.3,0.2,1.8,0.5
			c0.5,0.3,0.7,0.9,0.8,1.7H201.5z"/>
		<path class="st4" d="M204.3,10.6l0.2,0c0.2,0,0.3,0,0.4,0s0.3-0.1,0.3-0.1c0.1-0.1,0.2-0.2,0.3-0.4s0.1-0.3,0.1-0.4l-2.2-6.1h1.7
			l1.3,4.3l1.2-4.3h1.6l-2,5.8c-0.4,1.1-0.7,1.8-0.9,2.1c-0.2,0.3-0.7,0.4-1.4,0.4c-0.1,0-0.2,0-0.3,0c-0.1,0-0.2,0-0.4,0V10.6z"/>
		<path class="st4" d="M216.3,3.7c0.3,0.2,0.5,0.4,0.7,0.6V1.6h1.6v7.9h-1.5V8.6c-0.2,0.3-0.5,0.6-0.7,0.8s-0.6,0.2-1,0.2
			c-0.7,0-1.3-0.3-1.7-0.8c-0.5-0.6-0.7-1.3-0.7-2.1c0-1,0.2-1.8,0.7-2.4c0.5-0.6,1.1-0.9,1.8-0.9C215.8,3.5,216.1,3.5,216.3,3.7z
			 M216.7,7.9c0.2-0.3,0.3-0.7,0.3-1.3c0-0.7-0.2-1.2-0.5-1.5c-0.2-0.2-0.5-0.3-0.8-0.3c-0.4,0-0.8,0.2-1,0.5
			c-0.2,0.3-0.3,0.8-0.3,1.3c0,0.5,0.1,1,0.3,1.3c0.2,0.3,0.5,0.5,1,0.5C216.2,8.4,216.5,8.2,216.7,7.9z"/>
		<path class="st4" d="M224.8,8.7c-0.5,0.6-1.2,0.9-2.3,0.9c-1,0-1.8-0.3-2.3-0.9s-0.7-1.3-0.7-2.2c0-0.8,0.2-1.6,0.7-2.2
			c0.5-0.6,1.2-0.9,2.3-0.9c1,0,1.8,0.3,2.3,0.9c0.5,0.6,0.7,1.4,0.7,2.2C225.6,7.4,225.3,8.1,224.8,8.7z M223.6,7.9
			c0.2-0.3,0.4-0.8,0.4-1.4s-0.1-1-0.4-1.4s-0.6-0.5-1-0.5s-0.8,0.2-1,0.5c-0.2,0.3-0.4,0.8-0.4,1.4s0.1,1,0.4,1.4
			c0.2,0.3,0.6,0.5,1,0.5S223.4,8.2,223.6,7.9z"/>
		<path class="st4" d="M234,3.6c0.3,0.1,0.5,0.3,0.7,0.5c0.2,0.2,0.3,0.5,0.3,0.8c0,0.2,0.1,0.5,0.1,0.9l0,3.7h-1.6V5.7
			c0-0.2,0-0.4-0.1-0.5c-0.1-0.3-0.4-0.4-0.8-0.4c-0.4,0-0.7,0.2-0.9,0.5c-0.1,0.2-0.1,0.4-0.1,0.7v3.5h-1.5V6c0-0.3,0-0.6-0.1-0.8
			c-0.1-0.3-0.4-0.4-0.8-0.4c-0.4,0-0.7,0.1-0.9,0.4c-0.1,0.2-0.1,0.4-0.1,0.7v3.5h-1.6V3.6h1.5v0.9c0.2-0.3,0.4-0.5,0.5-0.6
			c0.3-0.2,0.7-0.3,1.2-0.3c0.4,0,0.8,0.1,1.1,0.3c0.2,0.2,0.4,0.4,0.5,0.7c0.2-0.3,0.4-0.6,0.7-0.8c0.3-0.2,0.7-0.2,1.1-0.2
			C233.5,3.5,233.7,3.5,234,3.6z"/>
		<path class="st4" d="M238.8,5.9c0.3,0,0.5-0.1,0.6-0.1c0.2-0.1,0.3-0.2,0.3-0.4c0-0.2-0.1-0.4-0.3-0.5c-0.2-0.1-0.4-0.1-0.7-0.1
			c-0.4,0-0.6,0.1-0.8,0.3c-0.1,0.1-0.2,0.3-0.2,0.5h-1.5c0-0.5,0.2-0.9,0.4-1.3c0.4-0.5,1.1-0.8,2.1-0.8c0.6,0,1.2,0.1,1.7,0.4
			c0.5,0.3,0.7,0.7,0.7,1.4V8c0,0.2,0,0.4,0,0.7c0,0.2,0,0.3,0.1,0.4s0.1,0.1,0.2,0.2v0.2h-1.7c0-0.1-0.1-0.2-0.1-0.3s0-0.2,0-0.4
			c-0.2,0.2-0.5,0.4-0.7,0.6c-0.3,0.2-0.7,0.3-1.1,0.3c-0.5,0-1-0.2-1.3-0.5c-0.3-0.3-0.5-0.7-0.5-1.3c0-0.7,0.3-1.2,0.8-1.6
			c0.3-0.2,0.8-0.3,1.4-0.4L238.8,5.9z M239.7,6.6c-0.1,0.1-0.2,0.1-0.3,0.1c-0.1,0-0.2,0.1-0.4,0.1l-0.3,0.1
			c-0.3,0.1-0.6,0.1-0.7,0.2c-0.2,0.1-0.4,0.4-0.4,0.6c0,0.3,0.1,0.5,0.2,0.6c0.1,0.1,0.3,0.2,0.5,0.2c0.3,0,0.6-0.1,0.9-0.3
			c0.3-0.2,0.4-0.5,0.4-1.1V6.6z"/>
		<path class="st4" d="M244.2,2.9h-1.6V1.5h1.6V2.9z M242.6,3.6h1.6v5.9h-1.6V3.6z"/>
		<path class="st4" d="M250.4,3.9c0.4,0.3,0.6,0.8,0.6,1.6v3.9h-1.6V5.9c0-0.3,0-0.5-0.1-0.7c-0.1-0.3-0.4-0.5-0.9-0.5
			c-0.5,0-0.9,0.2-1.1,0.7c-0.1,0.2-0.1,0.5-0.1,0.9v3.2h-1.5V3.6h1.5v0.9c0.2-0.3,0.4-0.5,0.6-0.6c0.3-0.2,0.7-0.4,1.2-0.4
			C249.5,3.5,250,3.6,250.4,3.9z"/>
	</g>
	<path class="st5" d="M39.8,255.8l1.1-0.4l1.1-1l1.1-1.3l1.1-1.5l1.1-1.5l1.1-1.5l1.1-1.4l1.1-1.3l1.1-1.2l1.1-1.2l1.1-1.1l1.1-1
		l1.1-1l1.1-0.9l1.1-0.9l1.1-0.9l1.1-0.8l1.1-0.8l1.1-0.8l1.1-0.8l1.1-0.7L63,233l1.1-0.7l1.1-0.7l1.1-0.7l1.1-0.7l1.1-0.7l1.1-0.6
		l1.1-0.6l1.1-0.6l1.1-0.6l1.1-0.6l1.1-0.6l1.1-0.6l1.1-0.6l1.1-0.6l1.1-0.6l1.1-0.6l1.1-0.6l1.1-0.6l1.1-0.6l1.1-0.6l1.1-0.6
		l1.1-0.6l1.1-0.6l1.1-0.6l1.1-0.6l1.1-0.6l1.1-0.6l1.1-0.6l1.1-0.6l1.1-0.6l1.1-0.6l1.1-0.6l1.1-0.6l1.1-0.7l1.1-0.7l1.1-0.7
		l1.1-0.7l1.1-0.7l1.1-0.7l1.1-0.7l1.1-0.7l1.1-0.7l1.1-0.7l1.1-0.7l1.1-0.7l1.1-0.7l1.1-0.8l1.1-0.8l1.1-0.8l1.1-0.8l1.1-0.8
		l1.1-0.8l1.1-0.8l1.1-0.8l1.1-0.9l1.1-0.9l1.1-0.9l1.1-0.9l1.1-0.9l1.1-0.9l1.1-1l1.1-1l1.1-1l1.1-1l1.1-1.1l1.1-1.1l1.1-1.1
		l1.1-1.1l1.1-1.2l1.1-1.2l1.1-1.2l1.1-1.3l1.1-1.3l1.1-1.4l1.1-1.4l1.1-1.4l1.1-1.5l1.1-1.6l1.1-1.6l1.1-1.7l1.1-1.8l1.1-1.9
		l1.1-1.9l1.1-2l1.1-2.2l1.1-2.3l1.1-2.4l1.1-2.6l1.1-2.8l1.1-3l1.1-3.3l1.1-3.6l1.1-3.9l1.1-4.4l1.1-5l1.1-5.7l1.1-6.8l1.1-8.3
		L167,92l1.1-15.2l1.1-33.3l1.1-20.8l1.1-7.4l1-1.2 M172.8,14.1l0.6,0.1l1.1,0l1.1,0l1.1,0l1.1,0l1.1,0l1.1,0l1.1,0l1.1,0l1.1,0
		l1.1,0h1.1h1.1h1.1h1.1h1.1h1.1h1.1h1.1h1.1h1.1h1.1h1.1h1.1h1.1h1.1h1.1h1.1h1.1h1.1h1.1h1.1h1.1h1.1h1.1h1.1h1.1h1.1h1.1h1.1h1.1
		h1.1h1.1h1.1h1.1h1.1h1.1l1.1,0l1.1,0l1.1,0l1.1,0l1.1,0l1.1,0l1.1,0l1.1,0l1.1,0l1.1,0l0.6-0.1 M233.3,14.1l1,1.2l1.1,7.4
		l1.1,20.8l1.1,33.3l1.1,15.2l1.1,10.7l1.1,8.3l1.1,6.8l1.1,5.7l1.1,5l1.1,4.4l1.1,3.9l1.1,3.6l1.1,3.3l1.1,3l1.1,2.8l1.1,2.6
		l1.1,2.4l1.1,2.3l1.1,2.2l1.1,2l1.1,1.9l1.1,1.9l1.1,1.8l1.1,1.7l1.1,1.6l1.1,1.6l1.1,1.5l1.1,1.4l1.1,1.4l1.1,1.4l1.1,1.3l1.1,1.3
		l1.1,1.2l1.1,1.2l1.1,1.2l1.1,1.1l1.1,1.1l1.1,1.1l1.1,1.1l1.1,1l1.1,1l1.1,1l1.1,1l1.1,0.9l1.1,0.9l1.1,0.9l1.1,0.9l1.1,0.9
		l1.1,0.9l1.1,0.8l1.1,0.8l1.1,0.8l1.1,0.8l1.1,0.8l1.1,0.8l1.1,0.8l1.1,0.8l1.1,0.7l1.1,0.7l1.1,0.7l1.1,0.7l1.1,0.7l1.1,0.7
		l1.1,0.7l1.1,0.7l1.1,0.7l1.1,0.7l1.1,0.7l1.1,0.7l1.1,0.7l1.1,0.6l1.1,0.6l1.1,0.6l1.1,0.6l1.1,0.6l1.1,0.6l1.1,0.6l1.1,0.6
		l1.1,0.6l1.1,0.6l1.1,0.6l1.1,0.6l1.1,0.6l1.1,0.6l1.1,0.6l1.1,0.6l1.1,0.6l1.1,0.6l1.1,0.6l1.1,0.6l1.1,0.6l1.1,0.6l1.1,0.6
		l1.1,0.6l1.1,0.6l1.1,0.6l1.1,0.6l1.1,0.6l1.1,0.7l1.1,0.7l1.1,0.7l1.1,0.7l1.1,0.7l1.1,0.7l1.1,0.7l1.1,0.8l1.1,0.8l1.1,0.8
		l1.1,0.8l1.1,0.9l1.1,0.9l1.1,0.9l1.1,1l1.1,1l1.1,1.1l1.1,1.2l1.1,1.2l1.1,1.3l1.1,1.4l1.1,1.5l1.1,1.5l1.1,1.5l1.1,1.3l1.1,1"/>
</g>
</svg>
