<?xml version="1.0" encoding="utf-8"?>
<!-- Generator: Adobe Illustrator 22.1.0, SVG Export Plug-In . SVG Version: 6.00 Build 0)  -->
<svg version="1.1" id="Layer_1" xmlns="http://www.w3.org/2000/svg" xmlns:xlink="http://www.w3.org/1999/xlink" x="0px" y="0px"
	 viewBox="0 0 350 305.9" style="enable-background:new 0 0 350 305.9;" xml:space="preserve">
<style type="text/css">
	.st0{fill:none;stroke:#DFDFDF;stroke-width:0.4998;stroke-linejoin:round;stroke-miterlimit:10;}
	.st1{fill:none;stroke:#262626;stroke-width:0.4998;stroke-linecap:square;stroke-linejoin:round;stroke-miterlimit:10;}
	.st2{fill:#4A4A49;}
	.st3{fill:#262626;}
	.st4{fill:#FF0000;}
	.st5{fill:#1D1D1B;}
	.st6{fill:none;stroke:#262626;stroke-width:0.4998;stroke-linejoin:round;stroke-miterlimit:10;}
	.st7{fill:none;stroke:#FF0000;stroke-width:3;stroke-linejoin:round;stroke-miterlimit:10;}
	.st8{fill:none;stroke:#000000;stroke-width:3;stroke-linejoin:round;stroke-miterlimit:10;}
</style>
<g>
	<path class="st0" d="M18.4,274.6V17.8 M99.9,274.6V17.8 M181.3,274.6V17.8 M262.8,274.6V17.8 M344.2,274.6V17.8 M344.2,274.6H18.4
		 M344.2,231.8H18.4 M344.2,189H18.4 M344.2,146.2H18.4 M344.2,103.4H18.4 M344.2,60.6H18.4 M344.2,17.8H18.4"/>
	<path class="st1" d="M18.4,274.6h325.8 M18.4,17.8h325.8 M18.4,274.6v-3.3 M99.9,274.6v-3.3 M181.3,274.6v-3.3 M262.8,274.6v-3.3
		 M344.2,274.6v-3.3 M18.4,17.8V21 M99.9,17.8V21 M181.3,17.8V21 M262.8,17.8V21 M344.2,17.8V21"/>
	<g>
		<path class="st2" d="M16.4,288c-0.4-0.6-0.6-1.5-0.6-2.7s0.2-2,0.6-2.7c0.4-0.6,1-0.9,1.8-0.9c0.8,0,1.4,0.3,1.8,0.9
			c0.4,0.6,0.6,1.5,0.6,2.7s-0.2,2-0.6,2.7s-1,0.9-1.8,0.9C17.4,289,16.8,288.6,16.4,288z M19.3,287.5c0.2-0.5,0.4-1.2,0.4-2.1
			c0-0.9-0.1-1.6-0.4-2.1c-0.2-0.5-0.6-0.7-1.1-0.7c-0.5,0-0.9,0.2-1.1,0.7c-0.2,0.5-0.4,1.2-0.4,2.1c0,0.9,0.1,1.6,0.4,2.1
			s0.6,0.7,1.1,0.7C18.7,288.2,19,287.9,19.3,287.5z"/>
	</g>
	<path class="st3" d="M93.8,288.8c0,0,0-0.1,0-0.2c0.2-0.4,0.4-0.8,0.5-1.2c0.2-0.4,0.3-0.8,0.4-1.1c0.1-0.4,0.3-0.7,0.4-1.2h-0.7
		c-0.3,0-0.5,0.1-0.7,0.2c-0.2,0.2-0.4,0.4-0.5,0.6c0,0,0,0-0.1,0h-0.1c-0.1,0-0.1,0-0.1-0.1c0,0,0,0,0-0.1c0.2-0.4,0.5-0.7,0.7-1
		c0.3-0.3,0.5-0.4,0.9-0.4h3.7c0.1,0,0.1,0,0.2,0.1c0,0,0.1,0.1,0.1,0.2c0,0.1,0,0.2-0.1,0.3c-0.1,0.1-0.2,0.1-0.3,0.1h-1.3
		c-0.1,0.5-0.2,1.1-0.2,1.6c0,0.7,0.1,1.2,0.3,1.8c0,0,0,0.1,0,0.1c0,0.1,0,0.1-0.1,0.2c0,0.1-0.1,0.1-0.2,0.2
		c-0.1,0-0.1,0.1-0.2,0.1c-0.2,0-0.3-0.1-0.4-0.4s-0.1-0.6-0.1-0.8c0-0.4,0-0.8,0.1-1.1c0.1-0.4,0.2-0.8,0.3-1.5h-1.1
		c-0.5,2.2-0.9,3.4-1,3.6c-0.1,0.2-0.2,0.3-0.4,0.3c-0.1,0-0.2,0-0.2-0.1C93.9,288.9,93.8,288.9,93.8,288.8L93.8,288.8z"/>
	<g>
		<path class="st2" d="M101.7,281.6l-2.4,7.6h-0.7l2.4-7.6H101.7z"/>
		<path class="st2" d="M106.7,284c0,0.5-0.1,0.9-0.4,1.3c-0.3,0.3-0.8,0.7-1.5,1.1c-0.8,0.4-1.3,0.8-1.6,1.2
			c-0.1,0.2-0.2,0.3-0.3,0.5h3.8v0.9h-4.8v0c0-0.7,0.2-1.3,0.6-1.8c0.4-0.5,1.1-1,2.1-1.5c0.5-0.3,0.8-0.5,1-0.8
			c0.2-0.2,0.3-0.5,0.3-0.9c0-0.4-0.1-0.7-0.4-0.9c-0.3-0.2-0.6-0.4-1-0.4c-0.4,0-0.8,0.1-1,0.4s-0.4,0.7-0.4,1.3H102
			c0-0.8,0.2-1.4,0.6-1.8c0.4-0.4,1-0.7,1.8-0.7c0.7,0,1.2,0.2,1.6,0.6C106.4,282.9,106.7,283.4,106.7,284z"/>
	</g>
	<path class="st3" d="M179.6,288.8c0,0,0-0.1,0-0.2c0.2-0.4,0.4-0.8,0.5-1.2c0.2-0.4,0.3-0.8,0.4-1.1c0.1-0.4,0.3-0.7,0.4-1.2h-0.7
		c-0.3,0-0.5,0.1-0.7,0.2c-0.2,0.2-0.4,0.4-0.5,0.6c0,0,0,0-0.1,0h-0.1c-0.1,0-0.1,0-0.1-0.1c0,0,0,0,0-0.1c0.2-0.4,0.5-0.7,0.7-1
		c0.3-0.3,0.5-0.4,0.9-0.4h3.7c0.1,0,0.1,0,0.2,0.1c0.1,0,0.1,0.1,0.1,0.2c0,0.1,0,0.2-0.1,0.3c-0.1,0.1-0.2,0.1-0.3,0.1h-1.3
		c-0.1,0.5-0.2,1.1-0.2,1.6c0,0.7,0.1,1.2,0.3,1.8c0,0,0,0.1,0,0.1c0,0.1,0,0.1-0.1,0.2c0,0.1-0.1,0.1-0.2,0.2
		c-0.1,0-0.1,0.1-0.2,0.1c-0.2,0-0.3-0.1-0.4-0.4s-0.1-0.6-0.1-0.8c0-0.4,0-0.8,0.1-1.1c0.1-0.4,0.2-0.8,0.3-1.5h-1.1
		c-0.5,2.2-0.9,3.4-1,3.6c-0.1,0.2-0.2,0.3-0.4,0.3c-0.1,0-0.2,0-0.2-0.1C179.7,288.9,179.6,288.9,179.6,288.8L179.6,288.8z"/>
	<g>
		<path class="st2" d="M256.5,283.8c0-0.3-0.1-0.6-0.4-0.8c-0.3-0.2-0.6-0.3-1-0.3c-0.4,0-0.7,0.1-1,0.4c-0.2,0.3-0.3,0.6-0.4,1.1
			h-0.9c0-0.7,0.2-1.3,0.6-1.7c0.4-0.4,0.9-0.6,1.6-0.6c0.7,0,1.2,0.2,1.6,0.5c0.4,0.3,0.6,0.8,0.6,1.3c0,0.5-0.2,1-0.6,1.3
			c-0.1,0.1-0.2,0.1-0.3,0.2c0.2,0.1,0.3,0.2,0.4,0.3c0.4,0.3,0.7,0.8,0.7,1.4c0,0.7-0.2,1.2-0.7,1.6c-0.5,0.4-1,0.6-1.8,0.6
			c-0.8,0-1.4-0.2-1.8-0.6c-0.4-0.4-0.6-1-0.7-1.7h0.9c0.1,0.5,0.2,0.9,0.4,1.2c0.2,0.2,0.6,0.4,1.1,0.4c0.4,0,0.8-0.1,1.1-0.4
			c0.3-0.2,0.4-0.6,0.4-1c0-0.4-0.1-0.7-0.4-1c-0.2-0.2-0.5-0.3-0.9-0.4c-0.2,0-0.3,0-0.5,0c-0.1,0-0.2,0-0.3,0V285
			c0.1,0,0.2,0,0.3,0s0.3,0,0.4,0c0.3,0,0.5-0.1,0.7-0.3C256.3,284.5,256.5,284.2,256.5,283.8z"/>
	</g>
	<path class="st3" d="M259.4,288.8c0,0,0-0.1,0-0.2c0.2-0.4,0.4-0.8,0.5-1.2c0.2-0.4,0.3-0.8,0.4-1.1c0.1-0.4,0.3-0.7,0.4-1.2h-0.7
		c-0.3,0-0.5,0.1-0.7,0.2c-0.2,0.2-0.4,0.4-0.5,0.6c0,0,0,0-0.1,0h-0.1c-0.1,0-0.1,0-0.1-0.1c0,0,0,0,0-0.1c0.2-0.4,0.5-0.7,0.7-1
		c0.3-0.3,0.5-0.4,0.9-0.4h3.7c0.1,0,0.1,0,0.2,0.1c0,0,0.1,0.1,0.1,0.2c0,0.1,0,0.2-0.1,0.3c-0.1,0.1-0.2,0.1-0.3,0.1h-1.3
		c-0.1,0.5-0.2,1.1-0.2,1.6c0,0.7,0.1,1.2,0.3,1.8c0,0,0,0.1,0,0.1c0,0.1,0,0.1-0.1,0.2c0,0.1-0.1,0.1-0.2,0.2
		c-0.1,0-0.1,0.1-0.2,0.1c-0.2,0-0.3-0.1-0.4-0.4c-0.1-0.3-0.1-0.6-0.1-0.8c0-0.4,0-0.8,0.1-1.1c0.1-0.4,0.2-0.8,0.3-1.5h-1.1
		c-0.5,2.2-0.9,3.4-1,3.6c-0.1,0.2-0.2,0.3-0.4,0.3c-0.1,0-0.2,0-0.2-0.1C259.5,288.9,259.4,288.9,259.4,288.8L259.4,288.8z"/>
	<g>
		<path class="st2" d="M267.3,281.6l-2.4,7.6h-0.7l2.4-7.6H267.3z"/>
		<path class="st2" d="M272.3,284c0,0.5-0.1,0.9-0.4,1.3c-0.3,0.3-0.8,0.7-1.5,1.1c-0.8,0.4-1.3,0.8-1.6,1.2
			c-0.1,0.2-0.2,0.3-0.3,0.5h3.8v0.9h-4.8v0c0-0.7,0.2-1.3,0.6-1.8c0.4-0.5,1.1-1,2.1-1.5c0.5-0.3,0.8-0.5,1-0.8
			c0.2-0.2,0.3-0.5,0.3-0.9c0-0.4-0.1-0.7-0.4-0.9c-0.3-0.2-0.6-0.4-1-0.4c-0.4,0-0.8,0.1-1,0.4s-0.4,0.7-0.4,1.3h-0.9
			c0-0.8,0.2-1.4,0.6-1.8c0.4-0.4,1-0.7,1.8-0.7c0.7,0,1.2,0.2,1.6,0.6C272,282.9,272.3,283.4,272.3,284z"/>
	</g>
	<g>
		<path class="st2" d="M343.3,284c0,0.5-0.1,0.9-0.4,1.3c-0.3,0.3-0.8,0.7-1.5,1.1c-0.8,0.4-1.3,0.8-1.6,1.2
			c-0.1,0.2-0.2,0.3-0.3,0.5h3.8v0.9h-4.8v0c0-0.7,0.2-1.3,0.6-1.8c0.4-0.5,1.1-1,2.1-1.5c0.5-0.3,0.8-0.5,1-0.8
			c0.2-0.2,0.3-0.5,0.3-0.9c0-0.4-0.1-0.7-0.4-0.9c-0.3-0.2-0.6-0.4-1-0.4c-0.4,0-0.8,0.1-1,0.4s-0.4,0.7-0.4,1.3h-0.9
			c0-0.8,0.2-1.4,0.6-1.8c0.4-0.4,1-0.7,1.8-0.7c0.7,0,1.2,0.2,1.6,0.6C343.1,282.9,343.3,283.4,343.3,284z"/>
	</g>
	<path class="st3" d="M345.2,288.8c0,0,0-0.1,0-0.2c0.2-0.4,0.4-0.8,0.5-1.2c0.2-0.4,0.3-0.8,0.4-1.1c0.1-0.4,0.3-0.7,0.4-1.2H346
		c-0.3,0-0.5,0.1-0.7,0.2c-0.2,0.2-0.4,0.4-0.5,0.6c0,0,0,0-0.1,0h-0.1c-0.1,0-0.1,0-0.1-0.1c0,0,0,0,0-0.1c0.2-0.4,0.5-0.7,0.7-1
		c0.3-0.3,0.5-0.4,0.9-0.4h3.7c0.1,0,0.1,0,0.2,0.1c0,0,0.1,0.1,0.1,0.2c0,0.1,0,0.2-0.1,0.3c-0.1,0.1-0.2,0.1-0.3,0.1h-1.3
		c-0.1,0.5-0.2,1.1-0.2,1.6c0,0.7,0.1,1.2,0.3,1.8c0,0,0,0.1,0,0.1c0,0.1,0,0.1-0.1,0.2c0,0.1-0.1,0.1-0.2,0.2
		c-0.1,0-0.1,0.1-0.2,0.1c-0.2,0-0.3-0.1-0.4-0.4s-0.1-0.6-0.1-0.8c0-0.4,0-0.8,0.1-1.1c0.1-0.4,0.2-0.8,0.3-1.5h-1.1
		c-0.5,2.2-0.9,3.4-1,3.6c-0.1,0.2-0.2,0.3-0.4,0.3c-0.1,0-0.2,0-0.2-0.1C345.3,288.9,345.2,288.9,345.2,288.8L345.2,288.8z"/>
	<g>
	</g>
	<path class="st4" d="M173.4,300.9c-0.1,0-0.1,0-0.1-0.1c0,0-0.1-0.1-0.1-0.1c0-0.1,0-0.1,0.1-0.1c0,0,0.1-0.1,0.1-0.1h8.2
		c-0.3-0.2-0.5-0.4-0.7-0.7s-0.4-0.5-0.5-0.8c-0.1-0.3-0.2-0.6-0.3-1c0-0.1,0-0.1,0.1-0.1h0.2c0.4,0,0.6,0,0.7,0c0,0,0,0,0,0.1
		c0.1,0.3,0.2,0.6,0.3,0.9c0.1,0.3,0.3,0.5,0.5,0.7c0.2,0.2,0.4,0.4,0.6,0.6c0.2,0.2,0.5,0.3,0.8,0.4c0.1,0,0.1,0.1,0.1,0.1
		c0,0.1,0,0.1-0.1,0.1c-0.4,0.1-0.7,0.3-1,0.6c-0.3,0.3-0.6,0.6-0.8,0.9s-0.3,0.7-0.4,1.1c0,0,0,0,0,0.1c0,0-0.2,0-0.7,0h-0.2
		c-0.1,0-0.1,0-0.1-0.1c0.1-0.5,0.3-1,0.5-1.4c0.3-0.4,0.6-0.8,1-1.1H173.4L173.4,300.9z"/>
	<g>
	</g>
	<path class="st4" d="M189.9,303.5c-0.3,0-0.6-0.1-0.8-0.4c-0.2-0.2-0.3-0.5-0.4-0.9c-0.1-0.3-0.1-0.7-0.1-1v0c0-0.4,0-0.7,0.1-1.1
		c0.1-0.4,0.2-0.8,0.3-1.2c0.1-0.4,0.3-0.7,0.4-1c0.1-0.2,0.2-0.4,0.4-0.7c0.2-0.3,0.4-0.5,0.6-0.7c0.2-0.2,0.4-0.4,0.7-0.5
		c0.2-0.1,0.5-0.2,0.7-0.2h0c0.7,0,1.1,0.1,1.3,0.2c0.2,0.1,0.3,0.3,0.4,0.6c0.1,0.2,0.2,0.5,0.2,0.7c0,0.3,0.1,0.5,0.1,0.7
		c0,0.5-0.1,1.1-0.2,1.7c-0.1,0.6-0.4,1.1-0.6,1.6c-0.1,0.2-0.2,0.4-0.4,0.7c-0.2,0.3-0.4,0.5-0.6,0.7c-0.2,0.2-0.4,0.4-0.7,0.5
		C191,303.4,190.6,303.5,189.9,303.5L189.9,303.5L189.9,303.5z M190,303.2c0.2,0,0.5-0.1,0.7-0.4c0.2-0.3,0.4-0.6,0.6-0.9
		c0.2-0.4,0.3-0.7,0.4-1.1c0.1-0.4,0.2-0.7,0.3-1h-1.6c-0.1,0.5-0.2,0.8-0.3,1.2c-0.1,0.3-0.1,0.7-0.1,1
		C190,302.8,190,303.2,190,303.2L190,303.2z M190.4,299.4h1.6c0.1-0.3,0.1-0.6,0.2-0.8c0-0.2,0.1-0.4,0.1-0.7c0-0.2,0-0.5,0-0.7
		c0-0.8-0.2-1.3-0.6-1.3c-0.1,0-0.3,0.4-0.6,1.1C190.9,297.9,190.6,298.6,190.4,299.4L190.4,299.4z"/>
	<path class="st1" d="M18.4,274.6V17.8 M344.2,274.6V17.8 M18.4,274.6h3.3 M18.4,231.8h3.3 M18.4,189h3.3 M18.4,146.2h3.3
		 M18.4,103.4h3.3 M18.4,60.6h3.3 M18.4,17.8h3.3 M344.2,274.6h-3.3 M344.2,231.8h-3.3 M344.2,189h-3.3 M344.2,146.2h-3.3
		 M344.2,103.4h-3.3 M344.2,60.6h-3.3 M344.2,17.8h-3.3"/>
	<g>
		<path class="st2" d="M9.4,277.7c-0.4-0.6-0.6-1.5-0.6-2.7s0.2-2,0.6-2.7c0.4-0.6,1-0.9,1.8-0.9c0.8,0,1.4,0.3,1.8,0.9
			c0.4,0.6,0.6,1.5,0.6,2.7s-0.2,2-0.6,2.7s-1,0.9-1.8,0.9C10.4,278.7,9.8,278.3,9.4,277.7z M12.3,277.2c0.2-0.5,0.4-1.2,0.4-2.1
			c0-0.9-0.1-1.6-0.4-2.1c-0.2-0.5-0.6-0.7-1.1-0.7c-0.5,0-0.9,0.2-1.1,0.7c-0.2,0.5-0.4,1.2-0.4,2.1c0,0.9,0.1,1.6,0.4,2.1
			s0.6,0.7,1.1,0.7C11.7,277.9,12.1,277.6,12.3,277.2z"/>
	</g>
	<g>
		<path class="st2" d="M1,234.9c-0.4-0.6-0.6-1.5-0.6-2.7s0.2-2,0.6-2.7c0.4-0.6,1-0.9,1.8-0.9c0.8,0,1.4,0.3,1.8,0.9
			c0.4,0.6,0.6,1.5,0.6,2.7s-0.2,2-0.6,2.7s-1,0.9-1.8,0.9C2,235.9,1.4,235.5,1,234.9z M3.9,234.4c0.2-0.5,0.4-1.2,0.4-2.1
			c0-0.9-0.1-1.6-0.4-2.1c-0.2-0.5-0.6-0.7-1.1-0.7c-0.5,0-0.9,0.2-1.1,0.7c-0.2,0.5-0.4,1.2-0.4,2.1c0,0.9,0.1,1.6,0.4,2.1
			s0.6,0.7,1.1,0.7C3.3,235.1,3.6,234.8,3.9,234.4z"/>
		<path class="st2" d="M6.4,234.6h1v1.1h-1V234.6z"/>
	</g>
	<g>
		<path class="st2" d="M12.6,230.7c0,0.5-0.1,0.9-0.4,1.3c-0.3,0.3-0.8,0.7-1.5,1.1c-0.8,0.4-1.3,0.8-1.6,1.2
			c-0.1,0.2-0.2,0.3-0.3,0.5h3.8v0.9H7.8v0c0-0.7,0.2-1.3,0.6-1.8c0.4-0.5,1.1-1,2.1-1.5c0.5-0.3,0.8-0.5,1-0.8
			c0.2-0.2,0.3-0.5,0.3-0.9c0-0.4-0.1-0.7-0.4-0.9c-0.3-0.2-0.6-0.4-1-0.4c-0.4,0-0.8,0.1-1,0.4s-0.4,0.7-0.4,1.3H7.9
			c0-0.8,0.2-1.4,0.6-1.8c0.4-0.4,1-0.7,1.8-0.7c0.7,0,1.2,0.2,1.6,0.6C12.4,229.6,12.6,230.1,12.6,230.7z"/>
	</g>
	<g>
		<path class="st2" d="M1,192.1c-0.4-0.6-0.6-1.5-0.6-2.7s0.2-2,0.6-2.7c0.4-0.6,1-0.9,1.8-0.9c0.8,0,1.4,0.3,1.8,0.9
			c0.4,0.6,0.6,1.5,0.6,2.7s-0.2,2-0.6,2.7s-1,0.9-1.8,0.9C2,193,1.4,192.7,1,192.1z M3.9,191.6c0.2-0.5,0.4-1.2,0.4-2.1
			c0-0.9-0.1-1.6-0.4-2.1c-0.2-0.5-0.6-0.7-1.1-0.7c-0.5,0-0.9,0.2-1.1,0.7c-0.2,0.5-0.4,1.2-0.4,2.1c0,0.9,0.1,1.6,0.4,2.1
			s0.6,0.7,1.1,0.7C3.3,192.3,3.6,192,3.9,191.6z"/>
		<path class="st2" d="M6.4,191.8h1v1.1h-1V191.8z"/>
	</g>
	<g>
		<path class="st2" d="M7.7,191.2v-0.4v-0.4l3.3-4.5h0.4h0.4v4.6h1v0.8h-1v1.7h-0.9v-1.7H7.7z M10.8,190.4v-3.2l-2.2,3.1l0,0.1H10.8
			z"/>
	</g>
	<g>
		<path class="st2" d="M1,149.3c-0.4-0.6-0.6-1.5-0.6-2.7s0.2-2,0.6-2.7c0.4-0.6,1-0.9,1.8-0.9c0.8,0,1.4,0.3,1.8,0.9
			c0.4,0.6,0.6,1.5,0.6,2.7s-0.2,2-0.6,2.7s-1,0.9-1.8,0.9C2,150.3,1.4,149.9,1,149.3z M3.9,148.8c0.2-0.5,0.4-1.2,0.4-2.1
			c0-0.9-0.1-1.6-0.4-2.1c-0.2-0.5-0.6-0.7-1.1-0.7c-0.5,0-0.9,0.2-1.1,0.7c-0.2,0.5-0.4,1.2-0.4,2.1c0,0.9,0.1,1.6,0.4,2.1
			s0.6,0.7,1.1,0.7C3.3,149.5,3.6,149.2,3.9,148.8z"/>
		<path class="st2" d="M6.4,149h1v1.1h-1V149z"/>
	</g>
	<g>
		<path class="st2" d="M10.5,143c0.6,0,1.1,0.2,1.5,0.5c0.4,0.3,0.6,0.8,0.6,1.4h-0.9c0-0.3-0.2-0.6-0.4-0.8
			c-0.2-0.2-0.5-0.3-0.8-0.3c-0.5,0-1,0.3-1.3,0.8c-0.3,0.4-0.4,1.1-0.4,1.8c0.4-0.6,1-0.8,1.7-0.8c0.7,0,1.2,0.2,1.6,0.6
			s0.6,1,0.6,1.7s-0.2,1.3-0.7,1.7s-1,0.6-1.7,0.6c-0.8,0-1.4-0.3-1.8-0.9s-0.6-1.4-0.6-2.5c0-1.2,0.2-2.2,0.7-2.8
			C9,143.4,9.6,143,10.5,143z M8.9,147.9c0,0.5,0.1,0.8,0.4,1.1s0.6,0.4,1,0.4s0.8-0.1,1-0.4s0.4-0.7,0.4-1.1s-0.1-0.8-0.4-1.1
			s-0.6-0.4-1-0.4s-0.8,0.1-1,0.4C9,147.1,8.9,147.5,8.9,147.9z"/>
	</g>
	<g>
		<path class="st2" d="M1,106.5c-0.4-0.6-0.6-1.5-0.6-2.7s0.2-2,0.6-2.7c0.4-0.6,1-0.9,1.8-0.9c0.8,0,1.4,0.3,1.8,0.9
			c0.4,0.6,0.6,1.5,0.6,2.7s-0.2,2-0.6,2.7s-1,0.9-1.8,0.9C2,107.5,1.4,107.1,1,106.5z M3.9,106c0.2-0.5,0.4-1.2,0.4-2.1
			c0-0.9-0.1-1.6-0.4-2.1c-0.2-0.5-0.6-0.7-1.1-0.7c-0.5,0-0.9,0.2-1.1,0.7c-0.2,0.5-0.4,1.2-0.4,2.1c0,0.9,0.1,1.6,0.4,2.1
			s0.6,0.7,1.1,0.7C3.3,106.7,3.6,106.4,3.9,106z"/>
		<path class="st2" d="M6.4,106.2h1v1.1h-1V106.2z"/>
	</g>
	<g>
		<path class="st2" d="M11.5,103.5c0.2,0.1,0.4,0.2,0.5,0.3c0.4,0.4,0.7,0.8,0.7,1.4c0,0.7-0.2,1.2-0.7,1.6s-1,0.6-1.7,0.6
			s-1.3-0.2-1.7-0.6s-0.7-0.9-0.7-1.6c0-0.6,0.2-1.1,0.7-1.4c0.2-0.1,0.3-0.2,0.5-0.3c-0.1-0.1-0.2-0.1-0.3-0.2
			c-0.4-0.3-0.6-0.7-0.6-1.2c0-0.6,0.2-1,0.6-1.4s0.9-0.5,1.6-0.5s1.2,0.2,1.6,0.5s0.6,0.8,0.6,1.4c0,0.5-0.2,0.9-0.6,1.2
			C11.7,103.4,11.6,103.5,11.5,103.5z M10.3,103.9c-0.4,0-0.8,0.1-1.1,0.4s-0.4,0.6-0.4,1c0,0.4,0.1,0.7,0.4,1s0.6,0.4,1.1,0.4
			s0.8-0.1,1.1-0.4s0.4-0.6,0.4-1c0-0.4-0.1-0.7-0.4-1C11.1,104.1,10.7,103.9,10.3,103.9z M10.3,103.2c0.4,0,0.7-0.1,0.9-0.3
			s0.3-0.5,0.3-0.8s-0.1-0.6-0.3-0.8c-0.2-0.2-0.5-0.3-0.9-0.3s-0.7,0.1-0.9,0.3c-0.2,0.2-0.3,0.5-0.3,0.8s0.1,0.6,0.3,0.8
			C9.6,103.1,9.9,103.2,10.3,103.2z"/>
	</g>
	<g>
		<path class="st2" d="M11.1,59.5H9.4v-0.7c0.5,0,0.9-0.1,1.2-0.3c0.3-0.2,0.5-0.6,0.7-1H12v7h-0.5h-0.5V59.5z"/>
	</g>
	<g>
		<path class="st2" d="M2.7,16.7H1V16c0.5,0,0.9-0.1,1.2-0.3c0.3-0.2,0.5-0.6,0.7-1h0.7v7H3.1H2.7V16.7z"/>
		<path class="st2" d="M6.4,20.6h1v1.1h-1V20.6z"/>
	</g>
	<g>
		<path class="st2" d="M12.6,16.7c0,0.5-0.1,0.9-0.4,1.3s-0.8,0.7-1.5,1.1c-0.8,0.4-1.3,0.8-1.6,1.2c-0.1,0.2-0.2,0.3-0.3,0.5h3.8
			v0.9H7.8v0c0-0.7,0.2-1.3,0.6-1.8s1.1-1,2.1-1.5c0.5-0.3,0.8-0.5,1-0.8c0.2-0.2,0.3-0.5,0.3-0.9c0-0.4-0.1-0.7-0.4-0.9
			s-0.6-0.4-1-0.4c-0.4,0-0.8,0.1-1,0.4c-0.2,0.3-0.4,0.7-0.4,1.3H7.9c0-0.8,0.2-1.4,0.6-1.8c0.4-0.4,1-0.7,1.8-0.7
			c0.7,0,1.2,0.2,1.6,0.6C12.4,15.6,12.6,16.1,12.6,16.7z"/>
	</g>
	<g>
		<path class="st5" d="M137.7,5v8h-1.4V5H137.7z"/>
		<path class="st5" d="M139.3,13V5h1.6v3h3.1V5h1.6V13H144V9.4h-3.1V13H139.3z"/>
		<path class="st5" d="M147.1,5h2.7v1.1h-1.2V14h1.2v1.1h-2.7V5z"/>
		<path class="st5" d="M150.8,5.1h1.5v4.3l1.9-2.2h1.9L154,9.3l2.2,3.6h-1.9l-1.4-2.5l-0.6,0.7V13h-1.5V5.1z"/>
		<path class="st5" d="M156.5,14h1.2V6.1h-1.2V5h2.7v10.1h-2.7V14z"/>
		<path class="st5" d="M162.2,5v8h-1.4V5H162.2z"/>
		<path class="st5" d="M169,9.4c0.3,0,0.5-0.1,0.6-0.1c0.2-0.1,0.3-0.2,0.3-0.4c0-0.2-0.1-0.4-0.3-0.5c-0.2-0.1-0.4-0.1-0.7-0.1
			c-0.4,0-0.6,0.1-0.8,0.3C168.1,8.6,168,8.8,168,9h-1.5c0-0.5,0.2-0.9,0.4-1.3C167.3,7.2,168,7,169,7c0.6,0,1.2,0.1,1.7,0.4
			c0.5,0.3,0.8,0.7,0.8,1.4v2.7c0,0.2,0,0.4,0,0.7c0,0.2,0,0.3,0.1,0.4c0,0.1,0.1,0.1,0.2,0.2V13h-1.7c0-0.1-0.1-0.2-0.1-0.3
			c0-0.1,0-0.2,0-0.4c-0.2,0.2-0.5,0.4-0.7,0.6c-0.3,0.2-0.7,0.3-1.1,0.3c-0.5,0-1-0.2-1.3-0.5c-0.3-0.3-0.5-0.7-0.5-1.3
			c0-0.7,0.3-1.2,0.8-1.6c0.3-0.2,0.8-0.3,1.4-0.4L169,9.4z M170,10.1c-0.1,0.1-0.2,0.1-0.3,0.1c-0.1,0-0.2,0.1-0.4,0.1l-0.3,0.1
			c-0.3,0.1-0.6,0.1-0.7,0.2c-0.2,0.1-0.4,0.4-0.4,0.6c0,0.3,0.1,0.5,0.2,0.6c0.1,0.1,0.3,0.2,0.5,0.2c0.3,0,0.6-0.1,0.9-0.3
			c0.3-0.2,0.4-0.5,0.4-1.1V10.1z"/>
		<path class="st5" d="M177.5,7.4c0.4,0.3,0.6,0.8,0.6,1.6V13h-1.6V9.4c0-0.3,0-0.5-0.1-0.7c-0.1-0.3-0.4-0.5-0.9-0.5
			c-0.5,0-0.9,0.2-1.1,0.7c-0.1,0.2-0.1,0.5-0.1,0.9V13h-1.5V7.1h1.5V8c0.2-0.3,0.4-0.5,0.6-0.6c0.3-0.2,0.7-0.4,1.2-0.4
			C176.7,7,177.2,7.1,177.5,7.4z"/>
		<path class="st5" d="M182.7,7.2c0.3,0.2,0.5,0.4,0.7,0.6V5.1h1.6V13h-1.5v-0.8c-0.2,0.3-0.5,0.6-0.7,0.8s-0.6,0.2-1,0.2
			c-0.7,0-1.3-0.3-1.7-0.8c-0.5-0.6-0.7-1.3-0.7-2.1c0-1,0.2-1.8,0.7-2.4c0.5-0.6,1.1-0.9,1.8-0.9C182.1,7,182.4,7.1,182.7,7.2z
			 M183,11.4c0.2-0.3,0.3-0.7,0.3-1.3c0-0.7-0.2-1.2-0.5-1.5c-0.2-0.2-0.5-0.3-0.8-0.3c-0.4,0-0.8,0.2-1,0.5
			c-0.2,0.3-0.3,0.8-0.3,1.3c0,0.5,0.1,1,0.3,1.3c0.2,0.3,0.5,0.5,1,0.5C182.5,11.9,182.8,11.7,183,11.4z"/>
	</g>
	<g>
		<path class="st4" d="M191.1,5v8h-1.4V5H191.1z"/>
		<path class="st4" d="M192.7,13V5h1.6v3h3.1V5h1.6V13h-1.6V9.4h-3.1V13H192.7z"/>
		<path class="st4" d="M200.9,7c0.3-0.6,0.5-1.1,0.8-1.5l0.4-0.5l0.9,0c-0.5,0.9-0.8,1.6-1,2.2c-0.3,0.9-0.4,1.9-0.4,3
			c0,0.7,0.1,1.3,0.2,1.9c0.2,0.9,0.5,1.8,0.9,2.6l0.3,0.6h-0.9c-0.6-0.8-1-1.6-1.3-2.3c-0.4-0.9-0.5-1.8-0.5-2.7
			C200.2,9.1,200.4,8,200.9,7z"/>
		<path class="st4" d="M208,7.2c0.4,0.2,0.7,0.5,1,0.9c0.2,0.3,0.4,0.8,0.5,1.2c0,0.3,0.1,0.7,0,1.2h-4.3c0,0.6,0.2,1,0.6,1.2
			c0.2,0.1,0.5,0.2,0.8,0.2c0.3,0,0.6-0.1,0.8-0.3c0.1-0.1,0.2-0.2,0.3-0.4h1.6c0,0.3-0.2,0.7-0.6,1.1c-0.5,0.6-1.3,0.9-2.2,0.9
			c-0.8,0-1.5-0.2-2.1-0.7c-0.6-0.5-0.9-1.3-0.9-2.3c0-1,0.3-1.8,0.8-2.3c0.5-0.5,1.2-0.8,2.1-0.8C207.2,7,207.6,7,208,7.2z
			 M205.7,8.6c-0.2,0.2-0.4,0.5-0.4,0.9h2.6c0-0.4-0.2-0.7-0.4-0.9c-0.2-0.2-0.5-0.3-0.9-0.3C206.2,8.2,205.9,8.3,205.7,8.6z"/>
	</g>
	<g>
		<path class="st4" d="M209.8,8.5c0.1,0,0.1,0,0.1,0s0.1,0,0.1,0c0.1,0,0.2,0,0.3-0.1s0.1-0.2,0.1-0.3V2.9h1.2v5.2
			c0,0.5-0.1,0.8-0.3,1c-0.2,0.2-0.6,0.3-1.1,0.3c0,0-0.1,0-0.2,0s-0.2,0-0.3,0V8.5z M211.7,2.3h-1.2V1.2h1.2V2.3z"/>
	</g>
	<path class="st4" d="M216.7,7.7c-0.3,0-0.5-0.1-0.7-0.3c-0.2-0.2-0.3-0.4-0.3-0.7c-0.1-0.3-0.1-0.6-0.1-0.8v0c0-0.3,0-0.6,0.1-0.9
		c0.1-0.3,0.1-0.6,0.2-1c0.1-0.3,0.2-0.6,0.4-0.9c0.1-0.2,0.2-0.4,0.3-0.6c0.1-0.2,0.3-0.4,0.5-0.6c0.2-0.2,0.4-0.3,0.6-0.5
		c0.2-0.1,0.4-0.2,0.6-0.2h0c0.6,0,1,0.1,1.1,0.2c0.1,0.1,0.3,0.3,0.3,0.5c0.1,0.2,0.1,0.4,0.2,0.6c0,0.2,0.1,0.4,0.1,0.6
		c0,0.5-0.1,0.9-0.2,1.4c-0.1,0.5-0.3,0.9-0.5,1.4c-0.1,0.2-0.2,0.4-0.3,0.6c-0.1,0.2-0.3,0.4-0.5,0.6c-0.2,0.2-0.3,0.3-0.5,0.5
		C217.7,7.6,217.3,7.7,216.7,7.7L216.7,7.7L216.7,7.7z M216.8,7.4c0.1,0,0.3-0.1,0.5-0.3c0.2-0.2,0.3-0.5,0.5-0.8
		c0.1-0.3,0.3-0.6,0.4-0.9c0.1-0.3,0.2-0.6,0.2-0.8h-1.2c-0.1,0.4-0.2,0.7-0.2,1c-0.1,0.3-0.1,0.5-0.1,0.8
		C216.8,7.1,216.8,7.4,216.8,7.4L216.8,7.4z M217.2,4.3h1.2c0.1-0.3,0.1-0.5,0.1-0.7s0.1-0.4,0.1-0.6c0-0.2,0-0.4,0-0.6
		c0-0.7-0.2-1.1-0.5-1.1c0,0-0.1,0.3-0.4,0.9C217.5,3,217.3,3.6,217.2,4.3L217.2,4.3z"/>
	<g>
		<path class="st4" d="M222.5,7c0.4,1,0.6,1.9,0.6,2.9c0,1.1-0.2,2.2-0.7,3.3c-0.3,0.6-0.5,1.1-0.8,1.4l-0.4,0.5h-1.1
			c0.5-0.9,0.8-1.6,1-2.1c0.3-0.9,0.5-1.9,0.5-3c0-0.7-0.1-1.3-0.2-1.9c-0.2-0.9-0.5-1.8-0.9-2.6l-0.3-0.6h1.2
			C221.8,5.7,222.2,6.4,222.5,7z"/>
		<path class="st4" d="M226,5v8h-1.4V5H226z"/>
	</g>
	<line class="st6" x1="18.4" y1="274.6" x2="344.2" y2="274.6"/>
	<polyline class="st7" points="18.4,60.6 18.9,60.6 19.4,60.6 19.9,60.6 20.4,60.7 20.9,60.7 21.4,60.8 21.9,60.8 22.4,60.9 
		22.8,60.9 23.3,61 23.8,61 24.3,61 24.8,61 25.3,61 25.8,61 26.3,60.9 26.8,60.9 27.3,60.8 27.8,60.7 28.3,60.6 28.8,60.4 
		29.3,60.3 29.8,60.1 30.2,60 30.7,59.8 31.2,59.7 31.7,59.6 32.2,59.5 32.7,59.4 33.2,59.3 33.7,59.3 34.2,59.3 34.7,59.3 
		35.2,59.4 35.7,59.5 36.2,59.7 36.7,59.9 37.2,60.1 37.7,60.3 38.1,60.6 38.6,60.8 39.1,61.1 39.6,61.4 40.1,61.7 40.6,62 
		41.1,62.2 41.6,62.4 42.1,62.6 42.6,62.7 43.1,62.8 43.6,62.8 44.1,62.8 44.6,62.7 45.1,62.5 45.6,62.3 46,62.1 46.5,61.8 47,61.4 
		47.5,61 48,60.6 48.5,60.1 49,59.7 49.5,59.2 50,58.8 50.5,58.4 51,58 51.5,57.7 52,57.4 52.5,57.2 53,57.1 53.5,57.1 53.9,57.1 
		54.4,57.3 54.9,57.5 55.4,57.9 55.9,58.3 56.4,58.8 56.9,59.3 57.4,59.9 57.9,60.6 58.4,61.2 58.9,61.9 59.4,62.6 59.9,63.3 
		60.4,63.9 60.9,64.4 61.3,64.9 61.8,65.3 62.3,65.6 62.8,65.7 63.3,65.8 63.8,65.7 64.3,65.5 64.8,65.1 65.3,64.6 65.8,64 
		66.3,63.3 66.8,62.4 67.3,61.5 67.8,60.6 68.3,59.5 68.8,58.5 69.2,57.5 69.7,56.5 70.2,55.6 70.7,54.7 71.2,54 71.7,53.4 
		72.2,52.9 72.7,52.7 73.2,52.6 73.7,52.7 74.2,53 74.7,53.6 75.2,54.3 75.7,55.2 76.2,56.4 76.7,57.6 77.1,59 77.6,60.6 78.1,62.2 
		78.6,63.8 79.1,65.5 79.6,67.1 80.1,68.6 80.6,70 81.1,71.2 81.6,72.3 82.1,73.1 82.6,73.6 83.1,73.8 83.6,73.7 84.1,73.2 
		84.5,72.4 85,71.2 85.5,69.7 86,67.9 86.5,65.7 87,63.2 87.5,60.6 88,57.7 88.5,54.7 89,51.6 89.5,48.6 90,45.6 90.5,42.7 91,40.1 
		91.5,37.8 92,35.9 92.4,34.5 92.9,33.7 93.4,33.4 93.9,33.9 94.4,35.2 94.9,37.2 95.4,40.1 95.9,43.9 96.4,48.5 96.9,54.1 
		97.4,60.6 97.9,67.9 98.4,76.1 98.9,85.1 99.4,94.8 99.9,105.2 100.3,116.3 100.8,127.8 101.3,139.7 101.8,151.9 102.3,164.3 
		102.8,176.8 103.3,189.3 103.8,201.6 104.3,213.6 104.8,225.3 105.3,236.5 105.8,247.1 106.3,257 106.8,266.2 107.3,274.6 
		107.8,267.1 108.2,260.5 108.7,254.9 109.2,250.3 109.7,246.6 110.2,243.9 110.7,242.1 111.2,241.3 111.7,241.2 112.2,242 
		112.7,243.5 113.2,245.6 113.7,248.3 114.2,251.4 114.7,254.9 115.2,258.7 115.6,262.7 116.1,266.7 116.6,270.7 117.1,274.6 
		117.6,270.9 118.1,267.4 118.6,264.3 119.1,261.6 119.6,259.3 120.1,257.4 120.6,256.1 121.1,255.2 121.6,254.8 122.1,255 
		122.6,255.5 123.1,256.6 123.5,258 124,259.8 124.5,261.8 125,264.2 125.5,266.7 126,269.3 126.5,271.9 127,274.6 127.5,272 
		128,269.6 128.5,267.3 129,265.3 129.5,263.6 130,262.1 130.5,261 131,260.3 131.4,259.9 131.9,259.9 132.4,260.3 132.9,260.9 
		133.4,261.9 133.9,263.2 134.4,264.8 134.9,266.5 135.4,268.4 135.9,270.4 136.4,272.5 136.9,274.6 137.4,272.5 137.9,270.6 
		138.4,268.7 138.8,267.1 139.3,265.6 139.8,264.4 140.3,263.5 140.8,262.8 141.3,262.5 141.8,262.4 142.3,262.6 142.8,263.2 
		143.3,264 143.8,265 144.3,266.3 144.8,267.7 145.3,269.3 145.8,271 146.3,272.8 146.7,274.6 147.2,272.8 147.7,271.1 148.2,269.5 
		148.7,268 149.2,266.8 149.7,265.7 150.2,264.8 150.7,264.2 151.2,263.9 151.7,263.8 152.2,264 152.7,264.4 153.2,265.1 153.7,266 
		154.2,267.1 154.6,268.4 155.1,269.8 155.6,271.4 156.1,273 156.6,274.6 157.1,273 157.6,271.4 158.1,270 158.6,268.6 159.1,267.4 
		159.6,266.4 160.1,265.6 160.6,265.1 161.1,264.7 161.6,264.6 162.1,264.8 162.5,265.2 163,265.8 163.5,266.6 164,267.6 
		164.5,268.8 165,270.1 165.5,271.6 166,273 166.5,274.6 167,273.1 167.5,271.6 168,270.2 168.5,268.9 169,267.8 169.5,266.8 
		169.9,266.1 170.4,265.5 170.9,265.2 171.4,265.1 171.9,265.2 172.4,265.6 172.9,266.1 173.4,266.9 173.9,267.9 174.4,269 
		174.9,270.3 175.4,271.7 175.9,273.1 176.4,274.6 176.9,273.1 177.4,271.7 177.8,270.3 178.3,269.1 178.8,267.9 179.3,267 
		179.8,266.2 180.3,265.7 180.8,265.3 181.3,265.2 181.8,265.3 182.3,265.7 182.8,266.2 183.3,267 183.8,267.9 184.3,269.1 
		184.8,270.3 185.3,271.7 185.7,273.1 186.2,274.6 186.7,273.1 187.2,271.7 187.7,270.3 188.2,269 188.7,267.9 189.2,266.9 
		189.7,266.1 190.2,265.6 190.7,265.2 191.2,265.1 191.7,265.2 192.2,265.5 192.7,266.1 193.1,266.8 193.6,267.8 194.1,268.9 
		194.6,270.2 195.1,271.6 195.6,273.1 196.1,274.6 196.6,273 197.1,271.6 197.6,270.1 198.1,268.8 198.6,267.6 199.1,266.6 
		199.6,265.8 200.1,265.2 200.6,264.8 201,264.6 201.5,264.7 202,265.1 202.5,265.6 203,266.4 203.5,267.4 204,268.6 204.5,270 
		205,271.4 205.5,273 206,274.6 206.5,273 207,271.4 207.5,269.8 208,268.4 208.5,267.1 208.9,266 209.4,265.1 209.9,264.4 
		210.4,264 210.9,263.8 211.4,263.9 211.9,264.2 212.4,264.8 212.9,265.7 213.4,266.8 213.9,268 214.4,269.5 214.9,271.1 
		215.4,272.8 215.9,274.6 216.4,272.8 216.8,271 217.3,269.3 217.8,267.7 218.3,266.3 218.8,265 219.3,264 219.8,263.2 220.3,262.6 
		220.8,262.4 221.3,262.5 221.8,262.8 222.3,263.5 222.8,264.4 223.3,265.6 223.8,267.1 224.2,268.7 224.7,270.6 225.2,272.5 
		225.7,274.6 226.2,272.5 226.7,270.4 227.2,268.4 227.7,266.5 228.2,264.8 228.7,263.2 229.2,261.9 229.7,260.9 230.2,260.3 
		230.7,259.9 231.2,259.9 231.7,260.3 232.1,261 232.6,262.1 233.1,263.6 233.6,265.3 234.1,267.3 234.6,269.6 235.1,272 
		235.6,274.6 236.1,271.9 236.6,269.3 237.1,266.7 237.6,264.2 238.1,261.8 238.6,259.8 239.1,258 239.6,256.6 240,255.5 240.5,255 
		241,254.8 241.5,255.2 242,256.1 242.5,257.4 243,259.3 243.5,261.6 244,264.3 244.5,267.4 245,270.9 245.5,274.6 246,270.7 
		246.5,266.7 247,262.7 247.4,258.7 247.9,254.9 248.4,251.4 248.9,248.3 249.4,245.6 249.9,243.5 250.4,242 250.9,241.2 
		251.4,241.3 251.9,242.1 252.4,243.9 252.9,246.6 253.4,250.3 253.9,254.9 254.4,260.5 254.9,267.1 255.3,274.6 255.8,266.2 
		256.3,257 256.8,247.1 257.3,236.5 257.8,225.3 258.3,213.6 258.8,201.6 259.3,189.3 259.8,176.8 260.3,164.3 260.8,151.9 
		261.3,139.7 261.8,127.8 262.3,116.3 262.8,105.2 263.2,94.8 263.7,85.1 264.2,76.1 264.7,67.9 265.2,60.6 265.7,54.1 266.2,48.5 
		266.7,43.9 267.2,40.1 267.7,37.2 268.2,35.2 268.7,33.9 269.2,33.4 269.7,33.7 270.2,34.5 270.7,35.9 271.1,37.8 271.6,40.1 
		272.1,42.7 272.6,45.6 273.1,48.6 273.6,51.6 274.1,54.7 274.6,57.7 275.1,60.6 275.6,63.2 276.1,65.7 276.6,67.9 277.1,69.7 
		277.6,71.2 278.1,72.4 278.5,73.2 279,73.7 279.5,73.8 280,73.6 280.5,73.1 281,72.3 281.5,71.2 282,70 282.5,68.6 283,67.1 
		283.5,65.5 284,63.8 284.5,62.2 285,60.6 285.5,59 286,57.6 286.4,56.4 286.9,55.2 287.4,54.3 287.9,53.6 288.4,53 288.9,52.7 
		289.4,52.6 289.9,52.7 290.4,52.9 290.9,53.4 291.4,54 291.9,54.7 292.4,55.6 292.9,56.5 293.4,57.5 293.9,58.5 294.3,59.5 
		294.8,60.6 295.3,61.5 295.8,62.4 296.3,63.3 296.8,64 297.3,64.6 297.8,65.1 298.3,65.5 298.8,65.7 299.3,65.8 299.8,65.7 
		300.3,65.6 300.8,65.3 301.3,64.9 301.7,64.4 302.2,63.9 302.7,63.3 303.2,62.6 303.7,61.9 304.2,61.2 304.7,60.6 305.2,59.9 
		305.7,59.3 306.2,58.8 306.7,58.3 307.2,57.9 307.7,57.5 308.2,57.3 308.7,57.1 309.2,57.1 309.6,57.1 310.1,57.2 310.6,57.4 
		311.1,57.7 311.6,58 312.1,58.4 312.6,58.8 313.1,59.2 313.6,59.7 314.1,60.1 314.6,60.6 315.1,61 315.6,61.4 316.1,61.8 
		316.6,62.1 317.1,62.3 317.5,62.5 318,62.7 318.5,62.8 319,62.8 319.5,62.8 320,62.7 320.5,62.6 321,62.4 321.5,62.2 322,62 
		322.5,61.7 323,61.4 323.5,61.1 324,60.8 324.5,60.6 325,60.3 325.4,60.1 325.9,59.9 326.4,59.7 326.9,59.5 327.4,59.4 327.9,59.3 
		328.4,59.3 328.9,59.3 329.4,59.3 329.9,59.4 330.4,59.5 330.9,59.6 331.4,59.7 331.9,59.8 332.4,60 332.8,60.1 333.3,60.3 
		333.8,60.4 334.3,60.6 334.8,60.7 335.3,60.8 335.8,60.9 336.3,60.9 336.8,61 337.3,61 337.8,61 338.3,61 338.8,61 339.3,61 
		339.8,60.9 340.3,60.9 340.7,60.8 341.2,60.8 341.7,60.7 342.2,60.7 342.7,60.6 343.2,60.6 343.7,60.6 	"/>
	<path d="M18.4,59.1c0.8,0,1.5,0.7,1.5,1.5l0,0c0,0.8-0.7,1.5-1.5,1.5s-1.5-0.7-1.5-1.5C16.9,59.7,17.6,59.1,18.4,59.1L18.4,59.1z
		 M18.4,56.1c-2.5,0-4.5,2-4.5,4.5s2,4.5,4.5,4.5s4.5-2,4.5-4.5l0,0C22.9,58.1,20.9,56.1,18.4,56.1L18.4,56.1z"/>
	<path d="M28.3,59.1c0.8,0,1.5,0.7,1.5,1.5l0,0c0,0.8-0.7,1.5-1.5,1.5c-0.8,0-1.5-0.7-1.5-1.5C26.8,59.7,27.4,59.1,28.3,59.1
		L28.3,59.1z M28.3,56.1c-2.5,0-4.5,2-4.5,4.5s2,4.5,4.5,4.5s4.5-2,4.5-4.5l0,0C32.8,58.1,30.8,56.1,28.3,56.1L28.3,56.1z"/>
	<path d="M38.1,59.1c0.8,0,1.5,0.7,1.5,1.5l0,0c0,0.8-0.7,1.5-1.5,1.5c-0.8,0-1.5-0.7-1.5-1.5C36.6,59.7,37.3,59.1,38.1,59.1
		L38.1,59.1z M38.1,56.1c-2.5,0-4.5,2-4.5,4.5s2,4.5,4.5,4.5s4.5-2,4.5-4.5l0,0C42.6,58.1,40.6,56.1,38.1,56.1L38.1,56.1z"/>
	<path d="M48,59.1c0.8,0,1.5,0.7,1.5,1.5l0,0c0,0.8-0.7,1.5-1.5,1.5c-0.8,0-1.5-0.7-1.5-1.5C46.5,59.7,47.2,59.1,48,59.1L48,59.1z
		 M48,56.1c-2.5,0-4.5,2-4.5,4.5s2,4.5,4.5,4.5c2.5,0,4.5-2,4.5-4.5l0,0C52.5,58.1,50.5,56.1,48,56.1L48,56.1z"/>
	<path d="M57.9,59.1c0.8,0,1.5,0.7,1.5,1.5l0,0c0,0.8-0.7,1.5-1.5,1.5c-0.8,0-1.5-0.7-1.5-1.5C56.4,59.7,57.1,59.1,57.9,59.1
		L57.9,59.1z M57.9,56.1c-2.5,0-4.5,2-4.5,4.5s2,4.5,4.5,4.5c2.5,0,4.5-2,4.5-4.5l0,0C62.4,58.1,60.4,56.1,57.9,56.1L57.9,56.1z"/>
	<path d="M67.8,59.1c0.8,0,1.5,0.7,1.5,1.5l0,0c0,0.8-0.7,1.5-1.5,1.5c-0.8,0-1.5-0.7-1.5-1.5C66.3,59.7,66.9,59.1,67.8,59.1
		L67.8,59.1z M67.8,56.1c-2.5,0-4.5,2-4.5,4.5s2,4.5,4.5,4.5c2.5,0,4.5-2,4.5-4.5l0,0C72.3,58.1,70.3,56.1,67.8,56.1L67.8,56.1z"/>
	<path d="M77.6,59.1c0.8,0,1.5,0.7,1.5,1.5l0,0c0,0.8-0.7,1.5-1.5,1.5c-0.8,0-1.5-0.7-1.5-1.5C76.1,59.7,76.8,59.1,77.6,59.1
		L77.6,59.1z M77.6,56.1c-2.5,0-4.5,2-4.5,4.5s2,4.5,4.5,4.5c2.5,0,4.5-2,4.5-4.5l0,0C82.1,58.1,80.1,56.1,77.6,56.1L77.6,56.1z"/>
	<path d="M87.5,59.1c0.8,0,1.5,0.7,1.5,1.5l0,0c0,0.8-0.7,1.5-1.5,1.5c-0.8,0-1.5-0.7-1.5-1.5C86,59.7,86.7,59.1,87.5,59.1
		L87.5,59.1z M87.5,56.1c-2.5,0-4.5,2-4.5,4.5s2,4.5,4.5,4.5s4.5-2,4.5-4.5l0,0C92,58.1,90,56.1,87.5,56.1L87.5,56.1z"/>
	<path d="M97.4,59.1c0.8,0,1.5,0.7,1.5,1.5l0,0c0,0.8-0.7,1.5-1.5,1.5c-0.8,0-1.5-0.7-1.5-1.5C95.9,59.7,96.6,59.1,97.4,59.1
		L97.4,59.1z M97.4,56.1c-2.5,0-4.5,2-4.5,4.5s2,4.5,4.5,4.5s4.5-2,4.5-4.5l0,0C101.9,58.1,99.9,56.1,97.4,56.1L97.4,56.1z"/>
	<path d="M107.3,273.1c0.8,0,1.5,0.7,1.5,1.5l0,0c0,0.8-0.7,1.5-1.5,1.5s-1.5-0.7-1.5-1.5S106.4,273.1,107.3,273.1L107.3,273.1z
		 M107.3,270.1c-2.5,0-4.5,2-4.5,4.5s2,4.5,4.5,4.5s4.5-2,4.5-4.5l0,0C111.8,272.1,109.7,270.1,107.3,270.1L107.3,270.1z"/>
	<path d="M117.1,273.1c0.8,0,1.5,0.7,1.5,1.5l0,0c0,0.8-0.7,1.5-1.5,1.5s-1.5-0.7-1.5-1.5S116.3,273.1,117.1,273.1L117.1,273.1z
		 M117.1,270.1c-2.5,0-4.5,2-4.5,4.5s2,4.5,4.5,4.5s4.5-2,4.5-4.5l0,0C121.6,272.1,119.6,270.1,117.1,270.1L117.1,270.1z"/>
	<path d="M127,273.1c0.8,0,1.5,0.7,1.5,1.5l0,0c0,0.8-0.7,1.5-1.5,1.5s-1.5-0.7-1.5-1.5S126.2,273.1,127,273.1L127,273.1z
		 M127,270.1c-2.5,0-4.5,2-4.5,4.5s2,4.5,4.5,4.5s4.5-2,4.5-4.5l0,0C131.5,272.1,129.5,270.1,127,270.1L127,270.1z"/>
	<path d="M136.9,273.1c0.8,0,1.5,0.7,1.5,1.5l0,0c0,0.8-0.7,1.5-1.5,1.5c-0.8,0-1.5-0.7-1.5-1.5S136,273.1,136.9,273.1L136.9,273.1z
		 M136.9,270.1c-2.5,0-4.5,2-4.5,4.5s2,4.5,4.5,4.5s4.5-2,4.5-4.5l0,0C141.4,272.1,139.4,270.1,136.9,270.1L136.9,270.1z"/>
	<path d="M146.7,273.1c0.8,0,1.5,0.7,1.5,1.5l0,0c0,0.8-0.7,1.5-1.5,1.5c-0.8,0-1.5-0.7-1.5-1.5S145.9,273.1,146.7,273.1
		L146.7,273.1z M146.7,270.1c-2.5,0-4.5,2-4.5,4.5s2,4.5,4.5,4.5c2.5,0,4.5-2,4.5-4.5l0,0C151.2,272.1,149.2,270.1,146.7,270.1
		L146.7,270.1z"/>
	<path d="M156.6,273.1c0.8,0,1.5,0.7,1.5,1.5l0,0c0,0.8-0.7,1.5-1.5,1.5c-0.8,0-1.5-0.7-1.5-1.5S155.8,273.1,156.6,273.1
		L156.6,273.1z M156.6,270.1c-2.5,0-4.5,2-4.5,4.5s2,4.5,4.5,4.5c2.5,0,4.5-2,4.5-4.5l0,0C161.1,272.1,159.1,270.1,156.6,270.1
		L156.6,270.1z"/>
	<path d="M166.5,273.1c0.8,0,1.5,0.7,1.5,1.5l0,0c0,0.8-0.7,1.5-1.5,1.5c-0.8,0-1.5-0.7-1.5-1.5S165.7,273.1,166.5,273.1
		L166.5,273.1z M166.5,270.1c-2.5,0-4.5,2-4.5,4.5s2,4.5,4.5,4.5s4.5-2,4.5-4.5l0,0C171,272.1,169,270.1,166.5,270.1L166.5,270.1z"
		/>
	<path d="M176.4,273.1c0.8,0,1.5,0.7,1.5,1.5l0,0c0,0.8-0.7,1.5-1.5,1.5c-0.8,0-1.5-0.7-1.5-1.5S175.5,273.1,176.4,273.1
		L176.4,273.1z M176.4,270.1c-2.5,0-4.5,2-4.5,4.5s2,4.5,4.5,4.5s4.5-2,4.5-4.5l0,0C180.9,272.1,178.9,270.1,176.4,270.1
		L176.4,270.1z"/>
	<path d="M186.2,273.1c0.8,0,1.5,0.7,1.5,1.5l0,0c0,0.8-0.7,1.5-1.5,1.5c-0.8,0-1.5-0.7-1.5-1.5S185.4,273.1,186.2,273.1
		L186.2,273.1z M186.2,270.1c-2.5,0-4.5,2-4.5,4.5s2,4.5,4.5,4.5s4.5-2,4.5-4.5l0,0C190.7,272.1,188.7,270.1,186.2,270.1
		L186.2,270.1z"/>
	<path d="M196.1,273.1c0.8,0,1.5,0.7,1.5,1.5l0,0c0,0.8-0.7,1.5-1.5,1.5c-0.8,0-1.5-0.7-1.5-1.5S195.3,273.1,196.1,273.1
		L196.1,273.1z M196.1,270.1c-2.5,0-4.5,2-4.5,4.5s2,4.5,4.5,4.5s4.5-2,4.5-4.5l0,0C200.6,272.1,198.6,270.1,196.1,270.1
		L196.1,270.1z"/>
	<path d="M206,273.1c0.8,0,1.5,0.7,1.5,1.5l0,0c0,0.8-0.7,1.5-1.5,1.5s-1.5-0.7-1.5-1.5S205.2,273.1,206,273.1L206,273.1z
		 M206,270.1c-2.5,0-4.5,2-4.5,4.5s2,4.5,4.5,4.5s4.5-2,4.5-4.5l0,0C210.5,272.1,208.5,270.1,206,270.1L206,270.1z"/>
	<path d="M215.9,273.1c0.8,0,1.5,0.7,1.5,1.5l0,0c0,0.8-0.7,1.5-1.5,1.5s-1.5-0.7-1.5-1.5S215,273.1,215.9,273.1L215.9,273.1z
		 M215.9,270.1c-2.5,0-4.5,2-4.5,4.5s2,4.5,4.5,4.5s4.5-2,4.5-4.5l0,0C220.4,272.1,218.3,270.1,215.9,270.1L215.9,270.1z"/>
	<path d="M225.7,273.1c0.8,0,1.5,0.7,1.5,1.5l0,0c0,0.8-0.7,1.5-1.5,1.5c-0.8,0-1.5-0.7-1.5-1.5S224.9,273.1,225.7,273.1
		L225.7,273.1z M225.7,270.1c-2.5,0-4.5,2-4.5,4.5s2,4.5,4.5,4.5s4.5-2,4.5-4.5l0,0C230.2,272.1,228.2,270.1,225.7,270.1
		L225.7,270.1z"/>
	<path d="M235.6,273.1c0.8,0,1.5,0.7,1.5,1.5l0,0c0,0.8-0.7,1.5-1.5,1.5c-0.8,0-1.5-0.7-1.5-1.5S234.8,273.1,235.6,273.1
		L235.6,273.1z M235.6,270.1c-2.5,0-4.5,2-4.5,4.5s2,4.5,4.5,4.5s4.5-2,4.5-4.5l0,0C240.1,272.1,238.1,270.1,235.6,270.1
		L235.6,270.1z"/>
	<path d="M245.5,273.1c0.8,0,1.5,0.7,1.5,1.5l0,0c0,0.8-0.7,1.5-1.5,1.5c-0.8,0-1.5-0.7-1.5-1.5S244.6,273.1,245.5,273.1
		L245.5,273.1z M245.5,270.1c-2.5,0-4.5,2-4.5,4.5s2,4.5,4.5,4.5s4.5-2,4.5-4.5l0,0C250,272.1,248,270.1,245.5,270.1L245.5,270.1z"
		/>
	<path d="M255.3,273.1c0.8,0,1.5,0.7,1.5,1.5l0,0c0,0.8-0.7,1.5-1.5,1.5c-0.8,0-1.5-0.7-1.5-1.5S254.5,273.1,255.3,273.1
		L255.3,273.1z M255.3,270.1c-2.5,0-4.5,2-4.5,4.5s2,4.5,4.5,4.5s4.5-2,4.5-4.5l0,0C259.8,272.1,257.8,270.1,255.3,270.1
		L255.3,270.1z"/>
	<path d="M265.2,59.1c0.8,0,1.5,0.7,1.5,1.5l0,0c0,0.8-0.7,1.5-1.5,1.5c-0.8,0-1.5-0.7-1.5-1.5C263.7,59.7,264.4,59.1,265.2,59.1
		L265.2,59.1z M265.2,56.1c-2.5,0-4.5,2-4.5,4.5s2,4.5,4.5,4.5s4.5-2,4.5-4.5l0,0C269.7,58.1,267.7,56.1,265.2,56.1L265.2,56.1z"/>
	<path d="M275.1,59.1c0.8,0,1.5,0.7,1.5,1.5l0,0c0,0.8-0.7,1.5-1.5,1.5c-0.8,0-1.5-0.7-1.5-1.5C273.6,59.7,274.3,59.1,275.1,59.1
		L275.1,59.1z M275.1,56.1c-2.5,0-4.5,2-4.5,4.5s2,4.5,4.5,4.5s4.5-2,4.5-4.5l0,0C279.6,58.1,277.6,56.1,275.1,56.1L275.1,56.1z"/>
	<path d="M285,59.1c0.8,0,1.5,0.7,1.5,1.5l0,0c0,0.8-0.7,1.5-1.5,1.5c-0.8,0-1.5-0.7-1.5-1.5C283.5,59.7,284.1,59.1,285,59.1
		L285,59.1z M285,56.1c-2.5,0-4.5,2-4.5,4.5s2,4.5,4.5,4.5s4.5-2,4.5-4.5l0,0C289.5,58.1,287.5,56.1,285,56.1L285,56.1z"/>
	<path d="M294.8,59.1c0.8,0,1.5,0.7,1.5,1.5l0,0c0,0.8-0.7,1.5-1.5,1.5s-1.5-0.7-1.5-1.5C293.3,59.7,294,59.1,294.8,59.1L294.8,59.1
		z M294.8,56.1c-2.5,0-4.5,2-4.5,4.5s2,4.5,4.5,4.5s4.5-2,4.5-4.5l0,0C299.3,58.1,297.3,56.1,294.8,56.1L294.8,56.1z"/>
	<path d="M304.7,59.1c0.8,0,1.5,0.7,1.5,1.5l0,0c0,0.8-0.7,1.5-1.5,1.5c-0.8,0-1.5-0.7-1.5-1.5C303.2,59.7,303.9,59.1,304.7,59.1
		L304.7,59.1z M304.7,56.1c-2.5,0-4.5,2-4.5,4.5s2,4.5,4.5,4.5c2.5,0,4.5-2,4.5-4.5l0,0C309.2,58.1,307.2,56.1,304.7,56.1
		L304.7,56.1z"/>
	<path d="M314.6,59.1c0.8,0,1.5,0.7,1.5,1.5l0,0c0,0.8-0.7,1.5-1.5,1.5s-1.5-0.7-1.5-1.5C313.1,59.7,313.8,59.1,314.6,59.1
		L314.6,59.1z M314.6,56.1c-2.5,0-4.5,2-4.5,4.5s2,4.5,4.5,4.5s4.5-2,4.5-4.5l0,0C319.1,58.1,317.1,56.1,314.6,56.1L314.6,56.1z"/>
	<path d="M324.5,59.1c0.8,0,1.5,0.7,1.5,1.5l0,0c0,0.8-0.7,1.5-1.5,1.5c-0.8,0-1.5-0.7-1.5-1.5C323,59.7,323.6,59.1,324.5,59.1
		L324.5,59.1z M324.5,56.1c-2.5,0-4.5,2-4.5,4.5s2,4.5,4.5,4.5s4.5-2,4.5-4.5l0,0C329,58.1,326.9,56.1,324.5,56.1L324.5,56.1z"/>
	<path d="M334.3,59.1c0.8,0,1.5,0.7,1.5,1.5l0,0c0,0.8-0.7,1.5-1.5,1.5s-1.5-0.7-1.5-1.5C332.8,59.7,333.5,59.1,334.3,59.1
		L334.3,59.1z M334.3,56.1c-2.5,0-4.5,2-4.5,4.5s2,4.5,4.5,4.5s4.5-2,4.5-4.5l0,0C338.8,58.1,336.8,56.1,334.3,56.1L334.3,56.1z"/>
	<path class="st8" d="M18.4,274.6v-214 M28.3,274.6v-214 M38.1,274.6v-214 M48,274.6v-214 M57.9,274.6v-214 M67.8,274.6v-214
		 M77.6,274.6v-214 M87.5,274.6v-214 M97.4,274.6v-214 M107.3,274.6L107.3,274.6 M117.1,274.6L117.1,274.6 M127,274.6L127,274.6
		 M136.9,274.6L136.9,274.6 M146.7,274.6L146.7,274.6 M156.6,274.6L156.6,274.6 M166.5,274.6L166.5,274.6 M176.4,274.6L176.4,274.6
		 M186.2,274.6L186.2,274.6 M196.1,274.6L196.1,274.6 M206,274.6L206,274.6 M215.9,274.6L215.9,274.6 M225.7,274.6L225.7,274.6
		 M235.6,274.6L235.6,274.6 M245.5,274.6L245.5,274.6 M255.3,274.6L255.3,274.6 M265.2,274.6v-214 M275.1,274.6v-214 M285,274.6
		v-214 M294.8,274.6v-214 M304.7,274.6v-214 M314.6,274.6v-214 M324.5,274.6v-214 M334.3,274.6v-214"/>
</g>
</svg>
