<?xml version="1.0" encoding="utf-8"?>
<!-- Generator: Adobe Illustrator 22.1.0, SVG Export Plug-In . SVG Version: 6.00 Build 0)  -->
<svg version="1.1" id="Layer_1" xmlns="http://www.w3.org/2000/svg" xmlns:xlink="http://www.w3.org/1999/xlink" x="0px" y="0px"
	 viewBox="0 0 353.8 305.9" style="enable-background:new 0 0 353.8 305.9;" xml:space="preserve">
<style type="text/css">
	.st0{fill:none;stroke:#DFDFDF;stroke-width:0.4998;stroke-linejoin:round;stroke-miterlimit:10;}
	.st1{fill:none;stroke:#262626;stroke-width:0.4998;stroke-linecap:square;stroke-linejoin:round;stroke-miterlimit:10;}
	.st2{fill:#4A4A49;}
	.st3{fill:#262626;}
	.st4{fill:#0000FF;}
	.st5{fill:#1D1D1B;}
	.st6{fill:none;stroke:#262626;stroke-width:0.4998;stroke-linejoin:round;stroke-miterlimit:10;}
	.st7{fill:none;stroke:#0000FF;stroke-width:3;stroke-linejoin:round;stroke-miterlimit:10;}
	.st8{fill:none;stroke:#000000;stroke-width:3;stroke-linejoin:round;stroke-miterlimit:10;}
</style>
<g>
	<path class="st0" d="M22.2,274.6V17.8 M103.6,274.6V17.8 M185.1,274.6V17.8 M266.5,274.6V17.8 M348,274.6V17.8 M348,274.6H22.2
		 M348,210.4H22.2 M348,146.2H22.2 M348,82H22.2 M348,17.8H22.2"/>
	<path class="st1" d="M22.2,274.6H348 M22.2,17.8H348 M22.2,274.6v-3.3 M103.6,274.6v-3.3 M185.1,274.6v-3.3 M266.5,274.6v-3.3
		 M348,274.6v-3.3 M22.2,17.8V21 M103.6,17.8V21 M185.1,17.8V21 M266.5,17.8V21 M348,17.8V21"/>
	<g>
		<path class="st2" d="M20.2,288c-0.4-0.6-0.6-1.5-0.6-2.7s0.2-2,0.6-2.7c0.4-0.6,1-0.9,1.8-0.9c0.8,0,1.4,0.3,1.8,0.9
			c0.4,0.6,0.6,1.5,0.6,2.7s-0.2,2-0.6,2.7s-1,0.9-1.8,0.9C21.2,289,20.6,288.6,20.2,288z M23.1,287.5c0.2-0.5,0.4-1.2,0.4-2.1
			c0-0.9-0.1-1.6-0.4-2.1c-0.2-0.5-0.6-0.7-1.1-0.7c-0.5,0-0.9,0.2-1.1,0.7c-0.2,0.5-0.4,1.2-0.4,2.1c0,0.9,0.1,1.6,0.4,2.1
			s0.6,0.7,1.1,0.7C22.5,288.2,22.8,287.9,23.1,287.5z"/>
	</g>
	<path class="st3" d="M97.6,288.8c0,0,0-0.1,0-0.2c0.2-0.4,0.4-0.8,0.5-1.2c0.2-0.4,0.3-0.8,0.4-1.1c0.1-0.4,0.3-0.7,0.4-1.2h-0.7
		c-0.3,0-0.5,0.1-0.7,0.2c-0.2,0.2-0.4,0.4-0.5,0.6c0,0,0,0-0.1,0h-0.1c-0.1,0-0.1,0-0.1-0.1c0,0,0,0,0-0.1c0.2-0.4,0.5-0.7,0.7-1
		c0.3-0.3,0.5-0.4,0.9-0.4h3.7c0.1,0,0.1,0,0.2,0.1c0,0,0.1,0.1,0.1,0.2c0,0.1,0,0.2-0.1,0.3c-0.1,0.1-0.2,0.1-0.3,0.1h-1.3
		c-0.1,0.5-0.2,1.1-0.2,1.6c0,0.7,0.1,1.2,0.3,1.8c0,0,0,0.1,0,0.1c0,0.1,0,0.1-0.1,0.2c0,0.1-0.1,0.1-0.2,0.2
		c-0.1,0-0.1,0.1-0.2,0.1c-0.2,0-0.3-0.1-0.4-0.4s-0.1-0.6-0.1-0.8c0-0.4,0-0.8,0.1-1.1c0.1-0.4,0.2-0.8,0.3-1.5h-1.1
		c-0.5,2.2-0.9,3.4-1,3.6c-0.1,0.2-0.2,0.3-0.4,0.3c-0.1,0-0.2,0-0.2-0.1C97.7,288.9,97.6,288.9,97.6,288.8L97.6,288.8z"/>
	<g>
		<path class="st2" d="M105.5,281.6l-2.4,7.6h-0.7l2.4-7.6H105.5z"/>
		<path class="st2" d="M110.5,284c0,0.5-0.1,0.9-0.4,1.3c-0.3,0.3-0.8,0.7-1.5,1.1c-0.8,0.4-1.3,0.8-1.6,1.2
			c-0.1,0.2-0.2,0.3-0.3,0.5h3.8v0.9h-4.8v0c0-0.7,0.2-1.3,0.6-1.8c0.4-0.5,1.1-1,2.1-1.5c0.5-0.3,0.8-0.5,1-0.8
			c0.2-0.2,0.3-0.5,0.3-0.9c0-0.4-0.1-0.7-0.4-0.9c-0.3-0.2-0.6-0.4-1-0.4c-0.4,0-0.8,0.1-1,0.4s-0.4,0.7-0.4,1.3h-0.9
			c0-0.8,0.2-1.4,0.6-1.8c0.4-0.4,1-0.7,1.8-0.7c0.7,0,1.2,0.2,1.6,0.6C110.2,282.9,110.5,283.4,110.5,284z"/>
	</g>
	<path class="st3" d="M183.4,288.8c0,0,0-0.1,0-0.2c0.2-0.4,0.4-0.8,0.5-1.2c0.2-0.4,0.3-0.8,0.4-1.1c0.1-0.4,0.3-0.7,0.4-1.2h-0.7
		c-0.3,0-0.5,0.1-0.7,0.2c-0.2,0.2-0.4,0.4-0.5,0.6c0,0,0,0-0.1,0h-0.1c-0.1,0-0.1,0-0.1-0.1c0,0,0,0,0-0.1c0.2-0.4,0.5-0.7,0.7-1
		c0.3-0.3,0.5-0.4,0.9-0.4h3.7c0.1,0,0.1,0,0.2,0.1c0.1,0,0.1,0.1,0.1,0.2c0,0.1,0,0.2-0.1,0.3c-0.1,0.1-0.2,0.1-0.3,0.1h-1.3
		c-0.1,0.5-0.2,1.1-0.2,1.6c0,0.7,0.1,1.2,0.3,1.8c0,0,0,0.1,0,0.1c0,0.1,0,0.1-0.1,0.2c0,0.1-0.1,0.1-0.2,0.2
		c-0.1,0-0.1,0.1-0.2,0.1c-0.2,0-0.3-0.1-0.4-0.4s-0.1-0.6-0.1-0.8c0-0.4,0-0.8,0.1-1.1c0.1-0.4,0.2-0.8,0.3-1.5h-1.1
		c-0.5,2.2-0.9,3.4-1,3.6c-0.1,0.2-0.2,0.3-0.4,0.3c-0.1,0-0.2,0-0.2-0.1C183.5,288.9,183.4,288.9,183.4,288.8L183.4,288.8z"/>
	<g>
		<path class="st2" d="M260.3,283.8c0-0.3-0.1-0.6-0.4-0.8c-0.3-0.2-0.6-0.3-1-0.3c-0.4,0-0.7,0.1-1,0.4c-0.2,0.3-0.3,0.6-0.4,1.1
			h-0.9c0-0.7,0.2-1.3,0.6-1.7c0.4-0.4,0.9-0.6,1.6-0.6c0.7,0,1.2,0.2,1.6,0.5c0.4,0.3,0.6,0.8,0.6,1.3c0,0.5-0.2,1-0.6,1.3
			c-0.1,0.1-0.2,0.1-0.3,0.2c0.2,0.1,0.3,0.2,0.4,0.3c0.4,0.3,0.7,0.8,0.7,1.4c0,0.7-0.2,1.2-0.7,1.6c-0.5,0.4-1,0.6-1.8,0.6
			c-0.8,0-1.4-0.2-1.8-0.6c-0.4-0.4-0.6-1-0.7-1.7h0.9c0.1,0.5,0.2,0.9,0.4,1.2c0.2,0.2,0.6,0.4,1.1,0.4c0.4,0,0.8-0.1,1.1-0.4
			c0.3-0.2,0.4-0.6,0.4-1c0-0.4-0.1-0.7-0.4-1c-0.2-0.2-0.5-0.3-0.9-0.4c-0.2,0-0.3,0-0.5,0c-0.1,0-0.2,0-0.3,0V285
			c0.1,0,0.2,0,0.3,0s0.3,0,0.4,0c0.3,0,0.5-0.1,0.7-0.3C260.1,284.5,260.3,284.2,260.3,283.8z"/>
	</g>
	<path class="st3" d="M263.2,288.8c0,0,0-0.1,0-0.2c0.2-0.4,0.4-0.8,0.5-1.2c0.2-0.4,0.3-0.8,0.4-1.1c0.1-0.4,0.3-0.7,0.4-1.2H264
		c-0.3,0-0.5,0.1-0.7,0.2c-0.2,0.2-0.4,0.4-0.5,0.6c0,0,0,0-0.1,0h-0.1c-0.1,0-0.1,0-0.1-0.1c0,0,0,0,0-0.1c0.2-0.4,0.5-0.7,0.7-1
		c0.3-0.3,0.5-0.4,0.9-0.4h3.7c0.1,0,0.1,0,0.2,0.1c0,0,0.1,0.1,0.1,0.2c0,0.1,0,0.2-0.1,0.3c-0.1,0.1-0.2,0.1-0.3,0.1h-1.3
		c-0.1,0.5-0.2,1.1-0.2,1.6c0,0.7,0.1,1.2,0.3,1.8c0,0,0,0.1,0,0.1c0,0.1,0,0.1-0.1,0.2c0,0.1-0.1,0.1-0.2,0.2
		c-0.1,0-0.1,0.1-0.2,0.1c-0.2,0-0.3-0.1-0.4-0.4c-0.1-0.3-0.1-0.6-0.1-0.8c0-0.4,0-0.8,0.1-1.1c0.1-0.4,0.2-0.8,0.3-1.5h-1.1
		c-0.5,2.2-0.9,3.4-1,3.6c-0.1,0.2-0.2,0.3-0.4,0.3c-0.1,0-0.2,0-0.2-0.1C263.3,288.9,263.2,288.9,263.2,288.8L263.2,288.8z"/>
	<g>
		<path class="st2" d="M271.1,281.6l-2.4,7.6H268l2.4-7.6H271.1z"/>
		<path class="st2" d="M276,284c0,0.5-0.1,0.9-0.4,1.3c-0.3,0.3-0.8,0.7-1.5,1.1c-0.8,0.4-1.3,0.8-1.6,1.2c-0.1,0.2-0.2,0.3-0.3,0.5
			h3.8v0.9h-4.8v0c0-0.7,0.2-1.3,0.6-1.8c0.4-0.5,1.1-1,2.1-1.5c0.5-0.3,0.8-0.5,1-0.8c0.2-0.2,0.3-0.5,0.3-0.9
			c0-0.4-0.1-0.7-0.4-0.9c-0.3-0.2-0.6-0.4-1-0.4c-0.4,0-0.8,0.1-1,0.4s-0.4,0.7-0.4,1.3h-0.9c0-0.8,0.2-1.4,0.6-1.8
			c0.4-0.4,1-0.7,1.8-0.7c0.7,0,1.2,0.2,1.6,0.6C275.8,282.9,276,283.4,276,284z"/>
	</g>
	<g>
		<path class="st2" d="M347.1,284c0,0.5-0.1,0.9-0.4,1.3c-0.3,0.3-0.8,0.7-1.5,1.1c-0.8,0.4-1.3,0.8-1.6,1.2
			c-0.1,0.2-0.2,0.3-0.3,0.5h3.8v0.9h-4.8v0c0-0.7,0.2-1.3,0.6-1.8c0.4-0.5,1.1-1,2.1-1.5c0.5-0.3,0.8-0.5,1-0.8
			c0.2-0.2,0.3-0.5,0.3-0.9c0-0.4-0.1-0.7-0.4-0.9c-0.3-0.2-0.6-0.4-1-0.4c-0.4,0-0.8,0.1-1,0.4s-0.4,0.7-0.4,1.3h-0.9
			c0-0.8,0.2-1.4,0.6-1.8c0.4-0.4,1-0.7,1.8-0.7c0.7,0,1.2,0.2,1.6,0.6C346.9,282.9,347.1,283.4,347.1,284z"/>
	</g>
	<path class="st3" d="M349,288.8c0,0,0-0.1,0-0.2c0.2-0.4,0.4-0.8,0.5-1.2c0.2-0.4,0.3-0.8,0.4-1.1c0.1-0.4,0.3-0.7,0.4-1.2h-0.7
		c-0.3,0-0.5,0.1-0.7,0.2c-0.2,0.2-0.4,0.4-0.5,0.6c0,0,0,0-0.1,0h-0.1c-0.1,0-0.1,0-0.1-0.1c0,0,0,0,0-0.1c0.2-0.4,0.5-0.7,0.7-1
		c0.3-0.3,0.5-0.4,0.9-0.4h3.7c0.1,0,0.1,0,0.2,0.1c0,0,0.1,0.1,0.1,0.2c0,0.1,0,0.2-0.1,0.3c-0.1,0.1-0.2,0.1-0.3,0.1h-1.3
		c-0.1,0.5-0.2,1.1-0.2,1.6c0,0.7,0.1,1.2,0.3,1.8c0,0,0,0.1,0,0.1c0,0.1,0,0.1-0.1,0.2c0,0.1-0.1,0.1-0.2,0.2
		c-0.1,0-0.1,0.1-0.2,0.1c-0.2,0-0.3-0.1-0.4-0.4s-0.1-0.6-0.1-0.8c0-0.4,0-0.8,0.1-1.1c0.1-0.4,0.2-0.8,0.3-1.5h-1.1
		c-0.5,2.2-0.9,3.4-1,3.6c-0.1,0.2-0.2,0.3-0.4,0.3c-0.1,0-0.2,0-0.2-0.1C349.1,288.9,349,288.9,349,288.8L349,288.8z"/>
	<g>
	</g>
	<path class="st4" d="M177.2,300.9c-0.1,0-0.1,0-0.1-0.1c0,0-0.1-0.1-0.1-0.1c0-0.1,0-0.1,0.1-0.1c0,0,0.1-0.1,0.1-0.1h8.2
		c-0.3-0.2-0.5-0.4-0.7-0.7s-0.4-0.5-0.5-0.8c-0.1-0.3-0.2-0.6-0.3-1c0-0.1,0-0.1,0.1-0.1h0.2c0.4,0,0.6,0,0.7,0c0,0,0,0,0,0.1
		c0.1,0.3,0.2,0.6,0.3,0.9c0.1,0.3,0.3,0.5,0.5,0.7c0.2,0.2,0.4,0.4,0.6,0.6c0.2,0.2,0.5,0.3,0.8,0.4c0.1,0,0.1,0.1,0.1,0.1
		c0,0.1,0,0.1-0.1,0.1c-0.4,0.1-0.7,0.3-1,0.6c-0.3,0.3-0.6,0.6-0.8,0.9s-0.3,0.7-0.4,1.1c0,0,0,0,0,0.1c0,0-0.2,0-0.7,0H184
		c-0.1,0-0.1,0-0.1-0.1c0.1-0.5,0.3-1,0.5-1.4c0.3-0.4,0.6-0.8,1-1.1H177.2L177.2,300.9z"/>
	<g>
	</g>
	<path class="st4" d="M193.7,303.5c-0.3,0-0.6-0.1-0.8-0.4c-0.2-0.2-0.3-0.5-0.4-0.9c-0.1-0.3-0.1-0.7-0.1-1v0c0-0.4,0-0.7,0.1-1.1
		c0.1-0.4,0.2-0.8,0.3-1.2c0.1-0.4,0.3-0.7,0.4-1c0.1-0.2,0.2-0.4,0.4-0.7c0.2-0.3,0.4-0.5,0.6-0.7c0.2-0.2,0.4-0.4,0.7-0.5
		c0.2-0.1,0.5-0.2,0.7-0.2h0c0.7,0,1.1,0.1,1.3,0.2c0.2,0.1,0.3,0.3,0.4,0.6c0.1,0.2,0.2,0.5,0.2,0.7c0,0.3,0.1,0.5,0.1,0.7
		c0,0.5-0.1,1.1-0.2,1.7c-0.1,0.6-0.4,1.1-0.6,1.6c-0.1,0.2-0.2,0.4-0.4,0.7c-0.2,0.3-0.4,0.5-0.6,0.7c-0.2,0.2-0.4,0.4-0.7,0.5
		C194.8,303.4,194.4,303.5,193.7,303.5L193.7,303.5L193.7,303.5z M193.8,303.2c0.2,0,0.5-0.1,0.7-0.4c0.2-0.3,0.4-0.6,0.6-0.9
		c0.2-0.4,0.3-0.7,0.4-1.1c0.1-0.4,0.2-0.7,0.3-1h-1.6c-0.1,0.5-0.2,0.8-0.3,1.2c-0.1,0.3-0.1,0.7-0.1,1
		C193.8,302.8,193.8,303.2,193.8,303.2L193.8,303.2z M194.2,299.4h1.6c0.1-0.3,0.1-0.6,0.2-0.8c0-0.2,0.1-0.4,0.1-0.7
		c0-0.2,0-0.5,0-0.7c0-0.8-0.2-1.3-0.6-1.3c-0.1,0-0.3,0.4-0.6,1.1C194.7,297.9,194.4,298.6,194.2,299.4L194.2,299.4z"/>
	<path class="st1" d="M22.2,274.6V17.8 M348,274.6V17.8 M22.2,274.6h3.3 M22.2,210.4h3.3 M22.2,146.2h3.3 M22.2,82h3.3 M22.2,17.8
		h3.3 M348,274.6h-3.3 M348,210.4h-3.3 M348,146.2h-3.3 M348,82h-3.3 M348,17.8h-3.3"/>
	<g>
		<path class="st2" d="M8.8,275.5h2.5v0.9H8.8V275.5z"/>
	</g>
	<path class="st3" d="M13,278.6c0,0,0-0.1,0-0.2c0.2-0.4,0.4-0.8,0.5-1.2c0.2-0.4,0.3-0.8,0.4-1.1c0.1-0.4,0.3-0.7,0.4-1.2h-0.7
		c-0.3,0-0.5,0.1-0.7,0.2c-0.2,0.2-0.4,0.4-0.5,0.6c0,0,0,0-0.1,0h-0.1c-0.1,0-0.1,0-0.1-0.1c0,0,0,0,0-0.1c0.2-0.4,0.5-0.7,0.7-1
		c0.3-0.3,0.5-0.4,0.9-0.4h3.7c0.1,0,0.1,0,0.2,0.1c0.1,0,0.1,0.1,0.1,0.2c0,0.1,0,0.2-0.1,0.3c-0.1,0.1-0.2,0.1-0.3,0.1h-1.3
		c-0.1,0.5-0.2,1.1-0.2,1.6c0,0.7,0.1,1.2,0.3,1.8c0,0,0,0.1,0,0.1c0,0.1,0,0.1-0.1,0.2c0,0.1-0.1,0.1-0.2,0.2
		c-0.1,0-0.1,0.1-0.2,0.1c-0.2,0-0.3-0.1-0.4-0.4c-0.1-0.3-0.1-0.6-0.1-0.8c0-0.4,0-0.8,0.1-1.1c0.1-0.4,0.2-0.8,0.3-1.5h-1.1
		c-0.5,2.2-0.9,3.4-1,3.6c-0.1,0.2-0.2,0.3-0.4,0.3c-0.1,0-0.2,0-0.2-0.1C13.1,278.7,13,278.7,13,278.6L13,278.6z"/>
	<g>
		<path class="st2" d="M0.4,211.4h2.5v0.9H0.4V211.4z"/>
	</g>
	<path class="st3" d="M4.6,214.4c0,0,0-0.1,0-0.2c0.2-0.4,0.4-0.8,0.5-1.2c0.2-0.4,0.3-0.8,0.4-1.1c0.1-0.4,0.3-0.7,0.4-1.2H5.4
		c-0.3,0-0.5,0.1-0.7,0.2c-0.2,0.2-0.4,0.4-0.5,0.6c0,0,0,0-0.1,0H3.9c-0.1,0-0.1,0-0.1-0.1c0,0,0,0,0-0.1c0.2-0.4,0.5-0.7,0.7-1
		c0.3-0.3,0.5-0.4,0.9-0.4h3.7c0.1,0,0.1,0,0.2,0.1c0.1,0,0.1,0.1,0.1,0.2c0,0.1,0,0.2-0.1,0.3c-0.1,0.1-0.2,0.1-0.3,0.1H7.7
		c-0.1,0.5-0.2,1.1-0.2,1.6c0,0.7,0.1,1.2,0.3,1.8c0,0,0,0.1,0,0.1c0,0.1,0,0.1-0.1,0.2c0,0.1-0.1,0.1-0.2,0.2
		c-0.1,0-0.1,0.1-0.2,0.1c-0.2,0-0.3-0.1-0.4-0.4S7,213.7,7,213.4c0-0.4,0-0.8,0.1-1.1s0.2-0.8,0.3-1.5H6.3c-0.5,2.2-0.9,3.4-1,3.6
		c-0.1,0.2-0.2,0.3-0.4,0.3c-0.1,0-0.2,0-0.2-0.1C4.7,214.5,4.6,214.5,4.6,214.4L4.6,214.4z"/>
	<g>
		<path class="st2" d="M12.5,207.2l-2.4,7.6H9.4l2.4-7.6H12.5z"/>
		<path class="st2" d="M17.5,209.6c0,0.5-0.1,0.9-0.4,1.3c-0.3,0.3-0.8,0.7-1.5,1.1c-0.8,0.4-1.3,0.8-1.6,1.2
			c-0.1,0.2-0.2,0.3-0.3,0.5h3.8v0.9h-4.8v0c0-0.7,0.2-1.3,0.6-1.8c0.4-0.5,1.1-1,2.1-1.5c0.5-0.3,0.8-0.5,1-0.8
			c0.2-0.2,0.3-0.5,0.3-0.9c0-0.4-0.1-0.7-0.4-0.9c-0.3-0.2-0.6-0.4-1-0.4c-0.4,0-0.8,0.1-1,0.4s-0.4,0.7-0.4,1.3h-0.9
			c0-0.8,0.2-1.4,0.6-1.8c0.4-0.4,1-0.7,1.8-0.7c0.7,0,1.2,0.2,1.6,0.6C17.2,208.5,17.5,209,17.5,209.6z"/>
	</g>
	<g>
		<path class="st2" d="M13.2,149.3c-0.4-0.6-0.6-1.5-0.6-2.7s0.2-2,0.6-2.7c0.4-0.6,1-0.9,1.8-0.9c0.8,0,1.4,0.3,1.8,0.9
			c0.4,0.6,0.6,1.5,0.6,2.7s-0.2,2-0.6,2.7s-1,0.9-1.8,0.9C14.2,150.3,13.6,149.9,13.2,149.3z M16.1,148.8c0.2-0.5,0.4-1.2,0.4-2.1
			c0-0.9-0.1-1.6-0.4-2.1c-0.2-0.5-0.6-0.7-1.1-0.7c-0.5,0-0.9,0.2-1.1,0.7c-0.2,0.5-0.4,1.2-0.4,2.1c0,0.9,0.1,1.6,0.4,2.1
			s0.6,0.7,1.1,0.7C15.5,149.5,15.8,149.2,16.1,148.8z"/>
	</g>
	<path class="st3" d="M4.6,86c0,0,0-0.1,0-0.2C4.9,85.4,5,85,5.2,84.7c0.2-0.4,0.3-0.8,0.4-1.1c0.1-0.4,0.3-0.7,0.4-1.2H5.4
		c-0.3,0-0.5,0.1-0.7,0.2c-0.2,0.2-0.4,0.4-0.5,0.6c0,0,0,0-0.1,0H3.9c-0.1,0-0.1,0-0.1-0.1c0,0,0,0,0-0.1c0.2-0.4,0.5-0.7,0.7-1
		c0.3-0.3,0.5-0.4,0.9-0.4h3.7c0.1,0,0.1,0,0.2,0.1c0.1,0,0.1,0.1,0.1,0.2c0,0.1,0,0.2-0.1,0.3c-0.1,0.1-0.2,0.1-0.3,0.1H7.7
		c-0.1,0.5-0.2,1.1-0.2,1.6c0,0.7,0.1,1.2,0.3,1.8c0,0,0,0.1,0,0.1c0,0.1,0,0.1-0.1,0.2c0,0.1-0.1,0.1-0.2,0.2
		c-0.1,0-0.1,0.1-0.2,0.1c-0.2,0-0.3-0.1-0.4-0.4S7,85.3,7,85c0-0.4,0-0.8,0.1-1.1c0.1-0.4,0.2-0.8,0.3-1.5H6.3
		c-0.5,2.2-0.9,3.4-1,3.6c-0.1,0.2-0.2,0.3-0.4,0.3c-0.1,0-0.2,0-0.2-0.1C4.7,86.1,4.6,86.1,4.6,86L4.6,86z"/>
	<g>
		<path class="st2" d="M12.5,78.8l-2.4,7.6H9.4l2.4-7.6H12.5z"/>
		<path class="st2" d="M17.5,81.2c0,0.5-0.1,0.9-0.4,1.3s-0.8,0.7-1.5,1.1c-0.8,0.4-1.3,0.8-1.6,1.2c-0.1,0.2-0.2,0.3-0.3,0.5h3.8
			v0.9h-4.8v0c0-0.7,0.2-1.3,0.6-1.8s1.1-1,2.1-1.5c0.5-0.3,0.8-0.5,1-0.8c0.2-0.2,0.3-0.5,0.3-0.9c0-0.4-0.1-0.7-0.4-0.9
			s-0.6-0.4-1-0.4c-0.4,0-0.8,0.1-1,0.4c-0.2,0.3-0.4,0.7-0.4,1.3h-0.9c0-0.8,0.2-1.4,0.6-1.8c0.4-0.4,1-0.7,1.8-0.7
			c0.7,0,1.2,0.2,1.6,0.6C17.2,80.1,17.5,80.6,17.5,81.2z"/>
	</g>
	<path class="st3" d="M13,21.8c0,0,0-0.1,0-0.2c0.2-0.4,0.4-0.8,0.5-1.2c0.2-0.4,0.3-0.8,0.4-1.1c0.1-0.4,0.3-0.7,0.4-1.2h-0.7
		c-0.3,0-0.5,0.1-0.7,0.2c-0.2,0.2-0.4,0.4-0.5,0.6c0,0,0,0-0.1,0h-0.1c-0.1,0-0.1,0-0.1-0.1c0,0,0,0,0-0.1c0.2-0.4,0.5-0.7,0.7-1
		c0.3-0.3,0.5-0.4,0.9-0.4h3.7c0.1,0,0.1,0,0.2,0.1c0.1,0,0.1,0.1,0.1,0.2c0,0.1,0,0.2-0.1,0.3c-0.1,0.1-0.2,0.1-0.3,0.1h-1.3
		c-0.1,0.5-0.2,1.1-0.2,1.6c0,0.7,0.1,1.2,0.3,1.8c0,0,0,0.1,0,0.1c0,0.1,0,0.1-0.1,0.2c0,0.1-0.1,0.1-0.2,0.2
		c-0.1,0-0.1,0.1-0.2,0.1c-0.2,0-0.3-0.1-0.4-0.4c-0.1-0.3-0.1-0.6-0.1-0.8c0-0.4,0-0.8,0.1-1.1c0.1-0.4,0.2-0.8,0.3-1.5h-1.1
		c-0.5,2.2-0.9,3.4-1,3.6c-0.1,0.2-0.2,0.3-0.4,0.3c-0.1,0-0.2,0-0.2-0.1C13.1,21.9,13,21.9,13,21.8L13,21.8z"/>
	<polygon points="133.8,13 140.5,6.3 140.5,7.8 136.3,12.2 140.6,12.2 140.6,13 133.8,13 	"/>
	<g>
		<path class="st5" d="M146.1,13V5h1.6v3h3.1V5h1.6V13h-1.6V9.4h-3.1V13H146.1z"/>
		<path class="st5" d="M153.9,5h2.7v1.1h-1.2V14h1.2v1.1h-2.7V5z"/>
		<path class="st5" d="M157.6,5.1h1.5v4.3l1.9-2.2h1.9l-2.1,2.2L163,13h-1.9l-1.4-2.5l-0.6,0.7V13h-1.5V5.1z"/>
		<path class="st5" d="M163.2,14h1.2V6.1h-1.2V5h2.7v10.1h-2.7V14z"/>
		<path class="st5" d="M172.7,9.4c0.3,0,0.5-0.1,0.6-0.1c0.2-0.1,0.3-0.2,0.3-0.4c0-0.2-0.1-0.4-0.3-0.5c-0.2-0.1-0.4-0.1-0.7-0.1
			c-0.4,0-0.6,0.1-0.8,0.3c-0.1,0.1-0.2,0.3-0.2,0.5h-1.5c0-0.5,0.2-0.9,0.4-1.3c0.4-0.5,1.1-0.8,2.1-0.8c0.6,0,1.2,0.1,1.7,0.4
			c0.5,0.3,0.8,0.7,0.8,1.4v2.7c0,0.2,0,0.4,0,0.7c0,0.2,0,0.3,0.1,0.4c0,0.1,0.1,0.1,0.2,0.2V13h-1.7c0-0.1-0.1-0.2-0.1-0.3
			c0-0.1,0-0.2,0-0.4c-0.2,0.2-0.5,0.4-0.7,0.6c-0.3,0.2-0.7,0.3-1.1,0.3c-0.5,0-1-0.2-1.3-0.5c-0.3-0.3-0.5-0.7-0.5-1.3
			c0-0.7,0.3-1.2,0.8-1.6c0.3-0.2,0.8-0.3,1.4-0.4L172.7,9.4z M173.7,10.1c-0.1,0.1-0.2,0.1-0.3,0.1c-0.1,0-0.2,0.1-0.4,0.1
			l-0.3,0.1c-0.3,0.1-0.6,0.1-0.7,0.2c-0.2,0.1-0.4,0.4-0.4,0.6c0,0.3,0.1,0.5,0.2,0.6c0.1,0.1,0.3,0.2,0.5,0.2
			c0.3,0,0.6-0.1,0.9-0.3c0.3-0.2,0.4-0.5,0.4-1.1V10.1z"/>
		<path class="st5" d="M181.2,7.4c0.4,0.3,0.6,0.8,0.6,1.6V13h-1.6V9.4c0-0.3,0-0.5-0.1-0.7c-0.1-0.3-0.4-0.5-0.9-0.5
			c-0.5,0-0.9,0.2-1.1,0.7c-0.1,0.2-0.1,0.5-0.1,0.9V13h-1.5V7.1h1.5V8c0.2-0.3,0.4-0.5,0.6-0.6c0.3-0.2,0.7-0.4,1.2-0.4
			C180.4,7,180.9,7.1,181.2,7.4z"/>
		<path class="st5" d="M186.3,7.2c0.3,0.2,0.5,0.4,0.7,0.6V5.1h1.6V13h-1.5v-0.8c-0.2,0.3-0.5,0.6-0.7,0.8s-0.6,0.2-1,0.2
			c-0.7,0-1.3-0.3-1.7-0.8c-0.5-0.6-0.7-1.3-0.7-2.1c0-1,0.2-1.8,0.7-2.4c0.5-0.6,1.1-0.9,1.8-0.9C185.8,7,186.1,7.1,186.3,7.2z
			 M186.7,11.4c0.2-0.3,0.3-0.7,0.3-1.3c0-0.7-0.2-1.2-0.5-1.5c-0.2-0.2-0.5-0.3-0.8-0.3c-0.4,0-0.8,0.2-1,0.5
			c-0.2,0.3-0.3,0.8-0.3,1.3c0,0.5,0.1,1,0.3,1.3c0.2,0.3,0.5,0.5,1,0.5C186.2,11.9,186.5,11.7,186.7,11.4z"/>
	</g>
	<polygon class="st4" points="193.8,13 200.5,6.3 200.5,7.8 196.3,12.2 200.6,12.2 200.6,13 193.8,13 	"/>
	<g>
		<path class="st4" d="M206.1,13V5h1.6v3h3.1V5h1.6V13h-1.6V9.4h-3.1V13H206.1z"/>
		<path class="st4" d="M214.3,7c0.3-0.6,0.5-1.1,0.8-1.5l0.4-0.5l0.9,0c-0.5,0.9-0.8,1.6-1,2.2c-0.3,0.9-0.4,1.9-0.4,3
			c0,0.7,0.1,1.3,0.2,1.9c0.2,0.9,0.5,1.8,0.9,2.6l0.3,0.6h-0.9c-0.6-0.8-1-1.6-1.3-2.3c-0.4-0.9-0.5-1.8-0.5-2.7
			C213.6,9.1,213.8,8,214.3,7z"/>
		<path class="st4" d="M221.4,7.2c0.4,0.2,0.7,0.5,1,0.9c0.2,0.3,0.4,0.8,0.5,1.2c0,0.3,0.1,0.7,0,1.2h-4.3c0,0.6,0.2,1,0.6,1.2
			c0.2,0.1,0.5,0.2,0.8,0.2c0.3,0,0.6-0.1,0.8-0.3c0.1-0.1,0.2-0.2,0.3-0.4h1.6c0,0.3-0.2,0.7-0.6,1.1c-0.5,0.6-1.3,0.9-2.2,0.9
			c-0.8,0-1.5-0.2-2.1-0.7c-0.6-0.5-0.9-1.3-0.9-2.3c0-1,0.3-1.8,0.8-2.3c0.5-0.5,1.2-0.8,2.1-0.8C220.5,7,221,7,221.4,7.2z
			 M219.1,8.6c-0.2,0.2-0.4,0.5-0.4,0.9h2.6c0-0.4-0.2-0.7-0.4-0.9c-0.2-0.2-0.5-0.3-0.9-0.3C219.6,8.2,219.3,8.3,219.1,8.6z"/>
	</g>
	<g>
		<path class="st4" d="M223.2,8.5c0.1,0,0.1,0,0.1,0s0.1,0,0.1,0c0.1,0,0.2,0,0.3-0.1s0.1-0.2,0.1-0.3V2.9h1.2v5.2
			c0,0.5-0.1,0.8-0.3,1c-0.2,0.2-0.6,0.3-1.1,0.3c0,0-0.1,0-0.2,0s-0.2,0-0.3,0V8.5z M225.1,2.3h-1.2V1.2h1.2V2.3z"/>
	</g>
	<path class="st4" d="M230.1,7.7c-0.3,0-0.5-0.1-0.7-0.3c-0.2-0.2-0.3-0.4-0.3-0.7C229,6.4,229,6.1,229,5.8v0c0-0.3,0-0.6,0.1-0.9
		c0.1-0.3,0.1-0.6,0.2-1c0.1-0.3,0.2-0.6,0.4-0.9c0.1-0.2,0.2-0.4,0.3-0.6c0.1-0.2,0.3-0.4,0.5-0.6c0.2-0.2,0.4-0.3,0.6-0.5
		c0.2-0.1,0.4-0.2,0.6-0.2h0c0.6,0,1,0.1,1.1,0.2c0.1,0.1,0.3,0.3,0.3,0.5c0.1,0.2,0.1,0.4,0.2,0.6c0,0.2,0.1,0.4,0.1,0.6
		c0,0.5-0.1,0.9-0.2,1.4c-0.1,0.5-0.3,0.9-0.5,1.4c-0.1,0.2-0.2,0.4-0.3,0.6c-0.1,0.2-0.3,0.4-0.5,0.6c-0.2,0.2-0.3,0.3-0.5,0.5
		C231.1,7.6,230.7,7.7,230.1,7.7L230.1,7.7L230.1,7.7z M230.2,7.4c0.1,0,0.3-0.1,0.5-0.3c0.2-0.2,0.3-0.5,0.5-0.8
		c0.1-0.3,0.3-0.6,0.4-0.9c0.1-0.3,0.2-0.6,0.2-0.8h-1.2c-0.1,0.4-0.2,0.7-0.2,1c-0.1,0.3-0.1,0.5-0.1,0.8
		C230.2,7.1,230.2,7.4,230.2,7.4L230.2,7.4z M230.5,4.3h1.2c0.1-0.3,0.1-0.5,0.1-0.7s0.1-0.4,0.1-0.6c0-0.2,0-0.4,0-0.6
		c0-0.7-0.2-1.1-0.5-1.1c0,0-0.1,0.3-0.4,0.9C230.9,3,230.7,3.6,230.5,4.3L230.5,4.3z"/>
	<g>
		<path class="st4" d="M235.9,7c0.4,1,0.6,1.9,0.6,2.9c0,1.1-0.2,2.2-0.7,3.3c-0.3,0.6-0.5,1.1-0.8,1.4l-0.4,0.5h-1.1
			c0.5-0.9,0.8-1.6,1-2.1c0.3-0.9,0.5-1.9,0.5-3c0-0.7-0.1-1.3-0.2-1.9c-0.2-0.9-0.5-1.8-0.9-2.6l-0.3-0.6h1.2
			C235.2,5.7,235.6,6.4,235.9,7z"/>
	</g>
	<line class="st6" x1="22.2" y1="146.2" x2="348" y2="146.2"/>
	<polyline class="st7" points="22.2,146.2 22.7,152.4 23.2,158.6 23.7,164.8 24.2,171.1 24.7,177.3 25.2,183.5 25.7,189.7 26.1,196 
		26.6,202.2 27.1,208.4 27.6,214.6 28.1,220.9 28.6,227.1 29.1,233.3 29.6,239.5 30.1,245.8 30.6,252 31.1,258.2 31.6,264.4 
		32.1,270.7 32.6,20.1 33.1,26.3 33.6,32.6 34,38.8 34.5,45 35,51.2 35.5,57.5 36,63.7 36.5,69.9 37,76.1 37.5,82.4 38,88.6 
		38.5,94.8 39,101 39.5,107.3 40,113.5 40.5,119.7 41,125.9 41.5,132.2 41.9,138.4 42.4,144.6 42.9,150.8 43.4,157.1 43.9,163.3 
		44.4,169.5 44.9,175.7 45.4,182 45.9,188.2 46.4,194.4 46.9,200.6 47.4,206.9 47.9,213.1 48.4,219.3 48.9,225.5 49.3,231.8 
		49.8,238 50.3,244.2 50.8,250.4 51.3,256.7 51.8,262.9 52.3,269.1 52.8,18.5 53.3,24.8 53.8,31 54.3,37.2 54.8,43.4 55.3,49.7 
		55.8,55.9 56.3,62.1 56.8,68.3 57.2,74.6 57.7,80.8 58.2,87 58.7,93.2 59.2,99.5 59.7,105.7 60.2,111.9 60.7,118.2 61.2,124.4 
		61.7,130.6 62.2,136.8 62.7,143.1 63.2,149.3 63.7,155.5 64.2,161.7 64.7,168 65.1,174.2 65.6,180.4 66.1,186.6 66.6,192.9 
		67.1,199.1 67.6,205.3 68.1,211.5 68.6,217.8 69.1,224 69.6,230.2 70.1,236.4 70.6,242.7 71.1,248.9 71.6,255.1 72.1,261.3 
		72.5,267.6 73,273.8 73.5,23.2 74,29.4 74.5,35.7 75,41.9 75.5,48.1 76,54.3 76.5,60.6 77,66.8 77.5,73 78,79.2 78.5,85.5 79,91.7 
		79.5,97.9 80,104.1 80.4,110.4 80.9,116.6 81.4,122.8 81.9,129 82.4,135.3 82.9,141.5 83.4,147.7 83.9,153.9 84.4,160.2 
		84.9,166.4 85.4,172.6 85.9,178.8 86.4,185.1 86.9,191.3 87.4,197.5 87.9,203.8 88.3,210 88.8,216.2 89.3,222.4 89.8,228.7 
		90.3,234.9 90.8,241.1 91.3,247.3 91.8,253.6 92.3,259.8 92.8,266 93.3,272.2 93.8,21.7 94.3,27.9 94.8,34.1 95.3,40.3 95.8,46.6 
		96.2,52.8 96.7,59 97.2,65.2 97.7,71.5 98.2,77.7 98.7,83.9 99.2,90.1 99.7,96.4 100.2,102.6 100.7,108.8 101.2,115 101.7,121.3 
		102.2,127.5 102.7,133.7 103.2,139.9 103.6,146.2 104.1,152.4 104.6,158.6 105.1,164.8 105.6,171.1 106.1,177.3 106.6,183.5 
		107.1,189.7 107.6,196 108.1,202.2 108.6,208.4 109.1,214.6 109.6,220.9 110.1,227.1 110.6,233.3 111.1,146.2 111.5,117.4 
		112,123.6 112.5,129.8 113,136 113.5,142.3 114,148.5 114.5,154.7 115,161 115.5,167.2 116,173.4 116.5,179.6 117,185.9 
		117.5,192.1 118,198.3 118.5,204.5 119,210.8 119.4,217 119.9,223.2 120.4,229.4 120.9,146.2 121.4,113.5 121.9,119.7 122.4,125.9 
		122.9,132.2 123.4,138.4 123.9,144.6 124.4,150.8 124.9,157.1 125.4,163.3 125.9,169.5 126.4,175.7 126.8,182 127.3,188.2 
		127.8,194.4 128.3,200.6 128.8,206.9 129.3,213.1 129.8,219.3 130.3,225.5 130.8,146.2 131.3,109.6 131.8,115.8 132.3,122 
		132.8,128.3 133.3,134.5 133.8,140.7 134.3,146.9 134.7,153.2 135.2,159.4 135.7,165.6 136.2,171.8 136.7,178.1 137.2,184.3 
		137.7,190.5 138.2,196.7 138.7,203 139.2,209.2 139.7,215.4 140.2,221.6 140.7,146.2 141.2,105.7 141.7,111.9 142.2,118.2 
		142.6,124.4 143.1,130.6 143.6,136.8 144.1,143.1 144.6,149.3 145.1,155.5 145.6,161.7 146.1,168 146.6,174.2 147.1,180.4 
		147.6,186.6 148.1,192.9 148.6,199.1 149.1,205.3 149.6,211.5 150.1,217.8 150.5,146.2 151,101.8 151.5,108 152,114.3 152.5,120.5 
		153,126.7 153.5,132.9 154,139.2 154.5,145.4 155,151.6 155.5,157.8 156,164.1 156.5,170.3 157,176.5 157.5,182.7 157.9,189 
		158.4,195.2 158.9,201.4 159.4,207.6 159.9,213.9 160.4,146.2 160.9,97.9 161.4,104.1 161.9,110.4 162.4,116.6 162.9,122.8 
		163.4,129 163.9,135.3 164.4,141.5 164.9,147.7 165.4,153.9 165.8,160.2 166.3,166.4 166.8,172.6 167.3,178.8 167.8,185.1 
		168.3,191.3 168.8,197.5 169.3,203.8 169.8,210 170.3,146.2 170.8,94 171.3,100.3 171.8,106.5 172.3,112.7 172.8,118.9 
		173.3,125.2 173.7,131.4 174.2,137.6 174.7,143.8 175.2,150.1 175.7,156.3 176.2,162.5 176.7,168.7 177.2,175 177.7,181.2 
		178.2,187.4 178.7,193.6 179.2,199.9 179.7,206.1 180.2,146.2 180.7,90.1 181.1,96.4 181.6,102.6 182.1,108.8 182.6,115 
		183.1,121.3 183.6,127.5 184.1,133.7 184.6,139.9 185.1,146.2 185.6,152.4 186.1,158.6 186.6,164.8 187.1,171.1 187.6,177.3 
		188.1,183.5 188.6,189.7 189,196 189.5,202.2 190,146.2 190.5,86.2 191,92.5 191.5,98.7 192,104.9 192.5,111.1 193,117.4 
		193.5,123.6 194,129.8 194.5,136 195,142.3 195.5,148.5 196,154.7 196.5,161 196.9,167.2 197.4,173.4 197.9,179.6 198.4,185.9 
		198.9,192.1 199.4,198.3 199.9,146.2 200.4,82.4 200.9,88.6 201.4,94.8 201.9,101 202.4,107.3 202.9,113.5 203.4,119.7 
		203.9,125.9 204.4,132.2 204.8,138.4 205.3,144.6 205.8,150.8 206.3,157.1 206.8,163.3 207.3,169.5 207.8,175.7 208.3,182 
		208.8,188.2 209.3,194.4 209.8,146.2 210.3,78.5 210.8,84.7 211.3,90.9 211.8,97.1 212.2,103.4 212.7,109.6 213.2,115.8 213.7,122 
		214.2,128.3 214.7,134.5 215.2,140.7 215.7,146.9 216.2,153.2 216.7,159.4 217.2,165.6 217.7,171.8 218.2,178.1 218.7,184.3 
		219.2,190.5 219.7,146.2 220.1,74.6 220.6,80.8 221.1,87 221.6,93.2 222.1,99.5 222.6,105.7 223.1,111.9 223.6,118.2 224.1,124.4 
		224.6,130.6 225.1,136.8 225.6,143.1 226.1,149.3 226.6,155.5 227.1,161.7 227.6,168 228,174.2 228.5,180.4 229,186.6 229.5,146.2 
		230,70.7 230.5,76.9 231,83.1 231.5,89.4 232,95.6 232.5,101.8 233,108 233.5,114.3 234,120.5 234.5,126.7 235,132.9 235.4,139.2 
		235.9,145.4 236.4,151.6 236.9,157.8 237.4,164.1 237.9,170.3 238.4,176.5 238.9,182.7 239.4,146.2 239.9,66.8 240.4,73 
		240.9,79.2 241.4,85.5 241.9,91.7 242.4,97.9 242.9,104.1 243.3,110.4 243.8,116.6 244.3,122.8 244.8,129 245.3,135.3 245.8,141.5 
		246.3,147.7 246.8,153.9 247.3,160.2 247.8,166.4 248.3,172.6 248.8,178.8 249.3,146.2 249.8,62.9 250.3,69.1 250.8,75.4 
		251.2,81.6 251.7,87.8 252.2,94 252.7,100.3 253.2,106.5 253.7,112.7 254.2,118.9 254.7,125.2 255.2,131.4 255.7,137.6 
		256.2,143.8 256.7,150.1 257.2,156.3 257.7,162.5 258.2,168.7 258.7,175 259.1,146.2 259.6,59 260.1,65.2 260.6,71.5 261.1,77.7 
		261.6,83.9 262.1,90.1 262.6,96.4 263.1,102.6 263.6,108.8 264.1,115 264.6,121.3 265.1,127.5 265.6,133.7 266.1,139.9 
		266.5,146.2 267,152.4 267.5,158.6 268,164.8 268.5,171.1 269,177.3 269.5,183.5 270,189.7 270.5,196 271,202.2 271.5,208.4 
		272,214.6 272.5,220.9 273,227.1 273.5,233.3 274,239.5 274.4,245.8 274.9,252 275.4,258.2 275.9,264.4 276.4,270.7 276.9,20.1 
		277.4,26.3 277.9,32.6 278.4,38.8 278.9,45 279.4,51.2 279.9,57.5 280.4,63.7 280.9,69.9 281.4,76.1 281.9,82.4 282.3,88.6 
		282.8,94.8 283.3,101 283.8,107.3 284.3,113.5 284.8,119.7 285.3,125.9 285.8,132.2 286.3,138.4 286.8,144.6 287.3,150.8 
		287.8,157.1 288.3,163.3 288.8,169.5 289.3,175.7 289.7,182 290.2,188.2 290.7,194.4 291.2,200.6 291.7,206.9 292.2,213.1 
		292.7,219.3 293.2,225.5 293.7,231.8 294.2,238 294.7,244.2 295.2,250.4 295.7,256.7 296.2,262.9 296.7,269.1 297.2,18.5 
		297.6,24.8 298.1,31 298.6,37.2 299.1,43.4 299.6,49.7 300.1,55.9 300.6,62.1 301.1,68.3 301.6,74.6 302.1,80.8 302.6,87 
		303.1,93.2 303.6,99.5 304.1,105.7 304.6,111.9 305.1,118.2 305.5,124.4 306,130.6 306.5,136.8 307,143.1 307.5,149.3 308,155.5 
		308.5,161.7 309,168 309.5,174.2 310,180.4 310.5,186.6 311,192.9 311.5,199.1 312,205.3 312.5,211.5 313,217.8 313.4,224 
		313.9,230.2 314.4,236.4 314.9,242.7 315.4,248.9 315.9,255.1 316.4,261.3 316.9,267.6 317.4,273.8 317.9,23.2 318.4,29.4 
		318.9,35.7 319.4,41.9 319.9,48.1 320.4,54.3 320.8,60.6 321.3,66.8 321.8,73 322.3,79.2 322.8,85.5 323.3,91.7 323.8,97.9 
		324.3,104.1 324.8,110.4 325.3,116.6 325.8,122.8 326.3,129 326.8,135.3 327.3,141.5 327.8,147.7 328.3,153.9 328.7,160.2 
		329.2,166.4 329.7,172.6 330.2,178.8 330.7,185.1 331.2,191.3 331.7,197.5 332.2,203.8 332.7,210 333.2,216.2 333.7,222.4 
		334.2,228.7 334.7,234.9 335.2,241.1 335.7,247.3 336.2,253.6 336.6,259.8 337.1,266 337.6,272.2 338.1,21.7 338.6,27.9 
		339.1,34.1 339.6,40.3 340.1,46.6 340.6,52.8 341.1,59 341.6,65.2 342.1,71.5 342.6,77.7 343.1,83.9 343.6,90.1 344,96.4 
		344.5,102.6 345,108.8 345.5,115 346,121.3 346.5,127.5 347,133.7 347.5,139.9 	"/>
	<path d="M22.2,144.7c0.8,0,1.5,0.7,1.5,1.5l0,0c0,0.8-0.7,1.5-1.5,1.5s-1.5-0.7-1.5-1.5C20.7,145.3,21.4,144.7,22.2,144.7
		L22.2,144.7z M22.2,141.7c-2.5,0-4.5,2-4.5,4.5c0,2.5,2,4.5,4.5,4.5s4.5-2,4.5-4.5l0,0C26.7,143.7,24.7,141.7,22.2,141.7
		L22.2,141.7z"/>
	<path d="M32.1,269.2c0.8,0,1.5,0.7,1.5,1.5l0,0c0,0.8-0.7,1.5-1.5,1.5c-0.8,0-1.5-0.7-1.5-1.5C30.6,269.8,31.2,269.2,32.1,269.2
		L32.1,269.2z M32.1,266.2c-2.5,0-4.5,2-4.5,4.5c0,2.5,2,4.5,4.5,4.5s4.5-2,4.5-4.5l0,0C36.6,268.2,34.6,266.2,32.1,266.2
		L32.1,266.2z"/>
	<path d="M41.9,136.9c0.8,0,1.5,0.7,1.5,1.5l0,0c0,0.8-0.7,1.5-1.5,1.5c-0.8,0-1.5-0.7-1.5-1.5S41.1,136.9,41.9,136.9L41.9,136.9z
		 M41.9,133.9c-2.5,0-4.5,2-4.5,4.5s2,4.5,4.5,4.5s4.5-2,4.5-4.5l0,0C46.4,135.9,44.4,133.9,41.9,133.9L41.9,133.9z"/>
	<path d="M51.8,261.4c0.8,0,1.5,0.7,1.5,1.5l0,0c0,0.8-0.7,1.5-1.5,1.5c-0.8,0-1.5-0.7-1.5-1.5C50.3,262.1,51,261.4,51.8,261.4
		L51.8,261.4z M51.8,258.4c-2.5,0-4.5,2-4.5,4.5s2,4.5,4.5,4.5c2.5,0,4.5-2,4.5-4.5l0,0C56.3,260.4,54.3,258.4,51.8,258.4
		L51.8,258.4z"/>
	<path d="M61.7,129.1c0.8,0,1.5,0.7,1.5,1.5l0,0c0,0.8-0.7,1.5-1.5,1.5c-0.8,0-1.5-0.7-1.5-1.5C60.2,129.8,60.9,129.1,61.7,129.1
		L61.7,129.1z M61.7,126.1c-2.5,0-4.5,2-4.5,4.5c0,2.5,2,4.5,4.5,4.5c2.5,0,4.5-2,4.5-4.5l0,0C66.2,128.1,64.2,126.1,61.7,126.1
		L61.7,126.1z"/>
	<path d="M71.6,253.6c0.8,0,1.5,0.7,1.5,1.5l0,0c0,0.8-0.7,1.5-1.5,1.5c-0.8,0-1.5-0.7-1.5-1.5S70.7,253.6,71.6,253.6L71.6,253.6z
		 M71.6,250.6c-2.5,0-4.5,2-4.5,4.5s2,4.5,4.5,4.5c2.5,0,4.5-2,4.5-4.5l0,0C76.1,252.6,74,250.6,71.6,250.6L71.6,250.6z"/>
	<path d="M81.4,121.3c0.8,0,1.5,0.7,1.5,1.5l0,0c0,0.8-0.7,1.5-1.5,1.5c-0.8,0-1.5-0.7-1.5-1.5S80.6,121.3,81.4,121.3L81.4,121.3z
		 M81.4,118.3c-2.5,0-4.5,2-4.5,4.5s2,4.5,4.5,4.5c2.5,0,4.5-2,4.5-4.5l0,0C85.9,120.3,83.9,118.3,81.4,118.3L81.4,118.3z"/>
	<path d="M91.3,245.8c0.8,0,1.5,0.7,1.5,1.5l0,0c0,0.8-0.7,1.5-1.5,1.5c-0.8,0-1.5-0.7-1.5-1.5C89.8,246.5,90.5,245.8,91.3,245.8
		L91.3,245.8z M91.3,242.8c-2.5,0-4.5,2-4.5,4.5s2,4.5,4.5,4.5s4.5-2,4.5-4.5l0,0C95.8,244.8,93.8,242.8,91.3,242.8L91.3,242.8z"/>
	<path d="M101.2,113.5c0.8,0,1.5,0.7,1.5,1.5l0,0c0,0.8-0.7,1.5-1.5,1.5c-0.8,0-1.5-0.7-1.5-1.5C99.7,114.2,100.4,113.5,101.2,113.5
		L101.2,113.5z M101.2,110.5c-2.5,0-4.5,2-4.5,4.5c0,2.5,2,4.5,4.5,4.5s4.5-2,4.5-4.5l0,0C105.7,112.6,103.7,110.5,101.2,110.5
		L101.2,110.5z"/>
	<path d="M111.1,144.7c0.8,0,1.5,0.7,1.5,1.5l0,0c0,0.8-0.7,1.5-1.5,1.5s-1.5-0.7-1.5-1.5C109.6,145.3,110.2,144.7,111.1,144.7
		L111.1,144.7z M111.1,141.7c-2.5,0-4.5,2-4.5,4.5c0,2.5,2,4.5,4.5,4.5s4.5-2,4.5-4.5l0,0C115.6,143.7,113.5,141.7,111.1,141.7
		L111.1,141.7z"/>
	<path d="M120.9,144.7c0.8,0,1.5,0.7,1.5,1.5l0,0c0,0.8-0.7,1.5-1.5,1.5s-1.5-0.7-1.5-1.5C119.4,145.3,120.1,144.7,120.9,144.7
		L120.9,144.7z M120.9,141.7c-2.5,0-4.5,2-4.5,4.5c0,2.5,2,4.5,4.5,4.5s4.5-2,4.5-4.5l0,0C125.4,143.7,123.4,141.7,120.9,141.7
		L120.9,141.7z"/>
	<path d="M130.8,144.7c0.8,0,1.5,0.7,1.5,1.5l0,0c0,0.8-0.7,1.5-1.5,1.5s-1.5-0.7-1.5-1.5C129.3,145.3,130,144.7,130.8,144.7
		L130.8,144.7z M130.8,141.7c-2.5,0-4.5,2-4.5,4.5c0,2.5,2,4.5,4.5,4.5s4.5-2,4.5-4.5l0,0C135.3,143.7,133.3,141.7,130.8,141.7
		L130.8,141.7z"/>
	<path d="M140.7,144.7c0.8,0,1.5,0.7,1.5,1.5l0,0c0,0.8-0.7,1.5-1.5,1.5c-0.8,0-1.5-0.7-1.5-1.5
		C139.2,145.3,139.8,144.7,140.7,144.7L140.7,144.7z M140.7,141.7c-2.5,0-4.5,2-4.5,4.5c0,2.5,2,4.5,4.5,4.5s4.5-2,4.5-4.5l0,0
		C145.2,143.7,143.2,141.7,140.7,141.7L140.7,141.7z"/>
	<path d="M150.5,144.7c0.8,0,1.5,0.7,1.5,1.5l0,0c0,0.8-0.7,1.5-1.5,1.5c-0.8,0-1.5-0.7-1.5-1.5C149,145.3,149.7,144.7,150.5,144.7
		L150.5,144.7z M150.5,141.7c-2.5,0-4.5,2-4.5,4.5c0,2.5,2,4.5,4.5,4.5c2.5,0,4.5-2,4.5-4.5l0,0C155,143.7,153,141.7,150.5,141.7
		L150.5,141.7z"/>
	<path d="M160.4,144.7c0.8,0,1.5,0.7,1.5,1.5l0,0c0,0.8-0.7,1.5-1.5,1.5c-0.8,0-1.5-0.7-1.5-1.5
		C158.9,145.3,159.6,144.7,160.4,144.7L160.4,144.7z M160.4,141.7c-2.5,0-4.5,2-4.5,4.5c0,2.5,2,4.5,4.5,4.5c2.5,0,4.5-2,4.5-4.5
		l0,0C164.9,143.7,162.9,141.7,160.4,141.7L160.4,141.7z"/>
	<path d="M170.3,144.7c0.8,0,1.5,0.7,1.5,1.5l0,0c0,0.8-0.7,1.5-1.5,1.5c-0.8,0-1.5-0.7-1.5-1.5
		C168.8,145.3,169.5,144.7,170.3,144.7L170.3,144.7z M170.3,141.7c-2.5,0-4.5,2-4.5,4.5c0,2.5,2,4.5,4.5,4.5s4.5-2,4.5-4.5l0,0
		C174.8,143.7,172.8,141.7,170.3,141.7L170.3,141.7z"/>
	<path d="M180.2,144.7c0.8,0,1.5,0.7,1.5,1.5l0,0c0,0.8-0.7,1.5-1.5,1.5c-0.8,0-1.5-0.7-1.5-1.5
		C178.7,145.3,179.3,144.7,180.2,144.7L180.2,144.7z M180.2,141.7c-2.5,0-4.5,2-4.5,4.5c0,2.5,2,4.5,4.5,4.5s4.5-2,4.5-4.5l0,0
		C184.7,143.7,182.6,141.7,180.2,141.7L180.2,141.7z"/>
	<path d="M190,144.7c0.8,0,1.5,0.7,1.5,1.5l0,0c0,0.8-0.7,1.5-1.5,1.5c-0.8,0-1.5-0.7-1.5-1.5C188.5,145.3,189.2,144.7,190,144.7
		L190,144.7z M190,141.7c-2.5,0-4.5,2-4.5,4.5c0,2.5,2,4.5,4.5,4.5s4.5-2,4.5-4.5l0,0C194.5,143.7,192.5,141.7,190,141.7L190,141.7z
		"/>
	<path d="M199.9,144.7c0.8,0,1.5,0.7,1.5,1.5l0,0c0,0.8-0.7,1.5-1.5,1.5c-0.8,0-1.5-0.7-1.5-1.5
		C198.4,145.3,199.1,144.7,199.9,144.7L199.9,144.7z M199.9,141.7c-2.5,0-4.5,2-4.5,4.5c0,2.5,2,4.5,4.5,4.5s4.5-2,4.5-4.5l0,0
		C204.4,143.7,202.4,141.7,199.9,141.7L199.9,141.7z"/>
	<path d="M209.8,144.7c0.8,0,1.5,0.7,1.5,1.5l0,0c0,0.8-0.7,1.5-1.5,1.5s-1.5-0.7-1.5-1.5C208.3,145.3,209,144.7,209.8,144.7
		L209.8,144.7z M209.8,141.7c-2.5,0-4.5,2-4.5,4.5c0,2.5,2,4.5,4.5,4.5s4.5-2,4.5-4.5l0,0C214.3,143.7,212.3,141.7,209.8,141.7
		L209.8,141.7z"/>
	<path d="M219.7,144.7c0.8,0,1.5,0.7,1.5,1.5l0,0c0,0.8-0.7,1.5-1.5,1.5s-1.5-0.7-1.5-1.5C218.2,145.3,218.8,144.7,219.7,144.7
		L219.7,144.7z M219.7,141.7c-2.5,0-4.5,2-4.5,4.5c0,2.5,2,4.5,4.5,4.5s4.5-2,4.5-4.5l0,0C224.2,143.7,222.1,141.7,219.7,141.7
		L219.7,141.7z"/>
	<path d="M229.5,144.7c0.8,0,1.5,0.7,1.5,1.5l0,0c0,0.8-0.7,1.5-1.5,1.5c-0.8,0-1.5-0.7-1.5-1.5C228,145.3,228.7,144.7,229.5,144.7
		L229.5,144.7z M229.5,141.7c-2.5,0-4.5,2-4.5,4.5c0,2.5,2,4.5,4.5,4.5s4.5-2,4.5-4.5l0,0C234,143.7,232,141.7,229.5,141.7
		L229.5,141.7z"/>
	<path d="M239.4,144.7c0.8,0,1.5,0.7,1.5,1.5l0,0c0,0.8-0.7,1.5-1.5,1.5c-0.8,0-1.5-0.7-1.5-1.5
		C237.9,145.3,238.6,144.7,239.4,144.7L239.4,144.7z M239.4,141.7c-2.5,0-4.5,2-4.5,4.5c0,2.5,2,4.5,4.5,4.5s4.5-2,4.5-4.5l0,0
		C243.9,143.7,241.9,141.7,239.4,141.7L239.4,141.7z"/>
	<path d="M249.3,144.7c0.8,0,1.5,0.7,1.5,1.5l0,0c0,0.8-0.7,1.5-1.5,1.5c-0.8,0-1.5-0.7-1.5-1.5
		C247.8,145.3,248.4,144.7,249.3,144.7L249.3,144.7z M249.3,141.7c-2.5,0-4.5,2-4.5,4.5c0,2.5,2,4.5,4.5,4.5s4.5-2,4.5-4.5l0,0
		C253.8,143.7,251.8,141.7,249.3,141.7L249.3,141.7z"/>
	<path d="M259.1,144.7c0.8,0,1.5,0.7,1.5,1.5l0,0c0,0.8-0.7,1.5-1.5,1.5c-0.8,0-1.5-0.7-1.5-1.5
		C257.6,145.3,258.3,144.7,259.1,144.7L259.1,144.7z M259.1,141.7c-2.5,0-4.5,2-4.5,4.5c0,2.5,2,4.5,4.5,4.5s4.5-2,4.5-4.5l0,0
		C263.6,143.7,261.6,141.7,259.1,141.7L259.1,141.7z"/>
	<path d="M269,175.8c0.8,0,1.5,0.7,1.5,1.5l0,0c0,0.8-0.7,1.5-1.5,1.5c-0.8,0-1.5-0.7-1.5-1.5C267.5,176.5,268.2,175.8,269,175.8
		L269,175.8z M269,172.8c-2.5,0-4.5,2-4.5,4.5s2,4.5,4.5,4.5s4.5-2,4.5-4.5l0,0C273.5,174.8,271.5,172.8,269,172.8L269,172.8z"/>
	<path d="M278.9,43.5c0.8,0,1.5,0.7,1.5,1.5l0,0c0,0.8-0.7,1.5-1.5,1.5c-0.8,0-1.5-0.7-1.5-1.5S278.1,43.5,278.9,43.5L278.9,43.5z
		 M278.9,40.5c-2.5,0-4.5,2-4.5,4.5c0,2.5,2,4.5,4.5,4.5s4.5-2,4.5-4.5l0,0C283.4,42.5,281.4,40.5,278.9,40.5L278.9,40.5z"/>
	<path d="M288.8,168c0.8,0,1.5,0.7,1.5,1.5l0,0c0,0.8-0.7,1.5-1.5,1.5c-0.8,0-1.5-0.7-1.5-1.5C287.3,168.7,287.9,168,288.8,168
		L288.8,168z M288.8,165c-2.5,0-4.5,2-4.5,4.5c0,2.5,2,4.5,4.5,4.5s4.5-2,4.5-4.5l0,0C293.3,167,291.2,165,288.8,165L288.8,165z"/>
	<path d="M298.6,35.7c0.8,0,1.5,0.7,1.5,1.5l0,0c0,0.8-0.7,1.5-1.5,1.5s-1.5-0.7-1.5-1.5C297.1,36.4,297.8,35.7,298.6,35.7
		L298.6,35.7z M298.6,32.7c-2.5,0-4.5,2-4.5,4.5s2,4.5,4.5,4.5s4.5-2,4.5-4.5l0,0C303.1,34.7,301.1,32.7,298.6,32.7L298.6,32.7z"/>
	<path d="M308.5,160.2c0.8,0,1.5,0.7,1.5,1.5l0,0c0,0.8-0.7,1.5-1.5,1.5c-0.8,0-1.5-0.7-1.5-1.5C307,160.9,307.7,160.2,308.5,160.2
		L308.5,160.2z M308.5,157.2c-2.5,0-4.5,2-4.5,4.5c0,2.5,2,4.5,4.5,4.5c2.5,0,4.5-2,4.5-4.5l0,0C313,159.2,311,157.2,308.5,157.2
		L308.5,157.2z"/>
	<path d="M318.4,27.9c0.8,0,1.5,0.7,1.5,1.5l0,0c0,0.8-0.7,1.5-1.5,1.5s-1.5-0.7-1.5-1.5S317.6,27.9,318.4,27.9L318.4,27.9z
		 M318.4,24.9c-2.5,0-4.5,2-4.5,4.5s2,4.5,4.5,4.5s4.5-2,4.5-4.5l0,0C322.9,27,320.9,24.9,318.4,24.9L318.4,24.9z"/>
	<path d="M328.3,152.4c0.8,0,1.5,0.7,1.5,1.5l0,0c0,0.8-0.7,1.5-1.5,1.5c-0.8,0-1.5-0.7-1.5-1.5S327.4,152.4,328.3,152.4
		L328.3,152.4z M328.3,149.4c-2.5,0-4.5,2-4.5,4.5s2,4.5,4.5,4.5s4.5-2,4.5-4.5l0,0C332.8,151.5,330.7,149.4,328.3,149.4
		L328.3,149.4z"/>
	<path d="M338.1,20.2c0.8,0,1.5,0.7,1.5,1.5l0,0c0,0.8-0.7,1.5-1.5,1.5s-1.5-0.7-1.5-1.5S337.3,20.2,338.1,20.2L338.1,20.2z
		 M338.1,17.2c-2.5,0-4.5,2-4.5,4.5c0,2.5,2,4.5,4.5,4.5s4.5-2,4.5-4.5l0,0C342.6,19.2,340.6,17.2,338.1,17.2L338.1,17.2z"/>
	<path class="st8" d="M22.2,146.2L22.2,146.2 M32.1,146.2v124.5 M41.9,146.2v-7.8 M51.8,146.2v116.7 M61.7,146.2v-15.6 M71.6,146.2
		v108.9 M81.4,146.2v-23.3 M91.3,146.2v101.2 M101.2,146.2V115 M111.1,146.2L111.1,146.2 M120.9,146.2L120.9,146.2 M130.8,146.2
		L130.8,146.2 M140.7,146.2L140.7,146.2 M150.5,146.2L150.5,146.2 M160.4,146.2L160.4,146.2 M170.3,146.2L170.3,146.2 M180.2,146.2
		L180.2,146.2 M190,146.2L190,146.2 M199.9,146.2L199.9,146.2 M209.8,146.2L209.8,146.2 M219.7,146.2L219.7,146.2 M229.5,146.2
		L229.5,146.2 M239.4,146.2L239.4,146.2 M249.3,146.2L249.3,146.2 M259.1,146.2L259.1,146.2 M269,146.2v31.1 M278.9,146.2V45
		 M288.8,146.2v23.3 M298.6,146.2V37.2 M308.5,146.2v15.6 M318.4,146.2V29.4 M328.3,146.2v7.8 M338.1,146.2V21.7"/>
</g>
</svg>
