<?xml version="1.0" encoding="utf-8"?>
<!-- Generator: Adobe Illustrator 22.1.0, SVG Export Plug-In . SVG Version: 6.00 Build 0)  -->
<svg version="1.1" id="Layer_1" xmlns="http://www.w3.org/2000/svg" xmlns:xlink="http://www.w3.org/1999/xlink" x="0px" y="0px"
	 viewBox="0 0 353.8 305.9" style="enable-background:new 0 0 353.8 305.9;" xml:space="preserve">
<style type="text/css">
	.st0{fill:none;stroke:#DFDFDF;stroke-width:0.4998;stroke-linejoin:round;stroke-miterlimit:10;}
	.st1{fill:none;stroke:#262626;stroke-width:0.4998;stroke-linecap:square;stroke-linejoin:round;stroke-miterlimit:10;}
	.st2{fill:#4A4A49;}
	.st3{fill:#262626;}
	.st4{fill:#0000FF;}
	.st5{fill:#1D1D1B;}
	.st6{fill:none;stroke:#262626;stroke-width:0.4998;stroke-linejoin:round;stroke-miterlimit:10;}
	.st7{fill:none;stroke:#0000FF;stroke-width:3;stroke-linejoin:round;stroke-miterlimit:10;}
	.st8{fill:none;stroke:#000000;stroke-width:3;stroke-linejoin:round;stroke-miterlimit:10;}
</style>
<g>
	<path class="st0" d="M22.2,274.6V17.8 M103.6,274.6V17.8 M185.1,274.6V17.8 M266.5,274.6V17.8 M348,274.6V17.8 M348,274.6H22.2
		 M348,210.4H22.2 M348,146.2H22.2 M348,82H22.2 M348,17.8H22.2"/>
	<path class="st1" d="M22.2,274.6H348 M22.2,17.8H348 M22.2,274.6v-3.3 M103.6,274.6v-3.3 M185.1,274.6v-3.3 M266.5,274.6v-3.3
		 M348,274.6v-3.3 M22.2,17.8V21 M103.6,17.8V21 M185.1,17.8V21 M266.5,17.8V21 M348,17.8V21"/>
	<g>
		<path class="st2" d="M20.2,288c-0.4-0.6-0.6-1.5-0.6-2.7s0.2-2,0.6-2.7c0.4-0.6,1-0.9,1.8-0.9c0.8,0,1.4,0.3,1.8,0.9
			c0.4,0.6,0.6,1.5,0.6,2.7s-0.2,2-0.6,2.7s-1,0.9-1.8,0.9C21.2,289,20.6,288.6,20.2,288z M23.1,287.5c0.2-0.5,0.4-1.2,0.4-2.1
			c0-0.9-0.1-1.6-0.4-2.1c-0.2-0.5-0.6-0.7-1.1-0.7c-0.5,0-0.9,0.2-1.1,0.7c-0.2,0.5-0.4,1.2-0.4,2.1c0,0.9,0.1,1.6,0.4,2.1
			s0.6,0.7,1.1,0.7C22.5,288.2,22.8,287.9,23.1,287.5z"/>
	</g>
	<path class="st3" d="M97.6,288.8c0,0,0-0.1,0-0.2c0.2-0.4,0.4-0.8,0.5-1.2c0.2-0.4,0.3-0.8,0.4-1.1c0.1-0.4,0.3-0.7,0.4-1.2h-0.7
		c-0.3,0-0.5,0.1-0.7,0.2c-0.2,0.2-0.4,0.4-0.5,0.6c0,0,0,0-0.1,0h-0.1c-0.1,0-0.1,0-0.1-0.1c0,0,0,0,0-0.1c0.2-0.4,0.5-0.7,0.7-1
		c0.3-0.3,0.5-0.4,0.9-0.4h3.7c0.1,0,0.1,0,0.2,0.1c0,0,0.1,0.1,0.1,0.2c0,0.1,0,0.2-0.1,0.3c-0.1,0.1-0.2,0.1-0.3,0.1h-1.3
		c-0.1,0.5-0.2,1.1-0.2,1.6c0,0.7,0.1,1.2,0.3,1.8c0,0,0,0.1,0,0.1c0,0.1,0,0.1-0.1,0.2c0,0.1-0.1,0.1-0.2,0.2
		c-0.1,0-0.1,0.1-0.2,0.1c-0.2,0-0.3-0.1-0.4-0.4s-0.1-0.6-0.1-0.8c0-0.4,0-0.8,0.1-1.1c0.1-0.4,0.2-0.8,0.3-1.5h-1.1
		c-0.5,2.2-0.9,3.4-1,3.6c-0.1,0.2-0.2,0.3-0.4,0.3c-0.1,0-0.2,0-0.2-0.1C97.7,288.9,97.6,288.9,97.6,288.8L97.6,288.8z"/>
	<g>
		<path class="st2" d="M105.5,281.6l-2.4,7.6h-0.7l2.4-7.6H105.5z"/>
		<path class="st2" d="M110.5,284c0,0.5-0.1,0.9-0.4,1.3c-0.3,0.3-0.8,0.7-1.5,1.1c-0.8,0.4-1.3,0.8-1.6,1.2
			c-0.1,0.2-0.2,0.3-0.3,0.5h3.8v0.9h-4.8v0c0-0.7,0.2-1.3,0.6-1.8c0.4-0.5,1.1-1,2.1-1.5c0.5-0.3,0.8-0.5,1-0.8
			c0.2-0.2,0.3-0.5,0.3-0.9c0-0.4-0.1-0.7-0.4-0.9c-0.3-0.2-0.6-0.4-1-0.4c-0.4,0-0.8,0.1-1,0.4s-0.4,0.7-0.4,1.3h-0.9
			c0-0.8,0.2-1.4,0.6-1.8c0.4-0.4,1-0.7,1.8-0.7c0.7,0,1.2,0.2,1.6,0.6C110.2,282.9,110.5,283.4,110.5,284z"/>
	</g>
	<path class="st3" d="M183.4,288.8c0,0,0-0.1,0-0.2c0.2-0.4,0.4-0.8,0.5-1.2c0.2-0.4,0.3-0.8,0.4-1.1c0.1-0.4,0.3-0.7,0.4-1.2h-0.7
		c-0.3,0-0.5,0.1-0.7,0.2c-0.2,0.2-0.4,0.4-0.5,0.6c0,0,0,0-0.1,0h-0.1c-0.1,0-0.1,0-0.1-0.1c0,0,0,0,0-0.1c0.2-0.4,0.5-0.7,0.7-1
		c0.3-0.3,0.5-0.4,0.9-0.4h3.7c0.1,0,0.1,0,0.2,0.1c0.1,0,0.1,0.1,0.1,0.2c0,0.1,0,0.2-0.1,0.3c-0.1,0.1-0.2,0.1-0.3,0.1h-1.3
		c-0.1,0.5-0.2,1.1-0.2,1.6c0,0.7,0.1,1.2,0.3,1.8c0,0,0,0.1,0,0.1c0,0.1,0,0.1-0.1,0.2c0,0.1-0.1,0.1-0.2,0.2
		c-0.1,0-0.1,0.1-0.2,0.1c-0.2,0-0.3-0.1-0.4-0.4s-0.1-0.6-0.1-0.8c0-0.4,0-0.8,0.1-1.1c0.1-0.4,0.2-0.8,0.3-1.5h-1.1
		c-0.5,2.2-0.9,3.4-1,3.6c-0.1,0.2-0.2,0.3-0.4,0.3c-0.1,0-0.2,0-0.2-0.1C183.5,288.9,183.4,288.9,183.4,288.8L183.4,288.8z"/>
	<g>
		<path class="st2" d="M260.3,283.8c0-0.3-0.1-0.6-0.4-0.8c-0.3-0.2-0.6-0.3-1-0.3c-0.4,0-0.7,0.1-1,0.4c-0.2,0.3-0.3,0.6-0.4,1.1
			h-0.9c0-0.7,0.2-1.3,0.6-1.7c0.4-0.4,0.9-0.6,1.6-0.6c0.7,0,1.2,0.2,1.6,0.5c0.4,0.3,0.6,0.8,0.6,1.3c0,0.5-0.2,1-0.6,1.3
			c-0.1,0.1-0.2,0.1-0.3,0.2c0.2,0.1,0.3,0.2,0.4,0.3c0.4,0.3,0.7,0.8,0.7,1.4c0,0.7-0.2,1.2-0.7,1.6c-0.5,0.4-1,0.6-1.8,0.6
			c-0.8,0-1.4-0.2-1.8-0.6c-0.4-0.4-0.6-1-0.7-1.7h0.9c0.1,0.5,0.2,0.9,0.4,1.2c0.2,0.2,0.6,0.4,1.1,0.4c0.4,0,0.8-0.1,1.1-0.4
			c0.3-0.2,0.4-0.6,0.4-1c0-0.4-0.1-0.7-0.4-1c-0.2-0.2-0.5-0.3-0.9-0.4c-0.2,0-0.3,0-0.5,0c-0.1,0-0.2,0-0.3,0V285
			c0.1,0,0.2,0,0.3,0s0.3,0,0.4,0c0.3,0,0.5-0.1,0.7-0.3C260.1,284.5,260.3,284.2,260.3,283.8z"/>
	</g>
	<path class="st3" d="M263.2,288.8c0,0,0-0.1,0-0.2c0.2-0.4,0.4-0.8,0.5-1.2c0.2-0.4,0.3-0.8,0.4-1.1c0.1-0.4,0.3-0.7,0.4-1.2H264
		c-0.3,0-0.5,0.1-0.7,0.2c-0.2,0.2-0.4,0.4-0.5,0.6c0,0,0,0-0.1,0h-0.1c-0.1,0-0.1,0-0.1-0.1c0,0,0,0,0-0.1c0.2-0.4,0.5-0.7,0.7-1
		c0.3-0.3,0.5-0.4,0.9-0.4h3.7c0.1,0,0.1,0,0.2,0.1c0,0,0.1,0.1,0.1,0.2c0,0.1,0,0.2-0.1,0.3c-0.1,0.1-0.2,0.1-0.3,0.1h-1.3
		c-0.1,0.5-0.2,1.1-0.2,1.6c0,0.7,0.1,1.2,0.3,1.8c0,0,0,0.1,0,0.1c0,0.1,0,0.1-0.1,0.2c0,0.1-0.1,0.1-0.2,0.2
		c-0.1,0-0.1,0.1-0.2,0.1c-0.2,0-0.3-0.1-0.4-0.4c-0.1-0.3-0.1-0.6-0.1-0.8c0-0.4,0-0.8,0.1-1.1c0.1-0.4,0.2-0.8,0.3-1.5h-1.1
		c-0.5,2.2-0.9,3.4-1,3.6c-0.1,0.2-0.2,0.3-0.4,0.3c-0.1,0-0.2,0-0.2-0.1C263.3,288.9,263.2,288.9,263.2,288.8L263.2,288.8z"/>
	<g>
		<path class="st2" d="M271.1,281.6l-2.4,7.6H268l2.4-7.6H271.1z"/>
		<path class="st2" d="M276,284c0,0.5-0.1,0.9-0.4,1.3c-0.3,0.3-0.8,0.7-1.5,1.1c-0.8,0.4-1.3,0.8-1.6,1.2c-0.1,0.2-0.2,0.3-0.3,0.5
			h3.8v0.9h-4.8v0c0-0.7,0.2-1.3,0.6-1.8c0.4-0.5,1.1-1,2.1-1.5c0.5-0.3,0.8-0.5,1-0.8c0.2-0.2,0.3-0.5,0.3-0.9
			c0-0.4-0.1-0.7-0.4-0.9c-0.3-0.2-0.6-0.4-1-0.4c-0.4,0-0.8,0.1-1,0.4s-0.4,0.7-0.4,1.3h-0.9c0-0.8,0.2-1.4,0.6-1.8
			c0.4-0.4,1-0.7,1.8-0.7c0.7,0,1.2,0.2,1.6,0.6C275.8,282.9,276,283.4,276,284z"/>
	</g>
	<g>
		<path class="st2" d="M347.1,284c0,0.5-0.1,0.9-0.4,1.3c-0.3,0.3-0.8,0.7-1.5,1.1c-0.8,0.4-1.3,0.8-1.6,1.2
			c-0.1,0.2-0.2,0.3-0.3,0.5h3.8v0.9h-4.8v0c0-0.7,0.2-1.3,0.6-1.8c0.4-0.5,1.1-1,2.1-1.5c0.5-0.3,0.8-0.5,1-0.8
			c0.2-0.2,0.3-0.5,0.3-0.9c0-0.4-0.1-0.7-0.4-0.9c-0.3-0.2-0.6-0.4-1-0.4c-0.4,0-0.8,0.1-1,0.4s-0.4,0.7-0.4,1.3h-0.9
			c0-0.8,0.2-1.4,0.6-1.8c0.4-0.4,1-0.7,1.8-0.7c0.7,0,1.2,0.2,1.6,0.6C346.9,282.9,347.1,283.4,347.1,284z"/>
	</g>
	<path class="st3" d="M349,288.8c0,0,0-0.1,0-0.2c0.2-0.4,0.4-0.8,0.5-1.2c0.2-0.4,0.3-0.8,0.4-1.1c0.1-0.4,0.3-0.7,0.4-1.2h-0.7
		c-0.3,0-0.5,0.1-0.7,0.2c-0.2,0.2-0.4,0.4-0.5,0.6c0,0,0,0-0.1,0h-0.1c-0.1,0-0.1,0-0.1-0.1c0,0,0,0,0-0.1c0.2-0.4,0.5-0.7,0.7-1
		c0.3-0.3,0.5-0.4,0.9-0.4h3.7c0.1,0,0.1,0,0.2,0.1c0,0,0.1,0.1,0.1,0.2c0,0.1,0,0.2-0.1,0.3c-0.1,0.1-0.2,0.1-0.3,0.1h-1.3
		c-0.1,0.5-0.2,1.1-0.2,1.6c0,0.7,0.1,1.2,0.3,1.8c0,0,0,0.1,0,0.1c0,0.1,0,0.1-0.1,0.2c0,0.1-0.1,0.1-0.2,0.2
		c-0.1,0-0.1,0.1-0.2,0.1c-0.2,0-0.3-0.1-0.4-0.4s-0.1-0.6-0.1-0.8c0-0.4,0-0.8,0.1-1.1c0.1-0.4,0.2-0.8,0.3-1.5h-1.1
		c-0.5,2.2-0.9,3.4-1,3.6c-0.1,0.2-0.2,0.3-0.4,0.3c-0.1,0-0.2,0-0.2-0.1C349.1,288.9,349,288.9,349,288.8L349,288.8z"/>
	<g>
	</g>
	<path class="st4" d="M177.2,300.9c-0.1,0-0.1,0-0.1-0.1c0,0-0.1-0.1-0.1-0.1c0-0.1,0-0.1,0.1-0.1c0,0,0.1-0.1,0.1-0.1h8.2
		c-0.3-0.2-0.5-0.4-0.7-0.7s-0.4-0.5-0.5-0.8c-0.1-0.3-0.2-0.6-0.3-1c0-0.1,0-0.1,0.1-0.1h0.2c0.4,0,0.6,0,0.7,0c0,0,0,0,0,0.1
		c0.1,0.3,0.2,0.6,0.3,0.9c0.1,0.3,0.3,0.5,0.5,0.7c0.2,0.2,0.4,0.4,0.6,0.6c0.2,0.2,0.5,0.3,0.8,0.4c0.1,0,0.1,0.1,0.1,0.1
		c0,0.1,0,0.1-0.1,0.1c-0.4,0.1-0.7,0.3-1,0.6c-0.3,0.3-0.6,0.6-0.8,0.9s-0.3,0.7-0.4,1.1c0,0,0,0,0,0.1c0,0-0.2,0-0.7,0H184
		c-0.1,0-0.1,0-0.1-0.1c0.1-0.5,0.3-1,0.5-1.4c0.3-0.4,0.6-0.8,1-1.1H177.2L177.2,300.9z"/>
	<g>
	</g>
	<path class="st4" d="M193.7,303.5c-0.3,0-0.6-0.1-0.8-0.4c-0.2-0.2-0.3-0.5-0.4-0.9c-0.1-0.3-0.1-0.7-0.1-1v0c0-0.4,0-0.7,0.1-1.1
		c0.1-0.4,0.2-0.8,0.3-1.2c0.1-0.4,0.3-0.7,0.4-1c0.1-0.2,0.2-0.4,0.4-0.7c0.2-0.3,0.4-0.5,0.6-0.7c0.2-0.2,0.4-0.4,0.7-0.5
		c0.2-0.1,0.5-0.2,0.7-0.2h0c0.7,0,1.1,0.1,1.3,0.2c0.2,0.1,0.3,0.3,0.4,0.6c0.1,0.2,0.2,0.5,0.2,0.7c0,0.3,0.1,0.5,0.1,0.7
		c0,0.5-0.1,1.1-0.2,1.7c-0.1,0.6-0.4,1.1-0.6,1.6c-0.1,0.2-0.2,0.4-0.4,0.7c-0.2,0.3-0.4,0.5-0.6,0.7c-0.2,0.2-0.4,0.4-0.7,0.5
		C194.8,303.4,194.4,303.5,193.7,303.5L193.7,303.5L193.7,303.5z M193.8,303.2c0.2,0,0.5-0.1,0.7-0.4c0.2-0.3,0.4-0.6,0.6-0.9
		c0.2-0.4,0.3-0.7,0.4-1.1c0.1-0.4,0.2-0.7,0.3-1h-1.6c-0.1,0.5-0.2,0.8-0.3,1.2c-0.1,0.3-0.1,0.7-0.1,1
		C193.8,302.8,193.8,303.2,193.8,303.2L193.8,303.2z M194.2,299.4h1.6c0.1-0.3,0.1-0.6,0.2-0.8c0-0.2,0.1-0.4,0.1-0.7
		c0-0.2,0-0.5,0-0.7c0-0.8-0.2-1.3-0.6-1.3c-0.1,0-0.3,0.4-0.6,1.1C194.7,297.9,194.4,298.6,194.2,299.4L194.2,299.4z"/>
	<path class="st1" d="M22.2,274.6V17.8 M348,274.6V17.8 M22.2,274.6h3.3 M22.2,210.4h3.3 M22.2,146.2h3.3 M22.2,82h3.3 M22.2,17.8
		h3.3 M348,274.6h-3.3 M348,210.4h-3.3 M348,146.2h-3.3 M348,82h-3.3 M348,17.8h-3.3"/>
	<g>
		<path class="st2" d="M8.8,275.5h2.5v0.9H8.8V275.5z"/>
	</g>
	<path class="st3" d="M13,278.6c0,0,0-0.1,0-0.2c0.2-0.4,0.4-0.8,0.5-1.2c0.2-0.4,0.3-0.8,0.4-1.1c0.1-0.4,0.3-0.7,0.4-1.2h-0.7
		c-0.3,0-0.5,0.1-0.7,0.2c-0.2,0.2-0.4,0.4-0.5,0.6c0,0,0,0-0.1,0h-0.1c-0.1,0-0.1,0-0.1-0.1c0,0,0,0,0-0.1c0.2-0.4,0.5-0.7,0.7-1
		c0.3-0.3,0.5-0.4,0.9-0.4h3.7c0.1,0,0.1,0,0.2,0.1c0.1,0,0.1,0.1,0.1,0.2c0,0.1,0,0.2-0.1,0.3c-0.1,0.1-0.2,0.1-0.3,0.1h-1.3
		c-0.1,0.5-0.2,1.1-0.2,1.6c0,0.7,0.1,1.2,0.3,1.8c0,0,0,0.1,0,0.1c0,0.1,0,0.1-0.1,0.2c0,0.1-0.1,0.1-0.2,0.2
		c-0.1,0-0.1,0.1-0.2,0.1c-0.2,0-0.3-0.1-0.4-0.4c-0.1-0.3-0.1-0.6-0.1-0.8c0-0.4,0-0.8,0.1-1.1c0.1-0.4,0.2-0.8,0.3-1.5h-1.1
		c-0.5,2.2-0.9,3.4-1,3.6c-0.1,0.2-0.2,0.3-0.4,0.3c-0.1,0-0.2,0-0.2-0.1C13.1,278.7,13,278.7,13,278.6L13,278.6z"/>
	<g>
		<path class="st2" d="M0.4,211.4h2.5v0.9H0.4V211.4z"/>
	</g>
	<path class="st3" d="M4.6,214.4c0,0,0-0.1,0-0.2c0.2-0.4,0.4-0.8,0.5-1.2c0.2-0.4,0.3-0.8,0.4-1.1c0.1-0.4,0.3-0.7,0.4-1.2H5.4
		c-0.3,0-0.5,0.1-0.7,0.2c-0.2,0.2-0.4,0.4-0.5,0.6c0,0,0,0-0.1,0H3.9c-0.1,0-0.1,0-0.1-0.1c0,0,0,0,0-0.1c0.2-0.4,0.5-0.7,0.7-1
		c0.3-0.3,0.5-0.4,0.9-0.4h3.7c0.1,0,0.1,0,0.2,0.1c0.1,0,0.1,0.1,0.1,0.2c0,0.1,0,0.2-0.1,0.3c-0.1,0.1-0.2,0.1-0.3,0.1H7.7
		c-0.1,0.5-0.2,1.1-0.2,1.6c0,0.7,0.1,1.2,0.3,1.8c0,0,0,0.1,0,0.1c0,0.1,0,0.1-0.1,0.2c0,0.1-0.1,0.1-0.2,0.2
		c-0.1,0-0.1,0.1-0.2,0.1c-0.2,0-0.3-0.1-0.4-0.4S7,213.7,7,213.4c0-0.4,0-0.8,0.1-1.1s0.2-0.8,0.3-1.5H6.3c-0.5,2.2-0.9,3.4-1,3.6
		c-0.1,0.2-0.2,0.3-0.4,0.3c-0.1,0-0.2,0-0.2-0.1C4.7,214.5,4.6,214.5,4.6,214.4L4.6,214.4z"/>
	<g>
		<path class="st2" d="M12.5,207.2l-2.4,7.6H9.4l2.4-7.6H12.5z"/>
		<path class="st2" d="M17.5,209.6c0,0.5-0.1,0.9-0.4,1.3c-0.3,0.3-0.8,0.7-1.5,1.1c-0.8,0.4-1.3,0.8-1.6,1.2
			c-0.1,0.2-0.2,0.3-0.3,0.5h3.8v0.9h-4.8v0c0-0.7,0.2-1.3,0.6-1.8c0.4-0.5,1.1-1,2.1-1.5c0.5-0.3,0.8-0.5,1-0.8
			c0.2-0.2,0.3-0.5,0.3-0.9c0-0.4-0.1-0.7-0.4-0.9c-0.3-0.2-0.6-0.4-1-0.4c-0.4,0-0.8,0.1-1,0.4s-0.4,0.7-0.4,1.3h-0.9
			c0-0.8,0.2-1.4,0.6-1.8c0.4-0.4,1-0.7,1.8-0.7c0.7,0,1.2,0.2,1.6,0.6C17.2,208.5,17.5,209,17.5,209.6z"/>
	</g>
	<g>
		<path class="st2" d="M13.2,149.3c-0.4-0.6-0.6-1.5-0.6-2.7s0.2-2,0.6-2.7c0.4-0.6,1-0.9,1.8-0.9c0.8,0,1.4,0.3,1.8,0.9
			c0.4,0.6,0.6,1.5,0.6,2.7s-0.2,2-0.6,2.7s-1,0.9-1.8,0.9C14.2,150.3,13.6,149.9,13.2,149.3z M16.1,148.8c0.2-0.5,0.4-1.2,0.4-2.1
			c0-0.9-0.1-1.6-0.4-2.1c-0.2-0.5-0.6-0.7-1.1-0.7c-0.5,0-0.9,0.2-1.1,0.7c-0.2,0.5-0.4,1.2-0.4,2.1c0,0.9,0.1,1.6,0.4,2.1
			s0.6,0.7,1.1,0.7C15.5,149.5,15.8,149.2,16.1,148.8z"/>
	</g>
	<path class="st3" d="M4.6,86c0,0,0-0.1,0-0.2C4.9,85.4,5,85,5.2,84.7c0.2-0.4,0.3-0.8,0.4-1.1c0.1-0.4,0.3-0.7,0.4-1.2H5.4
		c-0.3,0-0.5,0.1-0.7,0.2c-0.2,0.2-0.4,0.4-0.5,0.6c0,0,0,0-0.1,0H3.9c-0.1,0-0.1,0-0.1-0.1c0,0,0,0,0-0.1c0.2-0.4,0.5-0.7,0.7-1
		c0.3-0.3,0.5-0.4,0.9-0.4h3.7c0.1,0,0.1,0,0.2,0.1c0.1,0,0.1,0.1,0.1,0.2c0,0.1,0,0.2-0.1,0.3c-0.1,0.1-0.2,0.1-0.3,0.1H7.7
		c-0.1,0.5-0.2,1.1-0.2,1.6c0,0.7,0.1,1.2,0.3,1.8c0,0,0,0.1,0,0.1c0,0.1,0,0.1-0.1,0.2c0,0.1-0.1,0.1-0.2,0.2
		c-0.1,0-0.1,0.1-0.2,0.1c-0.2,0-0.3-0.1-0.4-0.4S7,85.3,7,85c0-0.4,0-0.8,0.1-1.1c0.1-0.4,0.2-0.8,0.3-1.5H6.3
		c-0.5,2.2-0.9,3.4-1,3.6c-0.1,0.2-0.2,0.3-0.4,0.3c-0.1,0-0.2,0-0.2-0.1C4.7,86.1,4.6,86.1,4.6,86L4.6,86z"/>
	<g>
		<path class="st2" d="M12.5,78.8l-2.4,7.6H9.4l2.4-7.6H12.5z"/>
		<path class="st2" d="M17.5,81.2c0,0.5-0.1,0.9-0.4,1.3s-0.8,0.7-1.5,1.1c-0.8,0.4-1.3,0.8-1.6,1.2c-0.1,0.2-0.2,0.3-0.3,0.5h3.8
			v0.9h-4.8v0c0-0.7,0.2-1.3,0.6-1.8s1.1-1,2.1-1.5c0.5-0.3,0.8-0.5,1-0.8c0.2-0.2,0.3-0.5,0.3-0.9c0-0.4-0.1-0.7-0.4-0.9
			s-0.6-0.4-1-0.4c-0.4,0-0.8,0.1-1,0.4c-0.2,0.3-0.4,0.7-0.4,1.3h-0.9c0-0.8,0.2-1.4,0.6-1.8c0.4-0.4,1-0.7,1.8-0.7
			c0.7,0,1.2,0.2,1.6,0.6C17.2,80.1,17.5,80.6,17.5,81.2z"/>
	</g>
	<path class="st3" d="M13,21.8c0,0,0-0.1,0-0.2c0.2-0.4,0.4-0.8,0.5-1.2c0.2-0.4,0.3-0.8,0.4-1.1c0.1-0.4,0.3-0.7,0.4-1.2h-0.7
		c-0.3,0-0.5,0.1-0.7,0.2c-0.2,0.2-0.4,0.4-0.5,0.6c0,0,0,0-0.1,0h-0.1c-0.1,0-0.1,0-0.1-0.1c0,0,0,0,0-0.1c0.2-0.4,0.5-0.7,0.7-1
		c0.3-0.3,0.5-0.4,0.9-0.4h3.7c0.1,0,0.1,0,0.2,0.1c0.1,0,0.1,0.1,0.1,0.2c0,0.1,0,0.2-0.1,0.3c-0.1,0.1-0.2,0.1-0.3,0.1h-1.3
		c-0.1,0.5-0.2,1.1-0.2,1.6c0,0.7,0.1,1.2,0.3,1.8c0,0,0,0.1,0,0.1c0,0.1,0,0.1-0.1,0.2c0,0.1-0.1,0.1-0.2,0.2
		c-0.1,0-0.1,0.1-0.2,0.1c-0.2,0-0.3-0.1-0.4-0.4c-0.1-0.3-0.1-0.6-0.1-0.8c0-0.4,0-0.8,0.1-1.1c0.1-0.4,0.2-0.8,0.3-1.5h-1.1
		c-0.5,2.2-0.9,3.4-1,3.6c-0.1,0.2-0.2,0.3-0.4,0.3c-0.1,0-0.2,0-0.2-0.1C13.1,21.9,13,21.9,13,21.8L13,21.8z"/>
	<polygon points="133.8,13 140.5,6.3 140.5,7.8 136.3,12.2 140.6,12.2 140.6,13 133.8,13 	"/>
	<g>
		<path class="st5" d="M146.1,13V5h1.6v3h3.1V5h1.6V13h-1.6V9.4h-3.1V13H146.1z"/>
		<path class="st5" d="M153.9,5h2.7v1.1h-1.2V14h1.2v1.1h-2.7V5z"/>
		<path class="st5" d="M157.6,5.1h1.5v4.3l1.9-2.2h1.9l-2.1,2.2L163,13h-1.9l-1.4-2.5l-0.6,0.7V13h-1.5V5.1z"/>
		<path class="st5" d="M163.2,14h1.2V6.1h-1.2V5h2.7v10.1h-2.7V14z"/>
		<path class="st5" d="M172.7,9.4c0.3,0,0.5-0.1,0.6-0.1c0.2-0.1,0.3-0.2,0.3-0.4c0-0.2-0.1-0.4-0.3-0.5c-0.2-0.1-0.4-0.1-0.7-0.1
			c-0.4,0-0.6,0.1-0.8,0.3c-0.1,0.1-0.2,0.3-0.2,0.5h-1.5c0-0.5,0.2-0.9,0.4-1.3c0.4-0.5,1.1-0.8,2.1-0.8c0.6,0,1.2,0.1,1.7,0.4
			c0.5,0.3,0.8,0.7,0.8,1.4v2.7c0,0.2,0,0.4,0,0.7c0,0.2,0,0.3,0.1,0.4c0,0.1,0.1,0.1,0.2,0.2V13h-1.7c0-0.1-0.1-0.2-0.1-0.3
			c0-0.1,0-0.2,0-0.4c-0.2,0.2-0.5,0.4-0.7,0.6c-0.3,0.2-0.7,0.3-1.1,0.3c-0.5,0-1-0.2-1.3-0.5c-0.3-0.3-0.5-0.7-0.5-1.3
			c0-0.7,0.3-1.2,0.8-1.6c0.3-0.2,0.8-0.3,1.4-0.4L172.7,9.4z M173.7,10.1c-0.1,0.1-0.2,0.1-0.3,0.1c-0.1,0-0.2,0.1-0.4,0.1
			l-0.3,0.1c-0.3,0.1-0.6,0.1-0.7,0.2c-0.2,0.1-0.4,0.4-0.4,0.6c0,0.3,0.1,0.5,0.2,0.6c0.1,0.1,0.3,0.2,0.5,0.2
			c0.3,0,0.6-0.1,0.9-0.3c0.3-0.2,0.4-0.5,0.4-1.1V10.1z"/>
		<path class="st5" d="M181.2,7.4c0.4,0.3,0.6,0.8,0.6,1.6V13h-1.6V9.4c0-0.3,0-0.5-0.1-0.7c-0.1-0.3-0.4-0.5-0.9-0.5
			c-0.5,0-0.9,0.2-1.1,0.7c-0.1,0.2-0.1,0.5-0.1,0.9V13h-1.5V7.1h1.5V8c0.2-0.3,0.4-0.5,0.6-0.6c0.3-0.2,0.7-0.4,1.2-0.4
			C180.4,7,180.9,7.1,181.2,7.4z"/>
		<path class="st5" d="M186.3,7.2c0.3,0.2,0.5,0.4,0.7,0.6V5.1h1.6V13h-1.5v-0.8c-0.2,0.3-0.5,0.6-0.7,0.8s-0.6,0.2-1,0.2
			c-0.7,0-1.3-0.3-1.7-0.8c-0.5-0.6-0.7-1.3-0.7-2.1c0-1,0.2-1.8,0.7-2.4c0.5-0.6,1.1-0.9,1.8-0.9C185.8,7,186.1,7.1,186.3,7.2z
			 M186.7,11.4c0.2-0.3,0.3-0.7,0.3-1.3c0-0.7-0.2-1.2-0.5-1.5c-0.2-0.2-0.5-0.3-0.8-0.3c-0.4,0-0.8,0.2-1,0.5
			c-0.2,0.3-0.3,0.8-0.3,1.3c0,0.5,0.1,1,0.3,1.3c0.2,0.3,0.5,0.5,1,0.5C186.2,11.9,186.5,11.7,186.7,11.4z"/>
	</g>
	<polygon class="st4" points="193.8,13 200.5,6.3 200.5,7.8 196.3,12.2 200.6,12.2 200.6,13 193.8,13 	"/>
	<g>
		<path class="st4" d="M206.1,13V5h1.6v3h3.1V5h1.6V13h-1.6V9.4h-3.1V13H206.1z"/>
		<path class="st4" d="M214.3,7c0.3-0.6,0.5-1.1,0.8-1.5l0.4-0.5l0.9,0c-0.5,0.9-0.8,1.6-1,2.2c-0.3,0.9-0.4,1.9-0.4,3
			c0,0.7,0.1,1.3,0.2,1.9c0.2,0.9,0.5,1.8,0.9,2.6l0.3,0.6h-0.9c-0.6-0.8-1-1.6-1.3-2.3c-0.4-0.9-0.5-1.8-0.5-2.7
			C213.6,9.1,213.8,8,214.3,7z"/>
		<path class="st4" d="M221.4,7.2c0.4,0.2,0.7,0.5,1,0.9c0.2,0.3,0.4,0.8,0.5,1.2c0,0.3,0.1,0.7,0,1.2h-4.3c0,0.6,0.2,1,0.6,1.2
			c0.2,0.1,0.5,0.2,0.8,0.2c0.3,0,0.6-0.1,0.8-0.3c0.1-0.1,0.2-0.2,0.3-0.4h1.6c0,0.3-0.2,0.7-0.6,1.1c-0.5,0.6-1.3,0.9-2.2,0.9
			c-0.8,0-1.5-0.2-2.1-0.7c-0.6-0.5-0.9-1.3-0.9-2.3c0-1,0.3-1.8,0.8-2.3c0.5-0.5,1.2-0.8,2.1-0.8C220.5,7,221,7,221.4,7.2z
			 M219.1,8.6c-0.2,0.2-0.4,0.5-0.4,0.9h2.6c0-0.4-0.2-0.7-0.4-0.9c-0.2-0.2-0.5-0.3-0.9-0.3C219.6,8.2,219.3,8.3,219.1,8.6z"/>
	</g>
	<g>
		<path class="st4" d="M223.2,8.5c0.1,0,0.1,0,0.1,0s0.1,0,0.1,0c0.1,0,0.2,0,0.3-0.1s0.1-0.2,0.1-0.3V2.9h1.2v5.2
			c0,0.5-0.1,0.8-0.3,1c-0.2,0.2-0.6,0.3-1.1,0.3c0,0-0.1,0-0.2,0s-0.2,0-0.3,0V8.5z M225.1,2.3h-1.2V1.2h1.2V2.3z"/>
	</g>
	<path class="st4" d="M230.1,7.7c-0.3,0-0.5-0.1-0.7-0.3c-0.2-0.2-0.3-0.4-0.3-0.7C229,6.4,229,6.1,229,5.8v0c0-0.3,0-0.6,0.1-0.9
		c0.1-0.3,0.1-0.6,0.2-1c0.1-0.3,0.2-0.6,0.4-0.9c0.1-0.2,0.2-0.4,0.3-0.6c0.1-0.2,0.3-0.4,0.5-0.6c0.2-0.2,0.4-0.3,0.6-0.5
		c0.2-0.1,0.4-0.2,0.6-0.2h0c0.6,0,1,0.1,1.1,0.2c0.1,0.1,0.3,0.3,0.3,0.5c0.1,0.2,0.1,0.4,0.2,0.6c0,0.2,0.1,0.4,0.1,0.6
		c0,0.5-0.1,0.9-0.2,1.4c-0.1,0.5-0.3,0.9-0.5,1.4c-0.1,0.2-0.2,0.4-0.3,0.6c-0.1,0.2-0.3,0.4-0.5,0.6c-0.2,0.2-0.3,0.3-0.5,0.5
		C231.1,7.6,230.7,7.7,230.1,7.7L230.1,7.7L230.1,7.7z M230.2,7.4c0.1,0,0.3-0.1,0.5-0.3c0.2-0.2,0.3-0.5,0.5-0.8
		c0.1-0.3,0.3-0.6,0.4-0.9c0.1-0.3,0.2-0.6,0.2-0.8h-1.2c-0.1,0.4-0.2,0.7-0.2,1c-0.1,0.3-0.1,0.5-0.1,0.8
		C230.2,7.1,230.2,7.4,230.2,7.4L230.2,7.4z M230.5,4.3h1.2c0.1-0.3,0.1-0.5,0.1-0.7s0.1-0.4,0.1-0.6c0-0.2,0-0.4,0-0.6
		c0-0.7-0.2-1.1-0.5-1.1c0,0-0.1,0.3-0.4,0.9C230.9,3,230.7,3.6,230.5,4.3L230.5,4.3z"/>
	<g>
		<path class="st4" d="M235.9,7c0.4,1,0.6,1.9,0.6,2.9c0,1.1-0.2,2.2-0.7,3.3c-0.3,0.6-0.5,1.1-0.8,1.4l-0.4,0.5h-1.1
			c0.5-0.9,0.8-1.6,1-2.1c0.3-0.9,0.5-1.9,0.5-3c0-0.7-0.1-1.3-0.2-1.9c-0.2-0.9-0.5-1.8-0.9-2.6l-0.3-0.6h1.2
			C235.2,5.7,235.6,6.4,235.9,7z"/>
	</g>
	<line class="st6" x1="22.2" y1="146.2" x2="348" y2="146.2"/>
	<polyline class="st7" points="22.2,146.2 22.7,149.3 23.2,152.2 23.7,155 24.2,157.3 24.7,159.1 25.2,159.9 25.7,159.6 26.1,157.6 
		26.6,153.8 27.1,148.5 27.6,142.7 28.1,138 28.6,135.1 29.1,134 29.6,134.3 30.1,135.6 30.6,137.7 31.1,140.2 31.6,143.1 
		32.1,146.2 32.6,149.3 33.1,152.4 33.6,155.3 34,157.9 34.5,160 35,161.4 35.5,161.7 36,160.6 36.5,157.8 37,153.1 37.5,147.2 
		38,141.8 38.5,137.8 39,135.8 39.5,135.4 40,136.2 40.5,138 41,140.4 41.5,143.1 41.9,146.2 42.4,149.3 42.9,152.5 43.4,155.5 
		43.9,158.4 44.4,160.8 44.9,162.7 45.4,163.7 45.9,163.5 46.4,161.6 46.9,157.7 47.4,152.2 47.9,146.1 48.4,141 48.9,137.9 
		49.3,136.7 49.8,137 50.3,138.4 50.8,140.5 51.3,143.2 51.8,146.2 52.3,149.4 52.8,152.6 53.3,155.8 53.8,158.9 54.3,161.7 
		54.8,164 55.3,165.6 55.8,166.2 56.3,165.3 56.8,162.5 57.2,157.6 57.7,151.2 58.2,145 58.7,140.6 59.2,138.3 59.7,137.9 
		60.2,138.8 60.7,140.7 61.2,143.2 61.7,146.2 62.2,149.4 62.7,152.8 63.2,156.1 63.7,159.5 64.2,162.6 64.7,165.3 65.1,167.6 
		65.6,169 66.1,169.1 66.6,167.5 67.1,163.6 67.6,157.4 68.1,150.3 68.6,144.2 69.1,140.5 69.6,139.1 70.1,139.4 70.6,140.9 
		71.1,143.3 71.6,146.2 72.1,149.4 72.5,152.9 73,156.5 73.5,160.1 74,163.5 74.5,166.8 75,169.6 75.5,171.8 76,173 76.5,172.8 
		77,170.4 77.5,165.2 78,157.6 78.5,149.6 79,143.8 79.5,140.8 80,140.2 80.4,141.2 80.9,143.3 81.4,146.2 81.9,149.5 82.4,153.1 
		82.9,156.9 83.4,160.8 83.9,164.6 84.4,168.4 84.9,171.8 85.4,174.9 85.9,177.3 86.4,178.6 86.9,178.2 87.4,175.2 87.9,168.5 
		88.3,158.8 88.8,149.6 89.3,143.8 89.8,141.5 90.3,141.7 90.8,143.4 91.3,146.2 91.8,149.6 92.3,153.4 92.8,157.5 93.3,161.7 
		93.8,166 94.3,170.4 94.8,174.6 95.3,178.6 95.8,182.3 96.2,185.4 96.7,187.6 97.2,188.1 97.7,185.5 98.2,177.8 98.7,164.6 
		99.2,151.8 99.7,144.8 100.2,142.8 100.7,143.6 101.2,146.2 101.7,149.7 102.2,153.9 102.7,158.4 103.2,163.3 103.6,168.4 
		104.1,173.7 104.6,179 105.1,184.5 105.6,190.1 106.1,195.7 106.6,201.4 107.1,207.1 107.6,212.9 108.1,218.6 108.6,224.5 
		109.1,230.3 109.6,236.2 110.1,242.1 110.6,248 111.1,146.2 111.5,131.4 112,137.4 112.5,143.4 113,149.3 113.5,155.3 114,161.3 
		114.5,167.3 115,173.3 115.5,179.3 116,185.4 116.5,191.4 117,197.4 117.5,203.5 118,209.5 118.5,215.6 119,221.6 119.4,227.7 
		119.9,233.7 120.4,239.8 120.9,146.2 121.4,123.6 121.9,129.6 122.4,135.7 122.9,141.8 123.4,147.9 123.9,154 124.4,160.1 
		124.9,166.2 125.4,172.3 125.9,178.4 126.4,184.5 126.8,190.6 127.3,196.7 127.8,202.8 128.3,208.9 128.8,215 129.3,221.1 
		129.8,227.2 130.3,233.4 130.8,146.2 131.3,117.2 131.8,123.3 132.3,129.4 132.8,135.6 133.3,141.7 133.8,147.8 134.3,153.9 
		134.7,160.1 135.2,166.2 135.7,172.3 136.2,178.5 136.7,184.6 137.2,190.7 137.7,196.9 138.2,203 138.7,209.2 139.2,215.3 
		139.7,221.4 140.2,227.6 140.7,146.2 141.2,111.5 141.7,117.6 142.2,123.7 142.6,129.9 143.1,136 143.6,142.2 144.1,148.3 
		144.6,154.5 145.1,160.6 145.6,166.8 146.1,172.9 146.6,179.1 147.1,185.2 147.6,191.4 148.1,197.5 148.6,203.7 149.1,209.8 
		149.6,216 150.1,222.1 150.5,146.2 151,106 151.5,112.2 152,118.4 152.5,124.5 153,130.7 153.5,136.8 154,143 154.5,149.1 
		155,155.3 155.5,161.5 156,167.6 156.5,173.8 157,179.9 157.5,186.1 157.9,192.3 158.4,198.4 158.9,204.6 159.4,210.7 159.9,216.9 
		160.4,146.2 160.9,100.8 161.4,107 161.9,113.1 162.4,119.3 162.9,125.5 163.4,131.6 163.9,137.8 164.4,144 164.9,150.1 
		165.4,156.3 165.8,162.5 166.3,168.6 166.8,174.8 167.3,180.9 167.8,187.1 168.3,193.3 168.8,199.4 169.3,205.6 169.8,211.8 
		170.3,146.2 170.8,95.7 171.3,101.9 171.8,108 172.3,114.2 172.8,120.4 173.3,126.5 173.7,132.7 174.2,138.9 174.7,145 
		175.2,151.2 175.7,157.4 176.2,163.5 176.7,169.7 177.2,175.9 177.7,182 178.2,188.2 178.7,194.4 179.2,200.5 179.7,206.7 
		180.2,146.2 180.7,90.7 181.1,96.8 181.6,103 182.1,109.2 182.6,115.3 183.1,121.5 183.6,127.7 184.1,133.8 184.6,140 185.1,146.2 
		185.6,152.3 186.1,158.5 186.6,164.7 187.1,170.8 187.6,177 188.1,183.2 188.6,189.3 189,195.5 189.5,201.7 190,146.2 190.5,85.6 
		191,91.8 191.5,98 192,104.1 192.5,110.3 193,116.5 193.5,122.6 194,128.8 194.5,135 195,141.1 195.5,147.3 196,153.5 196.5,159.6 
		196.9,165.8 197.4,172 197.9,178.1 198.4,184.3 198.9,190.5 199.4,196.6 199.9,146.2 200.4,80.6 200.9,86.7 201.4,92.9 201.9,99.1 
		202.4,105.2 202.9,111.4 203.4,117.6 203.9,123.7 204.4,129.9 204.8,136 205.3,142.2 205.8,148.4 206.3,154.5 206.8,160.7 
		207.3,166.9 207.8,173 208.3,179.2 208.8,185.4 209.3,191.5 209.8,146.2 210.3,75.4 210.8,81.6 211.3,87.8 211.8,93.9 212.2,100.1 
		212.7,106.2 213.2,112.4 213.7,118.6 214.2,124.7 214.7,130.9 215.2,137 215.7,143.2 216.2,149.4 216.7,155.5 217.2,161.7 
		217.7,167.8 218.2,174 218.7,180.1 219.2,186.3 219.7,146.2 220.1,70.2 220.6,76.4 221.1,82.5 221.6,88.7 222.1,94.8 222.6,101 
		223.1,107.1 223.6,113.3 224.1,119.4 224.6,125.6 225.1,131.7 225.6,137.9 226.1,144 226.6,150.2 227.1,156.3 227.6,162.4 
		228,168.6 228.5,174.7 229,180.9 229.5,146.2 230,64.8 230.5,70.9 231,77 231.5,83.2 232,89.3 232.5,95.5 233,101.6 233.5,107.7 
		234,113.9 234.5,120 235,126.1 235.4,132.3 235.9,138.4 236.4,144.5 236.9,150.6 237.4,156.8 237.9,162.9 238.4,169 238.9,175.1 
		239.4,146.2 239.9,59 240.4,65.1 240.9,71.2 241.4,77.3 241.9,83.4 242.4,89.5 242.9,95.7 243.3,101.8 243.8,107.9 244.3,114 
		244.8,120.1 245.3,126.2 245.8,132.3 246.3,138.4 246.8,144.4 247.3,150.5 247.8,156.6 248.3,162.7 248.8,168.8 249.3,146.2 
		249.8,52.5 250.3,58.6 250.8,64.7 251.2,70.7 251.7,76.8 252.2,82.8 252.7,88.9 253.2,94.9 253.7,100.9 254.2,107 254.7,113 
		255.2,119 255.7,125 256.2,131 256.7,137 257.2,143 257.7,149 258.2,154.9 258.7,160.9 259.1,146.2 259.6,44.3 260.1,50.3 
		260.6,56.1 261.1,62 261.6,67.9 262.1,73.7 262.6,79.5 263.1,85.2 263.6,91 264.1,96.6 264.6,102.3 265.1,107.8 265.6,113.3 
		266.1,118.7 266.5,123.9 267,129 267.5,133.9 268,138.5 268.5,142.6 269,146.2 269.5,148.7 270,149.6 270.5,147.5 271,140.5 
		271.5,127.7 272,114.5 272.5,106.8 273,104.3 273.5,104.7 274,106.9 274.4,110 274.9,113.7 275.4,117.7 275.9,122 276.4,126.3 
		276.9,130.6 277.4,134.9 277.9,139 278.4,142.8 278.9,146.2 279.4,148.9 279.9,150.6 280.4,150.8 280.9,148.5 281.4,142.7 
		281.9,133.5 282.3,123.8 282.8,117.2 283.3,114.1 283.8,113.7 284.3,115.1 284.8,117.4 285.3,120.5 285.8,124 286.3,127.7 
		286.8,131.6 287.3,135.4 287.8,139.2 288.3,142.8 288.8,146.2 289.3,149 289.7,151.1 290.2,152.1 290.7,151.5 291.2,148.5 
		291.7,142.7 292.2,134.7 292.7,127.1 293.2,121.9 293.7,119.5 294.2,119.3 294.7,120.5 295.2,122.7 295.7,125.6 296.2,128.8 
		296.7,132.3 297.2,135.8 297.6,139.4 298.1,142.9 298.6,146.2 299.1,149.1 299.6,151.4 300.1,153 300.6,153.3 301.1,151.8 
		301.6,148.1 302.1,142.1 302.6,134.9 303.1,128.7 303.6,124.8 304.1,123.2 304.6,123.4 305.1,124.8 305.5,127 306,129.8 
		306.5,132.9 307,136.2 307.5,139.6 308,142.9 308.5,146.2 309,149.1 309.5,151.6 310,153.5 310.5,154.4 311,154 311.5,151.7 
		312,147.3 312.5,141.1 313,134.8 313.4,129.8 313.9,127 314.4,126.1 314.9,126.7 315.4,128.3 315.9,130.6 316.4,133.4 316.9,136.5 
		317.4,139.7 317.9,143 318.4,146.2 318.9,149.2 319.4,151.8 319.9,154 320.4,155.4 320.8,155.6 321.3,154.4 321.8,151.3 
		322.3,146.3 322.8,140.2 323.3,134.6 323.8,130.7 324.3,128.9 324.8,128.6 325.3,129.6 325.8,131.5 326.3,133.9 326.8,136.8 
		327.3,139.8 327.8,143 328.3,146.2 328.7,149.2 329.2,152 329.7,154.3 330.2,156.1 330.7,157 331.2,156.6 331.7,154.5 332.2,150.6 
		332.7,145.1 333.2,139.3 333.7,134.6 334.2,131.7 334.7,130.6 335.2,131 335.7,132.4 336.2,134.5 336.6,137.1 337.1,140 337.6,143 
		338.1,146.2 338.6,149.2 339.1,152.1 339.6,154.7 340.1,156.7 340.6,158.1 341.1,158.4 341.6,157.2 342.1,154.3 342.6,149.6 
		343.1,143.9 343.6,138.5 344,134.7 344.5,132.8 345,132.4 345.5,133.3 346,135 346.5,137.4 347,140.1 347.5,143.1 	"/>
	<path d="M22.2,144.7c0.8,0,1.5,0.7,1.5,1.5l0,0c0,0.8-0.7,1.5-1.5,1.5s-1.5-0.7-1.5-1.5C20.7,145.3,21.4,144.7,22.2,144.7
		L22.2,144.7z M22.2,141.7c-2.5,0-4.5,2-4.5,4.5c0,2.5,2,4.5,4.5,4.5s4.5-2,4.5-4.5l0,0C26.7,143.7,24.7,141.7,22.2,141.7
		L22.2,141.7z"/>
	<path d="M32.1,144.7c0.8,0,1.5,0.7,1.5,1.5l0,0c0,0.8-0.7,1.5-1.5,1.5c-0.8,0-1.5-0.7-1.5-1.5C30.6,145.3,31.2,144.7,32.1,144.7
		L32.1,144.7z M32.1,141.7c-2.5,0-4.5,2-4.5,4.5c0,2.5,2,4.5,4.5,4.5s4.5-2,4.5-4.5l0,0C36.6,143.7,34.6,141.7,32.1,141.7
		L32.1,141.7z"/>
	<path d="M41.9,144.7c0.8,0,1.5,0.7,1.5,1.5l0,0c0,0.8-0.7,1.5-1.5,1.5c-0.8,0-1.5-0.7-1.5-1.5C40.4,145.3,41.1,144.7,41.9,144.7
		L41.9,144.7z M41.9,141.7c-2.5,0-4.5,2-4.5,4.5c0,2.5,2,4.5,4.5,4.5s4.5-2,4.5-4.5l0,0C46.4,143.7,44.4,141.7,41.9,141.7
		L41.9,141.7z"/>
	<path d="M51.8,144.7c0.8,0,1.5,0.7,1.5,1.5l0,0c0,0.8-0.7,1.5-1.5,1.5c-0.8,0-1.5-0.7-1.5-1.5C50.3,145.3,51,144.7,51.8,144.7
		L51.8,144.7z M51.8,141.7c-2.5,0-4.5,2-4.5,4.5c0,2.5,2,4.5,4.5,4.5c2.5,0,4.5-2,4.5-4.5l0,0C56.3,143.7,54.3,141.7,51.8,141.7
		L51.8,141.7z"/>
	<path d="M61.7,144.7c0.8,0,1.5,0.7,1.5,1.5l0,0c0,0.8-0.7,1.5-1.5,1.5c-0.8,0-1.5-0.7-1.5-1.5C60.2,145.3,60.9,144.7,61.7,144.7
		L61.7,144.7z M61.7,141.7c-2.5,0-4.5,2-4.5,4.5c0,2.5,2,4.5,4.5,4.5c2.5,0,4.5-2,4.5-4.5l0,0C66.2,143.7,64.2,141.7,61.7,141.7
		L61.7,141.7z"/>
	<path d="M71.6,144.7c0.8,0,1.5,0.7,1.5,1.5l0,0c0,0.8-0.7,1.5-1.5,1.5c-0.8,0-1.5-0.7-1.5-1.5C70.1,145.3,70.7,144.7,71.6,144.7
		L71.6,144.7z M71.6,141.7c-2.5,0-4.5,2-4.5,4.5c0,2.5,2,4.5,4.5,4.5c2.5,0,4.5-2,4.5-4.5l0,0C76.1,143.7,74,141.7,71.6,141.7
		L71.6,141.7z"/>
	<path d="M81.4,144.7c0.8,0,1.5,0.7,1.5,1.5l0,0c0,0.8-0.7,1.5-1.5,1.5c-0.8,0-1.5-0.7-1.5-1.5C79.9,145.3,80.6,144.7,81.4,144.7
		L81.4,144.7z M81.4,141.7c-2.5,0-4.5,2-4.5,4.5c0,2.5,2,4.5,4.5,4.5c2.5,0,4.5-2,4.5-4.5l0,0C85.9,143.7,83.9,141.7,81.4,141.7
		L81.4,141.7z"/>
	<path d="M91.3,144.7c0.8,0,1.5,0.7,1.5,1.5l0,0c0,0.8-0.7,1.5-1.5,1.5c-0.8,0-1.5-0.7-1.5-1.5C89.8,145.3,90.5,144.7,91.3,144.7
		L91.3,144.7z M91.3,141.7c-2.5,0-4.5,2-4.5,4.5c0,2.5,2,4.5,4.5,4.5s4.5-2,4.5-4.5l0,0C95.8,143.7,93.8,141.7,91.3,141.7
		L91.3,141.7z"/>
	<path d="M101.2,144.7c0.8,0,1.5,0.7,1.5,1.5l0,0c0,0.8-0.7,1.5-1.5,1.5c-0.8,0-1.5-0.7-1.5-1.5C99.7,145.3,100.4,144.7,101.2,144.7
		L101.2,144.7z M101.2,141.7c-2.5,0-4.5,2-4.5,4.5c0,2.5,2,4.5,4.5,4.5s4.5-2,4.5-4.5l0,0C105.7,143.7,103.7,141.7,101.2,141.7
		L101.2,141.7z"/>
	<path d="M111.1,144.7c0.8,0,1.5,0.7,1.5,1.5l0,0c0,0.8-0.7,1.5-1.5,1.5s-1.5-0.7-1.5-1.5C109.6,145.3,110.2,144.7,111.1,144.7
		L111.1,144.7z M111.1,141.7c-2.5,0-4.5,2-4.5,4.5c0,2.5,2,4.5,4.5,4.5s4.5-2,4.5-4.5l0,0C115.6,143.7,113.5,141.7,111.1,141.7
		L111.1,141.7z"/>
	<path d="M120.9,144.7c0.8,0,1.5,0.7,1.5,1.5l0,0c0,0.8-0.7,1.5-1.5,1.5s-1.5-0.7-1.5-1.5C119.4,145.3,120.1,144.7,120.9,144.7
		L120.9,144.7z M120.9,141.7c-2.5,0-4.5,2-4.5,4.5c0,2.5,2,4.5,4.5,4.5s4.5-2,4.5-4.5l0,0C125.4,143.7,123.4,141.7,120.9,141.7
		L120.9,141.7z"/>
	<path d="M130.8,144.7c0.8,0,1.5,0.7,1.5,1.5l0,0c0,0.8-0.7,1.5-1.5,1.5s-1.5-0.7-1.5-1.5C129.3,145.3,130,144.7,130.8,144.7
		L130.8,144.7z M130.8,141.7c-2.5,0-4.5,2-4.5,4.5c0,2.5,2,4.5,4.5,4.5s4.5-2,4.5-4.5l0,0C135.3,143.7,133.3,141.7,130.8,141.7
		L130.8,141.7z"/>
	<path d="M140.7,144.7c0.8,0,1.5,0.7,1.5,1.5l0,0c0,0.8-0.7,1.5-1.5,1.5c-0.8,0-1.5-0.7-1.5-1.5
		C139.2,145.3,139.8,144.7,140.7,144.7L140.7,144.7z M140.7,141.7c-2.5,0-4.5,2-4.5,4.5c0,2.5,2,4.5,4.5,4.5s4.5-2,4.5-4.5l0,0
		C145.2,143.7,143.2,141.7,140.7,141.7L140.7,141.7z"/>
	<path d="M150.5,144.7c0.8,0,1.5,0.7,1.5,1.5l0,0c0,0.8-0.7,1.5-1.5,1.5c-0.8,0-1.5-0.7-1.5-1.5C149,145.3,149.7,144.7,150.5,144.7
		L150.5,144.7z M150.5,141.7c-2.5,0-4.5,2-4.5,4.5c0,2.5,2,4.5,4.5,4.5c2.5,0,4.5-2,4.5-4.5l0,0C155,143.7,153,141.7,150.5,141.7
		L150.5,141.7z"/>
	<path d="M160.4,144.7c0.8,0,1.5,0.7,1.5,1.5l0,0c0,0.8-0.7,1.5-1.5,1.5c-0.8,0-1.5-0.7-1.5-1.5
		C158.9,145.3,159.6,144.7,160.4,144.7L160.4,144.7z M160.4,141.7c-2.5,0-4.5,2-4.5,4.5c0,2.5,2,4.5,4.5,4.5c2.5,0,4.5-2,4.5-4.5
		l0,0C164.9,143.7,162.9,141.7,160.4,141.7L160.4,141.7z"/>
	<path d="M170.3,144.7c0.8,0,1.5,0.7,1.5,1.5l0,0c0,0.8-0.7,1.5-1.5,1.5c-0.8,0-1.5-0.7-1.5-1.5
		C168.8,145.3,169.5,144.7,170.3,144.7L170.3,144.7z M170.3,141.7c-2.5,0-4.5,2-4.5,4.5c0,2.5,2,4.5,4.5,4.5s4.5-2,4.5-4.5l0,0
		C174.8,143.7,172.8,141.7,170.3,141.7L170.3,141.7z"/>
	<path d="M180.2,144.7c0.8,0,1.5,0.7,1.5,1.5l0,0c0,0.8-0.7,1.5-1.5,1.5c-0.8,0-1.5-0.7-1.5-1.5
		C178.7,145.3,179.3,144.7,180.2,144.7L180.2,144.7z M180.2,141.7c-2.5,0-4.5,2-4.5,4.5c0,2.5,2,4.5,4.5,4.5s4.5-2,4.5-4.5l0,0
		C184.7,143.7,182.6,141.7,180.2,141.7L180.2,141.7z"/>
	<path d="M190,144.7c0.8,0,1.5,0.7,1.5,1.5l0,0c0,0.8-0.7,1.5-1.5,1.5c-0.8,0-1.5-0.7-1.5-1.5C188.5,145.3,189.2,144.7,190,144.7
		L190,144.7z M190,141.7c-2.5,0-4.5,2-4.5,4.5c0,2.5,2,4.5,4.5,4.5s4.5-2,4.5-4.5l0,0C194.5,143.7,192.5,141.7,190,141.7L190,141.7z
		"/>
	<path d="M199.9,144.7c0.8,0,1.5,0.7,1.5,1.5l0,0c0,0.8-0.7,1.5-1.5,1.5c-0.8,0-1.5-0.7-1.5-1.5
		C198.4,145.3,199.1,144.7,199.9,144.7L199.9,144.7z M199.9,141.7c-2.5,0-4.5,2-4.5,4.5c0,2.5,2,4.5,4.5,4.5s4.5-2,4.5-4.5l0,0
		C204.4,143.7,202.4,141.7,199.9,141.7L199.9,141.7z"/>
	<path d="M209.8,144.7c0.8,0,1.5,0.7,1.5,1.5l0,0c0,0.8-0.7,1.5-1.5,1.5s-1.5-0.7-1.5-1.5C208.3,145.3,209,144.7,209.8,144.7
		L209.8,144.7z M209.8,141.7c-2.5,0-4.5,2-4.5,4.5c0,2.5,2,4.5,4.5,4.5s4.5-2,4.5-4.5l0,0C214.3,143.7,212.3,141.7,209.8,141.7
		L209.8,141.7z"/>
	<path d="M219.7,144.7c0.8,0,1.5,0.7,1.5,1.5l0,0c0,0.8-0.7,1.5-1.5,1.5s-1.5-0.7-1.5-1.5C218.2,145.3,218.8,144.7,219.7,144.7
		L219.7,144.7z M219.7,141.7c-2.5,0-4.5,2-4.5,4.5c0,2.5,2,4.5,4.5,4.5s4.5-2,4.5-4.5l0,0C224.2,143.7,222.1,141.7,219.7,141.7
		L219.7,141.7z"/>
	<path d="M229.5,144.7c0.8,0,1.5,0.7,1.5,1.5l0,0c0,0.8-0.7,1.5-1.5,1.5c-0.8,0-1.5-0.7-1.5-1.5C228,145.3,228.7,144.7,229.5,144.7
		L229.5,144.7z M229.5,141.7c-2.5,0-4.5,2-4.5,4.5c0,2.5,2,4.5,4.5,4.5s4.5-2,4.5-4.5l0,0C234,143.7,232,141.7,229.5,141.7
		L229.5,141.7z"/>
	<path d="M239.4,144.7c0.8,0,1.5,0.7,1.5,1.5l0,0c0,0.8-0.7,1.5-1.5,1.5c-0.8,0-1.5-0.7-1.5-1.5
		C237.9,145.3,238.6,144.7,239.4,144.7L239.4,144.7z M239.4,141.7c-2.5,0-4.5,2-4.5,4.5c0,2.5,2,4.5,4.5,4.5s4.5-2,4.5-4.5l0,0
		C243.9,143.7,241.9,141.7,239.4,141.7L239.4,141.7z"/>
	<path d="M249.3,144.7c0.8,0,1.5,0.7,1.5,1.5l0,0c0,0.8-0.7,1.5-1.5,1.5c-0.8,0-1.5-0.7-1.5-1.5
		C247.8,145.3,248.4,144.7,249.3,144.7L249.3,144.7z M249.3,141.7c-2.5,0-4.5,2-4.5,4.5c0,2.5,2,4.5,4.5,4.5s4.5-2,4.5-4.5l0,0
		C253.8,143.7,251.8,141.7,249.3,141.7L249.3,141.7z"/>
	<path d="M259.1,144.7c0.8,0,1.5,0.7,1.5,1.5l0,0c0,0.8-0.7,1.5-1.5,1.5c-0.8,0-1.5-0.7-1.5-1.5
		C257.6,145.3,258.3,144.7,259.1,144.7L259.1,144.7z M259.1,141.7c-2.5,0-4.5,2-4.5,4.5c0,2.5,2,4.5,4.5,4.5s4.5-2,4.5-4.5l0,0
		C263.6,143.7,261.6,141.7,259.1,141.7L259.1,141.7z"/>
	<path d="M269,144.7c0.8,0,1.5,0.7,1.5,1.5l0,0c0,0.8-0.7,1.5-1.5,1.5c-0.8,0-1.5-0.7-1.5-1.5C267.5,145.3,268.2,144.7,269,144.7
		L269,144.7z M269,141.7c-2.5,0-4.5,2-4.5,4.5c0,2.5,2,4.5,4.5,4.5s4.5-2,4.5-4.5l0,0C273.5,143.7,271.5,141.7,269,141.7L269,141.7z
		"/>
	<path d="M278.9,144.7c0.8,0,1.5,0.7,1.5,1.5l0,0c0,0.8-0.7,1.5-1.5,1.5c-0.8,0-1.5-0.7-1.5-1.5
		C277.4,145.3,278.1,144.7,278.9,144.7L278.9,144.7z M278.9,141.7c-2.5,0-4.5,2-4.5,4.5c0,2.5,2,4.5,4.5,4.5s4.5-2,4.5-4.5l0,0
		C283.4,143.7,281.4,141.7,278.9,141.7L278.9,141.7z"/>
	<path d="M288.8,144.7c0.8,0,1.5,0.7,1.5,1.5l0,0c0,0.8-0.7,1.5-1.5,1.5c-0.8,0-1.5-0.7-1.5-1.5
		C287.3,145.3,287.9,144.7,288.8,144.7L288.8,144.7z M288.8,141.7c-2.5,0-4.5,2-4.5,4.5c0,2.5,2,4.5,4.5,4.5s4.5-2,4.5-4.5l0,0
		C293.3,143.7,291.2,141.7,288.8,141.7L288.8,141.7z"/>
	<path d="M298.6,144.7c0.8,0,1.5,0.7,1.5,1.5l0,0c0,0.8-0.7,1.5-1.5,1.5s-1.5-0.7-1.5-1.5C297.1,145.3,297.8,144.7,298.6,144.7
		L298.6,144.7z M298.6,141.7c-2.5,0-4.5,2-4.5,4.5c0,2.5,2,4.5,4.5,4.5s4.5-2,4.5-4.5l0,0C303.1,143.7,301.1,141.7,298.6,141.7
		L298.6,141.7z"/>
	<path d="M308.5,144.7c0.8,0,1.5,0.7,1.5,1.5l0,0c0,0.8-0.7,1.5-1.5,1.5c-0.8,0-1.5-0.7-1.5-1.5C307,145.3,307.7,144.7,308.5,144.7
		L308.5,144.7z M308.5,141.7c-2.5,0-4.5,2-4.5,4.5c0,2.5,2,4.5,4.5,4.5c2.5,0,4.5-2,4.5-4.5l0,0C313,143.7,311,141.7,308.5,141.7
		L308.5,141.7z"/>
	<path d="M318.4,144.7c0.8,0,1.5,0.7,1.5,1.5l0,0c0,0.8-0.7,1.5-1.5,1.5s-1.5-0.7-1.5-1.5C316.9,145.3,317.6,144.7,318.4,144.7
		L318.4,144.7z M318.4,141.7c-2.5,0-4.5,2-4.5,4.5c0,2.5,2,4.5,4.5,4.5s4.5-2,4.5-4.5l0,0C322.9,143.7,320.9,141.7,318.4,141.7
		L318.4,141.7z"/>
	<path d="M328.3,144.7c0.8,0,1.5,0.7,1.5,1.5l0,0c0,0.8-0.7,1.5-1.5,1.5c-0.8,0-1.5-0.7-1.5-1.5
		C326.8,145.3,327.4,144.7,328.3,144.7L328.3,144.7z M328.3,141.7c-2.5,0-4.5,2-4.5,4.5c0,2.5,2,4.5,4.5,4.5s4.5-2,4.5-4.5l0,0
		C332.8,143.7,330.7,141.7,328.3,141.7L328.3,141.7z"/>
	<path d="M338.1,144.7c0.8,0,1.5,0.7,1.5,1.5l0,0c0,0.8-0.7,1.5-1.5,1.5s-1.5-0.7-1.5-1.5C336.6,145.3,337.3,144.7,338.1,144.7
		L338.1,144.7z M338.1,141.7c-2.5,0-4.5,2-4.5,4.5c0,2.5,2,4.5,4.5,4.5s4.5-2,4.5-4.5l0,0C342.6,143.7,340.6,141.7,338.1,141.7
		L338.1,141.7z"/>
	<path class="st8" d="M22.2,146.2L22.2,146.2 M32.1,146.2L32.1,146.2 M41.9,146.2L41.9,146.2 M51.8,146.2L51.8,146.2 M61.7,146.2
		L61.7,146.2 M71.6,146.2L71.6,146.2 M81.4,146.2L81.4,146.2 M91.3,146.2L91.3,146.2 M101.2,146.2L101.2,146.2 M111.1,146.2
		L111.1,146.2 M120.9,146.2L120.9,146.2 M130.8,146.2L130.8,146.2 M140.7,146.2L140.7,146.2 M150.5,146.2L150.5,146.2 M160.4,146.2
		L160.4,146.2 M170.3,146.2L170.3,146.2 M180.2,146.2L180.2,146.2 M190,146.2L190,146.2 M199.9,146.2L199.9,146.2 M209.8,146.2
		L209.8,146.2 M219.7,146.2L219.7,146.2 M229.5,146.2L229.5,146.2 M239.4,146.2L239.4,146.2 M249.3,146.2L249.3,146.2 M259.1,146.2
		L259.1,146.2 M269,146.2L269,146.2 M278.9,146.2L278.9,146.2 M288.8,146.2L288.8,146.2 M298.6,146.2L298.6,146.2 M308.5,146.2
		L308.5,146.2 M318.4,146.2L318.4,146.2 M328.3,146.2L328.3,146.2 M338.1,146.2L338.1,146.2"/>
</g>
</svg>
