<?xml version="1.0" encoding="utf-8"?>
<!-- Generator: Adobe Illustrator 22.1.0, SVG Export Plug-In . SVG Version: 6.00 Build 0)  -->
<svg version="1.1" id="Layer_1" xmlns="http://www.w3.org/2000/svg" xmlns:xlink="http://www.w3.org/1999/xlink" x="0px" y="0px"
	 viewBox="0 0 357.2 165.3" style="enable-background:new 0 0 357.2 165.3;" xml:space="preserve">
<style type="text/css">
	.st0{fill:none;stroke:#FF0000;stroke-width:1.7008;stroke-linecap:round;stroke-miterlimit:10;stroke-dasharray:0,4.5321;}
	.st1{fill:#1D1D1B;}
	.st2{fill:none;stroke:#000000;stroke-width:0.8504;stroke-miterlimit:10;}
	.st3{fill:none;stroke:#000000;stroke-width:0.8504;stroke-linecap:round;stroke-miterlimit:10;stroke-dasharray:0,3.928;}
	.st4{fill:none;stroke:#0000FF;stroke-width:1.7008;stroke-linecap:round;stroke-miterlimit:10;stroke-dasharray:0,4.5363;}
	.st5{fill:none;stroke:#000000;stroke-width:0.8504;stroke-linecap:round;stroke-miterlimit:10;stroke-dasharray:0,3.2598;}
	.st6{fill:none;stroke:#000000;stroke-width:0.8504;stroke-linecap:round;stroke-miterlimit:10;stroke-dasharray:0,3.7881;}
	.st7{fill:#0000FF;}
</style>
<g>
	<polygon class="st0" points="29.9,93 29.9,114.2 182.3,114.2 182.3,71.7 29.9,71.7 	"/>
	<g>
		<path class="st1" d="M3,79.7c-0.1,0.4-0.2,0.7-0.2,0.9c0,0.3,0.2,0.7,0.5,0.7c0.3,0,1-0.2,1.3-1.3c0-0.1,0-0.1,0.1-0.1
			c0,0,0.1,0,0.1,0.1c0,0.2-0.6,1.5-1.6,1.5c-0.6,0-1-0.4-1.1-0.8c0,0.1-0.4,0.8-1,0.8c-0.4,0-0.9-0.2-0.9-0.7
			c0-0.3,0.2-0.6,0.5-0.6c0.1,0,0.4,0.1,0.4,0.3c0,0.3-0.2,0.5-0.5,0.5c0.2,0.1,0.4,0.1,0.5,0.1c0.4,0,0.8-0.4,0.9-1
			c0.4-1.4,0.5-2.1,0.5-2.4c0-0.6-0.3-0.7-0.5-0.7c-0.3,0-1,0.2-1.3,1.3c0,0.1-0.1,0.1-0.1,0.1c0,0-0.1,0-0.1-0.1
			c0-0.2,0.6-1.5,1.6-1.5c0.3,0,0.8,0.1,1.1,0.8c0.1-0.2,0.5-0.8,1-0.8c0.3,0,0.9,0.1,0.9,0.7c0,0.4-0.3,0.6-0.5,0.6
			c-0.3,0-0.4-0.2-0.4-0.3c0-0.2,0.2-0.5,0.5-0.5c-0.2-0.1-0.4-0.1-0.5-0.1c-0.7,0-0.9,0.9-1,1.2L3,79.7z"/>
	</g>
	<g>
		<path class="st1" d="M6.8,83.8v-10h1.4v0.4h-1v9.2h1v0.4H6.8z"/>
	</g>
	<g>
		<path class="st1" d="M9.9,78.4c0.1-0.5,0.2-0.6,0.2-0.8c0-0.3-0.1-0.5-0.3-0.5c-0.4,0-0.6,0.5-0.7,1.2c-0.1,0.2-0.1,0.2-0.2,0.2
			c0,0-0.1,0-0.1-0.1c0,0,0.1-0.6,0.3-1c0.1-0.2,0.3-0.6,0.7-0.6c0.5,0,0.9,0.3,0.9,0.9c0.2-0.2,0.7-0.9,1.6-0.9
			c0.7,0,1.1,0.4,1.1,1.1c0,0.6-0.4,1.7-0.6,2.2c-0.1,0.2-0.2,0.5-0.2,0.7c0,0.2,0.1,0.3,0.2,0.3c0.5,0,0.8-0.6,1-1.2
			c0-0.1,0-0.2,0.1-0.2c0,0,0.1,0,0.1,0.1c0,0.1-0.4,1.5-1.3,1.5c-0.5,0-0.8-0.3-0.8-0.8c0-0.1,0-0.2,0.1-0.5
			c0.2-0.4,0.6-1.7,0.6-2.3c0-0.3-0.1-0.7-0.5-0.7c-0.9,0-1.5,0.9-1.6,1.2c0,0-0.1,0.3-0.1,0.5c0,0.2-0.1,0.4-0.2,0.7L10,80.4
			c-0.1,0.2-0.2,0.7-0.2,0.7c-0.1,0.2-0.2,0.3-0.4,0.3c-0.1,0-0.3-0.1-0.3-0.3c0-0.1,0.1-0.3,0.1-0.4L9.9,78.4z"/>
	</g>
	<g>
		<path class="st1" d="M16,83.8h-1.4v-0.4h1v-9.2h-1v-0.4H16V83.8z"/>
	</g>
	<polyline points="145.8,81.1 150.4,78.8 145.8,76.5 147,78.8 	"/>
	<path class="st2" d="M111.4,78.8H147 M37,100.1V78.8"/>
	<g>
		<path class="st1" d="M54,102.8c0,0.1,0,0.2,0,0.2c0,0.2,0.1,0.2,0.4,0.2c0.3,0,0.4,0,0.6,0c0.3,0,0.3,0,0.3,0.1
			c0,0.2-0.1,0.2-0.2,0.2c-0.3,0-0.6,0-0.9,0c-0.3,0-0.5,0-0.8,0c-0.3,0-0.6,0-0.8,0c-0.3,0-0.5,0-0.8,0c-0.1,0-0.2,0-0.2-0.1
			c0-0.2,0.1-0.2,0.4-0.2c1.1,0,1.1-0.1,1.2-0.5l1.3-5.3c0,0,0-0.1,0-0.2c0-0.1,0-0.1-0.3-0.1h-0.4c-1.5,0-1.7,0.2-2.3,1.7
			C51.6,99,51.6,99,51.5,99c-0.1,0-0.1,0-0.1-0.1c0,0,0-0.2,0.1-0.2L52,97c0.1-0.2,0.1-0.2,0.3-0.2h5.5c0.2,0,0.3,0,0.3,0.1
			c0,0,0,0.1,0,0.2l-0.3,1.7c0,0.1,0,0.2-0.1,0.2c-0.1,0-0.1-0.1-0.1-0.1c0,0,0-0.2,0-0.2c0-0.3,0.1-0.6,0.1-0.8
			c0-0.8-0.4-0.8-1.5-0.8c-0.2,0-0.5,0-0.6,0c-0.1,0-0.2,0.1-0.2,0.4L54,102.8z"/>
	</g>
	<polygon class="st2" points="44.1,100.1 44.1,107.1 65.3,107.1 65.3,93 44.1,93 	"/>
	<polyline points="39.5,102.3 44.1,100.1 39.5,97.8 40.7,100.1 	"/>
	<line class="st2" x1="37" y1="100.1" x2="40.7" y2="100.1"/>
	<polyline points="71.4,102.3 76,100.1 71.4,97.8 72.6,100.1 	"/>
	<line class="st2" x1="65.3" y1="100.1" x2="72.6" y2="100.1"/>
	<g>
		<path class="st1" d="M153.9,82.2c-1.8,0-3.3-1.5-3.3-3.3c0-1.8,1.5-3.3,3.3-3.3c1.8,0,3.3,1.5,3.3,3.3
			C157.3,80.7,155.8,82.2,153.9,82.2z M153.8,78.7v-2.9c-1.6,0.1-2.8,1.3-2.9,2.9H153.8z M153.8,79h-2.9c0.1,1.7,1.4,2.9,2.9,2.9V79
			z M154.1,78.7h2.9c-0.1-1.7-1.4-2.9-2.9-2.9V78.7z M154.1,79v2.9c1.5-0.1,2.8-1.2,2.9-2.9H154.1z"/>
	</g>
	<polyline points="156.2,86.9 153.9,82.3 151.6,86.9 153.9,85.7 	"/>
	<line class="st2" x1="153.9" y1="100.1" x2="153.9" y2="85.7"/>
	<g>
		<path class="st1" d="M145.3,86.2v-0.6h2.6v0.6H145.3z"/>
	</g>
	<line class="st2" x1="146.8" y1="100.1" x2="153.9" y2="100.1"/>
	<polyline points="160,81.1 164.5,78.8 160,76.5 161.1,78.8 	"/>
	<path class="st2" d="M157.5,78.8h3.7 M171.6,78.8h17.7"/>
	<g>
		<path class="st1" d="M168.1,82.2c-1.8,0-3.3-1.5-3.3-3.3c0-1.8,1.5-3.3,3.3-3.3c1.8,0,3.3,1.5,3.3,3.3
			C171.4,80.7,170,82.2,168.1,82.2z M167.9,78.8l-2.1-2.1c-0.5,0.6-0.8,1.3-0.8,2.1c0,0.6,0.2,1.4,0.8,2.1L167.9,78.8z M168.1,79
			l-2.1,2.1c0.8,0.8,1.7,0.8,2.1,0.8c1.3,0,2.1-0.8,2.1-0.8c0,0-0.1-0.1-0.1-0.1L168.1,79z M168.1,78.7l2.1-2.1
			c-0.8-0.8-1.7-0.8-2.1-0.8c-1.3,0-2.1,0.8-2.1,0.8c0,0,0.1,0.1,0.1,0.1L168.1,78.7z M168.3,78.8l2.1,2.1c0.5-0.6,0.8-1.3,0.8-2.1
			c0-0.8-0.3-1.6-0.8-2.1L168.3,78.8z"/>
	</g>
	<polyline points="170.4,86.9 168.1,82.3 165.8,86.9 168.1,85.7 	"/>
	<line class="st2" x1="168.1" y1="89.4" x2="168.1" y2="85.7"/>
	<g>
		<path class="st1" d="M160.9,98.3c0,0.4,0,0.5,0.9,0.5h0.3V99c-0.3,0-1.2,0-1.6,0c-0.4,0-1.3,0-1.6,0v-0.3h0.3
			c0.9,0,0.9-0.1,0.9-0.5v-5.2c-0.5,0.3-1.1,0.3-1.3,0.3V93c0.3,0,1.2,0,1.8-0.6c0.2,0,0.2,0,0.2,0.3V98.3z"/>
	</g>
	<g>
		<path class="st1" d="M164,101.3c-0.1,0.2-0.1,0.2-0.2,0.2c-0.1,0-0.2-0.1-0.2-0.2c0,0,0,0,0-0.2l3.5-9.5c0-0.1,0.1-0.1,0.2-0.1
			c0.1,0,0.2,0.1,0.2,0.2c0,0,0,0,0,0.2L164,101.3z"/>
		<path class="st1" d="M175.4,98.3c0,0.2,0,0.2,0,0.2c0,0.2,0.3,0.2,0.6,0.2c0.2,0,0.3,0,0.3,0.1c0,0.2-0.1,0.2-0.2,0.2
			c-0.4,0-0.8,0-1.2,0c-0.3,0-1,0-1.2,0c0,0-0.1,0-0.1-0.1c0-0.2,0.1-0.2,0.3-0.2c0.8,0,0.8-0.1,0.9-0.5l1.4-5.7h0l-4,6.3
			c0,0.1-0.1,0.2-0.2,0.2c-0.1,0-0.1-0.1-0.1-0.2l-0.9-6.2h0l-1.4,5.4c0,0.1,0,0.2,0,0.2c0,0.2,0.1,0.4,0.7,0.4c0.1,0,0.2,0,0.2,0.1
			c0,0.2-0.1,0.2-0.2,0.2c-0.3,0-0.7,0-1,0c-0.3,0-0.7,0-1,0c-0.1,0-0.1,0-0.1-0.1c0-0.2,0.1-0.2,0.2-0.2c0.8,0,1-0.3,1.1-0.7
			l1.3-5.1c0-0.1,0-0.1,0-0.2c0-0.1-0.1-0.1-0.2-0.2c-0.1,0-0.3,0-0.4,0c-0.2,0-0.3,0-0.3-0.1c0-0.2,0.1-0.2,0.3-0.2h1.4
			c0.3,0,0.3,0,0.3,0.2l0.8,5.6l3.6-5.7c0.1-0.2,0.1-0.2,0.4-0.2h1.3c0.2,0,0.3,0,0.3,0.1c0,0.2-0.1,0.2-0.3,0.2
			c-0.7,0-0.8,0.1-0.9,0.5L175.4,98.3z"/>
	</g>
	<g>
		<path class="st1" d="M135.5,102.8c0,0.1,0,0.2,0,0.2c0,0.2,0.1,0.2,0.4,0.2c0.3,0,0.4,0,0.6,0c0.3,0,0.3,0,0.3,0.1
			c0,0.2-0.1,0.2-0.2,0.2c-0.3,0-0.6,0-0.9,0c-0.3,0-0.5,0-0.8,0c-0.3,0-0.6,0-0.8,0c-0.3,0-0.5,0-0.8,0c-0.1,0-0.2,0-0.2-0.1
			c0-0.2,0.1-0.2,0.4-0.2c1.1,0,1.1-0.1,1.2-0.5l1.3-5.3c0,0,0-0.1,0-0.2c0-0.1,0-0.1-0.3-0.1h-0.4c-1.5,0-1.7,0.2-2.3,1.7
			c-0.1,0.2-0.1,0.2-0.2,0.2c-0.1,0-0.1,0-0.1-0.1c0,0,0-0.2,0.1-0.2l0.6-1.8c0.1-0.2,0.1-0.2,0.3-0.2h5.5c0.2,0,0.3,0,0.3,0.1
			c0,0,0,0.1,0,0.2l-0.3,1.7c0,0.1,0,0.2-0.1,0.2c-0.1,0-0.1-0.1-0.1-0.1c0,0,0-0.2,0-0.2c0-0.3,0.1-0.6,0.1-0.8
			c0-0.8-0.4-0.8-1.5-0.8c-0.2,0-0.5,0-0.6,0c-0.1,0-0.2,0.1-0.2,0.4L135.5,102.8z"/>
	</g>
	<polygon class="st2" points="125.6,100.1 125.6,107.1 146.8,107.1 146.8,93 125.6,93 	"/>
	<polyline points="121,102.3 125.6,100.1 121,97.8 122.2,100.1 	"/>
	<line class="st2" x1="111.4" y1="100.1" x2="122.2" y2="100.1"/>
	<line class="st3" x1="79.5" y1="100.1" x2="107.9" y2="100.1"/>
	<line class="st2" x1="22.8" y1="78.8" x2="76" y2="78.8"/>
	<line class="st3" x1="79.5" y1="78.8" x2="107.9" y2="78.8"/>
	<polygon class="st4" points="195.6,82.3 195.6,163.8 332,163.8 332,0.9 195.6,0.9 	"/>
	<line class="st5" x1="203.5" y1="64.6" x2="203.5" y2="54"/>
	<g>
		<path class="st1" d="M344.3,81.3c-0.3,1.1-1.3,2-2.3,2c-0.6,0-1.1-0.4-1.1-0.9c0-0.5,0.3-0.6,0.6-0.6c0.1,0,0.4,0,0.4,0.3
			c0,0.2-0.1,0.3-0.2,0.4c-0.1,0.1-0.3,0.1-0.4,0.1c0.2,0.4,0.6,0.4,0.8,0.4c0.5,0,0.8-0.3,1.1-0.6c0.4-0.5,0.5-1,0.6-1.5
			c-0.3,0.3-0.6,0.4-1,0.4c-0.6,0-1.2-0.3-1.2-1.2c0-0.5,0.2-1,0.6-2.1c0.1-0.2,0.2-0.4,0.2-0.7c0-0.3-0.2-0.3-0.2-0.3
			c-0.3,0-0.7,0.3-1,1.2c0,0.2-0.1,0.2-0.2,0.2c0,0-0.1,0-0.1-0.1c0-0.1,0.4-1.5,1.3-1.5c0.5,0,0.8,0.4,0.8,0.8c0,0.2,0,0.3-0.2,0.7
			c-0.3,0.9-0.5,1.5-0.5,2c0,0.4,0.1,0.8,0.6,0.8c0.7,0,1.1-0.7,1.1-0.8l0.4-1.8c0.1-0.3,0.1-0.5,0.2-0.8c0-0.2,0.1-0.5,0.1-0.5
			c0.1-0.1,0.2-0.2,0.3-0.2c0.1,0,0.3,0.1,0.3,0.3c0,0.1,0,0.1,0,0.2L344.3,81.3z"/>
	</g>
	<g>
		<path class="st1" d="M346.9,83.8v-10h1.4v0.4h-1v9.2h1v0.4H346.9z"/>
	</g>
	<g>
		<path class="st1" d="M349.9,78.4c0.1-0.5,0.2-0.6,0.2-0.8c0-0.3-0.1-0.5-0.3-0.5c-0.4,0-0.6,0.5-0.7,1.2c-0.1,0.2-0.1,0.2-0.2,0.2
			c0,0-0.1,0-0.1-0.1c0,0,0.1-0.6,0.3-1c0.1-0.2,0.3-0.6,0.7-0.6c0.5,0,0.9,0.3,0.9,0.9c0.2-0.2,0.7-0.9,1.6-0.9
			c0.7,0,1.1,0.4,1.1,1.1c0,0.6-0.4,1.7-0.6,2.2c-0.1,0.2-0.2,0.5-0.2,0.7c0,0.2,0.1,0.3,0.2,0.3c0.5,0,0.8-0.6,1-1.2
			c0.1-0.1,0.1-0.2,0.2-0.2c0,0,0.1,0,0.1,0.1c0,0.1-0.4,1.5-1.3,1.5c-0.5,0-0.8-0.3-0.8-0.8c0-0.1,0-0.2,0.1-0.5
			c0.2-0.4,0.6-1.7,0.6-2.3c0-0.3-0.1-0.7-0.5-0.7c-0.9,0-1.5,0.9-1.6,1.2c0,0-0.1,0.3-0.1,0.5c0,0.2-0.1,0.4-0.2,0.7l-0.2,0.9
			c-0.1,0.2-0.2,0.7-0.2,0.7c-0.1,0.2-0.2,0.3-0.4,0.3c-0.1,0-0.3-0.1-0.3-0.3c0-0.1,0.1-0.3,0.1-0.4L349.9,78.4z"/>
	</g>
	<g>
		<path class="st1" d="M356,83.8h-1.4v-0.4h1v-9.2h-1v-0.4h1.4V83.8z"/>
	</g>
	<polyline points="333.6,81.1 338.2,78.8 333.6,76.5 334.8,78.8 	"/>
	<line class="st2" x1="324" y1="78.8" x2="334.8" y2="78.8"/>
	<g>
		<path class="st1" d="M320.5,82.2c-1.8,0-3.3-1.5-3.3-3.3c0-1.8,1.5-3.3,3.3-3.3c1.8,0,3.3,1.5,3.3,3.3
			C323.8,80.7,322.3,82.2,320.5,82.2z M320.4,78.7v-2.9c-1.6,0.1-2.8,1.3-2.9,2.9H320.4z M320.4,79h-2.9c0.1,1.7,1.4,2.9,2.9,2.9V79
			z M320.6,78.7h3c-0.1-1.7-1.4-2.9-3-2.9V78.7z M320.6,79v2.9c1.5-0.1,2.9-1.2,3-2.9H320.6z"/>
	</g>
	<polyline points="322.7,86.9 320.5,82.3 318.2,86.9 320.5,85.7 	"/>
	<line class="st2" x1="320.5" y1="89.4" x2="320.5" y2="85.7"/>
	<polyline points="318.2,70.7 320.5,75.3 322.7,70.7 320.5,71.9 	"/>
	<line class="st2" x1="320.5" y1="68.2" x2="320.5" y2="71.9"/>
	<line class="st5" x1="320.5" y1="103.6" x2="320.5" y2="93"/>
	<line class="st5" x1="320.5" y1="64.6" x2="320.5" y2="54"/>
	<line class="st2" x1="203.5" y1="68.2" x2="203.5" y2="89.4"/>
	<line class="st5" x1="203.5" y1="103.6" x2="203.5" y2="93"/>
	<line class="st2" x1="203.5" y1="78.8" x2="189.3" y2="78.8"/>
	<line class="st6" x1="267.3" y1="64.6" x2="267.3" y2="107.1"/>
	<path class="st2" d="M203.5,117.8v-10.6 M320.5,117.8v-10.6"/>
	<g>
		<path class="st1" d="M267.3,156.6c-1.8,0-3.3-1.5-3.3-3.3c0-1.8,1.5-3.3,3.3-3.3c1.8,0,3.3,1.5,3.3,3.3
			C270.7,155.1,269.2,156.6,267.3,156.6z M267.1,153.2l-2.1-2.1c-0.5,0.6-0.8,1.3-0.8,2.1c0,0.6,0.2,1.4,0.8,2.1L267.1,153.2z
			 M267.3,153.4l-2.1,2.1c0.8,0.8,1.7,0.8,2.1,0.8c1.3,0,2.1-0.8,2.1-0.8c0,0-0.1-0.1-0.1-0.1L267.3,153.4z M267.3,153.1l2.1-2.1
			c-0.8-0.8-1.7-0.8-2.1-0.8c-1.3,0-2.1,0.8-2.1,0.8c0,0,0.1,0.1,0.1,0.1L267.3,153.1z M267.5,153.2l2.1,2.1
			c0.5-0.6,0.8-1.3,0.8-2.1c0-0.8-0.3-1.6-0.8-2.1L267.5,153.2z"/>
	</g>
	<polyline points="265,145.1 267.3,149.7 269.6,145.1 267.3,146.3 	"/>
	<line class="st2" x1="267.3" y1="146.3" x2="267.3" y2="139"/>
	<g>
		<path class="st1" d="M259.3,131.2c0.5-0.6,0.8-1.3,1-2c0-0.2,0-0.2,0.1-0.2c0.1,0,0.1,0.1,0.1,0.1c0,0-0.2,1.2-1.1,2.3
			c-0.1,0.1-0.1,0.1-0.1,0.3c0,0.2,0,1,0.3,1c0,0,0.4,0,0.6-0.5c0-0.1,0.1-0.1,0.1-0.1c0.1,0,0.1,0,0.1,0.1c0,0.2-0.3,0.7-0.8,0.7
			c-0.4,0-0.8-0.3-0.9-0.8c-0.8,0.6-1.5,0.8-2.1,0.8c-1,0-1.6-0.8-1.6-1.7c0-1.4,1.3-2.8,2.7-2.8c0.7,0,1.7,0.5,1.7,2.1V131.2z
			 M258.7,130.8c0-0.8,0-2.1-1-2.1c-0.3,0-0.9,0.2-1.4,0.9c-0.3,0.5-0.6,1.6-0.6,2.1c0,0.6,0.3,1.1,0.9,1.1c0.4,0,1.2-0.1,2-0.9
			C258.7,131.8,258.7,131.2,258.7,130.8z"/>
	</g>
	<g>
		<path class="st1" d="M267.1,133.8c0,0,0,0.1,0,0.2c0,0.1,0,0.1,0.2,0.1c0.1,0,0.3,0,0.3,0c0.1,0,0.2,0,0.2,0.1
			c0,0.2-0.1,0.2-0.1,0.2c-0.2,0-0.7,0-0.9,0c-0.1,0-0.3,0-0.4,0s-0.3,0-0.4,0c-0.1,0-0.1-0.1-0.1-0.1c0-0.2,0.1-0.2,0.2-0.2
			c0.5,0,0.6-0.1,0.6-0.3l1-3.9l0,0l-2.9,4.3c0,0.1-0.1,0.2-0.2,0.2c-0.1,0-0.1-0.1-0.1-0.2l-0.7-4.2h0l-0.9,3.7c0,0.1,0,0.1,0,0.2
			c0,0.1,0,0.3,0.4,0.3c0.1,0,0.2,0,0.2,0.1c0,0.2-0.1,0.2-0.1,0.2c-0.2,0-0.6,0-0.7,0c-0.2,0-0.5,0-0.7,0c-0.1,0-0.1-0.1-0.1-0.1
			c0-0.1,0.1-0.2,0.1-0.2c0.6,0,0.7-0.3,0.7-0.5l0.9-3.5c0-0.1,0-0.1,0-0.2c0-0.1,0-0.1-0.2-0.1c-0.1,0-0.2,0-0.3,0
			c-0.2,0-0.2,0-0.2-0.1c0-0.2,0.1-0.2,0.2-0.2h1c0.2,0,0.2,0,0.2,0.2l0.7,3.9l2.7-4c0.1-0.1,0.1-0.1,0.3-0.1h0.9
			c0.1,0,0.2,0,0.2,0.1c0,0.1-0.1,0.1-0.2,0.1c-0.5,0-0.5,0.1-0.6,0.3L267.1,133.8z"/>
	</g>
	<g>
		<path class="st1" d="M270.3,132.8c-0.1,0-0.3,0-0.3-0.2c0-0.2,0.2-0.2,0.3-0.2h4.2c0.1,0,0.3,0,0.3,0.2c0,0.2-0.2,0.2-0.3,0.2
			H270.3z"/>
	</g>
	<g>
		<path class="st1" d="M277.8,133.8c0,0.2,0,0.3,0.7,0.3h0.3v0.3c-0.2,0-1,0-1.2,0c-0.3,0-1.1,0-1.2,0v-0.3h0.3
			c0.7,0,0.7-0.1,0.7-0.3v-3.6c-0.4,0.2-0.8,0.2-1,0.2v-0.3c0.3,0,0.9,0,1.4-0.4c0.2,0,0.2,0,0.2,0.2V133.8z"/>
	</g>
	<line class="st2" x1="246" y1="153.2" x2="263.8" y2="153.2"/>
	<polyline points="248.3,125.9 246,121.3 243.8,125.9 246,124.7 	"/>
	<line class="st2" x1="246" y1="153.2" x2="246" y2="124.7"/>
	<g>
		<path class="st1" d="M246.1,121.1c-1.8,0-3.3-1.5-3.3-3.3c0-1.8,1.5-3.3,3.3-3.3c1.8,0,3.3,1.5,3.3,3.3
			C249.4,119.6,247.9,121.1,246.1,121.1z M245.9,117.7v-2.9c-1.6,0.1-2.8,1.3-2.9,2.9H245.9z M245.9,117.9H243
			c0.1,1.7,1.4,2.9,2.9,2.9V117.9z M246.2,117.7h3c-0.1-1.7-1.4-2.9-3-2.9V117.7z M246.2,117.9v2.9c1.5-0.1,2.9-1.2,3-2.9H246.2z"/>
	</g>
	<polyline points="238,120 242.5,117.8 238,115.5 239.1,117.8 	"/>
	<line class="st2" x1="221.2" y1="117.8" x2="239.1" y2="117.8"/>
	<polyline points="209.6,120 214.2,117.8 209.6,115.5 210.8,117.8 	"/>
	<line class="st2" x1="210.8" y1="117.8" x2="203.5" y2="117.8"/>
	<g>
		<path class="st1" d="M217.7,121.1c-1.8,0-3.3-1.5-3.3-3.3c0-1.8,1.5-3.3,3.3-3.3c1.8,0,3.3,1.5,3.3,3.3
			C221,119.6,219.6,121.1,217.7,121.1z M217.5,117.8l-2.1-2.1c-0.5,0.6-0.8,1.3-0.8,2.1c0,0.6,0.2,1.4,0.8,2.1L217.5,117.8z
			 M217.7,118l-2.1,2.1c0.8,0.8,1.7,0.8,2.1,0.8c1.3,0,2.1-0.8,2.1-0.8c0,0-0.1-0.1-0.1-0.1L217.7,118z M217.7,117.6l2.1-2.1
			c-0.8-0.8-1.7-0.8-2.1-0.8c-1.3,0-2.1,0.8-2.1,0.8c0,0,0.1,0.1,0.1,0.1L217.7,117.6z M217.9,117.8l2.1,2.1
			c0.5-0.6,0.8-1.3,0.8-2.1c0-0.8-0.3-1.6-0.8-2.1L217.9,117.8z"/>
	</g>
	<polyline points="220,125.9 217.7,121.3 215.4,125.9 217.7,124.7 	"/>
	<line class="st2" x1="217.7" y1="132" x2="217.7" y2="124.7"/>
	<g>
		<path class="st7" d="M202.6,140.9c0,0.1,0,0.1,0,0.2c0,0.2,0.3,0.2,0.6,0.2c0.2,0,0.3,0,0.3,0.1c0,0.2-0.1,0.2-0.2,0.2
			c-0.2,0-0.4,0-0.6,0c-0.2,0-0.4,0-0.6,0c-0.3,0-1,0-1.3,0c0,0-0.1,0-0.1-0.1c0-0.2,0.1-0.2,0.2-0.2c0.6,0,0.8,0,0.9-0.3
			c0-0.1,0.3-1.1,0.7-2.8h-3l-0.7,2.7c0,0.1,0,0.1,0,0.2c0,0.2,0.3,0.2,0.6,0.2c0.2,0,0.3,0,0.3,0.1c0,0.2-0.1,0.2-0.2,0.2
			c-0.2,0-0.4,0-0.6,0c-0.2,0-0.4,0-0.6,0c-0.3,0-1,0-1.3,0c0,0-0.1,0-0.1-0.1c0-0.2,0.1-0.2,0.3-0.2c0.8,0,0.8-0.1,0.9-0.5l1.3-5.4
			c0-0.1,0-0.1,0-0.2c0-0.1-0.1-0.1-0.3-0.2c-0.2,0-0.4,0-0.4,0c-0.2,0-0.3,0-0.3-0.1c0-0.2,0.1-0.2,0.2-0.2c0.3,0,1,0,1.3,0
			c0.3,0,1,0,1.3,0c0,0,0.1,0,0.1,0.1c0,0.2-0.1,0.2-0.3,0.2c-0.7,0-0.7,0.1-0.8,0.5l-0.6,2.3h3l0.6-2.4c0-0.1,0-0.1,0-0.2
			c0-0.1-0.1-0.1-0.3-0.2c-0.2,0-0.4,0-0.4,0c-0.2,0-0.3,0-0.3-0.1c0-0.2,0.1-0.2,0.2-0.2c0.3,0,1,0,1.3,0c0.3,0,1,0,1.3,0
			c0,0,0.1,0,0.1,0.1c0,0.2-0.1,0.2-0.3,0.2c-0.7,0-0.7,0.1-0.8,0.5L202.6,140.9z"/>
	</g>
	<g>
		<path class="st7" d="M206.6,144.1v-10h1.4v0.4h-1v9.2h1v0.4H206.6z"/>
	</g>
	<g>
		<path class="st7" d="M216.1,140.8c0,0.2,0,0.2,0,0.2c0,0.2,0.3,0.2,0.6,0.2c0.2,0,0.3,0,0.3,0.1c0,0.2-0.1,0.2-0.2,0.2
			c-0.4,0-0.8,0-1.2,0c-0.3,0-1,0-1.2,0c0,0-0.2,0-0.2-0.1c0-0.2,0.1-0.2,0.3-0.2c0.8,0,0.8-0.1,0.9-0.5l1.4-5.7h0l-4,6.3
			c0,0.1-0.1,0.2-0.2,0.2c-0.1,0-0.1-0.1-0.1-0.2l-0.9-6.2h0l-1.4,5.4c0,0.1,0,0.2,0,0.2c0,0.2,0.1,0.4,0.7,0.4c0.1,0,0.2,0,0.2,0.1
			c0,0.2-0.1,0.2-0.2,0.2c-0.3,0-0.7,0-1,0c-0.3,0-0.7,0-1,0c-0.1,0-0.1,0-0.1-0.1c0-0.2,0.1-0.2,0.2-0.2c0.8,0,1-0.3,1.1-0.7
			l1.3-5.1c0-0.1,0-0.1,0-0.2c0-0.1-0.1-0.1-0.2-0.2c-0.1,0-0.3,0-0.4,0c-0.2,0-0.3,0-0.3-0.1c0-0.2,0.1-0.2,0.3-0.2h1.4
			c0.3,0,0.3,0,0.3,0.2l0.8,5.6l3.6-5.7c0.1-0.2,0.1-0.2,0.4-0.2h1.3c0.2,0,0.3,0,0.3,0.1c0,0.2-0.1,0.2-0.3,0.2
			c-0.7,0-0.8,0.1-0.9,0.5L216.1,140.8z"/>
	</g>
	<g>
		<path class="st7" d="M222.3,139.3c-0.2,0-0.3,0-0.3-0.2s0.2-0.2,0.3-0.2h5.4c0.2,0,0.3,0,0.3,0.2s-0.2,0.2-0.3,0.2H222.3z"/>
	</g>
	<g>
		<path class="st7" d="M234.1,140.8c0,0.4,0,0.5,0.9,0.5h0.3v0.3c-0.3,0-1.2,0-1.6,0s-1.3,0-1.6,0v-0.3h0.3c0.9,0,0.9-0.1,0.9-0.5
			v-5.2c-0.5,0.3-1.1,0.3-1.3,0.3v-0.3c0.3,0,1.2,0,1.8-0.6c0.2,0,0.2,0,0.2,0.3V140.8z"/>
		<path class="st7" d="M237.8,144.1h-1.4v-0.4h1v-9.2h-1v-0.4h1.4V144.1z"/>
	</g>
	<line class="st2" x1="249.6" y1="117.8" x2="320.5" y2="117.8"/>
	<polyline points="275.4,150.9 270.8,153.2 275.4,155.5 274.2,153.2 	"/>
	<line class="st2" x1="274.2" y1="153.2" x2="295.6" y2="153.2"/>
	<g>
		<path class="st1" d="M295,138.2c0,0.1,0,0.2,0,0.2c0,0.2,0.1,0.2,0.4,0.2c0.3,0,0.4,0,0.6,0c0.3,0,0.3,0,0.3,0.1
			c0,0.2-0.1,0.2-0.2,0.2c-0.3,0-0.6,0-0.9,0c-0.3,0-0.5,0-0.8,0c-0.3,0-0.6,0-0.8,0c-0.3,0-0.5,0-0.8,0c-0.1,0-0.2,0-0.2-0.1
			c0-0.2,0.1-0.2,0.4-0.2c1.1,0,1.1-0.1,1.2-0.5l1.3-5.3c0,0,0-0.1,0-0.2c0-0.1,0-0.1-0.3-0.1h-0.4c-1.5,0-1.7,0.2-2.3,1.7
			c-0.1,0.2-0.1,0.2-0.2,0.2c-0.1,0-0.1,0-0.1-0.1c0,0,0-0.2,0.1-0.2l0.6-1.8c0.1-0.2,0.1-0.2,0.3-0.2h5.5c0.2,0,0.3,0,0.3,0.1
			c0,0,0,0.1,0,0.2l-0.3,1.7c0,0.1,0,0.2-0.1,0.2c-0.1,0-0.1-0.1-0.1-0.1c0,0,0-0.2,0-0.2c0-0.3,0.1-0.6,0.1-0.8
			c0-0.8-0.4-0.8-1.5-0.8c-0.2,0-0.5,0-0.6,0c-0.1,0-0.2,0.1-0.2,0.4L295,138.2z"/>
	</g>
	<polygon class="st2" points="285,135.5 285,142.6 306.3,142.6 306.3,128.4 285,128.4 	"/>
	<polyline points="293.4,123.9 295.6,128.4 297.9,123.9 295.6,125 	"/>
	<path class="st2" d="M295.6,117.8l0,7.2 M295.6,142.6v10.6"/>
	<g>
		<path class="st1" d="M267.3,53.8c-1.8,0-3.3-1.5-3.3-3.3c0-1.8,1.5-3.3,3.3-3.3c1.8,0,3.3,1.5,3.3,3.3
			C270.7,52.3,269.2,53.8,267.3,53.8z M267.1,50.5l-2.1-2.1c-0.5,0.6-0.8,1.3-0.8,2.1c0,0.6,0.2,1.4,0.8,2.1L267.1,50.5z
			 M267.3,50.7l-2.1,2.1c0.8,0.8,1.7,0.8,2.1,0.8c1.3,0,2.1-0.8,2.1-0.8c0,0-0.1-0.1-0.1-0.1L267.3,50.7z M267.3,50.3l2.1-2.1
			c-0.8-0.8-1.7-0.8-2.1-0.8c-1.3,0-2.1,0.8-2.1,0.8c0,0,0.1,0.1,0.1,0.1L267.3,50.3z M267.5,50.5l2.1,2.1c0.5-0.6,0.8-1.3,0.8-2.1
			c0-0.8-0.3-1.6-0.8-2.1L267.5,50.5z"/>
	</g>
	<polyline points="265,42.4 267.3,46.9 269.6,42.4 267.3,43.5 	"/>
	<line class="st2" x1="267.3" y1="43.5" x2="267.3" y2="36.3"/>
	<g>
		<path class="st1" d="M266.7,28.9c0.5-0.6,0.8-1.3,1-2c0-0.2,0-0.2,0.1-0.2c0.1,0,0.1,0.1,0.1,0.1c0,0-0.2,1.2-1.1,2.3
			c-0.1,0.1-0.1,0.1-0.1,0.3c0,0.2,0,1,0.3,1c0,0,0.4,0,0.6-0.5c0-0.1,0.1-0.1,0.1-0.1c0.1,0,0.1,0,0.1,0.1c0,0.2-0.3,0.7-0.8,0.7
			c-0.4,0-0.8-0.3-0.9-0.8c-0.8,0.6-1.5,0.8-2.1,0.8c-1,0-1.6-0.8-1.6-1.7c0-1.4,1.3-2.8,2.7-2.8c0.7,0,1.7,0.5,1.7,2.1V28.9z
			 M266,28.5c0-0.8,0-2.1-1-2.1c-0.3,0-0.9,0.2-1.4,0.9c-0.3,0.5-0.6,1.6-0.6,2.1c0,0.6,0.3,1.1,0.9,1.1c0.4,0,1.2-0.1,2-0.9
			C266,29.5,266,28.9,266,28.5z"/>
	</g>
	<g>
		<path class="st1" d="M270.2,32.2c-1.6,0-1.6-1.9-1.6-2.4c0-0.5,0-2.4,1.6-2.4c0.6,0,1,0.3,1.2,0.6c0.3,0.5,0.4,1,0.4,1.8
			C271.9,30.4,271.9,32.2,270.2,32.2z M271.1,31.2c0.1-0.4,0.1-1,0.1-1.5c0-0.6,0-1.1-0.1-1.5c-0.1-0.4-0.5-0.6-0.9-0.6
			c-0.3,0-0.7,0.1-0.9,0.7c-0.1,0.4-0.1,0.9-0.1,1.4c0,0.5,0,1.1,0.1,1.5c0.1,0.6,0.6,0.8,0.9,0.8C270.5,32,271,31.9,271.1,31.2z"/>
	</g>
	<line class="st2" x1="246" y1="50.5" x2="263.8" y2="50.5"/>
	<polyline points="248.3,23.1 246,18.6 243.8,23.1 246,22 	"/>
	<line class="st2" x1="246" y1="50.5" x2="246" y2="22"/>
	<g>
		<path class="st1" d="M246.1,18.4c-1.8,0-3.3-1.5-3.3-3.3c0-1.8,1.5-3.3,3.3-3.3c1.8,0,3.3,1.5,3.3,3.3
			C249.4,16.9,247.9,18.4,246.1,18.4z M245.9,14.9V12c-1.6,0.1-2.8,1.3-2.9,2.9H245.9z M245.9,15.2H243c0.1,1.7,1.4,2.9,2.9,2.9
			V15.2z M246.2,14.9h3c-0.1-1.7-1.4-2.9-3-2.9V14.9z M246.2,15.2v2.9c1.5-0.1,2.9-1.2,3-2.9H246.2z"/>
	</g>
	<polyline points="238,17.3 242.5,15 238,12.8 239.1,15 	"/>
	<line class="st2" x1="221.2" y1="15" x2="239.1" y2="15"/>
	<polyline points="209.6,17.3 214.2,15 209.6,12.8 210.8,15 	"/>
	<path class="st2" d="M210.8,15h-7.2 M203.5,46.9V15"/>
	<g>
		<path class="st1" d="M217.7,18.4c-1.8,0-3.3-1.5-3.3-3.3c0-1.8,1.5-3.3,3.3-3.3c1.8,0,3.3,1.5,3.3,3.3
			C221,16.9,219.6,18.4,217.7,18.4z M217.5,15l-2.1-2.1c-0.5,0.6-0.8,1.3-0.8,2.1c0,0.6,0.2,1.4,0.8,2.1L217.5,15z M217.7,15.2
			l-2.1,2.1c0.8,0.8,1.7,0.8,2.1,0.8c1.3,0,2.1-0.8,2.1-0.8c0,0-0.1-0.1-0.1-0.1L217.7,15.2z M217.7,14.9l2.1-2.1
			c-0.8-0.8-1.7-0.8-2.1-0.8c-1.3,0-2.1,0.8-2.1,0.8c0,0,0.1,0.1,0.1,0.1L217.7,14.9z M217.9,15l2.1,2.1c0.5-0.6,0.8-1.3,0.8-2.1
			c0-0.8-0.3-1.6-0.8-2.1L217.9,15z"/>
	</g>
	<polyline points="220,23.1 217.7,18.6 215.4,23.1 217.7,22 	"/>
	<line class="st2" x1="217.7" y1="29.2" x2="217.7" y2="22"/>
	<g>
		<path class="st7" d="M214.1,38.1c0,0.1,0,0.1,0,0.2c0,0.2,0.3,0.2,0.6,0.2c0.2,0,0.3,0,0.3,0.1c0,0.2-0.1,0.2-0.2,0.2
			c-0.2,0-0.4,0-0.6,0c-0.2,0-0.4,0-0.6,0c-0.3,0-1,0-1.3,0c0,0-0.1,0-0.1-0.1c0-0.2,0.1-0.2,0.2-0.2c0.6,0,0.8,0,0.9-0.3
			c0-0.1,0.3-1.1,0.7-2.8h-3l-0.7,2.7c0,0.1,0,0.1,0,0.2c0,0.2,0.3,0.2,0.6,0.2c0.2,0,0.3,0,0.3,0.1c0,0.2-0.1,0.2-0.2,0.2
			c-0.2,0-0.4,0-0.6,0c-0.2,0-0.4,0-0.6,0c-0.3,0-1,0-1.3,0c0,0-0.1,0-0.1-0.1c0-0.2,0.1-0.2,0.3-0.2c0.8,0,0.8-0.1,0.9-0.5l1.3-5.4
			c0-0.1,0-0.1,0-0.2c0-0.1-0.1-0.1-0.3-0.2c-0.2,0-0.4,0-0.4,0c-0.2,0-0.3,0-0.3-0.1c0-0.2,0.1-0.2,0.2-0.2c0.3,0,1,0,1.3,0
			c0.3,0,1,0,1.3,0c0,0,0.1,0,0.1,0.1c0,0.2-0.1,0.2-0.3,0.2c-0.7,0-0.7,0.1-0.8,0.5l-0.6,2.3h3l0.6-2.4c0-0.1,0-0.1,0-0.2
			c0-0.1-0.1-0.1-0.3-0.2c-0.2,0-0.4,0-0.4,0c-0.2,0-0.3,0-0.3-0.1c0-0.2,0.1-0.2,0.2-0.2c0.3,0,1,0,1.3,0c0.3,0,1,0,1.3,0
			c0,0,0.1,0,0.1,0.1c0,0.2-0.1,0.2-0.3,0.2c-0.7,0-0.7,0.1-0.8,0.5L214.1,38.1z"/>
	</g>
	<g>
		<path class="st7" d="M218.2,41.3v-10h1.4v0.4h-1v9.2h1v0.4H218.2z"/>
		<path class="st7" d="M224,37.9c-0.4,0.9-1.2,1.2-1.7,1.2c-0.5,0-1.2-0.2-1.6-1c-0.4-0.8-0.4-1.7-0.4-2.4c0-0.8,0-1.6,0.4-2.3
			c0.4-0.9,1.1-1.2,1.7-1.2c0.4,0,1.2,0.2,1.7,1.1c0.3,0.7,0.4,1.5,0.4,2.3C224.3,36.4,224.3,37.2,224,37.9z M223.4,37.6
			c0.1-0.6,0.1-1.3,0.1-2.1c0-0.6,0-1.4-0.1-1.9c-0.2-1-0.8-1.2-1.2-1.2c-0.2,0-1,0.1-1.2,1.3c-0.1,0.5-0.1,1.2-0.1,1.8
			c0,0.6,0,1.5,0.1,2.1c0.2,1,0.8,1.2,1.2,1.2C222.7,38.8,223.2,38.5,223.4,37.6z"/>
	</g>
	<g>
		<path class="st7" d="M226.4,41.3H225v-0.4h1v-9.2h-1v-0.4h1.4V41.3z"/>
	</g>
	<line class="st2" x1="249.6" y1="15" x2="320.5" y2="15"/>
	<polyline points="275.4,48.2 270.8,50.5 275.4,52.7 274.2,50.5 	"/>
	<line class="st2" x1="274.2" y1="50.5" x2="295.6" y2="50.5"/>
	<g>
		<path class="st1" d="M295,35.5c0,0.1,0,0.2,0,0.2c0,0.2,0.1,0.2,0.4,0.2c0.3,0,0.4,0,0.6,0c0.3,0,0.3,0,0.3,0.1
			c0,0.2-0.1,0.2-0.2,0.2c-0.3,0-0.6,0-0.9,0c-0.3,0-0.5,0-0.8,0c-0.3,0-0.6,0-0.8,0c-0.3,0-0.5,0-0.8,0c-0.1,0-0.2,0-0.2-0.1
			c0-0.2,0.1-0.2,0.4-0.2c1.1,0,1.1-0.1,1.2-0.5l1.3-5.3c0,0,0-0.1,0-0.2c0-0.1,0-0.1-0.3-0.1h-0.4c-1.5,0-1.7,0.2-2.3,1.7
			c-0.1,0.2-0.1,0.2-0.2,0.2c-0.1,0-0.1,0-0.1-0.1c0,0,0-0.2,0.1-0.2l0.6-1.8c0.1-0.2,0.1-0.2,0.3-0.2h5.5c0.2,0,0.3,0,0.3,0.1
			c0,0,0,0.1,0,0.2l-0.3,1.7c0,0.1,0,0.2-0.1,0.2c-0.1,0-0.1-0.1-0.1-0.1c0,0,0-0.1,0-0.2c0-0.3,0.1-0.6,0.1-0.8
			c0-0.8-0.4-0.8-1.5-0.8c-0.2,0-0.5,0-0.6,0c-0.1,0-0.2,0.1-0.2,0.4L295,35.5z"/>
	</g>
	<polygon class="st2" points="285,32.7 285,39.8 306.3,39.8 306.3,25.7 285,25.7 	"/>
	<polyline points="293.4,21.1 295.6,25.7 297.9,21.1 295.6,22.3 	"/>
	<path class="st2" d="M295.6,15l0,7.2 M295.6,39.8v10.6"/>
	<polyline points="318.2,42.4 320.5,46.9 322.7,42.4 320.5,43.5 	"/>
	<line class="st2" x1="320.5" y1="15" x2="320.5" y2="43.5"/>
</g>
</svg>
