<?xml version="1.0" encoding="utf-8"?>
<!-- Generator: Adobe Illustrator 22.1.0, SVG Export Plug-In . SVG Version: 6.00 Build 0)  -->
<svg version="1.1" id="Layer_1" xmlns="http://www.w3.org/2000/svg" xmlns:xlink="http://www.w3.org/1999/xlink" x="0px" y="0px"
	 viewBox="0 0 367.2 302.3" style="enable-background:new 0 0 367.2 302.3;" xml:space="preserve">
<style type="text/css">
	.st0{fill:none;stroke:#DFDFDF;stroke-width:0.4998;stroke-linejoin:round;stroke-miterlimit:10;}
	.st1{fill:none;stroke:#262626;stroke-width:0.4998;stroke-linecap:square;stroke-linejoin:round;stroke-miterlimit:10;}
	.st2{fill:#4A4A49;}
	.st3{fill:none;stroke:#262626;stroke-width:0.4998;stroke-linejoin:round;stroke-miterlimit:10;}
	.st4{fill:none;stroke:#000000;stroke-width:3;stroke-linejoin:round;stroke-miterlimit:10;}
	.st5{fill:#262626;}
</style>
<g>
	<path class="st0" d="M36.9,270.9V14.1 M87.8,270.9V14.1 M138.7,270.9V14.1 M189.6,270.9V14.1 M240.5,270.9V14.1 M291.4,270.9V14.1
		 M342.3,270.9V14.1 M362.7,270.9H36.9 M362.7,238.8H36.9 M362.7,206.7H36.9 M362.7,174.6H36.9 M362.7,142.5H36.9 M362.7,110.4H36.9
		 M362.7,78.3H36.9 M362.7,46.2H36.9 M362.7,14.1H36.9"/>
	<path class="st1" d="M36.9,270.9V14.1 M362.7,270.9V14.1 M36.9,270.9h3.3 M36.9,238.8h3.3 M36.9,206.7h3.3 M36.9,174.6h3.3
		 M36.9,142.5h3.3 M36.9,110.4h3.3 M36.9,78.3h3.3 M36.9,46.2h3.3 M36.9,14.1h3.3 M362.7,270.9h-3.3 M362.7,238.8h-3.3 M362.7,206.7
		h-3.3 M362.7,174.6h-3.3 M362.7,142.5h-3.3 M362.7,110.4h-3.3 M362.7,78.3h-3.3 M362.7,46.2h-3.3 M362.7,14.1h-3.3"/>
	<g>
		<path class="st2" d="M15.9,271.6h2.5v0.9h-2.5V271.6z"/>
		<path class="st2" d="M19.8,274.1c-0.4-0.6-0.6-1.5-0.6-2.7s0.2-2,0.6-2.7c0.4-0.6,1-0.9,1.8-0.9c0.8,0,1.4,0.3,1.8,0.9
			c0.4,0.6,0.6,1.5,0.6,2.7s-0.2,2-0.6,2.7s-1,0.9-1.8,0.9C20.8,275,20.2,274.7,19.8,274.1z M22.7,273.5c0.2-0.5,0.4-1.2,0.4-2.1
			c0-0.9-0.1-1.6-0.4-2.1c-0.2-0.5-0.6-0.7-1.1-0.7c-0.5,0-0.9,0.2-1.1,0.7c-0.2,0.5-0.4,1.2-0.4,2.1c0,0.9,0.1,1.6,0.4,2.1
			s0.6,0.7,1.1,0.7C22.1,274.2,22.4,274,22.7,273.5z"/>
		<path class="st2" d="M25.2,273.8h1v1.1h-1V273.8z"/>
		<path class="st2" d="M32.2,269.9c0,0.5-0.1,0.9-0.4,1.3c-0.3,0.3-0.8,0.7-1.5,1.1c-0.8,0.4-1.3,0.8-1.6,1.2
			c-0.1,0.2-0.2,0.3-0.3,0.5h3.8v0.9h-4.8v0c0-0.7,0.2-1.3,0.6-1.8c0.4-0.5,1.1-1,2.1-1.5c0.5-0.3,0.8-0.5,1-0.8
			c0.2-0.2,0.3-0.5,0.3-0.9c0-0.4-0.1-0.7-0.4-0.9c-0.3-0.2-0.6-0.4-1-0.4c-0.4,0-0.8,0.1-1,0.4s-0.4,0.7-0.4,1.3h-0.9
			c0-0.8,0.2-1.4,0.6-1.8c0.4-0.4,1-0.7,1.8-0.7c0.7,0,1.2,0.2,1.6,0.6C32,268.7,32.2,269.2,32.2,269.9z"/>
	</g>
	<g>
		<path class="st2" d="M15.9,239.5h2.5v0.9h-2.5V239.5z"/>
		<path class="st2" d="M19.8,242c-0.4-0.6-0.6-1.5-0.6-2.7s0.2-2,0.6-2.7c0.4-0.6,1-0.9,1.8-0.9c0.8,0,1.4,0.3,1.8,0.9
			c0.4,0.6,0.6,1.5,0.6,2.7s-0.2,2-0.6,2.7s-1,0.9-1.8,0.9C20.8,242.9,20.2,242.6,19.8,242z M22.7,241.4c0.2-0.5,0.4-1.2,0.4-2.1
			c0-0.9-0.1-1.6-0.4-2.1c-0.2-0.5-0.6-0.7-1.1-0.7c-0.5,0-0.9,0.2-1.1,0.7c-0.2,0.5-0.4,1.2-0.4,2.1c0,0.9,0.1,1.6,0.4,2.1
			s0.6,0.7,1.1,0.7C22.1,242.1,22.4,241.9,22.7,241.4z"/>
		<path class="st2" d="M25.2,241.7h1v1.1h-1V241.7z"/>
		<path class="st2" d="M29.8,237.7h-1.6V237c0.5,0,0.9-0.1,1.2-0.3c0.3-0.2,0.5-0.6,0.7-1h0.7v7h-0.5h-0.5V237.7z"/>
	</g>
	<g>
		<path class="st2" d="M27.9,209.9c-0.4-0.6-0.6-1.5-0.6-2.7s0.2-2,0.6-2.7c0.4-0.6,1-0.9,1.8-0.9c0.8,0,1.4,0.3,1.8,0.9
			c0.4,0.6,0.6,1.5,0.6,2.7s-0.2,2-0.6,2.7s-1,0.9-1.8,0.9C28.9,210.8,28.3,210.5,27.9,209.9z M30.7,209.3c0.2-0.5,0.4-1.2,0.4-2.1
			c0-0.9-0.1-1.6-0.4-2.1c-0.2-0.5-0.6-0.7-1.1-0.7c-0.5,0-0.9,0.2-1.1,0.7c-0.2,0.5-0.4,1.2-0.4,2.1c0,0.9,0.1,1.6,0.4,2.1
			s0.6,0.7,1.1,0.7C30.1,210,30.5,209.8,30.7,209.3z"/>
	</g>
	<g>
		<path class="st2" d="M19.4,177.8c-0.4-0.6-0.6-1.5-0.6-2.7s0.2-2,0.6-2.7c0.4-0.6,1-0.9,1.8-0.9c0.8,0,1.4,0.3,1.8,0.9
			c0.4,0.6,0.6,1.5,0.6,2.7s-0.2,2-0.6,2.7s-1,0.9-1.8,0.9C20.5,178.7,19.9,178.4,19.4,177.8z M22.3,177.2c0.2-0.5,0.4-1.2,0.4-2.1
			c0-0.9-0.1-1.6-0.4-2.1c-0.2-0.5-0.6-0.7-1.1-0.7c-0.5,0-0.9,0.2-1.1,0.7c-0.2,0.5-0.4,1.2-0.4,2.1c0,0.9,0.1,1.6,0.4,2.1
			s0.6,0.7,1.1,0.7C21.7,177.9,22.1,177.7,22.3,177.2z"/>
		<path class="st2" d="M24.9,177.5h1v1.1h-1V177.5z"/>
	</g>
	<g>
		<path class="st2" d="M28.6,173.5H27v-0.7c0.5,0,0.9-0.1,1.2-0.3c0.3-0.2,0.5-0.6,0.7-1h0.7v7h-0.5h-0.5V173.5z"/>
	</g>
	<g>
		<path class="st2" d="M19.4,145.7c-0.4-0.6-0.6-1.5-0.6-2.7s0.2-2,0.6-2.7c0.4-0.6,1-0.9,1.8-0.9c0.8,0,1.4,0.3,1.8,0.9
			c0.4,0.6,0.6,1.5,0.6,2.7s-0.2,2-0.6,2.7s-1,0.9-1.8,0.9C20.5,146.6,19.9,146.3,19.4,145.7z M22.3,145.1c0.2-0.5,0.4-1.2,0.4-2.1
			c0-0.9-0.1-1.6-0.4-2.1c-0.2-0.5-0.6-0.7-1.1-0.7c-0.5,0-0.9,0.2-1.1,0.7c-0.2,0.5-0.4,1.2-0.4,2.1c0,0.9,0.1,1.6,0.4,2.1
			s0.6,0.7,1.1,0.7C21.7,145.8,22.1,145.6,22.3,145.1z"/>
		<path class="st2" d="M24.9,145.4h1v1.1h-1V145.4z"/>
	</g>
	<g>
		<path class="st2" d="M31,141.5c0,0.5-0.1,0.9-0.4,1.3s-0.8,0.7-1.5,1.1c-0.8,0.4-1.3,0.8-1.6,1.2c-0.1,0.2-0.2,0.3-0.3,0.5H31v0.9
			h-4.8v0c0-0.7,0.2-1.3,0.6-1.8s1.1-1,2.1-1.5c0.5-0.3,0.8-0.5,1-0.8c0.2-0.2,0.3-0.5,0.3-0.9c0-0.4-0.1-0.7-0.4-0.9
			s-0.6-0.4-1-0.4c-0.4,0-0.8,0.1-1,0.4c-0.2,0.3-0.4,0.7-0.4,1.3h-0.9c0-0.8,0.2-1.4,0.6-1.8c0.4-0.4,1-0.7,1.8-0.7
			c0.7,0,1.2,0.2,1.6,0.6C30.8,140.3,31,140.8,31,141.5z"/>
	</g>
	<g>
		<path class="st2" d="M19.4,113.6c-0.4-0.6-0.6-1.5-0.6-2.7s0.2-2,0.6-2.7c0.4-0.6,1-0.9,1.8-0.9c0.8,0,1.4,0.3,1.8,0.9
			c0.4,0.6,0.6,1.5,0.6,2.7s-0.2,2-0.6,2.7s-1,0.9-1.8,0.9C20.5,114.5,19.9,114.2,19.4,113.6z M22.3,113c0.2-0.5,0.4-1.2,0.4-2.1
			c0-0.9-0.1-1.6-0.4-2.1c-0.2-0.5-0.6-0.7-1.1-0.7c-0.5,0-0.9,0.2-1.1,0.7c-0.2,0.5-0.4,1.2-0.4,2.1c0,0.9,0.1,1.6,0.4,2.1
			s0.6,0.7,1.1,0.7C21.7,113.7,22.1,113.5,22.3,113z"/>
		<path class="st2" d="M24.9,113.3h1v1.1h-1V113.3z"/>
	</g>
	<g>
		<path class="st2" d="M30,109.2c0-0.3-0.1-0.6-0.4-0.8s-0.6-0.3-1-0.3c-0.4,0-0.7,0.1-1,0.4c-0.2,0.3-0.3,0.6-0.4,1.1h-0.9
			c0-0.7,0.2-1.3,0.6-1.7c0.4-0.4,0.9-0.6,1.6-0.6c0.7,0,1.2,0.2,1.6,0.5c0.4,0.3,0.6,0.8,0.6,1.3c0,0.5-0.2,1-0.6,1.3
			c-0.1,0.1-0.2,0.1-0.3,0.2c0.2,0.1,0.3,0.2,0.4,0.3c0.4,0.3,0.7,0.8,0.7,1.4c0,0.7-0.2,1.2-0.7,1.6s-1,0.6-1.8,0.6
			c-0.8,0-1.4-0.2-1.8-0.6s-0.6-1-0.7-1.7h0.9c0.1,0.5,0.2,0.9,0.4,1.2c0.2,0.2,0.6,0.4,1.1,0.4c0.4,0,0.8-0.1,1.1-0.4
			c0.3-0.2,0.4-0.6,0.4-1c0-0.4-0.1-0.7-0.4-1c-0.2-0.2-0.5-0.3-0.9-0.4c-0.2,0-0.3,0-0.5,0s-0.2,0-0.3,0v-0.8c0.1,0,0.2,0,0.3,0
			s0.3,0,0.4,0c0.3,0,0.5-0.1,0.7-0.3C29.9,109.8,30,109.5,30,109.2z"/>
	</g>
	<g>
		<path class="st2" d="M19.4,81.5c-0.4-0.6-0.6-1.5-0.6-2.7s0.2-2,0.6-2.7c0.4-0.6,1-0.9,1.8-0.9c0.8,0,1.4,0.3,1.8,0.9
			c0.4,0.6,0.6,1.5,0.6,2.7s-0.2,2-0.6,2.7s-1,0.9-1.8,0.9C20.5,82.4,19.9,82.1,19.4,81.5z M22.3,80.9c0.2-0.5,0.4-1.2,0.4-2.1
			c0-0.9-0.1-1.6-0.4-2.1c-0.2-0.5-0.6-0.7-1.1-0.7c-0.5,0-0.9,0.2-1.1,0.7c-0.2,0.5-0.4,1.2-0.4,2.1c0,0.9,0.1,1.6,0.4,2.1
			s0.6,0.7,1.1,0.7C21.7,81.6,22.1,81.4,22.3,80.9z"/>
		<path class="st2" d="M24.9,81.1h1v1.1h-1V81.1z"/>
	</g>
	<g>
		<path class="st2" d="M26.2,80.5v-0.4v-0.4l3.3-4.5h0.4h0.4v4.6h1v0.8h-1v1.7h-0.9v-1.7H26.2z M29.3,79.8v-3.2l-2.2,3.1l0,0.1H29.3
			z"/>
	</g>
	<g>
		<path class="st2" d="M19.4,49.4c-0.4-0.6-0.6-1.5-0.6-2.7s0.2-2,0.6-2.7c0.4-0.6,1-0.9,1.8-0.9c0.8,0,1.4,0.3,1.8,0.9
			c0.4,0.6,0.6,1.5,0.6,2.7s-0.2,2-0.6,2.7s-1,0.9-1.8,0.9C20.5,50.3,19.9,50,19.4,49.4z M22.3,48.8c0.2-0.5,0.4-1.2,0.4-2.1
			c0-0.9-0.1-1.6-0.4-2.1c-0.2-0.5-0.6-0.7-1.1-0.7c-0.5,0-0.9,0.2-1.1,0.7c-0.2,0.5-0.4,1.2-0.4,2.1c0,0.9,0.1,1.6,0.4,2.1
			s0.6,0.7,1.1,0.7C21.7,49.5,22.1,49.3,22.3,48.8z"/>
		<path class="st2" d="M24.9,49h1v1.1h-1V49z"/>
	</g>
	<g>
		<path class="st2" d="M31.1,47.8c0,0.7-0.2,1.3-0.7,1.8s-1,0.7-1.7,0.7c-0.7,0-1.3-0.2-1.7-0.5s-0.7-0.8-0.7-1.5h0.9
			c0,0.4,0.2,0.7,0.5,0.9c0.3,0.2,0.6,0.3,1.1,0.3c0.4,0,0.8-0.1,1-0.4s0.4-0.7,0.4-1.1c0-0.5-0.1-0.9-0.4-1.2s-0.7-0.4-1.1-0.4
			c-0.3,0-0.5,0.1-0.7,0.2s-0.4,0.3-0.5,0.5l-0.7,0l0.5-3.8h3.6v0.9h-3L27.4,46l0,0c0.4-0.3,0.8-0.4,1.2-0.4c0.7,0,1.3,0.2,1.8,0.6
			C30.9,46.6,31.1,47.2,31.1,47.8z"/>
	</g>
	<g>
		<path class="st2" d="M19.4,17.3c-0.4-0.6-0.6-1.5-0.6-2.7s0.2-2,0.6-2.7c0.4-0.6,1-0.9,1.8-0.9c0.8,0,1.4,0.3,1.8,0.9
			c0.4,0.6,0.6,1.5,0.6,2.7s-0.2,2-0.6,2.7s-1,0.9-1.8,0.9C20.5,18.2,19.9,17.9,19.4,17.3z M22.3,16.7c0.2-0.5,0.4-1.2,0.4-2.1
			c0-0.9-0.1-1.6-0.4-2.1c-0.2-0.5-0.6-0.7-1.1-0.7c-0.5,0-0.9,0.2-1.1,0.7c-0.2,0.5-0.4,1.2-0.4,2.1c0,0.9,0.1,1.6,0.4,2.1
			s0.6,0.7,1.1,0.7C21.7,17.4,22.1,17.2,22.3,16.7z"/>
		<path class="st2" d="M24.9,17h1V18h-1V17z"/>
	</g>
	<g>
		<path class="st2" d="M28.9,11c0.6,0,1.1,0.2,1.5,0.5c0.4,0.3,0.6,0.8,0.6,1.4h-0.9c0-0.3-0.2-0.6-0.4-0.8
			c-0.2-0.2-0.5-0.3-0.8-0.3c-0.5,0-1,0.3-1.3,0.8c-0.3,0.4-0.4,1.1-0.4,1.8c0.4-0.6,1-0.8,1.7-0.8c0.7,0,1.2,0.2,1.6,0.6
			s0.6,1,0.6,1.7s-0.2,1.3-0.7,1.7s-1,0.6-1.7,0.6c-0.8,0-1.4-0.3-1.8-0.9s-0.6-1.4-0.6-2.5c0-1.2,0.2-2.2,0.7-2.8
			C27.5,11.3,28.1,11,28.9,11z M27.4,15.9c0,0.5,0.1,0.8,0.4,1.1s0.6,0.4,1,0.4s0.8-0.1,1-0.4s0.4-0.7,0.4-1.1s-0.1-0.8-0.4-1.1
			s-0.6-0.4-1-0.4s-0.8,0.1-1,0.4C27.5,15.1,27.4,15.4,27.4,15.9z"/>
	</g>
	<g>
		<path class="st2" d="M1.6,164v-0.6v-0.6l7.9-2.8v0.6v0.6l-2.3,0.8v3.2l2.3,0.8v0.5v0.6L1.6,164z M6.2,164.7v-2.5l-3.5,1.2v0
			L6.2,164.7z"/>
		<path class="st2" d="M3.7,159.1v-0.5v-0.5h0.9l-0.3-0.2c-0.5-0.4-0.8-1-0.8-1.6c0-0.5,0.2-0.9,0.5-1.2c0.1-0.1,0.3-0.2,0.5-0.3
			l-0.2-0.2c-0.5-0.4-0.7-0.9-0.7-1.5c0-0.6,0.2-1.1,0.5-1.4c0.3-0.3,0.8-0.5,1.4-0.5h4v0.5v0.5H5.7c-0.4,0-0.8,0.1-1,0.3
			c-0.2,0.2-0.3,0.4-0.3,0.8c0,0.4,0.2,0.8,0.5,1c0.3,0.2,0.8,0.4,1.3,0.4h3.2v0.5v0.5H5.5c-0.4,0-0.6,0.1-0.8,0.2
			c-0.2,0.2-0.3,0.4-0.3,0.7c0,0.4,0.2,0.8,0.5,1.1c0.4,0.3,0.8,0.4,1.4,0.4h3.1v0.5v0.5H3.7z"/>
		<path class="st2" d="M3.7,150v-0.5v-0.5h0.8l-0.1,0c-0.6-0.4-0.9-1-0.9-1.6c0-0.8,0.3-1.3,0.8-1.8c0.5-0.4,1.2-0.7,2.1-0.7
			c1,0,1.8,0.2,2.4,0.7c0.6,0.4,0.9,1.1,0.9,1.8c0,0.6-0.2,1.2-0.7,1.5l0,0h2.9v0.5v0.5H3.7z M8.8,147.5c0-0.5-0.2-0.9-0.6-1.1
			c-0.4-0.3-0.9-0.4-1.7-0.4c-0.7,0-1.3,0.1-1.6,0.4c-0.3,0.3-0.5,0.6-0.5,1.2c0,0.5,0.2,0.9,0.6,1.2c0.4,0.2,1,0.4,1.9,0.4
			c0.6,0,1.1-0.1,1.4-0.4C8.6,148.3,8.8,148,8.8,147.5z"/>
		<path class="st2" d="M1.6,143.8v-0.5v-0.5h7.9v0.5v0.5H1.6z"/>
		<path class="st2" d="M1.6,141.3v-1h1.1v1H1.6z M3.7,141.3v-0.5v-0.5h5.7v0.5v0.5H3.7z"/>
		<path class="st2" d="M9.4,136.8c0.1,0.3,0.1,0.6,0.1,0.7c0,0.4-0.1,0.7-0.3,0.9c-0.2,0.2-0.5,0.3-1,0.3H4.5v0.8H3.7v-0.8H2.1v-1
			h1.6v-0.9h0.8v0.9h3.8c0.1,0,0.2-0.1,0.3-0.2s0.1-0.2,0.1-0.4v-0.3H9.4z"/>
		<path class="st2" d="M7.4,134.8c0.5,0,0.8-0.1,1-0.3c0.2-0.2,0.3-0.5,0.3-0.9c0-0.5-0.2-0.8-0.5-1.1c-0.4-0.3-0.8-0.4-1.5-0.4H3.7
			v-0.5v-0.5h5.7v0.5v0.5H8.6c0.1,0.1,0.2,0.1,0.3,0.2c0.5,0.4,0.7,0.9,0.7,1.5c0,0.7-0.2,1.1-0.5,1.5s-0.8,0.5-1.5,0.5H3.7v-0.5
			v-0.5H7.4z"/>
		<path class="st2" d="M9.6,127.5c0,0.8-0.3,1.4-0.9,1.8s-1.4,0.7-2.3,0.7c-0.9,0-1.6-0.2-2.1-0.7c-0.5-0.4-0.8-1-0.8-1.7
			c0-0.7,0.3-1.3,0.9-1.7l0.1-0.1h-3v-0.5v-0.5h7.9v0.4v0.5H8.7l0.2,0.1C9.4,126.4,9.6,126.9,9.6,127.5z M4.4,127.5
			c0,0.5,0.2,0.9,0.5,1.2c0.3,0.3,0.9,0.4,1.6,0.4c0.7,0,1.3-0.1,1.6-0.4c0.4-0.3,0.6-0.7,0.6-1.2c0-0.5-0.2-0.8-0.5-1.1
			c-0.4-0.3-0.8-0.4-1.4-0.4c-0.8,0-1.4,0.1-1.8,0.4C4.6,126.6,4.4,127,4.4,127.5z"/>
		<path class="st2" d="M9.6,121.3c0,0.8-0.3,1.5-0.8,1.9s-1.2,0.7-2.1,0.7c-1,0-1.7-0.2-2.3-0.7c-0.6-0.5-0.9-1.2-0.9-2
			c0-0.8,0.3-1.4,0.8-1.8s1.3-0.7,2.2-0.7l0.3,0v4.2c0.6,0,1-0.2,1.3-0.4c0.4-0.3,0.5-0.7,0.5-1.3c0-0.4-0.1-0.7-0.3-1
			c-0.2-0.3-0.5-0.4-0.8-0.5v-1c0.6,0.1,1.1,0.4,1.4,0.9C9.4,120,9.6,120.6,9.6,121.3z M6.1,119.7c-0.5,0-0.9,0.2-1.2,0.4
			c-0.3,0.3-0.5,0.6-0.5,1.1c0,0.5,0.2,0.9,0.6,1.2c0.3,0.2,0.7,0.4,1.2,0.4V119.7z"/>
	</g>
	<g>
		<path d="M153.1,3.6c0.3,0.1,0.5,0.3,0.7,0.6c0.2,0.2,0.3,0.4,0.3,0.7c0,0.2,0.1,0.6,0.1,1.1v3.4h-1.6V5.9c0-0.3-0.1-0.6-0.2-0.8
			c-0.1-0.3-0.4-0.4-0.8-0.4c-0.4,0-0.7,0.1-0.9,0.4c-0.2,0.3-0.3,0.7-0.3,1.2v3.2h-1.5V1.6h1.5v2.8c0.2-0.3,0.5-0.6,0.8-0.7
			c0.3-0.1,0.6-0.2,0.9-0.2C152.5,3.4,152.8,3.5,153.1,3.6z"/>
		<path d="M155.6,1.5h2.7v1.1H157v7.9h1.2v1.1h-2.7V1.5z"/>
		<path d="M164,3.9c0.4,0.3,0.6,0.8,0.6,1.6v3.9H163V5.9c0-0.3,0-0.5-0.1-0.7c-0.1-0.3-0.4-0.5-0.9-0.5c-0.5,0-0.9,0.2-1.1,0.7
			c-0.1,0.2-0.1,0.5-0.1,0.9v3.2h-1.5V3.6h1.5v0.9c0.2-0.3,0.4-0.5,0.6-0.6c0.3-0.2,0.7-0.4,1.2-0.4C163.1,3.5,163.6,3.6,164,3.9z"
			/>
		<path d="M165.5,10.5h1.2V2.6h-1.2V1.5h2.7v10.1h-2.7V10.5z"/>
		<path d="M176.3,3.6h1.6l-2.1,5.9h-1.6l-2.1-5.9h1.7l1.2,4.3L176.3,3.6z"/>
		<path d="M180.4,2.9h-1.6V1.5h1.6V2.9z M178.8,3.6h1.6v5.9h-1.6V3.6z"/>
		<path d="M184.2,5.9c0.3,0,0.5-0.1,0.6-0.1c0.2-0.1,0.3-0.2,0.3-0.4c0-0.2-0.1-0.4-0.3-0.5c-0.2-0.1-0.4-0.1-0.7-0.1
			c-0.4,0-0.6,0.1-0.8,0.3c-0.1,0.1-0.2,0.3-0.2,0.5h-1.5c0-0.5,0.2-0.9,0.4-1.3c0.4-0.5,1.1-0.8,2.1-0.8c0.6,0,1.2,0.1,1.7,0.4
			c0.5,0.3,0.8,0.7,0.8,1.4V8c0,0.2,0,0.4,0,0.7c0,0.2,0,0.3,0.1,0.4c0,0.1,0.1,0.1,0.2,0.2v0.2h-1.7c0-0.1-0.1-0.2-0.1-0.3
			c0-0.1,0-0.2,0-0.4c-0.2,0.2-0.5,0.4-0.7,0.6c-0.3,0.2-0.7,0.3-1.1,0.3c-0.5,0-1-0.2-1.3-0.5c-0.3-0.3-0.5-0.7-0.5-1.3
			c0-0.7,0.3-1.2,0.8-1.6c0.3-0.2,0.8-0.3,1.4-0.4L184.2,5.9z M185.1,6.6c-0.1,0.1-0.2,0.1-0.3,0.1c-0.1,0-0.2,0.1-0.4,0.1l-0.3,0.1
			c-0.3,0.1-0.6,0.1-0.7,0.2c-0.2,0.1-0.4,0.4-0.4,0.6c0,0.3,0.1,0.5,0.2,0.6c0.1,0.1,0.3,0.2,0.5,0.2c0.3,0,0.6-0.1,0.9-0.3
			c0.3-0.2,0.4-0.5,0.4-1.1V6.6z"/>
		<path d="M192.7,9.5H191V1.5h1.6V9.5z"/>
		<path d="M194.2,1.6h5.6v1.4h-4v1.8h3.5v1.4h-3.5v3.3h-1.6V1.6z"/>
		<path d="M200.9,1.6h5.6v1.4h-4v1.8h3.5v1.4h-3.5v3.3h-1.6V1.6z"/>
		<path d="M213.4,1.5v1.4H211v6.5h-1.7V2.9H207V1.5H213.4z"/>
		<path d="M222.2,8.7c-0.5,0.6-1.2,0.9-2.3,0.9c-1,0-1.8-0.3-2.3-0.9s-0.7-1.3-0.7-2.2c0-0.8,0.2-1.6,0.7-2.2
			c0.5-0.6,1.2-0.9,2.3-0.9c1,0,1.8,0.3,2.3,0.9c0.5,0.6,0.7,1.4,0.7,2.2C222.9,7.4,222.7,8.1,222.2,8.7z M221,7.9
			c0.2-0.3,0.4-0.8,0.4-1.4s-0.1-1-0.4-1.4s-0.6-0.5-1-0.5s-0.8,0.2-1,0.5c-0.2,0.3-0.4,0.8-0.4,1.4s0.1,1,0.4,1.4
			c0.2,0.3,0.6,0.5,1,0.5S220.7,8.2,221,7.9z"/>
		<path d="M226.4,1.5c0.1,0,0.2,0,0.3,0v1.2c-0.1,0-0.2,0-0.4,0s-0.3,0-0.4,0.1s-0.1,0.2-0.1,0.3c0,0.1,0,0.3,0,0.5h1v1.1h-1v4.7
			h-1.5V4.7h-0.9V3.7h0.8V3.3c0-0.6,0.1-1.1,0.3-1.3c0.2-0.4,0.8-0.5,1.6-0.5C226.3,1.5,226.4,1.5,226.4,1.5z"/>
		<path d="M230.9,9.5V1.5h1.6v3h3.1v-3h1.6v7.9h-1.6V5.9h-3.1v3.5H230.9z"/>
		<path d="M238.7,1.5h2.7v1.1h-1.2v7.9h1.2v1.1h-2.7V1.5z"/>
		<path d="M242.3,1.6h1.5v4.3l1.9-2.2h1.9l-2.1,2.2l2.2,3.6h-1.9L244.5,7l-0.6,0.7v1.8h-1.5V1.6z"/>
	</g>
	<g>
		<path d="M248.1,10.5h1.2V2.6h-1.2V1.5h2.7v10.1h-2.7V10.5z"/>
	</g>
	<line class="st3" x1="36.9" y1="206.7" x2="362.7" y2="206.7"/>
	<path d="M36.9,198.5c0.8,0,1.5,0.7,1.5,1.5l0,0c0,0.8-0.7,1.5-1.5,1.5s-1.5-0.7-1.5-1.5C35.4,199.2,36,198.5,36.9,198.5L36.9,198.5
		z M36.9,195.5c-2.5,0-4.5,2-4.5,4.5s2,4.5,4.5,4.5s4.5-2,4.5-4.5l0,0C41.4,197.5,39.3,195.5,36.9,195.5L36.9,195.5z"/>
	<path d="M47,212.6c0.8,0,1.5,0.7,1.5,1.5l0,0c0,0.8-0.7,1.5-1.5,1.5c-0.8,0-1.5-0.7-1.5-1.5S46.2,212.6,47,212.6L47,212.6z
		 M47,209.6c-2.5,0-4.5,2-4.5,4.5s2,4.5,4.5,4.5c2.5,0,4.5-2,4.5-4.5l0,0C51.5,211.7,49.5,209.6,47,209.6L47,209.6z"/>
	<path d="M57.2,211.4c0.8,0,1.5,0.7,1.5,1.5l0,0c0,0.8-0.7,1.5-1.5,1.5c-0.8,0-1.5-0.7-1.5-1.5C55.7,212.1,56.4,211.4,57.2,211.4
		L57.2,211.4z M57.2,208.4c-2.5,0-4.5,2-4.5,4.5c0,2.5,2,4.5,4.5,4.5s4.5-2,4.5-4.5l0,0C61.7,210.4,59.7,208.4,57.2,208.4
		L57.2,208.4z"/>
	<path d="M67.4,196.8c0.8,0,1.5,0.7,1.5,1.5l0,0c0,0.8-0.7,1.5-1.5,1.5c-0.8,0-1.5-0.7-1.5-1.5C65.9,197.5,66.6,196.8,67.4,196.8
		L67.4,196.8z M67.4,193.8c-2.5,0-4.5,2-4.5,4.5s2,4.5,4.5,4.5s4.5-2,4.5-4.5l0,0C71.9,195.8,69.9,193.8,67.4,193.8L67.4,193.8z"/>
	<path d="M77.6,199.4c0.8,0,1.5,0.7,1.5,1.5l0,0c0,0.8-0.7,1.5-1.5,1.5c-0.8,0-1.5-0.7-1.5-1.5S76.7,199.4,77.6,199.4L77.6,199.4z
		 M77.6,196.4c-2.5,0-4.5,2-4.5,4.5s2,4.5,4.5,4.5c2.5,0,4.5-2,4.5-4.5l0,0C82.1,198.4,80.1,196.4,77.6,196.4L77.6,196.4z"/>
	<path d="M87.8,214.9c0.8,0,1.5,0.7,1.5,1.5l0,0c0,0.8-0.7,1.5-1.5,1.5s-1.5-0.7-1.5-1.5C86.3,215.6,86.9,214.9,87.8,214.9
		L87.8,214.9z M87.8,211.9c-2.5,0-4.5,2-4.5,4.5c0,2.5,2,4.5,4.5,4.5s4.5-2,4.5-4.5l0,0C92.3,214,90.2,211.9,87.8,211.9L87.8,211.9z
		"/>
	<path d="M97.9,210.7c0.8,0,1.5,0.7,1.5,1.5l0,0c0,0.8-0.7,1.5-1.5,1.5c-0.8,0-1.5-0.7-1.5-1.5C96.4,211.4,97.1,210.7,97.9,210.7
		L97.9,210.7z M97.9,207.7c-2.5,0-4.5,2-4.5,4.5c0,2.5,2,4.5,4.5,4.5c2.5,0,4.5-2,4.5-4.5l0,0C102.4,209.7,100.4,207.7,97.9,207.7
		L97.9,207.7z"/>
	<path d="M108.1,193.5c0.8,0,1.5,0.7,1.5,1.5l0,0c0,0.8-0.7,1.5-1.5,1.5s-1.5-0.7-1.5-1.5C106.6,194.2,107.3,193.5,108.1,193.5
		L108.1,193.5z M108.1,190.5c-2.5,0-4.5,2-4.5,4.5c0,2.5,2,4.5,4.5,4.5s4.5-2,4.5-4.5l0,0C112.6,192.5,110.6,190.5,108.1,190.5
		L108.1,190.5z"/>
	<path d="M118.3,200c0.8,0,1.5,0.7,1.5,1.5l0,0c0,0.8-0.7,1.5-1.5,1.5c-0.8,0-1.5-0.7-1.5-1.5C116.8,200.6,117.5,200,118.3,200
		L118.3,200z M118.3,197c-2.5,0-4.5,2-4.5,4.5s2,4.5,4.5,4.5c2.5,0,4.5-2,4.5-4.5l0,0C122.8,199,120.8,197,118.3,197L118.3,197z"/>
	<path d="M128.5,220.1c0.8,0,1.5,0.7,1.5,1.5l0,0c0,0.8-0.7,1.5-1.5,1.5c-0.8,0-1.5-0.7-1.5-1.5C127,220.8,127.7,220.1,128.5,220.1
		L128.5,220.1z M128.5,217.1c-2.5,0-4.5,2-4.5,4.5s2,4.5,4.5,4.5s4.5-2,4.5-4.5l0,0C133,219.1,131,217.1,128.5,217.1L128.5,217.1z"
		/>
	<path d="M138.7,210.3c0.8,0,1.5,0.7,1.5,1.5l0,0c0,0.8-0.7,1.5-1.5,1.5c-0.8,0-1.5-0.7-1.5-1.5C137.2,211,137.8,210.3,138.7,210.3
		L138.7,210.3z M138.7,207.3c-2.5,0-4.5,2-4.5,4.5c0,2.5,2,4.5,4.5,4.5s4.5-2,4.5-4.5l0,0C143.2,209.3,141.1,207.3,138.7,207.3
		L138.7,207.3z"/>
	<path d="M148.8,184.6c0.8,0,1.5,0.7,1.5,1.5l0,0c0,0.8-0.7,1.5-1.5,1.5c-0.8,0-1.5-0.7-1.5-1.5C147.3,185.3,148,184.6,148.8,184.6
		L148.8,184.6z M148.8,181.6c-2.5,0-4.5,2-4.5,4.5s2,4.5,4.5,4.5c2.5,0,4.5-2,4.5-4.5l0,0C153.3,183.6,151.3,181.6,148.8,181.6
		L148.8,181.6z"/>
	<path d="M159,200.3c0.8,0,1.5,0.7,1.5,1.5l0,0c0,0.8-0.7,1.5-1.5,1.5s-1.5-0.7-1.5-1.5S158.2,200.3,159,200.3L159,200.3z
		 M159,197.3c-2.5,0-4.5,2-4.5,4.5s2,4.5,4.5,4.5s4.5-2,4.5-4.5l0,0C163.5,199.3,161.5,197.3,159,197.3L159,197.3z"/>
	<path d="M169.2,239.4c0.8,0,1.5,0.7,1.5,1.5l0,0c0,0.8-0.7,1.5-1.5,1.5c-0.8,0-1.5-0.7-1.5-1.5S168.4,239.4,169.2,239.4
		L169.2,239.4z M169.2,236.4c-2.5,0-4.5,2-4.5,4.5s2,4.5,4.5,4.5s4.5-2,4.5-4.5l0,0C173.7,238.4,171.7,236.4,169.2,236.4
		L169.2,236.4z"/>
	<path d="M179.4,210.1c0.8,0,1.5,0.7,1.5,1.5l0,0c0,0.8-0.7,1.5-1.5,1.5s-1.5-0.7-1.5-1.5C177.9,210.8,178.6,210.1,179.4,210.1
		L179.4,210.1z M179.4,207.1c-2.5,0-4.5,2-4.5,4.5s2,4.5,4.5,4.5s4.5-2,4.5-4.5l0,0C183.9,209.1,181.9,207.1,179.4,207.1
		L179.4,207.1z"/>
	<path d="M189.6,103c0.8,0,1.5,0.7,1.5,1.5l0,0c0,0.8-0.7,1.5-1.5,1.5c-0.8,0-1.5-0.7-1.5-1.5C188.1,103.7,188.7,103,189.6,103
		L189.6,103z M189.6,100c-2.5,0-4.5,2-4.5,4.5c0,2.5,2,4.5,4.5,4.5c2.5,0,4.5-2,4.5-4.5l0,0C194.1,102,192.1,100,189.6,100
		L189.6,100z"/>
	<path d="M199.8,39.8c0.8,0,1.5,0.7,1.5,1.5l0,0c0,0.8-0.7,1.5-1.5,1.5s-1.5-0.7-1.5-1.5S198.9,39.8,199.8,39.8L199.8,39.8z
		 M199.8,36.8c-2.5,0-4.5,2-4.5,4.5c0,2.5,2,4.5,4.5,4.5c2.5,0,4.5-2,4.5-4.5l0,0C204.3,38.9,202.2,36.8,199.8,36.8L199.8,36.8z"/>
	<path d="M209.9,103c0.8,0,1.5,0.7,1.5,1.5l0,0c0,0.8-0.7,1.5-1.5,1.5s-1.5-0.7-1.5-1.5C208.4,103.7,209.1,103,209.9,103L209.9,103z
		 M209.9,100c-2.5,0-4.5,2-4.5,4.5c0,2.5,2,4.5,4.5,4.5c2.5,0,4.5-2,4.5-4.5l0,0C214.4,102,212.4,100,209.9,100L209.9,100z"/>
	<path d="M220.1,210.1c0.8,0,1.5,0.7,1.5,1.5l0,0c0,0.8-0.7,1.5-1.5,1.5c-0.8,0-1.5-0.7-1.5-1.5
		C218.6,210.8,219.3,210.1,220.1,210.1L220.1,210.1z M220.1,207.1c-2.5,0-4.5,2-4.5,4.5s2,4.5,4.5,4.5c2.5,0,4.5-2,4.5-4.5l0,0
		C224.6,209.1,222.6,207.1,220.1,207.1L220.1,207.1z"/>
	<path d="M230.3,239.4c0.8,0,1.5,0.7,1.5,1.5l0,0c0,0.8-0.7,1.5-1.5,1.5s-1.5-0.7-1.5-1.5S229.5,239.4,230.3,239.4L230.3,239.4z
		 M230.3,236.4c-2.5,0-4.5,2-4.5,4.5s2,4.5,4.5,4.5s4.5-2,4.5-4.5l0,0C234.8,238.4,232.8,236.4,230.3,236.4L230.3,236.4z"/>
	<path d="M240.5,200.3c0.8,0,1.5,0.7,1.5,1.5l0,0c0,0.8-0.7,1.5-1.5,1.5c-0.8,0-1.5-0.7-1.5-1.5S239.6,200.3,240.5,200.3
		L240.5,200.3z M240.5,197.3c-2.5,0-4.5,2-4.5,4.5s2,4.5,4.5,4.5c2.5,0,4.5-2,4.5-4.5l0,0C245,199.3,243,197.3,240.5,197.3
		L240.5,197.3z"/>
	<path d="M250.7,184.6c0.8,0,1.5,0.7,1.5,1.5l0,0c0,0.8-0.7,1.5-1.5,1.5c-0.8,0-1.5-0.7-1.5-1.5
		C249.2,185.3,249.8,184.6,250.7,184.6L250.7,184.6z M250.7,181.6c-2.5,0-4.5,2-4.5,4.5s2,4.5,4.5,4.5s4.5-2,4.5-4.5l0,0
		C255.2,183.6,253.1,181.6,250.7,181.6L250.7,181.6z"/>
	<path d="M260.8,210.3c0.8,0,1.5,0.7,1.5,1.5l0,0c0,0.8-0.7,1.5-1.5,1.5c-0.8,0-1.5-0.7-1.5-1.5C259.3,211,260,210.3,260.8,210.3
		L260.8,210.3z M260.8,207.3c-2.5,0-4.5,2-4.5,4.5c0,2.5,2,4.5,4.5,4.5s4.5-2,4.5-4.5l0,0C265.3,209.3,263.3,207.3,260.8,207.3
		L260.8,207.3z"/>
	<path d="M271,220.1c0.8,0,1.5,0.7,1.5,1.5l0,0c0,0.8-0.7,1.5-1.5,1.5c-0.8,0-1.5-0.7-1.5-1.5C269.5,220.8,270.2,220.1,271,220.1
		L271,220.1z M271,217.1c-2.5,0-4.5,2-4.5,4.5s2,4.5,4.5,4.5s4.5-2,4.5-4.5l0,0C275.5,219.1,273.5,217.1,271,217.1L271,217.1z"/>
	<path d="M281.2,200c0.8,0,1.5,0.7,1.5,1.5l0,0c0,0.8-0.7,1.5-1.5,1.5c-0.8,0-1.5-0.7-1.5-1.5C279.7,200.6,280.4,200,281.2,200
		L281.2,200z M281.2,197c-2.5,0-4.5,2-4.5,4.5s2,4.5,4.5,4.5s4.5-2,4.5-4.5l0,0C285.7,199,283.7,197,281.2,197L281.2,197z"/>
	<path d="M291.4,193.5c0.8,0,1.5,0.7,1.5,1.5l0,0c0,0.8-0.7,1.5-1.5,1.5c-0.8,0-1.5-0.7-1.5-1.5
		C289.9,194.2,290.6,193.5,291.4,193.5L291.4,193.5z M291.4,190.5c-2.5,0-4.5,2-4.5,4.5c0,2.5,2,4.5,4.5,4.5s4.5-2,4.5-4.5l0,0
		C295.9,192.5,293.9,190.5,291.4,190.5L291.4,190.5z"/>
	<path d="M301.6,210.7c0.8,0,1.5,0.7,1.5,1.5l0,0c0,0.8-0.7,1.5-1.5,1.5s-1.5-0.7-1.5-1.5C300.1,211.4,300.7,210.7,301.6,210.7
		L301.6,210.7z M301.6,207.7c-2.5,0-4.5,2-4.5,4.5c0,2.5,2,4.5,4.5,4.5s4.5-2,4.5-4.5l0,0C306.1,209.7,304,207.7,301.6,207.7
		L301.6,207.7z"/>
	<path d="M311.7,214.9c0.8,0,1.5,0.7,1.5,1.5l0,0c0,0.8-0.7,1.5-1.5,1.5c-0.8,0-1.5-0.7-1.5-1.5
		C310.2,215.6,310.9,214.9,311.7,214.9L311.7,214.9z M311.7,211.9c-2.5,0-4.5,2-4.5,4.5c0,2.5,2,4.5,4.5,4.5s4.5-2,4.5-4.5l0,0
		C316.2,214,314.2,211.9,311.7,211.9L311.7,211.9z"/>
	<path d="M321.9,199.4c0.8,0,1.5,0.7,1.5,1.5l0,0c0,0.8-0.7,1.5-1.5,1.5c-0.8,0-1.5-0.7-1.5-1.5S321.1,199.4,321.9,199.4
		L321.9,199.4z M321.9,196.4c-2.5,0-4.5,2-4.5,4.5s2,4.5,4.5,4.5s4.5-2,4.5-4.5l0,0C326.4,198.4,324.4,196.4,321.9,196.4
		L321.9,196.4z"/>
	<path d="M332.1,196.8c0.8,0,1.5,0.7,1.5,1.5l0,0c0,0.8-0.7,1.5-1.5,1.5c-0.8,0-1.5-0.7-1.5-1.5
		C330.6,197.5,331.3,196.8,332.1,196.8L332.1,196.8z M332.1,193.8c-2.5,0-4.5,2-4.5,4.5s2,4.5,4.5,4.5s4.5-2,4.5-4.5l0,0
		C336.6,195.8,334.6,193.8,332.1,193.8L332.1,193.8z"/>
	<path d="M342.3,211.4c0.8,0,1.5,0.7,1.5,1.5l0,0c0,0.8-0.7,1.5-1.5,1.5c-0.8,0-1.5-0.7-1.5-1.5
		C340.8,212.1,341.5,211.4,342.3,211.4L342.3,211.4z M342.3,208.4c-2.5,0-4.5,2-4.5,4.5c0,2.5,2,4.5,4.5,4.5s4.5-2,4.5-4.5l0,0
		C346.8,210.4,344.8,208.4,342.3,208.4L342.3,208.4z"/>
	<path d="M352.5,212.6c0.8,0,1.5,0.7,1.5,1.5l0,0c0,0.8-0.7,1.5-1.5,1.5s-1.5-0.7-1.5-1.5S351.6,212.6,352.5,212.6L352.5,212.6z
		 M352.5,209.6c-2.5,0-4.5,2-4.5,4.5s2,4.5,4.5,4.5s4.5-2,4.5-4.5l0,0C357,211.7,355,209.6,352.5,209.6L352.5,209.6z"/>
	<path d="M362.7,198.5c0.8,0,1.5,0.7,1.5,1.5l0,0c0,0.8-0.7,1.5-1.5,1.5c-0.8,0-1.5-0.7-1.5-1.5
		C361.2,199.2,361.8,198.5,362.7,198.5L362.7,198.5z M362.7,195.5c-2.5,0-4.5,2-4.5,4.5s2,4.5,4.5,4.5c2.5,0,4.5-2,4.5-4.5l0,0
		C367.2,197.5,365.1,195.5,362.7,195.5L362.7,195.5z"/>
	<path class="st4" d="M36.9,206.7V200 M47,206.7v7.4 M57.2,206.7v6.2 M67.4,206.7v-8.4 M77.6,206.7v-5.8 M87.8,206.7v9.7
		 M97.9,206.7v5.5 M108.1,206.7V195 M118.3,206.7v-5.2 M128.5,206.7v14.9 M138.7,206.7v5.1 M148.8,206.7v-20.6 M159,206.7v-5
		 M169.2,206.7v34.2 M179.4,206.7v4.9 M189.6,206.7V104.5 M199.8,206.7V41.3 M209.9,206.7V104.5 M220.1,206.7v4.9 M230.3,206.7v34.2
		 M240.5,206.7v-5 M250.7,206.7v-20.6 M260.8,206.7v5.1 M271,206.7v14.9 M281.2,206.7v-5.2 M291.4,206.7V195 M301.6,206.7v5.5
		 M311.7,206.7v9.7 M321.9,206.7v-5.8 M332.1,206.7v-8.4 M342.3,206.7v6.2 M352.5,206.7v7.4 M362.7,206.7V200"/>
	<path class="st1" d="M36.9,270.9h325.8 M36.9,14.1h325.8 M36.9,270.9v-3.3 M87.8,270.9v-3.3 M138.7,270.9v-3.3 M189.6,270.9v-3.3
		 M240.5,270.9v-3.3 M291.4,270.9v-3.3 M342.3,270.9v-3.3 M36.9,14.1v3.3 M87.8,14.1v3.3 M138.7,14.1v3.3 M189.6,14.1v3.3
		 M240.5,14.1v3.3 M291.4,14.1v3.3 M342.3,14.1v3.3"/>
	<g>
		<path class="st2" d="M34.8,284.4c-0.4-0.6-0.6-1.5-0.6-2.7s0.2-2,0.6-2.7c0.4-0.6,1-0.9,1.8-0.9c0.8,0,1.4,0.3,1.8,0.9
			c0.4,0.6,0.6,1.5,0.6,2.7s-0.2,2-0.6,2.7s-1,0.9-1.8,0.9C35.9,285.3,35.3,285,34.8,284.4z M37.7,283.8c0.2-0.5,0.4-1.2,0.4-2.1
			c0-0.9-0.1-1.6-0.4-2.1c-0.2-0.5-0.6-0.7-1.1-0.7c-0.5,0-0.9,0.2-1.1,0.7c-0.2,0.5-0.4,1.2-0.4,2.1c0,0.9,0.1,1.6,0.4,2.1
			s0.6,0.7,1.1,0.7C37.1,284.5,37.5,284.3,37.7,283.8z"/>
		<path class="st2" d="M90.5,282.8c0,0.7-0.2,1.3-0.7,1.8c-0.5,0.5-1,0.7-1.7,0.7c-0.7,0-1.3-0.2-1.7-0.5s-0.7-0.8-0.7-1.5h0.9
			c0,0.4,0.2,0.7,0.5,0.9c0.3,0.2,0.6,0.3,1.1,0.3c0.4,0,0.8-0.1,1-0.4s0.4-0.7,0.4-1.1c0-0.5-0.1-0.9-0.4-1.2s-0.7-0.4-1.1-0.4
			c-0.3,0-0.5,0.1-0.7,0.2s-0.4,0.3-0.5,0.5l-0.7,0l0.5-3.8h3.6v0.9h-3l-0.3,1.9l0,0c0.4-0.3,0.8-0.4,1.2-0.4c0.7,0,1.3,0.2,1.8,0.6
			C90.2,281.6,90.5,282.2,90.5,282.8z"/>
	</g>
	<g>
		<path class="st2" d="M135.6,280.1H134v-0.7c0.5,0,0.9-0.1,1.2-0.3c0.3-0.2,0.5-0.6,0.7-1h0.7v7h-0.5h-0.5V280.1z"/>
		<path class="st2" d="M139.5,284.4c-0.4-0.6-0.6-1.5-0.6-2.7s0.2-2,0.6-2.7c0.4-0.6,1-0.9,1.8-0.9c0.8,0,1.4,0.3,1.8,0.9
			c0.4,0.6,0.6,1.5,0.6,2.7s-0.2,2-0.6,2.7s-1,0.9-1.8,0.9C140.5,285.3,139.9,285,139.5,284.4z M142.4,283.8
			c0.2-0.5,0.4-1.2,0.4-2.1c0-0.9-0.1-1.6-0.4-2.1c-0.2-0.5-0.6-0.7-1.1-0.7c-0.5,0-0.9,0.2-1.1,0.7c-0.2,0.5-0.4,1.2-0.4,2.1
			c0,0.9,0.1,1.6,0.4,2.1s0.6,0.7,1.1,0.7C141.8,284.5,142.2,284.3,142.4,283.8z"/>
	</g>
	<g>
		<path class="st2" d="M186.5,280.1h-1.6v-0.7c0.5,0,0.9-0.1,1.2-0.3c0.3-0.2,0.5-0.6,0.7-1h0.7v7H187h-0.5V280.1z"/>
		<path class="st2" d="M194.6,282.8c0,0.7-0.2,1.3-0.7,1.8c-0.5,0.5-1,0.7-1.7,0.7c-0.7,0-1.3-0.2-1.7-0.5s-0.7-0.8-0.7-1.5h0.9
			c0,0.4,0.2,0.7,0.5,0.9c0.3,0.2,0.6,0.3,1.1,0.3c0.4,0,0.8-0.1,1-0.4s0.4-0.7,0.4-1.1c0-0.5-0.1-0.9-0.4-1.2s-0.7-0.4-1.1-0.4
			c-0.3,0-0.5,0.1-0.7,0.2s-0.4,0.3-0.5,0.5l-0.7,0l0.5-3.8h3.6v0.9h-3l-0.3,1.9l0,0c0.4-0.3,0.8-0.4,1.2-0.4c0.7,0,1.3,0.2,1.8,0.6
			C194.4,281.6,194.6,282.2,194.6,282.8z"/>
	</g>
	<g>
		<path class="st2" d="M239.9,280.1c0,0.5-0.1,0.9-0.4,1.3c-0.3,0.3-0.8,0.7-1.5,1.1c-0.8,0.4-1.3,0.8-1.6,1.2
			c-0.1,0.2-0.2,0.3-0.3,0.5h3.8v0.9H235v0c0-0.7,0.2-1.3,0.6-1.8c0.4-0.5,1.1-1,2.1-1.5c0.5-0.3,0.8-0.5,1-0.8
			c0.2-0.2,0.3-0.5,0.3-0.9c0-0.4-0.1-0.7-0.4-0.9c-0.3-0.2-0.6-0.4-1-0.4c-0.4,0-0.8,0.1-1,0.4s-0.4,0.7-0.4,1.3h-0.9
			c0-0.8,0.2-1.4,0.6-1.8c0.4-0.4,1-0.7,1.8-0.7c0.7,0,1.2,0.2,1.6,0.6C239.6,279,239.9,279.5,239.9,280.1z"/>
		<path class="st2" d="M241.3,284.4c-0.4-0.6-0.6-1.5-0.6-2.7s0.2-2,0.6-2.7c0.4-0.6,1-0.9,1.8-0.9c0.8,0,1.4,0.3,1.8,0.9
			c0.4,0.6,0.6,1.5,0.6,2.7s-0.2,2-0.6,2.7s-1,0.9-1.8,0.9C242.3,285.3,241.8,285,241.3,284.4z M244.2,283.8
			c0.2-0.5,0.4-1.2,0.4-2.1c0-0.9-0.1-1.6-0.4-2.1c-0.2-0.5-0.6-0.7-1.1-0.7c-0.5,0-0.9,0.2-1.1,0.7c-0.2,0.5-0.4,1.2-0.4,2.1
			c0,0.9,0.1,1.6,0.4,2.1s0.6,0.7,1.1,0.7C243.6,284.5,244,284.3,244.2,283.8z"/>
	</g>
	<g>
		<path class="st2" d="M290.8,280.1c0,0.5-0.1,0.9-0.4,1.3c-0.3,0.3-0.8,0.7-1.5,1.1c-0.8,0.4-1.3,0.8-1.6,1.2
			c-0.1,0.2-0.2,0.3-0.3,0.5h3.8v0.9h-4.8v0c0-0.7,0.2-1.3,0.6-1.8c0.4-0.5,1.1-1,2.1-1.5c0.5-0.3,0.8-0.5,1-0.8
			c0.2-0.2,0.3-0.5,0.3-0.9c0-0.4-0.1-0.7-0.4-0.9c-0.3-0.2-0.6-0.4-1-0.4c-0.4,0-0.8,0.1-1,0.4s-0.4,0.7-0.4,1.3h-0.9
			c0-0.8,0.2-1.4,0.6-1.8c0.4-0.4,1-0.7,1.8-0.7c0.7,0,1.2,0.2,1.6,0.6C290.5,279,290.8,279.5,290.8,280.1z"/>
		<path class="st2" d="M296.4,282.8c0,0.7-0.2,1.3-0.7,1.8c-0.5,0.5-1,0.7-1.7,0.7c-0.7,0-1.3-0.2-1.7-0.5s-0.7-0.8-0.7-1.5h0.9
			c0,0.4,0.2,0.7,0.5,0.9c0.3,0.2,0.6,0.3,1.1,0.3c0.4,0,0.8-0.1,1-0.4c0.3-0.3,0.4-0.7,0.4-1.1c0-0.5-0.1-0.9-0.4-1.2
			s-0.7-0.4-1.1-0.4c-0.3,0-0.5,0.1-0.7,0.2c-0.2,0.1-0.4,0.3-0.5,0.5l-0.7,0l0.5-3.8h3.6v0.9h-3l-0.3,1.9l0,0
			c0.4-0.3,0.8-0.4,1.2-0.4c0.7,0,1.3,0.2,1.8,0.6C296.2,281.6,296.4,282.2,296.4,282.8z"/>
	</g>
	<g>
		<path class="st2" d="M340.7,280c0-0.3-0.1-0.6-0.4-0.8c-0.3-0.2-0.6-0.3-1-0.3c-0.4,0-0.7,0.1-1,0.4c-0.2,0.3-0.3,0.6-0.4,1.1
			h-0.9c0-0.7,0.2-1.3,0.6-1.7c0.4-0.4,0.9-0.6,1.6-0.6c0.7,0,1.2,0.2,1.6,0.5c0.4,0.3,0.6,0.8,0.6,1.3c0,0.5-0.2,1-0.6,1.3
			c-0.1,0.1-0.2,0.1-0.3,0.2c0.2,0.1,0.3,0.2,0.4,0.3c0.4,0.3,0.7,0.8,0.7,1.4c0,0.7-0.2,1.2-0.7,1.6c-0.5,0.4-1,0.6-1.8,0.6
			c-0.8,0-1.4-0.2-1.8-0.6c-0.4-0.4-0.6-1-0.7-1.7h0.9c0.1,0.5,0.2,0.9,0.4,1.2c0.2,0.2,0.6,0.4,1.1,0.4c0.4,0,0.8-0.1,1.1-0.4
			c0.3-0.2,0.4-0.6,0.4-1c0-0.4-0.1-0.7-0.4-1c-0.2-0.2-0.5-0.3-0.9-0.4c-0.2,0-0.3,0-0.5,0c-0.1,0-0.2,0-0.3,0v-0.8
			c0.1,0,0.2,0,0.3,0s0.3,0,0.4,0c0.3,0,0.5-0.1,0.7-0.3C340.5,280.6,340.7,280.3,340.7,280z"/>
		<path class="st2" d="M343.1,284.4c-0.4-0.6-0.6-1.5-0.6-2.7s0.2-2,0.6-2.7c0.4-0.6,1-0.9,1.8-0.9c0.8,0,1.4,0.3,1.8,0.9
			c0.4,0.6,0.6,1.5,0.6,2.7s-0.2,2-0.6,2.7s-1,0.9-1.8,0.9C344.2,285.3,343.6,285,343.1,284.4z M346,283.8c0.2-0.5,0.4-1.2,0.4-2.1
			c0-0.9-0.1-1.6-0.4-2.1c-0.2-0.5-0.6-0.7-1.1-0.7c-0.5,0-0.9,0.2-1.1,0.7c-0.2,0.5-0.4,1.2-0.4,2.1c0,0.9,0.1,1.6,0.4,2.1
			s0.6,0.7,1.1,0.7C345.4,284.5,345.8,284.3,346,283.8z"/>
	</g>
	<g>
	</g>
	<path class="st5" d="M175.7,297.2c-0.1,0-0.1,0-0.1-0.1c0,0-0.1-0.1-0.1-0.1s0-0.1,0.1-0.1c0,0,0.1-0.1,0.1-0.1h8.2
		c-0.3-0.2-0.5-0.4-0.7-0.7s-0.4-0.5-0.5-0.8c-0.1-0.3-0.2-0.6-0.3-1c0-0.1,0-0.1,0.1-0.1h0.2c0.4,0,0.6,0,0.7,0c0,0,0,0,0,0.1
		c0.1,0.3,0.2,0.6,0.3,0.9c0.1,0.3,0.3,0.5,0.5,0.7c0.2,0.2,0.4,0.4,0.6,0.6c0.2,0.2,0.5,0.3,0.8,0.4c0,0,0.1,0.1,0.1,0.1
		c0,0.1,0,0.1-0.1,0.1c-0.4,0.1-0.7,0.3-1,0.6c-0.3,0.3-0.6,0.6-0.8,0.9c-0.2,0.4-0.3,0.7-0.4,1.1c0,0,0,0,0,0.1c0,0-0.2,0-0.7,0
		h-0.2c-0.1,0-0.1,0-0.1-0.1c0.1-0.5,0.3-1,0.5-1.4c0.3-0.4,0.6-0.8,1-1.1H175.7L175.7,297.2z"/>
	<g>
		<path class="st2" d="M192.2,293.2h-1.6v-1.4h1.6V293.2z M190.6,293.9h1.6v5.9h-1.6V293.9z"/>
		<path class="st2" d="M198.4,294.2c0.4,0.3,0.6,0.8,0.6,1.6v3.9h-1.6v-3.6c0-0.3,0-0.5-0.1-0.7c-0.1-0.3-0.4-0.5-0.9-0.5
			c-0.5,0-0.9,0.2-1.1,0.7c-0.1,0.2-0.1,0.5-0.1,0.9v3.2h-1.5v-5.8h1.5v0.9c0.2-0.3,0.4-0.5,0.6-0.7c0.3-0.2,0.7-0.4,1.2-0.4
			C197.5,293.7,198,293.9,198.4,294.2z"/>
		<path class="st2" d="M203.5,293.9c0.3,0.2,0.5,0.4,0.7,0.6v-2.8h1.6v7.9h-1.5v-0.8c-0.2,0.3-0.5,0.6-0.7,0.8s-0.6,0.2-1,0.2
			c-0.7,0-1.3-0.3-1.7-0.8c-0.5-0.6-0.7-1.3-0.7-2.1c0-1,0.2-1.8,0.7-2.4s1.1-0.9,1.8-0.9C202.9,293.7,203.2,293.8,203.5,293.9z
			 M203.9,298.1c0.2-0.3,0.3-0.7,0.3-1.3c0-0.7-0.2-1.2-0.5-1.5c-0.2-0.2-0.5-0.3-0.8-0.3c-0.4,0-0.8,0.2-1,0.5
			c-0.2,0.3-0.3,0.8-0.3,1.3c0,0.5,0.1,1,0.3,1.3s0.5,0.5,1,0.5C203.3,298.6,203.6,298.4,203.9,298.1z"/>
		<path class="st2" d="M210.9,294c0.4,0.2,0.7,0.5,1,0.9c0.2,0.3,0.4,0.8,0.5,1.2c0,0.3,0.1,0.7,0,1.2h-4.3c0,0.6,0.2,1,0.6,1.2
			c0.2,0.1,0.5,0.2,0.8,0.2c0.3,0,0.6-0.1,0.8-0.3c0.1-0.1,0.2-0.2,0.3-0.4h1.6c0,0.3-0.2,0.7-0.6,1.1c-0.5,0.6-1.3,0.9-2.2,0.9
			c-0.8,0-1.5-0.2-2.1-0.7s-0.9-1.3-0.9-2.3c0-1,0.3-1.8,0.8-2.3c0.5-0.5,1.2-0.8,2.1-0.8C210.1,293.7,210.5,293.8,210.9,294z
			 M208.6,295.3c-0.2,0.2-0.4,0.5-0.4,0.9h2.6c0-0.4-0.2-0.7-0.4-0.9c-0.2-0.2-0.5-0.3-0.9-0.3C209.2,295,208.9,295.1,208.6,295.3z"
			/>
		<path class="st2" d="M212.6,299.7l2-3l-1.9-2.9h1.9l1,1.7l1-1.7h1.8l-1.9,2.9l2,3h-1.9l-1-1.8l-1,1.8H212.6z"/>
	</g>
	<g>
		<path class="st2" d="M228.2,294.2c0.4,0.3,0.6,0.8,0.6,1.6v3.9h-1.6v-3.6c0-0.3,0-0.5-0.1-0.7c-0.1-0.3-0.4-0.5-0.9-0.5
			c-0.5,0-0.9,0.2-1.1,0.7c-0.1,0.2-0.1,0.5-0.1,0.9v3.2h-1.5v-5.8h1.5v0.9c0.2-0.3,0.4-0.5,0.6-0.7c0.3-0.2,0.7-0.4,1.2-0.4
			C227.4,293.7,227.8,293.9,228.2,294.2z"/>
	</g>
</g>
</svg>
