<?xml version="1.0" encoding="utf-8"?>
<!-- Generator: Adobe Illustrator 22.1.0, SVG Export Plug-In . SVG Version: 6.00 Build 0)  -->
<svg version="1.1" id="Layer_1" xmlns="http://www.w3.org/2000/svg" xmlns:xlink="http://www.w3.org/1999/xlink" x="0px" y="0px"
	 viewBox="0 0 447.8 285.6" style="enable-background:new 0 0 447.8 285.6;" xml:space="preserve">
<style type="text/css">
	.st0{fill:none;stroke:#FF0000;stroke-width:1.4173;stroke-miterlimit:10;}
	.st1{fill:none;stroke:#000000;stroke-width:0.8504;stroke-miterlimit:10;}
	.st2{fill:#1D1D1B;}
	.st3{fill:none;stroke:#630000;stroke-width:0.8504;stroke-miterlimit:10;}
	.st4{fill:#BF8040;}
	.st5{fill:#630000;}
	.st6{fill:none;stroke:#630000;stroke-width:2.2677;stroke-miterlimit:10;}
	.st7{fill:none;stroke:#630000;stroke-width:1.4173;stroke-miterlimit:10;}
	.st8{fill:none;stroke:#000000;stroke-width:2.2677;stroke-miterlimit:10;}
	.st9{fill:none;stroke:#000000;stroke-width:0.8504;stroke-linecap:round;stroke-miterlimit:10;stroke-dasharray:0,3.678;}
	.st10{fill:none;stroke:#000000;stroke-width:1.4173;stroke-miterlimit:10;}
	.st11{fill:#0000FF;}
	.st12{fill:none;stroke:#0000FF;stroke-width:2.2677;stroke-miterlimit:10;}
	.st13{fill:#FF0000;}
	.st14{fill:none;stroke:#FF0000;stroke-width:0.8504;stroke-miterlimit:10;}
	.st15{fill:none;stroke:#0000FF;stroke-width:0.8504;stroke-miterlimit:10;}
	.st16{fill:none;stroke:#000000;stroke-width:0.8504;stroke-linecap:round;stroke-miterlimit:10;stroke-dasharray:0,3.928;}
	.st17{fill:none;stroke:#000000;stroke-width:0.8504;stroke-linecap:round;stroke-miterlimit:10;stroke-dasharray:0,3.6604;}
	.st18{fill:none;stroke:#000000;stroke-width:0.8504;stroke-linecap:round;stroke-miterlimit:10;stroke-dasharray:0,3.7017;}
	.st19{fill:none;stroke:#0000FF;stroke-width:1.4173;stroke-miterlimit:10;}
	.st20{fill:none;stroke:#FF0000;stroke-width:2.2677;stroke-miterlimit:10;}
</style>
<g>
	<path class="st0" d="M108.5,68.4l7.1,7.1 M108.5,75.5l7.1-7.1 M335.2,68.4l7.1,7.1 M335.2,75.5l7.1-7.1 M335.2,71.9h7.1
		 M338.8,68.4v7.1"/>
	<polyline points="341.1,228.8 338.8,224.3 336.5,228.8 338.8,227.7 	"/>
	<path class="st1" d="M338.8,227.7v46.2 M232.5,245.5h212.6"/>
	<polyline points="419.3,276.2 423.8,273.9 419.3,271.6 420.4,273.9 	"/>
	<line class="st1" x1="402.6" y1="273.9" x2="420.4" y2="273.9"/>
	<g>
		<path class="st2" d="M433.6,277.5c-0.9,0-1.2-1.1-1.2-2c0-2.3,1.5-5.1,2.9-5.1c1,0,1.2,1.4,1.2,2
			C436.5,274.6,435,277.5,433.6,277.5z M433.3,274.1c-0.3,1-0.3,1.6-0.3,2c0,0.9,0.2,1.2,0.5,1.2c0.4,0,0.8-0.5,1.2-1.2
			c0.4-0.7,0.6-1.6,0.7-2H433.3z M435.5,273.8c0.2-1,0.3-1.5,0.3-2c0-0.6-0.1-1.2-0.5-1.2c-0.4,0-0.8,0.6-1.1,1
			c-0.4,0.7-0.6,1.5-0.8,2.1H435.5z"/>
	</g>
	<line class="st1" x1="232.5" y1="242" x2="232.5" y2="249.1"/>
	<g>
		<path class="st2" d="M226.8,252.9c-0.2,0-0.3,0-0.3-0.2s0.2-0.2,0.3-0.2h5.4c0.2,0,0.3,0,0.3,0.2s-0.2,0.2-0.3,0.2H226.8z"/>
	</g>
	<g>
		<path class="st2" d="M235.5,253.6c-0.1,0.5-0.1,0.5-0.3,1c-0.1,0.4-0.2,0.6-0.5,0.6c-0.1,0-0.3-0.1-0.3-0.3c0-0.1,0-0.1,0.1-0.2
			c0.4-0.9,1-2.1,1.3-3.3h-0.6c-0.2,0-0.8,0-1.3,0.8c-0.1,0.1-0.1,0.1-0.2,0.1c-0.1,0-0.1-0.1-0.1-0.1c0,0,0.3-0.5,0.6-0.9
			c0.4-0.5,0.8-0.5,1-0.5h3.3c0.2,0,0.4,0,0.4,0.2c0,0.3-0.4,0.3-0.5,0.3h-1.1c-0.1,0.5-0.2,1.1-0.2,1.6c0,0.3,0,0.9,0.3,1.6
			c0.1,0.1,0.1,0.2,0.1,0.2c0,0.2-0.2,0.4-0.4,0.4c-0.1,0-0.3-0.1-0.4-0.5c-0.1-0.3-0.1-0.6-0.1-0.8c0-0.7,0.1-1.1,0.4-2.6h-1.1
			L235.5,253.6z"/>
	</g>
	<line class="st1" x1="445.1" y1="242" x2="445.1" y2="249.1"/>
	<g>
		<path class="st2" d="M444.2,253.3c-0.1,0.5-0.1,0.5-0.3,1c-0.1,0.4-0.2,0.6-0.5,0.6c-0.1,0-0.3-0.1-0.3-0.3c0-0.1,0-0.1,0.1-0.2
			c0.4-0.9,1-2.1,1.3-3.3h-0.6c-0.2,0-0.8,0-1.3,0.8c-0.1,0.1-0.1,0.1-0.2,0.1c-0.1,0-0.1-0.1-0.1-0.1c0,0,0.3-0.5,0.6-0.9
			c0.4-0.5,0.8-0.5,1-0.5h3.3c0.2,0,0.4,0,0.4,0.2c0,0.3-0.4,0.3-0.5,0.3h-1.1c-0.1,0.5-0.2,1.1-0.2,1.6c0,0.3,0,0.9,0.3,1.6
			c0.1,0.1,0.1,0.2,0.1,0.2c0,0.2-0.2,0.4-0.4,0.4c-0.1,0-0.3-0.1-0.4-0.5c-0.1-0.3-0.1-0.6-0.1-0.8c0-0.7,0.1-1.1,0.4-2.6h-1.1
			L444.2,253.3z"/>
	</g>
	<line class="st3" x1="232.5" y1="224.3" x2="445.1" y2="266.8"/>
	<g>
		<path class="st2" d="M344.2,238c0,0.4,0,0.5,0.8,0.5h0.2v0.3c-0.3,0-1.1,0-1.5,0s-1.1,0-1.5,0v-0.3h0.2c0.8,0,0.8-0.1,0.8-0.5
			v-5.3c0-0.4,0-0.5-0.8-0.5h-0.2V232h3.5c1.4,0,2.4,0.9,2.4,1.9c0,1-1.1,1.8-2.3,1.8h-1.7V238z M345.6,235.4c1.6,0,1.6-1.1,1.6-1.5
			c0-0.5,0-1.5-1.6-1.5h-0.9c-0.5,0-0.5,0.1-0.5,0.4v2.7H345.6z"/>
		<path class="st2" d="M349.9,232.8c0-0.5-0.1-0.6-0.8-0.6V232l1.4-0.1v3.5c0.2-0.4,0.6-1,1.4-1c0.6,0,0.9,0.2,1,0.4
			c0.3,0.4,0.3,0.7,0.3,1.5v1.9c0,0.3,0.3,0.3,0.8,0.3v0.3c-0.3,0-0.9,0-1.1,0c-0.3,0-0.8,0-1.1,0v-0.3c0.7,0,0.8,0,0.8-0.4v-2.3
			c0-0.6-0.1-1.1-0.7-1.1c-0.6,0-1.3,0.6-1.3,1.6v1.8c0,0.4,0.1,0.4,0.8,0.4v0.3c-0.3,0-0.9,0-1.1,0c-0.3,0-0.8,0-1.1,0v-0.3
			c0.7,0,0.8,0,0.8-0.4V232.8z"/>
		<path class="st2" d="M356.4,238.9c-0.6,0-1.6-0.2-1.6-1.1c0-0.4,0.2-1,1-1.3c0.6-0.3,1.3-0.3,1.8-0.4v-0.4c0-0.9-0.6-1.3-1.1-1.3
			c-0.3,0-0.8,0.1-1.1,0.5c0.5,0,0.5,0.3,0.5,0.5c0,0.3-0.2,0.5-0.5,0.5c-0.3,0-0.5-0.2-0.5-0.5c0-0.7,0.7-1.1,1.5-1.1
			c0.5,0,1,0.2,1.4,0.5c0.4,0.4,0.4,0.8,0.4,1.2v2c0,0,0,0.5,0.4,0.5c0.1,0,0.4-0.1,0.4-0.6v-0.6h0.2v0.6c0,0.8-0.6,0.9-0.8,0.9
			c-0.5,0-0.7-0.4-0.8-0.8C357.5,238.5,357.1,238.9,356.4,238.9z M355.6,237.8c0,0.5,0.4,0.8,0.9,0.8c0.4,0,1.2-0.3,1.2-1.3v-1
			C356,236.4,355.6,237.3,355.6,237.8z"/>
		<path class="st2" d="M360.2,236.4c-0.3-0.2-0.4-0.5-0.4-0.8c0-0.6,0.4-1.2,1.6-1.2c0.1,0,0.6,0,0.9,0.3c0,0,0.1-0.1,0.2-0.2
			c0.1-0.1,0.1-0.1,0.2-0.1c0.1,0,0.1,0.1,0.1,0.2v1c0,0.2,0,0.2-0.1,0.2c0,0-0.1,0-0.1-0.1c0-0.3-0.1-1.2-1.2-1.2
			c-0.9,0-1.1,0.4-1.1,0.8c0,0.6,0.7,0.7,1.2,0.8c0.4,0.1,0.8,0.2,1.1,0.5c0.1,0.1,0.4,0.4,0.4,0.9c0,0.7-0.5,1.4-1.6,1.4
			c-0.2,0-0.7,0-1.1-0.4c-0.2,0.2-0.2,0.2-0.2,0.2c-0.2,0.2-0.2,0.2-0.2,0.2c-0.1,0-0.1-0.1-0.1-0.2v-1.3c0-0.2,0-0.3,0.1-0.3
			c0.1,0,0.1,0,0.1,0.2c0.2,0.8,0.5,1.4,1.4,1.4c0.8,0,1.1-0.4,1.1-0.9c0-0.7-0.8-0.9-1-0.9C360.8,236.7,360.5,236.6,360.2,236.4z"
			/>
	</g>
	<g>
		<path class="st2" d="M364.7,238c0.2,0.4,0.6,0.7,1.1,0.7c0.1,0,1,0,1.3-1c0-0.1,0-0.1,0.1-0.1c0,0,0.1,0,0.1,0.1
			c0,0.2-0.4,1.3-1.7,1.3c-1.1,0-2.2-1-2.2-2.3c0-1.2,0.9-2.3,2.1-2.3c1.2,0,1.8,1,1.8,2c0,0.2,0,0.2-0.2,0.2h-2.8
			C364.4,236.8,364.4,237.5,364.7,238z M366.8,236.2c0-0.4-0.1-1.7-1.1-1.7c-0.3,0-1.2,0.3-1.2,1.7H366.8z"/>
	</g>
	<g>
		<path class="st2" d="M370.6,235c0,0.6-0.4,1-1.2,1.3c0.3,0.1,0.6,0.2,0.8,0.4c0.3,0.3,0.4,0.5,0.4,0.9v2.1c0,0.4,0,0.4,0,0.5
			c0.1,0.5,0.6,0.8,1.2,0.9c0.1,0,0.2,0,0.2,0.1c0,0.1-0.1,0.1-0.2,0.1c-0.4,0-1-0.1-1.4-0.4c-0.5-0.4-0.5-0.7-0.5-1.1v-2
			c0-0.4,0-0.4,0-0.5c-0.1-0.5-0.6-0.8-1.2-0.9c-0.1,0-0.2,0-0.2-0.1c0-0.1,0-0.1,0.1-0.1c0.2,0,0.6,0,0.9-0.3
			c0.4-0.3,0.4-0.6,0.4-1v-2.3c0-0.7,0.9-1.2,1.9-1.2c0.1,0,0.2,0,0.2,0.1c0,0.1,0,0.1-0.1,0.1c-1.1,0.1-1.3,0.7-1.3,1.1V235z"/>
	</g>
	<g>
		<path class="st2" d="M379,238.1c0,0.1,0,0.1,0,0.2c0,0.2,0.3,0.2,0.6,0.2c0.2,0,0.3,0,0.3,0.1c0,0.2-0.1,0.2-0.2,0.2
			c-0.2,0-0.4,0-0.6,0c-0.2,0-0.4,0-0.6,0c-0.3,0-1,0-1.3,0c0,0-0.1,0-0.1-0.1c0-0.2,0.1-0.2,0.2-0.2c0.6,0,0.8,0,0.9-0.3
			c0-0.1,0.3-1.1,0.7-2.8h-3l-0.7,2.7c0,0.1,0,0.1,0,0.2c0,0.2,0.3,0.2,0.6,0.2c0.2,0,0.3,0,0.3,0.1c0,0.2-0.1,0.2-0.2,0.2
			c-0.2,0-0.4,0-0.6,0c-0.2,0-0.4,0-0.6,0c-0.3,0-1,0-1.3,0c0,0-0.1,0-0.1-0.1c0-0.2,0.1-0.2,0.3-0.2c0.8,0,0.8-0.1,0.9-0.5l1.3-5.4
			c0-0.1,0-0.1,0-0.2c0-0.1-0.1-0.1-0.3-0.2c-0.2,0-0.4,0-0.4,0c-0.2,0-0.3,0-0.3-0.1c0-0.2,0.1-0.2,0.2-0.2c0.3,0,1,0,1.3,0
			c0.3,0,1,0,1.3,0c0,0,0.1,0,0.1,0.1c0,0.2-0.1,0.2-0.3,0.2c-0.7,0-0.7,0.1-0.8,0.5l-0.6,2.3h3l0.6-2.4c0-0.1,0-0.1,0-0.2
			c0-0.1-0.1-0.1-0.3-0.2c-0.2,0-0.4,0-0.4,0c-0.2,0-0.3,0-0.3-0.1c0-0.2,0.1-0.2,0.2-0.2c0.3,0,1,0,1.3,0c0.3,0,1,0,1.3,0
			c0,0,0.1,0,0.1,0.1c0,0.2-0.1,0.2-0.3,0.2c-0.7,0-0.7,0.1-0.8,0.5L379,238.1z"/>
	</g>
	<g>
		<path class="st2" d="M385.1,241.2c-0.1,0-1-0.6-1.6-1.9c-0.5-1.1-0.7-2.3-0.7-3.1c0-0.8,0.1-1.9,0.6-3c0.6-1.3,1.5-1.9,1.6-1.9
			c0.1,0,0.1,0,0.1,0.1c0,0,0,0-0.1,0.2c-1.2,1.2-1.6,3-1.6,4.7c0,1.5,0.3,3.4,1.6,4.7C385.2,241.1,385.2,241.1,385.1,241.2
			C385.2,241.2,385.2,241.2,385.1,241.2z"/>
		<path class="st2" d="M387.1,238c0.2,0.4,0.6,0.7,1.1,0.7c0.1,0,1,0,1.3-1c0-0.1,0-0.1,0.1-0.1c0,0,0.1,0,0.1,0.1
			c0,0.2-0.4,1.3-1.7,1.3c-1.1,0-2.2-1-2.2-2.3c0-1.2,0.9-2.3,2.1-2.3c1.2,0,1.8,1,1.8,2c0,0.2,0,0.2-0.2,0.2h-2.8
			C386.8,236.8,386.8,237.5,387.1,238z M389.2,236.2c0-0.4-0.1-1.7-1.1-1.7c-0.3,0-1.2,0.3-1.2,1.7H389.2z"/>
	</g>
	<g>
		<path class="st2" d="M392,235.7c0,0.9-0.6,1.5-1.4,1.5c-0.6,0-1.1-0.3-1.1-0.8c0-0.3,0.2-0.5,0.5-0.5c0.3,0,0.5,0.2,0.5,0.5
			c0,0.3-0.2,0.4-0.3,0.4c0.3,0.1,0.5,0.1,0.5,0.1c0.6,0,0.7-0.9,0.7-1.3v-3.9c0-0.5-0.1-0.6-0.9-0.6v-0.3l1.5-0.1V235.7z
			 M391.5,229.5c-0.3,0-0.5-0.2-0.5-0.5s0.2-0.5,0.5-0.5s0.5,0.2,0.5,0.5S391.8,229.5,391.5,229.5z"/>
	</g>
	<g>
		<path class="st2" d="M394.5,235.2c-0.6,0-1-0.7-1-1.5c0-1.6,1.1-3.5,2.2-3.5c0.7,0,1,0.8,1,1.5
			C396.6,233.3,395.5,235.2,394.5,235.2z M394.2,232.9c-0.1,0.3-0.2,0.8-0.2,1.3c0,0.4,0.1,0.9,0.4,0.9c0.3,0,0.6-0.3,0.8-0.7
			c0.2-0.3,0.4-0.7,0.6-1.5H394.2z M395.9,232.6c0.1-0.6,0.2-1,0.2-1.3c0-0.1,0-0.9-0.4-0.9c-0.4,0-1,0.7-1.4,2.2H395.9z"/>
	</g>
	<g>
		<path class="st2" d="M399.8,239.3c-0.6,1.3-1.5,1.9-1.6,1.9c-0.1,0-0.1,0-0.1-0.1c0,0,0,0,0.1-0.2c1.2-1.3,1.6-3,1.6-4.7
			c0-2.1-0.6-3.7-1.5-4.7c-0.2-0.2-0.2-0.2-0.2-0.2c0-0.1,0-0.1,0.1-0.1c0.1,0,1,0.6,1.6,1.9c0.5,1.1,0.7,2.3,0.7,3.1
			C400.4,237.1,400.3,238.2,399.8,239.3z"/>
	</g>
	<g>
		<path class="st2" d="M403.5,237.5c0-0.6,0.4-1,1.2-1.3c-0.3-0.1-0.6-0.2-0.8-0.4c-0.3-0.3-0.4-0.5-0.4-0.9v-2.1c0-0.4,0-0.4,0-0.5
			c-0.1-0.5-0.6-0.8-1.2-0.9c-0.1,0-0.2,0-0.2-0.1c0-0.1,0.1-0.1,0.2-0.1c0.3,0,1,0.1,1.4,0.4c0.5,0.4,0.5,0.7,0.5,1.1v2
			c0,0.4,0,0.4,0,0.5c0.1,0.5,0.6,0.8,1.2,0.9c0.1,0,0.2,0,0.2,0.1c0,0.1,0,0.1-0.1,0.1c-0.2,0-0.6,0-0.9,0.3
			c-0.4,0.3-0.4,0.6-0.4,1v2.3c0,0.8-0.9,1.2-1.9,1.2c-0.1,0-0.2,0-0.2-0.1c0-0.1,0-0.1,0.1-0.1c1.1-0.1,1.3-0.7,1.3-1.1V237.5z"/>
	</g>
	<g>
		<path class="st4" d="M366.5,226.1c0.1,0.3,0.2,0.4,0.8,0.4h0.2v0.3c-0.4,0-0.9,0-1.3,0c-0.4,0-1.1,0-1.4,0v-0.3
			c0.3,0,0.8,0,0.8-0.3c0,0,0-0.1,0-0.1l-0.5-1.5h-2.5l-0.5,1.3c0,0,0,0.1,0,0.1c0,0.3,0.2,0.5,0.7,0.5v0.3c-0.3,0-0.8,0-1.1,0
			c-0.4,0-0.8,0-1,0v-0.3c0.5,0,0.9-0.2,1.1-0.7l2.1-6c0-0.1,0.1-0.2,0.2-0.2s0.2,0.1,0.2,0.2L366.5,226.1z M362.8,224.2h2.2
			l-1.1-3.2L362.8,224.2z"/>
		<path class="st4" d="M370.4,226.9c-1.1,0-2.1-1-2.1-2.3c0-1.3,1-2.3,2.2-2.3c0.5,0,1,0.3,1.3,0.6v-2.2c0-0.5-0.1-0.6-0.8-0.6V220
			l1.4-0.1v6c0,0.5,0.1,0.6,0.8,0.6v0.3l-1.5,0.1v-0.7C371.5,226.6,371,226.9,370.4,226.9z M371.6,223.2c-0.3-0.4-0.7-0.6-1.1-0.6
			c-0.5,0-0.9,0.3-1.1,0.6c-0.3,0.4-0.3,1-0.3,1.4c0,0.4,0,1,0.3,1.4c0.2,0.4,0.6,0.6,1,0.6c0.4,0,0.9-0.2,1.2-0.7
			c0.1-0.2,0.1-0.2,0.1-0.4v-2C371.7,223.4,371.7,223.4,371.6,223.2z"/>
		<path class="st4" d="M375.5,226.9c-0.6,0-1.6-0.2-1.6-1.1c0-0.4,0.2-1,1-1.3c0.6-0.3,1.3-0.3,1.8-0.4v-0.4c0-0.9-0.6-1.3-1.1-1.3
			c-0.3,0-0.8,0.1-1.1,0.5c0.5,0,0.5,0.3,0.5,0.5c0,0.3-0.2,0.5-0.5,0.5c-0.3,0-0.5-0.2-0.5-0.5c0-0.7,0.7-1.1,1.5-1.1
			c0.5,0,1,0.2,1.4,0.5c0.4,0.4,0.4,0.8,0.4,1.2v2c0,0,0,0.5,0.4,0.5c0.1,0,0.4-0.1,0.4-0.6v-0.6h0.2v0.6c0,0.8-0.6,0.9-0.8,0.9
			c-0.5,0-0.7-0.4-0.8-0.8C376.6,226.5,376.1,226.9,375.5,226.9z M374.7,225.9c0,0.5,0.4,0.8,0.9,0.8c0.4,0,1.2-0.3,1.2-1.3v-1
			C375.1,224.5,374.7,225.3,374.7,225.9z"/>
		<path class="st4" d="M381.6,222.4c1.1,0,2.1,1,2.1,2.3c0,1.3-1,2.3-2.2,2.3c-0.8,0-1.2-0.5-1.2-0.7v0.1v1.7c0,0.4,0.1,0.4,0.8,0.4
			v0.3c-0.3,0-0.9,0-1.1,0c-0.3,0-0.8,0-1.1,0v-0.3c0.7,0,0.8,0,0.8-0.4v-4.7c0-0.4-0.1-0.5-0.8-0.5v-0.3l1.4-0.1v0.7
			C380.4,222.8,380.8,222.4,381.6,222.4z M380.4,226.1c0.3,0.4,0.6,0.6,1,0.6c0.7,0,1.4-0.8,1.4-2c0-1.1-0.6-2-1.3-2
			c-0.5,0-1,0.3-1.3,0.8v2.2C380.2,225.9,380.2,225.9,380.4,226.1z"/>
	</g>
	<g>
		<path class="st4" d="M385.7,225.6c0,0.2,0,1.1,0.7,1.1c0.4,0,0.7-0.4,0.7-1.1V225h0.2v0.6c0,0.6-0.3,1.3-1,1.3
			c-0.4,0-1.3-0.1-1.3-1.3v-2.8h-0.8v-0.2c1,0,1.3-1.1,1.3-1.9h0.2v1.8h1.4v0.3h-1.4V225.6z"/>
	</g>
	<polyline class="st5" points="108.3,216.9 112,224.3 115.7,216.9 112,218.8 	"/>
	<line class="st6" x1="112" y1="213.7" x2="112" y2="218.8"/>
	<g>
		<path class="st4" d="M42.8,233c0,1.1-0.8,2.1-2,2.1c-0.9,0-1.5-0.4-1.8-0.7c-0.3,0.5-0.4,0.6-0.4,0.6c-0.1,0.1-0.1,0.1-0.1,0.1
			c-0.1,0-0.1-0.1-0.1-0.2v-2c0-0.2,0-0.2,0.1-0.2c0,0,0.1,0,0.1,0.1c0,0.4,0,1,0.6,1.5c0.5,0.5,1.3,0.5,1.6,0.5
			c0.8,0,1.3-0.7,1.3-1.4c0-0.3-0.1-0.7-0.3-0.9c-0.3-0.4-0.6-0.4-0.8-0.5c-0.7-0.2-1.2-0.3-1.3-0.3c-0.8-0.3-1.3-1-1.3-1.8
			c0-1.1,0.8-1.9,1.9-1.9c0.9,0,1.3,0.4,1.6,0.7l0.3-0.6c0.1-0.1,0.1-0.1,0.1-0.1c0.1,0,0.1,0.1,0.1,0.2v2c0,0.2,0,0.2-0.1,0.2
			c-0.1,0-0.1-0.1-0.1-0.1c-0.1-0.4-0.3-2.1-1.9-2.1c-0.8,0-1.3,0.6-1.3,1.3c0,0.6,0.4,1.1,1,1.3l1.3,0.3
			C42.1,231.2,42.8,232,42.8,233z"/>
		<path class="st4" d="M44.4,228.9c0-0.5-0.1-0.6-0.8-0.6v-0.3l1.4-0.1v3.5c0.2-0.4,0.6-1,1.4-1c0.6,0,0.9,0.2,1,0.4
			c0.3,0.4,0.3,0.7,0.3,1.5v1.9c0,0.3,0.3,0.3,0.8,0.3v0.3c-0.3,0-0.9,0-1.1,0c-0.3,0-0.8,0-1.1,0v-0.3c0.7,0,0.8,0,0.8-0.4v-2.3
			c0-0.6-0.1-1.1-0.7-1.1c-0.6,0-1.3,0.6-1.3,1.6v1.8c0,0.4,0.1,0.4,0.8,0.4v0.3c-0.3,0-0.9,0-1.1,0c-0.3,0-0.8,0-1.1,0v-0.3
			c0.7,0,0.8,0,0.8-0.4V228.9z"/>
		<path class="st4" d="M50.6,234.1c0,0.4,0,0.4,0.7,0.4v0.3c-0.3,0-0.7,0-1,0c-0.2,0-0.8,0-1.1,0v-0.3c0.7,0,0.8,0,0.8-0.4v-2.7
			c0-0.5-0.1-0.5-0.7-0.5v-0.3l1.4-0.1V234.1z M50.1,229.3c-0.3,0-0.5-0.3-0.5-0.5c0-0.3,0.2-0.5,0.5-0.5c0.3,0,0.5,0.2,0.5,0.5
			C50.6,229,50.4,229.3,50.1,229.3z"/>
		<path class="st4" d="M54.5,230.6v0.3h-1.1v3.2c0,0.4,0,0.5,0.8,0.5h0.2v0.3c-0.4,0-0.9,0-1.3,0c-0.3,0-0.7,0-1.1,0v-0.3
			c0.7,0,0.8,0,0.8-0.4v-3.2h-0.8v-0.3h0.8v-1.1c0-1.1,0.8-1.6,1.5-1.6c0.5,0,0.9,0.3,0.9,0.7c0,0.2-0.1,0.4-0.4,0.4
			c-0.3,0-0.4-0.2-0.4-0.4c0-0.2,0.2-0.4,0.3-0.4c-0.1-0.1-0.3-0.1-0.3-0.1c-0.4,0-0.9,0.5-0.9,1.4v1.2H54.5z"/>
		<path class="st4" d="M56.3,233.6c0,0.2,0,1.1,0.7,1.1c0.4,0,0.7-0.4,0.7-1.1v-0.5h0.2v0.6c0,0.6-0.3,1.3-1,1.3
			c-0.4,0-1.3-0.1-1.3-1.3v-2.8h-0.8v-0.2c1,0,1.3-1.1,1.3-1.9h0.2v1.8h1.4v0.3h-1.4V233.6z"/>
	</g>
	<g>
		<path class="st2" d="M3.2,247c-0.1,0-1-0.6-1.6-1.9C1.1,244,1,242.8,1,242c0-0.8,0.1-1.9,0.6-3c0.6-1.3,1.5-1.9,1.6-1.9
			c0.1,0,0.1,0,0.1,0.1c0,0,0,0-0.1,0.2c-1.2,1.2-1.6,3-1.6,4.7c0,1.5,0.3,3.4,1.6,4.7C3.3,246.9,3.3,246.9,3.2,247
			C3.3,247,3.3,247,3.2,247z"/>
		<path class="st2" d="M5.6,243.3c0,0.2,0,1.1,0.7,1.1c0.4,0,0.7-0.4,0.7-1.1v-0.5h0.2v0.6c0,0.6-0.3,1.3-1,1.3
			c-0.4,0-1.3-0.1-1.3-1.3v-2.8H4v-0.2c1,0,1.3-1.1,1.3-1.9h0.2v1.8H7v0.3H5.6V243.3z"/>
		<path class="st2" d="M10.2,244.6c-1.2,0-2.2-1-2.2-2.2c0-1.2,1-2.3,2.2-2.3c1.2,0,2.2,1.1,2.2,2.3
			C12.4,243.7,11.4,244.6,10.2,244.6z M11.3,243.7c0.2-0.4,0.2-1,0.2-1.3c0-0.4,0-1-0.3-1.4c-0.3-0.4-0.7-0.6-1.1-0.6
			c-0.4,0-0.9,0.2-1.1,0.7c-0.2,0.4-0.2,1-0.2,1.4c0,0.4,0,1,0.2,1.4c0.3,0.5,0.7,0.7,1.1,0.7C10.7,244.4,11.1,244.1,11.3,243.7z"/>
	</g>
	<g>
		<path class="st2" d="M16.4,240.5v-0.3l1.4-0.1v1c0.3-0.6,0.7-1,1.5-1c0.4,0,1.2,0.1,1.3,1c0.2-0.4,0.6-1,1.4-1
			c0.6,0,0.9,0.2,1,0.4c0.3,0.4,0.3,0.7,0.3,1.5v1.9c0,0.3,0.3,0.3,0.8,0.3v0.3c-0.3,0-0.9,0-1.1,0c-0.3,0-0.8,0-1.1,0v-0.3
			c0.7,0,0.8,0,0.8-0.4v-2.3c0-0.6-0.1-1.1-0.7-1.1c-0.6,0-1.3,0.6-1.3,1.6v1.8c0,0.4,0.1,0.4,0.8,0.4v0.3c-0.3,0-0.9,0-1.1,0
			c-0.3,0-0.8,0-1.1,0v-0.3c0.7,0,0.8,0,0.8-0.4v-2.3c0-0.6-0.1-1.1-0.7-1.1c-0.6,0-1.3,0.6-1.3,1.6v1.8c0,0.4,0.1,0.4,0.8,0.4v0.3
			c-0.3,0-0.9,0-1.1,0c-0.3,0-0.8,0-1.1,0v-0.3c0.7,0,0.8,0,0.8-0.4v-2.7C17.2,240.6,17.1,240.5,16.4,240.5z"/>
		<path class="st2" d="M26.4,244.6c-0.6,0-1.6-0.2-1.6-1.1c0-0.4,0.2-1,1-1.3c0.6-0.3,1.3-0.3,1.8-0.4v-0.4c0-0.9-0.6-1.3-1.1-1.3
			c-0.3,0-0.8,0.1-1.1,0.5c0.5,0,0.5,0.3,0.5,0.5c0,0.3-0.2,0.5-0.5,0.5c-0.3,0-0.5-0.2-0.5-0.5c0-0.7,0.7-1.1,1.5-1.1
			c0.5,0,1,0.2,1.4,0.5c0.4,0.4,0.4,0.8,0.4,1.2v2c0,0,0,0.5,0.4,0.5c0.1,0,0.4-0.1,0.4-0.6v-0.6h0.2v0.6c0,0.8-0.6,0.9-0.8,0.9
			c-0.5,0-0.7-0.4-0.8-0.8C27.5,244.2,27,244.6,26.4,244.6z M25.5,243.6c0,0.5,0.4,0.8,0.9,0.8c0.4,0,1.2-0.3,1.2-1.3v-1
			C26,242.2,25.5,243,25.5,243.6z"/>
	</g>
	<g>
		<path class="st2" d="M30.5,238.6c0-0.5-0.1-0.6-0.8-0.6v-0.3l1.4-0.1v4.8l1.4-1.2c0.1-0.1,0.2-0.2,0.2-0.4c0-0.1-0.1-0.2-0.3-0.2
			v-0.3c0.1,0,0.8,0,1.1,0c0.3,0,0.4,0,0.7,0v0.3c-0.2,0-0.6,0-1.3,0.5c-0.1,0.1-0.8,0.7-0.8,0.7c0,0,0,0.1,0.1,0.1l1.3,1.8
			c0.4,0.5,0.6,0.5,1,0.5v0.3c-0.3,0-0.6,0-0.9,0c-0.2,0-0.8,0-1.1,0v-0.3c0.2,0,0.4,0,0.4-0.2c0-0.2-0.4-0.7-1.2-1.8l-0.6,0.5v1
			c0,0.4,0.1,0.4,0.8,0.4v0.3c-0.4,0-0.8,0-1.1,0c-0.3,0-0.8,0-1.1,0v-0.3c0.7,0,0.8,0,0.8-0.4V238.6z"/>
		<path class="st2" d="M35.8,243.7c0.2,0.4,0.6,0.7,1.1,0.7c0.1,0,1,0,1.3-1c0-0.1,0-0.1,0.1-0.1c0,0,0.1,0,0.1,0.1
			c0,0.2-0.4,1.3-1.7,1.3c-1.1,0-2.2-1-2.2-2.3c0-1.2,0.9-2.3,2.1-2.3c1.2,0,1.8,1,1.8,2c0,0.2,0,0.2-0.2,0.2h-2.8
			C35.5,242.6,35.5,243.2,35.8,243.7z M37.9,242c0-0.4-0.1-1.7-1.1-1.7c-0.3,0-1.2,0.3-1.2,1.7H37.9z"/>
	</g>
	<g>
		<path class="st2" d="M43.7,240.5v3.2c0,0.4,0.1,0.4,0.8,0.4v0.3c-0.4,0-0.9,0-1.1,0c-0.2,0-0.8,0-1.1,0v-0.3c0.7,0,0.8,0,0.8-0.4
			v-3.2h-0.8v-0.3h0.8v-1.1c0-1.1,1.2-1.6,2.1-1.6c0.7,0,1.3,0.4,1.3,1c0,0.3-0.2,0.5-0.5,0.5c-0.2,0-0.4-0.1-0.4-0.5
			c0-0.2,0.1-0.4,0.5-0.5c-0.2-0.2-0.6-0.3-0.9-0.3c-0.6,0-1.5,0.4-1.5,1.4v1.1h1.2c0.1,0,0.2,0,0.2,0c0,0,0,0,0.2,0l1.3-0.1v3.7
			c0,0.4,0.1,0.4,0.8,0.4v0.3c-0.4,0-0.9,0-1.1,0s-0.8,0-1.1,0v-0.3c0.7,0,0.8,0,0.8-0.4v-2.7c0-0.4-0.1-0.5-0.5-0.5H43.7z"/>
		<path class="st2" d="M49.3,243.8c0,0.4,0.1,0.4,0.8,0.4v0.3c-0.4,0-0.9,0-1.1,0c-0.2,0-0.8,0-1.1,0v-0.3c0.7,0,0.8,0,0.8-0.4v-5.2
			c0-0.5-0.1-0.6-0.8-0.6v-0.3l1.4-0.1V243.8z"/>
		<path class="st2" d="M52,243.3c0,0.2,0,1.1,0.7,1.1c0.4,0,0.7-0.4,0.7-1.1v-0.5h0.2v0.6c0,0.6-0.3,1.3-1,1.3
			c-0.4,0-1.3-0.1-1.3-1.3v-2.8h-0.8v-0.2c1,0,1.3-1.1,1.3-1.9H52v1.8h1.4v0.3H52V243.3z"/>
		<path class="st2" d="M55.5,243.7c0.2,0.4,0.6,0.7,1.1,0.7c0.1,0,1,0,1.3-1c0-0.1,0-0.1,0.1-0.1c0,0,0.1,0,0.1,0.1
			c0,0.2-0.4,1.3-1.7,1.3c-1.1,0-2.2-1-2.2-2.3c0-1.2,0.9-2.3,2.1-2.3c1.2,0,1.8,1,1.8,2c0,0.2,0,0.2-0.2,0.2h-2.8
			C55.2,242.6,55.2,243.2,55.5,243.7z M57.6,242c0-0.4-0.1-1.7-1.1-1.7c-0.3,0-1.2,0.3-1.2,1.7H57.6z"/>
	</g>
	<g>
		<path class="st2" d="M61.4,240.1c0.4,0,0.7,0.3,0.7,0.6c0,0.3-0.2,0.4-0.4,0.4c-0.2,0-0.4-0.2-0.4-0.4c0-0.3,0.2-0.4,0.2-0.4
			c0,0,0,0-0.1,0c-0.8,0-1.2,0.9-1.2,1.9v1.5c0,0.4,0,0.5,0.8,0.5h0.2v0.3c-0.4,0-0.9,0-1.3,0c-0.3,0-0.7,0-1.1,0v-0.3
			c0.7,0,0.8,0,0.8-0.4v-2.7c0-0.5-0.1-0.6-0.8-0.6v-0.3l1.4-0.1v1.1C60.4,240.8,60.7,240.1,61.4,240.1z"/>
		<path class="st2" d="M68.4,244.4c0.4,0,1-0.1,1.3-1c0-0.1,0-0.1,0.1-0.1c0,0,0.1,0,0.1,0.1s-0.3,1.3-1.7,1.3c-1.2,0-2.1-1-2.1-2.3
			c0-1.2,0.9-2.3,2.2-2.3c0.8,0,1.5,0.4,1.5,1.1c0,0.3-0.2,0.5-0.5,0.5c-0.3,0-0.5-0.2-0.5-0.5c0-0.1,0.1-0.4,0.5-0.5
			c-0.3-0.4-1-0.4-1.1-0.4c-0.5,0-1.3,0.4-1.3,2C67,244,67.9,244.4,68.4,244.4z"/>
	</g>
	<g>
		<path class="st2" d="M72.3,244.6c-0.6,0-1.6-0.2-1.6-1.1c0-0.4,0.2-1,1-1.3c0.6-0.3,1.3-0.3,1.8-0.4v-0.4c0-0.9-0.6-1.3-1.1-1.3
			c-0.3,0-0.8,0.1-1.1,0.5c0.5,0,0.5,0.3,0.5,0.5c0,0.3-0.2,0.5-0.5,0.5c-0.3,0-0.5-0.2-0.5-0.5c0-0.7,0.7-1.1,1.5-1.1
			c0.5,0,1,0.2,1.4,0.5c0.4,0.4,0.4,0.8,0.4,1.2v2c0,0,0,0.5,0.4,0.5c0.1,0,0.4-0.1,0.4-0.6v-0.6h0.2v0.6c0,0.8-0.6,0.9-0.8,0.9
			c-0.5,0-0.7-0.4-0.8-0.8C73.4,244.2,73,244.6,72.3,244.6z M71.5,243.6c0,0.5,0.4,0.8,0.9,0.8c0.4,0,1.2-0.3,1.2-1.3v-1
			C71.9,242.2,71.5,243,71.5,243.6z"/>
		<path class="st2" d="M77.9,244.6c-1.5,0-1.5-0.9-1.5-1.7v-1.5c0-0.9,0-0.9-0.8-0.9v-0.3l1.5-0.1v3.3c0,0.5,0,1,0.9,1
			c0.7,0,1.2-0.7,1.2-1.5v-1.8c0-0.5-0.1-0.6-0.8-0.6v-0.3l1.5-0.1v3.5c0,0.5,0.1,0.6,0.8,0.6v0.3l-1.4,0.1v-0.9
			C78.9,244.4,78.5,244.6,77.9,244.6z"/>
		<path class="st2" d="M81.6,242.1c-0.3-0.2-0.4-0.5-0.4-0.8c0-0.6,0.4-1.2,1.6-1.2c0.1,0,0.6,0,0.9,0.3c0,0,0.1-0.1,0.2-0.2
			c0.1-0.1,0.1-0.1,0.2-0.1c0.1,0,0.1,0.1,0.1,0.2v1c0,0.2,0,0.2-0.1,0.2c0,0-0.1,0-0.1-0.1c0-0.3-0.1-1.2-1.2-1.2
			c-0.9,0-1.1,0.4-1.1,0.8c0,0.6,0.7,0.7,1.2,0.8c0.4,0.1,0.8,0.2,1.1,0.5c0.1,0.1,0.4,0.4,0.4,0.9c0,0.7-0.5,1.4-1.6,1.4
			c-0.2,0-0.7,0-1.1-0.4c-0.2,0.2-0.2,0.2-0.2,0.2c-0.2,0.2-0.2,0.2-0.2,0.2c-0.1,0-0.1-0.1-0.1-0.2v-1.3c0-0.2,0-0.3,0.1-0.3
			c0.1,0,0.1,0,0.1,0.2c0.2,0.8,0.5,1.4,1.4,1.4c0.8,0,1.1-0.4,1.1-0.9c0-0.7-0.8-0.9-1-0.9C82.2,242.5,82,242.4,81.6,242.1z"/>
		<path class="st2" d="M86.9,244.6c-0.6,0-1.6-0.2-1.6-1.1c0-0.4,0.2-1,1-1.3c0.6-0.3,1.3-0.3,1.8-0.4v-0.4c0-0.9-0.6-1.3-1.1-1.3
			c-0.3,0-0.8,0.1-1.1,0.5c0.5,0,0.5,0.3,0.5,0.5c0,0.3-0.2,0.5-0.5,0.5c-0.3,0-0.5-0.2-0.5-0.5c0-0.7,0.7-1.1,1.5-1.1
			c0.5,0,1,0.2,1.4,0.5c0.4,0.4,0.4,0.8,0.4,1.2v2c0,0,0,0.5,0.4,0.5c0.1,0,0.4-0.1,0.4-0.6v-0.6h0.2v0.6c0,0.8-0.6,0.9-0.8,0.9
			c-0.5,0-0.7-0.4-0.8-0.8C88,244.2,87.5,244.6,86.9,244.6z M86,243.6c0,0.5,0.4,0.8,0.9,0.8c0.4,0,1.2-0.3,1.2-1.3v-1
			C86.4,242.2,86,243,86,243.6z"/>
		<path class="st2" d="M91.6,243.8c0,0.4,0.1,0.4,0.8,0.4v0.3c-0.4,0-0.9,0-1.1,0c-0.2,0-0.8,0-1.1,0v-0.3c0.7,0,0.8,0,0.8-0.4v-5.2
			c0-0.5-0.1-0.6-0.8-0.6v-0.3l1.4-0.1V243.8z"/>
		<path class="st2" d="M94.9,245.1c-0.6,1.3-1.5,1.9-1.6,1.9c-0.1,0-0.1,0-0.1-0.1c0,0,0,0,0.1-0.2c1.2-1.3,1.6-3,1.6-4.7
			c0-2.1-0.6-3.7-1.5-4.7c-0.2-0.2-0.2-0.2-0.2-0.2c0-0.1,0-0.1,0.1-0.1c0.1,0,1,0.6,1.6,1.9c0.5,1.1,0.7,2.3,0.7,3.1
			C95.5,242.9,95.4,244,94.9,245.1z"/>
	</g>
	<polyline points="114.3,228.8 112,224.3 109.8,228.8 112,227.7 	"/>
	<path class="st1" d="M112,227.7v49.7 M5.7,259.7h216.1"/>
	<g>
		<path class="st2" d="M121.1,223.2c0.4-0.5,0.8-0.8,1.5-0.8c0.7,0,1.1,0.4,1.1,1.1c0,0.6-0.4,1.8-0.6,2.2c-0.1,0.2-0.2,0.5-0.2,0.7
			c0,0.2,0.1,0.3,0.2,0.3c0.5,0,0.9-0.7,1-1.2c0-0.1,0-0.2,0.1-0.2c0,0,0.1,0,0.1,0.1c0,0.1-0.4,1.5-1.3,1.5c-0.5,0-0.8-0.3-0.8-0.8
			c0-0.2,0-0.3,0.1-0.5c0.2-0.6,0.6-1.7,0.6-2.2c0-0.4-0.1-0.7-0.5-0.7c-0.4,0-0.7,0.2-1,0.3c-0.3,0.3-0.6,0.8-0.7,0.9
			c0,0.1-0.1,0.4-0.1,0.4c0,0.2-0.1,0.4-0.2,0.7l-0.2,0.9l-0.2,0.8c0,0.1-0.2,0.3-0.4,0.3c-0.1,0-0.3,0-0.3-0.3c0-0.1,0-0.1,0-0.2
			l1.4-5.7l0-0.2c0-0.1,0-0.2-0.5-0.2c-0.1,0-0.2,0-0.2-0.1c0-0.2,0.1-0.2,0.2-0.2c0.3,0,1-0.1,1.2-0.1c0.1,0,0.1,0.1,0.1,0.1
			L121.1,223.2z"/>
	</g>
	<g>
		<path class="st2" d="M127.3,225.4c-0.3,0-0.7,0.2-1,0.5c-0.4,0.5-0.5,1.2-0.5,1.4c0,0.4,0.2,0.8,0.7,0.8c0.1,0,0.9,0,1.5-0.6
			c0.1-0.1,0.1-0.1,0.1-0.1c0.1,0,0.1,0.1,0.1,0.1c0,0.1-0.6,0.8-1.7,0.8c-0.9,0-1.3-0.6-1.3-1.2c0-1,1-1.9,2-1.9
			c0.4,0,0.9,0.1,0.9,0.6c0,0.3-0.2,0.4-0.4,0.4c-0.1,0-0.3-0.1-0.3-0.3c0-0.2,0.1-0.3,0.4-0.4C127.7,225.4,127.4,225.4,127.3,225.4
			z"/>
	</g>
	<g>
		<path class="st2" d="M129.9,229.3v-10h1.4v0.4h-1v9.2h1v0.4H129.9z"/>
	</g>
	<g>
		<path class="st2" d="M133,223.9c0.1-0.5,0.2-0.6,0.2-0.8c0-0.3-0.1-0.5-0.3-0.5c-0.4,0-0.6,0.5-0.7,1.2c-0.1,0.2-0.1,0.2-0.2,0.2
			c0,0-0.1,0-0.1-0.1c0,0,0.1-0.6,0.3-1c0.1-0.2,0.3-0.6,0.7-0.6c0.5,0,0.9,0.3,0.9,0.9c0.2-0.2,0.7-0.9,1.6-0.9
			c0.7,0,1.1,0.4,1.1,1.1c0,0.6-0.4,1.7-0.6,2.2c-0.1,0.2-0.2,0.5-0.2,0.7c0,0.2,0.1,0.3,0.2,0.3c0.5,0,0.8-0.6,1-1.2
			c0-0.1,0-0.2,0.1-0.2c0,0,0.1,0,0.1,0.1c0,0.1-0.4,1.5-1.3,1.5c-0.5,0-0.8-0.3-0.8-0.8c0-0.1,0-0.2,0.1-0.5
			c0.2-0.4,0.6-1.7,0.6-2.3c0-0.3-0.1-0.7-0.5-0.7c-0.9,0-1.5,0.9-1.6,1.2c0,0-0.1,0.3-0.1,0.5c0,0.2-0.1,0.4-0.2,0.7l-0.2,0.9
			c-0.1,0.2-0.2,0.7-0.2,0.7c-0.1,0.2-0.2,0.3-0.4,0.3c-0.1,0-0.3-0.1-0.3-0.3c0,0,0.1-0.3,0.1-0.4L133,223.9z"/>
	</g>
	<g>
		<path class="st2" d="M139.1,229.3h-1.4v-0.4h1v-9.2h-1v-0.4h1.4V229.3z"/>
	</g>
	<g>
		<path class="st4" d="M165.1,233c-1.1,0-1.9-0.9-1.9-1.9c0-1,0.9-1.9,1.9-1.9c1,0,1.9,0.9,1.9,1.9S166.2,233,165.1,233z"/>
	</g>
	<g>
		<path class="st4" d="M218.3,261.3c-1.1,0-1.9-0.9-1.9-1.9c0-1,0.9-1.9,1.9-1.9c1,0,1.9,0.9,1.9,1.9S219.3,261.3,218.3,261.3z"/>
	</g>
	<path class="st7" d="M165.2,259.7v-28.3 M175.8,259.7V242 M186.4,265v-5.3"/>
	<g>
		<path class="st4" d="M186.4,266.6c-1.1,0-1.9-0.9-1.9-1.9c0-1,0.9-1.9,1.9-1.9c1,0,1.9,0.9,1.9,1.9S187.5,266.6,186.4,266.6z"/>
	</g>
	<line class="st7" x1="207.7" y1="270.4" x2="207.7" y2="259.7"/>
	<g>
		<path class="st4" d="M207.7,272c-1.1,0-1.9-0.9-1.9-1.9c0-1,0.9-1.9,1.9-1.9c1,0,1.9,0.9,1.9,1.9S208.7,272,207.7,272z"/>
	</g>
	<line class="st7" x1="122.7" y1="270.4" x2="122.7" y2="259.7"/>
	<g>
		<path class="st4" d="M122.6,272c-1.1,0-1.9-0.9-1.9-1.9c0-1,0.9-1.9,1.9-1.9c1,0,1.9,0.9,1.9,1.9S123.7,272,122.6,272z"/>
	</g>
	<line class="st7" x1="143.9" y1="265" x2="143.9" y2="259.7"/>
	<g>
		<path class="st4" d="M143.9,266.6c-1.1,0-1.9-0.9-1.9-1.9c0-1,0.9-1.9,1.9-1.9c1,0,1.9,0.9,1.9,1.9S144.9,266.6,143.9,266.6z"/>
	</g>
	<line class="st7" x1="154.5" y1="259.7" x2="154.5" y2="242"/>
	<g>
		<path class="st4" d="M175.8,243.6c-1.1,0-1.9-0.9-1.9-1.9c0-1,0.9-1.9,1.9-1.9c1,0,1.9,0.9,1.9,1.9S176.8,243.6,175.8,243.6z"/>
	</g>
	<g>
		<path class="st4" d="M154.5,243.6c-1.1,0-1.9-0.9-1.9-1.9c0-1,0.9-1.9,1.9-1.9c1,0,1.9,0.9,1.9,1.9S155.6,243.6,154.5,243.6z"/>
	</g>
	<polyline points="203.2,279.7 207.7,277.4 203.2,275.2 204.3,277.4 	"/>
	<line class="st1" x1="186.4" y1="277.4" x2="204.3" y2="277.4"/>
	<g>
		<path class="st2" d="M216.8,276.7c0.1-0.5,0.2-0.6,0.2-0.8c0-0.3-0.1-0.5-0.3-0.5c-0.4,0-0.6,0.5-0.7,1.2
			c-0.1,0.2-0.1,0.2-0.2,0.2c0,0-0.1,0-0.1-0.1c0,0,0.1-0.6,0.3-1c0.1-0.2,0.3-0.6,0.7-0.6c0.5,0,0.9,0.3,0.9,0.9
			c0.2-0.2,0.7-0.9,1.6-0.9c0.7,0,1.1,0.4,1.1,1.1c0,0.6-0.4,1.7-0.6,2.2c-0.1,0.2-0.2,0.5-0.2,0.7c0,0.2,0.1,0.3,0.2,0.3
			c0.5,0,0.8-0.6,1-1.2c0-0.1,0-0.2,0.1-0.2c0,0,0.1,0,0.1,0.1c0,0.1-0.4,1.5-1.3,1.5c-0.5,0-0.8-0.3-0.8-0.8c0-0.1,0-0.2,0.1-0.5
			c0.2-0.4,0.6-1.7,0.6-2.3c0-0.3-0.1-0.7-0.5-0.7c-0.9,0-1.5,0.9-1.6,1.2c0,0-0.1,0.3-0.1,0.5c0,0.2-0.1,0.4-0.2,0.7l-0.2,0.9
			c-0.1,0.2-0.2,0.7-0.2,0.7c-0.1,0.2-0.2,0.3-0.4,0.3c-0.1,0-0.3-0.1-0.3-0.3c0,0,0.1-0.3,0.1-0.4L216.8,276.7z"/>
	</g>
	<line class="st7" x1="197.1" y1="273.9" x2="197.1" y2="259.7"/>
	<g>
		<path class="st4" d="M197,275.5c-1.1,0-1.9-0.9-1.9-1.9c0-1,0.9-1.9,1.9-1.9c1,0,1.9,0.9,1.9,1.9S198.1,275.5,197,275.5z"/>
	</g>
	<g>
		<path class="st4" d="M189.8,231.3c-1.1,0-1.8-1-1.8-1.8c0-0.5,0.3-0.5,0.5-0.5c0.3,0,0.5,0.2,0.5,0.5c0,0.2-0.2,0.5-0.5,0.5
			c-0.1,0-0.1,0-0.2,0c0.2,0.6,0.7,1.1,1.5,1.1c0.5,0,0.8-0.3,1.1-0.6c0.2-0.4,0.2-1,0.2-1.4c0-0.5,0-0.9-0.2-1.3
			c-0.1-0.2-0.3-0.6-0.8-0.6c-0.8,0-1.2,0.5-1.3,0.7c0,0.1-0.1,0.1-0.1,0.1c-0.1,0-0.1-0.1-0.1-0.3v-2.9c0-0.2,0-0.2,0.1-0.2
			c0,0,0,0,0.1,0c0.5,0.2,0.9,0.3,1.3,0.3c0.7,0,1.2-0.2,1.4-0.3c0,0,0.1,0,0.1,0c0.1,0,0.1,0,0.1,0.1c0,0.1-0.7,1-1.9,1
			c-0.3,0-0.6-0.1-0.8-0.1v1.9c0.4-0.3,0.8-0.5,1.3-0.5c1.1,0,1.9,1,1.9,2.2C191.9,230.3,190.9,231.3,189.8,231.3z"/>
	</g>
	<path class="st3" d="M196.8,227.5L196.8,227.5c0-3.8-3.1-6.9-6.9-6.9c-3.8,0-6.9,3.1-6.9,6.9c0,3.8,3.1,6.9,6.9,6.9
		C193.7,234.4,196.8,231.3,196.8,227.5L196.8,227.5z"/>
	<line class="st7" x1="133.3" y1="273.9" x2="133.3" y2="259.7"/>
	<g>
		<path class="st4" d="M133.3,275.5c-1.1,0-1.9-0.9-1.9-1.9c0-1,0.9-1.9,1.9-1.9c1,0,1.9,0.9,1.9,1.9S134.3,275.5,133.3,275.5z"/>
	</g>
	<g>
		<path class="st4" d="M58.8,261.3c-1.1,0-1.9-0.9-1.9-1.9c0-1,0.9-1.9,1.9-1.9c1,0,1.9,0.9,1.9,1.9S59.9,261.3,58.8,261.3z"/>
		<path class="st4" d="M112,261.3c-1.1,0-1.9-0.9-1.9-1.9c0-1,0.9-1.9,1.9-1.9c1,0,1.9,0.9,1.9,1.9S113,261.3,112,261.3z"/>
	</g>
	<g>
		<path class="st4" d="M101.4,261.3c-1.1,0-1.9-0.9-1.9-1.9c0-1,0.9-1.9,1.9-1.9c1,0,1.9,0.9,1.9,1.9S102.4,261.3,101.4,261.3z"/>
	</g>
	<g>
		<path class="st4" d="M80.1,261.3c-1.1,0-1.9-0.9-1.9-1.9c0-1,0.9-1.9,1.9-1.9c1,0,1.9,0.9,1.9,1.9S81.2,261.3,80.1,261.3z"/>
		<path class="st4" d="M90.7,261.3c-1.1,0-1.9-0.9-1.9-1.9c0-1,0.9-1.9,1.9-1.9c1,0,1.9,0.9,1.9,1.9S91.8,261.3,90.7,261.3z"/>
	</g>
	<g>
		<path class="st4" d="M69.5,261.3c-1.1,0-1.9-0.9-1.9-1.9c0-1,0.9-1.9,1.9-1.9c1,0,1.9,0.9,1.9,1.9S70.5,261.3,69.5,261.3z"/>
	</g>
	<g>
		<path class="st4" d="M48.2,261.3c-1.1,0-1.9-0.9-1.9-1.9c0-1,0.9-1.9,1.9-1.9c1,0,1.9,0.9,1.9,1.9S49.3,261.3,48.2,261.3z"/>
	</g>
	<g>
		<path class="st4" d="M37.6,261.3c-1.1,0-1.9-0.9-1.9-1.9c0-1,0.9-1.9,1.9-1.9c1,0,1.9,0.9,1.9,1.9S38.6,261.3,37.6,261.3z"/>
	</g>
	<g>
		<path class="st4" d="M16.3,261.3c-1.1,0-1.9-0.9-1.9-1.9c0-1,0.9-1.9,1.9-1.9c1,0,1.9,0.9,1.9,1.9S17.4,261.3,16.3,261.3z"/>
		<path class="st4" d="M27,261.3c-1.1,0-1.9-0.9-1.9-1.9c0-1,0.9-1.9,1.9-1.9c1,0,1.9,0.9,1.9,1.9S28,261.3,27,261.3z"/>
	</g>
	<g>
		<path class="st4" d="M5.7,261.3c-1.1,0-1.9-0.9-1.9-1.9c0-1,0.9-1.9,1.9-1.9c1,0,1.9,0.9,1.9,1.9S6.7,261.3,5.7,261.3z"/>
	</g>
	<g>
		<path class="st2" d="M424.2,21.2c0,0.4,0,0.5,0.9,0.5h0.3V22c-0.3,0-1.2,0-1.6,0s-1.3,0-1.6,0v-0.3h0.3c0.9,0,0.9-0.1,0.9-0.5
			v-5.2c-0.5,0.3-1.1,0.3-1.3,0.3V16c0.3,0,1.2,0,1.8-0.6c0.2,0,0.2,0,0.2,0.3V21.2z"/>
	</g>
	<path class="st1" d="M430.5,18.6L430.5,18.6c0-3.8-3.1-6.9-6.9-6.9c-3.8,0-6.9,3.1-6.9,6.9c0,3.8,3.1,6.9,6.9,6.9
		C427.4,25.4,430.5,22.3,430.5,18.6L430.5,18.6z"/>
	<g>
		<path class="st2" d="M190.5,17.7c0.2,0,0.9,0,0.9-0.1c0.1-0.1,0.2-0.6,0.2-0.9h0.2l-0.3,1.7H188c0-0.2,0-0.3,0.1-0.4L190,16
			c0.5-0.6,1-1.4,1-2.2c0-0.8-0.4-1.6-1.3-1.6c-0.6,0-1.1,0.4-1.3,1c0,0,0,0,0.1,0c0.3,0,0.5,0.3,0.5,0.5c0,0.4-0.3,0.5-0.5,0.5
			c0,0-0.5,0-0.5-0.6c0-0.9,0.7-1.8,1.9-1.8c1.2,0,2.1,0.8,2.1,1.9c0,1-0.6,1.5-2.2,2.9l-1.1,1H190.5z"/>
	</g>
	<path class="st1" d="M196.6,15L196.6,15c0-3.8-3.1-6.9-6.9-6.9c-3.8,0-6.9,3.1-6.9,6.9c0,3.8,3.1,6.9,6.9,6.9
		C193.5,21.9,196.6,18.8,196.6,15L196.6,15z"/>
	<g>
		<path class="st2" d="M218.3,27.5c-1.1,0-1.9-0.9-1.9-1.9c0-1,0.9-1.9,1.9-1.9c1,0,1.9,0.9,1.9,1.9
			C220.2,26.6,219.3,27.5,218.3,27.5z M219.8,25.5c0-0.9-0.7-1.5-1.5-1.5c-0.9,0-1.5,0.7-1.5,1.5c0,0.8,0.7,1.5,1.5,1.5
			C219.1,27.1,219.8,26.4,219.8,25.5z"/>
		<path class="st2" d="M236,27.5c-1.1,0-1.9-0.9-1.9-1.9c0-1,0.9-1.9,1.9-1.9c1,0,1.9,0.9,1.9,1.9C237.9,26.6,237.1,27.5,236,27.5z
			 M237.5,25.5c0-0.9-0.7-1.5-1.5-1.5c-0.9,0-1.5,0.7-1.5,1.5c0,0.8,0.7,1.5,1.5,1.5C236.8,27.1,237.5,26.4,237.5,25.5z"/>
	</g>
	<line class="st1" x1="220.1" y1="25.9" x2="234.3" y2="25.9"/>
	<g>
		<path class="st2" d="M349.9,11.3c0,0.1,0,0.1,0,0.2c0,0.2,0.3,0.2,0.6,0.2c0.2,0,0.3,0,0.3,0.1c0,0.2-0.1,0.2-0.2,0.2
			c-0.2,0-0.4,0-0.6,0c-0.2,0-0.4,0-0.6,0c-0.3,0-1,0-1.3,0c0,0-0.1,0-0.1-0.1c0-0.2,0.1-0.2,0.2-0.2c0.6,0,0.8,0,0.9-0.3
			c0-0.1,0.3-1.1,0.7-2.8h-3l-0.7,2.7c0,0.1,0,0.1,0,0.2c0,0.2,0.3,0.2,0.6,0.2c0.2,0,0.3,0,0.3,0.1c0,0.2-0.1,0.2-0.2,0.2
			c-0.2,0-0.4,0-0.6,0c-0.2,0-0.4,0-0.6,0c-0.3,0-1,0-1.3,0c0,0-0.1,0-0.1-0.1c0-0.2,0.1-0.2,0.3-0.2c0.8,0,0.8-0.1,0.9-0.5l1.3-5.4
			c0-0.1,0-0.1,0-0.2c0-0.1-0.1-0.1-0.3-0.2c-0.2,0-0.4,0-0.4,0c-0.2,0-0.3,0-0.3-0.1c0-0.2,0.1-0.2,0.2-0.2c0.3,0,1,0,1.3,0
			c0.3,0,1,0,1.3,0c0,0,0.1,0,0.1,0.1c0,0.2-0.1,0.2-0.3,0.2c-0.7,0-0.7,0.1-0.8,0.5l-0.6,2.3h3l0.6-2.4c0-0.1,0-0.1,0-0.2
			c0-0.1-0.1-0.1-0.3-0.2c-0.2,0-0.4,0-0.4,0c-0.2,0-0.3,0-0.3-0.1c0-0.2,0.1-0.2,0.2-0.2c0.3,0,1,0,1.3,0c0.3,0,1,0,1.3,0
			c0,0,0.1,0,0.1,0.1c0,0.2-0.1,0.2-0.3,0.2c-0.7,0-0.7,0.1-0.8,0.5L349.9,11.3z"/>
	</g>
	<g>
		<path class="st2" d="M354.9,12.7c0,0.1,0,0.2,0,0.3c0,0.2,0,0.3,0.2,0.3c0.3,0,0.4-0.4,0.5-0.7c0-0.2,0.1-0.2,0.2-0.2
			c0,0,0.1,0,0.1,0.1c0,0-0.1,0.4-0.2,0.7c-0.1,0.2-0.3,0.4-0.6,0.4c-0.2,0-0.6-0.1-0.7-0.5c-0.3,0.3-0.6,0.5-1,0.5
			c-0.6,0-1.1-0.5-1.1-1.2c0-1,0.9-2,1.8-2c0.3,0,0.6,0.2,0.7,0.4l0.4-1.6c0-0.1,0-0.1,0-0.2c0-0.1,0-0.1-0.3-0.1
			c-0.1,0-0.2,0-0.2-0.1c0-0.1,0.1-0.2,0.2-0.2c0.2,0,0.8-0.1,0.9-0.1c0.1,0,0.1,0.1,0.1,0.1c0,0,0,0.1,0,0.1L354.9,12.7z
			 M354.7,11.2C354.7,11.2,354.7,11.2,354.7,11.2c0-0.2-0.1-0.7-0.6-0.7c-0.2,0-0.6,0.1-0.9,0.7c-0.2,0.3-0.4,1-0.4,1.4
			c0,0.5,0.3,0.7,0.5,0.7c0.3,0,0.6-0.2,0.6-0.3c0.2-0.1,0.3-0.3,0.4-0.5L354.7,11.2z"/>
	</g>
	<g>
		<path class="st2" d="M359.8,14.5c-0.1,0-1-0.6-1.6-1.9c-0.5-1.1-0.7-2.3-0.7-3.1c0-0.8,0.1-1.9,0.6-3c0.6-1.3,1.5-1.9,1.6-1.9
			c0.1,0,0.1,0,0.1,0.1c0,0,0,0-0.1,0.2c-1.2,1.2-1.6,3-1.6,4.7c0,1.5,0.3,3.4,1.6,4.7C359.9,14.3,359.9,14.3,359.8,14.5
			C359.9,14.4,359.8,14.5,359.8,14.5z"/>
		<path class="st2" d="M361.8,11.2c0.2,0.4,0.6,0.7,1.1,0.7c0.1,0,1,0,1.3-1c0-0.1,0-0.1,0.1-0.1c0,0,0.1,0,0.1,0.1
			c0,0.2-0.4,1.3-1.7,1.3c-1.1,0-2.2-1-2.2-2.3c0-1.2,0.9-2.3,2.1-2.3c1.2,0,1.8,1,1.8,2c0,0.2,0,0.2-0.2,0.2h-2.8
			C361.5,10,361.5,10.7,361.8,11.2z M363.9,9.5c0-0.4-0.1-1.7-1.1-1.7c-0.3,0-1.2,0.2-1.2,1.7H363.9z"/>
	</g>
	<g>
		<path class="st2" d="M366.9,8.9c0,0.9-0.6,1.5-1.4,1.5c-0.6,0-1.1-0.3-1.1-0.8c0-0.3,0.2-0.5,0.5-0.5c0.3,0,0.5,0.2,0.5,0.5
			c0,0.3-0.2,0.4-0.3,0.4c0.3,0.1,0.5,0.1,0.5,0.1c0.6,0,0.7-0.9,0.7-1.3V5c0-0.5-0.1-0.6-0.9-0.6V4.1l1.5-0.1V8.9z M366.4,2.8
			c-0.3,0-0.5-0.2-0.5-0.5s0.2-0.5,0.5-0.5s0.5,0.2,0.5,0.5S366.7,2.8,366.4,2.8z"/>
	</g>
	<g>
		<path class="st2" d="M369.4,8.5c-0.6,0-1-0.7-1-1.5c0-1.6,1.1-3.5,2.2-3.5c0.7,0,1,0.8,1,1.5C371.5,6.5,370.4,8.5,369.4,8.5z
			 M369.1,6.1c-0.1,0.3-0.2,0.8-0.2,1.3c0,0.4,0.1,0.9,0.4,0.9c0.3,0,0.6-0.3,0.8-0.7c0.2-0.3,0.4-0.7,0.6-1.5H369.1z M370.8,5.8
			c0.1-0.6,0.2-1,0.2-1.3c0-0.1,0-0.9-0.4-0.9c-0.4,0-1,0.7-1.4,2.2H370.8z"/>
	</g>
	<g>
		<path class="st2" d="M374.7,12.5c-0.6,1.3-1.5,1.9-1.6,1.9c-0.1,0-0.1,0-0.1-0.1c0,0,0-0.1,0.1-0.2c1.2-1.3,1.6-3,1.6-4.7
			c0-2.1-0.6-3.7-1.5-4.7C373,4.7,373,4.6,373,4.6c0-0.1,0-0.1,0.1-0.1c0.1,0,1,0.6,1.6,1.9c0.5,1.1,0.7,2.3,0.7,3.1
			C375.3,10.3,375.2,11.4,374.7,12.5z"/>
	</g>
	<g>
		<path class="st2" d="M332.1,17.7c0,0.4,0,0.5,0.9,0.5h0.3v0.3c-0.3,0-1.2,0-1.6,0s-1.3,0-1.6,0v-0.3h0.3c0.9,0,0.9-0.1,0.9-0.5
			v-5.2c-0.5,0.3-1.1,0.3-1.3,0.3v-0.3c0.3,0,1.2,0,1.8-0.6c0.2,0,0.2,0,0.2,0.3V17.7z"/>
	</g>
	<line class="st1" x1="232.5" y1="43.6" x2="232.5" y2="50.7"/>
	<polyline points="341.1,16.2 338.8,11.7 336.5,16.2 338.8,15.1 	"/>
	<path class="st1" d="M338.8,15.1v46.2 M232.5,47.1h212.6"/>
	<path class="st8" d="M381.3,47.1V18.8 M381.3,18.8h-85 M296.3,18.8v28.3 M381.3,47.1h63.8 M232.5,47.1h63.8"/>
	<g>
		<path class="st4" d="M378.6,57.1c-0.9,0-1.2-1.1-1.2-2c0-2.3,1.5-5.1,2.9-5.1c1,0,1.2,1.4,1.2,2C381.5,54.2,380,57.1,378.6,57.1z
			 M378.4,53.7c-0.3,1-0.3,1.6-0.3,2c0,0.9,0.2,1.2,0.5,1.2c0.4,0,0.8-0.5,1.2-1.2c0.4-0.7,0.6-1.6,0.7-2H378.4z M380.5,53.4
			c0.2-1,0.3-1.5,0.3-2c0-0.6-0.1-1.2-0.5-1.2c-0.4,0-0.8,0.6-1.1,1c-0.4,0.7-0.6,1.5-0.8,2.1H380.5z"/>
	</g>
	<g>
		<path class="st4" d="M384.1,55.5c-0.3,0-0.7,0.2-1,0.5c-0.4,0.5-0.5,1.2-0.5,1.4c0,0.4,0.2,0.8,0.7,0.8c0.1,0,0.9,0,1.5-0.6
			c0.1-0.1,0.1-0.1,0.1-0.1c0.1,0,0.1,0.1,0.1,0.1c0,0.1-0.6,0.8-1.7,0.8c-0.9,0-1.3-0.6-1.3-1.2c0-1,1-1.9,2-1.9
			c0.4,0,0.9,0.1,0.9,0.6c0,0.3-0.2,0.4-0.4,0.4c-0.1,0-0.3-0.1-0.3-0.3c0-0.2,0.1-0.3,0.4-0.4C384.6,55.5,384.2,55.5,384.1,55.5z"
			/>
	</g>
	<polyline points="419.3,63.6 423.8,61.3 419.3,59 420.4,61.3 	"/>
	<line class="st1" x1="402.6" y1="61.3" x2="420.4" y2="61.3"/>
	<g>
		<path class="st2" d="M433.6,64.9c-0.9,0-1.2-1.1-1.2-2c0-2.3,1.5-5.1,2.9-5.1c1,0,1.2,1.4,1.2,2C436.5,62,435,64.9,433.6,64.9z
			 M433.3,61.5c-0.3,1-0.3,1.6-0.3,2c0,0.9,0.2,1.2,0.5,1.2c0.4,0,0.8-0.5,1.2-1.2c0.4-0.7,0.6-1.6,0.7-2H433.3z M435.5,61.2
			c0.2-1,0.3-1.5,0.3-2c0-0.6-0.1-1.2-0.5-1.2c-0.4,0-0.8,0.6-1.1,1c-0.4,0.7-0.6,1.5-0.8,2.1H435.5z"/>
	</g>
	<g>
		<path class="st4" d="M289.2,54.7c-0.2,0-0.3,0-0.3-0.2c0-0.2,0.2-0.2,0.3-0.2h5.4c0.2,0,0.3,0,0.3,0.2c0,0.2-0.2,0.2-0.3,0.2
			H289.2z"/>
	</g>
	<g>
		<path class="st4" d="M297.4,57.1c-0.9,0-1.2-1.1-1.2-2c0-2.3,1.5-5.1,2.9-5.1c1,0,1.2,1.4,1.2,2C300.3,54.2,298.8,57.1,297.4,57.1
			z M297.2,53.7c-0.3,1-0.3,1.6-0.3,2c0,0.9,0.2,1.2,0.5,1.2c0.4,0,0.8-0.5,1.2-1.2c0.4-0.7,0.6-1.6,0.7-2H297.2z M299.3,53.4
			c0.2-1,0.3-1.5,0.3-2c0-0.6-0.1-1.2-0.5-1.2c-0.4,0-0.8,0.6-1.1,1c-0.4,0.7-0.6,1.5-0.8,2.1H299.3z"/>
	</g>
	<g>
		<path class="st4" d="M302.9,55.5c-0.3,0-0.7,0.2-1,0.5c-0.4,0.5-0.5,1.2-0.5,1.4c0,0.4,0.2,0.8,0.7,0.8c0.1,0,0.9,0,1.5-0.6
			c0.1-0.1,0.1-0.1,0.1-0.1c0.1,0,0.1,0.1,0.1,0.1c0,0.1-0.6,0.8-1.7,0.8c-0.9,0-1.3-0.6-1.3-1.2c0-1,1-1.9,2-1.9
			c0.4,0,0.9,0.1,0.9,0.6c0,0.3-0.2,0.4-0.4,0.4c-0.1,0-0.3-0.1-0.3-0.3c0-0.2,0.1-0.3,0.4-0.4C303.3,55.5,303,55.5,302.9,55.5z"/>
	</g>
	<g>
		<path class="st2" d="M226.8,54.4c-0.2,0-0.3,0-0.3-0.2c0-0.2,0.2-0.2,0.3-0.2h5.4c0.2,0,0.3,0,0.3,0.2c0,0.2-0.2,0.2-0.3,0.2
			H226.8z"/>
	</g>
	<g>
		<path class="st2" d="M235.5,55.2c-0.1,0.5-0.1,0.5-0.3,1c-0.1,0.4-0.2,0.6-0.5,0.6c-0.1,0-0.3-0.1-0.3-0.3c0-0.1,0-0.1,0.1-0.2
			c0.4-0.9,1-2.1,1.3-3.3h-0.6c-0.2,0-0.8,0-1.3,0.8c-0.1,0.1-0.1,0.1-0.2,0.1c-0.1,0-0.1-0.1-0.1-0.1c0,0,0.3-0.5,0.6-0.9
			c0.4-0.5,0.8-0.5,1-0.5h3.3c0.2,0,0.4,0,0.4,0.2c0,0.3-0.4,0.3-0.5,0.3h-1.1c-0.1,0.5-0.2,1.1-0.2,1.6c0,0.3,0,0.9,0.3,1.6
			c0.1,0.1,0.1,0.2,0.1,0.2c0,0.2-0.2,0.4-0.4,0.4c-0.1,0-0.3-0.1-0.4-0.5c-0.1-0.3-0.1-0.6-0.1-0.8c0-0.7,0.1-1.1,0.4-2.6h-1.1
			L235.5,55.2z"/>
	</g>
	<g>
		<path class="st2" d="M444.2,54.8c-0.1,0.5-0.1,0.5-0.3,1c-0.1,0.4-0.2,0.6-0.5,0.6c-0.1,0-0.3-0.1-0.3-0.3c0-0.1,0-0.1,0.1-0.2
			c0.4-0.9,1-2.1,1.3-3.3h-0.6c-0.2,0-0.8,0-1.3,0.8c-0.1,0.1-0.1,0.1-0.2,0.1c-0.1,0-0.1-0.1-0.1-0.1c0,0,0.3-0.5,0.6-0.9
			c0.4-0.5,0.8-0.5,1-0.5h3.3c0.2,0,0.4,0,0.4,0.2c0,0.3-0.4,0.3-0.5,0.3h-1.1c-0.1,0.5-0.2,1.1-0.2,1.6c0,0.3,0,0.9,0.3,1.6
			c0.1,0.1,0.1,0.2,0.1,0.2c0,0.2-0.2,0.4-0.4,0.4c-0.1,0-0.3-0.1-0.4-0.5c-0.1-0.3-0.1-0.6-0.1-0.8c0-0.7,0.1-1.1,0.4-2.6h-1.1
			L444.2,54.8z"/>
	</g>
	<line class="st1" x1="445.1" y1="43.6" x2="445.1" y2="50.7"/>
	<g>
		<path class="st2" d="M17.2,15c0.4-0.5,0.8-0.8,1.5-0.8c0.7,0,1.1,0.4,1.1,1.1c0,0.6-0.4,1.8-0.6,2.2c-0.1,0.2-0.2,0.5-0.2,0.7
			c0,0.2,0.1,0.3,0.2,0.3c0.5,0,0.9-0.7,1-1.2c0-0.1,0-0.2,0.1-0.2c0,0,0.1,0,0.1,0.1c0,0.1-0.4,1.5-1.3,1.5c-0.5,0-0.8-0.3-0.8-0.8
			c0-0.2,0-0.3,0.1-0.5c0.2-0.6,0.6-1.7,0.6-2.2c0-0.4-0.1-0.7-0.5-0.7c-0.4,0-0.7,0.2-1,0.3C17.4,15,17,15.6,17,15.7
			c0,0.1-0.1,0.4-0.1,0.4c0,0.2-0.1,0.4-0.2,0.7l-0.2,0.9l-0.2,0.8c0,0.1-0.2,0.3-0.4,0.3c-0.1,0-0.3,0-0.3-0.3c0-0.1,0-0.1,0-0.2
			l1.4-5.7l0-0.2c0-0.1,0-0.2-0.5-0.2c-0.1,0-0.2,0-0.2-0.1c0-0.2,0.1-0.2,0.2-0.2c0.3,0,1-0.1,1.2-0.1c0.1,0,0.1,0.1,0.1,0.1
			L17.2,15z"/>
	</g>
	<g>
		<path class="st2" d="M23.9,19.3c0,0.1,0,0.2,0,0.3c0,0.2,0,0.3,0.2,0.3c0.3,0,0.4-0.4,0.5-0.7c0-0.2,0.1-0.2,0.2-0.2
			c0,0,0.1,0,0.1,0.1c0,0-0.1,0.4-0.2,0.7c-0.1,0.2-0.3,0.4-0.6,0.4c-0.2,0-0.6-0.1-0.7-0.5c-0.3,0.3-0.6,0.5-1,0.5
			c-0.6,0-1.1-0.5-1.1-1.2c0-1,0.9-2,1.8-2c0.3,0,0.6,0.2,0.7,0.4l0.4-1.6c0-0.1,0-0.1,0-0.2c0-0.1,0-0.1-0.3-0.1
			c-0.1,0-0.2,0-0.2-0.1c0-0.1,0.1-0.2,0.2-0.2c0.2,0,0.8-0.1,0.9-0.1c0.1,0,0.1,0.1,0.1,0.1c0,0,0,0.1,0,0.1L23.9,19.3z M23.7,17.9
			C23.7,17.8,23.7,17.8,23.7,17.9c0-0.2-0.1-0.7-0.6-0.7c-0.2,0-0.6,0.1-0.9,0.7c-0.2,0.3-0.4,1-0.4,1.4c0,0.5,0.3,0.7,0.5,0.7
			c0.3,0,0.6-0.2,0.6-0.3c0.2-0.1,0.3-0.3,0.4-0.5L23.7,17.9z"/>
	</g>
	<g>
		<path class="st2" d="M26.7,21.1v-10h1.4v0.4h-1v9.2h1v0.4H26.7z"/>
	</g>
	<g>
		<path class="st2" d="M29.8,15.7c0.1-0.5,0.2-0.6,0.2-0.8c0-0.3-0.1-0.5-0.3-0.5c-0.4,0-0.6,0.5-0.7,1.2c-0.1,0.2-0.1,0.2-0.2,0.2
			c0,0-0.1,0-0.1-0.1c0,0,0.1-0.6,0.3-1c0.1-0.2,0.3-0.6,0.7-0.6c0.5,0,0.9,0.3,0.9,0.9c0.2-0.2,0.7-0.9,1.6-0.9
			c0.7,0,1.1,0.4,1.1,1.1c0,0.6-0.4,1.7-0.6,2.2c-0.1,0.2-0.2,0.5-0.2,0.7c0,0.2,0.1,0.3,0.2,0.3c0.5,0,0.8-0.6,1-1.2
			c0-0.1,0-0.2,0.1-0.2c0,0,0.1,0,0.1,0.1c0,0.1-0.4,1.5-1.3,1.5c-0.5,0-0.8-0.3-0.8-0.8c0-0.1,0-0.2,0.1-0.5
			c0.2-0.4,0.6-1.7,0.6-2.3c0-0.3-0.1-0.7-0.5-0.7c-0.9,0-1.5,0.9-1.6,1.2c0,0-0.1,0.3-0.1,0.5c0,0.2-0.1,0.4-0.2,0.7L30,17.7
			c-0.1,0.2-0.2,0.7-0.2,0.7c-0.1,0.2-0.2,0.3-0.4,0.3c-0.1,0-0.3-0.1-0.3-0.3c0-0.1,0.1-0.3,0.1-0.4L29.8,15.7z"/>
	</g>
	<g>
		<path class="st2" d="M35.9,21.1h-1.4v-0.4h1v-9.2h-1v-0.4h1.4V21.1z"/>
		<path class="st2" d="M40.7,15.3c-0.1,0-0.3,0-0.3-0.2s0.2-0.2,0.3-0.2h6c0.1,0,0.3,0,0.3,0.2s-0.2,0.2-0.3,0.2H40.7z M40.7,17.3
			c-0.1,0-0.3,0-0.3-0.2s0.2-0.2,0.3-0.2h5.9c0.1,0,0.3,0,0.3,0.2s-0.2,0.2-0.3,0.2H40.7z"/>
	</g>
	<g>
		<path class="st2" d="M54.1,11.4c0,0.1,0,0.2-0.1,0.2c0,0-0.1,0-0.1-0.1c0-0.2,0-0.8-0.9-0.8c-0.7,0-0.9,0.3-0.9,0.5
			c0,0.4,0.5,0.5,1,0.6c0.2,0,0.6,0.1,0.8,0.3c0.2,0.2,0.3,0.4,0.3,0.6c0,0.5-0.3,1-1.2,1c-0.2,0-0.5,0-0.9-0.3
			c-0.1,0.2-0.3,0.3-0.3,0.3c-0.1,0-0.1-0.1-0.1-0.2v-0.9c0-0.1,0-0.2,0.1-0.2c0.1,0,0.1,0,0.1,0.1c0.1,0.5,0.4,0.9,1,0.9
			s0.9-0.3,0.9-0.6c0-0.5-0.6-0.6-0.9-0.6c-0.4-0.1-0.7-0.1-1-0.3c-0.2-0.1-0.3-0.3-0.3-0.5c0-0.3,0.2-0.9,1.2-0.9
			c0.3,0,0.5,0,0.7,0.2c0,0,0.1-0.1,0.1-0.1c0.1-0.1,0.1-0.1,0.1-0.1c0.1,0,0.1,0.1,0.1,0.2V11.4z"/>
		<path class="st2" d="M56,10.6v2.5c0,0.3,0.1,0.3,0.5,0.3v0.3c-0.2,0-0.5,0-0.7,0c-0.3,0-0.8,0-0.8,0v-0.3c0.5,0,0.5,0,0.5-0.3
			v-1.8c0-0.3-0.1-0.4-0.5-0.4v-0.3L56,10.6z M55.7,9.8c-0.2,0-0.4-0.2-0.4-0.4c0-0.2,0.2-0.4,0.4-0.4c0.2,0,0.4,0.2,0.4,0.4
			C56.1,9.6,55.9,9.8,55.7,9.8z"/>
	</g>
	<g>
		<path class="st2" d="M60.5,13.1c0,0.3,0.1,0.3,0.5,0.3v0.3c-0.1,0-0.5,0-0.8,0c-0.3,0-0.8,0-0.8,0v-0.3c0.5,0,0.5,0,0.5-0.3v-1.6
			c0-0.4-0.1-0.7-0.6-0.7c-0.5,0-1,0.3-1,1.1v1.3c0,0.3,0.1,0.3,0.5,0.3v0.3c-0.1,0-0.5,0-0.8,0c-0.3,0-0.8,0-0.8,0v-0.3
			c0.5,0,0.5,0,0.5-0.3v-1.8c0-0.3-0.1-0.4-0.5-0.4v-0.3l1-0.1v0.7h0c0.2-0.4,0.6-0.7,1.1-0.7c0.7,0,1,0.4,1,1V13.1z"/>
		<path class="st2" d="M63.9,8.5C63.9,8.6,63.9,8.6,63.9,8.5c-0.6,0.6-1.3,1.5-1.3,3.4c0,1.3,0.3,2.5,1.3,3.3c0,0,0.1,0.1,0.1,0.1
			c0,0.1-0.1,0.1-0.1,0.1c-1.4-1-1.7-2.5-1.7-3.5c0-1.1,0.3-2.5,1.7-3.5C63.9,8.5,63.9,8.5,63.9,8.5z"/>
	</g>
	<g>
		<path class="st4" d="M65.8,13.8c-0.6,0-1-0.7-1-1.5c0-1.6,1.1-3.5,2.2-3.5c0.7,0,1,0.8,1,1.5C68,11.8,66.9,13.8,65.8,13.8z
			 M65.6,11.4c-0.1,0.3-0.2,0.8-0.2,1.3c0,0.4,0.1,0.9,0.4,0.9c0.3,0,0.6-0.3,0.8-0.7c0.2-0.3,0.4-0.7,0.6-1.5H65.6z M67.3,11.1
			c0.1-0.6,0.2-1,0.2-1.3c0-0.1,0-0.9-0.4-0.9c-0.4,0-1,0.7-1.4,2.2H67.3z"/>
	</g>
	<g>
		<path class="st4" d="M70.4,12.6c-0.8,0-1.1,0.8-1.1,1.3c0,0.3,0.2,0.6,0.6,0.6c0.5,0,0.9-0.1,1.1-0.4c0.1-0.1,0.1-0.1,0.1-0.1
			c0,0,0.1,0.1,0.1,0.1c0,0.1-0.2,0.3-0.5,0.4c-0.3,0.1-0.7,0.1-0.8,0.1c-0.8,0-1.1-0.5-1.1-0.9c0-0.7,0.7-1.3,1.6-1.3
			c0.3,0,0.8,0.1,0.8,0.4c0,0.2-0.2,0.3-0.3,0.3c-0.1,0-0.2-0.1-0.2-0.2c0-0.2,0.1-0.3,0.2-0.3C70.7,12.6,70.4,12.6,70.4,12.6z"/>
	</g>
	<g>
		<path class="st2" d="M73.1,12.3c0-0.2,0.1-0.4,0.2-0.6c0-0.2,0.1-0.4,0.1-0.6c0-0.2,0-0.3-0.2-0.3c-0.3,0-0.4,0.3-0.5,0.8
			c0,0.2-0.1,0.2-0.2,0.2c0,0-0.1,0-0.1-0.1c0,0,0.1-0.4,0.3-0.7c0.1-0.2,0.3-0.4,0.6-0.4c0.3,0,0.7,0.2,0.7,0.6
			c0.2-0.3,0.6-0.6,1.2-0.6c0.4,0,0.9,0.1,0.9,0.8c0,0.4-0.3,1.1-0.4,1.3c-0.1,0.3-0.2,0.4-0.2,0.6c0,0.1,0,0.2,0.2,0.2
			c0.3,0,0.6-0.3,0.7-0.8c0-0.1,0-0.1,0.1-0.1c0,0,0.1,0,0.1,0.1c0,0.1-0.3,1.1-1,1.1c-0.4,0-0.7-0.2-0.7-0.6c0-0.1,0-0.2,0.1-0.4
			c0.1-0.3,0.4-1.1,0.4-1.5c0-0.1,0-0.5-0.4-0.5c-0.5,0-0.9,0.4-1,0.6c-0.2,0.3-0.2,0.3-0.3,0.6c0,0.2-0.1,0.3-0.1,0.5
			c0,0.2-0.1,0.5-0.2,0.6c0,0.1-0.1,0.4-0.1,0.4c0,0.1-0.1,0.2-0.3,0.2c-0.1,0-0.2-0.1-0.2-0.2c0,0,0-0.2,0.1-0.3L73.1,12.3z"/>
	</g>
	<g>
		<path class="st2" d="M79.2,11.9c0,0.8-0.2,1.6-0.5,2.1c-0.5,0.9-1.1,1.3-1.2,1.3c-0.1,0-0.1,0-0.1-0.1c0,0,0,0,0.1-0.2
			c0.8-0.7,1.2-1.8,1.2-3.2c0-1.8-0.7-2.7-1.3-3.3c0,0-0.1-0.1-0.1-0.1c0-0.1,0.1-0.1,0.1-0.1C78.9,9.4,79.2,11,79.2,11.9z"/>
	</g>
	<polyline points="51.5,16.2 80,16.2 80,15.7 51.5,15.7 	"/>
	<g>
		<path class="st2" d="M62.6,21.1c-0.2,0.6-0.2,0.9-0.5,0.9c-0.2,0-0.2-0.1-0.2-0.2c0,0,0-0.1,0-0.1c0,0,0.1-0.2,0.1-0.3
			c0.2-0.4,0.6-1.2,0.8-2h-0.4c-0.2,0-0.6,0-0.9,0.5c0,0.1,0,0.1-0.1,0.1c0,0-0.1,0-0.1-0.1c0-0.1,0.3-0.4,0.5-0.6
			c0.3-0.3,0.5-0.4,0.8-0.4H65c0.1,0,0.3,0,0.3,0.2c0,0,0,0.1-0.1,0.2c-0.1,0.1-0.1,0.1-0.3,0.1h-0.9C64,19.9,64,20.2,64,20.3
			c0,0.6,0.1,1,0.3,1.2c0,0.1,0.1,0.1,0.1,0.2c0,0.2-0.2,0.3-0.3,0.3c-0.1,0-0.2,0-0.3-0.4c0-0.2-0.1-0.3-0.1-0.6
			c0-0.6,0.2-1.2,0.3-1.6H63L62.6,21.1z"/>
		<path class="st2" d="M66.8,20.6c0-0.2,0.1-0.4,0.2-0.6c0-0.2,0.1-0.4,0.1-0.6c0-0.2,0-0.3-0.2-0.3c-0.3,0-0.4,0.3-0.5,0.8
			c0,0.2-0.1,0.2-0.2,0.2c0,0-0.1,0-0.1-0.1c0,0,0.1-0.4,0.3-0.7c0.1-0.2,0.3-0.4,0.6-0.4c0.3,0,0.7,0.2,0.7,0.6
			c0.2-0.3,0.6-0.6,1.2-0.6c0.4,0,0.9,0.1,0.9,0.8c0,0.4-0.3,1.1-0.4,1.3c-0.1,0.3-0.2,0.4-0.2,0.6c0,0.1,0,0.2,0.2,0.2
			c0.3,0,0.6-0.3,0.7-0.8c0-0.1,0-0.1,0.1-0.1c0,0,0.1,0,0.1,0.1c0,0.1-0.3,1.1-1,1.1c-0.4,0-0.7-0.2-0.7-0.6c0-0.1,0-0.2,0.1-0.4
			c0.1-0.3,0.4-1.1,0.4-1.5c0-0.1,0-0.5-0.4-0.5c-0.5,0-0.9,0.4-1,0.6c-0.2,0.3-0.2,0.3-0.3,0.6c0,0.2-0.1,0.3-0.1,0.5
			c0,0.2-0.1,0.5-0.2,0.6c0,0.1-0.1,0.4-0.1,0.4c0,0.1-0.1,0.2-0.3,0.2c-0.1,0-0.2-0.1-0.2-0.2c0,0,0-0.2,0.1-0.3L66.8,20.6z"/>
	</g>
	<polyline points="203.2,63.6 207.7,61.3 203.2,59 204.3,61.3 	"/>
	<line class="st1" x1="186.4" y1="61.3" x2="204.3" y2="61.3"/>
	<g>
		<path class="st2" d="M216.8,60.6c0.1-0.5,0.2-0.6,0.2-0.8c0-0.3-0.1-0.5-0.3-0.5c-0.4,0-0.6,0.5-0.7,1.2c-0.1,0.2-0.1,0.2-0.2,0.2
			c0,0-0.1,0-0.1-0.1c0,0,0.1-0.6,0.3-1c0.1-0.2,0.3-0.6,0.7-0.6c0.5,0,0.9,0.3,0.9,0.9c0.2-0.2,0.7-0.9,1.6-0.9
			c0.7,0,1.1,0.4,1.1,1.1c0,0.6-0.4,1.7-0.6,2.2c-0.1,0.2-0.2,0.5-0.2,0.7c0,0.2,0.1,0.3,0.2,0.3c0.5,0,0.8-0.6,1-1.2
			c0-0.1,0-0.2,0.1-0.2c0,0,0.1,0,0.1,0.1c0,0.1-0.4,1.5-1.3,1.5c-0.5,0-0.8-0.3-0.8-0.8c0-0.1,0-0.2,0.1-0.5
			c0.2-0.4,0.6-1.7,0.6-2.3c0-0.3-0.1-0.7-0.5-0.7c-0.9,0-1.5,0.9-1.6,1.2c0,0-0.1,0.3-0.1,0.5c0,0.2-0.1,0.4-0.2,0.7l-0.2,0.9
			c-0.1,0.2-0.2,0.7-0.2,0.7c-0.1,0.2-0.2,0.3-0.4,0.3c-0.1,0-0.3-0.1-0.3-0.3c0-0.1,0.1-0.3,0.1-0.4L216.8,60.6z"/>
	</g>
	<g>
		<path class="st2" d="M110.2,56.5c-0.4,0.9-1.2,1.2-1.7,1.2c-0.5,0-1.2-0.2-1.6-1c-0.4-0.8-0.4-1.7-0.4-2.4c0-0.8,0-1.6,0.4-2.3
			c0.4-0.9,1.1-1.2,1.7-1.2c0.4,0,1.2,0.2,1.7,1.1c0.3,0.7,0.4,1.5,0.4,2.3C110.5,55,110.5,55.8,110.2,56.5z M109.6,56.2
			c0.1-0.6,0.1-1.3,0.1-2.1c0-0.6,0-1.4-0.1-1.9c-0.2-1-0.8-1.2-1.2-1.2c-0.2,0-1,0.1-1.2,1.3c-0.1,0.5-0.1,1.2-0.1,1.8
			c0,0.6,0,1.5,0.1,2.1c0.2,1,0.8,1.2,1.2,1.2C108.9,57.4,109.5,57.1,109.6,56.2z"/>
	</g>
	<polyline points="114.3,16.2 112,11.7 109.8,16.2 112,15.1 	"/>
	<line class="st1" x1="112" y1="15.1" x2="112" y2="64.8"/>
	<path class="st9" d="M5.7,50.7c0,0,11.7-1.8,17.7-3.5c6.3-1.9,11.2-7.1,17.7-7.1c6.5,0,12,3.8,17.7,7.1
		c6.8,3.9,10.1,14.2,17.7,14.2c7.6,0,12.5-8.3,17.7-14.2c7.7-8.6,6.9-28.3,17.7-28.3c10.8,0,10.1,19.7,17.7,28.3
		c5.2,5.8,10.1,14.2,17.7,14.2s11-10.2,17.7-14.2c5.7-3.3,11.2-7.1,17.7-7.1s11.4,5.2,17.7,7.1c6,1.8,17.7,3.5,17.7,3.5l0,0"/>
	<line class="st1" x1="5.7" y1="47.1" x2="218.3" y2="47.1"/>
	<line class="st10" x1="112" y1="47.1" x2="112" y2="18.8"/>
	<g>
		<path class="st2" d="M112,20.4c-1.1,0-1.9-0.9-1.9-1.9c0-1,0.9-1.9,1.9-1.9c1,0,1.9,0.9,1.9,1.9C113.9,19.5,113,20.4,112,20.4z"/>
	</g>
	<g>
		<path class="st2" d="M165.1,48.7c-1.1,0-1.9-0.9-1.9-1.9c0-1,0.9-1.9,1.9-1.9c1,0,1.9,0.9,1.9,1.9
			C167.1,47.9,166.2,48.7,165.1,48.7z"/>
	</g>
	<line class="st10" x1="122.7" y1="47.1" x2="122.7" y2="29.4"/>
	<g>
		<path class="st2" d="M122.6,31c-1.1,0-1.9-0.9-1.9-1.9c0-1,0.9-1.9,1.9-1.9c1,0,1.9,0.9,1.9,1.9C124.6,30.1,123.7,31,122.6,31z"/>
	</g>
	<line class="st10" x1="133.3" y1="52.5" x2="133.3" y2="47.1"/>
	<g>
		<path class="st2" d="M133.3,54.1c-1.1,0-1.9-0.9-1.9-1.9c0-1,0.9-1.9,1.9-1.9c1,0,1.9,0.9,1.9,1.9
			C135.2,53.2,134.3,54.1,133.3,54.1z"/>
	</g>
	<line class="st10" x1="143.9" y1="61.3" x2="143.9" y2="47.1"/>
	<g>
		<path class="st2" d="M143.9,62.9c-1.1,0-1.9-0.9-1.9-1.9c0-1,0.9-1.9,1.9-1.9c1,0,1.9,0.9,1.9,1.9C145.8,62,144.9,62.9,143.9,62.9
			z"/>
	</g>
	<line class="st10" x1="154.5" y1="57.8" x2="154.5" y2="47.1"/>
	<g>
		<path class="st2" d="M154.5,59.4c-1.1,0-1.9-0.9-1.9-1.9c0-1,0.9-1.9,1.9-1.9c1,0,1.9,0.9,1.9,1.9
			C156.4,58.5,155.6,59.4,154.5,59.4z"/>
	</g>
	<line class="st10" x1="175.8" y1="47.1" x2="175.8" y2="41.8"/>
	<g>
		<path class="st2" d="M175.8,43.4c-1.1,0-1.9-0.9-1.9-1.9c0-1,0.9-1.9,1.9-1.9c1,0,1.9,0.9,1.9,1.9
			C177.7,42.5,176.8,43.4,175.8,43.4z"/>
	</g>
	<line class="st10" x1="186.4" y1="47.1" x2="186.4" y2="40"/>
	<g>
		<path class="st2" d="M186.4,41.6c-1.1,0-1.9-0.9-1.9-1.9c0-1,0.9-1.9,1.9-1.9c1,0,1.9,0.9,1.9,1.9
			C188.3,40.8,187.5,41.6,186.4,41.6z"/>
	</g>
	<line class="st10" x1="197.1" y1="47.1" x2="197.1" y2="45.4"/>
	<g>
		<path class="st2" d="M197,47c-1.1,0-1.9-0.9-1.9-1.9c0-1,0.9-1.9,1.9-1.9c1,0,1.9,0.9,1.9,1.9C199,46.1,198.1,47,197,47z"/>
	</g>
	<line class="st10" x1="207.7" y1="48.9" x2="207.7" y2="47.1"/>
	<g>
		<path class="st2" d="M207.7,50.5c-1.1,0-1.9-0.9-1.9-1.9c0-1,0.9-1.9,1.9-1.9c1,0,1.9,0.9,1.9,1.9
			C209.6,49.6,208.7,50.5,207.7,50.5z"/>
	</g>
	<line class="st10" x1="101.4" y1="47.1" x2="101.4" y2="29.4"/>
	<g>
		<path class="st2" d="M101.4,31c-1.1,0-1.9-0.9-1.9-1.9c0-1,0.9-1.9,1.9-1.9c1,0,1.9,0.9,1.9,1.9C103.3,30.1,102.4,31,101.4,31z"/>
	</g>
	<line class="st10" x1="90.8" y1="52.5" x2="90.8" y2="47.1"/>
	<g>
		<path class="st2" d="M90.7,54.1c-1.1,0-1.9-0.9-1.9-1.9c0-1,0.9-1.9,1.9-1.9c1,0,1.9,0.9,1.9,1.9C92.7,53.2,91.8,54.1,90.7,54.1z"
			/>
	</g>
	<line class="st10" x1="80.1" y1="61.3" x2="80.1" y2="47.1"/>
	<g>
		<path class="st2" d="M80.1,62.9c-1.1,0-1.9-0.9-1.9-1.9c0-1,0.9-1.9,1.9-1.9c1,0,1.9,0.9,1.9,1.9C82,62,81.2,62.9,80.1,62.9z"/>
	</g>
	<line class="st10" x1="69.5" y1="57.8" x2="69.5" y2="47.1"/>
	<g>
		<path class="st2" d="M69.5,59.4c-1.1,0-1.9-0.9-1.9-1.9c0-1,0.9-1.9,1.9-1.9c1,0,1.9,0.9,1.9,1.9C71.4,58.5,70.5,59.4,69.5,59.4z"
			/>
	</g>
	<g>
		<path class="st2" d="M58.8,48.7c-1.1,0-1.9-0.9-1.9-1.9c0-1,0.9-1.9,1.9-1.9c1,0,1.9,0.9,1.9,1.9C60.8,47.9,59.9,48.7,58.8,48.7z"
			/>
	</g>
	<line class="st10" x1="48.2" y1="47.1" x2="48.2" y2="41.8"/>
	<g>
		<path class="st2" d="M48.2,43.4c-1.1,0-1.9-0.9-1.9-1.9c0-1,0.9-1.9,1.9-1.9c1,0,1.9,0.9,1.9,1.9C50.2,42.5,49.3,43.4,48.2,43.4z"
			/>
	</g>
	<line class="st10" x1="37.6" y1="47.1" x2="37.6" y2="40"/>
	<g>
		<path class="st2" d="M37.6,41.6c-1.1,0-1.9-0.9-1.9-1.9c0-1,0.9-1.9,1.9-1.9c1,0,1.9,0.9,1.9,1.9C39.5,40.8,38.6,41.6,37.6,41.6z"
			/>
	</g>
	<line class="st10" x1="27" y1="47.1" x2="27" y2="45.4"/>
	<g>
		<path class="st2" d="M27,47C25.9,47,25,46.1,25,45c0-1,0.9-1.9,1.9-1.9c1,0,1.9,0.9,1.9,1.9C28.9,46.1,28,47,27,47z"/>
	</g>
	<line class="st10" x1="218.3" y1="50.7" x2="218.3" y2="47.1"/>
	<g>
		<path class="st2" d="M218.3,52.3c-1.1,0-1.9-0.9-1.9-1.9c0-1,0.9-1.9,1.9-1.9c1,0,1.9,0.9,1.9,1.9
			C220.2,51.4,219.3,52.3,218.3,52.3z"/>
	</g>
	<line class="st10" x1="5.7" y1="50.7" x2="5.7" y2="47.1"/>
	<g>
		<path class="st2" d="M5.7,52.3c-1.1,0-1.9-0.9-1.9-1.9c0-1,0.9-1.9,1.9-1.9c1,0,1.9,0.9,1.9,1.9C7.6,51.4,6.7,52.3,5.7,52.3z"/>
	</g>
	<line class="st10" x1="16.4" y1="48.9" x2="16.4" y2="47.1"/>
	<g>
		<path class="st2" d="M16.3,50.5c-1.1,0-1.9-0.9-1.9-1.9c0-1,0.9-1.9,1.9-1.9c1,0,1.9,0.9,1.9,1.9C18.3,49.6,17.4,50.5,16.3,50.5z"
			/>
	</g>
	<polyline class="st11" points="335.1,146.1 338.8,153.4 342.5,146.1 338.8,147.9 	"/>
	<line class="st12" x1="338.8" y1="142.8" x2="338.8" y2="147.9"/>
	<polyline class="st11" points="108.3,146.1 112,153.4 115.7,146.1 112,147.9 	"/>
	<line class="st12" x1="112" y1="142.8" x2="112" y2="147.9"/>
	<g>
		<path class="st13" d="M192,94.7c0,1-0.9,1.9-2.1,1.9c-1.1,0-2-0.7-2-1.6c0-0.4,0.3-0.6,0.6-0.6c0.3,0,0.6,0.2,0.6,0.6
			c0,0.4-0.3,0.6-0.7,0.5c0.3,0.6,1.1,0.8,1.5,0.8c0.4,0,1.1-0.3,1.1-1.6c0-1-0.4-1.7-1.2-1.7h-0.4c-0.2,0-0.2,0-0.2-0.1
			c0-0.1,0.1-0.1,0.1-0.1c0.1,0,0.3,0,0.4,0c0.2,0,0.6,0,0.9-0.5c0.3-0.4,0.3-1,0.3-1.1c0-0.9-0.5-1.1-1-1.1c-0.4,0-1,0.1-1.3,0.6
			c0.1,0,0.6,0,0.6,0.5c0,0.3-0.2,0.5-0.5,0.5c-0.3,0-0.5-0.2-0.5-0.5c0-0.8,0.8-1.4,1.8-1.4c1,0,1.8,0.6,1.8,1.4
			c0,0.8-0.6,1.5-1.4,1.8C191.4,93.1,192,93.9,192,94.7z"/>
	</g>
	<path class="st14" d="M196.8,92.8L196.8,92.8c0-3.8-3.1-6.9-6.9-6.9c-3.8,0-6.9,3.1-6.9,6.9s3.1,6.9,6.9,6.9
		C193.7,99.8,196.8,96.7,196.8,92.8L196.8,92.8z"/>
	<g>
		<path class="st2" d="M218.3,101.9c-1.1,0-1.9-0.9-1.9-1.9c0-1,0.9-1.9,1.9-1.9c1,0,1.9,0.9,1.9,1.9
			C220.2,101,219.3,101.9,218.3,101.9z M219.8,99.9c0-0.9-0.7-1.5-1.5-1.5c-0.9,0-1.5,0.7-1.5,1.5c0,0.8,0.7,1.5,1.5,1.5
			C219.1,101.5,219.8,100.8,219.8,99.9z"/>
		<path class="st2" d="M236,101.9c-1.1,0-1.9-0.9-1.9-1.9c0-1,0.9-1.9,1.9-1.9c1,0,1.9,0.9,1.9,1.9C237.9,101,237.1,101.9,236,101.9
			z M237.5,99.9c0-0.9-0.7-1.5-1.5-1.5c-0.9,0-1.5,0.7-1.5,1.5c0,0.8,0.7,1.5,1.5,1.5C236.8,101.5,237.5,100.8,237.5,99.9z"/>
	</g>
	<line class="st1" x1="220.1" y1="100.3" x2="234.3" y2="100.3"/>
	<polyline points="341.1,90.6 338.8,86.1 336.5,90.6 338.8,89.5 	"/>
	<path class="st1" d="M338.8,89.5v49.7 M232.5,121.5h212.6"/>
	<g>
		<path class="st2" d="M347,90c0,0.1-0.1,0.2-0.2,0.2c-0.1,0-0.1,0-0.2-0.3l-0.4-5l-2.9,5.1c-0.1,0.1-0.1,0.2-0.2,0.2
			c-0.1,0-0.1-0.1-0.2-0.3l-0.4-6.1c0-0.3,0-0.4-0.5-0.4c-0.2,0-0.2,0-0.2-0.1c0-0.2,0.1-0.2,0.2-0.2c0.3,0,0.7,0,1,0
			c0.4,0,0.8,0,1.2,0c0,0,0.1,0,0.1,0.1c0,0.2-0.1,0.2-0.2,0.2c-0.8,0-0.8,0.2-0.8,0.4l0.4,5.1l2.5-4.4l-0.1-0.8
			c0-0.2-0.1-0.2-0.5-0.2c-0.1,0-0.2,0-0.2-0.1c0-0.2,0.1-0.2,0.2-0.2c0.2,0,0.8,0,1,0c0.4,0,0.8,0,1.2,0c0,0,0.2,0,0.2,0.1
			c0,0.2-0.1,0.2-0.3,0.2c-0.7,0-0.7,0.3-0.7,0.5l0.4,4.9l2.7-4.7c0.1-0.1,0.1-0.2,0.1-0.3c0-0.3-0.3-0.4-0.6-0.4
			c-0.1,0-0.1,0-0.1-0.1c0-0.2,0.1-0.2,0.2-0.2c0.3,0,0.7,0,1,0c0.2,0,0.5,0,0.8,0c0.1,0,0.1,0.1,0.1,0.1c0,0.2-0.1,0.2-0.2,0.2
			c-0.6,0-0.9,0.4-1.1,0.8L347,90z"/>
	</g>
	<g>
		<path class="st2" d="M355.1,92.4c-0.1,0-1-0.6-1.6-1.9c-0.5-1.1-0.7-2.3-0.7-3.1c0-0.8,0.1-1.9,0.6-3c0.6-1.3,1.5-1.9,1.6-1.9
			c0.1,0,0.1,0,0.1,0.1c0,0,0,0-0.1,0.2c-1.2,1.2-1.6,3-1.6,4.7c0,1.5,0.3,3.4,1.6,4.7C355.2,92.3,355.2,92.3,355.1,92.4
			C355.2,92.4,355.2,92.4,355.1,92.4z"/>
		<path class="st2" d="M357.2,89.1c0.2,0.4,0.6,0.7,1.1,0.7c0.1,0,1,0,1.3-1c0-0.1,0-0.1,0.1-0.1c0,0,0.1,0,0.1,0.1
			c0,0.2-0.4,1.3-1.7,1.3c-1.1,0-2.2-1-2.2-2.3c0-1.2,0.9-2.3,2.1-2.3c1.2,0,1.8,1,1.8,2c0,0.2,0,0.2-0.2,0.2h-2.8
			C356.9,88,356.9,88.7,357.2,89.1z M359.3,87.4c0-0.4-0.1-1.7-1.1-1.7c-0.3,0-1.2,0.2-1.2,1.7H359.3z"/>
	</g>
	<g>
		<path class="st2" d="M362.3,86.8c0,0.9-0.6,1.5-1.4,1.5c-0.6,0-1.1-0.3-1.1-0.8c0-0.3,0.2-0.5,0.5-0.5c0.3,0,0.5,0.2,0.5,0.5
			c0,0.3-0.2,0.4-0.3,0.4c0.3,0.1,0.5,0.1,0.5,0.1c0.6,0,0.7-0.9,0.7-1.3v-3.9c0-0.5-0.1-0.6-0.9-0.6V82l1.5-0.1V86.8z M361.8,80.7
			c-0.3,0-0.5-0.2-0.5-0.5s0.2-0.5,0.5-0.5s0.5,0.2,0.5,0.5S362.1,80.7,361.8,80.7z"/>
	</g>
	<g>
		<path class="st2" d="M364.7,86.4c-0.6,0-1-0.7-1-1.5c0-1.6,1.1-3.5,2.2-3.5c0.7,0,1,0.8,1,1.5C366.9,84.5,365.8,86.4,364.7,86.4z
			 M364.5,84c-0.1,0.3-0.2,0.8-0.2,1.3c0,0.4,0.1,0.9,0.4,0.9c0.3,0,0.6-0.3,0.8-0.7c0.2-0.3,0.4-0.7,0.6-1.5H364.5z M366.2,83.8
			c0.1-0.6,0.2-1,0.2-1.3c0-0.1,0-0.9-0.4-0.9c-0.4,0-1,0.7-1.4,2.2H366.2z"/>
	</g>
	<g>
		<path class="st2" d="M370,90.5c-0.6,1.3-1.5,1.9-1.6,1.9c-0.1,0-0.1,0-0.1-0.1c0,0,0-0.1,0.1-0.2c1.2-1.3,1.6-3,1.6-4.7
			c0-2.1-0.6-3.7-1.5-4.7c-0.2-0.2-0.2-0.2-0.2-0.2c0-0.1,0-0.1,0.1-0.1c0.1,0,1,0.6,1.6,1.9c0.5,1.1,0.7,2.3,0.7,3.1
			C370.7,88.3,370.5,89.4,370,90.5z"/>
	</g>
	<polyline points="419.3,138 423.8,135.7 419.3,133.4 420.4,135.7 	"/>
	<line class="st1" x1="402.6" y1="135.7" x2="420.4" y2="135.7"/>
	<g>
		<path class="st2" d="M433.6,139.3c-0.9,0-1.2-1.1-1.2-2c0-2.3,1.5-5.1,2.9-5.1c1,0,1.2,1.4,1.2,2
			C436.5,136.4,435,139.3,433.6,139.3z M433.3,135.9c-0.3,1-0.3,1.6-0.3,2c0,0.9,0.2,1.2,0.5,1.2c0.4,0,0.8-0.5,1.2-1.2
			c0.4-0.7,0.6-1.6,0.7-2H433.3z M435.5,135.6c0.2-1,0.3-1.5,0.3-2c0-0.6-0.1-1.2-0.5-1.2c-0.4,0-0.8,0.6-1.1,1
			c-0.4,0.7-0.6,1.5-0.8,2.1H435.5z"/>
	</g>
	<g>
		<path class="st2" d="M444.2,129.3c-0.1,0.5-0.1,0.5-0.3,1c-0.1,0.4-0.2,0.6-0.5,0.6c-0.1,0-0.3-0.1-0.3-0.3c0-0.1,0-0.1,0.1-0.2
			c0.4-0.9,1-2.1,1.3-3.3h-0.6c-0.2,0-0.8,0-1.3,0.8c-0.1,0.1-0.1,0.1-0.2,0.1c-0.1,0-0.1-0.1-0.1-0.1c0,0,0.3-0.5,0.6-0.9
			c0.4-0.5,0.8-0.5,1-0.5h3.3c0.2,0,0.4,0,0.4,0.2c0,0.3-0.4,0.3-0.5,0.3h-1.1c-0.1,0.5-0.2,1.1-0.2,1.6c0,0.3,0,0.9,0.3,1.6
			c0.1,0.1,0.1,0.2,0.1,0.2c0,0.2-0.2,0.4-0.4,0.4c-0.1,0-0.3-0.1-0.4-0.5c-0.1-0.3-0.1-0.6-0.1-0.8c0-0.7,0.1-1.1,0.4-2.6h-1.1
			L444.2,129.3z"/>
	</g>
	<line class="st1" x1="445.1" y1="118" x2="445.1" y2="125.1"/>
	<g>
		<path class="st2" d="M226.8,128.8c-0.2,0-0.3,0-0.3-0.2c0-0.2,0.2-0.2,0.3-0.2h5.4c0.2,0,0.3,0,0.3,0.2c0,0.2-0.2,0.2-0.3,0.2
			H226.8z"/>
	</g>
	<g>
		<path class="st2" d="M235.5,129.6c-0.1,0.5-0.1,0.5-0.3,1c-0.1,0.4-0.2,0.6-0.5,0.6c-0.1,0-0.3-0.1-0.3-0.3c0-0.1,0-0.1,0.1-0.2
			c0.4-0.9,1-2.1,1.3-3.3h-0.6c-0.2,0-0.8,0-1.3,0.8c-0.1,0.1-0.1,0.1-0.2,0.1c-0.1,0-0.1-0.1-0.1-0.1c0,0,0.3-0.5,0.6-0.9
			c0.4-0.5,0.8-0.5,1-0.5h3.3c0.2,0,0.4,0,0.4,0.2c0,0.3-0.4,0.3-0.5,0.3h-1.1c-0.1,0.5-0.2,1.1-0.2,1.6c0,0.3,0,0.9,0.3,1.6
			c0.1,0.1,0.1,0.2,0.1,0.2c0,0.2-0.2,0.4-0.4,0.4c-0.1,0-0.3-0.1-0.4-0.5c-0.1-0.3-0.1-0.6-0.1-0.8c0-0.7,0.1-1.1,0.4-2.6h-1.1
			L235.5,129.6z"/>
	</g>
	<line class="st1" x1="232.5" y1="118" x2="232.5" y2="125.1"/>
	<polyline points="203.2,138 207.7,135.7 203.2,133.4 204.3,135.7 	"/>
	<line class="st1" x1="186.4" y1="135.7" x2="204.3" y2="135.7"/>
	<g>
		<path class="st2" d="M216.8,135c0.1-0.5,0.2-0.6,0.2-0.8c0-0.3-0.1-0.5-0.3-0.5c-0.4,0-0.6,0.5-0.7,1.2c-0.1,0.2-0.1,0.2-0.2,0.2
			c0,0-0.1,0-0.1-0.1c0,0,0.1-0.6,0.3-1c0.1-0.2,0.3-0.6,0.7-0.6c0.5,0,0.9,0.3,0.9,0.9c0.2-0.2,0.7-0.9,1.6-0.9
			c0.7,0,1.1,0.4,1.1,1.1c0,0.6-0.4,1.7-0.6,2.2c-0.1,0.2-0.2,0.5-0.2,0.7c0,0.2,0.1,0.3,0.2,0.3c0.5,0,0.8-0.6,1-1.2
			c0-0.1,0-0.2,0.1-0.2c0,0,0.1,0,0.1,0.1c0,0.1-0.4,1.5-1.3,1.5c-0.5,0-0.8-0.3-0.8-0.8c0-0.1,0-0.2,0.1-0.5
			c0.2-0.4,0.6-1.7,0.6-2.3c0-0.3-0.1-0.7-0.5-0.7c-0.9,0-1.5,0.9-1.6,1.2c0,0-0.1,0.3-0.1,0.5c0,0.2-0.1,0.4-0.2,0.7L217,137
			c-0.1,0.2-0.2,0.7-0.2,0.7c-0.1,0.2-0.2,0.3-0.4,0.3c-0.1,0-0.3-0.1-0.3-0.3c0-0.1,0.1-0.3,0.1-0.4L216.8,135z"/>
	</g>
	<g>
		<path class="st2" d="M110.2,130.9c-0.4,0.9-1.2,1.2-1.7,1.2c-0.5,0-1.2-0.2-1.6-1c-0.4-0.8-0.4-1.7-0.4-2.4c0-0.8,0-1.6,0.4-2.3
			c0.4-0.9,1.1-1.2,1.7-1.2c0.4,0,1.2,0.2,1.7,1.1c0.3,0.7,0.4,1.5,0.4,2.3C110.5,129.5,110.5,130.2,110.2,130.9z M109.6,130.6
			c0.1-0.6,0.1-1.3,0.1-2.1c0-0.6,0-1.4-0.1-1.9c-0.2-1-0.8-1.2-1.2-1.2c-0.2,0-1,0.1-1.2,1.3c-0.1,0.5-0.1,1.2-0.1,1.8
			c0,0.6,0,1.5,0.1,2.1c0.2,1,0.8,1.2,1.2,1.2C108.9,131.9,109.5,131.6,109.6,130.6z"/>
	</g>
	<polyline points="114.3,90.6 112,86.1 109.8,90.6 112,89.5 	"/>
	<line class="st1" x1="112" y1="89.5" x2="112" y2="139.2"/>
	<g>
		<path class="st2" d="M124.4,83.4c0,0.1-0.1,0.4-0.1,0.7c0,0.6,0.3,0.9,0.7,0.9c0.5,0,0.8-0.3,1.1-0.9c0.3-0.5,0.5-1.5,0.5-1.8
			c0-0.5-0.2-0.7-0.4-0.8c-0.1-0.1-0.1-0.1-0.1-0.3c0-0.2,0.2-0.5,0.5-0.5c0.2,0,0.4,0.1,0.4,0.7c0,0.5-0.3,1.8-0.7,2.6
			c-0.3,0.6-0.7,1.2-1.4,1.2c-0.3,0-1-0.1-1.2-0.7c-0.4,0.7-0.9,0.7-1,0.7c-0.7,0-1.4-0.3-1.4-1.3c0-0.4,0.1-0.8,0.6-2
			c0.1-0.2,0.2-0.4,0.2-0.7c0-0.3-0.2-0.3-0.2-0.3c-0.3,0-0.7,0.3-1,1.2c0,0.2-0.1,0.2-0.2,0.2c0,0-0.1,0-0.1-0.1
			c0-0.1,0.4-1.5,1.3-1.5c0.5,0,0.8,0.4,0.8,0.8c0,0.2-0.1,0.3-0.2,0.6c-0.5,1.2-0.5,1.6-0.5,1.9c0,0.2,0,0.9,0.8,0.9
			c0.4,0,0.7-0.3,0.9-0.8c0,0,0-0.1,0-0.2c0-0.2,0-0.4,0.1-0.7c0.1-0.3,0.5-2.2,0.6-2.2c0.1-0.2,0.2-0.3,0.4-0.3
			c0.1,0,0.3,0.1,0.3,0.3c0,0.1-0.1,0.4-0.1,0.6L124.4,83.4z"/>
	</g>
	<g>
		<path class="st2" d="M128.8,87.6v-10h1.4V78h-1v9.2h1v0.4H128.8z"/>
	</g>
	<g>
		<path class="st2" d="M131.8,82.2c0.1-0.5,0.2-0.6,0.2-0.8c0-0.3-0.1-0.5-0.3-0.5c-0.4,0-0.6,0.5-0.7,1.2c-0.1,0.2-0.1,0.2-0.2,0.2
			c0,0-0.1,0-0.1-0.1c0,0,0.1-0.6,0.3-1c0.1-0.2,0.3-0.6,0.7-0.6c0.5,0,0.9,0.3,0.9,0.9c0.2-0.2,0.7-0.9,1.6-0.9
			c0.7,0,1.1,0.4,1.1,1.1c0,0.6-0.4,1.7-0.6,2.2c-0.1,0.2-0.2,0.5-0.2,0.7c0,0.2,0.1,0.3,0.2,0.3c0.5,0,0.8-0.6,1-1.2
			c0-0.1,0-0.2,0.1-0.2c0,0,0.1,0,0.1,0.1c0,0.1-0.4,1.5-1.3,1.5c-0.5,0-0.8-0.3-0.8-0.8c0-0.1,0-0.2,0.1-0.5
			c0.2-0.4,0.6-1.7,0.6-2.3c0-0.3-0.1-0.7-0.5-0.7c-0.9,0-1.5,0.9-1.6,1.2c0,0-0.1,0.3-0.1,0.5c0,0.2-0.1,0.4-0.2,0.7l-0.2,0.9
			c-0.1,0.2-0.2,0.7-0.2,0.7c-0.1,0.2-0.2,0.3-0.4,0.3c-0.1,0-0.3-0.1-0.3-0.3c0-0.1,0.1-0.3,0.1-0.4L131.8,82.2z"/>
	</g>
	<g>
		<path class="st2" d="M137.9,87.6h-1.4v-0.4h1V78h-1v-0.4h1.4V87.6z"/>
	</g>
	<line class="st1" x1="5.7" y1="121.5" x2="218.3" y2="121.5"/>
	<g>
		<path class="st13" d="M5.7,123.1c-1.1,0-1.9-0.9-1.9-1.9c0-1,0.9-1.9,1.9-1.9c1,0,1.9,0.9,1.9,1.9C7.6,122.3,6.7,123.1,5.7,123.1z
			"/>
		<path class="st13" d="M48.2,123.1c-1.1,0-1.9-0.9-1.9-1.9c0-1,0.9-1.9,1.9-1.9c1,0,1.9,0.9,1.9,1.9
			C50.1,122.3,49.3,123.1,48.2,123.1z"/>
	</g>
	<g>
		<path class="st13" d="M27,123.1c-1.1,0-1.9-0.9-1.9-1.9c0-1,0.9-1.9,1.9-1.9c1,0,1.9,0.9,1.9,1.9C28.9,122.3,28,123.1,27,123.1z"
			/>
		<path class="st13" d="M37.6,123.1c-1.1,0-1.9-0.9-1.9-1.9c0-1,0.9-1.9,1.9-1.9c1,0,1.9,0.9,1.9,1.9
			C39.5,122.3,38.6,123.1,37.6,123.1z"/>
	</g>
	<g>
		<path class="st13" d="M16.3,123.1c-1.1,0-1.9-0.9-1.9-1.9c0-1,0.9-1.9,1.9-1.9c1,0,1.9,0.9,1.9,1.9
			C18.3,122.3,17.4,123.1,16.3,123.1z"/>
	</g>
	<path class="st0" d="M58.9,121.5V93.2 M69.5,121.5V93.2 M80.1,121.5V93.2 M90.8,121.5V93.2 M101.4,121.5V93.2 M112,121.5V93.2"/>
	<g>
		<path class="st13" d="M58.8,94.8c-1.1,0-1.9-0.9-1.9-1.9c0-1,0.9-1.9,1.9-1.9c1,0,1.9,0.9,1.9,1.9C60.8,93.9,59.9,94.8,58.8,94.8z
			"/>
		<path class="st13" d="M101.4,94.8c-1.1,0-1.9-0.9-1.9-1.9c0-1,0.9-1.9,1.9-1.9c1,0,1.9,0.9,1.9,1.9
			C103.3,93.9,102.4,94.8,101.4,94.8z"/>
	</g>
	<g>
		<path class="st13" d="M80.1,94.8c-1.1,0-1.9-0.9-1.9-1.9c0-1,0.9-1.9,1.9-1.9c1,0,1.9,0.9,1.9,1.9C82,93.9,81.2,94.8,80.1,94.8z"
			/>
		<path class="st13" d="M90.7,94.8c-1.1,0-1.9-0.9-1.9-1.9c0-1,0.9-1.9,1.9-1.9c1,0,1.9,0.9,1.9,1.9C92.7,93.9,91.8,94.8,90.7,94.8z
			"/>
	</g>
	<g>
		<path class="st13" d="M69.5,94.8c-1.1,0-1.9-0.9-1.9-1.9c0-1,0.9-1.9,1.9-1.9c1,0,1.9,0.9,1.9,1.9C71.4,93.9,70.5,94.8,69.5,94.8z
			"/>
	</g>
	<path class="st0" d="M122.7,121.5V93.2 M133.3,121.5V93.2 M143.9,121.5V93.2 M154.5,121.5V93.2 M165.2,121.5V93.2"/>
	<g>
		<path class="st13" d="M112,94.8c-1.1,0-1.9-0.9-1.9-1.9c0-1,0.9-1.9,1.9-1.9c1,0,1.9,0.9,1.9,1.9C113.9,93.9,113,94.8,112,94.8z"
			/>
		<path class="st13" d="M122.6,94.8c-1.1,0-1.9-0.9-1.9-1.9c0-1,0.9-1.9,1.9-1.9c1,0,1.9,0.9,1.9,1.9
			C124.6,93.9,123.7,94.8,122.6,94.8z"/>
	</g>
	<g>
		<path class="st13" d="M165.1,94.8c-1.1,0-1.9-0.9-1.9-1.9c0-1,0.9-1.9,1.9-1.9c1,0,1.9,0.9,1.9,1.9
			C167.1,93.9,166.2,94.8,165.1,94.8z"/>
	</g>
	<g>
		<path class="st13" d="M143.9,94.8c-1.1,0-1.9-0.9-1.9-1.9c0-1,0.9-1.9,1.9-1.9c1,0,1.9,0.9,1.9,1.9
			C145.8,93.9,144.9,94.8,143.9,94.8z"/>
		<path class="st13" d="M154.5,94.8c-1.1,0-1.9-0.9-1.9-1.9c0-1,0.9-1.9,1.9-1.9c1,0,1.9,0.9,1.9,1.9
			C156.4,93.9,155.6,94.8,154.5,94.8z"/>
	</g>
	<g>
		<path class="st13" d="M133.3,94.8c-1.1,0-1.9-0.9-1.9-1.9c0-1,0.9-1.9,1.9-1.9c1,0,1.9,0.9,1.9,1.9
			C135.2,93.9,134.3,94.8,133.3,94.8z"/>
	</g>
	<g>
		<path class="st13" d="M175.8,123.1c-1.1,0-1.9-0.9-1.9-1.9c0-1,0.9-1.9,1.9-1.9c1,0,1.9,0.9,1.9,1.9
			C177.7,122.3,176.8,123.1,175.8,123.1z"/>
		<path class="st13" d="M218.3,123.1c-1.1,0-1.9-0.9-1.9-1.9c0-1,0.9-1.9,1.9-1.9c1,0,1.9,0.9,1.9,1.9
			C220.2,122.3,219.3,123.1,218.3,123.1z"/>
	</g>
	<g>
		<path class="st13" d="M197,123.1c-1.1,0-1.9-0.9-1.9-1.9c0-1,0.9-1.9,1.9-1.9c1,0,1.9,0.9,1.9,1.9
			C199,122.3,198.1,123.1,197,123.1z"/>
		<path class="st13" d="M207.7,123.1c-1.1,0-1.9-0.9-1.9-1.9c0-1,0.9-1.9,1.9-1.9c1,0,1.9,0.9,1.9,1.9
			C209.6,122.3,208.7,123.1,207.7,123.1z"/>
	</g>
	<g>
		<path class="st13" d="M186.4,123.1c-1.1,0-1.9-0.9-1.9-1.9c0-1,0.9-1.9,1.9-1.9c1,0,1.9,0.9,1.9,1.9
			C188.3,122.3,187.5,123.1,186.4,123.1z"/>
	</g>
	<g>
		<path class="st11" d="M187.7,165.6v-0.3l3.1-4.7c0.1-0.1,0.1-0.1,0.2-0.1c0.2,0,0.2,0.1,0.2,0.3v4.5h1v0.3h-1v0.9
			c0,0.4,0,0.5,0.8,0.5h0.2v0.3c-0.4,0-0.9,0-1.4,0s-0.9,0-1.3,0V167h0.2c0.7,0,0.8-0.1,0.8-0.5v-0.9H187.7z M190.4,161.6l-2.4,3.7
			h2.4V161.6z"/>
	</g>
	<path class="st15" d="M196.8,163.7L196.8,163.7c0-3.8-3.1-6.9-6.9-6.9c-3.8,0-6.9,3.1-6.9,6.9c0,3.8,3.1,6.9,6.9,6.9
		C193.7,170.7,196.8,167.5,196.8,163.7L196.8,163.7z"/>
	<g>
		<path class="st2" d="M218.3,172.7c-1.1,0-1.9-0.9-1.9-1.9c0-1,0.9-1.9,1.9-1.9c1,0,1.9,0.9,1.9,1.9S219.3,172.7,218.3,172.7z
			 M219.8,170.8c0-0.9-0.7-1.5-1.5-1.5c-0.9,0-1.5,0.7-1.5,1.5s0.7,1.5,1.5,1.5C219.1,172.3,219.8,171.7,219.8,170.8z"/>
		<path class="st2" d="M236,172.7c-1.1,0-1.9-0.9-1.9-1.9c0-1,0.9-1.9,1.9-1.9c1,0,1.9,0.9,1.9,1.9S237.1,172.7,236,172.7z
			 M237.5,170.8c0-0.9-0.7-1.5-1.5-1.5c-0.9,0-1.5,0.7-1.5,1.5s0.7,1.5,1.5,1.5C236.8,172.3,237.5,171.7,237.5,170.8z"/>
	</g>
	<line class="st1" x1="220.1" y1="171.1" x2="234.3" y2="171.1"/>
	<g>
		<path class="st2" d="M344.4,159.4c0,0.2,0,0.4-0.2,0.4s-0.2-0.2-0.2-0.4v-9.2c0-0.2,0-0.4,0.2-0.4s0.2,0.2,0.2,0.4V159.4z"/>
	</g>
	<g>
		<path class="st2" d="M351.8,156.6c0,0.1,0,0.1,0,0.2c0,0.2,0.3,0.2,0.6,0.2c0.2,0,0.3,0,0.3,0.1c0,0.2-0.1,0.2-0.2,0.2
			c-0.2,0-0.4,0-0.6,0c-0.2,0-0.4,0-0.6,0c-0.3,0-1,0-1.3,0c0,0-0.1,0-0.1-0.1c0-0.2,0.1-0.2,0.2-0.2c0.6,0,0.8,0,0.9-0.3
			c0-0.1,0.3-1.1,0.7-2.8h-3l-0.7,2.7c0,0.1,0,0.1,0,0.2c0,0.2,0.3,0.2,0.6,0.2c0.2,0,0.3,0,0.3,0.1c0,0.2-0.1,0.2-0.2,0.2
			c-0.2,0-0.4,0-0.6,0c-0.2,0-0.4,0-0.6,0c-0.3,0-1,0-1.3,0c0,0-0.1,0-0.1-0.1c0-0.2,0.1-0.2,0.3-0.2c0.8,0,0.8-0.1,0.9-0.5l1.3-5.4
			c0-0.1,0-0.1,0-0.2c0-0.1-0.1-0.1-0.3-0.2c-0.2,0-0.4,0-0.4,0c-0.2,0-0.3,0-0.3-0.1c0-0.2,0.1-0.2,0.2-0.2c0.3,0,1,0,1.3,0
			c0.3,0,1,0,1.3,0c0,0,0.1,0,0.1,0.1c0,0.2-0.1,0.2-0.3,0.2c-0.7,0-0.7,0.1-0.8,0.5l-0.6,2.3h3l0.6-2.4c0-0.1,0-0.1,0-0.2
			c0-0.1-0.1-0.1-0.3-0.2c-0.2,0-0.4,0-0.4,0c-0.2,0-0.3,0-0.3-0.1c0-0.2,0.1-0.2,0.2-0.2c0.3,0,1,0,1.3,0c0.3,0,1,0,1.3,0
			c0,0,0.1,0,0.1,0.1c0,0.2-0.1,0.2-0.3,0.2c-0.7,0-0.7,0.1-0.8,0.5L351.8,156.6z"/>
	</g>
	<g>
		<path class="st2" d="M357.8,159.8c-0.1,0-1-0.6-1.6-1.9c-0.5-1.1-0.7-2.3-0.7-3.1c0-0.8,0.1-1.9,0.6-3c0.6-1.3,1.5-1.9,1.6-1.9
			c0.1,0,0.1,0,0.1,0.1c0,0,0,0-0.1,0.2c-1.2,1.2-1.6,3-1.6,4.7c0,1.5,0.3,3.4,1.6,4.7C357.9,159.6,357.9,159.6,357.8,159.8
			C357.9,159.7,357.9,159.8,357.8,159.8z"/>
		<path class="st2" d="M359.9,156.5c0.2,0.4,0.6,0.7,1.1,0.7c0.1,0,1,0,1.3-1c0-0.1,0-0.1,0.1-0.1c0,0,0.1,0,0.1,0.1
			c0,0.2-0.4,1.3-1.7,1.3c-1.1,0-2.2-1-2.2-2.3c0-1.2,0.9-2.3,2.1-2.3c1.2,0,1.8,1,1.8,2c0,0.2,0,0.2-0.2,0.2h-2.8
			C359.6,155.3,359.6,156,359.9,156.5z M362,154.8c0-0.4-0.1-1.7-1.1-1.7c-0.3,0-1.2,0.3-1.2,1.7H362z"/>
	</g>
	<g>
		<path class="st2" d="M365,154.2c0,0.9-0.6,1.5-1.4,1.5c-0.6,0-1.1-0.3-1.1-0.8c0-0.3,0.2-0.5,0.5-0.5c0.3,0,0.5,0.2,0.5,0.5
			c0,0.3-0.2,0.4-0.3,0.4c0.3,0.1,0.5,0.1,0.5,0.1c0.6,0,0.7-0.9,0.7-1.3v-3.9c0-0.5-0.1-0.6-0.9-0.6v-0.3l1.5-0.1V154.2z
			 M364.5,148.1c-0.3,0-0.5-0.2-0.5-0.5s0.2-0.5,0.5-0.5s0.5,0.2,0.5,0.5S364.8,148.1,364.5,148.1z"/>
	</g>
	<g>
		<path class="st2" d="M367.5,153.7c-0.6,0-1-0.7-1-1.5c0-1.6,1.1-3.5,2.2-3.5c0.7,0,1,0.8,1,1.5
			C369.6,151.8,368.5,153.7,367.5,153.7z M367.2,151.4c-0.1,0.3-0.2,0.8-0.2,1.3c0,0.4,0.1,0.9,0.4,0.9c0.3,0,0.6-0.3,0.8-0.7
			c0.2-0.3,0.4-0.7,0.6-1.5H367.2z M368.9,151.1c0.1-0.6,0.2-1,0.2-1.3c0-0.1,0-0.9-0.4-0.9c-0.4,0-1,0.7-1.4,2.2H368.9z"/>
	</g>
	<g>
		<path class="st2" d="M372.7,157.8c-0.6,1.3-1.5,1.9-1.6,1.9c-0.1,0-0.1,0-0.1-0.1c0,0,0,0,0.1-0.2c1.2-1.3,1.6-3,1.6-4.7
			c0-2.1-0.6-3.7-1.5-4.7c-0.2-0.2-0.2-0.2-0.2-0.2c0-0.1,0-0.1,0.1-0.1c0.1,0,1,0.6,1.6,1.9c0.5,1.1,0.7,2.3,0.7,3.1
			C373.4,155.6,373.3,156.7,372.7,157.8z"/>
	</g>
	<g>
		<path class="st2" d="M375.9,159.4c0,0.2,0,0.4-0.2,0.4s-0.2-0.2-0.2-0.4v-9.2c0-0.2,0-0.4,0.2-0.4s0.2,0.2,0.2,0.4V159.4z"/>
	</g>
	<g>
		<path class="st2" d="M332.1,163c0,0.4,0,0.5,0.9,0.5h0.3v0.3c-0.3,0-1.2,0-1.6,0s-1.3,0-1.6,0v-0.3h0.3c0.9,0,0.9-0.1,0.9-0.5
			v-5.2c-0.5,0.3-1.1,0.3-1.3,0.3v-0.3c0.3,0,1.2,0,1.8-0.6c0.2,0,0.2,0,0.2,0.3V163z"/>
	</g>
	<line class="st1" x1="232.5" y1="188.9" x2="232.5" y2="195.9"/>
	<polyline points="341.1,161.5 338.8,157 336.5,161.5 338.8,160.4 	"/>
	<path class="st1" d="M338.8,160.4v46.2 M232.5,192.4h212.6"/>
	<g>
		<path class="st2" d="M378.6,202.4c-0.9,0-1.2-1.1-1.2-2c0-2.3,1.5-5.1,2.9-5.1c1,0,1.2,1.4,1.2,2
			C381.5,199.5,380,202.4,378.6,202.4z M378.4,198.9c-0.3,1-0.3,1.6-0.3,2c0,0.9,0.2,1.2,0.5,1.2c0.4,0,0.8-0.5,1.2-1.2
			c0.4-0.7,0.6-1.6,0.7-2H378.4z M380.5,198.6c0.2-1,0.3-1.5,0.3-2c0-0.6-0.1-1.2-0.5-1.2c-0.4,0-0.8,0.6-1.1,1
			c-0.4,0.7-0.6,1.5-0.8,2.1H380.5z"/>
	</g>
	<g>
		<path class="st2" d="M384.1,200.8c-0.3,0-0.7,0.2-1,0.5c-0.4,0.5-0.5,1.2-0.5,1.4c0,0.4,0.2,0.8,0.7,0.8c0.1,0,0.9,0,1.5-0.6
			c0.1-0.1,0.1-0.1,0.1-0.1c0.1,0,0.1,0.1,0.1,0.1c0,0.1-0.6,0.8-1.7,0.8c-0.9,0-1.3-0.6-1.3-1.2c0-1,1-1.9,2-1.9
			c0.4,0,0.9,0.1,0.9,0.6c0,0.3-0.2,0.4-0.4,0.4c-0.1,0-0.3-0.1-0.3-0.3c0-0.2,0.1-0.3,0.4-0.4C384.6,200.8,384.2,200.8,384.1,200.8
			z"/>
	</g>
	<polyline points="419.3,208.8 423.8,206.6 419.3,204.3 420.4,206.6 	"/>
	<line class="st1" x1="402.6" y1="206.6" x2="420.4" y2="206.6"/>
	<g>
		<path class="st2" d="M433.6,210.2c-0.9,0-1.2-1.1-1.2-2c0-2.3,1.5-5.1,2.9-5.1c1,0,1.2,1.4,1.2,2
			C436.5,207.3,435,210.2,433.6,210.2z M433.3,206.8c-0.3,1-0.3,1.6-0.3,2c0,0.9,0.2,1.2,0.5,1.2c0.4,0,0.8-0.5,1.2-1.2
			c0.4-0.7,0.6-1.6,0.7-2H433.3z M435.5,206.4c0.2-1,0.3-1.5,0.3-2c0-0.6-0.1-1.2-0.5-1.2c-0.4,0-0.8,0.6-1.1,1
			c-0.4,0.7-0.6,1.5-0.8,2.1H435.5z"/>
	</g>
	<g>
		<path class="st2" d="M289.2,200c-0.2,0-0.3,0-0.3-0.2s0.2-0.2,0.3-0.2h5.4c0.2,0,0.3,0,0.3,0.2s-0.2,0.2-0.3,0.2H289.2z"/>
	</g>
	<g>
		<path class="st2" d="M297.4,202.4c-0.9,0-1.2-1.1-1.2-2c0-2.3,1.5-5.1,2.9-5.1c1,0,1.2,1.4,1.2,2
			C300.3,199.5,298.8,202.4,297.4,202.4z M297.2,198.9c-0.3,1-0.3,1.6-0.3,2c0,0.9,0.2,1.2,0.5,1.2c0.4,0,0.8-0.5,1.2-1.2
			c0.4-0.7,0.6-1.6,0.7-2H297.2z M299.3,198.6c0.2-1,0.3-1.5,0.3-2c0-0.6-0.1-1.2-0.5-1.2c-0.4,0-0.8,0.6-1.1,1
			c-0.4,0.7-0.6,1.5-0.8,2.1H299.3z"/>
	</g>
	<g>
		<path class="st2" d="M302.9,200.8c-0.3,0-0.7,0.2-1,0.5c-0.4,0.5-0.5,1.2-0.5,1.4c0,0.4,0.2,0.8,0.7,0.8c0.1,0,0.9,0,1.5-0.6
			c0.1-0.1,0.1-0.1,0.1-0.1c0.1,0,0.1,0.1,0.1,0.1c0,0.1-0.6,0.8-1.7,0.8c-0.9,0-1.3-0.6-1.3-1.2c0-1,1-1.9,2-1.9
			c0.4,0,0.9,0.1,0.9,0.6c0,0.3-0.2,0.4-0.4,0.4c-0.1,0-0.3-0.1-0.3-0.3c0-0.2,0.1-0.3,0.4-0.4C303.3,200.8,303,200.8,302.9,200.8z"
			/>
	</g>
	<g>
		<path class="st2" d="M226.8,199.7c-0.2,0-0.3,0-0.3-0.2s0.2-0.2,0.3-0.2h5.4c0.2,0,0.3,0,0.3,0.2s-0.2,0.2-0.3,0.2H226.8z"/>
	</g>
	<g>
		<path class="st2" d="M235.5,200.5c-0.1,0.5-0.1,0.5-0.3,1c-0.1,0.4-0.2,0.6-0.5,0.6c-0.1,0-0.3-0.1-0.3-0.3c0-0.1,0-0.1,0.1-0.2
			c0.4-0.9,1-2.1,1.3-3.3h-0.6c-0.2,0-0.8,0-1.3,0.8c-0.1,0.1-0.1,0.1-0.2,0.1c-0.1,0-0.1-0.1-0.1-0.1c0,0,0.3-0.5,0.6-0.9
			c0.4-0.5,0.8-0.5,1-0.5h3.3c0.2,0,0.4,0,0.4,0.2c0,0.3-0.4,0.3-0.5,0.3h-1.1c-0.1,0.5-0.2,1.1-0.2,1.6c0,0.3,0,0.9,0.3,1.6
			c0.1,0.1,0.1,0.2,0.1,0.2c0,0.2-0.2,0.4-0.4,0.4c-0.1,0-0.3-0.1-0.4-0.5c-0.1-0.3-0.1-0.6-0.1-0.8c0-0.7,0.1-1.1,0.4-2.6h-1.1
			L235.5,200.5z"/>
	</g>
	<line class="st16" x1="381.3" y1="192.4" x2="381.3" y2="164.1"/>
	<line class="st17" x1="381.3" y1="164.1" x2="296.3" y2="164.1"/>
	<line class="st16" x1="296.3" y1="164.1" x2="296.3" y2="192.4"/>
	<line class="st18" x1="381.3" y1="192.4" x2="445.1" y2="192.4"/>
	<line class="st18" x1="232.5" y1="192.4" x2="296.3" y2="192.4"/>
	<line class="st1" x1="445.1" y1="188.9" x2="445.1" y2="195.9"/>
	<g>
		<path class="st2" d="M444.2,200.1c-0.1,0.5-0.1,0.5-0.3,1c-0.1,0.4-0.2,0.6-0.5,0.6c-0.1,0-0.3-0.1-0.3-0.3c0-0.1,0-0.1,0.1-0.2
			c0.4-0.9,1-2.1,1.3-3.3h-0.6c-0.2,0-0.8,0-1.3,0.8c-0.1,0.1-0.1,0.1-0.2,0.1c-0.1,0-0.1-0.1-0.1-0.1c0,0,0.3-0.5,0.6-0.9
			c0.4-0.5,0.8-0.5,1-0.5h3.3c0.2,0,0.4,0,0.4,0.2c0,0.3-0.4,0.3-0.5,0.3h-1.1c-0.1,0.5-0.2,1.1-0.2,1.6c0,0.3,0,0.9,0.3,1.6
			c0.1,0.1,0.1,0.2,0.1,0.2c0,0.2-0.2,0.4-0.4,0.4c-0.1,0-0.3-0.1-0.4-0.5c-0.1-0.3-0.1-0.6-0.1-0.8c0-0.7,0.1-1.1,0.4-2.6h-1.1
			L444.2,200.1z"/>
	</g>
	<polyline points="203.2,208.8 207.7,206.6 203.2,204.3 204.3,206.6 	"/>
	<line class="st1" x1="186.4" y1="206.6" x2="204.3" y2="206.6"/>
	<g>
		<path class="st2" d="M216.8,205.8c0.1-0.5,0.2-0.6,0.2-0.8c0-0.3-0.1-0.5-0.3-0.5c-0.4,0-0.6,0.5-0.7,1.2
			c-0.1,0.2-0.1,0.2-0.2,0.2c0,0-0.1,0-0.1-0.1c0,0,0.1-0.6,0.3-1c0.1-0.2,0.3-0.6,0.7-0.6c0.5,0,0.9,0.3,0.9,0.9
			c0.2-0.2,0.7-0.9,1.6-0.9c0.7,0,1.1,0.4,1.1,1.1c0,0.6-0.4,1.7-0.6,2.2c-0.1,0.2-0.2,0.5-0.2,0.7c0,0.2,0.1,0.3,0.2,0.3
			c0.5,0,0.8-0.6,1-1.2c0-0.1,0-0.2,0.1-0.2c0,0,0.1,0,0.1,0.1c0,0.1-0.4,1.5-1.3,1.5c-0.5,0-0.8-0.3-0.8-0.8c0-0.1,0-0.2,0.1-0.5
			c0.2-0.4,0.6-1.7,0.6-2.3c0-0.3-0.1-0.7-0.5-0.7c-0.9,0-1.5,0.9-1.6,1.2c0,0-0.1,0.3-0.1,0.5c0,0.2-0.1,0.4-0.2,0.7l-0.2,0.9
			c-0.1,0.2-0.2,0.7-0.2,0.7c-0.1,0.2-0.2,0.3-0.4,0.3c-0.1,0-0.3-0.1-0.3-0.3c0,0,0.1-0.3,0.1-0.4L216.8,205.8z"/>
	</g>
	<g>
		<path class="st2" d="M110.2,201.8c-0.4,0.9-1.2,1.2-1.7,1.2c-0.5,0-1.2-0.2-1.6-1c-0.4-0.8-0.4-1.7-0.4-2.4c0-0.8,0-1.6,0.4-2.3
			c0.4-0.9,1.1-1.2,1.7-1.2c0.4,0,1.2,0.2,1.7,1.1c0.3,0.7,0.4,1.5,0.4,2.3C110.5,200.3,110.5,201.1,110.2,201.8z M109.6,201.5
			c0.1-0.6,0.1-1.3,0.1-2.1c0-0.6,0-1.4-0.1-1.9c-0.2-1-0.8-1.2-1.2-1.2c-0.2,0-1,0.1-1.2,1.3c-0.1,0.5-0.1,1.2-0.1,1.8
			c0,0.6,0,1.5,0.1,2.1c0.2,1,0.8,1.2,1.2,1.2C108.9,202.7,109.5,202.4,109.6,201.5z"/>
	</g>
	<polyline points="114.3,161.5 112,157 109.8,161.5 112,160.4 	"/>
	<path class="st1" d="M112,160.4v49.7 M5.7,192.4h219.7"/>
	<g>
		<path class="st11" d="M165.1,194c-1.1,0-1.9-0.9-1.9-1.9c0-1,0.9-1.9,1.9-1.9c1,0,1.9,0.9,1.9,1.9S166.2,194,165.1,194z"/>
	</g>
	<g>
		<path class="st11" d="M58.8,194c-1.1,0-1.9-0.9-1.9-1.9c0-1,0.9-1.9,1.9-1.9c1,0,1.9,0.9,1.9,1.9S59.9,194,58.8,194z"/>
	</g>
	<g>
		<path class="st2" d="M123.2,155.8c0.4-0.5,0.8-0.8,1.5-0.8c0.7,0,1.1,0.4,1.1,1.1c0,0.6-0.4,1.8-0.6,2.2c-0.1,0.2-0.2,0.5-0.2,0.7
			c0,0.2,0.1,0.3,0.2,0.3c0.5,0,0.9-0.7,1-1.2c0-0.1,0-0.2,0.1-0.2c0,0,0.1,0,0.1,0.1c0,0.1-0.4,1.5-1.3,1.5c-0.5,0-0.8-0.3-0.8-0.8
			c0-0.2,0-0.3,0.1-0.5c0.2-0.6,0.6-1.7,0.6-2.2c0-0.4-0.1-0.7-0.5-0.7c-0.4,0-0.7,0.2-1,0.3c-0.3,0.3-0.6,0.8-0.7,0.9
			c0,0.1-0.1,0.4-0.1,0.4c0,0.2-0.1,0.4-0.2,0.7l-0.2,0.9l-0.2,0.8c0,0.1-0.2,0.3-0.4,0.3c-0.1,0-0.3,0-0.3-0.3c0-0.1,0-0.1,0-0.2
			l1.4-5.7l0-0.2c0-0.1,0-0.2-0.5-0.2c-0.1,0-0.2,0-0.2-0.1c0-0.2,0.1-0.2,0.2-0.2c0.3,0,1-0.1,1.2-0.1c0.1,0,0.1,0.1,0.1,0.1
			L123.2,155.8z"/>
	</g>
	<g>
		<path class="st2" d="M128,162v-10h1.4v0.4h-1v9.2h1v0.4H128z"/>
	</g>
	<g>
		<path class="st2" d="M131.1,156.6c0.1-0.5,0.2-0.6,0.2-0.8c0-0.3-0.1-0.5-0.3-0.5c-0.4,0-0.6,0.5-0.7,1.2
			c-0.1,0.2-0.1,0.2-0.2,0.2c0,0-0.1,0-0.1-0.1c0,0,0.1-0.6,0.3-1c0.1-0.2,0.3-0.6,0.7-0.6c0.5,0,0.9,0.3,0.9,0.9
			c0.2-0.2,0.7-0.9,1.6-0.9c0.7,0,1.1,0.4,1.1,1.1c0,0.6-0.4,1.7-0.6,2.2c-0.1,0.2-0.2,0.5-0.2,0.7c0,0.2,0.1,0.3,0.2,0.3
			c0.5,0,0.8-0.6,1-1.2c0-0.1,0-0.2,0.1-0.2c0,0,0.1,0,0.1,0.1c0,0.1-0.4,1.5-1.3,1.5c-0.5,0-0.8-0.3-0.8-0.8c0-0.1,0-0.2,0.1-0.5
			c0.2-0.4,0.6-1.7,0.6-2.3c0-0.3-0.1-0.7-0.5-0.7c-0.9,0-1.5,0.9-1.6,1.2c0,0-0.1,0.3-0.1,0.5c0,0.2-0.1,0.4-0.2,0.7l-0.2,0.9
			c-0.1,0.2-0.2,0.7-0.2,0.7c-0.1,0.2-0.2,0.3-0.4,0.3c-0.1,0-0.3-0.1-0.3-0.3c0,0,0.1-0.3,0.1-0.4L131.1,156.6z"/>
	</g>
	<g>
		<path class="st2" d="M137.2,162h-1.4v-0.4h1v-9.2h-1V152h1.4V162z"/>
	</g>
	<line class="st19" x1="112" y1="192.4" x2="112" y2="164.1"/>
	<g>
		<path class="st11" d="M112,165.6c-1.1,0-1.9-0.9-1.9-1.9c0-1,0.9-1.9,1.9-1.9c1,0,1.9,0.9,1.9,1.9S113,165.6,112,165.6z"/>
	</g>
	<line class="st19" x1="122.7" y1="192.4" x2="122.7" y2="174.7"/>
	<g>
		<path class="st11" d="M122.6,176.3c-1.1,0-1.9-0.9-1.9-1.9c0-1,0.9-1.9,1.9-1.9c1,0,1.9,0.9,1.9,1.9S123.7,176.3,122.6,176.3z"/>
	</g>
	<line class="st19" x1="133.3" y1="197.7" x2="133.3" y2="192.4"/>
	<g>
		<path class="st11" d="M133.3,199.3c-1.1,0-1.9-0.9-1.9-1.9c0-1,0.9-1.9,1.9-1.9c1,0,1.9,0.9,1.9,1.9S134.3,199.3,133.3,199.3z"/>
	</g>
	<line class="st19" x1="154.5" y1="203" x2="154.5" y2="192.4"/>
	<g>
		<path class="st11" d="M154.5,204.6c-1.1,0-1.9-0.9-1.9-1.9c0-1,0.9-1.9,1.9-1.9c1,0,1.9,0.9,1.9,1.9S155.6,204.6,154.5,204.6z"/>
	</g>
	<line class="st19" x1="143.9" y1="206.6" x2="143.9" y2="192.4"/>
	<g>
		<path class="st11" d="M143.9,208.2c-1.1,0-1.9-0.9-1.9-1.9c0-1,0.9-1.9,1.9-1.9c1,0,1.9,0.9,1.9,1.9S144.9,208.2,143.9,208.2z"/>
	</g>
	<g>
		<path class="st11" d="M175.8,194c-1.1,0-1.9-0.9-1.9-1.9c0-1,0.9-1.9,1.9-1.9c1,0,1.9,0.9,1.9,1.9S176.8,194,175.8,194z"/>
		<path class="st11" d="M218.3,194c-1.1,0-1.9-0.9-1.9-1.9c0-1,0.9-1.9,1.9-1.9c1,0,1.9,0.9,1.9,1.9S219.3,194,218.3,194z"/>
	</g>
	<g>
		<path class="st11" d="M197,194c-1.1,0-1.9-0.9-1.9-1.9c0-1,0.9-1.9,1.9-1.9c1,0,1.9,0.9,1.9,1.9S198.1,194,197,194z"/>
		<path class="st11" d="M207.7,194c-1.1,0-1.9-0.9-1.9-1.9c0-1,0.9-1.9,1.9-1.9c1,0,1.9,0.9,1.9,1.9S208.7,194,207.7,194z"/>
	</g>
	<g>
		<path class="st11" d="M186.4,194c-1.1,0-1.9-0.9-1.9-1.9c0-1,0.9-1.9,1.9-1.9c1,0,1.9,0.9,1.9,1.9S187.5,194,186.4,194z"/>
	</g>
	<g>
		<path class="st11" d="M5.7,194c-1.1,0-1.9-0.9-1.9-1.9c0-1,0.9-1.9,1.9-1.9c1,0,1.9,0.9,1.9,1.9S6.7,194,5.7,194z"/>
		<path class="st11" d="M48.2,194c-1.1,0-1.9-0.9-1.9-1.9c0-1,0.9-1.9,1.9-1.9c1,0,1.9,0.9,1.9,1.9S49.3,194,48.2,194z"/>
	</g>
	<g>
		<path class="st11" d="M27,194c-1.1,0-1.9-0.9-1.9-1.9c0-1,0.9-1.9,1.9-1.9c1,0,1.9,0.9,1.9,1.9S28,194,27,194z"/>
		<path class="st11" d="M37.6,194c-1.1,0-1.9-0.9-1.9-1.9c0-1,0.9-1.9,1.9-1.9c1,0,1.9,0.9,1.9,1.9S38.6,194,37.6,194z"/>
	</g>
	<g>
		<path class="st11" d="M16.3,194c-1.1,0-1.9-0.9-1.9-1.9c0-1,0.9-1.9,1.9-1.9c1,0,1.9,0.9,1.9,1.9S17.4,194,16.3,194z"/>
	</g>
	<line class="st19" x1="69.5" y1="203" x2="69.5" y2="192.4"/>
	<g>
		<path class="st11" d="M69.5,204.6c-1.1,0-1.9-0.9-1.9-1.9c0-1,0.9-1.9,1.9-1.9c1,0,1.9,0.9,1.9,1.9S70.5,204.6,69.5,204.6z"/>
	</g>
	<line class="st19" x1="80.1" y1="206.6" x2="80.1" y2="192.4"/>
	<g>
		<path class="st11" d="M80.1,208.2c-1.1,0-1.9-0.9-1.9-1.9c0-1,0.9-1.9,1.9-1.9c1,0,1.9,0.9,1.9,1.9S81.2,208.2,80.1,208.2z"/>
	</g>
	<line class="st19" x1="90.8" y1="197.7" x2="90.8" y2="192.4"/>
	<g>
		<path class="st11" d="M90.7,199.3c-1.1,0-1.9-0.9-1.9-1.9c0-1,0.9-1.9,1.9-1.9c1,0,1.9,0.9,1.9,1.9S91.8,199.3,90.7,199.3z"/>
	</g>
	<line class="st19" x1="101.4" y1="192.4" x2="101.4" y2="174.7"/>
	<g>
		<path class="st11" d="M101.4,176.3c-1.1,0-1.9-0.9-1.9-1.9c0-1,0.9-1.9,1.9-1.9c1,0,1.9,0.9,1.9,1.9S102.4,176.3,101.4,176.3z"/>
	</g>
	<path class="st12" d="M232.5,185.3c0,0,6.3,6.5,10.6,7.1c3.8,0.5,6.8-3.5,10.6-3.5c3.8,0,6.8,4.1,10.6,3.5
		c4.3-0.6,6.3-7.1,10.6-7.1c4.3,0,6.4,7.8,10.6,7.1c5.8-1,7-9.3,10.6-14.2c3.7-4.9,5.7-10.6,10.6-14.2c3.1-2.3,6.8-3.5,10.6-3.5
		s7.2,1.8,10.6,3.5c4,1.9,6.3,7.1,10.6,7.1c4.3,0,6.7-5.2,10.6-7.1c3.5-1.7,6.8-3.5,10.6-3.5c3.8,0,7.5,1.3,10.6,3.5
		c4.9,3.6,7,9.3,10.6,14.2c3.7,4.9,4.8,13.2,10.6,14.2c4.2,0.7,6.3-7.1,10.6-7.1c4.3,0,6.3,6.5,10.6,7.1c3.8,0.5,6.8-3.5,10.6-3.5
		s6.8,4.1,10.6,3.5c4.3-0.6,10.6-7.1,10.6-7.1l0,0"/>
	<path class="st20" d="M232.5,132.2c0,0,6.2-7.9,10.6-10.6c3.3-2,6.8-3.5,10.6-3.5c3.8,0,7.2,1.8,10.6,3.5c4,1.9,6.3,7.1,10.6,7.1
		c4.3,0,7.2-4.3,10.6-7.1c4-3.3,5.6-10.6,10.6-10.6c5,0,7.2,6.7,10.6,10.6c4,4.6,4.8,14.2,10.6,14.2s8-8.7,10.6-14.2
		c2.2-4.5,1.8-9.4,3.5-14.2c1.9-5.1,2-14.2,7.1-14.2c5,0,5.2,9,7.1,14.2c1.7,4.7,1.4,9.6,3.5,14.2c2.6,5.5,4.8,14.2,10.6,14.2
		s6.6-9.6,10.6-14.2c3.4-3.9,5.6-10.6,10.6-10.6c5,0,6.6,7.3,10.6,10.6c3.4,2.8,6.3,7.1,10.6,7.1c4.3,0,6.7-5.2,10.6-7.1
		c3.5-1.7,6.8-3.5,10.6-3.5s7.3,1.5,10.6,3.5c4.4,2.7,10.6,10.6,10.6,10.6l0,0"/>
</g>
</svg>
