<?xml version="1.0" encoding="utf-8"?>
<!-- Generator: Adobe Illustrator 22.1.0, SVG Export Plug-In . SVG Version: 6.00 Build 0)  -->
<svg version="1.1" id="Layer_1" xmlns="http://www.w3.org/2000/svg" xmlns:xlink="http://www.w3.org/1999/xlink" x="0px" y="0px"
	 viewBox="0 0 299.9 156.9" style="enable-background:new 0 0 299.9 156.9;" xml:space="preserve">
<style type="text/css">
	.st0{fill:#FF0000;}
	.st1{fill:#0000FF;}
	.st2{clip-path:url(#SVGID_2_);fill:none;stroke:#FF0033;stroke-width:0.8504;stroke-linecap:square;stroke-miterlimit:10;}
	.st3{fill:none;stroke:#000000;stroke-width:0.8504;stroke-miterlimit:10;}
	.st4{fill:#1D1D1B;}
	.st5{fill:none;stroke:#0000FF;stroke-width:0.2835;stroke-miterlimit:10;}
	.st6{clip-path:url(#SVGID_4_);fill:none;stroke:#3333FF;stroke-width:0.8504;stroke-linecap:square;stroke-miterlimit:10;}
	.st7{fill:none;stroke:#FFFFFF;stroke-width:0.8504;stroke-miterlimit:10;}
</style>
<g>
	<g>
		<path class="st0" d="M90.6,41.3c0.2,0,0.4,0,0.7,0.2c0.2,0.1,0.4,0.1,0.6,0.1c0.3,0,1-0.2,1.2-0.8c0-0.1,0-0.1,0.1-0.1
			c0.1,0,0.1,0,0.1,0.1c0,0.3-0.6,1.5-1.6,1.5c-0.3,0-0.5-0.2-0.6-0.4c-0.2-0.3-0.3-0.4-0.6-0.4c-0.3,0-0.6,0.3-0.8,0.6
			c-0.1,0.1-0.1,0.1-0.2,0.1c0,0-0.1,0-0.1-0.1c0-0.1,0.3-0.6,1-1.3l0.9-0.8c0.2-0.2,1-0.9,1.4-1.3c-0.3,0-0.4,0-0.8-0.1
			c-0.2-0.1-0.4-0.1-0.6-0.1c-0.1,0-0.7,0-0.8,0.5c0,0.1,0,0.1-0.1,0.1c-0.1,0-0.1-0.1-0.1-0.1c0-0.2,0.5-1.1,1.2-1.1
			c0.3,0,0.5,0.2,0.7,0.4c0.1,0.2,0.3,0.3,0.5,0.3c0.2,0,0.4-0.2,0.7-0.6c0-0.1,0.1-0.1,0.1-0.1c0,0,0.1,0,0.1,0.1
			c0,0-0.2,0.5-1.2,1.4c-0.4,0.4-1,0.9-1,0.9c-0.4,0.3-0.6,0.6-1.2,1.1C90.5,41.3,90.6,41.3,90.6,41.3z"/>
	</g>
	<g>
		<path class="st0" d="M97.7,38.9c-0.1,0-0.3,0-0.3-0.2s0.2-0.2,0.3-0.2h6c0.1,0,0.3,0,0.3,0.2s-0.2,0.2-0.3,0.2H97.7z M97.7,40.9
			c-0.1,0-0.3,0-0.3-0.2s0.2-0.2,0.3-0.2h5.9c0.1,0,0.3,0,0.3,0.2s-0.2,0.2-0.3,0.2H97.7z"/>
	</g>
	<g>
		<path class="st0" d="M111.9,38.4H109c0-0.2,0-0.2,0.1-0.3l1.7-1.7c0.2-0.3,0.7-0.7,0.7-1.3c0-0.6-0.4-1.1-1.1-1.1
			c-0.3,0-0.8,0.2-1,0.6c0.4,0,0.4,0.2,0.4,0.4c0,0.3-0.2,0.4-0.4,0.4c-0.1,0-0.4,0-0.4-0.4c0-0.6,0.6-1.2,1.5-1.2
			c0.9,0,1.6,0.5,1.6,1.4c0,0.7-0.5,1.1-1,1.5c-0.4,0.3-0.7,0.5-1.4,1.2h1.3c0.1,0,0.6,0,0.7,0c0.1-0.1,0.2-0.5,0.2-0.6h0.2
			L111.9,38.4z"/>
		<path class="st0" d="M115.8,38.9c0,0.1,0,0.3-0.2,0.3c-0.2,0-0.2-0.2-0.2-0.3v-2.1h-2.1c-0.1,0-0.3,0-0.3-0.2
			c0-0.2,0.2-0.2,0.3-0.2h2.1v-2.1c0-0.1,0-0.3,0.2-0.3c0.2,0,0.2,0.2,0.2,0.3v2.1h2.1c0.1,0,0.3,0,0.3,0.2c0,0.2-0.2,0.2-0.3,0.2
			h-2.1V38.9z"/>
	</g>
	<g>
		<path class="st0" d="M121,35.5c-0.1,0-0.4,0-0.6,0.1c-0.2,0.1-0.3,0.3-0.3,0.4c0,0.2,0.1,0.3,0.4,0.3c0,0,0.2,0,0.3,0.1
			c0.3,0,1,0.2,1,0.8c0,0.3-0.2,1.2-1.5,1.2c-0.7,0-1.1-0.3-1.1-0.7c0-0.3,0.2-0.5,0.4-0.5c0.1,0,0.3,0.1,0.3,0.3
			c0,0.2-0.2,0.4-0.4,0.4c0.2,0.2,0.6,0.3,0.8,0.3c0.1,0,0.4,0,0.7-0.2c0.3-0.2,0.4-0.4,0.4-0.6c0-0.3-0.4-0.4-0.6-0.5
			c-0.5-0.1-0.6-0.1-0.8-0.3c-0.1-0.1-0.2-0.3-0.2-0.5c0-0.2,0.2-1,1.3-1c0.4,0,0.9,0.2,0.9,0.6c0,0.4-0.3,0.4-0.3,0.4
			c-0.1,0-0.2-0.1-0.2-0.2c0-0.1,0.1-0.3,0.3-0.3C121.5,35.5,121.2,35.5,121,35.5z"/>
	</g>
	<g>
		<path class="st0" d="M123.6,37c-0.2,0-0.4-0.2-0.4-0.4c0-0.2,0.2-0.4,0.4-0.4c0.2,0,0.4,0.2,0.4,0.4C124,36.8,123.8,37,123.6,37z"
			/>
	</g>
	<g>
		<path class="st0" d="M127.3,37.8c0,0.1,0,0.1,0,0.2c0,0.1,0,0.1,0.3,0.1c0.1,0,0.3,0,0.4,0c0.2,0,0.3,0,0.3,0.1
			c0,0.2-0.1,0.2-0.2,0.2c-0.2,0-0.4,0-0.6,0c-0.2,0-0.4,0-0.6,0s-0.4,0-0.6,0s-0.4,0-0.6,0c-0.1,0-0.1-0.1-0.1-0.1
			c0-0.2,0.1-0.2,0.3-0.2c0.7,0,0.8-0.1,0.8-0.3l0.9-3.7c0-0.1,0-0.1,0-0.1c0-0.1,0-0.1-0.2-0.1h-0.3c-1.1,0-1.3,0.1-1.7,1.2
			c0,0.1-0.1,0.2-0.1,0.2c-0.1,0-0.1-0.1-0.1-0.1c0,0,0-0.1,0-0.1l0.4-1.2c0-0.1,0.1-0.1,0.2-0.1h4.3c0.1,0,0.2,0,0.2,0.1l-0.2,1.3
			c0,0.1,0,0.2-0.1,0.2c-0.1,0-0.1,0-0.1-0.1l0-0.1c0-0.4,0-0.5,0-0.6c0-0.3,0-0.5-0.3-0.6c-0.2-0.1-0.4-0.1-0.8-0.1
			c-0.1,0-0.4,0-0.4,0c-0.2,0-0.2,0-0.2,0.2L127.3,37.8z"/>
	</g>
	<polyline class="st0" points="108.6,40 130.8,40 130.8,39.6 108.6,39.6 	"/>
	<g>
		<path class="st0" d="M111.9,45.7H109c0-0.2,0-0.2,0.1-0.3l1.7-1.7c0.2-0.3,0.7-0.7,0.7-1.3c0-0.6-0.4-1.1-1.1-1.1
			c-0.3,0-0.8,0.2-1,0.6c0.4,0,0.4,0.2,0.4,0.4c0,0.3-0.2,0.4-0.4,0.4c-0.1,0-0.4,0-0.4-0.4c0-0.6,0.6-1.2,1.5-1.2
			c0.9,0,1.6,0.5,1.6,1.4c0,0.7-0.5,1.1-1,1.5c-0.4,0.3-0.7,0.5-1.4,1.2h1.3c0.1,0,0.6,0,0.7,0c0.1-0.1,0.2-0.5,0.2-0.6h0.2
			L111.9,45.7z"/>
	</g>
	<g>
		<path class="st0" d="M113.6,44.1c-0.1,0-0.3,0-0.3-0.2c0-0.2,0.2-0.2,0.3-0.2h4.2c0.1,0,0.3,0,0.3,0.2c0,0.2-0.2,0.2-0.3,0.2
			H113.6z"/>
	</g>
	<g>
		<path class="st0" d="M121.1,42.8c-0.1,0-0.4,0-0.6,0.1c-0.2,0.1-0.3,0.3-0.3,0.4c0,0.2,0.1,0.3,0.4,0.3c0,0,0.2,0,0.3,0.1
			c0.3,0,1,0.2,1,0.8c0,0.3-0.2,1.2-1.5,1.2c-0.7,0-1.1-0.3-1.1-0.7c0-0.3,0.2-0.5,0.4-0.5c0.1,0,0.3,0.1,0.3,0.3
			c0,0.2-0.2,0.4-0.4,0.4c0.2,0.2,0.6,0.3,0.8,0.3c0.1,0,0.4,0,0.7-0.2c0.3-0.2,0.4-0.4,0.4-0.6c0-0.3-0.4-0.4-0.6-0.5
			c-0.5-0.1-0.6-0.1-0.8-0.3c-0.1-0.1-0.2-0.3-0.2-0.5c0-0.2,0.2-1,1.3-1c0.4,0,0.9,0.2,0.9,0.6c0,0.4-0.3,0.4-0.3,0.4
			c-0.1,0-0.2-0.1-0.2-0.2c0-0.1,0.1-0.3,0.3-0.3C121.6,42.8,121.3,42.8,121.1,42.8z"/>
	</g>
	<g>
		<path class="st0" d="M123.7,44.3c-0.2,0-0.4-0.2-0.4-0.4c0-0.2,0.2-0.4,0.4-0.4c0.2,0,0.4,0.2,0.4,0.4
			C124.1,44.1,123.9,44.3,123.7,44.3z"/>
	</g>
	<g>
		<path class="st0" d="M127.4,45.1c0,0.1,0,0.1,0,0.2c0,0.1,0,0.1,0.3,0.1c0.1,0,0.3,0,0.4,0c0.2,0,0.3,0,0.3,0.1
			c0,0.2-0.1,0.2-0.2,0.2c-0.2,0-0.4,0-0.6,0c-0.2,0-0.4,0-0.6,0s-0.4,0-0.6,0s-0.4,0-0.6,0c-0.1,0-0.1-0.1-0.1-0.1
			c0-0.2,0.1-0.2,0.3-0.2c0.7,0,0.8-0.1,0.8-0.3l0.9-3.7c0-0.1,0-0.1,0-0.1c0-0.1,0-0.1-0.2-0.1h-0.3c-1.1,0-1.3,0.1-1.7,1.2
			c0,0.1-0.1,0.2-0.1,0.2c-0.1,0-0.1-0.1-0.1-0.1c0,0,0-0.1,0-0.1l0.4-1.2c0-0.1,0.1-0.1,0.2-0.1h4.3c0.1,0,0.2,0,0.2,0.1l-0.2,1.3
			c0,0.1,0,0.2-0.1,0.2c-0.1,0-0.1,0-0.1-0.1l0-0.1c0-0.4,0-0.5,0-0.6c0-0.3,0-0.5-0.3-0.6c-0.2-0.1-0.4-0.1-0.8-0.1
			c-0.1,0-0.4,0-0.4,0c-0.2,0-0.2,0-0.2,0.2L127.4,45.1z"/>
	</g>
	<g>
		<path class="st0" d="M106.4,52.7c-0.2,0-0.4,0-0.4-0.2s0.2-0.2,0.3-0.2h5.9c-0.5-0.5-1-1.3-1-1.5c0-0.1,0.1-0.1,0.2-0.1
			c0.1,0,0.1,0,0.3,0.2c0.6,1.1,1.6,2,2.9,2.4c0.2,0.1,0.2,0.1,0.2,0.1l0,0c0,0,0,0,0,0.1c0,0,0,0,0,0.1c0,0,0,0-0.2,0.1
			c-0.5,0.1-1.2,0.4-1.9,1c-0.6,0.6-0.9,1.1-1.1,1.5c0,0.1-0.1,0.1-0.2,0.1c-0.1,0-0.2,0-0.2-0.1c0-0.1,0.5-1,1-1.5h-5.9
			c-0.2,0-0.3,0-0.3-0.2s0.2-0.2,0.4-0.2h6.3c0.4-0.3,0.9-0.6,1.3-0.8c-0.3-0.1-0.8-0.4-1.3-0.8H106.4z"/>
	</g>
	<g>
		<path class="st1" d="M83.8,141.6c-0.9,0-1.1,0.6-1.1,0.9c0,0.4,0.4,0.5,0.8,0.6c0.4,0.1,0.7,0.1,1,0.4c0.1,0.1,0.3,0.4,0.3,0.7
			c0,0.4-0.4,1.7-2,1.7c-0.9,0-1.4-0.4-1.4-1c0-0.4,0.3-0.7,0.6-0.7c0.2,0,0.4,0.1,0.4,0.3c0,0.3-0.2,0.6-0.6,0.5
			c0.2,0.5,1,0.5,1.1,0.5c1.2,0,1.4-0.8,1.4-1.1c0-0.5-0.5-0.7-1-0.8c-0.3-0.1-1-0.2-1-1c0-0.4,0.4-1.5,1.7-1.5
			c0.8,0,1.2,0.4,1.2,0.9c0,0.4-0.2,0.6-0.5,0.6s-0.3-0.1-0.3-0.3c0-0.2,0.2-0.4,0.5-0.4C84.5,141.6,84,141.6,83.8,141.6z"/>
	</g>
	<g>
		<path class="st1" d="M89.1,142.5c-0.1,0-0.3,0-0.3-0.2c0-0.2,0.2-0.2,0.3-0.2h6c0.1,0,0.3,0,0.3,0.2c0,0.2-0.2,0.2-0.3,0.2H89.1z
			 M89.1,144.4c-0.1,0-0.3,0-0.3-0.2s0.2-0.2,0.3-0.2H95c0.1,0,0.3,0,0.3,0.2s-0.2,0.2-0.3,0.2H89.1z"/>
	</g>
	<g>
		<path class="st1" d="M104.1,141.8h-2.9c0-0.2,0-0.2,0.1-0.3l1.7-1.7c0.2-0.3,0.7-0.7,0.7-1.3c0-0.6-0.4-1.1-1.1-1.1
			c-0.3,0-0.8,0.2-1,0.6c0.4,0,0.4,0.2,0.4,0.4c0,0.3-0.2,0.4-0.4,0.4c-0.1,0-0.4,0-0.4-0.4c0-0.6,0.6-1.2,1.5-1.2
			c0.9,0,1.6,0.5,1.6,1.4c0,0.7-0.5,1.1-1,1.5c-0.4,0.3-0.7,0.5-1.4,1.2h1.3c0.1,0,0.6,0,0.7,0c0.1-0.1,0.2-0.5,0.2-0.6h0.2
			L104.1,141.8z"/>
	</g>
	<polyline class="st1" points="100,143.5 105.8,143.5 105.8,143 100,143 	"/>
	<g>
		<path class="st1" d="M102.4,148.7c0,0.1,0,0.1,0,0.2c0,0.1,0,0.1,0.3,0.1c0.1,0,0.3,0,0.4,0c0.2,0,0.3,0,0.3,0.1
			c0,0.2-0.1,0.2-0.2,0.2c-0.2,0-0.4,0-0.6,0c-0.2,0-0.4,0-0.6,0s-0.4,0-0.6,0s-0.4,0-0.6,0c-0.1,0-0.1-0.1-0.1-0.1
			c0-0.2,0.1-0.2,0.3-0.2c0.7,0,0.8-0.1,0.8-0.3l0.9-3.7c0-0.1,0-0.1,0-0.1c0-0.1,0-0.1-0.2-0.1h-0.3c-1.1,0-1.3,0.1-1.7,1.2
			c0,0.1-0.1,0.2-0.1,0.2c-0.1,0-0.1-0.1-0.1-0.1c0,0,0-0.1,0-0.1l0.4-1.2c0-0.1,0.1-0.1,0.2-0.1h4.3c0.1,0,0.2,0,0.2,0.1l-0.2,1.3
			c0,0.1,0,0.2-0.1,0.2c-0.1,0-0.1,0-0.1-0.1l0-0.1c0-0.4,0-0.5,0-0.6c0-0.3,0-0.5-0.3-0.6c-0.2-0.1-0.4-0.1-0.8-0.1
			c-0.1,0-0.4,0-0.4,0c-0.2,0-0.2,0-0.2,0.2L102.4,148.7z"/>
	</g>
	<g>
		<path class="st1" d="M110.5,143.8c-0.3,0-0.5-0.2-0.5-0.5s0.2-0.5,0.5-0.5c0.3,0,0.5,0.2,0.5,0.5S110.7,143.8,110.5,143.8z"/>
	</g>
	<g>
		<path class="st1" d="M117.7,141.2c0,0.2,0,0.3,0.7,0.3h0.3v0.3c-0.2,0-1,0-1.2,0c-0.3,0-1.1,0-1.2,0v-0.3h0.3
			c0.7,0,0.7-0.1,0.7-0.3v-3.6c-0.4,0.2-0.8,0.2-1,0.2v-0.3c0.3,0,0.9,0,1.4-0.4c0.2,0,0.2,0,0.2,0.2V141.2z"/>
	</g>
	<g>
		<path class="st1" d="M120.3,140.2c-0.1,0-0.3,0-0.3-0.2c0-0.2,0.2-0.2,0.3-0.2h4.2c0.1,0,0.3,0,0.3,0.2c0,0.2-0.2,0.2-0.3,0.2
			H120.3z"/>
	</g>
	<g>
		<path class="st1" d="M126.8,141.2c0.1,0,0.2,0,0.5,0.1c0.2,0,0.3,0.1,0.5,0.1c0.3,0,0.8-0.2,0.9-0.5c0-0.1,0-0.1,0.1-0.1
			c0,0,0.1,0,0.1,0.1c0,0.2-0.5,1.1-1.2,1.1c-0.2,0-0.4-0.1-0.6-0.3c-0.2-0.2-0.3-0.2-0.4-0.2c-0.2,0-0.5,0.2-0.6,0.4
			c0,0.1,0,0.1-0.1,0.1c0,0-0.1,0-0.1-0.1c0-0.1,0.2-0.4,0.6-0.8c0.1-0.1,0.3-0.3,0.9-0.7c0.7-0.5,0.8-0.7,1-0.8
			c-0.2,0-0.2,0-0.6-0.1c-0.1,0-0.3-0.1-0.4-0.1c-0.1,0-0.5,0-0.6,0.3c0,0.1,0,0.1-0.1,0.1c0,0-0.1,0-0.1-0.1c0-0.2,0.4-0.8,0.9-0.8
			c0.2,0,0.3,0,0.6,0.3c0.2,0.2,0.3,0.2,0.4,0.2c0.2,0,0.3-0.1,0.5-0.4c0-0.1,0.1-0.1,0.1-0.1c0,0,0.1,0,0.1,0.1
			c0,0.1-0.3,0.4-0.7,0.9c-0.2,0.2-0.7,0.6-0.9,0.7c-0.6,0.5-0.7,0.6-0.9,0.8C126.7,141.2,126.8,141.2,126.8,141.2z"/>
	</g>
	<g>
		<path class="st1" d="M130.6,137.7c-0.1,0-0.2,0-0.2-0.1c0-0.1,0.1-0.1,0.2-0.1h3.4c0.1,0,0.2,0,0.2,0.1c0,0.1-0.1,0.1-0.2,0.1
			H130.6z"/>
	</g>
	<g>
		<path class="st1" d="M137,138.4c0,0.2,0,0.2,0.5,0.2h0.2v0.2c-0.3,0-0.7,0-1,0s-0.7,0-1,0v-0.2h0.2c0.5,0,0.5-0.1,0.5-0.2v-2.5
			c-0.3,0.1-0.6,0.1-0.7,0.1h-0.1v-0.2h0.1c0.1,0,0.7,0,1-0.3c0.2,0,0.2,0,0.2,0.1V138.4z"/>
	</g>
	<polyline class="st1" points="115.3,143.5 139,143.5 139,143 115.3,143 	"/>
	<g>
		<path class="st1" d="M117.7,148.7c0,0.2,0,0.3,0.7,0.3h0.3v0.3c-0.2,0-1,0-1.2,0c-0.3,0-1.1,0-1.2,0V149h0.3
			c0.7,0,0.7-0.1,0.7-0.3v-3.6c-0.4,0.2-0.8,0.2-1,0.2V145c0.3,0,0.9,0,1.4-0.4c0.2,0,0.2,0,0.2,0.2V148.7z"/>
		<path class="st1" d="M122.5,149.8c0,0.1,0,0.3-0.2,0.3c-0.2,0-0.2-0.2-0.2-0.3v-2.1H120c-0.1,0-0.3,0-0.3-0.2
			c0-0.2,0.2-0.2,0.3-0.2h2.1v-2.1c0-0.1,0-0.3,0.2-0.3c0.2,0,0.2,0.2,0.2,0.3v2.1h2.1c0.1,0,0.3,0,0.3,0.2c0,0.2-0.2,0.2-0.3,0.2
			h-2.1V149.8z"/>
	</g>
	<g>
		<path class="st1" d="M126.7,148.6c0.1,0,0.2,0,0.5,0.1c0.2,0,0.3,0.1,0.5,0.1c0.3,0,0.8-0.2,0.9-0.5c0-0.1,0-0.1,0.1-0.1
			c0,0,0.1,0,0.1,0.1c0,0.2-0.5,1.1-1.2,1.1c-0.2,0-0.4-0.1-0.6-0.3c-0.2-0.2-0.3-0.2-0.4-0.2c-0.2,0-0.5,0.2-0.6,0.4
			c0,0.1,0,0.1-0.1,0.1c0,0-0.1,0-0.1-0.1c0-0.1,0.2-0.4,0.6-0.8c0.1-0.1,0.3-0.3,0.9-0.7c0.7-0.5,0.8-0.7,1-0.8
			c-0.2,0-0.2,0-0.6-0.1c-0.1,0-0.3-0.1-0.4-0.1c-0.1,0-0.5,0-0.6,0.3c0,0.1,0,0.1-0.1,0.1c0,0-0.1,0-0.1-0.1c0-0.2,0.4-0.8,0.9-0.8
			c0.2,0,0.3,0,0.6,0.3c0.2,0.2,0.3,0.2,0.4,0.2c0.2,0,0.3-0.1,0.5-0.4c0-0.1,0.1-0.1,0.1-0.1c0,0,0.1,0,0.1,0.1
			c0,0.1-0.3,0.4-0.7,0.9c-0.2,0.2-0.7,0.6-0.9,0.7c-0.6,0.5-0.7,0.6-0.9,0.8C126.6,148.6,126.7,148.6,126.7,148.6z"/>
	</g>
	<g>
		<path class="st1" d="M130.5,146.1c-0.1,0-0.2,0-0.2-0.1c0-0.1,0.1-0.1,0.2-0.1h3.4c0.1,0,0.2,0,0.2,0.1c0,0.1-0.1,0.1-0.2,0.1
			H130.5z"/>
	</g>
	<g>
		<path class="st1" d="M136.9,146.8c0,0.2,0,0.2,0.5,0.2h0.2v0.2c-0.3,0-0.7,0-1,0s-0.7,0-1,0V147h0.2c0.5,0,0.5-0.1,0.5-0.2v-2.5
			c-0.3,0.1-0.6,0.1-0.7,0.1h-0.1v-0.2h0.1c0.1,0,0.7,0,1-0.3c0.2,0,0.2,0,0.2,0.1V146.8z"/>
	</g>
	<g>
		<path class="st1" d="M108.6,129.1c0.5,0.5,1,1.3,1,1.5c0,0.1-0.1,0.1-0.2,0.1c-0.1,0-0.1,0-0.3-0.2c-0.6-1.1-1.6-2-2.9-2.4
			c-0.2-0.1-0.2-0.1-0.2-0.1l0,0c0,0,0,0,0-0.1c0,0,0,0,0-0.1c0,0,0,0,0.2-0.1c0.5-0.1,1.2-0.4,1.9-1c0.6-0.6,0.9-1.1,1.1-1.5
			c0-0.1,0.1-0.1,0.2-0.1c0.1,0,0.2,0,0.2,0.1c0,0.1-0.5,1-1,1.5h5.9c0.2,0,0.3,0,0.3,0.2c0,0.2-0.2,0.2-0.4,0.2h-6.3
			c-0.4,0.3-0.9,0.6-1.3,0.8c0.3,0.1,0.8,0.4,1.3,0.8h6.3c0.2,0,0.4,0,0.4,0.2s-0.2,0.2-0.3,0.2H108.6z"/>
	</g>
	<g>
		<path class="st1" d="M115.3,70c-0.9,0-1.1,0.6-1.1,0.9c0,0.4,0.4,0.5,0.8,0.6c0.4,0.1,0.7,0.1,1,0.4c0.1,0.1,0.3,0.4,0.3,0.7
			c0,0.4-0.4,1.7-2,1.7c-0.9,0-1.4-0.4-1.4-1c0-0.4,0.3-0.7,0.6-0.7c0.2,0,0.4,0.1,0.4,0.3c0,0.3-0.2,0.6-0.6,0.5
			c0.2,0.5,1,0.5,1.1,0.5c1.2,0,1.4-0.8,1.4-1.1c0-0.5-0.5-0.7-1-0.8c-0.3-0.1-1-0.2-1-1c0-0.4,0.4-1.5,1.7-1.5
			c0.8,0,1.2,0.4,1.2,0.9c0,0.4-0.2,0.6-0.5,0.6s-0.3-0.1-0.3-0.3c0-0.2,0.2-0.4,0.5-0.4C116.1,70.1,115.6,70,115.3,70z"/>
	</g>
	<g>
		<path class="st1" d="M120.7,71c-0.1,0-0.3,0-0.3-0.2s0.2-0.2,0.3-0.2h6c0.1,0,0.3,0,0.3,0.2s-0.2,0.2-0.3,0.2H120.7z M120.6,72.9
			c-0.1,0-0.3,0-0.3-0.2s0.2-0.2,0.3-0.2h5.9c0.1,0,0.3,0,0.3,0.2s-0.2,0.2-0.3,0.2H120.6z"/>
	</g>
	<g>
		<path class="st1" d="M134.4,73.8h2.8c0.2,0,0.3,0,0.3,0.2s-0.2,0.2-0.3,0.2h-5.9c-0.2,0-0.3,0-0.3-0.2s0.2-0.2,0.3-0.2h2.8v-2.7
			h-2.8c-0.2,0-0.3,0-0.3-0.2s0.2-0.2,0.3-0.2h2.8v-2.8c0-0.2,0-0.3,0.2-0.3s0.2,0.2,0.2,0.4v2.8h2.8c0.2,0,0.3,0,0.3,0.2
			s-0.2,0.2-0.3,0.2h-2.8V73.8z"/>
	</g>
	<g>
		<path class="st1" d="M140.2,74.7c0,0.9-0.6,1.5-1.4,1.5c-0.6,0-1.1-0.3-1.1-0.8c0-0.3,0.2-0.5,0.5-0.5c0.3,0,0.5,0.2,0.5,0.5
			c0,0.3-0.2,0.4-0.3,0.4c0.3,0.1,0.5,0.1,0.5,0.1c0.6,0,0.7-0.9,0.7-1.3v-3.9c0-0.5-0.1-0.6-0.9-0.6v-0.3l1.5-0.1V74.7z
			 M139.7,68.6c-0.3,0-0.5-0.2-0.5-0.5s0.2-0.5,0.5-0.5s0.5,0.2,0.5,0.5S140,68.6,139.7,68.6z"/>
	</g>
	<g>
		<path class="st1" d="M148.6,69.8c1.1,0,1.9,1.1,1.9,2.3c0,1.2-0.8,2.3-1.9,2.3c-0.5,0-1.1-0.2-1.6-0.6c-0.3-0.2-0.4-0.4-1-1.1
			c-0.5,0.8-1.3,1.7-2.5,1.7s-1.9-1.1-1.9-2.3c0-1.2,0.8-2.3,1.9-2.3c0.5,0,1.1,0.2,1.6,0.6c0.3,0.2,0.4,0.4,1,1.1
			C146.7,70.7,147.5,69.8,148.6,69.8z M144.7,70.9c-0.2-0.2-0.7-0.6-1.2-0.6c-0.9,0-1.5,0.8-1.5,1.8c0,0.9,0.5,1.9,1.6,1.9
			c1.1,0,1.9-1,2.3-1.7C145.1,71.5,144.9,71.2,144.7,70.9z M147.5,73.2c0.2,0.2,0.7,0.6,1.2,0.6c0.9,0,1.5-0.8,1.5-1.8
			c0-0.9-0.5-1.9-1.6-1.9c-1.1,0-1.9,1-2.3,1.7C147,72.7,147.3,73,147.5,73.2z"/>
	</g>
	<g>
		<defs>
			<path id="SVGID_1_" d="M258,93.7c0-29.6-24-53.7-53.7-53.7c-29.6,0-53.7,24-53.7,53.7s24,53.7,53.7,53.7
				C234,147.3,258,123.3,258,93.7L258,93.7z"/>
		</defs>
		<clipPath id="SVGID_2_">
			<use xlink:href="#SVGID_1_"  style="overflow:visible;"/>
		</clipPath>
		<path class="st2" d="M207.6,197.7L100.3,90.4 M211.2,194.1L103.9,86.8 M214.8,190.5L107.5,83.2 M218.4,186.9L111.1,79.6
			 M222,183.3L114.7,76 M225.6,179.7L118.3,72.4 M229.2,176.1L121.9,68.8 M232.8,172.5L125.5,65.2 M236.4,168.9L129.1,61.6
			 M240,165.3L132.7,58 M243.6,161.7L136.3,54.4 M247.2,158.1L139.9,50.8 M250.8,154.5L143.5,47.2 M254.4,150.9L147.1,43.6
			 M258,147.3L150.7,40 M261.6,143.7L154.3,36.4 M265.2,140.1L157.9,32.8 M268.8,136.5L161.5,29.2 M272.4,132.9L165.1,25.6
			 M276,129.3L168.7,22 M279.6,125.7L172.3,18.4 M283.2,122.1L175.9,14.8 M286.8,118.5L179.5,11.2 M290.4,114.9L183.1,7.6
			 M294,111.3L186.7,4 M297.6,107.7L190.3,0.4 M301.2,104.1L193.9-3.2 M304.8,100.5L197.5-6.8 M308.4,96.9L201.1-10.4 M312,93.3
			L204.7-14"/>
	</g>
	<path class="st3" d="M258,93.7c0-29.6-24-53.7-53.7-53.7c-29.6,0-53.7,24-53.7,53.7s24,53.7,53.7,53.7
		C234,147.3,258,123.3,258,93.7L258,93.7z"/>
	<polyline points="265.3,95.4 269.8,93.1 265.3,90.9 266.4,93.1 	"/>
	<line class="st3" x1="142.3" y1="93.1" x2="266.4" y2="93.1"/>
	<polyline points="204.8,37.4 202.5,32.9 200.2,37.4 202.5,36.3 	"/>
	<line class="st3" x1="202.5" y1="156.9" x2="202.5" y2="36.3"/>
	<g>
		<path class="st4" d="M192.4,27.6c0,0.4,0,0.5,0.8,0.5h0.3v0.3c-0.3,0-1.1,0-1.5,0c-0.4,0-1.2,0-1.5,0v-0.3h0.3
			c0.8,0,0.8-0.1,0.8-0.5v-5.3c0-0.4,0-0.5-0.8-0.5h-0.3v-0.3c0.3,0,1.1,0,1.5,0c0.4,0,1.2,0,1.5,0v0.3h-0.3c-0.8,0-0.8,0.1-0.8,0.5
			V27.6z"/>
		<path class="st4" d="M194.1,24.4v-0.3l1.4-0.1v1c0.3-0.6,0.7-1,1.5-1c0.4,0,1.2,0.1,1.3,1c0.2-0.4,0.6-1,1.4-1
			c0.6,0,0.9,0.2,1,0.4c0.3,0.4,0.3,0.7,0.3,1.5v1.9c0,0.3,0.3,0.3,0.8,0.3v0.3c-0.3,0-0.9,0-1.1,0c-0.3,0-0.8,0-1.1,0v-0.3
			c0.7,0,0.8,0,0.8-0.4v-2.3c0-0.6-0.1-1.1-0.7-1.1c-0.6,0-1.3,0.6-1.3,1.6v1.8c0,0.4,0.1,0.4,0.8,0.4v0.3c-0.3,0-0.9,0-1.1,0
			c-0.3,0-0.8,0-1.1,0v-0.3c0.7,0,0.8,0,0.8-0.4v-2.3c0-0.6-0.1-1.1-0.7-1.1c-0.6,0-1.3,0.6-1.3,1.6v1.8c0,0.4,0.1,0.4,0.8,0.4v0.3
			c-0.3,0-0.9,0-1.1,0c-0.3,0-0.8,0-1.1,0v-0.3c0.7,0,0.8,0,0.8-0.4V25C194.9,24.5,194.8,24.4,194.1,24.4z"/>
	</g>
	<g>
		<path class="st4" d="M205.3,30.9c-0.1,0-1-0.6-1.6-1.9c-0.5-1.1-0.7-2.3-0.7-3.1c0-0.8,0.1-1.9,0.6-3c0.6-1.3,1.5-1.9,1.6-1.9
			c0.1,0,0.1,0,0.1,0.1c0,0,0,0-0.1,0.2c-1.2,1.2-1.6,3-1.6,4.7c0,1.5,0.3,3.4,1.6,4.7C205.4,30.7,205.4,30.8,205.3,30.9
			C205.4,30.9,205.3,30.9,205.3,30.9z"/>
	</g>
	<g>
		<path class="st4" d="M207.5,27.5c0.2,0,0.4,0,0.7,0.2c0.2,0.1,0.4,0.1,0.6,0.1c0.3,0,1-0.2,1.2-0.8c0-0.1,0-0.1,0.1-0.1
			c0.1,0,0.1,0,0.1,0.1c0,0.3-0.6,1.5-1.6,1.5c-0.3,0-0.5-0.2-0.6-0.4c-0.2-0.3-0.3-0.4-0.6-0.4c-0.3,0-0.6,0.3-0.8,0.6
			c-0.1,0.1-0.1,0.1-0.2,0.1c0,0-0.1,0-0.1-0.1c0-0.1,0.3-0.6,1-1.3l0.9-0.8c0.2-0.2,1-0.9,1.4-1.3c-0.3,0-0.4,0-0.8-0.1
			c-0.2-0.1-0.4-0.1-0.6-0.1c-0.1,0-0.7,0-0.8,0.5c0,0.1,0,0.1-0.1,0.1s-0.1-0.1-0.1-0.1c0-0.2,0.5-1.1,1.2-1.1
			c0.3,0,0.5,0.2,0.7,0.4c0.1,0.2,0.3,0.3,0.5,0.3s0.4-0.2,0.7-0.6c0-0.1,0.1-0.1,0.1-0.1c0,0,0.1,0,0.1,0.1c0,0-0.2,0.5-1.2,1.4
			c-0.4,0.4-1,0.9-1,0.9c-0.4,0.3-0.6,0.6-1.2,1.1C207.3,27.5,207.5,27.5,207.5,27.5z"/>
	</g>
	<g>
		<path class="st4" d="M213.3,28.9c-0.6,1.3-1.5,1.9-1.6,1.9c-0.1,0-0.1,0-0.1-0.1c0,0,0-0.1,0.1-0.2c1.2-1.3,1.6-3,1.6-4.7
			c0-2.1-0.6-3.7-1.5-4.7c-0.2-0.2-0.2-0.2-0.2-0.2c0-0.1,0-0.1,0.1-0.1c0.1,0,1,0.6,1.6,1.9c0.5,1.1,0.7,2.3,0.7,3.1
			C213.9,26.7,213.8,27.8,213.3,28.9z"/>
	</g>
	<g>
		<path class="st4" d="M280.8,93.5l0.1,0.8c0.1,0.9,0.2,1.4,0.7,1.4c0.2,0,0.6-0.2,0.7-0.9c0-0.1,0-0.2,0.1-0.2
			c0.1,0,0.1,0.1,0.1,0.2c0,0.3-0.2,1.1-0.9,1.1c-0.3,0-0.8-0.1-1.3-0.4c-0.4-0.4-0.4-0.8-0.4-1.4c0-0.7,0-1-0.4-1.3
			c-0.3-0.3-0.8-0.3-0.9-0.3h-1.1v2.5c0,0.4,0,0.5,0.8,0.5h0.2v0.3c-0.4,0-1.1,0-1.5,0s-1.1,0-1.5,0v-0.3h0.2c0.8,0,0.8-0.1,0.8-0.5
			v-5.3c0-0.4,0-0.5-0.8-0.5h-0.2v-0.3h3.1c1.5,0,2.6,0.8,2.6,1.8c0,0.8-0.8,1.4-1.7,1.6C280.2,92.5,280.6,92.8,280.8,93.5z
			 M278.6,92.2c1.5,0,1.7-0.8,1.7-1.5c0-1.4-1.1-1.5-2-1.5c-0.2,0-0.5,0-0.6,0c-0.2,0-0.2,0.1-0.2,0.4v2.6H278.6z"/>
		<path class="st4" d="M284,94.9c0.2,0.4,0.6,0.7,1.1,0.7c0.1,0,1,0,1.3-1c0-0.1,0-0.1,0.1-0.1c0,0,0.1,0,0.1,0.1
			c0,0.2-0.4,1.3-1.7,1.3c-1.1,0-2.2-1-2.2-2.3c0-1.2,0.9-2.3,2.1-2.3c1.2,0,1.8,1,1.8,2c0,0.2,0,0.2-0.2,0.2h-2.8
			C283.7,93.8,283.7,94.4,284,94.9z M286.1,93.2c0-0.4-0.1-1.7-1.1-1.7c-0.3,0-1.2,0.3-1.2,1.7H286.1z"/>
	</g>
	<g>
		<path class="st4" d="M290.2,98.2c-0.1,0-1-0.6-1.6-1.9c-0.5-1.1-0.7-2.3-0.7-3.1c0-0.8,0.1-1.9,0.6-3c0.6-1.3,1.5-1.9,1.6-1.9
			c0.1,0,0.1,0,0.1,0.1c0,0,0,0-0.1,0.2c-1.2,1.2-1.6,3-1.6,4.7c0,1.5,0.3,3.4,1.6,4.7C290.3,98.1,290.3,98.1,290.2,98.2
			C290.3,98.2,290.3,98.2,290.2,98.2z"/>
	</g>
	<g>
		<path class="st4" d="M292.5,94.9c0.2,0,0.4,0,0.7,0.2c0.2,0.1,0.4,0.1,0.6,0.1c0.3,0,1-0.2,1.2-0.8c0-0.1,0-0.1,0.1-0.1
			c0.1,0,0.1,0,0.1,0.1c0,0.3-0.6,1.5-1.6,1.5c-0.3,0-0.5-0.2-0.6-0.4c-0.2-0.3-0.3-0.4-0.6-0.4c-0.3,0-0.6,0.3-0.8,0.6
			c-0.1,0.1-0.1,0.1-0.2,0.1c0,0-0.1,0-0.1-0.1c0-0.1,0.3-0.6,1-1.3l0.9-0.8c0.2-0.2,1-0.9,1.4-1.3c-0.3,0-0.4,0-0.8-0.1
			c-0.2-0.1-0.4-0.1-0.6-0.1c-0.1,0-0.7,0-0.8,0.5c0,0.1,0,0.1-0.1,0.1s-0.1-0.1-0.1-0.1c0-0.2,0.5-1.1,1.2-1.1
			c0.3,0,0.5,0.2,0.7,0.4c0.1,0.2,0.3,0.3,0.5,0.3s0.4-0.2,0.7-0.6c0-0.1,0.1-0.1,0.1-0.1c0,0,0.1,0,0.1,0.1c0,0-0.2,0.5-1.2,1.4
			c-0.4,0.4-1,0.9-1,0.9c-0.4,0.3-0.6,0.6-1.2,1.1C292.3,94.9,292.4,94.9,292.5,94.9z"/>
	</g>
	<g>
		<path class="st4" d="M298.3,96.3c-0.6,1.3-1.5,1.9-1.6,1.9c-0.1,0-0.1,0-0.1-0.1c0,0,0,0,0.1-0.2c1.2-1.3,1.6-3,1.6-4.7
			c0-2.1-0.6-3.7-1.5-4.7c-0.2-0.2-0.2-0.2-0.2-0.2c0-0.1,0-0.1,0.1-0.1c0.1,0,1,0.6,1.6,1.9c0.5,1.1,0.7,2.3,0.7,3.1
			C298.9,94.1,298.8,95.2,298.3,96.3z"/>
	</g>
	<g>
		<path class="st4" d="M263.2,102.7c0,0.4,0,0.5,0.9,0.5h0.3v0.3c-0.3,0-1.2,0-1.6,0s-1.3,0-1.6,0v-0.3h0.3c0.9,0,0.9-0.1,0.9-0.5
			v-5.2c-0.5,0.3-1.1,0.3-1.3,0.3v-0.3c0.3,0,1.2,0,1.8-0.6c0.2,0,0.2,0,0.2,0.3V102.7z"/>
	</g>
	<g>
		<path class="st4" d="M197.2,102.6c-0.4,0.9-1.2,1.2-1.7,1.2c-0.5,0-1.2-0.2-1.6-1c-0.4-0.8-0.4-1.7-0.4-2.4c0-0.8,0-1.6,0.4-2.3
			c0.4-0.9,1.1-1.2,1.7-1.2c0.4,0,1.2,0.2,1.7,1.1c0.3,0.7,0.4,1.5,0.4,2.3C197.5,101.1,197.5,101.9,197.2,102.6z M196.6,102.3
			c0.1-0.6,0.1-1.3,0.1-2.1c0-0.6,0-1.4-0.1-1.9c-0.2-1-0.8-1.2-1.2-1.2c-0.2,0-1,0.1-1.2,1.3c-0.1,0.5-0.1,1.2-0.1,1.8
			c0,0.6,0,1.5,0.1,2.1c0.2,1,0.8,1.2,1.2,1.2C195.9,103.5,196.4,103.2,196.6,102.3z"/>
	</g>
	<g>
		<path class="st1" d="M275.5,70.9c-0.9,0-1.1,0.6-1.1,0.9c0,0.4,0.4,0.5,0.8,0.6c0.4,0.1,0.7,0.1,1,0.4c0.1,0.1,0.3,0.4,0.3,0.7
			c0,0.4-0.4,1.7-2,1.7c-0.9,0-1.4-0.4-1.4-1c0-0.4,0.3-0.7,0.6-0.7c0.2,0,0.4,0.1,0.4,0.3c0,0.3-0.2,0.6-0.6,0.5
			c0.2,0.5,1,0.5,1.1,0.5c1.2,0,1.4-0.8,1.4-1.1c0-0.5-0.5-0.7-1-0.8c-0.3-0.1-1-0.2-1-1c0-0.4,0.4-1.5,1.7-1.5
			c0.8,0,1.2,0.4,1.2,0.9c0,0.4-0.2,0.6-0.5,0.6s-0.3-0.1-0.3-0.3c0-0.2,0.2-0.4,0.5-0.4C276.3,71,275.8,70.9,275.5,70.9z"/>
	</g>
	<g>
		<path class="st1" d="M280.8,71.8c-0.1,0-0.3,0-0.3-0.2s0.2-0.2,0.3-0.2h6c0.1,0,0.3,0,0.3,0.2s-0.2,0.2-0.3,0.2H280.8z
			 M280.8,73.7c-0.1,0-0.3,0-0.3-0.2s0.2-0.2,0.3-0.2h5.9c0.1,0,0.3,0,0.3,0.2s-0.2,0.2-0.3,0.2H280.8z"/>
		<path class="st1" d="M294.7,74.1c-0.4,0.9-1.2,1.2-1.7,1.2c-0.5,0-1.2-0.2-1.6-1c-0.4-0.8-0.4-1.7-0.4-2.4c0-0.8,0-1.6,0.4-2.3
			c0.4-0.9,1.1-1.2,1.7-1.2c0.4,0,1.2,0.2,1.7,1.1c0.3,0.7,0.4,1.5,0.4,2.3C295.1,72.7,295,73.4,294.7,74.1z M294.1,73.8
			c0.1-0.6,0.1-1.3,0.1-2.1c0-0.6,0-1.4-0.1-1.9c-0.2-1-0.8-1.2-1.2-1.2c-0.2,0-1,0.1-1.2,1.3c-0.1,0.5-0.1,1.2-0.1,1.8
			c0,0.6,0,1.5,0.1,2.1c0.2,1,0.8,1.2,1.2,1.2C293.4,75.1,294,74.8,294.1,73.8z"/>
	</g>
	<g>
		<path class="st1" d="M229,20.6c-0.9,0-1.1,0.6-1.1,0.9c0,0.4,0.4,0.5,0.8,0.6c0.4,0.1,0.7,0.1,1,0.4c0.1,0.1,0.3,0.4,0.3,0.7
			c0,0.4-0.4,1.7-2,1.7c-0.9,0-1.4-0.4-1.4-1c0-0.4,0.3-0.7,0.6-0.7c0.2,0,0.4,0.1,0.4,0.3c0,0.3-0.2,0.6-0.6,0.5
			c0.2,0.5,1,0.5,1.1,0.5c1.2,0,1.4-0.8,1.4-1.1c0-0.5-0.5-0.7-1-0.8c-0.3-0.1-1-0.2-1-1c0-0.4,0.4-1.5,1.7-1.5
			c0.8,0,1.2,0.4,1.2,0.9c0,0.4-0.2,0.6-0.5,0.6s-0.3-0.1-0.3-0.3c0-0.2,0.2-0.4,0.5-0.4C229.7,20.7,229.2,20.6,229,20.6z"/>
	</g>
	<g>
		<path class="st1" d="M234.3,21.5c-0.1,0-0.3,0-0.3-0.2s0.2-0.2,0.3-0.2h6c0.1,0,0.3,0,0.3,0.2s-0.2,0.2-0.3,0.2H234.3z
			 M234.3,23.5c-0.1,0-0.3,0-0.3-0.2s0.2-0.2,0.3-0.2h5.9c0.1,0,0.3,0,0.3,0.2s-0.2,0.2-0.3,0.2H234.3z"/>
		<path class="st1" d="M247,24c0.2,0,0.9,0,0.9-0.1c0.1-0.1,0.2-0.6,0.2-0.9h0.2l-0.3,1.7h-3.7c0-0.2,0-0.3,0.1-0.4l1.9-2.1
			c0.5-0.6,1-1.4,1-2.2c0-0.8-0.4-1.6-1.3-1.6c-0.6,0-1.1,0.4-1.3,1c0,0,0,0,0.1,0c0.3,0,0.5,0.3,0.5,0.5c0,0.4-0.3,0.5-0.5,0.5
			c0,0-0.5,0-0.5-0.6c0-0.9,0.7-1.8,1.9-1.8c1.2,0,2.1,0.8,2.1,1.9c0,1-0.6,1.5-2.2,2.9l-1.1,1H247z"/>
	</g>
	<g>
		<path class="st1" d="M251.1,25.3c0,0.9-0.6,1.5-1.4,1.5c-0.6,0-1.1-0.3-1.1-0.8c0-0.3,0.2-0.5,0.5-0.5c0.3,0,0.5,0.2,0.5,0.5
			c0,0.3-0.2,0.4-0.3,0.4c0.3,0.1,0.5,0.1,0.5,0.1c0.6,0,0.7-0.9,0.7-1.3v-3.9c0-0.5-0.1-0.6-0.9-0.6v-0.3l1.5-0.1V25.3z
			 M250.6,19.2c-0.3,0-0.5-0.2-0.5-0.5s0.2-0.5,0.5-0.5s0.5,0.2,0.5,0.5S250.8,19.2,250.6,19.2z"/>
	</g>
	<g>
		<path class="st1" d="M253,27c-0.1,0.2-0.1,0.2-0.2,0.2c-0.1,0-0.2-0.1-0.2-0.2c0,0,0,0,0-0.2l3.5-9.5c0-0.1,0.1-0.1,0.2-0.1
			c0.1,0,0.2,0.1,0.2,0.2c0,0,0,0,0,0.2L253,27z"/>
		<path class="st1" d="M260,24c0,0.1,0,0.2,0,0.2c0,0.2,0.1,0.2,0.4,0.2c0.3,0,0.4,0,0.6,0c0.3,0,0.3,0,0.3,0.1
			c0,0.2-0.1,0.2-0.2,0.2c-0.3,0-0.6,0-0.9,0c-0.3,0-0.5,0-0.8,0c-0.3,0-0.6,0-0.8,0c-0.3,0-0.5,0-0.8,0c-0.1,0-0.2,0-0.2-0.1
			c0-0.2,0.1-0.2,0.4-0.2c1.1,0,1.1-0.1,1.2-0.5l1.3-5.3c0,0,0-0.1,0-0.2c0-0.1,0-0.1-0.3-0.1h-0.4c-1.5,0-1.7,0.2-2.3,1.7
			c-0.1,0.2-0.1,0.2-0.2,0.2c-0.1,0-0.1,0-0.1-0.1c0,0,0-0.2,0.1-0.2l0.6-1.8C258,18,258,18,258.2,18h5.5c0.2,0,0.3,0,0.3,0.1
			c0,0,0,0.1,0,0.2l-0.3,1.7c0,0.1,0,0.2-0.1,0.2c-0.1,0-0.1-0.1-0.1-0.1c0,0,0-0.1,0-0.2c0-0.3,0.1-0.6,0.1-0.8
			c0-0.8-0.4-0.8-1.5-0.8c-0.2,0-0.5,0-0.6,0c-0.1,0-0.2,0.1-0.2,0.4L260,24z"/>
	</g>
	<polyline class="st1" points="264.8,86.4 262.7,89.6 266.5,89.3 264.9,88.3 	"/>
	<line class="st5" x1="264.9" y1="88.3" x2="280.5" y2="79"/>
	<polyline class="st1" points="216.1,34 213.1,36.4 216.8,37.4 215.6,35.9 	"/>
	<line class="st5" x1="215.6" y1="35.9" x2="245" y2="29.4"/>
	<polyline class="st1" points="142.1,88.9 145.8,89.6 144.1,86.2 143.8,88.1 	"/>
	<line class="st5" x1="143.8" y1="88.1" x2="131.6" y2="79"/>
	<polyline points="49.1,95.4 53.7,93.1 49.2,90.8 50.3,93.1 	"/>
	<line class="st3" x1="0.4" y1="92.8" x2="50.3" y2="93.1"/>
	<g>
		<defs>
			<polygon id="SVGID_3_" points="0.4,92.8 0.4,43.2 39.4,43.2 39.4,142.5 0.4,142.5 			"/>
		</defs>
		<clipPath id="SVGID_4_">
			<use xlink:href="#SVGID_3_"  style="overflow:visible;"/>
		</clipPath>
		<path class="st6" d="M18.2,163.7l-69.1-69.1 M21.8,160.1L-47.3,91 M25.4,156.5l-69.1-69.1 M29,152.9l-69.1-69.1 M32.6,149.3
			l-69.1-69.1 M36.2,145.7l-69.1-69.1 M39.8,142.1L-29.3,73 M43.4,138.5l-69.1-69.1 M47,134.9l-69.1-69.1 M50.6,131.3l-69.1-69.1
			 M54.2,127.7l-69.1-69.1 M57.8,124.1L-11.3,55 M61.4,120.5L-7.7,51.4 M65,116.9L-4.1,47.8 M68.6,113.3L-0.5,44.2 M72.2,109.7
			L3.1,40.6 M75.8,106.1L6.7,37 M79.4,102.5L10.3,33.4 M83,98.9L13.9,29.8 M86.6,95.3L17.5,26.2 M90.2,91.7L21.1,22.6"/>
	</g>
	<polygon class="st7" points="0.4,92.8 0.4,43.2 39.4,43.2 39.4,142.5 0.4,142.5 	"/>
	<polyline points="41.7,47.8 39.4,43.2 37.1,47.8 39.4,46.6 	"/>
	<line class="st3" x1="39.4" y1="142.5" x2="39.4" y2="46.6"/>
	<g>
		<path class="st4" d="M61.3,93.5l0.1,0.8c0.1,0.9,0.2,1.4,0.7,1.4c0.2,0,0.6-0.2,0.7-0.9c0-0.1,0-0.2,0.1-0.2
			c0.1,0,0.1,0.1,0.1,0.2c0,0.3-0.2,1.1-0.9,1.1c-0.3,0-0.8-0.1-1.3-0.4c-0.4-0.4-0.4-0.8-0.4-1.4c0-0.7,0-1-0.4-1.3
			c-0.3-0.3-0.8-0.3-0.9-0.3H58v2.5c0,0.4,0,0.5,0.8,0.5h0.2v0.3c-0.4,0-1.1,0-1.5,0c-0.4,0-1.1,0-1.5,0v-0.3h0.2
			c0.8,0,0.8-0.1,0.8-0.5v-5.3c0-0.4,0-0.5-0.8-0.5h-0.2v-0.3h3.1c1.5,0,2.6,0.8,2.6,1.8c0,0.8-0.8,1.4-1.7,1.6
			C60.7,92.5,61.2,92.8,61.3,93.5z M59.1,92.2c1.5,0,1.7-0.8,1.7-1.5c0-1.4-1.1-1.5-2-1.5c-0.2,0-0.5,0-0.6,0
			c-0.2,0-0.2,0.1-0.2,0.4v2.6H59.1z"/>
		<path class="st4" d="M64.5,94.9c0.2,0.4,0.6,0.7,1.1,0.7c0.1,0,1,0,1.3-1c0-0.1,0-0.1,0.1-0.1c0,0,0.1,0,0.1,0.1
			c0,0.2-0.4,1.3-1.7,1.3c-1.1,0-2.2-1-2.2-2.3c0-1.2,0.9-2.3,2.1-2.3c1.2,0,1.8,1,1.8,2c0,0.2,0,0.2-0.2,0.2h-2.8
			C64.2,93.8,64.2,94.4,64.5,94.9z M66.6,93.2c0-0.4-0.1-1.7-1.1-1.7c-0.3,0-1.2,0.3-1.2,1.7H66.6z"/>
	</g>
	<g>
		<path class="st4" d="M70.8,98.2c-0.1,0-1-0.6-1.6-1.9c-0.5-1.1-0.7-2.3-0.7-3.1c0-0.8,0.1-1.9,0.6-3c0.6-1.3,1.5-1.9,1.6-1.9
			c0.1,0,0.1,0,0.1,0.1c0,0,0,0-0.1,0.2c-1.2,1.2-1.6,3-1.6,4.7c0,1.5,0.3,3.4,1.6,4.7C70.9,98.1,70.9,98.1,70.8,98.2
			C70.9,98.2,70.8,98.2,70.8,98.2z"/>
	</g>
	<g>
		<path class="st4" d="M74.4,91.5c-0.9,0-1.1,0.6-1.1,0.9c0,0.4,0.4,0.5,0.8,0.6c0.4,0.1,0.7,0.1,1,0.4c0.1,0.1,0.3,0.4,0.3,0.7
			c0,0.4-0.4,1.7-2,1.7c-0.9,0-1.4-0.4-1.4-1c0-0.4,0.3-0.7,0.6-0.7c0.2,0,0.4,0.1,0.4,0.3c0,0.3-0.2,0.6-0.6,0.5
			c0.2,0.5,1,0.5,1.1,0.5c1.2,0,1.4-0.8,1.4-1.1c0-0.5-0.5-0.7-1-0.8c-0.3-0.1-1-0.2-1-1c0-0.4,0.4-1.5,1.7-1.5
			c0.8,0,1.2,0.4,1.2,0.9c0,0.4-0.2,0.6-0.5,0.6s-0.3-0.1-0.3-0.3c0-0.2,0.2-0.4,0.5-0.4C75.1,91.6,74.6,91.5,74.4,91.5z"/>
	</g>
	<g>
		<path class="st4" d="M78.3,96.3c-0.6,1.3-1.5,1.9-1.6,1.9c-0.1,0-0.1,0-0.1-0.1c0,0,0,0,0.1-0.2c1.2-1.3,1.6-3,1.6-4.7
			c0-2.1-0.6-3.7-1.5-4.7c-0.2-0.2-0.2-0.2-0.2-0.2c0-0.1,0-0.1,0.1-0.1c0.1,0,1,0.6,1.6,1.9c0.5,1.1,0.7,2.3,0.7,3.1
			C78.9,94.1,78.8,95.2,78.3,96.3z"/>
	</g>
	<g>
		<path class="st4" d="M29.5,37.9c0,0.4,0,0.5,0.8,0.5h0.3v0.3c-0.3,0-1.1,0-1.5,0c-0.4,0-1.2,0-1.5,0v-0.3h0.3
			c0.8,0,0.8-0.1,0.8-0.5v-5.3c0-0.4,0-0.5-0.8-0.5h-0.3v-0.3c0.3,0,1.1,0,1.5,0c0.4,0,1.2,0,1.5,0v0.3h-0.3c-0.8,0-0.8,0.1-0.8,0.5
			V37.9z"/>
		<path class="st4" d="M31.1,34.7v-0.3l1.4-0.1v1c0.3-0.6,0.7-1,1.5-1c0.4,0,1.2,0.1,1.3,1c0.2-0.4,0.6-1,1.4-1c0.6,0,0.9,0.2,1,0.4
			c0.3,0.4,0.3,0.7,0.3,1.5v1.9c0,0.3,0.3,0.3,0.8,0.3v0.3c-0.3,0-0.9,0-1.1,0c-0.3,0-0.8,0-1.1,0v-0.3c0.7,0,0.8,0,0.8-0.4v-2.3
			c0-0.6-0.1-1.1-0.7-1.1c-0.6,0-1.3,0.6-1.3,1.6V38c0,0.4,0.1,0.4,0.8,0.4v0.3c-0.3,0-0.9,0-1.1,0c-0.3,0-0.8,0-1.1,0v-0.3
			c0.7,0,0.8,0,0.8-0.4v-2.3c0-0.6-0.1-1.1-0.7-1.1c-0.6,0-1.3,0.6-1.3,1.6V38c0,0.4,0.1,0.4,0.8,0.4v0.3c-0.3,0-0.9,0-1.1,0
			c-0.3,0-0.8,0-1.1,0v-0.3c0.7,0,0.8,0,0.8-0.4v-2.7C31.9,34.8,31.8,34.7,31.1,34.7z"/>
	</g>
	<g>
		<path class="st4" d="M42.3,41.2c-0.1,0-1-0.6-1.6-1.9c-0.5-1.1-0.7-2.3-0.7-3.1c0-0.8,0.1-1.9,0.6-3c0.6-1.3,1.5-1.9,1.6-1.9
			c0.1,0,0.1,0,0.1,0.1c0,0,0,0-0.1,0.2c-1.2,1.2-1.6,3-1.6,4.7c0,1.5,0.3,3.4,1.6,4.7C42.4,41.1,42.4,41.1,42.3,41.2
			C42.4,41.2,42.4,41.2,42.3,41.2z"/>
	</g>
	<g>
		<path class="st4" d="M45.9,34.5c-0.9,0-1.1,0.6-1.1,0.9c0,0.4,0.4,0.5,0.8,0.6c0.4,0.1,0.7,0.1,1,0.4c0.1,0.1,0.3,0.4,0.3,0.7
			c0,0.4-0.4,1.7-2,1.7c-0.9,0-1.4-0.4-1.4-1c0-0.4,0.3-0.7,0.6-0.7c0.2,0,0.4,0.1,0.4,0.3c0,0.3-0.2,0.6-0.6,0.5
			c0.2,0.5,1,0.5,1.1,0.5c1.2,0,1.4-0.8,1.4-1.1c0-0.5-0.5-0.7-1-0.8c-0.3-0.1-1-0.2-1-1c0-0.4,0.4-1.5,1.7-1.5
			c0.8,0,1.2,0.4,1.2,0.9c0,0.4-0.2,0.6-0.5,0.6s-0.3-0.1-0.3-0.3c0-0.2,0.2-0.4,0.5-0.4C46.7,34.6,46.2,34.5,45.9,34.5z"/>
	</g>
	<g>
		<path class="st4" d="M49.9,39.3c-0.6,1.3-1.5,1.9-1.6,1.9c-0.1,0-0.1,0-0.1-0.1c0,0,0-0.1,0.1-0.2c1.2-1.3,1.6-3,1.6-4.7
			c0-2.1-0.6-3.7-1.5-4.7c-0.2-0.2-0.2-0.2-0.2-0.2c0-0.1,0-0.1,0.1-0.1c0.1,0,1,0.6,1.6,1.9c0.5,1.1,0.7,2.3,0.7,3.1
			C50.5,37.1,50.4,38.2,49.9,39.3z"/>
	</g>
	<g>
		<path class="st4" d="M48.3,102.2c-0.4,0.9-1.2,1.2-1.7,1.2c-0.5,0-1.2-0.2-1.6-1c-0.4-0.8-0.4-1.7-0.4-2.4c0-0.8,0-1.6,0.4-2.3
			c0.4-0.9,1.1-1.2,1.7-1.2c0.4,0,1.2,0.2,1.7,1.1c0.3,0.7,0.4,1.5,0.4,2.3C48.6,100.7,48.6,101.5,48.3,102.2z M47.7,101.9
			c0.1-0.6,0.1-1.3,0.1-2.1c0-0.6,0-1.4-0.1-1.9c-0.2-1-0.8-1.2-1.2-1.2c-0.2,0-1,0.1-1.2,1.3c-0.1,0.5-0.1,1.2-0.1,1.8
			c0,0.6,0,1.5,0.1,2.1c0.2,1,0.8,1.2,1.2,1.2C47,103.1,47.5,102.8,47.7,101.9z"/>
	</g>
	<g>
		<path class="st4" d="M65,2.3c1.9,0,3.1,1.2,3.1,2.4c0,1.1-1,2-2.4,2.3c1.7,0.2,2.8,1.3,2.8,2.5c0,1.4-1.3,2.6-3.1,2.6H60v-0.4h0.3
			c1,0,1.1-0.1,1.1-0.7V3.4c0-0.5,0-0.7-1.1-0.7H60V2.3H65z M64.5,6.8c1.6,0,2.3-1.2,2.3-2.1c0-0.8-0.5-2-2-2h-1.8
			c-0.6,0-0.7,0.1-0.7,0.6v3.6H64.5z M65,11.7c1.4,0,2.3-1.1,2.3-2.2c0-1.1-0.7-2.3-2.1-2.3h-2.7v4c0,0.5,0,0.6,0.7,0.6H65z"/>
		<path class="st4" d="M71.8,5.7V11c0,0.6,0.1,0.6,1,0.6v0.4c-0.5,0-1.3,0-1.5,0c-0.4,0-1.1,0-1.5,0v-0.4c0.9,0,1.1,0,1.1-0.6V7.1
			c0-0.7-0.1-0.8-1-0.8V5.9L71.8,5.7z M71.2,3.9c-0.3,0-0.7-0.3-0.7-0.7c0-0.4,0.3-0.7,0.7-0.7c0.4,0,0.7,0.3,0.7,0.7
			C71.9,3.6,71.6,3.9,71.2,3.9z"/>
		<path class="st4" d="M75.8,11c0,0.6,0.2,0.6,1.1,0.6v0.4c-0.4,0-1.1,0-1.5,0c-0.4,0-1.1,0-1.5,0v-0.4c0.9,0,1.1,0,1.1-0.6V3.5
			c0-0.7-0.1-0.8-1.1-0.8V2.3l2-0.2V11z"/>
		<path class="st4" d="M79.7,5.7V11c0,0.6,0.1,0.6,1,0.6v0.4c-0.5,0-1.3,0-1.5,0c-0.4,0-1.1,0-1.5,0v-0.4c0.9,0,1.1,0,1.1-0.6V7.1
			c0-0.7-0.1-0.8-1-0.8V5.9L79.7,5.7z M79,3.9c-0.3,0-0.7-0.3-0.7-0.7c0-0.4,0.3-0.7,0.7-0.7c0.4,0,0.7,0.3,0.7,0.7
			C79.7,3.6,79.4,3.9,79,3.9z"/>
		<path class="st4" d="M87.5,11.2c0,0.4,0.4,0.4,1.1,0.4v0.4c-0.4,0-1.1,0-1.6,0c-0.4,0-1.2,0-1.5,0v-0.4c0.9,0,1.1,0,1.1-0.6V7.6
			c0-0.9-0.2-1.6-1.1-1.6s-1.9,0.8-1.9,2.3V11c0,0.6,0.2,0.6,1.1,0.6v0.4c-0.4,0-1.1,0-1.6,0c-0.4,0-1.2,0-1.5,0v-0.4
			c0.9,0,1.1,0,1.1-0.6V7.1c0-0.7-0.1-0.8-1.1-0.8V5.9l2-0.2v1.5h0c0.1-0.3,0.7-1.5,2.1-1.5c0.5,0,1.2,0.1,1.6,0.6
			c0.3,0.5,0.3,0.9,0.3,2.2V11.2z"/>
		<path class="st4" d="M90.5,8.7V9c0,2.5,1.4,2.9,2.1,2.9c0.6,0,1.6-0.3,1.9-1.5c0-0.1,0.1-0.1,0.2-0.1c0.1,0,0.2,0.1,0.2,0.1
			c0,0.3-0.6,1.9-2.4,1.9c-1.6,0-3.1-1.4-3.1-3.3c0-1.8,1.3-3.3,2.9-3.3c1.7,0,2.5,1.3,2.5,2.8c0,0.3,0,0.3-0.3,0.3H90.5z M93.9,8.5
			C93.9,8,93.8,6,92.2,6c-0.4,0-1.7,0.3-1.8,2.5H93.9z"/>
		<path class="st4" d="M100.7,10.8c0,0.2,0,1,0.5,1c0.2,0,0.5-0.1,0.5-0.9V10h0.3v0.8c0,1.1-0.8,1.3-1.1,1.3c-0.6,0-1.1-0.5-1.1-1.2
			c-0.3,0.7-0.9,1.3-1.9,1.3c-0.9,0-2.2-0.4-2.2-1.5c0-1.1,1.1-2.3,4-2.4V7.8C99.8,6.5,99,6,98.3,6c-0.6,0-1.3,0.3-1.6,0.9
			c0.2,0,0.7,0,0.7,0.6c0,0.3-0.2,0.6-0.6,0.6c-0.3,0-0.6-0.2-0.6-0.6c0-0.9,0.9-1.7,2.1-1.7c0.6,0,1.3,0.2,1.8,0.7
			c0.6,0.6,0.6,1.1,0.6,1.9V10.8z M99.8,8.6c-0.5,0-3,0.2-3,2.1c0,0.7,0.6,1.2,1.3,1.2c0.6,0,1.7-0.5,1.7-1.9V8.6z"/>
	</g>
	<g>
		<path class="st4" d="M104.7,11c0,0.5,0,0.7,1.1,0.7h0.3v0.4c-0.3,0-1.3,0-1.7,0c-0.4,0-1.2,0-1.6,0v-0.4c0.9,0,1.1,0,1.1-0.6V7.1
			c0-0.7-0.1-0.8-1.1-0.8V5.9l1.9-0.2v1.6h0c0.1-0.3,0.5-1.6,1.7-1.6c0.6,0,1,0.4,1,0.8c0,0.4-0.3,0.6-0.6,0.6
			c-0.2,0-0.6-0.2-0.6-0.6c0-0.4,0.2-0.5,0.3-0.5c-0.1,0-0.1,0-0.2,0c-1.1,0-1.7,1.3-1.7,2.7V11z"/>
		<path class="st4" d="M121.9,5.5h-0.3c-0.2-2.3-0.3-2.8-2.6-2.8c-0.3,0-0.7,0-0.8,0c-0.2,0.1-0.3,0.2-0.3,0.5V11
			c0,0.5,0,0.7,1.4,0.7h0.5v0.4c-0.5,0-2,0-2.5,0c-0.6,0-2,0-2.5,0v-0.4h0.5c1.4,0,1.4-0.2,1.4-0.7V3.3c0-0.3,0-0.5-0.3-0.5
			c-0.1,0-0.5,0-0.8,0c-2.3,0-2.4,0.5-2.6,2.8h-0.3l0.3-3.2h8.6L121.9,5.5z"/>
	</g>
	<g>
		<path class="st4" d="M123.7,11c0,0.5,0,0.7,1.1,0.7h0.3v0.4c-0.3,0-1.3,0-1.7,0c-0.4,0-1.2,0-1.6,0v-0.4c0.9,0,1.1,0,1.1-0.6V7.1
			c0-0.7-0.1-0.8-1.1-0.8V5.9l1.9-0.2v1.6h0c0.1-0.3,0.5-1.6,1.7-1.6c0.6,0,1,0.4,1,0.8c0,0.4-0.3,0.6-0.6,0.6
			c-0.2,0-0.6-0.2-0.6-0.6c0-0.4,0.2-0.5,0.3-0.5c-0.1,0-0.1,0-0.2,0c-1.1,0-1.7,1.3-1.7,2.7V11z"/>
		<path class="st4" d="M132.3,10.8c0,0.2,0,1,0.5,1c0.2,0,0.5-0.1,0.5-0.9V10h0.3v0.8c0,1.1-0.8,1.3-1.1,1.3c-0.6,0-1.1-0.5-1.1-1.2
			c-0.3,0.7-0.9,1.3-1.9,1.3c-0.9,0-2.2-0.4-2.2-1.5c0-1.1,1.1-2.3,4-2.4V7.8c0-1.3-0.8-1.8-1.5-1.8c-0.6,0-1.3,0.3-1.6,0.9
			c0.2,0,0.7,0,0.7,0.6c0,0.3-0.2,0.6-0.6,0.6c-0.3,0-0.6-0.2-0.6-0.6c0-0.9,0.9-1.7,2.1-1.7c0.6,0,1.3,0.2,1.8,0.7
			c0.6,0.6,0.6,1.1,0.6,1.9V10.8z M131.4,8.6c-0.5,0-3,0.2-3,2.1c0,0.7,0.6,1.2,1.3,1.2c0.6,0,1.7-0.5,1.7-1.9V8.6z"/>
		<path class="st4" d="M140.2,11.2c0,0.4,0.4,0.4,1.1,0.4v0.4c-0.4,0-1.1,0-1.6,0c-0.4,0-1.2,0-1.5,0v-0.4c0.9,0,1.1,0,1.1-0.6V7.6
			c0-0.9-0.2-1.6-1.1-1.6s-1.9,0.8-1.9,2.3V11c0,0.6,0.2,0.6,1.1,0.6v0.4c-0.4,0-1.1,0-1.6,0c-0.4,0-1.2,0-1.5,0v-0.4
			c0.9,0,1.1,0,1.1-0.6V7.1c0-0.7-0.1-0.8-1.1-0.8V5.9l2-0.2v1.5h0c0.1-0.3,0.7-1.5,2.1-1.5c0.5,0,1.2,0.1,1.6,0.6
			c0.3,0.5,0.3,0.9,0.3,2.2V11.2z"/>
		<path class="st4" d="M146.4,7.5c0,0.3,0,0.3-0.2,0.3c0,0-0.1,0-0.2-0.1c0-0.4-0.1-1.8-1.7-1.8c-1.3,0-1.6,0.7-1.6,1.1
			c0,0.9,1,1.1,1.5,1.1c0.9,0.2,1.3,0.3,1.9,0.7c0.1,0.1,0.6,0.6,0.6,1.4c0,1.1-0.7,2-2.3,2c-0.2,0-1,0-1.6-0.7
			c-0.2,0.2-0.2,0.3-0.3,0.4c-0.2,0.3-0.3,0.3-0.3,0.3c-0.1,0-0.1-0.1-0.1-0.3v-2c0-0.3,0-0.3,0.2-0.3c0,0,0.1,0,0.1,0.1
			c0,0,0,0,0.1,0.3c0.3,1.4,1,2,2,2c1.3,0,1.6-0.7,1.6-1.3c0-0.4-0.2-0.7-0.4-0.9c-0.4-0.3-0.5-0.3-1.3-0.5
			c-0.7-0.1-1.1-0.2-1.6-0.6c-0.5-0.5-0.5-1-0.5-1.2c0-0.8,0.5-1.7,2.3-1.7c0.5,0,0.9,0.1,1.3,0.4c0.1-0.1,0.4-0.4,0.5-0.4
			c0.1,0,0.1,0.1,0.1,0.3V7.5z"/>
		<path class="st4" d="M149.7,11c0,0.5,0,0.7,1.1,0.7h0.3v0.4c-0.3,0-1.3,0-1.7,0c-0.4,0-1.2,0-1.6,0v-0.4c0.9,0,1.1,0,1.1-0.6V6.3
			h-1.1V5.9h1.1V4.2c0-1.5,1.1-2.2,2.1-2.2c0.7,0,1.2,0.4,1.2,0.9c0,0.3-0.2,0.6-0.6,0.6c-0.3,0-0.6-0.2-0.6-0.6
			c0-0.4,0.4-0.5,0.4-0.6c-0.2-0.1-0.4-0.1-0.5-0.1c-0.6,0-1.2,0.7-1.2,2v1.7h1.6v0.4h-1.6V11z"/>
		<path class="st4" d="M155.1,12.2c-1.6,0-3.1-1.4-3.1-3.2c0-1.8,1.4-3.3,3.1-3.3c1.7,0,3.1,1.5,3.1,3.3
			C158.2,10.8,156.8,12.2,155.1,12.2z M156.7,10.9c0.4-0.7,0.4-1.6,0.4-2.1c0-0.5,0-1.4-0.4-2.1c-0.4-0.6-1-0.8-1.5-0.8
			c-0.5,0-1.1,0.2-1.5,0.8c-0.4,0.6-0.4,1.5-0.4,2.1c0,0.6,0,1.4,0.4,2.1c0.4,0.7,1.1,0.9,1.6,0.9C155.7,11.9,156.3,11.6,156.7,10.9
			z"/>
		<path class="st4" d="M161.1,11c0,0.5,0,0.7,1.1,0.7h0.3v0.4c-0.3,0-1.3,0-1.7,0c-0.4,0-1.2,0-1.6,0v-0.4c0.9,0,1.1,0,1.1-0.6V7.1
			c0-0.7-0.1-0.8-1.1-0.8V5.9l1.9-0.2v1.6h0c0.1-0.3,0.5-1.6,1.7-1.6c0.6,0,1,0.4,1,0.8c0,0.4-0.3,0.6-0.6,0.6
			c-0.2,0-0.6-0.2-0.6-0.6c0-0.4,0.2-0.5,0.3-0.5c-0.1,0-0.1,0-0.2,0c-1.1,0-1.7,1.3-1.7,2.7V11z"/>
		<path class="st4" d="M174.4,11.2c0,0.4,0.4,0.4,1.1,0.4v0.4c-0.4,0-1.1,0-1.6,0c-0.4,0-1.2,0-1.5,0v-0.4c0.9,0,1.1,0,1.1-0.6V7.6
			c0-0.9-0.2-1.6-1.1-1.6s-1.9,0.8-1.9,2.3V11c0,0.6,0.2,0.6,1.1,0.6v0.4c-0.4,0-1.1,0-1.6,0c-0.4,0-1.2,0-1.5,0v-0.4
			c0.9,0,1.1,0,1.1-0.6V7.6c0-0.9-0.2-1.6-1.1-1.6s-1.9,0.8-1.9,2.3V11c0,0.6,0.2,0.6,1.1,0.6v0.4c-0.4,0-1.1,0-1.6,0
			c-0.4,0-1.2,0-1.5,0v-0.4c0.9,0,1.1,0,1.1-0.6V7.1c0-0.7-0.1-0.8-1.1-0.8V5.9l2-0.2v1.5h0c0.1-0.3,0.7-1.5,2.1-1.5
			c0.9,0,1.7,0.3,1.9,1.4c0.2-0.6,0.8-1.4,2-1.4c0.5,0,1.2,0.1,1.6,0.6c0.3,0.5,0.3,0.9,0.3,2.2V11.2z"/>
	</g>
	<polyline points="59.4,13.6 175.6,13.6 175.6,13.2 59.4,13.2 	"/>
	<g>
		<path class="st4" d="M17.9,8.2c-0.3-0.2-0.4-0.5-0.4-0.8c0-0.6,0.4-1.2,1.6-1.2c0.1,0,0.6,0,0.9,0.3c0,0,0.1-0.1,0.2-0.2
			c0.1-0.1,0.1-0.1,0.2-0.1c0.1,0,0.1,0.1,0.1,0.2v1c0,0.2,0,0.2-0.1,0.2c0,0-0.1,0-0.1-0.1c0-0.3-0.1-1.2-1.2-1.2
			c-0.9,0-1.1,0.4-1.1,0.8c0,0.6,0.7,0.7,1.2,0.8C19.6,8,20,8.1,20.3,8.4c0.1,0.1,0.4,0.4,0.4,0.9c0,0.7-0.5,1.4-1.6,1.4
			c-0.2,0-0.7,0-1.1-0.4c-0.2,0.2-0.2,0.2-0.2,0.2c-0.2,0.2-0.2,0.2-0.2,0.2c-0.1,0-0.1-0.1-0.1-0.2V9.2c0-0.2,0-0.2,0.1-0.2
			c0.1,0,0.1,0,0.1,0.2c0.2,0.8,0.5,1.4,1.4,1.4c0.8,0,1.1-0.4,1.1-0.9c0-0.7-0.8-0.9-1-0.9C18.5,8.6,18.2,8.5,17.9,8.2z"/>
		<path class="st4" d="M21.2,8.8V8.2h2.6v0.6H21.2z"/>
		<path class="st4" d="M27.5,6.2c1.1,0,2.1,1,2.1,2.3c0,1.3-1,2.3-2.2,2.3c-0.8,0-1.2-0.5-1.2-0.7v0.1v1.7c0,0.4,0.1,0.4,0.8,0.4
			v0.3c-0.3,0-0.9,0-1.1,0c-0.3,0-0.8,0-1.1,0v-0.3c0.7,0,0.8,0,0.8-0.4V7.1c0-0.4-0.1-0.5-0.8-0.5V6.3l1.4-0.1v0.7
			C26.3,6.7,26.8,6.2,27.5,6.2z M26.3,9.9c0.3,0.4,0.6,0.6,1,0.6c0.7,0,1.4-0.8,1.4-2c0-1.1-0.6-2-1.3-2c-0.5,0-1,0.3-1.3,0.8v2.2
			C26.2,9.7,26.2,9.7,26.3,9.9z"/>
		<path class="st4" d="M31.7,9.9c0,0.4,0.1,0.4,0.8,0.4v0.3c-0.4,0-0.9,0-1.1,0c-0.2,0-0.8,0-1.1,0v-0.3c0.7,0,0.8,0,0.8-0.4V4.7
			c0-0.5-0.1-0.6-0.8-0.6V3.8l1.4-0.1V9.9z"/>
		<path class="st4" d="M34.8,10.7c-0.6,0-1.6-0.2-1.6-1.1c0-0.4,0.2-1,1-1.3C34.8,8.1,35.5,8.1,36,8V7.7c0-0.9-0.6-1.3-1.1-1.3
			c-0.3,0-0.8,0.1-1.1,0.5c0.5,0,0.5,0.3,0.5,0.5c0,0.3-0.2,0.5-0.5,0.5c-0.3,0-0.5-0.2-0.5-0.5c0-0.7,0.7-1.1,1.5-1.1
			c0.5,0,1,0.2,1.4,0.5c0.4,0.4,0.4,0.8,0.4,1.2v2c0,0,0,0.5,0.4,0.5c0.1,0,0.4-0.1,0.4-0.6V9.2h0.2v0.6c0,0.8-0.6,0.9-0.8,0.9
			c-0.5,0-0.7-0.4-0.8-0.8C35.9,10.3,35.4,10.7,34.8,10.7z M34,9.7c0,0.5,0.4,0.8,0.9,0.8c0.4,0,1.2-0.3,1.2-1.3v-1
			C34.4,8.3,34,9.1,34,9.7z"/>
		<path class="st4" d="M38.1,6.6V6.3l1.4-0.1v1c0.3-0.6,0.7-1,1.5-1c0.6,0,0.9,0.2,1,0.4c0.3,0.4,0.3,0.7,0.3,1.5V10
			c0,0.3,0.3,0.3,0.8,0.3v0.3c-0.3,0-0.9,0-1.1,0c-0.3,0-0.8,0-1.1,0v-0.3c0.7,0,0.8,0,0.8-0.4V7.5c0-0.6-0.1-1.1-0.7-1.1
			c-0.6,0-1.3,0.6-1.3,1.6v1.8c0,0.4,0.1,0.4,0.8,0.4v0.3c-0.3,0-0.9,0-1.1,0c-0.3,0-0.8,0-1.1,0v-0.3c0.7,0,0.8,0,0.8-0.4V7.2
			C38.9,6.7,38.8,6.6,38.1,6.6z"/>
	</g>
	<g>
		<path class="st4" d="M44.7,9.8c0.2,0.4,0.6,0.7,1.1,0.7c0.1,0,1,0,1.3-1c0-0.1,0-0.1,0.1-0.1c0,0,0.1,0,0.1,0.1
			c0,0.2-0.4,1.3-1.7,1.3c-1.1,0-2.2-1-2.2-2.3c0-1.2,0.9-2.3,2.1-2.3c1.2,0,1.8,1,1.8,2c0,0.2,0,0.2-0.2,0.2h-2.8
			C44.4,8.7,44.4,9.3,44.7,9.8z M46.8,8.1c0-0.4-0.1-1.7-1.1-1.7c-0.3,0-1.2,0.2-1.2,1.7H46.8z"/>
	</g>
	<polygon class="st3" points="14.7,8.1 14.7,15.2 50.1,15.2 50.1,1 14.7,1 	"/>
	<g>
		<path class="st4" d="M188.2,10.4h1.2c1.2,0,1.4-0.4,1.5-1.6h0.2l-0.2,1.9h-3.3c-0.2,0-0.3,0-0.3-0.1c0,0,0-0.1,0.1-0.2l2.8-3.8
			h-1.1c-1.1,0-1.3,0.4-1.3,1.4h-0.2l0.1-1.6h3.2c0.2,0,0.3,0,0.3,0.1c0,0,0,0.1-0.1,0.2L188.2,10.4z"/>
		<path class="st4" d="M191.6,8.8V8.2h2.6v0.6H191.6z"/>
		<path class="st4" d="M198,6.2c1.1,0,2.1,1,2.1,2.3c0,1.3-1,2.3-2.2,2.3c-0.8,0-1.2-0.5-1.2-0.7v0.1v1.7c0,0.4,0.1,0.4,0.8,0.4v0.3
			c-0.3,0-0.9,0-1.1,0c-0.3,0-0.8,0-1.1,0v-0.3c0.7,0,0.8,0,0.8-0.4V7.1c0-0.4-0.1-0.5-0.8-0.5V6.3l1.4-0.1v0.7
			C196.8,6.7,197.2,6.2,198,6.2z M196.7,9.9c0.3,0.4,0.6,0.6,1,0.6c0.7,0,1.4-0.8,1.4-2c0-1.1-0.6-2-1.3-2c-0.5,0-1,0.3-1.3,0.8v2.2
			C196.6,9.7,196.6,9.7,196.7,9.9z"/>
		<path class="st4" d="M202.2,9.9c0,0.4,0.1,0.4,0.8,0.4v0.3c-0.4,0-0.9,0-1.1,0s-0.8,0-1.1,0v-0.3c0.7,0,0.8,0,0.8-0.4V4.7
			c0-0.5-0.1-0.6-0.8-0.6V3.8l1.4-0.1V9.9z"/>
		<path class="st4" d="M205.2,10.7c-0.6,0-1.6-0.2-1.6-1.1c0-0.4,0.2-1,1-1.3c0.6-0.3,1.3-0.3,1.8-0.4V7.7c0-0.9-0.6-1.3-1.1-1.3
			c-0.3,0-0.8,0.1-1.1,0.5c0.5,0,0.5,0.3,0.5,0.5c0,0.3-0.2,0.5-0.5,0.5c-0.3,0-0.5-0.2-0.5-0.5c0-0.7,0.7-1.1,1.5-1.1
			c0.5,0,1,0.2,1.4,0.5c0.4,0.4,0.4,0.8,0.4,1.2v2c0,0,0,0.5,0.4,0.5c0.1,0,0.4-0.1,0.4-0.6V9.2h0.2v0.6c0,0.8-0.6,0.9-0.8,0.9
			c-0.5,0-0.7-0.4-0.8-0.8C206.3,10.3,205.9,10.7,205.2,10.7z M204.4,9.7c0,0.5,0.4,0.8,0.9,0.8c0.4,0,1.2-0.3,1.2-1.3v-1
			C204.8,8.3,204.4,9.1,204.4,9.7z"/>
		<path class="st4" d="M208.5,6.6V6.3l1.4-0.1v1c0.3-0.6,0.7-1,1.5-1c0.6,0,0.9,0.2,1,0.4c0.3,0.4,0.3,0.7,0.3,1.5V10
			c0,0.3,0.3,0.3,0.8,0.3v0.3c-0.3,0-0.9,0-1.1,0c-0.3,0-0.8,0-1.1,0v-0.3c0.7,0,0.8,0,0.8-0.4V7.5c0-0.6-0.1-1.1-0.7-1.1
			C210.7,6.4,210,7,210,8v1.8c0,0.4,0.1,0.4,0.8,0.4v0.3c-0.3,0-0.9,0-1.1,0c-0.3,0-0.8,0-1.1,0v-0.3c0.7,0,0.8,0,0.8-0.4V7.2
			C209.3,6.7,209.2,6.6,208.5,6.6z"/>
	</g>
	<g>
		<path class="st4" d="M215.1,9.8c0.2,0.4,0.6,0.7,1.1,0.7c0.1,0,1,0,1.3-1c0-0.1,0-0.1,0.1-0.1c0,0,0.1,0,0.1,0.1
			c0,0.2-0.4,1.3-1.7,1.3c-1.1,0-2.2-1-2.2-2.3c0-1.2,0.9-2.3,2.1-2.3c1.2,0,1.8,1,1.8,2c0,0.2,0,0.2-0.2,0.2h-2.8
			C214.8,8.7,214.8,9.3,215.1,9.8z M217.2,8.1c0-0.4-0.1-1.7-1.1-1.7c-0.3,0-1.2,0.2-1.2,1.7H217.2z"/>
	</g>
	<polygon class="st3" points="184.8,8.1 184.8,15.2 220.2,15.2 220.2,1 184.8,1 	"/>
</g>
</svg>
