<?xml version="1.0" encoding="utf-8"?>
<!-- Generator: Adobe Illustrator 22.1.0, SVG Export Plug-In . SVG Version: 6.00 Build 0)  -->
<svg version="1.1" id="Layer_1" xmlns="http://www.w3.org/2000/svg" xmlns:xlink="http://www.w3.org/1999/xlink" x="0px" y="0px"
	 viewBox="0 0 595.3 841.9" style="enable-background:new 0 0 595.3 841.9;" xml:space="preserve">
<style type="text/css">
	.st0{fill:#FF0000;}
	.st1{fill:#0000FF;}
	.st2{clip-path:url(#SVGID_2_);fill:none;stroke:#FF0033;stroke-width:0.8504;stroke-linecap:square;stroke-miterlimit:10;}
	.st3{fill:none;stroke:#000000;stroke-width:0.8504;stroke-miterlimit:10;}
	.st4{fill:#1D1D1B;}
	.st5{fill:none;stroke:#0000FF;stroke-width:0.2835;stroke-miterlimit:10;}
	.st6{clip-path:url(#SVGID_4_);fill:none;stroke:#3333FF;stroke-width:0.8504;stroke-linecap:square;stroke-miterlimit:10;}
	.st7{fill:none;stroke:#FFFFFF;stroke-width:0.8504;stroke-miterlimit:10;}
</style>
<g>
	<g>
		<path class="st0" d="M238.1,387.7c0.2,0,0.4,0,0.7,0.2c0.2,0.1,0.4,0.1,0.6,0.1c0.3,0,1-0.2,1.2-0.8c0-0.1,0-0.1,0.1-0.1
			c0.1,0,0.1,0,0.1,0.1c0,0.3-0.6,1.5-1.6,1.5c-0.3,0-0.5-0.2-0.6-0.4c-0.2-0.3-0.3-0.4-0.6-0.4c-0.3,0-0.6,0.3-0.8,0.6
			c-0.1,0.1-0.1,0.1-0.2,0.1c0,0-0.1,0-0.1-0.1c0-0.1,0.3-0.6,1-1.3l0.9-0.8c0.2-0.2,1-0.9,1.4-1.3c-0.3,0-0.4,0-0.8-0.1
			c-0.2-0.1-0.4-0.1-0.6-0.1c-0.1,0-0.7,0-0.8,0.5c0,0.1,0,0.1-0.1,0.1c-0.1,0-0.1-0.1-0.1-0.1c0-0.2,0.5-1.1,1.2-1.1
			c0.3,0,0.5,0.2,0.7,0.4c0.1,0.2,0.3,0.3,0.5,0.3c0.2,0,0.4-0.2,0.7-0.6c0-0.1,0.1-0.1,0.1-0.1c0,0,0.1,0,0.1,0.1
			c0,0-0.2,0.5-1.2,1.4c-0.4,0.4-1,0.9-1,0.9c-0.4,0.3-0.6,0.6-1.2,1.1C237.9,387.7,238,387.7,238.1,387.7z"/>
	</g>
	<g>
		<path class="st0" d="M245.2,385.3c-0.1,0-0.3,0-0.3-0.2s0.2-0.2,0.3-0.2h6c0.1,0,0.3,0,0.3,0.2s-0.2,0.2-0.3,0.2H245.2z
			 M245.2,387.3c-0.1,0-0.3,0-0.3-0.2s0.2-0.2,0.3-0.2h5.9c0.1,0,0.3,0,0.3,0.2s-0.2,0.2-0.3,0.2H245.2z"/>
	</g>
	<g>
		<path class="st0" d="M259.3,384.7h-2.9c0-0.2,0-0.2,0.1-0.3l1.7-1.7c0.2-0.3,0.7-0.7,0.7-1.3c0-0.6-0.4-1.1-1.1-1.1
			c-0.3,0-0.8,0.2-1,0.6c0.4,0,0.4,0.2,0.4,0.4c0,0.3-0.2,0.4-0.4,0.4c-0.1,0-0.4,0-0.4-0.4c0-0.6,0.6-1.2,1.5-1.2
			c0.9,0,1.6,0.5,1.6,1.4c0,0.7-0.5,1.1-1,1.5c-0.4,0.3-0.7,0.5-1.4,1.2h1.3c0.1,0,0.6,0,0.7,0c0.1-0.1,0.2-0.5,0.2-0.6h0.2
			L259.3,384.7z"/>
		<path class="st0" d="M263.2,385.3c0,0.1,0,0.3-0.2,0.3c-0.2,0-0.2-0.2-0.2-0.3v-2.1h-2.1c-0.1,0-0.3,0-0.3-0.2
			c0-0.2,0.2-0.2,0.3-0.2h2.1v-2.1c0-0.1,0-0.3,0.2-0.3c0.2,0,0.2,0.2,0.2,0.3v2.1h2.1c0.1,0,0.3,0,0.3,0.2c0,0.2-0.2,0.2-0.3,0.2
			h-2.1V385.3z"/>
	</g>
	<g>
		<path class="st0" d="M268.5,381.9c-0.1,0-0.4,0-0.6,0.1c-0.2,0.1-0.3,0.3-0.3,0.4c0,0.2,0.1,0.3,0.4,0.3c0,0,0.2,0,0.3,0.1
			c0.3,0,1,0.2,1,0.8c0,0.3-0.2,1.2-1.5,1.2c-0.7,0-1.1-0.3-1.1-0.7c0-0.3,0.2-0.5,0.4-0.5c0.1,0,0.3,0.1,0.3,0.3
			c0,0.2-0.2,0.4-0.4,0.4c0.2,0.2,0.6,0.3,0.8,0.3c0.1,0,0.4,0,0.7-0.2c0.3-0.2,0.4-0.4,0.4-0.6c0-0.3-0.4-0.4-0.6-0.5
			c-0.5-0.1-0.6-0.1-0.8-0.3c-0.1-0.1-0.2-0.3-0.2-0.5c0-0.2,0.2-1,1.3-1c0.4,0,0.9,0.2,0.9,0.6c0,0.4-0.3,0.4-0.3,0.4
			c-0.1,0-0.2-0.1-0.2-0.2c0-0.1,0.1-0.3,0.3-0.3C269,381.9,268.6,381.9,268.5,381.9z"/>
	</g>
	<g>
		<path class="st0" d="M271,383.4c-0.2,0-0.4-0.2-0.4-0.4c0-0.2,0.2-0.4,0.4-0.4c0.2,0,0.4,0.2,0.4,0.4
			C271.4,383.2,271.2,383.4,271,383.4z"/>
	</g>
	<g>
		<path class="st0" d="M274.7,384.2c0,0.1,0,0.1,0,0.2c0,0.1,0,0.1,0.3,0.1c0.1,0,0.3,0,0.4,0c0.2,0,0.3,0,0.3,0.1
			c0,0.2-0.1,0.2-0.2,0.2c-0.2,0-0.4,0-0.6,0c-0.2,0-0.4,0-0.6,0s-0.4,0-0.6,0s-0.4,0-0.6,0c-0.1,0-0.1-0.1-0.1-0.1
			c0-0.2,0.1-0.2,0.3-0.2c0.7,0,0.8-0.1,0.8-0.3l0.9-3.7c0-0.1,0-0.1,0-0.1c0-0.1,0-0.1-0.2-0.1h-0.3c-1.1,0-1.3,0.1-1.7,1.2
			c0,0.1-0.1,0.2-0.1,0.2c-0.1,0-0.1-0.1-0.1-0.1c0,0,0-0.1,0-0.1l0.4-1.2c0-0.1,0.1-0.1,0.2-0.1h4.3c0.1,0,0.2,0,0.2,0.1l-0.2,1.3
			c0,0.1,0,0.2-0.1,0.2c-0.1,0-0.1,0-0.1-0.1l0-0.1c0-0.4,0-0.5,0-0.6c0-0.3,0-0.5-0.3-0.6c-0.2-0.1-0.4-0.1-0.8-0.1
			c-0.1,0-0.4,0-0.4,0c-0.2,0-0.2,0-0.2,0.2L274.7,384.2z"/>
	</g>
	<polyline class="st0" points="256,386.4 278.2,386.4 278.2,385.9 256,385.9 	"/>
	<g>
		<path class="st0" d="M259.3,392.1h-2.9c0-0.2,0-0.2,0.1-0.3l1.7-1.7c0.2-0.3,0.7-0.7,0.7-1.3c0-0.6-0.4-1.1-1.1-1.1
			c-0.3,0-0.8,0.2-1,0.6c0.4,0,0.4,0.2,0.4,0.4c0,0.3-0.2,0.4-0.4,0.4c-0.1,0-0.4,0-0.4-0.4c0-0.6,0.6-1.2,1.5-1.2
			c0.9,0,1.6,0.5,1.6,1.4c0,0.7-0.5,1.1-1,1.5c-0.4,0.3-0.7,0.5-1.4,1.2h1.3c0.1,0,0.6,0,0.7,0c0.1-0.1,0.2-0.5,0.2-0.6h0.2
			L259.3,392.1z"/>
	</g>
	<g>
		<path class="st0" d="M261,390.5c-0.1,0-0.3,0-0.3-0.2c0-0.2,0.2-0.2,0.3-0.2h4.2c0.1,0,0.3,0,0.3,0.2c0,0.2-0.2,0.2-0.3,0.2H261z"
			/>
	</g>
	<g>
		<path class="st0" d="M268.6,389.2c-0.1,0-0.4,0-0.6,0.1c-0.2,0.1-0.3,0.3-0.3,0.4c0,0.2,0.1,0.3,0.4,0.3c0,0,0.2,0,0.3,0.1
			c0.3,0,1,0.2,1,0.8c0,0.3-0.2,1.2-1.5,1.2c-0.7,0-1.1-0.3-1.1-0.7c0-0.3,0.2-0.5,0.4-0.5c0.1,0,0.3,0.1,0.3,0.3
			c0,0.2-0.2,0.4-0.4,0.4c0.2,0.2,0.6,0.3,0.8,0.3c0.1,0,0.4,0,0.7-0.2c0.3-0.2,0.4-0.4,0.4-0.6c0-0.3-0.4-0.4-0.6-0.5
			c-0.5-0.1-0.6-0.1-0.8-0.3c-0.1-0.1-0.2-0.3-0.2-0.5c0-0.2,0.2-1,1.3-1c0.4,0,0.9,0.2,0.9,0.6c0,0.4-0.3,0.4-0.3,0.4
			c-0.1,0-0.2-0.1-0.2-0.2c0-0.1,0.1-0.3,0.3-0.3C269.1,389.2,268.7,389.2,268.6,389.2z"/>
	</g>
	<g>
		<path class="st0" d="M271.1,390.7c-0.2,0-0.4-0.2-0.4-0.4c0-0.2,0.2-0.4,0.4-0.4c0.2,0,0.4,0.2,0.4,0.4
			C271.5,390.5,271.4,390.7,271.1,390.7z"/>
	</g>
	<g>
		<path class="st0" d="M274.8,391.5c0,0.1,0,0.1,0,0.2c0,0.1,0,0.1,0.3,0.1c0.1,0,0.3,0,0.4,0c0.2,0,0.3,0,0.3,0.1
			c0,0.2-0.1,0.2-0.2,0.2c-0.2,0-0.4,0-0.6,0c-0.2,0-0.4,0-0.6,0s-0.4,0-0.6,0s-0.4,0-0.6,0c-0.1,0-0.1-0.1-0.1-0.1
			c0-0.2,0.1-0.2,0.3-0.2c0.7,0,0.8-0.1,0.8-0.3l0.9-3.7c0-0.1,0-0.1,0-0.1c0-0.1,0-0.1-0.2-0.1h-0.3c-1.1,0-1.3,0.1-1.7,1.2
			c0,0.1-0.1,0.2-0.1,0.2c-0.1,0-0.1-0.1-0.1-0.1c0,0,0-0.1,0-0.1l0.4-1.2c0-0.1,0.1-0.1,0.2-0.1h4.3c0.1,0,0.2,0,0.2,0.1l-0.2,1.3
			c0,0.1,0,0.2-0.1,0.2c-0.1,0-0.1,0-0.1-0.1l0-0.1c0-0.4,0-0.5,0-0.6c0-0.3,0-0.5-0.3-0.6c-0.2-0.1-0.4-0.1-0.8-0.1
			c-0.1,0-0.4,0-0.4,0c-0.2,0-0.2,0-0.2,0.2L274.8,391.5z"/>
	</g>
	<g>
		<path class="st0" d="M253.8,399.1c-0.2,0-0.4,0-0.4-0.2s0.2-0.2,0.3-0.2h5.9c-0.5-0.5-1-1.3-1-1.5c0-0.1,0.1-0.1,0.2-0.1
			c0.1,0,0.1,0,0.3,0.2c0.6,1.1,1.6,2,2.9,2.4c0.2,0.1,0.2,0.1,0.2,0.1l0,0c0,0,0,0,0,0.1c0,0,0,0,0,0.1c0,0,0,0-0.2,0.1
			c-0.5,0.1-1.2,0.4-1.9,1c-0.6,0.6-0.9,1.1-1.1,1.5c0,0.1-0.1,0.1-0.2,0.1c-0.1,0-0.2,0-0.2-0.1c0-0.1,0.5-1,1-1.5h-5.9
			c-0.2,0-0.3,0-0.3-0.2s0.2-0.2,0.4-0.2h6.3c0.4-0.3,0.9-0.6,1.3-0.8c-0.3-0.1-0.8-0.4-1.3-0.8H253.8z"/>
	</g>
	<g>
		<path class="st1" d="M231.2,488c-0.9,0-1.1,0.6-1.1,0.9c0,0.4,0.4,0.5,0.8,0.6c0.4,0.1,0.7,0.1,1,0.4c0.1,0.1,0.3,0.4,0.3,0.7
			c0,0.4-0.4,1.7-2,1.7c-0.9,0-1.4-0.4-1.4-1c0-0.4,0.3-0.7,0.6-0.7c0.2,0,0.4,0.1,0.4,0.3c0,0.3-0.2,0.6-0.6,0.5
			c0.2,0.5,1,0.5,1.1,0.5c1.2,0,1.4-0.8,1.4-1.1c0-0.5-0.5-0.7-1-0.8c-0.3-0.1-1-0.2-1-1c0-0.4,0.4-1.5,1.7-1.5
			c0.8,0,1.2,0.4,1.2,0.9c0,0.4-0.2,0.6-0.5,0.6s-0.3-0.1-0.3-0.3c0-0.2,0.2-0.4,0.5-0.4C231.9,488,231.4,488,231.2,488z"/>
	</g>
	<g>
		<path class="st1" d="M236.5,488.9c-0.1,0-0.3,0-0.3-0.2c0-0.2,0.2-0.2,0.3-0.2h6c0.1,0,0.3,0,0.3,0.2c0,0.2-0.2,0.2-0.3,0.2H236.5
			z M236.5,490.8c-0.1,0-0.3,0-0.3-0.2s0.2-0.2,0.3-0.2h5.9c0.1,0,0.3,0,0.3,0.2s-0.2,0.2-0.3,0.2H236.5z"/>
	</g>
	<g>
		<path class="st1" d="M251.5,488.2h-2.9c0-0.2,0-0.2,0.1-0.3l1.7-1.7c0.2-0.3,0.7-0.7,0.7-1.3c0-0.6-0.4-1.1-1.1-1.1
			c-0.3,0-0.8,0.2-1,0.6c0.4,0,0.4,0.2,0.4,0.4c0,0.3-0.2,0.4-0.4,0.4c-0.1,0-0.4,0-0.4-0.4c0-0.6,0.6-1.2,1.5-1.2
			c0.9,0,1.6,0.5,1.6,1.4c0,0.7-0.5,1.1-1,1.5c-0.4,0.3-0.7,0.5-1.4,1.2h1.3c0.1,0,0.6,0,0.7,0c0.1-0.1,0.2-0.5,0.2-0.6h0.2
			L251.5,488.2z"/>
	</g>
	<polyline class="st1" points="247.4,489.9 253.3,489.9 253.3,489.4 247.4,489.4 	"/>
	<g>
		<path class="st1" d="M249.8,495.1c0,0.1,0,0.1,0,0.2c0,0.1,0,0.1,0.3,0.1c0.1,0,0.3,0,0.4,0c0.2,0,0.3,0,0.3,0.1
			c0,0.2-0.1,0.2-0.2,0.2c-0.2,0-0.4,0-0.6,0c-0.2,0-0.4,0-0.6,0s-0.4,0-0.6,0s-0.4,0-0.6,0c-0.1,0-0.1-0.1-0.1-0.1
			c0-0.2,0.1-0.2,0.3-0.2c0.7,0,0.8-0.1,0.8-0.3l0.9-3.7c0-0.1,0-0.1,0-0.1c0-0.1,0-0.1-0.2-0.1h-0.3c-1.1,0-1.3,0.1-1.7,1.2
			c0,0.1-0.1,0.2-0.1,0.2c-0.1,0-0.1-0.1-0.1-0.1c0,0,0-0.1,0-0.1l0.4-1.2c0-0.1,0.1-0.1,0.2-0.1h4.3c0.1,0,0.2,0,0.2,0.1l-0.2,1.3
			c0,0.1,0,0.2-0.1,0.2c-0.1,0-0.1,0-0.1-0.1l0-0.1c0-0.4,0-0.5,0-0.6c0-0.3,0-0.5-0.3-0.6c-0.2-0.1-0.4-0.1-0.8-0.1
			c-0.1,0-0.4,0-0.4,0c-0.2,0-0.2,0-0.2,0.2L249.8,495.1z"/>
	</g>
	<g>
		<path class="st1" d="M257.9,490.2c-0.3,0-0.5-0.2-0.5-0.5s0.2-0.5,0.5-0.5c0.3,0,0.5,0.2,0.5,0.5S258.2,490.2,257.9,490.2z"/>
	</g>
	<g>
		<path class="st1" d="M265.1,487.6c0,0.2,0,0.3,0.7,0.3h0.3v0.3c-0.2,0-1,0-1.2,0c-0.3,0-1.1,0-1.2,0v-0.3h0.3
			c0.7,0,0.7-0.1,0.7-0.3v-3.6c-0.4,0.2-0.8,0.2-1,0.2V484c0.3,0,0.9,0,1.4-0.4c0.2,0,0.2,0,0.2,0.2V487.6z"/>
	</g>
	<g>
		<path class="st1" d="M267.7,486.6c-0.1,0-0.3,0-0.3-0.2c0-0.2,0.2-0.2,0.3-0.2h4.2c0.1,0,0.3,0,0.3,0.2c0,0.2-0.2,0.2-0.3,0.2
			H267.7z"/>
	</g>
	<g>
		<path class="st1" d="M274.3,487.6c0.1,0,0.2,0,0.5,0.1c0.2,0,0.3,0.1,0.5,0.1c0.3,0,0.8-0.2,0.9-0.5c0-0.1,0-0.1,0.1-0.1
			c0,0,0.1,0,0.1,0.1c0,0.2-0.5,1.1-1.2,1.1c-0.2,0-0.4-0.1-0.6-0.3c-0.2-0.2-0.3-0.2-0.4-0.2c-0.2,0-0.5,0.2-0.6,0.4
			c0,0.1,0,0.1-0.1,0.1c0,0-0.1,0-0.1-0.1c0-0.1,0.2-0.4,0.6-0.8c0.1-0.1,0.3-0.3,0.9-0.7c0.7-0.5,0.8-0.7,1-0.8
			c-0.2,0-0.2,0-0.6-0.1c-0.1,0-0.3-0.1-0.4-0.1c-0.1,0-0.5,0-0.6,0.3c0,0.1,0,0.1-0.1,0.1c0,0-0.1,0-0.1-0.1c0-0.2,0.4-0.8,0.9-0.8
			c0.2,0,0.3,0,0.6,0.3c0.2,0.2,0.3,0.2,0.4,0.2c0.2,0,0.3-0.1,0.5-0.4c0-0.1,0.1-0.1,0.1-0.1c0,0,0.1,0,0.1,0.1
			c0,0.1-0.3,0.4-0.7,0.9c-0.2,0.2-0.7,0.6-0.9,0.7c-0.6,0.5-0.7,0.6-0.9,0.8C274.2,487.6,274.3,487.6,274.3,487.6z"/>
	</g>
	<g>
		<path class="st1" d="M278,484.1c-0.1,0-0.2,0-0.2-0.1c0-0.1,0.1-0.1,0.2-0.1h3.4c0.1,0,0.2,0,0.2,0.1c0,0.1-0.1,0.1-0.2,0.1H278z"
			/>
	</g>
	<g>
		<path class="st1" d="M284.4,484.8c0,0.2,0,0.2,0.5,0.2h0.2v0.2c-0.3,0-0.7,0-1,0s-0.7,0-1,0V485h0.2c0.5,0,0.5-0.1,0.5-0.2v-2.5
			c-0.3,0.1-0.6,0.1-0.7,0.1h-0.1v-0.2h0.1c0.1,0,0.7,0,1-0.3c0.2,0,0.2,0,0.2,0.1V484.8z"/>
	</g>
	<polyline class="st1" points="262.7,489.9 286.4,489.9 286.4,489.4 262.7,489.4 	"/>
	<g>
		<path class="st1" d="M265.1,495c0,0.2,0,0.3,0.7,0.3h0.3v0.3c-0.2,0-1,0-1.2,0c-0.3,0-1.1,0-1.2,0v-0.3h0.3c0.7,0,0.7-0.1,0.7-0.3
			v-3.6c-0.4,0.2-0.8,0.2-1,0.2v-0.3c0.3,0,0.9,0,1.4-0.4c0.2,0,0.2,0,0.2,0.2V495z"/>
		<path class="st1" d="M269.9,496.2c0,0.1,0,0.3-0.2,0.3c-0.2,0-0.2-0.2-0.2-0.3V494h-2.1c-0.1,0-0.3,0-0.3-0.2
			c0-0.2,0.2-0.2,0.3-0.2h2.1v-2.1c0-0.1,0-0.3,0.2-0.3c0.2,0,0.2,0.2,0.2,0.3v2.1h2.1c0.1,0,0.3,0,0.3,0.2c0,0.2-0.2,0.2-0.3,0.2
			h-2.1V496.2z"/>
	</g>
	<g>
		<path class="st1" d="M274.2,495c0.1,0,0.2,0,0.5,0.1c0.2,0,0.3,0.1,0.5,0.1c0.3,0,0.8-0.2,0.9-0.5c0-0.1,0-0.1,0.1-0.1
			c0,0,0.1,0,0.1,0.1c0,0.2-0.5,1.1-1.2,1.1c-0.2,0-0.4-0.1-0.6-0.3c-0.2-0.2-0.3-0.2-0.4-0.2c-0.2,0-0.5,0.2-0.6,0.4
			c0,0.1,0,0.1-0.1,0.1c0,0-0.1,0-0.1-0.1c0-0.1,0.2-0.4,0.6-0.8c0.1-0.1,0.3-0.3,0.9-0.7c0.7-0.5,0.8-0.7,1-0.8
			c-0.2,0-0.2,0-0.6-0.1c-0.1,0-0.3-0.1-0.4-0.1c-0.1,0-0.5,0-0.6,0.3c0,0.1,0,0.1-0.1,0.1c0,0-0.1,0-0.1-0.1c0-0.2,0.4-0.8,0.9-0.8
			c0.2,0,0.3,0,0.6,0.3c0.2,0.2,0.3,0.2,0.4,0.2c0.2,0,0.3-0.1,0.5-0.4c0-0.1,0.1-0.1,0.1-0.1c0,0,0.1,0,0.1,0.1
			c0,0.1-0.3,0.4-0.7,0.9c-0.2,0.2-0.7,0.6-0.9,0.7c-0.6,0.5-0.7,0.6-0.9,0.8C274,495,274.1,495,274.2,495z"/>
	</g>
	<g>
		<path class="st1" d="M277.9,492.5c-0.1,0-0.2,0-0.2-0.1c0-0.1,0.1-0.1,0.2-0.1h3.4c0.1,0,0.2,0,0.2,0.1c0,0.1-0.1,0.1-0.2,0.1
			H277.9z"/>
	</g>
	<g>
		<path class="st1" d="M284.3,493.2c0,0.2,0,0.2,0.5,0.2h0.2v0.2c-0.3,0-0.7,0-1,0s-0.7,0-1,0v-0.2h0.2c0.5,0,0.5-0.1,0.5-0.2v-2.5
			c-0.3,0.1-0.6,0.1-0.7,0.1H283v-0.2h0.1c0.1,0,0.7,0,1-0.3c0.2,0,0.2,0,0.2,0.1V493.2z"/>
	</g>
	<g>
		<path class="st1" d="M256.1,475.5c0.5,0.5,1,1.3,1,1.5c0,0.1-0.1,0.1-0.2,0.1c-0.1,0-0.1,0-0.3-0.2c-0.6-1.1-1.6-2-2.9-2.4
			c-0.2-0.1-0.2-0.1-0.2-0.1l0,0c0,0,0,0,0-0.1c0,0,0,0,0-0.1c0,0,0,0,0.2-0.1c0.5-0.1,1.2-0.4,1.9-1c0.6-0.6,0.9-1.1,1.1-1.5
			c0-0.1,0.1-0.1,0.2-0.1c0.1,0,0.2,0,0.2,0.1c0,0.1-0.5,1-1,1.5h5.9c0.2,0,0.3,0,0.3,0.2c0,0.2-0.2,0.2-0.4,0.2h-6.3
			c-0.4,0.3-0.9,0.6-1.3,0.8c0.3,0.1,0.8,0.4,1.3,0.8h6.3c0.2,0,0.4,0,0.4,0.2s-0.2,0.2-0.3,0.2H256.1z"/>
	</g>
	<g>
		<path class="st1" d="M262.7,416.4c-0.9,0-1.1,0.6-1.1,0.9c0,0.4,0.4,0.5,0.8,0.6c0.4,0.1,0.7,0.1,1,0.4c0.1,0.1,0.3,0.4,0.3,0.7
			c0,0.4-0.4,1.7-2,1.7c-0.9,0-1.4-0.4-1.4-1c0-0.4,0.3-0.7,0.6-0.7c0.2,0,0.4,0.1,0.4,0.3c0,0.3-0.2,0.6-0.6,0.5
			c0.2,0.5,1,0.5,1.1,0.5c1.2,0,1.4-0.8,1.4-1.1c0-0.5-0.5-0.7-1-0.8c-0.3-0.1-1-0.2-1-1c0-0.4,0.4-1.5,1.7-1.5
			c0.8,0,1.2,0.4,1.2,0.9c0,0.4-0.2,0.6-0.5,0.6s-0.3-0.1-0.3-0.3c0-0.2,0.2-0.4,0.5-0.4C263.5,416.5,263,416.4,262.7,416.4z"/>
	</g>
	<g>
		<path class="st1" d="M268.1,417.4c-0.1,0-0.3,0-0.3-0.2s0.2-0.2,0.3-0.2h6c0.1,0,0.3,0,0.3,0.2s-0.2,0.2-0.3,0.2H268.1z
			 M268.1,419.3c-0.1,0-0.3,0-0.3-0.2s0.2-0.2,0.3-0.2h5.9c0.1,0,0.3,0,0.3,0.2s-0.2,0.2-0.3,0.2H268.1z"/>
	</g>
	<g>
		<path class="st1" d="M281.8,420.2h2.8c0.2,0,0.3,0,0.3,0.2s-0.2,0.2-0.3,0.2h-5.9c-0.2,0-0.3,0-0.3-0.2s0.2-0.2,0.3-0.2h2.8v-2.7
			h-2.8c-0.2,0-0.3,0-0.3-0.2s0.2-0.2,0.3-0.2h2.8v-2.8c0-0.2,0-0.3,0.2-0.3s0.2,0.2,0.2,0.4v2.8h2.8c0.2,0,0.3,0,0.3,0.2
			s-0.2,0.2-0.3,0.2h-2.8V420.2z"/>
	</g>
	<g>
		<path class="st1" d="M287.6,421.1c0,0.9-0.6,1.5-1.4,1.5c-0.6,0-1.1-0.3-1.1-0.8c0-0.3,0.2-0.5,0.5-0.5c0.3,0,0.5,0.2,0.5,0.5
			c0,0.3-0.2,0.4-0.3,0.4c0.3,0.1,0.5,0.1,0.5,0.1c0.6,0,0.7-0.9,0.7-1.3v-3.9c0-0.5-0.1-0.6-0.9-0.6v-0.3l1.5-0.1V421.1z
			 M287.1,415c-0.3,0-0.5-0.2-0.5-0.5s0.2-0.5,0.5-0.5s0.5,0.2,0.5,0.5S287.4,415,287.1,415z"/>
	</g>
	<g>
		<path class="st1" d="M296.1,416.2c1.1,0,1.9,1.1,1.9,2.3c0,1.2-0.8,2.3-1.9,2.3c-0.5,0-1.1-0.2-1.6-0.6c-0.3-0.2-0.4-0.4-1-1.1
			c-0.5,0.8-1.3,1.7-2.5,1.7s-1.9-1.1-1.9-2.3c0-1.2,0.8-2.3,1.9-2.3c0.5,0,1.1,0.2,1.6,0.6c0.3,0.2,0.4,0.4,1,1.1
			C294.1,417.1,294.9,416.2,296.1,416.2z M292.1,417.3c-0.2-0.2-0.7-0.6-1.2-0.6c-0.9,0-1.5,0.8-1.5,1.8c0,0.9,0.5,1.9,1.6,1.9
			c1.1,0,1.9-1,2.3-1.7C292.6,417.9,292.3,417.6,292.1,417.3z M295,419.6c0.2,0.2,0.7,0.6,1.2,0.6c0.9,0,1.5-0.8,1.5-1.8
			c0-0.9-0.5-1.9-1.6-1.9c-1.1,0-1.9,1-2.3,1.7C294.5,419,294.7,419.4,295,419.6z"/>
	</g>
	<g>
		<defs>
			<path id="SVGID_1_" d="M405.4,440.1c0-29.6-24-53.7-53.7-53.7c-29.6,0-53.7,24-53.7,53.7s24,53.7,53.7,53.7
				C381.4,493.7,405.4,469.7,405.4,440.1L405.4,440.1z"/>
		</defs>
		<clipPath id="SVGID_2_">
			<use xlink:href="#SVGID_1_"  style="overflow:visible;"/>
		</clipPath>
		<path class="st2" d="M355,544.1L247.7,436.8 M358.6,540.5L251.3,433.2 M362.2,536.9L254.9,429.6 M365.8,533.3L258.5,426
			 M369.4,529.7L262.1,422.4 M373,526.1L265.7,418.8 M376.6,522.5L269.3,415.2 M380.2,518.9L272.9,411.6 M383.8,515.3L276.5,408
			 M387.4,511.7L280.1,404.4 M391,508.1L283.7,400.8 M394.6,504.5L287.3,397.2 M398.2,500.9L290.9,393.6 M401.8,497.3L294.5,390
			 M405.4,493.7L298.1,386.4 M409,490.1L301.7,382.8 M412.6,486.5L305.3,379.2 M416.2,482.9L308.9,375.6 M419.8,479.3L312.5,372
			 M423.4,475.7L316.1,368.4 M427,472.1L319.7,364.8 M430.6,468.5L323.3,361.2 M434.2,464.9L326.9,357.6 M437.8,461.3L330.5,354
			 M441.4,457.7L334.1,350.4 M445,454.1L337.7,346.8 M448.6,450.5L341.3,343.2 M452.2,446.9L344.9,339.6 M455.8,443.3L348.5,336
			 M459.4,439.7L352.1,332.4"/>
	</g>
	<path class="st3" d="M405.4,440.1c0-29.6-24-53.7-53.7-53.7c-29.6,0-53.7,24-53.7,53.7s24,53.7,53.7,53.7
		C381.4,493.7,405.4,469.7,405.4,440.1L405.4,440.1z"/>
	<polyline points="412.7,441.8 417.3,439.5 412.7,437.3 413.9,439.5 	"/>
	<line class="st3" x1="289.7" y1="439.5" x2="413.9" y2="439.5"/>
	<polyline points="352.2,383.8 349.9,379.3 347.7,383.8 349.9,382.7 	"/>
	<line class="st3" x1="349.9" y1="503.3" x2="349.9" y2="382.7"/>
	<g>
		<path class="st4" d="M339.9,374c0,0.4,0,0.5,0.8,0.5h0.3v0.3c-0.3,0-1.1,0-1.5,0c-0.4,0-1.2,0-1.5,0v-0.3h0.3
			c0.8,0,0.8-0.1,0.8-0.5v-5.3c0-0.4,0-0.5-0.8-0.5h-0.3V368c0.3,0,1.1,0,1.5,0c0.4,0,1.2,0,1.5,0v0.3h-0.3c-0.8,0-0.8,0.1-0.8,0.5
			V374z"/>
		<path class="st4" d="M341.5,370.8v-0.3l1.4-0.1v1c0.3-0.6,0.7-1,1.5-1c0.4,0,1.2,0.1,1.3,1c0.2-0.4,0.6-1,1.4-1
			c0.6,0,0.9,0.2,1,0.4c0.3,0.4,0.3,0.7,0.3,1.5v1.9c0,0.3,0.3,0.3,0.8,0.3v0.3c-0.3,0-0.9,0-1.1,0c-0.3,0-0.8,0-1.1,0v-0.3
			c0.7,0,0.8,0,0.8-0.4v-2.3c0-0.6-0.1-1.1-0.7-1.1c-0.6,0-1.3,0.6-1.3,1.6v1.8c0,0.4,0.1,0.4,0.8,0.4v0.3c-0.3,0-0.9,0-1.1,0
			c-0.3,0-0.8,0-1.1,0v-0.3c0.7,0,0.8,0,0.8-0.4v-2.3c0-0.6-0.1-1.1-0.7-1.1c-0.6,0-1.3,0.6-1.3,1.6v1.8c0,0.4,0.1,0.4,0.8,0.4v0.3
			c-0.3,0-0.9,0-1.1,0c-0.3,0-0.8,0-1.1,0v-0.3c0.7,0,0.8,0,0.8-0.4v-2.7C342.3,370.9,342.2,370.8,341.5,370.8z"/>
	</g>
	<g>
		<path class="st4" d="M352.7,377.3c-0.1,0-1-0.6-1.6-1.9c-0.5-1.1-0.7-2.3-0.7-3.1c0-0.8,0.1-1.9,0.6-3c0.6-1.3,1.5-1.9,1.6-1.9
			c0.1,0,0.1,0,0.1,0.1c0,0,0,0-0.1,0.2c-1.2,1.2-1.6,3-1.6,4.7c0,1.5,0.3,3.4,1.6,4.7C352.8,377.1,352.8,377.1,352.7,377.3
			C352.8,377.2,352.8,377.3,352.7,377.3z"/>
	</g>
	<g>
		<path class="st4" d="M354.9,373.9c0.2,0,0.4,0,0.7,0.2c0.2,0.1,0.4,0.1,0.6,0.1c0.3,0,1-0.2,1.2-0.8c0-0.1,0-0.1,0.1-0.1
			c0.1,0,0.1,0,0.1,0.1c0,0.3-0.6,1.5-1.6,1.5c-0.3,0-0.5-0.2-0.6-0.4c-0.2-0.3-0.3-0.4-0.6-0.4c-0.3,0-0.6,0.3-0.8,0.6
			c-0.1,0.1-0.1,0.1-0.2,0.1c0,0-0.1,0-0.1-0.1c0-0.1,0.3-0.6,1-1.3l0.9-0.8c0.2-0.2,1-0.9,1.4-1.3c-0.3,0-0.4,0-0.8-0.1
			c-0.2-0.1-0.4-0.1-0.6-0.1c-0.1,0-0.7,0-0.8,0.5c0,0.1,0,0.1-0.1,0.1s-0.1-0.1-0.1-0.1c0-0.2,0.5-1.1,1.2-1.1
			c0.3,0,0.5,0.2,0.7,0.4c0.1,0.2,0.3,0.3,0.5,0.3s0.4-0.2,0.7-0.6c0-0.1,0.1-0.1,0.1-0.1c0,0,0.1,0,0.1,0.1c0,0-0.2,0.5-1.2,1.4
			c-0.4,0.4-1,0.9-1,0.9c-0.4,0.3-0.6,0.6-1.2,1.1C354.8,373.9,354.9,373.9,354.9,373.9z"/>
	</g>
	<g>
		<path class="st4" d="M360.8,375.3c-0.6,1.3-1.5,1.9-1.6,1.9c-0.1,0-0.1,0-0.1-0.1c0,0,0-0.1,0.1-0.2c1.2-1.3,1.6-3,1.6-4.7
			c0-2.1-0.6-3.7-1.5-4.7c-0.2-0.2-0.2-0.2-0.2-0.2c0-0.1,0-0.1,0.1-0.1c0.1,0,1,0.6,1.6,1.9c0.5,1.1,0.7,2.3,0.7,3.1
			C361.4,373.1,361.3,374.2,360.8,375.3z"/>
	</g>
	<g>
		<path class="st4" d="M428.3,439.9l0.1,0.8c0.1,0.9,0.2,1.4,0.7,1.4c0.2,0,0.6-0.2,0.7-0.9c0-0.1,0-0.2,0.1-0.2
			c0.1,0,0.1,0.1,0.1,0.2c0,0.3-0.2,1.1-0.9,1.1c-0.3,0-0.8-0.1-1.3-0.4c-0.4-0.4-0.4-0.8-0.4-1.4c0-0.7,0-1-0.4-1.3
			c-0.3-0.3-0.8-0.3-0.9-0.3h-1.1v2.5c0,0.4,0,0.5,0.8,0.5h0.2v0.3c-0.4,0-1.1,0-1.5,0s-1.1,0-1.5,0v-0.3h0.2c0.8,0,0.8-0.1,0.8-0.5
			v-5.3c0-0.4,0-0.5-0.8-0.5h-0.2v-0.3h3.1c1.5,0,2.6,0.8,2.6,1.8c0,0.8-0.8,1.4-1.7,1.6C427.6,438.9,428.1,439.2,428.3,439.9z
			 M426,438.6c1.5,0,1.7-0.8,1.7-1.5c0-1.4-1.1-1.5-2-1.5c-0.2,0-0.5,0-0.6,0c-0.2,0-0.2,0.1-0.2,0.4v2.6H426z"/>
		<path class="st4" d="M431.4,441.3c0.2,0.4,0.6,0.7,1.1,0.7c0.1,0,1,0,1.3-1c0-0.1,0-0.1,0.1-0.1c0,0,0.1,0,0.1,0.1
			c0,0.2-0.4,1.3-1.7,1.3c-1.1,0-2.2-1-2.2-2.3c0-1.2,0.9-2.3,2.1-2.3c1.2,0,1.8,1,1.8,2c0,0.2,0,0.2-0.2,0.2h-2.8
			C431.1,440.2,431.1,440.8,431.4,441.3z M433.5,439.6c0-0.4-0.1-1.7-1.1-1.7c-0.3,0-1.2,0.3-1.2,1.7H433.5z"/>
	</g>
	<g>
		<path class="st4" d="M437.7,444.6c-0.1,0-1-0.6-1.6-1.9c-0.5-1.1-0.7-2.3-0.7-3.1c0-0.8,0.1-1.9,0.6-3c0.6-1.3,1.5-1.9,1.6-1.9
			c0.1,0,0.1,0,0.1,0.1c0,0,0,0-0.1,0.2c-1.2,1.2-1.6,3-1.6,4.7c0,1.5,0.3,3.4,1.6,4.7C437.8,444.4,437.8,444.5,437.7,444.6
			C437.8,444.6,437.7,444.6,437.7,444.6z"/>
	</g>
	<g>
		<path class="st4" d="M439.9,441.3c0.2,0,0.4,0,0.7,0.2c0.2,0.1,0.4,0.1,0.6,0.1c0.3,0,1-0.2,1.2-0.8c0-0.1,0-0.1,0.1-0.1
			c0.1,0,0.1,0,0.1,0.1c0,0.3-0.6,1.5-1.6,1.5c-0.3,0-0.5-0.2-0.6-0.4c-0.2-0.3-0.3-0.4-0.6-0.4c-0.3,0-0.6,0.3-0.8,0.6
			c-0.1,0.1-0.1,0.1-0.2,0.1c0,0-0.1,0-0.1-0.1c0-0.1,0.3-0.6,1-1.3l0.9-0.8c0.2-0.2,1-0.9,1.4-1.3c-0.3,0-0.4,0-0.8-0.1
			c-0.2-0.1-0.4-0.1-0.6-0.1c-0.1,0-0.7,0-0.8,0.5c0,0.1,0,0.1-0.1,0.1s-0.1-0.1-0.1-0.1c0-0.2,0.5-1.1,1.2-1.1
			c0.3,0,0.5,0.2,0.7,0.4c0.1,0.2,0.3,0.3,0.5,0.3s0.4-0.2,0.7-0.6c0-0.1,0.1-0.1,0.1-0.1c0,0,0.1,0,0.1,0.1c0,0-0.2,0.5-1.2,1.4
			c-0.4,0.4-1,0.9-1,0.9c-0.4,0.3-0.6,0.6-1.2,1.1C439.7,441.3,439.9,441.3,439.9,441.3z"/>
	</g>
	<g>
		<path class="st4" d="M445.7,442.7c-0.6,1.3-1.5,1.9-1.6,1.9c-0.1,0-0.1,0-0.1-0.1c0,0,0,0,0.1-0.2c1.2-1.3,1.6-3,1.6-4.7
			c0-2.1-0.6-3.7-1.5-4.7c-0.2-0.2-0.2-0.2-0.2-0.2c0-0.1,0-0.1,0.1-0.1c0.1,0,1,0.6,1.6,1.9c0.5,1.1,0.7,2.3,0.7,3.1
			C446.3,440.5,446.2,441.6,445.7,442.7z"/>
	</g>
	<g>
		<path class="st4" d="M410.6,449.1c0,0.4,0,0.5,0.9,0.5h0.3v0.3c-0.3,0-1.2,0-1.6,0s-1.3,0-1.6,0v-0.3h0.3c0.9,0,0.9-0.1,0.9-0.5
			V444c-0.5,0.3-1.1,0.3-1.3,0.3v-0.3c0.3,0,1.2,0,1.8-0.6c0.2,0,0.2,0,0.2,0.3V449.1z"/>
	</g>
	<g>
		<path class="st4" d="M344.6,449c-0.4,0.9-1.2,1.2-1.7,1.2c-0.5,0-1.2-0.2-1.6-1c-0.4-0.8-0.4-1.7-0.4-2.4c0-0.8,0-1.6,0.4-2.3
			c0.4-0.9,1.1-1.2,1.7-1.2c0.4,0,1.2,0.2,1.7,1.1c0.3,0.7,0.4,1.5,0.4,2.3C345,447.5,344.9,448.3,344.6,449z M344,448.7
			c0.1-0.6,0.1-1.3,0.1-2.1c0-0.6,0-1.4-0.1-1.9c-0.2-1-0.8-1.2-1.2-1.2c-0.2,0-1,0.1-1.2,1.3c-0.1,0.5-0.1,1.2-0.1,1.8
			c0,0.6,0,1.5,0.1,2.1c0.2,1,0.8,1.2,1.2,1.2C343.3,449.9,343.9,449.6,344,448.7z"/>
	</g>
	<g>
		<path class="st1" d="M423,417.3c-0.9,0-1.1,0.6-1.1,0.9c0,0.4,0.4,0.5,0.8,0.6c0.4,0.1,0.7,0.1,1,0.4c0.1,0.1,0.3,0.4,0.3,0.7
			c0,0.4-0.4,1.7-2,1.7c-0.9,0-1.4-0.4-1.4-1c0-0.4,0.3-0.7,0.6-0.7c0.2,0,0.4,0.1,0.4,0.3c0,0.3-0.2,0.6-0.6,0.5
			c0.2,0.5,1,0.5,1.1,0.5c1.2,0,1.4-0.8,1.4-1.1c0-0.5-0.5-0.7-1-0.8c-0.3-0.1-1-0.2-1-1c0-0.4,0.4-1.5,1.7-1.5
			c0.8,0,1.2,0.4,1.2,0.9c0,0.4-0.2,0.6-0.5,0.6s-0.3-0.1-0.3-0.3c0-0.2,0.2-0.4,0.5-0.4C423.7,417.4,423.2,417.3,423,417.3z"/>
	</g>
	<g>
		<path class="st1" d="M428.3,418.2c-0.1,0-0.3,0-0.3-0.2s0.2-0.2,0.3-0.2h6c0.1,0,0.3,0,0.3,0.2s-0.2,0.2-0.3,0.2H428.3z
			 M428.3,420.1c-0.1,0-0.3,0-0.3-0.2s0.2-0.2,0.3-0.2h5.9c0.1,0,0.3,0,0.3,0.2s-0.2,0.2-0.3,0.2H428.3z"/>
		<path class="st1" d="M442.1,420.5c-0.4,0.9-1.2,1.2-1.7,1.2c-0.5,0-1.2-0.2-1.6-1c-0.4-0.8-0.4-1.7-0.4-2.4c0-0.8,0-1.6,0.4-2.3
			c0.4-0.9,1.1-1.2,1.7-1.2c0.4,0,1.2,0.2,1.7,1.1c0.3,0.7,0.4,1.5,0.4,2.3C442.5,419.1,442.5,419.8,442.1,420.5z M441.6,420.2
			c0.1-0.6,0.1-1.3,0.1-2.1c0-0.6,0-1.4-0.1-1.9c-0.2-1-0.8-1.2-1.2-1.2c-0.2,0-1,0.1-1.2,1.3c-0.1,0.5-0.1,1.2-0.1,1.8
			c0,0.6,0,1.5,0.1,2.1c0.2,1,0.8,1.2,1.2,1.2C440.9,421.5,441.4,421.2,441.6,420.2z"/>
	</g>
	<g>
		<path class="st1" d="M376.4,367c-0.9,0-1.1,0.6-1.1,0.9c0,0.4,0.4,0.5,0.8,0.6c0.4,0.1,0.7,0.1,1,0.4c0.1,0.1,0.3,0.4,0.3,0.7
			c0,0.4-0.4,1.7-2,1.7c-0.9,0-1.4-0.4-1.4-1c0-0.4,0.3-0.7,0.6-0.7c0.2,0,0.4,0.1,0.4,0.3c0,0.3-0.2,0.6-0.6,0.5
			c0.2,0.5,1,0.5,1.1,0.5c1.2,0,1.4-0.8,1.4-1.1c0-0.5-0.5-0.7-1-0.8c-0.3-0.1-1-0.2-1-1c0-0.4,0.4-1.5,1.7-1.5
			c0.8,0,1.2,0.4,1.2,0.9c0,0.4-0.2,0.6-0.5,0.6s-0.3-0.1-0.3-0.3c0-0.2,0.2-0.4,0.5-0.4C377.1,367.1,376.6,367,376.4,367z"/>
	</g>
	<g>
		<path class="st1" d="M381.7,367.9c-0.1,0-0.3,0-0.3-0.2s0.2-0.2,0.3-0.2h6c0.1,0,0.3,0,0.3,0.2s-0.2,0.2-0.3,0.2H381.7z
			 M381.7,369.9c-0.1,0-0.3,0-0.3-0.2s0.2-0.2,0.3-0.2h5.9c0.1,0,0.3,0,0.3,0.2s-0.2,0.2-0.3,0.2H381.7z"/>
		<path class="st1" d="M394.4,370.4c0.2,0,0.9,0,0.9-0.1c0.1-0.1,0.2-0.6,0.2-0.9h0.2l-0.3,1.7h-3.7c0-0.2,0-0.3,0.1-0.4l1.9-2.1
			c0.5-0.6,1-1.4,1-2.2c0-0.8-0.4-1.6-1.3-1.6c-0.6,0-1.1,0.4-1.3,1c0,0,0,0,0.1,0c0.3,0,0.5,0.3,0.5,0.5c0,0.4-0.3,0.5-0.5,0.5
			c0,0-0.5,0-0.5-0.6c0-0.9,0.7-1.8,1.9-1.8c1.2,0,2.1,0.8,2.1,1.9c0,1-0.6,1.5-2.2,2.9l-1.1,1H394.4z"/>
	</g>
	<g>
		<path class="st1" d="M398.5,371.7c0,0.9-0.6,1.5-1.4,1.5c-0.6,0-1.1-0.3-1.1-0.8c0-0.3,0.2-0.5,0.5-0.5c0.3,0,0.5,0.2,0.5,0.5
			c0,0.3-0.2,0.4-0.3,0.4c0.3,0.1,0.5,0.1,0.5,0.1c0.6,0,0.7-0.9,0.7-1.3v-3.9c0-0.5-0.1-0.6-0.9-0.6v-0.3l1.5-0.1V371.7z
			 M398,365.6c-0.3,0-0.5-0.2-0.5-0.5s0.2-0.5,0.5-0.5s0.5,0.2,0.5,0.5S398.3,365.6,398,365.6z"/>
	</g>
	<g>
		<path class="st1" d="M400.4,373.4c-0.1,0.2-0.1,0.2-0.2,0.2c-0.1,0-0.2-0.1-0.2-0.2c0,0,0,0,0-0.2l3.5-9.5c0-0.1,0.1-0.1,0.2-0.1
			c0.1,0,0.2,0.1,0.2,0.2c0,0,0,0,0,0.2L400.4,373.4z"/>
		<path class="st1" d="M407.4,370.4c0,0.1,0,0.2,0,0.2c0,0.2,0.1,0.2,0.4,0.2c0.3,0,0.4,0,0.6,0c0.3,0,0.3,0,0.3,0.1
			c0,0.2-0.1,0.2-0.2,0.2c-0.3,0-0.6,0-0.9,0c-0.3,0-0.5,0-0.8,0c-0.3,0-0.6,0-0.8,0c-0.3,0-0.5,0-0.8,0c-0.1,0-0.2,0-0.2-0.1
			c0-0.2,0.1-0.2,0.4-0.2c1.1,0,1.1-0.1,1.2-0.5l1.3-5.3c0,0,0-0.1,0-0.2c0-0.1,0-0.1-0.3-0.1h-0.4c-1.5,0-1.7,0.2-2.3,1.7
			c-0.1,0.2-0.1,0.2-0.2,0.2c-0.1,0-0.1,0-0.1-0.1c0,0,0-0.2,0.1-0.2l0.6-1.8c0.1-0.2,0.1-0.2,0.3-0.2h5.5c0.2,0,0.3,0,0.3,0.1
			c0,0,0,0.1,0,0.2l-0.3,1.7c0,0.1,0,0.2-0.1,0.2c-0.1,0-0.1-0.1-0.1-0.1c0,0,0-0.1,0-0.2c0-0.3,0.1-0.6,0.1-0.8
			c0-0.8-0.4-0.8-1.5-0.8c-0.2,0-0.5,0-0.6,0c-0.1,0-0.2,0.1-0.2,0.4L407.4,370.4z"/>
	</g>
	<polyline class="st1" points="412.2,432.8 410.2,436 414,435.7 412.4,434.7 	"/>
	<line class="st5" x1="412.4" y1="434.7" x2="427.9" y2="425.4"/>
	<polyline class="st1" points="363.5,380.4 360.6,382.8 364.3,383.8 363.1,382.3 	"/>
	<line class="st5" x1="363.1" y1="382.3" x2="392.5" y2="375.7"/>
	<polyline class="st1" points="289.5,435.3 293.2,436 291.5,432.6 291.2,434.5 	"/>
	<line class="st5" x1="291.2" y1="434.5" x2="279.1" y2="425.4"/>
	<polyline points="196.6,441.8 201.1,439.5 196.6,437.2 197.7,439.5 	"/>
	<line class="st3" x1="147.9" y1="439.2" x2="197.7" y2="439.5"/>
	<g>
		<defs>
			<polygon id="SVGID_3_" points="147.9,439.2 147.9,389.6 186.8,389.6 186.8,488.8 147.9,488.8 			"/>
		</defs>
		<clipPath id="SVGID_4_">
			<use xlink:href="#SVGID_3_"  style="overflow:visible;"/>
		</clipPath>
		<path class="st6" d="M165.6,510.1L96.5,441 M169.2,506.5l-69.1-69.1 M172.8,502.9l-69.1-69.1 M176.4,499.3l-69.1-69.1 M180,495.7
			l-69.1-69.1 M183.6,492.1L114.5,423 M187.2,488.5l-69.1-69.1 M190.8,484.9l-69.1-69.1 M194.4,481.3l-69.1-69.1 M198,477.7
			l-69.1-69.1 M201.6,474.1L132.5,405 M205.2,470.5l-69.1-69.1 M208.8,466.9l-69.1-69.1 M212.4,463.3l-69.1-69.1 M216,459.7
			l-69.1-69.1 M219.6,456.1L150.5,387 M223.2,452.5l-69.1-69.1 M226.8,448.9l-69.1-69.1 M230.4,445.3l-69.1-69.1 M234,441.7
			l-69.1-69.1 M237.6,438.1L168.5,369"/>
	</g>
	<polygon class="st7" points="147.9,439.2 147.9,389.6 186.8,389.6 186.8,488.8 147.9,488.8 	"/>
	<polyline points="189.1,394.2 186.8,389.6 184.6,394.2 186.8,393 	"/>
	<line class="st3" x1="186.8" y1="488.8" x2="186.8" y2="393"/>
	<g>
		<path class="st4" d="M208.8,439.9l0.1,0.8c0.1,0.9,0.2,1.4,0.7,1.4c0.2,0,0.6-0.2,0.7-0.9c0-0.1,0-0.2,0.1-0.2
			c0.1,0,0.1,0.1,0.1,0.2c0,0.3-0.2,1.1-0.9,1.1c-0.3,0-0.8-0.1-1.3-0.4c-0.4-0.4-0.4-0.8-0.4-1.4c0-0.7,0-1-0.4-1.3
			c-0.3-0.3-0.8-0.3-0.9-0.3h-1.1v2.5c0,0.4,0,0.5,0.8,0.5h0.2v0.3c-0.4,0-1.1,0-1.5,0c-0.4,0-1.1,0-1.5,0v-0.3h0.2
			c0.8,0,0.8-0.1,0.8-0.5v-5.3c0-0.4,0-0.5-0.8-0.5h-0.2v-0.3h3.1c1.5,0,2.6,0.8,2.6,1.8c0,0.8-0.8,1.4-1.7,1.6
			C208.1,438.9,208.6,439.2,208.8,439.9z M206.6,438.6c1.5,0,1.7-0.8,1.7-1.5c0-1.4-1.1-1.5-2-1.5c-0.2,0-0.5,0-0.6,0
			c-0.2,0-0.2,0.1-0.2,0.4v2.6H206.6z"/>
		<path class="st4" d="M211.9,441.3c0.2,0.4,0.6,0.7,1.1,0.7c0.1,0,1,0,1.3-1c0-0.1,0-0.1,0.1-0.1c0,0,0.1,0,0.1,0.1
			c0,0.2-0.4,1.3-1.7,1.3c-1.1,0-2.2-1-2.2-2.3c0-1.2,0.9-2.3,2.1-2.3c1.2,0,1.8,1,1.8,2c0,0.2,0,0.2-0.2,0.2h-2.8
			C211.6,440.2,211.6,440.8,211.9,441.3z M214,439.6c0-0.4-0.1-1.7-1.1-1.7c-0.3,0-1.2,0.3-1.2,1.7H214z"/>
	</g>
	<g>
		<path class="st4" d="M218.2,444.6c-0.1,0-1-0.6-1.6-1.9c-0.5-1.1-0.7-2.3-0.7-3.1c0-0.8,0.1-1.9,0.6-3c0.6-1.3,1.5-1.9,1.6-1.9
			c0.1,0,0.1,0,0.1,0.1c0,0,0,0-0.1,0.2c-1.2,1.2-1.6,3-1.6,4.7c0,1.5,0.3,3.4,1.6,4.7C218.3,444.4,218.3,444.5,218.2,444.6
			C218.3,444.6,218.2,444.6,218.2,444.6z"/>
	</g>
	<g>
		<path class="st4" d="M221.8,437.9c-0.9,0-1.1,0.6-1.1,0.9c0,0.4,0.4,0.5,0.8,0.6c0.4,0.1,0.7,0.1,1,0.4c0.1,0.1,0.3,0.4,0.3,0.7
			c0,0.4-0.4,1.7-2,1.7c-0.9,0-1.4-0.4-1.4-1c0-0.4,0.3-0.7,0.6-0.7c0.2,0,0.4,0.1,0.4,0.3c0,0.3-0.2,0.6-0.6,0.5
			c0.2,0.5,1,0.5,1.1,0.5c1.2,0,1.4-0.8,1.4-1.1c0-0.5-0.5-0.7-1-0.8c-0.3-0.1-1-0.2-1-1c0-0.4,0.4-1.5,1.7-1.5
			c0.8,0,1.2,0.4,1.2,0.9c0,0.4-0.2,0.6-0.5,0.6s-0.3-0.1-0.3-0.3c0-0.2,0.2-0.4,0.5-0.4C222.6,438,222.1,437.9,221.8,437.9z"/>
	</g>
	<g>
		<path class="st4" d="M225.8,442.7c-0.6,1.3-1.5,1.9-1.6,1.9c-0.1,0-0.1,0-0.1-0.1c0,0,0,0,0.1-0.2c1.2-1.3,1.6-3,1.6-4.7
			c0-2.1-0.6-3.7-1.5-4.7c-0.2-0.2-0.2-0.2-0.2-0.2c0-0.1,0-0.1,0.1-0.1c0.1,0,1,0.6,1.6,1.9c0.5,1.1,0.7,2.3,0.7,3.1
			C226.4,440.5,226.3,441.6,225.8,442.7z"/>
	</g>
	<g>
		<path class="st4" d="M176.9,384.3c0,0.4,0,0.5,0.8,0.5h0.3v0.3c-0.3,0-1.1,0-1.5,0c-0.4,0-1.2,0-1.5,0v-0.3h0.3
			c0.8,0,0.8-0.1,0.8-0.5v-5.3c0-0.4,0-0.5-0.8-0.5h-0.3v-0.3c0.3,0,1.1,0,1.5,0c0.4,0,1.2,0,1.5,0v0.3h-0.3c-0.8,0-0.8,0.1-0.8,0.5
			V384.3z"/>
		<path class="st4" d="M178.6,381.1v-0.3l1.4-0.1v1c0.3-0.6,0.7-1,1.5-1c0.4,0,1.2,0.1,1.3,1c0.2-0.4,0.6-1,1.4-1
			c0.6,0,0.9,0.2,1,0.4c0.3,0.4,0.3,0.7,0.3,1.5v1.9c0,0.3,0.3,0.3,0.8,0.3v0.3c-0.3,0-0.9,0-1.1,0c-0.3,0-0.8,0-1.1,0v-0.3
			c0.7,0,0.8,0,0.8-0.4V382c0-0.6-0.1-1.1-0.7-1.1c-0.6,0-1.3,0.6-1.3,1.6v1.8c0,0.4,0.1,0.4,0.8,0.4v0.3c-0.3,0-0.9,0-1.1,0
			c-0.3,0-0.8,0-1.1,0v-0.3c0.7,0,0.8,0,0.8-0.4V382c0-0.6-0.1-1.1-0.7-1.1c-0.6,0-1.3,0.6-1.3,1.6v1.8c0,0.4,0.1,0.4,0.8,0.4v0.3
			c-0.3,0-0.9,0-1.1,0c-0.3,0-0.8,0-1.1,0v-0.3c0.7,0,0.8,0,0.8-0.4v-2.7C179.4,381.2,179.3,381.1,178.6,381.1z"/>
	</g>
	<g>
		<path class="st4" d="M189.7,387.6c-0.1,0-1-0.6-1.6-1.9c-0.5-1.1-0.7-2.3-0.7-3.1c0-0.8,0.1-1.9,0.6-3c0.6-1.3,1.5-1.9,1.6-1.9
			c0.1,0,0.1,0,0.1,0.1c0,0,0,0-0.1,0.2c-1.2,1.2-1.6,3-1.6,4.7c0,1.5,0.3,3.4,1.6,4.7C189.8,387.4,189.8,387.5,189.7,387.6
			C189.8,387.6,189.8,387.6,189.7,387.6z"/>
	</g>
	<g>
		<path class="st4" d="M193.4,380.9c-0.9,0-1.1,0.6-1.1,0.9c0,0.4,0.4,0.5,0.8,0.6c0.4,0.1,0.7,0.1,1,0.4c0.1,0.1,0.3,0.4,0.3,0.7
			c0,0.4-0.4,1.7-2,1.7c-0.9,0-1.4-0.4-1.4-1c0-0.4,0.3-0.7,0.6-0.7c0.2,0,0.4,0.1,0.4,0.3c0,0.3-0.2,0.6-0.6,0.5
			c0.2,0.5,1,0.5,1.1,0.5c1.2,0,1.4-0.8,1.4-1.1c0-0.5-0.5-0.7-1-0.8c-0.3-0.1-1-0.2-1-1c0-0.4,0.4-1.5,1.7-1.5
			c0.8,0,1.2,0.4,1.2,0.9c0,0.4-0.2,0.6-0.5,0.6s-0.3-0.1-0.3-0.3c0-0.2,0.2-0.4,0.5-0.4C194.1,381,193.6,380.9,193.4,380.9z"/>
	</g>
	<g>
		<path class="st4" d="M197.3,385.7c-0.6,1.3-1.5,1.9-1.6,1.9c-0.1,0-0.1,0-0.1-0.1c0,0,0-0.1,0.1-0.2c1.2-1.3,1.6-3,1.6-4.7
			c0-2.1-0.6-3.7-1.5-4.7c-0.2-0.2-0.2-0.2-0.2-0.2c0-0.1,0-0.1,0.1-0.1c0.1,0,1,0.6,1.6,1.9c0.5,1.1,0.7,2.3,0.7,3.1
			C197.9,383.5,197.8,384.6,197.3,385.7z"/>
	</g>
	<g>
		<path class="st4" d="M195.7,448.6c-0.4,0.9-1.2,1.2-1.7,1.2c-0.5,0-1.2-0.2-1.6-1c-0.4-0.8-0.4-1.7-0.4-2.4c0-0.8,0-1.6,0.4-2.3
			c0.4-0.9,1.1-1.2,1.7-1.2c0.4,0,1.2,0.2,1.7,1.1c0.3,0.7,0.4,1.5,0.4,2.3C196.1,447.1,196,447.9,195.7,448.6z M195.1,448.3
			c0.1-0.6,0.1-1.3,0.1-2.1c0-0.6,0-1.4-0.1-1.9c-0.2-1-0.8-1.2-1.2-1.2c-0.2,0-1,0.1-1.2,1.3c-0.1,0.5-0.1,1.2-0.1,1.8
			c0,0.6,0,1.5,0.1,2.1c0.2,1,0.8,1.2,1.2,1.2C194.4,449.5,195,449.2,195.1,448.3z"/>
	</g>
	<g>
		<path class="st4" d="M212.4,348.7c1.9,0,3.1,1.2,3.1,2.4c0,1.1-1,2-2.4,2.3c1.7,0.2,2.8,1.3,2.8,2.5c0,1.4-1.3,2.6-3.1,2.6h-5.4
			V358h0.3c1,0,1.1-0.1,1.1-0.7v-7.6c0-0.5,0-0.7-1.1-0.7h-0.3v-0.4H212.4z M212,353.2c1.6,0,2.3-1.2,2.3-2.1c0-0.8-0.5-2-2-2h-1.8
			c-0.6,0-0.7,0.1-0.7,0.6v3.6H212z M212.4,358c1.4,0,2.3-1.1,2.3-2.2c0-1.1-0.7-2.3-2.1-2.3h-2.7v4c0,0.5,0,0.6,0.7,0.6H212.4z"/>
		<path class="st4" d="M219.3,352.1v5.3c0,0.6,0.1,0.6,1,0.6v0.4c-0.5,0-1.3,0-1.5,0c-0.4,0-1.1,0-1.5,0V358c0.9,0,1.1,0,1.1-0.6
			v-3.9c0-0.7-0.1-0.8-1-0.8v-0.4L219.3,352.1z M218.6,350.3c-0.3,0-0.7-0.3-0.7-0.7c0-0.4,0.3-0.7,0.7-0.7c0.4,0,0.7,0.3,0.7,0.7
			C219.3,349.9,219,350.3,218.6,350.3z"/>
		<path class="st4" d="M223.2,357.4c0,0.6,0.2,0.6,1.1,0.6v0.4c-0.4,0-1.1,0-1.5,0c-0.4,0-1.1,0-1.5,0V358c0.9,0,1.1,0,1.1-0.6v-7.5
			c0-0.7-0.1-0.8-1.1-0.8v-0.4l2-0.2V357.4z"/>
		<path class="st4" d="M227.1,352.1v5.3c0,0.6,0.1,0.6,1,0.6v0.4c-0.5,0-1.3,0-1.5,0c-0.4,0-1.1,0-1.5,0V358c0.9,0,1.1,0,1.1-0.6
			v-3.9c0-0.7-0.1-0.8-1-0.8v-0.4L227.1,352.1z M226.4,350.3c-0.3,0-0.7-0.3-0.7-0.7c0-0.4,0.3-0.7,0.7-0.7c0.4,0,0.7,0.3,0.7,0.7
			C227.1,349.9,226.9,350.3,226.4,350.3z"/>
		<path class="st4" d="M234.9,357.6c0,0.4,0.4,0.4,1.1,0.4v0.4c-0.4,0-1.1,0-1.6,0c-0.4,0-1.2,0-1.5,0V358c0.9,0,1.1,0,1.1-0.6V354
			c0-0.9-0.2-1.6-1.1-1.6s-1.9,0.8-1.9,2.3v2.7c0,0.6,0.2,0.6,1.1,0.6v0.4c-0.4,0-1.1,0-1.6,0c-0.4,0-1.2,0-1.5,0V358
			c0.9,0,1.1,0,1.1-0.6v-3.9c0-0.7-0.1-0.8-1.1-0.8v-0.4l2-0.2v1.5h0c0.1-0.3,0.7-1.5,2.1-1.5c0.5,0,1.2,0.1,1.6,0.6
			c0.3,0.5,0.3,0.9,0.3,2.2V357.6z"/>
		<path class="st4" d="M237.9,355.1v0.3c0,2.5,1.4,2.9,2.1,2.9c0.6,0,1.6-0.3,1.9-1.5c0-0.1,0.1-0.1,0.2-0.1c0.1,0,0.2,0.1,0.2,0.1
			c0,0.3-0.6,1.9-2.4,1.9c-1.6,0-3.1-1.4-3.1-3.3c0-1.8,1.3-3.3,2.9-3.3c1.7,0,2.5,1.3,2.5,2.8c0,0.3,0,0.3-0.3,0.3H237.9z
			 M241.3,354.9c0-0.5-0.1-2.5-1.6-2.5c-0.4,0-1.7,0.3-1.8,2.5H241.3z"/>
		<path class="st4" d="M248.2,357.1c0,0.2,0,1,0.5,1c0.2,0,0.5-0.1,0.5-0.9v-0.8h0.3v0.8c0,1.1-0.8,1.3-1.1,1.3
			c-0.6,0-1.1-0.5-1.1-1.2c-0.3,0.7-0.9,1.3-1.9,1.3c-0.9,0-2.2-0.4-2.2-1.5c0-1.1,1.1-2.3,4-2.4v-0.6c0-1.3-0.8-1.8-1.5-1.8
			c-0.6,0-1.3,0.3-1.6,0.9c0.2,0,0.7,0,0.7,0.6c0,0.3-0.2,0.6-0.6,0.6c-0.3,0-0.6-0.2-0.6-0.6c0-0.9,0.9-1.7,2.1-1.7
			c0.6,0,1.3,0.2,1.8,0.7c0.6,0.6,0.6,1.1,0.6,1.9V357.1z M247.2,355c-0.5,0-3,0.2-3,2.1c0,0.7,0.6,1.2,1.3,1.2
			c0.6,0,1.7-0.5,1.7-1.9V355z"/>
	</g>
	<g>
		<path class="st4" d="M252.2,357.4c0,0.5,0,0.7,1.1,0.7h0.3v0.4c-0.3,0-1.3,0-1.7,0c-0.4,0-1.2,0-1.6,0V358c0.9,0,1.1,0,1.1-0.6
			v-3.9c0-0.7-0.1-0.8-1.1-0.8v-0.4l1.9-0.2v1.6h0c0.1-0.3,0.5-1.6,1.7-1.6c0.6,0,1,0.4,1,0.8c0,0.4-0.3,0.6-0.6,0.6
			c-0.2,0-0.6-0.2-0.6-0.6c0-0.4,0.2-0.5,0.3-0.5c-0.1,0-0.1,0-0.2,0c-1.1,0-1.7,1.3-1.7,2.7V357.4z"/>
		<path class="st4" d="M269.3,351.9H269c-0.2-2.3-0.3-2.8-2.6-2.8c-0.3,0-0.7,0-0.8,0c-0.2,0.1-0.3,0.2-0.3,0.5v7.6
			c0,0.5,0,0.7,1.4,0.7h0.5v0.4c-0.5,0-2,0-2.5,0c-0.6,0-2,0-2.5,0V358h0.5c1.4,0,1.4-0.2,1.4-0.7v-7.6c0-0.3,0-0.5-0.3-0.5
			c-0.1,0-0.5,0-0.8,0c-2.3,0-2.4,0.5-2.6,2.8h-0.3l0.3-3.2h8.6L269.3,351.9z"/>
	</g>
	<g>
		<path class="st4" d="M271.1,357.4c0,0.5,0,0.7,1.1,0.7h0.3v0.4c-0.3,0-1.3,0-1.7,0c-0.4,0-1.2,0-1.6,0V358c0.9,0,1.1,0,1.1-0.6
			v-3.9c0-0.7-0.1-0.8-1.1-0.8v-0.4l1.9-0.2v1.6h0c0.1-0.3,0.5-1.6,1.7-1.6c0.6,0,1,0.4,1,0.8c0,0.4-0.3,0.6-0.6,0.6
			c-0.2,0-0.6-0.2-0.6-0.6c0-0.4,0.2-0.5,0.3-0.5c-0.1,0-0.1,0-0.2,0c-1.1,0-1.7,1.3-1.7,2.7V357.4z"/>
		<path class="st4" d="M279.8,357.1c0,0.2,0,1,0.5,1c0.2,0,0.5-0.1,0.5-0.9v-0.8h0.3v0.8c0,1.1-0.8,1.3-1.1,1.3
			c-0.6,0-1.1-0.5-1.1-1.2c-0.3,0.7-0.9,1.3-1.9,1.3c-0.9,0-2.2-0.4-2.2-1.5c0-1.1,1.1-2.3,4-2.4v-0.6c0-1.3-0.8-1.8-1.5-1.8
			c-0.6,0-1.3,0.3-1.6,0.9c0.2,0,0.7,0,0.7,0.6c0,0.3-0.2,0.6-0.6,0.6c-0.3,0-0.6-0.2-0.6-0.6c0-0.9,0.9-1.7,2.1-1.7
			c0.6,0,1.3,0.2,1.8,0.7c0.6,0.6,0.6,1.1,0.6,1.9V357.1z M278.8,355c-0.5,0-3,0.2-3,2.1c0,0.7,0.6,1.2,1.3,1.2
			c0.6,0,1.7-0.5,1.7-1.9V355z"/>
		<path class="st4" d="M287.7,357.6c0,0.4,0.4,0.4,1.1,0.4v0.4c-0.4,0-1.1,0-1.6,0c-0.4,0-1.2,0-1.5,0V358c0.9,0,1.1,0,1.1-0.6V354
			c0-0.9-0.2-1.6-1.1-1.6s-1.9,0.8-1.9,2.3v2.7c0,0.6,0.2,0.6,1.1,0.6v0.4c-0.4,0-1.1,0-1.6,0c-0.4,0-1.2,0-1.5,0V358
			c0.9,0,1.1,0,1.1-0.6v-3.9c0-0.7-0.1-0.8-1.1-0.8v-0.4l2-0.2v1.5h0c0.1-0.3,0.7-1.5,2.1-1.5c0.5,0,1.2,0.1,1.6,0.6
			c0.3,0.5,0.3,0.9,0.3,2.2V357.6z"/>
		<path class="st4" d="M293.8,353.9c0,0.3,0,0.3-0.2,0.3c0,0-0.1,0-0.2-0.1c0-0.4-0.1-1.8-1.7-1.8c-1.3,0-1.6,0.7-1.6,1.1
			c0,0.9,1,1.1,1.5,1.1c0.9,0.2,1.3,0.3,1.9,0.7c0.1,0.1,0.6,0.6,0.6,1.4c0,1.1-0.7,2-2.3,2c-0.2,0-1,0-1.6-0.7
			c-0.2,0.2-0.2,0.3-0.3,0.4c-0.2,0.3-0.3,0.3-0.3,0.3c-0.1,0-0.1-0.1-0.1-0.3v-2c0-0.3,0-0.3,0.2-0.3c0,0,0.1,0,0.1,0.1
			c0,0,0,0,0.1,0.3c0.3,1.4,1,2,2,2c1.3,0,1.6-0.7,1.6-1.3c0-0.4-0.2-0.7-0.4-0.9c-0.4-0.3-0.5-0.3-1.3-0.5
			c-0.7-0.1-1.1-0.2-1.6-0.6c-0.5-0.5-0.5-1-0.5-1.2c0-0.8,0.5-1.7,2.3-1.7c0.5,0,0.9,0.1,1.3,0.4c0.1-0.1,0.4-0.4,0.5-0.4
			c0.1,0,0.1,0.1,0.1,0.3V353.9z"/>
		<path class="st4" d="M297.2,357.4c0,0.5,0,0.7,1.1,0.7h0.3v0.4c-0.3,0-1.3,0-1.7,0c-0.4,0-1.2,0-1.6,0V358c0.9,0,1.1,0,1.1-0.6
			v-4.7h-1.1v-0.4h1.1v-1.7c0-1.5,1.1-2.2,2.1-2.2c0.7,0,1.2,0.4,1.2,0.9c0,0.3-0.2,0.6-0.6,0.6c-0.3,0-0.6-0.2-0.6-0.6
			c0-0.4,0.4-0.5,0.4-0.6c-0.2-0.1-0.4-0.1-0.5-0.1c-0.6,0-1.2,0.7-1.2,2v1.7h1.6v0.4h-1.6V357.4z"/>
		<path class="st4" d="M302.5,358.6c-1.6,0-3.1-1.4-3.1-3.2c0-1.8,1.4-3.3,3.1-3.3c1.7,0,3.1,1.5,3.1,3.3
			C305.6,357.2,304.2,358.6,302.5,358.6z M304.2,357.3c0.4-0.7,0.4-1.6,0.4-2.1c0-0.5,0-1.4-0.4-2.1c-0.4-0.6-1-0.8-1.5-0.8
			c-0.5,0-1.1,0.2-1.5,0.8c-0.4,0.6-0.4,1.5-0.4,2.1c0,0.6,0,1.4,0.4,2.1c0.4,0.7,1.1,0.9,1.6,0.9
			C303.1,358.3,303.8,358,304.2,357.3z"/>
		<path class="st4" d="M308.5,357.4c0,0.5,0,0.7,1.1,0.7h0.3v0.4c-0.3,0-1.3,0-1.7,0c-0.4,0-1.2,0-1.6,0V358c0.9,0,1.1,0,1.1-0.6
			v-3.9c0-0.7-0.1-0.8-1.1-0.8v-0.4l1.9-0.2v1.6h0c0.1-0.3,0.5-1.6,1.7-1.6c0.6,0,1,0.4,1,0.8c0,0.4-0.3,0.6-0.6,0.6
			c-0.2,0-0.6-0.2-0.6-0.6c0-0.4,0.2-0.5,0.3-0.5c-0.1,0-0.1,0-0.2,0c-1.1,0-1.7,1.3-1.7,2.7V357.4z"/>
		<path class="st4" d="M321.9,357.6c0,0.4,0.4,0.4,1.1,0.4v0.4c-0.4,0-1.1,0-1.6,0c-0.4,0-1.2,0-1.5,0V358c0.9,0,1.1,0,1.1-0.6V354
			c0-0.9-0.2-1.6-1.1-1.6s-1.9,0.8-1.9,2.3v2.7c0,0.6,0.2,0.6,1.1,0.6v0.4c-0.4,0-1.1,0-1.6,0c-0.4,0-1.2,0-1.5,0V358
			c0.9,0,1.1,0,1.1-0.6V354c0-0.9-0.2-1.6-1.1-1.6s-1.9,0.8-1.9,2.3v2.7c0,0.6,0.2,0.6,1.1,0.6v0.4c-0.4,0-1.1,0-1.6,0
			c-0.4,0-1.2,0-1.5,0V358c0.9,0,1.1,0,1.1-0.6v-3.9c0-0.7-0.1-0.8-1.1-0.8v-0.4l2-0.2v1.5h0c0.1-0.3,0.7-1.5,2.1-1.5
			c0.9,0,1.7,0.3,1.9,1.4c0.2-0.6,0.8-1.4,2-1.4c0.5,0,1.2,0.1,1.6,0.6c0.3,0.5,0.3,0.9,0.3,2.2V357.6z"/>
	</g>
	<polyline points="206.8,360 323,360 323,359.5 206.8,359.5 	"/>
	<g>
		<path class="st4" d="M165.3,354.6c-0.3-0.2-0.4-0.5-0.4-0.8c0-0.6,0.4-1.2,1.6-1.2c0.1,0,0.6,0,0.9,0.3c0,0,0.1-0.1,0.2-0.2
			c0.1-0.1,0.1-0.1,0.2-0.1c0.1,0,0.1,0.1,0.1,0.2v1c0,0.2,0,0.2-0.1,0.2c0,0-0.1,0-0.1-0.1c0-0.3-0.1-1.2-1.2-1.2
			c-0.9,0-1.1,0.4-1.1,0.8c0,0.6,0.7,0.7,1.2,0.8c0.4,0.1,0.8,0.2,1.1,0.5c0.1,0.1,0.4,0.4,0.4,0.9c0,0.7-0.5,1.4-1.6,1.4
			c-0.2,0-0.7,0-1.1-0.4c-0.2,0.2-0.2,0.2-0.2,0.2c-0.2,0.2-0.2,0.2-0.2,0.2c-0.1,0-0.1-0.1-0.1-0.2v-1.3c0-0.2,0-0.2,0.1-0.2
			c0.1,0,0.1,0,0.1,0.2c0.2,0.8,0.5,1.4,1.4,1.4c0.8,0,1.1-0.4,1.1-0.9c0-0.7-0.8-0.9-1-0.9C165.9,354.9,165.7,354.9,165.3,354.6z"
			/>
		<path class="st4" d="M168.6,355.2v-0.6h2.6v0.6H168.6z"/>
		<path class="st4" d="M175,352.6c1.1,0,2.1,1,2.1,2.3c0,1.3-1,2.3-2.2,2.3c-0.8,0-1.2-0.5-1.2-0.7v0.1v1.7c0,0.4,0.1,0.4,0.8,0.4
			v0.3c-0.3,0-0.9,0-1.1,0c-0.3,0-0.8,0-1.1,0v-0.3c0.7,0,0.8,0,0.8-0.4v-4.7c0-0.4-0.1-0.5-0.8-0.5v-0.3l1.4-0.1v0.7
			C173.8,353.1,174.2,352.6,175,352.6z M173.8,356.3c0.3,0.4,0.6,0.6,1,0.6c0.7,0,1.4-0.8,1.4-2c0-1.1-0.6-2-1.3-2
			c-0.5,0-1,0.3-1.3,0.8v2.2C173.6,356.1,173.6,356.1,173.8,356.3z"/>
		<path class="st4" d="M179.2,356.3c0,0.4,0.1,0.4,0.8,0.4v0.3c-0.4,0-0.9,0-1.1,0c-0.2,0-0.8,0-1.1,0v-0.3c0.7,0,0.8,0,0.8-0.4
			v-5.2c0-0.5-0.1-0.6-0.8-0.6v-0.3l1.4-0.1V356.3z"/>
		<path class="st4" d="M182.2,357.1c-0.6,0-1.6-0.2-1.6-1.1c0-0.4,0.2-1,1-1.3c0.6-0.3,1.3-0.3,1.8-0.4v-0.4c0-0.9-0.6-1.3-1.1-1.3
			c-0.3,0-0.8,0.1-1.1,0.5c0.5,0,0.5,0.3,0.5,0.5c0,0.3-0.2,0.5-0.5,0.5c-0.3,0-0.5-0.2-0.5-0.5c0-0.7,0.7-1.1,1.5-1.1
			c0.5,0,1,0.2,1.4,0.5c0.4,0.4,0.4,0.8,0.4,1.2v2c0,0,0,0.5,0.4,0.5c0.1,0,0.4-0.1,0.4-0.6v-0.6h0.2v0.6c0,0.8-0.6,0.9-0.8,0.9
			c-0.5,0-0.7-0.4-0.8-0.8C183.3,356.7,182.9,357.1,182.2,357.1z M181.4,356.1c0,0.5,0.4,0.8,0.9,0.8c0.4,0,1.2-0.3,1.2-1.3v-1
			C181.8,354.7,181.4,355.5,181.4,356.1z"/>
		<path class="st4" d="M185.5,353v-0.3l1.4-0.1v1c0.3-0.6,0.7-1,1.5-1c0.6,0,0.9,0.2,1,0.4c0.3,0.4,0.3,0.7,0.3,1.5v1.9
			c0,0.3,0.3,0.3,0.8,0.3v0.3c-0.3,0-0.9,0-1.1,0c-0.3,0-0.8,0-1.1,0v-0.3c0.7,0,0.8,0,0.8-0.4v-2.3c0-0.6-0.1-1.1-0.7-1.1
			c-0.6,0-1.3,0.6-1.3,1.6v1.8c0,0.4,0.1,0.4,0.8,0.4v0.3c-0.3,0-0.9,0-1.1,0c-0.3,0-0.8,0-1.1,0v-0.3c0.7,0,0.8,0,0.8-0.4v-2.7
			C186.3,353.1,186.2,353,185.5,353z"/>
	</g>
	<g>
		<path class="st4" d="M192.1,356.2c0.2,0.4,0.6,0.7,1.1,0.7c0.1,0,1,0,1.3-1c0-0.1,0-0.1,0.1-0.1c0,0,0.1,0,0.1,0.1
			c0,0.2-0.4,1.3-1.7,1.3c-1.1,0-2.2-1-2.2-2.3c0-1.2,0.9-2.3,2.1-2.3c1.2,0,1.8,1,1.8,2c0,0.2,0,0.2-0.2,0.2h-2.8
			C191.8,355.1,191.8,355.7,192.1,356.2z M194.2,354.5c0-0.4-0.1-1.7-1.1-1.7c-0.3,0-1.2,0.2-1.2,1.7H194.2z"/>
	</g>
	<polygon class="st3" points="162.1,354.5 162.1,361.6 197.6,361.6 197.6,347.4 162.1,347.4 	"/>
	<g>
		<path class="st4" d="M335.6,356.8h1.2c1.2,0,1.4-0.4,1.5-1.6h0.2l-0.2,1.9H335c-0.2,0-0.3,0-0.3-0.1c0,0,0-0.1,0.1-0.2l2.8-3.8
			h-1.1c-1.1,0-1.3,0.4-1.3,1.4h-0.2l0.1-1.6h3.2c0.2,0,0.3,0,0.3,0.1c0,0,0,0.1-0.1,0.2L335.6,356.8z"/>
		<path class="st4" d="M339.1,355.2v-0.6h2.6v0.6H339.1z"/>
		<path class="st4" d="M345.4,352.6c1.1,0,2.1,1,2.1,2.3c0,1.3-1,2.3-2.2,2.3c-0.8,0-1.2-0.5-1.2-0.7v0.1v1.7c0,0.4,0.1,0.4,0.8,0.4
			v0.3c-0.3,0-0.9,0-1.1,0c-0.3,0-0.8,0-1.1,0v-0.3c0.7,0,0.8,0,0.8-0.4v-4.7c0-0.4-0.1-0.5-0.8-0.5v-0.3l1.4-0.1v0.7
			C344.2,353.1,344.6,352.6,345.4,352.6z M344.2,356.3c0.3,0.4,0.6,0.6,1,0.6c0.7,0,1.4-0.8,1.4-2c0-1.1-0.6-2-1.3-2
			c-0.5,0-1,0.3-1.3,0.8v2.2C344,356.1,344,356.1,344.2,356.3z"/>
		<path class="st4" d="M349.6,356.3c0,0.4,0.1,0.4,0.8,0.4v0.3c-0.4,0-0.9,0-1.1,0s-0.8,0-1.1,0v-0.3c0.7,0,0.8,0,0.8-0.4v-5.2
			c0-0.5-0.1-0.6-0.8-0.6v-0.3l1.4-0.1V356.3z"/>
		<path class="st4" d="M352.6,357.1c-0.6,0-1.6-0.2-1.6-1.1c0-0.4,0.2-1,1-1.3c0.6-0.3,1.3-0.3,1.8-0.4v-0.4c0-0.9-0.6-1.3-1.1-1.3
			c-0.3,0-0.8,0.1-1.1,0.5c0.5,0,0.5,0.3,0.5,0.5c0,0.3-0.2,0.5-0.5,0.5c-0.3,0-0.5-0.2-0.5-0.5c0-0.7,0.7-1.1,1.5-1.1
			c0.5,0,1,0.2,1.4,0.5c0.4,0.4,0.4,0.8,0.4,1.2v2c0,0,0,0.5,0.4,0.5c0.1,0,0.4-0.1,0.4-0.6v-0.6h0.2v0.6c0,0.8-0.6,0.9-0.8,0.9
			c-0.5,0-0.7-0.4-0.8-0.8C353.7,356.7,353.3,357.1,352.6,357.1z M351.8,356.1c0,0.5,0.4,0.8,0.9,0.8c0.4,0,1.2-0.3,1.2-1.3v-1
			C352.2,354.7,351.8,355.5,351.8,356.1z"/>
		<path class="st4" d="M355.9,353v-0.3l1.4-0.1v1c0.3-0.6,0.7-1,1.5-1c0.6,0,0.9,0.2,1,0.4c0.3,0.4,0.3,0.7,0.3,1.5v1.9
			c0,0.3,0.3,0.3,0.8,0.3v0.3c-0.3,0-0.9,0-1.1,0c-0.3,0-0.8,0-1.1,0v-0.3c0.7,0,0.8,0,0.8-0.4v-2.3c0-0.6-0.1-1.1-0.7-1.1
			c-0.6,0-1.3,0.6-1.3,1.6v1.8c0,0.4,0.1,0.4,0.8,0.4v0.3c-0.3,0-0.9,0-1.1,0c-0.3,0-0.8,0-1.1,0v-0.3c0.7,0,0.8,0,0.8-0.4v-2.7
			C356.7,353.1,356.6,353,355.9,353z"/>
	</g>
	<g>
		<path class="st4" d="M362.5,356.2c0.2,0.4,0.6,0.7,1.1,0.7c0.1,0,1,0,1.3-1c0-0.1,0-0.1,0.1-0.1c0,0,0.1,0,0.1,0.1
			c0,0.2-0.4,1.3-1.7,1.3c-1.1,0-2.2-1-2.2-2.3c0-1.2,0.9-2.3,2.1-2.3c1.2,0,1.8,1,1.8,2c0,0.2,0,0.2-0.2,0.2h-2.8
			C362.2,355.1,362.2,355.7,362.5,356.2z M364.6,354.5c0-0.4-0.1-1.7-1.1-1.7c-0.3,0-1.2,0.2-1.2,1.7H364.6z"/>
	</g>
	<polygon class="st3" points="332.2,354.5 332.2,361.6 367.7,361.6 367.7,347.4 332.2,347.4 	"/>
</g>
</svg>
