<?xml version="1.0" encoding="utf-8"?>
<!-- Generator: Adobe Illustrator 22.1.0, SVG Export Plug-In . SVG Version: 6.00 Build 0)  -->
<svg version="1.1" id="Layer_1" xmlns="http://www.w3.org/2000/svg" xmlns:xlink="http://www.w3.org/1999/xlink" x="0px" y="0px"
	 viewBox="0 0 509.3 236.9" style="enable-background:new 0 0 509.3 236.9;" xml:space="preserve">
<style type="text/css">
	.st0{fill:#FF0000;}
	.st1{fill:none;stroke:#000000;stroke-width:0.8504;stroke-miterlimit:10;}
	.st2{clip-path:url(#SVGID_2_);fill:none;stroke:#000000;stroke-width:0.8504;stroke-linecap:square;stroke-miterlimit:10;}
	.st3{fill:none;stroke:#FFFFFF;stroke-width:0.8504;stroke-miterlimit:10;}
	.st4{fill:#1D1D1B;}
	.st5{clip-path:url(#SVGID_4_);fill:none;stroke:#FA0000;stroke-width:0.8504;stroke-linecap:square;stroke-miterlimit:10;}
	.st6{fill:none;stroke:#FF0000;stroke-width:0.8504;stroke-miterlimit:10;}
	.st7{fill:none;stroke:#000000;stroke-width:1.2756;stroke-miterlimit:10;}
	.st8{clip-path:url(#SVGID_6_);fill:none;stroke:#0000FF;stroke-width:0.8504;stroke-linecap:square;stroke-miterlimit:10;}
	.st9{fill:none;stroke:#000000;stroke-width:1.1338;stroke-miterlimit:10;}
	.st10{fill:#0000FF;}
</style>
<g>
	<g>
		<path class="st0" d="M134.8,57.1c0.2,0,0.4,0,0.7,0.2c0.2,0.1,0.4,0.1,0.6,0.1c0.3,0,1-0.2,1.2-0.8c0-0.1,0-0.1,0.1-0.1
			c0.1,0,0.1,0,0.1,0.1c0,0.3-0.6,1.5-1.6,1.5c-0.3,0-0.5-0.2-0.6-0.4c-0.2-0.3-0.3-0.4-0.6-0.4c-0.3,0-0.6,0.3-0.8,0.6
			c-0.1,0.1-0.1,0.1-0.2,0.1c0,0-0.1,0-0.1-0.1c0-0.1,0.3-0.6,1-1.3l0.9-0.8c0.2-0.2,1-0.9,1.4-1.3c-0.3,0-0.4,0-0.8-0.1
			c-0.2-0.1-0.4-0.1-0.6-0.1c-0.1,0-0.7,0-0.8,0.5c0,0.1,0,0.1-0.1,0.1c-0.1,0-0.1-0.1-0.1-0.1c0-0.2,0.5-1.1,1.2-1.1
			c0.3,0,0.5,0.2,0.7,0.4c0.1,0.2,0.3,0.3,0.5,0.3c0.2,0,0.4-0.2,0.7-0.6c0-0.1,0.1-0.1,0.1-0.1c0,0,0.1,0,0.1,0.1
			c0,0-0.2,0.5-1.2,1.4c-0.4,0.4-1,0.9-1,0.9c-0.4,0.3-0.6,0.6-1.2,1.1C134.6,57.1,134.8,57.1,134.8,57.1z"/>
	</g>
	<g>
		<path class="st0" d="M141.9,54.7c-0.1,0-0.3,0-0.3-0.2s0.2-0.2,0.3-0.2h6c0.1,0,0.3,0,0.3,0.2s-0.2,0.2-0.3,0.2H141.9z
			 M141.9,56.6c-0.1,0-0.3,0-0.3-0.2s0.2-0.2,0.3-0.2h5.9c0.1,0,0.3,0,0.3,0.2s-0.2,0.2-0.3,0.2H141.9z"/>
	</g>
	<g>
		<path class="st0" d="M164.1,53.4c0,0.2,0,0.3,0.7,0.3h0.3V54c-0.2,0-1,0-1.2,0c-0.3,0-1.1,0-1.2,0v-0.3h0.3c0.7,0,0.7-0.1,0.7-0.3
			v-3.6c-0.4,0.2-0.8,0.2-1,0.2v-0.3c0.3,0,0.9,0,1.4-0.4c0.2,0,0.2,0,0.2,0.2V53.4z"/>
	</g>
	<polyline class="st0" points="152.8,55.6 175,55.6 175,55.2 152.8,55.2 	"/>
	<g>
		<path class="st0" d="M155.1,60.7c0,0.2,0,0.3,0.7,0.3h0.3v0.3c-0.2,0-1,0-1.2,0c-0.3,0-1.1,0-1.2,0V61h0.3c0.7,0,0.7-0.1,0.7-0.3
			v-3.6c-0.4,0.2-0.8,0.2-1,0.2v-0.3c0.3,0,0.9,0,1.4-0.4c0.2,0,0.2,0,0.2,0.2V60.7z"/>
	</g>
	<g>
		<path class="st0" d="M157.8,59.7c-0.1,0-0.3,0-0.3-0.2c0-0.2,0.2-0.2,0.3-0.2h4.2c0.1,0,0.3,0,0.3,0.2c0,0.2-0.2,0.2-0.3,0.2
			H157.8z"/>
	</g>
	<g>
		<path class="st0" d="M165.3,58.4c-0.1,0-0.4,0-0.6,0.1c-0.2,0.1-0.3,0.3-0.3,0.4c0,0.2,0.1,0.3,0.4,0.3c0,0,0.2,0,0.3,0.1
			c0.3,0,1,0.2,1,0.8c0,0.3-0.2,1.2-1.5,1.2c-0.7,0-1.1-0.3-1.1-0.7c0-0.3,0.2-0.5,0.4-0.5c0.1,0,0.3,0.1,0.3,0.3
			c0,0.2-0.2,0.4-0.4,0.4c0.2,0.2,0.6,0.3,0.8,0.3c0.1,0,0.4,0,0.7-0.2c0.3-0.2,0.4-0.4,0.4-0.6c0-0.3-0.4-0.4-0.6-0.5
			c-0.5-0.1-0.6-0.1-0.8-0.3c-0.1-0.1-0.2-0.3-0.2-0.5c0-0.2,0.2-1,1.3-1c0.4,0,0.9,0.2,0.9,0.6c0,0.4-0.3,0.4-0.3,0.4
			c-0.1,0-0.2-0.1-0.2-0.2c0-0.1,0.1-0.3,0.3-0.3C165.8,58.4,165.5,58.4,165.3,58.4z"/>
	</g>
	<g>
		<path class="st0" d="M167.9,59.9c-0.2,0-0.4-0.2-0.4-0.4c0-0.2,0.2-0.4,0.4-0.4c0.2,0,0.4,0.2,0.4,0.4
			C168.3,59.7,168.1,59.9,167.9,59.9z"/>
	</g>
	<g>
		<path class="st0" d="M171.6,60.7c0,0.1,0,0.1,0,0.2c0,0.1,0,0.1,0.3,0.1c0.1,0,0.3,0,0.4,0c0.2,0,0.3,0,0.3,0.1
			c0,0.2-0.1,0.2-0.2,0.2c-0.2,0-0.4,0-0.6,0c-0.2,0-0.4,0-0.6,0s-0.4,0-0.6,0s-0.4,0-0.6,0c-0.1,0-0.1-0.1-0.1-0.1
			c0-0.2,0.1-0.2,0.3-0.2c0.7,0,0.8-0.1,0.8-0.3l0.9-3.7c0-0.1,0-0.1,0-0.1c0-0.1,0-0.1-0.2-0.1h-0.3c-1.1,0-1.3,0.1-1.7,1.2
			c0,0.1-0.1,0.2-0.1,0.2c-0.1,0-0.1-0.1-0.1-0.1c0,0,0-0.1,0-0.1l0.4-1.2c0-0.1,0.1-0.1,0.2-0.1h4.3c0.1,0,0.2,0,0.2,0.1l-0.2,1.3
			c0,0.1,0,0.2-0.1,0.2c-0.1,0-0.1,0-0.1-0.1l0-0.1c0-0.4,0-0.5,0-0.6c0-0.3,0-0.5-0.3-0.6c-0.2-0.1-0.4-0.1-0.8-0.1
			c-0.1,0-0.4,0-0.4,0c-0.2,0-0.2,0-0.2,0.2L171.6,60.7z"/>
	</g>
	<g>
		<path class="st0" d="M150.6,68.6c-0.2,0-0.4,0-0.4-0.2s0.2-0.2,0.3-0.2h5.9c-0.5-0.5-1-1.3-1-1.5c0-0.1,0.1-0.1,0.2-0.1
			c0.1,0,0.1,0,0.3,0.2c0.6,1.1,1.6,2,2.9,2.4c0.2,0.1,0.2,0.1,0.2,0.1l0,0c0,0,0,0,0,0.1c0,0,0,0,0,0.1c0,0,0,0-0.2,0.1
			c-0.5,0.1-1.2,0.4-1.9,1c-0.6,0.6-0.9,1.1-1.1,1.5c0,0.1-0.1,0.1-0.2,0.1c-0.1,0-0.2,0-0.2-0.1c0-0.1,0.5-1,1-1.5h-5.9
			c-0.2,0-0.3,0-0.3-0.2s0.2-0.2,0.4-0.2h6.3c0.4-0.3,0.9-0.6,1.3-0.8c-0.3-0.1-0.8-0.4-1.3-0.8H150.6z"/>
	</g>
	<g>
		<path class="st0" d="M117.6,43.5c0,0.9-0.9,1.8-2.2,1.8h-3.9V45h0.2c0.8,0,0.8-0.1,0.8-0.5v-5.3c0-0.4,0-0.5-0.8-0.5h-0.2v-0.3
			h3.6c1.3,0,2.2,0.8,2.2,1.7c0,0.7-0.7,1.4-1.7,1.6C116.8,41.9,117.6,42.7,117.6,43.5z M114.8,41.7c1.1,0,1.6-0.8,1.6-1.5
			c0-0.5-0.3-1.4-1.3-1.4h-1.2c-0.5,0-0.5,0.1-0.5,0.4v2.5H114.8z M116.6,43.5c0-0.7-0.4-1.6-1.4-1.6h-1.9v2.7c0,0.3,0,0.4,0.5,0.4
			h1.2C116.1,45,116.6,44.2,116.6,43.5z"/>
		<path class="st0" d="M120.2,45.5c-0.6,0-1.6-0.2-1.6-1.1c0-0.4,0.2-1,1-1.3c0.6-0.3,1.3-0.3,1.8-0.4v-0.4c0-0.9-0.6-1.3-1.1-1.3
			c-0.3,0-0.8,0.1-1.1,0.5c0.5,0,0.5,0.3,0.5,0.5c0,0.3-0.2,0.5-0.5,0.5c-0.3,0-0.5-0.2-0.5-0.5c0-0.7,0.7-1.1,1.5-1.1
			c0.5,0,1,0.2,1.4,0.5c0.4,0.4,0.4,0.8,0.4,1.2v2c0,0,0,0.5,0.4,0.5c0.1,0,0.4-0.1,0.4-0.6v-0.6h0.2v0.6c0,0.8-0.6,0.9-0.8,0.9
			c-0.5,0-0.7-0.4-0.8-0.8C121.4,45.1,120.9,45.5,120.2,45.5z M119.4,44.4c0,0.5,0.4,0.8,0.9,0.8c0.4,0,1.2-0.3,1.2-1.3v-1
			C119.8,43,119.4,43.8,119.4,44.4z"/>
	</g>
	<g>
		<path class="st0" d="M125.8,45.2c0.4,0,1-0.1,1.3-1c0-0.1,0-0.1,0.1-0.1c0,0,0.1,0,0.1,0.1s-0.3,1.3-1.7,1.3c-1.2,0-2.1-1-2.1-2.3
			c0-1.2,0.9-2.3,2.2-2.3c0.8,0,1.5,0.4,1.5,1.1c0,0.3-0.2,0.5-0.5,0.5c-0.3,0-0.5-0.2-0.5-0.5c0-0.1,0.1-0.4,0.5-0.5
			c-0.3-0.4-1-0.4-1.1-0.4c-0.5,0-1.3,0.4-1.3,2C124.4,44.8,125.3,45.2,125.8,45.2z"/>
		<path class="st0" d="M128.5,39.4c0-0.5-0.1-0.6-0.8-0.6v-0.3l1.4-0.1v4.8l1.4-1.2c0.1-0.1,0.2-0.2,0.2-0.4c0-0.1-0.1-0.2-0.3-0.2
			v-0.3c0.1,0,0.8,0,1.1,0c0.3,0,0.4,0,0.7,0v0.3c-0.2,0-0.6,0-1.3,0.5c-0.1,0.1-0.8,0.7-0.8,0.7c0,0,0,0.1,0.1,0.1l1.3,1.8
			c0.4,0.5,0.6,0.5,1,0.5v0.3c-0.3,0-0.6,0-0.9,0c-0.2,0-0.8,0-1.1,0V45c0.2,0,0.4,0,0.4-0.2c0-0.2-0.4-0.7-1.2-1.8l-0.6,0.5v1
			c0,0.4,0.1,0.4,0.8,0.4v0.3c-0.4,0-0.8,0-1.1,0c-0.3,0-0.8,0-1.1,0V45c0.7,0,0.8,0,0.8-0.4V39.4z"/>
	</g>
	<g>
		<path class="st0" d="M137.7,45.3c0,0.1-0.1,0.2-0.2,0.2s-0.2-0.1-0.2-0.2l-1-2.8l-1,2.8c0,0.1-0.1,0.2-0.2,0.2s-0.2-0.1-0.2-0.2
			l-1.3-3.5c-0.1-0.3-0.2-0.3-0.7-0.3v-0.3c0.4,0,0.9,0,0.9,0c0.2,0,0.8,0,1.1,0v0.3c-0.2,0-0.6,0-0.6,0.3c0,0,0,0.1,0,0.2l0.9,2.7
			l0.9-2.4c-0.1-0.2-0.2-0.5-0.2-0.5c-0.1-0.1-0.3-0.1-0.6-0.1v-0.3c0.3,0,0.6,0,0.9,0c0.2,0,0.7,0,1,0v0.3c-0.2,0-0.6,0-0.6,0.3
			c0,0,0,0.1,0,0.2l1,2.8l0.9-2.6c0-0.1,0-0.1,0-0.2c0-0.3-0.2-0.5-0.6-0.5v-0.3c0.2,0,0.6,0,0.9,0c0.2,0,0.5,0,0.7,0v0.3
			c-0.3,0-0.7,0.1-0.8,0.6L137.7,45.3z"/>
		<path class="st0" d="M141.7,45.5c-0.6,0-1.6-0.2-1.6-1.1c0-0.4,0.2-1,1-1.3c0.6-0.3,1.3-0.3,1.8-0.4v-0.4c0-0.9-0.6-1.3-1.1-1.3
			c-0.3,0-0.8,0.1-1.1,0.5c0.5,0,0.5,0.3,0.5,0.5c0,0.3-0.2,0.5-0.5,0.5c-0.3,0-0.5-0.2-0.5-0.5c0-0.7,0.7-1.1,1.5-1.1
			c0.5,0,1,0.2,1.4,0.5c0.4,0.4,0.4,0.8,0.4,1.2v2c0,0,0,0.5,0.4,0.5c0.1,0,0.4-0.1,0.4-0.6v-0.6h0.2v0.6c0,0.8-0.6,0.9-0.8,0.9
			c-0.5,0-0.7-0.4-0.8-0.8C142.8,45.1,142.4,45.5,141.7,45.5z M140.9,44.4c0,0.5,0.4,0.8,0.9,0.8c0.4,0,1.2-0.3,1.2-1.3v-1
			C141.3,43,140.9,43.8,140.9,44.4z"/>
	</g>
	<g>
		<path class="st0" d="M147.6,40.9c0.4,0,0.7,0.3,0.7,0.6s-0.2,0.4-0.4,0.4c-0.2,0-0.4-0.1-0.4-0.4c0-0.3,0.2-0.4,0.2-0.4
			c0,0,0,0-0.1,0c-0.8,0-1.2,0.9-1.2,1.9v1.5c0,0.4,0,0.5,0.8,0.5h0.2v0.3c-0.4,0-0.9,0-1.3,0c-0.3,0-0.7,0-1.1,0V45
			c0.7,0,0.8,0,0.8-0.4v-2.7c0-0.5-0.1-0.6-0.8-0.6v-0.3l1.4-0.1V42C146.5,41.6,146.9,40.9,147.6,40.9z"/>
		<path class="st0" d="M151.1,45.5c-1.1,0-2.1-1-2.1-2.3c0-1.3,1-2.3,2.2-2.3c0.5,0,1,0.3,1.3,0.6v-2.2c0-0.5-0.1-0.6-0.8-0.6v-0.3
			l1.4-0.1v6c0,0.5,0.1,0.6,0.8,0.6v0.3l-1.5,0.1v-0.7C152.2,45.1,151.8,45.5,151.1,45.5z M152.4,41.8c-0.3-0.4-0.7-0.6-1.1-0.6
			c-0.5,0-0.9,0.3-1.1,0.6c-0.3,0.4-0.3,1-0.3,1.4c0,0.4,0,1,0.3,1.4c0.2,0.4,0.6,0.6,1,0.6c0.4,0,0.9-0.2,1.2-0.7
			c0.1-0.2,0.1-0.2,0.1-0.4v-2C152.5,42,152.5,41.9,152.4,41.8z"/>
	</g>
	<g>
		<path class="st0" d="M159.7,45.5c-1.1,0-2.1-1-2.1-2.3c0-1.3,1-2.3,2.2-2.3c0.5,0,1,0.3,1.3,0.6v-2.2c0-0.5-0.1-0.6-0.8-0.6v-0.3
			l1.4-0.1v6c0,0.5,0.1,0.6,0.8,0.6v0.3l-1.5,0.1v-0.7C160.7,45.1,160.3,45.5,159.7,45.5z M160.9,41.8c-0.3-0.4-0.7-0.6-1.1-0.6
			c-0.5,0-0.9,0.3-1.1,0.6c-0.3,0.4-0.3,1-0.3,1.4c0,0.4,0,1,0.3,1.4c0.2,0.4,0.6,0.6,1,0.6c0.4,0,0.9-0.2,1.2-0.7
			c0.1-0.2,0.1-0.2,0.1-0.4v-2C161,42,161,41.9,160.9,41.8z"/>
		<path class="st0" d="M164.5,44.6c0,0.4,0,0.4,0.7,0.4v0.3c-0.3,0-0.7,0-1,0c-0.2,0-0.8,0-1.1,0V45c0.7,0,0.8,0,0.8-0.4v-2.7
			c0-0.5-0.1-0.5-0.7-0.5v-0.3l1.4-0.1V44.6z M164,39.7c-0.3,0-0.5-0.3-0.5-0.5c0-0.3,0.2-0.5,0.5-0.5c0.3,0,0.5,0.2,0.5,0.5
			S164.3,39.7,164,39.7z"/>
		<path class="st0" d="M170,44.6c0,0.4,0,0.5,0.8,0.5h0.2v0.3c-0.4,0-0.9,0-1.3,0c-0.3,0-0.7,0-1.1,0V45c0.7,0,0.8,0,0.8-0.4v-3.2
			h-2.1v3.2c0,0.4,0.1,0.4,0.8,0.4v0.3c-0.4,0-0.9,0-1.1,0c-0.2,0-0.8,0-1.1,0V45c0.7,0,0.8,0,0.8-0.4v-3.2h-0.8v-0.3h0.8v-1.1
			c0-1.1,1.2-1.6,2.1-1.6c0.3,0,0.8,0,1.1,0.4c0,0,0.5-0.4,1.1-0.4c0.6,0,0.9,0.3,0.9,0.7c0,0.2-0.1,0.4-0.4,0.4
			c-0.3,0-0.4-0.2-0.4-0.4c0-0.2,0.2-0.4,0.3-0.4c-0.1-0.1-0.3-0.1-0.3-0.1c-0.4,0-0.9,0.5-0.9,1.4v1.2h1.2v0.3H170V44.6z
			 M169.3,41.1v-1.1c0-0.1,0-0.2,0-0.3c-0.3-0.1-0.3-0.3-0.3-0.4c0-0.3,0.2-0.4,0.4-0.4v0c0,0-0.3-0.2-0.8-0.2
			c-0.6,0-1.5,0.4-1.5,1.4v1.1H169.3z"/>
		<path class="st0" d="M172.7,44.5c0.2,0.4,0.6,0.7,1.1,0.7c0.1,0,1,0,1.3-1c0-0.1,0-0.1,0.1-0.1c0,0,0.1,0,0.1,0.1
			c0,0.2-0.4,1.3-1.7,1.3c-1.1,0-2.2-1-2.2-2.3c0-1.2,0.9-2.3,2.1-2.3c1.2,0,1.8,1,1.8,2c0,0.2,0,0.2-0.2,0.2h-2.8
			C172.4,43.4,172.4,44.1,172.7,44.5z M174.8,42.8c0-0.4-0.1-1.7-1.1-1.7c-0.3,0-1.2,0.2-1.2,1.7H174.8z"/>
		<path class="st0" d="M178.6,40.9c0.4,0,0.7,0.3,0.7,0.6s-0.2,0.4-0.4,0.4c-0.2,0-0.4-0.1-0.4-0.4c0-0.3,0.2-0.4,0.2-0.4
			c0,0,0,0-0.1,0c-0.8,0-1.2,0.9-1.2,1.9v1.5c0,0.4,0,0.5,0.8,0.5h0.2v0.3c-0.4,0-0.9,0-1.3,0c-0.3,0-0.7,0-1.1,0V45
			c0.7,0,0.8,0,0.8-0.4v-2.7c0-0.5-0.1-0.6-0.8-0.6v-0.3l1.4-0.1V42C177.5,41.6,177.9,40.9,178.6,40.9z"/>
		<path class="st0" d="M181,44.5c0.2,0.4,0.6,0.7,1.1,0.7c0.1,0,1,0,1.3-1c0-0.1,0-0.1,0.1-0.1c0,0,0.1,0,0.1,0.1
			c0,0.2-0.4,1.3-1.7,1.3c-1.1,0-2.2-1-2.2-2.3c0-1.2,0.9-2.3,2.1-2.3c1.2,0,1.8,1,1.8,2c0,0.2,0,0.2-0.2,0.2h-2.8
			C180.7,43.4,180.7,44.1,181,44.5z M183.1,42.8c0-0.4-0.1-1.7-1.1-1.7c-0.3,0-1.2,0.2-1.2,1.7H183.1z"/>
		<path class="st0" d="M184.4,41.4v-0.3l1.4-0.1v1c0.3-0.6,0.7-1,1.5-1c0.6,0,0.9,0.2,1,0.4c0.3,0.4,0.3,0.7,0.3,1.5v1.9
			c0,0.3,0.3,0.3,0.8,0.3v0.3c-0.3,0-0.9,0-1.1,0c-0.3,0-0.8,0-1.1,0V45c0.7,0,0.8,0,0.8-0.4v-2.3c0-0.6-0.1-1.1-0.7-1.1
			c-0.6,0-1.3,0.6-1.3,1.6v1.8c0,0.4,0.1,0.4,0.8,0.4v0.3c-0.3,0-0.9,0-1.1,0c-0.3,0-0.8,0-1.1,0V45c0.7,0,0.8,0,0.8-0.4v-2.7
			C185.1,41.4,185.1,41.4,184.4,41.4z"/>
		<path class="st0" d="M192.1,45.2c0.4,0,1-0.1,1.3-1c0-0.1,0-0.1,0.1-0.1c0,0,0.1,0,0.1,0.1s-0.3,1.3-1.7,1.3c-1.2,0-2.1-1-2.1-2.3
			c0-1.2,0.9-2.3,2.2-2.3c0.8,0,1.5,0.4,1.5,1.1c0,0.3-0.2,0.5-0.5,0.5c-0.3,0-0.5-0.2-0.5-0.5c0-0.1,0.1-0.4,0.5-0.5
			c-0.3-0.4-1-0.4-1.1-0.4c-0.5,0-1.3,0.4-1.3,2C190.7,44.8,191.6,45.2,192.1,45.2z"/>
	</g>
	<g>
		<path class="st0" d="M195.4,44.5c0.2,0.4,0.6,0.7,1.1,0.7c0.1,0,1,0,1.3-1c0-0.1,0-0.1,0.1-0.1c0,0,0.1,0,0.1,0.1
			c0,0.2-0.4,1.3-1.7,1.3c-1.1,0-2.2-1-2.2-2.3c0-1.2,0.9-2.3,2.1-2.3c1.2,0,1.8,1,1.8,2c0,0.2,0,0.2-0.2,0.2h-2.8
			C195.1,43.4,195.1,44.1,195.4,44.5z M197.5,42.8c0-0.4-0.1-1.7-1.1-1.7c-0.3,0-1.2,0.2-1.2,1.7H197.5z"/>
	</g>
	<polyline points="100.7,122.1 105.2,119.8 100.7,117.5 101.8,119.8 	"/>
	<line class="st1" x1="52" y1="119.5" x2="101.8" y2="119.8"/>
	<g>
		<defs>
			<polygon id="SVGID_1_" points="52,119.5 52,69.9 90.9,69.9 90.9,169.1 52,169.1 			"/>
		</defs>
		<clipPath id="SVGID_2_">
			<use xlink:href="#SVGID_1_"  style="overflow:visible;"/>
		</clipPath>
		<path class="st2" d="M69.7,190.4L0.6,121.3 M73.3,186.8L4.2,117.7 M76.9,183.2L7.8,114.1 M80.5,179.6l-69.1-69.1 M84.1,176
			L15,106.9 M87.7,172.4l-69.1-69.1 M91.3,168.8L22.2,99.7 M94.9,165.2L25.8,96.1 M98.5,161.6L29.4,92.5 M102.1,158L33,88.9
			 M105.7,154.4L36.6,85.3 M109.3,150.8L40.2,81.7 M112.9,147.2L43.8,78.1 M116.5,143.6L47.4,74.5 M120.1,140L51,70.9 M123.7,136.4
			L54.6,67.3 M127.3,132.8L58.2,63.7 M130.9,129.2L61.8,60.1 M134.5,125.6L65.4,56.5 M138.1,122L69,52.9 M141.7,118.4L72.6,49.3"/>
	</g>
	<polygon class="st3" points="52,119.5 52,69.9 90.9,69.9 90.9,169.1 52,169.1 	"/>
	<polyline points="93.2,74.5 90.9,69.9 88.7,74.5 90.9,73.3 	"/>
	<line class="st1" x1="90.9" y1="169.1" x2="90.9" y2="73.3"/>
	<g>
		<path class="st4" d="M112.8,120.1l0.1,0.8c0.1,0.9,0.2,1.4,0.7,1.4c0.2,0,0.6-0.2,0.7-0.9c0-0.1,0-0.2,0.1-0.2
			c0.1,0,0.1,0.1,0.1,0.2c0,0.3-0.2,1.1-0.9,1.1c-0.3,0-0.8-0.1-1.3-0.4c-0.4-0.4-0.4-0.8-0.4-1.4c0-0.7,0-1-0.4-1.3
			c-0.3-0.3-0.8-0.3-0.9-0.3h-1.1v2.5c0,0.4,0,0.5,0.8,0.5h0.2v0.3c-0.4,0-1.1,0-1.5,0c-0.4,0-1.1,0-1.5,0V122h0.2
			c0.8,0,0.8-0.1,0.8-0.5v-5.3c0-0.4,0-0.5-0.8-0.5h-0.2v-0.3h3.1c1.5,0,2.6,0.8,2.6,1.8c0,0.8-0.8,1.4-1.7,1.6
			C112.1,119.1,112.6,119.5,112.8,120.1z M110.6,118.8c1.5,0,1.7-0.8,1.7-1.5c0-1.4-1.1-1.5-2-1.5c-0.2,0-0.5,0-0.6,0
			c-0.2,0-0.2,0.1-0.2,0.4v2.6H110.6z"/>
		<path class="st4" d="M116,121.5c0.2,0.4,0.6,0.7,1.1,0.7c0.1,0,1,0,1.3-1c0-0.1,0-0.1,0.1-0.1c0,0,0.1,0,0.1,0.1
			c0,0.2-0.4,1.3-1.7,1.3c-1.1,0-2.2-1-2.2-2.3c0-1.2,0.9-2.3,2.1-2.3c1.2,0,1.8,1,1.8,2c0,0.2,0,0.2-0.2,0.2h-2.8
			C115.7,120.4,115.7,121.1,116,121.5z M118.1,119.8c0-0.4-0.1-1.7-1.1-1.7c-0.3,0-1.2,0.3-1.2,1.7H118.1z"/>
	</g>
	<g>
		<path class="st4" d="M122.2,124.8c-0.1,0-1-0.6-1.6-1.9c-0.5-1.1-0.7-2.3-0.7-3.1c0-0.8,0.1-1.9,0.6-3c0.6-1.3,1.5-1.9,1.6-1.9
			c0.1,0,0.1,0,0.1,0.1c0,0,0,0-0.1,0.2c-1.2,1.2-1.6,3-1.6,4.7c0,1.5,0.3,3.4,1.6,4.7C122.3,124.7,122.3,124.7,122.2,124.8
			C122.3,124.8,122.3,124.8,122.2,124.8z"/>
	</g>
	<g>
		<path class="st4" d="M125.9,118.2c-0.9,0-1.1,0.6-1.1,0.9c0,0.4,0.4,0.5,0.8,0.6c0.4,0.1,0.7,0.1,1,0.4c0.1,0.1,0.3,0.4,0.3,0.7
			c0,0.4-0.4,1.7-2,1.7c-0.9,0-1.4-0.4-1.4-1c0-0.4,0.3-0.7,0.6-0.7c0.2,0,0.4,0.1,0.4,0.3c0,0.3-0.2,0.6-0.6,0.5
			c0.2,0.5,1,0.5,1.1,0.5c1.2,0,1.4-0.8,1.4-1.1c0-0.5-0.5-0.7-1-0.8c-0.3-0.1-1-0.2-1-1c0-0.4,0.4-1.5,1.7-1.5
			c0.8,0,1.2,0.4,1.2,0.9c0,0.4-0.2,0.6-0.5,0.6s-0.3-0.1-0.3-0.3c0-0.2,0.2-0.4,0.5-0.4C126.6,118.2,126.1,118.2,125.9,118.2z"/>
	</g>
	<g>
		<path class="st4" d="M129.8,122.9c-0.6,1.3-1.5,1.9-1.6,1.9c-0.1,0-0.1,0-0.1-0.1c0,0,0,0,0.1-0.2c1.2-1.3,1.6-3,1.6-4.7
			c0-2.1-0.6-3.7-1.5-4.7c-0.2-0.2-0.2-0.2-0.2-0.2c0-0.1,0-0.1,0.1-0.1c0.1,0,1,0.6,1.6,1.9c0.5,1.1,0.7,2.3,0.7,3.1
			C130.4,120.7,130.3,121.8,129.8,122.9z"/>
	</g>
	<g>
		<path class="st4" d="M80.9,64.6c0,0.4,0,0.5,0.8,0.5H82v0.3c-0.3,0-1.1,0-1.5,0c-0.4,0-1.2,0-1.5,0v-0.3h0.3
			c0.8,0,0.8-0.1,0.8-0.5v-5.3c0-0.4,0-0.5-0.8-0.5H79v-0.3c0.3,0,1.1,0,1.5,0c0.4,0,1.2,0,1.5,0v0.3h-0.3c-0.8,0-0.8,0.1-0.8,0.5
			V64.6z"/>
		<path class="st4" d="M82.6,61.4v-0.3L84,61v1c0.3-0.6,0.7-1,1.5-1c0.4,0,1.2,0.1,1.3,1c0.2-0.4,0.6-1,1.4-1c0.6,0,0.9,0.2,1,0.4
			c0.3,0.4,0.3,0.7,0.3,1.5v1.9c0,0.3,0.3,0.3,0.8,0.3v0.3c-0.3,0-0.9,0-1.1,0c-0.3,0-0.8,0-1.1,0v-0.3c0.7,0,0.8,0,0.8-0.4v-2.3
			c0-0.6-0.1-1.1-0.7-1.1c-0.6,0-1.3,0.6-1.3,1.6v1.8c0,0.4,0.1,0.4,0.8,0.4v0.3c-0.3,0-0.9,0-1.1,0c-0.3,0-0.8,0-1.1,0v-0.3
			c0.7,0,0.8,0,0.8-0.4v-2.3c0-0.6-0.1-1.1-0.7-1.1c-0.6,0-1.3,0.6-1.3,1.6v1.8c0,0.4,0.1,0.4,0.8,0.4v0.3c-0.3,0-0.9,0-1.1,0
			c-0.3,0-0.8,0-1.1,0v-0.3c0.7,0,0.8,0,0.8-0.4v-2.7C83.4,61.5,83.3,61.4,82.6,61.4z"/>
	</g>
	<g>
		<path class="st4" d="M93.8,67.9c-0.1,0-1-0.6-1.6-1.9c-0.5-1.1-0.7-2.3-0.7-3.1c0-0.8,0.1-1.9,0.6-3c0.6-1.3,1.5-1.9,1.6-1.9
			c0.1,0,0.1,0,0.1,0.1c0,0,0,0-0.1,0.2c-1.2,1.2-1.6,3-1.6,4.7c0,1.5,0.3,3.4,1.6,4.7C93.9,67.7,93.9,67.7,93.8,67.9
			C93.9,67.8,93.8,67.9,93.8,67.9z"/>
	</g>
	<g>
		<path class="st4" d="M97.4,61.2c-0.9,0-1.1,0.6-1.1,0.9c0,0.4,0.4,0.5,0.8,0.6c0.4,0.1,0.7,0.1,1,0.4c0.1,0.1,0.3,0.4,0.3,0.7
			c0,0.4-0.4,1.7-2,1.7c-0.9,0-1.4-0.4-1.4-1c0-0.4,0.3-0.7,0.6-0.7c0.2,0,0.4,0.1,0.4,0.3c0,0.3-0.2,0.6-0.6,0.5
			c0.2,0.5,1,0.5,1.1,0.5c1.2,0,1.4-0.8,1.4-1.1c0-0.5-0.5-0.7-1-0.8c-0.3-0.1-1-0.2-1-1c0-0.4,0.4-1.5,1.7-1.5
			c0.8,0,1.2,0.4,1.2,0.9c0,0.4-0.2,0.6-0.5,0.6s-0.3-0.1-0.3-0.3c0-0.2,0.2-0.4,0.5-0.4C98.2,61.3,97.7,61.2,97.4,61.2z"/>
	</g>
	<g>
		<path class="st4" d="M101.3,65.9c-0.6,1.3-1.5,1.9-1.6,1.9c-0.1,0-0.1,0-0.1-0.1c0,0,0-0.1,0.1-0.2c1.2-1.3,1.6-3,1.6-4.7
			c0-2.1-0.6-3.7-1.5-4.7c-0.2-0.2-0.2-0.2-0.2-0.2c0-0.1,0-0.1,0.1-0.1c0.1,0,1,0.6,1.6,1.9c0.5,1.1,0.7,2.3,0.7,3.1
			C102,63.7,101.8,64.8,101.3,65.9z"/>
	</g>
	<g>
		<path class="st4" d="M99.7,128.9c-0.4,0.9-1.2,1.2-1.7,1.2c-0.5,0-1.2-0.2-1.6-1c-0.4-0.8-0.4-1.7-0.4-2.4c0-0.8,0-1.6,0.4-2.3
			c0.4-0.9,1.1-1.2,1.7-1.2c0.4,0,1.2,0.2,1.7,1.1c0.3,0.7,0.4,1.5,0.4,2.3C100.1,127.5,100,128.2,99.7,128.9z M99.1,128.6
			c0.1-0.6,0.1-1.3,0.1-2.1c0-0.6,0-1.4-0.1-1.9c-0.2-1-0.8-1.2-1.2-1.2c-0.2,0-1,0.1-1.2,1.3c-0.1,0.5-0.1,1.2-0.1,1.8
			c0,0.6,0,1.5,0.1,2.1c0.2,1,0.8,1.2,1.2,1.2C98.4,129.9,99,129.6,99.1,128.6z"/>
	</g>
	<g>
		<path class="st4" d="M76.4,38.5C76.2,38.2,76,38,76,37.6c0-0.6,0.4-1.2,1.6-1.2c0.1,0,0.6,0,0.9,0.3c0,0,0.1-0.1,0.2-0.2
			c0.1-0.1,0.1-0.1,0.2-0.1c0.1,0,0.1,0.1,0.1,0.2v1c0,0.2,0,0.2-0.1,0.2c0,0-0.1,0-0.1-0.1c0-0.3-0.1-1.2-1.2-1.2
			c-0.9,0-1.1,0.4-1.1,0.8c0,0.6,0.7,0.7,1.2,0.8c0.4,0.1,0.8,0.2,1.1,0.5c0.1,0.1,0.4,0.4,0.4,0.9c0,0.7-0.5,1.4-1.6,1.4
			c-0.2,0-0.7,0-1.1-0.4c-0.2,0.2-0.2,0.2-0.2,0.2C76.2,41,76.2,41,76.1,41C76,41,76,40.9,76,40.7v-1.3c0-0.2,0-0.2,0.1-0.2
			c0.1,0,0.1,0,0.1,0.2c0.2,0.8,0.5,1.4,1.4,1.4c0.8,0,1.1-0.4,1.1-0.9c0-0.7-0.8-0.9-1-0.9C77,38.8,76.8,38.7,76.4,38.5z"/>
		<path class="st4" d="M79.7,39v-0.6h2.6V39H79.7z"/>
		<path class="st4" d="M86.1,36.4c1.1,0,2.1,1,2.1,2.3c0,1.3-1,2.3-2.2,2.3c-0.8,0-1.2-0.5-1.2-0.7v0.1V42c0,0.4,0.1,0.4,0.8,0.4
			v0.3c-0.3,0-0.9,0-1.1,0c-0.3,0-0.8,0-1.1,0v-0.3c0.7,0,0.8,0,0.8-0.4v-4.7c0-0.4-0.1-0.5-0.8-0.5v-0.3l1.4-0.1v0.7
			C84.9,36.9,85.3,36.4,86.1,36.4z M84.9,40.1c0.3,0.4,0.6,0.6,1,0.6c0.7,0,1.4-0.8,1.4-2c0-1.1-0.6-2-1.3-2c-0.5,0-1,0.3-1.3,0.8
			v2.2C84.7,39.9,84.7,39.9,84.9,40.1z"/>
		<path class="st4" d="M90.3,40.1c0,0.4,0.1,0.4,0.8,0.4v0.3c-0.4,0-0.9,0-1.1,0c-0.2,0-0.8,0-1.1,0v-0.3c0.7,0,0.8,0,0.8-0.4v-5.2
			c0-0.5-0.1-0.6-0.8-0.6V34l1.4-0.1V40.1z"/>
		<path class="st4" d="M93.3,41c-0.6,0-1.6-0.2-1.6-1.1c0-0.4,0.2-1,1-1.3c0.6-0.3,1.3-0.3,1.8-0.4v-0.4c0-0.9-0.6-1.3-1.1-1.3
			c-0.3,0-0.8,0.1-1.1,0.5c0.5,0,0.5,0.3,0.5,0.5c0,0.3-0.2,0.5-0.5,0.5c-0.3,0-0.5-0.2-0.5-0.5c0-0.7,0.7-1.1,1.5-1.1
			c0.5,0,1,0.2,1.4,0.5c0.4,0.4,0.4,0.8,0.4,1.2v2c0,0,0,0.5,0.4,0.5c0.1,0,0.4-0.1,0.4-0.6v-0.6h0.2V40c0,0.8-0.6,0.9-0.8,0.9
			c-0.5,0-0.7-0.4-0.8-0.8C94.5,40.6,94,41,93.3,41z M92.5,39.9c0,0.5,0.4,0.8,0.9,0.8c0.4,0,1.2-0.3,1.2-1.3v-1
			C92.9,38.5,92.5,39.3,92.5,39.9z"/>
		<path class="st4" d="M96.7,36.9v-0.3l1.4-0.1v1c0.3-0.6,0.7-1,1.5-1c0.6,0,0.9,0.2,1,0.4c0.3,0.4,0.3,0.7,0.3,1.5v1.9
			c0,0.3,0.3,0.3,0.8,0.3v0.3c-0.3,0-0.9,0-1.1,0c-0.3,0-0.8,0-1.1,0v-0.3c0.7,0,0.8,0,0.8-0.4v-2.3c0-0.6-0.1-1.1-0.7-1.1
			c-0.6,0-1.3,0.6-1.3,1.6v1.8c0,0.4,0.1,0.4,0.8,0.4v0.3c-0.3,0-0.9,0-1.1,0c-0.3,0-0.8,0-1.1,0v-0.3c0.7,0,0.8,0,0.8-0.4v-2.7
			C97.4,36.9,97.4,36.9,96.7,36.9z"/>
	</g>
	<g>
		<path class="st4" d="M103.2,40c0.2,0.4,0.6,0.7,1.1,0.7c0.1,0,1,0,1.3-1c0-0.1,0-0.1,0.1-0.1c0,0,0.1,0,0.1,0.1
			c0,0.2-0.4,1.3-1.7,1.3c-1.1,0-2.2-1-2.2-2.3c0-1.2,0.9-2.3,2.1-2.3c1.2,0,1.8,1,1.8,2c0,0.2,0,0.2-0.2,0.2h-2.8
			C102.9,38.9,102.9,39.6,103.2,40z M105.3,38.3c0-0.4-0.1-1.7-1.1-1.7c-0.3,0-1.2,0.2-1.2,1.7H105.3z"/>
	</g>
	<polygon class="st1" points="73.3,38.3 73.3,45.4 108.8,45.4 108.8,31.2 73.3,31.2 	"/>
	<g>
		<path class="st4" d="M289.1,174.9c-0.9,0-1.1,0.6-1.1,0.9c0,0.4,0.4,0.5,0.8,0.6c0.4,0.1,0.7,0.1,1,0.4c0.1,0.1,0.3,0.4,0.3,0.7
			c0,0.4-0.4,1.7-2,1.7c-0.9,0-1.4-0.4-1.4-1c0-0.4,0.3-0.7,0.6-0.7c0.2,0,0.4,0.1,0.4,0.3c0,0.3-0.2,0.6-0.6,0.5
			c0.2,0.5,1,0.5,1.1,0.5c1.2,0,1.4-0.8,1.4-1.1c0-0.5-0.5-0.7-1-0.8c-0.3-0.1-1-0.2-1-1c0-0.4,0.4-1.5,1.7-1.5
			c0.8,0,1.2,0.4,1.2,0.9c0,0.4-0.2,0.6-0.5,0.6s-0.3-0.1-0.3-0.3c0-0.2,0.2-0.4,0.5-0.4C289.9,174.9,289.4,174.9,289.1,174.9z"/>
	</g>
	<g>
		<path class="st4" d="M294.5,175.8c-0.1,0-0.3,0-0.3-0.2c0-0.2,0.2-0.2,0.3-0.2h6c0.1,0,0.3,0,0.3,0.2c0,0.2-0.2,0.2-0.3,0.2H294.5
			z M294.4,177.7c-0.1,0-0.3,0-0.3-0.2s0.2-0.2,0.3-0.2h5.9c0.1,0,0.3,0,0.3,0.2s-0.2,0.2-0.3,0.2H294.4z"/>
	</g>
	<g>
		<path class="st4" d="M306.7,174.5c0.1,0,0.2,0,0.5,0.1c0.2,0,0.3,0.1,0.5,0.1c0.3,0,0.8-0.2,0.9-0.5c0-0.1,0-0.1,0.1-0.1
			c0,0,0.1,0,0.1,0.1c0,0.2-0.5,1.1-1.2,1.1c-0.2,0-0.4-0.1-0.6-0.3c-0.2-0.2-0.3-0.2-0.4-0.2c-0.2,0-0.5,0.2-0.6,0.4
			c0,0.1,0,0.1-0.1,0.1c0,0-0.1,0-0.1-0.1c0-0.1,0.2-0.4,0.6-0.8c0.1-0.1,0.3-0.3,0.9-0.7c0.7-0.5,0.8-0.7,1-0.8
			c-0.2,0-0.2,0-0.6-0.1c-0.1,0-0.3-0.1-0.4-0.1c-0.1,0-0.5,0-0.6,0.3c0,0.1,0,0.1-0.1,0.1c0,0-0.1,0-0.1-0.1c0-0.2,0.4-0.8,0.9-0.8
			c0.2,0,0.3,0,0.6,0.3c0.2,0.2,0.3,0.2,0.4,0.2c0.2,0,0.3-0.1,0.5-0.4c0-0.1,0.1-0.1,0.1-0.1c0,0,0.1,0,0.1,0.1
			c0,0.1-0.3,0.4-0.7,0.9c-0.2,0.2-0.7,0.6-0.9,0.7c-0.6,0.5-0.7,0.6-0.9,0.8C306.5,174.5,306.6,174.5,306.7,174.5z"/>
	</g>
	<g>
		<path class="st4" d="M310.4,173.5c-0.1,0-0.3,0-0.3-0.2c0-0.2,0.2-0.2,0.3-0.2h4.2c0.1,0,0.3,0,0.3,0.2c0,0.2-0.2,0.2-0.3,0.2
			H310.4z"/>
	</g>
	<g>
		<path class="st4" d="M318,174.5c0,0.2,0,0.3,0.7,0.3h0.3v0.3c-0.2,0-1,0-1.2,0c-0.3,0-1.1,0-1.2,0v-0.3h0.3c0.7,0,0.7-0.1,0.7-0.3
			V171c-0.4,0.2-0.8,0.2-1,0.2v-0.3c0.3,0,0.9,0,1.4-0.4c0.2,0,0.2,0,0.2,0.2V174.5z"/>
	</g>
	<polyline points="305.3,176.8 319.7,176.8 319.7,176.3 305.3,176.3 	"/>
	<g>
		<path class="st4" d="M312,182c0,0.1,0,0.1,0,0.2c0,0.1,0,0.1,0.3,0.1c0.1,0,0.3,0,0.4,0c0.2,0,0.3,0,0.3,0.1
			c0,0.2-0.1,0.2-0.2,0.2c-0.2,0-0.4,0-0.6,0c-0.2,0-0.4,0-0.6,0c-0.2,0-0.4,0-0.6,0s-0.4,0-0.6,0c-0.1,0-0.1-0.1-0.1-0.1
			c0-0.2,0.1-0.2,0.3-0.2c0.7,0,0.8-0.1,0.8-0.3l0.9-3.7c0-0.1,0-0.1,0-0.1c0-0.1,0-0.1-0.2-0.1h-0.3c-1.1,0-1.3,0.1-1.7,1.2
			c0,0.1-0.1,0.2-0.1,0.2c-0.1,0-0.1-0.1-0.1-0.1c0,0,0-0.1,0-0.1l0.4-1.2c0-0.1,0.1-0.1,0.2-0.1h4.3c0.1,0,0.2,0,0.2,0.1l-0.2,1.3
			c0,0.1,0,0.2-0.1,0.2c-0.1,0-0.1,0-0.1-0.1l0-0.1c0-0.4,0-0.5,0-0.6c0-0.3,0-0.5-0.3-0.6c-0.2-0.1-0.4-0.1-0.8-0.1
			c-0.1,0-0.4,0-0.4,0c-0.2,0-0.2,0-0.2,0.2L312,182z"/>
	</g>
	<g>
		<path class="st4" d="M301.8,163.2c0.5,0.5,1,1.3,1,1.5c0,0.1-0.1,0.1-0.2,0.1c-0.1,0-0.1,0-0.3-0.2c-0.6-1.1-1.6-2-2.9-2.4
			c-0.2-0.1-0.2-0.1-0.2-0.1l0,0c0,0,0,0,0-0.1c0,0,0,0,0-0.1c0,0,0,0,0.2-0.1c0.5-0.1,1.2-0.4,1.9-1c0.6-0.6,0.9-1.1,1.1-1.5
			c0-0.1,0.1-0.1,0.2-0.1c0.1,0,0.2,0,0.2,0.1c0,0.1-0.5,1-1,1.5h5.9c0.2,0,0.3,0,0.3,0.2c0,0.2-0.2,0.2-0.4,0.2h-6.3
			c-0.4,0.3-0.9,0.6-1.3,0.8c0.3,0.1,0.8,0.4,1.3,0.8h6.3c0.2,0,0.4,0,0.4,0.2s-0.2,0.2-0.3,0.2H301.8z"/>
	</g>
	<path class="st1" d="M277.6,120.3L277.6,120.3c0-29.6-24-53.7-53.7-53.7s-53.7,24-53.7,53.7s24,53.7,53.7,53.7
		S277.6,149.9,277.6,120.3L277.6,120.3z"/>
	<g>
		<defs>
			<path id="SVGID_3_" d="M277.1,119.5L277.1,119.5c0-14.8-12-26.7-26.7-26.7c-14.8,0-26.7,12-26.7,26.7c0,14.8,12,26.7,26.7,26.7
				C265.1,146.3,277.1,134.3,277.1,119.5L277.1,119.5z"/>
		</defs>
		<clipPath id="SVGID_4_">
			<use xlink:href="#SVGID_3_"  style="overflow:visible;"/>
		</clipPath>
		<path class="st5" d="M251.9,171.5L198.4,118 M255.5,167.9L202,114.4 M259.1,164.3l-53.5-53.5 M262.7,160.7l-53.5-53.5
			 M266.3,157.1l-53.5-53.5 M269.9,153.5L216.4,100 M273.5,149.9L220,96.4 M277.1,146.3l-53.5-53.5 M280.7,142.7l-53.5-53.5
			 M284.3,139.1l-53.5-53.5 M287.9,135.5L234.4,82 M291.5,131.9L238,78.4 M295.1,128.3l-53.5-53.5 M298.7,124.7l-53.5-53.5
			 M302.3,121.1l-53.5-53.5 M305.9,117.5L252.4,64"/>
	</g>
	<path class="st6" d="M277.1,119.5L277.1,119.5c0-14.8-12-26.7-26.7-26.7c-14.8,0-26.7,12-26.7,26.7c0,14.8,12,26.7,26.7,26.7
		C265.1,146.3,277.1,134.3,277.1,119.5L277.1,119.5z"/>
	<polyline points="284.9,122.1 289.5,119.8 284.9,117.6 286.1,119.8 	"/>
	<line class="st1" x1="161.9" y1="119.8" x2="286.1" y2="119.8"/>
	<polyline points="224.4,64.1 222.1,59.6 219.9,64.1 222.1,63 	"/>
	<line class="st1" x1="222.1" y1="183.6" x2="222.1" y2="63"/>
	<g>
		<path class="st4" d="M212,54.2c0,0.4,0,0.5,0.8,0.5h0.3V55c-0.3,0-1.1,0-1.5,0c-0.4,0-1.2,0-1.5,0v-0.3h0.3c0.8,0,0.8-0.1,0.8-0.5
			V49c0-0.4,0-0.5-0.8-0.5h-0.3v-0.3c0.3,0,1.1,0,1.5,0c0.4,0,1.2,0,1.5,0v0.3h-0.3c-0.8,0-0.8,0.1-0.8,0.5V54.2z"/>
		<path class="st4" d="M213.7,51v-0.3l1.4-0.1v1c0.3-0.6,0.7-1,1.5-1c0.4,0,1.2,0.1,1.3,1c0.2-0.4,0.6-1,1.4-1c0.6,0,0.9,0.2,1,0.4
			c0.3,0.4,0.3,0.7,0.3,1.5v1.9c0,0.3,0.3,0.3,0.8,0.3V55c-0.3,0-0.9,0-1.1,0c-0.3,0-0.8,0-1.1,0v-0.3c0.7,0,0.8,0,0.8-0.4v-2.3
			c0-0.6-0.1-1.1-0.7-1.1c-0.6,0-1.3,0.6-1.3,1.6v1.8c0,0.4,0.1,0.4,0.8,0.4V55c-0.3,0-0.9,0-1.1,0c-0.3,0-0.8,0-1.1,0v-0.3
			c0.7,0,0.8,0,0.8-0.4v-2.3c0-0.6-0.1-1.1-0.7-1.1c-0.6,0-1.3,0.6-1.3,1.6v1.8c0,0.4,0.1,0.4,0.8,0.4V55c-0.3,0-0.9,0-1.1,0
			c-0.3,0-0.8,0-1.1,0v-0.3c0.7,0,0.8,0,0.8-0.4v-2.7C214.5,51.1,214.4,51,213.7,51z"/>
	</g>
	<g>
		<path class="st4" d="M224.9,57.5c-0.1,0-1-0.6-1.6-1.9c-0.5-1.1-0.7-2.3-0.7-3.1c0-0.8,0.1-1.9,0.6-3c0.6-1.3,1.5-1.9,1.6-1.9
			c0.1,0,0.1,0,0.1,0.1c0,0,0,0-0.1,0.2c-1.2,1.2-1.6,3-1.6,4.7c0,1.5,0.3,3.4,1.6,4.7C225,57.4,225,57.4,224.9,57.5
			C225,57.5,224.9,57.5,224.9,57.5z"/>
	</g>
	<g>
		<path class="st4" d="M227.1,54.2c0.2,0,0.4,0,0.7,0.2c0.2,0.1,0.4,0.1,0.6,0.1c0.3,0,1-0.2,1.2-0.8c0-0.1,0-0.1,0.1-0.1
			c0.1,0,0.1,0,0.1,0.1c0,0.3-0.6,1.5-1.6,1.5c-0.3,0-0.5-0.2-0.6-0.4c-0.2-0.3-0.3-0.4-0.6-0.4c-0.3,0-0.6,0.3-0.8,0.6
			c-0.1,0.1-0.1,0.1-0.2,0.1c0,0-0.1,0-0.1-0.1c0-0.1,0.3-0.6,1-1.3l0.9-0.8c0.2-0.2,1-0.9,1.4-1.3c-0.3,0-0.4,0-0.8-0.1
			c-0.2-0.1-0.4-0.1-0.6-0.1c-0.1,0-0.7,0-0.8,0.5c0,0.1,0,0.1-0.1,0.1c-0.1,0-0.1-0.1-0.1-0.1c0-0.2,0.5-1.1,1.2-1.1
			c0.3,0,0.5,0.2,0.7,0.4c0.1,0.2,0.3,0.3,0.5,0.3c0.2,0,0.4-0.2,0.7-0.6c0-0.1,0.1-0.1,0.1-0.1c0,0,0.1,0,0.1,0.1
			c0,0-0.2,0.5-1.2,1.4c-0.4,0.4-1,0.9-1,0.9c-0.4,0.3-0.6,0.6-1.2,1.1C226.9,54.2,227.1,54.2,227.1,54.2z"/>
	</g>
	<g>
		<path class="st4" d="M232.9,55.6c-0.6,1.3-1.5,1.9-1.6,1.9c-0.1,0-0.1,0-0.1-0.1c0,0,0-0.1,0.1-0.2c1.2-1.3,1.6-3,1.6-4.7
			c0-2.1-0.6-3.7-1.5-4.7c-0.2-0.2-0.2-0.2-0.2-0.2c0-0.1,0-0.1,0.1-0.1c0.1,0,1,0.6,1.6,1.9c0.5,1.1,0.7,2.3,0.7,3.1
			C233.5,53.4,233.4,54.5,232.9,55.6z"/>
	</g>
	<g>
		<path class="st4" d="M300.4,120.1l0.1,0.8c0.1,0.9,0.2,1.4,0.7,1.4c0.2,0,0.6-0.2,0.7-0.9c0-0.1,0-0.2,0.1-0.2
			c0.1,0,0.1,0.1,0.1,0.2c0,0.3-0.2,1.1-0.9,1.1c-0.3,0-0.8-0.1-1.3-0.4c-0.4-0.4-0.4-0.8-0.4-1.4c0-0.7,0-1-0.4-1.3
			c-0.3-0.3-0.8-0.3-0.9-0.3h-1.1v2.5c0,0.4,0,0.5,0.8,0.5h0.2v0.3c-0.4,0-1.1,0-1.5,0s-1.1,0-1.5,0V122h0.2c0.8,0,0.8-0.1,0.8-0.5
			v-5.3c0-0.4,0-0.5-0.8-0.5h-0.2v-0.3h3.1c1.5,0,2.6,0.8,2.6,1.8c0,0.8-0.8,1.4-1.7,1.6C299.7,119.1,300.2,119.5,300.4,120.1z
			 M298.2,118.8c1.5,0,1.7-0.8,1.7-1.5c0-1.4-1.1-1.5-2-1.5c-0.2,0-0.5,0-0.6,0c-0.2,0-0.2,0.1-0.2,0.4v2.6H298.2z"/>
		<path class="st4" d="M303.5,121.5c0.2,0.4,0.6,0.7,1.1,0.7c0.1,0,1,0,1.3-1c0-0.1,0-0.1,0.1-0.1c0,0,0.1,0,0.1,0.1
			c0,0.2-0.4,1.3-1.7,1.3c-1.1,0-2.2-1-2.2-2.3c0-1.2,0.9-2.3,2.1-2.3c1.2,0,1.8,1,1.8,2c0,0.2,0,0.2-0.2,0.2h-2.8
			C303.2,120.4,303.2,121.1,303.5,121.5z M305.6,119.8c0-0.4-0.1-1.7-1.1-1.7c-0.3,0-1.2,0.3-1.2,1.7H305.6z"/>
	</g>
	<g>
		<path class="st4" d="M309.8,124.8c-0.1,0-1-0.6-1.6-1.9c-0.5-1.1-0.7-2.3-0.7-3.1c0-0.8,0.1-1.9,0.6-3c0.6-1.3,1.5-1.9,1.6-1.9
			c0.1,0,0.1,0,0.1,0.1c0,0,0,0-0.1,0.2c-1.2,1.2-1.6,3-1.6,4.7c0,1.5,0.3,3.4,1.6,4.7C309.9,124.7,309.9,124.7,309.8,124.8
			C309.9,124.8,309.8,124.8,309.8,124.8z"/>
	</g>
	<g>
		<path class="st4" d="M312,121.5c0.2,0,0.4,0,0.7,0.2c0.2,0.1,0.4,0.1,0.6,0.1c0.3,0,1-0.2,1.2-0.8c0-0.1,0-0.1,0.1-0.1
			c0.1,0,0.1,0,0.1,0.1c0,0.3-0.6,1.5-1.6,1.5c-0.3,0-0.5-0.2-0.6-0.4c-0.2-0.3-0.3-0.4-0.6-0.4c-0.3,0-0.6,0.3-0.8,0.6
			c-0.1,0.1-0.1,0.1-0.2,0.1c0,0-0.1,0-0.1-0.1c0-0.1,0.3-0.6,1-1.3l0.9-0.8c0.2-0.2,1-0.9,1.4-1.3c-0.3,0-0.4,0-0.8-0.1
			c-0.2-0.1-0.4-0.1-0.6-0.1c-0.1,0-0.7,0-0.8,0.5c0,0.1,0,0.1-0.1,0.1s-0.1-0.1-0.1-0.1c0-0.2,0.5-1.1,1.2-1.1
			c0.3,0,0.5,0.2,0.7,0.4c0.1,0.2,0.3,0.3,0.5,0.3s0.4-0.2,0.7-0.6c0-0.1,0.1-0.1,0.1-0.1c0,0,0.1,0,0.1,0.1c0,0-0.2,0.5-1.2,1.4
			c-0.4,0.4-1,0.9-1,0.9c-0.4,0.3-0.6,0.6-1.2,1.1C311.8,121.5,312,121.5,312,121.5z"/>
	</g>
	<g>
		<path class="st4" d="M317.8,122.9c-0.6,1.3-1.5,1.9-1.6,1.9c-0.1,0-0.1,0-0.1-0.1c0,0,0,0,0.1-0.2c1.2-1.3,1.6-3,1.6-4.7
			c0-2.1-0.6-3.7-1.5-4.7c-0.2-0.2-0.2-0.2-0.2-0.2c0-0.1,0-0.1,0.1-0.1c0.1,0,1,0.6,1.6,1.9c0.5,1.1,0.7,2.3,0.7,3.1
			C318.5,120.7,318.3,121.8,317.8,122.9z"/>
	</g>
	<g>
		<path class="st4" d="M282.8,129.4c0,0.4,0,0.5,0.9,0.5h0.3v0.3c-0.3,0-1.2,0-1.6,0s-1.3,0-1.6,0v-0.3h0.3c0.9,0,0.9-0.1,0.9-0.5
			v-5.2c-0.5,0.3-1.1,0.3-1.3,0.3v-0.3c0.3,0,1.2,0,1.8-0.6c0.2,0,0.2,0,0.2,0.3V129.4z"/>
	</g>
	<g>
		<path class="st4" d="M216.7,129.2c-0.4,0.9-1.2,1.2-1.7,1.2c-0.5,0-1.2-0.2-1.6-1c-0.4-0.8-0.4-1.7-0.4-2.4c0-0.8,0-1.6,0.4-2.3
			c0.4-0.9,1.1-1.2,1.7-1.2c0.4,0,1.2,0.2,1.7,1.1c0.3,0.7,0.4,1.5,0.4,2.3C217.1,127.8,217.1,128.5,216.7,129.2z M216.2,128.9
			c0.1-0.6,0.1-1.3,0.1-2.1c0-0.6,0-1.4-0.1-1.9c-0.2-1-0.8-1.2-1.2-1.2c-0.2,0-1,0.1-1.2,1.3c-0.1,0.5-0.1,1.2-0.1,1.8
			c0,0.6,0,1.5,0.1,2.1c0.2,1,0.8,1.2,1.2,1.2C215.5,130.2,216,129.9,216.2,128.9z"/>
	</g>
	<g>
		<path class="st4" d="M207.7,40.6h1.2c1.2,0,1.4-0.4,1.5-1.6h0.2l-0.2,1.9h-3.3c-0.2,0-0.3,0-0.3-0.1c0,0,0-0.1,0.1-0.2l2.8-3.8
			h-1.1c-1.1,0-1.3,0.4-1.3,1.4H207l0.1-1.6h3.2c0.2,0,0.3,0,0.3,0.1c0,0,0,0.1-0.1,0.2L207.7,40.6z"/>
		<path class="st4" d="M211.1,39v-0.6h2.6V39H211.1z"/>
		<path class="st4" d="M217.4,36.4c1.1,0,2.1,1,2.1,2.3c0,1.3-1,2.3-2.2,2.3c-0.8,0-1.2-0.5-1.2-0.7v0.1V42c0,0.4,0.1,0.4,0.8,0.4
			v0.3c-0.3,0-0.9,0-1.1,0c-0.3,0-0.8,0-1.1,0v-0.3c0.7,0,0.8,0,0.8-0.4v-4.7c0-0.4-0.1-0.5-0.8-0.5v-0.3l1.4-0.1v0.7
			C216.2,36.9,216.7,36.4,217.4,36.4z M216.2,40.1c0.3,0.4,0.6,0.6,1,0.6c0.7,0,1.4-0.8,1.4-2c0-1.1-0.6-2-1.3-2
			c-0.5,0-1,0.3-1.3,0.8v2.2C216.1,39.9,216.1,39.9,216.2,40.1z"/>
		<path class="st4" d="M221.6,40.1c0,0.4,0.1,0.4,0.8,0.4v0.3c-0.4,0-0.9,0-1.1,0c-0.2,0-0.8,0-1.1,0v-0.3c0.7,0,0.8,0,0.8-0.4v-5.2
			c0-0.5-0.1-0.6-0.8-0.6V34l1.4-0.1V40.1z"/>
		<path class="st4" d="M224.7,41c-0.6,0-1.6-0.2-1.6-1.1c0-0.4,0.2-1,1-1.3c0.6-0.3,1.3-0.3,1.8-0.4v-0.4c0-0.9-0.6-1.3-1.1-1.3
			c-0.3,0-0.8,0.1-1.1,0.5c0.5,0,0.5,0.3,0.5,0.5c0,0.3-0.2,0.5-0.5,0.5c-0.3,0-0.5-0.2-0.5-0.5c0-0.7,0.7-1.1,1.5-1.1
			c0.5,0,1,0.2,1.4,0.5c0.4,0.4,0.4,0.8,0.4,1.2v2c0,0,0,0.5,0.4,0.5c0.1,0,0.4-0.1,0.4-0.6v-0.6h0.2V40c0,0.8-0.6,0.9-0.8,0.9
			c-0.5,0-0.7-0.4-0.8-0.8C225.8,40.6,225.3,41,224.7,41z M223.8,39.9c0,0.5,0.4,0.8,0.9,0.8c0.4,0,1.2-0.3,1.2-1.3v-1
			C224.3,38.5,223.8,39.3,223.8,39.9z"/>
		<path class="st4" d="M228,36.9v-0.3l1.4-0.1v1c0.3-0.6,0.7-1,1.5-1c0.6,0,0.9,0.2,1,0.4c0.3,0.4,0.3,0.7,0.3,1.5v1.9
			c0,0.3,0.3,0.3,0.8,0.3v0.3c-0.3,0-0.9,0-1.1,0c-0.3,0-0.8,0-1.1,0v-0.3c0.7,0,0.8,0,0.8-0.4v-2.3c0-0.6-0.1-1.1-0.7-1.1
			c-0.6,0-1.3,0.6-1.3,1.6v1.8c0,0.4,0.1,0.4,0.8,0.4v0.3c-0.3,0-0.9,0-1.1,0c-0.3,0-0.8,0-1.1,0v-0.3c0.7,0,0.8,0,0.8-0.4v-2.7
			C228.7,36.9,228.7,36.9,228,36.9z"/>
	</g>
	<g>
		<path class="st4" d="M234.6,40c0.2,0.4,0.6,0.7,1.1,0.7c0.1,0,1,0,1.3-1c0-0.1,0-0.1,0.1-0.1c0,0,0.1,0,0.1,0.1
			c0,0.2-0.4,1.3-1.7,1.3c-1.1,0-2.2-1-2.2-2.3c0-1.2,0.9-2.3,2.1-2.3c1.2,0,1.8,1,1.8,2c0,0.2,0,0.2-0.2,0.2h-2.8
			C234.3,38.9,234.3,39.6,234.6,40z M236.7,38.3c0-0.4-0.1-1.7-1.1-1.7c-0.3,0-1.2,0.2-1.2,1.7H236.7z"/>
	</g>
	<polygon class="st1" points="204.4,38.3 204.4,45.4 239.9,45.4 239.9,31.2 204.4,31.2 	"/>
	<g>
		<path class="st4" d="M377.7,40.6h1.2c1.2,0,1.4-0.4,1.5-1.6h0.2l-0.2,1.9h-3.3c-0.2,0-0.3,0-0.3-0.1c0,0,0-0.1,0.1-0.2l2.8-3.8
			h-1.1c-1.1,0-1.3,0.4-1.3,1.4H377l0.1-1.6h3.2c0.2,0,0.3,0,0.3,0.1c0,0,0,0.1-0.1,0.2L377.7,40.6z"/>
		<path class="st4" d="M381.2,39v-0.6h2.6V39H381.2z"/>
		<path class="st4" d="M387.5,36.4c1.1,0,2.1,1,2.1,2.3c0,1.3-1,2.3-2.2,2.3c-0.8,0-1.2-0.5-1.2-0.7v0.1V42c0,0.4,0.1,0.4,0.8,0.4
			v0.3c-0.3,0-0.9,0-1.1,0c-0.3,0-0.8,0-1.1,0v-0.3c0.7,0,0.8,0,0.8-0.4v-4.7c0-0.4-0.1-0.5-0.8-0.5v-0.3l1.4-0.1v0.7
			C386.3,36.9,386.7,36.4,387.5,36.4z M386.3,40.1c0.3,0.4,0.6,0.6,1,0.6c0.7,0,1.4-0.8,1.4-2c0-1.1-0.6-2-1.3-2
			c-0.5,0-1,0.3-1.3,0.8v2.2C386.1,39.9,386.1,39.9,386.3,40.1z"/>
		<path class="st4" d="M391.7,40.1c0,0.4,0.1,0.4,0.8,0.4v0.3c-0.4,0-0.9,0-1.1,0s-0.8,0-1.1,0v-0.3c0.7,0,0.8,0,0.8-0.4v-5.2
			c0-0.5-0.1-0.6-0.8-0.6V34l1.4-0.1V40.1z"/>
		<path class="st4" d="M394.7,41c-0.6,0-1.6-0.2-1.6-1.1c0-0.4,0.2-1,1-1.3c0.6-0.3,1.3-0.3,1.8-0.4v-0.4c0-0.9-0.6-1.3-1.1-1.3
			c-0.3,0-0.8,0.1-1.1,0.5c0.5,0,0.5,0.3,0.5,0.5c0,0.3-0.2,0.5-0.5,0.5c-0.3,0-0.5-0.2-0.5-0.5c0-0.7,0.7-1.1,1.5-1.1
			c0.5,0,1,0.2,1.4,0.5c0.4,0.4,0.4,0.8,0.4,1.2v2c0,0,0,0.5,0.4,0.5c0.1,0,0.4-0.1,0.4-0.6v-0.6h0.2V40c0,0.8-0.6,0.9-0.8,0.9
			c-0.5,0-0.7-0.4-0.8-0.8C395.9,40.6,395.4,41,394.7,41z M393.9,39.9c0,0.5,0.4,0.8,0.9,0.8c0.4,0,1.2-0.3,1.2-1.3v-1
			C394.3,38.5,393.9,39.3,393.9,39.9z"/>
		<path class="st4" d="M398,36.9v-0.3l1.4-0.1v1c0.3-0.6,0.7-1,1.5-1c0.6,0,0.9,0.2,1,0.4c0.3,0.4,0.3,0.7,0.3,1.5v1.9
			c0,0.3,0.3,0.3,0.8,0.3v0.3c-0.3,0-0.9,0-1.1,0c-0.3,0-0.8,0-1.1,0v-0.3c0.7,0,0.8,0,0.8-0.4v-2.3c0-0.6-0.1-1.1-0.7-1.1
			c-0.6,0-1.3,0.6-1.3,1.6v1.8c0,0.4,0.1,0.4,0.8,0.4v0.3c-0.3,0-0.9,0-1.1,0c-0.3,0-0.8,0-1.1,0v-0.3c0.7,0,0.8,0,0.8-0.4v-2.7
			C398.8,36.9,398.7,36.9,398,36.9z"/>
	</g>
	<g>
		<path class="st4" d="M404.7,40c0.2,0.4,0.6,0.7,1.1,0.7c0.1,0,1,0,1.3-1c0-0.1,0-0.1,0.1-0.1c0,0,0.1,0,0.1,0.1
			c0,0.2-0.4,1.3-1.7,1.3c-1.1,0-2.2-1-2.2-2.3c0-1.2,0.9-2.3,2.1-2.3c1.2,0,1.8,1,1.8,2c0,0.2,0,0.2-0.2,0.2h-2.8
			C404.4,38.9,404.4,39.6,404.7,40z M406.7,38.3c0-0.4-0.1-1.7-1.1-1.7c-0.3,0-1.2,0.2-1.2,1.7H406.7z"/>
	</g>
	<polygon class="st1" points="374.5,38.3 374.5,45.4 409.9,45.4 409.9,31.2 374.5,31.2 	"/>
	<path class="st7" d="M447.7,120.3L447.7,120.3c0-29.6-24-53.7-53.7-53.7c-29.6,0-53.7,24-53.7,53.7s24,53.7,53.7,53.7
		C423.6,174,447.7,149.9,447.7,120.3L447.7,120.3z"/>
	<polyline points="454.2,122.5 459.5,119.8 454.2,117.1 455.5,119.8 	"/>
	<line class="st7" x1="332" y1="119.8" x2="455.5" y2="119.8"/>
	<polyline points="394.9,65 392.2,59.6 389.5,65 392.2,63.6 	"/>
	<line class="st7" x1="392.2" y1="180.1" x2="392.2" y2="63.6"/>
	<g>
		<path class="st4" d="M382.1,54.2c0,0.4,0,0.5,0.8,0.5h0.3V55c-0.3,0-1.1,0-1.5,0c-0.4,0-1.2,0-1.5,0v-0.3h0.3
			c0.8,0,0.8-0.1,0.8-0.5V49c0-0.4,0-0.5-0.8-0.5h-0.3v-0.3c0.3,0,1.1,0,1.5,0c0.4,0,1.2,0,1.5,0v0.3h-0.3c-0.8,0-0.8,0.1-0.8,0.5
			V54.2z"/>
		<path class="st4" d="M383.8,51v-0.3l1.4-0.1v1c0.3-0.6,0.7-1,1.5-1c0.4,0,1.2,0.1,1.3,1c0.2-0.4,0.6-1,1.4-1c0.6,0,0.9,0.2,1,0.4
			c0.3,0.4,0.3,0.7,0.3,1.5v1.9c0,0.3,0.3,0.3,0.8,0.3V55c-0.3,0-0.9,0-1.1,0c-0.3,0-0.8,0-1.1,0v-0.3c0.7,0,0.8,0,0.8-0.4v-2.3
			c0-0.6-0.1-1.1-0.7-1.1c-0.6,0-1.3,0.6-1.3,1.6v1.8c0,0.4,0.1,0.4,0.8,0.4V55c-0.3,0-0.9,0-1.1,0c-0.3,0-0.8,0-1.1,0v-0.3
			c0.7,0,0.8,0,0.8-0.4v-2.3c0-0.6-0.1-1.1-0.7-1.1c-0.6,0-1.3,0.6-1.3,1.6v1.8c0,0.4,0.1,0.4,0.8,0.4V55c-0.3,0-0.9,0-1.1,0
			c-0.3,0-0.8,0-1.1,0v-0.3c0.7,0,0.8,0,0.8-0.4v-2.7C384.6,51.1,384.5,51,383.8,51z"/>
	</g>
	<g>
		<path class="st4" d="M394.9,57.5c-0.1,0-1-0.6-1.6-1.9c-0.5-1.1-0.7-2.3-0.7-3.1c0-0.8,0.1-1.9,0.6-3c0.6-1.3,1.5-1.9,1.6-1.9
			c0.1,0,0.1,0,0.1,0.1c0,0,0,0-0.1,0.2c-1.2,1.2-1.6,3-1.6,4.7c0,1.5,0.3,3.4,1.6,4.7C395,57.4,395,57.4,394.9,57.5
			C395,57.5,395,57.5,394.9,57.5z"/>
	</g>
	<g>
		<path class="st4" d="M397.2,54.2c0.2,0,0.4,0,0.7,0.2c0.2,0.1,0.4,0.1,0.6,0.1c0.3,0,1-0.2,1.2-0.8c0-0.1,0-0.1,0.1-0.1
			c0.1,0,0.1,0,0.1,0.1c0,0.3-0.6,1.5-1.6,1.5c-0.3,0-0.5-0.2-0.6-0.4c-0.2-0.3-0.3-0.4-0.6-0.4c-0.3,0-0.6,0.3-0.8,0.6
			c-0.1,0.1-0.1,0.1-0.2,0.1c0,0-0.1,0-0.1-0.1c0-0.1,0.3-0.6,1-1.3l0.9-0.8c0.2-0.2,1-0.9,1.4-1.3c-0.3,0-0.4,0-0.8-0.1
			c-0.2-0.1-0.4-0.1-0.6-0.1c-0.1,0-0.7,0-0.8,0.5c0,0.1,0,0.1-0.1,0.1s-0.1-0.1-0.1-0.1c0-0.2,0.5-1.1,1.2-1.1
			c0.3,0,0.5,0.2,0.7,0.4c0.1,0.2,0.3,0.3,0.5,0.3s0.4-0.2,0.7-0.6c0-0.1,0.1-0.1,0.1-0.1c0,0,0.1,0,0.1,0.1c0,0-0.2,0.5-1.2,1.4
			c-0.4,0.4-1,0.9-1,0.9c-0.4,0.3-0.6,0.6-1.2,1.1C397,54.2,397.2,54.2,397.2,54.2z"/>
	</g>
	<g>
		<path class="st4" d="M403,55.6c-0.6,1.3-1.5,1.9-1.6,1.9c-0.1,0-0.1,0-0.1-0.1c0,0,0-0.1,0.1-0.2c1.2-1.3,1.6-3,1.6-4.7
			c0-2.1-0.6-3.7-1.5-4.7c-0.2-0.2-0.2-0.2-0.2-0.2c0-0.1,0-0.1,0.1-0.1c0.1,0,1,0.6,1.6,1.9c0.5,1.1,0.7,2.3,0.7,3.1
			C403.6,53.4,403.5,54.5,403,55.6z"/>
	</g>
	<g>
		<path class="st4" d="M470.4,120.1l0.1,0.8c0.1,0.9,0.2,1.4,0.7,1.4c0.2,0,0.6-0.2,0.7-0.9c0-0.1,0-0.2,0.1-0.2
			c0.1,0,0.1,0.1,0.1,0.2c0,0.3-0.2,1.1-0.9,1.1c-0.3,0-0.8-0.1-1.3-0.4c-0.4-0.4-0.4-0.8-0.4-1.4c0-0.7,0-1-0.4-1.3
			c-0.3-0.3-0.8-0.3-0.9-0.3h-1.1v2.5c0,0.4,0,0.5,0.8,0.5h0.2v0.3c-0.4,0-1.1,0-1.5,0s-1.1,0-1.5,0V122h0.2c0.8,0,0.8-0.1,0.8-0.5
			v-5.3c0-0.4,0-0.5-0.8-0.5h-0.2v-0.3h3.1c1.5,0,2.6,0.8,2.6,1.8c0,0.8-0.8,1.4-1.7,1.6C469.8,119.1,470.3,119.5,470.4,120.1z
			 M468.2,118.8c1.5,0,1.7-0.8,1.7-1.5c0-1.4-1.1-1.5-2-1.5c-0.2,0-0.5,0-0.6,0c-0.2,0-0.2,0.1-0.2,0.4v2.6H468.2z"/>
		<path class="st4" d="M473.6,121.5c0.2,0.4,0.6,0.7,1.1,0.7c0.1,0,1,0,1.3-1c0-0.1,0-0.1,0.1-0.1c0,0,0.1,0,0.1,0.1
			c0,0.2-0.4,1.3-1.7,1.3c-1.1,0-2.2-1-2.2-2.3c0-1.2,0.9-2.3,2.1-2.3c1.2,0,1.8,1,1.8,2c0,0.2,0,0.2-0.2,0.2h-2.8
			C473.3,120.4,473.3,121.1,473.6,121.5z M475.7,119.8c0-0.4-0.1-1.7-1.1-1.7c-0.3,0-1.2,0.3-1.2,1.7H475.7z"/>
	</g>
	<g>
		<path class="st4" d="M479.9,124.8c-0.1,0-1-0.6-1.6-1.9c-0.5-1.1-0.7-2.3-0.7-3.1c0-0.8,0.1-1.9,0.6-3c0.6-1.3,1.5-1.9,1.6-1.9
			c0.1,0,0.1,0,0.1,0.1c0,0,0,0-0.1,0.2c-1.2,1.2-1.6,3-1.6,4.7c0,1.5,0.3,3.4,1.6,4.7C480,124.7,480,124.7,479.9,124.8
			C480,124.8,479.9,124.8,479.9,124.8z"/>
	</g>
	<g>
		<path class="st4" d="M482.1,121.5c0.2,0,0.4,0,0.7,0.2c0.2,0.1,0.4,0.1,0.6,0.1c0.3,0,1-0.2,1.2-0.8c0-0.1,0-0.1,0.1-0.1
			c0.1,0,0.1,0,0.1,0.1c0,0.3-0.6,1.5-1.6,1.5c-0.3,0-0.5-0.2-0.6-0.4c-0.2-0.3-0.3-0.4-0.6-0.4c-0.3,0-0.6,0.3-0.8,0.6
			c-0.1,0.1-0.1,0.1-0.2,0.1c0,0-0.1,0-0.1-0.1c0-0.1,0.3-0.6,1-1.3l0.9-0.8c0.2-0.2,1-0.9,1.4-1.3c-0.3,0-0.4,0-0.8-0.1
			c-0.2-0.1-0.4-0.1-0.6-0.1c-0.1,0-0.7,0-0.8,0.5c0,0.1,0,0.1-0.1,0.1s-0.1-0.1-0.1-0.1c0-0.2,0.5-1.1,1.2-1.1
			c0.3,0,0.5,0.2,0.7,0.4c0.1,0.2,0.3,0.3,0.5,0.3s0.4-0.2,0.7-0.6c0-0.1,0.1-0.1,0.1-0.1c0,0,0.1,0,0.1,0.1c0,0-0.2,0.5-1.2,1.4
			c-0.4,0.4-1,0.9-1,0.9c-0.4,0.3-0.6,0.6-1.2,1.1C481.9,121.5,482.1,121.5,482.1,121.5z"/>
	</g>
	<g>
		<path class="st4" d="M487.9,122.9c-0.6,1.3-1.5,1.9-1.6,1.9c-0.1,0-0.1,0-0.1-0.1c0,0,0,0,0.1-0.2c1.2-1.3,1.6-3,1.6-4.7
			c0-2.1-0.6-3.7-1.5-4.7c-0.2-0.2-0.2-0.2-0.2-0.2c0-0.1,0-0.1,0.1-0.1c0.1,0,1,0.6,1.6,1.9c0.5,1.1,0.7,2.3,0.7,3.1
			C488.5,120.7,488.4,121.8,487.9,122.9z"/>
	</g>
	<g>
		<path class="st4" d="M452.9,129.4c0,0.4,0,0.5,0.9,0.5h0.3v0.3c-0.3,0-1.2,0-1.6,0s-1.3,0-1.6,0v-0.3h0.3c0.9,0,0.9-0.1,0.9-0.5
			v-5.2c-0.5,0.3-1.1,0.3-1.3,0.3v-0.3c0.3,0,1.2,0,1.8-0.6c0.2,0,0.2,0,0.2,0.3V129.4z"/>
	</g>
	<g>
		<path class="st4" d="M386.8,129.2c-0.4,0.9-1.2,1.2-1.7,1.2c-0.5,0-1.2-0.2-1.6-1c-0.4-0.8-0.4-1.7-0.4-2.4c0-0.8,0-1.6,0.4-2.3
			c0.4-0.9,1.1-1.2,1.7-1.2c0.4,0,1.2,0.2,1.7,1.1c0.3,0.7,0.4,1.5,0.4,2.3C387.2,127.8,387.1,128.5,386.8,129.2z M386.3,128.9
			c0.1-0.6,0.1-1.3,0.1-2.1c0-0.6,0-1.4-0.1-1.9c-0.2-1-0.8-1.2-1.2-1.2c-0.2,0-1,0.1-1.2,1.3c-0.1,0.5-0.1,1.2-0.1,1.8
			c0,0.6,0,1.5,0.1,2.1c0.2,1,0.8,1.2,1.2,1.2C385.5,130.2,386.1,129.9,386.3,128.9z"/>
	</g>
	<g>
		<defs>
			<polygon id="SVGID_5_" points="335.5,119.8 335.5,59.6 448.9,59.6 448.9,180.1 335.5,180.1 			"/>
		</defs>
		<clipPath id="SVGID_6_">
			<use xlink:href="#SVGID_5_"  style="overflow:visible;"/>
		</clipPath>
		<path class="st8" d="M508.7,119.4L391.8,236.3 M505.1,115.8L388.2,232.7 M501.5,112.2L384.6,229.1 M497.9,108.6L381,225.5
			 M494.3,105L377.4,221.9 M490.7,101.4L373.8,218.3 M487.1,97.8L370.2,214.7 M483.5,94.2L366.6,211.1 M479.9,90.6L363,207.5
			 M476.3,87L359.4,203.9 M472.7,83.4L355.8,200.3 M469.1,79.8L352.2,196.7 M465.5,76.2L348.6,193.1 M461.9,72.6L345,189.5
			 M458.3,69L341.4,185.9 M454.7,65.4L337.8,182.3 M451.1,61.8L334.2,178.7 M447.5,58.2L330.6,175.1 M443.9,54.6L327,171.5
			 M440.3,51L323.4,167.9 M436.7,47.4L319.8,164.3 M433.1,43.8L316.2,160.7 M429.5,40.2L312.6,157.1 M425.9,36.6L309,153.5
			 M422.3,33L305.4,149.9 M418.7,29.4L301.8,146.3 M415.1,25.8L298.2,142.7 M411.5,22.2L294.6,139.1 M407.9,18.6L291,135.5
			 M404.3,15L287.4,131.9 M400.7,11.4L283.8,128.3 M397.1,7.8L280.2,124.7 M393.5,4.2L276.6,121.1 M389.9,0.6L273,117.5"/>
	</g>
	<polygon class="st3" points="335.5,119.8 335.5,59.6 448.9,59.6 448.9,180.1 335.5,180.1 	"/>
	<line class="st9" x1="448.9" y1="176.5" x2="448.9" y2="59.6"/>
	<g>
		<path class="st10" d="M281.5,58.2c0.2,0,0.4,0,0.7,0.2c0.2,0.1,0.4,0.1,0.6,0.1c0.3,0,1-0.2,1.2-0.8c0-0.1,0-0.1,0.1-0.1
			c0.1,0,0.1,0,0.1,0.1c0,0.3-0.6,1.5-1.6,1.5c-0.3,0-0.5-0.2-0.6-0.4c-0.2-0.3-0.3-0.4-0.6-0.4c-0.3,0-0.6,0.3-0.8,0.6
			c-0.1,0.1-0.1,0.1-0.2,0.1c0,0-0.1,0-0.1-0.1c0-0.1,0.3-0.6,1-1.3l0.9-0.8c0.2-0.2,1-0.9,1.4-1.3c-0.3,0-0.4,0-0.8-0.1
			c-0.2-0.1-0.4-0.1-0.6-0.1c-0.1,0-0.7,0-0.8,0.5c0,0.1,0,0.1-0.1,0.1s-0.1-0.1-0.1-0.1c0-0.2,0.5-1.1,1.2-1.1
			c0.3,0,0.5,0.2,0.7,0.4c0.1,0.2,0.3,0.3,0.5,0.3s0.4-0.2,0.7-0.6c0-0.1,0.1-0.1,0.1-0.1c0,0,0.1,0,0.1,0.1c0,0-0.2,0.5-1.2,1.4
			c-0.4,0.4-1,0.9-1,0.9c-0.4,0.3-0.6,0.6-1.2,1.1C281.3,58.2,281.4,58.2,281.5,58.2z"/>
	</g>
	<g>
		<path class="st10" d="M288.6,55.8c-0.1,0-0.3,0-0.3-0.2s0.2-0.2,0.3-0.2h6c0.1,0,0.3,0,0.3,0.2s-0.2,0.2-0.3,0.2H288.6z
			 M288.6,57.7c-0.1,0-0.3,0-0.3-0.2s0.2-0.2,0.3-0.2h5.9c0.1,0,0.3,0,0.3,0.2s-0.2,0.2-0.3,0.2H288.6z"/>
		<path class="st10" d="M301.2,58.3c0,0.4,0,0.5,0.9,0.5h0.3V59c-0.3,0-1.2,0-1.6,0s-1.3,0-1.6,0v-0.3h0.3c0.9,0,0.9-0.1,0.9-0.5
			v-5.2c-0.5,0.3-1.1,0.3-1.3,0.3V53c0.3,0,1.2,0,1.8-0.6c0.2,0,0.2,0,0.2,0.3V58.3z"/>
	</g>
	<g>
		<path class="st10" d="M309.5,59.5c0,0.1,0,0.3-0.2,0.3s-0.2-0.2-0.2-0.3v-2.8h-2.8c-0.1,0-0.3,0-0.3-0.2c0-0.2,0.2-0.2,0.3-0.2
			h2.8v-2.8c0-0.1,0-0.3,0.2-0.3s0.2,0.2,0.2,0.3v2.8h2.8c0.1,0,0.3,0,0.3,0.2c0,0.2-0.2,0.2-0.3,0.2h-2.8V59.5z"/>
	</g>
	<g>
		<path class="st10" d="M318.4,54.9c-0.9,0-1.1,0.6-1.1,0.9c0,0.4,0.4,0.5,0.8,0.6c0.4,0.1,0.7,0.1,1,0.4c0.1,0.1,0.3,0.4,0.3,0.7
			c0,0.4-0.4,1.7-2,1.7c-0.9,0-1.4-0.4-1.4-1c0-0.4,0.3-0.7,0.6-0.7c0.2,0,0.4,0.1,0.4,0.3c0,0.3-0.2,0.6-0.6,0.5
			c0.2,0.5,1,0.5,1.1,0.5c1.2,0,1.4-0.8,1.4-1.1c0-0.5-0.5-0.7-1-0.8c-0.3-0.1-1-0.2-1-1c0-0.4,0.4-1.5,1.7-1.5
			c0.8,0,1.2,0.4,1.2,0.9c0,0.4-0.2,0.6-0.5,0.6s-0.3-0.1-0.3-0.3c0-0.2,0.2-0.4,0.5-0.4C319.1,54.9,318.6,54.9,318.4,54.9z"/>
		<path class="st10" d="M323,58.3c0,0.1,0,0.2,0,0.2c0,0.2,0.1,0.2,0.4,0.2c0.3,0,0.4,0,0.6,0c0.3,0,0.3,0,0.3,0.1
			c0,0.2-0.1,0.2-0.2,0.2c-0.3,0-0.6,0-0.9,0c-0.3,0-0.5,0-0.8,0c-0.3,0-0.6,0-0.8,0c-0.3,0-0.5,0-0.8,0c-0.1,0-0.2,0-0.2-0.1
			c0-0.2,0.1-0.2,0.4-0.2c1.1,0,1.1-0.1,1.2-0.5l1.3-5.3c0,0,0-0.1,0-0.2c0-0.1,0-0.1-0.3-0.1h-0.4c-1.5,0-1.7,0.2-2.3,1.7
			c-0.1,0.2-0.1,0.2-0.2,0.2c-0.1,0-0.1,0-0.1-0.1c0,0,0-0.2,0.1-0.2l0.6-1.8c0.1-0.2,0.1-0.2,0.3-0.2h5.5c0.2,0,0.3,0,0.3,0.1
			c0,0,0,0.1,0,0.2l-0.3,1.7c0,0.1,0,0.2-0.1,0.2c-0.1,0-0.1-0.1-0.1-0.1c0,0,0-0.1,0-0.2c0-0.3,0.1-0.6,0.1-0.8
			c0-0.8-0.4-0.8-1.5-0.8c-0.2,0-0.5,0-0.6,0c-0.1,0-0.2,0.1-0.2,0.4L323,58.3z"/>
	</g>
	<g>
		<path class="st10" d="M299.5,68.9c-0.2,0-0.4,0-0.4-0.2s0.2-0.2,0.3-0.2h5.9c-0.5-0.5-1-1.3-1-1.5c0-0.1,0.1-0.1,0.2-0.1
			c0.1,0,0.1,0,0.3,0.2c0.6,1.1,1.6,2,2.9,2.4c0.2,0.1,0.2,0.1,0.2,0.1l0,0c0,0,0,0,0,0.1c0,0,0,0,0,0.1c0,0,0,0-0.2,0.1
			c-0.5,0.1-1.2,0.4-1.9,1c-0.6,0.6-0.9,1.1-1.1,1.5c0,0.1-0.1,0.1-0.2,0.1c-0.1,0-0.2,0-0.2-0.1c0-0.1,0.5-1,1-1.5h-5.9
			c-0.2,0-0.3,0-0.3-0.2s0.2-0.2,0.4-0.2h6.3c0.4-0.3,0.9-0.6,1.3-0.8c-0.3-0.1-0.8-0.4-1.3-0.8H299.5z"/>
	</g>
	<g>
		<path class="st10" d="M269.5,41.1h-0.2c-0.2-1.4-0.4-1.9-1.9-1.9h-1.2c-0.5,0-0.5,0.1-0.5,0.4v2.5h0.9c1,0,1.1-0.3,1.1-1.2h0.2
			v2.6h-0.2c0-0.8-0.1-1.2-1.1-1.2h-0.9v2.5c0,0.3,0,0.5,0.9,0.5h0.3v0.3c-0.4,0-1.3,0-1.7,0c-0.4,0-1.2,0-1.5,0v-0.3h0.2
			c0.8,0,0.8-0.1,0.8-0.5v-5.2c0-0.4,0-0.5-0.8-0.5h-0.2v-0.3h5.5L269.5,41.1z"/>
		<path class="st10" d="M271.5,45.7c-1.2,0-2.2-1-2.2-2.2c0-1.2,1-2.3,2.2-2.3c1.2,0,2.2,1.1,2.2,2.3
			C273.8,44.8,272.8,45.7,271.5,45.7z M272.7,44.8c0.2-0.4,0.2-1,0.2-1.3c0-0.4,0-1-0.3-1.4c-0.3-0.4-0.7-0.6-1.1-0.6
			c-0.4,0-0.9,0.2-1.1,0.7c-0.2,0.4-0.2,1-0.2,1.4c0,0.4,0,1,0.2,1.4c0.3,0.5,0.7,0.7,1.1,0.7C272.1,45.5,272.5,45.2,272.7,44.8z"/>
	</g>
	<g>
		<path class="st10" d="M277,41.2c0.4,0,0.7,0.3,0.7,0.6s-0.2,0.4-0.4,0.4c-0.2,0-0.4-0.1-0.4-0.4c0-0.3,0.2-0.4,0.2-0.4
			c0,0,0,0-0.1,0c-0.8,0-1.2,0.9-1.2,1.9v1.5c0,0.4,0,0.5,0.8,0.5h0.2v0.3c-0.4,0-0.9,0-1.3,0c-0.3,0-0.7,0-1.1,0v-0.3
			c0.7,0,0.8,0,0.8-0.4v-2.7c0-0.5-0.1-0.6-0.8-0.6v-0.3l1.4-0.1v1.1C275.9,41.9,276.3,41.2,277,41.2z"/>
		<path class="st10" d="M283.1,45.6c0,0.1-0.1,0.2-0.2,0.2s-0.2-0.1-0.2-0.2l-1-2.8l-1,2.8c0,0.1-0.1,0.2-0.2,0.2
			c-0.1,0-0.2-0.1-0.2-0.2L279,42c-0.1-0.3-0.2-0.3-0.7-0.3v-0.3c0.4,0,0.9,0,0.9,0c0.2,0,0.8,0,1.1,0v0.3c-0.2,0-0.6,0-0.6,0.3
			c0,0,0,0.1,0,0.2l0.9,2.7l0.9-2.4c-0.1-0.2-0.2-0.5-0.2-0.5c-0.1-0.1-0.3-0.1-0.6-0.1v-0.3c0.3,0,0.6,0,0.9,0c0.2,0,0.7,0,1,0v0.3
			c-0.2,0-0.6,0-0.6,0.3c0,0,0,0.1,0,0.2l1,2.8l0.9-2.6c0-0.1,0-0.1,0-0.2c0-0.3-0.2-0.5-0.6-0.5v-0.3c0.2,0,0.6,0,0.9,0
			c0.2,0,0.5,0,0.7,0v0.3c-0.3,0-0.7,0.1-0.8,0.6L283.1,45.6z"/>
	</g>
	<g>
		<path class="st10" d="M287,45.7c-0.6,0-1.6-0.2-1.6-1.1c0-0.4,0.2-1,1-1.3c0.6-0.3,1.3-0.3,1.8-0.4v-0.4c0-0.9-0.6-1.3-1.1-1.3
			c-0.3,0-0.8,0.1-1.1,0.5c0.5,0,0.5,0.3,0.5,0.5c0,0.3-0.2,0.5-0.5,0.5c-0.3,0-0.5-0.2-0.5-0.5c0-0.7,0.7-1.1,1.5-1.1
			c0.5,0,1,0.2,1.4,0.5c0.4,0.4,0.4,0.8,0.4,1.2v2c0,0,0,0.5,0.4,0.5c0.1,0,0.4-0.1,0.4-0.6v-0.6h0.2v0.6c0,0.8-0.6,0.9-0.8,0.9
			c-0.5,0-0.7-0.4-0.8-0.8C288.2,45.3,287.7,45.7,287,45.7z M286.2,44.7c0,0.5,0.4,0.8,0.9,0.8c0.4,0,1.2-0.3,1.2-1.3v-1
			C286.6,43.3,286.2,44.1,286.2,44.7z"/>
		<path class="st10" d="M293,41.2c0.4,0,0.7,0.3,0.7,0.6s-0.2,0.4-0.4,0.4c-0.2,0-0.4-0.1-0.4-0.4c0-0.3,0.2-0.4,0.2-0.4
			c0,0,0,0-0.1,0c-0.8,0-1.2,0.9-1.2,1.9v1.5c0,0.4,0,0.5,0.8,0.5h0.2v0.3c-0.4,0-0.9,0-1.3,0c-0.3,0-0.7,0-1.1,0v-0.3
			c0.7,0,0.8,0,0.8-0.4v-2.7c0-0.5-0.1-0.6-0.8-0.6v-0.3l1.4-0.1v1.1C291.9,41.9,292.2,41.2,293,41.2z"/>
	</g>
	<g>
		<path class="st10" d="M296.5,45.7c-1.1,0-2.1-1-2.1-2.3c0-1.3,1-2.3,2.2-2.3c0.5,0,1,0.3,1.3,0.6v-2.2c0-0.5-0.1-0.6-0.8-0.6v-0.3
			l1.4-0.1v6c0,0.5,0.1,0.6,0.8,0.6v0.3l-1.5,0.1v-0.7C297.6,45.4,297.1,45.7,296.5,45.7z M297.7,42c-0.3-0.4-0.7-0.6-1.1-0.6
			c-0.5,0-0.9,0.3-1.1,0.6c-0.3,0.4-0.3,1-0.3,1.4c0,0.4,0,1,0.3,1.4c0.2,0.4,0.6,0.6,1,0.6c0.4,0,0.9-0.2,1.2-0.7
			c0.1-0.2,0.1-0.2,0.1-0.4v-2C297.8,42.2,297.8,42.2,297.7,42z"/>
		<path class="st10" d="M305.1,45.7c-1.1,0-2.1-1-2.1-2.3c0-1.3,1-2.3,2.2-2.3c0.5,0,1,0.3,1.3,0.6v-2.2c0-0.5-0.1-0.6-0.8-0.6v-0.3
			l1.4-0.1v6c0,0.5,0.1,0.6,0.8,0.6v0.3l-1.5,0.1v-0.7C306.2,45.4,305.7,45.7,305.1,45.7z M306.3,42c-0.3-0.4-0.7-0.6-1.1-0.6
			c-0.5,0-0.9,0.3-1.1,0.6c-0.3,0.4-0.3,1-0.3,1.4c0,0.4,0,1,0.3,1.4c0.2,0.4,0.6,0.6,1,0.6c0.4,0,0.9-0.2,1.2-0.7
			c0.1-0.2,0.1-0.2,0.1-0.4v-2C306.4,42.2,306.4,42.2,306.3,42z"/>
	</g>
	<g>
		<path class="st10" d="M309.9,44.9c0,0.4,0,0.4,0.7,0.4v0.3c-0.3,0-0.7,0-1,0c-0.2,0-0.8,0-1.1,0v-0.3c0.7,0,0.8,0,0.8-0.4v-2.7
			c0-0.5-0.1-0.5-0.7-0.5v-0.3l1.4-0.1V44.9z M309.5,40c-0.3,0-0.5-0.3-0.5-0.5c0-0.3,0.2-0.5,0.5-0.5c0.3,0,0.5,0.2,0.5,0.5
			S309.7,40,309.5,40z"/>
		<path class="st10" d="M315.4,44.9c0,0.4,0,0.5,0.8,0.5h0.2v0.3c-0.4,0-0.9,0-1.3,0c-0.3,0-0.7,0-1.1,0v-0.3c0.7,0,0.8,0,0.8-0.4
			v-3.2h-2.1v3.2c0,0.4,0.1,0.4,0.8,0.4v0.3c-0.4,0-0.9,0-1.1,0s-0.8,0-1.1,0v-0.3c0.7,0,0.8,0,0.8-0.4v-3.2h-0.8v-0.3h0.8v-1.1
			c0-1.1,1.2-1.6,2.1-1.6c0.3,0,0.8,0,1.1,0.4c0,0,0.5-0.4,1.1-0.4c0.6,0,0.9,0.3,0.9,0.7c0,0.2-0.1,0.4-0.4,0.4
			c-0.3,0-0.4-0.2-0.4-0.4c0-0.2,0.2-0.4,0.3-0.4c-0.1-0.1-0.3-0.1-0.3-0.1c-0.4,0-0.9,0.5-0.9,1.4v1.2h1.2v0.3h-1.1V44.9z
			 M314.8,41.3v-1.1c0-0.1,0-0.2,0-0.3c-0.3-0.1-0.3-0.3-0.3-0.4c0-0.3,0.2-0.4,0.4-0.4v0c0,0-0.3-0.2-0.8-0.2
			c-0.6,0-1.5,0.4-1.5,1.4v1.1H314.8z"/>
		<path class="st10" d="M318.2,44.8c0.2,0.4,0.6,0.7,1.1,0.7c0.1,0,1,0,1.3-1c0-0.1,0-0.1,0.1-0.1c0,0,0.1,0,0.1,0.1
			c0,0.2-0.4,1.3-1.7,1.3c-1.1,0-2.2-1-2.2-2.3c0-1.2,0.9-2.3,2.1-2.3c1.2,0,1.8,1,1.8,2c0,0.2,0,0.2-0.2,0.2h-2.8
			C317.9,43.7,317.9,44.3,318.2,44.8z M320.3,43.1c0-0.4-0.1-1.7-1.1-1.7c-0.3,0-1.2,0.2-1.2,1.7H320.3z"/>
		<path class="st10" d="M324.1,41.2c0.4,0,0.7,0.3,0.7,0.6s-0.2,0.4-0.4,0.4c-0.2,0-0.4-0.1-0.4-0.4c0-0.3,0.2-0.4,0.2-0.4
			c0,0,0,0-0.1,0c-0.8,0-1.2,0.9-1.2,1.9v1.5c0,0.4,0,0.5,0.8,0.5h0.2v0.3c-0.4,0-0.9,0-1.3,0c-0.3,0-0.7,0-1.1,0v-0.3
			c0.7,0,0.8,0,0.8-0.4v-2.7c0-0.5-0.1-0.6-0.8-0.6v-0.3l1.4-0.1v1.1C323,41.9,323.4,41.2,324.1,41.2z"/>
		<path class="st10" d="M326.6,44.8c0.2,0.4,0.6,0.7,1.1,0.7c0.1,0,1,0,1.3-1c0-0.1,0-0.1,0.1-0.1c0,0,0.1,0,0.1,0.1
			c0,0.2-0.4,1.3-1.7,1.3c-1.1,0-2.2-1-2.2-2.3c0-1.2,0.9-2.3,2.1-2.3c1.2,0,1.8,1,1.8,2c0,0.2,0,0.2-0.2,0.2h-2.8
			C326.3,43.7,326.3,44.3,326.6,44.8z M328.6,43.1c0-0.4-0.1-1.7-1.1-1.7c-0.3,0-1.2,0.2-1.2,1.7H328.6z"/>
		<path class="st10" d="M329.9,41.6v-0.3l1.4-0.1v1c0.3-0.6,0.7-1,1.5-1c0.6,0,0.9,0.2,1,0.4c0.3,0.4,0.3,0.7,0.3,1.5V45
			c0,0.3,0.3,0.3,0.8,0.3v0.3c-0.3,0-0.9,0-1.1,0c-0.3,0-0.8,0-1.1,0v-0.3c0.7,0,0.8,0,0.8-0.4v-2.3c0-0.6-0.1-1.1-0.7-1.1
			c-0.6,0-1.3,0.6-1.3,1.6v1.8c0,0.4,0.1,0.4,0.8,0.4v0.3c-0.3,0-0.9,0-1.1,0c-0.3,0-0.8,0-1.1,0v-0.3c0.7,0,0.8,0,0.8-0.4v-2.7
			C330.7,41.7,330.6,41.6,329.9,41.6z"/>
		<path class="st10" d="M337.7,45.5c0.4,0,1-0.1,1.3-1c0-0.1,0-0.1,0.1-0.1c0,0,0.1,0,0.1,0.1s-0.3,1.3-1.7,1.3
			c-1.2,0-2.1-1-2.1-2.3c0-1.2,0.9-2.3,2.2-2.3c0.8,0,1.5,0.4,1.5,1.1c0,0.3-0.2,0.5-0.5,0.5c-0.3,0-0.5-0.2-0.5-0.5
			c0-0.1,0.1-0.4,0.5-0.5c-0.3-0.4-1-0.4-1.1-0.4c-0.5,0-1.3,0.4-1.3,2C336.3,45.1,337.2,45.5,337.7,45.5z"/>
		<path class="st10" d="M341,44.8c0.2,0.4,0.6,0.7,1.1,0.7c0.1,0,1,0,1.3-1c0-0.1,0-0.1,0.1-0.1c0,0,0.1,0,0.1,0.1
			c0,0.2-0.4,1.3-1.7,1.3c-1.1,0-2.2-1-2.2-2.3c0-1.2,0.9-2.3,2.1-2.3c1.2,0,1.8,1,1.8,2c0,0.2,0,0.2-0.2,0.2h-2.8
			C340.7,43.7,340.7,44.3,341,44.8z M343.1,43.1c0-0.4-0.1-1.7-1.1-1.7c-0.3,0-1.2,0.2-1.2,1.7H343.1z"/>
	</g>
	<g>
		<path class="st4" d="M135.7,175.8c-0.9,0-1.1,0.6-1.1,0.9c0,0.4,0.4,0.5,0.8,0.6c0.4,0.1,0.7,0.1,1,0.4c0.1,0.1,0.3,0.4,0.3,0.7
			c0,0.4-0.4,1.7-2,1.7c-0.9,0-1.4-0.4-1.4-1c0-0.4,0.3-0.7,0.6-0.7c0.2,0,0.4,0.1,0.4,0.3c0,0.3-0.2,0.6-0.6,0.5
			c0.2,0.5,1,0.5,1.1,0.5c1.2,0,1.4-0.8,1.4-1.1c0-0.5-0.5-0.7-1-0.8c-0.3-0.1-1-0.2-1-1c0-0.4,0.4-1.5,1.7-1.5
			c0.8,0,1.2,0.4,1.2,0.9c0,0.4-0.2,0.6-0.5,0.6s-0.3-0.1-0.3-0.3c0-0.2,0.2-0.4,0.5-0.4C136.5,175.9,136,175.8,135.7,175.8z"/>
	</g>
	<g>
		<path class="st4" d="M141.1,176.7c-0.1,0-0.3,0-0.3-0.2c0-0.2,0.2-0.2,0.3-0.2h6c0.1,0,0.3,0,0.3,0.2c0,0.2-0.2,0.2-0.3,0.2H141.1
			z M141.1,178.7c-0.1,0-0.3,0-0.3-0.2s0.2-0.2,0.3-0.2h5.9c0.1,0,0.3,0,0.3,0.2s-0.2,0.2-0.3,0.2H141.1z"/>
	</g>
	<g>
		<path class="st4" d="M154.2,175.5c0,0.2,0,0.3,0.7,0.3h0.3v0.3c-0.2,0-1,0-1.2,0c-0.3,0-1.1,0-1.2,0v-0.3h0.3
			c0.7,0,0.7-0.1,0.7-0.3v-3.6c-0.4,0.2-0.8,0.2-1,0.2v-0.3c0.3,0,0.9,0,1.4-0.4c0.2,0,0.2,0,0.2,0.2V175.5z"/>
	</g>
	<g>
		<path class="st4" d="M156.8,174.5c-0.1,0-0.3,0-0.3-0.2c0-0.2,0.2-0.2,0.3-0.2h4.2c0.1,0,0.3,0,0.3,0.2c0,0.2-0.2,0.2-0.3,0.2
			H156.8z"/>
	</g>
	<g>
		<path class="st4" d="M163.4,175.4c0.1,0,0.2,0,0.5,0.1c0.2,0,0.3,0.1,0.5,0.1c0.3,0,0.8-0.2,0.9-0.5c0-0.1,0-0.1,0.1-0.1
			c0,0,0.1,0,0.1,0.1c0,0.2-0.5,1.1-1.2,1.1c-0.2,0-0.4-0.1-0.6-0.3c-0.2-0.2-0.3-0.2-0.4-0.2c-0.2,0-0.5,0.2-0.6,0.4
			c0,0.1,0,0.1-0.1,0.1c0,0-0.1,0-0.1-0.1c0-0.1,0.2-0.4,0.6-0.8c0.1-0.1,0.3-0.3,0.9-0.7c0.7-0.5,0.8-0.7,1-0.8
			c-0.2,0-0.2,0-0.6-0.1c-0.1,0-0.3-0.1-0.4-0.1c-0.1,0-0.5,0-0.6,0.3c0,0.1,0,0.1-0.1,0.1c0,0-0.1,0-0.1-0.1c0-0.2,0.4-0.8,0.9-0.8
			c0.2,0,0.3,0,0.6,0.3c0.2,0.2,0.3,0.2,0.4,0.2c0.2,0,0.3-0.1,0.5-0.4c0-0.1,0.1-0.1,0.1-0.1c0,0,0.1,0,0.1,0.1
			c0,0.1-0.3,0.4-0.7,0.9c-0.2,0.2-0.7,0.6-0.9,0.7c-0.6,0.5-0.7,0.6-0.9,0.8C163.2,175.4,163.3,175.4,163.4,175.4z"/>
	</g>
	<g>
		<path class="st4" d="M167.1,171.9c-0.1,0-0.2,0-0.2-0.1c0-0.1,0.1-0.1,0.2-0.1h3.4c0.1,0,0.2,0,0.2,0.1c0,0.1-0.1,0.1-0.2,0.1
			H167.1z"/>
	</g>
	<g>
		<path class="st4" d="M173.5,172.6c0,0.2,0,0.2,0.5,0.2h0.2v0.2c-0.3,0-0.7,0-1,0s-0.7,0-1,0v-0.2h0.2c0.5,0,0.5-0.1,0.5-0.2v-2.5
			c-0.3,0.1-0.6,0.1-0.7,0.1h-0.1V170h0.1c0.1,0,0.7,0,1-0.3c0.2,0,0.2,0,0.2,0.1V172.6z"/>
	</g>
	<polyline points="151.8,177.7 175.5,177.7 175.5,177.2 151.8,177.2 	"/>
	<g>
		<path class="st4" d="M163.2,182.8c0,0.1,0,0.1,0,0.2c0,0.1,0,0.1,0.3,0.1c0.1,0,0.3,0,0.4,0c0.2,0,0.3,0,0.3,0.1
			c0,0.2-0.1,0.2-0.2,0.2c-0.2,0-0.4,0-0.6,0c-0.2,0-0.4,0-0.6,0s-0.4,0-0.6,0s-0.4,0-0.6,0c-0.1,0-0.1-0.1-0.1-0.1
			c0-0.2,0.1-0.2,0.3-0.2c0.7,0,0.8-0.1,0.8-0.3l0.9-3.7c0-0.1,0-0.1,0-0.1c0-0.1,0-0.1-0.2-0.1H163c-1.1,0-1.3,0.1-1.7,1.2
			c0,0.1-0.1,0.2-0.1,0.2c-0.1,0-0.1-0.1-0.1-0.1c0,0,0-0.1,0-0.1l0.4-1.2c0-0.1,0.1-0.1,0.2-0.1h4.3c0.1,0,0.2,0,0.2,0.1l-0.2,1.3
			c0,0.1,0,0.2-0.1,0.2c-0.1,0-0.1,0-0.1-0.1l0-0.1c0-0.4,0-0.5,0-0.6c0-0.3,0-0.5-0.3-0.6c-0.2-0.1-0.4-0.1-0.8-0.1
			c-0.1,0-0.4,0-0.4,0c-0.2,0-0.2,0-0.2,0.2L163.2,182.8z"/>
	</g>
	<g>
		<path class="st4" d="M152.9,162.9c0.5,0.5,1,1.3,1,1.5c0,0.1-0.1,0.1-0.2,0.1c-0.1,0-0.1,0-0.3-0.2c-0.6-1.1-1.6-2-2.9-2.4
			c-0.2-0.1-0.2-0.1-0.2-0.1l0,0c0,0,0,0,0-0.1c0,0,0,0,0-0.1c0,0,0,0,0.2-0.1c0.5-0.1,1.2-0.4,1.9-1c0.6-0.6,0.9-1.1,1.1-1.5
			c0-0.1,0.1-0.1,0.2-0.1c0.1,0,0.2,0,0.2,0.1c0,0.1-0.5,1-1,1.5h5.9c0.2,0,0.3,0,0.3,0.2c0,0.2-0.2,0.2-0.4,0.2h-6.3
			c-0.4,0.3-0.9,0.6-1.3,0.8c0.3,0.1,0.8,0.4,1.3,0.8h6.3c0.2,0,0.4,0,0.4,0.2s-0.2,0.2-0.3,0.2H152.9z"/>
	</g>
</g>
</svg>
