<?xml version="1.0" encoding="utf-8"?>
<!-- Generator: Adobe Illustrator 22.1.0, SVG Export Plug-In . SVG Version: 6.00 Build 0)  -->
<svg version="1.1" id="Layer_1" xmlns="http://www.w3.org/2000/svg" xmlns:xlink="http://www.w3.org/1999/xlink" x="0px" y="0px"
	 viewBox="0 0 239.6 92" style="enable-background:new 0 0 239.6 92;" xml:space="preserve">
<style type="text/css">
	.st0{fill:none;stroke:#000000;stroke-width:0.8504;stroke-miterlimit:10;}
	.st1{fill:none;stroke:#FF0000;stroke-width:0.8504;stroke-miterlimit:10;}
	.st2{fill:#1D1D1B;}
	.st3{fill:#FF0000;}
	.st4{fill:none;stroke:#0000FF;stroke-width:1.7008;stroke-linecap:round;stroke-miterlimit:10;stroke-dasharray:0,4.6873;}
	.st5{fill:#0000FF;}
	.st6{fill:none;stroke:#0000FA;stroke-width:1.7008;stroke-miterlimit:10;}
	.st7{fill:none;stroke:#FF0000;stroke-width:0.8504;stroke-linecap:round;stroke-miterlimit:10;stroke-dasharray:0,3.9621;}
</style>
<g>
	<polyline points="222.2,70.6 226.8,68.4 222.2,66.1 223.4,68.4 	"/>
	<line class="st0" x1="0" y1="68.4" x2="223.4" y2="68.4"/>
	<polyline points="115.7,5.6 113.4,1 111.1,5.6 113.4,4.4 	"/>
	<path class="st0" d="M113.4,71.9V4.4 M7.1,71.9v-7.1 M219.7,71.9v-7.1"/>
	<path class="st1" d="M92.1,68.4c12.4-59.5,21.4-72.3,30.1-42.5l0,0c8.7,29.8,12.4,42.5,12.4,42.5"/>
	<path class="st0" d="M134.6,68.4c7.4-19.8,12.2-24.1,15.9-14.2l0,0c3.7,9.9,5.3,14.2,5.3,14.2 M155.9,68.4
		c7.4-9.9,12.2-12,15.9-7.1l0,0c3.7,5,5.3,7.1,5.3,7.1 M177.2,68.4c16.1,0,29.9,0,46.1,0 M177.2,68.4c7.4-5,12.2-6,15.9-3.5l0,0
		c3.7,2.5,5.3,3.5,5.3,3.5 M198.4,68.4c7.4-2.5,12.2-3,15.9-1.8h0c3.7,1.2,5.3,1.8,5.3,1.8 M70.9,68.4c7.4-19.8,12.2-24.1,15.9-14.2
		h0c3.7,9.9,5.3,14.2,5.3,14.2 M49.6,68.4c7.4-9.9,12.2-12,15.9-7.1l0,0c3.7,5,5.3,7.1,5.3,7.1 M28.3,68.4c7.4-5,12.2-6,15.9-3.5
		l0,0c3.7,2.5,5.3,3.5,5.3,3.5 M7.1,68.4c7.4-2.5,12.2-3,15.9-1.8l0,0c3.7,1.2,5.3,1.8,5.3,1.8"/>
	<g>
		<path class="st2" d="M218.8,79.6c-0.1,0.5-0.1,0.5-0.3,1c-0.1,0.4-0.2,0.6-0.5,0.6c-0.1,0-0.3-0.1-0.3-0.3c0-0.1,0-0.1,0.1-0.2
			c0.4-0.9,1-2.1,1.3-3.3h-0.6c-0.2,0-0.8,0-1.3,0.8c-0.1,0.1-0.1,0.1-0.2,0.1c-0.1,0-0.1-0.1-0.1-0.1c0,0,0.3-0.5,0.6-0.9
			c0.4-0.5,0.8-0.5,1-0.5h3.3c0.2,0,0.4,0,0.4,0.2c0,0.3-0.4,0.3-0.5,0.3h-1.1c-0.1,0.5-0.2,1.1-0.2,1.6c0,0.3,0,0.9,0.3,1.6
			c0.1,0.1,0.1,0.2,0.1,0.2c0,0.2-0.2,0.4-0.4,0.4c-0.1,0-0.3-0.1-0.4-0.5c-0.1-0.3-0.1-0.6-0.1-0.8c0-0.7,0.1-1.1,0.4-2.6h-1.1
			L218.8,79.6z"/>
	</g>
	<g>
		<path class="st2" d="M1.4,79.2c-0.2,0-0.3,0-0.3-0.2s0.2-0.2,0.3-0.2h5.4c0.2,0,0.3,0,0.3,0.2S7,79.2,6.8,79.2H1.4z"/>
	</g>
	<g>
		<path class="st2" d="M10.1,80c-0.1,0.5-0.1,0.5-0.3,1c-0.1,0.4-0.2,0.6-0.5,0.6c-0.1,0-0.3-0.1-0.3-0.3c0-0.1,0-0.1,0.1-0.2
			c0.4-0.9,1-2.1,1.3-3.3H9.8c-0.2,0-0.8,0-1.3,0.8c-0.1,0.1-0.1,0.1-0.2,0.1c-0.1,0-0.1-0.1-0.1-0.1c0,0,0.3-0.5,0.6-0.9
			c0.4-0.5,0.8-0.5,1-0.5h3.3c0.2,0,0.4,0,0.4,0.2c0,0.3-0.4,0.3-0.5,0.3h-1.1c-0.1,0.5-0.2,1.1-0.2,1.6c0,0.3,0,0.9,0.3,1.6
			c0.1,0.1,0.1,0.2,0.1,0.2c0,0.2-0.2,0.4-0.4,0.4c-0.1,0-0.3-0.1-0.4-0.5c-0.1-0.3-0.1-0.6-0.1-0.8c0-0.7,0.1-1.1,0.4-2.6h-1.1
			L10.1,80z"/>
	</g>
	<g>
		<path class="st2" d="M121.8,14.1c0,0.2,0,0.4-0.2,0.4s-0.2-0.2-0.2-0.4V4.9c0-0.2,0-0.4,0.2-0.4s0.2,0.2,0.2,0.4V14.1z"/>
	</g>
	<g>
		<path class="st2" d="M128.9,12c0,0.1-0.1,0.2-0.2,0.2c-0.1,0-0.1,0-0.2-0.3l-0.4-5l-2.9,5.1c-0.1,0.1-0.1,0.2-0.2,0.2
			c-0.1,0-0.1-0.1-0.2-0.3l-0.4-6.1c0-0.3,0-0.4-0.5-0.4c-0.2,0-0.2,0-0.2-0.1c0-0.2,0.1-0.2,0.2-0.2c0.3,0,0.7,0,1,0
			c0.4,0,0.8,0,1.2,0c0,0,0.1,0,0.1,0.1c0,0.2-0.1,0.2-0.2,0.2c-0.8,0-0.8,0.2-0.8,0.4l0.4,5.1l2.5-4.4L128,5.7
			c0-0.2-0.1-0.2-0.5-0.2c-0.1,0-0.2,0-0.2-0.1c0-0.2,0.1-0.2,0.2-0.2c0.2,0,0.8,0,1,0c0.4,0,0.8,0,1.2,0c0,0,0.2,0,0.2,0.1
			c0,0.2-0.1,0.2-0.3,0.2c-0.7,0-0.7,0.3-0.7,0.5l0.4,4.9l2.7-4.7c0.1-0.1,0.1-0.2,0.1-0.3c0-0.3-0.3-0.4-0.6-0.4
			c-0.1,0-0.1,0-0.1-0.1c0-0.2,0.1-0.2,0.2-0.2c0.3,0,0.7,0,1,0c0.2,0,0.5,0,0.8,0c0.1,0,0.1,0.1,0.1,0.1c0,0.2-0.1,0.2-0.2,0.2
			c-0.6,0-0.9,0.4-1.1,0.8L128.9,12z"/>
	</g>
	<g>
		<path class="st2" d="M137,14.5c-0.1,0-1-0.6-1.6-1.9c-0.5-1.1-0.7-2.3-0.7-3.1c0-0.8,0.1-1.9,0.6-3c0.6-1.3,1.5-1.9,1.6-1.9
			c0.1,0,0.1,0,0.1,0.1c0,0,0,0-0.1,0.2c-1.2,1.2-1.6,3-1.6,4.7c0,1.5,0.3,3.4,1.6,4.7C137.1,14.3,137.1,14.3,137,14.5
			C137.1,14.4,137,14.5,137,14.5z"/>
		<path class="st2" d="M139,11.2c0.2,0.4,0.6,0.7,1.1,0.7c0.1,0,1,0,1.3-1c0-0.1,0-0.1,0.1-0.1c0,0,0.1,0,0.1,0.1
			c0,0.2-0.4,1.3-1.7,1.3c-1.1,0-2.2-1-2.2-2.3c0-1.2,0.9-2.3,2.1-2.3c1.2,0,1.8,1,1.8,2c0,0.2,0,0.2-0.2,0.2h-2.8
			C138.7,10,138.7,10.7,139,11.2z M141.1,9.5c0-0.4-0.1-1.7-1.1-1.7c-0.3,0-1.2,0.2-1.2,1.7H141.1z"/>
	</g>
	<g>
		<path class="st2" d="M144.2,8.9c0,0.9-0.6,1.5-1.4,1.5c-0.6,0-1.1-0.3-1.1-0.8c0-0.3,0.2-0.5,0.5-0.5c0.3,0,0.5,0.2,0.5,0.5
			c0,0.3-0.2,0.4-0.3,0.4c0.3,0.1,0.5,0.1,0.5,0.1c0.6,0,0.7-0.9,0.7-1.3V5c0-0.5-0.1-0.6-0.9-0.6V4.1l1.5-0.1V8.9z M143.6,2.8
			c-0.3,0-0.5-0.2-0.5-0.5s0.2-0.5,0.5-0.5s0.5,0.2,0.5,0.5S143.9,2.8,143.6,2.8z"/>
	</g>
	<g>
		<path class="st2" d="M146.5,8.5c-0.6,0-1-0.7-1-1.5c0-1.6,1.1-3.5,2.2-3.5c0.7,0,1,0.8,1,1.5C148.6,6.5,147.5,8.5,146.5,8.5z
			 M146.2,6.1c-0.1,0.3-0.2,0.8-0.2,1.3c0,0.4,0.1,0.9,0.4,0.9c0.3,0,0.6-0.3,0.8-0.7c0.2-0.3,0.4-0.7,0.6-1.5H146.2z M147.9,5.8
			c0.1-0.6,0.2-1,0.2-1.3c0-0.1,0-0.9-0.4-0.9c-0.4,0-1,0.7-1.4,2.2H147.9z"/>
	</g>
	<g>
		<path class="st2" d="M151.9,12.5c-0.6,1.3-1.5,1.9-1.6,1.9c-0.1,0-0.1,0-0.1-0.1c0,0,0-0.1,0.1-0.2c1.2-1.3,1.6-3,1.6-4.7
			c0-2.1-0.6-3.7-1.5-4.7c-0.2-0.2-0.2-0.2-0.2-0.2c0-0.1,0-0.1,0.1-0.1c0.1,0,1,0.6,1.6,1.9c0.5,1.1,0.7,2.3,0.7,3.1
			C152.5,10.3,152.4,11.4,151.9,12.5z"/>
	</g>
	<g>
		<path class="st2" d="M155.1,14.1c0,0.2,0,0.4-0.2,0.4s-0.2-0.2-0.2-0.4V4.9c0-0.2,0-0.4,0.2-0.4s0.2,0.2,0.2,0.4V14.1z"/>
	</g>
	<g>
		<path class="st3" d="M117.1,89.3c0,0.1,0,0.1,0,0.1c0,0.1-0.1,0.1-0.2,0.1H110c-0.2,0-0.2,0-0.2-0.1c0,0,0,0,0-0.1l3.4-6.8
			c0.1-0.1,0.1-0.2,0.3-0.2s0.2,0,0.3,0.2L117.1,89.3z M110.5,88.7h5.4l-2.7-5.4L110.5,88.7z"/>
	</g>
	<line class="st4" x1="81.5" y1="48.9" x2="148.8" y2="48.9"/>
	<g>
		<path class="st2" d="M236.6,72c-0.9,0-1.2-1.1-1.2-2c0-2.3,1.5-5.1,2.9-5.1c1,0,1.2,1.4,1.2,2C239.5,69.1,238,72,236.6,72z
			 M236.3,68.6c-0.3,1-0.3,1.6-0.3,2c0,0.9,0.2,1.2,0.5,1.2c0.4,0,0.8-0.5,1.2-1.2c0.4-0.7,0.6-1.6,0.7-2H236.3z M238.5,68.2
			c0.2-1,0.3-1.5,0.3-2c0-0.6-0.1-1.2-0.5-1.2c-0.4,0-0.8,0.6-1.1,1c-0.4,0.7-0.6,1.5-0.8,2.1H238.5z"/>
	</g>
	<g>
		<path class="st5" d="M161,43.5c0.1-0.1,0.1-0.2,0.3-0.2c0.2,0,0.2,0,0.2,0.2l0.6,6.2c0,0.3,0,0.4,0.6,0.4c0.1,0,0.2,0,0.2,0.1
			c0,0.2-0.1,0.2-0.2,0.2c-0.2,0-0.9,0-1.1,0c-0.4,0-0.8,0-1.2,0c0,0-0.1,0-0.1-0.1c0-0.2,0.1-0.2,0.2-0.2c0.2,0,0.7,0,0.7-0.3
			c0-0.1-0.1-1.5-0.2-1.7h-2.5l-0.8,1.3c-0.1,0.1-0.1,0.2-0.1,0.4c0,0.2,0.2,0.3,0.5,0.3c0.1,0,0.2,0,0.2,0.1c0,0.2-0.1,0.2-0.2,0.2
			c-0.3,0-0.7,0-1,0c-0.3,0-0.6,0-0.9,0c-0.1,0-0.1,0-0.1-0.1c0-0.2,0.1-0.2,0.2-0.2c0.4,0,0.8-0.2,1.2-0.8L161,43.5z M161,47.9
			l-0.3-3.3l-2,3.3H161z"/>
	</g>
	<line class="st6" x1="109.8" y1="48.9" x2="116.9" y2="48.9"/>
	<polyline points="103.7,37.7 99.2,40 103.7,42.3 102.6,40 	"/>
	<polyline points="123,42.3 127.6,40 123,37.7 124.2,40 	"/>
	<line class="st0" x1="102.6" y1="40" x2="124.2" y2="40"/>
	<path class="st1" d="M92.1,75.4v7.1 M134.6,75.4v7.1"/>
	<polyline class="st3" points="96.7,76.7 92.1,79 96.7,81.3 95.5,79 	"/>
	<polyline class="st3" points="130.1,81.3 134.6,79 130.1,76.7 131.2,79 	"/>
	<line class="st1" x1="95.5" y1="79" x2="131.2" y2="79"/>
	<line class="st7" x1="116.9" y1="40" x2="134.6" y2="29.4"/>
	<g>
		<path class="st2" d="M140.4,27.3c0,0.1,0,0.1,0,0.1c0,0.1-0.1,0.1-0.2,0.1h-6.9c-0.2,0-0.2,0-0.2-0.1c0,0,0,0,0-0.1l3.4-6.8
			c0.1-0.1,0.1-0.2,0.3-0.2c0.2,0,0.2,0,0.3,0.2L140.4,27.3z M133.7,26.7h5.4l-2.7-5.4L133.7,26.7z"/>
	</g>
	<g>
		<path class="st2" d="M142.4,28.6c-0.1,0-0.2,0-0.2-0.1c0-0.1,0.1-0.1,0.1-0.1c0,0,0,0,0.2,0c0.3,0,0.5,0,0.8-0.3
			c0.2-0.2,0.3-0.5,0.3-0.8c0-0.6-0.4-0.8-0.8-0.8c-0.3,0-0.7,0.1-1,0.4c0.2,0,0.4,0.2,0.4,0.4c0,0.2-0.1,0.4-0.4,0.4
			c-0.2,0-0.4-0.1-0.4-0.4c0-0.6,0.6-0.9,1.4-0.9c0.8,0,1.4,0.4,1.4,1c0,0.4-0.3,0.9-1,1.2c0.8,0.2,1.2,0.7,1.2,1.2
			c0,0.7-0.7,1.3-1.6,1.3c-0.8,0-1.6-0.4-1.6-1.1c0-0.3,0.2-0.4,0.4-0.4c0.2,0,0.4,0.2,0.4,0.4c0,0.1-0.1,0.4-0.4,0.4
			c0.3,0.4,0.9,0.5,1.2,0.5c0.4,0,0.9-0.3,0.9-1.1c0-0.7-0.4-1.1-0.9-1.1H142.4z"/>
	</g>
	<g>
		<path class="st2" d="M147.3,31.1c-1.1,0-2.1-1-2.1-2.3c0-1.3,1-2.3,2.2-2.3c0.5,0,1,0.3,1.3,0.6V25c0-0.5-0.1-0.6-0.8-0.6v-0.3
			l1.4-0.1v6c0,0.5,0.1,0.6,0.8,0.6v0.3l-1.5,0.1v-0.7C148.4,30.7,147.9,31.1,147.3,31.1z M148.5,27.4c-0.3-0.4-0.7-0.6-1.1-0.6
			c-0.5,0-0.9,0.3-1.1,0.6c-0.3,0.4-0.3,1-0.3,1.4c0,0.4,0,1,0.3,1.4c0.2,0.4,0.6,0.6,1,0.6c0.4,0,0.9-0.2,1.2-0.7
			c0.1-0.2,0.1-0.2,0.1-0.4v-2C148.6,27.5,148.6,27.5,148.5,27.4z"/>
		<path class="st2" d="M156.8,29.1c0,0.9-0.9,1.8-2.2,1.8h-3.9v-0.3h0.2c0.8,0,0.8-0.1,0.8-0.5v-5.3c0-0.4,0-0.5-0.8-0.5h-0.2v-0.3
			h3.6c1.3,0,2.2,0.8,2.2,1.7c0,0.7-0.7,1.4-1.7,1.6C156,27.5,156.8,28.3,156.8,29.1z M154,27.3c1.1,0,1.6-0.8,1.6-1.5
			c0-0.5-0.3-1.4-1.3-1.4H153c-0.5,0-0.5,0.1-0.5,0.4v2.5H154z M155.8,29.1c0-0.7-0.4-1.6-1.4-1.6h-1.9v2.7c0,0.3,0,0.4,0.5,0.4h1.2
			C155.3,30.6,155.8,29.8,155.8,29.1z"/>
	</g>
</g>
</svg>
