<svg id="Layer_1" data-name="Layer 1" xmlns="http://www.w3.org/2000/svg" viewBox="0 0 327.326 99.046">
  <defs>
    <style>
      .cls-1 {
        fill: #1d1d1b;
      }

      .cls-2 {
        fill: none;
        stroke: #000;
        stroke-miterlimit: 10;
        stroke-width: 0.85px;
      }
    </style>
  </defs>
  <title>basicbuildingblocks</title>
  <g>
    <g>
      <path class="cls-1" d="M781.981,335.765c0-.269,0-.738-1.026-.738v-.308c.359.01.837.03,1.186.03s.817-.02,1.175-.03v.308c-1.025,0-1.025.449-1.025.778v3.188a3.91,3.91,0,0,1-.03.688,2.319,2.319,0,0,1-2.212,2.062,2.5,2.5,0,0,1-2.511-2.491V335.5c0-.359-.02-.469-.787-.469h-.239v-.308c.348.03,1.1.03,1.474.03s1.117,0,1.465-.03v.308h-.239c-.768,0-.787.11-.787.469v3.8c0,1.893,1.176,2.142,1.643,2.142a2.027,2.027,0,0,0,1.913-2.212Z" transform="translate(-519.081 -334.609)"/>
      <path class="cls-1" d="M783.983,337.539v-.31l1.406-.109v1.046a1.57,1.57,0,0,1,1.474-1.046,1.331,1.331,0,0,1,1.047.368c.309.359.309.668.309,1.525v1.9c.01.3.259.3.777.3v.309c-.339-.01-.857-.03-1.116-.03s-.777.02-1.126.03v-.309c.668,0,.777,0,.777-.448v-2.322c0-.568-.109-1.106-.737-1.106a1.456,1.456,0,0,0-1.346,1.594v1.834c0,.448.111.448.778.448v.309c-.339-.01-.857-.03-1.117-.03s-.776.02-1.126.03v-.309c.668,0,.778,0,.778-.448V338.1C784.761,337.608,784.682,337.539,783.983,337.539Z" transform="translate(-519.081 -334.609)"/>
      <path class="cls-1" d="M790.968,340.777c0,.388.04.438.7.438v.309c-.339-.01-.687-.03-1.036-.03-.239,0-.777.02-1.1.03v-.309c.667,0,.778,0,.778-.448v-2.681c0-.488-.09-.547-.738-.547v-.31l1.395-.109Zm-.489-4.863a.532.532,0,0,1-.528-.528.538.538,0,0,1,.528-.528.528.528,0,1,1,0,1.056Z" transform="translate(-519.081 -334.609)"/>
      <path class="cls-1" d="M793.7,340.308c0,.17,0,1.076.668,1.076.368,0,.667-.378.667-1.115v-.549h.249v.569c0,.637-.278,1.344-.986,1.344a1.2,1.2,0,0,1-1.285-1.344v-2.75h-.847v-.22c.977-.04,1.275-1.106,1.285-1.923h.249v1.833h1.425v.31H793.7Z" transform="translate(-519.081 -334.609)"/>
      <path class="cls-1" d="M795.958,339.661v-.578H798.6v.578Z" transform="translate(-519.081 -334.609)"/>
      <path class="cls-1" d="M803.171,334.719a3.27,3.27,0,0,1,3.05,3.457,3.2,3.2,0,0,1-3.05,3.348h-3.647v-.309h.24c.767,0,.787-.11.787-.468V335.5c0-.359-.02-.469-.787-.469h-.24v-.308Zm-.269,6.5a2.185,2.185,0,0,0,1.774-.847,3.422,3.422,0,0,0,.548-2.192,3.858,3.858,0,0,0-.518-2.222,2.151,2.151,0,0,0-1.813-.927h-1c-.468,0-.489.07-.489.4v5.39c0,.33.021.4.489.4Z" transform="translate(-519.081 -334.609)"/>
      <path class="cls-1" d="M808.192,340.717a1.341,1.341,0,0,0,1.126.667,1.4,1.4,0,0,0,1.345-1.026c.02-.08.04-.139.13-.139a.115.115,0,0,1,.129.119,1.7,1.7,0,0,1-1.664,1.295,2.249,2.249,0,0,1-2.192-2.3,2.177,2.177,0,0,1,2.073-2.272,1.767,1.767,0,0,1,1.783,1.953c0,.209-.029.209-.249.209h-2.779A2.91,2.91,0,0,0,808.192,340.717Zm2.073-1.7c0-.388-.1-1.734-1.126-1.734-.339,0-1.176.249-1.236,1.734Z" transform="translate(-519.081 -334.609)"/>
      <path class="cls-1" d="M812.984,340.767c0,.448.11.448.778.448v.309c-.369-.01-.858-.03-1.107-.03s-.777.02-1.105.03v-.309c.667,0,.777,0,.777-.448v-5.182c0-.488-.08-.558-.777-.558v-.308l1.434-.11Z" transform="translate(-519.081 -334.609)"/>
    </g>
    <g>
      <path class="cls-1" d="M815.875,341.633c-.628,0-1.594-.249-1.594-1.056a1.452,1.452,0,0,1,1-1.3,4.854,4.854,0,0,1,1.833-.359v-.368a1.128,1.128,0,0,0-1.055-1.276,1.4,1.4,0,0,0-1.076.459c.458.01.507.338.507.458a.459.459,0,1,1-.917-.01c0-.658.688-1.126,1.5-1.126a1.9,1.9,0,0,1,1.365.548,1.473,1.473,0,0,1,.359,1.176v1.993c0,.05.04.5.369.5.109,0,.358-.06.358-.638v-.558h.249v.558a.845.845,0,0,1-.817.946.832.832,0,0,1-.776-.816A1.38,1.38,0,0,1,815.875,341.633Zm-.827-1.066a.858.858,0,0,0,.9.848,1.2,1.2,0,0,0,1.166-1.286v-1C815.467,339.192,815.048,340.02,815.048,340.567Z" transform="translate(-519.081 -334.609)"/>
      <path class="cls-1" d="M821.046,342.431c-.239.568-.649,1.135-1.275,1.135a.869.869,0,0,1-.917-.807.418.418,0,1,1,.448.409.68.68,0,0,0,.469.179c.637,0,.916-.687,1.135-1.235.06-.13.2-.459.249-.588l-1.5-3.637c-.139-.348-.328-.348-.806-.348v-.31c.3.021.7.03.966.03.169,0,.826-.02,1.086-.03v.31c-.189,0-.558,0-.558.258a.589.589,0,0,0,.06.18l1.106,2.68,1.007-2.451a.478.478,0,0,0,.059-.239c0-.249-.159-.419-.469-.428v-.31c.22.01.688.03.868.03.229,0,.518-.009.747-.03v.31a.938.938,0,0,0-.927.637Z" transform="translate(-519.081 -334.609)"/>
    </g>
    <polyline points="257.104 10.395 304.864 10.395 304.864 9.915 257.104 9.915"/>
    <path class="cls-1" d="M771.912,431.174a2.627,2.627,0,0,1-2.331,2.033.943.943,0,0,1-1.057-.867.576.576,0,0,1,.559-.648.339.339,0,0,1,.368.349.538.538,0,0,1-.2.408.569.569,0,0,1-.429.12.8.8,0,0,0,.758.418,1.427,1.427,0,0,0,1.1-.628,3.812,3.812,0,0,0,.647-1.534,1.4,1.4,0,0,1-1.006.448,1.11,1.11,0,0,1-1.215-1.185,6.572,6.572,0,0,1,.578-2.093,2.117,2.117,0,0,0,.169-.7c0-.319-.169-.319-.249-.319-.339,0-.738.3-1.006,1.236-.05.159-.061.18-.16.18-.02,0-.12,0-.12-.1s.369-1.535,1.316-1.535a.79.79,0,0,1,.816.817,1.792,1.792,0,0,1-.2.718,5.929,5.929,0,0,0-.508,1.952c0,.369.11.808.618.808a1.382,1.382,0,0,0,1.125-.848l.45-1.793c.059-.269.129-.538.2-.8.039-.179.119-.488.139-.538a.435.435,0,0,1,.349-.21.267.267,0,0,1,.289.27.625.625,0,0,1-.04.229Z" transform="translate(-519.081 -334.609)"/>
    <path class="cls-1" d="M774.483,433.655v-9.964h1.366v.4h-.967v9.167h.967v.4Z" transform="translate(-519.081 -334.609)"/>
    <path class="cls-1" d="M777.521,428.274a3.269,3.269,0,0,0,.159-.836c0-.33-.11-.459-.309-.459-.359,0-.558.478-.727,1.186-.06.219-.071.23-.17.23-.02,0-.12,0-.12-.1a5.058,5.058,0,0,1,.3-.967.869.869,0,0,1,.747-.568.9.9,0,0,1,.917.867,1.924,1.924,0,0,1,1.555-.867,1.018,1.018,0,0,1,1.146,1.066,8.989,8.989,0,0,1-.608,2.193,1.888,1.888,0,0,0-.18.707c0,.229.07.329.24.329.488,0,.816-.559,1.015-1.236.051-.149.051-.179.151-.179.029,0,.119,0,.119.1,0,.08-.369,1.534-1.306,1.534a.8.8,0,0,1-.816-.816,1.148,1.148,0,0,1,.1-.459,9.454,9.454,0,0,0,.648-2.321c0-.329-.09-.7-.538-.7a1.984,1.984,0,0,0-1.624,1.215c-.01.04-.09.329-.13.5-.05.229-.109.449-.169.667l-.22.9c-.059.249-.178.717-.189.737a.406.406,0,0,1-.368.278.266.266,0,0,1-.289-.268c0-.05.059-.279.089-.429Z" transform="translate(-519.081 -334.609)"/>
    <g>
      <path class="cls-1" d="M783.649,433.655h-1.365v-.4h.967V424.09h-.967v-.4h1.365Z" transform="translate(-519.081 -334.609)"/>
      <path class="cls-1" d="M788.361,427.906c-.149,0-.339,0-.339-.2s.19-.2.33-.2h5.968c.14,0,.328,0,.328.2s-.188.2-.337.2Zm-.009,1.933c-.14,0-.33,0-.33-.2s.19-.2.339-.2h5.95c.149,0,.337,0,.337.2s-.188.2-.328.2Z" transform="translate(-519.081 -334.609)"/>
    </g>
    <path class="cls-1" d="M801.008,429.52a3.871,3.871,0,0,0-.17.876c0,.339.16.659.549.659.318,0,1-.24,1.325-1.306.019-.069.039-.109.129-.109.03,0,.12,0,.12.1,0,.249-.568,1.534-1.6,1.534a1.1,1.1,0,0,1-1.076-.756,1.324,1.324,0,0,1-1.046.756c-.438,0-.936-.2-.936-.657a.566.566,0,0,1,.547-.578.342.342,0,0,1,.37.349.565.565,0,0,1-.469.538.954.954,0,0,0,.5.13c.438,0,.787-.419.946-1.036a14.472,14.472,0,0,0,.538-2.373c0-.577-.348-.667-.538-.667-.338,0-1,.25-1.335,1.305-.019.09-.05.111-.129.111-.02,0-.12,0-.12-.1,0-.25.569-1.535,1.605-1.535a1.1,1.1,0,0,1,1.076.758,1.286,1.286,0,0,1,1.046-.758c.339,0,.927.139.927.658a.556.556,0,0,1-.539.577.347.347,0,0,1-.378-.349.579.579,0,0,1,.478-.538.98.98,0,0,0-.5-.129c-.7,0-.927.917-.986,1.176Z" transform="translate(-519.081 -334.609)"/>
    <path class="cls-1" d="M804.835,433.655v-9.964H806.2v.4h-.967v9.167h.967v.4Z" transform="translate(-519.081 -334.609)"/>
    <path class="cls-1" d="M807.872,428.274a3.222,3.222,0,0,0,.159-.836c0-.33-.109-.459-.308-.459-.36,0-.559.478-.728,1.186-.059.219-.07.23-.17.23-.019,0-.119,0-.119-.1a5.058,5.058,0,0,1,.3-.967.868.868,0,0,1,.747-.568.9.9,0,0,1,.917.867,1.922,1.922,0,0,1,1.555-.867,1.018,1.018,0,0,1,1.145,1.066,9.032,9.032,0,0,1-.607,2.193,1.888,1.888,0,0,0-.18.707c0,.229.069.329.239.329.489,0,.817-.559,1.016-1.236.051-.149.051-.179.15-.179.03,0,.119,0,.119.1,0,.08-.369,1.534-1.3,1.534a.8.8,0,0,1-.817-.816,1.136,1.136,0,0,1,.1-.459,9.5,9.5,0,0,0,.647-2.321c0-.329-.089-.7-.538-.7a1.985,1.985,0,0,0-1.624,1.215c-.009.04-.09.329-.13.5-.049.229-.109.449-.168.667l-.22.9c-.06.249-.179.717-.19.737a.405.405,0,0,1-.368.278.266.266,0,0,1-.289-.268c0-.05.06-.279.09-.429Z" transform="translate(-519.081 -334.609)"/>
    <path class="cls-1" d="M815.874,428.872c-.169,0-.349,0-.349-.2s.18-.2.349-.2h5.391c.169,0,.348,0,.348.2s-.179.2-.348.2Z" transform="translate(-519.081 -334.609)"/>
    <g>
      <path class="cls-1" d="M827.589,430.377c0,.368.029.478.927.478h.318v.309c-.349-.03-1.216-.03-1.614-.03s-1.266,0-1.615.03v-.309h.32c.9,0,.927-.12.927-.478v-5.161a2.99,2.99,0,0,1-1.306.259v-.309a2.46,2.46,0,0,0,1.813-.638c.23,0,.23.02.23.259Z" transform="translate(-519.081 -334.609)"/>
      <path class="cls-1" d="M831.284,433.655h-1.365v-.4h.967V424.09h-.967v-.4h1.365Z" transform="translate(-519.081 -334.609)"/>
    </g>
    <path class="cls-2" d="M679.882,385.924a7.257,7.257,0,1,0-7.257,7.257,7.259,7.259,0,0,0,7.257-7.257Zm-10.839.194h7.087m-3.543,3.543v-7.086" transform="translate(-519.081 -334.609)"/>
    <polyline points="155.773 63.131 153.505 58.596 151.238 63.131 153.505 61.997"/>
    <line class="cls-2" x1="153.505" y1="72.769" x2="153.505" y2="61.997"/>
    <polyline points="151.238 39.717 153.505 44.252 155.773 39.717 153.505 40.851"/>
    <line class="cls-2" x1="153.505" y1="30.079" x2="153.505" y2="40.851"/>
    <polyline points="170.23 53.607 174.765 51.339 170.23 49.071 171.364 51.339"/>
    <line class="cls-2" x1="160.592" y1="51.339" x2="171.364" y2="51.339"/>
    <path class="cls-1" d="M664.813,358.6a3.858,3.858,0,0,0-.17.877c0,.338.159.657.548.657.319,0,1-.239,1.325-1.305.02-.07.04-.11.13-.11.03,0,.12,0,.12.1,0,.249-.569,1.534-1.595,1.534a1.1,1.1,0,0,1-1.076-.757,1.323,1.323,0,0,1-1.046.757c-.439,0-.937-.2-.937-.657a.566.566,0,0,1,.548-.578.341.341,0,0,1,.369.348.563.563,0,0,1-.468.538.954.954,0,0,0,.5.13c.438,0,.787-.419.946-1.036a14.494,14.494,0,0,0,.538-2.371c0-.579-.348-.668-.538-.668-.338,0-1,.249-1.335,1.305-.02.09-.05.11-.129.11-.02,0-.12,0-.12-.1,0-.249.568-1.535,1.6-1.535a1.1,1.1,0,0,1,1.077.758,1.288,1.288,0,0,1,1.045-.758c.339,0,.927.14.927.658a.556.556,0,0,1-.538.578.347.347,0,0,1-.378-.348.577.577,0,0,1,.478-.538.974.974,0,0,0-.5-.13c-.7,0-.927.917-.987,1.175Z" transform="translate(-519.081 -334.609)"/>
    <path class="cls-1" d="M669.8,361.108c0,.23,0,.321.7.321h.265v.251c-.153-.007-1.032-.028-1.248-.028-.258,0-1.116.021-1.241.028v-.251h.265c.7,0,.7-.091.7-.321v-3.556a2.3,2.3,0,0,1-1.011.195V357.5a1.9,1.9,0,0,0,1.367-.446c.195,0,.209.007.209.195Z" transform="translate(-519.081 -334.609)"/>
    <path class="cls-1" d="M673.085,362.734V352.77h1.365v.4h-.967v9.167h.967v.4Z" transform="translate(-519.081 -334.609)"/>
    <path class="cls-1" d="M676.122,357.353a3.22,3.22,0,0,0,.159-.837c0-.328-.11-.458-.309-.458-.358,0-.558.478-.727,1.186-.06.219-.07.229-.169.229-.02,0-.12,0-.12-.1a4.96,4.96,0,0,1,.3-.966.869.869,0,0,1,.747-.569.9.9,0,0,1,.917.868,1.924,1.924,0,0,1,1.554-.868,1.019,1.019,0,0,1,1.146,1.067,8.937,8.937,0,0,1-.608,2.192,1.892,1.892,0,0,0-.179.707c0,.229.07.329.239.329.488,0,.817-.558,1.016-1.236.05-.149.05-.179.15-.179.03,0,.119,0,.119.1,0,.079-.368,1.534-1.3,1.534a.8.8,0,0,1-.817-.817,1.132,1.132,0,0,1,.1-.458,9.519,9.519,0,0,0,.647-2.322c0-.329-.089-.7-.538-.7a1.983,1.983,0,0,0-1.624,1.215c-.01.04-.09.329-.13.5-.049.23-.109.449-.168.668l-.22.9c-.06.249-.179.717-.189.737a.408.408,0,0,1-.369.279.266.266,0,0,1-.289-.269c0-.05.06-.279.09-.428Z" transform="translate(-519.081 -334.609)"/>
    <path class="cls-1" d="M682.251,362.734h-1.365v-.4h.967v-9.167h-.967v-.4h1.365Z" transform="translate(-519.081 -334.609)"/>
    <path class="cls-1" d="M664.813,415.238a3.877,3.877,0,0,0-.17.877c0,.339.159.658.548.658.319,0,1-.239,1.325-1.305.02-.07.04-.11.13-.11.03,0,.12,0,.12.1,0,.249-.569,1.534-1.595,1.534a1.1,1.1,0,0,1-1.076-.757,1.323,1.323,0,0,1-1.046.757c-.439,0-.937-.2-.937-.657a.566.566,0,0,1,.548-.578.341.341,0,0,1,.369.348.565.565,0,0,1-.468.539.96.96,0,0,0,.5.129c.438,0,.787-.419.946-1.036a14.448,14.448,0,0,0,.538-2.372c0-.577-.348-.667-.538-.667-.338,0-1,.249-1.335,1.305-.02.09-.05.11-.129.11-.02,0-.12,0-.12-.1,0-.25.568-1.535,1.6-1.535a1.1,1.1,0,0,1,1.077.757,1.287,1.287,0,0,1,1.045-.757c.339,0,.927.139.927.658a.555.555,0,0,1-.538.577.347.347,0,0,1-.378-.349.579.579,0,0,1,.478-.538.98.98,0,0,0-.5-.129c-.7,0-.927.916-.987,1.176Z" transform="translate(-519.081 -334.609)"/>
    <path class="cls-1" d="M670.776,418.32H667.9c0-.195,0-.209.07-.271l1.68-1.66a2.122,2.122,0,0,0,.656-1.339,1.044,1.044,0,0,0-1.06-1.109,1.1,1.1,0,0,0-1.018.649c.363,0,.412.244.412.369a.37.37,0,1,1-.74-.021,1.353,1.353,0,0,1,1.451-1.248,1.459,1.459,0,0,1,1.631,1.36,2.017,2.017,0,0,1-1,1.506c-.418.328-.662.523-1.394,1.172h1.282a3.594,3.594,0,0,0,.691-.042,1.6,1.6,0,0,0,.181-.635h.237Z" transform="translate(-519.081 -334.609)"/>
    <path class="cls-1" d="M673.085,419.374V409.41h1.365v.4h-.967v9.167h.967v.4Z" transform="translate(-519.081 -334.609)"/>
    <path class="cls-1" d="M676.122,413.993a3.22,3.22,0,0,0,.159-.837c0-.329-.11-.458-.309-.458-.358,0-.558.478-.727,1.186-.06.219-.07.229-.169.229-.02,0-.12,0-.12-.1a4.983,4.983,0,0,1,.3-.967.868.868,0,0,1,.747-.568.9.9,0,0,1,.917.867,1.923,1.923,0,0,1,1.554-.867,1.018,1.018,0,0,1,1.146,1.066,8.937,8.937,0,0,1-.608,2.192,1.892,1.892,0,0,0-.179.707c0,.23.07.329.239.329.488,0,.817-.558,1.016-1.235.05-.149.05-.18.15-.18.03,0,.119,0,.119.1,0,.08-.368,1.534-1.3,1.534a.8.8,0,0,1-.817-.816,1.13,1.13,0,0,1,.1-.459,9.5,9.5,0,0,0,.647-2.321c0-.33-.089-.7-.538-.7a1.983,1.983,0,0,0-1.624,1.215c-.01.04-.09.329-.13.5-.049.229-.109.448-.168.667l-.22.9c-.06.249-.179.716-.189.737a.407.407,0,0,1-.369.278.267.267,0,0,1-.289-.268c0-.05.06-.28.09-.429Z" transform="translate(-519.081 -334.609)"/>
    <path class="cls-1" d="M682.251,419.374h-1.365v-.4h.967v-9.167h-.967v-.4h1.365Z" transform="translate(-519.081 -334.609)"/>
    <path class="cls-1" d="M700.029,388.572a2.626,2.626,0,0,1-2.331,2.033.942.942,0,0,1-1.056-.867.574.574,0,0,1,.558-.647.339.339,0,0,1,.368.348.538.538,0,0,1-.2.409.568.568,0,0,1-.429.12.807.807,0,0,0,.758.418,1.427,1.427,0,0,0,1.1-.628,3.809,3.809,0,0,0,.647-1.534,1.4,1.4,0,0,1-1,.448,1.111,1.111,0,0,1-1.216-1.186,6.568,6.568,0,0,1,.578-2.092,2.129,2.129,0,0,0,.169-.7c0-.318-.169-.318-.249-.318-.339,0-.738.3-1.006,1.235-.05.159-.061.18-.16.18-.02,0-.119,0-.119-.1s.368-1.535,1.315-1.535a.79.79,0,0,1,.816.818,1.789,1.789,0,0,1-.2.717,5.934,5.934,0,0,0-.508,1.953c0,.369.11.807.619.807a1.382,1.382,0,0,0,1.125-.848l.449-1.792c.059-.27.129-.539.2-.8.039-.18.119-.489.14-.538a.431.431,0,0,1,.348-.21.266.266,0,0,1,.289.269.632.632,0,0,1-.04.23Z" transform="translate(-519.081 -334.609)"/>
    <path class="cls-1" d="M702.6,391.054V381.09h1.365v.4H703v9.166h.967v.4Z" transform="translate(-519.081 -334.609)"/>
    <path class="cls-1" d="M705.638,385.673a3.227,3.227,0,0,0,.159-.837c0-.329-.109-.458-.309-.458-.359,0-.558.477-.727,1.185-.06.219-.071.23-.17.23-.02,0-.119,0-.119-.1a4.96,4.96,0,0,1,.3-.966.869.869,0,0,1,.747-.569.9.9,0,0,1,.917.867,1.924,1.924,0,0,1,1.554-.867,1.019,1.019,0,0,1,1.146,1.067,8.982,8.982,0,0,1-.608,2.192,1.911,1.911,0,0,0-.179.707c0,.23.069.329.239.329.488,0,.816-.558,1.016-1.235.05-.15.05-.18.15-.18.029,0,.119,0,.119.1,0,.08-.369,1.534-1.306,1.534a.8.8,0,0,1-.816-.817,1.136,1.136,0,0,1,.1-.459,9.486,9.486,0,0,0,.647-2.321c0-.329-.09-.7-.538-.7a1.982,1.982,0,0,0-1.624,1.215c-.01.04-.09.329-.13.5-.05.228-.109.448-.169.667l-.22.9c-.059.249-.178.717-.189.738a.405.405,0,0,1-.368.278.266.266,0,0,1-.289-.269c0-.049.059-.279.09-.428Z" transform="translate(-519.081 -334.609)"/>
    <path class="cls-1" d="M711.767,391.054H710.4v-.4h.967v-9.166H710.4v-.4h1.366Z" transform="translate(-519.081 -334.609)"/>
    <g>
      <path class="cls-1" d="M679.347,341.77c.11.329.25.4.847.4h.18v.309c-.419-.02-.877-.03-1.306-.03-.378,0-1.076,0-1.434.03v-.309c.269,0,.826,0,.826-.3a.782.782,0,0,0-.029-.139l-.528-1.525h-2.462l-.458,1.306a.663.663,0,0,0-.02.149c0,.259.249.508.747.508v.309c-.318-.01-.836-.03-1.146-.03-.358,0-.787.02-1.016.03v-.309a1.035,1.035,0,0,0,1.116-.668l2.063-5.958c.05-.139.08-.2.239-.2s.18.07.229.2Zm-3.8-1.874h2.242l-1.126-3.238Z" transform="translate(-519.081 -334.609)"/>
      <path class="cls-1" d="M683.143,342.586a2.192,2.192,0,0,1-2.113-2.251,2.252,2.252,0,0,1,2.222-2.262,1.591,1.591,0,0,1,1.256.618v-2.152c0-.489-.08-.559-.778-.559v-.308l1.435-.11v6.048c0,.489.08.558.777.558v.309l-1.464.109v-.657A1.683,1.683,0,0,1,683.143,342.586Zm1.225-3.7a1.289,1.289,0,0,0-1.076-.6,1.369,1.369,0,0,0-1.126.638,3.428,3.428,0,0,0-.02,2.8,1.24,1.24,0,0,0,1.046.638,1.389,1.389,0,0,0,1.176-.7.477.477,0,0,0,.11-.369v-2.042A.476.476,0,0,0,684.368,338.89Z" transform="translate(-519.081 -334.609)"/>
      <path class="cls-1" d="M688.662,342.586a2.191,2.191,0,0,1-2.112-2.251,2.251,2.251,0,0,1,2.221-2.262,1.59,1.59,0,0,1,1.256.618v-2.152c0-.489-.08-.559-.777-.559v-.308l1.435-.11v6.048c0,.489.08.558.777.558v.309l-1.465.109v-.657A1.681,1.681,0,0,1,688.662,342.586Zm1.226-3.7a1.291,1.291,0,0,0-1.076-.6,1.368,1.368,0,0,0-1.126.638,3.428,3.428,0,0,0-.02,2.8,1.24,1.24,0,0,0,1.046.638,1.389,1.389,0,0,0,1.176-.7A.48.48,0,0,0,690,341.3v-2.042A.479.479,0,0,0,689.888,338.89Z" transform="translate(-519.081 -334.609)"/>
      <path class="cls-1" d="M693.135,341.67a1.338,1.338,0,0,0,1.126.667,1.4,1.4,0,0,0,1.344-1.026c.02-.08.041-.139.13-.139a.115.115,0,0,1,.129.12,1.7,1.7,0,0,1-1.664,1.294,2.249,2.249,0,0,1-2.191-2.3,2.177,2.177,0,0,1,2.072-2.272,1.767,1.767,0,0,1,1.783,1.953c0,.209-.029.209-.249.209h-2.779A2.9,2.9,0,0,0,693.135,341.67Zm2.072-1.7c0-.388-.1-1.734-1.126-1.734-.339,0-1.176.249-1.235,1.734Z" transform="translate(-519.081 -334.609)"/>
    </g>
    <path class="cls-1" d="M699.033,338.073a.68.68,0,0,1,.738.608.419.419,0,0,1-.429.438.413.413,0,0,1-.429-.428.433.433,0,0,1,.23-.389.253.253,0,0,0-.11-.01c-.758,0-1.176.887-1.176,1.874V341.7c0,.359.02.468.757.468h.21v.309c-.4-.03-.867-.03-1.265-.03-.28,0-.747.02-1.136.03v-.309c.667,0,.777,0,.777-.448v-2.671c0-.488-.08-.557-.777-.557v-.309l1.385-.11v1.1A1.4,1.4,0,0,1,699.033,338.073Z" transform="translate(-519.081 -334.609)"/>
    <polyline points="154.144 9.435 181.024 9.435 181.024 8.955 154.144 8.955"/>
    <path class="cls-1" d="M647.951,431.174a2.628,2.628,0,0,1-2.331,2.033.943.943,0,0,1-1.057-.867.576.576,0,0,1,.559-.648.34.34,0,0,1,.368.349.538.538,0,0,1-.2.408.569.569,0,0,1-.429.12.8.8,0,0,0,.758.418,1.427,1.427,0,0,0,1.1-.628,3.812,3.812,0,0,0,.647-1.534,1.405,1.405,0,0,1-1.006.448,1.11,1.11,0,0,1-1.215-1.185,6.59,6.59,0,0,1,.577-2.093,2.092,2.092,0,0,0,.17-.7c0-.319-.17-.319-.249-.319-.339,0-.738.3-1.007,1.236-.05.159-.059.18-.159.18-.02,0-.12,0-.12-.1s.369-1.535,1.315-1.535a.791.791,0,0,1,.818.817,1.81,1.81,0,0,1-.2.718,5.937,5.937,0,0,0-.509,1.952c0,.369.11.808.618.808a1.386,1.386,0,0,0,1.126-.848l.448-1.793c.06-.269.13-.538.2-.8.04-.179.12-.488.14-.538a.435.435,0,0,1,.349-.21.267.267,0,0,1,.289.27.625.625,0,0,1-.04.229Z" transform="translate(-519.081 -334.609)"/>
    <path class="cls-1" d="M650.522,433.655v-9.964h1.366v.4h-.967v9.167h.967v.4Z" transform="translate(-519.081 -334.609)"/>
    <path class="cls-1" d="M653.559,428.274a3.2,3.2,0,0,0,.16-.836c0-.33-.11-.459-.309-.459-.359,0-.558.478-.727,1.186-.06.219-.07.23-.17.23-.02,0-.119,0-.119-.1a5.031,5.031,0,0,1,.3-.967.869.869,0,0,1,.747-.568.9.9,0,0,1,.917.867,1.926,1.926,0,0,1,1.555-.867,1.018,1.018,0,0,1,1.146,1.066,8.989,8.989,0,0,1-.608,2.193,1.887,1.887,0,0,0-.179.707c0,.229.069.329.239.329.488,0,.817-.559,1.016-1.236.05-.149.05-.179.149-.179.03,0,.12,0,.12.1,0,.08-.369,1.534-1.3,1.534a.8.8,0,0,1-.818-.816,1.154,1.154,0,0,1,.1-.459,9.454,9.454,0,0,0,.648-2.321c0-.329-.09-.7-.538-.7a1.982,1.982,0,0,0-1.624,1.215c-.01.04-.09.329-.13.5-.05.229-.109.449-.169.667l-.219.9c-.06.249-.18.717-.19.737a.406.406,0,0,1-.368.278.266.266,0,0,1-.289-.268c0-.05.06-.279.089-.429Z" transform="translate(-519.081 -334.609)"/>
    <g>
      <path class="cls-1" d="M659.689,433.655h-1.365v-.4h.966V424.09h-.966v-.4h1.365Z" transform="translate(-519.081 -334.609)"/>
      <path class="cls-1" d="M664.4,427.906c-.15,0-.338,0-.338-.2s.188-.2.328-.2h5.968c.14,0,.329,0,.329.2s-.189.2-.338.2Zm-.01,1.933c-.14,0-.328,0-.328-.2s.188-.2.338-.2h5.949c.149,0,.338,0,.338.2s-.189.2-.329.2Z" transform="translate(-519.081 -334.609)"/>
    </g>
    <path class="cls-1" d="M677.047,429.52a3.871,3.871,0,0,0-.17.876c0,.339.16.659.548.659.319,0,1-.24,1.325-1.306.021-.069.041-.109.13-.109.03,0,.12,0,.12.1,0,.249-.568,1.534-1.6,1.534a1.1,1.1,0,0,1-1.075-.756,1.328,1.328,0,0,1-1.047.756c-.438,0-.936-.2-.936-.657a.566.566,0,0,1,.548-.578.341.341,0,0,1,.368.349.565.565,0,0,1-.468.538.954.954,0,0,0,.5.13c.438,0,.787-.419.947-1.036a14.591,14.591,0,0,0,.538-2.373c0-.577-.349-.667-.538-.667-.339,0-1,.25-1.335,1.305-.02.09-.051.111-.13.111-.02,0-.12,0-.12-.1,0-.25.569-1.535,1.605-1.535a1.1,1.1,0,0,1,1.076.758,1.288,1.288,0,0,1,1.046-.758c.339,0,.927.139.927.658a.555.555,0,0,1-.538.577.347.347,0,0,1-.379-.349.579.579,0,0,1,.478-.538.98.98,0,0,0-.5-.129c-.7,0-.927.917-.986,1.176Z" transform="translate(-519.081 -334.609)"/>
    <path class="cls-1" d="M682.042,432.029c0,.231,0,.322.7.322h.266v.251c-.154-.007-1.033-.029-1.249-.029-.258,0-1.115.022-1.241.029v-.251h.265c.7,0,.7-.091.7-.322v-3.555a2.3,2.3,0,0,1-1.011.195v-.251a1.909,1.909,0,0,0,1.367-.446c.2,0,.209.007.209.195Z" transform="translate(-519.081 -334.609)"/>
    <path class="cls-1" d="M685.444,433.655v-9.964h1.366v.4h-.967v9.167h.967v.4Z" transform="translate(-519.081 -334.609)"/>
    <path class="cls-1" d="M688.481,428.274a3.241,3.241,0,0,0,.16-.836c0-.33-.11-.459-.309-.459-.359,0-.559.478-.728,1.186-.059.219-.07.23-.169.23-.02,0-.12,0-.12-.1a5.058,5.058,0,0,1,.3-.967.869.869,0,0,1,.747-.568.9.9,0,0,1,.917.867,1.924,1.924,0,0,1,1.555-.867,1.018,1.018,0,0,1,1.146,1.066,8.989,8.989,0,0,1-.608,2.193,1.888,1.888,0,0,0-.18.707c0,.229.07.329.24.329.488,0,.816-.559,1.015-1.236.051-.149.051-.179.151-.179.029,0,.119,0,.119.1,0,.08-.369,1.534-1.306,1.534a.8.8,0,0,1-.816-.816,1.148,1.148,0,0,1,.1-.459,9.454,9.454,0,0,0,.648-2.321c0-.329-.09-.7-.538-.7a1.982,1.982,0,0,0-1.624,1.215c-.01.04-.09.329-.13.5-.05.229-.11.449-.169.667l-.22.9c-.059.249-.179.717-.189.737a.406.406,0,0,1-.368.278.266.266,0,0,1-.29-.268c0-.05.06-.279.09-.429Z" transform="translate(-519.081 -334.609)"/>
    <g>
      <path class="cls-1" d="M694.61,433.655h-1.365v-.4h.967V424.09h-.967v-.4h1.365Z" transform="translate(-519.081 -334.609)"/>
      <path class="cls-1" d="M702.023,431.662c0,.14,0,.329-.2.329s-.2-.189-.2-.329v-2.79h-2.79c-.14,0-.329,0-.329-.2s.189-.2.329-.2h2.79v-2.79c0-.14,0-.329.2-.329s.2.189.2.329v2.79H704.8c.139,0,.328,0,.328.2s-.189.2-.328.2h-2.781Z" transform="translate(-519.081 -334.609)"/>
    </g>
    <path class="cls-1" d="M710.891,429.52a3.871,3.871,0,0,0-.17.876c0,.339.16.659.549.659.318,0,1-.24,1.325-1.306.019-.069.039-.109.129-.109.03,0,.12,0,.12.1,0,.249-.569,1.534-1.6,1.534a1.1,1.1,0,0,1-1.076-.756,1.324,1.324,0,0,1-1.046.756c-.439,0-.937-.2-.937-.657a.566.566,0,0,1,.548-.578.342.342,0,0,1,.369.349.565.565,0,0,1-.468.538.954.954,0,0,0,.5.13c.438,0,.787-.419.946-1.036a14.472,14.472,0,0,0,.538-2.373c0-.577-.349-.667-.538-.667-.338,0-1,.25-1.335,1.305-.019.09-.05.111-.129.111-.02,0-.12,0-.12-.1,0-.25.568-1.535,1.605-1.535a1.1,1.1,0,0,1,1.076.758,1.285,1.285,0,0,1,1.046-.758c.338,0,.926.139.926.658a.555.555,0,0,1-.538.577.348.348,0,0,1-.379-.349.58.58,0,0,1,.479-.538.98.98,0,0,0-.5-.129c-.7,0-.927.917-.987,1.176Z" transform="translate(-519.081 -334.609)"/>
    <path class="cls-1" d="M716.862,432.6h-2.873c0-.2,0-.209.07-.272l1.68-1.66a2.114,2.114,0,0,0,.656-1.339,1.044,1.044,0,0,0-1.06-1.108,1.1,1.1,0,0,0-1.019.648c.364,0,.413.244.413.369a.37.37,0,1,1-.74-.02,1.352,1.352,0,0,1,1.45-1.248,1.459,1.459,0,0,1,1.632,1.359,2.017,2.017,0,0,1-1,1.506c-.419.328-.662.523-1.394,1.172h1.283a3.583,3.583,0,0,0,.69-.042,1.635,1.635,0,0,0,.181-.635h.237Z" transform="translate(-519.081 -334.609)"/>
    <path class="cls-1" d="M719.288,433.655v-9.964h1.365v.4h-.966v9.167h.966v.4Z" transform="translate(-519.081 -334.609)"/>
    <path class="cls-1" d="M722.325,428.274a3.222,3.222,0,0,0,.159-.836c0-.33-.109-.459-.308-.459-.36,0-.559.478-.728,1.186-.059.219-.07.23-.17.23-.019,0-.119,0-.119-.1a5.058,5.058,0,0,1,.3-.967.869.869,0,0,1,.747-.568.9.9,0,0,1,.917.867,1.922,1.922,0,0,1,1.555-.867,1.017,1.017,0,0,1,1.145,1.066,9.032,9.032,0,0,1-.607,2.193,1.888,1.888,0,0,0-.18.707c0,.229.069.329.239.329.489,0,.817-.559,1.016-1.236.051-.149.051-.179.15-.179.03,0,.12,0,.12.1,0,.08-.37,1.534-1.306,1.534a.8.8,0,0,1-.816-.816,1.13,1.13,0,0,1,.1-.459,9.5,9.5,0,0,0,.648-2.321c0-.329-.09-.7-.539-.7a1.985,1.985,0,0,0-1.624,1.215c-.009.04-.089.329-.129.5-.05.229-.11.449-.169.667l-.22.9c-.06.249-.179.717-.19.737a.405.405,0,0,1-.368.278.266.266,0,0,1-.289-.268c0-.05.06-.279.09-.429Z" transform="translate(-519.081 -334.609)"/>
    <path class="cls-1" d="M728.446,433.655h-1.365v-.4h.967V424.09h-.967v-.4h1.365Z" transform="translate(-519.081 -334.609)"/>
    <path class="cls-2" d="M566.482,386.044a7.257,7.257,0,1,0-7.257,7.257,7.259,7.259,0,0,0,7.257-7.257Zm-10.824-3.469,7.087,7.086m-7.087,0,7.087-7.086" transform="translate(-519.081 -334.609)"/>
    <polyline points="28.498 53.777 33.034 51.509 28.498 49.241 29.632 51.509"/>
    <line class="cls-2" x1="18.86" y1="51.509" x2="29.632" y2="51.509"/>
    <polyline points="37.853 39.887 40.12 44.422 42.388 39.887 40.12 41.021"/>
    <line class="cls-2" x1="40.12" y1="30.249" x2="40.12" y2="41.021"/>
    <polyline points="56.845 53.777 61.38 51.509 56.845 49.241 57.978 51.509"/>
    <line class="cls-2" x1="47.207" y1="51.509" x2="57.978" y2="51.509"/>
    <path class="cls-1" d="M560.688,356.237a1.8,1.8,0,0,1,.728,1.485,2.522,2.522,0,0,1-.8,1.833,2.9,2.9,0,0,1-1.923.787,1.3,1.3,0,0,1-1.355-.966l-.7,2.75c-.01.03-.04.05-.12.05s-.129-.06-.12-.1l1.585-6.327a4.255,4.255,0,0,1,1.285-2.123,1.754,1.754,0,0,1,1.206-.418,1.328,1.328,0,0,1,1.355,1.365A2.084,2.084,0,0,1,560.688,356.237Zm-.339-2.8c-1.2,0-1.913,1.583-2.132,2.44l-.638,2.521a1.613,1.613,0,0,0-.05.439,1.141,1.141,0,0,0,1.136,1.285,2.163,2.163,0,0,0,1.625-.9,3.2,3.2,0,0,0,.5-1.714,1.35,1.35,0,0,0-.439-1.126,1.8,1.8,0,0,1-.817.129c-.179,0-.7.03-.687-.249,0-.329.557-.319.767-.319a1.961,1.961,0,0,1,.767.12,2.087,2.087,0,0,0,.9-1.724A.829.829,0,0,0,560.349,353.438Zm-.737,2.739c-.11,0-.468-.02-.488.08a1.21,1.21,0,0,0,.438.04,1.173,1.173,0,0,0,.478-.07A1.044,1.044,0,0,0,559.612,356.177Z" transform="translate(-519.081 -334.609)"/>
    <path class="cls-1" d="M521.781,386.918a3.851,3.851,0,0,0-.169.877c0,.339.159.658.548.658.319,0,1-.239,1.325-1.306.02-.069.04-.109.13-.109.03,0,.119,0,.119.1,0,.249-.568,1.534-1.594,1.534a1.1,1.1,0,0,1-1.076-.757,1.324,1.324,0,0,1-1.046.757c-.439,0-.937-.2-.937-.657a.565.565,0,0,1,.548-.578.342.342,0,0,1,.369.348.565.565,0,0,1-.469.538.958.958,0,0,0,.5.13c.439,0,.787-.419.947-1.036a14.5,14.5,0,0,0,.538-2.372c0-.577-.348-.667-.538-.667-.339,0-1,.249-1.335,1.305-.02.089-.05.11-.13.11-.02,0-.119,0-.119-.1,0-.25.568-1.535,1.6-1.535a1.1,1.1,0,0,1,1.076.758,1.291,1.291,0,0,1,1.046-.758c.339,0,.927.14.927.658a.556.556,0,0,1-.538.578.348.348,0,0,1-.379-.349.58.58,0,0,1,.478-.538.978.978,0,0,0-.5-.129c-.7,0-.926.916-.986,1.176Z" transform="translate(-519.081 -334.609)"/>
    <path class="cls-1" d="M525.6,391.054V381.09h1.365v.4H526v9.166h.967v.4Z" transform="translate(-519.081 -334.609)"/>
    <path class="cls-1" d="M528.637,385.673a3.2,3.2,0,0,0,.16-.837c0-.329-.11-.458-.309-.458-.359,0-.558.477-.727,1.185-.06.219-.07.23-.17.23-.02,0-.119,0-.119-.1a4.96,4.96,0,0,1,.3-.966.869.869,0,0,1,.747-.569.9.9,0,0,1,.917.867,1.924,1.924,0,0,1,1.554-.867,1.019,1.019,0,0,1,1.146,1.067,8.982,8.982,0,0,1-.608,2.192,1.892,1.892,0,0,0-.179.707c0,.23.069.329.239.329.488,0,.817-.558,1.016-1.235.05-.15.05-.18.149-.18.03,0,.12,0,.12.1,0,.08-.369,1.534-1.3,1.534a.8.8,0,0,1-.817-.817,1.136,1.136,0,0,1,.1-.459,9.486,9.486,0,0,0,.647-2.321c0-.329-.09-.7-.538-.7a1.98,1.98,0,0,0-1.624,1.215c-.01.04-.09.329-.13.5-.05.228-.109.448-.169.667l-.219.9c-.06.249-.18.717-.19.738a.405.405,0,0,1-.368.278.266.266,0,0,1-.289-.269c0-.049.06-.279.09-.428Z" transform="translate(-519.081 -334.609)"/>
    <path class="cls-1" d="M534.767,391.054H533.4v-.4h.966v-9.166H533.4v-.4h1.365Z" transform="translate(-519.081 -334.609)"/>
    <path class="cls-1" d="M586.631,388.572a2.628,2.628,0,0,1-2.332,2.033.943.943,0,0,1-1.056-.867.574.574,0,0,1,.558-.647.34.34,0,0,1,.369.348.541.541,0,0,1-.2.409.569.569,0,0,1-.429.12.805.805,0,0,0,.757.418,1.427,1.427,0,0,0,1.1-.628,3.823,3.823,0,0,0,.647-1.534,1.407,1.407,0,0,1-1.006.448,1.111,1.111,0,0,1-1.216-1.186,6.568,6.568,0,0,1,.578-2.092,2.1,2.1,0,0,0,.169-.7c0-.318-.169-.318-.249-.318-.339,0-.737.3-1.006,1.235-.05.159-.06.18-.159.18-.02,0-.12,0-.12-.1s.369-1.535,1.315-1.535a.791.791,0,0,1,.818.818,1.814,1.814,0,0,1-.2.717,5.934,5.934,0,0,0-.508,1.953c0,.369.109.807.618.807a1.386,1.386,0,0,0,1.126-.848l.448-1.792c.06-.27.13-.539.2-.8.04-.18.12-.489.14-.538a.433.433,0,0,1,.348-.21.266.266,0,0,1,.289.269.632.632,0,0,1-.04.23Z" transform="translate(-519.081 -334.609)"/>
    <path class="cls-1" d="M589.194,391.054V381.09h1.366v.4h-.967v9.166h.967v.4Z" transform="translate(-519.081 -334.609)"/>
    <path class="cls-1" d="M592.239,385.673a3.182,3.182,0,0,0,.159-.837c0-.329-.109-.458-.309-.458-.358,0-.558.477-.727,1.185-.06.219-.07.23-.169.23-.02,0-.12,0-.12-.1a4.96,4.96,0,0,1,.3-.966.87.87,0,0,1,.747-.569.9.9,0,0,1,.917.867,1.928,1.928,0,0,1,1.554-.867,1.018,1.018,0,0,1,1.146,1.067,8.937,8.937,0,0,1-.608,2.192,1.911,1.911,0,0,0-.179.707c0,.23.07.329.239.329.488,0,.817-.558,1.017-1.235.049-.15.049-.18.149-.18.03,0,.12,0,.12.1,0,.08-.369,1.534-1.306,1.534a.8.8,0,0,1-.817-.817,1.136,1.136,0,0,1,.1-.459,9.485,9.485,0,0,0,.648-2.321c0-.329-.09-.7-.538-.7a1.98,1.98,0,0,0-1.624,1.215c-.011.04-.09.329-.13.5-.05.228-.11.448-.169.667l-.22.9c-.06.249-.179.717-.189.738a.407.407,0,0,1-.369.278.267.267,0,0,1-.289-.269c0-.049.06-.279.09-.428Z" transform="translate(-519.081 -334.609)"/>
    <path class="cls-1" d="M598.369,391.054H597v-.4h.967v-9.166H597v-.4h1.366Z" transform="translate(-519.081 -334.609)"/>
    <g>
      <path class="cls-1" d="M541.949,340.518l2.182-5.61c.07-.179.07-.189.329-.189h1.684v.308h-.239c-.767,0-.787.11-.787.469v5.251c0,.358.02.468.787.468h.239v.309c-.369-.03-1.036-.03-1.425-.03s-1.066,0-1.435.03v-.309h.239c.768,0,.788-.11.788-.468v-5.72h-.01l-2.451,6.307c-.04.11-.07.19-.18.19s-.149-.09-.2-.219l-2.4-6.2h-.01v5.371c0,.269,0,.737,1.026.737v.309c-.349-.01-.837-.03-1.166-.03s-.817.02-1.166.03v-.309c1.027,0,1.027-.468,1.027-.737V335.5c0-.359-.02-.469-.787-.469h-.24v-.308h1.684c.229,0,.259,0,.349.219Z" transform="translate(-519.081 -334.609)"/>
      <path class="cls-1" d="M549.122,341.633c-1.515,0-1.515-.906-1.515-1.683v-1.5c0-.887,0-.916-.777-.916v-.31l1.465-.109v3.308c0,.518.039.987.876.987.728,0,1.206-.678,1.206-1.545V338.1c0-.488-.08-.557-.777-.557v-.31l1.465-.109v3.537c0,.489.08.558.777.558v.309l-1.435.109v-.9A1.359,1.359,0,0,1,549.122,341.633Z" transform="translate(-519.081 -334.609)"/>
      <path class="cls-1" d="M553.8,340.767c0,.448.11.448.778.448v.309c-.369-.01-.857-.03-1.106-.03s-.778.02-1.107.03v-.309c.668,0,.777,0,.777-.448v-5.182c0-.488-.079-.558-.777-.558v-.308l1.435-.11Z" transform="translate(-519.081 -334.609)"/>
      <path class="cls-1" d="M556.524,340.308c0,.17,0,1.076.667,1.076.37,0,.668-.378.668-1.115v-.549h.249v.569c0,.637-.279,1.344-.986,1.344a1.205,1.205,0,0,1-1.286-1.344v-2.75h-.846v-.22c.976-.04,1.275-1.106,1.285-1.923h.249v1.833h1.425v.31h-1.425Z" transform="translate(-519.081 -334.609)"/>
      <path class="cls-1" d="M560.429,340.777c0,.388.04.438.7.438v.309c-.338-.01-.687-.03-1.036-.03-.239,0-.777.02-1.1.03v-.309c.668,0,.777,0,.777-.448v-2.681c0-.488-.089-.547-.737-.547v-.31l1.395-.109Zm-.488-4.863a.531.531,0,0,1-.528-.528.538.538,0,0,1,.528-.528.528.528,0,0,1,0,1.056Z" transform="translate(-519.081 -334.609)"/>
      <path class="cls-1" d="M564.534,337.12a2.181,2.181,0,0,1,2.082,2.252,2.245,2.245,0,0,1-2.222,2.261,1.354,1.354,0,0,1-1.226-.7V342.7c0,.448.11.448.778.448v.309c-.349-.01-.857-.03-1.126-.03s-.778.02-1.116.03v-.309c.668,0,.777,0,.777-.448v-4.663c0-.439-.07-.5-.777-.5v-.31l1.435-.109v.657A1.794,1.794,0,0,1,564.534,337.12Zm-1.226,3.687a1.243,1.243,0,0,0,1.046.608c.738,0,1.435-.838,1.435-2.043,0-1.126-.608-2-1.335-2a1.5,1.5,0,0,0-1.286.8v2.222A.523.523,0,0,0,563.308,340.807Z" transform="translate(-519.081 -334.609)"/>
      <path class="cls-1" d="M568.718,340.767c0,.448.109.448.777.448v.309c-.369-.01-.857-.03-1.106-.03s-.777.02-1.106.03v-.309c.668,0,.777,0,.777-.448v-5.182c0-.488-.08-.558-.777-.558v-.308l1.435-.11Z" transform="translate(-519.081 -334.609)"/>
      <path class="cls-1" d="M571.478,340.777c0,.388.04.438.7.438v.309c-.339-.01-.688-.03-1.036-.03-.24,0-.778.02-1.1.03v-.309c.668,0,.778,0,.778-.448v-2.681c0-.488-.09-.547-.737-.547v-.31l1.395-.109Zm-.489-4.863a.531.531,0,0,1-.528-.528.538.538,0,0,1,.528-.528.528.528,0,1,1,0,1.056Z" transform="translate(-519.081 -334.609)"/>
      <path class="cls-1" d="M573.878,340.717a1.343,1.343,0,0,0,1.126.667,1.4,1.4,0,0,0,1.345-1.026c.02-.08.04-.139.13-.139a.116.116,0,0,1,.129.119,1.7,1.7,0,0,1-1.664,1.295,2.249,2.249,0,0,1-2.192-2.3,2.178,2.178,0,0,1,2.073-2.272,1.767,1.767,0,0,1,1.783,1.953c0,.209-.03.209-.249.209h-2.78A2.9,2.9,0,0,0,573.878,340.717Zm2.073-1.7c0-.388-.1-1.734-1.126-1.734-.339,0-1.176.249-1.236,1.734Z" transform="translate(-519.081 -334.609)"/>
    </g>
    <path class="cls-1" d="M579.752,337.12a.68.68,0,0,1,.737.608.419.419,0,0,1-.428.438.412.412,0,0,1-.429-.428.434.434,0,0,1,.229-.389c-.02-.01-.039-.01-.109-.01-.757,0-1.176.887-1.176,1.873v1.535c0,.358.02.468.757.468h.209v.309c-.4-.03-.866-.03-1.265-.03-.279,0-.747.02-1.136.03v-.309c.668,0,.777,0,.777-.448V338.1c0-.488-.079-.557-.777-.557v-.31l1.385-.109v1.1A1.4,1.4,0,0,1,579.752,337.12Z" transform="translate(-519.081 -334.609)"/>
    <polyline points="18.304 10.395 61.864 10.395 61.864 9.915 18.304 9.915"/>
    <path class="cls-1" d="M532.873,431.174a2.628,2.628,0,0,1-2.331,2.033.943.943,0,0,1-1.057-.867.575.575,0,0,1,.558-.648.34.34,0,0,1,.369.349.538.538,0,0,1-.2.408.569.569,0,0,1-.429.12.8.8,0,0,0,.758.418,1.427,1.427,0,0,0,1.1-.628,3.812,3.812,0,0,0,.647-1.534,1.407,1.407,0,0,1-1.006.448,1.111,1.111,0,0,1-1.216-1.185,6.6,6.6,0,0,1,.578-2.093,2.092,2.092,0,0,0,.17-.7c0-.319-.17-.319-.249-.319-.339,0-.738.3-1.007,1.236-.05.159-.059.18-.159.18-.02,0-.12,0-.12-.1s.369-1.535,1.315-1.535a.791.791,0,0,1,.818.817,1.8,1.8,0,0,1-.2.718,5.955,5.955,0,0,0-.508,1.952c0,.369.11.808.618.808a1.386,1.386,0,0,0,1.126-.848l.448-1.793c.06-.269.13-.538.2-.8.04-.179.12-.488.14-.538a.435.435,0,0,1,.349-.21.267.267,0,0,1,.289.27.625.625,0,0,1-.04.229Z" transform="translate(-519.081 -334.609)"/>
    <path class="cls-1" d="M535.444,433.655v-9.964h1.366v.4h-.967v9.167h.967v.4Z" transform="translate(-519.081 -334.609)"/>
    <path class="cls-1" d="M538.481,428.274a3.2,3.2,0,0,0,.16-.836c0-.33-.11-.459-.309-.459-.359,0-.559.478-.728,1.186-.06.219-.069.23-.169.23-.02,0-.12,0-.12-.1a5.058,5.058,0,0,1,.3-.967.869.869,0,0,1,.747-.568.9.9,0,0,1,.917.867,1.926,1.926,0,0,1,1.555-.867,1.018,1.018,0,0,1,1.146,1.066,8.989,8.989,0,0,1-.608,2.193,1.888,1.888,0,0,0-.18.707c0,.229.07.329.24.329.487,0,.817-.559,1.016-1.236.05-.149.05-.179.149-.179.03,0,.12,0,.12.1,0,.08-.369,1.534-1.305,1.534a.8.8,0,0,1-.818-.816,1.154,1.154,0,0,1,.1-.459,9.454,9.454,0,0,0,.648-2.321c0-.329-.09-.7-.538-.7a1.982,1.982,0,0,0-1.624,1.215c-.011.04-.09.329-.13.5-.05.229-.11.449-.169.667l-.219.9c-.06.249-.18.717-.19.737a.406.406,0,0,1-.368.278.266.266,0,0,1-.29-.268c0-.05.061-.279.09-.429Z" transform="translate(-519.081 -334.609)"/>
    <g>
      <path class="cls-1" d="M544.611,433.655h-1.365v-.4h.966V424.09h-.966v-.4h1.365Z" transform="translate(-519.081 -334.609)"/>
      <path class="cls-1" d="M549.323,427.906c-.15,0-.339,0-.339-.2s.189-.2.329-.2h5.968c.14,0,.329,0,.329.2s-.189.2-.339.2Zm-.01,1.933c-.14,0-.329,0-.329-.2s.189-.2.339-.2h5.948c.15,0,.339,0,.339.2s-.189.2-.329.2Z" transform="translate(-519.081 -334.609)"/>
    </g>
    <path class="cls-1" d="M563.563,427.158a1.8,1.8,0,0,1,.728,1.486,2.522,2.522,0,0,1-.8,1.833,2.909,2.909,0,0,1-1.923.787,1.3,1.3,0,0,1-1.355-.967l-.7,2.75c-.01.03-.04.05-.12.05s-.129-.06-.12-.1l1.585-6.327a4.248,4.248,0,0,1,1.285-2.122,1.749,1.749,0,0,1,1.206-.418,1.327,1.327,0,0,1,1.355,1.364A2.082,2.082,0,0,1,563.563,427.158Zm-.339-2.8c-1.2,0-1.913,1.585-2.132,2.442l-.638,2.52a1.613,1.613,0,0,0-.05.439,1.141,1.141,0,0,0,1.136,1.286,2.159,2.159,0,0,0,1.625-.9,3.186,3.186,0,0,0,.5-1.713,1.352,1.352,0,0,0-.439-1.126,1.782,1.782,0,0,1-.817.13c-.179,0-.7.03-.687-.25,0-.329.557-.319.767-.319a1.98,1.98,0,0,1,.767.12,2.085,2.085,0,0,0,.9-1.723A.831.831,0,0,0,563.224,424.358Zm-.737,2.741c-.11,0-.468-.02-.488.08a1.21,1.21,0,0,0,.438.04,1.17,1.17,0,0,0,.478-.071A1.064,1.064,0,0,0,562.487,427.1Z" transform="translate(-519.081 -334.609)"/>
    <path class="cls-1" d="M568.771,429.2a.528.528,0,1,1,.528-.528A.531.531,0,0,1,568.771,429.2Z" transform="translate(-519.081 -334.609)"/>
    <path class="cls-1" d="M575.3,429.52a3.871,3.871,0,0,0-.17.876c0,.339.16.659.548.659.319,0,1-.24,1.325-1.306.021-.069.041-.109.13-.109.03,0,.12,0,.12.1,0,.249-.568,1.534-1.6,1.534a1.1,1.1,0,0,1-1.075-.756,1.328,1.328,0,0,1-1.047.756c-.438,0-.936-.2-.936-.657a.566.566,0,0,1,.548-.578.341.341,0,0,1,.368.349.565.565,0,0,1-.468.538.954.954,0,0,0,.5.13c.438,0,.787-.419.947-1.036a14.591,14.591,0,0,0,.538-2.373c0-.577-.349-.667-.538-.667-.339,0-1,.25-1.335,1.305-.02.09-.051.111-.13.111-.02,0-.12,0-.12-.1,0-.25.569-1.535,1.605-1.535a1.1,1.1,0,0,1,1.076.758,1.288,1.288,0,0,1,1.046-.758c.339,0,.927.139.927.658a.555.555,0,0,1-.538.577.347.347,0,0,1-.379-.349.579.579,0,0,1,.478-.538.98.98,0,0,0-.5-.129c-.7,0-.927.917-.986,1.176Z" transform="translate(-519.081 -334.609)"/>
    <path class="cls-1" d="M579.116,433.655v-9.964h1.365v.4h-.966v9.167h.966v.4Z" transform="translate(-519.081 -334.609)"/>
    <path class="cls-1" d="M582.153,428.274a3.2,3.2,0,0,0,.16-.836c0-.33-.11-.459-.31-.459-.358,0-.558.478-.727,1.186-.06.219-.069.23-.169.23-.02,0-.12,0-.12-.1a4.983,4.983,0,0,1,.3-.967.869.869,0,0,1,.747-.568.9.9,0,0,1,.917.867,1.925,1.925,0,0,1,1.554-.867,1.018,1.018,0,0,1,1.146,1.066,8.945,8.945,0,0,1-.608,2.193,1.906,1.906,0,0,0-.179.707c0,.229.07.329.24.329.487,0,.816-.559,1.016-1.236.049-.149.049-.179.149-.179.03,0,.12,0,.12.1,0,.08-.369,1.534-1.305,1.534a.8.8,0,0,1-.818-.816,1.136,1.136,0,0,1,.1-.459,9.5,9.5,0,0,0,.648-2.321c0-.329-.09-.7-.538-.7a1.982,1.982,0,0,0-1.624,1.215c-.011.04-.09.329-.13.5-.05.229-.11.449-.169.667l-.219.9c-.061.249-.18.717-.19.737a.407.407,0,0,1-.369.278.266.266,0,0,1-.289-.268c0-.05.06-.279.09-.429Z" transform="translate(-519.081 -334.609)"/>
    <path class="cls-1" d="M588.283,433.655h-1.366v-.4h.967V424.09h-.967v-.4h1.366Z" transform="translate(-519.081 -334.609)"/>
    <path class="cls-1" d="M799.276,388.767a.856.856,0,0,0-.04.209c0,.159.08.189.368.218.26.021.389.021.638.021s.339,0,.339.109c0,.2-.119.2-.219.2-.279,0-.578-.019-.867-.019-.268,0-.548-.011-.827-.011s-.567.011-.847.011-.548.019-.817.019c-.06,0-.169,0-.169-.119,0-.189.06-.189.418-.189,1.066,0,1.1-.111,1.186-.479l1.335-5.32a.982.982,0,0,0,.04-.209c0-.08,0-.12-.279-.12h-.389c-1.474,0-1.733.179-2.271,1.724-.06.159-.07.209-.17.209a.113.113,0,0,1-.119-.11,1.356,1.356,0,0,1,.06-.18l.6-1.752c.07-.189.08-.2.32-.2h5.53c.169,0,.268,0,.268.11a1.106,1.106,0,0,1-.019.169l-.27,1.734c-.019.149-.04.229-.149.229a.116.116,0,0,1-.119-.129,1.419,1.419,0,0,1,.029-.19,7.368,7.368,0,0,0,.08-.8c0-.777-.448-.817-1.455-.817a5.429,5.429,0,0,0-.628.02c-.119.03-.159.09-.228.369Z" transform="translate(-519.081 -334.609)"/>
    <polygon class="cls-2" points="266.891 51.509 266.891 37.336 295.237 37.336 295.237 65.682 266.891 65.682 266.891 51.509"/>
    <polyline points="262.355 53.777 266.891 51.509 262.355 49.241 263.489 51.509"/>
    <line class="cls-2" x1="252.718" y1="51.509" x2="263.489" y2="51.509"/>
    <polyline points="304.875 53.777 309.41 51.509 304.875 49.241 306.009 51.509"/>
    <line class="cls-2" x1="295.237" y1="51.509" x2="306.009" y2="51.509"/>
    <path class="cls-1" d="M834.67,388.572a2.627,2.627,0,0,1-2.331,2.033.943.943,0,0,1-1.057-.867.574.574,0,0,1,.559-.647.339.339,0,0,1,.368.348.541.541,0,0,1-.2.409.569.569,0,0,1-.429.12.807.807,0,0,0,.758.418,1.427,1.427,0,0,0,1.1-.628,3.823,3.823,0,0,0,.647-1.534,1.4,1.4,0,0,1-1.006.448,1.111,1.111,0,0,1-1.216-1.186,6.6,6.6,0,0,1,.578-2.092,2.1,2.1,0,0,0,.169-.7c0-.318-.169-.318-.249-.318-.338,0-.737.3-1,1.235-.05.159-.061.18-.161.18-.019,0-.119,0-.119-.1s.368-1.535,1.316-1.535a.79.79,0,0,1,.816.818,1.789,1.789,0,0,1-.2.717,5.934,5.934,0,0,0-.508,1.953c0,.369.109.807.618.807a1.382,1.382,0,0,0,1.125-.848l.449-1.792c.06-.27.129-.539.2-.8.039-.18.119-.489.139-.538a.432.432,0,0,1,.349-.21.266.266,0,0,1,.289.269.632.632,0,0,1-.04.23Z" transform="translate(-519.081 -334.609)"/>
    <path class="cls-1" d="M837.241,391.054V381.09h1.365v.4h-.966v9.166h.966v.4Z" transform="translate(-519.081 -334.609)"/>
    <path class="cls-1" d="M840.278,385.673a3.246,3.246,0,0,0,.16-.837c0-.329-.11-.458-.309-.458-.359,0-.559.477-.728,1.185-.059.219-.07.23-.17.23-.019,0-.119,0-.119-.1a5.035,5.035,0,0,1,.3-.966.87.87,0,0,1,.747-.569.9.9,0,0,1,.917.867,1.925,1.925,0,0,1,1.555-.867,1.018,1.018,0,0,1,1.145,1.067,9.024,9.024,0,0,1-.607,2.192,1.893,1.893,0,0,0-.18.707c0,.23.07.329.24.329.488,0,.816-.558,1.015-1.235.051-.15.051-.18.151-.18.029,0,.119,0,.119.1,0,.08-.369,1.534-1.306,1.534a.8.8,0,0,1-.816-.817,1.13,1.13,0,0,1,.1-.459,9.485,9.485,0,0,0,.648-2.321c0-.329-.09-.7-.538-.7a1.98,1.98,0,0,0-1.624,1.215c-.01.04-.09.329-.13.5-.05.228-.11.448-.169.667l-.22.9c-.06.249-.179.717-.189.738a.407.407,0,0,1-.369.278.267.267,0,0,1-.289-.269c0-.049.06-.279.09-.428Z" transform="translate(-519.081 -334.609)"/>
    <path class="cls-1" d="M846.407,391.054h-1.365v-.4h.967v-9.166h-.967v-.4h1.365Z" transform="translate(-519.081 -334.609)"/>
    <path class="cls-1" d="M752.055,386.918a3.867,3.867,0,0,0-.17.877c0,.339.16.658.549.658.318,0,1-.239,1.325-1.306.019-.069.039-.109.129-.109.03,0,.12,0,.12.1,0,.249-.569,1.534-1.6,1.534a1.1,1.1,0,0,1-1.076-.757,1.323,1.323,0,0,1-1.046.757c-.438,0-.937-.2-.937-.657a.566.566,0,0,1,.548-.578.341.341,0,0,1,.369.348.565.565,0,0,1-.468.538.954.954,0,0,0,.5.13c.438,0,.787-.419.946-1.036a14.5,14.5,0,0,0,.538-2.372c0-.577-.348-.667-.538-.667-.338,0-1,.249-1.335,1.305-.019.089-.05.11-.129.11-.02,0-.12,0-.12-.1,0-.25.568-1.535,1.605-1.535a1.1,1.1,0,0,1,1.076.758,1.288,1.288,0,0,1,1.046-.758c.339,0,.926.14.926.658a.555.555,0,0,1-.538.578.348.348,0,0,1-.379-.349.58.58,0,0,1,.479-.538.98.98,0,0,0-.5-.129c-.7,0-.927.916-.986,1.176Z" transform="translate(-519.081 -334.609)"/>
    <path class="cls-1" d="M755.874,391.054V381.09h1.365v.4h-.967v9.166h.967v.4Z" transform="translate(-519.081 -334.609)"/>
    <path class="cls-1" d="M758.919,385.673a3.227,3.227,0,0,0,.159-.837c0-.329-.109-.458-.308-.458-.36,0-.559.477-.728,1.185-.06.219-.07.23-.17.23-.019,0-.119,0-.119-.1a5.035,5.035,0,0,1,.3-.966.869.869,0,0,1,.747-.569.9.9,0,0,1,.917.867,1.925,1.925,0,0,1,1.555-.867,1.018,1.018,0,0,1,1.145,1.067,9.024,9.024,0,0,1-.607,2.192,1.893,1.893,0,0,0-.18.707c0,.23.069.329.239.329.488,0,.817-.558,1.016-1.235.051-.15.051-.18.15-.18.029,0,.119,0,.119.1,0,.08-.369,1.534-1.305,1.534a.8.8,0,0,1-.817-.817,1.136,1.136,0,0,1,.1-.459,9.486,9.486,0,0,0,.647-2.321c0-.329-.09-.7-.538-.7a1.983,1.983,0,0,0-1.624,1.215c-.01.04-.09.329-.13.5-.049.228-.109.448-.169.667l-.219.9c-.06.249-.179.717-.19.738a.405.405,0,0,1-.368.278.267.267,0,0,1-.289-.269c0-.049.06-.279.09-.428Z" transform="translate(-519.081 -334.609)"/>
    <path class="cls-1" d="M765.048,391.054h-1.365v-.4h.966v-9.166h-.966v-.4h1.365Z" transform="translate(-519.081 -334.609)"/>
  </g>
</svg>
