<svg id="Layer_1" data-name="Layer 1" xmlns="http://www.w3.org/2000/svg" viewBox="0 0 430.53 102.121">
  <defs>
    <style>
      .cls-1 {
        fill: #1d1d1b;
      }

      .cls-2 {
        fill: none;
        stroke: #000;
        stroke-miterlimit: 10;
        stroke-width: 0.85px;
      }

      .cls-3 {
        fill: red;
      }

      .cls-4 {
        fill: blue;
      }
    </style>
  </defs>
  <title>cascadeequiv</title>
  <g>
    <path class="cls-1" d="M682.052,346.8a4.329,4.329,0,0,1-.867-1.454c0-.12.109-.12.2-.12.119,0,.159.01.2.1a4.546,4.546,0,0,0,2.422,2.461c.2.09.209.1.229.119a.127.127,0,0,1,.01.06c0,.07-.03.08-.169.14a4.562,4.562,0,0,0-2.452,2.391c-.089.2-.089.209-.239.209-.09,0-.2,0-.2-.119a4.31,4.31,0,0,1,.867-1.455h-4.893a4.31,4.31,0,0,1,.867,1.455c0,.119-.109.119-.2.119-.119,0-.16-.01-.2-.1a4.539,4.539,0,0,0-2.42-2.461c-.2-.09-.21-.1-.23-.12a.127.127,0,0,1-.01-.06c0-.069.03-.08.17-.139a4.565,4.565,0,0,0,2.451-2.392c.089-.2.089-.209.239-.209.09,0,.2,0,.2.12a4.329,4.329,0,0,1-.867,1.454Zm.388,1.934a4.9,4.9,0,0,1,1.047-.768,5.344,5.344,0,0,1-1.047-.767h-5.669a4.982,4.982,0,0,1-1.046.767,5.328,5.328,0,0,1,1.046.768Z" transform="translate(-469.246 -333.018)"/>
    <path class="cls-1" d="M682.052,417.709a4.32,4.32,0,0,1-.867-1.454c0-.12.109-.12.2-.12.119,0,.159.011.2.1a4.544,4.544,0,0,0,2.422,2.462c.2.089.209.1.229.119a.127.127,0,0,1,.01.06c0,.07-.03.08-.169.14a4.559,4.559,0,0,0-2.452,2.391c-.089.2-.089.209-.239.209-.09,0-.2,0-.2-.119a4.31,4.31,0,0,1,.867-1.455h-4.893a4.31,4.31,0,0,1,.867,1.455c0,.119-.109.119-.2.119-.119,0-.16-.01-.2-.1a4.536,4.536,0,0,0-2.42-2.461c-.2-.09-.21-.1-.23-.12a.125.125,0,0,1-.01-.06c0-.069.03-.079.17-.14a4.562,4.562,0,0,0,2.451-2.39c.089-.2.089-.21.239-.21.09,0,.2,0,.2.12a4.32,4.32,0,0,1-.867,1.454Zm.388,1.934a4.9,4.9,0,0,1,1.047-.768,5.385,5.385,0,0,1-1.047-.767h-5.669a4.911,4.911,0,0,1-1.046.767,5.369,5.369,0,0,1,1.046.768Z" transform="translate(-469.246 -333.018)"/>
    <polyline points="25.077 17.934 29.612 15.667 25.077 13.399 26.211 15.667"/>
    <line class="cls-2" x1="1.266" y1="15.667" x2="26.211" y2="15.667"/>
    <path class="cls-1" d="M471.946,338.847a3.877,3.877,0,0,0-.17.877c0,.339.16.658.548.658.319,0,1-.239,1.325-1.306.02-.07.04-.109.13-.109.03,0,.12,0,.12.1,0,.249-.568,1.535-1.6,1.535a1.1,1.1,0,0,1-1.075-.757,1.329,1.329,0,0,1-1.047.757c-.438,0-.936-.2-.936-.658a.567.567,0,0,1,.547-.578.342.342,0,0,1,.369.349.565.565,0,0,1-.468.538.954.954,0,0,0,.5.13c.438,0,.787-.419.947-1.037a14.59,14.59,0,0,0,.538-2.371c0-.578-.349-.668-.538-.668-.339,0-1,.25-1.335,1.306-.02.089-.051.109-.13.109-.02,0-.12,0-.12-.1,0-.249.569-1.535,1.605-1.535a1.1,1.1,0,0,1,1.076.757,1.287,1.287,0,0,1,1.046-.757c.339,0,.927.14.927.658a.556.556,0,0,1-.539.578.347.347,0,0,1-.378-.349.579.579,0,0,1,.478-.538.974.974,0,0,0-.5-.13c-.7,0-.927.917-.986,1.176Z" transform="translate(-469.246 -333.018)"/>
    <path class="cls-1" d="M475.765,342.982v-9.964h1.365v.4h-.966v9.166h.966v.4Z" transform="translate(-469.246 -333.018)"/>
    <path class="cls-1" d="M478.8,337.6a3.189,3.189,0,0,0,.159-.837c0-.329-.109-.459-.309-.459-.358,0-.558.479-.727,1.186-.06.219-.07.229-.169.229-.02,0-.12,0-.12-.1a4.983,4.983,0,0,1,.3-.967.871.871,0,0,1,.747-.568.9.9,0,0,1,.917.867,1.928,1.928,0,0,1,1.554-.867,1.018,1.018,0,0,1,1.146,1.066,8.937,8.937,0,0,1-.608,2.192,1.916,1.916,0,0,0-.179.708c0,.229.07.329.239.329.488,0,.817-.558,1.017-1.236.049-.149.049-.179.149-.179.03,0,.12,0,.12.1,0,.08-.369,1.535-1.306,1.535a.8.8,0,0,1-.817-.817,1.136,1.136,0,0,1,.1-.459,9.5,9.5,0,0,0,.648-2.321c0-.329-.09-.7-.538-.7a1.981,1.981,0,0,0-1.624,1.216c-.011.04-.09.329-.13.5-.05.23-.11.449-.169.668l-.22.9c-.06.249-.179.718-.189.738a.408.408,0,0,1-.369.279.267.267,0,0,1-.289-.269c0-.05.06-.279.09-.429Z" transform="translate(-469.246 -333.018)"/>
    <path class="cls-1" d="M484.939,342.982h-1.365v-.4h.967v-9.166h-.967v-.4h1.365Z" transform="translate(-469.246 -333.018)"/>
    <path class="cls-3" d="M471.466,355.785c0-.6.359-1.027,1.136-1.027a3.294,3.294,0,0,1,.816.11c.359.08.519.11.519.329a.418.418,0,0,1-.4.4,1.361,1.361,0,0,1-.548-.249,1.207,1.207,0,0,0-.707-.269.5.5,0,0,0-.548.459,3.932,3.932,0,0,0,.946,1.633,2.8,2.8,0,0,1,.737,1.854c0,1.375-.826,2.939-1.992,2.939a1.565,1.565,0,0,1-1.574-1.673,3.047,3.047,0,0,1,2.211-2.8A4.084,4.084,0,0,1,471.466,355.785Zm-1,4.782c0,.758.409,1.176.957,1.176.927,0,1.305-1.664,1.305-2.322a3.454,3.454,0,0,0-.548-1.713C470.838,358.066,470.469,359.939,470.469,360.567Z" transform="translate(-469.246 -333.018)"/>
    <path class="cls-3" d="M475.406,364.334V354.37h1.365v.4H475.8v9.166h.967v.4Z" transform="translate(-469.246 -333.018)"/>
    <path class="cls-3" d="M478.45,358.953a3.194,3.194,0,0,0,.16-.837c0-.328-.11-.458-.309-.458-.359,0-.558.478-.727,1.186-.06.219-.07.229-.17.229-.02,0-.119,0-.119-.1a5.007,5.007,0,0,1,.3-.966.872.872,0,0,1,.748-.569.9.9,0,0,1,.917.868,1.922,1.922,0,0,1,1.554-.868,1.019,1.019,0,0,1,1.146,1.067,8.982,8.982,0,0,1-.608,2.192,1.892,1.892,0,0,0-.179.707c0,.229.069.329.239.329.488,0,.817-.558,1.016-1.235.05-.15.05-.18.149-.18.03,0,.12,0,.12.1,0,.08-.369,1.534-1.305,1.534a.8.8,0,0,1-.817-.817,1.132,1.132,0,0,1,.1-.458,9.507,9.507,0,0,0,.647-2.322c0-.329-.09-.7-.538-.7a1.979,1.979,0,0,0-1.624,1.216c-.01.04-.09.328-.13.5-.05.229-.109.448-.169.667l-.219.9c-.06.249-.18.717-.19.737a.405.405,0,0,1-.368.279.266.266,0,0,1-.289-.268c0-.051.06-.28.09-.429Z" transform="translate(-469.246 -333.018)"/>
    <path class="cls-3" d="M484.572,364.334h-1.365v-.4h.966v-9.166h-.966v-.4h1.365Z" transform="translate(-469.246 -333.018)"/>
    <g>
      <path class="cls-1" d="M513.469,344.937h-5.192v-.31h.24c.767,0,.787-.109.787-.468v-5.251c0-.358-.02-.468-.787-.468h-.24v-.309c.349.03,1.126.03,1.515.03.409,0,1.315,0,1.674-.03v.309h-.329c-.947,0-.947.14-.947.478v5.311c0,.329.02.4.489.4h.817c1.754,0,1.893-1.245,2-2.261h.249Z" transform="translate(-469.246 -333.018)"/>
      <path class="cls-1" d="M520.174,340.433h-.249c-.14-1.6-.289-1.933-1.794-1.933a4.683,4.683,0,0,0-.568.02c-.179.04-.179.179-.179.378v5.251c0,.339,0,.478,1.046.478h.4v.31c-.409-.03-1.435-.03-1.893-.03s-1.475,0-1.884.03v-.31h.4c1.046,0,1.046-.139,1.046-.478V338.9c0-.229,0-.338-.209-.378a4.169,4.169,0,0,0-.538-.02c-1.5,0-1.654.329-1.793,1.933h-.249l.188-2.242h6.089Z" transform="translate(-469.246 -333.018)"/>
    </g>
    <g>
      <path class="cls-1" d="M522.792,344.159c0,.359.03.468.817.468h.259v.31c-.348-.03-1.136-.03-1.524-.03s-1.166,0-1.515.03v-.31h.259c.787,0,.817-.109.817-.468v-5.251c0-.358-.03-.468-.817-.468h-.259v-.309c.349.03,1.136.03,1.525.03s1.166,0,1.514-.03v.309h-.259c-.787,0-.817.11-.817.468Z" transform="translate(-469.246 -333.018)"/>
      <path class="cls-1" d="M530.314,344.149c0,.369.03.478.927.478h.319v.31c-.349-.03-1.216-.03-1.615-.03s-1.265,0-1.613.03v-.31h.318c.9,0,.927-.119.927-.478v-5.161a2.986,2.986,0,0,1-1.306.259v-.309a2.462,2.462,0,0,0,1.814-.638c.229,0,.229.02.229.26Z" transform="translate(-469.246 -333.018)"/>
    </g>
    <path class="cls-1" d="M511.359,354.612a1.851,1.851,0,0,1,1.475-.767,1.013,1.013,0,0,1,1.146,1.066,8.949,8.949,0,0,1-.608,2.192,1.9,1.9,0,0,0-.179.708c0,.229.069.329.239.329.548,0,.867-.708,1.016-1.236.05-.15.05-.179.15-.179.029,0,.119,0,.119.1,0,.08-.368,1.534-1.3,1.534a.8.8,0,0,1-.817-.816,1.494,1.494,0,0,1,.13-.548,8.506,8.506,0,0,0,.617-2.232c0-.359-.11-.7-.538-.7a1.578,1.578,0,0,0-.956.349,2.94,2.94,0,0,0-.678.917c-.01.059-.089.388-.109.448-.05.229-.11.449-.17.667l-.219.9-.19.758a.414.414,0,0,1-.368.258.273.273,0,0,1-.289-.278.616.616,0,0,1,.04-.22l1.445-5.739.029-.2c0-.1-.02-.17-.5-.17-.149,0-.239,0-.239-.119,0-.179.109-.189.19-.2.258-.02.986-.1,1.215-.1.13,0,.13.1.13.11Z" transform="translate(-469.246 -333.018)"/>
    <path class="cls-1" d="M517.371,359.115c0,.23,0,.321.7.321h.265v.251c-.153-.007-1.032-.028-1.248-.028-.258,0-1.116.021-1.241.028v-.251h.264c.7,0,.7-.091.7-.321v-3.556a2.313,2.313,0,0,1-1.011.194V355.5a1.9,1.9,0,0,0,1.367-.446c.195,0,.209.007.209.195Z" transform="translate(-469.246 -333.018)"/>
    <path class="cls-1" d="M520.648,360.74v-9.964h1.365v.4h-.967v9.166h.967v.4Z" transform="translate(-469.246 -333.018)"/>
    <path class="cls-1" d="M523.692,355.359a3.194,3.194,0,0,0,.16-.837c0-.328-.11-.458-.309-.458-.358,0-.558.478-.727,1.186-.06.219-.07.229-.17.229-.02,0-.119,0-.119-.1a4.96,4.96,0,0,1,.3-.966.868.868,0,0,1,.747-.568.9.9,0,0,1,.917.867,1.922,1.922,0,0,1,1.554-.867,1.019,1.019,0,0,1,1.146,1.066,8.982,8.982,0,0,1-.608,2.192,1.9,1.9,0,0,0-.179.708c0,.229.07.329.239.329.488,0,.817-.558,1.016-1.236.05-.15.05-.179.15-.179.029,0,.119,0,.119.1,0,.08-.368,1.534-1.305,1.534a.8.8,0,0,1-.817-.816,1.136,1.136,0,0,1,.1-.459,9.511,9.511,0,0,0,.647-2.321c0-.329-.09-.7-.538-.7a1.983,1.983,0,0,0-1.624,1.216c-.01.04-.09.328-.13.5-.05.229-.109.449-.169.667l-.219.9c-.06.249-.18.718-.189.738a.407.407,0,0,1-.369.278.266.266,0,0,1-.289-.268c0-.05.06-.279.09-.429Z" transform="translate(-469.246 -333.018)"/>
    <path class="cls-1" d="M529.814,360.74h-1.365v-.4h.967v-9.166h-.967v-.4h1.365Z" transform="translate(-469.246 -333.018)"/>
    <polygon class="cls-2" points="29.612 15.667 29.612 1.494 72.132 1.494 72.132 29.84 29.612 29.84 29.612 15.667"/>
    <polyline points="95.943 17.934 100.478 15.667 95.943 13.399 97.077 15.667"/>
    <line class="cls-2" x1="72.132" y1="15.667" x2="97.077" y2="15.667"/>
    <path class="cls-1" d="M550.3,338.788a2.936,2.936,0,0,0-.11.727c0,.568.269.867.737.867.489,0,.837-.349,1.1-.877a6.049,6.049,0,0,0,.548-1.824,1.14,1.14,0,0,0-.358-.847.324.324,0,0,1-.149-.269.542.542,0,0,1,.5-.478c.169,0,.438.15.438.7a9.283,9.283,0,0,1-.658,2.59A1.7,1.7,0,0,1,550.9,340.6a1.267,1.267,0,0,1-1.246-.7,1.12,1.12,0,0,1-1.036.7c-.747,0-1.415-.349-1.415-1.256a6.267,6.267,0,0,1,.558-2.012,1.989,1.989,0,0,0,.179-.7c0-.319-.159-.329-.249-.329-.349,0-.737.309-1.006,1.236-.05.159-.06.179-.16.179-.02,0-.119,0-.119-.1s.369-1.535,1.315-1.535a.8.8,0,0,1,.817.817,1.794,1.794,0,0,1-.169.638,5.316,5.316,0,0,0-.518,1.933.79.79,0,0,0,.8.907c.388,0,.687-.309.917-.838a.685.685,0,0,1-.011-.179,2.708,2.708,0,0,1,.09-.657c.07-.259.538-2.163.568-2.232a.406.406,0,0,1,.369-.279.267.267,0,0,1,.289.269c0,.059-.1.428-.15.647Z" transform="translate(-469.246 -333.018)"/>
    <path class="cls-1" d="M554.609,342.982v-9.964h1.365v.4h-.967v9.166h.967v.4Z" transform="translate(-469.246 -333.018)"/>
    <path class="cls-1" d="M557.646,337.6a3.234,3.234,0,0,0,.159-.837c0-.329-.11-.459-.309-.459-.358,0-.558.479-.727,1.186-.06.219-.07.229-.169.229-.02,0-.12,0-.12-.1a4.983,4.983,0,0,1,.3-.967.87.87,0,0,1,.747-.568.9.9,0,0,1,.917.867,1.926,1.926,0,0,1,1.554-.867,1.019,1.019,0,0,1,1.146,1.066,8.937,8.937,0,0,1-.608,2.192,1.9,1.9,0,0,0-.179.708c0,.229.07.329.239.329.488,0,.817-.558,1.016-1.236.05-.149.05-.179.15-.179.03,0,.119,0,.119.1,0,.08-.368,1.535-1.3,1.535a.8.8,0,0,1-.817-.817,1.136,1.136,0,0,1,.1-.459,9.5,9.5,0,0,0,.647-2.321c0-.329-.089-.7-.538-.7a1.984,1.984,0,0,0-1.624,1.216c-.01.04-.09.329-.13.5-.049.23-.109.449-.169.668l-.219.9c-.06.249-.179.718-.189.738a.408.408,0,0,1-.369.279.267.267,0,0,1-.289-.269c0-.05.06-.279.09-.429Z" transform="translate(-469.246 -333.018)"/>
    <path class="cls-1" d="M563.775,342.982H562.41v-.4h.966v-9.166h-.966v-.4h1.365Z" transform="translate(-469.246 -333.018)"/>
    <path class="cls-3" d="M546.758,358.206a1.848,1.848,0,0,1,1.474-.768,1.014,1.014,0,0,1,1.146,1.067,8.949,8.949,0,0,1-.607,2.192,1.893,1.893,0,0,0-.18.707c0,.229.07.329.239.329.548,0,.867-.707,1.017-1.235.049-.15.049-.18.149-.18.03,0,.12,0,.12.1,0,.08-.369,1.534-1.3,1.534a.8.8,0,0,1-.818-.817,1.5,1.5,0,0,1,.13-.548,8.462,8.462,0,0,0,.618-2.232c0-.358-.11-.7-.538-.7a1.582,1.582,0,0,0-.957.349,2.939,2.939,0,0,0-.678.916c-.009.06-.089.389-.109.449-.05.229-.11.448-.169.667l-.22.9-.189.757a.414.414,0,0,1-.369.259.274.274,0,0,1-.289-.279.615.615,0,0,1,.04-.219l1.445-5.739.03-.2c0-.1-.02-.17-.5-.17-.15,0-.24,0-.24-.119,0-.18.11-.189.19-.2.259-.02.986-.1,1.215-.1.13,0,.13.1.13.11Z" transform="translate(-469.246 -333.018)"/>
    <path class="cls-3" d="M552.769,362.724c0,.23,0,.321.7.321h.265v.251c-.153-.007-1.032-.028-1.248-.028-.258,0-1.115.021-1.241.028v-.251h.265c.7,0,.7-.091.7-.321v-3.556a2.3,2.3,0,0,1-1.011.195v-.251a1.9,1.9,0,0,0,1.367-.446c.2,0,.209.007.209.195Z" transform="translate(-469.246 -333.018)"/>
    <path class="cls-3" d="M556.054,364.334V354.37h1.365v.4h-.966v9.166h.966v.4Z" transform="translate(-469.246 -333.018)"/>
    <path class="cls-3" d="M559.091,358.953a3.175,3.175,0,0,0,.159-.837c0-.328-.109-.458-.309-.458-.358,0-.558.478-.727,1.186-.06.219-.069.229-.169.229-.02,0-.12,0-.12-.1a4.96,4.96,0,0,1,.3-.966.87.87,0,0,1,.747-.569.9.9,0,0,1,.917.868,1.926,1.926,0,0,1,1.554-.868,1.018,1.018,0,0,1,1.146,1.067,8.937,8.937,0,0,1-.608,2.192,1.911,1.911,0,0,0-.179.707c0,.229.07.329.24.329.487,0,.816-.558,1.016-1.235.049-.15.049-.18.149-.18.03,0,.12,0,.12.1,0,.08-.369,1.534-1.305,1.534a.8.8,0,0,1-.818-.817,1.132,1.132,0,0,1,.1-.458,9.506,9.506,0,0,0,.648-2.322c0-.329-.09-.7-.538-.7a1.979,1.979,0,0,0-1.624,1.216c-.011.04-.09.328-.13.5-.05.229-.11.448-.169.667l-.219.9c-.061.249-.18.717-.19.737a.406.406,0,0,1-.369.279.266.266,0,0,1-.289-.268c0-.051.06-.28.09-.429Z" transform="translate(-469.246 -333.018)"/>
    <path class="cls-3" d="M565.213,364.334h-1.365v-.4h.966v-9.166h-.966v-.4h1.365Z" transform="translate(-469.246 -333.018)"/>
    <g>
      <path class="cls-4" d="M584.273,344.937h-5.191v-.31h.239c.767,0,.787-.109.787-.468v-5.251c0-.358-.02-.468-.787-.468h-.239v-.309c.349.03,1.126.03,1.515.03.408,0,1.315,0,1.674-.03v.309h-.329c-.947,0-.947.14-.947.478v5.311c0,.329.02.4.488.4h.818c1.753,0,1.893-1.245,2-2.261h.249Z" transform="translate(-469.246 -333.018)"/>
      <path class="cls-4" d="M590.979,340.433h-.25c-.139-1.6-.289-1.933-1.793-1.933a4.683,4.683,0,0,0-.568.02c-.179.04-.179.179-.179.378v5.251c0,.339,0,.478,1.046.478h.4v.31c-.408-.03-1.434-.03-1.893-.03s-1.474,0-1.883.03v-.31h.4c1.046,0,1.046-.139,1.046-.478V338.9c0-.229,0-.338-.209-.378a4.169,4.169,0,0,0-.538-.02c-1.5,0-1.655.329-1.794,1.933h-.249l.189-2.242h6.089Z" transform="translate(-469.246 -333.018)"/>
    </g>
    <g>
      <path class="cls-4" d="M593.589,344.159c0,.359.03.468.817.468h.259v.31c-.349-.03-1.136-.03-1.524-.03s-1.166,0-1.515.03v-.31h.259c.787,0,.817-.109.817-.468v-5.251c0-.358-.03-.468-.817-.468h-.259v-.309c.349.03,1.136.03,1.525.03s1.165,0,1.514-.03v.309h-.259c-.787,0-.817.11-.817.468Z" transform="translate(-469.246 -333.018)"/>
      <path class="cls-4" d="M601.36,344.169a.8.8,0,0,0,1.165-.966h.249l-.278,1.734h-3.7c0-.24,0-.26.11-.369l1.913-2.132a3.57,3.57,0,0,0,1.046-2.2c0-.816-.429-1.624-1.335-1.624a1.437,1.437,0,0,0-1.345,1.016.41.41,0,0,1,.129-.009.5.5,0,0,1,.528.518.524.524,0,1,1-1.046-.03,1.841,1.841,0,0,1,1.863-1.8,1.957,1.957,0,0,1,2.112,1.933c0,1-.6,1.535-2.151,2.91l-1.057,1.026Z" transform="translate(-469.246 -333.018)"/>
    </g>
    <path class="cls-4" d="M582.273,354.612a1.851,1.851,0,0,1,1.475-.767,1.013,1.013,0,0,1,1.146,1.066,8.949,8.949,0,0,1-.608,2.192,1.9,1.9,0,0,0-.179.708c0,.229.069.329.239.329.548,0,.867-.708,1.016-1.236.05-.15.05-.179.15-.179.03,0,.119,0,.119.1,0,.08-.368,1.534-1.3,1.534a.8.8,0,0,1-.817-.816,1.494,1.494,0,0,1,.13-.548,8.506,8.506,0,0,0,.617-2.232c0-.359-.11-.7-.538-.7a1.581,1.581,0,0,0-.956.349,2.94,2.94,0,0,0-.678.917c-.01.059-.089.388-.109.448-.05.229-.11.449-.17.667l-.219.9-.19.758a.412.412,0,0,1-.368.258.273.273,0,0,1-.289-.278.616.616,0,0,1,.04-.22l1.445-5.739.029-.2c0-.1-.02-.17-.5-.17-.149,0-.239,0-.239-.119,0-.179.109-.189.19-.2.258-.02.986-.1,1.215-.1.13,0,.13.1.13.11Z" transform="translate(-469.246 -333.018)"/>
    <path class="cls-4" d="M589.269,359.687H586.4c0-.2,0-.209.07-.272l1.68-1.66a2.119,2.119,0,0,0,.656-1.339,1.044,1.044,0,0,0-1.06-1.109,1.1,1.1,0,0,0-1.018.649c.362,0,.411.244.411.369a.37.37,0,1,1-.739-.02,1.352,1.352,0,0,1,1.45-1.249,1.46,1.46,0,0,1,1.632,1.36,2.015,2.015,0,0,1-1,1.506c-.418.328-.663.523-1.395,1.172h1.283a3.594,3.594,0,0,0,.691-.042,1.635,1.635,0,0,0,.181-.635h.237Z" transform="translate(-469.246 -333.018)"/>
    <path class="cls-4" d="M591.57,360.74v-9.964h1.365v.4h-.967v9.166h.967v.4Z" transform="translate(-469.246 -333.018)"/>
    <path class="cls-4" d="M594.606,355.359a3.194,3.194,0,0,0,.16-.837c0-.328-.11-.458-.309-.458-.358,0-.558.478-.727,1.186-.06.219-.07.229-.169.229-.02,0-.12,0-.12-.1a4.96,4.96,0,0,1,.3-.966.868.868,0,0,1,.747-.568.9.9,0,0,1,.917.867,1.923,1.923,0,0,1,1.554-.867,1.019,1.019,0,0,1,1.146,1.066,8.937,8.937,0,0,1-.608,2.192,1.9,1.9,0,0,0-.179.708c0,.229.07.329.239.329.488,0,.817-.558,1.016-1.236.05-.15.05-.179.15-.179.029,0,.119,0,.119.1,0,.08-.368,1.534-1.305,1.534a.8.8,0,0,1-.817-.816,1.136,1.136,0,0,1,.1-.459,9.511,9.511,0,0,0,.647-2.321c0-.329-.09-.7-.538-.7a1.983,1.983,0,0,0-1.624,1.216c-.01.04-.09.328-.13.5-.049.229-.109.449-.169.667l-.219.9c-.06.249-.18.718-.189.738a.407.407,0,0,1-.369.278.266.266,0,0,1-.289-.268c0-.05.06-.279.09-.429Z" transform="translate(-469.246 -333.018)"/>
    <path class="cls-4" d="M600.736,360.74h-1.365v-.4h.966v-9.166h-.966v-.4h1.365Z" transform="translate(-469.246 -333.018)"/>
    <polygon class="cls-2" points="100.478 15.667 100.478 1.494 142.998 1.494 142.998 29.84 100.478 29.84 100.478 15.667"/>
    <polyline points="180.982 17.934 185.517 15.667 180.982 13.399 182.116 15.667"/>
    <line class="cls-2" x1="142.998" y1="15.667" x2="182.116" y2="15.667"/>
    <path class="cls-1" d="M636.155,340.5a2.628,2.628,0,0,1-2.332,2.033.943.943,0,0,1-1.056-.867.574.574,0,0,1,.558-.647.339.339,0,0,1,.369.348.539.539,0,0,1-.2.408.569.569,0,0,1-.429.12.8.8,0,0,0,.757.418,1.423,1.423,0,0,0,1.1-.627,3.815,3.815,0,0,0,.648-1.535,1.4,1.4,0,0,1-1.006.449,1.111,1.111,0,0,1-1.216-1.186,6.562,6.562,0,0,1,.578-2.092,2.1,2.1,0,0,0,.169-.7c0-.319-.169-.319-.249-.319-.339,0-.737.3-1.006,1.236-.05.159-.06.179-.159.179-.02,0-.12,0-.12-.1s.369-1.535,1.315-1.535a.79.79,0,0,1,.817.817,1.806,1.806,0,0,1-.2.718,5.934,5.934,0,0,0-.508,1.953c0,.368.109.807.618.807a1.388,1.388,0,0,0,1.126-.847l.448-1.794c.06-.269.13-.538.2-.8.04-.179.12-.488.14-.538a.431.431,0,0,1,.348-.209.266.266,0,0,1,.289.269.622.622,0,0,1-.04.229Z" transform="translate(-469.246 -333.018)"/>
    <path class="cls-1" d="M638.726,342.982v-9.964h1.365v.4h-.966v9.166h.966v.4Z" transform="translate(-469.246 -333.018)"/>
    <path class="cls-1" d="M641.763,337.6a3.189,3.189,0,0,0,.159-.837c0-.329-.109-.459-.309-.459-.358,0-.558.479-.727,1.186-.06.219-.07.229-.169.229-.02,0-.12,0-.12-.1a4.983,4.983,0,0,1,.3-.967.871.871,0,0,1,.747-.568.9.9,0,0,1,.917.867,1.926,1.926,0,0,1,1.554-.867,1.018,1.018,0,0,1,1.146,1.066,8.937,8.937,0,0,1-.608,2.192,1.916,1.916,0,0,0-.179.708c0,.229.07.329.239.329.488,0,.817-.558,1.017-1.236.049-.149.049-.179.149-.179.03,0,.12,0,.12.1,0,.08-.369,1.535-1.306,1.535a.8.8,0,0,1-.817-.817,1.136,1.136,0,0,1,.1-.459,9.5,9.5,0,0,0,.648-2.321c0-.329-.09-.7-.539-.7a1.984,1.984,0,0,0-1.624,1.216c-.01.04-.089.329-.129.5-.05.23-.11.449-.169.668l-.22.9c-.06.249-.179.718-.189.738a.408.408,0,0,1-.369.279.267.267,0,0,1-.289-.269c0-.05.06-.279.09-.429Z" transform="translate(-469.246 -333.018)"/>
    <path class="cls-1" d="M647.893,342.982h-1.366v-.4h.967v-9.166h-.967v-.4h1.366Z" transform="translate(-469.246 -333.018)"/>
    <path class="cls-3" d="M616.234,358.206a1.852,1.852,0,0,1,1.475-.768,1.014,1.014,0,0,1,1.146,1.067,8.949,8.949,0,0,1-.608,2.192,1.892,1.892,0,0,0-.179.707c0,.229.069.329.239.329.548,0,.867-.707,1.016-1.235.05-.15.05-.18.15-.18.029,0,.119,0,.119.1,0,.08-.368,1.534-1.3,1.534a.8.8,0,0,1-.817-.817,1.5,1.5,0,0,1,.13-.548,8.5,8.5,0,0,0,.617-2.232c0-.358-.11-.7-.538-.7a1.578,1.578,0,0,0-.956.349,2.939,2.939,0,0,0-.678.916c-.01.06-.089.389-.109.449-.05.229-.11.448-.17.667l-.219.9-.19.757a.413.413,0,0,1-.368.259.274.274,0,0,1-.289-.279.615.615,0,0,1,.04-.219l1.445-5.739.029-.2c0-.1-.02-.17-.5-.17-.149,0-.239,0-.239-.119,0-.18.109-.189.19-.2.258-.02.986-.1,1.215-.1.13,0,.13.1.13.11Z" transform="translate(-469.246 -333.018)"/>
    <path class="cls-3" d="M622.253,362.724c0,.23,0,.321.7.321h.265v.251c-.153-.007-1.032-.028-1.248-.028-.259,0-1.116.021-1.241.028v-.251h.264c.7,0,.7-.091.7-.321v-3.556a2.3,2.3,0,0,1-1.01.195v-.251a1.9,1.9,0,0,0,1.366-.446c.2,0,.209.007.209.195Z" transform="translate(-469.246 -333.018)"/>
    <path class="cls-3" d="M625.531,364.334V354.37H626.9v.4h-.967v9.166h.967v.4Z" transform="translate(-469.246 -333.018)"/>
    <path class="cls-3" d="M628.567,358.953a3.194,3.194,0,0,0,.16-.837c0-.328-.11-.458-.309-.458-.358,0-.558.478-.727,1.186-.06.219-.07.229-.17.229-.02,0-.119,0-.119-.1a4.96,4.96,0,0,1,.3-.966.869.869,0,0,1,.747-.569.9.9,0,0,1,.917.868,1.922,1.922,0,0,1,1.554-.868,1.019,1.019,0,0,1,1.146,1.067,8.982,8.982,0,0,1-.608,2.192,1.892,1.892,0,0,0-.179.707c0,.229.07.329.239.329.488,0,.817-.558,1.016-1.235.05-.15.05-.18.15-.18.029,0,.119,0,.119.1,0,.08-.368,1.534-1.305,1.534a.8.8,0,0,1-.817-.817,1.132,1.132,0,0,1,.1-.458,9.507,9.507,0,0,0,.647-2.322c0-.329-.09-.7-.538-.7a1.981,1.981,0,0,0-1.624,1.216c-.01.04-.09.328-.13.5-.05.229-.109.448-.169.667l-.219.9c-.06.249-.18.717-.189.737a.406.406,0,0,1-.369.279.266.266,0,0,1-.289-.268c0-.051.06-.28.09-.429Z" transform="translate(-469.246 -333.018)"/>
    <path class="cls-3" d="M634.7,364.334h-1.365v-.4h.966v-9.166h-.966v-.4H634.7Z" transform="translate(-469.246 -333.018)"/>
    <path class="cls-3" d="M640.752,359.143l1.117-.808c.249-.189.268-.189.338-.189a.283.283,0,0,1,.269.279c0,.15-.08.189-.239.269l-1.375.668c.787.368.807.368,1.405.667.12.06.209.11.209.26a.29.29,0,0,1-.269.278c-.07,0-.089-.02-.179-.069l-1.276-.927.15,1.674a.264.264,0,0,1-.528,0l.149-1.674-1.116.807c-.249.189-.269.189-.339.189a.283.283,0,0,1-.269-.278c0-.15.08-.19.24-.269l1.375-.668L639,358.674c-.1-.049-.2-.09-.2-.249a.292.292,0,0,1,.269-.279c.07,0,.09.02.18.07l1.275.927-.139-1.545v-.129c-.03-.13.1-.26.259-.26.259,0,.259.24.249.379Z" transform="translate(-469.246 -333.018)"/>
    <path class="cls-3" d="M647.43,358.206a1.848,1.848,0,0,1,1.474-.768,1.014,1.014,0,0,1,1.146,1.067,8.9,8.9,0,0,1-.608,2.192,1.911,1.911,0,0,0-.179.707c0,.229.07.329.239.329.548,0,.867-.707,1.017-1.235.049-.15.049-.18.149-.18.03,0,.12,0,.12.1,0,.08-.369,1.534-1.306,1.534a.8.8,0,0,1-.817-.817,1.5,1.5,0,0,1,.13-.548,8.462,8.462,0,0,0,.618-2.232c0-.358-.11-.7-.538-.7a1.582,1.582,0,0,0-.957.349,2.939,2.939,0,0,0-.678.916c-.01.06-.089.389-.109.449-.05.229-.11.448-.17.667l-.219.9-.189.757a.414.414,0,0,1-.369.259.274.274,0,0,1-.289-.279.615.615,0,0,1,.04-.219l1.445-5.739.03-.2c0-.1-.02-.17-.5-.17-.15,0-.24,0-.24-.119,0-.18.11-.189.19-.2.259-.02.986-.1,1.215-.1.13,0,.13.1.13.11Z" transform="translate(-469.246 -333.018)"/>
    <path class="cls-3" d="M654.425,363.3h-2.873c0-.195,0-.209.07-.272l1.68-1.66a2.119,2.119,0,0,0,.656-1.339,1.043,1.043,0,0,0-1.06-1.108,1.1,1.1,0,0,0-1.018.648c.363,0,.412.244.412.37a.37.37,0,1,1-.74-.021,1.352,1.352,0,0,1,1.45-1.248,1.459,1.459,0,0,1,1.632,1.359,2.018,2.018,0,0,1-1,1.507c-.418.327-.662.523-1.394,1.171h1.282a3.594,3.594,0,0,0,.691-.042,1.613,1.613,0,0,0,.181-.634h.237Z" transform="translate(-469.246 -333.018)"/>
    <path class="cls-3" d="M656.726,364.334V354.37h1.365v.4h-.966v9.166h.966v.4Z" transform="translate(-469.246 -333.018)"/>
    <path class="cls-3" d="M659.771,358.953a3.22,3.22,0,0,0,.159-.837c0-.328-.11-.458-.309-.458-.358,0-.558.478-.727,1.186-.06.219-.07.229-.169.229-.02,0-.12,0-.12-.1a4.96,4.96,0,0,1,.3-.966.869.869,0,0,1,.747-.569.9.9,0,0,1,.917.868,1.924,1.924,0,0,1,1.554-.868,1.019,1.019,0,0,1,1.146,1.067,8.937,8.937,0,0,1-.608,2.192,1.892,1.892,0,0,0-.179.707c0,.229.07.329.239.329.488,0,.817-.558,1.016-1.235.05-.15.05-.18.15-.18.03,0,.119,0,.119.1,0,.08-.368,1.534-1.3,1.534a.8.8,0,0,1-.817-.817,1.132,1.132,0,0,1,.1-.458,9.507,9.507,0,0,0,.647-2.322c0-.329-.089-.7-.538-.7a1.982,1.982,0,0,0-1.624,1.216c-.01.04-.09.328-.13.5-.049.229-.109.448-.169.667l-.219.9c-.06.249-.179.717-.189.737a.406.406,0,0,1-.369.279.266.266,0,0,1-.289-.268c0-.051.06-.28.09-.429Z" transform="translate(-469.246 -333.018)"/>
    <path class="cls-3" d="M665.9,364.334h-1.365v-.4h.966v-9.166h-.966v-.4H665.9Z" transform="translate(-469.246 -333.018)"/>
    <polyline points="258.934 17.934 263.469 15.667 258.934 13.399 260.068 15.667"/>
    <line class="cls-2" x1="235.123" y1="15.667" x2="260.068" y2="15.667"/>
    <path class="cls-1" d="M705.821,338.847a3.935,3.935,0,0,0-.17.877c0,.339.161.658.549.658.319,0,1-.239,1.325-1.306.02-.07.039-.109.129-.109.031,0,.12,0,.12.1,0,.249-.568,1.535-1.594,1.535a1.1,1.1,0,0,1-1.076-.757,1.326,1.326,0,0,1-1.046.757c-.439,0-.937-.2-.937-.658a.567.567,0,0,1,.548-.578.342.342,0,0,1,.369.349.565.565,0,0,1-.469.538.956.956,0,0,0,.5.13c.439,0,.787-.419.947-1.037a14.471,14.471,0,0,0,.538-2.371c0-.578-.349-.668-.538-.668-.338,0-1,.25-1.335,1.306-.02.089-.05.109-.129.109-.021,0-.12,0-.12-.1,0-.249.568-1.535,1.6-1.535a1.1,1.1,0,0,1,1.076.757,1.287,1.287,0,0,1,1.046-.757c.339,0,.927.14.927.658a.555.555,0,0,1-.538.578.348.348,0,0,1-.379-.349.578.578,0,0,1,.479-.538.976.976,0,0,0-.5-.13c-.7,0-.926.917-.986,1.176Z" transform="translate(-469.246 -333.018)"/>
    <path class="cls-1" d="M709.648,342.982v-9.964h1.366v.4h-.967v9.166h.967v.4Z" transform="translate(-469.246 -333.018)"/>
    <path class="cls-1" d="M712.686,337.6a3.281,3.281,0,0,0,.159-.837c0-.329-.11-.459-.309-.459-.359,0-.558.479-.727,1.186-.06.219-.071.229-.17.229-.02,0-.119,0-.119-.1a5.031,5.031,0,0,1,.3-.967.871.871,0,0,1,.747-.568.9.9,0,0,1,.917.867,1.926,1.926,0,0,1,1.555-.867,1.019,1.019,0,0,1,1.146,1.066,8.982,8.982,0,0,1-.608,2.192,1.9,1.9,0,0,0-.179.708c0,.229.069.329.239.329.488,0,.816-.558,1.015-1.236.051-.149.051-.179.151-.179.029,0,.119,0,.119.1,0,.08-.369,1.535-1.306,1.535a.8.8,0,0,1-.816-.817,1.148,1.148,0,0,1,.1-.459,9.454,9.454,0,0,0,.648-2.321c0-.329-.09-.7-.538-.7a1.983,1.983,0,0,0-1.624,1.216c-.01.04-.09.329-.13.5-.05.23-.109.449-.169.668l-.22.9c-.059.249-.178.718-.189.738a.408.408,0,0,1-.368.279.266.266,0,0,1-.289-.269c0-.05.059-.279.089-.429Z" transform="translate(-469.246 -333.018)"/>
    <path class="cls-1" d="M718.814,342.982h-1.365v-.4h.967v-9.166h-.967v-.4h1.365Z" transform="translate(-469.246 -333.018)"/>
    <path class="cls-3" d="M705.349,355.785c0-.6.359-1.027,1.136-1.027a3.3,3.3,0,0,1,.817.11c.359.08.518.11.518.329a.418.418,0,0,1-.4.4,1.356,1.356,0,0,1-.548-.249,1.213,1.213,0,0,0-.708-.269.5.5,0,0,0-.548.459,3.932,3.932,0,0,0,.946,1.633,2.8,2.8,0,0,1,.738,1.854c0,1.375-.827,2.939-1.992,2.939a1.566,1.566,0,0,1-1.575-1.673,3.047,3.047,0,0,1,2.212-2.8A4.073,4.073,0,0,1,705.349,355.785Zm-1,4.782c0,.758.408,1.176.957,1.176.926,0,1.3-1.664,1.3-2.322a3.454,3.454,0,0,0-.548-1.713C704.722,358.066,704.353,359.939,704.353,360.567Z" transform="translate(-469.246 -333.018)"/>
    <path class="cls-3" d="M709.289,364.334V354.37h1.365v.4h-.966v9.166h.966v.4Z" transform="translate(-469.246 -333.018)"/>
    <path class="cls-3" d="M712.326,358.953a3.22,3.22,0,0,0,.159-.837c0-.328-.109-.458-.308-.458-.36,0-.559.478-.728,1.186-.059.219-.07.229-.17.229-.019,0-.119,0-.119-.1a5.035,5.035,0,0,1,.3-.966.87.87,0,0,1,.747-.569.9.9,0,0,1,.917.868,1.922,1.922,0,0,1,1.555-.868,1.018,1.018,0,0,1,1.145,1.067,9.024,9.024,0,0,1-.607,2.192,1.893,1.893,0,0,0-.18.707c0,.229.069.329.239.329.489,0,.817-.558,1.016-1.235.051-.15.051-.18.15-.18.03,0,.12,0,.12.1,0,.08-.37,1.534-1.306,1.534a.8.8,0,0,1-.817-.817,1.132,1.132,0,0,1,.1-.458,9.506,9.506,0,0,0,.648-2.322c0-.329-.09-.7-.539-.7a1.982,1.982,0,0,0-1.624,1.216c-.009.04-.089.328-.129.5-.05.229-.11.448-.169.667l-.22.9c-.06.249-.179.717-.19.737a.405.405,0,0,1-.368.279.266.266,0,0,1-.289-.268c0-.051.06-.28.09-.429Z" transform="translate(-469.246 -333.018)"/>
    <path class="cls-3" d="M718.455,364.334H717.09v-.4h.967v-9.166h-.967v-.4h1.365Z" transform="translate(-469.246 -333.018)"/>
    <g>
      <path class="cls-1" d="M818.157,344.937h-5.191v-.31h.239c.767,0,.787-.109.787-.468v-5.251c0-.358-.02-.468-.787-.468h-.239v-.309c.348.03,1.126.03,1.514.03.409,0,1.315,0,1.674-.03v.309h-.329c-.946,0-.946.14-.946.478v5.311c0,.329.019.4.488.4h.817c1.754,0,1.893-1.245,2-2.261h.249Z" transform="translate(-469.246 -333.018)"/>
      <path class="cls-1" d="M824.861,340.433h-.249c-.139-1.6-.289-1.933-1.794-1.933a4.666,4.666,0,0,0-.567.02c-.18.04-.18.179-.18.378v5.251c0,.339,0,.478,1.047.478h.4v.31c-.41-.03-1.436-.03-1.894-.03s-1.475,0-1.883.03v-.31h.4c1.046,0,1.046-.139,1.046-.478V338.9c0-.229,0-.338-.209-.378a4.169,4.169,0,0,0-.538-.02c-1.5,0-1.655.329-1.794,1.933H818.4l.189-2.242h6.088Z" transform="translate(-469.246 -333.018)"/>
    </g>
    <g>
      <path class="cls-1" d="M827.473,344.159c0,.359.029.468.816.468h.26v.31c-.349-.03-1.137-.03-1.525-.03s-1.166,0-1.514.03v-.31h.259c.787,0,.817-.109.817-.468v-5.251c0-.358-.03-.468-.817-.468h-.259v-.309c.348.03,1.136.03,1.524.03s1.166,0,1.515-.03v.309h-.26c-.787,0-.816.11-.816.468Z" transform="translate(-469.246 -333.018)"/>
      <path class="cls-1" d="M835.114,344.149c0,.369.03.478.927.478h.318v.31c-.348-.03-1.215-.03-1.614-.03s-1.266,0-1.614.03v-.31h.319c.9,0,.927-.119.927-.478v-5.161a2.988,2.988,0,0,1-1.306.259v-.309a2.461,2.461,0,0,0,1.814-.638c.229,0,.229.02.229.26Z" transform="translate(-469.246 -333.018)"/>
    </g>
    <path class="cls-1" d="M816.039,354.612a1.852,1.852,0,0,1,1.476-.767,1.013,1.013,0,0,1,1.145,1.066,8.9,8.9,0,0,1-.608,2.192,1.916,1.916,0,0,0-.179.708c0,.229.069.329.239.329.548,0,.867-.708,1.016-1.236.05-.15.05-.179.149-.179.031,0,.12,0,.12.1,0,.08-.369,1.534-1.305,1.534a.8.8,0,0,1-.817-.816,1.511,1.511,0,0,1,.129-.548,8.434,8.434,0,0,0,.618-2.232c0-.359-.109-.7-.538-.7a1.587,1.587,0,0,0-.957.349,2.924,2.924,0,0,0-.676.917c-.011.059-.09.388-.111.448-.05.229-.109.449-.169.667l-.219.9-.189.758a.416.416,0,0,1-.369.258.273.273,0,0,1-.289-.278.616.616,0,0,1,.04-.22l1.444-5.739.031-.2c0-.1-.02-.17-.5-.17-.149,0-.239,0-.239-.119,0-.179.11-.189.19-.2.258-.02.986-.1,1.216-.1.128,0,.128.1.128.11Z" transform="translate(-469.246 -333.018)"/>
    <path class="cls-1" d="M822.051,359.115c0,.23,0,.321.7.321h.266v.251c-.155-.007-1.033-.028-1.249-.028-.258,0-1.116.021-1.242.028v-.251h.266c.7,0,.7-.091.7-.321v-3.556a2.308,2.308,0,0,1-1.011.194V355.5a1.9,1.9,0,0,0,1.367-.446c.2,0,.209.007.209.195Z" transform="translate(-469.246 -333.018)"/>
    <path class="cls-1" d="M825.453,360.74v-9.964h1.365v.4h-.966v9.166h.966v.4Z" transform="translate(-469.246 -333.018)"/>
    <path class="cls-1" d="M828.49,355.359a3.22,3.22,0,0,0,.159-.837c0-.328-.109-.458-.308-.458-.36,0-.559.478-.728,1.186-.059.219-.07.229-.17.229-.019,0-.119,0-.119-.1a5.035,5.035,0,0,1,.3-.966.869.869,0,0,1,.747-.568.9.9,0,0,1,.917.867,1.922,1.922,0,0,1,1.555-.867,1.018,1.018,0,0,1,1.145,1.066,9.024,9.024,0,0,1-.607,2.192,1.9,1.9,0,0,0-.18.708c0,.229.07.329.239.329.489,0,.817-.558,1.016-1.236.051-.15.051-.179.15-.179.03,0,.12,0,.12.1,0,.08-.37,1.534-1.306,1.534a.8.8,0,0,1-.816-.816,1.13,1.13,0,0,1,.1-.459,9.511,9.511,0,0,0,.648-2.321c0-.329-.09-.7-.538-.7a1.981,1.981,0,0,0-1.624,1.216c-.01.04-.09.328-.13.5-.05.229-.11.449-.169.667l-.22.9c-.06.249-.179.718-.19.738a.405.405,0,0,1-.368.278.266.266,0,0,1-.289-.268c0-.05.06-.279.09-.429Z" transform="translate(-469.246 -333.018)"/>
    <path class="cls-1" d="M834.611,360.74h-1.365v-.4h.967v-9.166h-.967v-.4h1.365Z" transform="translate(-469.246 -333.018)"/>
    <polygon class="cls-2" points="334.335 15.667 334.335 1.494 376.855 1.494 376.855 29.84 334.335 29.84 334.335 15.667"/>
    <polyline points="414.839 17.934 419.374 15.667 414.839 13.399 415.973 15.667"/>
    <line class="cls-2" x1="376.855" y1="15.667" x2="415.973" y2="15.667"/>
    <path class="cls-1" d="M870.038,340.5a2.627,2.627,0,0,1-2.331,2.033.943.943,0,0,1-1.057-.867.574.574,0,0,1,.559-.647.338.338,0,0,1,.368.348.536.536,0,0,1-.2.408.569.569,0,0,1-.429.12.8.8,0,0,0,.758.418,1.426,1.426,0,0,0,1.1-.627,3.827,3.827,0,0,0,.647-1.535,1.4,1.4,0,0,1-1.006.449,1.111,1.111,0,0,1-1.215-1.186,6.562,6.562,0,0,1,.578-2.092,2.129,2.129,0,0,0,.169-.7c0-.319-.169-.319-.249-.319-.339,0-.738.3-1.006,1.236-.05.159-.061.179-.16.179-.02,0-.12,0-.12-.1s.369-1.535,1.316-1.535a.79.79,0,0,1,.816.817,1.788,1.788,0,0,1-.2.718,5.934,5.934,0,0,0-.508,1.953c0,.368.11.807.618.807a1.383,1.383,0,0,0,1.125-.847l.45-1.794c.059-.269.129-.538.2-.8.039-.179.119-.488.139-.538a.43.43,0,0,1,.349-.209.266.266,0,0,1,.289.269.622.622,0,0,1-.04.229Z" transform="translate(-469.246 -333.018)"/>
    <path class="cls-1" d="M872.609,342.982v-9.964h1.366v.4h-.967v9.166h.967v.4Z" transform="translate(-469.246 -333.018)"/>
    <path class="cls-1" d="M875.646,337.6a3.253,3.253,0,0,0,.16-.837c0-.329-.11-.459-.309-.459-.359,0-.559.479-.727,1.186-.06.219-.071.229-.17.229-.02,0-.12,0-.12-.1a5.058,5.058,0,0,1,.3-.967.871.871,0,0,1,.747-.568.9.9,0,0,1,.917.867,1.926,1.926,0,0,1,1.555-.867,1.019,1.019,0,0,1,1.146,1.066,8.982,8.982,0,0,1-.608,2.192,1.9,1.9,0,0,0-.18.708c0,.229.07.329.24.329.488,0,.816-.558,1.015-1.236.051-.149.051-.179.151-.179.029,0,.119,0,.119.1,0,.08-.369,1.535-1.306,1.535a.8.8,0,0,1-.816-.817,1.148,1.148,0,0,1,.1-.459,9.454,9.454,0,0,0,.648-2.321c0-.329-.09-.7-.538-.7a1.981,1.981,0,0,0-1.624,1.216c-.01.04-.09.329-.13.5-.05.23-.11.449-.169.668l-.22.9c-.059.249-.179.718-.189.738a.408.408,0,0,1-.368.279.266.266,0,0,1-.289-.269c0-.05.059-.279.089-.429Z" transform="translate(-469.246 -333.018)"/>
    <path class="cls-1" d="M881.775,342.982H880.41v-.4h.967v-9.166h-.967v-.4h1.365Z" transform="translate(-469.246 -333.018)"/>
    <path class="cls-3" d="M850.117,358.206a1.853,1.853,0,0,1,1.476-.768,1.013,1.013,0,0,1,1.145,1.067,8.9,8.9,0,0,1-.608,2.192,1.911,1.911,0,0,0-.179.707c0,.229.07.329.239.329.548,0,.867-.707,1.016-1.235.05-.15.05-.18.149-.18.031,0,.121,0,.121.1,0,.08-.37,1.534-1.306,1.534a.8.8,0,0,1-.816-.817,1.513,1.513,0,0,1,.128-.548,8.428,8.428,0,0,0,.619-2.232c0-.358-.11-.7-.538-.7a1.587,1.587,0,0,0-.958.349,2.94,2.94,0,0,0-.676.916c-.011.06-.09.389-.111.449-.049.229-.109.448-.169.667l-.219.9-.189.757a.415.415,0,0,1-.369.259.274.274,0,0,1-.289-.279.615.615,0,0,1,.04-.219l1.444-5.739.031-.2c0-.1-.02-.17-.5-.17-.15,0-.24,0-.24-.119,0-.18.11-.189.19-.2.259-.02.986-.1,1.216-.1.129,0,.129.1.129.11Z" transform="translate(-469.246 -333.018)"/>
    <path class="cls-3" d="M857.105,363.3h-2.873c0-.195,0-.209.07-.272l1.68-1.66a2.114,2.114,0,0,0,.656-1.339,1.043,1.043,0,0,0-1.06-1.108,1.1,1.1,0,0,0-1.018.648c.363,0,.412.244.412.37a.37.37,0,1,1-.74-.021,1.352,1.352,0,0,1,1.451-1.248,1.459,1.459,0,0,1,1.631,1.359,2.018,2.018,0,0,1-1,1.507c-.419.327-.662.523-1.394,1.171h1.283a3.583,3.583,0,0,0,.69-.042,1.613,1.613,0,0,0,.181-.634h.237Z" transform="translate(-469.246 -333.018)"/>
    <path class="cls-3" d="M859.414,364.334V354.37h1.365v.4h-.966v9.166h.966v.4Z" transform="translate(-469.246 -333.018)"/>
    <path class="cls-3" d="M862.451,358.953a3.22,3.22,0,0,0,.159-.837c0-.328-.109-.458-.308-.458-.36,0-.559.478-.728,1.186-.059.219-.07.229-.17.229-.019,0-.119,0-.119-.1a5.035,5.035,0,0,1,.3-.966.87.87,0,0,1,.747-.569.9.9,0,0,1,.917.868,1.922,1.922,0,0,1,1.555-.868,1.018,1.018,0,0,1,1.145,1.067,9.024,9.024,0,0,1-.607,2.192,1.893,1.893,0,0,0-.18.707c0,.229.069.329.239.329.489,0,.817-.558,1.016-1.235.051-.15.051-.18.15-.18.03,0,.12,0,.12.1,0,.08-.37,1.534-1.306,1.534a.8.8,0,0,1-.817-.817,1.132,1.132,0,0,1,.1-.458,9.506,9.506,0,0,0,.648-2.322c0-.329-.09-.7-.539-.7a1.982,1.982,0,0,0-1.624,1.216c-.009.04-.089.328-.129.5-.05.229-.11.448-.169.667l-.22.9c-.06.249-.179.717-.19.737a.405.405,0,0,1-.368.279.266.266,0,0,1-.289-.268c0-.051.06-.28.09-.429Z" transform="translate(-469.246 -333.018)"/>
    <path class="cls-3" d="M868.572,364.334h-1.365v-.4h.967v-9.166h-.967v-.4h1.365Z" transform="translate(-469.246 -333.018)"/>
    <path class="cls-3" d="M874.636,359.143l1.116-.808c.249-.189.269-.189.339-.189a.283.283,0,0,1,.268.279c0,.15-.079.189-.239.269l-1.375.668c.787.368.808.368,1.4.667.12.06.209.11.209.26a.29.29,0,0,1-.268.278c-.07,0-.09-.02-.18-.069l-1.275-.927.149,1.674a.264.264,0,0,1-.528,0l.149-1.674-1.115.807c-.249.189-.27.189-.339.189a.283.283,0,0,1-.269-.278c0-.15.08-.19.239-.269l1.375-.668-1.415-.678c-.1-.049-.2-.09-.2-.249a.292.292,0,0,1,.269-.279c.069,0,.09.02.179.07l1.275.927-.138-1.545v-.129c-.031-.13.1-.26.258-.26.259,0,.259.24.249.379Z" transform="translate(-469.246 -333.018)"/>
    <path class="cls-3" d="M881.313,358.206a1.852,1.852,0,0,1,1.475-.768,1.014,1.014,0,0,1,1.146,1.067,8.9,8.9,0,0,1-.609,2.192,1.911,1.911,0,0,0-.179.707c0,.229.07.329.24.329.548,0,.866-.707,1.015-1.235.05-.15.05-.18.15-.18.03,0,.12,0,.12.1,0,.08-.369,1.534-1.306,1.534a.8.8,0,0,1-.816-.817,1.516,1.516,0,0,1,.129-.548,8.462,8.462,0,0,0,.618-2.232c0-.358-.109-.7-.538-.7a1.584,1.584,0,0,0-.957.349,2.931,2.931,0,0,0-.677.916c-.011.06-.09.389-.11.449-.05.229-.11.448-.169.667l-.22.9-.188.757a.416.416,0,0,1-.37.259.275.275,0,0,1-.289-.279.615.615,0,0,1,.04-.219l1.445-5.739.03-.2c0-.1-.02-.17-.5-.17-.149,0-.239,0-.239-.119,0-.18.109-.189.189-.2.259-.02.986-.1,1.216-.1.129,0,.129.1.129.11Z" transform="translate(-469.246 -333.018)"/>
    <path class="cls-3" d="M887.332,362.724c0,.23,0,.321.7.321h.266v.251c-.154-.007-1.032-.028-1.249-.028-.258,0-1.115.021-1.241.028v-.251h.265c.7,0,.7-.091.7-.321v-3.556a2.3,2.3,0,0,1-1.012.195v-.251a1.9,1.9,0,0,0,1.367-.446c.195,0,.209.007.209.195Z" transform="translate(-469.246 -333.018)"/>
    <path class="cls-3" d="M890.609,364.334V354.37h1.366v.4h-.967v9.166h.967v.4Z" transform="translate(-469.246 -333.018)"/>
    <path class="cls-3" d="M893.646,358.953a3.239,3.239,0,0,0,.16-.837c0-.328-.11-.458-.309-.458-.359,0-.559.478-.727,1.186-.06.219-.071.229-.17.229-.02,0-.12,0-.12-.1a5.035,5.035,0,0,1,.3-.966.87.87,0,0,1,.747-.569.9.9,0,0,1,.917.868,1.924,1.924,0,0,1,1.555-.868,1.019,1.019,0,0,1,1.146,1.067,8.982,8.982,0,0,1-.608,2.192,1.893,1.893,0,0,0-.18.707c0,.229.07.329.24.329.488,0,.816-.558,1.015-1.235.051-.15.051-.18.151-.18.029,0,.119,0,.119.1,0,.08-.369,1.534-1.306,1.534a.8.8,0,0,1-.816-.817,1.144,1.144,0,0,1,.1-.458,9.462,9.462,0,0,0,.648-2.322c0-.329-.09-.7-.538-.7a1.979,1.979,0,0,0-1.624,1.216c-.01.04-.09.328-.13.5-.05.229-.11.448-.169.667l-.22.9c-.059.249-.179.717-.189.737a.406.406,0,0,1-.368.279.266.266,0,0,1-.289-.268c0-.051.059-.28.089-.429Z" transform="translate(-469.246 -333.018)"/>
    <path class="cls-3" d="M899.775,364.334H898.41v-.4h.967v-9.166h-.967v-.4h1.365Z" transform="translate(-469.246 -333.018)"/>
    <g>
      <path class="cls-4" d="M747.235,344.937h-5.191v-.31h.239c.767,0,.787-.109.787-.468v-5.251c0-.358-.02-.468-.787-.468h-.239v-.309c.349.03,1.126.03,1.515.03.408,0,1.314,0,1.673-.03v.309H744.9c-.946,0-.946.14-.946.478v5.311c0,.329.02.4.488.4h.817c1.754,0,1.893-1.245,2-2.261h.249Z" transform="translate(-469.246 -333.018)"/>
      <path class="cls-4" d="M753.939,340.433h-.249c-.139-1.6-.289-1.933-1.794-1.933a4.666,4.666,0,0,0-.567.02c-.18.04-.18.179-.18.378v5.251c0,.339,0,.478,1.047.478h.4v.31c-.409-.03-1.436-.03-1.894-.03s-1.474,0-1.883.03v-.31h.4c1.046,0,1.046-.139,1.046-.478V338.9c0-.229,0-.338-.209-.378a4.169,4.169,0,0,0-.538-.02c-1.5,0-1.655.329-1.794,1.933h-.249l.189-2.242h6.088Z" transform="translate(-469.246 -333.018)"/>
    </g>
    <g>
      <path class="cls-4" d="M756.551,344.159c0,.359.029.468.816.468h.26v.31c-.349-.03-1.137-.03-1.524-.03s-1.166,0-1.515.03v-.31h.259c.787,0,.817-.109.817-.468v-5.251c0-.358-.03-.468-.817-.468h-.259v-.309c.349.03,1.136.03,1.524.03s1.166,0,1.515-.03v.309h-.26c-.787,0-.816.11-.816.468Z" transform="translate(-469.246 -333.018)"/>
      <path class="cls-4" d="M764.321,344.169a.8.8,0,0,0,1.166-.966h.249l-.278,1.734h-3.7c0-.24,0-.26.109-.369l1.913-2.132a3.566,3.566,0,0,0,1.047-2.2c0-.816-.429-1.624-1.336-1.624a1.439,1.439,0,0,0-1.345,1.016.425.425,0,0,1,.13-.009.5.5,0,0,1,.528.518.524.524,0,1,1-1.046-.03,1.841,1.841,0,0,1,1.863-1.8,1.957,1.957,0,0,1,2.112,1.933c0,1-.6,1.535-2.152,2.91l-1.056,1.026Z" transform="translate(-469.246 -333.018)"/>
    </g>
    <path class="cls-4" d="M745.234,354.612a1.854,1.854,0,0,1,1.476-.767,1.013,1.013,0,0,1,1.145,1.066,8.9,8.9,0,0,1-.608,2.192,1.916,1.916,0,0,0-.179.708c0,.229.07.329.24.329.547,0,.866-.708,1.015-1.236.05-.15.05-.179.15-.179.03,0,.12,0,.12.1,0,.08-.369,1.534-1.306,1.534a.8.8,0,0,1-.816-.816,1.511,1.511,0,0,1,.129-.548,8.472,8.472,0,0,0,.618-2.232c0-.359-.11-.7-.538-.7a1.582,1.582,0,0,0-.957.349,2.932,2.932,0,0,0-.677.917c-.011.059-.09.388-.11.448-.05.229-.11.449-.169.667l-.22.9-.189.758a.415.415,0,0,1-.369.258.273.273,0,0,1-.289-.278.616.616,0,0,1,.04-.22l1.445-5.739.03-.2c0-.1-.02-.17-.5-.17-.15,0-.239,0-.239-.119,0-.179.109-.189.189-.2.259-.02.986-.1,1.216-.1.129,0,.129.1.129.11Z" transform="translate(-469.246 -333.018)"/>
    <path class="cls-4" d="M752.223,359.687H749.35c0-.2,0-.209.069-.272l1.681-1.66a2.119,2.119,0,0,0,.655-1.339,1.044,1.044,0,0,0-1.06-1.109,1.1,1.1,0,0,0-1.018.649c.363,0,.412.244.412.369a.37.37,0,1,1-.739-.02,1.352,1.352,0,0,1,1.45-1.249,1.46,1.46,0,0,1,1.632,1.36,2.018,2.018,0,0,1-1,1.506c-.419.328-.663.523-1.395,1.172h1.283a3.6,3.6,0,0,0,.691-.042,1.618,1.618,0,0,0,.18-.635h.238Z" transform="translate(-469.246 -333.018)"/>
    <path class="cls-4" d="M754.531,360.74v-9.964H755.9v.4h-.966v9.166h.966v.4Z" transform="translate(-469.246 -333.018)"/>
    <path class="cls-4" d="M757.568,355.359a3.239,3.239,0,0,0,.16-.837c0-.328-.11-.458-.309-.458-.359,0-.559.478-.728,1.186-.059.219-.07.229-.17.229-.019,0-.119,0-.119-.1a5.035,5.035,0,0,1,.3-.966.869.869,0,0,1,.747-.568.9.9,0,0,1,.917.867,1.922,1.922,0,0,1,1.555-.867,1.018,1.018,0,0,1,1.145,1.066,9.024,9.024,0,0,1-.607,2.192,1.9,1.9,0,0,0-.18.708c0,.229.07.329.24.329.488,0,.816-.558,1.015-1.236.051-.15.051-.179.151-.179.029,0,.119,0,.119.1,0,.08-.369,1.534-1.306,1.534a.8.8,0,0,1-.816-.816,1.13,1.13,0,0,1,.1-.459,9.511,9.511,0,0,0,.648-2.321c0-.329-.09-.7-.538-.7a1.981,1.981,0,0,0-1.624,1.216c-.01.04-.09.328-.13.5-.05.229-.11.449-.169.667l-.22.9c-.059.249-.179.718-.189.738a.407.407,0,0,1-.369.278.266.266,0,0,1-.289-.268c0-.05.06-.279.09-.429Z" transform="translate(-469.246 -333.018)"/>
    <path class="cls-4" d="M763.7,360.74h-1.365v-.4h.967v-9.166h-.967v-.4H763.7Z" transform="translate(-469.246 -333.018)"/>
    <polygon class="cls-2" points="263.469 15.667 263.469 1.494 305.989 1.494 305.989 29.84 263.469 29.84 263.469 15.667"/>
    <polyline points="329.8 17.934 334.335 15.667 329.8 13.399 330.934 15.667"/>
    <line class="cls-2" x1="305.989" y1="15.667" x2="330.934" y2="15.667"/>
    <path class="cls-1" d="M783.5,340.6a1.191,1.191,0,0,1-1.335-1.236,6.082,6.082,0,0,1,.569-2.042,2.062,2.062,0,0,0,.168-.7c0-.319-.168-.319-.249-.319-.289,0-.717.23-1,1.236-.05.159-.061.179-.161.179-.019,0-.119,0-.119-.1s.379-1.535,1.316-1.535a.79.79,0,0,1,.816.817,1.231,1.231,0,0,1-.119.5,6.992,6.992,0,0,0-.578,2.113c0,.518.229.867.737.867,1.166,0,1.774-2.282,1.774-2.7a1.068,1.068,0,0,0-.339-.817c-.11-.109-.159-.169-.159-.3a.532.532,0,0,1,.488-.478c.18,0,.438.16.438.7C785.737,337.3,785.169,340.6,783.5,340.6Z" transform="translate(-469.246 -333.018)"/>
    <path class="cls-1" d="M787.406,342.982v-9.964h1.365v.4h-.966v9.166h.966v.4Z" transform="translate(-469.246 -333.018)"/>
    <path class="cls-1" d="M790.443,337.6a3.253,3.253,0,0,0,.16-.837c0-.329-.11-.459-.309-.459-.359,0-.559.479-.728,1.186-.059.219-.07.229-.17.229-.019,0-.119,0-.119-.1a5.058,5.058,0,0,1,.3-.967.871.871,0,0,1,.747-.568.9.9,0,0,1,.917.867,1.925,1.925,0,0,1,1.555-.867,1.018,1.018,0,0,1,1.145,1.066,9.024,9.024,0,0,1-.607,2.192,1.9,1.9,0,0,0-.18.708c0,.229.07.329.24.329.488,0,.816-.558,1.015-1.236.051-.149.051-.179.151-.179.029,0,.119,0,.119.1,0,.08-.369,1.535-1.306,1.535a.8.8,0,0,1-.816-.817,1.13,1.13,0,0,1,.1-.459A9.5,9.5,0,0,0,793.3,337c0-.329-.09-.7-.538-.7a1.981,1.981,0,0,0-1.624,1.216c-.01.04-.09.329-.13.5-.05.23-.11.449-.169.668l-.22.9c-.059.249-.179.718-.189.738a.408.408,0,0,1-.369.279.267.267,0,0,1-.289-.269c0-.05.06-.279.09-.429Z" transform="translate(-469.246 -333.018)"/>
    <path class="cls-1" d="M796.58,342.982h-1.365v-.4h.967v-9.166h-.967v-.4h1.365Z" transform="translate(-469.246 -333.018)"/>
    <path class="cls-3" d="M780.633,358.206a1.852,1.852,0,0,1,1.475-.768,1.014,1.014,0,0,1,1.146,1.067,8.9,8.9,0,0,1-.608,2.192,1.911,1.911,0,0,0-.179.707c0,.229.069.329.239.329.548,0,.866-.707,1.016-1.235.049-.15.049-.18.149-.18.03,0,.12,0,.12.1,0,.08-.369,1.534-1.3,1.534a.8.8,0,0,1-.817-.817,1.516,1.516,0,0,1,.129-.548,8.462,8.462,0,0,0,.618-2.232c0-.358-.109-.7-.538-.7a1.584,1.584,0,0,0-.957.349,2.948,2.948,0,0,0-.677.916c-.01.06-.09.389-.11.449-.05.229-.109.448-.169.667l-.22.9-.188.757a.415.415,0,0,1-.369.259.274.274,0,0,1-.289-.279.615.615,0,0,1,.04-.219l1.444-5.739.03-.2c0-.1-.019-.17-.5-.17-.149,0-.239,0-.239-.119,0-.18.109-.189.189-.2.259-.02.987-.1,1.216-.1.129,0,.129.1.129.11Z" transform="translate(-469.246 -333.018)"/>
    <path class="cls-3" d="M787.629,363.3h-2.873c0-.195,0-.209.069-.272l1.681-1.66a2.119,2.119,0,0,0,.655-1.339,1.043,1.043,0,0,0-1.059-1.108,1.1,1.1,0,0,0-1.019.648c.363,0,.412.244.412.37a.37.37,0,1,1-.739-.021,1.352,1.352,0,0,1,1.45-1.248,1.459,1.459,0,0,1,1.632,1.359,2.021,2.021,0,0,1-1,1.507c-.419.327-.662.523-1.395,1.171h1.283a3.6,3.6,0,0,0,.691-.042,1.63,1.63,0,0,0,.181-.634h.237Z" transform="translate(-469.246 -333.018)"/>
    <path class="cls-3" d="M789.93,364.334V354.37H791.3v.4h-.967v9.166h.967v.4Z" transform="translate(-469.246 -333.018)"/>
    <path class="cls-3" d="M792.967,358.953a3.22,3.22,0,0,0,.159-.837c0-.328-.109-.458-.309-.458-.359,0-.558.478-.727,1.186-.06.219-.07.229-.17.229-.02,0-.119,0-.119-.1a4.96,4.96,0,0,1,.3-.966.869.869,0,0,1,.747-.569.9.9,0,0,1,.917.868,1.922,1.922,0,0,1,1.554-.868,1.019,1.019,0,0,1,1.146,1.067,8.982,8.982,0,0,1-.608,2.192,1.911,1.911,0,0,0-.179.707c0,.229.069.329.239.329.488,0,.816-.558,1.016-1.235.05-.15.05-.18.15-.18.029,0,.119,0,.119.1,0,.08-.369,1.534-1.305,1.534a.8.8,0,0,1-.817-.817,1.132,1.132,0,0,1,.1-.458,9.507,9.507,0,0,0,.647-2.322c0-.329-.09-.7-.538-.7a1.981,1.981,0,0,0-1.624,1.216c-.01.04-.09.328-.13.5-.05.229-.109.448-.169.667l-.219.9c-.06.249-.179.717-.19.737a.405.405,0,0,1-.368.279.266.266,0,0,1-.289-.268c0-.051.059-.28.09-.429Z" transform="translate(-469.246 -333.018)"/>
    <path class="cls-3" d="M799.1,364.334H797.73v-.4h.967v-9.166h-.967v-.4H799.1Z" transform="translate(-469.246 -333.018)"/>
    <path d="M563.877,381.09a4.828,4.828,0,0,0,1.454.857c.12,0,.12-.12.12-.2,0-.14-.01-.15-.209-.239a4.586,4.586,0,0,1-2.422-2.551.114.114,0,0,0-.109-.08c-.07,0-.08.03-.14.169a4.512,4.512,0,0,1-2.5,2.5c-.1.05-.1.1-.1.2,0,.079,0,.2.119.2a4.828,4.828,0,0,0,1.455-.857v5.979a4.8,4.8,0,0,0-1.455-.857c-.119,0-.119.119-.119.2,0,.139.01.149.209.239A4.573,4.573,0,0,1,562.6,389.2a.114.114,0,0,0,.11.079c.07,0,.079-.029.139-.169a4.518,4.518,0,0,1,2.5-2.5c.1-.05.1-.1.1-.2,0-.08,0-.2-.12-.2a4.8,4.8,0,0,0-1.454.857Zm-1.933-.4a5,5,0,0,0,.767-1.047,5.289,5.289,0,0,0,.767,1.047v6.775a5,5,0,0,0-.767,1.046,5.278,5.278,0,0,0-.767-1.046Z" transform="translate(-469.246 -333.018)"/>
    <polyline points="32.164 88.8 36.699 86.533 32.164 84.265 33.297 86.533"/>
    <line class="cls-2" x1="8.353" y1="86.533" x2="33.297" y2="86.533"/>
    <path class="cls-1" d="M479.141,409.761a3.851,3.851,0,0,0-.169.877c0,.339.159.658.548.658.318,0,1-.239,1.325-1.306.02-.069.04-.109.13-.109.029,0,.119,0,.119.1,0,.249-.568,1.535-1.594,1.535a1.1,1.1,0,0,1-1.076-.757,1.327,1.327,0,0,1-1.047.757c-.438,0-.936-.2-.936-.658a.566.566,0,0,1,.548-.578.341.341,0,0,1,.368.349.565.565,0,0,1-.468.538.958.958,0,0,0,.5.13c.439,0,.787-.419.947-1.036a14.5,14.5,0,0,0,.538-2.372c0-.577-.349-.667-.538-.667-.339,0-1,.249-1.335,1.3-.02.09-.05.111-.13.111-.02,0-.119,0-.119-.1,0-.25.568-1.535,1.6-1.535a1.1,1.1,0,0,1,1.076.758,1.288,1.288,0,0,1,1.046-.758c.339,0,.927.14.927.658a.555.555,0,0,1-.538.577.347.347,0,0,1-.379-.348.578.578,0,0,1,.478-.538.98.98,0,0,0-.5-.129c-.7,0-.926.916-.986,1.175Z" transform="translate(-469.246 -333.018)"/>
    <path class="cls-1" d="M482.968,413.9v-9.963h1.365v.4h-.966V413.5h.966v.4Z" transform="translate(-469.246 -333.018)"/>
    <path class="cls-1" d="M486.005,408.516a3.2,3.2,0,0,0,.16-.837c0-.329-.11-.458-.31-.458-.358,0-.558.477-.727,1.185-.06.219-.069.23-.169.23-.02,0-.12,0-.12-.1a5.058,5.058,0,0,1,.3-.967.871.871,0,0,1,.747-.568.9.9,0,0,1,.917.867,1.928,1.928,0,0,1,1.554-.867,1.018,1.018,0,0,1,1.146,1.066,8.987,8.987,0,0,1-.607,2.193,1.893,1.893,0,0,0-.18.707c0,.229.07.329.24.329.487,0,.816-.559,1.016-1.235.05-.15.05-.18.149-.18.03,0,.12,0,.12.1,0,.081-.369,1.535-1.305,1.535a.8.8,0,0,1-.818-.817,1.136,1.136,0,0,1,.1-.459,9.485,9.485,0,0,0,.648-2.321c0-.329-.09-.7-.538-.7a1.98,1.98,0,0,0-1.624,1.215c-.011.04-.09.329-.13.5-.05.228-.11.448-.169.667l-.219.9c-.06.249-.18.717-.19.737a.406.406,0,0,1-.369.279.267.267,0,0,1-.289-.269c0-.05.06-.279.09-.429Z" transform="translate(-469.246 -333.018)"/>
    <path class="cls-1" d="M492.135,413.9H490.77v-.4h.966v-9.167h-.966v-.4h1.365Z" transform="translate(-469.246 -333.018)"/>
    <path class="cls-3" d="M478.544,426.589c0-.6.359-1.026,1.136-1.026a3.3,3.3,0,0,1,.817.11c.358.079.518.109.518.329a.418.418,0,0,1-.4.4,1.367,1.367,0,0,1-.548-.249,1.207,1.207,0,0,0-.707-.269.5.5,0,0,0-.548.458,3.944,3.944,0,0,0,.946,1.635,2.794,2.794,0,0,1,.738,1.853c0,1.375-.827,2.939-1.993,2.939a1.566,1.566,0,0,1-1.574-1.674,3.045,3.045,0,0,1,2.212-2.8A4.077,4.077,0,0,1,478.544,426.589Zm-1,4.783c0,.757.409,1.176.957,1.176.927,0,1.305-1.664,1.305-2.321a3.454,3.454,0,0,0-.548-1.714C477.916,428.871,477.547,430.744,477.547,431.372Z" transform="translate(-469.246 -333.018)"/>
    <path class="cls-3" d="M482.484,435.139v-9.964h1.365v.4h-.967v9.167h.967v.4Z" transform="translate(-469.246 -333.018)"/>
    <path class="cls-3" d="M485.521,429.758a3.227,3.227,0,0,0,.159-.837c0-.329-.11-.458-.309-.458-.358,0-.558.477-.727,1.185-.06.219-.07.23-.169.23-.02,0-.12,0-.12-.1a4.96,4.96,0,0,1,.3-.966.869.869,0,0,1,.747-.569.9.9,0,0,1,.917.867,1.926,1.926,0,0,1,1.554-.867,1.019,1.019,0,0,1,1.146,1.067,8.937,8.937,0,0,1-.608,2.192,1.892,1.892,0,0,0-.179.707c0,.229.07.329.239.329.488,0,.817-.559,1.016-1.235.05-.15.05-.18.15-.18.03,0,.119,0,.119.1,0,.08-.368,1.534-1.305,1.534a.8.8,0,0,1-.817-.817,1.136,1.136,0,0,1,.1-.459,9.486,9.486,0,0,0,.647-2.321c0-.329-.089-.7-.538-.7a1.983,1.983,0,0,0-1.624,1.215c-.01.04-.09.329-.13.5-.049.228-.109.448-.169.667l-.219.9c-.06.249-.179.717-.189.738a.407.407,0,0,1-.369.278.267.267,0,0,1-.289-.269c0-.05.06-.279.09-.428Z" transform="translate(-469.246 -333.018)"/>
    <path class="cls-3" d="M491.658,435.139h-1.365v-.4h.966v-9.167h-.966v-.4h1.365Z" transform="translate(-469.246 -333.018)"/>
    <polyline points="173.895 88.8 178.431 86.533 173.895 84.265 175.029 86.533"/>
    <line class="cls-2" x1="135.911" y1="86.533" x2="175.029" y2="86.533"/>
    <path class="cls-1" d="M629.077,411.415a2.629,2.629,0,0,1-2.332,2.033.942.942,0,0,1-1.056-.867.574.574,0,0,1,.558-.647.34.34,0,0,1,.369.348.538.538,0,0,1-.2.408.567.567,0,0,1-.429.121.805.805,0,0,0,.757.418,1.426,1.426,0,0,0,1.1-.628,3.824,3.824,0,0,0,.648-1.535,1.4,1.4,0,0,1-1.007.449,1.111,1.111,0,0,1-1.215-1.186,6.572,6.572,0,0,1,.578-2.093,2.092,2.092,0,0,0,.169-.7c0-.318-.169-.318-.249-.318-.339,0-.737.3-1.006,1.235-.05.159-.06.18-.159.18-.02,0-.12,0-.12-.1s.369-1.535,1.315-1.535a.79.79,0,0,1,.817.817,1.806,1.806,0,0,1-.2.718,5.929,5.929,0,0,0-.508,1.952c0,.369.109.808.617.808a1.384,1.384,0,0,0,1.126-.848l.449-1.793c.06-.269.13-.538.2-.8.04-.179.12-.488.14-.538a.434.434,0,0,1,.348-.21.267.267,0,0,1,.289.27.625.625,0,0,1-.04.229Z" transform="translate(-469.246 -333.018)"/>
    <path class="cls-1" d="M631.648,413.9v-9.963h1.365v.4h-.967V413.5h.967v.4Z" transform="translate(-469.246 -333.018)"/>
    <path class="cls-1" d="M634.685,408.516a3.227,3.227,0,0,0,.159-.837c0-.329-.11-.458-.309-.458-.358,0-.558.477-.727,1.185-.06.219-.07.23-.169.23-.02,0-.12,0-.12-.1a4.983,4.983,0,0,1,.3-.967.87.87,0,0,1,.747-.568.9.9,0,0,1,.917.867,1.926,1.926,0,0,1,1.554-.867,1.018,1.018,0,0,1,1.146,1.066,8.945,8.945,0,0,1-.608,2.193,1.892,1.892,0,0,0-.179.707c0,.229.07.329.239.329.488,0,.817-.559,1.016-1.235.05-.15.05-.18.15-.18.03,0,.119,0,.119.1,0,.081-.368,1.535-1.3,1.535a.8.8,0,0,1-.817-.817,1.136,1.136,0,0,1,.1-.459,9.486,9.486,0,0,0,.647-2.321c0-.329-.089-.7-.538-.7a1.983,1.983,0,0,0-1.624,1.215c-.01.04-.09.329-.13.5-.049.228-.109.448-.169.667l-.219.9c-.06.249-.179.717-.189.737a.406.406,0,0,1-.369.279.267.267,0,0,1-.289-.269c0-.05.06-.279.09-.429Z" transform="translate(-469.246 -333.018)"/>
    <path class="cls-1" d="M640.814,413.9h-1.365v-.4h.967v-9.167h-.967v-.4h1.365Z" transform="translate(-469.246 -333.018)"/>
    <path class="cls-3" d="M609.156,429.011a1.852,1.852,0,0,1,1.475-.768,1.014,1.014,0,0,1,1.146,1.067,8.961,8.961,0,0,1-.608,2.192,1.892,1.892,0,0,0-.179.707c0,.229.069.329.239.329.548,0,.867-.708,1.016-1.235.05-.15.05-.18.15-.18.029,0,.119,0,.119.1,0,.08-.368,1.534-1.305,1.534a.8.8,0,0,1-.817-.817,1.5,1.5,0,0,1,.129-.548,8.472,8.472,0,0,0,.618-2.232c0-.358-.11-.7-.538-.7a1.578,1.578,0,0,0-.956.349,2.939,2.939,0,0,0-.678.916c-.01.06-.09.388-.11.449-.049.228-.109.448-.169.667l-.219.9-.19.757a.414.414,0,0,1-.368.259.274.274,0,0,1-.289-.278.61.61,0,0,1,.04-.22l1.444-5.739.03-.2c0-.1-.02-.169-.5-.169-.149,0-.239,0-.239-.12,0-.179.109-.189.189-.2.259-.019.987-.1,1.216-.1.13,0,.13.1.13.11Z" transform="translate(-469.246 -333.018)"/>
    <path class="cls-3" d="M615.167,433.521c0,.23,0,.321.7.321h.265v.251c-.153-.007-1.032-.029-1.248-.029-.258,0-1.116.022-1.241.029v-.251h.264c.7,0,.7-.091.7-.321v-3.556a2.3,2.3,0,0,1-1.011.2v-.251a1.908,1.908,0,0,0,1.366-.446c.2,0,.209.007.209.195Z" transform="translate(-469.246 -333.018)"/>
    <path class="cls-3" d="M618.445,435.139v-9.964h1.365v.4h-.967v9.167h.967v.4Z" transform="translate(-469.246 -333.018)"/>
    <path class="cls-3" d="M621.489,429.758a3.2,3.2,0,0,0,.16-.837c0-.329-.11-.458-.309-.458-.359,0-.558.477-.727,1.185-.06.219-.07.23-.17.23-.02,0-.119,0-.119-.1a4.96,4.96,0,0,1,.3-.966.869.869,0,0,1,.747-.569.9.9,0,0,1,.917.867,1.924,1.924,0,0,1,1.554-.867,1.019,1.019,0,0,1,1.146,1.067,8.982,8.982,0,0,1-.608,2.192,1.892,1.892,0,0,0-.179.707c0,.229.07.329.239.329.488,0,.817-.559,1.016-1.235.05-.15.05-.18.149-.18.03,0,.12,0,.12.1,0,.08-.369,1.534-1.305,1.534a.8.8,0,0,1-.817-.817,1.136,1.136,0,0,1,.1-.459,9.486,9.486,0,0,0,.647-2.321c0-.329-.09-.7-.538-.7a1.98,1.98,0,0,0-1.624,1.215c-.01.04-.09.329-.13.5-.05.228-.109.448-.169.667l-.219.9c-.06.249-.18.717-.19.738a.405.405,0,0,1-.368.278.266.266,0,0,1-.289-.269c0-.05.06-.279.09-.428Z" transform="translate(-469.246 -333.018)"/>
    <path class="cls-3" d="M627.619,435.139h-1.365v-.4h.966v-9.167h-.966v-.4h1.365Z" transform="translate(-469.246 -333.018)"/>
    <path class="cls-3" d="M633.674,429.947l1.117-.807c.249-.189.268-.189.338-.189a.282.282,0,0,1,.269.278c0,.15-.08.19-.239.27l-1.375.667c.787.369.807.369,1.4.668.12.06.209.109.209.259a.291.291,0,0,1-.269.279c-.07,0-.089-.019-.179-.069l-1.276-.927.15,1.674a.264.264,0,0,1-.528,0l.149-1.674-1.116.807c-.249.189-.269.189-.339.189a.284.284,0,0,1-.269-.279c0-.15.08-.19.239-.269l1.375-.668-1.414-.677c-.1-.05-.2-.089-.2-.25a.291.291,0,0,1,.269-.278c.07,0,.09.02.18.07l1.275.926-.139-1.545v-.129c-.03-.129.1-.258.259-.258.259,0,.259.238.249.378Z" transform="translate(-469.246 -333.018)"/>
    <path class="cls-3" d="M640.352,429.011a1.848,1.848,0,0,1,1.474-.768,1.014,1.014,0,0,1,1.146,1.067,8.961,8.961,0,0,1-.608,2.192,1.892,1.892,0,0,0-.179.707c0,.229.069.329.239.329.548,0,.867-.708,1.016-1.235.05-.15.05-.18.15-.18.03,0,.119,0,.119.1,0,.08-.368,1.534-1.3,1.534a.8.8,0,0,1-.817-.817,1.5,1.5,0,0,1,.13-.548,8.468,8.468,0,0,0,.617-2.232c0-.358-.109-.7-.538-.7a1.581,1.581,0,0,0-.956.349,2.939,2.939,0,0,0-.678.916c-.01.06-.089.388-.109.449-.05.228-.11.448-.17.667l-.219.9-.189.757a.414.414,0,0,1-.369.259.274.274,0,0,1-.289-.278.61.61,0,0,1,.04-.22l1.445-5.739.03-.2c0-.1-.02-.169-.5-.169-.149,0-.239,0-.239-.12,0-.179.11-.189.19-.2.258-.019.986-.1,1.215-.1.13,0,.13.1.13.11Z" transform="translate(-469.246 -333.018)"/>
    <path class="cls-3" d="M647.347,434.093h-2.873c0-.2,0-.209.07-.272l1.68-1.66a2.119,2.119,0,0,0,.656-1.339,1.044,1.044,0,0,0-1.06-1.108,1.1,1.1,0,0,0-1.018.648c.363,0,.411.244.411.369a.37.37,0,1,1-.739-.02,1.352,1.352,0,0,1,1.45-1.248,1.459,1.459,0,0,1,1.632,1.359,2.017,2.017,0,0,1-1,1.506c-.418.328-.663.524-1.394,1.172h1.282a3.594,3.594,0,0,0,.691-.042,1.608,1.608,0,0,0,.181-.635h.237Z" transform="translate(-469.246 -333.018)"/>
    <path class="cls-3" d="M649.648,435.139v-9.964h1.365v.4h-.967v9.167h.967v.4Z" transform="translate(-469.246 -333.018)"/>
    <path class="cls-3" d="M652.685,429.758a3.227,3.227,0,0,0,.159-.837c0-.329-.11-.458-.309-.458-.358,0-.558.477-.727,1.185-.06.219-.07.23-.169.23-.02,0-.12,0-.12-.1a4.96,4.96,0,0,1,.3-.966.869.869,0,0,1,.747-.569.9.9,0,0,1,.917.867,1.926,1.926,0,0,1,1.554-.867,1.019,1.019,0,0,1,1.146,1.067,8.937,8.937,0,0,1-.608,2.192,1.892,1.892,0,0,0-.179.707c0,.229.07.329.239.329.488,0,.817-.559,1.016-1.235.05-.15.05-.18.15-.18.03,0,.119,0,.119.1,0,.08-.368,1.534-1.3,1.534a.8.8,0,0,1-.817-.817,1.136,1.136,0,0,1,.1-.459,9.486,9.486,0,0,0,.647-2.321c0-.329-.089-.7-.538-.7a1.983,1.983,0,0,0-1.624,1.215c-.01.04-.09.329-.13.5-.049.228-.109.448-.169.667l-.219.9c-.06.249-.179.717-.189.738a.407.407,0,0,1-.369.278.267.267,0,0,1-.289-.269c0-.05.06-.279.09-.428Z" transform="translate(-469.246 -333.018)"/>
    <path class="cls-3" d="M658.822,435.139h-1.365v-.4h.966v-9.167h-.966v-.4h1.365Z" transform="translate(-469.246 -333.018)"/>
    <g>
      <path class="cls-1" d="M523.952,408.892c0-.36-.02-.469-.787-.469h-.239v-.309h5.61l.279,2.242h-.25c-.159-1.385-.428-1.933-1.952-1.933h-1.286c-.468,0-.488.07-.488.4v2.392h.9c.966,0,1.076-.309,1.076-1.166h.249v2.641h-.249c0-.847-.11-1.167-1.076-1.167h-.9v2.662c0,.328.02.4.488.4h1.325c1.714,0,1.944-.727,2.193-2.262h.249l-.419,2.571h-5.749v-.309h.239c.767,0,.787-.11.787-.469Z" transform="translate(-469.246 -333.018)"/>
      <path class="cls-1" d="M531.853,415a2.2,2.2,0,0,1-2.123-2.252,2.242,2.242,0,0,1,2.2-2.262,1.507,1.507,0,0,1,1.335.908l.378-.908h.219v5.58c0,.449.11.449.778.449v.308c-.349-.009-.857-.029-1.126-.029s-.777.02-1.116.029v-.308c.667,0,.777,0,.777-.449v-1.783A1.635,1.635,0,0,1,531.853,415Zm.139-4.265c-.737,0-1.434.828-1.434,2.013,0,1.147.607,2.033,1.335,2.033a1.4,1.4,0,0,0,1.315-1.246v-1.4C533.208,411.6,532.79,410.734,531.992,410.734Z" transform="translate(-469.246 -333.018)"/>
      <path class="cls-1" d="M537.272,415c-1.514,0-1.514-.906-1.514-1.684v-1.5c0-.886,0-.916-.778-.916V410.6l1.465-.11v3.309c0,.518.04.986.877.986.727,0,1.206-.677,1.206-1.545v-1.773c0-.488-.08-.558-.778-.558V410.6l1.465-.11v3.537c0,.489.08.559.777.559v.309l-1.434.109v-.9A1.359,1.359,0,0,1,537.272,415Z" transform="translate(-469.246 -333.018)"/>
      <path class="cls-1" d="M541.975,414.143c0,.388.04.438.7.438v.309c-.339-.01-.688-.031-1.036-.031-.24,0-.778.021-1.1.031v-.309c.668,0,.777,0,.777-.448v-2.681c0-.488-.09-.548-.737-.548V410.6l1.395-.11Zm-.489-4.863a.531.531,0,0,1-.528-.528.538.538,0,0,1,.528-.528.528.528,0,1,1,0,1.056Z" transform="translate(-469.246 -333.018)"/>
    </g>
    <g>
      <path class="cls-1" d="M545.828,414.81c-.04.1-.08.189-.21.189s-.149-.05-.209-.189l-1.435-3.538c-.129-.308-.169-.368-.8-.368V410.6c.3.02.7.03.967.03.229,0,.787-.02,1.085-.03v.309c-.179,0-.567,0-.567.259,0,.02,0,.04.06.169l1.115,2.78,1.017-2.541a.594.594,0,0,0,.06-.239c0-.188-.11-.418-.478-.428V410.6c.168.01.627.03.866.03s.518-.01.747-.03v.309a.9.9,0,0,0-.916.667Z" transform="translate(-469.246 -333.018)"/>
      <path class="cls-1" d="M549.673,415c-.628,0-1.594-.249-1.594-1.056a1.453,1.453,0,0,1,1-1.3,4.867,4.867,0,0,1,1.833-.358v-.369a1.128,1.128,0,0,0-1.056-1.275,1.4,1.4,0,0,0-1.076.459.451.451,0,0,1,.508.458.458.458,0,1,1-.916-.01c0-.657.687-1.126,1.5-1.126a1.9,1.9,0,0,1,1.365.548,1.472,1.472,0,0,1,.359,1.175v1.994c0,.049.04.5.368.5.11,0,.359-.06.359-.638v-.558h.249V414a.846.846,0,0,1-.817.946.834.834,0,0,1-.777-.816A1.377,1.377,0,0,1,549.673,415Zm-.827-1.066a.857.857,0,0,0,.9.847,1.2,1.2,0,0,0,1.165-1.285v-1C549.264,412.558,548.846,413.385,548.846,413.933Z" transform="translate(-469.246 -333.018)"/>
    </g>
    <g>
      <path class="cls-1" d="M554.47,414.133c0,.448.11.448.778.448v.309c-.369-.01-.857-.031-1.107-.031s-.777.021-1.106.031v-.309c.668,0,.778,0,.778-.448v-5.182c0-.488-.08-.557-.778-.557v-.31l1.435-.109Z" transform="translate(-469.246 -333.018)"/>
      <path class="cls-1" d="M556.861,414.083a1.343,1.343,0,0,0,1.126.667,1.4,1.4,0,0,0,1.345-1.026c.02-.079.04-.14.129-.14a.116.116,0,0,1,.13.12,1.7,1.7,0,0,1-1.664,1.3,2.249,2.249,0,0,1-2.192-2.3,2.177,2.177,0,0,1,2.073-2.271,1.767,1.767,0,0,1,1.783,1.953c0,.209-.03.209-.249.209h-2.78A2.9,2.9,0,0,0,556.861,414.083Zm2.073-1.7c0-.389-.1-1.734-1.126-1.734-.339,0-1.176.25-1.236,1.734Z" transform="translate(-469.246 -333.018)"/>
    </g>
    <g>
      <path class="cls-1" d="M560.221,410.9V410.6l1.4-.11v1.047a1.573,1.573,0,0,1,1.475-1.047,1.328,1.328,0,0,1,1.046.369c.31.359.31.667.31,1.525v1.9c.009.3.258.3.776.3v.309c-.338-.01-.857-.031-1.115-.031s-.778.021-1.126.031v-.309c.667,0,.777,0,.777-.448v-2.322c0-.568-.11-1.106-.737-1.106a1.455,1.455,0,0,0-1.345,1.594v1.834c0,.448.109.448.776.448v.309c-.338-.01-.857-.031-1.115-.031s-.778.021-1.126.031v-.309c.667,0,.777,0,.777-.448v-2.671C561,410.974,560.918,410.9,560.221,410.9Z" transform="translate(-469.246 -333.018)"/>
      <path class="cls-1" d="M566.9,413.674c0,.17,0,1.076.667,1.076.369,0,.668-.379.668-1.116v-.548h.249v.568c0,.638-.279,1.345-.986,1.345a1.205,1.205,0,0,1-1.286-1.345V410.9h-.847v-.219c.977-.04,1.276-1.106,1.285-1.923h.25V410.6h1.424v.309H566.9Z" transform="translate(-469.246 -333.018)"/>
    </g>
    <g>
      <path class="cls-1" d="M577.781,414.89H572.59v-.309h.239c.767,0,.787-.11.787-.469v-5.251c0-.358-.02-.467-.787-.467h-.239v-.31c.349.03,1.126.03,1.514.03.409,0,1.316,0,1.674-.03v.31h-.328c-.947,0-.947.138-.947.477v5.312c0,.328.02.4.488.4h.818c1.753,0,1.893-1.246,2-2.262h.249Z" transform="translate(-469.246 -333.018)"/>
      <path class="cls-1" d="M584.486,410.386h-.249c-.139-1.605-.289-1.933-1.793-1.933a4.666,4.666,0,0,0-.568.02c-.179.04-.179.179-.179.379V414.1c0,.338,0,.478,1.046.478h.4v.309c-.408-.031-1.434-.031-1.893-.031s-1.475,0-1.883.031v-.309h.4c1.046,0,1.046-.14,1.046-.478v-5.251c0-.23,0-.339-.209-.379a4.169,4.169,0,0,0-.538-.02c-1.5,0-1.655.328-1.794,1.933h-.249l.189-2.242H584.3Z" transform="translate(-469.246 -333.018)"/>
    </g>
    <path class="cls-1" d="M587.1,414.112c0,.359.031.469.818.469h.259v.309c-.349-.031-1.136-.031-1.525-.031s-1.165,0-1.514.031v-.309h.259c.787,0,.817-.11.817-.469v-5.251c0-.358-.03-.467-.817-.467h-.259v-.31c.349.03,1.136.03,1.525.03s1.165,0,1.514-.03v.31h-.259c-.787,0-.818.109-.818.467Z" transform="translate(-469.246 -333.018)"/>
    <path class="cls-1" d="M515.914,425.534a1.851,1.851,0,0,1,1.475-.767,1.014,1.014,0,0,1,1.146,1.066,8.949,8.949,0,0,1-.608,2.192,1.892,1.892,0,0,0-.179.707c0,.23.069.33.238.33.549,0,.868-.708,1.017-1.236.05-.149.05-.18.149-.18.03,0,.12,0,.12.1,0,.08-.369,1.534-1.305,1.534a.8.8,0,0,1-.818-.816,1.508,1.508,0,0,1,.13-.549,8.455,8.455,0,0,0,.618-2.231c0-.359-.11-.7-.538-.7a1.59,1.59,0,0,0-.957.349,2.925,2.925,0,0,0-.677.916c-.01.061-.09.389-.11.449-.05.229-.11.448-.169.667l-.219.9-.19.756a.414.414,0,0,1-.369.259.274.274,0,0,1-.289-.278.613.613,0,0,1,.04-.22l1.445-5.739.03-.2c0-.1-.02-.169-.5-.169-.149,0-.239,0-.239-.12,0-.18.109-.19.189-.2.259-.019.987-.1,1.216-.1.129,0,.129.1.129.109Z" transform="translate(-469.246 -333.018)"/>
    <path class="cls-1" d="M520.765,431.662V421.7h1.365v.4h-.966v9.167h.966v.4Z" transform="translate(-469.246 -333.018)"/>
    <path class="cls-1" d="M523.8,426.281a3.175,3.175,0,0,0,.159-.837c0-.329-.109-.458-.309-.458-.358,0-.558.478-.727,1.186-.06.219-.07.229-.169.229-.02,0-.12,0-.12-.1a4.983,4.983,0,0,1,.3-.967.869.869,0,0,1,.747-.568.9.9,0,0,1,.917.867,1.925,1.925,0,0,1,1.554-.867,1.018,1.018,0,0,1,1.146,1.066,8.937,8.937,0,0,1-.608,2.192,1.911,1.911,0,0,0-.179.707c0,.23.07.33.239.33.488,0,.817-.559,1.017-1.236.049-.149.049-.18.149-.18.03,0,.12,0,.12.1,0,.08-.369,1.534-1.306,1.534a.8.8,0,0,1-.817-.816,1.133,1.133,0,0,1,.1-.459,9.5,9.5,0,0,0,.648-2.321c0-.33-.09-.7-.538-.7A1.982,1.982,0,0,0,524.5,426.2c-.011.04-.09.329-.13.5-.05.229-.11.448-.169.667l-.22.9c-.06.249-.179.716-.189.737a.407.407,0,0,1-.369.278.267.267,0,0,1-.289-.268c0-.05.06-.28.09-.429Z" transform="translate(-469.246 -333.018)"/>
    <g>
      <path class="cls-1" d="M529.939,431.662h-1.365v-.4h.967V422.1h-.967v-.4h1.365Z" transform="translate(-469.246 -333.018)"/>
      <path class="cls-1" d="M534.761,425.913c-.15,0-.339,0-.339-.2s.189-.2.329-.2h5.968c.14,0,.329,0,.329.2s-.189.2-.339.2Zm-.01,1.933c-.14,0-.329,0-.329-.2s.189-.2.339-.2h5.948c.15,0,.339,0,.339.2s-.189.2-.329.2Z" transform="translate(-469.246 -333.018)"/>
    </g>
    <path class="cls-1" d="M546.516,425.534a1.847,1.847,0,0,1,1.474-.767,1.013,1.013,0,0,1,1.146,1.066,8.9,8.9,0,0,1-.608,2.192,1.892,1.892,0,0,0-.179.707c0,.23.069.33.239.33.548,0,.867-.708,1.016-1.236.05-.149.05-.18.15-.18.03,0,.12,0,.12.1,0,.08-.369,1.534-1.306,1.534a.8.8,0,0,1-.817-.816,1.508,1.508,0,0,1,.13-.549,8.455,8.455,0,0,0,.618-2.231c0-.359-.11-.7-.539-.7a1.587,1.587,0,0,0-.956.349,2.95,2.95,0,0,0-.678.916c-.01.061-.089.389-.109.449-.05.229-.11.448-.17.667l-.219.9-.189.756a.414.414,0,0,1-.369.259.274.274,0,0,1-.289-.278.613.613,0,0,1,.04-.22l1.445-5.739.03-.2c0-.1-.02-.169-.5-.169-.15,0-.24,0-.24-.12,0-.18.11-.19.19-.2.259-.019.986-.1,1.215-.1.13,0,.13.1.13.109Z" transform="translate(-469.246 -333.018)"/>
    <path class="cls-1" d="M552.527,430.036c0,.231,0,.321.7.321h.265v.251c-.153-.006-1.032-.028-1.248-.028-.258,0-1.116.022-1.241.028v-.251h.265c.7,0,.7-.09.7-.321V426.48a2.29,2.29,0,0,1-1.011.2v-.251a1.909,1.909,0,0,0,1.367-.446c.2,0,.209.006.209.195Z" transform="translate(-469.246 -333.018)"/>
    <path class="cls-1" d="M555.8,431.662V421.7h1.365v.4H556.2v9.167h.966v.4Z" transform="translate(-469.246 -333.018)"/>
    <path class="cls-1" d="M558.849,426.281a3.175,3.175,0,0,0,.159-.837c0-.329-.11-.458-.309-.458-.358,0-.558.478-.727,1.186-.06.219-.07.229-.169.229-.02,0-.12,0-.12-.1a4.983,4.983,0,0,1,.3-.967.869.869,0,0,1,.747-.568.9.9,0,0,1,.917.867,1.923,1.923,0,0,1,1.554-.867,1.018,1.018,0,0,1,1.146,1.066,8.937,8.937,0,0,1-.608,2.192,1.892,1.892,0,0,0-.179.707c0,.23.07.33.239.33.488,0,.817-.559,1.016-1.236.05-.149.05-.18.15-.18.03,0,.119,0,.119.1,0,.08-.368,1.534-1.3,1.534a.8.8,0,0,1-.817-.816,1.133,1.133,0,0,1,.1-.459,9.5,9.5,0,0,0,.647-2.321c0-.33-.089-.7-.538-.7a1.985,1.985,0,0,0-1.624,1.215c-.01.04-.089.329-.129.5-.05.229-.11.448-.169.667l-.22.9c-.06.249-.179.716-.189.737a.407.407,0,0,1-.369.278.267.267,0,0,1-.289-.268c0-.05.06-.28.09-.429Z" transform="translate(-469.246 -333.018)"/>
    <path class="cls-1" d="M564.979,431.662h-1.366v-.4h.967V422.1h-.967v-.4h1.366Z" transform="translate(-469.246 -333.018)"/>
    <path class="cls-1" d="M570.917,426.471l1.116-.808c.249-.188.268-.188.338-.188a.282.282,0,0,1,.269.278c0,.149-.079.189-.239.269l-1.375.667c.787.37.807.37,1.405.668.12.06.209.11.209.259a.291.291,0,0,1-.269.28c-.07,0-.089-.02-.179-.07l-1.275-.927.149,1.674a.264.264,0,0,1-.528,0l.15-1.674-1.117.807c-.249.19-.269.19-.339.19a.284.284,0,0,1-.269-.28c0-.149.08-.189.24-.268l1.375-.668L569.163,426c-.1-.05-.2-.089-.2-.249a.29.29,0,0,1,.269-.278c.07,0,.09.019.18.069l1.276.927-.14-1.545V424.8c-.03-.13.1-.259.259-.259.259,0,.259.238.249.378Z" transform="translate(-469.246 -333.018)"/>
    <path class="cls-4" d="M577.594,425.534a1.847,1.847,0,0,1,1.474-.767,1.013,1.013,0,0,1,1.146,1.066,8.9,8.9,0,0,1-.608,2.192,1.911,1.911,0,0,0-.179.707c0,.23.07.33.239.33.548,0,.867-.708,1.017-1.236.049-.149.049-.18.149-.18.03,0,.12,0,.12.1,0,.08-.369,1.534-1.306,1.534a.8.8,0,0,1-.817-.816,1.508,1.508,0,0,1,.13-.549,8.455,8.455,0,0,0,.618-2.231c0-.359-.11-.7-.538-.7a1.588,1.588,0,0,0-.957.349,2.95,2.95,0,0,0-.678.916c-.009.061-.089.389-.109.449-.05.229-.11.448-.17.667l-.219.9-.189.756a.414.414,0,0,1-.369.259.274.274,0,0,1-.289-.278.613.613,0,0,1,.04-.22l1.445-5.739.03-.2c0-.1-.02-.169-.5-.169-.15,0-.24,0-.24-.12,0-.18.11-.19.19-.2.259-.019.986-.1,1.215-.1.13,0,.13.1.13.109Z" transform="translate(-469.246 -333.018)"/>
    <path class="cls-4" d="M584.582,430.608h-2.874c0-.195,0-.209.07-.271l1.68-1.66a2.117,2.117,0,0,0,.656-1.339,1.044,1.044,0,0,0-1.06-1.109,1.1,1.1,0,0,0-1.018.649c.363,0,.412.244.412.369a.37.37,0,1,1-.74-.02,1.352,1.352,0,0,1,1.451-1.248,1.459,1.459,0,0,1,1.632,1.359,2.015,2.015,0,0,1-1,1.506c-.418.328-.662.523-1.394,1.172h1.283a3.589,3.589,0,0,0,.69-.042,1.6,1.6,0,0,0,.181-.635h.238Z" transform="translate(-469.246 -333.018)"/>
    <path class="cls-4" d="M586.89,431.662V421.7h1.365v.4h-.966v9.167h.966v.4Z" transform="translate(-469.246 -333.018)"/>
    <path class="cls-4" d="M589.927,426.281a3.175,3.175,0,0,0,.159-.837c0-.329-.109-.458-.309-.458-.358,0-.558.478-.727,1.186-.06.219-.07.229-.169.229-.02,0-.12,0-.12-.1a4.983,4.983,0,0,1,.3-.967.869.869,0,0,1,.747-.568.9.9,0,0,1,.917.867,1.925,1.925,0,0,1,1.554-.867,1.018,1.018,0,0,1,1.146,1.066,8.937,8.937,0,0,1-.608,2.192,1.911,1.911,0,0,0-.179.707c0,.23.07.33.239.33.488,0,.817-.559,1.017-1.236.049-.149.049-.18.149-.18.03,0,.12,0,.12.1,0,.08-.369,1.534-1.306,1.534a.8.8,0,0,1-.817-.816,1.133,1.133,0,0,1,.1-.459,9.5,9.5,0,0,0,.648-2.321c0-.33-.09-.7-.538-.7a1.982,1.982,0,0,0-1.624,1.215c-.011.04-.09.329-.13.5-.05.229-.11.448-.169.667l-.22.9c-.06.249-.179.716-.189.737a.407.407,0,0,1-.369.278.267.267,0,0,1-.289-.268c0-.05.06-.28.09-.429Z" transform="translate(-469.246 -333.018)"/>
    <path class="cls-4" d="M596.057,431.662h-1.366v-.4h.967V422.1h-.967v-.4h1.366Z" transform="translate(-469.246 -333.018)"/>
    <polygon class="cls-2" points="36.699 86.533 36.699 72.359 135.911 72.359 135.911 100.706 36.699 100.706 36.699 86.533"/>
    <path d="M797.637,381.09a4.828,4.828,0,0,0,1.454.857c.12,0,.12-.12.12-.2,0-.14-.01-.15-.209-.239a4.586,4.586,0,0,1-2.422-2.551.113.113,0,0,0-.109-.08c-.07,0-.08.03-.14.169a4.512,4.512,0,0,1-2.5,2.5c-.1.05-.1.1-.1.2,0,.079,0,.2.119.2a4.828,4.828,0,0,0,1.455-.857v5.979a4.8,4.8,0,0,0-1.455-.857c-.119,0-.119.119-.119.2,0,.139.01.149.209.239a4.573,4.573,0,0,1,2.421,2.551.114.114,0,0,0,.11.079c.07,0,.08-.029.139-.169a4.518,4.518,0,0,1,2.5-2.5c.1-.05.1-.1.1-.2,0-.08,0-.2-.12-.2a4.8,4.8,0,0,0-1.454.857Zm-1.933-.4a5,5,0,0,0,.767-1.047,5.289,5.289,0,0,0,.767,1.047v6.775a5,5,0,0,0-.767,1.046,5.278,5.278,0,0,0-.767-1.046Z" transform="translate(-469.246 -333.018)"/>
    <polyline points="266.021 88.8 270.556 86.533 266.021 84.265 267.154 86.533"/>
    <line class="cls-2" x1="242.21" y1="86.533" x2="267.154" y2="86.533"/>
    <path class="cls-1" d="M712.907,409.761a3.925,3.925,0,0,0-.17.877c0,.339.16.658.549.658.318,0,1-.239,1.325-1.306.02-.069.039-.109.129-.109.031,0,.12,0,.12.1,0,.249-.568,1.535-1.594,1.535a1.1,1.1,0,0,1-1.077-.757,1.322,1.322,0,0,1-1.045.757c-.439,0-.937-.2-.937-.658a.566.566,0,0,1,.548-.578.342.342,0,0,1,.369.349.565.565,0,0,1-.469.538.956.956,0,0,0,.5.13c.439,0,.787-.419.947-1.036a14.5,14.5,0,0,0,.538-2.372c0-.577-.349-.667-.538-.667-.338,0-1,.249-1.335,1.3-.02.09-.05.111-.129.111-.021,0-.12,0-.12-.1,0-.25.568-1.535,1.6-1.535a1.1,1.1,0,0,1,1.076.758,1.286,1.286,0,0,1,1.046-.758c.339,0,.927.14.927.658a.554.554,0,0,1-.538.577.347.347,0,0,1-.379-.348.577.577,0,0,1,.478-.538.98.98,0,0,0-.5-.129c-.7,0-.926.916-.986,1.175Z" transform="translate(-469.246 -333.018)"/>
    <path class="cls-1" d="M716.727,413.9v-9.963h1.365v.4h-.967V413.5h.967v.4Z" transform="translate(-469.246 -333.018)"/>
    <path class="cls-1" d="M719.771,408.516a3.246,3.246,0,0,0,.16-.837c0-.329-.11-.458-.309-.458-.359,0-.559.477-.727,1.185-.06.219-.071.23-.17.23-.02,0-.12,0-.12-.1a5.058,5.058,0,0,1,.3-.967.871.871,0,0,1,.747-.568.9.9,0,0,1,.917.867,1.926,1.926,0,0,1,1.555-.867,1.018,1.018,0,0,1,1.146,1.066,8.989,8.989,0,0,1-.608,2.193,1.893,1.893,0,0,0-.18.707c0,.229.07.329.24.329.488,0,.816-.559,1.015-1.235.051-.15.051-.18.151-.18.029,0,.119,0,.119.1,0,.081-.369,1.535-1.306,1.535a.8.8,0,0,1-.816-.817,1.148,1.148,0,0,1,.1-.459,9.441,9.441,0,0,0,.648-2.321c0-.329-.09-.7-.538-.7a1.98,1.98,0,0,0-1.624,1.215c-.01.04-.09.329-.13.5-.05.228-.11.448-.169.667l-.22.9c-.059.249-.179.717-.189.737a.406.406,0,0,1-.368.279.266.266,0,0,1-.289-.269c0-.05.059-.279.089-.429Z" transform="translate(-469.246 -333.018)"/>
    <path class="cls-1" d="M725.893,413.9h-1.366v-.4h.967v-9.167h-.967v-.4h1.366Z" transform="translate(-469.246 -333.018)"/>
    <path class="cls-3" d="M712.427,426.589c0-.6.359-1.026,1.136-1.026a3.3,3.3,0,0,1,.817.11c.359.079.518.109.518.329a.418.418,0,0,1-.4.4,1.361,1.361,0,0,1-.548-.249,1.213,1.213,0,0,0-.708-.269.5.5,0,0,0-.548.458,3.936,3.936,0,0,0,.947,1.635,2.8,2.8,0,0,1,.737,1.853c0,1.375-.827,2.939-1.992,2.939a1.567,1.567,0,0,1-1.575-1.674,3.045,3.045,0,0,1,2.212-2.8A4.077,4.077,0,0,1,712.427,426.589Zm-1,4.783c0,.757.408,1.176.957,1.176.926,0,1.3-1.664,1.3-2.321a3.454,3.454,0,0,0-.547-1.714C711.8,428.871,711.431,430.744,711.431,431.372Z" transform="translate(-469.246 -333.018)"/>
    <path class="cls-3" d="M716.367,435.139v-9.964h1.365v.4h-.966v9.167h.966v.4Z" transform="translate(-469.246 -333.018)"/>
    <path class="cls-3" d="M719.4,429.758a3.227,3.227,0,0,0,.159-.837c0-.329-.109-.458-.308-.458-.359,0-.559.477-.728,1.185-.059.219-.07.23-.17.23-.019,0-.119,0-.119-.1a5.035,5.035,0,0,1,.3-.966.87.87,0,0,1,.747-.569.9.9,0,0,1,.917.867,1.925,1.925,0,0,1,1.555-.867,1.018,1.018,0,0,1,1.145,1.067,9.024,9.024,0,0,1-.607,2.192,1.893,1.893,0,0,0-.18.707c0,.229.07.329.24.329.488,0,.816-.559,1.015-1.235.051-.15.051-.18.151-.18.029,0,.119,0,.119.1,0,.08-.369,1.534-1.306,1.534a.8.8,0,0,1-.816-.817,1.13,1.13,0,0,1,.1-.459,9.485,9.485,0,0,0,.648-2.321c0-.329-.09-.7-.538-.7a1.98,1.98,0,0,0-1.624,1.215c-.01.04-.09.329-.13.5-.05.228-.11.448-.169.667l-.22.9c-.06.249-.179.717-.189.738a.407.407,0,0,1-.369.278.267.267,0,0,1-.289-.269c0-.05.06-.279.09-.428Z" transform="translate(-469.246 -333.018)"/>
    <path class="cls-3" d="M725.541,435.139h-1.365v-.4h.967v-9.167h-.967v-.4h1.365Z" transform="translate(-469.246 -333.018)"/>
    <polyline points="407.752 88.8 412.288 86.533 407.752 84.265 408.886 86.533"/>
    <line class="cls-2" x1="369.768" y1="86.533" x2="408.886" y2="86.533"/>
    <path class="cls-1" d="M862.96,411.415a2.627,2.627,0,0,1-2.331,2.033.943.943,0,0,1-1.057-.867.574.574,0,0,1,.559-.647.339.339,0,0,1,.368.348.538.538,0,0,1-.2.408.566.566,0,0,1-.429.121.807.807,0,0,0,.758.418,1.43,1.43,0,0,0,1.1-.628,3.821,3.821,0,0,0,.647-1.535,1.4,1.4,0,0,1-1.006.449,1.111,1.111,0,0,1-1.216-1.186,6.582,6.582,0,0,1,.579-2.093,2.117,2.117,0,0,0,.168-.7c0-.318-.168-.318-.249-.318-.338,0-.737.3-1,1.235-.05.159-.061.18-.161.18-.019,0-.119,0-.119-.1s.368-1.535,1.316-1.535a.79.79,0,0,1,.816.817,1.788,1.788,0,0,1-.2.718,5.929,5.929,0,0,0-.508,1.952c0,.369.109.808.618.808a1.382,1.382,0,0,0,1.125-.848l.449-1.793c.06-.269.129-.538.2-.8.039-.179.119-.488.139-.538a.434.434,0,0,1,.349-.21.267.267,0,0,1,.289.27.625.625,0,0,1-.04.229Z" transform="translate(-469.246 -333.018)"/>
    <path class="cls-1" d="M865.531,413.9v-9.963H866.9v.4h-.966V413.5h.966v.4Z" transform="translate(-469.246 -333.018)"/>
    <path class="cls-1" d="M868.568,408.516a3.246,3.246,0,0,0,.16-.837c0-.329-.11-.458-.309-.458-.359,0-.559.477-.728,1.185-.059.219-.07.23-.17.23-.019,0-.119,0-.119-.1a5.058,5.058,0,0,1,.3-.967.871.871,0,0,1,.747-.568.9.9,0,0,1,.917.867A1.925,1.925,0,0,1,870.92,407a1.017,1.017,0,0,1,1.145,1.066,9.032,9.032,0,0,1-.607,2.193,1.893,1.893,0,0,0-.18.707c0,.229.07.329.24.329.488,0,.816-.559,1.015-1.235.051-.15.051-.18.151-.18.029,0,.119,0,.119.1,0,.081-.369,1.535-1.306,1.535a.8.8,0,0,1-.816-.817,1.13,1.13,0,0,1,.1-.459,9.485,9.485,0,0,0,.648-2.321c0-.329-.09-.7-.538-.7a1.98,1.98,0,0,0-1.624,1.215c-.01.04-.09.329-.13.5-.05.228-.11.448-.169.667l-.22.9c-.059.249-.179.717-.189.737a.406.406,0,0,1-.369.279.267.267,0,0,1-.289-.269c0-.05.06-.279.09-.429Z" transform="translate(-469.246 -333.018)"/>
    <path class="cls-1" d="M874.7,413.9h-1.365v-.4h.967v-9.167h-.967v-.4H874.7Z" transform="translate(-469.246 -333.018)"/>
    <path class="cls-3" d="M843.039,429.011a1.853,1.853,0,0,1,1.476-.768,1.013,1.013,0,0,1,1.145,1.067,8.917,8.917,0,0,1-.608,2.192,1.911,1.911,0,0,0-.179.707c0,.229.069.329.239.329.548,0,.867-.708,1.016-1.235.05-.15.05-.18.149-.18.031,0,.12,0,.12.1,0,.08-.369,1.534-1.305,1.534a.8.8,0,0,1-.817-.817,1.516,1.516,0,0,1,.129-.548,8.434,8.434,0,0,0,.618-2.232c0-.358-.109-.7-.538-.7a1.587,1.587,0,0,0-.957.349,2.923,2.923,0,0,0-.676.916c-.011.06-.09.388-.111.449-.05.228-.109.448-.169.667l-.219.9-.189.757a.415.415,0,0,1-.369.259.274.274,0,0,1-.289-.278.61.61,0,0,1,.04-.22l1.444-5.739.031-.2c0-.1-.02-.169-.5-.169-.149,0-.239,0-.239-.12,0-.179.11-.189.19-.2.258-.019.986-.1,1.216-.1.128,0,.128.1.128.11Z" transform="translate(-469.246 -333.018)"/>
    <path class="cls-3" d="M850.027,434.093h-2.873c0-.2,0-.209.07-.272l1.68-1.66a2.114,2.114,0,0,0,.656-1.339,1.044,1.044,0,0,0-1.06-1.108,1.1,1.1,0,0,0-1.019.648c.364,0,.413.244.413.369a.37.37,0,1,1-.74-.02,1.352,1.352,0,0,1,1.45-1.248,1.459,1.459,0,0,1,1.632,1.359,2.017,2.017,0,0,1-1,1.506c-.419.328-.662.524-1.394,1.172h1.283a3.583,3.583,0,0,0,.69-.042,1.608,1.608,0,0,0,.181-.635h.237Z" transform="translate(-469.246 -333.018)"/>
    <path class="cls-3" d="M852.328,435.139v-9.964h1.365v.4h-.966v9.167h.966v.4Z" transform="translate(-469.246 -333.018)"/>
    <path class="cls-3" d="M855.365,429.758a3.227,3.227,0,0,0,.159-.837c0-.329-.109-.458-.308-.458-.36,0-.559.477-.728,1.185-.059.219-.07.23-.17.23-.019,0-.119,0-.119-.1a5.035,5.035,0,0,1,.3-.966.87.87,0,0,1,.747-.569.9.9,0,0,1,.917.867,1.925,1.925,0,0,1,1.555-.867,1.018,1.018,0,0,1,1.145,1.067,9.024,9.024,0,0,1-.607,2.192,1.893,1.893,0,0,0-.18.707c0,.229.07.329.239.329.489,0,.817-.559,1.016-1.235.051-.15.051-.18.15-.18.03,0,.12,0,.12.1,0,.08-.37,1.534-1.306,1.534a.8.8,0,0,1-.816-.817,1.13,1.13,0,0,1,.1-.459,9.485,9.485,0,0,0,.648-2.321c0-.329-.09-.7-.538-.7a1.98,1.98,0,0,0-1.624,1.215c-.01.04-.09.329-.13.5-.05.228-.11.448-.169.667l-.22.9c-.06.249-.179.717-.19.738a.405.405,0,0,1-.368.278.267.267,0,0,1-.289-.269c0-.05.06-.279.09-.428Z" transform="translate(-469.246 -333.018)"/>
    <path class="cls-3" d="M861.494,435.139h-1.365v-.4h.967v-9.167h-.967v-.4h1.365Z" transform="translate(-469.246 -333.018)"/>
    <path class="cls-3" d="M867.558,429.947l1.116-.807c.249-.189.268-.189.339-.189a.282.282,0,0,1,.268.278c0,.15-.079.19-.239.27l-1.375.667c.787.369.808.369,1.4.668.119.06.209.109.209.259a.291.291,0,0,1-.268.279c-.071,0-.09-.019-.18-.069l-1.275-.927.149,1.674a.264.264,0,0,1-.528,0l.149-1.674-1.115.807c-.249.189-.27.189-.339.189a.284.284,0,0,1-.27-.279c0-.15.081-.19.24-.269l1.375-.668-1.415-.677c-.1-.05-.2-.089-.2-.25a.291.291,0,0,1,.27-.278c.069,0,.09.02.179.07l1.275.926-.139-1.545v-.129c-.03-.129.1-.258.259-.258.259,0,.259.238.249.378Z" transform="translate(-469.246 -333.018)"/>
    <path class="cls-3" d="M874.234,429.011a1.855,1.855,0,0,1,1.476-.768,1.013,1.013,0,0,1,1.145,1.067,8.917,8.917,0,0,1-.608,2.192,1.911,1.911,0,0,0-.179.707c0,.229.07.329.24.329.547,0,.866-.708,1.015-1.235.05-.15.05-.18.15-.18.03,0,.12,0,.12.1,0,.08-.369,1.534-1.306,1.534a.8.8,0,0,1-.816-.817,1.516,1.516,0,0,1,.129-.548,8.472,8.472,0,0,0,.618-2.232c0-.358-.11-.7-.538-.7a1.582,1.582,0,0,0-.957.349,2.931,2.931,0,0,0-.677.916c-.011.06-.09.388-.11.449-.05.228-.11.448-.169.667l-.22.9-.189.757a.414.414,0,0,1-.369.259.274.274,0,0,1-.289-.278.61.61,0,0,1,.04-.22l1.445-5.739.03-.2c0-.1-.02-.169-.5-.169-.15,0-.239,0-.239-.12,0-.179.109-.189.189-.2.259-.019.986-.1,1.216-.1.129,0,.129.1.129.11Z" transform="translate(-469.246 -333.018)"/>
    <path class="cls-3" d="M880.246,433.521c0,.23,0,.321.7.321h.266v.251c-.154-.007-1.032-.029-1.249-.029-.258,0-1.115.022-1.241.029v-.251h.265c.7,0,.7-.091.7-.321v-3.556a2.3,2.3,0,0,1-1.012.2v-.251a1.909,1.909,0,0,0,1.367-.446c.195,0,.209.007.209.195Z" transform="translate(-469.246 -333.018)"/>
    <path class="cls-3" d="M883.523,435.139v-9.964h1.366v.4h-.967v9.167h.967v.4Z" transform="translate(-469.246 -333.018)"/>
    <path class="cls-3" d="M886.568,429.758a3.246,3.246,0,0,0,.16-.837c0-.329-.11-.458-.309-.458-.359,0-.559.477-.728,1.185-.059.219-.07.23-.17.23-.019,0-.119,0-.119-.1a5.035,5.035,0,0,1,.3-.966.87.87,0,0,1,.747-.569.9.9,0,0,1,.917.867,1.925,1.925,0,0,1,1.555-.867,1.018,1.018,0,0,1,1.145,1.067,9.024,9.024,0,0,1-.607,2.192,1.893,1.893,0,0,0-.18.707c0,.229.07.329.24.329.488,0,.816-.559,1.015-1.235.051-.15.051-.18.151-.18.029,0,.119,0,.119.1,0,.08-.369,1.534-1.306,1.534a.8.8,0,0,1-.816-.817,1.13,1.13,0,0,1,.1-.459,9.485,9.485,0,0,0,.648-2.321c0-.329-.09-.7-.538-.7a1.98,1.98,0,0,0-1.624,1.215c-.01.04-.09.329-.13.5-.05.228-.11.448-.169.667l-.22.9c-.059.249-.179.717-.189.738a.407.407,0,0,1-.369.278.267.267,0,0,1-.289-.269c0-.05.06-.279.09-.428Z" transform="translate(-469.246 -333.018)"/>
    <path class="cls-3" d="M892.7,435.139h-1.365v-.4h.967v-9.167h-.967v-.4H892.7Z" transform="translate(-469.246 -333.018)"/>
    <g>
      <path class="cls-1" d="M757.828,408.892c0-.36-.02-.469-.787-.469H756.8v-.309h5.609l.279,2.242h-.249c-.16-1.385-.428-1.933-1.953-1.933H759.2c-.469,0-.488.07-.488.4v2.392h.9c.967,0,1.077-.309,1.077-1.166h.249v2.641h-.249c0-.847-.11-1.167-1.077-1.167h-.9v2.662c0,.328.019.4.488.4h1.325c1.714,0,1.943-.727,2.192-2.262h.249l-.418,2.571H756.8v-.309h.239c.767,0,.787-.11.787-.469Z" transform="translate(-469.246 -333.018)"/>
      <path class="cls-1" d="M765.729,415a2.2,2.2,0,0,1-2.123-2.252,2.242,2.242,0,0,1,2.2-2.262,1.507,1.507,0,0,1,1.335.908l.378-.908h.219v5.58c0,.449.11.449.778.449v.308c-.349-.009-.857-.029-1.126-.029s-.778.02-1.117.029v-.308c.668,0,.778,0,.778-.449v-1.783A1.633,1.633,0,0,1,765.729,415Zm.139-4.265c-.737,0-1.434.828-1.434,2.013,0,1.147.607,2.033,1.335,2.033a1.394,1.394,0,0,0,1.315-1.246v-1.4C767.084,411.6,766.665,410.734,765.868,410.734Z" transform="translate(-469.246 -333.018)"/>
      <path class="cls-1" d="M771.147,415c-1.514,0-1.514-.906-1.514-1.684v-1.5c0-.886,0-.916-.778-.916V410.6l1.465-.11v3.309c0,.518.04.986.877.986.728,0,1.206-.677,1.206-1.545v-1.773c0-.488-.08-.558-.777-.558V410.6l1.465-.11v3.537c0,.489.079.559.777.559v.309l-1.435.109v-.9A1.357,1.357,0,0,1,771.147,415Z" transform="translate(-469.246 -333.018)"/>
      <path class="cls-1" d="M775.85,414.143c0,.388.04.438.7.438v.309c-.339-.01-.688-.031-1.036-.031-.24,0-.778.021-1.1.031v-.309c.667,0,.777,0,.777-.448v-2.681c0-.488-.089-.548-.737-.548V410.6l1.395-.11Zm-.489-4.863a.532.532,0,0,1-.528-.528.538.538,0,0,1,.528-.528.528.528,0,1,1,0,1.056Z" transform="translate(-469.246 -333.018)"/>
    </g>
    <g>
      <path class="cls-1" d="M779.711,414.81c-.04.1-.08.189-.209.189s-.149-.05-.21-.189l-1.435-3.538c-.129-.308-.169-.368-.8-.368V410.6c.3.02.7.03.966.03.229,0,.787-.02,1.086-.03v.309c-.179,0-.568,0-.568.259,0,.02,0,.04.059.169l1.117,2.78,1.016-2.541a.594.594,0,0,0,.06-.239c0-.188-.109-.418-.479-.428V410.6c.17.01.628.03.868.03s.518-.01.747-.03v.309a.9.9,0,0,0-.917.667Z" transform="translate(-469.246 -333.018)"/>
      <path class="cls-1" d="M783.557,415c-.628,0-1.594-.249-1.594-1.056a1.453,1.453,0,0,1,1-1.3,4.867,4.867,0,0,1,1.833-.358v-.369a1.127,1.127,0,0,0-1.056-1.275,1.4,1.4,0,0,0-1.076.459.451.451,0,0,1,.508.458.459.459,0,1,1-.917-.01c0-.657.687-1.126,1.5-1.126a1.9,1.9,0,0,1,1.365.548,1.475,1.475,0,0,1,.358,1.175v1.994c0,.049.041.5.37.5.109,0,.358-.06.358-.638v-.558h.249V414a.845.845,0,0,1-.817.946.833.833,0,0,1-.777-.816A1.378,1.378,0,0,1,783.557,415Zm-.828-1.066a.858.858,0,0,0,.9.847,1.2,1.2,0,0,0,1.166-1.285v-1C783.148,412.558,782.729,413.385,782.729,413.933Z" transform="translate(-469.246 -333.018)"/>
    </g>
    <g>
      <path class="cls-1" d="M788.354,414.133c0,.448.109.448.777.448v.309c-.369-.01-.858-.031-1.107-.031s-.777.021-1.105.031v-.309c.667,0,.777,0,.777-.448v-5.182c0-.488-.08-.557-.777-.557v-.31l1.435-.109Z" transform="translate(-469.246 -333.018)"/>
      <path class="cls-1" d="M790.745,414.083a1.341,1.341,0,0,0,1.126.667,1.4,1.4,0,0,0,1.345-1.026c.019-.079.04-.14.13-.14a.115.115,0,0,1,.129.12,1.7,1.7,0,0,1-1.664,1.3,2.249,2.249,0,0,1-2.192-2.3,2.177,2.177,0,0,1,2.072-2.271,1.768,1.768,0,0,1,1.784,1.953c0,.209-.03.209-.249.209h-2.78A2.9,2.9,0,0,0,790.745,414.083Zm2.072-1.7c0-.389-.1-1.734-1.126-1.734-.338,0-1.175.25-1.235,1.734Z" transform="translate(-469.246 -333.018)"/>
    </g>
    <g>
      <path class="cls-1" d="M794.1,410.9V410.6l1.4-.11v1.047a1.571,1.571,0,0,1,1.474-1.047,1.329,1.329,0,0,1,1.047.369c.309.359.309.667.309,1.525v1.9c.01.3.259.3.777.3v.309c-.339-.01-.857-.031-1.116-.031s-.777.021-1.126.031v-.309c.668,0,.777,0,.777-.448v-2.322c0-.568-.109-1.106-.737-1.106a1.456,1.456,0,0,0-1.346,1.594v1.834c0,.448.111.448.778.448v.309c-.339-.01-.857-.031-1.117-.031s-.776.021-1.125.031v-.309c.667,0,.777,0,.777-.448v-2.671C794.881,410.974,794.8,410.9,794.1,410.9Z" transform="translate(-469.246 -333.018)"/>
      <path class="cls-1" d="M800.779,413.674c0,.17,0,1.076.668,1.076.368,0,.667-.379.667-1.116v-.548h.249v.568c0,.638-.278,1.345-.986,1.345a1.205,1.205,0,0,1-1.285-1.345V410.9h-.847v-.219c.977-.04,1.276-1.106,1.285-1.923h.249V410.6H802.2v.309h-1.425Z" transform="translate(-469.246 -333.018)"/>
    </g>
    <g>
      <path class="cls-1" d="M811.665,414.89h-5.191v-.309h.239c.766,0,.787-.11.787-.469v-5.251c0-.358-.021-.467-.787-.467h-.239v-.31c.348.03,1.126.03,1.514.03.408,0,1.315,0,1.674-.03v.31h-.329c-.946,0-.946.138-.946.477v5.312c0,.328.019.4.488.4h.816c1.754,0,1.894-1.246,2-2.262h.249Z" transform="translate(-469.246 -333.018)"/>
      <path class="cls-1" d="M818.369,410.386h-.249c-.14-1.605-.289-1.933-1.794-1.933a4.666,4.666,0,0,0-.567.02c-.18.04-.18.179-.18.379V414.1c0,.338,0,.478,1.047.478h.4v.309c-.409-.031-1.435-.031-1.893-.031s-1.475,0-1.883.031v-.309h.4c1.046,0,1.046-.14,1.046-.478v-5.251c0-.23,0-.339-.209-.379a4.153,4.153,0,0,0-.538-.02c-1.5,0-1.654.328-1.794,1.933H811.9l.19-2.242h6.088Z" transform="translate(-469.246 -333.018)"/>
    </g>
    <path class="cls-1" d="M820.988,414.112c0,.359.03.469.817.469h.259v.309c-.348-.031-1.136-.031-1.524-.031s-1.166,0-1.515.031v-.309h.259c.787,0,.818-.11.818-.469v-5.251c0-.358-.031-.467-.818-.467h-.259v-.31c.349.03,1.136.03,1.525.03s1.166,0,1.514-.03v.31h-.259c-.787,0-.817.109-.817.467Z" transform="translate(-469.246 -333.018)"/>
    <path class="cls-1" d="M749.8,425.534a1.852,1.852,0,0,1,1.475-.767,1.013,1.013,0,0,1,1.146,1.066,8.9,8.9,0,0,1-.608,2.192,1.911,1.911,0,0,0-.179.707c0,.23.069.33.239.33.548,0,.866-.708,1.016-1.236.05-.149.05-.18.149-.18.03,0,.12,0,.12.1,0,.08-.369,1.534-1.3,1.534a.8.8,0,0,1-.817-.816,1.525,1.525,0,0,1,.129-.549,8.455,8.455,0,0,0,.618-2.231c0-.359-.109-.7-.538-.7a1.59,1.59,0,0,0-.957.349,2.959,2.959,0,0,0-.677.916c-.01.061-.089.389-.11.449-.05.229-.109.448-.169.667l-.22.9-.188.756a.415.415,0,0,1-.369.259.274.274,0,0,1-.289-.278.613.613,0,0,1,.04-.22l1.444-5.739.03-.2c0-.1-.019-.169-.5-.169-.149,0-.239,0-.239-.12,0-.18.109-.19.189-.2.259-.019.987-.1,1.216-.1.129,0,.129.1.129.109Z" transform="translate(-469.246 -333.018)"/>
    <path class="cls-1" d="M754.648,431.662V421.7h1.366v.4h-.967v9.167h.967v.4Z" transform="translate(-469.246 -333.018)"/>
    <path class="cls-1" d="M757.686,426.281a3.266,3.266,0,0,0,.159-.837c0-.329-.11-.458-.309-.458-.359,0-.558.478-.727,1.186-.06.219-.071.229-.17.229-.02,0-.119,0-.119-.1a5.031,5.031,0,0,1,.3-.967.869.869,0,0,1,.747-.568.9.9,0,0,1,.917.867,1.924,1.924,0,0,1,1.555-.867,1.018,1.018,0,0,1,1.146,1.066,8.982,8.982,0,0,1-.608,2.192,1.892,1.892,0,0,0-.179.707c0,.23.069.33.239.33.488,0,.816-.559,1.015-1.236.051-.149.051-.18.151-.18.029,0,.119,0,.119.1,0,.08-.369,1.534-1.306,1.534a.8.8,0,0,1-.816-.816,1.145,1.145,0,0,1,.1-.459,9.454,9.454,0,0,0,.648-2.321c0-.33-.09-.7-.538-.7a1.984,1.984,0,0,0-1.624,1.215c-.01.04-.09.329-.13.5-.05.229-.109.448-.169.667l-.22.9c-.059.249-.178.716-.189.737a.406.406,0,0,1-.368.278.266.266,0,0,1-.289-.268c0-.05.059-.28.089-.429Z" transform="translate(-469.246 -333.018)"/>
    <g>
      <path class="cls-1" d="M763.814,431.662h-1.365v-.4h.967V422.1h-.967v-.4h1.365Z" transform="translate(-469.246 -333.018)"/>
      <path class="cls-1" d="M768.636,425.913c-.15,0-.339,0-.339-.2s.189-.2.329-.2H774.6c.139,0,.328,0,.328.2s-.189.2-.338.2Zm-.01,1.933c-.14,0-.329,0-.329-.2s.189-.2.339-.2h5.949c.149,0,.338,0,.338.2s-.189.2-.328.2Z" transform="translate(-469.246 -333.018)"/>
    </g>
    <path class="cls-4" d="M780.391,425.534a1.851,1.851,0,0,1,1.475-.767,1.014,1.014,0,0,1,1.146,1.066,8.9,8.9,0,0,1-.609,2.192,1.91,1.91,0,0,0-.178.707c0,.23.069.33.239.33.548,0,.866-.708,1.015-1.236.05-.149.05-.18.15-.18.03,0,.12,0,.12.1,0,.08-.369,1.534-1.306,1.534a.8.8,0,0,1-.816-.816,1.525,1.525,0,0,1,.129-.549,8.455,8.455,0,0,0,.618-2.231c0-.359-.109-.7-.538-.7a1.59,1.59,0,0,0-.957.349,2.942,2.942,0,0,0-.677.916c-.011.061-.09.389-.11.449-.05.229-.11.448-.169.667l-.22.9-.188.756a.415.415,0,0,1-.369.259.275.275,0,0,1-.29-.278.613.613,0,0,1,.04-.22l1.445-5.739.03-.2c0-.1-.019-.169-.5-.169-.149,0-.239,0-.239-.12,0-.18.109-.19.189-.2.259-.019.987-.1,1.216-.1.129,0,.129.1.129.109Z" transform="translate(-469.246 -333.018)"/>
    <path class="cls-4" d="M787.387,430.608h-2.873c0-.195,0-.209.069-.271l1.681-1.66a2.121,2.121,0,0,0,.655-1.339,1.044,1.044,0,0,0-1.06-1.109,1.1,1.1,0,0,0-1.018.649c.363,0,.412.244.412.369a.37.37,0,1,1-.739-.02,1.352,1.352,0,0,1,1.45-1.248,1.459,1.459,0,0,1,1.632,1.359,2.019,2.019,0,0,1-1,1.506c-.419.328-.662.523-1.4,1.172h1.283a3.6,3.6,0,0,0,.691-.042,1.618,1.618,0,0,0,.18-.635h.238Z" transform="translate(-469.246 -333.018)"/>
    <path class="cls-4" d="M789.688,431.662V421.7h1.365v.4h-.967v9.167h.967v.4Z" transform="translate(-469.246 -333.018)"/>
    <path class="cls-4" d="M792.725,426.281a3.22,3.22,0,0,0,.159-.837c0-.329-.11-.458-.309-.458-.359,0-.558.478-.727,1.186-.06.219-.071.229-.17.229-.02,0-.119,0-.119-.1a5.031,5.031,0,0,1,.3-.967.869.869,0,0,1,.747-.568.9.9,0,0,1,.917.867,1.924,1.924,0,0,1,1.555-.867,1.018,1.018,0,0,1,1.146,1.066,8.982,8.982,0,0,1-.608,2.192,1.892,1.892,0,0,0-.179.707c0,.23.069.33.239.33.488,0,.816-.559,1.015-1.236.051-.149.051-.18.151-.18.029,0,.119,0,.119.1,0,.08-.369,1.534-1.306,1.534a.8.8,0,0,1-.816-.816,1.133,1.133,0,0,1,.1-.459,9.5,9.5,0,0,0,.647-2.321c0-.33-.09-.7-.538-.7a1.984,1.984,0,0,0-1.624,1.215c-.01.04-.09.329-.13.5-.05.229-.109.448-.169.667l-.22.9c-.059.249-.178.716-.189.737a.405.405,0,0,1-.368.278.266.266,0,0,1-.289-.268c0-.05.059-.28.089-.429Z" transform="translate(-469.246 -333.018)"/>
    <path class="cls-4" d="M798.854,431.662h-1.366v-.4h.967V422.1h-.967v-.4h1.366Z" transform="translate(-469.246 -333.018)"/>
    <path class="cls-1" d="M804.792,426.471l1.116-.808c.249-.188.269-.188.339-.188a.282.282,0,0,1,.269.278c0,.149-.079.189-.24.269l-1.375.667c.787.37.808.37,1.406.668.119.06.209.11.209.259a.291.291,0,0,1-.269.28c-.07,0-.09-.02-.18-.07l-1.275-.927.149,1.674a.264.264,0,0,1-.528,0l.15-1.674-1.116.807c-.249.19-.269.19-.339.19a.284.284,0,0,1-.269-.28c0-.149.08-.189.239-.268l1.375-.668L803.038,426c-.1-.05-.2-.089-.2-.249a.29.29,0,0,1,.269-.278c.07,0,.09.019.179.069l1.276.927-.139-1.545V424.8c-.03-.13.1-.259.259-.259.258,0,.258.238.249.378Z" transform="translate(-469.246 -333.018)"/>
    <path class="cls-1" d="M811.477,425.534a1.851,1.851,0,0,1,1.475-.767,1.014,1.014,0,0,1,1.146,1.066,8.9,8.9,0,0,1-.609,2.192,1.91,1.91,0,0,0-.178.707c0,.23.069.33.239.33.548,0,.866-.708,1.015-1.236.05-.149.05-.18.15-.18.03,0,.12,0,.12.1,0,.08-.369,1.534-1.306,1.534a.8.8,0,0,1-.816-.816,1.525,1.525,0,0,1,.129-.549,8.455,8.455,0,0,0,.618-2.231c0-.359-.109-.7-.538-.7a1.59,1.59,0,0,0-.957.349,2.942,2.942,0,0,0-.677.916c-.011.061-.09.389-.11.449-.05.229-.11.448-.169.667l-.22.9-.188.756a.416.416,0,0,1-.37.259.274.274,0,0,1-.289-.278.613.613,0,0,1,.04-.22l1.445-5.739.03-.2c0-.1-.019-.169-.5-.169-.149,0-.239,0-.239-.12,0-.18.109-.19.189-.2.259-.019.987-.1,1.216-.1.129,0,.129.1.129.109Z" transform="translate(-469.246 -333.018)"/>
    <path class="cls-1" d="M817.488,430.036c0,.231,0,.321.7.321h.265v.251c-.154-.006-1.032-.028-1.249-.028-.258,0-1.115.022-1.241.028v-.251h.266c.7,0,.7-.09.7-.321V426.48a2.293,2.293,0,0,1-1.012.2v-.251a1.909,1.909,0,0,0,1.367-.446c.2,0,.209.006.209.195Z" transform="translate(-469.246 -333.018)"/>
    <path class="cls-1" d="M820.766,431.662V421.7h1.365v.4h-.967v9.167h.967v.4Z" transform="translate(-469.246 -333.018)"/>
    <path class="cls-1" d="M823.8,426.281a3.22,3.22,0,0,0,.159-.837c0-.329-.109-.458-.309-.458-.359,0-.558.478-.727,1.186-.06.219-.071.229-.17.229-.02,0-.119,0-.119-.1a4.983,4.983,0,0,1,.3-.967.868.868,0,0,1,.747-.568.9.9,0,0,1,.917.867,1.922,1.922,0,0,1,1.554-.867,1.018,1.018,0,0,1,1.146,1.066,8.982,8.982,0,0,1-.608,2.192,1.911,1.911,0,0,0-.179.707c0,.23.069.33.239.33.488,0,.816-.559,1.016-1.236.05-.149.05-.18.15-.18.029,0,.119,0,.119.1,0,.08-.369,1.534-1.306,1.534a.8.8,0,0,1-.816-.816,1.133,1.133,0,0,1,.1-.459,9.5,9.5,0,0,0,.647-2.321c0-.33-.09-.7-.538-.7A1.984,1.984,0,0,0,824.5,426.2c-.01.04-.09.329-.13.5-.05.229-.109.448-.169.667l-.22.9c-.059.249-.178.716-.189.737a.405.405,0,0,1-.368.278.266.266,0,0,1-.289-.268c0-.05.059-.28.09-.429Z" transform="translate(-469.246 -333.018)"/>
    <path class="cls-1" d="M829.939,431.662h-1.365v-.4h.967V422.1h-.967v-.4h1.365Z" transform="translate(-469.246 -333.018)"/>
    <polygon class="cls-2" points="270.556 86.533 270.556 72.359 369.768 72.359 369.768 100.706 270.556 100.706 270.556 86.533"/>
  </g>
</svg>
