<svg id="Layer_1" data-name="Layer 1" xmlns="http://www.w3.org/2000/svg" viewBox="0 0 364.053 253.421">
  <defs>
    <style>
      .cls-1 {
        fill: #1d1d1b;
      }

      .cls-2, .cls-3, .cls-4, .cls-5 {
        fill: none;
        stroke: #000;
        stroke-miterlimit: 10;
        stroke-width: 0.85px;
      }

      .cls-3, .cls-4, .cls-5 {
        stroke-linecap: round;
      }

      .cls-3 {
        stroke-dasharray: 0 3.697;
      }

      .cls-4 {
        stroke-dasharray: 0 3.686;
      }

      .cls-5 {
        stroke-dasharray: 0 3.694;
      }
    </style>
  </defs>
  <title>examplecascade</title>
  <g>
    <path class="cls-1" d="M502.989,292.067a3.86,3.86,0,0,0-.169.877c0,.339.159.658.548.658.319,0,1-.239,1.325-1.306.02-.069.04-.109.13-.109.03,0,.119,0,.119.1,0,.249-.568,1.534-1.594,1.534a1.1,1.1,0,0,1-1.076-.757,1.324,1.324,0,0,1-1.046.757c-.439,0-.937-.2-.937-.657a.567.567,0,0,1,.548-.579.342.342,0,0,1,.369.349.565.565,0,0,1-.469.538.958.958,0,0,0,.5.13c.439,0,.787-.419.947-1.037a14.471,14.471,0,0,0,.538-2.371c0-.578-.348-.668-.538-.668-.339,0-1,.25-1.335,1.306-.02.089-.05.109-.13.109-.02,0-.119,0-.119-.1,0-.249.568-1.535,1.6-1.535a1.1,1.1,0,0,1,1.076.757,1.291,1.291,0,0,1,1.046-.757c.339,0,.927.14.927.658a.556.556,0,0,1-.538.578.348.348,0,0,1-.379-.349.58.58,0,0,1,.479-.538.976.976,0,0,0-.5-.13c-.7,0-.926.917-.986,1.176Z" transform="translate(-500.289 -257.91)"/>
    <path class="cls-1" d="M506.816,296.2v-9.965h1.366v.4h-.967V295.8h.967v.4Z" transform="translate(-500.289 -257.91)"/>
    <path class="cls-1" d="M509.853,290.822a3.2,3.2,0,0,0,.16-.837c0-.329-.11-.459-.309-.459-.359,0-.558.479-.727,1.186-.06.22-.07.229-.17.229-.02,0-.119,0-.119-.1a5.031,5.031,0,0,1,.3-.967.871.871,0,0,1,.747-.568.9.9,0,0,1,.917.867,1.928,1.928,0,0,1,1.555-.867,1.019,1.019,0,0,1,1.146,1.067,8.974,8.974,0,0,1-.608,2.191,1.9,1.9,0,0,0-.18.708c0,.229.07.329.24.329.488,0,.817-.558,1.016-1.236.05-.149.05-.179.149-.179.03,0,.12,0,.12.1,0,.079-.369,1.534-1.3,1.534a.8.8,0,0,1-.818-.817,1.157,1.157,0,0,1,.1-.459,9.454,9.454,0,0,0,.648-2.321c0-.329-.09-.7-.538-.7a1.981,1.981,0,0,0-1.624,1.216c-.01.04-.09.329-.13.5-.05.23-.109.449-.169.668l-.219.9c-.06.249-.18.717-.19.737a.408.408,0,0,1-.368.279.266.266,0,0,1-.289-.269c0-.05.06-.279.089-.428Z" transform="translate(-500.289 -257.91)"/>
    <path class="cls-1" d="M515.983,296.2h-1.365v-.4h.966v-9.167h-.966v-.4h1.365Z" transform="translate(-500.289 -257.91)"/>
    <path class="cls-1" d="M852.6,343.276a2.626,2.626,0,0,1-2.331,2.033.942.942,0,0,1-1.056-.867.575.575,0,0,1,.558-.648.34.34,0,0,1,.369.349.537.537,0,0,1-.2.408.566.566,0,0,1-.428.12.8.8,0,0,0,.757.418,1.426,1.426,0,0,0,1.1-.627,3.815,3.815,0,0,0,.648-1.535,1.4,1.4,0,0,1-1.006.448,1.111,1.111,0,0,1-1.216-1.185,6.59,6.59,0,0,1,.578-2.092,2.135,2.135,0,0,0,.169-.7c0-.319-.169-.319-.249-.319-.339,0-.737.3-1.006,1.236-.05.159-.06.179-.16.179-.02,0-.119,0-.119-.1s.368-1.534,1.315-1.534a.79.79,0,0,1,.817.817,1.775,1.775,0,0,1-.2.717,5.956,5.956,0,0,0-.507,1.954c0,.368.109.807.618.807a1.385,1.385,0,0,0,1.125-.847l.449-1.794c.06-.269.129-.538.2-.8.039-.179.119-.489.14-.538a.43.43,0,0,1,.349-.209.267.267,0,0,1,.289.269.622.622,0,0,1-.04.229Z" transform="translate(-500.289 -257.91)"/>
    <path class="cls-1" d="M855.176,345.757v-9.964h1.365v.4h-.967v9.166h.967v.4Z" transform="translate(-500.289 -257.91)"/>
    <path class="cls-1" d="M858.213,340.376a3.222,3.222,0,0,0,.159-.836c0-.329-.109-.459-.309-.459-.359,0-.558.479-.727,1.186-.06.219-.07.229-.17.229-.02,0-.119,0-.119-.1a5.056,5.056,0,0,1,.3-.966.868.868,0,0,1,.747-.568.9.9,0,0,1,.917.867,1.924,1.924,0,0,1,1.554-.867,1.019,1.019,0,0,1,1.146,1.066,9.024,9.024,0,0,1-.607,2.192,1.9,1.9,0,0,0-.18.708c0,.229.069.329.239.329.488,0,.817-.558,1.016-1.236.051-.15.051-.179.15-.179.029,0,.119,0,.119.1,0,.08-.369,1.534-1.3,1.534a.8.8,0,0,1-.817-.816,1.136,1.136,0,0,1,.1-.459,9.511,9.511,0,0,0,.647-2.321c0-.329-.09-.7-.538-.7a1.984,1.984,0,0,0-1.624,1.216c-.01.04-.09.328-.13.5-.05.229-.109.449-.169.667l-.219.9c-.06.249-.179.718-.19.738a.405.405,0,0,1-.368.278.266.266,0,0,1-.289-.268c0-.05.059-.279.09-.429Z" transform="translate(-500.289 -257.91)"/>
    <path class="cls-1" d="M864.342,345.757h-1.365v-.4h.966v-9.166h-.966v-.4h1.365Z" transform="translate(-500.289 -257.91)"/>
    <polyline points="201.81 42.666 206.345 40.399 201.81 38.131 202.944 40.399"/>
    <line class="cls-2" x1="177.999" y1="40.399" x2="202.944" y2="40.399"/>
    <path class="cls-1" d="M720.367,301a.856.856,0,0,0-.04.209c0,.16.08.189.368.22.26.019.389.019.638.019s.339,0,.339.11c0,.2-.119.2-.219.2-.279,0-.578-.02-.867-.02-.269,0-.548-.009-.827-.009s-.568.009-.847.009-.548.02-.817.02c-.06,0-.169,0-.169-.119,0-.19.059-.19.418-.19,1.066,0,1.1-.109,1.186-.478l1.335-5.321a.958.958,0,0,0,.04-.209c0-.08,0-.119-.279-.119h-.389c-1.474,0-1.733.179-2.271,1.723-.06.16-.07.209-.17.209a.112.112,0,0,1-.119-.109,1.338,1.338,0,0,1,.059-.179l.6-1.754c.07-.19.08-.2.319-.2h5.531c.169,0,.268,0,.268.109a1.244,1.244,0,0,1-.019.17l-.27,1.733c-.019.15-.04.229-.149.229a.116.116,0,0,1-.119-.129,1.455,1.455,0,0,1,.029-.189,7.344,7.344,0,0,0,.08-.8c0-.778-.448-.817-1.455-.817a5.713,5.713,0,0,0-.628.019c-.119.031-.159.09-.229.369Z" transform="translate(-500.289 -257.91)"/>
    <polygon class="cls-2" points="206.345 40.399 206.345 26.225 234.692 26.225 234.692 54.572 206.345 54.572 206.345 40.399"/>
    <polyline points="258.503 42.666 263.038 40.399 258.503 38.131 259.636 40.399"/>
    <line class="cls-2" x1="234.692" y1="40.399" x2="259.636" y2="40.399"/>
    <path class="cls-1" d="M777.008,301a.856.856,0,0,0-.04.209c0,.16.08.189.368.22.26.019.389.019.638.019s.339,0,.339.11c0,.2-.12.2-.219.2-.28,0-.578-.02-.867-.02-.269,0-.548-.009-.828-.009s-.567.009-.846.009-.548.02-.818.02c-.059,0-.169,0-.169-.119,0-.19.06-.19.418-.19,1.067,0,1.1-.109,1.187-.478l1.335-5.321a.958.958,0,0,0,.04-.209c0-.08,0-.119-.279-.119h-.389c-1.475,0-1.733.179-2.272,1.723-.059.16-.07.209-.169.209a.113.113,0,0,1-.12-.109,1.214,1.214,0,0,1,.06-.179l.6-1.754c.07-.19.08-.2.319-.2h5.53c.169,0,.269,0,.269.109a1.114,1.114,0,0,1-.02.17l-.269,1.733c-.02.15-.04.229-.15.229a.116.116,0,0,1-.119-.129,1.65,1.65,0,0,1,.029-.189,7.382,7.382,0,0,0,.081-.8c0-.778-.449-.817-1.456-.817a5.683,5.683,0,0,0-.627.019c-.12.031-.16.09-.229.369Z" transform="translate(-500.289 -257.91)"/>
    <path class="cls-2" d="M763.327,298.309V284.136h28.346v28.346H763.327Zm28.346,0h14.173m-113.215,0v42.519" transform="translate(-500.289 -257.91)"/>
    <polyline points="303.46 71.296 305.727 75.831 307.995 71.296 305.727 72.43"/>
    <line class="cls-2" x1="305.727" y1="40.399" x2="305.727" y2="72.43"/>
    <polyline points="246.767 71.296 249.035 75.831 251.303 71.296 249.035 72.43"/>
    <path class="cls-2" d="M749.324,298.309V330.34m7.29,10.293a7.257,7.257,0,1,0-7.256,7.256,7.259,7.259,0,0,0,7.256-7.256Zm-10.833.195h7.086m-3.543,3.544v-7.087" transform="translate(-500.289 -257.91)"/>
    <polyline points="237.413 85.186 241.948 82.918 237.413 80.65 238.547 82.918"/>
    <path class="cls-2" d="M692.631,340.828h46.205m74.418-.195A7.257,7.257,0,1,0,806,347.889a7.259,7.259,0,0,0,7.257-7.256Zm-10.781.195h7.087m-3.544,3.544v-7.087" transform="translate(-500.289 -257.91)"/>
    <polyline points="294.105 85.186 298.641 82.918 294.105 80.65 295.239 82.918"/>
    <line class="cls-2" x1="256.121" y1="82.918" x2="295.239" y2="82.918"/>
    <polyline points="336.625 85.186 341.16 82.918 336.625 80.65 337.759 82.918"/>
    <line class="cls-2" x1="312.814" y1="82.918" x2="337.759" y2="82.918"/>
    <polygon class="cls-3" points="185.086 58.115 185.086 97.091 319.73 97.091 319.73 19.139 185.086 19.139 185.086 58.115"/>
    <path class="cls-1" d="M742.8,361a1.849,1.849,0,0,1,1.475-.768,1.014,1.014,0,0,1,1.146,1.066,8.862,8.862,0,0,1-.609,2.192,1.94,1.94,0,0,0-.178.708c0,.229.069.329.239.329.548,0,.866-.708,1.016-1.236.049-.149.049-.179.149-.179.03,0,.12,0,.12.1,0,.08-.369,1.535-1.3,1.535a.8.8,0,0,1-.817-.817,1.516,1.516,0,0,1,.129-.548,8.472,8.472,0,0,0,.618-2.232c0-.359-.109-.7-.538-.7a1.59,1.59,0,0,0-.957.349,2.949,2.949,0,0,0-.677.917c-.01.059-.09.389-.11.448-.05.23-.109.449-.169.668l-.22.9-.188.757a.415.415,0,0,1-.369.259.274.274,0,0,1-.289-.279.609.609,0,0,1,.04-.219l1.444-5.74.03-.2c0-.1-.019-.169-.5-.169-.149,0-.239,0-.239-.12,0-.179.109-.189.189-.2.259-.02.987-.1,1.216-.1.129,0,.129.1.129.11Z" transform="translate(-500.289 -257.91)"/>
    <path class="cls-1" d="M749.789,366.071h-2.873c0-.2,0-.209.069-.272l1.681-1.66a2.114,2.114,0,0,0,.655-1.339,1.043,1.043,0,0,0-1.059-1.109,1.1,1.1,0,0,0-1.019.649c.363,0,.412.244.412.369a.37.37,0,1,1-.739-.02,1.352,1.352,0,0,1,1.45-1.249A1.46,1.46,0,0,1,750,362.8a2.018,2.018,0,0,1-1,1.507c-.419.327-.662.523-1.395,1.171h1.284a3.594,3.594,0,0,0,.69-.042,1.63,1.63,0,0,0,.181-.634H750Z" transform="translate(-500.289 -257.91)"/>
    <path class="cls-1" d="M752.1,367.125V357.16h1.365v.4H752.5v9.167h.967v.4Z" transform="translate(-500.289 -257.91)"/>
    <path class="cls-1" d="M754.416,361.744a3.227,3.227,0,0,0,.159-.837c0-.329-.109-.459-.308-.459-.36,0-.559.479-.728,1.186-.06.22-.07.229-.17.229-.019,0-.119,0-.119-.1a5.058,5.058,0,0,1,.3-.967.87.87,0,0,1,.747-.568.9.9,0,0,1,.917.867,1.925,1.925,0,0,1,1.555-.867,1.018,1.018,0,0,1,1.145,1.066,9.024,9.024,0,0,1-.607,2.192,1.9,1.9,0,0,0-.18.708c0,.229.069.329.239.329.489,0,.817-.558,1.016-1.236.051-.149.051-.179.15-.179.03,0,.119,0,.119.1,0,.08-.369,1.535-1.3,1.535a.8.8,0,0,1-.817-.817,1.136,1.136,0,0,1,.1-.459,9.5,9.5,0,0,0,.647-2.321c0-.329-.089-.7-.538-.7a1.984,1.984,0,0,0-1.624,1.216c-.009.04-.09.329-.13.5-.049.23-.109.449-.169.668l-.219.9c-.06.249-.179.717-.19.737a.407.407,0,0,1-.368.279.267.267,0,0,1-.289-.269c0-.05.06-.279.09-.429Z" transform="translate(-500.289 -257.91)"/>
    <path class="cls-1" d="M760.537,367.125h-1.365v-.4h.967v-9.167h-.967v-.4h1.365Z" transform="translate(-500.289 -257.91)"/>
    <line class="cls-2" x1="178.169" y1="82.918" x2="178.169" y2="40.399"/>
    <polygon class="cls-4" points="22.264 65.202 22.264 118.351 326.987 118.351 326.987 12.052 22.264 12.052 22.264 65.202"/>
    <path class="cls-1" d="M665.043,261.747a1.849,1.849,0,0,1,1.475-.768,1.013,1.013,0,0,1,1.146,1.066,8.949,8.949,0,0,1-.608,2.192,1.9,1.9,0,0,0-.179.708c0,.229.069.329.239.329.548,0,.867-.708,1.016-1.236.05-.149.05-.179.15-.179.03,0,.119,0,.119.1,0,.08-.368,1.535-1.3,1.535a.8.8,0,0,1-.817-.817,1.5,1.5,0,0,1,.13-.548,8.506,8.506,0,0,0,.617-2.232c0-.359-.109-.7-.538-.7a1.587,1.587,0,0,0-.956.349,2.94,2.94,0,0,0-.678.917c-.01.059-.089.389-.109.448-.05.23-.11.449-.17.668l-.219.9-.189.757a.414.414,0,0,1-.369.259.274.274,0,0,1-.289-.279.609.609,0,0,1,.04-.219l1.445-5.74.029-.2c0-.1-.02-.169-.5-.169-.149,0-.239,0-.239-.12,0-.179.11-.189.19-.2.258-.02.986-.1,1.215-.1.13,0,.13.1.13.11Z" transform="translate(-500.289 -257.91)"/>
    <path class="cls-1" d="M669.9,267.875V257.91h1.365v.4h-.967v9.167h.967v.4Z" transform="translate(-500.289 -257.91)"/>
    <path class="cls-1" d="M672.931,262.494a3.2,3.2,0,0,0,.16-.837c0-.329-.11-.459-.309-.459-.359,0-.558.479-.727,1.186-.06.22-.07.229-.17.229-.02,0-.119,0-.119-.1a5.031,5.031,0,0,1,.3-.967.872.872,0,0,1,.748-.568.9.9,0,0,1,.917.867,1.924,1.924,0,0,1,1.554-.867,1.019,1.019,0,0,1,1.146,1.066,8.982,8.982,0,0,1-.608,2.192,1.9,1.9,0,0,0-.179.708c0,.229.069.329.239.329.488,0,.817-.558,1.016-1.236.05-.149.05-.179.149-.179.03,0,.12,0,.12.1,0,.08-.369,1.535-1.305,1.535a.8.8,0,0,1-.818-.817,1.142,1.142,0,0,1,.1-.459,9.5,9.5,0,0,0,.647-2.321c0-.329-.09-.7-.538-.7a1.981,1.981,0,0,0-1.624,1.216c-.01.04-.09.329-.13.5-.05.23-.109.449-.169.668l-.219.9c-.06.249-.18.717-.19.737a.407.407,0,0,1-.368.279.266.266,0,0,1-.289-.269c0-.05.06-.279.09-.429Z" transform="translate(-500.289 -257.91)"/>
    <path class="cls-1" d="M679.061,267.875H677.7v-.4h.966v-9.167H677.7v-.4h1.365Z" transform="translate(-500.289 -257.91)"/>
    <polygon class="cls-3" points="29.351 58.115 29.351 97.091 163.996 97.091 163.996 19.139 29.351 19.139 29.351 58.115"/>
    <polyline points="46.075 42.666 50.611 40.399 46.075 38.131 47.209 40.399"/>
    <line class="cls-2" x1="8.091" y1="40.399" x2="47.209" y2="40.399"/>
    <path class="cls-1" d="M564.609,301a.856.856,0,0,0-.04.209c0,.16.08.189.369.22.259.019.389.019.638.019s.339,0,.339.11c0,.2-.12.2-.22.2-.279,0-.578-.02-.867-.02-.269,0-.548-.009-.827-.009s-.567.009-.847.009-.548.02-.817.02c-.06,0-.169,0-.169-.119,0-.19.06-.19.418-.19,1.066,0,1.1-.109,1.186-.478l1.335-5.321a.958.958,0,0,0,.04-.209c0-.08,0-.119-.279-.119h-.389c-1.474,0-1.733.179-2.271,1.723-.06.16-.07.209-.169.209a.113.113,0,0,1-.12-.109,1.214,1.214,0,0,1,.06-.179l.6-1.754c.069-.19.079-.2.319-.2h5.529c.17,0,.269,0,.269.109a1,1,0,0,1-.02.17l-.269,1.733c-.02.15-.039.229-.149.229a.117.117,0,0,1-.12-.129,1.468,1.468,0,0,1,.03-.189,7.344,7.344,0,0,0,.08-.8c0-.778-.449-.817-1.455-.817a5.683,5.683,0,0,0-.627.019c-.12.031-.16.09-.23.369Z" transform="translate(-500.289 -257.91)"/>
    <polygon class="cls-2" points="50.611 40.399 50.611 26.225 78.957 26.225 78.957 54.572 50.611 54.572 50.611 40.399"/>
    <polyline points="102.768 42.666 107.303 40.399 102.768 38.131 103.902 40.399"/>
    <line class="cls-2" x1="78.957" y1="40.399" x2="103.902" y2="40.399"/>
    <path class="cls-1" d="M621.25,301a.856.856,0,0,0-.04.209c0,.16.08.189.369.22.258.019.388.019.637.019s.339,0,.339.11c0,.2-.119.2-.219.2-.279,0-.578-.02-.867-.02-.269,0-.548-.009-.827-.009s-.568.009-.847.009-.548.02-.817.02c-.06,0-.169,0-.169-.119,0-.19.059-.19.418-.19,1.066,0,1.1-.109,1.186-.478l1.335-5.321a.958.958,0,0,0,.04-.209c0-.08,0-.119-.279-.119h-.389c-1.474,0-1.734.179-2.271,1.723-.06.16-.07.209-.17.209a.112.112,0,0,1-.119-.109,1.209,1.209,0,0,1,.059-.179l.6-1.754c.07-.19.08-.2.319-.2h5.53c.169,0,.269,0,.269.109a1.114,1.114,0,0,1-.02.17l-.269,1.733c-.02.15-.04.229-.15.229a.116.116,0,0,1-.119-.129,1.468,1.468,0,0,1,.03-.189,7.344,7.344,0,0,0,.08-.8c0-.778-.449-.817-1.455-.817a5.713,5.713,0,0,0-.628.019c-.119.031-.159.09-.229.369Z" transform="translate(-500.289 -257.91)"/>
    <path class="cls-2" d="M607.592,298.309V284.136h28.347v28.346H607.592Zm28.347,0h14.173m-113.215,0v42.519" transform="translate(-500.289 -257.91)"/>
    <polyline points="147.725 71.296 149.993 75.831 152.261 71.296 149.993 72.43"/>
    <line class="cls-2" x1="149.993" y1="40.399" x2="149.993" y2="72.43"/>
    <polyline points="91.033 71.296 93.3 75.831 95.568 71.296 93.3 72.43"/>
    <path class="cls-2" d="M593.589,298.309V330.34m7.265,10.293a7.257,7.257,0,1,0-7.256,7.256,7.259,7.259,0,0,0,7.256-7.256Zm-10.808.195h7.087m-3.544,3.544v-7.087" transform="translate(-500.289 -257.91)"/>
    <polyline points="81.678 85.186 86.214 82.918 81.678 80.65 82.812 82.918"/>
    <path class="cls-2" d="M536.9,340.828h46.2m74.513-.195a7.257,7.257,0,1,0-7.256,7.256,7.259,7.259,0,0,0,7.256-7.256Zm-10.875.195h7.086m-3.543,3.544v-7.087" transform="translate(-500.289 -257.91)"/>
    <polyline points="138.371 85.186 142.906 82.918 138.371 80.65 139.505 82.918"/>
    <path class="cls-2" d="M600.676,340.828h39.118m17.574,0h21.26" transform="translate(-500.289 -257.91)"/>
    <path class="cls-1" d="M588.247,361a1.845,1.845,0,0,1,1.474-.768,1.013,1.013,0,0,1,1.146,1.066,8.949,8.949,0,0,1-.608,2.192,1.9,1.9,0,0,0-.179.708c0,.229.069.329.239.329.548,0,.867-.708,1.016-1.236.05-.149.05-.179.15-.179.03,0,.119,0,.119.1,0,.08-.368,1.535-1.305,1.535a.8.8,0,0,1-.817-.817,1.5,1.5,0,0,1,.13-.548,8.468,8.468,0,0,0,.617-2.232c0-.359-.109-.7-.538-.7a1.587,1.587,0,0,0-.956.349,2.94,2.94,0,0,0-.678.917c-.01.059-.089.389-.109.448-.05.23-.11.449-.17.668l-.219.9-.189.757a.414.414,0,0,1-.369.259.274.274,0,0,1-.289-.279.609.609,0,0,1,.04-.219l1.445-5.74.03-.2c0-.1-.02-.169-.5-.169-.15,0-.24,0-.24-.12,0-.179.11-.189.19-.2.259-.02.986-.1,1.215-.1.13,0,.13.1.13.11Z" transform="translate(-500.289 -257.91)"/>
    <path class="cls-1" d="M594.258,365.5c0,.23,0,.321.7.321h.265v.251c-.153-.007-1.032-.028-1.248-.028-.258,0-1.116.021-1.241.028v-.251H593c.7,0,.7-.091.7-.321v-3.556a2.3,2.3,0,0,1-1.011.195v-.251a1.9,1.9,0,0,0,1.367-.447c.2,0,.209.008.209.2Z" transform="translate(-500.289 -257.91)"/>
    <path class="cls-1" d="M597.535,367.125V357.16H598.9v.4h-.966v9.167h.966v.4Z" transform="translate(-500.289 -257.91)"/>
    <path class="cls-1" d="M600.572,361.744a3.182,3.182,0,0,0,.159-.837c0-.329-.109-.459-.309-.459-.358,0-.558.479-.727,1.186-.06.22-.07.229-.169.229-.02,0-.12,0-.12-.1a4.983,4.983,0,0,1,.3-.967.871.871,0,0,1,.747-.568.9.9,0,0,1,.917.867,1.928,1.928,0,0,1,1.554-.867,1.018,1.018,0,0,1,1.146,1.066,8.937,8.937,0,0,1-.608,2.192,1.921,1.921,0,0,0-.179.708c0,.229.07.329.239.329.488,0,.817-.558,1.017-1.236.049-.149.049-.179.149-.179.03,0,.12,0,.12.1,0,.08-.369,1.535-1.306,1.535a.8.8,0,0,1-.817-.817,1.136,1.136,0,0,1,.1-.459,9.5,9.5,0,0,0,.648-2.321c0-.329-.09-.7-.538-.7a1.981,1.981,0,0,0-1.624,1.216c-.011.04-.09.329-.13.5-.05.23-.11.449-.169.668l-.22.9c-.06.249-.179.717-.189.737a.408.408,0,0,1-.369.279.267.267,0,0,1-.289-.269c0-.05.06-.279.09-.429Z" transform="translate(-500.289 -257.91)"/>
    <path class="cls-1" d="M606.7,367.125h-1.366v-.4h.967v-9.167h-.967v-.4H606.7Z" transform="translate(-500.289 -257.91)"/>
    <polyline points="66.825 184.37 71.36 182.102 66.825 179.834 67.959 182.102"/>
    <line class="cls-2" x1="28.841" y1="182.102" x2="67.959" y2="182.102"/>
    <path class="cls-1" d="M585.367,442.721a.856.856,0,0,0-.04.209c0,.159.08.189.369.218.259.021.388.021.637.021s.339,0,.339.109c0,.2-.119.2-.219.2-.279,0-.578-.02-.867-.02-.269,0-.548-.011-.827-.011s-.568.011-.847.011-.548.02-.817.02c-.06,0-.169,0-.169-.12,0-.189.059-.189.418-.189,1.066,0,1.1-.11,1.186-.479l1.335-5.321a.958.958,0,0,0,.04-.209c0-.079,0-.119-.279-.119h-.389c-1.474,0-1.734.179-2.271,1.724-.06.159-.07.209-.17.209a.113.113,0,0,1-.119-.11,1.439,1.439,0,0,1,.059-.179l.6-1.753c.07-.19.08-.2.319-.2h5.53c.17,0,.269,0,.269.111a1.116,1.116,0,0,1-.02.169l-.269,1.734c-.02.15-.039.229-.149.229a.117.117,0,0,1-.12-.129,1.429,1.429,0,0,1,.03-.19,7.335,7.335,0,0,0,.08-.8c0-.776-.449-.816-1.455-.816a5.429,5.429,0,0,0-.628.02c-.119.03-.159.089-.229.369Z" transform="translate(-500.289 -257.91)"/>
    <path class="cls-2" d="M571.649,440.012V425.839H600v28.346H571.649Zm-13.833,0v56.693" transform="translate(-500.289 -257.91)"/>
    <polyline points="102.428 241.062 106.963 238.794 102.428 236.527 103.562 238.794"/>
    <line class="cls-2" x1="57.357" y1="238.794" x2="103.562" y2="238.794"/>
    <polyline points="111.952 198.826 114.22 203.362 116.487 198.826 114.22 199.96"/>
    <path class="cls-2" d="M614.509,440.012V457.87m7.345,10.323a7.257,7.257,0,1,0-7.256,7.256,7.259,7.259,0,0,0,7.256-7.256Zm-10.888-3.378,7.086,7.087m-7.086,0,7.086-7.087" transform="translate(-500.289 -257.91)"/>
    <polyline points="102.598 212.716 107.133 210.448 102.598 208.18 103.732 210.448"/>
    <line class="cls-2" x1="92.96" y1="210.448" x2="103.732" y2="210.448"/>
    <path class="cls-1" d="M586.817,470.78a3.272,3.272,0,0,0,.946-.079,3.233,3.233,0,0,0,.219-.887h.249l-.278,1.734h-3.7c0-.239,0-.259.11-.369l1.913-2.132a3.57,3.57,0,0,0,1.046-2.2c0-.818-.429-1.624-1.335-1.624a1.437,1.437,0,0,0-1.345,1.016.41.41,0,0,1,.129-.009.5.5,0,0,1,.528.517.524.524,0,1,1-1.046-.03,1.84,1.84,0,0,1,1.863-1.8,1.957,1.957,0,0,1,2.112,1.933c0,1-.6,1.534-2.151,2.909l-1.057,1.026Z" transform="translate(-500.289 -257.91)"/>
    <polyline points="111.952 227.172 114.22 231.708 116.487 227.172 114.22 228.306"/>
    <path class="cls-2" d="M614.509,475.445v10.771m7.105,10.3a7.257,7.257,0,1,0-7.256,7.256,7.259,7.259,0,0,0,7.256-7.256Zm-10.818.192h7.086m-3.543,3.543v-7.087" transform="translate(-500.289 -257.91)"/>
    <polyline points="159.12 241.062 163.656 238.794 159.12 236.527 160.254 238.794"/>
    <line class="cls-2" x1="121.136" y1="238.794" x2="160.254" y2="238.794"/>
    <polyline points="123.517 184.37 128.053 182.102 123.517 179.834 124.651 182.102"/>
    <line class="cls-2" x1="99.706" y1="182.102" x2="124.651" y2="182.102"/>
    <path class="cls-1" d="M642.007,442.721a.876.876,0,0,0-.039.209c0,.159.079.189.368.218.259.021.389.021.638.021s.339,0,.339.109c0,.2-.12.2-.219.2-.28,0-.578-.02-.867-.02-.269,0-.548-.011-.827-.011s-.568.011-.847.011-.548.02-.817.02c-.06,0-.17,0-.17-.12,0-.189.06-.189.419-.189,1.066,0,1.1-.11,1.185-.479l1.336-5.321a.964.964,0,0,0,.039-.209c0-.079,0-.119-.278-.119h-.389c-1.475,0-1.734.179-2.272,1.724-.06.159-.069.209-.169.209a.113.113,0,0,1-.12-.11,1.3,1.3,0,0,1,.06-.179l.6-1.753c.069-.19.08-.2.319-.2h5.53c.169,0,.269,0,.269.111a1.116,1.116,0,0,1-.02.169l-.269,1.734c-.02.15-.04.229-.15.229a.116.116,0,0,1-.119-.129,1.6,1.6,0,0,1,.029-.19,7.373,7.373,0,0,0,.081-.8c0-.776-.449-.816-1.456-.816a5.4,5.4,0,0,0-.627.02c-.12.03-.16.089-.229.369Z" transform="translate(-500.289 -257.91)"/>
    <polygon class="cls-2" points="128.053 182.102 128.053 167.929 156.399 167.929 156.399 196.275 128.053 196.275 128.053 182.102"/>
    <polyline points="180.55 184.37 185.086 182.102 180.55 179.834 181.684 182.102"/>
    <line class="cls-2" x1="156.739" y1="182.102" x2="181.684" y2="182.102"/>
    <path class="cls-1" d="M699.133,442.721a.856.856,0,0,0-.04.209c0,.159.08.189.368.218.26.021.389.021.638.021s.339,0,.339.109c0,.2-.12.2-.219.2-.28,0-.578-.02-.867-.02-.269,0-.548-.011-.828-.011s-.567.011-.846.011-.548.02-.818.02c-.059,0-.169,0-.169-.12,0-.189.06-.189.418-.189,1.067,0,1.1-.11,1.187-.479l1.335-5.321a.958.958,0,0,0,.04-.209c0-.079,0-.119-.279-.119H699c-1.475,0-1.733.179-2.272,1.724-.059.159-.07.209-.169.209a.113.113,0,0,1-.12-.11,1.3,1.3,0,0,1,.06-.179l.6-1.753c.07-.19.08-.2.319-.2h5.53c.169,0,.269,0,.269.111a1.116,1.116,0,0,1-.02.169l-.269,1.734c-.02.15-.04.229-.15.229a.116.116,0,0,1-.119-.129,1.6,1.6,0,0,1,.029-.19,7.373,7.373,0,0,0,.081-.8c0-.776-.449-.816-1.456-.816a5.4,5.4,0,0,0-.627.02c-.12.03-.16.089-.229.369Z" transform="translate(-500.289 -257.91)"/>
    <polygon class="cls-2" points="185.086 182.102 185.086 167.929 213.432 167.929 213.432 196.275 185.086 196.275 185.086 182.102"/>
    <polyline points="237.243 184.37 241.778 182.102 237.243 179.834 238.377 182.102"/>
    <line class="cls-2" x1="213.432" y1="182.102" x2="238.377" y2="182.102"/>
    <path class="cls-1" d="M755.773,442.721a.856.856,0,0,0-.04.209c0,.159.08.189.369.218.259.021.388.021.637.021s.339,0,.339.109c0,.2-.119.2-.219.2-.279,0-.578-.02-.867-.02-.268,0-.548-.011-.827-.011s-.567.011-.847.011-.547.02-.817.02c-.06,0-.169,0-.169-.12,0-.189.06-.189.418-.189,1.066,0,1.1-.11,1.187-.479l1.334-5.321a.952.952,0,0,0,.041-.209c0-.079,0-.119-.28-.119h-.388c-1.475,0-1.734.179-2.272,1.724-.059.159-.07.209-.17.209a.113.113,0,0,1-.119-.11,1.3,1.3,0,0,1,.06-.179l.6-1.753c.071-.19.08-.2.32-.2h5.53c.169,0,.268,0,.268.111a1.106,1.106,0,0,1-.019.169l-.27,1.734c-.019.15-.04.229-.149.229a.116.116,0,0,1-.119-.129,1.419,1.419,0,0,1,.029-.19,7.335,7.335,0,0,0,.08-.8c0-.776-.448-.816-1.455-.816a5.429,5.429,0,0,0-.628.02c-.119.03-.159.089-.228.369Z" transform="translate(-500.289 -257.91)"/>
    <polygon class="cls-2" points="241.778 182.102 241.778 167.929 270.124 167.929 270.124 196.275 241.778 196.275 241.778 182.102"/>
    <polyline points="168.815 198.854 171.082 203.39 173.35 198.854 171.082 199.988"/>
    <path class="cls-2" d="M671.372,440.04V457.9m7.242,10.295a7.257,7.257,0,1,0-7.256,7.256,7.259,7.259,0,0,0,7.256-7.256Zm-10.786-3.35,7.087,7.087m-7.087,0,7.087-7.087" transform="translate(-500.289 -257.91)"/>
    <polyline points="159.46 212.744 163.996 210.476 159.46 208.209 160.594 210.476"/>
    <line class="cls-2" x1="149.823" y1="210.476" x2="160.594" y2="210.476"/>
    <path class="cls-1" d="M645.077,469.844a2.033,2.033,0,0,1-2.122,1.923,1.818,1.818,0,0,1-2.013-1.564.558.558,0,1,1,1.116-.02.545.545,0,0,1-.658.547,1.814,1.814,0,0,0,1.525.758c.438,0,1.126-.289,1.126-1.644,0-.977-.369-1.654-1.186-1.654h-.438c-.17,0-.239,0-.239-.11s.069-.109.149-.119.309-.021.389-.03a.965.965,0,0,0,.886-.518,2.489,2.489,0,0,0,.279-1.136c0-.9-.548-1.116-.956-1.116a1.616,1.616,0,0,0-1.326.617c.15,0,.618,0,.618.5a.508.508,0,1,1-1.016-.01c0-.757.757-1.355,1.764-1.355.956,0,1.833.558,1.833,1.375a1.8,1.8,0,0,0,.269,3.557Z" transform="translate(-500.289 -257.91)"/>
    <polyline points="168.815 227.201 171.082 231.736 173.35 227.201 171.082 228.335"/>
    <path class="cls-2" d="M671.372,475.473v10.772m7.122,10.268a7.257,7.257,0,1,0-7.257,7.256,7.259,7.259,0,0,0,7.257-7.256Zm-10.836.192h7.087m-3.544,3.543v-7.087" transform="translate(-500.289 -257.91)"/>
    <polyline points="215.983 241.062 220.518 238.794 215.983 236.527 217.117 238.794"/>
    <line class="cls-2" x1="177.999" y1="238.794" x2="217.117" y2="238.794"/>
    <polyline points="225.507 199.166 227.775 203.702 230.043 199.166 227.775 200.3"/>
    <path class="cls-2" d="M728.064,440.352V458.21m7.31,10.343a7.257,7.257,0,1,0-7.257,7.256,7.259,7.259,0,0,0,7.257-7.256Zm-10.853-3.4,7.086,7.087m-7.086,0,7.086-7.087" transform="translate(-500.289 -257.91)"/>
    <polyline points="216.153 213.056 220.689 210.788 216.153 208.521 217.287 210.788"/>
    <line class="cls-2" x1="206.515" y1="210.788" x2="217.287" y2="210.788"/>
    <path class="cls-1" d="M700.34,471.147a.8.8,0,0,0,1.166-.965h.249l-.278,1.733h-3.7c0-.239,0-.259.11-.369l1.913-2.132a3.566,3.566,0,0,0,1.047-2.2c0-.817-.429-1.624-1.335-1.624a1.438,1.438,0,0,0-1.346,1.016.421.421,0,0,1,.13-.009.5.5,0,0,1,.527.517.524.524,0,1,1-1.046-.03,1.841,1.841,0,0,1,1.864-1.8,1.957,1.957,0,0,1,2.112,1.933c0,1-.6,1.534-2.152,2.909l-1.056,1.026Z" transform="translate(-500.289 -257.91)"/>
    <polyline points="225.507 227.513 227.775 232.048 230.043 227.513 227.775 228.646"/>
    <path class="cls-2" d="M728.064,475.785v10.772m7.07,10.316a7.257,7.257,0,1,0-7.256,7.256,7.259,7.259,0,0,0,7.256-7.256Zm-10.783.172h7.086m-3.543,3.543V493.5" transform="translate(-500.289 -257.91)"/>
    <polyline points="272.676 241.402 277.211 239.135 272.676 236.867 273.81 239.135"/>
    <path class="cls-2" d="M734.981,497.045H774.1m-3.685-57.033h14.173m7.307,56.5a7.257,7.257,0,1,0-7.256,7.256,7.259,7.259,0,0,0,7.256-7.256Zm-10.851.192h7.087m-3.543,3.543v-7.087" transform="translate(-500.289 -257.91)"/>
    <polyline points="282.03 227.172 284.298 231.708 286.565 227.172 284.298 228.306"/>
    <line class="cls-2" x1="284.298" y1="182.102" x2="284.298" y2="228.306"/>
    <polyline points="315.195 241.062 319.73 238.794 315.195 236.527 316.329 238.794"/>
    <line class="cls-2" x1="291.384" y1="238.794" x2="316.329" y2="238.794"/>
    <path class="cls-1" d="M510.067,440.864a3.918,3.918,0,0,0-.169.877c0,.339.159.658.548.658.319,0,1-.239,1.325-1.305.02-.07.04-.11.13-.11.03,0,.12,0,.12.1,0,.249-.569,1.534-1.595,1.534a1.1,1.1,0,0,1-1.076-.757,1.324,1.324,0,0,1-1.046.757c-.439,0-.937-.2-.937-.657a.566.566,0,0,1,.548-.578.342.342,0,0,1,.369.348.566.566,0,0,1-.469.539.964.964,0,0,0,.5.129c.439,0,.788-.419.947-1.036a14.448,14.448,0,0,0,.538-2.372c0-.577-.348-.667-.538-.667-.339,0-1,.249-1.335,1.305-.02.09-.05.11-.13.11-.02,0-.119,0-.119-.1,0-.25.568-1.536,1.6-1.536a1.1,1.1,0,0,1,1.076.758,1.291,1.291,0,0,1,1.046-.758c.339,0,.927.14.927.659a.555.555,0,0,1-.538.577.347.347,0,0,1-.378-.349.579.579,0,0,1,.478-.538.982.982,0,0,0-.5-.129c-.7,0-.927.916-.987,1.176Z" transform="translate(-500.289 -257.91)"/>
    <path class="cls-1" d="M513.9,445v-9.964h1.365v.4h-.967V444.6h.967v.4Z" transform="translate(-500.289 -257.91)"/>
    <path class="cls-1" d="M516.931,439.619a3.194,3.194,0,0,0,.16-.837c0-.329-.11-.458-.309-.458-.359,0-.558.478-.727,1.186-.06.219-.07.229-.17.229-.02,0-.119,0-.119-.1a5.031,5.031,0,0,1,.3-.967.872.872,0,0,1,.748-.569.9.9,0,0,1,.917.868,1.922,1.922,0,0,1,1.554-.868,1.019,1.019,0,0,1,1.146,1.067,8.982,8.982,0,0,1-.608,2.192,1.892,1.892,0,0,0-.179.707c0,.23.069.329.239.329.488,0,.817-.558,1.016-1.235.05-.149.05-.18.149-.18.03,0,.12,0,.12.1,0,.08-.369,1.534-1.305,1.534a.8.8,0,0,1-.818-.816,1.136,1.136,0,0,1,.1-.459,9.494,9.494,0,0,0,.647-2.322c0-.329-.09-.7-.538-.7a1.98,1.98,0,0,0-1.624,1.215c-.01.04-.09.329-.13.5-.05.229-.109.448-.169.667l-.219.9c-.06.249-.18.716-.19.737a.405.405,0,0,1-.368.278.266.266,0,0,1-.289-.268c0-.05.06-.28.09-.429Z" transform="translate(-500.289 -257.91)"/>
    <path class="cls-1" d="M523.061,445H521.7v-.4h.966v-9.167H521.7v-.4h1.365Z" transform="translate(-500.289 -257.91)"/>
    <path class="cls-1" d="M826.565,492.206a2.626,2.626,0,0,1-2.331,2.033.942.942,0,0,1-1.056-.867.574.574,0,0,1,.558-.647.339.339,0,0,1,.368.348.534.534,0,0,1-.2.408.563.563,0,0,1-.428.121.805.805,0,0,0,.757.418,1.43,1.43,0,0,0,1.1-.628,3.81,3.81,0,0,0,.648-1.535,1.4,1.4,0,0,1-1.006.449,1.111,1.111,0,0,1-1.216-1.186,6.6,6.6,0,0,1,.578-2.093,2.117,2.117,0,0,0,.169-.7c0-.318-.169-.318-.249-.318-.339,0-.737.3-1.006,1.235-.05.159-.06.18-.16.18-.02,0-.119,0-.119-.1s.368-1.535,1.315-1.535a.79.79,0,0,1,.817.817,1.778,1.778,0,0,1-.2.718,5.948,5.948,0,0,0-.507,1.952c0,.369.109.808.618.808a1.382,1.382,0,0,0,1.125-.848l.449-1.793c.06-.269.129-.538.2-.8.039-.179.119-.488.14-.538a.434.434,0,0,1,.348-.21.267.267,0,0,1,.29.27.611.611,0,0,1-.041.229Z" transform="translate(-500.289 -257.91)"/>
    <path class="cls-1" d="M829.137,494.688v-9.964H830.5v.4h-.967v9.167h.967v.4Z" transform="translate(-500.289 -257.91)"/>
    <path class="cls-1" d="M832.174,489.307a3.227,3.227,0,0,0,.159-.837c0-.329-.109-.458-.309-.458-.359,0-.558.477-.727,1.185-.06.219-.07.23-.17.23-.02,0-.119,0-.119-.1a4.983,4.983,0,0,1,.3-.967.87.87,0,0,1,.747-.568.9.9,0,0,1,.917.867,1.924,1.924,0,0,1,1.554-.867,1.018,1.018,0,0,1,1.146,1.066,8.989,8.989,0,0,1-.608,2.193,1.911,1.911,0,0,0-.179.707c0,.229.069.329.239.329.488,0,.816-.559,1.016-1.235.05-.15.05-.18.15-.18.029,0,.119,0,.119.1,0,.081-.369,1.535-1.305,1.535a.8.8,0,0,1-.817-.817,1.136,1.136,0,0,1,.1-.459,9.486,9.486,0,0,0,.647-2.321c0-.329-.09-.7-.538-.7a1.983,1.983,0,0,0-1.624,1.215c-.01.04-.09.329-.13.5-.05.228-.109.448-.169.667l-.219.9c-.06.249-.179.717-.19.737a.405.405,0,0,1-.368.279.267.267,0,0,1-.289-.269c0-.05.059-.279.09-.429Z" transform="translate(-500.289 -257.91)"/>
    <path class="cls-1" d="M838.3,494.688h-1.365v-.4h.966v-9.167h-.966v-.4H838.3Z" transform="translate(-500.289 -257.91)"/>
    <polygon class="cls-5" points="43.694 206.933 43.694 252.996 298.811 252.996 298.811 160.87 43.694 160.87 43.694 206.933"/>
    <path class="cls-1" d="M631.918,406.958a1.852,1.852,0,0,1,1.475-.768,1.014,1.014,0,0,1,1.146,1.067,8.949,8.949,0,0,1-.608,2.192,1.892,1.892,0,0,0-.179.707c0,.23.069.329.239.329.548,0,.867-.708,1.016-1.235.05-.149.05-.18.15-.18.03,0,.119,0,.119.1,0,.08-.368,1.534-1.3,1.534a.8.8,0,0,1-.817-.816,1.5,1.5,0,0,1,.13-.549,8.5,8.5,0,0,0,.617-2.232c0-.358-.109-.7-.538-.7a1.587,1.587,0,0,0-.956.349,2.939,2.939,0,0,0-.678.916c-.01.06-.089.388-.109.449-.05.229-.11.448-.17.667l-.219.9-.189.757a.414.414,0,0,1-.369.259.274.274,0,0,1-.289-.278.613.613,0,0,1,.04-.22l1.445-5.739.029-.2c0-.1-.02-.169-.5-.169-.149,0-.239,0-.239-.12,0-.18.11-.19.19-.2.258-.019.986-.1,1.215-.1.13,0,.13.1.13.109Z" transform="translate(-500.289 -257.91)"/>
    <path class="cls-1" d="M636.777,413.086v-9.964h1.366v.4h-.967v9.167h.967v.4Z" transform="translate(-500.289 -257.91)"/>
    <path class="cls-1" d="M639.814,407.705a3.194,3.194,0,0,0,.16-.837c0-.329-.11-.458-.309-.458-.359,0-.559.478-.727,1.186-.061.218-.07.229-.17.229-.02,0-.12,0-.12-.1a5.058,5.058,0,0,1,.3-.967.87.87,0,0,1,.747-.569.9.9,0,0,1,.917.868,1.926,1.926,0,0,1,1.555-.868,1.019,1.019,0,0,1,1.146,1.067,8.982,8.982,0,0,1-.608,2.192,1.893,1.893,0,0,0-.18.707c0,.23.07.329.24.329.487,0,.817-.558,1.016-1.235.05-.149.05-.18.149-.18.03,0,.12,0,.12.1,0,.08-.369,1.534-1.3,1.534a.8.8,0,0,1-.818-.816,1.148,1.148,0,0,1,.1-.459,9.449,9.449,0,0,0,.648-2.322c0-.329-.09-.7-.538-.7a1.98,1.98,0,0,0-1.624,1.215c-.011.04-.09.329-.13.5-.05.229-.11.448-.169.667l-.219.9c-.06.25-.18.717-.19.738a.406.406,0,0,1-.368.278.267.267,0,0,1-.29-.268c0-.05.061-.28.09-.429Z" transform="translate(-500.289 -257.91)"/>
    <g>
      <path class="cls-1" d="M645.944,413.086h-1.365v-.4h.966v-9.167h-.966v-.4h1.365Z" transform="translate(-500.289 -257.91)"/>
      <path class="cls-1" d="M650.775,407.337c-.15,0-.338,0-.338-.2s.188-.2.328-.2h5.968c.14,0,.33,0,.33.2s-.19.2-.339.2Zm-.01,1.933c-.14,0-.328,0-.328-.2s.188-.2.338-.2h5.949c.149,0,.339,0,.339.2s-.19.2-.33.2Z" transform="translate(-500.289 -257.91)"/>
    </g>
    <path class="cls-1" d="M662.52,406.958A1.852,1.852,0,0,1,664,406.19a1.014,1.014,0,0,1,1.146,1.067,8.949,8.949,0,0,1-.608,2.192,1.892,1.892,0,0,0-.179.707c0,.23.069.329.238.329.549,0,.867-.708,1.017-1.235.05-.149.05-.18.149-.18.03,0,.12,0,.12.1,0,.08-.369,1.534-1.305,1.534a.8.8,0,0,1-.818-.816,1.5,1.5,0,0,1,.13-.549,8.462,8.462,0,0,0,.618-2.232c0-.358-.11-.7-.538-.7a1.59,1.59,0,0,0-.957.349,2.914,2.914,0,0,0-.677.916c-.01.06-.09.388-.11.449-.05.229-.11.448-.169.667l-.219.9-.19.757a.414.414,0,0,1-.369.259.274.274,0,0,1-.289-.278.613.613,0,0,1,.04-.22l1.445-5.739.03-.2c0-.1-.02-.169-.5-.169-.149,0-.239,0-.239-.12,0-.18.109-.19.189-.2.259-.019.986-.1,1.215-.1.13,0,.13.1.13.109Z" transform="translate(-500.289 -257.91)"/>
    <path class="cls-1" d="M668.539,411.452c0,.231,0,.321.7.321h.265v.251c-.153-.006-1.032-.028-1.248-.028-.258,0-1.115.022-1.241.028v-.251h.265c.7,0,.7-.09.7-.321V407.9a2.29,2.29,0,0,1-1.011.2v-.251a1.909,1.909,0,0,0,1.367-.446c.195,0,.209.006.209.195Z" transform="translate(-500.289 -257.91)"/>
    <path class="cls-1" d="M671.816,413.086v-9.964h1.366v.4h-.967v9.167h.967v.4Z" transform="translate(-500.289 -257.91)"/>
    <path class="cls-1" d="M674.853,407.705a3.194,3.194,0,0,0,.16-.837c0-.329-.11-.458-.309-.458-.359,0-.558.478-.727,1.186-.06.218-.07.229-.17.229-.02,0-.119,0-.119-.1a5.031,5.031,0,0,1,.3-.967.87.87,0,0,1,.747-.569.9.9,0,0,1,.917.868,1.926,1.926,0,0,1,1.555-.868,1.019,1.019,0,0,1,1.146,1.067,8.982,8.982,0,0,1-.608,2.192,1.893,1.893,0,0,0-.18.707c0,.23.07.329.24.329.488,0,.817-.558,1.016-1.235.05-.149.05-.18.149-.18.03,0,.12,0,.12.1,0,.08-.369,1.534-1.3,1.534a.8.8,0,0,1-.818-.816,1.148,1.148,0,0,1,.1-.459,9.449,9.449,0,0,0,.648-2.322c0-.329-.09-.7-.538-.7a1.98,1.98,0,0,0-1.624,1.215c-.01.04-.09.329-.13.5-.05.229-.109.448-.169.667l-.219.9c-.06.25-.18.717-.19.738a.406.406,0,0,1-.368.278.266.266,0,0,1-.289-.268c0-.05.06-.28.089-.429Z" transform="translate(-500.289 -257.91)"/>
    <path class="cls-1" d="M680.983,413.086h-1.365v-.4h.966v-9.167h-.966v-.4h1.365Z" transform="translate(-500.289 -257.91)"/>
    <path d="M686.7,409.028c.01-.02.08-.089.11-.089a6.3,6.3,0,0,1,.488.508c.289.319.578.637.877.936.039.05.069.05.079.05a.11.11,0,0,0,.11-.109c0-.05-.309-.588-.6-1.1l-.388-.718,1.733-.8c.14-.07.15-.11.15-.149a.1.1,0,0,0-.11-.1c-.01,0-.5.09-1.993.388l-.229-1.873c-.02-.179-.03-.219-.119-.219s-.11.05-.13.219l-.219,1.873-1.844-.368a1.011,1.011,0,0,0-.149-.02.1.1,0,0,0-.11.1c0,.079.05.1.16.149l1.734.8-.927,1.654c-.06.12-.07.13-.07.16a.11.11,0,0,0,.11.109c.02,0,.05,0,.149-.109Zm7.681-5.241c0-.01,0-.109-.129-.109-.229,0-.957.079-1.216.1-.08.01-.189.02-.189.2,0,.119.089.119.239.119.478,0,.5.07.5.169l-.03.2-1.445,5.739a.626.626,0,0,0-.039.219.274.274,0,0,0,.289.279.414.414,0,0,0,.368-.259l.19-.757.219-.9c.06-.219.119-.438.169-.667.02-.06.1-.389.11-.449a2.943,2.943,0,0,1,.677-.917,1.588,1.588,0,0,1,.957-.348c.428,0,.538.338.538.7a8.472,8.472,0,0,1-.618,2.232,1.5,1.5,0,0,0-.129.548.8.8,0,0,0,.817.817c.936,0,1.3-1.455,1.3-1.534,0-.1-.09-.1-.12-.1-.1,0-.1.03-.149.179-.15.529-.468,1.236-1.016,1.236-.17,0-.24-.1-.24-.329a1.893,1.893,0,0,1,.18-.707,8.961,8.961,0,0,0,.608-2.192,1.014,1.014,0,0,0-1.146-1.067,1.849,1.849,0,0,0-1.475.768Z" transform="translate(-500.289 -257.91)"/>
    <path class="cls-1" d="M700.594,412.024h-2.873c0-.195,0-.209.069-.271l1.681-1.66a2.121,2.121,0,0,0,.655-1.339,1.043,1.043,0,0,0-1.06-1.108,1.1,1.1,0,0,0-1.018.648c.363,0,.412.244.412.369a.37.37,0,1,1-.739-.02,1.352,1.352,0,0,1,1.45-1.248,1.459,1.459,0,0,1,1.632,1.359,2.019,2.019,0,0,1-1,1.506c-.419.328-.662.523-1.4,1.172h1.283a3.6,3.6,0,0,0,.691-.042,1.618,1.618,0,0,0,.18-.635h.238Z" transform="translate(-500.289 -257.91)"/>
    <path class="cls-1" d="M702.9,413.086v-9.964h1.365v.4h-.967v9.167h.967v.4Z" transform="translate(-500.289 -257.91)"/>
    <path class="cls-1" d="M705.932,407.705a3.22,3.22,0,0,0,.159-.837c0-.329-.11-.458-.309-.458-.359,0-.558.478-.727,1.186-.06.218-.071.229-.17.229-.02,0-.119,0-.119-.1a5.031,5.031,0,0,1,.3-.967.872.872,0,0,1,.748-.569.9.9,0,0,1,.917.868,1.92,1.92,0,0,1,1.554-.868,1.019,1.019,0,0,1,1.146,1.067,8.982,8.982,0,0,1-.608,2.192,1.892,1.892,0,0,0-.179.707c0,.23.069.329.239.329.488,0,.816-.558,1.015-1.235.051-.149.051-.18.151-.18.029,0,.119,0,.119.1,0,.08-.369,1.534-1.306,1.534a.8.8,0,0,1-.816-.816,1.13,1.13,0,0,1,.1-.459,9.494,9.494,0,0,0,.647-2.322c0-.329-.09-.7-.538-.7a1.982,1.982,0,0,0-1.624,1.215c-.01.04-.09.329-.13.5-.05.229-.109.448-.169.667l-.22.9c-.059.25-.178.717-.189.738a.405.405,0,0,1-.368.278.266.266,0,0,1-.289-.268c0-.05.059-.28.09-.429Z" transform="translate(-500.289 -257.91)"/>
    <path class="cls-1" d="M712.061,413.086H710.7v-.4h.967v-9.167H710.7v-.4h1.366Z" transform="translate(-500.289 -257.91)"/>
    <path class="cls-1" d="M672.689,393.452a4.862,4.862,0,0,1,1.455-.856c.109,0,.109.1.109.189,0,.119,0,.139-.029.159a.916.916,0,0,1-.2.11,4.527,4.527,0,0,0-2.361,2.451c-.05.109-.07.149-.14.149s-.089-.03-.139-.159a4.519,4.519,0,0,0-2.5-2.5c-.09-.04-.09-.07-.09-.209,0-.09,0-.189.11-.189a4.614,4.614,0,0,1,1.454.856v-5.978a4.84,4.84,0,0,1-1.454.857c-.11,0-.11-.1-.11-.189,0-.121,0-.14.03-.16a.916.916,0,0,1,.2-.11,4.525,4.525,0,0,0,2.362-2.451c.05-.109.07-.15.139-.15s.09.031.14.161a4.519,4.519,0,0,0,2.5,2.5c.089.039.089.069.089.209,0,.089,0,.189-.109.189a4.616,4.616,0,0,1-1.455-.857Zm-1.933.4a4.856,4.856,0,0,1,.767,1.046,4.9,4.9,0,0,1,.768-1.046v-6.776a4.922,4.922,0,0,1-.768-1.046,4.881,4.881,0,0,1-.767,1.046Z" transform="translate(-500.289 -257.91)"/>
  </g>
</svg>
