<svg id="Layer_1" data-name="Layer 1" xmlns="http://www.w3.org/2000/svg" viewBox="0 0 141.732 31.207">
  <defs>
    <style>
      .cls-1 {
        fill: none;
        stroke: #000;
        stroke-miterlimit: 10;
        stroke-width: 0.85px;
      }

      .cls-2 {
        fill: #1d1d1b;
      }

      .cls-3 {
        fill: red;
      }
    </style>
  </defs>
  <title>impulseresponse</title>
  <g>
    <polyline points="137.196 17.885 141.732 15.617 137.196 13.349 138.33 15.617"/>
    <line class="cls-1" x1="106.299" y1="15.617" x2="138.33" y2="15.617"/>
    <path class="cls-2" d="M735.041,376.393a2.627,2.627,0,0,1-2.331,2.033.943.943,0,0,1-1.057-.867.574.574,0,0,1,.559-.647.338.338,0,0,1,.368.348.539.539,0,0,1-.2.408.569.569,0,0,1-.429.12.806.806,0,0,0,.758.419,1.427,1.427,0,0,0,1.1-.628,3.821,3.821,0,0,0,.647-1.535,1.4,1.4,0,0,1-1.006.449,1.111,1.111,0,0,1-1.216-1.186,6.572,6.572,0,0,1,.579-2.092,2.129,2.129,0,0,0,.169-.7c0-.319-.169-.319-.25-.319-.338,0-.737.3-1,1.236-.05.159-.061.179-.161.179-.019,0-.119,0-.119-.1s.369-1.535,1.316-1.535a.79.79,0,0,1,.816.817,1.788,1.788,0,0,1-.2.718,5.934,5.934,0,0,0-.508,1.953c0,.368.11.807.618.807a1.383,1.383,0,0,0,1.125-.847l.45-1.794c.059-.269.128-.538.2-.8.039-.179.119-.488.139-.538a.43.43,0,0,1,.349-.209.267.267,0,0,1,.289.269.622.622,0,0,1-.04.229Z" transform="translate(-612 -368.91)"/>
    <path class="cls-2" d="M737.612,378.875V368.91h1.366v.4h-.967v9.167h.967v.4Z" transform="translate(-612 -368.91)"/>
    <path class="cls-2" d="M740.649,373.494a3.246,3.246,0,0,0,.16-.837c0-.329-.11-.459-.309-.459-.359,0-.559.479-.728,1.186-.059.22-.07.229-.169.229-.02,0-.12,0-.12-.1a5.058,5.058,0,0,1,.3-.967.871.871,0,0,1,.747-.568.9.9,0,0,1,.917.867,1.926,1.926,0,0,1,1.555-.867,1.018,1.018,0,0,1,1.145,1.066,8.979,8.979,0,0,1-.607,2.192,1.9,1.9,0,0,0-.18.708c0,.229.07.329.24.329.488,0,.816-.558,1.015-1.236.051-.149.051-.179.151-.179.029,0,.119,0,.119.1,0,.08-.369,1.535-1.306,1.535a.8.8,0,0,1-.816-.817,1.13,1.13,0,0,1,.1-.459,9.454,9.454,0,0,0,.648-2.321c0-.329-.09-.7-.538-.7a1.981,1.981,0,0,0-1.624,1.216c-.01.04-.09.329-.13.5-.05.23-.11.449-.169.668l-.22.9c-.059.249-.179.717-.189.737a.408.408,0,0,1-.368.279.267.267,0,0,1-.29-.269c0-.05.06-.279.09-.429Z" transform="translate(-612 -368.91)"/>
    <path class="cls-2" d="M746.778,378.875h-1.365v-.4h.967v-9.167h-.967v-.4h1.365Z" transform="translate(-612 -368.91)"/>
    <polyline points="30.897 17.885 35.433 15.617 30.897 13.349 32.031 15.617"/>
    <line class="cls-1" y1="15.617" x2="32.031" y2="15.617"/>
    <path class="cls-3" d="M620.032,391.567c0-.6.359-1.025,1.135-1.025a3.324,3.324,0,0,1,.817.109c.359.079.519.11.519.329a.419.419,0,0,1-.4.4,1.375,1.375,0,0,1-.548-.249,1.2,1.2,0,0,0-.707-.27.5.5,0,0,0-.548.458,3.931,3.931,0,0,0,.946,1.635,2.794,2.794,0,0,1,.737,1.854c0,1.375-.826,2.938-1.992,2.938a1.567,1.567,0,0,1-1.575-1.674,3.047,3.047,0,0,1,2.212-2.8A4.088,4.088,0,0,1,620.032,391.567Zm-1,4.784c0,.756.409,1.175.957,1.175.926,0,1.305-1.664,1.305-2.321a3.454,3.454,0,0,0-.548-1.714C619.4,393.85,619.035,395.723,619.035,396.351Z" transform="translate(-612 -368.91)"/>
    <path class="cls-3" d="M623.972,400.117v-9.964h1.365v.4h-.967v9.167h.967v.4Z" transform="translate(-612 -368.91)"/>
    <path class="cls-3" d="M627.008,394.736a3.194,3.194,0,0,0,.16-.837c0-.329-.11-.458-.309-.458-.359,0-.558.478-.727,1.186-.06.219-.07.229-.17.229-.02,0-.119,0-.119-.1a4.983,4.983,0,0,1,.3-.967.868.868,0,0,1,.747-.568.9.9,0,0,1,.917.867,1.922,1.922,0,0,1,1.554-.867,1.018,1.018,0,0,1,1.146,1.066,8.982,8.982,0,0,1-.608,2.192,1.892,1.892,0,0,0-.179.708c0,.229.07.329.239.329.488,0,.817-.559,1.016-1.236.05-.149.05-.179.15-.179.029,0,.119,0,.119.1,0,.08-.368,1.534-1.305,1.534a.8.8,0,0,1-.817-.816,1.133,1.133,0,0,1,.1-.459,9.5,9.5,0,0,0,.647-2.321c0-.329-.09-.7-.538-.7a1.982,1.982,0,0,0-1.624,1.215c-.01.04-.09.329-.13.5-.05.229-.109.449-.169.667l-.219.9c-.06.249-.18.717-.189.737a.407.407,0,0,1-.369.278.266.266,0,0,1-.289-.268c0-.05.06-.279.09-.429Z" transform="translate(-612 -368.91)"/>
    <path class="cls-3" d="M633.138,400.117h-1.365v-.4h.966v-9.167h-.966v-.4h1.365Z" transform="translate(-612 -368.91)"/>
    <path class="cls-2" d="M620.621,374.739a3.86,3.86,0,0,0-.169.877c0,.339.159.658.548.658.318,0,1-.239,1.325-1.306.02-.07.04-.109.13-.109.029,0,.119,0,.119.1,0,.25-.568,1.535-1.595,1.535a1.1,1.1,0,0,1-1.075-.757,1.327,1.327,0,0,1-1.047.757c-.438,0-.936-.2-.936-.658a.567.567,0,0,1,.548-.578.341.341,0,0,1,.368.349.565.565,0,0,1-.468.538.958.958,0,0,0,.5.13c.439,0,.787-.419.947-1.037a14.471,14.471,0,0,0,.538-2.371c0-.578-.349-.668-.538-.668-.339,0-1,.25-1.335,1.306-.02.089-.05.109-.13.109-.02,0-.12,0-.12-.1,0-.249.569-1.535,1.6-1.535a1.1,1.1,0,0,1,1.076.757,1.289,1.289,0,0,1,1.046-.757c.339,0,.927.14.927.658a.556.556,0,0,1-.538.578.348.348,0,0,1-.379-.349.58.58,0,0,1,.478-.538.974.974,0,0,0-.5-.13c-.7,0-.926.917-.986,1.176Z" transform="translate(-612 -368.91)"/>
    <path class="cls-2" d="M624.448,378.875V368.91h1.365v.4h-.966v9.167h.966v.4Z" transform="translate(-612 -368.91)"/>
    <path class="cls-2" d="M627.485,373.494a3.2,3.2,0,0,0,.16-.837c0-.329-.11-.459-.31-.459-.358,0-.558.479-.727,1.186-.06.22-.069.229-.169.229-.02,0-.12,0-.12-.1a4.983,4.983,0,0,1,.3-.967.871.871,0,0,1,.747-.568.9.9,0,0,1,.917.867,1.928,1.928,0,0,1,1.554-.867,1.018,1.018,0,0,1,1.146,1.066,8.979,8.979,0,0,1-.607,2.192,1.9,1.9,0,0,0-.18.708c0,.229.07.329.24.329.487,0,.816-.558,1.016-1.236.049-.149.049-.179.149-.179.03,0,.12,0,.12.1,0,.08-.369,1.535-1.305,1.535a.8.8,0,0,1-.818-.817,1.136,1.136,0,0,1,.1-.459,9.5,9.5,0,0,0,.648-2.321c0-.329-.09-.7-.538-.7a1.981,1.981,0,0,0-1.624,1.216c-.011.04-.09.329-.13.5-.05.23-.11.449-.169.668l-.219.9c-.061.249-.18.717-.19.737a.408.408,0,0,1-.369.279.267.267,0,0,1-.289-.269c0-.05.06-.279.09-.429Z" transform="translate(-612 -368.91)"/>
    <path class="cls-2" d="M633.615,378.875H632.25v-.4h.966v-9.167h-.966v-.4h1.365Z" transform="translate(-612 -368.91)"/>
    <path class="cls-3" d="M733,393.989a1.852,1.852,0,0,1,1.476-.767,1.013,1.013,0,0,1,1.145,1.066,8.9,8.9,0,0,1-.608,2.192,1.911,1.911,0,0,0-.179.708c0,.229.069.329.239.329.548,0,.867-.708,1.016-1.236.05-.149.05-.179.149-.179.031,0,.121,0,.121.1,0,.08-.37,1.534-1.306,1.534a.8.8,0,0,1-.817-.816,1.525,1.525,0,0,1,.129-.549,8.421,8.421,0,0,0,.619-2.231c0-.359-.11-.7-.539-.7a1.593,1.593,0,0,0-.957.349,2.951,2.951,0,0,0-.676.916c-.011.061-.09.389-.111.449-.05.229-.109.449-.169.667l-.219.9-.189.757a.416.416,0,0,1-.369.258.273.273,0,0,1-.289-.278.613.613,0,0,1,.04-.22l1.444-5.739.031-.2c0-.1-.02-.169-.5-.169-.15,0-.24,0-.24-.12,0-.18.11-.19.19-.2.259-.02.986-.1,1.216-.1.128,0,.128.1.128.109Z" transform="translate(-612 -368.91)"/>
    <path class="cls-3" d="M737.854,400.117v-9.964h1.366v.4h-.967v9.167h.967v.4Z" transform="translate(-612 -368.91)"/>
    <path class="cls-3" d="M740.892,394.736a3.22,3.22,0,0,0,.159-.837c0-.329-.11-.458-.309-.458-.359,0-.558.478-.727,1.186-.06.219-.071.229-.17.229-.02,0-.119,0-.119-.1a5.031,5.031,0,0,1,.3-.967.869.869,0,0,1,.747-.568.9.9,0,0,1,.917.867,1.924,1.924,0,0,1,1.555-.867,1.018,1.018,0,0,1,1.146,1.066,8.982,8.982,0,0,1-.608,2.192,1.892,1.892,0,0,0-.179.708c0,.229.069.329.239.329.488,0,.816-.559,1.015-1.236.051-.149.051-.179.151-.179.029,0,.119,0,.119.1,0,.08-.369,1.534-1.306,1.534a.8.8,0,0,1-.816-.816,1.133,1.133,0,0,1,.1-.459,9.5,9.5,0,0,0,.647-2.321c0-.329-.09-.7-.538-.7a1.984,1.984,0,0,0-1.624,1.215c-.01.04-.09.329-.13.5-.05.229-.109.449-.169.667l-.22.9c-.059.249-.178.717-.189.737a.405.405,0,0,1-.368.278.266.266,0,0,1-.289-.268c0-.05.059-.279.089-.429Z" transform="translate(-612 -368.91)"/>
    <path class="cls-3" d="M747.013,400.117h-1.366v-.4h.967v-9.167h-.967v-.4h1.366Z" transform="translate(-612 -368.91)"/>
    <g>
      <path class="cls-2" d="M656.19,374.008a3.269,3.269,0,0,1,3.049,3.457,3.2,3.2,0,0,1-3.049,3.348h-3.647V380.5h.239c.767,0,.787-.109.787-.468v-5.251c0-.359-.02-.469-.787-.469h-.239v-.308Zm-.269,6.5a2.183,2.183,0,0,0,1.773-.847,3.415,3.415,0,0,0,.549-2.192,3.85,3.85,0,0,0-.519-2.222,2.149,2.149,0,0,0-1.813-.927h-1c-.469,0-.489.07-.489.4v5.39c0,.33.02.4.489.4Z" transform="translate(-612 -368.91)"/>
      <path class="cls-2" d="M661.549,380.066c0,.388.04.438.7.438v.309c-.339-.01-.688-.03-1.037-.03-.239,0-.777.02-1.1.03V380.5c.668,0,.778,0,.778-.448v-2.681c0-.488-.09-.547-.738-.547v-.309l1.395-.11Zm-.488-4.863a.531.531,0,0,1-.528-.528.538.538,0,0,1,.528-.528.528.528,0,0,1,0,1.056Z" transform="translate(-612 -368.91)"/>
      <path class="cls-2" d="M663.292,378.421a1.059,1.059,0,0,1-.428-.846c0-.558.379-1.226,1.594-1.226a1.537,1.537,0,0,1,.937.279,1.341,1.341,0,0,0,.169-.159c.13-.12.15-.12.2-.12.109,0,.109.07.109.239V377.6c0,.189,0,.239-.129.239a.107.107,0,0,1-.12-.09,1.1,1.1,0,0,0-1.166-1.205c-.857,0-1.116.408-1.116.757,0,.578.668.707,1.226.817a2.028,2.028,0,0,1,1.136.478,1.286,1.286,0,0,1,.418.947c0,.717-.458,1.384-1.6,1.384a1.485,1.485,0,0,1-1.1-.428,2.61,2.61,0,0,0-.2.229c-.19.19-.2.2-.249.2-.11,0-.11-.069-.11-.238v-1.316c0-.179,0-.249.13-.249.1,0,.109.04.139.17.189.846.548,1.415,1.385,1.415.777,0,1.126-.4,1.126-.907,0-.718-.817-.877-1.037-.917A2.6,2.6,0,0,1,663.292,378.421Z" transform="translate(-612 -368.91)"/>
      <path class="cls-2" d="M669.021,380.673a1.3,1.3,0,0,0,1.306-1.046c.02-.06.04-.1.129-.1.03,0,.13,0,.13.1a1.639,1.639,0,0,1-1.654,1.3,2.2,2.2,0,0,1-2.142-2.261,2.233,2.233,0,0,1,2.162-2.312c.767,0,1.524.389,1.524,1.066a.458.458,0,1,1-.916.01.449.449,0,0,1,.468-.458,1.625,1.625,0,0,0-1.067-.369c-.527,0-1.344.419-1.344,2.043C667.617,380.245,668.493,380.673,669.021,380.673Z" transform="translate(-612 -368.91)"/>
    </g>
    <g>
      <path class="cls-2" d="M673.8,376.409a.68.68,0,0,1,.737.608.419.419,0,0,1-.429.438.412.412,0,0,1-.428-.428.432.432,0,0,1,.229-.389c-.02-.01-.039-.01-.109-.01-.758,0-1.176.887-1.176,1.873v1.535c0,.359.02.468.757.468h.209v.309c-.4-.03-.866-.03-1.265-.03-.279,0-.747.02-1.136.03V380.5c.668,0,.777,0,.777-.448v-2.671c0-.488-.079-.557-.777-.557v-.309l1.385-.11v1.1A1.4,1.4,0,0,1,673.8,376.409Z" transform="translate(-612 -368.91)"/>
      <path class="cls-2" d="M676.223,380.006a1.342,1.342,0,0,0,1.126.667,1.4,1.4,0,0,0,1.345-1.026c.02-.08.04-.139.13-.139a.116.116,0,0,1,.13.119,1.7,1.7,0,0,1-1.664,1.3,2.25,2.25,0,0,1-2.193-2.3,2.178,2.178,0,0,1,2.073-2.272,1.767,1.767,0,0,1,1.784,1.953c0,.209-.031.209-.25.209h-2.78A2.9,2.9,0,0,0,676.223,380.006Zm2.073-1.7c0-.388-.1-1.734-1.126-1.734-.339,0-1.176.249-1.235,1.734Z" transform="translate(-612 -368.91)"/>
      <path class="cls-2" d="M680.975,379.6c0,.17,0,1.076.668,1.076.369,0,.668-.378.668-1.115v-.549h.249v.569c0,.637-.28,1.344-.987,1.344a1.2,1.2,0,0,1-1.285-1.344v-2.75h-.847v-.22c.976-.04,1.275-1.106,1.285-1.923h.249v1.834H682.4v.309h-1.425Z" transform="translate(-612 -368.91)"/>
      <path class="cls-2" d="M684.532,380.006a1.339,1.339,0,0,0,1.126.667A1.4,1.4,0,0,0,687,379.647c.019-.08.04-.139.13-.139a.115.115,0,0,1,.129.119,1.7,1.7,0,0,1-1.664,1.3,2.249,2.249,0,0,1-2.192-2.3,2.177,2.177,0,0,1,2.073-2.272,1.767,1.767,0,0,1,1.783,1.953c0,.209-.03.209-.249.209h-2.78A2.9,2.9,0,0,0,684.532,380.006Zm2.072-1.7c0-.388-.1-1.734-1.125-1.734-.339,0-1.176.249-1.236,1.734Z" transform="translate(-612 -368.91)"/>
      <path class="cls-2" d="M687.67,378.95v-.578h2.641v.578Z" transform="translate(-612 -368.91)"/>
      <path class="cls-2" d="M697.713,376.309h-.249c-.14-1.6-.289-1.933-1.793-1.933a4.666,4.666,0,0,0-.568.02c-.18.04-.18.18-.18.379v5.251c0,.339,0,.478,1.047.478h.4v.309c-.409-.03-1.435-.03-1.893-.03s-1.475,0-1.883.03V380.5h.4c1.046,0,1.046-.139,1.046-.478v-5.251c0-.23,0-.339-.209-.379a4.153,4.153,0,0,0-.538-.02c-1.5,0-1.654.329-1.794,1.933h-.249l.19-2.242h6.087Z" transform="translate(-612 -368.91)"/>
      <path class="cls-2" d="M699.854,380.066c0,.388.041.438.7.438v.309c-.339-.01-.688-.03-1.036-.03-.24,0-.778.02-1.1.03V380.5c.667,0,.777,0,.777-.448v-2.681c0-.488-.09-.547-.737-.547v-.309l1.394-.11Zm-.488-4.863a.532.532,0,0,1-.528-.528.538.538,0,0,1,.528-.528.528.528,0,1,1,0,1.056Z" transform="translate(-612 -368.91)"/>
      <path class="cls-2" d="M701.179,376.828v-.309l1.4-.11v1.046a1.57,1.57,0,0,1,1.475-1.046,1.18,1.18,0,0,1,1.325.976,1.578,1.578,0,0,1,1.445-.976,1.332,1.332,0,0,1,1.046.368c.309.359.309.668.309,1.525v1.9c.01.3.259.3.777.3v.309c-.339-.01-.857-.03-1.116-.03s-.777.02-1.126.03V380.5c.668,0,.777,0,.777-.448v-2.322c0-.568-.109-1.106-.737-1.106a1.455,1.455,0,0,0-1.345,1.594v1.834c0,.448.109.448.777.448v.309c-.338-.01-.857-.03-1.116-.03s-.777.02-1.126.03V380.5c.668,0,.778,0,.778-.448v-2.322c0-.568-.11-1.106-.738-1.106a1.455,1.455,0,0,0-1.345,1.594v1.834c0,.448.11.448.777.448v.309c-.339-.01-.857-.03-1.116-.03s-.777.02-1.126.03V380.5c.668,0,.777,0,.777-.448v-2.671C701.956,376.9,701.877,376.828,701.179,376.828Z" transform="translate(-612 -368.91)"/>
    </g>
    <path class="cls-2" d="M710.592,380.006a1.338,1.338,0,0,0,1.126.667,1.4,1.4,0,0,0,1.345-1.026c.019-.08.04-.139.129-.139a.115.115,0,0,1,.129.119,1.7,1.7,0,0,1-1.664,1.3,2.249,2.249,0,0,1-2.191-2.3,2.177,2.177,0,0,1,2.072-2.272,1.767,1.767,0,0,1,1.783,1.953c0,.209-.029.209-.249.209h-2.779A2.9,2.9,0,0,0,710.592,380.006Zm2.072-1.7c0-.388-.1-1.734-1.126-1.734-.339,0-1.176.249-1.235,1.734Z" transform="translate(-612 -368.91)"/>
    <g>
      <path class="cls-2" d="M668.358,390.569h-.249c-.159-1.375-.408-1.933-1.9-1.933h-1.2c-.468,0-.488.07-.488.4v2.522h.857c.956,0,1.056-.329,1.056-1.166h.25v2.64h-.25c0-.847-.1-1.166-1.056-1.166h-.857v2.451c0,.349,0,.479.947.479h.328v.309c-.358-.031-1.265-.031-1.673-.031-.389,0-1.166,0-1.515.031v-.309h.239c.767,0,.787-.11.787-.469V389.1c0-.359-.02-.468-.787-.468h-.239v-.309h5.47Z" transform="translate(-612 -368.91)"/>
      <path class="cls-2" d="M670.988,394.325c0,.359.03.469.817.469h.259v.309c-.349-.031-1.136-.031-1.524-.031s-1.166,0-1.515.031v-.309h.259c.787,0,.817-.11.817-.469v-5.251c0-.358-.03-.468-.817-.468h-.259V388.3c.349.03,1.136.03,1.525.03s1.165,0,1.514-.03v.309h-.259c-.787,0-.817.11-.817.468Z" transform="translate(-612 -368.91)"/>
    </g>
    <g>
      <path class="cls-2" d="M677.908,392.87l.13.8c.139.927.219,1.435.707,1.435.25,0,.6-.18.658-.887.01-.07.01-.159.119-.159.13,0,.13.109.13.169,0,.279-.17,1.1-.946,1.1a1.938,1.938,0,0,1-1.256-.418c-.408-.379-.408-.777-.408-1.424,0-.668,0-.977-.379-1.335a1.27,1.27,0,0,0-.927-.339H674.59v2.52c0,.359.02.469.787.469h.24v.309c-.359-.031-1.067-.031-1.455-.031s-1.1,0-1.455.031v-.309h.239c.767,0,.787-.11.787-.469v-5.251c0-.358-.02-.468-.787-.468h-.239V388.3h3.129c1.465,0,2.6.837,2.6,1.794,0,.777-.778,1.385-1.744,1.624A1.726,1.726,0,0,1,677.908,392.87Zm-2.212-1.285c1.475,0,1.714-.807,1.714-1.494,0-1.445-1.116-1.485-2.013-1.485a4.841,4.841,0,0,0-.587.02c-.22.03-.22.149-.22.379v2.58Z" transform="translate(-612 -368.91)"/>
      <path class="cls-2" d="M684.752,391.117v3.229c0,.448.109.448.777.448v.309c-.369-.01-.857-.031-1.106-.031s-.777.021-1.106.031v-.309c.667,0,.778,0,.778-.448v-3.229h-.788v-.309h.788v-1.136c0-1.086,1.185-1.594,2.112-1.594.737,0,1.285.418,1.285,1.006a.454.454,0,1,1-.907,0,.432.432,0,0,1,.469-.458,1.172,1.172,0,0,0-.858-.329,1.4,1.4,0,0,0-1.474,1.386v1.125H685.9c.14,0,.161,0,.18-.01a1.015,1.015,0,0,1,.18-.02l1.255-.09v3.658c0,.448.109.448.777.448v.309c-.368-.01-.856-.031-1.106-.031s-.777.021-1.106.031v-.309c.668,0,.777,0,.777-.448v-2.691c0-.409-.07-.538-.528-.538Z" transform="translate(-612 -368.91)"/>
    </g>
    <g>
      <path class="cls-2" d="M690.317,394.346c0,.448.11.448.778.448v.309c-.369-.01-.858-.031-1.107-.031s-.777.021-1.105.031v-.309c.667,0,.777,0,.777-.448v-5.182c0-.488-.08-.558-.777-.558V388.3l1.434-.109Z" transform="translate(-612 -368.91)"/>
      <path class="cls-2" d="M693.037,393.887c0,.17,0,1.076.668,1.076.368,0,.667-.379.667-1.116V393.3h.249v.568c0,.638-.278,1.345-.986,1.345a1.2,1.2,0,0,1-1.285-1.345v-2.75H691.5v-.22c.976-.04,1.275-1.105,1.285-1.922h.249v1.833h1.425v.309h-1.425Z" transform="translate(-612 -368.91)"/>
      <path class="cls-2" d="M696.584,394.3a1.341,1.341,0,0,0,1.126.667,1.4,1.4,0,0,0,1.345-1.026c.019-.08.04-.14.13-.14a.115.115,0,0,1,.128.12,1.7,1.7,0,0,1-1.664,1.3,2.249,2.249,0,0,1-2.191-2.3,2.177,2.177,0,0,1,2.072-2.271,1.767,1.767,0,0,1,1.783,1.953c0,.209-.029.209-.249.209h-2.779A2.9,2.9,0,0,0,696.584,394.3Zm2.072-1.7c0-.389-.1-1.735-1.126-1.735-.339,0-1.176.25-1.235,1.735Z" transform="translate(-612 -368.91)"/>
      <path class="cls-2" d="M702.491,390.7a.68.68,0,0,1,.738.609.419.419,0,0,1-.429.438.414.414,0,0,1-.429-.429.432.432,0,0,1,.23-.388.253.253,0,0,0-.11-.01c-.758,0-1.176.887-1.176,1.873v1.534c0,.359.02.469.757.469h.21v.309c-.4-.031-.867-.031-1.265-.031-.28,0-.747.021-1.136.031v-.309c.667,0,.777,0,.777-.448v-2.671c0-.488-.08-.558-.777-.558v-.309l1.385-.11v1.1A1.4,1.4,0,0,1,702.491,390.7Z" transform="translate(-612 -368.91)"/>
    </g>
    <polygon class="cls-1" points="35.433 15.617 35.433 1.444 106.299 1.444 106.299 29.79 35.433 29.79 35.433 15.617"/>
  </g>
</svg>
