<svg id="Layer_1" data-name="Layer 1" xmlns="http://www.w3.org/2000/svg" xmlns:xlink="http://www.w3.org/1999/xlink" viewBox="0 0 341.859 86.667">
  <defs>
    <style>
      .cls-1, .cls-2, .cls-3, .cls-4, .cls-6, .cls-8 {
        fill: none;
      }

      .cls-2 {
        stroke: #fff;
      }

      .cls-2, .cls-3, .cls-4, .cls-6, .cls-8 {
        stroke-linejoin: round;
      }

      .cls-2, .cls-4 {
        stroke-width: 0.5px;
      }

      .cls-3, .cls-4, .cls-6 {
        stroke: #000;
      }

      .cls-3 {
        stroke-width: 0.333px;
        stroke-dasharray: 0.5 4;
      }

      .cls-5 {
        fill: #1d1d1b;
      }

      .cls-6 {
        stroke-width: 3px;
        stroke-dasharray: 6;
      }

      .cls-7 {
        clip-path: url(#clip-path);
      }

      .cls-8 {
        stroke: blue;
        stroke-width: 2px;
      }

      .cls-9 {
        clip-path: url(#clip-path-2);
      }

      .cls-10 {
        fill: blue;
      }
    </style>
    <clipPath id="clip-path" transform="translate(-515.893 -243.273)">
      <rect class="cls-1" x="518.5" y="272.25" width="342.25" height="53.667"/>
    </clipPath>
    <clipPath id="clip-path-2" transform="translate(-515.893 -243.273)">
      <rect class="cls-1" x="526.667" y="261.167" width="325.917" height="56.583"/>
    </clipPath>
  </defs>
  <title>trendincosine0</title>
  <g>
    <polyline class="cls-2" points="10.774 74.393 10.774 17.893 336.607 17.893 336.607 74.393 10.774 74.393"/>
    <path class="cls-3" d="M526.667,317.667v-56.5m0,0h0m54.25,56.5v-56.5m0,0h0m54.333,56.5v-56.5m0,0h0m54.333,56.5v-56.5m0,0h0m54.25,56.5v-56.5m0,0h0m54.334,56.5v-56.5m0,0h0m54.333,56.5v-56.5m0,0h0m-325.833,56.5H852.5m0,0h0M526.667,298.833H852.5m0,0h0M526.667,280H852.5m0,0h0M526.667,261.167H852.5m0,0h0" transform="translate(-515.893 -243.273)"/>
    <path class="cls-4" d="M526.667,261.167H852.5m-325.833,56.5H852.5m0,0v-56.5m-325.833,56.5v-56.5m0,56.5H852.5m-325.833,0v-56.5m0,56.5v-3.334m0-53.166v3.25" transform="translate(-515.893 -243.273)"/>
    <g>
      <path class="cls-5" d="M515.893,326.864h4.726v.738h-4.726Z" transform="translate(-515.893 -243.273)"/>
      <path class="cls-5" d="M523.832,324.76h-1.645v-.7a1.913,1.913,0,0,0,1.181-.313,1.938,1.938,0,0,0,.679-1.025h.718v7.031h-.933Z" transform="translate(-515.893 -243.273)"/>
      <path class="cls-5" d="M527.736,329a6,6,0,0,1,0-5.344,2.162,2.162,0,0,1,3.567,0,6.024,6.024,0,0,1,0,5.344,2.166,2.166,0,0,1-3.567,0Zm2.893-.557a6.3,6.3,0,0,0,0-4.231,1.193,1.193,0,0,0-1.113-.7,1.179,1.179,0,0,0-1.1.7,6.217,6.217,0,0,0,0,4.231,1.178,1.178,0,0,0,1.1.7A1.193,1.193,0,0,0,530.629,328.446Z" transform="translate(-515.893 -243.273)"/>
    </g>
    <path class="cls-4" d="M580.917,317.667v-3.334m0-53.166v3.25" transform="translate(-515.893 -243.273)"/>
    <path class="cls-5" d="M579.163,329a6,6,0,0,1,0-5.344,2.161,2.161,0,0,1,3.566,0,6.024,6.024,0,0,1,0,5.344,2.165,2.165,0,0,1-3.566,0Zm2.893-.557a6.3,6.3,0,0,0,0-4.231,1.193,1.193,0,0,0-1.114-.7,1.178,1.178,0,0,0-1.1.7,6.217,6.217,0,0,0,0,4.231,1.178,1.178,0,0,0,1.1.7A1.193,1.193,0,0,0,582.056,328.446Z" transform="translate(-515.893 -243.273)"/>
    <path class="cls-4" d="M635.25,317.667v-3.334m0-53.166v3.25" transform="translate(-515.893 -243.273)"/>
    <g>
      <path class="cls-5" d="M632.406,324.76h-1.645v-.7a1.724,1.724,0,0,0,1.86-1.338h.718v7.031h-.933Z" transform="translate(-515.893 -243.273)"/>
      <path class="cls-5" d="M636.31,329a6.007,6.007,0,0,1,0-5.344,2.162,2.162,0,0,1,3.567,0,6.024,6.024,0,0,1,0,5.344,2.166,2.166,0,0,1-3.567,0Zm2.893-.557a6.3,6.3,0,0,0,0-4.231,1.192,1.192,0,0,0-1.113-.7,1.179,1.179,0,0,0-1.1.7,6.217,6.217,0,0,0,0,4.231,1.178,1.178,0,0,0,1.1.7A1.192,1.192,0,0,0,639.2,328.446Z" transform="translate(-515.893 -243.273)"/>
    </g>
    <path class="cls-4" d="M689.583,317.667v-3.334m0-53.166v3.25" transform="translate(-515.893 -243.273)"/>
    <g>
      <path class="cls-5" d="M689.159,324.789a2,2,0,0,1-.4,1.277,5.149,5.149,0,0,1-1.5,1.106,5.589,5.589,0,0,0-1.626,1.2,2.189,2.189,0,0,0-.3.528h3.818v.854h-4.814a2.853,2.853,0,0,1,.551-1.813,6.9,6.9,0,0,1,2.071-1.54,3.439,3.439,0,0,0,1.006-.753,1.393,1.393,0,0,0,.268-.881,1.181,1.181,0,0,0-.4-.92,1.484,1.484,0,0,0-1.026-.357,1.268,1.268,0,0,0-1.028.449,2.032,2.032,0,0,0-.4,1.27h-.855a2.453,2.453,0,0,1,.62-1.824,2.365,2.365,0,0,1,1.783-.661,2.26,2.26,0,0,1,1.6.581A1.941,1.941,0,0,1,689.159,324.789Z" transform="translate(-515.893 -243.273)"/>
      <path class="cls-5" d="M690.646,329a6.007,6.007,0,0,1,0-5.344,2.162,2.162,0,0,1,3.567,0,6.024,6.024,0,0,1,0,5.344,2.166,2.166,0,0,1-3.567,0Zm2.893-.557a6.3,6.3,0,0,0,0-4.231,1.224,1.224,0,0,0-2.217,0,6.217,6.217,0,0,0,0,4.231,1.225,1.225,0,0,0,2.217,0Z" transform="translate(-515.893 -243.273)"/>
    </g>
    <path class="cls-4" d="M743.833,317.667v-3.334m0-53.166v3.25" transform="translate(-515.893 -243.273)"/>
    <g>
      <path class="cls-5" d="M742.391,324.63a1.013,1.013,0,0,0-.379-.815,1.463,1.463,0,0,0-.969-.315,1.2,1.2,0,0,0-.957.383,1.833,1.833,0,0,0-.366,1.145h-.855a2.371,2.371,0,0,1,.578-1.706,2.168,2.168,0,0,1,1.639-.6,2.472,2.472,0,0,1,1.613.5,1.723,1.723,0,0,1,0,2.639,1.763,1.763,0,0,1-.254.176,2.047,2.047,0,0,1,.45.269,1.683,1.683,0,0,1,.659,1.4,2.09,2.09,0,0,1-.684,1.614,2.921,2.921,0,0,1-3.54.059,2.461,2.461,0,0,1-.654-1.741h.918a1.87,1.87,0,0,0,.435,1.174,1.809,1.809,0,0,0,2.176-.019,1.229,1.229,0,0,0,.416-.96,1.251,1.251,0,0,0-.4-.976,1.408,1.408,0,0,0-.879-.352q-.249-.015-.471-.015a1.406,1.406,0,0,0-.3.02v-.767a1.655,1.655,0,0,0,.332.025,3.293,3.293,0,0,0,.445-.03,1.275,1.275,0,0,0,.688-.278A1.009,1.009,0,0,0,742.391,324.63Z" transform="translate(-515.893 -243.273)"/>
      <path class="cls-5" d="M744.888,329a6.007,6.007,0,0,1,0-5.344,2.162,2.162,0,0,1,3.567,0,6.024,6.024,0,0,1,0,5.344,2.166,2.166,0,0,1-3.567,0Zm2.893-.557a6.3,6.3,0,0,0,0-4.231,1.224,1.224,0,0,0-2.217,0,6.217,6.217,0,0,0,0,4.231,1.225,1.225,0,0,0,2.217,0Z" transform="translate(-515.893 -243.273)"/>
    </g>
    <path class="cls-4" d="M798.167,317.667v-3.334m0-53.166v3.25" transform="translate(-515.893 -243.273)"/>
    <g>
      <path class="cls-5" d="M792.913,328.065v-.82l3.252-4.526h.732v4.594h1v.752h-1v1.685h-.883v-1.685Zm3.1-.752v-3.2l-2.242,3.136-.048.068Z" transform="translate(-515.893 -243.273)"/>
      <path class="cls-5" d="M799.224,329a6.007,6.007,0,0,1,0-5.344,2.162,2.162,0,0,1,3.567,0,6.024,6.024,0,0,1,0,5.344,2.166,2.166,0,0,1-3.567,0Zm2.893-.557a6.3,6.3,0,0,0,0-4.231,1.224,1.224,0,0,0-2.217,0,6.217,6.217,0,0,0,0,4.231,1.225,1.225,0,0,0,2.217,0Z" transform="translate(-515.893 -243.273)"/>
    </g>
    <path class="cls-4" d="M852.5,317.667v-3.334m0-53.166v3.25" transform="translate(-515.893 -243.273)"/>
    <g>
      <path class="cls-5" d="M852.142,327.489a2.408,2.408,0,0,1-.677,1.765,2.328,2.328,0,0,1-1.736.686,2.577,2.577,0,0,1-1.694-.527,2,2,0,0,1-.713-1.455h.918a1.315,1.315,0,0,0,.473.906,1.644,1.644,0,0,0,1.058.32,1.332,1.332,0,0,0,1.036-.445,1.637,1.637,0,0,0,.4-1.142,1.6,1.6,0,0,0-.42-1.165,1.513,1.513,0,0,0-1.138-.432,1.631,1.631,0,0,0-.749.186,1.369,1.369,0,0,0-.549.473l-.743-.049.508-3.75h3.643v.855h-2.985l-.3,1.924.029-.02a2.132,2.132,0,0,1,1.228-.4,2.47,2.47,0,0,1,1.763.615A2.159,2.159,0,0,1,852.142,327.489Z" transform="translate(-515.893 -243.273)"/>
      <path class="cls-5" d="M853.56,329a6.007,6.007,0,0,1,0-5.344,2.162,2.162,0,0,1,3.567,0,6.024,6.024,0,0,1,0,5.344,2.166,2.166,0,0,1-3.567,0Zm2.893-.557a6.3,6.3,0,0,0,0-4.231,1.224,1.224,0,0,0-2.217,0,6.217,6.217,0,0,0,0,4.231,1.225,1.225,0,0,0,2.217,0Z" transform="translate(-515.893 -243.273)"/>
    </g>
    <path class="cls-4" d="M526.667,317.667h3.25m322.583,0h-3.333" transform="translate(-515.893 -243.273)"/>
    <path class="cls-5" d="M519.249,320.581a6,6,0,0,1,0-5.344,2.161,2.161,0,0,1,3.566,0,6.024,6.024,0,0,1,0,5.344,2.164,2.164,0,0,1-3.566,0Zm2.893-.557a6.3,6.3,0,0,0,0-4.231,1.193,1.193,0,0,0-1.114-.7,1.178,1.178,0,0,0-1.1.7,6.217,6.217,0,0,0,0,4.231,1.179,1.179,0,0,0,1.1.7A1.194,1.194,0,0,0,522.142,320.024Z" transform="translate(-515.893 -243.273)"/>
    <path class="cls-4" d="M526.667,298.833h3.25m322.583,0h-3.333" transform="translate(-515.893 -243.273)"/>
    <path class="cls-5" d="M520.906,297.51h-1.645v-.7a1.724,1.724,0,0,0,1.86-1.338h.718V302.5h-.933Z" transform="translate(-515.893 -243.273)"/>
    <path class="cls-4" d="M526.667,280h3.25M852.5,280h-3.333" transform="translate(-515.893 -243.273)"/>
    <path class="cls-5" d="M523.323,278.7a1.99,1.99,0,0,1-.4,1.277,5.127,5.127,0,0,1-1.5,1.106,5.56,5.56,0,0,0-1.626,1.2,2.156,2.156,0,0,0-.3.528h3.818v.854h-4.814a2.853,2.853,0,0,1,.552-1.813,6.875,6.875,0,0,1,2.07-1.54,3.426,3.426,0,0,0,1.006-.753,1.387,1.387,0,0,0,.268-.881,1.178,1.178,0,0,0-.4-.92,1.489,1.489,0,0,0-1.026-.357,1.265,1.265,0,0,0-1.027.449,2.026,2.026,0,0,0-.4,1.27H518.7a2.453,2.453,0,0,1,.62-1.824,2.369,2.369,0,0,1,1.783-.661,2.26,2.26,0,0,1,1.6.581A1.937,1.937,0,0,1,523.323,278.7Z" transform="translate(-515.893 -243.273)"/>
    <path class="cls-4" d="M526.667,261.167h3.25m322.583,0h-3.333" transform="translate(-515.893 -243.273)"/>
    <path class="cls-5" d="M522.313,259.716a1.013,1.013,0,0,0-.379-.815,1.463,1.463,0,0,0-.969-.315,1.2,1.2,0,0,0-.957.383,1.843,1.843,0,0,0-.366,1.145h-.855a2.363,2.363,0,0,1,.579-1.706,2.161,2.161,0,0,1,1.638-.6,2.477,2.477,0,0,1,1.614.5,1.726,1.726,0,0,1,0,2.639,1.709,1.709,0,0,1-.254.176,2.047,2.047,0,0,1,.45.269,1.683,1.683,0,0,1,.659,1.4,2.092,2.092,0,0,1-.684,1.614,2.921,2.921,0,0,1-3.54.059,2.457,2.457,0,0,1-.654-1.741h.918a1.87,1.87,0,0,0,.435,1.174,1.522,1.522,0,0,0,1.11.354,1.537,1.537,0,0,0,1.067-.373,1.353,1.353,0,0,0,.015-1.936,1.408,1.408,0,0,0-.879-.352q-.249-.015-.471-.015a1.406,1.406,0,0,0-.3.02v-.767a1.648,1.648,0,0,0,.332.025,3.293,3.293,0,0,0,.445-.03,1.282,1.282,0,0,0,.688-.278A1.006,1.006,0,0,0,522.313,259.716Z" transform="translate(-515.893 -243.273)"/>
    <path class="cls-4" d="M526.667,261.167H852.5m-325.833,56.5H852.5m0,0v-56.5m-325.833,56.5v-56.5" transform="translate(-515.893 -243.273)"/>
    <polyline class="cls-6" points="65.024 55.56 70.441 55.31 75.941 55.143 81.357 54.977 86.774 54.727 92.191 54.56 97.607 54.393 103.024 54.143 108.524 53.977 113.941 53.727 119.357 53.56 124.774 53.31 130.191 53.143 135.607 52.893 141.107 52.727 146.524 52.477 151.941 52.227 157.357 52.06 162.774 51.81 168.191 51.56 173.691 51.393 179.107 51.143 184.524 50.893 189.941 50.643 195.357 50.477 200.774 50.227 206.274 49.977 211.691 49.727 217.107 49.477 222.524 49.227 227.941 48.977 233.357 48.727 238.857 48.477 244.274 48.227 249.691 47.977 255.107 47.643 260.524 47.393 265.941 47.143 271.441 46.893 276.857 46.56 282.274 46.31"/>
    <g class="cls-7">
      <path class="cls-8" d="M529.6,317.76a3,3,0,1,1-3-3,3,3,0,0,1,3,3m5.52,0a3,3,0,1,1-3-3,3,3,0,0,1,3,3m5.28,0a3,3,0,1,1-3-3,3,3,0,0,1,3,3m5.52,0a3,3,0,1,1-3-3,3,3,0,0,1,3,3m5.52,0a3,3,0,1,1-3-3,3,3,0,0,1,3,3m5.28,0a3,3,0,1,1-3-3,3,3,0,0,1,3,3m5.52,0a3,3,0,1,1-3-3,3,3,0,0,1,3,3m5.52,0a3,3,0,1,1-3-3,3,3,0,0,1,3,3m5.28,0a3,3,0,1,1-3-3,3,3,0,0,1,3,3m5.52,0a3,3,0,1,1-3-3,3,3,0,0,1,3,3m5.28-25.68a3,3,0,1,1-3-3,3,3,0,0,1,3,3m5.52,6.48a3,3,0,1,1-3-3,3,3,0,0,1,3,3m5.52,6.48a3,3,0,1,1-3-3,3,3,0,0,1,3,3m5.28,2.64a3,3,0,1,1-3-3,3,3,0,0,1,3,3m5.52-3.12a3,3,0,1,1-3-3,3,3,0,0,1,3,3m5.52-6.72a3,3,0,1,1-3-3,3,3,0,0,1,3,3m5.28-6.72a3,3,0,1,1-3-3,3,3,0,0,1,3,3M622,288a3,3,0,1,1-3-3,3,3,0,0,1,3,3m5.52,2.64a3,3,0,1,1-3-3,3,3,0,0,1,3,3m5.28,6.48a3,3,0,1,1-3-3,3,3,0,0,1,3,3m5.52,6.48a3,3,0,1,1-3-3,3,3,0,0,1,3,3m5.28,2.4a3,3,0,1,1-3-3,3,3,0,0,1,3,3m5.52-2.88a3,3,0,1,1-3-3,3,3,0,0,1,3,3m5.28-6.96a3,3,0,1,1-3-3,3,3,0,0,1,3,3m5.52-6.72a3,3,0,1,1-3-3,3,3,0,0,1,3,3m5.52-3.12a3,3,0,1,1-3-3,3,3,0,0,1,3,3m5.28,2.64a3,3,0,1,1-3-3,3,3,0,0,1,3,3m5.52,6.48a3,3,0,1,1-3-3,3,3,0,0,1,3,3m5.52,6.24a3,3,0,1,1-3-3,3,3,0,0,1,3,3m5.28,2.64a3,3,0,1,1-3-3,3,3,0,0,1,3,3m5.52-2.88a3,3,0,1,1-3-3,3,3,0,0,1,3,3m5.52-6.96a3,3,0,1,1-3-3,3,3,0,0,1,3,3m5.28-6.96a3,3,0,1,1-3-3,3,3,0,0,1,3,3m5.52-3.12a3,3,0,1,1-3-3,3,3,0,0,1,3,3m5.28,2.64a3,3,0,1,1-3-3,3,3,0,0,1,3,3m5.52,6.48a3,3,0,1,1-3-3,3,3,0,0,1,3,3M725.2,300a3,3,0,1,1-3-3,3,3,0,0,1,3,3m5.28,2.4a3,3,0,1,1-3-3,3,3,0,0,1,3,3m5.52-2.88a3,3,0,1,1-3-3,3,3,0,0,1,3,3m5.52-6.96a3,3,0,1,1-3-3,3,3,0,0,1,3,3m5.28-6.96a3,3,0,1,1-3-3,3,3,0,0,1,3,3m5.52-3.12a3,3,0,1,1-3-3,3,3,0,0,1,3,3m5.52,2.64a3,3,0,1,1-3-3,3,3,0,0,1,3,3m5.28,6.48a3,3,0,1,1-3-3,3,3,0,0,1,3,3m5.52,6.24a3,3,0,1,1-3-3,3,3,0,0,1,3,3m5.28,2.4a3,3,0,1,1-3-3,3,3,0,0,1,3,3m5.52-2.88a3,3,0,1,1-3-3,3,3,0,0,1,3,3m5.28-6.96a3,3,0,1,1-3-3,3,3,0,0,1,3,3m5.52-6.96a3,3,0,1,1-3-3,3,3,0,0,1,3,3m5.52-3.12a3,3,0,1,1-3-3,3,3,0,0,1,3,3m5.52,2.64a3,3,0,1,1-3-3,3,3,0,0,1,3,3m5.28,34.8a3,3,0,1,1-3-3,3,3,0,0,1,3,3m5.52,0a3,3,0,1,1-3-3,3,3,0,0,1,3,3m5.28,0a3,3,0,1,1-3-3,3,3,0,0,1,3,3m5.52,0a3,3,0,1,1-3-3,3,3,0,0,1,3,3m5.52,0a3,3,0,1,1-3-3,3,3,0,0,1,3,3m5.28,0a3,3,0,1,1-3-3,3,3,0,0,1,3,3m5.52,0a3,3,0,1,1-3-3,3,3,0,0,1,3,3m5.28,0a3,3,0,1,1-3-3,3,3,0,0,1,3,3m5.52,0a3,3,0,1,1-3-3,3,3,0,0,1,3,3m5.52,0a3,3,0,1,1-3-3,3,3,0,0,1,3,3" transform="translate(-515.893 -243.273)"/>
    </g>
    <g class="cls-9">
      <path class="cls-10" d="M527.72,317.64a1,1,0,1,1-1-1,1,1,0,0,1,1,1" transform="translate(-515.893 -243.273)"/>
      <path class="cls-10" d="M533.12,317.64a1,1,0,1,1-1-1,1,1,0,0,1,1,1" transform="translate(-515.893 -243.273)"/>
      <path class="cls-10" d="M538.52,317.64a1,1,0,1,1-1-1,1,1,0,0,1,1,1" transform="translate(-515.893 -243.273)"/>
      <path class="cls-10" d="M543.92,317.64a1,1,0,1,1-1-1,1,1,0,0,1,1,1" transform="translate(-515.893 -243.273)"/>
      <path class="cls-10" d="M549.32,317.64a1,1,0,1,1-1-1,1,1,0,0,1,1,1" transform="translate(-515.893 -243.273)"/>
      <path class="cls-10" d="M554.72,317.64a1,1,0,1,1-1-1,1,1,0,0,1,1,1" transform="translate(-515.893 -243.273)"/>
      <path class="cls-10" d="M560.24,317.64a1,1,0,1,1-1-1,1,1,0,0,1,1,1" transform="translate(-515.893 -243.273)"/>
      <path class="cls-10" d="M565.64,317.64a1,1,0,1,1-1-1,1,1,0,0,1,1,1" transform="translate(-515.893 -243.273)"/>
      <path class="cls-10" d="M571.16,317.64a1,1,0,1,1-1-1,1,1,0,0,1,1,1" transform="translate(-515.893 -243.273)"/>
      <path class="cls-10" d="M576.44,317.64a1,1,0,1,1-1-1,1,1,0,0,1,1,1" transform="translate(-515.893 -243.273)"/>
      <path class="cls-8" d="M580.917,317.667v-25.5m5.416,25.5V298.583m5.5,19.084V305.083m5.417,12.584v-10m5.417,10v-13m5.416,13V297.833m5.417,19.834V291m5.417,26.667V288m5.5,29.667V290.583m5.416,27.084V297m5.417,20.667V303.5m5.417,14.167V306m5.416,11.667V303.083m5.417,14.584v-21.5m5.5,21.5V289.333m5.417,28.334V286.333m5.416,31.334v-28.75m5.417,28.75V295.333m5.417,22.334V301.75m5.416,15.917V304.25m5.5,13.417V301.333M695,317.667v-23.25m5.417,23.25V287.5m5.416,30.167V284.5m5.417,33.167V287.083m5.417,30.584V293.5m5.5,24.167v-17.75m5.416,17.75v-15.25M733,317.667v-18.25m5.417,18.25V292.5m5.416,25.167V285.583m5.417,32.084V282.583m5.5,35.084V285.083m5.417,32.584V291.5m5.416,26.167V297.833M771,317.667V300.333m5.417,17.334V297.333m5.416,20.334v-27.25m5.5,27.25V283.5m5.417,34.167v-37.25m5.417,37.25v-34.75" transform="translate(-515.893 -243.273)"/>
      <path class="cls-10" d="M804.56,317.64a1,1,0,1,1-1-1,1,1,0,0,1,1,1" transform="translate(-515.893 -243.273)"/>
      <path class="cls-10" d="M809.96,317.64a1,1,0,1,1-1-1,1,1,0,0,1,1,1" transform="translate(-515.893 -243.273)"/>
      <path class="cls-10" d="M815.48,317.64a1,1,0,1,1-1-1,1,1,0,0,1,1,1" transform="translate(-515.893 -243.273)"/>
      <path class="cls-10" d="M820.88,317.64a1,1,0,1,1-1-1,1,1,0,0,1,1,1" transform="translate(-515.893 -243.273)"/>
      <path class="cls-10" d="M826.28,317.64a1,1,0,1,1-1-1,1,1,0,0,1,1,1" transform="translate(-515.893 -243.273)"/>
      <path class="cls-10" d="M831.8,317.64a1,1,0,1,1-1-1,1,1,0,0,1,1,1" transform="translate(-515.893 -243.273)"/>
      <path class="cls-10" d="M837.2,317.64a1,1,0,1,1-1-1,1,1,0,0,1,1,1" transform="translate(-515.893 -243.273)"/>
      <path class="cls-10" d="M842.6,317.64a1,1,0,1,1-1-1,1,1,0,0,1,1,1" transform="translate(-515.893 -243.273)"/>
      <path class="cls-10" d="M848,317.64a1,1,0,1,1-1-1,1,1,0,0,1,1,1" transform="translate(-515.893 -243.273)"/>
      <path class="cls-10" d="M853.52,317.64a1,1,0,1,1-1-1,1,1,0,0,1,1,1" transform="translate(-515.893 -243.273)"/>
      <line class="cls-4" x1="10.774" y1="74.393" x2="336.607" y2="74.393"/>
    </g>
    <g>
      <path class="cls-5" d="M614.3,249.883l-1.758-2.529h1.136l1.2,1.86,1.208-1.86h1.087l-1.758,2.543,1.816,2.681h-1.1l-1.3-1.992-1.282,1.992H612.44Z" transform="translate(-515.893 -243.273)"/>
      <path class="cls-5" d="M617.958,245.352h1.87v.708h-1.079v7.773h1.079v.708h-1.87Z" transform="translate(-515.893 -243.273)"/>
      <path class="cls-5" d="M620.756,247.354h.835v.771l.195-.259A1.775,1.775,0,0,1,625.019,249v3.579h-.879V249.3a1.5,1.5,0,0,0-.266-.994,1.091,1.091,0,0,0-.862-.305,1.2,1.2,0,0,0-1.006.481,2.074,2.074,0,0,0-.371,1.3v2.8h-.879Z" transform="translate(-515.893 -243.273)"/>
      <path class="cls-5" d="M627.816,254.541h-1.87v-.708h1.079V246.06h-1.079v-.708h1.87Z" transform="translate(-515.893 -243.273)"/>
      <path class="cls-5" d="M628.837,248.682H633.9v.737h-5.059Zm0,2.021H633.9v.737h-5.059Z" transform="translate(-515.893 -243.273)"/>
      <path class="cls-5" d="M634.965,249.941a6.81,6.81,0,0,1,.41-2.346,9.756,9.756,0,0,1,1.3-2.351h.6a11.3,11.3,0,0,0-1.042,2.383,8.317,8.317,0,0,0,0,4.639,11.206,11.206,0,0,0,1.042,2.378h-.6a9.733,9.733,0,0,1-1.3-2.354A6.831,6.831,0,0,1,634.965,249.941Z" transform="translate(-515.893 -243.273)"/>
      <path class="cls-5" d="M640.272,247.588h-1.645v-.7a1.9,1.9,0,0,0,1.182-.313,1.931,1.931,0,0,0,.678-1.025h.718v7.031h-.933Z" transform="translate(-515.893 -243.273)"/>
      <path class="cls-5" d="M644.047,251.519h1.045v1.059h-1.045Z" transform="translate(-515.893 -243.273)"/>
      <path class="cls-5" d="M646.955,251.831a6,6,0,0,1,0-5.344,2.161,2.161,0,0,1,3.566,0,6.024,6.024,0,0,1,0,5.344,2.164,2.164,0,0,1-3.566,0Zm2.893-.557a6.3,6.3,0,0,0,0-4.231,1.193,1.193,0,0,0-1.114-.705,1.178,1.178,0,0,0-1.1.705,6.217,6.217,0,0,0,0,4.231,1.179,1.179,0,0,0,1.1.7A1.194,1.194,0,0,0,649.848,251.274Z" transform="translate(-515.893 -243.273)"/>
      <path class="cls-5" d="M654.174,247.588h-1.646v-.7a1.9,1.9,0,0,0,1.182-.313,1.938,1.938,0,0,0,.679-1.025h.717v7.031h-.932Z" transform="translate(-515.893 -243.273)"/>
      <path class="cls-5" d="M659.73,249.946a6.782,6.782,0,0,1-.41,2.346,9.708,9.708,0,0,1-1.3,2.352h-.6a11.253,11.253,0,0,0,1.042-2.383,8.317,8.317,0,0,0,0-4.639,11.156,11.156,0,0,0-1.042-2.378h.6a9.7,9.7,0,0,1,1.3,2.354A6.8,6.8,0,0,1,659.73,249.946Z" transform="translate(-515.893 -243.273)"/>
    </g>
    <path class="cls-5" d="M660.855,243.4h.668v.618l.157-.207a1.42,1.42,0,0,1,2.586.906v2.863h-.7v-2.625a1.2,1.2,0,0,0-.213-.8.874.874,0,0,0-.69-.244.963.963,0,0,0-.8.385,1.666,1.666,0,0,0-.3,1.041v2.238h-.7Z" transform="translate(-515.893 -243.273)"/>
    <g>
      <path class="cls-5" d="M670.082,250.43h-2.163v-.738h2.163v-2.163h.737v2.163h2.163v.738h-2.163v2.163h-.737Z" transform="translate(-515.893 -243.273)"/>
      <path class="cls-5" d="M677.145,251.831a6.007,6.007,0,0,1,0-5.344,2.162,2.162,0,0,1,3.567,0,6.024,6.024,0,0,1,0,5.344,2.165,2.165,0,0,1-3.567,0Zm2.893-.557a6.3,6.3,0,0,0,0-4.231,1.192,1.192,0,0,0-1.113-.705,1.179,1.179,0,0,0-1.1.705,6.217,6.217,0,0,0,0,4.231,1.179,1.179,0,0,0,1.1.7A1.193,1.193,0,0,0,680.038,251.274Z" transform="translate(-515.893 -243.273)"/>
      <path class="cls-5" d="M682.577,251.519h1.045v1.059h-1.045Z" transform="translate(-515.893 -243.273)"/>
      <path class="cls-5" d="M689.628,250.317a2.41,2.41,0,0,1-.677,1.766,2.331,2.331,0,0,1-1.735.686,2.58,2.58,0,0,1-1.7-.528,2,2,0,0,1-.712-1.455h.918a1.312,1.312,0,0,0,.472.906,1.646,1.646,0,0,0,1.058.32,1.331,1.331,0,0,0,1.036-.445,1.632,1.632,0,0,0,.4-1.142,1.6,1.6,0,0,0-.42-1.165,1.513,1.513,0,0,0-1.137-.432,1.624,1.624,0,0,0-.749.186,1.372,1.372,0,0,0-.55.473l-.742-.049.507-3.75h3.643v.855h-2.984l-.306,1.924.029-.02a2.132,2.132,0,0,1,1.228-.4,2.474,2.474,0,0,1,1.764.615A2.163,2.163,0,0,1,689.628,250.317Z" transform="translate(-515.893 -243.273)"/>
      <path class="cls-5" d="M697.6,250.7a2.42,2.42,0,0,1-.7,1.5,2.117,2.117,0,0,1-1.494.518,2.047,2.047,0,0,1-1.66-.747,3.055,3.055,0,0,1-.62-2.012,2.99,2.99,0,0,1,.642-2.014,2.4,2.4,0,0,1,3.23-.235,1.959,1.959,0,0,1,.6,1.419h-.845a1.2,1.2,0,0,0-1.289-1.177,1.207,1.207,0,0,0-1.042.535,2.5,2.5,0,0,0-.379,1.472,2.615,2.615,0,0,0,.352,1.5,1.31,1.31,0,0,0,1.9.173,1.671,1.671,0,0,0,.457-.935Z" transform="translate(-515.893 -243.273)"/>
      <path class="cls-5" d="M698.85,251.958a3.311,3.311,0,0,1,0-4,2.41,2.41,0,0,1,3.517,0,3.323,3.323,0,0,1,0,4,2.41,2.41,0,0,1-3.517,0Zm2.858-.537a2.808,2.808,0,0,0,0-2.922,1.387,1.387,0,0,0-2.2,0,2.82,2.82,0,0,0,0,2.922,1.391,1.391,0,0,0,2.2,0Z" transform="translate(-515.893 -243.273)"/>
      <path class="cls-5" d="M707.029,248.867a.908.908,0,0,0-.354-.674,1.37,1.37,0,0,0-.848-.239,1.5,1.5,0,0,0-.832.191.624.624,0,0,0-.286.556.479.479,0,0,0,.2.42,2.588,2.588,0,0,0,.8.283l.908.215a2.316,2.316,0,0,1,1.09.513,1.217,1.217,0,0,1,.323.9,1.5,1.5,0,0,1-.559,1.231,2.329,2.329,0,0,1-1.511.454,2.59,2.59,0,0,1-1.645-.437,1.817,1.817,0,0,1-.6-1.375h.845a1.115,1.115,0,0,0,.392.806,1.673,1.673,0,0,0,1.009.249,1.5,1.5,0,0,0,.9-.225.759.759,0,0,0,.305-.654.474.474,0,0,0-.2-.415,2.6,2.6,0,0,0-.806-.283l-.908-.215a2.181,2.181,0,0,1-1.05-.493,1.188,1.188,0,0,1-.313-.879,1.438,1.438,0,0,1,.524-1.17,2.174,2.174,0,0,1,1.423-.432,2.206,2.206,0,0,1,1.452.445,1.593,1.593,0,0,1,.574,1.225Z" transform="translate(-515.893 -243.273)"/>
      <path class="cls-5" d="M709.066,249.941a6.787,6.787,0,0,1,.411-2.346,9.75,9.75,0,0,1,1.3-2.351h.6a11.312,11.312,0,0,0-1.043,2.383,8.341,8.341,0,0,0,0,4.639,11.213,11.213,0,0,0,1.043,2.378h-.6a9.727,9.727,0,0,1-1.3-2.354A6.808,6.808,0,0,1,709.066,249.941Z" transform="translate(-515.893 -243.273)"/>
      <path class="cls-5" d="M716.791,247.617a1.994,1.994,0,0,1-.4,1.277A5.124,5.124,0,0,1,714.9,250a5.6,5.6,0,0,0-1.625,1.2,2.174,2.174,0,0,0-.3.528h3.818v.854h-4.814a2.853,2.853,0,0,1,.551-1.813,6.883,6.883,0,0,1,2.071-1.54,3.418,3.418,0,0,0,1-.753,1.387,1.387,0,0,0,.269-.881,1.181,1.181,0,0,0-.4-.92,1.489,1.489,0,0,0-1.026-.357,1.268,1.268,0,0,0-1.028.449,2.038,2.038,0,0,0-.4,1.27h-.854a2.449,2.449,0,0,1,.62-1.824,2.368,2.368,0,0,1,1.782-.661,2.261,2.261,0,0,1,1.6.581A1.941,1.941,0,0,1,716.791,247.617Z" transform="translate(-515.893 -243.273)"/>
    </g>
    <path class="cls-5" d="M722.372,248.105v.708H721.19a14.191,14.191,0,0,0-.17,2.144,1.156,1.156,0,0,0,.175.72.545.545,0,0,0,.44.218.52.52,0,0,0,.366-.147.714.714,0,0,0,.2-.425h.171a1.969,1.969,0,0,1-.368,1.089.85.85,0,0,1-.643.317.759.759,0,0,1-.634-.346,2.336,2.336,0,0,1-.254-1.294q0-.6.185-2.276h-1.269a17.727,17.727,0,0,1-.367,3.238q-.215.678-.59.678a.39.39,0,0,1-.291-.117.4.4,0,0,1-.115-.293.564.564,0,0,1,.039-.219,1.92,1.92,0,0,1,.23-.357,2.434,2.434,0,0,0,.415-.83,9.8,9.8,0,0,0,.273-2.1h-.224a.968.968,0,0,0-.532.118,1.6,1.6,0,0,0-.518.586h-.19a2.637,2.637,0,0,1,.639-1.167,1.146,1.146,0,0,1,.781-.245Z" transform="translate(-515.893 -243.273)"/>
    <g>
      <path class="cls-5" d="M726.092,247.354h.835v.771l.195-.259A1.775,1.775,0,0,1,730.354,249v3.579h-.878V249.3a1.5,1.5,0,0,0-.266-.994,1.091,1.091,0,0,0-.862-.305,1.2,1.2,0,0,0-1.006.481,2.08,2.08,0,0,0-.371,1.3v2.8h-.879Z" transform="translate(-515.893 -243.273)"/>
      <path class="cls-5" d="M733.948,245.215l-2.443,7.558h-.667l2.443-7.558Z" transform="translate(-515.893 -243.273)"/>
      <path class="cls-5" d="M737.776,248.857a2.331,2.331,0,0,1,.518.318,1.72,1.72,0,0,1,.659,1.406,2.044,2.044,0,0,1-.659,1.587,2.812,2.812,0,0,1-3.475,0,2.049,2.049,0,0,1-.656-1.587,1.734,1.734,0,0,1,.659-1.411,2.273,2.273,0,0,1,.508-.308,3.2,3.2,0,0,1-.337-.215,1.46,1.46,0,0,1-.591-1.21,1.738,1.738,0,0,1,.593-1.37,2.6,2.6,0,0,1,3.121,0,1.735,1.735,0,0,1,.593,1.37,1.451,1.451,0,0,1-.6,1.21A1.828,1.828,0,0,1,737.776,248.857Zm-1.22.4a1.478,1.478,0,0,0-1.053.383,1.291,1.291,0,0,0-.407.984,1.277,1.277,0,0,0,.407.977,1.647,1.647,0,0,0,2.107,0,1.273,1.273,0,0,0,.411-.977,1.293,1.293,0,0,0-.411-.986A1.487,1.487,0,0,0,736.556,249.253Zm0-.762a1.284,1.284,0,0,0,.879-.3,1.051,1.051,0,0,0,0-1.55,1.426,1.426,0,0,0-1.758,0,1.051,1.051,0,0,0,0,1.552A1.284,1.284,0,0,0,736.556,248.491Z" transform="translate(-515.893 -243.273)"/>
      <path class="cls-5" d="M744.676,250.43h-2.163v-.738h2.163v-2.163h.737v2.163h2.163v.738h-2.163v2.163h-.737Z" transform="translate(-515.893 -243.273)"/>
    </g>
    <path class="cls-5" d="M755.786,248.105v.708H754.6a14.191,14.191,0,0,0-.17,2.144,1.156,1.156,0,0,0,.175.72.545.545,0,0,0,.44.218.518.518,0,0,0,.366-.147.708.708,0,0,0,.2-.425h.171a1.969,1.969,0,0,1-.368,1.089.85.85,0,0,1-.643.317.759.759,0,0,1-.634-.346,2.336,2.336,0,0,1-.254-1.294q0-.6.185-2.276H752.8a17.857,17.857,0,0,1-.366,3.238c-.144.452-.34.678-.591.678a.392.392,0,0,1-.291-.117.4.4,0,0,1-.115-.293.564.564,0,0,1,.039-.219,1.92,1.92,0,0,1,.23-.357,2.434,2.434,0,0,0,.415-.83,9.8,9.8,0,0,0,.273-2.1h-.224a.971.971,0,0,0-.532.118,1.6,1.6,0,0,0-.518.586h-.19a2.637,2.637,0,0,1,.639-1.167,1.149,1.149,0,0,1,.782-.245Z" transform="translate(-515.893 -243.273)"/>
    <g>
      <path class="cls-5" d="M759.022,245.215l-2.443,7.558h-.667l2.443-7.558Z" transform="translate(-515.893 -243.273)"/>
      <path class="cls-5" d="M759.105,250.894v-.821l3.252-4.526h.733v4.595h1v.752h-1v1.684h-.884v-1.684Zm3.1-.752v-3.2l-2.241,3.135-.049.069Z" transform="translate(-515.893 -243.273)"/>
    </g>
    <path class="cls-5" d="M766.511,249.946a6.806,6.806,0,0,1-.41,2.346,9.742,9.742,0,0,1-1.3,2.352h-.6a11.312,11.312,0,0,0,1.043-2.383,8.341,8.341,0,0,0,0-4.639,11.213,11.213,0,0,0-1.043-2.378h.6a9.733,9.733,0,0,1,1.3,2.354A6.825,6.825,0,0,1,766.511,249.946Z" transform="translate(-515.893 -243.273)"/>
  </g>
</svg>
