<?xml version="1.0" encoding="utf-8"?>
<!-- Generator: Adobe Illustrator 22.1.0, SVG Export Plug-In . SVG Version: 6.00 Build 0)  -->
<svg version="1.1" id="Layer_1" xmlns="http://www.w3.org/2000/svg" xmlns:xlink="http://www.w3.org/1999/xlink" x="0px" y="0px"
	 viewBox="0 0 404.6 244" style="enable-background:new 0 0 404.6 244;" xml:space="preserve">
<style type="text/css">
	.st0{fill:none;stroke:#000000;stroke-width:0.8504;stroke-miterlimit:10;}
	.st1{fill:none;stroke:#000000;stroke-width:1.7008;stroke-miterlimit:10;}
	.st2{fill:none;stroke:#000000;stroke-width:0.8504;stroke-linecap:round;stroke-miterlimit:10;stroke-dasharray:0,3.6489;}
	.st3{fill:#1D1D1B;}
	.st4{fill:#0000FF;}
	.st5{fill:none;stroke:#000000;stroke-width:0.8504;stroke-linecap:round;stroke-miterlimit:10;stroke-dasharray:0,3.6856;}
	.st6{fill:none;stroke:#000000;stroke-width:0.8504;stroke-linecap:round;stroke-miterlimit:10;stroke-dasharray:0,3.6589;}
	.st7{fill:none;stroke:#000000;stroke-width:0.8504;stroke-linecap:round;stroke-miterlimit:10;stroke-dasharray:0,3.7208;}
	.st8{fill:none;stroke:#FF0000;stroke-width:0.8504;stroke-miterlimit:10;}
	.st9{fill:#00FF00;}
	.st10{fill:none;stroke:#FA0000;stroke-width:0.4252;stroke-miterlimit:10;}
	.st11{fill:none;stroke:#000000;stroke-width:1.4173;stroke-miterlimit:10;}
</style>
<g>
	<polyline points="91.1,96.7 95.7,94.4 91.1,92.2 92.3,94.4 	"/>
	<line class="st0" x1="49.6" y1="94.4" x2="92.3" y2="94.4"/>
	<polyline points="66,63.5 63.8,59 61.5,63.5 63.8,62.4 	"/>
	<line class="st0" x1="63.8" y1="98" x2="63.8" y2="62.4"/>
	<path class="st1" d="M70.9,80.3v14.2 M78,87.4v7.1 M85,94.4v-3.5"/>
	<path class="st2" d="M63.8,66.1c0,0,3.9,9.7,7.1,14.2c2,2.8,4.3,5.1,7.1,7.1c2.2,1.6,4.4,2.9,7.1,3.5c2.4,0.6,7.1,0,7.1,0l0,0"/>
	<line class="st1" x1="63.8" y1="94.4" x2="63.8" y2="66.1"/>
	<g>
		<path class="st3" d="M56.7,96.2c-1.1,0-1.9-0.9-1.9-1.9c0-1,0.9-1.9,1.9-1.9c1,0,1.9,0.9,1.9,1.9C58.6,95.3,57.7,96.2,56.7,96.2z"
			/>
	</g>
	<g>
		<path class="st3" d="M49.6,96.2c-1.1,0-1.9-0.9-1.9-1.9c0-1,0.9-1.9,1.9-1.9c1,0,1.9,0.9,1.9,1.9C51.5,95.3,50.6,96.2,49.6,96.2z"
			/>
	</g>
	<g>
		<path class="st3" d="M63.8,67.8c-1.1,0-1.9-0.9-1.9-1.9c0-1,0.9-1.9,1.9-1.9c1,0,1.9,0.9,1.9,1.9C65.7,67,64.8,67.8,63.8,67.8z"/>
	</g>
	<g>
		<path class="st3" d="M70.8,82c-1.1,0-1.9-0.9-1.9-1.9c0-1,0.9-1.9,1.9-1.9c1,0,1.9,0.9,1.9,1.9C72.8,81.1,71.9,82,70.8,82z"/>
	</g>
	<g>
		<path class="st3" d="M77.9,89.1c-1.1,0-1.9-0.9-1.9-1.9c0-1,0.9-1.9,1.9-1.9c1,0,1.9,0.9,1.9,1.9C79.9,88.2,79,89.1,77.9,89.1z"/>
	</g>
	<g>
		<path class="st3" d="M85,92.6c-1.1,0-1.9-0.9-1.9-1.9c0-1,0.9-1.9,1.9-1.9c1,0,1.9,0.9,1.9,1.9C86.9,91.8,86.1,92.6,85,92.6z"/>
	</g>
	<g>
		<path class="st4" d="M46.6,107.5c1,0,1.5,0.5,1.8,0.9l0.5-0.7c0.1-0.1,0.1-0.1,0.2-0.1c0.1,0,0.1,0.1,0.1,0.2v2.4
			c0,0.2,0,0.2-0.2,0.2c-0.1,0-0.1,0-0.2-0.2c-0.2-1.5-1.1-2.4-2.2-2.4c-0.6,0-2.6,0.3-2.6,3.3c0,3,2,3.3,2.6,3.3
			c1.1,0,2.2-0.8,2.2-2.2c0-0.1,0-0.2,0.1-0.2c0.1,0,0.1,0.1,0.1,0.2c0,1.2-1,2.5-2.6,2.5c-1.9,0-3.5-1.6-3.5-3.6
			C43.2,109.1,44.8,107.5,46.6,107.5z"/>
		<path class="st4" d="M52.3,114.7c-1.2,0-2.2-1-2.2-2.2c0-1.2,1-2.3,2.2-2.3c1.2,0,2.2,1.1,2.2,2.3
			C54.5,113.7,53.5,114.7,52.3,114.7z M53.5,113.7c0.2-0.4,0.2-1,0.2-1.3c0-0.4,0-1-0.3-1.4c-0.3-0.4-0.7-0.6-1.1-0.6
			c-0.4,0-0.9,0.2-1.1,0.7c-0.2,0.4-0.2,1-0.2,1.4c0,0.4,0,1,0.2,1.4c0.3,0.5,0.7,0.7,1.1,0.7C52.8,114.4,53.2,114.1,53.5,113.7z"/>
	</g>
	<g>
		<path class="st4" d="M55.2,110.6v-0.3l1.4-0.1v1c0.3-0.6,0.7-1,1.5-1c0.6,0,0.9,0.2,1,0.4c0.3,0.4,0.3,0.7,0.3,1.5v1.9
			c0,0.3,0.3,0.3,0.8,0.3v0.3c-0.3,0-0.9,0-1.1,0c-0.3,0-0.8,0-1.1,0v-0.3c0.7,0,0.8,0,0.8-0.4v-2.3c0-0.6-0.1-1.1-0.7-1.1
			c-0.6,0-1.3,0.6-1.3,1.6v1.8c0,0.4,0.1,0.4,0.8,0.4v0.3c-0.3,0-0.9,0-1.1,0c-0.3,0-0.8,0-1.1,0v-0.3c0.7,0,0.8,0,0.8-0.4v-2.7
			C55.9,110.7,55.9,110.6,55.2,110.6z"/>
		<path class="st4" d="M63,114.5c0,0.1-0.1,0.2-0.2,0.2c-0.1,0-0.1,0-0.2-0.2l-1.4-3.5c-0.1-0.3-0.2-0.4-0.8-0.4v-0.3
			c0.3,0,0.7,0,1,0c0.2,0,0.8,0,1.1,0v0.3c-0.2,0-0.6,0-0.6,0.3c0,0,0,0,0.1,0.2l1.1,2.8l1-2.5c0-0.1,0.1-0.1,0.1-0.2
			c0-0.2-0.1-0.4-0.5-0.4v-0.3c0.2,0,0.6,0,0.9,0c0.2,0,0.5,0,0.7,0v0.3c-0.7,0-0.8,0.4-0.9,0.7L63,114.5z"/>
	</g>
	<g>
		<path class="st4" d="M66.6,113.8c0.2,0.4,0.6,0.7,1.1,0.7c0.1,0,1,0,1.3-1c0-0.1,0-0.1,0.1-0.1c0,0,0.1,0,0.1,0.1
			c0,0.2-0.4,1.3-1.7,1.3c-1.1,0-2.2-1-2.2-2.3c0-1.2,0.9-2.3,2.1-2.3c1.2,0,1.8,1,1.8,2c0,0.2,0,0.2-0.2,0.2h-2.8
			C66.3,112.6,66.3,113.3,66.6,113.8z M68.6,112.1c0-0.4-0.1-1.7-1.1-1.7c-0.3,0-1.2,0.2-1.2,1.7H68.6z"/>
		<path class="st4" d="M72.5,110.2c0.4,0,0.7,0.3,0.7,0.6s-0.2,0.4-0.4,0.4c-0.2,0-0.4-0.1-0.4-0.4c0-0.3,0.2-0.4,0.2-0.4
			c0,0,0,0-0.1,0c-0.8,0-1.2,0.9-1.2,1.9v1.5c0,0.4,0,0.5,0.8,0.5h0.2v0.3c-0.4,0-0.9,0-1.3,0c-0.3,0-0.7,0-1.1,0v-0.3
			c0.7,0,0.8,0,0.8-0.4v-2.7c0-0.5-0.1-0.6-0.8-0.6v-0.3l1.4-0.1v1.1C71.4,110.8,71.8,110.2,72.5,110.2z"/>
		<path class="st4" d="M75.1,113.9c0.1,0,0.5,0,0.7,0c0.6,0,1.2,0,1.7,0.3c0.5,0.3,0.6,0.8,0.6,1.1c0,0.8-1,1.3-2.2,1.3
			c-1.2,0-2.2-0.5-2.2-1.3c0-0.4,0.3-0.8,0.9-1c-0.3-0.2-0.4-0.6-0.4-0.9c0-0.3,0.2-0.7,0.3-0.8c-0.2-0.2-0.5-0.6-0.5-1
			c0-0.8,0.7-1.5,1.6-1.5c0.2,0,0.6,0,1.1,0.4c0.4-0.4,0.9-0.5,1.1-0.5c0.4,0,0.5,0.3,0.5,0.5c0,0.2-0.2,0.3-0.3,0.3
			c-0.2,0-0.3-0.1-0.3-0.3c0-0.1,0.1-0.2,0.2-0.3c0,0-0.1,0-0.1,0c-0.2,0-0.5,0-0.9,0.4c0.2,0.2,0.4,0.6,0.4,1
			c0,0.8-0.7,1.5-1.6,1.5c-0.2,0-0.6,0-1-0.3c-0.2,0.2-0.2,0.4-0.2,0.5C74.6,113.6,74.8,113.9,75.1,113.9z M77.7,115.4
			c0-0.9-1.1-0.9-2-0.9h-0.6c-0.4,0-0.8,0.4-0.8,0.9c0,0.5,0.7,1,1.7,1C77,116.4,77.7,115.9,77.7,115.4z M76.5,112.5
			c0.1-0.2,0.2-0.6,0.2-0.8c0-0.2,0-1.2-0.9-1.2c-0.4,0-0.6,0.3-0.7,0.4c-0.1,0.2-0.2,0.6-0.2,0.8c0,0.2,0,1.2,0.9,1.2
			C76.2,112.9,76.4,112.6,76.5,112.5z"/>
		<path class="st4" d="M80,113.8c0.2,0.4,0.6,0.7,1.1,0.7c0.1,0,1,0,1.3-1c0-0.1,0-0.1,0.1-0.1c0,0,0.1,0,0.1,0.1
			c0,0.2-0.4,1.3-1.7,1.3c-1.1,0-2.2-1-2.2-2.3c0-1.2,0.9-2.3,2.1-2.3c1.2,0,1.8,1,1.8,2c0,0.2,0,0.2-0.2,0.2h-2.8
			C79.7,112.6,79.7,113.3,80,113.8z M82.1,112.1c0-0.4-0.1-1.7-1.1-1.7c-0.3,0-1.2,0.2-1.2,1.7H82.1z"/>
	</g>
	<g>
		<path class="st4" d="M83.4,110.6v-0.3l1.4-0.1v1c0.3-0.6,0.7-1,1.5-1c0.6,0,0.9,0.2,1,0.4c0.3,0.4,0.3,0.7,0.3,1.5v1.9
			c0,0.3,0.3,0.3,0.8,0.3v0.3c-0.3,0-0.9,0-1.1,0c-0.3,0-0.8,0-1.1,0v-0.3c0.7,0,0.8,0,0.8-0.4v-2.3c0-0.6-0.1-1.1-0.7-1.1
			c-0.6,0-1.3,0.6-1.3,1.6v1.8c0,0.4,0.1,0.4,0.8,0.4v0.3c-0.3,0-0.9,0-1.1,0c-0.3,0-0.8,0-1.1,0v-0.3c0.7,0,0.8,0,0.8-0.4v-2.7
			C84.1,110.7,84.1,110.6,83.4,110.6z"/>
		<path class="st4" d="M90,113.4c0,0.2,0,1.1,0.7,1.1c0.4,0,0.7-0.4,0.7-1.1v-0.5h0.2v0.6c0,0.6-0.3,1.3-1,1.3
			c-0.4,0-1.3-0.1-1.3-1.3v-2.8h-0.8v-0.2c1,0,1.3-1.1,1.3-1.9H90v1.8h1.4v0.3H90V113.4z"/>
	</g>
	<polyline points="271.8,68.4 276.4,66.1 271.8,63.8 273,66.1 	"/>
	<line class="st0" x1="230.3" y1="66.1" x2="273" y2="66.1"/>
	<polyline points="264.5,56.5 262.2,51.9 259.9,56.5 262.2,55.3 	"/>
	<line class="st0" x1="262.2" y1="101.5" x2="262.2" y2="55.3"/>
	<path class="st1" d="M240.9,66.1v14.2 M248,66.1v7.1 M255.1,69.6v-3.5 M233.9,94.4V66.1"/>
	<g>
		<path class="st3" d="M269.3,67.8c-1.1,0-1.9-0.9-1.9-1.9c0-1,0.9-1.9,1.9-1.9c1,0,1.9,0.9,1.9,1.9C271.2,67,270.3,67.8,269.3,67.8
			z"/>
	</g>
	<g>
		<path class="st3" d="M262.2,67.8c-1.1,0-1.9-0.9-1.9-1.9c0-1,0.9-1.9,1.9-1.9c1,0,1.9,0.9,1.9,1.9C264.1,67,263.2,67.8,262.2,67.8
			z"/>
	</g>
	<g>
		<path class="st3" d="M255.1,71.4c-1.1,0-1.9-0.9-1.9-1.9c0-1,0.9-1.9,1.9-1.9c1,0,1.9,0.9,1.9,1.9C257,70.5,256.1,71.4,255.1,71.4
			z"/>
	</g>
	<g>
		<path class="st3" d="M233.8,96.2c-1.1,0-1.9-0.9-1.9-1.9c0-1,0.9-1.9,1.9-1.9c1,0,1.9,0.9,1.9,1.9
			C235.8,95.3,234.9,96.2,233.8,96.2z"/>
	</g>
	<g>
		<path class="st3" d="M248,74.9c-1.1,0-1.9-0.9-1.9-1.9c0-1,0.9-1.9,1.9-1.9c1,0,1.9,0.9,1.9,1.9C249.9,74,249,74.9,248,74.9z"/>
	</g>
	<g>
		<path class="st3" d="M240.9,82c-1.1,0-1.9-0.9-1.9-1.9c0-1,0.9-1.9,1.9-1.9c1,0,1.9,0.9,1.9,1.9C242.8,81.1,242,82,240.9,82z"/>
	</g>
	<path class="st5" d="M255.1,69.6c0,0-4.9,1.9-7.1,3.5c-2.8,2-5.1,4.3-7.1,7.1c-3.2,4.4-5,9.1-7.1,14.2c-1.5,3.6-3.5,10.6-3.5,10.6
		l0,0"/>
	<g>
		<path class="st4" d="M238,107.8c1.7,0,3,1.6,3,3.5c0,1.9-1.4,3.3-3,3.3h-3.6v-0.3h0.2c0.8,0,0.8-0.1,0.8-0.5v-5.3
			c0-0.4,0-0.5-0.8-0.5h-0.2v-0.3H238z M237.7,114.3c1,0,1.6-0.6,1.8-0.8c0.4-0.5,0.5-1.1,0.5-2.2c0-0.8-0.1-1.6-0.5-2.2
			c-0.5-0.7-1.2-0.9-1.8-0.9h-1c-0.5,0-0.5,0.1-0.5,0.4v5.4c0,0.3,0,0.4,0.5,0.4H237.7z"/>
		<path class="st4" d="M243.3,113.8c0,0.4,0,0.4,0.7,0.4v0.3c-0.3,0-0.7,0-1,0c-0.2,0-0.8,0-1.1,0v-0.3c0.7,0,0.8,0,0.8-0.4v-2.7
			c0-0.5-0.1-0.5-0.7-0.5v-0.3l1.4-0.1V113.8z M242.8,109c-0.3,0-0.5-0.3-0.5-0.5c0-0.3,0.2-0.5,0.5-0.5c0.3,0,0.5,0.2,0.5,0.5
			S243.1,109,242.8,109z"/>
	</g>
	<g>
		<path class="st4" d="M247.2,114.5c0,0.1-0.1,0.2-0.2,0.2c-0.1,0-0.1,0-0.2-0.2l-1.4-3.5c-0.1-0.3-0.2-0.4-0.8-0.4v-0.3
			c0.3,0,0.7,0,1,0c0.2,0,0.8,0,1.1,0v0.3c-0.2,0-0.6,0-0.6,0.3c0,0,0,0,0.1,0.2l1.1,2.8l1-2.5c0-0.1,0.1-0.1,0.1-0.2
			c0-0.2-0.1-0.4-0.5-0.4v-0.3c0.2,0,0.6,0,0.9,0c0.2,0,0.5,0,0.7,0v0.3c-0.7,0-0.8,0.4-0.9,0.7L247.2,114.5z"/>
		<path class="st4" d="M250.8,113.8c0.2,0.4,0.6,0.7,1.1,0.7c0.1,0,1,0,1.3-1c0-0.1,0-0.1,0.1-0.1c0,0,0.1,0,0.1,0.1
			c0,0.2-0.4,1.3-1.7,1.3c-1.1,0-2.2-1-2.2-2.3c0-1.2,0.9-2.3,2.1-2.3c1.2,0,1.8,1,1.8,2c0,0.2,0,0.2-0.2,0.2h-2.8
			C250.5,112.6,250.5,113.3,250.8,113.8z M252.8,112.1c0-0.4-0.1-1.7-1.1-1.7c-0.3,0-1.2,0.2-1.2,1.7H252.8z"/>
	</g>
	<g>
		<path class="st4" d="M256.7,110.2c0.4,0,0.7,0.3,0.7,0.6s-0.2,0.4-0.4,0.4c-0.2,0-0.4-0.1-0.4-0.4c0-0.3,0.2-0.4,0.2-0.4
			c0,0,0,0-0.1,0c-0.8,0-1.2,0.9-1.2,1.9v1.5c0,0.4,0,0.5,0.8,0.5h0.2v0.3c-0.4,0-0.9,0-1.3,0c-0.3,0-0.7,0-1.1,0v-0.3
			c0.7,0,0.8,0,0.8-0.4v-2.7c0-0.5-0.1-0.6-0.8-0.6v-0.3l1.4-0.1v1.1C255.6,110.8,256,110.2,256.7,110.2z"/>
		<path class="st4" d="M259.3,113.9c0.1,0,0.5,0,0.7,0c0.6,0,1.2,0,1.7,0.3c0.5,0.3,0.6,0.8,0.6,1.1c0,0.8-1,1.3-2.2,1.3
			c-1.2,0-2.2-0.5-2.2-1.3c0-0.4,0.3-0.8,0.9-1c-0.3-0.2-0.4-0.6-0.4-0.9c0-0.3,0.2-0.7,0.3-0.8c-0.2-0.2-0.5-0.6-0.5-1
			c0-0.8,0.7-1.5,1.6-1.5c0.2,0,0.6,0,1.1,0.4c0.4-0.4,0.9-0.5,1.1-0.5c0.4,0,0.5,0.3,0.5,0.5c0,0.2-0.2,0.3-0.3,0.3
			c-0.2,0-0.3-0.1-0.3-0.3c0-0.1,0-0.2,0.2-0.3c0,0-0.1,0-0.1,0c-0.2,0-0.5,0-0.9,0.4c0.2,0.2,0.4,0.6,0.4,1c0,0.8-0.7,1.5-1.6,1.5
			c-0.2,0-0.6,0-1-0.3c-0.2,0.2-0.2,0.4-0.2,0.5C258.8,113.6,259,113.9,259.3,113.9z M261.9,115.4c0-0.9-1.1-0.9-2-0.9h-0.6
			c-0.4,0-0.8,0.4-0.8,0.9c0,0.5,0.7,1,1.7,1C261.2,116.4,261.9,115.9,261.9,115.4z M260.6,112.5c0.1-0.2,0.2-0.6,0.2-0.8
			c0-0.2,0-1.2-0.9-1.2c-0.4,0-0.6,0.3-0.7,0.4c-0.1,0.2-0.2,0.6-0.2,0.8c0,0.2,0,1.2,0.9,1.2C260.3,112.9,260.6,112.6,260.6,112.5z
			"/>
		<path class="st4" d="M264.2,113.8c0.2,0.4,0.6,0.7,1.1,0.7c0.1,0,1,0,1.3-1c0-0.1,0-0.1,0.1-0.1c0,0,0.1,0,0.1,0.1
			c0,0.2-0.4,1.3-1.7,1.3c-1.1,0-2.2-1-2.2-2.3c0-1.2,0.9-2.3,2.1-2.3c1.2,0,1.8,1,1.8,2c0,0.2,0,0.2-0.2,0.2h-2.8
			C263.9,112.6,263.9,113.3,264.2,113.8z M266.2,112.1c0-0.4-0.1-1.7-1.1-1.7c-0.3,0-1.2,0.2-1.2,1.7H266.2z"/>
		<path class="st4" d="M267.5,110.6v-0.3l1.4-0.1v1c0.3-0.6,0.7-1,1.5-1c0.6,0,0.9,0.2,1,0.4c0.3,0.4,0.3,0.7,0.3,1.5v1.9
			c0,0.3,0.3,0.3,0.8,0.3v0.3c-0.3,0-0.9,0-1.1,0c-0.3,0-0.8,0-1.1,0v-0.3c0.7,0,0.8,0,0.8-0.4v-2.3c0-0.6-0.1-1.1-0.7-1.1
			c-0.6,0-1.3,0.6-1.3,1.6v1.8c0,0.4,0.1,0.4,0.8,0.4v0.3c-0.3,0-0.9,0-1.1,0c-0.3,0-0.8,0-1.1,0v-0.3c0.7,0,0.8,0,0.8-0.4v-2.7
			C268.3,110.7,268.2,110.6,267.5,110.6z"/>
	</g>
	<g>
		<path class="st4" d="M274.2,113.4c0,0.2,0,1.1,0.7,1.1c0.4,0,0.7-0.4,0.7-1.1v-0.5h0.2v0.6c0,0.6-0.3,1.3-1,1.3
			c-0.4,0-1.3-0.1-1.3-1.3v-2.8h-0.8v-0.2c1,0,1.3-1.1,1.3-1.9h0.2v1.8h1.4v0.3h-1.4V113.4z"/>
	</g>
	<polyline points="271.8,181.8 276.4,179.5 271.8,177.2 273,179.5 	"/>
	<line class="st0" x1="230.3" y1="179.5" x2="273" y2="179.5"/>
	<polyline points="264.5,169.8 262.2,165.3 259.9,169.8 262.2,168.7 	"/>
	<line class="st0" x1="262.2" y1="214.9" x2="262.2" y2="168.7"/>
	<g>
		<path class="st3" d="M269.3,181.2c-1.1,0-1.9-0.9-1.9-1.9c0-1,0.9-1.9,1.9-1.9c1,0,1.9,0.9,1.9,1.9S270.3,181.2,269.3,181.2z"/>
	</g>
	<g>
		<path class="st3" d="M262.2,181.2c-1.1,0-1.9-0.9-1.9-1.9c0-1,0.9-1.9,1.9-1.9c1,0,1.9,0.9,1.9,1.9S263.2,181.2,262.2,181.2z"/>
	</g>
	<line class="st1" x1="255.1" y1="207.8" x2="255.1" y2="179.5"/>
	<g>
		<path class="st3" d="M255.1,209.6c-1.1,0-1.9-0.9-1.9-1.9c0-1,0.9-1.9,1.9-1.9c1,0,1.9,0.9,1.9,1.9S256.1,209.6,255.1,209.6z"/>
	</g>
	<line class="st1" x1="248" y1="179.5" x2="248" y2="193.7"/>
	<g>
		<path class="st3" d="M248,195.4c-1.1,0-1.9-0.9-1.9-1.9c0-1,0.9-1.9,1.9-1.9c1,0,1.9,0.9,1.9,1.9S249,195.4,248,195.4z"/>
	</g>
	<line class="st1" x1="233.9" y1="183" x2="233.9" y2="179.5"/>
	<g>
		<path class="st3" d="M233.8,184.7c-1.1,0-1.9-0.9-1.9-1.9c0-1,0.9-1.9,1.9-1.9c1,0,1.9,0.9,1.9,1.9S234.9,184.7,233.8,184.7z"/>
	</g>
	<line class="st1" x1="240.9" y1="179.5" x2="240.9" y2="186.6"/>
	<g>
		<path class="st3" d="M240.9,188.3c-1.1,0-1.9-0.9-1.9-1.9c0-1,0.9-1.9,1.9-1.9c1,0,1.9,0.9,1.9,1.9S242,188.3,240.9,188.3z"/>
	</g>
	<path class="st6" d="M255.1,207.8c0,0-3.9-9.7-7.1-14.2c-2-2.8-4.3-5.1-7.1-7.1c-2.2-1.6-4.4-2.9-7.1-3.5c-1.2-0.3-3.5,0-3.5,0l0,0
		"/>
	<g>
		<path class="st4" d="M234.4,220.9c1,0,1.5,0.5,1.8,0.9l0.5-0.7c0.1-0.1,0.1-0.1,0.2-0.1c0.1,0,0.1,0.1,0.1,0.2v2.4
			c0,0.2,0,0.2-0.2,0.2c-0.1,0-0.1,0-0.2-0.2c-0.2-1.5-1.1-2.4-2.2-2.4c-0.6,0-2.6,0.3-2.6,3.3c0,3,2,3.3,2.6,3.3
			c1.1,0,2.2-0.8,2.2-2.2c0-0.1,0-0.2,0.1-0.2c0.1,0,0.1,0.1,0.1,0.2c0,1.2-1,2.5-2.6,2.5c-1.9,0-3.5-1.6-3.5-3.6
			C231,222.5,232.6,220.9,234.4,220.9z"/>
		<path class="st4" d="M240.1,228.1c-1.2,0-2.2-1-2.2-2.2c0-1.2,1-2.3,2.2-2.3c1.2,0,2.2,1.1,2.2,2.3
			C242.3,227.1,241.3,228.1,240.1,228.1z M241.2,227.1c0.2-0.4,0.2-1,0.2-1.3c0-0.4,0-1-0.3-1.4c-0.3-0.4-0.7-0.6-1.1-0.6
			c-0.4,0-0.9,0.2-1.1,0.7c-0.2,0.4-0.2,1-0.2,1.4c0,0.4,0,1,0.2,1.4c0.3,0.5,0.7,0.7,1.1,0.7C240.6,227.8,241,227.5,241.2,227.1z"
			/>
	</g>
	<g>
		<path class="st4" d="M243,224v-0.3l1.4-0.1v1c0.3-0.6,0.7-1,1.5-1c0.6,0,0.9,0.2,1,0.4c0.3,0.4,0.3,0.7,0.3,1.5v1.9
			c0,0.3,0.3,0.3,0.8,0.3v0.3c-0.3,0-0.9,0-1.1,0c-0.3,0-0.8,0-1.1,0v-0.3c0.7,0,0.8,0,0.8-0.4v-2.3c0-0.6-0.1-1.1-0.7-1.1
			c-0.6,0-1.3,0.6-1.3,1.6v1.8c0,0.4,0.1,0.4,0.8,0.4v0.3c-0.3,0-0.9,0-1.1,0c-0.3,0-0.8,0-1.1,0v-0.3c0.7,0,0.8,0,0.8-0.4v-2.7
			C243.7,224,243.7,224,243,224z"/>
		<path class="st4" d="M250.8,227.9c0,0.1-0.1,0.2-0.2,0.2c-0.1,0-0.1,0-0.2-0.2l-1.4-3.5c-0.1-0.3-0.2-0.4-0.8-0.4v-0.3
			c0.3,0,0.7,0,1,0c0.2,0,0.8,0,1.1,0v0.3c-0.2,0-0.6,0-0.6,0.3c0,0,0,0,0.1,0.2l1.1,2.8l1-2.5c0-0.1,0.1-0.1,0.1-0.2
			c0-0.2-0.1-0.4-0.5-0.4v-0.3c0.2,0,0.6,0,0.9,0c0.2,0,0.5,0,0.7,0v0.3c-0.7,0-0.8,0.4-0.9,0.7L250.8,227.9z"/>
	</g>
	<g>
		<path class="st4" d="M254.4,227.1c0.2,0.4,0.6,0.7,1.1,0.7c0.1,0,1,0,1.3-1c0-0.1,0-0.1,0.1-0.1c0,0,0.1,0,0.1,0.1
			c0,0.2-0.4,1.3-1.7,1.3c-1.1,0-2.2-1-2.2-2.3c0-1.2,0.9-2.3,2.1-2.3c1.2,0,1.8,1,1.8,2c0,0.2,0,0.2-0.2,0.2h-2.8
			C254.1,226,254.1,226.7,254.4,227.1z M256.4,225.4c0-0.4-0.1-1.7-1.1-1.7c-0.3,0-1.2,0.3-1.2,1.7H256.4z"/>
		<path class="st4" d="M260.3,223.5c0.4,0,0.7,0.3,0.7,0.6c0,0.3-0.2,0.4-0.4,0.4c-0.2,0-0.4-0.2-0.4-0.4c0-0.3,0.2-0.4,0.2-0.4
			c0,0,0,0-0.1,0c-0.8,0-1.2,0.9-1.2,1.9v1.5c0,0.4,0,0.5,0.8,0.5h0.2v0.3c-0.4,0-0.9,0-1.3,0c-0.3,0-0.7,0-1.1,0v-0.3
			c0.7,0,0.8,0,0.8-0.4v-2.7c0-0.5-0.1-0.6-0.8-0.6v-0.3l1.4-0.1v1.1C259.2,224.2,259.6,223.5,260.3,223.5z"/>
		<path class="st4" d="M262.9,227.3c0.1,0,0.5,0,0.7,0c0.6,0,1.2,0,1.7,0.3c0.5,0.3,0.6,0.8,0.6,1.1c0,0.8-1,1.3-2.2,1.3
			c-1.2,0-2.2-0.5-2.2-1.3c0-0.4,0.3-0.8,0.9-1c-0.3-0.2-0.4-0.6-0.4-0.9c0-0.3,0.2-0.7,0.3-0.8c-0.2-0.2-0.5-0.6-0.5-1
			c0-0.8,0.7-1.5,1.6-1.5c0.2,0,0.6,0,1.1,0.4c0.4-0.4,0.9-0.5,1.1-0.5c0.4,0,0.5,0.3,0.5,0.5c0,0.2-0.2,0.3-0.3,0.3
			c-0.2,0-0.3-0.1-0.3-0.3c0-0.1,0-0.2,0.2-0.3c0,0-0.1,0-0.1,0c-0.2,0-0.5,0-0.9,0.4c0.2,0.2,0.4,0.6,0.4,1c0,0.8-0.7,1.5-1.6,1.5
			c-0.2,0-0.6,0-1-0.3c-0.2,0.2-0.2,0.4-0.2,0.5C262.4,226.9,262.6,227.2,262.9,227.3z M265.5,228.7c0-0.9-1.1-0.9-2-0.9H263
			c-0.4,0-0.8,0.4-0.8,0.9c0,0.5,0.7,1,1.7,1C264.8,229.8,265.5,229.3,265.5,228.7z M264.3,225.8c0.1-0.2,0.2-0.6,0.2-0.8
			c0-0.2,0-1.2-0.9-1.2c-0.4,0-0.6,0.3-0.7,0.4c-0.1,0.2-0.2,0.6-0.2,0.8c0,0.2,0,1.2,0.9,1.2C264,226.2,264.2,226,264.3,225.8z"/>
		<path class="st4" d="M267.8,227.1c0.2,0.4,0.6,0.7,1.1,0.7c0.1,0,1,0,1.3-1c0-0.1,0-0.1,0.1-0.1c0,0,0.1,0,0.1,0.1
			c0,0.2-0.4,1.3-1.7,1.3c-1.1,0-2.2-1-2.2-2.3c0-1.2,0.9-2.3,2.1-2.3c1.2,0,1.8,1,1.8,2c0,0.2,0,0.2-0.2,0.2h-2.8
			C267.5,226,267.5,226.7,267.8,227.1z M269.9,225.4c0-0.4-0.1-1.7-1.1-1.7c-0.3,0-1.2,0.3-1.2,1.7H269.9z"/>
	</g>
	<g>
		<path class="st4" d="M271.1,224v-0.3l1.4-0.1v1c0.3-0.6,0.7-1,1.5-1c0.6,0,0.9,0.2,1,0.4c0.3,0.4,0.3,0.7,0.3,1.5v1.9
			c0,0.3,0.3,0.3,0.8,0.3v0.3c-0.3,0-0.9,0-1.1,0c-0.3,0-0.8,0-1.1,0v-0.3c0.7,0,0.8,0,0.8-0.4v-2.3c0-0.6-0.1-1.1-0.7-1.1
			c-0.6,0-1.3,0.6-1.3,1.6v1.8c0,0.4,0.1,0.4,0.8,0.4v0.3c-0.3,0-0.9,0-1.1,0c-0.3,0-0.8,0-1.1,0v-0.3c0.7,0,0.8,0,0.8-0.4v-2.7
			C271.9,224,271.8,224,271.1,224z"/>
		<path class="st4" d="M277.8,226.7c0,0.2,0,1.1,0.7,1.1c0.4,0,0.7-0.4,0.7-1.1v-0.5h0.2v0.6c0,0.6-0.3,1.3-1,1.3
			c-0.4,0-1.3-0.1-1.3-1.3V224h-0.8v-0.2c1,0,1.3-1.1,1.3-1.9h0.2v1.8h1.4v0.3h-1.4V226.7z"/>
	</g>
	<polyline points="91.1,210.1 95.7,207.8 91.1,205.6 92.3,207.8 	"/>
	<line class="st0" x1="49.6" y1="207.8" x2="92.3" y2="207.8"/>
	<polyline points="66,176.9 63.8,172.4 61.5,176.9 63.8,175.8 	"/>
	<line class="st0" x1="63.8" y1="211.4" x2="63.8" y2="175.8"/>
	<g>
		<path class="st3" d="M56.7,209.6c-1.1,0-1.9-0.9-1.9-1.9c0-1,0.9-1.9,1.9-1.9c1,0,1.9,0.9,1.9,1.9S57.7,209.6,56.7,209.6z"/>
	</g>
	<g>
		<path class="st3" d="M49.6,209.6c-1.1,0-1.9-0.9-1.9-1.9c0-1,0.9-1.9,1.9-1.9c1,0,1.9,0.9,1.9,1.9S50.6,209.6,49.6,209.6z"/>
	</g>
	<line class="st1" x1="70.9" y1="200.7" x2="70.9" y2="207.8"/>
	<g>
		<path class="st3" d="M70.8,202.5c-1.1,0-1.9-0.9-1.9-1.9c0-1,0.9-1.9,1.9-1.9c1,0,1.9,0.9,1.9,1.9S71.9,202.5,70.8,202.5z"/>
	</g>
	<line class="st1" x1="63.8" y1="207.8" x2="63.8" y2="204.3"/>
	<g>
		<path class="st3" d="M63.8,206c-1.1,0-1.9-0.9-1.9-1.9c0-1,0.9-1.9,1.9-1.9c1,0,1.9,0.9,1.9,1.9S64.8,206,63.8,206z"/>
	</g>
	<line class="st1" x1="78" y1="193.7" x2="78" y2="207.8"/>
	<g>
		<path class="st3" d="M77.9,195.4c-1.1,0-1.9-0.9-1.9-1.9c0-1,0.9-1.9,1.9-1.9c1,0,1.9,0.9,1.9,1.9S79,195.4,77.9,195.4z"/>
	</g>
	<line class="st1" x1="85" y1="207.8" x2="85" y2="179.5"/>
	<g>
		<path class="st3" d="M85,181.2c-1.1,0-1.9-0.9-1.9-1.9c0-1,0.9-1.9,1.9-1.9c1,0,1.9,0.9,1.9,1.9S86.1,181.2,85,181.2z"/>
	</g>
	<path class="st7" d="M63.8,204.3c0,0,4.9-1.9,7.1-3.5c2.8-2,5.1-4.3,7.1-7.1c3.2-4.4,4.6-9.3,7.1-14.2c1.2-2.4,3.5-7.1,3.5-7.1l0,0
		"/>
	<g>
		<path class="st4" d="M50.2,221.1c1.7,0,3,1.6,3,3.5c0,1.9-1.4,3.3-3,3.3h-3.6v-0.3h0.2c0.8,0,0.8-0.1,0.8-0.5v-5.3
			c0-0.4,0-0.5-0.8-0.5h-0.2v-0.3H50.2z M49.9,227.6c1,0,1.6-0.6,1.8-0.8c0.4-0.5,0.5-1.1,0.5-2.2c0-0.8-0.1-1.6-0.5-2.2
			c-0.5-0.7-1.2-0.9-1.8-0.9h-1c-0.5,0-0.5,0.1-0.5,0.4v5.4c0,0.3,0,0.4,0.5,0.4H49.9z"/>
		<path class="st4" d="M55.5,227.2c0,0.4,0,0.4,0.7,0.4v0.3c-0.3,0-0.7,0-1,0c-0.2,0-0.8,0-1.1,0v-0.3c0.7,0,0.8,0,0.8-0.4v-2.7
			c0-0.5-0.1-0.5-0.7-0.5v-0.3l1.4-0.1V227.2z M55,222.3c-0.3,0-0.5-0.3-0.5-0.5c0-0.3,0.2-0.5,0.5-0.5c0.3,0,0.5,0.2,0.5,0.5
			C55.6,222.1,55.3,222.3,55,222.3z"/>
	</g>
	<g>
		<path class="st4" d="M59.4,227.9c0,0.1-0.1,0.2-0.2,0.2c-0.1,0-0.1,0-0.2-0.2l-1.4-3.5c-0.1-0.3-0.2-0.4-0.8-0.4v-0.3
			c0.3,0,0.7,0,1,0c0.2,0,0.8,0,1.1,0v0.3c-0.2,0-0.6,0-0.6,0.3c0,0,0,0,0.1,0.2l1.1,2.8l1-2.5c0-0.1,0.1-0.1,0.1-0.2
			c0-0.2-0.1-0.4-0.5-0.4v-0.3c0.2,0,0.6,0,0.9,0c0.2,0,0.5,0,0.7,0v0.3c-0.7,0-0.8,0.4-0.9,0.7L59.4,227.9z"/>
		<path class="st4" d="M63,227.1c0.2,0.4,0.6,0.7,1.1,0.7c0.1,0,1,0,1.3-1c0-0.1,0-0.1,0.1-0.1c0,0,0.1,0,0.1,0.1
			c0,0.2-0.4,1.3-1.7,1.3c-1.1,0-2.2-1-2.2-2.3c0-1.2,0.9-2.3,2.1-2.3c1.2,0,1.8,1,1.8,2c0,0.2,0,0.2-0.2,0.2h-2.8
			C62.7,226,62.7,226.7,63,227.1z M65,225.4c0-0.4-0.1-1.7-1.1-1.7c-0.3,0-1.2,0.3-1.2,1.7H65z"/>
	</g>
	<g>
		<path class="st4" d="M68.9,223.5c0.4,0,0.7,0.3,0.7,0.6c0,0.3-0.2,0.4-0.4,0.4c-0.2,0-0.4-0.2-0.4-0.4c0-0.3,0.2-0.4,0.2-0.4
			c0,0,0,0-0.1,0c-0.8,0-1.2,0.9-1.2,1.9v1.5c0,0.4,0,0.5,0.8,0.5h0.2v0.3c-0.4,0-0.9,0-1.3,0c-0.3,0-0.7,0-1.1,0v-0.3
			c0.7,0,0.8,0,0.8-0.4v-2.7c0-0.5-0.1-0.6-0.8-0.6v-0.3l1.4-0.1v1.1C67.8,224.2,68.2,223.5,68.9,223.5z"/>
		<path class="st4" d="M71.5,227.3c0.1,0,0.5,0,0.7,0c0.6,0,1.2,0,1.7,0.3c0.5,0.3,0.6,0.8,0.6,1.1c0,0.8-1,1.3-2.2,1.3
			c-1.2,0-2.2-0.5-2.2-1.3c0-0.4,0.3-0.8,0.9-1c-0.3-0.2-0.4-0.6-0.4-0.9c0-0.3,0.2-0.7,0.3-0.8c-0.2-0.2-0.5-0.6-0.5-1
			c0-0.8,0.7-1.5,1.6-1.5c0.2,0,0.6,0,1.1,0.4c0.4-0.4,0.9-0.5,1.1-0.5c0.4,0,0.5,0.3,0.5,0.5c0,0.2-0.2,0.3-0.3,0.3
			c-0.2,0-0.3-0.1-0.3-0.3c0-0.1,0-0.2,0.2-0.3c0,0-0.1,0-0.1,0c-0.2,0-0.5,0-0.9,0.4c0.2,0.2,0.4,0.6,0.4,1c0,0.8-0.7,1.5-1.6,1.5
			c-0.2,0-0.6,0-1-0.3c-0.2,0.2-0.2,0.4-0.2,0.5C71,226.9,71.2,227.2,71.5,227.3z M74.1,228.7c0-0.9-1.1-0.9-2-0.9h-0.6
			c-0.4,0-0.8,0.4-0.8,0.9c0,0.5,0.7,1,1.7,1C73.4,229.8,74.1,229.3,74.1,228.7z M72.8,225.8c0.1-0.2,0.2-0.6,0.2-0.8
			c0-0.2,0-1.2-0.9-1.2c-0.4,0-0.6,0.3-0.7,0.4c-0.1,0.2-0.2,0.6-0.2,0.8c0,0.2,0,1.2,0.9,1.2C72.5,226.2,72.8,226,72.8,225.8z"/>
		<path class="st4" d="M76.4,227.1c0.2,0.4,0.6,0.7,1.1,0.7c0.1,0,1,0,1.3-1c0-0.1,0-0.1,0.1-0.1c0,0,0.1,0,0.1,0.1
			c0,0.2-0.4,1.3-1.7,1.3c-1.1,0-2.2-1-2.2-2.3c0-1.2,0.9-2.3,2.1-2.3c1.2,0,1.8,1,1.8,2c0,0.2,0,0.2-0.2,0.2h-2.8
			C76.1,226,76.1,226.7,76.4,227.1z M78.4,225.4c0-0.4-0.1-1.7-1.1-1.7c-0.3,0-1.2,0.3-1.2,1.7H78.4z"/>
		<path class="st4" d="M79.7,224v-0.3l1.4-0.1v1c0.3-0.6,0.7-1,1.5-1c0.6,0,0.9,0.2,1,0.4c0.3,0.4,0.3,0.7,0.3,1.5v1.9
			c0,0.3,0.3,0.3,0.8,0.3v0.3c-0.3,0-0.9,0-1.1,0c-0.3,0-0.8,0-1.1,0v-0.3c0.7,0,0.8,0,0.8-0.4v-2.3c0-0.6-0.1-1.1-0.7-1.1
			c-0.6,0-1.3,0.6-1.3,1.6v1.8c0,0.4,0.1,0.4,0.8,0.4v0.3c-0.3,0-0.9,0-1.1,0c-0.3,0-0.8,0-1.1,0v-0.3c0.7,0,0.8,0,0.8-0.4v-2.7
			C80.5,224,80.4,224,79.7,224z"/>
	</g>
	<g>
		<path class="st4" d="M86.4,226.7c0,0.2,0,1.1,0.7,1.1c0.4,0,0.7-0.4,0.7-1.1v-0.5H88v0.6c0,0.6-0.3,1.3-1,1.3
			c-0.4,0-1.3-0.1-1.3-1.3V224h-0.8v-0.2c1,0,1.3-1.1,1.3-1.9h0.2v1.8h1.4v0.3h-1.4V226.7z"/>
	</g>
	<path class="st1" d="M187.8,80.3L187.8,80.3c0-17.1-13.9-31.1-31.1-31.1s-31.1,13.9-31.1,31.1s13.9,31.1,31.1,31.1
		S187.8,97.4,187.8,80.3L187.8,80.3z"/>
	<polyline points="197.4,82.5 202,80.3 197.4,78 198.6,80.3 	"/>
	<line class="st0" x1="113.4" y1="80.3" x2="198.6" y2="80.3"/>
	<polyline points="158.2,42.3 155.9,37.8 153.7,42.3 155.9,41.2 	"/>
	<line class="st0" x1="156.7" y1="122.8" x2="155.9" y2="41.2"/>
	<g>
		<path class="st3" d="M165.3,32.8h1.7c1.7,0,2.2-0.7,2.6-2.1c0.1-0.2,0.1-0.2,0.2-0.2c0.1,0,0.1,0.1,0.1,0.1c0,0,0,0.1,0,0.1
			l-0.7,2.2c-0.1,0.2-0.1,0.2-0.3,0.2h-4.3c-0.2,0-0.2,0-0.2-0.1c0,0,0-0.2,0-0.2l5.6-6.2h-1.6c-1.6,0-2.1,0.7-2.5,1.8
			c0,0,0,0.1-0.1,0.1c-0.1,0-0.1-0.1-0.1-0.1c0,0,0-0.1,0-0.1l0.5-1.8c0.1-0.2,0.1-0.2,0.3-0.2h4.2c0.2,0,0.2,0,0.2,0.1
			c0,0.1,0,0.1,0,0.1L165.3,32.8z"/>
	</g>
	<g>
		<path class="st3" d="M171.3,31.3v-0.6h2.6v0.6H171.3z"/>
		<path class="st3" d="M177.7,28.8c1.1,0,2.1,1,2.1,2.3c0,1.3-1,2.3-2.2,2.3c-0.8,0-1.2-0.5-1.2-0.7v0.1v1.7c0,0.4,0.1,0.4,0.8,0.4
			v0.3c-0.3,0-0.9,0-1.1,0c-0.3,0-0.8,0-1.1,0v-0.3c0.7,0,0.8,0,0.8-0.4v-4.7c0-0.4-0.1-0.5-0.8-0.5v-0.3l1.4-0.1v0.7
			C176.5,29.2,176.9,28.8,177.7,28.8z M176.4,32.5c0.3,0.4,0.6,0.6,1,0.6c0.7,0,1.4-0.8,1.4-2c0-1.1-0.6-2-1.3-2
			c-0.5,0-1,0.3-1.3,0.8V32C176.3,32.2,176.3,32.3,176.4,32.5z"/>
		<path class="st3" d="M181.9,32.4c0,0.4,0.1,0.4,0.8,0.4v0.3c-0.4,0-0.9,0-1.1,0c-0.2,0-0.8,0-1.1,0v-0.3c0.7,0,0.8,0,0.8-0.4v-5.2
			c0-0.5-0.1-0.6-0.8-0.6v-0.3l1.4-0.1V32.4z"/>
		<path class="st3" d="M184.9,33.3c-0.6,0-1.6-0.2-1.6-1.1c0-0.4,0.2-1,1-1.3c0.6-0.3,1.3-0.3,1.8-0.4v-0.4c0-0.9-0.6-1.3-1.1-1.3
			c-0.3,0-0.8,0.1-1.1,0.5c0.5,0,0.5,0.3,0.5,0.5c0,0.3-0.2,0.5-0.5,0.5c-0.3,0-0.5-0.2-0.5-0.5c0-0.7,0.7-1.1,1.5-1.1
			c0.5,0,1,0.2,1.4,0.5c0.4,0.4,0.4,0.8,0.4,1.2v2c0,0,0,0.5,0.4,0.5c0.1,0,0.4-0.1,0.4-0.6v-0.6h0.2v0.6c0,0.8-0.6,0.9-0.8,0.9
			c-0.5,0-0.7-0.4-0.8-0.8C186,32.9,185.5,33.3,184.9,33.3z M184.1,32.2c0,0.5,0.4,0.8,0.9,0.8c0.4,0,1.2-0.3,1.2-1.3v-1
			C184.5,30.8,184.1,31.7,184.1,32.2z"/>
		<path class="st3" d="M188.2,29.2v-0.3l1.4-0.1v1c0.3-0.6,0.7-1,1.5-1c0.6,0,0.9,0.2,1,0.4c0.3,0.4,0.3,0.7,0.3,1.5v1.9
			c0,0.3,0.3,0.3,0.8,0.3v0.3c-0.3,0-0.9,0-1.1,0c-0.3,0-0.8,0-1.1,0v-0.3c0.7,0,0.8,0,0.8-0.4v-2.3c0-0.6-0.1-1.1-0.7-1.1
			c-0.6,0-1.3,0.6-1.3,1.6v1.8c0,0.4,0.1,0.4,0.8,0.4v0.3c-0.3,0-0.9,0-1.1,0c-0.3,0-0.8,0-1.1,0v-0.3c0.7,0,0.8,0,0.8-0.4v-2.7
			C189,29.3,188.9,29.2,188.2,29.2z"/>
		<path class="st3" d="M194.8,32.4c0.2,0.4,0.6,0.7,1.1,0.7c0.1,0,1,0,1.3-1c0-0.1,0-0.1,0.1-0.1c0,0,0.1,0,0.1,0.1
			c0,0.2-0.4,1.3-1.7,1.3c-1.1,0-2.2-1-2.2-2.3c0-1.2,0.9-2.3,2.1-2.3c1.2,0,1.8,1,1.8,2c0,0.2,0,0.2-0.2,0.2h-2.8
			C194.5,31.2,194.5,31.9,194.8,32.4z M196.9,30.7c0-0.4-0.1-1.7-1.1-1.7c-0.3,0-1.2,0.2-1.2,1.7H196.9z"/>
	</g>
	<polyline points="160.2,23.2 201.1,23.2 201.1,22.7 160.2,22.7 	"/>
	<polyline points="160.2,38.3 160.7,38.3 160.7,23.1 160.2,23.1 	"/>
	<polyline points="200.6,38.3 201.1,38.3 201.1,23.1 200.6,23.1 	"/>
	<polyline points="160.2,38.6 201.1,38.6 201.1,38.1 160.2,38.1 	"/>
	<g>
		<path class="st3" d="M195.3,89.8c0,0.4,0,0.5,0.9,0.5h0.3v0.3c-0.3,0-1.2,0-1.6,0c-0.4,0-1.3,0-1.6,0v-0.3h0.3
			c0.9,0,0.9-0.1,0.9-0.5v-5.2c-0.5,0.3-1.1,0.3-1.3,0.3v-0.3c0.3,0,1.2,0,1.8-0.6c0.2,0,0.2,0,0.2,0.3V89.8z"/>
	</g>
	<path class="st8" d="M173.7,80.5L173.7,80.5c0-9.3-7.6-16.9-16.9-16.9c-9.3,0-16.9,7.6-16.9,16.9c0,9.3,7.6,16.9,16.9,16.9
		C166.1,97.3,173.7,89.8,173.7,80.5L173.7,80.5z"/>
	<g>
		<path class="st9" d="M168,81.8c0.2,0,0.3,0.1,0.3,0.3c0,0,0,0.1-0.1,0.3l-0.4,1.4c-0.1,0.4-0.1,0.5-0.2,0.9
			c-0.1,0.4-0.1,0.5-0.1,0.7c0,0.2,0,0.5,0.3,0.5c0.4,0,0.6-0.6,0.8-1.2c0-0.1,0-0.2,0.1-0.2c0,0,0.1,0,0.1,0.1c0,0-0.1,0.6-0.3,1
			c-0.2,0.3-0.4,0.5-0.7,0.5c-0.5,0-0.8-0.3-0.9-0.7c-0.6,0.7-1.1,0.7-1.3,0.7c-0.8,0-1.3-0.7-1.3-1.6c0-1.5,1.2-2.9,2.4-2.9
			c0.4,0,0.7,0.3,0.9,0.6C167.6,82,167.8,81.8,168,81.8z M167.5,82.8c0,0,0-0.1,0-0.2c0-0.1-0.1-0.9-0.8-0.9c-0.4,0-0.8,0.4-1.2,1
			c-0.2,0.5-0.5,1.7-0.5,2.2c0,0.4,0.1,0.9,0.6,0.9c0.3,0,0.7-0.2,1.1-0.7c0.1-0.2,0.1-0.2,0.2-0.4L167.5,82.8z"/>
	</g>
	<path class="st10" d="M113.4,94.4l56.7-56.7 M113.4,87.4L163,37.8 M113.4,80.3l42.5-42.5 M113.4,101.5l28.3-28.3 M113.4,73.2
		l35.4-35.4 M148.8,66.1l28.3-28.3 M141.7,122.8l56.7-56.7 M148.8,122.8l49.6-49.6 M155.9,122.8l42.5-42.5 M163,122.8l35.4-35.4
		 M170.1,122.8l28.3-28.3 M173.6,83.8L198.4,59 M173.6,76.7l24.8-24.8 M173.6,69.6l24.8-24.8 M170.1,66.1l28.3-28.3 M166.5,62.6
		l24.8-24.8 M159.4,62.6l24.8-24.8 M113.4,108.6l24.8-24.8 M113.4,115.7l28.3-28.3 M113.4,122.8l31.9-31.9 M120.5,122.8l28.3-28.3
		 M127.6,122.8L152.4,98 M134.6,122.8L159.4,98 M113.4,66.1l28.3-28.3 M113.4,59l21.3-21.3 M113.4,51.9l14.2-14.2 M113.4,44.8
		l7.1-7.1 M177.2,122.8l21.3-21.3 M184.3,122.8l14.2-14.2 M191.3,122.8l7.1-7.1"/>
	<path class="st1" d="M372,193.7L372,193.7c0-17.1-13.9-31.1-31.1-31.1s-31.1,13.9-31.1,31.1s13.9,31.1,31.1,31.1
		S372,210.8,372,193.7L372,193.7z"/>
	<polyline points="381.7,195.9 386.2,193.7 381.7,191.4 382.8,193.7 	"/>
	<line class="st0" x1="297.6" y1="193.7" x2="382.8" y2="193.7"/>
	<polyline points="342.4,155.7 340.2,151.1 337.9,155.7 340.2,154.5 	"/>
	<line class="st0" x1="340.2" y1="236.2" x2="340.2" y2="154.5"/>
	<g>
		<path class="st3" d="M349.5,146.2h1.7c1.7,0,2.2-0.7,2.6-2.1c0.1-0.2,0.1-0.2,0.2-0.2s0.1,0.1,0.1,0.1c0,0,0,0.1,0,0.1l-0.7,2.2
			c-0.1,0.2-0.1,0.2-0.3,0.2h-4.3c-0.2,0-0.2,0-0.2-0.1c0,0,0-0.2,0-0.2l5.6-6.2h-1.6c-1.6,0-2.1,0.7-2.5,1.8c0,0,0,0.1-0.1,0.1
			c-0.1,0-0.1-0.1-0.1-0.1c0,0,0-0.1,0-0.1l0.5-1.8c0.1-0.2,0.1-0.2,0.3-0.2h4.2c0.2,0,0.2,0,0.2,0.1c0,0.1,0,0.1,0,0.1L349.5,146.2
			z"/>
	</g>
	<g>
		<path class="st3" d="M355.6,144.7v-0.6h2.6v0.6H355.6z"/>
		<path class="st3" d="M361.9,142.2c1.1,0,2.1,1,2.1,2.3c0,1.3-1,2.3-2.2,2.3c-0.8,0-1.2-0.5-1.2-0.7v0.1v1.7c0,0.4,0.1,0.4,0.8,0.4
			v0.3c-0.3,0-0.9,0-1.1,0c-0.3,0-0.8,0-1.1,0v-0.3c0.7,0,0.8,0,0.8-0.4v-4.7c0-0.4-0.1-0.5-0.8-0.5v-0.3l1.4-0.1v0.7
			C360.7,142.6,361.1,142.2,361.9,142.2z M360.7,145.9c0.3,0.4,0.6,0.6,1,0.6c0.7,0,1.4-0.8,1.4-2c0-1.1-0.6-2-1.3-2
			c-0.5,0-1,0.3-1.3,0.8v2.2C360.6,145.6,360.6,145.7,360.7,145.9z"/>
		<path class="st3" d="M366.1,145.8c0,0.4,0.1,0.4,0.8,0.4v0.3c-0.4,0-0.9,0-1.1,0s-0.8,0-1.1,0v-0.3c0.7,0,0.8,0,0.8-0.4v-5.2
			c0-0.5-0.1-0.6-0.8-0.6v-0.3l1.4-0.1V145.8z"/>
		<path class="st3" d="M369.1,146.7c-0.6,0-1.6-0.2-1.6-1.1c0-0.4,0.2-1,1-1.3c0.6-0.3,1.3-0.3,1.8-0.4v-0.4c0-0.9-0.6-1.3-1.1-1.3
			c-0.3,0-0.8,0.1-1.1,0.5c0.5,0,0.5,0.3,0.5,0.5c0,0.3-0.2,0.5-0.5,0.5c-0.3,0-0.5-0.2-0.5-0.5c0-0.7,0.7-1.1,1.5-1.1
			c0.5,0,1,0.2,1.4,0.5c0.4,0.4,0.4,0.8,0.4,1.2v2c0,0,0,0.5,0.4,0.5c0.1,0,0.4-0.1,0.4-0.6v-0.6h0.2v0.6c0,0.8-0.6,0.9-0.8,0.9
			c-0.5,0-0.7-0.4-0.8-0.8C370.2,146.3,369.8,146.7,369.1,146.7z M368.3,145.6c0,0.5,0.4,0.8,0.9,0.8c0.4,0,1.2-0.3,1.2-1.3v-1
			C368.7,144.2,368.3,145.1,368.3,145.6z"/>
		<path class="st3" d="M372.4,142.6v-0.3l1.4-0.1v1c0.3-0.6,0.7-1,1.5-1c0.6,0,0.9,0.2,1,0.4c0.3,0.4,0.3,0.7,0.3,1.5v1.9
			c0,0.3,0.3,0.3,0.8,0.3v0.3c-0.3,0-0.9,0-1.1,0c-0.3,0-0.8,0-1.1,0v-0.3c0.7,0,0.8,0,0.8-0.4v-2.3c0-0.6-0.1-1.1-0.7-1.1
			c-0.6,0-1.3,0.6-1.3,1.6v1.8c0,0.4,0.1,0.4,0.8,0.4v0.3c-0.3,0-0.9,0-1.1,0c-0.3,0-0.8,0-1.1,0v-0.3c0.7,0,0.8,0,0.8-0.4v-2.7
			C373.2,142.7,373.1,142.6,372.4,142.6z"/>
		<path class="st3" d="M379.1,145.8c0.2,0.4,0.6,0.7,1.1,0.7c0.1,0,1,0,1.3-1c0-0.1,0-0.1,0.1-0.1c0,0,0.1,0,0.1,0.1
			c0,0.2-0.4,1.3-1.7,1.3c-1.1,0-2.2-1-2.2-2.3c0-1.2,0.9-2.3,2.1-2.3c1.2,0,1.8,1,1.8,2c0,0.2,0,0.2-0.2,0.2h-2.8
			C378.8,144.6,378.8,145.3,379.1,145.8z M381.1,144.1c0-0.4-0.1-1.7-1.1-1.7c-0.3,0-1.2,0.3-1.2,1.7H381.1z"/>
	</g>
	<polyline points="344.4,136.6 385.4,136.6 385.4,136.1 344.4,136.1 	"/>
	<polyline points="344.4,151.7 344.9,151.7 344.9,136.5 344.4,136.5 	"/>
	<polyline points="384.9,151.7 385.4,151.7 385.4,136.5 384.9,136.5 	"/>
	<polyline points="344.4,152 385.4,152 385.4,151.5 344.4,151.5 	"/>
	<g>
		<path class="st3" d="M365.4,199.7c0,0.4,0,0.5,0.9,0.5h0.3v0.3c-0.3,0-1.2,0-1.6,0s-1.3,0-1.6,0v-0.3h0.3c0.9,0,0.9-0.1,0.9-0.5
			v-5.2c-0.5,0.3-1.1,0.3-1.3,0.3v-0.3c0.3,0,1.2,0,1.8-0.6c0.2,0,0.2,0,0.2,0.3V199.7z"/>
	</g>
	<path class="st8" d="M378.9,193.7L378.9,193.7c0-21.4-17.3-38.7-38.7-38.7s-38.7,17.3-38.7,38.7c0,21.4,17.3,38.7,38.7,38.7
		S378.9,215,378.9,193.7L378.9,193.7z"/>
	<g>
		<path class="st9" d="M384.2,202.2c0.2,0,0.3,0.1,0.3,0.3c0,0,0,0.1-0.1,0.3l-0.4,1.4c-0.1,0.4-0.1,0.5-0.2,0.9
			c-0.1,0.4-0.1,0.5-0.1,0.7c0,0.2,0,0.5,0.3,0.5c0.4,0,0.6-0.6,0.8-1.2c0-0.1,0-0.2,0.1-0.2c0,0,0.1,0,0.1,0.1c0,0-0.1,0.6-0.3,1
			c-0.2,0.3-0.4,0.5-0.7,0.5c-0.5,0-0.8-0.3-0.9-0.7c-0.6,0.7-1.1,0.7-1.3,0.7c-0.8,0-1.3-0.7-1.3-1.6c0-1.5,1.2-2.9,2.4-2.9
			c0.4,0,0.7,0.3,0.9,0.6C383.8,202.5,383.9,202.2,384.2,202.2z M383.6,203.3c0,0,0-0.1,0-0.2c0-0.1-0.1-0.9-0.8-0.9
			c-0.4,0-0.8,0.4-1.2,1c-0.2,0.5-0.5,1.7-0.5,2.2c0,0.4,0.1,0.9,0.6,0.9c0.3,0,0.7-0.2,1.1-0.7c0.2-0.2,0.2-0.2,0.2-0.4
			L383.6,203.3z"/>
	</g>
	<path class="st10" d="M301.2,193.7l39-39 M311.8,218.5l53.1-53.1 M308.3,214.9l53.1-53.1 M306.5,209.6l49.6-49.6 M303,206.1
		l49.6-49.6 M301.2,200.7l46.1-46.1 M303,184.8l30.1-30.1 M306.5,174.2l12.4-12.4 M315.4,222l53.1-53.1 M318.9,225.5l53.1-53.1
		 M322.4,229.1l53.1-53.1 M327.8,230.8l49.6-49.6 M333.1,232.6l44.3-44.3 M340.2,232.6l39-39 M347.2,232.6l30.1-30.1 M361.4,225.5
		l14.2-14.2"/>
	<path class="st1" d="M187.8,193.7L187.8,193.7c0-17.1-13.9-31.1-31.1-31.1s-31.1,13.9-31.1,31.1s13.9,31.1,31.1,31.1
		S187.8,210.8,187.8,193.7L187.8,193.7z"/>
	<polyline points="197.4,195.9 202,193.7 197.4,191.4 198.6,193.7 	"/>
	<line class="st0" x1="113.4" y1="193.7" x2="198.6" y2="193.7"/>
	<polyline points="158.2,155.7 155.9,151.1 153.6,155.7 155.9,154.5 	"/>
	<line class="st0" x1="155.9" y1="236.2" x2="155.9" y2="154.5"/>
	<g>
		<path class="st3" d="M165.3,146.2h1.7c1.7,0,2.2-0.7,2.6-2.1c0.1-0.2,0.1-0.2,0.2-0.2c0.1,0,0.1,0.1,0.1,0.1c0,0,0,0.1,0,0.1
			l-0.7,2.2c-0.1,0.2-0.1,0.2-0.3,0.2h-4.3c-0.2,0-0.2,0-0.2-0.1c0,0,0-0.2,0-0.2l5.6-6.2h-1.6c-1.6,0-2.1,0.7-2.5,1.8
			c0,0,0,0.1-0.1,0.1c-0.1,0-0.1-0.1-0.1-0.1c0,0,0-0.1,0-0.1l0.5-1.8c0.1-0.2,0.1-0.2,0.3-0.2h4.2c0.2,0,0.2,0,0.2,0.1
			c0,0.1,0,0.1,0,0.1L165.3,146.2z"/>
	</g>
	<g>
		<path class="st3" d="M171.3,144.7v-0.6h2.6v0.6H171.3z"/>
		<path class="st3" d="M177.7,142.2c1.1,0,2.1,1,2.1,2.3c0,1.3-1,2.3-2.2,2.3c-0.8,0-1.2-0.5-1.2-0.7v0.1v1.7c0,0.4,0.1,0.4,0.8,0.4
			v0.3c-0.3,0-0.9,0-1.1,0c-0.3,0-0.8,0-1.1,0v-0.3c0.7,0,0.8,0,0.8-0.4v-4.7c0-0.4-0.1-0.5-0.8-0.5v-0.3l1.4-0.1v0.7
			C176.5,142.6,176.9,142.2,177.7,142.2z M176.4,145.9c0.3,0.4,0.6,0.6,1,0.6c0.7,0,1.4-0.8,1.4-2c0-1.1-0.6-2-1.3-2
			c-0.5,0-1,0.3-1.3,0.8v2.2C176.3,145.6,176.3,145.7,176.4,145.9z"/>
		<path class="st3" d="M181.9,145.8c0,0.4,0.1,0.4,0.8,0.4v0.3c-0.4,0-0.9,0-1.1,0c-0.2,0-0.8,0-1.1,0v-0.3c0.7,0,0.8,0,0.8-0.4
			v-5.2c0-0.5-0.1-0.6-0.8-0.6v-0.3l1.4-0.1V145.8z"/>
		<path class="st3" d="M184.9,146.7c-0.6,0-1.6-0.2-1.6-1.1c0-0.4,0.2-1,1-1.3c0.6-0.3,1.3-0.3,1.8-0.4v-0.4c0-0.9-0.6-1.3-1.1-1.3
			c-0.3,0-0.8,0.1-1.1,0.5c0.5,0,0.5,0.3,0.5,0.5c0,0.3-0.2,0.5-0.5,0.5c-0.3,0-0.5-0.2-0.5-0.5c0-0.7,0.7-1.1,1.5-1.1
			c0.5,0,1,0.2,1.4,0.5c0.4,0.4,0.4,0.8,0.4,1.2v2c0,0,0,0.5,0.4,0.5c0.1,0,0.4-0.1,0.4-0.6v-0.6h0.2v0.6c0,0.8-0.6,0.9-0.8,0.9
			c-0.5,0-0.7-0.4-0.8-0.8C186,146.3,185.5,146.7,184.9,146.7z M184.1,145.6c0,0.5,0.4,0.8,0.9,0.8c0.4,0,1.2-0.3,1.2-1.3v-1
			C184.5,144.2,184.1,145.1,184.1,145.6z"/>
		<path class="st3" d="M188.2,142.6v-0.3l1.4-0.1v1c0.3-0.6,0.7-1,1.5-1c0.6,0,0.9,0.2,1,0.4c0.3,0.4,0.3,0.7,0.3,1.5v1.9
			c0,0.3,0.3,0.3,0.8,0.3v0.3c-0.3,0-0.9,0-1.1,0c-0.3,0-0.8,0-1.1,0v-0.3c0.7,0,0.8,0,0.8-0.4v-2.3c0-0.6-0.1-1.1-0.7-1.1
			c-0.6,0-1.3,0.6-1.3,1.6v1.8c0,0.4,0.1,0.4,0.8,0.4v0.3c-0.3,0-0.9,0-1.1,0c-0.3,0-0.8,0-1.1,0v-0.3c0.7,0,0.8,0,0.8-0.4v-2.7
			C189,142.7,188.9,142.6,188.2,142.6z"/>
		<path class="st3" d="M194.8,145.8c0.2,0.4,0.6,0.7,1.1,0.7c0.1,0,1,0,1.3-1c0-0.1,0-0.1,0.1-0.1c0,0,0.1,0,0.1,0.1
			c0,0.2-0.4,1.3-1.7,1.3c-1.1,0-2.2-1-2.2-2.3c0-1.2,0.9-2.3,2.1-2.3c1.2,0,1.8,1,1.8,2c0,0.2,0,0.2-0.2,0.2h-2.8
			C194.5,144.6,194.5,145.3,194.8,145.8z M196.9,144.1c0-0.4-0.1-1.7-1.1-1.7c-0.3,0-1.2,0.3-1.2,1.7H196.9z"/>
	</g>
	<polyline points="160.2,136.6 201.1,136.6 201.1,136.1 160.2,136.1 	"/>
	<polyline points="160.2,151.7 160.7,151.7 160.7,136.5 160.2,136.5 	"/>
	<polyline points="200.6,151.7 201.1,151.7 201.1,136.5 200.6,136.5 	"/>
	<polyline points="160.2,152 201.1,152 201.1,151.5 160.2,151.5 	"/>
	<g>
		<path class="st3" d="M181.1,199.7c0,0.4,0,0.5,0.9,0.5h0.3v0.3c-0.3,0-1.2,0-1.6,0c-0.4,0-1.3,0-1.6,0v-0.3h0.3
			c0.9,0,0.9-0.1,0.9-0.5v-5.2c-0.5,0.3-1.1,0.3-1.3,0.3v-0.3c0.3,0,1.2,0,1.8-0.6c0.2,0,0.2,0,0.2,0.3V199.7z"/>
	</g>
	<path class="st8" d="M194.6,193.7L194.6,193.7c0-21.4-17.3-38.7-38.7-38.7s-38.7,17.3-38.7,38.7c0,21.4,17.3,38.7,38.7,38.7
		S194.6,215,194.6,193.7L194.6,193.7z"/>
	<g>
		<path class="st9" d="M199.9,202.2c0.2,0,0.3,0.1,0.3,0.3c0,0,0,0.1-0.1,0.3l-0.4,1.4c-0.1,0.4-0.1,0.5-0.2,0.9
			c-0.1,0.4-0.1,0.5-0.1,0.7c0,0.2,0,0.5,0.3,0.5c0.4,0,0.6-0.6,0.8-1.2c0-0.1,0-0.2,0.1-0.2c0,0,0.1,0,0.1,0.1c0,0-0.1,0.6-0.3,1
			c-0.2,0.3-0.4,0.5-0.7,0.5c-0.5,0-0.8-0.3-0.9-0.7c-0.6,0.7-1.1,0.7-1.3,0.7c-0.8,0-1.3-0.7-1.3-1.6c0-1.5,1.2-2.9,2.4-2.9
			c0.4,0,0.7,0.3,0.9,0.6C199.5,202.5,199.7,202.2,199.9,202.2z M199.4,203.3c0,0,0-0.1,0-0.2c0-0.1-0.1-0.9-0.8-0.9
			c-0.4,0-0.8,0.4-1.2,1c-0.2,0.5-0.5,1.7-0.5,2.2c0,0.4,0.1,0.9,0.6,0.9c0.3,0,0.7-0.2,1.1-0.7c0.1-0.2,0.1-0.2,0.2-0.4
			L199.4,203.3z"/>
	</g>
	<path class="st10" d="M113.4,172.4l21.3-21.3 M159.4,154.7l3.5-3.5 M113.4,193.7l3.5-3.5 M152.4,154.7l3.5-3.5 M141.7,158.2
		l7.1-7.1 M113.4,186.6l7.1-7.1 M113.4,179.5l28.3-28.3 M113.4,165.3l14.2-14.2 M166.5,154.7l3.5-3.5 M170.1,158.2l7.1-7.1
		 M177.2,158.2l7.1-7.1 M180.7,161.8l10.6-10.6 M184.3,165.3l14.2-14.2 M187.8,168.9l17.7-17.7 M187.8,175.9l17.7-17.7 M191.3,179.5
		l14.2-14.2 M194.9,183l10.6-10.6 M194.9,190.1l10.6-10.6 M194.9,197.2l10.6-10.6 M191.3,207.8l14.2-14.2 M170.1,236.2l35.4-35.4
		 M177.2,236.2l28.3-28.3 M184.3,236.2l21.3-21.3 M191.3,236.2l14.2-14.2 M198.4,236.2l7.1-7.1 M113.4,200.7l3.5-3.5 M113.4,207.8
		l3.5-3.5 M113.4,214.9l7.1-7.1 M113.4,222l7.1-7.1 M113.4,229.1l10.6-10.6 M116.9,232.6l10.6-10.6 M120.5,236.2l10.6-10.6
		 M127.6,236.2l7.1-7.1 M134.6,236.2l3.5-3.5 M141.7,236.2l3.5-3.5 M148.8,236.2l3.5-3.5 M155.9,236.2l3.5-3.5 M163,236.2l3.5-3.5
		 M113.4,158.2l7.1-7.1"/>
	<g>
		<path class="st3" d="M349.5,32.8h1.7c1.7,0,2.2-0.7,2.6-2.1c0.1-0.2,0.1-0.2,0.2-0.2s0.1,0.1,0.1,0.1c0,0,0,0.1,0,0.1l-0.7,2.2
			c-0.1,0.2-0.1,0.2-0.3,0.2h-4.3c-0.2,0-0.2,0-0.2-0.1c0,0,0-0.2,0-0.2l5.6-6.2h-1.6c-1.6,0-2.1,0.7-2.5,1.8c0,0,0,0.1-0.1,0.1
			c-0.1,0-0.1-0.1-0.1-0.1c0,0,0-0.1,0-0.1l0.5-1.8c0.1-0.2,0.1-0.2,0.3-0.2h4.2c0.2,0,0.2,0,0.2,0.1c0,0.1,0,0.1,0,0.1L349.5,32.8z
			"/>
	</g>
	<g>
		<path class="st3" d="M355.6,31.3v-0.6h2.6v0.6H355.6z"/>
		<path class="st3" d="M361.9,28.8c1.1,0,2.1,1,2.1,2.3c0,1.3-1,2.3-2.2,2.3c-0.8,0-1.2-0.5-1.2-0.7v0.1v1.7c0,0.4,0.1,0.4,0.8,0.4
			v0.3c-0.3,0-0.9,0-1.1,0c-0.3,0-0.8,0-1.1,0v-0.3c0.7,0,0.8,0,0.8-0.4v-4.7c0-0.4-0.1-0.5-0.8-0.5v-0.3l1.4-0.1v0.7
			C360.7,29.2,361.1,28.8,361.9,28.8z M360.7,32.5c0.3,0.4,0.6,0.6,1,0.6c0.7,0,1.4-0.8,1.4-2c0-1.1-0.6-2-1.3-2
			c-0.5,0-1,0.3-1.3,0.8V32C360.6,32.2,360.6,32.3,360.7,32.5z"/>
		<path class="st3" d="M366.1,32.4c0,0.4,0.1,0.4,0.8,0.4v0.3c-0.4,0-0.9,0-1.1,0s-0.8,0-1.1,0v-0.3c0.7,0,0.8,0,0.8-0.4v-5.2
			c0-0.5-0.1-0.6-0.8-0.6v-0.3l1.4-0.1V32.4z"/>
		<path class="st3" d="M369.1,33.3c-0.6,0-1.6-0.2-1.6-1.1c0-0.4,0.2-1,1-1.3c0.6-0.3,1.3-0.3,1.8-0.4v-0.4c0-0.9-0.6-1.3-1.1-1.3
			c-0.3,0-0.8,0.1-1.1,0.5c0.5,0,0.5,0.3,0.5,0.5c0,0.3-0.2,0.5-0.5,0.5c-0.3,0-0.5-0.2-0.5-0.5c0-0.7,0.7-1.1,1.5-1.1
			c0.5,0,1,0.2,1.4,0.5c0.4,0.4,0.4,0.8,0.4,1.2v2c0,0,0,0.5,0.4,0.5c0.1,0,0.4-0.1,0.4-0.6v-0.6h0.2v0.6c0,0.8-0.6,0.9-0.8,0.9
			c-0.5,0-0.7-0.4-0.8-0.8C370.2,32.9,369.8,33.3,369.1,33.3z M368.3,32.2c0,0.5,0.4,0.8,0.9,0.8c0.4,0,1.2-0.3,1.2-1.3v-1
			C368.7,30.8,368.3,31.7,368.3,32.2z"/>
		<path class="st3" d="M372.4,29.2v-0.3l1.4-0.1v1c0.3-0.6,0.7-1,1.5-1c0.6,0,0.9,0.2,1,0.4c0.3,0.4,0.3,0.7,0.3,1.5v1.9
			c0,0.3,0.3,0.3,0.8,0.3v0.3c-0.3,0-0.9,0-1.1,0c-0.3,0-0.8,0-1.1,0v-0.3c0.7,0,0.8,0,0.8-0.4v-2.3c0-0.6-0.1-1.1-0.7-1.1
			c-0.6,0-1.3,0.6-1.3,1.6v1.8c0,0.4,0.1,0.4,0.8,0.4v0.3c-0.3,0-0.9,0-1.1,0c-0.3,0-0.8,0-1.1,0v-0.3c0.7,0,0.8,0,0.8-0.4v-2.7
			C373.2,29.3,373.1,29.2,372.4,29.2z"/>
		<path class="st3" d="M379.1,32.4c0.2,0.4,0.6,0.7,1.1,0.7c0.1,0,1,0,1.3-1c0-0.1,0-0.1,0.1-0.1c0,0,0.1,0,0.1,0.1
			c0,0.2-0.4,1.3-1.7,1.3c-1.1,0-2.2-1-2.2-2.3c0-1.2,0.9-2.3,2.1-2.3c1.2,0,1.8,1,1.8,2c0,0.2,0,0.2-0.2,0.2h-2.8
			C378.8,31.2,378.8,31.9,379.1,32.4z M381.1,30.7c0-0.4-0.1-1.7-1.1-1.7c-0.3,0-1.2,0.2-1.2,1.7H381.1z"/>
	</g>
	<polyline points="344.4,23.2 385.4,23.2 385.4,22.7 344.4,22.7 	"/>
	<polyline points="344.4,38.3 344.9,38.3 344.9,23.1 344.4,23.1 	"/>
	<polyline points="384.9,38.3 385.4,38.3 385.4,23.1 384.9,23.1 	"/>
	<polyline points="344.4,38.6 385.4,38.6 385.4,38.1 344.4,38.1 	"/>
	<path class="st1" d="M372,80.3L372,80.3c0-17.1-13.9-31.1-31.1-31.1s-31.1,13.9-31.1,31.1s13.9,31.1,31.1,31.1S372,97.4,372,80.3
		L372,80.3z"/>
	<polyline points="381.7,82.5 386.2,80.3 381.7,78 382.8,80.3 	"/>
	<line class="st0" x1="297.6" y1="80.3" x2="382.8" y2="80.3"/>
	<polyline points="342.4,42.3 340.2,37.8 337.9,42.3 340.2,41.2 	"/>
	<line class="st0" x1="340.2" y1="122.8" x2="340.2" y2="41.2"/>
	<g>
		<path class="st3" d="M379.5,89.8c0,0.4,0,0.5,0.9,0.5h0.3v0.3c-0.3,0-1.2,0-1.6,0s-1.3,0-1.6,0v-0.3h0.3c0.9,0,0.9-0.1,0.9-0.5
			v-5.2c-0.5,0.3-1.1,0.3-1.3,0.3v-0.3c0.3,0,1.2,0,1.8-0.6c0.2,0,0.2,0,0.2,0.3V89.8z"/>
	</g>
	<path class="st8" d="M357.9,80.5L357.9,80.5c0-9.3-7.6-16.9-16.9-16.9s-16.9,7.6-16.9,16.9s7.6,16.9,16.9,16.9
		S357.9,89.8,357.9,80.5L357.9,80.5z"/>
	<g>
		<path class="st9" d="M352.3,81.8c0.2,0,0.3,0.1,0.3,0.3c0,0,0,0.1-0.1,0.3l-0.4,1.4c-0.1,0.4-0.1,0.5-0.2,0.9
			c-0.1,0.4-0.1,0.5-0.1,0.7c0,0.2,0,0.5,0.3,0.5c0.4,0,0.6-0.6,0.8-1.2c0-0.1,0-0.2,0.1-0.2c0,0,0.1,0,0.1,0.1c0,0-0.1,0.6-0.3,1
			c-0.2,0.3-0.4,0.5-0.7,0.5c-0.5,0-0.8-0.3-0.9-0.7c-0.6,0.7-1.1,0.7-1.3,0.7c-0.8,0-1.3-0.7-1.3-1.6c0-1.5,1.2-2.9,2.4-2.9
			c0.4,0,0.7,0.3,0.9,0.6C351.9,82,352,81.8,352.3,81.8z M351.7,82.8c0,0,0-0.1,0-0.2c0-0.1-0.1-0.9-0.8-0.9c-0.4,0-0.8,0.4-1.2,1
			c-0.2,0.5-0.5,1.7-0.5,2.2c0,0.4,0.1,0.9,0.6,0.9c0.3,0,0.7-0.2,1.1-0.7c0.2-0.2,0.2-0.2,0.2-0.4L351.7,82.8z"/>
	</g>
	<path class="st10" d="M326,87.4l21.3-21.3 M345.5,96.2l10.6-10.6 M338.4,96.2l19.5-19.5 M333.1,94.4l23-23 M329.5,90.9l23-23
		 M324.2,82l17.7-17.7 M326,73.2l7.1-7.1"/>
	<path class="st11" d="M0,129.9h403.9 M0,133.4h403.9"/>
	<g>
		<path class="st3" d="M136,6.2l0.1,0.8c0.1,0.9,0.2,1.4,0.7,1.4c0.2,0,0.6-0.2,0.7-0.9c0-0.1,0-0.2,0.1-0.2c0.1,0,0.1,0.1,0.1,0.2
			c0,0.3-0.2,1.1-0.9,1.1c-0.3,0-0.8-0.1-1.3-0.4c-0.4-0.4-0.4-0.8-0.4-1.4c0-0.7,0-1-0.4-1.3c-0.3-0.3-0.8-0.3-0.9-0.3h-1.1v2.5
			c0,0.4,0,0.5,0.8,0.5h0.2v0.3c-0.4,0-1.1,0-1.5,0c-0.4,0-1.1,0-1.5,0V8.1h0.2c0.8,0,0.8-0.1,0.8-0.5V2.4c0-0.4,0-0.5-0.8-0.5h-0.2
			V1.6h3.1c1.5,0,2.6,0.8,2.6,1.8c0,0.8-0.8,1.4-1.7,1.6C135.3,5.2,135.8,5.5,136,6.2z M133.8,4.9c1.5,0,1.7-0.8,1.7-1.5
			c0-1.4-1.1-1.5-2-1.5c-0.2,0-0.5,0-0.6,0c-0.2,0-0.2,0.1-0.2,0.4v2.6H133.8z"/>
		<path class="st3" d="M141.4,8.6c-1.8,0-3.3-1.6-3.3-3.6c0-2.1,1.5-3.6,3.3-3.6c1.8,0,3.3,1.6,3.3,3.6C144.7,7,143.2,8.6,141.4,8.6
			z M143.7,4.9c0-2.6-1.4-3.3-2.3-3.3c-0.8,0-2.3,0.7-2.3,3.3c0,2.6,1.3,3.5,2.3,3.5C142.3,8.3,143.7,7.5,143.7,4.9z"/>
	</g>
	<g>
		<path class="st3" d="M149.4,1.4c1,0,1.5,0.5,1.8,0.9l0.5-0.7c0.1-0.1,0.1-0.1,0.2-0.1c0.1,0,0.1,0.1,0.1,0.2V4
			c0,0.2,0,0.2-0.2,0.2c-0.1,0-0.1,0-0.2-0.2c-0.2-1.5-1.1-2.4-2.2-2.4c-0.6,0-2.6,0.3-2.6,3.3c0,3,2,3.3,2.6,3.3
			c1.1,0,2.2-0.8,2.2-2.2c0-0.1,0-0.2,0.1-0.2c0.1,0,0.1,0.1,0.1,0.2c0,1.2-1,2.5-2.6,2.5c-1.9,0-3.5-1.6-3.5-3.6
			C145.9,2.9,147.5,1.4,149.4,1.4z"/>
	</g>
	<g>
		<path class="st3" d="M162.2,2.6c0.1-0.1,0.2-0.2,0.2-0.4c0-0.3-0.3-0.3-0.4-0.3c-0.1,0-0.1,0-0.1-0.1c0-0.2,0.1-0.2,0.2-0.2
			c0.4,0,0.7,0,1.1,0c0.3,0,0.6,0,0.9,0c0.1,0,0.1,0.1,0.1,0.1c0,0.2-0.1,0.2-0.2,0.2c-0.6,0-1,0.3-1.3,0.5c-0.3,0.3-1.4,1.5-2,2.2
			c0.2,0.6,0.9,2.2,1.3,3.1c0.2,0.4,0.2,0.4,0.9,0.4c0.1,0,0.2,0,0.2,0.1c0,0.2-0.1,0.2-0.2,0.2c-0.2,0-0.9,0-1.1,0
			c-0.3,0-1,0-1.3,0c0,0-0.1,0-0.1-0.1c0-0.2,0.1-0.2,0.2-0.2c0.4,0,0.6-0.2,0.6-0.3c0,0,0,0,0-0.1l-1-2.4l-0.9,1l-1,1.1
			c-0.1,0.1-0.3,0.3-0.3,0.4c0,0.3,0.3,0.3,0.4,0.3c0,0,0.1,0,0.1,0.1c0,0.2-0.1,0.2-0.2,0.2c-0.4,0-0.7,0-1.1,0c-0.3,0-0.6,0-0.9,0
			c-0.1,0-0.1-0.1-0.1-0.1c0-0.2,0.1-0.2,0.2-0.2c0.5,0,1-0.2,1.5-0.7l0.1-0.1L160,5l-1.2-2.8c-0.1-0.2-0.1-0.3-0.7-0.3
			c-0.1,0-0.2,0-0.2-0.1c0-0.2,0.1-0.2,0.2-0.2c0.2,0,0.9,0,1.1,0c0.4,0,0.8,0,1.3,0c0,0,0.1,0,0.1,0.1c0,0.2-0.1,0.2-0.2,0.2
			c-0.4,0-0.6,0.2-0.6,0.3c0,0,0,0,0,0.1l0.8,2L162.2,2.6z"/>
	</g>
	<g>
		<path class="st3" d="M166.4,9.3c0,0.2,0,0.3,0.7,0.3h0.3v0.3c-0.2,0-1,0-1.2,0c-0.3,0-1.1,0-1.2,0V9.6h0.3c0.7,0,0.7-0.1,0.7-0.3
			V5.7c-0.4,0.2-0.8,0.2-1,0.2V5.6c0.3,0,0.9,0,1.4-0.4c0.2,0,0.2,0,0.2,0.2V9.3z"/>
	</g>
	<g>
		<path class="st3" d="M171.7,10.9c-0.1,0-1-0.6-1.6-1.9c-0.5-1.1-0.7-2.3-0.7-3.1c0-0.8,0.1-1.9,0.6-3c0.6-1.3,1.5-1.9,1.6-1.9
			c0.1,0,0.1,0,0.1,0.1c0,0,0,0-0.1,0.2c-1.2,1.2-1.6,3-1.6,4.7c0,1.5,0.3,3.4,1.6,4.7C171.8,10.7,171.8,10.7,171.7,10.9
			C171.8,10.8,171.8,10.9,171.7,10.9z"/>
	</g>
	<g>
		<path class="st3" d="M173.9,7.5c0.2,0,0.4,0,0.7,0.2c0.2,0.1,0.4,0.1,0.6,0.1c0.3,0,1-0.2,1.2-0.8c0-0.1,0-0.1,0.1-0.1
			c0.1,0,0.1,0,0.1,0.1c0,0.3-0.6,1.5-1.6,1.5c-0.3,0-0.5-0.2-0.6-0.4c-0.2-0.3-0.3-0.4-0.6-0.4c-0.3,0-0.6,0.3-0.8,0.6
			c-0.1,0.1-0.1,0.1-0.2,0.1c0,0-0.1,0-0.1-0.1c0-0.1,0.3-0.6,1-1.3l0.9-0.8c0.2-0.2,1-0.9,1.4-1.3c-0.3,0-0.4,0-0.8-0.1
			c-0.2-0.1-0.4-0.1-0.6-0.1c-0.1,0-0.7,0-0.8,0.5c0,0.1,0,0.1-0.1,0.1c-0.1,0-0.1-0.1-0.1-0.1c0-0.2,0.5-1.1,1.2-1.1
			c0.3,0,0.5,0.2,0.7,0.4c0.1,0.2,0.3,0.3,0.5,0.3c0.2,0,0.4-0.2,0.7-0.6c0-0.1,0.1-0.1,0.1-0.1c0,0,0.1,0,0.1,0.1
			c0,0-0.2,0.5-1.2,1.4c-0.4,0.4-1,0.9-1,0.9c-0.4,0.3-0.6,0.6-1.2,1.1C173.8,7.5,173.9,7.5,173.9,7.5z"/>
	</g>
	<g>
		<path class="st3" d="M179.8,8.9c-0.6,1.3-1.5,1.9-1.6,1.9c-0.1,0-0.1,0-0.1-0.1c0,0,0-0.1,0.1-0.2c1.2-1.3,1.6-3,1.6-4.7
			c0-2.1-0.6-3.7-1.5-4.7c-0.2-0.2-0.2-0.2-0.2-0.2c0-0.1,0-0.1,0.1-0.1c0.1,0,1,0.6,1.6,1.9c0.5,1.1,0.7,2.3,0.7,3.1
			C180.4,6.7,180.3,7.8,179.8,8.9z"/>
	</g>
	<g>
		<path class="st9" d="M6.4,75.5c0.2,0,0.3,0.1,0.3,0.3c0,0,0,0.1-0.1,0.3l-0.4,1.4c-0.1,0.4-0.1,0.5-0.2,0.9
			c-0.1,0.4-0.1,0.5-0.1,0.7c0,0.2,0,0.5,0.3,0.5c0.4,0,0.6-0.6,0.8-1.2c0-0.1,0-0.2,0.1-0.2c0,0,0.1,0,0.1,0.1c0,0-0.1,0.6-0.3,1
			c-0.2,0.3-0.4,0.5-0.7,0.5c-0.5,0-0.8-0.3-0.9-0.7c-0.6,0.7-1.1,0.7-1.3,0.7c-0.8,0-1.3-0.7-1.3-1.6c0-1.5,1.2-2.9,2.4-2.9
			c0.4,0,0.7,0.3,0.9,0.6C6,75.7,6.2,75.5,6.4,75.5z M5.9,76.6c0,0,0-0.1,0-0.2c0-0.1-0.1-0.9-0.8-0.9c-0.4,0-0.8,0.4-1.2,1
			c-0.2,0.5-0.5,1.7-0.5,2.2c0,0.4,0.1,0.9,0.6,0.9c0.3,0,0.7-0.2,1.1-0.7c0.1-0.2,0.1-0.2,0.2-0.4L5.9,76.6z"/>
		<path class="st9" d="M11.8,77.2l5.2,2.5c0.1,0.1,0.2,0.1,0.2,0.2c0,0.1-0.1,0.2-0.2,0.2c0,0,0,0-0.2-0.1l-5.5-2.6
			c-0.1,0-0.2-0.1-0.2-0.2c0-0.1,0.1-0.2,0.2-0.2l5.5-2.6c0.1-0.1,0.1-0.1,0.2-0.1c0.1,0,0.2,0.1,0.2,0.2c0,0.1-0.1,0.2-0.2,0.2
			L11.8,77.2z"/>
	</g>
	<g>
		<path class="st9" d="M23.8,78.9c0,0.4,0,0.5,0.9,0.5h0.3v0.3c-0.3,0-1.2,0-1.6,0c-0.4,0-1.3,0-1.6,0v-0.3h0.3
			c0.9,0,0.9-0.1,0.9-0.5v-5.2C22.6,74,22,74,21.8,74v-0.3c0.3,0,1.2,0,1.8-0.6c0.2,0,0.2,0,0.2,0.3V78.9z"/>
	</g>
	<line class="st11" x1="0" y1="16.5" x2="403.9" y2="16.5"/>
	<g>
		<path class="st3" d="M240.1,6.7c-0.1,0.4-0.2,0.7-0.2,0.9c0,0.3,0.2,0.7,0.5,0.7c0.3,0,1-0.2,1.3-1.3c0-0.1,0-0.1,0.1-0.1
			c0,0,0.1,0,0.1,0.1c0,0.2-0.6,1.5-1.6,1.5c-0.6,0-1-0.4-1.1-0.8c0,0.1-0.4,0.8-1,0.8c-0.4,0-0.9-0.2-0.9-0.7
			c0-0.3,0.2-0.6,0.5-0.6c0.1,0,0.4,0.1,0.4,0.3c0,0.3-0.2,0.5-0.5,0.5c0.2,0.1,0.4,0.1,0.5,0.1c0.4,0,0.8-0.4,0.9-1
			c0.4-1.4,0.5-2.1,0.5-2.4c0-0.6-0.3-0.7-0.5-0.7c-0.3,0-1,0.2-1.3,1.3c0,0.1,0,0.1-0.1,0.1c0,0-0.1,0-0.1-0.1
			c0-0.2,0.6-1.5,1.6-1.5c0.3,0,0.8,0.1,1.1,0.8c0.1-0.2,0.5-0.8,1-0.8c0.3,0,0.9,0.1,0.9,0.7c0,0.4-0.3,0.6-0.5,0.6
			c-0.3,0-0.4-0.2-0.4-0.3c0-0.2,0.2-0.5,0.5-0.5c-0.2-0.1-0.4-0.1-0.5-0.1c-0.7,0-0.9,0.9-1,1.2L240.1,6.7z"/>
	</g>
	<g>
		<path class="st3" d="M246.1,9.8h-2.9c0-0.2,0-0.2,0.1-0.3l1.7-1.7c0.2-0.3,0.7-0.7,0.7-1.3c0-0.6-0.4-1.1-1.1-1.1
			c-0.3,0-0.8,0.2-1,0.6c0.4,0,0.4,0.2,0.4,0.4c0,0.3-0.2,0.4-0.4,0.4c-0.1,0-0.4,0-0.4-0.4c0-0.6,0.6-1.2,1.5-1.2
			c0.9,0,1.6,0.5,1.6,1.4c0,0.7-0.5,1.1-1,1.5c-0.4,0.3-0.7,0.5-1.4,1.2h1.3c0.1,0,0.6,0,0.7,0c0.1-0.1,0.2-0.5,0.2-0.6h0.2
			L246.1,9.8z"/>
	</g>
	<g>
		<path class="st3" d="M248.5,10.9v-10h1.4v0.4h-1v9.2h1v0.4H248.5z"/>
	</g>
	<g>
		<path class="st3" d="M251.5,5.5c0.1-0.5,0.2-0.6,0.2-0.8c0-0.3-0.1-0.5-0.3-0.5c-0.4,0-0.6,0.5-0.7,1.2c-0.1,0.2-0.1,0.2-0.2,0.2
			c0,0-0.1,0-0.1-0.1c0,0,0.1-0.6,0.3-1c0.1-0.2,0.3-0.6,0.7-0.6c0.5,0,0.9,0.3,0.9,0.9c0.2-0.2,0.7-0.9,1.6-0.9
			c0.7,0,1.1,0.4,1.1,1.1c0,0.6-0.4,1.7-0.6,2.2c-0.1,0.2-0.2,0.5-0.2,0.7c0,0.2,0.1,0.3,0.2,0.3c0.5,0,0.8-0.6,1-1.2
			c0.1-0.1,0.1-0.2,0.2-0.2c0,0,0.1,0,0.1,0.1c0,0.1-0.4,1.5-1.3,1.5c-0.5,0-0.8-0.3-0.8-0.8c0-0.1,0-0.2,0.1-0.5
			c0.2-0.4,0.6-1.7,0.6-2.3c0-0.3-0.1-0.7-0.5-0.7c-0.9,0-1.5,0.9-1.6,1.2c0,0-0.1,0.3-0.1,0.5c0,0.2-0.1,0.4-0.2,0.7l-0.2,0.9
			c-0.1,0.2-0.2,0.7-0.2,0.7c-0.1,0.2-0.2,0.3-0.4,0.3c-0.1,0-0.3-0.1-0.3-0.3c0-0.1,0.1-0.3,0.1-0.4L251.5,5.5z"/>
	</g>
	<g>
		<path class="st3" d="M257.7,10.9h-1.4v-0.4h1V1.3h-1V0.9h1.4V10.9z"/>
	</g>
	<path class="st11" d="M290.5,2.3v240.9 M403.9,2.3v240.9"/>
	<g>
		<path class="st3" d="M320.3,6.2l0.1,0.8c0.1,0.9,0.2,1.4,0.7,1.4c0.2,0,0.6-0.2,0.7-0.9c0-0.1,0-0.2,0.1-0.2
			c0.1,0,0.1,0.1,0.1,0.2c0,0.3-0.2,1.1-0.9,1.1c-0.3,0-0.8-0.1-1.3-0.4c-0.4-0.4-0.4-0.8-0.4-1.4c0-0.7,0-1-0.4-1.3
			c-0.3-0.3-0.8-0.3-0.9-0.3H317v2.5c0,0.4,0,0.5,0.8,0.5h0.2v0.3c-0.4,0-1.1,0-1.5,0s-1.1,0-1.5,0V8.1h0.2c0.8,0,0.8-0.1,0.8-0.5
			V2.4c0-0.4,0-0.5-0.8-0.5h-0.2V1.6h3.1c1.5,0,2.6,0.8,2.6,1.8c0,0.8-0.8,1.4-1.7,1.6C319.6,5.2,320.1,5.5,320.3,6.2z M318.1,4.9
			c1.5,0,1.7-0.8,1.7-1.5c0-1.4-1.1-1.5-2-1.5c-0.2,0-0.5,0-0.6,0c-0.2,0-0.2,0.1-0.2,0.4v2.6H318.1z"/>
		<path class="st3" d="M325.7,8.6c-1.8,0-3.3-1.6-3.3-3.6c0-2.1,1.5-3.6,3.3-3.6c1.8,0,3.3,1.6,3.3,3.6C329,7,327.5,8.6,325.7,8.6z
			 M328,4.9c0-2.6-1.4-3.3-2.3-3.3c-0.8,0-2.3,0.7-2.3,3.3c0,2.6,1.3,3.5,2.3,3.5C326.6,8.3,328,7.5,328,4.9z"/>
	</g>
	<g>
		<path class="st3" d="M333.6,1.4c1,0,1.5,0.5,1.8,0.9l0.5-0.7c0.1-0.1,0.1-0.1,0.2-0.1c0.1,0,0.1,0.1,0.1,0.2V4
			c0,0.2,0,0.2-0.2,0.2c-0.1,0-0.1,0-0.2-0.2c-0.2-1.5-1.1-2.4-2.2-2.4c-0.6,0-2.6,0.3-2.6,3.3c0,3,2,3.3,2.6,3.3
			c1.1,0,2.2-0.8,2.2-2.2c0-0.1,0-0.2,0.1-0.2c0.1,0,0.1,0.1,0.1,0.2c0,1.2-1,2.5-2.6,2.5c-1.9,0-3.5-1.6-3.5-3.6
			C330.1,2.9,331.8,1.4,333.6,1.4z"/>
	</g>
	<g>
		<path class="st3" d="M346.5,2.6c0.1-0.1,0.2-0.2,0.2-0.4c0-0.3-0.3-0.3-0.4-0.3c-0.1,0-0.1,0-0.1-0.1c0-0.2,0.1-0.2,0.2-0.2
			c0.4,0,0.7,0,1.1,0c0.3,0,0.6,0,0.9,0c0.1,0,0.1,0.1,0.1,0.1c0,0.2-0.1,0.2-0.2,0.2c-0.6,0-1,0.3-1.3,0.5c-0.3,0.3-1.4,1.5-2,2.2
			c0.2,0.6,0.9,2.2,1.3,3.1c0.2,0.4,0.2,0.4,0.9,0.4c0.1,0,0.2,0,0.2,0.1c0,0.2-0.1,0.2-0.2,0.2c-0.2,0-0.9,0-1.1,0
			c-0.3,0-1,0-1.3,0c0,0-0.1,0-0.1-0.1c0-0.2,0.1-0.2,0.2-0.2c0.4,0,0.6-0.2,0.6-0.3c0,0,0,0,0-0.1l-1-2.4l-0.9,1l-1,1.1
			c-0.1,0.1-0.3,0.3-0.3,0.4c0,0.3,0.3,0.3,0.4,0.3c0,0,0.1,0,0.1,0.1c0,0.2-0.1,0.2-0.2,0.2c-0.4,0-0.7,0-1.1,0c-0.3,0-0.6,0-0.9,0
			c-0.1,0-0.1-0.1-0.1-0.1c0-0.2,0.1-0.2,0.2-0.2c0.5,0,1-0.2,1.5-0.7l0.1-0.1l2.1-2.3L343,2.2c-0.1-0.2-0.1-0.3-0.7-0.3
			c-0.1,0-0.2,0-0.2-0.1c0-0.2,0.1-0.2,0.2-0.2c0.2,0,0.9,0,1.1,0c0.4,0,0.8,0,1.3,0c0,0,0.1,0,0.1,0.1c0,0.2-0.1,0.2-0.2,0.2
			c-0.4,0-0.6,0.2-0.6,0.3c0,0,0,0,0,0.1l0.8,2L346.5,2.6z"/>
	</g>
	<g>
		<path class="st3" d="M351.6,9.8h-2.9c0-0.2,0-0.2,0.1-0.3l1.7-1.7c0.2-0.3,0.7-0.7,0.7-1.3c0-0.6-0.4-1.1-1.1-1.1
			c-0.3,0-0.8,0.2-1,0.6c0.4,0,0.4,0.2,0.4,0.4c0,0.3-0.2,0.4-0.4,0.4c-0.1,0-0.4,0-0.4-0.4c0-0.6,0.6-1.2,1.5-1.2
			c0.9,0,1.6,0.5,1.6,1.4c0,0.7-0.5,1.1-1,1.5c-0.4,0.3-0.7,0.5-1.4,1.2h1.3c0.1,0,0.6,0,0.7,0c0.1-0.1,0.2-0.5,0.2-0.6h0.2
			L351.6,9.8z"/>
	</g>
	<g>
		<path class="st3" d="M356,10.9c-0.1,0-1-0.6-1.6-1.9c-0.5-1.1-0.7-2.3-0.7-3.1c0-0.8,0.1-1.9,0.6-3c0.6-1.3,1.5-1.9,1.6-1.9
			c0.1,0,0.1,0,0.1,0.1c0,0,0,0-0.1,0.2c-1.2,1.2-1.6,3-1.6,4.7c0,1.5,0.3,3.4,1.6,4.7C356.1,10.7,356.1,10.7,356,10.9
			C356.1,10.8,356,10.9,356,10.9z"/>
	</g>
	<g>
		<path class="st3" d="M358.2,7.5c0.2,0,0.4,0,0.7,0.2c0.2,0.1,0.4,0.1,0.6,0.1c0.3,0,1-0.2,1.2-0.8c0-0.1,0-0.1,0.1-0.1
			c0.1,0,0.1,0,0.1,0.1c0,0.3-0.6,1.5-1.6,1.5c-0.3,0-0.5-0.2-0.6-0.4c-0.2-0.3-0.3-0.4-0.6-0.4c-0.3,0-0.6,0.3-0.8,0.6
			c-0.1,0.1-0.1,0.1-0.2,0.1c0,0-0.1,0-0.1-0.1c0-0.1,0.3-0.6,1-1.3l0.9-0.8c0.2-0.2,1-0.9,1.4-1.3c-0.3,0-0.4,0-0.8-0.1
			c-0.2-0.1-0.4-0.1-0.6-0.1c-0.1,0-0.7,0-0.8,0.5c0,0.1,0,0.1-0.1,0.1s-0.1-0.1-0.1-0.1c0-0.2,0.5-1.1,1.2-1.1
			c0.3,0,0.5,0.2,0.7,0.4c0.1,0.2,0.3,0.3,0.5,0.3s0.4-0.2,0.7-0.6c0-0.1,0.1-0.1,0.1-0.1c0,0,0.1,0,0.1,0.1c0,0-0.2,0.5-1.2,1.4
			c-0.4,0.4-1,0.9-1,0.9c-0.4,0.3-0.6,0.6-1.2,1.1C358,7.5,358.2,7.5,358.2,7.5z"/>
	</g>
	<g>
		<path class="st3" d="M364,8.9c-0.6,1.3-1.5,1.9-1.6,1.9c-0.1,0-0.1,0-0.1-0.1c0,0,0-0.1,0.1-0.2c1.2-1.3,1.6-3,1.6-4.7
			c0-2.1-0.6-3.7-1.5-4.7c-0.2-0.2-0.2-0.2-0.2-0.2c0-0.1,0-0.1,0.1-0.1c0.1,0,1,0.6,1.6,1.9c0.5,1.1,0.7,2.3,0.7,3.1
			C364.6,6.7,364.5,7.8,364,8.9z"/>
	</g>
	<g>
		<path class="st3" d="M55.8,6.7c-0.1,0.4-0.2,0.7-0.2,0.9c0,0.3,0.2,0.7,0.5,0.7c0.3,0,1-0.2,1.3-1.3c0-0.1,0-0.1,0.1-0.1
			c0,0,0.1,0,0.1,0.1c0,0.2-0.6,1.5-1.6,1.5c-0.6,0-1-0.4-1.1-0.8c0,0.1-0.4,0.8-1,0.8c-0.4,0-0.9-0.2-0.9-0.7
			c0-0.3,0.2-0.6,0.5-0.6c0.1,0,0.4,0.1,0.4,0.3c0,0.3-0.2,0.5-0.5,0.5c0.2,0.1,0.4,0.1,0.5,0.1c0.4,0,0.8-0.4,0.9-1
			c0.4-1.4,0.5-2.1,0.5-2.4c0-0.6-0.3-0.7-0.5-0.7c-0.3,0-1,0.2-1.3,1.3c0,0.1-0.1,0.1-0.1,0.1c0,0-0.1,0-0.1-0.1
			C53.5,5.3,54,4,55.1,4c0.3,0,0.8,0.1,1.1,0.8c0.1-0.2,0.5-0.8,1-0.8c0.3,0,0.9,0.1,0.9,0.7c0,0.4-0.3,0.6-0.5,0.6
			c-0.3,0-0.4-0.2-0.4-0.3c0-0.2,0.2-0.5,0.5-0.5c-0.2-0.1-0.4-0.1-0.5-0.1c-0.7,0-0.9,0.9-1,1.2L55.8,6.7z"/>
	</g>
	<g>
		<path class="st3" d="M60.8,9.3c0,0.2,0,0.3,0.7,0.3h0.3v0.3c-0.2,0-1,0-1.2,0c-0.3,0-1.1,0-1.2,0V9.6h0.3c0.7,0,0.7-0.1,0.7-0.3
			V5.7c-0.4,0.2-0.8,0.2-1,0.2V5.6c0.3,0,0.9,0,1.4-0.4c0.2,0,0.2,0,0.2,0.2V9.3z"/>
	</g>
	<g>
		<path class="st3" d="M64.2,10.9v-10h1.4v0.4h-1v9.2h1v0.4H64.2z"/>
	</g>
	<g>
		<path class="st3" d="M67.3,5.5c0.1-0.5,0.2-0.6,0.2-0.8c0-0.3-0.1-0.5-0.3-0.5c-0.4,0-0.6,0.5-0.7,1.2c-0.1,0.2-0.1,0.2-0.2,0.2
			c0,0-0.1,0-0.1-0.1c0,0,0.1-0.6,0.3-1C66.5,4.4,66.7,4,67.2,4c0.5,0,0.9,0.3,0.9,0.9C68.2,4.6,68.7,4,69.6,4
			c0.7,0,1.1,0.4,1.1,1.1c0,0.6-0.4,1.7-0.6,2.2C70.1,7.5,70,7.7,70,7.9c0,0.2,0.1,0.3,0.2,0.3c0.5,0,0.8-0.6,1-1.2
			c0-0.1,0-0.2,0.1-0.2c0,0,0.1,0,0.1,0.1c0,0.1-0.4,1.5-1.3,1.5c-0.5,0-0.8-0.3-0.8-0.8c0-0.1,0-0.2,0.1-0.5
			c0.2-0.4,0.6-1.7,0.6-2.3c0-0.3-0.1-0.7-0.5-0.7c-0.9,0-1.5,0.9-1.6,1.2c0,0-0.1,0.3-0.1,0.5c0,0.2-0.1,0.4-0.2,0.7l-0.2,0.9
			c-0.1,0.2-0.2,0.7-0.2,0.7c-0.1,0.2-0.2,0.3-0.4,0.3c-0.1,0-0.3-0.1-0.3-0.3c0-0.1,0.1-0.3,0.1-0.4L67.3,5.5z"/>
	</g>
	<g>
		<path class="st3" d="M73.4,10.9H72v-0.4h1V1.3h-1V0.9h1.4V10.9z"/>
	</g>
	<path class="st11" d="M35.4,2.3v240.9 M106.3,2.3v240.9 M219.7,2.3v240.9"/>
	<g>
		<path class="st9" d="M6.4,188.9c0.2,0,0.3,0.1,0.3,0.3c0,0,0,0.1-0.1,0.3l-0.4,1.4c-0.1,0.4-0.1,0.5-0.2,0.9
			c-0.1,0.4-0.1,0.5-0.1,0.7c0,0.2,0,0.5,0.3,0.5c0.4,0,0.6-0.6,0.8-1.2c0-0.1,0-0.2,0.1-0.2c0,0,0.1,0,0.1,0.1c0,0-0.1,0.6-0.3,1
			c-0.2,0.3-0.4,0.5-0.7,0.5c-0.5,0-0.8-0.3-0.9-0.7c-0.6,0.7-1.1,0.7-1.3,0.7c-0.8,0-1.3-0.7-1.3-1.6c0-1.5,1.2-2.9,2.4-2.9
			c0.4,0,0.7,0.3,0.9,0.6C6,189.1,6.2,188.9,6.4,188.9z M5.9,190c0,0,0-0.1,0-0.2c0-0.1-0.1-0.9-0.8-0.9c-0.4,0-0.8,0.4-1.2,1
			c-0.2,0.5-0.5,1.7-0.5,2.2c0,0.4,0.1,0.9,0.6,0.9c0.3,0,0.7-0.2,1.1-0.7c0.1-0.2,0.1-0.2,0.2-0.4L5.9,190z"/>
		<path class="st9" d="M11.5,193.4c-0.1,0.1-0.1,0.1-0.2,0.1c-0.1,0-0.2-0.1-0.2-0.2c0-0.1,0-0.1,0.2-0.2l5.2-2.5l-5.2-2.5
			c-0.1-0.1-0.2-0.1-0.2-0.2c0-0.1,0.1-0.2,0.2-0.2c0,0,0,0,0.2,0.1l5.5,2.6c0.1,0,0.2,0.1,0.2,0.2c0,0.1-0.1,0.2-0.2,0.2
			L11.5,193.4z"/>
	</g>
	<g>
		<path class="st9" d="M23.8,192.3c0,0.4,0,0.5,0.9,0.5h0.3v0.3c-0.3,0-1.2,0-1.6,0c-0.4,0-1.3,0-1.6,0v-0.3h0.3
			c0.9,0,0.9-0.1,0.9-0.5v-5.2c-0.5,0.3-1.1,0.3-1.3,0.3v-0.3c0.3,0,1.2,0,1.8-0.6c0.2,0,0.2,0,0.2,0.3V192.3z"/>
	</g>
	<path class="st11" d="M216.1,2.3v240.9 M31.9,2.3v240.9 M0,243.3h403.9"/>
</g>
</svg>
