<?xml version="1.0" encoding="utf-8"?>
<!-- Generator: Adobe Illustrator 22.1.0, SVG Export Plug-In . SVG Version: 6.00 Build 0)  -->
<svg version="1.1" id="Layer_1" xmlns="http://www.w3.org/2000/svg" xmlns:xlink="http://www.w3.org/1999/xlink" x="0px" y="0px"
	 viewBox="0 0 391.2 130.6" style="enable-background:new 0 0 391.2 130.6;" xml:space="preserve">
<style type="text/css">
	.st0{fill:none;stroke:#000000;stroke-width:1.4173;stroke-miterlimit:10;}
	.st1{fill:#1D1D1B;}
	.st2{fill:none;stroke:#000000;stroke-width:1.7008;stroke-miterlimit:10;}
	.st3{fill:none;stroke:#000000;stroke-width:0.8504;stroke-miterlimit:10;}
	.st4{fill:none;stroke:#FA0000;stroke-width:0.4252;stroke-miterlimit:10;}
	.st5{fill:#0000FF;}
	.st6{fill:none;stroke:#0000F7;stroke-width:0.8504;stroke-miterlimit:10;}
	.st7{fill:none;stroke:#FF0000;stroke-width:0.8504;stroke-miterlimit:10;}
	.st8{fill:none;stroke:#000000;stroke-width:0.8504;stroke-linecap:round;stroke-miterlimit:10;stroke-dasharray:0,3.6589;}
	.st9{fill:none;stroke:#000000;stroke-width:0.8504;stroke-linecap:round;stroke-miterlimit:10;stroke-dasharray:0,3.6588;}
</style>
<g>
	<line class="st0" x1="0.7" y1="129.9" x2="390.5" y2="129.9"/>
	<g>
		<path class="st1" d="M115.5,6.2l0.1,0.8c0.1,0.9,0.2,1.4,0.7,1.4c0.2,0,0.6-0.2,0.7-0.9c0-0.1,0-0.2,0.1-0.2
			c0.1,0,0.1,0.1,0.1,0.2c0,0.3-0.2,1.1-0.9,1.1c-0.3,0-0.8-0.1-1.3-0.4c-0.4-0.4-0.4-0.8-0.4-1.4c0-0.7,0-1-0.4-1.3
			c-0.3-0.3-0.8-0.3-0.9-0.3h-1.1v2.5c0,0.4,0,0.5,0.8,0.5h0.2v0.3c-0.4,0-1.1,0-1.5,0c-0.4,0-1.1,0-1.5,0V8.1h0.2
			c0.8,0,0.8-0.1,0.8-0.5V2.4c0-0.4,0-0.5-0.8-0.5h-0.2V1.6h3.1c1.5,0,2.6,0.8,2.6,1.8c0,0.8-0.8,1.4-1.7,1.6
			C114.8,5.2,115.3,5.5,115.5,6.2z M113.3,4.9c1.5,0,1.7-0.8,1.7-1.5c0-1.4-1.1-1.5-2-1.5c-0.2,0-0.5,0-0.6,0
			c-0.2,0-0.2,0.1-0.2,0.4v2.6H113.3z"/>
		<path class="st1" d="M120.9,8.6c-1.8,0-3.3-1.6-3.3-3.6c0-2.1,1.5-3.6,3.3-3.6c1.8,0,3.3,1.6,3.3,3.6C124.2,7,122.7,8.6,120.9,8.6
			z M123.1,4.9c0-2.6-1.4-3.3-2.3-3.3c-0.8,0-2.3,0.7-2.3,3.3c0,2.6,1.3,3.5,2.3,3.5C121.8,8.3,123.1,7.5,123.1,4.9z"/>
	</g>
	<g>
		<path class="st1" d="M128.8,1.4c1,0,1.5,0.5,1.8,0.9l0.5-0.7c0.1-0.1,0.1-0.1,0.2-0.1c0.1,0,0.1,0.1,0.1,0.2V4
			c0,0.2,0,0.2-0.2,0.2c-0.1,0-0.1,0-0.2-0.2c-0.2-1.5-1.1-2.4-2.2-2.4c-0.6,0-2.6,0.3-2.6,3.3c0,3,2,3.3,2.6,3.3
			c1.1,0,2.2-0.8,2.2-2.2c0-0.1,0-0.2,0.1-0.2c0.1,0,0.1,0.1,0.1,0.2c0,1.2-1,2.5-2.6,2.5c-1.9,0-3.5-1.6-3.5-3.6
			C125.3,2.9,127,1.4,128.8,1.4z"/>
	</g>
	<g>
		<path class="st1" d="M141.7,2.6c0.1-0.1,0.2-0.2,0.2-0.4c0-0.3-0.3-0.3-0.4-0.3c-0.1,0-0.1,0-0.1-0.1c0-0.2,0.1-0.2,0.2-0.2
			c0.4,0,0.7,0,1.1,0c0.3,0,0.6,0,0.9,0c0.1,0,0.1,0.1,0.1,0.1c0,0.2-0.1,0.2-0.2,0.2c-0.6,0-1,0.3-1.3,0.5c-0.3,0.3-1.4,1.5-2,2.2
			c0.2,0.6,0.9,2.2,1.3,3.1c0.2,0.4,0.2,0.4,0.9,0.4c0.1,0,0.2,0,0.2,0.1c0,0.2-0.1,0.2-0.2,0.2c-0.2,0-0.9,0-1.1,0
			c-0.3,0-1,0-1.3,0c0,0-0.1,0-0.1-0.1c0-0.2,0.1-0.2,0.2-0.2c0.4,0,0.6-0.2,0.6-0.3c0,0,0,0,0-0.1l-1-2.4l-0.9,1l-1,1.1
			c-0.1,0.1-0.3,0.3-0.3,0.4c0,0.3,0.3,0.3,0.4,0.3c0,0,0.1,0,0.1,0.1c0,0.2-0.1,0.2-0.2,0.2c-0.4,0-0.7,0-1.1,0c-0.3,0-0.6,0-0.9,0
			c-0.1,0-0.1-0.1-0.1-0.1c0-0.2,0.1-0.2,0.2-0.2c0.5,0,1-0.2,1.5-0.7l0.1-0.1l2.1-2.3l-1.2-2.8c-0.1-0.2-0.1-0.3-0.7-0.3
			c-0.1,0-0.2,0-0.2-0.1c0-0.2,0.1-0.2,0.2-0.2c0.2,0,0.9,0,1.1,0c0.4,0,0.8,0,1.3,0c0,0,0.1,0,0.1,0.1c0,0.2-0.1,0.2-0.2,0.2
			c-0.4,0-0.6,0.2-0.6,0.3c0,0,0,0,0,0.1l0.8,2L141.7,2.6z"/>
	</g>
	<g>
		<path class="st1" d="M145,7.5c-0.1,0-0.2,0-0.2-0.1c0-0.1,0.1-0.1,0.1-0.1c0,0,0,0,0.2,0c0.3,0,0.5,0,0.8-0.3
			c0.2-0.2,0.3-0.5,0.3-0.8c0-0.6-0.4-0.8-0.8-0.8c-0.3,0-0.7,0.1-1,0.4c0.2,0,0.4,0.2,0.4,0.4c0,0.2-0.1,0.4-0.4,0.4
			c-0.2,0-0.4-0.1-0.4-0.4c0-0.6,0.6-0.9,1.4-0.9s1.4,0.4,1.4,1c0,0.4-0.3,0.9-1,1.2c0.8,0.2,1.2,0.7,1.2,1.2c0,0.7-0.7,1.3-1.6,1.3
			c-0.8,0-1.6-0.4-1.6-1.1c0-0.3,0.2-0.4,0.4-0.4c0.2,0,0.4,0.2,0.4,0.4c0,0.1-0.1,0.4-0.4,0.4c0.3,0.4,0.9,0.5,1.2,0.5
			c0.4,0,0.9-0.3,0.9-1.1c0-0.7-0.4-1.1-0.9-1.1H145z"/>
	</g>
	<g>
		<path class="st1" d="M151.2,10.9c-0.1,0-1-0.6-1.6-1.9c-0.5-1.1-0.7-2.3-0.7-3.1c0-0.8,0.1-1.9,0.6-3c0.6-1.3,1.5-1.9,1.6-1.9
			c0.1,0,0.1,0,0.1,0.1c0,0,0,0-0.1,0.2c-1.2,1.2-1.6,3-1.6,4.7c0,1.5,0.3,3.4,1.6,4.7C151.3,10.7,151.3,10.7,151.2,10.9
			C151.3,10.8,151.2,10.9,151.2,10.9z"/>
	</g>
	<g>
		<path class="st1" d="M153.4,7.5c0.2,0,0.4,0,0.7,0.2c0.2,0.1,0.4,0.1,0.6,0.1c0.3,0,1-0.2,1.2-0.8c0-0.1,0-0.1,0.1-0.1
			c0.1,0,0.1,0,0.1,0.1c0,0.3-0.6,1.5-1.6,1.5c-0.3,0-0.5-0.2-0.6-0.4c-0.2-0.3-0.3-0.4-0.6-0.4c-0.3,0-0.6,0.3-0.8,0.6
			c-0.1,0.1-0.1,0.1-0.2,0.1c0,0-0.1,0-0.1-0.1c0-0.1,0.3-0.6,1-1.3l0.9-0.8c0.2-0.2,1-0.9,1.4-1.3c-0.3,0-0.4,0-0.8-0.1
			c-0.2-0.1-0.4-0.1-0.6-0.1c-0.1,0-0.7,0-0.8,0.5c0,0.1,0,0.1-0.1,0.1c-0.1,0-0.1-0.1-0.1-0.1c0-0.2,0.5-1.1,1.2-1.1
			c0.3,0,0.5,0.2,0.7,0.4c0.1,0.2,0.3,0.3,0.5,0.3c0.2,0,0.4-0.2,0.7-0.6c0-0.1,0.1-0.1,0.1-0.1c0,0,0.1,0,0.1,0.1
			c0,0-0.2,0.5-1.2,1.4c-0.4,0.4-1,0.9-1,0.9c-0.4,0.3-0.6,0.6-1.2,1.1C153.2,7.5,153.4,7.5,153.4,7.5z"/>
	</g>
	<g>
		<path class="st1" d="M159.2,8.9c-0.6,1.3-1.5,1.9-1.6,1.9c-0.1,0-0.1,0-0.1-0.1c0,0,0-0.1,0.1-0.2c1.2-1.3,1.6-3,1.6-4.7
			c0-2.1-0.6-3.7-1.5-4.7c-0.2-0.2-0.2-0.2-0.2-0.2c0-0.1,0-0.1,0.1-0.1c0.1,0,1,0.6,1.6,1.9c0.5,1.1,0.7,2.3,0.7,3.1
			C159.8,6.7,159.7,7.8,159.2,8.9z"/>
	</g>
	<line class="st0" x1="0.7" y1="16.5" x2="390.5" y2="16.5"/>
	<g>
		<path class="st1" d="M244.3,6.7c-0.1,0.4-0.2,0.7-0.2,0.9c0,0.3,0.2,0.7,0.5,0.7c0.3,0,1-0.2,1.3-1.3c0-0.1,0-0.1,0.1-0.1
			c0,0,0.1,0,0.1,0.1c0,0.2-0.6,1.5-1.6,1.5c-0.6,0-1-0.4-1.1-0.8c0,0.1-0.4,0.8-1,0.8c-0.4,0-0.9-0.2-0.9-0.7
			c0-0.3,0.2-0.6,0.5-0.6c0.1,0,0.4,0.1,0.4,0.3c0,0.3-0.2,0.5-0.5,0.5c0.2,0.1,0.4,0.1,0.5,0.1c0.4,0,0.8-0.4,0.9-1
			c0.4-1.4,0.5-2.1,0.5-2.4c0-0.6-0.3-0.7-0.5-0.7c-0.3,0-1,0.2-1.3,1.3c0,0.1,0,0.1-0.1,0.1c0,0-0.1,0-0.1-0.1
			c0-0.2,0.6-1.5,1.6-1.5c0.3,0,0.8,0.1,1.1,0.8c0.1-0.2,0.5-0.8,1-0.8c0.3,0,0.9,0.1,0.9,0.7c0,0.4-0.3,0.6-0.5,0.6
			c-0.3,0-0.4-0.2-0.4-0.3c0-0.2,0.2-0.5,0.5-0.5c-0.2-0.1-0.4-0.1-0.5-0.1c-0.7,0-0.9,0.9-1,1.2L244.3,6.7z"/>
	</g>
	<g>
		<path class="st1" d="M249.9,8.7v0.6c0,0.2,0,0.3,0.6,0.3h0.2v0.3c-0.3,0-0.8,0-1.1,0c-0.3,0-0.7,0-1,0V9.6h0.2
			c0.6,0,0.6-0.1,0.6-0.3V8.7h-2.1V8.4l2.3-3.2c0.1-0.1,0.1-0.1,0.2-0.1c0.2,0,0.2,0,0.2,0.2v3.1h0.8v0.3H249.9z M247.5,8.4h1.8V5.9
			L247.5,8.4z"/>
	</g>
	<g>
		<path class="st1" d="M252.7,10.9v-10h1.4v0.4h-1v9.2h1v0.4H252.7z"/>
	</g>
	<g>
		<path class="st1" d="M255.8,5.5c0.1-0.5,0.2-0.6,0.2-0.8c0-0.3-0.1-0.5-0.3-0.5c-0.4,0-0.6,0.5-0.7,1.2c-0.1,0.2-0.1,0.2-0.2,0.2
			c0,0-0.1,0-0.1-0.1c0,0,0.1-0.6,0.3-1c0.1-0.2,0.3-0.6,0.7-0.6c0.5,0,0.9,0.3,0.9,0.9c0.2-0.2,0.7-0.9,1.6-0.9
			c0.7,0,1.1,0.4,1.1,1.1c0,0.6-0.4,1.7-0.6,2.2c-0.1,0.2-0.2,0.5-0.2,0.7c0,0.2,0.1,0.3,0.2,0.3c0.5,0,0.8-0.6,1-1.2
			c0.1-0.1,0.1-0.2,0.2-0.2c0,0,0.1,0,0.1,0.1c0,0.1-0.4,1.5-1.3,1.5c-0.5,0-0.8-0.3-0.8-0.8c0-0.1,0-0.2,0.1-0.5
			c0.2-0.4,0.6-1.7,0.6-2.3c0-0.3-0.1-0.7-0.5-0.7c-0.9,0-1.5,0.9-1.6,1.2c0,0-0.1,0.3-0.1,0.5c0,0.2-0.1,0.4-0.2,0.7L256,7.5
			c-0.1,0.2-0.2,0.7-0.2,0.7c-0.1,0.2-0.2,0.3-0.4,0.3c-0.1,0-0.3-0.1-0.3-0.3c0-0.1,0.1-0.3,0.1-0.4L255.8,5.5z"/>
	</g>
	<g>
		<path class="st1" d="M261.9,10.9h-1.4v-0.4h1V1.3h-1V0.9h1.4V10.9z"/>
	</g>
	<path class="st0" d="M291.3,2.3v127.6 M390.5,2.3v127.6"/>
	<g>
		<path class="st1" d="M321,6.2l0.1,0.8c0.1,0.9,0.2,1.4,0.7,1.4c0.2,0,0.6-0.2,0.7-0.9c0-0.1,0-0.2,0.1-0.2c0.1,0,0.1,0.1,0.1,0.2
			c0,0.3-0.2,1.1-0.9,1.1c-0.3,0-0.8-0.1-1.3-0.4c-0.4-0.4-0.4-0.8-0.4-1.4c0-0.7,0-1-0.4-1.3c-0.3-0.3-0.8-0.3-0.9-0.3h-1.1v2.5
			c0,0.4,0,0.5,0.8,0.5h0.2v0.3c-0.4,0-1.1,0-1.5,0s-1.1,0-1.5,0V8.1h0.2c0.8,0,0.8-0.1,0.8-0.5V2.4c0-0.4,0-0.5-0.8-0.5h-0.2V1.6
			h3.1c1.5,0,2.6,0.8,2.6,1.8c0,0.8-0.8,1.4-1.7,1.6C320.3,5.2,320.8,5.5,321,6.2z M318.8,4.9c1.5,0,1.7-0.8,1.7-1.5
			c0-1.4-1.1-1.5-2-1.5c-0.2,0-0.5,0-0.6,0c-0.2,0-0.2,0.1-0.2,0.4v2.6H318.8z"/>
		<path class="st1" d="M326.4,8.6c-1.8,0-3.3-1.6-3.3-3.6c0-2.1,1.5-3.6,3.3-3.6c1.8,0,3.3,1.6,3.3,3.6C329.7,7,328.2,8.6,326.4,8.6
			z M328.7,4.9c0-2.6-1.4-3.3-2.3-3.3c-0.8,0-2.3,0.7-2.3,3.3c0,2.6,1.3,3.5,2.3,3.5C327.3,8.3,328.7,7.5,328.7,4.9z"/>
	</g>
	<g>
		<path class="st1" d="M334.3,1.4c1,0,1.5,0.5,1.8,0.9l0.5-0.7c0.1-0.1,0.1-0.1,0.2-0.1c0.1,0,0.1,0.1,0.1,0.2V4
			c0,0.2,0,0.2-0.2,0.2c-0.1,0-0.1,0-0.2-0.2c-0.2-1.5-1.1-2.4-2.2-2.4c-0.6,0-2.6,0.3-2.6,3.3c0,3,2,3.3,2.6,3.3
			c1.1,0,2.2-0.8,2.2-2.2c0-0.1,0-0.2,0.1-0.2c0.1,0,0.1,0.1,0.1,0.2c0,1.2-1,2.5-2.6,2.5c-1.9,0-3.5-1.6-3.5-3.6
			C330.9,2.9,332.5,1.4,334.3,1.4z"/>
	</g>
	<g>
		<path class="st1" d="M347.2,2.6c0.1-0.1,0.2-0.2,0.2-0.4c0-0.3-0.3-0.3-0.4-0.3c-0.1,0-0.1,0-0.1-0.1c0-0.2,0.1-0.2,0.2-0.2
			c0.4,0,0.7,0,1.1,0c0.3,0,0.6,0,0.9,0c0.1,0,0.1,0.1,0.1,0.1c0,0.2-0.1,0.2-0.2,0.2c-0.6,0-1,0.3-1.3,0.5c-0.3,0.3-1.4,1.5-2,2.2
			c0.2,0.6,0.9,2.2,1.3,3.1c0.2,0.4,0.2,0.4,0.9,0.4c0.1,0,0.2,0,0.2,0.1c0,0.2-0.1,0.2-0.2,0.2c-0.2,0-0.9,0-1.1,0
			c-0.3,0-1,0-1.3,0c0,0-0.1,0-0.1-0.1c0-0.2,0.1-0.2,0.2-0.2c0.4,0,0.6-0.2,0.6-0.3c0,0,0,0,0-0.1l-1-2.4l-0.9,1l-1,1.1
			c-0.1,0.1-0.3,0.3-0.3,0.4c0,0.3,0.3,0.3,0.4,0.3c0,0,0.1,0,0.1,0.1c0,0.2-0.1,0.2-0.2,0.2c-0.4,0-0.7,0-1.1,0c-0.3,0-0.6,0-0.9,0
			c-0.1,0-0.1-0.1-0.1-0.1c0-0.2,0.1-0.2,0.2-0.2c0.5,0,1-0.2,1.5-0.7l0.1-0.1l2.1-2.3l-1.2-2.8c-0.1-0.2-0.1-0.3-0.7-0.3
			c-0.1,0-0.2,0-0.2-0.1c0-0.2,0.1-0.2,0.2-0.2c0.2,0,0.9,0,1.1,0c0.4,0,0.8,0,1.3,0c0,0,0.1,0,0.1,0.1c0,0.2-0.1,0.2-0.2,0.2
			c-0.4,0-0.6,0.2-0.6,0.3c0,0,0,0,0,0.1l0.8,2L347.2,2.6z"/>
	</g>
	<g>
		<path class="st1" d="M351.9,8.7v0.6c0,0.2,0,0.3,0.6,0.3h0.2v0.3c-0.3,0-0.8,0-1.1,0c-0.3,0-0.7,0-1,0V9.6h0.2
			c0.6,0,0.6-0.1,0.6-0.3V8.7h-2.1V8.4l2.3-3.2c0.1-0.1,0.1-0.1,0.2-0.1c0.2,0,0.2,0,0.2,0.2v3.1h0.8v0.3H351.9z M349.6,8.4h1.8V5.9
			L349.6,8.4z"/>
	</g>
	<g>
		<path class="st1" d="M356.7,10.9c-0.1,0-1-0.6-1.6-1.9c-0.5-1.1-0.7-2.3-0.7-3.1c0-0.8,0.1-1.9,0.6-3c0.6-1.3,1.5-1.9,1.6-1.9
			c0.1,0,0.1,0,0.1,0.1c0,0,0,0-0.1,0.2c-1.2,1.2-1.6,3-1.6,4.7c0,1.5,0.3,3.4,1.6,4.7C356.8,10.7,356.8,10.7,356.7,10.9
			C356.8,10.8,356.7,10.9,356.7,10.9z"/>
	</g>
	<g>
		<path class="st1" d="M358.9,7.5c0.2,0,0.4,0,0.7,0.2c0.2,0.1,0.4,0.1,0.6,0.1c0.3,0,1-0.2,1.2-0.8c0-0.1,0-0.1,0.1-0.1
			c0.1,0,0.1,0,0.1,0.1c0,0.3-0.6,1.5-1.6,1.5c-0.3,0-0.5-0.2-0.6-0.4c-0.2-0.3-0.3-0.4-0.6-0.4c-0.3,0-0.6,0.3-0.8,0.6
			c-0.1,0.1-0.1,0.1-0.2,0.1c0,0-0.1,0-0.1-0.1c0-0.1,0.3-0.6,1-1.3l0.9-0.8c0.2-0.2,1-0.9,1.4-1.3c-0.3,0-0.4,0-0.8-0.1
			c-0.2-0.1-0.4-0.1-0.6-0.1c-0.1,0-0.7,0-0.8,0.5c0,0.1,0,0.1-0.1,0.1s-0.1-0.1-0.1-0.1c0-0.2,0.5-1.1,1.2-1.1
			c0.3,0,0.5,0.2,0.7,0.4c0.1,0.2,0.3,0.3,0.5,0.3s0.4-0.2,0.7-0.6c0-0.1,0.1-0.1,0.1-0.1c0,0,0.1,0,0.1,0.1c0,0-0.2,0.5-1.2,1.4
			c-0.4,0.4-1,0.9-1,0.9c-0.4,0.3-0.6,0.6-1.2,1.1C358.7,7.5,358.9,7.5,358.9,7.5z"/>
	</g>
	<g>
		<path class="st1" d="M364.7,8.9c-0.6,1.3-1.5,1.9-1.6,1.9c-0.1,0-0.1,0-0.1-0.1c0,0,0-0.1,0.1-0.2c1.2-1.3,1.6-3,1.6-4.7
			c0-2.1-0.6-3.7-1.5-4.7C363,1.1,363,1,363,1c0-0.1,0-0.1,0.1-0.1c0.1,0,1,0.6,1.6,1.9c0.5,1.1,0.7,2.3,0.7,3.1
			C365.3,6.7,365.2,7.8,364.7,8.9z"/>
	</g>
	<g>
		<path class="st1" d="M35.3,6.7c-0.1,0.4-0.2,0.7-0.2,0.9c0,0.3,0.2,0.7,0.5,0.7C36,8.3,36.7,8,37,7c0-0.1,0-0.1,0.1-0.1
			c0,0,0.1,0,0.1,0.1c0,0.2-0.6,1.5-1.6,1.5c-0.6,0-1-0.4-1.1-0.8c0,0.1-0.4,0.8-1,0.8c-0.4,0-0.9-0.2-0.9-0.7
			c0-0.3,0.2-0.6,0.5-0.6c0.1,0,0.4,0.1,0.4,0.3c0,0.3-0.2,0.5-0.5,0.5c0.2,0.1,0.4,0.1,0.5,0.1c0.4,0,0.8-0.4,0.9-1
			C34.9,5.8,35,5.2,35,4.9c0-0.6-0.3-0.7-0.5-0.7c-0.3,0-1,0.2-1.3,1.3c0,0.1-0.1,0.1-0.1,0.1c0,0-0.1,0-0.1-0.1
			c0-0.2,0.6-1.5,1.6-1.5c0.3,0,0.8,0.1,1.1,0.8c0.1-0.2,0.5-0.8,1-0.8c0.3,0,0.9,0.1,0.9,0.7c0,0.4-0.3,0.6-0.5,0.6
			c-0.3,0-0.4-0.2-0.4-0.3c0-0.2,0.2-0.5,0.5-0.5c-0.2-0.1-0.4-0.1-0.5-0.1c-0.7,0-0.9,0.9-1,1.2L35.3,6.7z"/>
	</g>
	<g>
		<path class="st1" d="M39.5,7.5c-0.1,0-0.2,0-0.2-0.1c0-0.1,0.1-0.1,0.1-0.1c0,0,0,0,0.2,0c0.3,0,0.5,0,0.8-0.3
			c0.2-0.2,0.3-0.5,0.3-0.8c0-0.6-0.4-0.8-0.8-0.8c-0.3,0-0.7,0.1-1,0.4c0.2,0,0.4,0.2,0.4,0.4c0,0.2-0.1,0.4-0.4,0.4
			c-0.2,0-0.4-0.1-0.4-0.4c0-0.6,0.6-0.9,1.4-0.9s1.4,0.4,1.4,1c0,0.4-0.3,0.9-1,1.2c0.8,0.2,1.2,0.7,1.2,1.2c0,0.7-0.7,1.3-1.6,1.3
			c-0.8,0-1.6-0.4-1.6-1.1c0-0.3,0.2-0.4,0.4-0.4c0.2,0,0.4,0.2,0.4,0.4c0,0.1-0.1,0.4-0.4,0.4c0.3,0.4,0.9,0.5,1.2,0.5
			c0.4,0,0.9-0.3,0.9-1.1c0-0.7-0.4-1.1-0.9-1.1H39.5z"/>
	</g>
	<g>
		<path class="st1" d="M43.7,10.9v-10H45v0.4h-1v9.2h1v0.4H43.7z"/>
	</g>
	<g>
		<path class="st1" d="M46.7,5.5c0.1-0.5,0.2-0.6,0.2-0.8c0-0.3-0.1-0.5-0.3-0.5c-0.4,0-0.6,0.5-0.7,1.2c-0.1,0.2-0.1,0.2-0.2,0.2
			c0,0-0.1,0-0.1-0.1c0,0,0.1-0.6,0.3-1C46,4.4,46.1,4,46.6,4c0.5,0,0.9,0.3,0.9,0.9C47.7,4.6,48.2,4,49.1,4c0.7,0,1.1,0.4,1.1,1.1
			c0,0.6-0.4,1.7-0.6,2.2c-0.1,0.2-0.2,0.5-0.2,0.7c0,0.2,0.1,0.3,0.2,0.3c0.5,0,0.8-0.6,1-1.2c0-0.1,0-0.2,0.1-0.2
			c0,0,0.1,0,0.1,0.1c0,0.1-0.4,1.5-1.3,1.5c-0.5,0-0.8-0.3-0.8-0.8c0-0.1,0-0.2,0.1-0.5c0.2-0.4,0.6-1.7,0.6-2.3
			c0-0.3-0.1-0.7-0.5-0.7c-0.9,0-1.5,0.9-1.6,1.2c0,0-0.1,0.3-0.1,0.5c0,0.2-0.1,0.4-0.2,0.7l-0.2,0.9c-0.1,0.2-0.2,0.7-0.2,0.7
			c-0.1,0.2-0.2,0.3-0.4,0.3c-0.1,0-0.3-0.1-0.3-0.3c0-0.1,0.1-0.3,0.1-0.4L46.7,5.5z"/>
	</g>
	<g>
		<path class="st1" d="M52.9,10.9h-1.4v-0.4h1V1.3h-1V0.9h1.4V10.9z"/>
	</g>
	<path class="st0" d="M199.1,2.3v127.6 M195.6,2.3v127.6 M85.7,2.3v127.6 M0.7,2.3v127.6"/>
	<path class="st2" d="M167.2,80.3L167.2,80.3c0-17.1-13.9-31.1-31.1-31.1s-31.1,13.9-31.1,31.1s13.9,31.1,31.1,31.1
		S167.2,97.4,167.2,80.3L167.2,80.3z"/>
	<polyline points="176.9,82.5 181.4,80.3 176.9,78 178,80.3 	"/>
	<line class="st3" x1="92.8" y1="80.3" x2="178" y2="80.3"/>
	<polyline points="137.7,42.3 135.4,37.8 133.1,42.3 135.4,41.2 	"/>
	<line class="st3" x1="136.2" y1="122.8" x2="135.4" y2="41.2"/>
	<g>
		<path class="st1" d="M148.7,29.8h1.7c1.7,0,2.2-0.7,2.6-2.1c0.1-0.2,0.1-0.2,0.2-0.2c0.1,0,0.1,0.1,0.1,0.1c0,0,0,0.1,0,0.1
			l-0.7,2.2c-0.1,0.2-0.1,0.2-0.3,0.2h-4.3c-0.2,0-0.2,0-0.2-0.1c0,0,0-0.2,0-0.2l5.6-6.2h-1.6c-1.6,0-2.1,0.7-2.5,1.8
			c0,0,0,0.1-0.1,0.1c-0.1,0-0.1-0.1-0.1-0.1c0,0,0-0.1,0-0.1l0.5-1.8c0.1-0.2,0.1-0.2,0.3-0.2h4.2c0.2,0,0.2,0,0.2,0.1
			c0,0.1,0,0.1,0,0.1L148.7,29.8z"/>
	</g>
	<g>
		<path class="st1" d="M154.8,28.3v-0.6h2.6v0.6H154.8z"/>
		<path class="st1" d="M161.1,25.8c1.1,0,2.1,1,2.1,2.3c0,1.3-1,2.3-2.2,2.3c-0.8,0-1.2-0.5-1.2-0.7v0.1v1.7c0,0.4,0.1,0.4,0.8,0.4
			v0.3c-0.3,0-0.9,0-1.1,0c-0.3,0-0.8,0-1.1,0v-0.3c0.7,0,0.8,0,0.8-0.4v-4.7c0-0.4-0.1-0.5-0.8-0.5v-0.3l1.4-0.1v0.7
			C159.9,26.2,160.3,25.8,161.1,25.8z M159.9,29.5c0.3,0.4,0.6,0.6,1,0.6c0.7,0,1.4-0.8,1.4-2c0-1.1-0.6-2-1.3-2
			c-0.5,0-1,0.3-1.3,0.8v2.2C159.7,29.3,159.7,29.3,159.9,29.5z"/>
		<path class="st1" d="M165.3,29.4c0,0.4,0.1,0.4,0.8,0.4v0.3c-0.4,0-0.9,0-1.1,0c-0.2,0-0.8,0-1.1,0v-0.3c0.7,0,0.8,0,0.8-0.4v-5.2
			c0-0.5-0.1-0.6-0.8-0.6v-0.3l1.4-0.1V29.4z"/>
		<path class="st1" d="M168.3,30.3c-0.6,0-1.6-0.2-1.6-1.1c0-0.4,0.2-1,1-1.3c0.6-0.3,1.3-0.3,1.8-0.4v-0.4c0-0.9-0.6-1.3-1.1-1.3
			c-0.3,0-0.8,0.1-1.1,0.5c0.5,0,0.5,0.3,0.5,0.5c0,0.3-0.2,0.5-0.5,0.5c-0.3,0-0.5-0.2-0.5-0.5c0-0.7,0.7-1.1,1.5-1.1
			c0.5,0,1,0.2,1.4,0.5c0.4,0.4,0.4,0.8,0.4,1.2v2c0,0,0,0.5,0.4,0.5c0.1,0,0.4-0.1,0.4-0.6v-0.6h0.2v0.6c0,0.8-0.6,0.9-0.8,0.9
			c-0.5,0-0.7-0.4-0.8-0.8C169.4,29.9,169,30.3,168.3,30.3z M167.5,29.2c0,0.5,0.4,0.8,0.9,0.8c0.4,0,1.2-0.3,1.2-1.3v-1
			C167.9,27.9,167.5,28.7,167.5,29.2z"/>
		<path class="st1" d="M171.6,26.2v-0.3l1.4-0.1v1c0.3-0.6,0.7-1,1.5-1c0.6,0,0.9,0.2,1,0.4c0.3,0.4,0.3,0.7,0.3,1.5v1.9
			c0,0.3,0.3,0.3,0.8,0.3v0.3c-0.3,0-0.9,0-1.1,0c-0.3,0-0.8,0-1.1,0v-0.3c0.7,0,0.8,0,0.8-0.4v-2.3c0-0.6-0.1-1.1-0.7-1.1
			c-0.6,0-1.3,0.6-1.3,1.6v1.8c0,0.4,0.1,0.4,0.8,0.4v0.3c-0.3,0-0.9,0-1.1,0c-0.3,0-0.8,0-1.1,0v-0.3c0.7,0,0.8,0,0.8-0.4v-2.7
			C172.4,26.3,172.3,26.2,171.6,26.2z"/>
		<path class="st1" d="M178.2,29.4c0.2,0.4,0.6,0.7,1.1,0.7c0.1,0,1,0,1.3-1c0-0.1,0-0.1,0.1-0.1c0,0,0.1,0,0.1,0.1
			c0,0.2-0.4,1.3-1.7,1.3c-1.1,0-2.2-1-2.2-2.3c0-1.2,0.9-2.3,2.1-2.3c1.2,0,1.8,1,1.8,2c0,0.2,0,0.2-0.2,0.2h-2.8
			C177.9,28.2,177.9,28.9,178.2,29.4z M180.3,27.7c0-0.4-0.1-1.7-1.1-1.7c-0.3,0-1.2,0.2-1.2,1.7H180.3z"/>
	</g>
	<polyline points="143.6,20.2 184.6,20.2 184.6,19.7 143.6,19.7 	"/>
	<polyline points="143.6,35.3 144.1,35.3 144.1,20.1 143.6,20.1 	"/>
	<polyline points="184.1,35.3 184.6,35.3 184.6,20.1 184.1,20.1 	"/>
	<polyline points="143.6,35.6 184.6,35.6 184.6,35.1 143.6,35.1 	"/>
	<g>
		<path class="st1" d="M171.2,86.3c0,0.4,0,0.5,0.9,0.5h0.3v0.3c-0.3,0-1.2,0-1.6,0c-0.4,0-1.3,0-1.6,0v-0.3h0.3
			c0.9,0,0.9-0.1,0.9-0.5v-5.2c-0.5,0.3-1.1,0.3-1.3,0.3v-0.3c0.3,0,1.2,0,1.8-0.6c0.2,0,0.2,0,0.2,0.3V86.3z"/>
	</g>
	<path class="st4" d="M92.8,94.4l56.7-56.7 M92.8,87.4l49.6-49.6 M92.8,80.3l42.5-42.5 M92.8,101.5l35.4-35.4 M92.8,73.2l35.4-35.4
		 M128.3,66.1l28.3-28.3 M121.2,122.8l56.7-56.7 M128.3,122.8l49.6-49.6 M135.4,122.8l42.5-42.5 M142.4,122.8l35.4-35.4
		 M149.5,122.8l28.3-28.3 M138.9,98l39-39 M131.8,98l46.1-46.1 M128.3,94.4l49.6-49.6 M124.7,90.9l53.1-53.1 M121.2,87.4l49.6-49.6
		 M117.6,83.8l46.1-46.1 M92.8,108.6l24.8-24.8 M92.8,115.7l28.3-28.3 M92.8,122.8l31.9-31.9 M99.9,122.8l28.3-28.3 M107,122.8
		L131.8,98 M114.1,122.8L138.9,98 M92.8,66.1l28.3-28.3 M92.8,59l21.3-21.3 M92.8,51.9L107,37.8 M92.8,44.8l7.1-7.1 M156.6,122.8
		l21.3-21.3 M163.7,122.8l14.2-14.2 M170.8,122.8l7.1-7.1"/>
	<g>
		<path class="st5" d="M135.3,82c-1.1,0-1.9-0.9-1.9-1.9c0-1,0.9-1.9,1.9-1.9c1,0,1.9,0.9,1.9,1.9S136.4,82,135.3,82z"/>
	</g>
	<polygon class="st6" points="92.8,80.3 92.8,122.8 177.9,122.8 177.9,37.8 92.8,37.8 	"/>
	<g>
		<path class="st5" d="M90.9,32c0.2,0,0.4,0,0.7,0.2c0.2,0.1,0.4,0.1,0.6,0.1c0.3,0,1-0.2,1.2-0.8c0-0.1,0-0.1,0.1-0.1
			c0.1,0,0.1,0,0.1,0.1c0,0.3-0.6,1.5-1.6,1.5c-0.3,0-0.5-0.2-0.6-0.4c-0.2-0.3-0.3-0.4-0.6-0.4c-0.3,0-0.6,0.3-0.8,0.6
			c-0.1,0.1-0.1,0.1-0.2,0.1c0,0-0.1,0-0.1-0.1c0-0.1,0.3-0.6,1-1.3l0.9-0.8c0.2-0.2,1-0.9,1.4-1.3c-0.3,0-0.4,0-0.8-0.1
			c-0.2-0.1-0.4-0.1-0.6-0.1c-0.1,0-0.7,0-0.8,0.5c0,0.1,0,0.1-0.1,0.1c-0.1,0-0.1-0.1-0.1-0.1c0-0.2,0.5-1.1,1.2-1.1
			c0.3,0,0.5,0.2,0.7,0.4c0.1,0.2,0.3,0.3,0.5,0.3c0.2,0,0.4-0.2,0.7-0.6c0-0.1,0.1-0.1,0.1-0.1c0,0,0.1,0,0.1,0.1
			c0,0-0.2,0.5-1.2,1.4c-0.4,0.4-1,0.9-1,0.9c-0.4,0.3-0.6,0.6-1.2,1.1C90.7,32,90.9,32,90.9,32z"/>
	</g>
	<g>
		<path class="st5" d="M98,29.6c-0.1,0-0.3,0-0.3-0.2s0.2-0.2,0.3-0.2h6c0.1,0,0.3,0,0.3,0.2s-0.2,0.2-0.3,0.2H98z M98,31.5
			c-0.1,0-0.3,0-0.3-0.2s0.2-0.2,0.3-0.2h5.9c0.1,0,0.3,0,0.3,0.2s-0.2,0.2-0.3,0.2H98z"/>
	</g>
	<g>
		<path class="st5" d="M115.1,28.4c1.1,0,1.9,1.1,1.9,2.3c0,1.2-0.8,2.3-1.9,2.3c-0.5,0-1.1-0.2-1.6-0.6c-0.3-0.2-0.4-0.4-1-1.1
			c-0.5,0.8-1.3,1.7-2.5,1.7s-1.9-1.1-1.9-2.3c0-1.2,0.8-2.3,1.9-2.3c0.5,0,1.1,0.2,1.6,0.6c0.3,0.2,0.4,0.4,1,1.1
			C113.1,29.3,113.9,28.4,115.1,28.4z M111.1,29.5c-0.2-0.2-0.7-0.6-1.2-0.6c-0.9,0-1.5,0.8-1.5,1.8c0,0.9,0.5,1.9,1.6,1.9
			c1.1,0,1.9-1,2.3-1.7C111.6,30.1,111.3,29.8,111.1,29.5z M113.9,31.8c0.2,0.2,0.7,0.6,1.2,0.6c0.9,0,1.5-0.8,1.5-1.8
			c0-0.9-0.5-1.9-1.6-1.9c-1.1,0-1.9,1-2.3,1.7C113.5,31.3,113.7,31.6,113.9,31.8z"/>
	</g>
	<g>
		<path class="st5" d="M111,75.6c0.2,0,0.4,0,0.7,0.2c0.2,0.1,0.4,0.1,0.6,0.1c0.3,0,1-0.2,1.2-0.8c0-0.1,0-0.1,0.1-0.1
			c0.1,0,0.1,0,0.1,0.1c0,0.3-0.6,1.5-1.6,1.5c-0.3,0-0.5-0.2-0.6-0.4c-0.2-0.3-0.3-0.4-0.6-0.4c-0.3,0-0.6,0.3-0.8,0.6
			c-0.1,0.1-0.1,0.1-0.2,0.1c0,0-0.1,0-0.1-0.1c0-0.1,0.3-0.6,1-1.3l0.9-0.8c0.2-0.2,1-0.9,1.4-1.3c-0.3,0-0.4,0-0.8-0.1
			c-0.2-0.1-0.4-0.1-0.6-0.1c-0.1,0-0.7,0-0.8,0.5c0,0.1,0,0.1-0.1,0.1c-0.1,0-0.1-0.1-0.1-0.1c0-0.2,0.5-1.1,1.2-1.1
			c0.3,0,0.5,0.2,0.7,0.4c0.1,0.2,0.3,0.3,0.5,0.3c0.2,0,0.4-0.2,0.7-0.6c0-0.1,0.1-0.1,0.1-0.1c0,0,0.1,0,0.1,0.1
			c0,0-0.2,0.5-1.2,1.4c-0.4,0.4-1,0.9-1,0.9c-0.4,0.3-0.6,0.6-1.2,1.1C110.8,75.6,111,75.6,111,75.6z"/>
	</g>
	<g>
		<path class="st5" d="M118.2,73.2c-0.1,0-0.3,0-0.3-0.2c0-0.2,0.2-0.2,0.3-0.2h6c0.1,0,0.3,0,0.3,0.2c0,0.2-0.2,0.2-0.3,0.2H118.2z
			 M118.2,75.1c-0.1,0-0.3,0-0.3-0.2s0.2-0.2,0.3-0.2h5.9c0.1,0,0.3,0,0.3,0.2s-0.2,0.2-0.3,0.2H118.2z"/>
		<path class="st5" d="M132,75.5c-0.4,0.9-1.2,1.2-1.7,1.2c-0.5,0-1.2-0.2-1.6-1c-0.4-0.8-0.4-1.7-0.4-2.4c0-0.8,0-1.6,0.4-2.3
			c0.4-0.9,1.1-1.2,1.7-1.2c0.4,0,1.2,0.2,1.7,1.1c0.3,0.7,0.4,1.5,0.4,2.3C132.4,74,132.3,74.8,132,75.5z M131.4,75.2
			c0.1-0.6,0.1-1.3,0.1-2.1c0-0.6,0-1.4-0.1-1.9c-0.2-1-0.8-1.2-1.2-1.2c-0.2,0-1,0.1-1.2,1.3c-0.1,0.5-0.1,1.2-0.1,1.8
			c0,0.6,0,1.5,0.1,2.1c0.2,1,0.8,1.2,1.2,1.2C130.7,76.4,131.3,76.1,131.4,75.2z"/>
	</g>
	<path class="st7" d="M357.7,73.2L357.7,73.2c0-9.3-7.6-16.9-16.9-16.9S324,63.9,324,73.2s7.6,16.9,16.9,16.9S357.7,82.5,357.7,73.2
		L357.7,73.2z"/>
	<path class="st2" d="M372.8,73.2L372.8,73.2c0-17.1-13.9-31.1-31.1-31.1S310.6,56,310.6,73.2s13.9,31.1,31.1,31.1
		S372.8,90.3,372.8,73.2L372.8,73.2z"/>
	<polyline points="382.4,75.5 386.9,73.2 382.4,70.9 383.5,73.2 	"/>
	<line class="st3" x1="298.3" y1="73.2" x2="383.5" y2="73.2"/>
	<polyline points="343.1,35.2 340.9,30.7 338.6,35.2 340.9,34.1 	"/>
	<line class="st3" x1="340.9" y1="115.7" x2="340.9" y2="34.1"/>
	<g>
		<path class="st1" d="M350.2,29.3h1.7c1.7,0,2.2-0.7,2.6-2.1c0.1-0.2,0.1-0.2,0.2-0.2s0.1,0.1,0.1,0.1c0,0,0,0.1,0,0.1l-0.7,2.2
			c-0.1,0.2-0.1,0.2-0.3,0.2h-4.3c-0.2,0-0.2,0-0.2-0.1c0,0,0-0.2,0-0.2l5.6-6.2h-1.6c-1.6,0-2.1,0.7-2.5,1.8c0,0,0,0.1-0.1,0.1
			c-0.1,0-0.1-0.1-0.1-0.1c0,0,0-0.1,0-0.1l0.5-1.8c0.1-0.2,0.1-0.2,0.3-0.2h4.2c0.2,0,0.2,0,0.2,0.1c0,0.1,0,0.1,0,0.1L350.2,29.3z
			"/>
	</g>
	<g>
		<path class="st1" d="M356.3,27.8v-0.6h2.6v0.6H356.3z"/>
		<path class="st1" d="M362.6,25.2c1.1,0,2.1,1,2.1,2.3c0,1.3-1,2.3-2.2,2.3c-0.8,0-1.2-0.5-1.2-0.7v0.1v1.7c0,0.4,0.1,0.4,0.8,0.4
			v0.3c-0.3,0-0.9,0-1.1,0c-0.3,0-0.8,0-1.1,0v-0.3c0.7,0,0.8,0,0.8-0.4v-4.7c0-0.4-0.1-0.5-0.8-0.5v-0.3l1.4-0.1v0.7
			C361.4,25.7,361.8,25.2,362.6,25.2z M361.4,28.9c0.3,0.4,0.6,0.6,1,0.6c0.7,0,1.4-0.8,1.4-2c0-1.1-0.6-2-1.3-2
			c-0.5,0-1,0.3-1.3,0.8v2.2C361.3,28.7,361.3,28.7,361.4,28.9z"/>
		<path class="st1" d="M366.8,28.9c0,0.4,0.1,0.4,0.8,0.4v0.3c-0.4,0-0.9,0-1.1,0s-0.8,0-1.1,0v-0.3c0.7,0,0.8,0,0.8-0.4v-5.2
			c0-0.5-0.1-0.6-0.8-0.6v-0.3l1.4-0.1V28.9z"/>
		<path class="st1" d="M369.8,29.8c-0.6,0-1.6-0.2-1.6-1.1c0-0.4,0.2-1,1-1.3c0.6-0.3,1.3-0.3,1.8-0.4v-0.4c0-0.9-0.6-1.3-1.1-1.3
			c-0.3,0-0.8,0.1-1.1,0.5c0.5,0,0.5,0.3,0.5,0.5c0,0.3-0.2,0.5-0.5,0.5c-0.3,0-0.5-0.2-0.5-0.5c0-0.7,0.7-1.1,1.5-1.1
			c0.5,0,1,0.2,1.4,0.5c0.4,0.4,0.4,0.8,0.4,1.2v2c0,0,0,0.5,0.4,0.5c0.1,0,0.4-0.1,0.4-0.6v-0.6h0.2v0.6c0,0.8-0.6,0.9-0.8,0.9
			c-0.5,0-0.7-0.4-0.8-0.8C371,29.4,370.5,29.8,369.8,29.8z M369,28.7c0,0.5,0.4,0.8,0.9,0.8c0.4,0,1.2-0.3,1.2-1.3v-1
			C369.4,27.3,369,28.1,369,28.7z"/>
		<path class="st1" d="M373.1,25.7v-0.3l1.4-0.1v1c0.3-0.6,0.7-1,1.5-1c0.6,0,0.9,0.2,1,0.4c0.3,0.4,0.3,0.7,0.3,1.5V29
			c0,0.3,0.3,0.3,0.8,0.3v0.3c-0.3,0-0.9,0-1.1,0c-0.3,0-0.8,0-1.1,0v-0.3c0.7,0,0.8,0,0.8-0.4v-2.3c0-0.6-0.1-1.1-0.7-1.1
			c-0.6,0-1.3,0.6-1.3,1.6v1.8c0,0.4,0.1,0.4,0.8,0.4v0.3c-0.3,0-0.9,0-1.1,0c-0.3,0-0.8,0-1.1,0v-0.3c0.7,0,0.8,0,0.8-0.4v-2.7
			C373.9,25.7,373.8,25.7,373.1,25.7z"/>
		<path class="st1" d="M379.8,28.8c0.2,0.4,0.6,0.7,1.1,0.7c0.1,0,1,0,1.3-1c0-0.1,0-0.1,0.1-0.1c0,0,0.1,0,0.1,0.1
			c0,0.2-0.4,1.3-1.7,1.3c-1.1,0-2.2-1-2.2-2.3c0-1.2,0.9-2.3,2.1-2.3c1.2,0,1.8,1,1.8,2c0,0.2,0,0.2-0.2,0.2h-2.8
			C379.5,27.7,379.5,28.4,379.8,28.8z M381.8,27.1c0-0.4-0.1-1.7-1.1-1.7c-0.3,0-1.2,0.2-1.2,1.7H381.8z"/>
	</g>
	<polyline points="345.1,19.7 386.1,19.7 386.1,19.2 345.1,19.2 	"/>
	<polyline points="345.1,34.8 345.6,34.8 345.6,19.6 345.1,19.6 	"/>
	<polyline points="385.6,34.8 386.1,34.8 386.1,19.6 385.6,19.6 	"/>
	<polyline points="345.1,35 386.1,35 386.1,34.6 345.1,34.6 	"/>
	<g>
		<path class="st1" d="M366.1,79.2c0,0.4,0,0.5,0.9,0.5h0.3V80c-0.3,0-1.2,0-1.6,0s-1.3,0-1.6,0v-0.3h0.3c0.9,0,0.9-0.1,0.9-0.5V74
			c-0.5,0.3-1.1,0.3-1.3,0.3V74c0.3,0,1.2,0,1.8-0.6c0.2,0,0.2,0,0.2,0.3V79.2z"/>
	</g>
	<path class="st7" d="M379.6,73.2L379.6,73.2c0-21.4-17.3-38.7-38.7-38.7s-38.7,17.3-38.7,38.7s17.3,38.7,38.7,38.7
		S379.6,94.6,379.6,73.2L379.6,73.2z"/>
	<path class="st4" d="M301.9,73.2l39-39 M303.7,85.6L353.3,36 M301.9,80.3L348,34.2 M303.7,64.3l30.1-30.1 M307.2,53.7l12.4-12.4
		 M328.5,110.4l49.6-49.6 M333.8,112.2l44.3-44.3 M340.9,112.2l39-39 M348,112.2L378.1,82 M362.1,105.1l12.4-12.4 M351.5,59
		l14.2-14.2 M346.2,57.3l15.9-16 M340.9,55.5l17.7-17.7 M355,62.6l14.2-14.2 M356.8,67.9l16-16 M358.6,73.2l17.7-17.7 M312.5,98
		l14.2-14.2 M309,94.4l16-15.9 M305.4,90.9l17.7-17.7 M316.1,101.5l14.2-14.2 M319.6,105.1l15.9-15.9 M323.1,108.6l17.7-17.7"/>
	<line class="st2" x1="238.1" y1="108.6" x2="238.1" y2="80.3"/>
	<g>
		<path class="st1" d="M238.1,110.3c-1.1,0-1.9-0.9-1.9-1.9c0-1,0.9-1.9,1.9-1.9c1,0,1.9,0.9,1.9,1.9S239.1,110.3,238.1,110.3z"/>
	</g>
	<line class="st2" x1="231" y1="80.3" x2="231" y2="94.4"/>
	<g>
		<path class="st1" d="M231,96.2c-1.1,0-1.9-0.9-1.9-1.9c0-1,0.9-1.9,1.9-1.9c1,0,1.9,0.9,1.9,1.9S232,96.2,231,96.2z"/>
	</g>
	<line class="st2" x1="216.8" y1="83.8" x2="216.8" y2="80.3"/>
	<g>
		<path class="st1" d="M216.8,85.5c-1.1,0-1.9-0.9-1.9-1.9c0-1,0.9-1.9,1.9-1.9c1,0,1.9,0.9,1.9,1.9S217.9,85.5,216.8,85.5z"/>
	</g>
	<line class="st2" x1="223.9" y1="80.3" x2="223.9" y2="87.4"/>
	<g>
		<path class="st1" d="M223.9,89.1c-1.1,0-1.9-0.9-1.9-1.9c0-1,0.9-1.9,1.9-1.9c1,0,1.9,0.9,1.9,1.9S225,89.1,223.9,89.1z"/>
	</g>
	<path class="st8" d="M238.1,108.6c0,0-3.9-9.7-7.1-14.2c-2-2.8-4.3-5.1-7.1-7.1c-2.2-1.6-4.4-2.9-7.1-3.5c-1.2-0.3-3.5,0-3.5,0l0,0
		"/>
	<polyline points="272.5,82.5 277.1,80.3 272.5,78 273.7,80.3 	"/>
	<line class="st3" x1="213.3" y1="80.3" x2="273.7" y2="80.3"/>
	<polyline points="247.5,49.4 245.2,44.8 242.9,49.4 245.2,48.2 	"/>
	<line class="st3" x1="245.2" y1="83.8" x2="245.2" y2="48.2"/>
	<path class="st2" d="M252.3,66.1v14.2 M259.4,73.2v7.1 M266.5,80.3v-3.5 M245.2,80.3V51.9"/>
	<g>
		<path class="st1" d="M245.2,53.6c-1.1,0-1.9-0.9-1.9-1.9c0-1,0.9-1.9,1.9-1.9c1,0,1.9,0.9,1.9,1.9
			C247.1,52.8,246.2,53.6,245.2,53.6z"/>
	</g>
	<g>
		<path class="st1" d="M252.3,67.8c-1.1,0-1.9-0.9-1.9-1.9c0-1,0.9-1.9,1.9-1.9c1,0,1.9,0.9,1.9,1.9C254.2,67,253.3,67.8,252.3,67.8
			z"/>
	</g>
	<g>
		<path class="st1" d="M259.3,74.9c-1.1,0-1.9-0.9-1.9-1.9c0-1,0.9-1.9,1.9-1.9c1,0,1.9,0.9,1.9,1.9S260.4,74.9,259.3,74.9z"/>
	</g>
	<g>
		<path class="st1" d="M266.4,78.5c-1.1,0-1.9-0.9-1.9-1.9c0-1,0.9-1.9,1.9-1.9c1,0,1.9,0.9,1.9,1.9S267.5,78.5,266.4,78.5z"/>
	</g>
	<path class="st9" d="M245.2,51.9c0,0,3.9,9.7,7.1,14.2c2,2.8,4.3,5.1,7.1,7.1c2.2,1.6,4.4,2.9,7.1,3.5c1.2,0.3,3.5,0,3.5,0l0,0"/>
	<polyline points="77.7,96.7 82.2,94.4 77.7,92.2 78.8,94.4 	"/>
	<line class="st3" x1="14.9" y1="94.4" x2="78.8" y2="94.4"/>
	<polyline points="38.4,63.6 36.1,59 33.9,63.6 36.1,62.4 	"/>
	<line class="st3" x1="36.1" y1="98" x2="36.1" y2="62.4"/>
	<path class="st2" d="M36.1,80.3v14.2 M43.2,87.4v7.1 M29.1,94.4V66.1"/>
	<g>
		<path class="st1" d="M21.9,96.2c-1.1,0-1.9-0.9-1.9-1.9c0-1,0.9-1.9,1.9-1.9c1,0,1.9,0.9,1.9,1.9S23,96.2,21.9,96.2z"/>
	</g>
	<g>
		<path class="st1" d="M14.9,96.2c-1.1,0-1.9-0.9-1.9-1.9c0-1,0.9-1.9,1.9-1.9c1,0,1.9,0.9,1.9,1.9S15.9,96.2,14.9,96.2z"/>
	</g>
	<g>
		<path class="st1" d="M29,67.8c-1.1,0-1.9-0.9-1.9-1.9c0-1,0.9-1.9,1.9-1.9c1,0,1.9,0.9,1.9,1.9C31,67,30.1,67.8,29,67.8z"/>
	</g>
	<g>
		<path class="st1" d="M36.1,82c-1.1,0-1.9-0.9-1.9-1.9c0-1,0.9-1.9,1.9-1.9c1,0,1.9,0.9,1.9,1.9S37.2,82,36.1,82z"/>
	</g>
	<g>
		<path class="st1" d="M43.2,89.1c-1.1,0-1.9-0.9-1.9-1.9c0-1,0.9-1.9,1.9-1.9c1,0,1.9,0.9,1.9,1.9S44.2,89.1,43.2,89.1z"/>
	</g>
	<g>
		<path class="st1" d="M57.4,96.2c-1.1,0-1.9-0.9-1.9-1.9c0-1,0.9-1.9,1.9-1.9c1,0,1.9,0.9,1.9,1.9S58.4,96.2,57.4,96.2z"/>
		<path class="st1" d="M64.4,96.2c-1.1,0-1.9-0.9-1.9-1.9c0-1,0.9-1.9,1.9-1.9c1,0,1.9,0.9,1.9,1.9S65.5,96.2,64.4,96.2z"/>
		<path class="st1" d="M71.5,96.2c-1.1,0-1.9-0.9-1.9-1.9c0-1,0.9-1.9,1.9-1.9c1,0,1.9,0.9,1.9,1.9S72.6,96.2,71.5,96.2z"/>
	</g>
	<g>
		<path class="st1" d="M50.3,96.2c-1.1,0-1.9-0.9-1.9-1.9c0-1,0.9-1.9,1.9-1.9c1,0,1.9,0.9,1.9,1.9S51.3,96.2,50.3,96.2z"/>
	</g>
	<g>
		<path class="st1" d="M38.1,107.4c-0.4,0.9-1.2,1.2-1.7,1.2c-0.5,0-1.2-0.2-1.6-1c-0.4-0.8-0.4-1.7-0.4-2.4c0-0.8,0-1.6,0.4-2.3
			c0.4-0.9,1.1-1.2,1.7-1.2c0.4,0,1.2,0.2,1.7,1.1c0.3,0.7,0.4,1.5,0.4,2.3C38.5,105.9,38.4,106.7,38.1,107.4z M37.5,107.1
			c0.1-0.6,0.1-1.3,0.1-2.1c0-0.6,0-1.4-0.1-1.9c-0.2-1-0.8-1.2-1.2-1.2c-0.2,0-1,0.1-1.2,1.3c-0.1,0.5-0.1,1.2-0.1,1.8
			c0,0.6,0,1.5,0.1,2.1c0.2,1,0.8,1.2,1.2,1.2C36.8,108.3,37.4,108,37.5,107.1z"/>
	</g>
	<g>
		<path class="st1" d="M25,106.8v-0.6h2.6v0.6H25z"/>
		<path class="st1" d="M31.1,107.8c0,0.4,0,0.5,0.9,0.5h0.3v0.3c-0.3,0-1.2,0-1.6,0c-0.4,0-1.3,0-1.6,0v-0.3h0.3
			c0.9,0,0.9-0.1,0.9-0.5v-5.2c-0.5,0.3-1.1,0.3-1.3,0.3v-0.3c0.3,0,1.2,0,1.8-0.6c0.2,0,0.2,0,0.2,0.3V107.8z"/>
	</g>
	<g>
		<path class="st1" d="M43.6,107.5c0,0.4,0,0.5,0.9,0.5h0.3v0.3c-0.3,0-1.2,0-1.6,0c-0.4,0-1.3,0-1.6,0V108H42
			c0.9,0,0.9-0.1,0.9-0.5v-5.2c-0.5,0.3-1.1,0.3-1.3,0.3v-0.3c0.3,0,1.2,0,1.8-0.6c0.2,0,0.2,0,0.2,0.3V107.5z"/>
	</g>
</g>
</svg>
