<svg id="Layer_1" data-name="Layer 1" xmlns="http://www.w3.org/2000/svg" viewBox="0 0 308.8951 164.1582">
  <defs>
    <style>
      .cls-1 {
        fill: #1d1d1b;
      }

      .cls-2 {
        fill: red;
      }

      .cls-11, .cls-3, .cls-4, .cls-5, .cls-6, .cls-7, .cls-8, .cls-9 {
        fill: none;
        stroke-miterlimit: 10;
      }

      .cls-3, .cls-6, .cls-7, .cls-9 {
        stroke: red;
      }

      .cls-11, .cls-3, .cls-4, .cls-5 {
        stroke-width: 0.8504px;
      }

      .cls-4, .cls-5 {
        stroke: #000;
      }

      .cls-5, .cls-6, .cls-9 {
        stroke-linecap: round;
      }

      .cls-5 {
        stroke-dashoffset: -0.4252px;
        stroke-dasharray: 0 3.7881;
      }

      .cls-6, .cls-9 {
        stroke-dashoffset: -0.7087px;
      }

      .cls-6, .cls-7, .cls-8, .cls-9 {
        stroke-width: 1.4173px;
      }

      .cls-6 {
        stroke-dasharray: 0 4.3142;
      }

      .cls-8 {
        stroke: #fa0000;
      }

      .cls-9 {
        stroke-dasharray: 0 4.3142;
      }

      .cls-10 {
        fill: #fa0000;
      }

      .cls-11 {
        stroke: #fc0000;
      }
    </style>
  </defs>
  <title>CDconv</title>
  <g>
    <path class="cls-1" d="M644.19,325.6875a.9845.9845,0,0,0-1.1157.897c0,.4482.3985.518.7573.5976a1.6625,1.6625,0,0,1,.9961.4185,1.0348,1.0348,0,0,1,.3091.7275,1.8055,1.8055,0,0,1-2.0029,1.6538c-.8569,0-1.4248-.3984-1.4248-.9663a.592.592,0,0,1,.5581-.6577.3349.3349,0,0,1,.3686.3486.5443.5443,0,0,1-.6279.5284c.23.5283.9966.5283,1.1362.5283,1.1954,0,1.4248-.8374,1.4248-1.0962,0-.5483-.518-.6577-1.0366-.7573-.2885-.06-1.0259-.2095-1.0259-.9864a1.5526,1.5526,0,0,1,1.6836-1.455c.7574,0,1.1861.4087,1.1861.8569,0,.3887-.2393.5581-.4585.5581a.2822.2822,0,0,1-.3091-.2891.48.48,0,0,1,.4785-.4482C644.9375,325.7573,644.439,325.6875,644.19,325.6875Z" transform="translate(-523.4252 -302.4551)"/>
    <path class="cls-1" d="M649.0688,332.3638a4.3027,4.3027,0,0,1-1.5542-1.8736,7.6707,7.6707,0,0,1-.03-6.1474,4.3408,4.3408,0,0,1,1.5839-1.9434.09.09,0,0,1,.1.1c0,.03,0,.05-.1294.1695a6.5171,6.5171,0,0,0-1.604,4.7128A6.6029,6.6029,0,0,0,649,332.0449c.169.169.169.189.169.2193A.09.09,0,0,1,649.0688,332.3638Z" transform="translate(-523.4252 -302.4551)"/>
    <path class="cls-1" d="M651.022,328.8262a1.5918,1.5918,0,0,0-.06.4785c0,.3286.1.4585.3091.4585.3389,0,.8667-.2393,1.2954-1.2754.05-.11.06-.14.1494-.14.04,0,.12,0,.12.1,0,.08-.5683,1.5341-1.5844,1.5341a.8785.8785,0,0,1-.9165-.9165,25.6293,25.6293,0,0,1,.7568-3.1782h-.8765c-.1992,0-.2793,0-.2793-.12,0-.19.1-.19.2994-.19h.9365l.3887-1.5844a.4245.4245,0,0,1,.3984-.3584.262.262,0,0,1,.2891.269c0,.06-.05.2588-.4087,1.6738h.8769c.1792,0,.2788,0,.2788.1094,0,.2-.1.2-.2988.2h-.9365Z" transform="translate(-523.4252 -302.4551)"/>
    <g>
      <path class="cls-1" d="M655.56,330.42a4.3407,4.3407,0,0,1-1.5845,1.9434.0943.0943,0,0,1-.1-.1c0-.03,0-.05.1294-.17a6.5335,6.5335,0,0,0,1.6045-4.7134,6.4632,6.4632,0,0,0-1.5445-4.6528c-.1894-.18-.1894-.1992-.1894-.2295a.0943.0943,0,0,1,.1-.1,4.3057,4.3057,0,0,1,1.5547,1.8735,7.677,7.677,0,0,1,.03,6.1475Z" transform="translate(-523.4252 -302.4551)"/>
      <path class="cls-1" d="M660.8,326.6143c-.15,0-.3389,0-.3389-.1993s.189-.1992.3286-.1992h5.9683c.14,0,.3291,0,.3291.1992s-.1895.1993-.3389.1993Zm-.01,1.9331c-.14,0-.3286,0-.3286-.1993s.189-.1992.3389-.1992h5.9482c.1494,0,.3389,0,.3389.1992s-.1895.1993-.3291.1993Z" transform="translate(-523.4252 -302.4551)"/>
    </g>
    <path class="cls-1" d="M671.03,322.7461c0-.3091.01-.3189.2788-.3189h8.26l.857,2.3316h-.2491c-.6977-1.8633-2.9892-1.9331-4.125-1.9331h-3.9458l3.2383,4.4438c.06.09.07.1.07.14s-.02.07-.09.16l-3.4575,4.2745h4.2349a7.1431,7.1431,0,0,0,2.3115-.2891,2.7442,2.7442,0,0,0,1.7636-1.644h.2491l-.857,2.4809h-8.26c-.1792,0-.2691,0-.2691-.1094,0-.04.01-.06.09-.16l3.5371-4.3741Z" transform="translate(-523.4252 -302.4551)"/>
    <path class="cls-1" d="M686.8369,321.8755a1.5753,1.5753,0,0,1-.0215,3.145,2.15,2.15,0,0,1-1.2549-.4253,3.5772,3.5772,0,0,1-.746-.7392,2.4778,2.4778,0,0,1-1.8965,1.1645,1.5753,1.5753,0,0,1,.021-3.145,2.15,2.15,0,0,1,1.2544.4253,3.58,3.58,0,0,1,.7461.7392A2.4777,2.4777,0,0,1,686.8369,321.8755Zm-4.01.3833a1.19,1.19,0,0,0-1.185,1.1929,1.2609,1.2609,0,0,0,1.2129,1.3037,2.2073,2.2073,0,0,0,1.7358-1.1577C683.9219,322.7891,683.4756,322.2588,682.8271,322.2588Zm4.1,2.3779a1.19,1.19,0,0,0,1.1855-1.1924,1.2609,1.2609,0,0,0-1.2129-1.3037,2.2079,2.2079,0,0,0-1.7363,1.1573C685.832,324.1069,686.2783,324.6367,686.9268,324.6367Z" transform="translate(-523.4252 -302.4551)"/>
    <path class="cls-1" d="M681.9834,331.5327c.0352-.1533.105-.4389.1538-.6274a3.1293,3.1293,0,0,0,.1113-.5786c0-.1885-.0488-.3418-.23-.3418-.272,0-.4048.3418-.5093.7529-.0489.1885-.0557.2095-.1533.2095-.021,0-.1187,0-.1187-.0909a2.4829,2.4829,0,0,1,.251-.69.6359.6359,0,0,1,.5513-.3764.7079.7079,0,0,1,.746.6347,1.481,1.481,0,0,1,1.1783-.6347c.3691,0,.9062.1186.9062.7949a5.0913,5.0913,0,0,1-.37,1.3457,1.4048,1.4048,0,0,0-.16.5649c0,.1465.0284.2442.1748.2442.2784,0,.5782-.2862.7393-.8438.0274-.0767.0342-.1186.1318-.1186.0215,0,.1123,0,.1123.0908,0,.1045-.3076,1.0669-1.0048,1.0669a.6149.6149,0,0,1-.6621-.6.9268.9268,0,0,1,.1044-.377,5.6336,5.6336,0,0,0,.4112-1.4849c0-.1328-.0069-.4882-.4112-.4882a1.2932,1.2932,0,0,0-1.0454.6416,1.4221,1.4221,0,0,0-.2929.6274c-.0347.1607-.0767.314-.1187.4673-.0415.1743-.1186.4951-.1533.6274a2.8616,2.8616,0,0,1-.1255.4327.3427.3427,0,0,1-.272.1533.2227.2227,0,0,1-.2368-.2232,2.615,2.615,0,0,1,.0694-.2861Z" transform="translate(-523.4252 -302.4551)"/>
    <path class="cls-1" d="M686.584,330.522c-.1045,0-.2647,0-.2647-.1748,0-.167.167-.167.2578-.167h4.6163c.0908,0,.2578,0,.2578.167,0,.1748-.16.1748-.2647.1748Zm-.0069,1.5337c-.0908,0-.2578,0-.2578-.167,0-.1743.16-.1743.2647-.1743h4.6025c.1045,0,.2647,0,.2647.1743,0,.167-.167.167-.2578.167Z" transform="translate(-523.4252 -302.4551)"/>
    <g>
      <path class="cls-1" d="M692.9805,331.2886c-.1192,0-.2793,0-.2793-.1743,0-.167.1679-.167.2793-.167h4.1562c.1182,0,.2783,0,.2783.1743,0,.167-.167.167-.2783.167Z" transform="translate(-523.4252 -302.4551)"/>
      <path class="cls-1" d="M704.1172,329.79a1.5753,1.5753,0,0,1-.0215,3.145,2.1509,2.1509,0,0,1-1.2549-.4253,3.5806,3.5806,0,0,1-.7461-.7393,2.4775,2.4775,0,0,1-1.8965,1.1646,1.5753,1.5753,0,0,1,.0206-3.145,2.1507,2.1507,0,0,1,1.2548.4252,3.5758,3.5758,0,0,1,.7461.7393A2.4781,2.4781,0,0,1,704.1172,329.79Zm-4.01.3833a1.1907,1.1907,0,0,0-1.1855,1.1928,1.2608,1.2608,0,0,0,1.2129,1.3037,2.2074,2.2074,0,0,0,1.7363-1.1577C701.2021,330.7031,700.7559,330.1729,700.1074,330.1729Zm4.1,2.3779a1.19,1.19,0,0,0,1.1856-1.1924,1.2609,1.2609,0,0,0-1.2129-1.3037,2.2081,2.2081,0,0,0-1.7363,1.1572C703.1123,332.021,703.5586,332.5508,704.207,332.5508Z" transform="translate(-523.4252 -302.4551)"/>
    </g>
    <path class="cls-1" d="M710.4258,323.8145c0-.5977.3594-1.0264,1.1367-1.0264a3.2993,3.2993,0,0,1,.8164.11c.3594.08.5186.1094.5186.3287a.4186.4186,0,0,1-.3985.3984,1.3652,1.3652,0,0,1-.5478-.249,1.2086,1.2086,0,0,0-.708-.2691.5022.5022,0,0,0-.5479.4585,3.9286,3.9286,0,0,0,.9463,1.6338,2.7975,2.7975,0,0,1,.7373,1.8535c0,1.375-.8271,2.94-1.9922,2.94a1.5663,1.5663,0,0,1-1.5742-1.6738,3.0448,3.0448,0,0,1,2.2119-2.8A4.0708,4.0708,0,0,1,710.4258,323.8145Zm-.9961,4.7827c0,.7573.4082,1.1757.957,1.1757.9268,0,1.3047-1.664,1.3047-2.3217a3.458,3.458,0,0,0-.5478-1.7139C709.7988,326.0962,709.43,327.9692,709.43,328.5972Z" transform="translate(-523.4252 -302.4551)"/>
    <path class="cls-1" d="M716.3887,332.3638a4.3026,4.3026,0,0,1-1.5537-1.8736,7.6686,7.6686,0,0,1-.03-6.1474,4.3407,4.3407,0,0,1,1.584-1.9434.09.09,0,0,1,.1.1c0,.03,0,.05-.1289.1695a6.5175,6.5175,0,0,0-1.6045,4.7128,6.6006,6.6006,0,0,0,1.5644,4.6636c.169.169.169.189.169.2193A.09.09,0,0,1,716.3887,332.3638Z" transform="translate(-523.4252 -302.4551)"/>
    <path class="cls-1" d="M718.3418,328.8262a1.5967,1.5967,0,0,0-.06.4785c0,.3286.1.4585.3086.4585.3389,0,.8672-.2393,1.2949-1.2754.05-.11.0606-.14.1495-.14.04,0,.12,0,.12.1,0,.08-.5684,1.5341-1.585,1.5341a.8787.8787,0,0,1-.916-.9165,25.78,25.78,0,0,1,.7568-3.1782h-.8769c-.1992,0-.2783,0-.2783-.12,0-.19.1-.19.2988-.19h.9365l.3887-1.5844a.4245.4245,0,0,1,.3984-.3584.2622.2622,0,0,1,.2891.269c0,.06-.05.2588-.4092,1.6738h.877c.18,0,.2793,0,.2793.1094,0,.2-.1.2-.2989.2h-.9365Z" transform="translate(-523.4252 -302.4551)"/>
    <path class="cls-1" d="M723.9678,327.5811c-.169,0-.3487,0-.3487-.2s.18-.1992.3487-.1992h5.3906c.1689,0,.3486,0,.3486.1992s-.18.2-.3486.2Z" transform="translate(-523.4252 -302.4551)"/>
    <path class="cls-1" d="M734.2,326.9829a3.2321,3.2321,0,0,0,.1592-.8369c0-.3286-.1094-.4585-.3086-.4585-.3594,0-.5586.4785-.7276,1.186-.06.2193-.07.229-.17.229-.0195,0-.1191,0-.1191-.1a5.0232,5.0232,0,0,1,.2988-.9663.87.87,0,0,1,.7471-.5683.9.9,0,0,1,.917.8671,1.9237,1.9237,0,0,1,1.5547-.8671,1.0183,1.0183,0,0,1,1.1455,1.0664,9.0032,9.0032,0,0,1-.6075,2.1919,1.9,1.9,0,0,0-.18.7075c0,.229.0693.3291.2392.3291.4883,0,.8164-.5581,1.0156-1.2359.0508-.1494.0508-.1792.15-.1792.0293,0,.1192,0,.1192.1,0,.08-.3692,1.5341-1.3057,1.5341a.7958.7958,0,0,1-.8164-.8169,1.1357,1.1357,0,0,1,.1-.4585,9.4985,9.4985,0,0,0,.6475-2.3212c0-.3291-.09-.6978-.5381-.6978a1.9824,1.9824,0,0,0-1.624,1.2158c-.01.04-.09.3286-.13.4981-.05.2295-.1094.4487-.169.6674l-.22.897c-.06.249-.1787.7173-.1894.7373a.4066.4066,0,0,1-.3682.2788.2663.2663,0,0,1-.2891-.2685c0-.05.06-.2793.09-.4287Z" transform="translate(-523.4252 -302.4551)"/>
    <path class="cls-1" d="M742.4111,327.91a.5281.5281,0,1,1,.5284-.5284A.5319.5319,0,0,1,742.4111,327.91Z" transform="translate(-523.4252 -302.4551)"/>
    <path class="cls-1" d="M748.8779,329.1152a.8584.8584,0,0,0-.04.2095c0,.1592.08.189.3682.2192.26.02.3886.02.6377.02.26,0,.3388,0,.3388.11,0,.1993-.1191.1993-.2187.1993-.2793,0-.5782-.02-.8672-.02-.2686,0-.5479-.01-.8272-.01s-.5674.01-.8466.01c-.2686,0-.5479.02-.8174.02-.06,0-.169,0-.169-.12,0-.1894.06-.1894.418-.1894,1.0664,0,1.0967-.1094,1.1865-.4781l1.335-5.3208a.9891.9891,0,0,0,.04-.2094c0-.08,0-.1192-.2793-.1192h-.3887c-1.4746,0-1.7334.1792-2.2714,1.7237-.06.1591-.07.209-.17.209a.113.113,0,0,1-.1191-.1094,1.2587,1.2587,0,0,1,.06-.1792l.5976-1.7539c.07-.1895.08-.1992.3194-.1992h5.53c.169,0,.2686,0,.2686.1093a1.1311,1.1311,0,0,1-.0195.1695l-.27,1.7338c-.0195.15-.04.2291-.1494.2291a.1163.1163,0,0,1-.1191-.1294,1.5066,1.5066,0,0,1,.0293-.19,7.3284,7.3284,0,0,0,.08-.7969c0-.7773-.4482-.8169-1.455-.8169a5.5379,5.5379,0,0,0-.628.02c-.1191.03-.1591.09-.2285.3686Z" transform="translate(-523.4252 -302.4551)"/>
    <path class="cls-1" d="M754.1738,328.4224a1.0823,1.0823,0,0,0-.5508.1323.5948.5948,0,0,0-.2783.4463c0,.1533.125.3.3828.3486.042.0142.2168.042.2793.0562.2578.0483.962.1743.962.8154,0,.272-.2374,1.1509-1.52,1.1509-.6767,0-1.123-.2583-1.123-.6763a.4224.4224,0,0,1,.4043-.4673.2488.2488,0,0,1,.2724.2578.4128.4128,0,0,1-.3838.3975,1.0694,1.0694,0,0,0,.837.293,1.4979,1.4979,0,0,0,.6972-.1534.7049.7049,0,0,0,.3692-.5581c0-.3486-.4463-.4321-.5928-.46a1.5274,1.5274,0,0,1-.7881-.251.668.668,0,0,1-.2432-.5093,1.1333,1.1333,0,0,1,1.2823-1.018c.4257,0,.9277.1533.9277.6064a.3476.3476,0,0,1-.335.3975.2238.2238,0,0,1-.23-.2232.3576.3576,0,0,1,.293-.3276A.8075.8075,0,0,0,754.1738,328.4224Z" transform="translate(-523.4252 -302.4551)"/>
    <path class="cls-1" d="M758.2861,330.42a4.3407,4.3407,0,0,1-1.584,1.9434.0938.0938,0,0,1-.1-.1c0-.03,0-.05.1289-.17a6.5353,6.5353,0,0,0,1.6045-4.7134,6.4633,6.4633,0,0,0-1.5449-4.6528c-.1885-.18-.1885-.1992-.1885-.2295a.0938.0938,0,0,1,.1-.1,4.3026,4.3026,0,0,1,1.5538,1.8735,7.6683,7.6683,0,0,1,.03,6.1475Z" transform="translate(-523.4252 -302.4551)"/>
    <polyline class="cls-2" points="51.874 22.822 49.606 18.287 47.338 22.822 49.606 21.688"/>
    <line class="cls-3" x1="49.606" y1="32.4598" x2="49.606" y2="21.6883"/>
    <polyline class="cls-2" points="66.047 22.822 63.779 18.287 61.511 22.822 63.779 21.688"/>
    <line class="cls-3" x1="63.7792" y1="32.4598" x2="63.7792" y2="21.6883"/>
    <polyline class="cls-2" points="80.22 22.822 77.952 18.287 75.685 22.822 77.952 21.688"/>
    <line class="cls-3" x1="77.9523" y1="32.4598" x2="77.9523" y2="21.6883"/>
    <g>
      <path class="cls-1" d="M624.5054,328.019a.5281.5281,0,1,1,.5283-.5283A.5317.5317,0,0,1,624.5054,328.019Z" transform="translate(-523.4252 -302.4551)"/>
      <path class="cls-1" d="M628.9487,328.019a.5281.5281,0,1,1,.5284-.5283A.5317.5317,0,0,1,628.9487,328.019Z" transform="translate(-523.4252 -302.4551)"/>
      <path class="cls-1" d="M633.3921,328.019a.5281.5281,0,1,1,.5283-.5283A.5317.5317,0,0,1,633.3921,328.019Z" transform="translate(-523.4252 -302.4551)"/>
    </g>
    <g>
      <path class="cls-1" d="M539.4741,328.019a.5281.5281,0,1,1,.5283-.5283A.5317.5317,0,0,1,539.4741,328.019Z" transform="translate(-523.4252 -302.4551)"/>
      <path class="cls-1" d="M543.9175,328.019a.5281.5281,0,1,1,.5283-.5283A.5317.5317,0,0,1,543.9175,328.019Z" transform="translate(-523.4252 -302.4551)"/>
      <path class="cls-1" d="M548.3608,328.019a.5281.5281,0,1,1,.5284-.5283A.5317.5317,0,0,1,548.3608,328.019Z" transform="translate(-523.4252 -302.4551)"/>
    </g>
    <polyline points="94.677 34.728 99.212 32.46 94.677 30.192 95.811 32.46"/>
    <line class="cls-4" x1="28.3463" y1="32.4598" x2="95.8105" y2="32.4598"/>
    <line class="cls-3" x1="28.3463" y1="32.4598" x2="95.6688" y2="32.4598"/>
    <polyline class="cls-2" points="94.393 22.822 92.125 18.287 89.858 22.822 92.125 21.688"/>
    <line class="cls-3" x1="92.1255" y1="32.4598" x2="92.1255" y2="21.6883"/>
    <polyline class="cls-2" points="37.701 22.822 35.433 18.287 33.165 22.822 35.433 21.688"/>
    <line class="cls-3" x1="35.4329" y1="32.4598" x2="35.4329" y2="21.6883"/>
    <path class="cls-1" d="M606.3545,308.4434a.8661.8661,0,0,0-.04.2094c0,.1592.08.189.3687.2193.2588.0195.3887.0195.6377.0195.2588,0,.3389,0,.3389.11,0,.1992-.12.1992-.2193.1992-.2793,0-.5781-.02-.8672-.02-.269,0-.5478-.01-.8266-.01s-.5679.01-.8472.01c-.269,0-.5478.02-.8169.02-.06,0-.1694,0-.1694-.12,0-.19.06-.19.4184-.19,1.0659,0,1.0962-.1094,1.1856-.478l1.3354-5.3208a.9865.9865,0,0,0,.04-.2095c0-.08,0-.1191-.2788-.1191h-.3887c-1.4746,0-1.7339.1792-2.2715,1.7236-.06.1592-.07.209-.1694.209a.113.113,0,0,1-.12-.1094,1.2709,1.2709,0,0,1,.06-.1792l.5982-1.7539c.0693-.1895.08-.1992.3188-.1992h5.53c.1694,0,.269,0,.269.1094a1.0621,1.0621,0,0,1-.02.1694l-.269,1.7339c-.02.1494-.04.229-.1494.229a.1167.1167,0,0,1-.12-.1294,1.535,1.535,0,0,1,.03-.19,7.3055,7.3055,0,0,0,.08-.7968c0-.7774-.4487-.8169-1.4551-.8169a5.5489,5.5489,0,0,0-.6274.0195c-.12.03-.16.09-.23.3686Z" transform="translate(-523.4252 -302.4551)"/>
    <path class="cls-1" d="M611.6509,307.7739a1.0824,1.0824,0,0,0-.5508.1324.5954.5954,0,0,0-.2788.4462c0,.1534.1255.3.3833.3487.042.0141.2163.042.2793.0561.2578.0484.9624.1743.9624.8155,0,.2719-.2373,1.1508-1.52,1.1508-.6763,0-1.1226-.2583-1.1226-.6762a.4224.4224,0,0,1,.4043-.4673.2485.2485,0,0,1,.272.2578.4128.4128,0,0,1-.3833.3975,1.0694,1.0694,0,0,0,.8369.2929,1.4971,1.4971,0,0,0,.6973-.1533.7071.7071,0,0,0,.37-.5581c0-.3486-.4463-.4321-.5928-.46a1.5237,1.5237,0,0,1-.7881-.2509.6687.6687,0,0,1-.2441-.5093,1.1344,1.1344,0,0,1,1.2832-1.0181c.4253,0,.9272.1533.9272.6065a.3475.3475,0,0,1-.3344.3974.224.224,0,0,1-.2305-.2231.358.358,0,0,1,.293-.3277A.8065.8065,0,0,0,611.6509,307.7739Z" transform="translate(-523.4252 -302.4551)"/>
    <polyline points="82.488 8.932 77.952 11.2 82.488 13.468 81.354 11.2"/>
    <polyline points="87.59 13.468 92.125 11.2 87.59 8.932 88.724 11.2"/>
    <line class="cls-4" x1="81.3539" y1="11.2001" x2="88.7239" y2="11.2001"/>
    <polyline points="172.629 70.16 177.164 67.893 172.629 65.625 173.763 67.893"/>
    <line class="cls-4" x1="67.3225" y1="67.8927" x2="173.7628" y2="67.8927"/>
    <polyline points="55.7 70.16 60.236 67.893 55.7 65.625 56.834 67.893"/>
    <line class="cls-4" x1="31.8896" y1="67.8927" x2="56.8343" y2="67.8927"/>
    <path class="cls-1" d="M535.6177,371.2207a3.8668,3.8668,0,0,0-.1695.877c0,.3388.1592.6577.5479.6577.3188,0,.9966-.2393,1.3252-1.3057.02-.07.04-.1094.13-.1094.03,0,.12,0,.12.1,0,.2491-.5684,1.5342-1.5947,1.5342a1.1,1.1,0,0,1-1.0757-.7568,1.3253,1.3253,0,0,1-1.0464.7568c-.4385,0-.9365-.1992-.9365-.6572a.5662.5662,0,0,1,.5478-.5781.3413.3413,0,0,1,.3687.3486.5645.5645,0,0,1-.4683.5381.9565.9565,0,0,0,.4981.13c.4384,0,.7871-.419.9467-1.0366a14.5239,14.5239,0,0,0,.5381-2.3711c0-.5782-.3486-.668-.5381-.668-.3388,0-.9965.2495-1.3349,1.3057-.02.0893-.05.1093-.13.1093-.02,0-.12,0-.12-.1,0-.249.5683-1.5347,1.6045-1.5347a1.102,1.102,0,0,1,1.0761.7574,1.2893,1.2893,0,0,1,1.0459-.7574c.3389,0,.9268.14.9268.6578a.5558.5558,0,0,1-.5381.5781.3475.3475,0,0,1-.3784-.3486.5784.5784,0,0,1,.478-.5381.9745.9745,0,0,0-.498-.13c-.6978,0-.9268.917-.9864,1.1758Z" transform="translate(-523.4252 -302.4551)"/>
    <path class="cls-1" d="M541.46,375.356a4.302,4.302,0,0,1-1.5542-1.8736,7.6713,7.6713,0,0,1-.03-6.1474,4.3407,4.3407,0,0,1,1.584-1.9434.0894.0894,0,0,1,.1.1c0,.03,0,.05-.1294.1694a6.5175,6.5175,0,0,0-1.604,4.7129,6.603,6.603,0,0,0,1.5644,4.6636c.169.169.169.189.169.2192A.09.09,0,0,1,541.46,375.356Z" transform="translate(-523.4252 -302.4551)"/>
    <path class="cls-1" d="M543.42,371.8184a1.5953,1.5953,0,0,0-.06.4785c0,.3286.1.4585.309.4585.3389,0,.8667-.2393,1.2954-1.2754.05-.11.06-.14.1495-.14.04,0,.12,0,.12.1,0,.08-.5684,1.5342-1.5845,1.5342a.8785.8785,0,0,1-.9165-.9165,25.6593,25.6593,0,0,1,.7568-3.1782h-.8764c-.1992,0-.2793,0-.2793-.12,0-.19.1-.19.2993-.19h.9365l.3887-1.5845a.4247.4247,0,0,1,.3984-.3584.262.262,0,0,1,.2891.2691c0,.06-.05.2588-.4087,1.6738h.877c.1792,0,.2788,0,.2788.1094,0,.2-.1.2-.2989.2h-.9365Z" transform="translate(-523.4252 -302.4551)"/>
    <path class="cls-1" d="M547.9507,373.4126a4.3407,4.3407,0,0,1-1.5845,1.9434.0943.0943,0,0,1-.1-.1c0-.03,0-.05.1294-.1694a6.5335,6.5335,0,0,0,1.6045-4.7134,6.4636,6.4636,0,0,0-1.5444-4.6528c-.1895-.18-.1895-.1992-.1895-.23a.0943.0943,0,0,1,.1-.1,4.305,4.305,0,0,1,1.5547,1.8735,7.677,7.677,0,0,1,.03,6.1475Z" transform="translate(-523.4252 -302.4551)"/>
    <path class="cls-1" d="M587.2368,373.6919a3.3181,3.3181,0,1,1,3.3277-3.3184A3.3236,3.3236,0,0,1,587.2368,373.6919Zm-.18-3.3184-2.0825-2.082a3.1364,3.1364,0,0,0-.8071,2.082,3.0949,3.0949,0,0,0,.8071,2.0826Zm.18.17-2.0727,2.0825a3.0067,3.0067,0,0,0,2.0825.8174,2.9109,2.9109,0,0,0,2.0625-.8174c0-.02-.07-.0894-.09-.1094Zm.01-.3384,2.0727-2.0825a3.0074,3.0074,0,0,0-2.0825-.8174,2.9094,2.9094,0,0,0-2.0625.8174c0,.0195.0694.0893.0894.1093Zm.1792.1689,2.0825,2.0826a3.1369,3.1369,0,0,0,.8071-2.0826,3.0889,3.0889,0,0,0-.8169-2.082Z" transform="translate(-523.4252 -302.4551)"/>
    <polyline points="61.511 59.814 63.779 64.349 66.047 59.814 63.779 60.948"/>
    <line class="cls-4" x1="63.7792" y1="60.9479" x2="63.7792" y2="43.0897"/>
    <path class="cls-1" d="M616.5317,360.5879a3.8712,3.8712,0,0,0-.1694.8769c0,.3389.1592.6578.5479.6578.3188,0,.9965-.2393,1.3252-1.3057.02-.07.04-.1094.13-.1094.03,0,.12,0,.12.1,0,.2491-.5684,1.5342-1.5948,1.5342a1.1,1.1,0,0,1-1.0756-.7568,1.3255,1.3255,0,0,1-1.0464.7568c-.4385,0-.9366-.1992-.9366-.6572a.5663.5663,0,0,1,.5479-.5781.3412.3412,0,0,1,.3686.3486.5644.5644,0,0,1-.4682.5381.9564.9564,0,0,0,.498.13c.4385,0,.7871-.419.9468-1.0367a14.5216,14.5216,0,0,0,.5381-2.3711c0-.5781-.3486-.6679-.5381-.6679-.3389,0-.9966.25-1.335,1.3056-.02.0894-.05.1094-.13.1094-.02,0-.12,0-.12-.1,0-.249.5684-1.5347,1.6045-1.5347a1.1019,1.1019,0,0,1,1.0762.7574,1.2892,1.2892,0,0,1,1.0459-.7574c.3389,0,.9268.14.9268.6578a.5558.5558,0,0,1-.5381.5781.3475.3475,0,0,1-.3784-.3487.5784.5784,0,0,1,.478-.538.9748.9748,0,0,0-.4981-.13c-.6977,0-.9267.917-.9863,1.1758Z" transform="translate(-523.4252 -302.4551)"/>
    <path class="cls-1" d="M621.5259,360.7974a1.0821,1.0821,0,0,0-.5508.1323.5954.5954,0,0,0-.2788.4463c0,.1533.1255.3.3833.3486.042.0142.2163.042.2793.0562.2578.0483.9624.1743.9624.8154,0,.272-.2373,1.1509-1.52,1.1509-.6763,0-1.1226-.2583-1.1226-.6763a.4225.4225,0,0,1,.4043-.4673.2485.2485,0,0,1,.272.2578.4127.4127,0,0,1-.3833.3975,1.0691,1.0691,0,0,0,.8369.293,1.4963,1.4963,0,0,0,.6973-.1534.7069.7069,0,0,0,.37-.5581c0-.3486-.4463-.4321-.5928-.46a1.5226,1.5226,0,0,1-.7881-.251.6687.6687,0,0,1-.2441-.5093,1.1343,1.1343,0,0,1,1.2832-1.018c.4253,0,.9272.1533.9272.6064a.3476.3476,0,0,1-.3344.3975.224.224,0,0,1-.2305-.2232.358.358,0,0,1,.293-.3276A.8065.8065,0,0,0,621.5259,360.7974Z" transform="translate(-523.4252 -302.4551)"/>
    <path class="cls-1" d="M626.7017,364.7231a4.3013,4.3013,0,0,1-1.5542-1.8735,7.67,7.67,0,0,1-.03-6.1475,4.3408,4.3408,0,0,1,1.584-1.9433.0894.0894,0,0,1,.1.1c0,.03,0,.05-.1294.1694a6.5174,6.5174,0,0,0-1.604,4.7129,6.6032,6.6032,0,0,0,1.5644,4.6636c.169.1689.169.189.169.2192A.0894.0894,0,0,1,626.7017,364.7231Z" transform="translate(-523.4252 -302.4551)"/>
    <path class="cls-1" d="M628.6626,361.1855a1.5961,1.5961,0,0,0-.06.4786c0,.3286.1.4585.3091.4585.3389,0,.8667-.2393,1.2954-1.2754.05-.11.06-.14.1494-.14.04,0,.12,0,.12.1,0,.08-.5684,1.5342-1.5845,1.5342a.8785.8785,0,0,1-.9165-.9165,25.6293,25.6293,0,0,1,.7568-3.1782h-.8764c-.1992,0-.2793,0-.2793-.12,0-.19.1-.19.2993-.19h.9365l.3887-1.5845a.4247.4247,0,0,1,.3984-.3584.2619.2619,0,0,1,.2891.2691c0,.06-.05.2588-.4087,1.6738h.8769c.1792,0,.2789,0,.2789.1094,0,.2-.1.2-.2989.2H629.4Z" transform="translate(-523.4252 -302.4551)"/>
    <g>
      <path class="cls-1" d="M633.2007,362.78a4.34,4.34,0,0,1-1.5845,1.9433.0943.0943,0,0,1-.1-.1c0-.03,0-.05.1294-.1694a6.5337,6.5337,0,0,0,1.6045-4.7134,6.4636,6.4636,0,0,0-1.5444-4.6528c-.1895-.18-.1895-.1992-.1895-.2295a.0943.0943,0,0,1,.1-.1,4.3042,4.3042,0,0,1,1.5547,1.8735,7.677,7.677,0,0,1,.03,6.1475Z" transform="translate(-523.4252 -302.4551)"/>
      <path class="cls-1" d="M638.4409,358.9736c-.15,0-.3388,0-.3388-.1992s.1889-.1992.3286-.1992h5.9682c.14,0,.3291,0,.3291.1992s-.1894.1992-.3388.1992Zm-.01,1.9331c-.14,0-.3286,0-.3286-.1992s.1889-.1992.3388-.1992h5.9483c.1494,0,.3388,0,.3388.1992s-.1894.1992-.3291.1992Z" transform="translate(-523.4252 -302.4551)"/>
    </g>
    <path class="cls-1" d="M651.0942,360.5879a3.8712,3.8712,0,0,0-.1694.8769c0,.3389.1592.6578.5479.6578.3188,0,.9965-.2393,1.3252-1.3057.02-.07.04-.1094.13-.1094.03,0,.12,0,.12.1,0,.2491-.5684,1.5342-1.5948,1.5342a1.1,1.1,0,0,1-1.0756-.7568,1.3255,1.3255,0,0,1-1.0464.7568c-.4385,0-.9366-.1992-.9366-.6572a.5663.5663,0,0,1,.5479-.5781.3412.3412,0,0,1,.3686.3486.5644.5644,0,0,1-.4682.5381.9564.9564,0,0,0,.498.13c.4385,0,.7871-.419.9468-1.0367a14.5216,14.5216,0,0,0,.5381-2.3711c0-.5781-.3486-.6679-.5381-.6679-.3389,0-.9966.25-1.335,1.3056-.02.0894-.05.1094-.13.1094-.02,0-.12,0-.12-.1,0-.249.5684-1.5347,1.6045-1.5347a1.1019,1.1019,0,0,1,1.0762.7574,1.2892,1.2892,0,0,1,1.0459-.7574c.3389,0,.9268.14.9268.6578a.5558.5558,0,0,1-.5381.5781.3475.3475,0,0,1-.3784-.3487.5784.5784,0,0,1,.478-.538.9748.9748,0,0,0-.4981-.13c-.6977,0-.9267.917-.9863,1.1758Z" transform="translate(-523.4252 -302.4551)"/>
    <path class="cls-1" d="M656.9438,364.7231A4.302,4.302,0,0,1,655.39,362.85a7.671,7.671,0,0,1-.03-6.1475,4.3409,4.3409,0,0,1,1.5839-1.9433.09.09,0,0,1,.1.1c0,.03,0,.05-.1294.1694a6.5174,6.5174,0,0,0-1.604,4.7129,6.6032,6.6032,0,0,0,1.5644,4.6636c.169.1689.169.189.169.2192A.0894.0894,0,0,1,656.9438,364.7231Z" transform="translate(-523.4252 -302.4551)"/>
    <path class="cls-1" d="M658.897,361.1855a1.5929,1.5929,0,0,0-.06.4786c0,.3286.1.4585.3091.4585.3389,0,.8667-.2393,1.2954-1.2754.05-.11.06-.14.1494-.14.04,0,.12,0,.12.1,0,.08-.5683,1.5342-1.5844,1.5342a.8785.8785,0,0,1-.9165-.9165,25.6293,25.6293,0,0,1,.7568-3.1782H658.09c-.1992,0-.2793,0-.2793-.12,0-.19.1-.19.2994-.19h.9365l.3887-1.5845a.4247.4247,0,0,1,.3984-.3584.262.262,0,0,1,.2891.2691c0,.06-.05.2588-.4087,1.6738h.8769c.1792,0,.2788,0,.2788.1094,0,.2-.1.2-.2988.2h-.9365Z" transform="translate(-523.4252 -302.4551)"/>
    <path class="cls-1" d="M663.4351,362.78a4.34,4.34,0,0,1-1.5845,1.9433.0943.0943,0,0,1-.1-.1c0-.03,0-.05.1294-.1694a6.5337,6.5337,0,0,0,1.6045-4.7134,6.4632,6.4632,0,0,0-1.5445-4.6528c-.1894-.18-.1894-.1992-.1894-.2295a.0943.0943,0,0,1,.1-.1,4.3049,4.3049,0,0,1,1.5547,1.8735,7.677,7.677,0,0,1,.03,6.1475Z" transform="translate(-523.4252 -302.4551)"/>
    <path class="cls-1" d="M668.6851,360.269a.5281.5281,0,1,1,.5283-.5283A.5317.5317,0,0,1,668.6851,360.269Z" transform="translate(-523.4252 -302.4551)"/>
    <path class="cls-1" d="M675.3384,358.0469a.9844.9844,0,0,0-1.1157.8969c0,.4483.3984.5181.7573.5977a1.6621,1.6621,0,0,1,.9961.4185,1.0352,1.0352,0,0,1,.3091.7275,1.8056,1.8056,0,0,1-2.003,1.6538c-.8569,0-1.4248-.3984-1.4248-.9663a.592.592,0,0,1,.5581-.6577.335.335,0,0,1,.3687.3486.5442.5442,0,0,1-.6279.5283c.2294.5284.9965.5284,1.1362.5284,1.1953,0,1.4248-.8374,1.4248-1.0962,0-.5484-.5181-.6577-1.0366-.7574-.2886-.06-1.0259-.2094-1.0259-.9863a1.5526,1.5526,0,0,1,1.6836-1.4551c.7573,0,1.186.4087,1.186.857,0,.3886-.2392.5581-.4585.5581a.2823.2823,0,0,1-.3091-.2891.48.48,0,0,1,.4786-.4482C676.0859,358.1167,675.5874,358.0469,675.3384,358.0469Z" transform="translate(-523.4252 -302.4551)"/>
    <path class="cls-1" d="M680.2173,364.7231a4.3013,4.3013,0,0,1-1.5542-1.8735,7.6715,7.6715,0,0,1-.03-6.1475,4.3408,4.3408,0,0,1,1.584-1.9433.0894.0894,0,0,1,.1.1c0,.03,0,.05-.1294.1694a6.5174,6.5174,0,0,0-1.604,4.7129,6.6032,6.6032,0,0,0,1.5644,4.6636c.169.1689.169.189.169.2192A.0894.0894,0,0,1,680.2173,364.7231Z" transform="translate(-523.4252 -302.4551)"/>
    <path class="cls-1" d="M682.17,361.1855a1.5965,1.5965,0,0,0-.06.4786c0,.3286.1.4585.309.4585.3389,0,.8667-.2393,1.2945-1.2754.05-.11.0605-.14.1494-.14.04,0,.12,0,.12.1,0,.08-.5684,1.5342-1.584,1.5342a.8785.8785,0,0,1-.9165-.9165,25.6593,25.6593,0,0,1,.7568-3.1782h-.8764c-.1992,0-.2793,0-.2793-.12,0-.19.1-.19.2993-.19h.9365l.3887-1.5845a.4241.4241,0,0,1,.3979-.3584.2622.2622,0,0,1,.2891.2691c0,.06-.05.2588-.4087,1.6738h.8765c.18,0,.2793,0,.2793.1094,0,.2-.1.2-.2988.2h-.9361Z" transform="translate(-523.4252 -302.4551)"/>
    <path class="cls-1" d="M686.708,362.78a4.3408,4.3408,0,0,1-1.584,1.9433.0938.0938,0,0,1-.1-.1c0-.03,0-.05.1289-.1694a6.5354,6.5354,0,0,0,1.6045-4.7134,6.4633,6.4633,0,0,0-1.5449-4.6528c-.1885-.18-.1885-.1992-.1885-.2295a.0938.0938,0,0,1,.1-.1,4.302,4.302,0,0,1,1.5537,1.8735,7.6688,7.6688,0,0,1,.03,6.1475Z" transform="translate(-523.4252 -302.4551)"/>
    <polygon class="cls-4" points="177.164 67.893 177.164 46.633 233.857 46.633 233.857 89.152 177.164 89.152 177.164 67.893"/>
    <g>
      <path class="cls-1" d="M715.55,362.7017a1.3017,1.3017,0,0,0,1.3057-1.0459.1151.1151,0,0,1,.13-.1c.0292,0,.1289,0,.1289.1a1.6386,1.6386,0,0,1-1.6534,1.2949,2.2053,2.2053,0,0,1-2.1425-2.2617,2.2332,2.2332,0,0,1,2.1621-2.3116c.7675,0,1.5244.3887,1.5244,1.066a.4586.4586,0,1,1-.917.01.45.45,0,0,1,.4687-.4585,1.6261,1.6261,0,0,0-1.0664-.3686c-.5283,0-1.3447.4184-1.3447,2.0424C714.1455,362.2734,715.0225,362.7017,715.55,362.7017Z" transform="translate(-523.4252 -302.4551)"/>
      <path class="cls-1" d="M719.9043,362.9507a2.2241,2.2241,0,0,1-2.2022-2.2417,2.21,2.21,0,1,1,4.4141,0A2.22,2.22,0,0,1,719.9043,362.9507Zm1.165-.9863a3.0194,3.0194,0,0,0,.22-1.335,2.7386,2.7386,0,0,0-.2588-1.3853,1.3068,1.3068,0,0,0-1.126-.6474,1.3374,1.3374,0,0,0-1.1367.6675,2.866,2.866,0,0,0-.2383,1.3652,2.9662,2.9662,0,0,0,.249,1.4048,1.3007,1.3007,0,0,0,1.1358.6675A1.2836,1.2836,0,0,0,721.0693,361.9644Z" transform="translate(-523.4252 -302.4551)"/>
    </g>
    <g>
      <path class="cls-1" d="M722.7744,358.856v-.3091l1.4053-.11v1.0464a1.5711,1.5711,0,0,1,1.4746-1.0464,1.3317,1.3317,0,0,1,1.0469.3687c.3086.3589.3086.6679.3086,1.5249v1.9028c.01.2988.2588.2988.7773.2988v.3091c-.3389-.01-.8574-.03-1.1162-.03-.2695,0-.7773.02-1.126.03v-.3091c.668,0,.7774,0,.7774-.4482v-2.3218c0-.5679-.1094-1.1059-.7373-1.1059a1.4556,1.4556,0,0,0-1.3457,1.5942v1.8335c0,.4482.11.4482.7773.4482v.3091c-.3389-.01-.8564-.03-1.1162-.03-.2686,0-.7764.02-1.126.03v-.3091c.668,0,.7774,0,.7774-.4482v-2.67C723.5518,358.9253,723.4727,358.856,722.7744,358.856Z" transform="translate(-523.4252 -302.4551)"/>
      <path class="cls-1" d="M730.5762,362.7617c-.04.1-.08.189-.209.189s-.1494-.05-.21-.189l-1.4345-3.5371c-.13-.3091-.169-.3686-.7969-.3686v-.3091c.2988.02.6972.03.9668.03.2285,0,.7871-.02,1.0859-.03v.3091c-.18,0-.5683,0-.5683.2587,0,.02,0,.04.0595.1695l1.1162,2.78,1.0166-2.5406a.5963.5963,0,0,0,.06-.2392c0-.19-.1094-.4185-.4785-.4282v-.3091c.17.01.6279.03.8672.03.23,0,.5185-.01.7471-.03v.3091a.9006.9006,0,0,0-.9161.6674Z" transform="translate(-523.4252 -302.4551)"/>
    </g>
    <g>
      <path class="cls-1" d="M734.1816,362.0342a1.34,1.34,0,0,0,1.126.6675,1.4037,1.4037,0,0,0,1.3447-1.0264c.02-.08.04-.1392.13-.1392a.1154.1154,0,0,1,.1289.12,1.703,1.703,0,0,1-1.664,1.2949,2.2491,2.2491,0,0,1-2.1914-2.3013,2.1771,2.1771,0,0,1,2.0722-2.272,1.7674,1.7674,0,0,1,1.7832,1.9532c0,.209-.0293.209-.249.209h-2.7793A2.9018,2.9018,0,0,0,734.1816,362.0342Zm2.0723-1.7036c0-.3887-.1-1.7339-1.126-1.7339-.3388,0-1.1758.249-1.2353,1.7339Z" transform="translate(-523.4252 -302.4551)"/>
      <path class="cls-1" d="M740.1094,358.437a.68.68,0,0,1,.7373.6079.4188.4188,0,0,1-.4287.4385.4131.4131,0,0,1-.4287-.4282.4324.4324,0,0,1,.23-.3887c-.02-.01-.04-.01-.1094-.01-.7578,0-1.1758.8872-1.1758,1.8735v1.5342c0,.3589.0195.4682.7568.4682h.21v.3091c-.3984-.03-.8672-.03-1.2656-.03-.2793,0-.7471.02-1.1358.03v-.3091c.667,0,.7774,0,.7774-.4482v-2.67c0-.4883-.08-.5576-.7774-.5576v-.3091l1.3848-.11v1.0962A1.3957,1.3957,0,0,1,740.1094,358.437Z" transform="translate(-523.4252 -302.4551)"/>
    </g>
    <path class="cls-1" d="M742.8984,361.6255c0,.1694,0,1.0762.668,1.0762.3682,0,.667-.3785.667-1.1158v-.5483h.249v.5684c0,.6377-.2783,1.3447-.9863,1.3447a1.2052,1.2052,0,0,1-1.2852-1.3447v-2.75h-.8466v-.2193c.9765-.04,1.2753-1.1064,1.2851-1.9233h.249v1.8335h1.4248v.3091h-1.4248Z" transform="translate(-523.4252 -302.4551)"/>
    <polyline points="257.668 70.16 262.203 67.893 257.668 65.625 258.802 67.893"/>
    <line class="cls-4" x1="233.857" y1="67.8927" x2="258.8017" y2="67.8927"/>
    <path class="cls-1" d="M769.1953,360.5879a3.9027,3.9027,0,0,0-.17.8769c0,.3389.16.6578.5488.6578.3184,0,.9961-.2393,1.3252-1.3057.0195-.07.0391-.1094.1289-.1094.03,0,.12,0,.12.1,0,.2491-.5683,1.5342-1.5947,1.5342a1.1012,1.1012,0,0,1-1.0762-.7568,1.3233,1.3233,0,0,1-1.0459.7568c-.4384,0-.9365-.1992-.9365-.6572a.5663.5663,0,0,1,.5479-.5781.3416.3416,0,0,1,.3691.3486.5649.5649,0,0,1-.4687.5381.9551.9551,0,0,0,.498.13c.4385,0,.7871-.419.9463-1.0367a14.474,14.474,0,0,0,.5381-2.3711c0-.5781-.3487-.6679-.5381-.6679-.3379,0-.9961.25-1.335,1.3056-.0195.0894-.05.1094-.1289.1094-.0205,0-.12,0-.12-.1,0-.249.5684-1.5347,1.6045-1.5347a1.1019,1.1019,0,0,1,1.0762.7574,1.2874,1.2874,0,0,1,1.0459-.7574c.3388,0,.9267.14.9267.6578a.5555.5555,0,0,1-.5381.5781.3483.3483,0,0,1-.3789-.3487.5785.5785,0,0,1,.4786-.538.9748.9748,0,0,0-.4981-.13c-.6973,0-.9267.917-.9863,1.1758Z" transform="translate(-523.4252 -302.4551)"/>
    <path class="cls-1" d="M773.0225,364.7231v-9.9643h1.3652v.3989h-.9668v9.1665h.9668v.3989Z" transform="translate(-523.4252 -302.4551)"/>
    <path class="cls-1" d="M776.06,359.3423a3.2328,3.2328,0,0,0,.1592-.8369c0-.3286-.1094-.4585-.3086-.4585-.3594,0-.5586.4785-.7276,1.186-.06.2192-.07.229-.17.229-.0195,0-.1191,0-.1191-.1a5.0232,5.0232,0,0,1,.2988-.9663.87.87,0,0,1,.7471-.5684.9006.9006,0,0,1,.9169.8672,1.9238,1.9238,0,0,1,1.5547-.8672,1.0183,1.0183,0,0,1,1.1455,1.0664,9.0005,9.0005,0,0,1-.6074,2.1919,1.9,1.9,0,0,0-.18.7076c0,.229.0694.3291.2393.3291.4883,0,.8164-.5581,1.0156-1.2359.0508-.1494.0508-.1792.15-.1792.0293,0,.1191,0,.1191.1,0,.08-.3691,1.5342-1.3056,1.5342a.7958.7958,0,0,1-.8164-.8169,1.1337,1.1337,0,0,1,.1-.4585,9.4981,9.4981,0,0,0,.6474-2.3213c0-.3291-.09-.6977-.538-.6977a1.9827,1.9827,0,0,0-1.6241,1.2158c-.01.04-.09.3286-.13.498-.05.23-.1094.4488-.169.6675l-.22.897c-.06.249-.1787.7173-.1895.7373a.4064.4064,0,0,1-.3681.2788.2663.2663,0,0,1-.2891-.2685c0-.05.06-.2793.09-.4288Z" transform="translate(-523.4252 -302.4551)"/>
    <path class="cls-1" d="M782.1807,364.7231h-1.3653v-.3989h.9668v-9.1665h-.9668v-.3989h1.3653Z" transform="translate(-523.4252 -302.4551)"/>
    <path class="cls-1" d="M787.0264,358.0073c-.1592,0-.3584,0-.3584-.1992s.18-.1992.3486-.1992h5.9492c.169,0,.3487,0,.3487.1992s-.1895.1992-.3594.1992Zm-.01,1.9331c-.1689,0-.3486,0-.3486-.2s.18-.1992.3486-.1992h5.9492c.169,0,.3487,0,.3487.1992s-.18.2-.3487.2Zm0,1.9326c-.1689,0-.3486,0-.3486-.1992s.1992-.1992.3584-.1992h5.9287c.17,0,.3594,0,.3594.1992s-.18.1992-.3487.1992Z" transform="translate(-523.4252 -302.4551)"/>
    <path class="cls-1" d="M799.6641,360.5879a3.9044,3.9044,0,0,0-.17.8769c0,.3389.16.6578.5489.6578.3183,0,.9961-.2393,1.3252-1.3057.0195-.07.039-.1094.1289-.1094.03,0,.12,0,.12.1,0,.2491-.5684,1.5342-1.5947,1.5342a1.101,1.101,0,0,1-1.0762-.7568,1.3234,1.3234,0,0,1-1.0459.7568c-.4385,0-.9365-.1992-.9365-.6572a.5662.5662,0,0,1,.5478-.5781.3416.3416,0,0,1,.3692.3486.565.565,0,0,1-.4688.5381.9556.9556,0,0,0,.4981.13c.4384,0,.7871-.419.9462-1.0367a14.4622,14.4622,0,0,0,.5381-2.3711c0-.5781-.3486-.6679-.5381-.6679-.3378,0-.996.25-1.3349,1.3056-.0195.0894-.05.1094-.1289.1094-.02,0-.12,0-.12-.1,0-.249.5683-1.5347,1.6045-1.5347a1.1019,1.1019,0,0,1,1.0761.7574,1.2877,1.2877,0,0,1,1.0459-.7574c.3389,0,.9268.14.9268.6578a.5555.5555,0,0,1-.5381.5781.3482.3482,0,0,1-.3789-.3487.5784.5784,0,0,1,.4785-.538.9745.9745,0,0,0-.498-.13c-.6973,0-.9268.917-.9864,1.1758Z" transform="translate(-523.4252 -302.4551)"/>
    <path class="cls-1" d="M805.5137,364.7231A4.302,4.302,0,0,1,803.96,362.85a7.6688,7.6688,0,0,1-.03-6.1475,4.3408,4.3408,0,0,1,1.584-1.9433.09.09,0,0,1,.1.1c0,.03,0,.05-.1289.1694a6.5178,6.5178,0,0,0-1.6045,4.7129,6.6009,6.6009,0,0,0,1.5644,4.6636c.169.1689.169.189.169.2192A.09.09,0,0,1,805.5137,364.7231Z" transform="translate(-523.4252 -302.4551)"/>
    <path class="cls-1" d="M807.6143,359.3423a3.2309,3.2309,0,0,0,.1591-.8369c0-.3286-.1093-.4585-.3086-.4585-.3593,0-.5585.4785-.7275,1.186-.06.2192-.07.229-.17.229-.0195,0-.1192,0-.1192-.1a5.0259,5.0259,0,0,1,.2989-.9663.87.87,0,0,1,.747-.5684.9006.9006,0,0,1,.917.8672,1.9238,1.9238,0,0,1,1.5547-.8672,1.0183,1.0183,0,0,1,1.1455,1.0664,9.0005,9.0005,0,0,1-.6074,2.1919,1.9,1.9,0,0,0-.18.7076c0,.229.0694.3291.2393.3291.4883,0,.8164-.5581,1.0156-1.2359.0508-.1494.0508-.1792.15-.1792.0293,0,.1191,0,.1191.1,0,.08-.3691,1.5342-1.3056,1.5342a.7958.7958,0,0,1-.8164-.8169,1.1337,1.1337,0,0,1,.1-.4585,9.4981,9.4981,0,0,0,.6474-2.3213c0-.3291-.09-.6977-.5381-.6977a1.9825,1.9825,0,0,0-1.624,1.2158c-.01.04-.09.3286-.13.498-.05.23-.1093.4488-.1689.6675l-.22.897c-.06.249-.1787.7173-.1895.7373a.4064.4064,0,0,1-.3681.2788.2663.2663,0,0,1-.2891-.2685c0-.05.06-.2793.09-.4288Z" transform="translate(-523.4252 -302.4551)"/>
    <path class="cls-1" d="M815.8252,360.269a.5281.5281,0,1,1,.5283-.5283A.5318.5318,0,0,1,815.8252,360.269Z" transform="translate(-523.4252 -302.4551)"/>
    <path class="cls-1" d="M822.2842,361.4746a.8557.8557,0,0,0-.04.2095c0,.1592.08.1889.3682.2192.26.02.3887.02.6377.02.26,0,.3389,0,.3389.11,0,.1992-.1192.1992-.2188.1992-.2793,0-.5781-.02-.8672-.02-.2685,0-.5478-.01-.8271-.01s-.5674.01-.8467.01c-.2686,0-.5478.02-.8174.02-.06,0-.1689,0-.1689-.12,0-.1894.0595-.1894.4179-.1894,1.0664,0,1.0967-.1094,1.1866-.4781l1.3349-5.3208a.9834.9834,0,0,0,.04-.2094c0-.08,0-.1192-.2793-.1192h-.3887c-1.4746,0-1.7334.1792-2.2715,1.7236-.06.1592-.07.209-.17.209a.1129.1129,0,0,1-.1191-.1093,1.2666,1.2666,0,0,1,.0595-.1792l.5977-1.754c.07-.1894.08-.1992.3193-.1992h5.53c.1689,0,.2685,0,.2685.1094a1.1155,1.1155,0,0,1-.0195.1694l-.2695,1.7339c-.02.1494-.04.229-.1494.229a.1163.1163,0,0,1-.1192-.1294,1.5238,1.5238,0,0,1,.0293-.1894,7.307,7.307,0,0,0,.08-.7969c0-.7773-.4482-.8169-1.4551-.8169a5.5633,5.5633,0,0,0-.6279.02c-.1191.03-.1592.09-.2285.3687Z" transform="translate(-523.4252 -302.4551)"/>
    <path class="cls-1" d="M827.5879,360.7974a1.0821,1.0821,0,0,0-.5508.1323.5948.5948,0,0,0-.2783.4463c0,.1533.125.3.3828.3486.042.0142.2168.042.2793.0562.2578.0483.9619.1743.9619.8154,0,.272-.2373,1.1509-1.5195,1.1509-.6768,0-1.1231-.2583-1.1231-.6763a.4225.4225,0,0,1,.4043-.4673.2489.2489,0,0,1,.2725.2578.4128.4128,0,0,1-.3838.3975,1.0692,1.0692,0,0,0,.8369.293,1.4984,1.4984,0,0,0,.6973-.1534.7047.7047,0,0,0,.3691-.5581c0-.3486-.4463-.4321-.5927-.46a1.5274,1.5274,0,0,1-.7881-.251.668.668,0,0,1-.2432-.5093,1.1332,1.1332,0,0,1,1.2822-1.018c.4258,0,.9278.1533.9278.6064a.3477.3477,0,0,1-.335.3975.2238.2238,0,0,1-.23-.2232.3575.3575,0,0,1,.293-.3276A.8075.8075,0,0,0,827.5879,360.7974Z" transform="translate(-523.4252 -302.4551)"/>
    <path class="cls-1" d="M831.6924,362.78a4.3408,4.3408,0,0,1-1.584,1.9433.0938.0938,0,0,1-.1-.1c0-.03,0-.05.1289-.1694a6.5359,6.5359,0,0,0,1.6045-4.7134,6.4637,6.4637,0,0,0-1.5449-4.6528c-.1885-.18-.1885-.1992-.1885-.2295a.0938.0938,0,0,1,.1-.1,4.302,4.302,0,0,1,1.5537,1.8735,7.6688,7.6688,0,0,1,.03,6.1475Z" transform="translate(-523.4252 -302.4551)"/>
    <g>
      <path class="cls-1" d="M718.9629,368.46a2.1813,2.1813,0,0,1,2.083,2.252,2.2451,2.2451,0,0,1-2.2217,2.2617,1.3521,1.3521,0,0,1-1.2256-.6972v1.7636c0,.4483.1094.4483.7764.4483v.3091c-.3486-.01-.8564-.03-1.126-.03-.2588,0-.7763.0195-1.1152.03v-.3091c.667,0,.7773,0,.7773-.4483v-4.6631c0-.4384-.07-.498-.7773-.498V368.57l1.4346-.11v.6578A1.7956,1.7956,0,0,1,718.9629,368.46Zm-1.2256,3.6871a1.2442,1.2442,0,0,0,1.0469.6079c.7373,0,1.4346-.8374,1.4346-2.043,0-1.126-.6075-2.0024-1.335-2.0024a1.491,1.491,0,0,0-1.2852.7968v2.2222A.5248.5248,0,0,0,717.7373,372.1475Z" transform="translate(-523.4252 -302.4551)"/>
      <path class="cls-1" d="M723.9941,372.9741c-1.5146,0-1.5146-.9062-1.5146-1.6836v-1.4946c0-.8867,0-.9165-.7774-.9165V368.57l1.4649-.11v3.3082c0,.518.04.9868.8769.9868.7276,0,1.2061-.6778,1.2061-1.5445V369.437c0-.4883-.08-.5576-.7773-.5576V368.57l1.4648-.11v3.5376c0,.4883.0791.5577.7773.5577v.309l-1.4355.1094v-.8965A1.3575,1.3575,0,0,1,723.9941,372.9741Z" transform="translate(-523.4252 -302.4551)"/>
      <path class="cls-1" d="M728.6768,372.1074c0,.4483.1093.4483.7773.4483v.309c-.3691-.01-.8574-.03-1.1064-.03s-.7774.02-1.1055.03v-.309c.667,0,.7773,0,.7773-.4483v-5.1811c0-.4883-.08-.5581-.7773-.5581V366.06l1.4346-.11Z" transform="translate(-523.4252 -302.4551)"/>
      <path class="cls-1" d="M730.43,370.4731a1.0612,1.0612,0,0,1-.4277-.8466c0-.5581.3779-1.2256,1.5937-1.2256a1.5347,1.5347,0,0,1,.9365.2788,1.3007,1.3007,0,0,0,.17-.1592c.129-.12.1495-.12.1993-.12.1093,0,.1093.07.1093.2392v1.0064c0,.1889,0,.2392-.13.2392a.1065.1065,0,0,1-.1192-.09,1.0987,1.0987,0,0,0-1.166-1.2056c-.8564,0-1.1162.4082-1.1162.7574,0,.5776.668.707,1.2256.8169a2.0317,2.0317,0,0,1,1.1367.478,1.2874,1.2874,0,0,1,.418.9468c0,.7172-.458,1.3847-1.6045,1.3847a1.4879,1.4879,0,0,1-1.0957-.4282,2.2077,2.2077,0,0,0-.1992.229c-.19.19-.1993.1992-.2491.1992-.1093,0-.1093-.0693-.1093-.2387V371.42c0-.1792,0-.249.1289-.249.1,0,.11.04.14.1694.19.8467.5479,1.4151,1.3848,1.4151.7773,0,1.126-.399,1.126-.9068,0-.7177-.8165-.8769-1.0362-.917A2.61,2.61,0,0,1,730.43,370.4731Z" transform="translate(-523.4252 -302.4551)"/>
      <path class="cls-1" d="M735.0029,372.0576a1.34,1.34,0,0,0,1.126.6675,1.4037,1.4037,0,0,0,1.3447-1.0264c.02-.08.04-.1391.13-.1391a.1154.1154,0,0,1,.1289.12,1.7029,1.7029,0,0,1-1.664,1.2949,2.249,2.249,0,0,1-2.1914-2.3012,2.177,2.177,0,0,1,2.0722-2.272,1.7673,1.7673,0,0,1,1.7832,1.9531c0,.209-.0293.209-.249.209h-2.7793A2.9016,2.9016,0,0,0,735.0029,372.0576Zm2.0723-1.7036c0-.3887-.1-1.7339-1.126-1.7339-.3388,0-1.1758.249-1.2353,1.7339Z" transform="translate(-523.4252 -302.4551)"/>
    </g>
    <path class="cls-1" d="M738.8145,370.4731a1.0613,1.0613,0,0,1-.4278-.8466c0-.5581.3779-1.2256,1.5938-1.2256a1.5347,1.5347,0,0,1,.9365.2788,1.3136,1.3136,0,0,0,.17-.1592c.1289-.12.1494-.12.1992-.12.1094,0,.1094.07.1094.2392v1.0064c0,.1889,0,.2392-.13.2392a.1064.1064,0,0,1-.1191-.09,1.0988,1.0988,0,0,0-1.166-1.2056c-.8565,0-1.1162.4082-1.1162.7574,0,.5776.6679.707,1.2255.8169a2.0317,2.0317,0,0,1,1.1368.478,1.2874,1.2874,0,0,1,.4179.9468c0,.7172-.458,1.3847-1.6045,1.3847a1.4881,1.4881,0,0,1-1.0957-.4282,2.2077,2.2077,0,0,0-.1992.229c-.1894.19-.1992.1992-.249.1992-.1094,0-.1094-.0693-.1094-.2387V371.42c0-.1792,0-.249.1289-.249.1,0,.11.04.14.1694.1894.8467.5478,1.4151,1.3847,1.4151.7774,0,1.126-.399,1.126-.9068,0-.7177-.8164-.8769-1.0361-.917A2.61,2.61,0,0,1,738.8145,370.4731Z" transform="translate(-523.4252 -302.4551)"/>
    <g>
      <path class="cls-1" d="M707.6172,382.2739c0,.1695,0,1.0762.668,1.0762.3681,0,.6669-.3784.6669-1.1157v-.5484h.2491v.5684c0,.6377-.2783,1.3447-.9864,1.3447a1.2051,1.2051,0,0,1-1.2851-1.3447v-2.75h-.8467v-.2192c.9766-.04,1.2754-1.1065,1.2852-1.9234h.249v1.8335h1.4248v.3091h-1.4248Z" transform="translate(-523.4252 -302.4551)"/>
      <path class="cls-1" d="M712.2109,383.5991a2.224,2.224,0,0,1-2.2021-2.2417,2.21,2.21,0,1,1,4.4141,0A2.22,2.22,0,0,1,712.2109,383.5991Zm1.1651-.9863a3.0207,3.0207,0,0,0,.22-1.335,2.738,2.738,0,0,0-.2588-1.3852,1.3069,1.3069,0,0,0-1.126-.6475,1.3375,1.3375,0,0,0-1.1367.6675,2.8664,2.8664,0,0,0-.2383,1.3652,2.9652,2.9652,0,0,0,.2491,1.4048,1.3,1.3,0,0,0,1.1357.6675A1.2838,1.2838,0,0,0,713.376,382.6128Z" transform="translate(-523.4252 -302.4551)"/>
    </g>
    <g>
      <path class="cls-1" d="M718.7754,381.0981a1.0612,1.0612,0,0,1-.4277-.8466c0-.5581.3779-1.2256,1.5937-1.2256a1.5347,1.5347,0,0,1,.9365.2788,1.3079,1.3079,0,0,0,.17-.1592c.1289-.12.1494-.12.1992-.12.1093,0,.1093.07.1093.2392v1.0064c0,.1889,0,.2392-.13.2392a.1065.1065,0,0,1-.1192-.09,1.0987,1.0987,0,0,0-1.166-1.2056c-.8564,0-1.1162.4082-1.1162.7574,0,.5776.668.707,1.2256.8169a2.0317,2.0317,0,0,1,1.1367.478,1.2874,1.2874,0,0,1,.418.9468c0,.7172-.458,1.3847-1.6045,1.3847a1.488,1.488,0,0,1-1.0957-.4282,2.2077,2.2077,0,0,0-.1992.229c-.1895.19-.1993.1992-.2491.1992-.1093,0-.1093-.0693-.1093-.2387v-1.3155c0-.1792,0-.249.1289-.249.1,0,.11.04.14.1694.1895.8467.5479,1.4151,1.3848,1.4151.7773,0,1.126-.399,1.126-.9068,0-.7177-.8165-.8769-1.0362-.917A2.61,2.61,0,0,1,718.7754,381.0981Z" transform="translate(-523.4252 -302.4551)"/>
      <path class="cls-1" d="M723.9561,383.5991c-.628,0-1.5938-.249-1.5938-1.0561a1.4513,1.4513,0,0,1,.9961-1.295,4.8384,4.8384,0,0,1,1.833-.3588v-.3687a1.1281,1.1281,0,0,0-1.0557-1.2754,1.3971,1.3971,0,0,0-1.0761.4585c.458.01.5078.3384.5078.458a.4586.4586,0,1,1-.917-.01c0-.6578.6875-1.126,1.5049-1.126a1.9025,1.9025,0,0,1,1.3652.5478,1.475,1.475,0,0,1,.3584,1.1758v1.9932c0,.05.04.498.3691.498.1094,0,.3584-.06.3584-.6377v-.5581h.2491v.5581a.8455.8455,0,0,1-.8174.9463.8331.8331,0,0,1-.7764-.8169A1.3791,1.3791,0,0,1,723.9561,383.5991Zm-.8272-1.0659a.8585.8585,0,0,0,.8965.8472,1.1967,1.1967,0,0,0,1.166-1.2857v-.9966C723.5479,381.1582,723.1289,381.9854,723.1289,382.5332Z" transform="translate(-523.4252 -302.4551)"/>
      <path class="cls-1" d="M727.2432,379.5044v-.3091l1.4052-.11v1.0464a1.5713,1.5713,0,0,1,1.4746-1.0464,1.18,1.18,0,0,1,1.3252.9766,1.5788,1.5788,0,0,1,1.4454-.9766,1.3311,1.3311,0,0,1,1.0459.3687c.3085.3589.3085.668.3085,1.5249v1.9028c.0108.2989.26.2989.7774.2989v.309c-.3389-.01-.8565-.03-1.1162-.03-.2686,0-.7764.02-1.126.03v-.309c.668,0,.7773,0,.7773-.4483v-2.3218c0-.5678-.1093-1.1059-.7373-1.1059a1.4549,1.4549,0,0,0-1.3447,1.5942v1.8335c0,.4483.1094.4483.7774.4483v.309c-.3389-.01-.8575-.03-1.1163-.03-.2695,0-.7773.02-1.1259.03v-.309c.6679,0,.7773,0,.7773-.4483v-2.3218c0-.5678-.1094-1.1059-.7373-1.1059a1.4556,1.4556,0,0,0-1.3457,1.5942v1.8335c0,.4483.11.4483.7774.4483v.309c-.3389-.01-.8565-.03-1.1163-.03-.2685,0-.7763.02-1.1259.03v-.309c.6679,0,.7773,0,.7773-.4483v-2.67C728.0205,379.5737,727.9414,379.5044,727.2432,379.5044Z" transform="translate(-523.4252 -302.4551)"/>
      <path class="cls-1" d="M738.332,379.0854a2.1813,2.1813,0,0,1,2.083,2.252,2.2451,2.2451,0,0,1-2.2216,2.2617,1.352,1.352,0,0,1-1.2256-.6972v1.7631c0,.4483.1093.4483.7763.4483v.3086c-.3486-.01-.8564-.0293-1.1259-.0293-.2588,0-.7764.0195-1.1153.0293v-.3086c.667,0,.7774,0,.7774-.4483v-4.6626c0-.4384-.07-.498-.7774-.498v-.3091l1.4346-.11v.6578A1.7957,1.7957,0,0,1,738.332,379.0854Zm-1.2256,3.6871a1.2445,1.2445,0,0,0,1.0469.6079c.7373,0,1.4346-.8374,1.4346-2.043,0-1.126-.6074-2.0024-1.335-2.0024a1.4909,1.4909,0,0,0-1.2851.7968v2.2222A.5251.5251,0,0,0,737.1064,382.7725Z" transform="translate(-523.4252 -302.4551)"/>
      <path class="cls-1" d="M742.5166,382.7324c0,.4483.1094.4483.7773.4483v.309c-.3691-.01-.8574-.03-1.1064-.03s-.7773.02-1.1055.03v-.309c.667,0,.7774,0,.7774-.4483v-5.1811c0-.4883-.08-.5581-.7774-.5581v-.3086l1.4346-.11Z" transform="translate(-523.4252 -302.4551)"/>
      <path class="cls-1" d="M744.918,382.6826a1.3394,1.3394,0,0,0,1.1259.6675,1.4038,1.4038,0,0,0,1.3448-1.0264c.0195-.08.04-.1391.13-.1391a.1154.1154,0,0,1,.1289.12,1.7031,1.7031,0,0,1-1.6641,1.2949,2.249,2.249,0,0,1-2.1914-2.3012,2.177,2.177,0,0,1,2.0723-2.272,1.7673,1.7673,0,0,1,1.7832,1.9531c0,.209-.0293.209-.2491.209h-2.7793A2.9008,2.9008,0,0,0,744.918,382.6826Zm2.0722-1.7036c0-.3887-.1-1.7339-1.1259-1.7339-.3389,0-1.1758.249-1.2354,1.7339Z" transform="translate(-523.4252 -302.4551)"/>
    </g>
    <path class="cls-1" d="M748.7676,381.0981a1.0613,1.0613,0,0,1-.4278-.8466c0-.5581.378-1.2256,1.5938-1.2256a1.5347,1.5347,0,0,1,.9365.2788,1.3007,1.3007,0,0,0,.17-.1592c.1289-.12.1495-.12.1993-.12.1093,0,.1093.07.1093.2392v1.0064c0,.1889,0,.2392-.13.2392a.1065.1065,0,0,1-.1192-.09,1.0987,1.0987,0,0,0-1.166-1.2056c-.8565,0-1.1162.4082-1.1162.7574,0,.5776.668.707,1.2256.8169a2.0317,2.0317,0,0,1,1.1367.478,1.2874,1.2874,0,0,1,.418.9468c0,.7172-.4581,1.3847-1.6045,1.3847a1.4879,1.4879,0,0,1-1.0957-.4282,2.2418,2.2418,0,0,0-.1993.229c-.1894.19-.1992.1992-.249.1992-.1094,0-.1094-.0693-.1094-.2387v-1.3155c0-.1792,0-.249.129-.249.1,0,.11.04.14.1694.19.8467.5479,1.4151,1.3848,1.4151.7773,0,1.1259-.399,1.1259-.9068,0-.7177-.8164-.8769-1.0361-.917A2.61,2.61,0,0,1,748.7676,381.0981Z" transform="translate(-523.4252 -302.4551)"/>
    <path class="cls-5" d="M728.9359,448.3V405.7806M757.2822,448.3V405.7806M771.4553,448.3V405.7806M785.6285,448.3V405.7806" transform="translate(-523.4252 -302.4551)"/>
    <path class="cls-1" d="M700.0029,425.583c-.1689,0-.3584,0-.3584-.1992s.18-.2.3487-.2h5.8886a4.6807,4.6807,0,0,1-.9961-1.4639c0-.11.13-.11.1895-.11.14,0,.1494.0107.2588.21a4.7956,4.7956,0,0,0,2.8994,2.3711,1.0466,1.0466,0,0,1,.22.08l.0293.0195a.1172.1172,0,0,1,.0108.06c0,.02,0,.05-.02.06-.02.0205-.0293.03-.1993.09a4.7346,4.7346,0,0,0-1.873,1.0264,5.0331,5.0331,0,0,0-1.1358,1.4844c-.04.08-.1093.08-.1894.08-.06,0-.1895,0-.1895-.1093a4.7564,4.7564,0,0,1,.9961-1.4649h-5.8886c-.169,0-.3487,0-.3487-.1992s.1895-.1992.3584-.1992H706.33a5.342,5.342,0,0,1,1.2558-.7676,5.4591,5.4591,0,0,1-1.2558-.7666Z" transform="translate(-523.4252 -302.4551)"/>
    <path class="cls-6" d="M725.3926,434.1269s10.07-14.0536,17.7164-14.1731c5.971-.0933,8.2081,10.7827,14.1732,10.63,9.3178-.2388,11.9323-17.2182,21.26-17.7165,4.306-.23,10.63,7.0866,10.63,7.0866h0" transform="translate(-523.4252 -302.4551)"/>
    <polyline points="221.952 100.774 219.684 96.239 217.416 100.774 219.684 99.641"/>
    <line class="cls-4" x1="219.6839" y1="99.6406" x2="219.6839" y2="149.3883"/>
    <polyline points="268.298 148.113 272.833 145.845 268.298 143.577 269.432 145.845"/>
    <path class="cls-4" d="M721.8493,448.3h71.0075m-63.9209,3.5433v-7.0866m28.3463,7.0866v-7.0866m14.1731,7.0866v-7.0866m14.1732,7.0866v-7.0866" transform="translate(-523.4252 -302.4551)"/>
    <path class="cls-1" d="M744.8037,461.2324a1.8633,1.8633,0,0,1-3.3779.1494,5.0509,5.0509,0,0,1-.4483-2.4013,5.3349,5.3349,0,0,1,.3682-2.2617,1.8278,1.8278,0,0,1,1.7344-1.1856,1.847,1.847,0,0,1,1.6933,1.1152,7.0463,7.0463,0,0,1,.03,4.584Zm-.5683-.3086a19.1766,19.1766,0,0,0,.0107-4.0058c-.1895-.9864-.8477-1.166-1.1758-1.166-.249,0-.9971.09-1.1865,1.2753a20.7212,20.7212,0,0,0,.03,3.9356c.18.957.7675,1.206,1.1562,1.206C743.5186,462.1689,744.0859,461.87,744.2354,460.9238Z" transform="translate(-523.4252 -302.4551)"/>
    <path class="cls-1" d="M751.6328,406.6494a3.9072,3.9072,0,0,0-.17.877c0,.3388.16.6582.5488.6582.3184,0,.9961-.2393,1.3252-1.3057.0195-.0693.0391-.1094.1289-.1094.03,0,.12,0,.12.1,0,.2491-.5683,1.5342-1.5947,1.5342a1.1018,1.1018,0,0,1-1.0762-.7568,1.3231,1.3231,0,0,1-1.0459.7568c-.4384,0-.9365-.1992-.9365-.6572a.566.566,0,0,1,.5479-.5781.3419.3419,0,0,1,.3691.3486.5649.5649,0,0,1-.4687.5381.9551.9551,0,0,0,.498.13c.4385,0,.7871-.419.9463-1.0362a14.4654,14.4654,0,0,0,.5381-2.372c0-.5772-.3487-.667-.5381-.667-.3379,0-.9961.249-1.335,1.3047-.0195.09-.05.11-.1289.11-.0205,0-.12,0-.12-.1,0-.25.5684-1.5352,1.6045-1.5352a1.1019,1.1019,0,0,1,1.0762.7579,1.2869,1.2869,0,0,1,1.0459-.7579c.3388,0,.9267.14.9267.6583a.5548.5548,0,0,1-.5381.5771.3477.3477,0,0,1-.3789-.3486.5785.5785,0,0,1,.4786-.5381.9809.9809,0,0,0-.4981-.1289c-.6973,0-.9267.916-.9863,1.1758Z" transform="translate(-523.4252 -302.4551)"/>
    <path class="cls-1" d="M755.46,410.7852v-9.9639h1.3652v.3984h-.9668v9.167h.9668v.3985Z" transform="translate(-523.4252 -302.4551)"/>
    <path class="cls-1" d="M758.4971,405.4043a3.2321,3.2321,0,0,0,.1592-.8369c0-.3291-.1094-.458-.3086-.458-.3594,0-.5586.4775-.7276,1.1855-.06.2188-.07.23-.17.23-.0195,0-.1191,0-.1191-.1a5.0351,5.0351,0,0,1,.2988-.9668.87.87,0,0,1,.7471-.5684.9009.9009,0,0,1,.9169.8672,1.9238,1.9238,0,0,1,1.5547-.8672,1.0181,1.0181,0,0,1,1.1455,1.0665,9.0048,9.0048,0,0,1-.6074,2.1923,1.8952,1.8952,0,0,0-.18.7071c0,.2295.0694.3291.2393.3291.4883,0,.8164-.5586,1.0156-1.2354.0508-.1494.0508-.18.15-.18.0293,0,.1191,0,.1191.1,0,.08-.3691,1.5342-1.3056,1.5342a.7957.7957,0,0,1-.8164-.8164,1.1329,1.1329,0,0,1,.1-.459,9.4855,9.4855,0,0,0,.6474-2.3213c0-.3291-.09-.6972-.538-.6972a1.9828,1.9828,0,0,0-1.6241,1.2148c-.01.04-.09.3291-.13.499-.05.2286-.1094.4483-.169.667l-.22.8975c-.06.249-.1787.7168-.1895.7373a.4058.4058,0,0,1-.3681.2783.2666.2666,0,0,1-.2891-.2685c0-.05.06-.2793.09-.4287Z" transform="translate(-523.4252 -302.4551)"/>
    <path class="cls-1" d="M764.626,410.7852h-1.3653v-.3985h.9668V401.22h-.9668v-.3984h1.3653Z" transform="translate(-523.4252 -302.4551)"/>
    <path class="cls-1" d="M801.8018,447.5605a3.23,3.23,0,0,0,.1591-.8369c0-.3291-.1093-.458-.3086-.458-.3593,0-.5585.4776-.7275,1.1856-.06.2187-.07.23-.17.23-.0195,0-.1192,0-.1192-.1a5.0336,5.0336,0,0,1,.2989-.9668.87.87,0,0,1,.747-.5684.9009.9009,0,0,1,.917.8672,1.9238,1.9238,0,0,1,1.5547-.8672,1.018,1.018,0,0,1,1.1455,1.0664,9.0043,9.0043,0,0,1-.6074,2.1924,1.8947,1.8947,0,0,0-.18.707c0,.2295.0694.3291.2393.3291.4883,0,.8164-.5586,1.0156-1.2353.0508-.1494.0508-.18.15-.18.0293,0,.1191,0,.1191.1,0,.08-.3691,1.5342-1.3056,1.5342a.7957.7957,0,0,1-.8164-.8164,1.1326,1.1326,0,0,1,.1-.459,9.4868,9.4868,0,0,0,.6474-2.3213c0-.3291-.09-.6973-.5381-.6973a1.9827,1.9827,0,0,0-1.624,1.2149c-.01.04-.09.3291-.13.499-.05.2285-.1093.4482-.1689.667l-.22.8974c-.06.2491-.1787.7168-.1895.7374a.4058.4058,0,0,1-.3681.2783.2666.2666,0,0,1-.2891-.2686c0-.05.06-.2793.09-.4287Z" transform="translate(-523.4252 -302.4551)"/>
    <g>
      <path class="cls-1" d="M757.69,461.3818c0,.3682.0293.4786.9268.4786h.3183v.3085c-.3486-.03-1.2158-.03-1.6142-.03s-1.2656,0-1.6143.03V461.86h.3194c.8965,0,.9267-.12.9267-.4786v-5.1611a2.9891,2.9891,0,0,1-1.3056.2588v-.3086a2.4616,2.4616,0,0,0,1.8134-.6377c.2295,0,.2295.0195.2295.2588Z" transform="translate(-523.4252 -302.4551)"/>
      <path class="cls-1" d="M771.9961,461.4014a.7989.7989,0,0,0,1.166-.9659h.249l-.2783,1.7334h-3.6973c0-.2392,0-.2587.1094-.3691l1.9131-2.1318a3.5682,3.5682,0,0,0,1.0469-2.2022c0-.8174-.4287-1.624-1.336-1.624a1.438,1.438,0,0,0-1.3447,1.0166.3882.3882,0,0,1,.13-.01.5034.5034,0,0,1,.5273.5176.5235.5235,0,1,1-1.0459-.03,1.84,1.84,0,0,1,1.8633-1.8027,1.957,1.957,0,0,1,2.1123,1.9326c0,.9961-.5976,1.5342-2.1523,2.9092l-1.0557,1.0264Z" transform="translate(-523.4252 -302.4551)"/>
      <path class="cls-1" d="M787.668,460.4648a2.0324,2.0324,0,0,1-2.1221,1.9229,1.8165,1.8165,0,0,1-2.0127-1.5635.5578.5578,0,1,1,1.1152-.0205.5453.5453,0,0,1-.6572.5479,1.8134,1.8134,0,0,0,1.5244.7578c.4385,0,1.126-.2891,1.126-1.6446,0-.9765-.3691-1.6533-1.1855-1.6533h-.4385c-.17,0-.2393,0-.2393-.11,0-.1.0694-.1094.1494-.1192.0694,0,.3086-.02.3887-.03a.9658.9658,0,0,0,.8867-.5176,2.4934,2.4934,0,0,0,.2793-1.1358c0-.8974-.5488-1.1162-.957-1.1162a1.6139,1.6139,0,0,0-1.3252.6172c.1494,0,.6182,0,.6182.499a.5084.5084,0,1,1-1.0166-.0107c0-.7568.7568-1.3545,1.7636-1.3545.9561,0,1.833.5576,1.833,1.375a1.8047,1.8047,0,0,0,.27,3.5566Z" transform="translate(-523.4252 -302.4551)"/>
    </g>
    <g>
      <path class="cls-1" d="M724.8467,460.3057v-.5782h2.6406v.5782Z" transform="translate(-523.4252 -302.4551)"/>
      <path class="cls-1" d="M731.0244,461.3818c0,.3682.0293.4786.9268.4786h.3183v.3085c-.3486-.03-1.2158-.03-1.6142-.03s-1.2657,0-1.6143.03V461.86h.3194c.8964,0,.9267-.12.9267-.4786v-5.1611a2.9892,2.9892,0,0,1-1.3057.2588v-.3086a2.4617,2.4617,0,0,0,1.8135-.6377c.23,0,.23.0195.23.2588Z" transform="translate(-523.4252 -302.4551)"/>
    </g>
    <path class="cls-7" d="M728.9359,448.3V430.5837M757.2822,448.3V430.5837M771.4553,448.3V419.9538" transform="translate(-523.4252 -302.4551)"/>
    <line class="cls-8" x1="262.2033" y1="145.845" x2="262.2033" y2="113.9554"/>
    <path class="cls-1" d="M785.6035,418.01a1.9331,1.9331,0,1,1,1.9326-1.9336A1.9438,1.9438,0,0,1,785.6035,418.01Z" transform="translate(-523.4252 -302.4551)"/>
    <path class="cls-1" d="M771.4316,421.5566a1.9331,1.9331,0,1,1,1.9327-1.9336A1.9438,1.9438,0,0,1,771.4316,421.5566Z" transform="translate(-523.4252 -302.4551)"/>
    <path class="cls-1" d="M757.252,432.1816a1.9331,1.9331,0,1,1,1.9326-1.9336A1.9439,1.9439,0,0,1,757.252,432.1816Z" transform="translate(-523.4252 -302.4551)"/>
    <path class="cls-1" d="M743.08,421.5566a1.9331,1.9331,0,1,1,1.9326-1.9336A1.9439,1.9439,0,0,1,743.08,421.5566Z" transform="translate(-523.4252 -302.4551)"/>
    <path class="cls-1" d="M728.9082,432.1816a1.9331,1.9331,0,1,1,1.9326-1.9336A1.9439,1.9439,0,0,1,728.9082,432.1816Z" transform="translate(-523.4252 -302.4551)"/>
    <line class="cls-7" x1="219.6839" y1="145.845" x2="219.6839" y2="117.4987"/>
    <path class="cls-1" d="M600.7852,425.583c-.17,0-.3589,0-.3589-.1992s.18-.2.3491-.2h5.8887a4.6831,4.6831,0,0,1-.9966-1.4639c0-.11.1294-.11.1894-.11.1392,0,.1494.0107.2588.21a4.7939,4.7939,0,0,0,2.9,2.3711,1.0029,1.0029,0,0,1,.2188.08l.03.0195a.1277.1277,0,0,1,.01.06c0,.02,0,.05-.02.06-.02.0205-.03.03-.1992.09a4.7309,4.7309,0,0,0-1.8731,1.0264,5.0378,5.0378,0,0,0-1.1362,1.4844c-.04.08-.1094.08-.189.08-.06,0-.1894,0-.1894-.1093a4.74,4.74,0,0,1,.9966-1.4649h-5.8887c-.1694,0-.3491,0-.3491-.1992s.1894-.1992.3589-.1992h6.3271a5.33,5.33,0,0,1,1.2554-.7676,5.46,5.46,0,0,1-1.2554-.7666Z" transform="translate(-523.4252 -302.4551)"/>
    <path class="cls-9" d="M626.1805,434.1269s10.07-14.0536,17.7165-14.1731c5.971-.0933,8.2081,10.7827,14.1731,10.63,9.3178-.2388,11.9324-17.2182,21.26-17.7165,4.3059-.23,10.63,7.0866,10.63,7.0866h0" transform="translate(-523.4252 -302.4551)"/>
    <polyline points="122.739 100.774 120.472 96.239 118.204 100.774 120.472 99.641"/>
    <line class="cls-4" x1="120.4718" y1="99.6406" x2="120.4718" y2="149.3883"/>
    <polyline points="169.086 148.113 173.621 145.845 169.086 143.577 170.22 145.845"/>
    <path class="cls-4" d="M622.6373,448.3h71.0074m-63.9209,3.5433v-7.0866m28.3463,7.0866v-7.0866m14.1732,7.0866v-7.0866m14.1732,7.0866v-7.0866" transform="translate(-523.4252 -302.4551)"/>
    <path class="cls-1" d="M645.5933,461.2324a1.8634,1.8634,0,0,1-3.378.1494,5.0448,5.0448,0,0,1-.4482-2.4013,5.3289,5.3289,0,0,1,.3686-2.2617,1.8264,1.8264,0,0,1,1.7339-1.1856,1.8477,1.8477,0,0,1,1.6939,1.1152,7.0436,7.0436,0,0,1,.03,4.584Zm-.5679-.3086a19.2564,19.2564,0,0,0,.01-4.0058c-.19-.9864-.8467-1.166-1.1758-1.166-.249,0-.9961.09-1.1856,1.2753a13.3926,13.3926,0,0,0-.08,1.834,13.5954,13.5954,0,0,0,.1094,2.1016c.1792.957.7671,1.206,1.1558,1.206C644.3076,462.1689,644.876,461.87,645.0254,460.9238Z" transform="translate(-523.4252 -302.4551)"/>
    <path class="cls-1" d="M650.3833,406.6494a3.87,3.87,0,0,0-.1694.877c0,.3388.1591.6582.5478.6582.3189,0,.9966-.2393,1.3252-1.3057.02-.0693.04-.1094.13-.1094.03,0,.12,0,.12.1,0,.2491-.5683,1.5342-1.5947,1.5342a1.1,1.1,0,0,1-1.0757-.7568,1.3253,1.3253,0,0,1-1.0464.7568c-.4384,0-.9365-.1992-.9365-.6572a.566.566,0,0,1,.5479-.5781.3415.3415,0,0,1,.3686.3486.5644.5644,0,0,1-.4683.5381.9565.9565,0,0,0,.4981.13c.4385,0,.7871-.419.9468-1.0362a14.5248,14.5248,0,0,0,.5381-2.372c0-.5772-.3487-.667-.5381-.667-.3389,0-.9966.249-1.335,1.3047-.02.09-.05.11-.13.11-.02,0-.12,0-.12-.1,0-.25.5684-1.5352,1.6045-1.5352a1.102,1.102,0,0,1,1.0762.7579,1.2885,1.2885,0,0,1,1.0459-.7579c.3388,0,.9267.14.9267.6583a.5551.5551,0,0,1-.5381.5771.347.347,0,0,1-.3784-.3486.5784.5784,0,0,1,.478-.5381.98.98,0,0,0-.498-.1289c-.6978,0-.9268.916-.9863,1.1758Z" transform="translate(-523.4252 -302.4551)"/>
    <path class="cls-1" d="M655.3774,406.8594a1.0779,1.0779,0,0,0-.5507.1328.5935.5935,0,0,0-.2788.4463c0,.1533.1254.3.3833.3486.0419.0137.2163.041.2792.0557.2579.0488.9625.1738.9625.8154,0,.2725-.2374,1.15-1.5206,1.15-.6762,0-1.1225-.2578-1.1225-.6758a.4232.4232,0,0,1,.4043-.4678.249.249,0,0,1,.272.2588.4138.4138,0,0,1-.3833.3975,1.07,1.07,0,0,0,.8369.292,1.4966,1.4966,0,0,0,.6972-.1533.7054.7054,0,0,0,.37-.5577c0-.3486-.4463-.4326-.5928-.46-.4815-.084-.6069-.1113-.7881-.251a.6671.6671,0,0,1-.2441-.5088,1.1343,1.1343,0,0,1,1.2832-1.0185c.4253,0,.9272.1533.9272.6064a.3479.3479,0,0,1-.3345.3975.2238.2238,0,0,1-.23-.2227.3581.3581,0,0,1,.2929-.3281A.8049.8049,0,0,0,655.3774,406.8594Z" transform="translate(-523.4252 -302.4551)"/>
    <path class="cls-1" d="M660.5532,410.7852a4.3,4.3,0,0,1-1.5542-1.8731,7.6737,7.6737,0,0,1-.03-6.1484,4.3346,4.3346,0,0,1,1.584-1.9424.0889.0889,0,0,1,.1.1c0,.0293,0,.05-.1294.1689a6.5186,6.5186,0,0,0-1.604,4.7129,6.6013,6.6013,0,0,0,1.5645,4.6631c.1689.17.1689.19.1689.22A.0894.0894,0,0,1,660.5532,410.7852Z" transform="translate(-523.4252 -302.4551)"/>
    <path class="cls-1" d="M662.5063,407.248a1.5916,1.5916,0,0,0-.06.4776c0,.3291.1.459.3091.459.3388,0,.8667-.2393,1.2954-1.2754.05-.1094.06-.14.1494-.14.0395,0,.12,0,.12.1,0,.08-.5683,1.5342-1.5844,1.5342a.8782.8782,0,0,1-.9166-.916,25.5793,25.5793,0,0,1,.7569-3.1787h-.8765c-.1992,0-.2793,0-.2793-.12,0-.1895.1-.1895.2993-.1895h.9366l.3886-1.584a.4248.4248,0,0,1,.3985-.3584.2618.2618,0,0,1,.289.2686c0,.06-.05.26-.4087,1.6738h.877c.1792,0,.2788,0,.2788.11,0,.1992-.1.1992-.2988.1992h-.9365Z" transform="translate(-523.4252 -302.4551)"/>
    <path class="cls-1" d="M667.0366,408.8418a4.34,4.34,0,0,1-1.5845,1.9434.0944.0944,0,0,1-.1-.1c0-.03,0-.05.1294-.17a6.5306,6.5306,0,0,0,1.6045-4.7129,6.4645,6.4645,0,0,0-1.5444-4.6533c-.19-.1787-.19-.1992-.19-.2285a.0938.0938,0,0,1,.1-.1,4.3011,4.3011,0,0,1,1.5547,1.873,7.6759,7.6759,0,0,1,.03,6.1475Z" transform="translate(-523.4252 -302.4551)"/>
    <path class="cls-1" d="M703.6465,450.373a1.59,1.59,0,0,0-.06.4776c0,.3291.1.459.3086.459.3389,0,.8672-.2393,1.2949-1.2754.05-.1094.0606-.14.1494-.14.04,0,.12,0,.12.1,0,.08-.5684,1.5342-1.585,1.5342a.8783.8783,0,0,1-.916-.916,25.7035,25.7035,0,0,1,.7568-3.1787h-.8769c-.1993,0-.2784,0-.2784-.12,0-.1895.1-.1895.2989-.1895h.9365l.3887-1.584a.4247.4247,0,0,1,.3984-.3584.2621.2621,0,0,1,.2891.2686c0,.06-.05.26-.4092,1.6738h.8769c.18,0,.2793,0,.2793.11,0,.1992-.1.1992-.2988.1992h-.9365Z" transform="translate(-523.4252 -302.4551)"/>
    <polyline class="cls-2" points="109.133 133.798 106.299 128.129 103.464 133.798 106.299 132.381"/>
    <line class="cls-7" x1="106.2986" y1="145.845" x2="106.2986" y2="132.3805"/>
    <polyline class="cls-2" points="137.48 133.798 134.645 128.129 131.81 133.798 134.645 132.381"/>
    <line class="cls-7" x1="134.6449" y1="145.845" x2="134.6449" y2="132.3805"/>
    <polyline class="cls-2" points="151.653 123.168 148.818 117.499 145.983 123.168 148.818 121.751"/>
    <line class="cls-7" x1="148.8181" y1="145.845" x2="148.8181" y2="121.7507"/>
    <polyline class="cls-10" points="165.826 119.625 162.991 113.955 160.157 119.625 162.991 118.207"/>
    <line class="cls-8" x1="162.9913" y1="145.845" x2="162.9913" y2="118.2074"/>
    <polyline class="cls-2" points="123.306 123.168 120.472 117.499 117.637 123.168 120.472 121.751"/>
    <line class="cls-7" x1="120.4718" y1="145.845" x2="120.4718" y2="121.7507"/>
    <line class="cls-11" x1="99.2121" y1="145.845" x2="170.0778" y2="145.845"/>
    <path class="cls-1" d="M677.2217,464.3574a.8684.8684,0,0,0-.04.209c0,.1592.08.19.3687.2188.2588.0205.3887.0205.6377.0205.2588,0,.3388,0,.3388.1093,0,.1993-.12.1993-.2192.1993-.2793,0-.5781-.02-.8672-.02-.269,0-.5478-.0107-.8266-.0107s-.5679.0107-.8472.0107c-.2691,0-.5479.02-.8169.02-.06,0-.1694,0-.1694-.1192,0-.1894.0595-.1894.4184-.1894,1.0659,0,1.0962-.11,1.1856-.4786l1.3354-5.3212a.9824.9824,0,0,0,.04-.209c0-.0791,0-.1192-.2788-.1192h-.3887c-1.4746,0-1.7339.1787-2.2715,1.7237-.06.1591-.07.209-.1694.209a.1131.1131,0,0,1-.12-.1094,1.3262,1.3262,0,0,1,.06-.18l.5982-1.7529c.0693-.19.08-.2.3188-.2h5.53c.1694,0,.269,0,.269.11a1.0762,1.0762,0,0,1-.02.169l-.269,1.7343c-.02.1495-.04.2286-.1494.2286a.1166.1166,0,0,1-.12-.129,1.4759,1.4759,0,0,1,.03-.1894,7.3686,7.3686,0,0,0,.08-.7979c0-.7763-.4487-.8164-1.4551-.8164a5.5207,5.5207,0,0,0-.6274.02c-.12.03-.16.09-.2295.3691Z" transform="translate(-523.4252 -302.4551)"/>
    <path class="cls-1" d="M682.51,463.6641a1.078,1.078,0,0,0-.5508.1328.5938.5938,0,0,0-.2788.4463c0,.1533.1255.3.3833.3486.042.0137.2163.041.2793.0557.2578.0488.9614.1738.9614.8154,0,.2725-.2373,1.15-1.5195,1.15-.6763,0-1.1226-.2578-1.1226-.6758a.4232.4232,0,0,1,.4043-.4678.249.249,0,0,1,.272.2588.4138.4138,0,0,1-.3833.3975,1.07,1.07,0,0,0,.8369.292,1.4957,1.4957,0,0,0,.6972-.1534.7051.7051,0,0,0,.37-.5576c0-.3486-.4463-.4326-.5928-.46a1.5188,1.5188,0,0,1-.7881-.251.6675.6675,0,0,1-.2441-.5088,1.1343,1.1343,0,0,1,1.2832-1.0185c.4253,0,.9267.1533.9267.6064a.3479.3479,0,0,1-.3349.3975.2236.2236,0,0,1-.23-.2227.3581.3581,0,0,1,.293-.3281A.8052.8052,0,0,0,682.51,463.6641Z" transform="translate(-523.4252 -302.4551)"/>
    <polyline points="153.354 150.664 148.818 152.932 153.354 155.199 152.22 152.932"/>
    <polyline points="158.456 155.199 162.991 152.932 158.456 150.664 159.59 152.932"/>
    <line class="cls-4" x1="152.2197" y1="152.9316" x2="159.5897" y2="152.9316"/>
    <path class="cls-3" d="M526.9685,434.1269s10.07-14.0536,17.7164-14.1731c5.971-.0933,8.2081,10.7827,14.1732,10.63,9.3177-.2388,11.9323-17.2182,21.26-17.7165,4.3059-.23,10.63,7.0866,10.63,7.0866h0" transform="translate(-523.4252 -302.4551)"/>
    <polyline points="23.527 100.774 21.26 96.239 18.992 100.774 21.26 99.641"/>
    <line class="cls-4" x1="21.2597" y1="99.6406" x2="21.2597" y2="149.3883"/>
    <polyline points="69.874 148.113 74.409 145.845 69.874 143.577 71.007 145.845"/>
    <path class="cls-4" d="M523.4252,448.3h71.0075m-63.9209,3.5433v-7.0866m28.3463,7.0866v-7.0866m14.1731,7.0866v-7.0866m14.1732,7.0866v-7.0866" transform="translate(-523.4252 -302.4551)"/>
    <path class="cls-1" d="M546.3823,461.2324a1.8633,1.8633,0,0,1-3.3779.1494,5.0448,5.0448,0,0,1-.4482-2.4013,5.3289,5.3289,0,0,1,.3686-2.2617,1.8263,1.8263,0,0,1,1.7339-1.1856,1.8476,1.8476,0,0,1,1.6938,1.1152,7.0418,7.0418,0,0,1,.03,4.584Zm-.5678-.3086a19.2653,19.2653,0,0,0,.01-4.0058c-.1894-.9864-.8467-1.166-1.1758-1.166-.249,0-.9961.09-1.1855,1.2753a13.3926,13.3926,0,0,0-.08,1.834,13.5954,13.5954,0,0,0,.1094,2.1016c.1792.957.7671,1.206,1.1557,1.206C545.0967,462.1689,545.665,461.87,545.8145,460.9238Z" transform="translate(-523.4252 -302.4551)"/>
    <path class="cls-1" d="M553.3286,406.6494a3.8757,3.8757,0,0,0-.1694.877c0,.3388.1592.6582.5478.6582.3189,0,.9966-.2393,1.3252-1.3057.02-.0693.04-.1094.13-.1094.03,0,.12,0,.12.1,0,.2491-.5683,1.5342-1.5947,1.5342a1.1006,1.1006,0,0,1-1.0757-.7568,1.3249,1.3249,0,0,1-1.0464.7568c-.4384,0-.9365-.1992-.9365-.6572a.566.566,0,0,1,.5479-.5781.3415.3415,0,0,1,.3686.3486.5644.5644,0,0,1-.4682.5381.956.956,0,0,0,.498.13c.4385,0,.7871-.419.9468-1.0362a14.5248,14.5248,0,0,0,.5381-2.372c0-.5772-.3487-.667-.5381-.667-.3389,0-.9966.249-1.335,1.3047-.02.09-.05.11-.13.11-.02,0-.12,0-.12-.1,0-.25.5684-1.5352,1.6045-1.5352a1.1019,1.1019,0,0,1,1.0762.7579,1.2885,1.2885,0,0,1,1.0459-.7579c.3388,0,.9267.14.9267.6583a.5551.5551,0,0,1-.5381.5771.347.347,0,0,1-.3784-.3486.5784.5784,0,0,1,.4781-.5381.9809.9809,0,0,0-.4981-.1289c-.6977,0-.9267.916-.9863,1.1758Z" transform="translate(-523.4252 -302.4551)"/>
    <path class="cls-1" d="M559.1782,410.7852a4.3,4.3,0,0,1-1.5542-1.8731,7.6737,7.6737,0,0,1-.03-6.1484,4.3346,4.3346,0,0,1,1.584-1.9424.0889.0889,0,0,1,.1.1c0,.0293,0,.05-.1294.1689a6.5186,6.5186,0,0,0-1.604,4.7129,6.6013,6.6013,0,0,0,1.5645,4.6631c.1689.17.1689.19.1689.22A.0894.0894,0,0,1,559.1782,410.7852Z" transform="translate(-523.4252 -302.4551)"/>
    <path class="cls-1" d="M561.1313,407.248a1.5916,1.5916,0,0,0-.06.4776c0,.3291.1.459.3091.459.3388,0,.8667-.2393,1.2954-1.2754.05-.1094.06-.14.1494-.14.0395,0,.12,0,.12.1,0,.08-.5683,1.5342-1.5844,1.5342a.8782.8782,0,0,1-.9166-.916,25.5793,25.5793,0,0,1,.7569-3.1787h-.8765c-.1992,0-.2793,0-.2793-.12,0-.1895.1-.1895.2993-.1895h.9366l.3886-1.584a.4248.4248,0,0,1,.3985-.3584.2618.2618,0,0,1,.289.2686c0,.06-.05.26-.4087,1.6738h.877c.1792,0,.2788,0,.2788.11,0,.1992-.1.1992-.2988.1992h-.9365Z" transform="translate(-523.4252 -302.4551)"/>
    <path class="cls-1" d="M565.6694,408.8418a4.3409,4.3409,0,0,1-1.5844,1.9434.0943.0943,0,0,1-.1-.1c0-.03,0-.05.1293-.17a6.5306,6.5306,0,0,0,1.6045-4.7129,6.4645,6.4645,0,0,0-1.5444-4.6533c-.1894-.1787-.1894-.1992-.1894-.2285a.0938.0938,0,0,1,.1-.1,4.3019,4.3019,0,0,1,1.5546,1.873,7.6759,7.6759,0,0,1,.03,6.1475Z" transform="translate(-523.4252 -302.4551)"/>
    <path class="cls-1" d="M604.436,450.373a1.5916,1.5916,0,0,0-.06.4776c0,.3291.1.459.3091.459.3388,0,.8667-.2393,1.2954-1.2754.05-.1094.0595-.14.1494-.14.0395,0,.12,0,.12.1,0,.08-.5683,1.5342-1.5845,1.5342a.8782.8782,0,0,1-.9165-.916,25.5793,25.5793,0,0,1,.7569-3.1787h-.8765c-.1992,0-.2793,0-.2793-.12,0-.1895.1-.1895.2993-.1895h.9365l.3887-1.584a.4248.4248,0,0,1,.3985-.3584.2618.2618,0,0,1,.289.2686c0,.06-.05.26-.4087,1.6738h.877c.1792,0,.2788,0,.2788.11,0,.1992-.1.1992-.2988.1992h-.9366Z" transform="translate(-523.4252 -302.4551)"/>
    <path class="cls-1" d="M578.0107,464.3574a.87.87,0,0,0-.04.209c0,.1592.08.19.3686.2188.2588.0205.3887.0205.6377.0205.2588,0,.3389,0,.3389.1093,0,.1993-.12.1993-.2192.1993-.2793,0-.5782-.02-.8672-.02-.2691,0-.5479-.0107-.8267-.0107s-.5679.0107-.8471.0107c-.2691,0-.5479.02-.8169.02-.06,0-.1695,0-.1695-.1192,0-.1894.06-.1894.4185-.1894,1.0659,0,1.0962-.11,1.1855-.4786l1.3355-5.3212a.9894.9894,0,0,0,.0395-.209c0-.0791,0-.1192-.2788-.1192h-.3887c-1.4746,0-1.7338.1787-2.2714,1.7237-.06.1591-.07.209-.17.209a.1131.1131,0,0,1-.12-.1094,1.3262,1.3262,0,0,1,.06-.18l.5981-1.7529c.0694-.19.08-.2.3189-.2h5.53c.1695,0,.2691,0,.2691.11a1.0882,1.0882,0,0,1-.02.169l-.2691,1.7343c-.02.1495-.0395.2286-.1494.2286a.1166.1166,0,0,1-.12-.129,1.4759,1.4759,0,0,1,.03-.1894,7.3648,7.3648,0,0,0,.08-.7979c0-.7763-.4487-.8164-1.455-.8164a5.5236,5.5236,0,0,0-.6275.02c-.12.03-.16.09-.2295.3691Z" transform="translate(-523.4252 -302.4551)"/>
    <path class="cls-1" d="M583.2993,463.6641a1.0785,1.0785,0,0,0-.5508.1328.5938.5938,0,0,0-.2788.4463c0,.1533.1255.3.3833.3486.042.0137.2163.041.2793.0557.2578.0488.9624.1738.9624.8154,0,.2725-.2373,1.15-1.52,1.15-.6763,0-1.1225-.2578-1.1225-.6758a.4232.4232,0,0,1,.4043-.4678.249.249,0,0,1,.2719.2588.4138.4138,0,0,1-.3833.3975,1.07,1.07,0,0,0,.8369.292,1.4963,1.4963,0,0,0,.6973-.1534.705.705,0,0,0,.37-.5576c0-.3486-.4463-.4326-.5927-.46-.4815-.084-.607-.1114-.7881-.251a.6672.6672,0,0,1-.2442-.5088,1.1344,1.1344,0,0,1,1.2832-1.0185c.4253,0,.9273.1533.9273.6064a.348.348,0,0,1-.3345.3975.2239.2239,0,0,1-.2305-.2227.3582.3582,0,0,1,.293-.3281A.8049.8049,0,0,0,583.2993,463.6641Z" transform="translate(-523.4252 -302.4551)"/>
    <polyline points="54.141 150.664 49.606 152.932 54.141 155.199 53.008 152.932"/>
    <polyline points="59.244 155.199 63.779 152.932 59.244 150.664 60.378 152.932"/>
    <line class="cls-4" x1="53.0076" y1="152.9316" x2="60.3776" y2="152.9316"/>
  </g>
</svg>
