<svg id="Layer_1" data-name="Layer 1" xmlns="http://www.w3.org/2000/svg" viewBox="0 0 729.75 315"><defs><style>.cls-1{fill:#fff;}.cls-13,.cls-14,.cls-2,.cls-3,.cls-7,.cls-8,.cls-9{fill:none;}.cls-2{stroke:#dfdfdf;}.cls-13,.cls-14,.cls-2,.cls-3,.cls-7,.cls-9{stroke-linejoin:round;}.cls-2,.cls-3,.cls-7{stroke-width:0.5px;}.cls-3,.cls-7{stroke:#262626;}.cls-3{stroke-linecap:square;}.cls-10,.cls-4{font-size:9.5px;}.cls-10,.cls-12,.cls-4,.cls-5{fill:#4a4a49;font-family:Helvetica, Helvetica;}.cls-5,.cls-6{font-size:10.45px;}.cls-6{fill:#1d1d1b;font-family:Helvetica-Bold, Helvetica;font-weight:700;}.cls-8,.cls-9{stroke:blue;}.cls-8{stroke-miterlimit:10;}.cls-13,.cls-14,.cls-8,.cls-9{stroke-width:2px;}.cls-10{letter-spacing:7.866em;}.cls-11{fill:#262626;}.cls-12{font-size:8.36px;}.cls-13{stroke:red;}.cls-14{stroke:#f0f;}</style></defs><title>FTDBlock</title><rect class="cls-1" width="729.75" height="315"/><rect class="cls-1" width="729.75" height="315"/><rect class="cls-1" x="94.5" y="24" width="156" height="256.5"/><path class="cls-2" d="M412.5,507.5V251m36.947,256.5V251m82.106,256.5V251M568.5,507.5V251m0,256.5h-156m156-171h-156" transform="translate(-318 -227)"/><path class="cls-3" d="M412.5,507.5V251m156,256.5V251m-156,256.5h2.565m-2.565-171h2.565M568.5,507.5h-2.565m2.565-171h-2.565" transform="translate(-318 -227)"/><text class="cls-4" transform="translate(85.094 284.25)">0</text><text class="cls-4" transform="translate(85.094 113.25)">1</text><text class="cls-5" transform="translate(79.602 160.875) rotate(-90)">x[n]</text><text class="cls-6" transform="translate(103.875 19.039)">Block u[n]-u[n-N] with N=21</text><line class="cls-7" x1="94.5" y1="280.5" x2="250.5" y2="280.5"/><path class="cls-8" d="M415.5,507.5a3,3,0,1,0-3,3,3,3,0,0,0,3-3Zm4.105,0a3,3,0,1,0-3,3,3,3,0,0,0,3-3Zm4.106,0a3,3,0,1,0-3,3,3,3,0,0,0,3-3Zm4.1,0a3,3,0,1,0-3,3,3,3,0,0,0,3-3Zm4.105,0a3,3,0,1,0-3,3,3,3,0,0,0,3-3Zm4.105,0a3,3,0,1,0-3,3,3,3,0,0,0,3-3Zm4.106,0a3,3,0,1,0-3,3,3,3,0,0,0,3-3Zm4.105,0a3,3,0,1,0-3,3,3,3,0,0,0,3-3Zm4.1,0a3,3,0,1,0-3,3,3,3,0,0,0,3-3Zm4.105-171a3,3,0,1,0-3,3,3,3,0,0,0,3-3Zm4.106,0a3,3,0,1,0-3,3,3,3,0,0,0,3-3Zm4.105,0a3,3,0,1,0-3,3,3,3,0,0,0,3-3Zm4.1,0a3,3,0,1,0-3,3,3,3,0,0,0,3-3Zm4.105,0a3,3,0,1,0-3,3,3,3,0,0,0,3-3Zm4.106,0a3,3,0,1,0-3,3,3,3,0,0,0,3-3Zm4.105,0a3,3,0,1,0-3,3,3,3,0,0,0,3-3Zm4.105,0a3,3,0,1,0-3,3,3,3,0,0,0,3-3Zm4.1,0a3,3,0,1,0-3,3,3,3,0,0,0,3-3Zm4.106,0a3,3,0,1,0-3,3,3,3,0,0,0,3-3Zm4.105,0a3,3,0,1,0-3,3,3,3,0,0,0,3-3Zm4.105,0a3,3,0,1,0-3,3,3,3,0,0,0,3-3Zm4.106,0a3,3,0,1,0-3,3,3,3,0,0,0,3-3Zm4.1,0a3,3,0,1,0-3,3,3,3,0,0,0,3-3Zm4.105,0a3,3,0,1,0-3,3,3,3,0,0,0,3-3Zm4.1,0a3,3,0,1,0-3,3,3,3,0,0,0,3-3Zm4.106,0a3,3,0,1,0-3,3,3,3,0,0,0,3-3Zm4.105,0a3,3,0,1,0-3,3,3,3,0,0,0,3-3Zm4.105,0a3,3,0,1,0-3,3,3,3,0,0,0,3-3Zm4.105,0a3,3,0,1,0-3,3,3,3,0,0,0,3-3Zm4.106,0a3,3,0,1,0-3,3,3,3,0,0,0,3-3Zm4.105,171a3,3,0,1,0-3,3,3,3,0,0,0,3-3Zm4.105,0a3,3,0,1,0-3,3,3,3,0,0,0,3-3Zm4.105,0a3,3,0,1,0-3,3,3,3,0,0,0,3-3Zm4.106,0a3,3,0,1,0-3,3,3,3,0,0,0,3-3Zm4.1,0a3,3,0,1,0-3,3,3,3,0,0,0,3-3Zm4.105,0a3,3,0,1,0-3,3,3,3,0,0,0,3-3Zm4.105,0a3,3,0,1,0-3,3,3,3,0,0,0,3-3Zm4.106,0a3,3,0,1,0-3,3,3,3,0,0,0,3-3Zm4.105,0a3,3,0,1,0-3,3,3,3,0,0,0,3-3Z" transform="translate(-318 -227)"/><path class="cls-9" d="M412.5,507.5h0m4.105,0h0m4.1,0h0m4.106,0h0m4.105,0h0m4.105,0h0m4.106,0h0m4.105,0h0m4.1,0h0m4.105,0v-171m4.106,171v-171m4.105,171v-171m4.1,171v-171m4.105,171v-171m4.106,171v-171m4.105,171v-171m4.105,171v-171m4.106,171v-171m4.1,171v-171m4.105,171v-171m4.105,171v-171m4.1,171v-171m4.106,171v-171m4.105,171v-171m4.105,171v-171m4.106,171v-171m4.105,171v-171m4.105,171v-171m4.105,171v-171m4.106,171v-171m4.105,171h0m4.105,0h0m4.105,0h0m4.106,0h0m4.1,0h0m4.105,0h0m4.106,0h0m4.105,0h0m4.105,0h0" transform="translate(-318 -227)"/><path class="cls-3" d="M412.5,507.5h156M412.5,251h156m-156,256.5v-2.565m36.947,2.565v-2.565m82.106,2.565v-2.565M568.5,507.5v-2.565M412.5,251v2.565M449.447,251v2.565M531.553,251v2.565M568.5,251v2.565" transform="translate(-318 -227)"/><text class="cls-4" transform="translate(88.875 293.648)">....</text><text class="cls-10" transform="translate(128.445 293.648)">02</text><text class="cls-4" transform="translate(212.672 293.648)">0</text><text class="cls-4" transform="translate(244.875 293.648)">....</text><text class="cls-5" transform="translate(169.5 307.141)">n</text><rect class="cls-1" x="300" y="24" width="155.25" height="256.5"/><path class="cls-2" d="M618,507.5V251m38.813,256.5V251m38.812,256.5V251m38.813,256.5V251M773.25,507.5V251m0,256.5H618m155.25-24.428H618m155.25-24.429H618m155.25-24.428H618m155.25-24.43H618m155.25-24.428H618m155.25-24.429H618M773.25,336.5H618m155.25-24.428H618m155.25-24.429H618m155.25-24.428H618" transform="translate(-318 -227)"/><path class="cls-3" d="M618,507.5H773.25M618,251H773.25M618,507.5v-2.565m38.813,2.565v-2.565m38.812,2.565v-2.565m38.813,2.565v-2.565M773.25,507.5v-2.565M618,251v2.565M656.813,251v2.565M695.625,251v2.565M734.438,251v2.565M773.25,251v2.565" transform="translate(-318 -227)"/><text class="cls-4" transform="translate(294.75 294)">-</text><path class="cls-11" d="M617.485,520.836a.565.565,0,0,1,.034-.164q.282-.562.516-1.107t.422-1.061q.188-.516.34-1.1h-.621a1.118,1.118,0,0,0-.662.223,1.956,1.956,0,0,0-.522.563.055.055,0,0,1-.058.046h-.106q-.093,0-.093-.105a.109.109,0,0,1,.023-.047,4.474,4.474,0,0,1,.68-.92,1.123,1.123,0,0,1,.82-.369H621.8a.223.223,0,0,1,.164.07.239.239,0,0,1,.07.176.362.362,0,0,1-.1.258.321.321,0,0,1-.241.105h-1.242a7.693,7.693,0,0,0-.176,1.488,4.253,4.253,0,0,0,.329,1.7.229.229,0,0,1,.035.117.344.344,0,0,1-.064.2.448.448,0,0,1-.165.147.435.435,0,0,1-.205.053q-.258,0-.351-.416a3.676,3.676,0,0,1-.094-.815,6,6,0,0,1,.094-1.072q.093-.522.3-1.4H619.09q-.762,3.117-.926,3.446a.422.422,0,0,1-.375.258.327.327,0,0,1-.211-.077.239.239,0,0,1-.093-.193Z" transform="translate(-318 -227)"/><text class="cls-4" transform="translate(330 294)">-</text><path class="cls-11" d="M652.735,520.836a.565.565,0,0,1,.034-.164q.282-.562.516-1.107t.422-1.061q.188-.516.34-1.1h-.621a1.118,1.118,0,0,0-.662.223,1.956,1.956,0,0,0-.522.563.055.055,0,0,1-.058.046h-.106q-.093,0-.093-.105a.109.109,0,0,1,.023-.047,4.474,4.474,0,0,1,.68-.92,1.123,1.123,0,0,1,.82-.369h3.539a.223.223,0,0,1,.164.07.239.239,0,0,1,.07.176.362.362,0,0,1-.1.258.321.321,0,0,1-.241.105H655.7a7.619,7.619,0,0,0-.177,1.488,4.253,4.253,0,0,0,.329,1.7.229.229,0,0,1,.035.117.344.344,0,0,1-.064.2.448.448,0,0,1-.165.147.435.435,0,0,1-.205.053q-.258,0-.351-.416a3.676,3.676,0,0,1-.094-.815,6,6,0,0,1,.094-1.072q.093-.522.3-1.4H654.34q-.762,3.117-.926,3.446a.422.422,0,0,1-.375.258.327.327,0,0,1-.211-.077.239.239,0,0,1-.093-.193Z" transform="translate(-318 -227)"/><text class="cls-4" transform="translate(339.75 294)">/2</text><text class="cls-4" transform="translate(374.625 293.648)">0</text><path class="cls-11" d="M727.735,520.836a.565.565,0,0,1,.034-.164q.282-.562.516-1.107t.422-1.061q.188-.516.34-1.1h-.622a1.117,1.117,0,0,0-.661.223,1.956,1.956,0,0,0-.522.563.055.055,0,0,1-.059.046h-.105q-.093,0-.093-.105a.109.109,0,0,1,.023-.047,4.509,4.509,0,0,1,.679-.92,1.125,1.125,0,0,1,.821-.369h3.539a.223.223,0,0,1,.164.07.239.239,0,0,1,.07.176.359.359,0,0,1-.1.258.318.318,0,0,1-.24.105H730.7a7.693,7.693,0,0,0-.176,1.488,4.253,4.253,0,0,0,.329,1.7.229.229,0,0,1,.035.117.345.345,0,0,1-.065.2.445.445,0,0,1-.164.147.435.435,0,0,1-.205.053q-.258,0-.351-.416a3.676,3.676,0,0,1-.094-.815,6,6,0,0,1,.094-1.072q.093-.522.3-1.4H729.34q-.762,3.117-.926,3.446a.422.422,0,0,1-.375.258.327.327,0,0,1-.211-.077.239.239,0,0,1-.093-.193Z" transform="translate(-318 -227)"/><text class="cls-4" transform="translate(414.75 294)">/2</text><path class="cls-11" d="M771.235,520.836a.565.565,0,0,1,.034-.164q.282-.562.516-1.107t.422-1.061q.188-.516.34-1.1h-.622a1.117,1.117,0,0,0-.661.223,1.956,1.956,0,0,0-.522.563.055.055,0,0,1-.059.046h-.105q-.093,0-.093-.105a.109.109,0,0,1,.023-.047,4.474,4.474,0,0,1,.68-.92,1.121,1.121,0,0,1,.82-.369h3.539a.223.223,0,0,1,.164.07.239.239,0,0,1,.07.176.359.359,0,0,1-.1.258.318.318,0,0,1-.24.105H774.2a7.693,7.693,0,0,0-.176,1.488,4.253,4.253,0,0,0,.329,1.7.229.229,0,0,1,.035.117.345.345,0,0,1-.065.2.445.445,0,0,1-.164.147.435.435,0,0,1-.205.053q-.258,0-.351-.416a3.676,3.676,0,0,1-.094-.815,6,6,0,0,1,.094-1.072q.093-.522.3-1.4H772.84q-.762,3.117-.926,3.446a.422.422,0,0,1-.375.258.327.327,0,0,1-.211-.077.239.239,0,0,1-.093-.193Z" transform="translate(-318 -227)"/><path class="cls-11" d="M688.688,534.617a.932.932,0,0,1-.756-.346,1.954,1.954,0,0,1-.4-.837,4.472,4.472,0,0,1-.111-.984h0a6.294,6.294,0,0,1,.1-1.091,8.01,8.01,0,0,1,.288-1.125,7.57,7.57,0,0,1,.41-1.007,7.1,7.1,0,0,1,.4-.686,5.44,5.44,0,0,1,.545-.709,2.806,2.806,0,0,1,.645-.533,1.35,1.35,0,0,1,.7-.2h.012a.959.959,0,0,1,.638.211,1.414,1.414,0,0,1,.393.539,2.9,2.9,0,0,1,.2.7,4.643,4.643,0,0,1,.059.715,6.4,6.4,0,0,1-.217,1.623,8.307,8.307,0,0,1-.6,1.6,6.588,6.588,0,0,1-.393.686,5.383,5.383,0,0,1-.539.709,2.778,2.778,0,0,1-.639.527,1.371,1.371,0,0,1-.714.211Zm.023-.281a.909.909,0,0,0,.674-.369,3.652,3.652,0,0,0,.563-.9,10.9,10.9,0,0,0,.421-1.09,9.584,9.584,0,0,0,.264-.944h-2.145q-.164.669-.252,1.143a5.222,5.222,0,0,0-.088.943q0,1.219.563,1.219Zm-.141-3.668h2.157q.117-.468.181-.779c.043-.208.08-.424.111-.651a4.6,4.6,0,0,0,.047-.644q0-1.232-.562-1.231-.668,0-1.148,1.078a14.672,14.672,0,0,0-.786,2.227Z" transform="translate(-318 -227)"/><text class="cls-5" transform="translate(374.25 307.5)"><tspan xml:space="preserve"> [-]</tspan></text><path class="cls-3" d="M618,507.5V251M773.25,507.5V251M618,507.5h2.565M618,483.072h2.565M618,458.643h2.565M618,434.215h2.565M618,409.785h2.565M618,385.357h2.565M618,360.928h2.565M618,336.5h2.565M618,312.072h2.565M618,287.643h2.565M618,263.215h2.565M773.25,507.5h-2.565m2.565-24.428h-2.565m2.565-24.429h-2.565m2.565-24.428h-2.565m2.565-24.43h-2.565m2.565-24.428h-2.565m2.565-24.429h-2.565M773.25,336.5h-2.565m2.565-24.428h-2.565m2.565-24.429h-2.565m2.565-24.428h-2.565" transform="translate(-318 -227)"/><text class="cls-4" transform="translate(290.602 284.25)">0</text><text class="cls-4" transform="translate(290.602 259.82)">2</text><text class="cls-4" transform="translate(290.602 235.398)">4</text><text class="cls-4" transform="translate(290.602 210.961)">6</text><text class="cls-4" transform="translate(290.602 186.539)">8</text><text class="cls-4" transform="translate(285.352 162.109)">10</text><text class="cls-4" transform="translate(285.352 137.68)">12</text><text class="cls-4" transform="translate(285.352 113.25)">14</text><text class="cls-4" transform="translate(285.352 88.828)">16</text><text class="cls-4" transform="translate(285.352 64.391)">18</text><text class="cls-4" transform="translate(285.352 39.969)">20</text><text class="cls-5" transform="translate(279.75 170.25) rotate(-90)">|X(e</text><text class="cls-12" transform="translate(275.25 150.75) rotate(-90)">j </text><path class="cls-11" d="M593.344,371.926a.728.728,0,0,1-.275.6,1.6,1.6,0,0,1-.663.311,3.469,3.469,0,0,1-.762.088h-.011a4.787,4.787,0,0,1-.856-.082,6.542,6.542,0,0,1-.885-.229,5.416,5.416,0,0,1-.779-.322,4.987,4.987,0,0,1-.544-.31,4.283,4.283,0,0,1-.557-.428,2.137,2.137,0,0,1-.416-.5,1.071,1.071,0,0,1-.158-.551v-.012a.746.746,0,0,1,.164-.492,1.089,1.089,0,0,1,.421-.31,2.307,2.307,0,0,1,.551-.159,3.6,3.6,0,0,1,.563-.046,5.023,5.023,0,0,1,1.271.169,6.506,6.506,0,0,1,1.26.475,5.006,5.006,0,0,1,.534.305,4.2,4.2,0,0,1,.556.422,2.179,2.179,0,0,1,.415.5,1.073,1.073,0,0,1,.171.562v.012Zm-.223-.024a.7.7,0,0,0-.293-.521,2.931,2.931,0,0,0-.709-.44c-.278-.124-.561-.236-.85-.333s-.535-.171-.738-.218v1.688q.516.129.891.2a3.99,3.99,0,0,0,.738.071q.962,0,.961-.446Zm-2.883.106v-1.687q-.363-.082-.609-.135c-.164-.035-.336-.067-.516-.094a3.263,3.263,0,0,0-.5-.041q-.96,0-.961.445,0,.528.844.908a10.126,10.126,0,0,0,1.746.6Z" transform="translate(-318 -227)"/><text class="cls-5" transform="translate(279.75 141.75) rotate(-90)">)|</text><text class="cls-6" transform="translate(328.875 19.039)">Magnitude Dirichlet</text><polyline class="cls-13" points="300 268.285 300.077 268.292 300.155 268.313 300.233 268.346 300.31 268.392 300.388 268.451 300.466 268.524 300.543 268.61 300.621 268.708 300.699 268.819 300.776 268.943 300.854 269.079 300.932 269.228 301.009 269.39 301.087 269.563 301.164 269.748 301.242 269.944 301.319 270.153 301.397 270.372 301.475 270.603 301.552 270.844 301.63 271.096 301.708 271.358 301.785 271.63 301.863 271.912 301.94 272.203 302.018 272.503 302.096 272.811 302.174 273.128 302.251 273.454 302.329 273.787 302.406 274.127 302.484 274.474 302.561 274.828 302.639 275.188 302.716 275.554 302.795 275.925 302.872 276.302 302.95 276.683 303.027 277.067 303.105 277.457 303.182 277.849 303.26 278.244 303.338 278.642 303.415 279.042 303.493 279.443 303.571 279.846 303.649 280.25 303.726 280.346 303.804 279.942 303.881 279.538 303.959 279.137 304.036 278.735 304.115 278.336 304.192 277.939 304.27 277.544 304.347 277.154 304.425 276.766 304.502 276.382 304.58 276.002 304.658 275.627 304.736 275.258 304.813 274.894 304.891 274.536 304.968 274.184 305.046 273.84 305.123 273.502 305.201 273.172 305.279 272.849 305.357 272.535 305.434 272.23 305.512 271.933 305.589 271.646 305.667 271.367 305.744 271.099 305.822 270.841 305.9 270.593 305.978 270.356 306.055 270.13 306.133 269.915 306.21 269.711 306.288 269.519 306.365 269.339 306.443 269.171 306.521 269.015 306.599 268.872 306.676 268.742 306.753 268.623 306.831 268.518 306.908 268.426 306.986 268.346 307.064 268.28 307.142 268.228 307.219 268.188 307.297 268.162 307.374 268.149 307.452 268.15 307.529 268.163 307.607 268.191 307.685 268.232 307.763 268.285 307.84 268.353 307.918 268.434 307.995 268.528 308.073 268.634 308.15 268.754 308.228 268.887 308.306 269.032 308.384 269.19 308.461 269.36 308.539 269.543 308.616 269.737 308.694 269.943 308.771 270.16 308.849 270.389 308.927 270.63 309.005 270.881 309.082 271.142 309.16 271.414 309.237 271.697 309.315 271.988 309.392 272.289 309.47 272.6 309.548 272.918 309.626 273.246 309.703 273.581 309.781 273.924 309.859 274.275 309.936 274.633 310.014 274.997 310.091 275.367 310.169 275.744 310.246 276.125 310.324 276.512 310.402 276.902 310.48 277.298 310.557 277.697 310.635 278.099 310.712 278.505 310.79 278.912 310.867 279.323 310.945 279.734 311.023 280.146 311.101 280.441 311.178 280.028 311.256 279.614 311.333 279.202 311.411 278.791 311.489 278.381 311.566 277.973 311.644 277.568 311.722 277.165 311.799 276.766 311.877 276.371 311.954 275.979 312.032 275.593 312.11 275.211 312.188 274.835 312.265 274.465 312.343 274.1 312.42 273.743 312.497 273.392 312.575 273.05 312.653 272.714 312.73 272.388 312.808 272.069 312.886 271.76 312.963 271.46 313.041 271.169 313.119 270.888 313.196 270.617 313.273 270.357 313.352 270.108 313.429 269.87 313.507 269.643 313.584 269.427 313.662 269.224 313.739 269.033 313.817 268.853 313.895 268.687 313.973 268.533 314.05 268.391 314.128 268.264 314.205 268.148 314.283 268.047 314.36 267.959 314.438 267.884 314.516 267.823 314.594 267.776 314.671 267.742 314.749 267.722 314.826 267.716 314.904 267.725 314.981 267.746 315.059 267.782 315.137 267.832 315.215 267.896 315.292 267.973 315.37 268.064 315.447 268.168 315.525 268.285 315.602 268.417 315.68 268.561 315.758 268.72 315.836 268.89 315.913 269.074 315.991 269.27 316.068 269.478 316.146 269.699 316.224 269.932 316.301 270.176 316.379 270.432 316.457 270.699 316.534 270.977 316.612 271.265 316.69 271.565 316.767 271.874 316.845 272.192 316.922 272.52 317 272.858 317.078 273.203 317.155 273.557 317.233 273.92 317.311 274.289 317.388 274.666 317.466 275.05 317.543 275.44 317.621 275.835 317.699 276.237 317.776 276.644 317.854 277.055 317.932 277.47 318.009 277.889 318.087 278.312 318.164 278.738 318.242 279.165 318.319 279.595 318.398 280.026 318.475 280.459 318.553 280.109 318.63 279.675 318.708 279.242 318.785 278.81 318.863 278.38 318.94 277.951 319.019 277.524 319.096 277.1 319.174 276.68 319.251 276.263 319.328 275.849 319.406 275.44 319.484 275.037 319.561 274.639 319.639 274.247 319.717 273.86 319.794 273.481 319.872 273.109 319.95 272.744 320.027 272.387 320.105 272.038 320.182 271.699 320.26 271.368 320.338 271.047 320.415 270.736 320.493 270.434 320.57 270.143 320.648 269.864 320.725 269.595 320.804 269.338 320.881 269.092 320.959 268.859 321.036 268.638 321.114 268.43 321.191 268.234 321.269 268.051 321.346 267.881 321.425 267.726 321.502 267.584 321.58 267.455 321.657 267.341 321.735 267.24 321.812 267.154 321.89 267.083 321.967 267.025 322.046 266.982 322.123 266.954 322.201 266.941 322.278 266.942 322.356 266.958 322.433 266.989 322.511 267.034 322.589 267.095 322.667 267.17 322.744 267.259 322.822 267.363 322.9 267.482 322.977 267.614 323.055 267.761 323.132 267.922 323.21 268.097 323.288 268.285 323.365 268.488 323.443 268.704 323.521 268.933 323.598 269.174 323.676 269.429 323.753 269.695 323.831 269.975 323.909 270.266 323.987 270.569 324.064 270.882 324.142 271.207 324.219 271.542 324.297 271.888 324.374 272.244 324.452 272.609 324.529 272.984 324.608 273.367 324.685 273.758 324.763 274.158 324.84 274.565 324.918 274.98 324.995 275.401 325.073 275.828 325.15 276.262 325.229 276.7 325.306 277.144 325.384 277.592 325.461 278.043 325.539 278.499 325.616 278.957 325.694 279.418 325.771 279.881 325.85 280.345 325.927 280.19 326.005 279.724 326.082 279.258 326.159 278.792 326.237 278.328 326.315 277.865 326.393 277.405 326.47 276.946 326.548 276.491 326.625 276.039 326.703 275.591 326.78 275.148 326.858 274.709 326.935 274.277 327.014 273.849 327.091 273.429 327.169 273.015 327.246 272.609 327.324 272.21 327.401 271.819 327.479 271.438 327.556 271.066 327.635 270.703 327.712 270.35 327.79 270.007 327.867 269.675 327.945 269.354 328.022 269.044 328.1 268.747 328.177 268.461 328.256 268.188 328.333 267.928 328.411 267.681 328.488 267.447 328.566 267.227 328.643 267.021 328.721 266.83 328.799 266.653 328.877 266.49 328.954 266.342 329.032 266.21 329.11 266.092 329.187 265.991 329.265 265.904 329.342 265.833 329.42 265.778 329.497 265.739 329.576 265.716 329.653 265.709 329.731 265.718 329.808 265.743 329.886 265.784 329.963 265.842 330.041 265.915 330.118 266.005 330.197 266.11 330.274 266.23 330.352 266.368 330.429 266.52 330.507 266.689 330.584 266.872 330.662 267.07 330.74 267.284 330.818 267.513 330.895 267.756 330.973 268.014 331.05 268.285 331.128 268.571 331.205 268.871 331.283 269.183 331.361 269.509 331.439 269.848 331.516 270.198 331.594 270.561 331.671 270.935 331.749 271.321 331.826 271.717 331.904 272.125 331.982 272.542 332.06 272.969 332.137 273.404 332.214 273.849 332.292 274.302 332.369 274.763 332.447 275.231 332.525 275.706 332.603 276.188 332.68 276.674 332.758 277.167 332.835 277.665 332.913 278.167 332.99 278.672 333.068 279.181 333.146 279.692 333.224 280.206 333.301 280.279 333.379 279.763 333.456 279.246 333.534 278.729 333.611 278.213 333.689 277.698 333.767 277.185 333.845 276.674 333.922 276.166 334 275.661 334.077 275.161 334.155 274.664 334.232 274.173 334.31 273.688 334.388 273.209 334.466 272.735 334.543 272.27 334.621 271.812 334.698 271.363 334.776 270.922 334.853 270.49 334.931 270.068 335.009 269.656 335.087 269.255 335.164 268.865 335.242 268.487 335.319 268.121 335.397 267.767 335.474 267.426 335.552 267.098 335.63 266.784 335.708 266.484 335.785 266.199 335.863 265.928 335.941 265.673 336.018 265.432 336.096 265.208 336.173 264.998 336.251 264.806 336.328 264.63 336.406 264.471 336.484 264.329 336.562 264.204 336.639 264.097 336.717 264.007 336.794 263.934 336.872 263.879 336.949 263.842 337.027 263.824 337.105 263.824 337.183 263.841 337.26 263.876 337.338 263.93 337.415 264.002 337.493 264.092 337.57 264.201 337.648 264.327 337.726 264.472 337.804 264.634 337.881 264.814 337.959 265.011 338.036 265.225 338.114 265.458 338.191 265.707 338.27 265.973 338.347 266.256 338.425 266.555 338.502 266.87 338.58 267.201 338.657 267.548 338.735 267.909 338.813 268.285 338.89 268.676 338.968 269.081 339.045 269.501 339.123 269.933 339.2 270.377 339.278 270.834 339.355 271.304 339.434 271.784 339.511 272.276 339.589 272.779 339.666 273.291 339.744 273.812 339.821 274.343 339.899 274.883 339.977 275.43 340.055 275.984 340.132 276.545 340.21 277.113 340.287 277.686 340.365 278.264 340.442 278.846 340.52 279.432 340.598 280.022 340.676 280.388 340.753 279.794 340.831 279.199 340.908 278.603 340.986 278.008 341.063 277.413 341.141 276.82 341.219 276.228 341.297 275.639 341.374 275.054 341.452 274.471 341.529 273.895 341.607 273.323 341.684 272.756 341.762 272.196 341.84 271.643 341.918 271.098 341.995 270.561 342.073 270.033 342.151 269.515 342.228 269.006 342.306 268.508 342.383 268.022 342.461 267.547 342.538 267.085 342.617 266.635 342.694 266.199 342.772 265.777 342.849 265.369 342.927 264.977 343.004 264.599 343.082 264.238 343.159 263.893 343.238 263.564 343.315 263.253 343.393 262.959 343.47 262.684 343.548 262.427 343.625 262.188 343.703 261.968 343.78 261.768 343.859 261.587 343.936 261.426 344.014 261.286 344.091 261.165 344.169 261.065 344.246 260.987 344.324 260.928 344.401 260.891 344.48 260.876 344.557 260.881 344.635 260.908 344.712 260.956 344.79 261.026 344.867 261.116 344.945 261.229 345.023 261.363 345.1 261.518 345.178 261.694 345.255 261.893 345.333 262.112 345.41 262.351 345.488 262.612 345.566 262.892 345.644 263.194 345.721 263.516 345.799 263.857 345.876 264.217 345.954 264.597 346.031 264.996 346.109 265.414 346.186 265.85 346.265 266.303 346.342 266.774 346.42 267.261 346.497 267.766 346.575 268.285 346.652 268.822 346.73 269.372 346.807 269.938 346.886 270.518 346.963 271.11 347.041 271.715 347.118 272.333 347.196 272.963 347.273 273.603 347.351 274.254 347.429 274.915 347.507 275.584 347.584 276.262 347.662 276.947 347.739 277.64 347.817 278.339 347.894 279.044 347.972 279.753 348.05 280.466 348.128 279.818 348.205 279.098 348.283 278.378 348.36 277.655 348.438 276.933 348.516 276.211 348.593 275.49 348.671 274.772 348.748 274.056 348.827 273.344 348.904 272.636 348.982 271.934 349.059 271.237 349.137 270.547 349.214 269.864 349.292 269.191 349.369 268.526 349.448 267.87 349.525 267.225 349.603 266.591 349.68 265.97 349.758 265.361 349.835 264.766 349.913 264.185 349.991 263.618 350.069 263.067 350.146 262.532 350.224 262.014 350.301 261.514 350.379 261.031 350.456 260.568 350.534 260.124 350.612 259.699 350.69 259.295 350.767 258.913 350.845 258.551 350.922 258.212 351 257.895 351.077 257.601 351.155 257.33 351.233 257.084 351.31 256.861 351.388 256.662 351.465 256.489 351.543 256.341 351.621 256.218 351.698 256.121 351.776 256.051 351.854 256.007 351.931 255.988 352.009 255.997 352.086 256.031 352.164 256.094 352.241 256.183 352.319 256.298 352.397 256.441 352.475 256.611 352.552 256.808 352.63 257.032 352.707 257.282 352.785 257.559 352.862 257.863 352.94 258.194 353.018 258.55 353.096 258.932 353.173 259.34 353.251 259.774 353.328 260.232 353.406 260.716 353.483 261.224 353.561 261.755 353.639 262.31 353.716 262.889 353.794 263.49 353.872 264.113 353.949 264.758 354.027 265.424 354.104 266.11 354.182 266.816 354.26 267.542 354.337 268.285 354.415 269.048 354.493 269.827 354.57 270.623 354.648 271.434 354.725 272.26 354.803 273.1 354.881 273.955 354.959 274.821 355.036 275.699 355.114 276.588 355.192 277.487 355.269 278.396 355.347 279.311 355.424 280.235 355.502 279.836 355.579 278.9 355.658 277.961 355.735 277.017 355.813 276.072 355.89 275.125 355.968 274.177 356.045 273.23 356.123 272.284 356.201 271.342 356.279 270.402 356.356 269.467 356.434 268.538 356.511 267.616 356.589 266.701 356.666 265.794 356.744 264.898 356.822 264.012 356.9 263.138 356.977 262.276 357.055 261.428 357.132 260.595 357.21 259.778 357.287 258.977 357.365 258.194 357.443 257.43 357.521 256.685 357.598 255.962 357.676 255.259 357.753 254.578 357.831 253.921 357.908 253.288 357.986 252.68 358.064 252.097 358.141 251.541 358.219 251.012 358.297 250.511 358.374 250.039 358.451 249.598 358.529 249.186 358.607 248.805 358.685 248.456 358.762 248.138 358.84 247.854 358.917 247.603 358.995 247.386 359.072 247.203 359.15 247.055 359.228 246.942 359.306 246.865 359.383 246.824 359.461 246.819 359.538 246.851 359.616 246.92 359.693 247.026 359.771 247.17 359.849 247.351 359.927 247.57 360.004 247.826 360.082 248.12 360.159 248.452 360.237 248.822 360.314 249.23 360.392 249.674 360.47 250.157 360.548 250.677 360.625 251.234 360.703 251.828 360.78 252.458 360.858 253.124 360.935 253.827 361.013 254.564 361.091 255.337 361.169 256.144 361.246 256.985 361.324 257.859 361.401 258.767 361.479 259.706 361.557 260.676 361.634 261.677 361.712 262.709 361.789 263.769 361.868 264.858 361.945 265.975 362.023 267.117 362.1 268.285 362.178 269.479 362.255 270.696 362.333 271.935 362.41 273.197 362.489 274.478 362.566 275.779 362.644 277.098 362.721 278.434 362.799 279.786 362.876 279.848 362.954 278.468 363.031 277.076 363.11 275.673 363.187 274.262 363.265 272.841 363.342 271.414 363.42 269.983 363.497 268.547 363.575 267.109 363.652 265.67 363.73 264.232 363.808 262.795 363.886 261.362 363.963 259.934 364.041 258.513 364.118 257.1 364.196 255.696 364.274 254.304 364.352 252.924 364.429 251.558 364.507 250.209 364.584 248.876 364.661 247.563 364.739 246.271 364.817 244.999 364.895 243.752 364.972 242.53 365.05 241.336 365.127 240.169 365.205 239.031 365.282 237.926 365.36 236.852 365.438 235.814 365.516 234.81 365.593 233.845 365.671 232.918 365.748 232.03 365.826 231.185 365.903 230.382 365.981 229.624 366.059 228.911 366.137 228.245 366.214 227.627 366.292 227.06 366.369 226.542 366.447 226.076 366.524 225.664 366.602 225.306 366.68 225.003 366.758 224.756 366.835 224.567 366.913 224.437 366.99 224.366 367.068 224.355 367.145 224.405 367.223 224.518 367.301 224.693 367.379 224.933 367.456 225.236 367.534 225.605 367.611 226.039 367.689 226.539 367.766 227.106 367.844 227.741 367.922 228.443 367.999 229.214 368.078 230.053 368.155 230.96 368.233 231.937 368.31 232.983 368.388 234.098 368.465 235.283 368.543 236.537 368.62 237.861 368.699 239.255 368.776 240.717 368.854 242.249 368.931 243.85 369.009 245.519 369.086 247.257 369.164 249.063 369.242 250.936 369.319 252.877 369.397 254.884 369.475 256.957 369.552 259.095 369.63 261.298 369.707 263.564 369.785 265.894 369.863 268.285 369.94 270.739 370.018 273.253 370.096 275.825 370.173 278.457 370.251 279.855 370.328 277.11 370.406 274.311 370.484 271.458 370.561 268.553 370.639 265.596 370.717 262.59 370.794 259.536 370.872 256.435 370.949 253.288 371.027 250.099 371.105 246.867 371.182 243.594 371.26 240.283 371.337 236.935 371.415 233.551 371.492 230.134 371.57 226.685 371.648 223.205 371.725 219.698 371.803 216.165 371.881 212.607 371.958 209.027 372.036 205.427 372.113 201.809 372.191 198.173 372.269 194.524 372.346 190.862 372.424 187.191 372.502 183.512 372.579 179.826 372.657 176.137 372.734 172.446 372.812 168.755 372.89 165.068 372.967 161.385 373.045 157.709 373.123 154.043 373.2 150.387 373.278 146.746 373.355 143.12 373.433 139.512 373.511 135.924 373.589 132.359 373.666 128.817 373.744 125.303 373.821 121.817 373.899 118.362 373.976 114.94 374.054 111.554 374.132 108.204 374.21 104.894 374.287 101.625 374.365 98.4 374.443 95.22 374.52 92.087 374.598 89.003 374.675 85.972 374.753 82.993 374.831 80.069 374.909 77.202 374.986 74.393 375.064 71.646 375.141 68.96 375.219 66.338 375.296 63.782 375.374 61.294 375.452 58.874 375.529 56.524 375.607 54.246 375.685 52.042 375.762 49.912 375.84 47.858 375.917 45.882 375.995 43.984 376.073 42.167 376.151 40.43 376.228 38.776 376.306 37.204 376.383 35.718 376.461 34.316 376.538 33.001 376.616 31.772 376.694 30.632 376.772 29.579 376.849 28.616 376.927 27.743 377.004 26.96 377.082 26.268 377.159 25.667 377.237 25.159 377.315 24.742 377.393 24.418 377.47 24.185 377.548 24.047 377.625 24 377.702 24.047 377.78 24.185 377.858 24.418 377.935 24.742 378.013 25.159 378.091 25.667 378.168 26.268 378.246 26.96 378.323 27.743 378.401 28.616 378.479 29.579 378.557 30.632 378.634 31.772 378.712 33.001 378.789 34.316 378.867 35.718 378.944 37.204 379.022 38.776 379.1 40.43 379.178 42.167 379.255 43.984 379.333 45.882 379.41 47.858 379.488 49.912 379.565 52.042 379.643 54.246 379.721 56.524 379.799 58.874 379.876 61.294 379.954 63.782 380.031 66.338 380.109 68.96 380.186 71.646 380.264 74.393 380.341 77.202 380.42 80.069 380.497 82.993 380.575 85.972 380.652 89.003 380.73 92.087 380.807 95.22 380.885 98.4 380.963 101.625 381.04 104.894 381.119 108.204 381.196 111.554 381.274 114.94 381.351 118.362 381.429 121.817 381.506 125.303 381.584 128.817 381.661 132.359 381.74 135.924 381.817 139.512 381.895 143.12 381.972 146.746 382.05 150.387 382.127 154.043 382.205 157.709 382.283 161.385 382.361 165.068 382.438 168.755 382.516 172.446 382.593 176.137 382.671 179.826 382.748 183.512 382.826 187.191 382.904 190.862 382.982 194.524 383.059 198.173 383.137 201.809 383.214 205.427 383.292 209.027 383.369 212.607 383.447 216.165 383.525 219.698 383.603 223.205 383.68 226.685 383.758 230.134 383.835 233.551 383.913 236.935 383.99 240.283 384.068 243.594 384.146 246.867 384.223 250.099 384.301 253.288 384.379 256.435 384.456 259.536 384.533 262.59 384.611 265.596 384.689 268.553 384.766 271.458 384.844 274.311 384.922 277.11 385 279.855 385.077 278.457 385.154 275.825 385.232 273.253 385.31 270.739 385.387 268.285 385.465 265.894 385.543 263.564 385.621 261.298 385.698 259.095 385.775 256.957 385.853 254.884 385.931 252.877 386.008 250.936 386.086 249.063 386.164 247.257 386.242 245.519 386.319 243.85 386.396 242.249 386.474 240.717 386.552 239.255 386.629 237.861 386.707 236.537 386.785 235.283 386.863 234.098 386.94 232.983 387.017 231.937 387.095 230.96 387.173 230.053 387.25 229.214 387.328 228.443 387.406 227.741 387.483 227.106 387.561 226.539 387.639 226.039 387.716 225.605 387.793 225.236 387.871 224.933 387.949 224.693 388.027 224.518 388.104 224.405 388.182 224.355 388.26 224.366 388.337 224.437 388.414 224.567 388.493 224.756 388.57 225.003 388.648 225.306 388.725 225.664 388.803 226.076 388.881 226.542 388.958 227.06 389.035 227.627 389.114 228.245 389.191 228.911 389.269 229.624 389.346 230.382 389.424 231.185 389.502 232.03 389.579 232.918 389.656 233.845 389.735 234.81 389.813 235.814 389.89 236.852 389.967 237.926 390.045 239.031 390.123 240.169 390.2 241.336 390.277 242.53 390.355 243.752 390.434 244.999 390.511 246.271 390.588 247.563 390.666 248.876 390.744 250.209 390.821 251.558 390.899 252.924 390.977 254.304 391.055 255.696 391.132 257.1 391.209 258.513 391.287 259.934 391.365 261.362 391.442 262.795 391.52 264.232 391.598 265.67 391.676 267.109 391.753 268.547 391.83 269.983 391.908 271.414 391.986 272.841 392.063 274.262 392.141 275.673 392.219 277.076 392.297 278.468 392.374 279.848 392.451 279.786 392.529 278.434 392.607 277.098 392.684 275.779 392.762 274.478 392.84 273.197 392.918 271.935 392.995 270.696 393.072 269.479 393.15 268.285 393.228 267.117 393.305 265.975 393.383 264.858 393.461 263.769 393.539 262.709 393.616 261.677 393.693 260.676 393.771 259.706 393.848 258.767 393.926 257.859 394.004 256.985 394.082 256.144 394.159 255.337 394.237 254.564 394.315 253.827 394.392 253.124 394.469 252.458 394.547 251.828 394.625 251.234 394.703 250.677 394.78 250.157 394.858 249.674 394.936 249.23 395.013 248.822 395.09 248.452 395.168 248.12 395.246 247.826 395.324 247.57 395.401 247.351 395.479 247.17 395.557 247.026 395.634 246.92 395.711 246.851 395.789 246.819 395.867 246.824 395.945 246.865 396.022 246.942 396.1 247.055 396.178 247.203 396.255 247.386 396.332 247.603 396.41 247.854 396.488 248.138 396.566 248.456 396.643 248.805 396.721 249.186 396.799 249.598 396.876 250.039 396.953 250.511 397.031 251.012 397.109 251.541 397.186 252.097 397.264 252.68 397.342 253.288 397.42 253.921 397.497 254.578 397.574 255.259 397.652 255.962 397.73 256.685 397.807 257.43 397.885 258.194 397.963 258.977 398.041 259.778 398.118 260.595 398.195 261.428 398.273 262.276 398.351 263.138 398.428 264.012 398.506 264.898 398.584 265.794 398.662 266.701 398.739 267.616 398.816 268.538 398.894 269.467 398.972 270.402 399.049 271.342 399.127 272.284 399.205 273.23 399.283 274.177 399.36 275.125 399.437 276.072 399.515 277.017 399.593 277.961 399.671 278.9 399.748 279.836 399.826 280.235 399.904 279.311 399.981 278.396 400.058 277.487 400.136 276.588 400.214 275.699 400.292 274.821 400.37 273.955 400.447 273.1 400.524 272.26 400.602 271.434 400.68 270.623 400.757 269.827 400.835 269.048 400.913 268.285 400.991 267.542 401.068 266.816 401.145 266.11 401.223 265.424 401.301 264.758 401.378 264.113 401.456 263.49 401.534 262.889 401.612 262.31 401.689 261.755 401.766 261.224 401.844 260.716 401.922 260.232 401.999 259.774 402.077 259.34 402.154 258.932 402.233 258.55 402.31 258.194 402.387 257.863 402.465 257.559 402.543 257.282 402.62 257.032 402.698 256.808 402.776 256.611 402.854 256.441 402.931 256.298 403.008 256.183 403.086 256.094 403.164 256.031 403.241 255.997 403.319 255.988 403.397 256.007 403.475 256.051 403.552 256.121 403.629 256.218 403.707 256.341 403.785 256.489 403.862 256.662 403.94 256.861 404.018 257.084 404.096 257.33 404.173 257.601 404.25 257.895 404.328 258.212 404.406 258.551 404.483 258.913 404.56 259.295 404.639 259.699 404.716 260.124 404.794 260.568 404.871 261.031 404.949 261.514 405.027 262.014 405.104 262.532 405.182 263.067 405.26 263.618 405.338 264.185 405.415 264.766 405.492 265.361 405.57 265.97 405.648 266.591 405.725 267.225 405.803 267.87 405.881 268.526 405.959 269.191 406.036 269.864 406.113 270.547 406.191 271.237 406.269 271.934 406.346 272.636 406.424 273.344 406.502 274.056 406.58 274.772 406.657 275.49 406.735 276.211 406.812 276.933 406.889 277.655 406.967 278.378 407.045 279.098 407.122 279.818 407.2 280.466 407.278 279.753 407.356 279.044 407.433 278.339 407.51 277.64 407.588 276.947 407.666 276.262 407.744 275.584 407.821 274.915 407.899 274.254 407.977 273.603 408.054 272.963 408.131 272.333 408.209 271.715 408.287 271.11 408.365 270.518 408.442 269.938 408.52 269.372 408.598 268.822 408.675 268.285 408.752 267.766 408.83 267.261 408.908 266.774 408.986 266.303 409.063 265.85 409.141 265.414 409.219 264.996 409.296 264.597 409.373 264.217 409.451 263.857 409.529 263.516 409.607 263.194 409.684 262.892 409.762 262.612 409.84 262.351 409.917 262.112 409.994 261.893 410.072 261.694 410.15 261.518 410.227 261.363 410.305 261.229 410.383 261.116 410.461 261.026 410.538 260.956 410.615 260.908 410.693 260.881 410.771 260.876 410.848 260.891 410.926 260.928 411.004 260.987 411.082 261.065 411.159 261.165 411.236 261.286 411.314 261.426 411.392 261.587 411.469 261.768 411.547 261.968 411.625 262.188 411.703 262.427 411.78 262.684 411.857 262.959 411.935 263.253 412.013 263.564 412.091 263.893 412.168 264.238 412.246 264.599 412.324 264.977 412.401 265.369 412.478 265.777 412.556 266.199 412.634 266.635 412.712 267.085 412.789 267.547 412.867 268.022 412.945 268.508 413.022 269.006 413.099 269.515 413.177 270.033 413.254 270.561 413.333 271.098 413.41 271.643 413.488 272.196 413.565 272.756 413.643 273.323 413.721 273.895 413.798 274.471 413.875 275.054 413.953 275.639 414.031 276.228 414.109 276.82 414.186 277.413 414.264 278.008 414.342 278.603 414.419 279.199 414.497 279.794 414.574 280.388 414.653 280.022 414.73 279.432 414.807 278.846 414.885 278.264 414.963 277.686 415.04 277.113 415.118 276.545 415.195 275.984 415.274 275.43 415.351 274.883 415.428 274.343 415.506 273.812 415.584 273.291 415.661 272.779 415.739 272.276 415.816 271.784 415.895 271.304 415.972 270.834 416.049 270.377 416.127 269.933 416.205 269.501 416.282 269.081 416.36 268.676 416.438 268.285 416.516 267.909 416.593 267.548 416.67 267.201 416.748 266.87 416.826 266.555 416.903 266.256 416.98 265.973 417.059 265.707 417.137 265.458 417.214 265.225 417.291 265.011 417.369 264.814 417.447 264.634 417.524 264.472 417.602 264.327 417.68 264.201 417.758 264.092 417.835 264.002 417.912 263.93 417.99 263.876 418.068 263.841 418.145 263.824 418.223 263.824 418.301 263.842 418.379 263.879 418.456 263.934 418.533 264.007 418.611 264.097 418.689 264.204 418.766 264.329 418.844 264.471 418.922 264.63 419 264.806 419.077 264.998 419.154 265.208 419.232 265.432 419.309 265.673 419.387 265.928 419.465 266.199 419.543 266.484 419.621 266.784 419.698 267.098 419.776 267.426 419.853 267.767 419.93 268.121 420.008 268.487 420.086 268.865 420.164 269.255 420.241 269.656 420.319 270.068 420.397 270.49 420.474 270.922 420.551 271.363 420.629 271.812 420.707 272.27 420.785 272.735 420.862 273.209 420.94 273.688 421.018 274.173 421.095 274.664 421.172 275.161 421.25 275.661 421.328 276.166 421.406 276.674 421.483 277.185 421.561 277.698 421.639 278.213 421.716 278.729 421.793 279.246 421.871 279.763 421.949 280.279 422.027 280.206 422.104 279.692 422.182 279.181 422.26 278.672 422.337 278.167 422.414 277.665 422.492 277.167 422.57 276.674 422.648 276.188 422.725 275.706 422.803 275.231 422.881 274.763 422.958 274.302 423.035 273.849 423.113 273.404 423.191 272.969 423.268 272.542 423.346 272.125 423.424 271.717 423.502 271.321 423.579 270.935 423.656 270.561 423.734 270.198 423.812 269.848 423.889 269.509 423.967 269.183 424.045 268.871 424.123 268.571 424.2 268.285 424.277 268.014 424.355 267.756 424.433 267.513 424.51 267.284 424.588 267.07 424.666 266.872 424.744 266.689 424.821 266.52 424.898 266.368 424.976 266.23 425.054 266.11 425.132 266.005 425.209 265.915 425.287 265.842 425.365 265.784 425.442 265.743 425.519 265.718 425.597 265.709 425.675 265.716 425.753 265.739 425.83 265.778 425.908 265.833 425.986 265.904 426.063 265.991 426.141 266.092 426.218 266.21 426.296 266.342 426.373 266.49 426.452 266.653 426.529 266.83 426.606 267.021 426.684 267.227 426.762 267.447 426.839 267.681 426.917 267.928 426.995 268.188 427.073 268.461 427.15 268.747 427.227 269.044 427.305 269.354 427.383 269.675 427.46 270.007 427.538 270.35 427.616 270.703 427.694 271.066 427.771 271.438 427.848 271.819 427.926 272.21 428.004 272.609 428.081 273.015 428.159 273.429 428.237 273.849 428.315 274.277 428.392 274.709 428.469 275.148 428.547 275.591 428.625 276.039 428.702 276.491 428.779 276.946 428.858 277.405 428.935 277.865 429.013 278.328 429.09 278.792 429.168 279.258 429.246 279.724 429.323 280.19 429.401 280.345 429.479 279.881 429.557 279.418 429.634 278.957 429.711 278.499 429.789 278.043 429.867 277.592 429.944 277.144 430.022 276.7 430.1 276.262 430.178 275.828 430.255 275.401 430.332 274.98 430.41 274.565 430.488 274.158 430.565 273.758 430.643 273.367 430.721 272.984 430.799 272.609 430.876 272.244 430.953 271.888 431.031 271.542 431.109 271.207 431.186 270.882 431.264 270.569 431.341 270.266 431.42 269.975 431.497 269.695 431.574 269.429 431.652 269.174 431.73 268.933 431.807 268.704 431.885 268.488 431.963 268.285 432.041 268.097 432.118 267.922 432.195 267.761 432.273 267.614 432.35 267.482 432.428 267.363 432.506 267.259 432.584 267.17 432.661 267.095 432.739 267.034 432.817 266.989 432.894 266.958 432.972 266.942 433.049 266.941 433.127 266.954 433.205 266.982 433.282 267.025 433.36 267.083 433.438 267.154 433.515 267.24 433.592 267.341 433.67 267.455 433.748 267.584 433.826 267.726 433.903 267.881 433.981 268.051 434.059 268.234 434.136 268.43 434.213 268.638 434.291 268.859 434.369 269.092 434.447 269.338 434.524 269.595 434.602 269.864 434.68 270.143 434.757 270.434 434.834 270.736 434.912 271.047 434.99 271.368 435.068 271.699 435.145 272.038 435.223 272.387 435.301 272.744 435.378 273.109 435.455 273.481 435.533 273.86 435.611 274.247 435.689 274.639 435.766 275.037 435.844 275.44 435.922 275.849 435.999 276.263 436.076 276.68 436.154 277.1 436.232 277.524 436.31 277.951 436.387 278.38 436.465 278.81 436.543 279.242 436.62 279.675 436.697 280.109 436.775 280.459 436.853 280.026 436.93 279.595 437.008 279.165 437.086 278.738 437.164 278.312 437.241 277.889 437.318 277.47 437.396 277.055 437.474 276.644 437.552 276.237 437.629 275.835 437.707 275.44 437.785 275.05 437.862 274.666 437.939 274.289 438.017 273.92 438.095 273.557 438.173 273.203 438.25 272.858 438.328 272.52 438.406 272.192 438.483 271.874 438.56 271.565 438.638 271.265 438.716 270.977 438.793 270.699 438.871 270.432 438.949 270.176 439.027 269.932 439.104 269.699 439.182 269.478 439.259 269.27 439.337 269.074 439.414 268.89 439.492 268.72 439.57 268.561 439.647 268.417 439.725 268.285 439.803 268.168 439.88 268.064 439.958 267.973 440.035 267.896 440.114 267.832 440.191 267.782 440.268 267.746 440.346 267.725 440.424 267.716 440.501 267.722 440.578 267.742 440.656 267.776 440.735 267.823 440.812 267.884 440.889 267.959 440.967 268.047 441.045 268.148 441.122 268.264 441.199 268.391 441.278 268.533 441.355 268.687 441.433 268.853 441.51 269.033 441.588 269.224 441.666 269.427 441.743 269.643 441.82 269.87 441.898 270.108 441.977 270.357 442.054 270.617 442.131 270.888 442.209 271.169 442.287 271.46 442.364 271.76 442.441 272.069 442.52 272.388 442.598 272.714 442.675 273.05 442.752 273.392 442.83 273.743 442.908 274.1 442.985 274.465 443.063 274.835 443.141 275.211 443.219 275.593 443.296 275.979 443.373 276.371 443.451 276.766 443.529 277.165 443.606 277.568 443.684 277.973 443.762 278.381 443.84 278.791 443.917 279.202 443.994 279.614 444.072 280.028 444.15 280.441 444.227 280.146 444.305 279.734 444.383 279.323 444.461 278.912 444.538 278.505 444.615 278.099 444.693 277.697 444.771 277.298 444.848 276.902 444.926 276.512 445.004 276.125 445.082 275.744 445.159 275.367 445.236 274.997 445.314 274.633 445.392 274.275 445.469 273.924 445.547 273.581 445.625 273.246 445.703 272.918 445.78 272.6 445.858 272.289 445.935 271.988 446.012 271.697 446.09 271.414 446.168 271.142 446.246 270.881 446.323 270.63 446.401 270.389 446.479 270.16 446.556 269.943 446.633 269.737 446.711 269.543 446.789 269.36 446.867 269.19 446.944 269.032 447.022 268.887 447.1 268.754 447.177 268.634 447.254 268.528 447.332 268.434 447.41 268.353 447.488 268.285 447.565 268.232 447.643 268.191 447.721 268.163 447.798 268.15 447.875 268.149 447.953 268.162 448.031 268.188 448.109 268.228 448.186 268.28 448.264 268.346 448.342 268.426 448.419 268.518 448.496 268.623 448.574 268.742 448.652 268.872 448.73 269.015 448.807 269.171 448.885 269.339 448.963 269.519 449.04 269.711 449.117 269.915 449.195 270.13 449.273 270.356 449.35 270.593 449.428 270.841 449.506 271.099 449.584 271.367 449.661 271.646 449.738 271.933 449.816 272.23 449.894 272.535 449.971 272.849 450.049 273.172 450.127 273.502 450.205 273.84 450.282 274.184 450.359 274.536 450.437 274.894 450.515 275.258 450.592 275.627 450.67 276.002 450.748 276.382 450.826 276.766 450.903 277.154 450.98 277.544 451.058 277.939 451.136 278.336 451.214 278.735 451.291 279.137 451.369 279.538 451.447 279.942 451.524 280.346 451.601 280.25 451.679 279.846 451.757 279.443 451.835 279.042 451.912 278.642 451.99 278.244 452.067 277.849 452.145 277.457 452.223 277.067 452.3 276.683 452.378 276.302 452.456 275.925 452.534 275.554 452.611 275.188 452.688 274.828 452.766 274.474 452.844 274.127 452.921 273.787 452.998 273.454 453.077 273.128 453.154 272.811 453.232 272.503 453.309 272.203 453.387 271.912 453.465 271.63 453.542 271.358 453.62 271.096 453.698 270.844 453.776 270.603 453.853 270.372 453.93 270.153 454.008 269.944 454.086 269.748 454.163 269.563 454.241 269.39 454.319 269.228 454.397 269.079 454.474 268.943 454.551 268.819 454.629 268.708 454.707 268.61 454.784 268.524 454.862 268.451 454.94 268.392 455.018 268.346 455.095 268.313 455.172 268.292 455.25 268.285"/><rect class="cls-1" x="504.75" y="24" width="156" height="256.5"/><path class="cls-2" d="M822.75,507.5V251m39,256.5V251m39,256.5V251m39,256.5V251m39,256.5V251m0,250.72h-156m156-40.823h-156m156-40.824h-156m156-40.823h-156m156-40.823h-156m156-40.823h-156m156-40.824h-156" transform="translate(-318 -227)"/><path class="cls-3" d="M822.75,507.5h156M822.75,251h156m-156,256.5v-2.565m39,2.565v-2.565m39,2.565v-2.565m39,2.565v-2.565m39,2.565v-2.565M822.75,251v2.565m39-2.565v2.565m39-2.565v2.565m39-2.565v2.565m39-2.565v2.565" transform="translate(-318 -227)"/><text class="cls-4" transform="translate(499.5 294)">-</text><path class="cls-11" d="M822.235,520.836a.565.565,0,0,1,.034-.164q.282-.562.516-1.107t.422-1.061q.188-.516.34-1.1h-.621a1.12,1.12,0,0,0-.662.223,1.956,1.956,0,0,0-.522.563.055.055,0,0,1-.058.046h-.105c-.063,0-.094-.035-.094-.105a.123.123,0,0,1,.023-.047,4.474,4.474,0,0,1,.68-.92,1.123,1.123,0,0,1,.82-.369h3.539a.223.223,0,0,1,.164.07.239.239,0,0,1,.07.176.362.362,0,0,1-.1.258.321.321,0,0,1-.24.105H825.2a7.619,7.619,0,0,0-.177,1.488,4.253,4.253,0,0,0,.329,1.7.229.229,0,0,1,.035.117.344.344,0,0,1-.064.2.448.448,0,0,1-.165.147.434.434,0,0,1-.2.053c-.172,0-.29-.139-.352-.416a3.676,3.676,0,0,1-.094-.815,6,6,0,0,1,.094-1.072q.093-.522.3-1.4H823.84q-.762,3.117-.926,3.446a.422.422,0,0,1-.375.258.322.322,0,0,1-.21-.077.237.237,0,0,1-.094-.193Z" transform="translate(-318 -227)"/><text class="cls-4" transform="translate(534.75 294)">-</text><path class="cls-11" d="M857.485,520.836a.565.565,0,0,1,.034-.164q.282-.562.516-1.107t.422-1.061q.188-.516.34-1.1h-.621a1.12,1.12,0,0,0-.662.223,1.956,1.956,0,0,0-.522.563.055.055,0,0,1-.058.046h-.106q-.093,0-.093-.105a.123.123,0,0,1,.023-.047,4.474,4.474,0,0,1,.68-.92,1.123,1.123,0,0,1,.82-.369H861.8a.223.223,0,0,1,.164.07.239.239,0,0,1,.07.176.362.362,0,0,1-.1.258.321.321,0,0,1-.24.105H860.45a7.619,7.619,0,0,0-.177,1.488,4.253,4.253,0,0,0,.329,1.7.229.229,0,0,1,.035.117.351.351,0,0,1-.064.2.448.448,0,0,1-.165.147.435.435,0,0,1-.205.053q-.258,0-.351-.416a3.676,3.676,0,0,1-.094-.815,6,6,0,0,1,.094-1.072q.093-.522.3-1.4H859.09q-.762,3.117-.926,3.446a.422.422,0,0,1-.375.258.327.327,0,0,1-.211-.077.239.239,0,0,1-.093-.193Z" transform="translate(-318 -227)"/><text class="cls-4" transform="translate(544.5 294)">/2</text><text class="cls-4" transform="translate(579.75 293.648)">0</text><path class="cls-11" d="M933.235,520.836a.565.565,0,0,1,.034-.164q.282-.562.516-1.107t.422-1.061q.188-.516.34-1.1h-.621a1.12,1.12,0,0,0-.662.223,1.956,1.956,0,0,0-.522.563.055.055,0,0,1-.058.046h-.106q-.093,0-.093-.105a.109.109,0,0,1,.023-.047,4.511,4.511,0,0,1,.68-.92,1.123,1.123,0,0,1,.82-.369h3.539a.223.223,0,0,1,.164.07.239.239,0,0,1,.07.176.362.362,0,0,1-.1.258.321.321,0,0,1-.24.105H936.2a7.619,7.619,0,0,0-.177,1.488,4.253,4.253,0,0,0,.329,1.7.229.229,0,0,1,.035.117.344.344,0,0,1-.064.2.448.448,0,0,1-.165.147.435.435,0,0,1-.205.053q-.258,0-.351-.416a3.676,3.676,0,0,1-.094-.815,6,6,0,0,1,.094-1.072q.093-.522.3-1.4H934.84q-.762,3.117-.926,3.446a.422.422,0,0,1-.375.258.327.327,0,0,1-.211-.077.239.239,0,0,1-.093-.193Z" transform="translate(-318 -227)"/><text class="cls-4" transform="translate(620.25 294)">/2</text><path class="cls-11" d="M976.735,520.836a.565.565,0,0,1,.034-.164q.282-.562.516-1.107t.422-1.061q.188-.516.34-1.1h-.621a1.12,1.12,0,0,0-.662.223,1.956,1.956,0,0,0-.522.563.055.055,0,0,1-.058.046h-.106q-.093,0-.093-.105a.123.123,0,0,1,.023-.047,4.511,4.511,0,0,1,.68-.92,1.123,1.123,0,0,1,.82-.369h3.539a.223.223,0,0,1,.164.07.239.239,0,0,1,.07.176.362.362,0,0,1-.1.258.321.321,0,0,1-.24.105H979.7a7.619,7.619,0,0,0-.177,1.488,4.253,4.253,0,0,0,.329,1.7.229.229,0,0,1,.035.117.344.344,0,0,1-.064.2.448.448,0,0,1-.165.147.432.432,0,0,1-.205.053q-.258,0-.351-.416a3.676,3.676,0,0,1-.094-.815,6,6,0,0,1,.094-1.072q.093-.522.3-1.4H978.34q-.762,3.117-.926,3.446a.422.422,0,0,1-.375.258.327.327,0,0,1-.211-.077.239.239,0,0,1-.093-.193Z" transform="translate(-318 -227)"/><path class="cls-11" d="M893.438,534.617a.932.932,0,0,1-.756-.346,1.954,1.954,0,0,1-.4-.837,4.472,4.472,0,0,1-.111-.984h0a6.294,6.294,0,0,1,.1-1.091,8.01,8.01,0,0,1,.288-1.125,7.57,7.57,0,0,1,.41-1.007,7.1,7.1,0,0,1,.4-.686,5.44,5.44,0,0,1,.545-.709,2.806,2.806,0,0,1,.645-.533,1.35,1.35,0,0,1,.7-.2h.012a.959.959,0,0,1,.638.211,1.414,1.414,0,0,1,.393.539,2.9,2.9,0,0,1,.2.7,4.643,4.643,0,0,1,.059.715,6.4,6.4,0,0,1-.217,1.623,8.307,8.307,0,0,1-.6,1.6,6.588,6.588,0,0,1-.393.686,5.3,5.3,0,0,1-.54.709,2.752,2.752,0,0,1-.638.527,1.368,1.368,0,0,1-.714.211Zm.023-.281a.909.909,0,0,0,.674-.369,3.682,3.682,0,0,0,.563-.9,10.9,10.9,0,0,0,.421-1.09,9.584,9.584,0,0,0,.264-.944h-2.145q-.164.669-.252,1.143a5.133,5.133,0,0,0-.088.943q0,1.219.563,1.219Zm-.14-3.668h2.156q.117-.468.181-.779c.043-.208.08-.424.111-.651a4.6,4.6,0,0,0,.048-.644q0-1.232-.563-1.231-.668,0-1.148,1.078a14.56,14.56,0,0,0-.785,2.227Z" transform="translate(-318 -227)"/><text class="cls-5" transform="translate(579 307.5)"><tspan xml:space="preserve"> [-]</tspan></text><path class="cls-3" d="M822.75,507.5V251m156,256.5V251m-156,250.72h2.565M822.75,460.9h2.565m-2.565-40.824h2.565M822.75,379.25h2.565m-2.565-40.823h2.565M822.75,297.6h2.565M822.75,256.78h2.565M978.75,501.72h-2.565M978.75,460.9h-2.565m2.565-40.824h-2.565m2.565-40.823h-2.565m2.565-40.823h-2.565M978.75,297.6h-2.565m2.565-40.824h-2.565" transform="translate(-318 -227)"/><text class="cls-4" transform="translate(487.094 278.469)">-30</text><text class="cls-4" transform="translate(487.094 237.641)">-20</text><text class="cls-4" transform="translate(487.094 196.82)">-10</text><text class="cls-4" transform="translate(495.352 156)">0</text><text class="cls-4" transform="translate(490.094 115.18)">10</text><text class="cls-4" transform="translate(490.094 74.352)">20</text><text class="cls-4" transform="translate(490.094 33.531)">30</text><polygon class="cls-11" points="481.5 175.863 475.429 169.793 476.496 169.793 480.738 174.035 480.738 169.793 481.5 169.793 481.5 175.863 481.5 175.863"/><text class="cls-5" transform="translate(481.5 168) rotate(-90)"><tspan xml:space="preserve"> {X(e</tspan></text><text class="cls-12" transform="translate(477 144.75) rotate(-90)">j </text><path class="cls-11" d="M795.094,365.926a.726.726,0,0,1-.276.6,1.593,1.593,0,0,1-.662.311,3.469,3.469,0,0,1-.762.088h-.011a4.787,4.787,0,0,1-.856-.082,6.542,6.542,0,0,1-.885-.229,5.369,5.369,0,0,1-.779-.322,4.993,4.993,0,0,1-.545-.31,4.272,4.272,0,0,1-.556-.428,2.137,2.137,0,0,1-.416-.5,1.071,1.071,0,0,1-.158-.551v-.012a.746.746,0,0,1,.164-.492,1.089,1.089,0,0,1,.421-.31,2.307,2.307,0,0,1,.551-.159,3.588,3.588,0,0,1,.563-.046,5.023,5.023,0,0,1,1.271.169,6.506,6.506,0,0,1,1.26.475,4.908,4.908,0,0,1,.533.305,4.208,4.208,0,0,1,.557.422,2.2,2.2,0,0,1,.415.5,1.073,1.073,0,0,1,.171.562v.012Zm-.223-.024a.7.7,0,0,0-.293-.521,2.95,2.95,0,0,0-.709-.44c-.278-.124-.561-.236-.85-.333s-.535-.171-.738-.218v1.688c.344.086.64.152.89.2a4.008,4.008,0,0,0,.739.071q.962,0,.961-.446Zm-2.883.106v-1.687q-.363-.082-.609-.135c-.164-.035-.336-.067-.516-.094a3.283,3.283,0,0,0-.5-.041q-.96,0-.961.445,0,.528.844.908a10.1,10.1,0,0,0,1.746.6Z" transform="translate(-318 -227)"/><text class="cls-5" transform="translate(481.5 135.75) rotate(-90)">)}</text><text class="cls-6" transform="translate(544.875 19.039)">Phase Dirichlet</text><polyline class="cls-14" points="504.75 24 504.828 24.128 504.906 24.257 504.984 24.385 505.062 24.513 505.14 24.641 505.218 24.77 505.296 24.898 505.374 25.026 505.452 25.154 505.53 25.283 505.608 25.411 505.686 25.539 505.764 25.667 505.842 25.796 505.92 25.924 505.998 26.052 506.076 26.18 506.154 26.309 506.232 26.437 506.31 26.565 506.388 26.693 506.466 26.822 506.544 26.95 506.622 27.078 506.7 27.206 506.778 27.335 506.856 27.463 506.934 27.591 507.012 27.719 507.09 27.848 507.168 27.976 507.246 28.104 507.324 28.232 507.402 28.361 507.48 28.489 507.558 28.617 507.636 28.745 507.714 28.874 507.792 29.002 507.87 29.13 507.948 29.258 508.026 29.387 508.104 29.515 508.182 29.643 508.26 29.771 508.338 29.9 508.416 30.028 508.494 30.156 508.572 30.284 508.65 30.413 508.728 30.541 508.806 30.669 508.884 30.797 508.962 30.926 509.04 31.054 509.118 31.182 509.196 31.31 509.274 31.439 509.352 31.567 509.43 31.695 509.508 31.823 509.586 31.952 509.664 32.08 509.742 32.208 509.82 32.336 509.898 32.465 509.976 32.593 510.054 32.721 510.132 32.849 510.21 32.978 510.288 33.106 510.366 33.234 510.444 33.362 510.522 33.491 510.6 33.619 510.678 33.747 510.756 33.875 510.834 34.004 510.912 34.132 510.99 34.26 511.068 34.388 511.146 34.517 511.224 34.645 511.302 34.773 511.38 34.901 511.458 35.03 511.536 35.158 511.614 35.286 511.692 35.414 511.77 35.543 511.848 35.671 511.926 35.799 512.004 35.927 512.082 36.056 512.16 36.184 512.238 36.312 512.316 36.44 512.394 36.569 512.472 36.697 512.55 36.825 512.628 36.953 512.706 37.082 512.784 37.21 512.862 37.338 512.94 37.466 513.018 37.595 513.096 37.723 513.174 37.851 513.252 37.979 513.33 38.108 513.408 38.236 513.486 38.364 513.564 38.492 513.642 38.621 513.72 38.749 513.798 38.877 513.876 39.005 513.954 39.134 514.032 39.262 514.11 39.39 514.188 39.518 514.266 39.647 514.344 39.775 514.422 39.903 514.5 40.031 514.578 40.16 514.656 40.288 514.734 40.416 514.812 40.544 514.89 40.673 514.968 40.801 515.046 40.929 515.124 41.057 515.202 41.186 515.28 41.314 515.358 41.442 515.436 41.57 515.514 41.699 515.592 41.827 515.67 41.955 515.748 42.083 515.826 42.212 515.904 42.34 515.982 42.468 516.06 42.596 516.138 42.725 516.216 42.853 516.294 42.981 516.372 43.109 516.45 43.238 516.528 43.366 516.606 43.494 516.684 43.622 516.762 43.751 516.84 43.879 516.918 44.007 516.996 44.135 517.074 44.264 517.152 44.392 517.23 44.52 517.308 44.648 517.386 44.776 517.464 44.905 517.542 45.033 517.62 45.161 517.698 45.29 517.776 45.418 517.854 45.546 517.932 45.674 518.01 45.803 518.088 45.931 518.166 46.059 518.244 46.187 518.322 46.316 518.4 46.444 518.478 46.572 518.556 46.7 518.634 46.829 518.712 46.957 518.79 47.085 518.868 47.213 518.946 47.341 519.024 47.47 519.102 47.598 519.18 47.726 519.258 47.855 519.336 47.983 519.414 48.111 519.492 48.239 519.57 48.368 519.648 48.496 519.726 48.624 519.804 48.752 519.882 48.881 519.96 49.009 520.038 49.137 520.116 49.265 520.194 49.394 520.272 49.522 520.35 49.65 520.428 49.778 520.506 49.906 520.584 50.035 520.662 50.163 520.74 50.291 520.818 50.42 520.896 50.548 520.974 50.676 521.052 50.804 521.13 50.933 521.208 51.061 521.286 51.189 521.364 51.317 521.442 51.446 521.52 51.574 521.598 51.702 521.676 51.83 521.754 51.959 521.832 52.087 521.91 52.215 521.988 52.343 522.066 52.471 522.144 52.6 522.222 52.728 522.3 52.856 522.378 52.985 522.456 53.113 522.534 53.241 522.612 53.369 522.69 53.498 522.768 53.626 522.846 53.754 522.924 53.882 523.002 54.011 523.08 54.139 523.158 54.267 523.236 54.395 523.314 54.524 523.392 54.652 523.47 54.78 523.548 54.908 523.626 55.036 523.704 55.165 523.782 55.293 523.86 55.421 523.938 55.549 524.016 55.678 524.094 55.806 524.172 55.934 524.25 56.063 524.328 56.191 524.406 56.319 524.484 56.447 524.562 56.576 524.64 56.704 524.718 56.832 524.796 56.96 524.874 57.089 524.952 57.217 525.03 57.345 525.108 57.473 525.186 57.602 525.264 57.73 525.342 57.858 525.42 57.986 525.498 58.115 525.576 58.243 525.654 58.371 525.732 58.499 525.81 58.628 525.888 58.756 525.966 58.884 526.044 59.012 526.122 59.14 526.2 59.269 526.278 59.397 526.356 59.525 526.434 59.654 526.512 59.782 526.59 59.91 526.668 60.038 526.746 60.167 526.824 60.295 526.902 60.423 526.98 60.551 527.058 60.68 527.136 60.808 527.214 60.936 527.292 61.064 527.37 61.193 527.448 61.321 527.526 61.449 527.604 61.577 527.682 61.706 527.76 61.834 527.838 61.962 527.916 62.09 527.994 62.219 528.072 62.347 528.15 62.475 528.228 62.603 528.306 62.732 528.384 62.86 528.462 62.988 528.54 63.116 528.618 63.245 528.696 63.373 528.774 63.501 528.852 63.629 528.93 63.758 529.008 63.886 529.086 64.014 529.164 64.142 529.242 64.271 529.32 64.399 529.398 64.527 529.476 64.655 529.554 64.784 529.632 64.912 529.71 65.04 529.788 65.168 529.866 65.296 529.944 65.425 530.022 65.553 530.1 65.681 530.178 65.81 530.256 65.938 530.334 66.066 530.412 66.194 530.49 66.323 530.568 66.451 530.646 66.579 530.724 66.707 530.802 66.835 530.88 66.964 530.958 67.092 531.036 67.22 531.114 67.349 531.192 67.477 531.27 67.605 531.348 67.733 531.426 67.861 531.504 67.99 531.582 68.118 531.66 68.246 531.738 68.374 531.816 68.503 531.894 68.631 531.972 68.759 532.05 68.888 532.128 69.016 532.206 69.144 532.284 69.272 532.362 69.4 532.44 69.529 532.518 69.657 532.596 69.785 532.674 69.914 532.752 70.042 532.83 70.17 532.908 70.298 532.986 70.426 533.064 70.555 533.142 70.683 533.22 70.811 533.298 70.939 533.376 71.068 533.454 71.196 533.532 71.324 533.61 71.452 533.688 71.581 533.766 71.709 533.844 71.837 533.922 71.966 534 72.094 534.078 72.222 534.156 72.35 534.234 72.479 534.312 72.607 534.39 72.735 534.468 72.863 534.546 72.992 534.624 73.12 534.702 73.248 534.78 73.376 534.858 73.505 534.936 73.633 535.014 73.761 535.092 73.889 535.17 74.018 535.248 74.146 535.326 74.274 535.404 74.402 535.482 74.531 535.56 74.659 535.638 74.787 535.716 74.915 535.794 75.044 535.872 75.172 535.95 75.3 536.028 75.428 536.106 75.557 536.184 75.685 536.262 75.813 536.34 75.941 536.418 76.07 536.496 76.198 536.574 76.326 536.652 76.454 536.73 76.583 536.808 76.711 536.886 76.839 536.964 76.967 537.042 77.095 537.12 77.224 537.198 77.352 537.276 77.48 537.354 77.609 537.432 77.737 537.51 77.865 537.588 77.993 537.666 78.122 537.744 78.25 537.822 78.378 537.9 78.506 537.978 78.635 538.056 78.763 538.134 78.891 538.212 79.019 538.29 79.148 538.368 79.276 538.446 79.404 538.524 79.532 538.602 79.66 538.68 79.789 538.758 79.917 538.836 80.045 538.914 80.174 538.992 80.302 539.07 80.43 539.148 80.558 539.226 80.687 539.304 80.815 539.382 80.943 539.46 81.071 539.538 81.2 539.616 81.328 539.694 81.456 539.772 81.584 539.85 81.713 539.928 81.841 540.006 81.969 540.084 82.097 540.162 82.226 540.24 82.354 540.318 82.482 540.396 82.61 540.474 82.739 540.552 82.867 540.63 82.995 540.708 83.123 540.786 83.251 540.864 83.38 540.942 83.508 541.02 83.636 541.098 83.765 541.176 83.893 541.254 84.021 541.332 84.149 541.41 84.278 541.488 84.406 541.566 84.534 541.644 84.662 541.722 84.791 541.8 84.919 541.878 85.047 541.956 85.175 542.034 85.304 542.112 85.432 542.19 85.56 542.268 85.688 542.346 85.816 542.424 85.945 542.502 86.073 542.58 86.201 542.658 86.33 542.736 86.458 542.814 86.586 542.892 86.714 542.97 86.843 543.048 86.971 543.126 87.099 543.204 87.227 543.282 87.356 543.36 87.484 543.438 87.612 543.516 87.74 543.594 87.869 543.672 87.997 543.75 88.125 543.828 88.253 543.906 88.382 543.984 88.51 544.062 88.638 544.14 88.766 544.218 88.895 544.296 89.023 544.374 89.151 544.452 89.279 544.53 89.408 544.608 89.536 544.686 89.664 544.764 89.792 544.842 89.921 544.92 90.049 544.998 90.177 545.076 90.305 545.154 90.434 545.232 90.562 545.31 90.69 545.388 90.818 545.466 90.947 545.544 91.075 545.622 91.203 545.7 91.331 545.778 91.46 545.856 91.588 545.934 91.716 546.012 91.844 546.09 91.973 546.168 92.101 546.246 92.229 546.324 92.357 546.402 92.486 546.48 92.614 546.558 92.742 546.636 92.87 546.714 92.999 546.792 93.127 546.87 93.255 546.948 93.383 547.026 93.512 547.104 93.64 547.182 93.768 547.26 93.896 547.338 94.025 547.416 94.153 547.494 94.281 547.572 94.409 547.65 94.538 547.728 94.666 547.806 94.794 547.884 94.922 547.962 95.051 548.04 95.179 548.118 95.307 548.196 95.435 548.274 95.564 548.352 95.692 548.43 95.82 548.508 95.948 548.586 96.077 548.664 96.205 548.742 96.333 548.82 96.461 548.898 96.59 548.976 96.718 549.054 96.846 549.132 96.974 549.21 97.103 549.288 97.231 549.366 97.359 549.444 97.487 549.522 97.616 549.6 97.744 549.678 97.872 549.756 98 549.834 98.129 549.912 98.257 549.99 98.385 550.068 98.513 550.146 98.641 550.224 98.77 550.302 98.898 550.38 99.026 550.458 99.155 550.536 99.283 550.614 99.411 550.692 99.539 550.77 99.668 550.848 99.796 550.926 99.924 551.004 100.052 551.082 100.181 551.16 100.309 551.238 100.437 551.316 100.565 551.394 100.694 551.472 100.822 551.55 100.95 551.628 101.078 551.706 101.206 551.784 101.335 551.862 101.463 551.94 101.591 552.018 101.72 552.096 101.848 552.174 101.976 552.252 102.104 552.33 102.233 552.408 102.361 552.486 102.489 552.564 102.617 552.642 102.746 552.72 102.874 552.798 103.002 552.876 103.13 552.954 103.259 553.032 103.387 553.11 103.515 553.188 103.643 553.266 103.771 553.344 103.9 553.422 104.028 553.5 104.156 553.578 104.285 553.656 104.413 553.734 104.541 553.812 104.669 553.89 104.798 553.968 104.926 554.046 105.054 554.124 105.182 554.202 105.311 554.28 105.439 554.358 105.567 554.436 105.695 554.514 105.824 554.592 105.952 554.67 106.08 554.748 106.208 554.826 106.337 554.904 106.465 554.982 106.593 555.06 106.721 555.138 106.85 555.216 106.978 555.294 107.106 555.372 107.234 555.45 107.363 555.528 107.491 555.606 107.619 555.684 107.747 555.762 107.876 555.84 108.004 555.918 108.132 555.996 108.26 556.074 108.389 556.152 108.517 556.23 108.645 556.308 108.773 556.386 108.902 556.464 109.03 556.542 109.158 556.62 109.286 556.698 109.415 556.776 109.543 556.854 109.671 556.932 109.799 557.01 109.928 557.088 110.056 557.166 110.184 557.244 110.312 557.322 110.44 557.4 110.569 557.478 110.697 557.556 110.825 557.634 110.954 557.712 111.082 557.79 111.21 557.868 111.338 557.946 111.467 558.024 111.595 558.102 111.723 558.18 111.851 558.258 111.98 558.336 112.108 558.414 112.236 558.492 112.364 558.57 112.493 558.648 112.621 558.726 112.749 558.804 112.877 558.882 113.005 558.96 113.134 559.038 113.262 559.116 113.39 559.194 113.519 559.272 113.647 559.35 113.775 559.428 113.903 559.506 114.032 559.584 114.16 559.662 114.288 559.74 114.416 559.818 114.545 559.896 114.673 559.974 114.801 560.052 114.929 560.13 115.058 560.208 115.186 560.286 115.314 560.364 115.442 560.442 115.57 560.52 115.699 560.598 115.827 560.676 115.955 560.754 116.084 560.832 116.212 560.91 116.34 560.988 116.468 561.066 116.596 561.144 116.725 561.222 116.853 561.3 116.981 561.378 117.11 561.456 117.238 561.534 117.366 561.612 117.494 561.69 117.623 561.768 117.751 561.846 117.879 561.924 118.007 562.002 118.136 562.08 118.264 562.158 118.392 562.236 118.52 562.314 118.649 562.392 118.777 562.47 118.905 562.548 119.033 562.626 119.161 562.704 119.29 562.782 119.418 562.86 119.546 562.938 119.674 563.016 119.803 563.094 119.931 563.172 120.059 563.25 120.188 563.328 120.316 563.406 120.444 563.484 120.572 563.562 120.701 563.64 120.829 563.718 120.957 563.796 121.085 563.874 121.214 563.952 121.342 564.03 121.47 564.108 121.598 564.186 121.727 564.264 121.855 564.342 121.983 564.42 122.111 564.498 122.24 564.576 122.368 564.654 122.496 564.732 122.624 564.81 122.753 564.888 122.881 564.966 123.009 565.044 123.137 565.122 123.266 565.2 123.394 565.278 123.522 565.356 123.65 565.434 123.779 565.512 123.907 565.59 124.035 565.668 124.163 565.746 124.292 565.824 124.42 565.902 124.548 565.98 124.676 566.058 124.805 566.136 124.933 566.214 125.061 566.292 125.189 566.37 125.318 566.448 125.446 566.526 125.574 566.604 125.702 566.682 125.831 566.76 125.959 566.838 126.087 566.916 126.215 566.994 126.344 567.072 126.472 567.15 126.6 567.228 126.728 567.306 126.857 567.384 126.985 567.462 127.113 567.54 127.241 567.618 127.37 567.696 127.498 567.774 127.626 567.852 127.754 567.93 127.883 568.008 128.011 568.086 128.139 568.164 128.267 568.242 128.396 568.32 128.524 568.398 128.652 568.476 128.78 568.554 128.909 568.632 129.037 568.71 129.165 568.788 129.293 568.866 129.422 568.944 129.55 569.022 129.678 569.1 129.806 569.178 129.935 569.256 130.063 569.334 130.191 569.412 130.319 569.49 130.448 569.568 130.576 569.646 130.704 569.724 130.832 569.802 130.961 569.88 131.089 569.958 131.217 570.036 131.345 570.114 131.474 570.192 131.602 570.27 131.73 570.348 131.858 570.426 131.986 570.504 132.115 570.582 132.243 570.66 132.371 570.738 132.5 570.816 132.628 570.894 132.756 570.972 132.884 571.05 133.013 571.128 133.141 571.206 133.269 571.284 133.397 571.362 133.526 571.44 133.654 571.518 133.782 571.596 133.91 571.674 134.039 571.752 134.167 571.83 134.295 571.908 134.423 571.986 134.551 572.064 134.68 572.142 134.808 572.22 134.936 572.298 135.064 572.376 135.193 572.454 135.321 572.532 135.449 572.61 135.578 572.688 135.706 572.766 135.834 572.844 135.962 572.922 136.091 573 136.219 573.078 136.347 573.156 136.475 573.234 136.604 573.312 136.732 573.39 136.86 573.468 136.988 573.546 137.117 573.624 137.245 573.702 137.373 573.78 137.501 573.858 137.63 573.936 137.758 574.014 137.886 574.092 138.014 574.17 138.143 574.248 138.271 574.326 138.399 574.404 138.527 574.482 138.656 574.56 138.784 574.638 138.912 574.716 139.04 574.794 139.169 574.872 139.297 574.95 139.425 575.028 139.553 575.106 139.682 575.184 139.81 575.262 139.938 575.34 140.066 575.418 140.195 575.496 140.323 575.574 140.451 575.652 140.579 575.73 140.708 575.808 140.836 575.886 140.964 575.964 141.092 576.042 141.221 576.12 141.349 576.198 141.477 576.276 141.605 576.354 141.734 576.432 141.862 576.51 141.99 576.588 142.118 576.666 142.247 576.744 142.375 576.822 142.503 576.9 142.631 576.978 142.76 577.056 142.888 577.134 143.016 577.212 143.144 577.29 143.273 577.368 143.401 577.446 143.529 577.524 143.657 577.602 143.786 577.68 143.914 577.758 144.042 577.836 144.17 577.914 144.299 577.992 144.427 578.07 144.555 578.148 144.683 578.226 144.812 578.304 144.94 578.382 145.068 578.46 145.196 578.538 145.325 578.616 145.453 578.694 145.581 578.772 145.709 578.85 145.838 578.928 145.966 579.006 146.094 579.084 146.222 579.162 146.351 579.24 146.479 579.318 146.607 579.396 146.735 579.474 146.863 579.552 146.992 579.63 147.12 579.708 147.248 579.786 147.377 579.864 147.505 579.942 147.633 580.02 147.761 580.098 147.89 580.176 148.018 580.254 148.146 580.332 148.274 580.41 148.403 580.488 148.531 580.566 148.659 580.644 148.787 580.722 148.916 580.8 149.044 580.878 149.172 580.956 149.3 581.034 149.429 581.112 149.557 581.19 149.685 581.268 149.813 581.346 149.941 581.424 150.07 581.502 150.198 581.58 150.326 581.658 150.455 581.736 150.583 581.814 150.711 581.892 150.839 581.97 150.968 582.048 151.096 582.126 151.224 582.204 151.352 582.282 151.481 582.36 151.609 582.438 151.737 582.516 151.865 582.594 151.994 582.672 152.122 582.75 152.25 582.828 152.378 582.906 152.507 582.984 152.635 583.062 152.763 583.14 152.891 583.218 153.02 583.296 153.148 583.374 153.276 583.452 153.404 583.53 153.533 583.608 153.661 583.686 153.789 583.764 153.917 583.842 154.046 583.92 154.174 583.998 154.302 584.076 154.43 584.154 154.559 584.232 154.687 584.31 154.815 584.388 154.943 584.466 155.072 584.544 155.2 584.622 155.328 584.7 155.456 584.778 155.585 584.856 155.713 584.934 155.841 585.012 155.969 585.09 156.098 585.168 156.226 585.246 156.354 585.324 156.482 585.402 156.611 585.48 156.739 585.558 156.867 585.636 156.995 585.714 157.124 585.792 157.252 585.87 157.38 585.948 157.508 586.026 157.637 586.104 157.765 586.182 157.893 586.26 158.021 586.338 158.15 586.416 158.278 586.494 158.406 586.572 158.534 586.65 158.663 586.728 158.791 586.806 158.919 586.884 159.047 586.962 159.175 587.04 159.304 587.118 159.432 587.196 159.56 587.274 159.689 587.352 159.817 587.43 159.945 587.508 160.073 587.586 160.202 587.664 160.33 587.742 160.458 587.82 160.586 587.898 160.715 587.976 160.843 588.054 160.971 588.132 161.099 588.21 161.228 588.288 161.356 588.366 161.484 588.444 161.612 588.522 161.741 588.6 161.869 588.678 161.997 588.756 162.125 588.834 162.253 588.912 162.382 588.99 162.51 589.068 162.638 589.146 162.767 589.224 162.895 589.302 163.023 589.38 163.151 589.458 163.28 589.536 163.408 589.614 163.536 589.692 163.664 589.77 163.793 589.848 163.921 589.926 164.049 590.004 164.177 590.082 164.306 590.16 164.434 590.238 164.562 590.316 164.69 590.394 164.818 590.472 164.947 590.55 165.075 590.628 165.203 590.706 165.331 590.784 165.46 590.862 165.588 590.94 165.716 591.018 165.845 591.096 165.973 591.174 166.101 591.252 166.229 591.33 166.358 591.408 166.486 591.486 166.614 591.564 166.742 591.642 166.87 591.72 166.999 591.798 167.127 591.876 167.255 591.954 167.383 592.032 167.512 592.11 167.64 592.188 167.768 592.266 167.896 592.344 168.025 592.422 168.153 592.5 168.281 592.578 168.41 592.656 168.538 592.734 168.666 592.812 168.794 592.89 168.923 592.968 169.051 593.046 169.179 593.124 169.307 593.202 169.436 593.28 169.564 593.358 169.692 593.436 169.82 593.514 169.949 593.592 170.077 593.67 170.205 593.748 170.333 593.826 170.462 593.904 170.59 593.982 170.718 594.06 170.846 594.138 170.975 594.216 171.103 594.294 171.231 594.372 171.359 594.45 171.488 594.528 171.616 594.606 171.744 594.684 171.872 594.762 172.001 594.84 172.129 594.918 172.257 594.996 172.385 595.074 172.514 595.152 172.642 595.23 172.77 595.308 172.898 595.386 173.027 595.464 173.155 595.542 173.283 595.62 173.411 595.698 173.54 595.776 173.668 595.854 173.796 595.932 173.924 596.01 174.053 596.088 174.181 596.166 174.309 596.244 174.437 596.322 174.566 596.4 174.694 596.478 174.822 596.556 174.95 596.634 175.079 596.712 175.207 596.79 175.335 596.868 175.463 596.946 175.591 597.024 175.72 597.102 175.848 597.18 175.976 597.258 176.105 597.336 176.233 597.414 176.361 597.492 176.489 597.57 176.618 597.648 176.746 597.726 176.874 597.804 177.002 597.882 177.13 597.96 177.259 598.038 177.387 598.116 177.515 598.194 177.644 598.272 177.772 598.35 177.9 598.428 178.028 598.506 178.157 598.584 178.285 598.662 178.413 598.74 178.541 598.818 178.67 598.896 178.798 598.974 178.926 599.052 179.054 599.13 179.182 599.208 179.311 599.286 179.439 599.364 179.567 599.442 179.695 599.52 179.824 599.598 179.952 599.676 180.08 599.754 180.209 599.832 180.337 599.91 180.465 599.988 180.593 600.066 180.722 600.144 180.85 600.222 180.978 600.3 181.106 600.378 181.235 600.456 181.363 600.534 181.491 600.612 181.619 600.69 181.747 600.768 181.876 600.846 182.004 600.924 182.132 601.002 182.26 601.08 182.389 601.158 182.517 601.236 182.645 601.314 182.774 601.392 182.902 601.47 183.03 601.548 183.158 601.626 183.287 601.704 183.415 601.782 183.543 601.86 183.671 601.938 183.8 602.016 183.928 602.094 184.056 602.172 184.184 602.25 184.313 602.328 184.441 602.406 184.569 602.484 184.697 602.562 184.826 602.64 184.954 602.718 185.082 602.796 185.21 602.874 185.339 602.952 185.467 603.03 185.595 603.108 185.723 603.186 185.852 603.264 185.98 603.342 186.108 603.42 186.236 603.498 186.365 603.576 186.493 603.654 186.621 603.732 186.749 603.81 186.878 603.888 187.006 603.966 187.134 604.044 187.262 604.122 187.391 604.2 187.519 604.278 187.647 604.356 187.775 604.434 187.903 604.512 188.032 604.59 188.16 604.668 188.288 604.746 188.417 604.824 188.545 604.902 188.673 604.98 188.801 605.058 188.93 605.136 189.058 605.214 189.186 605.292 189.314 605.37 189.443 605.448 189.571 605.526 189.699 605.604 189.827 605.682 189.956 605.76 190.084 605.838 190.212 605.916 190.34 605.994 190.468 606.072 190.597 606.15 190.725 606.228 190.853 606.306 190.982 606.384 191.11 606.462 191.238 606.54 191.366 606.618 191.495 606.696 191.623 606.774 191.751 606.852 191.879 606.93 192.008 607.008 192.136 607.086 192.264 607.164 192.392 607.242 192.521 607.32 192.649 607.398 192.777 607.476 192.905 607.554 193.033 607.632 193.162 607.71 193.29 607.788 193.418 607.866 193.547 607.944 193.675 608.022 193.803 608.1 193.931 608.178 194.06 608.256 194.188 608.334 194.316 608.412 194.444 608.49 194.573 608.568 194.701 608.646 194.829 608.724 194.957 608.802 195.086 608.88 195.214 608.958 195.342 609.036 195.47 609.114 195.599 609.192 195.727 609.27 195.855 609.348 195.983 609.426 196.112 609.504 196.24 609.582 196.368 609.66 196.496 609.738 196.624 609.816 196.753 609.894 196.881 609.972 197.009 610.05 197.138 610.128 197.266 610.206 197.394 610.284 197.522 610.362 197.651 610.44 197.779 610.518 197.907 610.596 198.035 610.674 198.163 610.752 198.292 610.83 198.42 610.908 198.548 610.986 198.677 611.064 198.805 611.142 198.933 611.22 199.061 611.298 199.19 611.376 199.318 611.454 199.446 611.532 199.574 611.61 199.703 611.688 199.831 611.766 199.959 611.844 200.087 611.922 200.215 612 200.344 612.078 200.472 612.156 200.6 612.234 200.729 612.312 200.857 612.39 200.985 612.468 201.113 612.546 201.242 612.624 201.37 612.702 201.498 612.78 201.626 612.858 201.755 612.936 201.883 613.014 202.011 613.092 202.139 613.17 202.268 613.248 202.396 613.326 202.524 613.404 202.652 613.482 202.78 613.56 202.909 613.638 203.037 613.716 203.165 613.794 203.294 613.872 203.422 613.95 203.55 614.028 203.678 614.106 203.807 614.184 203.935 614.262 204.063 614.34 204.191 614.418 204.32 614.496 204.448 614.574 204.576 614.652 204.704 614.73 204.833 614.808 204.961 614.886 205.089 614.964 205.217 615.042 205.345 615.12 205.474 615.198 205.602 615.276 205.73 615.354 205.858 615.432 205.987 615.51 206.115 615.588 206.243 615.666 206.371 615.744 206.5 615.822 206.628 615.9 206.756 615.978 206.885 616.056 207.013 616.134 207.141 616.212 207.269 616.29 207.398 616.368 207.526 616.446 207.654 616.524 207.782 616.602 207.91 616.68 208.039 616.758 208.167 616.836 208.295 616.914 208.424 616.992 208.552 617.07 208.68 617.148 208.808 617.226 208.936 617.304 209.065 617.382 209.193 617.46 209.321 617.538 209.45 617.616 209.578 617.694 209.706 617.772 209.834 617.85 209.963 617.928 210.091 618.006 210.219 618.084 210.347 618.162 210.475 618.24 210.604 618.318 210.732 618.396 210.86 618.474 210.988 618.552 211.117 618.63 211.245 618.708 211.373 618.786 211.502 618.864 211.63 618.942 211.758 619.02 211.886 619.098 212.015 619.176 212.143 619.254 212.271 619.332 212.399 619.41 212.528 619.488 212.656 619.566 212.784 619.644 212.912 619.722 213.04 619.8 213.169 619.878 213.297 619.956 213.425 620.034 213.554 620.112 213.682 620.19 213.81 620.268 213.938 620.346 214.066 620.424 214.195 620.502 214.323 620.58 214.451 620.658 214.58 620.736 214.708 620.814 214.836 620.892 214.964 620.97 215.092 621.048 215.221 621.126 215.349 621.204 215.477 621.282 215.605 621.36 215.734 621.438 215.862 621.516 215.99 621.594 216.118 621.672 216.247 621.75 216.375 621.828 216.503 621.906 216.632 621.984 216.76 622.062 216.888 622.14 217.016 622.218 217.145 622.296 217.273 622.374 217.401 622.452 217.529 622.53 217.658 622.608 217.786 622.686 217.914 622.764 218.042 622.842 218.171 622.92 218.299 622.998 218.427 623.076 218.555 623.154 218.684 623.232 218.812 623.31 218.94 623.388 219.068 623.466 219.197 623.544 219.325 623.622 219.453 623.7 219.581 623.778 219.71 623.856 219.838 623.934 219.966 624.012 220.094 624.09 220.223 624.168 220.351 624.246 220.479 624.324 220.607 624.402 220.736 624.48 220.864 624.558 220.992 624.636 221.12 624.714 221.248 624.792 221.377 624.87 221.505 624.948 221.633 625.026 221.762 625.104 221.89 625.182 222.018 625.26 222.146 625.338 222.275 625.416 222.403 625.494 222.531 625.572 222.659 625.65 222.788 625.728 222.916 625.806 223.044 625.884 223.172 625.962 223.301 626.04 223.429 626.118 223.557 626.196 223.685 626.274 223.814 626.352 223.942 626.43 224.07 626.508 224.198 626.586 224.327 626.664 224.455 626.742 224.583 626.82 224.711 626.898 224.84 626.976 224.968 627.054 225.096 627.132 225.224 627.21 225.353 627.288 225.481 627.366 225.609 627.444 225.737 627.522 225.866 627.6 225.994 627.678 226.122 627.756 226.25 627.834 226.379 627.912 226.507 627.99 226.635 628.068 226.763 628.146 226.892 628.224 227.02 628.302 227.148 628.38 227.276 628.458 227.405 628.536 227.533 628.614 227.661 628.692 227.789 628.77 227.918 628.848 228.046 628.926 228.174 629.004 228.302 629.082 228.431 629.16 228.559 629.238 228.687 629.316 228.815 629.394 228.943 629.472 229.072 629.55 229.2 629.628 229.328 629.706 229.457 629.784 229.585 629.862 229.713 629.94 229.841 630.018 229.97 630.096 230.098 630.174 230.226 630.252 230.354 630.33 230.483 630.408 230.611 630.486 230.739 630.564 230.867 630.642 230.996 630.72 231.124 630.798 231.252 630.876 231.38 630.954 231.509 631.032 231.637 631.11 231.765 631.188 231.893 631.266 232.022 631.344 232.15 631.422 232.278 631.5 232.406 631.578 232.535 631.656 232.663 631.734 232.791 631.812 232.919 631.89 233.048 631.968 233.176 632.046 233.304 632.124 233.432 632.202 233.56 632.28 233.689 632.358 233.817 632.436 233.945 632.514 234.073 632.592 234.202 632.67 234.33 632.748 234.458 632.826 234.587 632.904 234.715 632.982 234.843 633.06 234.971 633.138 235.1 633.216 235.228 633.294 235.356 633.372 235.484 633.45 235.613 633.528 235.741 633.606 235.869 633.684 235.997 633.762 236.126 633.84 236.254 633.918 236.382 633.996 236.51 634.074 236.639 634.152 236.767 634.23 236.895 634.308 237.023 634.386 237.152 634.464 237.28 634.542 237.408 634.62 237.536 634.698 237.664 634.776 237.793 634.854 237.921 634.932 238.049 635.01 238.178 635.088 238.306 635.166 238.434 635.244 238.562 635.322 238.69 635.4 238.819 635.478 238.947 635.556 239.075 635.634 239.203 635.712 239.332 635.79 239.46 635.868 239.588 635.946 239.717 636.024 239.845 636.102 239.973 636.18 240.101 636.258 240.23 636.336 240.358 636.414 240.486 636.492 240.614 636.57 240.743 636.648 240.871 636.726 240.999 636.804 241.127 636.882 241.255 636.96 241.384 637.038 241.512 637.116 241.64 637.194 241.769 637.272 241.897 637.35 242.025 637.428 242.153 637.506 242.281 637.584 242.41 637.662 242.538 637.74 242.666 637.818 242.795 637.896 242.923 637.974 243.051 638.052 243.179 638.13 243.308 638.208 243.436 638.286 243.564 638.364 243.692 638.442 243.82 638.52 243.949 638.598 244.077 638.676 244.205 638.754 244.334 638.832 244.462 638.91 244.59 638.988 244.718 639.066 244.847 639.144 244.975 639.222 245.103 639.3 245.231 639.378 245.36 639.456 245.488 639.534 245.616 639.612 245.744 639.69 245.873 639.768 246.001 639.846 246.129 639.924 246.257 640.002 246.386 640.08 246.514 640.158 246.642 640.236 246.77 640.314 246.899 640.392 247.027 640.47 247.155 640.548 247.283 640.626 247.411 640.704 247.54 640.782 247.668 640.86 247.796 640.938 247.925 641.016 248.053 641.094 248.181 641.172 248.309 641.25 248.438 641.328 248.566 641.406 248.694 641.484 248.822 641.562 248.951 641.64 249.079 641.718 249.207 641.796 249.335 641.874 249.464 641.952 249.592 642.03 249.72 642.108 249.848 642.186 249.977 642.264 250.105 642.342 250.233 642.42 250.361 642.498 250.49 642.576 250.618 642.654 250.746 642.732 250.874 642.81 251.003 642.888 251.131 642.966 251.259 643.044 251.387 643.122 251.516 643.2 251.644 643.278 251.772 643.356 251.9 643.434 252.029 643.512 252.157 643.59 252.285 643.668 252.413 643.746 252.542 643.824 252.67 643.902 252.798 643.98 252.926 644.058 253.055 644.136 253.183 644.214 253.311 644.292 253.439 644.37 253.568 644.448 253.696 644.526 253.824 644.604 253.952 644.682 254.081 644.76 254.209 644.838 254.337 644.916 254.465 644.994 254.594 645.072 254.722 645.15 254.85 645.228 254.978 645.306 255.107 645.384 255.235 645.462 255.363 645.54 255.491 645.618 255.62 645.696 255.748 645.774 255.876 645.852 256.004 645.93 256.133 646.008 256.261 646.086 256.389 646.164 256.517 646.242 256.646 646.32 256.774 646.398 256.902 646.476 257.03 646.554 257.159 646.632 257.287 646.71 257.415 646.788 257.543 646.866 257.672 646.944 257.8 647.022 257.928 647.1 258.056 647.178 258.185 647.256 258.313 647.334 258.441 647.412 258.569 647.49 258.698 647.568 258.826 647.646 258.954 647.724 259.082 647.802 259.211 647.88 259.339 647.958 259.467 648.036 259.595 648.114 259.724 648.192 259.852 648.27 259.98 648.348 260.108 648.426 260.237 648.504 260.365 648.582 260.493 648.66 260.621 648.738 260.749 648.816 260.878 648.894 261.006 648.972 261.134 649.05 261.263 649.128 261.391 649.206 261.519 649.284 261.647 649.362 261.776 649.44 261.904 649.518 262.032 649.596 262.16 649.674 262.288 649.752 262.417 649.83 262.545 649.908 262.673 649.986 262.802 650.064 262.93 650.142 263.058 650.22 263.186 650.298 263.315 650.376 263.443 650.454 263.571 650.532 263.699 650.61 263.828 650.688 263.956 650.766 264.084 650.844 264.212 650.922 264.341 651 264.469 651.078 264.597 651.156 264.725 651.234 264.854 651.312 264.982 651.39 265.11 651.468 265.238 651.546 265.367 651.624 265.495 651.702 265.623 651.78 265.751 651.858 265.88 651.936 266.008 652.014 266.136 652.092 266.264 652.17 266.393 652.248 266.521 652.326 266.649 652.404 266.777 652.482 266.905 652.56 267.034 652.638 267.162 652.716 267.29 652.794 267.419 652.872 267.547 652.95 267.675 653.028 267.803 653.106 267.932 653.184 268.06 653.262 268.188 653.34 268.316 653.418 268.444 653.496 268.573 653.574 268.701 653.652 268.829 653.73 268.958 653.808 269.086 653.886 269.214 653.964 269.342 654.042 269.471 654.12 269.599 654.198 269.727 654.276 269.855 654.354 269.984 654.432 270.112 654.51 270.24 654.588 270.368 654.666 270.497 654.744 270.625 654.822 270.753 654.9 270.881 654.978 271.01 655.056 271.138 655.134 271.266 655.212 271.394 655.29 271.523 655.368 271.651 655.446 271.779 655.524 271.907 655.602 272.035 655.68 272.164 655.758 272.292 655.836 272.42 655.914 272.549 655.992 272.677 656.07 272.805 656.148 272.933 656.226 273.062 656.304 273.19 656.382 273.318 656.46 273.446 656.538 273.574 656.616 273.703 656.694 273.831 656.772 273.959 656.85 274.088 656.928 274.216 657.006 274.344 657.084 274.472 657.162 274.6 657.24 274.729 657.318 274.857 657.396 274.985 657.474 275.114 657.552 275.242 657.63 275.37 657.708 275.498 657.786 275.627 657.864 275.755 657.942 275.883 658.02 276.011 658.098 276.14 658.176 276.268 658.254 276.396 658.332 276.524 658.41 276.653 658.488 276.781 658.566 276.909 658.644 277.037 658.722 277.165 658.8 277.294 658.878 277.422 658.956 277.55 659.034 277.679 659.112 277.807 659.19 277.935 659.268 278.063 659.346 278.191 659.424 278.32 659.502 278.448 659.58 278.576 659.658 278.704 659.736 278.833 659.814 278.961 659.892 279.089 659.97 279.218 660.048 279.346 660.126 279.474 660.204 279.602 660.282 279.73 660.36 279.859 660.438 279.987 660.516 280.115 660.594 280.244 660.672 280.372 660.75 280.5"/></svg>