<svg id="Layer_1" data-name="Layer 1" xmlns="http://www.w3.org/2000/svg" viewBox="0 0 427.231 91.349">
  <defs>
    <style>
      .cls-1 {
        fill: #1d1d1b;
      }

      .cls-2, .cls-3, .cls-5, .cls-6 {
        fill: none;
      }

      .cls-2, .cls-3, .cls-4, .cls-5, .cls-6 {
        stroke: #000;
        stroke-miterlimit: 10;
      }

      .cls-2, .cls-3, .cls-4 {
        stroke-width: 0.85px;
      }

      .cls-3, .cls-6 {
        stroke-linecap: round;
      }

      .cls-3 {
        stroke-dasharray: 0 3.679;
      }

      .cls-5, .cls-6 {
        stroke-width: 2.268px;
      }

      .cls-6 {
        stroke-dashoffset: 1.134px;
        stroke-dasharray: 0 7.398;
      }
    </style>
  </defs>
  <title>FTDCos2Deltas</title>
  <g>
    <path class="cls-1" d="M648.131,385.842a3.2,3.2,0,0,0,.16-.837c0-.329-.11-.459-.31-.459-.358,0-.558.478-.727,1.186-.06.219-.069.23-.169.23-.02,0-.12,0-.12-.1a4.96,4.96,0,0,1,.3-.966.87.87,0,0,1,.747-.569.9.9,0,0,1,.917.867,1.928,1.928,0,0,1,1.554-.867,1.018,1.018,0,0,1,1.146,1.067,8.979,8.979,0,0,1-.607,2.192,1.893,1.893,0,0,0-.18.707c0,.229.07.329.24.329.487,0,.816-.559,1.016-1.235.049-.15.049-.18.149-.18.03,0,.12,0,.12.1,0,.08-.369,1.534-1.3,1.534a.8.8,0,0,1-.818-.817,1.136,1.136,0,0,1,.1-.459,9.485,9.485,0,0,0,.648-2.321c0-.329-.09-.7-.538-.7a1.981,1.981,0,0,0-1.624,1.216c-.011.04-.09.329-.13.5-.05.228-.11.448-.169.667l-.219.9c-.061.249-.18.717-.19.738a.407.407,0,0,1-.369.278.267.267,0,0,1-.289-.269c0-.05.06-.279.09-.428Z" transform="translate(-468.463 -337.745)"/>
    <polyline points="88.355 10.845 86.088 6.31 83.82 10.845 86.088 9.712"/>
    <line class="cls-2" x1="86.088" y1="80.719" x2="86.088" y2="9.712"/>
    <polyline points="170.135 51.097 174.67 48.829 170.135 46.562 171.268 48.829"/>
    <line class="cls-2" y1="48.829" x2="171.268" y2="48.829"/>
    <path class="cls-1" d="M564.626,352.017a3.918,3.918,0,0,0-.169.877c0,.339.159.658.548.658.319,0,1-.239,1.325-1.306.02-.07.04-.109.13-.109.03,0,.12,0,.12.1,0,.249-.569,1.535-1.6,1.535a1.1,1.1,0,0,1-1.076-.757,1.325,1.325,0,0,1-1.046.757c-.439,0-.937-.2-.937-.658a.566.566,0,0,1,.548-.578.342.342,0,0,1,.369.349.565.565,0,0,1-.468.538.954.954,0,0,0,.5.13c.438,0,.787-.419.946-1.037a14.471,14.471,0,0,0,.538-2.371c0-.578-.348-.668-.538-.668-.339,0-1,.25-1.335,1.306-.02.089-.05.109-.13.109-.02,0-.119,0-.119-.1,0-.25.568-1.535,1.6-1.535a1.1,1.1,0,0,1,1.077.757,1.287,1.287,0,0,1,1.045-.757c.339,0,.927.139.927.658a.556.556,0,0,1-.538.578.347.347,0,0,1-.378-.349.579.579,0,0,1,.478-.538.976.976,0,0,0-.5-.13c-.7,0-.927.917-.987,1.176Z" transform="translate(-468.463 -337.745)"/>
    <path class="cls-1" d="M568.454,356.152v-9.964h1.365v.4h-.967v9.166h.967v.4Z" transform="translate(-468.463 -337.745)"/>
    <path class="cls-1" d="M571.49,350.771a3.2,3.2,0,0,0,.16-.836c0-.329-.11-.459-.309-.459-.359,0-.558.479-.727,1.186-.06.219-.07.229-.17.229-.02,0-.119,0-.119-.1a4.963,4.963,0,0,1,.3-.967.87.87,0,0,1,.747-.568.9.9,0,0,1,.917.867,1.924,1.924,0,0,1,1.554-.867,1.019,1.019,0,0,1,1.146,1.066,8.982,8.982,0,0,1-.608,2.192,1.9,1.9,0,0,0-.179.708c0,.229.07.329.239.329.488,0,.817-.558,1.016-1.236.05-.149.05-.179.149-.179.03,0,.12,0,.12.1,0,.08-.369,1.535-1.305,1.535a.8.8,0,0,1-.817-.817,1.136,1.136,0,0,1,.1-.459,9.5,9.5,0,0,0,.647-2.321c0-.329-.09-.7-.538-.7a1.981,1.981,0,0,0-1.624,1.216c-.01.04-.09.329-.13.5-.05.229-.109.449-.169.667l-.219.9c-.06.249-.18.718-.19.738a.407.407,0,0,1-.368.279.266.266,0,0,1-.289-.269c0-.05.06-.279.09-.429Z" transform="translate(-468.463 -337.745)"/>
    <g>
      <path class="cls-1" d="M577.62,356.152h-1.365v-.4h.966v-9.166h-.966v-.4h1.365Z" transform="translate(-468.463 -337.745)"/>
      <path class="cls-1" d="M582.452,350.4c-.15,0-.339,0-.339-.2s.189-.2.329-.2h5.969c.139,0,.328,0,.328.2s-.189.2-.339.2Zm-.01,1.933c-.14,0-.329,0-.329-.2s.189-.2.339-.2H588.4c.15,0,.339,0,.339.2s-.189.2-.328.2Z" transform="translate(-468.463 -337.745)"/>
    </g>
    <g>
      <path class="cls-1" d="M594.685,353.521a1.3,1.3,0,0,0,1.305-1.045c.02-.06.04-.1.129-.1.03,0,.13,0,.13.1a1.64,1.64,0,0,1-1.654,1.3,2.206,2.206,0,0,1-2.142-2.262,2.233,2.233,0,0,1,2.162-2.312c.767,0,1.524.389,1.524,1.066a.458.458,0,1,1-.916.01.449.449,0,0,1,.468-.458,1.631,1.631,0,0,0-1.066-.369c-.528,0-1.345.419-1.345,2.043C593.28,353.093,594.156,353.521,594.685,353.521Z" transform="translate(-468.463 -337.745)"/>
      <path class="cls-1" d="M599.038,353.771a2.225,2.225,0,0,1-2.2-2.242,2.21,2.21,0,1,1,4.414,0A2.22,2.22,0,0,1,599.038,353.771Zm1.166-.987a3.027,3.027,0,0,0,.219-1.335,2.736,2.736,0,0,0-.259-1.385,1.305,1.305,0,0,0-1.126-.647,1.336,1.336,0,0,0-1.136.667,2.858,2.858,0,0,0-.239,1.365,2.965,2.965,0,0,0,.249,1.4,1.3,1.3,0,0,0,1.136.667A1.284,1.284,0,0,0,600.2,352.784Z" transform="translate(-468.463 -337.745)"/>
    </g>
    <g>
      <path class="cls-1" d="M602.348,351.27a1.063,1.063,0,0,1-.429-.847c0-.558.379-1.226,1.594-1.226a1.536,1.536,0,0,1,.937.279,1.422,1.422,0,0,0,.17-.159c.129-.12.149-.12.2-.12.109,0,.109.07.109.24v1.006c0,.189,0,.239-.129.239a.107.107,0,0,1-.12-.09,1.1,1.1,0,0,0-1.166-1.2c-.857,0-1.116.408-1.116.757,0,.578.668.707,1.226.817a2.032,2.032,0,0,1,1.136.478,1.288,1.288,0,0,1,.418.947c0,.717-.458,1.385-1.6,1.385a1.489,1.489,0,0,1-1.1-.429,2.61,2.61,0,0,0-.2.229c-.19.19-.2.2-.249.2-.11,0-.11-.07-.11-.239v-1.316c0-.179,0-.249.13-.249.1,0,.109.04.139.17.189.846.548,1.415,1.385,1.415.778,0,1.126-.4,1.126-.907,0-.718-.817-.877-1.036-.917A2.6,2.6,0,0,1,602.348,351.27Z" transform="translate(-468.463 -337.745)"/>
      <path class="cls-1" d="M608.624,356.152a4.3,4.3,0,0,1-1.554-1.873,7.671,7.671,0,0,1-.03-6.148,4.341,4.341,0,0,1,1.584-1.943.09.09,0,0,1,.1.1c0,.03,0,.049-.13.169a6.521,6.521,0,0,0-1.6,4.713,6.6,6.6,0,0,0,1.565,4.663c.169.169.169.189.169.22A.089.089,0,0,1,608.624,356.152Z" transform="translate(-468.463 -337.745)"/>
    </g>
    <g>
      <path class="cls-1" d="M610.725,350.771a3.222,3.222,0,0,0,.159-.836c0-.329-.11-.459-.309-.459-.358,0-.558.479-.727,1.186-.06.219-.07.229-.169.229-.02,0-.12,0-.12-.1a4.963,4.963,0,0,1,.3-.967.871.871,0,0,1,.747-.568.9.9,0,0,1,.917.867,1.926,1.926,0,0,1,1.554-.867,1.019,1.019,0,0,1,1.146,1.066,8.937,8.937,0,0,1-.608,2.192,1.9,1.9,0,0,0-.179.708c0,.229.07.329.239.329.488,0,.817-.558,1.016-1.236.05-.149.05-.179.15-.179.03,0,.119,0,.119.1,0,.08-.368,1.535-1.3,1.535a.8.8,0,0,1-.817-.817,1.136,1.136,0,0,1,.1-.459,9.5,9.5,0,0,0,.647-2.321c0-.329-.089-.7-.538-.7a1.984,1.984,0,0,0-1.624,1.216c-.01.04-.089.329-.13.5-.049.229-.109.449-.168.667l-.22.9c-.06.249-.179.718-.189.738a.408.408,0,0,1-.369.279.267.267,0,0,1-.289-.269c0-.05.06-.279.09-.429Z" transform="translate(-468.463 -337.745)"/>
      <path class="cls-1" d="M616.882,353.771c-.907,0-1.2-1.106-1.2-2.043,0-2.282,1.535-5.091,2.919-5.091,1.017,0,1.2,1.384,1.2,2.042C619.8,350.911,618.287,353.771,616.882,353.771Zm-.219-3.408a7.581,7.581,0,0,0-.319,1.973c0,.927.209,1.216.538,1.216.428,0,.807-.489,1.156-1.166a8.956,8.956,0,0,0,.7-2.023Zm2.162-.319a8.262,8.262,0,0,0,.319-1.982c0-.568-.06-1.206-.548-1.206-.449,0-.818.558-1.087,1.046a9.047,9.047,0,0,0-.767,2.142Z" transform="translate(-468.463 -337.745)"/>
    </g>
    <path class="cls-1" d="M621.938,355.238c-1.618,0-1.618-1.862-1.618-2.364s0-2.406,1.618-2.406a1.451,1.451,0,0,1,1.207.6,3.109,3.109,0,0,1,.411,1.806C623.556,353.376,623.556,355.238,621.938,355.238Zm.893-.983a7.676,7.676,0,0,0,.09-1.471,5.7,5.7,0,0,0-.118-1.486.9.9,0,0,0-1.744.063,6.008,6.008,0,0,0-.1,1.423,7.273,7.273,0,0,0,.1,1.5.9.9,0,0,0,1.779-.028Z" transform="translate(-468.463 -337.745)"/>
    <path class="cls-1" d="M626.655,354.209a4.333,4.333,0,0,1-1.585,1.943.094.094,0,0,1-.1-.1c0-.031,0-.051.129-.17a6.533,6.533,0,0,0,1.605-4.713,6.462,6.462,0,0,0-1.545-4.653c-.189-.18-.189-.2-.189-.229a.094.094,0,0,1,.1-.1,4.3,4.3,0,0,1,1.555,1.874,7.679,7.679,0,0,1,.03,6.147Z" transform="translate(-468.463 -337.745)"/>
    <path class="cls-1" d="M544.332,357.132c0,.368.03.478.927.478h.319v.309c-.349-.03-1.216-.03-1.615-.03s-1.265,0-1.613.03v-.309h.318c.9,0,.927-.119.927-.478V351.97a2.984,2.984,0,0,1-1.305.259v-.309a2.464,2.464,0,0,0,1.813-.637c.229,0,.229.02.229.259Z" transform="translate(-468.463 -337.745)"/>
    <path class="cls-3" d="M469.512,414.921s5.273-4.153,7.086-7.087c4.055-6.56,4.641-13.923,7.087-21.26s3.032-14.7,7.086-21.259c1.814-2.934,3.746-7.087,7.087-7.087s5.273,4.153,7.087,7.087c4.054,6.56,4.641,13.923,7.086,21.259s3.032,14.7,7.087,21.26c1.813,2.934,3.746,7.087,7.086,7.087s5.274-4.153,7.087-7.087c4.055-6.56,4.641-13.923,7.087-21.26s3.031-14.7,7.086-21.259c1.813-2.934,3.746-7.087,7.087-7.087s5.273,4.153,7.086,7.087c4.055,6.56,4.641,13.923,7.087,21.259s3.032,14.7,7.086,21.26c1.814,2.934,3.746,7.087,7.087,7.087s5.273-4.153,7.087-7.087c4.054-6.56,4.641-13.923,7.086-21.26s3.032-14.7,7.087-21.259c1.813-2.934,3.746-7.087,7.086-7.087s5.339,4.116,7.087,7.087c4.5,7.647,4.207,16.381,7.086,24.8,2.13,6.23,3.47,12.23,7.087,17.716,1.9,2.882,7.087,7.087,7.087,7.087h0" transform="translate(-468.463 -337.745)"/>
    <path class="cls-4" d="M598.828,386.575h0a1.758,1.758,0,1,1-1.758-1.758,1.758,1.758,0,0,1,1.758,1.758Z" transform="translate(-468.463 -337.745)"/>
    <line class="cls-4" x1="139.237" y1="48.829" x2="139.237" y2="24.026"/>
    <path class="cls-4" d="M609.457,359.986h0a1.757,1.757,0,1,1-1.757-1.758,1.757,1.757,0,0,1,1.757,1.758Z" transform="translate(-468.463 -337.745)"/>
    <line class="cls-4" x1="135.694" y1="48.829" x2="135.694" y2="27.57"/>
    <path class="cls-4" d="M605.914,365.315h0a1.758,1.758,0,1,1-1.757-1.758,1.757,1.757,0,0,1,1.757,1.758Z" transform="translate(-468.463 -337.745)"/>
    <line class="cls-4" x1="132.15" y1="48.829" x2="132.15" y2="38.2"/>
    <path class="cls-4" d="M602.371,374.159h0a1.758,1.758,0,1,1-1.758-1.758,1.758,1.758,0,0,1,1.758,1.758Z" transform="translate(-468.463 -337.745)"/>
    <line class="cls-4" x1="125.064" y1="48.829" x2="125.064" y2="59.459"/>
    <path class="cls-4" d="M595.284,398.99h0a1.758,1.758,0,1,1-1.757-1.757,1.758,1.758,0,0,1,1.757,1.757Z" transform="translate(-468.463 -337.745)"/>
    <line class="cls-4" x1="121.521" y1="48.829" x2="121.521" y2="70.089"/>
    <path class="cls-4" d="M591.741,407.834h0a1.758,1.758,0,1,1-1.757-1.757,1.758,1.758,0,0,1,1.757,1.757Z" transform="translate(-468.463 -337.745)"/>
    <line class="cls-4" x1="117.977" y1="48.829" x2="117.977" y2="73.632"/>
    <path class="cls-4" d="M588.2,413.163h0a1.758,1.758,0,1,1-1.758-1.757,1.759,1.759,0,0,1,1.758,1.757Z" transform="translate(-468.463 -337.745)"/>
    <path class="cls-4" d="M570.481,386.575h0a1.758,1.758,0,1,1-1.757-1.758,1.757,1.757,0,0,1,1.757,1.758Z" transform="translate(-468.463 -337.745)"/>
    <line class="cls-2" x1="86.088" y1="48.829" x2="86.088" y2="20.483"/>
    <path class="cls-4" d="M556.308,358.228h0a1.758,1.758,0,1,1-1.757-1.757,1.758,1.758,0,0,1,1.757,1.757Z" transform="translate(-468.463 -337.745)"/>
    <line class="cls-2" x1="89.631" y1="48.829" x2="89.631" y2="24.026"/>
    <path class="cls-4" d="M559.851,361.772h0a1.757,1.757,0,1,1-1.757-1.758,1.757,1.757,0,0,1,1.757,1.758Z" transform="translate(-468.463 -337.745)"/>
    <line class="cls-2" x1="93.174" y1="48.829" x2="93.174" y2="27.57"/>
    <path class="cls-4" d="M563.4,365.315h0a1.758,1.758,0,1,1-1.758-1.758,1.758,1.758,0,0,1,1.758,1.758Z" transform="translate(-468.463 -337.745)"/>
    <line class="cls-2" x1="96.718" y1="48.829" x2="96.718" y2="38.2"/>
    <path class="cls-4" d="M566.938,374.159h0a1.758,1.758,0,1,1-1.757-1.758,1.757,1.757,0,0,1,1.757,1.758Z" transform="translate(-468.463 -337.745)"/>
    <line class="cls-4" x1="103.804" y1="48.829" x2="103.804" y2="59.459"/>
    <path class="cls-4" d="M574.025,398.99h0a1.758,1.758,0,1,1-1.758-1.757,1.759,1.759,0,0,1,1.758,1.757Z" transform="translate(-468.463 -337.745)"/>
    <line class="cls-4" x1="107.347" y1="48.829" x2="107.347" y2="70.089"/>
    <path class="cls-4" d="M577.568,407.834h0a1.758,1.758,0,1,1-1.758-1.757,1.759,1.759,0,0,1,1.758,1.757Z" transform="translate(-468.463 -337.745)"/>
    <line class="cls-4" x1="110.891" y1="48.829" x2="110.891" y2="73.632"/>
    <path class="cls-4" d="M581.111,413.163h0a1.758,1.758,0,1,1-1.757-1.757,1.758,1.758,0,0,1,1.757,1.757Z" transform="translate(-468.463 -337.745)"/>
    <line class="cls-4" x1="114.434" y1="48.829" x2="114.434" y2="77.176"/>
    <path class="cls-4" d="M584.654,416.678h0a1.757,1.757,0,1,1-1.757-1.757,1.758,1.758,0,0,1,1.757,1.757Z" transform="translate(-468.463 -337.745)"/>
    <line class="cls-2" x1="142.78" y1="48.829" x2="142.78" y2="20.483"/>
    <path class="cls-4" d="M613,358.228h0a1.758,1.758,0,1,1-1.758-1.757A1.759,1.759,0,0,1,613,358.228Z" transform="translate(-468.463 -337.745)"/>
    <line class="cls-4" x1="146.324" y1="48.829" x2="146.324" y2="24.026"/>
    <path class="cls-4" d="M616.544,359.986h0a1.758,1.758,0,1,1-1.757-1.758,1.757,1.757,0,0,1,1.757,1.758Z" transform="translate(-468.463 -337.745)"/>
    <line class="cls-4" x1="149.867" y1="48.829" x2="149.867" y2="27.57"/>
    <path class="cls-4" d="M620.087,365.315h0a1.758,1.758,0,1,1-1.757-1.758,1.757,1.757,0,0,1,1.757,1.758Z" transform="translate(-468.463 -337.745)"/>
    <line class="cls-4" x1="153.41" y1="48.829" x2="153.41" y2="38.2"/>
    <path class="cls-4" d="M623.631,374.159h0a1.758,1.758,0,1,1-1.758-1.758,1.758,1.758,0,0,1,1.758,1.758Z" transform="translate(-468.463 -337.745)"/>
    <path class="cls-4" d="M627.174,386.575h0a1.758,1.758,0,1,1-1.758-1.758,1.758,1.758,0,0,1,1.758,1.758Z" transform="translate(-468.463 -337.745)"/>
    <path class="cls-4" d="M542.135,386.575h0a1.758,1.758,0,1,1-1.757-1.758,1.757,1.757,0,0,1,1.757,1.758Z" transform="translate(-468.463 -337.745)"/>
    <path class="cls-4" d="M513.789,386.575h0a1.758,1.758,0,1,1-1.758-1.758,1.758,1.758,0,0,1,1.758,1.758Z" transform="translate(-468.463 -337.745)"/>
    <path class="cls-4" d="M485.442,386.575h0a1.758,1.758,0,1,1-1.757-1.758,1.757,1.757,0,0,1,1.757,1.758Z" transform="translate(-468.463 -337.745)"/>
    <line class="cls-4" x1="160.497" y1="48.829" x2="160.497" y2="59.459"/>
    <path class="cls-4" d="M630.717,398.99h0a1.758,1.758,0,1,1-1.757-1.757,1.758,1.758,0,0,1,1.757,1.757Z" transform="translate(-468.463 -337.745)"/>
    <line class="cls-4" x1="164.04" y1="48.829" x2="164.04" y2="70.089"/>
    <path class="cls-4" d="M634.26,407.834h0a1.757,1.757,0,1,1-1.757-1.757,1.758,1.758,0,0,1,1.757,1.757Z" transform="translate(-468.463 -337.745)"/>
    <line class="cls-4" x1="167.583" y1="48.829" x2="167.583" y2="73.632"/>
    <path class="cls-4" d="M637.8,413.163h0a1.758,1.758,0,1,1-1.758-1.757,1.759,1.759,0,0,1,1.758,1.757Z" transform="translate(-468.463 -337.745)"/>
    <line class="cls-2" x1="82.544" y1="48.829" x2="82.544" y2="24.026"/>
    <path class="cls-4" d="M552.765,361.772h0a1.758,1.758,0,1,1-1.758-1.758,1.758,1.758,0,0,1,1.758,1.758Z" transform="translate(-468.463 -337.745)"/>
    <line class="cls-2" x1="79.001" y1="48.829" x2="79.001" y2="27.57"/>
    <path class="cls-4" d="M549.222,365.315h0a1.758,1.758,0,1,1-1.758-1.758,1.758,1.758,0,0,1,1.758,1.758Z" transform="translate(-468.463 -337.745)"/>
    <line class="cls-2" x1="75.458" y1="48.829" x2="75.458" y2="38.2"/>
    <path class="cls-4" d="M545.678,374.159h0a1.758,1.758,0,1,1-1.757-1.758,1.757,1.757,0,0,1,1.757,1.758Z" transform="translate(-468.463 -337.745)"/>
    <line class="cls-4" x1="68.371" y1="48.829" x2="68.371" y2="59.459"/>
    <path class="cls-4" d="M538.592,398.99h0a1.758,1.758,0,1,1-1.758-1.757,1.759,1.759,0,0,1,1.758,1.757Z" transform="translate(-468.463 -337.745)"/>
    <line class="cls-4" x1="64.828" y1="48.829" x2="64.828" y2="70.089"/>
    <path class="cls-4" d="M535.048,407.834h0a1.757,1.757,0,1,1-1.757-1.757,1.758,1.758,0,0,1,1.757,1.757Z" transform="translate(-468.463 -337.745)"/>
    <line class="cls-4" x1="61.285" y1="48.829" x2="61.285" y2="73.632"/>
    <path class="cls-4" d="M531.505,413.163h0a1.758,1.758,0,1,1-1.757-1.757,1.758,1.758,0,0,1,1.757,1.757Z" transform="translate(-468.463 -337.745)"/>
    <line class="cls-4" x1="57.741" y1="48.829" x2="57.741" y2="77.176"/>
    <path class="cls-4" d="M527.962,416.678h0a1.758,1.758,0,1,1-1.758-1.757,1.759,1.759,0,0,1,1.758,1.757Z" transform="translate(-468.463 -337.745)"/>
    <line class="cls-4" x1="54.198" y1="48.829" x2="54.198" y2="73.632"/>
    <path class="cls-4" d="M524.419,413.163h0a1.758,1.758,0,1,1-1.758-1.757,1.759,1.759,0,0,1,1.758,1.757Z" transform="translate(-468.463 -337.745)"/>
    <line class="cls-4" x1="50.655" y1="48.829" x2="50.655" y2="70.089"/>
    <path class="cls-4" d="M520.875,407.834h0a1.758,1.758,0,1,1-1.757-1.757,1.758,1.758,0,0,1,1.757,1.757Z" transform="translate(-468.463 -337.745)"/>
    <line class="cls-4" x1="47.112" y1="48.829" x2="47.112" y2="59.459"/>
    <path class="cls-4" d="M517.332,398.99h0a1.758,1.758,0,1,1-1.757-1.757,1.758,1.758,0,0,1,1.757,1.757Z" transform="translate(-468.463 -337.745)"/>
    <line class="cls-2" x1="40.025" y1="48.829" x2="40.025" y2="38.2"/>
    <path class="cls-4" d="M510.245,374.159h0a1.758,1.758,0,1,1-1.757-1.758,1.757,1.757,0,0,1,1.757,1.758Z" transform="translate(-468.463 -337.745)"/>
    <line class="cls-2" x1="36.482" y1="48.829" x2="36.482" y2="27.57"/>
    <path class="cls-4" d="M506.7,365.315h0a1.758,1.758,0,1,1-1.757-1.758,1.757,1.757,0,0,1,1.757,1.758Z" transform="translate(-468.463 -337.745)"/>
    <line class="cls-2" x1="32.938" y1="48.829" x2="32.938" y2="24.026"/>
    <path class="cls-4" d="M503.159,361.772h0a1.758,1.758,0,1,1-1.758-1.758,1.758,1.758,0,0,1,1.758,1.758Z" transform="translate(-468.463 -337.745)"/>
    <line class="cls-2" x1="29.395" y1="48.829" x2="29.395" y2="20.483"/>
    <path class="cls-4" d="M499.616,358.228h0a1.758,1.758,0,1,1-1.758-1.757,1.759,1.759,0,0,1,1.758,1.757Z" transform="translate(-468.463 -337.745)"/>
    <line class="cls-2" x1="25.852" y1="48.829" x2="25.852" y2="24.026"/>
    <path class="cls-4" d="M496.072,361.772h0a1.758,1.758,0,1,1-1.757-1.758,1.757,1.757,0,0,1,1.757,1.758Z" transform="translate(-468.463 -337.745)"/>
    <line class="cls-2" x1="22.309" y1="48.829" x2="22.309" y2="27.57"/>
    <path class="cls-4" d="M492.529,365.315h0a1.758,1.758,0,1,1-1.758-1.758,1.758,1.758,0,0,1,1.758,1.758Z" transform="translate(-468.463 -337.745)"/>
    <line class="cls-2" x1="18.765" y1="48.829" x2="18.765" y2="38.2"/>
    <path class="cls-4" d="M488.986,374.159h0a1.758,1.758,0,1,1-1.758-1.758,1.758,1.758,0,0,1,1.758,1.758Z" transform="translate(-468.463 -337.745)"/>
    <line class="cls-4" x1="11.679" y1="48.829" x2="11.679" y2="59.459"/>
    <path class="cls-4" d="M481.9,398.99h0a1.758,1.758,0,1,1-1.757-1.757,1.758,1.758,0,0,1,1.757,1.757Z" transform="translate(-468.463 -337.745)"/>
    <line class="cls-4" x1="8.135" y1="48.829" x2="8.135" y2="70.089"/>
    <path class="cls-4" d="M478.356,407.834h0a1.758,1.758,0,1,1-1.758-1.757,1.759,1.759,0,0,1,1.758,1.757Z" transform="translate(-468.463 -337.745)"/>
    <line class="cls-4" x1="4.592" y1="48.829" x2="4.592" y2="73.632"/>
    <path class="cls-4" d="M474.813,413.163h0a1.758,1.758,0,1,1-1.758-1.757,1.759,1.759,0,0,1,1.758,1.757Z" transform="translate(-468.463 -337.745)"/>
    <path class="cls-2" d="M678.566,386.575h0a2.495,2.495,0,1,0-2.5,2.494,2.5,2.5,0,0,0,2.5-2.494Zm1.049,0h21.259m6.038,0h0a2.495,2.495,0,1,0-2.494,2.494,2.5,2.5,0,0,0,2.494-2.494Z" transform="translate(-468.463 -337.745)"/>
    <g>
      <path class="cls-1" d="M684.973,378.6h-.468c-.15-1.166-.379-1.933-1.984-1.933h-1.395v2.68h.5c.966,0,1.045-.429,1.045-1.166h.47v2.8h-.47c0-.737-.089-1.166-1.045-1.166h-.5v2.69h1.345v.469c-.438-.03-1.524-.03-2.013-.03-.438,0-1.444,0-1.823.03v-.469h1.076v-5.838h-1.076V376.2h6.029Z" transform="translate(-468.463 -337.745)"/>
      <path class="cls-1" d="M692.993,378.649h-.469c-.1-1.136-.2-1.933-1.624-1.933h-.756v5.789h1.524v.469c-.538-.03-1.645-.03-2.232-.03s-1.694,0-2.232.03v-.469h1.525v-5.789h-.768c-1.435,0-1.534.807-1.624,1.933h-.468l.209-2.4h6.706Z" transform="translate(-468.463 -337.745)"/>
    </g>
    <path class="cls-1" d="M693.753,376.606v-.468h4.284a3.282,3.282,0,0,1,3.468,3.478,3.216,3.216,0,0,1-3.458,3.358h-4.294v-.469h1.076v-5.9Zm3.886,5.9a2.372,2.372,0,0,0,1.963-.837,3.29,3.29,0,0,0,.438-2.062,3.668,3.668,0,0,0-.429-2.112,2.336,2.336,0,0,0-1.972-.888h-1.455v5.9Z" transform="translate(-468.463 -337.745)"/>
    <polyline points="411.078 65.27 415.613 63.003 411.078 60.735 412.212 63.003"/>
    <line class="cls-2" x1="256.166" y1="63.003" x2="412.212" y2="63.003"/>
    <polyline points="336.386 7.302 334.118 2.767 331.85 7.302 334.118 6.168"/>
    <line class="cls-2" x1="334.118" y1="73.632" x2="334.118" y2="6.168"/>
    <path class="cls-1" d="M819.662,342.191a.6.6,0,0,0,.19-.358c0-.279-.309-.3-.4-.309-.069-.01-.119-.04-.119-.109,0-.2.129-.2.189-.2.359,0,.738.03,1.106.03.309,0,.638-.03.936-.03.13,0,.13.1.13.11,0,.189-.09.189-.219.2a2.034,2.034,0,0,0-1.265.508c-.319.279-1.365,1.465-2.043,2.162.229.6.9,2.153,1.285,3.079.17.4.19.429.858.438.079,0,.178,0,.178.12,0,.19-.119.19-.189.19-.249,0-.857-.03-1.106-.03-.279,0-.976.03-1.256.03-.04,0-.149,0-.149-.12,0-.17.09-.179.2-.19.389-.039.578-.209.578-.288a.691.691,0,0,0-.049-.14l-1.006-2.381-.9.976-1.015,1.077c-.12.129-.27.288-.27.448,0,.279.309.3.4.308a.114.114,0,0,1,.12.11c0,.2-.12.2-.18.2-.358,0-.747-.03-1.116-.03-.309,0-.638.03-.937.03-.13,0-.13-.1-.13-.11,0-.189.09-.189.22-.2a2.011,2.011,0,0,0,1.465-.717l.129-.109,2.1-2.262-1.175-2.78c-.089-.219-.15-.319-.747-.319-.13,0-.23,0-.23-.109,0-.2.12-.2.18-.2.249,0,.867.03,1.116.03.418,0,.847-.03,1.255-.03.03,0,.149,0,.149.119,0,.17-.1.18-.2.19-.418.04-.588.229-.588.289,0,.01.021.05.05.129l.838,1.983Z" transform="translate(-468.463 -337.745)"/>
    <g>
      <path class="cls-1" d="M825.531,350.512a4.3,4.3,0,0,1-1.553-1.874,7.663,7.663,0,0,1-.031-6.147,4.347,4.347,0,0,1,1.584-1.944.09.09,0,0,1,.1.1c0,.03,0,.05-.129.169a6.518,6.518,0,0,0-1.6,4.713,6.6,6.6,0,0,0,1.565,4.664c.169.169.169.189.169.219A.09.09,0,0,1,825.531,350.512Z" transform="translate(-468.463 -337.745)"/>
      <path class="cls-1" d="M827.573,347.213a1.34,1.34,0,0,0,1.126.668,1.4,1.4,0,0,0,1.345-1.027c.019-.079.04-.139.13-.139a.115.115,0,0,1,.129.12,1.7,1.7,0,0,1-1.664,1.3,2.249,2.249,0,0,1-2.192-2.3,2.177,2.177,0,0,1,2.073-2.272,1.767,1.767,0,0,1,1.783,1.953c0,.209-.03.209-.249.209h-2.78A2.9,2.9,0,0,0,827.573,347.213Zm2.073-1.7c0-.389-.1-1.734-1.126-1.734-.339,0-1.176.249-1.236,1.734Z" transform="translate(-468.463 -337.745)"/>
    </g>
    <path class="cls-1" d="M832.59,344.909a1.435,1.435,0,0,1-1.365,1.545c-.569,0-1.126-.279-1.126-.8a.459.459,0,1,1,.917,0,.461.461,0,0,1-.35.448,1.217,1.217,0,0,0,.538.129c.638,0,.728-.857.728-1.305v-3.946c0-.488-.09-.557-.857-.557v-.309l1.515-.11Zm-.528-6.108a.528.528,0,1,1,.528-.528A.531.531,0,0,1,832.062,338.8Z" transform="translate(-468.463 -337.745)"/>
    <path class="cls-1" d="M834.891,344.481c-.642,0-.962-.684-.962-1.513,0-1.6,1.115-3.466,2.161-3.466.683,0,.963.781.963,1.513C837.053,342.577,835.951,344.481,834.891,344.481Zm-.238-2.364a5.394,5.394,0,0,0-.2,1.262c0,.377.064.907.446.907.308,0,.586-.328.8-.691a5.03,5.03,0,0,0,.565-1.478Zm1.674-.251a5.509,5.509,0,0,0,.2-1.262c0-.133,0-.907-.446-.907-.411,0-1.011.663-1.366,2.169Z" transform="translate(-468.463 -337.745)"/>
    <path class="cls-1" d="M840.3,348.568a4.347,4.347,0,0,1-1.584,1.944.094.094,0,0,1-.1-.1c0-.03,0-.05.129-.169a6.539,6.539,0,0,0,1.605-4.714,6.468,6.468,0,0,0-1.545-4.653c-.189-.179-.189-.2-.189-.229a.094.094,0,0,1,.1-.1,4.3,4.3,0,0,1,1.553,1.874,7.663,7.663,0,0,1,.031,6.147Z" transform="translate(-468.463 -337.745)"/>
    <path class="cls-1" d="M892.775,404.341c-.907,0-1.195-1.106-1.195-2.042,0-2.282,1.534-5.092,2.919-5.092,1.017,0,1.195,1.385,1.195,2.042C895.694,401.481,894.181,404.341,892.775,404.341Zm-.219-3.407a7.619,7.619,0,0,0-.319,1.972c0,.927.209,1.216.538,1.216.429,0,.807-.488,1.156-1.166a8.911,8.911,0,0,0,.7-2.022Zm2.163-.32a8.3,8.3,0,0,0,.318-1.982c0-.569-.059-1.206-.548-1.206-.448,0-.817.558-1.086,1.047a9.041,9.041,0,0,0-.767,2.141Z" transform="translate(-468.463 -337.745)"/>
    <line class="cls-5" x1="256.166" y1="63.003" x2="412.07" y2="63.003"/>
    <polyline points="359.063 27.853 355.378 20.483 351.693 27.853 355.378 26.011"/>
    <line class="cls-5" x1="355.378" y1="63.003" x2="355.378" y2="26.011"/>
    <polyline points="316.543 27.853 312.858 20.483 309.173 27.853 312.858 26.011"/>
    <line class="cls-5" x1="312.858" y1="63.003" x2="312.858" y2="26.011"/>
    <path class="cls-1" d="M795.118,351.787c-.129.5-.129.518-.268.977-.12.368-.2.647-.5.647a.27.27,0,0,1-.289-.268c0-.07,0-.09.08-.24a21.037,21.037,0,0,0,1.275-3.318h-.568a1.4,1.4,0,0,0-1.266.768c-.06.079-.079.119-.159.119-.12,0-.12-.09-.12-.1a3.54,3.54,0,0,1,.608-.9,1.266,1.266,0,0,1,1.036-.469h3.338c.19,0,.4,0,.4.24,0,.338-.359.338-.489.338h-1.135a7.708,7.708,0,0,0-.18,1.584,4.283,4.283,0,0,0,.289,1.644.435.435,0,0,1,.06.22.42.42,0,0,1-.409.378c-.149,0-.259-.059-.358-.5a3.131,3.131,0,0,1-.08-.757,10.952,10.952,0,0,1,.419-2.571h-1.126Z" transform="translate(-468.463 -337.745)"/>
    <path class="cls-1" d="M820.9,414.239c-.907,0-1.195-1.1-1.195-2.042,0-2.282,1.534-5.092,2.919-5.092,1.017,0,1.195,1.385,1.195,2.042C823.819,411.38,822.306,414.239,820.9,414.239Zm-.219-3.407a7.631,7.631,0,0,0-.319,1.973c0,.926.209,1.216.538,1.216.429,0,.807-.489,1.156-1.167a8.9,8.9,0,0,0,.7-2.022Zm2.163-.319a8.306,8.306,0,0,0,.318-1.983c0-.568-.059-1.206-.548-1.206-.448,0-.817.559-1.086,1.047a9.032,9.032,0,0,0-.767,2.142Z" transform="translate(-468.463 -337.745)"/>
    <path class="cls-1" d="M825.938,415.715c-1.618,0-1.618-1.862-1.618-2.364s0-2.406,1.618-2.406a1.45,1.45,0,0,1,1.207.6,3.1,3.1,0,0,1,.412,1.806C827.557,413.853,827.557,415.715,825.938,415.715Zm.893-.984a7.583,7.583,0,0,0,.091-1.471,5.653,5.653,0,0,0-.119-1.486.9.9,0,0,0-1.743.064,5.944,5.944,0,0,0-.1,1.422,7.205,7.205,0,0,0,.1,1.5.9.9,0,0,0,1.778-.029Z" transform="translate(-468.463 -337.745)"/>
    <path class="cls-1" d="M773.978,411.838c-.169,0-.349,0-.349-.2s.18-.2.349-.2h5.39c.169,0,.349,0,.349.2s-.18.2-.349.2Z" transform="translate(-468.463 -337.745)"/>
    <path class="cls-1" d="M782.213,414.239c-.907,0-1.195-1.1-1.195-2.042,0-2.282,1.534-5.092,2.919-5.092,1.016,0,1.195,1.385,1.195,2.042C785.132,411.38,783.618,414.239,782.213,414.239Zm-.22-3.407a7.617,7.617,0,0,0-.318,1.973c0,.926.209,1.216.538,1.216.429,0,.807-.489,1.155-1.167a8.9,8.9,0,0,0,.7-2.022Zm2.163-.319a8.268,8.268,0,0,0,.319-1.983c0-.568-.06-1.206-.548-1.206-.448,0-.818.559-1.086,1.047a8.993,8.993,0,0,0-.768,2.142Z" transform="translate(-468.463 -337.745)"/>
    <path class="cls-1" d="M787.267,415.715c-1.619,0-1.619-1.862-1.619-2.364s0-2.406,1.619-2.406a1.449,1.449,0,0,1,1.206.6,3.1,3.1,0,0,1,.412,1.806C788.885,413.853,788.885,415.715,787.267,415.715Zm.892-.984a7.583,7.583,0,0,0,.091-1.471,5.653,5.653,0,0,0-.119-1.486.9.9,0,0,0-1.743.064,5.944,5.944,0,0,0-.105,1.422,7.205,7.205,0,0,0,.1,1.5.9.9,0,0,0,1.778-.029Z" transform="translate(-468.463 -337.745)"/>
    <line class="cls-4" x1="376.637" y1="66.546" x2="376.637" y2="59.459"/>
    <polyline points="401.582 27.853 397.897 20.483 394.212 27.853 397.897 26.011"/>
    <line class="cls-6" x1="397.897" y1="63.003" x2="397.897" y2="26.011"/>
    <line class="cls-4" x1="330.575" y1="20.483" x2="337.661" y2="20.483"/>
    <path class="cls-1" d="M844.181,412.021c-.129.5-.129.519-.269.977-.119.369-.2.648-.5.648a.271.271,0,0,1-.289-.269c0-.07,0-.09.08-.239a21.127,21.127,0,0,0,1.275-3.319h-.568a1.405,1.405,0,0,0-1.266.768c-.059.08-.079.119-.159.119-.12,0-.12-.09-.12-.1a3.6,3.6,0,0,1,.609-.9,1.265,1.265,0,0,1,1.036-.469h3.338c.189,0,.4,0,.4.239,0,.339-.358.339-.488.339h-1.136a7.779,7.779,0,0,0-.18,1.585,4.285,4.285,0,0,0,.289,1.644.427.427,0,0,1,.061.22.42.42,0,0,1-.409.378c-.15,0-.259-.06-.359-.5a3.12,3.12,0,0,1-.08-.756,10.958,10.958,0,0,1,.419-2.572h-1.126Z" transform="translate(-468.463 -337.745)"/>
    <line class="cls-4" x1="291.598" y1="66.546" x2="291.598" y2="59.459"/>
    <path class="cls-1" d="M754.4,411.6c-.169,0-.348,0-.348-.2s.179-.2.348-.2h5.391c.169,0,.349,0,.349.2s-.18.2-.349.2Z" transform="translate(-468.463 -337.745)"/>
    <path class="cls-1" d="M763.1,412.381c-.129.5-.129.518-.269.976-.119.37-.2.648-.5.648a.27.27,0,0,1-.289-.269c0-.07,0-.09.08-.239a21.075,21.075,0,0,0,1.275-3.318h-.568a1.406,1.406,0,0,0-1.266.767c-.059.08-.079.119-.159.119-.12,0-.12-.089-.12-.1a3.589,3.589,0,0,1,.608-.9,1.269,1.269,0,0,1,1.037-.468h3.337c.19,0,.4,0,.4.239,0,.339-.358.339-.488.339h-1.136a7.764,7.764,0,0,0-.18,1.585,4.284,4.284,0,0,0,.289,1.643.427.427,0,0,1,.061.22.42.42,0,0,1-.409.378c-.15,0-.259-.06-.359-.5a3.131,3.131,0,0,1-.08-.757,10.944,10.944,0,0,1,.419-2.571h-1.126Z" transform="translate(-468.463 -337.745)"/>
    <polyline points="274.024 27.853 270.339 20.483 266.654 27.853 270.339 26.011"/>
    <line class="cls-6" x1="270.339" y1="63.003" x2="270.339" y2="26.011"/>
    <line class="cls-4" x1="291.598" y1="84.262" x2="291.598" y2="91.349"/>
    <line class="cls-4" x1="376.637" y1="84.262" x2="376.637" y2="91.349"/>
    <g>
      <path class="cls-1" d="M803.622,424.5h-.249c-.159-1.375-.409-1.934-1.9-1.934h-1.2c-.468,0-.488.071-.488.4v2.521h.857c.957,0,1.056-.329,1.056-1.166h.249v2.641H801.7c0-.848-.1-1.166-1.056-1.166h-.857v2.451c0,.349,0,.479.946.479h.33v.308c-.36-.03-1.266-.03-1.674-.03-.389,0-1.166,0-1.515.03v-.308h.239c.767,0,.787-.111.787-.469v-5.221c0-.359-.02-.469-.787-.469h-.239v-.308h5.47Z" transform="translate(-468.463 -337.745)"/>
      <path class="cls-1" d="M806.262,428.259c0,.358.029.469.816.469h.26v.308c-.349-.03-1.137-.03-1.525-.03s-1.166,0-1.514.03v-.308h.259c.787,0,.817-.111.817-.469v-5.251c0-.359-.03-.468-.817-.468H804.3v-.31c.348.031,1.136.031,1.524.031s1.166,0,1.515-.031v.31h-.26c-.787,0-.816.109-.816.468Z" transform="translate(-468.463 -337.745)"/>
    </g>
    <polyline points="372.102 90.073 376.637 87.806 372.102 85.538 373.236 87.806"/>
    <line class="cls-4" x1="341.204" y1="87.806" x2="373.236" y2="87.806"/>
    <polyline points="296.134 85.538 291.598 87.806 296.134 90.073 295 87.806"/>
    <line class="cls-4" x1="327.031" y1="87.806" x2="295" y2="87.806"/>
  </g>
</svg>
