<svg id="Layer_1" data-name="Layer 1" xmlns="http://www.w3.org/2000/svg" viewBox="0 0 376.439 100.062">
  <defs>
    <style>
      .cls-1, .cls-2, .cls-4, .cls-6 {
        fill: none;
      }

      .cls-1 {
        stroke: #fcfcfc;
      }

      .cls-1, .cls-2, .cls-3, .cls-4, .cls-6 {
        stroke-miterlimit: 10;
      }

      .cls-1, .cls-3, .cls-4 {
        stroke-width: 0.85px;
      }

      .cls-2, .cls-3, .cls-4, .cls-6 {
        stroke: #000;
      }

      .cls-2, .cls-6 {
        stroke-width: 2.268px;
      }

      .cls-5 {
        fill: #1d1d1b;
      }

      .cls-6 {
        stroke-linecap: round;
        stroke-dasharray: 0 7.724;
      }
    </style>
  </defs>
  <title>FTDDelta</title>
  <g>
    <polygon class="cls-1" points="0.425 50.031 0.425 99.637 376.014 99.637 376.014 0.425 0.425 0.425 0.425 50.031"/>
    <line class="cls-2" x1="71.291" y1="78.378" x2="71.291" y2="35.858"/>
    <path class="cls-3" d="M567.506,369.791a2.155,2.155,0,1,0-2.154,2.154,2.156,2.156,0,0,0,2.154-2.154Z" transform="translate(-494 -334)"/>
    <polyline points="134.078 80.645 138.613 78.378 134.078 76.11 135.212 78.378"/>
    <line class="cls-4" x1="7.512" y1="78.378" x2="135.212" y2="78.378"/>
    <polyline points="73.559 12.047 71.291 7.512 69.023 12.047 71.291 10.913"/>
    <line class="cls-4" x1="71.291" y1="81.921" x2="71.291" y2="10.913"/>
    <path class="cls-3" d="M581.666,412.391a2.155,2.155,0,1,0-2.154,2.154,2.156,2.156,0,0,0,2.154-2.154Z" transform="translate(-494 -334)"/>
    <path class="cls-3" d="M595.826,412.391a2.155,2.155,0,1,0-2.154,2.154,2.156,2.156,0,0,0,2.154-2.154Z" transform="translate(-494 -334)"/>
    <path class="cls-3" d="M609.986,412.391a2.155,2.155,0,1,0-2.154,2.154,2.156,2.156,0,0,0,2.154-2.154Z" transform="translate(-494 -334)"/>
    <path class="cls-3" d="M624.146,412.391a2.155,2.155,0,1,0-2.154,2.154,2.156,2.156,0,0,0,2.154-2.154Z" transform="translate(-494 -334)"/>
    <path class="cls-3" d="M510.746,412.391a2.155,2.155,0,1,0-2.154,2.154,2.156,2.156,0,0,0,2.154-2.154Z" transform="translate(-494 -334)"/>
    <path class="cls-3" d="M524.906,412.391a2.155,2.155,0,1,0-2.154,2.154,2.156,2.156,0,0,0,2.154-2.154Z" transform="translate(-494 -334)"/>
    <path class="cls-3" d="M539.066,412.391a2.155,2.155,0,1,0-2.154,2.154,2.156,2.156,0,0,0,2.154-2.154Z" transform="translate(-494 -334)"/>
    <path class="cls-3" d="M553.226,412.391a2.155,2.155,0,1,0-2.154,2.154,2.156,2.156,0,0,0,2.154-2.154Z" transform="translate(-494 -334)"/>
    <path class="cls-5" d="M558.683,372.239c0,.369.03.478.926.478h.319v.309c-.348-.029-1.215-.029-1.614-.029s-1.265,0-1.614.029v-.309h.319c.9,0,.926-.119.926-.478v-5.161a2.984,2.984,0,0,1-1.305.259v-.309a2.462,2.462,0,0,0,1.814-.638c.229,0,.229.02.229.259Z" transform="translate(-494 -334)"/>
    <path class="cls-5" d="M578.9,349.421a3.877,3.877,0,0,0-.17.877c0,.339.16.658.548.658.319,0,1-.239,1.326-1.306.02-.069.04-.109.129-.109.03,0,.12,0,.12.1,0,.249-.568,1.534-1.6,1.534a1.1,1.1,0,0,1-1.075-.757,1.327,1.327,0,0,1-1.047.757c-.438,0-.936-.2-.936-.657a.567.567,0,0,1,.548-.579.341.341,0,0,1,.368.349.565.565,0,0,1-.468.538.954.954,0,0,0,.5.13c.438,0,.787-.419.947-1.037a14.59,14.59,0,0,0,.538-2.371c0-.578-.349-.668-.538-.668-.339,0-1,.25-1.335,1.306-.02.089-.05.109-.13.109-.02,0-.12,0-.12-.1,0-.249.569-1.535,1.605-1.535a1.1,1.1,0,0,1,1.076.757,1.289,1.289,0,0,1,1.046-.757c.339,0,.927.14.927.658a.556.556,0,0,1-.538.578.348.348,0,0,1-.379-.349.579.579,0,0,1,.478-.538.974.974,0,0,0-.5-.13c-.7,0-.927.917-.986,1.176Z" transform="translate(-494 -334)"/>
    <path class="cls-5" d="M582.726,353.557v-9.965h1.365v.4h-.966v9.167h.966v.4Z" transform="translate(-494 -334)"/>
    <path class="cls-5" d="M585.771,348.176a3.227,3.227,0,0,0,.159-.837c0-.329-.11-.459-.309-.459-.358,0-.558.479-.727,1.186-.06.22-.07.229-.169.229-.02,0-.12,0-.12-.1a4.983,4.983,0,0,1,.3-.967.87.87,0,0,1,.747-.568.9.9,0,0,1,.917.867,1.926,1.926,0,0,1,1.554-.867,1.019,1.019,0,0,1,1.146,1.067,8.93,8.93,0,0,1-.608,2.191,1.9,1.9,0,0,0-.179.708c0,.229.07.329.239.329.488,0,.817-.558,1.016-1.236.05-.149.05-.179.15-.179.03,0,.119,0,.119.1,0,.079-.368,1.534-1.3,1.534a.8.8,0,0,1-.817-.817,1.139,1.139,0,0,1,.1-.459,9.5,9.5,0,0,0,.647-2.321c0-.329-.089-.7-.538-.7a1.984,1.984,0,0,0-1.624,1.216c-.01.04-.09.329-.13.5-.049.23-.109.449-.169.668l-.219.9c-.06.249-.179.717-.189.737a.408.408,0,0,1-.369.279.267.267,0,0,1-.289-.269c0-.05.06-.279.09-.428Z" transform="translate(-494 -334)"/>
    <path class="cls-5" d="M591.9,353.557h-1.365v-.4h.966v-9.167h-.966v-.4H591.9Z" transform="translate(-494 -334)"/>
    <path class="cls-5" d="M637.606,411.535a3.194,3.194,0,0,0,.16-.837c0-.329-.11-.458-.309-.458-.358,0-.558.478-.727,1.186-.06.219-.07.229-.169.229-.02,0-.12,0-.12-.1a4.983,4.983,0,0,1,.3-.967.868.868,0,0,1,.747-.568.9.9,0,0,1,.917.867,1.923,1.923,0,0,1,1.554-.867,1.018,1.018,0,0,1,1.146,1.066,8.937,8.937,0,0,1-.608,2.192,1.892,1.892,0,0,0-.179.707c0,.23.07.329.239.329.488,0,.817-.558,1.016-1.235.05-.149.05-.18.15-.18.029,0,.119,0,.119.1,0,.08-.368,1.534-1.305,1.534a.8.8,0,0,1-.817-.816,1.13,1.13,0,0,1,.1-.459,9.5,9.5,0,0,0,.647-2.321c0-.33-.09-.7-.538-.7a1.982,1.982,0,0,0-1.624,1.215c-.01.04-.09.329-.13.5-.049.229-.109.448-.169.667l-.219.9c-.06.249-.18.716-.189.737a.407.407,0,0,1-.369.278.267.267,0,0,1-.289-.268c0-.05.06-.28.09-.429Z" transform="translate(-494 -334)"/>
    <g>
      <path class="cls-5" d="M567.046,425.254a1.863,1.863,0,0,1-3.378.149,5.052,5.052,0,0,1-.448-2.4,5.328,5.328,0,0,1,.369-2.262,1.826,1.826,0,0,1,1.734-1.185,1.848,1.848,0,0,1,1.694,1.115,7.043,7.043,0,0,1,.029,4.584Zm-.567-.309a12.4,12.4,0,0,0,.109-2.062,12.219,12.219,0,0,0-.1-1.944c-.189-.986-.846-1.166-1.175-1.166-.25,0-1,.09-1.186,1.276a13.323,13.323,0,0,0-.08,1.834,13.509,13.509,0,0,0,.11,2.1c.179.957.767,1.206,1.156,1.206C565.761,426.19,566.329,425.892,566.479,424.945Z" transform="translate(-494 -334)"/>
      <path class="cls-5" d="M579.918,425.4c0,.368.03.479.927.479h.319v.308c-.349-.03-1.216-.03-1.615-.03s-1.265,0-1.613.03v-.308h.318c.9,0,.927-.12.927-.479v-5.161a2.986,2.986,0,0,1-1.306.259v-.309a2.465,2.465,0,0,0,1.814-.637c.229,0,.229.019.229.258Z" transform="translate(-494 -334)"/>
    </g>
    <g>
      <path class="cls-5" d="M547.105,424.327v-.578h2.641v.578Z" transform="translate(-494 -334)"/>
      <path class="cls-5" d="M553.282,425.4c0,.368.031.479.927.479h.319v.308c-.349-.03-1.215-.03-1.614-.03s-1.266,0-1.614.03v-.308h.319c.9,0,.926-.12.926-.479v-5.161a2.984,2.984,0,0,1-1.3.259v-.309a2.462,2.462,0,0,0,1.813-.637c.229,0,.229.019.229.258Z" transform="translate(-494 -334)"/>
    </g>
    <g>
      <path class="cls-5" d="M532.941,424.327v-.578h2.641v.578Z" transform="translate(-494 -334)"/>
      <path class="cls-5" d="M539.248,425.423a.8.8,0,0,0,1.166-.966h.249l-.279,1.733h-3.7c0-.239,0-.258.11-.369l1.913-2.132a3.57,3.57,0,0,0,1.046-2.2c0-.817-.428-1.624-1.335-1.624a1.437,1.437,0,0,0-1.345,1.017.37.37,0,0,1,.129-.01.5.5,0,0,1,.528.518.524.524,0,1,1-1.046-.031,1.84,1.84,0,0,1,1.863-1.8,1.957,1.957,0,0,1,2.113,1.932c0,1-.6,1.534-2.152,2.909l-1.056,1.027Z" transform="translate(-494 -334)"/>
    </g>
    <g>
      <path class="cls-5" d="M518.777,424.327v-.578h2.64v.578Z" transform="translate(-494 -334)"/>
      <path class="cls-5" d="M526.579,424.486a2.032,2.032,0,0,1-2.123,1.923,1.817,1.817,0,0,1-2.013-1.563.559.559,0,1,1,1.117-.021.546.546,0,0,1-.658.548,1.813,1.813,0,0,0,1.524.758c.439,0,1.126-.289,1.126-1.645,0-.976-.368-1.653-1.186-1.653h-.438c-.169,0-.239,0-.239-.11s.07-.11.149-.119.309-.021.389-.031a.967.967,0,0,0,.887-.517,2.492,2.492,0,0,0,.279-1.136c0-.9-.548-1.116-.957-1.116a1.615,1.615,0,0,0-1.325.617c.149,0,.618,0,.618.5a.509.509,0,1,1-1.017-.011c0-.757.758-1.354,1.764-1.354.957,0,1.834.557,1.834,1.375a1.8,1.8,0,0,0,.269,3.556Z" transform="translate(-494 -334)"/>
    </g>
    <g>
      <path class="cls-5" d="M504.613,424.327v-.578h2.64v.578Z" transform="translate(-494 -334)"/>
      <path class="cls-5" d="M508.14,424.546v-.309l3.059-4.673c.079-.12.11-.12.2-.12.16,0,.16.061.16.26v4.533h1v.309h-1v.867c0,.358.02.469.757.469h.209v.308c-.409-.03-.937-.03-1.355-.03s-.937,0-1.345.03v-.308h.209c.738,0,.757-.111.757-.469v-.867Zm2.71-4.025-2.431,3.716h2.431Z" transform="translate(-494 -334)"/>
    </g>
    <g>
      <path class="cls-5" d="M594.2,425.423a.8.8,0,0,0,1.166-.966h.249l-.279,1.733h-3.7c0-.239,0-.258.11-.369l1.913-2.132a3.57,3.57,0,0,0,1.046-2.2c0-.817-.428-1.624-1.335-1.624a1.437,1.437,0,0,0-1.345,1.017.377.377,0,0,1,.129-.01.5.5,0,0,1,.528.518.524.524,0,1,1-1.046-.031,1.84,1.84,0,0,1,1.863-1.8,1.957,1.957,0,0,1,2.113,1.932c0,1-.6,1.534-2.152,2.909l-1.056,1.027Z" transform="translate(-494 -334)"/>
      <path class="cls-5" d="M609.855,424.486a2.032,2.032,0,0,1-2.123,1.923,1.816,1.816,0,0,1-2.012-1.563.558.558,0,1,1,1.116-.021.546.546,0,0,1-.658.548,1.814,1.814,0,0,0,1.525.758c.438,0,1.126-.289,1.126-1.645,0-.976-.369-1.653-1.186-1.653h-.438c-.17,0-.24,0-.24-.11s.07-.11.15-.119.309-.021.388-.031a.967.967,0,0,0,.887-.517,2.492,2.492,0,0,0,.279-1.136c0-.9-.548-1.116-.957-1.116a1.615,1.615,0,0,0-1.325.617c.15,0,.618,0,.618.5a.508.508,0,1,1-1.016-.011c0-.757.757-1.354,1.763-1.354.957,0,1.834.557,1.834,1.375a1.8,1.8,0,0,0,.269,3.556Z" transform="translate(-494 -334)"/>
      <path class="cls-5" d="M619.737,424.546v-.309l3.059-4.673c.079-.12.11-.12.2-.12.16,0,.16.061.16.26v4.533h1v.309h-1v.867c0,.358.02.469.757.469h.209v.308c-.409-.03-.936-.03-1.355-.03s-.936,0-1.345.03v-.308h.209c.738,0,.757-.111.757-.469v-.867Zm2.71-4.025-2.431,3.716h2.431Z" transform="translate(-494 -334)"/>
    </g>
    <polyline points="328.959 80.645 333.494 78.378 328.959 76.11 330.093 78.378"/>
    <path class="cls-4" d="M678.676,412.378H824.093m-124.157,3.543v-7.087" transform="translate(-494 -334)"/>
    <polyline points="264.896 19.134 262.628 14.598 260.361 19.134 262.628 18"/>
    <path class="cls-4" d="M756.628,415.921V352m49.607,63.921v-7.087" transform="translate(-494 -334)"/>
    <line class="cls-2" x1="205.936" y1="35.858" x2="312.235" y2="35.858"/>
    <path class="cls-6" d="M809.778,369.858h17.716m-127.558,0H682.219" transform="translate(-494 -334)"/>
    <path class="cls-5" d="M758.328,425.254a1.863,1.863,0,0,1-3.378.149,5.052,5.052,0,0,1-.448-2.4,5.343,5.343,0,0,1,.368-2.262,1.827,1.827,0,0,1,1.734-1.185,1.848,1.848,0,0,1,1.694,1.115,7.052,7.052,0,0,1,.03,4.584Zm-.568-.309a19.262,19.262,0,0,0,.011-4.006c-.19-.986-.848-1.166-1.176-1.166-.249,0-1,.09-1.187,1.276a13.491,13.491,0,0,0-.079,1.834,13.632,13.632,0,0,0,.109,2.1c.18.957.768,1.206,1.157,1.206C757.043,426.19,757.61,425.892,757.76,424.945Z" transform="translate(-494 -334)"/>
    <path class="cls-5" d="M805.273,423.59c-.128.5-.128.518-.268.976-.119.37-.2.648-.5.648a.27.27,0,0,1-.289-.269c0-.07,0-.09.08-.239a21.075,21.075,0,0,0,1.275-3.318h-.568a1.406,1.406,0,0,0-1.266.767c-.059.08-.079.119-.159.119-.12,0-.12-.089-.12-.1a3.589,3.589,0,0,1,.608-.9,1.269,1.269,0,0,1,1.036-.468h3.338c.19,0,.4,0,.4.239,0,.339-.359.339-.488.339h-1.136a7.694,7.694,0,0,0-.18,1.585,4.284,4.284,0,0,0,.289,1.643.427.427,0,0,1,.061.22.42.42,0,0,1-.409.378c-.15,0-.259-.06-.359-.5a3.131,3.131,0,0,1-.08-.757,10.944,10.944,0,0,1,.419-2.571h-1.126Z" transform="translate(-494 -334)"/>
    <path class="cls-5" d="M694.211,423.18c-.169,0-.349,0-.349-.2s.18-.2.349-.2H699.6c.169,0,.348,0,.348.2s-.179.2-.348.2Z" transform="translate(-494 -334)"/>
    <path class="cls-5" d="M702.914,423.957c-.129.5-.129.519-.268.977-.12.369-.2.647-.5.647a.271.271,0,0,1-.289-.268c0-.071,0-.09.08-.24a21.073,21.073,0,0,0,1.276-3.318h-.568a1.4,1.4,0,0,0-1.266.767c-.06.081-.079.12-.159.12-.12,0-.12-.09-.12-.1a3.542,3.542,0,0,1,.608-.9,1.265,1.265,0,0,1,1.036-.469h3.338c.189,0,.4,0,.4.239,0,.339-.358.339-.488.339h-1.136a7.77,7.77,0,0,0-.179,1.585,4.281,4.281,0,0,0,.289,1.643.435.435,0,0,1,.06.22.42.42,0,0,1-.409.378c-.149,0-.259-.06-.358-.5a3.127,3.127,0,0,1-.08-.757,10.944,10.944,0,0,1,.419-2.571h-1.126Z" transform="translate(-494 -334)"/>
    <path class="cls-5" d="M836.251,415.862c-.907,0-1.195-1.105-1.195-2.042,0-2.282,1.534-5.091,2.919-5.091,1.016,0,1.195,1.384,1.195,2.042C839.17,413,837.656,415.862,836.251,415.862Zm-.22-3.407a7.617,7.617,0,0,0-.318,1.973c0,.926.209,1.216.538,1.216.429,0,.807-.489,1.155-1.166a8.917,8.917,0,0,0,.7-2.023Zm2.163-.319a8.268,8.268,0,0,0,.319-1.983c0-.568-.06-1.206-.548-1.206-.448,0-.818.559-1.086,1.047a8.993,8.993,0,0,0-.768,2.142Z" transform="translate(-494 -334)"/>
    <path class="cls-5" d="M770.161,350.158a.6.6,0,0,0,.19-.358c0-.279-.309-.3-.4-.309-.069-.01-.119-.04-.119-.11,0-.2.129-.2.189-.2.359,0,.738.03,1.106.03.309,0,.638-.03.936-.03.13,0,.13.1.13.11,0,.189-.09.189-.219.2a2.034,2.034,0,0,0-1.265.508c-.319.279-1.365,1.465-2.043,2.162.229.6.9,2.152,1.285,3.079.17.4.19.428.858.438.079,0,.178,0,.178.12,0,.189-.119.189-.189.189-.249,0-.857-.029-1.106-.029-.279,0-.976.029-1.255.029-.041,0-.15,0-.15-.119,0-.17.09-.18.2-.19.389-.039.578-.209.578-.288a.668.668,0,0,0-.049-.14l-1.006-2.381-.9.976-1.015,1.076c-.12.13-.27.289-.27.449,0,.278.309.3.4.308a.113.113,0,0,1,.12.11c0,.2-.12.2-.18.2-.358,0-.747-.029-1.116-.029-.309,0-.638.029-.937.029-.13,0-.13-.1-.13-.109,0-.19.09-.19.22-.2a2.015,2.015,0,0,0,1.465-.717l.129-.109,2.1-2.263-1.175-2.779c-.089-.22-.15-.319-.747-.319-.13,0-.23,0-.23-.11,0-.2.12-.2.18-.2.249,0,.867.03,1.116.03.418,0,.847-.03,1.255-.03.03,0,.149,0,.149.119,0,.17-.1.18-.2.19-.418.04-.588.229-.588.289,0,.01.021.05.05.129l.838,1.983Z" transform="translate(-494 -334)"/>
    <g>
      <path class="cls-5" d="M776.03,358.479a4.3,4.3,0,0,1-1.553-1.874,7.663,7.663,0,0,1-.031-6.147,4.347,4.347,0,0,1,1.584-1.944.09.09,0,0,1,.1.1c0,.03,0,.05-.129.169A6.518,6.518,0,0,0,774.4,353.5a6.6,6.6,0,0,0,1.565,4.664c.169.169.169.189.169.219A.09.09,0,0,1,776.03,358.479Z" transform="translate(-494 -334)"/>
      <path class="cls-5" d="M778.072,355.18a1.34,1.34,0,0,0,1.126.668,1.4,1.4,0,0,0,1.345-1.027c.02-.079.04-.139.13-.139a.115.115,0,0,1,.129.12,1.7,1.7,0,0,1-1.664,1.295,2.25,2.25,0,0,1-2.192-2.3,2.178,2.178,0,0,1,2.073-2.272,1.768,1.768,0,0,1,1.783,1.954c0,.209-.03.209-.249.209h-2.78A2.9,2.9,0,0,0,778.072,355.18Zm2.073-1.7c0-.389-.1-1.734-1.126-1.734-.339,0-1.176.249-1.236,1.734Z" transform="translate(-494 -334)"/>
    </g>
    <path class="cls-5" d="M783.206,352.892a1.434,1.434,0,0,1-1.365,1.544c-.569,0-1.126-.279-1.126-.8a.459.459,0,0,1,.917,0,.46.46,0,0,1-.35.448,1.212,1.212,0,0,0,.538.13c.638,0,.728-.857.728-1.305v-3.946c0-.488-.09-.558-.857-.558V348.1l1.515-.11Zm-.528-6.108a.528.528,0,1,1,.528-.528A.532.532,0,0,1,782.678,346.784Z" transform="translate(-494 -334)"/>
    <path class="cls-5" d="M785.515,352.463c-.642,0-.962-.683-.962-1.513,0-1.6,1.115-3.466,2.161-3.466.683,0,.963.782.963,1.514C787.677,350.56,786.575,352.463,785.515,352.463Zm-.238-2.364a5.394,5.394,0,0,0-.2,1.262c0,.377.064.907.446.907.308,0,.586-.328.8-.69a5.039,5.039,0,0,0,.565-1.479Zm1.674-.251a5.493,5.493,0,0,0,.2-1.262c0-.132,0-.906-.446-.906-.411,0-1.011.662-1.366,2.168Z" transform="translate(-494 -334)"/>
    <path class="cls-5" d="M790.928,356.535a4.347,4.347,0,0,1-1.584,1.944.094.094,0,0,1-.1-.1c0-.03,0-.05.129-.17a6.535,6.535,0,0,0,1.6-4.713,6.468,6.468,0,0,0-1.545-4.653c-.189-.179-.189-.2-.189-.229a.094.094,0,0,1,.1-.1,4.3,4.3,0,0,1,1.553,1.874,7.663,7.663,0,0,1,.031,6.147Z" transform="translate(-494 -334)"/>
    <path class="cls-5" d="M749.965,365.161c0,.369.029.478.927.478h.318v.309c-.349-.03-1.216-.03-1.614-.03s-1.266,0-1.615.03v-.309h.32c.9,0,.927-.119.927-.478V360a2.99,2.99,0,0,1-1.306.259v-.309a2.46,2.46,0,0,0,1.813-.638c.23,0,.23.02.23.259Z" transform="translate(-494 -334)"/>
    <g>
      <path class="cls-5" d="M652.565,392.984a1.933,1.933,0,1,1,1.933-1.933A1.944,1.944,0,0,1,652.565,392.984Zm1.534-1.933a1.539,1.539,0,1,0-1.534,1.534A1.541,1.541,0,0,0,654.1,391.051Z" transform="translate(-494 -334)"/>
      <path class="cls-5" d="M654.846,391.25c-.169,0-.348,0-.348-.2s.179-.2.348-.2h5.391c.169,0,.348,0,.348.2s-.179.2-.348.2Z" transform="translate(-494 -334)"/>
      <path class="cls-5" d="M662.518,392.984a1.933,1.933,0,1,1,1.932-1.933A1.944,1.944,0,0,1,662.518,392.984Zm1.534-1.933a1.54,1.54,0,1,0-1.534,1.534A1.541,1.541,0,0,0,664.052,391.051Z" transform="translate(-494 -334)"/>
    </g>
  </g>
</svg>
