<svg id="Layer_1" data-name="Layer 1" xmlns="http://www.w3.org/2000/svg" viewBox="0 0 461.478 291.4">
  <defs>
    <style>
      .cls-1, .cls-10, .cls-12, .cls-13, .cls-14, .cls-15, .cls-2, .cls-5, .cls-6, .cls-7, .cls-8, .cls-9 {
        fill: none;
      }

      .cls-1, .cls-10, .cls-11, .cls-12, .cls-13, .cls-14, .cls-15, .cls-2, .cls-7, .cls-8, .cls-9 {
        stroke: #000;
      }

      .cls-1, .cls-12, .cls-13, .cls-14, .cls-15, .cls-7, .cls-8 {
        stroke-linecap: round;
      }

      .cls-1, .cls-10, .cls-11, .cls-12, .cls-13, .cls-14, .cls-15, .cls-2, .cls-5, .cls-6, .cls-7, .cls-8, .cls-9 {
        stroke-miterlimit: 10;
      }

      .cls-1, .cls-15 {
        stroke-width: 0.283px;
      }

      .cls-1 {
        stroke-dasharray: 0 3.122;
      }

      .cls-11, .cls-2, .cls-6, .cls-7, .cls-8 {
        stroke-width: 0.85px;
      }

      .cls-3 {
        fill: #1d1d1b;
      }

      .cls-4 {
        fill: red;
      }

      .cls-5 {
        stroke: red;
      }

      .cls-12, .cls-13, .cls-14, .cls-5, .cls-9 {
        stroke-width: 2.268px;
      }

      .cls-6 {
        stroke: #fcfcfc;
      }

      .cls-7 {
        stroke-dasharray: 0 3.7;
      }

      .cls-8 {
        stroke-dasharray: 0 3.7;
      }

      .cls-10 {
        stroke-width: 1.417px;
      }

      .cls-12 {
        stroke-dasharray: 0 11.905;
      }

      .cls-13 {
        stroke-dasharray: 0 11.905;
      }

      .cls-14 {
        stroke-dasharray: 0 5.953;
      }

      .cls-15 {
        stroke-dasharray: 0 3.11;
      }
    </style>
  </defs>
  <title>FTDModulateSinc</title>
  <g>
    <path class="cls-1" d="M466.6,299.286l7.087-3.543c4.891-2.446,8.765-7.087,14.173-7.087s10.088,3.48,14.173,7.087c6.588,5.815,5.861,21.26,14.173,21.26s10.3-13.346,14.174-21.26c3.394-6.941,4.127-14.117,7.086-21.26,2.092-5.051,3.24-10.327,7.087-14.173s8.765-7.087,14.173-7.087,10.327,3.241,14.173,7.087,4.994,9.122,7.087,14.173c2.958,7.143,3.691,14.319,7.086,21.26,3.871,7.914,5.861,21.26,14.173,21.26s7.586-15.445,14.173-21.26c4.086-3.607,8.766-7.087,14.174-7.087s9.282,4.641,14.173,7.087l7.086,3.543h0" transform="translate(-452 -238.625)"/>
    <polyline points="197.857 59.386 202.393 57.118 197.857 54.85 198.991 57.118"/>
    <line class="cls-2" x1="7.512" y1="57.118" x2="198.991" y2="57.118"/>
    <polyline points="108.992 8.504 106.724 3.968 104.456 8.504 106.724 7.37"/>
    <line class="cls-2" x1="106.724" y1="85.464" x2="106.724" y2="7.37"/>
    <path class="cls-3" d="M572.422,247.38a3.908,3.908,0,0,0-.169.877c0,.339.159.658.548.658.319,0,1-.24,1.325-1.306.02-.07.04-.109.13-.109.03,0,.119,0,.119.1,0,.249-.568,1.534-1.594,1.534a1.1,1.1,0,0,1-1.076-.757,1.324,1.324,0,0,1-1.046.757c-.439,0-.937-.2-.937-.657a.566.566,0,0,1,.548-.578.342.342,0,0,1,.369.349.565.565,0,0,1-.469.538.958.958,0,0,0,.5.13c.439,0,.788-.419.947-1.037a14.494,14.494,0,0,0,.538-2.371c0-.578-.348-.668-.538-.668-.339,0-1,.249-1.335,1.306-.02.089-.05.109-.13.109-.02,0-.119,0-.119-.1,0-.249.568-1.534,1.6-1.534a1.1,1.1,0,0,1,1.076.757,1.291,1.291,0,0,1,1.046-.757c.339,0,.927.139.927.657a.556.556,0,0,1-.538.578.347.347,0,0,1-.378-.348.579.579,0,0,1,.478-.538.976.976,0,0,0-.5-.13c-.7,0-.927.917-.987,1.176Z" transform="translate(-452 -238.625)"/>
    <path class="cls-3" d="M576.25,251.515v-9.964h1.365v.4h-.967v9.166h.967v.4Z" transform="translate(-452 -238.625)"/>
    <path class="cls-3" d="M579.286,246.134a3.194,3.194,0,0,0,.16-.837c0-.328-.11-.458-.309-.458-.359,0-.558.478-.727,1.186-.06.219-.07.229-.17.229-.02,0-.119,0-.119-.1a5.007,5.007,0,0,1,.3-.966.87.87,0,0,1,.748-.568.9.9,0,0,1,.916.867,1.926,1.926,0,0,1,1.555-.867,1.019,1.019,0,0,1,1.146,1.066,8.982,8.982,0,0,1-.608,2.192,1.892,1.892,0,0,0-.179.707c0,.229.069.33.239.33.488,0,.817-.559,1.016-1.236.05-.15.05-.179.149-.179.03,0,.12,0,.12.1,0,.08-.369,1.534-1.3,1.534a.8.8,0,0,1-.818-.817,1.138,1.138,0,0,1,.1-.458,9.511,9.511,0,0,0,.647-2.321c0-.329-.09-.7-.538-.7a1.981,1.981,0,0,0-1.624,1.216c-.01.04-.09.328-.13.5-.05.229-.109.448-.169.667l-.219.9c-.06.249-.18.717-.19.737a.405.405,0,0,1-.368.279.266.266,0,0,1-.289-.268c0-.051.06-.28.089-.429Z" transform="translate(-452 -238.625)"/>
    <g>
      <path class="cls-3" d="M585.416,251.515h-1.365v-.4h.966V241.95h-.966v-.4h1.365Z" transform="translate(-452 -238.625)"/>
      <path class="cls-3" d="M590.248,245.766c-.15,0-.339,0-.339-.2s.189-.2.329-.2h5.969c.139,0,.328,0,.328.2s-.189.2-.339.2Zm-.01,1.933c-.14,0-.329,0-.329-.2s.189-.2.339-.2H596.2c.15,0,.339,0,.339.2s-.189.2-.328.2Z" transform="translate(-452 -238.625)"/>
    </g>
    <path class="cls-3" d="M602.515,244.891c-.642,0-.963-.684-.963-1.514,0-1.6,1.116-3.465,2.162-3.465.683,0,.962.781.962,1.513C604.676,242.987,603.574,244.891,602.515,244.891Zm-.238-2.365a5.413,5.413,0,0,0-.2,1.263c0,.377.063.906.446.906.307,0,.586-.327.8-.69a4.971,4.971,0,0,0,.565-1.479Zm1.674-.251a5.551,5.551,0,0,0,.2-1.262c0-.132,0-.906-.446-.906-.412,0-1.011.663-1.367,2.168Z" transform="translate(-452 -238.625)"/>
    <path class="cls-3" d="M607.061,243.745c-.786,0-1.115.83-1.115,1.338a.544.544,0,0,0,.617.577,1.52,1.52,0,0,0,1.14-.4c.079-.079.084-.084.109-.084.044,0,.109.075.109.115a.954.954,0,0,1-.532.412,2.474,2.474,0,0,1-.831.13.942.942,0,0,1-1.069-.906,1.553,1.553,0,0,1,1.572-1.348c.273,0,.756.065.756.438a.32.32,0,0,1-.309.343.2.2,0,0,1-.218-.2.322.322,0,0,1,.229-.3A.876.876,0,0,0,607.061,243.745Z" transform="translate(-452 -238.625)"/>
    <polyline points="149.112 7.995 156.672 7.995 156.672 7.515 149.112 7.515"/>
    <path class="cls-3" d="M604.169,251.512c-.167.627-.244.941-.523.941a.226.226,0,0,1-.244-.223.377.377,0,0,1,.021-.1c.021-.028.091-.174.133-.265a12.536,12.536,0,0,0,.8-2.008h-.426a1.086,1.086,0,0,0-.941.488c-.042.063-.049.077-.126.077-.028,0-.118,0-.118-.084a2.161,2.161,0,0,1,.453-.6,1.021,1.021,0,0,1,.795-.355h2.629c.119,0,.3,0,.3.2a.29.29,0,0,1-.119.216.364.364,0,0,1-.258.056h-.871a4.311,4.311,0,0,0-.1.906,2.668,2.668,0,0,0,.258,1.228.258.258,0,0,1,.056.153.339.339,0,0,1-.328.314c-.111,0-.2-.028-.314-.376a2.259,2.259,0,0,1-.076-.621,7.063,7.063,0,0,1,.258-1.6h-.83Z" transform="translate(-452 -238.625)"/>
    <g>
      <path class="cls-3" d="M613.6,241.822c0,.132,0,.181-.119.181-.028,0-.112,0-.119-.077-.014-.2-.049-.767-.858-.767-.662,0-.85.272-.85.5,0,.37.453.454,1.011.552a1.517,1.517,0,0,1,.83.341.85.85,0,0,1,.3.641c0,.5-.334.984-1.241.984a1.214,1.214,0,0,1-.85-.3c-.14.153-.272.3-.335.3-.1,0-.1-.063-.1-.181v-.858c0-.14,0-.189.118-.189.1,0,.105.028.125.119a1.026,1.026,0,0,0,1.039.914c.67,0,.858-.321.858-.593,0-.467-.565-.565-.913-.628a1.706,1.706,0,0,1-.963-.348.689.689,0,0,1-.264-.544c0-.349.236-.872,1.233-.872a1.269,1.269,0,0,1,.733.188c.042-.034.111-.1.125-.1.091-.084.105-.084.14-.084.1,0,.1.063.1.181Z" transform="translate(-452 -238.625)"/>
      <path class="cls-3" d="M615.511,241.027v2.531c0,.293.07.293.474.293v.251c-.244-.021-.5-.028-.739-.028-.279,0-.767.028-.781.028v-.251c.453,0,.523,0,.523-.3v-1.813c0-.342-.063-.384-.5-.384v-.25Zm-.37-.823a.4.4,0,0,1,0-.8.4.4,0,1,1,0,.8Z" transform="translate(-452 -238.625)"/>
    </g>
    <g>
      <path class="cls-3" d="M619.946,243.551c0,.3.07.3.523.3v.251c-.063-.007-.544-.028-.8-.028-.292,0-.781.028-.794.028v-.251c.453,0,.523,0,.523-.3v-1.59c0-.356-.063-.739-.552-.739A1.037,1.037,0,0,0,617.8,242.3v1.255c0,.3.07.3.524.3v.251c-.063-.007-.544-.028-.8-.028-.293,0-.78.028-.795.028v-.251c.454,0,.523,0,.523-.3v-1.806c0-.342-.055-.391-.523-.391v-.25l1.026-.077v.676h.007a1.246,1.246,0,0,1,1.136-.676c.746,0,1.046.355,1.046.962Z" transform="translate(-452 -238.625)"/>
      <path class="cls-3" d="M623.412,238.956c0,.035-.02.056-.048.084a4.115,4.115,0,0,0-1.291,3.319,4.252,4.252,0,0,0,1.27,3.291c.049.049.069.063.069.1,0,.083-.083.083-.139.083a4.46,4.46,0,0,1,0-6.966C623.329,238.872,623.412,238.872,623.412,238.956Z" transform="translate(-452 -238.625)"/>
    </g>
    <path class="cls-3" d="M625.312,244.172c-.642,0-.963-.684-.963-1.513,0-1.6,1.116-3.466,2.162-3.466.683,0,.962.781.962,1.513C627.473,242.268,626.371,244.172,625.312,244.172Zm-.238-2.364a5.342,5.342,0,0,0-.2,1.262c0,.377.063.907.446.907.307,0,.586-.328.8-.691a4.974,4.974,0,0,0,.565-1.478Zm1.674-.251a5.565,5.565,0,0,0,.2-1.263c0-.132,0-.906-.446-.906-.412,0-1.011.663-1.367,2.169Z" transform="translate(-452 -238.625)"/>
    <path class="cls-3" d="M629.857,243.026c-.785,0-1.114.83-1.114,1.338a.543.543,0,0,0,.617.577,1.523,1.523,0,0,0,1.14-.4c.079-.08.084-.085.109-.085.044,0,.109.075.109.115a.95.95,0,0,1-.532.412,2.474,2.474,0,0,1-.831.13.942.942,0,0,1-1.069-.905,1.553,1.553,0,0,1,1.571-1.349c.274,0,.757.065.757.438a.321.321,0,0,1-.309.344.2.2,0,0,1-.219-.2.324.324,0,0,1,.229-.3A.872.872,0,0,0,629.857,243.026Z" transform="translate(-452 -238.625)"/>
    <path class="cls-3" d="M632.546,242.77c.035-.153.1-.439.154-.627a3.167,3.167,0,0,0,.111-.579c0-.189-.049-.342-.23-.342-.272,0-.4.342-.509.753-.049.189-.056.21-.154.21-.021,0-.118,0-.118-.091a2.464,2.464,0,0,1,.251-.691.636.636,0,0,1,.551-.376.708.708,0,0,1,.746.635,1.48,1.48,0,0,1,1.178-.635c.37,0,.907.119.907.8a5.084,5.084,0,0,1-.37,1.345,1.4,1.4,0,0,0-.16.565c0,.147.028.245.174.245.279,0,.579-.287.739-.844.028-.077.036-.119.133-.119.021,0,.112,0,.112.091s-.307,1.067-1,1.067a.615.615,0,0,1-.663-.6.937.937,0,0,1,.105-.377,5.644,5.644,0,0,0,.411-1.485c0-.132-.007-.488-.411-.488a1.294,1.294,0,0,0-1.046.642,1.4,1.4,0,0,0-.293.627c-.035.161-.077.314-.119.467-.041.175-.119.5-.153.628a2.876,2.876,0,0,1-.126.433.342.342,0,0,1-.272.153.223.223,0,0,1-.237-.223,2.585,2.585,0,0,1,.07-.286Z" transform="translate(-452 -238.625)"/>
    <path class="cls-3" d="M638.7,242.359a4.642,4.642,0,0,1-.509,2.147,3.1,3.1,0,0,1-1.206,1.332.082.082,0,0,1-.091-.083c0-.035.007-.042.126-.161a4.233,4.233,0,0,0,1.206-3.242,4.146,4.146,0,0,0-1.269-3.291c-.042-.049-.063-.07-.063-.105,0-.084.084-.084.132-.084A4.182,4.182,0,0,1,638.7,242.359Z" transform="translate(-452 -238.625)"/>
    <polyline points="158.952 7.995 187.512 7.995 187.512 7.515 158.952 7.515"/>
    <path class="cls-3" d="M620.39,252.453c-.642,0-.963-.683-.963-1.513,0-1.6,1.116-3.466,2.162-3.466.683,0,.962.781.962,1.513C622.551,250.549,621.449,252.453,620.39,252.453Zm-.238-2.364a5.394,5.394,0,0,0-.2,1.262c0,.377.063.907.446.907.307,0,.586-.328.8-.691a4.963,4.963,0,0,0,.565-1.478Zm1.674-.251a5.559,5.559,0,0,0,.2-1.262c0-.133,0-.907-.446-.907-.412,0-1.011.663-1.367,2.169Z" transform="translate(-452 -238.625)"/>
    <path class="cls-3" d="M624.936,251.307c-.786,0-1.115.831-1.115,1.338a.544.544,0,0,0,.617.577,1.52,1.52,0,0,0,1.14-.4c.079-.079.084-.085.109-.085.044,0,.109.075.109.115a.954.954,0,0,1-.532.413,2.492,2.492,0,0,1-.831.129.942.942,0,0,1-1.069-.905,1.553,1.553,0,0,1,1.572-1.348c.273,0,.756.065.756.438a.321.321,0,0,1-.309.343.2.2,0,0,1-.218-.2.32.32,0,0,1,.229-.3A.869.869,0,0,0,624.936,251.307Z" transform="translate(-452 -238.625)"/>
    <path class="cls-3" d="M627.624,251.051c.035-.153.105-.439.154-.627a3.152,3.152,0,0,0,.111-.579c0-.188-.049-.342-.23-.342-.272,0-.4.342-.509.753-.049.189-.056.21-.153.21-.021,0-.119,0-.119-.091a2.485,2.485,0,0,1,.251-.69.635.635,0,0,1,.551-.377.708.708,0,0,1,.746.635,1.483,1.483,0,0,1,1.178-.635c.37,0,.907.119.907.8a5.132,5.132,0,0,1-.369,1.346,1.394,1.394,0,0,0-.161.565c0,.146.028.244.174.244.28,0,.579-.286.74-.844.027-.077.035-.119.132-.119.021,0,.112,0,.112.091s-.307,1.067-1,1.067a.615.615,0,0,1-.663-.6.929.929,0,0,1,.105-.377,5.655,5.655,0,0,0,.411-1.485c0-.133-.007-.489-.411-.489a1.3,1.3,0,0,0-1.046.642,1.42,1.42,0,0,0-.293.627c-.035.161-.077.314-.119.468-.041.174-.119.5-.153.627a2.841,2.841,0,0,1-.126.433.342.342,0,0,1-.272.153.222.222,0,0,1-.236-.223,2.577,2.577,0,0,1,.069-.286Z" transform="translate(-452 -238.625)"/>
    <path class="cls-3" d="M659.45,294.97a3.194,3.194,0,0,0,.16-.837c0-.328-.11-.458-.309-.458-.359,0-.558.478-.727,1.186-.06.219-.07.229-.17.229-.02,0-.119,0-.119-.1a5.007,5.007,0,0,1,.3-.966.871.871,0,0,1,.748-.568.9.9,0,0,1,.917.867,1.922,1.922,0,0,1,1.554-.867,1.018,1.018,0,0,1,1.146,1.066,8.982,8.982,0,0,1-.608,2.192,1.892,1.892,0,0,0-.179.707c0,.229.069.329.239.329.488,0,.817-.558,1.016-1.235.05-.15.05-.18.149-.18.03,0,.12,0,.12.1,0,.08-.369,1.534-1.3,1.534a.8.8,0,0,1-.817-.817,1.132,1.132,0,0,1,.1-.458,9.511,9.511,0,0,0,.647-2.321c0-.33-.09-.7-.538-.7a1.981,1.981,0,0,0-1.624,1.216c-.01.04-.09.328-.13.5-.05.229-.109.448-.169.667l-.219.9c-.06.249-.18.717-.19.737a.405.405,0,0,1-.368.279.266.266,0,0,1-.289-.268c0-.051.06-.28.09-.429Z" transform="translate(-452 -238.625)"/>
    <polyline class="cls-4" points="103.039 177.306 106.724 184.676 110.409 177.306 106.724 179.149"/>
    <path class="cls-5" d="M558.724,412.671v5.1m-3.543-86.6,7.086,7.086m-7.086,0,7.086-7.086" transform="translate(-452 -238.625)"/>
    <path class="cls-3" d="M799.083,244.148a.6.6,0,0,0,.189-.358c0-.28-.308-.3-.4-.31-.069-.009-.119-.039-.119-.109,0-.2.129-.2.189-.2.359,0,.738.03,1.106.03.308,0,.638-.03.936-.03.13,0,.13.1.13.109,0,.19-.09.19-.22.2a2.034,2.034,0,0,0-1.264.509c-.319.279-1.365,1.465-2.043,2.162.229.6.9,2.152,1.285,3.079.17.4.189.428.857.438.08,0,.179,0,.179.12,0,.189-.119.189-.189.189-.249,0-.857-.03-1.106-.03-.279,0-.976.03-1.256.03-.04,0-.149,0-.149-.12,0-.169.09-.179.2-.189.389-.04.578-.209.578-.289a.675.675,0,0,0-.049-.139l-1.006-2.382-.9.977-1.015,1.076c-.121.13-.27.289-.27.448,0,.279.309.3.4.309a.114.114,0,0,1,.121.11c0,.2-.121.2-.18.2-.359,0-.747-.03-1.116-.03-.309,0-.638.03-.937.03-.13,0-.13-.1-.13-.109,0-.19.09-.19.22-.2a2.015,2.015,0,0,0,1.465-.717l.129-.11,2.1-2.262-1.175-2.78c-.089-.219-.15-.319-.748-.319-.129,0-.229,0-.229-.109,0-.2.12-.2.18-.2.249,0,.867.03,1.116.03.418,0,.847-.03,1.255-.03.03,0,.149,0,.149.119,0,.169-.1.18-.2.189-.418.041-.588.229-.588.29,0,.009.021.049.05.129l.838,1.983Z" transform="translate(-452 -238.625)"/>
    <g>
      <path class="cls-3" d="M804.952,252.468A4.31,4.31,0,0,1,803.4,250.6a7.671,7.671,0,0,1-.03-6.148,4.348,4.348,0,0,1,1.584-1.943.09.09,0,0,1,.1.1c0,.03,0,.049-.129.169a6.516,6.516,0,0,0-1.605,4.713,6.6,6.6,0,0,0,1.565,4.663c.169.169.169.189.169.22A.089.089,0,0,1,804.952,252.468Z" transform="translate(-452 -238.625)"/>
      <path class="cls-3" d="M806.994,249.17a1.339,1.339,0,0,0,1.126.667,1.4,1.4,0,0,0,1.345-1.026c.019-.08.04-.139.13-.139a.115.115,0,0,1,.129.12,1.7,1.7,0,0,1-1.664,1.294,2.249,2.249,0,0,1-2.192-2.3,2.177,2.177,0,0,1,2.072-2.272,1.767,1.767,0,0,1,1.784,1.953c0,.209-.03.209-.249.209H806.7A2.9,2.9,0,0,0,806.994,249.17Zm2.072-1.7c0-.388-.1-1.734-1.126-1.734-.338,0-1.175.249-1.235,1.734Z" transform="translate(-452 -238.625)"/>
    </g>
    <path class="cls-3" d="M812,246.881a1.435,1.435,0,0,1-1.365,1.545c-.569,0-1.126-.279-1.126-.8a.459.459,0,1,1,.917,0,.46.46,0,0,1-.35.448,1.209,1.209,0,0,0,.538.13c.638,0,.728-.857.728-1.306v-3.945c0-.489-.09-.558-.857-.558v-.309l1.515-.11Zm-.528-6.108a.528.528,0,1,1,.528-.527A.531.531,0,0,1,811.475,240.773Z" transform="translate(-452 -238.625)"/>
    <path class="cls-3" d="M814.437,246.445c-.642,0-.962-.683-.962-1.513,0-1.6,1.115-3.466,2.161-3.466.683,0,.963.782.963,1.513C816.6,244.542,815.5,246.445,814.437,246.445Zm-.238-2.364a5.394,5.394,0,0,0-.2,1.262c0,.377.064.907.446.907.308,0,.586-.328.8-.69a5.039,5.039,0,0,0,.565-1.479Zm1.674-.251a5.493,5.493,0,0,0,.2-1.262c0-.132,0-.906-.446-.906-.411,0-1.011.662-1.366,2.168Z" transform="translate(-452 -238.625)"/>
    <path class="cls-3" d="M819.725,250.525a4.341,4.341,0,0,1-1.584,1.943.094.094,0,0,1-.1-.1c0-.031,0-.051.129-.17a6.536,6.536,0,0,0,1.6-4.713,6.462,6.462,0,0,0-1.545-4.653c-.188-.18-.188-.2-.188-.229a.094.094,0,0,1,.1-.1,4.3,4.3,0,0,1,1.553,1.873,7.665,7.665,0,0,1,.031,6.148Z" transform="translate(-452 -238.625)"/>
    <polyline points="197.857 137.338 202.393 135.07 197.857 132.802 198.991 135.07"/>
    <line class="cls-2" x1="11.055" y1="135.07" x2="198.991" y2="135.07"/>
    <polyline points="108.992 111.259 106.724 106.724 104.456 111.259 106.724 110.125"/>
    <line class="cls-2" x1="106.724" y1="159.873" x2="106.724" y2="110.125"/>
    <g>
      <path class="cls-3" d="M572.492,347.132a3.229,3.229,0,0,0,.946-.08,3.276,3.276,0,0,0,.22-.887h.249l-.279,1.734h-3.7c0-.239,0-.259.11-.369l1.913-2.132A3.57,3.57,0,0,0,573,343.2c0-.817-.428-1.624-1.335-1.624a1.436,1.436,0,0,0-1.345,1.016.377.377,0,0,1,.129-.01.5.5,0,0,1,.529.518.524.524,0,1,1-1.047-.03,1.841,1.841,0,0,1,1.863-1.8,1.958,1.958,0,0,1,2.113,1.933c0,1-.6,1.534-2.152,2.909l-1.056,1.027Z" transform="translate(-452 -238.625)"/>
      <path class="cls-3" d="M578.719,347.759a1.3,1.3,0,0,0,1.3-1.046c.02-.06.04-.1.129-.1.031,0,.13,0,.13.1a1.639,1.639,0,0,1-1.654,1.295,2.2,2.2,0,0,1-2.142-2.261,2.233,2.233,0,0,1,2.162-2.312c.767,0,1.524.389,1.524,1.066a.458.458,0,1,1-.916.01.449.449,0,0,1,.468-.458,1.623,1.623,0,0,0-1.066-.369c-.528,0-1.345.419-1.345,2.043C577.314,347.331,578.19,347.759,578.719,347.759Z" transform="translate(-452 -238.625)"/>
    </g>
    <g>
      <path class="cls-3" d="M583.07,348.008a2.224,2.224,0,0,1-2.2-2.241,2.21,2.21,0,1,1,4.414,0A2.219,2.219,0,0,1,583.07,348.008Zm1.166-.986a3.019,3.019,0,0,0,.22-1.335,2.725,2.725,0,0,0-.26-1.385,1.306,1.306,0,0,0-1.126-.648,1.335,1.335,0,0,0-1.135.668,2.846,2.846,0,0,0-.24,1.365,2.969,2.969,0,0,0,.249,1.4,1.3,1.3,0,0,0,1.137.667A1.283,1.283,0,0,0,584.236,347.022Z" transform="translate(-452 -238.625)"/>
      <path class="cls-3" d="M586.388,345.507a1.06,1.06,0,0,1-.429-.846c0-.558.379-1.226,1.594-1.226a1.536,1.536,0,0,1,.937.279,1.422,1.422,0,0,0,.17-.159c.129-.12.149-.12.2-.12.109,0,.109.07.109.239v1.007c0,.189,0,.239-.129.239a.107.107,0,0,1-.12-.09,1.1,1.1,0,0,0-1.166-1.2c-.857,0-1.115.408-1.115.757,0,.577.667.707,1.225.817a2.025,2.025,0,0,1,1.136.478,1.286,1.286,0,0,1,.418.947c0,.717-.458,1.384-1.6,1.384a1.487,1.487,0,0,1-1.1-.428,2.61,2.61,0,0,0-.2.229c-.19.19-.2.2-.249.2-.11,0-.11-.069-.11-.238v-1.316c0-.179,0-.249.13-.249.1,0,.109.04.139.17.189.846.548,1.415,1.385,1.415.778,0,1.126-.4,1.126-.907,0-.718-.817-.877-1.036-.917A2.594,2.594,0,0,1,586.388,345.507Z" transform="translate(-452 -238.625)"/>
    </g>
    <path class="cls-3" d="M592.553,350.39A4.31,4.31,0,0,1,591,348.517a7.671,7.671,0,0,1-.03-6.148,4.348,4.348,0,0,1,1.584-1.943.089.089,0,0,1,.1.1c0,.031,0,.05-.13.17a6.518,6.518,0,0,0-1.6,4.713,6.6,6.6,0,0,0,1.565,4.663c.169.169.169.189.169.22A.089.089,0,0,1,592.553,350.39Z" transform="translate(-452 -238.625)"/>
    <path class="cls-3" d="M594.8,348.008c-.907,0-1.2-1.106-1.2-2.042,0-2.282,1.535-5.091,2.92-5.091,1.016,0,1.2,1.384,1.2,2.042C597.725,345.149,596.21,348.008,594.8,348.008Zm-.219-3.407a7.625,7.625,0,0,0-.319,1.973c0,.926.209,1.216.538,1.216.428,0,.807-.489,1.156-1.166a8.906,8.906,0,0,0,.7-2.023Zm2.162-.319a8.268,8.268,0,0,0,.319-1.983c0-.568-.06-1.2-.548-1.2-.449,0-.817.557-1.086,1.046a8.96,8.96,0,0,0-.767,2.142Z" transform="translate(-452 -238.625)"/>
    <path class="cls-3" d="M599.851,349.484c-1.618,0-1.618-1.862-1.618-2.364s0-2.406,1.618-2.406a1.453,1.453,0,0,1,1.207.6,3.114,3.114,0,0,1,.411,1.807C601.469,347.622,601.469,349.484,599.851,349.484Zm.893-.984a7.666,7.666,0,0,0,.09-1.471,5.69,5.69,0,0,0-.118-1.485.9.9,0,0,0-1.744.062,6.012,6.012,0,0,0-.1,1.423,7.264,7.264,0,0,0,.1,1.5.9.9,0,0,0,1.779-.028Z" transform="translate(-452 -238.625)"/>
    <path class="cls-3" d="M603.888,345.009a3.175,3.175,0,0,0,.159-.837c0-.328-.109-.458-.309-.458-.358,0-.558.478-.727,1.186-.06.219-.07.229-.169.229-.02,0-.12,0-.12-.1a4.96,4.96,0,0,1,.3-.966.869.869,0,0,1,.747-.568.9.9,0,0,1,.917.867,1.923,1.923,0,0,1,1.554-.867,1.018,1.018,0,0,1,1.146,1.066,8.937,8.937,0,0,1-.608,2.192,1.911,1.911,0,0,0-.179.707c0,.229.07.33.239.33.488,0,.817-.559,1.017-1.236.049-.15.049-.179.149-.179.03,0,.12,0,.12.1,0,.08-.369,1.534-1.306,1.534a.8.8,0,0,1-.817-.817,1.132,1.132,0,0,1,.1-.458,9.511,9.511,0,0,0,.648-2.321c0-.329-.09-.7-.539-.7a1.984,1.984,0,0,0-1.624,1.216c-.01.04-.089.328-.129.5-.05.229-.11.448-.169.667l-.22.9c-.06.249-.179.717-.189.737a.406.406,0,0,1-.369.279.266.266,0,0,1-.289-.268c0-.051.06-.28.09-.429Z" transform="translate(-452 -238.625)"/>
    <path class="cls-3" d="M610.685,348.447a4.348,4.348,0,0,1-1.584,1.943.094.094,0,0,1-.1-.1c0-.031,0-.051.129-.17a6.533,6.533,0,0,0,1.605-4.713,6.462,6.462,0,0,0-1.545-4.653c-.189-.18-.189-.2-.189-.23a.094.094,0,0,1,.1-.1,4.31,4.31,0,0,1,1.554,1.873,7.671,7.671,0,0,1,.03,6.148Z" transform="translate(-452 -238.625)"/>
    <path class="cls-3" d="M659.45,372.962a3.194,3.194,0,0,0,.16-.837c0-.328-.11-.458-.309-.458-.359,0-.558.479-.727,1.186-.06.219-.07.229-.17.229-.02,0-.119,0-.119-.1a5.007,5.007,0,0,1,.3-.966.871.871,0,0,1,.748-.568.9.9,0,0,1,.917.867,1.922,1.922,0,0,1,1.554-.867,1.019,1.019,0,0,1,1.146,1.066,8.982,8.982,0,0,1-.608,2.192,1.9,1.9,0,0,0-.179.708c0,.229.069.329.239.329.488,0,.817-.558,1.016-1.236.05-.15.05-.179.149-.179.03,0,.12,0,.12.1,0,.08-.369,1.534-1.3,1.534a.8.8,0,0,1-.817-.816,1.136,1.136,0,0,1,.1-.459,9.511,9.511,0,0,0,.647-2.321c0-.329-.09-.7-.538-.7a1.981,1.981,0,0,0-1.624,1.216c-.01.04-.09.328-.13.5-.05.229-.109.449-.169.667l-.219.9c-.06.249-.18.718-.19.738a.405.405,0,0,1-.368.278.266.266,0,0,1-.289-.268c0-.05.06-.279.09-.429Z" transform="translate(-452 -238.625)"/>
    <polyline class="cls-4" points="322.723 177.306 326.408 184.676 330.093 177.306 326.408 179.149"/>
    <line class="cls-5" x1="326.408" y1="174.046" x2="326.408" y2="179.149"/>
    <path class="cls-4" d="M775.181,339.768c-.224.247-.323.247-.372.247a.208.208,0,0,1-.223-.223c0-.024,0-.049.173-.347l2.379-4.188-4.46-2.007c-.2-.1-.323-.148-.323-.3a.23.23,0,0,1,.249-.223l5,1.016.545-4.758c.049-.371.049-.5.273-.5.2,0,.2.124.248.47l.545,4.783,5.006-1.016a.228.228,0,0,1,.247.223c0,.149-.049.173-.347.3l-4.436,2.007,2.429,4.238a.771.771,0,0,1,.124.3.208.208,0,0,1-.223.223.35.35,0,0,1-.249-.123L778.4,336.2Z" transform="translate(-452 -238.625)"/>
    <polygon class="cls-6" points="0.425 145.7 0.425 290.975 461.053 290.975 461.053 0.425 0.425 0.425 0.425 145.7"/>
    <path class="cls-7" d="M466.6,483.537l7.087-3.543c4.891-2.446,8.765-7.087,14.173-7.087s10.088,3.48,14.173,7.087c6.588,5.815,5.861,21.26,14.173,21.26s10.3-13.346,14.174-21.26c3.394-6.941,4.127-14.117,7.086-21.26,2.092-5.051,3.24-10.327,7.087-14.173s8.765-7.087,14.173-7.087,10.327,3.241,14.173,7.087,4.994,9.122,7.087,14.173c2.958,7.143,3.691,14.319,7.086,21.26,3.871,7.914,5.861,21.26,14.173,21.26s7.586-15.445,14.173-21.26c4.086-3.607,8.766-7.087,14.174-7.087s9.282,4.641,14.173,7.087l7.086,3.543h0" transform="translate(-452 -238.625)"/>
    <polyline points="194.314 243.636 198.849 241.369 194.314 239.101 195.448 241.369"/>
    <line class="cls-2" x1="3.968" y1="241.369" x2="195.448" y2="241.369"/>
    <polyline points="108.992 192.755 106.724 188.219 104.456 192.755 106.724 191.621"/>
    <line class="cls-2" x1="106.724" y1="287.432" x2="106.724" y2="191.621"/>
    <path class="cls-3" d="M573.319,432.87a2.628,2.628,0,0,1-2.332,2.033.943.943,0,0,1-1.056-.867.574.574,0,0,1,.558-.647.34.34,0,0,1,.369.348.541.541,0,0,1-.2.409.569.569,0,0,1-.429.12.805.805,0,0,0,.757.418,1.424,1.424,0,0,0,1.1-.628,3.81,3.81,0,0,0,.648-1.535,1.4,1.4,0,0,1-1.006.449,1.111,1.111,0,0,1-1.216-1.186,6.572,6.572,0,0,1,.578-2.093,2.092,2.092,0,0,0,.169-.7c0-.318-.169-.318-.249-.318-.339,0-.737.3-1.006,1.235-.05.159-.06.18-.159.18-.02,0-.12,0-.12-.1s.369-1.535,1.315-1.535a.79.79,0,0,1,.817.817,1.806,1.806,0,0,1-.2.718,5.929,5.929,0,0,0-.508,1.952c0,.37.109.808.618.808a1.386,1.386,0,0,0,1.126-.848l.448-1.793c.06-.269.13-.538.2-.8.04-.179.12-.488.14-.538a.435.435,0,0,1,.348-.21.267.267,0,0,1,.289.27.625.625,0,0,1-.04.229Z" transform="translate(-452 -238.625)"/>
    <path class="cls-3" d="M575.89,435.352v-9.964h1.365v.4h-.966v9.167h.966v.4Z" transform="translate(-452 -238.625)"/>
    <path class="cls-3" d="M578.927,429.971a3.182,3.182,0,0,0,.159-.837c0-.329-.109-.458-.309-.458-.358,0-.558.477-.727,1.185-.06.219-.07.23-.169.23-.02,0-.12,0-.12-.1a4.983,4.983,0,0,1,.3-.967.871.871,0,0,1,.747-.568.9.9,0,0,1,.917.867,1.928,1.928,0,0,1,1.554-.867,1.018,1.018,0,0,1,1.146,1.066,8.933,8.933,0,0,1-.608,2.193,1.911,1.911,0,0,0-.179.707c0,.229.07.329.239.329.488,0,.817-.559,1.017-1.235.049-.15.049-.18.149-.18.03,0,.12,0,.12.1,0,.08-.369,1.534-1.306,1.534a.8.8,0,0,1-.817-.817,1.136,1.136,0,0,1,.1-.459,9.485,9.485,0,0,0,.648-2.321c0-.329-.09-.7-.538-.7a1.98,1.98,0,0,0-1.624,1.215c-.011.04-.09.329-.13.5-.05.228-.11.448-.169.667l-.22.9c-.06.249-.179.717-.189.737a.406.406,0,0,1-.369.279.267.267,0,0,1-.289-.269c0-.05.06-.279.09-.429Z" transform="translate(-452 -238.625)"/>
    <g>
      <path class="cls-3" d="M585.057,435.352h-1.366v-.4h.967v-9.167h-.967v-.4h1.366Z" transform="translate(-452 -238.625)"/>
      <path class="cls-3" d="M589.769,429.6c-.15,0-.339,0-.339-.2s.189-.2.329-.2h5.968c.14,0,.329,0,.329.2s-.189.2-.339.2Zm-.01,1.932c-.14,0-.329,0-.329-.2s.189-.2.339-.2h5.948c.15,0,.339,0,.339.2s-.189.2-.329.2Z" transform="translate(-452 -238.625)"/>
    </g>
    <path class="cls-3" d="M602.422,431.216a3.908,3.908,0,0,0-.169.877c0,.339.159.658.548.658.319,0,1-.239,1.325-1.306.02-.069.04-.109.13-.109.03,0,.119,0,.119.1,0,.249-.568,1.534-1.594,1.534a1.1,1.1,0,0,1-1.076-.757,1.326,1.326,0,0,1-1.046.757c-.439,0-.937-.2-.937-.657a.566.566,0,0,1,.548-.579.342.342,0,0,1,.369.349.565.565,0,0,1-.469.538.958.958,0,0,0,.5.13c.439,0,.788-.419.947-1.036a14.5,14.5,0,0,0,.538-2.372c0-.577-.348-.667-.538-.667-.339,0-1,.249-1.335,1.3-.02.09-.05.111-.13.111-.02,0-.119,0-.119-.1,0-.25.568-1.535,1.6-1.535a1.1,1.1,0,0,1,1.076.758,1.289,1.289,0,0,1,1.046-.758c.339,0,.927.14.927.658a.555.555,0,0,1-.538.577.346.346,0,0,1-.378-.348.578.578,0,0,1,.478-.538.982.982,0,0,0-.5-.129c-.7,0-.927.916-.987,1.176Z" transform="translate(-452 -238.625)"/>
    <path class="cls-3" d="M606.242,435.352v-9.964h1.365v.4h-.967v9.167h.967v.4Z" transform="translate(-452 -238.625)"/>
    <path class="cls-3" d="M609.286,429.971a3.2,3.2,0,0,0,.16-.837c0-.329-.11-.458-.309-.458-.359,0-.558.477-.727,1.185-.06.219-.07.23-.17.23-.02,0-.119,0-.119-.1a5.031,5.031,0,0,1,.3-.967.871.871,0,0,1,.748-.568.9.9,0,0,1,.916.867,1.928,1.928,0,0,1,1.555-.867,1.018,1.018,0,0,1,1.146,1.066,8.977,8.977,0,0,1-.608,2.193,1.892,1.892,0,0,0-.179.707c0,.229.069.329.239.329.488,0,.817-.559,1.016-1.235.05-.15.05-.18.149-.18.03,0,.12,0,.12.1,0,.08-.369,1.534-1.3,1.534a.8.8,0,0,1-.818-.817,1.142,1.142,0,0,1,.1-.459,9.486,9.486,0,0,0,.647-2.321c0-.329-.09-.7-.538-.7a1.98,1.98,0,0,0-1.624,1.215c-.01.04-.09.329-.13.5-.05.228-.109.448-.169.667l-.219.9c-.06.249-.18.717-.19.737a.405.405,0,0,1-.368.279.266.266,0,0,1-.289-.269c0-.05.06-.279.089-.429Z" transform="translate(-452 -238.625)"/>
    <path class="cls-3" d="M615.408,435.352h-1.365v-.4h.966v-9.167h-.966v-.4h1.365Z" transform="translate(-452 -238.625)"/>
    <path class="cls-3" d="M620.255,430.9a.528.528,0,1,1,.529-.528A.531.531,0,0,1,620.255,430.9Z" transform="translate(-452 -238.625)"/>
    <g>
      <path class="cls-3" d="M626.844,432.093a.8.8,0,0,0,1.165-.966h.249l-.279,1.733h-3.7c0-.239,0-.258.11-.369l1.913-2.132a3.57,3.57,0,0,0,1.046-2.2c0-.817-.429-1.624-1.335-1.624a1.438,1.438,0,0,0-1.346,1.017.381.381,0,0,1,.13-.01.5.5,0,0,1,.528.518.524.524,0,1,1-1.046-.031,1.84,1.84,0,0,1,1.863-1.8,1.956,1.956,0,0,1,2.112,1.932c0,1-.6,1.534-2.152,2.909l-1.056,1.027Z" transform="translate(-452 -238.625)"/>
      <path class="cls-3" d="M633.07,432.721a1.3,1.3,0,0,0,1.3-1.046c.021-.06.041-.1.13-.1.03,0,.13,0,.13.1a1.641,1.641,0,0,1-1.655,1.3,2.206,2.206,0,0,1-2.142-2.262A2.234,2.234,0,0,1,633,428.4c.768,0,1.525.389,1.525,1.067a.459.459,0,1,1-.917.01.449.449,0,0,1,.469-.458,1.62,1.62,0,0,0-1.067-.369c-.528,0-1.344.418-1.344,2.042C631.666,432.292,632.542,432.721,633.07,432.721Z" transform="translate(-452 -238.625)"/>
    </g>
    <g>
      <path class="cls-3" d="M637.422,432.97a2.223,2.223,0,0,1-2.2-2.241,2.21,2.21,0,1,1,4.414,0A2.22,2.22,0,0,1,637.422,432.97Zm1.166-.987a3.027,3.027,0,0,0,.219-1.335,2.73,2.73,0,0,0-.259-1.384,1.306,1.306,0,0,0-1.126-.649,1.338,1.338,0,0,0-1.136.668,2.86,2.86,0,0,0-.239,1.365,2.971,2.971,0,0,0,.249,1.406,1.3,1.3,0,0,0,1.136.667A1.285,1.285,0,0,0,638.588,431.983Z" transform="translate(-452 -238.625)"/>
      <path class="cls-3" d="M640.739,430.469a1.061,1.061,0,0,1-.428-.847c0-.558.378-1.226,1.594-1.226a1.533,1.533,0,0,1,.937.28,1.345,1.345,0,0,0,.169-.16c.13-.12.15-.12.2-.12.11,0,.11.07.11.24v1.006c0,.189,0,.239-.13.239a.106.106,0,0,1-.119-.09,1.1,1.1,0,0,0-1.166-1.2c-.857,0-1.116.408-1.116.757,0,.578.668.708,1.226.817a2.023,2.023,0,0,1,1.135.479,1.281,1.281,0,0,1,.419.946c0,.718-.458,1.385-1.6,1.385a1.488,1.488,0,0,1-1.1-.428,2.078,2.078,0,0,0-.2.229c-.189.189-.2.2-.249.2-.109,0-.109-.07-.109-.24v-1.314c0-.18,0-.25.129-.25.1,0,.11.04.14.17.189.847.548,1.415,1.385,1.415.777,0,1.126-.4,1.126-.907,0-.717-.818-.877-1.037-.916A2.607,2.607,0,0,1,640.739,430.469Z" transform="translate(-452 -238.625)"/>
    </g>
    <path class="cls-3" d="M647.022,435.352a4.3,4.3,0,0,1-1.554-1.873,7.673,7.673,0,0,1-.03-6.149,4.328,4.328,0,0,1,1.584-1.942.089.089,0,0,1,.1.1c0,.03,0,.05-.13.169a6.521,6.521,0,0,0-1.6,4.713,6.6,6.6,0,0,0,1.565,4.663c.169.17.169.19.169.22A.09.09,0,0,1,647.022,435.352Z" transform="translate(-452 -238.625)"/>
    <path class="cls-3" d="M649.274,432.97c-.907,0-1.2-1.106-1.2-2.042,0-2.282,1.535-5.092,2.92-5.092,1.016,0,1.195,1.385,1.195,2.042C652.193,430.11,650.679,432.97,649.274,432.97Zm-.219-3.407a7.575,7.575,0,0,0-.319,1.972c0,.927.209,1.216.538,1.216.428,0,.807-.488,1.156-1.166a8.9,8.9,0,0,0,.7-2.022Zm2.162-.32a8.262,8.262,0,0,0,.319-1.982c0-.569-.06-1.206-.548-1.206-.449,0-.818.558-1.087,1.047a9.025,9.025,0,0,0-.767,2.141Z" transform="translate(-452 -238.625)"/>
    <path class="cls-3" d="M654.335,434.43c-1.617,0-1.617-1.863-1.617-2.365s0-2.4,1.617-2.4a1.447,1.447,0,0,1,1.207.6,3.107,3.107,0,0,1,.411,1.805C655.953,432.567,655.953,434.43,654.335,434.43Zm.893-.984a7.583,7.583,0,0,0,.091-1.471,5.653,5.653,0,0,0-.119-1.486.9.9,0,0,0-1.743.064,5.944,5.944,0,0,0-.105,1.422,7.205,7.205,0,0,0,.1,1.5.9.9,0,0,0,1.778-.029Z" transform="translate(-452 -238.625)"/>
    <path class="cls-3" d="M658.247,429.971a3.2,3.2,0,0,0,.16-.837c0-.329-.11-.458-.309-.458-.359,0-.558.477-.727,1.185-.06.219-.07.23-.17.23-.02,0-.119,0-.119-.1a5.031,5.031,0,0,1,.3-.967.871.871,0,0,1,.747-.568.9.9,0,0,1,.917.867,1.928,1.928,0,0,1,1.555-.867,1.018,1.018,0,0,1,1.146,1.066,8.977,8.977,0,0,1-.608,2.193,1.892,1.892,0,0,0-.179.707c0,.229.069.329.239.329.488,0,.817-.559,1.016-1.235.05-.15.05-.18.149-.18.03,0,.12,0,.12.1,0,.08-.369,1.534-1.3,1.534a.8.8,0,0,1-.818-.817,1.154,1.154,0,0,1,.1-.459,9.441,9.441,0,0,0,.648-2.321c0-.329-.09-.7-.538-.7a1.98,1.98,0,0,0-1.624,1.215c-.01.04-.09.329-.13.5-.05.228-.109.448-.169.667l-.219.9c-.06.249-.18.717-.19.737a.406.406,0,0,1-.368.279.266.266,0,0,1-.289-.269c0-.05.06-.279.089-.429Z" transform="translate(-452 -238.625)"/>
    <path class="cls-3" d="M665.044,433.408a4.333,4.333,0,0,1-1.584,1.944.094.094,0,0,1-.1-.1c0-.03,0-.05.13-.17a7.754,7.754,0,0,0,.06-9.366c-.19-.179-.19-.2-.19-.229a.094.094,0,0,1,.1-.1,4.294,4.294,0,0,1,1.555,1.873,7.674,7.674,0,0,1,.029,6.147Z" transform="translate(-452 -238.625)"/>
    <path class="cls-3" d="M659.45,479.283a3.194,3.194,0,0,0,.16-.837c0-.329-.11-.458-.309-.458-.359,0-.558.478-.727,1.186-.06.219-.07.229-.17.229-.02,0-.119,0-.119-.1a5.031,5.031,0,0,1,.3-.967.871.871,0,0,1,.748-.568.9.9,0,0,1,.917.867,1.922,1.922,0,0,1,1.554-.867,1.018,1.018,0,0,1,1.146,1.066,8.982,8.982,0,0,1-.608,2.192,1.892,1.892,0,0,0-.179.707c0,.23.069.329.239.329.488,0,.817-.558,1.016-1.235.05-.149.05-.18.149-.18.03,0,.12,0,.12.1,0,.08-.369,1.534-1.3,1.534a.8.8,0,0,1-.817-.816,1.13,1.13,0,0,1,.1-.459,9.5,9.5,0,0,0,.647-2.321c0-.33-.09-.7-.538-.7a1.982,1.982,0,0,0-1.624,1.215c-.01.04-.09.329-.13.5-.05.229-.109.448-.169.667l-.219.9c-.06.249-.18.716-.19.737a.405.405,0,0,1-.368.278.266.266,0,0,1-.289-.268c0-.05.06-.28.09-.429Z" transform="translate(-452 -238.625)"/>
    <path class="cls-8" d="M466.6,476.451l7.087,3.543c4.891,2.445,8.765,7.086,14.173,7.086s10.088-3.48,14.173-7.086c6.588-5.816,5.861-21.26,14.173-21.26s10.3,13.346,14.174,21.26c3.394,6.941,4.127,14.117,7.086,21.26,2.092,5.05,3.24,10.326,7.087,14.173s8.765,7.086,14.173,7.086,10.327-3.24,14.173-7.086,4.994-9.123,7.087-14.173c2.958-7.143,3.691-14.319,7.086-21.26,3.871-7.914,5.861-21.26,14.173-21.26s7.586,15.444,14.173,21.26c4.086,3.606,8.766,7.086,14.174,7.086s9.282-4.641,14.173-7.086l7.086-3.543h0" transform="translate(-452 -238.625)"/>
    <line class="cls-2" x1="322.864" y1="213.022" x2="329.951" y2="213.022"/>
    <path class="cls-3" d="M771.8,446.956c0,.368.029.479.927.479h.318v.308c-.349-.03-1.216-.03-1.614-.03s-1.266,0-1.615.03v-.308h.32c.9,0,.926-.121.926-.479V441.8a2.984,2.984,0,0,1-1.3.259v-.309a2.46,2.46,0,0,0,1.813-.638c.23,0,.23.02.23.259Z" transform="translate(-452 -238.625)"/>
    <path class="cls-3" d="M875.728,504.853c-.908,0-1.2-1.106-1.2-2.042,0-2.283,1.534-5.092,2.919-5.092,1.017,0,1.195,1.385,1.195,2.042C878.646,501.993,877.133,504.853,875.728,504.853Zm-.22-3.408a7.631,7.631,0,0,0-.319,1.973c0,.927.209,1.216.539,1.216.428,0,.806-.488,1.155-1.166a8.917,8.917,0,0,0,.7-2.023Zm2.163-.319a8.3,8.3,0,0,0,.318-1.982c0-.569-.059-1.206-.548-1.206-.448,0-.817.558-1.086,1.046a9.032,9.032,0,0,0-.767,2.142Z" transform="translate(-452 -238.625)"/>
    <polyline points="328.675 203.385 326.408 198.849 324.14 203.385 326.408 202.251"/>
    <path class="cls-2" d="M778.408,504.8V440.876m-13.125,60.378h7.087" transform="translate(-452 -238.625)"/>
    <polyline points="411.503 264.896 416.039 262.629 411.503 260.361 412.637 262.629"/>
    <line class="cls-2" x1="241.369" y1="262.629" x2="412.637" y2="262.629"/>
    <path class="cls-3" d="M780.172,514.119a1.864,1.864,0,0,1-3.378.15,5.056,5.056,0,0,1-.448-2.4,5.343,5.343,0,0,1,.368-2.262,1.828,1.828,0,0,1,1.734-1.185,1.848,1.848,0,0,1,1.694,1.115,7.052,7.052,0,0,1,.03,4.584Zm-.568-.308a19.167,19.167,0,0,0,.01-4.006c-.189-.987-.847-1.166-1.176-1.166-.249,0-1,.09-1.186,1.275a13.491,13.491,0,0,0-.079,1.834,13.651,13.651,0,0,0,.109,2.1c.18.957.768,1.206,1.156,1.206C778.887,515.056,779.454,514.757,779.6,513.811Z" transform="translate(-452 -238.625)"/>
    <path class="cls-9" d="M849.273,501.254H828.014m-28.347,0H757.148m-28.346,0h-21.26" transform="translate(-452 -238.625)"/>
    <path class="cls-10" d="M742.975,504.8V497.71m70.866,7.087V497.71" transform="translate(-452 -238.625)"/>
    <path class="cls-3" d="M810.931,514.688c-.908,0-1.2-1.105-1.2-2.042,0-2.282,1.535-5.091,2.919-5.091,1.017,0,1.2,1.384,1.2,2.042C813.85,511.829,812.336,514.688,810.931,514.688Zm-.22-3.407a7.617,7.617,0,0,0-.318,1.973c0,.927.209,1.216.538,1.216.428,0,.806-.489,1.155-1.166a8.917,8.917,0,0,0,.7-2.023Zm2.163-.319a8.3,8.3,0,0,0,.318-1.983c0-.568-.059-1.206-.547-1.206-.449,0-.818.559-1.086,1.047a8.993,8.993,0,0,0-.768,2.142Z" transform="translate(-452 -238.625)"/>
    <path class="cls-3" d="M815.969,516.164c-1.618,0-1.618-1.862-1.618-2.364s0-2.4,1.618-2.4a1.449,1.449,0,0,1,1.206.6,3.1,3.1,0,0,1,.412,1.806C817.587,514.3,817.587,516.164,815.969,516.164Zm.892-.983a7.594,7.594,0,0,0,.091-1.472,5.649,5.649,0,0,0-.119-1.485.9.9,0,0,0-1.743.063,5.944,5.944,0,0,0-.105,1.422,7.2,7.2,0,0,0,.1,1.5.9.9,0,0,0,1.778-.028Z" transform="translate(-452 -238.625)"/>
    <path class="cls-3" d="M735.727,512.287c-.169,0-.349,0-.349-.2s.18-.2.349-.2h5.39c.169,0,.349,0,.349.2s-.18.2-.349.2Z" transform="translate(-452 -238.625)"/>
    <path class="cls-3" d="M743.962,514.688c-.907,0-1.195-1.105-1.195-2.042,0-2.282,1.534-5.091,2.919-5.091,1.016,0,1.195,1.384,1.195,2.042C746.881,511.829,745.367,514.688,743.962,514.688Zm-.22-3.407a7.617,7.617,0,0,0-.318,1.973c0,.927.209,1.216.538,1.216.429,0,.807-.489,1.155-1.166a8.917,8.917,0,0,0,.7-2.023Zm2.163-.319a8.261,8.261,0,0,0,.319-1.983c0-.568-.06-1.206-.548-1.206-.448,0-.818.559-1.086,1.047a8.993,8.993,0,0,0-.768,2.142Z" transform="translate(-452 -238.625)"/>
    <path class="cls-3" d="M749.016,516.164c-1.619,0-1.619-1.862-1.619-2.364s0-2.4,1.619-2.4a1.449,1.449,0,0,1,1.206.6,3.1,3.1,0,0,1,.412,1.806C750.634,514.3,750.634,516.164,749.016,516.164Zm.892-.983a7.594,7.594,0,0,0,.091-1.472,5.649,5.649,0,0,0-.119-1.485.9.9,0,0,0-1.743.063,5.944,5.944,0,0,0-.1,1.422,7.2,7.2,0,0,0,.1,1.5.9.9,0,0,0,1.778-.028Z" transform="translate(-452 -238.625)"/>
    <path class="cls-3" d="M789.028,438.554a.553.553,0,0,0-.139.309l-.349,1.4c-.05.21-.14.558-.14.628,0,.119.06.139.27.159a3.6,3.6,0,0,0,.378.02c.189,0,.279,0,.279.11,0,.2-.119.2-.189.2-.28,0-1-.03-1.276-.03s-.976.03-1.255.03c-.02,0-.139,0-.139-.11,0-.2.079-.2.268-.2.8-.01.808-.04.937-.588.05-.179.448-1.784.448-1.813a1.042,1.042,0,0,0-.039-.17l-1.226-3.278c-.089-.249-.129-.338-.727-.338-.13,0-.23,0-.23-.111,0-.2.13-.2.19-.2.249,0,.867.03,1.116.03.278,0,.977-.03,1.255-.03.03,0,.149,0,.149.11,0,.2-.1.2-.239.2-.1,0-.587,0-.587.238,0,.011,0,.03.06.17l1.1,2.959,2.312-2.66c.04-.05.27-.309.27-.479,0-.209-.29-.228-.36-.228-.05,0-.149-.011-.149-.12,0-.19.13-.19.189-.19.32,0,.668.03,1,.03.27,0,.559-.03.818-.03.08,0,.13.04.13.12,0,.179-.09.179-.2.19a1.879,1.879,0,0,0-1.3.687l-.14.139Z" transform="translate(-452 -238.625)"/>
    <g>
      <path class="cls-3" d="M796.671,443.875A4.3,4.3,0,0,1,795.117,442a7.671,7.671,0,0,1-.03-6.148,4.334,4.334,0,0,1,1.584-1.943.09.09,0,0,1,.1.1c0,.029,0,.05-.129.169a6.516,6.516,0,0,0-1.605,4.713,6.6,6.6,0,0,0,1.565,4.663c.169.17.169.189.169.219A.09.09,0,0,1,796.671,443.875Z" transform="translate(-452 -238.625)"/>
      <path class="cls-3" d="M798.713,440.577a1.34,1.34,0,0,0,1.126.667,1.4,1.4,0,0,0,1.345-1.026c.019-.079.04-.14.129-.14a.116.116,0,0,1,.129.12,1.7,1.7,0,0,1-1.664,1.3,2.249,2.249,0,0,1-2.191-2.3,2.177,2.177,0,0,1,2.072-2.271,1.767,1.767,0,0,1,1.783,1.953c0,.209-.029.209-.249.209h-2.779A2.9,2.9,0,0,0,798.713,440.577Zm2.072-1.7c0-.389-.1-1.734-1.126-1.734-.339,0-1.176.25-1.235,1.734Z" transform="translate(-452 -238.625)"/>
    </g>
    <path class="cls-3" d="M803.964,438.28a1.434,1.434,0,0,1-1.365,1.545c-.569,0-1.126-.279-1.126-.8a.459.459,0,0,1,.917,0,.462.462,0,0,1-.35.45,1.225,1.225,0,0,0,.538.128c.638,0,.728-.856.728-1.3v-3.947c0-.488-.09-.557-.857-.557v-.31l1.515-.109Zm-.528-6.107a.529.529,0,1,1,.528-.528A.532.532,0,0,1,803.436,432.173Z" transform="translate(-452 -238.625)"/>
    <path class="cls-3" d="M806.28,437.852c-.641,0-.962-.683-.962-1.513,0-1.6,1.116-3.466,2.161-3.466.684,0,.963.781.963,1.514C808.442,435.948,807.341,437.852,806.28,437.852Zm-.237-2.364a5.394,5.394,0,0,0-.2,1.262c0,.377.063.906.446.906.308,0,.586-.327.8-.689a5.015,5.015,0,0,0,.564-1.479Zm1.674-.251a5.559,5.559,0,0,0,.2-1.262c0-.132,0-.907-.446-.907-.411,0-1.011.662-1.367,2.169Z" transform="translate(-452 -238.625)"/>
    <path class="cls-3" d="M811.686,441.932a4.348,4.348,0,0,1-1.584,1.943.094.094,0,0,1-.1-.1c0-.03,0-.049.129-.17a7.752,7.752,0,0,0,.059-9.366c-.188-.178-.188-.2-.188-.228a.093.093,0,0,1,.1-.1,4.3,4.3,0,0,1,1.553,1.873,7.676,7.676,0,0,1,.031,6.148Z" transform="translate(-452 -238.625)"/>
    <path class="cls-2" d="M660.486,278.06a2.495,2.495,0,1,0-2.494,2.5,2.495,2.495,0,0,0,2.494-2.5Zm.993-.034h21.26m6.067.034a2.495,2.495,0,1,0-2.494,2.5,2.495,2.495,0,0,0,2.494-2.5Z" transform="translate(-452 -238.625)"/>
    <g>
      <path class="cls-3" d="M666.877,269.97h-.468c-.149-1.166-.378-1.933-1.983-1.933h-1.4v2.68h.5c.966,0,1.046-.428,1.046-1.165h.468v2.8h-.468c0-.738-.09-1.166-1.046-1.166h-.5v2.69h1.345v.468c-.438-.03-1.524-.03-2.012-.03-.439,0-1.445,0-1.823.03v-.468h1.076v-5.839h-1.076v-.468h6.028Z" transform="translate(-452 -238.625)"/>
      <path class="cls-3" d="M674.9,270.02h-.469c-.1-1.136-.2-1.933-1.624-1.933h-.757v5.789h1.525v.468c-.538-.03-1.645-.03-2.233-.03s-1.694,0-2.231.03v-.468h1.524v-5.789h-.767c-1.435,0-1.534.807-1.624,1.933h-.469l.21-2.4h6.705Z" transform="translate(-452 -238.625)"/>
    </g>
    <path class="cls-3" d="M675.658,267.977v-.468h4.284a3.281,3.281,0,0,1,3.468,3.477,3.216,3.216,0,0,1-3.458,3.358h-4.294v-.468h1.076v-5.9Zm3.885,5.9a2.373,2.373,0,0,0,1.963-.837,3.284,3.284,0,0,0,.439-2.062,3.673,3.673,0,0,0-.429-2.113,2.338,2.338,0,0,0-1.973-.887h-1.454v5.9Z" transform="translate(-452 -238.625)"/>
    <path class="cls-2" d="M663.966,359.54a2.495,2.495,0,1,0-2.494,2.5,2.495,2.495,0,0,0,2.494-2.5Zm1.056-.018h21.26m6.124.018a2.495,2.495,0,1,0-2.494,2.5,2.495,2.495,0,0,0,2.494-2.5Z" transform="translate(-452 -238.625)"/>
    <g>
      <path class="cls-3" d="M670.479,351.447h-.468c-.15-1.166-.379-1.933-1.983-1.933h-1.395v2.68h.5c.967,0,1.046-.428,1.046-1.166h.469v2.8h-.469c0-.737-.089-1.166-1.046-1.166h-.5v2.691h1.345v.468c-.438-.03-1.524-.03-2.013-.03-.438,0-1.444,0-1.823.03v-.468h1.076v-5.839h-1.076v-.469h6.028Z" transform="translate(-452 -238.625)"/>
      <path class="cls-3" d="M678.5,351.5h-.469c-.1-1.137-.2-1.934-1.624-1.934h-.758v5.79h1.525v.468c-.538-.03-1.644-.03-2.232-.03s-1.694,0-2.232.03v-.468h1.525v-5.79h-.768c-1.434,0-1.534.808-1.624,1.934h-.468l.209-2.4h6.706Z" transform="translate(-452 -238.625)"/>
    </g>
    <path class="cls-3" d="M679.259,349.454v-.469h4.285a3.282,3.282,0,0,1,3.468,3.478,3.216,3.216,0,0,1-3.458,3.358h-4.295v-.468h1.076v-5.9Zm3.887,5.9a2.372,2.372,0,0,0,1.962-.837,3.288,3.288,0,0,0,.439-2.063,3.67,3.67,0,0,0-.429-2.112,2.335,2.335,0,0,0-1.972-.887H681.69v5.9Z" transform="translate(-452 -238.625)"/>
    <path class="cls-2" d="M660.486,458.78a2.495,2.495,0,1,0-2.494,2.5,2.495,2.495,0,0,0,2.494-2.5Zm.993-.046h21.26m6.067.046a2.495,2.495,0,1,0-2.494,2.5,2.495,2.495,0,0,0,2.494-2.5Z" transform="translate(-452 -238.625)"/>
    <g>
      <path class="cls-3" d="M666.877,450.682h-.468c-.149-1.166-.378-1.934-1.983-1.934h-1.4v2.681h.5c.966,0,1.046-.429,1.046-1.166h.468v2.8h-.468c0-.738-.09-1.166-1.046-1.166h-.5v2.69h1.345v.469c-.438-.031-1.524-.031-2.012-.031-.439,0-1.445,0-1.823.031v-.469h1.076v-5.839h-1.076v-.468h6.028Z" transform="translate(-452 -238.625)"/>
      <path class="cls-3" d="M674.9,450.731h-.469c-.1-1.135-.2-1.933-1.624-1.933h-.757v5.789h1.525v.469c-.538-.031-1.645-.031-2.233-.031s-1.694,0-2.231.031v-.469h1.524V448.8h-.767c-1.435,0-1.534.807-1.624,1.933h-.469l.21-2.4h6.705Z" transform="translate(-452 -238.625)"/>
    </g>
    <path class="cls-3" d="M675.658,448.688v-.467h4.284a3.281,3.281,0,0,1,3.468,3.477,3.216,3.216,0,0,1-3.458,3.358h-4.294v-.469h1.076v-5.9Zm3.885,5.9a2.37,2.37,0,0,0,1.963-.837,3.284,3.284,0,0,0,.439-2.062,3.675,3.675,0,0,0-.429-2.113,2.338,2.338,0,0,0-1.973-.887h-1.454v5.9Z" transform="translate(-452 -238.625)"/>
    <path class="cls-3" d="M875.728,313.446c-.908,0-1.2-1.106-1.2-2.043,0-2.281,1.534-5.091,2.919-5.091,1.017,0,1.195,1.385,1.195,2.042C878.646,310.586,877.133,313.446,875.728,313.446Zm-.22-3.407a7.625,7.625,0,0,0-.319,1.972c0,.927.209,1.216.539,1.216.428,0,.806-.488,1.155-1.166a8.9,8.9,0,0,0,.7-2.022Zm2.163-.319a8.313,8.313,0,0,0,.318-1.983c0-.568-.059-1.206-.548-1.206-.448,0-.817.558-1.086,1.046a9.054,9.054,0,0,0-.767,2.143Z" transform="translate(-452 -238.625)"/>
    <polyline points="328.675 12.047 326.408 7.512 324.14 12.047 326.408 10.913"/>
    <path class="cls-2" d="M778.408,313.459V249.538m-13.125,60.378h7.087" transform="translate(-452 -238.625)"/>
    <polyline points="411.503 73.559 416.039 71.291 411.503 69.023 412.637 71.291"/>
    <line class="cls-2" x1="241.369" y1="71.291" x2="412.637" y2="71.291"/>
    <path class="cls-3" d="M777.648,322.837a1.862,1.862,0,0,1-3.377.15,5.045,5.045,0,0,1-.449-2.4,5.339,5.339,0,0,1,.368-2.261,1.852,1.852,0,0,1,3.428-.07,7.032,7.032,0,0,1,.03,4.583Zm-.568-.309a19.252,19.252,0,0,0,.011-4c-.19-.986-.848-1.166-1.176-1.166-.249,0-1,.09-1.186,1.275a13.323,13.323,0,0,0-.08,1.834,13.528,13.528,0,0,0,.11,2.1c.179.957.767,1.206,1.156,1.206C776.363,323.774,776.931,323.475,777.08,322.528Z" transform="translate(-452 -238.625)"/>
    <path class="cls-9" d="M792.581,309.916V260.31m0,0H764.235m0,0v49.606m85.038,0H792.581m-28.346,0H707.542" transform="translate(-452 -238.625)"/>
    <path class="cls-3" d="M771.8,255.674c0,.369.029.478.927.478h.318v.309c-.349-.029-1.216-.029-1.614-.029s-1.266,0-1.615.029v-.309h.32c.9,0,.926-.119.926-.478v-5.161a2.984,2.984,0,0,1-1.3.259v-.309a2.46,2.46,0,0,0,1.813-.638c.23,0,.23.02.23.259Z" transform="translate(-452 -238.625)"/>
    <path class="cls-3" d="M875.728,395.048c-.908,0-1.2-1.106-1.2-2.042,0-2.282,1.534-5.092,2.919-5.092,1.017,0,1.195,1.385,1.195,2.042C878.646,392.188,877.133,395.048,875.728,395.048Zm-.22-3.407a7.619,7.619,0,0,0-.319,1.972c0,.927.209,1.216.539,1.216.428,0,.806-.488,1.155-1.166a8.911,8.911,0,0,0,.7-2.022Zm2.163-.32a8.3,8.3,0,0,0,.318-1.982c0-.568-.059-1.206-.548-1.206-.448,0-.817.558-1.086,1.047a9.041,9.041,0,0,0-.767,2.141Z" transform="translate(-452 -238.625)"/>
    <polyline points="328.675 107.716 326.408 103.181 324.14 107.716 326.408 106.582"/>
    <line class="cls-2" x1="326.408" y1="152.787" x2="326.408" y2="106.582"/>
    <polyline points="411.503 151.511 416.039 149.243 411.503 146.976 412.637 149.243"/>
    <line class="cls-2" x1="241.369" y1="149.243" x2="412.637" y2="149.243"/>
    <path class="cls-3" d="M780.172,400.838a1.863,1.863,0,0,1-3.378.149,5.052,5.052,0,0,1-.448-2.4,5.343,5.343,0,0,1,.368-2.262,1.827,1.827,0,0,1,1.734-1.185,1.848,1.848,0,0,1,1.694,1.115,7.052,7.052,0,0,1,.03,4.584Zm-.568-.309a19.168,19.168,0,0,0,.01-4.006c-.189-.986-.847-1.166-1.176-1.166-.249,0-1,.09-1.186,1.276a13.491,13.491,0,0,0-.079,1.834,13.632,13.632,0,0,0,.109,2.1c.18.957.768,1.206,1.156,1.206C778.887,401.774,779.454,401.476,779.6,400.529Z" transform="translate(-452 -238.625)"/>
    <polyline points="294.66 121.18 290.975 113.81 287.29 121.18 290.975 119.338"/>
    <path class="cls-9" d="M742.975,357.963v29.9m106.3,0H707.542" transform="translate(-452 -238.625)"/>
    <polyline points="365.526 121.18 361.841 113.81 358.156 121.18 361.841 119.338"/>
    <line class="cls-9" x1="361.841" y1="119.338" x2="361.841" y2="149.243"/>
    <path class="cls-3" d="M810.931,401.29c-.908,0-1.2-1.105-1.2-2.042,0-2.282,1.535-5.092,2.919-5.092,1.017,0,1.2,1.385,1.2,2.042C813.85,398.431,812.336,401.29,810.931,401.29Zm-.22-3.407a7.611,7.611,0,0,0-.318,1.972c0,.927.209,1.216.538,1.216.428,0,.806-.488,1.155-1.166a8.9,8.9,0,0,0,.7-2.022Zm2.163-.32a8.3,8.3,0,0,0,.318-1.982c0-.568-.059-1.206-.547-1.206-.449,0-.818.559-1.086,1.047a9,9,0,0,0-.768,2.141Z" transform="translate(-452 -238.625)"/>
    <path class="cls-3" d="M815.969,402.758c-1.618,0-1.618-1.862-1.618-2.364s0-2.406,1.618-2.406a1.449,1.449,0,0,1,1.206.6,3.1,3.1,0,0,1,.412,1.806C817.587,400.9,817.587,402.758,815.969,402.758Zm.892-.984a7.583,7.583,0,0,0,.091-1.471,5.653,5.653,0,0,0-.119-1.486.9.9,0,0,0-1.743.064,5.944,5.944,0,0,0-.105,1.422,7.205,7.205,0,0,0,.1,1.5.9.9,0,0,0,1.778-.029Z" transform="translate(-452 -238.625)"/>
    <path class="cls-3" d="M735.727,398.889c-.169,0-.349,0-.349-.2s.18-.2.349-.2h5.39c.169,0,.349,0,.349.2s-.18.2-.349.2Z" transform="translate(-452 -238.625)"/>
    <path class="cls-3" d="M743.962,401.29c-.907,0-1.195-1.105-1.195-2.042,0-2.282,1.534-5.092,2.919-5.092,1.016,0,1.195,1.385,1.195,2.042C746.881,398.431,745.367,401.29,743.962,401.29Zm-.22-3.407a7.611,7.611,0,0,0-.318,1.972c0,.927.209,1.216.538,1.216.429,0,.807-.488,1.155-1.166a8.9,8.9,0,0,0,.7-2.022Zm2.163-.32a8.262,8.262,0,0,0,.319-1.982c0-.568-.06-1.206-.548-1.206-.448,0-.818.559-1.086,1.047a9,9,0,0,0-.768,2.141Z" transform="translate(-452 -238.625)"/>
    <path class="cls-3" d="M749.016,402.758c-1.619,0-1.619-1.862-1.619-2.364s0-2.406,1.619-2.406a1.449,1.449,0,0,1,1.206.6,3.1,3.1,0,0,1,.412,1.806C750.634,400.9,750.634,402.758,749.016,402.758Zm.892-.984A7.583,7.583,0,0,0,750,400.3a5.653,5.653,0,0,0-.119-1.486.9.9,0,0,0-1.743.064,5.944,5.944,0,0,0-.1,1.422,7.205,7.205,0,0,0,.1,1.5.9.9,0,0,0,1.778-.029Z" transform="translate(-452 -238.625)"/>
    <path class="cls-3" d="M799.055,347.132a3.24,3.24,0,0,0,.947-.08,3.279,3.279,0,0,0,.219-.887h.249l-.279,1.734h-3.7c0-.239,0-.259.11-.369l1.913-2.132a3.57,3.57,0,0,0,1.046-2.2c0-.817-.428-1.624-1.334-1.624a1.436,1.436,0,0,0-1.346,1.016.381.381,0,0,1,.13-.01.5.5,0,0,1,.527.518.524.524,0,1,1-1.046-.03,1.841,1.841,0,0,1,1.863-1.8,1.958,1.958,0,0,1,2.113,1.933c0,1-.6,1.534-2.153,2.909l-1.055,1.027Z" transform="translate(-452 -238.625)"/>
    <g>
      <path class="cls-3" d="M803.117,346.384c-.129.5-.129.518-.268.977-.12.368-.2.647-.5.647a.27.27,0,0,1-.289-.268c0-.07,0-.09.08-.24a21.037,21.037,0,0,0,1.275-3.318h-.568a1.4,1.4,0,0,0-1.266.768c-.06.079-.079.119-.159.119-.12,0-.12-.09-.12-.1a3.54,3.54,0,0,1,.608-.9,1.266,1.266,0,0,1,1.036-.469h3.338c.19,0,.4,0,.4.24,0,.338-.359.338-.489.338h-1.135a7.71,7.71,0,0,0-.18,1.585,4.288,4.288,0,0,0,.289,1.644.43.43,0,0,1,.06.219.42.42,0,0,1-.409.378c-.149,0-.258-.059-.358-.5a3.131,3.131,0,0,1-.08-.757,10.952,10.952,0,0,1,.419-2.571h-1.126Z" transform="translate(-452 -238.625)"/>
      <path class="cls-3" d="M809.064,341.841c0-.6.36-1.027,1.137-1.027a3.3,3.3,0,0,1,.817.11c.359.08.518.11.518.329a.417.417,0,0,1-.4.4,1.356,1.356,0,0,1-.548-.249,1.213,1.213,0,0,0-.708-.269.5.5,0,0,0-.548.459,3.941,3.941,0,0,0,.946,1.634,2.794,2.794,0,0,1,.738,1.853c0,1.375-.828,2.94-1.993,2.94a1.567,1.567,0,0,1-1.574-1.674,3.047,3.047,0,0,1,2.212-2.8A4.076,4.076,0,0,1,809.064,341.841Zm-1,4.783c0,.757.409,1.175.957,1.175.927,0,1.305-1.664,1.305-2.321a3.454,3.454,0,0,0-.548-1.714C808.438,344.123,808.068,346,808.068,346.624Z" transform="translate(-452 -238.625)"/>
    </g>
    <path class="cls-3" d="M815.03,350.39a4.3,4.3,0,0,1-1.553-1.873,7.665,7.665,0,0,1-.031-6.148,4.348,4.348,0,0,1,1.584-1.943.089.089,0,0,1,.1.1c0,.031,0,.05-.129.17a6.515,6.515,0,0,0-1.605,4.713,6.6,6.6,0,0,0,1.565,4.663c.169.169.169.189.169.22A.089.089,0,0,1,815.03,350.39Z" transform="translate(-452 -238.625)"/>
    <path class="cls-3" d="M817.282,348.008c-.907,0-1.2-1.106-1.2-2.042,0-2.282,1.534-5.091,2.919-5.091,1.016,0,1.2,1.384,1.2,2.042C820.2,345.149,818.688,348.008,817.282,348.008Zm-.219-3.407a7.625,7.625,0,0,0-.319,1.973c0,.926.209,1.216.538,1.216.429,0,.807-.489,1.156-1.166a9.017,9.017,0,0,0,.7-2.023Zm2.163-.319a8.306,8.306,0,0,0,.318-1.983c0-.568-.06-1.2-.548-1.2-.448,0-.817.557-1.086,1.046a9.047,9.047,0,0,0-.767,2.142Z" transform="translate(-452 -238.625)"/>
    <path class="cls-3" d="M824.047,345.607c-.169,0-.349,0-.349-.2s.18-.2.349-.2h5.391c.168,0,.348,0,.348.2s-.18.2-.348.2Z" transform="translate(-452 -238.625)"/>
    <path class="cls-3" d="M834.446,348.008c-.907,0-1.2-1.106-1.2-2.042,0-2.282,1.534-5.091,2.919-5.091,1.017,0,1.2,1.384,1.2,2.042C837.365,345.149,835.852,348.008,834.446,348.008Zm-.219-3.407a7.625,7.625,0,0,0-.319,1.973c0,.926.209,1.216.538,1.216.429,0,.807-.489,1.156-1.166a9.017,9.017,0,0,0,.7-2.023Zm2.163-.319a8.306,8.306,0,0,0,.318-1.983c0-.568-.06-1.2-.548-1.2-.448,0-.817.557-1.086,1.046a9.047,9.047,0,0,0-.767,2.142Z" transform="translate(-452 -238.625)"/>
    <path class="cls-3" d="M839.492,349.484c-1.618,0-1.618-1.862-1.618-2.364s0-2.406,1.618-2.406a1.45,1.45,0,0,1,1.206.6,3.1,3.1,0,0,1,.412,1.807C841.11,347.622,841.11,349.484,839.492,349.484Zm.893-.984a7.583,7.583,0,0,0,.091-1.471,5.593,5.593,0,0,0-.12-1.485.9.9,0,0,0-1.743.062,6.012,6.012,0,0,0-.1,1.423,7.264,7.264,0,0,0,.1,1.5.9.9,0,0,0,1.779-.028Z" transform="translate(-452 -238.625)"/>
    <path class="cls-3" d="M844.209,348.447a4.341,4.341,0,0,1-1.584,1.943.094.094,0,0,1-.1-.1c0-.031,0-.051.129-.17a6.533,6.533,0,0,0,1.605-4.713,6.466,6.466,0,0,0-1.545-4.653c-.189-.18-.189-.2-.189-.23a.094.094,0,0,1,.1-.1,4.3,4.3,0,0,1,1.554,1.873,7.671,7.671,0,0,1,.03,6.148Z" transform="translate(-452 -238.625)"/>
    <path class="cls-3" d="M714.094,347.132a3.24,3.24,0,0,0,.947-.08,3.279,3.279,0,0,0,.219-.887h.249l-.279,1.734h-3.7c0-.239,0-.259.11-.369l1.913-2.132a3.571,3.571,0,0,0,1.047-2.2c0-.817-.429-1.624-1.335-1.624a1.436,1.436,0,0,0-1.346,1.016.381.381,0,0,1,.13-.01.5.5,0,0,1,.527.518.524.524,0,1,1-1.046-.03,1.842,1.842,0,0,1,1.863-1.8,1.958,1.958,0,0,1,2.113,1.933c0,1-.6,1.534-2.153,2.909l-1.055,1.027Z" transform="translate(-452 -238.625)"/>
    <g>
      <path class="cls-3" d="M718.156,346.384c-.129.5-.129.518-.268.977-.119.368-.2.647-.5.647a.27.27,0,0,1-.289-.268c0-.07,0-.09.08-.24a21.037,21.037,0,0,0,1.275-3.318h-.568a1.4,1.4,0,0,0-1.266.768c-.059.079-.079.119-.159.119-.12,0-.12-.09-.12-.1a3.57,3.57,0,0,1,.608-.9,1.267,1.267,0,0,1,1.036-.469h3.338c.19,0,.4,0,.4.24,0,.338-.359.338-.489.338H720.1a7.71,7.71,0,0,0-.18,1.585,4.288,4.288,0,0,0,.289,1.644.388.388,0,0,1-.349.6c-.149,0-.258-.059-.358-.5a3.131,3.131,0,0,1-.08-.757,10.952,10.952,0,0,1,.419-2.571h-1.126Z" transform="translate(-452 -238.625)"/>
      <path class="cls-3" d="M724.1,341.841c0-.6.359-1.027,1.136-1.027a3.3,3.3,0,0,1,.817.11c.359.08.518.11.518.329a.417.417,0,0,1-.4.4,1.356,1.356,0,0,1-.548-.249,1.213,1.213,0,0,0-.708-.269.5.5,0,0,0-.548.459,3.941,3.941,0,0,0,.946,1.634,2.794,2.794,0,0,1,.738,1.853c0,1.375-.828,2.94-1.993,2.94a1.567,1.567,0,0,1-1.574-1.674,3.047,3.047,0,0,1,2.212-2.8A4.073,4.073,0,0,1,724.1,341.841Zm-1,4.783c0,.757.409,1.175.957,1.175.927,0,1.305-1.664,1.305-2.321a3.454,3.454,0,0,0-.548-1.714C723.477,344.123,723.107,346,723.107,346.624Z" transform="translate(-452 -238.625)"/>
    </g>
    <path class="cls-3" d="M730.069,350.39a4.3,4.3,0,0,1-1.553-1.873,7.665,7.665,0,0,1-.031-6.148,4.348,4.348,0,0,1,1.584-1.943.089.089,0,0,1,.1.1c0,.031,0,.05-.129.17a6.514,6.514,0,0,0-1.6,4.713A6.6,6.6,0,0,0,730,350.071c.169.169.169.189.169.22A.089.089,0,0,1,730.069,350.39Z" transform="translate(-452 -238.625)"/>
    <path class="cls-3" d="M732.321,348.008c-.907,0-1.2-1.106-1.2-2.042,0-2.282,1.534-5.091,2.919-5.091,1.017,0,1.2,1.384,1.2,2.042C735.24,345.149,733.727,348.008,732.321,348.008ZM732.1,344.6a7.625,7.625,0,0,0-.319,1.973c0,.926.209,1.216.538,1.216.429,0,.807-.489,1.156-1.166a9.017,9.017,0,0,0,.7-2.023Zm2.163-.319a8.306,8.306,0,0,0,.318-1.983c0-.568-.06-1.2-.548-1.2-.448,0-.817.557-1.086,1.046a9.047,9.047,0,0,0-.767,2.142Z" transform="translate(-452 -238.625)"/>
    <path class="cls-3" d="M741.985,348.4c0,.14,0,.329-.2.329s-.2-.189-.2-.329v-2.79H738.8c-.14,0-.329,0-.329-.2s.189-.2.329-.2h2.79v-2.789c0-.14,0-.329.2-.329s.2.189.2.329v2.789h2.781c.139,0,.328,0,.328.2s-.189.2-.328.2h-2.781Z" transform="translate(-452 -238.625)"/>
    <path class="cls-3" d="M749.485,348.008c-.907,0-1.2-1.106-1.2-2.042,0-2.282,1.534-5.091,2.919-5.091,1.017,0,1.2,1.384,1.2,2.042C752.4,345.149,750.891,348.008,749.485,348.008Zm-.219-3.407a7.625,7.625,0,0,0-.319,1.973c0,.926.209,1.216.538,1.216.429,0,.807-.489,1.156-1.166a8.917,8.917,0,0,0,.7-2.023Zm2.163-.319a8.306,8.306,0,0,0,.318-1.983c0-.568-.059-1.2-.548-1.2-.448,0-.817.557-1.086,1.046a9.047,9.047,0,0,0-.767,2.142Z" transform="translate(-452 -238.625)"/>
    <path class="cls-3" d="M754.539,349.484c-1.618,0-1.618-1.862-1.618-2.364s0-2.406,1.618-2.406a1.45,1.45,0,0,1,1.206.6,3.106,3.106,0,0,1,.412,1.807C756.157,347.622,756.157,349.484,754.539,349.484Zm.893-.984a7.666,7.666,0,0,0,.09-1.471,5.6,5.6,0,0,0-.119-1.485.9.9,0,0,0-1.743.062,6.012,6.012,0,0,0-.1,1.423,7.264,7.264,0,0,0,.1,1.5.9.9,0,0,0,1.779-.028Z" transform="translate(-452 -238.625)"/>
    <path class="cls-3" d="M759.248,348.447a4.341,4.341,0,0,1-1.584,1.943.094.094,0,0,1-.1-.1c0-.031,0-.051.129-.17a6.533,6.533,0,0,0,1.605-4.713,6.466,6.466,0,0,0-1.545-4.653c-.189-.18-.189-.2-.189-.23a.094.094,0,0,1,.1-.1,4.3,4.3,0,0,1,1.554,1.873,7.671,7.671,0,0,1,.03,6.148Z" transform="translate(-452 -238.625)"/>
    <path class="cls-9" d="M565.81,295.743V256.767m7.087,38.976V260.31m7.087,35.433v-21.26m14.173,21.26v14.173m7.086-14.173V317m7.087-21.26v14.173M622.5,295.743V292.2m7.087,3.543v-7.087m7.086,7.087V292.2m-85.039,3.543V256.767m-7.086,38.976V260.31m-7.087,35.433v-21.26m-14.173,21.26v14.173M516.2,295.743V317m-7.086-21.26v14.173m-14.173-14.173V292.2m-7.087,3.543v-7.087m-7.087,7.087V292.2" transform="translate(-452 -238.625)"/>
    <path class="cls-11" d="M561.246,253.22a2.495,2.495,0,1,0-2.494,2.5,2.495,2.495,0,0,0,2.494-2.5Z" transform="translate(-452 -238.625)"/>
    <line class="cls-9" x1="106.724" y1="57.118" x2="106.724" y2="14.598"/>
    <path class="cls-11" d="M568.326,255.74a2.495,2.495,0,1,0-2.494,2.5,2.495,2.495,0,0,0,2.494-2.5Z" transform="translate(-452 -238.625)"/>
    <path class="cls-11" d="M575.406,260.3a2.495,2.495,0,1,0-2.494,2.5,2.495,2.495,0,0,0,2.494-2.5Z" transform="translate(-452 -238.625)"/>
    <path class="cls-11" d="M582.486,274.46a2.495,2.495,0,1,0-2.494,2.5,2.495,2.495,0,0,0,2.494-2.5Z" transform="translate(-452 -238.625)"/>
    <path class="cls-11" d="M589.566,295.7a2.495,2.495,0,1,0-2.494,2.5,2.495,2.495,0,0,0,2.494-2.5Z" transform="translate(-452 -238.625)"/>
    <path class="cls-11" d="M596.646,309.98a2.495,2.495,0,1,0-2.494,2.5,2.495,2.495,0,0,0,2.494-2.5Z" transform="translate(-452 -238.625)"/>
    <path class="cls-11" d="M603.726,317.06a2.495,2.495,0,1,0-2.494,2.5,2.495,2.495,0,0,0,2.494-2.5Z" transform="translate(-452 -238.625)"/>
    <path class="cls-11" d="M610.806,309.98a2.495,2.495,0,1,0-2.494,2.5,2.495,2.495,0,0,0,2.494-2.5Z" transform="translate(-452 -238.625)"/>
    <path class="cls-11" d="M617.886,295.7a2.495,2.495,0,1,0-2.494,2.5,2.495,2.495,0,0,0,2.494-2.5Z" transform="translate(-452 -238.625)"/>
    <path class="cls-11" d="M625.086,291.14a2.495,2.495,0,1,0-2.494,2.5,2.495,2.495,0,0,0,2.494-2.5Z" transform="translate(-452 -238.625)"/>
    <path class="cls-11" d="M632.166,288.62a2.495,2.495,0,1,0-2.494,2.5,2.495,2.495,0,0,0,2.494-2.5Z" transform="translate(-452 -238.625)"/>
    <path class="cls-11" d="M639.246,291.14a2.495,2.495,0,1,0-2.494,2.5,2.495,2.495,0,0,0,2.494-2.5Z" transform="translate(-452 -238.625)"/>
    <path class="cls-11" d="M646.326,295.7a2.495,2.495,0,1,0-2.494,2.5,2.495,2.495,0,0,0,2.494-2.5Z" transform="translate(-452 -238.625)"/>
    <path class="cls-11" d="M554.166,255.74a2.495,2.495,0,1,0-2.494,2.5,2.495,2.495,0,0,0,2.494-2.5Z" transform="translate(-452 -238.625)"/>
    <path class="cls-11" d="M547.086,260.3a2.495,2.495,0,1,0-2.494,2.5,2.495,2.495,0,0,0,2.494-2.5Z" transform="translate(-452 -238.625)"/>
    <path class="cls-11" d="M540.006,274.46a2.495,2.495,0,1,0-2.494,2.5,2.495,2.495,0,0,0,2.494-2.5Z" transform="translate(-452 -238.625)"/>
    <path class="cls-11" d="M532.926,295.7a2.495,2.495,0,1,0-2.494,2.5,2.495,2.495,0,0,0,2.494-2.5Z" transform="translate(-452 -238.625)"/>
    <path class="cls-11" d="M525.846,309.98a2.495,2.495,0,1,0-2.494,2.5,2.495,2.495,0,0,0,2.494-2.5Z" transform="translate(-452 -238.625)"/>
    <path class="cls-11" d="M518.766,317.06a2.495,2.495,0,1,0-2.494,2.5,2.495,2.495,0,0,0,2.494-2.5Z" transform="translate(-452 -238.625)"/>
    <path class="cls-11" d="M511.686,309.98a2.495,2.495,0,1,0-2.494,2.5,2.495,2.495,0,0,0,2.494-2.5Z" transform="translate(-452 -238.625)"/>
    <path class="cls-11" d="M504.606,295.7a2.495,2.495,0,1,0-2.494,2.5,2.495,2.495,0,0,0,2.494-2.5Z" transform="translate(-452 -238.625)"/>
    <path class="cls-11" d="M497.526,291.14a2.495,2.495,0,1,0-2.494,2.5,2.495,2.495,0,0,0,2.494-2.5Z" transform="translate(-452 -238.625)"/>
    <path class="cls-11" d="M490.326,288.62a2.495,2.495,0,1,0-2.494,2.5,2.495,2.495,0,0,0,2.494-2.5Z" transform="translate(-452 -238.625)"/>
    <path class="cls-11" d="M483.246,291.14a2.495,2.495,0,1,0-2.494,2.5,2.495,2.495,0,0,0,2.494-2.5Z" transform="translate(-452 -238.625)"/>
    <path class="cls-11" d="M476.166,295.7a2.495,2.495,0,1,0-2.494,2.5,2.495,2.495,0,0,0,2.494-2.5Z" transform="translate(-452 -238.625)"/>
    <line class="cls-12" x1="255.542" y1="71.291" x2="241.369" y2="71.291"/>
    <line class="cls-13" x1="411.447" y1="71.291" x2="397.273" y2="71.291"/>
    <path class="cls-2" d="M707.542,313.459v-7.086m141.731,7.086v-7.086" transform="translate(-452 -238.625)"/>
    <path class="cls-3" d="M848.359,321.189c-.129.5-.129.518-.268.977-.119.368-.2.647-.5.647a.271.271,0,0,1-.289-.269c0-.069,0-.089.08-.239a21.075,21.075,0,0,0,1.275-3.318h-.568a1.4,1.4,0,0,0-1.266.767c-.059.08-.079.12-.159.12-.12,0-.12-.09-.12-.1a3.608,3.608,0,0,1,.608-.9,1.269,1.269,0,0,1,1.036-.468h3.338c.19,0,.4,0,.4.239,0,.339-.359.339-.489.339H850.3a7.692,7.692,0,0,0-.18,1.584,4.283,4.283,0,0,0,.289,1.644.429.429,0,0,1,.061.22.421.421,0,0,1-.41.378c-.149,0-.258-.06-.358-.5a3.131,3.131,0,0,1-.08-.757,10.952,10.952,0,0,1,.419-2.571h-1.126Z" transform="translate(-452 -238.625)"/>
    <path class="cls-3" d="M701.891,320.771c-.169,0-.349,0-.349-.2s.18-.2.349-.2h5.39c.169,0,.349,0,.349.2s-.18.2-.349.2Z" transform="translate(-452 -238.625)"/>
    <path class="cls-3" d="M710.594,321.548c-.129.5-.129.518-.269.977-.119.369-.2.647-.5.647a.27.27,0,0,1-.289-.268c0-.07,0-.09.08-.239a21.185,21.185,0,0,0,1.276-3.319h-.569a1.4,1.4,0,0,0-1.265.768c-.06.079-.08.119-.16.119-.12,0-.12-.089-.12-.1a3.556,3.556,0,0,1,.609-.9,1.267,1.267,0,0,1,1.036-.468h3.338c.189,0,.4,0,.4.239,0,.338-.358.338-.488.338h-1.136a7.779,7.779,0,0,0-.18,1.585,4.288,4.288,0,0,0,.289,1.644.388.388,0,0,1-.348.6c-.15,0-.259-.059-.359-.5a3.131,3.131,0,0,1-.08-.757,10.959,10.959,0,0,1,.419-2.571h-1.126Z" transform="translate(-452 -238.625)"/>
    <path class="cls-2" d="M707.542,391.412v-7.087m141.731,7.087v-7.087" transform="translate(-452 -238.625)"/>
    <path class="cls-3" d="M848.359,399.182c-.129.5-.129.518-.268.976-.119.369-.2.648-.5.648a.27.27,0,0,1-.289-.269c0-.07,0-.09.08-.239a21.051,21.051,0,0,0,1.275-3.319h-.568a1.4,1.4,0,0,0-1.266.768c-.059.08-.079.119-.159.119-.12,0-.12-.09-.12-.1a3.589,3.589,0,0,1,.608-.9,1.267,1.267,0,0,1,1.036-.469h3.338c.19,0,.4,0,.4.24,0,.338-.359.338-.489.338H850.3a7.71,7.71,0,0,0-.18,1.585,4.285,4.285,0,0,0,.289,1.644.427.427,0,0,1,.061.22.421.421,0,0,1-.41.378c-.149,0-.258-.06-.358-.5a3.131,3.131,0,0,1-.08-.757,10.958,10.958,0,0,1,.419-2.572h-1.126Z" transform="translate(-452 -238.625)"/>
    <path class="cls-3" d="M701.891,398.771c-.169,0-.349,0-.349-.2s.18-.2.349-.2h5.39c.169,0,.349,0,.349.2s-.18.2-.349.2Z" transform="translate(-452 -238.625)"/>
    <path class="cls-3" d="M710.594,399.549c-.129.5-.129.518-.269.976-.119.37-.2.648-.5.648a.27.27,0,0,1-.289-.269c0-.07,0-.09.08-.239a21.171,21.171,0,0,0,1.276-3.318h-.569a1.4,1.4,0,0,0-1.265.767c-.06.08-.08.119-.16.119-.12,0-.12-.089-.12-.1a3.575,3.575,0,0,1,.609-.9,1.267,1.267,0,0,1,1.036-.468h3.338c.189,0,.4,0,.4.239,0,.339-.358.339-.488.339h-1.136a7.764,7.764,0,0,0-.18,1.585,4.284,4.284,0,0,0,.289,1.643.427.427,0,0,1,.061.22.42.42,0,0,1-.409.378c-.15,0-.259-.06-.359-.5a3.131,3.131,0,0,1-.08-.757,10.944,10.944,0,0,1,.419-2.571h-1.126Z" transform="translate(-452 -238.625)"/>
    <path class="cls-9" d="M828.014,501.254V451.648m0,0H799.667m0,0v49.606m-42.519,0V451.648m0,0H728.8m0,0v49.606" transform="translate(-452 -238.625)"/>
    <path class="cls-2" d="M707.542,504.8V497.71M849.273,504.8V497.71" transform="translate(-452 -238.625)"/>
    <path class="cls-3" d="M848.359,512.463c-.129.5-.129.518-.268.976-.119.37-.2.648-.5.648a.27.27,0,0,1-.289-.269c0-.07,0-.089.08-.239a21.075,21.075,0,0,0,1.275-3.318h-.568a1.4,1.4,0,0,0-1.266.767c-.059.08-.079.119-.159.119-.12,0-.12-.089-.12-.1a3.589,3.589,0,0,1,.608-.9,1.269,1.269,0,0,1,1.036-.468h3.338c.19,0,.4,0,.4.239,0,.339-.359.339-.489.339H850.3a7.694,7.694,0,0,0-.18,1.585,4.284,4.284,0,0,0,.289,1.643.427.427,0,0,1,.061.22.421.421,0,0,1-.41.378c-.149,0-.258-.06-.358-.5a3.131,3.131,0,0,1-.08-.757,10.944,10.944,0,0,1,.419-2.571h-1.126Z" transform="translate(-452 -238.625)"/>
    <path class="cls-3" d="M701.891,512.053c-.169,0-.349,0-.349-.2s.18-.2.349-.2h5.39c.169,0,.349,0,.349.2s-.18.2-.349.2Z" transform="translate(-452 -238.625)"/>
    <path class="cls-3" d="M710.594,512.83c-.129.5-.129.519-.269.977-.119.369-.2.647-.5.647a.27.27,0,0,1-.289-.268c0-.071,0-.09.08-.24a21.171,21.171,0,0,0,1.276-3.318h-.569a1.4,1.4,0,0,0-1.265.768c-.06.08-.08.119-.16.119-.12,0-.12-.09-.12-.1a3.559,3.559,0,0,1,.609-.9,1.265,1.265,0,0,1,1.036-.469h3.338c.189,0,.4,0,.4.239,0,.339-.358.339-.488.339h-1.136a7.772,7.772,0,0,0-.18,1.585,4.281,4.281,0,0,0,.289,1.643.429.429,0,0,1,.061.22.42.42,0,0,1-.409.378c-.15,0-.259-.059-.359-.5a3.127,3.127,0,0,1-.08-.757,10.952,10.952,0,0,1,.419-2.571h-1.126Z" transform="translate(-452 -238.625)"/>
    <line class="cls-13" x1="411.447" y1="262.629" x2="397.273" y2="262.629"/>
    <line class="cls-12" x1="255.542" y1="262.629" x2="241.369" y2="262.629"/>
    <line class="cls-13" x1="411.447" y1="149.243" x2="397.273" y2="149.243"/>
    <line class="cls-14" x1="251.999" y1="149.243" x2="237.825" y2="149.243"/>
    <path class="cls-9" d="M558.724,373.7v-21.26m7.086,21.26V359.522m14.174,28.346V373.7m7.086,0v21.26m7.087-21.26v14.173m14.173-28.346V373.7m7.086-21.26V373.7m7.087,0V359.522m14.173,28.346V373.7m7.087,21.26V373.7m7.086,14.173V373.7m-99.212,0V359.522m-14.173,28.346V373.7m-7.086,0v21.26m-7.087-21.26v14.173m-14.173-28.346V373.7m-7.087-21.26V373.7m-7.086,0V359.522m-14.174,28.346V373.7m-7.086,21.26V373.7M466.6,387.868V373.7" transform="translate(-452 -238.625)"/>
    <path class="cls-11" d="M469.086,387.86a2.495,2.495,0,1,0-2.494,2.5,2.495,2.495,0,0,0,2.494-2.5Z" transform="translate(-452 -238.625)"/>
    <path class="cls-11" d="M476.166,394.94a2.495,2.495,0,1,0-2.494,2.5,2.495,2.495,0,0,0,2.494-2.5Z" transform="translate(-452 -238.625)"/>
    <path class="cls-11" d="M483.246,387.86a2.495,2.495,0,1,0-2.494,2.5,2.495,2.495,0,0,0,2.494-2.5Z" transform="translate(-452 -238.625)"/>
    <path class="cls-11" d="M497.526,359.54a2.495,2.495,0,1,0-2.494,2.5,2.495,2.495,0,0,0,2.494-2.5Z" transform="translate(-452 -238.625)"/>
    <path class="cls-11" d="M504.606,351.38a2.495,2.495,0,1,0-2.494,2.5,2.495,2.495,0,0,0,2.494-2.5Z" transform="translate(-452 -238.625)"/>
    <path class="cls-11" d="M511.686,359.54a2.495,2.495,0,1,0-2.494,2.5,2.495,2.495,0,0,0,2.494-2.5Z" transform="translate(-452 -238.625)"/>
    <path class="cls-11" d="M518.766,373.7a2.495,2.495,0,1,0-2.494,2.5,2.495,2.495,0,0,0,2.494-2.5Z" transform="translate(-452 -238.625)"/>
    <path class="cls-11" d="M525.846,387.86a2.495,2.495,0,1,0-2.494,2.5,2.495,2.495,0,0,0,2.494-2.5Z" transform="translate(-452 -238.625)"/>
    <path class="cls-11" d="M532.926,394.94a2.495,2.495,0,1,0-2.494,2.5,2.495,2.495,0,0,0,2.494-2.5Z" transform="translate(-452 -238.625)"/>
    <path class="cls-11" d="M540.006,387.86a2.495,2.495,0,1,0-2.494,2.5,2.495,2.495,0,0,0,2.494-2.5Z" transform="translate(-452 -238.625)"/>
    <path class="cls-11" d="M547.086,373.7a2.495,2.495,0,1,0-2.494,2.5,2.495,2.495,0,0,0,2.494-2.5Z" transform="translate(-452 -238.625)"/>
    <path class="cls-11" d="M554.166,359.54a2.495,2.495,0,1,0-2.494,2.5,2.495,2.495,0,0,0,2.494-2.5Z" transform="translate(-452 -238.625)"/>
    <path class="cls-11" d="M561.246,352.46a2.495,2.495,0,1,0-2.494,2.5,2.495,2.495,0,0,0,2.494-2.5Z" transform="translate(-452 -238.625)"/>
    <path class="cls-11" d="M575.406,373.7a2.495,2.495,0,1,0-2.494,2.5,2.495,2.495,0,0,0,2.494-2.5Z" transform="translate(-452 -238.625)"/>
    <path class="cls-11" d="M582.486,388.94a2.495,2.495,0,1,0-2.494,2.5,2.495,2.495,0,0,0,2.494-2.5Z" transform="translate(-452 -238.625)"/>
    <path class="cls-11" d="M589.566,394.94a2.495,2.495,0,1,0-2.494,2.5,2.495,2.495,0,0,0,2.494-2.5Z" transform="translate(-452 -238.625)"/>
    <path class="cls-11" d="M596.646,387.86a2.495,2.495,0,1,0-2.494,2.5,2.495,2.495,0,0,0,2.494-2.5Z" transform="translate(-452 -238.625)"/>
    <path class="cls-11" d="M603.726,373.7a2.495,2.495,0,1,0-2.494,2.5,2.495,2.495,0,0,0,2.494-2.5Z" transform="translate(-452 -238.625)"/>
    <path class="cls-11" d="M610.806,359.54a2.495,2.495,0,1,0-2.494,2.5,2.495,2.495,0,0,0,2.494-2.5Z" transform="translate(-452 -238.625)"/>
    <path class="cls-11" d="M617.886,352.46a2.495,2.495,0,1,0-2.494,2.5,2.495,2.495,0,0,0,2.494-2.5Z" transform="translate(-452 -238.625)"/>
    <path class="cls-11" d="M632.166,373.7a2.495,2.495,0,1,0-2.494,2.5,2.495,2.495,0,0,0,2.494-2.5Z" transform="translate(-452 -238.625)"/>
    <path class="cls-11" d="M625.086,359.54a2.495,2.495,0,1,0-2.494,2.5,2.495,2.495,0,0,0,2.494-2.5Z" transform="translate(-452 -238.625)"/>
    <path class="cls-11" d="M639.246,387.86a2.495,2.495,0,1,0-2.494,2.5,2.495,2.495,0,0,0,2.494-2.5Z" transform="translate(-452 -238.625)"/>
    <path class="cls-11" d="M646.326,394.94a2.495,2.495,0,1,0-2.494,2.5,2.495,2.495,0,0,0,2.494-2.5Z" transform="translate(-452 -238.625)"/>
    <path class="cls-11" d="M653.406,387.86a2.495,2.495,0,1,0-2.494,2.5,2.495,2.495,0,0,0,2.494-2.5Z" transform="translate(-452 -238.625)"/>
    <path class="cls-3" d="M793.407,323.407c-.907,0-1.2-1.106-1.2-2.043,0-2.281,1.534-5.091,2.919-5.091,1.016,0,1.2,1.385,1.2,2.042C796.326,320.547,794.813,323.407,793.407,323.407ZM793.188,320a7.625,7.625,0,0,0-.319,1.972c0,.927.209,1.216.538,1.216.429,0,.807-.488,1.156-1.166a8.995,8.995,0,0,0,.7-2.022Zm2.163-.319a8.313,8.313,0,0,0,.318-1.983c0-.568-.06-1.206-.548-1.206-.448,0-.817.558-1.086,1.046a9.054,9.054,0,0,0-.767,2.143Z" transform="translate(-452 -238.625)"/>
    <path class="cls-3" d="M798.92,321.863a1.276,1.276,0,0,0-.976.537,2.883,2.883,0,0,0-.461,1.443.691.691,0,0,0,.726.774,1.976,1.976,0,0,0,1.485-.641c.056-.056.07-.07.112-.07a.149.149,0,0,1,.119.118,1.889,1.889,0,0,1-1.73.789,1.2,1.2,0,0,1-1.29-1.214,2.091,2.091,0,0,1,2.015-1.932c.377,0,.921.133.921.607a.408.408,0,0,1-.4.446.25.25,0,0,1-.272-.258.4.4,0,0,1,.356-.39A.866.866,0,0,0,798.92,321.863Z" transform="translate(-452 -238.625)"/>
    <path class="cls-3" d="M753.609,321.006c-.169,0-.348,0-.348-.2s.179-.2.348-.2H759c.169,0,.349,0,.349.2s-.18.2-.349.2Z" transform="translate(-452 -238.625)"/>
    <path class="cls-3" d="M761.845,323.407c-.907,0-1.2-1.106-1.2-2.043,0-2.281,1.535-5.091,2.919-5.091,1.017,0,1.2,1.385,1.2,2.042C764.764,320.547,763.25,323.407,761.845,323.407Zm-.22-3.407a7.611,7.611,0,0,0-.318,1.972c0,.927.209,1.216.538,1.216.428,0,.806-.488,1.155-1.166a8.9,8.9,0,0,0,.7-2.022Zm2.163-.319a8.313,8.313,0,0,0,.318-1.983c0-.568-.059-1.206-.547-1.206-.449,0-.818.558-1.086,1.046a9.015,9.015,0,0,0-.768,2.143Z" transform="translate(-452 -238.625)"/>
    <path class="cls-3" d="M767.357,321.863a1.274,1.274,0,0,0-.975.537,2.883,2.883,0,0,0-.461,1.443.691.691,0,0,0,.725.774,1.977,1.977,0,0,0,1.486-.641c.056-.056.069-.07.111-.07a.148.148,0,0,1,.119.118,1.886,1.886,0,0,1-1.729.789,1.2,1.2,0,0,1-1.29-1.214,2.091,2.091,0,0,1,2.014-1.932c.377,0,.921.133.921.607a.407.407,0,0,1-.4.446.251.251,0,0,1-.273-.258.4.4,0,0,1,.357-.39A.869.869,0,0,0,767.357,321.863Z" transform="translate(-452 -238.625)"/>
    <line class="cls-9" x1="106.724" y1="241.369" x2="106.724" y2="198.849"/>
    <path class="cls-11" d="M575.406,480.02a2.495,2.495,0,1,0-2.494,2.5,2.495,2.495,0,0,0,2.494-2.5Z" transform="translate(-452 -238.625)"/>
    <path class="cls-11" d="M547.086,480.02a2.495,2.495,0,1,0-2.494,2.5,2.495,2.495,0,0,0,2.494-2.5Z" transform="translate(-452 -238.625)"/>
    <path class="cls-11" d="M589.566,480.02a2.495,2.495,0,1,0-2.494,2.5,2.495,2.495,0,0,0,2.494-2.5Z" transform="translate(-452 -238.625)"/>
    <path class="cls-11" d="M617.886,480.02a2.495,2.495,0,1,0-2.494,2.5,2.495,2.495,0,0,0,2.494-2.5Z" transform="translate(-452 -238.625)"/>
    <path class="cls-11" d="M532.926,480.02a2.495,2.495,0,1,0-2.494,2.5,2.495,2.495,0,0,0,2.494-2.5Z" transform="translate(-452 -238.625)"/>
    <path class="cls-11" d="M504.606,480.02a2.495,2.495,0,1,0-2.494,2.5,2.495,2.495,0,0,0,2.494-2.5Z" transform="translate(-452 -238.625)"/>
    <path class="cls-11" d="M477.22,480.62a2.948,2.948,0,1,0-2.948,2.948,2.949,2.949,0,0,0,2.948-2.948Z" transform="translate(-452 -238.625)"/>
    <path class="cls-11" d="M646.326,480.02a2.495,2.495,0,1,0-2.494,2.5,2.495,2.495,0,0,0,2.494-2.5Z" transform="translate(-452 -238.625)"/>
    <path class="cls-15" d="M466.6,387.868s3.746,7.087,7.087,7.087,5.067-4.285,7.086-7.087c3.194-4.43,4.642-9.282,7.087-14.173s3.893-9.743,7.087-14.173c2.019-2.8,3.746-7.087,7.086-7.087s5.067,4.285,7.087,7.087c3.193,4.43,4.641,9.282,7.086,14.173s3.894,9.743,7.087,14.173c2.02,2.8,3.746,7.087,7.087,7.087s5.067-4.285,7.086-7.087c3.193-4.43,4.641-9.282,7.087-14.173s3.893-9.743,7.086-14.173c2.02-2.8,3.746-7.087,7.087-7.087s5.067,4.285,7.086,7.087c3.194,4.43,4.641,9.282,7.087,14.173s3.893,9.743,7.087,14.173c2.019,2.8,3.745,7.087,7.086,7.087s5.067-4.285,7.087-7.087c3.193-4.43,4.641-9.282,7.086-14.173s3.894-9.743,7.087-14.173c2.019-2.8,3.746-7.087,7.086-7.087s5.067,4.285,7.087,7.087c3.193,4.43,4.641,9.282,7.087,14.173s3.893,9.743,7.086,14.173c2.02,2.8,3.746,7.087,7.087,7.087s7.086-7.087,7.086-7.087h0" transform="translate(-452 -238.625)"/>
    <path class="cls-11" d="M603.726,480.02a2.495,2.495,0,1,0-2.494,2.5,2.495,2.495,0,0,0,2.494-2.5Z" transform="translate(-452 -238.625)"/>
    <path class="cls-11" d="M632.166,480.02a2.495,2.495,0,1,0-2.494,2.5,2.495,2.495,0,0,0,2.494-2.5Z" transform="translate(-452 -238.625)"/>
    <path class="cls-11" d="M518.766,480.02a2.495,2.495,0,1,0-2.494,2.5,2.495,2.495,0,0,0,2.494-2.5Z" transform="translate(-452 -238.625)"/>
    <path class="cls-11" d="M490.326,480.02a2.495,2.495,0,1,0-2.494,2.5,2.495,2.495,0,0,0,2.494-2.5Z" transform="translate(-452 -238.625)"/>
    <path class="cls-11" d="M568.326,359.54a2.495,2.495,0,1,0-2.494,2.5,2.495,2.495,0,0,0,2.494-2.5Z" transform="translate(-452 -238.625)"/>
    <path class="cls-11" d="M490.326,373.7a2.495,2.495,0,1,0-2.494,2.5,2.495,2.495,0,0,0,2.494-2.5Z" transform="translate(-452 -238.625)"/>
    <path class="cls-11" d="M561.246,437.54a2.495,2.495,0,1,0-2.494,2.5,2.495,2.495,0,0,0,2.494-2.5Z" transform="translate(-452 -238.625)"/>
    <path class="cls-9" d="M565.81,479.994V451.648m-14.173,28.346V451.648m28.347,28.346v10.63m-42.52-10.63v10.63m56.693-10.63v-7.087m-70.866,7.087v-7.087m85.039,7.087v3.543m-99.212-3.543v3.543m-14.173-3.543v-3.543M622.5,479.994v-3.543" transform="translate(-452 -238.625)"/>
    <path class="cls-2" d="M480.771,479.994v3.543m155.905-3.543v3.543" transform="translate(-452 -238.625)"/>
    <path class="cls-11" d="M568.326,451.7a2.495,2.495,0,1,0-2.494,2.5,2.495,2.495,0,0,0,2.494-2.5Z" transform="translate(-452 -238.625)"/>
    <path class="cls-11" d="M554.166,451.7a2.495,2.495,0,1,0-2.494,2.5,2.495,2.495,0,0,0,2.494-2.5Z" transform="translate(-452 -238.625)"/>
    <path class="cls-11" d="M582.486,491.66a2.495,2.495,0,1,0-2.494,2.495,2.495,2.495,0,0,0,2.494-2.495Z" transform="translate(-452 -238.625)"/>
    <path class="cls-11" d="M537.512,489.166a2.495,2.495,0,1,0,2.494,2.494,2.5,2.5,0,0,0-2.494-2.494Z" transform="translate(-452 -238.625)"/>
    <path class="cls-11" d="M596.646,472.94a2.495,2.495,0,1,0-2.494,2.5,2.495,2.495,0,0,0,2.494-2.5Z" transform="translate(-452 -238.625)"/>
    <path class="cls-11" d="M525.846,472.94a2.495,2.495,0,1,0-2.494,2.5,2.495,2.495,0,0,0,2.494-2.5Z" transform="translate(-452 -238.625)"/>
    <path class="cls-11" d="M610.806,485.3a2.495,2.495,0,1,0-2.494,2.5,2.495,2.495,0,0,0,2.494-2.5Z" transform="translate(-452 -238.625)"/>
    <path class="cls-11" d="M511.686,485.3a2.495,2.495,0,1,0-2.494,2.5,2.495,2.495,0,0,0,2.494-2.5Z" transform="translate(-452 -238.625)"/>
    <path class="cls-11" d="M625.086,475.7a2.495,2.495,0,1,0-2.494,2.5,2.495,2.495,0,0,0,2.494-2.5Z" transform="translate(-452 -238.625)"/>
    <path class="cls-11" d="M497.526,475.7a2.495,2.495,0,1,0-2.494,2.5,2.495,2.495,0,0,0,2.494-2.5Z" transform="translate(-452 -238.625)"/>
    <path class="cls-11" d="M483.246,481.82a2.495,2.495,0,1,0-2.494,2.5,2.495,2.495,0,0,0,2.494-2.5Z" transform="translate(-452 -238.625)"/>
    <path class="cls-11" d="M639.246,481.82a2.495,2.495,0,1,0-2.494,2.5,2.495,2.495,0,0,0,2.494-2.5Z" transform="translate(-452 -238.625)"/>
  </g>
</svg>
