<svg id="Layer_1" data-name="Layer 1" xmlns="http://www.w3.org/2000/svg" viewBox="0 0 390.755 176.456">
  <defs>
    <style>
      .cls-1, .cls-3, .cls-5, .cls-6, .cls-7, .cls-8, .cls-9 {
        fill: none;
      }

      .cls-1, .cls-3, .cls-4, .cls-5, .cls-6, .cls-7, .cls-8, .cls-9 {
        stroke: #000;
        stroke-miterlimit: 10;
      }

      .cls-1, .cls-4 {
        stroke-width: 0.85px;
      }

      .cls-2 {
        fill: #1d1d1b;
      }

      .cls-3, .cls-5, .cls-6, .cls-7, .cls-8 {
        stroke-width: 2.268px;
      }

      .cls-5, .cls-6, .cls-7, .cls-8 {
        stroke-linecap: round;
      }

      .cls-5 {
        stroke-dasharray: 0 7.512;
      }

      .cls-6 {
        stroke-dasharray: 0 7.512;
      }

      .cls-7 {
        stroke-dasharray: 0 7.356;
      }

      .cls-8 {
        stroke-dasharray: 0 7.356;
      }

      .cls-9 {
        stroke-width: 0.283px;
      }
    </style>
  </defs>
  <title>FTDshiftednegDelta</title>
  <g>
    <path class="cls-1" d="M657.64,388.7a2.495,2.495,0,1,0-2.5,2.5,2.5,2.5,0,0,0,2.5-2.5Zm1-.022h14.174m6.068.022a2.495,2.495,0,1,0-2.5,2.5,2.5,2.5,0,0,0,2.5-2.5Z" transform="translate(-483.968 -293.717)"/>
    <g>
      <path class="cls-2" d="M660.549,380.72h-.468c-.15-1.166-.379-1.933-1.983-1.933H656.7v2.68h.5c.966,0,1.046-.428,1.046-1.165h.468v2.8h-.468c0-.738-.089-1.166-1.046-1.166h-.5v2.69h1.345v.469c-.439-.031-1.525-.031-2.013-.031-.438,0-1.445,0-1.823.031v-.469h1.076v-5.839h-1.076v-.468h6.028Z" transform="translate(-483.968 -293.717)"/>
      <path class="cls-2" d="M668.569,380.77H668.1c-.1-1.136-.2-1.933-1.624-1.933h-.758v5.789h1.525v.469c-.538-.031-1.644-.031-2.232-.031s-1.694,0-2.232.031v-.469h1.525v-5.789h-.768c-1.434,0-1.534.807-1.624,1.933h-.468l.209-2.4h6.706Z" transform="translate(-483.968 -293.717)"/>
    </g>
    <path class="cls-2" d="M669.337,378.727v-.468h4.285a3.281,3.281,0,0,1,3.467,3.477,3.216,3.216,0,0,1-3.458,3.359h-4.294v-.469h1.076v-5.9Zm3.886,5.9a2.371,2.371,0,0,0,1.963-.837,3.3,3.3,0,0,0,.438-2.062,3.682,3.682,0,0,0-.428-2.113,2.341,2.341,0,0,0-1.973-.887h-1.455v5.9Z" transform="translate(-483.968 -293.717)"/>
    <path class="cls-2" d="M637.762,412.814a3.189,3.189,0,0,0,.16-.836c0-.33-.11-.458-.309-.458-.359,0-.558.477-.727,1.185-.06.219-.07.23-.17.23-.02,0-.119,0-.119-.1a4.983,4.983,0,0,1,.3-.967.868.868,0,0,1,.747-.568.9.9,0,0,1,.917.867,1.924,1.924,0,0,1,1.554-.867,1.018,1.018,0,0,1,1.146,1.066,8.989,8.989,0,0,1-.608,2.193,1.887,1.887,0,0,0-.179.707c0,.229.069.329.239.329.488,0,.817-.559,1.016-1.236.05-.149.05-.179.149-.179.03,0,.12,0,.12.1,0,.08-.369,1.534-1.3,1.534a.8.8,0,0,1-.817-.816,1.136,1.136,0,0,1,.1-.459,9.5,9.5,0,0,0,.647-2.321c0-.329-.09-.7-.538-.7a1.981,1.981,0,0,0-1.624,1.214c-.01.04-.09.329-.13.5-.05.229-.109.449-.169.667l-.219.9c-.06.249-.18.717-.19.737a.405.405,0,0,1-.368.278.266.266,0,0,1-.289-.268c0-.05.06-.279.09-.429Z" transform="translate(-483.968 -293.717)"/>
    <polyline points="76.677 60.52 74.409 55.984 72.141 60.52 74.409 59.386"/>
    <path class="cls-1" d="M558.378,417.024V353.1m-13.125,60.378h7.087" transform="translate(-483.968 -293.717)"/>
    <polyline points="144.283 122.031 148.818 119.764 144.283 117.496 145.417 119.764"/>
    <line class="cls-1" y1="119.764" x2="145.417" y2="119.764"/>
    <path class="cls-2" d="M557.6,426.408a1.864,1.864,0,0,1-3.378.15,5.045,5.045,0,0,1-.449-2.4,5.321,5.321,0,0,1,.369-2.261,1.827,1.827,0,0,1,1.734-1.186,1.848,1.848,0,0,1,1.694,1.115,7.052,7.052,0,0,1,.03,4.584Zm-.568-.308a12.418,12.418,0,0,0,.109-2.063,12.2,12.2,0,0,0-.1-1.943c-.189-.987-.846-1.166-1.175-1.166-.249,0-1,.09-1.186,1.275a13.491,13.491,0,0,0-.079,1.834,13.651,13.651,0,0,0,.109,2.1c.179.957.767,1.206,1.156,1.206C556.315,427.345,556.883,427.046,557.033,426.1Z" transform="translate(-483.968 -293.717)"/>
    <path class="cls-2" d="M569.4,352.221a2.627,2.627,0,0,1-2.331,2.033.942.942,0,0,1-1.056-.867.574.574,0,0,1,.558-.647.339.339,0,0,1,.369.348.541.541,0,0,1-.2.409.57.57,0,0,1-.428.119.8.8,0,0,0,.757.419,1.427,1.427,0,0,0,1.1-.628,3.826,3.826,0,0,0,.648-1.534,1.408,1.408,0,0,1-1.007.448,1.111,1.111,0,0,1-1.215-1.186,6.562,6.562,0,0,1,.578-2.092,2.123,2.123,0,0,0,.169-.7c0-.319-.169-.319-.249-.319-.339,0-.737.3-1.006,1.236-.05.159-.06.179-.16.179-.02,0-.119,0-.119-.1s.368-1.535,1.315-1.535a.791.791,0,0,1,.817.818,1.806,1.806,0,0,1-.2.717,5.934,5.934,0,0,0-.508,1.953c0,.369.109.807.617.807a1.387,1.387,0,0,0,1.126-.847l.449-1.794c.06-.269.129-.538.2-.8.04-.179.119-.488.139-.538a.434.434,0,0,1,.349-.209.267.267,0,0,1,.289.269.622.622,0,0,1-.04.229Z" transform="translate(-483.968 -293.717)"/>
    <path class="cls-2" d="M571.96,354.7v-9.965h1.365v.4h-.967V354.3h.967v.4Z" transform="translate(-483.968 -293.717)"/>
    <path class="cls-2" d="M575,349.322a3.227,3.227,0,0,0,.159-.837c0-.329-.11-.459-.309-.459-.358,0-.558.479-.727,1.186-.06.22-.07.229-.169.229-.02,0-.12,0-.12-.1a4.983,4.983,0,0,1,.3-.967.87.87,0,0,1,.747-.568.9.9,0,0,1,.917.867,1.926,1.926,0,0,1,1.554-.867,1.019,1.019,0,0,1,1.146,1.067,8.93,8.93,0,0,1-.608,2.191,1.9,1.9,0,0,0-.179.708c0,.229.07.329.239.329.488,0,.817-.558,1.016-1.236.05-.149.05-.179.15-.179.03,0,.119,0,.119.1,0,.079-.368,1.534-1.3,1.534a.8.8,0,0,1-.817-.817,1.139,1.139,0,0,1,.1-.459,9.5,9.5,0,0,0,.647-2.321c0-.329-.089-.7-.538-.7a1.984,1.984,0,0,0-1.624,1.216c-.01.04-.09.329-.13.5-.049.23-.109.449-.168.668l-.22.9c-.06.249-.179.717-.189.737a.408.408,0,0,1-.369.279.267.267,0,0,1-.289-.269c0-.05.06-.279.09-.428Z" transform="translate(-483.968 -293.717)"/>
    <g>
      <path class="cls-2" d="M581.126,354.7h-1.365v-.4h.967v-9.167h-.967v-.4h1.365Z" transform="translate(-483.968 -293.717)"/>
      <path class="cls-2" d="M585.958,348.953c-.149,0-.338,0-.338-.2s.189-.2.328-.2h5.969c.139,0,.329,0,.329.2s-.19.2-.339.2Zm-.01,1.933c-.139,0-.328,0-.328-.2s.189-.2.338-.2h5.949c.149,0,.339,0,.339.2s-.19.2-.329.2Z" transform="translate(-483.968 -293.717)"/>
    </g>
    <path class="cls-2" d="M597.536,346.153c0-.6.359-1.026,1.135-1.026a3.3,3.3,0,0,1,.817.11c.359.079.519.109.519.328a.419.419,0,0,1-.4.4,1.369,1.369,0,0,1-.548-.249,1.2,1.2,0,0,0-.707-.269.5.5,0,0,0-.548.458,3.928,3.928,0,0,0,.946,1.634,2.8,2.8,0,0,1,.737,1.854c0,1.375-.826,2.939-1.992,2.939a1.567,1.567,0,0,1-1.575-1.674,3.046,3.046,0,0,1,2.212-2.8A4.088,4.088,0,0,1,597.536,346.153Zm-1,4.783c0,.757.409,1.176.957,1.176.926,0,1.305-1.664,1.305-2.322a3.461,3.461,0,0,0-.548-1.714C596.908,348.435,596.539,350.308,596.539,350.936Z" transform="translate(-483.968 -293.717)"/>
    <path class="cls-2" d="M601.476,354.7v-9.965h1.365v.4h-.967V354.3h.967v.4Z" transform="translate(-483.968 -293.717)"/>
    <path class="cls-2" d="M604.512,349.322a3.2,3.2,0,0,0,.16-.837c0-.329-.11-.459-.309-.459-.359,0-.558.479-.727,1.186-.06.22-.07.229-.17.229-.02,0-.119,0-.119-.1a4.983,4.983,0,0,1,.3-.967.87.87,0,0,1,.747-.568.9.9,0,0,1,.917.867,1.924,1.924,0,0,1,1.554-.867,1.019,1.019,0,0,1,1.146,1.067,8.974,8.974,0,0,1-.608,2.191,1.9,1.9,0,0,0-.179.708c0,.229.069.329.239.329.488,0,.817-.558,1.016-1.236.05-.149.05-.179.149-.179.03,0,.12,0,.12.1,0,.079-.369,1.534-1.3,1.534a.8.8,0,0,1-.817-.817,1.139,1.139,0,0,1,.1-.459,9.5,9.5,0,0,0,.647-2.321c0-.329-.09-.7-.538-.7a1.981,1.981,0,0,0-1.624,1.216c-.01.04-.09.329-.13.5-.05.23-.109.449-.169.668l-.219.9c-.06.249-.18.717-.19.737a.407.407,0,0,1-.368.279.266.266,0,0,1-.289-.269c0-.05.06-.279.09-.428Z" transform="translate(-483.968 -293.717)"/>
    <g>
      <path class="cls-2" d="M615.414,352.709c0,.14,0,.33-.2.33s-.2-.19-.2-.33V349.92h-2.79c-.14,0-.329,0-.329-.2s.189-.2.329-.2h2.79v-2.79c0-.139,0-.329.2-.329s.2.19.2.329v2.79h2.78c.139,0,.329,0,.329.2s-.19.2-.329.2h-2.78Z" transform="translate(-483.968 -293.717)"/>
      <path class="cls-2" d="M624.36,351.444a3.237,3.237,0,0,0,.947-.08,3.3,3.3,0,0,0,.219-.886h.249l-.279,1.733h-3.7c0-.239,0-.259.11-.368l1.913-2.133a3.565,3.565,0,0,0,1.046-2.2c0-.817-.428-1.624-1.335-1.624a1.437,1.437,0,0,0-1.345,1.016.417.417,0,0,1,.129-.009.5.5,0,0,1,.529.518.524.524,0,1,1-1.047-.03,1.842,1.842,0,0,1,1.864-1.8,1.958,1.958,0,0,1,2.112,1.933c0,1-.6,1.535-2.152,2.91l-1.056,1.026Z" transform="translate(-483.968 -293.717)"/>
    </g>
    <path class="cls-2" d="M627.923,354.7h-1.365v-.4h.966v-9.167h-.966v-.4h1.365Z" transform="translate(-483.968 -293.717)"/>
    <line class="cls-3" x1="31.89" y1="70.158" x2="31.89" y2="119.764"/>
    <path class="cls-2" d="M548.276,366.315c0,.369.03.478.927.478h.318v.309c-.348-.03-1.215-.03-1.614-.03s-1.265,0-1.614.03v-.309h.319c.9,0,.927-.119.927-.478v-5.162a2.976,2.976,0,0,1-1.306.26V361.1a2.462,2.462,0,0,0,1.814-.638c.229,0,.229.02.229.259Z" transform="translate(-483.968 -293.717)"/>
    <line class="cls-1" x1="70.866" y1="70.158" x2="77.952" y2="70.158"/>
    <path class="cls-2" d="M601.445,426.577a3.272,3.272,0,0,0,.946-.079,3.233,3.233,0,0,0,.219-.887h.249l-.278,1.734h-3.7c0-.24,0-.259.11-.369l1.913-2.132a3.573,3.573,0,0,0,1.046-2.2c0-.818-.429-1.624-1.335-1.624a1.439,1.439,0,0,0-1.346,1.016.381.381,0,0,1,.13-.01.5.5,0,0,1,.528.518.524.524,0,1,1-1.046-.03,1.84,1.84,0,0,1,1.863-1.8,1.957,1.957,0,0,1,2.112,1.933c0,1-.6,1.534-2.151,2.909l-1.057,1.026Z" transform="translate(-483.968 -293.717)"/>
    <path class="cls-4" d="M518.44,363.98a2.495,2.495,0,1,0-2.5,2.5,2.5,2.5,0,0,0,2.5-2.5Z" transform="translate(-483.968 -293.717)"/>
    <path class="cls-4" d="M582.16,413.54a2.495,2.495,0,1,0-2.5,2.5,2.5,2.5,0,0,0,2.5-2.5Z" transform="translate(-483.968 -293.717)"/>
    <path class="cls-4" d="M624.64,413.54a2.495,2.495,0,1,0-2.5,2.5,2.5,2.5,0,0,0,2.5-2.5Z" transform="translate(-483.968 -293.717)"/>
    <path class="cls-4" d="M539.68,413.54a2.495,2.495,0,1,0-2.5,2.5,2.5,2.5,0,0,0,2.5-2.5Z" transform="translate(-483.968 -293.717)"/>
    <path class="cls-4" d="M603.4,413.54a2.495,2.495,0,1,0-2.5,2.5,2.5,2.5,0,0,0,2.5-2.5Z" transform="translate(-483.968 -293.717)"/>
    <path class="cls-4" d="M497.08,413.54a2.495,2.495,0,1,0-2.5,2.5,2.5,2.5,0,0,0,2.5-2.5Z" transform="translate(-483.968 -293.717)"/>
    <g>
      <path class="cls-2" d="M580.081,426.558c0,.368.03.478.926.478h.319v.309c-.348-.031-1.215-.031-1.614-.031s-1.265,0-1.614.031v-.309h.319c.9,0,.926-.12.926-.478V421.4a2.984,2.984,0,0,1-1.3.259v-.308a2.462,2.462,0,0,0,1.814-.638c.229,0,.229.02.229.259Z" transform="translate(-483.968 -293.717)"/>
      <path class="cls-2" d="M624.306,425.641a2.032,2.032,0,0,1-2.123,1.922A1.817,1.817,0,0,1,620.17,426a.559.559,0,1,1,1.117-.021.546.546,0,0,1-.658.548,1.814,1.814,0,0,0,1.524.758c.439,0,1.126-.289,1.126-1.644,0-.977-.368-1.654-1.186-1.654h-.438c-.169,0-.239,0-.239-.11s.07-.109.149-.119.31-.021.389-.03a.966.966,0,0,0,.887-.518,2.492,2.492,0,0,0,.279-1.136c0-.9-.548-1.116-.957-1.116a1.615,1.615,0,0,0-1.325.617c.149,0,.618,0,.618.5a.509.509,0,1,1-1.017-.011c0-.756.758-1.354,1.764-1.354.957,0,1.834.558,1.834,1.375a1.8,1.8,0,0,0,.269,3.557Z" transform="translate(-483.968 -293.717)"/>
    </g>
    <g>
      <path class="cls-2" d="M533.1,425.481V424.9h2.64v.578Z" transform="translate(-483.968 -293.717)"/>
      <path class="cls-2" d="M539.274,426.558c0,.368.03.478.927.478h.319v.309c-.349-.031-1.216-.031-1.615-.031s-1.265,0-1.613.031v-.309h.318c.9,0,.927-.12.927-.478V421.4a2.986,2.986,0,0,1-1.306.259v-.308a2.462,2.462,0,0,0,1.814-.638c.229,0,.229.02.229.259Z" transform="translate(-483.968 -293.717)"/>
    </g>
    <g>
      <path class="cls-2" d="M511.854,425.481V424.9H514.5v.578Z" transform="translate(-483.968 -293.717)"/>
      <path class="cls-2" d="M518.162,426.577a.8.8,0,0,0,1.165-.966h.249l-.279,1.734h-3.7c0-.24,0-.259.109-.369l1.914-2.132a3.576,3.576,0,0,0,1.045-2.2c0-.818-.428-1.624-1.335-1.624a1.438,1.438,0,0,0-1.345,1.016.381.381,0,0,1,.13-.01.5.5,0,0,1,.528.518.524.524,0,1,1-1.046-.03,1.84,1.84,0,0,1,1.863-1.8,1.957,1.957,0,0,1,2.112,1.933c0,1-.6,1.534-2.152,2.909l-1.056,1.026Z" transform="translate(-483.968 -293.717)"/>
    </g>
    <g>
      <path class="cls-2" d="M490.612,425.481V424.9h2.641v.578Z" transform="translate(-483.968 -293.717)"/>
      <path class="cls-2" d="M498.414,425.641a2.032,2.032,0,0,1-2.122,1.922A1.817,1.817,0,0,1,494.279,426a.558.558,0,1,1,1.116-.021.546.546,0,0,1-.658.548,1.814,1.814,0,0,0,1.525.758c.438,0,1.126-.289,1.126-1.644,0-.977-.369-1.654-1.186-1.654h-.438c-.17,0-.24,0-.24-.11s.07-.109.15-.119.309-.021.389-.03a.965.965,0,0,0,.886-.518,2.492,2.492,0,0,0,.279-1.136c0-.9-.548-1.116-.957-1.116a1.615,1.615,0,0,0-1.325.617c.15,0,.618,0,.618.5a.508.508,0,1,1-1.016-.011c0-.756.757-1.354,1.764-1.354.956,0,1.833.558,1.833,1.375a1.8,1.8,0,0,0,.269,3.557Z" transform="translate(-483.968 -293.717)"/>
    </g>
    <polyline points="378.14 65.339 382.675 63.071 378.14 60.803 379.274 63.071"/>
    <line class="cls-1" x1="209.054" y1="63.071" x2="379.274" y2="63.071"/>
    <polyline points="296.361 7.371 294.093 2.835 291.825 7.371 294.093 6.237"/>
    <line class="cls-1" x1="294.093" y1="70.158" x2="294.093" y2="6.237"/>
    <path class="cls-2" d="M790.29,306.117c0,.179,0,.359-.2.359s-.2-.18-.2-.359v-9.246c0-.18,0-.359.2-.359s.2.179.2.359Z" transform="translate(-483.968 -293.717)"/>
    <path class="cls-2" d="M794.949,301.155a.553.553,0,0,0-.139.309l-.349,1.405c-.05.209-.14.558-.14.628,0,.119.06.139.27.159a3.6,3.6,0,0,0,.378.02c.189,0,.279,0,.279.11,0,.2-.119.2-.189.2-.28,0-1-.03-1.276-.03s-.976.03-1.255.03c-.02,0-.139,0-.139-.11,0-.2.079-.2.268-.2.8-.01.808-.04.937-.588.05-.179.448-1.783.448-1.813a1.042,1.042,0,0,0-.039-.17l-1.226-3.278c-.089-.249-.13-.339-.727-.339-.13,0-.23,0-.23-.109,0-.2.13-.2.19-.2.249,0,.867.029,1.116.029.278,0,.977-.029,1.255-.029.03,0,.149,0,.149.109,0,.2-.1.2-.239.2-.1,0-.587,0-.587.24a.544.544,0,0,0,.06.169l1.1,2.959,2.312-2.66c.04-.05.269-.309.269-.479,0-.209-.289-.229-.359-.229-.05,0-.149-.009-.149-.119,0-.189.13-.189.189-.189.319,0,.668.029,1,.029.27,0,.559-.029.818-.029.08,0,.129.039.129.119,0,.18-.089.18-.2.189a1.881,1.881,0,0,0-1.305.688l-.14.139Z" transform="translate(-483.968 -293.717)"/>
    <g>
      <path class="cls-2" d="M802.7,306.476a4.31,4.31,0,0,1-1.554-1.873,7.671,7.671,0,0,1-.03-6.148,4.341,4.341,0,0,1,1.584-1.943.089.089,0,0,1,.1.1c0,.031,0,.05-.129.17a6.515,6.515,0,0,0-1.605,4.713,6.6,6.6,0,0,0,1.565,4.663c.169.169.169.189.169.219A.09.09,0,0,1,802.7,306.476Z" transform="translate(-483.968 -293.717)"/>
      <path class="cls-2" d="M804.743,303.178a1.341,1.341,0,0,0,1.126.667,1.4,1.4,0,0,0,1.345-1.026c.019-.08.04-.139.13-.139a.115.115,0,0,1,.129.119,1.7,1.7,0,0,1-1.664,1.3,2.249,2.249,0,0,1-2.192-2.3,2.177,2.177,0,0,1,2.072-2.272,1.767,1.767,0,0,1,1.784,1.953c0,.209-.03.209-.249.209h-2.78A2.9,2.9,0,0,0,804.743,303.178Zm2.072-1.7c0-.389-.1-1.734-1.126-1.734-.338,0-1.175.249-1.235,1.734Z" transform="translate(-483.968 -293.717)"/>
    </g>
    <path class="cls-2" d="M809.877,300.881a1.435,1.435,0,0,1-1.365,1.545c-.569,0-1.126-.279-1.126-.8a.459.459,0,1,1,.917,0,.46.46,0,0,1-.35.448,1.209,1.209,0,0,0,.538.13c.638,0,.728-.857.728-1.306v-3.945c0-.489-.09-.558-.857-.558v-.309l1.515-.11Zm-.528-6.108a.528.528,0,1,1,.528-.527A.531.531,0,0,1,809.349,294.773Z" transform="translate(-483.968 -293.717)"/>
    <path class="cls-2" d="M812.186,300.453c-.642,0-.962-.683-.962-1.513,0-1.6,1.115-3.466,2.161-3.466.683,0,.963.781.963,1.513C814.348,298.549,813.246,300.453,812.186,300.453Zm-.238-2.364a5.394,5.394,0,0,0-.2,1.262c0,.377.064.907.446.907.308,0,.586-.328.8-.691a5.018,5.018,0,0,0,.565-1.478Zm1.674-.251a5.5,5.5,0,0,0,.2-1.262c0-.133,0-.907-.446-.907-.411,0-1.011.663-1.366,2.169Z" transform="translate(-483.968 -293.717)"/>
    <path class="cls-2" d="M817.6,304.533a4.348,4.348,0,0,1-1.584,1.943.094.094,0,0,1-.1-.1c0-.03,0-.05.129-.169a6.536,6.536,0,0,0,1.6-4.713,6.466,6.466,0,0,0-1.544-4.653c-.189-.18-.189-.2-.189-.23a.094.094,0,0,1,.1-.1,4.3,4.3,0,0,1,1.553,1.873,7.665,7.665,0,0,1,.031,6.148Z" transform="translate(-483.968 -293.717)"/>
    <path class="cls-2" d="M820.774,306.117c0,.179,0,.359-.2.359s-.2-.18-.2-.359v-9.246c0-.18,0-.359.2-.359s.2.179.2.359Z" transform="translate(-483.968 -293.717)"/>
    <path class="cls-2" d="M871.805,360.368c-.908,0-1.2-1.106-1.2-2.043,0-2.282,1.535-5.091,2.919-5.091,1.017,0,1.2,1.385,1.2,2.042C874.724,357.508,873.21,360.368,871.805,360.368Zm-.22-3.408a7.623,7.623,0,0,0-.318,1.973c0,.927.209,1.216.538,1.216.428,0,.806-.488,1.155-1.166a8.9,8.9,0,0,0,.7-2.023Zm2.163-.318a8.313,8.313,0,0,0,.318-1.983c0-.568-.059-1.206-.547-1.206-.449,0-.818.558-1.086,1.046a9.015,9.015,0,0,0-.768,2.143Z" transform="translate(-483.968 -293.717)"/>
    <path class="cls-2" d="M764.4,313.143c0,.369.03.478.927.478h.318v.309c-.348-.03-1.215-.03-1.614-.03s-1.265,0-1.614.03v-.309h.319c.9,0,.927-.119.927-.478v-5.162a2.976,2.976,0,0,1-1.306.26v-.309a2.461,2.461,0,0,0,1.814-.638c.229,0,.229.02.229.259Z" transform="translate(-483.968 -293.717)"/>
    <path class="cls-3" d="M834.754,321.355H778.061m0,0H721.369" transform="translate(-483.968 -293.717)"/>
    <path class="cls-1" d="M834.754,360.332v-7.087m-113.385,7.087v-7.087" transform="translate(-483.968 -293.717)"/>
    <path class="cls-2" d="M833.866,368.1c-.129.5-.129.518-.268.977-.119.368-.2.647-.5.647a.271.271,0,0,1-.289-.269c0-.069,0-.089.08-.239a21.037,21.037,0,0,0,1.275-3.318H833.6a1.4,1.4,0,0,0-1.266.767c-.06.08-.079.12-.159.12-.12,0-.12-.09-.12-.1a3.592,3.592,0,0,1,.608-.9,1.267,1.267,0,0,1,1.036-.469h3.338c.19,0,.4,0,.4.24,0,.338-.359.338-.489.338H835.81a7.7,7.7,0,0,0-.18,1.584,4.283,4.283,0,0,0,.289,1.644.435.435,0,0,1,.06.22.42.42,0,0,1-.409.378c-.149,0-.258-.06-.358-.5a3.131,3.131,0,0,1-.08-.757,10.952,10.952,0,0,1,.419-2.571h-1.126Z" transform="translate(-483.968 -293.717)"/>
    <path class="cls-2" d="M715.718,367.686c-.169,0-.349,0-.349-.2s.18-.2.349-.2h5.39c.169,0,.349,0,.349.2s-.18.2-.349.2Z" transform="translate(-483.968 -293.717)"/>
    <path class="cls-2" d="M724.429,368.462c-.129.5-.129.518-.269.977-.119.369-.2.647-.5.647a.27.27,0,0,1-.289-.268c0-.07,0-.09.08-.239a21.185,21.185,0,0,0,1.276-3.319h-.569a1.4,1.4,0,0,0-1.265.768c-.06.079-.08.119-.16.119-.12,0-.12-.089-.12-.1a3.575,3.575,0,0,1,.609-.9,1.267,1.267,0,0,1,1.036-.468H727.6c.189,0,.4,0,.4.239,0,.338-.358.338-.488.338h-1.136a7.779,7.779,0,0,0-.18,1.585,4.285,4.285,0,0,0,.289,1.644.388.388,0,0,1-.348.6c-.15,0-.259-.059-.359-.5a3.127,3.127,0,0,1-.08-.757,10.959,10.959,0,0,1,.419-2.571h-1.126Z" transform="translate(-483.968 -293.717)"/>
    <line class="cls-5" x1="379.132" y1="27.638" x2="354.329" y2="27.638"/>
    <line class="cls-6" x1="237.4" y1="27.638" x2="212.597" y2="27.638"/>
    <polyline points="378.14 129.118 382.675 126.85 378.14 124.583 379.274 126.85"/>
    <line class="cls-1" x1="209.054" y1="126.85" x2="379.274" y2="126.85"/>
    <polyline points="296.361 92.409 294.093 87.874 291.825 92.409 294.093 91.276"/>
    <line class="cls-1" x1="294.093" y1="162.283" x2="294.093" y2="91.276"/>
    <path class="cls-2" d="M789.9,388.665h5.082c.169,0,.349,0,.349.2s-.18.2-.349.2h-5.36c-.17,0-.359,0-.359-.2,0-.08.03-.109.12-.209l5.53-6.367c.1-.11.159-.14.219-.14a.2.2,0,0,1,.2.2c0,.04,0,.09-.109.21Z" transform="translate(-483.968 -293.717)"/>
    <path class="cls-2" d="M798.729,385.307c0,.578-.359,1.037-1.175,1.265a1.745,1.745,0,0,1,.776.389,1.075,1.075,0,0,1,.4.946V390a1.3,1.3,0,0,0,.03.469,1.267,1.267,0,0,0,1.245.866c.1.011.16.011.16.11s-.08.11-.189.11a2.631,2.631,0,0,1-1.435-.409,1.157,1.157,0,0,1-.478-1.116v-1.973a1.474,1.474,0,0,0-.031-.488,1.261,1.261,0,0,0-1.245-.887c-.1-.01-.159-.01-.159-.11a.108.108,0,0,1,.089-.109,1.5,1.5,0,0,0,.947-.319,1.115,1.115,0,0,0,.4-1.037v-2.272c.009-.737.917-1.245,1.913-1.245.109,0,.189,0,.189.11a.108.108,0,0,1-.09.109c-1.086.07-1.345.708-1.345,1.106Z" transform="translate(-483.968 -293.717)"/>
    <path class="cls-2" d="M804.426,386.233a.563.563,0,0,0-.14.31l-.348,1.4c-.05.21-.14.559-.14.628,0,.119.059.14.269.159a3.443,3.443,0,0,0,.378.021c.19,0,.28,0,.28.109,0,.2-.12.2-.19.2-.279,0-1-.03-1.275-.03s-.977.03-1.255.03c-.021,0-.14,0-.14-.109,0-.2.079-.2.269-.2.8-.01.807-.04.936-.588.05-.18.449-1.784.449-1.813a1.022,1.022,0,0,0-.04-.17l-1.225-3.279c-.09-.249-.13-.339-.728-.339-.13,0-.229,0-.229-.109,0-.2.13-.2.189-.2.249,0,.868.03,1.117.03.278,0,.976-.03,1.254-.03.031,0,.15,0,.15.109,0,.2-.1.2-.239.2-.1,0-.587,0-.587.24a.551.551,0,0,0,.059.169l1.1,2.96,2.311-2.661c.041-.05.27-.309.27-.479,0-.209-.289-.229-.359-.229-.05,0-.15-.009-.15-.119,0-.189.13-.189.19-.189.319,0,.668.03,1,.03.269,0,.558-.03.817-.03.08,0,.13.039.13.119,0,.18-.09.18-.2.189a1.883,1.883,0,0,0-1.306.688l-.14.14Z" transform="translate(-483.968 -293.717)"/>
    <g>
      <path class="cls-2" d="M812.068,391.555a4.3,4.3,0,0,1-1.553-1.873,7.668,7.668,0,0,1-.031-6.149,4.348,4.348,0,0,1,1.584-1.943.089.089,0,0,1,.1.1c0,.031,0,.05-.129.17a6.516,6.516,0,0,0-1.6,4.713A6.6,6.6,0,0,0,812,391.235c.169.17.169.19.169.22A.09.09,0,0,1,812.068,391.555Z" transform="translate(-483.968 -293.717)"/>
      <path class="cls-2" d="M814.11,388.257a1.341,1.341,0,0,0,1.126.667,1.4,1.4,0,0,0,1.345-1.027c.02-.079.04-.139.13-.139a.115.115,0,0,1,.129.12,1.7,1.7,0,0,1-1.664,1.3,2.249,2.249,0,0,1-2.192-2.3,2.177,2.177,0,0,1,2.073-2.271,1.767,1.767,0,0,1,1.783,1.953c0,.209-.029.209-.249.209h-2.779A2.913,2.913,0,0,0,814.11,388.257Zm2.073-1.7c0-.389-.1-1.735-1.126-1.735-.339,0-1.176.25-1.236,1.735Z" transform="translate(-483.968 -293.717)"/>
    </g>
    <path class="cls-2" d="M819.244,385.96a1.435,1.435,0,0,1-1.365,1.545c-.568,0-1.126-.279-1.126-.8a.459.459,0,0,1,.917,0,.46.46,0,0,1-.35.449,1.22,1.22,0,0,0,.538.129c.638,0,.728-.856.728-1.305v-3.946c0-.489-.09-.558-.857-.558v-.309l1.515-.11Zm-.528-6.108a.529.529,0,1,1,.528-.528A.531.531,0,0,1,818.716,379.852Z" transform="translate(-483.968 -293.717)"/>
    <path class="cls-2" d="M821.67,385.531c-.642,0-.962-.682-.962-1.512,0-1.6,1.115-3.467,2.161-3.467.684,0,.963.781.963,1.513C823.832,383.627,822.73,385.531,821.67,385.531Zm-.237-2.364a5.336,5.336,0,0,0-.2,1.263c0,.377.064.906.447.906.307,0,.586-.327.8-.69a5.011,5.011,0,0,0,.565-1.479Zm1.673-.251a5.509,5.509,0,0,0,.2-1.262c0-.133,0-.906-.447-.906-.411,0-1.01.662-1.366,2.168Z" transform="translate(-483.968 -293.717)"/>
    <path class="cls-2" d="M826.958,389.611a4.34,4.34,0,0,1-1.584,1.944.094.094,0,0,1-.1-.1c0-.03,0-.05.129-.17a6.531,6.531,0,0,0,1.605-4.713,6.466,6.466,0,0,0-1.545-4.653c-.189-.18-.189-.2-.189-.23a.094.094,0,0,1,.1-.1,4.3,4.3,0,0,1,1.554,1.873,7.671,7.671,0,0,1,.03,6.148Z" transform="translate(-483.968 -293.717)"/>
    <path class="cls-2" d="M830.7,387.838c0-.578.359-1.036,1.176-1.266a1.721,1.721,0,0,1-.777-.388,1.077,1.077,0,0,1-.4-.947v-2.092a1.293,1.293,0,0,0-.03-.469,1.267,1.267,0,0,0-1.245-.867c-.1-.01-.159-.01-.159-.109s.109-.11.2-.11a2.643,2.643,0,0,1,1.425.409,1.156,1.156,0,0,1,.477,1.115v1.974a1.521,1.521,0,0,0,.03.488,1.262,1.262,0,0,0,1.246.887c.1.01.16.01.16.109a.109.109,0,0,1-.09.11,1.493,1.493,0,0,0-.946.319,1.112,1.112,0,0,0-.4,1.036v2.272c-.01.757-.936,1.246-1.9,1.246-.09,0-.2,0-.2-.11a.109.109,0,0,1,.088-.11c1.087-.069,1.346-.707,1.346-1.106Z" transform="translate(-483.968 -293.717)"/>
    <path class="cls-2" d="M871.805,424.212c-.908,0-1.2-1.106-1.2-2.042,0-2.282,1.535-5.092,2.919-5.092,1.017,0,1.2,1.385,1.2,2.042C874.724,421.353,873.21,424.212,871.805,424.212Zm-.22-3.407a7.605,7.605,0,0,0-.318,1.972c0,.927.209,1.216.538,1.216.428,0,.806-.488,1.155-1.166a8.911,8.911,0,0,0,.7-2.022Zm2.163-.32a8.3,8.3,0,0,0,.318-1.982c0-.568-.059-1.206-.547-1.206-.449,0-.818.558-1.086,1.047a9,9,0,0,0-.768,2.141Z" transform="translate(-483.968 -293.717)"/>
    <line class="cls-3" x1="350.786" y1="98.504" x2="237.4" y2="155.197"/>
    <path class="cls-1" d="M774.518,392.221h7.087m-7.087,56.693h7.087m53.149-24.8v-7.087m-113.385,7.087v-7.087" transform="translate(-483.968 -293.717)"/>
    <path class="cls-2" d="M763.085,394.772a.8.8,0,0,0,1.166-.965h.249l-.278,1.733h-3.7c0-.239,0-.259.11-.369l1.913-2.132a3.566,3.566,0,0,0,1.047-2.2c0-.817-.429-1.624-1.335-1.624a1.439,1.439,0,0,0-1.346,1.016.421.421,0,0,1,.13-.009.5.5,0,0,1,.527.517.524.524,0,1,1-1.046-.03,1.841,1.841,0,0,1,1.864-1.8,1.957,1.957,0,0,1,2.112,1.933c0,1-.6,1.534-2.152,2.909l-1.056,1.026Z" transform="translate(-483.968 -293.717)"/>
    <path class="cls-2" d="M767.147,394.025c-.128.5-.128.519-.268.977-.119.369-.2.647-.5.647a.27.27,0,0,1-.289-.268c0-.07,0-.09.08-.239a21.127,21.127,0,0,0,1.275-3.319h-.568a1.405,1.405,0,0,0-1.266.768c-.059.08-.079.119-.159.119-.12,0-.12-.09-.12-.1a3.611,3.611,0,0,1,.608-.9,1.268,1.268,0,0,1,1.037-.469h3.337c.19,0,.4,0,.4.239,0,.339-.359.339-.488.339h-1.136a7.71,7.71,0,0,0-.18,1.585,4.285,4.285,0,0,0,.289,1.644.424.424,0,0,1,.061.219.42.42,0,0,1-.409.378c-.15,0-.259-.059-.359-.5a3.12,3.12,0,0,1-.08-.756,10.958,10.958,0,0,1,.419-2.572h-1.126Z" transform="translate(-483.968 -293.717)"/>
    <path class="cls-2" d="M753.405,449.521c-.169,0-.348,0-.348-.2s.179-.2.348-.2H758.8c.169,0,.349,0,.349.2s-.18.2-.349.2Z" transform="translate(-483.968 -293.717)"/>
    <path class="cls-2" d="M763.085,451.046a.8.8,0,0,0,1.166-.966h.249l-.278,1.733h-3.7c0-.239,0-.258.11-.369l1.913-2.131a3.571,3.571,0,0,0,1.047-2.2c0-.817-.429-1.624-1.335-1.624a1.439,1.439,0,0,0-1.346,1.017.381.381,0,0,1,.13-.01.5.5,0,0,1,.527.518.524.524,0,1,1-1.046-.031,1.841,1.841,0,0,1,1.864-1.8,1.957,1.957,0,0,1,2.112,1.932c0,1-.6,1.535-2.152,2.91l-1.056,1.026Z" transform="translate(-483.968 -293.717)"/>
    <path class="cls-2" d="M767.147,450.3c-.128.5-.128.518-.268.976-.119.37-.2.648-.5.648a.27.27,0,0,1-.289-.269c0-.07,0-.09.08-.239a21.075,21.075,0,0,0,1.275-3.318h-.568a1.406,1.406,0,0,0-1.266.767c-.059.08-.079.119-.159.119-.12,0-.12-.089-.12-.1a3.589,3.589,0,0,1,.608-.9,1.269,1.269,0,0,1,1.037-.468h3.337c.19,0,.4,0,.4.239,0,.339-.359.339-.488.339h-1.136a7.694,7.694,0,0,0-.18,1.585,4.284,4.284,0,0,0,.289,1.643.427.427,0,0,1,.061.22.42.42,0,0,1-.409.378c-.15,0-.259-.06-.359-.5a3.131,3.131,0,0,1-.08-.757,10.944,10.944,0,0,1,.419-2.571h-1.126Z" transform="translate(-483.968 -293.717)"/>
    <line class="cls-7" x1="379.132" y1="141.023" x2="350.786" y2="155.197"/>
    <line class="cls-8" x1="237.4" y1="98.504" x2="209.054" y2="112.677"/>
    <path class="cls-9" d="M721.369,392.221v56.693m113.385-56.693v56.693" transform="translate(-483.968 -293.717)"/>
    <path class="cls-1" d="M721.369,463.087v7.087m113.385-7.087v7.087" transform="translate(-483.968 -293.717)"/>
    <g>
      <path class="cls-2" d="M779.065,465.522h-.249c-.159-1.375-.409-1.933-1.9-1.933h-1.2c-.469,0-.489.07-.489.4v2.522h.857c.957,0,1.057-.329,1.057-1.166h.249v2.64h-.249c0-.847-.1-1.166-1.057-1.166h-.857v2.452c0,.348,0,.478.947.478h.329v.309c-.359-.031-1.266-.031-1.674-.031-.389,0-1.166,0-1.515.031v-.309h.24c.766,0,.787-.11.787-.469v-5.22c0-.36-.021-.469-.787-.469h-.24v-.309h5.47Z" transform="translate(-483.968 -293.717)"/>
      <path class="cls-2" d="M781.705,469.278c0,.359.029.469.816.469h.26v.309c-.348-.031-1.136-.031-1.524-.031s-1.166,0-1.515.031v-.309H780c.787,0,.817-.11.817-.469v-5.251c0-.358-.03-.467-.817-.467h-.259v-.31c.349.03,1.136.03,1.525.03s1.166,0,1.514-.03v.31h-.26c-.787,0-.816.109-.816.467Z" transform="translate(-483.968 -293.717)"/>
    </g>
    <polyline points="346.25 175.181 350.786 172.913 346.25 170.645 347.384 172.913"/>
    <line class="cls-1" x1="301.18" y1="172.913" x2="347.384" y2="172.913"/>
    <polyline points="241.936 170.645 237.4 172.913 241.936 175.181 240.802 172.913"/>
    <line class="cls-1" x1="287.006" y1="172.913" x2="240.802" y2="172.913"/>
  </g>
</svg>
