<svg id="Layer_1" data-name="Layer 1" xmlns="http://www.w3.org/2000/svg" viewBox="0 0 420 315">
  <defs>
    <style>
      .cls-1 {
        fill: #fff;
      }

      .cls-2, .cls-3, .cls-8, .cls-9 {
        fill: none;
        stroke-linejoin: round;
      }

      .cls-2 {
        stroke: #dfdfdf;
      }

      .cls-2, .cls-3, .cls-9 {
        stroke-width: 0.5px;
      }

      .cls-3 {
        stroke: #262626;
        stroke-linecap: square;
      }

      .cls-4 {
        font-size: 10px;
      }

      .cls-4, .cls-6 {
        fill: #4a4a49;
        font-family: Helvetica, Helvetica;
      }

      .cls-5 {
        fill: #262626;
      }

      .cls-6, .cls-7 {
        font-size: 11px;
      }

      .cls-7 {
        fill: #1d1d1b;
        font-family: Helvetica-Bold, Helvetica;
        font-weight: 700;
      }

      .cls-8, .cls-9 {
        stroke: #000;
      }

      .cls-8 {
        stroke-width: 3px;
      }
    </style>
  </defs>
  <title>FTDsignal</title>
  <g>
    <rect class="cls-1" width="420" height="315"/>
    <rect class="cls-1" width="420" height="315"/>
    <rect class="cls-1" x="54.6" y="23.4" width="325.8" height="256.8"/>
    <path class="cls-2" d="M527.6,507.2V250.4M690.5,507.2V250.4M853.4,507.2V250.4m0,256.8H527.6M853.4,378.8H527.6M853.4,250.4H527.6" transform="translate(-473 -227)"/>
    <path class="cls-3" d="M527.6,507.2H853.4m-325.8,0v-3.258M690.5,507.2v-3.258M853.4,507.2v-3.258" transform="translate(-473 -227)"/>
    <text class="cls-4" transform="translate(49.797 294.609)">-</text>
    <path class="cls-5" d="M527.431,521.422a.608.608,0,0,1,.038-.16q.291-.589.534-1.162c.163-.381.309-.752.441-1.111s.253-.745.366-1.158h-.657a1.165,1.165,0,0,0-.7.234,1.976,1.976,0,0,0-.54.6.058.058,0,0,1-.055.038h-.122c-.063,0-.094-.034-.094-.1a.139.139,0,0,1,.019-.056,4.9,4.9,0,0,1,.717-.957,1.178,1.178,0,0,1,.858-.384h3.7a.257.257,0,0,1,.179.07.251.251,0,0,1,.075.192.358.358,0,0,1-.108.254.345.345,0,0,1-.258.112h-1.3a9.224,9.224,0,0,0-.178,1.566,4.34,4.34,0,0,0,.347,1.772.343.343,0,0,1,.028.131.338.338,0,0,1-.066.2.565.565,0,0,1-.164.155.416.416,0,0,1-.22.061c-.175,0-.3-.146-.366-.436a3.728,3.728,0,0,1-.1-.849,6.072,6.072,0,0,1,.1-1.13q.1-.539.319-1.467h-1.106q-.816,3.273-.975,3.6a.439.439,0,0,1-.4.282.322.322,0,0,1-.215-.08.266.266,0,0,1-.094-.211Z" transform="translate(-473 -227)"/>
    <text class="cls-4" transform="translate(214.5 294.398)">0</text>
    <path class="cls-5" d="M851.431,521.422a.608.608,0,0,1,.038-.16q.291-.589.534-1.162c.163-.381.309-.752.441-1.111s.253-.745.366-1.158h-.657a1.165,1.165,0,0,0-.7.234,1.976,1.976,0,0,0-.54.6.058.058,0,0,1-.055.038h-.122c-.063,0-.094-.034-.094-.1a.139.139,0,0,1,.019-.056,4.9,4.9,0,0,1,.717-.957,1.178,1.178,0,0,1,.858-.384h3.7a.257.257,0,0,1,.179.07.251.251,0,0,1,.075.192.358.358,0,0,1-.108.254.345.345,0,0,1-.258.112h-1.3a9.224,9.224,0,0,0-.178,1.566,4.34,4.34,0,0,0,.347,1.772.343.343,0,0,1,.028.131.338.338,0,0,1-.066.2.565.565,0,0,1-.164.155.416.416,0,0,1-.22.061c-.175,0-.3-.146-.366-.436a3.728,3.728,0,0,1-.1-.849,6.072,6.072,0,0,1,.1-1.13q.1-.539.319-1.467h-1.106q-.816,3.273-.975,3.6a.439.439,0,0,1-.4.282.322.322,0,0,1-.215-.08.266.266,0,0,1-.094-.211Z" transform="translate(-473 -227)"/>
    <path class="cls-5" d="M681.415,533.515a.183.183,0,0,1-.15-.07.219.219,0,0,1,0-.29.183.183,0,0,1,.15-.07h8.2a4.007,4.007,0,0,1-.732-.685,3.962,3.962,0,0,1-.53-.83,3.643,3.643,0,0,1-.295-.951c0-.094.038-.141.112-.141h.216a.085.085,0,0,1,.066.033.179.179,0,0,1,.038.07,3.634,3.634,0,0,0,.285.858,3.675,3.675,0,0,0,.478.741,3.227,3.227,0,0,0,.647.59,3.443,3.443,0,0,0,.811.408.14.14,0,0,1,.075.122.094.094,0,0,1-.075.1,3.318,3.318,0,0,0-1.031.586,3.391,3.391,0,0,0-.773.914,3.475,3.475,0,0,0-.417,1.116.159.159,0,0,1-.043.07.091.091,0,0,1-.061.033h-.216c-.074,0-.112-.047-.112-.141a3.835,3.835,0,0,1,.544-1.392,3.745,3.745,0,0,1,1.013-1.074Z" transform="translate(-473 -227)"/>
    <text class="cls-6" transform="translate(219 309)"> </text>
    <path class="cls-5" d="M697.344,536.122a.967.967,0,0,1-.792-.361,2.05,2.05,0,0,1-.408-.867,4.579,4.579,0,0,1-.113-.994v-.019a6.379,6.379,0,0,1,.1-1.116,7.606,7.606,0,0,1,.3-1.157,8.3,8.3,0,0,1,.421-1.027,7.915,7.915,0,0,1,.408-.708,5.58,5.58,0,0,1,.558-.731,2.751,2.751,0,0,1,.666-.548,1.421,1.421,0,0,1,.722-.207h.009a.978.978,0,0,1,.651.216,1.45,1.45,0,0,1,.4.553,3.026,3.026,0,0,1,.207.722,4.747,4.747,0,0,1,.06.732,6.529,6.529,0,0,1-.225,1.668,9.178,9.178,0,0,1-.609,1.65,7.758,7.758,0,0,1-.412.708,5.4,5.4,0,0,1-.554.726,2.919,2.919,0,0,1-.655.54,1.417,1.417,0,0,1-.732.22Zm.019-.282a.919.919,0,0,0,.684-.384,3.9,3.9,0,0,0,.576-.928,10.653,10.653,0,0,0,.437-1.12q.186-.576.28-.971h-2.2q-.17.675-.268,1.168a4.98,4.98,0,0,0-.1.97q0,1.266.591,1.265Zm-.141-3.787h2.213q.111-.468.182-.788t.118-.675a5.068,5.068,0,0,0,.046-.655q0-1.266-.571-1.266-.686,0-1.187,1.1a13.609,13.609,0,0,0-.8,2.283Z" transform="translate(-473 -227)"/>
    <path class="cls-3" d="M527.6,507.2V250.4m0,256.8h3.258M527.6,378.8h3.258M527.6,250.4h3.258" transform="translate(-473 -227)"/>
    <text class="cls-4" transform="translate(44.594 284.094)">0</text>
    <path class="cls-5" d="M518.431,382.822a.608.608,0,0,1,.038-.16q.291-.589.534-1.162c.163-.381.309-.752.441-1.111s.253-.745.366-1.158h-.657a1.165,1.165,0,0,0-.7.234,1.976,1.976,0,0,0-.54.6.058.058,0,0,1-.055.038h-.122c-.063,0-.094-.034-.094-.1a.139.139,0,0,1,.019-.056,4.9,4.9,0,0,1,.717-.957,1.178,1.178,0,0,1,.858-.384h3.7a.257.257,0,0,1,.179.07.251.251,0,0,1,.075.192.358.358,0,0,1-.108.254.345.345,0,0,1-.258.112h-1.3a9.224,9.224,0,0,0-.178,1.566,4.34,4.34,0,0,0,.347,1.772.343.343,0,0,1,.028.131.338.338,0,0,1-.066.2.565.565,0,0,1-.164.155.416.416,0,0,1-.22.061c-.175,0-.3-.146-.366-.436a3.728,3.728,0,0,1-.1-.849,6.072,6.072,0,0,1,.1-1.13q.1-.538.319-1.467h-1.106q-.816,3.273-.975,3.6a.439.439,0,0,1-.4.282.322.322,0,0,1-.215-.08.266.266,0,0,1-.094-.211Z" transform="translate(-473 -227)"/>
    <text class="cls-4" transform="translate(34.797 27.602)">2*</text>
    <path class="cls-5" d="M518.431,254.422a.608.608,0,0,1,.038-.16q.291-.589.534-1.162c.163-.381.309-.752.441-1.111s.253-.745.366-1.158h-.657a1.165,1.165,0,0,0-.7.234,1.976,1.976,0,0,0-.54.6.058.058,0,0,1-.055.038h-.122c-.063,0-.094-.034-.094-.1a.139.139,0,0,1,.019-.056,4.9,4.9,0,0,1,.717-.957,1.178,1.178,0,0,1,.858-.384h3.7a.257.257,0,0,1,.179.07.251.251,0,0,1,.075.192.358.358,0,0,1-.108.254.345.345,0,0,1-.258.112h-1.3a9.224,9.224,0,0,0-.178,1.566,4.34,4.34,0,0,0,.347,1.772.343.343,0,0,1,.028.131.338.338,0,0,1-.066.2.565.565,0,0,1-.164.155.416.416,0,0,1-.22.061c-.175,0-.3-.146-.366-.436a3.728,3.728,0,0,1-.1-.849,6.072,6.072,0,0,1,.1-1.13q.1-.538.319-1.467h-1.106q-.816,3.273-.975,3.6a.439.439,0,0,1-.4.282.322.322,0,0,1-.215-.08.266.266,0,0,1-.094-.211Z" transform="translate(-473 -227)"/>
    <text class="cls-6" transform="translate(29 177.594) rotate(-90)">Magnitude</text>
    <text class="cls-7" transform="translate(189.297 18.75)">FTD signa</text>
    <text class="cls-7" transform="translate(242.534 18.75)">l</text>
    <line class="cls-8" x1="193.62" y1="279.72" x2="193.62" y2="156.125"/>
    <path class="cls-9" d="M662.87,386.625l3.75-10v6.5l-3.75,3.5m3.75-10,3.75,10-3.75-3.5v-6.5" transform="translate(-473 -227)"/>
    <polygon points="193.62 149.625 189.87 159.625 193.62 156.125 197.37 159.625 193.62 149.625"/>
    <line class="cls-8" x1="241.92" y1="279.72" x2="241.92" y2="156.125"/>
    <path class="cls-9" d="M711.17,386.625l3.75-10v6.5l-3.75,3.5m3.75-10,3.75,10-3.75-3.5v-6.5" transform="translate(-473 -227)"/>
    <polygon points="241.92 149.625 238.17 159.625 241.92 156.125 245.67 159.625 241.92 149.625"/>
  </g>
</svg>
