<svg id="Layer_1" data-name="Layer 1" xmlns="http://www.w3.org/2000/svg" viewBox="0 0 420 315"><defs><style>.cls-1{fill:#fff;}.cls-2,.cls-3,.cls-8{fill:none;stroke-linejoin:round;}.cls-2{stroke:#dfdfdf;}.cls-2,.cls-3{stroke-width:0.5px;}.cls-3{stroke:#262626;stroke-linecap:square;}.cls-4{font-size:10px;}.cls-4,.cls-6{fill:#4a4a49;font-family:Helvetica, Helvetica;}.cls-5{fill:#262626;}.cls-6,.cls-7{font-size:11px;}.cls-7{fill:#1d1d1b;font-family:Helvetica-Bold, Helvetica;font-weight:700;}.cls-8{stroke:red;stroke-width:3px;}</style></defs><title>FTDwsignal</title><rect class="cls-1" width="420" height="315"/><rect class="cls-1" width="420" height="315"/><rect class="cls-1" x="54.6" y="23.4" width="325.8" height="256.8"/><path class="cls-2" d="M527.6,507.2V250.4M690.5,507.2V250.4M853.4,507.2V250.4m0,256.8H527.6m325.8-38.909H527.6m325.8-38.909H527.6m325.8-38.909H527.6m325.8-38.909H527.6m325.8-38.909H527.6m325.8-38.91H527.6" transform="translate(-473 -227)"/><path class="cls-3" d="M527.6,507.2H853.4M527.6,250.4H853.4M527.6,507.2v-3.258M690.5,507.2v-3.258M853.4,507.2v-3.258M527.6,250.4v3.258M690.5,250.4v3.258M853.4,250.4v3.258" transform="translate(-473 -227)"/><text class="cls-4" transform="translate(49.797 294.609)">-</text><path class="cls-5" d="M527.431,521.422a.608.608,0,0,1,.038-.16q.291-.589.534-1.162c.163-.381.309-.752.441-1.111s.253-.745.366-1.158h-.657a1.165,1.165,0,0,0-.7.234,1.976,1.976,0,0,0-.54.6.058.058,0,0,1-.055.038h-.122c-.063,0-.094-.034-.094-.1a.139.139,0,0,1,.019-.056,4.9,4.9,0,0,1,.717-.957,1.178,1.178,0,0,1,.858-.384h3.7a.257.257,0,0,1,.179.07.251.251,0,0,1,.075.192.358.358,0,0,1-.108.254.345.345,0,0,1-.258.112h-1.3a9.224,9.224,0,0,0-.178,1.566,4.34,4.34,0,0,0,.347,1.772.343.343,0,0,1,.028.131.338.338,0,0,1-.066.2.565.565,0,0,1-.164.155.416.416,0,0,1-.22.061c-.175,0-.3-.146-.366-.436a3.728,3.728,0,0,1-.1-.849,6.072,6.072,0,0,1,.1-1.13q.1-.539.319-1.467h-1.106q-.816,3.273-.975,3.6a.439.439,0,0,1-.4.282.322.322,0,0,1-.215-.08.266.266,0,0,1-.094-.211Z" transform="translate(-473 -227)"/><text class="cls-4" transform="translate(214.5 294.398)">0</text><path class="cls-5" d="M851.431,521.422a.608.608,0,0,1,.038-.16q.291-.589.534-1.162c.163-.381.309-.752.441-1.111s.253-.745.366-1.158h-.657a1.165,1.165,0,0,0-.7.234,1.976,1.976,0,0,0-.54.6.058.058,0,0,1-.055.038h-.122c-.063,0-.094-.034-.094-.1a.139.139,0,0,1,.019-.056,4.9,4.9,0,0,1,.717-.957,1.178,1.178,0,0,1,.858-.384h3.7a.257.257,0,0,1,.179.07.251.251,0,0,1,.075.192.358.358,0,0,1-.108.254.345.345,0,0,1-.258.112h-1.3a9.224,9.224,0,0,0-.178,1.566,4.34,4.34,0,0,0,.347,1.772.343.343,0,0,1,.028.131.338.338,0,0,1-.066.2.565.565,0,0,1-.164.155.416.416,0,0,1-.22.061c-.175,0-.3-.146-.366-.436a3.728,3.728,0,0,1-.1-.849,6.072,6.072,0,0,1,.1-1.13q.1-.539.319-1.467h-1.106q-.816,3.273-.975,3.6a.439.439,0,0,1-.4.282.322.322,0,0,1-.215-.08.266.266,0,0,1-.094-.211Z" transform="translate(-473 -227)"/><path class="cls-5" d="M681.415,533.515a.183.183,0,0,1-.15-.07.219.219,0,0,1,0-.29.183.183,0,0,1,.15-.07h8.2a4.007,4.007,0,0,1-.732-.685,3.962,3.962,0,0,1-.53-.83,3.643,3.643,0,0,1-.295-.951c0-.094.038-.141.112-.141h.216a.085.085,0,0,1,.066.033.179.179,0,0,1,.038.07,3.634,3.634,0,0,0,.285.858,3.675,3.675,0,0,0,.478.741,3.227,3.227,0,0,0,.647.59,3.443,3.443,0,0,0,.811.408.14.14,0,0,1,.075.122.094.094,0,0,1-.075.1,3.318,3.318,0,0,0-1.031.586,3.391,3.391,0,0,0-.773.914,3.475,3.475,0,0,0-.417,1.116.159.159,0,0,1-.043.07.091.091,0,0,1-.061.033h-.216c-.074,0-.112-.047-.112-.141a3.835,3.835,0,0,1,.544-1.392,3.745,3.745,0,0,1,1.013-1.074Z" transform="translate(-473 -227)"/><text class="cls-6" transform="translate(219 309)"> </text><path class="cls-5" d="M697.344,536.122a.967.967,0,0,1-.792-.361,2.05,2.05,0,0,1-.408-.867,4.579,4.579,0,0,1-.113-.994v-.019a6.379,6.379,0,0,1,.1-1.116,7.606,7.606,0,0,1,.3-1.157,8.3,8.3,0,0,1,.421-1.027,7.915,7.915,0,0,1,.408-.708,5.58,5.58,0,0,1,.558-.731,2.751,2.751,0,0,1,.666-.548,1.421,1.421,0,0,1,.722-.207h.009a.978.978,0,0,1,.651.216,1.45,1.45,0,0,1,.4.553,3.026,3.026,0,0,1,.207.722,4.747,4.747,0,0,1,.06.732,6.529,6.529,0,0,1-.225,1.668,9.178,9.178,0,0,1-.609,1.65,7.758,7.758,0,0,1-.412.708,5.4,5.4,0,0,1-.554.726,2.919,2.919,0,0,1-.655.54,1.417,1.417,0,0,1-.732.22Zm.019-.282a.919.919,0,0,0,.684-.384,3.9,3.9,0,0,0,.576-.928,10.653,10.653,0,0,0,.437-1.12q.186-.576.28-.971h-2.2q-.17.675-.268,1.168a4.98,4.98,0,0,0-.1.97q0,1.266.591,1.265Zm-.141-3.787h2.213q.111-.468.182-.788t.118-.675a5.068,5.068,0,0,0,.046-.655q0-1.266-.571-1.266-.686,0-1.187,1.1a13.609,13.609,0,0,0-.8,2.283Z" transform="translate(-473 -227)"/><path class="cls-3" d="M527.6,507.2V250.4M853.4,507.2V250.4M527.6,507.2h3.258M527.6,468.291h3.258M527.6,429.382h3.258M527.6,390.473h3.258M527.6,351.564h3.258M527.6,312.655h3.258m-3.258-38.91h3.258M853.4,507.2h-3.258m3.258-38.909h-3.258m3.258-38.909h-3.258m3.258-38.909h-3.258m3.258-38.909h-3.258m3.258-38.909h-3.258m3.258-38.91h-3.258" transform="translate(-473 -227)"/><text class="cls-4" transform="translate(44.594 284.094)">0</text><text class="cls-4" transform="translate(44.594 245.188)">5</text><text class="cls-4" transform="translate(39.195 206.281)">10</text><text class="cls-4" transform="translate(39.195 167.367)">15</text><text class="cls-4" transform="translate(39.195 128.461)">20</text><text class="cls-4" transform="translate(39.195 89.555)">25</text><text class="cls-4" transform="translate(39.195 50.648)">30</text><text class="cls-6" transform="translate(33.203 177.594) rotate(-90)">Magnitude</text><text class="cls-7" transform="translate(114.898 18.75)">FTD Signal multiplied with Block signa</text><text class="cls-7" transform="translate(317.074 18.75)">l</text><polyline class="cls-8" points="54.6 279.587 55.873 279.703 57.145 279.914 58.418 280.181 59.69 279.945 60.963 279.717 62.236 279.577 63.509 279.553 64.781 279.651 66.054 279.856 67.327 280.131 68.599 279.973 69.872 279.711 71.144 279.533 72.417 279.473 73.69 279.548 74.963 279.748 76.235 280.039 77.508 280.027 78.781 279.712 80.053 279.473 81.326 279.357 82.598 279.391 83.871 279.575 85.144 279.883 86.416 280.137 87.689 279.749 88.962 279.424 90.235 279.223 91.507 279.187 92.78 279.332 94.052 279.641 95.325 280.067 96.598 279.86 97.87 279.422 99.143 279.098 100.415 278.953 101.688 279.02 102.961 279.301 104.234 279.756 105.506 280.083 106.779 279.509 108.052 279.024 109.324 278.717 110.597 278.651 111.869 278.853 113.142 279.304 114.415 279.94 115.688 279.739 116.96 279.053 118.233 278.524 119.506 278.252 120.778 278.302 122.051 278.686 123.323 279.359 124.596 280.175 125.869 279.256 127.141 278.437 128.414 277.867 129.687 277.661 130.96 277.881 132.232 278.52 133.505 279.498 134.777 279.73 136.05 278.549 137.323 277.564 138.595 276.958 139.868 276.866 141.14 277.345 142.413 278.36 143.686 279.779 144.959 279.006 146.231 277.457 147.504 276.247 148.777 275.612 150.049 275.717 151.322 276.613 152.594 278.222 153.867 280.063 155.14 277.754 156.413 275.629 157.685 274.073 158.958 273.418 160.231 273.878 161.503 275.505 162.776 278.16 164.048 278.887 165.321 275.325 166.594 272.14 167.866 269.936 169.139 269.238 170.412 270.396 171.685 273.508 172.957 278.363 174.23 275.966 175.502 269.501 176.775 263.681 178.048 259.646 179.32 258.506 180.593 261.182 181.865 268.271 183.138 279.929 184.411 264.593 185.684 245.369 186.956 224.138 188.229 202.596 189.502 182.632 190.774 166.129 192.047 154.758 193.319 149.778 194.592 151.881 195.865 161.089 197.138 176.729 198.41 197.483 199.683 221.517 200.956 246.668 202.228 270.681 203.501 268.952 204.773 253.156 206.046 243.478 207.319 240.372 208.591 243.544 209.864 252.005 211.137 264.19 212.41 278.159 213.682 268.569 214.955 257.156 216.227 249.606 217.5 246.968 218.773 249.606 220.045 257.156 221.318 268.569 222.59 278.159 223.863 264.19 225.136 252.005 226.409 243.544 227.681 240.372 228.954 243.478 230.227 253.156 231.499 268.952 232.772 270.681 234.044 246.668 235.317 221.517 236.59 197.483 237.863 176.729 239.135 161.089 240.408 151.881 241.681 149.778 242.953 154.758 244.226 166.129 245.498 182.632 246.771 202.596 248.044 224.138 249.316 245.369 250.589 264.593 251.862 279.929 253.135 268.271 254.407 261.182 255.68 258.506 256.952 259.646 258.225 263.681 259.498 269.501 260.77 275.966 262.043 278.363 263.315 273.508 264.588 270.396 265.861 269.238 267.134 269.936 268.406 272.14 269.679 275.325 270.952 278.887 272.224 278.16 273.497 275.505 274.769 273.878 276.042 273.418 277.315 274.073 278.588 275.629 279.86 277.754 281.133 280.063 282.406 278.222 283.678 276.613 284.951 275.717 286.223 275.612 287.496 276.247 288.769 277.457 290.041 279.006 291.314 279.779 292.587 278.36 293.86 277.345 295.132 276.866 296.405 276.958 297.677 277.564 298.95 278.549 300.223 279.73 301.495 279.498 302.768 278.52 304.04 277.881 305.313 277.661 306.586 277.867 307.859 278.437 309.131 279.256 310.404 280.175 311.677 279.359 312.949 278.686 314.222 278.302 315.494 278.252 316.767 278.524 318.04 279.053 319.313 279.739 320.585 279.94 321.858 279.304 323.131 278.853 324.403 278.651 325.676 278.717 326.948 279.024 328.221 279.509 329.494 280.083 330.766 279.756 332.039 279.301 333.312 279.02 334.585 278.953 335.857 279.098 337.13 279.422 338.402 279.86 339.675 280.067 340.948 279.641 342.22 279.332 343.493 279.187 344.765 279.223 346.038 279.424 347.311 279.749 348.584 280.137 349.856 279.883 351.129 279.575 352.402 279.391 353.674 279.357 354.947 279.473 356.219 279.712 357.492 280.027 358.765 280.039 360.038 279.748 361.31 279.548 362.583 279.473 363.856 279.533 365.128 279.711 366.401 279.973 367.673 280.131 368.946 279.856 370.219 279.651 371.491 279.553 372.764 279.577 374.037 279.717 375.31 279.945 376.582 280.181 377.855 279.914 379.127 279.703 380.4 279.587"/></svg>