<svg id="Layer_1" data-name="Layer 1" xmlns="http://www.w3.org/2000/svg" viewBox="0 0 420 315"><defs><style>.cls-1{fill:#fff;}.cls-2,.cls-3,.cls-8{fill:none;stroke-linejoin:round;}.cls-2{stroke:#dfdfdf;}.cls-2,.cls-3{stroke-width:0.5px;}.cls-3{stroke:#262626;stroke-linecap:square;}.cls-4{font-size:10px;}.cls-4,.cls-6{fill:#4a4a49;font-family:Helvetica, Helvetica;}.cls-5{fill:#262626;}.cls-6,.cls-7{font-size:11px;}.cls-7{fill:#1d1d1b;font-family:Helvetica-Bold, Helvetica;font-weight:700;}.cls-8{stroke:blue;stroke-width:3px;}</style></defs><title>FTDwindow</title><rect class="cls-1" width="420" height="315"/><rect class="cls-1" width="420" height="315"/><rect class="cls-1" x="54.6" y="23.4" width="325.8" height="256.8"/><path class="cls-2" d="M527.6,507.2V250.4M690.5,507.2V250.4M853.4,507.2V250.4m0,256.8H527.6m325.8-38.909H527.6m325.8-38.909H527.6m325.8-38.909H527.6m325.8-38.909H527.6m325.8-38.909H527.6m325.8-38.91H527.6" transform="translate(-473 -227)"/><path class="cls-3" d="M527.6,507.2H853.4M527.6,250.4H853.4M527.6,507.2v-3.258M690.5,507.2v-3.258M853.4,507.2v-3.258M527.6,250.4v3.258M690.5,250.4v3.258M853.4,250.4v3.258" transform="translate(-473 -227)"/><text class="cls-4" transform="translate(49.797 294.609)">-</text><path class="cls-5" d="M527.431,521.422a.608.608,0,0,1,.038-.16q.291-.589.534-1.162c.163-.381.309-.752.441-1.111s.253-.745.366-1.158h-.657a1.165,1.165,0,0,0-.7.234,1.976,1.976,0,0,0-.54.6.058.058,0,0,1-.055.038h-.122c-.063,0-.094-.034-.094-.1a.139.139,0,0,1,.019-.056,4.9,4.9,0,0,1,.717-.957,1.178,1.178,0,0,1,.858-.384h3.7a.257.257,0,0,1,.179.07.251.251,0,0,1,.075.192.358.358,0,0,1-.108.254.345.345,0,0,1-.258.112h-1.3a9.224,9.224,0,0,0-.178,1.566,4.34,4.34,0,0,0,.347,1.772.343.343,0,0,1,.028.131.338.338,0,0,1-.066.2.565.565,0,0,1-.164.155.416.416,0,0,1-.22.061c-.175,0-.3-.146-.366-.436a3.728,3.728,0,0,1-.1-.849,6.072,6.072,0,0,1,.1-1.13q.1-.539.319-1.467h-1.106q-.816,3.273-.975,3.6a.439.439,0,0,1-.4.282.322.322,0,0,1-.215-.08.266.266,0,0,1-.094-.211Z" transform="translate(-473 -227)"/><text class="cls-4" transform="translate(214.5 294.398)">0</text><path class="cls-5" d="M851.431,521.422a.608.608,0,0,1,.038-.16q.291-.589.534-1.162c.163-.381.309-.752.441-1.111s.253-.745.366-1.158h-.657a1.165,1.165,0,0,0-.7.234,1.976,1.976,0,0,0-.54.6.058.058,0,0,1-.055.038h-.122c-.063,0-.094-.034-.094-.1a.139.139,0,0,1,.019-.056,4.9,4.9,0,0,1,.717-.957,1.178,1.178,0,0,1,.858-.384h3.7a.257.257,0,0,1,.179.07.251.251,0,0,1,.075.192.358.358,0,0,1-.108.254.345.345,0,0,1-.258.112h-1.3a9.224,9.224,0,0,0-.178,1.566,4.34,4.34,0,0,0,.347,1.772.343.343,0,0,1,.028.131.338.338,0,0,1-.066.2.565.565,0,0,1-.164.155.416.416,0,0,1-.22.061c-.175,0-.3-.146-.366-.436a3.728,3.728,0,0,1-.1-.849,6.072,6.072,0,0,1,.1-1.13q.1-.539.319-1.467h-1.106q-.816,3.273-.975,3.6a.439.439,0,0,1-.4.282.322.322,0,0,1-.215-.08.266.266,0,0,1-.094-.211Z" transform="translate(-473 -227)"/><path class="cls-5" d="M681.415,533.515a.183.183,0,0,1-.15-.07.219.219,0,0,1,0-.29.183.183,0,0,1,.15-.07h8.2a4.007,4.007,0,0,1-.732-.685,3.962,3.962,0,0,1-.53-.83,3.643,3.643,0,0,1-.295-.951c0-.094.038-.141.112-.141h.216a.085.085,0,0,1,.066.033.179.179,0,0,1,.038.07,3.634,3.634,0,0,0,.285.858,3.675,3.675,0,0,0,.478.741,3.227,3.227,0,0,0,.647.59,3.443,3.443,0,0,0,.811.408.14.14,0,0,1,.075.122.094.094,0,0,1-.075.1,3.318,3.318,0,0,0-1.031.586,3.391,3.391,0,0,0-.773.914,3.475,3.475,0,0,0-.417,1.116.159.159,0,0,1-.043.07.091.091,0,0,1-.061.033h-.216c-.074,0-.112-.047-.112-.141a3.835,3.835,0,0,1,.544-1.392,3.745,3.745,0,0,1,1.013-1.074Z" transform="translate(-473 -227)"/><text class="cls-6" transform="translate(219 309)"> </text><path class="cls-5" d="M697.344,536.122a.967.967,0,0,1-.792-.361,2.05,2.05,0,0,1-.408-.867,4.579,4.579,0,0,1-.113-.994v-.019a6.379,6.379,0,0,1,.1-1.116,7.606,7.606,0,0,1,.3-1.157,8.3,8.3,0,0,1,.421-1.027,7.915,7.915,0,0,1,.408-.708,5.58,5.58,0,0,1,.558-.731,2.751,2.751,0,0,1,.666-.548,1.421,1.421,0,0,1,.722-.207h.009a.978.978,0,0,1,.651.216,1.45,1.45,0,0,1,.4.553,3.026,3.026,0,0,1,.207.722,4.747,4.747,0,0,1,.06.732,6.529,6.529,0,0,1-.225,1.668,9.178,9.178,0,0,1-.609,1.65,7.758,7.758,0,0,1-.412.708,5.4,5.4,0,0,1-.554.726,2.919,2.919,0,0,1-.655.54,1.417,1.417,0,0,1-.732.22Zm.019-.282a.919.919,0,0,0,.684-.384,3.9,3.9,0,0,0,.576-.928,10.653,10.653,0,0,0,.437-1.12q.186-.576.28-.971h-2.2q-.17.675-.268,1.168a4.98,4.98,0,0,0-.1.97q0,1.266.591,1.265Zm-.141-3.787h2.213q.111-.468.182-.788t.118-.675a5.068,5.068,0,0,0,.046-.655q0-1.266-.571-1.266-.686,0-1.187,1.1a13.609,13.609,0,0,0-.8,2.283Z" transform="translate(-473 -227)"/><path class="cls-3" d="M527.6,507.2V250.4M853.4,507.2V250.4M527.6,507.2h3.258M527.6,468.291h3.258M527.6,429.382h3.258M527.6,390.473h3.258M527.6,351.564h3.258M527.6,312.655h3.258m-3.258-38.91h3.258M853.4,507.2h-3.258m3.258-38.909h-3.258m3.258-38.909h-3.258m3.258-38.909h-3.258m3.258-38.909h-3.258m3.258-38.909h-3.258m3.258-38.91h-3.258" transform="translate(-473 -227)"/><text class="cls-4" transform="translate(44.594 284.094)">0</text><text class="cls-4" transform="translate(44.594 245.188)">5</text><text class="cls-4" transform="translate(39.195 206.281)">10</text><text class="cls-4" transform="translate(39.195 167.367)">15</text><text class="cls-4" transform="translate(39.195 128.461)">20</text><text class="cls-4" transform="translate(39.195 89.555)">25</text><text class="cls-4" transform="translate(39.195 50.648)">30</text><text class="cls-6" transform="translate(33.203 177.594) rotate(-90)">Magnitude</text><text class="cls-7" transform="translate(172.797 18.75)">FTD Block signa</text><text class="cls-7" transform="translate(258.914 18.75)">l</text><polyline class="cls-8" points="54.6 272.576 55.873 273.799 57.145 276.049 58.418 278.968 59.69 278.314 60.963 275.493 62.236 273.424 63.509 272.438 64.781 272.696 66.054 274.161 67.327 276.599 68.599 279.624 69.872 277.648 71.144 274.919 72.417 273.027 73.69 272.28 74.963 272.803 76.235 274.517 77.508 277.156 78.781 280.102 80.053 276.957 81.326 274.313 82.598 272.6 83.871 272.098 85.144 272.896 86.416 274.877 87.689 277.73 88.962 279.395 90.235 276.222 91.507 273.662 92.78 272.131 94.052 271.886 95.325 272.979 96.598 275.247 97.87 278.338 99.143 278.636 100.415 275.424 101.688 272.945 102.961 271.606 104.234 271.637 105.506 273.052 106.779 275.639 108.052 278.998 109.324 277.801 110.597 274.536 111.869 272.137 113.142 271.005 114.415 271.342 115.688 273.116 116.96 276.065 118.233 279.734 119.506 276.858 120.778 273.522 122.051 271.206 123.323 270.302 124.596 270.983 125.869 273.172 127.141 276.543 128.414 279.822 129.687 275.762 130.96 272.332 132.232 270.101 133.505 269.457 134.777 270.541 136.05 273.22 137.323 277.099 138.595 278.819 139.868 274.445 141.14 270.889 142.413 268.748 143.686 268.41 144.959 269.981 146.231 273.262 147.504 277.772 148.777 277.582 150.049 272.8 151.322 269.068 152.594 267.026 153.867 267.063 155.14 269.246 156.413 273.297 157.685 278.628 158.958 275.979 160.231 270.647 161.503 266.662 162.776 264.726 164.048 265.243 165.321 268.235 166.594 273.326 167.866 279.785 169.139 273.774 170.412 267.647 171.685 263.27 172.957 261.448 174.23 262.615 175.502 266.75 176.775 273.35 178.048 278.915 179.32 270.477 180.593 263.095 181.865 258.046 183.138 256.318 184.411 258.434 185.684 264.34 186.956 273.368 188.229 276.101 189.502 264.889 190.774 255.207 192.047 248.783 193.319 246.997 194.592 250.631 195.865 259.703 197.138 273.381 198.41 270.376 199.683 253.072 200.956 237.814 202.228 227.398 203.501 224.335 204.773 230.514 206.046 246.909 207.319 273.388 208.591 251.746 209.864 210.079 211.137 165.274 212.41 121.133 213.682 81.605 214.955 50.344 216.227 30.302 217.5 23.4 218.773 30.302 220.045 50.344 221.318 81.605 222.59 121.133 223.863 165.274 225.136 210.079 226.409 251.746 227.681 273.388 228.954 246.909 230.227 230.514 231.499 224.335 232.772 227.398 234.044 237.814 235.317 253.072 236.59 270.376 237.863 273.381 239.135 259.703 240.408 250.631 241.681 246.997 242.953 248.783 244.226 255.207 245.498 264.889 246.771 276.101 248.044 273.368 249.316 264.34 250.589 258.434 251.862 256.318 253.135 258.046 254.407 263.095 255.68 270.477 256.952 278.915 258.225 273.35 259.498 266.75 260.77 262.615 262.043 261.448 263.315 263.27 264.588 267.647 265.861 273.774 267.134 279.785 268.406 273.326 269.679 268.235 270.952 265.243 272.224 264.726 273.497 266.662 274.769 270.647 276.042 275.979 277.315 278.628 278.588 273.297 279.86 269.246 281.133 267.063 282.406 267.026 283.678 269.068 284.951 272.8 286.223 277.582 287.496 277.772 288.769 273.262 290.041 269.981 291.314 268.41 292.587 268.748 293.86 270.889 295.132 274.445 296.405 278.819 297.677 277.099 298.95 273.22 300.223 270.541 301.495 269.457 302.768 270.101 304.04 272.332 305.313 275.762 306.586 279.822 307.859 276.543 309.131 273.172 310.404 270.983 311.677 270.302 312.949 271.206 314.222 273.522 315.494 276.858 316.767 279.734 318.04 276.065 319.313 273.116 320.585 271.342 321.858 271.005 323.131 272.137 324.403 274.536 325.676 277.801 326.948 278.998 328.221 275.639 329.494 273.052 330.766 271.637 332.039 271.606 333.312 272.945 334.585 275.424 335.857 278.636 337.13 278.338 338.402 275.247 339.675 272.979 340.948 271.886 342.22 272.131 343.493 273.662 344.765 276.222 346.038 279.395 347.311 277.73 348.584 274.877 349.856 272.896 351.129 272.098 352.402 272.6 353.674 274.313 354.947 276.957 356.219 280.102 357.492 277.156 358.765 274.517 360.038 272.803 361.31 272.28 362.583 273.027 363.856 274.919 365.128 277.648 366.401 279.624 367.673 276.599 368.946 274.161 370.219 272.696 371.491 272.438 372.764 273.424 374.037 275.493 375.31 278.314 376.582 278.968 377.855 276.049 379.127 273.799 380.4 272.576"/></svg>