<svg id="Layer_1" data-name="Layer 1" xmlns="http://www.w3.org/2000/svg" viewBox="0 0 486.498 98.469">
  <defs>
    <style>
      .cls-1 {
        fill: #1d1d1b;
      }

      .cls-10, .cls-2, .cls-4, .cls-5, .cls-6, .cls-7, .cls-8 {
        fill: none;
      }

      .cls-10, .cls-2, .cls-3, .cls-4, .cls-5, .cls-6, .cls-7, .cls-8 {
        stroke: #000;
        stroke-miterlimit: 10;
      }

      .cls-2, .cls-3 {
        stroke-width: 0.85px;
      }

      .cls-4, .cls-5, .cls-6, .cls-7, .cls-8 {
        stroke-width: 2.268px;
      }

      .cls-5, .cls-6, .cls-7, .cls-8 {
        stroke-linecap: round;
      }

      .cls-5 {
        stroke-dasharray: 0 9.496;
      }

      .cls-6 {
        stroke-dasharray: 0 8.05;
      }

      .cls-7 {
        stroke-dasharray: 0 9.496;
      }

      .cls-8 {
        stroke-dasharray: 0 9.496;
      }

      .cls-9 {
        fill: red;
      }

      .cls-10 {
        stroke-width: 0.283px;
      }
    </style>
  </defs>
  <title>IFTDBlock</title>
  <g>
    <path class="cls-1" d="M687.455,399.527a3.22,3.22,0,0,0,.159-.837c0-.329-.109-.458-.308-.458-.36,0-.559.478-.728,1.186-.059.219-.07.229-.17.229-.019,0-.119,0-.119-.1a5.058,5.058,0,0,1,.3-.967.869.869,0,0,1,.747-.568.9.9,0,0,1,.917.867,1.922,1.922,0,0,1,1.555-.867,1.018,1.018,0,0,1,1.145,1.066,9.024,9.024,0,0,1-.607,2.192,1.893,1.893,0,0,0-.18.708c0,.229.069.329.239.329.489,0,.817-.559,1.016-1.236.051-.149.051-.179.15-.179.03,0,.119,0,.119.1,0,.08-.369,1.534-1.3,1.534a.8.8,0,0,1-.817-.816,1.133,1.133,0,0,1,.1-.459,9.5,9.5,0,0,0,.647-2.321c0-.329-.089-.7-.538-.7a1.985,1.985,0,0,0-1.624,1.215c-.009.04-.089.329-.13.5-.049.229-.109.449-.168.667l-.22.9c-.06.249-.179.717-.19.737a.405.405,0,0,1-.368.278.266.266,0,0,1-.289-.268c0-.05.06-.279.09-.429Z" transform="translate(-441.512 -333.711)"/>
    <polyline points="122.74 14.422 120.472 9.887 118.204 14.422 120.472 13.288"/>
    <line class="cls-2" x1="120.472" y1="94.926" x2="120.472" y2="13.288"/>
    <polyline points="236.408 68.847 240.944 66.58 236.408 64.312 237.542 66.58"/>
    <line class="cls-2" y1="66.58" x2="237.542" y2="66.58"/>
    <path class="cls-1" d="M575.591,344.374a3.86,3.86,0,0,0-.169.877c0,.339.159.658.548.658.319,0,1-.24,1.325-1.306.02-.07.04-.109.13-.109.03,0,.119,0,.119.1,0,.249-.568,1.534-1.594,1.534a1.1,1.1,0,0,1-1.076-.756,1.326,1.326,0,0,1-1.046.756c-.439,0-.937-.2-.937-.657a.566.566,0,0,1,.548-.578.342.342,0,0,1,.369.349.565.565,0,0,1-.469.538.958.958,0,0,0,.5.13c.439,0,.788-.419.947-1.037a14.471,14.471,0,0,0,.538-2.371c0-.578-.348-.668-.538-.668-.339,0-1,.25-1.335,1.306-.02.089-.05.109-.13.109-.02,0-.119,0-.119-.1,0-.249.568-1.534,1.6-1.534a1.1,1.1,0,0,1,1.076.757,1.291,1.291,0,0,1,1.046-.757c.339,0,.927.139.927.657a.557.557,0,0,1-.538.579.347.347,0,0,1-.378-.349.579.579,0,0,1,.478-.538.976.976,0,0,0-.5-.13c-.7,0-.927.917-.987,1.176Z" transform="translate(-441.512 -333.711)"/>
    <path class="cls-1" d="M579.411,348.509v-9.964h1.365v.4h-.967v9.166h.967v.4Z" transform="translate(-441.512 -333.711)"/>
    <path class="cls-1" d="M582.455,343.128a3.2,3.2,0,0,0,.16-.836c0-.329-.11-.459-.309-.459-.359,0-.558.479-.727,1.186-.06.219-.07.229-.17.229-.02,0-.119,0-.119-.1a5.028,5.028,0,0,1,.3-.966.869.869,0,0,1,.747-.568.9.9,0,0,1,.917.867,1.926,1.926,0,0,1,1.555-.867,1.019,1.019,0,0,1,1.146,1.066,8.982,8.982,0,0,1-.608,2.192,1.9,1.9,0,0,0-.179.708c0,.229.069.329.239.329.488,0,.817-.558,1.016-1.236.05-.15.05-.179.149-.179.03,0,.12,0,.12.1,0,.08-.369,1.534-1.305,1.534a.8.8,0,0,1-.818-.816,1.154,1.154,0,0,1,.1-.459,9.466,9.466,0,0,0,.648-2.321c0-.329-.09-.7-.538-.7a1.981,1.981,0,0,0-1.624,1.216c-.01.04-.09.328-.13.5-.05.229-.109.449-.169.667l-.219.9c-.06.249-.18.718-.19.738a.406.406,0,0,1-.368.278.266.266,0,0,1-.289-.268c0-.05.06-.279.089-.429Z" transform="translate(-441.512 -333.711)"/>
    <g>
      <path class="cls-1" d="M588.585,348.509H587.22v-.4h.966v-9.166h-.966v-.4h1.365Z" transform="translate(-441.512 -333.711)"/>
      <path class="cls-1" d="M593.537,342.76c-.15,0-.339,0-.339-.2s.189-.2.328-.2H599.5c.139,0,.329,0,.329.2s-.19.2-.339.2Zm-.011,1.933c-.139,0-.328,0-.328-.2s.189-.2.339-.2h5.948c.149,0,.339,0,.339.2s-.19.2-.329.2Z" transform="translate(-441.512 -333.711)"/>
    </g>
    <path class="cls-1" d="M606.618,341.61c0,.23,0,.321.7.321h.265v.251c-.153-.007-1.032-.028-1.248-.028-.258,0-1.116.021-1.241.028v-.251h.264c.7,0,.7-.091.7-.321v-3.556a2.3,2.3,0,0,1-1.011.2V338a1.905,1.905,0,0,0,1.367-.446c.2,0,.209.007.209.195Z" transform="translate(-441.512 -333.711)"/>
    <polyline points="162.766 10.149 166.846 10.149 166.846 9.669 162.766 9.669"/>
    <path class="cls-1" d="M607.594,349.5h-2.873c0-.2,0-.209.07-.272l1.68-1.66a2.119,2.119,0,0,0,.656-1.339,1.044,1.044,0,0,0-1.06-1.109,1.1,1.1,0,0,0-1.018.649c.363,0,.411.244.411.369a.37.37,0,1,1-.739-.02,1.352,1.352,0,0,1,1.45-1.249,1.46,1.46,0,0,1,1.632,1.36,2.015,2.015,0,0,1-1,1.506c-.418.328-.662.523-1.394,1.172h1.282a3.594,3.594,0,0,0,.691-.042,1.613,1.613,0,0,0,.181-.634h.237Z" transform="translate(-441.512 -333.711)"/>
    <path class="cls-1" d="M613.1,344.055a.528.528,0,1,1,.528-.528A.531.531,0,0,1,613.1,344.055Z" transform="translate(-441.512 -333.711)"/>
    <g>
      <path class="cls-1" d="M620.479,338.339c0,.133,0,.182-.118.182-.028,0-.112,0-.119-.077-.014-.2-.049-.767-.858-.767-.662,0-.85.272-.85.5,0,.37.453.453,1.011.551a1.525,1.525,0,0,1,.83.341.854.854,0,0,1,.3.642c0,.5-.334.983-1.241.983a1.217,1.217,0,0,1-.85-.3c-.14.153-.272.3-.335.3-.1,0-.1-.063-.1-.181v-.858c0-.139,0-.188.119-.188.1,0,.105.028.125.119a1.025,1.025,0,0,0,1.039.913c.67,0,.858-.321.858-.593,0-.467-.565-.565-.914-.627a1.713,1.713,0,0,1-.962-.349.688.688,0,0,1-.265-.544c0-.348.237-.871,1.234-.871a1.262,1.262,0,0,1,.733.188c.042-.035.111-.1.125-.1.091-.083.105-.083.14-.083.1,0,.1.062.1.181Z" transform="translate(-441.512 -333.711)"/>
      <path class="cls-1" d="M622.391,337.544v2.532c0,.293.069.293.474.293v.251c-.244-.021-.5-.028-.74-.028-.278,0-.767.028-.78.028v-.251c.453,0,.523,0,.523-.3v-1.813c0-.342-.063-.384-.5-.384v-.251Zm-.37-.822a.4.4,0,0,1,0-.8.4.4,0,1,1,0,.8Z" transform="translate(-441.512 -333.711)"/>
    </g>
    <g>
      <path class="cls-1" d="M626.826,340.069c0,.3.07.3.523.3v.251c-.063-.007-.544-.028-.8-.028-.293,0-.781.028-.8.028v-.251c.454,0,.523,0,.523-.3v-1.59c0-.356-.063-.739-.551-.739a1.037,1.037,0,0,0-1.039,1.073v1.256c0,.3.07.3.523.3v.251c-.062-.007-.543-.028-.8-.028-.293,0-.781.028-.795.028v-.251c.453,0,.523,0,.523-.3v-1.806c0-.342-.055-.391-.523-.391v-.251l1.026-.077v.677h.007a1.243,1.243,0,0,1,1.136-.677c.746,0,1.046.356,1.046.963Z" transform="translate(-441.512 -333.711)"/>
      <path class="cls-1" d="M630.292,335.473c0,.035-.021.056-.048.084a4.113,4.113,0,0,0-1.291,3.319,4.249,4.249,0,0,0,1.27,3.291c.048.049.069.063.069.105,0,.084-.084.084-.139.084a4.46,4.46,0,0,1,0-6.966C630.208,335.39,630.292,335.39,630.292,335.473Z" transform="translate(-441.512 -333.711)"/>
    </g>
    <path class="cls-1" d="M634.8,336.088a3.258,3.258,0,0,0-.054.537,1.8,1.8,0,0,0,.228.9.244.244,0,0,1,.055.139.273.273,0,0,1-.259.244c-.219,0-.343-.468-.343-.811a4.787,4.787,0,0,1,.159-1.01h-.651c-.115.443-.205.8-.319,1.189-.114.4-.184.632-.393.632a.178.178,0,0,1-.189-.18c0-.049,0-.059.075-.188a7.131,7.131,0,0,0,.607-1.453h-.354a.859.859,0,0,0-.711.324c-.04.044-.04.049-.11.049-.029,0-.1,0-.1-.069a1.566,1.566,0,0,1,.358-.433.886.886,0,0,1,.627-.249h2.134c.084,0,.234,0,.234.159a.275.275,0,0,1-.08.17.3.3,0,0,1-.209.049Z" transform="translate(-441.512 -333.711)"/>
    <polyline points="190.486 5.229 194.806 5.229 194.806 4.869 190.486 4.869"/>
    <path class="cls-1" d="M635.25,343.018h-2.312v-.149c0-.035.009-.035.059-.08l1.214-1.029a1.466,1.466,0,0,0,.671-1.06.8.8,0,0,0-.885-.776.886.886,0,0,0-.761.373.29.29,0,0,1,.284.293.291.291,0,1,1-.582-.009c0-.488.492-.876,1.164-.876.711,0,1.313.353,1.313.99,0,.527-.418.816-.866,1.124-.3.2-.666.478-1,.722h.975a2.976,2.976,0,0,0,.533-.03c.079-.05.129-.359.144-.453h.209Z" transform="translate(-441.512 -333.711)"/>
    <path class="cls-1" d="M638.6,339.288c.035-.154.105-.439.153-.628a3.071,3.071,0,0,0,.112-.578c0-.189-.049-.342-.23-.342-.272,0-.405.342-.509.753-.049.188-.056.209-.154.209-.021,0-.118,0-.118-.091a2.461,2.461,0,0,1,.251-.69.635.635,0,0,1,.551-.377.709.709,0,0,1,.746.635,1.483,1.483,0,0,1,1.178-.635c.37,0,.907.119.907.8a5.092,5.092,0,0,1-.37,1.346,1.4,1.4,0,0,0-.16.565c0,.146.028.244.174.244.279,0,.579-.286.739-.844.028-.076.035-.118.133-.118.02,0,.111,0,.111.091s-.306,1.066-1,1.066a.614.614,0,0,1-.662-.6.941.941,0,0,1,.1-.377,5.617,5.617,0,0,0,.412-1.485c0-.133-.007-.488-.412-.488a1.3,1.3,0,0,0-1.046.641,1.43,1.43,0,0,0-.293.628c-.034.16-.076.314-.118.467-.042.174-.119.5-.154.628a2.761,2.761,0,0,1-.125.432.343.343,0,0,1-.272.153.222.222,0,0,1-.237-.223,2.641,2.641,0,0,1,.07-.286Z" transform="translate(-441.512 -333.711)"/>
    <path class="cls-1" d="M644.739,338.876a4.65,4.65,0,0,1-.509,2.148,3.1,3.1,0,0,1-1.206,1.332.082.082,0,0,1-.091-.084c0-.035.007-.042.126-.16a4.234,4.234,0,0,0,1.206-3.243A4.148,4.148,0,0,0,643,335.578c-.042-.049-.063-.07-.063-.1,0-.083.084-.083.132-.083A4.182,4.182,0,0,1,644.739,338.876Z" transform="translate(-441.512 -333.711)"/>
    <polyline points="176.326 10.029 204.046 10.029 204.046 9.549 176.326 9.549"/>
    <path class="cls-1" d="M629.879,345.1a3.258,3.258,0,0,0-.054.537,1.8,1.8,0,0,0,.228.9.244.244,0,0,1,.055.139.273.273,0,0,1-.259.244c-.219,0-.343-.468-.343-.811a4.756,4.756,0,0,1,.16-1.01h-.652c-.115.443-.2.8-.319,1.189s-.184.632-.393.632a.178.178,0,0,1-.189-.18c0-.049,0-.059.075-.189a7.094,7.094,0,0,0,.607-1.452h-.354a.861.861,0,0,0-.711.323c-.04.045-.04.05-.109.05-.03,0-.1,0-.1-.07a1.58,1.58,0,0,1,.358-.432.886.886,0,0,1,.627-.249h2.134c.085,0,.234,0,.234.159a.27.27,0,0,1-.08.169.3.3,0,0,1-.209.05Z" transform="translate(-441.512 -333.711)"/>
    <polyline points="185.566 14.229 189.886 14.229 189.886 13.869 185.566 13.869"/>
    <path class="cls-1" d="M630.329,351.9h-2.313v-.15c0-.034.009-.034.059-.079l1.214-1.029a1.468,1.468,0,0,0,.671-1.06.8.8,0,0,0-.885-.776.887.887,0,0,0-.761.373.289.289,0,0,1,.284.293.291.291,0,1,1-.582-.01c0-.487.492-.875,1.164-.875.711,0,1.313.353,1.313.99,0,.527-.418.816-.866,1.124-.3.2-.666.478-1,.721h.975a3.077,3.077,0,0,0,.533-.029c.079-.05.129-.359.144-.453h.209Z" transform="translate(-441.512 -333.711)"/>
    <path class="cls-1" d="M633.676,348.163c.035-.154.1-.439.154-.628a3.143,3.143,0,0,0,.111-.578c0-.189-.049-.342-.23-.342-.272,0-.4.342-.509.753-.049.188-.056.209-.154.209-.021,0-.118,0-.118-.091a2.461,2.461,0,0,1,.251-.69.635.635,0,0,1,.551-.377.708.708,0,0,1,.746.635,1.483,1.483,0,0,1,1.178-.635c.37,0,.907.119.907.8a5.092,5.092,0,0,1-.37,1.346,1.4,1.4,0,0,0-.16.565c0,.146.028.244.174.244.279,0,.579-.286.739-.844.028-.076.035-.118.133-.118.021,0,.111,0,.111.091s-.306,1.066-1,1.066a.615.615,0,0,1-.663-.6.941.941,0,0,1,.1-.377,5.617,5.617,0,0,0,.412-1.485c0-.133-.007-.488-.412-.488a1.293,1.293,0,0,0-1.045.641,1.408,1.408,0,0,0-.293.628c-.035.16-.077.314-.119.467-.042.174-.119.5-.153.628a2.858,2.858,0,0,1-.126.432.341.341,0,0,1-.272.153.222.222,0,0,1-.237-.223,2.641,2.641,0,0,1,.07-.286Z" transform="translate(-441.512 -333.711)"/>
    <path class="cls-3" d="M562.038,356a1.786,1.786,0,1,1-1.758,1.786A1.772,1.772,0,0,1,562.038,356Z" transform="translate(-441.512 -333.711)"/>
    <path class="cls-3" d="M577.955,368.461A1.758,1.758,0,1,1,576.2,366.7a1.757,1.757,0,0,1,1.757,1.758Z" transform="translate(-441.512 -333.711)"/>
    <path class="cls-3" d="M590.358,398.6a1.786,1.786,0,1,1-1.758,1.786,1.772,1.772,0,0,1,1.758-1.786Z" transform="translate(-441.512 -333.711)"/>
    <path class="cls-3" d="M604.518,416.263a1.758,1.758,0,1,1-1.758,1.758,1.758,1.758,0,0,1,1.758-1.758Z" transform="translate(-441.512 -333.711)"/>
    <path class="cls-3" d="M618.678,398.6a1.786,1.786,0,1,1-1.758,1.786,1.772,1.772,0,0,1,1.758-1.786Z" transform="translate(-441.512 -333.711)"/>
    <path class="cls-3" d="M632.838,387.943a1.758,1.758,0,1,1-1.758,1.758,1.758,1.758,0,0,1,1.758-1.758Z" transform="translate(-441.512 -333.711)"/>
    <path class="cls-3" d="M647,398.6a1.786,1.786,0,1,1-1.758,1.786A1.772,1.772,0,0,1,647,398.6Z" transform="translate(-441.512 -333.711)"/>
    <path class="cls-3" d="M661.278,403.9a1.758,1.758,0,1,1-1.758,1.758,1.758,1.758,0,0,1,1.758-1.758Z" transform="translate(-441.512 -333.711)"/>
    <path class="cls-3" d="M675.438,398.6a1.786,1.786,0,1,1-1.758,1.786,1.772,1.772,0,0,1,1.758-1.786Z" transform="translate(-441.512 -333.711)"/>
    <path class="cls-4" d="M576.157,400.291V368.4m28.346,31.89v17.716m28.346-17.716v-10.63m28.347,10.63v3.543" transform="translate(-441.512 -333.711)"/>
    <path class="cls-3" d="M547.878,364.9a1.758,1.758,0,1,1-1.758,1.758,1.758,1.758,0,0,1,1.758-1.758Z" transform="translate(-441.512 -333.711)"/>
    <path class="cls-3" d="M521.2,418.021a1.758,1.758,0,1,1-1.757-1.758,1.757,1.757,0,0,1,1.757,1.758Z" transform="translate(-441.512 -333.711)"/>
    <path class="cls-3" d="M505.278,398.6a1.786,1.786,0,1,1-1.758,1.786,1.772,1.772,0,0,1,1.758-1.786Z" transform="translate(-441.512 -333.711)"/>
    <path class="cls-3" d="M492.875,389.7a1.758,1.758,0,1,1-1.757-1.758,1.757,1.757,0,0,1,1.757,1.758Z" transform="translate(-441.512 -333.711)"/>
    <path class="cls-3" d="M533.718,398.6a1.786,1.786,0,1,1-1.758,1.786,1.772,1.772,0,0,1,1.758-1.786Z" transform="translate(-441.512 -333.711)"/>
    <path class="cls-3" d="M476.958,398.6a1.786,1.786,0,1,1-1.758,1.786,1.772,1.772,0,0,1,1.758-1.786Z" transform="translate(-441.512 -333.711)"/>
    <path class="cls-3" d="M462.8,403.9a1.758,1.758,0,1,1-1.758,1.758A1.758,1.758,0,0,1,462.8,403.9Z" transform="translate(-441.512 -333.711)"/>
    <path class="cls-3" d="M448.638,398.6a1.786,1.786,0,1,1-1.758,1.786,1.772,1.772,0,0,1,1.758-1.786Z" transform="translate(-441.512 -333.711)"/>
    <path class="cls-4" d="M462.771,400.291v3.543m28.347-3.543v-10.63m28.346,10.63v17.716m28.346-17.716V368.4m14.174,31.89V357.772" transform="translate(-441.512 -333.711)"/>
    <path class="cls-1" d="M548.532,352.282c0,.23,0,.321.7.321h.265v.251c-.153-.007-1.032-.028-1.248-.028-.258,0-1.116.021-1.241.028V352.6h.265c.7,0,.7-.091.7-.321v-3.556a2.3,2.3,0,0,1-1.011.195v-.251a1.905,1.905,0,0,0,1.367-.446c.2,0,.209.007.209.195Z" transform="translate(-441.512 -333.711)"/>
    <polyline points="104.686 20.829 108.766 20.829 108.766 20.349 104.686 20.349"/>
    <path class="cls-1" d="M549.508,360.182h-2.873c0-.195,0-.209.07-.272l1.68-1.66a2.114,2.114,0,0,0,.656-1.338,1.044,1.044,0,0,0-1.06-1.109,1.1,1.1,0,0,0-1.018.649c.363,0,.412.243.412.369a.37.37,0,1,1-.74-.021,1.352,1.352,0,0,1,1.45-1.248,1.46,1.46,0,0,1,1.632,1.36,2.018,2.018,0,0,1-1,1.506c-.418.328-.662.523-1.394,1.171h1.282a3.594,3.594,0,0,0,.691-.042,1.613,1.613,0,0,0,.181-.634h.237Z" transform="translate(-441.512 -333.711)"/>
    <line class="cls-2" x1="116.929" y1="24.06" x2="124.015" y2="24.06"/>
    <g>
      <path class="cls-1" d="M576.609,409.794c0,.368.031.478.927.478h.319v.309c-.349-.03-1.215-.03-1.614-.03s-1.265,0-1.614.03v-.309h.319c.9,0,.926-.12.926-.478v-5.161a2.984,2.984,0,0,1-1.3.259v-.309a2.459,2.459,0,0,0,1.813-.638c.229,0,.229.02.229.259Z" transform="translate(-441.512 -333.711)"/>
      <path class="cls-1" d="M590.9,409.813a.8.8,0,0,0,1.166-.965h.249l-.279,1.733h-3.7c0-.239,0-.259.11-.369l1.913-2.132a3.57,3.57,0,0,0,1.046-2.2c0-.817-.428-1.624-1.335-1.624a1.438,1.438,0,0,0-1.345,1.017.381.381,0,0,1,.13-.01.5.5,0,0,1,.528.517.524.524,0,1,1-1.047-.03,1.841,1.841,0,0,1,1.864-1.8,1.957,1.957,0,0,1,2.112,1.933c0,1-.6,1.534-2.152,2.909l-1.056,1.026Z" transform="translate(-441.512 -333.711)"/>
    </g>
    <g>
      <path class="cls-1" d="M616.553,408.937v-.309l3.059-4.673c.079-.12.11-.12.2-.12.16,0,.16.061.16.26v4.533h1v.309h-1v.867c0,.358.02.468.757.468h.209v.309c-.409-.03-.937-.03-1.355-.03s-.936,0-1.345.03v-.309h.209c.738,0,.757-.11.757-.468v-.867Zm2.71-4.026-2.431,3.717h2.431Z" transform="translate(-441.512 -333.711)"/>
      <path class="cls-1" d="M632.733,410.8a1.829,1.829,0,0,1-1.8-1.823.495.495,0,1,1,.488.448.449.449,0,0,1-.169-.02,1.552,1.552,0,0,0,1.465,1.116,1.245,1.245,0,0,0,1.066-.647,2.9,2.9,0,0,0,.239-1.365,3.077,3.077,0,0,0-.179-1.256.974.974,0,0,0-.847-.638,1.493,1.493,0,0,0-1.285.7c-.04.06-.06.089-.13.089-.139,0-.139-.079-.139-.258v-2.95c0-.159,0-.239.1-.239a.3.3,0,0,1,.12.03,3.235,3.235,0,0,0,1.325.279,3.308,3.308,0,0,0,1.355-.289.146.146,0,0,1,.08-.03.1.1,0,0,1,.1.11,2.173,2.173,0,0,1-1.924,1.036,3.136,3.136,0,0,1-.846-.13V406.9a1.754,1.754,0,0,1,1.265-.508,2.045,2.045,0,0,1,1.893,2.182A2.2,2.2,0,0,1,632.733,410.8Z" transform="translate(-441.512 -333.711)"/>
      <path class="cls-1" d="M647.148,406.326a2.091,2.091,0,0,1,1.994,2.223,2.132,2.132,0,0,1-2.053,2.251c-.927,0-2.083-.707-2.083-3.367,0-2.2,1.346-3.488,2.621-3.488.827,0,1.265.478,1.265,1.076a.458.458,0,1,1-.916.02c0-.448.4-.448.547-.448a1.025,1.025,0,0,0-.876-.4c-.508,0-1.744.359-1.744,2.879v.24A1.379,1.379,0,0,1,647.148,406.326Zm.927,3.548a3.315,3.315,0,0,0,.17-1.336,3.278,3.278,0,0,0-.18-1.364.961.961,0,0,0-.926-.618c-.9,0-1.216,1-1.216,1.773a4.846,4.846,0,0,0,.18,1.445,1.143,1.143,0,0,0,.986.747A1.04,1.04,0,0,0,648.075,409.874Z" transform="translate(-441.512 -333.711)"/>
    </g>
    <path class="cls-1" d="M676.98,407.682a1.8,1.8,0,0,1,.488,1.225A1.987,1.987,0,0,1,675.4,410.8a1.9,1.9,0,0,1-2.063-1.724,2.2,2.2,0,0,1,1.435-1.833,6.366,6.366,0,0,1-.727-.538,1.593,1.593,0,0,1-.439-1.1,1.733,1.733,0,0,1,1.8-1.664,1.646,1.646,0,0,1,1.793,1.485,1.852,1.852,0,0,1-1.2,1.544A4.22,4.22,0,0,1,676.98,407.682Zm-3.149,1.394a1.5,1.5,0,0,0,1.575,1.445,1.434,1.434,0,0,0,1.564-1.255,1.334,1.334,0,0,0-.747-1.1L675,407.393A1.952,1.952,0,0,0,673.831,409.076Zm1.943-2.252a1.689,1.689,0,0,0,.987-1.394,1.3,1.3,0,0,0-1.365-1.236c-.708,0-1.355.418-1.355,1.027a.928.928,0,0,0,.5.806Z" transform="translate(-441.512 -333.711)"/>
    <g>
      <path class="cls-1" d="M543.782,408.718v-.578h2.64v.578Z" transform="translate(-441.512 -333.711)"/>
      <path class="cls-1" d="M549.959,409.794c0,.368.03.478.927.478h.319v.309c-.349-.03-1.216-.03-1.615-.03s-1.265,0-1.613.03v-.309h.318c.9,0,.927-.12.927-.478v-5.161a2.984,2.984,0,0,1-1.3.259v-.309a2.461,2.461,0,0,0,1.813-.638c.229,0,.229.02.229.259Z" transform="translate(-441.512 -333.711)"/>
    </g>
    <g>
      <path class="cls-1" d="M529.625,408.718v-.578h2.641v.578Z" transform="translate(-441.512 -333.711)"/>
      <path class="cls-1" d="M535.933,409.813a.8.8,0,0,0,1.165-.965h.249l-.279,1.733h-3.7c0-.239,0-.259.109-.369l1.914-2.132a3.574,3.574,0,0,0,1.045-2.2c0-.817-.428-1.624-1.335-1.624a1.438,1.438,0,0,0-1.345,1.017.381.381,0,0,1,.13-.01.5.5,0,0,1,.528.517.524.524,0,1,1-1.046-.03,1.84,1.84,0,0,1,1.863-1.8,1.957,1.957,0,0,1,2.112,1.933c0,1-.6,1.534-2.152,2.909l-1.056,1.026Z" transform="translate(-441.512 -333.711)"/>
    </g>
    <g>
      <path class="cls-1" d="M501.305,408.718v-.578h2.641v.578Z" transform="translate(-441.512 -333.711)"/>
      <path class="cls-1" d="M504.832,408.937v-.309l3.059-4.673c.08-.12.11-.12.2-.12.16,0,.16.061.16.26v4.533h1v.309h-1v.867c0,.358.02.468.757.468h.209v.309c-.408-.03-.936-.03-1.355-.03s-.936,0-1.345.03v-.309h.21c.737,0,.756-.11.756-.468v-.867Zm2.71-4.026-2.431,3.717h2.431Z" transform="translate(-441.512 -333.711)"/>
    </g>
    <g>
      <path class="cls-1" d="M487.016,408.718v-.578h2.641v.578Z" transform="translate(-441.512 -333.711)"/>
      <path class="cls-1" d="M492.566,410.8a1.829,1.829,0,0,1-1.8-1.823.495.495,0,1,1,.488.448.449.449,0,0,1-.169-.02,1.552,1.552,0,0,0,1.465,1.116,1.245,1.245,0,0,0,1.066-.647,2.9,2.9,0,0,0,.239-1.365,3.077,3.077,0,0,0-.179-1.256.974.974,0,0,0-.847-.638,1.493,1.493,0,0,0-1.285.7c-.04.06-.06.089-.13.089-.139,0-.139-.079-.139-.258v-2.95c0-.159,0-.239.1-.239a.3.3,0,0,1,.12.03,3.239,3.239,0,0,0,1.325.279,3.308,3.308,0,0,0,1.355-.289.146.146,0,0,1,.08-.03.1.1,0,0,1,.1.11,2.173,2.173,0,0,1-1.924,1.036,3.136,3.136,0,0,1-.846-.13V406.9a1.754,1.754,0,0,1,1.265-.508,2.045,2.045,0,0,1,1.893,2.182A2.2,2.2,0,0,1,492.566,410.8Z" transform="translate(-441.512 -333.711)"/>
    </g>
    <g>
      <path class="cls-1" d="M472.977,408.718v-.578h2.641v.578Z" transform="translate(-441.512 -333.711)"/>
      <path class="cls-1" d="M478.786,406.326a2.09,2.09,0,0,1,1.993,2.223,2.132,2.132,0,0,1-2.053,2.251c-.927,0-2.082-.707-2.082-3.367,0-2.2,1.345-3.488,2.62-3.488.827,0,1.266.478,1.266,1.076a.459.459,0,1,1-.917.02c0-.448.4-.448.548-.448a1.028,1.028,0,0,0-.877-.4c-.508,0-1.743.359-1.743,2.879v.24A1.376,1.376,0,0,1,478.786,406.326Zm.926,3.548a5.31,5.31,0,0,0-.009-2.7.962.962,0,0,0-.927-.618c-.9,0-1.216,1-1.216,1.773a4.846,4.846,0,0,0,.18,1.445,1.143,1.143,0,0,0,.986.747A1.04,1.04,0,0,0,479.712,409.874Z" transform="translate(-441.512 -333.711)"/>
    </g>
    <g>
      <path class="cls-1" d="M444.532,408.718v-.578h2.64v.578Z" transform="translate(-441.512 -333.711)"/>
      <path class="cls-1" d="M451.845,407.682a1.8,1.8,0,0,1,.488,1.225,1.986,1.986,0,0,1-2.072,1.893,1.9,1.9,0,0,1-2.063-1.724,2.2,2.2,0,0,1,1.435-1.833,6.366,6.366,0,0,1-.727-.538,1.593,1.593,0,0,1-.439-1.1,1.733,1.733,0,0,1,1.8-1.664,1.646,1.646,0,0,1,1.793,1.485,1.852,1.852,0,0,1-1.205,1.544A4.2,4.2,0,0,1,451.845,407.682Zm-3.149,1.394a1.5,1.5,0,0,0,1.575,1.445,1.434,1.434,0,0,0,1.564-1.255,1.332,1.332,0,0,0-.747-1.1l-1.226-.777A1.952,1.952,0,0,0,448.7,409.076Zm1.944-2.252a1.69,1.69,0,0,0,.986-1.394,1.3,1.3,0,0,0-1.365-1.236c-.708,0-1.355.418-1.355,1.027a.928.928,0,0,0,.5.806Z" transform="translate(-441.512 -333.711)"/>
    </g>
    <path class="cls-2" d="M717.532,389.7a2.495,2.495,0,1,0-2.494,2.494,2.5,2.5,0,0,0,2.494-2.494Zm.356-.04H730.3m5.348.04a2.495,2.495,0,1,0-2.494,2.494,2.5,2.5,0,0,0,2.494-2.494Z" transform="translate(-441.512 -333.711)"/>
    <polyline points="470.265 72.391 474.801 70.123 470.265 67.855 471.399 70.123"/>
    <line class="cls-2" x1="304.723" y1="70.123" x2="471.399" y2="70.123"/>
    <polyline points="392.029 14.422 389.762 9.887 387.494 14.422 389.762 13.288"/>
    <line class="cls-2" x1="389.762" y1="80.753" x2="389.762" y2="13.288"/>
    <path class="cls-1" d="M848.329,338.15a.6.6,0,0,0,.19-.358c0-.28-.309-.3-.4-.31-.069-.009-.119-.039-.119-.109,0-.2.129-.2.189-.2.359,0,.738.03,1.106.03.308,0,.638-.03.936-.03.13,0,.13.1.13.109,0,.19-.09.19-.219.2a2.029,2.029,0,0,0-1.265.509c-.319.279-1.365,1.465-2.043,2.162.229.6.9,2.152,1.285,3.079.17.4.19.428.858.438.079,0,.178,0,.178.12,0,.189-.119.189-.189.189-.249,0-.857-.03-1.106-.03-.279,0-.976.03-1.256.03-.04,0-.149,0-.149-.12,0-.169.09-.179.2-.189.389-.04.578-.209.578-.289a.675.675,0,0,0-.049-.139l-1.006-2.382-.9.977-1.015,1.076c-.12.129-.27.289-.27.448,0,.279.309.3.4.309a.113.113,0,0,1,.12.11c0,.2-.12.2-.18.2-.358,0-.747-.03-1.116-.03-.309,0-.638.03-.937.03-.13,0-.13-.1-.13-.109,0-.19.09-.19.22-.2a2.015,2.015,0,0,0,1.465-.717l.129-.11,2.1-2.262-1.175-2.78c-.089-.219-.15-.319-.747-.319-.13,0-.23,0-.23-.109,0-.2.12-.2.18-.2.249,0,.867.03,1.116.03.418,0,.847-.03,1.255-.03.03,0,.149,0,.149.119,0,.169-.1.18-.2.189-.418.04-.588.229-.588.289,0,.01.021.05.05.13l.838,1.983Z" transform="translate(-441.512 -333.711)"/>
    <g>
      <path class="cls-1" d="M854.2,346.47a4.3,4.3,0,0,1-1.553-1.873,7.665,7.665,0,0,1-.031-6.148,4.348,4.348,0,0,1,1.584-1.943.089.089,0,0,1,.1.1c0,.031,0,.05-.129.17a6.516,6.516,0,0,0-1.605,4.713,6.6,6.6,0,0,0,1.565,4.663c.169.169.169.189.169.22A.089.089,0,0,1,854.2,346.47Z" transform="translate(-441.512 -333.711)"/>
      <path class="cls-1" d="M856.24,343.172a1.339,1.339,0,0,0,1.126.667,1.4,1.4,0,0,0,1.345-1.026c.019-.08.04-.139.13-.139a.115.115,0,0,1,.129.119,1.7,1.7,0,0,1-1.664,1.3,2.249,2.249,0,0,1-2.192-2.3,2.178,2.178,0,0,1,2.073-2.272,1.767,1.767,0,0,1,1.783,1.953c0,.209-.03.209-.249.209h-2.78A2.9,2.9,0,0,0,856.24,343.172Zm2.073-1.7c0-.388-.1-1.734-1.126-1.734-.339,0-1.176.249-1.236,1.734Z" transform="translate(-441.512 -333.711)"/>
    </g>
    <path class="cls-1" d="M861.374,340.875a1.435,1.435,0,0,1-1.365,1.545c-.569,0-1.126-.279-1.126-.8a.459.459,0,0,1,.917,0,.46.46,0,0,1-.35.448,1.209,1.209,0,0,0,.538.13c.638,0,.728-.857.728-1.305V336.95c0-.489-.09-.558-.857-.558v-.309l1.515-.11Zm-.528-6.107a.529.529,0,1,1,.528-.528A.532.532,0,0,1,860.846,334.768Z" transform="translate(-441.512 -333.711)"/>
    <path class="cls-1" d="M863.675,340.447c-.642,0-.962-.683-.962-1.513,0-1.6,1.115-3.466,2.161-3.466.684,0,.963.782.963,1.513C865.837,338.543,864.735,340.447,863.675,340.447Zm-.237-2.364a5.336,5.336,0,0,0-.2,1.262c0,.377.064.907.447.907.307,0,.586-.328.8-.69a5.011,5.011,0,0,0,.565-1.479Zm1.673-.251a5.493,5.493,0,0,0,.2-1.262c0-.132,0-.906-.446-.906-.411,0-1.011.662-1.366,2.168Z" transform="translate(-441.512 -333.711)"/>
    <path class="cls-1" d="M869.1,344.527a4.348,4.348,0,0,1-1.584,1.943.094.094,0,0,1-.1-.1c0-.031,0-.051.129-.17a6.537,6.537,0,0,0,1.6-4.713,6.466,6.466,0,0,0-1.545-4.653c-.189-.18-.189-.2-.189-.23a.094.094,0,0,1,.1-.1,4.3,4.3,0,0,1,1.553,1.873,7.665,7.665,0,0,1,.031,6.148Z" transform="translate(-441.512 -333.711)"/>
    <path class="cls-1" d="M925.091,407.448c-.907,0-1.2-1.1-1.2-2.042,0-2.282,1.534-5.092,2.918-5.092,1.017,0,1.2,1.385,1.2,2.042C928.01,404.589,926.5,407.448,925.091,407.448Zm-.22-3.407a7.617,7.617,0,0,0-.318,1.973c0,.926.209,1.215.538,1.215.429,0,.806-.488,1.155-1.166a8.9,8.9,0,0,0,.7-2.022Zm2.163-.319a8.321,8.321,0,0,0,.319-1.983c0-.568-.06-1.206-.548-1.206-.449,0-.818.559-1.086,1.047a8.993,8.993,0,0,0-.768,2.142Z" transform="translate(-441.512 -333.711)"/>
    <line class="cls-3" x1="432.281" y1="73.666" x2="432.281" y2="66.58"/>
    <path class="cls-1" d="M872.887,415.191c-.129.5-.129.519-.269.977-.119.369-.2.647-.5.647a.27.27,0,0,1-.289-.268c0-.07,0-.09.08-.239a21.224,21.224,0,0,0,1.276-3.319h-.569a1.4,1.4,0,0,0-1.265.768c-.06.08-.08.119-.16.119-.12,0-.12-.09-.12-.1a3.6,3.6,0,0,1,.609-.9,1.265,1.265,0,0,1,1.036-.469h3.338c.189,0,.4,0,.4.239,0,.339-.358.339-.488.339H874.83a7.779,7.779,0,0,0-.18,1.585,4.285,4.285,0,0,0,.289,1.644.425.425,0,0,1,.061.22.419.419,0,0,1-.409.377c-.15,0-.259-.059-.359-.5a3.12,3.12,0,0,1-.08-.756,10.958,10.958,0,0,1,.419-2.572h-1.126Z" transform="translate(-441.512 -333.711)"/>
    <line class="cls-3" x1="347.242" y1="73.666" x2="347.242" y2="66.58"/>
    <path class="cls-1" d="M783.059,414.648c-.169,0-.349,0-.349-.2s.18-.2.349-.2h5.39c.169,0,.349,0,.349.2s-.18.2-.349.2Z" transform="translate(-441.512 -333.711)"/>
    <path class="cls-1" d="M791.762,415.426c-.129.5-.129.518-.269.976-.119.369-.2.648-.5.648a.27.27,0,0,1-.289-.269c0-.07,0-.09.08-.239a21.171,21.171,0,0,0,1.276-3.318h-.569a1.4,1.4,0,0,0-1.265.767c-.06.08-.08.119-.16.119-.12,0-.12-.089-.12-.1a3.575,3.575,0,0,1,.609-.9,1.267,1.267,0,0,1,1.036-.468h3.338c.189,0,.4,0,.4.239,0,.339-.358.339-.488.339h-1.136a7.764,7.764,0,0,0-.18,1.585,4.284,4.284,0,0,0,.289,1.643.427.427,0,0,1,.061.22.42.42,0,0,1-.409.378c-.15,0-.259-.06-.359-.5a3.131,3.131,0,0,1-.08-.757,10.944,10.944,0,0,1,.419-2.571H792.32Z" transform="translate(-441.512 -333.711)"/>
    <line class="cls-3" x1="347.242" y1="91.383" x2="347.242" y2="98.469"/>
    <line class="cls-3" x1="432.281" y1="91.383" x2="432.281" y2="98.469"/>
    <g>
      <path class="cls-1" d="M832.359,427.524h-.249c-.159-1.375-.409-1.933-1.9-1.933h-1.2c-.469,0-.489.07-.489.4v2.522h.857c.957,0,1.057-.329,1.057-1.166h.249v2.64h-.249c0-.847-.1-1.166-1.057-1.166h-.857v2.452c0,.348,0,.478.947.478h.329v.309c-.36-.031-1.266-.031-1.674-.031-.389,0-1.166,0-1.515.031v-.309h.24c.766,0,.787-.11.787-.469v-5.22c0-.36-.021-.469-.787-.469h-.24v-.309h5.47Z" transform="translate(-441.512 -333.711)"/>
      <path class="cls-1" d="M835,431.28c0,.359.029.469.816.469h.26v.309c-.348-.031-1.137-.031-1.524-.031s-1.166,0-1.515.031v-.309h.259c.787,0,.817-.11.817-.469v-5.251c0-.358-.03-.467-.817-.467h-.259v-.31c.349.03,1.136.03,1.525.03s1.166,0,1.514-.03v.31h-.26c-.787,0-.816.109-.816.467Z" transform="translate(-441.512 -333.711)"/>
    </g>
    <polyline points="427.746 97.194 432.281 94.926 427.746 92.658 428.88 94.926"/>
    <line class="cls-3" x1="396.848" y1="94.926" x2="428.88" y2="94.926"/>
    <polyline points="351.778 92.658 347.242 94.926 351.778 97.194 350.644 94.926"/>
    <line class="cls-3" x1="382.675" y1="94.926" x2="350.644" y2="94.926"/>
    <path class="cls-4" d="M852.533,403.834V361.315m0,0H810.014m0,0v42.519m0,0h-21.26m63.779,0h21.26" transform="translate(-441.512 -333.711)"/>
    <line class="cls-5" x1="432.281" y1="70.123" x2="453.541" y2="70.123"/>
    <line class="cls-6" x1="453.541" y1="70.123" x2="453.541" y2="27.603"/>
    <line class="cls-7" x1="453.541" y1="27.603" x2="474.801" y2="27.603"/>
    <line class="cls-8" x1="325.982" y1="70.123" x2="347.242" y2="70.123"/>
    <line class="cls-6" x1="325.982" y1="70.123" x2="325.982" y2="27.603"/>
    <line class="cls-5" x1="304.723" y1="27.603" x2="325.982" y2="27.603"/>
    <path class="cls-1" d="M851.893,411.506c-.167.628-.245.941-.524.941a.225.225,0,0,1-.243-.222.375.375,0,0,1,.02-.105c.021-.028.091-.175.133-.266a12.614,12.614,0,0,0,.8-2.007h-.426a1.085,1.085,0,0,0-.941.488c-.042.062-.049.076-.125.076-.028,0-.119,0-.119-.083a2.131,2.131,0,0,1,.453-.6,1.025,1.025,0,0,1,.8-.357h2.629c.118,0,.3,0,.3.2a.293.293,0,0,1-.119.217.363.363,0,0,1-.257.056H853.4a4.354,4.354,0,0,0-.1.906,2.649,2.649,0,0,0,.259,1.227.265.265,0,0,1,.055.154.34.34,0,0,1-.328.313c-.111,0-.2-.027-.313-.376a2.24,2.24,0,0,1-.078-.621,7.1,7.1,0,0,1,.258-1.6h-.829Z" transform="translate(-441.512 -333.711)"/>
    <polyline points="408.646 80.349 413.566 80.349 413.566 79.869 408.646 79.869"/>
    <path class="cls-1" d="M853.953,419.706H851.08c0-.195,0-.209.069-.271l1.681-1.661a2.114,2.114,0,0,0,.655-1.338,1.043,1.043,0,0,0-1.059-1.109,1.1,1.1,0,0,0-1.019.649c.364,0,.412.244.412.369a.37.37,0,1,1-.739-.021,1.352,1.352,0,0,1,1.45-1.248,1.46,1.46,0,0,1,1.632,1.36,2.015,2.015,0,0,1-1,1.5c-.419.329-.662.524-1.394,1.172h1.283a3.589,3.589,0,0,0,.69-.042,1.624,1.624,0,0,0,.181-.634h.237Z" transform="translate(-441.512 -333.711)"/>
    <path class="cls-9" d="M860.778,377.448c-.907,0-1.2-1.106-1.2-2.043,0-2.281,1.534-5.091,2.919-5.091,1.017,0,1.2,1.385,1.2,2.042C863.7,374.588,862.184,377.448,860.778,377.448Zm-.219-3.407a7.625,7.625,0,0,0-.319,1.972c0,.927.209,1.216.538,1.216.429,0,.807-.488,1.156-1.166a8.945,8.945,0,0,0,.7-2.022Zm2.163-.319a8.313,8.313,0,0,0,.318-1.983c0-.568-.06-1.206-.548-1.206-.448,0-.817.558-1.086,1.046a9.054,9.054,0,0,0-.767,2.143Z" transform="translate(-441.512 -333.711)"/>
    <path class="cls-9" d="M866.283,375.9a1.274,1.274,0,0,0-.975.537,2.872,2.872,0,0,0-.461,1.443.69.69,0,0,0,.725.774,1.977,1.977,0,0,0,1.486-.641c.055-.056.069-.07.111-.07a.149.149,0,0,1,.119.119,1.89,1.89,0,0,1-1.729.788,1.2,1.2,0,0,1-1.29-1.214,2.089,2.089,0,0,1,2.014-1.931c.377,0,.921.132.921.606a.407.407,0,0,1-.4.446.251.251,0,0,1-.273-.257.4.4,0,0,1,.357-.391A.874.874,0,0,0,866.283,375.9Z" transform="translate(-441.512 -333.711)"/>
    <path class="cls-9" d="M871.576,374.08c-.149,0-.339,0-.339-.2s.19-.2.329-.2h5.969c.14,0,.328,0,.328.2s-.188.2-.338.2Zm-.01,1.933c-.139,0-.329,0-.329-.2s.19-.2.339-.2h5.949c.15,0,.338,0,.338.2s-.188.2-.328.2Z" transform="translate(-441.512 -333.711)"/>
    <path class="cls-9" d="M884.174,372.514c-.167.627-.244.941-.524.941a.225.225,0,0,1-.243-.223.344.344,0,0,1,.021-.105c.02-.028.091-.174.133-.265a12.546,12.546,0,0,0,.8-2.008h-.425a1.087,1.087,0,0,0-.942.488c-.042.063-.049.077-.125.077-.028,0-.119,0-.119-.084a2.146,2.146,0,0,1,.453-.6,1.024,1.024,0,0,1,.8-.355h2.629c.118,0,.3,0,.3.2a.294.294,0,0,1-.119.216.366.366,0,0,1-.258.056h-.872a4.311,4.311,0,0,0-.1.906,2.653,2.653,0,0,0,.259,1.228.263.263,0,0,1,.055.153.339.339,0,0,1-.328.314c-.111,0-.2-.028-.313-.376a2.252,2.252,0,0,1-.077-.621,7.054,7.054,0,0,1,.258-1.6h-.83Z" transform="translate(-441.512 -333.711)"/>
    <polyline class="cls-9" points="440.926 41.349 445.846 41.349 445.846 40.869 440.926 40.869"/>
    <path class="cls-9" d="M886.234,380.7h-2.873c0-.2,0-.209.07-.272l1.68-1.66a2.114,2.114,0,0,0,.656-1.339,1.044,1.044,0,0,0-1.06-1.109,1.1,1.1,0,0,0-1.019.649c.364,0,.413.244.413.369a.37.37,0,1,1-.74-.02,1.353,1.353,0,0,1,1.451-1.249,1.459,1.459,0,0,1,1.631,1.36,2.018,2.018,0,0,1-1,1.507c-.419.327-.662.523-1.394,1.171h1.283a3.583,3.583,0,0,0,.69-.042,1.613,1.613,0,0,0,.181-.634h.237Z" transform="translate(-441.512 -333.711)"/>
    <path class="cls-1" d="M803.7,414.055c-.169,0-.348,0-.348-.2s.179-.2.348-.2h5.391c.169,0,.348,0,.348.2s-.179.2-.348.2Z" transform="translate(-441.512 -333.711)"/>
    <path class="cls-1" d="M813.252,411.506c-.167.628-.244.941-.523.941a.225.225,0,0,1-.244-.222.337.337,0,0,1,.021-.105c.02-.028.091-.175.133-.266a12.53,12.53,0,0,0,.8-2.007h-.425a1.087,1.087,0,0,0-.942.488c-.042.062-.049.076-.125.076-.028,0-.119,0-.119-.083a2.151,2.151,0,0,1,.453-.6,1.027,1.027,0,0,1,.8-.357h2.629c.118,0,.3,0,.3.2a.3.3,0,0,1-.119.217.364.364,0,0,1-.258.056h-.872a4.311,4.311,0,0,0-.1.906,2.649,2.649,0,0,0,.259,1.227.268.268,0,0,1,.056.154.34.34,0,0,1-.329.313c-.111,0-.2-.027-.313-.376a2.247,2.247,0,0,1-.077-.621,7.045,7.045,0,0,1,.258-1.6h-.829Z" transform="translate(-441.512 -333.711)"/>
    <polyline points="370.006 80.349 374.926 80.349 374.926 79.869 370.006 79.869"/>
    <path class="cls-1" d="M815.313,419.706h-2.874c0-.195,0-.209.07-.271l1.68-1.661a2.114,2.114,0,0,0,.656-1.338,1.044,1.044,0,0,0-1.06-1.109,1.1,1.1,0,0,0-1.018.649c.363,0,.412.244.412.369a.37.37,0,1,1-.74-.021,1.353,1.353,0,0,1,1.451-1.248,1.459,1.459,0,0,1,1.631,1.36,2.015,2.015,0,0,1-1,1.5c-.419.329-.662.524-1.394,1.172h1.283a3.6,3.6,0,0,0,.691-.042,1.625,1.625,0,0,0,.18-.634h.237Z" transform="translate(-441.512 -333.711)"/>
    <path class="cls-1" d="M824.648,356.629c0,.369.03.478.927.478h.319v.31c-.349-.03-1.216-.03-1.615-.03s-1.265,0-1.614.03v-.31h.319c.9,0,.927-.119.927-.478v-5.161a2.986,2.986,0,0,1-1.306.259v-.309a2.461,2.461,0,0,0,1.814-.638c.229,0,.229.02.229.26Z" transform="translate(-441.512 -333.711)"/>
    <polyline points="415.436 62.878 414.565 66.58 418.049 65.055 416.198 64.62"/>
    <line class="cls-10" x1="432.281" y1="45.32" x2="416.198" y2="64.62"/>
  </g>
</svg>
