<svg id="Layer_1" data-name="Layer 1" xmlns="http://www.w3.org/2000/svg" viewBox="0 0 252.688 198.424">
  <defs>
    <style>
      .cls-1 {
        fill: #1d1d1b;
      }

      .cls-2, .cls-3 {
        fill: none;
        stroke: #000;
        stroke-miterlimit: 10;
      }

      .cls-2 {
        stroke-width: 0.85px;
      }

      .cls-3 {
        stroke-width: 2.835px;
      }
    </style>
  </defs>
  <title>Phasors1</title>
  <g>
    <path class="cls-1" d="M718.334,320.963c0-.309.011-.319.279-.319h8.26l.857,2.332h-.249c-.7-1.864-2.989-1.934-4.125-1.934H719.41l3.238,4.444c.061.09.071.1.071.14s-.021.07-.09.16l-3.458,4.274h4.235a7.134,7.134,0,0,0,2.312-.289,2.743,2.743,0,0,0,1.763-1.644h.249l-.857,2.481h-8.26c-.179,0-.268,0-.268-.109,0-.041.009-.061.089-.16l3.538-4.374Z" transform="translate(-554.968 -289.055)"/>
    <path class="cls-1" d="M734.149,320.084a1.575,1.575,0,0,1-.021,3.145,2.148,2.148,0,0,1-1.255-.425,3.553,3.553,0,0,1-.746-.739,2.477,2.477,0,0,1-1.9,1.164,1.515,1.515,0,0,1-1.47-1.568,1.531,1.531,0,0,1,1.492-1.577,2.15,2.15,0,0,1,1.255.426,3.577,3.577,0,0,1,.746.739A2.478,2.478,0,0,1,734.149,320.084Zm-4.009.384a1.191,1.191,0,0,0-1.186,1.193,1.26,1.26,0,0,0,1.213,1.3,2.206,2.206,0,0,0,1.736-1.157C731.234,321,730.788,320.468,730.14,320.468Zm4.1,2.378a1.191,1.191,0,0,0,1.186-1.193,1.26,1.26,0,0,0-1.213-1.3,2.206,2.206,0,0,0-1.736,1.157C733.145,322.316,733.591,322.846,734.239,322.846Z" transform="translate(-554.968 -289.055)"/>
    <path class="cls-1" d="M729.714,329.233a2.772,2.772,0,0,0,.808-.613,1.812,1.812,0,0,1,1.117-.614.494.494,0,0,1,.537.489.415.415,0,0,1-.4.446.259.259,0,0,1-.279-.258.4.4,0,0,1,.362-.391.285.285,0,0,0-.229-.09,1.836,1.836,0,0,0-1.095.662,5.043,5.043,0,0,1-.579.46c.293.021,1.13.119,1.13.739a.986.986,0,0,1-.035.217.98.98,0,0,0-.042.313c0,.189.055.363.244.363.342,0,.53-.5.614-.8.034-.132.041-.167.139-.167.021,0,.112,0,.112.09,0,.007-.21,1.067-.886,1.067a.709.709,0,0,1-.739-.718.671.671,0,0,1,.027-.216.568.568,0,0,0,.015-.139c0-.363-.4-.524-.892-.573-.029.1-.329,1.326-.342,1.353a.337.337,0,0,1-.322.293.227.227,0,0,1-.236-.223.626.626,0,0,1,.034-.153l.984-3.947a.791.791,0,0,0,.028-.154c0-.055,0-.1-.335-.1-.084,0-.182,0-.182-.1,0-.146.1-.153.154-.16.175-.014.754-.07.892-.07a.1.1,0,0,1,.113.1.834.834,0,0,1-.029.111Z" transform="translate(-554.968 -289.055)"/>
    <path class="cls-1" d="M733.287,328.739c-.1,0-.265,0-.265-.175s.167-.167.258-.167H737.9c.091,0,.258,0,.258.167s-.16.175-.264.175Zm-.007,1.533c-.091,0-.258,0-.258-.167s.161-.174.265-.174h4.6c.1,0,.264,0,.264.174s-.167.167-.258.167Z" transform="translate(-554.968 -289.055)"/>
    <g>
      <path class="cls-1" d="M739.684,329.505c-.12,0-.28,0-.28-.174s.168-.167.28-.167h4.156c.118,0,.278,0,.278.174s-.167.167-.278.167Z" transform="translate(-554.968 -289.055)"/>
      <path class="cls-1" d="M750.82,328.006a1.575,1.575,0,0,1-.021,3.145,2.148,2.148,0,0,1-1.255-.425,3.553,3.553,0,0,1-.746-.739,2.48,2.48,0,0,1-1.9,1.164,1.515,1.515,0,0,1-1.471-1.568,1.531,1.531,0,0,1,1.492-1.577,2.15,2.15,0,0,1,1.255.426,3.577,3.577,0,0,1,.746.739A2.478,2.478,0,0,1,750.82,328.006Zm-4.009.384a1.191,1.191,0,0,0-1.186,1.193,1.26,1.26,0,0,0,1.213,1.3,2.208,2.208,0,0,0,1.736-1.157C747.905,328.92,747.459,328.39,746.811,328.39Zm4.1,2.378a1.191,1.191,0,0,0,1.186-1.193,1.261,1.261,0,0,0-1.213-1.3,2.211,2.211,0,0,0-1.737,1.158C749.815,330.238,750.262,330.768,750.91,330.768Z" transform="translate(-554.968 -289.055)"/>
    </g>
    <path class="cls-1" d="M756.5,327.274a1.339,1.339,0,0,0,1.126.668,1.4,1.4,0,0,0,1.345-1.026c.019-.08.04-.14.13-.14a.115.115,0,0,1,.128.12,1.7,1.7,0,0,1-1.664,1.295,2.249,2.249,0,0,1-2.191-2.3,2.177,2.177,0,0,1,2.072-2.272,1.767,1.767,0,0,1,1.783,1.953c0,.209-.029.209-.249.209H756.2A2.9,2.9,0,0,0,756.5,327.274Zm2.072-1.7c0-.389-.1-1.734-1.126-1.734-.339,0-1.176.249-1.235,1.734Z" transform="translate(-554.968 -289.055)"/>
    <path class="cls-1" d="M761.627,324.15a1.434,1.434,0,0,1-1.365,1.544c-.569,0-1.126-.278-1.126-.8a.459.459,0,0,1,.917,0,.46.46,0,0,1-.35.449,1.217,1.217,0,0,0,.538.129c.638,0,.728-.857.728-1.305v-3.946c0-.488-.09-.557-.857-.557v-.31l1.515-.109Zm-.528-6.108a.528.528,0,1,1,.528-.528A.532.532,0,0,1,761.1,318.042Z" transform="translate(-554.968 -289.055)"/>
    <path class="cls-1" d="M766.628,321h-2.313v-.149c0-.035.01-.035.06-.08l1.214-1.029a1.466,1.466,0,0,0,.671-1.059.8.8,0,0,0-.886-.777.89.89,0,0,0-.761.373.289.289,0,0,1,.284.294.284.284,0,0,1-.293.294.288.288,0,0,1-.289-.3c0-.487.493-.876,1.164-.876.711,0,1.313.353,1.313.99,0,.528-.418.816-.865,1.125-.3.2-.667.477-1,.721h.975a2.97,2.97,0,0,0,.532-.03c.08-.05.129-.358.144-.453h.209Z" transform="translate(-554.968 -289.055)"/>
    <path class="cls-1" d="M770.022,319.237a3.27,3.27,0,0,0-.054.538,1.8,1.8,0,0,0,.228.9.249.249,0,0,1,.055.139.273.273,0,0,1-.259.244c-.219,0-.343-.468-.343-.81a4.7,4.7,0,0,1,.16-1.011h-.653c-.114.443-.2.8-.318,1.189-.114.4-.184.632-.393.632a.177.177,0,0,1-.188-.179c0-.05,0-.06.074-.189a7.131,7.131,0,0,0,.607-1.453h-.353a.86.86,0,0,0-.712.324c-.039.044-.039.05-.109.05-.03,0-.1,0-.1-.07a1.6,1.6,0,0,1,.358-.433.886.886,0,0,1,.627-.249h2.134c.085,0,.235,0,.235.16a.272.272,0,0,1-.08.169.3.3,0,0,1-.209.049Z" transform="translate(-554.968 -289.055)"/>
    <polyline points="208.768 33.033 216.808 33.033 216.808 32.673 208.768 32.673"/>
    <path class="cls-1" d="M765.985,325.625a.31.31,0,0,0-.019.1c0,.055.03.06.069.065a2.087,2.087,0,0,0,.394.025h.109c.084,0,.159,0,.159.084,0,.139-.094.139-.13.139-.148,0-.307-.015-.457-.015s-.323,0-.482,0-.309,0-.463,0-.309.015-.458.015a.088.088,0,0,1-.1-.084.2.2,0,0,1,.045-.115c.026-.019.031-.024.135-.024h.109c.523,0,.538-.05.578-.209l.666-2.662v-.03a1.009,1.009,0,0,0-.16-.009h-.537c-.676,0-.82.238-1.045.83-.044.12-.048.135-.128.135s-.105-.055-.105-.085a.787.787,0,0,1,.03-.084l.328-.916c.04-.1.045-.1.174-.1h3.488c.084,0,.164,0,.164.085a.32.32,0,0,1-.01.079l-.125.89c-.01.09-.02.135-.114.135-.075,0-.105-.04-.105-.09l0-.045a2.423,2.423,0,0,0,.035-.368c0-.308-.069-.462-.627-.462h-.532c-.209,0-.209.009-.249.164Z" transform="translate(-554.968 -289.055)"/>
    <path class="cls-1" d="M769.933,324.982c-.717,0-.717.413-.717.417,0,.2.244.244.6.3.258.045.806.129.806.577,0,.2-.175.791-1.194.791-.145,0-.92,0-.92-.487a.328.328,0,0,1,.318-.359.2.2,0,0,1,.214.2.316.316,0,0,1-.259.3,1.01,1.01,0,0,0,.657.169c.916,0,.916-.513.916-.518,0-.253-.349-.308-.663-.358a1.228,1.228,0,0,1-.551-.164.432.432,0,0,1-.195-.353c0-.179.16-.691,1-.691.373,0,.766.1.766.437a.278.278,0,0,1-.264.309.179.179,0,0,1-.188-.18.26.26,0,0,1,.2-.248A.759.759,0,0,0,769.933,324.982Z" transform="translate(-554.968 -289.055)"/>
    <g>
      <path class="cls-1" d="M774.472,321.8a2.777,2.777,0,0,0,.808-.614,1.816,1.816,0,0,1,1.116-.613.493.493,0,0,1,.538.488.415.415,0,0,1-.4.446.259.259,0,0,1-.279-.258.4.4,0,0,1,.362-.39.284.284,0,0,0-.229-.091,1.835,1.835,0,0,0-1.1.663,5.271,5.271,0,0,1-.579.46c.293.021,1.13.118,1.13.739a1.051,1.051,0,0,1-.035.216.983.983,0,0,0-.042.314c0,.188.055.362.244.362.341,0,.53-.5.614-.8.034-.132.041-.167.139-.167.021,0,.112,0,.112.091,0,.007-.21,1.067-.886,1.067a.71.71,0,0,1-.739-.719.677.677,0,0,1,.027-.216.564.564,0,0,0,.015-.139c0-.363-.4-.523-.893-.572-.028.1-.328,1.325-.341,1.353a.338.338,0,0,1-.322.293.227.227,0,0,1-.236-.223.627.627,0,0,1,.034-.154l.984-3.947a.8.8,0,0,0,.028-.153c0-.056,0-.105-.335-.105-.084,0-.182,0-.182-.1,0-.146.1-.153.154-.16.174-.014.753-.069.892-.069a.1.1,0,0,1,.112.1.82.82,0,0,1-.028.111Z" transform="translate(-554.968 -289.055)"/>
      <path class="cls-1" d="M778.51,322.9a1.99,1.99,0,0,0-.041.286c0,.251.1.341.244.341.383,0,.738-.39.933-.83.057-.118.064-.132.147-.132.021,0,.112,0,.112.091s-.439,1.067-1.214,1.067a.688.688,0,0,1-.746-.663,3.7,3.7,0,0,1,.1-.516l.411-1.646H777.8c-.125,0-.209,0-.209-.1,0-.154.091-.154.223-.154h.711c.307-1.213.216-.878.265-1.053s.153-.3.328-.3a.224.224,0,0,1,.237.224.611.611,0,0,1-.021.1l-.258,1.032h.662c.119,0,.209,0,.209.1,0,.153-.09.153-.222.153h-.711Z" transform="translate(-554.968 -289.055)"/>
    </g>
    <path class="cls-1" d="M784.556,324.823c-.15,0-.339,0-.339-.2s.189-.2.329-.2h5.969c.139,0,.328,0,.328.2s-.189.2-.338.2Zm-.01,1.933c-.14,0-.329,0-.329-.2s.189-.2.339-.2h5.949c.149,0,.338,0,.338.2s-.189.2-.328.2Z" transform="translate(-554.968 -289.055)"/>
    <path class="cls-1" d="M801.619,323.677a2.29,2.29,0,0,1-.039,4.514,2.58,2.58,0,0,1-1.625-.628,5.663,5.663,0,0,1-.966-1.076,3.09,3.09,0,0,1-2.461,1.7,2.29,2.29,0,0,1,.039-4.514,2.579,2.579,0,0,1,1.624.628,5.656,5.656,0,0,1,.967,1.076A3.094,3.094,0,0,1,801.619,323.677Zm-3.975,1.107a1.848,1.848,0,0,0-1.236-.628,1.666,1.666,0,0,0-1.544,1.783,1.77,1.77,0,0,0,1.594,1.933,2.879,2.879,0,0,0,2.271-1.724C798.122,325.361,797.893,325.052,797.644,324.784Zm2.86,2.3a1.849,1.849,0,0,0,1.235.628,1.666,1.666,0,0,0,1.544-1.784A1.771,1.771,0,0,0,801.689,324a2.882,2.882,0,0,0-2.272,1.724C800.025,326.507,800.255,326.816,800.5,327.085Z" transform="translate(-554.968 -289.055)"/>
    <polyline points="159.448 24.993 252.688 24.993 252.688 24.513 159.448 24.513"/>
    <polyline points="159.448 46.113 159.928 46.113 159.928 24.753 159.448 24.753"/>
    <polyline points="252.088 46.113 252.568 46.113 252.568 24.753 252.088 24.753"/>
    <polyline points="159.448 46.353 252.688 46.353 252.688 45.873 159.448 45.873"/>
    <path class="cls-2" d="M732.643,393.086h0a82.006,82.006,0,1,0-82.006,82.006,82.036,82.036,0,0,0,82.006-82.006Z" transform="translate(-554.968 -289.055)"/>
    <polyline points="190.345 105.023 194.881 102.755 190.345 100.488 191.479 102.755"/>
    <line class="cls-2" y1="102.755" x2="191.479" y2="102.755"/>
    <polyline points="97.937 4.535 95.669 0 93.401 4.535 95.669 3.402"/>
    <line class="cls-2" x1="95.669" y1="198.424" x2="95.669" y2="3.402"/>
    <path d="M762.645,388.306c-.079-.14-.089-.15-.229-.15A2.981,2.981,0,0,0,760,389.282a1.762,1.762,0,0,0-1.395-1.016,1.174,1.174,0,0,0-1.116,1.195,1.325,1.325,0,0,0,.508.917c.558.558.558.717.558,1.086,0,.588-.06,1.186-.488,1.186-.269,0-.319-.369-.329-.548,0-.08-.01-.16-.13-.16s-.119.11-.119.15c0,.179.09.777.578.777.807,0,.807-1.275.807-1.5,0-.3-.02-.678-.7-1.306-.279-.249-.388-.4-.388-.618a.9.9,0,0,1,.807-.956c.518,0,.917.777.917,1.943v2.939c0,.09,0,1.923-.648,1.923-.369,0-.737-.309-.947-.936.03,0,.23-.07.23-.16,0-.06-.08-.109-.11-.109a.853.853,0,0,0-.209.069c-.01-.059-.06-.169-.13-.169a.158.158,0,0,0-.129.13.3.3,0,0,0,.039.129c-.059.01-.209.07-.209.15a.127.127,0,0,0,.11.109.63.63,0,0,0,.179-.06c.319.867.827,1.067,1.176,1.067.707,0,1.5-.907,1.5-2.93v-.727H761.5l.13,2.182a2.347,2.347,0,0,0-.04.329,1.154,1.154,0,0,0,1.156,1.146c.129,0,.149,0,.339-.14l.717-.558c.12-.1.13-.11.13-.149,0-.08-.16-.14-.19-.14a6.738,6.738,0,0,0-.857.658.968.968,0,0,1-.458-.817c0-.19.04-.22.04-.329,0-.289-.05-.807-.06-1.116-.02-.2-.06-1-.07-1.136a12.422,12.422,0,0,0,1.664-.827.123.123,0,0,0,.05-.1.681.681,0,0,0-.07-.149Zm.568,2.73c-.916.508-1.126.508-1.415.508h-1.444v-.488a3.888,3.888,0,0,0-.2-1.385c.349-.957,1.634-1.136,1.644-1.136s.08.1.09.109Z" transform="translate(-554.968 -289.055)"/>
    <path class="cls-1" d="M765.471,392.991a4.313,4.313,0,0,0-.159,1.036c0,.32.089,1.157.867,1.157a2.6,2.6,0,0,0,1.992-.987c.059-.08.08-.1.13-.1a.138.138,0,0,1,.119.129,2.66,2.66,0,0,1-2.262,1.175,1.615,1.615,0,0,1-1.564-1.8,2.713,2.713,0,0,1,2.611-2.71c.688,0,1.066.409,1.066.846a1.134,1.134,0,0,1-.748,1.027,4.456,4.456,0,0,1-1.524.229Zm.468-.219c.409,0,2,0,2-1.037a.657.657,0,0,0-.737-.627c-.26,0-1.286.15-1.675,1.664Z" transform="translate(-554.968 -289.055)"/>
    <path d="M664.127,299.817a.118.118,0,0,0-.1-.11c-1.5-.089-1.9-1.086-1.9-1.674a1.76,1.76,0,0,1,1.813-1.674c.568,0,.887.359,1.316.9a2.305,2.305,0,0,0,1.783,1.176c.7,0,1.136-.319,1.136-.7,0-.13-.1-.13-.159-.13-.13,0-.14.05-.15.139-.079.469-.787.469-.807.469-.139,0-.2-.03-.358-.319a3.051,3.051,0,0,0-2.721-1.754,2.027,2.027,0,0,0-2.162,1.893,2.071,2.071,0,0,0,2.142,1.894c.06,0,.17,0,.17-.11Zm-2.043,1.524c-.179,0-.269,0-.269.11a.1.1,0,0,0,.09.11c.349.02.667.049,1.445.747,1.056.966,1.275.966,2.072.966a2.191,2.191,0,0,0,1.425-.338,1.4,1.4,0,0,0,.638-1.146c0-.359-.14-.568-.508-.967-.389-.438-.419-.607-.419-.837,0-.428.11-.9.478-.9a.821.821,0,0,1,.827.7c.01.06.02.13.15.13s.159-.05.159-.14a1.06,1.06,0,0,0-1.156-.907,1.23,1.23,0,0,0-1.295,1.146,1.481,1.481,0,0,0,.528.987c.369.418.4.578.4.787,0,.927-1.027,1.255-1.206,1.255a1.608,1.608,0,0,1-.658-.309c-.179-.129-.458-.388-.5-.418-.727-.688-1.106-.977-1.8-.977Z" transform="translate(-554.968 -289.055)"/>
    <path class="cls-1" d="M669.927,300.27a3.175,3.175,0,0,0,.159-.837c0-.378-.149-.458-.309-.458-.358,0-.558.478-.727,1.186-.06.219-.07.229-.169.229-.02,0-.12,0-.12-.1a4.349,4.349,0,0,1,.309-.966.841.841,0,0,1,.737-.569.9.9,0,0,1,.917.868,1.926,1.926,0,0,1,1.554-.868,1.258,1.258,0,0,1,.817.26,1,1,0,0,1,.32.707,1.958,1.958,0,0,1,1.624-.967,1.013,1.013,0,0,1,1.145,1.067,8.858,8.858,0,0,1-.607,2.192,1.893,1.893,0,0,0-.18.707c0,.229.07.329.239.329.548,0,.867-.707,1.017-1.236.05-.149.05-.179.149-.179.03,0,.119,0,.119.1,0,.079-.368,1.534-1.305,1.534a.8.8,0,0,1-.817-.817,1.36,1.36,0,0,1,.13-.548,8.867,8.867,0,0,0,.617-2.232c0-.359-.109-.7-.538-.7a1.975,1.975,0,0,0-1.644,1.325c-.089.388-.458,1.844-.6,2.4-.08.319-.14.568-.449.568a.266.266,0,0,1-.289-.269c0-.05.09-.388.13-.587l.2-.758.279-1.155a3.392,3.392,0,0,0,.15-.828c0-.329-.09-.7-.538-.7a1.98,1.98,0,0,0-1.624,1.215c-.011.04-.09.329-.13.5-.05.23-.11.449-.169.668l-.22.9c-.06.249-.179.717-.189.737a.408.408,0,0,1-.369.279.266.266,0,0,1-.289-.269c0-.05.06-.279.09-.428Z" transform="translate(-554.968 -289.055)"/>
    <polyline points="168.661 107.007 177.164 102.755 168.661 98.503 170.786 102.755"/>
    <line class="cls-3" x1="99.212" y1="102.755" x2="170.786" y2="102.755"/>
    <path class="cls-1" d="M743.175,387.178c0,.368.029.478.927.478h.318v.309c-.349-.03-1.216-.03-1.614-.03s-1.266,0-1.615.03v-.309h.32c.9,0,.927-.12.927-.478v-5.162a2.99,2.99,0,0,1-1.306.259v-.309a2.46,2.46,0,0,0,1.813-.638c.23,0,.23.02.23.259Z" transform="translate(-554.968 -289.055)"/>
    <path class="cls-1" d="M738.092,308.363a1.6,1.6,0,0,0-.06.479c0,.328.1.458.309.458.339,0,.867-.239,1.295-1.275.05-.11.06-.14.149-.14.04,0,.12,0,.12.1,0,.079-.568,1.534-1.585,1.534a.878.878,0,0,1-.916-.916,25.72,25.72,0,0,1,.757-3.179h-.877c-.2,0-.278,0-.278-.119,0-.19.1-.19.3-.19h.936l.389-1.584a.425.425,0,0,1,.4-.359.262.262,0,0,1,.289.269c0,.06-.049.259-.409,1.674h.877c.18,0,.279,0,.279.11,0,.2-.1.2-.3.2h-.937Z" transform="translate(-554.968 -289.055)"/>
    <path class="cls-1" d="M744.032,306.151c-.149,0-.339,0-.339-.2s.19-.2.329-.2h5.969c.14,0,.328,0,.328.2s-.188.2-.338.2Zm-.01,1.933c-.139,0-.329,0-.329-.2s.19-.2.339-.2h5.949c.15,0,.338,0,.338.2s-.188.2-.328.2Z" transform="translate(-554.968 -289.055)"/>
    <path class="cls-1" d="M755.153,306.52a3.239,3.239,0,0,0,.16-.837c0-.329-.11-.458-.309-.458-.359,0-.559.478-.728,1.186-.059.219-.07.229-.17.229-.019,0-.119,0-.119-.1a5.035,5.035,0,0,1,.3-.966.87.87,0,0,1,.747-.569.9.9,0,0,1,.917.868,1.922,1.922,0,0,1,1.555-.868,1.018,1.018,0,0,1,1.145,1.067,9.024,9.024,0,0,1-.607,2.192,1.893,1.893,0,0,0-.18.707c0,.229.07.329.24.329.488,0,.816-.558,1.015-1.236.051-.149.051-.179.151-.179.029,0,.119,0,.119.1,0,.079-.369,1.534-1.306,1.534a.8.8,0,0,1-.816-.817,1.126,1.126,0,0,1,.1-.458,9.519,9.519,0,0,0,.648-2.322c0-.329-.09-.7-.538-.7a1.98,1.98,0,0,0-1.624,1.215c-.01.04-.09.329-.13.5-.05.23-.11.449-.169.668l-.22.9c-.06.249-.179.717-.189.737a.408.408,0,0,1-.369.279.266.266,0,0,1-.289-.269c0-.05.06-.279.09-.428Z" transform="translate(-554.968 -289.055)"/>
    <path class="cls-1" d="M763.239,307.447a.528.528,0,1,1,.529-.529A.532.532,0,0,1,763.239,307.447Z" transform="translate(-554.968 -289.055)"/>
    <path class="cls-1" d="M769.823,308.652a.866.866,0,0,0-.04.21c0,.159.08.189.368.219.26.02.389.02.638.02s.339,0,.339.109c0,.2-.119.2-.219.2-.279,0-.578-.02-.867-.02-.269,0-.548-.01-.827-.01s-.568.01-.847.01-.548.02-.817.02c-.06,0-.169,0-.169-.12,0-.189.059-.189.418-.189,1.066,0,1.1-.11,1.186-.478l1.335-5.321a.981.981,0,0,0,.04-.21c0-.079,0-.119-.279-.119h-.389c-1.474,0-1.733.179-2.271,1.724-.06.159-.07.209-.17.209a.113.113,0,0,1-.119-.11,1.387,1.387,0,0,1,.059-.179l.6-1.754c.07-.189.08-.2.319-.2h5.531c.169,0,.268,0,.268.109a1.227,1.227,0,0,1-.019.17l-.27,1.734c-.019.149-.04.229-.149.229a.117.117,0,0,1-.119-.13,1.481,1.481,0,0,1,.029-.189,7.344,7.344,0,0,0,.08-.8c0-.777-.448-.817-1.455-.817a5.429,5.429,0,0,0-.628.02c-.119.03-.159.09-.229.368Z" transform="translate(-554.968 -289.055)"/>
    <path class="cls-1" d="M775.119,307.967a1.083,1.083,0,0,0-.551.133.594.594,0,0,0-.278.446c0,.153.125.3.383.349.042.014.217.042.279.056.258.048.962.174.962.815,0,.272-.237,1.151-1.519,1.151-.677,0-1.124-.258-1.124-.676a.424.424,0,0,1,.405-.468.249.249,0,0,1,.272.258.413.413,0,0,1-.384.4,1.071,1.071,0,0,0,.837.293,1.5,1.5,0,0,0,.7-.154.7.7,0,0,0,.369-.558c0-.348-.447-.432-.593-.46a1.532,1.532,0,0,1-.788-.251.666.666,0,0,1-.243-.509,1.133,1.133,0,0,1,1.282-1.018c.426,0,.928.153.928.606a.348.348,0,0,1-.335.4.224.224,0,0,1-.23-.223.359.359,0,0,1,.293-.328A.806.806,0,0,0,775.119,307.967Z" transform="translate(-554.968 -289.055)"/>
  </g>
</svg>
