<svg id="Layer_1" data-name="Layer 1" xmlns="http://www.w3.org/2000/svg" viewBox="0 0 453.908 152.361">
  <defs>
    <style>
      .cls-1, .cls-3, .cls-5, .cls-6, .cls-8 {
        fill: none;
      }

      .cls-1, .cls-5, .cls-8 {
        stroke: #000;
      }

      .cls-1, .cls-3, .cls-5, .cls-6, .cls-7, .cls-8 {
        stroke-miterlimit: 10;
      }

      .cls-1, .cls-3, .cls-5, .cls-7, .cls-8 {
        stroke-width: 0.85px;
      }

      .cls-2 {
        fill: #1d1d1b;
      }

      .cls-3, .cls-6, .cls-7 {
        stroke: blue;
      }

      .cls-4 {
        fill: blue;
      }

      .cls-5, .cls-8 {
        stroke-linecap: round;
      }

      .cls-5 {
        stroke-dasharray: 0 3.331;
      }

      .cls-6 {
        stroke-width: 2.268px;
      }

      .cls-8 {
        stroke-dasharray: 0 3.64;
      }

      .cls-9 {
        fill: red;
      }
    </style>
  </defs>
  <title>sampling2</title>
  <g>
    <polyline points="441.295 126.283 445.831 124.015 441.295 121.747 442.429 124.015"/>
    <line class="cls-1" x1="233.233" y1="124.015" x2="442.429" y2="124.015"/>
    <polyline points="341.8 8.079 339.532 3.543 337.264 8.079 339.532 6.945"/>
    <path class="cls-1" d="M788.581,437.07V312.913m35.433,120.614V426.44m-70.866,7.087V426.44" transform="translate(-449.049 -305.968)"/>
    <path class="cls-2" d="M823.1,441.252c-.129.5-.129.519-.269.977-.119.369-.2.647-.5.647a.27.27,0,0,1-.289-.269c0-.07,0-.089.08-.239a21.075,21.075,0,0,0,1.275-3.318h-.568a1.406,1.406,0,0,0-1.266.767c-.059.08-.079.12-.159.12-.12,0-.12-.09-.12-.1a3.575,3.575,0,0,1,.609-.9,1.267,1.267,0,0,1,1.036-.468h3.338c.189,0,.4,0,.4.239,0,.339-.358.339-.488.339h-1.136a7.764,7.764,0,0,0-.18,1.585,4.281,4.281,0,0,0,.289,1.643.429.429,0,0,1,.061.22.42.42,0,0,1-.409.378c-.15,0-.259-.06-.359-.5a3.127,3.127,0,0,1-.08-.757,10.944,10.944,0,0,1,.419-2.571h-1.126Z" transform="translate(-449.049 -305.968)"/>
    <path class="cls-2" d="M790.279,442.916a1.863,1.863,0,0,1-3.378.149,5.05,5.05,0,0,1-.448-2.4,5.343,5.343,0,0,1,.368-2.262,1.853,1.853,0,0,1,3.428-.07,7.052,7.052,0,0,1,.03,4.584Zm-.568-.309a19.252,19.252,0,0,0,.011-4.005c-.19-.987-.848-1.166-1.176-1.166-.249,0-1,.089-1.187,1.275a20.665,20.665,0,0,0,.031,3.935c.179.958.767,1.207,1.156,1.207C788.994,443.853,789.562,443.554,789.711,442.607Z" transform="translate(-449.049 -305.968)"/>
    <path class="cls-2" d="M747.482,440.834c-.169,0-.348,0-.348-.2s.179-.2.348-.2h5.391c.169,0,.349,0,.349.2s-.18.2-.349.2Z" transform="translate(-449.049 -305.968)"/>
    <path class="cls-2" d="M756.193,441.611c-.129.5-.129.519-.268.977-.119.369-.2.647-.5.647a.27.27,0,0,1-.289-.268c0-.071,0-.09.08-.239a21.127,21.127,0,0,0,1.275-3.319h-.568a1.4,1.4,0,0,0-1.266.768c-.059.08-.079.119-.159.119-.12,0-.12-.09-.12-.1a3.573,3.573,0,0,1,.608-.9,1.267,1.267,0,0,1,1.036-.469h3.338c.19,0,.4,0,.4.239,0,.339-.359.339-.489.339h-1.135a7.71,7.71,0,0,0-.18,1.585,4.288,4.288,0,0,0,.289,1.644.424.424,0,0,1,.061.219.42.42,0,0,1-.41.378c-.149,0-.258-.059-.358-.5a3.127,3.127,0,0,1-.08-.757,10.959,10.959,0,0,1,.419-2.571h-1.126Z" transform="translate(-449.049 -305.968)"/>
    <path class="cls-2" d="M900.038,433.571c-.907,0-1.2-1.105-1.2-2.042,0-2.282,1.534-5.091,2.919-5.091,1.016,0,1.2,1.384,1.2,2.041C902.957,430.712,901.443,433.571,900.038,433.571Zm-.22-3.407a7.662,7.662,0,0,0-.318,1.973c0,.926.209,1.216.538,1.216.429,0,.807-.489,1.155-1.166a8.977,8.977,0,0,0,.7-2.023Zm2.163-.319a8.268,8.268,0,0,0,.319-1.983c0-.568-.06-1.206-.548-1.206-.448,0-.817.559-1.086,1.047a9.037,9.037,0,0,0-.768,2.142Z" transform="translate(-449.049 -305.968)"/>
    <path class="cls-2" d="M798.249,415.134c-.907,0-1.2-1.106-1.2-2.042,0-2.282,1.534-5.092,2.919-5.092,1.016,0,1.2,1.385,1.2,2.042C801.168,412.274,799.654,415.134,798.249,415.134Zm-.22-3.407a7.65,7.65,0,0,0-.318,1.972c0,.927.209,1.216.538,1.216.429,0,.807-.488,1.155-1.166a8.972,8.972,0,0,0,.7-2.022Zm2.163-.32a8.262,8.262,0,0,0,.319-1.982c0-.569-.06-1.206-.548-1.206-.448,0-.817.558-1.086,1.047a9.046,9.046,0,0,0-.768,2.141Z" transform="translate(-449.049 -305.968)"/>
    <path class="cls-2" d="M804.634,414.733a2.422,2.422,0,0,0,.118-.655c0-.133-.007-.488-.411-.488a1.294,1.294,0,0,0-1.046.641,1.435,1.435,0,0,0-.293.628c-.035.161-.077.314-.118.467-.042.174-.119.5-.154.628a2.713,2.713,0,0,1-.126.432.341.341,0,0,1-.271.153.222.222,0,0,1-.237-.223,2.832,2.832,0,0,1,.069-.286l.224-.892c.034-.154.1-.44.153-.628a3.076,3.076,0,0,0,.111-.578c0-.189-.049-.342-.23-.342-.272,0-.4.342-.509.753-.049.188-.056.209-.153.209-.021,0-.118,0-.118-.09a2.453,2.453,0,0,1,.251-.691.633.633,0,0,1,.55-.376.707.707,0,0,1,.746.634,1.483,1.483,0,0,1,1.179-.634.791.791,0,0,1,.906.7,1.55,1.55,0,0,1,1.235-.7,1.034,1.034,0,0,1,.648.188.726.726,0,0,1,.258.606,5.132,5.132,0,0,1-.369,1.346,1.39,1.39,0,0,0-.161.566c0,.146.028.243.175.243.279,0,.579-.285.739-.844.027-.076.034-.118.132-.118.021,0,.112,0,.112.091s-.307,1.066-1,1.066a.615.615,0,0,1-.662-.6.945.945,0,0,1,.1-.376,5.606,5.606,0,0,0,.412-1.485c0-.168-.021-.488-.412-.488a1.376,1.376,0,0,0-1.115.739,1.249,1.249,0,0,0-.217.53c-.034.161-.076.314-.118.467-.042.174-.118.5-.153.628a2.823,2.823,0,0,1-.126.432.341.341,0,0,1-.272.153.222.222,0,0,1-.237-.223c0-.035.063-.272.1-.411Z" transform="translate(-449.049 -305.968)"/>
    <polyline points="359.524 118.868 364.335 120.472 362.731 115.661 361.93 118.067"/>
    <path class="cls-1" d="M806.3,419.354l4.682,4.681m-25.941-79.09h7.086" transform="translate(-449.049 -305.968)"/>
    <path class="cls-2" d="M772.729,342.452c0,.23,0,.321.7.321h.265v.251c-.154-.007-1.032-.028-1.249-.028-.257,0-1.115.021-1.241.028v-.251h.266c.7,0,.7-.091.7-.321V338.9a2.3,2.3,0,0,1-1.012.195v-.251a1.907,1.907,0,0,0,1.368-.446c.2,0,.209.007.209.195Z" transform="translate(-449.049 -305.968)"/>
    <polyline points="319.062 38.736 327.702 38.736 327.702 38.256 319.062 38.256"/>
    <path class="cls-2" d="M770.58,349.9a.433.433,0,0,0-.028.16c0,.083.014.111.251.132.133.008.272.014.4.014.217,0,.286,0,.286.1,0,.153-.1.153-.16.153-.188,0-.4-.014-.586-.021s-.433-.006-.628-.006-.4.006-.6.006-.4.021-.6.021c-.1,0-.118-.076-.118-.1,0-.154.062-.154.313-.154.733,0,.753-.069.817-.327l.92-3.668a.606.606,0,0,0,.028-.147c0-.063-.007-.069-.217-.069h-.292c-1.06,0-1.29.069-1.695,1.185-.041.132-.056.168-.147.168s-.118-.07-.118-.1a.663.663,0,0,1,.035-.126l.44-1.234c.049-.146.062-.146.236-.146h4.289c.125,0,.209,0,.209.1l-.188,1.332c-.014.112-.028.175-.132.175-.071,0-.119-.036-.119-.1l.014-.077a3.5,3.5,0,0,0,.049-.565c0-.251-.015-.453-.328-.551a2.676,2.676,0,0,0-.781-.055c-.14,0-.384,0-.418.006-.154.015-.168.036-.217.238Z" transform="translate(-449.049 -305.968)"/>
    <path class="cls-2" d="M774.791,349.393c-.717,0-.717.413-.717.418,0,.2.244.243.6.3.259.045.807.129.807.577,0,.2-.175.791-1.195.791-.144,0-.92,0-.92-.487a.33.33,0,0,1,.319-.359.2.2,0,0,1,.214.2.317.317,0,0,1-.259.3,1.006,1.006,0,0,0,.656.169c.916,0,.916-.513.916-.517,0-.254-.349-.309-.662-.358a1.245,1.245,0,0,1-.552-.165.431.431,0,0,1-.194-.353c0-.179.159-.691,1-.691.373,0,.765.1.765.438a.278.278,0,0,1-.263.308.18.18,0,0,1-.189-.179.262.262,0,0,1,.2-.249A.758.758,0,0,0,774.791,349.393Z" transform="translate(-449.049 -305.968)"/>
    <path class="cls-3" d="M760.235,429.984s.776-85.039,28.346-85.039,28.346,85.039,28.346,85.039h0m14.173,0s.777-85.039,28.347-85.039,28.346,85.039,28.346,85.039h0m-198.424,0s.777-85.039,28.346-85.039,28.346,85.039,28.346,85.039h0" transform="translate(-449.049 -305.968)"/>
    <path class="cls-2" d="M786.123,457.257a.8.8,0,0,0,1.166-.966h.249l-.278,1.733h-3.7c0-.239,0-.258.109-.369l1.913-2.132a3.566,3.566,0,0,0,1.047-2.2c0-.817-.429-1.624-1.335-1.624a1.439,1.439,0,0,0-1.346,1.017.381.381,0,0,1,.13-.01.5.5,0,0,1,.527.518.523.523,0,1,1-1.045-.031,1.84,1.84,0,0,1,1.863-1.8,1.957,1.957,0,0,1,2.112,1.932c0,1-.6,1.534-2.152,2.909l-1.056,1.027Z" transform="translate(-449.049 -305.968)"/>
    <path class="cls-2" d="M790.186,456.51c-.129.5-.129.518-.269.976-.119.369-.2.648-.5.648a.27.27,0,0,1-.289-.269c0-.07,0-.09.08-.239a21.075,21.075,0,0,0,1.275-3.318h-.568a1.406,1.406,0,0,0-1.266.767c-.059.08-.079.119-.159.119-.12,0-.12-.09-.12-.1a3.589,3.589,0,0,1,.608-.9,1.268,1.268,0,0,1,1.037-.469h3.337c.19,0,.4,0,.4.24,0,.339-.358.339-.488.339h-1.136a7.764,7.764,0,0,0-.18,1.585,4.284,4.284,0,0,0,.289,1.643.427.427,0,0,1,.061.22.42.42,0,0,1-.409.378c-.15,0-.259-.06-.359-.5a3.131,3.131,0,0,1-.08-.757,10.944,10.944,0,0,1,.419-2.571h-1.126Z" transform="translate(-449.049 -305.968)"/>
    <polyline points="204.944 126.283 209.479 124.015 204.944 121.747 206.078 124.015"/>
    <line class="cls-1" x1="0.425" y1="124.015" x2="206.078" y2="124.015"/>
    <polyline points="23.953 4.535 21.685 0 19.417 4.535 21.685 3.402"/>
    <line class="cls-1" x1="21.685" y1="127.558" x2="21.685" y2="3.402"/>
    <path class="cls-4" d="M480.812,335.185a3.858,3.858,0,0,0-.17.877c0,.338.159.657.548.657.319,0,1-.239,1.325-1.305.02-.07.04-.11.13-.11.03,0,.12,0,.12.1,0,.249-.569,1.534-1.595,1.534a1.1,1.1,0,0,1-1.076-.757,1.323,1.323,0,0,1-1.046.757c-.439,0-.937-.2-.937-.657a.566.566,0,0,1,.548-.578.341.341,0,0,1,.369.348.563.563,0,0,1-.468.538.954.954,0,0,0,.5.13c.438,0,.787-.419.946-1.036a14.494,14.494,0,0,0,.538-2.371c0-.579-.348-.668-.538-.668-.338,0-1,.249-1.335,1.305-.02.09-.05.11-.129.11-.02,0-.12,0-.12-.1,0-.249.568-1.535,1.6-1.535a1.1,1.1,0,0,1,1.077.758,1.288,1.288,0,0,1,1.045-.758c.339,0,.927.14.927.658a.556.556,0,0,1-.538.578.347.347,0,0,1-.378-.348.579.579,0,0,1,.478-.539.98.98,0,0,0-.5-.129c-.7,0-.927.917-.987,1.175Z" transform="translate(-449.049 -305.968)"/>
    <path class="cls-4" d="M484.639,339.32v-9.965H486v.4h-.967v9.167H486v.4Z" transform="translate(-449.049 -305.968)"/>
    <path class="cls-4" d="M487.675,333.939a3.194,3.194,0,0,0,.16-.837c0-.329-.11-.458-.309-.458-.359,0-.558.478-.727,1.186-.06.219-.07.229-.17.229-.02,0-.119,0-.119-.1a4.96,4.96,0,0,1,.3-.966.869.869,0,0,1,.747-.569.9.9,0,0,1,.917.868,1.922,1.922,0,0,1,1.554-.868,1.019,1.019,0,0,1,1.146,1.067,8.982,8.982,0,0,1-.608,2.192,1.892,1.892,0,0,0-.179.707c0,.229.07.329.239.329.488,0,.817-.558,1.016-1.236.05-.149.05-.179.15-.179.029,0,.119,0,.119.1,0,.079-.368,1.534-1.305,1.534a.8.8,0,0,1-.817-.817,1.132,1.132,0,0,1,.1-.458,9.519,9.519,0,0,0,.647-2.322c0-.329-.09-.7-.538-.7a1.98,1.98,0,0,0-1.624,1.215c-.01.04-.09.329-.13.5-.05.23-.109.449-.169.668l-.219.9c-.06.249-.18.717-.189.737a.408.408,0,0,1-.369.279.266.266,0,0,1-.289-.269c0-.05.06-.279.09-.428Z" transform="translate(-449.049 -305.968)"/>
    <path class="cls-4" d="M493.805,339.32H492.44v-.4h.966v-9.167h-.966v-.4h1.365Z" transform="translate(-449.049 -305.968)"/>
    <path class="cls-5" d="M449.474,394.551h14.173m184.251,0h14.173" transform="translate(-449.049 -305.968)"/>
    <path class="cls-6" d="M584.119,429.984V366.2m-85.039,63.78v-81.5m28.346,81.5V352.031m28.347,77.953V380.378m56.692,49.606V352.031M470.734,429.984V366.2m170.078,63.78V359.118" transform="translate(-449.049 -305.968)"/>
    <path class="cls-7" d="M501.631,348.488h0a2.523,2.523,0,1,0-2.523,2.523,2.524,2.524,0,0,0,2.523-2.523Z" transform="translate(-449.049 -305.968)"/>
    <path class="cls-7" d="M529.949,352.031h0a2.495,2.495,0,1,0-2.494,2.5,2.495,2.495,0,0,0,2.494-2.5Z" transform="translate(-449.049 -305.968)"/>
    <path class="cls-7" d="M473.228,366.2h0a2.495,2.495,0,1,0-2.494,2.5,2.495,2.495,0,0,0,2.494-2.5Z" transform="translate(-449.049 -305.968)"/>
    <path class="cls-7" d="M558.267,380.378h0a2.495,2.495,0,1,0-2.494,2.494,2.5,2.5,0,0,0,2.494-2.494Z" transform="translate(-449.049 -305.968)"/>
    <path class="cls-7" d="M586.613,366.2h0a2.495,2.495,0,1,0-2.494,2.5,2.495,2.495,0,0,0,2.494-2.5Z" transform="translate(-449.049 -305.968)"/>
    <path class="cls-7" d="M614.96,353.08h0a2.495,2.495,0,1,0-2.5,2.494,2.5,2.5,0,0,0,2.5-2.494Z" transform="translate(-449.049 -305.968)"/>
    <path class="cls-7" d="M643.306,359.118h0a2.495,2.495,0,1,0-2.494,2.494,2.5,2.5,0,0,0,2.494-2.494Z" transform="translate(-449.049 -305.968)"/>
    <g>
      <path class="cls-2" d="M472.428,442.916a1.863,1.863,0,0,1-3.378.149,5.038,5.038,0,0,1-.448-2.4,5.328,5.328,0,0,1,.368-2.262,1.827,1.827,0,0,1,1.734-1.185,1.848,1.848,0,0,1,1.694,1.115,7.052,7.052,0,0,1,.03,4.584Zm-.568-.309a19.341,19.341,0,0,0,.01-4.005c-.19-.987-.847-1.166-1.176-1.166-.249,0-1,.089-1.186,1.275a13.491,13.491,0,0,0-.079,1.834,13.632,13.632,0,0,0,.109,2.1c.179.958.767,1.207,1.156,1.207C471.142,443.853,471.71,443.554,471.86,442.607Z" transform="translate(-449.049 -305.968)"/>
      <path class="cls-2" d="M499.486,443.065c0,.369.03.479.927.479h.318v.309c-.348-.031-1.215-.031-1.614-.031s-1.265,0-1.614.031v-.309h.319c.9,0,.927-.12.927-.479V437.9a2.988,2.988,0,0,1-1.306.259v-.309a2.465,2.465,0,0,0,1.814-.637c.229,0,.229.019.229.259Z" transform="translate(-449.049 -305.968)"/>
      <path class="cls-2" d="M527.959,443.085a3.276,3.276,0,0,0,.947-.079,3.317,3.317,0,0,0,.219-.887h.249l-.279,1.734h-3.7c0-.24,0-.259.11-.37l1.913-2.131a3.575,3.575,0,0,0,1.046-2.2c0-.817-.428-1.624-1.335-1.624a1.439,1.439,0,0,0-1.345,1.017.381.381,0,0,1,.13-.01.5.5,0,0,1,.528.518.524.524,0,1,1-1.047-.03,1.841,1.841,0,0,1,1.864-1.8,1.957,1.957,0,0,1,2.112,1.932c0,1-.6,1.535-2.152,2.91l-1.056,1.026Z" transform="translate(-449.049 -305.968)"/>
      <path class="cls-2" d="M557.8,442.148a2.031,2.031,0,0,1-2.122,1.923,1.817,1.817,0,0,1-2.013-1.563.558.558,0,1,1,1.116-.021.545.545,0,0,1-.657.548,1.812,1.812,0,0,0,1.524.758c.438,0,1.126-.289,1.126-1.645,0-.976-.369-1.653-1.186-1.653h-.438c-.169,0-.239,0-.239-.11s.07-.11.149-.119.309-.021.389-.031a.963.963,0,0,0,.886-.517,2.478,2.478,0,0,0,.279-1.136c0-.9-.548-1.116-.956-1.116a1.614,1.614,0,0,0-1.325.617c.149,0,.617,0,.617.5a.508.508,0,1,1-1.016-.011c0-.757.757-1.354,1.764-1.354.956,0,1.833.557,1.833,1.375a1.8,1.8,0,0,0,.269,3.556Z" transform="translate(-449.049 -305.968)"/>
    </g>
    <line class="cls-8" x1="135.07" y1="134.645" x2="197.8" y2="134.645"/>
    <path class="cls-1" d="M753.148,451.243v7.087m70.866-7.087v7.087" transform="translate(-449.049 -305.968)"/>
    <polyline points="308.634 146.55 304.099 148.818 308.634 151.086 307.501 148.818"/>
    <line class="cls-1" x1="307.501" y1="148.818" x2="318.272" y2="148.818"/>
    <polyline points="370.429 151.086 374.965 148.818 370.429 146.55 371.563 148.818"/>
    <line class="cls-1" x1="371.563" y1="148.818" x2="360.792" y2="148.818"/>
    <path class="cls-2" d="M666.019,429.252a3.2,3.2,0,0,0,.16-.837c0-.329-.11-.458-.309-.458-.359,0-.558.478-.727,1.186-.06.218-.07.229-.17.229-.02,0-.119,0-.119-.1a5.028,5.028,0,0,1,.3-.966.87.87,0,0,1,.747-.569.9.9,0,0,1,.917.867,1.928,1.928,0,0,1,1.555-.867,1.019,1.019,0,0,1,1.146,1.067,8.982,8.982,0,0,1-.608,2.192,1.893,1.893,0,0,0-.18.707c0,.23.07.329.24.329.488,0,.817-.558,1.016-1.235.05-.15.05-.18.149-.18.03,0,.12,0,.12.1,0,.08-.369,1.534-1.305,1.534a.8.8,0,0,1-.818-.816,1.148,1.148,0,0,1,.1-.459,9.462,9.462,0,0,0,.648-2.322c0-.329-.09-.7-.538-.7a1.98,1.98,0,0,0-1.624,1.215c-.01.04-.09.329-.13.5-.05.228-.109.448-.169.667l-.219.9c-.06.249-.18.717-.19.738a.406.406,0,0,1-.368.278.266.266,0,0,1-.289-.269c0-.049.06-.279.089-.428Z" transform="translate(-449.049 -305.968)"/>
    <g>
      <path class="cls-2" d="M668.557,372.24h-.249c-.16-1.375-.409-1.933-1.9-1.933h-1.2c-.468,0-.488.07-.488.4v2.521h.857c.957,0,1.056-.329,1.056-1.166h.25V374.7h-.25c0-.848-.1-1.166-1.056-1.166h-.857v2.451c0,.348,0,.478.947.478H666v.309c-.359-.03-1.266-.03-1.674-.03-.389,0-1.166,0-1.515.03v-.309h.239c.767,0,.787-.11.787-.468v-5.222c0-.358-.02-.468-.787-.468h-.239V370h5.47Z" transform="translate(-449.049 -305.968)"/>
      <path class="cls-2" d="M675.779,372.27h-.249c-.139-1.6-.289-1.933-1.793-1.933a4.666,4.666,0,0,0-.568.02c-.179.04-.179.18-.179.379v5.251c0,.339,0,.478,1.046.478h.4v.309c-.408-.03-1.434-.03-1.893-.03s-1.475,0-1.883.03v-.309h.4c1.046,0,1.046-.139,1.046-.478v-5.251c0-.23,0-.339-.209-.379a4.178,4.178,0,0,0-.539-.02c-1.5,0-1.654.329-1.793,1.933h-.249l.189-2.242h6.088Z" transform="translate(-449.049 -305.968)"/>
    </g>
    <path class="cls-2" d="M680.146,369.969a3.269,3.269,0,0,1,3.049,3.457,3.2,3.2,0,0,1-3.049,3.348H676.5v-.309h.239c.767,0,.787-.11.787-.468v-5.251c0-.359-.02-.469-.787-.469H676.5v-.308Zm-.269,6.5a2.183,2.183,0,0,0,1.773-.847,3.415,3.415,0,0,0,.549-2.192,3.85,3.85,0,0,0-.519-2.222,2.149,2.149,0,0,0-1.813-.927h-1c-.469,0-.489.07-.489.4v5.39c0,.33.02.4.489.4Z" transform="translate(-449.049 -305.968)"/>
    <path class="cls-1" d="M668.109,380.378h0a2.07,2.07,0,1,0-2.069,2.069,2.07,2.07,0,0,0,2.069-2.069Zm-.255,0h10.6m3.827,0h0a2.069,2.069,0,1,0-2.069,2.069,2.07,2.07,0,0,0,2.069-2.069Z" transform="translate(-449.049 -305.968)"/>
    <path class="cls-4" d="M805.659,332.445a.6.6,0,0,0,.19-.359c0-.279-.309-.3-.4-.309-.069-.009-.119-.039-.119-.109,0-.2.129-.2.19-.2.358,0,.737.03,1.105.03.309,0,.638-.03.937-.03.129,0,.129.1.129.109,0,.19-.089.19-.219.2a2.029,2.029,0,0,0-1.265.509c-.319.278-1.365,1.464-2.043,2.162.23.6.9,2.152,1.285,3.079.17.4.19.428.858.438.079,0,.178,0,.178.119,0,.19-.119.19-.189.19-.249,0-.857-.03-1.106-.03-.279,0-.976.03-1.255.03-.04,0-.15,0-.15-.12,0-.169.09-.179.2-.189.389-.04.578-.209.578-.289a.675.675,0,0,0-.049-.139l-1.006-2.382-.9.977-1.015,1.076c-.12.129-.27.289-.27.448,0,.279.309.3.4.309a.113.113,0,0,1,.12.11c0,.2-.12.2-.18.2-.358,0-.747-.03-1.116-.03-.309,0-.638.03-.937.03-.13,0-.13-.1-.13-.109,0-.19.09-.19.22-.2a2.015,2.015,0,0,0,1.465-.717l.129-.11,2.1-2.262-1.175-2.78c-.089-.219-.15-.319-.747-.319-.13,0-.23,0-.23-.109,0-.2.12-.2.18-.2.249,0,.867.03,1.116.03.418,0,.847-.03,1.255-.03.03,0,.149,0,.149.119,0,.169-.1.18-.2.189-.418.04-.588.229-.588.289,0,.01.021.05.05.13l.838,1.983Z" transform="translate(-449.049 -305.968)"/>
    <g>
      <path class="cls-4" d="M811.528,340.765a4.3,4.3,0,0,1-1.553-1.873,7.665,7.665,0,0,1-.031-6.148,4.348,4.348,0,0,1,1.584-1.943.089.089,0,0,1,.1.1c0,.031,0,.05-.129.17a6.514,6.514,0,0,0-1.6,4.713,6.6,6.6,0,0,0,1.564,4.663c.169.169.169.189.169.22A.089.089,0,0,1,811.528,340.765Z" transform="translate(-449.049 -305.968)"/>
      <path class="cls-4" d="M813.57,337.467a1.341,1.341,0,0,0,1.126.667,1.4,1.4,0,0,0,1.345-1.026c.02-.08.04-.139.13-.139a.115.115,0,0,1,.129.119,1.7,1.7,0,0,1-1.664,1.295,2.249,2.249,0,0,1-2.192-2.3,2.177,2.177,0,0,1,2.073-2.272,1.767,1.767,0,0,1,1.783,1.953c0,.209-.029.209-.249.209h-2.78A2.9,2.9,0,0,0,813.57,337.467Zm2.073-1.7c0-.388-.1-1.734-1.126-1.734-.339,0-1.176.249-1.236,1.734Z" transform="translate(-449.049 -305.968)"/>
    </g>
    <path class="cls-4" d="M818.587,335.17a1.435,1.435,0,0,1-1.365,1.545c-.569,0-1.126-.279-1.126-.8a.459.459,0,1,1,.917,0,.46.46,0,0,1-.35.448,1.209,1.209,0,0,0,.538.13c.638,0,.728-.857.728-1.306v-3.945c0-.489-.09-.558-.857-.558v-.309l1.515-.11Zm-.528-6.107a.529.529,0,1,1,.528-.528A.532.532,0,0,1,818.059,329.063Z" transform="translate(-449.049 -305.968)"/>
    <path class="cls-4" d="M820.888,334.742c-.642,0-.962-.683-.962-1.513,0-1.6,1.115-3.466,2.161-3.466.684,0,.963.781.963,1.513C823.05,332.838,821.948,334.742,820.888,334.742Zm-.238-2.364a5.394,5.394,0,0,0-.2,1.262c0,.377.064.907.447.907.307,0,.585-.328.8-.691a5.018,5.018,0,0,0,.565-1.478Zm1.674-.251a5.493,5.493,0,0,0,.2-1.262c0-.133,0-.907-.446-.907-.411,0-1.011.663-1.366,2.169Z" transform="translate(-449.049 -305.968)"/>
    <path class="cls-4" d="M826.309,338.822a4.348,4.348,0,0,1-1.584,1.943.094.094,0,0,1-.1-.1c0-.031,0-.051.129-.17a6.536,6.536,0,0,0,1.6-4.713,6.462,6.462,0,0,0-1.545-4.653c-.188-.18-.188-.2-.188-.23a.094.094,0,0,1,.1-.1,4.3,4.3,0,0,1,1.553,1.873,7.665,7.665,0,0,1,.031,6.148Z" transform="translate(-449.049 -305.968)"/>
    <path class="cls-9" d="M706.772,330.094c-.907,0-1.2-1.106-1.2-2.042,0-2.282,1.534-5.092,2.919-5.092,1.017,0,1.2,1.385,1.2,2.043C709.691,327.235,708.178,330.094,706.772,330.094Zm-.219-3.407a7.625,7.625,0,0,0-.319,1.973c0,.926.209,1.215.538,1.215.429,0,.807-.488,1.156-1.166a8.9,8.9,0,0,0,.7-2.022Zm2.163-.319a8.306,8.306,0,0,0,.318-1.983c0-.568-.059-1.2-.548-1.2-.448,0-.817.557-1.086,1.046a9.032,9.032,0,0,0-.767,2.142Z" transform="translate(-449.049 -305.968)"/>
    <path class="cls-9" d="M713.852,326.727c-.15,0-.339,0-.339-.2s.189-.2.329-.2h5.969c.139,0,.328,0,.328.2s-.189.2-.338.2Zm-.01,1.933c-.14,0-.329,0-.329-.2s.189-.2.339-.2H719.8c.149,0,.338,0,.338.2s-.189.2-.328.2Z" transform="translate(-449.049 -305.968)"/>
    <path class="cls-9" d="M728.8,328.739c-.359.748-.837,1.355-1.615,1.355a1.124,1.124,0,0,1-1.1-1.046,1.893,1.893,0,0,1-1.534,1.046c-.818,0-1.047-.737-1.047-1.425a5.574,5.574,0,0,1,.887-2.829c.06-.09.129-.219.259-.219a.183.183,0,0,1,.19.189,4.955,4.955,0,0,0-1.017,2.421c0,.558.209,1.146.867,1.146a1.709,1.709,0,0,0,1.355-.917,3.667,3.667,0,0,1,.229-1.2.283.283,0,0,1,.269-.17c.13,0,.179.1.179.22a4.55,4.55,0,0,1-.338,1.175.939.939,0,0,0,.966.9,1.474,1.474,0,0,0,1.136-.767,2.831,2.831,0,0,0,.5-1.425,1.084,1.084,0,0,0-.348-.837.413.413,0,0,1-.15-.3.547.547,0,0,1,.528-.468c.219,0,.4.249.4.7A8.192,8.192,0,0,1,728.8,328.739Z" transform="translate(-449.049 -305.968)"/>
    <path class="cls-9" d="M733.543,328.022a.528.528,0,1,1,.528-.528A.531.531,0,0,1,733.543,328.022Z" transform="translate(-449.049 -305.968)"/>
    <path class="cls-9" d="M740.127,329.228a.856.856,0,0,0-.04.209c0,.159.08.189.368.219.26.02.389.02.638.02s.339,0,.339.11c0,.2-.119.2-.219.2-.279,0-.578-.02-.867-.02-.269,0-.548-.01-.827-.01s-.568.01-.847.01-.548.02-.818.02c-.059,0-.168,0-.168-.12,0-.189.059-.189.418-.189,1.066,0,1.1-.11,1.186-.478l1.335-5.321a.968.968,0,0,0,.04-.21c0-.079,0-.119-.279-.119H740c-1.475,0-1.733.18-2.271,1.724-.06.159-.071.209-.17.209a.112.112,0,0,1-.119-.109,1.26,1.26,0,0,1,.059-.18l.6-1.754c.07-.189.08-.2.319-.2h5.53c.169,0,.269,0,.269.11a1.087,1.087,0,0,1-.02.169l-.269,1.734c-.02.149-.04.229-.15.229a.116.116,0,0,1-.119-.129,1.481,1.481,0,0,1,.03-.19,7.32,7.32,0,0,0,.08-.8c0-.777-.449-.817-1.455-.817a5.429,5.429,0,0,0-.628.02c-.119.03-.16.09-.229.369Z" transform="translate(-449.049 -305.968)"/>
    <path class="cls-9" d="M745.423,328.55a1.083,1.083,0,0,0-.551.133.594.594,0,0,0-.278.446c0,.153.125.3.383.349.042.014.216.042.279.056.258.048.962.174.962.815,0,.272-.238,1.151-1.52,1.151-.677,0-1.123-.258-1.123-.676a.423.423,0,0,1,.4-.468.249.249,0,0,1,.273.258.413.413,0,0,1-.384.4,1.07,1.07,0,0,0,.837.293,1.491,1.491,0,0,0,.7-.154.7.7,0,0,0,.369-.558c0-.348-.446-.432-.592-.46a1.525,1.525,0,0,1-.788-.251.666.666,0,0,1-.244-.509,1.134,1.134,0,0,1,1.283-1.018c.425,0,.927.153.927.606a.348.348,0,0,1-.335.4.224.224,0,0,1-.229-.223.358.358,0,0,1,.293-.328A.807.807,0,0,0,745.423,328.55Z" transform="translate(-449.049 -305.968)"/>
    <polyline points="252.747 14.06 301.707 14.06 301.707 13.58 252.747 13.58"/>
    <polyline points="252.747 28.7 253.227 28.7 253.227 13.82 252.747 13.82"/>
    <polyline points="301.227 28.7 301.707 28.7 301.707 13.82 301.227 13.82"/>
    <polyline points="252.747 28.94 301.707 28.94 301.707 28.46 252.747 28.46"/>
  </g>
</svg>
