<svg id="Layer_1" data-name="Layer 1" xmlns="http://www.w3.org/2000/svg" viewBox="0 0 455.405 155.353">
  <defs>
    <style>
      .cls-1 {
        fill: #1d1d1b;
      }

      .cls-10, .cls-11, .cls-2, .cls-4, .cls-5, .cls-6, .cls-7, .cls-8 {
        fill: none;
        stroke-miterlimit: 10;
        stroke-width: 0.85px;
      }

      .cls-11, .cls-2, .cls-5, .cls-6, .cls-7, .cls-8 {
        stroke: #000;
      }

      .cls-3 {
        fill: lime;
      }

      .cls-4 {
        stroke: lime;
      }

      .cls-11, .cls-5, .cls-6, .cls-7, .cls-8 {
        stroke-linecap: round;
      }

      .cls-5 {
        stroke-dasharray: 0 3.704;
      }

      .cls-6 {
        stroke-dasharray: 0 3.665;
      }

      .cls-7 {
        stroke-dasharray: 0 3.331;
      }

      .cls-8 {
        stroke-dasharray: 0 3.331;
      }

      .cls-9 {
        fill: red;
      }

      .cls-10 {
        stroke: red;
      }

      .cls-11 {
        stroke-dasharray: 0 3.64;
      }
    </style>
  </defs>
  <title>sampling1bgreen</title>
  <g>
    <g>
      <path class="cls-1" d="M668.793,372.24h-.249c-.16-1.375-.409-1.933-1.9-1.933h-1.2c-.468,0-.488.07-.488.4v2.521h.856c.957,0,1.057-.329,1.057-1.166h.249V374.7h-.249c0-.848-.1-1.166-1.057-1.166h-.856v2.451c0,.348,0,.478.946.478h.329v.309c-.358-.03-1.265-.03-1.674-.03-.389,0-1.165,0-1.515.03v-.309h.24c.767,0,.787-.11.787-.468v-5.222c0-.358-.02-.468-.787-.468h-.24V370h5.471Z" transform="translate(-449.049 -305.968)"/>
      <path class="cls-1" d="M676.016,372.27h-.249c-.14-1.6-.289-1.933-1.794-1.933a4.683,4.683,0,0,0-.568.02c-.179.04-.179.18-.179.379v5.251c0,.339,0,.478,1.046.478h.4v.309c-.408-.03-1.434-.03-1.893-.03s-1.474,0-1.883.03v-.309h.4c1.046,0,1.046-.139,1.046-.478v-5.251c0-.23,0-.339-.209-.379a4.169,4.169,0,0,0-.538-.02c-1.5,0-1.654.329-1.794,1.933h-.249l.189-2.242h6.089Z" transform="translate(-449.049 -305.968)"/>
    </g>
    <path class="cls-1" d="M680.42,369.75a2.444,2.444,0,0,1,1.833.856l.5-.737c.079-.119.119-.119.159-.119.11,0,.11.069.11.238v2.362c0,.209,0,.239-.16.239-.139,0-.139-.03-.159-.17-.2-1.454-1.086-2.361-2.172-2.361-.608,0-2.551.339-2.551,3.318s1.953,3.308,2.561,3.308a2.256,2.256,0,0,0,2.231-2.242c.01-.1.01-.159.12-.159.13,0,.13.07.13.169a2.606,2.606,0,0,1-2.6,2.541,3.625,3.625,0,0,1,0-7.243Z" transform="translate(-449.049 -305.968)"/>
    <path class="cls-2" d="M668.109,380.378h0a2.07,2.07,0,1,0-2.069,2.069,2.07,2.07,0,0,0,2.069-2.069Zm-.255,0h10.6m3.827,0h0a2.069,2.069,0,1,0-2.069,2.069,2.07,2.07,0,0,0,2.069-2.069Z" transform="translate(-449.049 -305.968)"/>
    <polyline points="441.295 126.283 445.831 124.015 441.295 121.747 442.429 124.015"/>
    <line class="cls-2" x1="233.233" y1="124.015" x2="442.429" y2="124.015"/>
    <polyline points="341.8 8.079 339.532 3.543 337.264 8.079 339.532 6.945"/>
    <path class="cls-2" d="M788.581,437.07V312.913m35.433,120.614V426.44m-70.866,7.087V426.44" transform="translate(-449.049 -305.968)"/>
    <path class="cls-1" d="M819.1,441.881c-.359.747-.837,1.354-1.615,1.354a1.123,1.123,0,0,1-1.095-1.046,1.894,1.894,0,0,1-1.535,1.046c-.817,0-1.046-.737-1.046-1.424a5.568,5.568,0,0,1,.887-2.83c.06-.089.129-.219.259-.219a.183.183,0,0,1,.189.189,4.962,4.962,0,0,0-1.016,2.421c0,.559.209,1.147.867,1.147a1.715,1.715,0,0,0,1.355-.917,3.669,3.669,0,0,1,.229-1.206.282.282,0,0,1,.269-.169c.129,0,.179.1.179.218a4.5,4.5,0,0,1-.339,1.176.942.942,0,0,0,.967.9,1.473,1.473,0,0,0,1.136-.768,2.825,2.825,0,0,0,.5-1.425,1.083,1.083,0,0,0-.349-.837.415.415,0,0,1-.149-.3.547.547,0,0,1,.528-.468c.219,0,.4.249.4.7A8.2,8.2,0,0,1,819.1,441.881Z" transform="translate(-449.049 -305.968)"/>
    <path class="cls-1" d="M822.276,441.7a1.078,1.078,0,0,0-.55.133.593.593,0,0,0-.279.446c0,.154.125.3.383.349.042.014.217.041.279.056.258.048.962.173.962.815,0,.273-.237,1.15-1.519,1.15-.677,0-1.123-.257-1.123-.675a.423.423,0,0,1,.4-.468.249.249,0,0,1,.272.259.413.413,0,0,1-.383.4,1.068,1.068,0,0,0,.837.292,1.5,1.5,0,0,0,.7-.153.7.7,0,0,0,.369-.558c0-.348-.446-.432-.593-.46a1.523,1.523,0,0,1-.788-.251.666.666,0,0,1-.243-.509,1.133,1.133,0,0,1,1.282-1.018c.426,0,.928.153.928.606a.348.348,0,0,1-.335.4.224.224,0,0,1-.23-.223.359.359,0,0,1,.293-.328A.806.806,0,0,0,822.276,441.7Z" transform="translate(-449.049 -305.968)"/>
    <path class="cls-1" d="M825.221,445.378c-.061.169-.09.239-.22.239a.2.2,0,0,1-.2-.2.535.535,0,0,1,.05-.18l3.458-9.5a.184.184,0,0,1,.169-.089.2.2,0,0,1,.2.2.533.533,0,0,1-.05.178Z" transform="translate(-449.049 -305.968)"/>
    <path class="cls-1" d="M832.352,442.358a.8.8,0,0,0,1.166-.965h.249l-.279,1.733h-3.7c0-.239,0-.259.109-.369l1.913-2.132a3.566,3.566,0,0,0,1.047-2.2c0-.818-.428-1.624-1.335-1.624a1.437,1.437,0,0,0-1.345,1.016.418.418,0,0,1,.13-.009.5.5,0,0,1,.527.517.524.524,0,1,1-1.046-.03,1.84,1.84,0,0,1,1.863-1.8,1.958,1.958,0,0,1,2.113,1.933c0,1-.6,1.534-2.153,2.909l-1.055,1.026Z" transform="translate(-449.049 -305.968)"/>
    <path class="cls-1" d="M790.273,442.916a1.863,1.863,0,0,1-3.377.149,5.039,5.039,0,0,1-.449-2.4,5.343,5.343,0,0,1,.368-2.262,1.853,1.853,0,0,1,3.428-.07,7.035,7.035,0,0,1,.03,4.584Zm-.568-.309a19.252,19.252,0,0,0,.011-4.005c-.19-.987-.848-1.166-1.176-1.166-.249,0-1,.089-1.186,1.275a13.323,13.323,0,0,0-.08,1.834,13.509,13.509,0,0,0,.11,2.1c.179.958.767,1.207,1.156,1.207C788.988,443.853,789.556,443.554,789.705,442.607Z" transform="translate(-449.049 -305.968)"/>
    <path class="cls-1" d="M740.172,440.834c-.169,0-.349,0-.349-.2s.18-.2.349-.2h5.391c.168,0,.348,0,.348.2s-.18.2-.348.2Z" transform="translate(-449.049 -305.968)"/>
    <path class="cls-1" d="M752.2,441.881c-.358.747-.837,1.354-1.614,1.354a1.124,1.124,0,0,1-1.1-1.046,1.891,1.891,0,0,1-1.534,1.046c-.817,0-1.047-.737-1.047-1.424a5.569,5.569,0,0,1,.888-2.83c.059-.089.129-.219.259-.219a.183.183,0,0,1,.189.189,4.96,4.96,0,0,0-1.017,2.421c0,.559.209,1.147.868,1.147a1.712,1.712,0,0,0,1.354-.917,3.641,3.641,0,0,1,.23-1.206.28.28,0,0,1,.268-.169c.13,0,.18.1.18.218a4.537,4.537,0,0,1-.339,1.176.941.941,0,0,0,.967.9,1.473,1.473,0,0,0,1.136-.768,2.834,2.834,0,0,0,.5-1.425,1.083,1.083,0,0,0-.349-.837.411.411,0,0,1-.149-.3.546.546,0,0,1,.528-.468c.219,0,.4.249.4.7A8.2,8.2,0,0,1,752.2,441.881Z" transform="translate(-449.049 -305.968)"/>
    <path class="cls-1" d="M755.37,441.7a1.083,1.083,0,0,0-.551.133.594.594,0,0,0-.278.446c0,.154.125.3.383.349.042.014.217.041.279.056.258.048.962.173.962.815,0,.273-.237,1.15-1.519,1.15-.677,0-1.124-.257-1.124-.675a.424.424,0,0,1,.4-.468.249.249,0,0,1,.272.259.413.413,0,0,1-.384.4,1.07,1.07,0,0,0,.837.292,1.505,1.505,0,0,0,.7-.153.7.7,0,0,0,.369-.558c0-.348-.447-.432-.593-.46a1.523,1.523,0,0,1-.788-.251.666.666,0,0,1-.243-.509,1.133,1.133,0,0,1,1.282-1.018c.426,0,.928.153.928.606a.348.348,0,0,1-.335.4.224.224,0,0,1-.23-.223.359.359,0,0,1,.293-.328A.806.806,0,0,0,755.37,441.7Z" transform="translate(-449.049 -305.968)"/>
    <path class="cls-1" d="M758.2,445.378c-.06.169-.09.239-.219.239a.2.2,0,0,1-.2-.2.535.535,0,0,1,.05-.18l3.458-9.5a.185.185,0,0,1,.169-.089.2.2,0,0,1,.2.2.533.533,0,0,1-.05.178Z" transform="translate(-449.049 -305.968)"/>
    <path class="cls-1" d="M765.328,442.358a.8.8,0,0,0,1.166-.965h.249l-.278,1.733h-3.7c0-.239,0-.259.109-.369l1.913-2.132a3.566,3.566,0,0,0,1.047-2.2c0-.818-.429-1.624-1.335-1.624a1.439,1.439,0,0,0-1.346,1.016.425.425,0,0,1,.13-.009.5.5,0,0,1,.527.517.523.523,0,1,1-1.045-.03,1.84,1.84,0,0,1,1.863-1.8,1.957,1.957,0,0,1,2.112,1.933c0,1-.6,1.534-2.152,2.909l-1.056,1.026Z" transform="translate(-449.049 -305.968)"/>
    <path class="cls-1" d="M903.836,430.9c-.358.748-.837,1.355-1.614,1.355a1.124,1.124,0,0,1-1.1-1.046,1.891,1.891,0,0,1-1.534,1.046c-.818,0-1.047-.737-1.047-1.425a5.565,5.565,0,0,1,.888-2.829c.059-.09.129-.22.258-.22a.184.184,0,0,1,.19.19,4.96,4.96,0,0,0-1.017,2.421c0,.558.209,1.146.867,1.146a1.711,1.711,0,0,0,1.355-.917,3.674,3.674,0,0,1,.229-1.206.284.284,0,0,1,.269-.169c.13,0,.18.1.18.219a4.548,4.548,0,0,1-.339,1.176.94.94,0,0,0,.967.9,1.473,1.473,0,0,0,1.135-.767,2.828,2.828,0,0,0,.5-1.425,1.081,1.081,0,0,0-.348-.837.413.413,0,0,1-.15-.3.548.548,0,0,1,.529-.469c.218,0,.4.249.4.7A8.192,8.192,0,0,1,903.836,430.9Z" transform="translate(-449.049 -305.968)"/>
    <path class="cls-1" d="M801.328,412.459c-.358.747-.837,1.354-1.614,1.354a1.124,1.124,0,0,1-1.1-1.045,1.892,1.892,0,0,1-1.534,1.045c-.817,0-1.047-.737-1.047-1.424a5.562,5.562,0,0,1,.888-2.829c.059-.09.129-.22.259-.22a.183.183,0,0,1,.189.189,4.96,4.96,0,0,0-1.017,2.421c0,.559.209,1.147.868,1.147a1.712,1.712,0,0,0,1.354-.917,3.641,3.641,0,0,1,.23-1.206.28.28,0,0,1,.268-.169c.13,0,.18.1.18.218a4.537,4.537,0,0,1-.339,1.176.941.941,0,0,0,.967.9,1.473,1.473,0,0,0,1.136-.768,2.834,2.834,0,0,0,.5-1.425,1.083,1.083,0,0,0-.349-.837.409.409,0,0,1-.149-.3.546.546,0,0,1,.528-.469c.219,0,.4.249.4.7A8.2,8.2,0,0,1,801.328,412.459Z" transform="translate(-449.049 -305.968)"/>
    <path class="cls-1" d="M805.472,413.405a2.422,2.422,0,0,0,.118-.655c0-.133-.007-.488-.411-.488a1.294,1.294,0,0,0-1.046.641,1.43,1.43,0,0,0-.293.628c-.035.16-.077.314-.118.467-.042.174-.119.5-.154.628a2.745,2.745,0,0,1-.126.432.341.341,0,0,1-.271.153.222.222,0,0,1-.237-.223A2.832,2.832,0,0,1,803,414.7l.224-.892c.034-.154.1-.44.153-.628a3.076,3.076,0,0,0,.111-.578c0-.189-.049-.342-.23-.342-.272,0-.4.342-.509.753-.049.188-.056.209-.153.209-.021,0-.119,0-.119-.09a2.487,2.487,0,0,1,.251-.691.635.635,0,0,1,.551-.377.708.708,0,0,1,.746.635,1.484,1.484,0,0,1,1.179-.635.792.792,0,0,1,.906.705,1.55,1.55,0,0,1,1.235-.705,1.033,1.033,0,0,1,.648.189.726.726,0,0,1,.258.606,5.132,5.132,0,0,1-.369,1.346,1.39,1.39,0,0,0-.161.565c0,.147.028.244.174.244.28,0,.58-.286.74-.844.027-.076.034-.118.132-.118.021,0,.112,0,.112.091s-.307,1.066-1,1.066a.615.615,0,0,1-.662-.6.945.945,0,0,1,.1-.376,5.617,5.617,0,0,0,.411-1.485c0-.168-.02-.488-.411-.488A1.374,1.374,0,0,0,806.2,413a1.219,1.219,0,0,0-.217.53c-.034.16-.076.314-.118.467-.042.174-.118.5-.153.628a2.858,2.858,0,0,1-.126.432.341.341,0,0,1-.272.153.222.222,0,0,1-.237-.223c0-.035.063-.272.1-.411Z" transform="translate(-449.049 -305.968)"/>
    <polyline points="359.524 118.868 364.335 120.472 362.732 115.661 361.93 118.067"/>
    <line class="cls-2" x1="357.248" y1="113.385" x2="361.93" y2="118.067"/>
    <path class="cls-1" d="M805.661,309.742a.6.6,0,0,0,.19-.359c0-.279-.309-.3-.4-.309-.069-.01-.119-.039-.119-.109,0-.2.129-.2.189-.2.359,0,.738.029,1.106.029.309,0,.638-.029.936-.029.13,0,.13.1.13.109,0,.189-.09.189-.219.2a2.029,2.029,0,0,0-1.265.509c-.319.278-1.365,1.464-2.043,2.162.229.6.9,2.152,1.285,3.079.17.4.19.428.858.438.079,0,.178,0,.178.119,0,.19-.119.19-.189.19-.249,0-.857-.03-1.106-.03-.279,0-.976.03-1.255.03-.041,0-.15,0-.15-.12,0-.169.09-.179.2-.189.389-.04.578-.209.578-.289a.691.691,0,0,0-.049-.14l-1.006-2.381-.9.977-1.015,1.076c-.12.129-.27.288-.27.448,0,.279.309.3.4.309a.113.113,0,0,1,.12.11c0,.2-.12.2-.18.2-.358,0-.747-.03-1.116-.03-.309,0-.638.03-.937.03-.13,0-.13-.1-.13-.11,0-.189.09-.189.22-.2a2.012,2.012,0,0,0,1.465-.718l.129-.109,2.1-2.262-1.175-2.78c-.089-.219-.15-.319-.747-.319-.13,0-.23,0-.23-.109,0-.2.12-.2.18-.2.249,0,.867.029,1.116.029.418,0,.847-.029,1.255-.029.03,0,.149,0,.149.119,0,.169-.1.179-.2.189-.418.04-.588.229-.588.289,0,.01.021.05.05.13l.838,1.983Z" transform="translate(-449.049 -305.968)"/>
    <path class="cls-1" d="M811.53,318.062a4.3,4.3,0,0,1-1.553-1.874,7.663,7.663,0,0,1-.031-6.147,4.341,4.341,0,0,1,1.584-1.943.089.089,0,0,1,.1.1c0,.031,0,.05-.129.17a6.515,6.515,0,0,0-1.605,4.713,6.6,6.6,0,0,0,1.565,4.663c.169.169.169.189.169.219A.09.09,0,0,1,811.53,318.062Z" transform="translate(-449.049 -305.968)"/>
    <path class="cls-1" d="M817.578,314.325c-.358.748-.837,1.355-1.614,1.355a1.125,1.125,0,0,1-1.1-1.046,1.891,1.891,0,0,1-1.534,1.046c-.817,0-1.047-.737-1.047-1.425a5.565,5.565,0,0,1,.888-2.829c.059-.09.129-.219.259-.219a.183.183,0,0,1,.189.189,4.955,4.955,0,0,0-1.017,2.421c0,.558.209,1.146.868,1.146a1.707,1.707,0,0,0,1.354-.917,3.64,3.64,0,0,1,.23-1.2.282.282,0,0,1,.268-.17c.13,0,.18.1.18.22a4.553,4.553,0,0,1-.339,1.175.94.94,0,0,0,.967.9,1.474,1.474,0,0,0,1.136-.767,2.84,2.84,0,0,0,.5-1.425,1.083,1.083,0,0,0-.349-.837.411.411,0,0,1-.149-.3.546.546,0,0,1,.528-.468c.219,0,.4.249.4.7A8.192,8.192,0,0,1,817.578,314.325Z" transform="translate(-449.049 -305.968)"/>
    <path class="cls-1" d="M821.021,316.119a4.342,4.342,0,0,1-1.583,1.943.094.094,0,0,1-.1-.1c0-.03,0-.05.129-.169a6.536,6.536,0,0,0,1.6-4.713,6.462,6.462,0,0,0-1.545-4.653c-.188-.18-.188-.2-.188-.23a.094.094,0,0,1,.1-.1,4.3,4.3,0,0,1,1.553,1.873,7.671,7.671,0,0,1,.03,6.148Z" transform="translate(-449.049 -305.968)"/>
    <path class="cls-3" d="M805.661,320.375a.6.6,0,0,0,.19-.359c0-.279-.309-.3-.4-.309-.069-.01-.119-.04-.119-.109,0-.2.129-.2.189-.2.359,0,.738.03,1.106.03.309,0,.638-.03.936-.03.13,0,.13.1.13.11,0,.189-.09.189-.219.2a2.034,2.034,0,0,0-1.265.508c-.319.279-1.365,1.465-2.043,2.162.229.6.9,2.153,1.285,3.08.17.4.19.428.858.438.079,0,.178,0,.178.119,0,.19-.119.19-.189.19-.249,0-.857-.03-1.106-.03-.279,0-.976.03-1.255.03-.041,0-.15,0-.15-.12,0-.169.09-.179.2-.189.389-.04.578-.209.578-.289a.691.691,0,0,0-.049-.14l-1.006-2.381-.9.977-1.015,1.076c-.12.129-.27.288-.27.448,0,.279.309.3.4.309a.113.113,0,0,1,.12.109c0,.2-.12.2-.18.2-.358,0-.747-.03-1.116-.03-.309,0-.638.03-.937.03-.13,0-.13-.1-.13-.11,0-.189.09-.189.22-.2a2.012,2.012,0,0,0,1.465-.718l.129-.109,2.1-2.262-1.175-2.78c-.089-.219-.15-.319-.747-.319-.13,0-.23,0-.23-.109,0-.2.12-.2.18-.2.249,0,.867.03,1.116.03.418,0,.847-.03,1.255-.03.03,0,.149,0,.149.12,0,.169-.1.179-.2.189-.418.04-.588.229-.588.289,0,.01.021.05.05.129l.838,1.983Z" transform="translate(-449.049 -305.968)"/>
    <path class="cls-3" d="M809.839,324.761a1.083,1.083,0,0,0-.551.133.594.594,0,0,0-.278.446c0,.153.125.3.383.348.042.015.216.042.279.057.258.048.962.174.962.815,0,.272-.238,1.151-1.52,1.151-.676,0-1.123-.258-1.123-.676a.423.423,0,0,1,.4-.468.249.249,0,0,1,.272.258.413.413,0,0,1-.384.4,1.07,1.07,0,0,0,.837.293,1.491,1.491,0,0,0,.7-.154.705.705,0,0,0,.37-.558c0-.348-.447-.432-.593-.46a1.525,1.525,0,0,1-.788-.251.666.666,0,0,1-.244-.509,1.134,1.134,0,0,1,1.283-1.018c.425,0,.927.153.927.606a.348.348,0,0,1-.335.4.224.224,0,0,1-.229-.223.358.358,0,0,1,.293-.328A.807.807,0,0,0,809.839,324.761Z" transform="translate(-449.049 -305.968)"/>
    <path class="cls-3" d="M814.89,328.7a4.3,4.3,0,0,1-1.554-1.874,7.668,7.668,0,0,1-.03-6.147,4.34,4.34,0,0,1,1.584-1.944.09.09,0,0,1,.1.1c0,.03,0,.05-.129.17a6.518,6.518,0,0,0-1.6,4.712,6.6,6.6,0,0,0,1.564,4.664c.169.169.169.189.169.219A.089.089,0,0,1,814.89,328.7Z" transform="translate(-449.049 -305.968)"/>
    <path class="cls-3" d="M820.938,324.958c-.359.748-.837,1.355-1.615,1.355a1.123,1.123,0,0,1-1.1-1.046,1.894,1.894,0,0,1-1.535,1.046c-.817,0-1.047-.737-1.047-1.425a5.562,5.562,0,0,1,.888-2.829c.06-.09.129-.22.259-.22a.184.184,0,0,1,.189.19,4.957,4.957,0,0,0-1.016,2.421c0,.558.209,1.146.867,1.146a1.713,1.713,0,0,0,1.355-.917,3.662,3.662,0,0,1,.229-1.2.282.282,0,0,1,.269-.17c.129,0,.179.1.179.219a4.509,4.509,0,0,1-.339,1.176.941.941,0,0,0,.967.9,1.474,1.474,0,0,0,1.136-.767,2.831,2.831,0,0,0,.5-1.425,1.081,1.081,0,0,0-.349-.837.415.415,0,0,1-.149-.3.547.547,0,0,1,.528-.469c.219,0,.4.25.4.7A8.192,8.192,0,0,1,820.938,324.958Z" transform="translate(-449.049 -305.968)"/>
    <path class="cls-3" d="M824.381,326.751A4.347,4.347,0,0,1,822.8,328.7a.094.094,0,0,1-.1-.1c0-.03,0-.05.129-.169a6.533,6.533,0,0,0,1.605-4.714,6.463,6.463,0,0,0-1.545-4.652c-.189-.18-.189-.2-.189-.23a.094.094,0,0,1,.1-.1,4.309,4.309,0,0,1,1.554,1.874,7.668,7.668,0,0,1,.03,6.147Z" transform="translate(-449.049 -305.968)"/>
    <line class="cls-2" x1="335.989" y1="38.976" x2="343.075" y2="38.976"/>
    <path class="cls-1" d="M772.848,342.452c0,.23,0,.321.7.321h.266v.251c-.155-.007-1.033-.028-1.249-.028-.258,0-1.116.021-1.242.028v-.251h.266c.7,0,.7-.091.7-.321V338.9a2.3,2.3,0,0,1-1.012.195v-.251a1.906,1.906,0,0,0,1.368-.446c.195,0,.209.007.209.195Z" transform="translate(-449.049 -305.968)"/>
    <polyline points="319.062 38.736 327.702 38.736 327.702 38.256 319.062 38.256"/>
    <path class="cls-1" d="M770.582,349.9a.433.433,0,0,0-.028.16c0,.083.014.111.251.132.133.008.272.014.4.014.217,0,.286,0,.286.1,0,.153-.1.153-.16.153-.189,0-.4-.014-.586-.021s-.433-.006-.628-.006-.4.006-.6.006-.4.021-.6.021c-.105,0-.118-.076-.118-.1,0-.154.062-.154.313-.154.733,0,.753-.069.817-.327l.92-3.668a.606.606,0,0,0,.028-.147c0-.063-.007-.069-.217-.069h-.292c-1.06,0-1.29.069-1.7,1.185-.041.132-.056.168-.147.168s-.118-.07-.118-.1a.663.663,0,0,1,.035-.126l.44-1.234c.049-.146.062-.146.236-.146h4.289c.125,0,.209,0,.209.1l-.188,1.332c-.014.112-.028.175-.132.175-.071,0-.119-.036-.119-.1l.014-.077a3.5,3.5,0,0,0,.049-.565c0-.251-.015-.453-.328-.551a2.676,2.676,0,0,0-.781-.055c-.14,0-.384,0-.418.006-.154.015-.168.036-.217.238Z" transform="translate(-449.049 -305.968)"/>
    <path class="cls-1" d="M774.793,349.393c-.717,0-.717.413-.717.418,0,.2.244.243.6.3.259.045.806.129.806.577,0,.2-.174.791-1.194.791-.144,0-.92,0-.92-.487a.33.33,0,0,1,.319-.359.2.2,0,0,1,.213.2.316.316,0,0,1-.258.3,1.006,1.006,0,0,0,.656.169c.916,0,.916-.513.916-.517,0-.254-.349-.309-.662-.358a1.245,1.245,0,0,1-.552-.165.431.431,0,0,1-.194-.353c0-.179.159-.691,1-.691.373,0,.765.1.765.438a.278.278,0,0,1-.263.308.18.18,0,0,1-.189-.179.262.262,0,0,1,.2-.249A.758.758,0,0,0,774.793,349.393Z" transform="translate(-449.049 -305.968)"/>
    <path class="cls-4" d="M760.235,429.984s.776-85.039,28.346-85.039,28.346,85.039,28.346,85.039h0m14.173,0s.777-85.039,28.347-85.039,28.346,85.039,28.346,85.039h0m-198.424,0s.777-85.039,28.346-85.039,28.346,85.039,28.346,85.039h0" transform="translate(-449.049 -305.968)"/>
    <path class="cls-5" d="M760.235,429.984s-4.8-106.3,28.346-106.3,28.346,106.3,28.346,106.3h0" transform="translate(-449.049 -305.968)"/>
    <path class="cls-1" d="M776.469,455.576c-.359.747-.837,1.355-1.615,1.355a1.124,1.124,0,0,1-1.1-1.046,1.893,1.893,0,0,1-1.534,1.046c-.818,0-1.047-.738-1.047-1.425a5.574,5.574,0,0,1,.887-2.829c.06-.09.129-.22.259-.22a.184.184,0,0,1,.19.189,4.96,4.96,0,0,0-1.017,2.421c0,.559.209,1.147.867,1.147a1.711,1.711,0,0,0,1.355-.917,3.669,3.669,0,0,1,.229-1.206.282.282,0,0,1,.269-.169c.13,0,.179.1.179.219a4.528,4.528,0,0,1-.338,1.175.94.94,0,0,0,.966.9,1.473,1.473,0,0,0,1.136-.768,2.825,2.825,0,0,0,.5-1.425,1.08,1.08,0,0,0-.348-.836.414.414,0,0,1-.15-.3.547.547,0,0,1,.528-.469c.219,0,.4.249.4.7A8.2,8.2,0,0,1,776.469,455.576Z" transform="translate(-449.049 -305.968)"/>
    <path class="cls-1" d="M779.644,455.387a1.069,1.069,0,0,0-.551.133.591.591,0,0,0-.279.446c0,.153.125.3.383.348.042.014.217.041.28.056.257.049.961.174.961.816,0,.272-.237,1.15-1.519,1.15-.677,0-1.123-.258-1.123-.676a.424.424,0,0,1,.4-.468.25.25,0,0,1,.273.259.415.415,0,0,1-.384.4,1.071,1.071,0,0,0,.837.292,1.491,1.491,0,0,0,.7-.154.7.7,0,0,0,.369-.557c0-.349-.446-.433-.593-.46a1.532,1.532,0,0,1-.788-.251.669.669,0,0,1-.243-.509,1.134,1.134,0,0,1,1.282-1.019c.426,0,.928.154.928.607a.348.348,0,0,1-.335.4.223.223,0,0,1-.229-.222.357.357,0,0,1,.293-.328A.805.805,0,0,0,779.644,455.387Z" transform="translate(-449.049 -305.968)"/>
    <path class="cls-1" d="M785.158,453.563c-.149,0-.339,0-.339-.2s.19-.2.329-.2h5.969c.14,0,.328,0,.328.2s-.188.2-.338.2Zm-.01,1.933c-.139,0-.329,0-.329-.2s.19-.2.339-.2h5.949c.15,0,.338,0,.338.2s-.188.2-.328.2Z" transform="translate(-449.049 -305.968)"/>
    <path class="cls-1" d="M799.215,452.868h-2.873c0-.195,0-.209.069-.271l1.681-1.66a2.121,2.121,0,0,0,.655-1.339,1.043,1.043,0,0,0-1.059-1.109,1.1,1.1,0,0,0-1.019.649c.363,0,.412.244.412.369a.37.37,0,1,1-.739-.021,1.352,1.352,0,0,1,1.45-1.248,1.46,1.46,0,0,1,1.632,1.36,2.021,2.021,0,0,1-1,1.506c-.419.328-.662.523-1.395,1.171h1.283a3.6,3.6,0,0,0,.691-.042,1.624,1.624,0,0,0,.181-.634h.237Z" transform="translate(-449.049 -305.968)"/>
    <path class="cls-1" d="M801.6,452c-.167.628-.245.942-.524.942a.225.225,0,0,1-.243-.223.344.344,0,0,1,.021-.1c.02-.028.09-.174.132-.265a12.631,12.631,0,0,0,.8-2.008h-.426a1.085,1.085,0,0,0-.941.488c-.042.063-.049.076-.125.076-.028,0-.119,0-.119-.083a2.131,2.131,0,0,1,.453-.6,1.025,1.025,0,0,1,.8-.357h2.629c.118,0,.3,0,.3.2a.292.292,0,0,1-.119.217.361.361,0,0,1-.257.056h-.873a4.354,4.354,0,0,0-.1.906,2.657,2.657,0,0,0,.259,1.228.261.261,0,0,1,.055.153.341.341,0,0,1-.328.314c-.111,0-.2-.028-.313-.376a2.255,2.255,0,0,1-.077-.622,7.113,7.113,0,0,1,.257-1.6h-.829Z" transform="translate(-449.049 -305.968)"/>
    <polyline points="346.852 148.578 355.852 148.578 355.852 148.098 346.852 148.098"/>
    <path class="cls-1" d="M798.5,459.748a.436.436,0,0,0-.028.16c0,.084.014.112.251.133.133.007.272.014.4.014.217,0,.286,0,.286.1,0,.154-.1.154-.16.154-.188,0-.4-.014-.586-.021s-.433-.008-.628-.008-.4.008-.6.008-.405.021-.6.021c-.105,0-.118-.077-.118-.1,0-.153.062-.153.313-.153.733,0,.753-.07.817-.328l.92-3.668a.6.6,0,0,0,.028-.147c0-.062-.007-.069-.217-.069h-.292c-1.06,0-1.29.069-1.7,1.185-.041.133-.056.167-.147.167s-.118-.069-.118-.1a.632.632,0,0,1,.035-.125l.44-1.235c.049-.146.062-.146.236-.146h4.289c.125,0,.209,0,.209.1l-.188,1.332c-.014.112-.028.174-.132.174-.07,0-.119-.034-.119-.1l.014-.076a3.528,3.528,0,0,0,.049-.566c0-.251-.014-.453-.328-.551a2.676,2.676,0,0,0-.781-.055c-.14,0-.384,0-.418.007-.154.013-.168.035-.217.237Z" transform="translate(-449.049 -305.968)"/>
    <path class="cls-1" d="M802.7,459.237c-.717,0-.717.413-.717.418,0,.2.245.243.6.3.259.045.807.13.807.577,0,.2-.175.791-1.195.791-.144,0-.92,0-.92-.487a.329.329,0,0,1,.319-.358.2.2,0,0,1,.214.2.315.315,0,0,1-.259.3,1,1,0,0,0,.656.169c.916,0,.916-.512.916-.517,0-.254-.348-.309-.662-.359a1.246,1.246,0,0,1-.552-.164.431.431,0,0,1-.194-.352c0-.18.159-.692,1-.692.373,0,.766.105.766.438a.277.277,0,0,1-.264.308.179.179,0,0,1-.189-.179.261.261,0,0,1,.2-.248A.758.758,0,0,0,802.7,459.237Z" transform="translate(-449.049 -305.968)"/>
    <polyline points="204.944 126.283 209.479 124.015 204.944 121.747 206.078 124.015"/>
    <line class="cls-2" x1="0.425" y1="124.015" x2="206.078" y2="124.015"/>
    <polyline points="23.953 4.535 21.685 0 19.417 4.535 21.685 3.402"/>
    <line class="cls-2" x1="21.685" y1="127.558" x2="21.685" y2="3.402"/>
    <path class="cls-6" d="M470.734,366.2s17.148-15.246,28.346-17.716a43.3,43.3,0,0,1,28.346,3.543c12.358,6.044,14.974,26.176,28.347,28.347,7.929,1.286,14.106-6.619,21.259-10.63,10.06-5.642,17.047-15.93,28.347-17.717,9.877-1.561,18.293,7.087,28.346,7.087,5.026,0,14.173-3.544,14.173-3.544h0" transform="translate(-449.049 -305.968)"/>
    <path class="cls-1" d="M480.813,313.927a3.9,3.9,0,0,0-.169.877c0,.339.159.657.548.657.319,0,1-.239,1.325-1.305.02-.07.04-.11.13-.11.03,0,.12,0,.12.1,0,.249-.569,1.534-1.595,1.534a1.1,1.1,0,0,1-1.076-.757,1.323,1.323,0,0,1-1.046.757c-.439,0-.937-.2-.937-.657a.566.566,0,0,1,.548-.578.341.341,0,0,1,.369.348.565.565,0,0,1-.468.539.96.96,0,0,0,.5.129c.438,0,.787-.419.946-1.036a14.494,14.494,0,0,0,.538-2.371c0-.578-.348-.668-.538-.668-.339,0-1,.249-1.335,1.3-.02.09-.05.11-.129.11-.021,0-.12,0-.12-.1,0-.249.568-1.534,1.6-1.534a1.1,1.1,0,0,1,1.077.757,1.287,1.287,0,0,1,1.045-.757c.339,0,.927.139.927.657a.556.556,0,0,1-.538.578.347.347,0,0,1-.378-.348.577.577,0,0,1,.478-.538.976.976,0,0,0-.5-.13c-.7,0-.927.917-.987,1.176Z" transform="translate(-449.049 -305.968)"/>
    <path class="cls-1" d="M486.655,318.062a4.309,4.309,0,0,1-1.554-1.874,7.668,7.668,0,0,1-.03-6.147,4.341,4.341,0,0,1,1.584-1.943.089.089,0,0,1,.1.1c0,.031,0,.05-.13.17a6.518,6.518,0,0,0-1.6,4.713,6.6,6.6,0,0,0,1.565,4.663c.169.169.169.189.169.219A.09.09,0,0,1,486.655,318.062Z" transform="translate(-449.049 -305.968)"/>
    <path class="cls-1" d="M488.616,314.524a1.6,1.6,0,0,0-.06.479c0,.329.1.458.309.458.339,0,.867-.239,1.3-1.275.049-.11.059-.14.149-.14.04,0,.12,0,.12.1,0,.08-.569,1.534-1.585,1.534a.878.878,0,0,1-.916-.916,25.422,25.422,0,0,1,.757-3.179h-.877c-.2,0-.279,0-.279-.119,0-.19.1-.19.3-.19h.937l.388-1.584a.426.426,0,0,1,.4-.359.263.263,0,0,1,.289.27c0,.059-.05.258-.409,1.673h.877c.179,0,.279,0,.279.11,0,.2-.1.2-.3.2h-.936Z" transform="translate(-449.049 -305.968)"/>
    <path class="cls-1" d="M493.154,316.119a4.348,4.348,0,0,1-1.584,1.943.094.094,0,0,1-.1-.1c0-.03,0-.05.13-.169a6.536,6.536,0,0,0,1.6-4.713,6.466,6.466,0,0,0-1.544-4.653c-.19-.18-.19-.2-.19-.23a.094.094,0,0,1,.1-.1,4.316,4.316,0,0,1,1.555,1.873,7.676,7.676,0,0,1,.029,6.148Z" transform="translate(-449.049 -305.968)"/>
    <line class="cls-7" x1="0.425" y1="88.582" x2="14.598" y2="88.582"/>
    <line class="cls-8" x1="198.849" y1="88.582" x2="213.022" y2="88.582"/>
    <path class="cls-9" d="M480.813,324.56a3.9,3.9,0,0,0-.169.877c0,.338.159.657.548.657.319,0,1-.239,1.325-1.305.02-.07.04-.11.13-.11.03,0,.12,0,.12.1,0,.249-.569,1.534-1.595,1.534a1.1,1.1,0,0,1-1.076-.757,1.323,1.323,0,0,1-1.046.757c-.439,0-.937-.2-.937-.657a.566.566,0,0,1,.548-.578.341.341,0,0,1,.369.348.563.563,0,0,1-.468.538.954.954,0,0,0,.5.13c.438,0,.787-.419.946-1.036a14.494,14.494,0,0,0,.538-2.371c0-.579-.348-.668-.538-.668-.339,0-1,.249-1.335,1.305-.02.09-.05.11-.129.11-.021,0-.12,0-.12-.1,0-.249.568-1.535,1.6-1.535a1.1,1.1,0,0,1,1.077.758,1.288,1.288,0,0,1,1.045-.758c.339,0,.927.14.927.658a.556.556,0,0,1-.538.578.347.347,0,0,1-.378-.348.579.579,0,0,1,.478-.539.982.982,0,0,0-.5-.129c-.7,0-.927.917-.987,1.175Z" transform="translate(-449.049 -305.968)"/>
    <path class="cls-9" d="M485.8,324.761a1.083,1.083,0,0,0-.551.133.6.6,0,0,0-.279.446c0,.153.126.3.384.348.042.015.216.042.279.057.258.048.962.174.962.815,0,.272-.237,1.151-1.52,1.151-.677,0-1.123-.258-1.123-.676a.423.423,0,0,1,.4-.468.249.249,0,0,1,.272.258.413.413,0,0,1-.383.4,1.07,1.07,0,0,0,.837.293,1.489,1.489,0,0,0,.7-.154.705.705,0,0,0,.37-.558c0-.348-.446-.432-.593-.46a1.525,1.525,0,0,1-.788-.251.666.666,0,0,1-.244-.509,1.134,1.134,0,0,1,1.283-1.018c.425,0,.927.153.927.606a.348.348,0,0,1-.334.4.225.225,0,0,1-.231-.223.359.359,0,0,1,.293-.328A.805.805,0,0,0,485.8,324.761Z" transform="translate(-449.049 -305.968)"/>
    <path class="cls-9" d="M490.866,328.7a4.309,4.309,0,0,1-1.554-1.874,7.668,7.668,0,0,1-.03-6.147,4.347,4.347,0,0,1,1.584-1.944.09.09,0,0,1,.1.1c0,.03,0,.05-.13.17a6.518,6.518,0,0,0-1.6,4.712,6.6,6.6,0,0,0,1.565,4.664c.169.169.169.189.169.219A.09.09,0,0,1,490.866,328.7Z" transform="translate(-449.049 -305.968)"/>
    <path class="cls-9" d="M492.819,325.157a1.6,1.6,0,0,0-.06.479c0,.328.1.458.309.458.339,0,.867-.239,1.3-1.275.05-.11.059-.14.149-.14.04,0,.12,0,.12.1,0,.079-.569,1.534-1.585,1.534a.878.878,0,0,1-.916-.917,25.513,25.513,0,0,1,.757-3.178h-.877c-.2,0-.279,0-.279-.119,0-.19.1-.19.3-.19h.937l.388-1.584a.426.426,0,0,1,.4-.359.262.262,0,0,1,.289.269c0,.06-.05.259-.409,1.674h.877c.179,0,.279,0,.279.11,0,.2-.1.2-.3.2h-.936Z" transform="translate(-449.049 -305.968)"/>
    <path class="cls-9" d="M497.35,326.751a4.339,4.339,0,0,1-1.585,1.944.094.094,0,0,1-.1-.1c0-.03,0-.05.129-.169a6.533,6.533,0,0,0,1.6-4.714,6.459,6.459,0,0,0-1.544-4.652c-.189-.18-.189-.2-.189-.23a.1.1,0,0,1,.1-.1,4.3,4.3,0,0,1,1.555,1.874,7.679,7.679,0,0,1,.03,6.147Z" transform="translate(-449.049 -305.968)"/>
    <path class="cls-10" d="M449.474,429.984H584.119m0,0h70.866" transform="translate(-449.049 -305.968)"/>
    <polyline class="cls-9" points="137.338 64.771 135.07 60.236 132.802 64.771 135.07 63.637"/>
    <line class="cls-10" x1="135.07" y1="124.015" x2="135.07" y2="63.637"/>
    <polyline class="cls-9" points="108.991 78.944 106.724 74.409 104.456 78.944 106.724 77.811"/>
    <line class="cls-10" x1="106.724" y1="124.015" x2="106.724" y2="77.811"/>
    <polyline class="cls-9" points="80.645 50.598 78.377 46.063 76.11 50.598 78.377 49.464"/>
    <line class="cls-10" x1="78.377" y1="124.015" x2="78.377" y2="49.464"/>
    <polyline class="cls-9" points="52.299 47.055 50.031 42.519 47.763 47.055 50.031 45.921"/>
    <line class="cls-10" x1="50.031" y1="124.015" x2="50.031" y2="45.921"/>
    <polyline class="cls-9" points="23.953 64.771 21.685 60.236 19.417 64.771 21.685 63.637"/>
    <line class="cls-10" x1="21.685" y1="124.015" x2="21.685" y2="63.637"/>
    <polyline class="cls-9" points="165.684 50.598 163.416 46.063 161.149 50.598 163.416 49.464"/>
    <line class="cls-10" x1="163.416" y1="124.015" x2="163.416" y2="49.464"/>
    <polyline class="cls-9" points="194.03 57.685 191.763 53.149 189.495 57.685 191.763 56.551"/>
    <line class="cls-10" x1="191.763" y1="124.015" x2="191.763" y2="56.551"/>
    <polyline points="54.567 75.685 50.031 77.952 54.567 80.22 53.433 77.952"/>
    <polyline points="73.842 80.22 78.377 77.952 73.842 75.685 74.976 77.952"/>
    <line class="cls-2" x1="53.433" y1="77.952" x2="74.976" y2="77.952"/>
    <path class="cls-1" d="M511.144,375.29a.85.85,0,0,0-.04.21c0,.159.08.188.369.219.259.019.389.019.638.019s.339,0,.339.11c0,.2-.12.2-.22.2-.279,0-.578-.02-.867-.02-.269,0-.548-.009-.826-.009s-.568.009-.848.009-.547.02-.816.02c-.06,0-.17,0-.17-.119,0-.19.06-.19.419-.19,1.066,0,1.1-.109,1.185-.478l1.336-5.321a1.029,1.029,0,0,0,.039-.209c0-.08,0-.119-.279-.119h-.388c-1.475,0-1.734.179-2.272,1.723-.06.16-.07.209-.169.209a.113.113,0,0,1-.12-.109,1.214,1.214,0,0,1,.06-.179l.6-1.754c.069-.189.079-.2.319-.2h5.529c.17,0,.269,0,.269.109a1,1,0,0,1-.02.17l-.269,1.733c-.02.15-.039.229-.149.229a.117.117,0,0,1-.12-.129,1.468,1.468,0,0,1,.03-.189,7.344,7.344,0,0,0,.08-.8c0-.778-.448-.817-1.455-.817a5.683,5.683,0,0,0-.627.019c-.12.031-.16.09-.23.369Z" transform="translate(-449.049 -305.968)"/>
    <path class="cls-1" d="M516.44,374.605a1.085,1.085,0,0,0-.55.132.594.594,0,0,0-.279.447c0,.153.125.3.383.348.042.014.216.042.279.056.258.049.963.175.963.816,0,.272-.237,1.151-1.521,1.151-.676,0-1.122-.259-1.122-.677a.422.422,0,0,1,.4-.467.249.249,0,0,1,.272.258.412.412,0,0,1-.383.4,1.068,1.068,0,0,0,.837.293,1.5,1.5,0,0,0,.7-.153.708.708,0,0,0,.37-.558c0-.349-.447-.432-.593-.46a1.521,1.521,0,0,1-.788-.251.666.666,0,0,1-.244-.509,1.134,1.134,0,0,1,1.283-1.018c.425,0,.927.153.927.606a.348.348,0,0,1-.334.4.225.225,0,0,1-.231-.224.358.358,0,0,1,.293-.327A.806.806,0,0,0,516.44,374.605Z" transform="translate(-449.049 -305.968)"/>
    <path class="cls-1" d="M472.43,442.916a1.863,1.863,0,0,1-3.378.149,5.038,5.038,0,0,1-.448-2.4,5.328,5.328,0,0,1,.368-2.262,1.827,1.827,0,0,1,1.734-1.185,1.848,1.848,0,0,1,1.694,1.115,7.052,7.052,0,0,1,.03,4.584Zm-.568-.309a19.341,19.341,0,0,0,.01-4.005c-.19-.987-.847-1.166-1.176-1.166-.249,0-1,.089-1.186,1.275a13.491,13.491,0,0,0-.079,1.834,13.632,13.632,0,0,0,.109,2.1c.179.958.767,1.207,1.156,1.207C471.144,443.853,471.712,443.554,471.862,442.607Z" transform="translate(-449.049 -305.968)"/>
    <path class="cls-1" d="M496.972,442.619a.884.884,0,0,0-.039.209c0,.159.079.19.368.219.259.02.389.02.638.02s.339,0,.339.11c0,.2-.12.2-.219.2-.28,0-.579-.02-.868-.02-.269,0-.547-.01-.826-.01s-.568.01-.847.01-.548.02-.817.02c-.06,0-.17,0-.17-.119,0-.19.06-.19.419-.19,1.066,0,1.1-.11,1.185-.478l1.336-5.321a1.057,1.057,0,0,0,.039-.209c0-.08,0-.12-.279-.12h-.388c-1.475,0-1.734.179-2.272,1.724-.06.159-.07.209-.169.209a.113.113,0,0,1-.12-.109,1.31,1.31,0,0,1,.06-.18l.6-1.753c.069-.189.08-.2.319-.2h5.53c.169,0,.269,0,.269.11a1.1,1.1,0,0,1-.02.169l-.269,1.735c-.02.149-.04.228-.15.228a.116.116,0,0,1-.119-.129,1.617,1.617,0,0,1,.029-.189,7.383,7.383,0,0,0,.08-.8c0-.777-.448-.817-1.455-.817a5.4,5.4,0,0,0-.627.02c-.12.03-.16.09-.23.369Z" transform="translate(-449.049 -305.968)"/>
    <path class="cls-1" d="M502.261,441.934a1.078,1.078,0,0,0-.551.132.6.6,0,0,0-.279.447c0,.153.126.3.383.348.042.014.217.041.28.056.258.049.962.174.962.815,0,.273-.237,1.151-1.52,1.151-.677,0-1.123-.258-1.123-.676a.423.423,0,0,1,.4-.468.249.249,0,0,1,.272.259.415.415,0,0,1-.383.4,1.073,1.073,0,0,0,.837.292,1.491,1.491,0,0,0,.7-.154.7.7,0,0,0,.37-.557c0-.349-.446-.433-.593-.46a1.525,1.525,0,0,1-.788-.251.666.666,0,0,1-.244-.509,1.134,1.134,0,0,1,1.283-1.019c.425,0,.927.154.927.607a.347.347,0,0,1-.334.4.224.224,0,0,1-.231-.222.359.359,0,0,1,.293-.329A.8.8,0,0,0,502.261,441.934Z" transform="translate(-449.049 -305.968)"/>
    <path class="cls-1" d="M522.922,442.608a.8.8,0,0,0,1.166-.965h.249l-.279,1.733h-3.7c0-.239,0-.259.11-.369l1.913-2.132a3.57,3.57,0,0,0,1.046-2.2c0-.818-.428-1.624-1.335-1.624a1.437,1.437,0,0,0-1.345,1.016.417.417,0,0,1,.129-.009.5.5,0,0,1,.529.517.524.524,0,1,1-1.047-.03,1.841,1.841,0,0,1,1.864-1.8,1.957,1.957,0,0,1,2.112,1.933c0,1-.6,1.534-2.152,2.909l-1.056,1.026Z" transform="translate(-449.049 -305.968)"/>
    <path class="cls-1" d="M527.832,442.619a.864.864,0,0,0-.04.209c0,.159.08.19.369.219.258.02.388.02.637.02s.339,0,.339.11c0,.2-.119.2-.219.2-.279,0-.578-.02-.867-.02-.269,0-.548-.01-.827-.01s-.568.01-.847.01-.548.02-.817.02c-.06,0-.169,0-.169-.119,0-.19.059-.19.418-.19,1.066,0,1.1-.11,1.186-.478l1.335-5.321a.982.982,0,0,0,.04-.209c0-.08,0-.12-.279-.12H527.7c-1.474,0-1.734.179-2.271,1.724-.06.159-.07.209-.17.209a.112.112,0,0,1-.119-.109,1.3,1.3,0,0,1,.059-.18l.6-1.753c.07-.189.08-.2.319-.2h5.53c.169,0,.269,0,.269.11a1.1,1.1,0,0,1-.02.169l-.269,1.735c-.02.149-.04.228-.149.228a.117.117,0,0,1-.12-.129,1.441,1.441,0,0,1,.03-.189,7.383,7.383,0,0,0,.08-.8c0-.777-.449-.817-1.455-.817a5.429,5.429,0,0,0-.628.02c-.119.03-.159.09-.229.369Z" transform="translate(-449.049 -305.968)"/>
    <path class="cls-1" d="M533.136,441.934a1.078,1.078,0,0,0-.551.132.6.6,0,0,0-.279.447c0,.153.126.3.383.348.042.014.217.041.28.056.258.049.962.174.962.815,0,.273-.237,1.151-1.52,1.151-.677,0-1.123-.258-1.123-.676a.423.423,0,0,1,.4-.468.249.249,0,0,1,.272.259.415.415,0,0,1-.383.4,1.073,1.073,0,0,0,.837.292,1.491,1.491,0,0,0,.7-.154.7.7,0,0,0,.37-.557c0-.349-.446-.433-.593-.46a1.525,1.525,0,0,1-.788-.251.666.666,0,0,1-.244-.509,1.134,1.134,0,0,1,1.283-1.019c.425,0,.927.154.927.607a.347.347,0,0,1-.334.4.224.224,0,0,1-.231-.222.359.359,0,0,1,.293-.329A.8.8,0,0,0,533.136,441.934Z" transform="translate(-449.049 -305.968)"/>
    <path class="cls-1" d="M552.769,441.672a2.033,2.033,0,0,1-2.123,1.923,1.817,1.817,0,0,1-2.013-1.564.559.559,0,1,1,1.117-.02.547.547,0,0,1-.658.548,1.814,1.814,0,0,0,1.524.757c.439,0,1.126-.289,1.126-1.644,0-.977-.368-1.653-1.186-1.653h-.438c-.169,0-.239,0-.239-.111s.07-.109.149-.119.309-.02.389-.03a.966.966,0,0,0,.887-.518,2.487,2.487,0,0,0,.279-1.136c0-.9-.548-1.116-.957-1.116a1.615,1.615,0,0,0-1.325.617c.149,0,.617,0,.617.5a.508.508,0,1,1-1.016-.01c0-.757.758-1.355,1.764-1.355.957,0,1.834.558,1.834,1.375a1.8,1.8,0,0,0,.269,3.557Z" transform="translate(-449.049 -305.968)"/>
    <path class="cls-1" d="M556.183,442.619a.884.884,0,0,0-.039.209c0,.159.079.19.368.219.259.02.389.02.638.02s.339,0,.339.11c0,.2-.12.2-.219.2-.28,0-.579-.02-.868-.02-.269,0-.548-.01-.826-.01s-.568.01-.847.01-.548.02-.817.02c-.06,0-.17,0-.17-.119,0-.19.06-.19.419-.19,1.066,0,1.1-.11,1.185-.478l1.336-5.321a1.057,1.057,0,0,0,.039-.209c0-.08,0-.12-.279-.12h-.388c-1.475,0-1.734.179-2.272,1.724-.06.159-.07.209-.169.209a.113.113,0,0,1-.12-.109,1.31,1.31,0,0,1,.06-.18l.6-1.753c.069-.189.079-.2.319-.2H560c.169,0,.269,0,.269.11a1.1,1.1,0,0,1-.02.169l-.27,1.735c-.02.149-.039.228-.149.228a.117.117,0,0,1-.12-.129,1.441,1.441,0,0,1,.03-.189,7.383,7.383,0,0,0,.08-.8c0-.777-.448-.817-1.455-.817a5.4,5.4,0,0,0-.627.02c-.12.03-.16.09-.23.369Z" transform="translate(-449.049 -305.968)"/>
    <path class="cls-1" d="M561.479,441.934a1.075,1.075,0,0,0-.55.132.594.594,0,0,0-.279.447c0,.153.125.3.383.348.042.014.217.041.28.056.257.049.962.174.962.815,0,.273-.237,1.151-1.521,1.151-.676,0-1.122-.258-1.122-.676a.423.423,0,0,1,.4-.468.249.249,0,0,1,.272.259.415.415,0,0,1-.383.4,1.071,1.071,0,0,0,.837.292,1.491,1.491,0,0,0,.7-.154.707.707,0,0,0,.37-.557c0-.349-.447-.433-.593-.46a1.521,1.521,0,0,1-.788-.251.666.666,0,0,1-.244-.509,1.134,1.134,0,0,1,1.283-1.019c.425,0,.927.154.927.607a.348.348,0,0,1-.334.4.224.224,0,0,1-.231-.222.359.359,0,0,1,.293-.329A.8.8,0,0,0,561.479,441.934Z" transform="translate(-449.049 -305.968)"/>
    <line class="cls-11" x1="135.07" y1="134.645" x2="197.8" y2="134.645"/>
    <path class="cls-2" d="M753.148,451.243v7.087m70.866-7.087v7.087" transform="translate(-449.049 -305.968)"/>
    <polyline points="308.635 146.55 304.099 148.818 308.635 151.086 307.501 148.818"/>
    <line class="cls-2" x1="307.501" y1="148.818" x2="318.272" y2="148.818"/>
    <polyline points="370.429 151.086 374.965 148.818 370.429 146.55 371.563 148.818"/>
    <line class="cls-2" x1="371.563" y1="148.818" x2="360.792" y2="148.818"/>
    <path class="cls-1" d="M665.882,432.057a1.589,1.589,0,0,0-.06.477c0,.329.1.459.309.459.339,0,.867-.239,1.3-1.275.05-.11.06-.14.15-.14.039,0,.119,0,.119.1,0,.08-.568,1.534-1.584,1.534a.879.879,0,0,1-.917-.916,25.661,25.661,0,0,1,.757-3.179h-.876c-.2,0-.28,0-.28-.12,0-.189.1-.189.3-.189h.936l.389-1.584a.425.425,0,0,1,.4-.359.262.262,0,0,1,.289.269c0,.06-.049.26-.408,1.674h.877c.179,0,.278,0,.278.11,0,.2-.1.2-.3.2h-.937Z" transform="translate(-449.049 -305.968)"/>
  </g>
</svg>
