<svg id="Layer_1" data-name="Layer 1" xmlns="http://www.w3.org/2000/svg" viewBox="0 0 420 315"><defs><style>.cls-1{fill:#fff;}.cls-2,.cls-3,.cls-7,.cls-8,.cls-9{fill:none;}.cls-2{stroke:#dfdfdf;}.cls-2,.cls-3,.cls-7,.cls-9{stroke-linejoin:round;}.cls-2,.cls-3,.cls-7{stroke-width:0.5px;}.cls-3,.cls-7{stroke:#262626;}.cls-3{stroke-linecap:square;}.cls-4{font-size:10px;}.cls-4,.cls-5{fill:#4a4a49;font-family:Helvetica, Helvetica;}.cls-5,.cls-6{font-size:11px;}.cls-6{fill:#1d1d1b;font-family:Helvetica-Bold, Helvetica;font-weight:700;}.cls-8,.cls-9{stroke:blue;stroke-width:3px;}.cls-8{stroke-miterlimit:10;}.cls-10{fill:#262626;}</style></defs><title>window</title><rect class="cls-1" width="420" height="315"/><rect class="cls-1" width="420" height="315"/><rect class="cls-1" x="54.6" y="23.4" width="325.8" height="256.8"/><path class="cls-2" d="M685.564,507.2V250.4M853.4,507.2H527.6m325.8-25.68H527.6m325.8-25.68H527.6m325.8-25.68H527.6m325.8-25.68H527.6M853.4,378.8H527.6m325.8-25.68H527.6m325.8-25.68H527.6m325.8-25.68H527.6m325.8-25.68H527.6M853.4,250.4H527.6" transform="translate(-473 -227)"/><path class="cls-3" d="M527.6,507.2V250.4M853.4,507.2V250.4M527.6,507.2h3.258M527.6,481.52h3.258M527.6,455.84h3.258M527.6,430.16h3.258M527.6,404.48h3.258M527.6,378.8h3.258M527.6,353.12h3.258M527.6,327.44h3.258M527.6,301.76h3.258M527.6,276.08h3.258M527.6,250.4h3.258M853.4,507.2h-3.258m3.258-25.68h-3.258m3.258-25.68h-3.258m3.258-25.68h-3.258m3.258-25.68h-3.258M853.4,378.8h-3.258m3.258-25.68h-3.258m3.258-25.68h-3.258m3.258-25.68h-3.258m3.258-25.68h-3.258M853.4,250.4h-3.258" transform="translate(-473 -227)"/><text class="cls-4" transform="translate(41.602 284.094)">-1</text><text class="cls-4" transform="translate(33.195 258.422)">-0.8</text><text class="cls-4" transform="translate(33.195 232.742)">-0.6</text><text class="cls-4" transform="translate(33.195 207.055)">-0.4</text><text class="cls-4" transform="translate(33.195 181.383)">-0.2</text><text class="cls-4" transform="translate(44.594 155.703)">0</text><text class="cls-4" transform="translate(36.203 130.023)">0.</text><text class="cls-4" transform="translate(43.703 130.023)">2</text><text class="cls-4" transform="translate(36.203 104.344)">0.</text><text class="cls-4" transform="translate(43.703 104.344)">4</text><text class="cls-4" transform="translate(36.203 78.656)">0.</text><text class="cls-4" transform="translate(43.703 78.656)">6</text><text class="cls-4" transform="translate(36.203 52.984)">0.</text><text class="cls-4" transform="translate(43.703 52.984)">8</text><text class="cls-4" transform="translate(44.594 27.297)">1</text><text class="cls-5" transform="translate(27.203 176.391) rotate(-90)">Amplitude</text><text class="cls-6" transform="translate(185.102 18.75)">Block signa</text><text class="cls-6" transform="translate(247.118 18.75)">l</text><line class="cls-7" x1="54.6" y1="151.8" x2="380.4" y2="151.8"/><path class="cls-8" d="M530.6,378.8a3,3,0,1,0-3,3,3,3,0,0,0,3-3m4.936,0a3,3,0,1,0-3,3,3,3,0,0,0,3-3m4.937,0a3,3,0,1,0-3,3,3,3,0,0,0,3-3m4.936,0a3,3,0,1,0-3,3,3,3,0,0,0,3-3m4.936,0a3,3,0,1,0-3,3,3,3,0,0,0,3-3m4.937,0a3,3,0,1,0-3,3,3,3,0,0,0,3-3m4.936,0a3,3,0,1,0-3,3,3,3,0,0,0,3-3m4.937,0a3,3,0,1,0-3,3,3,3,0,0,0,3-3m4.936,0a3,3,0,1,0-3,3,3,3,0,0,0,3-3m4.936,0a3,3,0,1,0-3,3,3,3,0,0,0,3-3m4.937,0a3,3,0,1,0-3,3,3,3,0,0,0,3-3m4.936,0a3,3,0,1,0-3,3,3,3,0,0,0,3-3m4.936,0a3,3,0,1,0-3,3,3,3,0,0,0,3-3m4.937,0a3,3,0,1,0-3,3,3,3,0,0,0,3-3m4.936,0a3,3,0,1,0-3,3,3,3,0,0,0,3-3m4.936,0a3,3,0,1,0-3,3,3,3,0,0,0,3-3m4.937,0a3,3,0,1,0-3,3,3,3,0,0,0,3-3m4.936-128.4a3,3,0,1,0-3,3,3,3,0,0,0,3-3m4.937,0a3,3,0,1,0-3,3,3,3,0,0,0,3-3m4.936,0a3,3,0,1,0-3,3,3,3,0,0,0,3-3m4.936,0a3,3,0,1,0-3,3,3,3,0,0,0,3-3m4.937,0a3,3,0,1,0-3,3,3,3,0,0,0,3-3m4.936,0a3,3,0,1,0-3,3,3,3,0,0,0,3-3m4.936,0a3,3,0,1,0-3,3,3,3,0,0,0,3-3m4.937,0a3,3,0,1,0-3,3,3,3,0,0,0,3-3m4.936,0a3,3,0,1,0-3,3,3,3,0,0,0,3-3m4.936,0a3,3,0,1,0-3,3,3,3,0,0,0,3-3m4.937,0a3,3,0,1,0-3,3,3,3,0,0,0,3-3m4.936,0a3,3,0,1,0-3,3,3,3,0,0,0,3-3m4.937,0a3,3,0,1,0-3,3,3,3,0,0,0,3-3m4.936,0a3,3,0,1,0-3,3,3,3,0,0,0,3-3m4.936,0a3,3,0,1,0-3,3,3,3,0,0,0,3-3m4.937,0a3,3,0,1,0-3,3,3,3,0,0,0,3-3m4.936,0a3,3,0,1,0-3,3,3,3,0,0,0,3-3m4.936,0a3,3,0,1,0-3,3,3,3,0,0,0,3-3m4.937,0a3,3,0,1,0-3,3,3,3,0,0,0,3-3m4.936,0a3,3,0,1,0-3,3,3,3,0,0,0,3-3m4.936,0a3,3,0,1,0-3,3,3,3,0,0,0,3-3m4.937,0a3,3,0,1,0-3,3,3,3,0,0,0,3-3m4.936,0a3,3,0,1,0-3,3,3,3,0,0,0,3-3m4.937,0a3,3,0,1,0-3,3,3,3,0,0,0,3-3m4.936,0a3,3,0,1,0-3,3,3,3,0,0,0,3-3m4.936,0a3,3,0,1,0-3,3,3,3,0,0,0,3-3m4.937,0a3,3,0,1,0-3,3,3,3,0,0,0,3-3m4.936,0a3,3,0,1,0-3,3,3,3,0,0,0,3-3m4.936,0a3,3,0,1,0-3,3,3,3,0,0,0,3-3m4.937,0a3,3,0,1,0-3,3,3,3,0,0,0,3-3m4.936,0a3,3,0,1,0-3,3,3,3,0,0,0,3-3m4.936,0a3,3,0,1,0-3,3,3,3,0,0,0,3-3m4.937,0a3,3,0,1,0-3,3,3,3,0,0,0,3-3m4.936,128.4a3,3,0,1,0-3,3,3,3,0,0,0,3-3m4.937,0a3,3,0,1,0-3,3,3,3,0,0,0,3-3m4.936,0a3,3,0,1,0-3,3,3,3,0,0,0,3-3m4.936,0a3,3,0,1,0-3,3,3,3,0,0,0,3-3m4.937,0a3,3,0,1,0-3,3,3,3,0,0,0,3-3m4.936,0a3,3,0,1,0-3,3,3,3,0,0,0,3-3m4.936,0a3,3,0,1,0-3,3,3,3,0,0,0,3-3m4.937,0a3,3,0,1,0-3,3,3,3,0,0,0,3-3m4.936,0a3,3,0,1,0-3,3,3,3,0,0,0,3-3m4.936,0a3,3,0,1,0-3,3,3,3,0,0,0,3-3m4.937,0a3,3,0,1,0-3,3,3,3,0,0,0,3-3m4.936,0a3,3,0,1,0-3,3,3,3,0,0,0,3-3m4.937,0a3,3,0,1,0-3,3,3,3,0,0,0,3-3m4.936,0a3,3,0,1,0-3,3,3,3,0,0,0,3-3m4.936,0a3,3,0,1,0-3,3,3,3,0,0,0,3-3m4.937,0a3,3,0,1,0-3,3,3,3,0,0,0,3-3m4.936,0a3,3,0,1,0-3,3,3,3,0,0,0,3-3" transform="translate(-473 -227)"/><path class="cls-9" d="M527.6,378.8h0m4.936,0h0m4.937,0h0m4.936,0h0m4.936,0h0m4.937,0h0m4.936,0h0m4.937,0h0m4.936,0h0m4.936,0h0m4.937,0h0m4.936,0h0m4.936,0h0m4.937,0h0m4.936,0h0m4.936,0h0m4.937,0h0m4.936,0V250.4m4.937,128.4V250.4m4.936,128.4V250.4m4.936,128.4V250.4m4.937,128.4V250.4M636.2,378.8V250.4m4.936,128.4V250.4m4.937,128.4V250.4m4.936,128.4V250.4m4.936,128.4V250.4m4.937,128.4V250.4m4.936,128.4V250.4m4.937,128.4V250.4m4.936,128.4V250.4m4.936,128.4V250.4m4.937,128.4V250.4M690.5,378.8V250.4m4.936,128.4V250.4m4.937,128.4V250.4m4.936,128.4V250.4m4.936,128.4V250.4m4.937,128.4V250.4m4.936,128.4V250.4m4.937,128.4V250.4m4.936,128.4V250.4m4.936,128.4V250.4m4.937,128.4V250.4M744.8,378.8V250.4m4.936,128.4V250.4m4.937,128.4V250.4m4.936,128.4V250.4m4.936,128.4V250.4m4.937,128.4V250.4m4.936,128.4h0m4.937,0h0m4.936,0h0m4.936,0h0m4.937,0h0m4.936,0h0m4.936,0h0m4.937,0h0m4.936,0h0m4.936,0h0m4.937,0h0m4.936,0h0m4.937,0h0m4.936,0h0m4.936,0h0m4.937,0h0m4.936,0h0" transform="translate(-473 -227)"/><path class="cls-3" d="M527.6,507.2H853.4M527.6,250.4H853.4M685.564,507.2v-3.258m0-253.542v3.258" transform="translate(-473 -227)"/><text class="cls-4" transform="translate(209.563 294.398)">0</text><path class="cls-10" d="M680.815,533.515a.183.183,0,0,1-.15-.07.219.219,0,0,1,0-.29.183.183,0,0,1,.15-.07h8.195a4.007,4.007,0,0,1-.732-.685,3.962,3.962,0,0,1-.53-.83,3.643,3.643,0,0,1-.3-.951c0-.094.038-.141.112-.141h.216a.085.085,0,0,1,.066.033.179.179,0,0,1,.038.07,3.634,3.634,0,0,0,.285.858,3.675,3.675,0,0,0,.478.741,3.227,3.227,0,0,0,.647.59,3.443,3.443,0,0,0,.811.408.14.14,0,0,1,.075.122.094.094,0,0,1-.075.1,3.318,3.318,0,0,0-1.031.586,3.391,3.391,0,0,0-.773.914,3.475,3.475,0,0,0-.417,1.116.159.159,0,0,1-.043.07.091.091,0,0,1-.061.033h-.216c-.074,0-.112-.047-.112-.141a3.835,3.835,0,0,1,.544-1.392,3.745,3.745,0,0,1,1.013-1.074Z" transform="translate(-473 -227)"/><text class="cls-5" transform="translate(218.398 309)"><tspan xml:space="preserve"> n</tspan></text></svg>