<svg id="Layer_1" data-name="Layer 1" xmlns="http://www.w3.org/2000/svg" viewBox="0 0 183.53 68.47"><defs><style>.cls-1,.cls-3,.cls-5,.cls-6{fill:none;stroke-miterlimit:10;}.cls-1,.cls-3{stroke:#000;}.cls-2{font-size:10px;}.cls-2,.cls-4{font-family:TimesNewRomanPSMT, Times New Roman;}.cls-3{stroke-width:0.5px;}.cls-4{font-size:8px;}.cls-5,.cls-6{stroke:red;stroke-linecap:square;}.cls-5{stroke-dasharray:2;}</style></defs><title>block_ideal</title><line class="cls-1" x1="0.5" y1="53.81" x2="159.99" y2="53.81"/><polygon points="159.4 55.8 162.86 53.81 159.4 51.82 159.4 55.8"/><line class="cls-1" x1="57.03" y1="9.68" x2="57.03" y2="53.81"/><polygon points="55.03 10.26 57.03 6.81 59.02 10.26 55.03 10.26"/><text class="cls-2" transform="translate(62.7 8.31)">x(t)</text><line class="cls-3" x1="156.4" y1="49.83" x2="156.4" y2="56.21"/><line class="cls-3" x1="143.98" y1="49.83" x2="143.98" y2="56.21"/><line class="cls-3" x1="131.56" y1="49.83" x2="131.56" y2="56.21"/><line class="cls-3" x1="119.14" y1="49.83" x2="119.14" y2="56.21"/><line class="cls-3" x1="106.71" y1="49.83" x2="106.71" y2="56.21"/><line class="cls-3" x1="94.29" y1="49.83" x2="94.29" y2="56.21"/><line class="cls-3" x1="81.87" y1="49.83" x2="81.87" y2="56.21"/><line class="cls-3" x1="69.45" y1="49.83" x2="69.45" y2="56.21"/><line class="cls-3" x1="57.03" y1="49.83" x2="57.03" y2="56.21"/><line class="cls-3" x1="44.61" y1="49.83" x2="44.61" y2="56.21"/><line class="cls-3" x1="32.19" y1="49.83" x2="32.19" y2="56.21"/><line class="cls-3" x1="19.77" y1="49.83" x2="19.77" y2="56.21"/><line class="cls-3" x1="7.34" y1="49.83" x2="7.34" y2="56.21"/><line class="cls-3" x1="156.4" y1="49.83" x2="156.4" y2="56.21"/><line class="cls-3" x1="143.98" y1="49.83" x2="143.98" y2="56.21"/><line class="cls-3" x1="131.56" y1="49.83" x2="131.56" y2="56.21"/><line class="cls-3" x1="119.14" y1="49.83" x2="119.14" y2="56.21"/><line class="cls-3" x1="106.71" y1="49.83" x2="106.71" y2="56.21"/><line class="cls-3" x1="94.29" y1="49.83" x2="94.29" y2="56.21"/><line class="cls-3" x1="81.87" y1="49.83" x2="81.87" y2="56.21"/><line class="cls-3" x1="69.45" y1="49.83" x2="69.45" y2="56.21"/><line class="cls-3" x1="57.03" y1="49.83" x2="57.03" y2="56.21"/><line class="cls-3" x1="44.61" y1="49.83" x2="44.61" y2="56.21"/><line class="cls-3" x1="32.19" y1="49.83" x2="32.19" y2="56.21"/><line class="cls-3" x1="19.77" y1="49.83" x2="19.77" y2="56.21"/><line class="cls-3" x1="7.34" y1="49.83" x2="7.34" y2="56.21"/><line class="cls-3" x1="156.4" y1="49.83" x2="156.4" y2="56.21"/><line class="cls-3" x1="143.98" y1="49.83" x2="143.98" y2="56.21"/><line class="cls-3" x1="131.56" y1="49.83" x2="131.56" y2="56.21"/><line class="cls-3" x1="119.14" y1="49.83" x2="119.14" y2="56.21"/><line class="cls-3" x1="106.71" y1="49.83" x2="106.71" y2="56.21"/><line class="cls-3" x1="94.29" y1="49.83" x2="94.29" y2="56.21"/><line class="cls-3" x1="81.87" y1="49.83" x2="81.87" y2="56.21"/><line class="cls-3" x1="69.45" y1="49.83" x2="69.45" y2="56.21"/><line class="cls-3" x1="57.03" y1="49.83" x2="57.03" y2="56.21"/><line class="cls-3" x1="44.61" y1="49.83" x2="44.61" y2="56.21"/><line class="cls-3" x1="32.19" y1="49.83" x2="32.19" y2="56.21"/><line class="cls-3" x1="19.77" y1="49.83" x2="19.77" y2="56.21"/><line class="cls-3" x1="7.34" y1="49.83" x2="7.34" y2="56.21"/><line class="cls-3" x1="156.4" y1="49.83" x2="156.4" y2="56.21"/><line class="cls-3" x1="143.98" y1="49.83" x2="143.98" y2="56.21"/><line class="cls-3" x1="131.56" y1="49.83" x2="131.56" y2="56.21"/><line class="cls-3" x1="119.14" y1="49.83" x2="119.14" y2="56.21"/><line class="cls-3" x1="106.71" y1="49.83" x2="106.71" y2="56.21"/><line class="cls-3" x1="94.29" y1="49.83" x2="94.29" y2="56.21"/><line class="cls-3" x1="81.87" y1="49.83" x2="81.87" y2="56.21"/><line class="cls-3" x1="69.45" y1="49.83" x2="69.45" y2="56.21"/><line class="cls-3" x1="57.03" y1="49.83" x2="57.03" y2="56.21"/><line class="cls-3" x1="44.61" y1="49.83" x2="44.61" y2="56.21"/><line class="cls-3" x1="32.19" y1="49.83" x2="32.19" y2="56.21"/><line class="cls-3" x1="19.77" y1="49.83" x2="19.77" y2="56.21"/><line class="cls-3" x1="7.34" y1="49.83" x2="7.34" y2="56.21"/><line class="cls-3" x1="143.98" y1="49.83" x2="143.98" y2="56.21"/><line class="cls-3" x1="131.56" y1="49.83" x2="131.56" y2="56.21"/><line class="cls-3" x1="119.14" y1="49.83" x2="119.14" y2="56.21"/><line class="cls-3" x1="106.71" y1="49.83" x2="106.71" y2="56.21"/><line class="cls-3" x1="94.29" y1="49.83" x2="94.29" y2="56.21"/><line class="cls-3" x1="81.87" y1="49.83" x2="81.87" y2="56.21"/><line class="cls-3" x1="69.45" y1="49.83" x2="69.45" y2="56.21"/><line class="cls-3" x1="57.03" y1="49.83" x2="57.03" y2="56.21"/><line class="cls-3" x1="44.61" y1="49.83" x2="44.61" y2="56.21"/><line class="cls-3" x1="32.19" y1="49.83" x2="32.19" y2="56.21"/><line class="cls-3" x1="19.77" y1="49.83" x2="19.77" y2="56.21"/><line class="cls-3" x1="7.34" y1="49.83" x2="7.34" y2="56.21"/><line class="cls-3" x1="131.56" y1="49.83" x2="131.56" y2="56.21"/><line class="cls-3" x1="119.14" y1="49.83" x2="119.14" y2="56.21"/><line class="cls-3" x1="106.71" y1="49.83" x2="106.71" y2="56.21"/><line class="cls-3" x1="94.29" y1="49.83" x2="94.29" y2="56.21"/><line class="cls-3" x1="81.87" y1="49.83" x2="81.87" y2="56.21"/><line class="cls-3" x1="69.45" y1="49.83" x2="69.45" y2="56.21"/><line class="cls-3" x1="57.03" y1="49.83" x2="57.03" y2="56.21"/><line class="cls-3" x1="44.61" y1="49.83" x2="44.61" y2="56.21"/><line class="cls-3" x1="32.19" y1="49.83" x2="32.19" y2="56.21"/><line class="cls-3" x1="19.77" y1="49.83" x2="19.77" y2="56.21"/><line class="cls-3" x1="7.34" y1="49.83" x2="7.34" y2="56.21"/><line class="cls-3" x1="119.14" y1="49.83" x2="119.14" y2="56.21"/><line class="cls-3" x1="106.71" y1="49.83" x2="106.71" y2="56.21"/><line class="cls-3" x1="94.29" y1="49.83" x2="94.29" y2="56.21"/><line class="cls-3" x1="81.87" y1="49.83" x2="81.87" y2="56.21"/><line class="cls-3" x1="69.45" y1="49.83" x2="69.45" y2="56.21"/><line class="cls-3" x1="57.03" y1="49.83" x2="57.03" y2="56.21"/><line class="cls-3" x1="44.61" y1="49.83" x2="44.61" y2="56.21"/><line class="cls-3" x1="32.19" y1="49.83" x2="32.19" y2="56.21"/><line class="cls-3" x1="19.77" y1="49.83" x2="19.77" y2="56.21"/><line class="cls-3" x1="7.34" y1="49.83" x2="7.34" y2="56.21"/><text class="cls-4" transform="translate(55.02 66.02)">0</text><text class="cls-4" transform="translate(80.07 66.02)">2</text><text class="cls-4" transform="translate(104.6 66.02)">4</text><text class="cls-4" transform="translate(129.49 66.02)">6</text><text class="cls-4" transform="translate(154.41 66.02)">8</text><text class="cls-4" transform="translate(29.09 66.02)">-2</text><text class="cls-4" transform="translate(3.93 66.02)">-4</text><text class="cls-2" transform="translate(167.7 55.31)">t [s]</text><text class="cls-4" transform="translate(47.07 26.02)">2</text><line class="cls-5" x1="156.4" y1="23.18" x2="162.16" y2="23.18"/><polyline class="cls-6" points="32.19 53.81 57.03 53.81 57.03 23.18 81.87 23.18 81.87 53.81 106.71 53.81 106.71 23.18 131.56 23.18 131.56 53.81 156.4 53.81 156.4 23.18"/><line class="cls-6" x1="32.19" y1="53.81" x2="32.19" y2="23.18"/><line class="cls-6" x1="32.19" y1="23.18" x2="7.34" y2="23.18"/><line class="cls-6" x1="7.34" y1="23.18" x2="7.34" y2="53.81"/><line class="cls-5" x1="7.34" y1="53.81" x2="0.5" y2="53.81"/></svg>