<svg id="Layer_1" data-name="Layer 1" xmlns="http://www.w3.org/2000/svg" viewBox="0 0 283.29 113.75"><defs><style>.cls-1,.cls-3{fill:none;stroke:#000;stroke-miterlimit:10;}.cls-2{font-size:12px;font-family:TimesNewRomanPSMT, Times New Roman;}.cls-3{stroke-width:2px;}</style></defs><title>example1_spectrum</title><line class="cls-1" y1="97.47" x2="247.98" y2="97.47"/><polygon points="246.96 100.96 253 97.47 246.96 93.98 246.96 100.96"/><line class="cls-1" x1="127" y1="20.65" x2="127" y2="97.47"/><polygon points="122.01 22.11 127 13.47 131.99 22.11 122.01 22.11"/><text class="cls-2" transform="translate(104.67 9.97)">spectrum</text><text class="cls-2" transform="translate(124.19 109.07)">0</text><text class="cls-2" transform="translate(155.33 109.07)">100</text><text class="cls-2" transform="translate(77.06 109.07)">-100</text><line class="cls-3" x1="163.79" y1="97.47" x2="163.79" y2="55.47"/><line class="cls-3" x1="89.5" y1="97.97" x2="89.5" y2="55.97"/><line class="cls-3" x1="216.5" y1="73.97" x2="216.5" y2="97.97"/><line class="cls-3" x1="36.5" y1="97.97" x2="36.5" y2="73.97"/><text class="cls-2" transform="translate(207.33 109.07)">250</text><text class="cls-2" transform="translate(25.33 110.07)">-250</text><line class="cls-3" x1="127" y1="97.97" x2="127" y2="37.97"/><line class="cls-1" x1="122.5" y1="37.97" x2="131.5" y2="37.97"/><line class="cls-1" x1="159.29" y1="55.47" x2="168.29" y2="55.47"/><line class="cls-1" x1="212" y1="73.97" x2="221" y2="73.97"/><line class="cls-1" x1="85" y1="55.97" x2="94" y2="55.97"/><line class="cls-1" x1="32" y1="73.97" x2="41" y2="73.97"/><path d="M323.54,169.13h0a2,2,0,0,1-.42-.07l-.32-.13a1.79,1.79,0,0,1-.34-.22,2,2,0,0,1-.45-.56,3.46,3.46,0,0,1-.24-.57,3.14,3.14,0,0,1-.12-.51c0-.12,0-.24-.05-.36l0-.24c0-.1,0-.19,0-.29,0-.28,0-.57,0-.85a3,3,0,0,1,0-.31c0-.13,0-.27,0-.4a3.14,3.14,0,0,1,.12-.61,3.57,3.57,0,0,1,.16-.46,2,2,0,0,1,.24-.45,1.55,1.55,0,0,1,.31-.36,1.58,1.58,0,0,1,.76-.39,1.47,1.47,0,0,1,.29,0,1.4,1.4,0,0,1,.29,0,1.63,1.63,0,0,1,.58.13,1.76,1.76,0,0,1,.44.26,1.59,1.59,0,0,1,.29.29,2.27,2.27,0,0,1,.27.44c.06.12.1.24.15.36a5.36,5.36,0,0,1,.14.54c0,.12,0,.23.05.35l0,.31a2.62,2.62,0,0,1,0,.28c0,.3,0,.6,0,.9,0,.09,0,.19,0,.28s0,.26,0,.38a5,5,0,0,1-.13.67,3.58,3.58,0,0,1-.26.64,2.54,2.54,0,0,1-.23.34l-.18.19a1.44,1.44,0,0,1-.32.23,1.6,1.6,0,0,1-.47.19l-.25,0h-.29Zm.07-6.62-.2,0a1,1,0,0,0-.64.39,1.73,1.73,0,0,0-.29.63,3.38,3.38,0,0,0-.09.54c0,.1,0,.2,0,.29s0,.24,0,.35,0,.31,0,.46c0,.31,0,.62,0,.92,0,.13,0,.25,0,.38v.23c0,.09,0,.18,0,.28s0,.23,0,.35,0,.23.05.35a1.85,1.85,0,0,0,.2.6,1.21,1.21,0,0,0,.33.38,1,1,0,0,0,.75.21,1.15,1.15,0,0,0,.33-.1,1.19,1.19,0,0,0,.31-.23,1.21,1.21,0,0,0,.2-.3,1.78,1.78,0,0,0,.18-.55c0-.17.05-.33.07-.5s0-.24,0-.36,0-.22,0-.34,0-.25,0-.38c0-.35,0-.71,0-1.07,0-.19,0-.38,0-.57s0-.22,0-.33,0-.26-.05-.39a1.94,1.94,0,0,0-.07-.33,1.33,1.33,0,0,0-.28-.54,1.15,1.15,0,0,0-.84-.4Z" transform="translate(-185.5 -133.03)"/><path d="M317,168.91v-.31h.67a2,2,0,0,0,.34-.05.25.25,0,0,0,.22-.21.25.25,0,0,0,0-.08V163a2.9,2.9,0,0,1-1.3.25v-.31h.07l.34,0a2.42,2.42,0,0,0,.75-.18,1.72,1.72,0,0,0,.49-.29l.14-.13,0,0h.14a.09.09,0,0,1,.08.1c0,.12,0,.24,0,.36v5.48a.27.27,0,0,0,.07.21l.11.08.25.05h.81v.31H317Z" transform="translate(-185.5 -133.03)"/><path d="M269.74,186l-.1,0a.38.38,0,0,1-.24-.19.5.5,0,0,1-.07-.27v-.34l0-.33c0-.15.05-.3.07-.44a6,6,0,0,1,.18-.73c.07-.21.14-.43.23-.63s.2-.45.31-.66a5.64,5.64,0,0,1,.31-.53c.17-.26.35-.51.52-.76l.41-.57.26-.36s0,0,0,0h-2.61l-.37,0a.11.11,0,0,0-.09.07c0,.1-.07.2-.1.31s-.06.33-.09.49a.09.09,0,0,0,0,.05h-.26l.09-.56c0-.15,0-.29.07-.44l.06-.37c0-.11,0-.23,0-.34a2.5,2.5,0,0,0,.05-.29v0s0,0,0,0h.2s0,0,0,0a.23.23,0,0,0,.18.19,2.61,2.61,0,0,0,.27.06l.45,0h2.79a.51.51,0,0,1-.08.36c-.11.14-.21.29-.31.43l-.47.65-.3.42c-.11.16-.23.32-.34.49a2.38,2.38,0,0,0-.23.45l-.15.4a5.45,5.45,0,0,0-.14.58l-.06.38,0,.34c0,.1,0,.2,0,.3a3,3,0,0,0,0,.31c0,.32,0,.65,0,1a.62.62,0,0,1-.07.33.37.37,0,0,1-.27.2l-.07,0Z" transform="translate(-185.5 -133.03)"/><path d="M274.69,185.68a3.11,3.11,0,0,0,.61-.1,2.85,2.85,0,0,0,.51-.2,2.44,2.44,0,0,0,.43-.28,3.58,3.58,0,0,0,.29-.27,1,1,0,0,0,.16-.19.11.11,0,0,1,.2,0c0,.06,0,.11,0,.16l-.13.17a3.3,3.3,0,0,1-.65.52,3.34,3.34,0,0,1-.81.32l-.32,0h-.24a1.61,1.61,0,0,1-.22,0,1.46,1.46,0,0,1-.45-.1,1.65,1.65,0,0,1-.36-.22,1.45,1.45,0,0,1-.34-.4,2,2,0,0,1-.22-.57,2.7,2.7,0,0,1,0-.28c0-.08,0-.16,0-.25s0-.23,0-.35a2.31,2.31,0,0,1,.12-.52,2.44,2.44,0,0,1,.35-.68,3,3,0,0,1,.38-.42,2.61,2.61,0,0,1,.46-.34,2.48,2.48,0,0,1,.65-.27,2,2,0,0,1,.35-.08,1.7,1.7,0,0,1,.39,0,1.08,1.08,0,0,1,.53.14,1,1,0,0,1,.32.31.71.71,0,0,1,.1.45,1,1,0,0,1-.08.34,1,1,0,0,1-.25.36,1.3,1.3,0,0,1-.43.27,2.9,2.9,0,0,1-.48.14,2.06,2.06,0,0,1-.26,0l-.41,0H274a0,0,0,0,0,0,0c0,.18-.08.36-.11.54s0,.2,0,.3a1.92,1.92,0,0,0,0,.24,1.51,1.51,0,0,0,.11.56,1,1,0,0,0,.23.34.71.71,0,0,0,.33.15A1.66,1.66,0,0,0,274.69,185.68Zm-.68-2.42c.19,0,.36,0,.54,0h.24l.27,0,.39-.07a1.61,1.61,0,0,0,.63-.27.73.73,0,0,0,.26-.29.79.79,0,0,0,.07-.48.57.57,0,0,0-.2-.34.74.74,0,0,0-.45-.17,1,1,0,0,0-.25,0,1.79,1.79,0,0,0-.41.13,1.76,1.76,0,0,0-.4.27,2.14,2.14,0,0,0-.28.32,2.77,2.77,0,0,0-.26.48Z" transform="translate(-185.5 -133.03)"/><path d="M277.75,182.77l.14,0a.65.65,0,0,0,.31,0,.79.79,0,0,0,.29-.18,1.24,1.24,0,0,0,.29-.39,1.63,1.63,0,0,0,.13-.39c.07-.3.15-.6.22-.9s.17-.63.25-1,.12-.47.17-.7a.77.77,0,0,0,0-.37.2.2,0,0,0-.21-.17.76.76,0,0,0-.43.16,1.07,1.07,0,0,0-.16.14,1.78,1.78,0,0,0-.28.38l-.1.21a.12.12,0,0,1-.15.07c-.08,0-.1-.07-.08-.14a2.13,2.13,0,0,1,.23-.42,2,2,0,0,1,.24-.27,1.19,1.19,0,0,1,.52-.3.86.86,0,0,1,.39,0,.82.82,0,0,1,.36.15.68.68,0,0,1,.22.36,1.07,1.07,0,0,1,0,.44c0,.17-.09.33-.13.5l-.21.81-.15.62c-.06.22-.11.44-.18.66a1.1,1.1,0,0,1-.21.36,1.12,1.12,0,0,1-.34.31,1.65,1.65,0,0,1-1,.26.81.81,0,0,1-.39-.12.33.33,0,0,1-.18-.26.42.42,0,0,1,.08-.32.43.43,0,0,1,.26-.15.27.27,0,0,1,.32.19.33.33,0,0,1-.07.3Z" transform="translate(-185.5 -133.03)"/><path d="M283.33,183.64a.71.71,0,0,0,.18.12,1.61,1.61,0,0,0,.36.1,1.46,1.46,0,0,0,.29,0,.93.93,0,0,0,.33,0,.66.66,0,0,0,.31-.21.62.62,0,0,0,.15-.34.92.92,0,0,0,0-.33.84.84,0,0,0-.07-.24.64.64,0,0,0-.47-.36l-.2,0h-.41a.08.08,0,0,1-.07-.09c0-.05,0-.08.09-.08H284a1.2,1.2,0,0,0,.42-.07.67.67,0,0,0,.25-.19.66.66,0,0,0,.14-.26.54.54,0,0,0-.05-.55.49.49,0,0,0-.26-.19.77.77,0,0,0-.3,0,1.3,1.3,0,0,0-.58.14l-.13.09.15.08a.27.27,0,0,1,.08.19.31.31,0,0,1-.08.23.3.3,0,0,1-.38,0,.26.26,0,0,1-.11-.23.58.58,0,0,1,.18-.43,1,1,0,0,1,.39-.21,1.13,1.13,0,0,1,.32-.06l.26,0,.35.05a1,1,0,0,1,.34.12.72.72,0,0,1,.36.35.48.48,0,0,1,0,.29.67.67,0,0,1-.13.34.75.75,0,0,1-.29.27,1,1,0,0,1-.3.14h0l.27.1a1.12,1.12,0,0,1,.33.2.84.84,0,0,1,.25.31.7.7,0,0,1,.05.25.71.71,0,0,1-.08.38.89.89,0,0,1-.23.28,1.51,1.51,0,0,1-.26.18,1.48,1.48,0,0,1-.35.13,1.84,1.84,0,0,1-.33,0,2,2,0,0,1-.42,0,1.47,1.47,0,0,1-.54-.16.74.74,0,0,1-.32-.31.55.55,0,0,1,0-.38.25.25,0,0,1,.24-.19.32.32,0,0,1,.23.05.29.29,0,0,1,.12.23.34.34,0,0,1-.09.25A.4.4,0,0,1,283.33,183.64Z" transform="translate(-185.5 -133.03)"/><path d="M283.8,177.19h-.38a1,1,0,0,0-.24,0,.77.77,0,0,0-.33.18l-.13.13a.17.17,0,0,1-.17,0s0-.06,0-.1a1.77,1.77,0,0,1,.12-.17l.13-.14a1,1,0,0,1,.54-.31.41.41,0,0,1,.16,0h2.28a.14.14,0,0,1,.1.15.21.21,0,0,1-.1.19.23.23,0,0,1-.11,0h-.74s0,0-.05,0,0,.21,0,.31v.31a1.49,1.49,0,0,0,0,.21,1.9,1.9,0,0,0,.11.39l.12.21a.21.21,0,0,1-.08.29.31.31,0,0,1-.13.06.17.17,0,0,1-.18-.09.89.89,0,0,1-.15-.38,1.29,1.29,0,0,1,0-.39c0-.11,0-.22,0-.34s.07-.39.11-.59c0,0,0,0,0,0h-.61s0,0,0,0c-.06.22-.11.45-.17.67l-.15.51c0,.12-.07.24-.11.36a1,1,0,0,1-.1.17.22.22,0,0,1-.32,0,.17.17,0,0,1,0-.2c.07-.15.15-.29.23-.44a6.76,6.76,0,0,0,.29-.69c0-.13.09-.26.13-.39Z" transform="translate(-185.5 -133.03)"/><path d="M286.4,179.67V180h-4.32v-.37Z" transform="translate(-185.5 -133.03)"/><path d="M279.69,177.34a.37.37,0,0,1,.15-.28.32.32,0,0,1,.25-.09.26.26,0,0,1,.27.2.32.32,0,0,1-.07.28.4.4,0,0,1-.27.16A.27.27,0,0,1,279.69,177.34Z" transform="translate(-185.5 -133.03)"/><path d="M339.76,186l-.07,0a.39.39,0,0,1-.32-.35,1.41,1.41,0,0,1,0-.29c0-.13,0-.27,0-.4a6.33,6.33,0,0,1,.12-.76,7,7,0,0,1,.46-1.36,8.27,8.27,0,0,1,.74-1.29l1-1.34,0,0h-2.34c-.2,0-.41,0-.61,0a.16.16,0,0,0-.13.09,1.85,1.85,0,0,0-.12.4c0,.14-.05.29-.08.43h-.25l.32-2a.73.73,0,0,1,.26,0v0a.26.26,0,0,0,.16.18,1.76,1.76,0,0,0,.4.07c.3,0,.61,0,.91,0h2.21a.48.48,0,0,1-.07.35l-1.3,1.8a3.85,3.85,0,0,0-.55,1.22,6,6,0,0,0-.18,1c0,.22,0,.45,0,.68s0,.63,0,1a1.49,1.49,0,0,1,0,.21.41.41,0,0,1-.34.37h-.16Z" transform="translate(-185.5 -133.03)"/><path d="M344,183.5c0,.2-.08.39-.11.58a2.19,2.19,0,0,0,0,.51,1.49,1.49,0,0,0,.2.74.72.72,0,0,0,.64.35,2.58,2.58,0,0,0,1.67-.62,3.15,3.15,0,0,0,.36-.37l0,0a.11.11,0,0,1,.16,0,.12.12,0,0,1,0,.17l-.16.21a2.74,2.74,0,0,1-.77.58,2.59,2.59,0,0,1-.89.29,1.93,1.93,0,0,1-.83,0,1.34,1.34,0,0,1-.79-.52,1.75,1.75,0,0,1-.34-.83,2.88,2.88,0,0,1,0-.59,2.54,2.54,0,0,1,.62-1.53,2.7,2.7,0,0,1,.81-.66,2.78,2.78,0,0,1,.88-.3,1.67,1.67,0,0,1,.77.05.92.92,0,0,1,.49.38.72.72,0,0,1,.1.5,1.09,1.09,0,0,1-.34.67,1.35,1.35,0,0,1-.56.31,3.37,3.37,0,0,1-.77.14,9,9,0,0,1-1,0Zm.07-.22h0c.28,0,.56,0,.84,0a4.58,4.58,0,0,0,.63-.1,1.68,1.68,0,0,0,.56-.26.77.77,0,0,0,.32-.73.57.57,0,0,0-.36-.47,1,1,0,0,0-.6,0,1.67,1.67,0,0,0-.94.59,2.56,2.56,0,0,0-.46.9A1,1,0,0,1,344,183.28Z" transform="translate(-185.5 -133.03)"/><path d="M354,182.77a.69.69,0,0,0,.47,0,1.08,1.08,0,0,0,.47-.4,1.86,1.86,0,0,0,.22-.55l.48-1.91.15-.61a.93.93,0,0,0,0-.37.22.22,0,0,0-.23-.2.78.78,0,0,0-.43.16,1.76,1.76,0,0,0-.49.63.54.54,0,0,0-.05.11c0,.08-.16.07-.2,0a.08.08,0,0,1,0-.11c0-.08.07-.17.12-.25a1.82,1.82,0,0,1,.5-.57,1,1,0,0,1,.88-.16.68.68,0,0,1,.43.4.67.67,0,0,1,0,.42l-.3,1.18-.33,1.33a1.45,1.45,0,0,1-.9,1,1.62,1.62,0,0,1-.65.11.91.91,0,0,1-.45-.14.39.39,0,0,1-.08-.55.35.35,0,0,1,.3-.16.26.26,0,0,1,.28.36.36.36,0,0,1-.15.21Z" transform="translate(-185.5 -133.03)"/><path d="M360.93,182.24l.38.16a.92.92,0,0,1,.41.37.69.69,0,0,1,0,.73,1.06,1.06,0,0,1-.56.48,1.52,1.52,0,0,1-.59.12,2.44,2.44,0,0,1-.76-.09,1.33,1.33,0,0,1-.35-.19.59.59,0,0,1-.22-.52.29.29,0,0,1,.31-.27.29.29,0,0,1,.28.19.31.31,0,0,1-.18.41l0,0a.28.28,0,0,0,.17.11,1.2,1.2,0,0,0,.42.12h.35a.65.65,0,0,0,.59-.35.63.63,0,0,0,.08-.23,1,1,0,0,0,0-.49.63.63,0,0,0-.55-.45,2.17,2.17,0,0,0-.36,0h-.18c-.06,0-.09,0-.09-.08a.07.07,0,0,1,.08-.09l.27,0a.74.74,0,0,0,.76-.75.51.51,0,0,0-.39-.5,1.28,1.28,0,0,0-.9.14l-.08.06.08,0a.26.26,0,0,1,.14.17.29.29,0,1,1-.56.12.57.57,0,0,1,.21-.48,1.15,1.15,0,0,1,.5-.23,1.88,1.88,0,0,1,1,.06,1.11,1.11,0,0,1,.38.22.55.55,0,0,1,.15.6.84.84,0,0,1-.46.53Z" transform="translate(-185.5 -133.03)"/><path d="M360.07,177.19h-.35l-.28,0a.78.78,0,0,0-.41.27.15.15,0,0,1-.16.06.07.07,0,0,1-.06-.1l0-.05a2.45,2.45,0,0,1,.42-.43.93.93,0,0,1,.53-.17h2.26a.14.14,0,0,1,.1.18.21.21,0,0,1-.23.19h-.76l0,.24a2.1,2.1,0,0,0,0,.43,1.77,1.77,0,0,0,.22.75.39.39,0,0,1,.06.15.26.26,0,0,1-.28.25.17.17,0,0,1-.1-.06.83.83,0,0,1-.11-.15,1.53,1.53,0,0,1-.11-.47,3.82,3.82,0,0,1,.11-1c0-.06,0-.11,0-.18h-.64c0,.09-.05.18-.07.26-.1.42-.21.83-.34,1.23a.68.68,0,0,1-.12.24.23.23,0,0,1-.22.09.18.18,0,0,1-.14-.26,1.71,1.71,0,0,1,.13-.23,7.71,7.71,0,0,0,.53-1.3Z" transform="translate(-185.5 -133.03)"/><path d="M350.43,180h-2.11l-.14,0a.13.13,0,0,1-.1-.13c0-.12,0-.17.15-.19h4.32l.13,0a.16.16,0,0,1,0,.31l-.13,0Z" transform="translate(-185.5 -133.03)"/><path d="M358.35,180v-.36h4.32V180Z" transform="translate(-185.5 -133.03)"/><path d="M356.64,177.24a.38.38,0,0,1-.11.25.4.4,0,0,1-.32.14.28.28,0,0,1-.24-.36.42.42,0,0,1,.36-.29A.27.27,0,0,1,356.64,177.24Z" transform="translate(-185.5 -133.03)"/><path d="M217.91,205l-.21,0a1.46,1.46,0,0,1-1.09-.79,2,2,0,0,1-.21-.76,2.58,2.58,0,0,1,.25-1.42,2.47,2.47,0,0,1,.48-.68,2.85,2.85,0,0,1,.74-.55,2.44,2.44,0,0,1,1.22-.29,1.1,1.1,0,0,1,.69.25.72.72,0,0,1,.28.7,1.12,1.12,0,0,1-.63.87,1.91,1.91,0,0,1-.57.19,6.4,6.4,0,0,1-.88.09h-.71a.14.14,0,0,0,0,.07,5.21,5.21,0,0,0-.13.79,1.6,1.6,0,0,0,.11.81.77.77,0,0,0,.33.4.83.83,0,0,0,.35.1,2,2,0,0,0,.48,0,2.61,2.61,0,0,0,1.22-.58,2.32,2.32,0,0,0,.35-.35l0-.06c.05-.05.1-.07.15,0s.09.1,0,.16a1.18,1.18,0,0,1-.17.22,2.45,2.45,0,0,1-.55.46,2.93,2.93,0,0,1-.95.39,2.61,2.61,0,0,1-.48.05h-.14Zm-.58-2.63h.78a3.38,3.38,0,0,0,.72-.11,1.44,1.44,0,0,0,.62-.3.76.76,0,0,0,.28-.69.59.59,0,0,0-.36-.47.89.89,0,0,0-.58-.05,1.66,1.66,0,0,0-1,.62,2.62,2.62,0,0,0-.43.87A.74.74,0,0,0,217.33,202.41Z" transform="translate(-185.5 -133.03)"/><path d="M212.85,204.92v-.3h.56l.24,0a.21.21,0,0,0,.15-.19.68.68,0,0,0,0-.14v-.93h-2.66V203a.13.13,0,0,1,0-.07l.61-.92,1.17-1.79.64-1,.59-.91,0,0c.05-.11.15-.12.26-.11a.11.11,0,0,1,.09.08.38.38,0,0,1,0,.1V203h1v.32h-1v.91c0,.06,0,.11,0,.16a.24.24,0,0,0,.16.19l.23,0h.57v.31C214.66,204.88,213.76,204.88,212.85,204.92Zm1-5.61h0l-2.4,3.65c.09,0,2.36,0,2.41,0Z" transform="translate(-185.5 -133.03)"/><path d="M227.3,201.9a.72.72,0,0,0,.48,0,1,1,0,0,0,.47-.41,1.76,1.76,0,0,0,.22-.55c.15-.63.31-1.27.47-1.9.06-.2.11-.4.16-.61a.92.92,0,0,0,0-.37.23.23,0,0,0-.24-.2.78.78,0,0,0-.44.18,1.53,1.53,0,0,0-.4.48l-.12.23a.14.14,0,0,1-.2,0,.09.09,0,0,1,0-.11,1.51,1.51,0,0,1,.09-.18,1.73,1.73,0,0,1,.51-.63,1,1,0,0,1,.83-.2.69.69,0,0,1,.44.29.59.59,0,0,1,.09.48c0,.19-.09.38-.14.58-.12.5-.25,1-.38,1.5,0,.21-.1.41-.16.62a1.4,1.4,0,0,1-.63.78,1.59,1.59,0,0,1-.67.21,1,1,0,0,1-.57-.08.48.48,0,0,1-.16-.12.39.39,0,0,1,.06-.55.37.37,0,0,1,.4-.06.27.27,0,0,1,.12.26A.4.4,0,0,1,227.3,201.9Z" transform="translate(-185.5 -133.03)"/><path d="M232.9,200.39l.15.08a.28.28,0,0,1,.1.32.26.26,0,0,1-.25.2.3.3,0,0,1-.32-.35.69.69,0,0,1,.18-.43,1.07,1.07,0,0,1,.45-.31,1.6,1.6,0,0,1,.65-.08,1.63,1.63,0,0,1,.58.13,1,1,0,0,1,.52.44.92.92,0,0,1,.09.28,1,1,0,0,1-.29.81,4.74,4.74,0,0,1-.49.4l-1,.71-.05,0h1.43a.15.15,0,0,0,.09-.06,1.35,1.35,0,0,0,.09-.33v-.08h.22l-.17,1h-2.31a.65.65,0,0,1,0-.14.23.23,0,0,1,.07-.1l.25-.21,1.06-.9a1.77,1.77,0,0,0,.45-.53.8.8,0,0,0,0-.78.69.69,0,0,0-.4-.35,1,1,0,0,0-.83,0,.8.8,0,0,0-.29.23v0Z" transform="translate(-185.5 -133.03)"/><path d="M234.45,196.32l0,.22a2,2,0,0,0,.09,1,1.66,1.66,0,0,0,.13.27.24.24,0,0,1,0,.23.27.27,0,0,1-.23.14.16.16,0,0,1-.13-.06.54.54,0,0,1-.1-.16,1.2,1.2,0,0,1-.11-.46,3.53,3.53,0,0,1,.11-1c0-.05,0-.11,0-.17h-.64c0,.13-.06.25-.1.37-.1.38-.21.75-.32,1.13a.54.54,0,0,1-.11.23.24.24,0,0,1-.23.09.19.19,0,0,1-.13-.26l.12-.22a6.78,6.78,0,0,0,.53-1.31v0h-.45a.79.79,0,0,0-.57.28l0,0a.16.16,0,0,1-.17.05.06.06,0,0,1,0-.07.14.14,0,0,1,0-.06,2,2,0,0,1,.5-.5.89.89,0,0,1,.45-.12h2.14a.34.34,0,0,1,.14,0,.13.13,0,0,1,.09.16.22.22,0,0,1-.23.2h-.76Z" transform="translate(-185.5 -133.03)"/><path d="M231.64,199.17v-.36H236v.36Z" transform="translate(-185.5 -133.03)"/><path d="M223.73,199.15h-2.12l-.14,0a.14.14,0,0,1-.11-.14c0-.1,0-.16.16-.18h4.32l.15,0a.15.15,0,0,1,.1.15.12.12,0,0,1-.09.15.45.45,0,0,1-.16,0Z" transform="translate(-185.5 -133.03)"/><path d="M229.25,196.44a.39.39,0,0,1,.2-.28.34.34,0,0,1,.26,0,.27.27,0,0,1,.2.34.42.42,0,0,1-.36.31A.28.28,0,0,1,229.25,196.44Z" transform="translate(-185.5 -133.03)"/><path d="M400.89,205h0a1.48,1.48,0,0,1-.84-.28,1.72,1.72,0,0,1-.4-.45,2.17,2.17,0,0,1-.22-.6l0-.24a2.35,2.35,0,0,1,0-.26,3.16,3.16,0,0,1,.15-.86,2.44,2.44,0,0,1,.35-.68,2.53,2.53,0,0,1,.38-.42,2.77,2.77,0,0,1,1.23-.65,2,2,0,0,1,.35-.05h.26a1.16,1.16,0,0,1,.65.23.75.75,0,0,1,.3.49.9.9,0,0,1,0,.46,1,1,0,0,1-.2.35,1.18,1.18,0,0,1-.56.37,3.25,3.25,0,0,1-.42.11,1.77,1.77,0,0,1-.32.05l-.36,0h-.85s0,0,0,0c0,.18-.07.36-.1.54s0,.2,0,.3,0,.16,0,.24a1.81,1.81,0,0,0,.12.56.86.86,0,0,0,.23.33.63.63,0,0,0,.34.16,1.67,1.67,0,0,0,.32,0,3.1,3.1,0,0,0,.53-.1,3.8,3.8,0,0,0,.47-.18,3,3,0,0,0,.44-.29l.29-.27a1.56,1.56,0,0,0,.16-.2.11.11,0,0,1,.19,0c.05.07,0,.12,0,.16a1.09,1.09,0,0,1-.13.17l-.28.26a2.09,2.09,0,0,1-.39.27l-.31.16a2.57,2.57,0,0,1-.47.15l-.27,0-.32,0h-.09Zm-.59-2.64h.77l.28,0a2.38,2.38,0,0,0,.37-.06,1.73,1.73,0,0,0,.57-.22.88.88,0,0,0,.34-.35.85.85,0,0,0,.08-.42.63.63,0,0,0-.21-.4.76.76,0,0,0-.46-.16,1.07,1.07,0,0,0-.25,0,1.44,1.44,0,0,0-.4.13,1.46,1.46,0,0,0-.33.22,1.75,1.75,0,0,0-.35.37,2.38,2.38,0,0,0-.23.41A5,5,0,0,0,400.3,202.37Z" transform="translate(-185.5 -133.03)"/><path d="M395.82,204.9v-.31h.5a.73.73,0,0,0,.3,0,.26.26,0,0,0,.16-.19,1.21,1.21,0,0,0,0-.19v-.87h-2.65v-.14a.44.44,0,0,1,.1-.33c.14-.2.27-.41.4-.61l.33-.5.5-.76.33-.5.5-.76.33-.5.33-.51.25-.38s.05-.09.11-.1h.17c.07,0,.07.07.07.12s0,0,0,0v4.61h1v.32h-1v0c0,.3,0,.6,0,.9a1.1,1.1,0,0,0,0,.18.23.23,0,0,0,.18.15,1,1,0,0,0,.34.05h.42v.31h-2.24l-.35,0Zm1-5.64,0,0-.33.51c-.15.24-.31.47-.47.71l-.48.74-.32.48-.31.48-.45.68s0,0,0,.06h2.42Z" transform="translate(-185.5 -133.03)"/><path d="M404,201.88a1.6,1.6,0,0,0,.23,0,.75.75,0,0,0,.43-.15,1.28,1.28,0,0,0,.37-.46,3,3,0,0,0,.13-.39l.21-.84c.08-.33.16-.66.25-1l.18-.73a.77.77,0,0,0,0-.37.2.2,0,0,0-.21-.17.69.69,0,0,0-.43.16l-.17.14a1.74,1.74,0,0,0-.27.38l-.1.21a.13.13,0,0,1-.15.07.09.09,0,0,1-.08-.14,1.72,1.72,0,0,1,.23-.42,2.09,2.09,0,0,1,.24-.28,1.17,1.17,0,0,1,.52-.29.86.86,0,0,1,.39,0,.83.83,0,0,1,.36.16.6.6,0,0,1,.21.36.94.94,0,0,1,0,.44l-.13.49-.21.82-.15.62-.18.66a1.1,1.1,0,0,1-.21.36,1.41,1.41,0,0,1-.39.34,1.65,1.65,0,0,1-.52.2,1.35,1.35,0,0,1-.4,0,.77.77,0,0,1-.39-.11.33.33,0,0,1-.18-.26.37.37,0,0,1,.08-.32.44.44,0,0,1,.25-.15.28.28,0,0,1,.33.18.32.32,0,0,1-.07.3Z" transform="translate(-185.5 -133.03)"/><path d="M410,202.61h1.26l.2,0a.12.12,0,0,0,0-.05.68.68,0,0,0,.09-.25l0-.16h.21l-.16,1h-2.32a.75.75,0,0,1,0-.15s.05-.07.08-.1l.16-.13.22-.19a1.07,1.07,0,0,0,.16-.14l.23-.18.15-.14.27-.22.12-.11c.08-.08.17-.16.25-.25a1.22,1.22,0,0,0,.26-.44.88.88,0,0,0,0-.33.7.7,0,0,0-.37-.57.77.77,0,0,0-.36-.12.47.47,0,0,0-.17,0,.91.91,0,0,0-.39.08,1,1,0,0,0-.28.2l-.06.08a.29.29,0,0,1,.25.18.28.28,0,0,1-.25.41.27.27,0,0,1-.24-.1.2.2,0,0,1-.06-.14.66.66,0,0,1,.15-.52,1.18,1.18,0,0,1,.3-.25,1.25,1.25,0,0,1,.46-.15l.32,0a1.6,1.6,0,0,1,.74.19,1,1,0,0,1,.39.38,1.08,1.08,0,0,1,.11.36.86.86,0,0,1-.11.49,1.53,1.53,0,0,1-.16.22,3,3,0,0,1-.47.39l-.83.59-.27.2Z" transform="translate(-185.5 -133.03)"/><path d="M411,196.29h-.6s0,0,0,0c-.07.25-.13.5-.2.75s-.1.37-.16.56-.06.19-.1.28a.28.28,0,0,1-.21.2.18.18,0,0,1-.19-.07.17.17,0,0,1,0-.2l.25-.48.27-.64c.05-.13.09-.27.13-.4v0h-.32a1.06,1.06,0,0,0-.39.06.75.75,0,0,0-.24.15l-.13.14a.17.17,0,0,1-.17,0s0-.06,0-.1l.13-.17.12-.14a1.18,1.18,0,0,1,.55-.32h2.44a.14.14,0,0,1,.1.15.2.2,0,0,1-.1.18.21.21,0,0,1-.11,0h-.75s0,0,0,0l0,.23a.25.25,0,0,0,0,.08c0,.09,0,.18,0,.26a1.67,1.67,0,0,0,.15.66,1.14,1.14,0,0,0,.1.19.21.21,0,0,1-.07.3.35.35,0,0,1-.14.06A.2.2,0,0,1,411,198a1,1,0,0,1-.15-.38,1.67,1.67,0,0,1,0-.38c0-.12,0-.23,0-.34s.08-.42.12-.62Z" transform="translate(-185.5 -133.03)"/><path d="M408.37,199.14v-.36h4.32v.36Z" transform="translate(-185.5 -133.03)"/><path d="M406,196.46a.35.35,0,0,1,.15-.29.44.44,0,0,1,.22-.1.29.29,0,0,1,.26.13.32.32,0,0,1,0,.37.47.47,0,0,1-.27.16.28.28,0,0,1-.31-.2A.17.17,0,0,1,406,196.46Z" transform="translate(-185.5 -133.03)"/><path d="M462.45,232.67V233c-1,0-1.95,0-2.94,0v-.3H460a.9.9,0,0,0,.28,0c.18,0,.22-.12.23-.29,0,0,0,0,0,0v-2.68s-2.86,0-3,0v2.67a1,1,0,0,0,0,.17.27.27,0,0,0,.12.14.63.63,0,0,0,.27.06l.53,0h.09V233l-1.47,0c-.49,0-1,0-1.47,0a.38.38,0,0,1,0-.15v-.16h.08l.53,0a1,1,0,0,0,.23,0,.25.25,0,0,0,.18-.23s0-.08,0-.12v-5.35a.78.78,0,0,0,0-.16.2.2,0,0,0-.14-.17.65.65,0,0,0-.24-.06h-.63v-.32c.4,0,2.53,0,2.95,0v.32H458l-.21,0a.25.25,0,0,0-.18.23,1.09,1.09,0,0,0,0,.18v2.32h3v-2.51a.24.24,0,0,0-.18-.21,1,1,0,0,0-.29,0h-.54v-.31c1,0,2,0,2.93,0v.3h-.38l-.33,0-.1,0a.26.26,0,0,0-.21.27v5.37a1.7,1.7,0,0,0,0,.22.25.25,0,0,0,.17.19,1,1,0,0,0,.24,0l.52,0Z" transform="translate(-185.5 -133.03)"/><path d="M444.24,234.64a.64.64,0,0,0,.46.15.38.38,0,0,0,.25-.09,1.24,1.24,0,0,0,.18-.22,1.94,1.94,0,0,0,.17-.42,8.85,8.85,0,0,0,.23-1l.15-.8c.06-.29.11-.58.17-.88l.16-.84c.09-.45.17-.89.26-1.34l0-.17h-.85c-.06,0-.08,0-.09-.1s0-.19.15-.2h.84c0-.17.06-.32.09-.48.07-.35.13-.71.23-1.05a2.17,2.17,0,0,1,.36-.73,1.17,1.17,0,0,1,.83-.46.93.93,0,0,1,.79.26.61.61,0,0,1-.25,1,.42.42,0,0,1-.36,0,.36.36,0,0,1-.14-.36.53.53,0,0,1,.44-.45l.09,0a.8.8,0,0,0-.14-.09.69.69,0,0,0-.32-.08.48.48,0,0,0-.46.29,1.15,1.15,0,0,0-.12.37c-.11.54-.21,1.09-.32,1.63l0,.21h1c.06,0,.07,0,.08.09h0c0,.14-.05.2-.19.2h-1l-.06.3c-.06.32-.13.64-.19,1s-.13.73-.2,1.09c-.11.54-.2,1.09-.34,1.62a6.31,6.31,0,0,1-.28.87,2.87,2.87,0,0,1-.43.74,1.71,1.71,0,0,1-.39.32.9.9,0,0,1-.83,0,.74.74,0,0,1-.31-.24.61.61,0,0,1,.23-.91.53.53,0,0,1,.35,0,.34.34,0,0,1,.23.31.52.52,0,0,1-.47.55h-.05Z" transform="translate(-185.5 -133.03)"/><path d="M463.88,232.72h1.3a3.09,3.09,0,0,0,.52-.07.91.91,0,0,0,.64-.61,2.33,2.33,0,0,0,.11-.51c0-.14,0-.27.05-.41h.25l-.17,1.85h-3.41a.14.14,0,0,1-.13-.21.18.18,0,0,1,0-.07c.46-.63.93-1.26,1.4-1.88l1.11-1.5.29-.39h-1.23a1.9,1.9,0,0,0-.54.07.78.78,0,0,0-.59.57,2.44,2.44,0,0,0-.09.47c0,.07,0,.14,0,.21a.14.14,0,0,1,0,.06h-.23c0-.06.07-1.41.1-1.6h3.34a.13.13,0,0,1,.09.21l-.11.15c-.5.66-1,1.33-1.48,2l-1,1.37-.2.27Z" transform="translate(-185.5 -133.03)"/><path d="M468.37,225.93h-1v-.4h1.36c0,.05,0,9.78,0,9.92s-1.26,0-1.37,0v-.4h1Z" transform="translate(-185.5 -133.03)"/><path d="M455.09,235.06v.4h-1.36v-9.93h1.36v.4h-1v9.13h1Z" transform="translate(-185.5 -133.03)"/></svg>