<svg id="Layer_1" data-name="Layer 1" xmlns="http://www.w3.org/2000/svg" viewBox="0 0 333.77 142.24"><defs><style>.cls-1,.cls-3,.cls-4,.cls-7{fill:none;stroke:#000;stroke-miterlimit:10;}.cls-2{font-size:12px;}.cls-2,.cls-5{font-family:TimesNewRomanPSMT, Times New Roman;}.cls-3{stroke-width:2px;}.cls-4,.cls-7{stroke-width:0.5px;}.cls-5{font-size:9px;}.cls-6{letter-spacing:-0.04em;}.cls-7{stroke-dasharray:1.94 1.94;}</style></defs><title>example3_spectrum</title><line class="cls-1" y1="97.47" x2="293.98" y2="97.47"/><polygon points="292.96 100.96 299 97.47 292.96 93.98 292.96 100.96"/><line class="cls-1" x1="149.5" y1="20.65" x2="149.5" y2="97.47"/><polygon points="144.51 22.11 149.5 13.47 154.49 22.11 144.51 22.11"/><text class="cls-2" transform="translate(109.17 9.97)">spectrum of x(t)</text><line class="cls-3" x1="149.5" y1="97.97" x2="149.5" y2="37.97"/><line class="cls-1" x1="145" y1="37.97" x2="154" y2="37.97"/><path d="M846.43,450.66a.43.43,0,0,0,0,0V451c-1,0-2,0-3,0v-.3H844a.9.9,0,0,0,.28,0c.18,0,.22-.12.24-.29v-2.71c-.06,0-2.87,0-3,0v2.67a1,1,0,0,0,0,.17.24.24,0,0,0,.12.14.51.51,0,0,0,.27.06l.54,0h.08V451q-.74,0-1.47,0c-.49,0-1,0-1.47,0a.38.38,0,0,1,0-.15v-.16h.08l.53,0a.93.93,0,0,0,.23,0,.25.25,0,0,0,.18-.23s0-.08,0-.12V444.9a.78.78,0,0,0,0-.16.2.2,0,0,0-.14-.17.65.65,0,0,0-.24-.06h-.63v-.32c.4,0,2.53,0,3,0v.32h-.63l-.21,0a.25.25,0,0,0-.18.23,1.09,1.09,0,0,0,0,.18v2.32h3s0,0,0-.07v-2.35s0-.06,0-.09a.24.24,0,0,0-.18-.21,1,1,0,0,0-.29-.05h-.54v-.31c1,0,2,0,2.93,0v.3h-.38l-.33,0-.1,0a.27.27,0,0,0-.21.27v5.37a1.62,1.62,0,0,0,0,.22.25.25,0,0,0,.17.19,1,1,0,0,0,.24,0l.52,0Z" transform="translate(-519 -327.03)"/><path d="M828.22,452.63a.64.64,0,0,0,.46.15.38.38,0,0,0,.25-.09.76.76,0,0,0,.18-.22,1.94,1.94,0,0,0,.17-.42,8.85,8.85,0,0,0,.23-1l.15-.8c.06-.29.11-.58.17-.88l.16-.84c.09-.44.17-.89.26-1.34l0-.17h-.85c-.06,0-.08,0-.09-.1s0-.19.15-.2h.84c0-.17.06-.32.09-.47.07-.36.13-.72.23-1.06a2.26,2.26,0,0,1,.36-.73,1.17,1.17,0,0,1,.83-.46.91.91,0,0,1,.79.27.6.6,0,0,1-.25,1,.42.42,0,0,1-.36,0,.36.36,0,0,1-.14-.36.53.53,0,0,1,.44-.45l.09,0a.55.55,0,0,0-.14-.09.69.69,0,0,0-.32-.08.49.49,0,0,0-.46.29,1.15,1.15,0,0,0-.12.37c-.11.54-.21,1.09-.32,1.63l0,.21h1c.06,0,.07,0,.08.09h0c0,.14-.05.2-.19.2h-1l-.06.3c-.06.32-.13.64-.19,1s-.13.73-.2,1.09c-.11.54-.2,1.09-.34,1.62a6.31,6.31,0,0,1-.28.87,2.61,2.61,0,0,1-.43.74,1.52,1.52,0,0,1-.39.32.9.9,0,0,1-.83,0,.67.67,0,0,1-.31-.24.61.61,0,0,1,.23-.91.53.53,0,0,1,.35,0,.34.34,0,0,1,.23.31.52.52,0,0,1-.47.55h0Z" transform="translate(-519 -327.03)"/><path d="M847.86,450.71h1.3a2.32,2.32,0,0,0,.52-.07.91.91,0,0,0,.64-.61,2.33,2.33,0,0,0,.11-.51c0-.14,0-.27.05-.41h.25l-.17,1.85h-3.41a.14.14,0,0,1-.13-.21.18.18,0,0,1,.05-.07c.47-.63.93-1.26,1.4-1.88l1.11-1.5.29-.39h-1.23a1.9,1.9,0,0,0-.54.07.78.78,0,0,0-.59.57,2.44,2.44,0,0,0-.09.47,1.48,1.48,0,0,1,0,.21.14.14,0,0,1,0,.06h-.23c0-.06.07-1.4.1-1.6h3.34a.13.13,0,0,1,.09.21l-.11.15-1.48,2-1,1.37-.2.27Z" transform="translate(-519 -327.03)"/><path d="M852.35,443.92h-1v-.4h1.36c0,.05,0,9.78,0,9.92s-1.26,0-1.37,0v-.4h1Z" transform="translate(-519 -327.03)"/><path d="M839.07,453.05v.4h-1.36v-9.93h1.36v.4h-1v9.13h1Z" transform="translate(-519 -327.03)"/><path d="M829.36,436a1.48,1.48,0,0,0,.43-.27,5.45,5.45,0,0,0,.5-.46,3.2,3.2,0,0,1,.25-.27c.11-.12.23-.23.34-.33a2.88,2.88,0,0,1,.35-.26,1.21,1.21,0,0,1,.49-.18l.27,0a.67.67,0,0,1,.37.15.55.55,0,0,1,.22.37.61.61,0,0,1-.13.53.55.55,0,0,1-.32.18.39.39,0,0,1-.32-.06.3.3,0,0,1-.15-.24.49.49,0,0,1,.06-.27.46.46,0,0,1,.26-.25,1.17,1.17,0,0,1,.2-.06h0l0,0a.38.38,0,0,0-.17-.08h-.15a.86.86,0,0,0-.36.07,1.83,1.83,0,0,0-.38.23l-.2.17-.35.34-.38.4a4.4,4.4,0,0,1-.52.43l-.07,0,.23,0,.31.06a3.2,3.2,0,0,1,.43.17,1,1,0,0,1,.43.43.76.76,0,0,1,.06.26s0,.09,0,.13a2.74,2.74,0,0,1-.05.28l-.06.36a.81.81,0,0,0,0,.22.53.53,0,0,0,.08.32.27.27,0,0,0,.18.1.5.5,0,0,0,.36-.1,1,1,0,0,0,.22-.25,2.87,2.87,0,0,0,.28-.68l.08-.29a.1.1,0,0,1,.11-.09h0a.1.1,0,0,1,.09.12,4.11,4.11,0,0,1-.21.68,2.1,2.1,0,0,1-.22.42,1,1,0,0,1-.47.38,1.2,1.2,0,0,1-.2,0,.8.8,0,0,1-.5-.11.87.87,0,0,1-.33-.33.77.77,0,0,1-.12-.36,1.07,1.07,0,0,1,0-.31c0-.11,0-.22,0-.33a.67.67,0,0,0-.14-.51.84.84,0,0,0-.27-.22,1.41,1.41,0,0,0-.5-.17l-.24,0-.06.25c-.09.35-.17.71-.26,1.06s-.11.42-.16.63l-.06.2a.37.37,0,0,1-.27.23.29.29,0,0,1-.27,0,.27.27,0,0,1-.11-.2,1.06,1.06,0,0,1,0-.31c.07-.26.14-.52.2-.79l.21-.8c0-.18.09-.36.13-.54l.21-.8c0-.18.08-.36.13-.53s.14-.54.2-.81.09-.36.14-.53.14-.54.2-.81a2.17,2.17,0,0,0,0-.25c0-.07,0-.1-.09-.12a.47.47,0,0,0-.17,0h-.4a.08.08,0,0,1-.07-.07c0-.08,0-.19.09-.22l.08,0,.27,0,.26,0,.19,0,.31,0a.61.61,0,0,1,.27,0,.1.1,0,0,1,.07.11c-.06.22-.11.43-.16.64l-.18.7c0,.22-.11.45-.16.67l-.18.7c-.05.23-.11.46-.17.7s-.11.46-.17.7A.13.13,0,0,0,829.36,436Z" transform="translate(-519 -327.03)"/><path d="M843.7,431.54h-1v-.4h1.37v9.94h-1.37v-.4h1Z" transform="translate(-519 -327.03)"/><path d="M837.58,441.08v-9.94H839v.4h-1v9.13h1v.41Z" transform="translate(-519 -327.03)"/><path d="M839.27,436.73v-.57h2.64v.57Z" transform="translate(-519 -327.03)"/><line class="cls-4" x1="286.13" y1="93.49" x2="286.13" y2="99.87"/><line class="cls-4" x1="273.71" y1="93.49" x2="273.71" y2="99.87"/><line class="cls-4" x1="261.29" y1="93.49" x2="261.29" y2="99.87"/><line class="cls-4" x1="248.87" y1="93.49" x2="248.87" y2="99.87"/><line class="cls-4" x1="236.45" y1="93.49" x2="236.45" y2="99.87"/><line class="cls-4" x1="224.03" y1="93.49" x2="224.03" y2="99.87"/><line class="cls-4" x1="211.61" y1="93.49" x2="211.61" y2="99.87"/><line class="cls-4" x1="199.18" y1="93.49" x2="199.18" y2="99.87"/><line class="cls-4" x1="186.76" y1="93.49" x2="186.76" y2="99.87"/><line class="cls-4" x1="174.34" y1="93.49" x2="174.34" y2="99.87"/><line class="cls-4" x1="161.92" y1="93.49" x2="161.92" y2="99.87"/><line class="cls-4" x1="149.5" y1="93.49" x2="149.5" y2="99.87"/><line class="cls-4" x1="137.08" y1="93.49" x2="137.08" y2="99.87"/><line class="cls-4" x1="124.66" y1="93.49" x2="124.66" y2="99.87"/><line class="cls-4" x1="112.24" y1="93.49" x2="112.24" y2="99.87"/><line class="cls-4" x1="99.82" y1="93.49" x2="99.82" y2="99.87"/><line class="cls-4" x1="87.39" y1="93.49" x2="87.39" y2="99.87"/><line class="cls-4" x1="74.97" y1="93.49" x2="74.97" y2="99.87"/><line class="cls-4" x1="62.55" y1="93.49" x2="62.55" y2="99.87"/><line class="cls-4" x1="50.13" y1="93.49" x2="50.13" y2="99.87"/><line class="cls-4" x1="37.71" y1="93.49" x2="37.71" y2="99.87"/><line class="cls-4" x1="273.71" y1="93.49" x2="273.71" y2="99.87"/><line class="cls-4" x1="261.29" y1="93.49" x2="261.29" y2="99.87"/><line class="cls-4" x1="248.87" y1="93.49" x2="248.87" y2="99.87"/><line class="cls-4" x1="236.45" y1="93.49" x2="236.45" y2="99.87"/><line class="cls-4" x1="224.03" y1="93.49" x2="224.03" y2="99.87"/><line class="cls-4" x1="211.61" y1="93.49" x2="211.61" y2="99.87"/><line class="cls-4" x1="199.18" y1="93.49" x2="199.18" y2="99.87"/><line class="cls-4" x1="186.76" y1="93.49" x2="186.76" y2="99.87"/><line class="cls-4" x1="174.34" y1="93.49" x2="174.34" y2="99.87"/><line class="cls-4" x1="161.92" y1="93.49" x2="161.92" y2="99.87"/><line class="cls-4" x1="149.5" y1="93.49" x2="149.5" y2="99.87"/><line class="cls-4" x1="137.08" y1="93.49" x2="137.08" y2="99.87"/><line class="cls-4" x1="124.66" y1="93.49" x2="124.66" y2="99.87"/><line class="cls-4" x1="112.24" y1="93.49" x2="112.24" y2="99.87"/><line class="cls-4" x1="99.82" y1="93.49" x2="99.82" y2="99.87"/><line class="cls-4" x1="87.39" y1="93.49" x2="87.39" y2="99.87"/><line class="cls-4" x1="74.97" y1="93.49" x2="74.97" y2="99.87"/><line class="cls-4" x1="62.55" y1="93.49" x2="62.55" y2="99.87"/><line class="cls-4" x1="50.13" y1="93.49" x2="50.13" y2="99.87"/><line class="cls-4" x1="37.71" y1="93.49" x2="37.71" y2="99.87"/><line class="cls-4" x1="25.29" y1="93.49" x2="25.29" y2="99.87"/><line class="cls-4" x1="261.29" y1="93.49" x2="261.29" y2="99.87"/><line class="cls-4" x1="248.87" y1="93.49" x2="248.87" y2="99.87"/><line class="cls-4" x1="236.45" y1="93.49" x2="236.45" y2="99.87"/><line class="cls-4" x1="224.03" y1="93.49" x2="224.03" y2="99.87"/><line class="cls-4" x1="211.61" y1="93.49" x2="211.61" y2="99.87"/><line class="cls-4" x1="199.18" y1="93.49" x2="199.18" y2="99.87"/><line class="cls-4" x1="186.76" y1="93.49" x2="186.76" y2="99.87"/><line class="cls-4" x1="174.34" y1="93.49" x2="174.34" y2="99.87"/><line class="cls-4" x1="161.92" y1="93.49" x2="161.92" y2="99.87"/><line class="cls-4" x1="149.5" y1="93.49" x2="149.5" y2="99.87"/><line class="cls-4" x1="137.08" y1="93.49" x2="137.08" y2="99.87"/><line class="cls-4" x1="124.66" y1="93.49" x2="124.66" y2="99.87"/><line class="cls-4" x1="112.24" y1="93.49" x2="112.24" y2="99.87"/><line class="cls-4" x1="99.82" y1="93.49" x2="99.82" y2="99.87"/><line class="cls-4" x1="87.39" y1="93.49" x2="87.39" y2="99.87"/><line class="cls-4" x1="74.97" y1="93.49" x2="74.97" y2="99.87"/><line class="cls-4" x1="62.55" y1="93.49" x2="62.55" y2="99.87"/><line class="cls-4" x1="50.13" y1="93.49" x2="50.13" y2="99.87"/><line class="cls-4" x1="37.71" y1="93.49" x2="37.71" y2="99.87"/><line class="cls-4" x1="25.29" y1="93.49" x2="25.29" y2="99.87"/><line class="cls-4" x1="12.87" y1="93.49" x2="12.87" y2="99.87"/><line class="cls-4" x1="248.87" y1="93.49" x2="248.87" y2="99.87"/><line class="cls-4" x1="236.45" y1="93.49" x2="236.45" y2="99.87"/><line class="cls-4" x1="224.03" y1="93.49" x2="224.03" y2="99.87"/><line class="cls-4" x1="211.61" y1="93.49" x2="211.61" y2="99.87"/><line class="cls-4" x1="199.18" y1="93.49" x2="199.18" y2="99.87"/><line class="cls-4" x1="186.76" y1="93.49" x2="186.76" y2="99.87"/><line class="cls-4" x1="174.34" y1="93.49" x2="174.34" y2="99.87"/><line class="cls-4" x1="161.92" y1="93.49" x2="161.92" y2="99.87"/><line class="cls-4" x1="149.5" y1="93.49" x2="149.5" y2="99.87"/><line class="cls-4" x1="137.08" y1="93.49" x2="137.08" y2="99.87"/><line class="cls-4" x1="124.66" y1="93.49" x2="124.66" y2="99.87"/><line class="cls-4" x1="112.24" y1="93.49" x2="112.24" y2="99.87"/><line class="cls-4" x1="99.82" y1="93.49" x2="99.82" y2="99.87"/><line class="cls-4" x1="87.39" y1="93.49" x2="87.39" y2="99.87"/><line class="cls-4" x1="74.97" y1="93.49" x2="74.97" y2="99.87"/><line class="cls-4" x1="62.55" y1="93.49" x2="62.55" y2="99.87"/><line class="cls-4" x1="50.13" y1="93.49" x2="50.13" y2="99.87"/><line class="cls-4" x1="37.71" y1="93.49" x2="37.71" y2="99.87"/><line class="cls-4" x1="25.29" y1="93.49" x2="25.29" y2="99.87"/><line class="cls-4" x1="12.87" y1="93.49" x2="12.87" y2="99.87"/><line class="cls-4" x1="236.45" y1="93.49" x2="236.45" y2="99.87"/><line class="cls-4" x1="224.03" y1="93.49" x2="224.03" y2="99.87"/><line class="cls-4" x1="211.61" y1="93.49" x2="211.61" y2="99.87"/><line class="cls-4" x1="199.18" y1="93.49" x2="199.18" y2="99.87"/><line class="cls-4" x1="186.76" y1="93.49" x2="186.76" y2="99.87"/><line class="cls-4" x1="174.34" y1="93.49" x2="174.34" y2="99.87"/><line class="cls-4" x1="161.92" y1="93.49" x2="161.92" y2="99.87"/><line class="cls-4" x1="149.5" y1="93.49" x2="149.5" y2="99.87"/><line class="cls-4" x1="137.08" y1="93.49" x2="137.08" y2="99.87"/><line class="cls-4" x1="124.66" y1="93.49" x2="124.66" y2="99.87"/><line class="cls-4" x1="112.24" y1="93.49" x2="112.24" y2="99.87"/><line class="cls-4" x1="99.82" y1="93.49" x2="99.82" y2="99.87"/><line class="cls-4" x1="87.39" y1="93.49" x2="87.39" y2="99.87"/><line class="cls-4" x1="74.97" y1="93.49" x2="74.97" y2="99.87"/><line class="cls-4" x1="62.55" y1="93.49" x2="62.55" y2="99.87"/><line class="cls-4" x1="50.13" y1="93.49" x2="50.13" y2="99.87"/><line class="cls-4" x1="37.71" y1="93.49" x2="37.71" y2="99.87"/><line class="cls-4" x1="25.29" y1="93.49" x2="25.29" y2="99.87"/><line class="cls-4" x1="12.87" y1="93.49" x2="12.87" y2="99.87"/><line class="cls-4" x1="224.03" y1="93.49" x2="224.03" y2="99.87"/><line class="cls-4" x1="211.61" y1="93.49" x2="211.61" y2="99.87"/><line class="cls-4" x1="199.18" y1="93.49" x2="199.18" y2="99.87"/><line class="cls-4" x1="186.76" y1="93.49" x2="186.76" y2="99.87"/><line class="cls-4" x1="174.34" y1="93.49" x2="174.34" y2="99.87"/><line class="cls-4" x1="161.92" y1="93.49" x2="161.92" y2="99.87"/><line class="cls-4" x1="149.5" y1="93.49" x2="149.5" y2="99.87"/><line class="cls-4" x1="137.08" y1="93.49" x2="137.08" y2="99.87"/><line class="cls-4" x1="124.66" y1="93.49" x2="124.66" y2="99.87"/><line class="cls-4" x1="112.24" y1="93.49" x2="112.24" y2="99.87"/><line class="cls-4" x1="99.82" y1="93.49" x2="99.82" y2="99.87"/><line class="cls-4" x1="87.39" y1="93.49" x2="87.39" y2="99.87"/><line class="cls-4" x1="74.97" y1="93.49" x2="74.97" y2="99.87"/><line class="cls-4" x1="62.55" y1="93.49" x2="62.55" y2="99.87"/><line class="cls-4" x1="50.13" y1="93.49" x2="50.13" y2="99.87"/><line class="cls-4" x1="37.71" y1="93.49" x2="37.71" y2="99.87"/><line class="cls-4" x1="25.29" y1="93.49" x2="25.29" y2="99.87"/><line class="cls-4" x1="12.87" y1="93.49" x2="12.87" y2="99.87"/><line class="cls-4" x1="211.61" y1="93.49" x2="211.61" y2="99.87"/><line class="cls-4" x1="199.18" y1="93.49" x2="199.18" y2="99.87"/><line class="cls-4" x1="186.76" y1="93.49" x2="186.76" y2="99.87"/><line class="cls-4" x1="174.34" y1="93.49" x2="174.34" y2="99.87"/><line class="cls-4" x1="161.92" y1="93.49" x2="161.92" y2="99.87"/><line class="cls-4" x1="149.5" y1="93.49" x2="149.5" y2="99.87"/><line class="cls-4" x1="137.08" y1="93.49" x2="137.08" y2="99.87"/><line class="cls-4" x1="124.66" y1="93.49" x2="124.66" y2="99.87"/><line class="cls-4" x1="112.24" y1="93.49" x2="112.24" y2="99.87"/><line class="cls-4" x1="99.82" y1="93.49" x2="99.82" y2="99.87"/><line class="cls-4" x1="87.39" y1="93.49" x2="87.39" y2="99.87"/><line class="cls-4" x1="74.97" y1="93.49" x2="74.97" y2="99.87"/><line class="cls-4" x1="62.55" y1="93.49" x2="62.55" y2="99.87"/><line class="cls-4" x1="50.13" y1="93.49" x2="50.13" y2="99.87"/><line class="cls-4" x1="37.71" y1="93.49" x2="37.71" y2="99.87"/><line class="cls-4" x1="25.29" y1="93.49" x2="25.29" y2="99.87"/><line class="cls-4" x1="12.87" y1="93.49" x2="12.87" y2="99.87"/><text class="cls-5" transform="translate(147.49 111.68)">0</text><text class="cls-5" transform="translate(160.14 111.68)">1</text><text class="cls-5" transform="translate(172.54 111.68)">2</text><text class="cls-5" transform="translate(184.95 111.68)">3</text><text class="cls-5" transform="translate(197.07 111.68)">4</text><text class="cls-5" transform="translate(209.56 111.68)">5</text><text class="cls-5" transform="translate(221.96 111.68)">6</text><text class="cls-5" transform="translate(234.29 111.68)">7</text><text class="cls-5" transform="translate(246.88 111.68)">8</text><text class="cls-5" transform="translate(268.96 111.68)">10</text><text class="cls-5" transform="translate(259.29 111.68)">9</text><text class="cls-5" transform="translate(281.85 111.68)"><tspan class="cls-6">1</tspan><tspan x="4.17" y="0">1</tspan></text><text class="cls-5" transform="translate(133.47 111.68)">-1</text><text class="cls-5" transform="translate(121.56 111.68)">-2</text><text class="cls-5" transform="translate(109.17 111.68)">-3</text><text class="cls-5" transform="translate(96.4 111.68)">-4</text><text class="cls-5" transform="translate(84.23 111.68)">-5</text><text class="cls-5" transform="translate(70.83 111.68)">-6</text><text class="cls-5" transform="translate(58.2 111.68)">-7</text><text class="cls-5" transform="translate(46.02 111.68)">-8</text><text class="cls-5" transform="translate(33.9 111.68)">-9</text><text class="cls-5" transform="translate(19.16 111.68)">-10</text><text class="cls-5" transform="translate(6.71 111.68)">-<tspan class="cls-6" x="3" y="0">1</tspan><tspan x="7.16" y="0">1</tspan></text><text class="cls-5" transform="translate(183.23 123.94)">51</text><text class="cls-5" transform="translate(230.79 123.94)"><tspan class="cls-6">1</tspan><tspan x="4.17" y="0">19</tspan></text><text class="cls-5" transform="translate(267.63 123.94)">170</text><text class="cls-5" transform="translate(147.49 123.94)">0</text><text class="cls-5" transform="translate(106.69 123.94)">-51</text><text class="cls-5" transform="translate(53.31 123.94)">-<tspan class="cls-6" x="3" y="0">1</tspan><tspan x="7.16" y="0">19</tspan></text><text class="cls-5" transform="translate(17.22 123.94)">-170</text><line class="cls-3" x1="186.76" y1="97.68" x2="186.76" y2="67.68"/><line class="cls-3" x1="112.24" y1="97.68" x2="112.24" y2="67.68"/><line class="cls-3" x1="62.55" y1="97.68" x2="62.55" y2="82.68"/><line class="cls-3" x1="25.29" y1="97.47" x2="25.29" y2="52.47"/><line class="cls-3" x1="236.45" y1="97.77" x2="236.45" y2="82.77"/><line class="cls-3" x1="273.71" y1="97.77" x2="273.71" y2="52.77"/><line class="cls-1" x1="20.79" y1="52.47" x2="29.79" y2="52.47"/><line class="cls-1" x1="58.05" y1="82.77" x2="67.05" y2="82.77"/><line class="cls-1" x1="107.74" y1="67.68" x2="116.74" y2="67.68"/><line class="cls-1" x1="269.21" y1="52.77" x2="278.21" y2="52.77"/><line class="cls-1" x1="231.95" y1="82.77" x2="240.95" y2="82.77"/><line class="cls-1" x1="182.26" y1="67.68" x2="191.26" y2="67.68"/><line class="cls-4" x1="161.92" y1="99.87" x2="161.92" y2="100.87"/><line class="cls-7" x1="161.92" y1="102.81" x2="161.92" y2="129.04"/><line class="cls-4" x1="161.92" y1="130.02" x2="161.92" y2="131.02"/><line class="cls-4" x1="174.34" y1="99.87" x2="174.34" y2="100.87"/><line class="cls-7" x1="174.34" y1="102.81" x2="174.34" y2="129.04"/><line class="cls-4" x1="174.34" y1="130.02" x2="174.34" y2="131.02"/><line class="cls-4" x1="163.72" y1="128.75" x2="172.55" y2="128.75"/><polygon points="164.08 130 161.92 128.75 164.08 127.5 164.08 130"/><polygon points="172.18 130 174.34 128.75 172.18 127.5 172.18 130"/><path d="M673.73,467.35h0a.18.18,0,0,1,.18-.08,2.33,2.33,0,0,0,.46,0l.13,0a.21.21,0,0,0,.12-.14l.09-.32c.27-1.13.54-2.26.82-3.38l.18-.77a.25.25,0,0,0,0-.07.11.11,0,0,0-.06-.13l-.13,0h-.49s-.06,0-.06-.07,0-.16.13-.17h.25l3.72,0h.17c.07,0,.1,0,.1.11l0,.29c0,.15,0,.3-.05.45s0,.44-.07.66c0,.06,0,.13,0,.19s-.05.1-.11.09a.1.1,0,0,1-.09-.11l0-.23a2.16,2.16,0,0,0,0-.44c0-.07,0-.15,0-.22a.57.57,0,0,0-.39-.44,1.63,1.63,0,0,0-.43-.08c-.37,0-.74,0-1.11,0h-.35l-.17,0a.13.13,0,0,0-.1.09l-.06.16-.39,1.6c0,.15-.07.3-.11.45h.88a1.13,1.13,0,0,0,.32-.05.6.6,0,0,0,.43-.39,2.24,2.24,0,0,0,.11-.34l0-.1a.11.11,0,0,1,.11-.06.11.11,0,0,1,.08.09.28.28,0,0,1,0,.09c-.13.52-.25,1-.38,1.54,0,.1-.05.2-.07.29l0,0a.09.09,0,0,1-.14.05.07.07,0,0,1,0-.06v-.06a1.54,1.54,0,0,0,.07-.42,1.1,1.1,0,0,0,0-.18.19.19,0,0,0-.14-.12.59.59,0,0,0-.19-.05l-.27,0h-.81l-.06.23c-.14.6-.29,1.19-.43,1.78a1.11,1.11,0,0,0,0,.17c0,.06,0,.09.08.1a.85.85,0,0,0,.23,0h.52c.08,0,.11,0,.11.11s0,.14-.13.13h-1.3l-.67,0h-.28a.14.14,0,0,1-.15-.05Z" transform="translate(-519 -327.03)"/><path d="M706.29,462.07v-.24c.79,0,1.57,0,2.35,0v.24h-.32l-.25,0-.1,0a.2.2,0,0,0-.15.19v.28l0,4s0,.11,0,.16a.19.19,0,0,0,.15.18l.18,0h.48v.25c-.78,0-1.57,0-2.35,0V467h.4a.82.82,0,0,0,.26,0,.22.22,0,0,0,.15-.18v-.07c0-.69,0-1.39,0-2.09v-.06h-2.37v.06c0,.7,0,1.39,0,2.09a.5.5,0,0,0,0,.12.18.18,0,0,0,.09.12.59.59,0,0,0,.23.05h.48v.24c-.78,0-1.56,0-2.35,0V467h.41l.22,0a.22.22,0,0,0,.18-.22s0-.07,0-.1c0-1.41,0-2.83,0-4.24a.53.53,0,0,0,0-.13.17.17,0,0,0-.14-.16l-.23,0h-.44v-.25c.78,0,1.56,0,2.35,0v.25h-.33l-.3,0a.2.2,0,0,0-.08,0,.13.13,0,0,0-.09.1s0,.09,0,.13c0,.62,0,1.25,0,1.87v.05l2.38,0v-.05c0-.63,0-1.26,0-1.89v-.05a.2.2,0,0,0-.16-.19l-.22,0h-.43Z" transform="translate(-519 -327.03)"/><path d="M700,462.8h-.08l-1.76,0-.48,0h0a.13.13,0,0,0-.09.07,1.38,1.38,0,0,0-.08.29c0,.12,0,.25-.08.38h-.2l.25-1.64h.2a.06.06,0,0,1,0,0,.19.19,0,0,0,.13.13,1.22,1.22,0,0,0,.26.06h2.56a.34.34,0,0,1,0,.26l-.38.54-.72,1a2.35,2.35,0,0,0-.3.64,4.15,4.15,0,0,0-.18.85c0,.17,0,.34,0,.51a1.93,1.93,0,0,0,0,.24V467a.78.78,0,0,1,0,.16.33.33,0,0,1-.38.3.31.31,0,0,1-.31-.23.32.32,0,0,1,0-.14,2.4,2.4,0,0,1,0-.46,4.46,4.46,0,0,1,.07-.51,5.46,5.46,0,0,1,.24-.88,6.05,6.05,0,0,1,.66-1.26c.19-.29.39-.57.59-.86.08-.1.15-.21.23-.32Z" transform="translate(-519 -327.03)"/><path d="M693.47,467.35s0,0,0,0v-.2h.06l.45,0a1.54,1.54,0,0,0,.3,0,.21.21,0,0,0,.18-.24v0l0-4.08v-.08a2.32,2.32,0,0,1-1,.21v-.25h.08a2.27,2.27,0,0,0,.77-.13,1.58,1.58,0,0,0,.56-.36s0,0,.06,0a.2.2,0,0,1,.13,0,.21.21,0,0,1,0,.07.57.57,0,0,1,0,.13l0,4.5s0,.06,0,.1a.19.19,0,0,0,.14.16.7.7,0,0,0,.25.05h.6v.25C695.19,467.31,694.33,467.32,693.47,467.35Z" transform="translate(-519 -327.03)"/><path d="M709.31,463.8h.07l2.53,0H712a.1.1,0,0,1,.08.15l0,.05c-.39.52-.77,1-1.15,1.57l-1,1.41,0,.06h1a1.5,1.5,0,0,0,.52-.1.69.69,0,0,0,.38-.37,1.74,1.74,0,0,0,.11-.45c0-.12,0-.24,0-.37a1.34,1.34,0,0,1,.2,0L712,467.2h-.07l-2.63,0h0c-.12,0-.13-.09-.1-.17a.1.1,0,0,1,0-.05c.31-.44.63-.88.95-1.31l1.19-1.63.07-.09h-1a1.45,1.45,0,0,0-.5.08.58.58,0,0,0-.37.36,1.06,1.06,0,0,0-.09.39,1.94,1.94,0,0,0,0,.24s0,0,0,0h-.2Z" transform="translate(-519 -327.03)"/><path d="M681.39,466.83v.32a2.42,2.42,0,0,1-.21.91,1.12,1.12,0,0,1-.48.53,1.39,1.39,0,0,1-.44.13,1.23,1.23,0,0,1-.43,0,1,1,0,0,1-.77-.56,2,2,0,0,1-.21-.63,4.24,4.24,0,0,1-.05-.87,2.79,2.79,0,0,1,.07-.64,1.65,1.65,0,0,1,.31-.67,1,1,0,0,1,.48-.34,1.31,1.31,0,0,1,.83,0,1.13,1.13,0,0,1,.69.63,2.28,2.28,0,0,1,.18.68A4.89,4.89,0,0,1,681.39,466.83Zm-.51-.05h0c0-.25,0-.5,0-.75a1.68,1.68,0,0,0-.07-.44.71.71,0,0,0-.77-.5.66.66,0,0,0-.6.47,2.16,2.16,0,0,0-.1.61c0,.11,0,.22,0,.32s0,.44,0,.65,0,.25,0,.37a2.44,2.44,0,0,0,.07.46.73.73,0,0,0,.22.4.68.68,0,0,0,.58.19.69.69,0,0,0,.48-.3.85.85,0,0,0,.15-.41,4.85,4.85,0,0,0,0-.76Z" transform="translate(-519 -327.03)"/><path d="M702.75,461.32v.32H702l.06,7.3h.76v.32h-1.09l-.07-7.94Z" transform="translate(-519 -327.03)"/><path d="M713.36,461.56h-.76v-.32h1.09l.06,7.94h-1.09v-.32h.76C713.43,468.81,713.37,461.64,713.36,461.56Z" transform="translate(-519 -327.03)"/><path d="M687.45,466.35l-2.41,0a.29.29,0,0,1-.16,0c-.06,0-.08-.07-.08-.15a.12.12,0,0,1,.1-.12l.1,0h0l4.83,0H690a.13.13,0,0,1,.11.14.12.12,0,0,1-.1.15l-.13,0Z" transform="translate(-519 -327.03)"/><path d="M687.44,464.81l-2.43,0-.12,0a.12.12,0,0,1-.1-.14c0-.07,0-.13.09-.14a.9.9,0,0,1,.16,0l3.26,0h1.53a.29.29,0,0,1,.13,0,.15.15,0,0,1,.11.24.13.13,0,0,1-.09,0l-.11,0Z" transform="translate(-519 -327.03)"/><path d="M676.35,362.47h-.1a1,1,0,0,1-.71-.52,1.67,1.67,0,0,1-.19-.57,3.46,3.46,0,0,1,0-.79,3.7,3.7,0,0,1,.07-.57,1.48,1.48,0,0,1,.27-.6,1,1,0,0,1,.57-.35l.24,0a1.08,1.08,0,0,1,.73.25,1,1,0,0,1,.28.38,2.18,2.18,0,0,1,.16.62,4.16,4.16,0,0,1,0,.79,2.21,2.21,0,0,1-.13.66,1.18,1.18,0,0,1-.26.43.84.84,0,0,1-.53.28l-.1,0Zm.84-1.74h0l0-.68a2.57,2.57,0,0,0-.06-.4.67.67,0,0,0-.19-.3.64.64,0,0,0-.53-.16.62.62,0,0,0-.47.31.94.94,0,0,0-.11.37,3.13,3.13,0,0,0,0,.61c0,.19,0,.38,0,.57a3.4,3.4,0,0,0,0,.45,1.35,1.35,0,0,0,.06.35.69.69,0,0,0,.35.42.64.64,0,0,0,.79-.21.84.84,0,0,0,.14-.37,5.19,5.19,0,0,0,.05-.68Z" transform="translate(-519 -327.03)"/><path d="M688.8,360.78h1.54l.35,0a.13.13,0,0,0,.1-.09c0-.11.06-.22.08-.33s0-.16,0-.24h.18l-.2,1.23s-2.6,0-2.67,0a.3.3,0,0,1,.07-.27c.11-.11.21-.22.31-.34l.36-.39.41-.46.34-.38a3.36,3.36,0,0,0,.52-.77,1.68,1.68,0,0,0,.19-.66,1.41,1.41,0,0,0-.12-.73.88.88,0,0,0-.59-.52,1,1,0,0,0-.88.21,1.14,1.14,0,0,0-.31.44l0,0h.1a.35.35,0,0,1,.34.22.37.37,0,0,1-.06.41.39.39,0,0,1-.27.13.54.54,0,0,1-.22-.05.36.36,0,0,1-.17-.26,1,1,0,0,1,0-.42,1.3,1.3,0,0,1,1-.95,1.45,1.45,0,0,1,.55,0,1.49,1.49,0,0,1,.58.2,1.35,1.35,0,0,1,.52.54,1.43,1.43,0,0,1,.13.49,1.23,1.23,0,0,1,0,.47,1.51,1.51,0,0,1-.29.58,3.77,3.77,0,0,1-.43.46c-.25.24-.51.47-.77.7l-.25.24-.26.25-.22.22,0,0Z" transform="translate(-519 -327.03)"/><path d="M673.43,360.82l-.3.21a2.32,2.32,0,0,1-.91.36,1.44,1.44,0,0,1-.74-.05,1.08,1.08,0,0,1-.58-.49,1.29,1.29,0,0,1-.15-.54,1.81,1.81,0,0,1,.16-.86,2.21,2.21,0,0,1,.74-.92,1.87,1.87,0,0,1,.83-.36,1.21,1.21,0,0,1,.94.25,1.19,1.19,0,0,1,.35.5,2,2,0,0,1,.11.48c0,.2,0,.41,0,.61v.05l0,0a3,3,0,0,0,.31-.48,5,5,0,0,0,.32-.75l.06-.22c0-.06,0-.07.11-.07s.07,0,.06.1a3,3,0,0,1-.11.4,4.83,4.83,0,0,1-.52,1l-.2.27a.23.23,0,0,0-.06.18,2.84,2.84,0,0,0,0,.41,1.05,1.05,0,0,0,.06.24c0,.13.12.16.25.11a.43.43,0,0,0,.25-.23.37.37,0,0,0,0-.11.1.1,0,0,1,.11-.06s.08,0,.07.1l0,.08a.7.7,0,0,1-.36.36.59.59,0,0,1-.63-.12.73.73,0,0,1-.21-.35Zm0-.89h0c0-.17,0-.35,0-.52a2.57,2.57,0,0,0,0-.4,1.19,1.19,0,0,0-.15-.41.56.56,0,0,0-.34-.26.91.91,0,0,0-.33,0,1.25,1.25,0,0,0-.54.3,1.81,1.81,0,0,0-.4.59,3.82,3.82,0,0,0-.19.6,2.74,2.74,0,0,0-.1.69,1.17,1.17,0,0,0,.08.37.55.55,0,0,0,.49.36,1.66,1.66,0,0,0,.54-.06,2.63,2.63,0,0,0,1-.53.11.11,0,0,0,0-.09c0-.1,0-.21,0-.32Z" transform="translate(-519 -327.03)"/><path d="M683,358.7h2.29a.14.14,0,0,1,.09.22.13.13,0,0,1-.09.05h-4.58a.14.14,0,0,1-.11-.13c0-.09.05-.13.11-.14H683Z" transform="translate(-519 -327.03)"/><path d="M683,360.09h2.3a.12.12,0,0,1,.1.13.12.12,0,0,1-.1.14h-4.57a.13.13,0,0,1-.11-.2.09.09,0,0,1,.07-.06l.13,0Z" transform="translate(-519 -327.03)"/><path d="M697.16,392.35l-.11,0a1.09,1.09,0,0,1-.49-.19.54.54,0,0,1-.25-.34.77.77,0,0,1,0-.15.24.24,0,0,1,.29-.24.22.22,0,0,1,.2.17.27.27,0,0,1-.09.27l-.1,0h-.05a.1.1,0,0,0,0,.05.59.59,0,0,0,.29.18,1.1,1.1,0,0,0,.44.07.54.54,0,0,0,.49-.36,1,1,0,0,0,.05-.41.81.81,0,0,0-.08-.34.52.52,0,0,0-.42-.29H697a.07.07,0,0,1-.07-.06s0-.06.07-.07h.19l.17,0a.55.55,0,0,0,.33-.27.87.87,0,0,0,.1-.47.42.42,0,0,0-.18-.34.38.38,0,0,0-.23-.08.89.89,0,0,0-.55.12.33.33,0,0,0-.13.11l.07,0a.22.22,0,0,1,.15.23.22.22,0,0,1-.18.21.27.27,0,0,1-.23-.07.21.21,0,0,1-.05-.13.47.47,0,0,1,.11-.34.77.77,0,0,1,.36-.23,1.48,1.48,0,0,1,.87,0,.77.77,0,0,1,.31.22.47.47,0,0,1,.1.41.77.77,0,0,1-.39.55l-.17.09,0,0,.19.06a.93.93,0,0,1,.33.21.72.72,0,0,1,.22.43.63.63,0,0,1-.11.48.93.93,0,0,1-.52.39,1.1,1.1,0,0,1-.26.06h-.27Z" transform="translate(-519 -327.03)"/><path d="M694.64,390.9l-.12.08a2.21,2.21,0,0,1-.72.36,1.28,1.28,0,0,1-.34.07h-.23a.93.93,0,0,1-.64-.27,1,1,0,0,1-.29-.61,1.1,1.1,0,0,1,0-.18,2.13,2.13,0,0,1,.07-.44,1.93,1.93,0,0,1,.41-.74,1.89,1.89,0,0,1,.6-.45,1.49,1.49,0,0,1,.52-.15,1.08,1.08,0,0,1,.53.08,1,1,0,0,1,.45.41,1.63,1.63,0,0,1,.16.47,3.85,3.85,0,0,1,0,.48v.23l0,0a2.6,2.6,0,0,0,.28-.45,4.89,4.89,0,0,0,.3-.75s0-.06,0-.08.06-.05.1,0,.06,0,.05.08-.06.22-.1.33a3.74,3.74,0,0,1-.56,1l-.09.12a.18.18,0,0,0,0,.1,2.69,2.69,0,0,0,0,.49.88.88,0,0,0,0,.15.13.13,0,0,0,.18.07.39.39,0,0,0,.25-.2l0-.1s0,0,.06,0,.11,0,.09.09a.48.48,0,0,1-.09.19.61.61,0,0,1-.28.2.52.52,0,0,1-.53-.12.75.75,0,0,1-.18-.31l0,0Zm0-.63c0-.17,0-.32,0-.48a2.28,2.28,0,0,0,0-.45.92.92,0,0,0-.14-.39.47.47,0,0,0-.25-.21.65.65,0,0,0-.34,0,1,1,0,0,0-.47.27,1.54,1.54,0,0,0-.34.49,3.88,3.88,0,0,0-.26,1,1.09,1.09,0,0,0,0,.44.5.5,0,0,0,.45.35,1.47,1.47,0,0,0,.55-.08,2.34,2.34,0,0,0,.74-.41s.08-.07.06-.14h0Z" transform="translate(-519 -327.03)"/><path d="M708.15,389.9a1.17,1.17,0,0,0,0,.2c0,.12,0,.25-.05.37a1.08,1.08,0,0,0,.08.5.46.46,0,0,0,.36.3h.24a1.73,1.73,0,0,0,.46-.12,1.56,1.56,0,0,0,.46-.29,1.31,1.31,0,0,0,.23-.24.07.07,0,0,1,.13,0,0,0,0,0,1,0,.06.83.83,0,0,1-.11.15,1.79,1.79,0,0,1-.89.52,2.32,2.32,0,0,1-.38.05,1.14,1.14,0,0,1-.41-.07.92.92,0,0,1-.47-.44,1,1,0,0,1-.14-.49,1.52,1.52,0,0,1,.08-.7,1.69,1.69,0,0,1,.4-.65,1.85,1.85,0,0,1,.84-.47,1.58,1.58,0,0,1,.38,0,.72.72,0,0,1,.44.16.5.5,0,0,1,.18.44.72.72,0,0,1-.41.56,1.46,1.46,0,0,1-.37.12l-.42.05h-.57Zm0-.15h.57a2.5,2.5,0,0,0,.38-.06.89.89,0,0,0,.37-.17.46.46,0,0,0,.19-.46.35.35,0,0,0-.22-.3.62.62,0,0,0-.38,0,1.12,1.12,0,0,0-.62.4,1.67,1.67,0,0,0-.29.6Z" transform="translate(-519 -327.03)"/><path d="M718.32,389.15l-.14-.08a.61.61,0,0,1-.2-.19.44.44,0,0,1,0-.48.6.6,0,0,1,.32-.24,1,1,0,0,1,.24-.05,1.09,1.09,0,0,1,.44.06.68.68,0,0,1,.23.14.39.39,0,0,1,0,.51.52.52,0,0,1-.19.17l-.15.08.06,0a1,1,0,0,1,.28.18.5.5,0,0,1,.07.72.83.83,0,0,1-.4.24,1.26,1.26,0,0,1-.77-.05.74.74,0,0,1-.25-.17.48.48,0,0,1,0-.6.88.88,0,0,1,.24-.19Zm.26,1a.74.74,0,0,0,.26,0,.51.51,0,0,0,.27-.12.25.25,0,0,0,0-.41l-.12-.09-.45-.23a.21.21,0,0,0-.1,0s-.07,0-.11,0a1,1,0,0,0-.25.21.38.38,0,0,0,.09.54A.78.78,0,0,0,718.58,390.14Zm0-1.91a.93.93,0,0,0-.29,0,.39.39,0,0,0-.16.1.21.21,0,0,0,0,.27.27.27,0,0,0,.12.09l.21.11.26.13s0,0,0,0a.7.7,0,0,0,.26-.19.3.3,0,0,0,.06-.3.35.35,0,0,0-.17-.19A.64.64,0,0,0,718.62,388.23Z" transform="translate(-519 -327.03)"/><path d="M714.5,389.43a.44.44,0,0,0,.3,0,.66.66,0,0,0,.29-.26,1.14,1.14,0,0,0,.15-.36c.09-.4.19-.79.29-1.18,0-.13.07-.27.1-.4a.53.53,0,0,0,0-.25.12.12,0,0,0-.14-.11.45.45,0,0,0-.27.1.94.94,0,0,0-.27.32s-.05.09-.07.14a.09.09,0,0,1-.13,0,0,0,0,0,1,0-.06l.08-.17a1.1,1.1,0,0,1,.32-.36.62.62,0,0,1,.42-.13.44.44,0,0,1,.38.23.32.32,0,0,1,0,.23,2.21,2.21,0,0,1-.08.35c-.08.34-.17.67-.25,1l-.11.41a.88.88,0,0,1-.38.47.93.93,0,0,1-.45.15.7.7,0,0,1-.35-.05.26.26,0,0,1-.16-.18.25.25,0,0,1,.29-.3.16.16,0,0,1,.14.17.25.25,0,0,1-.11.19Z" transform="translate(-519 -327.03)"/><path d="M703.06,389h2a.11.11,0,0,1,.1.11c0,.07,0,.11-.1.12h-4a.11.11,0,0,1-.1-.11c0-.07,0-.12.1-.12h2Z" transform="translate(-519 -327.03)"/><path d="M703.07,390.51h-2a.11.11,0,0,1-.1-.09.12.12,0,0,1,0-.13l.07,0h4a.12.12,0,0,1,.08.11c0,.06,0,.1-.07.11a.3.3,0,0,1-.13,0h-1.9Z" transform="translate(-519 -327.03)"/><path d="M718.33,385.9h-.25a.54.54,0,0,0-.22.05.45.45,0,0,0-.19.15.1.1,0,0,1-.09,0c-.05,0-.06,0,0-.07l0-.05a1.05,1.05,0,0,1,.23-.24.61.61,0,0,1,.37-.12h1.4a.09.09,0,0,1,.07.14.12.12,0,0,1-.14.1H719a.06.06,0,0,0,0,0c0,.11,0,.21,0,.32a1,1,0,0,0,.15.56.12.12,0,0,1,0,.15.15.15,0,0,1-.15.08s-.06,0-.07,0a.41.41,0,0,1-.07-.11,1.14,1.14,0,0,1-.07-.41,3,3,0,0,1,.09-.54v-.05h-.4a.06.06,0,0,0,0,0c-.08.27-.15.54-.23.81a.72.72,0,0,1-.08.22.15.15,0,0,1-.15.08.12.12,0,0,1-.1-.16l.08-.15a4.56,4.56,0,0,0,.34-.82Z" transform="translate(-519 -327.03)"/><path d="M712.23,387.69H710.8a.08.08,0,0,1-.06-.09c0-.07,0-.1.1-.11h2.82a.11.11,0,0,1,.08.09.1.1,0,0,1-.07.11h-1.44Z" transform="translate(-519 -327.03)"/><path d="M717.24,387.7v-.22H720v.22Z" transform="translate(-519 -327.03)"/><path d="M715.91,386.18a.17.17,0,0,1-.16-.26.25.25,0,0,1,.18-.15.17.17,0,0,1,.22.15.14.14,0,0,1,0,.09A.27.27,0,0,1,715.91,386.18Z" transform="translate(-519 -327.03)"/><path d="M627.24,391.78h-.1a1,1,0,0,1-.48-.2.54.54,0,0,1-.2-.31.71.71,0,0,1,0-.15.23.23,0,0,1,.28-.18.21.21,0,0,1,.17.22.21.21,0,0,1-.17.22h-.06a.37.37,0,0,0,.15.13.82.82,0,0,0,.38.13h.19a.48.48,0,0,0,.44-.34,1.57,1.57,0,0,0,0-.23,1,1,0,0,0,0-.34.5.5,0,0,0-.31-.34l-.18,0h-.29a0,0,0,0,1,0-.05s0-.05,0-.06h.19a.87.87,0,0,0,.22-.05.47.47,0,0,0,.22-.22.74.74,0,0,0,.1-.44.38.38,0,0,0-.17-.3.43.43,0,0,0-.25-.07.85.85,0,0,0-.39.08.54.54,0,0,0-.16.1l0,0h0a.21.21,0,0,1,.15.27.22.22,0,0,1-.26.14.2.2,0,0,1-.15-.24.38.38,0,0,1,.12-.27.51.51,0,0,1,.21-.15,1.1,1.1,0,0,1,.39-.09,1.24,1.24,0,0,1,.43,0,.79.79,0,0,1,.36.24.45.45,0,0,1,.09.34.66.66,0,0,1-.16.35.88.88,0,0,1-.33.24l-.07,0,.12,0a1,1,0,0,1,.36.22.68.68,0,0,1,.21.41.65.65,0,0,1-.11.41.84.84,0,0,1-.52.38l-.2,0h-.24Z" transform="translate(-519 -327.03)"/><path d="M621.35,390.46l-.15.11a2,2,0,0,1-.61.3,1.65,1.65,0,0,1-.32.06,1.09,1.09,0,0,1-.36,0,.85.85,0,0,1-.59-.45,1.1,1.1,0,0,1-.11-.44,1.43,1.43,0,0,1,.13-.65,1.83,1.83,0,0,1,.45-.62,1.4,1.4,0,0,1,.64-.36,1,1,0,0,1,.38-.05.85.85,0,0,1,.56.23,1,1,0,0,1,.29.49,1.27,1.27,0,0,1,.05.34c0,.14,0,.28,0,.42v0h0l.07-.11a3.13,3.13,0,0,0,.4-.77l.09-.28v0c0-.05.05-.06.1,0s0,0,0,.05a.15.15,0,0,1,0,.07,3.62,3.62,0,0,1-.2.55,2.88,2.88,0,0,1-.39.65l-.08.1a.19.19,0,0,0,0,.1,1.79,1.79,0,0,0,0,.4.83.83,0,0,0,0,.15s0,0,0,0a.13.13,0,0,0,.16.06.33.33,0,0,0,.19-.14.61.61,0,0,0,.07-.14s0-.06.1,0a.06.06,0,0,1,.05.06.06.06,0,0,1,0,0,.52.52,0,0,1-.42.36.46.46,0,0,1-.47-.22,1.36,1.36,0,0,1-.1-.21Zm0-.57c0-.15,0-.29,0-.43a3,3,0,0,0,0-.42.93.93,0,0,0-.13-.35.4.4,0,0,0-.28-.21.53.53,0,0,0-.25,0,1,1,0,0,0-.43.24,1.41,1.41,0,0,0-.33.5,3.27,3.27,0,0,0-.22.87.9.9,0,0,0,.05.4.44.44,0,0,0,.41.31,1.07,1.07,0,0,0,.5-.07,1.94,1.94,0,0,0,.67-.38s.07-.06.05-.11v-.35Z" transform="translate(-519 -327.03)"/><path d="M637.24,389.55a1.06,1.06,0,0,0,0,.19c0,.11,0,.22-.05.34a1,1,0,0,0,.07.45.45.45,0,0,0,.33.27h.22a1.3,1.3,0,0,0,.43-.11,1.36,1.36,0,0,0,.41-.26,1,1,0,0,0,.2-.22.07.07,0,0,1,.12,0,.06.06,0,0,1,0,.06,1.13,1.13,0,0,1-.1.13,1.67,1.67,0,0,1-.81.47,2.11,2.11,0,0,1-.35.05,1,1,0,0,1-.38-.07.82.82,0,0,1-.43-.39,1.16,1.16,0,0,1-.12-.45,1.54,1.54,0,0,1,.07-.64,1.56,1.56,0,0,1,1.13-1,1,1,0,0,1,.34,0,.69.69,0,0,1,.41.15.42.42,0,0,1,.16.39.64.64,0,0,1-.37.51,1.07,1.07,0,0,1-.33.11,2.58,2.58,0,0,1-.39,0h-.52Zm0-.13h.52l.36-.06a.78.78,0,0,0,.32-.15.43.43,0,0,0,.18-.41.36.36,0,0,0-.21-.28.56.56,0,0,0-.34,0,1,1,0,0,0-.57.37,1.8,1.8,0,0,0-.26.54Z" transform="translate(-519 -327.03)"/><path d="M642.9,388.87l-.12-.07a.59.59,0,0,1-.18-.17.41.41,0,0,1,0-.44.61.61,0,0,1,.3-.22l.22,0a1.1,1.1,0,0,1,.4.05.8.8,0,0,1,.21.13.36.36,0,0,1,0,.46.44.44,0,0,1-.17.16l-.14.07.06,0a1,1,0,0,1,.25.16.47.47,0,0,1,.16.27.44.44,0,0,1-.1.38.63.63,0,0,1-.36.22,1.11,1.11,0,0,1-.7,0,.63.63,0,0,1-.23-.16.44.44,0,0,1,0-.54,1,1,0,0,1,.22-.18Zm.24.91a1,1,0,0,0,.24,0,.53.53,0,0,0,.24-.11.23.23,0,0,0,0-.38.3.3,0,0,0-.1-.07l-.41-.22s-.07,0-.1,0-.06,0-.09.05a.58.58,0,0,0-.23.18.34.34,0,0,0,.08.49A.62.62,0,0,0,643.14,389.78Zm-.42-1.48a.23.23,0,0,0,0,.11.39.39,0,0,0,.1.08l.45.23h0a.72.72,0,0,0,.24-.18.28.28,0,0,0,0-.37.37.37,0,0,0-.19-.11.73.73,0,0,0-.36,0,.9.9,0,0,0-.21.08A.22.22,0,0,0,642.72,388.3Z" transform="translate(-519 -327.03)"/><path d="M639.42,389.13a.45.45,0,0,0,.28,0,.69.69,0,0,0,.27-.24,1,1,0,0,0,.13-.33l.27-1.07.09-.37a.59.59,0,0,0,0-.23.11.11,0,0,0-.13-.09.4.4,0,0,0-.25.09.76.76,0,0,0-.24.29.54.54,0,0,0-.07.13s-.08.05-.11,0,0,0,0-.06a.69.69,0,0,1,.07-.15,1,1,0,0,1,.29-.33.58.58,0,0,1,.38-.12.42.42,0,0,1,.35.2.34.34,0,0,1,0,.22,1.83,1.83,0,0,1-.07.32c-.07.3-.15.6-.23.91,0,.12-.06.25-.1.37a.77.77,0,0,1-.34.43,1.05,1.05,0,0,1-.41.14.7.7,0,0,1-.32,0,.25.25,0,0,1-.14-.16.23.23,0,0,1,.26-.28.13.13,0,0,1,.12.15.2.2,0,0,1-.09.18Z" transform="translate(-519 -327.03)"/><path d="M632.62,388.77h1.82a.1.1,0,0,1,.07.17.08.08,0,0,1-.06,0h-3.68a.11.11,0,0,1-.07-.11c0-.05,0-.09.08-.1h1.84Z" transform="translate(-519 -327.03)"/><path d="M632.62,389.88h1.83a.1.1,0,0,1,.08.1c0,.06,0,.1-.07.11h-3.67a.09.09,0,0,1-.08-.08s0-.09,0-.11,0,0,.06,0h1.81Z" transform="translate(-519 -327.03)"/><path d="M643.54,385.91c0,.09,0,.16,0,.24a.88.88,0,0,0,0,.36.87.87,0,0,0,.1.24.14.14,0,0,1-.11.21.12.12,0,0,1-.09,0,.27.27,0,0,1-.06-.1.84.84,0,0,1-.06-.38,2.64,2.64,0,0,1,.08-.49s0,0,0,0h-.37c0,.05,0,.1,0,.16-.06.23-.12.46-.19.69a.42.42,0,0,1-.06.14.11.11,0,0,1-.12,0,.11.11,0,0,1-.1-.15s.05-.08.07-.13a3.73,3.73,0,0,0,.31-.74h-.24a.5.5,0,0,0-.35.16s0,0,0,0a.08.08,0,0,1-.1,0s0,0,0,0l0,0a1.26,1.26,0,0,1,.22-.24.58.58,0,0,1,.34-.11H644a.09.09,0,0,1,.07.13.13.13,0,0,1-.13.08h-.44Z" transform="translate(-519 -327.03)"/><path d="M624.43,390.8h-1.29a.1.1,0,0,1-.07-.1.08.08,0,0,1,.07-.08h2.58a.09.09,0,0,1,.08.09.09.09,0,0,1-.07.1h-1.3Z" transform="translate(-519 -327.03)"/><path d="M641.93,387.56v-.2h2.48v.21Z" transform="translate(-519 -327.03)"/><path d="M640.55,386a.21.21,0,0,1,.12-.19.16.16,0,0,1,.15,0,.15.15,0,0,1,.11.18.26.26,0,0,1-.24.19A.15.15,0,0,1,640.55,386Z" transform="translate(-519 -327.03)"/><path d="M756.66,407.53v0a.24.24,0,0,1,.08-.22l1.12-1.25a2.48,2.48,0,0,0,.4-.56,1.34,1.34,0,0,0,.19-.55,1.12,1.12,0,0,0-.13-.74.69.69,0,0,0-.46-.35.78.78,0,0,0-.76.24.75.75,0,0,0-.18.28l0,0H757a.3.3,0,0,1,.26.45.27.27,0,0,1-.22.16h-.12a.27.27,0,0,1-.23-.27.91.91,0,0,1,.13-.56,1,1,0,0,1,.75-.52,1.3,1.3,0,0,1,1,.25,1,1,0,0,1,.4.69,1.13,1.13,0,0,1-.2.84,3.22,3.22,0,0,1-.39.43l-.67.61-.31.3-.24.24,0,0s0,0,0,0h1.16a1.37,1.37,0,0,0,.29,0h0a.07.07,0,0,0,.06,0s0-.08,0-.12a2.56,2.56,0,0,0,.05-.27l0-.1H759c0,.05,0,.09,0,.13,0,.27-.09.55-.13.82l0,.08Z" transform="translate(-519 -327.03)"/><path d="M743.91,403.08l-.07.05a2.6,2.6,0,0,1-.45.28,1.73,1.73,0,0,1-.7.15,1,1,0,0,1-.38-.06.89.89,0,0,1-.53-.59,1.26,1.26,0,0,1,0-.72,1.77,1.77,0,0,1,.45-.77,1.74,1.74,0,0,1,.59-.41,1.18,1.18,0,0,1,.49-.09.9.9,0,0,1,.84.54,1.27,1.27,0,0,1,.12.51c0,.13,0,.26,0,.39s0,.06,0,.08,0,0,0,0a2.43,2.43,0,0,0,.29-.49,2.85,2.85,0,0,0,.25-.63s0,0,0,0a.07.07,0,0,1,.09-.05.06.06,0,0,1,0,.06s0,.06,0,.09a3.68,3.68,0,0,1-.45,1,2.83,2.83,0,0,1-.2.28.33.33,0,0,0-.06.19,1.71,1.71,0,0,0,0,.39.38.38,0,0,0,0,.15.12.12,0,0,0,.14.07.38.38,0,0,0,.21-.14l.06-.12a.08.08,0,0,0,0,0,.08.08,0,0,1,.11,0,0,0,0,0,1,0,0,.13.13,0,0,1,0,.06.56.56,0,0,1-.32.32.47.47,0,0,1-.5-.1.65.65,0,0,1-.17-.26Zm0-.16v-.05c0-.06,0-.13,0-.19V402a1.88,1.88,0,0,0-.07-.53.88.88,0,0,0-.11-.24.48.48,0,0,0-.37-.2.67.67,0,0,0-.31.07,1,1,0,0,0-.35.25,1.46,1.46,0,0,0-.28.46,3.25,3.25,0,0,0-.2.74.82.82,0,0,0,0,.27.67.67,0,0,0,.07.31.44.44,0,0,0,.36.27.86.86,0,0,0,.32,0,1.74,1.74,0,0,0,.54-.19A1.84,1.84,0,0,0,743.89,402.92Z" transform="translate(-519 -327.03)"/><path d="M756.88,396.22v-.17a.12.12,0,0,1,.08,0,2.09,2.09,0,0,0,.5-.08,1.13,1.13,0,0,0,.45-.26.11.11,0,0,1,.09,0s.08,0,.08.09v3.33s0,.08,0,.11a.16.16,0,0,0,.11.14.76.76,0,0,0,.21,0h.4a.49.49,0,0,1,0,.17h-1.9s0-.06,0-.09,0-.06,0-.09h.36l.19,0h0a.16.16,0,0,0,.13-.17s0,0,0-.06c0-1,0-2,0-2.92v-.1l-.18.07-.19,0-.19,0Z" transform="translate(-519 -327.03)"/><path d="M760.74,402.15a2.53,2.53,0,0,0-.07.38,1.23,1.23,0,0,0,0,.27.84.84,0,0,0,.07.35.48.48,0,0,0,.28.26l.15,0a1.54,1.54,0,0,0,1.17-.57l0-.05a.05.05,0,0,1,.08,0s0,.05,0,.09l-.09.12a1.67,1.67,0,0,1-1,.51,1.22,1.22,0,0,1-.33,0,.84.84,0,0,1-.72-.46,1.26,1.26,0,0,1-.13-.43,1.61,1.61,0,0,1,.12-.81,1.7,1.7,0,0,1,1.16-.92,1,1,0,0,1,.49,0,.53.53,0,0,1,.28.18.45.45,0,0,1,.09.43.66.66,0,0,1-.25.36,1,1,0,0,1-.37.16,2.68,2.68,0,0,1-.56.07h-.45Zm0-.13h.44a2.34,2.34,0,0,0,.45-.07.84.84,0,0,0,.33-.16.46.46,0,0,0,.17-.28.37.37,0,0,0-.26-.44.66.66,0,0,0-.28,0,1,1,0,0,0-.57.35,1.52,1.52,0,0,0-.28.57Z" transform="translate(-519 -327.03)"/><path d="M747.08,402.07h-1.26a.08.08,0,0,0-.09.06c0,.05,0,.1-.05.16l0,.15h-.13c0-.29.09-.57.13-.85a.33.33,0,0,1,.14,0,.13.13,0,0,0,.05.07.11.11,0,0,0,.08,0l.45,0h1.09a.22.22,0,0,1,0,.17c-.19.23-.38.48-.58.71a1.64,1.64,0,0,0-.31.7,2.42,2.42,0,0,0,0,.47c0,.13,0,.25,0,.37a.49.49,0,0,1,0,.12.19.19,0,0,1-.29.14.14.14,0,0,1-.08-.09.37.37,0,0,1,0-.11,2,2,0,0,1,.09-.64,2.9,2.9,0,0,1,.52-1l.34-.42Z" transform="translate(-519 -327.03)"/><path d="M768.3,400.74a.35.35,0,0,0-.17-.06.62.62,0,0,0-.66.42.84.84,0,0,0-.05.2c0,.07,0,.14,0,.2s0,0,0,0a.27.27,0,0,1,.07-.08.56.56,0,0,1,.48-.15.72.72,0,0,1,.5.29.62.62,0,0,1,.12.43.66.66,0,0,1-.19.38.8.8,0,0,1-.83.17.66.66,0,0,1-.41-.42.89.89,0,0,1-.08-.33,1.16,1.16,0,0,1,0-.49.94.94,0,0,1,.72-.7.7.7,0,0,1,.43,0,.51.51,0,0,1,.16.09.29.29,0,0,1,.07.25.15.15,0,0,1-.3,0,.16.16,0,0,1,.06-.16S768.3,400.77,768.3,400.74Zm0,1.17h0a.4.4,0,0,0,0-.11.39.39,0,0,0,0-.15.36.36,0,0,0-.26-.27.45.45,0,0,0-.58.34.81.81,0,0,0,0,.31.58.58,0,0,0,.08.22.33.33,0,0,0,.22.18.51.51,0,0,0,.3,0,.39.39,0,0,0,.27-.36A.85.85,0,0,0,768.29,401.91Z" transform="translate(-519 -327.03)"/><path d="M763,401.8a.41.41,0,0,0,.22,0,.53.53,0,0,0,.29-.2.92.92,0,0,0,.14-.28c0-.21.1-.42.16-.63s.15-.62.23-.93a.45.45,0,0,0,0-.2.13.13,0,0,0,0-.06.11.11,0,0,0-.11-.08.19.19,0,0,0-.13,0,.53.53,0,0,0-.23.16,1.07,1.07,0,0,0-.19.28l0,.06s-.06.05-.11,0a0,0,0,0,1,0-.05s0,0,0-.06a1.1,1.1,0,0,1,.34-.43.53.53,0,0,1,.38-.13.45.45,0,0,1,.16,0,.37.37,0,0,1,.25.46c0,.11-.05.21-.08.32-.09.38-.19.76-.28,1.14a1,1,0,0,1-.17.35.91.91,0,0,1-.53.32,1,1,0,0,1-.34,0,.48.48,0,0,1-.16-.08.22.22,0,0,1,0-.27.23.23,0,0,1,.26-.13.16.16,0,0,1,.11.17.23.23,0,0,1-.07.14Z" transform="translate(-519 -327.03)"/><path d="M765.59,400.11a.61.61,0,0,1,0-.19h4.57a1.21,1.21,0,0,1,0,.19h-4.57Z" transform="translate(-519 -327.03)"/><path d="M766.17,397.88v.49s0,0,.06,0a.74.74,0,0,1,.68,0,.6.6,0,0,1,.39.48.54.54,0,0,1-.08.39.77.77,0,0,1-.28.26.92.92,0,0,1-.67.06.59.59,0,0,1-.29-.18.46.46,0,0,1-.13-.29.07.07,0,0,1,0-.05.14.14,0,0,1,.12-.14.16.16,0,0,1,.17.06.17.17,0,0,1-.06.25l-.06,0a.34.34,0,0,0,.14.15.65.65,0,0,0,.38.09A.43.43,0,0,0,767,399a1.15,1.15,0,0,0,0-.37.37.37,0,0,0-.2-.27l-.15,0a.5.5,0,0,0-.35.09.87.87,0,0,0-.11.09l0,0a.05.05,0,0,1-.09,0v-.89a.22.22,0,0,1,0-.08s0,0,0,0l.07,0a1.51,1.51,0,0,0,.48.07,1.55,1.55,0,0,0,.43-.07l.05,0s.07,0,0,.06a0,0,0,0,1,0,0l0,0a.94.94,0,0,1-.62.24,1.23,1.23,0,0,1-.27,0Z" transform="translate(-519 -327.03)"/><path d="M751.73,402.49h1.85a.11.11,0,0,1,.09.15.09.09,0,0,1-.06.06h-3.75a.11.11,0,0,1-.08-.13.12.12,0,0,1,.06-.08h1.89Z" transform="translate(-519 -327.03)"/><path d="M751.73,401.36h1.85a.11.11,0,0,1,.09.15.11.11,0,0,1-.06.07h-3.75a.1.1,0,0,1-.08-.11.11.11,0,0,1,.09-.11h1.86Z" transform="translate(-519 -327.03)"/><path d="M756.36,402.17a1.31,1.31,0,0,1,0-.28h2.94a.8.8,0,0,1,0,.28h-2.95Z" transform="translate(-519 -327.03)"/><path d="M769.07,398.45h-.36l0,.07-.18.68-.06.16a.25.25,0,0,1,0,.09.18.18,0,0,1-.07.05.09.09,0,0,1-.13,0,.09.09,0,0,1,0-.12.16.16,0,0,1,0-.07,4.22,4.22,0,0,0,.32-.76s0,0,0-.07h0a1.08,1.08,0,0,0-.31,0,.42.42,0,0,0-.27.16l0,0s0,0-.07,0-.06,0,0-.07,0,0,0,0a1.15,1.15,0,0,1,.27-.27.53.53,0,0,1,.3-.09h1.3a.09.09,0,0,1,.08.11.13.13,0,0,1-.14.11h-.44a1.27,1.27,0,0,0,0,.34,1,1,0,0,0,.07.34.89.89,0,0,0,.08.17.14.14,0,0,1-.12.21.08.08,0,0,1-.08,0,.36.36,0,0,1-.07-.1.88.88,0,0,1-.06-.28,1.6,1.6,0,0,1,0-.44C769,398.6,769.06,398.53,769.07,398.45Z" transform="translate(-519 -327.03)"/><path d="M764.27,398.77a.15.15,0,0,1-.15-.2.22.22,0,0,1,.25-.17.15.15,0,0,1,.13.18A.23.23,0,0,1,764.27,398.77Z" transform="translate(-519 -327.03)"/><path d="M584.52,408a.27.27,0,0,1,.06-.26l1.22-1.35a3,3,0,0,0,.42-.59,1.61,1.61,0,0,0,.19-.5,1.29,1.29,0,0,0-.08-.8.82.82,0,0,0-.32-.37.79.79,0,0,0-.76,0,.88.88,0,0,0-.47.51s0,0,0,0h.08a.33.33,0,0,1,0,.65.41.41,0,0,1-.19,0,.3.3,0,0,1-.19-.22.86.86,0,0,1,0-.32,1.14,1.14,0,0,1,.92-.89,1.36,1.36,0,0,1,1.09.24,1.1,1.1,0,0,1,.47.81,1.2,1.2,0,0,1-.08.59,1.38,1.38,0,0,1-.2.33,4.48,4.48,0,0,1-.36.4l-.67.61-.38.36-.26.25,0,0s0,0,0,0h1.59a.09.09,0,0,0,.09-.07l.06-.22a1.18,1.18,0,0,0,0-.2.24.24,0,0,1,0-.08H587a.69.69,0,0,1,0,.13c0,.28-.09.57-.14.86,0,0,0,.07,0,.11Z" transform="translate(-519 -327.03)"/><path d="M567,403.19l-.09.06a2.42,2.42,0,0,1-.63.35,1.7,1.7,0,0,1-.59.1.94.94,0,0,1-.54-.13,1,1,0,0,1-.45-.64,1.25,1.25,0,0,1,0-.69,1.93,1.93,0,0,1,.48-.83,2,2,0,0,1,.43-.34,1.57,1.57,0,0,1,.59-.19,1,1,0,0,1,.81.26.91.91,0,0,1,.28.46,1.59,1.59,0,0,1,.08.53v.33a.07.07,0,0,0,0,.06l0-.07a3.48,3.48,0,0,0,.38-.68,4.59,4.59,0,0,0,.17-.48.64.64,0,0,0,0-.07.08.08,0,0,1,.12,0,0,0,0,0,1,0,.05.3.3,0,0,1,0,.1,3.5,3.5,0,0,1-.48,1.06c-.06.1-.14.2-.21.3a.24.24,0,0,0-.07.18,3,3,0,0,0,0,.43.44.44,0,0,0,.06.16.12.12,0,0,0,.15.08.35.35,0,0,0,.22-.15.54.54,0,0,0,.07-.13l0,0a.09.09,0,0,1,.11,0s0,0,0,0a.19.19,0,0,1,0,.08.63.63,0,0,1-.31.33.52.52,0,0,1-.56-.09.68.68,0,0,1-.18-.29Zm0-.17a2.53,2.53,0,0,1,0-.27c0-.23,0-.47,0-.71a2.08,2.08,0,0,0-.07-.55.88.88,0,0,0-.12-.26.44.44,0,0,0-.31-.2.49.49,0,0,0-.24,0,.83.83,0,0,0-.36.16,1.38,1.38,0,0,0-.43.53,2.67,2.67,0,0,0-.14.36,3.93,3.93,0,0,0-.15.68,1.09,1.09,0,0,0,0,.44.5.5,0,0,0,.5.36,1.84,1.84,0,0,0,.41-.05A2.32,2.32,0,0,0,566.94,403Z" transform="translate(-519 -327.03)"/><path d="M586.82,399.22a.54.54,0,0,1,0,.18h0c-.66,0-1.33,0-2,0a.15.15,0,0,1,0-.09v-.1h.4l.19,0h0a.17.17,0,0,0,.15-.2V395.7a1.59,1.59,0,0,0-.2.07l-.2.05-.2,0h-.21v-.18a.09.09,0,0,1,.08,0,1.68,1.68,0,0,0,.5-.07,1.34,1.34,0,0,0,.52-.29.13.13,0,0,1,.13,0,.06.06,0,0,1,0,.06v3.59a.28.28,0,0,0,0,.09.17.17,0,0,0,.13.18l.24,0h.4Z" transform="translate(-519 -327.03)"/><path d="M588.88,402.2c0,.07,0,.14,0,.2a1.77,1.77,0,0,0-.05.56,1,1,0,0,0,.09.33.48.48,0,0,0,.29.25l.15,0a1.59,1.59,0,0,0,.85-.25,1.38,1.38,0,0,0,.4-.36l0-.05a.06.06,0,0,1,.08,0s0,.05,0,.08a.41.41,0,0,1-.05.09,1.59,1.59,0,0,1-.41.36,1.73,1.73,0,0,1-.73.26,1.24,1.24,0,0,1-.43,0,.88.88,0,0,1-.61-.43,1.14,1.14,0,0,1-.16-.47,1.69,1.69,0,0,1,.13-.89,1.67,1.67,0,0,1,.73-.8,1.61,1.61,0,0,1,.64-.21.92.92,0,0,1,.52.08l.11.08a.47.47,0,0,1,.16.5.73.73,0,0,1-.35.46,1.48,1.48,0,0,1-.42.14,4.48,4.48,0,0,1-.64.06h-.34Zm0-.15h.48a2.65,2.65,0,0,0,.48-.07,1.26,1.26,0,0,0,.35-.17.51.51,0,0,0,.19-.33.39.39,0,0,0-.24-.43.66.66,0,0,0-.34,0,1,1,0,0,0-.62.38,1.63,1.63,0,0,0-.29.59S588.94,402,588.93,402.05Z" transform="translate(-519 -327.03)"/><path d="M574.27,402.1H573c-.11,0-.12,0-.16.13a.94.94,0,0,0,0,.16l0,.11a.22.22,0,0,1-.14,0v-.05l.15-.87h.14s0,0,0,0a.08.08,0,0,0,.08.07l.11,0,.41,0h1.17a.25.25,0,0,1,0,.19c-.21.26-.41.52-.62.77a1.53,1.53,0,0,0-.3.63,2.78,2.78,0,0,0-.08.49c0,.18,0,.35,0,.52a.49.49,0,0,1,0,.12c0,.13-.09.17-.17.17a.19.19,0,0,1-.24-.18,1.34,1.34,0,0,1,0-.2,2.87,2.87,0,0,1,.17-.77,3.33,3.33,0,0,1,.48-.84l.34-.41S574.24,402.15,574.27,402.1Z" transform="translate(-519 -327.03)"/><path d="M600.91,400.69a.4.4,0,0,0-.2-.07.66.66,0,0,0-.69.41,1,1,0,0,0-.08.47s0,0,0,0a1,1,0,0,1,.15-.14.66.66,0,0,1,.43-.1.82.82,0,0,1,.56.33.52.52,0,0,1,.11.32,1.09,1.09,0,0,1,0,.18.6.6,0,0,1-.18.33.83.83,0,0,1-.74.24.7.7,0,0,1-.57-.44,1.14,1.14,0,0,1-.11-.37,1.78,1.78,0,0,1,0-.4,1.06,1.06,0,0,1,.79-.91.94.94,0,0,1,.47,0,.42.42,0,0,1,.18.11.35.35,0,0,1,.08.24.16.16,0,0,1-.15.15.17.17,0,0,1-.17-.09.18.18,0,0,1,0-.2Zm0,1.25a1,1,0,0,0,0-.24.39.39,0,0,0-.28-.33.48.48,0,0,0-.63.38.87.87,0,0,0,0,.36,1.07,1.07,0,0,0,.07.19.45.45,0,0,0,.29.21.5.5,0,0,0,.21,0,.41.41,0,0,0,.35-.35A1.48,1.48,0,0,0,600.89,401.94Z" transform="translate(-519 -327.03)"/><path d="M595.2,401.81l.06,0a.47.47,0,0,0,.39-.13.85.85,0,0,0,.25-.44c.05-.2.11-.41.16-.62s.16-.66.25-1c0,0,0-.09,0-.13a.37.37,0,0,0,0-.15.13.13,0,0,0-.13-.1.51.51,0,0,0-.17,0,.83.83,0,0,0-.21.16,1.25,1.25,0,0,0-.21.3l0,.07a.07.07,0,0,1-.07,0c-.06,0-.08,0-.07-.09s0,0,0,0a1.16,1.16,0,0,1,.36-.46.63.63,0,0,1,.4-.14l.15,0a.4.4,0,0,1,.29.51c0,.16-.08.31-.12.47l-.27,1.07a.87.87,0,0,1-.17.38,1,1,0,0,1-.57.34.77.77,0,0,1-.37,0,.33.33,0,0,1-.16-.07.23.23,0,0,1-.06-.3.24.24,0,0,1,.27-.14.16.16,0,0,1,.12.15.21.21,0,0,1-.07.18Z" transform="translate(-519 -327.03)"/><path d="M602.88,399.8V400H598a.41.41,0,0,1,0-.11v-.11h4.9Z" transform="translate(-519 -327.03)"/><path d="M598.62,397.63a4.68,4.68,0,0,0,0,.53l0,0a.82.82,0,0,1,.73,0,.65.65,0,0,1,.41.47.54.54,0,0,1-.08.48.66.66,0,0,1-.29.26,1,1,0,0,1-.71.07.56.56,0,0,1-.31-.19.47.47,0,0,1-.14-.3s0-.06,0-.08a.18.18,0,0,1,.18-.15.18.18,0,0,1,.06.34l0,0h0a.33.33,0,0,0,.12.14.65.65,0,0,0,.57.09.44.44,0,0,0,.32-.37,1,1,0,0,0,0-.41.5.5,0,0,0-.1-.21.38.38,0,0,0-.3-.13.69.69,0,0,0-.2,0,.54.54,0,0,0-.27.16l0,0s-.09,0-.1,0v-1c0-.06,0-.07.07-.05l.11,0a1.64,1.64,0,0,0,.93,0l0,0a0,0,0,0,1,.06.06.13.13,0,0,1,0,.07,1,1,0,0,1-.46.25,1.36,1.36,0,0,1-.45,0Z" transform="translate(-519 -327.03)"/><path d="M579.25,401.34h2a.11.11,0,0,1,0,.22h-3.86l-.13,0a.1.1,0,0,1-.09-.11.12.12,0,0,1,.09-.12h2Z" transform="translate(-519 -327.03)"/><path d="M579.25,402.55h2c.08,0,.11.06.11.14a.11.11,0,0,1-.08.09l-.09,0h-3.77l-.14,0a.1.1,0,0,1-.09-.13.11.11,0,0,1,.07-.09h2Z" transform="translate(-519 -327.03)"/><path d="M587.35,401.9a1.5,1.5,0,0,1,0,.3H584.2a.89.89,0,0,1,0-.29h3.16Z" transform="translate(-519 -327.03)"/><path d="M601.16,398.24h-.33a.51.51,0,0,0-.31.19.1.1,0,0,1-.1,0,0,0,0,0,1,0-.06.1.1,0,0,1,0,0l.19-.21a.59.59,0,0,1,.4-.15h1.4a.08.08,0,0,1,.07.1.14.14,0,0,1-.13.13h-.49a.19.19,0,0,1,0,.08,1.5,1.5,0,0,0,0,.56,1.73,1.73,0,0,0,.1.24.16.16,0,0,1,0,.07.16.16,0,0,1-.18.18s-.05,0-.07-.05a.35.35,0,0,1-.08-.13,1.08,1.08,0,0,1,0-.44,3,3,0,0,1,.07-.43.22.22,0,0,0,0-.08.29.29,0,0,0-.13,0h-.26c0,.1-.06.2-.08.3s-.11.37-.16.56a.78.78,0,0,1-.05.14.22.22,0,0,1,0,.08.13.13,0,0,1-.23-.1.43.43,0,0,1,0-.07,5,5,0,0,0,.36-.82S601.17,398.27,601.16,398.24Z" transform="translate(-519 -327.03)"/><path d="M570.33,403.55h-1.4a.1.1,0,0,1-.08-.13.08.08,0,0,1,0-.07h2.84a.09.09,0,0,1,.08.09c0,.06,0,.09-.08.1h-1.41Z" transform="translate(-519 -327.03)"/><path d="M592.94,400.08h-1.39a.1.1,0,0,1-.08-.15.08.08,0,0,1,0-.05h2.83a.09.09,0,0,1,.08.09.1.1,0,0,1-.08.11h-1.41Z" transform="translate(-519 -327.03)"/><path d="M596.58,398.58a.17.17,0,0,1-.17-.22.28.28,0,0,1,.23-.19.17.17,0,0,1,.18.23A.26.26,0,0,1,596.58,398.58Z" transform="translate(-519 -327.03)"/><path d="M548.84,377.76v-.1a.17.17,0,0,1,0-.12l.18-.2.95-1a2.9,2.9,0,0,0,.41-.58,1.36,1.36,0,0,0,.18-.51,1.15,1.15,0,0,0-.14-.79.71.71,0,0,0-.42-.32.78.78,0,0,0-.78.24.8.8,0,0,0-.18.27.43.43,0,0,0,0,0h.08a.3.3,0,0,1,.26.45.32.32,0,0,1-.23.16h-.12a.28.28,0,0,1-.23-.28,1,1,0,0,1,.14-.55,1.07,1.07,0,0,1,.74-.52,1.3,1.3,0,0,1,1,.26,1,1,0,0,1,.38.64,1.08,1.08,0,0,1-.19.87,2.67,2.67,0,0,1-.39.44l-.62.56-.36.35-.22.21,0,0s0,0,0,0h1.14a1.51,1.51,0,0,0,.3,0h0a.07.07,0,0,0,0,0s0-.08,0-.11,0-.22.07-.33v0h.14a.76.76,0,0,1,0,.15c0,.27-.09.53-.13.8,0,0,0,.05,0,.07Z" transform="translate(-519 -327.03)"/><path d="M549.2,366.48l.13,0a.24.24,0,0,1,.21.22.2.2,0,0,1,0,.11.27.27,0,0,1-.27.24h-.12a.24.24,0,0,1-.19-.21.49.49,0,0,1,0-.24.72.72,0,0,1,.28-.4,1,1,0,0,1,.51-.21,1.25,1.25,0,0,1,.69.07.83.83,0,0,1,.43.28.66.66,0,0,1,.17.52,1,1,0,0,1-.3.61,1.22,1.22,0,0,1-.42.29l-.07,0,.08,0a1.19,1.19,0,0,1,.35.15,1.06,1.06,0,0,1,.41.43,1,1,0,0,1,0,.82,1.11,1.11,0,0,1-.54.59,1.33,1.33,0,0,1-.76.14,1.37,1.37,0,0,1-.6-.19,1,1,0,0,1-.32-.31.73.73,0,0,1-.12-.41s0-.07,0-.11a.24.24,0,0,1,.16-.18.32.32,0,0,1,.46.4.31.31,0,0,1-.28.21h-.07l0,0a.64.64,0,0,0,.24.22,1.11,1.11,0,0,0,.55.17.59.59,0,0,0,.61-.37,1.4,1.4,0,0,0,.09-.29,1.77,1.77,0,0,0,0-.65.84.84,0,0,0-.12-.31.57.57,0,0,0-.48-.29h-.4a.06.06,0,0,1-.05-.06.08.08,0,0,1,.05-.07h0l.32,0a.54.54,0,0,0,.33-.18.9.9,0,0,0,.18-.35,1.52,1.52,0,0,0,.06-.42.57.57,0,0,0,0-.26.5.5,0,0,0-.49-.39,1,1,0,0,0-.59.16.65.65,0,0,0-.18.15S549.21,366.46,549.2,366.48Z" transform="translate(-519 -327.03)"/><path d="M530.26,373.34l-.08.06a2,2,0,0,1-.59.32,1.49,1.49,0,0,1-.55.1,1,1,0,0,1-.5-.12,1,1,0,0,1-.42-.59,1.3,1.3,0,0,1,0-.65,1.73,1.73,0,0,1,.45-.77,2,2,0,0,1,.4-.31,1.33,1.33,0,0,1,.54-.18.93.93,0,0,1,.75.24,1.08,1.08,0,0,1,.27.43,1.61,1.61,0,0,1,.07.49v.31s0,0,0,.05l.06-.06a3.88,3.88,0,0,0,.35-.63,3.39,3.39,0,0,0,.15-.45s0,0,0-.06a.07.07,0,0,1,.11,0,0,0,0,0,1,0,.05.29.29,0,0,1,0,.09,3.21,3.21,0,0,1-.44,1l-.21.29a.24.24,0,0,0,0,.14,2.08,2.08,0,0,0,0,.43.39.39,0,0,0,.05.14.1.1,0,0,0,.14.06.3.3,0,0,0,.21-.13l.06-.12a.08.08,0,0,0,0,0,.08.08,0,0,1,.11,0s0,0,0,0a.19.19,0,0,1,0,.08.55.55,0,0,1-.28.3.47.47,0,0,1-.52-.08.69.69,0,0,1-.17-.27A.46.46,0,0,1,530.26,373.34Zm0-.16a1.93,1.93,0,0,1,0-.24c0-.22,0-.44,0-.66a2.22,2.22,0,0,0-.06-.51.88.88,0,0,0-.11-.24.47.47,0,0,0-.29-.19.59.59,0,0,0-.23,0,.82.82,0,0,0-.33.15,1.22,1.22,0,0,0-.4.5,1.79,1.79,0,0,0-.13.32,4.75,4.75,0,0,0-.14.63,1.2,1.2,0,0,0,0,.42.47.47,0,0,0,.47.33,1.74,1.74,0,0,0,.39-.05A2.27,2.27,0,0,0,530.24,373.18Z" transform="translate(-519 -327.03)"/><path d="M539.6,373.3a2.1,2.1,0,0,1,0,.43,1.31,1.31,0,0,1-.17.54.76.76,0,0,1-.65.4.92.92,0,0,1-.33,0,.76.76,0,0,1-.48-.32,1.36,1.36,0,0,1-.18-.43,2.07,2.07,0,0,1,0-.5,2.1,2.1,0,0,1,0-.5,1.45,1.45,0,0,1,.15-.54.82.82,0,0,1,.41-.39.9.9,0,0,1,.46-.06.85.85,0,0,1,.69.48,1.49,1.49,0,0,1,.13.47A2.13,2.13,0,0,1,539.6,373.3Zm-.37,0h0v-.2a3,3,0,0,0,0-.42,2.34,2.34,0,0,0,0-.26.55.55,0,0,0-.23-.29.52.52,0,0,0-.77.27l0,.1a2.1,2.1,0,0,0,0,.43v.72a1.88,1.88,0,0,0,0,.47,1,1,0,0,0,.05.16.51.51,0,0,0,.85.14.53.53,0,0,0,.14-.29,3.12,3.12,0,0,0,.05-.44Z" transform="translate(-519 -327.03)"/><path d="M553,372.42l0,.16a2.42,2.42,0,0,0-.06.47,1,1,0,0,0,0,.29l.06.13a.4.4,0,0,0,.37.22,1.4,1.4,0,0,0,.54-.1,1.43,1.43,0,0,0,.63-.46l.05-.05a.06.06,0,0,1,.07,0,.07.07,0,0,1,0,.08.43.43,0,0,1,0,.07,1.65,1.65,0,0,1-1.07.59,1.07,1.07,0,0,1-.4,0,.84.84,0,0,1-.55-.38,1,1,0,0,1-.15-.4,1.49,1.49,0,0,1,.3-1.2,1.61,1.61,0,0,1,1-.6.94.94,0,0,1,.47,0,.52.52,0,0,1,.31.23.42.42,0,0,1,.06.27.57.57,0,0,1-.21.42.76.76,0,0,1-.32.17,1.56,1.56,0,0,1-.43.08,4.35,4.35,0,0,1-.51,0Zm0-.14h0a5.91,5.91,0,0,0,.6,0,2,2,0,0,0,.35-.08,1,1,0,0,0,.24-.14.42.42,0,0,0,.16-.25.36.36,0,0,0-.27-.45.43.43,0,0,0-.25,0,1,1,0,0,0-.43.19A1.47,1.47,0,0,0,553,372.28Z" transform="translate(-519 -327.03)"/><path d="M537.12,374.46a.24.24,0,0,1,0,.12.11.11,0,0,1-.08,0l-.44,0h-.84a.11.11,0,0,1-.08,0,.26.26,0,0,1,0-.12s0,0,.07,0h.32l.08,0c.06,0,.09-.05.09-.11v-2.1h-.05a1,1,0,0,1-.42.09h-.12v-.14h.2a.92.92,0,0,0,.28,0,.85.85,0,0,0,.28-.16.1.1,0,0,1,.07,0c.09,0,.09,0,.09.09v2.26a.17.17,0,0,0,0,.07.08.08,0,0,0,.06.09l.1,0h.3S537.09,374.44,537.12,374.46Z" transform="translate(-519 -327.03)"/><path d="M558.82,372.07a.41.41,0,0,0,.27,0,.63.63,0,0,0,.24-.19.72.72,0,0,0,.13-.28c.1-.37.19-.75.29-1.12,0-.14.07-.28.1-.42a.75.75,0,0,0,0-.21.13.13,0,0,0-.16-.13.49.49,0,0,0-.21.08,1,1,0,0,0-.24.26l-.09.17a.07.07,0,0,1-.1,0,0,0,0,0,1,0-.06.11.11,0,0,1,0-.05,1,1,0,0,1,.36-.44.51.51,0,0,1,.36-.12.32.32,0,0,1,.14,0,.37.37,0,0,1,.26.46c0,.15-.07.3-.11.45-.08.32-.16.65-.25,1a.6.6,0,0,1-.06.19.8.8,0,0,1-.42.43,1,1,0,0,1-.44.08.43.43,0,0,1-.22-.06.23.23,0,0,1,0-.4.27.27,0,0,1,.15,0,.16.16,0,0,1,.13.18.24.24,0,0,1-.07.13Z" transform="translate(-519 -327.03)"/><path d="M562.29,372.49h.77a.08.08,0,0,0,.09-.07s0-.08,0-.12,0-.05,0-.08a.48.48,0,0,1,.12,0,2.51,2.51,0,0,1,0,.27c0,.09,0,.18,0,.28h-1.34a.11.11,0,0,1,0-.14l.51-.43.29-.25a1,1,0,0,0,.21-.26.52.52,0,0,0,.07-.32.41.41,0,0,0-.21-.31.6.6,0,0,0-.63,0,.27.27,0,0,0-.1.11s0,0,.07,0a.16.16,0,0,1,.08.19.15.15,0,0,1-.16.12.16.16,0,0,1-.17-.12.35.35,0,0,1,0-.2.52.52,0,0,1,.2-.24.78.78,0,0,1,.39-.12,1.17,1.17,0,0,1,.45.06.74.74,0,0,1,.28.21.54.54,0,0,1,0,.61.81.81,0,0,1-.16.16c-.09.08-.19.14-.28.21l-.48.35,0,0Z" transform="translate(-519 -327.03)"/><path d="M544,371.63h1.85a.11.11,0,0,1,.08.11c0,.06,0,.09-.08.1l-.07,0H542.3l-.12,0a.09.09,0,0,1-.09-.1c0-.06,0-.1.09-.11H544Z" transform="translate(-519 -327.03)"/><path d="M544,372.76h1.83a.11.11,0,0,1,.1.13.1.1,0,0,1-.07.08l-.09,0h-3.63a.12.12,0,0,1-.08-.11c0-.06,0-.09.09-.11H544Z" transform="translate(-519 -327.03)"/><path d="M548.54,372.44v-.27h2.93a1.2,1.2,0,0,1,0,.27h-2.93Z" transform="translate(-519 -327.03)"/><path d="M562.84,368.76a1.51,1.51,0,0,0-.37,0c0,.05,0,.1,0,.15-.06.21-.11.41-.17.61a.88.88,0,0,1,0,.15.2.2,0,0,1,0,.08.1.1,0,0,1-.06.05.11.11,0,0,1-.14,0,.1.1,0,0,1,0-.13.75.75,0,0,1,.07-.12,5.56,5.56,0,0,0,.29-.71.35.35,0,0,0,0-.06h-.23a.46.46,0,0,0-.36.17s0,.05-.09,0-.06,0,0-.06l0,0a1.31,1.31,0,0,1,.2-.21.57.57,0,0,1,.36-.13h1.29a.09.09,0,0,1,.07.12.14.14,0,0,1-.14.1H563s0,.05,0,.08a1.24,1.24,0,0,0,0,.47,1,1,0,0,0,.1.28s0,0,0,.06a.14.14,0,0,1-.16.16s-.05,0-.08-.05a.45.45,0,0,1-.06-.12.94.94,0,0,1,0-.41,2.66,2.66,0,0,1,.07-.39A.15.15,0,0,1,562.84,368.76Z" transform="translate(-519 -327.03)"/><path d="M561.33,370.41a1.41,1.41,0,0,1,0-.21h2.5a.67.67,0,0,1,0,.2h-2.52Z" transform="translate(-519 -327.03)"/><path d="M533.38,373.68h-1.29a.1.1,0,0,1-.08-.12.07.07,0,0,1,0-.06l.08,0h2.56c.06,0,.08.06.06.12a.07.07,0,0,1,0,.06h-1.33Z" transform="translate(-519 -327.03)"/><path d="M556.72,370.46h-1.28q-.09,0-.09-.09c0-.06,0-.09.08-.1H558a.08.08,0,0,1,.07.1.08.08,0,0,1-.07.09h-1.31Z" transform="translate(-519 -327.03)"/><path d="M560.11,369.07a.15.15,0,0,1-.16-.2.24.24,0,0,1,.24-.18.16.16,0,0,1,.14.19A.23.23,0,0,1,560.11,369.07Z" transform="translate(-519 -327.03)"/><path d="M794.68,377.56a.2.2,0,0,1,0-.22l.73-.8c.15-.17.3-.33.44-.5a2.56,2.56,0,0,0,.33-.48,1.56,1.56,0,0,0,.17-.47,1.06,1.06,0,0,0-.08-.7.68.68,0,0,0-.44-.4.75.75,0,0,0-.66.11.93.93,0,0,0-.3.38.11.11,0,0,1,0,0H795a.28.28,0,0,1,.28.31.26.26,0,0,1-.18.25.29.29,0,0,1-.31,0,.27.27,0,0,1-.11-.23.83.83,0,0,1,.05-.35,1,1,0,0,1,.81-.68,1.28,1.28,0,0,1,1,.23,1,1,0,0,1,.4.8.93.93,0,0,1,0,.33,1.11,1.11,0,0,1-.21.42,3,3,0,0,1-.34.37l-.61.55-.34.33-.23.22,0,0a.07.07,0,0,0,.06,0h1.41a.1.1,0,0,0,.09-.08l.06-.21,0-.19s0,0,0,0h.13c0,.06,0,.12,0,.18,0,.23-.08.45-.11.68a.33.33,0,0,1,0,.13Z" transform="translate(-519 -327.03)"/><path d="M794.89,369.37l0,.05a.81.81,0,0,0,.3.25,1.18,1.18,0,0,0,.53.12.55.55,0,0,0,.44-.21.78.78,0,0,0,.14-.29,1.45,1.45,0,0,0,0-.51,1.34,1.34,0,0,0,0-.35,1,1,0,0,0-.1-.24.62.62,0,0,0-.46-.27h-.4s0,0,0-.05a.05.05,0,0,1,0-.07h0l.3,0a.5.5,0,0,0,.34-.18.42.42,0,0,0,.11-.18,1.36,1.36,0,0,0,.12-.63.51.51,0,0,0,0-.17.5.5,0,0,0-.48-.4,1.06,1.06,0,0,0-.57.15.49.49,0,0,0-.2.18,0,0,0,0,0,0,0l.14,0a.24.24,0,0,1,.16.22v.07a.34.34,0,0,1-.05.14.32.32,0,0,1-.32.11.27.27,0,0,1-.21-.24.57.57,0,0,1,.08-.36.86.86,0,0,1,.38-.35,1.36,1.36,0,0,1,.66-.11,1.51,1.51,0,0,1,.43.11,1,1,0,0,1,.34.25.63.63,0,0,1,.15.53,1,1,0,0,1-.49.74,1.43,1.43,0,0,1-.21.12l-.06,0,.08,0a1.26,1.26,0,0,1,.56.32,1,1,0,0,1,.12,1.21,1.1,1.1,0,0,1-.76.53,1.44,1.44,0,0,1-.89-.09,1,1,0,0,1-.42-.36.72.72,0,0,1-.13-.37.45.45,0,0,1,0-.2.24.24,0,0,1,.13-.13.33.33,0,0,1,.29,0,.32.32,0,0,1,.17.19.34.34,0,0,1,0,.2.33.33,0,0,1-.27.22Z" transform="translate(-519 -327.03)"/><path d="M780.07,373.25l-.07.05a2.43,2.43,0,0,1-.44.26,1.58,1.58,0,0,1-.68.16.92.92,0,0,1-.68-.27,1,1,0,0,1-.24-.51,1.45,1.45,0,0,1,.14-.82,1.82,1.82,0,0,1,.74-.79,1.27,1.27,0,0,1,.53-.17.9.9,0,0,1,.73.23.91.91,0,0,1,.26.43,1.43,1.43,0,0,1,.07.46v.35s0,0,0,0a3.48,3.48,0,0,0,.22-.36,3.19,3.19,0,0,0,.29-.72l0-.07a.05.05,0,0,1,.06,0s.07,0,.06.08,0,.19-.08.29a3.18,3.18,0,0,1-.56,1,.28.28,0,0,0-.06.2,1.54,1.54,0,0,0,0,.37.27.27,0,0,0,0,.12c0,.09.09.12.19.08a.31.31,0,0,0,.17-.13l.06-.11,0,0a.09.09,0,0,1,.1,0,.06.06,0,0,1,0,.08l0,.07a.62.62,0,0,1-.16.2.46.46,0,0,1-.63,0,.75.75,0,0,1-.15-.24A.31.31,0,0,0,780.07,373.25Zm0-.16v0c0-.06,0-.12,0-.18v-.64a1.7,1.7,0,0,0-.07-.51.53.53,0,0,0-.11-.24.43.43,0,0,0-.35-.19.73.73,0,0,0-.3.06,1.2,1.2,0,0,0-.34.25,1.51,1.51,0,0,0-.29.49,3.79,3.79,0,0,0-.18.66,2.64,2.64,0,0,0,0,.28,1,1,0,0,0,.07.29.42.42,0,0,0,.36.27.82.82,0,0,0,.31,0,2,2,0,0,0,.52-.18A2.4,2.4,0,0,0,780,373.09Z" transform="translate(-519 -327.03)"/><path d="M785.65,373.21a3.05,3.05,0,0,1-.06.6,1.11,1.11,0,0,1-.14.34.74.74,0,0,1-.63.4,1.29,1.29,0,0,1-.28,0,.79.79,0,0,1-.56-.41,1.43,1.43,0,0,1-.15-.44,3.48,3.48,0,0,1,0-.79,2,2,0,0,1,.08-.43,1.15,1.15,0,0,1,.12-.25.76.76,0,0,1,.49-.35.9.9,0,0,1,.49,0,.78.78,0,0,1,.5.44,1.33,1.33,0,0,1,.13.43A3.55,3.55,0,0,1,785.65,373.21Zm-.37,0h0c0-.13,0-.26,0-.4a1.51,1.51,0,0,0,0-.42A.53.53,0,0,0,785,372a.51.51,0,0,0-.72.21.49.49,0,0,0-.06.17,1.84,1.84,0,0,0,0,.41,6.32,6.32,0,0,0,0,.87,2.4,2.4,0,0,0,0,.28.46.46,0,0,0,.09.23.5.5,0,0,0,.8.07.62.62,0,0,0,.12-.26,1.49,1.49,0,0,0,0-.36C785.28,373.49,785.28,373.33,785.28,373.17Z" transform="translate(-519 -327.03)"/><path d="M798.7,372.35s0,0,0,.06a3.4,3.4,0,0,0-.07.46.82.82,0,0,0,.06.41.37.37,0,0,0,.05.11.42.42,0,0,0,.36.2,1.25,1.25,0,0,0,.51-.1,1.36,1.36,0,0,0,.63-.45l0,0a.05.05,0,0,1,.07,0,.07.07,0,0,1,0,.09l0,.06-.14.15a1.64,1.64,0,0,1-.92.43,1.26,1.26,0,0,1-.43,0,.81.81,0,0,1-.48-.37,1.06,1.06,0,0,1-.15-.42,1.54,1.54,0,0,1,.75-1.54,1.47,1.47,0,0,1,.6-.2.73.73,0,0,1,.48.08.45.45,0,0,1,.25.32.51.51,0,0,1-.08.36.71.71,0,0,1-.34.3,1.86,1.86,0,0,1-.39.1,4.43,4.43,0,0,1-.63,0Zm0-.13h.46a2,2,0,0,0,.42-.07.9.9,0,0,0,.28-.13.45.45,0,0,0,.21-.34.33.33,0,0,0-.13-.31.42.42,0,0,0-.24-.09.76.76,0,0,0-.41.1,1.44,1.44,0,0,0-.25.18A1.6,1.6,0,0,0,798.73,372.22Z" transform="translate(-519 -327.03)"/><path d="M783.22,374.33a.56.56,0,0,1,0,.13h0c-.45,0-.91,0-1.36,0h0a.48.48,0,0,1,0-.12s.05,0,.07,0h.31a.29.29,0,0,0,.1,0,.08.08,0,0,0,.06-.08v-2.06a2.29,2.29,0,0,1-.28.07,1.37,1.37,0,0,1-.29,0v-.13h.06a1.65,1.65,0,0,0,.31,0,.81.81,0,0,0,.38-.19.09.09,0,0,1,.07,0c.06,0,.08,0,.08.08v2.28a.12.12,0,0,0,.08.1l.09,0h.38Z" transform="translate(-519 -327.03)"/><path d="M800.86,372a.34.34,0,0,0,.22,0,.49.49,0,0,0,.2-.11.74.74,0,0,0,.22-.38c.09-.37.19-.75.28-1.12l.09-.36a.32.32,0,0,0,0-.17v-.05c0-.1-.07-.13-.17-.12a.4.4,0,0,0-.2.09.84.84,0,0,0-.22.24l-.09.17s-.05.05-.1,0a0,0,0,0,1,0-.06.06.06,0,0,1,0,0,1,1,0,0,1,.36-.45.53.53,0,0,1,.44-.09.38.38,0,0,1,.24.15.32.32,0,0,1,.07.25s0,.07,0,.11c-.12.46-.24.92-.35,1.38a.82.82,0,0,1-.67.63.62.62,0,0,1-.33,0,.26.26,0,0,1-.15-.07.21.21,0,0,1-.06-.27.22.22,0,0,1,.26-.12.14.14,0,0,1,.1.12.23.23,0,0,1-.06.18Z" transform="translate(-519 -327.03)"/><path d="M804.26,372.42H805s.07,0,.08-.06a.74.74,0,0,0,0-.14v0a.19.19,0,0,1,.1,0h0l-.09.5v0h-1.3a.11.11,0,0,1,0-.14l.64-.54a1.85,1.85,0,0,0,.28-.28.55.55,0,0,0,.12-.24.41.41,0,0,0-.22-.49.3.3,0,0,0-.16-.05.54.54,0,0,0-.43.09l-.1.1.07,0a.18.18,0,0,1,.08.2.16.16,0,0,1-.17.11.15.15,0,0,1-.15-.13.3.3,0,0,1,0-.21.48.48,0,0,1,.19-.21.81.81,0,0,1,.37-.12,1,1,0,0,1,.45.07.74.74,0,0,1,.21.13.52.52,0,0,1,.08.64.86.86,0,0,1-.19.19l-.26.2-.47.34,0,0Z" transform="translate(-519 -327.03)"/><path d="M790,371.58h1.81a.1.1,0,0,1,.07.16l-.05,0-.08,0h-3.55a.1.1,0,0,1-.08-.11.09.09,0,0,1,.08-.1H790Z" transform="translate(-519 -327.03)"/><path d="M790,372.68h1.79a.1.1,0,0,1,.08.15.1.1,0,0,1-.05.06h-.09s0,0-.07,0h-3.48a.09.09,0,0,1-.07-.11.08.08,0,0,1,.07-.09H790Z" transform="translate(-519 -327.03)"/><path d="M794.37,372.35v-.2a.13.13,0,0,1,0-.06h2.85a.74.74,0,0,1,0,.26h-2.87Z" transform="translate(-519 -327.03)"/><path d="M804.3,368.76a1.69,1.69,0,0,0-.32,0,.46.46,0,0,0-.26.15l0,0a.08.08,0,0,1-.09,0s0,0,0,0l0,0a1,1,0,0,1,.2-.22.54.54,0,0,1,.34-.12h1.27a.08.08,0,0,1,.07.08.14.14,0,0,1-.11.13h-.45a.8.8,0,0,0,0,.15,1.09,1.09,0,0,0,.05.51l.09.17a.13.13,0,0,1,0,.16l0,0a.11.11,0,0,1-.13,0,.27.27,0,0,1-.06-.1,1.05,1.05,0,0,1-.06-.24,1.71,1.71,0,0,1,0-.39,2,2,0,0,0,0-.26s-.07,0-.11,0h-.24s0,0,0,.05l-.18.67s0,.11,0,.16l-.06.1a.11.11,0,0,1-.13.05.1.1,0,0,1-.08-.13s0-.05,0-.08a3.76,3.76,0,0,0,.32-.74s0,0,0,0S804.3,368.78,804.3,368.76Z" transform="translate(-519 -327.03)"/><path d="M805.78,370.17a.67.67,0,0,1,0,.2h-2.45a.67.67,0,0,1,0-.2h2.45Z" transform="translate(-519 -327.03)"/><path d="M802.12,369.07a.15.15,0,0,1-.15-.21.24.24,0,0,1,.26-.15.14.14,0,0,1,.11.18A.22.22,0,0,1,802.12,369.07Z" transform="translate(-519 -327.03)"/></svg>