<svg id="Layer_1" data-name="Layer 1" xmlns="http://www.w3.org/2000/svg" viewBox="0 0 283.29 120"><defs><style>.cls-1,.cls-3{fill:none;stroke:#000;stroke-miterlimit:10;}.cls-2{font-size:12px;font-family:TimesNewRomanPSMT, Times New Roman;}.cls-3{stroke-width:2px;}</style></defs><title>modulation_spectrum</title><line class="cls-1" x1="127" y1="20.65" x2="127" y2="97.47"/><polygon points="122.01 22.11 127 13.47 131.99 22.11 122.01 22.11"/><text class="cls-2" transform="translate(104.67 9.97)">spectrum</text><text class="cls-2" transform="translate(124.19 109.07)">0</text><text class="cls-2" transform="translate(155.33 109.07)">180</text><text class="cls-2" transform="translate(77.06 109.07)">-180</text><line class="cls-3" x1="163.79" y1="97.47" x2="163.79" y2="55.47"/><line class="cls-3" x1="89.5" y1="97.97" x2="89.5" y2="55.97"/><text class="cls-2" transform="translate(207.33 109.07)">220</text><text class="cls-2" transform="translate(25.33 109.07)">-220</text><line class="cls-1" x1="159.29" y1="55.47" x2="168.29" y2="55.47"/><line class="cls-1" x1="85" y1="55.97" x2="94" y2="55.97"/><path d="M818.45,426.67V427c-1,0-2,0-2.94,0v-.3H816a.9.9,0,0,0,.28,0c.18,0,.22-.12.23-.29,0,0,0,0,0,0v-2.68s-2.86,0-3,0v2.67a1,1,0,0,0,0,.17.27.27,0,0,0,.12.14.63.63,0,0,0,.27.06l.53,0h.09V427q-.74,0-1.47,0c-.49,0-1,0-1.47,0a.38.38,0,0,1,0-.15v-.16h.08l.53,0a1,1,0,0,0,.23,0,.25.25,0,0,0,.18-.23s0-.08,0-.12v-5.35a.78.78,0,0,0,0-.16.2.2,0,0,0-.14-.17.65.65,0,0,0-.24-.06h-.63v-.32c.4,0,2.53,0,3,0v.32H814l-.21,0a.25.25,0,0,0-.18.23,1.09,1.09,0,0,0,0,.18v2.32h3v-2.51a.24.24,0,0,0-.18-.21,1,1,0,0,0-.29-.05h-.54v-.31c1,0,2,0,2.93,0v.3h-.38l-.33,0-.1,0a.26.26,0,0,0-.21.27v5.37a1.7,1.7,0,0,0,0,.22.25.25,0,0,0,.17.19,1,1,0,0,0,.24,0l.52,0Z" transform="translate(-541.5 -327.03)"/><path d="M800.24,428.64a.64.64,0,0,0,.46.15.38.38,0,0,0,.25-.09,1.24,1.24,0,0,0,.18-.22,1.94,1.94,0,0,0,.17-.42,8.85,8.85,0,0,0,.23-1l.15-.8c.06-.29.11-.58.17-.88l.16-.84c.09-.45.17-.89.26-1.34l0-.17h-.85c-.06,0-.08,0-.09-.1s0-.19.15-.2h.84c0-.17.06-.32.09-.48.07-.35.13-.71.23-1.05a2.17,2.17,0,0,1,.36-.73,1.17,1.17,0,0,1,.83-.46.93.93,0,0,1,.79.26.61.61,0,0,1-.25,1,.42.42,0,0,1-.36,0,.36.36,0,0,1-.14-.36.53.53,0,0,1,.44-.45l.09,0a.8.8,0,0,0-.14-.09.69.69,0,0,0-.32-.08.48.48,0,0,0-.46.29,1.15,1.15,0,0,0-.12.37c-.11.54-.21,1.09-.32,1.63,0,.07,0,.13,0,.21h1c.06,0,.07,0,.08.09h0c0,.14,0,.2-.19.2h-1l-.06.3c-.06.32-.13.64-.19,1s-.13.73-.2,1.09c-.11.54-.2,1.09-.34,1.62a6.31,6.31,0,0,1-.28.87,2.87,2.87,0,0,1-.43.74,1.71,1.71,0,0,1-.39.32.9.9,0,0,1-.83,0,.74.74,0,0,1-.31-.24.61.61,0,0,1,.23-.91.53.53,0,0,1,.35,0,.34.34,0,0,1,.23.31.52.52,0,0,1-.47.55h0Z" transform="translate(-541.5 -327.03)"/><path d="M819.88,426.72h1.3a3.09,3.09,0,0,0,.52-.07.91.91,0,0,0,.64-.61,2.33,2.33,0,0,0,.11-.51c0-.14,0-.27,0-.41h.25l-.17,1.85h-3.41a.14.14,0,0,1-.13-.21.18.18,0,0,1,.05-.07c.46-.63.93-1.26,1.4-1.88l1.11-1.5.29-.39h-1.23a1.9,1.9,0,0,0-.54.07.78.78,0,0,0-.59.57,2.44,2.44,0,0,0-.09.47c0,.07,0,.14,0,.21a.14.14,0,0,1,0,.06h-.23c0-.06.07-1.41.1-1.6h3.34a.13.13,0,0,1,.09.21l-.11.15c-.5.66-1,1.33-1.48,2l-1,1.37-.2.27Z" transform="translate(-541.5 -327.03)"/><path d="M824.37,419.93h-1v-.4h1.36c0,.05,0,9.78,0,9.92s-1.26,0-1.37,0v-.4h1Z" transform="translate(-541.5 -327.03)"/><path d="M811.09,429.06v.4h-1.36v-9.93h1.36v.4h-1v9.13h1Z" transform="translate(-541.5 -327.03)"/><line class="cls-3" x1="214.79" y1="97.47" x2="214.79" y2="55.47"/><line class="cls-1" x1="210.29" y1="55.47" x2="219.29" y2="55.47"/><line class="cls-1" x1="190" y1="92.97" x2="190" y2="101.97"/><line class="cls-3" x1="36.5" y1="96.97" x2="36.5" y2="54.97"/><line class="cls-1" x1="32" y1="54.97" x2="41" y2="54.97"/><line class="cls-1" x1="63" y1="92.97" x2="63" y2="101.97"/><polyline class="cls-1" points="0 97.47 115 97.47 118 103.47 118 91.47 121 97.47 127 97.47"/><polyline class="cls-1" points="248.98 97.47 139 97.47 136 103.47 136 91.47 133 97.47 127 97.47"/><polygon points="247.96 93.98 254 97.47 247.96 100.96 247.96 93.98"/><path d="M728.76,418l-.15,0a.85.85,0,0,1-.38-.19.6.6,0,0,1-.21-.36.67.67,0,0,1,.11-.49.51.51,0,0,1,.41-.21.36.36,0,0,1,.32.12.3.3,0,0,1,.08.18.6.6,0,0,1-.1.35.53.53,0,0,1-.34.22h-.1a.66.66,0,0,0,.37.17.55.55,0,0,0,.22,0,.52.52,0,0,0,.25-.21,1.41,1.41,0,0,0,.24-.51l.12-.45c0-.15.06-.3.08-.45s.05-.24.08-.36l.06-.36.09-.43.06-.36c0-.13,0-.26.08-.39s0-.24.07-.36,0-.27.07-.4l.09-.48.09-.43c0-.13,0-.26.07-.39a1.29,1.29,0,0,1,0-.19h-.8l-.09,0a.08.08,0,0,1-.05-.08.45.45,0,0,1,0-.11.16.16,0,0,1,.13-.1h.82a0,0,0,0,0,0,0l.06-.32c0-.13.06-.26.08-.39l.09-.41a3.05,3.05,0,0,1,.14-.54,1.76,1.76,0,0,1,.29-.54,1.16,1.16,0,0,1,.46-.39,1.13,1.13,0,0,1,.37-.1,1.1,1.1,0,0,1,.62.12.64.64,0,0,1,.35.45.63.63,0,0,1-.13.51.51.51,0,0,1-.33.19.4.4,0,0,1-.36-.09.25.25,0,0,1-.09-.2.48.48,0,0,1,.09-.35.5.5,0,0,1,.36-.22l.07,0-.14-.09a.77.77,0,0,0-.34-.07.45.45,0,0,0-.3.12.69.69,0,0,0-.22.41l-.18.83c0,.14,0,.27-.07.41a2.56,2.56,0,0,0-.05.27l-.07.35,0,.11h.94l.11,0a.07.07,0,0,1,0,.05.76.76,0,0,1,0,.15c0,.07-.08.08-.15.09h-.94s-.05,0-.06,0-.07.36-.1.54L731,413c0,.19-.07.38-.11.57s-.07.38-.1.57-.06.28-.08.42-.06.34-.1.51-.06.31-.1.47a4.7,4.7,0,0,1-.12.51c-.06.21-.13.43-.21.64a3,3,0,0,1-.16.37,2.19,2.19,0,0,1-.31.48,1.3,1.3,0,0,1-.45.36.73.73,0,0,1-.24.07h-.21Z" transform="translate(-541.5 -327.03)"/><path d="M735.47,414.74a.55.55,0,0,0-.23-.14,1.07,1.07,0,0,0-.47-.05.82.82,0,0,0-.33.09,1.69,1.69,0,0,0-.36.23,1.57,1.57,0,0,0-.3.38,2.13,2.13,0,0,0-.21.49,2.37,2.37,0,0,0-.11.46c0,.11,0,.23,0,.35a.86.86,0,0,0,.12.44.67.67,0,0,0,.39.27,1.21,1.21,0,0,0,.38,0,1.84,1.84,0,0,0,.4-.06,1.69,1.69,0,0,0,.66-.32c.08-.06.15-.14.23-.21l.09-.09a.1.1,0,0,1,.09,0,.23.23,0,0,1,.07.07s0,.06,0,.09l-.09.13a1.76,1.76,0,0,1-.37.29,2.28,2.28,0,0,1-.45.2,2,2,0,0,1-.42.09l-.21,0a1.15,1.15,0,0,1-.26,0,1.56,1.56,0,0,1-.52-.11,1.06,1.06,0,0,1-.31-.21,1.1,1.1,0,0,1-.31-.45,1.55,1.55,0,0,1-.07-.31,1.77,1.77,0,0,1,0-.23,1.46,1.46,0,0,1,.12-.5,1.89,1.89,0,0,1,.28-.5,2.83,2.83,0,0,1,.24-.25,2.11,2.11,0,0,1,.61-.41,2.13,2.13,0,0,1,.49-.15,2.55,2.55,0,0,1,.39,0,1.28,1.28,0,0,1,.51.13.56.56,0,0,1,.29.36.49.49,0,0,1-.08.42.36.36,0,0,1-.29.14.25.25,0,0,1-.23-.08.27.27,0,0,1-.06-.12.37.37,0,0,1,.13-.34.35.35,0,0,1,.21-.1Z" transform="translate(-541.5 -327.03)"/><path d="M604.26,418l-.14,0a.81.81,0,0,1-.38-.19.52.52,0,0,1-.21-.36.62.62,0,0,1,.11-.49.49.49,0,0,1,.4-.21.36.36,0,0,1,.32.12.3.3,0,0,1,.08.18.55.55,0,0,1-.43.57h-.11a.66.66,0,0,0,.37.17.54.54,0,0,0,.22,0,.59.59,0,0,0,.26-.21,1.57,1.57,0,0,0,.23-.51l.12-.45.09-.45c0-.12,0-.24.07-.36l.06-.36.09-.43c0-.12,0-.24.07-.36s0-.26.07-.39.05-.27.08-.4,0-.24.07-.36,0-.32.09-.48.05-.29.08-.43,0-.26.07-.39,0-.13,0-.19h-.8l-.09,0s0,0-.05-.08a.45.45,0,0,1,0-.11.17.17,0,0,1,.13-.1H606s0,0,0,0l.06-.32c0-.13,0-.26.07-.39l.09-.41a3.05,3.05,0,0,1,.14-.54,1.76,1.76,0,0,1,.29-.54,1.16,1.16,0,0,1,.46-.39,1.2,1.2,0,0,1,.37-.1,1.15,1.15,0,0,1,.63.12.63.63,0,0,1,.21,1,.49.49,0,0,1-.33.19.38.38,0,0,1-.35-.09.3.3,0,0,1-.1-.2.48.48,0,0,1,.1-.35.49.49,0,0,1,.35-.22s.05,0,.07,0l-.13-.09a.84.84,0,0,0-.35-.07.49.49,0,0,0-.3.12.82.82,0,0,0-.22.41l-.18.83c0,.14,0,.27-.07.41s0,.18-.05.27l-.06.35,0,.11h.94l.12,0a.09.09,0,0,1,0,.05.26.26,0,0,1,0,.15c0,.07-.08.08-.15.09h-.94s-.05,0-.05,0-.07.36-.11.54l-.09.45c0,.19-.07.38-.1.57s-.08.38-.11.57,0,.28-.08.42l-.09.51c0,.16-.07.31-.1.47s-.08.34-.13.51-.13.43-.2.64-.1.25-.16.37a2.23,2.23,0,0,1-.32.48,1.3,1.3,0,0,1-.45.36.61.61,0,0,1-.24.07h-.21Z" transform="translate(-541.5 -327.03)"/><path d="M611,414.74a.64.64,0,0,0-.25-.15,1,1,0,0,0-.45,0,1.18,1.18,0,0,0-.59.24l-.18.16a1.86,1.86,0,0,0-.32.5c-.06.15-.11.31-.16.47a2.74,2.74,0,0,0,0,.28,2.07,2.07,0,0,0,0,.35.72.72,0,0,0,.16.49.57.57,0,0,0,.35.22,1.21,1.21,0,0,0,.38,0,1.76,1.76,0,0,0,.39-.06,2,2,0,0,0,.46-.19,2,2,0,0,0,.43-.33.38.38,0,0,1,.09-.09.07.07,0,0,1,.07,0,.11.11,0,0,1,.09.17,1.24,1.24,0,0,1-.41.38,2,2,0,0,1-.49.23l-.42.09a2,2,0,0,1-.49,0,1.45,1.45,0,0,1-.5-.11,1.11,1.11,0,0,1-.32-.21,1.06,1.06,0,0,1-.31-.49.88.88,0,0,1-.06-.27c0-.08,0-.15,0-.23a1.53,1.53,0,0,1,.11-.47,1.49,1.49,0,0,1,.23-.43l.17-.21a1.26,1.26,0,0,1,.2-.2,2.32,2.32,0,0,1,.3-.22,1.74,1.74,0,0,1,.48-.22l.3-.06a2,2,0,0,1,.35,0,1.11,1.11,0,0,1,.5.12.51.51,0,0,1,.29.35.54.54,0,0,1-.07.43.36.36,0,0,1-.29.14.25.25,0,0,1-.23-.08.27.27,0,0,1-.06-.12.37.37,0,0,1,.12-.34A.46.46,0,0,1,611,414.74Z" transform="translate(-541.5 -327.03)"/><path d="M599.06,413.69h-2.8a.26.26,0,0,1-.21-.08.14.14,0,0,1,0-.09.17.17,0,0,1,0-.1.15.15,0,0,1,.14-.12h.16q2.76,0,5.52,0a.47.47,0,0,1,.17,0,.17.17,0,0,1,.1.19.16.16,0,0,1-.07.13l-.11,0h-2.87Z" transform="translate(-541.5 -327.03)"/><path d="M629.91,379.35h1.83l.3,0,.11,0s.05,0,.06-.05a1,1,0,0,0,.09-.29l.06-.3s0-.07,0-.1l0,0h.2l-.24,1.45h-3.12a.58.58,0,0,1,0-.23l0-.06.27-.3.22-.24.28-.3.15-.18.29-.32.16-.17.28-.31.28-.35c.08-.12.16-.24.23-.36a2,2,0,0,0,.14-.25,2.09,2.09,0,0,0,.18-.55,1.75,1.75,0,0,0,0-.46,1.45,1.45,0,0,0-.14-.57,1.09,1.09,0,0,0-.29-.41.92.92,0,0,0-.3-.18,1.23,1.23,0,0,0-.32-.07,1.13,1.13,0,0,0-.41.05,1.41,1.41,0,0,0-.38.21,1.3,1.3,0,0,0-.35.45l-.06.13a.85.85,0,0,1,.32,0,.42.42,0,0,1,.23.33.53.53,0,0,1,0,.28.47.47,0,0,1-.61.18.37.37,0,0,1-.22-.29,1.48,1.48,0,0,1,0-.21,1.41,1.41,0,0,1,.12-.49,1.45,1.45,0,0,1,.2-.34l.25-.25a1.08,1.08,0,0,1,.34-.21,1.28,1.28,0,0,1,.33-.11,1.71,1.71,0,0,1,.45,0l.37.05a1.64,1.64,0,0,1,.48.18,1.46,1.46,0,0,1,.24.17.8.8,0,0,1,.17.15,1.54,1.54,0,0,1,.21.29,1.44,1.44,0,0,1,.15.41,1.57,1.57,0,0,1,0,.23,1.76,1.76,0,0,1,0,.23,1.27,1.27,0,0,1-.05.34,1.33,1.33,0,0,1-.13.33,2.2,2.2,0,0,1-.21.32l-.27.3-.18.19-.22.21-.26.24-.28.24-.21.2a.86.86,0,0,0-.14.13l-.24.23-.19.18-.19.19-.12.11Z" transform="translate(-541.5 -327.03)"/><path d="M630.67,363.58a1.73,1.73,0,0,1-.53.17,3.66,3.66,0,0,1-.57.05v-.27h.34a2.15,2.15,0,0,0,.57-.13,1.66,1.66,0,0,0,.45-.25l.15-.13h.15s.06,0,.06.08,0,.23,0,.35V368a.21.21,0,0,0,.05.17.3.3,0,0,0,.1.07l.21,0,.21,0h.47v.26h-2.51l-.21,0v-.27h.56l.29-.05a.22.22,0,0,0,.19-.18V368c0-1.47,0-2.93,0-4.4Z" transform="translate(-541.5 -327.03)"/><path d="M633.06,371.92v.41h-4.25v-.41Z" transform="translate(-541.5 -327.03)"/><path d="M703.91,379.35h1.83l.3,0,.11,0s.05,0,.06-.05a1,1,0,0,0,.09-.29l.06-.3s0-.07,0-.1l0,0h.2l-.24,1.45h-3.12a.58.58,0,0,1,0-.23l0-.06.27-.3.22-.24.28-.3.15-.18.29-.32.16-.17.28-.31.28-.35c.08-.12.16-.24.23-.36a2,2,0,0,0,.14-.25,2.09,2.09,0,0,0,.18-.55,1.75,1.75,0,0,0,0-.46,1.45,1.45,0,0,0-.14-.57,1.09,1.09,0,0,0-.29-.41.92.92,0,0,0-.3-.18,1.23,1.23,0,0,0-.32-.07,1.13,1.13,0,0,0-.41.05,1.41,1.41,0,0,0-.38.21,1.3,1.3,0,0,0-.35.45l-.06.13a.85.85,0,0,1,.32,0,.42.42,0,0,1,.23.33.53.53,0,0,1,0,.28.47.47,0,0,1-.61.18.37.37,0,0,1-.22-.29,1.48,1.48,0,0,1,0-.21,1.41,1.41,0,0,1,.12-.49,1.45,1.45,0,0,1,.2-.34l.25-.25a1.08,1.08,0,0,1,.34-.21,1.28,1.28,0,0,1,.33-.11,1.71,1.71,0,0,1,.45,0l.37.05a1.64,1.64,0,0,1,.48.18,1.46,1.46,0,0,1,.24.17.8.8,0,0,1,.17.15,1.54,1.54,0,0,1,.21.29,1.44,1.44,0,0,1,.15.41,1.57,1.57,0,0,1,0,.23,1.76,1.76,0,0,1,0,.23,1.27,1.27,0,0,1-.05.34,1.33,1.33,0,0,1-.13.33,2.2,2.2,0,0,1-.21.32l-.27.3-.18.19-.22.21-.26.24-.28.24-.21.2a.86.86,0,0,0-.14.13l-.24.23-.19.18-.19.19-.12.11Z" transform="translate(-541.5 -327.03)"/><path d="M704.67,363.58a1.73,1.73,0,0,1-.53.17,3.66,3.66,0,0,1-.57.05v-.27h.34a2.15,2.15,0,0,0,.57-.13,1.66,1.66,0,0,0,.45-.25l.15-.13h.15s.06,0,.06.08,0,.23,0,.35V368a.21.21,0,0,0,.05.17.3.3,0,0,0,.1.07l.21,0,.21,0h.47v.26h-2.51l-.21,0v-.27h.56l.29-.05a.22.22,0,0,0,.19-.18V368c0-1.47,0-2.93,0-4.4Z" transform="translate(-541.5 -327.03)"/><path d="M707.06,371.92v.41h-4.25v-.41Z" transform="translate(-541.5 -327.03)"/><path d="M754.91,379.35h1.83l.3,0,.11,0s.05,0,.06-.05a1,1,0,0,0,.09-.29l.06-.3s0-.07,0-.1l0,0h.2l-.24,1.45h-3.12a.58.58,0,0,1,0-.23l0-.06.27-.3.22-.24.28-.3.15-.18.29-.32.16-.17.28-.31.28-.35c.08-.12.16-.24.23-.36a2,2,0,0,0,.14-.25,2.09,2.09,0,0,0,.18-.55,1.75,1.75,0,0,0,0-.46,1.45,1.45,0,0,0-.14-.57,1.09,1.09,0,0,0-.29-.41.92.92,0,0,0-.3-.18,1.23,1.23,0,0,0-.32-.07,1.13,1.13,0,0,0-.41.05,1.41,1.41,0,0,0-.38.21,1.3,1.3,0,0,0-.35.45l-.06.13a.85.85,0,0,1,.32,0,.42.42,0,0,1,.23.33.53.53,0,0,1,0,.28.47.47,0,0,1-.61.18.37.37,0,0,1-.22-.29,1.48,1.48,0,0,1,0-.21,1.41,1.41,0,0,1,.12-.49,1.45,1.45,0,0,1,.2-.34l.25-.25a1.08,1.08,0,0,1,.34-.21,1.28,1.28,0,0,1,.33-.11,1.71,1.71,0,0,1,.45,0l.37.05a1.64,1.64,0,0,1,.48.18,1.46,1.46,0,0,1,.24.17.8.8,0,0,1,.17.15,1.54,1.54,0,0,1,.21.29,1.44,1.44,0,0,1,.15.41,1.57,1.57,0,0,1,0,.23,1.76,1.76,0,0,1,0,.23,1.27,1.27,0,0,1-.05.34,1.33,1.33,0,0,1-.13.33,2.2,2.2,0,0,1-.21.32l-.27.3-.18.19-.22.21-.26.24-.28.24-.21.2a.86.86,0,0,0-.14.13l-.24.23-.19.18-.19.19-.12.11Z" transform="translate(-541.5 -327.03)"/><path d="M755.67,363.58a1.73,1.73,0,0,1-.53.17,3.66,3.66,0,0,1-.57.05v-.27h.34a2.15,2.15,0,0,0,.57-.13,1.66,1.66,0,0,0,.45-.25l.15-.13h.15s.06,0,.06.08,0,.23,0,.35V368a.21.21,0,0,0,.05.17.3.3,0,0,0,.1.07l.21,0,.21,0h.47v.26h-2.51l-.21,0v-.27h.56l.29-.05a.22.22,0,0,0,.19-.18V368c0-1.47,0-2.93,0-4.4Z" transform="translate(-541.5 -327.03)"/><path d="M758.06,371.92v.41h-4.25v-.41Z" transform="translate(-541.5 -327.03)"/><path d="M576.91,379.35h1.83l.3,0,.11,0s.05,0,.06-.05a1,1,0,0,0,.09-.29l.06-.3s0-.07,0-.1l0,0h.2l-.24,1.45h-3.12a.58.58,0,0,1,0-.23l0-.06.27-.3.22-.24.28-.3.15-.18.29-.32.16-.17.28-.31.28-.35c.08-.12.16-.24.23-.36a2,2,0,0,0,.14-.25,2.09,2.09,0,0,0,.18-.55,1.75,1.75,0,0,0,0-.46,1.45,1.45,0,0,0-.14-.57,1.09,1.09,0,0,0-.29-.41.92.92,0,0,0-.3-.18,1.23,1.23,0,0,0-.32-.07,1.13,1.13,0,0,0-.41.05,1.41,1.41,0,0,0-.38.21,1.3,1.3,0,0,0-.35.45l-.06.13a.85.85,0,0,1,.32,0,.42.42,0,0,1,.23.33.53.53,0,0,1,0,.28.47.47,0,0,1-.61.18.37.37,0,0,1-.22-.29,1.48,1.48,0,0,1,0-.21,1.41,1.41,0,0,1,.12-.49,1.45,1.45,0,0,1,.2-.34l.25-.25a1.08,1.08,0,0,1,.34-.21,1.28,1.28,0,0,1,.33-.11,1.71,1.71,0,0,1,.45,0l.37.05a1.64,1.64,0,0,1,.48.18,1.46,1.46,0,0,1,.24.17.8.8,0,0,1,.17.15,1.54,1.54,0,0,1,.21.29,1.44,1.44,0,0,1,.15.41,1.57,1.57,0,0,1,0,.23,1.76,1.76,0,0,1,0,.23,1.27,1.27,0,0,1-.05.34,1.33,1.33,0,0,1-.13.33,2.2,2.2,0,0,1-.21.32l-.27.3-.18.19-.22.21-.26.24-.28.24-.21.2a.86.86,0,0,0-.14.13l-.24.23-.19.18-.19.19-.12.11Z" transform="translate(-541.5 -327.03)"/><path d="M577.67,363.58a1.73,1.73,0,0,1-.53.17,3.66,3.66,0,0,1-.57.05v-.27h.34a2.15,2.15,0,0,0,.57-.13,1.66,1.66,0,0,0,.45-.25l.15-.13h.15s.06,0,.06.08,0,.23,0,.35V368a.21.21,0,0,0,.05.17.3.3,0,0,0,.1.07l.21,0,.21,0h.47v.26h-2.51l-.21,0v-.27h.56l.29-.05a.22.22,0,0,0,.19-.18V368c0-1.47,0-2.93,0-4.4Z" transform="translate(-541.5 -327.03)"/><path d="M580.06,371.92v.41h-4.25v-.41Z" transform="translate(-541.5 -327.03)"/><path d="M585.45,447l-.2,0a.61.61,0,0,1-.28-.2.48.48,0,0,1,0-.62.38.38,0,0,1,.35-.12.25.25,0,0,1,.23.31.4.4,0,0,1-.36.36h0v0a.51.51,0,0,0,.39.11.36.36,0,0,0,.24-.15,1.09,1.09,0,0,0,.17-.34,5,5,0,0,0,.16-.67c.09-.43.17-.86.25-1.3l.27-1.4c0-.21.08-.41.11-.61v0h-.6c-.13,0-.14-.08-.1-.17s0-.05.08-.06h.67a1.55,1.55,0,0,1,0-.21c.06-.29.11-.58.18-.87a1.62,1.62,0,0,1,.23-.56.94.94,0,0,1,.49-.41.82.82,0,0,1,.73.06.45.45,0,0,1,.24.43.42.42,0,0,1-.31.43.29.29,0,0,1-.3,0,.2.2,0,0,1-.1-.18.41.41,0,0,1,.35-.44h0a.47.47,0,0,0-.12-.09.68.68,0,0,0-.28,0,.38.38,0,0,0-.3.22.87.87,0,0,0-.07.17c-.07.31-.13.62-.19.93s-.07.39-.11.58v0h.7l.09,0a.06.06,0,0,1,.06.06v.05a.11.11,0,0,1-.12.11h-.78c0,.07,0,.14,0,.21-.06.31-.11.61-.17.91l-.18.93a9.15,9.15,0,0,1-.22,1,6.39,6.39,0,0,1-.24.74,1.82,1.82,0,0,1-.32.51.88.88,0,0,1-.4.29l-.12,0Z" transform="translate(-541.5 -327.03)"/><path d="M569.15,447l-.12,0a.74.74,0,0,1-.28-.14.47.47,0,0,1-.16-.43.46.46,0,0,1,.17-.31.39.39,0,0,1,.36-.07.24.24,0,0,1,.18.24.41.41,0,0,1-.35.42h-.06l0,0a.5.5,0,0,0,.37.11.35.35,0,0,0,.24-.15.9.9,0,0,0,.16-.29,4.47,4.47,0,0,0,.16-.63l.21-1.08.21-1.1c.06-.3.11-.59.17-.89l.07-.35h-.63c-.06,0-.1,0-.1-.07s0-.14.08-.15l.1,0h.58a1.84,1.84,0,0,0,.05-.25l.18-.85a1.81,1.81,0,0,1,.22-.54,1,1,0,0,1,.67-.46.8.8,0,0,1,.62.15.49.49,0,0,1,.05.71.4.4,0,0,1-.37.12.26.26,0,0,1-.21-.32.41.41,0,0,1,.35-.35h0l0,0a.52.52,0,0,0-.34-.09.37.37,0,0,0-.33.22.88.88,0,0,0,0,.15c-.07.29-.13.57-.18.86s-.08.42-.12.63c0,0,0,0,0,.07h.7l.1,0a.05.05,0,0,1,0,.06h0c0,.11,0,.15-.14.15H571c0,.08,0,.16,0,.23-.05.29-.11.59-.16.88l-.21,1.08a10.84,10.84,0,0,1-.25,1.13,4.32,4.32,0,0,1-.24.63,1.84,1.84,0,0,1-.41.54.87.87,0,0,1-.33.17h-.22Z" transform="translate(-541.5 -327.03)"/><path d="M593,446.54H588.7s-.06,0-.08,0,0-.06,0-.09l.33-.59.66-1.18.72-1.32.3-.53a.18.18,0,0,1,.21-.11.11.11,0,0,1,.11.07c0,.07.09.14.13.22l.6,1.09.75,1.34.56,1h0Zm-.79-.44-1.59-2.86-1.58,2.86Z" transform="translate(-541.5 -327.03)"/><path d="M562.76,443.46l0,0a.12.12,0,0,1,.11-.07l.12,0h4.36a.15.15,0,0,1,.12.21.11.11,0,0,1-.08.08l-.15,0H562.9a.15.15,0,0,1-.12-.08l0,0Z" transform="translate(-541.5 -327.03)"/><path d="M574.36,444.48a.4.4,0,0,0-.18-.1.83.83,0,0,0-.8.13,1.2,1.2,0,0,0-.42.55,2.42,2.42,0,0,0-.18.75.66.66,0,0,0,.08.39.49.49,0,0,0,.43.25,1.64,1.64,0,0,0,.89-.22,1.3,1.3,0,0,0,.31-.26l0,0c.05-.05.08-.05.13,0s0,.06,0,.1a.86.86,0,0,1-.18.2,1.44,1.44,0,0,1-.62.3,1.89,1.89,0,0,1-.71.06.94.94,0,0,1-.55-.26.93.93,0,0,1-.27-.55,1.23,1.23,0,0,1,.22-.83,1.62,1.62,0,0,1,1-.74,1.14,1.14,0,0,1,.73,0,.51.51,0,0,1,.25.18.39.39,0,0,1,0,.49.31.31,0,0,1-.26.08.19.19,0,0,1-.16-.21.31.31,0,0,1,.22-.28Z" transform="translate(-541.5 -327.03)"/><path d="M579.75,443.67h-2.14l-.13,0a.12.12,0,0,1-.1-.12c0-.11,0-.16.15-.17h4.34l.13,0a.13.13,0,0,1,.11.14.13.13,0,0,1-.1.14l-.13,0Z" transform="translate(-541.5 -327.03)"/><path d="M638.7,447l-.2,0a.54.54,0,0,1-.27-.2.48.48,0,0,1,0-.62.39.39,0,0,1,.35-.12.25.25,0,0,1,.23.31.39.39,0,0,1-.36.36h0v0a.49.49,0,0,0,.39.11.36.36,0,0,0,.23-.15,1.09,1.09,0,0,0,.17-.34c.07-.22.12-.44.17-.67l.24-1.3.27-1.4.12-.61v0h-.6c-.14,0-.14-.08-.11-.17s0-.05.08-.06h.67c0-.07,0-.14,0-.21l.18-.87a1.84,1.84,0,0,1,.23-.56.94.94,0,0,1,.49-.41.82.82,0,0,1,.73.06.45.45,0,0,1,.24.43.42.42,0,0,1-.31.43.29.29,0,0,1-.3,0,.25.25,0,0,1-.1-.18.42.42,0,0,1,.35-.44h0a.34.34,0,0,0-.12-.09.66.66,0,0,0-.28,0,.4.4,0,0,0-.3.22.49.49,0,0,0-.06.17c-.08.31-.14.62-.2.93s-.07.39-.1.58a0,0,0,0,1,0,0h.7l.1,0a.06.06,0,0,1,.05.06v.05c0,.07,0,.11-.11.11h-.79a1.55,1.55,0,0,1,0,.21c0,.31-.11.61-.17.91s-.11.62-.17.93-.13.7-.23,1a4,4,0,0,1-.24.74,2,2,0,0,1-.31.51.91.91,0,0,1-.41.29l-.12,0Z" transform="translate(-541.5 -327.03)"/><path d="M622.4,447l-.12,0a.74.74,0,0,1-.28-.14.5.5,0,0,1-.16-.43.46.46,0,0,1,.17-.31.39.39,0,0,1,.36-.07.24.24,0,0,1,.18.24.4.4,0,0,1-.35.42h-.06l0,0a.51.51,0,0,0,.37.11.37.37,0,0,0,.25-.15.89.89,0,0,0,.15-.29,4.5,4.5,0,0,0,.17-.63c.07-.36.14-.72.2-1.08l.21-1.1c.06-.3.11-.59.17-.89l.07-.35h-.62c-.07,0-.1,0-.11-.07a.12.12,0,0,1,.08-.15l.1,0h.59c0-.08,0-.16,0-.25L624,441a1.83,1.83,0,0,1,.23-.54,1,1,0,0,1,.66-.46.8.8,0,0,1,.62.15.48.48,0,0,1,.05.71.39.39,0,0,1-.37.12.26.26,0,0,1-.21-.32.41.41,0,0,1,.35-.35h0l0,0a.5.5,0,0,0-.34-.09.36.36,0,0,0-.32.22.47.47,0,0,0-.06.15l-.18.86-.12.63a.2.2,0,0,1,0,.07h.7l.1,0a.06.06,0,0,1,0,.06s0,0,0,0,0,.15-.15.15h-.75c0,.08,0,.16,0,.23-.06.29-.11.59-.17.88s-.14.72-.2,1.08a10.88,10.88,0,0,1-.26,1.13,4.32,4.32,0,0,1-.24.63,1.68,1.68,0,0,1-.41.54.87.87,0,0,1-.33.17h-.22Z" transform="translate(-541.5 -327.03)"/><path d="M646.28,446.54H642s-.06,0-.08,0,0-.06,0-.09l.33-.59.66-1.18.72-1.32.3-.53a.18.18,0,0,1,.22-.11.12.12,0,0,1,.11.07l.12.22.6,1.09.75,1.34c.19.33.37.67.56,1h0Zm-.8-.44-1.58-2.86-1.59,2.86Z" transform="translate(-541.5 -327.03)"/><path d="M616,443.46l0,0a.14.14,0,0,1,.11-.07l.13,0h4.36a.15.15,0,0,1,.11.21.11.11,0,0,1-.08.08l-.15,0h-4.36a.16.16,0,0,1-.12-.08l0,0Z" transform="translate(-541.5 -327.03)"/><path d="M633.16,443.67v2.17a.77.77,0,0,1,0,.15.13.13,0,0,1-.14.09.13.13,0,0,1-.14-.1.37.37,0,0,1,0-.11v-2.2h-2.2a.32.32,0,0,1-.14,0c-.06,0-.09-.06-.09-.13a.13.13,0,0,1,.08-.13l.15,0h2.2v-2.2a.41.41,0,0,1,0-.11.14.14,0,0,1,.15-.1.14.14,0,0,1,.14.12.53.53,0,0,1,0,.13v2.16h2.17l.14,0a.15.15,0,0,1,0,.28l-.13,0h-2.18Z" transform="translate(-541.5 -327.03)"/><path d="M627.61,444.48a.42.42,0,0,0-.17-.1.85.85,0,0,0-.81.13,1.23,1.23,0,0,0-.42.56,2.5,2.5,0,0,0-.17.65,1,1,0,0,0,0,.39.49.49,0,0,0,.39.33,1,1,0,0,0,.34,0,1.45,1.45,0,0,0,.73-.28,1,1,0,0,0,.21-.2l0,0a.09.09,0,0,1,.13,0s0,.06,0,.1a.54.54,0,0,1-.14.16,1.61,1.61,0,0,1-.8.38,1.75,1.75,0,0,1-.51,0,.94.94,0,0,1-.61-.26.8.8,0,0,1-.24-.42,1.18,1.18,0,0,1,.06-.72,1.66,1.66,0,0,1,.8-.85,1.3,1.3,0,0,1,.57-.17,1.1,1.1,0,0,1,.57.08.41.41,0,0,1,.25.32.36.36,0,0,1-.14.36.33.33,0,0,1-.21.05.2.2,0,0,1-.16-.26.31.31,0,0,1,.21-.23Z" transform="translate(-541.5 -327.03)"/><path d="M710.45,447l-.2,0a.61.61,0,0,1-.28-.2.48.48,0,0,1,0-.62.38.38,0,0,1,.35-.12.25.25,0,0,1,.23.31.4.4,0,0,1-.36.36h0v0a.51.51,0,0,0,.39.11.36.36,0,0,0,.24-.15,1.09,1.09,0,0,0,.17-.34,5,5,0,0,0,.16-.67c.09-.43.17-.86.25-1.3l.27-1.4c0-.21.08-.41.11-.61v0h-.6c-.13,0-.14-.08-.1-.17s0-.05.08-.06h.67a1.55,1.55,0,0,1,0-.21c.06-.29.11-.58.18-.87a1.62,1.62,0,0,1,.23-.56.94.94,0,0,1,.49-.41.82.82,0,0,1,.73.06.45.45,0,0,1,.24.43.42.42,0,0,1-.31.43.29.29,0,0,1-.3,0,.2.2,0,0,1-.1-.18.41.41,0,0,1,.35-.44h0a.47.47,0,0,0-.12-.09.68.68,0,0,0-.28,0,.38.38,0,0,0-.3.22.87.87,0,0,0-.07.17c-.07.31-.13.62-.19.93s-.07.39-.11.58v0h.7l.09,0a.06.06,0,0,1,.06.06v.05a.11.11,0,0,1-.12.11h-.78c0,.07,0,.14,0,.21-.06.31-.11.61-.17.91l-.18.93a9.15,9.15,0,0,1-.22,1,6.39,6.39,0,0,1-.24.74,1.82,1.82,0,0,1-.32.51.88.88,0,0,1-.4.29l-.12,0Z" transform="translate(-541.5 -327.03)"/><path d="M694.15,447l-.12,0a.74.74,0,0,1-.28-.14.47.47,0,0,1-.16-.43.46.46,0,0,1,.17-.31.39.39,0,0,1,.36-.07.24.24,0,0,1,.18.24.41.41,0,0,1-.35.42h-.06l0,0a.5.5,0,0,0,.37.11.35.35,0,0,0,.24-.15.9.9,0,0,0,.16-.29,4.47,4.47,0,0,0,.16-.63l.21-1.08.21-1.1c.06-.3.11-.59.17-.89l.07-.35h-.63c-.06,0-.1,0-.1-.07s0-.14.08-.15l.1,0h.58a1.84,1.84,0,0,0,.05-.25l.18-.85a1.81,1.81,0,0,1,.22-.54,1,1,0,0,1,.67-.46.8.8,0,0,1,.62.15.49.49,0,0,1,.05.71.4.4,0,0,1-.37.12.26.26,0,0,1-.21-.32.41.41,0,0,1,.35-.35h0l0,0a.52.52,0,0,0-.34-.09.37.37,0,0,0-.33.22.88.88,0,0,0,0,.15c-.07.29-.13.57-.18.86s-.08.42-.12.63c0,0,0,0,0,.07h.7l.1,0a.05.05,0,0,1,0,.06h0c0,.11,0,.15-.14.15H696c0,.08,0,.16,0,.23-.05.29-.11.59-.16.88l-.21,1.08a10.84,10.84,0,0,1-.25,1.13,4.32,4.32,0,0,1-.24.63,1.84,1.84,0,0,1-.41.54.87.87,0,0,1-.33.17h-.22Z" transform="translate(-541.5 -327.03)"/><path d="M718,446.54H713.7s-.06,0-.08,0,0-.06,0-.09l.33-.59.66-1.18.72-1.32.3-.53a.18.18,0,0,1,.21-.11.11.11,0,0,1,.11.07c0,.07.09.14.13.22l.6,1.09.75,1.34.56,1h0Zm-.79-.44-1.59-2.86-1.58,2.86Z" transform="translate(-541.5 -327.03)"/><path d="M699.36,444.48a.4.4,0,0,0-.18-.1.83.83,0,0,0-.8.13,1.2,1.2,0,0,0-.42.55,2.42,2.42,0,0,0-.18.75.66.66,0,0,0,.08.39.49.49,0,0,0,.43.25,1.64,1.64,0,0,0,.89-.22,1.3,1.3,0,0,0,.31-.26l0,0c.05-.05.08-.05.13,0s0,.06,0,.1a.86.86,0,0,1-.18.2,1.44,1.44,0,0,1-.62.3,1.89,1.89,0,0,1-.71.06.94.94,0,0,1-.55-.26.93.93,0,0,1-.27-.55,1.23,1.23,0,0,1,.22-.83,1.62,1.62,0,0,1,1-.74,1.14,1.14,0,0,1,.73,0,.51.51,0,0,1,.25.18.39.39,0,0,1,0,.49.31.31,0,0,1-.26.08.19.19,0,0,1-.16-.21.31.31,0,0,1,.22-.28Z" transform="translate(-541.5 -327.03)"/><path d="M704.75,443.67h-2.14l-.13,0a.12.12,0,0,1-.1-.12c0-.11,0-.16.15-.17h4.34l.13,0a.13.13,0,0,1,.11.14.13.13,0,0,1-.1.14l-.13,0Z" transform="translate(-541.5 -327.03)"/><path d="M762.7,447l-.2,0a.54.54,0,0,1-.27-.2.48.48,0,0,1,0-.62.39.39,0,0,1,.35-.12.25.25,0,0,1,.23.31.39.39,0,0,1-.36.36h0v0a.49.49,0,0,0,.39.11.36.36,0,0,0,.23-.15,1.09,1.09,0,0,0,.17-.34c.07-.22.12-.44.17-.67l.24-1.3.27-1.4.12-.61v0h-.6c-.14,0-.14-.08-.11-.17s0-.05.08-.06h.67c0-.07,0-.14,0-.21l.18-.87a1.84,1.84,0,0,1,.23-.56.94.94,0,0,1,.49-.41.82.82,0,0,1,.73.06.45.45,0,0,1,.24.43.42.42,0,0,1-.31.43.29.29,0,0,1-.3,0,.25.25,0,0,1-.1-.18.42.42,0,0,1,.35-.44h0a.34.34,0,0,0-.12-.09.66.66,0,0,0-.28,0,.4.4,0,0,0-.3.22.49.49,0,0,0-.06.17c-.08.31-.14.62-.2.93s-.07.39-.1.58a0,0,0,0,1,0,0h.7l.1,0a.06.06,0,0,1,.05.06v.05c0,.07,0,.11-.11.11h-.79a1.55,1.55,0,0,1,0,.21c0,.31-.11.61-.17.91s-.11.62-.17.93-.13.7-.23,1a4,4,0,0,1-.24.74,2,2,0,0,1-.31.51.91.91,0,0,1-.41.29l-.12,0Z" transform="translate(-541.5 -327.03)"/><path d="M746.4,447l-.12,0a.74.74,0,0,1-.28-.14.5.5,0,0,1-.16-.43.46.46,0,0,1,.17-.31.39.39,0,0,1,.36-.07.24.24,0,0,1,.18.24.4.4,0,0,1-.35.42h-.06l0,0a.51.51,0,0,0,.37.11.37.37,0,0,0,.25-.15.89.89,0,0,0,.15-.29,4.5,4.5,0,0,0,.17-.63c.07-.36.14-.72.2-1.08l.21-1.1c.06-.3.11-.59.17-.89l.07-.35h-.62c-.07,0-.1,0-.11-.07a.12.12,0,0,1,.08-.15l.1,0h.59c0-.08,0-.16,0-.25L748,441a1.83,1.83,0,0,1,.23-.54,1,1,0,0,1,.66-.46.8.8,0,0,1,.62.15.48.48,0,0,1,.05.71.39.39,0,0,1-.37.12.26.26,0,0,1-.21-.32.41.41,0,0,1,.35-.35h0l0,0a.5.5,0,0,0-.34-.09.36.36,0,0,0-.32.22.47.47,0,0,0-.06.15l-.18.86-.12.63a.2.2,0,0,1,0,.07h.7l.1,0a.06.06,0,0,1,0,.06s0,0,0,0,0,.15-.15.15h-.75c0,.08,0,.16,0,.23-.06.29-.11.59-.17.88s-.14.72-.2,1.08a10.88,10.88,0,0,1-.26,1.13,4.32,4.32,0,0,1-.24.63,1.68,1.68,0,0,1-.41.54.87.87,0,0,1-.33.17h-.22Z" transform="translate(-541.5 -327.03)"/><path d="M770.28,446.54H766s-.06,0-.08,0,0-.06,0-.09l.33-.59.66-1.18.72-1.32.3-.53a.18.18,0,0,1,.22-.11.12.12,0,0,1,.11.07l.12.22.6,1.09.75,1.34c.19.33.37.67.56,1h0Zm-.8-.44-1.58-2.86-1.59,2.86Z" transform="translate(-541.5 -327.03)"/><path d="M757.16,443.67v2.17a.77.77,0,0,1,0,.15.13.13,0,0,1-.14.09.13.13,0,0,1-.14-.1.37.37,0,0,1,0-.11v-2.2h-2.2a.32.32,0,0,1-.14,0c-.06,0-.09-.06-.09-.13a.13.13,0,0,1,.08-.13l.15,0h2.2v-2.2a.41.41,0,0,1,0-.11.14.14,0,0,1,.15-.1.14.14,0,0,1,.14.12.53.53,0,0,1,0,.13v2.16h2.17l.14,0a.15.15,0,0,1,0,.28l-.13,0h-2.18Z" transform="translate(-541.5 -327.03)"/><path d="M751.61,444.48a.42.42,0,0,0-.17-.1.85.85,0,0,0-.81.13,1.23,1.23,0,0,0-.42.56,2.5,2.5,0,0,0-.17.65,1,1,0,0,0,0,.39.49.49,0,0,0,.39.33,1,1,0,0,0,.34,0,1.45,1.45,0,0,0,.73-.28,1,1,0,0,0,.21-.2l0,0a.09.09,0,0,1,.13,0s0,.06,0,.1a.54.54,0,0,1-.14.16,1.61,1.61,0,0,1-.8.38,1.75,1.75,0,0,1-.51,0,.94.94,0,0,1-.61-.26.8.8,0,0,1-.24-.42,1.18,1.18,0,0,1,.06-.72,1.66,1.66,0,0,1,.8-.85,1.3,1.3,0,0,1,.57-.17,1.1,1.1,0,0,1,.57.08.41.41,0,0,1,.25.32.36.36,0,0,1-.14.36.33.33,0,0,1-.21.05.2.2,0,0,1-.16-.26.31.31,0,0,1,.21-.23Z" transform="translate(-541.5 -327.03)"/></svg>