<svg id="Layer_1" data-name="Layer 1" xmlns="http://www.w3.org/2000/svg" viewBox="0 0 257 116.98">
  <defs>
    <style>
      .cls-1, .cls-10, .cls-3, .cls-5, .cls-6, .cls-7, .cls-8, .cls-9 {
        fill: none;
        stroke-miterlimit: 10;
      }

      .cls-1, .cls-7, .cls-8 {
        stroke: blue;
      }

      .cls-1, .cls-3, .cls-7 {
        stroke-width: 0.5px;
      }

      .cls-2 {
        fill: blue;
      }

      .cls-3, .cls-9 {
        stroke: red;
      }

      .cls-4 {
        fill: red;
      }

      .cls-5, .cls-6 {
        stroke: #42210b;
      }

      .cls-6 {
        stroke-dasharray: 4.912 4.912;
      }

      .cls-7 {
        stroke-dasharray: 5.154 5.154;
      }

      .cls-8, .cls-9 {
        fill-rule: evenodd;
      }

      .cls-10 {
        stroke: #000;
      }

      .cls-11 {
        font-size: 12px;
      }

      .cls-11, .cls-12 {
        font-family: TimesNewRomanPSMT, Times New Roman;
      }

      .cls-12 {
        font-size: 5px;
      }
    </style>
  </defs>
  <title>binary_sn</title>
  <g>
    <line class="cls-1" x1="122.5" y1="21.563" x2="145.912" y2="21.563"/>
    <polygon class="cls-2" points="145.183 24.055 149.5 21.563 145.183 19.07 145.183 24.055"/>
  </g>
  <g>
    <line class="cls-3" x1="122.5" y1="21.563" x2="99.088" y2="21.563"/>
    <polygon class="cls-4" points="99.817 19.07 95.5 21.562 99.817 24.055 99.817 19.07"/>
  </g>
  <g>
    <line class="cls-5" x1="122.5" y1="13.063" x2="122.5" y2="15.563"/>
    <line class="cls-6" x1="122.5" y1="20.474" x2="122.5" y2="96.607"/>
    <line class="cls-5" x1="122.5" y1="99.063" x2="122.5" y2="101.563"/>
  </g>
  <g>
    <line class="cls-1" x1="158.5" y1="29.563" x2="158.5" y2="32.063"/>
    <line class="cls-7" x1="158.5" y1="37.216" x2="158.5" y2="96.486"/>
    <line class="cls-1" x1="158.5" y1="99.063" x2="158.5" y2="101.563"/>
  </g>
  <path class="cls-8" d="M762,405.5c-38.772-.579-42.911-29.539-47.287-39.965S704.5,333.5,691.374,333.5s-18.962,21.609-23.338,32.035-8.515,39.386-47.287,39.965" transform="translate(-532.5 -303.438)"/>
  <path class="cls-9" d="M689,405.5c-38.772-.579-42.911-29.539-47.287-39.965S631.5,333.5,618.374,333.5s-18.962,21.609-23.338,32.035-8.515,39.386-47.287,39.965" transform="translate(-532.5 -303.438)"/>
  <g>
    <line class="cls-10" y1="102.063" x2="253.412" y2="102.063"/>
    <polygon points="252.683 104.555 257 102.063 252.683 99.57 252.683 104.555"/>
  </g>
  <g>
    <line class="cls-10" x1="86" y1="102.063" x2="86" y2="7.65"/>
    <polygon points="88.493 8.38 86 4.063 83.507 8.38 88.493 8.38"/>
  </g>
  <text class="cls-11" transform="translate(82.996 113.301)">0</text>
  <g>
    <path d="M770.12,414.136a.184.184,0,0,0,.05-.017c.208-.16.421-.5.684-.2.132.151.045.494.059.8a.768.768,0,0,0,.769-.607,16.859,16.859,0,0,0,.522-2.088c.038-.209-.09-.6-.235-.655a.865.865,0,0,0-.738.167,5.544,5.544,0,0,0-.692.975,1.2,1.2,0,0,1,.632-1.318,1.048,1.048,0,0,1,1.5.178,5.376,5.376,0,0,1,1.287-.363.583.583,0,0,1,.484.929c-.121.131-.393.12-.6.174l-.13-.823c-.357-.111-.6.215-.72.582a17.627,17.627,0,0,0-.546,2.135.73.73,0,0,0,.247.638.823.823,0,0,0,.7-.185,6.568,6.568,0,0,0,.731-.956,1.334,1.334,0,0,1-.694,1.35c-.446.281-.963.162-1.582-.366q-.652.945-1.732.177Z" transform="translate(-532.5 -303.438)"/>
    <path d="M782.633,417.08v-.4l.812-.037V408.8l-.812-.046v-.4H784v8.728Z" transform="translate(-532.5 -303.438)"/>
    <path d="M775.8,417.08v-8.728h1.262v.4l-.812.037v7.844l.812.045v.4Z" transform="translate(-532.5 -303.438)"/>
    <path d="M779.3,411.639a1.671,1.671,0,0,1,1.461-.658.87.87,0,0,1,.848,1.075c-.167.715-.391,1.416-.562,2.129a1.767,1.767,0,0,0,.046.554,1.8,1.8,0,0,0,.48-.3,4.537,4.537,0,0,0,.334-.625,4.43,4.43,0,0,1,.354-.439c-.085,1.083-.514,1.617-1.179,1.606a.68.68,0,0,1-.7-.964,17.887,17.887,0,0,0,.552-2.125c.09-.593-.281-.8-.843-.507a1.644,1.644,0,0,0-.932,1.108c-.155.7-.321,1.4-.538,2.08-.053.169-.321.27-.49.4-.046-.163-.157-.339-.127-.487.175-.854.4-1.7.567-2.552a1.737,1.737,0,0,0-.13-.626,2.821,2.821,0,0,0-.427.434,4.314,4.314,0,0,0-.224.569c-.027.06-.114.092-.173.137-.042-.078-.115-.156-.117-.235a.925.925,0,0,1,.088-.291c.132-.391.237-.83.71-.928S779.083,411.162,779.3,411.639Z" transform="translate(-532.5 -303.438)"/>
  </g>
  <g>
    <path d="M687.466,413.854a1.362,1.362,0,0,1,.065-.179.474.474,0,0,1,.359-.261.408.408,0,0,1,.259.037.257.257,0,0,1,.138.189.48.48,0,0,1-.36.549,1.1,1.1,0,0,1-.19.018.6.6,0,0,0,.169.219.823.823,0,0,0,.321.167,1.718,1.718,0,0,0,.273.056,2.915,2.915,0,0,0,.385.013,1.421,1.421,0,0,0,.5-.108,1.088,1.088,0,0,0,.326-.2,1.012,1.012,0,0,0,.264-.391.739.739,0,0,0,.058-.311.51.51,0,0,0-.115-.306.683.683,0,0,0-.294-.2,2.818,2.818,0,0,0-.511-.131,1.705,1.705,0,0,1-.515-.17.762.762,0,0,1-.38-.442,1.005,1.005,0,0,1,.018-.615,1.261,1.261,0,0,1,.212-.408,1.636,1.636,0,0,1,.151-.17,1.314,1.314,0,0,1,.377-.251,1.6,1.6,0,0,1,.365-.111,1.373,1.373,0,0,1,.193-.021c.086,0,.172-.01.258-.006a1.379,1.379,0,0,1,.486.108.894.894,0,0,1,.309.216.649.649,0,0,1,.172.363.628.628,0,0,1-.054.363.374.374,0,0,1-.293.216.3.3,0,0,1-.259-.06.241.241,0,0,1-.081-.159.418.418,0,0,1,.357-.433l.075-.01c-.027-.043-.049-.086-.078-.124a.7.7,0,0,0-.387-.235,1.308,1.308,0,0,0-.427-.044,1.194,1.194,0,0,0-.407.089.84.84,0,0,0-.283.19.813.813,0,0,0-.217.416.493.493,0,0,0,.039.325.4.4,0,0,0,.177.174,1.3,1.3,0,0,0,.362.119c.115.025.232.046.346.075s.2.054.3.088a.878.878,0,0,1,.3.19,1.01,1.01,0,0,1,.241.327.884.884,0,0,1,.076.286,1.211,1.211,0,0,1-.106.575,1.538,1.538,0,0,1-.54.674,1.529,1.529,0,0,1-.479.227,2.819,2.819,0,0,1-.331.07,2.617,2.617,0,0,1-.28.02,2.167,2.167,0,0,1-.228,0,1.963,1.963,0,0,1-.429-.078,1.226,1.226,0,0,1-.389-.195.767.767,0,0,1-.287-.432l-.007-.026Z" transform="translate(-532.5 -303.438)"/>
    <path d="M695.709,411.58a2.843,2.843,0,0,1,.306-.333,1.422,1.422,0,0,1,.313-.227c.092-.047.188-.087.284-.125a.954.954,0,0,1,.289-.064,2.448,2.448,0,0,1,.308-.012,1.067,1.067,0,0,1,.571.179.787.787,0,0,1,.243.27.878.878,0,0,1,.108.348,1.166,1.166,0,0,1,.011.195,2.78,2.78,0,0,1-.037.287,4.214,4.214,0,0,1-.167.652c-.079.241-.16.482-.244.721-.063.178-.134.353-.2.531a1.251,1.251,0,0,0-.061.311.639.639,0,0,0,.02.226.181.181,0,0,0,.175.126.6.6,0,0,0,.426-.17,1.285,1.285,0,0,0,.255-.331,2.974,2.974,0,0,0,.246-.6c.011-.038.026-.074.038-.111a.059.059,0,0,1,.05-.047.417.417,0,0,1,.117.007c.035.008.051.062.039.111a2.759,2.759,0,0,1-.167.483,2.143,2.143,0,0,1-.275.463,1.14,1.14,0,0,1-.33.292.813.813,0,0,1-.365.106.753.753,0,0,1-.458-.119.678.678,0,0,1-.3-.457.809.809,0,0,1-.018-.154.84.84,0,0,1,.037-.254c.061-.171.124-.341.184-.512.073-.207.147-.413.213-.622.061-.193.115-.388.165-.584a2.73,2.73,0,0,0,.059-.337,1.6,1.6,0,0,0,.012-.285.653.653,0,0,0-.107-.354.388.388,0,0,0-.248-.157.957.957,0,0,0-.395.017,1.237,1.237,0,0,0-.338.124,1.418,1.418,0,0,0-.282.192c-.043.038-.087.074-.126.114a2.429,2.429,0,0,0-.358.474.783.783,0,0,0-.058.106,1.519,1.519,0,0,0-.06.176c-.028.105-.053.21-.08.316l-.108.432c-.04.156-.08.312-.119.469-.069.277-.136.554-.206.832-.028.113-.053.228-.092.338a.346.346,0,0,1-.3.244.266.266,0,0,1-.218-.061.212.212,0,0,1-.072-.208c.039-.185.082-.368.127-.551.064-.263.131-.524.2-.786l.2-.812c.051-.2.1-.4.15-.6.025-.1.041-.209.057-.315a.73.73,0,0,0-.026-.344.242.242,0,0,0-.3-.167.444.444,0,0,0-.3.228,1.728,1.728,0,0,0-.194.442c-.042.142-.078.285-.117.427-.009.03-.016.061-.027.091a.113.113,0,0,1-.145.075c-.084-.02-.1-.06-.072-.149.049-.189.1-.378.161-.565a1.53,1.53,0,0,1,.247-.486.631.631,0,0,1,.408-.26,1.087,1.087,0,0,1,.221,0,.717.717,0,0,1,.312.1.756.756,0,0,1,.3.3.988.988,0,0,1,.11.334A.28.28,0,0,1,695.709,411.58Z" transform="translate(-532.5 -303.438)"/>
    <path d="M700.137,408.427h-.864v-.36h1.233V417h-1.233v-.36h.864Z" transform="translate(-532.5 -303.438)"/>
    <path d="M693.493,416.638V417H692.26v-8.933h1.233v.36h-.87v8.211Z" transform="translate(-532.5 -303.438)"/>
  </g>
  <g>
    <path class="cls-2" d="M734.57,348.905h1.876c.033-.109.065-.217.1-.325.158-.526.325-1.048.524-1.56.028-.072.056-.145.087-.216a.358.358,0,0,1,.118-.149.982.982,0,0,1,.326-.172.3.3,0,0,1,.084-.013c.056,0,.079.028.063.081s-.042.114-.062.171c-.137.389-.278.777-.408,1.168q-.255.767-.444,1.553c-.069.284-.13.57-.173.859-.024.156-.039.314-.056.472a1.511,1.511,0,0,0-.01.151.272.272,0,0,0,.286.287c.1-.006.194-.02.291-.032a.1.1,0,0,0,.086-.062.643.643,0,0,1,.39-.341.4.4,0,0,1,.157-.036c.055,0,.073.026.064.082a.41.41,0,0,1-.078.174,1.242,1.242,0,0,1-.4.354,1.855,1.855,0,0,1-.807.247,1.062,1.062,0,0,1-.308-.008.353.353,0,0,1-.283-.311,1.141,1.141,0,0,1,.007-.268c.015-.159.038-.318.066-.476q.058-.326.129-.65c.044-.2.1-.394.142-.591l.011-.05h-.018a.591.591,0,0,1-.275.054h-1.6c-.015.049-.029.093-.042.139q-.223.774-.512,1.527c-.025.066-.054.131-.077.2a.438.438,0,0,1-.16.216.9.9,0,0,1-.3.154.383.383,0,0,1-.1.014c-.049,0-.067-.027-.054-.074a.751.751,0,0,1,.031-.091c.182-.472.346-.952.5-1.435.063-.2.124-.407.186-.611l.01-.035-.057,0h-.5a.414.414,0,0,1-.07-.006.039.039,0,0,1-.034-.056.238.238,0,0,1,.049-.081.816.816,0,0,1,.452-.244.463.463,0,0,1,.065,0h.206c.018-.071.037-.138.052-.207.044-.2.09-.395.129-.594.032-.16.056-.322.079-.484.019-.135.034-.27.047-.406a.328.328,0,0,0-.056-.241.271.271,0,0,0-.154-.1.652.652,0,0,0-.2-.014,1.525,1.525,0,0,0-.3.041.839.839,0,0,0-.508.354,1.835,1.835,0,0,0-.124.2.7.7,0,0,1-.361.32,1.651,1.651,0,0,1-.173.053.108.108,0,0,1-.04,0c-.042-.007-.057-.028-.043-.068a.94.94,0,0,1,.059-.134,1.851,1.851,0,0,1,.291-.4,2.312,2.312,0,0,1,.6-.458,2.441,2.441,0,0,1,.792-.272,2.318,2.318,0,0,1,.363-.029.64.64,0,0,1,.233.038.335.335,0,0,1,.23.326,1.981,1.981,0,0,1-.015.243c-.013.122-.029.244-.046.366a6.989,6.989,0,0,1-.137.746q-.086.336-.173.672C734.575,348.874,734.573,348.887,734.57,348.905Z" transform="translate(-532.5 -303.438)"/>
    <path class="cls-2" d="M713.51,348.674l.025-.022a1.793,1.793,0,0,1,.413-.349.916.916,0,0,1,.627-.132.866.866,0,0,1,.577.371,1.153,1.153,0,0,1,.2.55,1.994,1.994,0,0,1-.188,1.064,2.346,2.346,0,0,1-.5.714,1.7,1.7,0,0,1-.665.415,1.053,1.053,0,0,1-.328.054.664.664,0,0,1-.567-.3c-.028-.042-.053-.086-.084-.136-.012.044-.024.083-.034.123-.1.389-.195.779-.291,1.169a.473.473,0,0,0-.015.1c0,.045.011.067.057.077a1.458,1.458,0,0,0,.174.025c.064,0,.129,0,.193.006a.2.2,0,0,1,.054.01.051.051,0,0,1,.038.049.312.312,0,0,1,0,.075.1.1,0,0,1-.1.083c-.059,0-.118,0-.177,0l-.142,0c-.171,0-.341-.011-.512-.01-.15,0-.3.011-.45.02-.1,0-.138-.039-.113-.144a.1.1,0,0,1,.1-.076c.069,0,.139,0,.207-.01a.191.191,0,0,0,.2-.168c.039-.147.075-.3.113-.443q.178-.711.358-1.424l.243-.957c.042-.167.085-.334.125-.5a.988.988,0,0,0,.017-.387.393.393,0,0,0-.01-.044.19.19,0,0,0-.236-.145.316.316,0,0,0-.2.129.927.927,0,0,0-.153.3c-.042.128-.076.259-.114.388-.013.044-.025.088-.041.13a.1.1,0,0,1-.158.021.08.08,0,0,1-.009-.072c.013-.056.024-.113.039-.168a2.681,2.681,0,0,1,.154-.444.988.988,0,0,1,.2-.3.479.479,0,0,1,.334-.137.652.652,0,0,1,.432.146.6.6,0,0,1,.2.311Zm1.355.3h-.007c0-.052,0-.105-.011-.157a.735.735,0,0,0-.081-.275.386.386,0,0,0-.374-.223.641.641,0,0,0-.267.072,1.552,1.552,0,0,0-.538.461.6.6,0,0,0-.111.215q-.179.707-.354,1.414a.27.27,0,0,0-.009.109.894.894,0,0,0,.115.323.521.521,0,0,0,.243.228.5.5,0,0,0,.418-.014,1.057,1.057,0,0,0,.366-.29,1.845,1.845,0,0,0,.337-.62,6.023,6.023,0,0,0,.219-.837C714.835,349.245,714.847,349.109,714.865,348.974Z" transform="translate(-532.5 -303.438)"/>
    <path class="cls-2" d="M725.7,348.752c.07-.076.134-.15.2-.219a1.221,1.221,0,0,1,.745-.365,1.061,1.061,0,0,1,.548.065.65.65,0,0,1,.4.529,1.3,1.3,0,0,1-.035.5,7.1,7.1,0,0,1-.264.867c-.058.159-.118.316-.176.475a1.072,1.072,0,0,0-.07.335.478.478,0,0,0,.019.145.131.131,0,0,0,.132.1.456.456,0,0,0,.325-.12,1.063,1.063,0,0,0,.28-.4c.048-.112.085-.228.127-.342.006-.017.011-.035.017-.053.024-.072.037-.077.123-.07a.053.053,0,0,1,.051.059.167.167,0,0,1,0,.05,1.967,1.967,0,0,1-.325.7.834.834,0,0,1-.376.3.6.6,0,0,1-.638-.133.567.567,0,0,1-.154-.356.819.819,0,0,1,.054-.336c.093-.26.188-.52.277-.783a4.149,4.149,0,0,0,.176-.685,1.026,1.026,0,0,0-.006-.413.334.334,0,0,0-.351-.275,1.06,1.06,0,0,0-.692.261,1.816,1.816,0,0,0-.41.5.89.89,0,0,0-.088.247c-.1.411-.206.823-.309,1.234-.046.185-.092.37-.141.554a.281.281,0,0,1-.256.218.188.188,0,0,1-.216-.154.158.158,0,0,1,0-.065c.053-.227.106-.454.162-.68.081-.328.164-.655.246-.983q.069-.272.136-.545a.982.982,0,0,0,.035-.3.75.75,0,0,0-.028-.164.187.187,0,0,0-.228-.129.306.306,0,0,0-.2.125.987.987,0,0,0-.166.328c-.046.147-.086.3-.128.443l-.007.024a.094.094,0,0,1-.135.066.055.055,0,0,1-.044-.06.168.168,0,0,1,0-.045,3.491,3.491,0,0,1,.194-.618,1,1,0,0,1,.16-.251.5.5,0,0,1,.446-.171.626.626,0,0,1,.571.52Z" transform="translate(-532.5 -303.438)"/>
    <path class="cls-2" d="M744.919,348.758c.038-.046.072-.088.107-.128a1.31,1.31,0,0,1,.7-.438,1.143,1.143,0,0,1,.635.022.652.652,0,0,1,.451.549,1.3,1.3,0,0,1-.035.492,7.032,7.032,0,0,1-.264.866c-.057.161-.119.32-.177.48a1.106,1.106,0,0,0-.07.331.5.5,0,0,0,.018.144.13.13,0,0,0,.135.1.456.456,0,0,0,.324-.121,1.035,1.035,0,0,0,.241-.323,2.43,2.43,0,0,0,.161-.409q.015-.05.033-.1a.057.057,0,0,1,.062-.042h.01c.09-.006.1.04.086.106a1.878,1.878,0,0,1-.364.756.789.789,0,0,1-.339.251.6.6,0,0,1-.637-.135.567.567,0,0,1-.152-.351.783.783,0,0,1,.059-.355c.125-.33.246-.662.343-1a3.1,3.1,0,0,0,.113-.519.841.841,0,0,0-.036-.41.319.319,0,0,0-.311-.211,1,1,0,0,0-.589.172,1.555,1.555,0,0,0-.441.448,1.522,1.522,0,0,0-.121.206,1.2,1.2,0,0,0-.059.187c-.075.293-.148.586-.222.88-.063.252-.124.5-.186.757q-.019.078-.042.156a.285.285,0,0,1-.257.212.187.187,0,0,1-.213-.151.183.183,0,0,1,0-.07c.056-.238.112-.476.17-.714.078-.316.159-.632.238-.948.046-.182.091-.363.136-.545a.988.988,0,0,0,.035-.291.823.823,0,0,0-.021-.149.194.194,0,0,0-.242-.146.314.314,0,0,0-.19.125,1,1,0,0,0-.167.328c-.045.145-.084.292-.126.438l-.009.03c-.018.066-.058.083-.135.063a.052.052,0,0,1-.043-.06.429.429,0,0,1,.012-.08,3.388,3.388,0,0,1,.184-.579.985.985,0,0,1,.162-.255.5.5,0,0,1,.442-.17.625.625,0,0,1,.573.516Z" transform="translate(-532.5 -303.438)"/>
    <path class="cls-2" d="M719.789,350.82c-.039.056-.075.111-.114.164a.937.937,0,0,1-.244.234.689.689,0,0,1-.426.118.919.919,0,0,1-.375-.094.421.421,0,0,1-.212-.216.41.41,0,0,1,.269-.551.358.358,0,0,1,.166,0,.231.231,0,0,1,.184.273.389.389,0,0,1-.273.329l-.043.014a.311.311,0,0,0,.118.056.585.585,0,0,0,.412-.009.62.62,0,0,0,.229-.18,1.17,1.17,0,0,0,.23-.459c.121-.45.244-.9.343-1.355a2.271,2.271,0,0,0,.05-.339.544.544,0,0,0-.075-.331.334.334,0,0,0-.286-.156.729.729,0,0,0-.44.146,1.263,1.263,0,0,0-.422.529c-.038.084-.068.172-.1.26a.1.1,0,0,1-.153.04.072.072,0,0,1-.02-.05.419.419,0,0,1,.017-.1,1.691,1.691,0,0,1,.348-.6,1.222,1.222,0,0,1,.346-.278.87.87,0,0,1,.393-.105.841.841,0,0,1,.4.08.771.771,0,0,1,.365.386l.019.042.009.013.034-.058a1.086,1.086,0,0,1,.317-.344.729.729,0,0,1,.578-.1.739.739,0,0,1,.268.1.406.406,0,0,1-.183.753.243.243,0,0,1-.267-.3.4.4,0,0,1,.243-.3c.023-.01.048-.017.083-.029-.037-.017-.065-.031-.1-.042a.627.627,0,0,0-.421-.012.591.591,0,0,0-.273.21,1.158,1.158,0,0,0-.2.4c-.065.232-.122.467-.18.7q-.1.412-.2.827a.807.807,0,0,0-.015.356.393.393,0,0,0,.186.288.414.414,0,0,0,.291.035.863.863,0,0,0,.407-.206,1.439,1.439,0,0,0,.4-.621c.013-.035.023-.071.036-.106a.105.105,0,0,1,.146-.036.066.066,0,0,1,.021.048.643.643,0,0,1-.025.139,1.7,1.7,0,0,1-.272.489,1.322,1.322,0,0,1-.362.329.889.889,0,0,1-.426.13.809.809,0,0,1-.508-.138.769.769,0,0,1-.273-.339Z" transform="translate(-532.5 -303.438)"/>
    <path class="cls-2" d="M748.384,346.286h-.671v-.281h.965v7c-.036.011-.888.015-.966,0v-.282h.669C748.391,352.687,748.394,346.363,748.384,346.286Z" transform="translate(-532.5 -303.438)"/>
    <path class="cls-2" d="M717.734,346a.057.057,0,0,1,.059.031.068.068,0,0,1,0,.077.406.406,0,0,1-.043.05,3.362,3.362,0,0,0-.654.889,4.323,4.323,0,0,0-.377,1.062,4.647,4.647,0,0,0-.1.609c-.012.131-.025.262-.03.394-.007.2-.013.392-.01.588a6.239,6.239,0,0,0,.058.735,5.583,5.583,0,0,0,.177.831,3.9,3.9,0,0,0,.474,1.033,2.845,2.845,0,0,0,.34.427c.047.049.093.1.139.148a.178.178,0,0,1,.024.032.072.072,0,0,1-.01.085.059.059,0,0,1-.078.011.748.748,0,0,1-.111-.071,2.62,2.62,0,0,1-.306-.281,3.965,3.965,0,0,1-.458-.6,3.922,3.922,0,0,1-.369-.76,4.83,4.83,0,0,1-.248-1.053,4.7,4.7,0,0,1-.039-.488c0-.124-.008-.247-.006-.37,0-.177.016-.354.035-.53a5.018,5.018,0,0,1,.116-.657,4.554,4.554,0,0,1,.26-.761,3.861,3.861,0,0,1,.511-.844,2.816,2.816,0,0,1,.545-.54C717.685,346.015,717.711,346,717.734,346Z" transform="translate(-532.5 -303.438)"/>
    <path class="cls-2" d="M751.542,349.485c-.007.163-.008.3-.018.437a5.184,5.184,0,0,1-.2,1.132,4.092,4.092,0,0,1-.636,1.278,3.106,3.106,0,0,1-.548.58,1.141,1.141,0,0,1-.13.088.062.062,0,0,1-.087-.009.076.076,0,0,1,0-.094.293.293,0,0,1,.038-.041,3.4,3.4,0,0,0,.556-.713,3.956,3.956,0,0,0,.363-.824,5.175,5.175,0,0,0,.2-.954c.017-.14.026-.282.035-.423.007-.111,0-.223.011-.334a4.444,4.444,0,0,0,0-.476,6.38,6.38,0,0,0-.1-.838,5.069,5.069,0,0,0-.216-.806,3.728,3.728,0,0,0-.416-.821,3.03,3.03,0,0,0-.4-.476.7.7,0,0,1-.069-.075.067.067,0,0,1,0-.088.062.062,0,0,1,.09-.015,1.884,1.884,0,0,1,.192.14,3.5,3.5,0,0,1,.661.784,3.959,3.959,0,0,1,.353.7,4.625,4.625,0,0,1,.224.793,4.862,4.862,0,0,1,.079.576C751.527,349.174,751.534,349.343,751.542,349.485Z" transform="translate(-532.5 -303.438)"/>
    <path class="cls-2" d="M742.206,346h.966v.281h-.682v6.44c.056,0,.113,0,.169,0h.512v.279c-.038.01-.907.012-.965,0Z" transform="translate(-532.5 -303.438)"/>
    <path class="cls-2" d="M723.956,352.724a.422.422,0,0,1,0,.043V353c-.041.011-.846.016-.96.006-.01-.035-.013-6.944,0-7.006h.959v.28h-.671c-.012.041-.018,6.322-.006,6.44Z" transform="translate(-532.5 -303.438)"/>
    <path class="cls-2" d="M729.174,346.286H728.5v-.281h.958c.01.036.015,6.884,0,7-.038.01-.835.015-.963,0,0-.046,0-.093,0-.139v-.143h.678Z" transform="translate(-532.5 -303.438)"/>
    <path class="cls-2" d="M731.412,349.511q0,1.62,0,3.24a1.035,1.035,0,0,1-.009.136.137.137,0,0,1-.209.109.133.133,0,0,1-.063-.11,1.024,1.024,0,0,1-.009-.136q0-3.241,0-6.485a1.24,1.24,0,0,1,.008-.136.132.132,0,0,1,.165-.127.107.107,0,0,1,.1.089.834.834,0,0,1,.018.165q0,1,0,1.991Z" transform="translate(-532.5 -303.438)"/>
    <path class="cls-2" d="M740.494,352.1v.176h-.128c-.023,0-.047,0-.07,0l-.33,0c-.218,0-.436-.006-.655-.006-.142,0-.283.006-.425.01l-.154.007V352.1c.013,0,.026,0,.039,0,.111,0,.223,0,.335-.006a1.057,1.057,0,0,0,.185-.026.129.129,0,0,0,.118-.15q0-1.247,0-2.493v-.044a1.408,1.408,0,0,1-.35.106,2.374,2.374,0,0,1-.36.027v-.18l.073,0a1.626,1.626,0,0,0,.5-.078,1.01,1.01,0,0,0,.362-.208.143.143,0,0,1,.15-.014.075.075,0,0,1,.027.046.459.459,0,0,1,.006.091v2.752a.131.131,0,0,0,.113.146,1.218,1.218,0,0,0,.2.027c.111,0,.223,0,.335,0Z" transform="translate(-532.5 -303.438)"/>
  </g>
  <g>
    <path class="cls-4" d="M580.4,348.907c.055-.247.114-.486.161-.728.044-.221.077-.445.11-.668.016-.115.026-.231.031-.347a.275.275,0,0,0-.266-.3,1.373,1.373,0,0,0-.433.034.889.889,0,0,0-.584.451c-.03.051-.056.1-.088.154a.724.724,0,0,1-.387.3.993.993,0,0,1-.122.032.115.115,0,0,1-.045,0,.044.044,0,0,1-.038-.063.43.43,0,0,1,.029-.075,1.853,1.853,0,0,1,.327-.467,2.358,2.358,0,0,1,.7-.509,2.384,2.384,0,0,1,.774-.229c.076-.008.151-.015.227-.018a.746.746,0,0,1,.285.04.335.335,0,0,1,.228.327,1.884,1.884,0,0,1-.014.237c-.017.146-.037.291-.057.436a5.68,5.68,0,0,1-.111.607q-.093.37-.188.741c0,.015-.006.029-.01.047H582.8l.135-.447c.113-.373.23-.745.366-1.111.063-.167.128-.334.19-.5a.435.435,0,0,1,.153-.2.982.982,0,0,1,.3-.157.44.44,0,0,1,.079-.015c.064,0,.089.027.07.088s-.041.111-.061.167c-.136.389-.277.776-.407,1.167q-.255.765-.443,1.549c-.069.285-.131.572-.174.863-.024.156-.039.314-.056.472a1.361,1.361,0,0,0-.01.156.269.269,0,0,0,.282.28,2.942,2.942,0,0,0,.3-.032.108.108,0,0,0,.089-.067.684.684,0,0,1,.5-.368.17.17,0,0,1,.055,0,.056.056,0,0,1,.055.073.4.4,0,0,1-.059.15,1.061,1.061,0,0,1-.27.285,1.743,1.743,0,0,1-.793.328,1.929,1.929,0,0,1-.348.026.512.512,0,0,1-.193-.036.342.342,0,0,1-.213-.281,1.027,1.027,0,0,1,0-.277c.016-.159.039-.318.067-.476q.057-.324.128-.645c.044-.2.1-.4.143-.6,0-.016.007-.032.01-.05a1.322,1.322,0,0,1-.138.04.8.8,0,0,1-.146.015h-1.61c-.029.1-.056.193-.084.287-.14.466-.294.927-.47,1.381-.025.066-.054.131-.076.2a.435.435,0,0,1-.161.216.9.9,0,0,1-.3.153.307.307,0,0,1-.09.014c-.057,0-.078-.026-.06-.08.03-.088.064-.174.1-.261q.231-.623.428-1.256l.186-.61a.33.33,0,0,0,.01-.042h-.555a.425.425,0,0,1-.071-.006.041.041,0,0,1-.035-.062.256.256,0,0,1,.048-.077.822.822,0,0,1,.457-.243.409.409,0,0,1,.061,0Z" transform="translate(-532.5 -303.438)"/>
    <path class="cls-4" d="M559.866,348.666c.046-.043.091-.083.134-.125a1.415,1.415,0,0,1,.4-.288.843.843,0,0,1,.949.114.981.981,0,0,1,.3.451,1.415,1.415,0,0,1,.071.57,2.245,2.245,0,0,1-.5,1.261,2,2,0,0,1-.566.5,1.3,1.3,0,0,1-.522.181.736.736,0,0,1-.4-.056.726.726,0,0,1-.329-.326l-.029-.053c-.026.1-.05.184-.073.271q-.09.357-.179.712c-.03.121-.057.243-.085.365v0c-.015.083,0,.114.085.13a.823.823,0,0,0,.131.016c.065,0,.131,0,.2,0,.086,0,.116.039.1.123a.107.107,0,0,1-.113.1c-.1,0-.2,0-.294-.007a5.455,5.455,0,0,0-.572-.009c-.091,0-.182.007-.274.01l-.151.006c-.063,0-.117-.027-.1-.119.014-.076.043-.1.121-.1s.128,0,.192-.01a.191.191,0,0,0,.2-.165c.036-.136.069-.272.1-.408l.369-1.464c.081-.317.161-.635.241-.952q.065-.25.125-.5a1,1,0,0,0,.018-.392.386.386,0,0,0-.024-.082.189.189,0,0,0-.219-.106.315.315,0,0,0-.2.128.875.875,0,0,0-.153.3c-.049.151-.09.3-.134.457-.007.022-.014.045-.023.066a.1.1,0,0,1-.159.018.082.082,0,0,1-.007-.073c.029-.111.056-.223.088-.333a1.834,1.834,0,0,1,.183-.427.665.665,0,0,1,.176-.2.5.5,0,0,1,.4-.082.6.6,0,0,1,.515.466l.006.019Zm1.357.307h-.007c0-.054,0-.108-.011-.162a.746.746,0,0,0-.079-.265.389.389,0,0,0-.387-.227.649.649,0,0,0-.261.075,1.558,1.558,0,0,0-.53.455.611.611,0,0,0-.114.219c-.118.471-.237.942-.354,1.413a.3.3,0,0,0-.009.11.9.9,0,0,0,.113.318.531.531,0,0,0,.247.233.5.5,0,0,0,.417-.016,1.034,1.034,0,0,0,.366-.29,1.862,1.862,0,0,0,.337-.62,6.019,6.019,0,0,0,.218-.837C561.193,349.244,561.205,349.108,561.223,348.973Z" transform="translate(-532.5 -303.438)"/>
    <path class="cls-4" d="M572.057,348.751c.076-.082.146-.164.224-.238a1.212,1.212,0,0,1,.683-.339,1.116,1.116,0,0,1,.541.041.649.649,0,0,1,.448.545,1.3,1.3,0,0,1-.035.5,7.032,7.032,0,0,1-.264.866c-.06.167-.122.333-.183.5a1.032,1.032,0,0,0-.064.311.47.47,0,0,0,.018.139.131.131,0,0,0,.138.105.454.454,0,0,0,.323-.123,1.074,1.074,0,0,0,.278-.4c.048-.111.084-.227.126-.342l.018-.052c.025-.078.042-.076.117-.072.039,0,.056.023.057.062a.175.175,0,0,1,0,.046,1.958,1.958,0,0,1-.328.708.791.791,0,0,1-.377.3.584.584,0,0,1-.633-.134.541.541,0,0,1-.155-.354.816.816,0,0,1,.056-.346c.092-.256.185-.511.273-.769a4.315,4.315,0,0,0,.178-.69,1.033,1.033,0,0,0-.007-.418.329.329,0,0,0-.239-.258.522.522,0,0,0-.176-.013,1.109,1.109,0,0,0-.679.307,1.755,1.755,0,0,0-.385.512.923.923,0,0,0-.062.2q-.111.433-.22.869c-.063.254-.125.508-.188.762q-.019.078-.042.156a.284.284,0,0,1-.255.215.188.188,0,0,1-.216-.153.158.158,0,0,1,0-.065c.048-.21.1-.421.149-.631.085-.346.174-.691.26-1.037.053-.214.106-.429.155-.644a.688.688,0,0,0,0-.316.208.208,0,0,0-.321-.143.407.407,0,0,0-.151.146,1.131,1.131,0,0,0-.133.284c-.044.146-.084.292-.126.439,0,.016-.01.032-.016.048a.072.072,0,0,1-.075.049c-.079,0-.11-.032-.092-.11a3.3,3.3,0,0,1,.2-.622.835.835,0,0,1,.215-.3.5.5,0,0,1,.393-.114.623.623,0,0,1,.566.518Z" transform="translate(-532.5 -303.438)"/>
    <path class="cls-4" d="M591.277,348.751c.076-.082.146-.164.224-.238a1.212,1.212,0,0,1,.683-.339,1.112,1.112,0,0,1,.54.041.648.648,0,0,1,.448.545,1.3,1.3,0,0,1-.034.5,7.037,7.037,0,0,1-.265.866c-.059.167-.122.333-.183.5a1.031,1.031,0,0,0-.063.311.5.5,0,0,0,.017.139.132.132,0,0,0,.138.105.456.456,0,0,0,.324-.123,1.071,1.071,0,0,0,.277-.4c.048-.111.085-.227.126-.341.007-.018.012-.036.018-.053.026-.078.042-.076.117-.072.039,0,.057.023.058.062a.18.18,0,0,1,0,.046,1.942,1.942,0,0,1-.328.708.786.786,0,0,1-.377.3.583.583,0,0,1-.632-.134.537.537,0,0,1-.156-.354.831.831,0,0,1,.056-.346c.092-.256.185-.511.273-.769a4.088,4.088,0,0,0,.178-.69,1.033,1.033,0,0,0-.007-.418.328.328,0,0,0-.238-.258.524.524,0,0,0-.176-.013,1.109,1.109,0,0,0-.68.307,1.752,1.752,0,0,0-.384.512.925.925,0,0,0-.063.2q-.111.433-.219.869c-.064.254-.126.508-.189.762q-.019.078-.042.156a.284.284,0,0,1-.254.215.189.189,0,0,1-.217-.153.178.178,0,0,1,0-.065c.049-.21.1-.421.149-.631.086-.346.174-.691.261-1.036.05-.2.1-.4.147-.6a.808.808,0,0,0,.007-.366.2.2,0,0,0-.288-.152.33.33,0,0,0-.151.115,1.028,1.028,0,0,0-.165.329c-.046.145-.085.292-.127.439,0,.016-.01.032-.016.048a.072.072,0,0,1-.074.049c-.08,0-.111-.032-.093-.11a3.3,3.3,0,0,1,.2-.622.86.86,0,0,1,.215-.3.5.5,0,0,1,.393-.114.625.625,0,0,1,.567.518Z" transform="translate(-532.5 -303.438)"/>
    <path class="cls-4" d="M566.857,348.682c.035-.053.065-.1.1-.148a1.031,1.031,0,0,1,.271-.264.714.714,0,0,1,.506-.1.814.814,0,0,1,.324.109.407.407,0,0,1-.184.755.252.252,0,0,1-.247-.369.408.408,0,0,1,.252-.242l.043-.015,0-.006a.539.539,0,0,0-.183-.068.555.555,0,0,0-.433.071.721.721,0,0,0-.207.219,1.627,1.627,0,0,0-.2.492q-.1.4-.2.792c-.048.195-.1.39-.142.586a.82.82,0,0,0-.015.352.4.4,0,0,0,.185.289.411.411,0,0,0,.29.036.848.848,0,0,0,.411-.208,1.45,1.45,0,0,0,.4-.646c.009-.027.018-.054.028-.081a.064.064,0,0,1,.069-.047c.014,0,.027,0,.041,0a.053.053,0,0,1,.056.059.589.589,0,0,1-.025.138,1.674,1.674,0,0,1-.268.486,1.381,1.381,0,0,1-.264.265.915.915,0,0,1-.531.2.793.793,0,0,1-.616-.231.784.784,0,0,1-.163-.249l-.018-.038-.038.061a1.194,1.194,0,0,1-.247.288.7.7,0,0,1-.444.172.829.829,0,0,1-.512-.149.4.4,0,0,1-.063-.584.359.359,0,0,1,.352-.134.234.234,0,0,1,.2.285.39.39,0,0,1-.279.323l-.038.014a.538.538,0,0,0,.2.074.552.552,0,0,0,.333-.03.639.639,0,0,0,.228-.181,1.183,1.183,0,0,0,.23-.464c.12-.447.243-.893.34-1.345a2.375,2.375,0,0,0,.052-.345.557.557,0,0,0-.061-.3.335.335,0,0,0-.3-.18.727.727,0,0,0-.435.145,1.244,1.244,0,0,0-.425.532c-.039.084-.068.173-.1.26a.1.1,0,0,1-.154.036.068.068,0,0,1-.018-.05.406.406,0,0,1,.019-.1,1.665,1.665,0,0,1,.307-.55,1.313,1.313,0,0,1,.382-.321.867.867,0,0,1,.929.06.828.828,0,0,1,.231.3Z" transform="translate(-532.5 -303.438)"/>
    <path class="cls-4" d="M587.069,350.72c0,.109,0,.228-.015.346a2.024,2.024,0,0,1-.175.713,1,1,0,0,1-.446.483,1.042,1.042,0,0,1-.353.1,1.3,1.3,0,0,1-.4-.014.948.948,0,0,1-.678-.5,1.769,1.769,0,0,1-.187-.58,2.517,2.517,0,0,1-.033-.368c0-.1-.008-.2,0-.294a2.8,2.8,0,0,1,.119-.813,1.288,1.288,0,0,1,.269-.478.922.922,0,0,1,.56-.289,1.15,1.15,0,0,1,.655.081.954.954,0,0,1,.437.387,1.625,1.625,0,0,1,.21.6c.017.113.025.228.034.342C587.064,350.532,587.065,350.622,587.069,350.72Zm-.461-.055h.008c0-.195-.009-.389-.015-.583a1.977,1.977,0,0,0-.061-.44.617.617,0,0,0-.356-.429.634.634,0,0,0-.865.376,1.807,1.807,0,0,0-.078.443c-.009.123-.014.246-.014.37,0,.258.007.517.01.776a2.737,2.737,0,0,0,.033.383,1,1,0,0,0,.116.364.619.619,0,0,0,.668.293.629.629,0,0,0,.474-.46,2.268,2.268,0,0,0,.079-.591C586.614,351,586.608,350.832,586.608,350.665Z" transform="translate(-532.5 -303.438)"/>
    <path class="cls-4" d="M594.746,352.728v-6.441h-.674V346h.959c.011.035.016,6.9,0,7-.035.011-.891.014-.965,0v-.28Z" transform="translate(-532.5 -303.438)"/>
    <path class="cls-4" d="M564.086,346a.064.064,0,0,1,.067.035.065.065,0,0,1,0,.072.345.345,0,0,1-.042.051,3.351,3.351,0,0,0-.66.9,4.319,4.319,0,0,0-.365,1.023,4.737,4.737,0,0,0-.093.543c-.017.164-.029.329-.041.494a6.406,6.406,0,0,0-.006.72,5.817,5.817,0,0,0,.06.644,5.44,5.44,0,0,0,.195.863,3.942,3.942,0,0,0,.382.848,3.033,3.033,0,0,0,.407.535c.05.053.1.106.149.16a.1.1,0,0,1,.023.054.062.062,0,0,1-.094.063.782.782,0,0,1-.123-.079,2.936,2.936,0,0,1-.474-.478,3.931,3.931,0,0,1-.478-.751,4.277,4.277,0,0,1-.343-1.009,4.789,4.789,0,0,1-.1-.63c-.007-.1-.016-.205-.019-.308,0-.125-.009-.25-.007-.375a5.577,5.577,0,0,1,.045-.605,5.138,5.138,0,0,1,.107-.577,4.588,4.588,0,0,1,.259-.756,3.857,3.857,0,0,1,.51-.844,2.816,2.816,0,0,1,.545-.54.467.467,0,0,1,.06-.038A.235.235,0,0,1,564.086,346Z" transform="translate(-532.5 -303.438)"/>
    <path class="cls-4" d="M597.9,349.51c-.006.141-.007.276-.017.411a5.174,5.174,0,0,1-.2,1.132,4.079,4.079,0,0,1-.635,1.278,3.148,3.148,0,0,1-.549.581,1.171,1.171,0,0,1-.129.088.062.062,0,0,1-.087-.009.075.075,0,0,1,0-.093.307.307,0,0,1,.034-.038,3.392,3.392,0,0,0,.563-.721,4.029,4.029,0,0,0,.362-.824,5.307,5.307,0,0,0,.2-.949c.017-.141.025-.282.034-.424.007-.111,0-.223.012-.334a4.7,4.7,0,0,0-.006-.475,6.143,6.143,0,0,0-.1-.844,5.039,5.039,0,0,0-.216-.8,3.725,3.725,0,0,0-.415-.821,3.087,3.087,0,0,0-.408-.483.656.656,0,0,1-.062-.067.068.068,0,0,1,0-.092.062.062,0,0,1,.087-.012,2.04,2.04,0,0,1,.192.139,3.248,3.248,0,0,1,.534.6,4,4,0,0,1,.567,1.138,4.717,4.717,0,0,1,.178.789,5.029,5.029,0,0,1,.052.548C597.89,349.32,597.9,349.418,597.9,349.51Z" transform="translate(-532.5 -303.438)"/>
    <path class="cls-4" d="M588.565,346h.966v.282h-.682v6.439c.056,0,.113,0,.169,0h.507a1.273,1.273,0,0,1,0,.279c-.037.01-.907.012-.964,0Z" transform="translate(-532.5 -303.438)"/>
    <path class="cls-4" d="M569.638,352.726h.676v.283h-.957c-.01-.038-.016-6.861,0-7,.035-.01.9-.012.963,0v.279h-.673C569.632,346.325,569.627,352.629,569.638,352.726Z" transform="translate(-532.5 -303.438)"/>
    <path class="cls-4" d="M575.53,346.286h-.671V346h.961v7.006h-.962v-.282h.669C575.538,352.688,575.54,346.356,575.53,346.286Z" transform="translate(-532.5 -303.438)"/>
    <path class="cls-4" d="M577.77,349.511q0,1.62,0,3.24a1.035,1.035,0,0,1-.009.136.137.137,0,0,1-.209.109.133.133,0,0,1-.063-.11.95.95,0,0,1-.009-.131q0-3.249,0-6.5a.708.708,0,0,1,.019-.165c.016-.067.058-.09.134-.089a.111.111,0,0,1,.12.094.842.842,0,0,1,.017.166Q577.772,347.886,577.77,349.511Z" transform="translate(-532.5 -303.438)"/>
  </g>
  <g>
    <path d="M594.311,313.912c-.014.051-.027.092-.038.133-.073.287-.146.573-.217.86-.03.119-.056.238-.081.358-.016.074,0,.105.075.12a.941.941,0,0,0,.14.018c.065,0,.131,0,.2.006a.261.261,0,0,1,.055.008.053.053,0,0,1,.043.055.4.4,0,0,1,0,.06.1.1,0,0,1-.092.093h-.015l-.408-.012c-.06,0-.121-.008-.181-.007-.187,0-.373.009-.56.014-.048,0-.1,0-.146,0-.071,0-.1-.035-.093-.106a.105.105,0,0,1,.12-.112c.067,0,.134,0,.2-.01a.189.189,0,0,0,.184-.152c.038-.145.074-.29.111-.435l.366-1.451c.08-.316.16-.631.239-.947.043-.171.088-.342.127-.514a.86.86,0,0,0,0-.394.189.189,0,0,0-.1-.141.251.251,0,0,0-.133-.015.315.315,0,0,0-.2.129.86.86,0,0,0-.149.284c-.044.136-.081.274-.122.41a.907.907,0,0,1-.037.115.1.1,0,0,1-.156.022.059.059,0,0,1-.01-.037.529.529,0,0,1,.012-.089,3.036,3.036,0,0,1,.15-.486,1.431,1.431,0,0,1,.143-.271.509.509,0,0,1,.582-.219.591.591,0,0,1,.466.453l.007.029.016.016a.214.214,0,0,1,.017-.03,1.578,1.578,0,0,1,.506-.394.839.839,0,0,1,.944.117.947.947,0,0,1,.285.421,1.328,1.328,0,0,1,.078.369,1.974,1.974,0,0,1-.158.9,2.343,2.343,0,0,1-.447.7,1.9,1.9,0,0,1-.557.427,1.2,1.2,0,0,1-.418.124.717.717,0,0,1-.4-.059.729.729,0,0,1-.319-.319Zm.636.278a.552.552,0,0,0,.229-.053,1.058,1.058,0,0,0,.36-.287,1.813,1.813,0,0,0,.332-.606,5.82,5.82,0,0,0,.248-1.006,1.413,1.413,0,0,0,0-.445.714.714,0,0,0-.076-.234.393.393,0,0,0-.427-.209.833.833,0,0,0-.307.121,1.732,1.732,0,0,0-.331.278.809.809,0,0,0-.233.416c0,.018-.01.036-.014.054q-.16.642-.322,1.284a.259.259,0,0,0-.006.114.932.932,0,0,0,.123.323A.479.479,0,0,0,594.947,314.19Z" transform="translate(-532.5 -303.438)"/>
    <path d="M606.921,311.774c.072-.077.138-.154.21-.224a1.212,1.212,0,0,1,.735-.355,1.065,1.065,0,0,1,.549.068.644.644,0,0,1,.385.49,1.145,1.145,0,0,1-.015.459,5.406,5.406,0,0,1-.212.741c-.076.218-.156.433-.235.649a1.061,1.061,0,0,0-.073.328.63.63,0,0,0,.013.15.135.135,0,0,0,.143.11.452.452,0,0,0,.317-.122,1.123,1.123,0,0,0,.275-.393,3.017,3.017,0,0,0,.139-.379l.006-.019c.027-.071.029-.077.115-.073a.059.059,0,0,1,.06.071.508.508,0,0,1-.02.094,1.926,1.926,0,0,1-.316.654.833.833,0,0,1-.364.286.6.6,0,0,1-.638-.132.565.565,0,0,1-.153-.358.748.748,0,0,1,.051-.321c.091-.256.186-.512.273-.77a4.167,4.167,0,0,0,.184-.721.938.938,0,0,0-.014-.405.332.332,0,0,0-.341-.258,1.053,1.053,0,0,0-.692.261,1.808,1.808,0,0,0-.413.511.851.851,0,0,0-.078.222c-.1.386-.2.772-.292,1.158-.052.208-.1.417-.157.625a.282.282,0,0,1-.258.226.186.186,0,0,1-.211-.234q.1-.418.2-.837c.106-.427.215-.853.322-1.28a1.173,1.173,0,0,0,.048-.363.686.686,0,0,0-.021-.143.188.188,0,0,0-.233-.142.3.3,0,0,0-.192.12.855.855,0,0,0-.149.279c-.046.135-.083.273-.123.41-.012.04-.021.081-.036.12a.1.1,0,0,1-.151.041.07.07,0,0,1-.021-.078c.016-.064.03-.128.047-.191a2.753,2.753,0,0,1,.151-.443.973.973,0,0,1,.17-.26.492.492,0,0,1,.434-.155.622.622,0,0,1,.568.534C606.914,311.742,606.918,311.758,606.921,311.774Z" transform="translate(-532.5 -303.438)"/>
    <path d="M599.969,314.105a.676.676,0,0,0,.287.085.548.548,0,0,0,.478-.224,1.2,1.2,0,0,0,.226-.458c.119-.444.241-.888.338-1.338a2.49,2.49,0,0,0,.051-.343.54.54,0,0,0-.06-.3.332.332,0,0,0-.3-.18.722.722,0,0,0-.433.144,1.246,1.246,0,0,0-.423.529c-.038.084-.068.171-.1.258a.1.1,0,0,1-.153.037.075.075,0,0,1-.019-.049.331.331,0,0,1,.014-.089,1.7,1.7,0,0,1,.343-.6,1.246,1.246,0,0,1,.351-.283.862.862,0,0,1,.92.06.827.827,0,0,1,.23.3l.024.053c.034-.051.063-.1.1-.146a.968.968,0,0,1,.34-.3.717.717,0,0,1,.432-.062.788.788,0,0,1,.323.108.4.4,0,0,1-.182.751.25.25,0,0,1-.246-.366.4.4,0,0,1,.25-.241l.057-.02a.939.939,0,0,0-.1-.043.616.616,0,0,0-.415-.01.588.588,0,0,0-.268.206,1.152,1.152,0,0,0-.2.4c-.067.244-.128.491-.189.737s-.13.522-.192.784a.822.822,0,0,0-.016.349.4.4,0,0,0,.184.288.406.406,0,0,0,.294.036.859.859,0,0,0,.407-.209,1.441,1.441,0,0,0,.4-.639c.01-.028.019-.057.03-.085a.061.061,0,0,1,.066-.043c.013,0,.027,0,.04,0,.036,0,.059.022.057.058a.57.57,0,0,1-.024.137,1.7,1.7,0,0,1-.27.488,1.326,1.326,0,0,1-.355.325.891.891,0,0,1-.432.134.788.788,0,0,1-.613-.229.774.774,0,0,1-.163-.248l-.017-.039-.038.061a1.122,1.122,0,0,1-.314.337.672.672,0,0,1-.379.121.853.853,0,0,1-.462-.119.386.386,0,0,1-.192-.26.4.4,0,0,1,.287-.478.33.33,0,0,1,.2.007.231.231,0,0,1,.15.27.387.387,0,0,1-.276.322Z" transform="translate(-532.5 -303.438)"/>
    <path d="M597.445,312.522c0-.1-.006-.192,0-.288.011-.157.027-.314.045-.47a4.277,4.277,0,0,1,.094-.515,4.613,4.613,0,0,1,.264-.782,3.79,3.79,0,0,1,.338-.607,3.605,3.605,0,0,1,.385-.479,2.446,2.446,0,0,1,.327-.291.482.482,0,0,1,.069-.041.066.066,0,0,1,.083.014.068.068,0,0,1,0,.092c-.02.024-.045.044-.066.068-.1.11-.2.216-.287.331a3.728,3.728,0,0,0-.609,1.2,4.938,4.938,0,0,0-.182.861c-.016.139-.028.28-.04.42a5.7,5.7,0,0,0-.016.64c0,.149.016.3.025.447a5.586,5.586,0,0,0,.222,1.19,4.052,4.052,0,0,0,.282.689,3.2,3.2,0,0,0,.45.655c.057.064.118.125.176.188a.46.46,0,0,1,.046.053.067.067,0,0,1,0,.092.059.059,0,0,1-.086.009,2.351,2.351,0,0,1-.2-.145,3.388,3.388,0,0,1-.566-.647,3.83,3.83,0,0,1-.289-.491,4.367,4.367,0,0,1-.345-1.008,5.825,5.825,0,0,1-.1-.615c-.008-.074-.011-.148-.014-.221-.006-.118-.01-.235-.015-.353Z" transform="translate(-532.5 -303.438)"/>
    <path d="M613.51,312.529a5.531,5.531,0,0,1-.223,1.54,4.474,4.474,0,0,1-.231.6,3.872,3.872,0,0,1-.606.919,2.451,2.451,0,0,1-.4.372.527.527,0,0,1-.064.04.065.065,0,0,1-.087-.008.081.081,0,0,1,0-.094.328.328,0,0,1,.031-.034,3.343,3.343,0,0,0,.576-.742,3.989,3.989,0,0,0,.352-.813,5.215,5.215,0,0,0,.169-.74c.02-.13.033-.26.045-.39.01-.114.017-.228.02-.342,0-.188.013-.376.006-.564a6.068,6.068,0,0,0-.178-1.314,4.3,4.3,0,0,0-.339-.9,3.162,3.162,0,0,0-.45-.661c-.065-.073-.135-.14-.2-.211a.1.1,0,0,1-.041-.072.064.064,0,0,1,.094-.065.486.486,0,0,1,.065.039,2.389,2.389,0,0,1,.363.326,3.794,3.794,0,0,1,.463.615,3.954,3.954,0,0,1,.343.712,4.816,4.816,0,0,1,.225.882c.021.128.035.256.046.385s.014.265.021.4C613.5,312.446,613.506,312.488,613.51,312.529Z" transform="translate(-532.5 -303.438)"/>
    <path d="M605.181,309.324h-.674v6.4h.674v.283h-.956v-6.968h.956Z" transform="translate(-532.5 -303.438)"/>
    <path d="M610.372,315.73v-6.4h-.665a1.281,1.281,0,0,1,0-.282h.955v6.967H609.7v-.281Z" transform="translate(-532.5 -303.438)"/>
  </g>
  <g>
    <path d="M661.049,310.621a1.986,1.986,0,0,1-.869.171v-.211h.025c.064,0,.128,0,.191,0a1.96,1.96,0,0,0,.394-.069,1.522,1.522,0,0,0,.293-.118,1.123,1.123,0,0,0,.228-.159l.069-.063a.03.03,0,0,1,.018-.008l.085,0c.04,0,.058.025.06.069,0,.095,0,.19,0,.285q0,1.806,0,3.613a.182.182,0,0,0,.043.136.215.215,0,0,0,.081.053.944.944,0,0,0,.168.034,1.525,1.525,0,0,0,.166.01c.116,0,.233,0,.35,0a.161.161,0,0,0,.022,0v.207h-.025c-.093,0-.186-.007-.28-.009s-.218,0-.328,0l-.844,0c-.115,0-.23,0-.345,0-.057,0-.114,0-.17,0l-.168.011v-.207l.023,0c.069,0,.138,0,.207,0s.144,0,.215,0a1.63,1.63,0,0,0,.231-.035.174.174,0,0,0,.146-.142.289.289,0,0,0,.008-.058v-3.507Z" transform="translate(-532.5 -303.438)"/>
    <path d="M649.508,313.714c.034-.085.066-.167.1-.249.043-.106.086-.213.13-.319s.1-.232.145-.347c.038-.09.078-.18.119-.268q.121-.26.247-.517c.042-.084.087-.167.132-.25.028-.052.058-.054.108-.046s.072.051.045.106l-.1.189c-.037.072-.074.144-.108.217-.067.141-.133.281-.2.423-.051.112-.1.225-.147.338s-.09.217-.135.326-.1.242-.145.364-.081.215-.118.323c-.032.092-.062.184-.088.278a1.559,1.559,0,0,0-.033.168c-.013.08-.024.162-.038.242-.021.115-.041.23-.068.343-.049.2-.1.4-.154.607a1.152,1.152,0,0,1-.1.269.21.21,0,0,1-.067.08c-.052.035-.115-.007-.124-.074a.586.586,0,0,1,.016-.187c.02-.11.045-.218.071-.326q.062-.25.129-.5c.04-.15.084-.3.126-.449.016-.058.036-.115.049-.173a1.078,1.078,0,0,0,.018-.127,4.045,4.045,0,0,0,.014-.48c0-.081-.006-.163-.015-.244-.013-.109-.028-.219-.048-.327a1.531,1.531,0,0,0-.111-.36,2.416,2.416,0,0,0-.114-.213.737.737,0,0,0-.148-.176.826.826,0,0,0-.36-.2,1.392,1.392,0,0,0-.181-.029.824.824,0,0,0-.122,0,1.163,1.163,0,0,0-.364.07,1.083,1.083,0,0,0-.335.191,1.1,1.1,0,0,0-.293.4c-.014.03-.024.061-.038.091a.412.412,0,0,1-.027.045l0,0a.163.163,0,0,1-.118-.027.108.108,0,0,1-.006-.088,1.374,1.374,0,0,1,.159-.382,1.679,1.679,0,0,1,.188-.276,3.229,3.229,0,0,1,.234-.234,1.068,1.068,0,0,1,.269-.176,1.084,1.084,0,0,1,.273-.086.993.993,0,0,1,.237-.012.779.779,0,0,1,.268.064.833.833,0,0,1,.3.229,1.408,1.408,0,0,1,.139.2,1.98,1.98,0,0,1,.181.42c.041.13.079.262.114.394.02.08.032.161.045.243s.02.164.029.246c0,.046.007.092.01.138S649.505,313.666,649.508,313.714Z" transform="translate(-532.5 -303.438)"/>
    <path d="M655.206,312.408h-2.054a.276.276,0,0,1-.094-.019.119.119,0,0,1-.067-.137.123.123,0,0,1,.137-.107l4.1,0a.262.262,0,0,1,.122.022.119.119,0,0,1,.064.139c-.013.075-.057.093-.12.1a.69.69,0,0,1-.1,0Z" transform="translate(-532.5 -303.438)"/>
    <path d="M655.206,313.427q1.021,0,2.042,0a.329.329,0,0,1,.108.021.122.122,0,0,1,.062.142.119.119,0,0,1-.128.1c-.119,0-.238,0-.357,0q-1.882,0-3.766,0a.258.258,0,0,1-.112-.022.126.126,0,0,1-.063-.137.12.12,0,0,1,.127-.1c.056,0,.112,0,.167,0Q654.246,313.425,655.206,313.427Z" transform="translate(-532.5 -303.438)"/>
  </g>
  <text class="cls-12" transform="translate(101.012 4.155)">decision boundary for</text>
  <g>
    <path class="cls-4" d="M635.478,331.3h-.554a.414.414,0,0,1-.07-.006c-.032-.006-.045-.023-.038-.054a.117.117,0,0,1,.025-.054.91.91,0,0,1,.109-.106.774.774,0,0,1,.374-.169.479.479,0,0,1,.066,0h.2c0-.01.009-.018.012-.027.056-.249.116-.5.166-.746.036-.175.062-.352.087-.529.018-.125.031-.251.043-.377a.394.394,0,0,0-.015-.18.256.256,0,0,0-.2-.172.935.935,0,0,0-.191-.014,1.336,1.336,0,0,0-.3.039.854.854,0,0,0-.528.374,2.111,2.111,0,0,0-.11.183.689.689,0,0,1-.359.32,1.522,1.522,0,0,1-.174.054.069.069,0,0,1-.025,0c-.053,0-.076-.029-.057-.079a1.021,1.021,0,0,1,.063-.139,1.93,1.93,0,0,1,.291-.394,2.443,2.443,0,0,1,1.471-.735,2.261,2.261,0,0,1,.273-.017.768.768,0,0,1,.19.025.353.353,0,0,1,.275.408c0,.088-.015.175-.026.262-.021.162-.043.324-.067.486a10.894,10.894,0,0,1-.279,1.208l-.009.039c.043.011,1.706.016,1.876.006l.042-.133c.115-.367.227-.736.346-1.1.1-.292.2-.58.321-.864a.385.385,0,0,1,.13-.159.951.951,0,0,1,.312-.163.345.345,0,0,1,.09-.014c.05,0,.067.021.062.07a.211.211,0,0,1-.012.043q-.245.645-.458,1.3c-.168.517-.32,1.039-.447,1.568-.066.274-.125.549-.168.828-.023.147-.038.294-.055.442a1.5,1.5,0,0,0-.016.211.27.27,0,0,0,.233.277.376.376,0,0,0,.106,0c.079-.008.157-.019.236-.031a.1.1,0,0,0,.088-.06.634.634,0,0,1,.393-.343.573.573,0,0,1,.147-.035c.063-.006.082.019.072.083a.407.407,0,0,1-.079.173,1.307,1.307,0,0,1-.448.381,1.815,1.815,0,0,1-.633.2,1.55,1.55,0,0,1-.379.015.358.358,0,0,1-.34-.372,3,3,0,0,1,.034-.434c.036-.262.086-.523.144-.781s.115-.486.172-.73c0-.012.005-.025.007-.038-.05.015-.1.032-.143.041a.7.7,0,0,1-.136.013H636c-.041.135-.079.265-.118.394-.135.445-.285.884-.453,1.317-.021.052-.043.1-.061.156a.427.427,0,0,1-.161.215.912.912,0,0,1-.3.153.34.34,0,0,1-.105.013c-.039,0-.056-.024-.048-.062a.534.534,0,0,1,.03-.1c.153-.392.291-.79.419-1.191.093-.288.179-.577.268-.866A.224.224,0,0,0,635.478,331.3Z" transform="translate(-532.5 -303.438)"/>
    <path class="cls-4" d="M646.464,330.757c.038-.046.071-.088.106-.128a1.316,1.316,0,0,1,.7-.438,1.143,1.143,0,0,1,.635.023.645.645,0,0,1,.45.543,1.28,1.28,0,0,1-.033.5,7.281,7.281,0,0,1-.264.867c-.058.16-.12.32-.178.48a1.1,1.1,0,0,0-.07.33.51.51,0,0,0,.018.145.131.131,0,0,0,.135.1.458.458,0,0,0,.325-.121,1.035,1.035,0,0,0,.241-.323,2.284,2.284,0,0,0,.16-.409c.01-.032.022-.064.033-.1a.059.059,0,0,1,.063-.042h.01c.089,0,.1.041.086.107a1.893,1.893,0,0,1-.365.756.791.791,0,0,1-.338.25.6.6,0,0,1-.638-.135.562.562,0,0,1-.152-.351.8.8,0,0,1,.059-.355c.125-.33.246-.662.343-1a3.08,3.08,0,0,0,.113-.519.841.841,0,0,0-.036-.41.317.317,0,0,0-.311-.21,1.012,1.012,0,0,0-.589.171,1.546,1.546,0,0,0-.441.449,1.567,1.567,0,0,0-.12.2,1,1,0,0,0-.059.188q-.113.44-.222.879c-.063.252-.125.5-.187.757-.013.053-.027.105-.042.157a.284.284,0,0,1-.257.212.188.188,0,0,1-.213-.152.2.2,0,0,1,0-.069c.056-.238.112-.477.17-.714.078-.317.159-.633.239-.949.045-.182.091-.363.135-.545a.984.984,0,0,0,.035-.291.678.678,0,0,0-.021-.149.2.2,0,0,0-.242-.146.318.318,0,0,0-.19.125,1,1,0,0,0-.166.329c-.046.145-.085.292-.127.438l-.008.029c-.019.067-.06.084-.136.063a.051.051,0,0,1-.043-.06.371.371,0,0,1,.013-.08,3.347,3.347,0,0,1,.183-.578.968.968,0,0,1,.163-.256.5.5,0,0,1,.441-.17.627.627,0,0,1,.574.517Z" transform="translate(-532.5 -303.438)"/>
    <path class="cls-4" d="M642.25,332.7c0,.1.006.2,0,.3a2.111,2.111,0,0,1-.183.789.988.988,0,0,1-.428.466,1.061,1.061,0,0,1-.411.117,1.3,1.3,0,0,1-.363-.019.944.944,0,0,1-.673-.5,1.729,1.729,0,0,1-.184-.555,3.883,3.883,0,0,1-.039-.777,2.727,2.727,0,0,1,.07-.562,1.461,1.461,0,0,1,.273-.593.9.9,0,0,1,.437-.3,1.16,1.16,0,0,1,.723,0,.984.984,0,0,1,.6.556,1.86,1.86,0,0,1,.158.6c.013.156.019.313.028.47Zm-.447-.037h.007c-.008-.219-.012-.439-.025-.658a2.588,2.588,0,0,0-.042-.315.638.638,0,0,0-.224-.392.648.648,0,0,0-.807-.007.657.657,0,0,0-.225.369,2.252,2.252,0,0,0-.061.44c-.007.123-.01.246-.01.37,0,.169,0,.338,0,.507,0,.148.006.3.021.444a1.75,1.75,0,0,0,.062.338.665.665,0,0,0,.175.293.617.617,0,0,0,.941-.092.852.852,0,0,0,.134-.357,4.427,4.427,0,0,0,.049-.671C641.8,332.846,641.8,332.756,641.8,332.666Z" transform="translate(-532.5 -303.438)"/>
    <path class="cls-4" d="M644.043,334.726h.671a1.387,1.387,0,0,1,0,.279c-.037.009-.864.013-.957,0-.011-.039-.016-6.859-.006-7,.036-.01.9-.013.964,0v.276h-.672C644.036,328.325,644.032,334.626,644.043,334.726Z" transform="translate(-532.5 -303.438)"/>
    <path class="cls-4" d="M649.934,328.285h-.67V328h.961v7h-.962v-.282h.668C649.942,334.687,649.945,328.355,649.934,328.285Z" transform="translate(-532.5 -303.438)"/>
  </g>
  <g>
    <path class="cls-2" d="M663.093,331.233a.725.725,0,0,1-.354.063H661.2c-.024.079-.047.154-.069.23q-.222.756-.507,1.492c-.019.049-.04.1-.056.146a.434.434,0,0,1-.162.215.917.917,0,0,1-.3.151.334.334,0,0,1-.094.014c-.055,0-.074-.025-.06-.078a.7.7,0,0,1,.028-.081c.154-.393.291-.791.42-1.191.092-.286.177-.575.266-.862,0-.009,0-.019.007-.036h-.555a.417.417,0,0,1-.071-.006c-.03,0-.042-.02-.036-.049a.122.122,0,0,1,.026-.059.9.9,0,0,1,.108-.106.782.782,0,0,1,.375-.169.515.515,0,0,1,.056,0h.207c0-.022.011-.043.016-.064.054-.237.112-.473.16-.711.035-.175.061-.352.086-.529.018-.125.032-.251.043-.377a.386.386,0,0,0-.014-.175.257.257,0,0,0-.2-.176.935.935,0,0,0-.191-.014,1.452,1.452,0,0,0-.3.039.853.853,0,0,0-.525.371,1.706,1.706,0,0,0-.11.183.7.7,0,0,1-.353.321,1.851,1.851,0,0,1-.183.057l-.015,0c-.061,0-.091-.024-.064-.085a1.739,1.739,0,0,1,.127-.242,2.189,2.189,0,0,1,.736-.693,2.409,2.409,0,0,1,.976-.33,1.537,1.537,0,0,1,.339-.011.516.516,0,0,1,.238.078.307.307,0,0,1,.138.227.917.917,0,0,1,0,.2c-.023.205-.05.409-.077.613a7.848,7.848,0,0,1-.2.935c-.029.116-.061.232-.092.347l-.008.033h1.878l.041-.132c.085-.273.168-.546.253-.818.12-.382.257-.758.407-1.13a.386.386,0,0,1,.122-.165.877.877,0,0,1,.384-.186c.085-.014.116.022.087.1-.054.146-.111.291-.162.438-.119.344-.237.69-.351,1.036-.068.208-.132.419-.191.63-.074.265-.146.531-.21.8-.053.219-.1.441-.138.663-.03.16-.049.321-.069.481-.012.1-.025.2-.027.3a.272.272,0,0,0,.29.289c.1-.006.194-.02.291-.033a.1.1,0,0,0,.083-.059.663.663,0,0,1,.441-.359.377.377,0,0,1,.1-.019c.064,0,.085.022.071.084a.5.5,0,0,1-.052.131,1.014,1.014,0,0,1-.279.3,1.755,1.755,0,0,1-.785.324,1.819,1.819,0,0,1-.353.026.643.643,0,0,1-.169-.028.339.339,0,0,1-.239-.345,3.25,3.25,0,0,1,.024-.369c.034-.278.086-.553.147-.827.057-.252.119-.5.178-.754Z" transform="translate(-532.5 -303.438)"/>
    <path class="cls-2" d="M671.661,330.756l.036-.044a1.64,1.64,0,0,1,.35-.336,1.214,1.214,0,0,1,.68-.219,1.085,1.085,0,0,1,.379.054.652.652,0,0,1,.449.545,1.3,1.3,0,0,1-.034.5,7.032,7.032,0,0,1-.264.866c-.06.167-.122.333-.183.5a1.032,1.032,0,0,0-.064.311.5.5,0,0,0,.018.144.132.132,0,0,0,.136.1.456.456,0,0,0,.324-.121,1.047,1.047,0,0,0,.241-.323,2.564,2.564,0,0,0,.16-.4c.009-.029.017-.058.028-.087.018-.047.029-.053.078-.055.089-.005.1.042.086.107a1.9,1.9,0,0,1-.366.756.78.78,0,0,1-.338.251.6.6,0,0,1-.637-.137.563.563,0,0,1-.153-.35.793.793,0,0,1,.058-.351c.125-.33.246-.662.344-1a3.181,3.181,0,0,0,.113-.519.974.974,0,0,0-.015-.357.336.336,0,0,0-.347-.269,1.063,1.063,0,0,0-.7.263,1.821,1.821,0,0,0-.413.51.917.917,0,0,0-.085.242c-.1.411-.205.823-.308,1.234-.046.183-.092.367-.141.549a.283.283,0,0,1-.259.222.188.188,0,0,1-.213-.152.2.2,0,0,1,0-.065c.059-.251.118-.5.18-.754.115-.46.233-.92.348-1.38a1.283,1.283,0,0,0,.053-.37.744.744,0,0,0-.022-.149.194.194,0,0,0-.242-.145.318.318,0,0,0-.19.125,1,1,0,0,0-.166.329c-.046.147-.086.295-.128.443,0,.016-.011.032-.017.048a.068.068,0,0,1-.066.046c-.083.006-.118-.031-.1-.113a3.547,3.547,0,0,1,.193-.613.991.991,0,0,1,.162-.256.5.5,0,0,1,.442-.169.625.625,0,0,1,.573.517C671.651,330.7,671.655,330.723,671.661,330.756Z" transform="translate(-532.5 -303.438)"/>
    <path class="cls-2" d="M668.954,328h.962v.282h-.678v6.441c.056,0,.113,0,.169,0h.51v.284h-.963Z" transform="translate(-532.5 -303.438)"/>
    <path class="cls-2" d="M675.423,335.008h-.964v-.283h.677v-6.442c-.112,0-.225,0-.338,0h-.336V328h.957C675.429,328.038,675.434,334.888,675.423,335.008Z" transform="translate(-532.5 -303.438)"/>
    <path class="cls-2" d="M667.241,334.094v.177h-.132c-.014,0-.027,0-.041,0-.33,0-.659-.009-.989-.01-.151,0-.3.006-.451.01-.049,0-.1,0-.149.007V334.1a.258.258,0,0,1,.039,0c.112,0,.223,0,.335,0a1.16,1.16,0,0,0,.185-.026.134.134,0,0,0,.119-.152v-2.536a1.563,1.563,0,0,1-.35.106,2.75,2.75,0,0,1-.365.028v-.183h.092a1.513,1.513,0,0,0,.587-.119.834.834,0,0,0,.25-.162c.048-.047.1-.033.151-.022a.045.045,0,0,1,.034.045c0,.032.007.064.007.1v2.727c0,.016,0,.031,0,.046a.113.113,0,0,0,.079.113.613.613,0,0,0,.153.032c.126.008.253.009.38.012Z" transform="translate(-532.5 -303.438)"/>
  </g>
</svg>
