<?xml version="1.0" encoding="UTF-8" standalone="no"?>
<svg
   xmlns:dc="http://purl.org/dc/elements/1.1/"
   xmlns:cc="http://creativecommons.org/ns#"
   xmlns:rdf="http://www.w3.org/1999/02/22-rdf-syntax-ns#"
   xmlns:svg="http://www.w3.org/2000/svg"
   xmlns="http://www.w3.org/2000/svg"
   viewBox="0 0 502.66666 352"
   height="352"
   width="502.66666"
   xml:space="preserve"
   id="svg2"
   version="1.1"><metadata
     id="metadata8"><rdf:RDF><cc:Work
         rdf:about=""><dc:format>image/svg+xml</dc:format><dc:type
           rdf:resource="http://purl.org/dc/dcmitype/StillImage" /></cc:Work></rdf:RDF></metadata><defs
     id="defs6" /><g
     transform="matrix(1.3333333,0,0,-1.3333333,0,352)"
     id="g10"><g
       transform="scale(0.1)"
       id="g12"><path
         id="path14"
         style="fill:#ffffff;fill-opacity:1;fill-rule:nonzero;stroke:none"
         d="M 0,0 H 4150 V 2795 H 0 Z" /><path
         id="path16"
         style="fill:#ffffff;fill-opacity:1;fill-rule:nonzero;stroke:none"
         d="M 0,0 H 4150 V 2795 H 0 Z" /><path
         id="path18"
         style="fill:#ffffff;fill-opacity:1;fill-rule:nonzero;stroke:none"
         d="m 392.5,320 h 3345 v 2265 h -3345 z" /><path
         id="path20"
         style="fill:none;stroke:#dfdfdf;stroke-width:5.00250006;stroke-linecap:butt;stroke-linejoin:round;stroke-miterlimit:10;stroke-dasharray:none;stroke-opacity:1"
         d="M 392.5,320 V 2585" /><path
         id="path22"
         style="fill:none;stroke:#dfdfdf;stroke-width:5.00250006;stroke-linecap:butt;stroke-linejoin:round;stroke-miterlimit:10;stroke-dasharray:none;stroke-opacity:1"
         d="M 2065,320 V 2585" /><path
         id="path24"
         style="fill:none;stroke:#dfdfdf;stroke-width:5.00250006;stroke-linecap:butt;stroke-linejoin:round;stroke-miterlimit:10;stroke-dasharray:none;stroke-opacity:1"
         d="M 3737.5,320 V 2585" /><path
         id="path26"
         style="fill:none;stroke:#dfdfdf;stroke-width:5.00250006;stroke-linecap:butt;stroke-linejoin:round;stroke-miterlimit:10;stroke-dasharray:none;stroke-opacity:1"
         d="M 3737.5,320 H 392.5" /><path
         id="path28"
         style="fill:none;stroke:#dfdfdf;stroke-width:5.00250006;stroke-linecap:butt;stroke-linejoin:round;stroke-miterlimit:10;stroke-dasharray:none;stroke-opacity:1"
         d="M 3737.5,773 H 392.5" /><path
         id="path30"
         style="fill:none;stroke:#dfdfdf;stroke-width:5.00250006;stroke-linecap:butt;stroke-linejoin:round;stroke-miterlimit:10;stroke-dasharray:none;stroke-opacity:1"
         d="M 3737.5,1226 H 392.5" /><path
         id="path32"
         style="fill:none;stroke:#dfdfdf;stroke-width:5.00250006;stroke-linecap:butt;stroke-linejoin:round;stroke-miterlimit:10;stroke-dasharray:none;stroke-opacity:1"
         d="M 3737.5,1679 H 392.5" /><path
         id="path34"
         style="fill:none;stroke:#dfdfdf;stroke-width:5.00250006;stroke-linecap:butt;stroke-linejoin:round;stroke-miterlimit:10;stroke-dasharray:none;stroke-opacity:1"
         d="M 3737.5,2132 H 392.5" /><path
         id="path36"
         style="fill:none;stroke:#dfdfdf;stroke-width:5.00250006;stroke-linecap:butt;stroke-linejoin:round;stroke-miterlimit:10;stroke-dasharray:none;stroke-opacity:1"
         d="M 3737.5,2585 H 392.5" /><path
         id="path38"
         style="fill:none;stroke:#262626;stroke-width:5.00250006;stroke-linecap:square;stroke-linejoin:round;stroke-miterlimit:10;stroke-dasharray:none;stroke-opacity:1"
         d="m 392.5,320 h 3345" /><path
         id="path40"
         style="fill:none;stroke:#262626;stroke-width:5.00250006;stroke-linecap:square;stroke-linejoin:round;stroke-miterlimit:10;stroke-dasharray:none;stroke-opacity:1"
         d="m 392.5,320 v 33.449" /><path
         id="path42"
         style="fill:none;stroke:#262626;stroke-width:5.00250006;stroke-linecap:square;stroke-linejoin:round;stroke-miterlimit:10;stroke-dasharray:none;stroke-opacity:1"
         d="m 2065,320 v 33.449" /><path
         id="path44"
         style="fill:none;stroke:#262626;stroke-width:5.00250006;stroke-linecap:square;stroke-linejoin:round;stroke-miterlimit:10;stroke-dasharray:none;stroke-opacity:1"
         d="m 3737.5,320 v 33.449" /><path
         id="path46"
         style="fill:#262626;fill-opacity:1;fill-rule:nonzero;stroke:none"
         d="m 343.906,197.469 v 7.379 h 31.758 v -7.379 h -31.758" /><path
         id="path48"
         style="fill:#262626;fill-opacity:1;fill-rule:nonzero;stroke:none"
         d="m 392.926,188.91 c 0.863,-2.344 2.133,-4.472 3.812,-6.383 1.68,-1.914 3.692,-3.418 6.035,-4.515 2.348,-1.094 4.77,-1.641 7.27,-1.641 5.781,0 9.762,2.246 11.945,6.742 2.192,4.489 3.285,9.938 3.285,16.34 0,2.817 -0.058,5.16 -0.179,7.035 -0.114,1.875 -0.367,3.711 -0.758,5.508 -0.777,2.813 -2.09,5.277 -3.93,7.387 -1.832,2.109 -4.117,3.164 -6.855,3.164 -2.653,0 -4.957,-0.41 -6.914,-1.238 -1.949,-0.821 -3.528,-1.774 -4.739,-2.864 -1.214,-1.093 -2.289,-2.246 -3.226,-3.457 -0.938,-1.211 -1.524,-1.855 -1.754,-1.937 h -1.289 c -0.238,0 -0.492,0.121 -0.766,0.355 -0.277,0.235 -0.414,0.469 -0.414,0.703 v 40.075 c 0,0.234 0.117,0.449 0.352,0.644 0.238,0.195 0.512,0.293 0.828,0.293 h 0.351 c 5.391,-2.574 11.094,-3.863 17.106,-3.863 5.937,0 11.68,1.289 17.23,3.863 h 0.352 c 0.23,0 0.461,-0.098 0.695,-0.293 0.239,-0.195 0.356,-0.41 0.356,-0.644 v -1.051 c 0,-0.391 -0.078,-0.586 -0.235,-0.586 -2.734,-3.676 -6.152,-6.527 -10.25,-8.559 -4.105,-2.027 -8.382,-3.043 -12.836,-3.043 -3.203,0 -6.484,0.469 -9.847,1.403 v -22.735 c 2.66,2.188 5.043,3.731 7.148,4.629 2.11,0.899 4.77,1.352 7.973,1.352 4.457,0 8.422,-1.27 11.894,-3.813 3.477,-2.539 6.153,-5.84 8.028,-9.898 1.875,-4.067 2.812,-8.246 2.812,-12.539 0,-4.766 -1.172,-9.203 -3.519,-13.305 -2.34,-4.101 -5.543,-7.383 -9.606,-9.84 -4.062,-2.461 -8.472,-3.691 -13.238,-3.691 -3.984,0 -7.621,1.035 -10.906,3.105 -3.278,2.071 -5.875,4.821 -7.793,8.258 -1.91,3.438 -2.864,7.07 -2.864,10.895 0,1.8 0.586,3.265 1.754,4.398 1.172,1.133 2.657,1.699 4.457,1.699 1.715,0 3.18,-0.566 4.395,-1.699 1.211,-1.133 1.812,-2.598 1.812,-4.398 0,-1.715 -0.601,-3.157 -1.812,-4.332 -1.215,-1.172 -2.68,-1.758 -4.395,-1.758 -0.316,0 -0.648,0.023 -1,0.062 -0.347,0.039 -0.605,0.098 -0.765,0.172" /><path
         id="path50"
         style="fill:#262626;fill-opacity:1;fill-rule:nonzero;stroke:none"
         d="m 2065,172.508 c -9.77,0 -16.43,4.043 -19.98,12.129 -3.56,8.082 -5.33,17.711 -5.33,28.879 0,6.957 0.64,13.5 1.93,19.636 1.29,6.129 3.81,11.325 7.56,15.586 3.75,4.254 9.03,6.383 15.82,6.383 5.31,0 9.64,-1.289 13,-3.863 3.36,-2.582 5.93,-5.899 7.68,-9.961 1.76,-4.063 2.95,-8.438 3.57,-13.125 0.63,-4.688 0.94,-9.574 0.94,-14.656 0,-6.875 -0.62,-13.317 -1.87,-19.332 -1.25,-6.016 -3.73,-11.133 -7.44,-15.356 -3.71,-4.215 -9,-6.32 -15.88,-6.32 z m 0,3.164 c 4.46,0 7.77,2.285 9.96,6.855 2.19,4.571 3.54,9.629 4.04,15.172 0.51,5.547 0.77,11.442 0.77,17.692 0,6.023 -0.26,11.57 -0.77,16.644 -0.5,5.078 -1.83,9.692 -3.98,13.828 -2.15,4.141 -5.49,6.211 -10.02,6.211 -4.53,0 -7.89,-2.07 -10.08,-6.211 -2.19,-4.136 -3.53,-8.75 -4.04,-13.828 -0.51,-5.074 -0.76,-10.621 -0.76,-16.644 0,-4.45 0.11,-8.645 0.34,-12.59 0.24,-3.946 0.83,-8.008 1.77,-12.188 0.93,-4.179 2.43,-7.715 4.5,-10.605 2.07,-2.891 4.83,-4.336 8.27,-4.336" /><path
         id="path52"
         style="fill:#262626;fill-opacity:1;fill-rule:nonzero;stroke:none"
         d="m 3717.93,188.91 c 0.86,-2.344 2.12,-4.472 3.8,-6.383 1.68,-1.914 3.7,-3.418 6.04,-4.515 2.35,-1.094 4.77,-1.641 7.27,-1.641 5.78,0 9.76,2.246 11.96,6.742 2.18,4.489 3.27,9.938 3.27,16.34 0,2.817 -0.06,5.16 -0.17,7.035 -0.12,1.875 -0.37,3.711 -0.76,5.508 -0.79,2.813 -2.09,5.277 -3.93,7.387 -1.84,2.109 -4.12,3.164 -6.85,3.164 -2.66,0 -4.97,-0.41 -6.92,-1.238 -1.95,-0.821 -3.53,-1.774 -4.75,-2.864 -1.21,-1.093 -2.28,-2.246 -3.22,-3.457 -0.94,-1.211 -1.52,-1.855 -1.76,-1.937 h -1.28 c -0.24,0 -0.49,0.121 -0.77,0.355 -0.27,0.235 -0.4,0.469 -0.4,0.703 v 40.075 c 0,0.234 0.11,0.449 0.35,0.644 0.23,0.195 0.5,0.293 0.82,0.293 h 0.35 c 5.39,-2.574 11.09,-3.863 17.11,-3.863 5.93,0 11.68,1.289 17.22,3.863 h 0.35 c 0.24,0 0.48,-0.098 0.71,-0.293 0.23,-0.195 0.34,-0.41 0.34,-0.644 v -1.051 c 0,-0.391 -0.07,-0.586 -0.23,-0.586 -2.73,-3.676 -6.15,-6.527 -10.25,-8.559 -4.1,-2.027 -8.38,-3.043 -12.83,-3.043 -3.21,0 -6.49,0.469 -9.84,1.403 v -22.735 c 2.65,2.188 5.03,3.731 7.15,4.629 2.11,0.899 4.76,1.352 7.96,1.352 4.46,0 8.42,-1.27 11.9,-3.813 3.47,-2.539 6.14,-5.84 8.02,-9.898 1.87,-4.067 2.81,-8.246 2.81,-12.539 0,-4.766 -1.17,-9.203 -3.51,-13.305 -2.34,-4.101 -5.55,-7.383 -9.61,-9.84 -4.06,-2.461 -8.48,-3.691 -13.24,-3.691 -3.99,0 -7.62,1.035 -10.9,3.105 -3.28,2.071 -5.88,4.821 -7.79,8.258 -1.92,3.438 -2.87,7.07 -2.87,10.895 0,1.8 0.58,3.265 1.75,4.398 1.18,1.133 2.66,1.699 4.46,1.699 1.72,0 3.18,-0.566 4.39,-1.699 1.21,-1.133 1.82,-2.598 1.82,-4.398 0,-1.715 -0.61,-3.157 -1.82,-4.332 -1.21,-1.172 -2.67,-1.758 -4.39,-1.758 -0.32,0 -0.65,0.023 -1,0.062 -0.35,0.039 -0.6,0.098 -0.76,0.172" /><path
         id="path54"
         style="fill:#262626;fill-opacity:1;fill-rule:nonzero;stroke:none"
         d="m 2036.13,14.5039 c 1.64,-1.332 4.02,-1.9961 7.14,-1.9961 2.97,0 5.59,1.4258 7.86,4.2813 2.26,2.8515 3.78,5.9922 4.57,9.4297 l 6.56,25.1992 c 1.02,4.6093 1.53,7.7343 1.53,9.375 0,2.4179 -0.67,4.5078 -2,6.2695 -1.33,1.7539 -3.16,2.6328 -5.5,2.6328 -3.05,0 -5.91,-0.9375 -8.56,-2.8125 -2.66,-1.875 -4.88,-4.2578 -6.68,-7.1484 -1.8,-2.8906 -3.05,-5.8203 -3.75,-8.7891 -0.24,-0.625 -0.63,-0.9375 -1.17,-0.9375 h -1.76 c -0.7,0 -1.06,0.4297 -1.06,1.2891 v 0.4726 c 0.94,3.5157 2.53,6.9532 4.75,10.3125 2.23,3.3594 4.94,6.0743 8.15,8.1446 3.2,2.0703 6.63,3.1054 10.31,3.1054 3.52,0 6.66,-0.9179 9.43,-2.7539 2.77,-1.8398 4.75,-4.3593 5.92,-7.5586 1.64,2.8907 3.73,5.3321 6.27,7.3203 2.54,1.9961 5.29,2.9922 8.26,2.9922 2.03,0 4.12,-0.3515 6.27,-1.0586 2.15,-0.7031 3.88,-1.7968 5.21,-3.2773 1.33,-1.4844 2,-3.3594 2,-5.625 0,-2.3438 -0.77,-4.3945 -2.29,-6.1563 -1.52,-1.7539 -3.49,-2.6328 -5.92,-2.6328 -1.56,0 -2.85,0.4883 -3.86,1.461 -1.02,0.9765 -1.52,2.207 -1.52,3.6914 0,2.0312 0.68,3.789 2.05,5.2734 1.36,1.4844 2.98,2.3828 4.86,2.6992 -1.65,1.3243 -3.99,1.9883 -7.03,1.9883 -3.05,0 -5.71,-1.4258 -7.97,-4.2773 -2.27,-2.8477 -3.87,-5.9922 -4.81,-9.4336 l -6.21,-25.1914 c -1.01,-3.8321 -1.52,-6.9571 -1.52,-9.375 0,-2.4258 0.68,-4.5157 2.05,-6.2696 1.36,-1.7617 3.18,-2.6406 5.45,-2.6406 4.45,0 8.43,1.9727 11.95,5.918 3.52,3.9453 5.82,8.2617 6.91,12.9531 0.16,0.543 0.51,0.8164 1.06,0.8164 h 1.76 c 0.39,0 0.7,-0.1367 0.93,-0.4062 0.24,-0.2735 0.36,-0.5703 0.36,-0.8828 0,-0.0782 -0.04,-0.1915 -0.12,-0.3477 -1.41,-5.7031 -4.26,-10.7656 -8.55,-15.1797 -4.3,-4.4141 -9.15,-6.62109 -14.54,-6.62109 -3.51,0 -6.68,0.9375 -9.49,2.81249 -2.81,1.875 -4.8,4.4141 -5.97,7.6211 -1.49,-2.7383 -3.54,-5.1601 -6.16,-7.2695 -2.61,-2.1094 -5.41,-3.16409 -8.38,-3.16409 -2.03,0 -4.12,0.3711 -6.27,1.11719 -2.14,0.7383 -3.9,1.8516 -5.27,3.3359 -1.36,1.4883 -2.05,3.3633 -2.05,5.625 0,2.1914 0.78,4.2032 2.34,6.0391 1.57,1.8359 3.52,2.7539 5.87,2.7539 1.56,0 2.86,-0.4726 3.92,-1.4101 1.06,-0.9375 1.58,-2.1875 1.58,-3.75 0,-1.9532 -0.64,-3.668 -1.93,-5.1524 -1.29,-1.4883 -2.95,-2.4258 -4.98,-2.8125" /><path
         id="path56"
         style="fill:none;stroke:#262626;stroke-width:5.00250006;stroke-linecap:square;stroke-linejoin:round;stroke-miterlimit:10;stroke-dasharray:none;stroke-opacity:1"
         d="M 392.5,320 V 2585" /><path
         id="path58"
         style="fill:none;stroke:#262626;stroke-width:5.00250006;stroke-linecap:square;stroke-linejoin:round;stroke-miterlimit:10;stroke-dasharray:none;stroke-opacity:1"
         d="m 392.5,320 h 33.449" /><path
         id="path60"
         style="fill:none;stroke:#262626;stroke-width:5.00250006;stroke-linecap:square;stroke-linejoin:round;stroke-miterlimit:10;stroke-dasharray:none;stroke-opacity:1"
         d="m 392.5,773 h 33.449" /><path
         id="path62"
         style="fill:none;stroke:#262626;stroke-width:5.00250006;stroke-linecap:square;stroke-linejoin:round;stroke-miterlimit:10;stroke-dasharray:none;stroke-opacity:1"
         d="m 392.5,1226 h 33.449" /><path
         id="path64"
         style="fill:none;stroke:#262626;stroke-width:5.00250006;stroke-linecap:square;stroke-linejoin:round;stroke-miterlimit:10;stroke-dasharray:none;stroke-opacity:1"
         d="m 392.5,1679 h 33.449" /><path
         id="path66"
         style="fill:none;stroke:#262626;stroke-width:5.00250006;stroke-linecap:square;stroke-linejoin:round;stroke-miterlimit:10;stroke-dasharray:none;stroke-opacity:1"
         d="m 392.5,2132 h 33.449" /><path
         id="path68"
         style="fill:none;stroke:#262626;stroke-width:5.00250006;stroke-linecap:square;stroke-linejoin:round;stroke-miterlimit:10;stroke-dasharray:none;stroke-opacity:1"
         d="m 392.5,2585 h 33.449" /><path
         id="path70"
         style="fill:#262626;fill-opacity:1;fill-rule:nonzero;stroke:none"
         d="m 318.5,288.508 c -9.766,0 -16.426,4.043 -19.98,12.129 -3.555,8.082 -5.332,17.711 -5.332,28.879 0,6.957 0.644,13.5 1.933,19.636 1.293,6.129 3.813,11.325 7.563,15.586 3.75,4.254 9.019,6.383 15.816,6.383 5.309,0 9.645,-1.289 13.004,-3.863 3.359,-2.582 5.922,-5.899 7.68,-9.961 1.757,-4.063 2.945,-8.438 3.57,-13.125 0.625,-4.688 0.937,-9.574 0.937,-14.656 0,-6.875 -0.625,-13.317 -1.875,-19.332 -1.25,-6.016 -3.73,-11.133 -7.437,-15.356 -3.711,-4.215 -9.004,-6.32 -15.879,-6.32 z m 0,3.164 c 4.453,0 7.773,2.285 9.961,6.855 2.187,4.571 3.535,9.629 4.043,15.172 0.508,5.547 0.762,11.442 0.762,17.692 0,6.023 -0.254,11.57 -0.762,16.644 -0.508,5.078 -1.832,9.692 -3.984,13.828 -2.149,4.141 -5.489,6.211 -10.02,6.211 -4.531,0 -7.891,-2.07 -10.078,-6.211 -2.188,-4.136 -3.535,-8.75 -4.043,-13.828 -0.508,-5.074 -0.758,-10.621 -0.758,-16.644 0,-4.45 0.113,-8.645 0.344,-12.59 0.234,-3.946 0.824,-8.008 1.762,-12.188 0.937,-4.179 2.437,-7.715 4.507,-10.605 2.071,-2.891 4.825,-4.336 8.266,-4.336" /><path
         id="path72"
         style="fill:#262626;fill-opacity:1;fill-rule:nonzero;stroke:none"
         d="m 225.164,741.508 c -9.766,0 -16.426,4.043 -19.98,12.129 -3.555,8.082 -5.332,17.711 -5.332,28.879 0,6.957 0.644,13.5 1.933,19.636 1.289,6.129 3.809,11.325 7.559,15.586 3.75,4.254 9.023,6.383 15.82,6.383 5.313,0 9.652,-1.289 13.012,-3.863 3.359,-2.582 5.918,-5.899 7.672,-9.961 1.761,-4.063 2.953,-8.438 3.578,-13.125 0.625,-4.688 0.937,-9.574 0.937,-14.656 0,-6.875 -0.625,-13.317 -1.875,-19.332 -1.25,-6.016 -3.73,-11.133 -7.441,-15.356 -3.715,-4.215 -9.008,-6.32 -15.883,-6.32 z m 0,3.164 c 4.453,0 7.777,2.285 9.965,6.855 2.187,4.571 3.535,9.629 4.043,15.172 0.504,5.547 0.758,11.442 0.758,17.692 0,6.023 -0.254,11.57 -0.758,16.644 -0.508,5.078 -1.84,9.692 -3.988,13.828 -2.145,4.141 -5.485,6.211 -10.02,6.211 -4.531,0 -7.891,-2.07 -10.074,-6.211 -2.192,-4.136 -3.539,-8.75 -4.043,-13.828 -0.508,-5.074 -0.766,-10.621 -0.766,-16.644 0,-4.45 0.117,-8.645 0.356,-12.59 0.234,-3.946 0.816,-8.008 1.754,-12.188 0.937,-4.179 2.445,-7.715 4.515,-10.605 2.071,-2.891 4.821,-4.336 8.258,-4.336" /><path
         id="path74"
         style="fill:#262626;fill-opacity:1;fill-rule:nonzero;stroke:none"
         d="m 265.242,750.883 c 0,1.793 0.664,3.336 1.996,4.629 1.328,1.289 2.891,1.933 4.688,1.933 1.094,0 2.168,-0.297 3.222,-0.886 1.055,-0.582 1.875,-1.403 2.461,-2.457 0.586,-1.055 0.879,-2.129 0.879,-3.219 0,-1.801 -0.644,-3.363 -1.937,-4.688 -1.289,-1.332 -2.832,-1.996 -4.625,-1.996 -1.797,0 -3.36,0.664 -4.688,1.996 -1.332,1.325 -1.996,2.887 -1.996,4.688" /><path
         id="path76"
         style="fill:#262626;fill-opacity:1;fill-rule:nonzero;stroke:none"
         d="m 294.477,744.199 v 3.285 c 0,0.157 0.078,0.352 0.234,0.586 l 18.629,20.625 c 2.816,3.043 5.101,5.602 6.863,7.672 1.754,2.071 3.492,4.453 5.211,7.149 1.723,2.695 3.09,5.449 4.102,8.265 1.015,2.809 1.523,5.778 1.523,8.903 0,3.285 -0.605,6.41 -1.812,9.375 -1.215,2.968 -3.036,5.351 -5.454,7.144 -2.421,1.801 -5.312,2.703 -8.671,2.703 -3.516,0 -6.661,-1.035 -9.434,-3.105 -2.777,-2.071 -4.707,-4.785 -5.797,-8.145 0.309,0.074 0.738,0.11 1.281,0.11 1.801,0 3.325,-0.602 4.575,-1.813 1.25,-1.211 1.875,-2.754 1.875,-4.629 0,-1.875 -0.625,-3.437 -1.875,-4.687 -1.25,-1.25 -2.774,-1.875 -4.575,-1.875 -1.875,0 -3.453,0.644 -4.738,1.937 -1.293,1.289 -1.937,2.832 -1.937,4.625 0,2.973 0.566,5.785 1.695,8.438 1.137,2.656 2.777,5 4.93,7.035 2.144,2.031 4.546,3.594 7.207,4.687 2.652,1.09 5.504,1.637 8.55,1.637 4.528,0 8.77,-0.957 12.719,-2.875 3.945,-1.91 7.07,-4.641 9.375,-8.195 2.301,-3.555 3.449,-7.68 3.449,-12.367 0,-3.516 -0.761,-6.836 -2.281,-9.961 -1.523,-3.125 -3.476,-5.957 -5.855,-8.496 -2.387,-2.536 -5.434,-5.426 -9.145,-8.672 -3.707,-3.239 -6.152,-5.407 -7.324,-6.504 l -13.594,-13.125 h 11.606 c 5.625,0 10.347,0.058 14.175,0.176 3.829,0.117 5.86,0.257 6.094,0.41 0.938,1.015 1.875,4.726 2.813,11.129 h 3.511 l -3.398,-21.442 h -44.527" /><path
         id="path78"
         style="fill:#262626;fill-opacity:1;fill-rule:nonzero;stroke:none"
         d="m 225.164,1194.51 c -9.766,0 -16.426,4.04 -19.98,12.13 -3.555,8.08 -5.332,17.71 -5.332,28.88 0,6.95 0.644,13.5 1.933,19.63 1.289,6.13 3.809,11.33 7.559,15.59 3.75,4.25 9.023,6.38 15.82,6.38 5.313,0 9.652,-1.29 13.012,-3.86 3.359,-2.58 5.918,-5.9 7.672,-9.96 1.761,-4.07 2.953,-8.44 3.578,-13.13 0.625,-4.69 0.937,-9.57 0.937,-14.65 0,-6.88 -0.625,-13.32 -1.875,-19.34 -1.25,-6.01 -3.73,-11.13 -7.441,-15.35 -3.715,-4.22 -9.008,-6.32 -15.883,-6.32 z m 0,3.16 c 4.453,0 7.777,2.29 9.965,6.86 2.187,4.57 3.535,9.63 4.043,15.17 0.504,5.55 0.758,11.44 0.758,17.69 0,6.02 -0.254,11.57 -0.758,16.65 -0.508,5.07 -1.84,9.69 -3.988,13.82 -2.145,4.14 -5.485,6.21 -10.02,6.21 -4.531,0 -7.891,-2.07 -10.074,-6.21 -2.192,-4.13 -3.539,-8.75 -4.043,-13.82 -0.508,-5.08 -0.766,-10.63 -0.766,-16.65 0,-4.45 0.117,-8.64 0.356,-12.59 0.234,-3.94 0.816,-8.01 1.754,-12.19 0.937,-4.18 2.445,-7.71 4.515,-10.6 2.071,-2.89 4.821,-4.34 8.258,-4.34" /><path
         id="path80"
         style="fill:#262626;fill-opacity:1;fill-rule:nonzero;stroke:none"
         d="m 265.242,1203.88 c 0,1.8 0.664,3.34 1.996,4.63 1.328,1.29 2.891,1.94 4.688,1.94 1.094,0 2.168,-0.3 3.222,-0.89 1.055,-0.58 1.875,-1.4 2.461,-2.46 0.586,-1.05 0.879,-2.13 0.879,-3.22 0,-1.8 -0.644,-3.36 -1.937,-4.68 -1.289,-1.34 -2.832,-2 -4.625,-2 -1.797,0 -3.36,0.66 -4.688,2 -1.332,1.32 -1.996,2.88 -1.996,4.68" /><path
         id="path82"
         style="fill:#262626;fill-opacity:1;fill-rule:nonzero;stroke:none"
         d="m 291.898,1217.01 v 4.21 l 37.036,55.32 c 0.308,0.39 0.738,0.58 1.281,0.58 h 1.762 c 0.859,0 1.289,-0.43 1.289,-1.29 v -54.61 h 11.836 v -4.21 h -11.836 v -11.72 c 0,-1.65 1.172,-2.7 3.511,-3.17 2.344,-0.46 5.082,-0.7 8.207,-0.7 v -4.22 h -33.046 v 4.22 c 3.046,0 5.738,0.24 8.085,0.7 2.344,0.47 3.516,1.52 3.516,3.17 v 11.72 z m 3.981,4.21 h 28.367 v 42.54 z" /><path
         id="path84"
         style="fill:#262626;fill-opacity:1;fill-rule:nonzero;stroke:none"
         d="m 225.164,1647.51 c -9.766,0 -16.426,4.04 -19.98,12.13 -3.555,8.08 -5.332,17.71 -5.332,28.88 0,6.95 0.644,13.5 1.933,19.63 1.289,6.13 3.809,11.33 7.559,15.59 3.75,4.25 9.023,6.38 15.82,6.38 5.313,0 9.652,-1.29 13.012,-3.86 3.359,-2.58 5.918,-5.9 7.672,-9.96 1.761,-4.07 2.953,-8.44 3.578,-13.13 0.625,-4.69 0.937,-9.57 0.937,-14.65 0,-6.88 -0.625,-13.32 -1.875,-19.34 -1.25,-6.01 -3.73,-11.13 -7.441,-15.35 -3.715,-4.22 -9.008,-6.32 -15.883,-6.32 z m 0,3.16 c 4.453,0 7.777,2.29 9.965,6.86 2.187,4.57 3.535,9.63 4.043,15.17 0.504,5.55 0.758,11.44 0.758,17.69 0,6.02 -0.254,11.57 -0.758,16.65 -0.508,5.07 -1.84,9.69 -3.988,13.82 -2.145,4.14 -5.485,6.21 -10.02,6.21 -4.531,0 -7.891,-2.07 -10.074,-6.21 -2.192,-4.13 -3.539,-8.75 -4.043,-13.82 -0.508,-5.08 -0.766,-10.63 -0.766,-16.65 0,-4.45 0.117,-8.64 0.356,-12.59 0.234,-3.94 0.816,-8.01 1.754,-12.19 0.937,-4.18 2.445,-7.71 4.515,-10.6 2.071,-2.89 4.821,-4.34 8.258,-4.34" /><path
         id="path86"
         style="fill:#262626;fill-opacity:1;fill-rule:nonzero;stroke:none"
         d="m 265.242,1656.88 c 0,1.8 0.664,3.34 1.996,4.63 1.328,1.29 2.891,1.94 4.688,1.94 1.094,0 2.168,-0.3 3.222,-0.89 1.055,-0.58 1.875,-1.4 2.461,-2.46 0.586,-1.05 0.879,-2.13 0.879,-3.22 0,-1.8 -0.644,-3.36 -1.937,-4.68 -1.289,-1.34 -2.832,-2 -4.625,-2 -1.797,0 -3.36,0.66 -4.688,2 -1.332,1.32 -1.996,2.88 -1.996,4.68" /><path
         id="path88"
         style="fill:#262626;fill-opacity:1;fill-rule:nonzero;stroke:none"
         d="m 318.5,1647.51 c -4.922,0 -9.039,1.33 -12.359,3.98 -3.325,2.65 -5.907,6.09 -7.743,10.31 -1.832,4.22 -3.101,8.64 -3.808,13.25 -0.699,4.6 -1.051,9.25 -1.051,13.94 0,6.33 1.231,12.68 3.691,19.04 2.461,6.37 6.094,11.64 10.899,15.82 4.805,4.18 10.488,6.27 17.055,6.27 2.73,0 5.265,-0.51 7.613,-1.52 2.344,-1.02 4.199,-2.54 5.562,-4.57 1.371,-2.03 2.055,-4.45 2.055,-7.27 0,-1.64 -0.566,-3.03 -1.703,-4.16 -1.129,-1.13 -2.512,-1.69 -4.152,-1.69 -1.567,0 -2.914,0.56 -4.043,1.69 -1.137,1.13 -1.703,2.52 -1.703,4.16 0,1.57 0.566,2.92 1.703,4.04 1.129,1.14 2.476,1.71 4.043,1.71 h 0.695 c -1.016,1.4 -2.457,2.46 -4.332,3.16 -1.875,0.7 -3.789,1.05 -5.738,1.05 -2.426,0 -4.672,-0.52 -6.743,-1.58 -2.07,-1.05 -3.925,-2.48 -5.566,-4.28 -1.641,-1.79 -3.008,-3.78 -4.102,-5.97 -1.097,-2.19 -1.937,-4.67 -2.519,-7.44 -0.586,-2.78 -0.957,-5.38 -1.113,-7.79 -0.157,-2.43 -0.239,-5.48 -0.239,-9.15 1.411,3.28 3.403,5.98 5.977,8.09 2.582,2.11 5.473,3.16 8.68,3.16 3.589,0 6.847,-0.72 9.777,-2.17 2.93,-1.44 5.453,-3.45 7.562,-6.03 2.11,-2.58 3.711,-5.51 4.805,-8.79 1.09,-3.28 1.637,-6.6 1.637,-9.96 0,-4.69 -1.035,-9.14 -3.106,-13.36 -2.07,-4.22 -4.996,-7.6 -8.781,-10.14 -3.789,-2.54 -8.109,-3.8 -12.953,-3.8 z m 0,3.86 c 3.125,0 5.625,0.7 7.5,2.11 1.875,1.41 3.242,3.29 4.102,5.63 0.859,2.34 1.41,4.68 1.644,7.03 0.231,2.34 0.344,5.23 0.344,8.67 0,4.53 -0.211,8.4 -0.637,11.6 -0.43,3.2 -1.601,6.04 -3.519,8.5 -1.914,2.46 -4.864,3.69 -8.848,3.69 -3.207,0 -5.859,-1.1 -7.965,-3.28 -2.109,-2.19 -3.637,-4.96 -4.574,-8.32 -0.938,-3.36 -1.406,-6.57 -1.406,-9.61 0,-1.1 0.039,-1.92 0.113,-2.46 0,-0.08 -0.016,-0.16 -0.051,-0.23 -0.039,-0.09 -0.062,-0.2 -0.062,-0.36 0,-3.44 0.351,-6.91 1.05,-10.43 0.707,-3.52 2.055,-6.48 4.043,-8.9 1.996,-2.43 4.75,-3.64 8.266,-3.64" /><path
         id="path90"
         style="fill:#262626;fill-opacity:1;fill-rule:nonzero;stroke:none"
         d="m 225.164,2100.51 c -9.766,0 -16.426,4.04 -19.98,12.13 -3.555,8.08 -5.332,17.71 -5.332,28.88 0,6.95 0.644,13.5 1.933,19.63 1.289,6.13 3.809,11.33 7.559,15.59 3.75,4.25 9.023,6.38 15.82,6.38 5.313,0 9.652,-1.29 13.012,-3.86 3.359,-2.58 5.918,-5.9 7.672,-9.96 1.761,-4.07 2.953,-8.44 3.578,-13.13 0.625,-4.69 0.937,-9.57 0.937,-14.65 0,-6.88 -0.625,-13.32 -1.875,-19.34 -1.25,-6.01 -3.73,-11.13 -7.441,-15.35 -3.715,-4.22 -9.008,-6.32 -15.883,-6.32 z m 0,3.16 c 4.453,0 7.777,2.29 9.965,6.86 2.187,4.57 3.535,9.63 4.043,15.17 0.504,5.55 0.758,11.44 0.758,17.69 0,6.02 -0.254,11.57 -0.758,16.65 -0.508,5.07 -1.84,9.69 -3.988,13.82 -2.145,4.14 -5.485,6.21 -10.02,6.21 -4.531,0 -7.891,-2.07 -10.074,-6.21 -2.192,-4.13 -3.539,-8.75 -4.043,-13.82 -0.508,-5.08 -0.766,-10.63 -0.766,-16.65 0,-4.45 0.117,-8.64 0.356,-12.59 0.234,-3.94 0.816,-8.01 1.754,-12.19 0.937,-4.18 2.445,-7.71 4.515,-10.6 2.071,-2.89 4.821,-4.34 8.258,-4.34" /><path
         id="path92"
         style="fill:#262626;fill-opacity:1;fill-rule:nonzero;stroke:none"
         d="m 265.242,2109.88 c 0,1.8 0.664,3.34 1.996,4.63 1.328,1.29 2.891,1.94 4.688,1.94 1.094,0 2.168,-0.3 3.222,-0.89 1.055,-0.58 1.875,-1.4 2.461,-2.46 0.586,-1.05 0.879,-2.13 0.879,-3.22 0,-1.8 -0.644,-3.36 -1.937,-4.68 -1.289,-1.34 -2.832,-2 -4.625,-2 -1.797,0 -3.36,0.66 -4.688,2 -1.332,1.32 -1.996,2.88 -1.996,4.68" /><path
         id="path94"
         style="fill:#262626;fill-opacity:1;fill-rule:nonzero;stroke:none"
         d="m 293.539,2121.48 c 0,4.77 1.582,9.01 4.75,12.72 3.16,3.71 7.238,6.77 12.238,9.19 l -4.449,2.93 c -2.734,1.8 -4.961,4.18 -6.68,7.15 -1.722,2.97 -2.582,6.1 -2.582,9.38 0,3.83 1,7.29 2.993,10.37 1.992,3.08 4.668,5.51 8.027,7.27 3.359,1.75 6.914,2.63 10.664,2.63 3.594,0 7.031,-0.72 10.313,-2.17 3.281,-1.44 5.996,-3.51 8.144,-6.21 2.148,-2.69 3.227,-5.88 3.227,-9.54 0,-2.74 -0.645,-5.26 -1.938,-7.56 -1.289,-2.31 -3.027,-4.38 -5.219,-6.21 -2.183,-1.84 -4.527,-3.38 -7.027,-4.63 l 6.797,-4.46 c 3.203,-2.03 5.762,-4.72 7.68,-8.08 1.91,-3.36 2.863,-6.92 2.863,-10.67 0,-4.3 -1.149,-8.23 -3.449,-11.78 -2.305,-3.55 -5.375,-6.32 -9.203,-8.32 -3.829,-1.99 -7.891,-2.98 -12.188,-2.98 -4.141,0 -8.125,0.85 -11.953,2.57 -3.828,1.72 -6.953,4.16 -9.375,7.33 -2.422,3.16 -3.633,6.86 -3.633,11.07 z m 6.563,0 c 0,-3.2 0.859,-6.11 2.582,-8.73 1.714,-2.62 4,-4.67 6.855,-6.15 2.848,-1.49 5.836,-2.23 8.961,-2.23 4.684,0 8.922,1.37 12.711,4.1 3.793,2.74 5.687,6.33 5.687,10.79 0,1.56 -0.312,3.08 -0.937,4.56 -0.625,1.49 -1.465,2.86 -2.52,4.11 -1.054,1.25 -2.246,2.26 -3.57,3.04 l -16.18,10.44 c -2.5,-1.34 -4.785,-3.02 -6.855,-5.05 -2.07,-2.02 -3.707,-4.31 -4.918,-6.85 -1.211,-2.54 -1.816,-5.21 -1.816,-8.03 z m 8.207,36.57 14.527,-9.38 c 3.359,1.95 6.113,4.31 8.266,7.09 2.144,2.78 3.214,5.92 3.214,9.44 0,2.65 -0.742,5.11 -2.226,7.37 -1.481,2.27 -3.434,4.03 -5.856,5.28 -2.421,1.25 -5.039,1.87 -7.855,1.87 -2.418,0 -4.859,-0.47 -7.32,-1.4 -2.457,-0.94 -4.493,-2.35 -6.098,-4.22 -1.598,-1.88 -2.398,-4.06 -2.398,-6.56 0,-3.75 1.914,-6.92 5.746,-9.49" /><path
         id="path96"
         style="fill:#262626;fill-opacity:1;fill-rule:nonzero;stroke:none"
         d="m 299.629,2556.2 v 4.22 c 10,0 15,1.29 15,3.87 v 62.93 c -4.141,-1.96 -9.371,-2.93 -15.695,-2.93 v 4.22 c 9.839,0 17.257,2.54 22.257,7.61 h 1.645 c 0.312,0 0.586,-0.1 0.816,-0.29 0.235,-0.2 0.352,-0.45 0.352,-0.76 v -70.78 c 0,-2.58 5,-3.87 15,-3.87 v -4.22 h -39.375" /><path
         id="path98"
         style="fill:#262626;fill-opacity:1;fill-rule:nonzero;stroke:none"
         d="m 114.766,1267.16 h -5.039 c 0,9.84 -1.485,14.76 -4.457,14.76 H 26.9922 c -3.0469,0 -4.5742,-4.92 -4.5742,-14.76 h -5.0313 v 50.74 c 0,5.23 1.0703,10.45 3.2188,15.64 2.1484,5.2 5.2539,9.48 9.3125,12.84 4.0664,3.35 8.832,5.04 14.3047,5.04 5.3086,0 9.957,-1.71 13.9414,-5.1 3.9843,-3.4 7.0117,-7.68 9.082,-12.84 2.0703,-5.15 3.1055,-10.35 3.1055,-15.58 v -22.85 H 105.27 c 2.972,0 4.457,4.92 4.457,14.76 h 5.039 z m -48.7504,27.54 v 19.34 c 0,5.23 -0.7422,9.46 -2.2265,12.71 -1.4844,3.24 -3.8282,5.62 -7.0274,7.14 -3.207,1.53 -7.3867,2.29 -12.539,2.29 -7.7383,0 -13.3047,-1.7 -16.7032,-5.1 -3.4023,-3.4 -5.1015,-9.08 -5.1015,-17.04 v -12.08 c 0,-1.72 0.082,-3.07 0.2422,-4.04 0.1523,-0.97 0.5625,-1.76 1.2304,-2.34 0.6641,-0.59 1.6992,-0.88 3.1016,-0.88 h 39.0234" /><path
         id="path100"
         style="fill:#262626;fill-opacity:1;fill-rule:nonzero;stroke:none"
         d="m 135.766,1361.26 c 0,-0.62 -0.43,-0.94 -1.289,-0.94 -0.157,0 -0.45,0.06 -0.879,0.18 -0.43,0.12 -0.743,0.26 -0.938,0.41 -0.195,0.16 -0.293,0.39 -0.293,0.71 0,5.93 -2.226,11.01 -6.679,15.23 -0.079,0.08 -0.114,0.16 -0.114,0.23 0,0.08 0,0.12 0,0.12 l -23.094,21.33 -27.8823,-11.6 c -0.8633,-0.71 -1.4102,-1.8 -1.6446,-3.29 -0.2343,-1.48 -0.3515,-3.23 -0.3515,-5.27 0,-0.62 -0.4297,-0.94 -1.2891,-0.94 -0.8594,0.24 -1.4258,0.42 -1.6953,0.53 -0.2774,0.12 -0.4141,0.49 -0.4141,1.11 v 24.38 c 0,0.71 0.4297,1.06 1.2891,1.06 0.1562,-0.08 0.4297,-0.18 0.8203,-0.3 0.3906,-0.11 0.7031,-0.25 0.9375,-0.41 0.2344,-0.15 0.3516,-0.39 0.3516,-0.7 0,-1.25 0.1953,-2.52 0.5859,-3.81 0.3906,-1.29 1.0156,-2.16 1.875,-2.63 l 20.2695,8.31 -17.2265,16.06 c -0.1524,0.08 -0.5235,0.29 -1.1094,0.65 -0.5859,0.35 -1.1133,0.52 -1.582,0.52 -0.9336,0 -1.6368,-0.41 -2.1094,-1.23 -0.4688,-0.82 -0.7031,-1.81 -0.7031,-2.99 0,-0.62 -0.4297,-0.93 -1.2891,-0.93 -0.8594,0.23 -1.4258,0.4 -1.6953,0.52 -0.2774,0.12 -0.4141,0.49 -0.4141,1.11 v 21.1 c 0,0.39 0.1172,0.67 0.3516,0.82 0.2383,0.15 0.5508,0.23 0.9375,0.23 0.1562,0 0.4101,-0.06 0.7578,-0.17 0.3555,-0.12 0.668,-0.25 0.9375,-0.41 0.2773,-0.16 0.4141,-0.39 0.4141,-0.7 0,-3.05 0.5468,-5.83 1.6406,-8.33 1.0976,-2.5 2.7383,-4.8 4.9219,-6.91 0.0781,-0.08 0.1211,-0.13 0.1211,-0.17 0,-0.04 0.0351,-0.1 0.1093,-0.18 l 18.9922,-17.7 31.9883,13.36 c 1.328,1.09 1.992,3.95 1.992,8.56 0,0.62 0.43,0.94 1.293,0.94 0.86,-0.24 1.422,-0.43 1.695,-0.59 0.274,-0.15 0.411,-0.51 0.411,-1.06 v -24.37 c 0,-0.63 -0.43,-0.94 -1.289,-0.94 -0.157,0 -0.43,0.04 -0.817,0.12 -0.39,0.08 -0.703,0.21 -0.937,0.41 -0.239,0.2 -0.356,0.41 -0.356,0.64 0,1.25 -0.195,2.54 -0.582,3.87 -0.39,1.33 -1.055,2.23 -1.996,2.69 l -24.254,-10.07 21.32,-19.69 c 0.161,-0.16 0.512,-0.41 1.059,-0.76 0.543,-0.35 1.094,-0.53 1.641,-0.53 0.937,0 1.64,0.45 2.109,1.35 0.469,0.9 0.703,1.85 0.703,2.87 0,0.7 0.43,1.06 1.293,1.06 0.86,-0.24 1.422,-0.41 1.695,-0.53 0.274,-0.12 0.411,-0.53 0.411,-1.23 v -21.1" /><path
         id="path102"
         style="fill:#262626;fill-opacity:1;fill-rule:nonzero;stroke:none"
         d="m 150.16,1497.81 c -4.222,-5.32 -9.027,-9.89 -14.418,-13.71 -5.387,-3.83 -11.152,-6.96 -17.285,-9.38 -6.129,-2.42 -12.535,-4.24 -19.2148,-5.45 -6.6797,-1.21 -13.3828,-1.81 -20.1016,-1.81 -6.7929,0 -13.5312,0.6 -20.2109,1.81 -6.6797,1.21 -13.1094,3.07 -19.2852,5.57 -6.1679,2.5 -11.9492,5.66 -17.3398,9.49 -5.3867,3.83 -10.1172,8.32 -14.1797,13.48 -0.15625,0 -0.23437,0.23 -0.23437,0.7 v 1.29 c 0,0.31 0.13671,0.59 0.41406,0.82 0.26953,0.24 0.5625,0.35 0.875,0.35 0.39062,0 0.66406,-0.11 0.82031,-0.35 4.6094,-4.61 9.5117,-8.46 14.707,-11.54 5.1953,-3.09 10.7227,-5.57 16.5821,-7.44 5.8593,-1.88 11.9336,-3.22 18.2265,-4.04 6.2891,-0.82 12.8321,-1.23 19.625,-1.23 30.2344,0 53.1644,8.04 68.7894,24.13 0.312,0.32 0.703,0.47 1.172,0.47 0.234,0 0.507,-0.13 0.816,-0.41 0.316,-0.27 0.473,-0.52 0.473,-0.76 v -1.29 c 0,-0.47 -0.078,-0.7 -0.231,-0.7" /><path
         id="path104"
         style="fill:#262626;fill-opacity:1;fill-rule:nonzero;stroke:none"
         d="m 110.664,1519.21 c 1.328,1.64 1.996,4.02 1.996,7.15 0,2.96 -1.43,5.58 -4.285,7.85 -2.848,2.26 -5.992,3.78 -9.4258,4.56 l -25.1992,6.57 c -4.6094,1.02 -7.7344,1.53 -9.375,1.53 -2.4219,0 -4.5117,-0.67 -6.2695,-2 -1.7578,-1.33 -2.6328,-3.16 -2.6328,-5.5 0,-3.05 0.9375,-5.91 2.8125,-8.56 1.875,-2.66 4.2578,-4.88 7.1445,-6.68 2.8906,-1.8 5.8203,-3.05 8.793,-3.75 0.625,-0.24 0.9375,-0.63 0.9375,-1.17 v -1.76 c 0,-0.7 -0.4297,-1.06 -1.293,-1.06 h -0.4727 c -3.5117,0.94 -6.9492,2.53 -10.3125,4.75 -3.3593,2.23 -6.0742,4.94 -8.1445,8.15 -2.0703,3.19 -3.1055,6.63 -3.1055,10.31 0,3.51 0.918,6.66 2.7539,9.44 1.8399,2.76 4.3594,4.74 7.5586,5.91 -2.8867,1.64 -5.3281,3.73 -7.3164,6.27 -1.9961,2.54 -2.9961,5.29 -2.9961,8.26 0,2.03 0.3555,4.12 1.0586,6.27 0.7071,2.15 1.7969,3.89 3.2774,5.21 1.4843,1.33 3.3593,2 5.625,2 2.3476,0 4.3984,-0.76 6.1601,-2.29 1.7539,-1.52 2.6289,-3.49 2.6289,-5.92 0,-1.56 -0.4843,-2.85 -1.4609,-3.86 -0.9766,-1.01 -2.2031,-1.52 -3.6914,-1.52 -2.0274,0 -3.7852,0.68 -5.2695,2.04 -1.4883,1.37 -2.3868,2.99 -2.7032,4.86 -1.3242,-1.64 -1.9843,-3.98 -1.9843,-7.02 0,-3.05 1.4218,-5.71 4.2734,-7.98 2.8516,-2.26 5.9961,-3.86 9.4336,-4.8 l 25.1953,-6.21 c 3.8281,-1.01 6.953,-1.52 9.375,-1.52 2.422,0 4.516,0.68 6.27,2.05 1.757,1.36 2.64,3.18 2.64,5.45 0,4.45 -1.972,8.43 -5.918,11.95 -3.945,3.51 -8.2615,5.82 -12.9529,6.92 -0.5469,0.15 -0.8164,0.5 -0.8164,1.05 v 1.76 c 0,0.38 0.1328,0.7 0.4023,0.94 0.2773,0.23 0.5703,0.35 0.8867,0.35 0.0742,0 0.1914,-0.04 0.3438,-0.12 5.7075,-1.41 10.7655,-4.26 15.1795,-8.55 4.418,-4.31 6.625,-9.15 6.625,-14.54 0,-3.52 -0.937,-6.68 -2.812,-9.49 -1.875,-2.81 -4.418,-4.8 -7.621,-5.97 2.734,-1.49 5.156,-3.54 7.265,-6.16 2.113,-2.62 3.168,-5.41 3.168,-8.38 0,-2.03 -0.375,-4.12 -1.117,-6.27 -0.742,-2.14 -1.855,-3.9 -3.34,-5.27 -1.484,-1.37 -3.359,-2.05 -5.625,-2.05 -2.187,0 -4.203,0.78 -6.035,2.34 -1.836,1.57 -2.7539,3.52 -2.7539,5.87 0,1.56 0.4687,2.86 1.4101,3.92 0.9336,1.05 2.1838,1.58 3.7498,1.58 1.949,0 3.668,-0.64 5.153,-1.93 1.484,-1.3 2.421,-2.96 2.812,-4.98" /><path
         id="path106"
         style="fill:#262626;fill-opacity:1;fill-rule:nonzero;stroke:none"
         d="m 150.391,1597.35 c 0,-0.86 -0.43,-1.29 -1.289,-1.29 -0.391,0 -0.664,0.12 -0.817,0.35 -15.863,16.17 -38.91,24.26 -69.1444,24.26 -30.2343,0 -53.164,-8.01 -68.789,-24.03 -0.2344,-0.39 -0.62504,-0.58 -1.17191,-0.58 -0.3125,0 -0.60547,0.14 -0.875,0.4 -0.27735,0.28 -0.41406,0.58 -0.41406,0.89 v 1.28 c 0,0.32 0.07812,0.55 0.23437,0.71 5.3906,6.8 11.9297,12.48 19.625,17.05 7.6953,4.57 15.918,7.91 24.668,10.02 8.75,2.11 17.6601,3.16 26.7226,3.16 6.7188,0 13.3399,-0.57 19.8594,-1.69 6.527,-1.14 12.953,-2.96 19.285,-5.46 6.324,-2.5 12.164,-5.64 17.52,-9.44 5.347,-3.78 10.133,-8.33 14.355,-13.64 0.153,-0.16 0.231,-0.39 0.231,-0.71 v -1.28" /><path
         id="path108"
         style="fill:none;stroke:#0000ff;stroke-width:9.99750042;stroke-linecap:butt;stroke-linejoin:round;stroke-miterlimit:10;stroke-dasharray:none;stroke-opacity:1"
         d="m 392.5,320 h 976.74 l 3.35,0.008 h 30.1 l 3.35,0.008 h 3.34 3.35 3.34 3.34 l 3.35,0.007 h 3.35 3.34 l 3.35,0.008 h 3.34 3.34 l 3.35,0.008 h 3.35 l 3.34,0.008 h 3.34 l 3.35,0.004 3.34,0.008 3.35,0.007 h 3.35 l 3.34,0.008 3.34,0.008 3.35,0.016 3.35,0.007 3.34,0.008 3.35,0.016 3.34,0.008 3.34,0.011 3.35,0.016 3.35,0.016 3.34,0.015 3.35,0.016 3.34,0.023 3.34,0.02 3.35,0.023 3.35,0.024 3.34,0.031 3.34,0.027 3.35,0.032 3.34,0.035 3.35,0.039 3.35,0.047 3.34,0.035 3.34,0.055 3.35,0.05 3.34,0.055 3.35,0.059 3.35,0.066 3.34,0.066 3.34,0.079 3.35,0.082 3.35,0.089 3.34,0.09 3.35,0.106 3.34,0.113 3.34,0.109 3.35,0.129 3.35,0.133 3.34,0.152 3.35,0.149 3.34,0.172 3.34,0.176 3.35,0.195 3.35,0.199 3.34,0.227 3.34,0.234 3.35,0.246 3.34,0.27 3.35,0.285 3.35,0.308 3.34,0.321 3.34,0.351 3.35,0.371 3.35,0.387 3.34,0.422 3.35,0.449 3.34,0.473 3.34,0.504 3.35,0.539 3.35,0.57 3.34,0.598 3.35,0.648 3.34,0.672 3.34,0.723 3.35,0.765 3.35,0.801 3.34,0.856 3.35,0.906 3.34,0.953 3.34,1.004 3.35,1.066 3.35,1.125 3.34,1.184 3.34,1.254 3.35,1.32 3.34,1.387 3.35,1.461 3.35,1.539 3.34,1.613 3.34,1.703 3.35,1.785 3.35,1.883 3.34,1.965 3.35,2.07 3.34,2.164 3.34,2.274 3.35,2.379 3.35,2.488 3.34,2.609 3.35,2.731 3.34,2.851 3.34,2.977 3.35,3.113 3.35,3.246 3.34,3.391 3.34,3.539 3.35,3.684 3.34,3.84 3.35,3.996 3.35,4.164 3.34,4.336 3.34,4.5 3.35,4.672 3.35,4.859 3.34,5.047 3.35,5.234 3.34,5.434 3.34,5.633 3.35,5.824 3.35,6.047 3.34,6.246 3.35,6.472 3.34,6.684 3.34,6.914 3.35,7.141 3.35,7.371 3.34,7.613 3.35,7.852 3.34,8.093 3.34,8.332 3.35,8.59 3.35,8.84 3.34,9.098 3.34,9.351 3.35,9.625 3.34,9.875 3.35,10.141 3.35,10.41 3.34,10.68 3.34,10.957 3.35,11.222 3.35,11.489 3.34,11.769 3.35,12.043 3.34,12.317 3.34,12.593 3.35,12.86 3.35,13.133 3.34,13.41 3.35,13.679 3.34,13.95 3.34,14.214 3.35,14.481 3.35,14.746 3.34,15.008 3.34,15.262 3.35,15.511 3.34,15.774 3.35,16.011 3.35,16.25 3.34,16.493 3.34,16.726 3.35,16.949 3.35,17.176 3.34,17.387 3.35,17.601 3.34,17.81 3.34,18 3.35,18.18 3.35,18.38 3.34,18.54 3.35,18.72 3.34,18.87 3.34,19.03 3.35,19.17 3.35,19.31 3.34,19.42 3.35,19.55 3.34,19.66 3.34,19.75 3.35,19.84 3.35,19.93 3.34,19.99 3.34,20.05 3.35,20.11 3.34,20.14 3.35,20.18 3.35,20.19 3.34,20.2 3.34,20.2 3.35,20.19 3.35,20.18 3.34,20.14 3.35,20.11 3.34,20.05 3.34,19.99 3.35,19.93 3.35,19.84 3.34,19.75 3.35,19.66 3.34,19.55 3.34,19.42 3.35,19.31 3.35,19.17 3.34,19.03 3.34,18.87 3.35,18.72 3.34,18.54 3.35,18.38 3.35,18.18 3.34,18 3.34,17.81 3.35,17.6 3.35,17.39 3.34,17.17 3.35,16.95 3.34,16.73 3.34,16.49 3.35,16.25 3.35,16.01 3.34,15.78 3.35,15.51 3.34,15.26 3.34,15.01 3.35,14.74 3.35,14.48 3.34,14.22 3.35,13.95 3.34,13.68 3.34,13.41 3.35,13.13 3.35,12.86 3.34,12.59 3.34,12.32 3.35,12.04 3.34,11.77 3.35,11.49 3.35,11.23 3.34,10.95 3.34,10.68 3.35,10.41 3.35,10.14 3.34,9.88 3.35,9.62 3.34,9.35 3.34,9.1 3.35,8.84 3.35,8.59 3.34,8.33 3.35,8.1 3.34,7.85 3.34,7.61 3.35,7.37 3.35,7.14 3.34,6.92 3.34,6.68 3.35,6.47 3.34,6.25 3.35,6.05 3.35,5.82 3.34,5.63 3.34,5.44 3.35,5.23 3.35,5.05 3.34,4.86 3.35,4.67 3.34,4.5 3.34,4.34 3.35,4.16 3.35,4 3.34,3.84 3.35,3.68 3.34,3.54 3.34,3.39 3.35,3.24 3.35,3.12 3.34,2.97 3.35,2.86 3.34,2.73 3.34,2.61 3.35,2.48 3.35,2.38 3.34,2.28 3.34,2.16 3.35,2.07 3.34,1.97 3.35,1.88 3.35,1.78 3.34,1.71 3.34,1.61 3.35,1.54 3.35,1.46 3.34,1.39 3.35,1.32 3.34,1.25 3.34,1.18 3.35,1.13 3.35,1.07 3.34,1 3.35,0.95 3.34,0.91 3.34,0.85 3.35,0.81 3.35,0.76 3.34,0.72 3.34,0.68 3.35,0.64 3.34,0.6 3.35,0.57 3.35,0.54 3.34,0.51 3.34,0.47 3.35,0.45 3.35,0.42 3.34,0.39 3.35,0.37 3.34,0.35 3.34,0.32 3.35,0.31 3.35,0.28 3.34,0.27 3.35,0.25 3.34,0.23 3.34,0.23 3.35,0.2 3.35,0.19 3.34,0.18 3.34,0.17 3.35,0.15 3.34,0.15 3.35,0.13 3.35,0.13 3.34,0.12 3.34,0.11 3.35,0.1 3.34,0.09 3.35,0.09 3.35,0.08 3.34,0.08 3.34,0.07 3.35,0.06 3.35,0.07 3.34,0.05 3.35,0.05 3.34,0.05 3.34,0.04 3.35,0.05 3.35,0.03 3.34,0.04 3.35,0.03 3.34,0.03 3.34,0.03 3.35,0.02 3.35,0.03 3.34,0.02 3.34,0.02 3.35,0.01 3.34,0.02 3.35,0.02 3.35,0.01 3.34,0.01 3.34,0.01 3.35,0.02 h 3.35 l 3.34,0.01 3.35,0.02 3.34,0.01 h 3.34 3.35 l 3.35,0.01 3.34,0.01 3.35,0.01 h 3.34 3.34 3.35 l 3.35,0.01 h 3.34 3.35 l 3.34,0.01 h 3.34 3.35 3.35 3.34 3.34 3.35 3.34 l 3.35,0.01 h 3.35 3.34 3.34 3.35 3.35 3.34 3.35 3.34 3.34 3.35 l 3.35,0.01 h 3.34 3.35 3.34 3.34 3.35 3.35 3.34 3.34 3.35 3.34 3.35 3.35 3.34 3.34 3.35 3.35 3.34 3.35 3.34 3.34 3.35 3.35 3.34 3.35 3.34 3.34 3.35 3.35 3.34 3.35 3.34 3.34 3.35 3.35 3.34 3.34 3.35 3.34 3.35 3.35 3.34 3.34 3.35 3.35 3.34 3.35 3.34 3.34 3.35 3.35 3.34 3.35 3.34 3.34 3.35 3.35 3.34 3.34 3.35 3.34 3.35 3.35 3.34 3.34 3.35 3.35 3.34 3.35 3.34 3.34 3.35 3.35 3.34 3.35 3.34 3.34 3.35 3.35 3.34 3.35 3.34 3.34 3.35 3.35 3.34 3.34 3.35 3.34 3.35 3.35 3.34 3.34 3.35 3.35 3.34 3.35 3.34 3.34 3.35 3.35 3.34 3.35 3.34 3.34 3.35 3.35 3.34 3.34 3.35 3.34 3.35 3.35 3.34 3.34 3.35 3.35 3.34 3.35 3.34 3.34 3.35 3.35 3.34 3.35 3.34 3.34 3.35 3.35 3.34 3.35 3.34 3.34 3.35 3.35 3.34 3.34 3.35 3.34 3.35 3.35 3.34 3.34 3.35 3.35 3.34 3.35 3.34 3.34 3.35 3.35 3.34 3.35 3.34 3.34 3.35 3.35 3.34 3.34 3.35 3.34 3.35 3.35 3.34 3.34 3.35 3.35 3.34 3.35 3.34 3.34 3.35 3.35 3.34 3.35 3.34 3.34 3.35 3.35 3.34 3.34 3.35 3.34 3.35 3.35 3.34 3.34 3.35 3.34 3.35 3.35 3.34 3.34 3.35 3.35 3.34 3.35 3.34 3.34 3.35 3.35 3.34 3.35 3.34 3.34 3.35 3.35 3.34 3.34 3.35 3.34 3.35 3.35 3.34 3.34 3.35 3.35 3.34 3.35 3.34 3.34 3.35 3.35 3.34 3.35 3.34 3.34 3.35 3.35 3.34 3.35 3.34 3.34 3.35 3.35 3.34 3.34 3.35 3.34 3.35 3.35 3.34 3.34 3.35 3.35 3.34 3.35 3.34 3.34 3.35 3.35 3.34 3.35 3.34 3.34 3.35 3.35 3.34 3.34 3.35 3.34 3.35 3.35 3.34 3.34 3.35 3.35 3.34 3.35 3.34 3.34 3.35 3.35 3.34 3.35 3.34 3.34 3.35 3.35 3.34 3.35 3.34 3.34 3.35 3.35 3.34 3.34 3.35 3.34 3.35 3.35 3.34" /><path
         id="path110"
         style="fill:none;stroke:#ff0000;stroke-width:9.99750042;stroke-linecap:butt;stroke-linejoin:round;stroke-miterlimit:10;stroke-dasharray:none;stroke-opacity:1"
         d="m 392.5,320 h 117.074 l 3.348,0.008 h 73.59 l 3.343,0.008 h 3.344 3.348 3.344 3.343 3.344 3.348 3.344 3.343 3.348 3.344 l 3.343,0.007 h 3.348 3.344 3.344 3.347 3.344 3.344 l 3.347,0.008 h 3.344 3.344 3.348 3.343 3.344 l 3.348,0.008 h 3.343 3.344 3.348 3.344 l 3.343,0.008 h 3.344 3.348 l 3.344,0.004 h 3.343 3.348 3.344 l 3.343,0.008 h 3.348 3.344 l 3.344,0.007 h 3.347 l 3.344,0.008 h 3.344 3.347 l 3.344,0.008 h 3.344 l 3.348,0.008 h 3.343 l 3.344,0.008 h 3.348 l 3.343,0.007 3.344,0.008 h 3.348 l 3.344,0.008 h 3.343 l 3.344,0.008 3.348,0.008 3.344,0.008 h 3.343 l 3.348,0.003 3.344,0.008 3.343,0.008 3.348,0.008 3.344,0.008 3.344,0.008 3.347,0.007 3.344,0.008 3.344,0.008 3.347,0.008 3.344,0.008 3.344,0.007 3.348,0.012 3.343,0.008 3.344,0.008 3.348,0.015 3.343,0.008 3.344,0.016 3.348,0.008 3.344,0.015 3.343,0.008 3.348,0.012 3.344,0.015 3.344,0.016 3.343,0.016 3.348,0.015 3.344,0.016 3.343,0.012 3.348,0.015 3.344,0.024 3.344,0.015 3.347,0.024 3.344,0.011 3.344,0.024 3.347,0.023 3.344,0.024 3.344,0.019 3.348,0.024 3.343,0.023 3.344,0.024 3.348,0.027 3.343,0.023 3.344,0.032 3.348,0.031 3.344,0.019 3.343,0.032 3.344,0.039 3.348,0.027 3.344,0.031 3.343,0.039 3.348,0.036 3.344,0.039 3.343,0.035 3.348,0.039 3.344,0.043 3.344,0.039 3.347,0.047 3.344,0.043 3.344,0.047 3.347,0.05 3.344,0.055 3.344,0.043 3.348,0.059 3.343,0.054 3.345,0.051 3.35,0.063 3.34,0.058 3.34,0.067 3.35,0.062 3.35,0.066 3.34,0.067 3.35,0.074 3.34,0.07 3.34,0.075 3.35,0.082 3.35,0.074 3.34,0.082 3.34,0.09 3.35,0.082 3.34,0.09 3.35,0.097 3.35,0.094 3.34,0.102 3.34,0.097 3.35,0.106 3.35,0.113 3.34,0.113 3.35,0.114 3.34,0.117 3.34,0.121 3.35,0.129 3.35,0.125 3.34,0.129 3.35,0.14 3.34,0.137 3.34,0.148 3.35,0.153 3.35,0.148 3.34,0.16 3.34,0.164 3.35,0.165 3.34,0.171 3.35,0.18 3.35,0.18 3.34,0.187 3.34,0.188 3.35,0.203 3.35,0.203 3.34,0.211 3.35,0.211 3.34,0.223 3.34,0.226 3.35,0.231 3.35,0.242 3.34,0.246 3.35,0.246 3.34,0.266 3.34,0.261 3.35,0.278 3.35,0.277 3.34,0.293 3.34,0.293 3.35,0.305 3.34,0.308 3.35,0.324 3.35,0.329 3.34,0.339 3.34,0.344 3.35,0.352 3.34,0.359 3.35,0.375 3.35,0.383 3.34,0.391 3.34,0.406 3.35,0.41 3.35,0.422 3.34,0.433 3.35,0.442 3.34,0.461 3.34,0.465 3.35,0.48 3.35,0.484 3.34,0.504 3.35,0.512 3.34,0.523 3.34,0.54 3.35,0.554 3.35,0.563 3.34,0.578 3.34,0.594 3.35,0.597 3.34,0.625 3.35,0.637 3.35,0.645 3.34,0.667 3.34,0.676 3.35,0.696 3.35,0.714 3.34,0.727 3.35,0.742 3.34,0.758 3.34,0.781 3.35,0.793 3.35,0.809 3.34,0.836 3.35,0.847 3.34,0.868 3.34,0.886 3.35,0.907 3.35,0.921 3.34,0.946 3.34,0.968 3.35,0.981 3.34,1.008 3.35,1.027 3.35,1.051 3.34,1.07 3.34,1.094 3.35,1.117 3.34,1.141 3.35,1.164 3.35,1.183 3.34,1.215 3.34,1.231 3.35,1.261 3.35,1.29 3.34,1.304 3.35,1.344 3.34,1.355 3.34,1.395 3.35,1.418 3.35,1.441 3.34,1.469 3.35,1.5 3.34,1.531 3.34,1.559 3.35,1.59 3.35,1.613 3.34,1.652 3.34,1.68 3.35,1.707 3.34,1.742 3.35,1.77 3.35,1.808 3.34,1.829 3.34,1.875 3.35,1.906 3.35,1.933 3.34,1.973 3.35,2.004 3.34,2.039 3.34,2.078 3.35,2.113 3.35,2.145 3.34,2.191 3.35,2.219 3.34,2.258 3.34,2.297 3.35,2.34 3.35,2.371 3.34,2.414 3.34,2.453 3.35,2.488 3.34,2.535 3.35,2.575 3.35,2.617 3.34,2.652 3.34,2.695 3.35,2.743 3.34,2.785 3.35,2.82 3.35,2.871 3.34,2.91 3.34,2.953 3.35,3 3.35,3.047 3.34,3.09 3.35,3.137 3.34,3.18 3.34,3.222 3.35,3.278 3.35,3.316 3.34,3.375 3.35,3.414 3.34,3.465 3.34,3.508 3.35,3.554 3.35,3.61 3.34,3.66 3.34,3.703 3.35,3.758 3.34,3.808 3.35,3.856 3.35,3.91 3.34,3.949 3.34,4.016 3.35,4.055 3.35,4.113 3.34,4.16 3.35,4.215 3.34,4.269 3.34,4.321 3.35,4.371 3.35,4.426 3.34,4.476 3.35,4.531 3.34,4.582 3.34,4.641 3.35,4.688 3.35,4.75 3.34,4.796 3.35,4.856 3.34,4.902 3.34,4.965 3.35,5.012 3.35,5.078 3.34,5.121 3.34,5.176 3.35,5.234 3.34,5.297 3.35,5.34 3.35,5.398 3.34,5.453 3.34,5.504 3.35,5.567 3.35,5.617 3.34,5.668 3.35,5.73 3.34,5.786 3.34,5.832 3.35,5.89 3.35,5.946 3.34,6 3.35,6.054 3.34,6.11 3.34,6.16 3.35,6.215 3.35,6.269 3.34,6.324 3.34,6.375 3.35,6.434 3.34,6.48 3.35,6.536 3.35,6.589 3.34,6.637 3.34,6.692 3.35,6.742 3.35,6.797 3.34,6.847 3.35,6.899 3.34,6.945 3.34,6.996 3.35,7.051 3.35,7.094 3.34,7.148 3.35,7.199 3.34,7.239 3.34,7.296 3.35,7.336 3.35,7.387 3.34,7.434 3.35,7.476 3.34,7.524 3.34,7.574 3.35,7.613 3.35,7.656 3.34,7.704 3.34,7.75 3.35,7.789 3.34,7.832 3.35,7.872 3.35,7.92 3.34,7.95 3.34,7.99 3.35,8.03 3.35,8.08 3.34,8.11 3.35,8.14 3.34,8.19 3.34,8.22 3.35,8.25 3.35,8.3 3.34,8.32 3.35,8.36 3.34,8.39 3.34,8.42 3.35,8.45 3.35,8.49 3.34,8.51 3.34,8.54 3.35,8.57 3.34,8.61 3.35,8.62 3.35,8.65 3.34,8.68 3.34,8.7 3.35,8.72 3.35,8.75 3.34,8.77 3.35,8.79 3.34,8.81 3.34,8.83 3.35,8.85 3.35,8.86 3.34,8.89 3.35,8.9 3.34,8.91 3.34,8.92 3.35,8.95 3.35,8.95 3.34,8.97 3.35,8.97 3.34,8.99 3.34,8.99 3.35,9.01 3.35,9.01 3.34,9.01 3.34,9.03 3.35,9.02 3.34,9.03 3.35,9.04 3.35,9.03 3.34,9.04 3.34,9.04 3.35,9.03 3.35,9.04 3.34,9.03 3.35,9.02 3.34,9.03 3.34,9.01 3.35,9.01 3.35,9.01 3.34,8.99 3.35,8.99 3.34,8.97 3.34,8.97 3.35,8.95 3.35,8.95 3.34,8.92 3.34,8.91 3.35,8.9 3.34,8.89 3.35,8.86 3.35,8.85 3.34,8.83 3.34,8.81 3.35,8.79 3.35,8.77 3.34,8.75 3.35,8.72 3.34,8.7 3.34,8.68 3.35,8.65 3.35,8.62 3.34,8.61 3.35,8.57 3.34,8.54 3.34,8.51 3.35,8.49 3.35,8.45 3.34,8.42 3.35,8.39 3.34,8.36 3.34,8.32 3.35,8.3 3.35,8.25 3.34,8.22 3.34,8.19 3.35,8.14 3.34,8.11 3.35,8.08 3.35,8.03 3.34,7.99 3.34,7.95 3.35,7.92 3.35,7.87 3.34,7.83 3.35,7.79 3.34,7.75 3.34,7.71 3.35,7.65 3.35,7.62 3.34,7.57 3.35,7.52 3.34,7.48 3.34,7.43 3.35,7.39 3.35,7.34 3.34,7.29 3.34,7.24 3.35,7.2 3.34,7.15 3.35,7.09 3.35,7.05 3.34,7 3.34,6.95 3.35,6.89 3.35,6.85 3.34,6.8 3.35,6.74 3.34,6.69 3.34,6.64 3.35,6.59 3.35,6.53 3.34,6.48 3.35,6.44 3.34,6.37 3.34,6.33 3.35,6.27 3.35,6.21 3.34,6.16 3.35,6.11 3.34,6.06 3.34,6 3.35,5.94 3.35,5.89 3.34,5.83 3.34,5.79 3.35,5.73 3.34,5.67 3.35,5.61 3.35,5.57 3.34,5.5 3.34,5.46 3.35,5.4 3.35,5.34 3.34,5.29 3.35,5.24 3.34,5.17 3.34,5.12 3.35,5.08 3.35,5.01 3.34,4.97 3.35,4.9 3.34,4.86 3.34,4.79 3.35,4.75 3.35,4.69 3.34,4.64 3.34,4.58 3.35,4.53 3.34,4.48 3.35,4.43 3.35,4.37 3.34,4.32 3.34,4.27 3.35,4.21 3.35,4.17 3.34,4.11 3.35,4.05 3.34,4.02 3.34,3.95 3.35,3.91 3.35,3.85 3.34,3.81 3.35,3.76 3.34,3.7 3.34,3.66 3.35,3.61 3.35,3.56 3.34,3.51 3.34,3.46 3.35,3.41 3.34,3.38 3.35,3.31 3.35,3.28 3.34,3.22 3.34,3.19 3.35,3.13 3.34,3.09 3.35,3.05 3.35,3 3.34,2.95 3.34,2.91 3.35,2.87 3.35,2.82 3.34,2.79 3.35,2.74 3.34,2.69 3.34,2.66 3.35,2.61 3.35,2.58 3.34,2.53 3.35,2.49 3.34,2.45 3.34,2.42 3.35,2.37 3.35,2.34 3.34,2.3 3.34,2.25 3.35,2.22 3.34,2.19 3.35,2.15 3.35,2.11 3.34,2.08 3.34,2.04 3.35,2 3.35,1.98 3.34,1.93 3.35,1.91 3.34,1.87 3.34,1.83 3.35,1.81 3.35,1.77 3.34,1.74 3.35,1.71 3.34,1.68 3.34,1.65 3.35,1.61 3.35,1.59 3.34,1.56 3.35,1.53 3.34,1.5 3.34,1.47 3.35,1.44 3.35,1.42 3.34,1.39 3.34,1.36 3.35,1.34 3.34,1.31 3.35,1.29 3.35,1.26 3.34,1.23 3.34,1.21 3.35,1.19 3.35,1.16 3.34,1.14 3.35,1.12 3.34,1.09 3.34,1.08 3.35,1.04 3.35,1.03 3.34,1.01 3.35,0.98 3.34,0.97 3.34,0.94 3.35,0.93 3.35,0.9 3.34,0.89 3.34,0.87 3.35,0.84 3.34,0.84 3.35,0.81 3.35,0.79 3.34,0.78 3.34,0.76 3.35,0.74 3.35,0.73 3.34,0.71 3.35,0.7 3.34,0.67 3.34,0.67 3.35,0.65 3.35,0.63 3.34,0.63 3.35,0.6 3.34,0.59 3.34,0.58 3.35,0.56 3.35,0.56 3.34,0.53 3.35,0.53 3.34,0.51 3.34,0.5 3.35,0.49 3.35,0.48 3.34,0.46 3.34,0.46 3.35,0.45 3.34,0.43 3.35,0.42 3.35,0.41 3.34,0.41 3.34,0.39 3.35,0.38 3.35,0.38 3.34,0.36 3.35,0.35 3.34,0.34 3.34,0.34 3.35,0.33 3.35,0.32 3.34,0.31 3.35,0.31 3.34,0.29 3.34,0.29 3.35,0.28 3.35,0.28 3.34,0.26 3.34,0.26 3.35,0.25 3.34,0.25 3.35,0.24 3.35,0.23 3.34,0.23 3.34,0.22 3.35,0.21 3.35,0.21 3.34,0.2 3.35,0.21 3.34,0.18 3.34,0.19 3.35,0.18 3.35,0.18 3.34,0.17 3.35,0.17 3.34,0.16 3.34,0.16 3.35,0.15 3.35,0.15 3.34,0.15 3.35,0.14 3.34,0.14 3.34,0.13 3.35,0.12 3.35,0.13 3.34,0.12 3.34,0.12 3.35,0.11 3.34,0.12 3.35,0.11 3.35,0.1 3.34,0.1 3.34,0.11 3.35,0.09 3.35,0.09 3.34,0.09 3.35,0.09 3.34,0.09 3.34,0.08 3.35,0.07 3.35,0.08 3.34,0.08 3.35,0.07 3.34,0.07 3.34,0.07 3.35,0.07 3.35,0.06 3.34,0.06 3.34,0.06 3.35,0.07 3.34,0.05 3.35,0.05 3.35,0.06 3.34,0.05 3.34,0.05 3.35,0.05 3.35,0.05 3.34,0.04 3.35,0.05 3.34,0.03 3.34,0.05 3.35,0.04 3.35,0.03 3.34,0.04 3.35,0.04 3.34,0.03 3.34,0.04 3.35,0.02 3.35,0.03 3.34,0.04 3.35,0.03 3.34,0.02 3.34,0.04 3.35,0.02 3.35,0.03 3.34,0.02 3.34,0.02 3.35,0.03 3.34,0.02 3.35,0.02 3.35,0.02 3.34,0.03 3.34,0.01 3.35,0.02 3.35,0.02 3.34,0.02 3.35,0.02 3.34,0.01 3.34,0.01 3.35,0.02 3.35,0.02 3.34,0.01 3.35,0.02 3.34,0.01 3.34,0.01 3.35,0.01 3.35,0.01 3.34,0.01 3.34,0.01 3.35,0.02 3.34,0.01 h 3.35 l 3.35,0.02 h 3.34 l 3.34,0.01 3.35,0.01 3.35,0.01 h 3.34 l 3.35,0.01 3.34,0.01 3.34,0.01 3.35,0.01 h 3.35 l 3.34,0.01 3.35,0.01 h 3.34 3.34 l 3.35,0.01 3.35,0.01 h 3.34 l 3.34,0.01 h 3.35 3.34 l 3.35,0.01 h 3.35 l 3.34,0.01 h 3.34 l 3.35,0.01 h 3.34 l 3.35,0.01 h 3.35 3.34 3.34 3.35 l 3.35,0.01 h 3.34 3.35 l 3.34,0.01 h 3.34 3.35 3.35 l 3.34,0.01 h 3.35 3.34 3.34 3.35 3.35 3.34 3.34 l 3.35,0.01 h 3.34 3.35 3.35 3.34 3.34 l 3.35,0.01 h 3.35 3.34 3.35 3.34 3.34 3.35 3.35 3.34 3.35 3.34 3.34 3.35 3.35 3.34 3.35 3.34 3.34 l 3.35,0.01 h 3.35 3.34 3.34 3.35 3.34 3.35 3.35 3.34 3.34 3.35 3.35 3.34 3.35 3.34 3.34 3.35 3.35 3.34 3.35 3.34 3.34 3.35 3.35 l 3.34,0.01 h 3.34 3.35 3.34 3.35 3.35 3.34 3.34 3.35 3.35 3.34 3.35 3.34 3.34 3.35 3.35 3.34 3.35 3.34 3.34 3.35 3.35 3.34 3.35 3.34 3.34 3.35 3.35 3.34 3.34 3.35 3.34 3.35 3.35 3.34" /><path
         id="path112"
         style="fill:none;stroke:#000000;stroke-width:9.99750042;stroke-linecap:butt;stroke-linejoin:round;stroke-miterlimit:10;stroke-dasharray:none;stroke-opacity:1"
         d="m 392.5,320.023 3.344,0.008 h 10.035 l 3.348,0.008 h 3.343 3.344 3.348 l 3.343,0.008 h 3.344 l 3.348,0.004 h 3.344 3.343 l 3.344,0.008 h 3.348 l 3.344,0.007 h 3.343 l 3.348,0.008 3.344,0.008 h 3.343 l 3.348,0.008 3.344,0.008 3.344,0.007 h 3.347 l 3.344,0.008 3.344,0.008 3.347,0.008 3.344,0.008 3.344,0.008 3.348,0.003 3.343,0.008 3.344,0.016 3.348,0.008 3.343,0.008 3.344,0.015 3.348,0.016 3.344,0.008 3.343,0.011 3.344,0.016 3.348,0.016 3.344,0.015 3.343,0.016 3.348,0.015 3.344,0.016 3.343,0.02 3.348,0.023 3.344,0.016 3.344,0.023 3.347,0.02 3.344,0.023 3.344,0.031 3.347,0.024 3.344,0.027 3.344,0.031 3.348,0.032 3.343,0.027 3.344,0.039 3.348,0.039 3.343,0.035 3.344,0.039 3.348,0.035 3.344,0.047 3.343,0.043 3.344,0.055 3.348,0.043 3.344,0.055 3.343,0.058 3.348,0.055 3.344,0.058 3.343,0.067 3.348,0.062 3.344,0.075 3.344,0.066 3.347,0.074 3.344,0.082 3.344,0.082 3.347,0.086 3.344,0.09 3.344,0.098 3.348,0.097 3.343,0.102 3.344,0.105 3.348,0.114 3.343,0.121 3.344,0.125 3.348,0.129 3.344,0.136 3.343,0.133 3.344,0.153 3.348,0.148 3.344,0.156 3.343,0.168 3.348,0.172 3.344,0.18 3.343,0.187 3.348,0.196 3.344,0.203 3.344,0.207 3.347,0.226 3.344,0.227 3.344,0.238 3.347,0.246 3.344,0.266 3.344,0.269 3.348,0.278 3.343,0.293 3.344,0.297 3.348,0.316 3.343,0.324 3.344,0.344 3.348,0.352 3.344,0.359 3.343,0.383 3.344,0.398 3.348,0.406 3.344,0.426 3.343,0.442 3.348,0.461 3.344,0.468 3.343,0.489 3.348,0.511 3.344,0.532 3.344,0.546 3.347,0.563 3.344,0.594 3.344,0.609 3.347,0.629 3.344,0.652 3.344,0.676 3.348,0.695 3.343,0.723 3.344,0.75 3.348,0.77 3.343,0.796 3.344,0.825 3.348,0.855 3.344,0.883 3.343,0.91 3.348,0.945 3.344,0.965 3.344,1.008 3.343,1.035 3.348,1.071 3.344,1.101 3.343,1.141 3.348,1.179 3.344,1.207 3.344,1.25 3.347,1.286 3.344,1.328 3.344,1.363 3.347,1.41 3.344,1.453 3.344,1.496 3.348,1.536 3.343,1.582 3.344,1.636 3.348,1.672 3.343,1.727 3.344,1.777 3.348,1.82 3.344,1.883 3.343,1.93 3.344,1.976 3.348,2.043 3.344,2.09 3.343,2.153 3.348,2.207 3.344,2.265 3.343,2.332 3.348,2.383 3.344,2.453 3.344,2.512 3.347,2.582 3.344,2.648 3.344,2.715 3.347,2.774 3.344,2.851 3.344,2.926 3.348,2.992 3.343,3.059 3.345,3.14 3.35,3.211 3.34,3.286 3.34,3.367 3.35,3.449 3.35,3.519 3.34,3.606 3.35,3.691 3.34,3.766 3.34,3.855 3.35,3.938 3.35,4.019 3.34,4.11 3.34,4.199 3.35,4.293 3.34,4.379 3.35,4.461 3.35,4.566 3.34,4.653 3.34,4.746 3.35,4.847 3.35,4.942 3.34,5.031 3.35,5.137 3.34,5.23 3.34,5.332 3.35,5.43 3.35,5.535 3.34,5.633 3.35,5.734 3.34,5.836 3.34,5.949 3.35,6.043 3.35,6.153 3.34,6.254 3.34,6.367 3.35,6.473 3.34,6.578 3.35,6.683 3.35,6.785 3.34,6.903 3.34,7.011 3.35,7.118 3.35,7.23 3.34,7.336 3.35,7.438 3.34,7.562 3.34,7.664 3.35,7.77 3.35,7.882 3.34,7.997 3.35,8.097 3.34,8.215 3.34,8.324 3.35,8.43 3.35,8.535 3.34,8.645 3.34,8.754 3.35,8.867 3.34,8.968 3.35,9.075 3.35,9.179 3.34,9.286 3.34,9.39 3.35,9.496 3.34,9.598 3.35,9.699 3.35,9.801 3.34,9.91 3.34,9.996 3.35,10.102 3.35,10.199 3.34,10.293 3.35,10.387 3.34,10.484 3.34,10.574 3.35,10.664 3.35,10.766 3.34,10.844 3.35,10.925 3.34,11.028 3.34,11.099 3.35,11.18 3.35,11.27 3.34,11.35 3.34,11.42 3.35,11.49 3.34,11.58 3.35,11.64 3.35,11.71 3.34,11.78 3.34,11.86 3.35,11.91 3.35,11.97 3.34,12.03 3.35,12.1 3.34,12.14 3.34,12.21 3.35,12.25 3.35,12.3 3.34,12.35 3.35,12.39 3.34,12.44 3.34,12.48 3.35,12.51 3.35,12.54 3.34,12.58 3.34,12.62 3.35,12.64 3.34,12.66 3.35,12.68 3.35,12.71 3.34,12.73 3.34,12.74 3.35,12.75 3.34,12.77 3.35,12.77 3.35,12.77 3.34,12.78 3.34,12.78 3.35,12.77 3.35,12.77 3.34,12.77 3.35,12.75 3.34,12.74 3.34,12.73 3.35,12.71 3.35,12.68 3.34,12.66 3.35,12.64 3.34,12.62 3.34,12.58 3.35,12.54 3.35,12.51 3.34,12.48 3.34,12.44 3.35,12.39 3.34,12.35 3.35,12.3 3.35,12.25 3.34,12.21 3.34,12.14 3.35,12.1 3.35,12.03 3.34,11.97 3.35,11.91 3.34,11.86 3.34,11.78 3.35,11.71 3.35,11.64 3.34,11.58 3.35,11.49 3.34,11.42 3.34,11.35 3.35,11.27 3.35,11.18 3.34,11.1 3.34,11.03 3.35,10.92 3.34,10.85 3.35,10.76 3.35,10.67 3.34,10.57 3.34,10.48 3.35,10.39 3.34,10.3 3.35,10.19 3.35,10.1 3.34,10 3.34,9.91 3.35,9.8 3.35,9.7 3.34,9.6 3.35,9.49 3.34,9.4 3.34,9.28 3.35,9.18 3.35,9.07 3.34,8.97 3.35,8.87 3.34,8.75 3.34,8.65 3.35,8.53 3.35,8.43 3.34,8.33 3.34,8.21 3.35,8.1 3.34,8 3.35,7.88 3.35,7.77 3.34,7.67 3.34,7.56 3.35,7.44 3.35,7.34 3.34,7.22 3.35,7.12 3.34,7.01 3.34,6.9 3.35,6.79 3.35,6.68 3.34,6.58 3.35,6.47 3.34,6.37 3.34,6.25 3.35,6.15 3.35,6.05 3.34,5.95 3.35,5.83 3.34,5.74 3.34,5.63 3.35,5.53 3.35,5.43 3.34,5.34 3.34,5.23 3.35,5.13 3.34,5.03 3.35,4.95 3.35,4.84 3.34,4.75 3.34,4.65 3.35,4.57 3.35,4.46 3.34,4.38 3.35,4.29 3.34,4.2 3.34,4.11 3.35,4.02 3.35,3.94 3.34,3.85 3.35,3.77 3.34,3.69 3.34,3.6 3.35,3.52 3.35,3.45 3.34,3.37 3.34,3.29 3.35,3.21 3.34,3.14 3.35,3.06 3.35,2.99 3.34,2.92 3.34,2.86 3.35,2.77 3.35,2.71 3.34,2.65 3.35,2.58 3.34,2.52 3.34,2.45 3.35,2.38 3.35,2.33 3.34,2.27 3.35,2.21 3.34,2.15 3.34,2.09 3.35,2.04 3.35,1.98 3.34,1.93 3.35,1.88 3.34,1.82 3.34,1.78 3.35,1.72 3.35,1.68 3.34,1.63 3.34,1.59 3.35,1.53 3.34,1.5 3.35,1.45 3.35,1.41 3.34,1.36 3.34,1.33 3.35,1.29 3.35,1.25 3.34,1.2 3.35,1.18 3.34,1.14 3.34,1.11 3.35,1.07 3.35,1.03 3.34,1.01 3.35,0.96 3.34,0.95 3.34,0.91 3.35,0.88 3.35,0.86 3.34,0.82 3.34,0.8 3.35,0.77 3.34,0.75 3.35,0.72 3.35,0.7 3.34,0.67 3.34,0.65 3.35,0.64 3.35,0.6 3.34,0.6 3.35,0.56 3.34,0.55 3.34,0.53 3.35,0.51 3.35,0.49 3.34,0.47 3.35,0.46 3.34,0.44 3.34,0.42 3.35,0.41 3.35,0.4 3.34,0.38 3.35,0.36 3.34,0.35 3.34,0.35 3.35,0.32 3.35,0.32 3.34,0.29 3.34,0.3 3.35,0.27 3.34,0.28 3.35,0.26 3.35,0.24 3.34,0.25 3.34,0.22 3.35,0.23 3.35,0.2 3.34,0.21 3.35,0.19 3.34,0.19 3.34,0.18 3.35,0.17 3.35,0.17 3.34,0.16 3.35,0.14 3.34,0.16 3.34,0.13 3.35,0.14 3.35,0.12 3.34,0.13 3.34,0.12 3.35,0.11 3.34,0.11 3.35,0.1 3.35,0.1 3.34,0.09 3.34,0.1 3.35,0.08 3.35,0.08 3.34,0.09 3.35,0.07 3.34,0.07 3.34,0.07 3.35,0.06 3.35,0.07 3.34,0.06 3.35,0.05 3.34,0.06 3.34,0.06 3.35,0.04 3.35,0.05 3.34,0.05 3.35,0.04 3.34,0.04 3.34,0.04 3.35,0.04 3.35,0.03 3.34,0.04 3.34,0.03 3.35,0.03 3.34,0.03 3.35,0.03 3.35,0.02 3.34,0.03 3.34,0.03 3.35,0.02 3.35,0.02 3.34,0.02 3.35,0.02 3.34,0.02 3.34,0.01 3.35,0.02 3.35,0.01 3.34,0.02 3.35,0.02 3.34,0.01 3.34,0.01 3.35,0.01 3.35,0.02 3.34,0.01 3.34,0.01 3.35,0.01 3.34,0.01 3.35,0.01 3.35,0.01 h 3.34 l 3.34,0.01 3.35,0.01 3.35,0.01 h 3.34 3.35 l 3.34,0.01 3.34,0.01 3.35,0.01 h 3.35 l 3.34,0.01 h 3.35 3.34 l 3.34,0.01 h 3.35 l 3.35,0.01 h 3.34 3.35 l 3.34,0.01 h 3.34 3.35 3.35 3.34 3.34 l 3.35,0.01 h 3.34 3.35 3.35 l 3.34,0.01 h 3.34 3.35 3.35 3.34 3.35 3.34 3.34 3.35 3.35 3.34 3.35 3.34 l 3.34,0.01 h 3.35 3.35 3.34 3.34 3.35 3.34 3.35 3.35 3.34 3.34 3.35 3.35 3.34 3.35 3.34 l 3.34,0.01 h 3.35 3.35 3.34 3.35 3.34 3.34 3.35 3.35 3.34 3.34 3.35 3.34 3.35 3.35 3.34 3.34 3.35 3.34 3.35 3.35 3.34 3.34 3.35 3.35 3.34 3.35 3.34 3.34 3.35 3.35 3.34 3.35 3.34 3.34 3.35 3.35 3.34 3.34 3.35 3.34 3.35 3.35 3.34 3.34 3.35 3.35 3.34 3.35 3.34 3.34 3.35 3.35 3.34 3.35 3.34 3.34 3.35 3.35 3.34 3.35 3.34 3.34 3.35 3.35 3.34 3.34 3.35 3.34 3.35 3.35 3.34 3.34 3.35 3.35 3.34 3.35 3.34 3.34 3.35 3.35 3.34 3.35 3.34 3.34 3.35 3.35 3.34 3.34 3.35 3.34 3.35 3.35 3.34 3.34 3.35 3.35 3.34 3.35 3.34 3.34 3.35 3.35 3.34 3.35 3.34 3.34 3.35 3.35 3.34 3.35 3.34 3.34 3.35 3.35 3.34 3.34 3.35 3.34 3.35 3.35 3.34 3.34 3.35 3.35 3.34 3.35 3.34 3.34 3.35 3.35 3.34 3.35 3.34 3.34 3.35 3.35 3.34 3.34 3.35 3.34 3.35 3.35 3.34 3.34 3.35 3.35 3.34 3.35 3.34 3.34 3.35 3.35 3.34 3.35 3.34 3.34 3.35 3.35 3.34 3.35 3.34 3.34 3.35 3.35 3.34 3.34 3.35 3.34 3.35 3.35 3.34 3.34 3.35 3.35 3.34 3.35 3.34 3.34 3.35 3.35 3.34 3.35 3.34 3.34 3.35 3.35 3.34 3.34 3.35 3.34 3.35 3.35 3.34 3.34 3.35 3.35 3.34 3.35 3.34 3.34 3.35 3.35 3.34 3.35 3.34 3.34 3.35 3.35 3.34 3.35 3.34 3.34 3.35 3.35 3.34 3.34 3.35 3.34 3.35 3.35 3.34 3.34 3.35 3.35 3.34 3.35 3.34 3.34 3.35 3.35 3.34 3.35 3.34 3.34 3.35 3.35 3.34 3.34 3.35 3.34 3.35 3.35 3.34 3.34 3.35 3.35 3.34 3.35 3.34 3.34 3.35 3.35 3.34 3.35 3.34 3.34 3.35 3.35 3.34 3.34 3.35 3.34 3.35 3.35 3.34 3.34 3.35 3.34 3.35 3.35 3.34 3.34 3.35 3.35 3.34 3.35 3.34 3.34 3.35 3.35 3.34 3.35 3.34 3.34 3.35 3.35 3.34 3.34 3.35 3.34 3.35 3.35 3.34 3.34 3.35 3.35 3.34 3.35 3.34 3.34 3.35 3.35 3.34 3.35 3.34 3.34 3.35 3.35 3.34 3.35 3.34 3.34 3.35 3.35 3.34 3.34 3.35 3.34 3.35 3.35 3.34 3.34 3.35 3.35 3.34 3.35 3.34 3.34 3.35 3.35 3.34 3.35 3.34 3.34 3.35 3.35 3.34 3.34 3.35 3.34 3.35 3.35 3.34 3.34 3.35 3.35 3.34 3.35 3.34 3.34 3.35 3.35 3.34 3.35 3.34 3.34 3.35 3.35 3.34 3.35 3.34 3.34 3.35 3.35 3.34 3.34 3.35 3.34 3.35 3.35 3.34" /><path
         id="path114"
         style="fill:#ffffff;fill-opacity:1;fill-rule:nonzero;stroke:none"
         d="m 2380,2037.5 h 1275 v 465 H 2380 Z" /><path
         id="path116"
         style="fill:#000000;fill-opacity:1;fill-rule:nonzero;stroke:none"
         d="m 2735.71,2364.91 c 0,0.47 0.04,0.79 0.12,0.94 l 17.58,70.91 c 0.39,1.17 1.03,2.1 1.93,2.81 0.9,0.7 1.93,1.05 3.1,1.05 1.02,0 1.88,-0.32 2.58,-0.94 0.71,-0.63 1.06,-1.44 1.06,-2.46 0,-0.23 0,-0.41 0,-0.52 0,-0.12 -0.04,-0.26 -0.12,-0.41 l -7.03,-28.13 c -0.78,-3.28 -1.18,-6.13 -1.18,-8.56 0,-2.96 0.71,-5.4 2.12,-7.32 1.4,-1.91 3.51,-2.87 6.32,-2.87 5.86,0 10.98,3.63 15.35,10.89 0.09,0.09 0.12,0.15 0.12,0.19 0,0.03 0,0.09 0,0.17 l 8.68,34.8 c 0.31,1.02 0.95,1.92 1.93,2.7 0.98,0.78 2.01,1.17 3.11,1.17 0.94,0 1.78,-0.31 2.51,-0.94 0.75,-0.62 1.11,-1.44 1.11,-2.46 0,-0.47 -0.03,-0.78 -0.11,-0.94 l -8.67,-34.56 c -0.55,-2.27 -0.82,-4.22 -0.82,-5.86 0,-3.44 1.17,-5.16 3.51,-5.16 2.5,0 4.38,1.54 5.63,4.63 1.25,3.08 2.34,6.81 3.28,11.19 0.16,0.47 0.51,0.7 1.06,0.7 h 1.41 c 0.3,0 0.56,-0.14 0.75,-0.41 0.2,-0.27 0.3,-0.52 0.3,-0.76 -1.41,-5.62 -2.93,-10.13 -4.57,-13.54 -1.64,-3.39 -4.34,-5.09 -8.09,-5.09 -2.66,0 -5.02,0.78 -7.09,2.34 -2.07,1.57 -3.42,3.64 -4.05,6.21 -1.95,-2.5 -4.27,-4.55 -6.96,-6.15 -2.7,-1.6 -5.53,-2.4 -8.5,-2.4 -5,0 -8.91,1.21 -11.72,3.63 l -6.09,-24.37 c -0.24,-1.1 -0.82,-2 -1.77,-2.69 -0.93,-0.71 -1.98,-1.06 -3.15,-1.06 -1.02,0 -1.88,0.29 -2.58,0.88 -0.71,0.58 -1.06,1.38 -1.06,2.39" /><path
         id="path118"
         style="fill:#000000;fill-opacity:1;fill-rule:nonzero;stroke:none"
         d="m 2846.97,2403.47 c -0.62,0 -1.15,0.26 -1.58,0.77 -0.43,0.5 -0.64,1.06 -0.64,1.69 0,0.62 0.21,1.18 0.64,1.64 0.43,0.47 0.96,0.71 1.58,0.71 h 75.35 c 0.63,0 1.16,-0.24 1.59,-0.71 0.43,-0.46 0.64,-1.02 0.64,-1.64 0,-0.63 -0.21,-1.19 -0.64,-1.69 -0.43,-0.51 -0.96,-0.77 -1.59,-0.77 z m 0,23.32 c -0.62,0 -1.15,0.23 -1.58,0.7 -0.43,0.47 -0.64,1.06 -0.64,1.77 0,0.54 0.21,1.07 0.64,1.57 0.43,0.51 0.96,0.77 1.58,0.77 h 75.35 c 0.63,0 1.16,-0.26 1.59,-0.77 0.43,-0.5 0.64,-1.03 0.64,-1.57 0,-0.71 -0.21,-1.3 -0.64,-1.77 -0.43,-0.47 -0.96,-0.7 -1.59,-0.7 h -75.35" /><path
         id="path120"
         style="fill:#000000;fill-opacity:1;fill-rule:nonzero;stroke:none"
         d="m 2994.62,2384.84 c -9.77,0 -16.43,4.04 -19.98,12.13 -3.56,8.08 -5.34,17.71 -5.34,28.88 0,6.95 0.65,13.5 1.94,19.64 1.29,6.13 3.81,11.32 7.56,15.58 3.75,4.26 9.02,6.38 15.82,6.38 5.31,0 9.64,-1.28 13,-3.86 3.36,-2.58 5.92,-5.9 7.68,-9.96 1.76,-4.06 2.95,-8.44 3.57,-13.12 0.63,-4.69 0.94,-9.58 0.94,-14.66 0,-6.87 -0.63,-13.32 -1.88,-19.33 -1.25,-6.02 -3.73,-11.14 -7.43,-15.36 -3.71,-4.21 -9.01,-6.32 -15.88,-6.32 z m 0,3.17 c 4.45,0 7.77,2.28 9.96,6.85 2.19,4.57 3.53,9.63 4.04,15.18 0.51,5.54 0.77,11.44 0.77,17.69 0,6.02 -0.26,11.56 -0.77,16.64 -0.51,5.08 -1.83,9.69 -3.98,13.83 -2.15,4.14 -5.49,6.21 -10.02,6.21 -4.53,0 -7.89,-2.07 -10.08,-6.21 -2.19,-4.14 -3.54,-8.75 -4.04,-13.83 -0.51,-5.08 -0.76,-10.62 -0.76,-16.64 0,-4.45 0.11,-8.65 0.34,-12.6 0.24,-3.94 0.83,-8 1.76,-12.18 0.94,-4.18 2.44,-7.72 4.51,-10.61 2.07,-2.89 4.83,-4.33 8.27,-4.33" /><path
         id="path122"
         style="fill:#000000;fill-opacity:1;fill-rule:nonzero;stroke:none"
         d="m 3036.57,2365.85 c 0,0.4 0.16,0.75 0.47,1.06 2.89,2.73 5.14,5.92 6.74,9.55 1.6,3.63 2.4,7.48 2.4,11.55 v 1.52 c -1.33,-1.33 -2.93,-1.99 -4.81,-1.99 -1.87,0 -3.45,0.64 -4.74,1.93 -1.29,1.29 -1.93,2.87 -1.93,4.74 0,1.88 0.64,3.44 1.93,4.69 1.29,1.25 2.87,1.88 4.74,1.88 2.82,0 4.83,-1.33 6.04,-3.99 1.21,-2.66 1.82,-5.58 1.82,-8.78 0,-4.46 -0.88,-8.7 -2.64,-12.72 -1.76,-4.02 -4.28,-7.64 -7.56,-10.84 -0.31,-0.16 -0.55,-0.24 -0.7,-0.24 -0.39,0 -0.78,0.18 -1.17,0.53 -0.39,0.35 -0.59,0.72 -0.59,1.11" /><path
         id="path124"
         style="fill:#000000;fill-opacity:1;fill-rule:nonzero;stroke:none"
         d="m 3120.45,2386.13 c -3.59,0 -6.76,0.86 -9.49,2.57 -2.74,1.73 -4.87,4.03 -6.39,6.92 -1.52,2.89 -2.28,6.09 -2.28,9.61 0,3.67 0.84,7.56 2.52,11.66 1.68,4.1 3.98,7.85 6.91,11.25 2.93,3.4 6.23,6.11 9.9,8.15 3.67,2.02 7.42,3.04 11.25,3.04 h 30.24 c 0.85,0 1.58,-0.28 2.16,-0.82 0.59,-0.55 0.88,-1.29 0.88,-2.22 0,-1.18 -0.43,-2.21 -1.28,-3.11 -0.86,-0.9 -1.88,-1.35 -3.05,-1.35 h -14.65 c 2.34,-3.44 3.51,-7.58 3.51,-12.42 0,-4.06 -0.78,-8.05 -2.34,-11.96 -1.56,-3.9 -3.73,-7.46 -6.5,-10.66 -2.77,-3.2 -6.02,-5.78 -9.73,-7.74 -3.71,-1.94 -7.6,-2.92 -11.66,-2.92 z m 0.12,3.28 c 4.37,0 8.24,1.7 11.6,5.1 3.36,3.39 5.94,7.58 7.73,12.54 1.8,4.96 2.7,9.55 2.7,13.77 0,3.43 -0.94,6.13 -2.81,8.08 -1.88,1.96 -4.54,2.93 -7.97,2.93 -4.62,0 -8.56,-1.56 -11.84,-4.69 -3.28,-3.12 -5.72,-7.05 -7.32,-11.77 -1.61,-4.73 -2.41,-9.28 -2.41,-13.66 0,-3.43 0.9,-6.34 2.7,-8.72 1.8,-2.39 4.34,-3.58 7.62,-3.58" /><path
         id="path126"
         style="fill:#000000;fill-opacity:1;fill-rule:nonzero;stroke:none"
         d="m 3174.93,2431.08 v 2.22 c 0,0.16 0.03,0.32 0.11,0.48 l 12.9,14.17 c 1.95,2.11 3.51,3.87 4.69,5.28 1.16,1.41 2.35,3.03 3.57,4.86 1.21,1.84 2.14,3.73 2.81,5.69 0.66,1.95 0.99,3.98 0.99,6.09 0,2.26 -0.41,4.43 -1.23,6.5 -0.82,2.07 -2.04,3.72 -3.68,4.93 -1.64,1.21 -3.64,1.81 -5.98,1.81 -2.42,0 -4.59,-0.72 -6.5,-2.16 -1.92,-1.45 -3.27,-3.3 -4.05,-5.57 0.24,0.08 0.55,0.11 0.94,0.11 1.25,0 2.3,-0.4 3.16,-1.22 0.86,-0.82 1.29,-1.9 1.29,-3.23 0,-1.25 -0.43,-2.33 -1.29,-3.22 -0.86,-0.9 -1.91,-1.35 -3.16,-1.35 -1.33,0 -2.43,0.45 -3.29,1.35 -0.85,0.89 -1.28,1.97 -1.28,3.22 0,2.03 0.39,3.97 1.17,5.8 0.78,1.84 1.9,3.46 3.34,4.86 1.45,1.41 3.1,2.49 4.98,3.23 1.87,0.74 3.83,1.11 5.86,1.11 3.12,0 6.05,-0.66 8.79,-1.99 2.73,-1.33 4.88,-3.2 6.44,-5.62 1.56,-2.43 2.35,-5.28 2.35,-8.56 0,-2.42 -0.53,-4.71 -1.59,-6.85 -1.05,-2.16 -2.38,-4.11 -3.98,-5.86 -1.6,-1.76 -3.69,-3.76 -6.27,-5.98 -2.58,-2.23 -4.26,-3.69 -5.04,-4.39 l -9.37,-9.03 h 7.96 c 3.91,0 7.18,0.04 9.79,0.12 2.62,0.08 4.01,0.19 4.16,0.35 0.63,0.62 1.29,3.12 1.99,7.5 h 2.35 l -2.35,-14.65 h -30.58" /><path
         id="path128"
         style="fill:#000000;fill-opacity:1;fill-rule:nonzero;stroke:none"
         d="m 3261.18,2403.47 c -0.62,0 -1.15,0.26 -1.58,0.77 -0.43,0.5 -0.65,1.06 -0.65,1.69 0,0.62 0.22,1.18 0.65,1.64 0.43,0.47 0.96,0.71 1.58,0.71 h 75.36 c 0.62,0 1.15,-0.24 1.58,-0.71 0.43,-0.46 0.64,-1.02 0.64,-1.64 0,-0.63 -0.21,-1.19 -0.64,-1.69 -0.43,-0.51 -0.96,-0.77 -1.58,-0.77 z m 0,23.32 c -0.62,0 -1.15,0.23 -1.58,0.7 -0.43,0.47 -0.65,1.06 -0.65,1.77 0,0.54 0.22,1.07 0.65,1.57 0.43,0.51 0.96,0.77 1.58,0.77 h 75.36 c 0.62,0 1.15,-0.26 1.58,-0.77 0.43,-0.5 0.64,-1.03 0.64,-1.57 0,-0.71 -0.21,-1.3 -0.64,-1.77 -0.43,-0.47 -0.96,-0.7 -1.58,-0.7 h -75.36" /><path
         id="path130"
         style="fill:#000000;fill-opacity:1;fill-rule:nonzero;stroke:none"
         d="m 3408.83,2384.84 c -9.77,0 -16.44,4.04 -19.99,12.13 -3.55,8.08 -5.32,17.71 -5.32,28.88 0,6.95 0.64,13.5 1.92,19.64 1.29,6.13 3.81,11.32 7.56,15.58 3.75,4.26 9.03,6.38 15.83,6.38 5.31,0 9.64,-1.28 13,-3.86 3.36,-2.58 5.92,-5.9 7.67,-9.96 1.77,-4.06 2.96,-8.44 3.58,-13.12 0.63,-4.69 0.94,-9.58 0.94,-14.66 0,-6.87 -0.63,-13.32 -1.88,-19.33 -1.25,-6.02 -3.73,-11.14 -7.44,-15.36 -3.7,-4.21 -9,-6.32 -15.87,-6.32 z m 0,3.17 c 4.45,0 7.77,2.28 9.96,6.85 2.18,4.57 3.53,9.63 4.04,15.18 0.51,5.54 0.76,11.44 0.76,17.69 0,6.02 -0.25,11.56 -0.76,16.64 -0.51,5.08 -1.84,9.69 -3.99,13.83 -2.14,4.14 -5.48,6.21 -10.01,6.21 -4.54,0 -7.9,-2.07 -10.08,-6.21 -2.19,-4.14 -3.54,-8.75 -4.05,-13.83 -0.5,-5.08 -0.76,-10.62 -0.76,-16.64 0,-4.45 0.12,-8.65 0.35,-12.6 0.24,-3.94 0.82,-8 1.76,-12.18 0.94,-4.18 2.44,-7.72 4.51,-10.61 2.07,-2.89 4.83,-4.33 8.27,-4.33" /><path
         id="path132"
         style="fill:#000000;fill-opacity:1;fill-rule:nonzero;stroke:none"
         d="m 3448.9,2394.21 c 0,1.8 0.67,3.34 1.99,4.63 1.34,1.29 2.9,1.94 4.69,1.94 1.1,0 2.17,-0.3 3.23,-0.89 1.05,-0.58 1.87,-1.4 2.46,-2.46 0.58,-1.05 0.87,-2.13 0.87,-3.22 0,-1.79 -0.64,-3.35 -1.93,-4.68 -1.29,-1.33 -2.83,-1.99 -4.63,-1.99 -1.79,0 -3.35,0.66 -4.69,1.99 -1.32,1.33 -1.99,2.89 -1.99,4.68" /><path
         id="path134"
         style="fill:#000000;fill-opacity:1;fill-rule:nonzero;stroke:none"
         d="m 3478.14,2387.54 v 3.28 c 0,0.15 0.07,0.35 0.23,0.58 l 18.63,20.63 c 2.82,3.04 5.1,5.6 6.86,7.67 1.75,2.07 3.49,4.45 5.21,7.15 1.72,2.69 3.09,5.45 4.11,8.26 1.01,2.82 1.52,5.78 1.52,8.91 0,3.28 -0.61,6.41 -1.82,9.37 -1.21,2.97 -3.02,5.35 -5.45,7.15 -2.42,1.8 -5.31,2.7 -8.67,2.7 -3.51,0 -6.66,-1.04 -9.44,-3.11 -2.77,-2.07 -4.7,-4.78 -5.79,-8.14 0.31,0.07 0.74,0.11 1.29,0.11 1.79,0 3.32,-0.6 4.57,-1.81 1.25,-1.21 1.87,-2.75 1.87,-4.63 0,-1.87 -0.62,-3.44 -1.87,-4.69 -1.25,-1.25 -2.78,-1.87 -4.57,-1.87 -1.88,0 -3.46,0.64 -4.75,1.93 -1.29,1.29 -1.93,2.83 -1.93,4.63 0,2.97 0.56,5.78 1.69,8.44 1.13,2.65 2.78,5 4.93,7.03 2.14,2.03 4.54,3.59 7.2,4.69 2.66,1.09 5.51,1.63 8.56,1.63 4.53,0 8.77,-0.95 12.71,-2.87 3.95,-1.91 7.07,-4.64 9.38,-8.2 2.3,-3.55 3.46,-7.67 3.46,-12.36 0,-3.52 -0.77,-6.84 -2.29,-9.97 -1.53,-3.12 -3.48,-5.95 -5.86,-8.49 -2.38,-2.54 -5.43,-5.43 -9.14,-8.67 -3.71,-3.24 -6.15,-5.41 -7.33,-6.5 l -13.59,-13.13 h 11.6 c 5.63,0 10.36,0.06 14.18,0.17 3.83,0.12 5.86,0.26 6.1,0.42 0.93,1.01 1.87,4.72 2.81,11.13 h 3.52 l -3.41,-21.44 h -44.52" /><path
         id="path136"
         style="fill:none;stroke:#0000ff;stroke-width:9.99750042;stroke-linecap:butt;stroke-linejoin:round;stroke-miterlimit:10;stroke-dasharray:none;stroke-opacity:1"
         d="m 2409.98,2416.33 h 299.85" /><path
         id="path138"
         style="fill:#000000;fill-opacity:1;fill-rule:nonzero;stroke:none"
         d="m 2735.71,2218.58 c 0,0.47 0.04,0.78 0.12,0.94 l 17.58,70.9 c 0.39,1.17 1.03,2.11 1.93,2.81 0.9,0.7 1.93,1.06 3.1,1.06 1.02,0 1.88,-0.32 2.58,-0.94 0.71,-0.63 1.06,-1.45 1.06,-2.46 0,-0.24 0,-0.41 0,-0.53 0,-0.12 -0.04,-0.25 -0.12,-0.41 l -7.03,-28.13 c -0.78,-3.27 -1.18,-6.13 -1.18,-8.55 0,-2.97 0.71,-5.41 2.12,-7.32 1.4,-1.92 3.51,-2.88 6.32,-2.88 5.86,0 10.98,3.64 15.35,10.9 0.09,0.08 0.12,0.14 0.12,0.18 0,0.04 0,0.1 0,0.17 l 8.68,34.81 c 0.31,1.02 0.95,1.92 1.93,2.69 0.98,0.79 2.01,1.18 3.11,1.18 0.94,0 1.78,-0.32 2.51,-0.94 0.75,-0.63 1.11,-1.45 1.11,-2.46 0,-0.47 -0.03,-0.78 -0.11,-0.94 l -8.67,-34.57 c -0.55,-2.26 -0.82,-4.21 -0.82,-5.86 0,-3.43 1.17,-5.16 3.51,-5.16 2.5,0 4.38,1.55 5.63,4.63 1.25,3.09 2.34,6.82 3.28,11.19 0.16,0.47 0.51,0.71 1.06,0.71 h 1.41 c 0.3,0 0.56,-0.14 0.75,-0.42 0.2,-0.27 0.3,-0.52 0.3,-0.75 -1.41,-5.63 -2.93,-10.14 -4.57,-13.54 -1.64,-3.39 -4.34,-5.09 -8.09,-5.09 -2.66,0 -5.02,0.78 -7.09,2.34 -2.07,1.56 -3.42,3.63 -4.05,6.21 -1.95,-2.5 -4.27,-4.55 -6.96,-6.15 -2.7,-1.6 -5.53,-2.4 -8.5,-2.4 -5,0 -8.91,1.21 -11.72,3.63 l -6.09,-24.38 c -0.24,-1.09 -0.82,-1.99 -1.77,-2.69 -0.93,-0.7 -1.98,-1.06 -3.15,-1.06 -1.02,0 -1.88,0.29 -2.58,0.88 -0.71,0.59 -1.06,1.39 -1.06,2.4" /><path
         id="path140"
         style="fill:#000000;fill-opacity:1;fill-rule:nonzero;stroke:none"
         d="m 2846.97,2257.14 c -0.62,0 -1.15,0.25 -1.58,0.76 -0.43,0.51 -0.64,1.07 -0.64,1.7 0,0.62 0.21,1.17 0.64,1.64 0.43,0.47 0.96,0.71 1.58,0.71 h 75.35 c 0.63,0 1.16,-0.24 1.59,-0.71 0.43,-0.47 0.64,-1.02 0.64,-1.64 0,-0.63 -0.21,-1.19 -0.64,-1.7 -0.43,-0.51 -0.96,-0.76 -1.59,-0.76 z m 0,23.32 c -0.62,0 -1.15,0.23 -1.58,0.7 -0.43,0.47 -0.64,1.06 -0.64,1.76 0,0.55 0.21,1.07 0.64,1.58 0.43,0.51 0.96,0.76 1.58,0.76 h 75.35 c 0.63,0 1.16,-0.25 1.59,-0.76 0.43,-0.51 0.64,-1.03 0.64,-1.58 0,-0.7 -0.21,-1.29 -0.64,-1.76 -0.43,-0.47 -0.96,-0.7 -1.59,-0.7 h -75.35" /><path
         id="path142"
         style="fill:#000000;fill-opacity:1;fill-rule:nonzero;stroke:none"
         d="m 2994.62,2238.51 c -9.77,0 -16.43,4.04 -19.98,12.13 -3.56,8.08 -5.34,17.71 -5.34,28.88 0,6.95 0.65,13.5 1.94,19.63 1.29,6.13 3.81,11.33 7.56,15.59 3.75,4.25 9.02,6.38 15.82,6.38 5.31,0 9.64,-1.29 13,-3.86 3.36,-2.58 5.92,-5.9 7.68,-9.96 1.76,-4.07 2.95,-8.44 3.57,-13.13 0.63,-4.69 0.94,-9.57 0.94,-14.65 0,-6.88 -0.63,-13.32 -1.88,-19.34 -1.25,-6.01 -3.73,-11.13 -7.43,-15.35 -3.71,-4.22 -9.01,-6.32 -15.88,-6.32 z m 0,3.16 c 4.45,0 7.77,2.29 9.96,6.86 2.19,4.57 3.53,9.63 4.04,15.17 0.51,5.55 0.77,11.44 0.77,17.69 0,6.02 -0.26,11.57 -0.77,16.65 -0.51,5.07 -1.83,9.69 -3.98,13.82 -2.15,4.14 -5.49,6.21 -10.02,6.21 -4.53,0 -7.89,-2.07 -10.08,-6.21 -2.19,-4.13 -3.54,-8.75 -4.04,-13.82 -0.51,-5.08 -0.76,-10.63 -0.76,-16.65 0,-4.45 0.11,-8.64 0.34,-12.59 0.24,-3.94 0.83,-8.01 1.76,-12.19 0.94,-4.18 2.44,-7.71 4.51,-10.6 2.07,-2.89 4.83,-4.34 8.27,-4.34" /><path
         id="path144"
         style="fill:#000000;fill-opacity:1;fill-rule:nonzero;stroke:none"
         d="m 3036.57,2219.52 c 0,0.39 0.16,0.75 0.47,1.05 2.89,2.74 5.14,5.92 6.74,9.55 1.6,3.64 2.4,7.49 2.4,11.55 v 1.53 c -1.33,-1.34 -2.93,-2 -4.81,-2 -1.87,0 -3.45,0.64 -4.74,1.94 -1.29,1.29 -1.93,2.87 -1.93,4.74 0,1.88 0.64,3.44 1.93,4.69 1.29,1.25 2.87,1.88 4.74,1.88 2.82,0 4.83,-1.34 6.04,-3.99 1.21,-2.66 1.82,-5.59 1.82,-8.79 0,-4.45 -0.88,-8.69 -2.64,-12.72 -1.76,-4.02 -4.28,-7.63 -7.56,-10.84 -0.31,-0.15 -0.55,-0.23 -0.7,-0.23 -0.39,0 -0.78,0.18 -1.17,0.53 -0.39,0.35 -0.59,0.72 -0.59,1.11" /><path
         id="path146"
         style="fill:#000000;fill-opacity:1;fill-rule:nonzero;stroke:none"
         d="m 3120.45,2239.8 c -3.59,0 -6.76,0.86 -9.49,2.57 -2.74,1.72 -4.87,4.02 -6.39,6.92 -1.52,2.89 -2.28,6.09 -2.28,9.6 0,3.68 0.84,7.57 2.52,11.66 1.68,4.11 3.98,7.86 6.91,11.25 2.93,3.41 6.23,6.12 9.9,8.15 3.67,2.03 7.42,3.05 11.25,3.05 h 30.24 c 0.85,0 1.58,-0.28 2.16,-0.82 0.59,-0.55 0.88,-1.29 0.88,-2.23 0,-1.17 -0.43,-2.2 -1.28,-3.11 -0.86,-0.89 -1.88,-1.34 -3.05,-1.34 h -14.65 c 2.34,-3.44 3.51,-7.58 3.51,-12.43 0,-4.05 -0.78,-8.04 -2.34,-11.95 -1.56,-3.91 -3.73,-7.46 -6.5,-10.66 -2.77,-3.21 -6.02,-5.78 -9.73,-7.74 -3.71,-1.95 -7.6,-2.92 -11.66,-2.92 z m 0.12,3.27 c 4.37,0 8.24,1.7 11.6,5.11 3.36,3.39 5.94,7.57 7.73,12.53 1.8,4.97 2.7,9.56 2.7,13.77 0,3.44 -0.94,6.13 -2.81,8.09 -1.88,1.95 -4.54,2.93 -7.97,2.93 -4.62,0 -8.56,-1.57 -11.84,-4.69 -3.28,-3.13 -5.72,-7.05 -7.32,-11.78 -1.61,-4.72 -2.41,-9.27 -2.41,-13.65 0,-3.44 0.9,-6.35 2.7,-8.73 1.8,-2.38 4.34,-3.58 7.62,-3.58" /><path
         id="path148"
         style="fill:#000000;fill-opacity:1;fill-rule:nonzero;stroke:none"
         d="m 3174.93,2284.75 v 2.22 c 0,0.16 0.03,0.32 0.11,0.48 l 12.9,14.17 c 1.95,2.11 3.51,3.87 4.69,5.27 1.16,1.41 2.35,3.04 3.57,4.87 1.21,1.83 2.14,3.73 2.81,5.69 0.66,1.94 0.99,3.98 0.99,6.09 0,2.26 -0.41,4.43 -1.23,6.5 -0.82,2.07 -2.04,3.71 -3.68,4.92 -1.64,1.22 -3.64,1.82 -5.98,1.82 -2.42,0 -4.59,-0.72 -6.5,-2.17 -1.92,-1.44 -3.27,-3.3 -4.05,-5.56 0.24,0.07 0.55,0.11 0.94,0.11 1.25,0 2.3,-0.41 3.16,-1.23 0.86,-0.82 1.29,-1.89 1.29,-3.22 0,-1.25 -0.43,-2.33 -1.29,-3.22 -0.86,-0.9 -1.91,-1.35 -3.16,-1.35 -1.33,0 -2.43,0.45 -3.29,1.35 -0.85,0.89 -1.28,1.97 -1.28,3.22 0,2.03 0.39,3.97 1.17,5.8 0.78,1.83 1.9,3.45 3.34,4.86 1.45,1.41 3.1,2.49 4.98,3.22 1.87,0.75 3.83,1.12 5.86,1.12 3.12,0 6.05,-0.67 8.79,-1.99 2.73,-1.33 4.88,-3.21 6.44,-5.63 1.56,-2.42 2.35,-5.27 2.35,-8.55 0,-2.43 -0.53,-4.71 -1.59,-6.86 -1.05,-2.15 -2.38,-4.1 -3.98,-5.86 -1.6,-1.76 -3.69,-3.75 -6.27,-5.98 -2.58,-2.22 -4.26,-3.68 -5.04,-4.39 l -9.37,-9.02 h 7.96 c 3.91,0 7.18,0.04 9.79,0.12 2.62,0.07 4.01,0.19 4.16,0.34 0.63,0.63 1.29,3.13 1.99,7.5 h 2.35 l -2.35,-14.64 h -30.58" /><path
         id="path150"
         style="fill:#000000;fill-opacity:1;fill-rule:nonzero;stroke:none"
         d="m 3261.18,2257.14 c -0.62,0 -1.15,0.25 -1.58,0.76 -0.43,0.51 -0.65,1.07 -0.65,1.7 0,0.62 0.22,1.17 0.65,1.64 0.43,0.47 0.96,0.71 1.58,0.71 h 75.36 c 0.62,0 1.15,-0.24 1.58,-0.71 0.43,-0.47 0.64,-1.02 0.64,-1.64 0,-0.63 -0.21,-1.19 -0.64,-1.7 -0.43,-0.51 -0.96,-0.76 -1.58,-0.76 z m 0,23.32 c -0.62,0 -1.15,0.23 -1.58,0.7 -0.43,0.47 -0.65,1.06 -0.65,1.76 0,0.55 0.22,1.07 0.65,1.58 0.43,0.51 0.96,0.76 1.58,0.76 h 75.36 c 0.62,0 1.15,-0.25 1.58,-0.76 0.43,-0.51 0.64,-1.03 0.64,-1.58 0,-0.7 -0.21,-1.29 -0.64,-1.76 -0.43,-0.47 -0.96,-0.7 -1.58,-0.7 h -75.36" /><path
         id="path152"
         style="fill:#000000;fill-opacity:1;fill-rule:nonzero;stroke:none"
         d="m 3389.96,2241.2 v 4.22 c 10,0 15,1.29 15,3.87 v 62.93 c -4.14,-1.96 -9.38,-2.93 -15.71,-2.93 v 4.22 c 9.85,0 17.27,2.54 22.27,7.61 h 1.64 c 0.31,0 0.59,-0.1 0.82,-0.29 0.23,-0.2 0.35,-0.45 0.35,-0.76 v -70.78 c 0,-2.58 5,-3.87 15,-3.87 v -4.22 h -39.37" /><path
         id="path154"
         style="fill:none;stroke:#ff0000;stroke-width:9.99750042;stroke-linecap:butt;stroke-linejoin:round;stroke-miterlimit:10;stroke-dasharray:none;stroke-opacity:1"
         d="m 2409.98,2270 h 299.85" /><path
         id="path156"
         style="fill:#000000;fill-opacity:1;fill-rule:nonzero;stroke:none"
         d="m 2735.71,2072.25 c 0,0.46 0.04,0.78 0.12,0.93 l 17.58,70.91 c 0.39,1.17 1.03,2.11 1.93,2.81 0.9,0.7 1.93,1.05 3.1,1.05 1.02,0 1.88,-0.31 2.58,-0.94 0.71,-0.62 1.06,-1.44 1.06,-2.46 0,-0.23 0,-0.41 0,-0.52 0,-0.12 -0.04,-0.26 -0.12,-0.41 l -7.03,-28.13 c -0.78,-3.28 -1.18,-6.13 -1.18,-8.56 0,-2.96 0.71,-5.4 2.12,-7.32 1.4,-1.91 3.51,-2.87 6.32,-2.87 5.86,0 10.98,3.64 15.35,10.9 0.09,0.08 0.12,0.14 0.12,0.18 0,0.04 0,0.09 0,0.17 l 8.68,34.81 c 0.31,1.01 0.95,1.91 1.93,2.69 0.98,0.78 2.01,1.17 3.11,1.17 0.94,0 1.78,-0.31 2.51,-0.94 0.75,-0.62 1.11,-1.44 1.11,-2.46 0,-0.47 -0.03,-0.78 -0.11,-0.94 l -8.67,-34.56 c -0.55,-2.27 -0.82,-4.22 -0.82,-5.86 0,-3.44 1.17,-5.16 3.51,-5.16 2.5,0 4.38,1.55 5.63,4.63 1.25,3.08 2.34,6.81 3.28,11.19 0.16,0.47 0.51,0.7 1.06,0.7 h 1.41 c 0.3,0 0.56,-0.13 0.75,-0.41 0.2,-0.27 0.3,-0.52 0.3,-0.76 -1.41,-5.62 -2.93,-10.13 -4.57,-13.54 -1.64,-3.39 -4.34,-5.09 -8.09,-5.09 -2.66,0 -5.02,0.78 -7.09,2.34 -2.07,1.57 -3.42,3.64 -4.05,6.21 -1.95,-2.5 -4.27,-4.55 -6.96,-6.15 -2.7,-1.6 -5.53,-2.4 -8.5,-2.4 -5,0 -8.91,1.21 -11.72,3.63 l -6.09,-24.37 c -0.24,-1.09 -0.82,-1.99 -1.77,-2.69 -0.93,-0.71 -1.98,-1.06 -3.15,-1.06 -1.02,0 -1.88,0.29 -2.58,0.88 -0.71,0.58 -1.06,1.38 -1.06,2.4" /><path
         id="path158"
         style="fill:#000000;fill-opacity:1;fill-rule:nonzero;stroke:none"
         d="m 2846.97,2110.8 c -0.62,0 -1.15,0.26 -1.58,0.77 -0.43,0.5 -0.64,1.07 -0.64,1.69 0,0.63 0.21,1.18 0.64,1.65 0.43,0.47 0.96,0.7 1.58,0.7 h 75.35 c 0.63,0 1.16,-0.23 1.59,-0.7 0.43,-0.47 0.64,-1.02 0.64,-1.65 0,-0.62 -0.21,-1.19 -0.64,-1.69 -0.43,-0.51 -0.96,-0.77 -1.59,-0.77 z m 0,23.32 c -0.62,0 -1.15,0.24 -1.58,0.7 -0.43,0.48 -0.64,1.06 -0.64,1.77 0,0.54 0.21,1.07 0.64,1.57 0.43,0.51 0.96,0.77 1.58,0.77 h 75.35 c 0.63,0 1.16,-0.26 1.59,-0.77 0.43,-0.5 0.64,-1.03 0.64,-1.57 0,-0.71 -0.21,-1.29 -0.64,-1.77 -0.43,-0.46 -0.96,-0.7 -1.59,-0.7 h -75.35" /><path
         id="path160"
         style="fill:#000000;fill-opacity:1;fill-rule:nonzero;stroke:none"
         d="m 2976.93,2122.53 c -0.71,0 -1.28,0.25 -1.71,0.76 -0.43,0.5 -0.64,1.03 -0.64,1.58 0,0.62 0.21,1.19 0.64,1.7 0.43,0.5 1,0.75 1.71,0.75 h 68.78 c 0.62,0 1.15,-0.25 1.58,-0.75 0.43,-0.51 0.64,-1.08 0.64,-1.7 0,-0.55 -0.21,-1.08 -0.64,-1.58 -0.43,-0.51 -0.96,-0.76 -1.58,-0.76 h -68.78" /><path
         id="path162"
         style="fill:#000000;fill-opacity:1;fill-rule:nonzero;stroke:none"
         d="m 3063.93,2094.87 v 3.28 c 0,0.15 0.07,0.35 0.23,0.58 l 18.63,20.63 c 2.82,3.05 5.1,5.6 6.86,7.68 1.76,2.07 3.5,4.44 5.21,7.14 1.72,2.7 3.09,5.45 4.1,8.27 1.02,2.81 1.53,5.77 1.53,8.9 0,3.28 -0.61,6.41 -1.82,9.37 -1.21,2.98 -3.02,5.35 -5.44,7.15 -2.43,1.8 -5.32,2.7 -8.68,2.7 -3.51,0 -6.66,-1.03 -9.44,-3.11 -2.77,-2.07 -4.7,-4.78 -5.79,-8.14 0.31,0.07 0.74,0.11 1.29,0.11 1.79,0 3.32,-0.6 4.57,-1.81 1.25,-1.21 1.87,-2.75 1.87,-4.63 0,-1.87 -0.62,-3.44 -1.87,-4.69 -1.25,-1.25 -2.78,-1.87 -4.57,-1.87 -1.88,0 -3.46,0.64 -4.75,1.93 -1.29,1.29 -1.93,2.84 -1.93,4.63 0,2.97 0.56,5.78 1.7,8.44 1.13,2.65 2.77,5 4.92,7.03 2.15,2.03 4.55,3.59 7.2,4.69 2.66,1.09 5.51,1.64 8.56,1.64 4.53,0 8.77,-0.96 12.71,-2.88 3.95,-1.91 7.07,-4.64 9.38,-8.2 2.3,-3.55 3.46,-7.67 3.46,-12.36 0,-3.52 -0.77,-6.84 -2.29,-9.96 -1.52,-3.13 -3.47,-5.96 -5.86,-8.5 -2.38,-2.53 -5.43,-5.43 -9.14,-8.67 -3.71,-3.24 -6.15,-5.41 -7.32,-6.5 l -13.6,-13.13 h 11.6 c 5.63,0 10.36,0.06 14.19,0.18 3.82,0.12 5.85,0.25 6.09,0.41 0.94,1.02 1.88,4.72 2.81,11.13 h 3.52 l -3.4,-21.44 h -44.53" /><path
         id="path164"
         style="fill:#000000;fill-opacity:1;fill-rule:nonzero;stroke:none"
         d="m 3129.9,2073.18 c 0,0.4 0.16,0.75 0.48,1.06 2.89,2.74 5.13,5.92 6.73,9.55 1.6,3.63 2.4,7.48 2.4,11.55 v 1.52 c -1.33,-1.33 -2.92,-1.99 -4.8,-1.99 -1.87,0 -3.46,0.64 -4.75,1.93 -1.29,1.29 -1.93,2.87 -1.93,4.75 0,1.87 0.64,3.43 1.93,4.68 1.29,1.25 2.88,1.88 4.75,1.88 2.81,0 4.82,-1.33 6.04,-3.99 1.21,-2.66 1.81,-5.58 1.81,-8.78 0,-4.46 -0.88,-8.7 -2.64,-12.72 -1.75,-4.02 -4.27,-7.64 -7.56,-10.84 -0.31,-0.15 -0.54,-0.23 -0.7,-0.23 -0.39,0 -0.78,0.17 -1.17,0.52 -0.39,0.35 -0.59,0.72 -0.59,1.11" /><path
         id="path166"
         style="fill:#000000;fill-opacity:1;fill-rule:nonzero;stroke:none"
         d="m 3213.78,2093.46 c -3.59,0 -6.76,0.86 -9.49,2.58 -2.73,1.72 -4.86,4.02 -6.38,6.91 -1.53,2.89 -2.29,6.09 -2.29,9.61 0,3.67 0.84,7.56 2.52,11.66 1.68,4.1 3.98,7.85 6.91,11.25 2.93,3.4 6.23,6.12 9.9,8.15 3.68,2.02 7.43,3.04 11.25,3.04 h 30.24 c 0.86,0 1.58,-0.27 2.17,-0.82 0.59,-0.54 0.88,-1.29 0.88,-2.22 0,-1.17 -0.43,-2.21 -1.29,-3.11 -0.86,-0.9 -1.88,-1.35 -3.05,-1.35 h -14.65 c 2.34,-3.43 3.52,-7.57 3.52,-12.42 0,-4.06 -0.79,-8.04 -2.34,-11.95 -1.57,-3.91 -3.74,-7.47 -6.51,-10.67 -2.77,-3.2 -6.01,-5.78 -9.72,-7.73 -3.72,-1.95 -7.6,-2.93 -11.67,-2.93 z m 0.12,3.28 c 4.38,0 8.24,1.7 11.6,5.1 3.36,3.39 5.94,7.58 7.74,12.54 1.79,4.96 2.69,9.55 2.69,13.77 0,3.44 -0.94,6.13 -2.81,8.08 -1.88,1.96 -4.53,2.93 -7.97,2.93 -4.61,0 -8.55,-1.56 -11.83,-4.69 -3.29,-3.12 -5.73,-7.05 -7.33,-11.77 -1.6,-4.73 -2.4,-9.28 -2.4,-13.65 0,-3.44 0.9,-6.35 2.69,-8.73 1.8,-2.39 4.34,-3.58 7.62,-3.58" /><path
         id="path168"
         style="fill:#000000;fill-opacity:1;fill-rule:nonzero;stroke:none"
         d="m 3268.26,2138.41 v 2.23 c 0,0.15 0.04,0.31 0.12,0.47 l 12.89,14.18 c 1.95,2.1 3.52,3.86 4.68,5.27 1.18,1.41 2.37,3.03 3.58,4.87 1.21,1.83 2.15,3.73 2.81,5.68 0.66,1.95 1,3.98 1,6.09 0,2.26 -0.41,4.43 -1.23,6.5 -0.82,2.07 -2.06,3.72 -3.7,4.93 -1.64,1.21 -3.63,1.82 -5.97,1.82 -2.42,0 -4.59,-0.73 -6.51,-2.17 -1.91,-1.45 -3.26,-3.3 -4.04,-5.57 0.24,0.08 0.55,0.11 0.94,0.11 1.25,0 2.31,-0.4 3.17,-1.22 0.86,-0.82 1.29,-1.9 1.29,-3.23 0,-1.25 -0.43,-2.32 -1.29,-3.22 -0.86,-0.9 -1.92,-1.35 -3.17,-1.35 -1.33,0 -2.42,0.45 -3.28,1.35 -0.86,0.9 -1.29,1.97 -1.29,3.22 0,2.04 0.39,3.97 1.17,5.81 0.78,1.83 1.89,3.45 3.34,4.86 1.44,1.41 3.11,2.48 4.98,3.22 1.88,0.74 3.83,1.11 5.86,1.11 3.13,0 6.06,-0.66 8.79,-1.99 2.73,-1.33 4.88,-3.2 6.45,-5.62 1.56,-2.43 2.34,-5.28 2.34,-8.56 0,-2.42 -0.53,-4.7 -1.58,-6.85 -1.06,-2.15 -2.39,-4.11 -3.99,-5.86 -1.6,-1.76 -3.69,-3.76 -6.27,-5.98 -2.57,-2.22 -4.25,-3.69 -5.04,-4.39 l -9.37,-9.03 h 7.97 c 3.91,0 7.17,0.04 9.79,0.12 2.61,0.08 4,0.19 4.15,0.35 0.63,0.62 1.29,3.12 2,7.5 h 2.34 l -2.34,-14.65 h -30.59" /><path
         id="path170"
         style="fill:#000000;fill-opacity:1;fill-rule:nonzero;stroke:none"
         d="m 3354.51,2110.8 c -0.62,0 -1.15,0.26 -1.58,0.77 -0.43,0.5 -0.64,1.07 -0.64,1.69 0,0.63 0.21,1.18 0.64,1.65 0.43,0.47 0.96,0.7 1.58,0.7 h 75.35 c 0.63,0 1.16,-0.23 1.59,-0.7 0.43,-0.47 0.64,-1.02 0.64,-1.65 0,-0.62 -0.21,-1.19 -0.64,-1.69 -0.43,-0.51 -0.96,-0.77 -1.59,-0.77 z m 0,23.32 c -0.62,0 -1.15,0.24 -1.58,0.7 -0.43,0.48 -0.64,1.06 -0.64,1.77 0,0.54 0.21,1.07 0.64,1.57 0.43,0.51 0.96,0.77 1.58,0.77 h 75.35 c 0.63,0 1.16,-0.26 1.59,-0.77 0.43,-0.5 0.64,-1.03 0.64,-1.57 0,-0.71 -0.21,-1.29 -0.64,-1.77 -0.43,-0.46 -0.96,-0.7 -1.59,-0.7 h -75.35" /><path
         id="path172"
         style="fill:#000000;fill-opacity:1;fill-rule:nonzero;stroke:none"
         d="m 3502.16,2092.17 c -9.77,0 -16.43,4.04 -19.98,12.13 -3.56,8.09 -5.34,17.71 -5.34,28.88 0,6.96 0.65,13.5 1.94,19.64 1.29,6.13 3.81,11.32 7.56,15.58 3.75,4.26 9.02,6.39 15.82,6.39 5.31,0 9.65,-1.29 13,-3.87 3.36,-2.58 5.92,-5.9 7.68,-9.96 1.76,-4.06 2.95,-8.44 3.57,-13.12 0.63,-4.69 0.94,-9.58 0.94,-14.66 0,-6.87 -0.62,-13.32 -1.87,-19.33 -1.25,-6.02 -3.73,-11.14 -7.44,-15.35 -3.72,-4.22 -9.01,-6.33 -15.88,-6.33 z m 0,3.17 c 4.45,0 7.77,2.29 9.96,6.86 2.19,4.56 3.54,9.62 4.04,15.17 0.51,5.54 0.77,11.44 0.77,17.69 0,6.02 -0.26,11.57 -0.77,16.64 -0.5,5.08 -1.83,9.69 -3.98,13.83 -2.15,4.14 -5.49,6.21 -10.02,6.21 -4.53,0 -7.89,-2.07 -10.08,-6.21 -2.19,-4.14 -3.54,-8.75 -4.04,-13.83 -0.51,-5.07 -0.76,-10.62 -0.76,-16.64 0,-4.45 0.11,-8.65 0.35,-12.6 0.23,-3.94 0.82,-8 1.76,-12.18 0.93,-4.18 2.43,-7.72 4.5,-10.61 2.08,-2.88 4.83,-4.33 8.27,-4.33" /><path
         id="path174"
         style="fill:#000000;fill-opacity:1;fill-rule:nonzero;stroke:none"
         d="m 3542.24,2101.55 c 0,1.79 0.66,3.34 1.99,4.63 1.32,1.28 2.89,1.93 4.68,1.93 1.1,0 2.17,-0.29 3.23,-0.88 1.05,-0.59 1.87,-1.41 2.46,-2.46 0.58,-1.06 0.88,-2.13 0.88,-3.22 0,-1.8 -0.65,-3.36 -1.93,-4.69 -1.29,-1.33 -2.84,-1.99 -4.64,-1.99 -1.79,0 -3.36,0.66 -4.68,1.99 -1.33,1.33 -1.99,2.89 -1.99,4.69" /><path
         id="path176"
         style="fill:#000000;fill-opacity:1;fill-rule:nonzero;stroke:none"
         d="m 3575.92,2108.57 c 0.86,-2.34 2.13,-4.46 3.81,-6.37 1.68,-1.92 3.69,-3.43 6.04,-4.52 2.34,-1.1 4.76,-1.64 7.26,-1.64 5.78,0 9.77,2.25 11.95,6.74 2.19,4.49 3.29,9.93 3.29,16.34 0,2.82 -0.06,5.16 -0.18,7.04 -0.12,1.87 -0.37,3.71 -0.76,5.5 -0.78,2.82 -2.1,5.28 -3.93,7.39 -1.83,2.11 -4.12,3.16 -6.85,3.16 -2.66,0 -4.96,-0.41 -6.92,-1.23 -1.95,-0.82 -3.53,-1.78 -4.75,-2.87 -1.21,-1.09 -2.28,-2.25 -3.22,-3.46 -0.93,-1.2 -1.52,-1.85 -1.76,-1.93 h -1.28 c -0.23,0 -0.49,0.12 -0.76,0.35 -0.28,0.23 -0.42,0.47 -0.42,0.71 v 40.07 c 0,0.23 0.12,0.45 0.36,0.64 0.23,0.2 0.5,0.3 0.82,0.3 h 0.34 c 5.4,-2.58 11.11,-3.87 17.12,-3.87 5.94,0 11.68,1.29 17.23,3.87 h 0.34 c 0.24,0 0.47,-0.1 0.71,-0.3 0.23,-0.19 0.35,-0.41 0.35,-0.64 v -1.05 c 0,-0.39 -0.08,-0.59 -0.23,-0.59 -2.74,-3.67 -6.16,-6.52 -10.25,-8.55 -4.11,-2.03 -8.39,-3.05 -12.84,-3.05 -3.2,0 -6.48,0.47 -9.84,1.4 v -22.73 c 2.65,2.18 5.03,3.73 7.14,4.63 2.11,0.9 4.77,1.35 7.97,1.35 4.45,0 8.42,-1.27 11.9,-3.81 3.48,-2.54 6.15,-5.84 8.03,-9.9 1.87,-4.07 2.81,-8.25 2.81,-12.54 0,-4.77 -1.17,-9.2 -3.52,-13.31 -2.34,-4.09 -5.54,-7.38 -9.61,-9.84 -4.06,-2.46 -8.47,-3.69 -13.24,-3.69 -3.98,0 -7.62,1.04 -10.9,3.11 -3.28,2.07 -5.88,4.82 -7.79,8.26 -1.92,3.44 -2.88,7.07 -2.88,10.89 0,1.8 0.59,3.27 1.77,4.4 1.17,1.13 2.65,1.7 4.45,1.7 1.72,0 3.18,-0.57 4.39,-1.7 1.22,-1.13 1.82,-2.6 1.82,-4.4 0,-1.71 -0.6,-3.16 -1.82,-4.33 -1.21,-1.17 -2.67,-1.76 -4.39,-1.76 -0.31,0 -0.64,0.02 -1,0.06 -0.35,0.05 -0.61,0.1 -0.76,0.17" /><path
         id="path178"
         style="fill:none;stroke:#000000;stroke-width:9.99750042;stroke-linecap:butt;stroke-linejoin:round;stroke-miterlimit:10;stroke-dasharray:none;stroke-opacity:1"
         d="m 2409.98,2123.67 h 299.85" /><path
         id="path180"
         style="fill:none;stroke:#262626;stroke-width:5.00250006;stroke-linecap:butt;stroke-linejoin:miter;stroke-miterlimit:10;stroke-dasharray:none;stroke-opacity:1"
         d="m 2380,2037.5 h 1275 v 465 H 2380 Z" /></g></g></svg>