<?xml version="1.0" encoding="UTF-8" standalone="no"?>
<svg
   xmlns:dc="http://purl.org/dc/elements/1.1/"
   xmlns:cc="http://creativecommons.org/ns#"
   xmlns:rdf="http://www.w3.org/1999/02/22-rdf-syntax-ns#"
   xmlns:svg="http://www.w3.org/2000/svg"
   xmlns="http://www.w3.org/2000/svg"
   viewBox="0 0 498.66666 350.66666"
   height="350.66666"
   width="498.66666"
   xml:space="preserve"
   id="svg2"
   version="1.1"><metadata
     id="metadata8"><rdf:RDF><cc:Work
         rdf:about=""><dc:format>image/svg+xml</dc:format><dc:type
           rdf:resource="http://purl.org/dc/dcmitype/StillImage" /></cc:Work></rdf:RDF></metadata><defs
     id="defs6" /><g
     transform="matrix(1.3333333,0,0,-1.3333333,0,350.66667)"
     id="g10"><g
       transform="scale(0.1)"
       id="g12"><path
         id="path14"
         style="fill:#ffffff;fill-opacity:1;fill-rule:nonzero;stroke:none"
         d="M 0,0 H 4150 V 2785 H 0 Z" /><path
         id="path16"
         style="fill:#ffffff;fill-opacity:1;fill-rule:nonzero;stroke:none"
         d="M 0,0 H 4150 V 2785 H 0 Z" /><path
         id="path18"
         style="fill:#ffffff;fill-opacity:1;fill-rule:nonzero;stroke:none"
         d="m 392.5,310 h 3345 v 2265 h -3345 z" /><path
         id="path20"
         style="fill:none;stroke:#dfdfdf;stroke-width:5.00250006;stroke-linecap:butt;stroke-linejoin:round;stroke-miterlimit:10;stroke-dasharray:none;stroke-opacity:1"
         d="M 810.625,310 V 2575" /><path
         id="path22"
         style="fill:none;stroke:#dfdfdf;stroke-width:5.00250006;stroke-linecap:butt;stroke-linejoin:round;stroke-miterlimit:10;stroke-dasharray:none;stroke-opacity:1"
         d="M 1368.12,310 V 2575" /><path
         id="path24"
         style="fill:none;stroke:#dfdfdf;stroke-width:5.00250006;stroke-linecap:butt;stroke-linejoin:round;stroke-miterlimit:10;stroke-dasharray:none;stroke-opacity:1"
         d="M 1925.63,310 V 2575" /><path
         id="path26"
         style="fill:none;stroke:#dfdfdf;stroke-width:5.00250006;stroke-linecap:butt;stroke-linejoin:round;stroke-miterlimit:10;stroke-dasharray:none;stroke-opacity:1"
         d="M 2483.13,310 V 2575" /><path
         id="path28"
         style="fill:none;stroke:#dfdfdf;stroke-width:5.00250006;stroke-linecap:butt;stroke-linejoin:round;stroke-miterlimit:10;stroke-dasharray:none;stroke-opacity:1"
         d="M 3040.62,310 V 2575" /><path
         id="path30"
         style="fill:none;stroke:#dfdfdf;stroke-width:5.00250006;stroke-linecap:butt;stroke-linejoin:round;stroke-miterlimit:10;stroke-dasharray:none;stroke-opacity:1"
         d="M 3598.13,310 V 2575" /><path
         id="path32"
         style="fill:none;stroke:#dfdfdf;stroke-width:5.00250006;stroke-linecap:butt;stroke-linejoin:round;stroke-miterlimit:10;stroke-dasharray:none;stroke-opacity:1"
         d="M 3737.5,310 H 392.5" /><path
         id="path34"
         style="fill:none;stroke:#dfdfdf;stroke-width:5.00250006;stroke-linecap:butt;stroke-linejoin:round;stroke-miterlimit:10;stroke-dasharray:none;stroke-opacity:1"
         d="M 3737.5,687.496 H 392.5" /><path
         id="path36"
         style="fill:none;stroke:#dfdfdf;stroke-width:5.00250006;stroke-linecap:butt;stroke-linejoin:round;stroke-miterlimit:10;stroke-dasharray:none;stroke-opacity:1"
         d="M 3737.5,1065 H 392.5" /><path
         id="path38"
         style="fill:none;stroke:#dfdfdf;stroke-width:5.00250006;stroke-linecap:butt;stroke-linejoin:round;stroke-miterlimit:10;stroke-dasharray:none;stroke-opacity:1"
         d="M 3737.5,1442.5 H 392.5" /><path
         id="path40"
         style="fill:none;stroke:#dfdfdf;stroke-width:5.00250006;stroke-linecap:butt;stroke-linejoin:round;stroke-miterlimit:10;stroke-dasharray:none;stroke-opacity:1"
         d="M 3737.5,1820 H 392.5" /><path
         id="path42"
         style="fill:none;stroke:#dfdfdf;stroke-width:5.00250006;stroke-linecap:butt;stroke-linejoin:round;stroke-miterlimit:10;stroke-dasharray:none;stroke-opacity:1"
         d="M 3737.5,2197.5 H 392.5" /><path
         id="path44"
         style="fill:none;stroke:#dfdfdf;stroke-width:5.00250006;stroke-linecap:butt;stroke-linejoin:round;stroke-miterlimit:10;stroke-dasharray:none;stroke-opacity:1"
         d="M 3737.5,2575 H 392.5" /><path
         id="path46"
         style="fill:none;stroke:#262626;stroke-width:5.00250006;stroke-linecap:square;stroke-linejoin:round;stroke-miterlimit:10;stroke-dasharray:none;stroke-opacity:1"
         d="m 392.5,310 h 3345" /><path
         id="path48"
         style="fill:none;stroke:#262626;stroke-width:5.00250006;stroke-linecap:square;stroke-linejoin:round;stroke-miterlimit:10;stroke-dasharray:none;stroke-opacity:1"
         d="m 810.625,310 v 33.449" /><path
         id="path50"
         style="fill:none;stroke:#262626;stroke-width:5.00250006;stroke-linecap:square;stroke-linejoin:round;stroke-miterlimit:10;stroke-dasharray:none;stroke-opacity:1"
         d="m 1368.12,310 v 33.449" /><path
         id="path52"
         style="fill:none;stroke:#262626;stroke-width:5.00250006;stroke-linecap:square;stroke-linejoin:round;stroke-miterlimit:10;stroke-dasharray:none;stroke-opacity:1"
         d="m 1925.63,310 v 33.449" /><path
         id="path54"
         style="fill:none;stroke:#262626;stroke-width:5.00250006;stroke-linecap:square;stroke-linejoin:round;stroke-miterlimit:10;stroke-dasharray:none;stroke-opacity:1"
         d="m 2483.13,310 v 33.449" /><path
         id="path56"
         style="fill:none;stroke:#262626;stroke-width:5.00250006;stroke-linecap:square;stroke-linejoin:round;stroke-miterlimit:10;stroke-dasharray:none;stroke-opacity:1"
         d="m 3040.62,310 v 33.449" /><path
         id="path58"
         style="fill:none;stroke:#262626;stroke-width:5.00250006;stroke-linecap:square;stroke-linejoin:round;stroke-miterlimit:10;stroke-dasharray:none;stroke-opacity:1"
         d="m 3598.13,310 v 33.449" /><path
         id="path60"
         style="fill:#262626;fill-opacity:1;fill-rule:nonzero;stroke:none"
         d="m 810.625,162.508 c -9.766,0 -16.426,4.043 -19.98,12.129 -3.555,8.082 -5.332,17.711 -5.332,28.879 0,6.957 0.644,13.5 1.933,19.636 1.293,6.129 3.813,11.325 7.563,15.586 3.75,4.254 9.019,6.383 15.816,6.383 5.309,0 9.645,-1.289 13.004,-3.863 3.359,-2.582 5.922,-5.899 7.68,-9.961 1.757,-4.063 2.945,-8.438 3.57,-13.125 0.625,-4.688 0.937,-9.574 0.937,-14.656 0,-6.875 -0.625,-13.317 -1.875,-19.332 -1.25,-6.016 -3.73,-11.133 -7.437,-15.356 -3.711,-4.215 -9.004,-6.32 -15.879,-6.32 z m 0,3.164 c 4.453,0 7.773,2.285 9.961,6.855 2.187,4.571 3.535,9.629 4.043,15.172 0.508,5.547 0.762,11.442 0.762,17.692 0,6.023 -0.254,11.57 -0.762,16.644 -0.508,5.078 -1.832,9.692 -3.984,13.828 -2.149,4.141 -5.489,6.211 -10.02,6.211 -4.531,0 -7.891,-2.07 -10.078,-6.211 -2.188,-4.136 -3.535,-8.75 -4.043,-13.828 -0.508,-5.074 -0.758,-10.621 -0.758,-16.644 0,-4.45 0.113,-8.645 0.344,-12.59 0.234,-3.946 0.824,-8.008 1.762,-12.188 0.937,-4.179 2.437,-7.715 4.507,-10.605 2.071,-2.891 4.825,-4.336 8.266,-4.336" /><path
         id="path62"
         style="fill:#262626;fill-opacity:1;fill-rule:nonzero;stroke:none"
         d="m 1344.1,165.199 v 3.285 c 0,0.157 0.08,0.352 0.24,0.586 l 18.62,20.625 c 2.82,3.043 5.11,5.602 6.87,7.672 1.75,2.071 3.49,4.453 5.21,7.149 1.72,2.695 3.09,5.449 4.1,8.265 1.02,2.809 1.52,5.778 1.52,8.903 0,3.285 -0.6,6.41 -1.81,9.375 -1.21,2.968 -3.03,5.351 -5.45,7.144 -2.42,1.801 -5.31,2.703 -8.67,2.703 -3.52,0 -6.66,-1.035 -9.44,-3.105 -2.77,-2.071 -4.7,-4.785 -5.79,-8.145 0.3,0.074 0.73,0.11 1.28,0.11 1.8,0 3.32,-0.602 4.57,-1.813 1.25,-1.211 1.88,-2.754 1.88,-4.629 0,-1.875 -0.63,-3.437 -1.88,-4.687 -1.25,-1.25 -2.77,-1.875 -4.57,-1.875 -1.88,0 -3.46,0.644 -4.74,1.937 -1.29,1.289 -1.94,2.832 -1.94,4.625 0,2.973 0.57,5.785 1.7,8.438 1.13,2.656 2.77,5 4.93,7.035 2.14,2.031 4.54,3.594 7.2,4.687 2.66,1.09 5.51,1.637 8.55,1.637 4.53,0 8.77,-0.957 12.72,-2.875 3.95,-1.91 7.07,-4.641 9.38,-8.195 2.3,-3.555 3.45,-7.68 3.45,-12.367 0,-3.516 -0.76,-6.836 -2.28,-9.961 -1.53,-3.125 -3.48,-5.957 -5.86,-8.496 -2.39,-2.536 -5.43,-5.426 -9.14,-8.672 -3.71,-3.239 -6.16,-5.407 -7.33,-6.504 l -13.59,-13.125 h 11.6 c 5.63,0 10.35,0.058 14.18,0.176 3.83,0.117 5.86,0.257 6.09,0.41 0.94,1.015 1.88,4.726 2.82,11.129 h 3.51 l -3.4,-21.442 h -44.53" /><path
         id="path64"
         style="fill:#262626;fill-opacity:1;fill-rule:nonzero;stroke:none"
         d="m 1899.02,185.008 v 4.215 l 37.04,55.312 c 0.31,0.391 0.74,0.586 1.28,0.586 h 1.76 c 0.86,0 1.29,-0.43 1.29,-1.293 v -54.605 h 11.84 v -4.215 h -11.84 v -11.723 c 0,-1.64 1.17,-2.695 3.51,-3.164 2.35,-0.465 5.08,-0.699 8.21,-0.699 v -4.223 h -33.05 v 4.223 c 3.05,0 5.74,0.234 8.09,0.699 2.34,0.469 3.51,1.524 3.51,3.164 v 11.723 z m 3.98,4.215 h 28.37 v 42.539 z" /><path
         id="path66"
         style="fill:#262626;fill-opacity:1;fill-rule:nonzero;stroke:none"
         d="m 2483.13,162.508 c -4.92,0 -9.04,1.328 -12.36,3.98 -3.33,2.657 -5.91,6.094 -7.75,10.313 -1.83,4.222 -3.1,8.637 -3.81,13.246 -0.69,4.605 -1.05,9.254 -1.05,13.941 0,6.332 1.23,12.68 3.7,19.043 2.46,6.367 6.09,11.641 10.89,15.821 4.81,4.179 10.49,6.269 17.06,6.269 2.73,0 5.26,-0.508 7.61,-1.523 2.35,-1.016 4.2,-2.539 5.56,-4.567 1.38,-2.031 2.06,-4.453 2.06,-7.269 0,-1.641 -0.57,-3.028 -1.7,-4.16 -1.13,-1.133 -2.52,-1.696 -4.16,-1.696 -1.56,0 -2.91,0.563 -4.04,1.696 -1.14,1.132 -1.7,2.519 -1.7,4.16 0,1.566 0.56,2.914 1.7,4.043 1.13,1.136 2.48,1.703 4.04,1.703 h 0.7 c -1.02,1.406 -2.46,2.461 -4.33,3.164 -1.88,0.699 -3.79,1.051 -5.74,1.051 -2.43,0 -4.67,-0.528 -6.74,-1.582 -2.07,-1.055 -3.93,-2.481 -5.57,-4.278 -1.64,-1.793 -3.01,-3.785 -4.1,-5.976 -1.1,-2.184 -1.94,-4.664 -2.52,-7.438 -0.59,-2.777 -0.96,-5.375 -1.11,-7.793 -0.16,-2.426 -0.24,-5.472 -0.24,-9.144 1.41,3.281 3.4,5.976 5.97,8.086 2.59,2.109 5.48,3.164 8.68,3.164 3.59,0 6.85,-0.723 9.78,-2.168 2.93,-1.446 5.45,-3.457 7.56,-6.035 2.11,-2.575 3.71,-5.508 4.81,-8.793 1.09,-3.278 1.63,-6.598 1.63,-9.957 0,-4.688 -1.03,-9.137 -3.1,-13.36 -2.07,-4.219 -5,-7.597 -8.78,-10.14 -3.79,-2.536 -8.11,-3.801 -12.95,-3.801 z m 0,3.863 c 3.12,0 5.62,0.703 7.5,2.113 1.87,1.407 3.24,3.282 4.1,5.625 0.86,2.34 1.41,4.684 1.64,7.028 0.23,2.347 0.34,5.234 0.34,8.672 0,4.535 -0.21,8.402 -0.63,11.601 -0.43,3.203 -1.6,6.039 -3.52,8.496 -1.92,2.461 -4.86,3.692 -8.85,3.692 -3.21,0 -5.86,-1.094 -7.96,-3.278 -2.11,-2.191 -3.64,-4.965 -4.58,-8.324 -0.94,-3.359 -1.4,-6.562 -1.4,-9.609 0,-1.094 0.03,-1.914 0.11,-2.461 0,-0.078 -0.02,-0.156 -0.05,-0.231 -0.04,-0.082 -0.06,-0.199 -0.06,-0.351 0,-3.442 0.35,-6.918 1.05,-10.434 0.7,-3.515 2.05,-6.484 4.04,-8.902 2,-2.426 4.75,-3.637 8.27,-3.637" /><path
         id="path68"
         style="fill:#262626;fill-opacity:1;fill-rule:nonzero;stroke:none"
         d="m 3015.66,183.484 c 0,4.766 1.59,9.004 4.75,12.715 3.16,3.707 7.24,6.774 12.24,9.192 l -4.44,2.933 c -2.74,1.797 -4.97,4.18 -6.69,7.149 -1.72,2.968 -2.58,6.093 -2.58,9.375 0,3.828 1,7.289 2.99,10.371 2,3.086 4.67,5.508 8.03,7.269 3.36,1.754 6.92,2.633 10.67,2.633 3.59,0 7.03,-0.723 10.31,-2.168 3.28,-1.445 5.99,-3.515 8.14,-6.211 2.15,-2.695 3.23,-5.879 3.23,-9.547 0,-2.734 -0.65,-5.254 -1.94,-7.558 -1.29,-2.309 -3.03,-4.375 -5.22,-6.211 -2.18,-1.836 -4.52,-3.379 -7.02,-4.629 l 6.79,-4.453 c 3.21,-2.031 5.76,-4.727 7.68,-8.086 1.91,-3.36 2.86,-6.914 2.86,-10.664 0,-4.301 -1.14,-8.231 -3.44,-11.785 -2.31,-3.547 -5.38,-6.321 -9.21,-8.317 -3.83,-1.988 -7.89,-2.984 -12.18,-2.984 -4.15,0 -8.13,0.855 -11.96,2.57 -3.83,1.723 -6.95,4.164 -9.37,7.328 -2.42,3.168 -3.64,6.86 -3.64,11.078 z m 6.57,0 c 0,-3.203 0.86,-6.117 2.58,-8.738 1.71,-2.613 4,-4.664 6.85,-6.148 2.85,-1.485 5.84,-2.227 8.97,-2.227 4.68,0 8.92,1.367 12.71,4.102 3.79,2.734 5.68,6.328 5.68,10.785 0,1.558 -0.31,3.082 -0.93,4.566 -0.63,1.485 -1.47,2.852 -2.52,4.102 -1.06,1.25 -2.25,2.265 -3.57,3.047 l -16.18,10.433 c -2.5,-1.332 -4.79,-3.011 -6.86,-5.043 -2.07,-2.027 -3.71,-4.312 -4.92,-6.851 -1.21,-2.543 -1.81,-5.215 -1.81,-8.028 z m 8.2,36.563 14.53,-9.375 c 3.36,1.949 6.11,4.312 8.27,7.09 2.14,2.773 3.21,5.918 3.21,9.433 0,2.657 -0.74,5.114 -2.23,7.379 -1.48,2.266 -3.43,4.024 -5.85,5.274 -2.42,1.25 -5.04,1.875 -7.86,1.875 -2.41,0 -4.86,-0.469 -7.32,-1.403 -2.45,-0.941 -4.49,-2.347 -6.09,-4.222 -1.6,-1.875 -2.4,-4.063 -2.4,-6.563 0,-3.75 1.91,-6.914 5.74,-9.488" /><path
         id="path70"
         style="fill:#262626;fill-opacity:1;fill-rule:nonzero;stroke:none"
         d="m 3549.25,165.199 v 4.223 c 10,0 15,1.289 15,3.863 v 62.934 c -4.14,-1.957 -9.37,-2.934 -15.69,-2.934 v 4.223 c 9.84,0 17.26,2.539 22.26,7.613 h 1.64 c 0.31,0 0.59,-0.098 0.82,-0.293 0.23,-0.195 0.35,-0.449 0.35,-0.758 v -70.785 c 0,-2.574 5,-3.863 15,-3.863 v -4.223 h -39.38" /><path
         id="path72"
         style="fill:#262626;fill-opacity:1;fill-rule:nonzero;stroke:none"
         d="m 3628.13,162.508 c -9.77,0 -16.43,4.043 -19.99,12.129 -3.55,8.082 -5.33,17.711 -5.33,28.879 0,6.957 0.65,13.5 1.94,19.636 1.29,6.129 3.81,11.325 7.56,15.586 3.75,4.254 9.02,6.383 15.82,6.383 5.31,0 9.64,-1.289 13,-3.863 3.36,-2.582 5.92,-5.899 7.68,-9.961 1.76,-4.063 2.94,-8.438 3.57,-13.125 0.62,-4.688 0.94,-9.574 0.94,-14.656 0,-6.875 -0.63,-13.317 -1.88,-19.332 -1.25,-6.016 -3.73,-11.133 -7.44,-15.356 -3.71,-4.215 -9,-6.32 -15.87,-6.32 z m 0,3.164 c 4.45,0 7.77,2.285 9.96,6.855 2.18,4.571 3.53,9.629 4.04,15.172 0.51,5.547 0.76,11.442 0.76,17.692 0,6.023 -0.25,11.57 -0.76,16.644 -0.51,5.078 -1.83,9.692 -3.99,13.828 -2.14,4.141 -5.48,6.211 -10.01,6.211 -4.54,0 -7.9,-2.07 -10.08,-6.211 -2.19,-4.136 -3.54,-8.75 -4.05,-13.828 -0.5,-5.074 -0.75,-10.621 -0.75,-16.644 0,-4.45 0.11,-8.645 0.35,-12.59 0.23,-3.946 0.81,-8.008 1.75,-12.188 0.94,-4.179 2.44,-7.715 4.51,-10.605 2.07,-2.891 4.83,-4.336 8.27,-4.336" /><path
         id="path74"
         style="fill:#262626;fill-opacity:1;fill-rule:nonzero;stroke:none"
         d="m 2036.13,6.00391 c 1.64,-1.33203 4.02,-1.9961 7.14,-1.9961 2.97,0 5.59,1.42578 7.86,4.28125 2.26,2.85154 3.78,5.99224 4.57,9.42974 l 6.56,25.1992 c 1.02,4.6093 1.53,7.7343 1.53,9.375 0,2.4179 -0.67,4.5078 -2,6.2695 -1.33,1.7539 -3.16,2.6328 -5.5,2.6328 -3.05,0 -5.91,-0.9375 -8.56,-2.8125 -2.66,-1.875 -4.88,-4.2578 -6.68,-7.1484 -1.8,-2.8906 -3.05,-5.8203 -3.75,-8.7891 -0.24,-0.625 -0.63,-0.9375 -1.17,-0.9375 h -1.76 c -0.7,0 -1.06,0.4297 -1.06,1.2891 v 0.4726 c 0.94,3.5157 2.53,6.9532 4.75,10.3125 2.23,3.3594 4.94,6.0743 8.15,8.1446 3.2,2.0703 6.63,3.1054 10.31,3.1054 3.52,0 6.66,-0.9179 9.43,-2.75 2.77,-1.8437 4.75,-4.3632 5.92,-7.5625 1.64,2.8907 3.73,5.3321 6.27,7.3203 2.54,1.9961 5.29,2.9922 8.26,2.9922 2.03,0 4.12,-0.3515 6.27,-1.0586 2.15,-0.7031 3.88,-1.7968 5.21,-3.2773 1.33,-1.4844 2,-3.3594 2,-5.625 0,-2.3438 -0.77,-4.3945 -2.29,-6.1563 -1.52,-1.7539 -3.49,-2.6328 -5.92,-2.6328 -1.56,0 -2.85,0.4883 -3.86,1.4649 -1.02,0.9726 -1.52,2.2031 -1.52,3.6875 0,2.0312 0.68,3.789 2.05,5.2734 1.36,1.4844 2.98,2.3867 4.86,2.6992 -1.65,1.3243 -3.99,1.9883 -7.03,1.9883 -3.05,0 -5.71,-1.4258 -7.97,-4.2734 -2.27,-2.8516 -3.87,-5.9961 -4.81,-9.4375 l -6.21,-25.1914 c -1.01,-3.8321 -1.52,-6.9571 -1.52,-9.375 0,-2.4258 0.68,-4.51566 2.05,-6.26956 1.36,-1.76172 3.18,-2.64063 5.45,-2.64063 4.45,0 8.43,1.97266 11.95,5.91797 3.52,3.94532 5.82,8.26172 6.91,12.95312 0.16,0.543 0.51,0.8164 1.06,0.8164 h 1.76 c 0.39,0 0.7,-0.1367 0.93,-0.4062 0.24,-0.2735 0.36,-0.5703 0.36,-0.8828 0,-0.0743 -0.04,-0.1915 -0.12,-0.3477 -1.41,-5.7031 -4.26,-10.7617 -8.55,-15.17969 -4.3,-4.41407 -9.15,-6.621097 -14.54,-6.621097 -3.51,0 -6.68,0.937497 -9.49,2.812497 -2.81,1.875 -4.8,4.41407 -5.97,7.62109 -1.49,-2.73437 -3.54,-5.16015 -6.16,-7.26952 -2.61,-2.10938 -5.41,-3.164067 -8.38,-3.164067 -2.03,0 -4.12,0.371093 -6.27,1.117187 -2.14,0.73828 -3.9,1.85156 -5.27,3.33594 -1.36,1.48828 -2.05,3.36328 -2.05,5.62496 0,2.1914 0.78,4.2032 2.34,6.0391 1.57,1.8359 3.52,2.7539 5.87,2.7539 1.56,0 2.86,-0.4726 3.92,-1.4101 1.06,-0.9375 1.58,-2.1875 1.58,-3.75 0,-1.9493 -0.64,-3.668 -1.93,-5.15239 -1.29,-1.48438 -2.95,-2.42188 -4.98,-2.8125" /><path
         id="path76"
         style="fill:none;stroke:#262626;stroke-width:5.00250006;stroke-linecap:square;stroke-linejoin:round;stroke-miterlimit:10;stroke-dasharray:none;stroke-opacity:1"
         d="M 392.5,310 V 2575" /><path
         id="path78"
         style="fill:none;stroke:#262626;stroke-width:5.00250006;stroke-linecap:square;stroke-linejoin:round;stroke-miterlimit:10;stroke-dasharray:none;stroke-opacity:1"
         d="m 392.5,310 h 33.449" /><path
         id="path80"
         style="fill:none;stroke:#262626;stroke-width:5.00250006;stroke-linecap:square;stroke-linejoin:round;stroke-miterlimit:10;stroke-dasharray:none;stroke-opacity:1"
         d="m 392.5,687.496 h 33.449" /><path
         id="path82"
         style="fill:none;stroke:#262626;stroke-width:5.00250006;stroke-linecap:square;stroke-linejoin:round;stroke-miterlimit:10;stroke-dasharray:none;stroke-opacity:1"
         d="m 392.5,1065 h 33.449" /><path
         id="path84"
         style="fill:none;stroke:#262626;stroke-width:5.00250006;stroke-linecap:square;stroke-linejoin:round;stroke-miterlimit:10;stroke-dasharray:none;stroke-opacity:1"
         d="m 392.5,1442.5 h 33.449" /><path
         id="path86"
         style="fill:none;stroke:#262626;stroke-width:5.00250006;stroke-linecap:square;stroke-linejoin:round;stroke-miterlimit:10;stroke-dasharray:none;stroke-opacity:1"
         d="m 392.5,1820 h 33.449" /><path
         id="path88"
         style="fill:none;stroke:#262626;stroke-width:5.00250006;stroke-linecap:square;stroke-linejoin:round;stroke-miterlimit:10;stroke-dasharray:none;stroke-opacity:1"
         d="m 392.5,2197.5 h 33.449" /><path
         id="path90"
         style="fill:none;stroke:#262626;stroke-width:5.00250006;stroke-linecap:square;stroke-linejoin:round;stroke-miterlimit:10;stroke-dasharray:none;stroke-opacity:1"
         d="m 392.5,2575 h 33.449" /><path
         id="path92"
         style="fill:#262626;fill-opacity:1;fill-rule:nonzero;stroke:none"
         d="m 318.5,278.508 c -9.766,0 -16.426,4.043 -19.98,12.129 -3.555,8.082 -5.332,17.711 -5.332,28.879 0,6.957 0.644,13.5 1.933,19.636 1.293,6.129 3.813,11.325 7.563,15.586 3.75,4.254 9.019,6.383 15.816,6.383 5.309,0 9.645,-1.289 13.004,-3.863 3.359,-2.582 5.922,-5.899 7.68,-9.961 1.757,-4.063 2.945,-8.438 3.57,-13.125 0.625,-4.688 0.937,-9.574 0.937,-14.656 0,-6.875 -0.625,-13.317 -1.875,-19.332 -1.25,-6.016 -3.73,-11.133 -7.437,-15.356 -3.711,-4.215 -9.004,-6.32 -15.879,-6.32 z m 0,3.164 c 4.453,0 7.773,2.285 9.961,6.855 2.187,4.571 3.535,9.629 4.043,15.172 0.508,5.547 0.762,11.442 0.762,17.692 0,6.023 -0.254,11.57 -0.762,16.644 -0.508,5.078 -1.832,9.692 -3.984,13.828 -2.149,4.141 -5.489,6.211 -10.02,6.211 -4.531,0 -7.891,-2.07 -10.078,-6.211 -2.188,-4.136 -3.535,-8.75 -4.043,-13.828 -0.508,-5.074 -0.758,-10.621 -0.758,-16.644 0,-4.45 0.113,-8.645 0.344,-12.59 0.234,-3.946 0.824,-8.008 1.762,-12.188 0.937,-4.179 2.437,-7.715 4.507,-10.605 2.071,-2.891 4.825,-4.336 8.266,-4.336" /><path
         id="path94"
         style="fill:#262626;fill-opacity:1;fill-rule:nonzero;stroke:none"
         d="m 225.164,656.008 c -9.766,0 -16.426,4.043 -19.98,12.129 -3.555,8.082 -5.332,17.711 -5.332,28.883 0,6.953 0.644,13.5 1.933,19.632 1.289,6.129 3.809,11.325 7.559,15.586 3.75,4.254 9.023,6.383 15.82,6.383 5.313,0 9.652,-1.289 13.012,-3.863 3.359,-2.582 5.918,-5.899 7.672,-9.961 1.761,-4.063 2.953,-8.438 3.578,-13.125 0.625,-4.688 0.937,-9.574 0.937,-14.652 0,-6.875 -0.625,-13.321 -1.875,-19.336 -1.25,-6.016 -3.73,-11.133 -7.441,-15.352 -3.715,-4.219 -9.008,-6.324 -15.883,-6.324 z m 0,3.164 c 4.453,0 7.777,2.285 9.965,6.855 2.187,4.571 3.535,9.629 4.043,15.172 0.504,5.547 0.758,11.446 0.758,17.696 0,6.019 -0.254,11.566 -0.758,16.64 -0.508,5.078 -1.84,9.692 -3.988,13.828 -2.145,4.141 -5.485,6.211 -10.02,6.211 -4.531,0 -7.891,-2.07 -10.074,-6.211 -2.192,-4.136 -3.539,-8.75 -4.043,-13.828 -0.508,-5.074 -0.766,-10.621 -0.766,-16.64 0,-4.454 0.117,-8.649 0.356,-12.594 0.234,-3.946 0.816,-8.008 1.754,-12.188 0.937,-4.179 2.445,-7.715 4.515,-10.605 2.071,-2.891 4.821,-4.336 8.258,-4.336" /><path
         id="path96"
         style="fill:#262626;fill-opacity:1;fill-rule:nonzero;stroke:none"
         d="m 265.242,665.383 c 0,1.793 0.664,3.336 1.996,4.629 1.328,1.289 2.891,1.933 4.688,1.933 1.094,0 2.168,-0.297 3.222,-0.886 1.055,-0.582 1.875,-1.403 2.461,-2.457 0.586,-1.055 0.879,-2.129 0.879,-3.219 0,-1.801 -0.644,-3.363 -1.937,-4.688 -1.289,-1.332 -2.832,-1.996 -4.625,-1.996 -1.797,0 -3.36,0.664 -4.688,1.996 -1.332,1.325 -1.996,2.887 -1.996,4.688" /><path
         id="path98"
         style="fill:#262626;fill-opacity:1;fill-rule:nonzero;stroke:none"
         d="m 299.629,658.699 v 4.223 c 10,0 15,1.289 15,3.863 v 62.934 c -4.141,-1.957 -9.371,-2.934 -15.695,-2.934 v 4.223 c 9.839,0 17.257,2.539 22.257,7.613 h 1.645 c 0.312,0 0.586,-0.098 0.816,-0.293 0.235,-0.195 0.352,-0.449 0.352,-0.758 v -70.785 c 0,-2.574 5,-3.863 15,-3.863 v -4.223 h -39.375" /><path
         id="path100"
         style="fill:#262626;fill-opacity:1;fill-rule:nonzero;stroke:none"
         d="m 225.164,1033.51 c -9.766,0 -16.426,4.04 -19.98,12.13 -3.555,8.08 -5.332,17.71 -5.332,28.88 0,6.95 0.644,13.5 1.933,19.63 1.289,6.13 3.809,11.33 7.559,15.59 3.75,4.25 9.023,6.38 15.82,6.38 5.313,0 9.652,-1.29 13.012,-3.86 3.359,-2.58 5.918,-5.9 7.672,-9.96 1.761,-4.07 2.953,-8.44 3.578,-13.13 0.625,-4.69 0.937,-9.57 0.937,-14.65 0,-6.88 -0.625,-13.32 -1.875,-19.34 -1.25,-6.01 -3.73,-11.13 -7.441,-15.35 -3.715,-4.22 -9.008,-6.32 -15.883,-6.32 z m 0,3.16 c 4.453,0 7.777,2.29 9.965,6.86 2.187,4.57 3.535,9.63 4.043,15.17 0.504,5.55 0.758,11.44 0.758,17.69 0,6.02 -0.254,11.57 -0.758,16.65 -0.508,5.07 -1.84,9.69 -3.988,13.82 -2.145,4.14 -5.485,6.21 -10.02,6.21 -4.531,0 -7.891,-2.07 -10.074,-6.21 -2.192,-4.13 -3.539,-8.75 -4.043,-13.82 -0.508,-5.08 -0.766,-10.63 -0.766,-16.65 0,-4.45 0.117,-8.64 0.356,-12.59 0.234,-3.94 0.816,-8.01 1.754,-12.19 0.937,-4.18 2.445,-7.71 4.515,-10.6 2.071,-2.89 4.821,-4.34 8.258,-4.34" /><path
         id="path102"
         style="fill:#262626;fill-opacity:1;fill-rule:nonzero;stroke:none"
         d="m 265.242,1042.88 c 0,1.8 0.664,3.34 1.996,4.63 1.328,1.29 2.891,1.94 4.688,1.94 1.094,0 2.168,-0.3 3.222,-0.89 1.055,-0.58 1.875,-1.4 2.461,-2.46 0.586,-1.05 0.879,-2.13 0.879,-3.22 0,-1.8 -0.644,-3.36 -1.937,-4.68 -1.289,-1.34 -2.832,-2 -4.625,-2 -1.797,0 -3.36,0.66 -4.688,2 -1.332,1.32 -1.996,2.88 -1.996,4.68" /><path
         id="path104"
         style="fill:#262626;fill-opacity:1;fill-rule:nonzero;stroke:none"
         d="m 294.477,1036.2 v 3.28 c 0,0.16 0.078,0.36 0.234,0.59 l 18.629,20.63 c 2.816,3.04 5.101,5.6 6.863,7.67 1.754,2.07 3.492,4.45 5.211,7.15 1.723,2.69 3.09,5.44 4.102,8.26 1.015,2.81 1.523,5.78 1.523,8.9 0,3.29 -0.605,6.41 -1.812,9.38 -1.215,2.97 -3.036,5.35 -5.454,7.14 -2.421,1.8 -5.312,2.71 -8.671,2.71 -3.516,0 -6.661,-1.04 -9.434,-3.11 -2.777,-2.07 -4.707,-4.78 -5.797,-8.14 0.309,0.07 0.738,0.11 1.281,0.11 1.801,0 3.325,-0.61 4.575,-1.82 1.25,-1.21 1.875,-2.75 1.875,-4.63 0,-1.87 -0.625,-3.43 -1.875,-4.68 -1.25,-1.25 -2.774,-1.88 -4.575,-1.88 -1.875,0 -3.453,0.65 -4.738,1.94 -1.293,1.29 -1.937,2.83 -1.937,4.62 0,2.98 0.566,5.79 1.695,8.44 1.137,2.66 2.777,5 4.93,7.04 2.144,2.03 4.546,3.59 7.207,4.68 2.652,1.09 5.504,1.64 8.55,1.64 4.528,0 8.77,-0.96 12.719,-2.87 3.945,-1.91 7.07,-4.64 9.375,-8.2 2.301,-3.55 3.449,-7.68 3.449,-12.37 0,-3.51 -0.761,-6.83 -2.281,-9.96 -1.523,-3.12 -3.476,-5.95 -5.855,-8.49 -2.387,-2.54 -5.434,-5.43 -9.145,-8.68 -3.707,-3.23 -6.152,-5.4 -7.324,-6.5 l -13.594,-13.12 h 11.606 c 5.625,0 10.347,0.05 14.175,0.17 3.829,0.12 5.86,0.26 6.094,0.41 0.938,1.02 1.875,4.73 2.813,11.13 h 3.511 l -3.398,-21.44 h -44.527" /><path
         id="path106"
         style="fill:#262626;fill-opacity:1;fill-rule:nonzero;stroke:none"
         d="m 225.164,1411.01 c -9.766,0 -16.426,4.04 -19.98,12.13 -3.555,8.08 -5.332,17.71 -5.332,28.88 0,6.95 0.644,13.5 1.933,19.63 1.289,6.13 3.809,11.33 7.559,15.59 3.75,4.25 9.023,6.38 15.82,6.38 5.313,0 9.652,-1.29 13.012,-3.86 3.359,-2.58 5.918,-5.9 7.672,-9.96 1.761,-4.07 2.953,-8.44 3.578,-13.13 0.625,-4.69 0.937,-9.57 0.937,-14.65 0,-6.88 -0.625,-13.32 -1.875,-19.34 -1.25,-6.01 -3.73,-11.13 -7.441,-15.35 -3.715,-4.22 -9.008,-6.32 -15.883,-6.32 z m 0,3.16 c 4.453,0 7.777,2.29 9.965,6.86 2.187,4.57 3.535,9.63 4.043,15.17 0.504,5.55 0.758,11.44 0.758,17.69 0,6.02 -0.254,11.57 -0.758,16.65 -0.508,5.07 -1.84,9.69 -3.988,13.82 -2.145,4.14 -5.485,6.21 -10.02,6.21 -4.531,0 -7.891,-2.07 -10.074,-6.21 -2.192,-4.13 -3.539,-8.75 -4.043,-13.82 -0.508,-5.08 -0.766,-10.63 -0.766,-16.65 0,-4.45 0.117,-8.64 0.356,-12.59 0.234,-3.94 0.816,-8.01 1.754,-12.19 0.937,-4.18 2.445,-7.71 4.515,-10.6 2.071,-2.89 4.821,-4.34 8.258,-4.34" /><path
         id="path108"
         style="fill:#262626;fill-opacity:1;fill-rule:nonzero;stroke:none"
         d="m 265.242,1420.38 c 0,1.8 0.664,3.34 1.996,4.63 1.328,1.29 2.891,1.94 4.688,1.94 1.094,0 2.168,-0.3 3.222,-0.89 1.055,-0.58 1.875,-1.4 2.461,-2.46 0.586,-1.05 0.879,-2.13 0.879,-3.22 0,-1.8 -0.644,-3.36 -1.937,-4.68 -1.289,-1.34 -2.832,-2 -4.625,-2 -1.797,0 -3.36,0.66 -4.688,2 -1.332,1.32 -1.996,2.88 -1.996,4.68" /><path
         id="path110"
         style="fill:#262626;fill-opacity:1;fill-rule:nonzero;stroke:none"
         d="m 299.984,1422.95 c 1.875,-2.72 4.395,-4.75 7.559,-6.09 3.164,-1.32 6.543,-1.99 10.141,-1.99 4.683,0 8.004,1.99 9.957,5.98 1.953,3.98 2.925,8.47 2.925,13.47 0,2.27 -0.214,4.54 -0.644,6.8 -0.43,2.27 -1.133,4.38 -2.106,6.33 -0.976,1.96 -2.304,3.52 -3.984,4.69 -1.68,1.17 -3.769,1.75 -6.269,1.75 h -7.973 c -0.699,0 -1.051,0.4 -1.051,1.18 v 1.05 c 0,0.63 0.352,0.94 1.051,0.94 l 6.683,0.47 c 2.813,0 5.141,1.06 6.973,3.17 1.836,2.1 3.184,4.68 4.043,7.73 0.859,3.04 1.289,5.93 1.289,8.67 0,3.83 -0.898,6.97 -2.699,9.43 -1.793,2.46 -4.527,3.69 -8.195,3.69 -3.051,0 -5.961,-0.58 -8.731,-1.75 -2.777,-1.18 -4.984,-2.93 -6.625,-5.27 0.156,0.07 0.293,0.11 0.406,0.11 0.121,0 0.258,0 0.414,0 1.793,0 3.301,-0.63 4.516,-1.88 1.207,-1.25 1.813,-2.73 1.813,-4.45 0,-1.71 -0.606,-3.2 -1.813,-4.45 -1.215,-1.25 -2.723,-1.87 -4.516,-1.87 -1.722,0 -3.207,0.62 -4.457,1.87 -1.25,1.25 -1.875,2.74 -1.875,4.45 0,3.44 1.036,6.43 3.106,8.97 2.07,2.54 4.726,4.45 7.973,5.73 3.242,1.3 6.503,1.94 9.789,1.94 2.418,0 4.976,-0.35 7.671,-1.05 2.696,-0.71 5.137,-1.74 7.329,-3.11 2.183,-1.37 3.98,-3.1 5.382,-5.21 1.411,-2.11 2.118,-4.5 2.118,-7.15 0,-3.36 -0.762,-6.47 -2.289,-9.32 -1.524,-2.85 -3.594,-5.31 -6.211,-7.38 -2.618,-2.07 -5.493,-3.61 -8.618,-4.63 3.516,-0.7 6.836,-2.03 9.961,-3.98 3.125,-1.95 5.625,-4.45 7.5,-7.5 1.875,-3.05 2.813,-6.33 2.813,-9.84 0,-4.38 -1.211,-8.36 -3.629,-11.96 -2.422,-3.6 -5.602,-6.41 -9.547,-8.44 -3.945,-2.03 -8.105,-3.04 -12.48,-3.04 -3.75,0 -7.5,0.72 -11.25,2.17 -3.75,1.44 -6.84,3.59 -9.262,6.44 -2.422,2.85 -3.633,6.27 -3.633,10.25 0,2.04 0.664,3.72 1.988,5.04 1.332,1.33 3.012,2 5.039,2 1.25,0 2.422,-0.32 3.52,-0.94 1.094,-0.63 1.934,-1.49 2.519,-2.58 0.586,-1.1 0.879,-2.27 0.879,-3.52 0,-1.95 -0.683,-3.59 -2.05,-4.92 -1.368,-1.33 -2.993,-2 -4.868,-2 h -0.582" /><path
         id="path112"
         style="fill:#262626;fill-opacity:1;fill-rule:nonzero;stroke:none"
         d="m 225.164,1788.51 c -9.766,0 -16.426,4.04 -19.98,12.13 -3.555,8.08 -5.332,17.71 -5.332,28.88 0,6.95 0.644,13.5 1.933,19.63 1.289,6.13 3.809,11.33 7.559,15.59 3.75,4.25 9.023,6.38 15.82,6.38 5.313,0 9.652,-1.29 13.012,-3.86 3.359,-2.58 5.918,-5.9 7.672,-9.96 1.761,-4.07 2.953,-8.44 3.578,-13.13 0.625,-4.69 0.937,-9.57 0.937,-14.65 0,-6.88 -0.625,-13.32 -1.875,-19.34 -1.25,-6.01 -3.73,-11.13 -7.441,-15.35 -3.715,-4.22 -9.008,-6.32 -15.883,-6.32 z m 0,3.16 c 4.453,0 7.777,2.29 9.965,6.86 2.187,4.57 3.535,9.63 4.043,15.17 0.504,5.55 0.758,11.44 0.758,17.69 0,6.02 -0.254,11.57 -0.758,16.65 -0.508,5.07 -1.84,9.69 -3.988,13.82 -2.145,4.14 -5.485,6.21 -10.02,6.21 -4.531,0 -7.891,-2.07 -10.074,-6.21 -2.192,-4.13 -3.539,-8.75 -4.043,-13.82 -0.508,-5.08 -0.766,-10.63 -0.766,-16.65 0,-4.45 0.117,-8.64 0.356,-12.59 0.234,-3.94 0.816,-8.01 1.754,-12.19 0.937,-4.18 2.445,-7.71 4.515,-10.6 2.071,-2.89 4.821,-4.34 8.258,-4.34" /><path
         id="path114"
         style="fill:#262626;fill-opacity:1;fill-rule:nonzero;stroke:none"
         d="m 265.242,1797.88 c 0,1.8 0.664,3.34 1.996,4.63 1.328,1.29 2.891,1.94 4.688,1.94 1.094,0 2.168,-0.3 3.222,-0.89 1.055,-0.58 1.875,-1.4 2.461,-2.46 0.586,-1.05 0.879,-2.13 0.879,-3.22 0,-1.8 -0.644,-3.36 -1.937,-4.68 -1.289,-1.34 -2.832,-2 -4.625,-2 -1.797,0 -3.36,0.66 -4.688,2 -1.332,1.32 -1.996,2.88 -1.996,4.68" /><path
         id="path116"
         style="fill:#262626;fill-opacity:1;fill-rule:nonzero;stroke:none"
         d="m 291.898,1811.01 v 4.21 l 37.036,55.32 c 0.308,0.39 0.738,0.58 1.281,0.58 h 1.762 c 0.859,0 1.289,-0.43 1.289,-1.29 v -54.61 h 11.836 v -4.21 h -11.836 v -11.72 c 0,-1.65 1.172,-2.7 3.511,-3.17 2.344,-0.46 5.082,-0.7 8.207,-0.7 v -4.22 h -33.046 v 4.22 c 3.046,0 5.738,0.24 8.085,0.7 2.344,0.47 3.516,1.52 3.516,3.17 v 11.72 z m 3.981,4.21 h 28.367 v 42.54 z" /><path
         id="path118"
         style="fill:#262626;fill-opacity:1;fill-rule:nonzero;stroke:none"
         d="m 225.164,2166.01 c -9.766,0 -16.426,4.04 -19.98,12.13 -3.555,8.08 -5.332,17.71 -5.332,28.88 0,6.95 0.644,13.5 1.933,19.63 1.289,6.13 3.809,11.33 7.559,15.59 3.75,4.25 9.023,6.38 15.82,6.38 5.313,0 9.652,-1.29 13.012,-3.86 3.359,-2.58 5.918,-5.9 7.672,-9.96 1.761,-4.07 2.953,-8.44 3.578,-13.13 0.625,-4.69 0.937,-9.57 0.937,-14.65 0,-6.88 -0.625,-13.32 -1.875,-19.34 -1.25,-6.01 -3.73,-11.13 -7.441,-15.35 -3.715,-4.22 -9.008,-6.32 -15.883,-6.32 z m 0,3.16 c 4.453,0 7.777,2.29 9.965,6.86 2.187,4.57 3.535,9.63 4.043,15.17 0.504,5.55 0.758,11.44 0.758,17.69 0,6.02 -0.254,11.57 -0.758,16.65 -0.508,5.07 -1.84,9.69 -3.988,13.82 -2.145,4.14 -5.485,6.21 -10.02,6.21 -4.531,0 -7.891,-2.07 -10.074,-6.21 -2.192,-4.13 -3.539,-8.75 -4.043,-13.82 -0.508,-5.08 -0.766,-10.63 -0.766,-16.65 0,-4.45 0.117,-8.64 0.356,-12.59 0.234,-3.94 0.816,-8.01 1.754,-12.19 0.937,-4.18 2.445,-7.71 4.515,-10.6 2.071,-2.89 4.821,-4.34 8.258,-4.34" /><path
         id="path120"
         style="fill:#262626;fill-opacity:1;fill-rule:nonzero;stroke:none"
         d="m 265.242,2175.38 c 0,1.8 0.664,3.34 1.996,4.63 1.328,1.29 2.891,1.94 4.688,1.94 1.094,0 2.168,-0.3 3.222,-0.89 1.055,-0.58 1.875,-1.4 2.461,-2.46 0.586,-1.05 0.879,-2.13 0.879,-3.22 0,-1.8 -0.644,-3.36 -1.937,-4.68 -1.289,-1.34 -2.832,-2 -4.625,-2 -1.797,0 -3.36,0.66 -4.688,2 -1.332,1.32 -1.996,2.88 -1.996,4.68" /><path
         id="path122"
         style="fill:#262626;fill-opacity:1;fill-rule:nonzero;stroke:none"
         d="m 298.934,2182.41 c 0.855,-2.34 2.121,-4.47 3.8,-6.38 1.68,-1.92 3.692,-3.42 6.039,-4.52 2.344,-1.09 4.766,-1.64 7.266,-1.64 5.781,0 9.766,2.25 11.957,6.74 2.184,4.49 3.277,9.94 3.277,16.35 0,2.81 -0.058,5.15 -0.171,7.03 -0.122,1.87 -0.375,3.71 -0.766,5.51 -0.781,2.81 -2.09,5.27 -3.922,7.38 -1.84,2.11 -4.125,3.17 -6.855,3.17 -2.661,0 -4.965,-0.41 -6.918,-1.24 -1.953,-0.82 -3.536,-1.77 -4.746,-2.86 -1.211,-1.1 -2.286,-2.25 -3.223,-3.46 -0.938,-1.21 -1.524,-1.86 -1.758,-1.94 h -1.289 c -0.234,0 -0.488,0.12 -0.766,0.36 -0.269,0.23 -0.406,0.47 -0.406,0.7 v 40.07 c 0,0.24 0.121,0.45 0.356,0.65 0.23,0.19 0.5,0.29 0.816,0.29 h 0.352 c 5.39,-2.57 11.093,-3.86 17.109,-3.86 5.937,0 11.68,1.29 17.227,3.86 h 0.351 c 0.234,0 0.473,-0.1 0.707,-0.29 0.231,-0.2 0.344,-0.41 0.344,-0.65 v -1.05 c 0,-0.39 -0.078,-0.58 -0.231,-0.58 -2.738,-3.68 -6.156,-6.53 -10.254,-8.56 -4.101,-2.03 -8.378,-3.04 -12.832,-3.04 -3.207,0 -6.484,0.46 -9.839,1.4 v -22.74 c 2.652,2.19 5.035,3.73 7.144,4.63 2.113,0.9 4.766,1.35 7.969,1.35 4.453,0 8.418,-1.27 11.894,-3.81 3.473,-2.54 6.149,-5.84 8.024,-9.9 1.875,-4.06 2.812,-8.24 2.812,-12.54 0,-4.76 -1.168,-9.2 -3.511,-13.3 -2.344,-4.1 -5.547,-7.38 -9.614,-9.84 -4.058,-2.46 -8.472,-3.69 -13.238,-3.69 -3.984,0 -7.617,1.03 -10.898,3.1 -3.282,2.07 -5.879,4.82 -7.789,8.26 -1.918,3.44 -2.875,7.07 -2.875,10.9 0,1.8 0.586,3.26 1.757,4.39 1.172,1.14 2.657,1.7 4.454,1.7 1.718,0 3.183,-0.56 4.394,-1.7 1.211,-1.13 1.816,-2.59 1.816,-4.39 0,-1.72 -0.605,-3.16 -1.816,-4.34 -1.211,-1.17 -2.676,-1.75 -4.394,-1.75 -0.317,0 -0.649,0.02 -0.997,0.06 -0.351,0.04 -0.605,0.1 -0.757,0.17" /><path
         id="path124"
         style="fill:#262626;fill-opacity:1;fill-rule:nonzero;stroke:none"
         d="m 225.164,2543.51 c -9.766,0 -16.426,4.04 -19.98,12.13 -3.555,8.08 -5.332,17.71 -5.332,28.88 0,6.95 0.644,13.5 1.933,19.63 1.289,6.13 3.809,11.33 7.559,15.59 3.75,4.25 9.023,6.38 15.82,6.38 5.313,0 9.652,-1.29 13.012,-3.86 3.359,-2.58 5.918,-5.9 7.672,-9.96 1.761,-4.07 2.953,-8.44 3.578,-13.13 0.625,-4.69 0.937,-9.57 0.937,-14.65 0,-6.88 -0.625,-13.32 -1.875,-19.34 -1.25,-6.01 -3.73,-11.13 -7.441,-15.35 -3.715,-4.22 -9.008,-6.32 -15.883,-6.32 z m 0,3.16 c 4.453,0 7.777,2.29 9.965,6.86 2.187,4.57 3.535,9.63 4.043,15.17 0.504,5.55 0.758,11.44 0.758,17.69 0,6.02 -0.254,11.57 -0.758,16.65 -0.508,5.07 -1.84,9.69 -3.988,13.82 -2.145,4.14 -5.485,6.21 -10.02,6.21 -4.531,0 -7.891,-2.07 -10.074,-6.21 -2.192,-4.13 -3.539,-8.75 -4.043,-13.82 -0.508,-5.08 -0.766,-10.63 -0.766,-16.65 0,-4.45 0.117,-8.64 0.356,-12.59 0.234,-3.94 0.816,-8.01 1.754,-12.19 0.937,-4.18 2.445,-7.71 4.515,-10.6 2.071,-2.89 4.821,-4.34 8.258,-4.34" /><path
         id="path126"
         style="fill:#262626;fill-opacity:1;fill-rule:nonzero;stroke:none"
         d="m 265.242,2552.88 c 0,1.8 0.664,3.34 1.996,4.63 1.328,1.29 2.891,1.94 4.688,1.94 1.094,0 2.168,-0.3 3.222,-0.89 1.055,-0.58 1.875,-1.4 2.461,-2.46 0.586,-1.05 0.879,-2.13 0.879,-3.22 0,-1.8 -0.644,-3.36 -1.937,-4.68 -1.289,-1.34 -2.832,-2 -4.625,-2 -1.797,0 -3.36,0.66 -4.688,2 -1.332,1.32 -1.996,2.88 -1.996,4.68" /><path
         id="path128"
         style="fill:#262626;fill-opacity:1;fill-rule:nonzero;stroke:none"
         d="m 318.5,2543.51 c -4.922,0 -9.039,1.33 -12.359,3.98 -3.325,2.65 -5.907,6.09 -7.743,10.31 -1.832,4.22 -3.101,8.64 -3.808,13.25 -0.699,4.6 -1.051,9.25 -1.051,13.94 0,6.33 1.231,12.68 3.691,19.04 2.461,6.37 6.094,11.64 10.899,15.82 4.805,4.18 10.488,6.27 17.055,6.27 2.73,0 5.265,-0.51 7.613,-1.52 2.344,-1.02 4.199,-2.54 5.562,-4.57 1.371,-2.03 2.055,-4.45 2.055,-7.27 0,-1.64 -0.566,-3.03 -1.703,-4.16 -1.129,-1.13 -2.512,-1.69 -4.152,-1.69 -1.567,0 -2.914,0.56 -4.043,1.69 -1.137,1.13 -1.703,2.52 -1.703,4.16 0,1.57 0.566,2.92 1.703,4.04 1.129,1.14 2.476,1.71 4.043,1.71 h 0.695 c -1.016,1.4 -2.457,2.46 -4.332,3.16 -1.875,0.7 -3.789,1.05 -5.738,1.05 -2.426,0 -4.672,-0.52 -6.743,-1.58 -2.07,-1.05 -3.925,-2.48 -5.566,-4.28 -1.641,-1.79 -3.008,-3.78 -4.102,-5.97 -1.097,-2.19 -1.937,-4.67 -2.519,-7.44 -0.586,-2.78 -0.957,-5.38 -1.113,-7.79 -0.157,-2.43 -0.239,-5.48 -0.239,-9.15 1.411,3.28 3.403,5.98 5.977,8.09 2.582,2.11 5.473,3.16 8.68,3.16 3.589,0 6.847,-0.72 9.777,-2.17 2.93,-1.44 5.453,-3.45 7.562,-6.03 2.11,-2.58 3.711,-5.51 4.805,-8.79 1.094,-3.28 1.637,-6.6 1.637,-9.96 0,-4.69 -1.035,-9.14 -3.106,-13.36 -2.07,-4.22 -4.996,-7.6 -8.781,-10.14 -3.789,-2.54 -8.109,-3.8 -12.953,-3.8 z m 0,3.86 c 3.125,0 5.625,0.7 7.5,2.11 1.875,1.41 3.242,3.29 4.102,5.63 0.859,2.34 1.41,4.68 1.644,7.03 0.231,2.34 0.344,5.23 0.344,8.67 0,4.53 -0.211,8.4 -0.637,11.6 -0.43,3.2 -1.601,6.04 -3.519,8.5 -1.914,2.46 -4.864,3.69 -8.848,3.69 -3.207,0 -5.859,-1.1 -7.965,-3.28 -2.109,-2.19 -3.637,-4.96 -4.574,-8.32 -0.938,-3.36 -1.406,-6.57 -1.406,-9.61 0,-1.1 0.039,-1.92 0.113,-2.46 0,-0.08 -0.016,-0.16 -0.051,-0.23 -0.039,-0.09 -0.062,-0.2 -0.062,-0.36 0,-3.44 0.351,-6.91 1.05,-10.43 0.707,-3.52 2.055,-6.48 4.043,-8.9 1.996,-2.43 4.75,-3.64 8.266,-3.64" /><path
         id="path130"
         style="fill:#262626;fill-opacity:1;fill-rule:nonzero;stroke:none"
         d="M 142.418,1264.86 H 137.5 c 0,3.28 -0.293,5.95 -0.879,8.02 -0.586,2.07 -1.855,3.1 -3.808,3.1 H 64.1406 c -2.5781,0 -4.2031,-0.91 -4.8672,-2.75 -0.6601,-1.83 -0.9882,-4.62 -0.9882,-8.37 h -4.9297 l -1.5235,21.09 h 8.793 c -2.8906,2.65 -5.0781,5.7 -6.5625,9.14 -1.4844,3.43 -2.2305,7.11 -2.2305,11.02 0,5.62 1.5078,10.68 4.5157,15.17 3.0078,4.49 6.9921,8.01 11.957,10.54 4.9609,2.54 10.2109,3.81 15.7578,3.81 5.7031,0 11.0352,-1.4 15.9965,-4.21 4.961,-2.81 8.925,-6.65 11.894,-11.49 2.969,-4.84 4.457,-10.15 4.457,-15.94 0,-6.95 -2.812,-12.81 -8.437,-17.57 h 24.84 c 1.953,0 3.222,1.05 3.808,3.15 0.586,2.12 0.879,4.77 0.879,7.98 h 4.918 z m -41.48,21.56 c 3.359,1.64 6.152,3.94 8.375,6.9 2.23,2.98 3.347,6.22 3.347,9.73 0,3.36 -0.902,6.29 -2.703,8.79 -1.793,2.5 -4.176,4.61 -7.144,6.33 -2.9732,1.72 -6.0786,2.99 -9.3169,3.81 -3.2383,0.82 -6.3867,1.23 -9.4336,1.23 -3.8281,0 -7.9648,-0.68 -12.4219,-2.05 -4.4531,-1.37 -8.1836,-3.46 -11.1875,-6.27 -3.0117,-2.81 -4.5156,-6.21 -4.5156,-10.19 0,-3.83 0.9766,-7.37 2.9297,-10.61 1.9531,-3.24 4.6055,-5.8 7.9648,-7.67 h 34.106" /><path
         id="path132"
         style="fill:#262626;fill-opacity:1;fill-rule:nonzero;stroke:none"
         d="m 135.766,1342.51 c 0,-0.62 -0.43,-0.94 -1.289,-0.94 -0.157,0 -0.45,0.06 -0.879,0.18 -0.43,0.12 -0.743,0.26 -0.938,0.42 -0.195,0.15 -0.293,0.38 -0.293,0.69 0,5.94 -2.226,11.02 -6.679,15.25 -0.079,0.07 -0.114,0.15 -0.114,0.23 0,0.07 0,0.11 0,0.11 l -23.094,21.33 -27.8823,-11.6 c -0.8633,-0.7 -1.4102,-1.8 -1.6446,-3.28 -0.2343,-1.49 -0.3515,-3.24 -0.3515,-5.27 0,-0.63 -0.4297,-0.94 -1.2891,-0.94 -0.8594,0.23 -1.4258,0.41 -1.6953,0.52 -0.2774,0.12 -0.4141,0.49 -0.4141,1.11 v 24.38 c 0,0.7 0.4297,1.06 1.2891,1.06 0.1562,-0.08 0.4297,-0.18 0.8203,-0.3 0.3906,-0.11 0.7031,-0.25 0.9375,-0.41 0.2344,-0.16 0.3516,-0.39 0.3516,-0.69 0,-1.25 0.1953,-2.53 0.5859,-3.82 0.3906,-1.29 1.0156,-2.16 1.875,-2.64 l 20.2695,8.33 -17.2265,16.05 c -0.1524,0.08 -0.5235,0.29 -1.1094,0.64 -0.5859,0.35 -1.1133,0.53 -1.582,0.53 -0.9336,0 -1.6368,-0.41 -2.1094,-1.23 -0.4688,-0.82 -0.7031,-1.82 -0.7031,-2.99 0,-0.62 -0.4297,-0.93 -1.2891,-0.93 -0.8594,0.23 -1.4258,0.41 -1.6953,0.52 -0.2774,0.12 -0.4141,0.49 -0.4141,1.12 v 21.09 c 0,0.39 0.1172,0.67 0.3516,0.83 0.2383,0.15 0.5508,0.23 0.9375,0.23 0.1562,0 0.4101,-0.06 0.7578,-0.18 0.3555,-0.12 0.668,-0.25 0.9375,-0.41 0.2773,-0.16 0.4141,-0.39 0.4141,-0.7 0,-3.05 0.5468,-5.82 1.6406,-8.32 1.0976,-2.5 2.7383,-4.81 4.9219,-6.92 0.0781,-0.08 0.1211,-0.14 0.1211,-0.18 0,-0.04 0.0351,-0.09 0.1093,-0.17 l 18.9922,-17.7 31.9883,13.37 c 1.328,1.08 1.992,3.94 1.992,8.55 0,0.62 0.43,0.93 1.293,0.93 0.86,-0.23 1.422,-0.43 1.695,-0.58 0.274,-0.15 0.411,-0.51 0.411,-1.05 v -24.37 c 0,-0.63 -0.43,-0.94 -1.289,-0.94 -0.157,0 -0.43,0.03 -0.817,0.11 -0.39,0.08 -0.703,0.22 -0.937,0.41 -0.239,0.2 -0.356,0.41 -0.356,0.65 0,1.25 -0.195,2.54 -0.582,3.86 -0.39,1.33 -1.055,2.23 -1.996,2.7 l -24.254,-10.08 21.32,-19.69 c 0.161,-0.15 0.512,-0.41 1.059,-0.76 0.543,-0.35 1.094,-0.53 1.641,-0.53 0.937,0 1.64,0.45 2.109,1.35 0.469,0.9 0.703,1.86 0.703,2.87 0,0.7 0.43,1.05 1.293,1.05 0.86,-0.23 1.422,-0.41 1.695,-0.52 0.274,-0.12 0.411,-0.53 0.411,-1.23 v -21.1" /><path
         id="path134"
         style="fill:#262626;fill-opacity:1;fill-rule:nonzero;stroke:none"
         d="m 150.16,1479.05 c -4.222,-5.3 -9.027,-9.87 -14.418,-13.7 -5.387,-3.83 -11.152,-6.96 -17.285,-9.38 -6.129,-2.42 -12.535,-4.24 -19.2148,-5.44 -6.6797,-1.22 -13.3828,-1.83 -20.1016,-1.83 -6.7929,0 -13.5312,0.61 -20.2109,1.83 -6.6797,1.2 -13.1094,3.06 -19.2852,5.56 -6.1679,2.5 -11.9492,5.66 -17.3398,9.49 -5.3867,3.83 -10.1172,8.32 -14.1797,13.47 -0.15625,0 -0.23437,0.24 -0.23437,0.71 v 1.29 c 0,0.31 0.13671,0.58 0.41406,0.82 0.26953,0.24 0.5625,0.35 0.875,0.35 0.39062,0 0.66406,-0.11 0.82031,-0.35 4.6094,-4.61 9.5117,-8.46 14.707,-11.55 5.1953,-3.08 10.7227,-5.56 16.5821,-7.43 5.8593,-1.88 11.9336,-3.23 18.2265,-4.05 6.2891,-0.82 12.8321,-1.23 19.625,-1.23 30.2344,0 53.1644,8.05 68.7894,24.15 0.312,0.31 0.703,0.46 1.172,0.46 0.234,0 0.507,-0.13 0.816,-0.4 0.316,-0.28 0.473,-0.53 0.473,-0.77 v -1.29 c 0,-0.47 -0.078,-0.71 -0.231,-0.71" /><path
         id="path136"
         style="fill:#262626;fill-opacity:1;fill-rule:nonzero;stroke:none"
         d="m 110.664,1500.45 c 1.328,1.64 1.996,4.03 1.996,7.15 0,2.97 -1.43,5.59 -4.285,7.85 -2.848,2.27 -5.992,3.79 -9.4258,4.58 l -25.1992,6.56 c -4.6094,1.02 -7.7344,1.52 -9.375,1.52 -2.4219,0 -4.5117,-0.66 -6.2695,-1.99 -1.7578,-1.33 -2.6328,-3.16 -2.6328,-5.51 0,-3.05 0.9375,-5.9 2.8125,-8.56 1.875,-2.65 4.2578,-4.87 7.1445,-6.67 2.8906,-1.8 5.8203,-3.05 8.793,-3.75 0.625,-0.24 0.9375,-0.63 0.9375,-1.18 v -1.75 c 0,-0.71 -0.4297,-1.06 -1.293,-1.06 h -0.4727 c -3.5117,0.94 -6.9492,2.52 -10.3125,4.75 -3.3593,2.22 -6.0742,4.94 -8.1445,8.15 -2.0703,3.2 -3.1055,6.64 -3.1055,10.31 0,3.51 0.918,6.66 2.7539,9.43 1.8399,2.77 4.3594,4.75 7.5586,5.92 -2.8867,1.64 -5.3281,3.73 -7.3164,6.27 -1.9961,2.54 -2.9961,5.29 -2.9961,8.26 0,2.03 0.3555,4.12 1.0586,6.27 0.7071,2.14 1.7969,3.89 3.2774,5.21 1.4843,1.33 3.3593,1.99 5.625,1.99 2.3476,0 4.3984,-0.75 6.1601,-2.28 1.7539,-1.52 2.6289,-3.49 2.6289,-5.91 0,-1.57 -0.4843,-2.86 -1.4609,-3.87 -0.9766,-1.02 -2.2031,-1.53 -3.6914,-1.53 -2.0274,0 -3.7852,0.69 -5.2695,2.05 -1.4883,1.37 -2.3868,2.99 -2.7032,4.87 -1.3242,-1.64 -1.9843,-3.99 -1.9843,-7.04 0,-3.04 1.4218,-5.7 4.2734,-7.96 2.8516,-2.27 5.9961,-3.87 9.4336,-4.81 l 25.1953,-6.21 c 3.8281,-1.01 6.953,-1.52 9.375,-1.52 2.422,0 4.516,0.68 6.27,2.05 1.757,1.37 2.64,3.18 2.64,5.45 0,4.45 -1.972,8.43 -5.918,11.96 -3.945,3.51 -8.2615,5.81 -12.9529,6.9 -0.5469,0.16 -0.8164,0.51 -0.8164,1.06 v 1.75 c 0,0.4 0.1328,0.71 0.4023,0.94 0.2773,0.24 0.5703,0.35 0.8867,0.35 0.0742,0 0.1914,-0.03 0.3438,-0.11 5.7075,-1.41 10.7655,-4.26 15.1795,-8.55 4.418,-4.3 6.625,-9.15 6.625,-14.53 0,-3.53 -0.937,-6.69 -2.812,-9.5 -1.875,-2.81 -4.418,-4.81 -7.621,-5.97 2.734,-1.49 5.156,-3.54 7.265,-6.16 2.113,-2.62 3.168,-5.41 3.168,-8.37 0,-2.04 -0.375,-4.13 -1.117,-6.28 -0.742,-2.14 -1.855,-3.9 -3.34,-5.27 -1.484,-1.37 -3.359,-2.05 -5.625,-2.05 -2.187,0 -4.203,0.78 -6.035,2.35 -1.836,1.56 -2.7539,3.51 -2.7539,5.85 0,1.56 0.4687,2.87 1.4101,3.93 0.9336,1.05 2.1838,1.58 3.7498,1.58 1.949,0 3.668,-0.65 5.153,-1.94 1.484,-1.28 2.421,-2.94 2.812,-4.98" /><path
         id="path138"
         style="fill:#262626;fill-opacity:1;fill-rule:nonzero;stroke:none"
         d="m 150.391,1578.6 c 0,-0.87 -0.43,-1.3 -1.289,-1.3 -0.391,0 -0.664,0.12 -0.817,0.36 -15.863,16.17 -38.91,24.25 -69.1444,24.25 -30.2343,0 -53.164,-8 -68.789,-24.02 -0.2344,-0.39 -0.62504,-0.59 -1.17191,-0.59 -0.3125,0 -0.60547,0.15 -0.875,0.42 -0.27735,0.27 -0.41406,0.56 -0.41406,0.88 v 1.29 c 0,0.31 0.07812,0.54 0.23437,0.69 5.3906,6.8 11.9297,12.49 19.625,17.06 7.6953,4.57 15.918,7.91 24.668,10.02 8.75,2.11 17.6601,3.16 26.7226,3.16 6.7188,0 13.3399,-0.56 19.8594,-1.7 6.527,-1.13 12.953,-2.94 19.285,-5.44 6.324,-2.5 12.164,-5.65 17.52,-9.44 5.347,-3.79 10.133,-8.34 14.355,-13.66 0.153,-0.15 0.231,-0.38 0.231,-0.69 v -1.29" /><path
         id="path140"
         style="fill:none;stroke:#262626;stroke-width:5.00250006;stroke-linecap:butt;stroke-linejoin:round;stroke-miterlimit:10;stroke-dasharray:none;stroke-opacity:1"
         d="m 392.5,310 h 3345" /><path
         id="path142"
         style="fill:none;stroke:#0000ff;stroke-width:9.99750042;stroke-linecap:butt;stroke-linejoin:miter;stroke-miterlimit:10;stroke-dasharray:none;stroke-opacity:1"
         d="m 534,310 c 0,16.566 -13.434,30 -30,30 -16.566,0 -30,-13.434 -30,-30 0,-16.566 13.434,-30 30,-30 16.566,0 30,13.434 30,30 z" /><path
         id="path144"
         style="fill:none;stroke:#0000ff;stroke-width:9.99750042;stroke-linecap:butt;stroke-linejoin:miter;stroke-miterlimit:10;stroke-dasharray:none;stroke-opacity:1"
         d="m 812.75,310 c 0,16.566 -13.434,30 -30,30 -16.566,0 -30,-13.434 -30,-30 0,-16.566 13.434,-30 30,-30 16.566,0 30,13.434 30,30 z" /><path
         id="path146"
         style="fill:none;stroke:#0000ff;stroke-width:9.99750042;stroke-linecap:butt;stroke-linejoin:miter;stroke-miterlimit:10;stroke-dasharray:none;stroke-opacity:1"
         d="m 1091.5,687.5 c 0,16.566 -13.43,30 -30,30 -16.57,0 -30,-13.434 -30,-30 0,-16.566 13.43,-30 30,-30 16.57,0 30,13.434 30,30 z" /><path
         id="path148"
         style="fill:none;stroke:#0000ff;stroke-width:9.99750042;stroke-linecap:butt;stroke-linejoin:miter;stroke-miterlimit:10;stroke-dasharray:none;stroke-opacity:1"
         d="m 1370.25,649.75 c 0,16.566 -13.43,30 -30,30 -16.57,0 -30,-13.434 -30,-30 0,-16.566 13.43,-30 30,-30 16.57,0 30,13.434 30,30 z" /><path
         id="path150"
         style="fill:none;stroke:#0000ff;stroke-width:9.99750042;stroke-linecap:butt;stroke-linejoin:miter;stroke-miterlimit:10;stroke-dasharray:none;stroke-opacity:1"
         d="m 1649,615.773 c 0,16.571 -13.43,30 -30,30 -16.57,0 -30,-13.429 -30,-30 0,-16.566 13.43,-30 30,-30 16.57,0 30,13.434 30,30 z" /><path
         id="path152"
         style="fill:none;stroke:#0000ff;stroke-width:9.99750042;stroke-linecap:butt;stroke-linejoin:miter;stroke-miterlimit:10;stroke-dasharray:none;stroke-opacity:1"
         d="m 1927.75,585.199 c 0,16.567 -13.43,30 -30,30 -16.57,0 -30,-13.433 -30,-30 0,-16.57 13.43,-30 30,-30 16.57,0 30,13.43 30,30 z" /><path
         id="path154"
         style="fill:none;stroke:#0000ff;stroke-width:9.99750042;stroke-linecap:butt;stroke-linejoin:miter;stroke-miterlimit:10;stroke-dasharray:none;stroke-opacity:1"
         d="m 2206.5,557.68 c 0,16.566 -13.43,30 -30,30 -16.57,0 -30,-13.434 -30,-30 0,-16.571 13.43,-30 30,-30 16.57,0 30,13.429 30,30 z" /><path
         id="path156"
         style="fill:none;stroke:#0000ff;stroke-width:9.99750042;stroke-linecap:butt;stroke-linejoin:miter;stroke-miterlimit:10;stroke-dasharray:none;stroke-opacity:1"
         d="m 2485.25,532.91 c 0,16.567 -13.43,30 -30,30 -16.57,0 -30,-13.433 -30,-30 0,-16.566 13.43,-30 30,-30 16.57,0 30,13.434 30,30 z" /><path
         id="path158"
         style="fill:none;stroke:#0000ff;stroke-width:9.99750042;stroke-linecap:butt;stroke-linejoin:miter;stroke-miterlimit:10;stroke-dasharray:none;stroke-opacity:1"
         d="m 2764,510.617 c 0,16.571 -13.43,30 -30,30 -16.57,0 -30,-13.429 -30,-30 0,-16.566 13.43,-30 30,-30 16.57,0 30,13.434 30,30 z" /><path
         id="path160"
         style="fill:none;stroke:#0000ff;stroke-width:9.99750042;stroke-linecap:butt;stroke-linejoin:miter;stroke-miterlimit:10;stroke-dasharray:none;stroke-opacity:1"
         d="m 3042.75,490.559 c 0,16.566 -13.43,30 -30,30 -16.57,0 -30,-13.434 -30,-30 0,-16.571 13.43,-30 30,-30 16.57,0 30,13.429 30,30 z" /><path
         id="path162"
         style="fill:none;stroke:#0000ff;stroke-width:9.99750042;stroke-linecap:butt;stroke-linejoin:miter;stroke-miterlimit:10;stroke-dasharray:none;stroke-opacity:1"
         d="m 3321.5,472.5 c 0,16.57 -13.43,30 -30,30 -16.57,0 -30,-13.43 -30,-30 0,-16.566 13.43,-30 30,-30 16.57,0 30,13.434 30,30 z" /><path
         id="path164"
         style="fill:none;stroke:#0000ff;stroke-width:9.99750042;stroke-linecap:butt;stroke-linejoin:miter;stroke-miterlimit:10;stroke-dasharray:none;stroke-opacity:1"
         d="m 3600.25,456.25 c 0,16.57 -13.43,30 -30,30 -16.57,0 -30,-13.43 -30,-30 0,-16.566 13.43,-30 30,-30 16.57,0 30,13.434 30,30 z" /><path
         id="path166"
         style="fill:none;stroke:#0000ff;stroke-width:9.99750042;stroke-linecap:butt;stroke-linejoin:round;stroke-miterlimit:10;stroke-dasharray:none;stroke-opacity:1"
         d="m 504.004,310 v 0" /><path
         id="path168"
         style="fill:none;stroke:#0000ff;stroke-width:9.99750042;stroke-linecap:butt;stroke-linejoin:round;stroke-miterlimit:10;stroke-dasharray:none;stroke-opacity:1"
         d="m 782.746,310 v 0" /><path
         id="path170"
         style="fill:none;stroke:#0000ff;stroke-width:9.99750042;stroke-linecap:butt;stroke-linejoin:round;stroke-miterlimit:10;stroke-dasharray:none;stroke-opacity:1"
         d="M 1061.5,310 V 687.496" /><path
         id="path172"
         style="fill:none;stroke:#0000ff;stroke-width:9.99750042;stroke-linecap:butt;stroke-linejoin:round;stroke-miterlimit:10;stroke-dasharray:none;stroke-opacity:1"
         d="M 1340.25,310 V 649.75" /><path
         id="path174"
         style="fill:none;stroke:#0000ff;stroke-width:9.99750042;stroke-linecap:butt;stroke-linejoin:round;stroke-miterlimit:10;stroke-dasharray:none;stroke-opacity:1"
         d="M 1619,310 V 615.773" /><path
         id="path176"
         style="fill:none;stroke:#0000ff;stroke-width:9.99750042;stroke-linecap:butt;stroke-linejoin:round;stroke-miterlimit:10;stroke-dasharray:none;stroke-opacity:1"
         d="M 1897.75,310 V 585.199" /><path
         id="path178"
         style="fill:none;stroke:#0000ff;stroke-width:9.99750042;stroke-linecap:butt;stroke-linejoin:round;stroke-miterlimit:10;stroke-dasharray:none;stroke-opacity:1"
         d="M 2176.5,310 V 557.68" /><path
         id="path180"
         style="fill:none;stroke:#0000ff;stroke-width:9.99750042;stroke-linecap:butt;stroke-linejoin:round;stroke-miterlimit:10;stroke-dasharray:none;stroke-opacity:1"
         d="M 2455.25,310 V 532.906" /><path
         id="path182"
         style="fill:none;stroke:#0000ff;stroke-width:9.99750042;stroke-linecap:butt;stroke-linejoin:round;stroke-miterlimit:10;stroke-dasharray:none;stroke-opacity:1"
         d="M 2734,310 V 510.617" /><path
         id="path184"
         style="fill:none;stroke:#0000ff;stroke-width:9.99750042;stroke-linecap:butt;stroke-linejoin:round;stroke-miterlimit:10;stroke-dasharray:none;stroke-opacity:1"
         d="M 3012.75,310 V 490.555" /><path
         id="path186"
         style="fill:none;stroke:#0000ff;stroke-width:9.99750042;stroke-linecap:butt;stroke-linejoin:round;stroke-miterlimit:10;stroke-dasharray:none;stroke-opacity:1"
         d="M 3291.5,310 V 472.504" /><path
         id="path188"
         style="fill:none;stroke:#0000ff;stroke-width:9.99750042;stroke-linecap:butt;stroke-linejoin:round;stroke-miterlimit:10;stroke-dasharray:none;stroke-opacity:1"
         d="M 3570.25,310 V 456.25" /><path
         id="path190"
         style="fill:none;stroke:#ff0000;stroke-width:9.99750042;stroke-linecap:butt;stroke-linejoin:miter;stroke-miterlimit:10;stroke-dasharray:none;stroke-opacity:1"
         d="m 561.875,310 c 0,16.566 -13.434,30 -30,30 -16.566,0 -30,-13.434 -30,-30 0,-16.566 13.434,-30 30,-30 16.566,0 30,13.434 30,30 z" /><path
         id="path192"
         style="fill:none;stroke:#ff0000;stroke-width:9.99750042;stroke-linecap:butt;stroke-linejoin:miter;stroke-miterlimit:10;stroke-dasharray:none;stroke-opacity:1"
         d="m 840.625,310 c 0,16.566 -13.434,30 -30,30 -16.566,0 -30,-13.434 -30,-30 0,-16.566 13.434,-30 30,-30 16.566,0 30,13.434 30,30 z" /><path
         id="path194"
         style="fill:none;stroke:#ff0000;stroke-width:9.99750042;stroke-linecap:butt;stroke-linejoin:miter;stroke-miterlimit:10;stroke-dasharray:none;stroke-opacity:1"
         d="m 1119.38,2197.5 c 0,16.57 -13.44,30 -30,30 -16.57,0 -30,-13.43 -30,-30 0,-16.57 13.43,-30 30,-30 16.56,0 30,13.43 30,30 z" /><path
         id="path196"
         style="fill:none;stroke:#ff0000;stroke-width:9.99750042;stroke-linecap:butt;stroke-linejoin:miter;stroke-miterlimit:10;stroke-dasharray:none;stroke-opacity:1"
         d="m 1398.13,1253.75 c 0,16.57 -13.44,30 -30,30 -16.57,0 -30,-13.43 -30,-30 0,-16.57 13.43,-30 30,-30 16.56,0 30,13.43 30,30 z" /><path
         id="path198"
         style="fill:none;stroke:#ff0000;stroke-width:9.99750042;stroke-linecap:butt;stroke-linejoin:miter;stroke-miterlimit:10;stroke-dasharray:none;stroke-opacity:1"
         d="m 1676.88,781.875 c 0,16.566 -13.44,30 -30,30 -16.57,0 -30,-13.434 -30,-30 0,-16.566 13.43,-30 30,-30 16.56,0 30,13.434 30,30 z" /><path
         id="path200"
         style="fill:none;stroke:#ff0000;stroke-width:9.99750042;stroke-linecap:butt;stroke-linejoin:miter;stroke-miterlimit:10;stroke-dasharray:none;stroke-opacity:1"
         d="m 1955.63,545.938 c 0,16.566 -13.44,30 -30,30 -16.57,0 -30,-13.434 -30,-30 0,-16.567 13.43,-30 30,-30 16.56,0 30,13.433 30,30 z" /><path
         id="path202"
         style="fill:none;stroke:#ff0000;stroke-width:9.99750042;stroke-linecap:butt;stroke-linejoin:miter;stroke-miterlimit:10;stroke-dasharray:none;stroke-opacity:1"
         d="m 2234.38,427.969 c 0,16.566 -13.44,30 -30,30 -16.57,0 -30,-13.434 -30,-30 0,-16.567 13.43,-30 30,-30 16.56,0 30,13.433 30,30 z" /><path
         id="path204"
         style="fill:none;stroke:#ff0000;stroke-width:9.99750042;stroke-linecap:butt;stroke-linejoin:miter;stroke-miterlimit:10;stroke-dasharray:none;stroke-opacity:1"
         d="m 2513.13,368.984 c 0,16.567 -13.44,30 -30,30 -16.57,0 -30,-13.433 -30,-30 0,-16.566 13.43,-30 30,-30 16.56,0 30,13.434 30,30 z" /><path
         id="path206"
         style="fill:none;stroke:#ff0000;stroke-width:9.99750042;stroke-linecap:butt;stroke-linejoin:miter;stroke-miterlimit:10;stroke-dasharray:none;stroke-opacity:1"
         d="m 2791.88,339.492 c 0,16.567 -13.44,30 -30,30 -16.57,0 -30,-13.433 -30,-30 0,-16.566 13.43,-30 30,-30 16.56,0 30,13.434 30,30 z" /><path
         id="path208"
         style="fill:none;stroke:#ff0000;stroke-width:9.99750042;stroke-linecap:butt;stroke-linejoin:miter;stroke-miterlimit:10;stroke-dasharray:none;stroke-opacity:1"
         d="m 3070.63,324.746 c 0,16.567 -13.44,30 -30,30 -16.57,0 -30,-13.433 -30,-30 0,-16.566 13.43,-30 30,-30 16.56,0 30,13.434 30,30 z" /><path
         id="path210"
         style="fill:none;stroke:#ff0000;stroke-width:9.99750042;stroke-linecap:butt;stroke-linejoin:miter;stroke-miterlimit:10;stroke-dasharray:none;stroke-opacity:1"
         d="m 3349.38,317.375 c 0,16.566 -13.44,30 -30,30 -16.57,0 -30,-13.434 -30,-30 0,-16.57 13.43,-30 30,-30 16.56,0 30,13.43 30,30 z" /><path
         id="path212"
         style="fill:none;stroke:#ff0000;stroke-width:9.99750042;stroke-linecap:butt;stroke-linejoin:miter;stroke-miterlimit:10;stroke-dasharray:none;stroke-opacity:1"
         d="m 3628.13,313.688 c 0,16.566 -13.44,30 -30,30 -16.57,0 -30,-13.434 -30,-30 0,-16.567 13.43,-30 30,-30 16.56,0 30,13.433 30,30 z" /><path
         id="path214"
         style="fill:none;stroke:#ff0000;stroke-width:9.99750042;stroke-linecap:butt;stroke-linejoin:round;stroke-miterlimit:10;stroke-dasharray:none;stroke-opacity:1"
         d="m 531.871,310 v 0" /><path
         id="path216"
         style="fill:none;stroke:#ff0000;stroke-width:9.99750042;stroke-linecap:butt;stroke-linejoin:round;stroke-miterlimit:10;stroke-dasharray:none;stroke-opacity:1"
         d="m 810.625,310 v 0" /><path
         id="path218"
         style="fill:none;stroke:#ff0000;stroke-width:9.99750042;stroke-linecap:butt;stroke-linejoin:round;stroke-miterlimit:10;stroke-dasharray:none;stroke-opacity:1"
         d="M 1089.38,310 V 2197.5" /><path
         id="path220"
         style="fill:none;stroke:#ff0000;stroke-width:9.99750042;stroke-linecap:butt;stroke-linejoin:round;stroke-miterlimit:10;stroke-dasharray:none;stroke-opacity:1"
         d="m 1368.12,310 v 943.75" /><path
         id="path222"
         style="fill:none;stroke:#ff0000;stroke-width:9.99750042;stroke-linecap:butt;stroke-linejoin:round;stroke-miterlimit:10;stroke-dasharray:none;stroke-opacity:1"
         d="M 1646.88,310 V 781.879" /><path
         id="path224"
         style="fill:none;stroke:#ff0000;stroke-width:9.99750042;stroke-linecap:butt;stroke-linejoin:round;stroke-miterlimit:10;stroke-dasharray:none;stroke-opacity:1"
         d="M 1925.63,310 V 545.934" /><path
         id="path226"
         style="fill:none;stroke:#ff0000;stroke-width:9.99750042;stroke-linecap:butt;stroke-linejoin:round;stroke-miterlimit:10;stroke-dasharray:none;stroke-opacity:1"
         d="M 2204.37,310 V 427.969" /><path
         id="path228"
         style="fill:none;stroke:#ff0000;stroke-width:9.99750042;stroke-linecap:butt;stroke-linejoin:round;stroke-miterlimit:10;stroke-dasharray:none;stroke-opacity:1"
         d="m 2483.13,310 v 58.988" /><path
         id="path230"
         style="fill:none;stroke:#ff0000;stroke-width:9.99750042;stroke-linecap:butt;stroke-linejoin:round;stroke-miterlimit:10;stroke-dasharray:none;stroke-opacity:1"
         d="m 2761.88,310 v 29.488" /><path
         id="path232"
         style="fill:none;stroke:#ff0000;stroke-width:9.99750042;stroke-linecap:butt;stroke-linejoin:round;stroke-miterlimit:10;stroke-dasharray:none;stroke-opacity:1"
         d="m 3040.62,310 v 14.746" /><path
         id="path234"
         style="fill:none;stroke:#ff0000;stroke-width:9.99750042;stroke-linecap:butt;stroke-linejoin:round;stroke-miterlimit:10;stroke-dasharray:none;stroke-opacity:1"
         d="m 3319.38,310 v 7.371" /><path
         id="path236"
         style="fill:none;stroke:#ff0000;stroke-width:9.99750042;stroke-linecap:butt;stroke-linejoin:round;stroke-miterlimit:10;stroke-dasharray:none;stroke-opacity:1"
         d="m 3598.13,310 v 3.691" /><path
         id="path238"
         style="fill:none;stroke:#000000;stroke-width:9.99750042;stroke-linecap:butt;stroke-linejoin:miter;stroke-miterlimit:10;stroke-dasharray:none;stroke-opacity:1"
         d="m 589.75,310 c 0,16.566 -13.434,30 -30,30 -16.566,0 -30,-13.434 -30,-30 0,-16.566 13.434,-30 30,-30 16.566,0 30,13.434 30,30 z" /><path
         id="path240"
         style="fill:none;stroke:#000000;stroke-width:9.99750042;stroke-linecap:butt;stroke-linejoin:miter;stroke-miterlimit:10;stroke-dasharray:none;stroke-opacity:1"
         d="m 868.5,310 c 0,16.566 -13.434,30 -30,30 -16.566,0 -30,-13.434 -30,-30 0,-16.566 13.434,-30 30,-30 16.566,0 30,13.434 30,30 z" /><path
         id="path242"
         style="fill:none;stroke:#000000;stroke-width:9.99750042;stroke-linecap:butt;stroke-linejoin:miter;stroke-miterlimit:10;stroke-dasharray:none;stroke-opacity:1"
         d="m 1147.25,2575 c 0,16.57 -13.43,30 -30,30 -16.57,0 -30,-13.43 -30,-30 0,-16.57 13.43,-30 30,-30 16.57,0 30,13.43 30,30 z" /><path
         id="path244"
         style="fill:none;stroke:#000000;stroke-width:9.99750042;stroke-linecap:butt;stroke-linejoin:miter;stroke-miterlimit:10;stroke-dasharray:none;stroke-opacity:1"
         d="m 1426,1216 c 0,16.57 -13.43,30 -30,30 -16.57,0 -30,-13.43 -30,-30 0,-16.57 13.43,-30 30,-30 16.57,0 30,13.43 30,30 z" /><path
         id="path246"
         style="fill:none;stroke:#000000;stroke-width:9.99750042;stroke-linecap:butt;stroke-linejoin:miter;stroke-miterlimit:10;stroke-dasharray:none;stroke-opacity:1"
         d="m 1704.75,672.398 c 0,16.571 -13.43,30 -30,30 -16.57,0 -30,-13.429 -30,-30 0,-16.566 13.43,-30 30,-30 16.57,0 30,13.434 30,30 z" /><path
         id="path248"
         style="fill:none;stroke:#000000;stroke-width:9.99750042;stroke-linecap:butt;stroke-linejoin:miter;stroke-miterlimit:10;stroke-dasharray:none;stroke-opacity:1"
         d="m 1983.5,454.961 c 0,16.566 -13.43,30 -30,30 -16.57,0 -30,-13.434 -30,-30 0,-16.57 13.43,-30 30,-30 16.57,0 30,13.43 30,30 z" /><path
         id="path250"
         style="fill:none;stroke:#000000;stroke-width:9.99750042;stroke-linecap:butt;stroke-linejoin:miter;stroke-miterlimit:10;stroke-dasharray:none;stroke-opacity:1"
         d="m 2262.25,367.984 c 0,16.567 -13.43,30 -30,30 -16.57,0 -30,-13.433 -30,-30 0,-16.566 13.43,-30 30,-30 16.57,0 30,13.434 30,30 z" /><path
         id="path252"
         style="fill:none;stroke:#000000;stroke-width:9.99750042;stroke-linecap:butt;stroke-linejoin:miter;stroke-miterlimit:10;stroke-dasharray:none;stroke-opacity:1"
         d="m 2541,333.195 c 0,16.567 -13.43,30 -30,30 -16.57,0 -30,-13.433 -30,-30 0,-16.57 13.43,-30 30,-30 16.57,0 30,13.43 30,30 z" /><path
         id="path254"
         style="fill:none;stroke:#000000;stroke-width:9.99750042;stroke-linecap:butt;stroke-linejoin:miter;stroke-miterlimit:10;stroke-dasharray:none;stroke-opacity:1"
         d="m 2819.75,319.277 c 0,16.567 -13.43,30 -30,30 -16.57,0 -30,-13.433 -30,-30 0,-16.566 13.43,-30 30,-30 16.57,0 30,13.434 30,30 z" /><path
         id="path256"
         style="fill:none;stroke:#000000;stroke-width:9.99750042;stroke-linecap:butt;stroke-linejoin:miter;stroke-miterlimit:10;stroke-dasharray:none;stroke-opacity:1"
         d="m 3098.5,313.711 c 0,16.566 -13.43,30 -30,30 -16.57,0 -30,-13.434 -30,-30 0,-16.566 13.43,-30 30,-30 16.57,0 30,13.434 30,30 z" /><path
         id="path258"
         style="fill:none;stroke:#000000;stroke-width:9.99750042;stroke-linecap:butt;stroke-linejoin:miter;stroke-miterlimit:10;stroke-dasharray:none;stroke-opacity:1"
         d="m 3377.25,311.484 c 0,16.567 -13.43,30 -30,30 -16.57,0 -30,-13.433 -30,-30 0,-16.566 13.43,-30 30,-30 16.57,0 30,13.434 30,30 z" /><path
         id="path260"
         style="fill:none;stroke:#000000;stroke-width:9.99750042;stroke-linecap:butt;stroke-linejoin:miter;stroke-miterlimit:10;stroke-dasharray:none;stroke-opacity:1"
         d="m 3656,310.594 c 0,16.566 -13.43,30 -30,30 -16.57,0 -30,-13.434 -30,-30 0,-16.567 13.43,-30 30,-30 16.57,0 30,13.433 30,30 z" /><path
         id="path262"
         style="fill:none;stroke:#000000;stroke-width:9.99750042;stroke-linecap:butt;stroke-linejoin:round;stroke-miterlimit:10;stroke-dasharray:none;stroke-opacity:1"
         d="m 559.75,310 v 0" /><path
         id="path264"
         style="fill:none;stroke:#000000;stroke-width:9.99750042;stroke-linecap:butt;stroke-linejoin:round;stroke-miterlimit:10;stroke-dasharray:none;stroke-opacity:1"
         d="m 838.504,310 v 0" /><path
         id="path266"
         style="fill:none;stroke:#000000;stroke-width:9.99750042;stroke-linecap:butt;stroke-linejoin:round;stroke-miterlimit:10;stroke-dasharray:none;stroke-opacity:1"
         d="M 1117.25,310 V 2575" /><path
         id="path268"
         style="fill:none;stroke:#000000;stroke-width:9.99750042;stroke-linecap:butt;stroke-linejoin:round;stroke-miterlimit:10;stroke-dasharray:none;stroke-opacity:1"
         d="m 1396,310 v 906" /><path
         id="path270"
         style="fill:none;stroke:#000000;stroke-width:9.99750042;stroke-linecap:butt;stroke-linejoin:round;stroke-miterlimit:10;stroke-dasharray:none;stroke-opacity:1"
         d="M 1674.75,310 V 672.398" /><path
         id="path272"
         style="fill:none;stroke:#000000;stroke-width:9.99750042;stroke-linecap:butt;stroke-linejoin:round;stroke-miterlimit:10;stroke-dasharray:none;stroke-opacity:1"
         d="M 1953.5,310 V 454.961" /><path
         id="path274"
         style="fill:none;stroke:#000000;stroke-width:9.99750042;stroke-linecap:butt;stroke-linejoin:round;stroke-miterlimit:10;stroke-dasharray:none;stroke-opacity:1"
         d="m 2232.25,310 v 57.984" /><path
         id="path276"
         style="fill:none;stroke:#000000;stroke-width:9.99750042;stroke-linecap:butt;stroke-linejoin:round;stroke-miterlimit:10;stroke-dasharray:none;stroke-opacity:1"
         d="m 2511,310 v 23.191" /><path
         id="path278"
         style="fill:none;stroke:#000000;stroke-width:9.99750042;stroke-linecap:butt;stroke-linejoin:round;stroke-miterlimit:10;stroke-dasharray:none;stroke-opacity:1"
         d="m 2789.75,310 v 9.277" /><path
         id="path280"
         style="fill:none;stroke:#000000;stroke-width:9.99750042;stroke-linecap:butt;stroke-linejoin:round;stroke-miterlimit:10;stroke-dasharray:none;stroke-opacity:1"
         d="m 3068.5,310 v 3.711" /><path
         id="path282"
         style="fill:none;stroke:#000000;stroke-width:9.99750042;stroke-linecap:butt;stroke-linejoin:round;stroke-miterlimit:10;stroke-dasharray:none;stroke-opacity:1"
         d="m 3347.25,310 v 1.484" /><path
         id="path284"
         style="fill:none;stroke:#000000;stroke-width:9.99750042;stroke-linecap:butt;stroke-linejoin:round;stroke-miterlimit:10;stroke-dasharray:none;stroke-opacity:1"
         d="m 3626,310 v 0.594" /><path
         id="path286"
         style="fill:#ffffff;fill-opacity:1;fill-rule:nonzero;stroke:none"
         d="m 2905,2027.5 h 750 v 465 h -750 z" /><path
         id="path288"
         style="fill:#000000;fill-opacity:1;fill-rule:nonzero;stroke:none"
         d="m 3251.56,2354.21 c -0.7,0 -1.06,0.51 -1.06,1.53 0.24,1.8 0.75,2.69 1.53,2.69 2.58,0 4.35,0.22 5.33,0.65 0.98,0.43 1.74,1.58 2.29,3.46 l 13.59,54.01 c 0.55,1.49 0.82,3.41 0.82,5.75 0,3.44 -1.17,5.15 -3.52,5.15 -2.5,0 -4.35,-1.48 -5.56,-4.44 -1.21,-2.97 -2.36,-6.76 -3.46,-11.37 0,-0.47 -0.35,-0.71 -1.06,-0.71 h -1.4 c -0.15,0 -0.35,0.14 -0.58,0.41 -0.24,0.28 -0.35,0.53 -0.35,0.76 0.85,3.52 1.67,6.49 2.46,8.91 0.77,2.42 2.02,4.63 3.75,6.62 1.71,2 3.82,2.99 6.32,2.99 2.74,0 5.14,-0.78 7.21,-2.34 2.07,-1.57 3.42,-3.67 4.04,-6.33 2.19,2.58 4.61,4.67 7.27,6.27 2.66,1.6 5.39,2.4 8.2,2.4 3.36,0 6.27,-0.9 8.73,-2.69 2.46,-1.8 4.32,-4.17 5.57,-7.1 1.25,-2.92 1.87,-6.06 1.87,-9.43 0,-5.16 -1.31,-10.49 -3.92,-15.99 -2.62,-5.51 -6.19,-10.11 -10.73,-13.77 -4.53,-3.68 -9.37,-5.51 -14.52,-5.51 -2.35,0 -4.46,0.68 -6.34,2.05 -1.87,1.36 -3.36,3.1 -4.45,5.21 l -5.39,-21.32 c -0.23,-1.18 -0.35,-1.88 -0.35,-2.12 0,-1.01 2.62,-1.52 7.85,-1.52 0.86,0 1.29,-0.5 1.29,-1.52 -0.31,-1.1 -0.54,-1.82 -0.7,-2.17 -0.16,-0.35 -0.63,-0.53 -1.41,-0.53 z m 32.93,25.2 c 2.81,0 5.41,1.13 7.79,3.39 2.38,2.27 4.32,4.85 5.81,7.74 1.09,2.11 2.11,4.73 3.04,7.85 0.94,3.13 1.76,6.45 2.46,9.96 0.7,3.52 1.06,6.3 1.06,8.33 0,1.87 -0.24,3.61 -0.71,5.21 -0.47,1.6 -1.27,2.93 -2.4,3.98 -1.13,1.06 -2.6,1.58 -4.39,1.58 -2.97,0 -5.74,-1.03 -8.32,-3.1 -2.58,-2.07 -4.92,-4.67 -7.04,-7.8 v -0.35 l -6.68,-26.48 c 0.55,-2.89 1.61,-5.33 3.17,-7.33 1.56,-1.99 3.63,-2.98 6.21,-2.98" /><path
         id="path290"
         style="fill:#000000;fill-opacity:1;fill-rule:nonzero;stroke:none"
         d="m 3357.34,2393.47 c -0.63,0 -1.16,0.26 -1.58,0.77 -0.43,0.5 -0.65,1.06 -0.65,1.69 0,0.62 0.22,1.18 0.65,1.64 0.42,0.47 0.95,0.71 1.58,0.71 h 75.35 c 0.62,0 1.15,-0.24 1.58,-0.71 0.43,-0.46 0.64,-1.02 0.64,-1.64 0,-0.63 -0.21,-1.19 -0.64,-1.69 -0.43,-0.51 -0.96,-0.77 -1.58,-0.77 z m 0,23.32 c -0.63,0 -1.16,0.23 -1.58,0.7 -0.43,0.47 -0.65,1.06 -0.65,1.77 0,0.54 0.22,1.07 0.65,1.57 0.42,0.51 0.95,0.77 1.58,0.77 h 75.35 c 0.62,0 1.15,-0.26 1.58,-0.77 0.43,-0.5 0.64,-1.03 0.64,-1.57 0,-0.71 -0.21,-1.3 -0.64,-1.77 -0.43,-0.47 -0.96,-0.7 -1.58,-0.7 h -75.35" /><path
         id="path292"
         style="fill:#000000;fill-opacity:1;fill-rule:nonzero;stroke:none"
         d="m 3504.98,2374.84 c -9.77,0 -16.43,4.04 -19.98,12.13 -3.55,8.08 -5.33,17.71 -5.33,28.88 0,6.95 0.64,13.5 1.93,19.64 1.29,6.13 3.81,11.32 7.56,15.58 3.75,4.26 9.02,6.38 15.82,6.38 5.31,0 9.65,-1.28 13.01,-3.86 3.36,-2.58 5.92,-5.9 7.67,-9.96 1.77,-4.06 2.96,-8.44 3.58,-13.12 0.63,-4.69 0.94,-9.58 0.94,-14.66 0,-6.87 -0.63,-13.32 -1.88,-19.33 -1.25,-6.02 -3.73,-11.14 -7.44,-15.36 -3.71,-4.21 -9,-6.32 -15.88,-6.32 z m 0,3.17 c 4.45,0 7.77,2.28 9.96,6.85 2.19,4.57 3.54,9.63 4.04,15.18 0.51,5.54 0.77,11.44 0.77,17.69 0,6.02 -0.26,11.56 -0.77,16.64 -0.5,5.08 -1.83,9.69 -3.98,13.83 -2.15,4.14 -5.49,6.21 -10.02,6.21 -4.53,0 -7.89,-2.07 -10.08,-6.21 -2.19,-4.14 -3.53,-8.75 -4.04,-13.83 -0.51,-5.08 -0.76,-10.62 -0.76,-16.64 0,-4.45 0.12,-8.65 0.35,-12.6 0.24,-3.94 0.82,-8 1.76,-12.18 0.94,-4.18 2.44,-7.72 4.51,-10.61 2.07,-2.89 4.82,-4.33 8.26,-4.33" /><path
         id="path294"
         style="fill:#000000;fill-opacity:1;fill-rule:nonzero;stroke:none"
         d="m 3545.06,2384.21 c 0,1.8 0.66,3.34 1.99,4.63 1.33,1.29 2.89,1.94 4.69,1.94 1.09,0 2.17,-0.3 3.22,-0.89 1.06,-0.58 1.88,-1.4 2.46,-2.46 0.59,-1.05 0.88,-2.13 0.88,-3.22 0,-1.79 -0.64,-3.35 -1.93,-4.68 -1.29,-1.33 -2.83,-1.99 -4.63,-1.99 -1.8,0 -3.36,0.66 -4.69,1.99 -1.33,1.33 -1.99,2.89 -1.99,4.68" /><path
         id="path296"
         style="fill:#000000;fill-opacity:1;fill-rule:nonzero;stroke:none"
         d="m 3579.45,2377.54 v 4.22 c 10,0 15,1.28 15,3.86 v 62.93 c -4.14,-1.95 -9.38,-2.93 -15.71,-2.93 v 4.22 c 9.85,0 17.27,2.54 22.27,7.61 h 1.64 c 0.31,0 0.58,-0.09 0.82,-0.29 0.23,-0.2 0.35,-0.45 0.35,-0.76 v -70.78 c 0,-2.58 5,-3.86 15,-3.86 v -4.22 h -39.37" /><path
         id="path298"
         style="fill:none;stroke:#0000ff;stroke-width:9.99750042;stroke-linecap:butt;stroke-linejoin:round;stroke-miterlimit:10;stroke-dasharray:none;stroke-opacity:1"
         d="m 2934.75,2406.33 h 208.28" /><path
         id="path300"
         style="fill:none;stroke:#0000ff;stroke-width:9.99750042;stroke-linecap:butt;stroke-linejoin:miter;stroke-miterlimit:10;stroke-dasharray:none;stroke-opacity:1"
         d="m 3173.03,2406.34 c 0,16.56 -13.43,30 -30,30 -16.57,0 -30,-13.44 -30,-30 0,-16.57 13.43,-30 30,-30 16.57,0 30,13.43 30,30 z" /><path
         id="path302"
         style="fill:#000000;fill-opacity:1;fill-rule:nonzero;stroke:none"
         d="m 3251.56,2207.88 c -0.7,0 -1.06,0.51 -1.06,1.53 0.24,1.79 0.75,2.69 1.53,2.69 2.58,0 4.35,0.21 5.33,0.64 0.98,0.43 1.74,1.58 2.29,3.46 l 13.59,54.02 c 0.55,1.49 0.82,3.4 0.82,5.75 0,3.43 -1.17,5.15 -3.52,5.15 -2.5,0 -4.35,-1.48 -5.56,-4.45 -1.21,-2.97 -2.36,-6.76 -3.46,-11.37 0,-0.47 -0.35,-0.7 -1.06,-0.7 h -1.4 c -0.15,0 -0.35,0.13 -0.58,0.41 -0.24,0.28 -0.35,0.53 -0.35,0.76 0.85,3.52 1.67,6.49 2.46,8.91 0.77,2.42 2.02,4.62 3.75,6.62 1.71,1.99 3.82,2.99 6.32,2.99 2.74,0 5.14,-0.79 7.21,-2.34 2.07,-1.57 3.42,-3.68 4.04,-6.34 2.19,2.59 4.61,4.68 7.27,6.28 2.66,1.59 5.39,2.4 8.2,2.4 3.36,0 6.27,-0.9 8.73,-2.7 2.46,-1.8 4.32,-4.16 5.57,-7.09 1.25,-2.93 1.87,-6.07 1.87,-9.43 0,-5.16 -1.31,-10.49 -3.92,-16 -2.62,-5.51 -6.19,-10.1 -10.73,-13.77 -4.53,-3.67 -9.37,-5.5 -14.52,-5.5 -2.35,0 -4.46,0.68 -6.34,2.04 -1.87,1.37 -3.36,3.11 -4.45,5.22 l -5.39,-21.33 c -0.23,-1.17 -0.35,-1.87 -0.35,-2.11 0,-1.01 2.62,-1.52 7.85,-1.52 0.86,0 1.29,-0.51 1.29,-1.53 -0.31,-1.09 -0.54,-1.81 -0.7,-2.16 -0.16,-0.35 -0.63,-0.53 -1.41,-0.53 z m 32.93,25.19 c 2.81,0 5.41,1.14 7.79,3.4 2.38,2.27 4.32,4.85 5.81,7.74 1.09,2.11 2.11,4.72 3.04,7.85 0.94,3.12 1.76,6.44 2.46,9.96 0.7,3.52 1.06,6.29 1.06,8.32 0,1.88 -0.24,3.62 -0.71,5.21 -0.47,1.61 -1.27,2.93 -2.4,3.99 -1.13,1.05 -2.6,1.58 -4.39,1.58 -2.97,0 -5.74,-1.03 -8.32,-3.1 -2.58,-2.07 -4.92,-4.67 -7.04,-7.8 v -0.35 l -6.68,-26.48 c 0.55,-2.89 1.61,-5.34 3.17,-7.33 1.56,-1.99 3.63,-2.99 6.21,-2.99" /><path
         id="path304"
         style="fill:#000000;fill-opacity:1;fill-rule:nonzero;stroke:none"
         d="m 3357.34,2247.14 c -0.63,0 -1.16,0.25 -1.58,0.76 -0.43,0.51 -0.65,1.07 -0.65,1.7 0,0.62 0.22,1.17 0.65,1.64 0.42,0.47 0.95,0.71 1.58,0.71 h 75.35 c 0.62,0 1.15,-0.24 1.58,-0.71 0.43,-0.47 0.64,-1.02 0.64,-1.64 0,-0.63 -0.21,-1.19 -0.64,-1.7 -0.43,-0.51 -0.96,-0.76 -1.58,-0.76 z m 0,23.32 c -0.63,0 -1.16,0.23 -1.58,0.7 -0.43,0.47 -0.65,1.06 -0.65,1.76 0,0.55 0.22,1.07 0.65,1.58 0.42,0.51 0.95,0.76 1.58,0.76 h 75.35 c 0.62,0 1.15,-0.25 1.58,-0.76 0.43,-0.51 0.64,-1.03 0.64,-1.58 0,-0.7 -0.21,-1.29 -0.64,-1.76 -0.43,-0.47 -0.96,-0.7 -1.58,-0.7 h -75.35" /><path
         id="path306"
         style="fill:#000000;fill-opacity:1;fill-rule:nonzero;stroke:none"
         d="m 3504.98,2228.51 c -9.77,0 -16.43,4.04 -19.98,12.13 -3.55,8.08 -5.33,17.71 -5.33,28.88 0,6.95 0.64,13.5 1.93,19.63 1.29,6.13 3.81,11.33 7.56,15.59 3.75,4.25 9.02,6.38 15.82,6.38 5.31,0 9.65,-1.29 13.01,-3.86 3.36,-2.58 5.92,-5.9 7.67,-9.96 1.77,-4.07 2.96,-8.44 3.58,-13.13 0.63,-4.69 0.94,-9.57 0.94,-14.65 0,-6.88 -0.63,-13.32 -1.88,-19.34 -1.25,-6.01 -3.73,-11.13 -7.44,-15.35 -3.71,-4.22 -9,-6.32 -15.88,-6.32 z m 0,3.16 c 4.45,0 7.77,2.29 9.96,6.86 2.19,4.57 3.54,9.63 4.04,15.17 0.51,5.55 0.77,11.44 0.77,17.69 0,6.02 -0.26,11.57 -0.77,16.65 -0.5,5.07 -1.83,9.69 -3.98,13.82 -2.15,4.14 -5.49,6.21 -10.02,6.21 -4.53,0 -7.89,-2.07 -10.08,-6.21 -2.19,-4.13 -3.53,-8.75 -4.04,-13.82 -0.51,-5.08 -0.76,-10.63 -0.76,-16.65 0,-4.45 0.12,-8.64 0.35,-12.59 0.24,-3.94 0.82,-8.01 1.76,-12.19 0.94,-4.18 2.44,-7.71 4.51,-10.6 2.07,-2.89 4.82,-4.34 8.26,-4.34" /><path
         id="path308"
         style="fill:#000000;fill-opacity:1;fill-rule:nonzero;stroke:none"
         d="m 3545.06,2237.88 c 0,1.8 0.66,3.34 1.99,4.63 1.33,1.29 2.89,1.94 4.69,1.94 1.09,0 2.17,-0.3 3.22,-0.89 1.06,-0.58 1.88,-1.4 2.46,-2.46 0.59,-1.05 0.88,-2.13 0.88,-3.22 0,-1.8 -0.64,-3.36 -1.93,-4.68 -1.29,-1.34 -2.83,-2 -4.63,-2 -1.8,0 -3.36,0.66 -4.69,2 -1.33,1.32 -1.99,2.88 -1.99,4.68" /><path
         id="path310"
         style="fill:#000000;fill-opacity:1;fill-rule:nonzero;stroke:none"
         d="m 3578.74,2244.91 c 0.86,-2.34 2.13,-4.47 3.81,-6.38 1.68,-1.92 3.7,-3.42 6.04,-4.52 2.34,-1.09 4.77,-1.64 7.27,-1.64 5.78,0 9.76,2.25 11.94,6.74 2.2,4.49 3.29,9.94 3.29,16.35 0,2.81 -0.06,5.15 -0.18,7.03 -0.12,1.87 -0.37,3.71 -0.76,5.51 -0.78,2.81 -2.09,5.27 -3.93,7.38 -1.83,2.11 -4.12,3.17 -6.85,3.17 -2.66,0 -4.96,-0.41 -6.92,-1.24 -1.95,-0.82 -3.53,-1.77 -4.74,-2.86 -1.21,-1.1 -2.29,-2.25 -3.22,-3.46 -0.94,-1.21 -1.53,-1.86 -1.76,-1.94 h -1.29 c -0.23,0 -0.49,0.12 -0.76,0.36 -0.28,0.23 -0.41,0.47 -0.41,0.7 v 40.07 c 0,0.24 0.11,0.45 0.35,0.65 0.23,0.19 0.51,0.29 0.82,0.29 h 0.35 c 5.39,-2.57 11.1,-3.86 17.11,-3.86 5.94,0 11.68,1.29 17.23,3.86 h 0.35 c 0.23,0 0.47,-0.1 0.7,-0.29 0.23,-0.2 0.35,-0.41 0.35,-0.65 v -1.05 c 0,-0.39 -0.08,-0.58 -0.23,-0.58 -2.74,-3.68 -6.15,-6.53 -10.25,-8.56 -4.11,-2.03 -8.39,-3.04 -12.84,-3.04 -3.2,0 -6.48,0.46 -9.84,1.4 v -22.74 c 2.66,2.19 5.04,3.73 7.15,4.63 2.11,0.9 4.76,1.35 7.97,1.35 4.45,0 8.42,-1.27 11.89,-3.81 3.48,-2.54 6.15,-5.84 8.03,-9.9 1.87,-4.06 2.81,-8.24 2.81,-12.54 0,-4.76 -1.17,-9.2 -3.52,-13.3 -2.34,-4.1 -5.54,-7.38 -9.61,-9.84 -4.05,-2.46 -8.47,-3.69 -13.23,-3.69 -3.99,0 -7.62,1.03 -10.91,3.1 -3.28,2.07 -5.88,4.82 -7.79,8.26 -1.91,3.44 -2.87,7.07 -2.87,10.9 0,1.8 0.59,3.26 1.76,4.39 1.17,1.14 2.65,1.7 4.45,1.7 1.72,0 3.18,-0.56 4.4,-1.7 1.21,-1.13 1.81,-2.59 1.81,-4.39 0,-1.72 -0.6,-3.16 -1.81,-4.34 -1.22,-1.17 -2.68,-1.75 -4.4,-1.75 -0.31,0 -0.64,0.02 -0.99,0.06 -0.35,0.04 -0.61,0.1 -0.77,0.17" /><path
         id="path312"
         style="fill:none;stroke:#ff0000;stroke-width:9.99750042;stroke-linecap:butt;stroke-linejoin:round;stroke-miterlimit:10;stroke-dasharray:none;stroke-opacity:1"
         d="m 2934.75,2260 h 208.28" /><path
         id="path314"
         style="fill:none;stroke:#ff0000;stroke-width:9.99750042;stroke-linecap:butt;stroke-linejoin:miter;stroke-miterlimit:10;stroke-dasharray:none;stroke-opacity:1"
         d="m 3173.03,2260 c 0,16.57 -13.43,30 -30,30 -16.57,0 -30,-13.43 -30,-30 0,-16.57 13.43,-30 30,-30 16.57,0 30,13.43 30,30 z" /><path
         id="path316"
         style="fill:#000000;fill-opacity:1;fill-rule:nonzero;stroke:none"
         d="m 3251.56,2061.55 c -0.7,0 -1.06,0.5 -1.06,1.52 0.24,1.8 0.75,2.69 1.53,2.69 2.58,0 4.35,0.22 5.33,0.65 0.98,0.43 1.74,1.58 2.29,3.46 l 13.59,54.02 c 0.55,1.49 0.82,3.4 0.82,5.74 0,3.44 -1.17,5.16 -3.52,5.16 -2.5,0 -4.35,-1.49 -5.56,-4.45 -1.21,-2.97 -2.36,-6.76 -3.46,-11.37 0,-0.47 -0.35,-0.71 -1.06,-0.71 h -1.4 c -0.15,0 -0.35,0.14 -0.58,0.42 -0.24,0.27 -0.35,0.52 -0.35,0.75 0.85,3.52 1.67,6.49 2.46,8.91 0.77,2.42 2.02,4.63 3.75,6.62 1.71,2 3.82,2.99 6.32,2.99 2.74,0 5.14,-0.78 7.21,-2.34 2.07,-1.56 3.42,-3.67 4.04,-6.33 2.19,2.58 4.61,4.67 7.27,6.27 2.66,1.6 5.39,2.4 8.2,2.4 3.36,0 6.27,-0.9 8.73,-2.69 2.46,-1.8 4.32,-4.17 5.57,-7.1 1.25,-2.92 1.87,-6.06 1.87,-9.43 0,-5.16 -1.31,-10.49 -3.92,-15.99 -2.62,-5.51 -6.19,-10.1 -10.73,-13.77 -4.53,-3.67 -9.37,-5.51 -14.52,-5.51 -2.35,0 -4.46,0.68 -6.34,2.05 -1.87,1.37 -3.36,3.1 -4.45,5.21 l -5.39,-21.32 c -0.23,-1.17 -0.35,-1.88 -0.35,-2.11 0,-1.02 2.62,-1.53 7.85,-1.53 0.86,0 1.29,-0.5 1.29,-1.52 -0.31,-1.1 -0.54,-1.82 -0.7,-2.17 -0.16,-0.35 -0.63,-0.52 -1.41,-0.52 z m 32.93,25.19 c 2.81,0 5.41,1.14 7.79,3.4 2.38,2.26 4.32,4.84 5.81,7.73 1.09,2.11 2.11,4.73 3.04,7.85 0.94,3.13 1.76,6.45 2.46,9.96 0.7,3.52 1.06,6.3 1.06,8.33 0,1.87 -0.24,3.61 -0.71,5.21 -0.47,1.6 -1.27,2.93 -2.4,3.98 -1.13,1.06 -2.6,1.59 -4.39,1.59 -2.97,0 -5.74,-1.04 -8.32,-3.11 -2.58,-2.07 -4.92,-4.67 -7.04,-7.79 v -0.35 l -6.68,-26.49 c 0.55,-2.89 1.61,-5.33 3.17,-7.32 1.56,-2 3.63,-2.99 6.21,-2.99" /><path
         id="path318"
         style="fill:#000000;fill-opacity:1;fill-rule:nonzero;stroke:none"
         d="m 3357.34,2100.8 c -0.63,0 -1.16,0.26 -1.58,0.77 -0.43,0.5 -0.65,1.07 -0.65,1.69 0,0.63 0.22,1.18 0.65,1.65 0.42,0.47 0.95,0.7 1.58,0.7 h 75.35 c 0.62,0 1.15,-0.23 1.58,-0.7 0.43,-0.47 0.64,-1.02 0.64,-1.65 0,-0.62 -0.21,-1.19 -0.64,-1.69 -0.43,-0.51 -0.96,-0.77 -1.58,-0.77 z m 0,23.32 c -0.63,0 -1.16,0.24 -1.58,0.7 -0.43,0.48 -0.65,1.06 -0.65,1.77 0,0.54 0.22,1.07 0.65,1.57 0.42,0.51 0.95,0.77 1.58,0.77 h 75.35 c 0.62,0 1.15,-0.26 1.58,-0.77 0.43,-0.5 0.64,-1.03 0.64,-1.57 0,-0.71 -0.21,-1.29 -0.64,-1.77 -0.43,-0.46 -0.96,-0.7 -1.58,-0.7 h -75.35" /><path
         id="path320"
         style="fill:#000000;fill-opacity:1;fill-rule:nonzero;stroke:none"
         d="m 3504.98,2082.17 c -9.77,0 -16.43,4.04 -19.98,12.13 -3.55,8.09 -5.33,17.71 -5.33,28.88 0,6.96 0.64,13.5 1.93,19.64 1.29,6.13 3.81,11.32 7.56,15.58 3.75,4.26 9.02,6.39 15.82,6.39 5.31,0 9.65,-1.29 13.01,-3.87 3.36,-2.58 5.92,-5.9 7.67,-9.96 1.77,-4.06 2.96,-8.44 3.58,-13.12 0.63,-4.69 0.94,-9.58 0.94,-14.66 0,-6.87 -0.63,-13.32 -1.88,-19.33 -1.25,-6.02 -3.73,-11.14 -7.44,-15.35 -3.71,-4.22 -9,-6.33 -15.88,-6.33 z m 0,3.17 c 4.45,0 7.77,2.29 9.96,6.86 2.19,4.56 3.54,9.62 4.04,15.17 0.51,5.54 0.77,11.44 0.77,17.69 0,6.02 -0.26,11.57 -0.77,16.64 -0.5,5.08 -1.83,9.69 -3.98,13.83 -2.15,4.14 -5.49,6.21 -10.02,6.21 -4.53,0 -7.89,-2.07 -10.08,-6.21 -2.19,-4.14 -3.53,-8.75 -4.04,-13.83 -0.51,-5.07 -0.76,-10.62 -0.76,-16.64 0,-4.45 0.12,-8.65 0.35,-12.6 0.24,-3.94 0.82,-8 1.76,-12.18 0.94,-4.18 2.44,-7.72 4.51,-10.61 2.07,-2.88 4.82,-4.33 8.26,-4.33" /><path
         id="path322"
         style="fill:#000000;fill-opacity:1;fill-rule:nonzero;stroke:none"
         d="m 3545.06,2091.55 c 0,1.79 0.66,3.34 1.99,4.63 1.33,1.28 2.89,1.93 4.69,1.93 1.09,0 2.17,-0.29 3.22,-0.88 1.06,-0.59 1.88,-1.41 2.46,-2.46 0.59,-1.06 0.88,-2.13 0.88,-3.22 0,-1.8 -0.64,-3.36 -1.93,-4.69 -1.29,-1.33 -2.83,-1.99 -4.63,-1.99 -1.8,0 -3.36,0.66 -4.69,1.99 -1.33,1.33 -1.99,2.89 -1.99,4.69" /><path
         id="path324"
         style="fill:#000000;fill-opacity:1;fill-rule:nonzero;stroke:none"
         d="m 3598.32,2082.17 c -4.93,0 -9.05,1.33 -12.37,3.99 -3.32,2.65 -5.9,6.09 -7.73,10.31 -1.84,4.22 -3.11,8.64 -3.81,13.24 -0.7,4.61 -1.05,9.25 -1.05,13.95 0,6.32 1.23,12.67 3.69,19.04 2.46,6.36 6.09,11.64 10.9,15.82 4.8,4.18 10.48,6.27 17.04,6.27 2.74,0 5.28,-0.51 7.62,-1.53 2.35,-1.01 4.2,-2.53 5.57,-4.56 1.37,-2.03 2.05,-4.46 2.05,-7.27 0,-1.64 -0.57,-3.03 -1.7,-4.16 -1.14,-1.13 -2.52,-1.7 -4.16,-1.7 -1.56,0 -2.91,0.57 -4.05,1.7 -1.12,1.13 -1.69,2.52 -1.69,4.16 0,1.56 0.57,2.91 1.69,4.04 1.14,1.14 2.49,1.7 4.05,1.7 h 0.7 c -1.01,1.41 -2.46,2.46 -4.33,3.17 -1.88,0.7 -3.79,1.05 -5.75,1.05 -2.42,0 -4.66,-0.53 -6.73,-1.59 -2.07,-1.05 -3.93,-2.48 -5.57,-4.27 -1.64,-1.8 -3.01,-3.79 -4.1,-5.98 -1.09,-2.18 -1.93,-4.66 -2.52,-7.44 -0.59,-2.77 -0.96,-5.37 -1.12,-7.79 -0.15,-2.43 -0.23,-5.47 -0.23,-9.14 1.41,3.28 3.4,5.97 5.98,8.08 2.58,2.12 5.47,3.17 8.67,3.17 3.59,0 6.85,-0.72 9.79,-2.17 2.93,-1.44 5.45,-3.46 7.55,-6.04 2.11,-2.57 3.72,-5.5 4.81,-8.79 1.09,-3.28 1.64,-6.6 1.64,-9.96 0,-4.68 -1.04,-9.13 -3.11,-13.35 -2.07,-4.23 -5,-7.6 -8.79,-10.14 -3.79,-2.54 -8.1,-3.81 -12.94,-3.81 z m 0,3.87 c 3.12,0 5.62,0.7 7.5,2.11 1.87,1.4 3.24,3.28 4.1,5.63 0.85,2.34 1.4,4.68 1.63,7.02 0.24,2.35 0.36,5.24 0.36,8.67 0,4.54 -0.22,8.41 -0.65,11.6 -0.43,3.21 -1.6,6.04 -3.51,8.5 -1.91,2.47 -4.86,3.69 -8.85,3.69 -3.2,0 -5.86,-1.09 -7.97,-3.28 -2.11,-2.18 -3.63,-4.96 -4.57,-8.32 -0.94,-3.36 -1.41,-6.56 -1.41,-9.61 0,-1.09 0.04,-1.91 0.12,-2.46 0,-0.08 -0.02,-0.15 -0.06,-0.23 -0.04,-0.08 -0.06,-0.2 -0.06,-0.35 0,-3.44 0.35,-6.92 1.06,-10.44 0.7,-3.51 2.05,-6.48 4.04,-8.9 2,-2.42 4.75,-3.63 8.27,-3.63" /><path
         id="path326"
         style="fill:none;stroke:#000000;stroke-width:9.99750042;stroke-linecap:butt;stroke-linejoin:round;stroke-miterlimit:10;stroke-dasharray:none;stroke-opacity:1"
         d="m 2934.75,2113.67 h 208.28" /><path
         id="path328"
         style="fill:none;stroke:#000000;stroke-width:9.99750042;stroke-linecap:butt;stroke-linejoin:miter;stroke-miterlimit:10;stroke-dasharray:none;stroke-opacity:1"
         d="m 3173.03,2113.67 c 0,16.56 -13.43,30 -30,30 -16.57,0 -30,-13.44 -30,-30 0,-16.57 13.43,-30 30,-30 16.57,0 30,13.43 30,30 z" /><path
         id="path330"
         style="fill:none;stroke:#262626;stroke-width:5.00250006;stroke-linecap:butt;stroke-linejoin:miter;stroke-miterlimit:10;stroke-dasharray:none;stroke-opacity:1"
         d="m 2905,2027.5 h 750 v 465 h -750 z" /></g></g></svg>