<svg id="Layer_1" data-name="Layer 1" xmlns="http://www.w3.org/2000/svg" xmlns:xlink="http://www.w3.org/1999/xlink" viewBox="0 0 671.5 577.86"><defs><style>.cls-1,.cls-17,.cls-2{fill:none;}.cls-2{stroke:#1d1d1b;stroke-width:0.72px;}.cls-10,.cls-3,.cls-5{fill:#fff;}.cls-11,.cls-12,.cls-4,.cls-7{fill:blue;}.cls-4{stroke:blue;}.cls-17,.cls-4{stroke-miterlimit:10;}.cls-4,.cls-7,.cls-8{opacity:0.75;}.cls-10,.cls-5{font-size:30px;}.cls-10,.cls-15,.cls-5{font-family:TimesNewRomanPSMT, Times New Roman;}.cls-5{letter-spacing:-0.06em;}.cls-6{fill:url(#_10_lpi_10_);}.cls-9{fill:red;}.cls-11{font-size:38.2px;font-family:TimesNewRomanPS-BoldMT, Times New Roman;font-weight:700;}.cls-13{fill:url(#_10_lpi_10_3);}.cls-14{fill:url(#_10_lpi_10_5);}.cls-15{font-size:23px;}.cls-16{letter-spacing:-0.06em;}.cls-17{stroke:#000;}</style><pattern id="_10_lpi_10_" data-name="10 lpi 10%" width="72" height="72" patternTransform="translate(-12.19 41.36) rotate(-45)" patternUnits="userSpaceOnUse" viewBox="0 0 72 72"><rect class="cls-1" width="72" height="72"/><line class="cls-2" x1="71.75" y1="68.4" x2="144.25" y2="68.4"/><line class="cls-2" x1="71.75" y1="54" x2="144.25" y2="54"/><line class="cls-2" x1="71.75" y1="39.6" x2="144.25" y2="39.6"/><line class="cls-2" x1="71.75" y1="25.2" x2="144.25" y2="25.2"/><line class="cls-2" x1="71.75" y1="10.8" x2="144.25" y2="10.8"/><line class="cls-2" x1="71.75" y1="61.2" x2="144.25" y2="61.2"/><line class="cls-2" x1="71.75" y1="46.8" x2="144.25" y2="46.8"/><line class="cls-2" x1="71.75" y1="32.4" x2="144.25" y2="32.4"/><line class="cls-2" x1="71.75" y1="18" x2="144.25" y2="18"/><line class="cls-2" x1="71.75" y1="3.6" x2="144.25" y2="3.6"/><line class="cls-2" x1="-0.25" y1="68.4" x2="72.25" y2="68.4"/><line class="cls-2" x1="-0.25" y1="54" x2="72.25" y2="54"/><line class="cls-2" x1="-0.25" y1="39.6" x2="72.25" y2="39.6"/><line class="cls-2" x1="-0.25" y1="25.2" x2="72.25" y2="25.2"/><line class="cls-2" x1="-0.25" y1="10.8" x2="72.25" y2="10.8"/><line class="cls-2" x1="-0.25" y1="61.2" x2="72.25" y2="61.2"/><line class="cls-2" x1="-0.25" y1="46.8" x2="72.25" y2="46.8"/><line class="cls-2" x1="-0.25" y1="32.4" x2="72.25" y2="32.4"/><line class="cls-2" x1="-0.25" y1="18" x2="72.25" y2="18"/><line class="cls-2" x1="-0.25" y1="3.6" x2="72.25" y2="3.6"/><line class="cls-2" x1="-72.25" y1="68.4" x2="0.25" y2="68.4"/><line class="cls-2" x1="-72.25" y1="54" x2="0.25" y2="54"/><line class="cls-2" x1="-72.25" y1="39.6" x2="0.25" y2="39.6"/><line class="cls-2" x1="-72.25" y1="25.2" x2="0.25" y2="25.2"/><line class="cls-2" x1="-72.25" y1="10.8" x2="0.25" y2="10.8"/><line class="cls-2" x1="-72.25" y1="61.2" x2="0.25" y2="61.2"/><line class="cls-2" x1="-72.25" y1="46.8" x2="0.25" y2="46.8"/><line class="cls-2" x1="-72.25" y1="32.4" x2="0.25" y2="32.4"/><line class="cls-2" x1="-72.25" y1="18" x2="0.25" y2="18"/><line class="cls-2" x1="-72.25" y1="3.6" x2="0.25" y2="3.6"/></pattern><pattern id="_10_lpi_10_3" data-name="10 lpi 10%" width="72" height="72" patternTransform="translate(-0.81 37.19) rotate(-45)" patternUnits="userSpaceOnUse" viewBox="0 0 72 72"><rect class="cls-1" width="72" height="72"/><line class="cls-2" x1="71.75" y1="68.4" x2="144.25" y2="68.4"/><line class="cls-2" x1="71.75" y1="54" x2="144.25" y2="54"/><line class="cls-2" x1="71.75" y1="39.6" x2="144.25" y2="39.6"/><line class="cls-2" x1="71.75" y1="25.2" x2="144.25" y2="25.2"/><line class="cls-2" x1="71.75" y1="10.8" x2="144.25" y2="10.8"/><line class="cls-2" x1="71.75" y1="61.2" x2="144.25" y2="61.2"/><line class="cls-2" x1="71.75" y1="46.8" x2="144.25" y2="46.8"/><line class="cls-2" x1="71.75" y1="32.4" x2="144.25" y2="32.4"/><line class="cls-2" x1="71.75" y1="18" x2="144.25" y2="18"/><line class="cls-2" x1="71.75" y1="3.6" x2="144.25" y2="3.6"/><line class="cls-2" x1="-0.25" y1="68.4" x2="72.25" y2="68.4"/><line class="cls-2" x1="-0.25" y1="54" x2="72.25" y2="54"/><line class="cls-2" x1="-0.25" y1="39.6" x2="72.25" y2="39.6"/><line class="cls-2" x1="-0.25" y1="25.2" x2="72.25" y2="25.2"/><line class="cls-2" x1="-0.25" y1="10.8" x2="72.25" y2="10.8"/><line class="cls-2" x1="-0.25" y1="61.2" x2="72.25" y2="61.2"/><line class="cls-2" x1="-0.25" y1="46.8" x2="72.25" y2="46.8"/><line class="cls-2" x1="-0.25" y1="32.4" x2="72.25" y2="32.4"/><line class="cls-2" x1="-0.25" y1="18" x2="72.25" y2="18"/><line class="cls-2" x1="-0.25" y1="3.6" x2="72.25" y2="3.6"/><line class="cls-2" x1="-72.25" y1="68.4" x2="0.25" y2="68.4"/><line class="cls-2" x1="-72.25" y1="54" x2="0.25" y2="54"/><line class="cls-2" x1="-72.25" y1="39.6" x2="0.25" y2="39.6"/><line class="cls-2" x1="-72.25" y1="25.2" x2="0.25" y2="25.2"/><line class="cls-2" x1="-72.25" y1="10.8" x2="0.25" y2="10.8"/><line class="cls-2" x1="-72.25" y1="61.2" x2="0.25" y2="61.2"/><line class="cls-2" x1="-72.25" y1="46.8" x2="0.25" y2="46.8"/><line class="cls-2" x1="-72.25" y1="32.4" x2="0.25" y2="32.4"/><line class="cls-2" x1="-72.25" y1="18" x2="0.25" y2="18"/><line class="cls-2" x1="-72.25" y1="3.6" x2="0.25" y2="3.6"/></pattern><pattern id="_10_lpi_10_5" data-name="10 lpi 10%" width="72" height="72" patternTransform="translate(6.1 115.61) rotate(-45)" patternUnits="userSpaceOnUse" viewBox="0 0 72 72"><rect class="cls-1" width="72" height="72"/><line class="cls-2" x1="71.75" y1="68.4" x2="144.25" y2="68.4"/><line class="cls-2" x1="71.75" y1="54" x2="144.25" y2="54"/><line class="cls-2" x1="71.75" y1="39.6" x2="144.25" y2="39.6"/><line class="cls-2" x1="71.75" y1="25.2" x2="144.25" y2="25.2"/><line class="cls-2" x1="71.75" y1="10.8" x2="144.25" y2="10.8"/><line class="cls-2" x1="71.75" y1="61.2" x2="144.25" y2="61.2"/><line class="cls-2" x1="71.75" y1="46.8" x2="144.25" y2="46.8"/><line class="cls-2" x1="71.75" y1="32.4" x2="144.25" y2="32.4"/><line class="cls-2" x1="71.75" y1="18" x2="144.25" y2="18"/><line class="cls-2" x1="71.75" y1="3.6" x2="144.25" y2="3.6"/><line class="cls-2" x1="-0.25" y1="68.4" x2="72.25" y2="68.4"/><line class="cls-2" x1="-0.25" y1="54" x2="72.25" y2="54"/><line class="cls-2" x1="-0.25" y1="39.6" x2="72.25" y2="39.6"/><line class="cls-2" x1="-0.25" y1="25.2" x2="72.25" y2="25.2"/><line class="cls-2" x1="-0.25" y1="10.8" x2="72.25" y2="10.8"/><line class="cls-2" x1="-0.25" y1="61.2" x2="72.25" y2="61.2"/><line class="cls-2" x1="-0.25" y1="46.8" x2="72.25" y2="46.8"/><line class="cls-2" x1="-0.25" y1="32.4" x2="72.25" y2="32.4"/><line class="cls-2" x1="-0.25" y1="18" x2="72.25" y2="18"/><line class="cls-2" x1="-0.25" y1="3.6" x2="72.25" y2="3.6"/><line class="cls-2" x1="-72.25" y1="68.4" x2="0.25" y2="68.4"/><line class="cls-2" x1="-72.25" y1="54" x2="0.25" y2="54"/><line class="cls-2" x1="-72.25" y1="39.6" x2="0.25" y2="39.6"/><line class="cls-2" x1="-72.25" y1="25.2" x2="0.25" y2="25.2"/><line class="cls-2" x1="-72.25" y1="10.8" x2="0.25" y2="10.8"/><line class="cls-2" x1="-72.25" y1="61.2" x2="0.25" y2="61.2"/><line class="cls-2" x1="-72.25" y1="46.8" x2="0.25" y2="46.8"/><line class="cls-2" x1="-72.25" y1="32.4" x2="0.25" y2="32.4"/><line class="cls-2" x1="-72.25" y1="18" x2="0.25" y2="18"/><line class="cls-2" x1="-72.25" y1="3.6" x2="0.25" y2="3.6"/></pattern></defs><title>event_sets</title><rect class="cls-3" x="0.5" y="33.36" width="312" height="140"/><path d="M624,129V268H313V129H624m1-1H312V269H625V128Z" transform="translate(-312 -95.14)"/><path d="M595,254l-.11,0a6.92,6.92,0,0,1-1.43-.19,6.19,6.19,0,0,1-1.73-.63,9.11,9.11,0,0,1-1-.65,4,4,0,0,1-1-1.08,3.27,3.27,0,0,1-.53-1.41,4.09,4.09,0,0,1,.39-2.22,4.46,4.46,0,0,1,.61-.88,5,5,0,0,1,1.7-1.23,2.87,2.87,0,0,1,1.07-.31c.12,0,.24,0,.37,0a.19.19,0,0,1,.15.25,1,1,0,0,1-.18.32,3.5,3.5,0,0,1-1.1.8.42.42,0,0,0-.22.29,7.73,7.73,0,0,0-.23.92,2.59,2.59,0,0,0,.22,1.5,3.87,3.87,0,0,0,1,1.37,4.81,4.81,0,0,0,1,.73,6.29,6.29,0,0,0,1.68.62,6.16,6.16,0,0,0,.75.11,11,11,0,0,0,1.15,0c.31,0,.61,0,.92-.08a6.49,6.49,0,0,0,1.44-.31,5.19,5.19,0,0,0,1.13-.5,4.45,4.45,0,0,0,1-.85,3.42,3.42,0,0,0,.71-1.09c.09-.23.16-.47.23-.7a3.48,3.48,0,0,0,.12-.84,3.31,3.31,0,0,0-.2-1.25,3.74,3.74,0,0,0-.61-1,3.22,3.22,0,0,0-.24-.28,7.51,7.51,0,0,0-1.5-1.18,17.23,17.23,0,0,0-1.64-.88c-.62-.3-1.26-.58-1.88-.89a6.58,6.58,0,0,1-1.31-.86,4.43,4.43,0,0,1-.95-1,3.13,3.13,0,0,1-.51-1.35,3.6,3.6,0,0,1,0-.65,4.16,4.16,0,0,1,.35-1.47,5.61,5.61,0,0,1,.71-1.18,6.31,6.31,0,0,1,1.06-1.07c.36-.28.72-.57,1.1-.83a10.69,10.69,0,0,1,1.68-.87,10.84,10.84,0,0,1,1.83-.59c.32-.07.64-.11,1-.16a6.66,6.66,0,0,1,1.41-.06,7.22,7.22,0,0,1,1.31.16,6.61,6.61,0,0,1,1.31.4,4.71,4.71,0,0,1,1,.55,1.8,1.8,0,0,1,.69,1.16,3,3,0,0,1,.06.59,3.21,3.21,0,0,1-.22,1.3,1.42,1.42,0,0,1-.42.52,4,4,0,0,1-1.07.68,1.68,1.68,0,0,1-.76.19c-.24,0-.32-.1-.26-.34s.13-.49.16-.75a2.43,2.43,0,0,0,0-.6,2.2,2.2,0,0,0-.13-.55,1.51,1.51,0,0,0-.66-.79,5,5,0,0,0-1.39-.58c-.26-.07-.53-.14-.81-.19s-.4-.05-.6-.07a5.52,5.52,0,0,0-.58,0,5.41,5.41,0,0,0-1.33.13,4.64,4.64,0,0,0-1.19.4,3,3,0,0,0-.86.72,3.71,3.71,0,0,0-.66,1.24,3.13,3.13,0,0,0-.14,1.25,2.93,2.93,0,0,0,.57,1.47,4.92,4.92,0,0,0,.77.81,9.11,9.11,0,0,0,2,1.22c.67.31,1.35.62,2,.94a9.69,9.69,0,0,1,1.78,1.12,4.8,4.8,0,0,1,1.43,1.73,3,3,0,0,1,.3,1c0,.21,0,.43,0,.65a4.47,4.47,0,0,1-.29,1.48,5.25,5.25,0,0,1-.68,1.28q-.25.36-.54.69c-.17.19-.34.38-.52.55-.35.3-.7.59-1.06.87a11.22,11.22,0,0,1-1.95,1.15,12.3,12.3,0,0,1-2.22.82c-.38.1-.77.2-1.17.27s-.67.1-1,.13-.46,0-.69.05l-.05,0Z" transform="translate(-312 -95.14)"/><ellipse class="cls-4" cx="109.5" cy="99.86" rx="63" ry="37.5"/><text class="cls-5" transform="translate(100.42 109.85) scale(0.89 1)">A</text><path class="cls-6" d="M670,128V269H983V128ZM779.5,232.5c-34.79,0-63-16.79-63-37.5s28.21-37.5,63-37.5,63,16.79,63,37.5S814.29,232.5,779.5,232.5Zm186.22,4a1.42,1.42,0,0,1-.42.52,4,4,0,0,1-1.07.68,1.68,1.68,0,0,1-.76.19c-.24,0-.32-.1-.26-.34s.13-.49.16-.75a2.43,2.43,0,0,0,0-.6,2.2,2.2,0,0,0-.13-.55,1.51,1.51,0,0,0-.66-.79,5,5,0,0,0-1.39-.58c-.26-.07-.53-.14-.81-.19s-.4-.05-.6-.07a5.52,5.52,0,0,0-.58,0,5.41,5.41,0,0,0-1.33.13,4.64,4.64,0,0,0-1.19.4,3,3,0,0,0-.86.72,3.71,3.71,0,0,0-.66,1.24,3.13,3.13,0,0,0-.14,1.25,2.93,2.93,0,0,0,.57,1.47,4.92,4.92,0,0,0,.77.81,9.11,9.11,0,0,0,2,1.22c.67.31,1.35.62,2,.94a9.69,9.69,0,0,1,1.78,1.12,4.8,4.8,0,0,1,1.43,1.73,3,3,0,0,1,.3,1c0,.21,0,.43,0,.65a4.47,4.47,0,0,1-.29,1.48,5.25,5.25,0,0,1-.68,1.28q-.25.36-.54.69c-.17.19-.34.38-.52.55-.35.3-.7.59-1.06.87a11.22,11.22,0,0,1-1.95,1.15,12.3,12.3,0,0,1-2.22.82c-.38.1-.77.2-1.17.27s-.67.1-1,.13-.46,0-.69.05l-.05,0H953l-.11,0a6.92,6.92,0,0,1-1.43-.19,6.19,6.19,0,0,1-1.73-.63,9.11,9.11,0,0,1-1-.65,4,4,0,0,1-1-1.08,3.27,3.27,0,0,1-.53-1.41,4.09,4.09,0,0,1,.39-2.22,4.46,4.46,0,0,1,.61-.88,5,5,0,0,1,1.7-1.23,2.87,2.87,0,0,1,1.07-.31c.12,0,.24,0,.37,0a.19.19,0,0,1,.15.25,1,1,0,0,1-.18.32,3.5,3.5,0,0,1-1.1.8.42.42,0,0,0-.22.29,7.73,7.73,0,0,0-.23.92,2.59,2.59,0,0,0,.22,1.5,3.87,3.87,0,0,0,1,1.37,4.81,4.81,0,0,0,1,.73,6.29,6.29,0,0,0,1.68.62,6.16,6.16,0,0,0,.75.11,11,11,0,0,0,1.15,0c.31,0,.61,0,.92-.08a6.49,6.49,0,0,0,1.44-.31,5.19,5.19,0,0,0,1.13-.5,4.45,4.45,0,0,0,1-.85,3.42,3.42,0,0,0,.71-1.09c.09-.23.16-.47.23-.7a3.48,3.48,0,0,0,.12-.84,3.31,3.31,0,0,0-.2-1.25,3.74,3.74,0,0,0-.61-1,3.22,3.22,0,0,0-.24-.28,7.51,7.51,0,0,0-1.5-1.18,17.23,17.23,0,0,0-1.64-.88c-.62-.3-1.26-.58-1.88-.89a6.58,6.58,0,0,1-1.31-.86,4.43,4.43,0,0,1-.95-1,3.13,3.13,0,0,1-.51-1.35,3.6,3.6,0,0,1,0-.65,4.16,4.16,0,0,1,.35-1.47,5.61,5.61,0,0,1,.71-1.18,6.31,6.31,0,0,1,1.06-1.07c.36-.28.72-.57,1.1-.83a10.69,10.69,0,0,1,1.68-.87,10.84,10.84,0,0,1,1.83-.59c.32-.07.64-.11,1-.16a6.66,6.66,0,0,1,1.41-.06,7.22,7.22,0,0,1,1.31.16,6.61,6.61,0,0,1,1.31.4,4.71,4.71,0,0,1,1,.55,1.8,1.8,0,0,1,.69,1.16,3,3,0,0,1,.06.59A3.21,3.21,0,0,1,965.72,236.5Z" transform="translate(-312 -95.14)"/><ellipse class="cls-3" cx="467.5" cy="99.86" rx="62.5" ry="37"/><path d="M779.5,158.5c34.19,0,62,16.37,62,36.5s-27.81,36.5-62,36.5-62-16.37-62-36.5,27.81-36.5,62-36.5m0-1c-34.79,0-63,16.79-63,37.5s28.21,37.5,63,37.5,63-16.79,63-37.5-28.21-37.5-63-37.5Z" transform="translate(-312 -95.14)"/><path class="cls-3" d="M953.09,253.52l-.17,0a6.6,6.6,0,0,1-1.32-.18,5.71,5.71,0,0,1-1.6-.58,9,9,0,0,1-.91-.61,3.28,3.28,0,0,1-.86-1,2.64,2.64,0,0,1-.45-1.19,3.33,3.33,0,0,1,0-.89,3.68,3.68,0,0,1,.33-1.05,3.91,3.91,0,0,1,.53-.77,4.63,4.63,0,0,1,1.54-1.11l.44-.18a3,3,0,0,1-.55.34.87.87,0,0,0-.48.56l0,.12a7.37,7.37,0,0,0-.22.9,3,3,0,0,0,.25,1.78,4.47,4.47,0,0,0,1.16,1.54,4.78,4.78,0,0,0,1.15.8,6.9,6.9,0,0,0,1.8.67,7.72,7.72,0,0,0,.82.12c.33,0,.66,0,1,0h.21c.23,0,.46,0,.69,0l.27,0a7.52,7.52,0,0,0,1.54-.33l.14-.05a11.93,11.93,0,0,1-1.89.68c-.36.09-.74.19-1.13.26s-.64.09-1,.12l-.4,0-.47,0Zm7-2a5.79,5.79,0,0,0,.57-.54,4.18,4.18,0,0,0,.81-1.25c.08-.21.15-.43.21-.65a4,4,0,0,0-.06-2.49,4.11,4.11,0,0,0-.7-1.19,2.07,2.07,0,0,0-.27-.31A8.25,8.25,0,0,0,959,243.8c-.57-.35-1.17-.65-1.68-.9l-.82-.38c-.35-.17-.71-.33-1.06-.51a6.1,6.1,0,0,1-1.21-.79,3.81,3.81,0,0,1-.85-.92,2.58,2.58,0,0,1-.43-1.14,2.83,2.83,0,0,1,0-.57,3.73,3.73,0,0,1,.31-1.29,4.89,4.89,0,0,1,.64-1.07,6,6,0,0,1,1-1l.21-.16c.25-.2.51-.4.78-.59a4.16,4.16,0,0,0-.42.42,4.29,4.29,0,0,0-.75,1.41,3.68,3.68,0,0,0-.17,1.46,3.37,3.37,0,0,0,.67,1.71,5.35,5.35,0,0,0,.84.9,9.84,9.84,0,0,0,2.08,1.29l.33.15c.56.26,1.13.52,1.68.79a9.5,9.5,0,0,1,1.69,1.06,4.14,4.14,0,0,1,1.28,1.55,2.37,2.37,0,0,1,.26.86c0,.2,0,.41,0,.61a4,4,0,0,1-.26,1.3,4.69,4.69,0,0,1-.61,1.16,7.22,7.22,0,0,1-.52.66,5.91,5.91,0,0,1-.48.52c-.33.28-.67.56-1,.84Zm3.72-14.14a3.86,3.86,0,0,0,.1-.49,3,3,0,0,0,0-.73,2.36,2.36,0,0,0-.15-.66,2,2,0,0,0-.86-1,5.18,5.18,0,0,0-1.53-.64,7.53,7.53,0,0,0-.85-.2,4.1,4.1,0,0,0-.49-.06l-.15,0c-.2,0-.41,0-.63,0H959a6,6,0,0,0-1.25.14,5.59,5.59,0,0,0-.73.2l.51-.23a9.8,9.8,0,0,1,1.74-.56c.22-.05.45-.08.68-.12l.25,0a5.61,5.61,0,0,1,.86-.06h.45a7.09,7.09,0,0,1,1.23.15,6.12,6.12,0,0,1,1.21.37,4.19,4.19,0,0,1,.94.49,1.29,1.29,0,0,1,.5.84v.11a1.3,1.3,0,0,1,0,.38,2.85,2.85,0,0,1-.17,1.11,1,1,0,0,1-.28.34,3.45,3.45,0,0,1-1,.61Z" transform="translate(-312 -95.14)"/><path d="M961.52,233.34a5.9,5.9,0,0,1,1.12.14,5.71,5.71,0,0,1,1.13.34,4.38,4.38,0,0,1,.81.42.79.79,0,0,1,.31.52l0,.12a1.69,1.69,0,0,1,0,.3,2.48,2.48,0,0,1-.12.89.4.4,0,0,1-.13.16l0,0,0,0-.26.21c0-.14,0-.27,0-.39a3.18,3.18,0,0,0-.18-.78,2.48,2.48,0,0,0-1.07-1.3,6.09,6.09,0,0,0-1.57-.67M954,236.89a3.7,3.7,0,0,0,0,.94,3.93,3.93,0,0,0,.76,2,5.64,5.64,0,0,0,.93,1,10.11,10.11,0,0,0,2.2,1.37l.39.18c.54.25,1.08.49,1.6.75a8.61,8.61,0,0,1,1.59,1,3.7,3.7,0,0,1,1.15,1.37,1.82,1.82,0,0,1,.21.7,5.09,5.09,0,0,1,0,.54,3.36,3.36,0,0,1-.23,1.15,4.35,4.35,0,0,1-.39.81,6,6,0,0,0,.06-.65,4.52,4.52,0,0,0-.27-1.64,4.6,4.6,0,0,0-.78-1.32,2.21,2.21,0,0,0-.28-.32,8.18,8.18,0,0,0-1.69-1.34,18.93,18.93,0,0,0-1.73-.93l-.82-.38c-.35-.17-.71-.33-1.06-.51a5.15,5.15,0,0,1-1.12-.74,3.23,3.23,0,0,1-.74-.8,2.09,2.09,0,0,1-.36-.94,2.27,2.27,0,0,1,0-.47,3.13,3.13,0,0,1,.26-1.11,4.53,4.53,0,0,1,.34-.61m-5.18,10.93a3.62,3.62,0,0,0,.29,2.05,4.81,4.81,0,0,0,1.27,1.71,5.81,5.81,0,0,0,1.25.88,6.92,6.92,0,0,0,1.28.54h0a5.83,5.83,0,0,1-1.24-.17,5.38,5.38,0,0,1-1.45-.52,8.85,8.85,0,0,1-.87-.59,2.86,2.86,0,0,1-.73-.82,2.13,2.13,0,0,1-.38-1,2.79,2.79,0,0,1,0-.76,3.17,3.17,0,0,1,.26-.87,3.76,3.76,0,0,1,.3-.47m12.21-15.49a6,6,0,0,0-.94.07c-.32,0-.64.09-1,.16a10.84,10.84,0,0,0-1.83.59,10.69,10.69,0,0,0-1.68.87c-.38.26-.74.55-1.1.83a6.31,6.31,0,0,0-1.06,1.07,5.61,5.61,0,0,0-.71,1.18,4.16,4.16,0,0,0-.35,1.47,3.6,3.6,0,0,0,0,.65,3.13,3.13,0,0,0,.51,1.35,4.43,4.43,0,0,0,.95,1,6.58,6.58,0,0,0,1.31.86c.62.31,1.26.59,1.88.89a17.23,17.23,0,0,1,1.64.88,7.51,7.51,0,0,1,1.5,1.18,3.22,3.22,0,0,1,.24.28,3.74,3.74,0,0,1,.61,1,3.31,3.31,0,0,1,.2,1.25,3.48,3.48,0,0,1-.12.84c-.07.23-.14.47-.23.7a3.42,3.42,0,0,1-.71,1.09,4.45,4.45,0,0,1-1,.85,5.19,5.19,0,0,1-1.13.5,6.49,6.49,0,0,1-1.44.31c-.31,0-.61.08-.92.08h-.2c-.32,0-.64,0-.95,0a6.16,6.16,0,0,1-.75-.11,6.29,6.29,0,0,1-1.68-.62,4.81,4.81,0,0,1-1-.73,3.87,3.87,0,0,1-1-1.37,2.59,2.59,0,0,1-.22-1.5,7.73,7.73,0,0,1,.23-.92.42.42,0,0,1,.22-.29,3.5,3.5,0,0,0,1.1-.8,1,1,0,0,0,.18-.32.19.19,0,0,0-.15-.25h-.37a2.87,2.87,0,0,0-1.07.31,5,5,0,0,0-1.7,1.23,4.46,4.46,0,0,0-.61.88,4.09,4.09,0,0,0-.39,2.22,3.27,3.27,0,0,0,.53,1.41,4,4,0,0,0,1,1.08,9.11,9.11,0,0,0,1,.65,6.19,6.19,0,0,0,1.73.63,6.92,6.92,0,0,0,1.43.19l.11,0h.65l.05,0c.23,0,.46,0,.69-.05s.69-.07,1-.13.79-.17,1.17-.27a12.3,12.3,0,0,0,2.22-.82,11.22,11.22,0,0,0,1.95-1.15c.36-.28.71-.57,1.06-.87.18-.17.35-.36.52-.55s.37-.45.54-.69a5.25,5.25,0,0,0,.68-1.28,4.47,4.47,0,0,0,.29-1.48c0-.22,0-.44,0-.65a3,3,0,0,0-.3-1,4.8,4.8,0,0,0-1.43-1.73,9.69,9.69,0,0,0-1.78-1.12c-.66-.32-1.34-.63-2-.94a9.11,9.11,0,0,1-2-1.22,4.92,4.92,0,0,1-.77-.81,2.93,2.93,0,0,1-.57-1.47,3.13,3.13,0,0,1,.14-1.25,3.71,3.71,0,0,1,.66-1.24,3,3,0,0,1,.86-.72,4.64,4.64,0,0,1,1.19-.4A5.63,5.63,0,0,1,959,234h.18a5.52,5.52,0,0,1,.58,0c.2,0,.4,0,.6.07s.55.12.81.19a5,5,0,0,1,1.39.58,1.51,1.51,0,0,1,.66.79,2.2,2.2,0,0,1,.13.55,2.43,2.43,0,0,1,0,.6c0,.26-.11.5-.16.75s0,.33.26.34h0a1.79,1.79,0,0,0,.72-.19,4,4,0,0,0,1.07-.68,1.42,1.42,0,0,0,.42-.52,3.21,3.21,0,0,0,.22-1.3,3,3,0,0,0-.06-.59,1.8,1.8,0,0,0-.69-1.16,4.71,4.71,0,0,0-1-.55,6.61,6.61,0,0,0-1.31-.4,7.22,7.22,0,0,0-1.31-.16Z" transform="translate(-312 -95.14)"/><path d="M965.94,235.2a3.21,3.21,0,0,1-.22,1.3,1.42,1.42,0,0,1-.42.52,4,4,0,0,1-1.07.68,1.68,1.68,0,0,1-.76.19c-.24,0-.32-.1-.26-.34s.13-.49.16-.75a2.43,2.43,0,0,0,0-.6,2.2,2.2,0,0,0-.13-.55,1.51,1.51,0,0,0-.66-.79,5,5,0,0,0-1.39-.58c-.26-.07-.53-.14-.81-.19s-.4-.05-.6-.07a5.52,5.52,0,0,0-.58,0,5.41,5.41,0,0,0-1.33.13,4.64,4.64,0,0,0-1.19.4,3,3,0,0,0-.86.72,3.71,3.71,0,0,0-.66,1.24,3.13,3.13,0,0,0-.14,1.25,2.93,2.93,0,0,0,.57,1.47,4.92,4.92,0,0,0,.77.81,9.11,9.11,0,0,0,2,1.22c.67.31,1.35.62,2,.94a9.69,9.69,0,0,1,1.78,1.12,4.8,4.8,0,0,1,1.43,1.73,3,3,0,0,1,.3,1c0,.21,0,.43,0,.65a4.47,4.47,0,0,1-.29,1.48,5.25,5.25,0,0,1-.68,1.28q-.25.36-.54.69c-.17.19-.34.38-.52.55-.35.3-.7.59-1.06.87a11.22,11.22,0,0,1-1.95,1.15,12.3,12.3,0,0,1-2.22.82c-.38.1-.77.2-1.17.27s-.67.1-1,.13-.46,0-.69.05l-.05,0H953l-.11,0a6.92,6.92,0,0,1-1.43-.19,6.19,6.19,0,0,1-1.73-.63,9.11,9.11,0,0,1-1-.65,4,4,0,0,1-1-1.08,3.27,3.27,0,0,1-.53-1.41,4.09,4.09,0,0,1,.39-2.22,4.46,4.46,0,0,1,.61-.88,5,5,0,0,1,1.7-1.23,2.87,2.87,0,0,1,1.07-.31c.12,0,.24,0,.37,0a.19.19,0,0,1,.15.25,1,1,0,0,1-.18.32,3.5,3.5,0,0,1-1.1.8.42.42,0,0,0-.22.29,7.73,7.73,0,0,0-.23.92,2.59,2.59,0,0,0,.22,1.5,3.87,3.87,0,0,0,1,1.37,4.81,4.81,0,0,0,1,.73,6.29,6.29,0,0,0,1.68.62,6.16,6.16,0,0,0,.75.11,11,11,0,0,0,1.15,0c.31,0,.61,0,.92-.08a6.49,6.49,0,0,0,1.44-.31,5.19,5.19,0,0,0,1.13-.5,4.45,4.45,0,0,0,1-.85,3.42,3.42,0,0,0,.71-1.09c.09-.23.16-.47.23-.7a3.48,3.48,0,0,0,.12-.84,3.31,3.31,0,0,0-.2-1.25,3.74,3.74,0,0,0-.61-1,3.22,3.22,0,0,0-.24-.28,7.51,7.51,0,0,0-1.5-1.18,17.23,17.23,0,0,0-1.64-.88c-.62-.3-1.26-.58-1.88-.89a6.58,6.58,0,0,1-1.31-.86,4.43,4.43,0,0,1-.95-1,3.13,3.13,0,0,1-.51-1.35,3.6,3.6,0,0,1,0-.65,4.16,4.16,0,0,1,.35-1.47,5.61,5.61,0,0,1,.71-1.18,6.31,6.31,0,0,1,1.06-1.07c.36-.28.72-.57,1.1-.83a10.69,10.69,0,0,1,1.68-.87,10.84,10.84,0,0,1,1.83-.59c.32-.07.64-.11,1-.16a6.66,6.66,0,0,1,1.41-.06,7.22,7.22,0,0,1,1.31.16,6.61,6.61,0,0,1,1.31.4,4.71,4.71,0,0,1,1,.55,1.8,1.8,0,0,1,.69,1.16A3,3,0,0,1,965.94,235.2Z" transform="translate(-312 -95.14)"/><ellipse class="cls-7" cx="467.5" cy="99.86" rx="63" ry="37.5"/><text class="cls-5" transform="translate(458.42 109.85) scale(0.89 1)">A</text><rect class="cls-3" x="0.5" y="235.36" width="312" height="140"/><path d="M624,331V470H313V331H624m1-1H312V471H625V330Z" transform="translate(-312 -95.14)"/><path d="M595,456l-.11,0a6.92,6.92,0,0,1-1.43-.19,6.19,6.19,0,0,1-1.73-.63,9.11,9.11,0,0,1-1-.65,4,4,0,0,1-1-1.08,3.27,3.27,0,0,1-.53-1.41,4.09,4.09,0,0,1,.39-2.22,4.46,4.46,0,0,1,.61-.88,5,5,0,0,1,1.7-1.23,2.87,2.87,0,0,1,1.07-.31h.37a.19.19,0,0,1,.15.25,1,1,0,0,1-.18.32,3.5,3.5,0,0,1-1.1.8.42.42,0,0,0-.22.29,7.73,7.73,0,0,0-.23.92,2.59,2.59,0,0,0,.22,1.5,3.87,3.87,0,0,0,1,1.37,4.81,4.81,0,0,0,1,.73,6.29,6.29,0,0,0,1.68.62,6.16,6.16,0,0,0,.75.11,11,11,0,0,0,1.15,0c.31,0,.61-.05.92-.08a6.49,6.49,0,0,0,1.44-.31,5.19,5.19,0,0,0,1.13-.5,4.45,4.45,0,0,0,1-.85,3.42,3.42,0,0,0,.71-1.09c.09-.23.16-.47.23-.7a3.48,3.48,0,0,0,.12-.84,3.31,3.31,0,0,0-.2-1.25,3.74,3.74,0,0,0-.61-1,3.22,3.22,0,0,0-.24-.28,7.51,7.51,0,0,0-1.5-1.18,17.23,17.23,0,0,0-1.64-.88c-.62-.3-1.26-.58-1.88-.89a6.58,6.58,0,0,1-1.31-.86,4.43,4.43,0,0,1-.95-1,3.13,3.13,0,0,1-.51-1.35,3.6,3.6,0,0,1,0-.65,4.16,4.16,0,0,1,.35-1.47,5.61,5.61,0,0,1,.71-1.18,6.31,6.31,0,0,1,1.06-1.07c.36-.28.72-.57,1.1-.83a10.69,10.69,0,0,1,1.68-.87,10.84,10.84,0,0,1,1.83-.59c.32-.07.64-.11,1-.16a6.66,6.66,0,0,1,1.41-.06,7.22,7.22,0,0,1,1.31.16,6.61,6.61,0,0,1,1.31.4,4.71,4.71,0,0,1,1,.55,1.8,1.8,0,0,1,.69,1.16,3,3,0,0,1,.06.59,3.21,3.21,0,0,1-.22,1.3,1.42,1.42,0,0,1-.42.52,4,4,0,0,1-1.07.68,1.68,1.68,0,0,1-.76.19c-.24,0-.32-.1-.26-.34s.13-.49.16-.75a2.43,2.43,0,0,0,0-.6,2.2,2.2,0,0,0-.13-.55,1.51,1.51,0,0,0-.66-.79,5,5,0,0,0-1.39-.58c-.26-.07-.53-.14-.81-.19s-.4,0-.6-.07a5.52,5.52,0,0,0-.58,0,5.41,5.41,0,0,0-1.33.13,4.64,4.64,0,0,0-1.19.4,3,3,0,0,0-.86.72,3.71,3.71,0,0,0-.66,1.24,3.13,3.13,0,0,0-.14,1.25,2.93,2.93,0,0,0,.57,1.47,4.92,4.92,0,0,0,.77.81,9.11,9.11,0,0,0,2,1.22c.67.31,1.35.62,2,.94a9.69,9.69,0,0,1,1.78,1.12,4.8,4.8,0,0,1,1.43,1.73,3,3,0,0,1,.3,1c0,.21,0,.43,0,.65a4.47,4.47,0,0,1-.29,1.48,5.25,5.25,0,0,1-.68,1.28q-.25.36-.54.69c-.17.19-.34.38-.52.55-.35.3-.7.59-1.06.87a11.22,11.22,0,0,1-1.95,1.15,12.3,12.3,0,0,1-2.22.82c-.38.1-.77.2-1.17.27s-.67.1-1,.13-.46,0-.69.05l-.05,0Z" transform="translate(-312 -95.14)"/><path class="cls-7" d="M432,397.5a47.38,47.38,0,0,0,14.31,34,100.86,100.86,0,0,1-24.81,3c-34.79,0-63-16.79-63-37.5s28.21-37.5,63-37.5a100.69,100.69,0,0,1,25.63,3.23A47.4,47.4,0,0,0,432,397.5Z" transform="translate(-312 -95.14)"/><text class="cls-5" transform="translate(84.42 311.85) scale(0.89 1)">A</text><rect class="cls-3" x="358.5" y="235.36" width="312" height="140"/><path d="M982,331V470H671V331H982m1-1H670V471H983V330Z" transform="translate(-312 -95.14)"/><path d="M953,456l-.11,0a6.92,6.92,0,0,1-1.43-.19,6.19,6.19,0,0,1-1.73-.63,9.11,9.11,0,0,1-1-.65,4,4,0,0,1-1-1.08,3.27,3.27,0,0,1-.53-1.41,4.09,4.09,0,0,1,.39-2.22,4.46,4.46,0,0,1,.61-.88,5,5,0,0,1,1.7-1.23,2.87,2.87,0,0,1,1.07-.31h.37a.19.19,0,0,1,.15.25,1,1,0,0,1-.18.32,3.5,3.5,0,0,1-1.1.8.42.42,0,0,0-.22.29,7.73,7.73,0,0,0-.23.92,2.59,2.59,0,0,0,.22,1.5,3.87,3.87,0,0,0,1,1.37,4.81,4.81,0,0,0,1,.73,6.29,6.29,0,0,0,1.68.62,6.16,6.16,0,0,0,.75.11,11,11,0,0,0,1.15,0c.31,0,.61-.05.92-.08a6.49,6.49,0,0,0,1.44-.31,5.19,5.19,0,0,0,1.13-.5,4.45,4.45,0,0,0,1-.85,3.42,3.42,0,0,0,.71-1.09c.09-.23.16-.47.23-.7a3.48,3.48,0,0,0,.12-.84,3.31,3.31,0,0,0-.2-1.25,3.74,3.74,0,0,0-.61-1,3.22,3.22,0,0,0-.24-.28,7.51,7.51,0,0,0-1.5-1.18,17.23,17.23,0,0,0-1.64-.88c-.62-.3-1.26-.58-1.88-.89a6.58,6.58,0,0,1-1.31-.86,4.43,4.43,0,0,1-.95-1,3.13,3.13,0,0,1-.51-1.35,3.6,3.6,0,0,1,0-.65,4.16,4.16,0,0,1,.35-1.47,5.61,5.61,0,0,1,.71-1.18,6.31,6.31,0,0,1,1.06-1.07c.36-.28.72-.57,1.1-.83a10.69,10.69,0,0,1,1.68-.87,10.84,10.84,0,0,1,1.83-.59c.32-.07.64-.11,1-.16a6.66,6.66,0,0,1,1.41-.06,7.22,7.22,0,0,1,1.31.16,6.61,6.61,0,0,1,1.31.4,4.71,4.71,0,0,1,1,.55,1.8,1.8,0,0,1,.69,1.16,3,3,0,0,1,.06.59,3.21,3.21,0,0,1-.22,1.3,1.42,1.42,0,0,1-.42.52,4,4,0,0,1-1.07.68,1.68,1.68,0,0,1-.76.19c-.24,0-.32-.1-.26-.34s.13-.49.16-.75a2.43,2.43,0,0,0,0-.6,2.2,2.2,0,0,0-.13-.55,1.51,1.51,0,0,0-.66-.79,5,5,0,0,0-1.39-.58c-.26-.07-.53-.14-.81-.19s-.4,0-.6-.07a5.52,5.52,0,0,0-.58,0,5.41,5.41,0,0,0-1.33.13,4.64,4.64,0,0,0-1.19.4,3,3,0,0,0-.86.72,3.71,3.71,0,0,0-.66,1.24,3.13,3.13,0,0,0-.14,1.25,2.93,2.93,0,0,0,.57,1.47,4.92,4.92,0,0,0,.77.81,9.11,9.11,0,0,0,2,1.22c.67.31,1.35.62,2,.94a9.69,9.69,0,0,1,1.78,1.12,4.8,4.8,0,0,1,1.43,1.73,3,3,0,0,1,.3,1c0,.21,0,.43,0,.65a4.47,4.47,0,0,1-.29,1.48,5.25,5.25,0,0,1-.68,1.28q-.25.36-.54.69c-.17.19-.34.38-.52.55-.35.3-.7.59-1.06.87a11.22,11.22,0,0,1-1.95,1.15,12.3,12.3,0,0,1-2.22.82c-.38.1-.77.2-1.17.27s-.67.1-1,.13-.46,0-.69.05l-.05,0Z" transform="translate(-312 -95.14)"/><ellipse class="cls-4" cx="467.5" cy="301.86" rx="63" ry="37.5"/><rect class="cls-3" x="0.5" y="437.36" width="312" height="140"/><path d="M624,533V672H313V533H624m1-1H312V673H625V532Z" transform="translate(-312 -95.14)"/><path d="M595,658l-.11,0a6.92,6.92,0,0,1-1.43-.19,6.19,6.19,0,0,1-1.73-.63,9.11,9.11,0,0,1-1-.65,4,4,0,0,1-1-1.08,3.27,3.27,0,0,1-.53-1.41,4.09,4.09,0,0,1,.39-2.22,4.46,4.46,0,0,1,.61-.88,5,5,0,0,1,1.7-1.23,2.87,2.87,0,0,1,1.07-.31h.37a.19.19,0,0,1,.15.25,1,1,0,0,1-.18.32,3.5,3.5,0,0,1-1.1.8.42.42,0,0,0-.22.29,7.73,7.73,0,0,0-.23.92,2.59,2.59,0,0,0,.22,1.5,3.87,3.87,0,0,0,1,1.37,4.81,4.81,0,0,0,1,.73,6.29,6.29,0,0,0,1.68.62,6.16,6.16,0,0,0,.75.11,11,11,0,0,0,1.15,0c.31,0,.61-.05.92-.08a6.49,6.49,0,0,0,1.44-.31,5.19,5.19,0,0,0,1.13-.5,4.45,4.45,0,0,0,1-.85,3.42,3.42,0,0,0,.71-1.09c.09-.23.16-.47.23-.7a3.48,3.48,0,0,0,.12-.84,3.31,3.31,0,0,0-.2-1.25,3.74,3.74,0,0,0-.61-1,3.22,3.22,0,0,0-.24-.28,7.51,7.51,0,0,0-1.5-1.18,17.23,17.23,0,0,0-1.64-.88c-.62-.3-1.26-.58-1.88-.89a6.58,6.58,0,0,1-1.31-.86,4.43,4.43,0,0,1-.95-1,3.13,3.13,0,0,1-.51-1.35,3.6,3.6,0,0,1,0-.65,4.16,4.16,0,0,1,.35-1.47,5.61,5.61,0,0,1,.71-1.18,6.31,6.31,0,0,1,1.06-1.07c.36-.28.72-.57,1.1-.83a10.69,10.69,0,0,1,1.68-.87,10.84,10.84,0,0,1,1.83-.59c.32-.07.64-.11,1-.16a6.66,6.66,0,0,1,1.41-.06,7.22,7.22,0,0,1,1.31.16,6.61,6.61,0,0,1,1.31.4,4.71,4.71,0,0,1,1,.55,1.8,1.8,0,0,1,.69,1.16,3,3,0,0,1,.06.59,3.21,3.21,0,0,1-.22,1.3,1.42,1.42,0,0,1-.42.52,4,4,0,0,1-1.07.68,1.68,1.68,0,0,1-.76.19c-.24,0-.32-.1-.26-.34s.13-.49.16-.75a2.43,2.43,0,0,0,0-.6,2.2,2.2,0,0,0-.13-.55,1.51,1.51,0,0,0-.66-.79,5,5,0,0,0-1.39-.58c-.26-.07-.53-.14-.81-.19s-.4-.05-.6-.07a5.52,5.52,0,0,0-.58,0,5.41,5.41,0,0,0-1.33.13,4.64,4.64,0,0,0-1.19.4,3,3,0,0,0-.86.72,3.71,3.71,0,0,0-.66,1.24,3.13,3.13,0,0,0-.14,1.25,2.93,2.93,0,0,0,.57,1.47,4.92,4.92,0,0,0,.77.81,9.11,9.11,0,0,0,2,1.22c.67.31,1.35.62,2,.94a9.69,9.69,0,0,1,1.78,1.12,4.8,4.8,0,0,1,1.43,1.73,3,3,0,0,1,.3,1c0,.21,0,.43,0,.65a4.47,4.47,0,0,1-.29,1.48,5.25,5.25,0,0,1-.68,1.28q-.25.36-.54.69c-.17.19-.34.38-.52.55-.35.3-.7.59-1.06.87a11.22,11.22,0,0,1-1.95,1.15,12.3,12.3,0,0,1-2.22.82c-.38.1-.77.2-1.17.27s-.67.1-1,.13-.46,0-.69,0l-.05,0Z" transform="translate(-312 -95.14)"/><ellipse class="cls-4" cx="109.5" cy="503.86" rx="63" ry="37.5"/><text class="cls-5" transform="translate(84.42 513.85) scale(0.89 1)">A</text><rect class="cls-3" x="358.5" y="437.36" width="312" height="140"/><path d="M982,533V672H671V533H982m1-1H670V673H983V532Z" transform="translate(-312 -95.14)"/><path d="M953,658l-.11,0a6.92,6.92,0,0,1-1.43-.19,6.19,6.19,0,0,1-1.73-.63,9.11,9.11,0,0,1-1-.65,4,4,0,0,1-1-1.08,3.27,3.27,0,0,1-.53-1.41,4.09,4.09,0,0,1,.39-2.22,4.46,4.46,0,0,1,.61-.88,5,5,0,0,1,1.7-1.23,2.87,2.87,0,0,1,1.07-.31h.37a.19.19,0,0,1,.15.25,1,1,0,0,1-.18.32,3.5,3.5,0,0,1-1.1.8.42.42,0,0,0-.22.29,7.73,7.73,0,0,0-.23.92,2.59,2.59,0,0,0,.22,1.5,3.87,3.87,0,0,0,1,1.37,4.81,4.81,0,0,0,1,.73,6.29,6.29,0,0,0,1.68.62,6.16,6.16,0,0,0,.75.11,11,11,0,0,0,1.15,0c.31,0,.61-.05.92-.08a6.49,6.49,0,0,0,1.44-.31,5.19,5.19,0,0,0,1.13-.5,4.45,4.45,0,0,0,1-.85,3.42,3.42,0,0,0,.71-1.09c.09-.23.16-.47.23-.7a3.48,3.48,0,0,0,.12-.84,3.31,3.31,0,0,0-.2-1.25,3.74,3.74,0,0,0-.61-1,3.22,3.22,0,0,0-.24-.28,7.51,7.51,0,0,0-1.5-1.18,17.23,17.23,0,0,0-1.64-.88c-.62-.3-1.26-.58-1.88-.89a6.58,6.58,0,0,1-1.31-.86,4.43,4.43,0,0,1-.95-1,3.13,3.13,0,0,1-.51-1.35,3.6,3.6,0,0,1,0-.65,4.16,4.16,0,0,1,.35-1.47,5.61,5.61,0,0,1,.71-1.18,6.31,6.31,0,0,1,1.06-1.07c.36-.28.72-.57,1.1-.83a10.69,10.69,0,0,1,1.68-.87,10.84,10.84,0,0,1,1.83-.59c.32-.07.64-.11,1-.16a6.66,6.66,0,0,1,1.41-.06,7.22,7.22,0,0,1,1.31.16,6.61,6.61,0,0,1,1.31.4,4.71,4.71,0,0,1,1,.55,1.8,1.8,0,0,1,.69,1.16,3,3,0,0,1,.06.59,3.21,3.21,0,0,1-.22,1.3,1.42,1.42,0,0,1-.42.52,4,4,0,0,1-1.07.68,1.68,1.68,0,0,1-.76.19c-.24,0-.32-.1-.26-.34s.13-.49.16-.75a2.43,2.43,0,0,0,0-.6,2.2,2.2,0,0,0-.13-.55,1.51,1.51,0,0,0-.66-.79,5,5,0,0,0-1.39-.58c-.26-.07-.53-.14-.81-.19s-.4-.05-.6-.07a5.52,5.52,0,0,0-.58,0,5.41,5.41,0,0,0-1.33.13,4.64,4.64,0,0,0-1.19.4,3,3,0,0,0-.86.72,3.71,3.71,0,0,0-.66,1.24,3.13,3.13,0,0,0-.14,1.25,2.93,2.93,0,0,0,.57,1.47,4.92,4.92,0,0,0,.77.81,9.11,9.11,0,0,0,2,1.22c.67.31,1.35.62,2,.94a9.69,9.69,0,0,1,1.78,1.12,4.8,4.8,0,0,1,1.43,1.73,3,3,0,0,1,.3,1c0,.21,0,.43,0,.65a4.47,4.47,0,0,1-.29,1.48,5.25,5.25,0,0,1-.68,1.28q-.25.36-.54.69c-.17.19-.34.38-.52.55-.35.3-.7.59-1.06.87a11.22,11.22,0,0,1-1.95,1.15,12.3,12.3,0,0,1-2.22.82c-.38.1-.77.2-1.17.27s-.67.1-1,.13-.46,0-.69,0l-.05,0Z" transform="translate(-312 -95.14)"/><ellipse class="cls-4" cx="467.5" cy="503.86" rx="63" ry="37.5"/><text class="cls-5" transform="translate(458.42 513.85) scale(0.89 1)">A</text><g class="cls-8"><path class="cls-9" d="M527,397.5a47.5,47.5,0,0,1-80.69,34c22.46-5.73,38.19-19,38.19-34.48,0-15.28-15.35-28.42-37.37-34.27A47.51,47.51,0,0,1,527,397.5Z" transform="translate(-312 -95.14)"/></g><g class="cls-8"><circle class="cls-9" cx="548.5" cy="297.36" r="47"/><path class="cls-9" d="M860.5,346A46.5,46.5,0,1,1,814,392.5,46.55,46.55,0,0,1,860.5,346m0-1A47.5,47.5,0,1,0,908,392.5,47.5,47.5,0,0,0,860.5,345Z" transform="translate(-312 -95.14)"/></g><g class="cls-8"><circle class="cls-9" cx="143.5" cy="504.36" r="23"/><path class="cls-9" d="M455.5,577A22.5,22.5,0,1,1,433,599.5,22.52,22.52,0,0,1,455.5,577m0-1A23.5,23.5,0,1,0,479,599.5,23.5,23.5,0,0,0,455.5,576Z" transform="translate(-312 -95.14)"/></g><g class="cls-8"><circle class="cls-9" cx="614.5" cy="489.36" r="47"/><path class="cls-9" d="M926.5,538A46.5,46.5,0,1,1,880,584.5,46.55,46.55,0,0,1,926.5,538m0-1A47.5,47.5,0,1,0,974,584.5,47.5,47.5,0,0,0,926.5,537Z" transform="translate(-312 -95.14)"/></g><text class="cls-10" transform="translate(183.42 311.85) scale(0.89 1)">B</text><text class="cls-10" transform="translate(135.42 513.85) scale(0.89 1)">B</text><text class="cls-10" transform="translate(607.42 500.85) scale(0.89 1)">B</text><text class="cls-11" transform="translate(567.42 110.33)">A</text><text class="cls-11" transform="translate(595.01 97.61) scale(0.58)">C</text><g class="cls-8"><path class="cls-12" d="M484.5,397c0,15.47-15.73,28.75-38.19,34.48a47.51,47.51,0,0,1,.82-68.75C469.15,368.58,484.5,381.72,484.5,397Z" transform="translate(-312 -95.14)"/></g><g class="cls-8"><path class="cls-9" d="M484.5,397c0,15.47-15.73,28.75-38.19,34.48a47.51,47.51,0,0,1,.82-68.75C469.15,368.58,484.5,381.72,484.5,397Z" transform="translate(-312 -95.14)"/><path class="cls-9" d="M484.5,397c0,15.47-15.73,28.75-38.19,34.48a47.51,47.51,0,0,1,.82-68.75C469.15,368.58,484.5,381.72,484.5,397Z" transform="translate(-312 -95.14)"/></g><path class="cls-13" d="M908,392.5a47.5,47.5,0,0,1-83.64,30.83c-11.43,6.9-27.31,11.17-44.86,11.17-34.79,0-63-16.79-63-37.5s28.21-37.5,63-37.5c15.3,0,29.31,3.25,40.22,8.64A47.5,47.5,0,0,1,908,392.5Z" transform="translate(-312 -95.14)"/><path class="cls-14" d="M484.5,397c0,15.47-15.73,28.75-38.19,34.48a47.51,47.51,0,0,1,.82-68.75C469.15,368.58,484.5,381.72,484.5,397Z" transform="translate(-312 -95.14)"/><text class="cls-10" transform="translate(567.42 311.85) scale(0.89 1)">B</text><text class="cls-5" transform="translate(458.42 311.85) scale(0.89 1)">A</text><text class="cls-15" transform="translate(22.92 26.77)"><tspan xml:space="preserve">sample space      and event</tspan><tspan class="cls-16" x="245.24" y="0" xml:space="preserve"> A</tspan></text><path d="M472.49,123l-.12,0a7.72,7.72,0,0,1-1.51-.2,6.54,6.54,0,0,1-1.84-.67,12.32,12.32,0,0,1-1-.69,4.3,4.3,0,0,1-1-1.14,3.57,3.57,0,0,1-.57-1.5,4.43,4.43,0,0,1,0-1.09,4.31,4.31,0,0,1,.4-1.26,4.59,4.59,0,0,1,.64-.94,5.16,5.16,0,0,1,1.8-1.3,3.19,3.19,0,0,1,1.14-.33,2.54,2.54,0,0,1,.39,0,.19.19,0,0,1,.16.26,1.41,1.41,0,0,1-.19.34,3.63,3.63,0,0,1-1.17.85.47.47,0,0,0-.23.31c-.09.32-.19.65-.25,1a2.73,2.73,0,0,0,.24,1.59,4.2,4.2,0,0,0,1.09,1.45,5,5,0,0,0,1.11.77,6.83,6.83,0,0,0,1.78.66,5.32,5.32,0,0,0,.8.12c.41,0,.81,0,1.22,0s.65-.06,1-.08a7.33,7.33,0,0,0,1.53-.33,6.05,6.05,0,0,0,1.19-.54,4.72,4.72,0,0,0,1.1-.89,3.93,3.93,0,0,0,.76-1.17c.09-.24.17-.49.24-.74a3.84,3.84,0,0,0-.09-2.21,3.9,3.9,0,0,0-.65-1.11l-.24-.29a8.67,8.67,0,0,0-1.59-1.25,18.34,18.34,0,0,0-1.75-.94c-.66-.31-1.33-.61-2-.93a7.2,7.2,0,0,1-1.4-.92,4.76,4.76,0,0,1-1-1.09,3.36,3.36,0,0,1-.54-1.44,5.22,5.22,0,0,1,0-.69,4.46,4.46,0,0,1,.38-1.56,6,6,0,0,1,.75-1.24,6.36,6.36,0,0,1,1.12-1.14c.38-.3.76-.6,1.17-.87a10.75,10.75,0,0,1,1.78-.93,11.22,11.22,0,0,1,1.94-.62c.34-.08.68-.12,1-.18a8.22,8.22,0,0,1,1.49-.06,7.24,7.24,0,0,1,1.39.17,8.26,8.26,0,0,1,1.39.42,5.26,5.26,0,0,1,1.1.58,1.92,1.92,0,0,1,.73,1.24,3.58,3.58,0,0,1-.17,2,1.71,1.71,0,0,1-.44.56,4.61,4.61,0,0,1-1.13.72,1.89,1.89,0,0,1-.81.19c-.25,0-.34-.1-.28-.35a7.1,7.1,0,0,0,.17-.8,2.23,2.23,0,0,0,0-.63,3,3,0,0,0-.13-.59,1.65,1.65,0,0,0-.71-.83,5.16,5.16,0,0,0-1.47-.62,8.26,8.26,0,0,0-.86-.2c-.21,0-.42-.06-.63-.08l-.62,0a5.54,5.54,0,0,0-1.41.14,4.69,4.69,0,0,0-1.26.43,2.89,2.89,0,0,0-.91.76,3.74,3.74,0,0,0-.7,1.32,3.14,3.14,0,0,0,.45,2.87,5.21,5.21,0,0,0,.82.87,9.3,9.3,0,0,0,2.09,1.28l2.13,1a10.87,10.87,0,0,1,1.89,1.18,5.25,5.25,0,0,1,1.51,1.83,3.5,3.5,0,0,1,.32,1.09c0,.23,0,.46,0,.69a4.91,4.91,0,0,1-.3,1.57,5.78,5.78,0,0,1-.72,1.37c-.19.25-.38.5-.58.73a7.67,7.67,0,0,1-.56.58c-.36.31-.73.63-1.12.92a11.88,11.88,0,0,1-2.06,1.22,13.27,13.27,0,0,1-2.35.87c-.41.1-.82.21-1.24.29s-.72.1-1.08.14-.49,0-.74,0l-.06,0Z" transform="translate(-312 -95.14)"/><rect class="cls-17" x="358" y="32.86" width="313" height="141"/><text class="cls-15" transform="translate(439.4 26.77)">complement:<tspan class="cls-16" x="120.08" y="0"> </tspan><tspan x="124.56" y="0">A</tspan></text><text class="cls-15" transform="translate(580.57 19.11) scale(0.58)">C</text><text class="cls-15" transform="translate(78.66 228.77)">intersection:<tspan class="cls-16" x="113.69" y="0" xml:space="preserve"> A</tspan><tspan x="133.51" y="0" xml:space="preserve">     B</tspan></text><path class="cls-3" d="M544.87,323.9H532.65a.35.35,0,0,0,.26-.16.84.84,0,0,0,.11-.47c0-2.91,0-5.83,0-8.75a5.31,5.31,0,0,1,0-.69,6.36,6.36,0,0,1,.16-.73,3.29,3.29,0,0,1,.87-1.44,4.22,4.22,0,0,1,.56-.47,5.91,5.91,0,0,1,2.05-.91q.43-.11.9-.18a7,7,0,0,1,.79-.08c.32,0,.63,0,1,0l.45,0,.74.14a6,6,0,0,1,1.45.48,5.81,5.81,0,0,1,1,.64,3.83,3.83,0,0,1,.73.72,3.22,3.22,0,0,1,.57,1.14,3.14,3.14,0,0,1,.13.86q0,4.66,0,9.32a.5.5,0,0,0,.17.43A.61.61,0,0,0,544.87,323.9Z" transform="translate(-312 -95.14)"/><path class="cls-3" d="M532.45,323.9H532V307h14.47V323.9h-1.44a.34.34,0,0,0,.33-.29,1.84,1.84,0,0,0,.06-.47q0-4.17,0-8.33c0-.25,0-.5,0-.75a6.7,6.7,0,0,0-.08-.77,3.86,3.86,0,0,0-.53-1.39,4.56,4.56,0,0,0-.91-1.1,6.57,6.57,0,0,0-2.23-1.27,7.56,7.56,0,0,0-1.56-.38,8.65,8.65,0,0,0-.89-.1,9.37,9.37,0,0,0-1.06,0,6.85,6.85,0,0,0-.91.11c-.35.06-.7.14-1,.23a7.66,7.66,0,0,0-1.59.67,5.38,5.38,0,0,0-1,.74,6.76,6.76,0,0,0-.63.68,4.36,4.36,0,0,0-.9,2.54v9.05a2.88,2.88,0,0,0,0,.41.44.44,0,0,0,.3.4Z" transform="translate(-312 -95.14)"/><path d="M532.45,323.9l-.08,0a.44.44,0,0,1-.3-.4,2.88,2.88,0,0,1,0-.41V314a4.36,4.36,0,0,1,.9-2.54,6.76,6.76,0,0,1,.63-.68,5.38,5.38,0,0,1,1-.74,7.66,7.66,0,0,1,1.59-.67c.35-.09.7-.17,1-.23a6.85,6.85,0,0,1,.91-.11,9.37,9.37,0,0,1,1.06,0,8.65,8.65,0,0,1,.89.1,7.56,7.56,0,0,1,1.56.38,6.57,6.57,0,0,1,2.23,1.27,4.56,4.56,0,0,1,.91,1.1,3.86,3.86,0,0,1,.53,1.39,6.7,6.7,0,0,1,.08.77c0,.25,0,.5,0,.75q0,4.15,0,8.33a1.84,1.84,0,0,1-.06.47.34.34,0,0,1-.33.29h-.18a.61.61,0,0,1-.23-.11.5.5,0,0,1-.17-.43q0-4.65,0-9.32a3.14,3.14,0,0,0-.13-.86,3.22,3.22,0,0,0-.57-1.14,3.83,3.83,0,0,0-.73-.72,5.81,5.81,0,0,0-1-.64,6,6,0,0,0-1.45-.48l-.74-.14-.45,0c-.32,0-.63,0-1,0a7,7,0,0,0-.79.08q-.47.07-.9.18a5.91,5.91,0,0,0-2.05.91,4.22,4.22,0,0,0-.56.47,3.29,3.29,0,0,0-.87,1.44,6.36,6.36,0,0,0-.16.73,5.31,5.31,0,0,0,0,.69c0,2.92,0,5.84,0,8.75a.84.84,0,0,1-.11.47.35.35,0,0,1-.26.16h-.2Z" transform="translate(-312 -95.14)"/><text class="cls-15" transform="translate(453.11 228.77)">union:<tspan class="cls-16" x="58.78" y="0" xml:space="preserve"> A</tspan><tspan x="78.6" y="0" xml:space="preserve">     B</tspan></text><path class="cls-3" d="M857.52,324H851V308h14.57v16h-7.52l0,0c.25,0,.5,0,.74-.05s.59-.08.87-.13a7.89,7.89,0,0,0,1.65-.51,7.3,7.3,0,0,0,1.31-.73,5.1,5.1,0,0,0,.87-.8,4.16,4.16,0,0,0,.78-1.37,4,4,0,0,0,.21-1.33q0-4.2,0-8.41a2.71,2.71,0,0,0,0-.4.39.39,0,0,0-.2-.31.65.65,0,0,0-.31,0,.36.36,0,0,0-.39.3,2,2,0,0,0-.06.48v8.23a4.17,4.17,0,0,1,0,.71,3.18,3.18,0,0,1-.33,1,4.89,4.89,0,0,1-.41.6,3.69,3.69,0,0,1-.86.76,5.78,5.78,0,0,1-1,.51,6.56,6.56,0,0,1-1.14.36c-.34.07-.68.12-1,.17s-.51.05-.77.06a4.34,4.34,0,0,1-.51,0c-.32,0-.64,0-1-.09a9,9,0,0,1-1-.21,5.62,5.62,0,0,1-1.46-.6,4.85,4.85,0,0,1-1.14-.87,4,4,0,0,1-.57-.86,2.93,2.93,0,0,1-.27-1.23c0-2.55,0-5.09,0-7.64,0-.41,0-.82,0-1.23a.46.46,0,0,0-.62-.43.51.51,0,0,0-.2.12.58.58,0,0,0-.14.43v8.72a4.16,4.16,0,0,0,.55,2,4.4,4.4,0,0,0,.71.9,7.34,7.34,0,0,0,.6.51,6.38,6.38,0,0,0,1.8.92,8.15,8.15,0,0,0,1.77.42l1,.08Z" transform="translate(-312 -95.14)"/><path d="M857.52,324l-.06,0-1-.08a8.15,8.15,0,0,1-1.77-.42,6.38,6.38,0,0,1-1.8-.92,7.34,7.34,0,0,1-.6-.51,4.4,4.4,0,0,1-.71-.9,4.16,4.16,0,0,1-.55-2v-8.72a.58.58,0,0,1,.14-.43.51.51,0,0,1,.2-.12.46.46,0,0,1,.62.43c0,.41,0,.82,0,1.23,0,2.55,0,5.09,0,7.64a2.93,2.93,0,0,0,.27,1.23,4,4,0,0,0,.57.86,4.85,4.85,0,0,0,1.14.87,5.62,5.62,0,0,0,1.46.6,9,9,0,0,0,1,.21c.31.05.63.06,1,.09a4.34,4.34,0,0,0,.51,0c.26,0,.51,0,.77-.06s.68-.1,1-.17a6.56,6.56,0,0,0,1.14-.36,5.78,5.78,0,0,0,1-.51,3.69,3.69,0,0,0,.86-.76,4.89,4.89,0,0,0,.41-.6,3.18,3.18,0,0,0,.33-1,4.17,4.17,0,0,0,0-.71v-8.23a2,2,0,0,1,.06-.48.36.36,0,0,1,.39-.3.65.65,0,0,1,.31,0,.39.39,0,0,1,.2.31,2.71,2.71,0,0,1,0,.4q0,4.21,0,8.41a4,4,0,0,1-.21,1.33,4.16,4.16,0,0,1-.78,1.37,5.1,5.1,0,0,1-.87.8,7.3,7.3,0,0,1-1.31.73,7.89,7.89,0,0,1-1.65.51c-.28.05-.58.1-.87.13s-.49,0-.74.05l0,0Z" transform="translate(-312 -95.14)"/><text class="cls-15" transform="translate(95.43 430.77)"><tspan xml:space="preserve">subset: B   </tspan><tspan class="cls-16" x="102.23" y="0" xml:space="preserve"> A</tspan></text><text class="cls-15" transform="translate(479.95 430.77)">disjoint</text><path class="cls-3" d="M496,518.34V512h15.17v13h-2.31a.38.38,0,0,0,.34-.27.94.94,0,0,0,0-.29.27.27,0,0,0-.18-.21,1.16,1.16,0,0,0-.31-.07h-1.66l-4.6,0a4.11,4.11,0,0,1-.78-.07,7.73,7.73,0,0,1-.95-.23,5,5,0,0,1-1.25-.56,5.62,5.62,0,0,1-1-.8c-.15-.15-.29-.31-.43-.48a4.6,4.6,0,0,1-.52-.78,4.84,4.84,0,0,1-.52-1.37,5.33,5.33,0,0,1-.1-.79,4.6,4.6,0,0,1,0-1,6.3,6.3,0,0,1,.18-.84,5.5,5.5,0,0,1,1.52-2.33,5.9,5.9,0,0,1,.74-.58,5.59,5.59,0,0,1,1.18-.57,9,9,0,0,1,.89-.25,6.27,6.27,0,0,1,.87-.11l6.36,0a1.33,1.33,0,0,0,.28,0,.32.32,0,0,0,.26-.25.88.88,0,0,0,0-.23.28.28,0,0,0-.18-.27,1.16,1.16,0,0,0-.31-.07h-6.57c-.21,0-.43,0-.64.07s-.64.13-1,.22a6.21,6.21,0,0,0-1.65.77,5.55,5.55,0,0,0-1.13.92c-.17.18-.33.36-.49.55a5.1,5.1,0,0,0-.57.88,5.79,5.79,0,0,0-.49,1.21,5.09,5.09,0,0,0-.18,1Z" transform="translate(-312 -95.14)"/><path d="M496,518.34l0-.23a5.09,5.09,0,0,1,.18-1,5.79,5.79,0,0,1,.49-1.21,5.1,5.1,0,0,1,.57-.88c.16-.19.32-.37.49-.55a5.55,5.55,0,0,1,1.13-.92,6.21,6.21,0,0,1,1.65-.77c.32-.09.64-.16,1-.22s.43-.05.64-.07h6.57a1.16,1.16,0,0,1,.31.07.28.28,0,0,1,.18.27.88.88,0,0,1,0,.23.32.32,0,0,1-.26.25,1.33,1.33,0,0,1-.28,0l-6.36,0a6.27,6.27,0,0,0-.87.11,9,9,0,0,0-.89.25,5.59,5.59,0,0,0-1.18.57,5.9,5.9,0,0,0-.74.58,5.5,5.5,0,0,0-1.52,2.33,6.3,6.3,0,0,0-.18.84,4.6,4.6,0,0,0,0,1,5.33,5.33,0,0,0,.1.79,4.84,4.84,0,0,0,.52,1.37,4.6,4.6,0,0,0,.52.78c.14.17.28.33.43.48a5.62,5.62,0,0,0,1,.8,5,5,0,0,0,1.25.56,7.73,7.73,0,0,0,.95.23,4.11,4.11,0,0,0,.78.07l4.6,0h1.66a1.16,1.16,0,0,1,.31.07.27.27,0,0,1,.18.21.94.94,0,0,1,0,.29.38.38,0,0,1-.34.27h-6.75l-.34,0-.67-.11a6.41,6.41,0,0,1-1.4-.47,6.76,6.76,0,0,1-1-.58,5.46,5.46,0,0,1-.87-.72,6.52,6.52,0,0,1-.5-.55,5.07,5.07,0,0,1-.58-.87,5.57,5.57,0,0,1-.53-1.29,6,6,0,0,1-.18-1l0-.23Z" transform="translate(-312 -95.14)"/><path class="cls-3" d="M496,519.18l0,.23a6,6,0,0,0,.18,1,5.57,5.57,0,0,0,.53,1.29,5.07,5.07,0,0,0,.58.87,6.52,6.52,0,0,0,.5.55,5.46,5.46,0,0,0,.87.72,6.76,6.76,0,0,0,1,.58,6.41,6.41,0,0,0,1.4.47l.67.11.34,0H496Z" transform="translate(-312 -95.14)"/></svg>