<?xml version="1.0" encoding="utf-8"?>
<!-- Generator: Adobe Illustrator 22.1.0, SVG Export Plug-In . SVG Version: 6.00 Build 0)  -->
<svg version="1.1" id="Layer_1" xmlns="http://www.w3.org/2000/svg" xmlns:xlink="http://www.w3.org/1999/xlink" x="0px" y="0px"
	 viewBox="0 0 341.9 165.3" style="enable-background:new 0 0 341.9 165.3;" xml:space="preserve">
<style type="text/css">
	.st0{fill:#FFFFFF;}
	.st1{opacity:0.75;fill:#0000FF;stroke:#000000;stroke-miterlimit:10;}
	.st2{fill:none;}
	.st3{fill:none;stroke:#000000;stroke-miterlimit:10;}
</style>
<g>
	<rect x="0.5" y="22.2" class="st0" width="312" height="140"/>
	<path d="M312,22.7v139H1v-139H312 M313,21.7H0v141h313V21.7L313,21.7z"/>
</g>
<g>
	<path d="M329,147.7c0,0-0.1,0-0.1,0c-0.5,0-1-0.1-1.4-0.2c-0.6-0.1-1.2-0.3-1.7-0.6c-0.3-0.2-0.7-0.4-1-0.7c-0.4-0.3-0.7-0.7-1-1.1
		c-0.3-0.4-0.5-0.9-0.5-1.4c0-0.3,0-0.7,0-1c0.1-0.4,0.2-0.8,0.4-1.2c0.2-0.3,0.4-0.6,0.6-0.9c0.5-0.5,1.1-0.9,1.7-1.2
		c0.3-0.2,0.7-0.3,1.1-0.3c0.1,0,0.2,0,0.4,0c0.1,0,0.2,0.1,0.2,0.2c0,0.1-0.1,0.2-0.2,0.3c-0.3,0.3-0.7,0.6-1.1,0.8
		c-0.1,0.1-0.2,0.2-0.2,0.3c-0.1,0.3-0.2,0.6-0.2,0.9c-0.1,0.5,0,1,0.2,1.5c0.2,0.5,0.6,1,1,1.4c0.3,0.3,0.7,0.5,1.1,0.7
		c0.5,0.3,1.1,0.5,1.7,0.6c0.2,0.1,0.5,0.1,0.8,0.1c0.4,0,0.8,0,1.1,0c0.3,0,0.6-0.1,0.9-0.1c0.5,0,1-0.2,1.4-0.3
		c0.4-0.1,0.8-0.3,1.1-0.5c0.4-0.2,0.7-0.5,1-0.8c0.3-0.3,0.5-0.7,0.7-1.1c0.1-0.2,0.2-0.5,0.2-0.7c0.1-0.3,0.1-0.6,0.1-0.8
		c0-0.4,0-0.8-0.2-1.2c-0.1-0.4-0.3-0.7-0.6-1c-0.1-0.1-0.2-0.2-0.2-0.3c-0.4-0.5-1-0.8-1.5-1.2c-0.5-0.3-1.1-0.6-1.6-0.9
		c-0.6-0.3-1.3-0.6-1.9-0.9c-0.5-0.2-0.9-0.5-1.3-0.9c-0.4-0.3-0.7-0.6-0.9-1c-0.3-0.4-0.5-0.9-0.5-1.4c0-0.2-0.1-0.4,0-0.6
		c0-0.5,0.1-1,0.4-1.5c0.2-0.4,0.4-0.8,0.7-1.2c0.3-0.4,0.7-0.8,1.1-1.1c0.4-0.3,0.7-0.6,1.1-0.8c0.5-0.4,1.1-0.6,1.7-0.9
		c0.6-0.3,1.2-0.4,1.8-0.6c0.3-0.1,0.6-0.1,1-0.2c0.5-0.1,0.9-0.1,1.4-0.1c0.4,0,0.9,0.1,1.3,0.2c0.4,0.1,0.9,0.2,1.3,0.4
		c0.4,0.2,0.7,0.3,1,0.5c0.4,0.3,0.6,0.7,0.7,1.2c0,0.2,0.1,0.4,0.1,0.6c0,0.4,0,0.9-0.2,1.3c-0.1,0.2-0.2,0.4-0.4,0.5
		c-0.3,0.3-0.7,0.5-1.1,0.7c-0.2,0.1-0.5,0.2-0.8,0.2c-0.2,0-0.3-0.1-0.3-0.3c0.1-0.3,0.1-0.5,0.2-0.8c0-0.2,0-0.4,0-0.6
		c0-0.2-0.1-0.4-0.1-0.6c-0.1-0.3-0.4-0.6-0.7-0.8c-0.4-0.3-0.9-0.5-1.4-0.6c-0.3-0.1-0.5-0.1-0.8-0.2c-0.2,0-0.4-0.1-0.6-0.1
		c-0.2,0-0.4,0-0.6,0c-0.5,0-0.9,0-1.3,0.1c-0.4,0.1-0.8,0.2-1.2,0.4c-0.3,0.2-0.6,0.4-0.9,0.7c-0.3,0.4-0.5,0.8-0.7,1.2
		c-0.1,0.4-0.2,0.8-0.1,1.2c0.1,0.5,0.3,1,0.6,1.5c0.2,0.3,0.5,0.6,0.8,0.8c0.6,0.5,1.3,0.9,2,1.2c0.7,0.3,1.3,0.6,2,0.9
		c0.6,0.3,1.2,0.7,1.8,1.1c0.6,0.5,1.1,1,1.4,1.7c0.2,0.3,0.3,0.7,0.3,1c0,0.2,0,0.4,0,0.7c0,0.5-0.1,1-0.3,1.5
		c-0.2,0.5-0.4,0.9-0.7,1.3c-0.2,0.2-0.4,0.5-0.5,0.7c-0.2,0.2-0.3,0.4-0.5,0.5c-0.3,0.3-0.7,0.6-1.1,0.9c-0.6,0.5-1.3,0.8-1.9,1.1
		c-0.7,0.3-1.4,0.6-2.2,0.8c-0.4,0.1-0.8,0.2-1.2,0.3c-0.3,0.1-0.7,0.1-1,0.1c-0.2,0-0.5,0-0.7,0c0,0,0,0-0.1,0
		C329.5,147.7,329.2,147.7,329,147.7z"/>
</g>
<ellipse class="st1" cx="109.5" cy="88.7" rx="63" ry="37.5"/>
<g>
	<path class="st0" d="M112.6,92h-6.8l-1.2,3.1c-0.3,0.8-0.4,1.3-0.4,1.7c0,0.3,0.1,0.6,0.4,0.8c0.3,0.2,0.8,0.4,1.7,0.4v0.5h-5.5
		v-0.5c0.7-0.1,1.2-0.3,1.4-0.6c0.4-0.5,0.9-1.4,1.5-2.9l6.2-16.3h0.5l6.1,16.5c0.5,1.3,0.9,2.2,1.3,2.6c0.4,0.4,1,0.6,1.7,0.7v0.5
		h-6.9v-0.5c0.7,0,1.2-0.2,1.4-0.4c0.2-0.2,0.4-0.5,0.4-0.8c0-0.4-0.2-1.1-0.5-2L112.6,92z M112.2,90.9l-3-8l-3.1,8H112.2z"/>
</g>
<g>
	<rect x="1.9" y="2.6" class="st2" width="311.1" height="38.1"/>
	<path d="M3.9,10.5c0,1.3,0.3,2.3,0.9,3c0.6,0.7,1.3,1.1,2.2,1.1c0.6,0,1-0.2,1.5-0.5c0.4-0.3,0.8-0.8,1-1.6l0.3,0.2
		c-0.1,0.8-0.5,1.6-1.1,2.3c-0.6,0.7-1.4,1-2.3,1c-1,0-1.9-0.4-2.6-1.2C3,14.1,2.6,13,2.6,11.7c0-1.5,0.4-2.6,1.1-3.4
		C4.5,7.4,5.4,7,6.5,7c1,0,1.7,0.3,2.3,0.9c0.6,0.6,0.9,1.5,0.9,2.5H3.9z M3.9,10h3.9c0-0.5-0.1-0.9-0.2-1.2C7.5,8.5,7.3,8.2,7,8
		C6.7,7.8,6.4,7.7,6,7.7c-0.5,0-1,0.2-1.4,0.6C4.2,8.7,4,9.2,3.9,10z"/>
	<path d="M10.5,7.3h4v0.3h-0.3c-0.2,0-0.4,0.1-0.6,0.2c-0.1,0.1-0.2,0.3-0.2,0.5c0,0.2,0.1,0.5,0.2,0.8l2,4.7l2-4.9
		c0.1-0.3,0.2-0.6,0.2-0.8c0-0.1,0-0.2-0.1-0.2c-0.1-0.1-0.2-0.2-0.3-0.2c-0.1,0-0.3-0.1-0.6-0.1V7.3h2.8v0.3
		c-0.3,0-0.5,0.1-0.7,0.2c-0.2,0.2-0.4,0.5-0.6,0.9l-3,7.3H15l-3-7.2c-0.1-0.3-0.3-0.6-0.4-0.7c-0.1-0.1-0.3-0.3-0.5-0.4
		c-0.1-0.1-0.3-0.1-0.6-0.2V7.3z"/>
	<path d="M21.9,10.5c0,1.3,0.3,2.3,0.9,3c0.6,0.7,1.3,1.1,2.2,1.1c0.6,0,1-0.2,1.5-0.5c0.4-0.3,0.8-0.8,1-1.6l0.3,0.2
		c-0.1,0.8-0.5,1.6-1.1,2.3c-0.6,0.7-1.4,1-2.3,1c-1,0-1.9-0.4-2.6-1.2c-0.7-0.8-1.1-1.9-1.1-3.2c0-1.5,0.4-2.6,1.1-3.4
		C22.4,7.4,23.4,7,24.5,7c1,0,1.7,0.3,2.3,0.9c0.6,0.6,0.9,1.5,0.9,2.5H21.9z M21.9,10h3.9c0-0.5-0.1-0.9-0.2-1.2
		c-0.2-0.3-0.4-0.6-0.7-0.8c-0.3-0.2-0.6-0.3-1-0.3c-0.5,0-1,0.2-1.4,0.6C22.2,8.7,21.9,9.2,21.9,10z"/>
	<path d="M31.4,8.8c1-1.2,1.9-1.8,2.8-1.8c0.5,0,0.9,0.1,1.2,0.3C35.7,7.6,36,8,36.2,8.5c0.1,0.4,0.2,0.9,0.2,1.7v3.6
		c0,0.5,0,0.9,0.1,1.1c0.1,0.2,0.2,0.3,0.3,0.4c0.2,0.1,0.4,0.1,0.8,0.1v0.3h-4.2v-0.3h0.2c0.4,0,0.7-0.1,0.8-0.2
		c0.2-0.1,0.3-0.3,0.3-0.5c0-0.1,0-0.4,0-0.9v-3.5c0-0.8-0.1-1.3-0.3-1.7c-0.2-0.3-0.5-0.5-1-0.5c-0.7,0-1.5,0.4-2.2,1.2v4.5
		c0,0.6,0,0.9,0.1,1.1c0.1,0.2,0.2,0.3,0.4,0.4c0.2,0.1,0.5,0.1,0.9,0.1v0.3h-4.2v-0.3h0.2c0.4,0,0.7-0.1,0.9-0.3
		c0.2-0.2,0.2-0.6,0.2-1.3v-3.2c0-1,0-1.6-0.1-1.9c0-0.2-0.1-0.4-0.2-0.5c-0.1-0.1-0.2-0.1-0.4-0.1c-0.2,0-0.4,0-0.6,0.1l-0.1-0.3
		L31,7h0.4V8.8z"/>
	<path d="M40.8,4.5v2.8h2v0.6h-2v5.5c0,0.6,0.1,0.9,0.2,1.1c0.2,0.2,0.4,0.3,0.6,0.3c0.2,0,0.4-0.1,0.6-0.2c0.2-0.1,0.3-0.3,0.4-0.6
		h0.4c-0.2,0.6-0.5,1.1-0.9,1.4c-0.4,0.3-0.8,0.5-1.2,0.5c-0.3,0-0.6-0.1-0.8-0.2c-0.3-0.2-0.5-0.4-0.6-0.7
		c-0.1-0.3-0.2-0.7-0.2-1.4V7.9H38V7.6c0.3-0.1,0.7-0.4,1-0.7c0.4-0.3,0.7-0.7,1-1.2c0.1-0.2,0.3-0.7,0.6-1.3H40.8z"/>
	<path d="M53.9,7v2.9h-0.3c-0.2-0.9-0.5-1.5-0.9-1.9c-0.4-0.3-0.8-0.5-1.4-0.5c-0.4,0-0.8,0.1-1,0.3c-0.3,0.2-0.4,0.5-0.4,0.8
		c0,0.3,0.1,0.6,0.3,0.9c0.2,0.3,0.6,0.5,1.2,0.8l1.4,0.7c1.3,0.6,1.9,1.4,1.9,2.4c0,0.8-0.3,1.4-0.9,1.9c-0.6,0.5-1.2,0.7-2,0.7
		c-0.5,0-1.1-0.1-1.8-0.3c-0.2-0.1-0.4-0.1-0.5-0.1c-0.1,0-0.3,0.1-0.3,0.2h-0.3v-3h0.3c0.2,0.9,0.5,1.5,1,2c0.5,0.4,1,0.7,1.6,0.7
		c0.4,0,0.8-0.1,1-0.4c0.3-0.3,0.4-0.6,0.4-0.9c0-0.4-0.1-0.8-0.4-1.1c-0.3-0.3-0.9-0.7-1.8-1.1c-0.9-0.4-1.5-0.8-1.8-1.2
		c-0.3-0.4-0.4-0.8-0.4-1.3c0-0.7,0.2-1.3,0.7-1.8C49.9,7.3,50.6,7,51.3,7c0.3,0,0.7,0.1,1.2,0.2c0.3,0.1,0.5,0.1,0.6,0.1
		c0.1,0,0.2,0,0.2-0.1c0.1,0,0.1-0.1,0.2-0.3H53.9z"/>
	<path d="M55.2,8.1l2.6-1.1h0.4v2c0.4-0.7,0.9-1.3,1.3-1.6C59.9,7.2,60.4,7,60.9,7c0.9,0,1.6,0.3,2.1,1c0.7,0.8,1,1.9,1,3.2
		c0,1.5-0.4,2.7-1.3,3.6c-0.7,0.8-1.6,1.2-2.6,1.2c-0.5,0-0.9-0.1-1.2-0.2c-0.2-0.1-0.5-0.3-0.8-0.6v2.6c0,0.6,0,1,0.1,1.1
		c0.1,0.2,0.2,0.3,0.4,0.4c0.2,0.1,0.5,0.1,1,0.1v0.3h-4.5v-0.3h0.2c0.3,0,0.6-0.1,0.9-0.2c0.1-0.1,0.2-0.2,0.3-0.3
		c0.1-0.2,0.1-0.5,0.1-1.2v-8c0-0.6,0-0.9-0.1-1c0-0.1-0.1-0.3-0.2-0.3c-0.1-0.1-0.3-0.1-0.4-0.1c-0.1,0-0.3,0-0.6,0.1L55.2,8.1z
		 M58.2,9.6v3.2c0,0.7,0,1.1,0.1,1.4c0.1,0.4,0.3,0.7,0.6,0.9c0.3,0.3,0.8,0.4,1.3,0.4c0.6,0,1.1-0.2,1.5-0.7
		c0.5-0.6,0.8-1.5,0.8-2.7c0-1.3-0.3-2.3-0.9-3c-0.4-0.5-0.9-0.7-1.4-0.7c-0.3,0-0.6,0.1-0.9,0.2C59,8.7,58.7,9.1,58.2,9.6z"/>
	<path d="M70.1,14.6c-0.9,0.7-1.4,1.1-1.6,1.2c-0.3,0.2-0.7,0.2-1.1,0.2c-0.6,0-1.1-0.2-1.5-0.6c-0.4-0.4-0.6-0.9-0.6-1.6
		c0-0.4,0.1-0.8,0.3-1.1c0.3-0.4,0.7-0.8,1.3-1.2c0.6-0.4,1.7-0.8,3.1-1.4V9.8c0-0.8-0.1-1.4-0.4-1.7c-0.3-0.3-0.7-0.5-1.2-0.5
		c-0.4,0-0.7,0.1-0.9,0.3c-0.2,0.2-0.4,0.5-0.4,0.7l0,0.5c0,0.3-0.1,0.5-0.2,0.7c-0.1,0.2-0.3,0.2-0.6,0.2c-0.2,0-0.4-0.1-0.6-0.2
		c-0.1-0.2-0.2-0.4-0.2-0.7c0-0.5,0.3-1,0.8-1.5C67.1,7.3,67.8,7,68.8,7c0.8,0,1.4,0.1,1.9,0.4c0.4,0.2,0.6,0.5,0.8,0.9
		c0.1,0.3,0.2,0.8,0.2,1.6v2.9c0,0.8,0,1.3,0,1.5c0,0.2,0.1,0.3,0.2,0.4c0.1,0.1,0.2,0.1,0.2,0.1c0.1,0,0.2,0,0.3-0.1
		c0.1-0.1,0.4-0.3,0.8-0.7v0.5c-0.7,0.9-1.4,1.4-2,1.4c-0.3,0-0.5-0.1-0.7-0.3C70.2,15.4,70.1,15.1,70.1,14.6z M70.1,14v-3.2
		c-0.9,0.4-1.5,0.6-1.8,0.8c-0.5,0.3-0.8,0.6-1,0.9c-0.2,0.3-0.3,0.6-0.3,1c0,0.4,0.1,0.8,0.4,1.1c0.3,0.3,0.6,0.4,0.9,0.4
		C68.7,14.9,69.3,14.6,70.1,14z"/>
	<path d="M80.9,12.6c-0.2,1.1-0.7,2-1.3,2.6c-0.7,0.6-1.4,0.9-2.2,0.9c-1,0-1.8-0.4-2.5-1.2c-0.7-0.8-1.1-1.9-1.1-3.3
		c0-1.3,0.4-2.4,1.2-3.3C75.8,7.5,76.7,7,77.8,7c0.8,0,1.5,0.2,2.1,0.7c0.5,0.4,0.8,0.9,0.8,1.4c0,0.2-0.1,0.4-0.2,0.6
		c-0.2,0.1-0.4,0.2-0.6,0.2c-0.4,0-0.6-0.1-0.8-0.4c-0.1-0.1-0.2-0.4-0.2-0.7c0-0.4-0.2-0.6-0.4-0.8c-0.2-0.2-0.5-0.3-0.9-0.3
		c-0.6,0-1.1,0.2-1.5,0.7c-0.5,0.6-0.8,1.4-0.8,2.4c0,1,0.2,1.9,0.7,2.7c0.5,0.8,1.2,1.2,2,1.2c0.6,0,1.2-0.2,1.6-0.6
		c0.3-0.3,0.7-0.8,1-1.5L80.9,12.6z"/>
	<path d="M83.6,10.5c0,1.3,0.3,2.3,0.9,3c0.6,0.7,1.3,1.1,2.2,1.1c0.6,0,1-0.2,1.5-0.5c0.4-0.3,0.8-0.8,1-1.6l0.3,0.2
		c-0.1,0.8-0.5,1.6-1.1,2.3c-0.6,0.7-1.4,1-2.3,1c-1,0-1.9-0.4-2.6-1.2c-0.7-0.8-1.1-1.9-1.1-3.2c0-1.5,0.4-2.6,1.1-3.4
		C84.1,7.4,85.1,7,86.2,7c1,0,1.7,0.3,2.3,0.9c0.6,0.6,0.9,1.5,0.9,2.5H83.6z M83.6,10h3.9c0-0.5-0.1-0.9-0.2-1.2
		c-0.2-0.3-0.4-0.6-0.7-0.8c-0.3-0.2-0.6-0.3-1-0.3c-0.5,0-1,0.2-1.4,0.6C83.9,8.7,83.7,9.2,83.6,10z"/>
	<path d="M102.6,19.6v0.3c-1-0.1-1.9-0.6-2.5-1.3c-0.6-0.7-1-1.5-1-2.3c0-0.4,0.1-1,0.2-1.6c0.1-0.6,0.2-1,0.2-1.4
		c0-0.4-0.2-0.9-0.6-1.2c-0.4-0.4-0.9-0.6-1.6-0.7V11c0.7-0.1,1.2-0.3,1.6-0.7c0.4-0.4,0.6-0.8,0.6-1.3c0-0.3-0.1-0.8-0.2-1.4
		c-0.1-0.6-0.2-1.1-0.2-1.6c0-0.8,0.3-1.6,1-2.3c0.6-0.7,1.5-1.1,2.5-1.3v0.3c-0.7,0.2-1.3,0.5-1.6,0.8c-0.3,0.4-0.5,0.8-0.5,1.3
		c0,0.4,0.1,0.8,0.2,1.4c0.1,0.6,0.2,1.1,0.2,1.5c0,0.6-0.2,1.2-0.7,1.8c-0.5,0.6-1.1,1-2.1,1.4c0.9,0.3,1.6,0.8,2,1.4
		c0.5,0.6,0.7,1.2,0.7,1.8c0,0.4-0.1,0.9-0.2,1.5c-0.1,0.6-0.2,1.1-0.2,1.4c0,0.5,0.2,0.9,0.5,1.3C101.3,19.1,101.8,19.4,102.6,19.6
		z"/>
	<path d="M112.7,9.4c0.9,0.2,1.5,0.5,2,0.9c0.6,0.6,0.9,1.3,0.9,2.1c0,0.6-0.2,1.2-0.6,1.8c-0.4,0.6-0.9,1-1.6,1.3
		c-0.7,0.3-1.7,0.4-3.2,0.4h-5.9v-0.3h0.5c0.5,0,0.9-0.2,1.1-0.5c0.1-0.2,0.2-0.7,0.2-1.4V5.4c0-0.8-0.1-1.3-0.3-1.5
		c-0.2-0.3-0.6-0.4-1.1-0.4h-0.5V3.2h5.4c1,0,1.8,0.1,2.4,0.2c0.9,0.2,1.6,0.6,2.1,1.2c0.5,0.6,0.7,1.2,0.7,2c0,0.6-0.2,1.2-0.6,1.7
		C114,8.8,113.4,9.1,112.7,9.4z M107.8,8.9c0.2,0,0.5,0.1,0.8,0.1c0.3,0,0.6,0,1,0c0.9,0,1.6-0.1,2-0.3c0.5-0.2,0.8-0.5,1-0.9
		c0.2-0.4,0.4-0.8,0.4-1.3c0-0.7-0.3-1.4-0.9-1.9c-0.6-0.5-1.5-0.8-2.6-0.8c-0.6,0-1.2,0.1-1.7,0.2V8.9z M107.8,14.9
		c0.7,0.2,1.4,0.3,2.1,0.3c1.1,0,2-0.3,2.6-0.8c0.6-0.5,0.9-1.1,0.9-1.9c0-0.5-0.1-1-0.4-1.4c-0.3-0.5-0.7-0.8-1.3-1.1
		c-0.6-0.3-1.3-0.4-2.2-0.4c-0.4,0-0.7,0-1,0c-0.3,0-0.5,0-0.7,0.1V14.9z"/>
	<path d="M119.6,8.9h0.3v5.9c0,0.2,0,0.3,0.1,0.4c0,0.1,0.1,0.2,0.2,0.2c0.1,0,0.2,0.1,0.3,0.1c0.1,0,0.3,0,0.4,0v0.3h-3.1v-0.3
		c0.2,0,0.4,0,0.5,0c0.1,0,0.2,0,0.3-0.1c0.1-0.1,0.1-0.1,0.2-0.2c0-0.1,0-0.2,0-0.4v-4c0-0.3,0-0.5,0-0.7c0-0.2-0.1-0.2-0.3-0.2
		c-0.1,0-0.2,0-0.3,0.1c-0.1,0-0.2,0.1-0.3,0.1l-0.2-0.3L119.6,8.9z"/>
	<path d="M123.1,19v-0.4c0.6-0.2,1.1-0.5,1.5-1c0.3-0.4,0.5-0.9,0.5-1.4c0-0.1,0-0.2-0.1-0.3c0-0.1-0.1-0.1-0.1-0.1
		c-0.1,0-0.2,0.1-0.4,0.2c-0.1,0.1-0.2,0.1-0.4,0.1c-0.3,0-0.5-0.1-0.7-0.3c-0.2-0.2-0.3-0.4-0.3-0.7c0-0.3,0.1-0.6,0.3-0.8
		c0.2-0.2,0.5-0.3,0.8-0.3c0.4,0,0.8,0.2,1.1,0.5c0.3,0.4,0.5,0.8,0.5,1.4c0,0.6-0.2,1.2-0.7,1.8C124.8,18.2,124.1,18.6,123.1,19z"
		/>
	<path d="M140.4,9.4c0.9,0.2,1.5,0.5,2,0.9c0.6,0.6,0.9,1.3,0.9,2.1c0,0.6-0.2,1.2-0.6,1.8c-0.4,0.6-0.9,1-1.6,1.3
		c-0.7,0.3-1.7,0.4-3.2,0.4h-5.9v-0.3h0.5c0.5,0,0.9-0.2,1.1-0.5c0.1-0.2,0.2-0.7,0.2-1.4V5.4c0-0.8-0.1-1.3-0.3-1.5
		c-0.2-0.3-0.6-0.4-1.1-0.4h-0.5V3.2h5.4c1,0,1.8,0.1,2.4,0.2c0.9,0.2,1.6,0.6,2.1,1.2c0.5,0.6,0.7,1.2,0.7,2c0,0.6-0.2,1.2-0.6,1.7
		C141.7,8.8,141.1,9.1,140.4,9.4z M135.5,8.9c0.2,0,0.5,0.1,0.8,0.1c0.3,0,0.6,0,1,0c0.9,0,1.6-0.1,2-0.3c0.5-0.2,0.8-0.5,1-0.9
		c0.2-0.4,0.4-0.8,0.4-1.3c0-0.7-0.3-1.4-0.9-1.9c-0.6-0.5-1.5-0.8-2.6-0.8c-0.6,0-1.2,0.1-1.7,0.2V8.9z M135.5,14.9
		c0.7,0.2,1.4,0.3,2.1,0.3c1.1,0,2-0.3,2.6-0.8c0.6-0.5,0.9-1.1,0.9-1.9c0-0.5-0.1-1-0.4-1.4c-0.3-0.5-0.7-0.8-1.3-1.1
		c-0.6-0.3-1.3-0.4-2.2-0.4c-0.4,0-0.7,0-1,0c-0.3,0-0.5,0-0.7,0.1V14.9z"/>
	<path d="M148,14.9c0.2,0,0.4,0,0.6,0c0.1,0,0.3,0,0.3-0.1c0.1,0,0.2-0.1,0.2-0.2c0-0.1,0.1-0.2,0.2-0.3h0.4l-0.6,1.4h-4.7v-0.3
		c0.8-0.6,1.4-1.1,1.9-1.6c0.5-0.4,0.8-0.8,1.1-1.2c0.3-0.3,0.4-0.6,0.5-0.9c0.1-0.3,0.1-0.5,0.1-0.7c0-0.2-0.1-0.5-0.2-0.6
		c-0.1-0.2-0.2-0.3-0.4-0.4c-0.2-0.1-0.3-0.2-0.5-0.2c-0.2,0-0.3-0.1-0.5-0.1c-0.2,0-0.4,0-0.6,0.1c-0.2,0.1-0.3,0.2-0.4,0.3
		c-0.1,0.1-0.2,0.2-0.3,0.3c-0.1,0.1-0.1,0.2-0.2,0.3h-0.4c0-0.1,0.1-0.3,0.2-0.5c0.1-0.2,0.2-0.4,0.4-0.6c0.2-0.2,0.4-0.4,0.7-0.5
		s0.6-0.2,1.1-0.2c0.4,0,0.7,0.1,1,0.2c0.3,0.1,0.5,0.3,0.7,0.5c0.2,0.2,0.3,0.4,0.4,0.6c0.1,0.2,0.1,0.4,0.1,0.6c0,0.1,0,0.3,0,0.4
		c0,0.1-0.1,0.3-0.1,0.5c-0.1,0.2-0.2,0.4-0.3,0.6c-0.1,0.2-0.3,0.5-0.6,0.7c-0.2,0.3-0.6,0.6-0.9,0.9c-0.4,0.3-0.8,0.7-1.3,1.1v0
		H148z"/>
	<path d="M150.8,19v-0.4c0.6-0.2,1.1-0.5,1.5-1c0.3-0.4,0.5-0.9,0.5-1.4c0-0.1,0-0.2-0.1-0.3c0-0.1-0.1-0.1-0.1-0.1
		c-0.1,0-0.2,0.1-0.4,0.2c-0.1,0.1-0.2,0.1-0.4,0.1c-0.3,0-0.5-0.1-0.7-0.3c-0.2-0.2-0.3-0.4-0.3-0.7c0-0.3,0.1-0.6,0.3-0.8
		c0.2-0.2,0.5-0.3,0.8-0.3c0.4,0,0.8,0.2,1.1,0.5c0.3,0.4,0.5,0.8,0.5,1.4c0,0.6-0.2,1.2-0.7,1.8C152.5,18.2,151.8,18.6,150.8,19z"
		/>
	<path d="M168.1,9.4c0.9,0.2,1.5,0.5,2,0.9c0.6,0.6,0.9,1.3,0.9,2.1c0,0.6-0.2,1.2-0.6,1.8c-0.4,0.6-0.9,1-1.6,1.3
		c-0.7,0.3-1.7,0.4-3.2,0.4h-5.9v-0.3h0.5c0.5,0,0.9-0.2,1.1-0.5c0.1-0.2,0.2-0.7,0.2-1.4V5.4c0-0.8-0.1-1.3-0.3-1.5
		c-0.2-0.3-0.6-0.4-1.1-0.4h-0.5V3.2h5.4c1,0,1.8,0.1,2.4,0.2c0.9,0.2,1.6,0.6,2.1,1.2c0.5,0.6,0.7,1.2,0.7,2c0,0.6-0.2,1.2-0.6,1.7
		C169.4,8.8,168.8,9.1,168.1,9.4z M163.2,8.9c0.2,0,0.5,0.1,0.8,0.1c0.3,0,0.6,0,1,0c0.9,0,1.6-0.1,2-0.3c0.5-0.2,0.8-0.5,1-0.9
		c0.2-0.4,0.4-0.8,0.4-1.3c0-0.7-0.3-1.4-0.9-1.9s-1.5-0.8-2.6-0.8c-0.6,0-1.2,0.1-1.7,0.2V8.9z M163.2,14.9
		c0.7,0.2,1.4,0.3,2.1,0.3c1.1,0,2-0.3,2.6-0.8c0.6-0.5,0.9-1.1,0.9-1.9c0-0.5-0.1-1-0.4-1.4c-0.3-0.5-0.7-0.8-1.3-1.1
		c-0.6-0.3-1.3-0.4-2.2-0.4c-0.4,0-0.7,0-1,0c-0.3,0-0.5,0-0.7,0.1V14.9z"/>
	<path d="M173.7,12.2c0.2,0,0.4-0.1,0.7-0.2c0.2-0.1,0.4-0.2,0.6-0.3c0.2-0.1,0.3-0.3,0.4-0.4c0.1-0.2,0.1-0.4,0.1-0.6
		c0-0.2,0-0.3-0.1-0.5c-0.1-0.1-0.2-0.2-0.3-0.3c-0.1-0.1-0.2-0.1-0.4-0.2c-0.1,0-0.3-0.1-0.4-0.1c-0.2,0-0.4,0-0.5,0.1
		c-0.1,0.1-0.3,0.1-0.4,0.2c-0.1,0.1-0.2,0.2-0.2,0.3c-0.1,0.1-0.1,0.2-0.2,0.3l-0.4-0.2c0-0.1,0.1-0.3,0.2-0.4
		c0.1-0.2,0.2-0.3,0.4-0.5c0.2-0.2,0.4-0.3,0.6-0.4c0.2-0.1,0.6-0.2,0.9-0.2c0.2,0,0.5,0,0.7,0.1c0.2,0.1,0.4,0.2,0.6,0.3
		c0.2,0.1,0.3,0.3,0.4,0.5c0.1,0.2,0.2,0.4,0.2,0.6c0,0.5-0.3,1-1,1.4c0.3,0.1,0.6,0.3,0.8,0.5c0.2,0.2,0.3,0.4,0.4,0.5
		c0.1,0.2,0.1,0.3,0.1,0.5c0,0.1,0,0.2,0,0.3c0,0.3-0.1,0.6-0.2,0.9c-0.1,0.3-0.3,0.5-0.5,0.7c-0.2,0.2-0.5,0.4-0.9,0.5
		c-0.4,0.1-0.8,0.2-1.3,0.2c-0.3,0-0.6,0-0.8-0.1c-0.2,0-0.4-0.1-0.5-0.1c-0.1-0.1-0.2-0.1-0.3-0.2c0-0.1-0.1-0.1-0.1-0.2
		c0-0.1,0.1-0.2,0.2-0.3c0.1-0.1,0.2-0.1,0.4-0.1c0.1,0,0.3,0,0.4,0.1c0.1,0.1,0.3,0.1,0.4,0.2c0.1,0.1,0.3,0.1,0.4,0.2
		c0.1,0.1,0.3,0.1,0.4,0.1c0.2,0,0.3,0,0.5-0.1c0.1-0.1,0.3-0.2,0.4-0.3c0.1-0.1,0.2-0.2,0.3-0.4c0.1-0.2,0.1-0.3,0.1-0.5
		c0-0.3-0.1-0.6-0.2-0.8s-0.3-0.4-0.5-0.5c-0.2-0.1-0.4-0.2-0.7-0.3c-0.3-0.1-0.5-0.1-0.8-0.1V12.2z"/>
	<path d="M178.6,19v-0.4c0.6-0.2,1.1-0.5,1.5-1c0.3-0.4,0.5-0.9,0.5-1.4c0-0.1,0-0.2-0.1-0.3c0-0.1-0.1-0.1-0.1-0.1
		c-0.1,0-0.2,0.1-0.4,0.2c-0.1,0.1-0.2,0.1-0.4,0.1c-0.3,0-0.5-0.1-0.7-0.3c-0.2-0.2-0.3-0.4-0.3-0.7c0-0.3,0.1-0.6,0.3-0.8
		c0.2-0.2,0.5-0.3,0.8-0.3c0.4,0,0.8,0.2,1.1,0.5c0.3,0.4,0.5,0.8,0.5,1.4c0,0.6-0.2,1.2-0.7,1.8C180.2,18.2,179.5,18.6,178.6,19z"
		/>
	<path d="M195.8,9.4c0.9,0.2,1.5,0.5,2,0.9c0.6,0.6,0.9,1.3,0.9,2.1c0,0.6-0.2,1.2-0.6,1.8c-0.4,0.6-0.9,1-1.6,1.3
		c-0.7,0.3-1.7,0.4-3.2,0.4h-5.9v-0.3h0.5c0.5,0,0.9-0.2,1.1-0.5c0.1-0.2,0.2-0.7,0.2-1.4V5.4c0-0.8-0.1-1.3-0.3-1.5
		c-0.2-0.3-0.6-0.4-1.1-0.4h-0.5V3.2h5.4c1,0,1.8,0.1,2.4,0.2c0.9,0.2,1.6,0.6,2.1,1.2c0.5,0.6,0.7,1.2,0.7,2c0,0.6-0.2,1.2-0.6,1.7
		C197.1,8.8,196.6,9.1,195.8,9.4z M191,8.9c0.2,0,0.5,0.1,0.8,0.1c0.3,0,0.6,0,1,0c0.9,0,1.6-0.1,2-0.3c0.5-0.2,0.8-0.5,1-0.9
		c0.2-0.4,0.4-0.8,0.4-1.3c0-0.7-0.3-1.4-0.9-1.9s-1.5-0.8-2.6-0.8c-0.6,0-1.2,0.1-1.7,0.2V8.9z M191,14.9c0.7,0.2,1.4,0.3,2.1,0.3
		c1.1,0,2-0.3,2.6-0.8c0.6-0.5,0.9-1.1,0.9-1.9c0-0.5-0.1-1-0.4-1.4c-0.3-0.5-0.7-0.8-1.3-1.1c-0.6-0.3-1.3-0.4-2.2-0.4
		c-0.4,0-0.7,0-1,0c-0.3,0-0.5,0-0.7,0.1V14.9z"/>
	<path d="M204.1,8.9v4.4h1v0.9h-1v1.7H203v-1.7h-3.1v-0.9l3.5-4.4H204.1z M203,10.3L203,10.3l-2.4,3h2.4V10.3z"/>
	<path d="M206.9,2.9V2.6c1,0.1,1.9,0.6,2.5,1.2c0.6,0.7,1,1.5,1,2.3c0,0.4-0.1,1-0.2,1.5c-0.1,0.6-0.2,1-0.2,1.4
		c0,0.4,0.2,0.9,0.6,1.2c0.4,0.4,0.9,0.6,1.6,0.7v0.4c-0.7,0.1-1.2,0.3-1.6,0.7c-0.4,0.4-0.6,0.8-0.6,1.2c0,0.3,0.1,0.8,0.2,1.4
		c0.1,0.6,0.2,1.1,0.2,1.6c0,0.8-0.3,1.6-1,2.3c-0.6,0.7-1.5,1.1-2.5,1.3v-0.3c0.7-0.2,1.3-0.5,1.6-0.9c0.3-0.4,0.5-0.8,0.5-1.3
		c0-0.4-0.1-0.8-0.2-1.4c-0.1-0.6-0.2-1.1-0.2-1.5c0-0.6,0.2-1.2,0.7-1.8c0.5-0.6,1.1-1,2.1-1.4c-0.9-0.3-1.6-0.8-2-1.4
		c-0.5-0.6-0.7-1.2-0.7-1.8c0-0.4,0.1-0.9,0.2-1.5c0.1-0.6,0.2-1.1,0.2-1.4c0-0.5-0.2-0.9-0.5-1.3C208.2,3.4,207.6,3.1,206.9,2.9z"
		/>
	<path d="M224.5,14.6c-0.9,0.7-1.4,1.1-1.6,1.2c-0.3,0.2-0.7,0.2-1.1,0.2c-0.6,0-1.1-0.2-1.5-0.6c-0.4-0.4-0.6-0.9-0.6-1.6
		c0-0.4,0.1-0.8,0.3-1.1c0.3-0.4,0.7-0.8,1.3-1.2c0.6-0.4,1.7-0.8,3.1-1.4V9.8c0-0.8-0.1-1.4-0.4-1.7c-0.3-0.3-0.7-0.5-1.2-0.5
		c-0.4,0-0.7,0.1-0.9,0.3c-0.2,0.2-0.4,0.5-0.4,0.7l0,0.5c0,0.3-0.1,0.5-0.2,0.7c-0.1,0.2-0.3,0.2-0.6,0.2c-0.2,0-0.4-0.1-0.6-0.2
		c-0.1-0.2-0.2-0.4-0.2-0.7c0-0.5,0.3-1,0.8-1.5c0.5-0.4,1.3-0.7,2.3-0.7c0.8,0,1.4,0.1,1.9,0.4c0.4,0.2,0.6,0.5,0.8,0.9
		c0.1,0.3,0.2,0.8,0.2,1.6v2.9c0,0.8,0,1.3,0,1.5c0,0.2,0.1,0.3,0.2,0.4c0.1,0.1,0.2,0.1,0.2,0.1c0.1,0,0.2,0,0.3-0.1
		c0.1-0.1,0.4-0.3,0.8-0.7v0.5c-0.7,0.9-1.4,1.4-2,1.4c-0.3,0-0.5-0.1-0.7-0.3C224.6,15.4,224.5,15.1,224.5,14.6z M224.5,14v-3.2
		c-0.9,0.4-1.5,0.6-1.8,0.8c-0.5,0.3-0.8,0.6-1,0.9c-0.2,0.3-0.3,0.6-0.3,1c0,0.4,0.1,0.8,0.4,1.1c0.3,0.3,0.6,0.4,0.9,0.4
		C223.1,14.9,223.8,14.6,224.5,14z"/>
	<path d="M230.6,8.8c1-1.2,1.9-1.8,2.8-1.8c0.5,0,0.9,0.1,1.2,0.3c0.3,0.2,0.6,0.6,0.8,1.1c0.1,0.4,0.2,0.9,0.2,1.7v3.6
		c0,0.5,0,0.9,0.1,1.1c0.1,0.2,0.2,0.3,0.3,0.4c0.2,0.1,0.4,0.1,0.8,0.1v0.3h-4.2v-0.3h0.2c0.4,0,0.7-0.1,0.8-0.2
		c0.2-0.1,0.3-0.3,0.3-0.5c0-0.1,0-0.4,0-0.9v-3.5c0-0.8-0.1-1.3-0.3-1.7c-0.2-0.3-0.5-0.5-1-0.5c-0.7,0-1.5,0.4-2.2,1.2v4.5
		c0,0.6,0,0.9,0.1,1.1c0.1,0.2,0.2,0.3,0.4,0.4c0.2,0.1,0.5,0.1,0.9,0.1v0.3h-4.2v-0.3h0.2c0.4,0,0.7-0.1,0.9-0.3
		c0.2-0.2,0.2-0.6,0.2-1.3v-3.2c0-1,0-1.6-0.1-1.9c0-0.2-0.1-0.4-0.2-0.5c-0.1-0.1-0.2-0.1-0.4-0.1c-0.2,0-0.4,0-0.6,0.1l-0.1-0.3
		l2.6-1h0.4V8.8z"/>
	<path d="M243.7,14.8c-0.4,0.4-0.8,0.7-1.2,0.9c-0.4,0.2-0.8,0.3-1.3,0.3c-0.9,0-1.7-0.4-2.4-1.2c-0.7-0.8-1-1.8-1-3
		c0-1.2,0.4-2.3,1.2-3.3c0.8-1,1.8-1.5,3-1.5c0.7,0,1.4,0.2,1.9,0.7V6.2c0-1,0-1.6-0.1-1.8c0-0.2-0.1-0.4-0.2-0.5
		c-0.1-0.1-0.2-0.1-0.4-0.1c-0.2,0-0.4,0-0.6,0.1l-0.1-0.3l2.5-1h0.4v9.8c0,1,0,1.6,0.1,1.8c0,0.2,0.1,0.4,0.2,0.5
		c0.1,0.1,0.2,0.1,0.4,0.1c0.2,0,0.4-0.1,0.7-0.2l0.1,0.3l-2.5,1h-0.4V14.8z M243.7,14.2V9.8c0-0.4-0.1-0.8-0.3-1.2
		c-0.2-0.3-0.4-0.6-0.7-0.8c-0.3-0.2-0.6-0.3-0.9-0.3c-0.5,0-1,0.2-1.5,0.7c-0.6,0.6-0.8,1.6-0.8,2.8c0,1.2,0.3,2.2,0.8,2.9
		c0.5,0.7,1.2,1,1.8,1C242.6,15,243.1,14.7,243.7,14.2z"/>
	<path d="M253.3,10.5c0,1.3,0.3,2.3,0.9,3c0.6,0.7,1.3,1.1,2.2,1.1c0.6,0,1-0.2,1.5-0.5c0.4-0.3,0.8-0.8,1-1.6l0.3,0.2
		c-0.1,0.8-0.5,1.6-1.1,2.3c-0.6,0.7-1.4,1-2.3,1c-1,0-1.9-0.4-2.6-1.2c-0.7-0.8-1.1-1.9-1.1-3.2c0-1.5,0.4-2.6,1.1-3.4
		c0.7-0.8,1.7-1.2,2.8-1.2c1,0,1.7,0.3,2.3,0.9c0.6,0.6,0.9,1.5,0.9,2.5H253.3z M253.3,10h3.9c0-0.5-0.1-0.9-0.2-1.2
		c-0.2-0.3-0.4-0.6-0.7-0.8c-0.3-0.2-0.6-0.3-1-0.3c-0.5,0-1,0.2-1.4,0.6C253.6,8.7,253.4,9.2,253.3,10z"/>
	<path d="M259.9,7.3h4v0.3h-0.3c-0.2,0-0.4,0.1-0.6,0.2c-0.1,0.1-0.2,0.3-0.2,0.5c0,0.2,0.1,0.5,0.2,0.8l2,4.7l2-4.9
		c0.1-0.3,0.2-0.6,0.2-0.8c0-0.1,0-0.2-0.1-0.2c-0.1-0.1-0.2-0.2-0.3-0.2c-0.1,0-0.3-0.1-0.6-0.1V7.3h2.8v0.3
		c-0.3,0-0.5,0.1-0.7,0.2c-0.2,0.2-0.4,0.5-0.6,0.9l-3,7.3h-0.4l-3-7.2c-0.1-0.3-0.3-0.6-0.4-0.7c-0.1-0.1-0.3-0.3-0.5-0.4
		c-0.1-0.1-0.3-0.1-0.6-0.2V7.3z"/>
	<path d="M271.3,10.5c0,1.3,0.3,2.3,0.9,3c0.6,0.7,1.3,1.1,2.2,1.1c0.6,0,1-0.2,1.5-0.5c0.4-0.3,0.8-0.8,1-1.6l0.3,0.2
		c-0.1,0.8-0.5,1.6-1.1,2.3c-0.6,0.7-1.4,1-2.3,1c-1,0-1.9-0.4-2.6-1.2c-0.7-0.8-1.1-1.9-1.1-3.2c0-1.5,0.4-2.6,1.1-3.4
		c0.7-0.8,1.7-1.2,2.8-1.2c1,0,1.7,0.3,2.3,0.9c0.6,0.6,0.9,1.5,0.9,2.5H271.3z M271.3,10h3.9c0-0.5-0.1-0.9-0.2-1.2
		c-0.2-0.3-0.4-0.6-0.7-0.8c-0.3-0.2-0.6-0.3-1-0.3c-0.5,0-1,0.2-1.4,0.6C271.6,8.7,271.3,9.2,271.3,10z"/>
	<path d="M280.7,8.8c1-1.2,1.9-1.8,2.8-1.8c0.5,0,0.9,0.1,1.2,0.3c0.3,0.2,0.6,0.6,0.8,1.1c0.1,0.4,0.2,0.9,0.2,1.7v3.6
		c0,0.5,0,0.9,0.1,1.1c0.1,0.2,0.2,0.3,0.3,0.4c0.2,0.1,0.4,0.1,0.8,0.1v0.3h-4.2v-0.3h0.2c0.4,0,0.7-0.1,0.8-0.2
		c0.2-0.1,0.3-0.3,0.3-0.5c0-0.1,0-0.4,0-0.9v-3.5c0-0.8-0.1-1.3-0.3-1.7c-0.2-0.3-0.5-0.5-1-0.5c-0.7,0-1.5,0.4-2.2,1.2v4.5
		c0,0.6,0,0.9,0.1,1.1c0.1,0.2,0.2,0.3,0.4,0.4c0.2,0.1,0.5,0.1,0.9,0.1v0.3h-4.2v-0.3h0.2c0.4,0,0.7-0.1,0.9-0.3
		c0.2-0.2,0.2-0.6,0.2-1.3v-3.2c0-1,0-1.6-0.1-1.9c0-0.2-0.1-0.4-0.2-0.5c-0.1-0.1-0.2-0.1-0.4-0.1c-0.2,0-0.4,0-0.6,0.1l-0.1-0.3
		l2.6-1h0.4V8.8z"/>
	<path d="M290.2,4.5v2.8h2v0.6h-2v5.5c0,0.6,0.1,0.9,0.2,1.1c0.2,0.2,0.4,0.3,0.6,0.3c0.2,0,0.4-0.1,0.6-0.2
		c0.2-0.1,0.3-0.3,0.4-0.6h0.4c-0.2,0.6-0.5,1.1-0.9,1.4c-0.4,0.3-0.8,0.5-1.2,0.5c-0.3,0-0.6-0.1-0.8-0.2c-0.3-0.2-0.5-0.4-0.6-0.7
		c-0.1-0.3-0.2-0.7-0.2-1.4V7.9h-1.3V7.6c0.3-0.1,0.7-0.4,1-0.7c0.4-0.3,0.7-0.7,1-1.2c0.1-0.2,0.3-0.7,0.6-1.3H290.2z"/>
	<path d="M304.8,11.6H300l-0.9,2c-0.2,0.5-0.3,0.9-0.3,1.1c0,0.2,0.1,0.4,0.3,0.5c0.2,0.1,0.6,0.2,1.2,0.3v0.3h-4v-0.3
		c0.5-0.1,0.9-0.2,1-0.4c0.3-0.3,0.7-0.9,1-1.8l4.4-10.4h0.3l4.4,10.5c0.4,0.8,0.7,1.4,1,1.6c0.3,0.3,0.7,0.4,1.2,0.4v0.3h-5v-0.3
		c0.5,0,0.8-0.1,1-0.3c0.2-0.1,0.3-0.3,0.3-0.5c0-0.3-0.1-0.7-0.4-1.3L304.8,11.6z M304.6,10.9l-2.1-5.1l-2.2,5.1H304.6z"/>
</g>
<line class="st3" x1="157" y1="21.7" x2="157" y2="162.7"/>
<line class="st3" x1="83.5" y1="21.7" x2="83.5" y2="162.7"/>
<line class="st3" x1="234.5" y1="21.7" x2="234.5" y2="162.7"/>
<g>
	<rect x="63.4" y="146.3" class="st2" width="24.6" height="16"/>
	<path d="M72.1,153.1c0.9,0.2,1.5,0.5,2,0.9c0.6,0.6,0.9,1.3,0.9,2.1c0,0.6-0.2,1.2-0.6,1.8c-0.4,0.6-0.9,1-1.6,1.3
		c-0.7,0.3-1.7,0.4-3.2,0.4h-5.9v-0.3h0.5c0.5,0,0.9-0.2,1.1-0.5c0.1-0.2,0.2-0.7,0.2-1.4v-8.1c0-0.8-0.1-1.3-0.3-1.5
		c-0.2-0.3-0.6-0.4-1.1-0.4h-0.5v-0.3h5.4c1,0,1.8,0.1,2.4,0.2c0.9,0.2,1.6,0.6,2.1,1.2c0.5,0.6,0.7,1.2,0.7,2
		c0,0.6-0.2,1.2-0.6,1.7C73.5,152.5,72.9,152.8,72.1,153.1z M67.3,152.6c0.2,0,0.5,0.1,0.8,0.1c0.3,0,0.6,0,1,0c0.9,0,1.6-0.1,2-0.3
		c0.5-0.2,0.8-0.5,1-0.9s0.4-0.8,0.4-1.3c0-0.7-0.3-1.4-0.9-1.9c-0.6-0.5-1.5-0.8-2.6-0.8c-0.6,0-1.2,0.1-1.7,0.2V152.6z
		 M67.3,158.6c0.7,0.2,1.4,0.3,2.1,0.3c1.1,0,2-0.3,2.6-0.8c0.6-0.5,0.9-1.1,0.9-1.9c0-0.5-0.1-1-0.4-1.4c-0.3-0.5-0.7-0.8-1.3-1.1
		c-0.6-0.3-1.3-0.4-2.2-0.4c-0.4,0-0.7,0-1,0c-0.3,0-0.5,0-0.7,0.1V158.6z"/>
	<path d="M79.1,152.6h0.3v5.9c0,0.2,0,0.3,0.1,0.4c0,0.1,0.1,0.2,0.2,0.2c0.1,0,0.2,0.1,0.3,0.1c0.1,0,0.3,0,0.4,0v0.3h-3.1v-0.3
		c0.2,0,0.4,0,0.5,0c0.1,0,0.2,0,0.3-0.1s0.1-0.1,0.2-0.2c0-0.1,0-0.2,0-0.4v-4c0-0.3,0-0.5,0-0.7c0-0.2-0.1-0.2-0.3-0.2
		c-0.1,0-0.2,0-0.3,0.1c-0.1,0-0.2,0.1-0.3,0.1l-0.2-0.3L79.1,152.6z"/>
</g>
<g>
	<rect x="135.4" y="146.3" class="st2" width="24.6" height="16"/>
	<path d="M144.1,153.1c0.9,0.2,1.5,0.5,2,0.9c0.6,0.6,0.9,1.3,0.9,2.1c0,0.6-0.2,1.2-0.6,1.8c-0.4,0.6-0.9,1-1.6,1.3
		c-0.7,0.3-1.7,0.4-3.2,0.4h-5.9v-0.3h0.5c0.5,0,0.9-0.2,1.1-0.5c0.1-0.2,0.2-0.7,0.2-1.4v-8.1c0-0.8-0.1-1.3-0.3-1.5
		c-0.2-0.3-0.6-0.4-1.1-0.4h-0.5v-0.3h5.4c1,0,1.8,0.1,2.4,0.2c0.9,0.2,1.6,0.6,2.1,1.2c0.5,0.6,0.7,1.2,0.7,2
		c0,0.6-0.2,1.2-0.6,1.7C145.5,152.5,144.9,152.8,144.1,153.1z M139.3,152.6c0.2,0,0.5,0.1,0.8,0.1c0.3,0,0.6,0,1,0
		c0.9,0,1.6-0.1,2-0.3c0.5-0.2,0.8-0.5,1-0.9s0.4-0.8,0.4-1.3c0-0.7-0.3-1.4-0.9-1.9c-0.6-0.5-1.5-0.8-2.6-0.8
		c-0.6,0-1.2,0.1-1.7,0.2V152.6z M139.3,158.6c0.7,0.2,1.4,0.3,2.1,0.3c1.1,0,2-0.3,2.6-0.8c0.6-0.5,0.9-1.1,0.9-1.9
		c0-0.5-0.1-1-0.4-1.4c-0.3-0.5-0.7-0.8-1.3-1.1c-0.6-0.3-1.3-0.4-2.2-0.4c-0.4,0-0.7,0-1,0c-0.3,0-0.5,0-0.7,0.1V158.6z"/>
	<path d="M151.7,158.6c0.2,0,0.4,0,0.6,0c0.1,0,0.3,0,0.3-0.1c0.1,0,0.2-0.1,0.2-0.2c0-0.1,0.1-0.2,0.2-0.3h0.4l-0.6,1.4h-4.7v-0.3
		c0.8-0.6,1.4-1.1,1.9-1.6c0.5-0.4,0.8-0.8,1.1-1.2c0.3-0.3,0.4-0.6,0.5-0.9c0.1-0.3,0.1-0.5,0.1-0.7c0-0.2-0.1-0.5-0.2-0.6
		c-0.1-0.2-0.2-0.3-0.4-0.4c-0.2-0.1-0.3-0.2-0.5-0.2c-0.2,0-0.3-0.1-0.5-0.1c-0.2,0-0.4,0-0.6,0.1s-0.3,0.2-0.4,0.3
		c-0.1,0.1-0.2,0.2-0.3,0.3c-0.1,0.1-0.1,0.2-0.2,0.3h-0.4c0-0.1,0.1-0.3,0.2-0.5c0.1-0.2,0.2-0.4,0.4-0.6c0.2-0.2,0.4-0.4,0.7-0.5
		s0.6-0.2,1.1-0.2c0.4,0,0.7,0.1,1,0.2c0.3,0.1,0.5,0.3,0.7,0.5c0.2,0.2,0.3,0.4,0.4,0.6c0.1,0.2,0.1,0.4,0.1,0.6c0,0.1,0,0.3,0,0.4
		c0,0.1-0.1,0.3-0.1,0.5s-0.2,0.4-0.3,0.6c-0.1,0.2-0.3,0.5-0.6,0.7c-0.2,0.3-0.6,0.6-0.9,0.9c-0.4,0.3-0.8,0.7-1.3,1.1v0H151.7z"/>
</g>
<g>
	<rect x="215.4" y="146.3" class="st2" width="24.6" height="16"/>
	<path d="M224.1,153.1c0.9,0.2,1.5,0.5,2,0.9c0.6,0.6,0.9,1.3,0.9,2.1c0,0.6-0.2,1.2-0.6,1.8c-0.4,0.6-0.9,1-1.6,1.3
		c-0.7,0.3-1.7,0.4-3.2,0.4h-5.9v-0.3h0.5c0.5,0,0.9-0.2,1.1-0.5c0.1-0.2,0.2-0.7,0.2-1.4v-8.1c0-0.8-0.1-1.3-0.3-1.5
		c-0.2-0.3-0.6-0.4-1.1-0.4h-0.5v-0.3h5.4c1,0,1.8,0.1,2.4,0.2c0.9,0.2,1.6,0.6,2.1,1.2c0.5,0.6,0.7,1.2,0.7,2
		c0,0.6-0.2,1.2-0.6,1.7C225.5,152.5,224.9,152.8,224.1,153.1z M219.3,152.6c0.2,0,0.5,0.1,0.8,0.1s0.6,0,1,0c0.9,0,1.6-0.1,2-0.3
		c0.5-0.2,0.8-0.5,1-0.9c0.2-0.4,0.4-0.8,0.4-1.3c0-0.7-0.3-1.4-0.9-1.9s-1.5-0.8-2.6-0.8c-0.6,0-1.2,0.1-1.7,0.2V152.6z
		 M219.3,158.6c0.7,0.2,1.4,0.3,2.1,0.3c1.1,0,2-0.3,2.6-0.8c0.6-0.5,0.9-1.1,0.9-1.9c0-0.5-0.1-1-0.4-1.4c-0.3-0.5-0.7-0.8-1.3-1.1
		c-0.6-0.3-1.3-0.4-2.2-0.4c-0.4,0-0.7,0-1,0c-0.3,0-0.5,0-0.7,0.1V158.6z"/>
	<path d="M229.8,155.9c0.2,0,0.4-0.1,0.7-0.2c0.2-0.1,0.4-0.2,0.6-0.3c0.2-0.1,0.3-0.3,0.4-0.4c0.1-0.2,0.1-0.4,0.1-0.6
		c0-0.2,0-0.3-0.1-0.5s-0.2-0.2-0.3-0.3c-0.1-0.1-0.2-0.1-0.4-0.2c-0.1,0-0.3-0.1-0.4-0.1c-0.2,0-0.4,0-0.5,0.1
		c-0.1,0.1-0.3,0.1-0.4,0.2c-0.1,0.1-0.2,0.2-0.2,0.3c-0.1,0.1-0.1,0.2-0.2,0.3l-0.4-0.2c0-0.1,0.1-0.3,0.2-0.4
		c0.1-0.2,0.2-0.3,0.4-0.5c0.2-0.2,0.4-0.3,0.6-0.4c0.2-0.1,0.6-0.2,0.9-0.2c0.2,0,0.5,0,0.7,0.1c0.2,0.1,0.4,0.2,0.6,0.3
		c0.2,0.1,0.3,0.3,0.4,0.5c0.1,0.2,0.2,0.4,0.2,0.6c0,0.5-0.3,1-1,1.4c0.3,0.1,0.6,0.3,0.8,0.5c0.2,0.2,0.3,0.4,0.4,0.5
		c0.1,0.2,0.1,0.3,0.1,0.5c0,0.1,0,0.2,0,0.3c0,0.3-0.1,0.6-0.2,0.9c-0.1,0.3-0.3,0.5-0.5,0.7s-0.5,0.4-0.9,0.5
		c-0.4,0.1-0.8,0.2-1.3,0.2c-0.3,0-0.6,0-0.8-0.1c-0.2,0-0.4-0.1-0.5-0.1c-0.1-0.1-0.2-0.1-0.3-0.2c0-0.1-0.1-0.1-0.1-0.2
		c0-0.1,0.1-0.2,0.2-0.3s0.2-0.1,0.4-0.1c0.1,0,0.3,0,0.4,0.1c0.1,0.1,0.3,0.1,0.4,0.2c0.1,0.1,0.3,0.1,0.4,0.2
		c0.1,0.1,0.3,0.1,0.4,0.1c0.2,0,0.3,0,0.5-0.1c0.1-0.1,0.3-0.2,0.4-0.3s0.2-0.2,0.3-0.4c0.1-0.2,0.1-0.3,0.1-0.5
		c0-0.3-0.1-0.6-0.2-0.8c-0.1-0.2-0.3-0.4-0.5-0.5c-0.2-0.1-0.4-0.2-0.7-0.3c-0.3-0.1-0.5-0.1-0.8-0.1V155.9z"/>
</g>
<g>
	<rect x="292.4" y="146.3" class="st2" width="24.6" height="16"/>
	<path d="M301.1,153.1c0.9,0.2,1.5,0.5,2,0.9c0.6,0.6,0.9,1.3,0.9,2.1c0,0.6-0.2,1.2-0.6,1.8c-0.4,0.6-0.9,1-1.6,1.3
		c-0.7,0.3-1.7,0.4-3.2,0.4h-5.9v-0.3h0.5c0.5,0,0.9-0.2,1.1-0.5c0.1-0.2,0.2-0.7,0.2-1.4v-8.1c0-0.8-0.1-1.3-0.3-1.5
		c-0.2-0.3-0.6-0.4-1.1-0.4h-0.5v-0.3h5.4c1,0,1.8,0.1,2.4,0.2c0.9,0.2,1.6,0.6,2.1,1.2c0.5,0.6,0.7,1.2,0.7,2
		c0,0.6-0.2,1.2-0.6,1.7C302.5,152.5,301.9,152.8,301.1,153.1z M296.3,152.6c0.2,0,0.5,0.1,0.8,0.1s0.6,0,1,0c0.9,0,1.6-0.1,2-0.3
		c0.5-0.2,0.8-0.5,1-0.9c0.2-0.4,0.4-0.8,0.4-1.3c0-0.7-0.3-1.4-0.9-1.9s-1.5-0.8-2.6-0.8c-0.6,0-1.2,0.1-1.7,0.2V152.6z
		 M296.3,158.6c0.7,0.2,1.4,0.3,2.1,0.3c1.1,0,2-0.3,2.6-0.8c0.6-0.5,0.9-1.1,0.9-1.9c0-0.5-0.1-1-0.4-1.4c-0.3-0.5-0.7-0.8-1.3-1.1
		c-0.6-0.3-1.3-0.4-2.2-0.4c-0.4,0-0.7,0-1,0c-0.3,0-0.5,0-0.7,0.1V158.6z"/>
	<path d="M309.5,152.6v4.4h1v0.9h-1v1.7h-1.2v-1.7h-3.1v-0.9l3.5-4.4H309.5z M308.3,154L308.3,154l-2.4,3h2.4V154z"/>
</g>
<g>
</g>
<g>
</g>
<g>
</g>
<g>
</g>
<g>
</g>
<g>
</g>
<g>
</g>
<g>
</g>
<g>
</g>
<g>
</g>
<g>
</g>
<g>
</g>
<g>
</g>
<g>
</g>
<g>
</g>
</svg>
