<svg id="Layer_1" data-name="Layer 1" xmlns="http://www.w3.org/2000/svg" viewBox="0 0 545.17 545"><defs><style>.cls-1,.cls-11,.cls-12,.cls-13,.cls-16,.cls-17,.cls-2,.cls-3,.cls-4,.cls-5{fill:none;stroke-miterlimit:10;}.cls-1,.cls-2{stroke:gray;}.cls-2{stroke-dasharray:5.13 5.13;}.cls-12,.cls-16,.cls-3{stroke:red;}.cls-13,.cls-17,.cls-4{stroke:#0071bc;}.cls-11,.cls-5{stroke:#000;}.cls-5{stroke-width:2px;}.cls-6{font-size:24px;font-family:TimesNewRomanPSMT, Times New Roman;}.cls-7{font-size:18px;}.cls-7,.cls-8{font-family:TimesNewRomanPS-ItalicMT, Times New Roman;font-style:italic;}.cls-8{font-size:16px;fill:#999;}.cls-9{fill:#0071bc;}.cls-10{fill:red;}.cls-11{stroke-width:0.5px;}.cls-12,.cls-13{fill-rule:evenodd;}.cls-14{letter-spacing:-0.11em;}.cls-15{letter-spacing:-0.04em;}.cls-16{stroke-dasharray:2.83 2.83;}.cls-17{stroke-dasharray:2.89 2.89;}</style></defs><title>moments</title><line class="cls-1" x1="89.67" y1="212" x2="89.67" y2="209.5"/><line class="cls-2" x1="89.67" y1="204.37" x2="89.67" y2="135.07"/><line class="cls-1" x1="89.67" y1="132.5" x2="89.67" y2="130"/><line class="cls-1" x1="169.67" y1="212" x2="169.67" y2="209.5"/><line class="cls-2" x1="169.67" y1="204.37" x2="169.67" y2="135.07"/><line class="cls-1" x1="169.67" y1="132.5" x2="169.67" y2="130"/><polyline class="cls-3" points="118.67 211.5 89.67 129.5 60.67 211.5"/><polyline class="cls-4" points="198.67 211.5 169.67 129.5 140.67 211.5"/><path d="M547,74V331H290V74H547m1-1H289V332H548V73Z" transform="translate(-288.83 -73)"/><line class="cls-5" x1="45.17" y1="211.5" x2="208.99" y2="211.5"/><polygon points="207.53 216.49 216.17 211.5 207.53 206.51 207.53 216.49"/><text class="cls-6" transform="translate(55.95 41.35)">Expected value</text><text class="cls-7" transform="translate(70.52 65.27)">center of gravity</text><text class="cls-8" transform="translate(96.06 82.87)">1</text><text class="cls-8" transform="translate(104.06 77.54) scale(0.58)">st</text><text class="cls-8" transform="translate(110.28 82.87)"><tspan xml:space="preserve"> moment</tspan></text><path class="cls-9" d="M473.64,216.86l0,0a2.41,2.41,0,0,1,.71-.56,1.2,1.2,0,0,1,1.35.17,1.24,1.24,0,0,1,.42.63,1.89,1.89,0,0,1,.1.81,3.19,3.19,0,0,1-.7,1.79,2.84,2.84,0,0,1-.8.71,1.82,1.82,0,0,1-.74.26,1,1,0,0,1-1-.54l0-.08c0,.08,0,.13-.05.19-.14.55-.28,1.1-.41,1.65a.5.5,0,0,0,0,.13c0,.07,0,.11.09.12l.24,0h.35s.05,0,.05.06a.17.17,0,0,1-.18.23l-.58,0h-.62l-.39,0h-.22c-.09,0-.16,0-.14-.16s.06-.14.17-.15h.28a.26.26,0,0,0,.27-.23c.05-.16.08-.31.12-.46.19-.73.37-1.46.55-2.2.12-.45.23-.9.35-1.35l.18-.71a1.46,1.46,0,0,0,0-.55l0-.11a.27.27,0,0,0-.32-.16.42.42,0,0,0-.28.19,1.25,1.25,0,0,0-.22.41c-.07.22-.13.43-.19.64l0,.1a.13.13,0,0,1-.17.06.09.09,0,0,1-.07-.13c0-.17.09-.33.13-.49a2.41,2.41,0,0,1,.26-.59.81.81,0,0,1,.24-.28.75.75,0,0,1,.58-.13.85.85,0,0,1,.72.67v0Zm1.91.42h0c0-.07,0-.15,0-.22a1,1,0,0,0-.11-.39.55.55,0,0,0-.53-.31.87.87,0,0,0-.39.1,2.24,2.24,0,0,0-.75.65.83.83,0,0,0-.16.31l-.12.46c-.13.51-.25,1-.38,1.54a.43.43,0,0,0,0,.16,1.1,1.1,0,0,0,.15.44.79.79,0,0,0,.36.34.69.69,0,0,0,.58,0,1.54,1.54,0,0,0,.53-.42,2.42,2.42,0,0,0,.47-.88,7.87,7.87,0,0,0,.31-1.18C475.51,217.67,475.52,217.47,475.55,217.28Z" transform="translate(-288.83 -73)"/><path class="cls-9" d="M480.19,219.09l0,0,.43-.42.64-.63.18-.18a1.09,1.09,0,0,0,.08-.15.13.13,0,0,0-.08-.17l-.09,0h-.06c-.08,0-.11-.05-.1-.12a.13.13,0,0,1,.12-.14h.55a3.88,3.88,0,0,0,.68,0h.24c.07,0,.11,0,.11.09a.12.12,0,0,1-.09.16h-.1a1.51,1.51,0,0,0-.94.4c-.17.14-.33.3-.5.45l-.64.63-.3.31-.06.05a1.74,1.74,0,0,1,.1.19l.39.77.62,1.22,0,0a.27.27,0,0,0,.24.17H482c.09,0,.12,0,.12.11s0,.14-.12.14h-1.22l-.36,0h-.17a.1.1,0,0,1-.11-.09.13.13,0,0,1,.07-.14l.08,0a.52.52,0,0,0,.32-.11.17.17,0,0,0,.06-.06l-.89-1.73-.16.15-.49.48-.59.58-.33.33a.35.35,0,0,0-.08.13.14.14,0,0,0,.09.2.27.27,0,0,0,.12,0c.09,0,.13,0,.12.12s0,.13-.13.13a1.61,1.61,0,0,1-.31,0h-1.16c-.07,0-.11,0-.11-.09s0-.14.09-.15l.22,0a1.39,1.39,0,0,0,.57-.2,3.81,3.81,0,0,0,.5-.4l.78-.77.7-.68.06-.06a1.74,1.74,0,0,1-.1-.19l-.33-.65-.56-1.09a.3.3,0,0,0-.27-.18h-.34a.09.09,0,0,1-.09-.11c0-.1.05-.14.14-.14l.33,0c.22,0,.45,0,.67,0h.73c.07,0,.11,0,.11.11a.12.12,0,0,1-.1.14h-.08a.62.62,0,0,0-.27.09c-.07.05-.08.08,0,.15l.38.74c.1.18.19.36.28.54A.93.93,0,0,1,480.19,219.09Z" transform="translate(-288.83 -73)"/><path class="cls-9" d="M494.45,216.87l.14-.21a1.49,1.49,0,0,1,.38-.37,1.07,1.07,0,0,1,.72-.15,1.26,1.26,0,0,1,.46.16.52.52,0,0,1,.27.4.56.56,0,0,1-.53.67.35.35,0,0,1-.35-.52.58.58,0,0,1,.35-.35l.09,0-.15-.06a.92.92,0,0,0-.59,0,.84.84,0,0,0-.38.29,1.64,1.64,0,0,0-.28.58q-.15.53-.27,1c-.1.37-.19.74-.28,1.12a1.39,1.39,0,0,0,0,.5.6.6,0,0,0,.26.41.62.62,0,0,0,.42.05,1.29,1.29,0,0,0,.58-.3,2.07,2.07,0,0,0,.56-.87.88.88,0,0,1,.05-.15.15.15,0,0,1,.2-.06.08.08,0,0,1,0,.08,1.16,1.16,0,0,1,0,.18,2.49,2.49,0,0,1-.38.7,2,2,0,0,1-.51.46,1.22,1.22,0,0,1-.62.19,1.08,1.08,0,0,1-.87-.32,1,1,0,0,1-.23-.36l0,0-.05.08a1.44,1.44,0,0,1-.46.49.93.93,0,0,1-.53.17,1.27,1.27,0,0,1-.66-.17.56.56,0,0,1-.27-.37.57.57,0,0,1,.41-.68.39.39,0,0,1,.28,0,.33.33,0,0,1,.22.38.56.56,0,0,1-.4.46l-.05,0a.6.6,0,0,0,.27.1.78.78,0,0,0,.48,0,1,1,0,0,0,.33-.25,1.69,1.69,0,0,0,.32-.66c.17-.63.35-1.27.49-1.91a3.85,3.85,0,0,0,.07-.49.75.75,0,0,0-.09-.43.48.48,0,0,0-.42-.25.92.92,0,0,0-.43.09,1.62,1.62,0,0,0-.64.58,2.47,2.47,0,0,0-.29.64.14.14,0,0,1-.21.08.07.07,0,0,1,0-.08.4.4,0,0,1,0-.15,2.29,2.29,0,0,1,.43-.78,1.63,1.63,0,0,1,.55-.46,1.24,1.24,0,0,1,1.31.09,1.18,1.18,0,0,1,.33.43Z" transform="translate(-288.83 -73)"/><path class="cls-9" d="M488.33,218c0-.13,0-.27,0-.41s0-.44.06-.67a5.88,5.88,0,0,1,.14-.73,5.48,5.48,0,0,1,.38-1.12,4.92,4.92,0,0,1,.46-.84,5.37,5.37,0,0,1,.56-.7,3.72,3.72,0,0,1,.47-.42l.1-.06a.09.09,0,0,1,.11,0,.09.09,0,0,1,0,.13l-.06.07a4.84,4.84,0,0,0-.75.94,5.9,5.9,0,0,0-.7,1.77,7.93,7.93,0,0,0-.14.85,7.36,7.36,0,0,0-.06.81c0,.21,0,.43,0,.64s0,.67.08,1a8.68,8.68,0,0,0,.26,1.23,5.61,5.61,0,0,0,.67,1.45,4,4,0,0,0,.48.61l.21.22a.18.18,0,0,1,0,.09.09.09,0,0,1-.14.08,2.2,2.2,0,0,1-.25-.17,4.63,4.63,0,0,1-.85-1,4.18,4.18,0,0,1-.4-.68,6.25,6.25,0,0,1-.51-1.45,8.7,8.7,0,0,1-.13-.87,1.72,1.72,0,0,1,0-.32l0-.51Z" transform="translate(-288.83 -73)"/><path class="cls-9" d="M499.7,218.05a8,8,0,0,1-.31,2.18,5.3,5.3,0,0,1-.34.86,5.21,5.21,0,0,1-.86,1.31,3.64,3.64,0,0,1-.57.54l-.1.06a.09.09,0,0,1-.12,0s0-.09,0-.12l.05-.06a5,5,0,0,0,.82-1.06,5.43,5.43,0,0,0,.41-.88,6.73,6.73,0,0,0,.33-1.34c0-.18.05-.37.07-.55l0-.48c0-.27,0-.54,0-.81a8.58,8.58,0,0,0-.25-1.88,6.59,6.59,0,0,0-.48-1.28,4.76,4.76,0,0,0-.68-1l-.26-.26s-.06-.07-.05-.12a.08.08,0,0,1,.12-.08.21.21,0,0,1,.1.06,3.23,3.23,0,0,1,.52.46,4.34,4.34,0,0,1,.46.58,5.09,5.09,0,0,1,.7,1.35,5.84,5.84,0,0,1,.31,1.23c0,.18.05.36.07.54l0,.57C499.69,217.93,499.7,218,499.7,218.05Z" transform="translate(-288.83 -73)"/><path class="cls-9" d="M483.66,220.19a.91.91,0,0,1,.17.09.29.29,0,0,1-.17.51.29.29,0,0,1-.32-.33.8.8,0,0,1,.4-.64,1.27,1.27,0,0,1,.65-.2,1.77,1.77,0,0,1,.82.13,1,1,0,0,1,.45.34.86.86,0,0,1,0,.95,1.22,1.22,0,0,1-.35.4l-.57.41-.75.55,0,0h1.39a.13.13,0,0,0,.14-.1,2.68,2.68,0,0,1,.07-.27s0-.06,0-.1h.21l-.16,1h-2.31a.26.26,0,0,1,0-.15s0-.06.07-.09l.28-.24,1-.87a1.77,1.77,0,0,0,.45-.53.79.79,0,0,0,.08-.64.73.73,0,0,0-.48-.5,1,1,0,0,0-.8,0A.66.66,0,0,0,483.66,220.19Z" transform="translate(-288.83 -73)"/><path class="cls-10" d="M342.63,216.85l.22-.22a2.06,2.06,0,0,1,.64-.41,1.17,1.17,0,0,1,1.24.21,1.4,1.4,0,0,1,.43.64,2,2,0,0,1,.09.81,3.22,3.22,0,0,1-.69,1.77,2.92,2.92,0,0,1-.73.67,1.86,1.86,0,0,1-.83.31,1.08,1.08,0,0,1-.56-.08,1,1,0,0,1-.46-.46l0-.08-.12.43c-.1.42-.21.84-.31,1.26a1.89,1.89,0,0,0-.05.23.07.07,0,0,0,0,0c0,.08,0,.11.09.12l.23,0H342c.15,0,.16.07.14.19a.14.14,0,0,1-.15.12h-.43c-.27,0-.53,0-.8,0l-.39,0h-.22c-.11,0-.14,0-.14-.13a.15.15,0,0,1,.14-.18h.31a.26.26,0,0,0,.27-.23c.06-.21.11-.42.16-.63l.51-2,.35-1.37c.06-.25.13-.51.19-.77a1.35,1.35,0,0,0,0-.49.3.3,0,0,0-.46-.23.72.72,0,0,0-.23.23,2,2,0,0,0-.23.57l-.12.41a.19.19,0,0,1,0,.08.14.14,0,0,1-.22.06.09.09,0,0,1,0-.06.5.5,0,0,1,0-.12,4.48,4.48,0,0,1,.22-.71,2.69,2.69,0,0,1,.17-.34.74.74,0,0,1,.86-.35.82.82,0,0,1,.66.64v0Zm1.92.43h0c0-.07,0-.15,0-.22a1,1,0,0,0-.11-.39.55.55,0,0,0-.53-.31.87.87,0,0,0-.39.1,2.34,2.34,0,0,0-.75.65.83.83,0,0,0-.16.31c-.17.67-.34,1.33-.5,2a.43.43,0,0,0,0,.16,1.15,1.15,0,0,0,.15.44.79.79,0,0,0,.36.34.72.72,0,0,0,.59,0,1.61,1.61,0,0,0,.52-.42,2.58,2.58,0,0,0,.47-.88,7.87,7.87,0,0,0,.31-1.18C344.51,217.67,344.52,217.48,344.55,217.28Z" transform="translate(-288.83 -73)"/><path class="cls-10" d="M348.79,219.81l-.16.14-.48.48-.6.59c-.11.11-.23.22-.33.33a.35.35,0,0,0-.08.13.14.14,0,0,0,.08.2.32.32,0,0,0,.14,0c.07,0,.11,0,.11.1s0,.15-.11.15h-.17c-.27,0-.54,0-.81,0l-.34,0h-.19c-.05,0-.07,0-.09-.07a.13.13,0,0,1,.11-.17l.18,0a1.35,1.35,0,0,0,.72-.29,4.32,4.32,0,0,0,.39-.34c.26-.24.51-.49.76-.74l.7-.68.06-.06a1.74,1.74,0,0,1-.1-.19l-.3-.6c-.2-.38-.39-.76-.58-1.14a.32.32,0,0,0-.28-.18h-.34c-.07,0-.1-.05-.09-.12s.05-.13.15-.13l.31,0c.23,0,.46,0,.69,0h.72c.07,0,.11,0,.11.1a.13.13,0,0,1-.09.15h-.1a.58.58,0,0,0-.25.09c-.08,0-.09.08,0,.16l.5.95c0,.11.11.22.16.32a.93.93,0,0,1,.05.1l.05,0,.6-.6c.19-.18.39-.36.57-.55a.79.79,0,0,0,.12-.15.16.16,0,0,0-.1-.26l-.11,0c-.07,0-.09-.05-.09-.11s0-.14.1-.14h.18l.4,0h.26l.53,0h.13c.06,0,.1,0,.1.09a.11.11,0,0,1-.07.15l-.12,0a1.41,1.41,0,0,0-.85.33l-.43.37-.8.78c-.12.12-.23.24-.36.35l.1.2.35.7c.22.43.45.85.66,1.29a.37.37,0,0,0,.34.22H351c.08,0,.12,0,.12.11s0,.15-.13.14h-1.2l-.38,0h-.16a.1.1,0,0,1-.11-.09.13.13,0,0,1,.07-.14l.08,0a.77.77,0,0,0,.26-.07.18.18,0,0,0,.11-.1Z" transform="translate(-288.83 -73)"/><path class="cls-10" d="M362.44,219.91l-.19.27a1.19,1.19,0,0,1-.58.41,1.1,1.1,0,0,1-.54,0,1,1,0,0,1-.46-.19.59.59,0,0,1,0-.9.55.55,0,0,1,.45-.11.35.35,0,0,1,.26.4.57.57,0,0,1-.4.46l-.05,0,.05,0a.85.85,0,0,0,.7,0,.81.81,0,0,0,.33-.25,1.63,1.63,0,0,0,.32-.66c.17-.63.35-1.26.49-1.91a4.13,4.13,0,0,0,.07-.49.77.77,0,0,0-.08-.42.5.5,0,0,0-.53-.26,1.14,1.14,0,0,0-.69.34,2,2,0,0,0-.53.85.69.69,0,0,0-.05.13c0,.07-.07.1-.16.08a.09.09,0,0,1-.08-.13,2.17,2.17,0,0,1,.07-.24,2.52,2.52,0,0,1,.55-.82,1.42,1.42,0,0,1,.71-.41,1.15,1.15,0,0,1,1.06.27,1.32,1.32,0,0,1,.26.36l0,.09a.9.9,0,0,0,.05-.09,1.75,1.75,0,0,1,.43-.47.92.92,0,0,1,.68-.18,1.06,1.06,0,0,1,.54.16.52.52,0,0,1,.27.4.55.55,0,0,1-.53.67.35.35,0,0,1-.38-.43.57.57,0,0,1,.35-.42l.12-.05-.14-.05a.88.88,0,0,0-.6,0,.78.78,0,0,0-.38.29,1.56,1.56,0,0,0-.28.58c-.1.35-.18.7-.27,1s-.19.74-.28,1.12a1.35,1.35,0,0,0,0,.49.67.67,0,0,0,.16.34.54.54,0,0,0,.33.14.92.92,0,0,0,.54-.15,1.55,1.55,0,0,0,.62-.65,3.11,3.11,0,0,0,.21-.5c0-.11.07-.11.18-.1s.06,0,.07.08a.78.78,0,0,1,0,.21,2.61,2.61,0,0,1-.39.69,1.8,1.8,0,0,1-.5.45,1.22,1.22,0,0,1-.61.19,1.12,1.12,0,0,1-.72-.19,1.08,1.08,0,0,1-.39-.48l0,0Z" transform="translate(-288.83 -73)"/><path class="cls-10" d="M357.33,218c0-.14,0-.28,0-.42,0-.32.05-.63.1-1a7.78,7.78,0,0,1,.28-1.08,6,6,0,0,1,.57-1.2,5.3,5.3,0,0,1,.66-.84,3,3,0,0,1,.46-.41l.09,0a.09.09,0,0,1,.13,0,.09.09,0,0,1,0,.12l-.06.07a4.15,4.15,0,0,0-.52.59,5.5,5.5,0,0,0-.8,1.63,6.81,6.81,0,0,0-.26,1.27,5.29,5.29,0,0,0-.05.56c0,.32,0,.64,0,1s0,.4,0,.6,0,.35.06.53a6.81,6.81,0,0,0,.28,1.23,5.2,5.2,0,0,0,.53,1.18,4,4,0,0,0,.59.77c.07.08.14.15.2.23a.08.08,0,0,1,0,.09.1.1,0,0,1-.14.07l-.15-.09a3.82,3.82,0,0,1-.51-.48,5.64,5.64,0,0,1-.75-1.06,6.65,6.65,0,0,1-.44-1,7.48,7.48,0,0,1-.23-1c0-.18-.05-.35-.07-.52s0-.51,0-.76Z" transform="translate(-288.83 -73)"/><path class="cls-10" d="M368.7,218.05a7.74,7.74,0,0,1-.32,2.19,6.19,6.19,0,0,1-.32.85,5.53,5.53,0,0,1-.87,1.31,3.64,3.64,0,0,1-.57.54l-.1.05s-.09,0-.12,0a.12.12,0,0,1,0-.13l.06-.06a4.82,4.82,0,0,0,.72-.9,5.46,5.46,0,0,0,.59-1.3,6.5,6.5,0,0,0,.24-1.06c0-.19.05-.37.07-.56l0-.48c0-.27,0-.54,0-.8a8.56,8.56,0,0,0-.22-1.76,6.57,6.57,0,0,0-.5-1.39,4.57,4.57,0,0,0-.69-1c-.08-.09-.17-.17-.26-.26a.14.14,0,0,1-.05-.11.09.09,0,0,1,.13-.09l.09,0a3.87,3.87,0,0,1,.52.47,5.7,5.7,0,0,1,1.16,1.92,7.38,7.38,0,0,1,.31,1.23c0,.18.05.36.07.54l0,.58C368.69,217.93,368.7,218,368.7,218.05Z" transform="translate(-288.83 -73)"/><path class="cls-10" d="M354.64,222.71v.21q-1,0-2,0v-.21H353l.23,0c.11,0,.14-.06.14-.17V220a2,2,0,0,1-.81.13,1.62,1.62,0,0,1,0-.22h.14a1.66,1.66,0,0,0,.66-.14,2.2,2.2,0,0,0,.26-.15.19.19,0,0,1,.18,0,.08.08,0,0,1,0,.05.28.28,0,0,1,0,.09v2.71c0,.15,0,.18.17.2l.25,0h.34A0,0,0,0,0,354.64,222.71Z" transform="translate(-288.83 -73)"/><path class="cls-10" d="M385,295v-.23h0c.13,0,.27,0,.4,0a.91.91,0,0,0,.23,0c.08,0,.11-.06.11-.15v-2.5a2.09,2.09,0,0,1-.81.13V292h.17a1.91,1.91,0,0,0,.62-.13.84.84,0,0,0,.28-.18h.15s0,.05.05.09v2.81c0,.11,0,.14.14.16l.29,0c.11,0,.23,0,.34,0V295h-2Z" transform="translate(-288.83 -73)"/><path class="cls-10" d="M375.54,292l-.27.28a1.5,1.5,0,0,1-.36.26,1.37,1.37,0,0,1-.44.16l-.16,0h-.18a1.68,1.68,0,0,1-.58-.13,1.11,1.11,0,0,1-.3-.17,1,1,0,0,0,0,.14c-.1.41-.2.83-.31,1.24l-.15.6a.46.46,0,0,1-.15.26.36.36,0,0,1-.43,0,.26.26,0,0,1-.1-.25c.06-.26.12-.51.19-.76l.24-1,.24-1c.08-.3.16-.6.23-.9s.15-.61.23-.91.15-.61.23-.91l.12-.49a.41.41,0,0,1,.34-.29.28.28,0,0,1,.25.06.24.24,0,0,1,.08.24c-.14.58-.29,1.17-.43,1.75-.06.21-.11.42-.16.63s-.06.25-.08.37a1.86,1.86,0,0,0,0,.47.91.91,0,0,0,.15.48.61.61,0,0,0,.4.26,1.31,1.31,0,0,0,.28,0,1,1,0,0,0,.36-.1,1.55,1.55,0,0,0,.54-.41,1.65,1.65,0,0,0,.27-.38,2.29,2.29,0,0,0,.09-.28c.06-.25.12-.5.19-.75s.13-.55.2-.83.15-.57.22-.86c0-.1,0-.19.08-.28a.37.37,0,0,1,.4-.27.24.24,0,0,1,.25.23.51.51,0,0,1,0,.21c0,.17-.07.33-.11.5s-.08.28-.11.42l-.14.53c-.05.22-.11.43-.16.65s-.11.47-.17.7-.05.22-.06.32a.85.85,0,0,0,0,.42.24.24,0,0,0,.25.18.42.42,0,0,0,.34-.17,1.13,1.13,0,0,0,.24-.46c.07-.19.12-.39.18-.59l0-.12a.08.08,0,0,1,.09-.06h.08s.08.05.06.14a5.61,5.61,0,0,1-.19.67,1.82,1.82,0,0,1-.2.45,1,1,0,0,1-.35.31,1,1,0,0,1-.25.06,1.14,1.14,0,0,1-.37-.05,1,1,0,0,1-.28-.17.8.8,0,0,1-.28-.46S375.54,292,375.54,292Z" transform="translate(-288.83 -73)"/><path class="cls-10" d="M381.55,291.18l0,0,.64-.63a3.07,3.07,0,0,1,.26-.25l.31-.31a.57.57,0,0,0,.12-.18.14.14,0,0,0-.1-.2.61.61,0,0,0-.13,0c-.11,0-.1-.08-.09-.15a.11.11,0,0,1,.13-.1H383l.35,0h.21l.43,0h.13c.1,0,.13,0,.13.13a.11.11,0,0,1,0,.09l-.07,0H384a1.06,1.06,0,0,0-.36.09,1.46,1.46,0,0,0-.46.28,3.47,3.47,0,0,0-.29.25l-.31.3-.58.57-.33.32s0,0,0,.05l.3.58c.06.13.13.26.2.39l.2.4.2.4.2.39c0,.07.07.14.14.16l.19.05h.27c.09,0,.12,0,.12.1s0,.15-.13.15h-.27c-.33,0-.66,0-1,0h-.49a.1.1,0,0,1-.1-.13c0-.1.06-.12.14-.12a.81.81,0,0,0,.35-.12s0-.05,0-.09-.18-.37-.28-.55l-.27-.54-.27-.53-.05-.07L381,292l0,0-.51.5-.28.28-.29.28-.28.27a.41.41,0,0,0-.12.17.16.16,0,0,0,.09.22.5.5,0,0,0,.13,0c.09,0,.12.06.1.14a.12.12,0,0,1-.14.11h-.27c-.24,0-.48,0-.73,0l-.46,0a.1.1,0,0,1-.11-.11c0-.06,0-.11.08-.13h.08a1.63,1.63,0,0,0,.44-.08,1.7,1.7,0,0,0,.44-.24l.29-.25.26-.24.59-.59.33-.31.42-.41-.19-.37c-.1-.19-.19-.37-.28-.56s-.13-.24-.19-.36l-.18-.35c-.05-.11-.11-.21-.16-.32a.27.27,0,0,0-.22-.15h-.26l-.14,0a.1.1,0,0,1-.08-.12.13.13,0,0,1,.16-.12h1.32l.39,0a.1.1,0,0,1,.12.09.13.13,0,0,1-.09.15l-.09,0a.58.58,0,0,0-.31.11s0,.06,0,.1l.19.38.18.35c.07.14.14.28.22.42Z" transform="translate(-288.83 -73)"/><path class="cls-9" d="M463.69,295a.27.27,0,0,0,0-.09c0-.08,0-.12.09-.17l.16-.13.22-.19.16-.13.22-.19.16-.13.27-.23.12-.11c.08-.08.17-.16.24-.24a1.34,1.34,0,0,0,.27-.44.93.93,0,0,0,0-.33.73.73,0,0,0-.37-.58.77.77,0,0,0-.36-.12h-.17a1,1,0,0,0-.39.08.86.86,0,0,0-.29.21l-.06.08a.28.28,0,0,1,.26.17.3.3,0,0,1-.5.32.34.34,0,0,1-.06-.15.72.72,0,0,1,.12-.47,1,1,0,0,1,.34-.29,1.1,1.1,0,0,1,.47-.16,1.61,1.61,0,0,1,.31,0,1.49,1.49,0,0,1,.55.1,1.13,1.13,0,0,1,.48.32.74.74,0,0,1,.19.42,1,1,0,0,1,0,.17,1,1,0,0,1-.2.54,2.23,2.23,0,0,1-.42.39l-.6.42-.54.4-.09.06h1.27l.19,0a.06.06,0,0,0,.06,0,.79.79,0,0,0,.08-.26l0-.16h.22l-.17,1Z" transform="translate(-288.83 -73)"/><path class="cls-9" d="M454.54,292a3.57,3.57,0,0,1-.27.28,2,2,0,0,1-.36.27,1.76,1.76,0,0,1-.44.15l-.17,0h-.17a1.68,1.68,0,0,1-.58-.13l-.15-.07-.15-.1v0a2.46,2.46,0,0,0-.07.29c-.08.31-.15.61-.23.91s-.09.37-.14.56-.05.21-.09.31a.37.37,0,0,1-.17.18.34.34,0,0,1-.34,0,.27.27,0,0,1-.13-.27l.18-.76c.09-.33.17-.67.25-1l.27-1.06c.08-.31.15-.62.23-.93s.16-.62.23-.94.16-.6.23-.9c0-.12.06-.24.1-.36a.39.39,0,0,1,.33-.28.28.28,0,0,1,.25.06.24.24,0,0,1,.08.24c-.11.46-.23.93-.34,1.39s-.17.66-.25,1l-.09.46a1.28,1.28,0,0,0,0,.39.91.91,0,0,0,.15.48.61.61,0,0,0,.4.26,1.31,1.31,0,0,0,.28,0,1.06,1.06,0,0,0,.35-.09,1.93,1.93,0,0,0,.82-.8.66.66,0,0,0,.06-.2l.21-.8.21-.85c.07-.29.15-.57.22-.85,0-.1,0-.2.08-.3a.38.38,0,0,1,.41-.27.25.25,0,0,1,.24.2.41.41,0,0,1,0,.19c-.05.18-.09.36-.13.55l-.12.47-.12.48c-.06.22-.12.43-.17.65s-.11.47-.17.7-.05.22-.06.33a.81.81,0,0,0,0,.41.24.24,0,0,0,.24.18.43.43,0,0,0,.35-.17,1.16,1.16,0,0,0,.24-.45c.07-.2.12-.4.18-.6l0-.12a.08.08,0,0,1,.09-.06h.09s.07,0,.05.13-.1.38-.16.57-.09.26-.14.39a1,1,0,0,1-.27.35.65.65,0,0,1-.34.17,1,1,0,0,1-.7-.18.87.87,0,0,1-.32-.5h0Z" transform="translate(-288.83 -73)"/><path class="cls-9" d="M460.14,291.89l-.34.34-.33.32c-.08.08-.17.16-.25.25l-.33.31-.27.27a.48.48,0,0,0-.12.17.15.15,0,0,0,.09.22l.12,0c.1,0,.13.06.11.13a.12.12,0,0,1-.14.12h-.27c-.24,0-.49,0-.73,0l-.46,0a.11.11,0,0,1-.11-.12c0-.05,0-.1.08-.12h.08a1.63,1.63,0,0,0,.44-.08,1.48,1.48,0,0,0,.44-.25c.1-.07.19-.16.29-.24l.21-.2.64-.63.33-.31.4-.39a0,0,0,0,0,0-.05l-.28-.55-.17-.34c-.13-.24-.25-.49-.37-.73l-.15-.29a.29.29,0,0,0-.23-.17h-.38c-.09,0-.11-.06-.09-.13a.12.12,0,0,1,.15-.12l.48,0h.78l.45,0a.1.1,0,0,1,.12.08.15.15,0,0,1-.12.17.7.7,0,0,0-.34.1c-.06,0-.07.07,0,.14l.28.53c.06.13.13.26.2.39l.24.46,0,0,.65-.63.25-.25c.11-.1.22-.2.32-.31a.36.36,0,0,0,.13-.19.15.15,0,0,0-.08-.18l-.16,0q-.14,0-.09-.15a.12.12,0,0,1,.13-.1H462l.35,0h.23l.41,0h.17a.09.09,0,0,1,.09.1v.06a.13.13,0,0,1-.12.09H463a1.19,1.19,0,0,0-.36.09,1.67,1.67,0,0,0-.46.28l-.28.25-.32.3-.45.45-.45.44s0,0,0,.05l.3.58c.06.13.13.26.2.4l.2.39.2.4.2.39.06.1a.32.32,0,0,0,.22.1l.32,0c.08,0,.12,0,.12.1s0,.15-.12.15h-.28c-.33,0-.66,0-1,0h-.5a.11.11,0,0,1-.11-.13.13.13,0,0,1,.15-.12.66.66,0,0,0,.34-.12s0-.05,0-.09-.18-.37-.28-.56l-.27-.53-.28-.53A.3.3,0,0,0,460.14,291.89Z" transform="translate(-288.83 -73)"/><rect class="cls-9" x="224.74" y="243.51" width="7.44" height="7.44"/><polyline class="cls-11" points="235.56 250.15 238.49 247.22 238.36 247.09 235.43 244.16"/><rect class="cls-10" x="241.75" y="243.43" width="7.44" height="7.44"/><line class="cls-1" x1="408.67" y1="212" x2="408.67" y2="209.5"/><line class="cls-2" x1="408.67" y1="204.37" x2="408.67" y2="135.07"/><line class="cls-1" x1="408.67" y1="132.5" x2="408.67" y2="130"/><path class="cls-12" d="M739.25,285c-22.92-.58-25.37-29.54-28-40s-6-32-13.8-32-11.21,21.61-13.8,32-5,39.39-28,40" transform="translate(-288.83 -73)"/><path class="cls-13" d="M768.37,285c-38.91-.28-43.06-14.09-47.45-19.07s-10.25-15.28-23.42-15.28-19,10.31-23.42,15.28-8.54,18.79-47.45,19.07" transform="translate(-288.83 -73)"/><path d="M833,74V331H576V74H833m1-1H575V332H834V73Z" transform="translate(-288.83 -73)"/><line class="cls-5" x1="330.17" y1="212" x2="493.99" y2="212"/><polygon points="492.53 216.99 501.17 212 492.53 207.01 492.53 216.99"/><text class="cls-6" transform="translate(373.61 41.35)"><tspan class="cls-14">V</tspan><tspan x="14.67" y="0">ariance</tspan></text><text class="cls-7" transform="translate(391.83 65.27)">sp<tspan class="cls-15" x="16" y="0">r</tspan><tspan x="22.34" y="0">ead</tspan></text><text class="cls-8" transform="translate(355.85 82.87)">2</text><text class="cls-8" transform="translate(363.85 77.54) scale(0.58)">nd</text><text class="cls-8" transform="translate(373.18 82.87)"><tspan xml:space="preserve"> central moment</tspan></text><path class="cls-10" d="M658.33,217.19l.23-.21a1.74,1.74,0,0,1,.64-.42,1.18,1.18,0,0,1,1.24.21,1.46,1.46,0,0,1,.42.64,2.2,2.2,0,0,1,.1.81,3.27,3.27,0,0,1-.7,1.77,2.87,2.87,0,0,1-.72.67,1.94,1.94,0,0,1-.84.31,1,1,0,0,1-.56-.08,1.08,1.08,0,0,1-.46-.46l0-.08c0,.16-.08.3-.11.43-.11.42-.21.84-.32,1.26,0,.08,0,.15-.05.23s0,0,0,.06a.1.1,0,0,0,.09.12l.23,0h.27c.15,0,.16.06.14.18a.14.14,0,0,1-.15.13h-.43c-.27,0-.53,0-.8,0l-.39,0h-.22c-.11,0-.14-.05-.14-.13s0-.18.14-.18l.31,0a.27.27,0,0,0,.28-.23c0-.21.1-.42.16-.62l.51-2c.11-.46.23-.91.34-1.36.06-.26.13-.52.19-.78a1.16,1.16,0,0,0,0-.49.29.29,0,0,0-.46-.22.57.57,0,0,0-.23.23,1.84,1.84,0,0,0-.23.56l-.12.41a.29.29,0,0,1,0,.09.15.15,0,0,1-.22.05.11.11,0,0,1,0-.06.5.5,0,0,1,0-.12,4.48,4.48,0,0,1,.22-.71,2.21,2.21,0,0,1,.18-.34.72.72,0,0,1,.85-.35.84.84,0,0,1,.66.64v0Zm1.92.44h0a1.8,1.8,0,0,0,0-.22.92.92,0,0,0-.11-.39.54.54,0,0,0-.52-.31.83.83,0,0,0-.4.11,2.19,2.19,0,0,0-.75.64.92.92,0,0,0-.16.31c-.17.67-.33,1.34-.5,2a.38.38,0,0,0,0,.15,1.2,1.2,0,0,0,.15.45.82.82,0,0,0,.36.33.71.71,0,0,0,.59,0,1.6,1.6,0,0,0,.52-.41,2.7,2.7,0,0,0,.48-.88,9.87,9.87,0,0,0,.3-1.19A5.58,5.58,0,0,0,660.25,217.63Z" transform="translate(-288.83 -73)"/><path class="cls-10" d="M664.49,220.15a2.11,2.11,0,0,0-.15.15l-.49.48-.6.58-.33.34a.32.32,0,0,0-.08.12.14.14,0,0,0,.09.2.28.28,0,0,0,.13,0c.07,0,.11,0,.11.11a.12.12,0,0,1-.11.15h-.17a5.48,5.48,0,0,0-.81,0l-.33,0h-.2s-.07,0-.09-.07a.14.14,0,0,1,.11-.18h.18a1.36,1.36,0,0,0,.72-.3,4.32,4.32,0,0,0,.39-.34c.26-.24.51-.49.76-.74l.7-.68.06-.05c0-.07-.07-.14-.1-.2l-.3-.6c-.2-.38-.39-.75-.58-1.14a.32.32,0,0,0-.28-.18h-.34a.1.1,0,0,1-.09-.12c0-.1,0-.13.15-.13h.31c.23,0,.46,0,.69,0a1.76,1.76,0,0,1,.23,0l.36,0h.13c.07,0,.11,0,.11.09a.14.14,0,0,1-.09.16h-.09a.47.47,0,0,0-.26.08c-.08,0-.09.08-.05.16l.5,1,.16.32a.26.26,0,0,1,0,.09l.05,0,.6-.59.58-.56.12-.15a.16.16,0,0,0-.11-.26l-.1,0c-.08,0-.1,0-.1-.11a.13.13,0,0,1,.1-.14h.18l.41,0h.25l.53,0h.13a.1.1,0,0,1,.11.08.12.12,0,0,1-.08.15.25.25,0,0,1-.12,0,1.47,1.47,0,0,0-.85.33l-.43.38c-.27.25-.53.52-.8.78l-.36.35a1.86,1.86,0,0,1,.1.2l.36.69c.21.43.44.86.65,1.29a.37.37,0,0,0,.35.22h.25c.09,0,.12,0,.13.1a.13.13,0,0,1-.13.15l-.4,0h-.81l-.37,0H665a.11.11,0,0,1-.11-.1.13.13,0,0,1,.07-.14H665a1.17,1.17,0,0,0,.25-.07.25.25,0,0,0,.12-.11Z" transform="translate(-288.83 -73)"/><path class="cls-10" d="M678.15,220.25c-.07.09-.13.19-.2.27a1.23,1.23,0,0,1-.58.42,1.27,1.27,0,0,1-1-.18.58.58,0,0,1,0-.89.49.49,0,0,1,.45-.11.32.32,0,0,1,.26.39.55.55,0,0,1-.39.46l-.06,0,0,0a.9.9,0,0,0,.7,0,.85.85,0,0,0,.33-.26,1.78,1.78,0,0,0,.33-.66c.17-.63.34-1.26.48-1.9a4.29,4.29,0,0,0,.07-.5.77.77,0,0,0-.08-.42.5.5,0,0,0-.52-.26,1.22,1.22,0,0,0-.7.34,2.22,2.22,0,0,0-.53.85.93.93,0,0,0,0,.13.13.13,0,0,1-.16.09.11.11,0,0,1-.09-.14,2.17,2.17,0,0,1,.07-.24,2.63,2.63,0,0,1,.55-.82,1.4,1.4,0,0,1,.71-.4,1.11,1.11,0,0,1,1.06.26,1.08,1.08,0,0,1,.26.37l0,.08a.7.7,0,0,1,.06-.09,1.71,1.71,0,0,1,.42-.47,1,1,0,0,1,.68-.18,1.17,1.17,0,0,1,.54.16.58.58,0,0,1,.28.41.56.56,0,0,1-.54.66.34.34,0,0,1-.37-.43.54.54,0,0,1,.34-.42l.12,0a.42.42,0,0,0-.14-.06.85.85,0,0,0-.59,0,.93.93,0,0,0-.39.29,1.83,1.83,0,0,0-.28.58c-.1.35-.18.7-.27,1s-.19.74-.27,1.12a1.2,1.2,0,0,0,0,.5.62.62,0,0,0,.17.33.45.45,0,0,0,.33.14,1,1,0,0,0,.54-.14,1.68,1.68,0,0,0,.61-.66,3.11,3.11,0,0,0,.21-.5c0-.11.08-.11.19-.1s0,0,.06.09a.71.71,0,0,1,0,.2,2.61,2.61,0,0,1-.39.69,1.8,1.8,0,0,1-.5.45,1.23,1.23,0,0,1-.61.2,1.13,1.13,0,0,1-.72-.2,1.08,1.08,0,0,1-.39-.48l0,0Z" transform="translate(-288.83 -73)"/><path class="cls-10" d="M673,218.38c0-.14,0-.28,0-.42,0-.31.05-.63.1-.94a8.3,8.3,0,0,1,.28-1.09,6.21,6.21,0,0,1,.57-1.19,5.52,5.52,0,0,1,.66-.85,3.55,3.55,0,0,1,.46-.41.31.31,0,0,1,.1,0,.08.08,0,0,1,.12,0,.11.11,0,0,1,0,.13l-.06.06a4.88,4.88,0,0,0-.52.59,5.47,5.47,0,0,0-.79,1.63,7,7,0,0,0-.27,1.27,5.54,5.54,0,0,0,0,.56,7.69,7.69,0,0,0,0,1c0,.2,0,.39,0,.59l.06.53A7.31,7.31,0,0,0,674,221a5.2,5.2,0,0,0,.53,1.18,4.44,4.44,0,0,0,.59.78l.21.22a.11.11,0,0,1,0,.1.1.1,0,0,1-.14.06l-.15-.09a3.24,3.24,0,0,1-.5-.48,5.27,5.27,0,0,1-.76-1.06,5.76,5.76,0,0,1-.43-1,6.28,6.28,0,0,1-.24-1,4.6,4.6,0,0,1-.06-.52c0-.25,0-.51,0-.76Z" transform="translate(-288.83 -73)"/><path class="cls-10" d="M684.4,218.39a7.74,7.74,0,0,1-.32,2.19,5.12,5.12,0,0,1-.32.85,5.5,5.5,0,0,1-.86,1.31,3.68,3.68,0,0,1-.58.54l-.09.06c-.06,0-.1,0-.13,0a.1.1,0,0,1,0-.13l0-.06a4.68,4.68,0,0,0,.72-.89,5.32,5.32,0,0,0,.59-1.31,7.77,7.77,0,0,0,.25-1.06l.06-.56,0-.48c0-.26,0-.53,0-.8a8.75,8.75,0,0,0-.23-1.76,6.24,6.24,0,0,0-.5-1.39,4.57,4.57,0,0,0-.69-1l-.25-.26a.15.15,0,0,1-.06-.11.09.09,0,0,1,.13-.09l.09.06a2.57,2.57,0,0,1,.52.47,5.41,5.41,0,0,1,.59.75,5.77,5.77,0,0,1,.57,1.17,5.84,5.84,0,0,1,.31,1.23c0,.18.05.36.07.54l0,.57C684.39,218.27,684.4,218.33,684.4,218.39Z" transform="translate(-288.83 -73)"/><path class="cls-10" d="M670.35,223.05v.21c-.67,0-1.34,0-2,0v-.21h.41l.23,0c.11,0,.14-.06.14-.17v-2.49a1.85,1.85,0,0,1-.8.13.79.79,0,0,1,0-.22h.14a1.51,1.51,0,0,0,.66-.14,2.2,2.2,0,0,0,.26-.15.19.19,0,0,1,.18,0l0,.05v2.8c0,.15,0,.18.17.2a1.06,1.06,0,0,0,.25,0h.36Z" transform="translate(-288.83 -73)"/><path class="cls-9" d="M633,265.67l0-.05a2.26,2.26,0,0,1,.71-.55,1.2,1.2,0,0,1,1.35.16,1.46,1.46,0,0,1,.42.64,2,2,0,0,1,.1.8,3.08,3.08,0,0,1-.71,1.79,2.59,2.59,0,0,1-.8.71,1.77,1.77,0,0,1-.74.26,1.06,1.06,0,0,1-.58-.09,1.08,1.08,0,0,1-.45-.45l0-.07c0,.07,0,.13,0,.18-.13.55-.27,1.1-.41,1.65a.59.59,0,0,0,0,.13c0,.08,0,.11.09.13l.24,0h.35l0,.06a.18.18,0,0,1-.18.24l-.59,0h-1.23c-.08,0-.15,0-.13-.17s.06-.14.17-.14l.27,0a.26.26,0,0,0,.28-.23l.12-.46c.18-.73.37-1.46.55-2.19.12-.46.23-.91.34-1.36.06-.24.13-.47.18-.71a1.46,1.46,0,0,0,0-.55l0-.1a.27.27,0,0,0-.32-.17.47.47,0,0,0-.29.19,1.28,1.28,0,0,0-.21.42c-.07.21-.13.42-.19.64l0,.09a.12.12,0,0,1-.17.06c-.07,0-.09-.05-.07-.13s.08-.33.13-.49a2.41,2.41,0,0,1,.26-.59.89.89,0,0,1,.23-.28.71.71,0,0,1,.58-.12.84.84,0,0,1,.73.66s0,0,0,0Zm1.91.42h0c0-.07,0-.14,0-.22a1.1,1.1,0,0,0-.12-.39.54.54,0,0,0-.52-.31.77.77,0,0,0-.39.11,2.1,2.1,0,0,0-.75.64.92.92,0,0,0-.16.31l-.12.46c-.13.51-.26,1-.38,1.54a.3.3,0,0,0,0,.16,1.42,1.42,0,0,0,.16.45.75.75,0,0,0,.35.33.71.71,0,0,0,.59,0,1.33,1.33,0,0,0,.52-.42,2.65,2.65,0,0,0,.48-.87,8.33,8.33,0,0,0,.31-1.19C634.81,266.47,634.83,266.28,634.86,266.09Z" transform="translate(-288.83 -73)"/><path class="cls-9" d="M639.5,267.89l0,0,.42-.42.65-.63.18-.18a.64.64,0,0,0,.08-.14.15.15,0,0,0-.08-.18l-.09,0h-.06c-.08,0-.11,0-.11-.11s.05-.14.13-.14H641l.2,0a5.1,5.1,0,0,0,.68,0h.25c.06,0,.11,0,.11.08s0,.14-.09.16H642a1.48,1.48,0,0,0-.93.4l-.5.45-.64.64-.31.3,0,.05a1.86,1.86,0,0,0,.1.2l.39.76c.21.41.41.82.62,1.22,0,0,0,0,0,0a.29.29,0,0,0,.25.16h.33c.08,0,.12,0,.12.1a.13.13,0,0,1-.13.15l-.39,0h-.82l-.37,0h-.16a.12.12,0,0,1-.12-.09.15.15,0,0,1,.08-.15l.08,0a.54.54,0,0,0,.32-.11.12.12,0,0,0,.05,0l-.88-1.74-.16.15-.49.48-.59.58-.34.33a.42.42,0,0,0-.07.13.15.15,0,0,0,.08.21l.12,0c.09,0,.13.05.13.12s0,.14-.13.14h-.31a6.45,6.45,0,0,0-.76,0l-.4,0c-.08,0-.11,0-.12-.1a.14.14,0,0,1,.1-.15l.22,0a1.26,1.26,0,0,0,.57-.2,3.17,3.17,0,0,0,.49-.4c.27-.25.52-.51.78-.76l.71-.69.05-.06-.09-.19-.34-.65-.55-1.09a.3.3,0,0,0-.27-.18h-.34a.11.11,0,0,1-.1-.12c0-.09.06-.13.15-.13h.32c.23,0,.45,0,.68,0a1.77,1.77,0,0,1,.23,0l.37,0h.13a.1.1,0,0,1,.11.1.15.15,0,0,1-.1.15h-.09a.5.5,0,0,0-.26.08c-.07.05-.08.08,0,.16l.38.74.28.53Z" transform="translate(-288.83 -73)"/><path class="cls-9" d="M653.76,265.67c0-.07.09-.14.14-.2a1.37,1.37,0,0,1,.38-.38A1,1,0,0,1,655,265a1.09,1.09,0,0,1,.46.15.57.57,0,0,1,.27.4.56.56,0,0,1-.53.67.35.35,0,0,1-.35-.52.54.54,0,0,1,.35-.34l.08,0-.14-.06a.86.86,0,0,0-.59,0,.8.8,0,0,0-.38.3,1.54,1.54,0,0,0-.29.57l-.27,1.05-.27,1.12a1.05,1.05,0,0,0,0,.5.54.54,0,0,0,.26.41.61.61,0,0,0,.42.05,1.2,1.2,0,0,0,.58-.3,2.05,2.05,0,0,0,.55-.87s0-.1,0-.15a.16.16,0,0,1,.21-.06.08.08,0,0,1,0,.08,1.25,1.25,0,0,1,0,.19,2.36,2.36,0,0,1-.39.69,1.83,1.83,0,0,1-.5.46,1.26,1.26,0,0,1-.62.2,1.12,1.12,0,0,1-.87-.33,1.21,1.21,0,0,1-.24-.35l0-.06,0,.09a1.79,1.79,0,0,1-.46.49,1,1,0,0,1-.53.16,1.19,1.19,0,0,1-.66-.17.56.56,0,0,1-.27-.37.57.57,0,0,1,.41-.68.45.45,0,0,1,.28,0,.32.32,0,0,1,.21.38.53.53,0,0,1-.39.46l-.06,0a.82.82,0,0,0,.28.11.78.78,0,0,0,.48,0,.93.93,0,0,0,.33-.26,1.63,1.63,0,0,0,.32-.66c.17-.63.35-1.26.48-1.91a4,4,0,0,0,.08-.48.85.85,0,0,0-.09-.44.49.49,0,0,0-.42-.25.92.92,0,0,0-.43.09,1.56,1.56,0,0,0-.64.58,2.47,2.47,0,0,0-.29.64.14.14,0,0,1-.22.08.07.07,0,0,1,0-.08.77.77,0,0,1,0-.15,2.62,2.62,0,0,1,.44-.78,1.76,1.76,0,0,1,.55-.46,1.24,1.24,0,0,1,1.31.09,1.13,1.13,0,0,1,.32.43Z" transform="translate(-288.83 -73)"/><path class="cls-9" d="M647.63,266.83v-.41c0-.22,0-.44.07-.67a6.21,6.21,0,0,1,.13-.73,7.38,7.38,0,0,1,.38-1.12,6.85,6.85,0,0,1,.46-.84,5.45,5.45,0,0,1,.57-.7,3.8,3.8,0,0,1,.47-.42l.09-.05a.08.08,0,0,1,.12,0,.09.09,0,0,1,0,.12.18.18,0,0,1,0,.07,4.3,4.3,0,0,0-.75.95,5.5,5.5,0,0,0-.7,1.76c-.06.28-.11.57-.15.85a7.34,7.34,0,0,0,0,.81c0,.22,0,.43,0,.64a8.59,8.59,0,0,0,.08,1,7.27,7.27,0,0,0,.26,1.23,5.17,5.17,0,0,0,.67,1.45,4,4,0,0,0,.48.61l.21.23a.1.1,0,0,1-.1.16,2.2,2.2,0,0,1-.25-.17,5.23,5.23,0,0,1-.86-1,6.71,6.71,0,0,1-.4-.68,6.3,6.3,0,0,1-.5-1.46c-.06-.29-.1-.58-.14-.87,0-.1,0-.21,0-.32s0-.34,0-.5Z" transform="translate(-288.83 -73)"/><path class="cls-9" d="M659,266.85a7.67,7.67,0,0,1-.32,2.18,6.49,6.49,0,0,1-.33.87,5.59,5.59,0,0,1-.86,1.31,4.11,4.11,0,0,1-.57.53l-.1.06a.1.1,0,0,1-.12,0,.1.1,0,0,1,0-.13l0-.06a4.69,4.69,0,0,0,.83-1.05,5.8,5.8,0,0,0,.4-.88,7.12,7.12,0,0,0,.34-1.34,5.32,5.32,0,0,0,.06-.56,3.87,3.87,0,0,0,0-.48c0-.27,0-.54,0-.8a8.61,8.61,0,0,0-.26-1.89,5.7,5.7,0,0,0-.47-1.27,4.83,4.83,0,0,0-.68-1l-.26-.26a.15.15,0,0,1-.06-.11.1.1,0,0,1,.13-.09l.1.06a3.23,3.23,0,0,1,.52.46,5.09,5.09,0,0,1,.46.58,5.77,5.77,0,0,1,.7,1.35,7.38,7.38,0,0,1,.31,1.23,5,5,0,0,1,.06.54c0,.19,0,.38,0,.57S659,266.79,659,266.85Z" transform="translate(-288.83 -73)"/><path class="cls-9" d="M643,269a.61.61,0,0,1,.16.09.29.29,0,1,1-.48.18.78.78,0,0,1,.4-.64,1.3,1.3,0,0,1,.64-.2,1.81,1.81,0,0,1,.83.13,1,1,0,0,1,.45.35.88.88,0,0,1,0,1,1.19,1.19,0,0,1-.35.39l-.57.41-.76.55,0,0h1.39a.12.12,0,0,0,.13-.1,2.5,2.5,0,0,0,.07-.26.43.43,0,0,0,0-.11h.22l-.17,1h-2.31a.38.38,0,0,1,0-.15.18.18,0,0,1,.07-.08l.28-.25,1-.87a2,2,0,0,0,.44-.52.87.87,0,0,0,.09-.65.73.73,0,0,0-.48-.5,1,1,0,0,0-.81,0A.69.69,0,0,0,643,269Z" transform="translate(-288.83 -73)"/><path class="cls-9" d="M717.69,297.31c0-.2,0-.16.13-.29l1.26-1.07a1.84,1.84,0,0,0,.44-.52.8.8,0,0,0,0-.82.73.73,0,0,0-.41-.32,1,1,0,0,0-.8,0,.71.71,0,0,0-.27.21.1.1,0,0,0,0,.05l.16.08a.28.28,0,0,1,.09.34.3.3,0,0,1-.57-.15.82.82,0,0,1,.41-.65,1.29,1.29,0,0,1,.64-.19,1.77,1.77,0,0,1,.82.13.93.93,0,0,1,.49.4.89.89,0,0,1,0,1,1.81,1.81,0,0,1-.37.36l-.66.46-.59.44,0,0h1.42a.17.17,0,0,0,.1-.07,1.47,1.47,0,0,0,.08-.3s0-.06,0-.1h.21c0,.1,0,.21,0,.31s-.07.43-.11.65Z" transform="translate(-288.83 -73)"/><path class="cls-10" d="M687.74,297.31v-.21h.4l.24,0c.12,0,.14-.06.14-.18v-2.48a2,2,0,0,1-.8.13v-.23h.13a1.7,1.7,0,0,0,.67-.13,2.07,2.07,0,0,0,.25-.15.19.19,0,0,1,.18,0l0,0v2.81c0,.15,0,.18.17.2l.22,0h.39v.22h-2Z" transform="translate(-288.83 -73)"/><path class="cls-10" d="M678.29,294.32l-.24.25a1.58,1.58,0,0,1-.56.36,1.2,1.2,0,0,1-.45.09,1.61,1.61,0,0,1-.72-.12l-.27-.14,0,0a1.05,1.05,0,0,1,0,.19c-.12.5-.25,1-.37,1.49,0,.13-.07.26-.11.39a.4.4,0,0,1-.43.26.27.27,0,0,1-.22-.29.44.44,0,0,0,0-.1l1.44-5.76a.58.58,0,0,1,.12-.25.38.38,0,0,1,.41-.12.25.25,0,0,1,.17.29c-.06.23-.12.47-.17.7l-.36,1.42c-.05.19-.09.39-.13.58a1.59,1.59,0,0,0,0,.72.68.68,0,0,0,.32.47.84.84,0,0,0,.31.08,1.1,1.1,0,0,0,.76-.24,1.85,1.85,0,0,0,.58-.66,1.15,1.15,0,0,0,.08-.28l.6-2.36c0-.1,0-.19.07-.29a.43.43,0,0,1,.11-.21.36.36,0,0,1,.46-.08.24.24,0,0,1,.11.24,2.56,2.56,0,0,1-.05.27c-.18.69-.36,1.39-.53,2.09-.08.29-.14.59-.2.89a1,1,0,0,0,0,.42.28.28,0,0,0,.23.21.44.44,0,0,0,.29-.08.68.68,0,0,0,.18-.23,1.77,1.77,0,0,0,.21-.49c0-.16.09-.33.13-.49l0-.06a.09.09,0,0,1,.09-.06h0c.08,0,.11.05.1.13a4.63,4.63,0,0,1-.29.94,1.1,1.1,0,0,1-.35.45.68.68,0,0,1-.34.11.9.9,0,0,1-.68-.22.88.88,0,0,1-.26-.42Z" transform="translate(-288.83 -73)"/><path class="cls-9" d="M708.53,294.31l-.24.26a1.7,1.7,0,0,1-.5.34,1.45,1.45,0,0,1-.51.11,1.65,1.65,0,0,1-.73-.12,2.85,2.85,0,0,1-.3-.16l0,0c-.12.5-.25,1-.37,1.5-.05.18-.09.35-.15.53a.4.4,0,0,1-.43.26.27.27,0,0,1-.21-.34c0-.1,0-.19.07-.29.39-1.54.78-3.09,1.16-4.64.08-.3.15-.59.22-.89a.49.49,0,0,1,.18-.3.38.38,0,0,1,.34-.06.25.25,0,0,1,.18.29c-.05.2-.1.39-.14.59l-.39,1.53c-.05.2-.1.39-.13.59a1.55,1.55,0,0,0,0,.71.64.64,0,0,0,.32.46.7.7,0,0,0,.32.09,1.12,1.12,0,0,0,.78-.26,1.76,1.76,0,0,0,.54-.64.84.84,0,0,0,.09-.28c.14-.52.27-1,.4-1.56l.27-1.08a.44.44,0,0,1,.2-.3.33.33,0,0,1,.37,0,.24.24,0,0,1,.11.24c0,.09,0,.19-.06.29-.17.69-.35,1.38-.52,2.08-.08.29-.14.58-.2.88a1.13,1.13,0,0,0,0,.41.28.28,0,0,0,.37.21.44.44,0,0,0,.23-.15,1.5,1.5,0,0,0,.23-.41c.08-.22.14-.45.2-.68a.07.07,0,0,0,0-.05c0-.11.07-.12.18-.1s.08.05.07.11-.06.27-.1.4-.1.33-.16.5a1.42,1.42,0,0,1-.28.41.67.67,0,0,1-.44.2.92.92,0,0,1-.69-.23.91.91,0,0,1-.25-.41Z" transform="translate(-288.83 -73)"/><path class="cls-10" d="M684.31,293.48l0,0,.43-.42.45-.44c.1-.11.21-.21.32-.31a.53.53,0,0,0,.13-.2.14.14,0,0,0-.08-.19l-.1,0h-.06c-.07,0-.1,0-.09-.12a.13.13,0,0,1,.11-.13h.17l.5,0h.2l.37,0h.24a.11.11,0,0,1,.12.1.12.12,0,0,1-.1.15h-.11a1.4,1.4,0,0,0-.76.27,4.23,4.23,0,0,0-.51.44c-.27.25-.53.52-.8.78l-.3.29-.05.06.1.2.37.74.63,1.23,0,.06a.28.28,0,0,0,.23.15l.31,0h.1a.08.08,0,0,1,0,.08.14.14,0,0,1-.14.17l-.4,0h-.76l-.41,0h-.15a.1.1,0,0,1-.12-.09.15.15,0,0,1,.08-.15h.09a.6.6,0,0,0,.3-.11l.06-.05-.89-1.73,0,0-.61.59-.59.58-.33.33a.57.57,0,0,0-.08.13.14.14,0,0,0,.09.2l.12,0c.09,0,.13,0,.12.11s0,.14-.12.14a1.58,1.58,0,0,1-.31,0h-.7l-.45,0c-.09,0-.12,0-.13-.09a.12.12,0,0,1,.11-.15l.2,0a1.4,1.4,0,0,0,.7-.29l.39-.33.77-.75.69-.68.06-.06-.09-.19c-.12-.22-.23-.44-.34-.66s-.37-.72-.55-1.09a.31.31,0,0,0-.29-.17h-.33a.09.09,0,0,1-.09-.11c0-.07,0-.14.15-.14l.34,0h1.08l.3,0a.11.11,0,0,1,.12.1.15.15,0,0,1-.1.15h-.08a.55.55,0,0,0-.25.07l0,0c-.05,0-.05.06,0,.12s.11.23.17.34l.25.47c.08.17.17.34.26.51Z" transform="translate(-288.83 -73)"/><path class="cls-9" d="M714,294l0-.06-.62-1.22c-.11-.21-.22-.41-.32-.63a.32.32,0,0,0-.31-.2l-.29,0c-.09,0-.12,0-.12-.1s0-.14.12-.15h1.45l.28,0c.09,0,.13,0,.14.1a.14.14,0,0,1-.12.15l-.18,0a.6.6,0,0,0-.16.08c-.07,0-.07.07,0,.14l.27.52.27.51c.06.12.11.23.18.35l.05-.05.6-.59.56-.55a.81.81,0,0,0,.12-.14.36.36,0,0,0,0-.09.15.15,0,0,0-.08-.16l-.11,0h-.05c-.08,0-.1-.05-.1-.12a.13.13,0,0,1,.12-.14l.37,0h.54l.43,0h.14a.11.11,0,0,1,.11.09c0,.09,0,.14-.09.16h-.13a1.41,1.41,0,0,0-.74.26,3.73,3.73,0,0,0-.52.45l-.79.77c-.11.1-.21.2-.31.31l-.05.05c0,.09.09.18.14.27l.33.65.63,1.25,0,.05a.27.27,0,0,0,.23.16l.31,0h.09a.1.1,0,0,1,.07.08c0,.12-.07.17-.15.17l-.4,0h-.79l-.37,0h-.17a.1.1,0,0,1-.11-.09.12.12,0,0,1,.08-.14l.09,0A.68.68,0,0,0,715,296l0-.06-.89-1.73-.15.14-.48.48-.61.59-.33.34a.25.25,0,0,0-.08.12.14.14,0,0,0,.09.2.5.5,0,0,0,.13,0c.08,0,.11,0,.11.11a.11.11,0,0,1-.11.14h-.19a7.67,7.67,0,0,0-.83,0l-.45,0c-.09,0-.12,0-.13-.09a.12.12,0,0,1,.11-.15l.2,0a1.43,1.43,0,0,0,.76-.34l.47-.41.63-.63L714,294Z" transform="translate(-288.83 -73)"/><path d="M698.2,293.59h-3a.46.46,0,0,1-.2,0c-.07,0-.1-.09-.1-.19a.15.15,0,0,1,.12-.15.8.8,0,0,1,.15,0h6.06l.16,0a.17.17,0,0,1,.15.18.18.18,0,0,1-.14.19h-.16C700.21,293.6,699.21,293.59,698.2,293.59Z" transform="translate(-288.83 -73)"/><path d="M698.2,291.67h-3a.44.44,0,0,1-.16,0,.16.16,0,0,1-.12-.17.17.17,0,0,1,.12-.18.76.76,0,0,1,.21,0h6.13a.2.2,0,0,1,.16.29.13.13,0,0,1-.1.08.41.41,0,0,1-.16,0Z" transform="translate(-288.83 -73)"/><line class="cls-3" x1="394.41" y1="174.07" x2="395.91" y2="174.07"/><line class="cls-16" x1="398.74" y1="174.07" x2="419.97" y2="174.07"/><line class="cls-3" x1="421.38" y1="174.07" x2="422.88" y2="174.07"/><line class="cls-4" x1="382.63" y1="196.44" x2="384.13" y2="196.44"/><line class="cls-17" x1="387.01" y1="196.44" x2="431.76" y2="196.44"/><line class="cls-4" x1="433.21" y1="196.44" x2="434.71" y2="196.44"/><path class="cls-10" d="M699.8,243.36v0l0-.23a1.35,1.35,0,0,1,.11-.34c0-.09.08-.18.13-.27s.12-.17.18-.26a.69.69,0,0,1,.11-.13l.11-.12a2.43,2.43,0,0,1,.32-.24,1.46,1.46,0,0,1,.36-.16l.2,0,.24,0h1.55a.23.23,0,0,1,.14,0,.14.14,0,0,1,.05.08.22.22,0,0,1,0,.18.19.19,0,0,1-.12.07l-.17,0h-.72a.75.75,0,0,0,.07.12,1.14,1.14,0,0,1,.09.26.68.68,0,0,1,0,.19,2.35,2.35,0,0,1,0,.26c0,.1,0,.19,0,.28a1.7,1.7,0,0,1-.1.32l-.15.27a1.86,1.86,0,0,1-.21.28,2.28,2.28,0,0,1-.33.29l-.28.16a1.33,1.33,0,0,1-.34.1l-.19,0a.91.91,0,0,1-.4-.06.94.94,0,0,1-.26-.14.92.92,0,0,1-.27-.35.71.71,0,0,1-.09-.28s0-.1,0-.15h0Zm.41.25h0a.69.69,0,0,0,0,.25.61.61,0,0,0,.14.29.83.83,0,0,0,.18.13.65.65,0,0,0,.34,0,.86.86,0,0,0,.38-.16.88.88,0,0,0,.25-.22,1,1,0,0,0,.13-.16,1.7,1.7,0,0,0,.19-.35c0-.11.07-.22.11-.33a2.74,2.74,0,0,0,0-.28,1.52,1.52,0,0,0,0-.21.57.57,0,0,0,0-.13,1.25,1.25,0,0,0,0-.19.47.47,0,0,0-.17-.25.61.61,0,0,0-.34-.12h-.19a.77.77,0,0,0-.27.08.9.9,0,0,0-.38.29,1.2,1.2,0,0,0-.18.26l-.12.29a2.47,2.47,0,0,0-.11.47C700.23,243.42,700.22,243.52,700.21,243.61Z" transform="translate(-288.83 -73)"/><path class="cls-10" d="M708.16,246v-.15h.27l.18,0a.09.09,0,0,0,.07-.1v-1.68a1.28,1.28,0,0,1-.54.09V244h.11a1.29,1.29,0,0,0,.47-.11l.14-.1H709a.09.09,0,0,1,0,.06v1.89c0,.07,0,.09.09.1l.19,0h.24V246h-1.35Z" transform="translate(-288.83 -73)"/><path class="cls-10" d="M705.86,243.44l.21-.22.23-.22.17-.17.21-.19a.34.34,0,0,0,.09-.14.1.1,0,0,0,0-.12l-.11,0c-.06,0-.08,0-.06-.1a.08.08,0,0,1,.09-.07h1a.07.07,0,0,1,.07.07.08.08,0,0,1,0,.08l0,0h-.11a.84.84,0,0,0-.24.06.89.89,0,0,0-.31.19l-.19.16-.21.21-.23.22-.38.37s0,0,0,0,.13.25.19.38l.14.27.13.26.13.26.15.28a.18.18,0,0,0,.09.1.5.5,0,0,0,.13,0h.18s.08,0,.07.07,0,.09-.08.09h-.19c-.22,0-.43,0-.65,0h-.33a.08.08,0,0,1-.08-.08c0-.07,0-.08.1-.08a.42.42,0,0,0,.23-.08s0,0,0-.06l-.18-.37c-.06-.12-.12-.24-.19-.36l-.18-.36,0-.05v0l-.24.23-.2.19-.19.19-.19.18c-.06.07-.13.13-.19.19a.44.44,0,0,0-.08.11.1.1,0,0,0,.06.15h.09a.09.09,0,1,1,0,.17h-.18a4,4,0,0,0-.49,0h-.3c-.06,0-.08,0-.08-.07s0-.07.05-.09h.06a1.35,1.35,0,0,0,.29,0,1.11,1.11,0,0,0,.3-.17l.19-.16.19-.18.38-.38.22-.21.28-.27-.2-.39-.11-.23-.13-.25-.12-.23a2.12,2.12,0,0,0-.11-.21.16.16,0,0,0-.15-.1h-.25c-.06,0-.07,0-.06-.09a.09.09,0,0,1,.1-.08h1.15a.08.08,0,0,1,.08.07.09.09,0,0,1-.08.1.48.48,0,0,0-.23.07s0,.05,0,.09l.18.36.13.26Z" transform="translate(-288.83 -73)"/><path class="cls-9" d="M701.52,265.72v0l0-.26a1.65,1.65,0,0,1,.11-.36,2,2,0,0,1,.15-.29,2.31,2.31,0,0,1,.19-.28.79.79,0,0,1,.12-.15l.12-.12a1.7,1.7,0,0,1,.34-.26,1.36,1.36,0,0,1,.39-.17l.22-.05.25,0h1.68a.28.28,0,0,1,.15,0,.12.12,0,0,1,.05.09.23.23,0,0,1,0,.2.21.21,0,0,1-.13.07l-.18,0h-.78l.07.12a1,1,0,0,1,.11.29l0,.2a2.61,2.61,0,0,1,0,.28c0,.11,0,.21,0,.3a1.35,1.35,0,0,1-.11.34,2.11,2.11,0,0,1-.16.3,1.33,1.33,0,0,1-.23.3,1.73,1.73,0,0,1-.35.31,1.78,1.78,0,0,1-.3.17,1.6,1.6,0,0,1-.37.12l-.2,0a1,1,0,0,1-.43-.06,1.35,1.35,0,0,1-.29-.16,1,1,0,0,1-.29-.37,1.19,1.19,0,0,1-.1-.32.76.76,0,0,1,0-.15h0Zm.45.27h0a1.24,1.24,0,0,0,0,.27.81.81,0,0,0,.19.34.54.54,0,0,0,.16.1.6.6,0,0,0,.37.05,1,1,0,0,0,.42-.17,1.94,1.94,0,0,0,.27-.23l.14-.18a1.69,1.69,0,0,0,.19-.38,2.53,2.53,0,0,0,.12-.36,1.59,1.59,0,0,0,.06-.3,2.06,2.06,0,0,0,0-.26.31.31,0,0,0,0-.1,1.2,1.2,0,0,0,0-.2.53.53,0,0,0-.18-.28.63.63,0,0,0-.37-.12.74.74,0,0,0-.21,0,1,1,0,0,0-.29.08,1.14,1.14,0,0,0-.41.31,1.73,1.73,0,0,0-.19.28,3.05,3.05,0,0,0-.13.32,2.72,2.72,0,0,0-.13.51Z" transform="translate(-288.83 -73)"/><path class="cls-9" d="M710.33,268.57v-.06a.11.11,0,0,1,.06-.12.52.52,0,0,0,.11-.1l.17-.13.11-.1.16-.14.11-.09.2-.17.09-.07.17-.18a.8.8,0,0,0,.19-.32.5.5,0,0,0,0-.24.48.48,0,0,0-.26-.41.62.62,0,0,0-.26-.09h-.13a.88.88,0,0,0-.28.06.8.8,0,0,0-.21.15.21.21,0,0,1,0,.06.2.2,0,0,1,.19.12.21.21,0,0,1-.19.3.22.22,0,0,1-.17-.07.19.19,0,0,1,0-.1.5.5,0,0,1,.09-.34.84.84,0,0,1,.24-.22,1.1,1.1,0,0,1,.35-.11h.22a1.42,1.42,0,0,1,.4.08.71.71,0,0,1,.34.23.49.49,0,0,1,.14.3.49.49,0,0,1,0,.12.6.6,0,0,1-.14.39,1.33,1.33,0,0,1-.3.28l-.44.31-.39.29-.06,0h1.06s0,0,0,0A1,1,0,0,0,712,268a.43.43,0,0,1,0-.11h.15l-.12.69Z" transform="translate(-288.83 -73)"/><path class="cls-9" d="M708.06,265.8l.23-.23.25-.24.18-.18.22-.21a.29.29,0,0,0,.1-.15.1.1,0,0,0,0-.13l-.12,0c-.06,0-.08-.05-.06-.11a.08.08,0,0,1,.1-.07h.64l.3,0H710a.08.08,0,0,1,.07.07.08.08,0,0,1,0,.08l-.06,0h-.16a1,1,0,0,0-.25.07,1.46,1.46,0,0,0-.33.22l-.26.24-.15.13-.41.41-.24.23s0,0,0,0l.21.42.14.29.15.28.14.29.15.28a.22.22,0,0,0,0,.08.21.21,0,0,0,.15.07h.23c.06,0,.09,0,.09.07s0,.11-.09.11h-.2c-.24,0-.47,0-.71,0h-.36a.08.08,0,0,1-.08-.09c0-.07.05-.09.11-.09a.48.48,0,0,0,.25-.09s0,0,0-.06l-.2-.4-.2-.39-.2-.38,0-.06-.25.25a2.5,2.5,0,0,0-.23.23l-.19.18-.23.22-.2.2a.54.54,0,0,0-.09.12.12.12,0,0,0,.07.16l.09,0c.07,0,.09,0,.08.1a.09.09,0,0,1-.1.08h-1.06a.07.07,0,0,1-.08-.08s0-.08.06-.09h0a1.28,1.28,0,0,0,.33-.06,1.17,1.17,0,0,0,.31-.17l.21-.18.15-.14c.16-.15.31-.31.46-.46l.24-.23.29-.28a0,0,0,0,0,0,0l-.21-.4-.12-.25-.27-.52c0-.07-.07-.14-.11-.22a.2.2,0,0,0-.16-.12h-.28a.08.08,0,0,1-.07-.1c0-.07.06-.09.11-.08h1.24a.08.08,0,0,1,.09.07.11.11,0,0,1-.09.11.51.51,0,0,0-.24.07c-.05,0-.06.05,0,.1s.13.26.2.39.09.18.13.26Z" transform="translate(-288.83 -73)"/><rect class="cls-9" x="511.36" y="243.47" width="7.44" height="7.44"/><polyline class="cls-11" points="522.18 250.11 525.11 247.18 524.98 247.05 522.05 244.12"/><rect class="cls-10" x="528.37" y="243.39" width="7.44" height="7.44"/><line class="cls-1" x1="126.66" y1="503" x2="126.66" y2="500.5"/><line class="cls-2" x1="126.66" y1="495.37" x2="126.66" y2="426.07"/><line class="cls-1" x1="126.66" y1="423.5" x2="126.66" y2="421"/><path class="cls-12" d="M463.82,576c-27.53,0-42.43-29.45-48.49-41.23-3.52-6.86-16.78-30.77-32.14-30.77-12.77,0-18.55,23.32-20.87,36-1.94,10.57-10,36-25.55,36" transform="translate(-288.83 -73)"/><path class="cls-13" d="M367,576c27.53,0,42.43-29.45,48.48-41.23C419,527.91,432.25,504,447.61,504c12.76,0,18.55,23.32,20.87,36,1.93,10.57,10,36,25.55,36" transform="translate(-288.83 -73)"/><line class="cls-5" x1="45.17" y1="503" x2="208.99" y2="503"/><polygon points="207.53 507.99 216.17 503 207.53 498.01 207.53 507.99"/><text class="cls-6" transform="translate(82.25 327.35)">Skewness</text><text class="cls-7" transform="translate(92.01 351.27)">asymmetry </text><text class="cls-8" transform="translate(56.54 368.87)">3</text><text class="cls-8" transform="translate(64.54 363.54) scale(0.58)">th</text><text class="cls-8" transform="translate(71.8 368.87)"><tspan xml:space="preserve"> normalized moment</tspan></text><rect class="cls-9" x="226.28" y="529.94" width="7.44" height="7.44"/><polyline class="cls-11" points="237.11 536.57 240.04 533.64 239.91 533.51 236.98 530.58"/><rect class="cls-10" x="243.3" y="529.86" width="7.44" height="7.44"/><path class="cls-10" d="M373.26,495.76l.23-.22a1.89,1.89,0,0,1,.64-.41,1.17,1.17,0,0,1,1.24.21,1.27,1.27,0,0,1,.42.64,2,2,0,0,1,.1.8,3.16,3.16,0,0,1-.69,1.77,2.9,2.9,0,0,1-.73.67,1.92,1.92,0,0,1-.83.32,1.08,1.08,0,0,1-.56-.08,1,1,0,0,1-.46-.46l-.05-.08c0,.15-.07.29-.11.43-.1.42-.21.84-.31,1.26a1.74,1.74,0,0,0,0,.22.13.13,0,0,0,0,.06.1.1,0,0,0,.09.12.83.83,0,0,0,.22,0h.28c.15,0,.16.07.14.19a.14.14,0,0,1-.15.12h-.43a7.12,7.12,0,0,0-.8,0h-.61c-.11,0-.14-.05-.14-.13a.15.15,0,0,1,.14-.18h.31a.27.27,0,0,0,.27-.23c.06-.21.11-.42.16-.63l.51-2c.12-.45.23-.9.35-1.36.06-.26.13-.52.19-.77a1.4,1.4,0,0,0,0-.5.3.3,0,0,0-.46-.22.63.63,0,0,0-.23.23,2.49,2.49,0,0,0-.24.56c0,.14-.07.28-.11.42s0,.05,0,.08a.13.13,0,0,1-.22.05.07.07,0,0,1,0-.06s0-.07,0-.11a4.52,4.52,0,0,1,.23-.71,2.26,2.26,0,0,1,.17-.35.73.73,0,0,1,.85-.35.85.85,0,0,1,.67.65v0Zm1.93.43h0c0-.07,0-.15,0-.22a1,1,0,0,0-.11-.39.57.57,0,0,0-.53-.32,1,1,0,0,0-.39.11,2.13,2.13,0,0,0-.75.65.83.83,0,0,0-.16.31c-.17.66-.34,1.33-.5,2a.44.44,0,0,0,0,.16,1.46,1.46,0,0,0,.16.44.82.82,0,0,0,.35.34.74.74,0,0,0,.6,0,1.58,1.58,0,0,0,.52-.41,2.67,2.67,0,0,0,.47-.88,8.2,8.2,0,0,0,.31-1.18C375.15,496.58,375.16,496.38,375.19,496.19Z" transform="translate(-288.83 -73)"/><path class="cls-10" d="M379.43,498.72l-.16.14-.48.48-.6.58-.33.34a.35.35,0,0,0-.08.13.15.15,0,0,0,.08.2.61.61,0,0,0,.13,0c.08,0,.12,0,.12.1a.14.14,0,0,1-.11.15h-.17a7.3,7.3,0,0,0-.81,0l-.34,0h-.19c-.05,0-.07,0-.09-.07a.13.13,0,0,1,.11-.17l.18,0a1.35,1.35,0,0,0,.72-.29c.13-.11.27-.22.39-.34s.51-.49.76-.74l.7-.68.06-.06a1.86,1.86,0,0,1-.1-.2l-.31-.59-.58-1.14a.29.29,0,0,0-.27-.18h-.34a.09.09,0,0,1-.09-.12c0-.09.05-.13.15-.13l.31,0a5.14,5.14,0,0,0,.68,0H379l.36,0h.13a.1.1,0,0,1,.11.1.13.13,0,0,1-.09.15h-.1a.73.73,0,0,0-.25.08c-.08.05-.09.08-.05.16l.5,1c.05.11.11.21.16.32l.05.09.05,0,.6-.6.57-.55a.61.61,0,0,0,.12-.16.16.16,0,0,0-.1-.26l-.11,0c-.07,0-.1,0-.09-.1s0-.14.1-.15h.18l.4,0h.26l.52,0h.14a.09.09,0,0,1,.1.08.12.12,0,0,1-.07.16l-.13,0a1.46,1.46,0,0,0-.84.32l-.43.38-.8.78-.36.35c0,.07.07.14.1.2.12.23.24.46.35.69l.66,1.29a.34.34,0,0,0,.34.22h.26c.08,0,.12,0,.12.1s0,.15-.13.15h-1.2l-.38,0h-.16a.1.1,0,0,1-.11-.09c0-.06,0-.13.07-.14l.08,0a.77.77,0,0,0,.26-.07.21.21,0,0,0,.11-.1Z" transform="translate(-288.83 -73)"/><path class="cls-10" d="M393.08,498.82l-.19.27a1.19,1.19,0,0,1-.58.41,1.1,1.1,0,0,1-.54,0,1,1,0,0,1-.46-.2.58.58,0,0,1,0-.89.49.49,0,0,1,.45-.11.34.34,0,0,1,.26.4.57.57,0,0,1-.4.46l-.05,0,.05,0a.85.85,0,0,0,.7,0,.9.9,0,0,0,.33-.25,1.69,1.69,0,0,0,.32-.66c.17-.64.35-1.27.49-1.91a4.13,4.13,0,0,0,.07-.49.85.85,0,0,0-.08-.42.49.49,0,0,0-.53-.26,1.14,1.14,0,0,0-.69.34,2,2,0,0,0-.53.85.5.5,0,0,0-.05.13c0,.07-.07.1-.16.08s-.1-.05-.08-.13a1.09,1.09,0,0,1,.07-.24,2.54,2.54,0,0,1,.54-.82,1.49,1.49,0,0,1,.72-.41,1.17,1.17,0,0,1,1.06.26,1.37,1.37,0,0,1,.26.37l0,.08.05-.08a1.49,1.49,0,0,1,.43-.47,1,1,0,0,1,.68-.19,1.3,1.3,0,0,1,.54.16.58.58,0,0,1-.26,1.08.35.35,0,0,1-.38-.43.59.59,0,0,1,.35-.43l.12,0-.14-.06a.88.88,0,0,0-.6,0,.78.78,0,0,0-.38.29,1.56,1.56,0,0,0-.28.58c-.1.34-.19.7-.27,1.05s-.19.74-.28,1.11a1.21,1.21,0,0,0,0,.5.71.71,0,0,0,.16.34.52.52,0,0,0,.33.14.92.92,0,0,0,.54-.15,1.64,1.64,0,0,0,.62-.66,2.3,2.3,0,0,0,.2-.49c0-.12.08-.11.19-.1s.06,0,.07.08a.65.65,0,0,1,0,.2,2.52,2.52,0,0,1-.39.7,2,2,0,0,1-.5.45,1.33,1.33,0,0,1-.62.19,1.11,1.11,0,0,1-1.1-.67l0-.05Z" transform="translate(-288.83 -73)"/><path class="cls-10" d="M388,496.94c0-.13,0-.27,0-.41a7.46,7.46,0,0,1,.1-.95,7.78,7.78,0,0,1,.28-1.08,6,6,0,0,1,.57-1.2,5.3,5.3,0,0,1,.66-.84,3,3,0,0,1,.46-.41l.09-.06a.12.12,0,0,1,.13,0,.11.11,0,0,1,0,.13s0,.05-.06.06a4.22,4.22,0,0,0-.52.6,5.44,5.44,0,0,0-.8,1.62,8.1,8.1,0,0,0-.27,1.28c0,.18,0,.37-.05.56s0,.63,0,.95,0,.4,0,.6a4.6,4.6,0,0,0,.06.52,6.45,6.45,0,0,0,.28,1.23,5.28,5.28,0,0,0,.53,1.19,4,4,0,0,0,.59.77l.2.22s.05.06,0,.1a.09.09,0,0,1-.13.07l-.15-.1a4.51,4.51,0,0,1-.51-.47,5.71,5.71,0,0,1-.75-1.07,6.26,6.26,0,0,1-.44-1,6.86,6.86,0,0,1-.23-1c0-.17-.05-.34-.07-.52s0-.5,0-.75Z" transform="translate(-288.83 -73)"/><path class="cls-10" d="M399.34,497a7.81,7.81,0,0,1-.32,2.2,8.71,8.71,0,0,1-.32.85,5.74,5.74,0,0,1-.87,1.31,3.32,3.32,0,0,1-.58.54l-.09,0a.09.09,0,0,1-.12,0,.12.12,0,0,1,0-.13l.06-.06a4.82,4.82,0,0,0,.72-.9,5.65,5.65,0,0,0,.59-1.3,6.61,6.61,0,0,0,.24-1.07c0-.18.05-.37.07-.55l0-.48c0-.27,0-.54,0-.81a8.74,8.74,0,0,0-.22-1.76,6.19,6.19,0,0,0-.51-1.38,4,4,0,0,0-.68-1l-.26-.27s-.06-.06-.05-.11a.09.09,0,0,1,.13-.08l.09.05a3.87,3.87,0,0,1,.52.47,4.69,4.69,0,0,1,.58.75,5.8,5.8,0,0,1,.58,1.17,7.38,7.38,0,0,1,.31,1.23c0,.18,0,.36.07.54l0,.58C399.33,496.83,399.34,496.89,399.34,497Z" transform="translate(-288.83 -73)"/><path class="cls-10" d="M385.28,501.62v.21c-.67,0-1.33,0-2,0v-.22h.41a1.66,1.66,0,0,0,.22,0c.12,0,.15-.05.15-.16V499a.15.15,0,0,0,0-.06,2.17,2.17,0,0,1-.8.13,1.77,1.77,0,0,1,0-.23h.14a1.65,1.65,0,0,0,.66-.13,1.83,1.83,0,0,0,.26-.16.23.23,0,0,1,.18,0l0,0a.31.31,0,0,1,0,.1v2.71c0,.15,0,.18.17.2l.25,0h.35Z" transform="translate(-288.83 -73)"/><path class="cls-9" d="M437.35,496.11s0,0,0,0a2.29,2.29,0,0,1,.71-.56,1.22,1.22,0,0,1,1.35.16,1.46,1.46,0,0,1,.42.64,2.05,2.05,0,0,1,.1.81,3.2,3.2,0,0,1-.71,1.79,2.73,2.73,0,0,1-.8.71,1.77,1.77,0,0,1-.74.26,1.06,1.06,0,0,1-.58-.09,1.08,1.08,0,0,1-.45-.45l0-.08c0,.07,0,.13-.05.19-.14.55-.27,1.1-.41,1.64a.68.68,0,0,0,0,.14c0,.07,0,.11.09.12l.24,0h.27l.08,0a.1.1,0,0,1,.05.06.17.17,0,0,1-.18.23l-.59,0h-.62l-.38,0h-.23c-.08,0-.15,0-.13-.16s.06-.14.17-.15h.27a.27.27,0,0,0,.28-.23l.12-.46c.18-.74.37-1.47.55-2.2.11-.45.23-.9.34-1.35.06-.24.13-.48.18-.72a1.4,1.4,0,0,0,0-.54.43.43,0,0,0,0-.11.27.27,0,0,0-.32-.16.45.45,0,0,0-.29.18,1.19,1.19,0,0,0-.21.42c-.07.21-.13.43-.19.64l0,.1a.13.13,0,0,1-.17.06.09.09,0,0,1-.07-.13c0-.17.08-.33.13-.49a2.63,2.63,0,0,1,.25-.6,1,1,0,0,1,.24-.27.72.72,0,0,1,.58-.13.86.86,0,0,1,.73.67s0,0,0,0Zm1.9.42h0c0-.07,0-.15,0-.22a1,1,0,0,0-.12-.39.55.55,0,0,0-.52-.32,1,1,0,0,0-.39.11,2.14,2.14,0,0,0-.75.65.83.83,0,0,0-.16.31l-.12.46c-.13.51-.26,1-.38,1.54a.3.3,0,0,0,0,.16,1.46,1.46,0,0,0,.16.44.72.72,0,0,0,.35.34.75.75,0,0,0,.59,0,1.42,1.42,0,0,0,.52-.42,2.7,2.7,0,0,0,.48-.88,8.2,8.2,0,0,0,.31-1.18C439.21,496.92,439.23,496.72,439.25,496.53Z" transform="translate(-288.83 -73)"/><path class="cls-9" d="M443.9,498.34s0,0,0,0l.42-.42.64-.63.19-.19a.64.64,0,0,0,.08-.14.15.15,0,0,0-.08-.18l-.09,0H445c-.08,0-.11-.05-.11-.12s.05-.14.13-.14h.54a5.12,5.12,0,0,0,.68,0h.25a.11.11,0,0,1,.11.09c0,.09,0,.14-.09.16h-.11a1.48,1.48,0,0,0-.93.4c-.17.14-.34.29-.5.45l-.64.63-.31.3-.05.06a1.74,1.74,0,0,0,.1.19l.39.77c.2.41.41.81.62,1.22l0,0a.3.3,0,0,0,.25.17h.33c.08,0,.12,0,.12.11a.12.12,0,0,1-.13.14H444.5l-.37,0H444a.1.1,0,0,1-.12-.09.13.13,0,0,1,.08-.14l.08,0a.54.54,0,0,0,.32-.11l.05-.06-.88-1.73-.16.15-.49.48-.59.57-.34.34a.33.33,0,0,0-.07.13.14.14,0,0,0,.08.2l.12,0c.09,0,.13,0,.13.11s0,.14-.13.14h-1.47a.09.09,0,0,1-.12-.09c0-.08,0-.14.1-.15l.22,0a1.27,1.27,0,0,0,.57-.21,3.11,3.11,0,0,0,.49-.39l.78-.77.71-.68.05-.06-.09-.19c-.11-.22-.22-.44-.34-.66l-.55-1.08a.31.31,0,0,0-.28-.18h-.33c-.07,0-.1,0-.1-.12a.13.13,0,0,1,.15-.13l.32,0a5.14,5.14,0,0,0,.68,0h.23l.37,0h.12c.08,0,.12,0,.12.11a.13.13,0,0,1-.1.14h-.09a.62.62,0,0,0-.26.09c-.07.05-.08.07,0,.15.12.25.25.5.38.74s.18.36.28.54Z" transform="translate(-288.83 -73)"/><path class="cls-9" d="M458.16,496.12l.14-.21a1.34,1.34,0,0,1,.38-.37,1.07,1.07,0,0,1,.72-.15,1.15,1.15,0,0,1,.45.16.57.57,0,0,1-.25,1.07.36.36,0,0,1-.35-.53.56.56,0,0,1,.35-.34l.08,0-.14-.06a.92.92,0,0,0-.59,0,.78.78,0,0,0-.38.29,1.67,1.67,0,0,0-.29.58l-.27,1.05-.27,1.12a1,1,0,0,0,0,.49.54.54,0,0,0,.26.41.61.61,0,0,0,.42.06,1.29,1.29,0,0,0,.58-.3,2.05,2.05,0,0,0,.55-.87c0-.05,0-.1.05-.15a.16.16,0,0,1,.21-.06s0,0,0,.07a1.08,1.08,0,0,1,0,.19,2.29,2.29,0,0,1-.39.7,1.83,1.83,0,0,1-.5.46,1.25,1.25,0,0,1-.62.19,1.09,1.09,0,0,1-.87-.33,1,1,0,0,1-.24-.35l0-.05,0,.08a1.55,1.55,0,0,1-.46.49.93.93,0,0,1-.53.17,1.27,1.27,0,0,1-.66-.17.56.56,0,0,1-.27-.37.58.58,0,0,1,.4-.69.57.57,0,0,1,.29,0,.33.33,0,0,1,.21.39.55.55,0,0,1-.39.46l-.06,0a.92.92,0,0,0,.76.06,1,1,0,0,0,.32-.25,1.58,1.58,0,0,0,.33-.66c.17-.64.34-1.27.48-1.91a3.85,3.85,0,0,0,.08-.49.82.82,0,0,0-.09-.43.45.45,0,0,0-.42-.25.92.92,0,0,0-.43.09,1.61,1.61,0,0,0-.64.57,2.56,2.56,0,0,0-.3.65.13.13,0,0,1-.21.07s0,0,0-.08l0-.14a2.5,2.5,0,0,1,.44-.78,1.63,1.63,0,0,1,.55-.46,1.22,1.22,0,0,1,1.31.09,1.1,1.1,0,0,1,.32.42Z" transform="translate(-288.83 -73)"/><path class="cls-9" d="M452,497.28c0-.14,0-.27,0-.41s0-.45.07-.67a4.46,4.46,0,0,1,.13-.73,7,7,0,0,1,.38-1.12,6.19,6.19,0,0,1,.46-.84,4.84,4.84,0,0,1,.57-.7,3.13,3.13,0,0,1,.47-.42l.09-.06a.1.1,0,0,1,.12,0,.11.11,0,0,1,0,.13l-.05.06a4.67,4.67,0,0,0-.76.95,5.92,5.92,0,0,0-.69,1.76c-.06.29-.11.57-.15.86a7.34,7.34,0,0,0-.05.81c0,.21,0,.43,0,.64a8.76,8.76,0,0,0,.08,1,7.48,7.48,0,0,0,.26,1.23,5.3,5.3,0,0,0,.67,1.45,4,4,0,0,0,.48.61l.21.22a.14.14,0,0,1,0,.09.09.09,0,0,1-.13.08,2.2,2.2,0,0,1-.25-.17,5,5,0,0,1-.86-1,5.06,5.06,0,0,1-.4-.68,6.22,6.22,0,0,1-.5-1.45c-.06-.29-.1-.58-.14-.87,0-.11,0-.21,0-.32s0-.34,0-.51Z" transform="translate(-288.83 -73)"/><path class="cls-9" d="M463.41,497.3a7.67,7.67,0,0,1-.32,2.18,6.92,6.92,0,0,1-.33.86,5.21,5.21,0,0,1-.86,1.31,3.55,3.55,0,0,1-.57.53l-.1.06c-.05,0-.09,0-.12,0a.1.1,0,0,1,0-.13l0-.05A4.74,4.74,0,0,0,462,501a5.39,5.39,0,0,0,.4-.88,6.75,6.75,0,0,0,.34-1.34,5.14,5.14,0,0,0,.06-.55,3.87,3.87,0,0,0,0-.48c0-.27,0-.54,0-.81a8.6,8.6,0,0,0-.26-1.88,5.34,5.34,0,0,0-.48-1.28,4.1,4.1,0,0,0-.68-1l-.25-.27a.15.15,0,0,1-.06-.11.09.09,0,0,1,.13-.08l.1.05a3.87,3.87,0,0,1,.52.47,5.33,5.33,0,0,1,.46.58,5.52,5.52,0,0,1,.7,1.34,7.64,7.64,0,0,1,.31,1.23,5.14,5.14,0,0,1,.06.55c0,.19,0,.38,0,.57S463.4,497.24,463.41,497.3Z" transform="translate(-288.83 -73)"/><path class="cls-9" d="M447.36,499.44a.54.54,0,0,1,.17.09.27.27,0,0,1,.09.32.29.29,0,0,1-.26.19.29.29,0,0,1-.31-.33.78.78,0,0,1,.4-.64,1.21,1.21,0,0,1,.64-.2,2,2,0,0,1,.83.12,1,1,0,0,1,.44.35.87.87,0,0,1,.05,1,1.22,1.22,0,0,1-.35.4l-.57.41-.76.55,0,0h1.4a.13.13,0,0,0,.13-.1,2.68,2.68,0,0,0,.07-.27.3.3,0,0,0,0-.1h.22l-.17,1h-2.31a.43.43,0,0,1,0-.16.18.18,0,0,1,.07-.08l.28-.24,1-.87a1.89,1.89,0,0,0,.44-.53.85.85,0,0,0,.09-.64.71.71,0,0,0-.48-.5,1,1,0,0,0-.81,0A.77.77,0,0,0,447.36,499.44Z" transform="translate(-288.83 -73)"/><path d="M546.83,360V617h-257V360h257m1-1h-259V618h259V359Z" transform="translate(-288.83 -73)"/><line class="cls-1" x1="408.65" y1="503" x2="408.65" y2="500.5"/><line class="cls-2" x1="408.65" y1="495.37" x2="408.65" y2="426.07"/><line class="cls-1" x1="408.65" y1="423.5" x2="408.65" y2="421"/><path class="cls-12" d="M764.44,576c-31.93-.27-37.86-11.42-38.94-18.12-.73-7-12.26-14.52-28-14.52s-27.29,7.49-28,14.52c-1.08,6.7-7,17.85-39,18.12" transform="translate(-288.83 -73)"/><path class="cls-13" d="M739.23,576c-28.4,1.5-29.15-2.75-33.33-40-.67-6-1.5-32-8.42-32s-7.75,26-8.42,32c-4.18,37.25-4.93,41.5-33.33,40" transform="translate(-288.83 -73)"/><path d="M833,360V617H576V360H833m1-1H575V618H834V359Z" transform="translate(-288.83 -73)"/><line class="cls-5" x1="330.17" y1="503" x2="493.99" y2="503"/><polygon points="492.53 507.99 501.17 503 492.53 498.01 492.53 507.99"/><text class="cls-6" transform="translate(374.91 327.35)">Kurtosis</text><text class="cls-7" transform="translate(380 351.27)">tailedness</text><text class="cls-8" transform="translate(343.54 368.87)">4</text><text class="cls-8" transform="translate(351.54 363.54) scale(0.58)">th</text><text class="cls-8" transform="translate(358.8 368.87)"><tspan xml:space="preserve"> normalized moment</tspan></text><rect class="cls-9" x="511.56" y="529.9" width="7.44" height="7.44"/><polyline class="cls-11" points="522.38 536.53 525.31 533.6 525.18 533.47 522.25 530.54"/><rect class="cls-10" x="528.57" y="529.82" width="7.44" height="7.44"/><path class="cls-10" d="M651,542.14l.23-.21a1.83,1.83,0,0,1,.64-.42,1.17,1.17,0,0,1,1.24.21,1.46,1.46,0,0,1,.42.64,2,2,0,0,1,.1.81,3.16,3.16,0,0,1-.7,1.77,2.87,2.87,0,0,1-.72.67,2,2,0,0,1-.83.31,1,1,0,0,1-1-.54l0-.08c0,.16-.08.29-.11.43-.11.42-.21.84-.32,1.26,0,.08,0,.15,0,.23v0c0,.08,0,.11.08.12l.23,0h.27c.15,0,.17.06.14.18a.14.14,0,0,1-.15.13l-.43,0c-.26,0-.53,0-.8,0l-.38,0h-.23c-.11,0-.14,0-.14-.13s0-.18.15-.18l.3,0a.26.26,0,0,0,.28-.23c0-.21.1-.42.16-.63l.51-2c.11-.46.23-.91.34-1.37.07-.25.13-.51.19-.77a1.16,1.16,0,0,0,0-.49.29.29,0,0,0-.45-.22.53.53,0,0,0-.24.23,2.13,2.13,0,0,0-.23.56c0,.14-.08.27-.11.41l0,.08a.14.14,0,0,1-.22.06l0-.06a.5.5,0,0,1,0-.12,4.48,4.48,0,0,1,.22-.71,2.21,2.21,0,0,1,.18-.34.73.73,0,0,1,.85-.35.82.82,0,0,1,.66.64v0Zm1.92.43h0a1.7,1.7,0,0,0,0-.22,1.1,1.1,0,0,0-.12-.39.54.54,0,0,0-.52-.31.87.87,0,0,0-.39.1,2.27,2.27,0,0,0-.76.65.83.83,0,0,0-.16.31c-.16.67-.33,1.34-.5,2a.43.43,0,0,0,0,.16,1.11,1.11,0,0,0,.16.44.72.72,0,0,0,.35.34.71.71,0,0,0,.59,0,1.51,1.51,0,0,0,.52-.42,2.65,2.65,0,0,0,.48-.87,9.91,9.91,0,0,0,.31-1.19C652.92,543,652.94,542.77,653,542.57Z" transform="translate(-288.83 -73)"/><path class="cls-10" d="M657.2,545.1l-.15.15-.49.48-.6.58-.33.33-.08.13a.14.14,0,0,0,.09.2.28.28,0,0,0,.13,0c.08,0,.11,0,.11.11s0,.14-.11.14h-.17a5.38,5.38,0,0,0-.8,0h-.54a.1.1,0,0,1-.08-.07.13.13,0,0,1,.1-.18l.18,0a1.35,1.35,0,0,0,.72-.29l.4-.34.75-.74c.24-.22.47-.45.7-.68l.06-.06a1.74,1.74,0,0,0-.1-.19l-.3-.6-.58-1.14a.32.32,0,0,0-.28-.18h-.34c-.07,0-.1,0-.09-.12a.12.12,0,0,1,.15-.12h.32c.22,0,.45,0,.68,0h.72a.1.1,0,0,1,.12.09.15.15,0,0,1-.1.15h-.09a.62.62,0,0,0-.26.09c-.08,0-.09.08,0,.16l.49,1c.06.11.11.22.17.32l.05.1,0,0,.6-.6.58-.55L659,543a.16.16,0,0,0-.11-.26l-.1,0c-.08,0-.1,0-.1-.11a.13.13,0,0,1,.11-.14h.18l.4,0h.26l.52,0h.14a.1.1,0,0,1,.1.08c0,.07,0,.14-.07.15a.3.3,0,0,1-.13,0,1.42,1.42,0,0,0-.84.33,5.2,5.2,0,0,0-.44.38c-.27.25-.53.52-.79.78l-.36.35c0,.06.06.13.1.2.11.23.23.46.35.69.22.43.44.85.65,1.29a.38.38,0,0,0,.35.22h.25c.09,0,.13,0,.13.11a.13.13,0,0,1-.13.15l-.4,0h-.81l-.37,0h-.17a.12.12,0,0,1-.11-.1.13.13,0,0,1,.07-.14l.09,0a.55.55,0,0,0,.25-.07.19.19,0,0,0,.12-.1Z" transform="translate(-288.83 -73)"/><path class="cls-10" d="M670.86,545.2l-.2.27a1.25,1.25,0,0,1-.57.42,1.14,1.14,0,0,1-.55,0,1.1,1.1,0,0,1-.46-.19.58.58,0,0,1,0-.89.5.5,0,0,1,.45-.11.32.32,0,0,1,.26.39.55.55,0,0,1-.39.46l-.06,0,0,0a.88.88,0,0,0,.71,0,.78.78,0,0,0,.32-.25,1.78,1.78,0,0,0,.33-.66c.17-.63.34-1.26.48-1.9a2.87,2.87,0,0,0,.07-.5.77.77,0,0,0-.08-.42.5.5,0,0,0-.52-.26,1.25,1.25,0,0,0-.7.34,2.22,2.22,0,0,0-.53.85s0,.09,0,.13a.13.13,0,0,1-.16.09.11.11,0,0,1-.09-.14,2.17,2.17,0,0,1,.07-.24,2.52,2.52,0,0,1,.55-.82,1.42,1.42,0,0,1,.71-.41,1.14,1.14,0,0,1,1.06.27,1,1,0,0,1,.26.37l0,.08,0-.09a1.71,1.71,0,0,1,.42-.47.93.93,0,0,1,.68-.18,1.13,1.13,0,0,1,.54.16.53.53,0,0,1,.28.41.56.56,0,0,1-.53.66.35.35,0,0,1-.38-.43.56.56,0,0,1,.34-.42l.12,0-.13-.06a.88.88,0,0,0-.6,0,.84.84,0,0,0-.38.29,1.67,1.67,0,0,0-.29.58c-.1.35-.18.7-.27,1.05l-.27,1.12a1.05,1.05,0,0,0,0,.5.6.6,0,0,0,.16.33.45.45,0,0,0,.33.14,1,1,0,0,0,.54-.15,1.59,1.59,0,0,0,.61-.65,2.41,2.41,0,0,0,.21-.5c0-.11.08-.11.19-.1s.06,0,.06.08a.71.71,0,0,1,0,.21,2.36,2.36,0,0,1-.39.69,1.91,1.91,0,0,1-.49.45,1.26,1.26,0,0,1-.62.2,1.16,1.16,0,0,1-.72-.2,1,1,0,0,1-.38-.48l0,0Z" transform="translate(-288.83 -73)"/><path class="cls-10" d="M665.74,543.33c0-.14,0-.28,0-.42a7.68,7.68,0,0,1,.11-.95,6.82,6.82,0,0,1,.27-1.08,6,6,0,0,1,.58-1.2,5.89,5.89,0,0,1,.65-.84,3.63,3.63,0,0,1,.47-.41l.09,0a.08.08,0,0,1,.12,0,.09.09,0,0,1,0,.12l-.06.07a4.07,4.07,0,0,0-.51.59,5.27,5.27,0,0,0-.8,1.63,6.83,6.83,0,0,0-.27,1.27c0,.19,0,.38,0,.56a7.69,7.69,0,0,0,0,1c0,.19,0,.39,0,.59l.06.53a7.54,7.54,0,0,0,.28,1.23,5.68,5.68,0,0,0,.53,1.18,4.44,4.44,0,0,0,.59.78l.21.22a.11.11,0,0,1,0,.1.1.1,0,0,1-.14.06l-.14-.09a2.9,2.9,0,0,1-.51-.48,6.19,6.19,0,0,1-.76-1.06,5.76,5.76,0,0,1-.43-1,6.28,6.28,0,0,1-.24-1,4.6,4.6,0,0,1-.06-.52c0-.25,0-.51,0-.76Z" transform="translate(-288.83 -73)"/><path class="cls-10" d="M677.11,543.34a8.1,8.1,0,0,1-.31,2.19,6.23,6.23,0,0,1-.33.85,5.21,5.21,0,0,1-.86,1.31,4.22,4.22,0,0,1-.58.54l-.09.06a.11.11,0,0,1-.13,0,.12.12,0,0,1,0-.13l.05-.06a4.68,4.68,0,0,0,.72-.89,5.32,5.32,0,0,0,.59-1.31,7.77,7.77,0,0,0,.25-1.06c0-.19,0-.37.06-.56a3.87,3.87,0,0,0,0-.48c0-.27,0-.53,0-.8a8.66,8.66,0,0,0-.23-1.76,5.78,5.78,0,0,0-.5-1.39,4.57,4.57,0,0,0-.69-1l-.25-.26a.15.15,0,0,1-.06-.11c0-.07.06-.12.13-.09l.09.06a2.63,2.63,0,0,1,.53.47,7,7,0,0,1,.58.74,5.28,5.28,0,0,1,.57,1.17A6.75,6.75,0,0,1,677,542a5.14,5.14,0,0,1,.06.55c0,.19,0,.38,0,.57S677.11,543.28,677.11,543.34Z" transform="translate(-288.83 -73)"/><path class="cls-10" d="M663.06,548v.21q-1,0-2,0V548h.4l.23,0c.11,0,.14-.06.14-.17v-2.49a1.82,1.82,0,0,1-.8.13.81.81,0,0,1,0-.22h.13a1.55,1.55,0,0,0,.67-.14,2.07,2.07,0,0,0,.25-.15.19.19,0,0,1,.18,0l0,.05v2.8c0,.15,0,.18.17.2l.25,0h.36Z" transform="translate(-288.83 -73)"/><path class="cls-9" d="M709.39,509.32l0,0a2.26,2.26,0,0,1,.71-.56,1.22,1.22,0,0,1,1.35.16,1.38,1.38,0,0,1,.42.64,2,2,0,0,1,.1.81,3.21,3.21,0,0,1-1.5,2.5,2,2,0,0,1-.75.26,1.06,1.06,0,0,1-.58-.09,1,1,0,0,1-.44-.45l0-.08-.06.19c-.13.55-.27,1.09-.41,1.64,0,.05,0,.09,0,.14s0,.11.09.12a1,1,0,0,0,.24,0h.27l.08,0,0,0a.18.18,0,0,1-.18.24l-.59,0h-1.22c-.09,0-.16,0-.14-.17a.15.15,0,0,1,.17-.14h.27a.27.27,0,0,0,.28-.24c.05-.15.08-.3.12-.46.19-.73.37-1.46.55-2.19.12-.45.23-.9.35-1.36.06-.23.12-.47.17-.71a1.27,1.27,0,0,0,0-.55l0-.1a.27.27,0,0,0-.32-.16.41.41,0,0,0-.28.18,1.21,1.21,0,0,0-.22.42c-.07.21-.13.43-.19.64l0,.1a.13.13,0,0,1-.17.06.09.09,0,0,1-.07-.13c0-.17.08-.33.13-.5a2.79,2.79,0,0,1,.26-.59,1,1,0,0,1,.23-.27.72.72,0,0,1,.58-.13.85.85,0,0,1,.73.67s0,0,0,0Zm1.91.42h0c0-.08,0-.15,0-.22a1,1,0,0,0-.11-.39.57.57,0,0,0-.53-.32,1,1,0,0,0-.39.11,2.13,2.13,0,0,0-.75.65.83.83,0,0,0-.16.31l-.12.46c-.13.51-.26,1-.38,1.53a1,1,0,0,0,0,.17,1.46,1.46,0,0,0,.16.44.79.79,0,0,0,.36.34.73.73,0,0,0,.58,0,1.67,1.67,0,0,0,.53-.42,2.67,2.67,0,0,0,.47-.88,8,8,0,0,0,.31-1.19C711.26,510.12,711.27,509.93,711.3,509.74Z" transform="translate(-288.83 -73)"/><path class="cls-9" d="M715.94,511.54l0,0,.42-.41.65-.63.18-.19a.64.64,0,0,0,.08-.14.14.14,0,0,0-.08-.18l-.09,0h-.06c-.08,0-.11-.05-.1-.12s0-.14.12-.14h.55a5.17,5.17,0,0,0,.68,0h.24c.07,0,.11,0,.11.09a.13.13,0,0,1-.09.16h-.1a1.47,1.47,0,0,0-.94.39l-.5.46-.64.63-.31.3-.05.06a1.74,1.74,0,0,1,.1.19l.39.77c.21.4.41.81.62,1.22l0,0a.25.25,0,0,0,.24.16l.27,0h.06c.09,0,.12,0,.12.11s0,.14-.12.14h-1.22l-.36,0H716a.1.1,0,0,1-.11-.09.14.14,0,0,1,.07-.15h.08a.59.59,0,0,0,.32-.11l.06-.06-.89-1.73-.16.15-.49.48-.59.57-.33.34a.29.29,0,0,0-.08.13.14.14,0,0,0,.09.2.42.42,0,0,0,.12,0c.09,0,.13,0,.12.11s0,.14-.13.14h-.31a6.42,6.42,0,0,0-.76,0h-.4c-.07,0-.11,0-.11-.09s0-.14.09-.15l.22,0a1.27,1.27,0,0,0,.57-.21,3.11,3.11,0,0,0,.49-.39l.79-.77.7-.69.06-.05-.1-.19-.33-.66c-.19-.36-.38-.72-.56-1.09a.31.31,0,0,0-.27-.17h-.34a.09.09,0,0,1-.09-.12c0-.09,0-.13.14-.13l.33,0a5,5,0,0,0,.67,0h.23l.38,0h.12a.1.1,0,0,1,.11.1.13.13,0,0,1-.1.15h-.08a.62.62,0,0,0-.27.09c-.07,0-.08.07,0,.15.13.25.26.49.38.74s.19.36.28.54Z" transform="translate(-288.83 -73)"/><path class="cls-9" d="M730.2,509.33l.14-.21a1.34,1.34,0,0,1,.38-.37,1,1,0,0,1,.72-.15,1.26,1.26,0,0,1,.46.16.52.52,0,0,1,.27.4.56.56,0,0,1-.53.67.36.36,0,0,1-.35-.53.56.56,0,0,1,.35-.34l.09,0-.15-.06a.92.92,0,0,0-.59,0,.78.78,0,0,0-.38.29,1.56,1.56,0,0,0-.28.58q-.15.52-.27,1c-.1.37-.19.74-.28,1.11a1.21,1.21,0,0,0,0,.5.54.54,0,0,0,.26.41.56.56,0,0,0,.42.05,1.27,1.27,0,0,0,.58-.29,2.05,2.05,0,0,0,.55-.87.88.88,0,0,0,0-.15.14.14,0,0,1,.21-.06s0,0,0,.07a1.08,1.08,0,0,1,0,.19,2.41,2.41,0,0,1-.39.7,1.83,1.83,0,0,1-.5.46,1.33,1.33,0,0,1-.62.19,1.12,1.12,0,0,1-.87-.33,1,1,0,0,1-.23-.35l0,0-.05.08a1.65,1.65,0,0,1-.46.49.93.93,0,0,1-.53.17,1.38,1.38,0,0,1-.66-.17.56.56,0,0,1-.27-.38.57.57,0,0,1,.41-.68.53.53,0,0,1,.28,0,.34.34,0,0,1,.22.39.57.57,0,0,1-.4.46l-.06,0a1.19,1.19,0,0,0,.28.1.78.78,0,0,0,.48,0,.93.93,0,0,0,.33-.26,1.59,1.59,0,0,0,.32-.65c.17-.64.35-1.27.49-1.91a4.13,4.13,0,0,0,.07-.49.72.72,0,0,0-.09-.43.47.47,0,0,0-.42-.26,1.08,1.08,0,0,0-.43.1,1.6,1.6,0,0,0-.64.57,2.53,2.53,0,0,0-.29.65.14.14,0,0,1-.22.07.08.08,0,0,1,0-.08.59.59,0,0,1,0-.14,2.5,2.5,0,0,1,.44-.78,1.63,1.63,0,0,1,.55-.46,1.22,1.22,0,0,1,1.31.08,1.37,1.37,0,0,1,.33.43Z" transform="translate(-288.83 -73)"/><path class="cls-9" d="M724.07,510.49c0-.14,0-.27,0-.41s0-.45.06-.67a5.88,5.88,0,0,1,.14-.73,6.13,6.13,0,0,1,.37-1.12,4.9,4.9,0,0,1,.47-.84,5.46,5.46,0,0,1,.56-.71,3.63,3.63,0,0,1,.47-.41l.1-.06a.09.09,0,0,1,.11,0,.11.11,0,0,1,0,.13l-.06.06a4.3,4.3,0,0,0-.75.95,5.69,5.69,0,0,0-.7,1.76,8.55,8.55,0,0,0-.14.86,7.36,7.36,0,0,0-.06.81c0,.21,0,.42,0,.64s0,.67.08,1A8.82,8.82,0,0,0,725,513a5.61,5.61,0,0,0,.67,1.45,4.59,4.59,0,0,0,.48.61l.21.22a.15.15,0,0,1,0,.08c0,.08-.08.13-.14.09a2.27,2.27,0,0,1-.25-.18,4.34,4.34,0,0,1-.85-1,5.84,5.84,0,0,1-.41-.68,6.14,6.14,0,0,1-.5-1.46c-.06-.28-.1-.57-.14-.87,0-.1,0-.21,0-.31s0-.34,0-.51Z" transform="translate(-288.83 -73)"/><path class="cls-9" d="M735.45,510.51a7.67,7.67,0,0,1-.32,2.18,5.64,5.64,0,0,1-.33.86,5.21,5.21,0,0,1-.86,1.31,3.17,3.17,0,0,1-.57.53l-.1.06a.09.09,0,0,1-.12,0,.12.12,0,0,1,0-.13l.05,0a5,5,0,0,0,.82-1.06,6.43,6.43,0,0,0,.41-.88,6.73,6.73,0,0,0,.33-1.34c0-.18,0-.37.07-.55s0-.32,0-.48,0-.54,0-.81a8.43,8.43,0,0,0-.25-1.88,6.35,6.35,0,0,0-.48-1.28,4.51,4.51,0,0,0-.68-1l-.26-.27s-.06-.06,0-.11a.08.08,0,0,1,.12-.08l.1,0a3.87,3.87,0,0,1,.52.47,5,5,0,0,1,.46.57A5.42,5.42,0,0,1,735,508a7.38,7.38,0,0,1,.31,1.23c0,.18,0,.36.07.54l0,.58C735.44,510.39,735.45,510.45,735.45,510.51Z" transform="translate(-288.83 -73)"/><path class="cls-9" d="M719.41,512.65l.17.08a.3.3,0,0,1,.08.33.28.28,0,0,1-.26.19.29.29,0,0,1-.31-.33.83.83,0,0,1,.4-.65,1.46,1.46,0,0,1,.65-.2,1.79,1.79,0,0,1,.82.13,1,1,0,0,1,.45.35.86.86,0,0,1,0,1,1.1,1.1,0,0,1-.35.39l-.57.42-.75.55,0,0h1.39a.14.14,0,0,0,.14-.11c0-.08,0-.17.07-.26a.44.44,0,0,1,0-.1h.21l-.17,1h-2.31a.43.43,0,0,1,0-.16.18.18,0,0,1,.07-.08l.28-.24,1-.88a1.73,1.73,0,0,0,.45-.52.84.84,0,0,0,.08-.64.69.69,0,0,0-.48-.5,1,1,0,0,0-.81,0A.69.69,0,0,0,719.41,512.65Z" transform="translate(-288.83 -73)"/></svg>