<svg id="Layer_1" data-name="Layer 1" xmlns="http://www.w3.org/2000/svg" viewBox="0 0 303.04 260.73"><defs><style>.cls-1,.cls-2{fill:red;}.cls-1{stroke:red;}.cls-1,.cls-3,.cls-4,.cls-5{stroke-miterlimit:10;}.cls-3,.cls-4,.cls-5{fill:none;stroke:#000;}.cls-3{stroke-dasharray:12;}.cls-5{stroke-dasharray:10 10;}.cls-6{font-size:20px;font-family:TimesNewRomanPSMT, Times New Roman;}</style></defs><title>random_variable_mapping</title><path d="M457.91,202.68h-2.63a4.89,4.89,0,0,1-.33,1.56,4.19,4.19,0,0,1-1.25,1.7,7.14,7.14,0,0,1-3,1.37,13.33,13.33,0,0,1-2.58.28,5.69,5.69,0,0,1-3.44-1.14,6.67,6.67,0,0,1-1.81-2.14,10.79,10.79,0,0,1-.92-2.16,14.71,14.71,0,0,1-.58-2.51c-.09-.69-.18-1.38-.23-2.07-.05-.94-.1-1.88-.07-2.82a12.52,12.52,0,0,1,.29-2.19,18.39,18.39,0,0,1,.68-2.3,11.77,11.77,0,0,1,1.19-2.38c.46-.73.95-1.43,1.46-2.13a16.12,16.12,0,0,1,1.08-1.27c.87-.93,1.75-1.87,2.66-2.77.66-.66,1.36-1.27,2-1.9.51-.47,1-.92,1.53-1.42a21.88,21.88,0,0,0,2.11-2.59,31.26,31.26,0,0,0,1.95-3.24,38.66,38.66,0,0,0,1.93-4.37,1.07,1.07,0,0,1,1.62-.56.81.81,0,0,1,.37.44c.23.61.48,1.21.75,1.81.42.93.83,1.86,1.29,2.77a24.64,24.64,0,0,0,2.46,3.93c.36.46.74.92,1.13,1.36s.94,1,1.44,1.47c.68.65,1.39,1.26,2.08,1.91s1.39,1.31,2.06,2c.43.43.84.88,1.24,1.35.51.62,1,1.25,1.5,1.9a15.91,15.91,0,0,1,1.69,2.8,13.89,13.89,0,0,1,1.11,3.39,12.22,12.22,0,0,1,.24,2.17c0,.36,0,.73,0,1.09,0,.7,0,1.4-.12,2.1-.14,1-.28,2.07-.51,3.09a10.67,10.67,0,0,1-1.62,3.8,6.08,6.08,0,0,1-2.07,1.9,5.08,5.08,0,0,1-2,.63,7.79,7.79,0,0,1-1.07.07,9.93,9.93,0,0,1-4.47-1.09,4.54,4.54,0,0,1-1.88-1.88,4.14,4.14,0,0,1-.46-1.69,1.18,1.18,0,0,0,0-.25h-2.62c0,.38,0,.77,0,1.15a1.79,1.79,0,0,0,0,.23c0,.63.09,1.26.15,1.89s.16,1.35.28,2c.16.83.36,1.67.56,2.5.13.56.34,1.11.45,1.68a.89.89,0,0,1-.67,1.11,5.69,5.69,0,0,1-1,.12q-1,0-2,0a4.77,4.77,0,0,1-.92-.15.77.77,0,0,1-.59-.77,2.1,2.1,0,0,1,.09-.66c.22-.89.46-1.77.67-2.66.14-.57.25-1.15.35-1.73.07-.43.12-.87.16-1.31.06-.67.11-1.33.16-2,0-.18,0-.35,0-.52S457.91,203,457.91,202.68Z" transform="translate(-350.5 -139.6)"/><path d="M516.58,256.65l1.1-2.31c-.14-.13-.28-.28-.44-.41a7.4,7.4,0,0,1-1.45-1.61,14.61,14.61,0,0,1-1-1.66,9.21,9.21,0,0,1-.88-2.78c-.06-.45-.1-.91-.15-1.36,0-.12,0-.25,0-.37a11.13,11.13,0,0,1,.65-3.92,10.15,10.15,0,0,1,1.69-3,8.79,8.79,0,0,1,5.47-3.3,8.62,8.62,0,0,1,2.15-.09,8,8,0,0,1,2.72.67,9,9,0,0,1,2.24,1.41,9.87,9.87,0,0,1,2.59,3.45,10.8,10.8,0,0,1,.79,2.41,10.4,10.4,0,0,1,.15,1.25,14.79,14.79,0,0,1,0,1.63,11.69,11.69,0,0,1-.4,2.34,9.8,9.8,0,0,1-.93,2.24,10.47,10.47,0,0,1-1,1.46,15.44,15.44,0,0,1-1.17,1.26,3.91,3.91,0,0,1-.44.37l1.13,2.37.2-.23a5.92,5.92,0,0,1,3.35-1.89,6.67,6.67,0,0,1,1.67-.1,6.44,6.44,0,0,1,3.42,1.24,8.69,8.69,0,0,1,2.7,3.5,12.6,12.6,0,0,1,1,4.41,11.22,11.22,0,0,1,0,1.42,17.85,17.85,0,0,1-.24,1.93,10.09,10.09,0,0,1-.91,2.66,9,9,0,0,1-1.08,1.71,10.25,10.25,0,0,1-1,1.09,8.47,8.47,0,0,1-1.7,1.27,8.23,8.23,0,0,1-2.39.9,6.85,6.85,0,0,1-1,.13,3,3,0,0,1-.6,0,8.57,8.57,0,0,1-3.85-.9,4.3,4.3,0,0,1-2.34-3.11c0-.2-.05-.4-.07-.6s0-.17-.15-.17h-2.44v1.11c0,.07,0,.13,0,.2.06.62.09,1.25.16,1.87s.15,1.32.27,2c.15.82.34,1.62.54,2.43.13.54.33,1.08.44,1.63a.87.87,0,0,1-.66,1.08,5.34,5.34,0,0,1-1,.11q-1,0-1.92,0a4.46,4.46,0,0,1-.89-.14.74.74,0,0,1-.57-.75,2.29,2.29,0,0,1,.08-.64c.22-.86.45-1.72.66-2.58q.19-.84.33-1.68c.08-.43.12-.86.16-1.29.06-.64.1-1.27.15-1.91,0-.24,0-.47,0-.71s0-.45,0-.68h-2.59a4.5,4.5,0,0,1-.4,1.7,6.85,6.85,0,0,1-.61,1,4.44,4.44,0,0,1-1.75,1.31,6.44,6.44,0,0,1-2.06.61,12.81,12.81,0,0,1-1.64.14,7.85,7.85,0,0,1-3.05-.66,9.29,9.29,0,0,1-2.12-1.32,9.4,9.4,0,0,1-1.61-1.78,10.71,10.71,0,0,1-1.47-3,10,10,0,0,1-.41-1.94c0-.36-.06-.72-.07-1.08a13.08,13.08,0,0,1,0-1.4,13.44,13.44,0,0,1,.46-2.67,10.32,10.32,0,0,1,1.49-3.27,10.21,10.21,0,0,1,1.16-1.38,6,6,0,0,1,2.54-1.49,8.05,8.05,0,0,1,1.3-.24,6.06,6.06,0,0,1,2.89.33,5.28,5.28,0,0,1,1.75,1C516,256.12,516.29,256.38,516.58,256.65Z" transform="translate(-350.5 -139.6)"/><path class="cls-1" d="M475.39,257.2a1.22,1.22,0,0,0-.4-.65c-.48-.46-1-.89-1.45-1.35-.72-.71-1.43-1.44-2.13-2.17-.4-.4-.78-.82-1.15-1.25-.51-.58-1-1.17-1.51-1.77s-.84-1-1.24-1.53-.91-1.18-1.33-1.8c-.79-1.12-1.58-2.25-2.33-3.4s-1.29-2.07-1.9-3.12-1.06-1.88-1.57-2.84c-.27-.51-.52-1-.77-1.55a1,1,0,0,0-1.41-.35,2,2,0,0,0-.46.63c-.47.87-.9,1.76-1.38,2.62s-1.09,2-1.69,2.94c-.81,1.3-1.65,2.6-2.51,3.87-.7,1-1.44,2-2.19,3s-1.3,1.64-2,2.44c-.45.53-.92,1.05-1.38,1.56s-.82.88-1.23,1.3-.73.71-1.1,1.06l-1.92,1.86a1,1,0,0,0-.31.69,1.09,1.09,0,0,0,.36.8c.44.43.91.83,1.34,1.27q1.55,1.59,3.08,3.19c.37.38.71.79,1.06,1.2.48.57,1,1.13,1.43,1.72.59.75,1.19,1.51,1.74,2.29q1.25,1.73,2.43,3.51c.58.88,1.13,1.78,1.67,2.69s1.05,1.83,1.55,2.75c.36.67.7,1.35,1,2a1.2,1.2,0,0,0,.72.69H459a1.18,1.18,0,0,0,.32-.21,3.12,3.12,0,0,0,.39-.56c.46-.87.9-1.75,1.36-2.62.38-.71.77-1.42,1.18-2.1.67-1.1,1.35-2.18,2.05-3.26.52-.8,1.08-1.59,1.64-2.38.45-.64.92-1.27,1.4-1.9.3-.41.62-.81.94-1.2l1.18-1.4c.42-.49.85-1,1.28-1.45.18-.21.36-.4.55-.59.59-.61,1.17-1.22,1.78-1.81s1.36-1.28,2-1.93A.93.93,0,0,0,475.39,257.2Zm-16.66,19.06a71.42,71.42,0,0,0-14.1-18.86,73.32,73.32,0,0,0,14.11-18.89,71.47,71.47,0,0,0,14.1,18.87A73.27,73.27,0,0,0,458.73,276.26Z" transform="translate(-350.5 -139.6)"/><path class="cls-1" d="M472.84,257.38a73.27,73.27,0,0,0-14.11,18.88,71.42,71.42,0,0,0-14.1-18.86,73.32,73.32,0,0,0,14.11-18.89A71.47,71.47,0,0,0,472.84,257.38Z" transform="translate(-350.5 -139.6)"/><path class="cls-2" d="M540.54,183.05a16,16,0,0,1-2.09,6.77c-.53.94-1.15,1.86-1.76,2.77-.48.69-1,1.35-1.53,2-.4.5-.83,1-1.27,1.44-1,1.06-2,2.12-3.07,3.16-.79.79-1.62,1.54-2.44,2.32-.44.43-.91.85-1.32,1.29a20.34,20.34,0,0,0-2.51,3.11c-.35.54-.67,1.11-1,1.68-.19.33-.35.66-.54,1-.16-.32-.33-.64-.51-1a22.92,22.92,0,0,0-2-3.14c-.55-.67-1.09-1.34-1.69-2s-1-1-1.57-1.5l-.5-.47c-.33-.29-.65-.61-1-.92-.81-.78-1.62-1.57-2.41-2.37q-.82-.81-1.59-1.71c-.8-1-1.62-1.92-2.37-2.93-.61-.83-1.14-1.73-1.68-2.61a14.21,14.21,0,0,1-1.55-3.5c-.22-.75-.37-1.52-.52-2.28a15.74,15.74,0,0,1-.18-3.22c0-.62.12-1.24.17-1.86a14.55,14.55,0,0,1,.65-3.05,9,9,0,0,1,1.49-2.89,6.21,6.21,0,0,1,1.84-1.58,6.55,6.55,0,0,1,2.34-.75,7.75,7.75,0,0,1,2.15,0,8.31,8.31,0,0,1,3,1,8.12,8.12,0,0,1,2.25,1.88,9.72,9.72,0,0,1,1.38,2.13,13.61,13.61,0,0,1,1,3.22,1.64,1.64,0,0,0,.66,1.12,1.13,1.13,0,0,0,1.71-.68c.15-.52.26-1,.39-1.55a11.57,11.57,0,0,1,1.12-2.78,9.27,9.27,0,0,1,1.77-2.26,8,8,0,0,1,2.34-1.5,7.87,7.87,0,0,1,4.05-.65,7.38,7.38,0,0,1,1.68.35,6,6,0,0,1,1.94,1.1,6.58,6.58,0,0,1,1.78,2.44,12.53,12.53,0,0,1,.89,2.76c.12.63.22,1.26.3,1.9s.11,1.31.13,2S540.58,182.49,540.54,183.05Z" transform="translate(-350.5 -139.6)"/><circle class="cls-3" cx="141" cy="83.9" r="80"/><path d="M571.73,163.82l-.12,0a7.89,7.89,0,0,1-1.6-.21,7,7,0,0,1-1.93-.71,9.86,9.86,0,0,1-1.09-.73,4.47,4.47,0,0,1-1.09-1.2,3.71,3.71,0,0,1-.59-1.57,4.91,4.91,0,0,1,0-1.15,4.39,4.39,0,0,1,.42-1.33,5,5,0,0,1,.67-1,5.5,5.5,0,0,1,1.9-1.38,3.31,3.31,0,0,1,1.2-.34h.41a.2.2,0,0,1,.17.27,1.15,1.15,0,0,1-.2.36,3.77,3.77,0,0,1-1.23.89.47.47,0,0,0-.24.33,7.4,7.4,0,0,0-.26,1,3,3,0,0,0,.24,1.68,4.41,4.41,0,0,0,1.15,1.52,6.07,6.07,0,0,0,1.18.82,7.78,7.78,0,0,0,1.87.69,6.07,6.07,0,0,0,.84.12c.43,0,.85.05,1.28.05s.69-.06,1-.09a7.34,7.34,0,0,0,1.61-.35,5.91,5.91,0,0,0,1.26-.56,5.25,5.25,0,0,0,1.16-.94,4.11,4.11,0,0,0,.79-1.23c.1-.25.19-.52.27-.78a3.67,3.67,0,0,0,.12-.94,3.47,3.47,0,0,0-.22-1.39,4.11,4.11,0,0,0-.68-1.16c-.09-.11-.17-.22-.26-.31a8.58,8.58,0,0,0-1.68-1.32,19,19,0,0,0-1.83-1c-.7-.33-1.41-.64-2.1-1a8.25,8.25,0,0,1-1.47-1,5.3,5.3,0,0,1-1.06-1.16,3.7,3.7,0,0,1-.57-1.51,5.79,5.79,0,0,1,0-.72,4.54,4.54,0,0,1,.4-1.65,5.86,5.86,0,0,1,.79-1.31,7,7,0,0,1,1.17-1.2c.41-.31.81-.63,1.24-.92a11.05,11.05,0,0,1,1.87-1,12.55,12.55,0,0,1,2.05-.66c.35-.08.71-.13,1.07-.18a7.48,7.48,0,0,1,1.57-.07,8.2,8.2,0,0,1,1.47.18,7.47,7.47,0,0,1,1.46.45,4.71,4.71,0,0,1,1.15.61,2,2,0,0,1,.78,1.3,3.7,3.7,0,0,1,.07.66,3.61,3.61,0,0,1-.25,1.45,1.74,1.74,0,0,1-.46.58,4.87,4.87,0,0,1-1.2.76,1.94,1.94,0,0,1-.85.21c-.27,0-.35-.12-.3-.38a5.84,5.84,0,0,0,.18-.83,3,3,0,0,0,0-.67,3.3,3.3,0,0,0-.15-.62,1.65,1.65,0,0,0-.74-.88,5.72,5.72,0,0,0-1.55-.65c-.29-.08-.6-.15-.9-.21s-.45-.06-.67-.08l-.65,0a6.79,6.79,0,0,0-1.49.15,4.79,4.79,0,0,0-1.32.45,3.23,3.23,0,0,0-1,.8,3.89,3.89,0,0,0-.74,1.39,3.28,3.28,0,0,0,.48,3,4.94,4.94,0,0,0,.86.91,9.4,9.4,0,0,0,2.2,1.36c.75.35,1.5.69,2.24,1a10.75,10.75,0,0,1,2,1.25,5.35,5.35,0,0,1,1.6,1.93,3.46,3.46,0,0,1,.33,1.15,5.79,5.79,0,0,1,0,.72,4.75,4.75,0,0,1-.32,1.66,6,6,0,0,1-.76,1.43q-.29.4-.6.78a6.69,6.69,0,0,1-.59.6c-.38.34-.77.66-1.18,1a12.18,12.18,0,0,1-2.17,1.29,13.65,13.65,0,0,1-2.48.91c-.43.11-.86.22-1.3.31s-.76.11-1.14.15l-.78.05-.06,0Z" transform="translate(-350.5 -139.6)"/><line class="cls-4" x1="42" y1="219.9" x2="288.32" y2="219.9"/><polygon points="286.87 224.89 295.5 219.9 286.87 214.91 286.87 224.89"/><path d="M645.5,337.22l.37.59c.59.9,1.17,1.81,1.78,2.7s1,1.49,1.58,2.23c.4.56.81,1.11,1.25,1.64s.8.9,1.23,1.33a3.29,3.29,0,0,0,1,.71,2.71,2.71,0,0,0,.43.14.59.59,0,0,1,.34.8.5.5,0,0,1-.42.28,1.53,1.53,0,0,1-.3,0h-5.25a.59.59,0,0,1-.55-.29c-.14-.22-.3-.43-.44-.65l-1.31-2.08c-.27-.41-.54-.82-.8-1.23-.58-.87-1.15-1.75-1.72-2.62-.38-.6-.77-1.2-1.16-1.8l-.9-1.4a.13.13,0,0,0-.07,0h-1.1v7.75a1.31,1.31,0,0,0,.24.84.83.83,0,0,0,.3.23,3.25,3.25,0,0,0,.62.13c.32,0,.63,0,.94,0a2,2,0,0,1,.43.07.51.51,0,0,1,.34.6c-.06.38-.33.47-.66.47H632a2.07,2.07,0,0,1-.42-.08.45.45,0,0,1-.29-.43.48.48,0,0,1,.25-.51.94.94,0,0,1,.31-.1c.29,0,.58,0,.87,0a4.06,4.06,0,0,0,.7-.09.81.81,0,0,0,.7-.8c0-.31,0-.63,0-.94q0-8.28,0-16.56a3.24,3.24,0,0,0-.11-.75.74.74,0,0,0-.6-.55,6.37,6.37,0,0,0-1.31-.1,1.22,1.22,0,0,1-.59-.11.53.53,0,0,1-.26-.58.49.49,0,0,1,.37-.4,2.7,2.7,0,0,1,.41-.05h11.06a10,10,0,0,1,1.09.09,9.3,9.3,0,0,1,1.88.35c.44.13.88.29,1.31.45a6.92,6.92,0,0,1,1.37.73,5.66,5.66,0,0,1,1,.87,4.58,4.58,0,0,1,1.1,1.89,9.35,9.35,0,0,1,.2,1,4,4,0,0,1,0,.6c0,.22,0,.44,0,.66a5,5,0,0,1-.19,1.07,4.21,4.21,0,0,1-.74,1.5,4.37,4.37,0,0,1-.49.56,5.75,5.75,0,0,1-1.52,1,9.54,9.54,0,0,1-1.8.61l-.8.16Zm-10.41-10.48c0,.21.11.41.15.62a3.38,3.38,0,0,1,.07.63q0,8.75,0,17.5a2.63,2.63,0,0,1-.06.48c0,.18-.09.37-.14.55h3.47l-.07-.16a4.66,4.66,0,0,1-.18-1.39q0-8.54,0-17.06a2.06,2.06,0,0,1,.21-.91l.16-.26Zm4.38,9.65c.41,0,.81,0,1.21,0s.86,0,1.29-.07a4.9,4.9,0,0,0,.67-.07,5.43,5.43,0,0,0,1.18-.32,2.46,2.46,0,0,0,1.47-1.64,7.51,7.51,0,0,0,.25-1.7c0-.27,0-.55,0-.82s0-.67-.05-1,0-.57-.09-.85a4.54,4.54,0,0,0-.52-1.61,2.71,2.71,0,0,0-1.1-1.1,4.54,4.54,0,0,0-1.95-.46h-.59a2.79,2.79,0,0,0-.95.16,1.19,1.19,0,0,0-.84,1.21q0,4.08,0,8.16Zm2.48,1.14c.15.23.26.42.39.61l1.32,2.05,1.29,2,1.25,1.92,1.53,2.36a.14.14,0,0,0,.13.07h3c-.38-.44-.77-.87-1.15-1.3-.22-.27-.44-.53-.65-.8s-.61-.79-.9-1.2c-.47-.66-.95-1.31-1.4-2-.59-.86-1.16-1.75-1.73-2.62l-.75-1.18a.1.1,0,0,0-.08-.06l-.22,0-1,.09Zm3.78-1.58.43-.08a7.51,7.51,0,0,0,1.84-.67,3.74,3.74,0,0,0,1.35-1.21,3.84,3.84,0,0,0,.63-2,4.46,4.46,0,0,0-.07-1.21,3.93,3.93,0,0,0-1.31-2.24,4.63,4.63,0,0,0-.56-.43c-.35-.2-.71-.39-1.07-.56a7.41,7.41,0,0,0-1.47-.47,5.19,5.19,0,0,1,.77,1.45,6,6,0,0,1,.33,1.41c0,.45.1.9.11,1.35s0,1,0,1.56a4.48,4.48,0,0,1-.06.62c-.07.38-.15.77-.25,1.15A4,4,0,0,1,645.73,336Z" transform="translate(-350.5 -139.6)"/><line class="cls-4" y1="219.9" x2="6" y2="219.9"/><line class="cls-5" x1="16" y1="219.9" x2="31" y2="219.9"/><line class="cls-4" x1="36" y1="219.9" x2="42" y2="219.9"/><line class="cls-4" x1="66" y1="210.4" x2="66" y2="228.4"/><line class="cls-4" x1="116" y1="210.4" x2="116" y2="228.4"/><line class="cls-4" x1="166" y1="210.4" x2="166" y2="228.4"/><line class="cls-4" x1="216" y1="210.4" x2="216" y2="228.4"/><text class="cls-6" transform="translate(61.17 247.8)">1</text><text class="cls-6" transform="translate(111.17 247.8)">2</text><text class="cls-6" transform="translate(161.17 247.8)">3</text><text class="cls-6" transform="translate(211.17 248.8)">4</text><path class="cls-4" d="M440,204c-11.88,20.36-20.16,105.51-22.39,130.85" transform="translate(-350.5 -139.6)"/><polygon points="62.3 193.36 66.5 202.4 72.23 194.24 62.3 193.36"/><path class="cls-4" d="M464.5,283.5c3.56,18.58,3.07,40.34,2.48,51.34" transform="translate(-350.5 -139.6)"/><polygon points="111.53 193.49 116 202.4 121.49 194.07 111.53 193.49"/><path class="cls-4" d="M519.5,283.5c-3,8.35-3.19,38-3.09,51.83" transform="translate(-350.5 -139.6)"/><polygon points="161.01 194.26 166 202.9 170.99 194.26 161.01 194.26"/><path class="cls-4" d="M541.5,198.5c21.28,54,24.47,116.08,24.93,136.83" transform="translate(-350.5 -139.6)"/><polygon points="210.85 194.36 216 202.9 220.82 194.17 210.85 194.36"/><path d="M379.19,288.7c-.08.08-.14.16-.21.24l-.47.49-.69.75-.56.6-.54.58c-.18.18-.35.36-.52.55l-.54.57c-.15.15-.3.31-.44.47a1.91,1.91,0,0,0-.37.51.57.57,0,0,0,.1.67.91.91,0,0,0,.44.19l.24,0a.2.2,0,0,1,.2.23.39.39,0,0,1-.14.35.33.33,0,0,1-.13,0h-.71l-.78,0h-.48l-.54,0-.82,0-1,0a.21.21,0,0,1-.22-.21.88.88,0,0,1,0-.17.26.26,0,0,1,.27-.23,5.1,5.1,0,0,0,1.4-.26,3.89,3.89,0,0,0,1-.56l.53-.46.41-.38.52-.56.23-.25.35-.36.62-.66.38-.42.64-.68.37-.4.63-.68.35-.37.18-.2-.25-.6-.35-.8c-.1-.25-.2-.5-.31-.74s-.23-.54-.34-.82l-.31-.72c-.12-.27-.23-.55-.35-.82s-.2-.49-.31-.73-.15-.34-.22-.52A.7.7,0,0,0,376,282a3.4,3.4,0,0,0-.46-.06h-.61l-.15,0a.2.2,0,0,1-.16-.22.88.88,0,0,1,0-.17c.06-.19.14-.22.32-.23s.5,0,.76,0h.41q.92,0,1.83,0l.89,0h1.07a.21.21,0,0,1,.17.22,1.23,1.23,0,0,1,0,.2.28.28,0,0,1-.27.19,2.88,2.88,0,0,0-.64.12,1.25,1.25,0,0,0-.61.37.13.13,0,0,0,0,.16l.39.92.34.81c.11.27.23.53.34.8s.23.54.34.81.21.49.32.73a.76.76,0,0,0,0,.11l.18-.18.24-.27.34-.36.65-.69.41-.43.64-.69.39-.42c.21-.24.43-.47.63-.72a.66.66,0,0,0,.16-.47.53.53,0,0,0-.34-.48,1.66,1.66,0,0,0-.5-.12.21.21,0,0,1-.2-.28.39.39,0,0,1,.1-.25.32.32,0,0,1,.26-.09H384l.75,0H386l.71,0h.69c.21,0,.31.14.27.35s-.07.22-.19.25a.83.83,0,0,1-.22,0,4,4,0,0,0-.92.14,6.32,6.32,0,0,0-.61.22,3,3,0,0,0-.84.5c-.26.21-.49.44-.73.66-.07.06-.12.13-.19.2l-.59.63-.57.6-.55.6-.33.36-.66.7c-.14.15-.28.31-.43.46l-.3.32.38.93.29.71.33.77.34.81c.12.27.23.55.35.82l.35.84.29.68c.15.33.29.67.43,1a.76.76,0,0,0,.64.46l.54,0,.52,0a.21.21,0,0,1,.23.24,1.52,1.52,0,0,1,0,.21.25.25,0,0,1-.24.17h-.67l-.86,0h-.49l-.43,0-.73,0h-.47l-.5,0H380a.23.23,0,0,1-.25-.26.59.59,0,0,1,0-.14.26.26,0,0,1,.23-.21l.42-.06a1.71,1.71,0,0,0,.75-.31.26.26,0,0,0,.1-.38l-.48-1.14-.54-1.28-.48-1.12-.54-1.28Z" transform="translate(-350.5 -139.6)"/><path d="M398.36,293.71a3.19,3.19,0,0,0,.23.32,2,2,0,0,0,1.16.62,4.12,4.12,0,0,0,1.21.08,2.9,2.9,0,0,0,1.41-.39,2.47,2.47,0,0,0,.42-.3,2.16,2.16,0,0,0,.58-.79,1.84,1.84,0,0,0,.16-.83,1.16,1.16,0,0,0-.26-.66,1.51,1.51,0,0,0-.57-.4,5.41,5.41,0,0,0-1.24-.33,4.2,4.2,0,0,1-1.15-.38,1.74,1.74,0,0,1-.86-1,2.09,2.09,0,0,1-.08-.5,2.45,2.45,0,0,1,.23-1.17,3,3,0,0,1,.51-.8,2.84,2.84,0,0,1,1-.75,3.17,3.17,0,0,1,.95-.29,4.51,4.51,0,0,1,1,0,3,3,0,0,1,1,.21,1.88,1.88,0,0,1,1,.83,1.35,1.35,0,0,1,.17.83,1.16,1.16,0,0,1-.23.64.87.87,0,0,1-.64.34.72.72,0,0,1-.45-.11.52.52,0,0,1-.23-.43.92.92,0,0,1,.8-.93l.17,0c-.06-.09-.11-.19-.18-.28a1.57,1.57,0,0,0-.87-.52,2.81,2.81,0,0,0-1-.1,2.4,2.4,0,0,0-.91.2,1.79,1.79,0,0,0-.63.42,1.76,1.76,0,0,0-.5.94,1.22,1.22,0,0,0,.09.73.89.89,0,0,0,.4.39,2.86,2.86,0,0,0,.81.27c.26.05.53.1.78.17a5.16,5.16,0,0,1,.67.2,1.81,1.81,0,0,1,.67.42,2.2,2.2,0,0,1,.55.73,2.08,2.08,0,0,1,.17.65,2.63,2.63,0,0,1-.24,1.29,3.88,3.88,0,0,1-.43.77,3.22,3.22,0,0,1-.78.74,3.93,3.93,0,0,1-1.07.52,5,5,0,0,1-.75.16l-.63,0h-.51a5.12,5.12,0,0,1-.95-.17,2.72,2.72,0,0,1-.82-.4,1.63,1.63,0,0,1-.71-1,1.55,1.55,0,0,1,.12-1.1,1.09,1.09,0,0,1,.81-.58.87.87,0,0,1,.59.09.57.57,0,0,1,.3.42,1.08,1.08,0,0,1-.8,1.23A2.15,2.15,0,0,1,398.36,293.71Z" transform="translate(-350.5 -139.6)"/><path d="M395.43,300a1,1,0,0,1-.18-.09c-.18-.13-.36-.26-.52-.4s-.34-.3-.49-.46-.44-.48-.64-.74-.48-.65-.7-1-.26-.42-.38-.63l-.26-.49c-.17-.4-.33-.79-.49-1.19a11.13,11.13,0,0,1-.42-1.39c-.07-.29-.12-.59-.18-.89s-.08-.5-.11-.76,0-.31-.05-.47,0-.62-.05-.93,0-.82,0-1.23c0-.18,0-.36,0-.54s0-.39.06-.58,0-.27,0-.41.05-.31.07-.47.07-.44.12-.66.13-.56.2-.83.19-.63.3-.94.25-.65.39-1a8,8,0,0,1,.38-.78c.21-.36.43-.72.67-1.06s.34-.47.52-.69.34-.38.52-.58a5.17,5.17,0,0,1,1-.84.94.94,0,0,1,.23-.1.15.15,0,0,1,.17.1.2.2,0,0,1,0,.23c-.06.06-.12.11-.17.17l-.38.4-.27.32c-.15.19-.3.38-.44.58a9.35,9.35,0,0,0-.77,1.29,8.94,8.94,0,0,0-.5,1.14c-.12.34-.23.68-.33,1s-.17.63-.24.95-.1.5-.14.76,0,.38-.08.57,0,.41-.07.61,0,.13,0,.2,0,.4,0,.59c0,.55,0,1.1,0,1.64,0,.24,0,.47,0,.7s0,.39,0,.58.06.56.1.84.11.73.18,1.09.17.76.28,1.13.28.88.45,1.31.34.73.52,1.08a6,6,0,0,0,.44.74c.2.29.41.56.62.83s.25.28.38.42l.43.48a.18.18,0,0,1,0,.22s-.09.1-.16.08Z" transform="translate(-350.5 -139.6)"/><path d="M412,289.07c0,.19,0,.38,0,.57s0,.35,0,.52,0,.35,0,.52,0,.45-.05.67-.07.57-.1.85a13.65,13.65,0,0,1-.35,1.78,13,13,0,0,1-.5,1.49c-.14.32-.28.64-.43,1a10.45,10.45,0,0,1-.82,1.36,10.16,10.16,0,0,1-.65.82,8.39,8.39,0,0,1-.71.75c-.21.2-.44.37-.67.55a.42.42,0,0,1-.18.08.16.16,0,0,1-.2-.1.24.24,0,0,1,.06-.27,3.9,3.9,0,0,0,.28-.29c.22-.24.43-.48.64-.73a8.71,8.71,0,0,0,.81-1.2c.19-.36.38-.73.54-1.1s.3-.77.43-1.16a9.57,9.57,0,0,0,.38-1.49l.15-.8c0-.2.05-.41.07-.61l.06-.64c0-.26,0-.51,0-.77s0-.43,0-.64,0-.23,0-.34,0-.45,0-.67l0-.59c0-.25,0-.5-.07-.76l-.06-.56c0-.25-.08-.51-.13-.77s-.15-.77-.26-1.14-.26-.87-.41-1.3a9.37,9.37,0,0,0-.53-1.22,9.28,9.28,0,0,0-.88-1.39c-.16-.21-.33-.41-.51-.61s-.34-.36-.52-.54a.28.28,0,0,1-.1-.21.19.19,0,0,1,.28-.16,5.62,5.62,0,0,1,.5.35c.21.19.42.38.62.58s.43.48.63.74.46.61.68.93.29.48.42.73.27.5.38.75.24.58.35.87a14.4,14.4,0,0,1,.42,1.42c.06.27.11.54.16.82s.08.49.12.74,0,.31,0,.46,0,.39,0,.58a1,1,0,0,0,0,.17Z" transform="translate(-350.5 -139.6)"/></svg>