<svg id="Layer_1" data-name="Layer 1" xmlns="http://www.w3.org/2000/svg" viewBox="0 0 901.056 323.976">
  <defs>
    <style>
      .cls-1, .cls-2, .cls-6 {
        fill: none;
        stroke-miterlimit: 10;
      }

      .cls-1, .cls-2 {
        stroke: #000;
      }

      .cls-2, .cls-6 {
        fill-rule: evenodd;
      }

      .cls-3, .cls-4 {
        font-size: 35px;
      }

      .cls-3 {
        font-family: MyriadPro-Regular, Myriad Pro;
      }

      .cls-4 {
        font-family: TimesNewRomanPSMT, Times New Roman;
      }

      .cls-5 {
        letter-spacing: -0.08em;
      }

      .cls-6 {
        stroke: #0071bc;
        stroke-width: 0.75px;
      }
    </style>
  </defs>
  <title>bartlett_welch</title>
  <line class="cls-1" x1="148.167" y1="176.726" x2="802.167" y2="176.726"/>
  <path class="cls-2" d="M415.5,384c5.078,14.186,12.63,19.47,18.967,21.545,7.528,2.465,13.2.357,19.993,3.658,7.925,3.853,10.712,11.83,11.79,18.293,1.078-6.463,3.865-14.44,11.79-18.293,6.793-3.3,12.465-1.193,19.993-3.658C504.37,403.47,511.922,398.186,517,384" transform="translate(-267.333 -191.774)"/>
  <line class="cls-1" x1="148.167" y1="168.726" x2="148.167" y2="184.726"/>
  <line class="cls-1" x1="802.167" y1="168.726" x2="802.167" y2="184.726"/>
  <path class="cls-2" d="M517,384c5.078,14.186,12.63,19.47,18.967,21.545,7.528,2.465,13.2.357,19.993,3.658,7.925,3.853,10.712,11.83,11.79,18.293,1.078-6.463,3.865-14.44,11.79-18.293,6.793-3.3,12.465-1.193,19.993-3.658,6.337-2.075,13.889-7.359,18.967-21.545" transform="translate(-267.333 -191.774)"/>
  <path class="cls-2" d="M968,384c5.078,14.186,12.63,19.47,18.967,21.545,7.528,2.465,13.2.357,19.993,3.658,7.925,3.853,10.712,11.83,11.79,18.293,1.078-6.463,3.865-14.44,11.79-18.293,6.793-3.3,12.465-1.193,19.993-3.658,6.337-2.075,13.889-7.359,18.967-21.545" transform="translate(-267.333 -191.774)"/>
  <line class="cls-1" x1="249.666" y1="168.465" x2="249.666" y2="184.726"/>
  <line class="cls-1" x1="351.166" y1="176.726" x2="351.166" y2="184.726"/>
  <line class="cls-1" x1="452.666" y1="176.726" x2="452.666" y2="184.726"/>
  <line class="cls-1" x1="700.515" y1="176.726" x2="700.515" y2="184.726"/>
  <path class="cls-2" d="M618.5,384c5.078,14.186,12.63,19.47,18.967,21.545,7.528,2.465,13.2.357,19.993,3.658,7.925,3.853,10.712,11.83,11.79,18.293,1.078-6.463,3.865-14.44,11.79-18.293,6.793-3.3,12.465-1.193,19.993-3.658C707.37,403.47,714.922,398.186,720,384" transform="translate(-267.333 -191.774)"/>
  <circle cx="584.714" cy="150.08" r="3.121"/>
  <circle cx="526.037" cy="150.08" r="3.121"/>
  <circle cx="643.39" cy="150.08" r="3.121"/>
  <g>
    <path d="M449.608,442.2l-.128.507q-.23.918-.458,1.835-.155.624-.308,1.248c0,.017-.007.033-.01.05-.031.177.025.27.2.3a3.275,3.275,0,0,0,.432.043c.138.007.277,0,.416,0a.605.605,0,0,1,.12.014.141.141,0,0,1,.125.175c-.015.177-.09.25-.267.247-.341,0-.682-.012-1.023-.019-.308-.007-.615-.021-.922-.019-.382,0-.763.018-1.144.028-.183,0-.365.009-.547.01-.12,0-.185-.051-.195-.146-.015-.145.039-.245.151-.273a.543.543,0,0,1,.12-.017c.182,0,.365,0,.547-.011a3.886,3.886,0,0,0,.4-.05.455.455,0,0,0,.38-.349c.054-.185.1-.371.147-.558l1.368-5.464c.157-.627.317-1.254.475-1.882.055-.22,0-.307-.221-.333-.2-.024-.4-.028-.605-.039-.092,0-.183,0-.274-.007-.2-.012-.215-.1-.188-.273a.166.166,0,0,1,.148-.146,1.355,1.355,0,0,1,.2-.02c1.556,0,3.112,0,4.668,0a3.455,3.455,0,0,1,1.457.295,2.1,2.1,0,0,1,1.157,1.2,1.823,1.823,0,0,1,.1.463,2.238,2.238,0,0,1-.493,1.545,3.854,3.854,0,0,1-1.239,1.057,4.534,4.534,0,0,1-1.593.542,3.976,3.976,0,0,1-.534.042c-.781,0-1.562,0-2.344,0Zm.054-.365h.121c.589,0,1.177,0,1.765,0,.162,0,.324-.007.485-.021a3.112,3.112,0,0,0,1.421-.458,1.985,1.985,0,0,0,.766-.867,4.292,4.292,0,0,0,.3-.888,2.764,2.764,0,0,0,.092-.971,1.161,1.161,0,0,0-.22-.558,1.259,1.259,0,0,0-.589-.411,2.694,2.694,0,0,0-.923-.158c-.541-.007-1.082,0-1.623,0-.081,0-.162,0-.242.012a.341.341,0,0,0-.325.259c-.041.143-.083.285-.119.429q-.219.87-.435,1.739C449.983,440.567,449.825,441.191,449.662,441.838Z" transform="translate(-267.333 -191.774)"/>
    <path d="M482.7,435.937a6.612,6.612,0,0,1-.293,1.712,6.927,6.927,0,0,1-.475,1.16,5.384,5.384,0,0,1-.764,1.13,2.825,2.825,0,0,1-.92.717,1.34,1.34,0,0,1-.945.1,1.169,1.169,0,0,1-.679-.544,2.477,2.477,0,0,1-.325-.971,4.05,4.05,0,0,1-.036-.778,5.764,5.764,0,0,1,.141-1.029,6.8,6.8,0,0,1,.8-2,4.976,4.976,0,0,1,.652-.863,2.838,2.838,0,0,1,.828-.623,1.375,1.375,0,0,1,.857-.127,1.1,1.1,0,0,1,.71.48,2.2,2.2,0,0,1,.361.916C482.654,435.454,482.671,435.7,482.7,435.937Zm-1.145,1.551H479.3c-.007.017-.014.029-.018.042a7.855,7.855,0,0,0-.266,1.489,3.254,3.254,0,0,0,.034.776,1.291,1.291,0,0,0,.167.485.472.472,0,0,0,.519.227,1.056,1.056,0,0,0,.256-.091,1.3,1.3,0,0,0,.392-.332,4.481,4.481,0,0,0,.655-1.042,8.212,8.212,0,0,0,.47-1.365C481.522,437.616,481.536,437.555,481.553,437.488Zm.092-.375a.237.237,0,0,0,.016-.04c.075-.363.158-.724.22-1.089a3.54,3.54,0,0,0,.028-1.058,1.593,1.593,0,0,0-.163-.559.488.488,0,0,0-.6-.261,1.253,1.253,0,0,0-.572.385,3.536,3.536,0,0,0-.549.81,7.656,7.656,0,0,0-.571,1.544c-.023.086-.043.174-.065.268Z" transform="translate(-267.333 -191.774)"/>
    <path d="M467.856,443.406c-.036.162-.078.314-.1.47-.043.259-.089.519-.109.78a2.343,2.343,0,0,0,.162,1.1,1.134,1.134,0,0,0,.48.571,1.044,1.044,0,0,0,.472.136,2.953,2.953,0,0,0,.695-.055,3.667,3.667,0,0,0,1.7-.8,3.487,3.487,0,0,0,.488-.5l.077-.094a.152.152,0,0,1,.214-.041.164.164,0,0,1,.06.227,2.22,2.22,0,0,1-.228.307,4.05,4.05,0,0,1-2.538,1.26,2.563,2.563,0,0,1-1.206-.125,2.031,2.031,0,0,1-1.077-.979,2.928,2.928,0,0,1-.321-1.253,3.823,3.823,0,0,1,.19-1.393,3.622,3.622,0,0,1,.868-1.41,4,4,0,0,1,1.058-.774,3.554,3.554,0,0,1,1.393-.392,2.052,2.052,0,0,1,.858.109,1.3,1.3,0,0,1,.613.446,1.092,1.092,0,0,1,.17.934A1.589,1.589,0,0,1,470.9,443a3.049,3.049,0,0,1-.885.277,6.9,6.9,0,0,1-1.157.109c-.307,0-.615.007-.922.011Zm.092-.329c.02,0,.03.007.04.007.351-.007.7-.011,1.052-.02a4.649,4.649,0,0,0,.932-.122,2.461,2.461,0,0,0,.812-.326,1.14,1.14,0,0,0,.552-.916.852.852,0,0,0-.519-.848,1.348,1.348,0,0,0-.8-.072,2.3,2.3,0,0,0-1.284.742A3.626,3.626,0,0,0,467.948,443.077Z" transform="translate(-267.333 -191.774)"/>
    <path d="M461.963,443.12c0-.2-.01-.393,0-.588a11.746,11.746,0,0,1,.148-1.335,9.933,9.933,0,0,1,.39-1.517,8.074,8.074,0,0,1,.809-1.7,7.491,7.491,0,0,1,.926-1.188,4.815,4.815,0,0,1,.65-.577.952.952,0,0,1,.13-.078.134.134,0,0,1,.174.031.141.141,0,0,1,0,.178.766.766,0,0,1-.08.091,5.654,5.654,0,0,0-.73.838,7.7,7.7,0,0,0-1.125,2.289,10.52,10.52,0,0,0-.378,1.8c-.033.26-.047.523-.07.785a12.594,12.594,0,0,0-.031,1.346c0,.279.029.558.052.837.021.248.048.5.081.742a10.168,10.168,0,0,0,.392,1.734,7.864,7.864,0,0,0,.75,1.668,6.1,6.1,0,0,0,.832,1.093q.149.153.291.311a.14.14,0,0,1,.036.158.123.123,0,0,1-.179.076,1.721,1.721,0,0,1-.246-.159,5.7,5.7,0,0,1-.857-.844,7.827,7.827,0,0,1-1.047-1.609,8.768,8.768,0,0,1-.684-2.006,10.223,10.223,0,0,1-.191-1.227c-.035-.383-.045-.768-.066-1.151Z" transform="translate(-267.333 -191.774)"/>
    <path d="M488.31,443.126c-.011.278-.014.552-.034.825a10.274,10.274,0,0,1-.453,2.406,8.827,8.827,0,0,1-.49,1.22,7.708,7.708,0,0,1-1.154,1.707,4.885,4.885,0,0,1-.8.74,1.164,1.164,0,0,1-.138.085.125.125,0,0,1-.166-.019.147.147,0,0,1-.015-.178.567.567,0,0,1,.079-.091,6.632,6.632,0,0,0,.959-1.174,7.734,7.734,0,0,0,.766-1.56,9.873,9.873,0,0,0,.5-2.1c.043-.331.066-.664.089-1,.015-.215.015-.432.022-.647,0-.078.014-.155.013-.232,0-.247-.007-.493-.021-.739a13.1,13.1,0,0,0-.256-1.992,8.842,8.842,0,0,0-.759-2.184,6.169,6.169,0,0,0-.971-1.414c-.118-.126-.24-.247-.36-.371a.214.214,0,0,1-.082-.145.13.13,0,0,1,.185-.13,1.211,1.211,0,0,1,.205.128,4.9,4.9,0,0,1,.663.609,7.561,7.561,0,0,1,.8,1.021,7.969,7.969,0,0,1,.835,1.682,10.34,10.34,0,0,1,.564,2.979C488.291,442.747,488.3,442.939,488.31,443.126Z" transform="translate(-267.333 -191.774)"/>
    <path d="M455.445,448.661v-.353c.026,0,.052-.007.077-.008.223,0,.447,0,.669-.011a2.234,2.234,0,0,0,.39-.055.26.26,0,0,0,.22-.286v-5.032c0-.01,0-.02,0-.045a3.055,3.055,0,0,1-.693.209,5.472,5.472,0,0,1-.729.057v-.362l.181,0a3.019,3.019,0,0,0,1.182-.242,1.645,1.645,0,0,0,.491-.318.288.288,0,0,1,.3-.047.091.091,0,0,1,.069.09c.006.064.015.128.015.191q0,2.719,0,5.438v.091a.237.237,0,0,0,.176.245,1.163,1.163,0,0,0,.286.058c.259.014.519.016.779.023h.113v.346a.357.357,0,0,1-.06.01C457.756,448.617,456.605,448.61,455.445,448.661Z" transform="translate(-267.333 -191.774)"/>
    <path d="M473.2,442.367a.979.979,0,0,0,.68-.015,1.465,1.465,0,0,0,.662-.576,2.364,2.364,0,0,0,.3-.778q.333-1.339.673-2.678c.072-.285.147-.569.217-.854a1.271,1.271,0,0,0,.026-.521.306.306,0,0,0-.33-.285,1.054,1.054,0,0,0-.628.249,2.355,2.355,0,0,0-.666.88c-.022.046-.042.092-.066.137a.2.2,0,0,1-.29.043.123.123,0,0,1-.024-.142c.056-.123.107-.249.173-.365a2.476,2.476,0,0,1,.67-.777,1.432,1.432,0,0,1,.73-.3,1.2,1.2,0,0,1,.761.152.88.88,0,0,1,.425.952c-.056.274-.13.544-.2.815q-.267,1.06-.536,2.119c-.074.291-.14.584-.229.87a1.886,1.886,0,0,1-.892,1.1,2.233,2.233,0,0,1-.937.305,1.441,1.441,0,0,1-.811-.117.971.971,0,0,1-.225-.168.553.553,0,0,1,.079-.771.525.525,0,0,1,.481-.121.345.345,0,0,1,.264.4A.582.582,0,0,1,473.2,442.367Z" transform="translate(-267.333 -191.774)"/>
    <path d="M450.027,435.244l1.875-1.892,1.866,1.9-.264.257-1.6-1.416-1.614,1.413Z" transform="translate(-267.333 -191.774)"/>
    <path d="M475.948,434.663a.562.562,0,0,1,.282-.384.486.486,0,0,1,.368-.07.376.376,0,0,1,.3.388.586.586,0,0,1-.634.516A.407.407,0,0,1,475.948,434.663Z" transform="translate(-267.333 -191.774)"/>
  </g>
  <g>
    <path d="M550.608,442.215c-.077.306-.151.6-.223.888q-.321,1.291-.641,2.582c-.017.069-.032.138-.045.208a.184.184,0,0,0,.131.238,1.435,1.435,0,0,0,.337.059c.195.012.392.008.588.012a.624.624,0,0,1,.129.016c.091.022.123.06.117.151-.011.179-.075.275-.264.27-.344-.008-.689-.013-1.033-.02-.311-.007-.621-.021-.932-.019-.375,0-.749.018-1.124.028-.182,0-.364.009-.547.011-.12,0-.186-.05-.2-.145-.016-.144.038-.246.149-.275a.543.543,0,0,1,.12-.017c.182,0,.365,0,.547-.011a3.33,3.33,0,0,0,.41-.052.454.454,0,0,0,.373-.345c.053-.184.1-.371.146-.557q.685-2.732,1.368-5.464.237-.942.475-1.882c.056-.224,0-.311-.228-.337-.21-.024-.423-.027-.636-.038-.091,0-.182,0-.273-.01a.151.151,0,0,1-.16-.177c.006-.17.053-.229.226-.248a1.751,1.751,0,0,1,.192-.011c1.528,0,3.057,0,4.586,0a3.511,3.511,0,0,1,1.477.295,2.1,2.1,0,0,1,1.159,1.2,1.781,1.781,0,0,1,.1.463,2.194,2.194,0,0,1-.438,1.471,3.712,3.712,0,0,1-1.126,1.035,4.585,4.585,0,0,1-1.767.642,3.851,3.851,0,0,1-.524.04c-.782,0-1.563,0-2.344,0Zm.055-.365h.122c.588,0,1.177,0,1.765,0,.162,0,.324-.007.485-.021a3.116,3.116,0,0,0,1.412-.454,1.993,1.993,0,0,0,.774-.872,4.346,4.346,0,0,0,.3-.879,2.792,2.792,0,0,0,.093-.98,1.152,1.152,0,0,0-.214-.55,1.265,1.265,0,0,0-.6-.419,2.716,2.716,0,0,0-.923-.156c-.561-.007-1.122,0-1.684,0a1.875,1.875,0,0,0-.211.017.324.324,0,0,0-.287.236c-.032.1-.061.193-.086.291q-.32,1.266-.636,2.533C550.875,441.005,550.771,441.417,550.663,441.85Z" transform="translate(-267.333 -191.774)"/>
    <path d="M583.7,435.948a6.612,6.612,0,0,1-.293,1.712,6.984,6.984,0,0,1-.47,1.151,5.422,5.422,0,0,1-.768,1.139,2.849,2.849,0,0,1-.919.718,1.4,1.4,0,0,1-.817.132,1.15,1.15,0,0,1-.808-.573,2.378,2.378,0,0,1-.308-.861,4,4,0,0,1-.054-.887,5.773,5.773,0,0,1,.14-1.03,6.807,6.807,0,0,1,.809-2.011,4.834,4.834,0,0,1,.647-.854,2.841,2.841,0,0,1,.827-.624,1.433,1.433,0,0,1,.747-.144,1.094,1.094,0,0,1,.821.5,2.2,2.2,0,0,1,.361.915C583.653,435.465,583.669,435.707,583.7,435.948Zm-1.145,1.553h-2.257a.229.229,0,0,0-.018.042,7.857,7.857,0,0,0-.267,1.489,3.254,3.254,0,0,0,.035.776,1.269,1.269,0,0,0,.167.484.472.472,0,0,0,.519.227,1.071,1.071,0,0,0,.256-.091,1.3,1.3,0,0,0,.392-.332,4.515,4.515,0,0,0,.655-1.042,8.212,8.212,0,0,0,.47-1.365C582.52,437.628,582.535,437.567,582.552,437.5Zm.094-.374a.458.458,0,0,0,.017-.056c.071-.349.147-.7.21-1.05a3.5,3.5,0,0,0,.032-1.1,1.559,1.559,0,0,0-.162-.55.488.488,0,0,0-.6-.258,1.253,1.253,0,0,0-.58.39,3.523,3.523,0,0,0-.552.82,8.03,8.03,0,0,0-.621,1.75.277.277,0,0,0,0,.05Z" transform="translate(-267.333 -191.774)"/>
    <path d="M556.942,447.831c.033,0,.065,0,.1,0,.561,0,1.123,0,1.684,0,.274,0,.546-.021.82-.03a.222.222,0,0,0,.221-.158,3.441,3.441,0,0,0,.149-.6c.009-.05.017-.1.027-.157h.341l-.293,1.77h-4.066c0-.076,0-.147,0-.216A.233.233,0,0,1,556,448.3c.28-.274.558-.55.837-.826l.55-.54c.319-.312.642-.62.956-.937a3.887,3.887,0,0,0,.738-1,2.079,2.079,0,0,0,.228-.791,1.63,1.63,0,0,0-.345-1.174,1.344,1.344,0,0,0-.928-.5,1.628,1.628,0,0,0-1.086.24,1.431,1.431,0,0,0-.552.642l.141.021a.472.472,0,0,1,.429.5.481.481,0,0,1-.3.484.532.532,0,0,1-.6-.091.471.471,0,0,1-.155-.362,1.575,1.575,0,0,1,.412-1.111,2.012,2.012,0,0,1,1.312-.674,2.758,2.758,0,0,1,1.613.268,1.847,1.847,0,0,1,.832.8,1.754,1.754,0,0,1,.191.91,1.993,1.993,0,0,1-.538,1.238,6.16,6.16,0,0,1-.891.809q-.772.6-1.506,1.243c-.122.107-.245.213-.367.318a.569.569,0,0,1-.052.033Z" transform="translate(-267.333 -191.774)"/>
    <path d="M568.853,443.419c-.043.2-.09.394-.125.589a4.2,4.2,0,0,0-.09.955,1.971,1.971,0,0,0,.3,1.056,1,1,0,0,0,.857.456,3.587,3.587,0,0,0,2.371-.871,3.824,3.824,0,0,0,.537-.564.25.25,0,0,1,.1-.077.137.137,0,0,1,.161.056c.04.052.079.109.033.174a2.928,2.928,0,0,1-.253.339,4,4,0,0,1-1.859,1.12,3.9,3.9,0,0,1-.938.14,2.349,2.349,0,0,1-.818-.1,2.006,2.006,0,0,1-1.191-1.02,2.913,2.913,0,0,1-.32-1.253,3.811,3.811,0,0,1,.187-1.383,3.594,3.594,0,0,1,.871-1.419,3.921,3.921,0,0,1,1.031-.76,3.549,3.549,0,0,1,1.43-.406,2.035,2.035,0,0,1,.848.109,1.282,1.282,0,0,1,.658.515,1.1,1.1,0,0,1,.124.867,1.585,1.585,0,0,1-.868,1.073,3.055,3.055,0,0,1-.9.279,6.779,6.779,0,0,1-1.147.107c-.307,0-.615.008-.922.012C568.915,443.413,568.892,443.416,568.853,443.419Zm.094-.33a.239.239,0,0,0,.04.007c.351-.006.7-.011,1.052-.02a4.649,4.649,0,0,0,.932-.122,2.461,2.461,0,0,0,.812-.326,1.14,1.14,0,0,0,.552-.916.852.852,0,0,0-.519-.848,1.347,1.347,0,0,0-.8-.072,2.3,2.3,0,0,0-1.283.742A3.616,3.616,0,0,0,568.947,443.089Z" transform="translate(-267.333 -191.774)"/>
    <path d="M562.962,443.124c0-.2-.011-.393,0-.588.022-.315.056-.63.092-.944a9.269,9.269,0,0,1,.795-2.76,7.688,7.688,0,0,1,.957-1.535,5.6,5.6,0,0,1,1.077-1.064.918.918,0,0,1,.138-.083.134.134,0,0,1,.166.032.141.141,0,0,1,0,.178.788.788,0,0,1-.08.092,5.8,5.8,0,0,0-.741.855,7.649,7.649,0,0,0-1.117,2.281,9.365,9.365,0,0,0-.343,1.569c-.043.334-.072.67-.1,1a11.908,11.908,0,0,0-.032,1.336c.006.282.033.564.051.847a9.445,9.445,0,0,0,.19,1.37c.073.342.161.682.258,1.019a7.47,7.47,0,0,0,.561,1.376,6.483,6.483,0,0,0,.909,1.324c.115.128.236.25.354.376a1,1,0,0,1,.086.1.139.139,0,0,1,0,.194.121.121,0,0,1-.174.013,4.259,4.259,0,0,1-.4-.293,6.732,6.732,0,0,1-1.137-1.3,7.637,7.637,0,0,1-.566-.959,8.727,8.727,0,0,1-.706-2.052,9.571,9.571,0,0,1-.2-1.379c-.023-.336-.037-.673-.056-1.009Z" transform="translate(-267.333 -191.774)"/>
    <path d="M589.31,443.1c-.013.326-.015.6-.036.872a10.3,10.3,0,0,1-.4,2.242,8.931,8.931,0,0,1-.473,1.237,7.716,7.716,0,0,1-1.132,1.745,5.189,5.189,0,0,1-.887.84,1.088,1.088,0,0,1-.138.085.127.127,0,0,1-.174-.022.151.151,0,0,1-.006-.179.678.678,0,0,1,.088-.1,6.548,6.548,0,0,0,.917-1.116,7.678,7.678,0,0,0,.8-1.612,9.689,9.689,0,0,0,.457-1.811c.049-.322.076-.649.111-.973a8.868,8.868,0,0,0,.041-.95c0-.088.013-.175.012-.262,0-.237-.007-.473-.021-.709a12.336,12.336,0,0,0-.358-2.424,8.512,8.512,0,0,0-.673-1.788,6.211,6.211,0,0,0-.96-1.385c-.113-.121-.231-.238-.345-.357a.392.392,0,0,1-.08-.1.127.127,0,0,1,.024-.15.119.119,0,0,1,.155-.028,1.41,1.41,0,0,1,.2.122,5.078,5.078,0,0,1,.67.616,7.718,7.718,0,0,1,.806,1.039,8.035,8.035,0,0,1,.819,1.657,9.235,9.235,0,0,1,.433,1.692c.051.316.083.635.11.953S589.3,442.844,589.31,443.1Z" transform="translate(-267.333 -191.774)"/>
    <path d="M574.2,442.379a.979.979,0,0,0,.68-.014,1.459,1.459,0,0,0,.662-.576,2.361,2.361,0,0,0,.305-.777q.333-1.341.673-2.679c.072-.284.147-.568.217-.854a1.267,1.267,0,0,0,.024-.531.3.3,0,0,0-.327-.276,1.06,1.06,0,0,0-.629.249,2.157,2.157,0,0,0-.563.682c-.059.106-.109.217-.164.325a.2.2,0,0,1-.286.06.12.12,0,0,1-.033-.148,2.712,2.712,0,0,1,.114-.259,2.562,2.562,0,0,1,.728-.883,1.386,1.386,0,0,1,1.163-.279.961.961,0,0,1,.632.421.917.917,0,0,1,.1.758q-.382,1.522-.77,3.041c-.056.222-.106.446-.175.664a1.894,1.894,0,0,1-.893,1.1,2.224,2.224,0,0,1-.936.305,1.433,1.433,0,0,1-.811-.117.94.94,0,0,1-.225-.167.551.551,0,0,1,.085-.777.5.5,0,0,1,.557-.083.34.34,0,0,1,.183.361A.58.58,0,0,1,574.2,442.379Z" transform="translate(-267.333 -191.774)"/>
    <path d="M551.279,435.526l-.268-.254,1.891-1.907,1.869,1.9-.265.255-1.605-1.416Z" transform="translate(-267.333 -191.774)"/>
    <path d="M577.9,434.591a.591.591,0,0,1-.465.53.423.423,0,0,1-.295-.038.385.385,0,0,1-.165-.49.586.586,0,0,1,.476-.378A.381.381,0,0,1,577.9,434.591Z" transform="translate(-267.333 -191.774)"/>
  </g>
  <g>
    <path d="M651.31,442.658c-.066.261-.128.508-.19.755q-.2.8-.4,1.6-.156.63-.31,1.26c-.006.023-.009.046-.013.07-.027.157.012.231.166.274a1.322,1.322,0,0,0,.3.048c.2.009.395.006.593.012a.613.613,0,0,1,.16.024.135.135,0,0,1,.074.063.253.253,0,0,1-.2.351c-.129.007-.259,0-.389,0-.105,0-.21-.015-.315-.018-.263-.006-.525-.008-.787-.012-.123,0-.245-.01-.368-.008-.436.008-.871.019-1.307.028-.184,0-.368.01-.552.011-.122,0-.188-.049-.2-.144-.018-.148.04-.253.159-.28a.743.743,0,0,1,.141-.016c.228-.008.456-.01.684-.023a1.513,1.513,0,0,0,.291-.049.453.453,0,0,0,.337-.338c.054-.186.1-.374.148-.562q.69-2.754,1.379-5.509.239-.949.478-1.9c.057-.226,0-.313-.227-.341-.2-.023-.393-.028-.59-.038-.112-.006-.225,0-.337-.012a.148.148,0,0,1-.153-.175c0-.172.054-.233.226-.251a1.745,1.745,0,0,1,.2-.012c1.538,0,3.076,0,4.614,0a3.541,3.541,0,0,1,1.49.3,2.115,2.115,0,0,1,1.169,1.205,1.805,1.805,0,0,1,.1.477,2.215,2.215,0,0,1-.441,1.474,3.735,3.735,0,0,1-1.135,1.043,4.591,4.591,0,0,1-1.792.649,3.9,3.9,0,0,1-.529.04c-.784,0-1.568,0-2.353,0Zm.055-.368h.123c.594,0,1.187,0,1.78,0,.163,0,.327-.007.489-.021a3.156,3.156,0,0,0,1.424-.458,2.009,2.009,0,0,0,.78-.88,4.387,4.387,0,0,0,.3-.885,2.822,2.822,0,0,0,.094-.989,1.179,1.179,0,0,0-.216-.554,1.264,1.264,0,0,0-.6-.422,2.715,2.715,0,0,0-.931-.158c-.566-.007-1.132,0-1.7,0a1.914,1.914,0,0,0-.213.019.324.324,0,0,0-.289.237c-.032.1-.062.195-.087.294q-.321,1.276-.641,2.554Z" transform="translate(-267.333 -191.774)"/>
    <path d="M684.674,436.342a6.728,6.728,0,0,1-.3,1.726,7.068,7.068,0,0,1-.469,1.151,5.482,5.482,0,0,1-.774,1.15,2.9,2.9,0,0,1-.906.717,1.436,1.436,0,0,1-.822.148,1.06,1.06,0,0,1-.583-.27,1.8,1.8,0,0,1-.5-.893,3.484,3.484,0,0,1-.109-.674,5.26,5.26,0,0,1,.133-1.547,6.73,6.73,0,0,1,.811-2.019,4.954,4.954,0,0,1,.658-.869,2.8,2.8,0,0,1,.834-.628,1.383,1.383,0,0,1,.864-.128,1.1,1.1,0,0,1,.716.485,2.219,2.219,0,0,1,.363.923C684.63,435.854,684.647,436.1,684.674,436.342Zm-3.429,1.561a.342.342,0,0,0-.019.044,7.875,7.875,0,0,0-.269,1.5,3.3,3.3,0,0,0,.034.782,1.313,1.313,0,0,0,.169.489.475.475,0,0,0,.523.229,1.032,1.032,0,0,0,.258-.092,1.314,1.314,0,0,0,.4-.334,4.556,4.556,0,0,0,.66-1.051,8.285,8.285,0,0,0,.474-1.376c.017-.062.031-.124.049-.192Zm2.367-.377a.3.3,0,0,0,.018-.049c.075-.363.158-.724.22-1.088a3.534,3.534,0,0,0,.028-1.067,1.619,1.619,0,0,0-.163-.564.492.492,0,0,0-.608-.264,1.27,1.27,0,0,0-.584.395,3.644,3.644,0,0,0-.565.846,7.759,7.759,0,0,0-.558,1.52c-.023.087-.043.176-.066.271Z" transform="translate(-267.333 -191.774)"/>
    <path d="M669.709,443.872c-.037.162-.079.317-.1.473-.043.262-.09.523-.11.787a2.356,2.356,0,0,0,.164,1.11,1.142,1.142,0,0,0,.484.575,1.024,1.024,0,0,0,.475.137,2.946,2.946,0,0,0,.7-.055,3.7,3.7,0,0,0,1.715-.811,3.53,3.53,0,0,0,.491-.5l.078-.1a.152.152,0,0,1,.216-.041.165.165,0,0,1,.06.228,2.183,2.183,0,0,1-.23.31,4.084,4.084,0,0,1-2.559,1.27,2.579,2.579,0,0,1-1.216-.126,2.045,2.045,0,0,1-1.086-.987,2.949,2.949,0,0,1-.323-1.264,3.859,3.859,0,0,1,.191-1.4,3.656,3.656,0,0,1,.875-1.422,4.034,4.034,0,0,1,1.058-.776,3.585,3.585,0,0,1,1.414-.4,2.068,2.068,0,0,1,.865.109,1.309,1.309,0,0,1,.618.451,1.1,1.1,0,0,1,.172.941,1.6,1.6,0,0,1-.875,1.084,3.067,3.067,0,0,1-.892.279,6.923,6.923,0,0,1-1.167.11c-.31,0-.619.007-.929.012C669.77,443.866,669.747,443.869,669.709,443.872Zm.091-.33c.031,0,.051.005.071.005.347-.007.694-.012,1.041-.021a4.551,4.551,0,0,0,.929-.123,2.485,2.485,0,0,0,.82-.328,1.154,1.154,0,0,0,.558-.933.863.863,0,0,0-.524-.846,1.359,1.359,0,0,0-.809-.073,2.31,2.31,0,0,0-1.295.748A3.662,3.662,0,0,0,669.8,443.542Z" transform="translate(-267.333 -191.774)"/>
    <path d="M657.423,443.422c.063.017.113.028.16.044a.491.491,0,0,1,.329.547.479.479,0,0,1-.42.434.522.522,0,0,1-.484-.155.455.455,0,0,1-.116-.266,1.034,1.034,0,0,1,.251-.8,1.677,1.677,0,0,1,.794-.5,2.805,2.805,0,0,1,.9-.134,2.663,2.663,0,0,1,1.249.293,1.68,1.68,0,0,1,.5.4,1.084,1.084,0,0,1,.233.929,1.753,1.753,0,0,1-.782,1.162,2.291,2.291,0,0,1-.486.259c-.028.011-.054.025-.091.042.142.047.277.085.407.136a2.053,2.053,0,0,1,1.069.875,1.489,1.489,0,0,1,.207.686,1.638,1.638,0,0,1-.406,1.164,2.291,2.291,0,0,1-1.26.75,2.705,2.705,0,0,1-.688.077,2.983,2.983,0,0,1-1.424-.344,1.546,1.546,0,0,1-.68-.682,1.143,1.143,0,0,1-.111-.586.55.55,0,0,1,.8-.452.532.532,0,0,1,.306.56.508.508,0,0,1-.4.469c-.046.011-.093.019-.157.031.035.043.063.084.1.119a1.653,1.653,0,0,0,.655.4,2.7,2.7,0,0,0,.881.156,1.207,1.207,0,0,0,1.239-.926,2.344,2.344,0,0,0,0-1.328,1.216,1.216,0,0,0-.6-.769,1.236,1.236,0,0,0-.577-.147c-.208,0-.416,0-.624,0a.728.728,0,0,1-.132-.012.115.115,0,0,1-.1-.13.119.119,0,0,1,.109-.135c.108-.014.217-.02.325-.029.132-.012.265-.019.4-.037a1.121,1.121,0,0,0,.854-.629,1.891,1.891,0,0,0,.23-1.052.943.943,0,0,0-.388-.753,1.027,1.027,0,0,0-.461-.181,2.166,2.166,0,0,0-1.1.157,1.389,1.389,0,0,0-.406.252C657.484,443.349,657.459,443.383,657.423,443.422Z" transform="translate(-267.333 -191.774)"/>
    <path d="M663.767,443.577c0-.195-.011-.39,0-.583.022-.318.056-.635.091-.952a8.392,8.392,0,0,1,.192-1.043,9.21,9.21,0,0,1,.539-1.592,7.761,7.761,0,0,1,.656-1.188,7.446,7.446,0,0,1,.8-1,4.866,4.866,0,0,1,.662-.589.95.95,0,0,1,.14-.085.133.133,0,0,1,.167.031.139.139,0,0,1,0,.179.587.587,0,0,1-.08.092,6.415,6.415,0,0,0-1.07,1.347,8.288,8.288,0,0,0-.988,2.5,12.223,12.223,0,0,0-.287,2.364c0,.3-.021.606-.011.909a14.291,14.291,0,0,0,.112,1.431,11.164,11.164,0,0,0,.37,1.754,7.834,7.834,0,0,0,.948,2.061,5.92,5.92,0,0,0,.685.862c.1.105.2.212.3.322a.188.188,0,0,1,.049.118.128.128,0,0,1-.194.117,3.059,3.059,0,0,1-.351-.245,6.722,6.722,0,0,1-1.217-1.369,7.568,7.568,0,0,1-.57-.967,8.862,8.862,0,0,1-.714-2.069,12.33,12.33,0,0,1-.2-1.237c-.017-.148-.022-.3-.029-.447-.011-.241-.02-.483-.029-.724Z" transform="translate(-267.333 -191.774)"/>
    <path d="M690.334,443.544c-.013.33-.016.606-.036.881a10.405,10.405,0,0,1-.411,2.281,8.995,8.995,0,0,1-.476,1.237,7.82,7.82,0,0,1-1.136,1.75,5.218,5.218,0,0,1-.9.854,1.1,1.1,0,0,1-.139.085.127.127,0,0,1-.167-.024.15.15,0,0,1-.015-.172.68.68,0,0,1,.094-.107,6.727,6.727,0,0,0,.953-1.169,7.675,7.675,0,0,0,.773-1.572,9.662,9.662,0,0,0,.494-2.058c.033-.253.056-.506.082-.759.034-.326.034-.652.044-.978s0-.64-.013-.959a12.623,12.623,0,0,0-.192-1.688,10.242,10.242,0,0,0-.436-1.624,7.453,7.453,0,0,0-.837-1.654,6.066,6.066,0,0,0-.793-.944,1.979,1.979,0,0,1-.153-.164.138.138,0,0,1-.008-.178.126.126,0,0,1,.182-.03,3.816,3.816,0,0,1,.387.281,7.069,7.069,0,0,1,1.331,1.579,7.933,7.933,0,0,1,.71,1.411,9.41,9.41,0,0,1,.453,1.6,9.859,9.859,0,0,1,.159,1.16C690.305,442.919,690.319,443.259,690.334,443.544Z" transform="translate(-267.333 -191.774)"/>
    <path d="M675.1,442.825a1,1,0,0,0,.688-.017,1.481,1.481,0,0,0,.661-.574,2.533,2.533,0,0,0,.327-.852q.329-1.317.661-2.632c.072-.287.147-.573.218-.861a1.284,1.284,0,0,0,.025-.545.305.305,0,0,0-.323-.275,1.065,1.065,0,0,0-.643.253,2.414,2.414,0,0,0-.667.879c-.022.045-.042.093-.065.138a.2.2,0,0,1-.29.054.122.122,0,0,1-.029-.15c.056-.124.107-.25.175-.368a2.516,2.516,0,0,1,.676-.783,1.4,1.4,0,0,1,1.163-.279.971.971,0,0,1,.64.42.922.922,0,0,1,.111.764q-.363,1.45-.732,2.9c-.072.283-.138.568-.225.847a1.9,1.9,0,0,1-.9,1.1,2.247,2.247,0,0,1-.934.3,1.464,1.464,0,0,1-.828-.118.8.8,0,0,1-.214-.153.56.56,0,0,1,.088-.806.53.53,0,0,1,.449-.112.35.35,0,0,1,.284.415.558.558,0,0,1-.257.409Z" transform="translate(-267.333 -191.774)"/>
    <path d="M651.98,435.919l-.256-.258c.031-.037.062-.076.1-.112q.858-.862,1.715-1.726a1.081,1.081,0,0,0,.078-.1l1.9,1.931-.274.253-1.615-1.427Z" transform="translate(-267.333 -191.774)"/>
    <path d="M678.827,434.978a.589.589,0,0,1-.577.537.369.369,0,0,1-.346-.213.384.384,0,0,1-.011-.326.586.586,0,0,1,.487-.385A.384.384,0,0,1,678.827,434.978Z" transform="translate(-267.333 -191.774)"/>
  </g>
  <rect class="cls-1" x="178.568" y="292.059" width="594.388" height="27.5"/>
  <text class="cls-3" transform="translate(463.5 315.226) scale(1.238 1)">+</text>
  <g>
    <line class="cls-1" x1="198.916" y1="266.681" x2="198.916" y2="286.299"/>
    <polygon points="195.177 285.205 198.916 291.681 202.656 285.205 195.177 285.205"/>
  </g>
  <g>
    <line class="cls-1" x1="300.416" y1="267.059" x2="300.416" y2="286.677"/>
    <polygon points="296.677 285.583 300.416 292.059 304.156 285.583 296.677 285.583"/>
  </g>
  <g>
    <line class="cls-1" x1="401.916" y1="267.059" x2="401.916" y2="286.677"/>
    <polygon points="398.177 285.583 401.916 292.059 405.656 285.583 398.177 285.583"/>
  </g>
  <g>
    <line class="cls-1" x1="751.417" y1="267.059" x2="751.417" y2="286.677"/>
    <polygon points="747.677 285.583 751.416 292.059 755.156 285.583 747.677 285.583"/>
  </g>
  <g>
    <line class="cls-1" x1="822.958" y1="272.269" x2="822.958" y2="291.888"/>
    <polygon points="819.218 290.793 822.957 297.269 826.697 290.793 819.218 290.793"/>
  </g>
  <g>
    <line class="cls-1" x1="772.956" y1="305.809" x2="808.804" y2="305.809"/>
    <polygon points="807.71 309.548 814.186 305.809 807.71 302.07 807.71 309.548"/>
  </g>
  <circle class="cls-1" cx="822.958" cy="305.809" r="8.772"/>
  <line class="cls-1" x1="818.572" y1="301.428" x2="827.344" y2="310.199"/>
  <line class="cls-1" x1="827.344" y1="301.428" x2="818.572" y2="310.199"/>
  <g>
    <path d="M1086.291,450.546h9.242v.49h-9.242Z" transform="translate(-267.333 -191.774)"/>
    <path d="M1089.242,457.3l.152-.116.329-.251.44-.338.331-.253c.161-.123.321-.248.481-.372.106-.081.213-.159.319-.24s.236-.184.355-.275l.413-.314c.138-.1.275-.212.412-.317.12-.092.241-.182.36-.274s.263-.208.393-.314a.818.818,0,0,0,.232-.274.194.194,0,0,0,0-.183.192.192,0,0,0-.141-.09c-.059-.013-.119-.018-.177-.03a.108.108,0,0,1-.087-.144.317.317,0,0,1,.035-.105.14.14,0,0,1,.133-.059c.132,0,.265,0,.4.007s.245.01.368.013c.179,0,.359.009.538.007.142,0,.283-.014.425-.021.033,0,.066-.007.1-.006a.11.11,0,0,1,.122.117.292.292,0,0,1-.025.119.13.13,0,0,1-.107.072c-.059.01-.12.012-.179.023-.091.016-.182.034-.271.057a2.2,2.2,0,0,0-.468.195,5.3,5.3,0,0,0-.606.38c-.149.107-.294.22-.44.331l-.252.194-.339.26-.256.195-.333.257c-.123.095-.248.188-.371.283-.061.046-.122.093-.181.142a.048.048,0,0,0-.005.043c.048.114.1.229.146.343l.183.423c.043.1.088.2.131.3.067.155.133.311.2.465.053.123.109.245.162.368s.117.274.176.41c.051.118.1.234.155.352.068.158.133.318.205.475a2.915,2.915,0,0,0,.214.443.471.471,0,0,0,.346.21c.1.011.2.013.3.023.047,0,.1.008.119.064.03.1-.006.249-.152.245-.063,0-.127,0-.191,0l-.451-.014-.214-.007c-.086,0-.172-.007-.258-.007s-.2,0-.3.007l-.2.007-.616.014a.1.1,0,0,1-.117-.117.355.355,0,0,1,.011-.1.131.131,0,0,1,.142-.093,1.311,1.311,0,0,0,.307-.03.377.377,0,0,0,.231-.139.244.244,0,0,0,.023-.243c-.078-.19-.16-.378-.242-.566-.1-.234-.2-.467-.3-.7l-.228-.53c-.1-.234-.2-.467-.3-.7-.059-.135-.117-.271-.177-.411l-.166.127-.273.212-.31.242-.238.183-.309.242c-.056.043-.112.086-.167.131a.077.077,0,0,0-.026.038c-.087.348-.173.7-.261,1.044-.042.165-.09.33-.131.5-.034.136-.063.274-.09.412a.122.122,0,0,0,.082.135.59.59,0,0,0,.169.042c.179.009.358.009.537.017.05,0,.105,0,.132.063a.178.178,0,0,1-.153.246c-.081,0-.163,0-.244,0l-.534-.014-.211-.007c-.113,0-.227-.007-.341-.007-.136,0-.272,0-.409.007l-.239.007-.251.007c-.131,0-.263.008-.395.007-.1,0-.131-.065-.124-.151a.37.37,0,0,1,.009-.048.13.13,0,0,1,.124-.1c.046,0,.093-.006.139-.007.118,0,.237,0,.355-.009a1.533,1.533,0,0,0,.278-.044.286.286,0,0,0,.218-.2c.05-.175.1-.352.143-.528.073-.282.143-.564.214-.846q.114-.451.226-.9c.075-.3.151-.6.226-.907l.228-.911.219-.869q.089-.348.175-.7a.209.209,0,0,0,.008-.055c0-.093-.022-.132-.111-.154a.99.99,0,0,0-.171-.023c-.161-.007-.322-.01-.484-.016a.279.279,0,0,1-.07-.008c-.062-.015-.1-.031-.1-.126s.035-.157.107-.168a1.833,1.833,0,0,1,.235-.009l.075,0,.438.008.25.006c.235,0,.47.006.7.007.088,0,.176,0,.265-.006l.229-.008.3-.007c.05,0,.1-.006.149-.006a.263.263,0,0,1,.074.009.117.117,0,0,1,.08.149.426.426,0,0,1-.01.049c-.022.073-.062.093-.14.1s-.171.008-.257.008a2.121,2.121,0,0,0-.45.037.324.324,0,0,0-.265.227c-.046.164-.088.329-.13.493-.079.313-.157.625-.235.938s-.155.621-.233.931l-.219.873Z" transform="translate(-267.333 -191.774)"/>
    <path d="M1089.288,446.581v-.31l.031,0h.255c.127,0,.254,0,.38-.009a2.366,2.366,0,0,0,.346-.051.263.263,0,0,0,.221-.215.358.358,0,0,0,.01-.08q0-2.618,0-5.234v-.025a2.987,2.987,0,0,1-1.3.256V440.6h.064c.114,0,.229,0,.343-.015a2.607,2.607,0,0,0,.753-.181,1.8,1.8,0,0,0,.489-.293c.049-.042.1-.086.144-.128a.054.054,0,0,1,.03-.015.959.959,0,0,1,.131.007.092.092,0,0,1,.088.1c0,.119.007.237.007.355q0,2.743,0,5.486a.287.287,0,0,0,.066.207.276.276,0,0,0,.112.076,1.546,1.546,0,0,0,.254.052,2.067,2.067,0,0,0,.249.015c.181,0,.361.006.542.008h.02v.31l-.246-.014-.036,0-.672-.007-1.28-.007c-.161,0-.323,0-.484.007-.087,0-.174,0-.261.008S1089.376,446.576,1089.288,446.581Z" transform="translate(-267.333 -191.774)"/>
  </g>
  <g>
    <path d="M999.6,441.657c-.01.031-.019.054-.025.078q-.27,1.085-.54,2.167-.147.588-.289,1.175c-.049.2,0,.284.2.32a3.18,3.18,0,0,0,.39.039c.125.006.25,0,.376,0h.048c.142,0,.2.047.2.15,0,.159-.066.257-.2.263-.118.006-.237,0-.355,0-.1,0-.2-.015-.307-.018-.269-.005-.538-.007-.807-.011-.109,0-.218-.01-.326-.008-.394.007-.788.018-1.181.027-.173,0-.346.009-.519.01-.115,0-.181-.051-.188-.147s.024-.228.144-.25a.745.745,0,0,1,.114-.016c.173,0,.346,0,.519-.011a3.417,3.417,0,0,0,.389-.049.425.425,0,0,0,.349-.319c.062-.215.116-.432.171-.649q.6-2.408,1.207-4.816.257-1.029.514-2.056a.35.35,0,0,0,.013-.056.175.175,0,0,0-.147-.228.852.852,0,0,0-.179-.032c-.208-.01-.416-.014-.624-.021a1.487,1.487,0,0,1-.163-.011.137.137,0,0,1-.134-.156c0-.174.076-.24.216-.245.06,0,.121-.01.182-.01,1.449,0,2.9,0,4.348,0a3.331,3.331,0,0,1,1.41.283,2.023,2.023,0,0,1,1,.918,1.778,1.778,0,0,1,.105,1.379,2.529,2.529,0,0,1-.56.952,4.1,4.1,0,0,1-1.815,1.143,4.156,4.156,0,0,1-.882.184,2.92,2.92,0,0,1-.3.017c-.747,0-1.5,0-2.242,0Zm.048-.346h.129c.538,0,1.076,0,1.615,0,.2,0,.39-.012.584-.029a2.809,2.809,0,0,0,1.261-.422,1.814,1.814,0,0,0,.643-.659,3.554,3.554,0,0,0,.28-.661,3.479,3.479,0,0,0,.192-1.139,1.055,1.055,0,0,0-.606-.972,2.35,2.35,0,0,0-1.042-.223c-.535-.009-1.07,0-1.606,0a1.486,1.486,0,0,0-.2.018.3.3,0,0,0-.265.218c-.032.1-.065.2-.091.3q-.384,1.525-.766,3.051C999.732,440.959,999.691,441.126,999.646,441.311Z" transform="translate(-267.333 -191.774)"/>
    <path d="M1009.343,443.921c.127.248.248.484.37.72l.389.751q.45.87.9,1.74a.523.523,0,0,0,.4.286c.072.012.146.014.219.02.013,0,.026,0,.039,0,.121,0,.17.044.171.145,0,.123-.057.194-.175.192-.214,0-.428-.021-.642-.025s-.423,0-.635,0c-.1,0-.2.012-.3.015-.18.006-.359.01-.538.012-.117,0-.174-.047-.176-.143a.172.172,0,0,1,.176-.195c.067,0,.135,0,.2-.01a.577.577,0,0,0,.149-.034.207.207,0,0,0,.116-.305c-.1-.18-.189-.364-.284-.545-.106-.2-.214-.409-.32-.613q-.364-.7-.729-1.408c-.016-.031-.035-.06-.058-.1-.048.032-.093.06-.136.09-.445.313-.89.627-1.337.938a.214.214,0,0,0-.092.137c-.122.49-.248.979-.372,1.469-.017.069-.032.138-.043.207-.014.087.007.123.094.135.136.018.274.027.411.036.07,0,.141,0,.211,0,.114.01.154.051.152.145a.172.172,0,0,1-.171.191,1.961,1.961,0,0,1-.23,0c-.432-.039-.864-.031-1.3-.028-.217,0-.434.02-.651.028-.112,0-.225,0-.337,0a.119.119,0,0,1-.123-.13c-.006-.139.052-.2.191-.206l.518-.019.038,0a.323.323,0,0,0,.334-.3l.762-3.024q.254-1.01.509-2.019a1,1,0,0,0,.027-.132c.009-.1-.014-.13-.109-.145s-.172-.021-.258-.026c-.118-.006-.237-.007-.355-.012-.092,0-.137-.039-.143-.109-.01-.111.034-.2.116-.217a.374.374,0,0,1,.1-.008c.166.006.332.018.5.02.31,0,.62.006.93.007.093,0,.186,0,.279-.008.237-.006.474-.009.71-.021.131-.007.218.084.164.236a.147.147,0,0,1-.148.1c-.122,0-.243,0-.365.012-.1.006-.191.015-.286.029a.291.291,0,0,0-.25.222c-.036.13-.07.26-.1.39l-.567,2.252c-.031.123-.064.246-.1.389.037-.02.059-.028.078-.041l1.9-1.33,1.974-1.384a1.119,1.119,0,0,0,.277-.25.453.453,0,0,0,.06-.118.094.094,0,0,0-.061-.13.65.65,0,0,0-.139-.03c-.148-.022-.2-.107-.147-.244a.14.14,0,0,1,.111-.1.42.42,0,0,1,.086-.006c.326.012.652.028.978.036.151,0,.3-.008.451-.014.1,0,.205-.012.307-.014.085,0,.134.032.145.1.014.085,0,.181-.09.21a.529.529,0,0,1-.112.022,2.567,2.567,0,0,0-1.025.36c-.381.219-.74.471-1.1.721q-.726.505-1.449,1.013C1009.4,443.876,1009.374,443.9,1009.343,443.921Z" transform="translate(-267.333 -191.774)"/>
    <path d="M1035.46,435.716a6.332,6.332,0,0,1-.279,1.624,6.532,6.532,0,0,1-.45,1.1,5.144,5.144,0,0,1-.724,1.071,2.7,2.7,0,0,1-.872.68,1.276,1.276,0,0,1-.9.1,1.112,1.112,0,0,1-.644-.516,2.337,2.337,0,0,1-.308-.921,3.87,3.87,0,0,1-.035-.737,5.56,5.56,0,0,1,.134-.977,6.417,6.417,0,0,1,.763-1.9,4.6,4.6,0,0,1,.618-.818,2.64,2.64,0,0,1,.785-.591,1.3,1.3,0,0,1,.812-.121,1.04,1.04,0,0,1,.674.455,2.1,2.1,0,0,1,.342.868C1035.418,435.258,1035.434,435.488,1035.46,435.716Zm-3.225,1.469a.417.417,0,0,0-.019.044,7.533,7.533,0,0,0-.252,1.412,3.129,3.129,0,0,0,.033.736,1.206,1.206,0,0,0,.155.45.45.45,0,0,0,.336.229.646.646,0,0,0,.4-.088,1.35,1.35,0,0,0,.379-.322,4.277,4.277,0,0,0,.62-.988,8.409,8.409,0,0,0,.474-1.4.727.727,0,0,0,.01-.077Zm2.226-.354a.18.18,0,0,0,.015-.037c.071-.345.15-.687.209-1.033a3.339,3.339,0,0,0,.026-1,1.523,1.523,0,0,0-.154-.531.465.465,0,0,0-.572-.247,1.187,1.187,0,0,0-.542.365,3.366,3.366,0,0,0-.521.768,7.27,7.27,0,0,0-.541,1.464c-.022.082-.041.166-.062.254Z" transform="translate(-267.333 -191.774)"/>
    <path d="M1021.387,442.8c-.034.151-.075.3-.1.45-.04.242-.082.485-.1.73a2.209,2.209,0,0,0,.152,1.044,1.071,1.071,0,0,0,.453.542.993.993,0,0,0,.476.132,3.252,3.252,0,0,0,1.292-.244,3.42,3.42,0,0,0,1.42-1.049c.026-.032.05-.066.078-.1a.144.144,0,0,1,.191-.028.155.155,0,0,1,.066.205,2.189,2.189,0,0,1-.234.314,3.792,3.792,0,0,1-1.761,1.064,3.587,3.587,0,0,1-.9.134,2.442,2.442,0,0,1-.627-.056,1.888,1.888,0,0,1-1.215-.9,2.531,2.531,0,0,1-.338-1,3.336,3.336,0,0,1-.032-.468,3.511,3.511,0,0,1,.821-2.271,3.737,3.737,0,0,1,1.1-.891,3.542,3.542,0,0,1,1.118-.389,2.175,2.175,0,0,1,1.109.068,1.216,1.216,0,0,1,.61.461,1.032,1.032,0,0,1,.137.845,1.5,1.5,0,0,1-.819,1.021,2.885,2.885,0,0,1-.839.263,6.408,6.408,0,0,1-1.1.1c-.292,0-.583.007-.874.011C1021.446,442.793,1021.421,442.8,1021.387,442.8Zm.087-.314a.306.306,0,0,0,.038.006c.333-.006.665-.01,1-.019a4.317,4.317,0,0,0,.883-.115,2.368,2.368,0,0,0,.771-.309,1.082,1.082,0,0,0,.522-.869.807.807,0,0,0-.492-.8,1.279,1.279,0,0,0-.761-.068,2.178,2.178,0,0,0-1.217.7A3.442,3.442,0,0,0,1021.474,442.486Z" transform="translate(-267.333 -191.774)"/>
    <path d="M1018.74,435.894a.131.131,0,0,1,.132.2.77.77,0,0,1-.086.1,5.982,5.982,0,0,0-.955,1.184,7.512,7.512,0,0,0-.805,1.78,10.039,10.039,0,0,0-.359,1.705c-.031.247-.044.5-.066.745a11.884,11.884,0,0,0-.03,1.266c.006.268.032.536.049.8a8.882,8.882,0,0,0,.18,1.3c.068.321.15.641.242.957a7.034,7.034,0,0,0,.535,1.314,6.115,6.115,0,0,0,.861,1.255c.11.121.225.237.336.356a.838.838,0,0,1,.086.1.126.126,0,0,1-.009.175.117.117,0,0,1-.157.017,1.908,1.908,0,0,1-.387-.282,6.551,6.551,0,0,1-1.077-1.232,7.284,7.284,0,0,1-.528-.892,8.361,8.361,0,0,1-.679-1.963,10.59,10.59,0,0,1-.183-1.173,8.82,8.82,0,0,1-.047-1.015c0-.209,0-.418.009-.625.02-.3.051-.6.086-.9a8.757,8.757,0,0,1,.752-2.617,7.242,7.242,0,0,1,.9-1.449,5.33,5.33,0,0,1,1.033-1.024,1.208,1.208,0,0,1,.114-.071A.252.252,0,0,1,1018.74,435.894Z" transform="translate(-267.333 -191.774)"/>
    <path d="M1040.626,442.533c-.01.265-.012.524-.032.783a9.753,9.753,0,0,1-.43,2.282,8.3,8.3,0,0,1-.482,1.19,7.3,7.3,0,0,1-1.077,1.584,4.642,4.642,0,0,1-.76.7,1.176,1.176,0,0,1-.131.08.119.119,0,0,1-.157-.02.141.141,0,0,1-.013-.169.665.665,0,0,1,.083-.093,6.186,6.186,0,0,0,.9-1.1,7.154,7.154,0,0,0,.731-1.487,9.237,9.237,0,0,0,.482-2.068c.033-.288.056-.578.076-.868.014-.2.014-.409.021-.614,0-.073.013-.147.012-.22,0-.233-.006-.467-.02-.7a13.366,13.366,0,0,0-.166-1.493,9.01,9.01,0,0,0-.65-2.163,6.154,6.154,0,0,0-.935-1.493c-.143-.167-.3-.321-.454-.482a.781.781,0,0,1-.075-.087.13.13,0,0,1,.008-.16.113.113,0,0,1,.155-.028,2.114,2.114,0,0,1,.263.176,6.089,6.089,0,0,1,1.122,1.217,7.605,7.605,0,0,1,1.075,2.155,9.973,9.973,0,0,1,.435,2.534C1040.608,442.175,1040.618,442.357,1040.626,442.533Z" transform="translate(-267.333 -191.774)"/>
    <path d="M1026.457,441.815a.939.939,0,0,0,.643-.016,1.4,1.4,0,0,0,.627-.547,2.252,2.252,0,0,0,.288-.737c.21-.847.425-1.694.638-2.54.068-.27.14-.539.206-.81a1.169,1.169,0,0,0,.02-.513.283.283,0,0,0-.3-.25.993.993,0,0,0-.605.236,2.236,2.236,0,0,0-.631.835c-.02.043-.04.087-.063.129a.19.19,0,0,1-.275.04.115.115,0,0,1-.021-.134,3.663,3.663,0,0,1,.164-.347,2.35,2.35,0,0,1,.635-.736,1.356,1.356,0,0,1,.692-.285,1.136,1.136,0,0,1,.689.125.859.859,0,0,1,.418,1.016c-.275,1.092-.553,2.183-.827,3.274a2.2,2.2,0,0,1-.267.664,1.932,1.932,0,0,1-.908.742,2,2,0,0,1-1.1.146,1.019,1.019,0,0,1-.409-.157.513.513,0,0,1-.106-.745.5.5,0,0,1,.524-.2.326.326,0,0,1,.26.387.519.519,0,0,1-.248.39Z" transform="translate(-267.333 -191.774)"/>
    <path d="M1001.934,433.269l1.77,1.8-.245.248-1.529-1.35-1.542,1.35-.234-.251c.02-.023.048-.06.081-.093l1.626-1.636C1001.883,433.316,1001.907,433.3,1001.934,433.269Z" transform="translate(-267.333 -191.774)"/>
    <path d="M1029.059,434.515a.528.528,0,0,1,.266-.369.453.453,0,0,1,.348-.068.361.361,0,0,1,.279.442.572.572,0,0,1-.494.42A.371.371,0,0,1,1029.059,434.515Z" transform="translate(-267.333 -191.774)"/>
  </g>
  <g>
    <line class="cls-1" x1="831.729" y1="305.809" x2="850.618" y2="305.809"/>
    <polygon points="849.524 309.548 856 305.809 849.524 302.07 849.524 309.548"/>
  </g>
  <g>
    <path d="M1167.219,499.139a.765.765,0,0,0-.015.094c0,.169,0,.338-.011.506-.019.256-.044.513-.079.767a9.566,9.566,0,0,1-.311,1.43,8.705,8.705,0,0,1-.47,1.23,7.546,7.546,0,0,1-1.045,1.633,5.255,5.255,0,0,1-.933.9,1.245,1.245,0,0,1-.135.082.124.124,0,0,1-.163-.02.141.141,0,0,1-.017-.166.562.562,0,0,1,.09-.105,6.471,6.471,0,0,0,.926-1.135,7.471,7.471,0,0,0,.752-1.527,9.4,9.4,0,0,0,.48-2c.032-.245.054-.492.08-.738.032-.319.032-.639.043-.959s0-.622-.014-.931a12.075,12.075,0,0,0-.188-1.64,9.741,9.741,0,0,0-.421-1.567,7.3,7.3,0,0,0-.813-1.606,5.985,5.985,0,0,0-.77-.918,1.868,1.868,0,0,1-.149-.159.131.131,0,0,1-.007-.172.121.121,0,0,1,.176-.03,3.763,3.763,0,0,1,.376.274,6.831,6.831,0,0,1,1.292,1.533,7.758,7.758,0,0,1,.726,1.463,9.165,9.165,0,0,1,.4,1.459,9.733,9.733,0,0,1,.154,1.126c.016.234.018.469.027.7,0,.032.01.064.015.1Z" transform="translate(-267.333 -191.774)"/>
    <path d="M1133.637,498.038c-.037.147-.071.284-.106.421l-.474,1.9q-.144.577-.286,1.155a1.055,1.055,0,0,0-.027.136.179.179,0,0,0,.136.222,1.335,1.335,0,0,0,.32.057c.195.011.39.007.585.012a.6.6,0,0,1,.146.022.108.108,0,0,1,.088.117.713.713,0,0,1-.017.137.182.182,0,0,1-.186.149c-.138,0-.277,0-.416-.006-.089,0-.178-.009-.268-.011-.241,0-.482-.008-.724-.012-.109,0-.218-.01-.327-.008-.446.008-.892.019-1.339.028-.178,0-.357.009-.535.011-.121,0-.187-.051-.2-.148a.224.224,0,0,1,.164-.266.771.771,0,0,1,.128-.014c.221-.007.442-.01.663-.022a1.52,1.52,0,0,0,.283-.047.435.435,0,0,0,.328-.326c.062-.219.119-.439.175-.66l1.317-5.263q.229-.918.46-1.834c0-.019.01-.038.013-.058.021-.138-.02-.207-.156-.24a1.247,1.247,0,0,0-.244-.034c-.2-.01-.41-.013-.615-.021a.933.933,0,0,1-.157-.018.127.127,0,0,1-.114-.14.518.518,0,0,1,.013-.117.166.166,0,0,1,.155-.143,1.479,1.479,0,0,1,.187-.018c1.523,0,3.046,0,4.57,0a3.39,3.39,0,0,1,1.426.289,2.1,2.1,0,0,1,1.038.955,1.837,1.837,0,0,1,.108,1.415,2.6,2.6,0,0,1-.577.984,4.222,4.222,0,0,1-1.873,1.182,4.307,4.307,0,0,1-.919.193c-.1.009-.2.017-.3.017h-2.446Zm.055-.358h.134c.55,0,1.1,0,1.648,0,.208,0,.416-.013.623-.031a2.89,2.89,0,0,0,1.3-.437,1.864,1.864,0,0,0,.663-.68,3.674,3.674,0,0,0,.289-.684,3.581,3.581,0,0,0,.2-1.165,1.09,1.09,0,0,0-.627-1.013,2.416,2.416,0,0,0-1.076-.23c-.553-.01-1.105,0-1.658,0a1.592,1.592,0,0,0-.217.02.308.308,0,0,0-.26.216c-.035.106-.069.214-.1.322q-.406,1.614-.811,3.228C1133.767,497.369,1133.732,497.516,1133.692,497.68Z" transform="translate(-267.333 -191.774)"/>
    <path d="M1161.732,491.9a6.47,6.47,0,0,1-.287,1.676,6.793,6.793,0,0,1-.433,1.074,5.347,5.347,0,0,1-.774,1.16,2.78,2.78,0,0,1-.907.71,1.366,1.366,0,0,1-.79.129,1.124,1.124,0,0,1-.8-.564,2.451,2.451,0,0,1-.318-.951,3.885,3.885,0,0,1-.035-.762,6.072,6.072,0,0,1,.148-1.046,6.629,6.629,0,0,1,.789-1.938,4.764,4.764,0,0,1,.628-.828,2.765,2.765,0,0,1,.81-.61,1.391,1.391,0,0,1,.722-.141,1.072,1.072,0,0,1,.807.48,2.141,2.141,0,0,1,.358.9C1161.69,491.431,1161.706,491.668,1161.732,491.9Zm-3.335,1.515-.049.184a7.394,7.394,0,0,0-.224,1.3,3.2,3.2,0,0,0,.037.8,1.215,1.215,0,0,0,.157.445.473.473,0,0,0,.36.236.684.684,0,0,0,.4-.1,1.432,1.432,0,0,0,.384-.326,4.4,4.4,0,0,0,.642-1.02,8.611,8.611,0,0,0,.489-1.441.713.713,0,0,0,.012-.086Zm2.305-.365a.545.545,0,0,0,.021-.065c.069-.339.143-.677.2-1.018a3.424,3.424,0,0,0,.03-1.074,1.534,1.534,0,0,0-.159-.538.479.479,0,0,0-.585-.25,1.245,1.245,0,0,0-.568.383,3.564,3.564,0,0,0-.545.812,7.621,7.621,0,0,0-.546,1.485c-.023.085-.042.171-.065.265Z" transform="translate(-267.333 -191.774)"/>
    <path d="M1147.2,499.217c-.042.2-.087.386-.122.577a4.192,4.192,0,0,0-.088.935,1.934,1.934,0,0,0,.3,1.033.976.976,0,0,0,.839.447,3.511,3.511,0,0,0,2.321-.854,3.657,3.657,0,0,0,.526-.551.251.251,0,0,1,.1-.076.135.135,0,0,1,.157.055c.04.051.077.108.032.171a2.9,2.9,0,0,1-.248.332,3.919,3.919,0,0,1-1.82,1.1,3.846,3.846,0,0,1-.919.137,2.33,2.33,0,0,1-.8-.1,1.969,1.969,0,0,1-1.166-1,2.868,2.868,0,0,1-.313-1.227,3.763,3.763,0,0,1,.183-1.354,3.548,3.548,0,0,1,.854-1.39,3.917,3.917,0,0,1,1.009-.744,3.506,3.506,0,0,1,1.4-.4,2,2,0,0,1,.83.108,1.251,1.251,0,0,1,.644.5,1.075,1.075,0,0,1,.121.848,1.552,1.552,0,0,1-.85,1.051,3,3,0,0,1-.876.273,6.722,6.722,0,0,1-1.123.105c-.3,0-.6.007-.9.011Zm.092-.323c.022,0,.032.006.042.006.343-.006.687-.011,1.03-.019a4.523,4.523,0,0,0,.912-.12,2.417,2.417,0,0,0,.8-.32,1.139,1.139,0,0,0,.512-.7.858.858,0,0,0-.623-1.075,1.477,1.477,0,0,0-.868.037,2.287,2.287,0,0,0-1.08.724A3.631,3.631,0,0,0,1147.29,498.894Z" transform="translate(-267.333 -191.774)"/>
    <path d="M1144.474,492.085a.137.137,0,0,1,.127.209.769.769,0,0,1-.083.1,6.539,6.539,0,0,0-1.291,1.757,8.344,8.344,0,0,0-.707,1.973,10.811,10.811,0,0,0-.223,1.386c-.028.3-.055.605-.058.909,0,.278-.017.555-.011.833s.032.579.05.869a9.626,9.626,0,0,0,.121,1,9.9,9.9,0,0,0,.311,1.329,7.957,7.957,0,0,0,.541,1.33,6.3,6.3,0,0,0,.909,1.331c.108.12.222.235.333.354a1.145,1.145,0,0,1,.1.112.132.132,0,0,1,0,.181.116.116,0,0,1-.169.018,4.08,4.08,0,0,1-.391-.286,6.592,6.592,0,0,1-1.12-1.279,7.478,7.478,0,0,1-.562-.958,8.6,8.6,0,0,1-.68-1.982,12.054,12.054,0,0,1-.191-1.211c-.015-.14-.023-.282-.027-.424-.009-.314-.019-.628-.019-.942a9.281,9.281,0,0,1,.076-1.1,9.544,9.544,0,0,1,.361-1.723,8.507,8.507,0,0,1,.434-1.127,7.478,7.478,0,0,1,.928-1.5,5.479,5.479,0,0,1,1.066-1.058,1,1,0,0,1,.117-.074A.324.324,0,0,1,1144.474,492.085Z" transform="translate(-267.333 -191.774)"/>
    <path d="M1152.44,498.2a.955.955,0,0,0,.659-.017,1.432,1.432,0,0,0,.648-.564,2.324,2.324,0,0,0,.3-.761c.217-.875.439-1.749.659-2.623.07-.279.144-.557.212-.836a1.253,1.253,0,0,0,.026-.51.3.3,0,0,0-.323-.279,1.03,1.03,0,0,0-.616.244,2.306,2.306,0,0,0-.652.861c-.021.045-.041.09-.064.134a.2.2,0,0,1-.284.042.12.12,0,0,1-.023-.139c.054-.12.1-.243.169-.357a2.435,2.435,0,0,1,.656-.761,1.39,1.39,0,0,1,.715-.294,1.175,1.175,0,0,1,.753.154.86.86,0,0,1,.408.926c-.055.268-.128.533-.195.8q-.261,1.036-.525,2.074c-.072.285-.137.572-.224.852a1.845,1.845,0,0,1-.874,1.073,2.167,2.167,0,0,1-.917.3,1.409,1.409,0,0,1-.794-.114.948.948,0,0,1-.22-.164.541.541,0,0,1,.077-.755.513.513,0,0,1,.471-.119.334.334,0,0,1,.258.4A.578.578,0,0,1,1152.44,498.2Z" transform="translate(-267.333 -191.774)"/>
    <path d="M1135.875,489.364l1.831,1.865-.253.257-1.571-1.387-1.583,1.385-.249-.254c.02-.023.05-.061.084-.1l1.65-1.661C1135.814,489.442,1135.839,489.407,1135.875,489.364Z" transform="translate(-267.333 -191.774)"/>
    <path d="M1155.123,490.663a.545.545,0,0,1,.276-.382.471.471,0,0,1,.359-.07.373.373,0,0,1,.287.457.591.591,0,0,1-.511.433A.382.382,0,0,1,1155.123,490.663Z" transform="translate(-267.333 -191.774)"/>
  </g>
  <text class="cls-4" transform="translate(0 242.059)">Bartlett</text>
  <text class="cls-4" transform="translate(0 115.892)"><tspan class="cls-5">W</tspan><tspan x="30.232" y="0">elch</tspan></text>
  <path class="cls-2" d="M517,353c-5.078-14.186-12.63-19.47-18.967-21.545-7.528-2.465-13.2-.357-19.993-3.658-7.925-3.853-10.712-11.83-11.79-18.293-1.078,6.463-3.865,14.44-11.79,18.293-6.793,3.3-12.465,1.193-19.993,3.658C428.13,333.53,420.578,338.814,415.5,353" transform="translate(-267.333 -191.774)"/>
  <path class="cls-2" d="M588.173,353c-5.078-14.186-12.631-19.47-18.968-21.545-7.527-2.465-13.2-.357-19.992-3.658-7.925-3.853-10.712-11.83-11.79-18.293-1.078,6.463-3.865,14.44-11.791,18.293-6.793,3.3-12.464,1.193-19.992,3.658-6.337,2.075-13.889,7.359-18.967,21.545" transform="translate(-267.333 -191.774)"/>
  <line class="cls-1" x1="219.339" y1="168.726" x2="219.339" y2="176.726"/>
  <line class="cls-1" x1="320.839" y1="168.726" x2="320.839" y2="176.726"/>
  <g>
    <path d="M448.166,257.92c-.044.175-.086.341-.127.508q-.229.916-.459,1.834-.155.624-.308,1.249c0,.016-.007.033-.01.049-.031.177.026.27.2.3a3.292,3.292,0,0,0,.432.043c.138.007.277,0,.416,0a.605.605,0,0,1,.12.014.141.141,0,0,1,.125.175c-.015.177-.09.25-.267.248-.341,0-.682-.013-1.023-.02-.308-.007-.615-.021-.922-.019-.381,0-.763.018-1.144.028-.183,0-.365.009-.547.011-.119,0-.185-.052-.195-.147-.015-.145.039-.245.151-.273a.543.543,0,0,1,.12-.017c.182,0,.365,0,.547-.011a3.886,3.886,0,0,0,.4-.05.458.458,0,0,0,.381-.349c.053-.185.1-.371.146-.558l1.368-5.464c.157-.627.317-1.254.475-1.882.055-.22,0-.306-.221-.333-.2-.024-.4-.028-.6-.039-.091,0-.183,0-.274-.007-.205-.012-.214-.1-.188-.273a.167.167,0,0,1,.148-.146,1.369,1.369,0,0,1,.2-.02c1.556,0,3.112,0,4.668,0a3.455,3.455,0,0,1,1.457.295,2.1,2.1,0,0,1,1.157,1.2,1.741,1.741,0,0,1,.1.463,2.238,2.238,0,0,1-.493,1.545,3.854,3.854,0,0,1-1.239,1.057,4.507,4.507,0,0,1-1.593.542,3.806,3.806,0,0,1-.534.042c-.781,0-1.562,0-2.344,0Zm.054-.365h.121c.589,0,1.177,0,1.765,0,.162,0,.324-.007.485-.021a3.112,3.112,0,0,0,1.421-.458,1.994,1.994,0,0,0,.767-.867,4.349,4.349,0,0,0,.3-.888,2.764,2.764,0,0,0,.092-.971,1.165,1.165,0,0,0-.22-.558,1.259,1.259,0,0,0-.589-.411,2.718,2.718,0,0,0-.923-.158c-.541-.007-1.082,0-1.623,0-.081,0-.162,0-.242.012a.341.341,0,0,0-.325.259c-.041.143-.083.285-.119.429q-.219.87-.435,1.739C448.541,256.284,448.383,256.908,448.22,257.555Z" transform="translate(-267.333 -191.774)"/>
    <path d="M481.256,251.654a6.612,6.612,0,0,1-.293,1.712,6.971,6.971,0,0,1-.475,1.161,5.4,5.4,0,0,1-.764,1.129,2.825,2.825,0,0,1-.92.717,1.34,1.34,0,0,1-.945.1,1.168,1.168,0,0,1-.679-.544,2.477,2.477,0,0,1-.325-.971,4.05,4.05,0,0,1-.036-.778,5.856,5.856,0,0,1,.141-1.029,6.824,6.824,0,0,1,.8-2,4.932,4.932,0,0,1,.653-.863,2.82,2.82,0,0,1,.827-.623,1.376,1.376,0,0,1,.857-.127,1.1,1.1,0,0,1,.71.48,2.2,2.2,0,0,1,.361.916C481.212,251.171,481.229,251.414,481.256,251.654Zm-1.145,1.551h-2.256a.353.353,0,0,0-.019.042,7.855,7.855,0,0,0-.266,1.489,3.252,3.252,0,0,0,.034.776,1.309,1.309,0,0,0,.167.485.472.472,0,0,0,.519.227,1.056,1.056,0,0,0,.256-.091,1.3,1.3,0,0,0,.392-.332,4.481,4.481,0,0,0,.655-1.042,8.212,8.212,0,0,0,.47-1.365C480.08,253.333,480.094,253.272,480.111,253.205Zm.092-.375a.208.208,0,0,0,.016-.04c.075-.363.158-.724.22-1.089a3.534,3.534,0,0,0,.028-1.057,1.612,1.612,0,0,0-.162-.56.49.49,0,0,0-.6-.261,1.253,1.253,0,0,0-.572.385,3.536,3.536,0,0,0-.549.81,7.717,7.717,0,0,0-.571,1.544c-.023.087-.043.174-.065.268Z" transform="translate(-267.333 -191.774)"/>
    <path d="M466.414,259.124c-.036.161-.078.314-.1.469-.043.259-.089.519-.109.78a2.349,2.349,0,0,0,.162,1.1,1.132,1.132,0,0,0,.48.57,1.038,1.038,0,0,0,.472.136,2.948,2.948,0,0,0,.695-.055,3.665,3.665,0,0,0,1.7-.8,3.534,3.534,0,0,0,.487-.5l.077-.094a.152.152,0,0,1,.214-.041.164.164,0,0,1,.06.227,2.22,2.22,0,0,1-.228.307,3.923,3.923,0,0,1-1.083.823,3.964,3.964,0,0,1-1.455.437,2.576,2.576,0,0,1-1.206-.124,2.033,2.033,0,0,1-1.077-.98,2.928,2.928,0,0,1-.321-1.253,3.823,3.823,0,0,1,.19-1.393,3.622,3.622,0,0,1,.868-1.41,4,4,0,0,1,1.058-.774,3.554,3.554,0,0,1,1.393-.392,2.052,2.052,0,0,1,.858.109,1.3,1.3,0,0,1,.613.446,1.092,1.092,0,0,1,.17.934,1.589,1.589,0,0,1-.867,1.075,3.049,3.049,0,0,1-.885.277,6.9,6.9,0,0,1-1.157.109c-.307,0-.614.007-.922.012C466.475,259.118,466.452,259.121,466.414,259.124Zm.092-.33a.239.239,0,0,0,.04.007c.351-.006.7-.011,1.052-.02a4.649,4.649,0,0,0,.932-.122,2.475,2.475,0,0,0,.813-.326,1.139,1.139,0,0,0,.551-.916.852.852,0,0,0-.519-.848,1.347,1.347,0,0,0-.8-.072,2.3,2.3,0,0,0-1.284.742A3.626,3.626,0,0,0,466.506,258.794Z" transform="translate(-267.333 -191.774)"/>
    <path d="M460.521,258.837c0-.2-.009-.393,0-.588a11.746,11.746,0,0,1,.148-1.335,9.933,9.933,0,0,1,.39-1.517,8.074,8.074,0,0,1,.809-1.7,7.491,7.491,0,0,1,.926-1.188,4.877,4.877,0,0,1,.65-.577,1.065,1.065,0,0,1,.13-.078.135.135,0,0,1,.174.031.141.141,0,0,1,0,.178.628.628,0,0,1-.08.091,5.654,5.654,0,0,0-.73.838,7.7,7.7,0,0,0-1.125,2.289,10.616,10.616,0,0,0-.378,1.8c-.033.26-.047.523-.07.785a12.594,12.594,0,0,0-.031,1.346c.006.279.029.558.052.837.021.248.048.5.082.742a10.165,10.165,0,0,0,.391,1.734,7.864,7.864,0,0,0,.75,1.668,6.061,6.061,0,0,0,.833,1.093q.147.153.29.311a.14.14,0,0,1,.036.158.123.123,0,0,1-.179.076,1.779,1.779,0,0,1-.246-.159,5.7,5.7,0,0,1-.857-.844,7.822,7.822,0,0,1-1.046-1.609,8.77,8.77,0,0,1-.685-2.006,10.223,10.223,0,0,1-.191-1.227c-.034-.383-.045-.768-.065-1.151Z" transform="translate(-267.333 -191.774)"/>
    <path d="M486.868,258.843c-.011.279-.013.552-.034.825a10.214,10.214,0,0,1-.453,2.406,8.827,8.827,0,0,1-.49,1.22A7.738,7.738,0,0,1,484.738,265a4.984,4.984,0,0,1-.8.741,1.209,1.209,0,0,1-.138.084.125.125,0,0,1-.166-.019.147.147,0,0,1-.015-.178.567.567,0,0,1,.079-.091,6.632,6.632,0,0,0,.959-1.174,7.734,7.734,0,0,0,.766-1.56,9.812,9.812,0,0,0,.5-2.1c.043-.33.066-.664.089-1,.015-.215.015-.432.022-.647,0-.078.014-.155.013-.232,0-.247-.006-.493-.021-.739a13.1,13.1,0,0,0-.256-1.992,8.856,8.856,0,0,0-.759-2.184,6.19,6.19,0,0,0-.971-1.414c-.117-.126-.24-.247-.36-.371a.214.214,0,0,1-.082-.145.13.13,0,0,1,.185-.13,1.278,1.278,0,0,1,.205.128,4.9,4.9,0,0,1,.663.609,7.624,7.624,0,0,1,.8,1.021,7.968,7.968,0,0,1,.835,1.682,10.34,10.34,0,0,1,.564,2.979C486.849,258.464,486.86,258.656,486.868,258.843Z" transform="translate(-267.333 -191.774)"/>
    <path d="M454,264.378v-.353c.026,0,.052-.007.078-.008.223,0,.446,0,.668-.011a2.22,2.22,0,0,0,.39-.055.26.26,0,0,0,.22-.286q0-2.516,0-5.032c0-.01,0-.02,0-.045a3.005,3.005,0,0,1-.693.209,5.459,5.459,0,0,1-.729.057v-.362l.181,0a3.019,3.019,0,0,0,1.182-.242,1.649,1.649,0,0,0,.491-.317.286.286,0,0,1,.3-.048.091.091,0,0,1,.069.09c.006.064.015.128.015.191q0,2.72,0,5.438v.091a.237.237,0,0,0,.176.245,1.163,1.163,0,0,0,.286.058c.259.014.519.016.779.023h.113v.346a.278.278,0,0,1-.06.01C456.314,264.334,455.164,264.327,454,264.378Z" transform="translate(-267.333 -191.774)"/>
    <path d="M471.758,258.085a.987.987,0,0,0,.681-.016,1.462,1.462,0,0,0,.661-.576,2.346,2.346,0,0,0,.3-.777c.222-.894.449-1.786.674-2.679.071-.285.147-.569.216-.854a1.271,1.271,0,0,0,.026-.521.306.306,0,0,0-.33-.285,1.061,1.061,0,0,0-.628.249,2.355,2.355,0,0,0-.666.88c-.022.046-.042.092-.066.137a.2.2,0,0,1-.29.043.123.123,0,0,1-.024-.142c.056-.123.107-.249.173-.365a2.489,2.489,0,0,1,.67-.777,1.432,1.432,0,0,1,.73-.3,1.2,1.2,0,0,1,.761.152.88.88,0,0,1,.425.952c-.056.274-.13.544-.2.816q-.267,1.059-.536,2.118c-.074.291-.14.584-.228.87a1.9,1.9,0,0,1-.893,1.1,2.246,2.246,0,0,1-.937.3,1.441,1.441,0,0,1-.811-.117.971.971,0,0,1-.225-.168.552.552,0,0,1,.079-.77.523.523,0,0,1,.481-.122.346.346,0,0,1,.264.4A.586.586,0,0,1,471.758,258.085Z" transform="translate(-267.333 -191.774)"/>
    <path d="M448.585,250.961l1.875-1.892,1.866,1.9-.264.257-1.6-1.416-1.614,1.413Z" transform="translate(-267.333 -191.774)"/>
    <path d="M474.506,250.38a.558.558,0,0,1,.283-.383.478.478,0,0,1,.367-.071.376.376,0,0,1,.3.388.586.586,0,0,1-.634.516A.406.406,0,0,1,474.506,250.38Z" transform="translate(-267.333 -191.774)"/>
  </g>
  <rect class="cls-1" x="182.054" y="98.531" width="33.726" height="15.829"/>
  <path class="cls-6" d="M478.589,302.264c-6.774-.066-7.5-3.385-8.262-4.58s-1.783-3.671-4.077-3.671-3.313,2.477-4.077,3.671-1.488,4.514-8.262,4.58" transform="translate(-267.333 -191.774)"/>
  <rect class="cls-1" x="178.416" y="4.417" width="594.388" height="27.5"/>
  <text class="cls-3" transform="matrix(1.238, 0, 0, -1, 463.349, 8.75)">+</text>
  <g>
    <line class="cls-1" x1="198.765" y1="55.961" x2="198.765" y2="37.677"/>
    <polygon points="202.505 38.771 198.766 32.295 195.026 38.771 202.505 38.771"/>
  </g>
  <g>
    <line class="cls-1" x1="751.265" y1="56.917" x2="751.265" y2="37.299"/>
    <polygon points="755.005 38.393 751.266 31.917 747.526 38.393 755.005 38.393"/>
  </g>
  <g>
    <line class="cls-1" x1="822.806" y1="51.706" x2="822.806" y2="32.088"/>
    <polygon points="826.546 33.182 822.807 26.706 819.067 33.182 826.546 33.182"/>
  </g>
  <g>
    <line class="cls-1" x1="772.805" y1="18.167" x2="808.653" y2="18.167"/>
    <polygon points="807.559 21.906 814.035 18.167 807.559 14.427 807.559 21.906"/>
  </g>
  <circle class="cls-1" cx="822.806" cy="18.167" r="8.772"/>
  <line class="cls-1" x1="818.421" y1="22.548" x2="827.192" y2="13.776"/>
  <line class="cls-1" x1="827.192" y1="22.548" x2="818.421" y2="13.776"/>
  <g>
    <line class="cls-1" x1="831.578" y1="18.167" x2="850.467" y2="18.167"/>
    <polygon points="849.372 21.906 855.848 18.167 849.372 14.427 849.372 21.906"/>
  </g>
  <g>
    <line class="cls-1" x1="198.842" y1="98.531" x2="198.842" y2="82.151"/>
    <polygon points="202.581 83.246 198.842 76.77 195.102 83.246 202.581 83.246"/>
  </g>
  <rect class="cls-1" x="253.813" y="98.278" width="33.726" height="15.829"/>
  <path class="cls-6" d="M550.348,302.011c-6.774-.067-7.5-3.385-8.262-4.58s-1.784-3.671-4.077-3.671-3.313,2.476-4.077,3.671-1.488,4.513-8.262,4.58" transform="translate(-267.333 -191.774)"/>
  <g>
    <line class="cls-1" x1="270.524" y1="55.708" x2="270.524" y2="37.423"/>
    <polygon points="274.263 38.517 270.524 32.041 266.785 38.517 274.263 38.517"/>
  </g>
  <g>
    <line class="cls-1" x1="270.601" y1="98.278" x2="270.601" y2="81.898"/>
    <polygon points="274.34 82.992 270.601 76.516 266.861 82.992 274.34 82.992"/>
  </g>
  <path class="cls-2" d="M660.976,353c-5.078-14.186-12.63-19.47-18.967-21.545-7.528-2.465-13.2-.357-19.993-3.658-7.925-3.853-10.712-11.83-11.79-18.293-1.078,6.463-3.865,14.44-11.79,18.293-6.793,3.3-12.465,1.193-19.993,3.658-6.337,2.075-13.889,7.359-18.967,21.545" transform="translate(-267.333 -191.774)"/>
  <line class="cls-1" x1="393.198" y1="168.726" x2="393.198" y2="176.726"/>
  <line class="cls-1" x1="291.698" y1="168.726" x2="291.698" y2="176.726"/>
  <rect class="cls-1" x="326.289" y="99.035" width="33.726" height="16.01"/>
  <path class="cls-6" d="M622.824,302.9c-6.774-.067-7.5-3.424-8.261-4.632s-1.784-3.713-4.078-3.713-3.313,2.5-4.077,3.713-1.488,4.565-8.262,4.632" transform="translate(-267.333 -191.774)"/>
  <g>
    <line class="cls-1" x1="343" y1="55.978" x2="343" y2="37.423"/>
    <polygon points="346.74 38.517 343.001 32.041 339.261 38.517 346.74 38.517"/>
  </g>
  <g>
    <line class="cls-1" x1="343.077" y1="99.035" x2="343.077" y2="82.407"/>
    <polygon points="346.816 83.501 343.077 77.025 339.338 83.501 346.816 83.501"/>
  </g>
  <path class="cls-2" d="M1069.349,353.813c-5.078-14.187-12.631-19.47-18.967-21.545-7.528-2.465-13.2-.357-19.993-3.659-7.925-3.852-10.712-11.829-11.79-18.292-1.078,6.463-3.865,14.44-11.791,18.292-6.793,3.3-12.464,1.194-19.992,3.659-6.337,2.075-13.889,7.358-18.967,21.545" transform="translate(-267.333 -191.774)"/>
  <rect class="cls-1" x="734.662" y="99.848" width="33.726" height="16.01"/>
  <path class="cls-6" d="M1031.2,303.718c-6.774-.067-7.5-3.424-8.262-4.632s-1.783-3.713-4.077-3.713-3.313,2.5-4.077,3.713-1.488,4.565-8.262,4.632" transform="translate(-267.333 -191.774)"/>
  <g>
    <line class="cls-1" x1="751.373" y1="56.791" x2="751.373" y2="38.236"/>
    <polygon points="755.113 39.33 751.374 32.854 747.634 39.33 755.113 39.33"/>
  </g>
  <g>
    <line class="cls-1" x1="751.45" y1="99.848" x2="751.45" y2="83.219"/>
    <polygon points="755.189 84.314 751.45 77.838 747.71 84.314 755.189 84.314"/>
  </g>
  <line class="cls-1" x1="700.515" y1="168.726" x2="700.515" y2="176.726"/>
  <circle cx="584.714" cy="203.371" r="3.121"/>
  <circle cx="526.037" cy="203.371" r="3.121"/>
  <circle cx="643.39" cy="203.371" r="3.121"/>
  <circle cx="466.621" cy="150.08" r="3.121"/>
  <g>
    <path d="M520.36,258.015c-.077.306-.151.6-.223.887q-.321,1.291-.641,2.583c-.017.068-.032.138-.045.207a.185.185,0,0,0,.131.239,1.488,1.488,0,0,0,.337.059c.2.011.392.007.588.012a.562.562,0,0,1,.129.016c.091.022.123.059.117.15-.011.18-.075.275-.264.271-.344-.008-.689-.014-1.033-.021-.311-.006-.621-.02-.932-.018-.375,0-.749.018-1.124.027-.182,0-.364.009-.547.011-.12,0-.186-.05-.2-.145-.016-.143.038-.246.149-.274a.543.543,0,0,1,.12-.017c.182,0,.365,0,.547-.012a3.576,3.576,0,0,0,.411-.051.454.454,0,0,0,.372-.345c.053-.185.1-.371.146-.558q.685-2.732,1.369-5.464.236-.941.474-1.882c.056-.224,0-.311-.228-.337-.21-.024-.423-.027-.636-.038-.091,0-.182,0-.273-.01s-.164-.054-.16-.176c.006-.171.053-.23.226-.248a1.751,1.751,0,0,1,.192-.012c1.528,0,3.057,0,4.586,0a3.5,3.5,0,0,1,1.477.294,2.1,2.1,0,0,1,1.159,1.2,1.79,1.79,0,0,1,.1.463,2.2,2.2,0,0,1-.438,1.472,3.709,3.709,0,0,1-1.126,1.034,4.553,4.553,0,0,1-1.767.642,3.853,3.853,0,0,1-.524.041c-.782,0-1.563,0-2.344,0Zm.055-.366h.122c.588,0,1.177,0,1.765,0,.162,0,.324-.006.485-.02a3.128,3.128,0,0,0,1.412-.454,2,2,0,0,0,.774-.873,4.337,4.337,0,0,0,.3-.878,2.8,2.8,0,0,0,.093-.981,1.148,1.148,0,0,0-.214-.549,1.251,1.251,0,0,0-.6-.419,2.693,2.693,0,0,0-.923-.157c-.561-.007-1.122,0-1.684,0a1.669,1.669,0,0,0-.211.018.324.324,0,0,0-.287.235c-.032.1-.061.194-.086.292q-.319,1.266-.636,2.532C520.627,256.805,520.524,257.216,520.415,257.649Z" transform="translate(-267.333 -191.774)"/>
    <path d="M553.449,251.747a6.612,6.612,0,0,1-.293,1.712,7.031,7.031,0,0,1-.47,1.152,5.415,5.415,0,0,1-.768,1.138,2.835,2.835,0,0,1-.919.718,1.4,1.4,0,0,1-.817.132,1.149,1.149,0,0,1-.808-.572,2.383,2.383,0,0,1-.308-.862,4,4,0,0,1-.054-.887,5.773,5.773,0,0,1,.14-1.03,6.79,6.79,0,0,1,.809-2.01,4.883,4.883,0,0,1,.647-.854,2.806,2.806,0,0,1,.827-.624,1.424,1.424,0,0,1,.747-.145,1.1,1.1,0,0,1,.821.5,2.2,2.2,0,0,1,.361.916C553.405,251.264,553.421,251.507,553.449,251.747ZM552.3,253.3h-2.257a.4.4,0,0,0-.018.042,7.857,7.857,0,0,0-.267,1.489,3.252,3.252,0,0,0,.035.776,1.274,1.274,0,0,0,.167.485.472.472,0,0,0,.519.226,1.015,1.015,0,0,0,.256-.091,1.3,1.3,0,0,0,.392-.331,4.5,4.5,0,0,0,.655-1.043,8.212,8.212,0,0,0,.47-1.365C552.272,253.428,552.287,253.366,552.3,253.3Zm.094-.374a.452.452,0,0,0,.017-.055c.071-.35.147-.7.21-1.05a3.511,3.511,0,0,0,.032-1.1,1.554,1.554,0,0,0-.162-.549.489.489,0,0,0-.6-.259,1.261,1.261,0,0,0-.58.39,3.523,3.523,0,0,0-.552.82,8.049,8.049,0,0,0-.621,1.75.277.277,0,0,0,0,.05Z" transform="translate(-267.333 -191.774)"/>
    <path d="M526.694,263.631c.033,0,.065.005.1.005.562,0,1.123,0,1.684,0,.274,0,.547-.02.82-.03a.222.222,0,0,0,.221-.158,3.4,3.4,0,0,0,.149-.6c.009-.049.017-.1.027-.157h.341l-.293,1.77h-4.066c0-.076,0-.146,0-.216a.231.231,0,0,1,.077-.148c.28-.274.558-.551.837-.826.183-.181.367-.36.55-.54.319-.312.642-.621.956-.938a3.9,3.9,0,0,0,.738-1,2.078,2.078,0,0,0,.228-.792,1.627,1.627,0,0,0-.345-1.173,1.34,1.34,0,0,0-.928-.5,1.63,1.63,0,0,0-1.086.24,1.425,1.425,0,0,0-.552.642l.141.02a.473.473,0,0,1,.429.5.483.483,0,0,1-.3.485.534.534,0,0,1-.6-.091.475.475,0,0,1-.155-.363,1.572,1.572,0,0,1,.412-1.11,2.009,2.009,0,0,1,1.312-.675,2.75,2.75,0,0,1,1.613.269,1.842,1.842,0,0,1,.832.8,1.752,1.752,0,0,1,.191.91,1.991,1.991,0,0,1-.538,1.237,6.166,6.166,0,0,1-.891.81q-.773.6-1.506,1.243c-.122.107-.244.212-.367.318a.558.558,0,0,1-.052.032Z" transform="translate(-267.333 -191.774)"/>
    <path d="M538.605,259.219c-.043.2-.09.394-.125.589a4.2,4.2,0,0,0-.09.955,1.97,1.97,0,0,0,.3,1.055,1,1,0,0,0,.857.457,3.588,3.588,0,0,0,2.371-.872,3.817,3.817,0,0,0,.537-.563.244.244,0,0,1,.1-.078.137.137,0,0,1,.161.057c.04.051.079.109.033.174a3.016,3.016,0,0,1-.253.339,4,4,0,0,1-1.859,1.119,3.955,3.955,0,0,1-.938.141,2.4,2.4,0,0,1-.818-.1,2.009,2.009,0,0,1-1.191-1.02,2.921,2.921,0,0,1-.32-1.254,3.814,3.814,0,0,1,.187-1.383,3.612,3.612,0,0,1,.871-1.419,3.966,3.966,0,0,1,1.031-.76,3.547,3.547,0,0,1,1.43-.405,2.035,2.035,0,0,1,.848.109,1.275,1.275,0,0,1,.658.514,1.1,1.1,0,0,1,.124.867,1.589,1.589,0,0,1-.868,1.074,3.053,3.053,0,0,1-.895.278,6.885,6.885,0,0,1-1.147.108c-.307,0-.615.007-.922.011C538.667,259.212,538.644,259.216,538.605,259.219Zm.094-.331a.166.166,0,0,0,.04.007c.351-.006.7-.011,1.052-.02a4.577,4.577,0,0,0,.932-.121,2.461,2.461,0,0,0,.812-.326,1.143,1.143,0,0,0,.552-.916.853.853,0,0,0-.519-.849,1.339,1.339,0,0,0-.8-.071,2.284,2.284,0,0,0-1.283.742A3.607,3.607,0,0,0,538.7,258.888Z" transform="translate(-267.333 -191.774)"/>
    <path d="M532.714,258.923c0-.2-.011-.392,0-.587.022-.316.056-.631.092-.945a9.25,9.25,0,0,1,.8-2.759,7.7,7.7,0,0,1,.957-1.536,5.59,5.59,0,0,1,1.077-1.063.978.978,0,0,1,.138-.084.133.133,0,0,1,.166.033.141.141,0,0,1,0,.178.777.777,0,0,1-.08.091,5.8,5.8,0,0,0-.741.855,7.66,7.66,0,0,0-1.117,2.281,9.387,9.387,0,0,0-.343,1.569c-.043.334-.072.67-.1,1a11.919,11.919,0,0,0-.032,1.336c.006.283.033.565.051.847a9.426,9.426,0,0,0,.19,1.37c.073.343.161.683.258,1.019a7.413,7.413,0,0,0,.561,1.376,6.428,6.428,0,0,0,.909,1.324c.115.128.237.25.354.376a.907.907,0,0,1,.086.1.138.138,0,0,1,0,.193.12.12,0,0,1-.174.013,4.259,4.259,0,0,1-.4-.293,6.7,6.7,0,0,1-1.137-1.3,7.637,7.637,0,0,1-.566-.959,8.7,8.7,0,0,1-.706-2.052,9.578,9.578,0,0,1-.2-1.378c-.023-.336-.037-.673-.055-1.01Z" transform="translate(-267.333 -191.774)"/>
    <path d="M559.062,258.9c-.013.326-.015.6-.036.872a10.3,10.3,0,0,1-.4,2.243,9.03,9.03,0,0,1-.473,1.237,7.732,7.732,0,0,1-1.132,1.744,5.156,5.156,0,0,1-.887.841,1.379,1.379,0,0,1-.138.085.129.129,0,0,1-.174-.022.153.153,0,0,1-.006-.18.671.671,0,0,1,.088-.1,6.555,6.555,0,0,0,.917-1.117,7.7,7.7,0,0,0,.8-1.611,9.68,9.68,0,0,0,.457-1.812c.049-.322.076-.648.111-.973a8.857,8.857,0,0,0,.041-.95c0-.087.013-.175.012-.262,0-.236-.007-.473-.021-.708a12.335,12.335,0,0,0-.358-2.425,8.5,8.5,0,0,0-.673-1.787,6.246,6.246,0,0,0-.959-1.386c-.114-.121-.232-.237-.346-.357a.376.376,0,0,1-.08-.1.127.127,0,0,1,.024-.15.12.12,0,0,1,.155-.028,1.416,1.416,0,0,1,.2.123,5.01,5.01,0,0,1,.67.616,7.718,7.718,0,0,1,.806,1.039,8.027,8.027,0,0,1,.819,1.656,9.266,9.266,0,0,1,.433,1.693c.051.315.083.634.11.953S559.048,258.643,559.062,258.9Z" transform="translate(-267.333 -191.774)"/>
    <path d="M543.951,258.178a.971.971,0,0,0,.679-.014,1.467,1.467,0,0,0,.663-.576,2.381,2.381,0,0,0,.3-.777q.333-1.339.673-2.678c.072-.285.147-.569.217-.854a1.268,1.268,0,0,0,.024-.531.3.3,0,0,0-.327-.276,1.065,1.065,0,0,0-.629.248,2.157,2.157,0,0,0-.563.682c-.059.106-.109.217-.164.325a.2.2,0,0,1-.286.06.119.119,0,0,1-.033-.147,2.73,2.73,0,0,1,.114-.26,2.58,2.58,0,0,1,.728-.883,1.389,1.389,0,0,1,1.163-.278.959.959,0,0,1,.632.42.919.919,0,0,1,.1.759q-.382,1.521-.77,3.041c-.056.222-.106.446-.175.664a1.9,1.9,0,0,1-.893,1.1,2.223,2.223,0,0,1-.936.3,1.432,1.432,0,0,1-.811-.116.967.967,0,0,1-.225-.167.551.551,0,0,1,.085-.777.5.5,0,0,1,.557-.083.339.339,0,0,1,.183.361A.581.581,0,0,1,543.951,258.178Z" transform="translate(-267.333 -191.774)"/>
    <path d="M521.031,251.326l-.268-.254,1.891-1.908,1.869,1.9-.265.255-1.605-1.417Z" transform="translate(-267.333 -191.774)"/>
    <path d="M547.65,250.391a.593.593,0,0,1-.465.53.415.415,0,0,1-.294-.039.382.382,0,0,1-.166-.489.586.586,0,0,1,.476-.379A.382.382,0,0,1,547.65,250.391Z" transform="translate(-267.333 -191.774)"/>
  </g>
  <g>
    <path d="M592.089,258.117c-.065.262-.128.509-.189.756q-.2.8-.4,1.6-.156.628-.311,1.259c0,.023-.008.047-.012.07-.028.157.011.231.165.275a1.388,1.388,0,0,0,.3.047c.2.01.395.007.592.012a.588.588,0,0,1,.161.025.141.141,0,0,1,.074.062.254.254,0,0,1-.2.351c-.129.007-.259,0-.388,0-.106,0-.211-.016-.316-.018-.262-.006-.524-.009-.787-.013-.122,0-.245-.01-.367-.008-.436.008-.872.019-1.308.029-.183,0-.367.009-.551.011-.122,0-.189-.049-.2-.144-.018-.149.039-.254.158-.281a.744.744,0,0,1,.142-.015c.228-.008.456-.011.683-.023a1.6,1.6,0,0,0,.291-.05.454.454,0,0,0,.337-.337c.054-.186.1-.374.148-.562q.69-2.755,1.38-5.509c.158-.633.319-1.266.478-1.9.057-.227,0-.314-.228-.342-.2-.023-.393-.027-.59-.038-.112,0-.225,0-.336-.011a.147.147,0,0,1-.153-.176c0-.172.053-.233.226-.251a1.957,1.957,0,0,1,.2-.012c1.538,0,3.076,0,4.614,0a3.537,3.537,0,0,1,1.49.3,2.109,2.109,0,0,1,1.169,1.2,1.807,1.807,0,0,1,.1.477,2.221,2.221,0,0,1-.441,1.474,3.745,3.745,0,0,1-1.135,1.043,4.591,4.591,0,0,1-1.793.65,4.053,4.053,0,0,1-.528.04c-.784,0-1.569,0-2.353,0Zm.056-.368h.123c.593,0,1.186,0,1.779,0,.164,0,.327-.007.49-.02a3.16,3.16,0,0,0,1.423-.458,2.017,2.017,0,0,0,.781-.88,4.352,4.352,0,0,0,.3-.886,2.8,2.8,0,0,0,.094-.989,1.159,1.159,0,0,0-.216-.554,1.266,1.266,0,0,0-.6-.422,2.715,2.715,0,0,0-.931-.158c-.565-.007-1.131,0-1.7,0a1.7,1.7,0,0,0-.213.018.327.327,0,0,0-.29.237c-.032.1-.061.2-.086.294q-.322,1.276-.642,2.554Z" transform="translate(-267.333 -191.774)"/>
    <path d="M625.453,251.8a6.636,6.636,0,0,1-.3,1.726,6.939,6.939,0,0,1-.469,1.152,5.509,5.509,0,0,1-.773,1.149,2.9,2.9,0,0,1-.907.717,1.434,1.434,0,0,1-.821.149,1.061,1.061,0,0,1-.584-.271,1.794,1.794,0,0,1-.5-.893,3.472,3.472,0,0,1-.108-.673,5.23,5.23,0,0,1,.133-1.548,6.722,6.722,0,0,1,.81-2.018,4.973,4.973,0,0,1,.658-.87,2.823,2.823,0,0,1,.835-.628,1.389,1.389,0,0,1,.864-.128,1.11,1.11,0,0,1,.716.485,2.232,2.232,0,0,1,.363.923C625.409,251.314,625.426,251.558,625.453,251.8Zm-3.429,1.562a.446.446,0,0,0-.019.043,8.064,8.064,0,0,0-.269,1.5,3.367,3.367,0,0,0,.035.783,1.3,1.3,0,0,0,.168.488.476.476,0,0,0,.524.229,1.07,1.07,0,0,0,.258-.091,1.325,1.325,0,0,0,.395-.335,4.518,4.518,0,0,0,.661-1.051,8.314,8.314,0,0,0,.474-1.376c.016-.061.031-.123.048-.191Zm2.368-.377a.52.52,0,0,0,.018-.05c.074-.362.157-.723.219-1.088a3.56,3.56,0,0,0,.029-1.066,1.619,1.619,0,0,0-.164-.565.493.493,0,0,0-.608-.264,1.274,1.274,0,0,0-.583.4,3.648,3.648,0,0,0-.566.846,7.889,7.889,0,0,0-.558,1.52c-.023.088-.043.177-.066.272Z" transform="translate(-267.333 -191.774)"/>
    <path d="M610.488,259.331c-.036.163-.078.317-.1.474-.044.261-.09.523-.11.786a2.349,2.349,0,0,0,.163,1.111,1.142,1.142,0,0,0,.484.575,1.052,1.052,0,0,0,.476.137,3.058,3.058,0,0,0,.7-.055,3.694,3.694,0,0,0,1.714-.812,3.485,3.485,0,0,0,.492-.5c.025-.032.051-.064.078-.1a.152.152,0,0,1,.215-.041.165.165,0,0,1,.061.228,2.262,2.262,0,0,1-.23.31,4.077,4.077,0,0,1-2.56,1.27,2.576,2.576,0,0,1-1.215-.125,2.051,2.051,0,0,1-1.086-.988,2.931,2.931,0,0,1-.323-1.263,3.821,3.821,0,0,1,.191-1.405,3.64,3.64,0,0,1,.875-1.421,4,4,0,0,1,1.057-.776,3.574,3.574,0,0,1,1.414-.4,2.069,2.069,0,0,1,.865.11,1.314,1.314,0,0,1,.619.45,1.1,1.1,0,0,1,.171.942,1.6,1.6,0,0,1-.874,1.083,3.082,3.082,0,0,1-.893.279,6.8,6.8,0,0,1-1.166.11c-.31,0-.62.008-.93.012C610.55,259.325,610.526,259.328,610.488,259.331Zm.092-.33c.03,0,.051,0,.071,0,.347-.006.694-.011,1.041-.021a4.61,4.61,0,0,0,.928-.122,2.529,2.529,0,0,0,.82-.328A1.154,1.154,0,0,0,614,257.6a.865.865,0,0,0-.523-.846,1.354,1.354,0,0,0-.81-.072,2.315,2.315,0,0,0-1.294.747A3.662,3.662,0,0,0,610.58,259Z" transform="translate(-267.333 -191.774)"/>
    <path d="M598.2,258.881c.063.017.112.028.159.044a.493.493,0,0,1,.329.548.476.476,0,0,1-.42.433.518.518,0,0,1-.483-.154.449.449,0,0,1-.116-.267,1.024,1.024,0,0,1,.251-.794,1.676,1.676,0,0,1,.793-.5,2.805,2.805,0,0,1,.9-.134,2.664,2.664,0,0,1,1.25.293,1.679,1.679,0,0,1,.5.4,1.08,1.08,0,0,1,.233.928,1.756,1.756,0,0,1-.781,1.163,2.287,2.287,0,0,1-.486.258c-.028.011-.055.026-.092.043.143.047.278.084.407.135a2.05,2.05,0,0,1,1.069.875,1.478,1.478,0,0,1,.208.686,1.634,1.634,0,0,1-.407,1.164,2.289,2.289,0,0,1-1.259.75,2.71,2.71,0,0,1-.688.077,2.994,2.994,0,0,1-1.424-.343,1.548,1.548,0,0,1-.68-.683,1.14,1.14,0,0,1-.112-.585.55.55,0,0,1,.8-.452.533.533,0,0,1,.306.559.512.512,0,0,1-.4.47c-.047.011-.094.018-.157.03.035.044.062.084.1.119a1.663,1.663,0,0,0,.654.4,2.734,2.734,0,0,0,.882.156,1.208,1.208,0,0,0,1.239-.926,2.357,2.357,0,0,0,0-1.329,1.217,1.217,0,0,0-1.176-.915c-.208,0-.416,0-.625,0a.727.727,0,0,1-.131-.013.115.115,0,0,1-.1-.129.122.122,0,0,1,.11-.136c.108-.013.216-.019.325-.029.132-.012.264-.019.4-.036a1.122,1.122,0,0,0,.853-.629,1.889,1.889,0,0,0,.231-1.053.941.941,0,0,0-.389-.753,1.027,1.027,0,0,0-.461-.181,2.162,2.162,0,0,0-1.1.157,1.41,1.41,0,0,0-.406.252A1.2,1.2,0,0,0,598.2,258.881Z" transform="translate(-267.333 -191.774)"/>
    <path d="M604.547,259.036c0-.194-.011-.389,0-.583.022-.318.056-.635.091-.952a8.2,8.2,0,0,1,.192-1.042,9.188,9.188,0,0,1,.538-1.593,7.672,7.672,0,0,1,.657-1.187,7.309,7.309,0,0,1,.8-1,4.815,4.815,0,0,1,.663-.589.988.988,0,0,1,.139-.084.134.134,0,0,1,.168.03.142.142,0,0,1,0,.179.713.713,0,0,1-.08.093,6.378,6.378,0,0,0-1.07,1.346,8.29,8.29,0,0,0-.989,2.5,11.143,11.143,0,0,0-.206,1.216c-.042.382-.077.764-.081,1.148,0,.3-.02.607-.01.909a14.289,14.289,0,0,0,.111,1.431,11.031,11.031,0,0,0,.371,1.754,7.787,7.787,0,0,0,.948,2.061,5.922,5.922,0,0,0,.684.863c.1.1.2.211.3.321a.185.185,0,0,1,.049.118.127.127,0,0,1-.194.117,3.149,3.149,0,0,1-.351-.245,6.72,6.72,0,0,1-1.216-1.369,7.694,7.694,0,0,1-.571-.967,8.881,8.881,0,0,1-.713-2.068,12.33,12.33,0,0,1-.195-1.237c-.017-.149-.023-.3-.03-.448-.011-.241-.019-.482-.029-.724Z" transform="translate(-267.333 -191.774)"/>
    <path d="M631.114,259c-.013.33-.016.606-.036.88a10.454,10.454,0,0,1-.411,2.281,9,9,0,0,1-.477,1.237,7.763,7.763,0,0,1-1.136,1.75,5.256,5.256,0,0,1-.9.855,1.235,1.235,0,0,1-.14.084.126.126,0,0,1-.167-.024.15.15,0,0,1-.014-.172.674.674,0,0,1,.093-.107,6.609,6.609,0,0,0,.953-1.169,7.653,7.653,0,0,0,.774-1.572,9.708,9.708,0,0,0,.494-2.058c.032-.252.056-.506.082-.759.033-.325.033-.652.044-.978s0-.64-.014-.958a12.3,12.3,0,0,0-.192-1.689,10.032,10.032,0,0,0-.436-1.624,7.446,7.446,0,0,0-.837-1.653,6.068,6.068,0,0,0-.792-.945,1.822,1.822,0,0,1-.153-.164.136.136,0,0,1-.008-.178.125.125,0,0,1,.181-.03,3.859,3.859,0,0,1,.387.281,7.043,7.043,0,0,1,1.331,1.579,8.04,8.04,0,0,1,.711,1.411,9.327,9.327,0,0,1,.452,1.6,9.843,9.843,0,0,1,.159,1.159C631.084,258.378,631.1,258.718,631.114,259Z" transform="translate(-267.333 -191.774)"/>
    <path d="M615.878,258.284a.992.992,0,0,0,.687-.017,1.488,1.488,0,0,0,.662-.574,2.552,2.552,0,0,0,.326-.852q.329-1.316.661-2.631c.072-.287.148-.574.218-.861a1.274,1.274,0,0,0,.025-.546.3.3,0,0,0-.322-.274,1.064,1.064,0,0,0-.644.253,2.41,2.41,0,0,0-.667.878c-.022.046-.041.093-.065.138a.2.2,0,0,1-.29.054.119.119,0,0,1-.028-.149c.055-.124.107-.251.174-.369a2.5,2.5,0,0,1,.676-.782,1.4,1.4,0,0,1,1.164-.28.971.971,0,0,1,.64.42.921.921,0,0,1,.11.764q-.361,1.451-.731,2.9c-.072.283-.138.568-.225.847a1.908,1.908,0,0,1-.9,1.1,2.258,2.258,0,0,1-.935.305,1.483,1.483,0,0,1-.828-.118.816.816,0,0,1-.214-.154.562.562,0,0,1,.088-.806.535.535,0,0,1,.45-.112.35.35,0,0,1,.283.415.556.556,0,0,1-.256.409Z" transform="translate(-267.333 -191.774)"/>
    <path d="M592.76,251.378l-.257-.258c.032-.036.063-.076.1-.111q.856-.864,1.714-1.726c.027-.027.047-.059.079-.1l1.9,1.931-.273.252-1.616-1.426Z" transform="translate(-267.333 -191.774)"/>
    <path d="M619.607,250.437a.592.592,0,0,1-.577.538.372.372,0,0,1-.346-.213.386.386,0,0,1-.011-.327.584.584,0,0,1,.487-.385A.384.384,0,0,1,619.607,250.437Z" transform="translate(-267.333 -191.774)"/>
  </g>
  <g>
    <path d="M996.892,259.708c-.062.248-.121.483-.18.717q-.222.892-.445,1.786-.167.668-.33,1.337c-.007.028-.01.057-.015.085-.026.149.013.234.155.275a1.457,1.457,0,0,0,.34.057c.21.012.42.007.63.013a.654.654,0,0,1,.17.026.146.146,0,0,1,.079.066.27.27,0,0,1-.208.374c-.137.007-.275,0-.413,0-.112,0-.223-.016-.335-.019-.271-.006-.543-.009-.814-.013-.13,0-.26-.011-.39-.009-.471.008-.941.02-1.411.031-.2,0-.39.009-.585.011-.131,0-.2-.051-.214-.152a.242.242,0,0,1,.167-.3.614.614,0,0,1,.128-.016c.2,0,.392,0,.586-.012a3.84,3.84,0,0,0,.429-.055.485.485,0,0,0,.4-.368c.065-.225.122-.453.179-.68q.639-2.547,1.276-5.094.337-1.346.675-2.69c.061-.241.006-.334-.24-.363-.218-.025-.439-.029-.659-.041-.108-.005-.218,0-.325-.012a.158.158,0,0,1-.164-.185c0-.184.057-.249.239-.268a1.956,1.956,0,0,1,.216-.013c1.634,0,3.268,0,4.9,0a3.752,3.752,0,0,1,1.593.319,2.236,2.236,0,0,1,1.232,1.275,1.9,1.9,0,0,1,.109.506,2.352,2.352,0,0,1-.468,1.566,3.951,3.951,0,0,1-1.205,1.108,4.867,4.867,0,0,1-1.9.69,4.227,4.227,0,0,1-.562.043c-.833,0-1.666,0-2.5,0Zm.06-.391h.129c.63,0,1.26,0,1.89,0,.173,0,.347-.008.52-.022a3.348,3.348,0,0,0,1.521-.491,2.132,2.132,0,0,0,.82-.929,4.607,4.607,0,0,0,.326-.951,2.966,2.966,0,0,0,.1-1.04,1.24,1.24,0,0,0-.229-.589,1.349,1.349,0,0,0-.638-.449,2.874,2.874,0,0,0-.988-.168c-.6-.007-1.195,0-1.793,0a1.892,1.892,0,0,0-.237.019.346.346,0,0,0-.308.251c-.034.1-.066.207-.092.312q-.312,1.236-.622,2.471C997.217,258.25,997.088,258.772,996.952,259.317Z" transform="translate(-267.333 -191.774)"/>
    <path d="M1004.914,266.619h-2.01a.586.586,0,0,1-.139-.015.125.125,0,0,1-.072-.043.213.213,0,0,1,.1-.307.5.5,0,0,1,.128-.016c.184-.008.369-.01.552-.023.274-.02.361-.1.428-.361q.285-1.134.57-2.27l.747-2.975c.045-.178.088-.357.131-.535a.259.259,0,0,0,.01-.053c.007-.1-.018-.135-.114-.15s-.2-.026-.3-.032c-.133-.008-.267-.008-.4-.014-.108,0-.153-.04-.16-.123-.013-.136.029-.219.128-.242a.662.662,0,0,1,.14-.012c1.337,0,2.673-.008,4.01,0a2.693,2.693,0,0,1,1.829.681,2.524,2.524,0,0,1,.743,1.2,2.963,2.963,0,0,1,.113.714,3.852,3.852,0,0,1-.592,2.193,5,5,0,0,1-2.156,1.953,4.276,4.276,0,0,1-1.422.407,3.182,3.182,0,0,1-.324.018C1006.2,266.62,1005.559,266.619,1004.914,266.619Zm.914-.382c.239,0,.478,0,.717,0a5.2,5.2,0,0,0,.529-.037,3.437,3.437,0,0,0,1.273-.437,3.236,3.236,0,0,0,.846-.686,4.317,4.317,0,0,0,.788-1.4,6.476,6.476,0,0,0,.319-1.368,2.868,2.868,0,0,0-.028-1.053,1.687,1.687,0,0,0-.533-.91,2.154,2.154,0,0,0-1.409-.5c-.554-.012-1.108,0-1.662,0-.043,0-.087,0-.13.008a.219.219,0,0,0-.2.158c-.023.064-.042.13-.059.2l-.792,3.141c-.092.364-.185.727-.276,1.091q-.2.777-.391,1.556a.922.922,0,0,0-.021.149.072.072,0,0,0,.074.087c.05,0,.1.011.151.011Z" transform="translate(-267.333 -191.774)"/>
    <path d="M1036.676,253a7.029,7.029,0,0,1-.312,1.823,7.265,7.265,0,0,1-.637,1.481,5.51,5.51,0,0,1-.8,1.09,2.785,2.785,0,0,1-1.021.715,1.369,1.369,0,0,1-.841.058,1.255,1.255,0,0,1-.756-.595,2.673,2.673,0,0,1-.347-1.041,4.269,4.269,0,0,1-.038-.822,6.327,6.327,0,0,1,.152-1.113,7.281,7.281,0,0,1,.857-2.134,5.292,5.292,0,0,1,.7-.933,2.985,2.985,0,0,1,.887-.666,1.524,1.524,0,0,1,.79-.153,1.17,1.17,0,0,1,.881.527,2.337,2.337,0,0,1,.39.99C1036.629,252.484,1036.647,252.744,1036.676,253Zm-3.648,1.655c-.019.071-.039.14-.057.209a8.2,8.2,0,0,0-.242,1.417,3.5,3.5,0,0,0,.04.873,1.314,1.314,0,0,0,.172.487.513.513,0,0,0,.393.259.751.751,0,0,0,.436-.1,1.552,1.552,0,0,0,.421-.356,4.78,4.78,0,0,0,.7-1.116,9.321,9.321,0,0,0,.536-1.576c.007-.029.009-.06.014-.094Zm2.523-.4a.512.512,0,0,0,.018-.059c.076-.375.157-.748.225-1.124a3.766,3.766,0,0,0,.035-1.175,1.719,1.719,0,0,0-.174-.589.523.523,0,0,0-.638-.276,1.345,1.345,0,0,0-.622.417,3.806,3.806,0,0,0-.591.879,8.585,8.585,0,0,0-.665,1.874.312.312,0,0,0,0,.053Z" transform="translate(-267.333 -191.774)"/>
    <path d="M1020.779,261c-.046.215-.1.422-.134.631a4.5,4.5,0,0,0-.1,1.023,2.109,2.109,0,0,0,.324,1.13,1.071,1.071,0,0,0,.917.49,3.844,3.844,0,0,0,2.539-.934,3.624,3.624,0,0,0,.527-.545c.024-.031.047-.064.074-.093a.161.161,0,0,1,.216-.026.174.174,0,0,1,.074.223,2.708,2.708,0,0,1-.271.364,4.262,4.262,0,0,1-1.99,1.2,4.155,4.155,0,0,1-1,.151,2.562,2.562,0,0,1-.876-.107,2.154,2.154,0,0,1-1.276-1.092,3.126,3.126,0,0,1-.343-1.342,4.1,4.1,0,0,1,.2-1.492,3.889,3.889,0,0,1,.93-1.51,4.266,4.266,0,0,1,1.123-.824,3.817,3.817,0,0,1,1.5-.424,2.206,2.206,0,0,1,.919.116,1.375,1.375,0,0,1,.711.56,1.178,1.178,0,0,1,.127.92,1.7,1.7,0,0,1-.929,1.15,3.288,3.288,0,0,1-.948.3,7.342,7.342,0,0,1-1.239.117c-.329,0-.658.008-.987.012Zm.1-.352c.035,0,.056.007.077.007.369-.007.737-.013,1.106-.022a4.962,4.962,0,0,0,.986-.13,2.666,2.666,0,0,0,.871-.348,1.225,1.225,0,0,0,.6-.99.917.917,0,0,0-.553-.9,1.436,1.436,0,0,0-.871-.076,2.509,2.509,0,0,0-1.5.948,3.7,3.7,0,0,0-.573,1.064C1020.964,260.343,1020.922,260.492,1020.874,260.645Z" transform="translate(-267.333 -191.774)"/>
    <path d="M1017.8,253.2a.149.149,0,0,1,.143.226.853.853,0,0,1-.091.108,7.146,7.146,0,0,0-1.422,1.94,9.073,9.073,0,0,0-.76,2.117,11.759,11.759,0,0,0-.249,1.538c-.031.334-.061.669-.064,1,0,.238-.018.477-.011.715.011.382.03.765.057,1.146.019.266.05.531.086.8a10.847,10.847,0,0,0,.42,1.857,8.4,8.4,0,0,0,.8,1.785,6.54,6.54,0,0,0,.885,1.163c.107.112.214.225.318.341a.147.147,0,0,1,.037.169.132.132,0,0,1-.192.08,1.912,1.912,0,0,1-.263-.171,6.194,6.194,0,0,1-1.028-1.038,8.425,8.425,0,0,1-1-1.57,9.38,9.38,0,0,1-.74-2.158,11.834,11.834,0,0,1-.208-1.324,11.661,11.661,0,0,1-.044-1.733c.017-.356.044-.713.087-1.067a10.1,10.1,0,0,1,.571-2.341,8.562,8.562,0,0,1,.946-1.837,7.863,7.863,0,0,1,.817-1.012,5.035,5.035,0,0,1,.7-.626,1.224,1.224,0,0,1,.138-.086A.275.275,0,0,1,1017.8,253.2Z" transform="translate(-267.333 -191.774)"/>
    <path d="M1042.505,260.7a11.86,11.86,0,0,1-.48,3.312,9.366,9.366,0,0,1-.493,1.284,8.288,8.288,0,0,1-1.3,1.978,5.314,5.314,0,0,1-.873.809,1.229,1.229,0,0,1-.139.085.138.138,0,0,1-.187-.021.173.173,0,0,1-.009-.193.656.656,0,0,1,.086-.1,7.152,7.152,0,0,0,1.084-1.349,8.45,8.45,0,0,0,.893-1.97,10.763,10.763,0,0,0,.366-1.6c.043-.278.072-.558.1-.838q.033-.362.044-.724c.01-.4.026-.81.012-1.214a13.153,13.153,0,0,0-.34-2.658,9.286,9.286,0,0,0-.759-2.094,6.7,6.7,0,0,0-1.035-1.506c-.126-.135-.257-.265-.385-.4a.22.22,0,0,1-.087-.167.137.137,0,0,1,.195-.13.792.792,0,0,1,.141.081,5.1,5.1,0,0,1,.789.709,8.263,8.263,0,0,1,.876,1.13,8.608,8.608,0,0,1,.872,1.766,10.335,10.335,0,0,1,.47,1.857c.044.27.075.543.1.817s.031.576.046.864C1042.49,260.524,1042.5,260.614,1042.505,260.7Z" transform="translate(-267.333 -191.774)"/>
    <path d="M1026.512,259.883a.941.941,0,0,0,.391.056,1.263,1.263,0,0,0,.907-.512,1.986,1.986,0,0,0,.409-.816q.386-1.524.766-3.047c.077-.305.157-.609.232-.915a1.351,1.351,0,0,0,.026-.6.3.3,0,0,0-.258-.271,1.251,1.251,0,0,0-.311.027,1.143,1.143,0,0,0-.458.238,2.365,2.365,0,0,0-.6.723c-.063.113-.116.232-.175.348a.211.211,0,0,1-.306.068.13.13,0,0,1-.037-.157,2.434,2.434,0,0,1,.121-.278,2.752,2.752,0,0,1,.787-.953,1.485,1.485,0,0,1,1.237-.294,1.038,1.038,0,0,1,.666.431.967.967,0,0,1,.128.82c-.265,1.062-.536,2.122-.806,3.183-.068.265-.128.533-.209.795a2.03,2.03,0,0,1-.964,1.181,2.387,2.387,0,0,1-.993.322,1.555,1.555,0,0,1-.869-.123,1.008,1.008,0,0,1-.236-.169.576.576,0,0,1-.066-.657.586.586,0,0,1,.568-.325.377.377,0,0,1,.372.455.6.6,0,0,1-.266.427Z" transform="translate(-267.333 -191.774)"/>
    <path d="M1001.526,252.269l-.274.283-1.73-1.528-1.742,1.525-.269-.289,2.012-2.031Z" transform="translate(-267.333 -191.774)"/>
    <path d="M1029.446,251.642a.6.6,0,0,1,.311-.423.51.51,0,0,1,.383-.072.407.407,0,0,1,.315.5.647.647,0,0,1-.558.475A.419.419,0,0,1,1029.446,251.642Z" transform="translate(-267.333 -191.774)"/>
  </g>
  <g>
    <path d="M1088.169,267.82h-1.8a.245.245,0,0,1-.1-.019.127.127,0,0,1-.048-.15c.027-.126.085-.129.177-.139.038,0,.077,0,.115,0,.11,0,.22,0,.33-.008a1.12,1.12,0,0,0,.308-.054.3.3,0,0,0,.2-.21c.05-.172.093-.346.138-.52q.111-.435.22-.872c.076-.3.151-.605.226-.908l.234-.934c.076-.3.151-.605.227-.907s.151-.6.227-.9c.051-.2.1-.407.153-.61a.251.251,0,0,0,.005-.1c-.014-.078-.08-.1-.145-.108-.085-.012-.172-.018-.258-.022-.118,0-.236,0-.355-.009a.311.311,0,0,1-.113-.022.1.1,0,0,1-.056-.058.413.413,0,0,1,.01-.14c.016-.066.074-.082.132-.088s.123-.007.185-.007q1.683,0,3.366,0a3.514,3.514,0,0,1,.42.042,1.952,1.952,0,0,1,.513.145,1.9,1.9,0,0,1,.43.247,2.346,2.346,0,0,1,.222.188,2.2,2.2,0,0,1,.321.4,2.411,2.411,0,0,1,.239.509,2.908,2.908,0,0,1,.1.367,2.725,2.725,0,0,1,.044.337c.01.134.016.269.014.4a3.048,3.048,0,0,1-.028.344,3.506,3.506,0,0,1-.126.6c-.046.143-.09.289-.148.428-.068.162-.145.321-.227.477a3.5,3.5,0,0,1-.347.543q-.15.192-.31.374a4.092,4.092,0,0,1-.291.3,4.275,4.275,0,0,1-.627.484c-.1.063-.2.121-.308.178a3.291,3.291,0,0,1-.658.274,4.546,4.546,0,0,1-.445.1,2.913,2.913,0,0,1-.31.037c-.065.006-.131.008-.2.008Zm2.454-6.473v.007c-.251,0-.5,0-.754,0a.224.224,0,0,0-.224.141,1.585,1.585,0,0,0-.057.177q-.118.467-.236.934t-.227.907c-.073.291-.147.582-.22.872l-.213.849c-.076.3-.151.605-.226.908l-.228.907c-.026.107-.054.213-.08.32a.085.085,0,0,0,.073.118.812.812,0,0,0,.154.02c.388,0,.775,0,1.163,0,.11,0,.221,0,.332-.015s.231-.028.345-.05a2.561,2.561,0,0,0,.616-.2,2.511,2.511,0,0,0,.457-.266c.126-.1.248-.2.367-.3a1.517,1.517,0,0,0,.167-.173c.071-.084.141-.171.2-.261a3.723,3.723,0,0,0,.375-.662c.064-.149.129-.3.185-.452s.1-.295.141-.446.085-.329.118-.5.057-.334.081-.5c.015-.106.028-.213.035-.32a2.653,2.653,0,0,0,0-.282,2.233,2.233,0,0,0-.022-.272,2.8,2.8,0,0,0-.07-.327,1.5,1.5,0,0,0-.238-.488,1.429,1.429,0,0,0-.365-.35,1.637,1.637,0,0,0-.449-.207,2.1,2.1,0,0,0-.589-.089C1091.034,261.346,1090.829,261.347,1090.623,261.347Z" transform="translate(-267.333 -191.774)"/>
    <path d="M1088.576,254.255v-.307l.031,0h.252c.127,0,.256,0,.383-.008a2.386,2.386,0,0,0,.346-.051.265.265,0,0,0,.221-.215.4.4,0,0,0,.01-.084q0-2.611,0-5.223v-.033a2.974,2.974,0,0,1-1.3.257v-.316c.021,0,.043,0,.064,0,.114,0,.229,0,.342-.016a2.573,2.573,0,0,0,.754-.181,1.823,1.823,0,0,0,.489-.292c.049-.042.1-.086.144-.129a.051.051,0,0,1,.029-.015c.044,0,.088,0,.132.007s.082.03.087.1c.007.115.008.231.008.347q0,2.747,0,5.493a.284.284,0,0,0,.066.207.267.267,0,0,0,.112.076,1.66,1.66,0,0,0,.254.053,2.3,2.3,0,0,0,.249.015c.181,0,.361.005.542.008h.02v.31l-.246-.014-.036,0c-.224,0-.448-.006-.671-.007q-.64,0-1.28-.007c-.162,0-.323,0-.485.007-.086,0-.172,0-.258.007s-.149.009-.224.014C1088.6,254.256,1088.589,254.255,1088.576,254.255Z" transform="translate(-267.333 -191.774)"/>
    <path d="M1085.818,258.709v-.485h8.644v.485Z" transform="translate(-267.333 -191.774)"/>
  </g>
  <g>
    <path d="M1168.389,211.5a.777.777,0,0,0-.014.095c0,.169,0,.338-.011.506-.019.256-.044.513-.08.767a9.467,9.467,0,0,1-.31,1.43,8.829,8.829,0,0,1-.47,1.23,7.553,7.553,0,0,1-1.045,1.632,5.192,5.192,0,0,1-.934.9.977.977,0,0,1-.135.083.123.123,0,0,1-.163-.021.144.144,0,0,1-.017-.166.634.634,0,0,1,.09-.1,6.508,6.508,0,0,0,.926-1.135,7.42,7.42,0,0,0,.752-1.527,9.343,9.343,0,0,0,.48-2c.032-.245.055-.492.08-.738.033-.319.032-.639.043-.96s0-.621-.013-.93a12.075,12.075,0,0,0-.188-1.64,9.744,9.744,0,0,0-.422-1.567,7.216,7.216,0,0,0-.813-1.606,5.923,5.923,0,0,0-.769-.918,1.868,1.868,0,0,1-.149-.159.133.133,0,0,1-.008-.172.122.122,0,0,1,.177-.03,3.905,3.905,0,0,1,.375.273,6.837,6.837,0,0,1,1.293,1.534,7.694,7.694,0,0,1,.725,1.463,8.959,8.959,0,0,1,.4,1.459,9.52,9.52,0,0,1,.154,1.126c.017.234.018.469.028.7a.777.777,0,0,0,.014.095Z" transform="translate(-267.333 -191.774)"/>
    <path d="M1134.807,210.4c-.036.147-.071.284-.105.421q-.237.951-.475,1.9-.144.578-.286,1.155a1.055,1.055,0,0,0-.027.136.179.179,0,0,0,.136.222,1.344,1.344,0,0,0,.32.057c.2.011.391.006.586.012a.66.66,0,0,1,.146.021.108.108,0,0,1,.087.117.712.712,0,0,1-.016.138.183.183,0,0,1-.186.149c-.139,0-.278,0-.417-.006-.089,0-.178-.01-.267-.011-.241,0-.483-.008-.724-.012-.109,0-.218-.01-.327-.008q-.67.012-1.339.028c-.179,0-.357.009-.536.011-.121,0-.187-.051-.2-.148a.225.225,0,0,1,.164-.266.783.783,0,0,1,.128-.014c.221-.007.443-.01.664-.022a1.608,1.608,0,0,0,.283-.047.438.438,0,0,0,.328-.326c.062-.219.119-.44.174-.66q.66-2.632,1.317-5.263.23-.918.46-1.834a.545.545,0,0,0,.014-.058c.021-.138-.021-.208-.156-.241a1.349,1.349,0,0,0-.245-.033c-.2-.01-.409-.013-.614-.021a.91.91,0,0,1-.157-.018.127.127,0,0,1-.114-.14.581.581,0,0,1,.012-.117.166.166,0,0,1,.155-.143,1.494,1.494,0,0,1,.188-.018c1.523,0,3.046,0,4.569,0a3.394,3.394,0,0,1,1.427.289,2.092,2.092,0,0,1,1.037.955,1.832,1.832,0,0,1,.109,1.415,2.612,2.612,0,0,1-.577.984,4.227,4.227,0,0,1-1.873,1.182,4.316,4.316,0,0,1-.92.193c-.1.009-.2.017-.3.017h-2.447Zm.056-.358H1135c.549,0,1.1,0,1.648,0,.208,0,.416-.012.623-.03a2.882,2.882,0,0,0,1.3-.437,1.856,1.856,0,0,0,.663-.68,3.663,3.663,0,0,0,.289-.684,3.582,3.582,0,0,0,.2-1.165,1.09,1.09,0,0,0-.627-1.013,2.419,2.419,0,0,0-1.076-.23c-.553-.01-1.106,0-1.659,0a1.422,1.422,0,0,0-.216.02.3.3,0,0,0-.26.216c-.035.106-.069.213-.1.322q-.407,1.614-.81,3.228C1134.938,209.727,1134.9,209.874,1134.863,210.038Z" transform="translate(-267.333 -191.774)"/>
    <path d="M1162.9,204.262a6.478,6.478,0,0,1-.288,1.676,6.831,6.831,0,0,1-.433,1.074,5.343,5.343,0,0,1-.773,1.16,2.79,2.79,0,0,1-.907.71,1.377,1.377,0,0,1-.791.129,1.124,1.124,0,0,1-.8-.564,2.435,2.435,0,0,1-.318-.951,3.889,3.889,0,0,1-.035-.762,5.976,5.976,0,0,1,.148-1.046,6.654,6.654,0,0,1,.788-1.938,4.764,4.764,0,0,1,.628-.828,2.783,2.783,0,0,1,.811-.61,1.388,1.388,0,0,1,.721-.141,1.069,1.069,0,0,1,.807.48,2.143,2.143,0,0,1,.359.9C1162.86,203.789,1162.876,204.026,1162.9,204.262Zm-3.335,1.515c-.017.063-.034.123-.049.184a7.4,7.4,0,0,0-.225,1.3,3.2,3.2,0,0,0,.037.8,1.2,1.2,0,0,0,.158.445.471.471,0,0,0,.359.236.682.682,0,0,0,.4-.095,1.416,1.416,0,0,0,.384-.326,4.33,4.33,0,0,0,.642-1.02,8.525,8.525,0,0,0,.49-1.441.713.713,0,0,0,.012-.086Zm2.305-.366c.007-.021.016-.042.021-.064.068-.339.142-.678.2-1.018a3.486,3.486,0,0,0,.03-1.074,1.536,1.536,0,0,0-.16-.538.478.478,0,0,0-.585-.25,1.229,1.229,0,0,0-.567.383,3.5,3.5,0,0,0-.545.812,7.639,7.639,0,0,0-.547,1.484c-.023.086-.042.172-.064.265Z" transform="translate(-267.333 -191.774)"/>
    <path d="M1148.369,211.575c-.042.2-.087.386-.122.577a4.078,4.078,0,0,0-.088.935,1.927,1.927,0,0,0,.3,1.033.974.974,0,0,0,.839.447,3.511,3.511,0,0,0,2.321-.854,3.757,3.757,0,0,0,.526-.551.238.238,0,0,1,.1-.076.135.135,0,0,1,.157.055c.039.051.076.107.032.171a3.017,3.017,0,0,1-.248.332,3.919,3.919,0,0,1-1.82,1.1,3.853,3.853,0,0,1-.919.137,2.327,2.327,0,0,1-.8-.1,1.969,1.969,0,0,1-1.166-1,2.853,2.853,0,0,1-.313-1.227,3.739,3.739,0,0,1,.183-1.354,3.545,3.545,0,0,1,.853-1.39,3.9,3.9,0,0,1,1.01-.744,3.485,3.485,0,0,1,1.4-.4,2.016,2.016,0,0,1,.83.107,1.253,1.253,0,0,1,.644.5,1.069,1.069,0,0,1,.121.849,1.553,1.553,0,0,1-.849,1.051,3,3,0,0,1-.877.273,6.809,6.809,0,0,1-1.123.1c-.3,0-.6.007-.9.011C1148.43,211.568,1148.407,211.572,1148.369,211.575Zm.092-.323c.022,0,.032.006.041.006.344-.006.687-.011,1.031-.019a4.523,4.523,0,0,0,.912-.12,2.412,2.412,0,0,0,.8-.32,1.132,1.132,0,0,0,.512-.7.857.857,0,0,0-.623-1.075,1.477,1.477,0,0,0-.868.037,2.292,2.292,0,0,0-1.08.724A3.629,3.629,0,0,0,1148.461,211.252Z" transform="translate(-267.333 -191.774)"/>
    <path d="M1145.645,204.443a.137.137,0,0,1,.127.209.869.869,0,0,1-.084.1,6.557,6.557,0,0,0-1.29,1.757,8.3,8.3,0,0,0-.708,1.973,10.811,10.811,0,0,0-.223,1.386c-.028.3-.055.6-.058.909,0,.277-.017.555-.01.833s.032.579.049.869a10.933,10.933,0,0,0,.433,2.33,8.074,8.074,0,0,0,.54,1.33,6.337,6.337,0,0,0,.91,1.331c.108.12.222.235.332.354a1.024,1.024,0,0,1,.1.112.131.131,0,0,1,0,.181.118.118,0,0,1-.17.018,4.08,4.08,0,0,1-.391-.286,6.6,6.6,0,0,1-1.12-1.28,7.515,7.515,0,0,1-.562-.957,8.714,8.714,0,0,1-.68-1.982,12.051,12.051,0,0,1-.19-1.211c-.016-.14-.023-.283-.027-.424-.009-.314-.019-.628-.02-.942a10.411,10.411,0,0,1,.437-2.828,8.737,8.737,0,0,1,.434-1.127,7.524,7.524,0,0,1,.928-1.5,5.535,5.535,0,0,1,1.066-1.058,1.207,1.207,0,0,1,.117-.074A.35.35,0,0,1,1145.645,204.443Z" transform="translate(-267.333 -191.774)"/>
    <path d="M1153.61,210.559a.958.958,0,0,0,.66-.017,1.439,1.439,0,0,0,.648-.565,2.332,2.332,0,0,0,.3-.76q.326-1.312.659-2.623c.07-.279.144-.557.212-.836a1.235,1.235,0,0,0,.025-.51.3.3,0,0,0-.323-.279,1.035,1.035,0,0,0-.615.243,2.306,2.306,0,0,0-.652.862c-.021.045-.041.09-.065.134a.2.2,0,0,1-.283.042.12.12,0,0,1-.024-.139c.055-.12.1-.243.17-.357a2.432,2.432,0,0,1,.655-.761,1.4,1.4,0,0,1,.715-.295,1.192,1.192,0,0,1,.754.154.863.863,0,0,1,.407.927c-.055.268-.127.533-.194.8q-.263,1.037-.525,2.074c-.072.285-.138.571-.224.852a1.848,1.848,0,0,1-.874,1.073,2.171,2.171,0,0,1-.917.3,1.411,1.411,0,0,1-.8-.114.922.922,0,0,1-.219-.164.54.54,0,0,1,.076-.755.514.514,0,0,1,.471-.119.334.334,0,0,1,.258.4A.575.575,0,0,1,1153.61,210.559Z" transform="translate(-267.333 -191.774)"/>
    <path d="M1137.045,201.722l1.832,1.865-.253.257-1.572-1.387-1.582,1.385-.25-.254c.02-.023.05-.061.084-.1l1.651-1.661C1136.985,201.8,1137.01,201.765,1137.045,201.722Z" transform="translate(-267.333 -191.774)"/>
    <path d="M1156.294,203.02a.544.544,0,0,1,.275-.381.474.474,0,0,1,.36-.07.372.372,0,0,1,.286.457.589.589,0,0,1-.51.433A.382.382,0,0,1,1156.294,203.02Z" transform="translate(-267.333 -191.774)"/>
  </g>
  <g>
    <path d="M1099.2,366.582c.2-.212.4-.439.613-.652a3.323,3.323,0,0,1,1.539-.823,3.123,3.123,0,0,1,.42-.06,4.1,4.1,0,0,1,.457-.014,2.5,2.5,0,0,1,.889.187,1.708,1.708,0,0,1,.641.456,1.663,1.663,0,0,1,.374.75,2.653,2.653,0,0,1,.054.407,2.435,2.435,0,0,1,0,.427c-.027.222-.066.443-.113.662a16.711,16.711,0,0,1-.591,1.986c-.133.39-.27.778-.418,1.162a5.242,5.242,0,0,0-.263.788,2.256,2.256,0,0,0-.048.356,2.044,2.044,0,0,0,.014.391.374.374,0,0,0,.383.338,1.247,1.247,0,0,0,.876-.351,2.662,2.662,0,0,0,.53-.691,6.2,6.2,0,0,0,.48-1.159c.032-.1.064-.2.1-.3a.145.145,0,0,1,.149-.1c.027,0,.053,0,.08,0,.191,0,.222.112.193.243a5.165,5.165,0,0,1-.341.994,4.335,4.335,0,0,1-.441.783c-.086.118-.183.228-.277.341a1.93,1.93,0,0,1-.615.48,1.662,1.662,0,0,1-1.488,0,1.387,1.387,0,0,1-.668-.766,1.638,1.638,0,0,1-.1-.444,2.074,2.074,0,0,1,.154-.905c.166-.447.334-.893.49-1.344.138-.4.27-.8.386-1.2.105-.366.193-.738.274-1.11a3.068,3.068,0,0,0,.067-.891,1.391,1.391,0,0,0-.222-.727.759.759,0,0,0-.5-.319,1.736,1.736,0,0,0-.407-.027,2.623,2.623,0,0,0-.883.207,3.388,3.388,0,0,0-.69.406,2.192,2.192,0,0,0-.195.166c-.092.087-.182.178-.271.27a4.429,4.429,0,0,0-.6.793,2.216,2.216,0,0,0-.155.272,3.021,3.021,0,0,0-.134.385c-.061.217-.114.436-.169.655-.074.294-.145.589-.219.883-.081.321-.165.642-.245.964-.137.551-.27,1.1-.408,1.653-.063.25-.12.5-.2.746a.713.713,0,0,1-.622.507.543.543,0,0,1-.453-.132.435.435,0,0,1-.141-.423c.08-.379.168-.757.261-1.134.141-.572.291-1.142.435-1.713.118-.467.233-.934.349-1.4s.239-.932.35-1.4c.05-.211.083-.426.116-.641a1.619,1.619,0,0,0-.039-.664.506.506,0,0,0-.624-.391.806.806,0,0,0-.507.322,2.988,2.988,0,0,0-.491,1.015c-.094.3-.171.613-.256.92-.017.062-.033.125-.056.186a.232.232,0,0,1-.3.152c-.173-.041-.194-.127-.146-.306q.153-.581.329-1.155a3.155,3.155,0,0,1,.51-1.006,1.3,1.3,0,0,1,.834-.534,1.677,1.677,0,0,1,.9.1,1.573,1.573,0,0,1,.6.4,1.657,1.657,0,0,1,.41.8C1099.17,366.434,1099.184,366.518,1099.2,366.582Z" transform="translate(-267.333 -191.774)"/>
    <path d="M1083.684,371.994a3.52,3.52,0,0,1-.426.606,2.286,2.286,0,0,1-.784.6,1.664,1.664,0,0,1-.623.152,2.425,2.425,0,0,1-1.053-.176,1.221,1.221,0,0,1-.693-.614,1.048,1.048,0,0,1-.074-.583,1.03,1.03,0,0,1,.333-.642.917.917,0,0,1,.994-.2.541.541,0,0,1,.355.458.946.946,0,0,1-.324.858.971.971,0,0,1-.473.248.264.264,0,0,0-.04.018,1.406,1.406,0,0,0,.524.191,2.452,2.452,0,0,0,.52.026,1.207,1.207,0,0,0,.626-.252,2.256,2.256,0,0,0,.628-.748,4.369,4.369,0,0,0,.375-1c.094-.363.194-.724.287-1.087.119-.459.238-.918.35-1.38.09-.37.175-.742.251-1.116.037-.184.047-.372.07-.558a1.6,1.6,0,0,0-.081-.716.875.875,0,0,0-.628-.6,1.194,1.194,0,0,0-.573,0,2.184,2.184,0,0,0-.79.342,2.979,2.979,0,0,0-.712.7,3.326,3.326,0,0,0-.4.666c-.105.242-.192.492-.286.739a.189.189,0,0,1-.184.136c-.1,0-.216.007-.25-.115a.448.448,0,0,1,.006-.238,5.137,5.137,0,0,1,.2-.535,4.27,4.27,0,0,1,.557-.917,3.755,3.755,0,0,1,.571-.591,3,3,0,0,1,.553-.37,2.009,2.009,0,0,1,.729-.228,3.36,3.36,0,0,1,.52-.024,2.054,2.054,0,0,1,1.037.352,1.964,1.964,0,0,1,.61.681c.059.107.111.218.169.332.039-.064.081-.128.119-.193a2.782,2.782,0,0,1,.566-.679,1.915,1.915,0,0,1,.881-.46,2.046,2.046,0,0,1,.615-.025,2.6,2.6,0,0,1,.659.148,1.326,1.326,0,0,1,.637.465.919.919,0,0,1,.172.519,1.164,1.164,0,0,1-.087.532,1,1,0,0,1-.673.575.79.79,0,0,1-.714-.113.561.561,0,0,1-.217-.369.909.909,0,0,1,.253-.778,1.084,1.084,0,0,1,.585-.344l0-.018c-.069-.032-.137-.067-.208-.1a1.781,1.781,0,0,0-.777-.119,1.325,1.325,0,0,0-.757.3,2.292,2.292,0,0,0-.61.81,4.964,4.964,0,0,0-.358,1.063c-.074.328-.163.652-.245.978q-.21.839-.418,1.678c-.067.267-.137.533-.194.8-.036.172-.049.349-.073.524a1.437,1.437,0,0,0,.068.645.9.9,0,0,0,.73.676,1.576,1.576,0,0,0,.869-.127,2.273,2.273,0,0,0,.632-.386,4.357,4.357,0,0,0,.368-.376,2.7,2.7,0,0,0,.458-.7c.123-.26.217-.534.323-.8.017-.043.034-.085.054-.126a.088.088,0,0,1,.039-.042.343.343,0,0,1,.309,0,.174.174,0,0,1,.062.12.962.962,0,0,1-.087.425,4.332,4.332,0,0,1-.577,1.069c-.1.143-.218.279-.334.412a3.084,3.084,0,0,1-.655.562,2.294,2.294,0,0,1-.92.362,2.132,2.132,0,0,1-.372.037,2.477,2.477,0,0,1-.633-.087,2.118,2.118,0,0,1-.636-.308,1.851,1.851,0,0,1-.529-.575C1083.813,372.264,1083.752,372.127,1083.684,371.994Z" transform="translate(-267.333 -191.774)"/>
    <path d="M1109.054,377.744h-2.534v-.739h1.775V360.12h-1.775v-.742h2.534Z" transform="translate(-267.333 -191.774)"/>
    <path d="M1094.623,377v.745h-2.535V359.378h2.534v.739h-1.789V377Z" transform="translate(-267.333 -191.774)"/>
  </g>
</svg>
