<svg id="Layer_1" data-name="Layer 1" xmlns="http://www.w3.org/2000/svg" viewBox="0 0 245.25 178.28"><defs><style>.cls-1,.cls-10,.cls-11,.cls-12,.cls-13,.cls-14,.cls-2,.cls-5,.cls-7,.cls-8,.cls-9{fill:none;stroke-miterlimit:10;}.cls-1,.cls-11,.cls-14{stroke:#000;}.cls-10,.cls-12,.cls-2,.cls-9{stroke:red;}.cls-11,.cls-2,.cls-5{stroke-width:2px;}.cls-3{fill:red;}.cls-4{font-size:18px;font-family:TimesNewRomanPSMT, Times New Roman;}.cls-13,.cls-5,.cls-7,.cls-8{stroke:blue;}.cls-6{fill:blue;}.cls-8{stroke-dasharray:3.17 3.17;}.cls-10{stroke-dasharray:3.09 3.09;}.cls-12,.cls-13,.cls-14{stroke-width:0.5px;stroke-dasharray:3;}</style></defs><title>addition</title><line class="cls-1" x1="210.77" y1="148.92" x2="26.94" y2="148.92"/><polygon points="209.31 143.94 217.94 148.92 209.31 153.91 209.31 143.94"/><line class="cls-2" x1="49.44" y1="148.92" x2="139.17" y2="117.78"/><polygon class="cls-3" points="139.42 122.96 145.94 115.42 136.15 113.54 139.42 122.96"/><line class="cls-1" x1="49.44" y1="31.24" x2="49.44" y2="172.42"/><polygon points="44.46 32.7 49.44 24.06 54.43 32.7 44.46 32.7"/><text class="cls-4" transform="translate(0 14.96)">imaginary axis</text><text class="cls-4" transform="translate(184.78 172.76)">real axis</text><line class="cls-5" x1="49.44" y1="148.92" x2="63.04" y2="110.68"/><polygon class="cls-6" points="67.25 113.73 65.44 103.92 57.85 110.39 67.25 113.73"/><line class="cls-7" x1="145.78" y1="115.58" x2="146.28" y2="114.17"/><line class="cls-8" x1="147.35" y1="111.18" x2="159.55" y2="76.87"/><line class="cls-7" x1="160.08" y1="75.38" x2="160.58" y2="73.96"/><polygon class="cls-6" points="162.69 75.48 161.78 70.58 157.99 73.81 162.69 75.48"/><line class="cls-9" x1="65.28" y1="104.75" x2="66.69" y2="104.25"/><line class="cls-10" x1="69.61" y1="103.21" x2="155.53" y2="72.8"/><line class="cls-9" x1="156.99" y1="72.28" x2="158.4" y2="71.78"/><polygon class="cls-3" points="158.54 74.37 161.78 70.58 156.88 69.67 158.54 74.37"/><line class="cls-11" x1="49.44" y1="148.92" x2="155.9" y2="74.69"/><polygon points="157.55 79.61 161.78 70.58 151.85 71.43 157.55 79.61"/><line class="cls-12" x1="145.94" y1="115.42" x2="145.94" y2="148.92"/><line class="cls-12" x1="143.69" y1="115.42" x2="49.44" y2="115.42"/><line class="cls-13" x1="65.28" y1="104.75" x2="65.28" y2="148.92"/><line class="cls-13" x1="65.28" y1="104.75" x2="49.44" y2="104.75"/><line class="cls-14" x1="161.78" y1="70.58" x2="161.78" y2="148.92"/><line class="cls-14" x1="161.78" y1="70.58" x2="49.44" y2="70.58"/><path class="cls-6" d="M592.77,438.24c.16,0,.32,0,.48,0a2.34,2.34,0,0,1,.69.18l.6.19a1.3,1.3,0,0,0,.52,0,1.57,1.57,0,0,0,.6-.16,1.69,1.69,0,0,0,.63-.45,1.79,1.79,0,0,0,.32-.53l0-.07c.05-.13.1-.15.23-.14a.15.15,0,0,1,.12.14.37.37,0,0,1,0,.11,2.7,2.7,0,0,1-.31.72,3.64,3.64,0,0,1-.35.52c-.1.11-.21.21-.32.31a2.7,2.7,0,0,1-.34.25,1.58,1.58,0,0,1-.59.23l-.3,0a.83.83,0,0,1-.56-.19,3.11,3.11,0,0,1-.32-.31,3.05,3.05,0,0,0-.44-.44.65.65,0,0,0-.49-.11,1.2,1.2,0,0,0-.55.25,2.29,2.29,0,0,0-.49.54l-.14.2a.16.16,0,0,1-.15.06.17.17,0,0,1-.1,0,.1.1,0,0,1-.06-.14,1.3,1.3,0,0,1,.14-.26c.16-.23.32-.45.49-.67s.21-.25.32-.37.39-.42.6-.62l.44-.41.28-.26.43-.4.47-.4.3-.27.57-.53.49-.49a1.31,1.31,0,0,0,.11-.12l0,0h-.2a1.77,1.77,0,0,1-.52-.09l-.7-.23a2.88,2.88,0,0,0-.4-.09,1.53,1.53,0,0,0-.91.18.92.92,0,0,0-.43.48c0,.1-.08.14-.17.14a.16.16,0,0,1-.18-.22A2,2,0,0,1,593,434a2.11,2.11,0,0,1,.31-.36,1.57,1.57,0,0,1,.71-.4.94.94,0,0,1,.41,0,.89.89,0,0,1,.51.21,3.82,3.82,0,0,1,.34.36,1.48,1.48,0,0,0,.38.37.64.64,0,0,0,.64,0,1.08,1.08,0,0,0,.43-.36l.37-.53a.21.21,0,0,1,.24-.09.12.12,0,0,1,.09.17,1.54,1.54,0,0,1-.17.31l-.42.57-.31.36c-.29.31-.59.61-.89.92l-.43.4-.38.34-.46.41-.4.34-.38.36L593,438C592.93,438.06,592.85,438.16,592.77,438.24Z" transform="translate(-556.06 -317.58)"/><path class="cls-6" d="M598.61,441.48v-.36h.59a2.48,2.48,0,0,0,.54-.06.31.31,0,0,0,.21-.16.43.43,0,0,0,0-.11v-5.12a3.31,3.31,0,0,1-1.43.27v-.36h.05a3,3,0,0,0,.73-.06,2.42,2.42,0,0,0,.69-.22,1.69,1.69,0,0,0,.41-.29.16.16,0,0,1,.18-.05h0c.07,0,.12,0,.13.11s0,.1,0,.14v5.57a.28.28,0,0,0,.23.29,2.1,2.1,0,0,0,.43.05h.7v.36h-3.24Z" transform="translate(-556.06 -317.58)"/><path class="cls-3" d="M687.49,451.78h.29l-.26,1.55H684c0-.08,0-.16,0-.24l0-.06.27-.27.5-.48.49-.49.5-.49.34-.34a4.74,4.74,0,0,0,.4-.49,2.3,2.3,0,0,0,.21-.33,2.21,2.21,0,0,0,.18-.55,2.83,2.83,0,0,0,0-.29,1.43,1.43,0,0,0-.24-.78,1.07,1.07,0,0,0-.46-.41,1.37,1.37,0,0,0-.45-.13,1.61,1.61,0,0,0-.69.1,1.23,1.23,0,0,0-.52.38,1.75,1.75,0,0,0-.18.29l.22.05a.39.39,0,0,1,.27.38.49.49,0,0,1-.06.29.48.48,0,0,1-.5.19.43.43,0,0,1-.35-.45,1.32,1.32,0,0,1,.15-.62,1.46,1.46,0,0,1,.22-.33,1.76,1.76,0,0,1,.58-.43,1.86,1.86,0,0,1,.46-.13l.27,0H686a2.4,2.4,0,0,1,.79.19,1.71,1.71,0,0,1,.63.46,1.4,1.4,0,0,1,.34.69c0,.11,0,.22,0,.34a1.52,1.52,0,0,1-.12.59,1.91,1.91,0,0,1-.32.51c-.11.12-.22.24-.34.35s-.32.27-.49.41l-.45.36-.37.3-.34.3-.38.32-.13.12h2.06l.3,0a.12.12,0,0,0,.11-.09c0-.12.08-.23.11-.35s0-.23.06-.34Z" transform="translate(-556.06 -317.58)"/><path class="cls-3" d="M682.28,447.36h-.19a1.32,1.32,0,0,1-.44-.08l-.62-.2a1.32,1.32,0,0,0-.52-.08,1.19,1.19,0,0,0-.73.25.66.66,0,0,0-.24.33.17.17,0,0,1-.22.12.14.14,0,0,1-.09-.19,1.26,1.26,0,0,1,.2-.46,2.2,2.2,0,0,1,.4-.51,1.48,1.48,0,0,1,.61-.34.88.88,0,0,1,.36,0,.74.74,0,0,1,.44.18,3,3,0,0,1,.3.32,1.57,1.57,0,0,0,.32.31.56.56,0,0,0,.56,0,.91.91,0,0,0,.38-.32c.09-.11.18-.24.26-.35s.07-.11.11-.15a.15.15,0,0,1,.24.05.17.17,0,0,1,0,.1c-.09.15-.18.3-.28.44s-.22.28-.33.42l-.22.25-.71.72-.38.36-.25.23-.43.37-.32.28-.41.38c-.17.16-.34.32-.5.49l-.21.23.35,0a1.34,1.34,0,0,1,.4.07l.53.18a1.6,1.6,0,0,0,.47.11,1.34,1.34,0,0,0,.49,0,1.62,1.62,0,0,0,.52-.23,1.47,1.47,0,0,0,.32-.29,1.42,1.42,0,0,0,.27-.48.25.25,0,0,1,0-.07.15.15,0,0,1,.17-.06.12.12,0,0,1,.1.09.29.29,0,0,1,0,.13,2,2,0,0,1-.26.62c-.08.12-.15.24-.24.35a2,2,0,0,1-.34.37,1.66,1.66,0,0,1-.42.29,1.53,1.53,0,0,1-.46.14.86.86,0,0,1-.5-.05.76.76,0,0,1-.23-.13L680,451a.46.46,0,0,0-.26-.15.69.69,0,0,0-.45,0,1.11,1.11,0,0,0-.34.22,2.21,2.21,0,0,0-.4.46.57.57,0,0,0-.08.13s-.09,0-.14,0-.06,0-.09,0a.1.1,0,0,1,0-.13,2.12,2.12,0,0,1,.11-.21,5,5,0,0,1,.44-.59l.28-.33c.17-.18.34-.36.52-.53l.37-.35.25-.23.37-.35.46-.39.32-.29.38-.36.35-.33.18-.2Z" transform="translate(-556.06 -317.58)"/><path d="M736.76,380.32h3.61a.78.78,0,0,1,.22,0,.21.21,0,0,1,.17.23.21.21,0,0,1-.17.24.71.71,0,0,1-.2,0h-3.63V381c0,1.16,0,2.32,0,3.48a1.07,1.07,0,0,1,0,.25.2.2,0,0,1-.23.15c-.12,0-.2,0-.23-.15a.62.62,0,0,1,0-.19c0-.94,0-1.87,0-2.81v-.85h-3.66l-.24,0a.2.2,0,0,1-.13-.21.19.19,0,0,1,.11-.22.87.87,0,0,1,.22-.05h3.7v-3.67a.5.5,0,0,1,0-.17.21.21,0,0,1,.24-.17.22.22,0,0,1,.24.2,1.48,1.48,0,0,1,0,.21c0,1.16,0,2.32,0,3.47Z" transform="translate(-556.06 -317.58)"/><path class="cls-3" d="M751.85,384.87h1.66c.24,0,.47,0,.71,0h.07a.15.15,0,0,0,.14-.11,3.58,3.58,0,0,0,.11-.35c0-.11,0-.22.06-.33l0-.05h.3c-.08.55-.18,1.09-.27,1.63h-3.71a1.55,1.55,0,0,1,0-.22.18.18,0,0,1,0-.1l.85-.82,0,0,.75-.74c.2-.19.39-.37.58-.57a3.34,3.34,0,0,0,.67-.95,1.73,1.73,0,0,0,.18-.92,1.35,1.35,0,0,0-.67-1.1,1.29,1.29,0,0,0-.6-.17,1.44,1.44,0,0,0-1,.33,1.18,1.18,0,0,0-.36.49h.11a.48.48,0,0,1,.14.9.49.49,0,0,1-.54-.07.39.39,0,0,1-.15-.32,1.39,1.39,0,0,1,.38-1,1.89,1.89,0,0,1,1.34-.63,2.59,2.59,0,0,1,1.23.22,1.61,1.61,0,0,1,1,1,1.68,1.68,0,0,1-.18,1.43,3.75,3.75,0,0,1-.77.82l-1.14.92-.86.75Z" transform="translate(-556.06 -317.58)"/><path d="M698.09,379.36H698a2.14,2.14,0,0,1-.76-.14c-.22-.07-.43-.15-.65-.2a1.31,1.31,0,0,0-.93.1.88.88,0,0,0-.46.47c0,.1-.08.13-.17.13s-.14-.05-.15-.15a.69.69,0,0,1,.08-.28,2.24,2.24,0,0,1,.79-1,1.27,1.27,0,0,1,.75-.22.84.84,0,0,1,.56.26c.14.14.26.29.39.43a.76.76,0,0,0,.4.26.65.65,0,0,0,.54-.13,1.79,1.79,0,0,0,.37-.41l.2-.3a.2.2,0,0,1,.19-.11c.1,0,.16.08.12.18a1.64,1.64,0,0,1-.12.22,5.67,5.67,0,0,1-.6.79c-.28.32-.58.62-.88.91s-.53.49-.8.73l-.94.84-.65.63-.2.21-.05.06h.43a1.75,1.75,0,0,1,.59.14,6,6,0,0,0,.6.19,1.47,1.47,0,0,0,1-.1,1.56,1.56,0,0,0,.81-.73,2.6,2.6,0,0,0,.1-.25c.05-.1.09-.12.19-.11a.13.13,0,0,1,.13.16,1.68,1.68,0,0,1-.09.32,3.14,3.14,0,0,1-.76,1.12,1.84,1.84,0,0,1-.9.48,1.06,1.06,0,0,1-.53,0,1,1,0,0,1-.49-.35,3.41,3.41,0,0,0-.42-.43.56.56,0,0,0-.48-.13,1.12,1.12,0,0,0-.64.34,2.15,2.15,0,0,0-.4.5.18.18,0,0,1-.22.11.12.12,0,0,1-.09-.19,3.54,3.54,0,0,1,.19-.33,9.28,9.28,0,0,1,1.2-1.38l1-.9.92-.81a9,9,0,0,0,.93-.92S698.08,379.38,698.09,379.36Z" transform="translate(-556.06 -317.58)"/><path class="cls-6" d="M718.71,382.68h.43a1.81,1.81,0,0,1,.59.14,6,6,0,0,0,.6.19,1.47,1.47,0,0,0,1-.1,1.6,1.6,0,0,0,.81-.73,2.6,2.6,0,0,0,.1-.25c0-.1.09-.12.19-.11a.14.14,0,0,1,.13.17,1.81,1.81,0,0,1-.09.31,3.14,3.14,0,0,1-.76,1.12,1.84,1.84,0,0,1-.9.48,1.06,1.06,0,0,1-.53,0,1,1,0,0,1-.49-.35,4.26,4.26,0,0,0-.42-.43.56.56,0,0,0-.48-.13,1.12,1.12,0,0,0-.64.34,2.38,2.38,0,0,0-.4.5.19.19,0,0,1-.22.11.13.13,0,0,1-.1-.19,3.45,3.45,0,0,1,.2-.32,9.36,9.36,0,0,1,1.2-1.39l1-.9.92-.81a9,9,0,0,0,.93-.92s0,0,0,0h0a2.12,2.12,0,0,1-.89-.18,4.45,4.45,0,0,0-.65-.19,1.41,1.41,0,0,0-.9.17.84.84,0,0,0-.39.44.17.17,0,0,1-.21.12.13.13,0,0,1-.11-.13,1.13,1.13,0,0,1,0-.18,2.24,2.24,0,0,1,.84-1.08,1.25,1.25,0,0,1,.75-.22.84.84,0,0,1,.56.26c.14.14.26.29.39.43a.72.72,0,0,0,.4.26.65.65,0,0,0,.54-.13,1.79,1.79,0,0,0,.37-.41l.2-.3a.2.2,0,0,1,.19-.11c.1,0,.16.08.12.18a1.19,1.19,0,0,1-.12.22,7.81,7.81,0,0,1-.6.79c-.28.32-.58.62-.88.92l-.8.72-.94.84c-.23.21-.44.42-.65.63l-.21.21Z" transform="translate(-556.06 -317.58)"/><path class="cls-3" d="M749.15,379.36h-.06a2.12,2.12,0,0,1-.89-.18,4.45,4.45,0,0,0-.65-.19,1.41,1.41,0,0,0-.9.17.82.82,0,0,0-.39.43c0,.11-.11.15-.2.13s-.12-.06-.11-.13a.38.38,0,0,1,0-.18,2.08,2.08,0,0,1,.83-1.08,1.2,1.2,0,0,1,.75-.22.89.89,0,0,1,.56.26c.14.14.26.28.39.43a.72.72,0,0,0,.4.26.65.65,0,0,0,.54-.13,2.1,2.1,0,0,0,.38-.41l.19-.3a.2.2,0,0,1,.21-.11.12.12,0,0,1,.1.17,1.27,1.27,0,0,1-.12.23,7.81,7.81,0,0,1-.6.79c-.28.32-.58.62-.89.92s-.62.57-.94.86-.63.55-.94.84-.47.46-.7.7l-.06.07.24,0a2.09,2.09,0,0,1,.79.15,6.36,6.36,0,0,0,.62.19,1.63,1.63,0,0,0,1.85-1l0-.08c0-.09.08-.12.19-.11a.13.13,0,0,1,.13.17,2,2,0,0,1-.06.23,3,3,0,0,1-.92,1.3,1.63,1.63,0,0,1-.84.39,1,1,0,0,1-1-.37l-.34-.38a.63.63,0,0,0-.66-.17,1.1,1.1,0,0,0-.54.32,2.38,2.38,0,0,0-.4.5c-.06.1-.11.13-.21.11s-.15-.1-.1-.19a1.81,1.81,0,0,1,.2-.33,7.27,7.27,0,0,1,.74-.92c.25-.26.5-.51.77-.75l.41-.38.65-.59.71-.63.51-.5Z" transform="translate(-556.06 -317.58)"/><path class="cls-6" d="M727.25,385.31v.32l-1.61,0-1.61,0v-.31h.49l.5-.05.13-.05a.2.2,0,0,0,.12-.17v-4.7a3.07,3.07,0,0,1-1.3.24v-.33h.17a3.3,3.3,0,0,0,.88-.14,2.07,2.07,0,0,0,.66-.38.24.24,0,0,1,.27,0,.12.12,0,0,1,0,.1.76.76,0,0,1,0,.15v5a.23.23,0,0,0,.2.26,2.2,2.2,0,0,0,.37.06Z" transform="translate(-556.06 -317.58)"/><path d="M708.33,379.59h-3.91a.69.69,0,0,1-.2,0,.21.21,0,0,1-.17-.23.22.22,0,0,1,.18-.23,1.09,1.09,0,0,1,.26,0h7.71l.22,0a.25.25,0,0,1,.17.36.18.18,0,0,1-.13.11l-.21,0Z" transform="translate(-556.06 -317.58)"/><path d="M708.34,381.56h3.89a.83.83,0,0,1,.22,0,.25.25,0,0,1,0,.46l-.23,0h-7.94a.25.25,0,0,1-.2-.37.17.17,0,0,1,.12-.11l.24,0Z" transform="translate(-556.06 -317.58)"/></svg>