<svg id="Layer_1" data-name="Layer 1" xmlns="http://www.w3.org/2000/svg" viewBox="0 0 246.47 363.13"><defs><style>.cls-1,.cls-2,.cls-4,.cls-5,.cls-6,.cls-9{fill:none;stroke-miterlimit:10;}.cls-1,.cls-4,.cls-5,.cls-6,.cls-9{stroke:#000;}.cls-2{stroke:red;}.cls-2,.cls-4{stroke-width:2px;}.cls-3{fill:red;}.cls-5{stroke-dasharray:5.05 5.05;}.cls-6{stroke-dasharray:5 5;}.cls-7{font-size:18px;font-family:TimesNewRomanPSMT, Times New Roman;}.cls-8{fill:#fff;}.cls-9{stroke-dasharray:4.92 4.92;}</style></defs><title>conjugation</title><path class="cls-1" d="M629,444a30.14,30.14,0,0,1,9,21.5" transform="translate(-554.83 -272.37)"/><path class="cls-1" d="M629,488.72a33.89,33.89,0,0,0,9-23.22" transform="translate(-554.83 -272.37)"/><line class="cls-2" x1="51.17" y1="193.63" x2="143.52" y2="285.07"/><polygon class="cls-3" points="136.7 288.84 151.17 292.64 147.22 278.21 136.7 288.84"/><line class="cls-1" x1="211.99" y1="194.13" x2="28.17" y2="194.13"/><polygon points="210.53 189.14 219.17 194.13 210.53 199.11 210.53 189.14"/><line class="cls-2" x1="50.67" y1="194.13" x2="143.59" y2="100.27"/><polygon class="cls-3" points="147.37 107.09 151.17 92.63 136.74 96.57 147.37 107.09"/><line class="cls-1" x1="50.67" y1="33.8" x2="50.67" y2="355.95"/><polygon points="45.68 35.26 50.67 26.63 55.65 35.26 45.68 35.26"/><polygon points="45.68 354.49 50.67 363.13 55.65 354.49 45.68 354.49"/><line class="cls-4" x1="51.17" y1="193.63" x2="51.17" y2="103.39"/><polygon points="58.65 105.58 51.17 92.63 43.69 105.58 58.65 105.58"/><line class="cls-4" x1="51.17" y1="193.63" x2="140.4" y2="193.63"/><polygon points="138.21 201.1 151.17 193.63 138.21 186.15 138.21 201.1"/><line class="cls-1" x1="151.17" y1="92.63" x2="151.17" y2="95.13"/><line class="cls-5" x1="151.17" y1="100.18" x2="151.17" y2="188.6"/><line class="cls-1" x1="151.17" y1="191.13" x2="151.17" y2="193.63"/><line class="cls-1" x1="151.17" y1="92.63" x2="148.67" y2="92.63"/><line class="cls-6" x1="143.67" y1="92.63" x2="56.17" y2="92.63"/><line class="cls-1" x1="53.67" y1="92.63" x2="51.17" y2="92.63"/><text class="cls-7" transform="translate(0 14.96)">imaginary axis</text><text class="cls-7" transform="translate(186 217.96)">real axis</text><path class="cls-8" d="M648.06,414.26l-1.27,1.27L639,407.77l7.77-7.77,7.76,7.77-6.43,6.43a0,0,0,0,1,0,0,.83.83,0,0,0,.1-.95c-.24-.45-.51-.89-.77-1.34l-1.05-1.73c-.34-.57-.68-1.14-1-1.71-.15-.25-.32-.5-.46-.76a2.64,2.64,0,0,1-.19-.56,7.63,7.63,0,0,1-.21-1.16,2.75,2.75,0,0,1,0-.81,2.41,2.41,0,0,1,.85-1.52,1.59,1.59,0,0,1,.64-.31.3.3,0,0,0-.06.11,1.33,1.33,0,0,0-.19.83,1,1,0,0,0,.4.78.62.62,0,0,0,.26.12.79.79,0,0,0,.8-.26,1,1,0,0,0,.26-.42,1.21,1.21,0,0,0,0-.86A1.32,1.32,0,0,0,647,403a1.27,1.27,0,0,0-.85-.2,2,2,0,0,0-1.11.52,2.8,2.8,0,0,0-.91,1.53,4.28,4.28,0,0,0-.09.61c0,.25,0,.51,0,.76s0,.24,0,.36h0a2.25,2.25,0,0,0-.61-.28,1.89,1.89,0,0,0-1.08,0,2.22,2.22,0,0,0-.68.36,1.76,1.76,0,0,0-.48.57,1.64,1.64,0,0,0-.13,1,4.75,4.75,0,0,0,.45,1.28c.2.4.42.78.65,1.17.11.2.22.23.38.13s.2-.18.14-.32-.08-.18-.13-.27c-.18-.31-.37-.62-.53-.94a3.76,3.76,0,0,1-.47-1.3,1,1,0,0,1,.28-.85.56.56,0,0,1,.64-.1,2,2,0,0,1,.68.57c.15.21.31.42.44.64l.89,1.47.88,1.47,1.07,1.81.54.87a3.78,3.78,0,0,0,.22.33.56.56,0,0,0,.75.11Z" transform="translate(-554.83 -272.37)"/><path d="M648.06,414.26l-.12.08a.56.56,0,0,1-.75-.11,3.78,3.78,0,0,1-.22-.33l-.54-.87-1.07-1.81-.88-1.47-.89-1.47c-.13-.22-.29-.43-.44-.64a2,2,0,0,0-.68-.57.56.56,0,0,0-.64.1,1,1,0,0,0-.28.85,3.76,3.76,0,0,0,.47,1.3c.16.32.35.63.53.94.05.09.09.18.13.27s0,.24-.14.32-.27.07-.38-.13c-.23-.39-.45-.77-.65-1.17a4.75,4.75,0,0,1-.45-1.28,1.64,1.64,0,0,1,.13-1,1.76,1.76,0,0,1,.48-.57,2.22,2.22,0,0,1,.68-.36,1.89,1.89,0,0,1,1.08,0,2.25,2.25,0,0,1,.61.28h0c0-.12,0-.24,0-.36s0-.51,0-.76a4.28,4.28,0,0,1,.09-.61,2.8,2.8,0,0,1,.91-1.53,2,2,0,0,1,1.11-.52,1.27,1.27,0,0,1,.85.2,1.32,1.32,0,0,1,.52.64,1.21,1.21,0,0,1,0,.86,1,1,0,0,1-.26.42.79.79,0,0,1-.8.26.62.62,0,0,1-.26-.12,1,1,0,0,1-.4-.78,1.33,1.33,0,0,1,.19-.83.3.3,0,0,1,.06-.11,1.59,1.59,0,0,0-.64.31,2.41,2.41,0,0,0-.85,1.52,2.75,2.75,0,0,0,0,.81,7.63,7.63,0,0,0,.21,1.16,2.64,2.64,0,0,0,.19.56c.14.26.31.51.46.76.35.57.69,1.14,1,1.71l1.05,1.73c.26.45.53.89.77,1.34a.83.83,0,0,1-.1.95,0,0,0,0,0,0,0Z" transform="translate(-554.83 -272.37)"/><path class="cls-8" d="M642.45,458H640V442h10v16h-7.46l.23,0a2.59,2.59,0,0,0,.72-.21,4.27,4.27,0,0,0,1.26-.88c.19-.19.37-.38.54-.58s.38-.48.56-.73a9.8,9.8,0,0,0,.79-1.32,12.47,12.47,0,0,0,.55-1.17q.3-.75.54-1.5c.14-.45.24-.9.35-1.35,0-.21.08-.42.12-.64s0-.42.07-.63.05-.42.06-.62,0-.45,0-.67,0-.56-.06-.84-.07-.47-.12-.71a4.09,4.09,0,0,0-.36-1.07,2.49,2.49,0,0,0-.64-.87,2.26,2.26,0,0,0-.38-.25,1.84,1.84,0,0,0-.62-.17,2.38,2.38,0,0,0-.6,0,3.07,3.07,0,0,0-.89.33,4.93,4.93,0,0,0-1,.73c-.17.17-.34.35-.5.53a5.28,5.28,0,0,0-.36.44c-.18.24-.35.48-.51.73s-.34.56-.5.85-.23.46-.34.69a6.17,6.17,0,0,0-.29.65c-.16.44-.32.87-.47,1.31-.09.28-.17.57-.24.85s-.14.62-.2.93c0,.15,0,.31-.07.46s0,.36-.06.54,0,.46-.06.68,0,.59,0,.88,0,.43,0,.64.06.42.11.63a4.18,4.18,0,0,0,.43,1.18,2.38,2.38,0,0,0,.61.76,1.73,1.73,0,0,0,1.07.39Z" transform="translate(-554.83 -272.37)"/><path d="M642.45,458h-.06a1.73,1.73,0,0,1-1.07-.39,2.38,2.38,0,0,1-.61-.76,4.18,4.18,0,0,1-.43-1.18c0-.21-.08-.42-.11-.63s0-.42,0-.64,0-.58,0-.88,0-.45.06-.68,0-.36.06-.54,0-.31.07-.46c.06-.31.13-.62.2-.93s.15-.57.24-.85c.15-.44.31-.87.47-1.31a6.17,6.17,0,0,1,.29-.65c.11-.23.22-.47.34-.69s.33-.57.5-.85.33-.49.51-.73a5.28,5.28,0,0,1,.36-.44c.16-.18.33-.36.5-.53a4.93,4.93,0,0,1,1-.73,3.07,3.07,0,0,1,.89-.33,2.38,2.38,0,0,1,.6,0,1.84,1.84,0,0,1,.62.17,2.26,2.26,0,0,1,.38.25,2.49,2.49,0,0,1,.64.87,4.09,4.09,0,0,1,.36,1.07c.05.24.09.48.12.71s0,.56.06.84,0,.45,0,.67,0,.41-.06.62,0,.42-.07.63-.07.43-.12.64c-.11.45-.21.9-.35,1.35s-.34,1-.54,1.5a12.47,12.47,0,0,1-.55,1.17,9.8,9.8,0,0,1-.79,1.32c-.18.25-.36.49-.56.73s-.35.39-.54.58a4.27,4.27,0,0,1-1.26.88,2.59,2.59,0,0,1-.72.21l-.23,0Zm-.22-7.44h3.93c.07,0,.16,0,.21,0s0-.13.06-.2h0c.08-.38.17-.75.25-1.13s.12-.56.16-.84.07-.5.11-.76a5.63,5.63,0,0,0,0-.59c0-.34,0-.67,0-1,0-.16,0-.32,0-.47a2.42,2.42,0,0,0-.26-.88.85.85,0,0,0-.71-.45,1,1,0,0,0-.57.12,2.34,2.34,0,0,0-.77.62c-.18.23-.35.46-.51.7s-.36.6-.52.91A8.72,8.72,0,0,0,643,448c-.14.4-.27.81-.4,1.22s-.18.66-.27,1C642.28,450.35,642.26,450.45,642.23,450.57Zm-.17.65-.12.46-.27,1.19c0,.22-.08.44-.11.66s-.06.42-.08.63,0,.49-.05.73,0,.47,0,.71,0,.28,0,.41a5.62,5.62,0,0,0,.09.57,1.64,1.64,0,0,0,.3.69.81.81,0,0,0,.79.28,1.64,1.64,0,0,0,.87-.46,4.23,4.23,0,0,0,.61-.72,10.56,10.56,0,0,0,.72-1.22c.11-.21.21-.42.3-.64s.28-.7.41-1.06c.23-.62.39-1.26.56-1.9,0-.11,0-.22.08-.33Z" transform="translate(-554.83 -272.37)"/><path class="cls-8" d="M642.23,450.57c0-.12,0-.22.08-.32.09-.33.17-.67.27-1s.26-.82.4-1.22a8.72,8.72,0,0,1,.64-1.47c.16-.31.34-.62.52-.91s.33-.47.51-.7a2.34,2.34,0,0,1,.77-.62,1,1,0,0,1,.57-.12.85.85,0,0,1,.71.45,2.42,2.42,0,0,1,.26.88c0,.15,0,.31,0,.47,0,.34,0,.67,0,1a5.63,5.63,0,0,1,0,.59c0,.26-.06.51-.11.76s-.1.56-.16.84-.17.75-.25,1.13h0c0,.07,0,.16-.06.2s-.14,0-.21,0h-3.93Z" transform="translate(-554.83 -272.37)"/><path class="cls-8" d="M642.06,451.22h4.14c0,.11-.05.22-.08.33-.17.64-.33,1.28-.56,1.9-.13.36-.27.71-.41,1.06s-.19.43-.3.64a10.56,10.56,0,0,1-.72,1.22,4.23,4.23,0,0,1-.61.72,1.64,1.64,0,0,1-.87.46.81.81,0,0,1-.79-.28,1.64,1.64,0,0,1-.3-.69,5.62,5.62,0,0,1-.09-.57c0-.13,0-.27,0-.41s0-.47,0-.71,0-.49.05-.73,0-.42.08-.63.07-.44.11-.66l.27-1.19Z" transform="translate(-554.83 -272.37)"/><path class="cls-8" d="M589.18,371H587v-12.6h9V371h-6.34l.46-.07a4.09,4.09,0,0,0,1.23-.5,4.7,4.7,0,0,0,1-.8l.12-.13c.13-.16.27-.32.39-.49a3.83,3.83,0,0,0,.5-.91c.09-.23.18-.47.25-.71s.16-.63.24-.95c.13-.5.26-1,.38-1.51s.21-.81.31-1.22.27-1.07.41-1.6.25-1,.37-1.48a2.28,2.28,0,0,0,.1-.52.48.48,0,0,0-.48-.48.7.7,0,0,0-.5.16.57.57,0,0,0-.21.27c-.07.26-.13.52-.2.79-.12.49-.25,1-.37,1.49l-.36,1.41c-.12.51-.25,1-.38,1.52a3.09,3.09,0,0,1-.14.46,2,2,0,0,1-.38.57,2.63,2.63,0,0,1-.72.61,1.7,1.7,0,0,1-1.08.21.88.88,0,0,1-.63-.38,1.56,1.56,0,0,1-.26-.83,3.29,3.29,0,0,1,0-.77c0-.2,0-.4.1-.6s.18-.66.28-1,.22-.64.34-1,.21-.56.32-.83A2.64,2.64,0,0,0,591,361a1.66,1.66,0,0,0-.08-.63,1.28,1.28,0,0,0-.39-.61,1.44,1.44,0,0,0-.42-.27,1.68,1.68,0,0,0-.8-.09,1.64,1.64,0,0,0-.64.23,2.12,2.12,0,0,0-.56.47,3.69,3.69,0,0,0-.48.71,4.79,4.79,0,0,0-.47,1.26c0,.15,0,.23.15.26a.23.23,0,0,0,.28-.13,1,1,0,0,0,.06-.16,5.65,5.65,0,0,1,.47-1.2,2.46,2.46,0,0,1,.6-.76,1.21,1.21,0,0,1,.78-.29.36.36,0,0,1,.38.31,1.52,1.52,0,0,1,0,.6,5.05,5.05,0,0,1-.25.84c-.15.43-.32.85-.47,1.28s-.21.61-.3.92-.15.6-.22.9a3.71,3.71,0,0,0-.08.81s0,.08,0,.12,0,.27.06.41a1.82,1.82,0,0,0,.41.85,1.77,1.77,0,0,0,.8.52,2.36,2.36,0,0,0,1,.14,3,3,0,0,0,.42,0,2.37,2.37,0,0,0,1.07-.54l.21-.17a10.93,10.93,0,0,1-.42,1.41,4.73,4.73,0,0,1-.39.78,6,6,0,0,1-.4.58,4.1,4.1,0,0,1-.5.52,2.07,2.07,0,0,1-.6.37,2.13,2.13,0,0,1-.7.18,1.76,1.76,0,0,1-.51,0,1.44,1.44,0,0,1-.77-.4.85.85,0,0,1-.19-.3h.15a1.54,1.54,0,0,0,.31-.05,1,1,0,0,0,.64-1.09.49.49,0,0,0-.3-.37.86.86,0,0,0-.61,0,1,1,0,0,0-.67.62,1.66,1.66,0,0,0-.07.7,1.39,1.39,0,0,0,.14.45,1.46,1.46,0,0,0,.4.49,2,2,0,0,0,1,.41Z" transform="translate(-554.83 -272.37)"/><path d="M589.18,371l-.16,0a2,2,0,0,1-1-.41,1.46,1.46,0,0,1-.4-.49,1.39,1.39,0,0,1-.14-.45,1.66,1.66,0,0,1,.07-.7,1,1,0,0,1,.67-.62.86.86,0,0,1,.61,0,.49.49,0,0,1,.3.37,1,1,0,0,1-.64,1.09,1.54,1.54,0,0,1-.31.05h-.15a.85.85,0,0,0,.19.3,1.44,1.44,0,0,0,.77.4,1.76,1.76,0,0,0,.51,0,2.13,2.13,0,0,0,.7-.18,2.07,2.07,0,0,0,.6-.37,4.1,4.1,0,0,0,.5-.52,6,6,0,0,0,.4-.58,4.73,4.73,0,0,0,.39-.78,10.93,10.93,0,0,0,.42-1.41l-.21.17a2.37,2.37,0,0,1-1.07.54,3,3,0,0,1-.42,0,2.36,2.36,0,0,1-1-.14,1.77,1.77,0,0,1-.8-.52,1.82,1.82,0,0,1-.41-.85c0-.14,0-.28-.06-.41s0-.08,0-.12a3.71,3.71,0,0,1,.08-.81c.07-.3.13-.6.22-.9s.19-.62.3-.92.32-.85.47-1.28a5.05,5.05,0,0,0,.25-.84,1.52,1.52,0,0,0,0-.6.36.36,0,0,0-.38-.31,1.21,1.21,0,0,0-.78.29,2.46,2.46,0,0,0-.6.76,5.65,5.65,0,0,0-.47,1.2,1,1,0,0,1-.06.16.23.23,0,0,1-.28.13c-.15,0-.19-.11-.15-.26a4.79,4.79,0,0,1,.47-1.26,3.69,3.69,0,0,1,.48-.71,2.12,2.12,0,0,1,.56-.47,1.64,1.64,0,0,1,.64-.23,1.68,1.68,0,0,1,.8.09,1.44,1.44,0,0,1,.42.27,1.28,1.28,0,0,1,.39.61,1.66,1.66,0,0,1,.08.63,2.64,2.64,0,0,1-.19.72c-.11.27-.22.55-.32.83s-.23.64-.34,1-.19.66-.28,1-.07.4-.1.6a3.29,3.29,0,0,0,0,.77,1.56,1.56,0,0,0,.26.83.88.88,0,0,0,.63.38,1.7,1.7,0,0,0,1.08-.21,2.63,2.63,0,0,0,.72-.61,2,2,0,0,0,.38-.57,3.09,3.09,0,0,0,.14-.46c.13-.51.26-1,.38-1.52l.36-1.41c.12-.5.25-1,.37-1.49.07-.27.13-.53.2-.79a.57.57,0,0,1,.21-.27.7.7,0,0,1,.5-.16.48.48,0,0,1,.48.48,2.28,2.28,0,0,1-.1.52c-.12.5-.25,1-.37,1.48s-.28,1.06-.41,1.6-.2.81-.31,1.22-.25,1-.38,1.51c-.08.32-.15.64-.24.95s-.16.48-.25.71a3.83,3.83,0,0,1-.5.91c-.12.17-.26.33-.39.49l-.12.13a4.7,4.7,0,0,1-1,.8,4.09,4.09,0,0,1-1.23.5l-.46.07h-.49Z" transform="translate(-554.83 -272.37)"/><path class="cls-8" d="M711.79,464.18H710V455h11v9.14h-5.18l.29,0a2.16,2.16,0,0,0,.91-.35,3.49,3.49,0,0,0,.65-.56l.33-.41a4.71,4.71,0,0,0,.57-1.06,1.16,1.16,0,0,0,.09-.41c0-.07,0-.12-.1-.14a.3.3,0,0,0-.13,0c-.15,0-.18,0-.22.16a6.2,6.2,0,0,1-.37.89,3.24,3.24,0,0,1-.82,1,2.2,2.2,0,0,1-.71.41,1.54,1.54,0,0,1-.74.08.89.89,0,0,1-.72-.67,1.67,1.67,0,0,1-.05-.86c0-.19.07-.39.11-.58.11-.45.23-.89.34-1.33s.3-1.18.44-1.77a5.58,5.58,0,0,1,.35-1.07,2.35,2.35,0,0,1,.61-.82,1.32,1.32,0,0,1,.75-.31,1.73,1.73,0,0,1,.78.12l.2.09v0a1.11,1.11,0,0,0-.58.34.88.88,0,0,0-.25.77.54.54,0,0,0,.21.37.82.82,0,0,0,.71.11,1,1,0,0,0,.63-.5,1,1,0,0,0,.12-.6.85.85,0,0,0-.17-.51,1.31,1.31,0,0,0-.63-.46,2.45,2.45,0,0,0-.65-.15,1.85,1.85,0,0,0-.74.06,1.94,1.94,0,0,0-.7.39,2.9,2.9,0,0,0-.6.71l-.13.19a2.19,2.19,0,0,0-.36-.63,1.76,1.76,0,0,0-.57-.48,2.06,2.06,0,0,0-.8-.24,2.66,2.66,0,0,0-.63,0,2.63,2.63,0,0,0-.67.22,4,4,0,0,0-.54.37,3.41,3.41,0,0,0-.56.58,4.62,4.62,0,0,0-.55.9,2.23,2.23,0,0,0-.22.61c0,.16,0,.25.16.28a.22.22,0,0,0,.28-.16l0-.07a5.59,5.59,0,0,1,.38-.87,3,3,0,0,1,.44-.63,2.57,2.57,0,0,1,.86-.67,1.72,1.72,0,0,1,.92-.17.87.87,0,0,1,.66.46,1.5,1.5,0,0,1,.15.86,5.17,5.17,0,0,1-.07.55c-.07.35-.14.69-.23,1s-.24.94-.36,1.41-.19.75-.29,1.12a3.83,3.83,0,0,1-.38,1,2,2,0,0,1-.62.74,1.17,1.17,0,0,1-.61.25,2.27,2.27,0,0,1-.52,0,1.31,1.31,0,0,1-.52-.19l.1,0a1.08,1.08,0,0,0,.54-.37,1,1,0,0,0,.19-.47.65.65,0,0,0-.08-.47.7.7,0,0,0-.72-.28,1,1,0,0,0-.66.39,1.07,1.07,0,0,0-.19.88,1,1,0,0,0,.46.65,2.08,2.08,0,0,0,1.08.33Z" transform="translate(-554.83 -272.37)"/><path d="M711.79,464.18h-.1a2.08,2.08,0,0,1-1.08-.33,1,1,0,0,1-.46-.65,1.07,1.07,0,0,1,.19-.88,1,1,0,0,1,.66-.39.7.7,0,0,1,.72.28.65.65,0,0,1,.08.47,1,1,0,0,1-.19.47,1.08,1.08,0,0,1-.54.37l-.1,0a1.31,1.31,0,0,0,.52.19,2.27,2.27,0,0,0,.52,0,1.17,1.17,0,0,0,.61-.25,2,2,0,0,0,.62-.74,3.83,3.83,0,0,0,.38-1c.1-.37.2-.75.29-1.12s.25-.94.36-1.41.16-.68.23-1a5.17,5.17,0,0,0,.07-.55,1.5,1.5,0,0,0-.15-.86.87.87,0,0,0-.66-.46,1.72,1.72,0,0,0-.92.17,2.57,2.57,0,0,0-.86.67,3,3,0,0,0-.44.63,5.59,5.59,0,0,0-.38.87l0,.07a.22.22,0,0,1-.28.16c-.15,0-.2-.12-.16-.28a2.23,2.23,0,0,1,.22-.61,4.62,4.62,0,0,1,.55-.9,3.41,3.41,0,0,1,.56-.58,4,4,0,0,1,.54-.37,2.63,2.63,0,0,1,.67-.22,2.66,2.66,0,0,1,.63,0,2.06,2.06,0,0,1,.8.24,1.76,1.76,0,0,1,.57.48,2.19,2.19,0,0,1,.36.63l.13-.19a2.9,2.9,0,0,1,.6-.71,1.94,1.94,0,0,1,.7-.39,1.85,1.85,0,0,1,.74-.06,2.45,2.45,0,0,1,.65.15,1.31,1.31,0,0,1,.63.46.85.85,0,0,1,.17.51,1,1,0,0,1-.12.6,1,1,0,0,1-.63.5.82.82,0,0,1-.71-.11.54.54,0,0,1-.21-.37.88.88,0,0,1,.25-.77,1.11,1.11,0,0,1,.58-.34v0l-.2-.09a1.73,1.73,0,0,0-.78-.12,1.32,1.32,0,0,0-.75.31,2.35,2.35,0,0,0-.61.82,5.58,5.58,0,0,0-.35,1.07c-.14.59-.29,1.18-.44,1.77s-.23.88-.34,1.33c0,.19-.09.39-.11.58a1.67,1.67,0,0,0,.05.86.89.89,0,0,0,.72.67,1.54,1.54,0,0,0,.74-.08,2.2,2.2,0,0,0,.71-.41,3.24,3.24,0,0,0,.82-1,6.2,6.2,0,0,0,.37-.89c0-.12.07-.17.22-.16a.3.3,0,0,1,.13,0c.07,0,.09.07.1.14a1.16,1.16,0,0,1-.09.41,4.71,4.71,0,0,1-.57,1.06l-.33.41a3.49,3.49,0,0,1-.65.56,2.16,2.16,0,0,1-.91.35l-.29,0h-.14l-.26,0-.43-.1a2,2,0,0,1-.57-.32,1.89,1.89,0,0,1-.46-.52c-.08-.13-.14-.26-.21-.4a2.84,2.84,0,0,1-.45.64,2.5,2.5,0,0,1-.38.35,1.75,1.75,0,0,1-1,.36h-.15Z" transform="translate(-554.83 -272.37)"/><path class="cls-8" d="M711.89,464.18h.05a1.75,1.75,0,0,0,1-.36,2.5,2.5,0,0,0,.38-.35,2.84,2.84,0,0,0,.45-.64c.07.14.13.27.21.4a1.89,1.89,0,0,0,.46.52,2,2,0,0,0,.57.32l.43.1.26,0Z" transform="translate(-554.83 -272.37)"/><path class="cls-8" d="M747.36,359.42H727.11l.14,0a3.47,3.47,0,0,0,1.75-.9,3.3,3.3,0,0,0,.93-1.59l.81-3.23.69-2.73a2.23,2.23,0,0,0,.08-.89,1.39,1.39,0,0,0-.67-1.07,1.62,1.62,0,0,0-1.34-.16,2.31,2.31,0,0,0-1,.63,3.93,3.93,0,0,0-.64.82,4.17,4.17,0,0,0-.44.9.89.89,0,0,0,0,.14.11.11,0,0,0,.09.13c.16.05.26,0,.32-.11l.1-.22a4.22,4.22,0,0,1,1-1.52,1.62,1.62,0,0,1,.93-.46c.34,0,.55.06.62.41a2.1,2.1,0,0,1,0,.9c-.07.3-.15.61-.22.91-.17.66-.34,1.31-.5,2-.3,1.17-.6,2.35-.89,3.52a3.86,3.86,0,0,1-.65,1.41,2,2,0,0,1-.84.69,1.36,1.36,0,0,1-1,0,.15.15,0,0,1-.11-.07l.08,0a.92.92,0,0,0,.54-.5.68.68,0,0,0,0-.59.6.6,0,0,0-.62-.33.92.92,0,0,0-.81.65.89.89,0,0,0,.29,1,1.57,1.57,0,0,0,.6.28l.21.05H666V344.48h88v14.94h-6l0,0a3.41,3.41,0,0,0,1.17-.37,4.71,4.71,0,0,0,2.28-2.82c.22-.82.42-1.63.62-2.45.29-1.13.57-2.26.86-3.39.07-.28.15-.57.21-.86a.46.46,0,0,0-.4-.58.47.47,0,0,0-.2,0,.61.61,0,0,0-.5.46c-.18.69-.35,1.38-.52,2.07-.25,1-.49,1.94-.74,2.92a.52.52,0,0,1-.06.16,2.52,2.52,0,0,1-.87,1,1.59,1.59,0,0,1-1,.3.85.85,0,0,1-.75-.44,1.51,1.51,0,0,1-.14-.35,2.72,2.72,0,0,1,0-1.1,8.09,8.09,0,0,1,.36-1.45c.19-.54.39-1.08.59-1.61a2.87,2.87,0,0,0,.17-.62,1.49,1.49,0,0,0-.17-.88,1.35,1.35,0,0,0-1.43-.63,1.72,1.72,0,0,0-1,.61,3.75,3.75,0,0,0-.63,1,3.85,3.85,0,0,0-.27.81c0,.12,0,.2.1.23a.23.23,0,0,0,.29-.09,1.07,1.07,0,0,0,.07-.19,5.22,5.22,0,0,1,.45-1.13,2.05,2.05,0,0,1,.62-.72,1,1,0,0,1,.64-.2.3.3,0,0,1,.31.21.92.92,0,0,1,.05.28,2.23,2.23,0,0,1-.14.81l-.54,1.46a11.76,11.76,0,0,0-.5,1.73,3.48,3.48,0,0,0,0,1.16,1.64,1.64,0,0,0,.57,1,2.22,2.22,0,0,0,1.74.43,2.27,2.27,0,0,0,1.22-.6l.1-.07c0,.14-.06.24-.09.35a6.09,6.09,0,0,1-.56,1.49,3.71,3.71,0,0,1-.89,1.15,2,2,0,0,1-1.58.52,1.31,1.31,0,0,1-.81-.38.62.62,0,0,1-.18-.29h.13a.82.82,0,0,0,.46-.13.89.89,0,0,0,.43-.77.53.53,0,0,0-.43-.54.88.88,0,0,0-.94.39,1.25,1.25,0,0,0-.07,1.17,1.41,1.41,0,0,0,.89.81C747.05,359.35,747.21,359.38,747.36,359.42ZM699.66,355l0,.07a1.83,1.83,0,0,0,.39.6,1.9,1.9,0,0,0,1.68.52,2.45,2.45,0,0,0,1.35-.74,3.76,3.76,0,0,0,.52-.67,3.82,3.82,0,0,0,.4-.81.7.7,0,0,0,.06-.32.14.14,0,0,0-.13-.14h-.14a.21.21,0,0,0-.11.08.34.34,0,0,0-.05.14,4.06,4.06,0,0,1-.33.77,2.85,2.85,0,0,1-.88,1,1.7,1.7,0,0,1-1.05.33.8.8,0,0,1-.51-.21,1,1,0,0,1-.29-.58,1.94,1.94,0,0,1,0-.83l.42-1.71c.16-.63.31-1.26.48-1.88a2.91,2.91,0,0,1,.47-.95,1.34,1.34,0,0,1,.65-.5,1.47,1.47,0,0,1,1,0l.23.11-.21.08a.92.92,0,0,0-.56.85.55.55,0,0,0,.37.51.8.8,0,0,0,.46,0,1,1,0,0,0,.58-1.41,1.18,1.18,0,0,0-.52-.44,1.84,1.84,0,0,0-.61-.16,1.66,1.66,0,0,0-1.11.21,2.5,2.5,0,0,0-.83.85l-.09.15a.49.49,0,0,1-.06-.13,1.88,1.88,0,0,0-.75-.85,1.91,1.91,0,0,0-.91-.25,2.15,2.15,0,0,0-1.14.29,3,3,0,0,0-.73.6,4,4,0,0,0-.76,1.23,2.34,2.34,0,0,0-.11.4.14.14,0,0,0,.14.18c.12,0,.23,0,.26-.11a2.09,2.09,0,0,1,.08-.23,3.64,3.64,0,0,1,.84-1.38,2.07,2.07,0,0,1,1.2-.61.85.85,0,0,1,.87.43,1.35,1.35,0,0,1,.13.71,5.74,5.74,0,0,1-.13.83q-.16.77-.36,1.53c-.15.57-.29,1.13-.45,1.7a2.78,2.78,0,0,1-.52,1,1.52,1.52,0,0,1-.54.43,1.37,1.37,0,0,1-.8.06,1.08,1.08,0,0,1-.45-.17l.1,0a.9.9,0,0,0,.64-.76.54.54,0,0,0-.34-.63.81.81,0,0,0-.46,0,1,1,0,0,0-.7,1.14.9.9,0,0,0,.45.62,2.1,2.1,0,0,0,1.18.27,1.63,1.63,0,0,0,.94-.38,2.08,2.08,0,0,0,.44-.45C699.49,355.27,699.57,355.14,699.66,355Zm15.28-2.76V357a.91.91,0,0,0,0,.23.31.31,0,0,0,.11.16.32.32,0,0,0,.51-.21,2.45,2.45,0,0,0,0-.27v-4.63h4.69a1,1,0,0,0,.25,0,.28.28,0,0,0,.22-.3c0-.16-.06-.27-.21-.3a1.54,1.54,0,0,0-.3,0h-4.65v-4.64a1.33,1.33,0,0,0,0-.28.29.29,0,0,0-.3-.24.27.27,0,0,0-.31.21,1,1,0,0,0,0,.24v4.71h-4.7a.7.7,0,0,0-.32.06.32.32,0,0,0,0,.57,1.35,1.35,0,0,0,.28,0h4.72Zm-47.28,2.39.08-.09c.3-.3.59-.61.9-.9l1.21-1.09c.4-.36.81-.71,1.2-1.09s.84-.83,1.23-1.28a7,7,0,0,0,.79-1.08l.07-.15a.16.16,0,0,0-.16-.21.24.24,0,0,0-.24.12,4.26,4.26,0,0,1-.74.93.8.8,0,0,1-.92.08,1.48,1.48,0,0,1-.3-.26l-.48-.53a1.06,1.06,0,0,0-.7-.34,1.58,1.58,0,0,0-.93.23,2.74,2.74,0,0,0-1.12,1.39.77.77,0,0,0-.07.26.17.17,0,0,0,.17.18c.16,0,.2,0,.25-.15a1,1,0,0,1,.41-.51,1.65,1.65,0,0,1,1.3-.25,4.25,4.25,0,0,1,.77.23,2.92,2.92,0,0,0,1.16.22h.06l0,.06c-.24.24-.48.49-.73.73s-.6.56-.9.83-.55.47-.82.72-.5.48-.76.71-.67.62-1,1a10.65,10.65,0,0,0-1,1.17q-.15.22-.27.45a.15.15,0,0,0,.12.23.24.24,0,0,0,.29-.14,3.12,3.12,0,0,1,.51-.64,1.51,1.51,0,0,1,.72-.42.82.82,0,0,1,.82.22c.16.16.3.33.45.5a1.47,1.47,0,0,0,.63.44,1.41,1.41,0,0,0,.46,0A1.89,1.89,0,0,0,671,356a2.84,2.84,0,0,0,.82-.68,4.09,4.09,0,0,0,.78-1.36,2,2,0,0,0,0-.24.16.16,0,0,0-.17-.18.19.19,0,0,0-.23.13l-.06.12a1.79,1.79,0,0,1-.48.73,2.08,2.08,0,0,1-1.94.55c-.26-.06-.5-.16-.75-.24a2.52,2.52,0,0,0-1-.19Zm17.13-.79h5.09l.22,0a.31.31,0,0,0,0-.58.92.92,0,0,0-.28-.05H679.75a.85.85,0,0,0-.23,0,.32.32,0,0,0,0,.61l.27,0Zm0-3.2h5.06a1.27,1.27,0,0,0,.26,0,.21.21,0,0,0,.15-.11.32.32,0,0,0-.22-.5l-.27,0h-10a1.86,1.86,0,0,0-.33,0,.29.29,0,0,0-.2.3.28.28,0,0,0,.21.3,1.07,1.07,0,0,0,.25,0Zm54.44.4a.86.86,0,0,0-.88.85.89.89,0,0,0,.87.9.9.9,0,0,0,.89-.88A.87.87,0,0,0,739.22,351.05Zm-7.7-5.91a.76.76,0,0,0-.5.17.87.87,0,0,0-.4.67.58.58,0,0,0,.59.63,1,1,0,0,0,.88-.6.79.79,0,0,0,0-.43A.58.58,0,0,0,731.52,345.14Z" transform="translate(-554.83 -272.37)"/><path d="M747.36,359.42c-.15,0-.31-.07-.45-.12a1.41,1.41,0,0,1-.89-.81,1.25,1.25,0,0,1,.07-1.17.88.88,0,0,1,.94-.39.53.53,0,0,1,.43.54.89.89,0,0,1-.43.77.82.82,0,0,1-.46.13h-.13a.62.62,0,0,0,.18.29,1.31,1.31,0,0,0,.81.38,2,2,0,0,0,1.58-.52,3.71,3.71,0,0,0,.89-1.15,6.09,6.09,0,0,0,.56-1.49c0-.11.06-.21.09-.35l-.1.07a2.27,2.27,0,0,1-1.22.6,2.22,2.22,0,0,1-1.74-.43,1.64,1.64,0,0,1-.57-1,3.48,3.48,0,0,1,0-1.16,11.76,11.76,0,0,1,.5-1.73l.54-1.46a2.23,2.23,0,0,0,.14-.81.92.92,0,0,0-.05-.28.3.3,0,0,0-.31-.21,1,1,0,0,0-.64.2,2.05,2.05,0,0,0-.62.72,5.22,5.22,0,0,0-.45,1.13,1.07,1.07,0,0,1-.07.19.23.23,0,0,1-.29.09c-.1,0-.13-.11-.1-.23a3.85,3.85,0,0,1,.27-.81,3.75,3.75,0,0,1,.63-1,1.72,1.72,0,0,1,1-.61,1.35,1.35,0,0,1,1.43.63,1.49,1.49,0,0,1,.17.88,2.87,2.87,0,0,1-.17.62c-.2.53-.4,1.07-.59,1.61A8.09,8.09,0,0,0,748,354a2.72,2.72,0,0,0,0,1.1,1.51,1.51,0,0,0,.14.35.85.85,0,0,0,.75.44,1.59,1.59,0,0,0,1-.3,2.52,2.52,0,0,0,.87-1,.52.52,0,0,0,.06-.16c.25-1,.49-1.95.74-2.92.17-.69.34-1.38.52-2.07a.61.61,0,0,1,.5-.46.47.47,0,0,1,.2,0,.46.46,0,0,1,.4.58c-.06.29-.14.58-.21.86-.29,1.13-.57,2.26-.86,3.39-.2.82-.4,1.63-.62,2.45a4.71,4.71,0,0,1-2.28,2.82,3.41,3.41,0,0,1-1.17.37l0,0Z" transform="translate(-554.83 -272.37)"/><path d="M726.49,359.42l-.21-.05a1.57,1.57,0,0,1-.6-.28.89.89,0,0,1-.29-1,.92.92,0,0,1,.81-.65.6.6,0,0,1,.62.33.68.68,0,0,1,0,.59.92.92,0,0,1-.54.5l-.08,0a.15.15,0,0,0,.11.07,1.36,1.36,0,0,0,1,0,2,2,0,0,0,.84-.69,3.86,3.86,0,0,0,.65-1.41c.29-1.17.59-2.35.89-3.52.16-.66.33-1.31.5-2,.07-.3.15-.61.22-.91a2.1,2.1,0,0,0,0-.9c-.07-.35-.28-.45-.62-.41a1.62,1.62,0,0,0-.93.46,4.22,4.22,0,0,0-1,1.52l-.1.22c-.06.13-.16.16-.32.11a.11.11,0,0,1-.09-.13.89.89,0,0,1,0-.14,4.17,4.17,0,0,1,.44-.9,3.93,3.93,0,0,1,.64-.82,2.31,2.31,0,0,1,1-.63,1.62,1.62,0,0,1,1.34.16,1.39,1.39,0,0,1,.67,1.07,2.23,2.23,0,0,1-.08.89l-.69,2.73-.81,3.23a3.3,3.3,0,0,1-.93,1.59,3.47,3.47,0,0,1-1.75.9l-.14,0Z" transform="translate(-554.83 -272.37)"/><path d="M699.66,355c-.09.13-.17.26-.26.38a2.08,2.08,0,0,1-.44.45,1.63,1.63,0,0,1-.94.38,2.1,2.1,0,0,1-1.18-.27.9.9,0,0,1-.45-.62,1,1,0,0,1,.7-1.14.81.81,0,0,1,.46,0,.54.54,0,0,1,.34.63.9.9,0,0,1-.64.76l-.1,0a1.08,1.08,0,0,0,.45.17,1.37,1.37,0,0,0,.8-.06,1.52,1.52,0,0,0,.54-.43,2.78,2.78,0,0,0,.52-1c.16-.57.3-1.13.45-1.7s.25-1,.36-1.53a5.74,5.74,0,0,0,.13-.83,1.35,1.35,0,0,0-.13-.71.85.85,0,0,0-.87-.43,2.07,2.07,0,0,0-1.2.61,3.64,3.64,0,0,0-.84,1.38,2.09,2.09,0,0,0-.08.23c0,.11-.14.14-.26.11a.14.14,0,0,1-.14-.18,2.34,2.34,0,0,1,.11-.4,4,4,0,0,1,.76-1.23,3,3,0,0,1,.73-.6,2.15,2.15,0,0,1,1.14-.29,1.91,1.91,0,0,1,.91.25,1.88,1.88,0,0,1,.75.85.49.49,0,0,0,.06.13l.09-.15a2.5,2.5,0,0,1,.83-.85,1.66,1.66,0,0,1,1.11-.21,1.84,1.84,0,0,1,.61.16,1.18,1.18,0,0,1,.52.44,1,1,0,0,1-.58,1.41.8.8,0,0,1-.46,0,.55.55,0,0,1-.37-.51.92.92,0,0,1,.56-.85l.21-.08-.23-.11a1.47,1.47,0,0,0-1,0,1.34,1.34,0,0,0-.65.5,2.91,2.91,0,0,0-.47.95c-.17.62-.32,1.25-.48,1.88l-.42,1.71a1.94,1.94,0,0,0,0,.83,1,1,0,0,0,.29.58.8.8,0,0,0,.51.21,1.7,1.7,0,0,0,1.05-.33,2.85,2.85,0,0,0,.88-1,4.06,4.06,0,0,0,.33-.77.34.34,0,0,1,.05-.14.21.21,0,0,1,.11-.08H704a.14.14,0,0,1,.13.14.7.7,0,0,1-.06.32,3.82,3.82,0,0,1-.4.81,3.76,3.76,0,0,1-.52.67,2.45,2.45,0,0,1-1.35.74,1.9,1.9,0,0,1-1.68-.52,1.83,1.83,0,0,1-.39-.6Z" transform="translate(-554.83 -272.37)"/><path d="M714.94,352.25h-4.72a1.35,1.35,0,0,1-.28,0,.32.32,0,0,1,0-.57.7.7,0,0,1,.32-.06h4.7v-4.71a1,1,0,0,1,0-.24.27.27,0,0,1,.31-.21.29.29,0,0,1,.3.24,1.33,1.33,0,0,1,0,.28v4.64h4.65a1.54,1.54,0,0,1,.3,0c.15,0,.21.14.21.3a.28.28,0,0,1-.22.3,1,1,0,0,1-.25,0h-4.69v4.63a2.45,2.45,0,0,1,0,.27.32.32,0,0,1-.51.21.31.31,0,0,1-.11-.16.91.91,0,0,1,0-.23v-4.72Z" transform="translate(-554.83 -272.37)"/><path d="M667.66,354.64l.32,0a2.52,2.52,0,0,1,1,.19c.25.08.49.18.75.24a2.08,2.08,0,0,0,1.94-.55,1.79,1.79,0,0,0,.48-.73l.06-.12a.19.19,0,0,1,.23-.13.16.16,0,0,1,.17.18,2,2,0,0,1,0,.24,4.09,4.09,0,0,1-.78,1.36,2.84,2.84,0,0,1-.82.68,1.89,1.89,0,0,1-.83.24,1.41,1.41,0,0,1-.46,0,1.47,1.47,0,0,1-.63-.44c-.15-.17-.29-.34-.45-.5a.82.82,0,0,0-.82-.22,1.51,1.51,0,0,0-.72.42,3.12,3.12,0,0,0-.51.64.24.24,0,0,1-.29.14.15.15,0,0,1-.12-.23q.12-.23.27-.45a10.65,10.65,0,0,1,1-1.17c.31-.34.64-.65,1-1s.51-.48.76-.71.55-.48.82-.72.61-.55.9-.83.49-.49.73-.73l0-.06h-.06a2.92,2.92,0,0,1-1.16-.22,4.25,4.25,0,0,0-.77-.23,1.65,1.65,0,0,0-1.3.25,1,1,0,0,0-.41.51c0,.12-.09.16-.25.15a.17.17,0,0,1-.17-.18.77.77,0,0,1,.07-.26,2.74,2.74,0,0,1,1.12-1.39,1.58,1.58,0,0,1,.93-.23,1.06,1.06,0,0,1,.7.34l.48.53a1.48,1.48,0,0,0,.3.26.8.8,0,0,0,.92-.08,4.26,4.26,0,0,0,.74-.93.24.24,0,0,1,.24-.12.16.16,0,0,1,.16.21l-.07.15a7,7,0,0,1-.79,1.08c-.39.45-.8.87-1.23,1.28s-.8.73-1.2,1.09l-1.21,1.09c-.31.29-.6.6-.9.9Z" transform="translate(-554.83 -272.37)"/><path d="M684.79,353.85h-5l-.27,0a.32.32,0,0,1,0-.61.85.85,0,0,1,.23,0h10.08a.92.92,0,0,1,.28.05.31.31,0,0,1,0,.58l-.22,0h-5.09Z" transform="translate(-554.83 -272.37)"/><path d="M684.78,350.65h-5a1.07,1.07,0,0,1-.25,0,.28.28,0,0,1-.21-.3.29.29,0,0,1,.2-.3,1.86,1.86,0,0,1,.33,0h10l.27,0a.32.32,0,0,1,.22.5.21.21,0,0,1-.15.11,1.27,1.27,0,0,1-.26,0Z" transform="translate(-554.83 -272.37)"/><path d="M739.22,351.05a.87.87,0,0,1,.88.87.9.9,0,0,1-.89.88.89.89,0,0,1-.87-.9A.86.86,0,0,1,739.22,351.05Z" transform="translate(-554.83 -272.37)"/><path d="M731.52,345.14a.58.58,0,0,1,.6.44.79.79,0,0,1,0,.43,1,1,0,0,1-.88.6.58.58,0,0,1-.59-.63.87.87,0,0,1,.4-.67A.76.76,0,0,1,731.52,345.14Z" transform="translate(-554.83 -272.37)"/><line class="cls-1" x1="151.17" y1="194.13" x2="151.17" y2="196.63"/><line class="cls-9" x1="151.17" y1="201.55" x2="151.17" y2="287.68"/><line class="cls-1" x1="151.17" y1="290.14" x2="151.17" y2="292.64"/><line class="cls-1" x1="150.92" y1="292.64" x2="148.42" y2="292.64"/><line class="cls-6" x1="143.42" y1="292.64" x2="55.92" y2="292.64"/><line class="cls-1" x1="53.42" y1="292.64" x2="50.92" y2="292.64"/><path class="cls-8" d="M640.3,521.49,639,520.21l7.77-7.76,7.76,7.76L646.79,528l-6.44-6.43h0a.83.83,0,0,0,1,.11c.45-.24.89-.51,1.33-.78l1.74-1,1.7-1c.26-.15.5-.32.76-.46a2.75,2.75,0,0,1,.57-.2,6.39,6.39,0,0,1,1.16-.2,2.68,2.68,0,0,1,.8,0,2.41,2.41,0,0,1,1.53.85,1.66,1.66,0,0,1,.31.64l-.11-.06a1.5,1.5,0,0,0-.83-.19,1.08,1.08,0,0,0-.78.41.79.79,0,0,0-.13.26.81.81,0,0,0,.26.8,1.14,1.14,0,0,0,.42.26,1.31,1.31,0,0,0,1.51-.54,1.24,1.24,0,0,0,.2-.84,1.92,1.92,0,0,0-.52-1.11,2.38,2.38,0,0,0-.53-.47,2.89,2.89,0,0,0-1-.44,3.31,3.31,0,0,0-.62-.09c-.25,0-.5,0-.75,0a2.46,2.46,0,0,0-.37,0s0,0,0,0a2,2,0,0,0,.27-.61,1.89,1.89,0,0,0,0-1.08,1.79,1.79,0,0,0-.36-.68,1.71,1.71,0,0,0-.56-.48,1.59,1.59,0,0,0-1.05-.13,4.58,4.58,0,0,0-1.29.44l-1.16.65c-.2.12-.24.22-.13.38s.18.21.31.15a1.71,1.71,0,0,0,.27-.14c.32-.17.62-.36.94-.53a3.66,3.66,0,0,1,1.31-.46.94.94,0,0,1,.85.28.55.55,0,0,1,.1.63,1.79,1.79,0,0,1-.57.68c-.21.16-.42.31-.64.45l-1.47.88-1.48.89-1.8,1.07-.87.53a2.44,2.44,0,0,0-.33.23.54.54,0,0,0-.11.74Z" transform="translate(-554.83 -272.37)"/><path d="M640.3,521.49l-.08-.13a.54.54,0,0,1,.11-.74,2.44,2.44,0,0,1,.33-.23l.87-.53,1.8-1.07,1.48-.89,1.47-.88c.22-.14.43-.29.64-.45a1.79,1.79,0,0,0,.57-.68.55.55,0,0,0-.1-.63.94.94,0,0,0-.85-.28,3.66,3.66,0,0,0-1.31.46c-.32.17-.62.36-.94.53a1.71,1.71,0,0,1-.27.14c-.13.06-.24,0-.31-.15s-.07-.26.13-.38l1.16-.65a4.58,4.58,0,0,1,1.29-.44,1.59,1.59,0,0,1,1.05.13,1.71,1.71,0,0,1,.56.48,1.79,1.79,0,0,1,.36.68,1.89,1.89,0,0,1,0,1.08,2,2,0,0,1-.27.61s0,0,0,0a2.46,2.46,0,0,1,.37,0c.25,0,.5,0,.75,0a3.31,3.31,0,0,1,.62.09,2.89,2.89,0,0,1,1,.44,2.38,2.38,0,0,1,.53.47,1.92,1.92,0,0,1,.52,1.11,1.24,1.24,0,0,1-.2.84,1.31,1.31,0,0,1-1.51.54,1.14,1.14,0,0,1-.42-.26.81.81,0,0,1-.26-.8.79.79,0,0,1,.13-.26,1.08,1.08,0,0,1,.78-.41,1.5,1.5,0,0,1,.83.19l.11.06a1.66,1.66,0,0,0-.31-.64,2.41,2.41,0,0,0-1.53-.85,2.68,2.68,0,0,0-.8,0,6.39,6.39,0,0,0-1.16.2,2.75,2.75,0,0,0-.57.2c-.26.14-.5.31-.76.46l-1.7,1-1.74,1c-.44.27-.88.54-1.33.78a.83.83,0,0,1-1-.11h0Z" transform="translate(-554.83 -272.37)"/><path class="cls-8" d="M654.52,486.7h-15v-5c0,.09.08.18.17.21a.88.88,0,0,0,.28.06h9.6a2,2,0,0,0,.35,0c.17,0,.26-.07.3-.25a.74.74,0,0,0,0-.21.3.3,0,0,0-.15-.25.6.6,0,0,0-.32-.07h-9.88a.36.36,0,0,0-.36.26v-10.6h21.1V486.7h-6l.2,0a1.78,1.78,0,0,0,.63-.2,3.93,3.93,0,0,0,1.12-.88c.16-.18.32-.37.47-.57s.33-.47.49-.71a11.24,11.24,0,0,0,.7-1.33c.17-.38.34-.76.48-1.16s.34-1,.47-1.49.22-.89.31-1.34c0-.21.07-.42.1-.63s0-.42.07-.63,0-.41.05-.62v-.66c0-.28,0-.55-.05-.83s-.06-.47-.11-.7a5,5,0,0,0-.31-1.08,2.64,2.64,0,0,0-.57-.86,2,2,0,0,0-.33-.24,1.36,1.36,0,0,0-.55-.17,1.58,1.58,0,0,0-.53,0,2.41,2.41,0,0,0-.78.33,4.45,4.45,0,0,0-.85.72l-.44.52a4.37,4.37,0,0,0-.31.44c-.16.24-.31.48-.45.73s-.3.56-.44.84-.21.46-.3.69-.18.42-.26.64c-.14.44-.28.87-.41,1.31-.08.27-.15.56-.21.84s-.12.61-.18.92l-.06.46c0,.18,0,.35,0,.53s0,.46,0,.68,0,.58,0,.87,0,.43,0,.64.05.42.09.63a5.34,5.34,0,0,0,.38,1.17,2.29,2.29,0,0,0,.54.75,1.49,1.49,0,0,0,.94.39Z" transform="translate(-554.83 -272.37)"/><path d="M654.52,486.7h0a1.49,1.49,0,0,1-.94-.39,2.29,2.29,0,0,1-.54-.75,5.34,5.34,0,0,1-.38-1.17c0-.21-.06-.42-.09-.63s0-.42,0-.64,0-.58,0-.87,0-.45,0-.68,0-.35,0-.53l.06-.46c.06-.31.11-.61.18-.92s.13-.57.21-.84c.13-.44.27-.87.41-1.31.08-.22.17-.43.26-.64s.19-.47.3-.69.28-.57.44-.84.29-.49.45-.73a4.37,4.37,0,0,1,.31-.44l.44-.52a4.45,4.45,0,0,1,.85-.72,2.41,2.41,0,0,1,.78-.33,1.58,1.58,0,0,1,.53,0,1.36,1.36,0,0,1,.55.17,2,2,0,0,1,.33.24,2.64,2.64,0,0,1,.57.86,5,5,0,0,1,.31,1.08c.05.23.08.46.11.7s0,.55.05.83v.66c0,.21,0,.41-.05.62s0,.42-.07.63-.06.42-.1.63c-.09.45-.18.9-.31,1.34s-.29,1-.47,1.49-.31.78-.48,1.16a11.24,11.24,0,0,1-.7,1.33c-.16.24-.32.48-.49.71s-.31.39-.47.57a3.93,3.93,0,0,1-1.12.88,1.78,1.78,0,0,1-.63.2l-.2,0Zm-.19-7.39h3.5c.15,0,.15,0,.18-.17.08-.39.16-.78.23-1.17s.11-.55.15-.83.07-.5.09-.75,0-.4,0-.59c0-.34,0-.67,0-1a3.73,3.73,0,0,0,0-.47,2.29,2.29,0,0,0-.23-.86.76.76,0,0,0-.62-.46,1,1,0,0,0-.5.12,2.09,2.09,0,0,0-.67.62,8.18,8.18,0,0,0-.45.69c-.16.3-.32.6-.46.91a9.8,9.8,0,0,0-.56,1.46c-.12.4-.24.8-.35,1.21s-.16.65-.24,1A2.55,2.55,0,0,0,654.33,479.31Zm-.15.65c0,.19-.09.37-.13.56-.07.35-.14.7-.2,1.05s-.08.46-.11.69,0,.41-.07.62,0,.48,0,.72,0,.47,0,.71,0,.27,0,.41,0,.37.08.56a1.68,1.68,0,0,0,.27.68.65.65,0,0,0,.69.28,1.37,1.37,0,0,0,.76-.45,3.87,3.87,0,0,0,.54-.72,9.89,9.89,0,0,0,.63-1.21c.1-.21.18-.42.26-.63s.25-.69.36-1c.2-.62.35-1.27.5-1.91,0-.11,0-.21.07-.32Z" transform="translate(-554.83 -272.37)"/><path d="M639.47,481.41a.36.36,0,0,1,.36-.26h9.88a.6.6,0,0,1,.32.07.3.3,0,0,1,.15.25.74.74,0,0,1,0,.21c0,.18-.13.23-.3.25a2,2,0,0,1-.35,0h-9.6a.88.88,0,0,1-.28-.06c-.09,0-.13-.12-.17-.21Z" transform="translate(-554.83 -272.37)"/><path class="cls-8" d="M654.33,479.31a2.55,2.55,0,0,1,.07-.32c.08-.33.15-.66.24-1s.23-.81.35-1.21a9.8,9.8,0,0,1,.56-1.46c.14-.31.3-.61.46-.91a8.18,8.18,0,0,1,.45-.69,2.09,2.09,0,0,1,.67-.62,1,1,0,0,1,.5-.12.76.76,0,0,1,.62.46,2.29,2.29,0,0,1,.23.86,3.73,3.73,0,0,1,0,.47c0,.34,0,.67,0,1,0,.19,0,.39,0,.59s-.05.5-.09.75-.09.56-.15.83-.15.78-.23,1.17c0,.17,0,.17-.18.17h-3.5Z" transform="translate(-554.83 -272.37)"/><path class="cls-8" d="M654.18,480h3.64c0,.11-.05.21-.07.32-.15.64-.3,1.29-.5,1.91-.11.35-.23.69-.36,1s-.16.42-.26.63a9.89,9.89,0,0,1-.63,1.21,3.87,3.87,0,0,1-.54.72,1.37,1.37,0,0,1-.76.45A.65.65,0,0,1,654,486a1.68,1.68,0,0,1-.27-.68c0-.19-.06-.38-.08-.56s0-.28,0-.41,0-.47,0-.71,0-.48,0-.72,0-.42.07-.62.07-.46.11-.69.13-.7.2-1.05C654.09,480.33,654.14,480.15,654.18,480Z" transform="translate(-554.83 -272.37)"/><path class="cls-8" d="M760.89,586.58H740.06l.05,0a3.43,3.43,0,0,0,1.95-.93,3.23,3.23,0,0,0,1-1.63l.84-3.32.69-2.74a2.3,2.3,0,0,0,.09-.94,1.39,1.39,0,0,0-.5-1,1.63,1.63,0,0,0-1.52-.3,2.33,2.33,0,0,0-1.07.65,3.93,3.93,0,0,0-.64.82,4,4,0,0,0-.46.93.47.47,0,0,0,0,.17.16.16,0,0,0,.05.09.24.24,0,0,0,.36-.08,1.89,1.89,0,0,0,.09-.21,4.75,4.75,0,0,1,.88-1.42,2.29,2.29,0,0,1,.74-.53,1.22,1.22,0,0,1,.56-.11.44.44,0,0,1,.4.26,1.44,1.44,0,0,1,.09.45,2.94,2.94,0,0,1-.11.84l-.69,2.74c-.26,1-.52,2.07-.79,3.1-.08.34-.17.68-.28,1a3.14,3.14,0,0,1-.84,1.29,1.64,1.64,0,0,1-1.15.44,1.14,1.14,0,0,1-.53-.15l.09,0a.92.92,0,0,0,.6-.67.6.6,0,0,0-.67-.77.86.86,0,0,0-.65.34.94.94,0,0,0,.12,1.32,1.64,1.64,0,0,0,.7.31l.23.05H670.15V569.64H768.3v16.94h-6.94l0,0a3.76,3.76,0,0,0,1.34-.43,4.59,4.59,0,0,0,1.24-1,4.38,4.38,0,0,0,1-1.61c.14-.44.25-.9.36-1.35.19-.73.37-1.46.56-2.19.28-1.12.57-2.24.85-3.37a1.19,1.19,0,0,0,0-.33.4.4,0,0,0-.18-.33.65.65,0,0,0-.92.35c0,.11-.07.21-.1.32-.15.64-.31,1.27-.47,1.9l-.72,2.88a1.55,1.55,0,0,1-.08.23,2.77,2.77,0,0,1-.86,1,1.65,1.65,0,0,1-1.09.32.87.87,0,0,1-.72-.41,1.23,1.23,0,0,1-.17-.45,3,3,0,0,1,0-1.15,10.52,10.52,0,0,1,.56-2c.14-.41.3-.81.45-1.22a1.63,1.63,0,0,0,.1-1,1.29,1.29,0,0,0-.61-.89,1.47,1.47,0,0,0-1.41,0,2,2,0,0,0-.72.59,4.62,4.62,0,0,0-.84,1.76.24.24,0,0,0,0,.12.12.12,0,0,0,0,.1.24.24,0,0,0,.36-.06.64.64,0,0,0,.06-.18,5.24,5.24,0,0,1,.47-1.15,2.17,2.17,0,0,1,.59-.72,1.08,1.08,0,0,1,.69-.23.33.33,0,0,1,.34.26.83.83,0,0,1,0,.22,1.65,1.65,0,0,1-.09.66c-.15.43-.3.86-.46,1.29s-.39,1.08-.53,1.64a4.28,4.28,0,0,0-.18,1.06,2.47,2.47,0,0,0,.05.61,1.65,1.65,0,0,0,.75,1.17,2.37,2.37,0,0,0,2.85-.3s0,0,.08-.07v0l-.09.37a5.8,5.8,0,0,1-.85,1.94,3.16,3.16,0,0,1-1,1,1.89,1.89,0,0,1-1.43.23,1.21,1.21,0,0,1-.79-.55l0-.09H760a.9.9,0,0,0,.92-1,.5.5,0,0,0-.32-.45.89.89,0,0,0-1.14.46,1.32,1.32,0,0,0,.17,1.4,1.7,1.7,0,0,0,1,.6Zm-47-9.66-.06-.13a1.84,1.84,0,0,0-.57-.73,2,2,0,0,0-2.2-.12,2.82,2.82,0,0,0-.83.67,4,4,0,0,0-.84,1.46.76.76,0,0,0,0,.21.19.19,0,0,0,0,.13.24.24,0,0,0,.37-.11c.06-.17.11-.34.18-.51a3.22,3.22,0,0,1,1-1.29,1.83,1.83,0,0,1,1-.43.83.83,0,0,1,.87.43,1.25,1.25,0,0,1,.15.73,6,6,0,0,1-.13.83c-.24,1.1-.53,2.2-.83,3.29a2.72,2.72,0,0,1-.54,1,1.4,1.4,0,0,1-.55.44,1.35,1.35,0,0,1-1,0,.88.88,0,0,1-.3-.13l.09,0a.93.93,0,0,0,.67-.77.56.56,0,0,0-.45-.67.84.84,0,0,0-.76.19,1,1,0,0,0,0,1.5,2,2,0,0,0,1.28.38,1.64,1.64,0,0,0,.9-.32,2.62,2.62,0,0,0,.76-.83l.06-.1,0,.08a1.68,1.68,0,0,0,.39.6,2,2,0,0,0,2,.48,2.62,2.62,0,0,0,1.16-.75,4.37,4.37,0,0,0,.73-1.08,3.73,3.73,0,0,0,.2-.56c.06-.22,0-.3-.24-.28a.14.14,0,0,0-.14.1c0,.09-.06.18-.1.27a3.32,3.32,0,0,1-1,1.49,2,2,0,0,1-1,.5,1,1,0,0,1-.65-.1,1,1,0,0,1-.44-.68,2,2,0,0,1,0-.85c.13-.55.26-1.1.4-1.65s.34-1.35.52-2a2.73,2.73,0,0,1,.47-1,1.37,1.37,0,0,1,.63-.49,1.49,1.49,0,0,1,1.19.08l0,0-.09,0-.08,0a1,1,0,0,0-.59.71.59.59,0,0,0,.51.72.94.94,0,0,0,.92-.47,1,1,0,0,0,.12-.61.84.84,0,0,0-.26-.55,1.37,1.37,0,0,0-.59-.35,2.19,2.19,0,0,0-1.08-.07,1.9,1.9,0,0,0-1,.68C714.12,576.56,714,576.74,713.87,576.92Zm-42,4.78.07-.1c.09-.09.17-.18.26-.26.28-.28.57-.57.86-.84s.85-.74,1.26-1.12.77-.69,1.14-1,.55-.56.82-.85a7.78,7.78,0,0,0,.92-1.14,3.38,3.38,0,0,0,.24-.41.16.16,0,0,0-.15-.25.25.25,0,0,0-.24.14l-.18.28a2.76,2.76,0,0,1-.58.65.82.82,0,0,1-.94.08,1.74,1.74,0,0,1-.29-.25c-.17-.18-.33-.38-.5-.55a1.13,1.13,0,0,0-.83-.35,1.69,1.69,0,0,0-.91.29,2.89,2.89,0,0,0-1,1.25,1.73,1.73,0,0,0-.11.32.2.2,0,0,0,.27.24c.1,0,.13-.09.16-.17a1.16,1.16,0,0,1,.42-.51,1.82,1.82,0,0,1,1.27-.26,4.25,4.25,0,0,1,.84.25,3.13,3.13,0,0,0,1.17.23h.07l0,0-.72.73-.72.67-1.14,1c-.37.34-.75.68-1.11,1a11.21,11.21,0,0,0-1.51,1.72,4,4,0,0,0-.32.52c-.07.12,0,.21.12.24a.24.24,0,0,0,.29-.13,2.81,2.81,0,0,1,.52-.66,1.53,1.53,0,0,1,.71-.43.85.85,0,0,1,.87.23l.45.49a1.26,1.26,0,0,0,1.24.49,2.46,2.46,0,0,0,1.3-.66,4.06,4.06,0,0,0,.87-1.22,2,2,0,0,0,.22-.63c0-.16,0-.23-.21-.23a.18.18,0,0,0-.19.12l-.06.15a2.05,2.05,0,0,1-.31.54,2.21,2.21,0,0,1-1.14.73,1.84,1.84,0,0,1-.84,0,3.75,3.75,0,0,1-.81-.23A2.68,2.68,0,0,0,671.82,581.7Zm9.52-8.64-1.12.48-.71.31a.28.28,0,0,0-.19.28.37.37,0,0,0,.19.36.33.33,0,0,0,.38,0c.11-.09.23-.16.35-.24l1.17-.78s.06-.06.12-.05v.08c0,.16,0,.32,0,.48s-.05.43-.07.65l-.06.63a.33.33,0,0,0,.31.36.36.36,0,0,0,.42-.25.66.66,0,0,0,0-.2c0-.14,0-.27-.05-.41l-.12-1.16v-.2l.34.22,1.29.87a.37.37,0,0,0,.53-.12.36.36,0,0,0-.16-.52l-.08,0-1.55-.64-.17-.08,0,0,1-.44.75-.33a.27.27,0,0,0,.16-.14.39.39,0,0,0-.11-.46.37.37,0,0,0-.44,0l-1.53,1-.1.06v-.09c0-.23.05-.47.07-.71l.09-.88a1,1,0,0,0,0-.25.28.28,0,0,0-.19-.26.47.47,0,0,0-.33,0,.32.32,0,0,0-.21.32c0,.16,0,.33,0,.49l.12,1.17a1.47,1.47,0,0,1,0,.21l-.82-.55-.81-.53a.47.47,0,0,0-.22-.07.36.36,0,0,0-.35.32.34.34,0,0,0,.21.39l.07,0,1.39.57ZM697,577.62h5.12a1.09,1.09,0,0,0,.26,0,.28.28,0,0,0,.24-.31.31.31,0,0,0-.25-.31,1.33,1.33,0,0,0-.28,0H691.91a1.54,1.54,0,0,0-.3,0,.28.28,0,0,0-.22.3.27.27,0,0,0,.21.3.84.84,0,0,0,.27,0Zm0,2.59h-5.1a1.27,1.27,0,0,0-.28,0,.28.28,0,0,0-.23.29.3.3,0,0,0,.21.32,1.35,1.35,0,0,0,.29,0h10.24a1.26,1.26,0,0,0,.27,0,.29.29,0,0,0,.23-.3.29.29,0,0,0-.24-.31l-.27,0Zm31.28-1h4.66l.27,0a.29.29,0,0,0,.24-.31.3.3,0,0,0-.24-.31,1.51,1.51,0,0,0-.3,0h-9.27a1.36,1.36,0,0,0-.29,0,.27.27,0,0,0-.22.29c0,.18.06.28.21.32l.29,0Zm25.11-.34a.89.89,0,0,0-.87-.9.91.91,0,0,0-.92.89.89.89,0,0,0,.9.9A.87.87,0,0,0,753.39,578.92Zm-8.11-6.3a1.1,1.1,0,0,0,0-.18.62.62,0,0,0-.73-.43,1,1,0,0,0-.78.73.61.61,0,0,0,.6.77,1,1,0,0,0,.7-.33A.83.83,0,0,0,745.28,572.62Z" transform="translate(-554.83 -272.37)"/><path d="M760.89,586.58l-.24-.05a1.7,1.7,0,0,1-1-.6,1.32,1.32,0,0,1-.17-1.4.89.89,0,0,1,1.14-.46.5.5,0,0,1,.32.45.9.9,0,0,1-.92,1h-.12l0,.09a1.21,1.21,0,0,0,.79.55,1.89,1.89,0,0,0,1.43-.23,3.16,3.16,0,0,0,1-1,5.8,5.8,0,0,0,.85-1.94l.09-.37v0s-.06,0-.08.07a2.37,2.37,0,0,1-2.85.3,1.65,1.65,0,0,1-.75-1.17,2.47,2.47,0,0,1-.05-.61,4.28,4.28,0,0,1,.18-1.06c.14-.56.34-1.1.53-1.64s.31-.86.46-1.29a1.65,1.65,0,0,0,.09-.66.83.83,0,0,0,0-.22.33.33,0,0,0-.34-.26,1.08,1.08,0,0,0-.69.23,2.17,2.17,0,0,0-.59.72,5.24,5.24,0,0,0-.47,1.15.64.64,0,0,1-.06.18.24.24,0,0,1-.36.06.12.12,0,0,1,0-.1.24.24,0,0,1,0-.12,4.62,4.62,0,0,1,.84-1.76,2,2,0,0,1,.72-.59,1.47,1.47,0,0,1,1.41,0,1.29,1.29,0,0,1,.61.89,1.63,1.63,0,0,1-.1,1c-.15.41-.31.81-.45,1.22a10.52,10.52,0,0,0-.56,2,3,3,0,0,0,0,1.15,1.23,1.23,0,0,0,.17.45.87.87,0,0,0,.72.41,1.65,1.65,0,0,0,1.09-.32,2.77,2.77,0,0,0,.86-1,1.55,1.55,0,0,0,.08-.23l.72-2.88c.16-.63.32-1.26.47-1.9,0-.11.06-.21.1-.32a.65.65,0,0,1,.92-.35.4.4,0,0,1,.18.33,1.19,1.19,0,0,1,0,.33c-.28,1.13-.57,2.25-.85,3.37-.19.73-.37,1.46-.56,2.19-.11.45-.22.91-.36,1.35a4.38,4.38,0,0,1-1,1.61,4.59,4.59,0,0,1-1.24,1,3.76,3.76,0,0,1-1.34.43l0,0Z" transform="translate(-554.83 -272.37)"/><path d="M739.62,586.58l-.23-.05a1.64,1.64,0,0,1-.7-.31.94.94,0,0,1-.12-1.32.86.86,0,0,1,.65-.34.6.6,0,0,1,.67.77.92.92,0,0,1-.6.67l-.09,0a1.14,1.14,0,0,0,.53.15,1.64,1.64,0,0,0,1.15-.44,3.14,3.14,0,0,0,.84-1.29c.11-.33.2-.67.28-1,.27-1,.53-2.07.79-3.1l.69-2.74a2.94,2.94,0,0,0,.11-.84,1.44,1.44,0,0,0-.09-.45.44.44,0,0,0-.4-.26,1.22,1.22,0,0,0-.56.11,2.29,2.29,0,0,0-.74.53,4.75,4.75,0,0,0-.88,1.42,1.89,1.89,0,0,1-.09.21.24.24,0,0,1-.36.08.16.16,0,0,1-.05-.09.47.47,0,0,1,0-.17,4,4,0,0,1,.46-.93,3.93,3.93,0,0,1,.64-.82,2.33,2.33,0,0,1,1.07-.65,1.63,1.63,0,0,1,1.52.3,1.39,1.39,0,0,1,.5,1,2.3,2.3,0,0,1-.09.94l-.69,2.74L743,584a3.23,3.23,0,0,1-1,1.63,3.43,3.43,0,0,1-1.95.93l-.05,0Z" transform="translate(-554.83 -272.37)"/><path d="M713.87,576.92c.14-.18.25-.36.39-.52a1.9,1.9,0,0,1,1-.68,2.19,2.19,0,0,1,1.08.07,1.37,1.37,0,0,1,.59.35.84.84,0,0,1,.26.55,1,1,0,0,1-.12.61.94.94,0,0,1-.92.47.59.59,0,0,1-.51-.72,1,1,0,0,1,.59-.71l.08,0,.09,0,0,0a1.49,1.49,0,0,0-1.19-.08,1.37,1.37,0,0,0-.63.49,2.73,2.73,0,0,0-.47,1c-.18.67-.35,1.35-.52,2s-.27,1.1-.4,1.65a2,2,0,0,0,0,.85,1,1,0,0,0,.44.68,1,1,0,0,0,.65.1,2,2,0,0,0,1-.5,3.32,3.32,0,0,0,1-1.49c0-.09.06-.18.1-.27a.14.14,0,0,1,.14-.1c.22,0,.3.06.24.28a3.73,3.73,0,0,1-.2.56,4.37,4.37,0,0,1-.73,1.08,2.62,2.62,0,0,1-1.16.75,2,2,0,0,1-2-.48,1.68,1.68,0,0,1-.39-.6l0-.08-.06.1a2.62,2.62,0,0,1-.76.83,1.64,1.64,0,0,1-.9.32,2,2,0,0,1-1.28-.38,1,1,0,0,1,0-1.5.84.84,0,0,1,.76-.19.56.56,0,0,1,.45.67.93.93,0,0,1-.67.77l-.09,0a.88.88,0,0,0,.3.13,1.35,1.35,0,0,0,1,0,1.4,1.4,0,0,0,.55-.44,2.72,2.72,0,0,0,.54-1c.3-1.09.59-2.19.83-3.29a6,6,0,0,0,.13-.83,1.25,1.25,0,0,0-.15-.73.83.83,0,0,0-.87-.43,1.83,1.83,0,0,0-1,.43,3.22,3.22,0,0,0-1,1.29c-.07.17-.12.34-.18.51a.24.24,0,0,1-.37.11.19.19,0,0,1,0-.13.76.76,0,0,1,0-.21,4,4,0,0,1,.84-1.46,2.82,2.82,0,0,1,.83-.67,2,2,0,0,1,2.2.12,1.84,1.84,0,0,1,.57.73Z" transform="translate(-554.83 -272.37)"/><path d="M671.82,581.7a2.68,2.68,0,0,1,1.49.21,3.75,3.75,0,0,0,.81.23,1.84,1.84,0,0,0,.84,0,2.21,2.21,0,0,0,1.14-.73,2.05,2.05,0,0,0,.31-.54l.06-.15a.18.18,0,0,1,.19-.12c.16,0,.23.07.21.23a2,2,0,0,1-.22.63,4.06,4.06,0,0,1-.87,1.22,2.46,2.46,0,0,1-1.3.66,1.26,1.26,0,0,1-1.24-.49l-.45-.49a.85.85,0,0,0-.87-.23,1.53,1.53,0,0,0-.71.43,2.81,2.81,0,0,0-.52.66.24.24,0,0,1-.29.13c-.13,0-.19-.12-.12-.24a4,4,0,0,1,.32-.52,11.21,11.21,0,0,1,1.51-1.72c.36-.35.74-.69,1.11-1l1.14-1,.72-.67.72-.73,0,0h-.07a3.13,3.13,0,0,1-1.17-.23,4.25,4.25,0,0,0-.84-.25,1.82,1.82,0,0,0-1.27.26,1.16,1.16,0,0,0-.42.51c0,.08-.06.15-.16.17a.2.2,0,0,1-.27-.24,1.73,1.73,0,0,1,.11-.32,2.89,2.89,0,0,1,1-1.25,1.69,1.69,0,0,1,.91-.29,1.13,1.13,0,0,1,.83.35c.17.17.33.37.5.55a1.74,1.74,0,0,0,.29.25.82.82,0,0,0,.94-.08,2.76,2.76,0,0,0,.58-.65l.18-.28a.25.25,0,0,1,.24-.14.16.16,0,0,1,.15.25,3.38,3.38,0,0,1-.24.41,7.78,7.78,0,0,1-.92,1.14c-.27.29-.54.58-.82.85s-.75.7-1.14,1-.84.74-1.26,1.12-.58.56-.86.84c-.09.08-.17.17-.26.26Z" transform="translate(-554.83 -272.37)"/><path d="M681.34,573.06l-.35-.15-1.39-.57-.07,0a.34.34,0,0,1-.21-.39.36.36,0,0,1,.35-.32.47.47,0,0,1,.22.07l.81.53.82.55a1.47,1.47,0,0,0,0-.21l-.12-1.17c0-.16,0-.33,0-.49a.32.32,0,0,1,.21-.32.47.47,0,0,1,.33,0,.28.28,0,0,1,.19.26,1,1,0,0,1,0,.25L682,572c0,.24,0,.48-.07.71v.09l.1-.06,1.53-1a.37.37,0,0,1,.44,0,.39.39,0,0,1,.11.46.27.27,0,0,1-.16.14l-.75.33-1,.44,0,0,.17.08,1.55.64.08,0a.36.36,0,0,1,.16.52.37.37,0,0,1-.53.12l-1.29-.87-.34-.22v.2l.12,1.16c0,.14,0,.27.05.41a.66.66,0,0,1,0,.2.36.36,0,0,1-.42.25.33.33,0,0,1-.31-.36l.06-.63c0-.22.05-.43.07-.65s0-.32,0-.48v-.08c-.06,0-.09,0-.12.05l-1.17.78c-.12.08-.24.15-.35.24a.33.33,0,0,1-.38,0,.37.37,0,0,1-.19-.36.28.28,0,0,1,.19-.28l.71-.31Z" transform="translate(-554.83 -272.37)"/><path d="M697,577.62h-5.14a.84.84,0,0,1-.27,0,.27.27,0,0,1-.21-.3.28.28,0,0,1,.22-.3,1.54,1.54,0,0,1,.3,0H702.1a1.33,1.33,0,0,1,.28,0,.31.31,0,0,1,.25.31.28.28,0,0,1-.24.31,1.09,1.09,0,0,1-.26,0Z" transform="translate(-554.83 -272.37)"/><path d="M697,580.21h5.12l.27,0a.29.29,0,0,1,.24.31.29.29,0,0,1-.23.3,1.26,1.26,0,0,1-.27,0H691.89a1.35,1.35,0,0,1-.29,0,.3.3,0,0,1-.21-.32.28.28,0,0,1,.23-.29,1.27,1.27,0,0,1,.28,0Z" transform="translate(-554.83 -272.37)"/><path d="M728.28,579.26h-4.65l-.29,0c-.15,0-.21-.14-.21-.32a.27.27,0,0,1,.22-.29,1.36,1.36,0,0,1,.29,0h9.27a1.51,1.51,0,0,1,.3,0,.3.3,0,0,1,.24.31.29.29,0,0,1-.24.31l-.27,0Z" transform="translate(-554.83 -272.37)"/><path d="M753.39,578.92a.87.87,0,0,1-.89.89.89.89,0,0,1-.9-.9.91.91,0,0,1,.92-.89A.89.89,0,0,1,753.39,578.92Z" transform="translate(-554.83 -272.37)"/><path d="M745.28,572.62a.83.83,0,0,1-.23.56,1,1,0,0,1-.7.33.61.61,0,0,1-.6-.77,1,1,0,0,1,.78-.73.62.62,0,0,1,.73.43A1.1,1.1,0,0,1,745.28,572.62Z" transform="translate(-554.83 -272.37)"/><path class="cls-8" d="M592.59,573.15h-19.5V562.81a.37.37,0,0,0,.22.25,1.51,1.51,0,0,0,.37.06h12.68a3.54,3.54,0,0,0,.46,0c.22,0,.34-.09.4-.3a.65.65,0,0,0,0-.24.35.35,0,0,0-.19-.3.92.92,0,0,0-.43-.08H574.17l-.61,0a.45.45,0,0,0-.47.3v-5.6H601v16.24h-7.72c.19,0,.39,0,.58-.09a4.9,4.9,0,0,0,1.59-.65,6.12,6.12,0,0,0,1-.79,4.89,4.89,0,0,0,.39-.4l.5-.63a5.37,5.37,0,0,0,.65-1.17c.12-.3.23-.61.32-.92s.2-.78.29-1.17l.51-2,.42-1.69c.17-.65.34-1.3.5-2l.48-1.88a3,3,0,0,0,.13-.68.62.62,0,0,0-.62-.62.93.93,0,0,0-.64.21.68.68,0,0,0-.27.35c-.09.33-.17.67-.26,1l-.48,1.93-.45,1.82c-.17.65-.33,1.3-.5,2a3.8,3.8,0,0,1-.18.6,2.57,2.57,0,0,1-.48.73,3.64,3.64,0,0,1-.93.78,2.22,2.22,0,0,1-1.4.28,1.18,1.18,0,0,1-.82-.49,2,2,0,0,1-.33-1.07,4.66,4.66,0,0,1,0-1c.05-.26.07-.52.14-.78.11-.42.22-.85.36-1.27s.31-.91.48-1.37.29-.75.43-1.13a2.55,2.55,0,0,0,.18-.87,2.64,2.64,0,0,0,0-.28,2.15,2.15,0,0,0-.09-.44,1.8,1.8,0,0,0-.51-.77,1.92,1.92,0,0,0-.53-.32,2.13,2.13,0,0,0-1-.12,2.22,2.22,0,0,0-.83.29,3.23,3.23,0,0,0-.71.62,4.31,4.31,0,0,0-.62.91,6.21,6.21,0,0,0-.61,1.62c-.05.2,0,.29.19.34a.29.29,0,0,0,.36-.17,1.8,1.8,0,0,0,.08-.21,7.14,7.14,0,0,1,.61-1.55,3.27,3.27,0,0,1,.77-1,1.48,1.48,0,0,1,1-.37.45.45,0,0,1,.48.35,1.75,1.75,0,0,1,0,.82,6.74,6.74,0,0,1-.33,1.08c-.2.56-.41,1.1-.61,1.66-.13.38-.26.77-.38,1.16s-.2.78-.28,1.17a6,6,0,0,0-.1.84,2.17,2.17,0,0,0,0,.36c0,.18,0,.35.07.53a2.25,2.25,0,0,0,.54,1.09,2.39,2.39,0,0,0,1,.68,3.23,3.23,0,0,0,1.31.18l.54-.06a3.29,3.29,0,0,0,1.38-.7l.27-.23a13.25,13.25,0,0,1-.55,1.82,6.28,6.28,0,0,1-.49,1c-.17.25-.33.52-.52.75a5,5,0,0,1-.64.66,3,3,0,0,1-.78.49,2.53,2.53,0,0,1-.89.22,2.44,2.44,0,0,1-.66,0,1.8,1.8,0,0,1-1-.52,1.3,1.3,0,0,1-.25-.39,1.33,1.33,0,0,0,.2,0,2.57,2.57,0,0,0,.4-.06,1.12,1.12,0,0,0,.57-.41,1.14,1.14,0,0,0,.25-1,.65.65,0,0,0-.39-.48,1.16,1.16,0,0,0-.78-.05,1.25,1.25,0,0,0-.86.81,2.07,2.07,0,0,0-.09.89,2,2,0,0,0,.17.59,1.9,1.9,0,0,0,.53.63,2.43,2.43,0,0,0,1.25.52Z" transform="translate(-554.83 -272.37)"/><path d="M592.59,573.15l-.21,0a2.43,2.43,0,0,1-1.25-.52,1.9,1.9,0,0,1-.53-.63,2,2,0,0,1-.17-.59,2.07,2.07,0,0,1,.09-.89,1.25,1.25,0,0,1,.86-.81,1.16,1.16,0,0,1,.78.05.65.65,0,0,1,.39.48,1.14,1.14,0,0,1-.25,1,1.12,1.12,0,0,1-.57.41,2.57,2.57,0,0,1-.4.06,1.33,1.33,0,0,1-.2,0,1.3,1.3,0,0,0,.25.39,1.8,1.8,0,0,0,1,.52,2.44,2.44,0,0,0,.66,0,2.53,2.53,0,0,0,.89-.22,3,3,0,0,0,.78-.49,5,5,0,0,0,.64-.66c.19-.23.35-.5.52-.75a6.28,6.28,0,0,0,.49-1,13.25,13.25,0,0,0,.55-1.82l-.27.23a3.29,3.29,0,0,1-1.38.7l-.54.06a3.23,3.23,0,0,1-1.31-.18,2.39,2.39,0,0,1-1-.68,2.25,2.25,0,0,1-.54-1.09c0-.18-.05-.35-.07-.53a2.17,2.17,0,0,1,0-.36,6,6,0,0,1,.1-.84c.08-.39.17-.78.28-1.17s.25-.78.38-1.16c.2-.56.41-1.1.61-1.66a6.74,6.74,0,0,0,.33-1.08,1.75,1.75,0,0,0,0-.82.45.45,0,0,0-.48-.35,1.48,1.48,0,0,0-1,.37,3.27,3.27,0,0,0-.77,1,7.14,7.14,0,0,0-.61,1.55,1.8,1.8,0,0,1-.08.21.29.29,0,0,1-.36.17c-.19,0-.24-.14-.19-.34a6.21,6.21,0,0,1,.61-1.62,4.31,4.31,0,0,1,.62-.91,3.23,3.23,0,0,1,.71-.62,2.22,2.22,0,0,1,.83-.29,2.13,2.13,0,0,1,1,.12,1.92,1.92,0,0,1,.53.32,1.8,1.8,0,0,1,.51.77,2.15,2.15,0,0,1,.09.44,2.64,2.64,0,0,1,0,.28,2.55,2.55,0,0,1-.18.87c-.14.38-.29.75-.43,1.13s-.33.91-.48,1.37-.25.85-.36,1.27c-.07.26-.09.52-.14.78a4.66,4.66,0,0,0,0,1,2,2,0,0,0,.33,1.07,1.18,1.18,0,0,0,.82.49,2.22,2.22,0,0,0,1.4-.28,3.64,3.64,0,0,0,.93-.78,2.57,2.57,0,0,0,.48-.73,3.8,3.8,0,0,0,.18-.6c.17-.65.33-1.3.5-2l.45-1.82.48-1.93c.09-.34.17-.68.26-1a.68.68,0,0,1,.27-.35.93.93,0,0,1,.64-.21.62.62,0,0,1,.62.62,3,3,0,0,1-.13.68l-.48,1.88c-.16.66-.33,1.31-.5,2l-.42,1.69-.51,2c-.09.39-.18.78-.29,1.17s-.2.62-.32.92a5.37,5.37,0,0,1-.65,1.17l-.5.63a4.89,4.89,0,0,1-.39.4,6.12,6.12,0,0,1-1,.79,4.9,4.9,0,0,1-1.59.65c-.19,0-.39.06-.58.09h-.64Z" transform="translate(-554.83 -272.37)"/><path d="M573.09,562.51a.45.45,0,0,1,.47-.3l.61,0H586.6a.92.92,0,0,1,.43.08.35.35,0,0,1,.19.3.65.65,0,0,1,0,.24c-.06.21-.18.26-.4.3a3.54,3.54,0,0,1-.46,0H573.68a1.51,1.51,0,0,1-.37-.06.37.37,0,0,1-.22-.25Z" transform="translate(-554.83 -272.37)"/></svg>