<svg id="Layer_1" data-name="Layer 1" xmlns="http://www.w3.org/2000/svg" viewBox="0 0 793 290"><defs><style>.cls-1{fill:red;}.cls-1,.cls-4{stroke:red;}.cls-1,.cls-3,.cls-4{stroke-miterlimit:10;}.cls-2{fill:#fff;}.cls-3,.cls-4{fill:none;}.cls-3{stroke:#000;}.cls-4{stroke-width:2px;}</style></defs><title>number_sets</title><path class="cls-1" d="M652.61,337.71c.22.35.43.69.65,1,1,1.52,2,3.06,3.07,4.56.89,1.28,1.81,2.54,2.74,3.79.7.94,1.41,1.89,2.17,2.78a30.14,30.14,0,0,0,2.13,2.25,6,6,0,0,0,1.74,1.21c.24.1.5.17.75.25a1,1,0,0,1,.6,1.34.89.89,0,0,1-.72.49,3.27,3.27,0,0,1-.54,0h-9.08a1.06,1.06,0,0,1-1-.49c-.24-.38-.52-.73-.76-1.11-.76-1.17-1.51-2.35-2.28-3.52-.45-.7-.92-1.39-1.38-2.08l-3-4.45-2-3c-.52-.8-1-1.59-1.57-2.38a.16.16,0,0,0-.12-.08h-1.9v.22q0,6.47,0,12.92a2.08,2.08,0,0,0,.4,1.42,1.24,1.24,0,0,0,.53.38,4.33,4.33,0,0,0,1.07.22c.55.05,1.09,0,1.63.06a3.77,3.77,0,0,1,.75.11.88.88,0,0,1,.58,1c-.1.63-.58.79-1.14.79H629.23a3,3,0,0,1-.72-.13.76.76,0,0,1-.5-.73.83.83,0,0,1,.42-.87,1.34,1.34,0,0,1,.55-.16c.5,0,1,0,1.5-.05a9.37,9.37,0,0,0,1.2-.16A1.39,1.39,0,0,0,632.9,352a14.11,14.11,0,0,0,.08-1.59q0-14,0-28.09a6,6,0,0,0-.19-1.26,1.28,1.28,0,0,0-1-.94,10.17,10.17,0,0,0-2.27-.16,2.28,2.28,0,0,1-1-.19.9.9,0,0,1-.44-1,.83.83,0,0,1,.63-.68,4.29,4.29,0,0,1,.71-.08h19.16c.63,0,1.26.09,1.89.15a17.07,17.07,0,0,1,3.25.6c.77.22,1.52.49,2.27.77a11.22,11.22,0,0,1,2.38,1.24,9.49,9.49,0,0,1,1.76,1.46,7.82,7.82,0,0,1,1.91,3.21,16.93,16.93,0,0,1,.35,1.75,5.73,5.73,0,0,1,.08,1c0,.38,0,.75-.07,1.12a7.91,7.91,0,0,1-.33,1.81,7.09,7.09,0,0,1-1.28,2.56,7.52,7.52,0,0,1-.84.94,10,10,0,0,1-2.64,1.71,15.63,15.63,0,0,1-3.12,1c-.46.11-.92.19-1.38.28Zm-18-17.76c.09.36.19.7.25,1.05a5.47,5.47,0,0,1,.12,1.06q0,14.85,0,29.69a4.48,4.48,0,0,1-.1.81c-.06.31-.16.62-.24.94h6a2.66,2.66,0,0,1-.11-.28,7.53,7.53,0,0,1-.32-2.35q0-14.47,0-28.94a3.26,3.26,0,0,1,.37-1.53c.08-.15.17-.29.27-.45Zm7.58,16.36c.72,0,1.41,0,2.09,0s1.49-.07,2.24-.12a9.09,9.09,0,0,0,1.17-.12,11.16,11.16,0,0,0,2-.54,4.19,4.19,0,0,0,2.53-2.79,12.18,12.18,0,0,0,.45-2.87c0-.47,0-.94,0-1.4s0-1.13-.08-1.69-.09-1-.16-1.45a7.56,7.56,0,0,0-.89-2.73,4.65,4.65,0,0,0-1.92-1.86,8,8,0,0,0-3.36-.79h-1a4.79,4.79,0,0,0-1.64.28,2,2,0,0,0-1.47,2c0,4.61,0,9.23,0,13.84Zm4.3,1.94.66,1,2.31,3.48,2.22,3.37c.72,1.09,1.45,2.17,2.17,3.25.88,1.34,1.77,2.67,2.64,4a.25.25,0,0,0,.23.11h5.16c-.66-.74-1.33-1.47-2-2.21-.39-.44-.77-.89-1.14-1.36-.53-.66-1-1.34-1.54-2-.83-1.12-1.65-2.23-2.44-3.37-1-1.48-2-3-3-4.46-.43-.66-.85-1.33-1.29-2a.22.22,0,0,0-.14-.09,2.43,2.43,0,0,0-.38,0l-1.79.16Zm6.55-2.68c.27-.05.51-.09.74-.15a13.31,13.31,0,0,0,3.19-1.13,6.57,6.57,0,0,0,2.34-2,6.42,6.42,0,0,0,1.08-3.39,7.44,7.44,0,0,0-.11-2.05,6.38,6.38,0,0,0-.86-2.19A6.56,6.56,0,0,0,658,323a8.5,8.5,0,0,0-1-.72,20.39,20.39,0,0,0-1.86-1,13.29,13.29,0,0,0-2.53-.79A8.85,8.85,0,0,1,654,323a10.38,10.38,0,0,1,.56,2.39c.08.77.18,1.53.2,2.3s0,1.76-.08,2.64a7.31,7.31,0,0,1-.08,1.05c-.13.66-.28,1.32-.44,2A7.1,7.1,0,0,1,653,335.57Z" transform="translate(-297 -304)"/><path d="M679.7,439.89h-.2c-1.44,0-2.88,0-4.32,0a17.83,17.83,0,0,0-1.78.16,12.19,12.19,0,0,0-2.79.66,9.92,9.92,0,0,0-1.91.93,8.07,8.07,0,0,0-1.9,1.54,8.37,8.37,0,0,0-.86,1.19,5.69,5.69,0,0,0-.71,2.05,1,1,0,0,1-.35.66.82.82,0,0,1-1.16-.19,1.07,1.07,0,0,1-.12-.76c0-.3.08-.6.12-.9s.09-.7.13-1.05,0-.47.07-.7.09-.74.13-1.11.05-.48.07-.71.09-.72.13-1.07,0-.48.07-.72.1-.76.17-1.13a.58.58,0,0,1,.56-.45,3.39,3.39,0,0,1,.55,0h22a1.61,1.61,0,0,1,.56.12.58.58,0,0,1,.36.55,1,1,0,0,1-.2.7c-.53.85-1.07,1.69-1.59,2.54s-1.08,1.77-1.63,2.66l-1.44,2.32c-.53.86-1.05,1.73-1.58,2.6s-.91,1.46-1.36,2.2-.93,1.52-1.4,2.28l-1.54,2.49c-.5.81-1,1.62-1.48,2.43L675,461.37l-1.49,2.43-1.41,2.29c-.38.63-.76,1.25-1.15,1.87a.31.31,0,0,0,0,.07h.15c2.35,0,4.7,0,7,0a9.71,9.71,0,0,0,1.61-.2,14.75,14.75,0,0,0,1.71-.43,9.66,9.66,0,0,0,3.06-1.61,9.38,9.38,0,0,0,1.11-1,10.42,10.42,0,0,0,1.59-2.08,9.41,9.41,0,0,0,.82-1.8c.16-.52.24-1.06.38-1.58a1.64,1.64,0,0,1,.25-.61.81.81,0,0,1,1.24.13.92.92,0,0,1,.11.69c-.07.36-.1.73-.15,1.1s-.1.72-.15,1.08-.07.56-.11.84l-.15,1.08-.12.84c0,.37-.1.73-.16,1.1s-.09.7-.14,1.05-.1.74-.16,1.11-.1.8-.17,1.2-.14.58-.49.65a1.57,1.57,0,0,1-.37,0q-12.4,0-24.82,0a1,1,0,0,1-.79-.27.74.74,0,0,1-.11-.86c.45-.74.92-1.47,1.37-2.21l1.32-2.16,1.16-1.88c.45-.72.89-1.44,1.33-2.16l1.26-2.05c.4-.66.81-1.32,1.22-2s.85-1.39,1.27-2.08l1.23-2,1.11-1.81,1.39-2.27,1.26-2,1.21-2,1.28-2.08ZM664.33,468h4.55a.2.2,0,0,0,.13-.08l.93-1.49,1.26-2.05,1.39-2.27c.43-.68.85-1.37,1.27-2.05l1.39-2.27,1.26-2.05c.47-.76.94-1.51,1.4-2.27l1.26-2.05c.47-.75.93-1.51,1.4-2.27l1.26-2.05c.47-.75.93-1.51,1.4-2.27l1.26-2.05c.41-.67.83-1.34,1.24-2l.55-.89h-4.55a.23.23,0,0,0-.17.12c-.26.4-.51.82-.76,1.23l-1.26,2c-.47.76-.94,1.52-1.4,2.28l-1.26,2c-.47.76-.93,1.52-1.4,2.27l-1.26,2.05c-.47.76-.93,1.52-1.4,2.27l-1.26,2.05c-.46.76-.93,1.52-1.4,2.27l-1.26,2.05-1.39,2.27-1.26,2.05-1.56,2.53Zm22.85,0,.41-2.92-.05,0a12.82,12.82,0,0,1-3.47,2.94Zm-21.46-26.13a13.48,13.48,0,0,1,2.63-2h-2.41Z" transform="translate(-297 -304)"/><path d="M407.25,452.41v.22c0,3.64,0,7.29,0,10.94a9.58,9.58,0,0,0,.14,1.2,1.24,1.24,0,0,0,1.12,1,10.32,10.32,0,0,0,1.92.12,3.35,3.35,0,0,1,.77.13.66.66,0,0,1,.46.78,1.56,1.56,0,0,1-.08.43.76.76,0,0,1-.61.37,4.63,4.63,0,0,1-.65,0H396.08a1.13,1.13,0,0,1-.86-.29.87.87,0,0,1-.16-.91.66.66,0,0,1,.61-.48c.49-.05,1,0,1.49-.08a7,7,0,0,0,1-.17,1.12,1.12,0,0,0,.85-1,11,11,0,0,0,.11-1.4V437.86a8,8,0,0,0-.15-1.29,1.13,1.13,0,0,0-1-.95,7.31,7.31,0,0,0-1.68-.11,2,2,0,0,1-.91-.18.81.81,0,0,1-.38-.9.74.74,0,0,1,.55-.6,3.17,3.17,0,0,1,.61-.07h16.14a12.81,12.81,0,0,1,1.64.14c.57.07,1.13.15,1.69.25a13.92,13.92,0,0,1,2.7.78,11.18,11.18,0,0,1,2.11,1.11,8,8,0,0,1,2.38,2.46,7.74,7.74,0,0,1,1,2.55,9.27,9.27,0,0,1,.15,1.29,8.34,8.34,0,0,1-.54,3.83,7.94,7.94,0,0,1-1.2,2.07,8.83,8.83,0,0,1-1.85,1.71,11.73,11.73,0,0,1-3.6,1.68c-.76.22-1.55.37-2.34.52a13.07,13.07,0,0,1-1.4.18c-.59.05-1.19.09-1.79.11l-2.52,0c-.42,0-.85,0-1.28-.06A1.19,1.19,0,0,0,407.25,452.41Zm-6.7-16.89a.2.2,0,0,1,0,.05,5.49,5.49,0,0,1,.35,2.08q0,13.28,0,26.55a9,9,0,0,1-.19,1.25c0,.14-.09.28-.13.43h5.31a.45.45,0,0,0,0-.11,5.73,5.73,0,0,1-.32-2q0-13.17,0-26.34a4,4,0,0,1,.1-.77,2.66,2.66,0,0,1,.51-1.17Zm6.7,15.09,0,0,3.52,0a5,5,0,0,0,1.75-.36,3.47,3.47,0,0,0,1.47-1.09,5.3,5.3,0,0,0,.9-1.83,13.77,13.77,0,0,0,.5-3.55c0-.66,0-1.31,0-2a10.36,10.36,0,0,0-.08-1.11,15.64,15.64,0,0,0-.25-1.67,4.5,4.5,0,0,0-1.34-2.55,3.13,3.13,0,0,0-1.3-.71,9,9,0,0,0-1.28-.22,6.35,6.35,0,0,0-2.13.07,2.15,2.15,0,0,0-1.41.88,2.48,2.48,0,0,0-.35,1.4c0,4.18,0,8.36,0,12.54Zm8.27-.47a12.7,12.7,0,0,0,3.15-1.22A7.46,7.46,0,0,0,421,447a6.44,6.44,0,0,0,1.28-3.73,4.71,4.71,0,0,0,0-.75c0-.39-.07-.78-.14-1.17a5.84,5.84,0,0,0-1.37-2.77,6.83,6.83,0,0,0-2-1.53,11.61,11.61,0,0,0-2.33-.91c-.22-.07-.44-.12-.69-.18.16.28.32.51.44.77A10.42,10.42,0,0,1,417,440a17.58,17.58,0,0,1,.14,1.77,26.46,26.46,0,0,1-.07,3.21c-.08.63-.15,1.26-.25,1.89a8.12,8.12,0,0,1-.73,2.25C416,449.45,415.73,449.79,415.52,450.14Z" transform="translate(-297 -304)"/><path d="M553.75,464.24c.25.4.45.81.72,1.17a9.68,9.68,0,0,0,1,1.18,6.83,6.83,0,0,0,1.63,1.19,7.65,7.65,0,0,0,2.9.88,14.13,14.13,0,0,0,1.46.07,7.26,7.26,0,0,0,1.53-.23c.25-.05.5-.1.76-.13a.68.68,0,0,1,.67.65c0,.47-.15.65-.61.84a14.46,14.46,0,0,1-1.55.58c-.81.23-1.64.44-2.47.62-.45.1-.92.13-1.39.19a13.25,13.25,0,0,1-2.52.08,14.75,14.75,0,0,1-1.61-.2,10.41,10.41,0,0,1-2.38-.67,10,10,0,0,1-2-1c-.49-.35-1-.71-1.43-1.1a11.07,11.07,0,0,1-2-2.23,14.34,14.34,0,0,1-1-1.78.42.42,0,0,1,0-.1.36.36,0,0,0-.25-.24,13.38,13.38,0,0,1-3.05-1.21,12.39,12.39,0,0,1-2-1.35c-.25-.21-.49-.42-.73-.65s-.52-.5-.77-.77a11.19,11.19,0,0,1-1.38-1.84c-.29-.48-.56-1-.8-1.47a12.31,12.31,0,0,1-.82-2.27c-.13-.5-.24-1-.33-1.51s-.16-1-.22-1.44c0-.32-.05-.63-.06-.95s0-.78,0-1.18,0-1,.06-1.44a17.48,17.48,0,0,1,.67-3.66,14.52,14.52,0,0,1,1.1-2.68,11.91,11.91,0,0,1,1.22-1.86c.3-.37.63-.72,1-1.07a11.79,11.79,0,0,1,2.35-1.93,14.54,14.54,0,0,1,2.86-1.39,18.12,18.12,0,0,1,2.5-.68c.45-.09.9-.14,1.36-.19s.91-.07,1.36-.09a7.77,7.77,0,0,1,.83,0c.53,0,1.06,0,1.58.09a16.52,16.52,0,0,1,2.79.52c.67.2,1.34.44,2,.7a12.1,12.1,0,0,1,2.56,1.42c.37.27.74.57,1.1.87a6.4,6.4,0,0,1,.72.66,14.16,14.16,0,0,1,1.36,1.63,14,14,0,0,1,1.13,1.94,14.71,14.71,0,0,1,.9,2.48c.13.53.25,1.06.36,1.6.06.33.08.68.12,1a18.82,18.82,0,0,1,.12,3,14.13,14.13,0,0,1-.12,1.46,15,15,0,0,1-.28,1.78,19.35,19.35,0,0,1-.58,2,17,17,0,0,1-.82,1.85,10.66,10.66,0,0,1-1.15,1.81,12.66,12.66,0,0,1-1.52,1.67c-.43.38-.89.73-1.35,1.07a11.43,11.43,0,0,1-1.91,1.13,13.15,13.15,0,0,1-2.65,1Zm3.8-16.82h0c0-.28,0-.55-.07-.82,0-.44-.07-.87-.13-1.3s-.11-1-.21-1.54c-.17-.78-.36-1.57-.59-2.34a14.3,14.3,0,0,0-.69-1.74,7.59,7.59,0,0,0-1-1.55,6.77,6.77,0,0,0-1.06-1.08,5.59,5.59,0,0,0-1.42-.82,6,6,0,0,0-1.76-.41,7.53,7.53,0,0,0-1,0,5.52,5.52,0,0,0-.81.06,5.94,5.94,0,0,0-1.91.66,6.28,6.28,0,0,0-1.82,1.58,9.87,9.87,0,0,0-1.49,2.79,17,17,0,0,0-.63,2.22q-.13.66-.24,1.32t-.12,1.05c-.06.52-.11,1-.15,1.55s-.07.82-.06,1.22c0,1.11,0,2.22.06,3.33,0,.54.07,1.08.12,1.62s.08.89.15,1.34.19,1.06.31,1.59a13.32,13.32,0,0,0,.9,2.74,7.94,7.94,0,0,0,2,2.81,5.49,5.49,0,0,0,1.21.82,5.11,5.11,0,0,0,1.63.53c.38,0,.76.1,1.15.11a9.63,9.63,0,0,0,1.06-.08,5.54,5.54,0,0,0,1.6-.46,6.17,6.17,0,0,0,2.49-2.12,8.9,8.9,0,0,0,.92-1.65,14.19,14.19,0,0,0,.76-2.19,20.31,20.31,0,0,0,.52-2.8l.18-1.68c0-.36,0-.72.06-1.07s0-.73,0-1.09,0-.9,0-1.35Zm-13.38-10.49-.1,0c-.58.29-1.17.56-1.74.87a10.34,10.34,0,0,0-1.84,1.39,9.7,9.7,0,0,0-.77.8c-.33.39-.65.8-1,1.22a10.42,10.42,0,0,0-1,1.82,13.74,13.74,0,0,0-.73,2.07,14.38,14.38,0,0,0-.39,2.16c0,.46-.11.92-.12,1.38a17.77,17.77,0,0,0,.15,3.26c.08.5.15,1,.26,1.48a16.26,16.26,0,0,0,.51,1.68,12.72,12.72,0,0,0,.54,1.27c.16.33.35.64.54,1a10.51,10.51,0,0,0,1.28,1.7,9.93,9.93,0,0,0,.73.72c.34.3.69.6,1.06.88a10,10,0,0,0,1.92,1.13c.2.1.41.18.62.27-.13-.21-.27-.39-.41-.58a12.05,12.05,0,0,1-1.21-2.2,18,18,0,0,1-.83-2.58,25,25,0,0,1-.54-3.09c-.06-.46-.09-.93-.12-1.39s0-1.06-.06-1.58,0-1.25,0-1.87c0-.31,0-.62,0-.92,0-.54,0-1.07.09-1.61,0-.28,0-.55.06-.82.06-.5.13-1,.21-1.48s.17-1,.29-1.49c.19-.7.39-1.41.63-2.1a10.46,10.46,0,0,1,1.19-2.39C543.68,437.59,543.92,437.27,544.17,436.93Zm11.71,0,0,0,.52.69a10.13,10.13,0,0,1,1.18,2.2c.25.64.47,1.3.66,2a16.49,16.49,0,0,1,.5,2.42c.06.53.14,1.06.2,1.6s.07.78.1,1.18,0,1,.06,1.52c0,.94,0,1.87,0,2.81v0l-.12,1.57c0,.35-.06.69-.1,1s-.11.76-.18,1.14c-.1.54-.2,1.08-.32,1.61a15.67,15.67,0,0,1-.82,2.51,12.51,12.51,0,0,1-.91,1.74c-.23.35-.48.69-.72,1l.08,0c.47-.23.95-.44,1.4-.69a10.64,10.64,0,0,0,2.09-1.5,10.89,10.89,0,0,0,.88-.92c.33-.38.65-.79.94-1.2a9.09,9.09,0,0,0,1.09-2c.24-.61.45-1.24.63-1.87a11.43,11.43,0,0,0,.41-2.25c0-.53.1-1,.11-1.57s0-1.25-.06-1.88a7.54,7.54,0,0,0-.06-.83q-.12-.76-.27-1.53a11.74,11.74,0,0,0-1-2.94c-.28-.56-.62-1.1-1-1.63a9.7,9.7,0,0,0-1.31-1.61q-.3-.3-.63-.57c-.33-.26-.65-.54-1-.78a11.91,11.91,0,0,0-1.14-.69C556.69,437.28,556.28,437.11,555.88,436.92ZM558,469.81c-.06,0-.07-.06-.1-.07a10.65,10.65,0,0,1-1.68-.78,8.37,8.37,0,0,1-1.79-1.34,13.09,13.09,0,0,1-1-1.18,9.19,9.19,0,0,1-1-1.77c0-.1-.08-.14-.19-.14-.35,0-.71.08-1.07.09s-1,0-1.43,0-.74,0-1.11,0-.51,0-.77-.08l-.5-.06a10.65,10.65,0,0,0,5.54,4.73A11.59,11.59,0,0,0,558,469.81Z" transform="translate(-297 -304)"/><path class="cls-2" d="M826.7,469H801V438.17h30.83V469h-4.44a.76.76,0,0,0,.35-.51,4.14,4.14,0,0,0,.06-.7q0-12.6,0-25.21a9.34,9.34,0,0,1,.1-1.29,1.69,1.69,0,0,1,.29-.81,1.74,1.74,0,0,1,1.32-.66c.33,0,.65,0,1-.07a.75.75,0,0,0,.68-.45.84.84,0,0,0,0-.66.73.73,0,0,0-.77-.4h-7.69a1.14,1.14,0,0,0-.62.2.72.72,0,0,0,.26,1.24,2.64,2.64,0,0,0,.74.1,5.85,5.85,0,0,1,1.32.13,1.7,1.7,0,0,1,1.34,1.2,5.38,5.38,0,0,1,.2,1.59c0,4.6,0,9.2,0,13.8v.15l-.14-.18-1.44-1.93-1.41-1.9-1.6-2.16-1.42-1.91-1.54-2.06L817,444.6l-1.6-2.15L814,440.54c-.45-.6-.9-1.2-1.34-1.81a1.09,1.09,0,0,0-1-.5H803a2,2,0,0,0-.42,0,.64.64,0,0,0-.56.43.8.8,0,0,0,.15.82,1.06,1.06,0,0,0,.73.26,3.14,3.14,0,0,1,1.05.28,3.8,3.8,0,0,1,1.3.95.21.21,0,0,1,.07.26,1.55,1.55,0,0,0,0,.37l0,22.56a6.38,6.38,0,0,1-.13,1.07,1.54,1.54,0,0,1-1.18,1.23,5,5,0,0,1-1.09.16,6.65,6.65,0,0,0-.78.06.68.68,0,0,0-.58.44.71.71,0,0,0,.41.95,1.65,1.65,0,0,0,.48.1h7.78a2.38,2.38,0,0,0,.46,0,.64.64,0,0,0,.58-.47,2.17,2.17,0,0,0,0-.36.51.51,0,0,0-.41-.55,3.35,3.35,0,0,0-.77-.13,6.21,6.21,0,0,1-1.36-.13,1.73,1.73,0,0,1-1.28-1.06,3.45,3.45,0,0,1-.23-1.31q0-10.28,0-20.55a.93.93,0,0,1,0-.14l.75,1,1.2,1.59c.43.56.86,1.11,1.29,1.68s.81,1.08,1.21,1.61.94,1.21,1.4,1.82l1.26,1.66,1.25,1.67,1.21,1.59,1.3,1.7,1.2,1.59,1.39,1.82c.38.49.74,1,1.12,1.48l1.39,1.82,1.44,1.91,1.26,1.66A3.67,3.67,0,0,0,826.7,469Z" transform="translate(-297 -304)"/><path d="M826.7,469a3.67,3.67,0,0,1-.86-.94l-1.26-1.66-1.44-1.91-1.39-1.82c-.38-.49-.74-1-1.12-1.48l-1.39-1.82-1.2-1.59-1.3-1.7-1.21-1.59-1.25-1.67L813,451.16c-.46-.61-.93-1.21-1.4-1.82s-.8-1.08-1.21-1.61-.86-1.12-1.29-1.68l-1.2-1.59-.75-1a.93.93,0,0,0,0,.14q0,10.27,0,20.55a3.45,3.45,0,0,0,.23,1.31,1.73,1.73,0,0,0,1.28,1.06,6.21,6.21,0,0,0,1.36.13,3.35,3.35,0,0,1,.77.13.51.51,0,0,1,.41.55,2.17,2.17,0,0,1,0,.36.64.64,0,0,1-.58.47,2.38,2.38,0,0,1-.46,0h-7.78a1.65,1.65,0,0,1-.48-.1.71.71,0,0,1-.41-.95.68.68,0,0,1,.58-.44,6.65,6.65,0,0,1,.78-.06,5,5,0,0,0,1.09-.16,1.54,1.54,0,0,0,1.18-1.23,6.38,6.38,0,0,0,.13-1.07l0-22.56a1.55,1.55,0,0,1,0-.37.21.21,0,0,0-.07-.26,3.8,3.8,0,0,0-1.3-.95,3.14,3.14,0,0,0-1.05-.28,1.06,1.06,0,0,1-.73-.26.8.8,0,0,1-.15-.82.64.64,0,0,1,.56-.43,2,2,0,0,1,.42,0h8.65a1.09,1.09,0,0,1,1,.5c.44.61.89,1.21,1.34,1.81l1.42,1.91,1.6,2.15,1.41,1.91,1.54,2.06,1.42,1.91,1.6,2.16,1.41,1.9,1.44,1.93.14.18v-.15c0-4.6,0-9.2,0-13.8a5.38,5.38,0,0,0-.2-1.59,1.7,1.7,0,0,0-1.34-1.2,5.85,5.85,0,0,0-1.32-.13,2.64,2.64,0,0,1-.74-.1.72.72,0,0,1-.26-1.24,1.14,1.14,0,0,1,.62-.2h7.69a.73.73,0,0,1,.77.4.84.84,0,0,1,0,.66.75.75,0,0,1-.68.45c-.32,0-.64,0-1,.07a1.74,1.74,0,0,0-1.32.66,1.69,1.69,0,0,0-.29.81,9.34,9.34,0,0,0-.1,1.29q0,12.6,0,25.21a4.14,4.14,0,0,1-.06.7.76.76,0,0,1-.35.51Zm-20.41-29.21c.11.12.21.22.3.34.35.43.7.86,1,1.29.46.59.91,1.19,1.36,1.79l1.25,1.66,1.11,1.47,1.4,1.81,1.2,1.61,1.39,1.81,1.26,1.67,1.26,1.66,1.2,1.59,1.39,1.81c.38.49.74,1,1.12,1.48L823,461.6l1.35,1.79,1.26,1.66.65.85a.24.24,0,0,1,0-.07v-6.08a.24.24,0,0,0-.05-.14l-.39-.54c-.48-.63-.95-1.27-1.42-1.91s-.9-1.19-1.34-1.79l-1.41-1.9-1.26-1.7-1.42-1.91-1.34-1.8-1.42-1.91-1.44-1.93-1.58-2.14-1.62-2.17a.26.26,0,0,0-.24-.13h-5Z" transform="translate(-297 -304)"/><path class="cls-2" d="M806.29,439.79h5a.26.26,0,0,1,.24.13l1.62,2.17,1.58,2.14,1.44,1.93,1.42,1.91,1.34,1.8,1.42,1.91,1.26,1.7,1.41,1.9c.44.6.89,1.19,1.34,1.79s.94,1.28,1.42,1.91l.39.54a.24.24,0,0,1,.05.14v6.08a.24.24,0,0,0,0,.07l-.65-.85-1.26-1.66L823,461.6l-1.39-1.82c-.38-.49-.74-1-1.12-1.48l-1.39-1.81-1.2-1.59-1.26-1.66-1.26-1.67-1.39-1.81-1.2-1.61-1.4-1.81-1.11-1.47L809,443.21c-.45-.6-.9-1.2-1.36-1.79-.33-.43-.68-.86-1-1.29C806.5,440,806.4,439.91,806.29,439.79Z" transform="translate(-297 -304)"/><path class="cls-2" d="M1008.46,466H995V433h28.87v33h-12.56l0,0,1.18-.15a12.49,12.49,0,0,0,2-.47,15.29,15.29,0,0,0,3.11-1.34,14.67,14.67,0,0,0,2.55-1.87,11.92,11.92,0,0,0,1-1,9.76,9.76,0,0,0,.69-.87.59.59,0,0,0,0-.64,1,1,0,0,0-.48-.42.62.62,0,0,0-.72.05c-.22.19-.42.42-.63.63-.5.46-1,.94-1.51,1.36a13.44,13.44,0,0,1-1.55,1,10.59,10.59,0,0,1-2.07,1,11.33,11.33,0,0,1-2.13.56c-.49.08-1,.16-1.49.2a8.52,8.52,0,0,1-1.13,0,11.11,11.11,0,0,1-1.16-.11,6,6,0,0,1-2.2-.81,6.56,6.56,0,0,1-1.93-1.82,9.92,9.92,0,0,1-1.25-2.42,16.43,16.43,0,0,1-.77-3.07c-.1-.57-.16-1.14-.21-1.71s-.07-.91-.09-1.37,0-.89,0-1.33c0-.22,0-.45,0-.68,0-.49,0-1,.07-1.48s.06-.88.11-1.32.16-1.05.24-1.58a15,15,0,0,1,.53-2.2,12.58,12.58,0,0,1,1.26-2.92,7.9,7.9,0,0,1,1.62-2,5.73,5.73,0,0,1,1.51-1,5,5,0,0,1,1.94-.41,4,4,0,0,1,.92.09,11.07,11.07,0,0,1,1.38.33,10.69,10.69,0,0,1,2.14,1,12.28,12.28,0,0,1,2.27,1.71,15,15,0,0,1,1.24,1.39,8.66,8.66,0,0,1,1.5,2.79,3.22,3.22,0,0,0,.23.5.63.63,0,0,0,.67.3.55.55,0,0,0,.51-.35,1.49,1.49,0,0,0,.1-.51v-7.56a3.57,3.57,0,0,0,0-.56.64.64,0,0,0-.26-.47.76.76,0,0,0-1,.2,1.7,1.7,0,0,0-.18.62,1.07,1.07,0,0,1-.73.87,2.07,2.07,0,0,1-1,.06c-.36-.06-.74-.09-1.1-.17a12.42,12.42,0,0,1-2.17-.77,10.77,10.77,0,0,0-2.54-.76,13,13,0,0,0-2-.17c-.41,0-.82,0-1.24.06s-.61,0-.91.09c-.61.09-1.21.19-1.8.33a14.13,14.13,0,0,0-2.89,1,12.3,12.3,0,0,0-2,1.18c-.45.33-.9.68-1.32,1.05a11.85,11.85,0,0,0-1.4,1.52A12.57,12.57,0,0,0,997,443.7c-.21.43-.4.86-.58,1.3a13.44,13.44,0,0,0-.78,2.79c-.08.43-.14.86-.18,1.3s-.11.94-.12,1.41c0,.75,0,1.5.06,2.25a9.3,9.3,0,0,0,.09,1.05c.09.58.2,1.17.32,1.74a12.52,12.52,0,0,0,1.06,3,18.85,18.85,0,0,0,1,1.74,9,9,0,0,0,1.27,1.55c.25.24.49.5.76.72s.73.6,1.11.88a13,13,0,0,0,2.5,1.39,14.87,14.87,0,0,0,2.16.74,14.59,14.59,0,0,0,2.36.42Z" transform="translate(-297 -304)"/><path d="M1008.46,466l-.39-.06a14.59,14.59,0,0,1-2.36-.42,14.87,14.87,0,0,1-2.16-.74,13,13,0,0,1-2.5-1.39c-.38-.28-.75-.57-1.11-.88s-.51-.48-.76-.72a9,9,0,0,1-1.27-1.55,18.85,18.85,0,0,1-1-1.74,12.52,12.52,0,0,1-1.06-3c-.12-.57-.23-1.16-.32-1.74a9.3,9.3,0,0,1-.09-1.05c0-.75-.06-1.5-.06-2.25,0-.47.07-.94.12-1.41s.1-.87.18-1.3a13.44,13.44,0,0,1,.78-2.79c.18-.44.37-.87.58-1.3a12.57,12.57,0,0,1,1.32-2.05,11.85,11.85,0,0,1,1.4-1.52c.42-.37.87-.72,1.32-1.05a12.3,12.3,0,0,1,2-1.18,14.13,14.13,0,0,1,2.89-1c.59-.14,1.19-.24,1.8-.33.3-.05.61-.07.91-.09s.83-.06,1.24-.06a13,13,0,0,1,2,.17,10.77,10.77,0,0,1,2.54.76,12.42,12.42,0,0,0,2.17.77c.36.08.74.11,1.1.17a2.07,2.07,0,0,0,1-.06,1.07,1.07,0,0,0,.73-.87,1.7,1.7,0,0,1,.18-.62.76.76,0,0,1,1-.2.64.64,0,0,1,.26.47,3.57,3.57,0,0,1,0,.56v7.56a1.49,1.49,0,0,1-.1.51.55.55,0,0,1-.51.35.63.63,0,0,1-.67-.3,3.22,3.22,0,0,1-.23-.5,8.66,8.66,0,0,0-1.5-2.79,15,15,0,0,0-1.24-1.39,12.28,12.28,0,0,0-2.27-1.71,10.69,10.69,0,0,0-2.14-1,11.07,11.07,0,0,0-1.38-.33,4,4,0,0,0-.92-.09,5,5,0,0,0-1.94.41,5.73,5.73,0,0,0-1.51,1,7.9,7.9,0,0,0-1.62,2,12.58,12.58,0,0,0-1.26,2.92,15,15,0,0,0-.53,2.2c-.08.53-.17,1.05-.24,1.58s-.09.88-.11,1.32-.05,1-.07,1.48c0,.23,0,.46,0,.68,0,.44,0,.89,0,1.33s0,.91.09,1.37.11,1.14.21,1.71a16.43,16.43,0,0,0,.77,3.07,9.92,9.92,0,0,0,1.25,2.42,6.56,6.56,0,0,0,1.93,1.82,6,6,0,0,0,2.2.81,11.11,11.11,0,0,0,1.16.11,8.52,8.52,0,0,0,1.13,0c.5,0,1-.12,1.49-.2a11.33,11.33,0,0,0,2.13-.56,10.59,10.59,0,0,0,2.07-1,13.44,13.44,0,0,0,1.55-1c.53-.42,1-.9,1.51-1.36.21-.21.41-.44.63-.63a.62.62,0,0,1,.72-.05,1,1,0,0,1,.48.42.59.59,0,0,1,0,.64,9.76,9.76,0,0,1-.69.87,11.92,11.92,0,0,1-1,1,14.67,14.67,0,0,1-2.55,1.87,15.29,15.29,0,0,1-3.11,1.34,12.49,12.49,0,0,1-2,.47l-1.18.15,0,0Zm-3.69-27.21h-.08a12.82,12.82,0,0,0-2.12,1,11.75,11.75,0,0,0-2.07,1.59,5.33,5.33,0,0,0-.46.49c-.29.35-.58.69-.85,1.06A9.55,9.55,0,0,0,998,445.2c-.24.61-.45,1.23-.63,1.85a11.76,11.76,0,0,0-.39,2.21c0,.47-.1.95-.11,1.43s0,.89,0,1.34,0,.82.09,1.23a11.31,11.31,0,0,0,.19,1.3c.13.6.29,1.19.47,1.78a10.8,10.8,0,0,0,1.16,2.54,10.13,10.13,0,0,0,1.21,1.63,11.82,11.82,0,0,0,.95.92,12.12,12.12,0,0,0,3.59,2.18l.74.27c-.2-.21-.46-.49-.71-.79s-.57-.65-.82-1a11.22,11.22,0,0,1-1.41-2.81,15.76,15.76,0,0,1-.71-2.72c-.09-.56-.19-1.13-.26-1.69s-.09-.9-.12-1.35-.06-1-.06-1.47c0-.82,0-1.64.06-2.47q0-.63.09-1.26c0-.34.07-.69.12-1,.07-.52.13-1,.24-1.55.18-.79.39-1.57.62-2.34a12.84,12.84,0,0,1,1.19-2.74,11.41,11.41,0,0,1,.72-1.09C1004.36,439.3,1004.57,439.07,1004.77,438.82Zm12.68.92,2,2.14v-2.36A3.88,3.88,0,0,1,1017.45,439.74Z" transform="translate(-297 -304)"/><path class="cls-2" d="M1004.77,438.82c-.2.25-.41.48-.58.73a11.41,11.41,0,0,0-.72,1.09,12.84,12.84,0,0,0-1.19,2.74c-.23.77-.44,1.55-.62,2.34-.11.51-.17,1-.24,1.55,0,.35-.09.7-.12,1s-.07.84-.09,1.26c0,.83-.05,1.65-.06,2.47,0,.49,0,1,.06,1.47s.06.9.12,1.35.17,1.13.26,1.69a15.76,15.76,0,0,0,.71,2.72,11.22,11.22,0,0,0,1.41,2.81c.25.36.54.68.82,1s.51.58.71.79l-.74-.27a12.12,12.12,0,0,1-3.59-2.18,11.82,11.82,0,0,1-.95-.92,10.13,10.13,0,0,1-1.21-1.63,10.8,10.8,0,0,1-1.16-2.54c-.18-.59-.34-1.18-.47-1.78a11.31,11.31,0,0,1-.19-1.3q-.06-.61-.09-1.23c0-.45,0-.9,0-1.34s.07-1,.11-1.43a11.76,11.76,0,0,1,.39-2.21c.18-.62.39-1.24.63-1.85a9.55,9.55,0,0,1,1.24-2.23c.27-.37.56-.71.85-1.06a5.33,5.33,0,0,1,.46-.49,11.75,11.75,0,0,1,2.07-1.59,12.82,12.82,0,0,1,2.12-1Z" transform="translate(-297 -304)"/><path class="cls-2" d="M1017.45,439.74a3.88,3.88,0,0,0,2-.22v2.36Z" transform="translate(-297 -304)"/><line class="cls-3" x1="156.5" y1="75.5" x2="156.5" y2="221.5"/><ellipse class="cls-3" cx="519.44" cy="149.75" rx="96.56" ry="51.75"/><ellipse class="cls-3" cx="484.25" cy="149.5" rx="149.75" ry="64"/><ellipse class="cls-4" cx="343.99" cy="148.5" rx="311.75" ry="91"/><ellipse class="cls-3" cx="396.5" cy="145" rx="396" ry="144.5"/></svg>