<svg id="Layer_1" data-name="Layer 1" xmlns="http://www.w3.org/2000/svg" viewBox="0 0 245.25 178.28"><defs><style>.cls-1,.cls-10,.cls-11,.cls-12,.cls-13,.cls-14,.cls-2,.cls-5,.cls-7,.cls-8,.cls-9{fill:none;stroke-miterlimit:10;}.cls-1,.cls-11,.cls-14{stroke:#000;}.cls-10,.cls-12,.cls-2,.cls-9{stroke:red;}.cls-11,.cls-2,.cls-5{stroke-width:2px;}.cls-3{fill:red;}.cls-4{font-size:18px;font-family:TimesNewRomanPSMT, Times New Roman;}.cls-13,.cls-5,.cls-7,.cls-8{stroke:blue;}.cls-6{fill:blue;}.cls-8{stroke-dasharray:3.17 3.17;}.cls-10{stroke-dasharray:3.09 3.09;}.cls-12,.cls-13,.cls-14{stroke-width:0.5px;stroke-dasharray:3;}.cls-15{fill:#fff;}</style></defs><title>phasor_addition</title><line class="cls-1" x1="210.77" y1="148.92" x2="26.94" y2="148.92"/><polygon points="209.31 143.94 217.94 148.92 209.31 153.91 209.31 143.94"/><line class="cls-2" x1="49.44" y1="148.92" x2="139.17" y2="117.78"/><polygon class="cls-3" points="139.42 122.96 145.94 115.42 136.15 113.54 139.42 122.96"/><line class="cls-1" x1="49.44" y1="31.24" x2="49.44" y2="172.42"/><polygon points="44.46 32.7 49.44 24.06 54.43 32.7 44.46 32.7"/><text class="cls-4" transform="translate(0 14.96)">imaginary axis</text><text class="cls-4" transform="translate(184.78 172.76)">real axis</text><line class="cls-5" x1="49.44" y1="148.92" x2="63.04" y2="110.68"/><polygon class="cls-6" points="67.25 113.73 65.44 103.92 57.85 110.39 67.25 113.73"/><line class="cls-7" x1="145.78" y1="115.58" x2="146.28" y2="114.17"/><line class="cls-8" x1="147.35" y1="111.18" x2="159.55" y2="76.87"/><line class="cls-7" x1="160.08" y1="75.38" x2="160.58" y2="73.96"/><polygon class="cls-6" points="162.69 75.48 161.78 70.58 157.99 73.81 162.69 75.48"/><line class="cls-9" x1="65.28" y1="104.75" x2="66.69" y2="104.25"/><line class="cls-10" x1="69.61" y1="103.21" x2="155.53" y2="72.8"/><line class="cls-9" x1="156.99" y1="72.28" x2="158.4" y2="71.78"/><polygon class="cls-3" points="158.54 74.37 161.78 70.58 156.88 69.67 158.54 74.37"/><line class="cls-11" x1="49.44" y1="148.92" x2="155.9" y2="74.69"/><polygon points="157.55 79.61 161.78 70.58 151.85 71.43 157.55 79.61"/><line class="cls-12" x1="145.94" y1="115.42" x2="145.94" y2="148.92"/><line class="cls-12" x1="143.69" y1="115.42" x2="49.44" y2="115.42"/><line class="cls-13" x1="65.28" y1="104.75" x2="65.28" y2="148.92"/><line class="cls-13" x1="65.28" y1="104.75" x2="49.44" y2="104.75"/><line class="cls-14" x1="161.78" y1="70.58" x2="161.78" y2="148.92"/><line class="cls-14" x1="161.78" y1="70.58" x2="49.44" y2="70.58"/><path class="cls-1" d="M715.55,357.7a10.89,10.89,0,0,1,7.34,10.3" transform="translate(-555.06 -294.58)"/><polygon points="160.71 65.8 156.94 62.53 161.66 60.9 160.71 65.8"/><path class="cls-15" d="M728.16,361.07h-6.82V356h8.45v5.07h-1.48l.19,0a1,1,0,0,0,.37-.13,1,1,0,0,0,.31-.26,1.32,1.32,0,0,0,.2-.32,2.06,2.06,0,0,0,.12-.35,2.32,2.32,0,0,0,.07-.38c0-.12,0-.23,0-.35v-.12c0-.16,0-.31,0-.47l0-.29a3,3,0,0,0-.07-.32,2,2,0,0,0-.18-.42,1.08,1.08,0,0,0-.28-.32,1.11,1.11,0,0,0-.3-.17,1.25,1.25,0,0,0-.37-.09h-.21l-.24,0a1,1,0,0,0-.51.25,1.13,1.13,0,0,0-.22.27,1.71,1.71,0,0,0-.22.54,2.33,2.33,0,0,0-.08.46,2.83,2.83,0,0,0,0,.29c0,.13,0,.26,0,.39s0,.23,0,.35a2.51,2.51,0,0,0,0,.27,1.87,1.87,0,0,0,.2.53,1.38,1.38,0,0,0,.17.25,1,1,0,0,0,.4.29,1.12,1.12,0,0,0,.44.09ZM723.55,359h0a2.17,2.17,0,0,0,.07.24.84.84,0,0,0,.21.35.77.77,0,0,0,.28.19.94.94,0,0,0,.37.07.55.55,0,0,0,.18,0l.3-.09a1.52,1.52,0,0,0,.53-.45,4,4,0,0,0,.27-.44,3.06,3.06,0,0,0,.22-.49c.07-.22.14-.45.2-.67s.06-.27.09-.41a2,2,0,0,0,.06-.35l0-.2a1.77,1.77,0,0,0,0-.23.56.56,0,0,0-.09-.31.27.27,0,0,0-.33-.14.55.55,0,0,0-.28.17.42.42,0,0,0-.08.18.33.33,0,0,0,.11.27l.13.14a.94.94,0,0,1,.18.53.74.74,0,0,1,0,.21,1.16,1.16,0,0,1-.07.31,2.66,2.66,0,0,1-.26.6,1.84,1.84,0,0,1-.27.37l-.23.21a.83.83,0,0,1-.45.19,1.1,1.1,0,0,1-.36,0,.76.76,0,0,1-.37-.27,1.11,1.11,0,0,1-.16-.39s0,0,0-.07l.1-.28a3.3,3.3,0,0,0,.12-.38,1.08,1.08,0,0,0,.05-.36.13.13,0,0,0-.08-.13.24.24,0,0,0-.27.08.69.69,0,0,0-.11.28c0,.13-.06.27-.08.41l0,.31a.13.13,0,0,1,0,.09l-.21.27a1.75,1.75,0,0,1-.32.29,1,1,0,0,1-.43.17.76.76,0,0,1-.3,0,.56.56,0,0,1-.36-.19.84.84,0,0,1-.18-.35,2,2,0,0,1,0-.24c0-.07,0-.14,0-.21s0,0,0-.07a.92.92,0,0,1,0-.16c0-.1,0-.2.07-.3a2.37,2.37,0,0,1,.25-.62,6.16,6.16,0,0,1,.33-.55l.16-.23a.11.11,0,0,0,0-.11.16.16,0,0,0-.18-.12.21.21,0,0,0-.15.11,4,4,0,0,0-.44.81,5,5,0,0,0-.22.65,3.4,3.4,0,0,0-.07.34c0,.1,0,.2-.05.3s0,.2,0,.3v.18c0,.05,0,.1,0,.15a1.28,1.28,0,0,0,.07.34.92.92,0,0,0,.19.35.67.67,0,0,0,.36.21,1.09,1.09,0,0,0,.26,0,.91.91,0,0,0,.17,0,1.09,1.09,0,0,0,.32-.1,1.58,1.58,0,0,0,.52-.4l.1-.12C723.44,359.11,723.49,359,723.55,359Z" transform="translate(-555.06 -294.58)"/><path d="M728.16,361.07h0a1.12,1.12,0,0,1-.44-.09,1,1,0,0,1-.4-.29,1.38,1.38,0,0,1-.17-.25,1.87,1.87,0,0,1-.2-.53,2.51,2.51,0,0,1,0-.27c0-.12,0-.23,0-.35s0-.26,0-.39a2.83,2.83,0,0,1,0-.29,2.33,2.33,0,0,1,.08-.46,1.71,1.71,0,0,1,.22-.54,1.13,1.13,0,0,1,.22-.27,1,1,0,0,1,.51-.25l.24,0h.21a1.25,1.25,0,0,1,.37.09,1.11,1.11,0,0,1,.3.17,1.08,1.08,0,0,1,.28.32,2,2,0,0,1,.18.42,3,3,0,0,1,.07.32l0,.29c0,.16,0,.31,0,.47v.12c0,.12,0,.23,0,.35a2.32,2.32,0,0,1-.07.38,2.06,2.06,0,0,1-.12.35,1.32,1.32,0,0,1-.2.32,1,1,0,0,1-.31.26,1,1,0,0,1-.37.13l-.19,0h-.15Zm.89-2.64h0a.28.28,0,0,1,0-.09c0-.08,0-.15,0-.23a2.5,2.5,0,0,0,0-.29.77.77,0,0,0-.18-.36.69.69,0,0,0-.24-.18.76.76,0,0,0-.39-.06.74.74,0,0,0-.65.48,1.56,1.56,0,0,0-.09.47,2.46,2.46,0,0,0,0,.28,1.69,1.69,0,0,0,0,.23c0,.23,0,.46,0,.69v.29s0,.09,0,.14a.22.22,0,0,0,0,.08l0,.26a1.19,1.19,0,0,0,.1.32.8.8,0,0,0,.23.29.82.82,0,0,0,.42.15l.14,0a.72.72,0,0,0,.27-.09.84.84,0,0,0,.28-.31,1.25,1.25,0,0,0,.11-.39c0-.11,0-.22,0-.33s0-.2,0-.3Z" transform="translate(-555.06 -294.58)"/><path d="M723.55,359c-.06.07-.11.15-.17.23l-.1.12a1.58,1.58,0,0,1-.52.4,1.09,1.09,0,0,1-.32.1.91.91,0,0,1-.17,0,1.09,1.09,0,0,1-.26,0,.67.67,0,0,1-.36-.21.92.92,0,0,1-.19-.35,1.28,1.28,0,0,1-.07-.34c0-.05,0-.1,0-.15v-.18c0-.1,0-.2,0-.3s0-.2.05-.3a3.4,3.4,0,0,1,.07-.34,5,5,0,0,1,.22-.65,4,4,0,0,1,.44-.81.21.21,0,0,1,.15-.11.16.16,0,0,1,.18.12.11.11,0,0,1,0,.11l-.16.23a6.16,6.16,0,0,0-.33.55,2.37,2.37,0,0,0-.25.62c0,.1-.05.2-.07.3a.92.92,0,0,0,0,.16s0,.05,0,.07,0,.14,0,.21a2,2,0,0,0,0,.24.84.84,0,0,0,.18.35.56.56,0,0,0,.36.19.76.76,0,0,0,.3,0A1,1,0,0,0,723,359a1.75,1.75,0,0,0,.32-.29l.21-.27a.13.13,0,0,0,0-.09l0-.31c0-.14.05-.28.08-.41a.69.69,0,0,1,.11-.28.24.24,0,0,1,.27-.08.13.13,0,0,1,.08.13,1.08,1.08,0,0,1-.05.36,3.3,3.3,0,0,1-.12.38l-.1.28s0,.05,0,.07a1.11,1.11,0,0,0,.16.39.76.76,0,0,0,.37.27,1.1,1.1,0,0,0,.36,0,.83.83,0,0,0,.45-.19l.23-.21a1.84,1.84,0,0,0,.27-.37,2.66,2.66,0,0,0,.26-.6,1.16,1.16,0,0,0,.07-.31.74.74,0,0,0,0-.21.94.94,0,0,0-.18-.53l-.13-.14a.33.33,0,0,1-.11-.27.42.42,0,0,1,.08-.18.55.55,0,0,1,.28-.17.27.27,0,0,1,.33.14.56.56,0,0,1,.09.31,1.77,1.77,0,0,1,0,.23l0,.2a2,2,0,0,1-.06.35c0,.14,0,.28-.09.41s-.13.45-.2.67a3.06,3.06,0,0,1-.22.49,4,4,0,0,1-.27.44,1.52,1.52,0,0,1-.53.45l-.3.09a.55.55,0,0,1-.18,0,.94.94,0,0,1-.37-.07.77.77,0,0,1-.28-.19.84.84,0,0,1-.21-.35,2.17,2.17,0,0,1-.07-.24Z" transform="translate(-555.06 -294.58)"/><path class="cls-15" d="M729.05,358.43v1c0,.1,0,.2,0,.3s0,.22,0,.33a1.25,1.25,0,0,1-.11.39.84.84,0,0,1-.28.31.72.72,0,0,1-.27.09l-.14,0a.82.82,0,0,1-.42-.15.8.8,0,0,1-.23-.29,1.19,1.19,0,0,1-.1-.32l0-.26a.22.22,0,0,1,0-.08c0-.05,0-.09,0-.14v-.29c0-.23,0-.46,0-.69a1.69,1.69,0,0,1,0-.23,2.46,2.46,0,0,1,0-.28,1.56,1.56,0,0,1,.09-.47.74.74,0,0,1,.65-.48.76.76,0,0,1,.39.06.69.69,0,0,1,.24.18.77.77,0,0,1,.18.36,2.5,2.5,0,0,1,0,.29c0,.08,0,.15,0,.23a.28.28,0,0,0,0,.09Z" transform="translate(-555.06 -294.58)"/><path class="cls-1" d="M620.55,394.7a10.89,10.89,0,0,1,7.34,10.3" transform="translate(-555.06 -294.58)"/><polygon points="65.71 102.8 61.95 99.53 66.66 97.9 65.71 102.8"/><path class="cls-15" d="M633.16,398.07h-6.82V393h8.45v5.07h-1.48l.19,0a1,1,0,0,0,.37-.13,1,1,0,0,0,.31-.26,1.32,1.32,0,0,0,.2-.32,2.06,2.06,0,0,0,.12-.35,2.32,2.32,0,0,0,.07-.38c0-.12,0-.23,0-.35v-.12c0-.16,0-.31,0-.47l0-.29a3,3,0,0,0-.07-.32,2,2,0,0,0-.18-.42,1.08,1.08,0,0,0-.28-.32,1.11,1.11,0,0,0-.3-.17,1.25,1.25,0,0,0-.37-.09h-.21l-.24,0a1,1,0,0,0-.51.25,1.13,1.13,0,0,0-.22.27,1.71,1.71,0,0,0-.22.54,2.33,2.33,0,0,0-.08.46,2.83,2.83,0,0,0,0,.29c0,.13,0,.26,0,.39s0,.23,0,.35a2.51,2.51,0,0,0,0,.27,1.87,1.87,0,0,0,.2.53,1.38,1.38,0,0,0,.17.25,1,1,0,0,0,.4.29,1.12,1.12,0,0,0,.44.09ZM628.55,396h0a2.17,2.17,0,0,0,.07.24.84.84,0,0,0,.21.35.77.77,0,0,0,.28.19.94.94,0,0,0,.37.07.55.55,0,0,0,.18,0l.3-.09a1.52,1.52,0,0,0,.53-.45,4,4,0,0,0,.27-.44,3.06,3.06,0,0,0,.22-.49c.07-.22.14-.45.2-.67s.06-.27.09-.41a2,2,0,0,0,.06-.35l0-.2a1.77,1.77,0,0,0,0-.23.56.56,0,0,0-.09-.31.27.27,0,0,0-.33-.14.55.55,0,0,0-.28.17.42.42,0,0,0-.08.18.33.33,0,0,0,.11.27l.13.14a.94.94,0,0,1,.18.53.74.74,0,0,1,0,.21,1.16,1.16,0,0,1-.07.31,2.66,2.66,0,0,1-.26.6,1.84,1.84,0,0,1-.27.37l-.23.21a.83.83,0,0,1-.45.19,1.1,1.1,0,0,1-.36,0,.76.76,0,0,1-.37-.27,1.11,1.11,0,0,1-.16-.39s0,0,0-.07l.1-.28a3.3,3.3,0,0,0,.12-.38,1.08,1.08,0,0,0,.05-.36.13.13,0,0,0-.08-.13.24.24,0,0,0-.27.08.69.69,0,0,0-.11.28c0,.13-.06.27-.08.41l0,.31a.13.13,0,0,1,0,.09l-.21.27a1.75,1.75,0,0,1-.32.29,1,1,0,0,1-.43.17.76.76,0,0,1-.3,0,.56.56,0,0,1-.36-.19.84.84,0,0,1-.18-.35,2,2,0,0,1,0-.24c0-.07,0-.14,0-.21s0,0,0-.07a.92.92,0,0,1,0-.16c0-.1,0-.2.07-.3a2.37,2.37,0,0,1,.25-.62,6.16,6.16,0,0,1,.33-.55l.16-.23a.11.11,0,0,0,0-.11.16.16,0,0,0-.18-.12.21.21,0,0,0-.15.11,4,4,0,0,0-.44.81,5,5,0,0,0-.22.65,3.4,3.4,0,0,0-.07.34c0,.1,0,.2-.05.3s0,.2,0,.3v.18c0,.05,0,.1,0,.15a1.28,1.28,0,0,0,.07.34.92.92,0,0,0,.19.35.67.67,0,0,0,.36.21,1.09,1.09,0,0,0,.26,0,.91.91,0,0,0,.17,0,1.09,1.09,0,0,0,.32-.1,1.58,1.58,0,0,0,.52-.4l.1-.12C628.44,396.11,628.49,396,628.55,396Z" transform="translate(-555.06 -294.58)"/><path d="M633.16,398.07h0a1.12,1.12,0,0,1-.44-.09,1,1,0,0,1-.4-.29,1.38,1.38,0,0,1-.17-.25,1.87,1.87,0,0,1-.2-.53,2.51,2.51,0,0,1,0-.27c0-.12,0-.23,0-.35s0-.26,0-.39a2.83,2.83,0,0,1,0-.29,2.33,2.33,0,0,1,.08-.46,1.71,1.71,0,0,1,.22-.54,1.13,1.13,0,0,1,.22-.27,1,1,0,0,1,.51-.25l.24,0h.21a1.25,1.25,0,0,1,.37.09,1.11,1.11,0,0,1,.3.17,1.08,1.08,0,0,1,.28.32,2,2,0,0,1,.18.42,3,3,0,0,1,.07.32l0,.29c0,.16,0,.31,0,.47v.12c0,.12,0,.23,0,.35a2.32,2.32,0,0,1-.07.38,2.06,2.06,0,0,1-.12.35,1.32,1.32,0,0,1-.2.32,1,1,0,0,1-.31.26,1,1,0,0,1-.37.13l-.19,0h-.15Zm.89-2.64h0a.28.28,0,0,1,0-.09c0-.08,0-.15,0-.23a2.5,2.5,0,0,0,0-.29.77.77,0,0,0-.18-.36.69.69,0,0,0-.24-.18.76.76,0,0,0-.39-.06.74.74,0,0,0-.65.48,1.56,1.56,0,0,0-.09.47,2.46,2.46,0,0,0,0,.28,1.69,1.69,0,0,0,0,.23c0,.23,0,.46,0,.69v.29s0,.09,0,.14a.22.22,0,0,0,0,.08l0,.26a1.19,1.19,0,0,0,.1.32.8.8,0,0,0,.23.29.82.82,0,0,0,.42.15l.14,0a.72.72,0,0,0,.27-.09.84.84,0,0,0,.28-.31,1.25,1.25,0,0,0,.11-.39c0-.11,0-.22,0-.33s0-.2,0-.3Z" transform="translate(-555.06 -294.58)"/><path d="M628.55,396c-.06.07-.11.15-.17.23l-.1.12a1.58,1.58,0,0,1-.52.4,1.09,1.09,0,0,1-.32.1.91.91,0,0,1-.17,0,1.09,1.09,0,0,1-.26,0,.67.67,0,0,1-.36-.21.92.92,0,0,1-.19-.35,1.28,1.28,0,0,1-.07-.34c0-.05,0-.1,0-.15v-.18c0-.1,0-.2,0-.3s0-.2.05-.3a3.4,3.4,0,0,1,.07-.34,5,5,0,0,1,.22-.65,4,4,0,0,1,.44-.81.21.21,0,0,1,.15-.11.16.16,0,0,1,.18.12.11.11,0,0,1,0,.11l-.16.23a6.16,6.16,0,0,0-.33.55,2.37,2.37,0,0,0-.25.62c0,.1-.05.2-.07.3a.92.92,0,0,0,0,.16s0,.05,0,.07,0,.14,0,.21a2,2,0,0,0,0,.24.84.84,0,0,0,.18.35.56.56,0,0,0,.36.19.76.76,0,0,0,.3,0A1,1,0,0,0,628,396a1.75,1.75,0,0,0,.32-.29l.21-.27a.13.13,0,0,0,0-.09l0-.31c0-.14.05-.28.08-.41a.69.69,0,0,1,.11-.28.24.24,0,0,1,.27-.08.13.13,0,0,1,.08.13,1.08,1.08,0,0,1-.05.36,3.3,3.3,0,0,1-.12.38l-.1.28s0,.05,0,.07a1.11,1.11,0,0,0,.16.39.76.76,0,0,0,.37.27,1.1,1.1,0,0,0,.36,0,.83.83,0,0,0,.45-.19l.23-.21a1.84,1.84,0,0,0,.27-.37,2.66,2.66,0,0,0,.26-.6,1.16,1.16,0,0,0,.07-.31.74.74,0,0,0,0-.21.94.94,0,0,0-.18-.53l-.13-.14a.33.33,0,0,1-.11-.27.42.42,0,0,1,.08-.18.55.55,0,0,1,.28-.17.27.27,0,0,1,.33.14.56.56,0,0,1,.09.31,1.77,1.77,0,0,1,0,.23l0,.2a2,2,0,0,1-.06.35c0,.14,0,.28-.09.41s-.13.45-.2.67a3.06,3.06,0,0,1-.22.49,4,4,0,0,1-.27.44,1.52,1.52,0,0,1-.53.45l-.3.09a.55.55,0,0,1-.18,0,.94.94,0,0,1-.37-.07.77.77,0,0,1-.28-.19.84.84,0,0,1-.21-.35,2.17,2.17,0,0,1-.07-.24Z" transform="translate(-555.06 -294.58)"/><path class="cls-15" d="M634.05,395.43v1c0,.1,0,.2,0,.3s0,.22,0,.33a1.25,1.25,0,0,1-.11.39.84.84,0,0,1-.28.31.72.72,0,0,1-.27.09l-.14,0a.82.82,0,0,1-.42-.15.8.8,0,0,1-.23-.29,1.19,1.19,0,0,1-.1-.32l0-.26a.22.22,0,0,1,0-.08c0-.05,0-.09,0-.14v-.29c0-.23,0-.46,0-.69a1.69,1.69,0,0,1,0-.23,2.46,2.46,0,0,1,0-.28,1.56,1.56,0,0,1,.09-.47.74.74,0,0,1,.65-.48.76.76,0,0,1,.39.06.69.69,0,0,1,.24.18.77.77,0,0,1,.18.36,2.5,2.5,0,0,1,0,.29c0,.08,0,.15,0,.23a.28.28,0,0,0,0,.09Z" transform="translate(-555.06 -294.58)"/><path class="cls-1" d="M700.55,403.7a10.89,10.89,0,0,1,7.34,10.3" transform="translate(-555.06 -294.58)"/><polygon points="145.71 111.8 141.94 108.53 146.66 106.9 145.71 111.8"/><path class="cls-15" d="M713.16,407.07h-6.82V402h8.45v5.07h-1.48l.19,0a1,1,0,0,0,.37-.13,1,1,0,0,0,.31-.26,1.32,1.32,0,0,0,.2-.32,2.06,2.06,0,0,0,.12-.35,2.32,2.32,0,0,0,.07-.38c0-.12,0-.23,0-.35v-.12c0-.16,0-.31,0-.47l0-.29a3,3,0,0,0-.07-.32,2,2,0,0,0-.18-.42,1.08,1.08,0,0,0-.28-.32,1.11,1.11,0,0,0-.3-.17,1.25,1.25,0,0,0-.37-.09h-.21l-.24,0a1,1,0,0,0-.51.25,1.13,1.13,0,0,0-.22.27,1.71,1.71,0,0,0-.22.54,2.33,2.33,0,0,0-.08.46,2.83,2.83,0,0,0,0,.29c0,.13,0,.26,0,.39s0,.23,0,.35a2.51,2.51,0,0,0,0,.27,1.87,1.87,0,0,0,.2.53,1.38,1.38,0,0,0,.17.25,1,1,0,0,0,.4.29,1.12,1.12,0,0,0,.44.09ZM708.55,405h0a2.17,2.17,0,0,0,.07.24.84.84,0,0,0,.21.35.77.77,0,0,0,.28.19.94.94,0,0,0,.37.07.55.55,0,0,0,.18,0l.3-.09a1.52,1.52,0,0,0,.53-.45,4,4,0,0,0,.27-.44,3.06,3.06,0,0,0,.22-.49c.07-.22.14-.45.2-.67s.06-.27.09-.41a2,2,0,0,0,.06-.35l0-.2a1.77,1.77,0,0,0,0-.23.56.56,0,0,0-.09-.31.27.27,0,0,0-.33-.14.55.55,0,0,0-.28.17.42.42,0,0,0-.08.18.33.33,0,0,0,.11.27l.13.14a.94.94,0,0,1,.18.53.74.74,0,0,1,0,.21,1.16,1.16,0,0,1-.07.31,2.66,2.66,0,0,1-.26.6,1.84,1.84,0,0,1-.27.37l-.23.21a.83.83,0,0,1-.45.19,1.1,1.1,0,0,1-.36,0,.76.76,0,0,1-.37-.27,1.11,1.11,0,0,1-.16-.39s0,0,0-.07l.1-.28a3.3,3.3,0,0,0,.12-.38,1.08,1.08,0,0,0,.05-.36.13.13,0,0,0-.08-.13.24.24,0,0,0-.27.08.69.69,0,0,0-.11.28c0,.13-.06.27-.08.41l0,.31a.13.13,0,0,1,0,.09l-.21.27a1.75,1.75,0,0,1-.32.29,1,1,0,0,1-.43.17.76.76,0,0,1-.3,0,.56.56,0,0,1-.36-.19.84.84,0,0,1-.18-.35,2,2,0,0,1,0-.24c0-.07,0-.14,0-.21s0,0,0-.07a.92.92,0,0,1,0-.16c0-.1,0-.2.07-.3a2.37,2.37,0,0,1,.25-.62,6.16,6.16,0,0,1,.33-.55l.16-.23a.11.11,0,0,0,0-.11.16.16,0,0,0-.18-.12.21.21,0,0,0-.15.11,4,4,0,0,0-.44.81,5,5,0,0,0-.22.65,3.4,3.4,0,0,0-.07.34c0,.1,0,.2-.05.3s0,.2,0,.3v.18c0,.05,0,.1,0,.15a1.28,1.28,0,0,0,.07.34.92.92,0,0,0,.19.35.67.67,0,0,0,.36.21,1.09,1.09,0,0,0,.26,0,.91.91,0,0,0,.17,0,1.09,1.09,0,0,0,.32-.1,1.58,1.58,0,0,0,.52-.4l.1-.12C708.44,405.11,708.49,405,708.55,405Z" transform="translate(-555.06 -294.58)"/><path d="M713.16,407.07h0a1.12,1.12,0,0,1-.44-.09,1,1,0,0,1-.4-.29,1.38,1.38,0,0,1-.17-.25,1.87,1.87,0,0,1-.2-.53,2.51,2.51,0,0,1,0-.27c0-.12,0-.23,0-.35s0-.26,0-.39a2.83,2.83,0,0,1,0-.29,2.33,2.33,0,0,1,.08-.46,1.71,1.71,0,0,1,.22-.54,1.13,1.13,0,0,1,.22-.27,1,1,0,0,1,.51-.25l.24,0h.21a1.25,1.25,0,0,1,.37.09,1.11,1.11,0,0,1,.3.17,1.08,1.08,0,0,1,.28.32,2,2,0,0,1,.18.42,3,3,0,0,1,.07.32l0,.29c0,.16,0,.31,0,.47v.12c0,.12,0,.23,0,.35a2.32,2.32,0,0,1-.07.38,2.06,2.06,0,0,1-.12.35,1.32,1.32,0,0,1-.2.32,1,1,0,0,1-.31.26,1,1,0,0,1-.37.13l-.19,0h-.15Zm.89-2.64h0a.28.28,0,0,1,0-.09c0-.08,0-.15,0-.23a2.5,2.5,0,0,0,0-.29.77.77,0,0,0-.18-.36.69.69,0,0,0-.24-.18.76.76,0,0,0-.39-.06.74.74,0,0,0-.65.48,1.56,1.56,0,0,0-.09.47,2.46,2.46,0,0,0,0,.28,1.69,1.69,0,0,0,0,.23c0,.23,0,.46,0,.69v.29s0,.09,0,.14a.22.22,0,0,0,0,.08l0,.26a1.19,1.19,0,0,0,.1.32.8.8,0,0,0,.23.29.82.82,0,0,0,.42.15l.14,0a.72.72,0,0,0,.27-.09.84.84,0,0,0,.28-.31,1.25,1.25,0,0,0,.11-.39c0-.11,0-.22,0-.33s0-.2,0-.3Z" transform="translate(-555.06 -294.58)"/><path d="M708.55,405c-.06.07-.11.15-.17.23l-.1.12a1.58,1.58,0,0,1-.52.4,1.09,1.09,0,0,1-.32.1.91.91,0,0,1-.17,0,1.09,1.09,0,0,1-.26,0,.67.67,0,0,1-.36-.21.92.92,0,0,1-.19-.35,1.28,1.28,0,0,1-.07-.34c0-.05,0-.1,0-.15v-.18c0-.1,0-.2,0-.3s0-.2.05-.3a3.4,3.4,0,0,1,.07-.34,5,5,0,0,1,.22-.65,4,4,0,0,1,.44-.81.21.21,0,0,1,.15-.11.16.16,0,0,1,.18.12.11.11,0,0,1,0,.11l-.16.23a6.16,6.16,0,0,0-.33.55,2.37,2.37,0,0,0-.25.62c0,.1-.05.2-.07.3a.92.92,0,0,0,0,.16s0,.05,0,.07,0,.14,0,.21a2,2,0,0,0,0,.24.84.84,0,0,0,.18.35.56.56,0,0,0,.36.19.76.76,0,0,0,.3,0A1,1,0,0,0,708,405a1.75,1.75,0,0,0,.32-.29l.21-.27a.13.13,0,0,0,0-.09l0-.31c0-.14.05-.28.08-.41a.69.69,0,0,1,.11-.28.24.24,0,0,1,.27-.08.13.13,0,0,1,.08.13,1.08,1.08,0,0,1-.05.36,3.3,3.3,0,0,1-.12.38l-.1.28s0,.05,0,.07a1.11,1.11,0,0,0,.16.39.76.76,0,0,0,.37.27,1.1,1.1,0,0,0,.36,0,.83.83,0,0,0,.45-.19l.23-.21a1.84,1.84,0,0,0,.27-.37,2.66,2.66,0,0,0,.26-.6,1.16,1.16,0,0,0,.07-.31.74.74,0,0,0,0-.21.94.94,0,0,0-.18-.53l-.13-.14a.33.33,0,0,1-.11-.27.42.42,0,0,1,.08-.18.55.55,0,0,1,.28-.17.27.27,0,0,1,.33.14.56.56,0,0,1,.09.31,1.77,1.77,0,0,1,0,.23l0,.2a2,2,0,0,1-.06.35c0,.14,0,.28-.09.41s-.13.45-.2.67a3.06,3.06,0,0,1-.22.49,4,4,0,0,1-.27.44,1.52,1.52,0,0,1-.53.45l-.3.09a.55.55,0,0,1-.18,0,.94.94,0,0,1-.37-.07.77.77,0,0,1-.28-.19.84.84,0,0,1-.21-.35,2.17,2.17,0,0,1-.07-.24Z" transform="translate(-555.06 -294.58)"/><path class="cls-15" d="M714.05,404.43v1c0,.1,0,.2,0,.3s0,.22,0,.33a1.25,1.25,0,0,1-.11.39.84.84,0,0,1-.28.31.72.72,0,0,1-.27.09l-.14,0a.82.82,0,0,1-.42-.15.8.8,0,0,1-.23-.29,1.19,1.19,0,0,1-.1-.32l0-.26a.22.22,0,0,1,0-.08c0-.05,0-.09,0-.14v-.29c0-.23,0-.46,0-.69a1.69,1.69,0,0,1,0-.23,2.46,2.46,0,0,1,0-.28,1.56,1.56,0,0,1,.09-.47.74.74,0,0,1,.65-.48.76.76,0,0,1,.39.06.69.69,0,0,1,.24.18.77.77,0,0,1,.18.36,2.5,2.5,0,0,1,0,.29c0,.08,0,.15,0,.23a.28.28,0,0,0,0,.09Z" transform="translate(-555.06 -294.58)"/><path class="cls-15" d="M732.73,388.08H721V375.35h56v12.73H732.9a3.08,3.08,0,0,0,.61-.07,3.62,3.62,0,0,0,1.22-.5,3.23,3.23,0,0,0,.7-.58,2,2,0,0,0,.21-.28.15.15,0,0,0-.06-.21c-.07,0-.13,0-.19.05l-.06.07a3.73,3.73,0,0,1-.44.45,3.32,3.32,0,0,1-1.55.73,2.6,2.6,0,0,1-.62,0,.93.93,0,0,1-.43-.12,1,1,0,0,1-.43-.51,2.26,2.26,0,0,1-.14-1,5.76,5.76,0,0,1,.17-1,.29.29,0,0,1,0-.09h.9a6.1,6.1,0,0,0,1.13-.12,2.33,2.33,0,0,0,.72-.23,1.4,1.4,0,0,0,.8-1.11,1,1,0,0,0-.35-.89,1.43,1.43,0,0,0-.89-.32,3.05,3.05,0,0,0-1.54.37,3.65,3.65,0,0,0-.95.7,3.45,3.45,0,0,0-.61.86,3.4,3.4,0,0,0-.32,1.81,2.52,2.52,0,0,0,.28,1,1.82,1.82,0,0,0,1.38,1ZM727.47,385a.64.64,0,0,0,0,.07l.09,1c0,.16,0,.32,0,.48s0,.38,0,.57a.28.28,0,0,1-.08.2.7.7,0,0,1-.16.1,1.34,1.34,0,0,1-.48.11h-.29a.17.17,0,0,0-.2.15.28.28,0,0,0,0,.09.13.13,0,0,0,.13.15h.07l.94,0h1.09l1,0a.19.19,0,0,0,.2-.17c0-.16,0-.22-.18-.22h-.26a2.83,2.83,0,0,1-.41,0,.27.27,0,0,1-.24-.24l0-.3c0-.42-.09-.84-.13-1.25s-.07-.75-.11-1.12l-.06-.68c-.05-.46-.09-.91-.14-1.37l-.12-1.24c0-.38-.08-.76-.11-1.14s-.07-.7-.1-1.05a.5.5,0,0,0,0-.12.13.13,0,0,0-.1-.1c-.22,0-.33,0-.43.17l-1.06,1.76L724.51,384c-.47.79-.94,1.59-1.42,2.38a3.55,3.55,0,0,1-.55.74,1.59,1.59,0,0,1-.92.44l-.29,0a.22.22,0,0,0-.12.32.17.17,0,0,0,.15.06l.65,0c.29,0,.58,0,.86,0l.85,0c.17,0,.24-.08.24-.24a.14.14,0,0,0-.12-.15h-.08a.87.87,0,0,1-.41-.11.33.33,0,0,1-.18-.26.49.49,0,0,1,0-.27l.12-.23c.31-.52.62-1,.92-1.55a.15.15,0,0,1,.16-.09h3.07Zm43.82-6.36h-.19a3.6,3.6,0,0,0-1.46.48,2.77,2.77,0,0,0-1,1.07,1.65,1.65,0,0,0-.2,1,1.39,1.39,0,0,0,.53.95,1.93,1.93,0,0,0,.9.43l.45.07s0,.06,0,.09c-.11.47-.23.93-.34,1.4,0,.18,0,.22.17.2a.1.1,0,0,0,.1-.06.65.65,0,0,0,0-.13c.09-.35.17-.7.26-1.05l.12-.44.36,0a3.41,3.41,0,0,0,1.27-.46,2.75,2.75,0,0,0,.88-.78,1.81,1.81,0,0,0,.4-1.24,1.43,1.43,0,0,0-.46-.95,1.91,1.91,0,0,0-1-.5l-.45-.07.15-.58.3-1.22c0-.09.05-.18.07-.28s0-.12-.1-.14-.19,0-.22.13l-.36,1.45Zm-23.74,3.16c0,.05,0,.09.05.13a1.13,1.13,0,0,0,1.37.68,1.55,1.55,0,0,0,.85-.54,3.22,3.22,0,0,0,.5-.81,5.76,5.76,0,0,0,.47-1.91.76.76,0,0,0-.14-.53.4.4,0,0,0-.58-.07.73.73,0,0,0-.14.16.34.34,0,0,0,0,.48c.06,0,.1.11.15.16a.75.75,0,0,1,.2.66,2.31,2.31,0,0,1-.71,1.38,1.3,1.3,0,0,1-.65.33,1,1,0,0,1-1.07-.6.11.11,0,0,1,0-.11,3.48,3.48,0,0,0,.25-.68,1,1,0,0,0,.05-.34.23.23,0,0,0-.26-.23.31.31,0,0,0-.26.18,1.66,1.66,0,0,0-.12.31,2.71,2.71,0,0,0-.08.69.19.19,0,0,1-.05.14l-.23.24a1.58,1.58,0,0,1-.78.4.8.8,0,0,1-.89-.39,1.27,1.27,0,0,1-.16-.66,2.42,2.42,0,0,1,.29-1,4.64,4.64,0,0,1,.45-.7l.15-.22a.15.15,0,0,0,0-.18.2.2,0,0,0-.3,0l-.08.09a3.59,3.59,0,0,0-.42.67,3.88,3.88,0,0,0-.43,1.89,1.57,1.57,0,0,0,.2.76.94.94,0,0,0,.53.45,1.3,1.3,0,0,0,.87,0,1.9,1.9,0,0,0,.85-.66Zm16.1-1.67h-2.74a.62.62,0,0,0-.19,0,.17.17,0,0,0-.13.18c0,.12,0,.18.13.21a.55.55,0,0,0,.18,0h2.75v2.75a.77.77,0,0,0,0,.15.17.17,0,0,0,.18.15c.12,0,.19,0,.22-.14a.88.88,0,0,0,0-.16v-2.75h2.74a.55.55,0,0,0,.18,0,.19.19,0,0,0,.13-.2.17.17,0,0,0-.14-.19.55.55,0,0,0-.18,0h-2.73v-2.72a.88.88,0,0,0,0-.17.19.19,0,0,0-.21-.15.19.19,0,0,0-.19.16.59.59,0,0,0,0,.14v2.75Zm-26.92,3.94.08,0a.51.51,0,0,0,.2-.37.3.3,0,0,0-.25-.35.45.45,0,0,0-.49.18.49.49,0,0,0,.14.75,1.24,1.24,0,0,0,.5.13,2,2,0,0,0,.83-.13,1.79,1.79,0,0,0,1.16-1.3c.12-.46.23-.92.35-1.38.16-.61.31-1.22.46-1.83a.78.78,0,0,0,0-.5.79.79,0,0,0-.57-.51,1.21,1.21,0,0,0-1.09.2,2.14,2.14,0,0,0-.64.73c-.06.11-.11.22-.16.33a.12.12,0,0,0,0,.14.18.18,0,0,0,.26-.07.36.36,0,0,1,0-.09,2.4,2.4,0,0,1,.34-.55,1.7,1.7,0,0,1,.37-.34.85.85,0,0,1,.49-.14.24.24,0,0,1,.26.2,1,1,0,0,1,0,.42c-.07.3-.15.6-.22.9l-.6,2.35a2.16,2.16,0,0,1-.23.66,1.31,1.31,0,0,1-.65.6A.91.91,0,0,1,736.73,384.09Zm20.91-5a.08.08,0,0,0,0,0l-.57,2.27a2,2,0,0,0-.07.41.74.74,0,0,0,.4.72,1.11,1.11,0,0,0,.78.12,1.45,1.45,0,0,0,.74-.42,2.12,2.12,0,0,0,.44-.59c0-.09.09-.19.13-.28a.11.11,0,0,0-.05-.15.19.19,0,0,0-.24.08c-.05.09-.09.19-.14.28a1.91,1.91,0,0,1-.51.62,1,1,0,0,1-.48.22.32.32,0,0,1-.32-.09.5.5,0,0,1-.08-.26,1.42,1.42,0,0,1,.06-.46c.18-.75.37-1.5.56-2.24a2.68,2.68,0,0,0,.07-.27h1c.11,0,.15-.07.15-.19s0-.11-.11-.13h-1s0-.06,0-.09c.1-.42.21-.85.32-1.27a.27.27,0,0,0-.13-.31.38.38,0,0,0-.42.05.58.58,0,0,0-.17.29l-.27,1.08c0,.09,0,.17-.07.25h-1a.18.18,0,0,0-.15.2.1.1,0,0,0,.09.11h1Zm-2.71,2.69c0-.18,0-.37,0-.55a2.18,2.18,0,0,0-.19-.75,1.38,1.38,0,0,0-1-.83,2.21,2.21,0,0,0-.63,0,1.58,1.58,0,0,0-.7.21,1.52,1.52,0,0,0-.6.74,3.14,3.14,0,0,0-.19,1.1,3.27,3.27,0,0,0,0,.44,2.53,2.53,0,0,0,.21,1,1.38,1.38,0,0,0,1,.83,2.06,2.06,0,0,0,.82,0,1.32,1.32,0,0,0,.79-.41,1.83,1.83,0,0,0,.38-.68A3.73,3.73,0,0,0,754.93,381.78Zm-13.18-1.42c0,.14,0,.28,0,.42a7.33,7.33,0,0,0,.13.94,5.35,5.35,0,0,0,.8,1.87,5.11,5.11,0,0,0,1.15,1.17.18.18,0,0,0,.14,0,.11.11,0,0,0,.06-.17s0,0,0,0l-.31-.31a4.34,4.34,0,0,1-.72-1,5.59,5.59,0,0,1-.46-1.32,8.84,8.84,0,0,1-.15-1.36,3.85,3.85,0,0,1,0-.48c0-.19,0-.38,0-.57a5.45,5.45,0,0,1,.7-2.25,4.29,4.29,0,0,1,.8-1,1.59,1.59,0,0,0,.13-.13.11.11,0,0,0,0-.17.17.17,0,0,0-.17,0,4.72,4.72,0,0,0-.74.67,5,5,0,0,0-.91,1.45A6.26,6.26,0,0,0,741.75,380.36Zm35.06,0,0-.44a5.17,5.17,0,0,0-.13-.95,5.43,5.43,0,0,0-.52-1.39,4.68,4.68,0,0,0-1.16-1.42l-.28-.21a.17.17,0,0,0-.17,0,.11.11,0,0,0,0,.15.18.18,0,0,0,.05.07l.36.36a4,4,0,0,1,.6.88,5.26,5.26,0,0,1,.48,1.29,7.19,7.19,0,0,1,.17,1.46c0,.17,0,.34,0,.51s0,.35,0,.53a5.45,5.45,0,0,1-.28,1.32,4.31,4.31,0,0,1-1.17,1.88l-.16.17a.11.11,0,0,0,0,.14.12.12,0,0,0,.15,0,.27.27,0,0,0,.1-.06,3.57,3.57,0,0,0,.74-.66,4.89,4.89,0,0,0,.8-1.26A6.11,6.11,0,0,0,776.81,380.37Zm-37.6-3.17a.33.33,0,0,0,.38.34.52.52,0,0,0,.47-.42.34.34,0,0,0-.26-.4.44.44,0,0,0-.32.06A.49.49,0,0,0,739.21,377.2Z" transform="translate(-555.06 -294.58)"/><path d="M732.73,388.08l-.27,0a1.82,1.82,0,0,1-1.38-1,2.52,2.52,0,0,1-.28-1,3.4,3.4,0,0,1,.32-1.81,3.45,3.45,0,0,1,.61-.86,3.65,3.65,0,0,1,.95-.7,3.05,3.05,0,0,1,1.54-.37,1.43,1.43,0,0,1,.89.32,1,1,0,0,1,.35.89,1.4,1.4,0,0,1-.8,1.11,2.33,2.33,0,0,1-.72.23,6.1,6.1,0,0,1-1.13.12h-.9a.29.29,0,0,0,0,.09,5.76,5.76,0,0,0-.17,1,2.26,2.26,0,0,0,.14,1,1,1,0,0,0,.43.51.93.93,0,0,0,.43.12,2.6,2.6,0,0,0,.62,0,3.32,3.32,0,0,0,1.55-.73,3.73,3.73,0,0,0,.44-.45l.06-.07c.06-.07.12-.09.19-.05a.15.15,0,0,1,.06.21,2,2,0,0,1-.21.28,3.23,3.23,0,0,1-.7.58,3.62,3.62,0,0,1-1.22.5,3.08,3.08,0,0,1-.61.07h-.17Zm-.74-3.35h.08l.92,0a4.08,4.08,0,0,0,.91-.13,1.82,1.82,0,0,0,.79-.38.94.94,0,0,0,.35-.87.73.73,0,0,0-.46-.61,1.14,1.14,0,0,0-.73-.07,2.13,2.13,0,0,0-1.26.8,3.12,3.12,0,0,0-.55,1.11C732,384.61,732,384.67,732,384.73Z" transform="translate(-555.06 -294.58)"/><path d="M727.47,385H724.4a.15.15,0,0,0-.16.09c-.3.52-.61,1-.92,1.55l-.12.23a.49.49,0,0,0,0,.27.33.33,0,0,0,.18.26.87.87,0,0,0,.41.11h.08a.14.14,0,0,1,.12.15c0,.16-.07.24-.24.24l-.85,0c-.28,0-.57,0-.86,0l-.65,0a.17.17,0,0,1-.15-.06.22.22,0,0,1,.12-.32l.29,0a1.59,1.59,0,0,0,.92-.44,3.55,3.55,0,0,0,.55-.74c.48-.79.95-1.59,1.42-2.38l1.88-3.14,1.06-1.76c.1-.17.21-.2.43-.17a.13.13,0,0,1,.1.1.5.5,0,0,1,0,.12c0,.35.06.7.1,1.05s.07.76.11,1.14l.12,1.24c0,.46.09.91.14,1.37l.06.68c0,.37.08.75.11,1.12s.09.83.13,1.25l0,.3a.27.27,0,0,0,.24.24,2.83,2.83,0,0,0,.41,0h.26c.16,0,.2.06.18.22a.19.19,0,0,1-.2.17l-1,0H727.6l-.94,0h-.07a.13.13,0,0,1-.13-.15.28.28,0,0,1,0-.09.17.17,0,0,1,.2-.15H727a1.34,1.34,0,0,0,.48-.11.7.7,0,0,0,.16-.1.28.28,0,0,0,.08-.2c0-.19,0-.38,0-.57s0-.32,0-.48l-.09-1A.64.64,0,0,1,727.47,385Zm-.44-4.54c-.15.22-2.44,4-2.46,4.13h2.87c0-.16,0-.32-.05-.48,0-.35-.07-.7-.1-1.05s-.09-.84-.13-1.25l-.09-1.06C727.06,380.68,727.05,380.59,727,380.48Z" transform="translate(-555.06 -294.58)"/><path d="M771.29,378.66l.16-.64.36-1.45c0-.11.09-.15.22-.13s.11.06.1.14,0,.19-.07.28l-.3,1.22-.15.58.45.07a1.91,1.91,0,0,1,1,.5,1.43,1.43,0,0,1,.46.95,1.81,1.81,0,0,1-.4,1.24,2.75,2.75,0,0,1-.88.78,3.41,3.41,0,0,1-1.27.46l-.36,0-.12.44c-.09.35-.17.7-.26,1.05a.65.65,0,0,1,0,.13.1.1,0,0,1-.1.06c-.16,0-.22,0-.17-.2.11-.47.23-.93.34-1.4,0,0,0-.06,0-.09l-.45-.07a1.93,1.93,0,0,1-.9-.43,1.39,1.39,0,0,1-.53-.95,1.65,1.65,0,0,1,.2-1,2.77,2.77,0,0,1,1-1.07,3.6,3.6,0,0,1,1.46-.48Zm-.63,3.76h0l.17,0a2.34,2.34,0,0,0,1.65-1.11,2,2,0,0,0,.32-1.32,1.05,1.05,0,0,0-.41-.75,1.41,1.41,0,0,0-.68-.28l-.21,0Zm.56-3.5-.27,0a2.38,2.38,0,0,0-1.83,1.64,1.83,1.83,0,0,0-.07.84,1.1,1.1,0,0,0,.44.71,1.4,1.4,0,0,0,.65.25c.07,0,.13,0,.2,0Z" transform="translate(-555.06 -294.58)"/><path d="M747.55,381.82l-.08.1a1.9,1.9,0,0,1-.85.66,1.3,1.3,0,0,1-.87,0,.94.94,0,0,1-.53-.45,1.57,1.57,0,0,1-.2-.76,3.88,3.88,0,0,1,.43-1.89,3.59,3.59,0,0,1,.42-.67l.08-.09a.2.2,0,0,1,.3,0,.15.15,0,0,1,0,.18l-.15.22a4.64,4.64,0,0,0-.45.7,2.42,2.42,0,0,0-.29,1,1.27,1.27,0,0,0,.16.66.8.8,0,0,0,.89.39,1.58,1.58,0,0,0,.78-.4l.23-.24a.19.19,0,0,0,.05-.14,2.71,2.71,0,0,1,.08-.69,1.66,1.66,0,0,1,.12-.31.31.31,0,0,1,.26-.18.23.23,0,0,1,.26.23,1,1,0,0,1-.05.34,3.48,3.48,0,0,1-.25.68.11.11,0,0,0,0,.11,1,1,0,0,0,1.07.6,1.3,1.3,0,0,0,.65-.33,2.31,2.31,0,0,0,.71-1.38.75.75,0,0,0-.2-.66c0-.05-.09-.11-.15-.16a.34.34,0,0,1,0-.48.73.73,0,0,1,.14-.16.4.4,0,0,1,.58.07.76.76,0,0,1,.14.53,5.76,5.76,0,0,1-.47,1.91,3.22,3.22,0,0,1-.5.81,1.55,1.55,0,0,1-.85.54,1.13,1.13,0,0,1-1.37-.68S747.57,381.87,747.55,381.82Z" transform="translate(-555.06 -294.58)"/><path d="M763.65,380.15V377.4a.59.59,0,0,1,0-.14.19.19,0,0,1,.19-.16.19.19,0,0,1,.21.15.88.88,0,0,1,0,.17v2.72h2.73a.55.55,0,0,1,.18,0,.17.17,0,0,1,.14.19.19.19,0,0,1-.13.2.55.55,0,0,1-.18,0h-2.74v2.75a.88.88,0,0,1,0,.16c0,.1-.1.14-.22.14a.17.17,0,0,1-.18-.15.77.77,0,0,1,0-.15v-2.75H760.9a.55.55,0,0,1-.18,0c-.09,0-.13-.09-.13-.21a.17.17,0,0,1,.13-.18.62.62,0,0,1,.19,0h2.74Z" transform="translate(-555.06 -294.58)"/><path d="M736.73,384.09a.91.91,0,0,0,.61,0,1.31,1.31,0,0,0,.65-.6,2.16,2.16,0,0,0,.23-.66l.6-2.35c.07-.3.15-.6.22-.9a1,1,0,0,0,0-.42.24.24,0,0,0-.26-.2.85.85,0,0,0-.49.14,1.7,1.7,0,0,0-.37.34,2.4,2.4,0,0,0-.34.55.36.36,0,0,0,0,.09.18.18,0,0,1-.26.07.12.12,0,0,1,0-.14c0-.11.1-.22.16-.33a2.14,2.14,0,0,1,.64-.73,1.21,1.21,0,0,1,1.09-.2.79.79,0,0,1,.57.51.78.78,0,0,1,0,.5c-.15.61-.3,1.22-.46,1.83-.12.46-.23.92-.35,1.38a1.79,1.79,0,0,1-1.16,1.3,2,2,0,0,1-.83.13,1.24,1.24,0,0,1-.5-.13.49.49,0,0,1-.14-.75.45.45,0,0,1,.49-.18.3.3,0,0,1,.25.35.51.51,0,0,1-.2.37Z" transform="translate(-555.06 -294.58)"/><path d="M757.64,379.09h-1a.1.1,0,0,1-.09-.11.18.18,0,0,1,.15-.2h1c0-.08,0-.16.07-.25l.27-1.08a.58.58,0,0,1,.17-.29.38.38,0,0,1,.42-.05.27.27,0,0,1,.13.31c-.11.42-.22.85-.32,1.27,0,0,0,.05,0,.09h1c.08,0,.11.05.11.13s0,.17-.15.19h-1a2.68,2.68,0,0,1-.07.27c-.19.74-.38,1.49-.56,2.24a1.42,1.42,0,0,0-.06.46.5.5,0,0,0,.08.26.32.32,0,0,0,.32.09,1,1,0,0,0,.48-.22,1.91,1.91,0,0,0,.51-.62c.05-.09.09-.19.14-.28a.19.19,0,0,1,.24-.08.11.11,0,0,1,.05.15c0,.09-.08.19-.13.28a2.12,2.12,0,0,1-.44.59,1.45,1.45,0,0,1-.74.42,1.11,1.11,0,0,1-.78-.12.74.74,0,0,1-.4-.72,2,2,0,0,1,.07-.41l.57-2.27A.08.08,0,0,1,757.64,379.09Z" transform="translate(-555.06 -294.58)"/><path d="M754.93,381.78a3.73,3.73,0,0,1-.13,1.05,1.83,1.83,0,0,1-.38.68,1.32,1.32,0,0,1-.79.41,2.06,2.06,0,0,1-.82,0,1.38,1.38,0,0,1-1-.83,2.53,2.53,0,0,1-.21-1,3.27,3.27,0,0,1,0-.44,3.14,3.14,0,0,1,.19-1.1,1.52,1.52,0,0,1,.6-.74,1.58,1.58,0,0,1,.7-.21,2.21,2.21,0,0,1,.63,0,1.38,1.38,0,0,1,1,.83,2.18,2.18,0,0,1,.19.75C754.91,381.41,754.92,381.6,754.93,381.78Zm-.65,0h0c0-.23,0-.46,0-.69a3.93,3.93,0,0,0-.06-.48.87.87,0,0,0-.58-.69,1.09,1.09,0,0,0-.44-.05.88.88,0,0,0-.85.69,3.44,3.44,0,0,0-.08.78c0,.37,0,.74,0,1.1a2.6,2.6,0,0,0,.1.68.86.86,0,0,0,.56.61,1,1,0,0,0,.69,0,.81.81,0,0,0,.46-.39,1.34,1.34,0,0,0,.14-.38,4.57,4.57,0,0,0,.06-.83C754.29,382,754.28,381.84,754.28,381.73Z" transform="translate(-555.06 -294.58)"/><path d="M741.75,380.36a6.26,6.26,0,0,1,.43-2.26,5,5,0,0,1,.91-1.45,4.72,4.72,0,0,1,.74-.67.17.17,0,0,1,.17,0,.11.11,0,0,1,0,.17,1.59,1.59,0,0,1-.13.13,4.29,4.29,0,0,0-.8,1,5.45,5.45,0,0,0-.7,2.25c0,.19,0,.38,0,.57a3.85,3.85,0,0,0,0,.48,8.84,8.84,0,0,0,.15,1.36,5.59,5.59,0,0,0,.46,1.32,4.34,4.34,0,0,0,.72,1l.31.31s0,0,0,0a.11.11,0,0,1-.06.17.18.18,0,0,1-.14,0,5.11,5.11,0,0,1-1.15-1.17,5.35,5.35,0,0,1-.8-1.87,7.33,7.33,0,0,1-.13-.94C741.77,380.64,741.76,380.5,741.75,380.36Z" transform="translate(-555.06 -294.58)"/><path d="M776.81,380.37a6.11,6.11,0,0,1-.51,2.42,4.89,4.89,0,0,1-.8,1.26,3.57,3.57,0,0,1-.74.66.27.27,0,0,1-.1.06.12.12,0,0,1-.15,0,.11.11,0,0,1,0-.14l.16-.17a4.31,4.31,0,0,0,1.17-1.88,5.45,5.45,0,0,0,.28-1.32c0-.18,0-.35,0-.53s0-.34,0-.51a7.19,7.19,0,0,0-.17-1.46,5.26,5.26,0,0,0-.48-1.29,4,4,0,0,0-.6-.88l-.36-.36a.18.18,0,0,1-.05-.07.11.11,0,0,1,0-.15.17.17,0,0,1,.17,0l.28.21a4.68,4.68,0,0,1,1.16,1.42,5.43,5.43,0,0,1,.52,1.39,5.17,5.17,0,0,1,.13.95Z" transform="translate(-555.06 -294.58)"/><path d="M739.21,377.2a.49.49,0,0,1,.27-.42.44.44,0,0,1,.32-.06.34.34,0,0,1,.26.4.52.52,0,0,1-.47.42A.33.33,0,0,1,739.21,377.2Z" transform="translate(-555.06 -294.58)"/><path class="cls-15" d="M732,384.73c0-.06,0-.12,0-.17a3.12,3.12,0,0,1,.55-1.11,2.13,2.13,0,0,1,1.26-.8,1.14,1.14,0,0,1,.73.07.73.73,0,0,1,.46.61.94.94,0,0,1-.35.87,1.82,1.82,0,0,1-.79.38,4.08,4.08,0,0,1-.91.13l-.92,0Z" transform="translate(-555.06 -294.58)"/><path class="cls-15" d="M727,380.48c0,.11,0,.2,0,.29l.09,1.06c0,.41.09.83.13,1.25s.07.7.1,1.05c0,.16,0,.32.05.48h-2.87C724.59,384.53,726.88,380.7,727,380.48Z" transform="translate(-555.06 -294.58)"/><path class="cls-15" d="M770.66,382.42l.88-3.5.21,0a1.41,1.41,0,0,1,.68.28,1.05,1.05,0,0,1,.41.75,2,2,0,0,1-.32,1.32,2.34,2.34,0,0,1-1.65,1.11l-.17,0Z" transform="translate(-555.06 -294.58)"/><path class="cls-15" d="M771.22,378.92l-.88,3.49c-.07,0-.13,0-.2,0a1.4,1.4,0,0,1-.65-.25,1.1,1.1,0,0,1-.44-.71,1.83,1.83,0,0,1,.07-.84A2.38,2.38,0,0,1,771,379Z" transform="translate(-555.06 -294.58)"/><path class="cls-15" d="M754.28,381.73c0,.11,0,.23,0,.35a4.57,4.57,0,0,1-.06.83,1.34,1.34,0,0,1-.14.38.81.81,0,0,1-.46.39,1,1,0,0,1-.69,0,.86.86,0,0,1-.56-.61,2.6,2.6,0,0,1-.1-.68c0-.36,0-.73,0-1.1a3.44,3.44,0,0,1,.08-.78.88.88,0,0,1,.85-.69,1.09,1.09,0,0,1,.44.05.87.87,0,0,1,.58.69,3.93,3.93,0,0,1,.06.48c0,.23,0,.46,0,.69Z" transform="translate(-555.06 -294.58)"/><path class="cls-6" d="M599,430h-.25v-.08c0-.15,0-.31,0-.46a1.26,1.26,0,0,0,0-.27c0-.11-.09-.15-.2-.16h-3.6a3.17,3.17,0,0,1,.15.5c0,.17,0,.34,0,.52h-.26v-.1a2.74,2.74,0,0,0-.09-.63,1.5,1.5,0,0,0-.32-.61.22.22,0,0,1,0-.21.09.09,0,0,1,.06,0h4.07a.19.19,0,0,0,.16-.12.65.65,0,0,0,0-.2c0-.19,0-.37,0-.56v-.09H599v.24c0,.21,0,.43,0,.64,0,.38,0,.76,0,1.13v.26a.43.43,0,0,1,0,0Z" transform="translate(-555.06 -294.58)"/><path class="cls-6" d="M599,429.78a.43.43,0,0,0,0,0v-.26c0-.37,0-.75,0-1.13,0-.21,0-.43,0-.64v2.08Z" transform="translate(-555.06 -294.58)"/><path class="cls-6" d="M595.29,432.93v2.49l.37.23.89.52a1.15,1.15,0,0,0,.25.12.33.33,0,0,0,.17,0,.27.27,0,0,0,.21-.15.84.84,0,0,0,.08-.31v-.05c0-.09.07-.13.16-.11s.15.06.15.18,0,.4,0,.6,0,.45,0,.67,0,.38,0,.57v.06a.12.12,0,0,1-.12.1l-.1,0a.13.13,0,0,1-.08-.11c0-.11,0-.21,0-.32a1.23,1.23,0,0,0-.32-.62,2.24,2.24,0,0,0-.46-.35l-2-1.2-1.62-1-1.56-.93-.67-.4c-.15-.09-.15-.19-.14-.35a.1.1,0,0,1,.08-.07l.18,0,.82-.08.88-.08.88-.09.89-.08.93-.1L596,432l1-.1c.18,0,.25-.05.27-.27s0-.28,0-.42,0-.07,0-.11a.1.1,0,0,1,.07-.07.18.18,0,0,1,.23.18c0,.23,0,.47,0,.7s0,.37,0,.55,0,.48,0,.72,0,.27,0,.4,0,.15-.1.15-.18,0-.2-.11a.38.38,0,0,1,0-.1,2,2,0,0,0,0-.43,1.54,1.54,0,0,0-.08-.19.25.25,0,0,0-.26-.13l-.59.06-1,.1Zm-3.57.34c.06.06,3.18,1.92,3.24,1.94s0-2.21,0-2.26l-.62.07-.75.07-.88.08-.84.08Z" transform="translate(-555.06 -294.58)"/><path class="cls-6" d="M595.28,424.88l.4.09.49.06a1.53,1.53,0,0,0,1-.21.69.69,0,0,0,.33-.61,2.52,2.52,0,0,0-.63-1.68,2,2,0,0,0-.36-.35l0,0a.1.1,0,0,1,0-.15.11.11,0,0,1,.16,0,1.7,1.7,0,0,1,.23.17,2.84,2.84,0,0,1,.79,1.32,3,3,0,0,1,.1.66,1.6,1.6,0,0,1-.07.58,1.43,1.43,0,0,1-.7.84,2.18,2.18,0,0,1-.79.23,2.8,2.8,0,0,1-1.31-.2A2.73,2.73,0,0,1,594,425a3.14,3.14,0,0,1-.56-.74,2.78,2.78,0,0,1-.28-.9,1.68,1.68,0,0,1,0-.63.88.88,0,0,1,.41-.58.74.74,0,0,1,.48-.1,1.14,1.14,0,0,1,.92.73,2.55,2.55,0,0,1,.19.72c0,.22,0,.43,0,.65s0,.41,0,.62Zm-.23-.06a.22.22,0,0,0,0-.08c0-.23,0-.47,0-.71a2.91,2.91,0,0,0-.1-.72,1.44,1.44,0,0,0-.3-.62.75.75,0,0,0-.69-.27.56.56,0,0,0-.48.36.9.9,0,0,0-.05.56,1.69,1.69,0,0,0,.6,1,2.56,2.56,0,0,0,.9.46Z" transform="translate(-555.06 -294.58)"/><path class="cls-6" d="M593.46,394.83l-.06.37a1.58,1.58,0,0,1-.45.82,1.15,1.15,0,0,1-.62.29,1.39,1.39,0,0,1-1-.25,2.35,2.35,0,0,1-.73-.84,2.71,2.71,0,0,1-.3-.91l0-.28-.09,0-1.47-.37-.12,0c-.08,0-.08-.18,0-.22a.12.12,0,0,1,.1,0l.42.1,1.17.29h0s0-.09,0-.14a1.72,1.72,0,0,1,.36-.91,1.17,1.17,0,0,1,.73-.43,1.32,1.32,0,0,1,.76.12,2.07,2.07,0,0,1,.87.79,2.66,2.66,0,0,1,.42,1.22c0,.05,0,.1,0,.15l.47.12.71.18h0c.13,0,.13.05.12.18s0,.08-.07.07l-.14,0-1-.26Zm-.22-.3a1,1,0,0,0,0-.18,1.82,1.82,0,0,0-.88-1.29,1.61,1.61,0,0,0-1-.25.9.9,0,0,0-.44.18,1,1,0,0,0-.35.62,1.6,1.6,0,0,0,0,.23Zm-2.75-.44a1.78,1.78,0,0,0,0,.26,1.84,1.84,0,0,0,1.29,1.39,1.43,1.43,0,0,0,.65.05.85.85,0,0,0,.56-.34,1.14,1.14,0,0,0,.2-.51.42.42,0,0,0,0-.16Z" transform="translate(-555.06 -294.58)"/><path class="cls-6" d="M592.78,412.59l.07.06a1.6,1.6,0,0,1,.52.66,1.06,1.06,0,0,1,0,.68.76.76,0,0,1-.36.43,1.27,1.27,0,0,1-.6.15,3.17,3.17,0,0,1-1.48-.33,4.59,4.59,0,0,1-.52-.33.46.46,0,0,1-.07-.07.16.16,0,0,1,.08-.26.14.14,0,0,1,.11,0l.21.16a3,3,0,0,0,.74.42,1.35,1.35,0,0,0,.66.1.79.79,0,0,0,.55-.25.57.57,0,0,0,.15-.48,1.19,1.19,0,0,0-.34-.71l-.17-.16a.13.13,0,0,0-.12-.05,1.57,1.57,0,0,1-.53-.06.77.77,0,0,1-.25-.1.23.23,0,0,1-.14-.21.18.18,0,0,1,.19-.19.59.59,0,0,1,.26,0,3.46,3.46,0,0,1,.54.19.08.08,0,0,0,.08,0,.78.78,0,0,0,.48-.59.87.87,0,0,0-.12-.57,1.33,1.33,0,0,0-.49-.48,1.82,1.82,0,0,0-.7-.27.66.66,0,0,0-.62.2l-.08.09a.28.28,0,0,1-.3.05.64.64,0,0,1-.2-.16.33.33,0,0,1,.13-.49.65.65,0,0,1,.34-.06,4.1,4.1,0,0,1,.49.06,3.85,3.85,0,0,1,.95.28,2.66,2.66,0,0,1,.71.42,1.23,1.23,0,0,1,.42.65.92.92,0,0,1-.17.83.76.76,0,0,1-.37.26l-.08,0Z" transform="translate(-555.06 -294.58)"/><path class="cls-6" d="M591.8,399.69H594l.13,0c.08,0,.11.08.11.17a.14.14,0,0,1-.12.15H591.8v2.17a.59.59,0,0,1,0,.13.13.13,0,0,1-.16.1.14.14,0,0,1-.15-.1.68.68,0,0,1,0-.14V400h-2.28a.14.14,0,0,1-.11-.15c0-.09,0-.15.11-.17l.14,0h2.14v-2.15a.59.59,0,0,1,0-.13.15.15,0,0,1,.16-.12.15.15,0,0,1,.15.12.59.59,0,0,1,0,.13v2.15Z" transform="translate(-555.06 -294.58)"/><path class="cls-6" d="M594.56,421.07a.44.44,0,0,1,0-.1.71.71,0,0,0-.22-.63,1.2,1.2,0,0,0-.68-.39l-2-.5-.64-.16a.81.81,0,0,0-.38,0,.21.21,0,0,0-.18.22.71.71,0,0,0,.17.44,1.38,1.38,0,0,0,.49.41l.23.12a.14.14,0,0,1,0,.2.08.08,0,0,1-.1,0,1.23,1.23,0,0,1-.26-.12,1.77,1.77,0,0,1-.55-.47,1,1,0,0,1-.21-.48.85.85,0,0,1,.14-.64.6.6,0,0,1,.58-.25,3.48,3.48,0,0,1,.44.1l1.69.42.64.17a1.32,1.32,0,0,1,.76.63,1.64,1.64,0,0,1,.22.63,1.11,1.11,0,0,1-.08.62.41.41,0,0,1-.28.23.4.4,0,0,1-.48-.47.26.26,0,0,1,.28-.2.42.42,0,0,1,.29.17l0,0Z" transform="translate(-555.06 -294.58)"/><path class="cls-6" d="M590.62,404.78v.75a.11.11,0,0,1-.19.09.1.1,0,0,1-.06-.08c0-.05,0-.1,0-.15v-.68l-.05,0-1-.24a.53.53,0,0,1-.24-.14.29.29,0,0,1,0-.33.21.21,0,0,1,.25-.1l1,.25.09,0v-.62s0-.1,0-.16,0-.08.07-.09a.14.14,0,0,1,.16.06.25.25,0,0,1,0,.12v.75l.31.08,1.67.42a1.14,1.14,0,0,0,.37,0l.12,0a.23.23,0,0,0,.14-.29.77.77,0,0,0-.17-.38,1.6,1.6,0,0,0-.49-.4l-.22-.11c-.07,0-.08-.06-.07-.15a.09.09,0,0,1,.12-.08l.2.09a1.81,1.81,0,0,1,.57.45,1.09,1.09,0,0,1,.27.61.8.8,0,0,1-.29.7.61.61,0,0,1-.47.11l-.68-.16-1.31-.33Z" transform="translate(-555.06 -294.58)"/><path class="cls-6" d="M592.74,406.78a3.23,3.23,0,0,1,.82.1,1.33,1.33,0,0,1,.53.3,1,1,0,0,1,.33.64,1.09,1.09,0,0,1,0,.26,1.27,1.27,0,0,1-.29.85,1.36,1.36,0,0,1-.52.33,2.55,2.55,0,0,1-.67.12h-.34a2.27,2.27,0,0,1-.93-.18,1.1,1.1,0,0,1-.67-.9,1.84,1.84,0,0,1,0-.62,1.07,1.07,0,0,1,.57-.68,1.71,1.71,0,0,1,.63-.19C592.42,406.79,592.58,406.79,592.74,406.78Zm0,.51h0l-.54,0-.38,0a.73.73,0,0,0-.43.25.79.79,0,0,0-.13.71.65.65,0,0,0,.52.51,2.48,2.48,0,0,0,.61.07h.81a2.33,2.33,0,0,0,.53-.06.68.68,0,0,0,.42-.25.78.78,0,0,0,.15-.64.72.72,0,0,0-.28-.44,1,1,0,0,0-.35-.14,3.71,3.71,0,0,0-.67,0Z" transform="translate(-555.06 -294.58)"/><path class="cls-6" d="M591.62,417.14a5,5,0,0,1-1.9-.39,3.75,3.75,0,0,1-1-.66,4.14,4.14,0,0,1-.53-.58.15.15,0,0,1,0-.13c0-.07.09-.09.14,0a.47.47,0,0,1,.1.1,3.59,3.59,0,0,0,.87.68,3.75,3.75,0,0,0,.94.37,4.7,4.7,0,0,0,.75.13l.44,0h.36a5.75,5.75,0,0,0,1.59-.26,3.75,3.75,0,0,0,1.3-.74l.28-.29,0,0a.07.07,0,0,1,.13,0,.13.13,0,0,1,0,.12,3.54,3.54,0,0,1-1,.93,4.07,4.07,0,0,1-1.41.59,4.82,4.82,0,0,1-.75.1Z" transform="translate(-555.06 -294.58)"/><path class="cls-6" d="M591.63,385.74a4.93,4.93,0,0,1,1.74.33,4.17,4.17,0,0,1,1.23.77,3.1,3.1,0,0,1,.44.51l.05.07a.12.12,0,0,1,0,.13.13.13,0,0,1-.13,0l-.13-.14a3.34,3.34,0,0,0-1-.7,4.35,4.35,0,0,0-1.36-.4,5.91,5.91,0,0,0-1.11-.06,5.82,5.82,0,0,0-1.11.15,3.8,3.8,0,0,0-1.59.8l-.31.3-.07.06a.09.09,0,0,1-.11,0,.13.13,0,0,1,0-.13v0a3.81,3.81,0,0,1,1.23-1.1,4.56,4.56,0,0,1,1.43-.48q.3,0,.6-.06Z" transform="translate(-555.06 -294.58)"/><path class="cls-6" d="M591.43,390.5a2.4,2.4,0,0,1,.13.59v.22h-.22v-.12a2.18,2.18,0,0,0-.11-.62,1.05,1.05,0,0,0-.18-.31c0-.06,0-.12,0-.18l0,0h2.84c.1,0,.16,0,.18-.17s0-.23,0-.35v-.25a.79.79,0,0,1,.22,0q0,1,0,2h-.22v-.08c0-.14,0-.29,0-.43a.77.77,0,0,0,0-.15.14.14,0,0,0-.13-.11h-2.52Z" transform="translate(-555.06 -294.58)"/><path class="cls-6" d="M589.13,419.14a.38.38,0,0,1-.32-.21.31.31,0,0,1,0-.25.27.27,0,0,1,.31-.21.44.44,0,0,1,.34.37A.27.27,0,0,1,589.13,419.14Z" transform="translate(-555.06 -294.58)"/><path class="cls-3" d="M640.66,459v-.13a.18.18,0,0,1,.06-.14l.6-.59.3-.3c.26-.24.51-.49.76-.74a2.71,2.71,0,0,0,.52-.7,1.58,1.58,0,0,0,.17-.56,1.17,1.17,0,0,0-.14-.69.93.93,0,0,0-.71-.5,1.13,1.13,0,0,0-.7.09,1.09,1.09,0,0,0-.52.52l.1,0a.33.33,0,0,1,.31.36.36.36,0,0,1-.39.37.35.35,0,0,1-.36-.37,1.12,1.12,0,0,1,.3-.78,1.45,1.45,0,0,1,.95-.47,1.85,1.85,0,0,1,1.06.16,1.27,1.27,0,0,1,.62,1.82,1.72,1.72,0,0,1-.31.4,6.59,6.59,0,0,1-.69.6l-.91.75-.26.23,0,.05h1.88a.14.14,0,0,0,.14-.1l.09-.36a1.06,1.06,0,0,0,0-.19h.24c0,.07,0,.15,0,.22-.05.33-.11.66-.16,1,0,0,0,0,0,.06Z" transform="translate(-555.06 -294.58)"/><path class="cls-3" d="M638.08,455.28h-2.42a.12.12,0,0,0-.12.07l-.72,1.21a1.63,1.63,0,0,0-.11.23.3.3,0,0,0,.17.41.71.71,0,0,0,.28.06h.06c.08,0,.1.07.09.14s-.09.17-.18.16h-1.27l-.58,0h-.06a.13.13,0,0,1-.09-.11.36.36,0,0,1,0-.11.13.13,0,0,1,.1-.08l.23,0a1.25,1.25,0,0,0,.73-.35,2.05,2.05,0,0,0,.34-.45c.41-.67.81-1.34,1.21-2l1-1.61c.31-.52.62-1,.94-1.56l.39-.67c.09-.15.19-.15.35-.13a.07.07,0,0,1,.07.07l0,.18.09,1,.09.88c0,.29.05.59.08.88l.09.89c0,.24,0,.48.07.72l.09.9c0,.24,0,.48.07.72s0,.24,0,.35a.21.21,0,0,0,.19.2,2.27,2.27,0,0,0,.45,0h.13c.07,0,.09,0,.09.11a.52.52,0,0,1,0,.11.13.13,0,0,1-.13.08h-2.4c-.1,0-.17-.05-.14-.17s.05-.13.16-.14h.32a1,1,0,0,0,.29-.08.28.28,0,0,0,.18-.31c0-.14,0-.27,0-.4s-.05-.44-.07-.66l0-.37C638.09,455.38,638.09,455.34,638.08,455.28Zm-.35-3.55h0l0,0-1.9,3.17h2.26a.28.28,0,0,1,0-.09c0-.19,0-.37,0-.55s0-.36,0-.54l-.09-.83c0-.3-.05-.6-.08-.89Z" transform="translate(-555.06 -294.58)"/><path class="cls-3" d="M646.12,455.29c0,.11,0,.21-.07.32a5.58,5.58,0,0,0-.08.57,1.5,1.5,0,0,0,.18.9.72.72,0,0,0,.66.38,2.47,2.47,0,0,0,1-.23,2.57,2.57,0,0,0,1-.77l0,0a.1.1,0,0,1,.15,0,.12.12,0,0,1,0,.16c-.06.07-.11.16-.18.23a2.79,2.79,0,0,1-1.32.79,2.93,2.93,0,0,1-.66.1,1.62,1.62,0,0,1-.58-.07,1.43,1.43,0,0,1-.84-.7,2.18,2.18,0,0,1-.23-.79,2.64,2.64,0,0,1,.2-1.3A2.47,2.47,0,0,1,646,454a2.8,2.8,0,0,1,.74-.55,2.37,2.37,0,0,1,.9-.28,1.49,1.49,0,0,1,.63,0,.89.89,0,0,1,.58.42.71.71,0,0,1,.1.47,1.15,1.15,0,0,1-.73.93,3,3,0,0,1-.72.18c-.22,0-.43,0-.65,0h-.7Zm.06-.23h.06l.73,0a3,3,0,0,0,.73-.1,1.45,1.45,0,0,0,.61-.3.74.74,0,0,0,.27-.68.55.55,0,0,0-.36-.48.84.84,0,0,0-.56-.06,1.69,1.69,0,0,0-1,.6,2.56,2.56,0,0,0-.46.9S646.2,455,646.18,455.06Z" transform="translate(-555.06 -294.58)"/><path class="cls-3" d="M677,450.28l.09-.38c.11-.41.21-.82.31-1.24,0,0,0,0,0,0s.07-.11.16-.1.1,0,.08.12l-.06.26-.33,1.34v0h.12a1.76,1.76,0,0,1,.84.29,1.18,1.18,0,0,1,.52.81,1.3,1.3,0,0,1-.12.75,2.14,2.14,0,0,1-.74.84,2.9,2.9,0,0,1-1.27.45h-.15l-.12.47-.18.71v0c0,.12,0,.12-.18.11a.06.06,0,0,1-.07-.07.59.59,0,0,1,0-.14c.09-.35.17-.7.26-1a.24.24,0,0,1,0-.08l-.17,0a1.58,1.58,0,0,1-.76-.27,1.13,1.13,0,0,1-.54-.77,1.2,1.2,0,0,1,.1-.79,2.08,2.08,0,0,1,.6-.75,2.73,2.73,0,0,1,1.25-.53l.16,0Zm.19.21-.69,2.76.18,0a1.82,1.82,0,0,0,1.29-.88,1.59,1.59,0,0,0,.25-1,.9.9,0,0,0-.18-.45,1,1,0,0,0-.62-.35A1.6,1.6,0,0,0,677.16,450.49Zm-.25,0-.26,0a1.86,1.86,0,0,0-.86.44,1.81,1.81,0,0,0-.53.85,1.43,1.43,0,0,0,0,.65.85.85,0,0,0,.34.56,1.14,1.14,0,0,0,.51.2.43.43,0,0,0,.16,0Z" transform="translate(-555.06 -294.58)"/><path class="cls-3" d="M658.41,452.78l-.06.08a1.57,1.57,0,0,1-.66.51,1.06,1.06,0,0,1-.68,0,.76.76,0,0,1-.43-.36,1.39,1.39,0,0,1-.15-.59,3.08,3.08,0,0,1,.34-1.49,3.46,3.46,0,0,1,.32-.52l.07-.07a.16.16,0,0,1,.26.08.14.14,0,0,1,0,.11l-.16.21a3,3,0,0,0-.42.74,1.37,1.37,0,0,0-.1.67.86.86,0,0,0,.24.54.59.59,0,0,0,.49.15,1.19,1.19,0,0,0,.71-.34c.06,0,.1-.11.15-.16a.16.16,0,0,0,.06-.14,1.51,1.51,0,0,1,.06-.52.77.77,0,0,1,.1-.25.25.25,0,0,1,.19-.14.19.19,0,0,1,.21.2.78.78,0,0,1,0,.26,3.35,3.35,0,0,1-.19.53.08.08,0,0,0,0,.08.76.76,0,0,0,.59.48.87.87,0,0,0,.57-.12,1.38,1.38,0,0,0,.5-.52,1.93,1.93,0,0,0,.26-.69.65.65,0,0,0-.16-.54l-.13-.14a.24.24,0,0,1,0-.31.47.47,0,0,1,.15-.19.34.34,0,0,1,.49.13.65.65,0,0,1,.07.34c0,.16,0,.33-.07.5a3.91,3.91,0,0,1-.28.94,2.66,2.66,0,0,1-.42.71,1.17,1.17,0,0,1-.65.42.92.92,0,0,1-.83-.17.76.76,0,0,1-.26-.37.25.25,0,0,1,0-.07Z" transform="translate(-555.06 -294.58)"/><path class="cls-3" d="M671.31,451.45h2.15l.13,0a.15.15,0,0,1,.12.16.14.14,0,0,1-.12.15l-.13,0h-2.15V454a.59.59,0,0,1,0,.13c0,.08-.08.11-.17.11a.13.13,0,0,1-.14-.11.5.5,0,0,1,0-.12V451.8H668.8l-.14,0a.13.13,0,0,1-.1-.16.13.13,0,0,1,.11-.15l.13,0H671v-2.16a.45.45,0,0,1,0-.11.15.15,0,0,1,.15-.12c.1,0,.15,0,.17.12a.59.59,0,0,1,0,.13v2.14Z" transform="translate(-555.06 -294.58)"/><path class="cls-3" d="M649.91,454.55l.11,0a.74.74,0,0,0,.63-.2,1.36,1.36,0,0,0,.4-.68c.16-.67.33-1.33.5-2,.05-.22.11-.43.16-.64a.9.9,0,0,0,0-.4.2.2,0,0,0-.21-.17.76.76,0,0,0-.5.21,1.58,1.58,0,0,0-.43.59l-.06.11c0,.07-.17.06-.2,0a.07.07,0,0,1,0-.09c0-.08.07-.17.12-.25a1.59,1.59,0,0,1,.49-.57,1,1,0,0,1,.86-.18.66.66,0,0,1,.46.41.71.71,0,0,1,0,.41l-.33,1.29c-.11.41-.21.82-.31,1.23a1.43,1.43,0,0,1-.91,1,1.48,1.48,0,0,1-.66.1.75.75,0,0,1-.43-.13.38.38,0,0,1-.09-.53.4.4,0,0,1,.41-.18.26.26,0,0,1,.2.27.39.39,0,0,1-.17.3Z" transform="translate(-555.06 -294.58)"/><path class="cls-3" d="M666.22,450.62h-.74c-.09,0-.12,0-.12-.1a.12.12,0,0,1,.11-.15h.82l0-.1c.08-.31.16-.62.23-.92a.48.48,0,0,1,.14-.25.3.3,0,0,1,.33,0,.21.21,0,0,1,.1.25c-.07.27-.13.53-.2.8a2.5,2.5,0,0,1-.07.26h.78c.07,0,.09,0,.09.1s0,.14-.13.15h-.8c0,.07,0,.13,0,.19l-.45,1.79a1.14,1.14,0,0,0,0,.37.5.5,0,0,0,0,.12.23.23,0,0,0,.29.14.92.92,0,0,0,.54-.32,1.77,1.77,0,0,0,.31-.49.43.43,0,0,0,0-.07.12.12,0,0,1,.16-.07c.06,0,.09.06.07.12s-.06.15-.1.23a1.93,1.93,0,0,1-.35.46,1.16,1.16,0,0,1-.58.33.83.83,0,0,1-.63-.1.59.59,0,0,1-.29-.65c.07-.32.15-.64.23-1s.17-.69.26-1Z" transform="translate(-555.06 -294.58)"/><path class="cls-3" d="M680.09,453.85h1.19l.22,0a.08.08,0,0,0,.09-.06c0-.09.06-.18.08-.26l0-.14h.21l-.16,1h-2.31a.22.22,0,0,1,.06-.24l.71-.6.69-.59a1.41,1.41,0,0,0,.4-.54.74.74,0,0,0,0-.68.76.76,0,0,0-.42-.37,1.15,1.15,0,0,0-.36-.07,1,1,0,0,0-.71.29l0,0a.05.05,0,0,0,0,0l.08,0a.29.29,0,0,1-.17.56.31.31,0,0,1-.23-.34.83.83,0,0,1,.53-.7,1.49,1.49,0,0,1,.75-.13,1.67,1.67,0,0,1,.69.17.9.9,0,0,1,.47.54.92.92,0,0,1-.23.93,3.54,3.54,0,0,1-.52.42l-1,.72s0,0,0,0Z" transform="translate(-555.06 -294.58)"/><path class="cls-3" d="M664.22,452.74a2.84,2.84,0,0,1-.1.82,1.27,1.27,0,0,1-.31.54,1.38,1.38,0,0,1-.88.35,1.34,1.34,0,0,1-.73-.2,1.09,1.09,0,0,1-.41-.49,2,2,0,0,1-.15-.58,3.46,3.46,0,0,1,0-.56,2.21,2.21,0,0,1,.18-.91,1.09,1.09,0,0,1,.9-.67,1.61,1.61,0,0,1,.62,0,1.09,1.09,0,0,1,.68.56,1.82,1.82,0,0,1,.19.64C664.21,452.43,664.21,452.58,664.22,452.74Zm-.51,0h0c0-.18,0-.36,0-.54a1.59,1.59,0,0,0-.06-.43.67.67,0,0,0-.5-.51.88.88,0,0,0-.77.18.76.76,0,0,0-.2.4,2.56,2.56,0,0,0,0,.55c0,.28,0,.55,0,.82a2.33,2.33,0,0,0,.06.53.73.73,0,0,0,.25.42.83.83,0,0,0,.65.14.73.73,0,0,0,.43-.28.83.83,0,0,0,.14-.35,3.67,3.67,0,0,0,.05-.66Z" transform="translate(-555.06 -294.58)"/><path class="cls-3" d="M653.86,451.63a4.75,4.75,0,0,1,.39-1.9,3.92,3.92,0,0,1,1.24-1.55.12.12,0,0,1,.13,0c.07,0,.09.08,0,.13l-.09.1a3.54,3.54,0,0,0-.63.77,4,4,0,0,0-.51,1.46,4.9,4.9,0,0,0-.08.77c0,.12,0,.24,0,.36a5.61,5.61,0,0,0,.24,1.52,3.65,3.65,0,0,0,.76,1.36,4,4,0,0,0,.29.29l0,0a.09.09,0,0,1,0,.14.14.14,0,0,1-.11,0,3.65,3.65,0,0,1-.94-1,4,4,0,0,1-.59-1.41,4.54,4.54,0,0,1-.1-.74C653.87,451.84,653.87,451.73,653.86,451.63Z" transform="translate(-555.06 -294.58)"/><path class="cls-3" d="M684.78,451.62a6.24,6.24,0,0,0-.16-1.36,3.8,3.8,0,0,0-.81-1.6l-.3-.31,0-.05a.13.13,0,0,1,0-.12s.1,0,.13,0l0,0a3.73,3.73,0,0,1,1.09,1.21,4.31,4.31,0,0,1,.49,1.44q0,.3.06.6c0,.1,0,.2,0,.3a5.13,5.13,0,0,1-.11,1,4.65,4.65,0,0,1-.34,1,4,4,0,0,1-.64.93,2.74,2.74,0,0,1-.51.45l-.07,0a.12.12,0,0,1-.13,0,.11.11,0,0,1,0-.12,1.85,1.85,0,0,1,.14-.14,3,3,0,0,0,.55-.69,4.38,4.38,0,0,0,.51-1.36,5.9,5.9,0,0,0,.09-.72C684.76,451.9,684.77,451.76,684.78,451.62Z" transform="translate(-555.06 -294.58)"/><path class="cls-3" d="M651.86,449.14a.41.41,0,0,1,.33-.38.28.28,0,0,1,.31.13.3.3,0,0,1,0,.29.42.42,0,0,1-.32.23A.27.27,0,0,1,651.86,449.14Z" transform="translate(-555.06 -294.58)"/></svg>