<svg id="Layer_1" data-name="Layer 1" xmlns="http://www.w3.org/2000/svg" viewBox="0 0 246.47 223.48"><defs><style>.cls-1,.cls-2,.cls-4,.cls-5,.cls-6{fill:none;stroke-miterlimit:10;}.cls-1,.cls-4,.cls-5,.cls-6{stroke:#000;}.cls-2{stroke:red;}.cls-2,.cls-4{stroke-width:2px;}.cls-3{fill:red;}.cls-5{stroke-dasharray:5.05 5.05;}.cls-6{stroke-dasharray:5 5;}.cls-7{font-size:18px;font-family:TimesNewRomanPSMT, Times New Roman;}.cls-8{fill:#fff;}</style></defs><title>phasor</title><path class="cls-1" d="M629,444a30.14,30.14,0,0,1,9,21.5" transform="translate(-554.83 -272.37)"/><line class="cls-1" x1="211.99" y1="194.13" x2="28.17" y2="194.13"/><polygon points="210.53 189.14 219.17 194.13 210.53 199.11 210.53 189.14"/><line class="cls-2" x1="50.67" y1="194.13" x2="143.59" y2="100.27"/><polygon class="cls-3" points="147.37 107.09 151.17 92.63 136.74 96.57 147.37 107.09"/><line class="cls-1" x1="50.67" y1="33.8" x2="50.67" y2="217.63"/><polygon points="45.68 35.26 50.67 26.63 55.65 35.26 45.68 35.26"/><line class="cls-4" x1="51.17" y1="193.63" x2="51.17" y2="103.39"/><polygon points="58.65 105.58 51.17 92.63 43.69 105.58 58.65 105.58"/><line class="cls-4" x1="51.17" y1="193.63" x2="140.4" y2="193.63"/><polygon points="138.21 201.1 151.17 193.63 138.21 186.15 138.21 201.1"/><line class="cls-1" x1="151.17" y1="92.63" x2="151.17" y2="95.13"/><line class="cls-5" x1="151.17" y1="100.18" x2="151.17" y2="188.6"/><line class="cls-1" x1="151.17" y1="191.13" x2="151.17" y2="193.63"/><line class="cls-1" x1="151.17" y1="92.63" x2="148.67" y2="92.63"/><line class="cls-6" x1="143.67" y1="92.63" x2="56.17" y2="92.63"/><line class="cls-1" x1="53.67" y1="92.63" x2="51.17" y2="92.63"/><text class="cls-7" transform="translate(0 14.96)">imaginary axis</text><text class="cls-7" transform="translate(186 217.96)">real axis</text><path class="cls-8" d="M646.2,416.78l-12-12,10.52-10.51,12,12Zm4.16-11.06.47.4.28.22.43.35.28.24.43.35.29.24.47.38a.47.47,0,0,1,.13.15.51.51,0,0,1,0,.49,2.16,2.16,0,0,1-.44.73c-.12.14-.26.27-.38.41a.28.28,0,0,0-.09.23.44.44,0,0,0,.1.22.25.25,0,0,0,.42.05l.91-1,.3-.32.43-.45.46-.44.4-.38.33-.3L656,407l.49-.5a.33.33,0,0,0,.07-.16.45.45,0,0,0-.21-.38.15.15,0,0,0-.17,0,.57.57,0,0,0-.16.11l-.45.42a3.68,3.68,0,0,1-.38.31.43.43,0,0,1-.57,0l-.3-.24-.43-.34-.3-.25-.46-.38-.27-.22-.43-.35-.29-.24-.45-.37-.29-.24-.44-.36c-.09-.07-.18-.16-.28-.23l-.43-.35-.29-.25-.46-.37-.27-.23-.45-.36-.28-.24-.45-.36-.28-.24-.44-.35-.29-.24-.43-.35-.29-.24-.43-.35-.42-.35-.54-.44-.42-.35-.56-.46c-.09-.06-.18-.13-.29-.06a.74.74,0,0,0-.34.38.55.55,0,0,0,0,.38l.39,1.55c.1.42.21.84.31,1.26s.23.93.35,1.39.19.73.28,1.1.15.61.23.92.17.68.26,1,.19.79.29,1.18.19.74.28,1.1.23,1,.35,1.43.19.74.29,1.12l.36,1.46a7.12,7.12,0,0,1,.27,1.36,3,3,0,0,1-.13,1.16,2.91,2.91,0,0,1-.64,1.05.76.76,0,0,0-.11.14.3.3,0,0,0,.07.39.25.25,0,0,0,.42,0L647,416l.42-.46.39-.41.41-.39.22-.2L649,414l.43-.42a.31.31,0,0,0,.05-.39.31.31,0,0,0-.41-.16l-.19.15a2,2,0,0,1-.48.27.64.64,0,0,1-.8-.33,3.94,3.94,0,0,1-.29-.9c-.07-.27-.14-.54-.2-.82s-.17-.65-.25-1l-.21-.82a.16.16,0,0,1,0-.17l3.62-3.61Z" transform="translate(-554.83 -272.37)"/><path d="M650.36,405.72l-.07.08-3.62,3.61a.16.16,0,0,0,0,.17l.21.82c.08.33.16.66.25,1s.13.55.2.82a3.94,3.94,0,0,0,.29.9.64.64,0,0,0,.8.33,2,2,0,0,0,.48-.27l.19-.15a.31.31,0,0,1,.41.16.31.31,0,0,1-.05.39L649,414l-.58.54-.22.2-.41.39-.39.41L647,416l-.39.41a.25.25,0,0,1-.42,0,.3.3,0,0,1-.07-.39.76.76,0,0,1,.11-.14,2.91,2.91,0,0,0,.64-1.05,3,3,0,0,0,.13-1.16,7.12,7.12,0,0,0-.27-1.36l-.36-1.46c-.1-.38-.19-.75-.29-1.12s-.23-.95-.35-1.43-.19-.73-.28-1.1-.2-.78-.29-1.18-.18-.67-.26-1-.15-.62-.23-.92-.19-.73-.28-1.1-.23-.93-.35-1.39-.21-.84-.31-1.26l-.39-1.55a.55.55,0,0,1,0-.38.74.74,0,0,1,.34-.38c.11-.07.2,0,.29.06l.56.46.42.35.54.44.42.35.43.35.29.24.43.35.29.24.44.35.28.24.45.36.28.24.45.36.27.23.46.37.29.25.43.35c.1.07.19.16.28.23l.44.36.29.24.45.37.29.24.43.35.27.22.46.38.3.25.43.34.3.24a.43.43,0,0,0,.57,0,3.68,3.68,0,0,0,.38-.31l.45-.42a.57.57,0,0,1,.16-.11.15.15,0,0,1,.17,0,.45.45,0,0,1,.21.38.33.33,0,0,1-.07.16l-.49.5-.34.32-.33.3-.4.38-.46.44-.43.45-.3.32-.91,1a.25.25,0,0,1-.42-.05.44.44,0,0,1-.1-.22.28.28,0,0,1,.09-.23c.12-.14.26-.27.38-.41a2.16,2.16,0,0,0,.44-.73.51.51,0,0,0,0-.49.47.47,0,0,0-.13-.15l-.47-.38-.29-.24-.43-.35-.28-.24-.43-.35-.28-.22Zm-3.94,3,3.41-3.42-.11-.1-.27-.22-.45-.37c-.1-.07-.19-.16-.28-.23l-.47-.38-.26-.22-.45-.36-.29-.25-.43-.35-.3-.25-.54-.43-.48-.39-.61-.51-.44-.37Z" transform="translate(-554.83 -272.37)"/><path class="cls-8" d="M646.42,408.71l-2-7.85.44.37.61.51.48.39.54.43.3.25.43.35.29.25.45.36.26.22.47.38c.09.07.18.16.28.23l.45.37.27.22.11.1Z" transform="translate(-554.83 -272.37)"/><path class="cls-8" d="M612,485.12V473h75v12.1Zm6.13-5.79s0,.05,0,.07l.09.93c0,.15,0,.3,0,.46s0,.35,0,.52a.25.25,0,0,1-.14.26.72.72,0,0,1-.24.1,2.09,2.09,0,0,1-.56.06c-.14,0-.2,0-.21.19s0,.18.16.18h.49l.9,0,.82,0h.72a.14.14,0,0,0,.13-.07.24.24,0,0,0,0-.23c0-.08-.11-.07-.18-.07h-.4l-.24,0a.23.23,0,0,1-.2-.2.64.64,0,0,0,0-.07c0-.18,0-.35,0-.53s-.06-.54-.08-.82l-.06-.66c0-.33-.07-.65-.1-1l-.06-.63c0-.32-.06-.64-.1-1l-.06-.64-.09-1c0-.15,0-.3,0-.46s0-.51-.08-.77l0-.35c0-.07,0-.13-.11-.13s-.31,0-.41.16l-1,1.66c-.6,1-1.2,2-1.79,3-.44.72-.87,1.45-1.3,2.18a7,7,0,0,1-.45.66,1.54,1.54,0,0,1-1,.54l-.27,0c-.09,0-.14.12-.13.24s.07.12.17.12.41,0,.61,0a7.66,7.66,0,0,1,.83,0l.81,0c.15,0,.22-.08.22-.23a.14.14,0,0,0-.11-.13h-.07a.88.88,0,0,1-.39-.11.33.33,0,0,1-.19-.25.44.44,0,0,1,0-.25l.11-.23c.29-.49.59-1,.88-1.48a.15.15,0,0,1,.14-.08h2.93Zm60.69,2.93a4.18,4.18,0,0,0,2.83-1.32,3.39,3.39,0,0,0,.67-1,2.35,2.35,0,0,0,.16-1.36,2.05,2.05,0,0,0-.87-1.33,2.85,2.85,0,0,0-1.08-.41l-.32,0a.17.17,0,0,1,0-.07l.54-2.18c.05-.2.1-.4.14-.6s0-.12,0-.14a.17.17,0,0,0-.24.09s0,0,0,.06c-.08.3-.16.61-.23.91-.16.62-.31,1.24-.47,1.86,0,.08,0,.08-.09.08a3.67,3.67,0,0,0-.74.11,4.13,4.13,0,0,0-1.83,1,3.53,3.53,0,0,0-.8,1.08,2.48,2.48,0,0,0-.22,1.49,2,2,0,0,0,.91,1.36,2.76,2.76,0,0,0,1.18.4l.19,0a.22.22,0,0,0,0,.08c-.06.22-.11.45-.17.67-.11.45-.23.9-.34,1.36a.36.36,0,0,0,0,.1.09.09,0,0,0,.07.09c.08,0,.2,0,.23-.1s.07-.25.1-.38c.12-.46.23-.92.35-1.38C678.77,482.55,678.81,482.4,678.84,482.26Zm-32-1.27a.23.23,0,0,1,0,.07,1.72,1.72,0,0,0,.17.48,1.27,1.27,0,0,0,.66.61,1.36,1.36,0,0,0,.57.08,1.5,1.5,0,0,0,.63-.15,2,2,0,0,0,.68-.56,4.68,4.68,0,0,0,.78-1.44,12,12,0,0,0,.49-2,2.49,2.49,0,0,0,0-.72,1,1,0,0,0-.14-.41.4.4,0,0,0-.44-.19.69.69,0,0,0-.48.35.41.41,0,0,0,0,.31.56.56,0,0,0,.18.27,1.31,1.31,0,0,1,.25.32,1.49,1.49,0,0,1,.14.95,3.46,3.46,0,0,1-.33,1,3.25,3.25,0,0,1-.67.93,1.32,1.32,0,0,1-1,.43,1,1,0,0,1-.63-.22,1.27,1.27,0,0,1-.45-.83.14.14,0,0,1,0-.06,7.8,7.8,0,0,0,.31-.93,1.93,1.93,0,0,0,.08-.48.23.23,0,0,0-.27-.24.31.31,0,0,0-.25.16,1.63,1.63,0,0,0-.11.23,4.61,4.61,0,0,0-.19,1.17.35.35,0,0,1-.06.17c-.08.1-.15.21-.23.3a2.75,2.75,0,0,1-.6.53,1.47,1.47,0,0,1-.89.2.91.91,0,0,1-.77-.59,1.88,1.88,0,0,1-.14-.77,2.37,2.37,0,0,1,0-.46,4,4,0,0,1,.38-1.15,6.64,6.64,0,0,1,.56-.92l.22-.31a.2.2,0,0,0,0-.17.24.24,0,0,0-.27-.15.31.31,0,0,0-.19.14,6,6,0,0,0-.39.63,8.1,8.1,0,0,0-.48,1.18,7.11,7.11,0,0,0-.28,1.46,3.4,3.4,0,0,0,0,.78,1.74,1.74,0,0,0,.25.69,1,1,0,0,0,.5.43,1.46,1.46,0,0,0,.72.07,1.79,1.79,0,0,0,.85-.36,3.08,3.08,0,0,0,.63-.67Zm-15.7-4.27a2.28,2.28,0,0,0-.79.14,2.76,2.76,0,0,0-1,.66,2.91,2.91,0,0,0-.67,1.15,2.76,2.76,0,0,0-.13,1,3.05,3.05,0,0,0,0,.41,2.65,2.65,0,0,0,.85,1.49,2.66,2.66,0,0,0,3.75-.2,2.68,2.68,0,0,0,.7-1.81,3.05,3.05,0,0,0-.05-.52,2.73,2.73,0,0,0-.91-1.65A2.53,2.53,0,0,0,631.11,476.72Zm4.21,5,.07,0a1.75,1.75,0,0,0,.81.42,2.24,2.24,0,0,0,.58,0,2.06,2.06,0,0,0,.77-.14,1.43,1.43,0,0,0,.69-.47,1.6,1.6,0,0,0,.33-1.32,1.57,1.57,0,0,0-.62-1,2.06,2.06,0,0,0-.78-.36l-.83-.17a2.46,2.46,0,0,1-.66-.23.74.74,0,0,1-.45-.73.82.82,0,0,1,.26-.54A1.23,1.23,0,0,1,636,477a2.93,2.93,0,0,1,.72-.07,1.43,1.43,0,0,1,.67.18,1.19,1.19,0,0,1,.56.8c0,.15.05.31.07.47a.12.12,0,0,0,.09.11c.13,0,.22,0,.21-.16h0v-1.45a.22.22,0,0,0,0-.08.1.1,0,0,0-.09-.09.22.22,0,0,0-.17,0l-.12.11-.18.17-.05,0a1.7,1.7,0,0,0-.64-.26,2.64,2.64,0,0,0-.56,0,2.79,2.79,0,0,0-.76.11,1.68,1.68,0,0,0-.66.38,1.34,1.34,0,0,0-.4.9,1.22,1.22,0,0,0,.3.91,1.78,1.78,0,0,0,.85.54c.31.09.64.15,1,.22a1.92,1.92,0,0,1,.73.25,1,1,0,0,1,.43.44,1.06,1.06,0,0,1,.06.68,1,1,0,0,1-.41.59,1.63,1.63,0,0,1-.43.18,2.36,2.36,0,0,1-.75,0,1.32,1.32,0,0,1-.51-.16,1.54,1.54,0,0,1-.6-.64,3.91,3.91,0,0,1-.31-.89.27.27,0,0,0,0-.12c0-.07-.07-.09-.16-.08s-.12,0-.13.11a.49.49,0,0,0,0,.12V482a.77.77,0,0,0,0,.15s0,.06.09.07a.19.19,0,0,0,.16-.07Zm20.14-.55c0-.17,0-.32,0-.48s0-.39-.06-.58a2.93,2.93,0,0,0-.36-1,1.69,1.69,0,0,0-.74-.66,2,2,0,0,0-1.13-.14,1.55,1.55,0,0,0-1,.5,2.21,2.21,0,0,0-.46.82,4.67,4.67,0,0,0-.2,1.39c0,.17,0,.34,0,.51a3.36,3.36,0,0,0,.06.63,2.74,2.74,0,0,0,.32,1,1.61,1.61,0,0,0,1.16.86,2.28,2.28,0,0,0,.69,0,1.65,1.65,0,0,0,.61-.18,1.73,1.73,0,0,0,.76-.82,3.52,3.52,0,0,0,.3-1.23C655.46,481.57,655.46,481.37,655.46,481.18Zm2.67-3.88a.11.11,0,0,0,0,.05c-.07.25-.13.51-.19.76l-.66,2.65a1.39,1.39,0,0,0,0,.61,1,1,0,0,0,.51.72,1.1,1.1,0,0,0,.64.14,1.27,1.27,0,0,0,.57-.15,2.17,2.17,0,0,0,.62-.51,3.8,3.8,0,0,0,.49-.74c.06-.13.11-.26.17-.4a.11.11,0,0,0,0-.13.19.19,0,0,0-.25,0l-.07.15a4.27,4.27,0,0,1-.35.67,2,2,0,0,1-.62.64,1,1,0,0,1-.59.18.3.3,0,0,1-.32-.23,1.35,1.35,0,0,1,0-.6c0-.21.09-.41.14-.62.26-1,.52-2.05.77-3.08,0-.05,0-.09,0-.13h1.32a.17.17,0,0,0,.17-.18v-.06c0-.07,0-.1-.09-.11l-.15,0h-1.15a.15.15,0,0,0,0-.06c.13-.5.26-1,.38-1.51,0-.12.07-.25.09-.38a.31.31,0,0,0-.22-.38.46.46,0,0,0-.26,0,.54.54,0,0,0-.35.41c-.15.59-.29,1.18-.43,1.77a.57.57,0,0,0,0,.14H657l-.15,0a.11.11,0,0,0-.1.08c0,.16,0,.28.16.28h1.21Zm10.38,2h3.42a.44.44,0,0,0,.16,0,.19.19,0,0,0,.18-.22.2.2,0,0,0-.18-.23l-.18,0h-3.4v-3.39a1.23,1.23,0,0,0,0-.2.22.22,0,0,0-.21-.17.2.2,0,0,0-.22.14.64.64,0,0,0,0,.2c0,1.1,0,2.21,0,3.31v.11h-3.43a.57.57,0,0,0-.22,0,.17.17,0,0,0-.12.21.18.18,0,0,0,.13.2l.2,0H668v3.43a.59.59,0,0,0,0,.14.23.23,0,0,0,.45,0,.71.71,0,0,0,0-.2v-3.4Zm-41.41-1.88-.09,0a.49.49,0,0,0-.35.2.56.56,0,0,0,0,.61.51.51,0,0,0,.5.28.52.52,0,0,0,.55-.51,1,1,0,0,0-.15-.6,1.4,1.4,0,0,0-.65-.53,2.57,2.57,0,0,0-1.66-.14,2.54,2.54,0,0,0-1.51,1.07,2.87,2.87,0,0,0-.45,2.15,2.62,2.62,0,0,0,.86,1.57,2.45,2.45,0,0,0,2,.63,1.9,1.9,0,0,0,.91-.36,2,2,0,0,0,.64-.84c0-.1.07-.2.1-.3a.12.12,0,0,0-.06-.15.19.19,0,0,0-.26.12l-.11.3a1.67,1.67,0,0,1-.45.6,1.42,1.42,0,0,1-.83.34,1.5,1.5,0,0,1-1.3-.52,2.15,2.15,0,0,1-.48-1,3.63,3.63,0,0,1-.09-1,3.27,3.27,0,0,1,0-.54,3,3,0,0,1,.2-.77,1.72,1.72,0,0,1,.57-.74,1.31,1.31,0,0,1,.74-.27,2,2,0,0,1,.77.1A1.38,1.38,0,0,1,627.1,477.46Zm13,1.63h0c0,.2,0,.41,0,.61s0,.25,0,.38c0,.36.09.71.16,1.06a7.55,7.55,0,0,0,.6,1.73,6.17,6.17,0,0,0,.61,1,5.44,5.44,0,0,0,1,1.08l.21.14a.11.11,0,0,0,.16-.07.12.12,0,0,0,0-.14,3.07,3.07,0,0,0-.25-.26,5.26,5.26,0,0,1-.58-.74,7.14,7.14,0,0,1-.93-2.18c-.08-.35-.15-.71-.2-1.07s-.08-.81-.09-1.22a9,9,0,0,1,0-1.16c0-.24,0-.48.07-.73a8.28,8.28,0,0,1,.31-1.48,6.52,6.52,0,0,1,1-2.09c.15-.19.32-.36.48-.54l.13-.14a.12.12,0,0,0,0-.16.12.12,0,0,0-.14,0l-.12.07a3.92,3.92,0,0,0-.57.51,6.48,6.48,0,0,0-.66.81,7.27,7.27,0,0,0-.58,1.06,6.93,6.93,0,0,0-.46,1.35,6.49,6.49,0,0,0-.16.88c0,.27-.06.54-.08.81S640.1,478.92,640.1,479.09Zm46.13,0c0-.16,0-.32,0-.49a7,7,0,0,0-.09-.93,9,9,0,0,0-.39-1.63,6.92,6.92,0,0,0-.72-1.44,5.67,5.67,0,0,0-.68-.87,4.07,4.07,0,0,0-.57-.53l-.18-.11a.11.11,0,0,0-.16.11.16.16,0,0,0,.07.12l.31.32a5.64,5.64,0,0,1,.84,1.22,7.68,7.68,0,0,1,.65,1.87,12.5,12.5,0,0,1,.22,1.71c0,.21,0,.42,0,.64a.62.62,0,0,1,0,.19,5.33,5.33,0,0,1,0,.56c0,.29,0,.57-.07.86a8.73,8.73,0,0,1-.43,1.8,6.67,6.67,0,0,1-.66,1.34,5.54,5.54,0,0,1-.81,1l-.08.08a.15.15,0,0,0,0,.16.12.12,0,0,0,.15,0l.12-.07a3.74,3.74,0,0,0,.68-.64,6.27,6.27,0,0,0,1-1.46,6.76,6.76,0,0,0,.42-1.05,8.52,8.52,0,0,0,.39-2.06C686.22,479.57,686.22,479.34,686.23,479.1Z" transform="translate(-554.83 -272.37)"/><path d="M618.15,479.33h-2.93a.15.15,0,0,0-.14.08c-.29.5-.59,1-.88,1.48l-.11.23a.44.44,0,0,0,0,.25.33.33,0,0,0,.19.25.88.88,0,0,0,.39.11h.07a.14.14,0,0,1,.11.13c0,.15-.07.24-.22.23l-.81,0a7.66,7.66,0,0,0-.83,0c-.2,0-.41,0-.61,0s-.16,0-.17-.12,0-.22.13-.24l.27,0a1.54,1.54,0,0,0,1-.54,7,7,0,0,0,.45-.66c.43-.73.86-1.46,1.3-2.18.59-1,1.19-2,1.79-3l1-1.66c.1-.16.19-.19.41-.16s.1.06.11.13l0,.35c0,.26.06.52.08.77s0,.31,0,.46l.09,1,.06.64c0,.32.07.64.1,1l.06.63c0,.33.07.65.1,1l.06.66c0,.28.05.55.08.82s0,.35,0,.53a.64.64,0,0,1,0,.07.23.23,0,0,0,.2.2l.24,0h.4c.07,0,.14,0,.18.07a.24.24,0,0,1,0,.23.14.14,0,0,1-.13.07h-.72l-.82,0-.9,0h-.49c-.12,0-.17-.05-.16-.18s.07-.19.21-.19a2.09,2.09,0,0,0,.56-.06.72.72,0,0,0,.24-.1.25.25,0,0,0,.14-.26c0-.17,0-.35,0-.52s0-.31,0-.46l-.09-.93S618.15,479.36,618.15,479.33Zm0-.39v-.09c0-.34-.07-.67-.1-1s-.07-.72-.11-1.08c0-.2,0-.41,0-.61s-.07-.69-.1-1c0,0,0-.07,0-.12l-2.36,3.93Z" transform="translate(-554.83 -272.37)"/><path d="M678.84,482.26c0,.14-.07.29-.11.43-.12.46-.23.92-.35,1.38,0,.13-.07.26-.1.38s-.15.13-.23.1a.09.09,0,0,1-.07-.09.36.36,0,0,1,0-.1c.11-.46.23-.91.34-1.36.06-.22.11-.45.17-.67a.22.22,0,0,1,0-.08l-.19,0a2.76,2.76,0,0,1-1.18-.4,2,2,0,0,1-.91-1.36,2.48,2.48,0,0,1,.22-1.49,3.53,3.53,0,0,1,.8-1.08,4.13,4.13,0,0,1,1.83-1,3.67,3.67,0,0,1,.74-.11c.07,0,.07,0,.09-.08.16-.62.31-1.24.47-1.86.07-.3.15-.61.23-.91,0,0,0,0,0-.06a.17.17,0,0,1,.24-.09s.07.07,0,.14-.09.4-.14.6l-.54,2.18a.17.17,0,0,0,0,.07l.32,0a2.85,2.85,0,0,1,1.08.41,2.05,2.05,0,0,1,.87,1.33,2.35,2.35,0,0,1-.16,1.36,3.39,3.39,0,0,1-.67,1,4.18,4.18,0,0,1-2.83,1.32Zm.07-.28.18,0a2.94,2.94,0,0,0,1.79-1,3.54,3.54,0,0,0,.86-2.12,1.91,1.91,0,0,0-.06-.67,1.39,1.39,0,0,0-.47-.74,1.55,1.55,0,0,0-.81-.35.57.57,0,0,0-.26,0Zm.92-4.93a1.17,1.17,0,0,0-.22,0,2.88,2.88,0,0,0-1.72.95,3.08,3.08,0,0,0-.58.9,3.38,3.38,0,0,0-.31,1.36,1.8,1.8,0,0,0,0,.4,1.38,1.38,0,0,0,.54.93,1.79,1.79,0,0,0,.91.35h.11Z" transform="translate(-554.83 -272.37)"/><path d="M646.81,481l-.14.2a3.08,3.08,0,0,1-.63.67,1.79,1.79,0,0,1-.85.36,1.46,1.46,0,0,1-.72-.07,1,1,0,0,1-.5-.43,1.74,1.74,0,0,1-.25-.69,3.4,3.4,0,0,1,0-.78,7.11,7.11,0,0,1,.28-1.46,8.1,8.1,0,0,1,.48-1.18,6,6,0,0,1,.39-.63.31.31,0,0,1,.19-.14.24.24,0,0,1,.27.15.2.2,0,0,1,0,.17l-.22.31a6.64,6.64,0,0,0-.56.92,4,4,0,0,0-.38,1.15,2.37,2.37,0,0,0,0,.46,1.88,1.88,0,0,0,.14.77.91.91,0,0,0,.77.59,1.47,1.47,0,0,0,.89-.2,2.75,2.75,0,0,0,.6-.53c.08-.09.15-.2.23-.3a.35.35,0,0,0,.06-.17A4.61,4.61,0,0,1,647,479a1.63,1.63,0,0,1,.11-.23.31.31,0,0,1,.25-.16.23.23,0,0,1,.27.24,1.93,1.93,0,0,1-.08.48,7.8,7.8,0,0,1-.31.93.14.14,0,0,0,0,.06,1.27,1.27,0,0,0,.45.83,1,1,0,0,0,.63.22,1.32,1.32,0,0,0,1-.43A3.25,3.25,0,0,0,650,480a3.46,3.46,0,0,0,.33-1,1.49,1.49,0,0,0-.14-.95,1.31,1.31,0,0,0-.25-.32.56.56,0,0,1-.18-.27.41.41,0,0,1,0-.31.69.69,0,0,1,.48-.35.4.4,0,0,1,.44.19,1,1,0,0,1,.14.41,2.49,2.49,0,0,1,0,.72,12,12,0,0,1-.49,2,4.68,4.68,0,0,1-.78,1.44,2,2,0,0,1-.68.56,1.5,1.5,0,0,1-.63.15,1.36,1.36,0,0,1-.57-.08,1.27,1.27,0,0,1-.66-.61,1.72,1.72,0,0,1-.17-.48A.23.23,0,0,0,646.81,481Z" transform="translate(-554.83 -272.37)"/><path d="M631.11,476.72a2.53,2.53,0,0,1,1.77.66,2.73,2.73,0,0,1,.91,1.65,3.05,3.05,0,0,1,.05.52,2.68,2.68,0,0,1-.7,1.81,2.67,2.67,0,0,1-4.6-1.29,3.05,3.05,0,0,1,0-.41,2.76,2.76,0,0,1,.13-1,2.91,2.91,0,0,1,.67-1.15,2.76,2.76,0,0,1,1-.66A2.28,2.28,0,0,1,631.11,476.72Zm1.73,2.72c0-.14,0-.28,0-.42s0-.3,0-.45a2.1,2.1,0,0,0-.27-.81,1.57,1.57,0,0,0-1.59-.75,1.54,1.54,0,0,0-.89.46,1.68,1.68,0,0,0-.42.76,3.83,3.83,0,0,0-.12,1c0,.21,0,.42,0,.63a4.91,4.91,0,0,0,.09.77,1.83,1.83,0,0,0,.45.86,1.55,1.55,0,0,0,2.5-.37,2.51,2.51,0,0,0,.27-1C632.83,479.84,632.83,479.64,632.84,479.44Z" transform="translate(-554.83 -272.37)"/><path d="M635.32,481.73l-.41.44a.19.19,0,0,1-.16.07s-.08,0-.09-.07a.77.77,0,0,1,0-.15v-1.73a.49.49,0,0,1,0-.12c0-.08.05-.11.13-.11s.14,0,.16.08a.27.27,0,0,1,0,.12,3.91,3.91,0,0,0,.31.89,1.54,1.54,0,0,0,.6.64,1.32,1.32,0,0,0,.51.16,2.36,2.36,0,0,0,.75,0,1.63,1.63,0,0,0,.43-.18,1,1,0,0,0,.41-.59,1.06,1.06,0,0,0-.06-.68,1,1,0,0,0-.43-.44,1.92,1.92,0,0,0-.73-.25c-.32-.07-.65-.13-1-.22A1.78,1.78,0,0,1,635,479a1.22,1.22,0,0,1-.3-.91,1.34,1.34,0,0,1,.4-.9,1.68,1.68,0,0,1,.66-.38,2.79,2.79,0,0,1,.76-.11,2.64,2.64,0,0,1,.56,0,1.7,1.7,0,0,1,.64.26l.05,0,.18-.17.12-.11a.22.22,0,0,1,.17,0,.1.1,0,0,1,.09.09.22.22,0,0,1,0,.08v1.45h0c0,.14-.08.18-.21.16a.12.12,0,0,1-.09-.11c0-.16,0-.32-.07-.47a1.19,1.19,0,0,0-.56-.8,1.43,1.43,0,0,0-.67-.18,2.93,2.93,0,0,0-.72.07,1.23,1.23,0,0,0-.48.25.82.82,0,0,0-.26.54.74.74,0,0,0,.45.73,2.46,2.46,0,0,0,.66.23l.83.17a2.06,2.06,0,0,1,.78.36,1.57,1.57,0,0,1,.62,1,1.6,1.6,0,0,1-.33,1.32,1.43,1.43,0,0,1-.69.47,2.06,2.06,0,0,1-.77.14,2.24,2.24,0,0,1-.58,0,1.75,1.75,0,0,1-.81-.42Z" transform="translate(-554.83 -272.37)"/><path d="M655.46,481.18c0,.19,0,.39,0,.59a3.52,3.52,0,0,1-.3,1.23,1.73,1.73,0,0,1-.76.82,1.65,1.65,0,0,1-.61.18,2.28,2.28,0,0,1-.69,0,1.61,1.61,0,0,1-1.16-.86,2.74,2.74,0,0,1-.32-1,3.36,3.36,0,0,1-.06-.63c0-.17,0-.34,0-.51a4.67,4.67,0,0,1,.2-1.39,2.21,2.21,0,0,1,.46-.82,1.55,1.55,0,0,1,1-.5,2,2,0,0,1,1.13.14,1.69,1.69,0,0,1,.74.66,2.93,2.93,0,0,1,.36,1c0,.19,0,.39.06.58S655.46,481,655.46,481.18Zm-.78-.1h0l0-1a3.23,3.23,0,0,0-.1-.76,1,1,0,0,0-.61-.73,1.09,1.09,0,0,0-1.49.64,3.28,3.28,0,0,0-.13.75c0,.22,0,.44,0,.66,0,.44,0,.88,0,1.32q0,.33.06.66a1.67,1.67,0,0,0,.2.62,1.07,1.07,0,0,0,2-.3,3.78,3.78,0,0,0,.13-1C654.68,481.66,654.68,481.37,654.68,481.08Z" transform="translate(-554.83 -272.37)"/><path d="M658.13,477.3h-1.21c-.2,0-.21-.12-.16-.28a.11.11,0,0,1,.1-.08l.15,0h1.22a.57.57,0,0,1,0-.14c.14-.59.28-1.18.43-1.77a.54.54,0,0,1,.35-.41.46.46,0,0,1,.26,0,.31.31,0,0,1,.22.38c0,.13-.06.26-.09.38-.12.51-.25,1-.38,1.51a.15.15,0,0,1,0,.06h1.15l.15,0c.07,0,.09,0,.09.11v.06a.17.17,0,0,1-.17.18H659s0,.08,0,.13c-.25,1-.51,2.05-.77,3.08,0,.21-.11.41-.14.62a1.35,1.35,0,0,0,0,.6.3.3,0,0,0,.32.23,1,1,0,0,0,.59-.18,2,2,0,0,0,.62-.64,4.27,4.27,0,0,0,.35-.67l.07-.15a.19.19,0,0,1,.25,0,.11.11,0,0,1,0,.13c-.06.14-.11.27-.17.4a3.8,3.8,0,0,1-.49.74,2.17,2.17,0,0,1-.62.51,1.27,1.27,0,0,1-.57.15,1.1,1.1,0,0,1-.64-.14,1,1,0,0,1-.51-.72,1.39,1.39,0,0,1,0-.61l.66-2.65c.06-.25.12-.51.19-.76A.11.11,0,0,1,658.13,477.3Z" transform="translate(-554.83 -272.37)"/><path d="M668.51,479.34v3.4a.71.71,0,0,1,0,.2.23.23,0,0,1-.45,0,.59.59,0,0,1,0-.14v-3.43h-3.44l-.2,0a.18.18,0,0,1-.13-.2.17.17,0,0,1,.12-.21.57.57,0,0,1,.22,0H668v-.11c0-1.1,0-2.21,0-3.31a.64.64,0,0,1,0-.2.2.2,0,0,1,.22-.14.22.22,0,0,1,.21.17,1.23,1.23,0,0,1,0,.2v3.39h3.4l.18,0a.2.2,0,0,1,.18.23.19.19,0,0,1-.18.22.44.44,0,0,1-.16,0h-3.42Z" transform="translate(-554.83 -272.37)"/><path d="M627.1,477.46a1.38,1.38,0,0,0-.57-.33,2,2,0,0,0-.77-.1,1.31,1.31,0,0,0-.74.27,1.72,1.72,0,0,0-.57.74,3,3,0,0,0-.2.77,3.27,3.27,0,0,0,0,.54,3.63,3.63,0,0,0,.09,1,2.15,2.15,0,0,0,.48,1,1.5,1.5,0,0,0,1.3.52,1.42,1.42,0,0,0,.83-.34,1.67,1.67,0,0,0,.45-.6l.11-.3a.19.19,0,0,1,.26-.12.12.12,0,0,1,.06.15c0,.1-.06.2-.1.3a2,2,0,0,1-.64.84,1.9,1.9,0,0,1-.91.36,2.45,2.45,0,0,1-2-.63,2.62,2.62,0,0,1-.86-1.57,2.87,2.87,0,0,1,.45-2.15,2.54,2.54,0,0,1,1.51-1.07,2.57,2.57,0,0,1,1.66.14,1.4,1.4,0,0,1,.65.53,1,1,0,0,1,.15.6.52.52,0,0,1-.55.51.51.51,0,0,1-.5-.28.56.56,0,0,1,0-.61.49.49,0,0,1,.35-.2Z" transform="translate(-554.83 -272.37)"/><path d="M640.1,479.09c0-.17,0-.33,0-.5s0-.54.08-.81a6.49,6.49,0,0,1,.16-.88,6.93,6.93,0,0,1,.46-1.35,7.27,7.27,0,0,1,.58-1.06,6.48,6.48,0,0,1,.66-.81,3.92,3.92,0,0,1,.57-.51l.12-.07a.12.12,0,0,1,.14,0,.12.12,0,0,1,0,.16l-.13.14c-.16.18-.33.35-.48.54a6.52,6.52,0,0,0-1,2.09,8.28,8.28,0,0,0-.31,1.48c0,.25,0,.49-.07.73a9,9,0,0,0,0,1.16c0,.41,0,.81.09,1.22s.12.72.2,1.07a7.14,7.14,0,0,0,.93,2.18,5.26,5.26,0,0,0,.58.74,3.07,3.07,0,0,1,.25.26.12.12,0,0,1,0,.14.11.11,0,0,1-.16.07l-.21-.14a5.44,5.44,0,0,1-1-1.08,6.17,6.17,0,0,1-.61-1,7.55,7.55,0,0,1-.6-1.73c-.07-.35-.12-.7-.16-1.06,0-.13,0-.25,0-.38s0-.41,0-.61Z" transform="translate(-554.83 -272.37)"/><path d="M686.23,479.1c0,.24,0,.47,0,.71a8.52,8.52,0,0,1-.39,2.06,6.76,6.76,0,0,1-.42,1.05,6.27,6.27,0,0,1-1,1.46,3.74,3.74,0,0,1-.68.64l-.12.07a.12.12,0,0,1-.15,0,.15.15,0,0,1,0-.16l.08-.08a5.54,5.54,0,0,0,.81-1,6.67,6.67,0,0,0,.66-1.34,8.73,8.73,0,0,0,.43-1.8c0-.29.05-.57.07-.86a5.33,5.33,0,0,0,0-.56.62.62,0,0,0,0-.19c0-.22,0-.43,0-.64a12.5,12.5,0,0,0-.22-1.71,7.68,7.68,0,0,0-.65-1.87,5.64,5.64,0,0,0-.84-1.22l-.31-.32a.16.16,0,0,1-.07-.12.11.11,0,0,1,.16-.11l.18.11a4.07,4.07,0,0,1,.57.53,5.67,5.67,0,0,1,.68.87,6.92,6.92,0,0,1,.72,1.44,9,9,0,0,1,.39,1.63,7,7,0,0,1,.09.93C686.22,478.78,686.22,478.94,686.23,479.1Z" transform="translate(-554.83 -272.37)"/><path class="cls-8" d="M618.11,478.94h-2.74l2.36-3.93c0,.05,0,.09,0,.12,0,.34.06.69.1,1s0,.41,0,.61c0,.36.08.72.11,1.08s.07.66.1,1Z" transform="translate(-554.83 -272.37)"/><path class="cls-8" d="M678.91,482l1.23-4.92a.57.57,0,0,1,.26,0,1.55,1.55,0,0,1,.81.35,1.39,1.39,0,0,1,.47.74,1.91,1.91,0,0,1,.06.67,3.54,3.54,0,0,1-.86,2.12,2.94,2.94,0,0,1-1.79,1Z" transform="translate(-554.83 -272.37)"/><path class="cls-8" d="M679.83,477.05,678.59,482h-.11a1.79,1.79,0,0,1-.91-.35,1.38,1.38,0,0,1-.54-.93,1.8,1.8,0,0,1,0-.4,3.38,3.38,0,0,1,.31-1.36,3.08,3.08,0,0,1,.58-.9,2.88,2.88,0,0,1,1.72-.95A1.17,1.17,0,0,1,679.83,477.05Z" transform="translate(-554.83 -272.37)"/><path class="cls-8" d="M632.84,479.44c0,.2,0,.4,0,.6a2.51,2.51,0,0,1-.27,1,1.55,1.55,0,0,1-2.5.37,1.83,1.83,0,0,1-.45-.86,4.91,4.91,0,0,1-.09-.77c0-.21,0-.42,0-.63a3.83,3.83,0,0,1,.12-1,1.68,1.68,0,0,1,.42-.76,1.54,1.54,0,0,1,.89-.46,1.57,1.57,0,0,1,1.59.75,2.1,2.1,0,0,1,.27.81c0,.15,0,.3,0,.45S632.83,479.3,632.84,479.44Z" transform="translate(-554.83 -272.37)"/><path class="cls-8" d="M654.68,481.08c0,.29,0,.58,0,.86a3.78,3.78,0,0,1-.13,1,1.07,1.07,0,0,1-2,.3,1.67,1.67,0,0,1-.2-.62q0-.33-.06-.66c0-.44,0-.88,0-1.32,0-.22,0-.44,0-.66a3.28,3.28,0,0,1,.13-.75,1.09,1.09,0,0,1,1.49-.64,1,1,0,0,1,.61.73,3.23,3.23,0,0,1,.1.76l0,1Z" transform="translate(-554.83 -272.37)"/><path class="cls-8" d="M599,382.05v79H586v-79Zm-6.2,72.44.06,0,1-.1.51-.05.58,0a.27.27,0,0,1,.26.13,1,1,0,0,1,.12.28,2.88,2.88,0,0,1,.05.59.2.2,0,0,0,.22.23c.13,0,.18,0,.18-.17s0-.35,0-.52c0-.33,0-.65,0-1s0-.58,0-.88v-.28c0-.16,0-.31,0-.47a.17.17,0,0,0-.07-.15.27.27,0,0,0-.26,0c-.08,0-.07.12-.08.19v0c0,.14,0,.27,0,.41a2.06,2.06,0,0,1,0,.26.27.27,0,0,1-.22.22H595l-.56.06-.88.09-.71.06-1,.11-.67.06-1,.1-.68.07-.84.08-.68.07-.84.08-.37,0c-.06,0-.13,0-.14.1s0,.34.17.45l1.79,1.07,3.21,1.92,2.32,1.39a4.22,4.22,0,0,1,.71.48,1.65,1.65,0,0,1,.59,1.08,1.27,1.27,0,0,0,0,.28c0,.11.12.17.26.15s.13-.07.12-.18,0-.44,0-.65a8.81,8.81,0,0,1,0-.89c0-.28,0-.57,0-.85h0c0-.17-.09-.25-.25-.24a.14.14,0,0,0-.15.12.17.17,0,0,1,0,.07.92.92,0,0,1-.1.41.36.36,0,0,1-.34.21.54.54,0,0,1-.22,0l-.26-.14-.65-.38-.94-.57a.07.07,0,0,1-.05-.08v-3.17Zm-2.74-64.57a.11.11,0,0,0,0,.06,3.13,3.13,0,0,0,0,.43,4.45,4.45,0,0,0,1.17,2.35,3.87,3.87,0,0,0,1.13.84,2.65,2.65,0,0,0,1.59.23,2.1,2.1,0,0,0,1.48-1,2.7,2.7,0,0,0,.42-1.23l0-.21.79.19,1.46.37h.11a.1.1,0,0,0,.11-.08c0-.11,0-.21-.13-.24l-.39-.1-1.88-.48-.07,0a.62.62,0,0,1,0-.13,4,4,0,0,0-.27-1.2,4.44,4.44,0,0,0-1.14-1.7,3.6,3.6,0,0,0-1.11-.72,2.53,2.53,0,0,0-1.44-.16,2.12,2.12,0,0,0-1.27.74,2.61,2.61,0,0,0-.57,1.24c0,.15,0,.3-.07.45l-.08,0-2.5-.62-.47-.11a.14.14,0,0,0-.17.12c0,.11,0,.16.12.19l.06,0,1,.25,1.94.49Zm5.3,44c0,.16,0,.31,0,.45a.91.91,0,0,1-.06.36.29.29,0,0,1-.23.18l-.15,0h-3a3,3,0,0,0-.66.06,1.39,1.39,0,0,0-.78.44,1.24,1.24,0,0,0-.26.51,2.41,2.41,0,0,0-.1.8,1.79,1.79,0,0,0,.54,1.31,2.37,2.37,0,0,0,.63.46l.12.06v0h-1.27c0,.07.11,1.72.14,1.82h.4a2.8,2.8,0,0,1,0-.29,1.4,1.4,0,0,1,0-.41.35.35,0,0,1,.28-.27l.3,0h3.58l.21,0a.31.31,0,0,1,.27.24.59.59,0,0,1,0,.13c0,.17,0,.34,0,.51v.1h.41c0-.11,0-.2,0-.3,0-.36,0-.72,0-1.07s0-.62,0-.93c0-.13,0-.26,0-.38a1.7,1.7,0,0,0,0-.22h-.41a2.8,2.8,0,0,1,0,.29c0,.15,0,.29,0,.44a.28.28,0,0,1-.27.25,1.23,1.23,0,0,1-.27,0h-2.33a2.7,2.7,0,0,1-.49,0,2,2,0,0,1-1.15-.61,1.58,1.58,0,0,1-.44-1.13.78.78,0,0,1,.57-.79,2,2,0,0,1,.73-.12H595a.33.33,0,0,1,.34.3.25.25,0,0,1,0,.08c0,.18,0,.35,0,.52s0,.06,0,.09h.4c0-.1,0-.2,0-.3l0-1.08c0-.15,0-.3,0-.45s0-.32,0-.48,0-.25,0-.37a1.55,1.55,0,0,0,0-.22Zm-.78-8.71.07,0a1.69,1.69,0,0,0,.52-.18,1.37,1.37,0,0,0,.64-.7,1.57,1.57,0,0,0,.1-.61,1.69,1.69,0,0,0-.18-.7,2.24,2.24,0,0,0-.59-.71,5.21,5.21,0,0,0-1.54-.83,12.92,12.92,0,0,0-2.1-.53,2.79,2.79,0,0,0-.76,0,1,1,0,0,0-.45.15.43.43,0,0,0-.21.46.77.77,0,0,0,.38.53.45.45,0,0,0,.34,0,.77.77,0,0,0,.29-.19.91.91,0,0,1,.21-.18,1.48,1.48,0,0,1,1.14-.24,3.71,3.71,0,0,1,1.08.36,3.36,3.36,0,0,1,1,.76,1.38,1.38,0,0,1,.4,1.25,1.07,1.07,0,0,1-.29.58,1.43,1.43,0,0,1-.8.38.14.14,0,0,1-.09,0,9.23,9.23,0,0,0-1-.35,1.68,1.68,0,0,0-.45-.06.23.23,0,0,0-.25.29.32.32,0,0,0,.16.26l.25.11a4.88,4.88,0,0,0,1.25.21.32.32,0,0,1,.19.07l.26.2a2.68,2.68,0,0,1,.62.68,1.52,1.52,0,0,1,.22.95,1,1,0,0,1-.63.83,2.24,2.24,0,0,1-.84.16,3.88,3.88,0,0,1-.48,0,4.41,4.41,0,0,1-1.21-.4,7.85,7.85,0,0,1-1-.61l-.33-.23a.24.24,0,0,0-.17,0,.25.25,0,0,0-.14.39.73.73,0,0,0,.16.14,6.08,6.08,0,0,0,1.41.73,7.13,7.13,0,0,0,2,.47,3.38,3.38,0,0,0,.84,0,1.88,1.88,0,0,0,.73-.26,1.08,1.08,0,0,0,.46-.53,1.58,1.58,0,0,0,.05-1,2.19,2.19,0,0,0-.62-1,4.51,4.51,0,0,0-.59-.47Zm-4.23,20.61a.43.43,0,0,1,0,.07,1.87,1.87,0,0,0-.27.65,3.18,3.18,0,0,0,0,.62,2.72,2.72,0,0,0,.12.8,1.75,1.75,0,0,0,.4.7,1.4,1.4,0,0,0,1,.44,1.22,1.22,0,0,0,1-.33,1.9,1.9,0,0,0,.58-.89,9.18,9.18,0,0,0,.23-1,2.67,2.67,0,0,1,.27-.78,1.07,1.07,0,0,1,.48-.46,1.05,1.05,0,0,1,.72-.06,1,1,0,0,1,.66.49,1.62,1.62,0,0,1,.17.41,2.33,2.33,0,0,1,0,.79,1.36,1.36,0,0,1-.17.55,1.58,1.58,0,0,1-.69.64,3.57,3.57,0,0,1-1,.33l-.14,0a.15.15,0,0,0-.08.16c0,.08,0,.12.1.14l.15,0h1.86l.16,0a.1.1,0,0,0,.07-.08.18.18,0,0,0-.08-.18l-.46-.44,0-.07a1.88,1.88,0,0,0,.44-.85,2.68,2.68,0,0,0,0-.63,2.75,2.75,0,0,0-.14-.81,1.67,1.67,0,0,0-1.94-1.12,1.68,1.68,0,0,0-1.07.67,2.19,2.19,0,0,0-.4.91c-.07.32-.13.65-.21,1a1.93,1.93,0,0,1-.26.65.8.8,0,0,1-1.08.27,1,1,0,0,1-.44-.56,2.21,2.21,0,0,1-.12-.68,2.45,2.45,0,0,1,.06-.6,1.16,1.16,0,0,1,.61-.79,1.48,1.48,0,0,1,.46-.16,3.05,3.05,0,0,1,.41-.05.14.14,0,0,0,.12-.08.16.16,0,0,0-.16-.25H590.1a.11.11,0,0,0-.1.11.26.26,0,0,0,0,.17l.13.13Zm4.42-29.88-.5,0c-.21,0-.42,0-.62.06a3,3,0,0,0-1.12.39,1.78,1.78,0,0,0-.71.8,2.13,2.13,0,0,0-.15,1.2,1.72,1.72,0,0,0,.53,1,2.34,2.34,0,0,0,.88.5,5.15,5.15,0,0,0,1.51.21,4.56,4.56,0,0,0,.52,0,3.91,3.91,0,0,0,.68-.06,3.43,3.43,0,0,0,1.07-.34,1.74,1.74,0,0,0,.91-1.24,2,2,0,0,0,0-.69,1.92,1.92,0,0,0-.19-.7,1.86,1.86,0,0,0-.89-.82,3.55,3.55,0,0,0-1.31-.32Zm-4.15-2.86.1,0,1.24.32,2.26.56a1.83,1.83,0,0,0,.7.06,1.14,1.14,0,0,0,.72-.38,1.25,1.25,0,0,0,.23-1.1,1.77,1.77,0,0,0-.56-.93,3.42,3.42,0,0,0-.52-.4,4,4,0,0,0-.74-.38l-.15,0a.09.09,0,0,0-.1.09.17.17,0,0,0,.11.23,6.4,6.4,0,0,1,.82.43,2.18,2.18,0,0,1,.69.66,1.09,1.09,0,0,1,.2.65.34.34,0,0,1-.23.32,1.59,1.59,0,0,1-.72,0,5.45,5.45,0,0,1-.58-.14l-2.69-.67-.78-.2v-1.34c0-.2-.07-.26-.26-.25s-.11,0-.13.1a.86.86,0,0,0,0,.16v1.22h-.09l-1.33-.34c-.24-.06-.47-.12-.71-.16a.3.3,0,0,0-.34.17.5.5,0,0,0,.15.59.64.64,0,0,0,.29.13l1.68.42.35.08v1.3a.47.47,0,0,0,0,.17.14.14,0,0,0,.14.13h.08c.09,0,.13,0,.15-.13a.37.37,0,0,0,0-.11v-1.26Zm2.19-10.44h3.83a.23.23,0,0,0,.2-.23.22.22,0,0,0-.18-.25.83.83,0,0,0-.22,0h-3.63v-3.66a.76.76,0,0,0,0-.21.21.21,0,0,0-.23-.16c-.12,0-.2,0-.23.15a1,1,0,0,0,0,.24v3.64h-3.64l-.21,0a.23.23,0,0,0-.18.23c0,.13,0,.21.15.24l.2,0h3.68V406c0,.11,0,.22,0,.33a.85.85,0,0,0,0,.22.22.22,0,0,0,.22.13.2.2,0,0,0,.22-.14.85.85,0,0,0,0-.23v-3.68Zm-.27,29.75h0l.66,0c.13,0,.27,0,.4,0a10.63,10.63,0,0,0,1.13-.18,7.83,7.83,0,0,0,1.89-.65,6.55,6.55,0,0,0,.88-.52,6,6,0,0,0,1.25-1.11,3.62,3.62,0,0,0,.22-.32.11.11,0,0,0-.11-.17.18.18,0,0,0-.1,0l-.3.27a5.25,5.25,0,0,1-.78.63,7.43,7.43,0,0,1-1.88.86,9.91,9.91,0,0,1-1.6.34,11.38,11.38,0,0,1-1.3.1c-.28,0-.56,0-.83,0a9.26,9.26,0,0,1-1.05-.07,10.73,10.73,0,0,1-1.11-.19,7.49,7.49,0,0,1-2.28-.9,5.53,5.53,0,0,1-1.23-1l-.08-.07a.14.14,0,0,0-.17,0,.12.12,0,0,0,0,.15.75.75,0,0,0,.07.12,4.53,4.53,0,0,0,.54.61,7.1,7.1,0,0,0,.91.73,7.71,7.71,0,0,0,1.09.6,8.25,8.25,0,0,0,1.45.49,7.58,7.58,0,0,0,.95.18l.87.08Zm0-49.24-.53,0a8.47,8.47,0,0,0-1,.1,8.56,8.56,0,0,0-1.73.42,7.48,7.48,0,0,0-2.07,1.14,5.52,5.52,0,0,0-.92.89,2.33,2.33,0,0,0-.17.26.1.1,0,0,0,0,.15.14.14,0,0,0,.15,0l.08-.07.32-.31a5.6,5.6,0,0,1,1.28-.88,7.38,7.38,0,0,1,1.64-.62,11.22,11.22,0,0,1,2.23-.33c.22,0,.44,0,.66,0h.23a8.44,8.44,0,0,1,.87,0c.3,0,.6.05.9.1a8.78,8.78,0,0,1,1.66.42,6.9,6.9,0,0,1,1.49.74,5.38,5.38,0,0,1,1,.83l.1.09a.13.13,0,0,0,.16,0,.11.11,0,0,0,0-.16l-.07-.13a5,5,0,0,0-.78-.81,6.77,6.77,0,0,0-1.6-1,7.89,7.89,0,0,0-1.14-.44,9.58,9.58,0,0,0-2.06-.37C593.06,383.15,592.81,383.15,592.55,383.14Zm-2.48,59,.15,1.8h.41a2.61,2.61,0,0,1,0-.28,1.31,1.31,0,0,1,0-.39.34.34,0,0,1,.26-.23,1.26,1.26,0,0,1,.27,0h3.61a.75.75,0,0,1,.21,0,.29.29,0,0,1,.29.25.5.5,0,0,1,0,.12c0,.17,0,.34,0,.51v.1h.41a2.81,2.81,0,0,1,0-.29c0-.34,0-.69,0-1s0-.6,0-.9c0-.12,0-.23,0-.35a1.15,1.15,0,0,0,0-.19h-.41c0,.12,0,.23,0,.34a1.43,1.43,0,0,1,0,.29.27.27,0,0,1-.26.24l-.14,0h-4.85Zm-2.23,1.32a.68.68,0,0,0,.69-.68.67.67,0,0,0-.69-.69.68.68,0,0,0-.69.68A.7.7,0,0,0,587.84,443.42Z" transform="translate(-554.83 -272.37)"/><path d="M592.8,454.49v3.17a.07.07,0,0,0,.05.08l.94.57.65.38.26.14a.54.54,0,0,0,.22,0,.36.36,0,0,0,.34-.21.92.92,0,0,0,.1-.41.17.17,0,0,0,0-.07.14.14,0,0,1,.15-.12c.16,0,.24.07.25.24h0c0,.28,0,.57,0,.85a8.81,8.81,0,0,0,0,.89c0,.21,0,.43,0,.65s0,.17-.12.18-.24,0-.26-.15a1.27,1.27,0,0,1,0-.28,1.65,1.65,0,0,0-.59-1.08,4.22,4.22,0,0,0-.71-.48l-2.32-1.39-3.21-1.92-1.79-1.07c-.18-.11-.2-.24-.17-.45s.08-.09.14-.1l.37,0,.84-.08.68-.07.84-.08.68-.07,1-.1.67-.06,1-.11.71-.06.88-.09.56-.06h.08a.27.27,0,0,0,.22-.22,2.06,2.06,0,0,0,0-.26c0-.14,0-.27,0-.41v0c0-.07,0-.15.08-.19a.27.27,0,0,1,.26,0,.17.17,0,0,1,.07.15c0,.16,0,.31,0,.47V453c0,.3,0,.59,0,.88s0,.64,0,1c0,.17,0,.34,0,.52s0,.18-.18.17a.2.2,0,0,1-.22-.23,2.88,2.88,0,0,0-.05-.59,1,1,0,0,0-.12-.28.27.27,0,0,0-.26-.13l-.58,0-.51.05-1,.1Zm-.42,0h-.09l-1.09.11-1.14.11-.65.06-1.12.12-.12,0,4.21,2.52Z" transform="translate(-554.83 -272.37)"/><path d="M590.06,389.92l-.13,0L588,389.4l-1-.25-.06,0c-.1,0-.13-.08-.12-.19a.14.14,0,0,1,.17-.12l.47.11,2.5.62.08,0c0-.15.05-.3.07-.45a2.61,2.61,0,0,1,.57-1.24,2.12,2.12,0,0,1,1.27-.74,2.53,2.53,0,0,1,1.44.16,3.6,3.6,0,0,1,1.11.72,4.44,4.44,0,0,1,1.14,1.7,4,4,0,0,1,.27,1.2.62.62,0,0,0,0,.13l.07,0,1.88.48.39.1c.14,0,.15.13.13.24a.1.1,0,0,1-.11.08h-.11l-1.46-.37-.79-.19,0,.21a2.7,2.7,0,0,1-.42,1.23,2.1,2.1,0,0,1-1.48,1,2.65,2.65,0,0,1-1.59-.23,3.87,3.87,0,0,1-1.13-.84,4.45,4.45,0,0,1-1.17-2.35,3.13,3.13,0,0,1,0-.43A.11.11,0,0,1,590.06,389.92Zm.3-.26,5.27,1.32c0-.07,0-.13,0-.19a3.07,3.07,0,0,0-1.07-1.92,3.58,3.58,0,0,0-.94-.6,3.65,3.65,0,0,0-1.32-.32,2.18,2.18,0,0,0-.57,0,1.64,1.64,0,0,0-.86.43,1.7,1.7,0,0,0-.45.87A1.53,1.53,0,0,0,590.36,389.66Zm0,.34c0,.09,0,.16,0,.23a3.05,3.05,0,0,0,1,1.86,3.52,3.52,0,0,0,.93.6,3.85,3.85,0,0,0,1.46.34,2.09,2.09,0,0,0,.61-.08,1.53,1.53,0,0,0,.71-.4,1.75,1.75,0,0,0,.4-.7,1.83,1.83,0,0,0,.09-.52Z" transform="translate(-554.83 -272.37)"/><path d="M595.36,433.91h.41a1.55,1.55,0,0,1,0,.22c0,.12,0,.25,0,.37s0,.32,0,.48,0,.3,0,.45l0,1.08c0,.1,0,.2,0,.3h-.4s0-.06,0-.09,0-.34,0-.52a.25.25,0,0,0,0-.08.33.33,0,0,0-.34-.3h-3.32a2,2,0,0,0-.73.12.78.78,0,0,0-.57.79,1.58,1.58,0,0,0,.44,1.13,2,2,0,0,0,1.15.61,2.7,2.7,0,0,0,.49,0h2.33a1.23,1.23,0,0,0,.27,0,.28.28,0,0,0,.27-.25c0-.15,0-.29,0-.44a2.8,2.8,0,0,0,0-.29h.41a1.7,1.7,0,0,1,0,.22c0,.12,0,.25,0,.38,0,.31,0,.62,0,.93s0,.71,0,1.07c0,.1,0,.19,0,.3h-.41v-.1c0-.17,0-.34,0-.51a.59.59,0,0,0,0-.13.31.31,0,0,0-.27-.24l-.21,0h-3.58l-.3,0a.35.35,0,0,0-.28.27,1.4,1.4,0,0,0,0,.41,2.8,2.8,0,0,0,0,.29h-.4c0-.1-.16-1.75-.14-1.82h1.27v0l-.12-.06a2.37,2.37,0,0,1-.63-.46,1.79,1.79,0,0,1-.54-1.31,2.41,2.41,0,0,1,.1-.8,1.24,1.24,0,0,1,.26-.51,1.39,1.39,0,0,1,.78-.44,3,3,0,0,1,.66-.06h3l.15,0a.29.29,0,0,0,.23-.18.91.91,0,0,0,.06-.36C595.36,434.22,595.36,434.07,595.36,433.91Z" transform="translate(-554.83 -272.37)"/><path d="M594.58,425.2l.07.05a4.51,4.51,0,0,1,.59.47,2.19,2.19,0,0,1,.62,1,1.58,1.58,0,0,1-.05,1,1.08,1.08,0,0,1-.46.53,1.88,1.88,0,0,1-.73.26,3.38,3.38,0,0,1-.84,0,7.13,7.13,0,0,1-2-.47,6.08,6.08,0,0,1-1.41-.73.73.73,0,0,1-.16-.14.25.25,0,0,1,.14-.39.24.24,0,0,1,.17,0l.33.23a7.85,7.85,0,0,0,1,.61,4.41,4.41,0,0,0,1.21.4,3.88,3.88,0,0,0,.48,0,2.24,2.24,0,0,0,.84-.16,1,1,0,0,0,.63-.83,1.52,1.52,0,0,0-.22-.95,2.68,2.68,0,0,0-.62-.68l-.26-.2a.32.32,0,0,0-.19-.07,4.88,4.88,0,0,1-1.25-.21l-.25-.11a.32.32,0,0,1-.16-.26.23.23,0,0,1,.25-.29,1.68,1.68,0,0,1,.45.06,9.23,9.23,0,0,1,1,.35.14.14,0,0,0,.09,0,1.43,1.43,0,0,0,.8-.38,1.07,1.07,0,0,0,.29-.58,1.38,1.38,0,0,0-.4-1.25,3.36,3.36,0,0,0-1-.76,3.71,3.71,0,0,0-1.08-.36,1.48,1.48,0,0,0-1.14.24.91.91,0,0,0-.21.18.77.77,0,0,1-.29.19.45.45,0,0,1-.34,0,.77.77,0,0,1-.38-.53.43.43,0,0,1,.21-.46,1,1,0,0,1,.45-.15,2.79,2.79,0,0,1,.76,0,12.92,12.92,0,0,1,2.1.53,5.21,5.21,0,0,1,1.54.83,2.24,2.24,0,0,1,.59.71,1.69,1.69,0,0,1,.18.7,1.57,1.57,0,0,1-.1.61,1.37,1.37,0,0,1-.64.7,1.69,1.69,0,0,1-.52.18Z" transform="translate(-554.83 -272.37)"/><path d="M590.35,445.81l-.17-.2-.13-.13a.26.26,0,0,1,0-.17.11.11,0,0,1,.1-.11h1.65a.16.16,0,0,1,.16.25.14.14,0,0,1-.12.08,3.05,3.05,0,0,0-.41.05,1.48,1.48,0,0,0-.46.16,1.16,1.16,0,0,0-.61.79,2.45,2.45,0,0,0-.06.6,2.21,2.21,0,0,0,.12.68,1,1,0,0,0,.44.56.8.8,0,0,0,1.08-.27,1.93,1.93,0,0,0,.26-.65c.08-.32.14-.65.21-1a2.19,2.19,0,0,1,.4-.91,1.68,1.68,0,0,1,1.07-.67,1.67,1.67,0,0,1,1.94,1.12,2.75,2.75,0,0,1,.14.81,2.68,2.68,0,0,1,0,.63,1.88,1.88,0,0,1-.44.85l0,.07.46.44a.18.18,0,0,1,.08.18.1.1,0,0,1-.07.08l-.16,0h-1.86l-.15,0c-.07,0-.09-.06-.1-.14a.15.15,0,0,1,.08-.16l.14,0a3.57,3.57,0,0,0,1-.33,1.58,1.58,0,0,0,.69-.64,1.36,1.36,0,0,0,.17-.55,2.33,2.33,0,0,0,0-.79,1.62,1.62,0,0,0-.17-.41,1,1,0,0,0-.66-.49,1.05,1.05,0,0,0-.72.06,1.07,1.07,0,0,0-.48.46,2.67,2.67,0,0,0-.27.78,9.18,9.18,0,0,1-.23,1,1.9,1.9,0,0,1-.58.89,1.22,1.22,0,0,1-1,.33,1.4,1.4,0,0,1-1-.44,1.75,1.75,0,0,1-.4-.7,2.72,2.72,0,0,1-.12-.8,3.18,3.18,0,0,1,0-.62,1.87,1.87,0,0,1,.27-.65A.43.43,0,0,0,590.35,445.81Z" transform="translate(-554.83 -272.37)"/><path d="M594.77,415.93l.64,0a3.55,3.55,0,0,1,1.31.32,1.86,1.86,0,0,1,.89.82,1.92,1.92,0,0,1,.19.7,2,2,0,0,1,0,.69,1.74,1.74,0,0,1-.91,1.24,3.43,3.43,0,0,1-1.07.34,3.91,3.91,0,0,1-.68.06,4.56,4.56,0,0,1-.52,0,5.15,5.15,0,0,1-1.51-.21,2.34,2.34,0,0,1-.88-.5,1.72,1.72,0,0,1-.53-1,2.13,2.13,0,0,1,.15-1.2,1.78,1.78,0,0,1,.71-.8,3,3,0,0,1,1.12-.39c.2,0,.41,0,.62-.06Zm-.1.85v0l-1.06,0a3.76,3.76,0,0,0-.82.11,1.13,1.13,0,0,0-.78.66,1.16,1.16,0,0,0,.68,1.58,3.37,3.37,0,0,0,.83.15l.68,0,1.42,0a4.14,4.14,0,0,0,.7-.06A1.75,1.75,0,0,0,597,419a1.13,1.13,0,0,0,.54-1.22,1.17,1.17,0,0,0-.85-.88,4,4,0,0,0-1.09-.14Z" transform="translate(-554.83 -272.37)"/><path d="M590.62,413.07v1.26a.37.37,0,0,1,0,.11c0,.09-.06.13-.15.13h-.08a.14.14,0,0,1-.14-.13.47.47,0,0,1,0-.17V413l-.35-.08-1.68-.42a.64.64,0,0,1-.29-.13.5.5,0,0,1-.15-.59.3.3,0,0,1,.34-.17c.24,0,.47.1.71.16l1.33.34h.09v-1.22a.86.86,0,0,1,0-.16c0-.08,0-.1.13-.1s.26,0,.26.25v1.34l.78.2,2.69.67a5.45,5.45,0,0,0,.58.14,1.59,1.59,0,0,0,.72,0,.34.34,0,0,0,.23-.32,1.09,1.09,0,0,0-.2-.65,2.18,2.18,0,0,0-.69-.66,6.4,6.4,0,0,0-.82-.43.17.17,0,0,1-.11-.23.09.09,0,0,1,.1-.09l.15,0a4,4,0,0,1,.74.38,3.42,3.42,0,0,1,.52.4,1.77,1.77,0,0,1,.56.93,1.25,1.25,0,0,1-.23,1.1,1.14,1.14,0,0,1-.72.38,1.83,1.83,0,0,1-.7-.06l-2.26-.56-1.24-.32Z" transform="translate(-554.83 -272.37)"/><path d="M592.81,402.63v3.68a.85.85,0,0,1,0,.23.2.2,0,0,1-.22.14.22.22,0,0,1-.22-.13.85.85,0,0,1,0-.22c0-.11,0-.22,0-.33v-3.37h-3.68l-.2,0c-.11,0-.15-.11-.15-.24a.23.23,0,0,1,.18-.23l.21,0h3.64v-3.64a1,1,0,0,1,0-.24c0-.11.11-.15.23-.15a.21.21,0,0,1,.23.16.76.76,0,0,1,0,.21v3.66h3.63a.83.83,0,0,1,.22,0,.22.22,0,0,1,.18.25.23.23,0,0,1-.2.23h-3.83Z" transform="translate(-554.83 -272.37)"/><path d="M592.54,432.38H592l-.87-.08a7.58,7.58,0,0,1-.95-.18,8.25,8.25,0,0,1-1.45-.49,7.71,7.71,0,0,1-1.09-.6,7.1,7.1,0,0,1-.91-.73,4.53,4.53,0,0,1-.54-.61.75.75,0,0,1-.07-.12.12.12,0,0,1,0-.15.14.14,0,0,1,.17,0l.08.07a5.53,5.53,0,0,0,1.23,1,7.49,7.49,0,0,0,2.28.9,10.73,10.73,0,0,0,1.11.19,9.26,9.26,0,0,0,1.05.07c.27,0,.55,0,.83,0a11.38,11.38,0,0,0,1.3-.1,9.91,9.91,0,0,0,1.6-.34,7.43,7.43,0,0,0,1.88-.86,5.25,5.25,0,0,0,.78-.63l.3-.27a.18.18,0,0,1,.1,0,.11.11,0,0,1,.11.17,3.62,3.62,0,0,1-.22.32A6,6,0,0,1,597.5,431a6.55,6.55,0,0,1-.88.52,7.83,7.83,0,0,1-1.89.65,10.63,10.63,0,0,1-1.13.18c-.13,0-.27,0-.4,0l-.66,0Z" transform="translate(-554.83 -272.37)"/><path d="M592.55,383.14c.26,0,.51,0,.76,0a9.58,9.58,0,0,1,2.06.37,7.89,7.89,0,0,1,1.14.44,6.77,6.77,0,0,1,1.6,1,5,5,0,0,1,.78.81l.07.13a.11.11,0,0,1,0,.16.13.13,0,0,1-.16,0l-.1-.09a5.38,5.38,0,0,0-1-.83,6.9,6.9,0,0,0-1.49-.74,8.78,8.78,0,0,0-1.66-.42c-.3-.05-.6-.07-.9-.1a8.44,8.44,0,0,0-.87,0h-.23c-.22,0-.44,0-.66,0a11.22,11.22,0,0,0-2.23.33,7.38,7.38,0,0,0-1.64.62,5.6,5.6,0,0,0-1.28.88l-.32.31-.08.07a.14.14,0,0,1-.15,0,.1.1,0,0,1,0-.15,2.33,2.33,0,0,1,.17-.26,5.52,5.52,0,0,1,.92-.89,7.48,7.48,0,0,1,2.07-1.14,8.56,8.56,0,0,1,1.73-.42,8.47,8.47,0,0,1,1-.1Z" transform="translate(-554.83 -272.37)"/><path d="M590.07,442.1h4.85l.14,0a.27.27,0,0,0,.26-.24,1.43,1.43,0,0,0,0-.29c0-.11,0-.22,0-.34h.41a1.15,1.15,0,0,1,0,.19c0,.12,0,.23,0,.35,0,.3,0,.6,0,.9s0,.69,0,1a2.81,2.81,0,0,0,0,.29h-.41v-.1c0-.17,0-.34,0-.51a.5.5,0,0,0,0-.12A.29.29,0,0,0,595,443a.75.75,0,0,0-.21,0h-3.61a1.26,1.26,0,0,0-.27,0,.34.34,0,0,0-.26.23,1.31,1.31,0,0,0,0,.39,2.61,2.61,0,0,0,0,.28h-.41Z" transform="translate(-554.83 -272.37)"/><path d="M587.84,443.42a.7.7,0,0,1-.69-.69.68.68,0,0,1,.69-.68.67.67,0,0,1,.69.69A.68.68,0,0,1,587.84,443.42Z" transform="translate(-554.83 -272.37)"/><path class="cls-8" d="M592.38,454.52v2.94l-4.21-2.52.12,0,1.12-.12.65-.06,1.14-.11,1.09-.11Z" transform="translate(-554.83 -272.37)"/><path class="cls-8" d="M590.36,389.66a1.53,1.53,0,0,1,0-.38,1.7,1.7,0,0,1,.45-.87,1.64,1.64,0,0,1,.86-.43,2.18,2.18,0,0,1,.57,0,3.65,3.65,0,0,1,1.32.32,3.58,3.58,0,0,1,.94.6,3.07,3.07,0,0,1,1.07,1.92c0,.06,0,.12,0,.19Z" transform="translate(-554.83 -272.37)"/><path class="cls-8" d="M590.35,390l5.28,1.33a1.83,1.83,0,0,1-.09.52,1.75,1.75,0,0,1-.4.7,1.53,1.53,0,0,1-.71.4,2.09,2.09,0,0,1-.61.08,3.85,3.85,0,0,1-1.46-.34,3.52,3.52,0,0,1-.93-.6,3.05,3.05,0,0,1-1-1.86C590.37,390.16,590.36,390.09,590.35,390Z" transform="translate(-554.83 -272.37)"/><path class="cls-8" d="M594.67,416.78h.92a4,4,0,0,1,1.09.14,1.17,1.17,0,0,1,.85.88A1.13,1.13,0,0,1,597,419a1.75,1.75,0,0,1-.67.21,4.14,4.14,0,0,1-.7.06l-1.42,0-.68,0a3.37,3.37,0,0,1-.83-.15,1.16,1.16,0,0,1-.68-1.58,1.13,1.13,0,0,1,.78-.66,3.76,3.76,0,0,1,.82-.11l1.06,0Z" transform="translate(-554.83 -272.37)"/><path class="cls-8" d="M673.35,458.93H639V448h40v10.91h-5.5a.35.35,0,0,0,.08-.16l.09-.34.39-1.56a2,2,0,0,0,.07-.26l.24,0A4,4,0,0,0,677,455.3a3.52,3.52,0,0,0,.67-1,2.42,2.42,0,0,0,.16-1.38,2,2,0,0,0-.7-1.19,2.45,2.45,0,0,0-1.16-.52c-.13,0-.27,0-.41-.06s0-.06,0-.09c.14-.57.29-1.13.43-1.7.08-.35.17-.71.25-1.06,0-.1,0-.16-.12-.17a.15.15,0,0,0-.17.11s0,0,0,.06c-.08.31-.16.61-.23.91-.16.63-.32,1.25-.47,1.87l0,.07-.2,0a3.88,3.88,0,0,0-1.07.25,4.21,4.21,0,0,0-1.6,1.1,3.32,3.32,0,0,0-.74,1.32,2.38,2.38,0,0,0,0,1.06,2,2,0,0,0,1,1.37,2.78,2.78,0,0,0,1.05.35l.24,0c-.07.25-.12.5-.18.74l-.35,1.37A.19.19,0,0,0,673.35,458.93Zm-31.15-3.58a2.22,2.22,0,0,0,.18.55,1.31,1.31,0,0,0,.65.6,1.22,1.22,0,0,0,.57.09,1.39,1.39,0,0,0,.57-.12,2,2,0,0,0,.75-.59,4.43,4.43,0,0,0,.78-1.45,12,12,0,0,0,.47-1.76,3.1,3.1,0,0,0,.06-.91,1.09,1.09,0,0,0-.14-.43.42.42,0,0,0-.43-.19.73.73,0,0,0-.49.36.42.42,0,0,0,0,.33.58.58,0,0,0,.18.26,1,1,0,0,1,.24.31,1.45,1.45,0,0,1,.14,1,3.53,3.53,0,0,1-.14.56,3.45,3.45,0,0,1-.9,1.41,1.42,1.42,0,0,1-.41.28,1.2,1.2,0,0,1-.59.11,1.05,1.05,0,0,1-.79-.38,1.3,1.3,0,0,1-.28-.66.15.15,0,0,1,0-.09,8.06,8.06,0,0,0,.33-1,2,2,0,0,0,.06-.43.23.23,0,0,0-.25-.23.32.32,0,0,0-.26.15,1.15,1.15,0,0,0-.12.25,4.61,4.61,0,0,0-.19,1.17.35.35,0,0,1-.06.17,4.07,4.07,0,0,1-.51.59,1.86,1.86,0,0,1-.62.37,1.4,1.4,0,0,1-.61.06.85.85,0,0,1-.55-.27,1.11,1.11,0,0,1-.25-.45,2,2,0,0,1-.09-.78,3.37,3.37,0,0,1,.15-.83,5.77,5.77,0,0,1,.75-1.46l.28-.4a.2.2,0,0,0,0-.13.22.22,0,0,0-.27-.2.3.3,0,0,0-.2.15,6.65,6.65,0,0,0-.39.63,6.36,6.36,0,0,0-.48,1.21,6.25,6.25,0,0,0-.28,1.43,3.29,3.29,0,0,0,0,.77,1.88,1.88,0,0,0,.24.7,1,1,0,0,0,.5.43,1.48,1.48,0,0,0,.86.05,2,2,0,0,0,1-.59,4.61,4.61,0,0,0,.44-.55Zm8.68.13c0-.2,0-.44,0-.68a3.41,3.41,0,0,0-.28-1.13,1.74,1.74,0,0,0-1-1,2.08,2.08,0,0,0-1-.05,1.55,1.55,0,0,0-.87.49,2.11,2.11,0,0,0-.46.81,4.67,4.67,0,0,0-.2,1.39c0,.17,0,.34,0,.51a3.39,3.39,0,0,0,.06.64,3,3,0,0,0,.32,1,1.65,1.65,0,0,0,1.13.86,2.24,2.24,0,0,0,.73,0,1.79,1.79,0,0,0,.6-.17,1.75,1.75,0,0,0,.77-.84,3.7,3.7,0,0,0,.3-1.22C650.86,455.93,650.87,455.72,650.88,455.48Zm2.66-3.83s0,0,0,0c-.06.26-.13.51-.19.76l-.66,2.67a1.4,1.4,0,0,0,0,.61,1,1,0,0,0,.52.73,1.17,1.17,0,0,0,.64.13,1.36,1.36,0,0,0,.8-.3,2.27,2.27,0,0,0,.32-.3,3.3,3.3,0,0,0,.71-1.16l0-.11a.11.11,0,0,0-.09-.1.17.17,0,0,0-.22.11l0,.1a4.17,4.17,0,0,1-.35.66,2.17,2.17,0,0,1-.54.59,1,1,0,0,1-.68.24.29.29,0,0,1-.31-.23,1.36,1.36,0,0,1,0-.6,6,6,0,0,1,.14-.61l.71-2.81c0-.14.07-.28.1-.42h1.31a.18.18,0,0,0,.19-.2v0a.11.11,0,0,0-.1-.13h-1.29a.11.11,0,0,1,0-.06c.13-.53.26-1.06.4-1.59,0-.1,0-.22.07-.33a.29.29,0,0,0-.21-.35.36.36,0,0,0-.25,0,.52.52,0,0,0-.37.41c-.16.61-.31,1.22-.46,1.84a.31.31,0,0,1,0,.08h-1.36a.13.13,0,0,0-.11.09c0,.15,0,.28.17.28h1.2Zm9.77,2v3.44a.88.88,0,0,0,0,.16.18.18,0,0,0,.09.14.24.24,0,0,0,.37-.16,1.09,1.09,0,0,0,0-.18v-3.4h3.42a.58.58,0,0,0,.19,0,.2.2,0,0,0,.16-.22.19.19,0,0,0-.15-.21l-.21,0H663.8v-3.39a.83.83,0,0,0,0-.22.18.18,0,0,0-.21-.15c-.13,0-.19,0-.22.15a.48.48,0,0,0,0,.18v3.43h-3.43a.53.53,0,0,0-.25,0,.2.2,0,0,0-.1.22.19.19,0,0,0,.12.19.53.53,0,0,0,.22,0h3.44Z" transform="translate(-554.83 -272.37)"/><path d="M673.35,458.93a.19.19,0,0,1,0-.2l.35-1.37c.06-.24.11-.49.18-.74l-.24,0a2.78,2.78,0,0,1-1.05-.35,2,2,0,0,1-1-1.37,2.38,2.38,0,0,1,0-1.06,3.32,3.32,0,0,1,.74-1.32,4.21,4.21,0,0,1,1.6-1.1,3.88,3.88,0,0,1,1.07-.25l.2,0,0-.07c.15-.62.31-1.24.47-1.87.07-.3.15-.6.23-.91,0,0,0,0,0-.06a.15.15,0,0,1,.17-.11c.1,0,.15.07.12.17-.08.35-.17.71-.25,1.06-.14.57-.29,1.13-.43,1.7,0,0,0,.06,0,.09s.28,0,.41.06a2.45,2.45,0,0,1,1.16.52,2,2,0,0,1,.7,1.19,2.42,2.42,0,0,1-.16,1.38,3.52,3.52,0,0,1-.67,1,4,4,0,0,1-2.59,1.29l-.24,0a2,2,0,0,1-.07.26l-.39,1.56-.09.34a.35.35,0,0,1-.08.16Zm2.12-7.53-1.25,4.94.3,0a2.91,2.91,0,0,0,1.67-1,3.56,3.56,0,0,0,.88-2.13,2.32,2.32,0,0,0-.07-.69,1.45,1.45,0,0,0-.49-.75,1.72,1.72,0,0,0-.81-.34Zm-1.57,4.94,1.24-4.94h-.07l-.2,0a2.87,2.87,0,0,0-1.68,1,3.69,3.69,0,0,0-.57.88,3.56,3.56,0,0,0-.31,1.37,2.56,2.56,0,0,0,0,.39,1.44,1.44,0,0,0,.88,1.14A2.12,2.12,0,0,0,673.9,456.34Z" transform="translate(-554.83 -272.37)"/><path d="M642.2,455.35l-.05.07a4.61,4.61,0,0,1-.44.55,2,2,0,0,1-1,.59,1.48,1.48,0,0,1-.86-.05,1,1,0,0,1-.5-.43,1.88,1.88,0,0,1-.24-.7,3.29,3.29,0,0,1,0-.77,6.25,6.25,0,0,1,.28-1.43,6.36,6.36,0,0,1,.48-1.21,6.65,6.65,0,0,1,.39-.63.3.3,0,0,1,.2-.15.22.22,0,0,1,.27.2.2.2,0,0,1,0,.13l-.28.4a5.77,5.77,0,0,0-.75,1.46,3.37,3.37,0,0,0-.15.83,2,2,0,0,0,.09.78,1.11,1.11,0,0,0,.25.45.85.85,0,0,0,.55.27,1.4,1.4,0,0,0,.61-.06,1.86,1.86,0,0,0,.62-.37,4.07,4.07,0,0,0,.51-.59.35.35,0,0,0,.06-.17,4.61,4.61,0,0,1,.19-1.17,1.15,1.15,0,0,1,.12-.25.32.32,0,0,1,.26-.15.23.23,0,0,1,.25.23,2,2,0,0,1-.06.43,8.06,8.06,0,0,1-.33,1,.15.15,0,0,0,0,.09,1.3,1.3,0,0,0,.28.66,1.05,1.05,0,0,0,.79.38,1.2,1.2,0,0,0,.59-.11,1.42,1.42,0,0,0,.41-.28,3.45,3.45,0,0,0,.9-1.41,3.53,3.53,0,0,0,.14-.56,1.45,1.45,0,0,0-.14-1,1,1,0,0,0-.24-.31.58.58,0,0,1-.18-.26.42.42,0,0,1,0-.33.73.73,0,0,1,.49-.36.42.42,0,0,1,.43.19,1.09,1.09,0,0,1,.14.43,3.1,3.1,0,0,1-.06.91,12,12,0,0,1-.47,1.76,4.43,4.43,0,0,1-.78,1.45,2,2,0,0,1-.75.59,1.39,1.39,0,0,1-.57.12,1.22,1.22,0,0,1-.57-.09,1.31,1.31,0,0,1-.65-.6A2.22,2.22,0,0,1,642.2,455.35Z" transform="translate(-554.83 -272.37)"/><path d="M650.88,455.48c0,.24,0,.45,0,.65a3.7,3.7,0,0,1-.3,1.22,1.75,1.75,0,0,1-.77.84,1.79,1.79,0,0,1-.6.17,2.24,2.24,0,0,1-.73,0,1.65,1.65,0,0,1-1.13-.86,3,3,0,0,1-.32-1,3.39,3.39,0,0,1-.06-.64c0-.17,0-.34,0-.51a4.67,4.67,0,0,1,.2-1.39,2.11,2.11,0,0,1,.46-.81,1.55,1.55,0,0,1,.87-.49,2.08,2.08,0,0,1,1,.05,1.74,1.74,0,0,1,1,1,3.41,3.41,0,0,1,.28,1.13C650.85,455,650.86,455.28,650.88,455.48Zm-.8,0h0l0-1a4,4,0,0,0-.1-.76,1.1,1.1,0,0,0-2.1-.1,2.9,2.9,0,0,0-.14.77c0,.21,0,.42,0,.63,0,.45,0,.89,0,1.34q0,.33.06.66a1.67,1.67,0,0,0,.2.62,1.06,1.06,0,0,0,1.16.51,1.09,1.09,0,0,0,.8-.79,3.47,3.47,0,0,0,.14-1C650.09,456,650.08,455.73,650.08,455.44Z" transform="translate(-554.83 -272.37)"/><path d="M653.54,451.65h-1.2c-.22,0-.22-.13-.17-.28a.13.13,0,0,1,.11-.09h1.36a.31.31,0,0,0,0-.08c.15-.62.3-1.23.46-1.84a.52.52,0,0,1,.37-.41.36.36,0,0,1,.25,0,.29.29,0,0,1,.21.35c0,.11-.05.23-.07.33-.14.53-.27,1.06-.4,1.59a.11.11,0,0,0,0,.06h1.29a.11.11,0,0,1,.1.13v0a.18.18,0,0,1-.19.2h-1.31c0,.14-.07.28-.1.42l-.71,2.81a6,6,0,0,0-.14.61,1.36,1.36,0,0,0,0,.6.29.29,0,0,0,.31.23,1,1,0,0,0,.68-.24,2.17,2.17,0,0,0,.54-.59,4.17,4.17,0,0,0,.35-.66l0-.1a.17.17,0,0,1,.22-.11.11.11,0,0,1,.09.1l0,.11a3.3,3.3,0,0,1-.71,1.16,2.27,2.27,0,0,1-.32.3,1.36,1.36,0,0,1-.8.3,1.17,1.17,0,0,1-.64-.13,1,1,0,0,1-.52-.73,1.4,1.4,0,0,1,0-.61l.66-2.67c.06-.25.13-.5.19-.76C653.54,451.68,653.54,451.67,653.54,451.65Z" transform="translate(-554.83 -272.37)"/><path d="M663.31,453.69h-3.44a.53.53,0,0,1-.22,0,.19.19,0,0,1-.12-.19.2.2,0,0,1,.1-.22.53.53,0,0,1,.25,0h3.43v-3.43a.48.48,0,0,1,0-.18c0-.11.09-.15.22-.15a.18.18,0,0,1,.21.15.83.83,0,0,1,0,.22v3.39h3.41l.21,0a.19.19,0,0,1,.15.21.2.2,0,0,1-.16.22.58.58,0,0,1-.19,0H663.8v3.4a1.09,1.09,0,0,1,0,.18.24.24,0,0,1-.37.16.18.18,0,0,1-.09-.14.88.88,0,0,1,0-.16v-3.44Z" transform="translate(-554.83 -272.37)"/><path class="cls-8" d="M675.47,451.4l.23,0a1.72,1.72,0,0,1,.81.34,1.45,1.45,0,0,1,.49.75,2.32,2.32,0,0,1,.07.69,3.56,3.56,0,0,1-.88,2.13,2.91,2.91,0,0,1-1.67,1l-.3,0Z" transform="translate(-554.83 -272.37)"/><path class="cls-8" d="M673.9,456.34a2.12,2.12,0,0,1-.68-.16,1.44,1.44,0,0,1-.88-1.14,2.56,2.56,0,0,1,0-.39,3.56,3.56,0,0,1,.31-1.37,3.69,3.69,0,0,1,.57-.88,2.87,2.87,0,0,1,1.68-1l.2,0h.07Z" transform="translate(-554.83 -272.37)"/><path class="cls-8" d="M650.08,455.44c0,.29,0,.58,0,.87a3.47,3.47,0,0,1-.14,1,1.09,1.09,0,0,1-.8.79,1.06,1.06,0,0,1-1.16-.51,1.67,1.67,0,0,1-.2-.62q0-.33-.06-.66c0-.45,0-.89,0-1.34,0-.21,0-.42,0-.63a2.9,2.9,0,0,1,.14-.77,1.1,1.1,0,0,1,2.1.1,4,4,0,0,1,.1.76l0,1Z" transform="translate(-554.83 -272.37)"/><path class="cls-8" d="M724.71,396.08H709V379h75v17.06h-59.1a5.57,5.57,0,0,0,.82-.1,5.13,5.13,0,0,0,1.63-.66,5,5,0,0,0,.94-.78c.1-.12.19-.25.28-.38a.2.2,0,0,0-.08-.28.2.2,0,0,0-.26.06l-.08.1a4.11,4.11,0,0,1-.58.6,4.52,4.52,0,0,1-2.08,1,3.87,3.87,0,0,1-.83.06,1.19,1.19,0,0,1-.58-.17,1.3,1.3,0,0,1-.57-.68,3,3,0,0,1-.2-1.38,10,10,0,0,1,.23-1.35.56.56,0,0,1,0-.12h.1l1.1,0a7.66,7.66,0,0,0,1.51-.15,3.62,3.62,0,0,0,1-.32,1.87,1.87,0,0,0,1.08-1.49,1.27,1.27,0,0,0-.47-1.18,1.91,1.91,0,0,0-1.19-.43,4.16,4.16,0,0,0-2.07.49,5.3,5.3,0,0,0-1.27.94,4.25,4.25,0,0,0-.81,1.16,4.46,4.46,0,0,0-.43,2.41,3.34,3.34,0,0,0,.37,1.31,2.45,2.45,0,0,0,1.85,1.34ZM717.66,392a.44.44,0,0,1,0,.1c.05.44.09.87.13,1.31,0,.22.05.43.07.65l.06.76a.31.31,0,0,1-.11.27,1.1,1.1,0,0,1-.21.14,2,2,0,0,1-.64.14h-.4a.25.25,0,0,0-.26.21.49.49,0,0,0,0,.12.18.18,0,0,0,.18.2h.08l1.26,0h1.47l1.34,0a.25.25,0,0,0,.26-.24c0-.21,0-.29-.24-.29h-.34c-.19,0-.37,0-.55-.06a.33.33,0,0,1-.32-.31c0-.14,0-.27-.05-.4,0-.56-.11-1.12-.17-1.68s-.09-1-.14-1.5c0-.3-.07-.6-.09-.91l-.18-1.83c-.05-.56-.11-1.11-.17-1.67l-.15-1.53c0-.47-.08-.93-.13-1.4a.51.51,0,0,0,0-.17.15.15,0,0,0-.13-.13c-.3,0-.45,0-.58.23l-1.41,2.35-2.52,4.22c-.63,1.06-1.27,2.12-1.9,3.19a5.11,5.11,0,0,1-.74,1,2.08,2.08,0,0,1-1.24.58c-.13,0-.26,0-.39.05a.28.28,0,0,0-.15.42.2.2,0,0,0,.19.09c.29,0,.59,0,.88,0a11,11,0,0,1,1.15,0l1.14,0c.22,0,.32-.11.32-.33a.18.18,0,0,0-.17-.19h-.09a1.37,1.37,0,0,1-.56-.15.48.48,0,0,1-.25-.36.66.66,0,0,1,.06-.36,2.1,2.1,0,0,1,.15-.3l1.24-2.09a.21.21,0,0,1,.21-.12h4.11Zm58.73-8.52-.26,0a4.69,4.69,0,0,0-2,.65,3.59,3.59,0,0,0-1.41,1.43,2.37,2.37,0,0,0-.27,1.36,2,2,0,0,0,.72,1.28,2.62,2.62,0,0,0,1.2.57,6,6,0,0,0,.61.1l0,.12c-.15.62-.3,1.25-.46,1.87-.06.24,0,.29.24.28a.15.15,0,0,0,.13-.1.75.75,0,0,0,.05-.16c.12-.47.23-.94.35-1.41l.15-.6.49-.05a4.56,4.56,0,0,0,1.71-.61,3.82,3.82,0,0,0,1.18-1.05,2.43,2.43,0,0,0,.52-1.66,1.94,1.94,0,0,0-.61-1.28,2.73,2.73,0,0,0-1.32-.67l-.6-.09c.06-.26.13-.52.19-.78.14-.54.27-1.08.41-1.63l.09-.37a.14.14,0,0,0-.13-.19c-.17,0-.26,0-.3.18-.15.65-.32,1.29-.48,1.94Zm-31.83,4.24.08.17a1.46,1.46,0,0,0,.45.62,1.56,1.56,0,0,0,1.38.3,2.06,2.06,0,0,0,1.14-.73,4.21,4.21,0,0,0,.67-1.09,7.47,7.47,0,0,0,.63-2.55,1,1,0,0,0-.19-.72.54.54,0,0,0-.77-.09,1,1,0,0,0-.19.21.46.46,0,0,0,.06.65l.2.22a1,1,0,0,1,.27.88,3.06,3.06,0,0,1-1,1.84,1.59,1.59,0,0,1-.87.45,1.29,1.29,0,0,1-1.44-.8.16.16,0,0,1,0-.15,4.2,4.2,0,0,0,.33-.92,1.33,1.33,0,0,0,.07-.45.31.31,0,0,0-.35-.31.44.44,0,0,0-.35.24,2.41,2.41,0,0,0-.16.42,3.17,3.17,0,0,0-.1.92.25.25,0,0,1-.07.19l-.32.32a2,2,0,0,1-1,.54,1.05,1.05,0,0,1-1.18-.52,1.54,1.54,0,0,1-.22-.89,3.28,3.28,0,0,1,.38-1.33,5.73,5.73,0,0,1,.61-.93c.07-.1.14-.19.2-.29a.18.18,0,0,0,0-.24.26.26,0,0,0-.39-.06l-.11.12a5.26,5.26,0,0,0-.57.9,5.16,5.16,0,0,0-.57,2.53,2.27,2.27,0,0,0,.26,1,1.29,1.29,0,0,0,.72.6,1.78,1.78,0,0,0,1.16-.05,2.61,2.61,0,0,0,1.14-.88Zm21.59-2.24h-3.67a1,1,0,0,0-.25,0,.23.23,0,0,0-.18.24c0,.16,0,.24.17.28l.24,0c1.18,0,2.35,0,3.52,0h.17v3.69a.62.62,0,0,0,0,.19.24.24,0,0,0,.24.2.26.26,0,0,0,.3-.19.71.71,0,0,0,0-.21c0-1.18,0-2.35,0-3.52V386h.17c1.17,0,2.33,0,3.5,0l.24,0a.25.25,0,0,0,.18-.26.26.26,0,0,0-.2-.27.93.93,0,0,0-.24,0h-3.65v-.16c0-1.16,0-2.33,0-3.49a.93.93,0,0,0,0-.23c0-.14-.13-.19-.29-.19a.25.25,0,0,0-.25.2.68.68,0,0,0,0,.2v3.68Zm-36.08,5.28.1-.07a.68.68,0,0,0,.28-.5.42.42,0,0,0-.33-.47.66.66,0,0,0-.67.25.65.65,0,0,0,.19,1,1.61,1.61,0,0,0,.67.19,2.69,2.69,0,0,0,1.12-.18A2.41,2.41,0,0,0,733,389.2c.16-.61.31-1.23.47-1.85.21-.82.42-1.63.62-2.45a1.06,1.06,0,0,0,0-.66,1.12,1.12,0,0,0-.77-.7,1.63,1.63,0,0,0-1.45.27,3,3,0,0,0-.87,1c-.08.14-.14.29-.21.44a.14.14,0,0,0,.06.18.23.23,0,0,0,.34-.09l.05-.11a3,3,0,0,1,.46-.74,1.87,1.87,0,0,1,.51-.46,1.1,1.1,0,0,1,.64-.2.34.34,0,0,1,.35.28,1.18,1.18,0,0,1,0,.56c-.09.4-.19.8-.29,1.2-.27,1.05-.53,2.11-.8,3.16a3.08,3.08,0,0,1-.31.88,1.78,1.78,0,0,1-.88.81A1.24,1.24,0,0,1,730.07,390.73Zm28-6.7a.18.18,0,0,0,0,.06c-.26,1-.51,2-.76,3a2.05,2.05,0,0,0-.1.55,1,1,0,0,0,.54,1,1.44,1.44,0,0,0,1,.16,2,2,0,0,0,1-.56,3.26,3.26,0,0,0,.59-.79,2.59,2.59,0,0,0,.17-.38.15.15,0,0,0-.06-.19.24.24,0,0,0-.33.1l-.19.38a2.73,2.73,0,0,1-.68.83,1.28,1.28,0,0,1-.65.29.4.4,0,0,1-.42-.13.6.6,0,0,1-.11-.34,2.15,2.15,0,0,1,.08-.62c.25-1,.5-2,.76-3l.09-.36h1.38c.16,0,.21-.09.21-.25s0-.16-.15-.17l-.22,0h-1.11a1,1,0,0,1,0-.12c.14-.57.28-1.14.43-1.71a.36.36,0,0,0-.18-.41.54.54,0,0,0-.56.06.81.81,0,0,0-.23.4l-.36,1.45-.09.33H757l-.2,0a.22.22,0,0,0-.21.26.16.16,0,0,0,.13.15h1.36Zm-3.62,3.6c0-.24,0-.48-.06-.73a3,3,0,0,0-.26-1,1.86,1.86,0,0,0-1.28-1.11,2.69,2.69,0,0,0-.85-.06,2,2,0,0,0-.93.27,1.94,1.94,0,0,0-.8,1,4.17,4.17,0,0,0-.27,1.48c0,.2,0,.4,0,.6a3.23,3.23,0,0,0,.28,1.3,1.84,1.84,0,0,0,1.3,1.12,2.72,2.72,0,0,0,1.1,0,1.82,1.82,0,0,0,1.06-.55,2.26,2.26,0,0,0,.5-.91A5.16,5.16,0,0,0,754.47,387.63Zm-17.67-1.9,0,.57a7.52,7.52,0,0,0,.17,1.25,7.09,7.09,0,0,0,1.07,2.51,6.34,6.34,0,0,0,1.54,1.56.21.21,0,0,0,.2,0,.14.14,0,0,0,.07-.23l0-.05-.42-.42a5.72,5.72,0,0,1-1-1.37,7.29,7.29,0,0,1-.62-1.77,10.14,10.14,0,0,1-.2-1.82c0-.21,0-.43,0-.65s0-.51.05-.77a7.68,7.68,0,0,1,.22-1.24,6.79,6.79,0,0,1,.72-1.77,6,6,0,0,1,1.07-1.33l.18-.17a.14.14,0,0,0-.07-.23.22.22,0,0,0-.22,0,6.56,6.56,0,0,0-1,.9,6.4,6.4,0,0,0-1.21,1.94A8.23,8.23,0,0,0,736.8,385.73Zm47,0,0-.58a7.72,7.72,0,0,0-.87-3.14,6.64,6.64,0,0,0-1.56-1.9l-.38-.28a.23.23,0,0,0-.23,0c-.05.05,0,.13,0,.21l.08.09.47.48a6.31,6.31,0,0,1,.82,1.17,7.18,7.18,0,0,1,.63,1.73,10.09,10.09,0,0,1,.23,2c0,.23,0,.45,0,.68s0,.47-.05.71a7.77,7.77,0,0,1-.38,1.77,5.92,5.92,0,0,1-1.56,2.52l-.23.22a.15.15,0,0,0,0,.19.16.16,0,0,0,.2,0l.14-.08a5.19,5.19,0,0,0,1-.89A6.4,6.4,0,0,0,783.1,389,8.06,8.06,0,0,0,783.78,385.74Zm-50.39-4.25a.46.46,0,0,0,.52.47.7.7,0,0,0,.62-.57.46.46,0,0,0-.34-.53.66.66,0,0,0-.44.07A.7.7,0,0,0,733.39,381.49Z" transform="translate(-554.83 -272.37)"/><path d="M724.71,396.08l-.36,0a2.45,2.45,0,0,1-1.85-1.34,3.34,3.34,0,0,1-.37-1.31,4.46,4.46,0,0,1,.43-2.41,4.25,4.25,0,0,1,.81-1.16,5.3,5.3,0,0,1,1.27-.94,4.16,4.16,0,0,1,2.07-.49,1.91,1.91,0,0,1,1.19.43,1.27,1.27,0,0,1,.47,1.18,1.87,1.87,0,0,1-1.08,1.49,3.62,3.62,0,0,1-1,.32,7.66,7.66,0,0,1-1.51.15l-1.1,0h-.1a.56.56,0,0,0,0,.12,10,10,0,0,0-.23,1.35,3,3,0,0,0,.2,1.38,1.3,1.3,0,0,0,.57.68,1.19,1.19,0,0,0,.58.17,3.87,3.87,0,0,0,.83-.06,4.52,4.52,0,0,0,2.08-1,4.11,4.11,0,0,0,.58-.6l.08-.1a.2.2,0,0,1,.26-.06.2.2,0,0,1,.08.28c-.09.13-.18.26-.28.38a5,5,0,0,1-.94.78,5.13,5.13,0,0,1-1.63.66,5.57,5.57,0,0,1-.82.1h-.23Zm-1-4.49h.11l1.22,0a5,5,0,0,0,1.22-.18,2.53,2.53,0,0,0,1.07-.51,1.28,1.28,0,0,0,.46-1.17,1,1,0,0,0-.61-.81,1.5,1.5,0,0,0-1-.09,2.79,2.79,0,0,0-1.69,1.07,4.29,4.29,0,0,0-.74,1.48Z" transform="translate(-554.83 -272.37)"/><path d="M717.66,392h-4.11a.21.21,0,0,0-.21.12l-1.24,2.09a2.1,2.1,0,0,0-.15.3.66.66,0,0,0-.06.36.48.48,0,0,0,.25.36,1.37,1.37,0,0,0,.56.15h.09a.18.18,0,0,1,.17.19c0,.22-.1.33-.32.33l-1.14,0a11,11,0,0,0-1.15,0c-.29,0-.59,0-.88,0a.2.2,0,0,1-.19-.09.28.28,0,0,1,.15-.42c.13,0,.26,0,.39-.05a2.08,2.08,0,0,0,1.24-.58,5.11,5.11,0,0,0,.74-1c.63-1.07,1.27-2.13,1.9-3.19l2.52-4.22,1.41-2.35c.13-.23.28-.27.58-.23a.15.15,0,0,1,.13.13.51.51,0,0,1,0,.17c0,.47.09.93.13,1.4l.15,1.53c.06.56.12,1.11.17,1.67l.18,1.83c0,.31.06.61.09.91,0,.5.1,1,.14,1.5s.12,1.12.17,1.68c0,.13,0,.26.05.4a.33.33,0,0,0,.32.31c.18,0,.36,0,.55.06h.34c.21,0,.28.08.24.29a.25.25,0,0,1-.26.24l-1.34,0h-1.47l-1.26,0h-.08a.18.18,0,0,1-.18-.2.49.49,0,0,1,0-.12.25.25,0,0,1,.26-.21h.4a2,2,0,0,0,.64-.14,1.1,1.1,0,0,0,.21-.14.31.31,0,0,0,.11-.27l-.06-.76c0-.22,0-.43-.07-.65,0-.44-.08-.87-.13-1.31A.44.44,0,0,0,717.66,392Zm-.58-6.08c-.21.29-3.28,5.43-3.31,5.54h3.85l-.06-.64c0-.47-.09-.94-.14-1.41s-.11-1.12-.17-1.68-.09-.94-.13-1.41C717.11,386.16,717.09,386,717.08,385.89Z" transform="translate(-554.83 -272.37)"/><path d="M776.39,383.45l.21-.85c.16-.65.33-1.29.48-1.94,0-.16.13-.21.3-.18a.14.14,0,0,1,.13.19l-.09.37c-.14.55-.27,1.09-.41,1.63-.06.26-.13.52-.19.78l.6.09a2.73,2.73,0,0,1,1.32.67,1.94,1.94,0,0,1,.61,1.28,2.43,2.43,0,0,1-.52,1.66,3.82,3.82,0,0,1-1.18,1.05,4.56,4.56,0,0,1-1.71.61l-.49.05-.15.6c-.12.47-.23.94-.35,1.41a.75.75,0,0,1-.05.16.15.15,0,0,1-.13.1c-.22,0-.3,0-.24-.28.16-.62.31-1.25.46-1.87l0-.12a6,6,0,0,1-.61-.1,2.62,2.62,0,0,1-1.2-.57,2,2,0,0,1-.72-1.28,2.37,2.37,0,0,1,.27-1.36,3.59,3.59,0,0,1,1.41-1.43,4.69,4.69,0,0,1,2-.65Zm-.85,5h.06l.23,0A3.15,3.15,0,0,0,778,387a2.77,2.77,0,0,0,.44-1.77,1.46,1.46,0,0,0-.56-1,1.9,1.9,0,0,0-.91-.36,2.4,2.4,0,0,0-.28,0Zm.75-4.69-.37.06a3.12,3.12,0,0,0-1.55.77,3.21,3.21,0,0,0-.89,1.42,2.54,2.54,0,0,0-.1,1.13,1.48,1.48,0,0,0,.59.95,1.87,1.87,0,0,0,.88.34.46.46,0,0,0,.26,0Z" transform="translate(-554.83 -272.37)"/><path d="M744.56,387.69l-.1.14a2.61,2.61,0,0,1-1.14.88,1.78,1.78,0,0,1-1.16.05,1.29,1.29,0,0,1-.72-.6,2.27,2.27,0,0,1-.26-1,5.16,5.16,0,0,1,.57-2.53,5.26,5.26,0,0,1,.57-.9l.11-.12a.26.26,0,0,1,.39.06.18.18,0,0,1,0,.24c-.06.1-.13.19-.2.29a5.73,5.73,0,0,0-.61.93,3.28,3.28,0,0,0-.38,1.33,1.54,1.54,0,0,0,.22.89,1.05,1.05,0,0,0,1.18.52,2,2,0,0,0,1-.54l.32-.32a.25.25,0,0,0,.07-.19,3.17,3.17,0,0,1,.1-.92,2.41,2.41,0,0,1,.16-.42.44.44,0,0,1,.35-.24.31.31,0,0,1,.35.31,1.33,1.33,0,0,1-.07.45,4.2,4.2,0,0,1-.33.92.16.16,0,0,0,0,.15,1.29,1.29,0,0,0,1.44.8,1.59,1.59,0,0,0,.87-.45,3.06,3.06,0,0,0,1-1.84,1,1,0,0,0-.27-.88l-.2-.22a.46.46,0,0,1-.06-.65,1,1,0,0,1,.19-.21.54.54,0,0,1,.77.09,1,1,0,0,1,.19.72,7.47,7.47,0,0,1-.63,2.55,4.21,4.21,0,0,1-.67,1.09,2.06,2.06,0,0,1-1.14.73,1.56,1.56,0,0,1-1.38-.3,1.46,1.46,0,0,1-.45-.62Z" transform="translate(-554.83 -272.37)"/><path d="M766.15,385.45v-3.68a.68.68,0,0,1,0-.2.25.25,0,0,1,.25-.2c.16,0,.25.05.29.19a.93.93,0,0,1,0,.23c0,1.16,0,2.33,0,3.49v.16h3.65a.93.93,0,0,1,.24,0,.26.26,0,0,1,.2.27.25.25,0,0,1-.18.26l-.24,0c-1.17,0-2.33,0-3.5,0h-.17v.16c0,1.17,0,2.34,0,3.52a.71.71,0,0,1,0,.21.26.26,0,0,1-.3.19.24.24,0,0,1-.24-.2.62.62,0,0,1,0-.19V386H766c-1.17,0-2.34,0-3.52,0l-.24,0c-.13,0-.17-.12-.17-.28a.23.23,0,0,1,.18-.24,1,1,0,0,1,.25,0h3.67Z" transform="translate(-554.83 -272.37)"/><path d="M730.07,390.73a1.24,1.24,0,0,0,.81,0,1.78,1.78,0,0,0,.88-.81,3.08,3.08,0,0,0,.31-.88c.27-1,.53-2.11.8-3.16.1-.4.2-.8.29-1.2a1.18,1.18,0,0,0,0-.56.34.34,0,0,0-.35-.28,1.1,1.1,0,0,0-.64.2,1.87,1.87,0,0,0-.51.46,3,3,0,0,0-.46.74l-.05.11a.23.23,0,0,1-.34.09.14.14,0,0,1-.06-.18c.07-.15.13-.3.21-.44a3,3,0,0,1,.87-1,1.63,1.63,0,0,1,1.45-.27,1.12,1.12,0,0,1,.77.7,1.06,1.06,0,0,1,0,.66c-.2.82-.41,1.63-.62,2.45-.16.62-.31,1.24-.47,1.85a2.41,2.41,0,0,1-1.55,1.75,2.69,2.69,0,0,1-1.12.18,1.61,1.61,0,0,1-.67-.19.65.65,0,0,1-.19-1,.66.66,0,0,1,.67-.25.42.42,0,0,1,.33.47.68.68,0,0,1-.28.5Z" transform="translate(-554.83 -272.37)"/><path d="M758.09,384h-1.36a.16.16,0,0,1-.13-.15.22.22,0,0,1,.21-.26l.2,0h1.19l.09-.33.36-1.45a.81.81,0,0,1,.23-.4.54.54,0,0,1,.56-.06.36.36,0,0,1,.18.41c-.15.57-.29,1.14-.43,1.71a1,1,0,0,0,0,.12h1.11l.22,0c.11,0,.15.06.15.17s0,.22-.21.25h-1.38l-.09.36c-.26,1-.51,2-.76,3a2.15,2.15,0,0,0-.08.62.6.6,0,0,0,.11.34.4.4,0,0,0,.42.13,1.28,1.28,0,0,0,.65-.29,2.73,2.73,0,0,0,.68-.83l.19-.38a.24.24,0,0,1,.33-.1.15.15,0,0,1,.06.19,2.59,2.59,0,0,1-.17.38,3.26,3.26,0,0,1-.59.79,2,2,0,0,1-1,.56,1.44,1.44,0,0,1-1-.16,1,1,0,0,1-.54-1,2.05,2.05,0,0,1,.1-.55c.25-1,.5-2,.76-3A.18.18,0,0,1,758.09,384Z" transform="translate(-554.83 -272.37)"/><path d="M754.47,387.63a5.16,5.16,0,0,1-.19,1.41,2.26,2.26,0,0,1-.5.91,1.82,1.82,0,0,1-1.06.55,2.72,2.72,0,0,1-1.1,0,1.84,1.84,0,0,1-1.3-1.12,3.23,3.23,0,0,1-.28-1.3c0-.2,0-.4,0-.6a4.17,4.17,0,0,1,.27-1.48,1.94,1.94,0,0,1,.8-1,2,2,0,0,1,.93-.27,2.69,2.69,0,0,1,.85.06,1.86,1.86,0,0,1,1.28,1.11,3,3,0,0,1,.26,1C754.44,387.15,754.45,387.39,754.47,387.63Zm-.87-.06h0c0-.31,0-.62,0-.92s0-.43-.08-.64a1.15,1.15,0,0,0-.78-.93,1.32,1.32,0,0,0-.59-.07,1.19,1.19,0,0,0-1.14.92,5.35,5.35,0,0,0-.11,1.05c0,.49,0,1,0,1.48a3.06,3.06,0,0,0,.13.9,1.13,1.13,0,0,0,.75.82,1.45,1.45,0,0,0,.92,0,1.19,1.19,0,0,0,.63-.52,1.54,1.54,0,0,0,.17-.51,7,7,0,0,0,.1-1.12Z" transform="translate(-554.83 -272.37)"/><path d="M736.8,385.73a8.23,8.23,0,0,1,.58-3,6.4,6.4,0,0,1,1.21-1.94,6.56,6.56,0,0,1,1-.9.22.22,0,0,1,.22,0,.14.14,0,0,1,.07.23l-.18.17a6,6,0,0,0-1.07,1.33,6.79,6.79,0,0,0-.72,1.77,7.68,7.68,0,0,0-.22,1.24c0,.26,0,.52-.05.77s0,.44,0,.65a10.14,10.14,0,0,0,.2,1.82,7.29,7.29,0,0,0,.62,1.77,5.72,5.72,0,0,0,1,1.37l.42.42,0,.05a.14.14,0,0,1-.07.23.21.21,0,0,1-.2,0,6.34,6.34,0,0,1-1.54-1.56,7.09,7.09,0,0,1-1.07-2.51,7.52,7.52,0,0,1-.17-1.25Z" transform="translate(-554.83 -272.37)"/><path d="M783.78,385.74a8.06,8.06,0,0,1-.68,3.25,6.4,6.4,0,0,1-1.08,1.69,5.19,5.19,0,0,1-1,.89l-.14.08a.16.16,0,0,1-.2,0,.15.15,0,0,1,0-.19l.23-.22a5.92,5.92,0,0,0,1.56-2.52,7.77,7.77,0,0,0,.38-1.77c0-.24,0-.47.05-.71s0-.45,0-.68a10.09,10.09,0,0,0-.23-2,7.18,7.18,0,0,0-.63-1.73,6.31,6.31,0,0,0-.82-1.17l-.47-.48-.08-.09c-.05-.08-.06-.16,0-.21a.23.23,0,0,1,.23,0l.38.28a6.64,6.64,0,0,1,1.56,1.9,7.72,7.72,0,0,1,.87,3.14Z" transform="translate(-554.83 -272.37)"/><path d="M733.39,381.49a.7.7,0,0,1,.36-.56.66.66,0,0,1,.44-.07.46.46,0,0,1,.34.53.7.7,0,0,1-.62.57A.46.46,0,0,1,733.39,381.49Z" transform="translate(-554.83 -272.37)"/><path class="cls-8" d="M723.72,391.59l.06-.23a4.29,4.29,0,0,1,.74-1.48,2.79,2.79,0,0,1,1.69-1.07,1.5,1.5,0,0,1,1,.09,1,1,0,0,1,.61.81,1.28,1.28,0,0,1-.46,1.17,2.53,2.53,0,0,1-1.07.51,5,5,0,0,1-1.22.18l-1.22,0Z" transform="translate(-554.83 -272.37)"/><path class="cls-8" d="M717.08,385.89c0,.15,0,.27,0,.4,0,.47.09.94.13,1.41s.11,1.12.17,1.68.09.94.14,1.41l.06.64h-3.85C713.8,391.32,716.87,386.18,717.08,385.89Z" transform="translate(-554.83 -272.37)"/><path class="cls-8" d="M775.54,388.49l1.18-4.68a2.4,2.4,0,0,1,.28,0,1.9,1.9,0,0,1,.91.36,1.46,1.46,0,0,1,.56,1A2.77,2.77,0,0,1,778,387a3.15,3.15,0,0,1-2.2,1.49l-.23,0Z" transform="translate(-554.83 -272.37)"/><path class="cls-8" d="M776.29,383.8l-1.18,4.69a.46.46,0,0,1-.26,0,1.87,1.87,0,0,1-.88-.34,1.48,1.48,0,0,1-.59-.95,2.54,2.54,0,0,1,.1-1.13,3.21,3.21,0,0,1,.89-1.42,3.12,3.12,0,0,1,1.55-.77Z" transform="translate(-554.83 -272.37)"/><path class="cls-8" d="M753.6,387.57V388a7,7,0,0,1-.1,1.12,1.54,1.54,0,0,1-.17.51,1.19,1.19,0,0,1-.63.52,1.45,1.45,0,0,1-.92,0,1.13,1.13,0,0,1-.75-.82,3.06,3.06,0,0,1-.13-.9c0-.49,0-1,0-1.48a5.35,5.35,0,0,1,.11-1.05,1.19,1.19,0,0,1,1.14-.92,1.32,1.32,0,0,1,.59.07,1.15,1.15,0,0,1,.78.93c0,.21.06.42.08.64s0,.61,0,.92Z" transform="translate(-554.83 -272.37)"/><path class="cls-1" d="M704.1,350.55A24.5,24.5,0,0,1,721.5,374" transform="translate(-554.83 -272.37)"/><polygon points="149.82 83.52 142.17 77.13 151.53 73.69 149.82 83.52"/><path class="cls-8" d="M733.33,358.41H718V347h19v11.4h-3.38l0,0a3,3,0,0,0,.43,0,2.36,2.36,0,0,0,.82-.29,2.48,2.48,0,0,0,.71-.58,3.42,3.42,0,0,0,.45-.73,5.13,5.13,0,0,0,.27-.78,5,5,0,0,0,.15-.86c0-.26,0-.52,0-.79a2.43,2.43,0,0,0,0-.27c0-.35,0-.7,0-1.05a4.62,4.62,0,0,0-.07-.65,5.93,5.93,0,0,0-.16-.73,4.16,4.16,0,0,0-.4-.95,2.77,2.77,0,0,0-.61-.71,2.93,2.93,0,0,0-.69-.39,2.71,2.71,0,0,0-.84-.2h-.46a3.45,3.45,0,0,0-.55.07,2.36,2.36,0,0,0-1.15.57,3.14,3.14,0,0,0-.49.6,4,4,0,0,0-.5,1.21,6.15,6.15,0,0,0-.17,1,5,5,0,0,0,0,.67c0,.29,0,.58,0,.88s0,.51.05.77.06.41.1.62A4.27,4.27,0,0,0,731,357a3.37,3.37,0,0,0,.38.55,2.33,2.33,0,0,0,.91.66,2.78,2.78,0,0,0,1,.21ZM723,353.66l0,0a5.15,5.15,0,0,0,.16.56,2,2,0,0,0,.48.77,1.84,1.84,0,0,0,.63.44,2,2,0,0,0,.83.16,2.69,2.69,0,0,0,.4,0,2.18,2.18,0,0,0,.67-.21,3.27,3.27,0,0,0,1.19-1,7.89,7.89,0,0,0,.63-1,6.62,6.62,0,0,0,.47-1.1c.16-.5.32-1,.46-1.51.08-.3.15-.61.21-.91s.1-.54.14-.81,0-.29,0-.44a4.51,4.51,0,0,0,0-.52,1.43,1.43,0,0,0-.21-.7.63.63,0,0,0-.73-.32,1.15,1.15,0,0,0-.63.4.7.7,0,0,0-.18.41.72.72,0,0,0,.23.59c.1.11.22.21.3.32a2,2,0,0,1,.41,1.19,2.37,2.37,0,0,1,0,.46,3,3,0,0,1-.15.72,5.91,5.91,0,0,1-.58,1.34,4.48,4.48,0,0,1-.61.82,4.79,4.79,0,0,1-.52.49,1.85,1.85,0,0,1-1,.42,1.87,1.87,0,0,1-.81-.08,1.57,1.57,0,0,1-.82-.59,2.39,2.39,0,0,1-.37-.87c0-.06,0-.12,0-.16.08-.22.17-.43.24-.65s.19-.56.27-.85a2.66,2.66,0,0,0,.12-.79.34.34,0,0,0-.19-.31.53.53,0,0,0-.61.19,1.74,1.74,0,0,0-.24.62c-.07.3-.13.61-.18.92s-.05.47-.07.71a.41.41,0,0,1,0,.21c-.16.19-.31.39-.47.59a3.83,3.83,0,0,1-.73.66,2.36,2.36,0,0,1-1,.38,2.16,2.16,0,0,1-.67,0,1.35,1.35,0,0,1-.82-.45,1.73,1.73,0,0,1-.4-.77,4.86,4.86,0,0,1-.1-.55,3.54,3.54,0,0,1,0-.46.42.42,0,0,1,0-.16c0-.12,0-.24,0-.35s.09-.46.15-.69a6,6,0,0,1,.56-1.4,10.44,10.44,0,0,1,.76-1.23l.36-.52a.27.27,0,0,0,.05-.23.35.35,0,0,0-.4-.28.47.47,0,0,0-.33.23,8.63,8.63,0,0,0-1,1.84,10.43,10.43,0,0,0-.49,1.46c-.06.25-.12.5-.17.75s-.07.46-.1.69,0,.45,0,.68,0,.26,0,.38l0,.36a3.4,3.4,0,0,0,.16.77,2.27,2.27,0,0,0,.44.77,1.55,1.55,0,0,0,.8.48,2.87,2.87,0,0,0,.58.07,2.8,2.8,0,0,0,.4,0,2.31,2.31,0,0,0,.72-.22,3.55,3.55,0,0,0,1.16-.91l.23-.27C722.72,354,722.85,353.84,723,353.66Z" transform="translate(-554.83 -272.37)"/><path d="M733.33,358.41h-.06a2.78,2.78,0,0,1-1-.21,2.33,2.33,0,0,1-.91-.66A3.37,3.37,0,0,1,731,357a4.27,4.27,0,0,1-.44-1.19c0-.21-.07-.41-.1-.62s0-.51-.05-.77,0-.59,0-.88a5,5,0,0,1,0-.67,6.15,6.15,0,0,1,.17-1,4,4,0,0,1,.5-1.21,3.14,3.14,0,0,1,.49-.6,2.36,2.36,0,0,1,1.15-.57,3.45,3.45,0,0,1,.55-.07h.46a2.71,2.71,0,0,1,.84.2,2.93,2.93,0,0,1,.69.39,2.77,2.77,0,0,1,.61.71,4.16,4.16,0,0,1,.4.95,5.93,5.93,0,0,1,.16.73,4.62,4.62,0,0,1,.07.65c0,.35,0,.7,0,1.05a2.43,2.43,0,0,1,0,.27c0,.27,0,.53,0,.79a5,5,0,0,1-.15.86,5.13,5.13,0,0,1-.27.78,3.42,3.42,0,0,1-.45.73,2.48,2.48,0,0,1-.71.58,2.36,2.36,0,0,1-.82.29,3,3,0,0,1-.43,0l0,0Zm2-5.92h0a1.49,1.49,0,0,1,0-.21c0-.17,0-.35-.05-.52s-.06-.44-.1-.66a1.75,1.75,0,0,0-.42-.81,1.5,1.5,0,0,0-.54-.39,1.79,1.79,0,0,0-1.62.08,1.65,1.65,0,0,0-.71.87,4.16,4.16,0,0,0-.21,1c0,.2,0,.41,0,.61s0,.36,0,.53c0,.52,0,1,0,1.55,0,.22,0,.44,0,.65s0,.21,0,.32,0,.12,0,.18.05.39.08.58a2.29,2.29,0,0,0,.21.72,1.77,1.77,0,0,0,.53.65,1.6,1.6,0,0,0,.94.33,1.77,1.77,0,0,0,.32,0,1.56,1.56,0,0,0,.59-.22,1.66,1.66,0,0,0,.64-.7,2.58,2.58,0,0,0,.25-.86c0-.25.07-.5.09-.76s0-.45,0-.68C735.35,354,735.34,353.25,735.34,352.49Z" transform="translate(-554.83 -272.37)"/><path d="M723,353.66c-.12.18-.25.35-.37.52l-.23.27a3.55,3.55,0,0,1-1.16.91,2.31,2.31,0,0,1-.72.22,2.8,2.8,0,0,1-.4,0,2.87,2.87,0,0,1-.58-.07,1.55,1.55,0,0,1-.8-.48,2.27,2.27,0,0,1-.44-.77,3.4,3.4,0,0,1-.16-.77l0-.36c0-.12,0-.25,0-.38s0-.46,0-.68.06-.46.1-.69.11-.5.17-.75a10.43,10.43,0,0,1,.49-1.46,8.63,8.63,0,0,1,1-1.84.47.47,0,0,1,.33-.23.35.35,0,0,1,.4.28.27.27,0,0,1-.05.23l-.36.52a10.44,10.44,0,0,0-.76,1.23,6,6,0,0,0-.56,1.4q-.09.34-.15.69c0,.11,0,.23,0,.35a.42.42,0,0,0,0,.16,3.54,3.54,0,0,0,0,.46,4.86,4.86,0,0,0,.1.55,1.73,1.73,0,0,0,.4.77,1.35,1.35,0,0,0,.82.45,2.16,2.16,0,0,0,.67,0,2.36,2.36,0,0,0,1-.38,3.83,3.83,0,0,0,.73-.66c.16-.2.31-.4.47-.59a.41.41,0,0,0,0-.21c0-.24,0-.47.07-.71s.11-.62.18-.92a1.74,1.74,0,0,1,.24-.62.53.53,0,0,1,.61-.19.34.34,0,0,1,.19.31,2.66,2.66,0,0,1-.12.79c-.08.29-.17.57-.27.85s-.16.43-.24.65c0,0,0,.1,0,.16a2.39,2.39,0,0,0,.37.87,1.57,1.57,0,0,0,.82.59,1.87,1.87,0,0,0,.81.08,1.85,1.85,0,0,0,1-.42,4.79,4.79,0,0,0,.52-.49,4.48,4.48,0,0,0,.61-.82,5.91,5.91,0,0,0,.58-1.34,3,3,0,0,0,.15-.72,2.37,2.37,0,0,0,0-.46,2,2,0,0,0-.41-1.19c-.08-.11-.2-.21-.3-.32a.72.72,0,0,1-.23-.59.7.7,0,0,1,.18-.41,1.15,1.15,0,0,1,.63-.4.63.63,0,0,1,.73.32,1.43,1.43,0,0,1,.21.7,4.51,4.51,0,0,1,0,.52c0,.15,0,.3,0,.44s-.09.54-.14.81-.13.61-.21.91c-.14.5-.3,1-.46,1.51a6.62,6.62,0,0,1-.47,1.1,7.89,7.89,0,0,1-.63,1,3.27,3.27,0,0,1-1.19,1,2.18,2.18,0,0,1-.67.21,2.69,2.69,0,0,1-.4,0,2,2,0,0,1-.83-.16,1.84,1.84,0,0,1-.63-.44,2,2,0,0,1-.48-.77,5.15,5.15,0,0,1-.16-.56Z" transform="translate(-554.83 -272.37)"/><path class="cls-8" d="M735.34,352.49c0,.76,0,1.53,0,2.29,0,.23,0,.46,0,.68s-.05.51-.09.76a2.58,2.58,0,0,1-.25.86,1.66,1.66,0,0,1-.64.7,1.56,1.56,0,0,1-.59.22,1.77,1.77,0,0,1-.32,0,1.6,1.6,0,0,1-.94-.33A1.77,1.77,0,0,1,732,357a2.29,2.29,0,0,1-.21-.72c0-.19-.06-.39-.08-.58s0-.12,0-.18,0-.21,0-.32,0-.43,0-.65c0-.51,0-1,0-1.55,0-.17,0-.35,0-.53s0-.41,0-.61a4.16,4.16,0,0,1,.21-1,1.65,1.65,0,0,1,.71-.87,1.79,1.79,0,0,1,1.62-.08,1.5,1.5,0,0,1,.54.39,1.75,1.75,0,0,1,.42.81c0,.22.08.44.1.66s0,.35.05.52a1.49,1.49,0,0,0,0,.21Z" transform="translate(-554.83 -272.37)"/></svg>