<svg id="Layer_1" data-name="Layer 1" xmlns="http://www.w3.org/2000/svg" viewBox="0 0 604 75.6"><defs><style>.cls-1{fill:none;stroke-width:2px;}.cls-1,.cls-5{stroke:#000;stroke-miterlimit:10;}.cls-2{font-size:21px;font-family:TimesNewRomanPSMT, Times New Roman;}.cls-3{fill:#fff;}.cls-4{letter-spacing:-0.04em;}.cls-5{stroke-width:0.75px;}</style></defs><title>real_line</title><line class="cls-1" y1="43.66" x2="589.65" y2="43.66"/><polygon points="586.73 53.64 604 43.66 586.73 33.69 586.73 53.64"/><line class="cls-1" x1="171.21" y1="36.16" x2="171.21" y2="52.16"/><line class="cls-1" x1="482.64" y1="36.16" x2="482.64" y2="52.16"/><line class="cls-1" x1="404.79" y1="36.16" x2="404.79" y2="52.16"/><line class="cls-1" x1="326.93" y1="36.16" x2="326.93" y2="52.16"/><line class="cls-1" x1="249.07" y1="36.16" x2="249.07" y2="52.16"/><line class="cls-1" x1="93.36" y1="36.16" x2="93.36" y2="52.16"/><line class="cls-1" x1="560.5" y1="36.16" x2="560.5" y2="52.16"/><line class="cls-1" x1="15.5" y1="35.16" x2="15.5" y2="51.16"/><text class="cls-2" transform="translate(243.17 69.16)">0</text><text class="cls-2" transform="translate(321.17 69.16)">1</text><text class="cls-2" transform="translate(400.17 69.16)">2</text><text class="cls-2" transform="translate(478.17 69.16)">3</text><text class="cls-2" transform="translate(554.17 69.16)">4</text><text class="cls-2" transform="translate(163.17 69.16)">-1</text><text class="cls-2" transform="translate(86.17 69.16)">-2</text><text class="cls-2" transform="translate(7.17 69.16)">-3</text><text class="cls-2" transform="translate(274.83 32.5)">1/2</text><line class="cls-1" x1="288.5" y1="36.16" x2="288.5" y2="44.16"/><line class="cls-1" x1="355.5" y1="36.16" x2="355.5" y2="44.16"/><path class="cls-3" d="M745.1,319.32H738V293h31.6v26.3H745.4l.18-.06a.7.7,0,0,0,.24-.3c.16-.31.31-.62.46-.93s.37-.76.56-1.15.37-.75.56-1.13.38-.76.56-1.14l.56-1.13c.19-.38.38-.76.56-1.14s.37-.76.56-1.13l.56-1.14.56-1.14.56-1.14c.19-.37.37-.75.56-1.13l.56-1.14c.19-.37.37-.75.56-1.13l.57-1.15c.18-.37.36-.75.55-1.12l.57-1.15c.18-.37.36-.75.55-1.12l.57-1.15c.18-.38.36-.75.55-1.13l.46-.93a.16.16,0,0,1,.16-.1h11.74V295.4H756.46v.06c0,.08,0,.12-.09.14a.36.36,0,0,0-.14.1c-.09.13-.18.27-.26.41s-.19.39-.29.59l-.51,1.06-.52,1-.52,1.06-.51,1-.5,1c-.18.36-.35.72-.53,1.07l-.51,1-.52,1.06-.51,1-.51,1-.52,1.07-.51,1-.51,1c-.17.36-.35.72-.52,1.07l-.51,1c-.17.36-.35.72-.53,1.08l-.5,1-.54,1.1-.45.9-.15.31c-.13-.28-.25-.55-.38-.82l-.25-.54c-.21-.46-.43-.93-.64-1.4s-.41-.89-.62-1.33l-.39-.84c-.2-.43-.4-.86-.59-1.29-.13-.27-.25-.53-.37-.8l-.66-1.44-.21-.46c-.09-.18-.17-.36-.28-.54a.25.25,0,0,0-.34-.13.72.72,0,0,0-.23.12c-.19.13-.38.28-.57.42l-1.12.82-.86.65a.33.33,0,0,0-.15.3.23.23,0,0,0,.34.2,6.41,6.41,0,0,0,.87-.6l.62-.45,0,0c.16.36.33.73.5,1.09l.63,1.36.42.88c.2.44.4.88.61,1.32.1.23.21.45.31.68.2.42.4.85.59,1.28.11.24.23.47.34.71.24.51.47,1,.71,1.52l.69,1.5A.46.46,0,0,0,745.1,319.32Zm12.6-1.86h9l.68-4.13h-.58s0,0-.06.06a2.51,2.51,0,0,1,0,.27c-.05.29-.11.57-.17.86a3.55,3.55,0,0,1-.26.84.27.27,0,0,1-.17.13l-.31.05a8.5,8.5,0,0,1-.87.07H759.6l.35-.32.56-.53.53-.51.69-.66.41-.38c.2-.19.41-.36.62-.55l.79-.69.75-.67.65-.6.52-.53.78-.87a5.56,5.56,0,0,0,.61-.91,4.2,4.2,0,0,0,.37-.93,3.93,3.93,0,0,0,.15-1c0-.22,0-.44,0-.66s-.05-.44-.09-.65a4.34,4.34,0,0,0-.44-1.15,4.29,4.29,0,0,0-.63-.84,3.64,3.64,0,0,0-.46-.42,7.78,7.78,0,0,0-.7-.47,4.63,4.63,0,0,0-1.4-.52,9.44,9.44,0,0,0-1-.14,4.74,4.74,0,0,0-1.3.08,4.22,4.22,0,0,0-1,.31,3.58,3.58,0,0,0-1,.6,7.82,7.82,0,0,0-.71.7,4,4,0,0,0-.59,1,4.23,4.23,0,0,0-.34,1.4,3.12,3.12,0,0,0,0,.61,1.08,1.08,0,0,0,.63.82,1.37,1.37,0,0,0,.87.11,1.21,1.21,0,0,0,.89-.64,1.26,1.26,0,0,0,.11-.79,1.15,1.15,0,0,0-.67-.92,1.77,1.77,0,0,0-.92-.12c.12-.23.21-.46.34-.67a3.55,3.55,0,0,1,.86-1,3.28,3.28,0,0,1,1.07-.58,3.08,3.08,0,0,1,1.21-.14,3.26,3.26,0,0,1,.92.18,2.83,2.83,0,0,1,.85.51,3.26,3.26,0,0,1,.86,1.16,4.74,4.74,0,0,1,.39,1.64,7.48,7.48,0,0,1,0,.95,4,4,0,0,1-.24,1.06,6.49,6.49,0,0,1-.65,1.42c-.24.38-.48.77-.75,1.14s-.65.79-1,1.18-.42.46-.63.7-.31.34-.47.5l-.82.9-.45.5-.8.87c-.21.23-.42.45-.62.68l-.8.85a.54.54,0,0,0-.17.3C757.71,317.11,757.71,317.28,757.7,317.46Z" transform="translate(-398.5 -284.84)"/><path d="M745.1,319.32a.46.46,0,0,1-.3-.28l-.69-1.5c-.24-.5-.47-1-.71-1.52-.11-.24-.23-.47-.34-.71-.19-.43-.39-.86-.59-1.28-.1-.23-.21-.45-.31-.68-.21-.44-.41-.88-.61-1.32l-.42-.88-.63-1.36c-.17-.36-.34-.73-.5-1.09l0,0-.62.45a6.41,6.41,0,0,1-.87.6.23.23,0,0,1-.34-.2.33.33,0,0,1,.15-.3l.86-.65,1.12-.82c.19-.14.38-.29.57-.42a.72.72,0,0,1,.23-.12.25.25,0,0,1,.34.13c.11.18.19.36.28.54l.21.46.66,1.44c.12.27.24.53.37.8.19.43.39.86.59,1.29l.39.84c.21.44.41.89.62,1.33s.43.94.64,1.4l.25.54c.13.27.25.54.38.82l.15-.31.45-.9.54-1.1.5-1c.18-.36.36-.72.53-1.08l.51-1c.17-.35.35-.71.52-1.07l.51-1,.51-1,.52-1.07.51-1,.51-1,.52-1.06.51-1c.18-.35.35-.71.53-1.07l.5-1,.51-1,.52-1.06.52-1,.51-1.06c.1-.2.19-.4.29-.59s.17-.28.26-.41a.36.36,0,0,1,.14-.1c.07,0,.11-.06.09-.14v-.06h12.26v1.15H757a.16.16,0,0,0-.16.1l-.46.93c-.19.38-.37.75-.55,1.13l-.57,1.15c-.19.37-.37.75-.55,1.12l-.57,1.15c-.19.37-.37.75-.55,1.12l-.57,1.15c-.19.38-.37.76-.56,1.13l-.56,1.14c-.19.38-.37.76-.56,1.13l-.56,1.14-.56,1.14-.56,1.14c-.19.37-.37.75-.56,1.13s-.37.76-.56,1.14l-.56,1.13c-.18.38-.37.76-.56,1.14s-.37.76-.56,1.13-.37.77-.56,1.15-.3.62-.46.93a.7.7,0,0,1-.24.3l-.18.06Z" transform="translate(-398.5 -284.84)"/><path d="M757.7,317.46c0-.18,0-.35,0-.52a.54.54,0,0,1,.17-.3l.8-.85c.2-.23.41-.45.62-.68l.8-.87.45-.5.82-.9c.16-.16.31-.33.47-.5s.43-.46.63-.7.68-.77,1-1.18.51-.76.75-1.14a6.49,6.49,0,0,0,.65-1.42,4,4,0,0,0,.24-1.06,7.48,7.48,0,0,0,0-.95,4.74,4.74,0,0,0-.39-1.64,3.26,3.26,0,0,0-.86-1.16,2.83,2.83,0,0,0-.85-.51,3.26,3.26,0,0,0-.92-.18,3.08,3.08,0,0,0-1.21.14,3.28,3.28,0,0,0-1.07.58,3.55,3.55,0,0,0-.86,1c-.13.21-.22.44-.34.67a1.77,1.77,0,0,1,.92.12,1.15,1.15,0,0,1,.67.92,1.26,1.26,0,0,1-.11.79,1.21,1.21,0,0,1-.89.64,1.37,1.37,0,0,1-.87-.11,1.08,1.08,0,0,1-.63-.82,3.12,3.12,0,0,1,0-.61,4.23,4.23,0,0,1,.34-1.4,4,4,0,0,1,.59-1,7.82,7.82,0,0,1,.71-.7,3.58,3.58,0,0,1,1-.6,4.22,4.22,0,0,1,1-.31,4.74,4.74,0,0,1,1.3-.08,9.44,9.44,0,0,1,1,.14,4.63,4.63,0,0,1,1.4.52,7.78,7.78,0,0,1,.7.47,3.64,3.64,0,0,1,.46.42,4.29,4.29,0,0,1,.63.84,4.34,4.34,0,0,1,.44,1.15c0,.21.07.43.09.65s0,.44,0,.66a3.93,3.93,0,0,1-.15,1,4.2,4.2,0,0,1-.37.93,5.56,5.56,0,0,1-.61.91l-.78.87-.52.53-.65.6-.75.67-.79.69c-.21.19-.42.36-.62.55l-.41.38-.69.66-.53.51-.56.53-.35.32h5.33a8.5,8.5,0,0,0,.87-.07l.31-.05a.27.27,0,0,0,.17-.13,3.55,3.55,0,0,0,.26-.84c.06-.29.12-.57.17-.86a2.51,2.51,0,0,0,0-.27s0-.06.06-.06h.58l-.68,4.13Z" transform="translate(-398.5 -284.84)"/><text class="cls-2" transform="translate(399.83 31.5)"><tspan class="cls-4">1</tspan><tspan x="9.72" y="0">1/5</tspan></text><line class="cls-1" x1="418.5" y1="36.16" x2="418.5" y2="44.16"/><line class="cls-1" x1="491.5" y1="36.16" x2="491.5" y2="44.16"/><text class="cls-2" transform="translate(486.82 31.06)">π</text><path class="cls-5" d="M991.24,299c.16.24.3.48.46.71.71,1.07,1.42,2.15,2.15,3.2.62.9,1.27,1.78,1.92,2.65.49.67,1,1.33,1.52,1.95s1,1.07,1.49,1.58a4.15,4.15,0,0,0,1.22.84,3.56,3.56,0,0,0,.52.18.68.68,0,0,1,.42.94.6.6,0,0,1-.5.34,1.58,1.58,0,0,1-.38,0H993.7a.74.74,0,0,1-.67-.34c-.17-.27-.36-.52-.53-.78-.54-.82-1.07-1.65-1.6-2.47l-1-1.45-2.08-3.12-1.41-2.13c-.36-.56-.73-1.12-1.1-1.67a.09.09,0,0,0-.08-.05h-1.33v9.21a1.46,1.46,0,0,0,.28,1,.81.81,0,0,0,.37.27,3.32,3.32,0,0,0,.76.16c.38,0,.76,0,1.14,0a1.82,1.82,0,0,1,.52.08.61.61,0,0,1,.41.72c-.07.44-.41.55-.8.55H974.86a1.7,1.7,0,0,1-.5-.09.56.56,0,0,1-.36-.51.58.58,0,0,1,.3-.61.87.87,0,0,1,.38-.11c.36,0,.71,0,1.06,0a8,8,0,0,0,.84-.11,1,1,0,0,0,.85-1,8.41,8.41,0,0,0,.06-1.12q0-9.84,0-19.68a3.84,3.84,0,0,0-.14-.88.89.89,0,0,0-.72-.66,7.14,7.14,0,0,0-1.6-.11,1.58,1.58,0,0,1-.71-.14.61.61,0,0,1-.31-.69.56.56,0,0,1,.44-.47,2.73,2.73,0,0,1,.5-.06h13.42c.44,0,.88.06,1.32.1a12.39,12.39,0,0,1,2.28.42c.54.16,1.07.35,1.59.54a8.29,8.29,0,0,1,1.67.87,6.41,6.41,0,0,1,1.23,1,5.45,5.45,0,0,1,1.34,2.25,10.12,10.12,0,0,1,.24,1.22,4.17,4.17,0,0,1,.06.71c0,.26,0,.52-.05.78a5.56,5.56,0,0,1-.23,1.27,4.88,4.88,0,0,1-.9,1.79,5.25,5.25,0,0,1-.59.66,6.69,6.69,0,0,1-1.85,1.2,11.14,11.14,0,0,1-2.18.72c-.32.08-.64.13-1,.2Zm-12.63-12.44a7.05,7.05,0,0,1,.18.73,3.84,3.84,0,0,1,.09.75l0,20.8a3.43,3.43,0,0,1-.07.56c0,.22-.11.44-.17.66h4.21a1.67,1.67,0,0,1-.08-.2,5.36,5.36,0,0,1-.22-1.64q0-10.14,0-20.27a2.39,2.39,0,0,1,.26-1.08l.19-.31ZM983.93,298c.5,0,1,0,1.46,0s1.05,0,1.57-.08a7.34,7.34,0,0,0,.82-.09,8.13,8.13,0,0,0,1.43-.37,3,3,0,0,0,1.78-2,9.05,9.05,0,0,0,.31-2c0-.33,0-.66,0-1s0-.79-.06-1.19-.06-.68-.11-1a5.43,5.43,0,0,0-.63-1.92,3.35,3.35,0,0,0-1.34-1.3,5.67,5.67,0,0,0-2.36-.55h-.72a3.28,3.28,0,0,0-1.15.2,1.44,1.44,0,0,0-1,1.43c0,3.23,0,6.47,0,9.7Zm3,1.36.47.72,1.61,2.44,1.56,2.36,1.51,2.28L994,310a.15.15,0,0,0,.16.08h3.62c-.47-.51-.94-1-1.4-1.54-.27-.31-.54-.63-.79-.95s-.73-.94-1.09-1.42c-.57-.78-1.15-1.57-1.7-2.36-.72-1-1.41-2.08-2.1-3.13-.31-.46-.6-.93-.91-1.4a.13.13,0,0,0-.1-.06,1.14,1.14,0,0,0-.26,0l-1.25.11Zm4.59-1.88.52-.1a9.28,9.28,0,0,0,2.23-.8,4.53,4.53,0,0,0,1.64-1.43,4.47,4.47,0,0,0,.76-2.37,5.37,5.37,0,0,0-.08-1.44,4.49,4.49,0,0,0-.6-1.53,4.85,4.85,0,0,0-1-1.13,5.86,5.86,0,0,0-.69-.51,14.4,14.4,0,0,0-1.3-.66,8.9,8.9,0,0,0-1.77-.56,6.37,6.37,0,0,1,.93,1.72,6.87,6.87,0,0,1,.39,1.67c.06.54.13,1.08.14,1.61s0,1.24-.05,1.85a6,6,0,0,1-.06.74c-.09.46-.19.92-.31,1.38A4.8,4.8,0,0,1,991.53,297.52Z" transform="translate(-398.5 -284.84)"/></svg>