<?xml version="1.0" encoding="utf-8"?>
<!-- Generator: Adobe Illustrator 22.1.0, SVG Export Plug-In . SVG Version: 6.00 Build 0)  -->
<svg version="1.1" id="Layer_1" xmlns="http://www.w3.org/2000/svg" xmlns:xlink="http://www.w3.org/1999/xlink" x="0px" y="0px"
	 viewBox="0 0 362.2 303.2" style="enable-background:new 0 0 362.2 303.2;" xml:space="preserve">
<style type="text/css">
	.st0{fill:none;stroke:#DFDFDF;stroke-width:0.4998;stroke-linejoin:round;stroke-miterlimit:10;}
	.st1{fill:none;stroke:#262626;stroke-width:0.4998;stroke-linecap:square;stroke-linejoin:round;stroke-miterlimit:10;}
	.st2{fill:#4A4A49;}
	.st3{fill:#1D1D1B;}
	.st4{fill:none;stroke:#FF0000;stroke-width:3;stroke-linejoin:round;stroke-miterlimit:10;}
	.st5{fill:none;stroke:#000000;stroke-width:3;stroke-linejoin:round;stroke-miterlimit:10;}
</style>
<g>
	<path class="st0" d="M33.8,270.9V14.1 M66.4,270.9V14.1 M99,270.9V14.1 M131.6,270.9V14.1 M164.2,270.9V14.1 M196.7,270.9V14.1
		 M229.3,270.9V14.1 M261.9,270.9V14.1 M294.5,270.9V14.1 M327.1,270.9V14.1 M359.6,270.9V14.1 M359.6,270.9H33.8 M359.6,245.2H33.8
		 M359.6,219.5H33.8 M359.6,193.9H33.8 M359.6,168.2H33.8 M359.6,142.5H33.8 M359.6,116.8H33.8 M359.6,91.1H33.8 M359.6,65.5H33.8
		 M359.6,39.8H33.8 M359.6,14.1H33.8"/>
	<path class="st1" d="M33.8,270.9h325.8 M33.8,14.1h325.8 M33.8,270.9v-3.3 M66.4,270.9v-3.3 M99,270.9v-3.3 M131.6,270.9v-3.3
		 M164.2,270.9v-3.3 M196.7,270.9v-3.3 M229.3,270.9v-3.3 M261.9,270.9v-3.3 M294.5,270.9v-3.3 M327.1,270.9v-3.3 M359.6,270.9v-3.3
		 M33.8,14.1v3.3 M66.4,14.1v3.3 M99,14.1v3.3 M131.6,14.1v3.3 M164.2,14.1v3.3 M196.7,14.1v3.3 M229.3,14.1v3.3 M261.9,14.1v3.3
		 M294.5,14.1v3.3 M327.1,14.1v3.3 M359.6,14.1v3.3"/>
	<g>
		<path class="st2" d="M31.8,284.4c-0.4-0.6-0.6-1.5-0.6-2.7s0.2-2,0.6-2.7c0.4-0.6,1-0.9,1.8-0.9c0.8,0,1.4,0.3,1.8,0.9
			c0.4,0.6,0.6,1.5,0.6,2.7s-0.2,2-0.6,2.7s-1,0.9-1.8,0.9C32.8,285.3,32.3,285,31.8,284.4z M34.7,283.8c0.2-0.5,0.4-1.2,0.4-2.1
			c0-0.9-0.1-1.6-0.4-2.1c-0.2-0.5-0.6-0.7-1.1-0.7c-0.5,0-0.9,0.2-1.1,0.7c-0.2,0.5-0.4,1.2-0.4,2.1c0,0.9,0.1,1.6,0.4,2.1
			s0.6,0.7,1.1,0.7C34.1,284.5,34.5,284.3,34.7,283.8z"/>
		<path class="st2" d="M60.8,284.4c-0.4-0.6-0.6-1.5-0.6-2.7s0.2-2,0.6-2.7c0.4-0.6,1-0.9,1.8-0.9c0.8,0,1.4,0.3,1.8,0.9
			c0.4,0.6,0.6,1.5,0.6,2.7s-0.2,2-0.6,2.7s-1,0.9-1.8,0.9C61.8,285.3,61.2,285,60.8,284.4z M63.7,283.8c0.2-0.5,0.4-1.2,0.4-2.1
			c0-0.9-0.1-1.6-0.4-2.1c-0.2-0.5-0.6-0.7-1.1-0.7c-0.5,0-0.9,0.2-1.1,0.7c-0.2,0.5-0.4,1.2-0.4,2.1c0,0.9,0.1,1.6,0.4,2.1
			s0.6,0.7,1.1,0.7C63.1,284.5,63.4,284.3,63.7,283.8z"/>
	</g>
	<g>
		<path class="st2" d="M65.1,284h1v1.1h-1V284z"/>
		<path class="st2" d="M69.7,280.1H68v-0.7c0.5,0,0.9-0.1,1.2-0.3c0.3-0.2,0.5-0.6,0.7-1h0.7v7h-0.5h-0.5V280.1z"/>
	</g>
	<g>
		<path class="st2" d="M92.8,284.4c-0.4-0.6-0.6-1.5-0.6-2.7s0.2-2,0.6-2.7c0.4-0.6,1-0.9,1.8-0.9c0.8,0,1.4,0.3,1.8,0.9
			c0.4,0.6,0.6,1.5,0.6,2.7s-0.2,2-0.6,2.7s-1,0.9-1.8,0.9C93.8,285.3,93.2,285,92.8,284.4z M95.7,283.8c0.2-0.5,0.4-1.2,0.4-2.1
			c0-0.9-0.1-1.6-0.4-2.1c-0.2-0.5-0.6-0.7-1.1-0.7c-0.5,0-0.9,0.2-1.1,0.7c-0.2,0.5-0.4,1.2-0.4,2.1c0,0.9,0.1,1.6,0.4,2.1
			s0.6,0.7,1.1,0.7C95.1,284.5,95.5,284.3,95.7,283.8z"/>
		<path class="st2" d="M98.2,284h1v1.1h-1V284z"/>
	</g>
	<g>
		<path class="st2" d="M104.4,280.1c0,0.5-0.1,0.9-0.4,1.3c-0.3,0.3-0.8,0.7-1.5,1.1c-0.8,0.4-1.3,0.8-1.6,1.2
			c-0.1,0.2-0.2,0.3-0.3,0.5h3.8v0.9h-4.8v0c0-0.7,0.2-1.3,0.6-1.8c0.4-0.5,1.1-1,2.1-1.5c0.5-0.3,0.8-0.5,1-0.8
			c0.2-0.2,0.3-0.5,0.3-0.9c0-0.4-0.1-0.7-0.4-0.9c-0.3-0.2-0.6-0.4-1-0.4c-0.4,0-0.8,0.1-1,0.4s-0.4,0.7-0.4,1.3h-0.9
			c0-0.8,0.2-1.4,0.6-1.8c0.4-0.4,1-0.7,1.8-0.7c0.7,0,1.2,0.2,1.6,0.6C104.2,279,104.4,279.5,104.4,280.1z"/>
		<path class="st2" d="M125.9,284.4c-0.4-0.6-0.6-1.5-0.6-2.7s0.2-2,0.6-2.7c0.4-0.6,1-0.9,1.8-0.9c0.8,0,1.4,0.3,1.8,0.9
			c0.4,0.6,0.6,1.5,0.6,2.7s-0.2,2-0.6,2.7s-1,0.9-1.8,0.9C127,285.3,126.4,285,125.9,284.4z M128.8,283.8c0.2-0.5,0.4-1.2,0.4-2.1
			c0-0.9-0.1-1.6-0.4-2.1c-0.2-0.5-0.6-0.7-1.1-0.7c-0.5,0-0.9,0.2-1.1,0.7c-0.2,0.5-0.4,1.2-0.4,2.1c0,0.9,0.1,1.6,0.4,2.1
			s0.6,0.7,1.1,0.7C128.2,284.5,128.6,284.3,128.8,283.8z"/>
	</g>
	<g>
		<path class="st2" d="M130.3,284h1v1.1h-1V284z"/>
		<path class="st2" d="M136.2,280c0-0.3-0.1-0.6-0.4-0.8c-0.3-0.2-0.6-0.3-1-0.3c-0.4,0-0.7,0.1-1,0.4c-0.2,0.3-0.3,0.6-0.4,1.1
			h-0.9c0-0.7,0.2-1.3,0.6-1.7c0.4-0.4,0.9-0.6,1.6-0.6c0.7,0,1.2,0.2,1.6,0.5c0.4,0.3,0.6,0.8,0.6,1.3c0,0.5-0.2,1-0.6,1.3
			c-0.1,0.1-0.2,0.1-0.3,0.2c0.2,0.1,0.3,0.2,0.4,0.3c0.4,0.3,0.7,0.8,0.7,1.4c0,0.7-0.2,1.2-0.7,1.6c-0.5,0.4-1,0.6-1.8,0.6
			c-0.8,0-1.4-0.2-1.8-0.6c-0.4-0.4-0.6-1-0.7-1.7h0.9c0.1,0.5,0.2,0.9,0.4,1.2c0.2,0.2,0.6,0.4,1.1,0.4c0.4,0,0.8-0.1,1.1-0.4
			c0.3-0.2,0.4-0.6,0.4-1c0-0.4-0.1-0.7-0.4-1c-0.2-0.2-0.5-0.3-0.9-0.4c-0.2,0-0.3,0-0.5,0s-0.2,0-0.3,0v-0.8c0.1,0,0.2,0,0.3,0
			s0.3,0,0.4,0c0.3,0,0.5-0.1,0.7-0.3C136.1,280.6,136.2,280.3,136.2,280z"/>
	</g>
	<g>
		<path class="st2" d="M158,284.4c-0.4-0.6-0.6-1.5-0.6-2.7s0.2-2,0.6-2.7c0.4-0.6,1-0.9,1.8-0.9c0.8,0,1.4,0.3,1.8,0.9
			c0.4,0.6,0.6,1.5,0.6,2.7s-0.2,2-0.6,2.7s-1,0.9-1.8,0.9C159,285.3,158.4,285,158,284.4z M160.9,283.8c0.2-0.5,0.4-1.2,0.4-2.1
			c0-0.9-0.1-1.6-0.4-2.1c-0.2-0.5-0.6-0.7-1.1-0.7c-0.5,0-0.9,0.2-1.1,0.7c-0.2,0.5-0.4,1.2-0.4,2.1c0,0.9,0.1,1.6,0.4,2.1
			s0.6,0.7,1.1,0.7C160.2,284.5,160.6,284.3,160.9,283.8z"/>
		<path class="st2" d="M163.4,284h1v1.1h-1V284z"/>
	</g>
	<g>
		<path class="st2" d="M164.7,283.4V283v-0.4l3.3-4.5h0.4h0.4v4.6h1v0.8h-1v1.7h-0.9v-1.7H164.7z M167.8,282.7v-3.2l-2.2,3.1l0,0.1
			H167.8z"/>
		<path class="st2" d="M191.1,284.4c-0.4-0.6-0.6-1.5-0.6-2.7s0.2-2,0.6-2.7c0.4-0.6,1-0.9,1.8-0.9c0.8,0,1.4,0.3,1.8,0.9
			c0.4,0.6,0.6,1.5,0.6,2.7s-0.2,2-0.6,2.7s-1,0.9-1.8,0.9C192.1,285.3,191.5,285,191.1,284.4z M194,283.8c0.2-0.5,0.4-1.2,0.4-2.1
			c0-0.9-0.1-1.6-0.4-2.1c-0.2-0.5-0.6-0.7-1.1-0.7c-0.5,0-0.9,0.2-1.1,0.7c-0.2,0.5-0.4,1.2-0.4,2.1c0,0.9,0.1,1.6,0.4,2.1
			s0.6,0.7,1.1,0.7C193.4,284.5,193.8,284.3,194,283.8z"/>
	</g>
	<g>
		<path class="st2" d="M195.4,284h1v1.1h-1V284z"/>
		<path class="st2" d="M202.5,282.8c0,0.7-0.2,1.3-0.7,1.8c-0.5,0.5-1,0.7-1.7,0.7c-0.7,0-1.3-0.2-1.7-0.5s-0.7-0.8-0.7-1.5h0.9
			c0,0.4,0.2,0.7,0.5,0.9c0.3,0.2,0.6,0.3,1.1,0.3c0.4,0,0.8-0.1,1-0.4c0.3-0.3,0.4-0.7,0.4-1.1c0-0.5-0.1-0.9-0.4-1.2
			s-0.7-0.4-1.1-0.4c-0.3,0-0.5,0.1-0.7,0.2c-0.2,0.1-0.4,0.3-0.5,0.5l-0.7,0l0.5-3.8h3.6v0.9h-3l-0.3,1.9l0,0
			c0.4-0.3,0.8-0.4,1.2-0.4c0.7,0,1.3,0.2,1.8,0.6C202.2,281.6,202.5,282.2,202.5,282.8z"/>
	</g>
	<g>
		<path class="st2" d="M223.1,284.4c-0.4-0.6-0.6-1.5-0.6-2.7s0.2-2,0.6-2.7c0.4-0.6,1-0.9,1.8-0.9c0.8,0,1.4,0.3,1.8,0.9
			c0.4,0.6,0.6,1.5,0.6,2.7s-0.2,2-0.6,2.7s-1,0.9-1.8,0.9C224.1,285.3,223.5,285,223.1,284.4z M226,283.8c0.2-0.5,0.4-1.2,0.4-2.1
			c0-0.9-0.1-1.6-0.4-2.1c-0.2-0.5-0.6-0.7-1.1-0.7c-0.5,0-0.9,0.2-1.1,0.7c-0.2,0.5-0.4,1.2-0.4,2.1c0,0.9,0.1,1.6,0.4,2.1
			s0.6,0.7,1.1,0.7C225.4,284.5,225.8,284.3,226,283.8z"/>
		<path class="st2" d="M228.6,284h1v1.1h-1V284z"/>
		<path class="st2" d="M233.4,278.1c0.6,0,1.1,0.2,1.5,0.5c0.4,0.3,0.6,0.8,0.6,1.4h-0.9c0-0.3-0.2-0.6-0.4-0.8s-0.5-0.3-0.8-0.3
			c-0.5,0-1,0.3-1.3,0.8c-0.3,0.4-0.4,1.1-0.4,1.8c0.4-0.6,1-0.8,1.7-0.8c0.7,0,1.2,0.2,1.6,0.6c0.4,0.4,0.6,1,0.6,1.7
			s-0.2,1.3-0.7,1.7c-0.4,0.4-1,0.6-1.7,0.6c-0.8,0-1.4-0.3-1.8-0.9c-0.4-0.6-0.6-1.4-0.6-2.5c0-1.2,0.2-2.2,0.7-2.8
			C232,278.4,232.6,278.1,233.4,278.1z M231.9,283c0,0.5,0.1,0.8,0.4,1.1c0.3,0.3,0.6,0.4,1,0.4s0.8-0.1,1-0.4
			c0.3-0.3,0.4-0.7,0.4-1.1s-0.1-0.8-0.4-1.1c-0.3-0.3-0.6-0.4-1-0.4s-0.8,0.1-1,0.4C232,282.1,231.9,282.5,231.9,283z"/>
	</g>
	<g>
		<path class="st2" d="M255.7,284.4c-0.4-0.6-0.6-1.5-0.6-2.7s0.2-2,0.6-2.7c0.4-0.6,1-0.9,1.8-0.9c0.8,0,1.4,0.3,1.8,0.9
			c0.4,0.6,0.6,1.5,0.6,2.7s-0.2,2-0.6,2.7s-1,0.9-1.8,0.9C256.7,285.3,256.1,285,255.7,284.4z M258.6,283.8
			c0.2-0.5,0.4-1.2,0.4-2.1c0-0.9-0.1-1.6-0.4-2.1c-0.2-0.5-0.6-0.7-1.1-0.7c-0.5,0-0.9,0.2-1.1,0.7c-0.2,0.5-0.4,1.2-0.4,2.1
			c0,0.9,0.1,1.6,0.4,2.1s0.6,0.7,1.1,0.7C258,284.5,258.4,284.3,258.6,283.8z"/>
		<path class="st2" d="M261.1,284h1v1.1h-1V284z"/>
		<path class="st2" d="M264.4,285.1c0.2-1.2,0.6-2.3,1.1-3.3c0.5-1,1.1-1.9,1.8-2.8h-3.9v-0.9h4.9v0.4v0.4c-0.8,0.9-1.4,1.9-1.9,2.9
			c-0.5,1-0.8,2.1-1,3.3H264.4z"/>
	</g>
	<g>
		<path class="st2" d="M288.3,284.4c-0.4-0.6-0.6-1.5-0.6-2.7s0.2-2,0.6-2.7c0.4-0.6,1-0.9,1.8-0.9c0.8,0,1.4,0.3,1.8,0.9
			c0.4,0.6,0.6,1.5,0.6,2.7s-0.2,2-0.6,2.7s-1,0.9-1.8,0.9C289.3,285.3,288.7,285,288.3,284.4z M291.2,283.8
			c0.2-0.5,0.4-1.2,0.4-2.1c0-0.9-0.1-1.6-0.4-2.1c-0.2-0.5-0.6-0.7-1.1-0.7c-0.5,0-0.9,0.2-1.1,0.7c-0.2,0.5-0.4,1.2-0.4,2.1
			c0,0.9,0.1,1.6,0.4,2.1s0.6,0.7,1.1,0.7C290.6,284.5,290.9,284.3,291.2,283.8z"/>
		<path class="st2" d="M293.7,284h1v1.1h-1V284z"/>
		<path class="st2" d="M299.6,281.4c0.2,0.1,0.4,0.2,0.5,0.3c0.4,0.4,0.7,0.8,0.7,1.4c0,0.7-0.2,1.2-0.7,1.6s-1,0.6-1.7,0.6
			s-1.3-0.2-1.7-0.6c-0.4-0.4-0.7-0.9-0.7-1.6c0-0.6,0.2-1.1,0.7-1.4c0.2-0.1,0.3-0.2,0.5-0.3c-0.1-0.1-0.2-0.1-0.3-0.2
			c-0.4-0.3-0.6-0.7-0.6-1.2c0-0.6,0.2-1,0.6-1.4s0.9-0.5,1.6-0.5s1.2,0.2,1.6,0.5s0.6,0.8,0.6,1.4c0,0.5-0.2,0.9-0.6,1.2
			C299.9,281.3,299.7,281.3,299.6,281.4z M298.4,281.8c-0.4,0-0.8,0.1-1.1,0.4c-0.3,0.3-0.4,0.6-0.4,1c0,0.4,0.1,0.7,0.4,1
			c0.3,0.3,0.6,0.4,1.1,0.4s0.8-0.1,1.1-0.4s0.4-0.6,0.4-1c0-0.4-0.1-0.7-0.4-1C299.2,281.9,298.8,281.8,298.4,281.8z M298.4,281
			c0.4,0,0.7-0.1,0.9-0.3s0.3-0.5,0.3-0.8s-0.1-0.6-0.3-0.8s-0.5-0.3-0.9-0.3s-0.7,0.1-0.9,0.3s-0.3,0.5-0.3,0.8s0.1,0.6,0.3,0.8
			C297.7,280.9,298,281,298.4,281z"/>
	</g>
	<g>
		<path class="st2" d="M320.9,284.4c-0.4-0.6-0.6-1.5-0.6-2.7s0.2-2,0.6-2.7c0.4-0.6,1-0.9,1.8-0.9c0.8,0,1.4,0.3,1.8,0.9
			c0.4,0.6,0.6,1.5,0.6,2.7s-0.2,2-0.6,2.7s-1,0.9-1.8,0.9C321.9,285.3,321.3,285,320.9,284.4z M323.8,283.8
			c0.2-0.5,0.4-1.2,0.4-2.1c0-0.9-0.1-1.6-0.4-2.1c-0.2-0.5-0.6-0.7-1.1-0.7c-0.5,0-0.9,0.2-1.1,0.7c-0.2,0.5-0.4,1.2-0.4,2.1
			c0,0.9,0.1,1.6,0.4,2.1s0.6,0.7,1.1,0.7C323.1,284.5,323.5,284.3,323.8,283.8z"/>
		<path class="st2" d="M326.3,284h1v1.1h-1V284z"/>
		<path class="st2" d="M330.8,285.3c-0.6,0-1.1-0.2-1.5-0.5c-0.4-0.3-0.6-0.8-0.6-1.4h0.8c0,0.4,0.2,0.6,0.4,0.8
			c0.2,0.2,0.5,0.3,0.9,0.3c0.5,0,0.9-0.3,1.2-0.9c0.2-0.4,0.3-1,0.4-1.7c-0.4,0.5-1,0.8-1.6,0.8c-0.7,0-1.2-0.2-1.6-0.6
			c-0.4-0.4-0.6-1-0.6-1.7s0.2-1.3,0.6-1.7s1-0.6,1.7-0.6c0.8,0,1.3,0.3,1.7,0.8c0.4,0.5,0.6,1.3,0.6,2.3c0,1.3-0.2,2.3-0.7,3.1
			S331.6,285.3,330.8,285.3z M332.3,280.4c0-0.5-0.1-0.8-0.4-1.1s-0.6-0.4-1-0.4s-0.7,0.1-1,0.4s-0.4,0.7-0.4,1.1s0.1,0.8,0.4,1.1
			s0.6,0.4,1,0.4s0.7-0.1,1-0.4C332.2,281.2,332.3,280.9,332.3,280.4z"/>
	</g>
	<g>
		<path class="st2" d="M359.3,280.1h-1.6v-0.7c0.5,0,0.9-0.1,1.2-0.3c0.3-0.2,0.5-0.6,0.7-1h0.7v7h-0.5h-0.5V280.1z"/>
	</g>
	<g>
		<path class="st2" d="M184.2,292h0.5h3.1c0.8,0,1.5,0.2,1.9,0.5c0.4,0.4,0.7,0.9,0.7,1.6c0,0.7-0.2,1.2-0.7,1.6
			c-0.1,0.1-0.2,0.2-0.4,0.3l0.2,0.1c0.5,0.3,0.7,0.7,0.7,1.4l0,1.4c0,0.2,0,0.4,0.1,0.5c0.1,0.1,0.2,0.2,0.3,0.3v0.2h-1.3
			c0-0.1-0.1-0.2-0.1-0.5c0-0.3-0.1-0.6-0.1-0.9l0-0.6c0-0.5-0.1-0.8-0.4-1c-0.2-0.2-0.6-0.3-1.1-0.3h-2.5v3.4h-0.5h-0.5V292z
			 M185.3,295.6h2.6c0.5,0,0.9-0.1,1.1-0.3c0.2-0.2,0.3-0.6,0.3-1c0-0.5-0.1-0.8-0.4-1c-0.2-0.2-0.6-0.3-1.1-0.3h-2.6V295.6z"/>
		<path class="st2" d="M194.2,300.1c-0.8,0-1.5-0.3-1.9-0.8s-0.7-1.2-0.7-2.1c0-1,0.2-1.7,0.7-2.3c0.5-0.6,1.2-0.9,2-0.9
			c0.8,0,1.4,0.3,1.8,0.8s0.7,1.3,0.7,2.2l0,0.3h-4.2c0,0.6,0.2,1,0.4,1.3c0.3,0.4,0.7,0.5,1.3,0.5c0.4,0,0.7-0.1,1-0.3
			s0.4-0.5,0.5-0.8h1c-0.1,0.6-0.4,1.1-0.9,1.4S194.9,300.1,194.2,300.1z M195.9,296.6c0-0.5-0.2-0.9-0.4-1.2
			c-0.3-0.3-0.6-0.5-1.2-0.5c-0.5,0-0.9,0.2-1.2,0.6c-0.2,0.3-0.4,0.7-0.4,1.2H195.9z"/>
		<path class="st2" d="M198.1,297c0-0.9,0.2-1.8,0.5-2.6c0.3-0.8,0.8-1.7,1.4-2.6h0.7c-0.5,0.9-0.9,1.8-1.1,2.6
			c-0.2,0.8-0.4,1.7-0.4,2.5c0,0.9,0.1,1.7,0.4,2.6c0.2,0.8,0.6,1.7,1.1,2.6h-0.7c-0.7-0.9-1.1-1.8-1.4-2.6
			C198.2,298.8,198.1,297.9,198.1,297z"/>
		<path class="st2" d="M201.3,299.1l3.5-4.2h-3.2v-0.4v-0.4h4.5v0.4v0.4l-3.5,4.2h3.5v0.4v0.4h-4.8v-0.4V299.1z"/>
		<path class="st2" d="M209.4,297c0,0.9-0.2,1.8-0.5,2.6s-0.8,1.7-1.4,2.6h-0.7c0.5-0.9,0.9-1.8,1.1-2.6c0.2-0.8,0.4-1.7,0.4-2.5
			c0-0.9-0.1-1.7-0.4-2.6c-0.2-0.8-0.6-1.7-1.1-2.6h0.7c0.7,0.9,1.1,1.8,1.4,2.6S209.4,296.1,209.4,297z"/>
	</g>
	<path class="st1" d="M33.8,270.9V14.1 M359.6,270.9V14.1 M33.8,270.9h3.3 M33.8,245.2h3.3 M33.8,219.5h3.3 M33.8,193.9h3.3
		 M33.8,168.2h3.3 M33.8,142.5h3.3 M33.8,116.8h3.3 M33.8,91.1h3.3 M33.8,65.5h3.3 M33.8,39.8h3.3 M33.8,14.1h3.3 M359.6,270.9h-3.3
		 M359.6,245.2h-3.3 M359.6,219.5h-3.3 M359.6,193.9h-3.3 M359.6,168.2h-3.3 M359.6,142.5h-3.3 M359.6,116.8h-3.3 M359.6,91.1h-3.3
		 M359.6,65.5h-3.3 M359.6,39.8h-3.3 M359.6,14.1h-3.3"/>
	<g>
		<path class="st2" d="M24.8,274.1c-0.4-0.6-0.6-1.5-0.6-2.7s0.2-2,0.6-2.7c0.4-0.6,1-0.9,1.8-0.9c0.8,0,1.4,0.3,1.8,0.9
			c0.4,0.6,0.6,1.5,0.6,2.7s-0.2,2-0.6,2.7s-1,0.9-1.8,0.9C25.9,275,25.3,274.7,24.8,274.1z M27.7,273.5c0.2-0.5,0.4-1.2,0.4-2.1
			c0-0.9-0.1-1.6-0.4-2.1c-0.2-0.5-0.6-0.7-1.1-0.7c-0.5,0-0.9,0.2-1.1,0.7c-0.2,0.5-0.4,1.2-0.4,2.1c0,0.9,0.1,1.6,0.4,2.1
			s0.6,0.7,1.1,0.7C27.1,274.2,27.5,274,27.7,273.5z"/>
	</g>
	<g>
		<path class="st2" d="M16.4,248.4c-0.4-0.6-0.6-1.5-0.6-2.7s0.2-2,0.6-2.7c0.4-0.6,1-0.9,1.8-0.9c0.8,0,1.4,0.3,1.8,0.9
			c0.4,0.6,0.6,1.5,0.6,2.7s-0.2,2-0.6,2.7s-1,0.9-1.8,0.9C17.5,249.3,16.9,249,16.4,248.4z M19.3,247.8c0.2-0.5,0.4-1.2,0.4-2.1
			c0-0.9-0.1-1.6-0.4-2.1c-0.2-0.5-0.6-0.7-1.1-0.7c-0.5,0-0.9,0.2-1.1,0.7c-0.2,0.5-0.4,1.2-0.4,2.1c0,0.9,0.1,1.6,0.4,2.1
			s0.6,0.7,1.1,0.7C18.7,248.5,19.1,248.3,19.3,247.8z"/>
		<path class="st2" d="M21.9,248.1h1v1.1h-1V248.1z"/>
	</g>
	<g>
		<path class="st2" d="M25.6,244.1H24v-0.7c0.5,0,0.9-0.1,1.2-0.3c0.3-0.2,0.5-0.6,0.7-1h0.7v7h-0.5h-0.5V244.1z"/>
	</g>
	<g>
		<path class="st2" d="M16.4,222.7c-0.4-0.6-0.6-1.5-0.6-2.7s0.2-2,0.6-2.7c0.4-0.6,1-0.9,1.8-0.9c0.8,0,1.4,0.3,1.8,0.9
			c0.4,0.6,0.6,1.5,0.6,2.7s-0.2,2-0.6,2.7s-1,0.9-1.8,0.9C17.5,223.6,16.9,223.3,16.4,222.7z M19.3,222.1c0.2-0.5,0.4-1.2,0.4-2.1
			c0-0.9-0.1-1.6-0.4-2.1c-0.2-0.5-0.6-0.7-1.1-0.7c-0.5,0-0.9,0.2-1.1,0.7c-0.2,0.5-0.4,1.2-0.4,2.1c0,0.9,0.1,1.6,0.4,2.1
			s0.6,0.7,1.1,0.7C18.7,222.9,19.1,222.6,19.3,222.1z"/>
		<path class="st2" d="M21.9,222.4h1v1.1h-1V222.4z"/>
	</g>
	<g>
		<path class="st2" d="M28,218.5c0,0.5-0.1,0.9-0.4,1.3c-0.3,0.3-0.8,0.7-1.5,1.1c-0.8,0.4-1.3,0.8-1.6,1.2
			c-0.1,0.2-0.2,0.3-0.3,0.5H28v0.9h-4.8v0c0-0.7,0.2-1.3,0.6-1.8c0.4-0.5,1.1-1,2.1-1.5c0.5-0.3,0.8-0.5,1-0.8
			c0.2-0.2,0.3-0.5,0.3-0.9c0-0.4-0.1-0.7-0.4-0.9c-0.3-0.2-0.6-0.4-1-0.4c-0.4,0-0.8,0.1-1,0.4s-0.4,0.7-0.4,1.3h-0.9
			c0-0.8,0.2-1.4,0.6-1.8c0.4-0.4,1-0.7,1.8-0.7c0.7,0,1.2,0.2,1.6,0.6C27.8,217.4,28,217.9,28,218.5z"/>
	</g>
	<g>
		<path class="st2" d="M16.4,197c-0.4-0.6-0.6-1.5-0.6-2.7s0.2-2,0.6-2.7c0.4-0.6,1-0.9,1.8-0.9c0.8,0,1.4,0.3,1.8,0.9
			c0.4,0.6,0.6,1.5,0.6,2.7s-0.2,2-0.6,2.7s-1,0.9-1.8,0.9C17.5,198,16.9,197.6,16.4,197z M19.3,196.5c0.2-0.5,0.4-1.2,0.4-2.1
			c0-0.9-0.1-1.6-0.4-2.1c-0.2-0.5-0.6-0.7-1.1-0.7c-0.5,0-0.9,0.2-1.1,0.7c-0.2,0.5-0.4,1.2-0.4,2.1c0,0.9,0.1,1.6,0.4,2.1
			s0.6,0.7,1.1,0.7C18.7,197.2,19.1,196.9,19.3,196.5z"/>
		<path class="st2" d="M21.9,196.7h1v1.1h-1V196.7z"/>
	</g>
	<g>
		<path class="st2" d="M27,192.6c0-0.3-0.1-0.6-0.4-0.8c-0.3-0.2-0.6-0.3-1-0.3c-0.4,0-0.7,0.1-1,0.4c-0.2,0.3-0.3,0.6-0.4,1.1h-0.9
			c0-0.7,0.2-1.3,0.6-1.7c0.4-0.4,0.9-0.6,1.6-0.6c0.7,0,1.2,0.2,1.6,0.5c0.4,0.3,0.6,0.8,0.6,1.3c0,0.5-0.2,1-0.6,1.3
			c-0.1,0.1-0.2,0.1-0.3,0.2c0.2,0.1,0.3,0.2,0.4,0.3c0.4,0.3,0.7,0.8,0.7,1.4c0,0.7-0.2,1.2-0.7,1.6c-0.5,0.4-1,0.6-1.8,0.6
			c-0.8,0-1.4-0.2-1.8-0.6c-0.4-0.4-0.6-1-0.7-1.7h0.9c0.1,0.5,0.2,0.9,0.4,1.2c0.2,0.2,0.6,0.4,1.1,0.4c0.4,0,0.8-0.1,1.1-0.4
			c0.3-0.2,0.4-0.6,0.4-1c0-0.4-0.1-0.7-0.4-1c-0.2-0.2-0.5-0.3-0.9-0.4c-0.2,0-0.3,0-0.5,0s-0.2,0-0.3,0v-0.8c0.1,0,0.2,0,0.3,0
			s0.3,0,0.4,0c0.3,0,0.5-0.1,0.7-0.3C26.9,193.3,27,193,27,192.6z"/>
	</g>
	<g>
		<path class="st2" d="M16.4,171.3c-0.4-0.6-0.6-1.5-0.6-2.7s0.2-2,0.6-2.7c0.4-0.6,1-0.9,1.8-0.9c0.8,0,1.4,0.3,1.8,0.9
			c0.4,0.6,0.6,1.5,0.6,2.7s-0.2,2-0.6,2.7s-1,0.9-1.8,0.9C17.5,172.3,16.9,172,16.4,171.3z M19.3,170.8c0.2-0.5,0.4-1.2,0.4-2.1
			c0-0.9-0.1-1.6-0.4-2.1c-0.2-0.5-0.6-0.7-1.1-0.7c-0.5,0-0.9,0.2-1.1,0.7c-0.2,0.5-0.4,1.2-0.4,2.1c0,0.9,0.1,1.6,0.4,2.1
			s0.6,0.7,1.1,0.7C18.7,171.5,19.1,171.3,19.3,170.8z"/>
		<path class="st2" d="M21.9,171h1v1.1h-1V171z"/>
	</g>
	<g>
		<path class="st2" d="M23.2,170.4V170v-0.4l3.3-4.5h0.4h0.4v4.6h1v0.8h-1v1.7h-0.9v-1.7H23.2z M26.3,169.6v-3.2l-2.2,3.1l0,0.1
			H26.3z"/>
	</g>
	<g>
		<path class="st2" d="M16.4,145.7c-0.4-0.6-0.6-1.5-0.6-2.7s0.2-2,0.6-2.7c0.4-0.6,1-0.9,1.8-0.9c0.8,0,1.4,0.3,1.8,0.9
			c0.4,0.6,0.6,1.5,0.6,2.7s-0.2,2-0.6,2.7s-1,0.9-1.8,0.9C17.5,146.6,16.9,146.3,16.4,145.7z M19.3,145.1c0.2-0.5,0.4-1.2,0.4-2.1
			c0-0.9-0.1-1.6-0.4-2.1c-0.2-0.5-0.6-0.7-1.1-0.7c-0.5,0-0.9,0.2-1.1,0.7c-0.2,0.5-0.4,1.2-0.4,2.1c0,0.9,0.1,1.6,0.4,2.1
			s0.6,0.7,1.1,0.7C18.7,145.8,19.1,145.6,19.3,145.1z"/>
		<path class="st2" d="M21.9,145.4h1v1.1h-1V145.4z"/>
	</g>
	<g>
		<path class="st2" d="M28.1,144.2c0,0.7-0.2,1.3-0.7,1.8s-1,0.7-1.7,0.7c-0.7,0-1.3-0.2-1.7-0.5s-0.7-0.8-0.7-1.5h0.9
			c0,0.4,0.2,0.7,0.5,0.9c0.3,0.2,0.6,0.3,1.1,0.3c0.4,0,0.8-0.1,1-0.4s0.4-0.7,0.4-1.1c0-0.5-0.1-0.9-0.4-1.2s-0.7-0.4-1.1-0.4
			c-0.3,0-0.5,0.1-0.7,0.2s-0.4,0.3-0.5,0.5l-0.7,0l0.5-3.8h3.6v0.9h-3l-0.3,1.9l0,0c0.4-0.3,0.8-0.4,1.2-0.4c0.7,0,1.3,0.2,1.8,0.6
			C27.9,142.9,28.1,143.5,28.1,144.2z"/>
	</g>
	<g>
		<path class="st2" d="M16.4,120c-0.4-0.6-0.6-1.5-0.6-2.7s0.2-2,0.6-2.7c0.4-0.6,1-0.9,1.8-0.9c0.8,0,1.4,0.3,1.8,0.9
			c0.4,0.6,0.6,1.5,0.6,2.7s-0.2,2-0.6,2.7s-1,0.9-1.8,0.9C17.5,120.9,16.9,120.6,16.4,120z M19.3,119.4c0.2-0.5,0.4-1.2,0.4-2.1
			c0-0.9-0.1-1.6-0.4-2.1c-0.2-0.5-0.6-0.7-1.1-0.7c-0.5,0-0.9,0.2-1.1,0.7c-0.2,0.5-0.4,1.2-0.4,2.1c0,0.9,0.1,1.6,0.4,2.1
			s0.6,0.7,1.1,0.7C18.7,120.1,19.1,119.9,19.3,119.4z"/>
		<path class="st2" d="M21.9,119.7h1v1.1h-1V119.7z"/>
	</g>
	<g>
		<path class="st2" d="M25.9,113.7c0.6,0,1.1,0.2,1.5,0.5c0.4,0.3,0.6,0.8,0.6,1.4h-0.9c0-0.3-0.2-0.6-0.4-0.8
			c-0.2-0.2-0.5-0.3-0.8-0.3c-0.5,0-1,0.3-1.3,0.8c-0.3,0.4-0.4,1.1-0.4,1.8c0.4-0.6,1-0.8,1.7-0.8c0.7,0,1.2,0.2,1.6,0.6
			s0.6,1,0.6,1.7s-0.2,1.3-0.7,1.7s-1,0.6-1.7,0.6c-0.8,0-1.4-0.3-1.8-0.9s-0.6-1.4-0.6-2.5c0-1.2,0.2-2.2,0.7-2.8
			C24.4,114,25.1,113.7,25.9,113.7z M24.3,118.6c0,0.5,0.1,0.8,0.4,1.1s0.6,0.4,1,0.4s0.8-0.1,1-0.4s0.4-0.7,0.4-1.1
			s-0.1-0.8-0.4-1.1s-0.6-0.4-1-0.4s-0.8,0.1-1,0.4C24.5,117.8,24.3,118.1,24.3,118.6z"/>
	</g>
	<g>
		<path class="st2" d="M16.4,94.3c-0.4-0.6-0.6-1.5-0.6-2.7s0.2-2,0.6-2.7c0.4-0.6,1-0.9,1.8-0.9c0.8,0,1.4,0.3,1.8,0.9
			c0.4,0.6,0.6,1.5,0.6,2.7s-0.2,2-0.6,2.7s-1,0.9-1.8,0.9C17.5,95.2,16.9,94.9,16.4,94.3z M19.3,93.7c0.2-0.5,0.4-1.2,0.4-2.1
			c0-0.9-0.1-1.6-0.4-2.1c-0.2-0.5-0.6-0.7-1.1-0.7c-0.5,0-0.9,0.2-1.1,0.7c-0.2,0.5-0.4,1.2-0.4,2.1c0,0.9,0.1,1.6,0.4,2.1
			s0.6,0.7,1.1,0.7C18.7,94.4,19.1,94.2,19.3,93.7z"/>
		<path class="st2" d="M21.9,94h1V95h-1V94z"/>
	</g>
	<g>
		<path class="st2" d="M24.3,95c0.2-1.2,0.6-2.3,1.1-3.3c0.5-1,1.1-1.9,1.8-2.8h-3.9v-0.9h4.9v0.4v0.4c-0.8,0.9-1.4,1.9-1.9,2.9
			c-0.5,1-0.8,2.1-1,3.3H24.3z"/>
	</g>
	<g>
		<path class="st2" d="M16.4,68.6C16,68,15.8,67.1,15.8,66s0.2-2,0.6-2.7c0.4-0.6,1-0.9,1.8-0.9c0.8,0,1.4,0.3,1.8,0.9
			c0.4,0.6,0.6,1.5,0.6,2.7s-0.2,2-0.6,2.7s-1,0.9-1.8,0.9C17.5,69.6,16.9,69.3,16.4,68.6z M19.3,68.1c0.2-0.5,0.4-1.2,0.4-2.1
			c0-0.9-0.1-1.6-0.4-2.1c-0.2-0.5-0.6-0.7-1.1-0.7c-0.5,0-0.9,0.2-1.1,0.7c-0.2,0.5-0.4,1.2-0.4,2.1c0,0.9,0.1,1.6,0.4,2.1
			s0.6,0.7,1.1,0.7C18.7,68.8,19.1,68.5,19.3,68.1z"/>
		<path class="st2" d="M21.9,68.3h1v1.1h-1V68.3z"/>
	</g>
	<g>
		<path class="st2" d="M26.9,65.7c0.2,0.1,0.4,0.2,0.5,0.3c0.4,0.4,0.7,0.8,0.7,1.4c0,0.7-0.2,1.2-0.7,1.6s-1,0.6-1.7,0.6
			S24.4,69.4,24,69s-0.7-0.9-0.7-1.6c0-0.6,0.2-1.1,0.7-1.4c0.2-0.1,0.3-0.2,0.5-0.3c-0.1-0.1-0.2-0.1-0.3-0.2
			c-0.4-0.3-0.6-0.7-0.6-1.2c0-0.6,0.2-1,0.6-1.4s0.9-0.5,1.6-0.5s1.2,0.2,1.6,0.5s0.6,0.8,0.6,1.4c0,0.5-0.2,0.9-0.6,1.2
			C27.2,65.5,27.1,65.6,26.9,65.7z M25.7,66c-0.4,0-0.8,0.1-1.1,0.4s-0.4,0.6-0.4,1c0,0.4,0.1,0.7,0.4,1s0.6,0.4,1.1,0.4
			s0.8-0.1,1.1-0.4s0.4-0.6,0.4-1c0-0.4-0.1-0.7-0.4-1C26.5,66.2,26.1,66,25.7,66z M25.7,65.3c0.4,0,0.7-0.1,0.9-0.3
			s0.3-0.5,0.3-0.8s-0.1-0.6-0.3-0.8c-0.2-0.2-0.5-0.3-0.9-0.3s-0.7,0.1-0.9,0.3c-0.2,0.2-0.3,0.5-0.3,0.8s0.1,0.6,0.3,0.8
			C25.1,65.2,25.4,65.3,25.7,65.3z"/>
	</g>
	<g>
		<path class="st2" d="M16.4,42.9c-0.4-0.6-0.6-1.5-0.6-2.7s0.2-2,0.6-2.7c0.4-0.6,1-0.9,1.8-0.9c0.8,0,1.4,0.3,1.8,0.9
			c0.4,0.6,0.6,1.5,0.6,2.7s-0.2,2-0.6,2.7s-1,0.9-1.8,0.9C17.5,43.9,16.9,43.6,16.4,42.9z M19.3,42.4c0.2-0.5,0.4-1.2,0.4-2.1
			c0-0.9-0.1-1.6-0.4-2.1c-0.2-0.5-0.6-0.7-1.1-0.7c-0.5,0-0.9,0.2-1.1,0.7c-0.2,0.5-0.4,1.2-0.4,2.1c0,0.9,0.1,1.6,0.4,2.1
			s0.6,0.7,1.1,0.7C18.7,43.1,19.1,42.9,19.3,42.4z"/>
		<path class="st2" d="M21.9,42.6h1v1.1h-1V42.6z"/>
	</g>
	<g>
		<path class="st2" d="M25.5,43.9c-0.6,0-1.1-0.2-1.5-0.5s-0.6-0.8-0.6-1.4h0.8c0,0.4,0.2,0.6,0.4,0.8s0.5,0.3,0.9,0.3
			c0.5,0,0.9-0.3,1.2-0.9c0.2-0.4,0.3-1,0.4-1.7c-0.4,0.5-1,0.8-1.6,0.8c-0.7,0-1.2-0.2-1.6-0.6s-0.6-1-0.6-1.7
			c0-0.7,0.2-1.3,0.6-1.7c0.4-0.4,1-0.6,1.7-0.6c0.8,0,1.3,0.3,1.7,0.8c0.4,0.5,0.6,1.3,0.6,2.3c0,1.3-0.2,2.3-0.7,3.1
			S26.3,43.9,25.5,43.9z M27.1,39c0-0.5-0.1-0.8-0.4-1.1c-0.3-0.3-0.6-0.4-1-0.4s-0.7,0.1-1,0.4c-0.3,0.3-0.4,0.7-0.4,1.1
			s0.1,0.8,0.4,1.1s0.6,0.4,1,0.4s0.7-0.1,1-0.4C26.9,39.8,27.1,39.4,27.1,39z"/>
	</g>
	<g>
		<path class="st2" d="M26.5,13h-1.6v-0.7c0.5,0,0.9-0.1,1.2-0.3c0.3-0.2,0.5-0.6,0.7-1h0.7v7H27h-0.5V13z"/>
	</g>
	<g>
		<path class="st2" d="M1.6,154.1v-0.5V153h7.9v0.5v0.5H1.6z"/>
		<path class="st2" d="M3.7,151.3v-0.5v-0.5h0.9l-0.3-0.2c-0.5-0.4-0.8-1-0.8-1.6c0-0.5,0.2-0.9,0.5-1.2c0.1-0.1,0.3-0.2,0.5-0.3
			L4.3,147c-0.5-0.4-0.7-0.9-0.7-1.5c0-0.6,0.2-1.1,0.5-1.4s0.8-0.5,1.4-0.5h4v0.5v0.5H5.7c-0.4,0-0.8,0.1-1,0.3
			c-0.2,0.2-0.3,0.4-0.3,0.8c0,0.4,0.2,0.8,0.5,1c0.3,0.2,0.8,0.4,1.3,0.4h3.2v0.5v0.5H5.5c-0.4,0-0.6,0.1-0.8,0.2
			c-0.2,0.2-0.3,0.4-0.3,0.7c0,0.4,0.2,0.8,0.5,1.1c0.4,0.3,0.8,0.4,1.4,0.4h3.1v0.5v0.5H3.7z"/>
		<path class="st2" d="M6.5,142.1c-0.9,0-1.8-0.2-2.6-0.5s-1.7-0.8-2.6-1.4v-0.7c0.9,0.5,1.8,0.9,2.6,1.1s1.7,0.4,2.5,0.4
			c0.9,0,1.7-0.1,2.6-0.4s1.7-0.6,2.6-1.1v0.7c-0.9,0.7-1.8,1.1-2.6,1.4S7.4,142.1,6.5,142.1z"/>
		<path class="st2" d="M8.7,138.9l-4.2-3.5v3.2H4.1H3.7v-4.5h0.4h0.4l4.2,3.4v-3.5H9h0.4v4.8H9.1H8.7z"/>
		<path class="st2" d="M6.6,130.8c0.9,0,1.8,0.2,2.6,0.5c0.8,0.3,1.7,0.8,2.6,1.4v0.7c-0.9-0.5-1.8-0.9-2.6-1.1s-1.7-0.4-2.5-0.4
			c-0.9,0-1.7,0.1-2.6,0.4s-1.7,0.6-2.6,1.1v-0.7c0.9-0.7,1.8-1.1,2.6-1.4S5.7,130.8,6.6,130.8z"/>
	</g>
	<g>
		<path class="st3" d="M65.9,7c0.1,0.4,0.2,0.6,0.3,0.8c0.3,0.3,0.7,0.5,1.4,0.5c0.4,0,0.7,0,1-0.1C69,8,69.3,7.7,69.3,7.3
			c0-0.3-0.1-0.5-0.3-0.6c-0.2-0.1-0.6-0.3-1.1-0.4L67,6.1c-0.8-0.2-1.4-0.4-1.7-0.6c-0.5-0.4-0.8-0.9-0.8-1.7
			c0-0.7,0.3-1.3,0.8-1.8c0.5-0.5,1.3-0.7,2.3-0.7c0.8,0,1.6,0.2,2.2,0.7s0.9,1.1,0.9,1.9H69c0-0.5-0.2-0.8-0.6-1
			c-0.3-0.1-0.6-0.2-1-0.2c-0.4,0-0.8,0.1-1,0.3C66.1,3.1,66,3.4,66,3.7c0,0.3,0.1,0.5,0.4,0.6c0.2,0.1,0.5,0.2,1.1,0.3L68.8,5
			c0.6,0.1,1.1,0.3,1.4,0.6c0.5,0.4,0.7,0.9,0.7,1.6c0,0.7-0.3,1.3-0.8,1.8s-1.3,0.7-2.4,0.7c-1,0-1.9-0.2-2.5-0.7
			c-0.6-0.5-0.9-1.1-0.9-1.9H65.9z"/>
		<path class="st3" d="M75.7,3.7c0.4,0.2,0.7,0.5,1,0.9c0.2,0.3,0.4,0.8,0.5,1.2c0,0.3,0.1,0.7,0.1,1.2H73c0,0.6,0.2,1,0.6,1.2
			c0.2,0.1,0.5,0.2,0.8,0.2c0.3,0,0.6-0.1,0.9-0.3c0.1-0.1,0.2-0.2,0.3-0.4h1.6c0,0.3-0.2,0.7-0.6,1.1c-0.5,0.6-1.3,0.9-2.2,0.9
			c-0.8,0-1.5-0.2-2.1-0.7c-0.6-0.5-0.9-1.3-0.9-2.3c0-1,0.3-1.8,0.8-2.3c0.5-0.5,1.2-0.8,2.1-0.8C74.8,3.4,75.3,3.5,75.7,3.7z
			 M73.4,5C73.2,5.3,73.1,5.6,73,6h2.6c0-0.4-0.2-0.7-0.4-0.9c-0.2-0.2-0.5-0.3-0.9-0.3C73.9,4.7,73.6,4.8,73.4,5z"/>
		<path class="st3" d="M77.4,4.7V3.7h0.8V2h1.5v1.6h1v1.1h-1v3.1c0,0.2,0,0.4,0.1,0.4s0.2,0.1,0.6,0.1c0,0,0.1,0,0.1,0
			c0.1,0,0.1,0,0.2,0v1.1l-0.7,0c-0.7,0-1.2-0.1-1.5-0.4c-0.2-0.2-0.3-0.4-0.3-0.8V4.7H77.4z"/>
		<path class="st3" d="M89.6,8.7c-0.5,0.6-1.2,0.9-2.3,0.9c-1,0-1.8-0.3-2.3-0.9s-0.7-1.3-0.7-2.2c0-0.8,0.2-1.6,0.7-2.2
			c0.5-0.6,1.2-0.9,2.3-0.9c1,0,1.8,0.3,2.3,0.9c0.5,0.6,0.7,1.4,0.7,2.2C90.4,7.4,90.1,8.1,89.6,8.7z M88.4,7.9
			c0.2-0.3,0.4-0.8,0.4-1.4s-0.1-1-0.4-1.4c-0.2-0.3-0.6-0.5-1-0.5c-0.4,0-0.8,0.2-1,0.5S86,6,86,6.5s0.1,1,0.4,1.4
			c0.2,0.3,0.6,0.5,1,0.5C87.8,8.4,88.1,8.2,88.4,7.9z"/>
		<path class="st3" d="M93.9,1.5c0.1,0,0.2,0,0.3,0v1.2c-0.1,0-0.2,0-0.4,0c-0.2,0-0.3,0-0.4,0.1c-0.1,0.1-0.1,0.2-0.1,0.3
			c0,0.1,0,0.3,0,0.5h1v1.1h-1v4.7h-1.5V4.7h-0.9V3.7h0.8V3.3c0-0.6,0.1-1.1,0.3-1.3c0.2-0.4,0.8-0.5,1.6-0.5
			C93.7,1.5,93.8,1.5,93.9,1.5z"/>
		<path class="st3" d="M100.5,5.9c0.3,0,0.5-0.1,0.6-0.1c0.2-0.1,0.3-0.2,0.3-0.4c0-0.2-0.1-0.4-0.3-0.5c-0.2-0.1-0.4-0.1-0.7-0.1
			c-0.4,0-0.6,0.1-0.8,0.3c-0.1,0.1-0.2,0.3-0.2,0.5H98c0-0.5,0.2-0.9,0.4-1.3c0.4-0.5,1.1-0.8,2.1-0.8c0.6,0,1.2,0.1,1.7,0.4
			c0.5,0.3,0.8,0.7,0.8,1.4V8c0,0.2,0,0.4,0,0.7c0,0.2,0,0.3,0.1,0.4c0,0.1,0.1,0.1,0.2,0.2v0.2h-1.7c0-0.1-0.1-0.2-0.1-0.3
			c0-0.1,0-0.2,0-0.4c-0.2,0.2-0.5,0.4-0.7,0.6c-0.3,0.2-0.7,0.3-1.1,0.3c-0.5,0-1-0.2-1.3-0.5c-0.3-0.3-0.5-0.7-0.5-1.3
			c0-0.7,0.3-1.2,0.8-1.6C98.9,6.2,99.4,6,100,6L100.5,5.9z M101.4,6.6c-0.1,0.1-0.2,0.1-0.3,0.1c-0.1,0-0.2,0.1-0.4,0.1l-0.3,0.1
			C100,7,99.8,7.1,99.7,7.1c-0.2,0.1-0.4,0.4-0.4,0.6c0,0.3,0.1,0.5,0.2,0.6c0.1,0.1,0.3,0.2,0.5,0.2c0.3,0,0.6-0.1,0.9-0.3
			c0.3-0.2,0.4-0.5,0.4-1.1V6.6z"/>
		<path class="st3" d="M105.8,9.5h-1.5V1.5h1.5V9.5z"/>
		<path class="st3" d="M108.9,9.5h-1.5V1.5h1.5V9.5z"/>
		<path class="st3" d="M115.3,8.7c-0.5,0.6-1.2,0.9-2.3,0.9c-1,0-1.8-0.3-2.3-0.9S110,7.4,110,6.5c0-0.8,0.2-1.6,0.7-2.2
			c0.5-0.6,1.2-0.9,2.3-0.9c1,0,1.8,0.3,2.3,0.9c0.5,0.6,0.7,1.4,0.7,2.2C116,7.4,115.8,8.1,115.3,8.7z M114.1,7.9
			c0.2-0.3,0.4-0.8,0.4-1.4s-0.1-1-0.4-1.4c-0.2-0.3-0.6-0.5-1-0.5c-0.4,0-0.8,0.2-1,0.5s-0.4,0.8-0.4,1.4s0.1,1,0.4,1.4
			c0.2,0.3,0.6,0.5,1,0.5C113.5,8.4,113.8,8.2,114.1,7.9z"/>
		<path class="st3" d="M119.9,3.6h1.5l0.9,4.2l0.9-4.2h1.6l-1.7,5.9h-1.6l-0.9-4.3l-0.9,4.3h-1.6l-1.6-5.9h1.6l0.9,4.2L119.9,3.6z"
			/>
		<path class="st3" d="M128,5.9c0.3,0,0.5-0.1,0.6-0.1c0.2-0.1,0.3-0.2,0.3-0.4c0-0.2-0.1-0.4-0.3-0.5c-0.2-0.1-0.4-0.1-0.7-0.1
			c-0.4,0-0.6,0.1-0.8,0.3c-0.1,0.1-0.2,0.3-0.2,0.5h-1.5c0-0.5,0.2-0.9,0.4-1.3c0.4-0.5,1.1-0.8,2.1-0.8c0.6,0,1.2,0.1,1.7,0.4
			c0.5,0.3,0.8,0.7,0.8,1.4V8c0,0.2,0,0.4,0,0.7c0,0.2,0,0.3,0.1,0.4c0,0.1,0.1,0.1,0.2,0.2v0.2h-1.7c0-0.1-0.1-0.2-0.1-0.3
			c0-0.1,0-0.2,0-0.4c-0.2,0.2-0.5,0.4-0.7,0.6c-0.3,0.2-0.7,0.3-1.1,0.3c-0.5,0-1-0.2-1.3-0.5c-0.3-0.3-0.5-0.7-0.5-1.3
			c0-0.7,0.3-1.2,0.8-1.6c0.3-0.2,0.8-0.3,1.4-0.4L128,5.9z M128.9,6.6c-0.1,0.1-0.2,0.1-0.3,0.1c-0.1,0-0.2,0.1-0.4,0.1l-0.3,0.1
			c-0.3,0.1-0.6,0.1-0.7,0.2c-0.2,0.1-0.4,0.4-0.4,0.6c0,0.3,0.1,0.5,0.2,0.6c0.1,0.1,0.3,0.2,0.5,0.2c0.3,0,0.6-0.1,0.9-0.3
			c0.3-0.2,0.4-0.5,0.4-1.1V6.6z"/>
		<path class="st3" d="M136.8,4.3c0.4,0.6,0.7,1.3,0.7,2.1c0,0.9-0.2,1.7-0.6,2.3c-0.4,0.6-1,0.9-1.8,0.9c-0.5,0-0.9-0.1-1.2-0.3
			c-0.2-0.1-0.4-0.3-0.6-0.6v0.7h-1.5V1.6h1.5v2.8c0.2-0.3,0.4-0.5,0.6-0.6c0.3-0.2,0.6-0.3,1.1-0.3C135.7,3.5,136.3,3.8,136.8,4.3z
			 M135.5,7.9c0.2-0.3,0.3-0.7,0.3-1.3c0-0.4-0.1-0.8-0.2-1c-0.2-0.5-0.6-0.8-1.1-0.8c-0.6,0-0.9,0.3-1.2,0.8
			c-0.1,0.3-0.2,0.6-0.2,1c0,0.5,0.1,0.9,0.3,1.2c0.2,0.3,0.6,0.5,1,0.5C135,8.4,135.3,8.2,135.5,7.9z"/>
		<path class="st3" d="M140.1,9.5h-1.5V1.5h1.5V9.5z"/>
		<path class="st3" d="M145.4,3.7c0.4,0.2,0.7,0.5,1,0.9c0.2,0.3,0.4,0.8,0.5,1.2c0,0.3,0.1,0.7,0.1,1.2h-4.3c0,0.6,0.2,1,0.6,1.2
			c0.2,0.1,0.5,0.2,0.8,0.2c0.3,0,0.6-0.1,0.9-0.3c0.1-0.1,0.2-0.2,0.3-0.4h1.6c0,0.3-0.2,0.7-0.6,1.1c-0.5,0.6-1.3,0.9-2.2,0.9
			c-0.8,0-1.5-0.2-2.1-0.7c-0.6-0.5-0.9-1.3-0.9-2.3c0-1,0.3-1.8,0.8-2.3c0.5-0.5,1.2-0.8,2.1-0.8C144.5,3.4,145,3.5,145.4,3.7z
			 M143.1,5c-0.2,0.2-0.4,0.5-0.4,0.9h2.6c0-0.4-0.2-0.7-0.4-0.9c-0.2-0.2-0.5-0.3-0.9-0.3C143.6,4.7,143.3,4.8,143.1,5z"/>
		<path class="st3" d="M155.7,4.2c0.5,0.5,0.7,1.2,0.7,2.2c0,1-0.2,1.8-0.7,2.4s-1.1,0.8-1.8,0.8c-0.5,0-0.9-0.1-1.2-0.3
			c-0.2-0.1-0.3-0.3-0.5-0.6v3.1h-1.5V3.6h1.5v0.9c0.2-0.3,0.3-0.5,0.5-0.6c0.3-0.3,0.7-0.4,1.2-0.4C154.6,3.5,155.2,3.7,155.7,4.2z
			 M154.5,5.3c-0.2-0.3-0.5-0.5-1-0.5c-0.6,0-0.9,0.3-1.2,0.8c-0.1,0.3-0.2,0.6-0.2,1.1c0,0.7,0.2,1.2,0.5,1.4
			c0.2,0.2,0.5,0.2,0.8,0.2c0.4,0,0.8-0.2,1-0.5s0.3-0.8,0.3-1.3C154.8,6.1,154.7,5.7,154.5,5.3z"/>
		<path class="st3" d="M162.3,8.7c-0.5,0.6-1.2,0.9-2.3,0.9c-1,0-1.8-0.3-2.3-0.9s-0.7-1.3-0.7-2.2c0-0.8,0.2-1.6,0.7-2.2
			c0.5-0.6,1.2-0.9,2.3-0.9c1,0,1.8,0.3,2.3,0.9c0.5,0.6,0.7,1.4,0.7,2.2C163.1,7.4,162.8,8.1,162.3,8.7z M161.1,7.9
			c0.2-0.3,0.4-0.8,0.4-1.4s-0.1-1-0.4-1.4c-0.2-0.3-0.6-0.5-1-0.5c-0.4,0-0.8,0.2-1,0.5s-0.4,0.8-0.4,1.4s0.1,1,0.4,1.4
			c0.2,0.3,0.6,0.5,1,0.5C160.5,8.4,160.9,8.2,161.1,7.9z"/>
		<path class="st3" d="M165.7,9.5h-1.5V1.5h1.5V9.5z"/>
		<path class="st3" d="M171,3.7c0.4,0.2,0.7,0.5,1,0.9c0.2,0.3,0.4,0.8,0.5,1.2c0,0.3,0.1,0.7,0.1,1.2h-4.3c0,0.6,0.2,1,0.6,1.2
			c0.2,0.1,0.5,0.2,0.8,0.2c0.3,0,0.6-0.1,0.9-0.3c0.1-0.1,0.2-0.2,0.3-0.4h1.6c0,0.3-0.2,0.7-0.6,1.1c-0.5,0.6-1.3,0.9-2.2,0.9
			c-0.8,0-1.5-0.2-2.1-0.7c-0.6-0.5-0.9-1.3-0.9-2.3c0-1,0.3-1.8,0.8-2.3c0.5-0.5,1.2-0.8,2.1-0.8C170.2,3.4,170.6,3.5,171,3.7z
			 M168.8,5c-0.2,0.2-0.4,0.5-0.4,0.9h2.6c0-0.4-0.2-0.7-0.4-0.9c-0.2-0.2-0.5-0.3-0.9-0.3C169.3,4.7,169,4.8,168.8,5z"/>
		<path class="st3" d="M181.3,4.2c0.5,0.5,0.7,1.2,0.7,2.2c0,1-0.2,1.8-0.7,2.4s-1.1,0.8-1.8,0.8c-0.5,0-0.9-0.1-1.2-0.3
			c-0.2-0.1-0.3-0.3-0.5-0.6v3.1h-1.5V3.6h1.5v0.9c0.2-0.3,0.3-0.5,0.5-0.6c0.3-0.3,0.7-0.4,1.2-0.4C180.3,3.5,180.9,3.7,181.3,4.2z
			 M180.2,5.3c-0.2-0.3-0.5-0.5-1-0.5c-0.6,0-0.9,0.3-1.2,0.8c-0.1,0.3-0.2,0.6-0.2,1.1c0,0.7,0.2,1.2,0.5,1.4
			c0.2,0.2,0.5,0.2,0.8,0.2c0.4,0,0.8-0.2,1-0.5s0.3-0.8,0.3-1.3C180.5,6.1,180.4,5.7,180.2,5.3z"/>
		<path class="st3" d="M188,8.7c-0.5,0.6-1.2,0.9-2.3,0.9c-1,0-1.8-0.3-2.3-0.9s-0.7-1.3-0.7-2.2c0-0.8,0.2-1.6,0.7-2.2
			c0.5-0.6,1.2-0.9,2.3-0.9c1,0,1.8,0.3,2.3,0.9c0.5,0.6,0.7,1.4,0.7,2.2C188.7,7.4,188.5,8.1,188,8.7z M186.8,7.9
			c0.2-0.3,0.4-0.8,0.4-1.4s-0.1-1-0.4-1.4c-0.2-0.3-0.6-0.5-1-0.5c-0.4,0-0.8,0.2-1,0.5s-0.4,0.8-0.4,1.4s0.1,1,0.4,1.4
			c0.2,0.3,0.6,0.5,1,0.5C186.2,8.4,186.5,8.2,186.8,7.9z"/>
		<path class="st3" d="M191,7.6c0,0.3,0.1,0.5,0.2,0.6c0.2,0.2,0.5,0.3,1.1,0.3c0.3,0,0.5,0,0.7-0.1c0.2-0.1,0.3-0.2,0.3-0.4
			c0-0.2-0.1-0.3-0.2-0.4c-0.1-0.1-0.7-0.2-1.6-0.5c-0.7-0.2-1.1-0.4-1.4-0.6c-0.3-0.2-0.4-0.6-0.4-1.1c0-0.5,0.2-1,0.6-1.4
			c0.4-0.4,1-0.6,1.8-0.6c0.7,0,1.3,0.1,1.8,0.4c0.5,0.3,0.7,0.8,0.8,1.5h-1.5c0-0.2-0.1-0.4-0.2-0.5c-0.2-0.2-0.5-0.3-0.9-0.3
			c-0.3,0-0.6,0.1-0.7,0.2c-0.1,0.1-0.2,0.2-0.2,0.4c0,0.2,0.1,0.3,0.2,0.4c0.2,0.1,0.7,0.2,1.6,0.4c0.6,0.1,1.1,0.4,1.4,0.6
			c0.3,0.3,0.5,0.7,0.5,1.1c0,0.6-0.2,1.1-0.6,1.4c-0.4,0.4-1.1,0.6-2,0.6c-0.9,0-1.6-0.2-2-0.6c-0.4-0.4-0.7-0.9-0.7-1.5H191z"/>
		<path class="st3" d="M197.5,2.9H196V1.5h1.6V2.9z M196,3.6h1.6v5.9H196V3.6z"/>
		<path class="st3" d="M198.4,4.7V3.7h0.8V2h1.5v1.6h1v1.1h-1v3.1c0,0.2,0,0.4,0.1,0.4s0.2,0.1,0.6,0.1c0,0,0.1,0,0.1,0
			c0.1,0,0.1,0,0.2,0v1.1l-0.7,0c-0.7,0-1.2-0.1-1.5-0.4c-0.2-0.2-0.3-0.4-0.3-0.8V4.7H198.4z"/>
		<path class="st3" d="M204.3,2.9h-1.6V1.5h1.6V2.9z M202.7,3.6h1.6v5.9h-1.6V3.6z"/>
		<path class="st3" d="M210.6,8.7c-0.5,0.6-1.2,0.9-2.3,0.9c-1,0-1.8-0.3-2.3-0.9s-0.7-1.3-0.7-2.2c0-0.8,0.2-1.6,0.7-2.2
			c0.5-0.6,1.2-0.9,2.3-0.9c1,0,1.8,0.3,2.3,0.9c0.5,0.6,0.7,1.4,0.7,2.2C211.4,7.4,211.1,8.1,210.6,8.7z M209.4,7.9
			c0.2-0.3,0.4-0.8,0.4-1.4s-0.1-1-0.4-1.4s-0.6-0.5-1-0.5s-0.8,0.2-1,0.5C207.1,5.5,207,6,207,6.5s0.1,1,0.4,1.4
			c0.2,0.3,0.6,0.5,1,0.5S209.2,8.2,209.4,7.9z"/>
		<path class="st3" d="M217.2,3.9c0.4,0.3,0.6,0.8,0.6,1.6v3.9h-1.6V5.9c0-0.3,0-0.5-0.1-0.7c-0.1-0.3-0.4-0.5-0.9-0.5
			c-0.5,0-0.9,0.2-1.1,0.7C214,5.6,214,5.9,214,6.3v3.2h-1.5V3.6h1.5v0.9c0.2-0.3,0.4-0.5,0.6-0.6c0.3-0.2,0.7-0.4,1.2-0.4
			C216.3,3.5,216.8,3.6,217.2,3.9z"/>
		<path class="st3" d="M220.4,7.6c0,0.3,0.1,0.5,0.2,0.6c0.2,0.2,0.5,0.3,1.1,0.3c0.3,0,0.5,0,0.7-0.1c0.2-0.1,0.3-0.2,0.3-0.4
			c0-0.2-0.1-0.3-0.2-0.4c-0.1-0.1-0.7-0.2-1.6-0.5c-0.7-0.2-1.1-0.4-1.4-0.6c-0.3-0.2-0.4-0.6-0.4-1.1c0-0.5,0.2-1,0.6-1.4
			c0.4-0.4,1-0.6,1.8-0.6c0.7,0,1.3,0.1,1.8,0.4c0.5,0.3,0.7,0.8,0.8,1.5h-1.5c0-0.2-0.1-0.4-0.2-0.5c-0.2-0.2-0.5-0.3-0.9-0.3
			c-0.3,0-0.6,0.1-0.7,0.2c-0.1,0.1-0.2,0.2-0.2,0.4c0,0.2,0.1,0.3,0.2,0.4c0.2,0.1,0.7,0.2,1.6,0.4c0.6,0.1,1.1,0.4,1.4,0.6
			c0.3,0.3,0.5,0.7,0.5,1.1c0,0.6-0.2,1.1-0.6,1.4c-0.4,0.4-1.1,0.6-2,0.6c-0.9,0-1.6-0.2-2-0.6c-0.4-0.4-0.7-0.9-0.7-1.5H220.4z"/>
		<path class="st3" d="M225.8,3.8h1.6v1.6h-1.6V3.8z M225.8,7.9h1.6v1.6h-1.6V7.9z"/>
		<path class="st3" d="M238.2,8.8c-0.6,0.6-1.5,0.9-2.6,0.9s-2-0.3-2.6-0.9c-0.8-0.8-1.2-1.8-1.2-3.3c0-1.5,0.4-2.5,1.2-3.3
			c0.6-0.6,1.5-0.9,2.6-0.9s2,0.3,2.6,0.9c0.8,0.7,1.2,1.8,1.2,3.3C239.4,6.9,239,8,238.2,8.8z M237.2,7.6c0.4-0.5,0.6-1.2,0.6-2.1
			c0-0.9-0.2-1.6-0.6-2.1c-0.4-0.5-0.9-0.7-1.6-0.7s-1.2,0.2-1.6,0.7s-0.6,1.2-0.6,2.1s0.2,1.6,0.6,2.1s0.9,0.7,1.6,0.7
			S236.8,8,237.2,7.6z"/>
		<path class="st3" d="M240.7,1.5h1.7l3.1,5.5V1.5h1.5v7.9h-1.7l-3.2-5.6v5.6h-1.5V1.5z"/>
		<path class="st3" d="M248.6,1.5h1.7V8h4v1.4h-5.6V1.5z"/>
		<path class="st3" d="M259.9,1.5h1.9l-2.6,4.9v3h-1.7v-3l-2.7-4.9h2l1.6,3.4L259.9,1.5z"/>
		<path class="st3" d="M267.9,5.9c0.3,0,0.5-0.1,0.6-0.1c0.2-0.1,0.3-0.2,0.3-0.4c0-0.2-0.1-0.4-0.3-0.5c-0.2-0.1-0.4-0.1-0.7-0.1
			c-0.4,0-0.6,0.1-0.8,0.3c-0.1,0.1-0.2,0.3-0.2,0.5h-1.5c0-0.5,0.2-0.9,0.4-1.3c0.4-0.5,1.1-0.8,2.1-0.8c0.6,0,1.2,0.1,1.7,0.4
			c0.5,0.3,0.7,0.7,0.7,1.4V8c0,0.2,0,0.4,0,0.7c0,0.2,0,0.3,0.1,0.4s0.1,0.1,0.2,0.2v0.2h-1.7c0-0.1-0.1-0.2-0.1-0.3s0-0.2,0-0.4
			c-0.2,0.2-0.5,0.4-0.7,0.6c-0.3,0.2-0.7,0.3-1.1,0.3c-0.5,0-1-0.2-1.3-0.5c-0.3-0.3-0.5-0.7-0.5-1.3c0-0.7,0.3-1.2,0.8-1.6
			c0.3-0.2,0.8-0.3,1.4-0.4L267.9,5.9z M268.9,6.6c-0.1,0.1-0.2,0.1-0.3,0.1c-0.1,0-0.2,0.1-0.4,0.1l-0.3,0.1
			c-0.3,0.1-0.6,0.1-0.7,0.2c-0.2,0.1-0.4,0.4-0.4,0.6c0,0.3,0.1,0.5,0.2,0.6c0.1,0.1,0.3,0.2,0.5,0.2c0.3,0,0.6-0.1,0.9-0.3
			c0.3-0.2,0.4-0.5,0.4-1.1V6.6z"/>
		<path class="st3" d="M271.1,4.7V3.7h0.8V2h1.5v1.6h1v1.1h-1v3.1c0,0.2,0,0.4,0.1,0.4s0.2,0.1,0.6,0.1c0,0,0.1,0,0.1,0
			c0.1,0,0.1,0,0.2,0v1.1l-0.7,0c-0.7,0-1.2-0.1-1.5-0.4C272,9,272,8.7,272,8.4V4.7H271.1z"/>
		<path class="st3" d="M282,5.7c0-0.2-0.1-0.4-0.2-0.6c-0.2-0.2-0.4-0.4-0.8-0.4c-0.5,0-0.9,0.3-1.1,0.8c-0.1,0.3-0.2,0.6-0.2,1.1
			c0,0.4,0.1,0.8,0.2,1c0.2,0.5,0.5,0.7,1,0.7c0.4,0,0.6-0.1,0.8-0.3c0.2-0.2,0.2-0.4,0.3-0.8h1.6c0,0.5-0.2,0.9-0.5,1.3
			c-0.5,0.7-1.2,1-2.1,1c-0.9,0-1.6-0.3-2.1-0.8s-0.7-1.3-0.7-2.2c0-1,0.2-1.8,0.7-2.3c0.5-0.6,1.2-0.8,2-0.8c0.7,0,1.3,0.2,1.8,0.5
			c0.5,0.3,0.7,0.9,0.8,1.7H282z"/>
		<path class="st3" d="M287.8,3.5c0,0,0.1,0,0.1,0V5c-0.1,0-0.2,0-0.3,0c-0.1,0-0.1,0-0.2,0c-0.6,0-1,0.2-1.2,0.6
			c-0.1,0.2-0.2,0.6-0.2,1v2.8h-1.5V3.6h1.5v1c0.2-0.4,0.4-0.7,0.6-0.8C286.9,3.6,287.3,3.5,287.8,3.5
			C287.8,3.5,287.8,3.5,287.8,3.5z"/>
		<path class="st3" d="M293.7,8.7c-0.5,0.6-1.2,0.9-2.3,0.9c-1,0-1.8-0.3-2.3-0.9s-0.7-1.3-0.7-2.2c0-0.8,0.2-1.6,0.7-2.2
			c0.5-0.6,1.2-0.9,2.3-0.9c1,0,1.8,0.3,2.3,0.9c0.5,0.6,0.7,1.4,0.7,2.2C294.5,7.4,294.2,8.1,293.7,8.7z M292.5,7.9
			c0.2-0.3,0.4-0.8,0.4-1.4s-0.1-1-0.4-1.4s-0.6-0.5-1-0.5s-0.8,0.2-1,0.5c-0.2,0.3-0.4,0.8-0.4,1.4s0.1,1,0.4,1.4
			c0.2,0.3,0.6,0.5,1,0.5S292.3,8.2,292.5,7.9z"/>
		<path class="st3" d="M296.8,7.6c0,0.3,0.1,0.5,0.2,0.6c0.2,0.2,0.5,0.3,1.1,0.3c0.3,0,0.5,0,0.7-0.1c0.2-0.1,0.3-0.2,0.3-0.4
			c0-0.2-0.1-0.3-0.2-0.4c-0.1-0.1-0.7-0.2-1.6-0.5c-0.7-0.2-1.1-0.4-1.4-0.6c-0.3-0.2-0.4-0.6-0.4-1.1c0-0.5,0.2-1,0.6-1.4
			c0.4-0.4,1-0.6,1.8-0.6c0.7,0,1.3,0.1,1.8,0.4c0.5,0.3,0.7,0.8,0.8,1.5h-1.5c0-0.2-0.1-0.4-0.2-0.5c-0.2-0.2-0.5-0.3-0.9-0.3
			c-0.3,0-0.6,0.1-0.7,0.2c-0.1,0.1-0.2,0.2-0.2,0.4c0,0.2,0.1,0.3,0.2,0.4c0.2,0.1,0.7,0.2,1.6,0.4c0.6,0.1,1.1,0.4,1.4,0.6
			c0.3,0.3,0.5,0.7,0.5,1.1c0,0.6-0.2,1.1-0.6,1.4c-0.4,0.4-1.1,0.6-2,0.6c-0.9,0-1.6-0.2-2-0.6c-0.4-0.4-0.7-0.9-0.7-1.5H296.8z"/>
		<path class="st3" d="M302.9,7.6c0,0.3,0.1,0.5,0.2,0.6c0.2,0.2,0.5,0.3,1.1,0.3c0.3,0,0.5,0,0.7-0.1c0.2-0.1,0.3-0.2,0.3-0.4
			c0-0.2-0.1-0.3-0.2-0.4c-0.1-0.1-0.7-0.2-1.6-0.5c-0.7-0.2-1.1-0.4-1.4-0.6c-0.3-0.2-0.4-0.6-0.4-1.1c0-0.5,0.2-1,0.6-1.4
			c0.4-0.4,1-0.6,1.8-0.6c0.7,0,1.3,0.1,1.8,0.4c0.5,0.3,0.7,0.8,0.8,1.5H305c0-0.2-0.1-0.4-0.2-0.5c-0.2-0.2-0.5-0.3-0.9-0.3
			c-0.3,0-0.6,0.1-0.7,0.2C303.1,4.9,303,5,303,5.1c0,0.2,0.1,0.3,0.2,0.4c0.2,0.1,0.7,0.2,1.6,0.4c0.6,0.1,1.1,0.4,1.4,0.6
			c0.3,0.3,0.5,0.7,0.5,1.1c0,0.6-0.2,1.1-0.6,1.4c-0.4,0.4-1.1,0.6-2,0.6c-0.9,0-1.6-0.2-2-0.6c-0.4-0.4-0.7-0.9-0.7-1.5H302.9z"/>
		<path class="st3" d="M309.4,2.9h-1.6V1.5h1.6V2.9z M307.8,3.6h1.6v5.9h-1.6V3.6z"/>
		<path class="st3" d="M315.6,3.9c0.4,0.3,0.6,0.8,0.6,1.6v3.9h-1.6V5.9c0-0.3,0-0.5-0.1-0.7c-0.1-0.3-0.4-0.5-0.9-0.5
			c-0.5,0-0.9,0.2-1.1,0.7c-0.1,0.2-0.1,0.5-0.1,0.9v3.2h-1.5V3.6h1.5v0.9c0.2-0.3,0.4-0.5,0.6-0.6c0.3-0.2,0.7-0.4,1.2-0.4
			C314.7,3.5,315.2,3.6,315.6,3.9z"/>
		<path class="st3" d="M320.5,3.6c0.4,0.2,0.7,0.4,0.9,0.8V3.6h1.5v5.6c0,0.8-0.1,1.3-0.4,1.7c-0.4,0.7-1.3,1-2.5,1
			c-0.7,0-1.4-0.1-1.8-0.4s-0.7-0.7-0.8-1.3h1.7c0,0.2,0.1,0.3,0.2,0.4c0.2,0.1,0.4,0.2,0.8,0.2c0.6,0,0.9-0.2,1.1-0.6
			c0.1-0.2,0.2-0.6,0.2-1.2V8.6c-0.1,0.3-0.3,0.4-0.5,0.6c-0.3,0.2-0.7,0.3-1.2,0.3c-0.8,0-1.4-0.3-1.8-0.8
			c-0.4-0.5-0.7-1.2-0.7-2.1c0-0.9,0.2-1.6,0.6-2.2c0.4-0.6,1-0.9,1.8-0.9C320,3.5,320.3,3.5,320.5,3.6z M321,7.8
			c0.2-0.3,0.4-0.7,0.4-1.3c0-0.6-0.1-1-0.4-1.3s-0.5-0.4-0.9-0.4c-0.5,0-0.9,0.3-1.1,0.8c-0.1,0.3-0.2,0.6-0.2,1
			c0,0.3,0.1,0.6,0.2,0.9c0.2,0.5,0.6,0.7,1.1,0.7C320.5,8.2,320.8,8.1,321,7.8z"/>
		<path class="st3" d="M325.5,7.6c0,0.3,0.1,0.5,0.2,0.6c0.2,0.2,0.5,0.3,1.1,0.3c0.3,0,0.5,0,0.7-0.1c0.2-0.1,0.3-0.2,0.3-0.4
			c0-0.2-0.1-0.3-0.2-0.4c-0.1-0.1-0.7-0.2-1.6-0.5c-0.7-0.2-1.1-0.4-1.4-0.6c-0.3-0.2-0.4-0.6-0.4-1.1c0-0.5,0.2-1,0.6-1.4
			c0.4-0.4,1-0.6,1.8-0.6c0.7,0,1.3,0.1,1.8,0.4c0.5,0.3,0.7,0.8,0.8,1.5h-1.5c0-0.2-0.1-0.4-0.2-0.5c-0.2-0.2-0.5-0.3-0.9-0.3
			c-0.3,0-0.6,0.1-0.7,0.2c-0.1,0.1-0.2,0.2-0.2,0.4c0,0.2,0.1,0.3,0.2,0.4c0.2,0.1,0.7,0.2,1.6,0.4c0.6,0.1,1.1,0.4,1.4,0.6
			c0.3,0.3,0.5,0.7,0.5,1.1c0,0.6-0.2,1.1-0.6,1.4c-0.4,0.4-1.1,0.6-2,0.6c-0.9,0-1.6-0.2-2-0.6c-0.4-0.4-0.7-0.9-0.7-1.5H325.5z"/>
	</g>
	<path class="st4" d="M33.8,30.7l3.3,0l3.3,0l3.3,0.1l3.3,0.1l3.3,0.1l3.3,0.2l3.3,0.2l3.3,0.2l3.3,0.2l3.3,0.3l3.3,0.3l3.3,0.3
		l3.3,0.3l3.3,0.4l3.3,0.4l3.3,0.4l3.3,0.5l3.3,0.5l3.3,0.5l3.3,0.5l3.3,0.6l3.3,0.6l3.3,0.6l3.3,0.7l3.3,0.7l3.3,0.7l3.3,0.8
		l3.3,0.8l3.3,0.8l3.3,0.9l3.3,0.9l3.3,0.9l3.3,1l3.3,1l3.3,1l3.3,1.1l3.3,1.1l3.3,1.1l3.3,1.2l3.3,1.2l3.3,1.2l3.3,1.3l3.3,1.3
		l3.3,1.3l3.3,1.4l3.3,1.4l3.3,1.5l3.3,1.5l3.3,1.6l3.3,1.6l3.3,1.6l3.3,1.7l3.3,1.7l3.3,1.8l3.3,1.8l3.3,1.9l3.3,1.9l3.3,2l3.3,2.1
		l3.3,2.1l3.3,2.2l3.3,2.2l3.3,2.3l3.3,2.4l3.3,2.4l3.3,2.5l3.3,2.6l3.3,2.7l3.3,2.8l3.3,2.9l3.3,2.9l3.3,3l3.3,3.1l3.3,3.3l3.3,3.4
		l3.3,3.5l3.3,3.6l3.3,3.8l3.3,4l3.3,4.1l3.3,4.3l3.3,4.6l3.3,4.8l3.3,5.1l3.3,5.4l3.3,5.8l3.3,6.2l3.3,6.8l3.3,7.5l3.3,8.5l3.3,9.9
		l3.3,12.2l3.3,17.6l3.3,25.8 M33.8,48.5l3.3,0l3.3,0l3.3,0.1l3.3,0.1l3.3,0.1l3.3,0.2l3.3,0.2l3.3,0.2l3.3,0.3l3.3,0.3l3.3,0.3
		l3.3,0.3l3.3,0.4l3.3,0.4l3.3,0.4l3.3,0.5l3.3,0.5l3.3,0.5l3.3,0.6l3.3,0.6l3.3,0.6l3.3,0.7l3.3,0.7l3.3,0.7l3.3,0.8l3.3,0.8
		l3.3,0.8l3.3,0.9l3.3,0.9l3.3,0.9l3.3,1l3.3,1l3.3,1l3.3,1.1l3.3,1.1l3.3,1.2l3.3,1.2l3.3,1.2l3.3,1.3l3.3,1.3l3.3,1.4l3.3,1.4
		l3.3,1.4l3.3,1.5l3.3,1.5l3.3,1.6l3.3,1.6l3.3,1.7l3.3,1.7l3.3,1.8l3.3,1.8l3.3,1.9l3.3,2l3.3,2l3.3,2.1l3.3,2.1l3.3,2.2l3.3,2.3
		l3.3,2.4l3.3,2.4l3.3,2.5l3.3,2.6l3.3,2.7l3.3,2.8l3.3,2.9l3.3,3l3.3,3.1l3.3,3.2l3.3,3.3l3.3,3.5l3.3,3.6l3.3,3.8l3.3,3.9l3.3,4.1
		l3.3,4.3l3.3,4.6l3.3,4.8l3.3,5.2l3.3,5.5l3.3,5.9l3.3,6.5l3.3,7.2l3.3,8.1l3.3,9.4l3.3,11.5l3.3,16.4l3.3,26.2 M33.8,67.9l3.3,0
		l3.3,0l3.3,0.1l3.3,0.1l3.3,0.1l3.3,0.2l3.3,0.2l3.3,0.2l3.3,0.3l3.3,0.3l3.3,0.3l3.3,0.4l3.3,0.4l3.3,0.4l3.3,0.5l3.3,0.5l3.3,0.5
		l3.3,0.6l3.3,0.6l3.3,0.7l3.3,0.7l3.3,0.7l3.3,0.8l3.3,0.8l3.3,0.8l3.3,0.9l3.3,0.9l3.3,1l3.3,1l3.3,1l3.3,1.1l3.3,1.1l3.3,1.2
		l3.3,1.2l3.3,1.2l3.3,1.3l3.3,1.3l3.3,1.4l3.3,1.4l3.3,1.5l3.3,1.5l3.3,1.6l3.3,1.6l3.3,1.7l3.3,1.7l3.3,1.8l3.3,1.9l3.3,1.9l3.3,2
		l3.3,2.1l3.3,2.1l3.3,2.2l3.3,2.3l3.3,2.4l3.3,2.4l3.3,2.5l3.3,2.6l3.3,2.7l3.3,2.8l3.3,2.9l3.3,3.1l3.3,3.2l3.3,3.3l3.3,3.5
		l3.3,3.6l3.3,3.8l3.3,4l3.3,4.2l3.3,4.5l3.3,4.7l3.3,5.1l3.3,5.4l3.3,5.9l3.3,6.5l3.3,7.2l3.3,8.3l3.3,9.9l3.3,12.9l3.3,25.4
		l3.3,7.7 M33.8,89.3l3.3,0l3.3,0.1l3.3,0.1l3.3,0.1l3.3,0.2l3.3,0.2l3.3,0.2l3.3,0.3l3.3,0.3l3.3,0.3l3.3,0.4l3.3,0.4l3.3,0.5
		l3.3,0.5l3.3,0.5L86,94l3.3,0.6l3.3,0.7l3.3,0.7l3.3,0.7l3.3,0.8l3.3,0.8l3.3,0.9l3.3,0.9l3.3,0.9l3.3,1l3.3,1l3.3,1.1l3.3,1.1
		l3.3,1.2l3.3,1.2l3.3,1.3l3.3,1.3l3.3,1.4l3.3,1.4l3.3,1.5l3.3,1.5l3.3,1.6l3.3,1.7l3.3,1.7l3.3,1.8l3.3,1.9l3.3,1.9l3.3,2l3.3,2.1
		l3.3,2.2l3.3,2.2l3.3,2.3l3.3,2.4l3.3,2.5l3.3,2.6l3.3,2.7l3.3,2.8l3.3,3l3.3,3.1l3.3,3.3l3.3,3.4l3.3,3.6l3.3,3.8l3.3,4l3.3,4.2
		l3.3,4.5l3.3,4.9l3.3,5.2l3.3,5.7l3.3,6.3l3.3,7.1l3.3,8.3l3.3,10.1l3.3,14l3.3,25.7 M33.8,113.7l3.3,0l3.3,0.1l3.3,0.1l3.3,0.1
		l3.3,0.2l3.3,0.2l3.3,0.3l3.3,0.3l3.3,0.4l3.3,0.4l3.3,0.4l3.3,0.5l3.3,0.5l3.3,0.6l3.3,0.6l3.3,0.7l3.3,0.7l3.3,0.8l3.3,0.8
		l3.3,0.9l3.3,0.9l3.3,1l3.3,1l3.3,1.1l3.3,1.1l3.3,1.2l3.3,1.2l3.3,1.3l3.3,1.4l3.3,1.4l3.3,1.5l3.3,1.5l3.3,1.6l3.3,1.7l3.3,1.8
		l3.3,1.8l3.3,1.9l3.3,2l3.3,2.1l3.3,2.2l3.3,2.3l3.3,2.4l3.3,2.5l3.3,2.6l3.3,2.7l3.3,2.9l3.3,3l3.3,3.2l3.3,3.3l3.3,3.5l3.3,3.7
		l3.3,4l3.3,4.3l3.3,4.6l3.3,5l3.3,5.5l3.3,6.2l3.3,7l3.3,8.3l3.3,10.7l3.3,17.6l3.3,13.8 M33.8,142.5l3.3,0l3.3,0.1l3.3,0.1
		l3.3,0.2l3.3,0.2l3.3,0.3l3.3,0.3l3.3,0.4l3.3,0.4l3.3,0.5l3.3,0.6l3.3,0.6l3.3,0.7l3.3,0.7l3.3,0.8l3.3,0.8l3.3,0.9l3.3,1l3.3,1
		l3.3,1.1l3.3,1.2l3.3,1.2l3.3,1.3l3.3,1.4l3.3,1.4l3.3,1.5l3.3,1.6l3.3,1.7l3.3,1.8l3.3,1.9l3.3,2l3.3,2.1l3.3,2.2l3.3,2.3l3.3,2.4
		l3.3,2.6l3.3,2.7l3.3,2.9l3.3,3.1l3.3,3.3l3.3,3.5l3.3,3.8l3.3,4.1l3.3,4.5l3.3,5l3.3,5.6l3.3,6.5l3.3,7.9l3.3,10.4l3.3,25.6h3.3
		 M33.8,180.1l3.3,0l3.3,0.1l3.3,0.2l3.3,0.3l3.3,0.3l3.3,0.4l3.3,0.5l3.3,0.6l3.3,0.6l3.3,0.7l3.3,0.8l3.3,0.9l3.3,1l3.3,1.1
		l3.3,1.2l3.3,1.3l3.3,1.4l3.3,1.5l3.3,1.6L99,196l3.3,1.8l3.3,2l3.3,2.1l3.3,2.3l3.3,2.5l3.3,2.7l3.3,2.9l3.3,3.2l3.3,3.5l3.3,3.9
		l3.3,4.4l3.3,5.1l3.3,6l3.3,7.7l3.3,12.1l3.3,12.8"/>
	<path class="st5" d="M33.8,270.9V14.1 M74.6,270.9V14.1 M115.3,270.9V14.1 M156,270.9V14.1 M196.7,270.9V14.1 M237.5,270.9V14.1
		 M278.2,270.9V14.1 M318.9,270.9V14.1"/>
</g>
</svg>
