<?xml version="1.0" encoding="utf-8"?>
<!-- Generator: Adobe Illustrator 22.1.0, SVG Export Plug-In . SVG Version: 6.00 Build 0)  -->
<svg version="1.1" id="Layer_1" xmlns="http://www.w3.org/2000/svg" xmlns:xlink="http://www.w3.org/1999/xlink" x="0px" y="0px"
	 viewBox="0 0 211.9 73.2" style="enable-background:new 0 0 211.9 73.2;" xml:space="preserve">
<style type="text/css">
	.st0{fill:#1D1D1B;}
	.st1{fill:none;stroke:#000000;stroke-width:0.8504;stroke-miterlimit:10;}
</style>
<g>
	<g>
		<path class="st0" d="M3,8.3C2.9,8.8,2.8,9,2.8,9.2c0,0.3,0.2,0.7,0.5,0.7c0.3,0,1-0.2,1.3-1.3c0-0.1,0-0.1,0.1-0.1
			c0,0,0.1,0,0.1,0.1c0,0.2-0.6,1.5-1.6,1.5c-0.6,0-1-0.4-1.1-0.8c0,0.1-0.4,0.8-1,0.8c-0.4,0-0.9-0.2-0.9-0.7
			c0-0.3,0.2-0.6,0.5-0.6c0.1,0,0.4,0.1,0.4,0.3c0,0.3-0.2,0.5-0.5,0.5c0.2,0.1,0.4,0.1,0.5,0.1c0.4,0,0.8-0.4,0.9-1
			c0.4-1.4,0.5-2.1,0.5-2.4c0-0.6-0.3-0.7-0.5-0.7c-0.3,0-1,0.2-1.3,1.3c0,0.1-0.1,0.1-0.1,0.1c0,0-0.1,0-0.1-0.1
			c0-0.2,0.6-1.5,1.6-1.5c0.3,0,0.8,0.1,1.1,0.8c0.1-0.2,0.5-0.8,1-0.8c0.3,0,0.9,0.1,0.9,0.7c0,0.4-0.3,0.6-0.5,0.6
			c-0.3,0-0.4-0.2-0.4-0.3c0-0.2,0.2-0.5,0.5-0.5C4.6,5.8,4.4,5.8,4.3,5.8c-0.7,0-0.9,0.9-1,1.2L3,8.3z"/>
	</g>
	<g>
		<path class="st0" d="M6.8,12.5v-10h1.4v0.4h-1v9.2h1v0.4H6.8z"/>
	</g>
	<g>
		<path class="st0" d="M9.9,7.1C10,6.6,10,6.4,10,6.2c0-0.3-0.1-0.5-0.3-0.5C9.3,5.8,9.1,6.3,9,7C8.9,7.2,8.9,7.2,8.8,7.2
			c0,0-0.1,0-0.1-0.1c0,0,0.1-0.6,0.3-1C9.1,6,9.3,5.6,9.7,5.6c0.5,0,0.9,0.3,0.9,0.9c0.2-0.2,0.7-0.9,1.6-0.9
			c0.7,0,1.1,0.4,1.1,1.1c0,0.6-0.4,1.7-0.6,2.2c-0.1,0.2-0.2,0.5-0.2,0.7c0,0.2,0.1,0.3,0.2,0.3c0.5,0,0.8-0.6,1-1.2
			c0-0.1,0-0.2,0.1-0.2c0,0,0.1,0,0.1,0.1c0,0.1-0.4,1.5-1.3,1.5c-0.5,0-0.8-0.3-0.8-0.8c0-0.1,0-0.2,0.1-0.5
			c0.2-0.4,0.6-1.7,0.6-2.3c0-0.3-0.1-0.7-0.5-0.7c-0.9,0-1.5,0.9-1.6,1.2c0,0-0.1,0.3-0.1,0.5c0,0.2-0.1,0.4-0.2,0.7L10,9.1
			C10,9.3,9.9,9.8,9.8,9.8c-0.1,0.2-0.2,0.3-0.4,0.3c-0.1,0-0.3-0.1-0.3-0.3c0-0.1,0.1-0.3,0.1-0.4L9.9,7.1z"/>
	</g>
	<g>
		<path class="st0" d="M16,12.5h-1.4v-0.4h1V2.9h-1V2.5H16V12.5z"/>
	</g>
	<polyline points="28.8,9.8 33.3,7.5 28.8,5.2 29.9,7.5 	"/>
	<line class="st1" x1="19.2" y1="7.5" x2="29.9" y2="7.5"/>
	<polyline points="39.2,15.6 36.9,11.1 34.6,15.6 36.9,14.5 	"/>
	<line class="st1" x1="36.9" y1="42.9" x2="36.9" y2="14.5"/>
	<g>
		<path class="st0" d="M36.9,10.8c-1.8,0-3.3-1.5-3.3-3.3c0-1.8,1.5-3.3,3.3-3.3c1.8,0,3.3,1.5,3.3,3.3
			C40.2,9.3,38.7,10.8,36.9,10.8z M36.8,7.3V4.4c-1.6,0.1-2.8,1.3-2.9,2.9H36.8z M36.8,7.6h-2.9c0.1,1.7,1.4,2.9,2.9,2.9V7.6z
			 M37,7.3H40c-0.1-1.7-1.4-2.9-2.9-2.9V7.3z M37,7.6v2.9c1.5-0.1,2.8-1.2,2.9-2.9H37z"/>
	</g>
	<g>
		<path class="st0" d="M61,10c0,0.1,0,0.2,0,0.2c0,0.2,0.1,0.2,0.4,0.2c0.3,0,0.4,0,0.6,0c0.3,0,0.3,0,0.3,0.1
			c0,0.2-0.1,0.2-0.2,0.2c-0.3,0-0.6,0-0.9,0c-0.3,0-0.5,0-0.8,0c-0.3,0-0.6,0-0.8,0c-0.3,0-0.5,0-0.8,0c-0.1,0-0.2,0-0.2-0.1
			c0-0.2,0.1-0.2,0.4-0.2c1.1,0,1.1-0.1,1.2-0.5l1.3-5.3c0,0,0-0.1,0-0.2c0-0.1,0-0.1-0.3-0.1h-0.4c-1.5,0-1.7,0.2-2.3,1.7
			c-0.1,0.2-0.1,0.2-0.2,0.2c-0.1,0-0.1,0-0.1-0.1c0,0,0-0.2,0.1-0.2L59,4.3c0.1-0.2,0.1-0.2,0.3-0.2h5.5c0.2,0,0.3,0,0.3,0.1
			c0,0,0,0.1,0,0.2l-0.3,1.7c0,0.1,0,0.2-0.1,0.2c-0.1,0-0.1-0.1-0.1-0.1c0,0,0-0.1,0-0.2c0-0.3,0.1-0.6,0.1-0.8
			c0-0.8-0.4-0.8-1.5-0.8c-0.2,0-0.5,0-0.6,0c-0.1,0-0.2,0.1-0.2,0.4L61,10z"/>
	</g>
	<polygon class="st1" points="51.1,7.5 51.1,14.6 72.3,14.6 72.3,0.4 51.1,0.4 	"/>
	<polyline points="46.5,9.8 51.1,7.5 46.5,5.2 47.7,7.5 	"/>
	<line class="st1" x1="40.4" y1="7.5" x2="47.7" y2="7.5"/>
	<g>
		<path class="st0" d="M86.6,46.2c-1.8,0-3.3-1.5-3.3-3.3c0-1.8,1.5-3.3,3.3-3.3c1.8,0,3.3,1.5,3.3,3.3
			C89.9,44.7,88.4,46.2,86.6,46.2z M86.4,42.7v-2.9c-1.6,0.1-2.8,1.3-2.9,2.9H86.4z M86.4,43h-2.9c0.1,1.7,1.4,2.9,2.9,2.9V43z
			 M86.7,42.7h2.9c-0.1-1.7-1.4-2.9-2.9-2.9V42.7z M86.7,43v2.9c1.5-0.1,2.8-1.2,2.9-2.9H86.7z"/>
	</g>
	<polyline points="84.2,17.1 86.5,21.7 88.8,17.1 86.5,18.3 	"/>
	<line class="st1" x1="86.5" y1="7.5" x2="86.5" y2="18.3"/>
	<polyline points="84.2,34.9 86.5,39.4 88.8,34.9 86.5,36 	"/>
	<path class="st1" d="M86.5,28.8l0,7.2 M82.9,42.9H36.9"/>
	<polyline points="96.1,9.8 100.7,7.5 96.1,5.2 97.3,7.5 	"/>
	<line class="st1" x1="72.3" y1="7.5" x2="97.3" y2="7.5"/>
	<g>
		<path class="st0" d="M199,10c-0.3,1.1-1.3,2-2.3,2c-0.6,0-1.1-0.4-1.1-0.9c0-0.5,0.3-0.6,0.6-0.6c0.1,0,0.4,0,0.4,0.3
			c0,0.2-0.1,0.3-0.2,0.4c-0.1,0.1-0.3,0.1-0.4,0.1c0.2,0.4,0.6,0.4,0.8,0.4c0.5,0,0.8-0.3,1.1-0.6c0.4-0.5,0.5-1,0.6-1.5
			c-0.3,0.3-0.6,0.4-1,0.4c-0.6,0-1.2-0.3-1.2-1.2c0-0.5,0.2-1,0.6-2.1c0.1-0.2,0.2-0.4,0.2-0.7c0-0.3-0.2-0.3-0.2-0.3
			c-0.3,0-0.7,0.3-1,1.2c0,0.2-0.1,0.2-0.2,0.2c0,0-0.1,0-0.1-0.1c0-0.1,0.4-1.5,1.3-1.5c0.5,0,0.8,0.4,0.8,0.8c0,0.2,0,0.3-0.2,0.7
			c-0.3,0.9-0.5,1.5-0.5,2c0,0.4,0.1,0.8,0.6,0.8c0.7,0,1.1-0.7,1.1-0.8l0.4-1.8c0.1-0.3,0.1-0.5,0.2-0.8c0-0.2,0.1-0.5,0.1-0.5
			c0.1-0.1,0.2-0.2,0.3-0.2c0.1,0,0.3,0.1,0.3,0.3c0,0.1,0,0.1,0,0.2L199,10z"/>
	</g>
	<g>
		<path class="st0" d="M201.6,12.5v-10h1.4v0.4h-1v9.2h1v0.4H201.6z"/>
	</g>
	<g>
		<path class="st0" d="M204.6,7.1c0.1-0.5,0.2-0.6,0.2-0.8c0-0.3-0.1-0.5-0.3-0.5c-0.4,0-0.6,0.5-0.7,1.2c-0.1,0.2-0.1,0.2-0.2,0.2
			c0,0-0.1,0-0.1-0.1c0,0,0.1-0.6,0.3-1c0.1-0.2,0.3-0.6,0.7-0.6c0.5,0,0.9,0.3,0.9,0.9c0.2-0.2,0.7-0.9,1.6-0.9
			c0.7,0,1.1,0.4,1.1,1.1c0,0.6-0.4,1.7-0.6,2.2c-0.1,0.2-0.2,0.5-0.2,0.7c0,0.2,0.1,0.3,0.2,0.3c0.5,0,0.8-0.6,1-1.2
			c0.1-0.1,0.1-0.2,0.2-0.2c0,0,0.1,0,0.1,0.1c0,0.1-0.4,1.5-1.3,1.5c-0.5,0-0.8-0.3-0.8-0.8c0-0.1,0-0.2,0.1-0.5
			c0.2-0.4,0.6-1.7,0.6-2.3c0-0.3-0.1-0.7-0.5-0.7c-0.9,0-1.5,0.9-1.6,1.2c0,0-0.1,0.3-0.1,0.5c0,0.2-0.1,0.4-0.2,0.7l-0.2,0.9
			c-0.1,0.2-0.2,0.7-0.2,0.7c-0.1,0.2-0.2,0.3-0.4,0.3c-0.1,0-0.3-0.1-0.3-0.3c0-0.1,0.1-0.3,0.1-0.4L204.6,7.1z"/>
	</g>
	<g>
		<path class="st0" d="M210.7,12.5h-1.4v-0.4h1V2.9h-1V2.5h1.4V12.5z"/>
	</g>
	<g>
		<path class="st0" d="M70.3,23.2c0.2,0,0.3,0.1,0.3,0.3c0,0,0,0.1-0.1,0.3l-0.4,1.4c-0.1,0.4-0.1,0.5-0.2,0.9
			c-0.1,0.4-0.1,0.5-0.1,0.7c0,0.2,0,0.5,0.3,0.5c0.4,0,0.6-0.6,0.8-1.2c0-0.1,0-0.2,0.1-0.2c0,0,0.1,0,0.1,0.1c0,0-0.1,0.6-0.3,1
			c-0.2,0.3-0.4,0.5-0.7,0.5c-0.5,0-0.8-0.3-0.9-0.7c-0.6,0.7-1.1,0.7-1.3,0.7c-0.8,0-1.3-0.7-1.3-1.6c0-1.5,1.2-2.9,2.4-2.9
			c0.4,0,0.7,0.3,0.9,0.6C69.9,23.4,70,23.2,70.3,23.2z M69.7,24.2c0,0,0-0.1,0-0.2c0-0.1-0.1-0.9-0.8-0.9c-0.4,0-0.8,0.4-1.2,1
			c-0.2,0.5-0.5,1.7-0.5,2.2c0,0.4,0.1,0.9,0.6,0.9c0.3,0,0.7-0.2,1.1-0.7c0.1-0.2,0.1-0.2,0.2-0.4L69.7,24.2z"/>
	</g>
	<g>
		<path class="st0" d="M86.6,28.6c-1.8,0-3.3-1.5-3.3-3.3c0-1.8,1.5-3.3,3.3-3.3c1.8,0,3.3,1.5,3.3,3.3C89.9,27,88.4,28.6,86.6,28.6
			z M86.4,25.2l-2.1-2.1c-0.5,0.6-0.8,1.3-0.8,2.1c0,0.6,0.2,1.4,0.8,2.1L86.4,25.2z M86.6,25.4l-2.1,2.1c0.8,0.8,1.7,0.8,2.1,0.8
			c1.3,0,2.1-0.8,2.1-0.8c0,0-0.1-0.1-0.1-0.1L86.6,25.4z M86.6,25.1l2.1-2.1c-0.8-0.8-1.7-0.8-2.1-0.8c-1.3,0-2.1,0.8-2.1,0.8
			c0,0,0.1,0.1,0.1,0.1L86.6,25.1z M86.7,25.2l2.1,2.1c0.5-0.6,0.8-1.3,0.8-2.1c0-0.8-0.3-1.6-0.8-2.1L86.7,25.2z"/>
	</g>
	<polyline points="78.4,27.5 82.9,25.2 78.4,23 79.5,25.2 	"/>
	<line class="st1" x1="75.9" y1="25.2" x2="79.5" y2="25.2"/>
	<g>
		<path class="st0" d="M146.1,10c0,0.1,0,0.2,0,0.2c0,0.2,0.1,0.2,0.4,0.2c0.3,0,0.4,0,0.6,0c0.3,0,0.3,0,0.3,0.1
			c0,0.2-0.1,0.2-0.2,0.2c-0.3,0-0.6,0-0.9,0c-0.3,0-0.5,0-0.8,0c-0.3,0-0.6,0-0.8,0c-0.3,0-0.5,0-0.8,0c-0.1,0-0.2,0-0.2-0.1
			c0-0.2,0.1-0.2,0.4-0.2c1.1,0,1.1-0.1,1.2-0.5l1.3-5.3c0,0,0-0.1,0-0.2c0-0.1,0-0.1-0.3-0.1H146c-1.5,0-1.7,0.2-2.3,1.7
			c-0.1,0.2-0.1,0.2-0.2,0.2c-0.1,0-0.1,0-0.1-0.1c0,0,0-0.2,0.1-0.2l0.6-1.8c0.1-0.2,0.1-0.2,0.3-0.2h5.5c0.2,0,0.3,0,0.3,0.1
			c0,0,0,0.1,0,0.2l-0.3,1.7c0,0.1,0,0.2-0.1,0.2c-0.1,0-0.1-0.1-0.1-0.1c0,0,0-0.1,0-0.2c0-0.3,0.1-0.6,0.1-0.8
			c0-0.8-0.4-0.8-1.5-0.8c-0.2,0-0.5,0-0.6,0c-0.1,0-0.2,0.1-0.2,0.4L146.1,10z"/>
	</g>
	<polygon class="st1" points="136.1,7.5 136.1,14.6 157.4,14.6 157.4,0.4 136.1,0.4 	"/>
	<polyline points="124.2,33.3 121.9,28.8 119.7,33.3 121.9,32.2 	"/>
	<path class="st1" d="M121.9,32.2v10.8 M171.5,7.5v35.4"/>
	<polyline points="181.2,9.8 185.7,7.5 181.2,5.2 182.3,7.5 	"/>
	<line class="st1" x1="157.4" y1="7.5" x2="182.3" y2="7.5"/>
	<g>
		<path class="st0" d="M122,10.8c-1.8,0-3.3-1.5-3.3-3.3c0-1.8,1.5-3.3,3.3-3.3c1.8,0,3.3,1.5,3.3,3.3
			C125.3,9.3,123.8,10.8,122,10.8z M121.8,7.3V4.4c-1.6,0.1-2.8,1.3-2.9,2.9H121.8z M121.8,7.6h-2.9c0.1,1.7,1.4,2.9,2.9,2.9V7.6z
			 M122.1,7.3h3c-0.1-1.7-1.4-2.9-3-2.9V7.3z M122.1,7.6v2.9c1.5-0.1,2.9-1.2,3-2.9H122.1z"/>
	</g>
	<polyline points="124.2,15.6 121.9,11.1 119.7,15.6 121.9,14.5 	"/>
	<line class="st1" x1="121.9" y1="21.7" x2="121.9" y2="14.5"/>
	<polyline points="112.3,40.7 107.7,42.9 112.3,45.2 111.2,42.9 	"/>
	<line class="st1" x1="111.2" y1="42.9" x2="171.5" y2="42.9"/>
	<polyline points="113.8,9.8 118.4,7.5 113.8,5.2 115,7.5 	"/>
	<line class="st1" x1="107.7" y1="7.5" x2="115" y2="7.5"/>
	<polyline points="131.6,9.8 136.1,7.5 131.6,5.2 132.7,7.5 	"/>
	<line class="st1" x1="125.5" y1="7.5" x2="132.7" y2="7.5"/>
	<g>
		<path class="st0" d="M104.2,10.8c-1.8,0-3.3-1.5-3.3-3.3c0-1.8,1.5-3.3,3.3-3.3c1.8,0,3.3,1.5,3.3,3.3
			C107.5,9.3,106,10.8,104.2,10.8z M104,7.5l-2.1-2.1c-0.5,0.6-0.8,1.3-0.8,2.1c0,0.6,0.2,1.4,0.8,2.1L104,7.5z M104.2,7.6l-2.1,2.1
			c0.8,0.8,1.7,0.8,2.1,0.8c1.3,0,2.1-0.8,2.1-0.8c0,0-0.1-0.1-0.1-0.1L104.2,7.6z M104.2,7.3l2.1-2.1c-0.8-0.8-1.7-0.8-2.1-0.8
			c-1.3,0-2.1,0.8-2.1,0.8c0,0,0.1,0.1,0.1,0.1L104.2,7.3z M104.4,7.5l2.1,2.1c0.5-0.6,0.8-1.3,0.8-2.1c0-0.8-0.3-1.6-0.8-2.1
			L104.4,7.5z"/>
	</g>
	<polyline points="106.5,15.6 104.2,11.1 101.9,15.6 104.2,14.5 	"/>
	<line class="st1" x1="104.2" y1="18.1" x2="104.2" y2="14.5"/>
	<g>
		<path class="st0" d="M103.8,24.9c0.3-0.3,0.7-0.6,1.2-0.6c0.8,0,1.3,0.7,1.3,1.6c0,1.4-1.2,2.9-2.4,2.9c-0.7,0-1.3-0.6-1.3-1.6
			c0-0.3,0-0.5,0.2-1l0.8-3.2c0-0.2,0.1-0.5,0.1-0.6c0-0.1,0-0.2-0.5-0.2c-0.1,0-0.2,0-0.2-0.1c0-0.2,0.1-0.2,0.2-0.2
			c0.3,0,1-0.1,1.2-0.1c0.1,0,0.1,0.1,0.1,0.1L103.8,24.9z M103.4,26.6c-0.2,0.6-0.2,0.8-0.2,1c0,0.7,0.3,1,0.7,1
			c0.4,0,0.8-0.4,1.2-1c0.2-0.4,0.5-1.5,0.5-2.1c0-0.6-0.3-0.9-0.6-0.9c-0.3,0-0.7,0.1-1.2,0.8c-0.1,0.1-0.1,0.1-0.1,0.3L103.4,26.6
			z"/>
	</g>
	<polyline points="94.6,40.7 90,42.9 94.6,45.2 93.4,42.9 	"/>
	<line class="st1" x1="100.7" y1="42.9" x2="93.4" y2="42.9"/>
	<g>
		<path class="st0" d="M141.2,23.2c0.2,0,0.3,0.1,0.3,0.3c0,0,0,0.1-0.1,0.3l-0.4,1.4c-0.1,0.4-0.1,0.5-0.2,0.9
			c-0.1,0.4-0.1,0.5-0.1,0.7c0,0.2,0,0.5,0.3,0.5c0.4,0,0.6-0.6,0.8-1.2c0-0.1,0-0.2,0.1-0.2c0,0,0.1,0,0.1,0.1c0,0-0.1,0.6-0.3,1
			c-0.2,0.3-0.4,0.5-0.7,0.5c-0.5,0-0.8-0.3-0.9-0.7c-0.6,0.7-1.1,0.7-1.3,0.7c-0.8,0-1.3-0.7-1.3-1.6c0-1.5,1.2-2.9,2.4-2.9
			c0.4,0,0.7,0.3,0.9,0.6C140.8,23.4,140.9,23.2,141.2,23.2z M140.6,24.2c0,0,0-0.1,0-0.2c0-0.1-0.1-0.9-0.8-0.9
			c-0.4,0-0.8,0.4-1.2,1c-0.2,0.5-0.5,1.7-0.5,2.2c0,0.4,0.1,0.9,0.6,0.9c0.3,0,0.7-0.2,1.1-0.7c0.2-0.2,0.2-0.2,0.2-0.4L140.6,24.2
			z"/>
	</g>
	<g>
		<path class="st0" d="M122,28.6c-1.8,0-3.3-1.5-3.3-3.3c0-1.8,1.5-3.3,3.3-3.3c1.8,0,3.3,1.5,3.3,3.3C125.3,27,123.8,28.6,122,28.6
			z M121.8,25.2l-2.1-2.1c-0.5,0.6-0.8,1.3-0.8,2.1c0,0.6,0.2,1.4,0.8,2.1L121.8,25.2z M122,25.4l-2.1,2.1c0.8,0.8,1.7,0.8,2.1,0.8
			c1.3,0,2.1-0.8,2.1-0.8c0,0-0.1-0.1-0.1-0.1L122,25.4z M122,25.1L124,23c-0.8-0.8-1.7-0.8-2.1-0.8c-1.3,0-2.1,0.8-2.1,0.8
			c0,0,0.1,0.1,0.1,0.1L122,25.1z M122.1,25.2l2.1,2.1c0.5-0.6,0.8-1.3,0.8-2.1c0-0.8-0.3-1.6-0.8-2.1L122.1,25.2z"/>
	</g>
	<polyline points="130,23 125.5,25.2 130,27.5 128.9,25.2 	"/>
	<line class="st1" x1="128.9" y1="25.2" x2="132.6" y2="25.2"/>
	<g>
		<path class="st0" d="M104.2,46.2c-1.8,0-3.3-1.5-3.3-3.3c0-1.8,1.5-3.3,3.3-3.3c1.8,0,3.3,1.5,3.3,3.3
			C107.5,44.7,106,46.2,104.2,46.2z M104,42.9l-2.1-2.1c-0.5,0.6-0.8,1.3-0.8,2.1c0,0.6,0.2,1.4,0.8,2.1L104,42.9z M104.2,43
			l-2.1,2.1c0.8,0.8,1.7,0.8,2.1,0.8c1.3,0,2.1-0.8,2.1-0.8c0,0-0.1-0.1-0.1-0.1L104.2,43z M104.2,42.7l2.1-2.1
			c-0.8-0.8-1.7-0.8-2.1-0.8c-1.3,0-2.1,0.8-2.1,0.8c0,0,0.1,0.1,0.1,0.1L104.2,42.7z M104.4,42.9l2.1,2.1c0.5-0.6,0.8-1.3,0.8-2.1
			c0-0.8-0.3-1.6-0.8-2.1L104.4,42.9z"/>
	</g>
	<polyline points="106.5,51 104.2,46.5 101.9,51 104.2,49.9 	"/>
	<line class="st1" x1="104.2" y1="53.6" x2="104.2" y2="49.9"/>
	<g>
		<path class="st0" d="M99.5,61.3c-0.2,0-0.3,0-0.3-0.2s0.2-0.2,0.3-0.2h5.4c0.2,0,0.3,0,0.3,0.2s-0.2,0.2-0.3,0.2H99.5z"/>
	</g>
	<g>
		<path class="st0" d="M107.7,59.8c0.3-0.3,0.7-0.6,1.2-0.6c0.8,0,1.3,0.7,1.3,1.6c0,1.4-1.2,2.9-2.4,2.9c-0.7,0-1.3-0.6-1.3-1.6
			c0-0.3,0-0.5,0.2-1l0.8-3.2c0-0.2,0.1-0.5,0.1-0.6c0-0.1,0-0.2-0.5-0.2c-0.1,0-0.2,0-0.2-0.1c0-0.2,0.1-0.2,0.2-0.2
			c0.3,0,1-0.1,1.2-0.1c0.1,0,0.1,0.1,0.1,0.1L107.7,59.8z M107.3,61.5c-0.2,0.6-0.2,0.8-0.2,1c0,0.7,0.3,1,0.7,1
			c0.4,0,0.8-0.4,1.2-1c0.2-0.4,0.5-1.5,0.5-2.1c0-0.6-0.3-0.9-0.6-0.9c-0.3,0-0.7,0.1-1.2,0.8c-0.1,0.1-0.1,0.1-0.1,0.3L107.3,61.5
			z"/>
	</g>
</g>
</svg>
