<?xml version="1.0" encoding="utf-8"?>
<!-- Generator: Adobe Illustrator 22.1.0, SVG Export Plug-In . SVG Version: 6.00 Build 0)  -->
<svg version="1.1" id="Layer_1" xmlns="http://www.w3.org/2000/svg" xmlns:xlink="http://www.w3.org/1999/xlink" x="0px" y="0px"
	 viewBox="0 0 137.5 46.3" style="enable-background:new 0 0 137.5 46.3;" xml:space="preserve">
<style type="text/css">
	.st0{fill:#1D1D1B;}
	.st1{fill:none;stroke:#000000;stroke-width:0.8504;stroke-miterlimit:10;}
</style>
<g>
	<g>
		<path class="st0" d="M3,13.8c-0.1,0.4-0.2,0.7-0.2,0.9c0,0.3,0.2,0.7,0.5,0.7c0.3,0,1-0.2,1.3-1.3c0-0.1,0-0.1,0.1-0.1
			c0,0,0.1,0,0.1,0.1c0,0.2-0.6,1.5-1.6,1.5c-0.6,0-1-0.4-1.1-0.8c0,0.1-0.4,0.8-1,0.8c-0.4,0-0.9-0.2-0.9-0.7
			c0-0.3,0.2-0.6,0.5-0.6c0.1,0,0.4,0.1,0.4,0.3c0,0.3-0.2,0.5-0.5,0.5c0.2,0.1,0.4,0.1,0.5,0.1c0.4,0,0.8-0.4,0.9-1
			c0.4-1.4,0.5-2.1,0.5-2.4c0-0.6-0.3-0.7-0.5-0.7c-0.3,0-1,0.2-1.3,1.3c0,0.1-0.1,0.1-0.1,0.1c0,0-0.1,0-0.1-0.1
			c0-0.2,0.6-1.5,1.6-1.5c0.3,0,0.8,0.1,1.1,0.8c0.1-0.2,0.5-0.8,1-0.8c0.3,0,0.9,0.1,0.9,0.7c0,0.4-0.3,0.6-0.5,0.6
			c-0.3,0-0.4-0.2-0.4-0.3c0-0.2,0.2-0.5,0.5-0.5c-0.2-0.1-0.4-0.1-0.5-0.1c-0.7,0-0.9,0.9-1,1.2L3,13.8z"/>
	</g>
	<g>
		<path class="st0" d="M6.8,18V8h1.4v0.4h-1v9.2h1V18H6.8z"/>
	</g>
	<g>
		<path class="st0" d="M9.9,12.6C10,12.1,10,12,10,11.8c0-0.3-0.1-0.5-0.3-0.5c-0.4,0-0.6,0.5-0.7,1.2c-0.1,0.2-0.1,0.2-0.2,0.2
			c0,0-0.1,0-0.1-0.1c0,0,0.1-0.6,0.3-1c0.1-0.2,0.3-0.6,0.7-0.6c0.5,0,0.9,0.3,0.9,0.9c0.2-0.2,0.7-0.9,1.6-0.9
			c0.7,0,1.1,0.4,1.1,1.1c0,0.6-0.4,1.7-0.6,2.2c-0.1,0.2-0.2,0.5-0.2,0.7c0,0.2,0.1,0.3,0.2,0.3c0.5,0,0.8-0.6,1-1.2
			c0-0.1,0-0.2,0.1-0.2c0,0,0.1,0,0.1,0.1c0,0.1-0.4,1.5-1.3,1.5c-0.5,0-0.8-0.3-0.8-0.8c0-0.1,0-0.2,0.1-0.5
			c0.2-0.4,0.6-1.7,0.6-2.3c0-0.3-0.1-0.7-0.5-0.7c-0.9,0-1.5,0.9-1.6,1.2c0,0-0.1,0.3-0.1,0.5c0,0.2-0.1,0.4-0.2,0.7L10,14.6
			c-0.1,0.2-0.2,0.7-0.2,0.7c-0.1,0.2-0.2,0.3-0.4,0.3c-0.1,0-0.3-0.1-0.3-0.3c0-0.1,0.1-0.3,0.1-0.4L9.9,12.6z"/>
	</g>
	<g>
		<path class="st0" d="M16,18h-1.4v-0.4h1V8.4h-1V8H16V18z"/>
	</g>
	<polyline points="32.4,15.2 36.9,12.9 32.4,10.6 33.5,12.9 	"/>
	<line class="st1" x1="19.2" y1="12.9" x2="33.5" y2="12.9"/>
	<g>
		<path class="st0" d="M40.5,16.3c-1.8,0-3.3-1.5-3.3-3.3c0-1.8,1.5-3.3,3.3-3.3c1.8,0,3.3,1.5,3.3,3.3
			C43.8,14.8,42.3,16.3,40.5,16.3z M40.3,12.9V9.9c-1.6,0.1-2.8,1.3-2.9,2.9H40.3z M40.3,13.1h-2.9c0.1,1.7,1.4,2.9,2.9,2.9V13.1z
			 M40.6,12.9h2.9c-0.1-1.7-1.4-2.9-2.9-2.9V12.9z M40.6,13.1v2.9c1.5-0.1,2.8-1.2,2.9-2.9H40.6z"/>
	</g>
	<polyline points="71.4,15.2 75.9,12.9 71.4,10.6 72.5,12.9 	"/>
	<line class="st1" x1="44" y1="12.9" x2="72.5" y2="12.9"/>
	<polyline points="42.7,21 40.5,16.5 38.2,21 40.5,19.9 	"/>
	<line class="st1" x1="40.5" y1="34.2" x2="40.5" y2="19.9"/>
	<g>
		<path class="st0" d="M33.7,41.5c-0.1,0.6-0.2,0.9-0.2,1c0,0.3,0.1,1.2,0.9,1.2c0.1,0,1.2,0,2-1c0.1-0.1,0.1-0.1,0.1-0.1
			c0.1,0,0.1,0.1,0.1,0.1c0,0.1-0.8,1.2-2.3,1.2c-1,0-1.6-0.8-1.6-1.8c0-1.7,1.5-2.7,2.6-2.7c0.7,0,1.1,0.4,1.1,0.8
			c0,0.1,0,0.7-0.7,1c-0.5,0.2-1.2,0.2-1.5,0.2H33.7z M34.2,41.3c0.4,0,2,0,2-1c0-0.3-0.3-0.6-0.7-0.6c-0.3,0-1.3,0.1-1.7,1.7H34.2z
			"/>
	</g>
	<g>
		<path class="st0" d="M38.3,46.3v-10h1.4v0.4h-1v9.2h1v0.4H38.3z"/>
	</g>
	<g>
		<path class="st0" d="M41.3,40.9c0.1-0.5,0.2-0.6,0.2-0.8c0-0.3-0.1-0.5-0.3-0.5c-0.4,0-0.6,0.5-0.7,1.2C40.4,41,40.3,41,40.2,41
			c0,0-0.1,0-0.1-0.1c0,0,0.1-0.6,0.3-1c0.1-0.2,0.3-0.6,0.7-0.6c0.5,0,0.9,0.3,0.9,0.9c0.2-0.2,0.7-0.9,1.6-0.9
			c0.7,0,1.1,0.4,1.1,1.1c0,0.6-0.4,1.7-0.6,2.2c-0.1,0.2-0.2,0.5-0.2,0.7c0,0.2,0.1,0.3,0.2,0.3c0.5,0,0.8-0.6,1-1.2
			c0-0.1,0-0.2,0.1-0.2c0,0,0.1,0,0.1,0.1c0,0.1-0.4,1.5-1.3,1.5c-0.5,0-0.8-0.3-0.8-0.8c0-0.1,0-0.2,0.1-0.5
			c0.2-0.4,0.6-1.7,0.6-2.3c0-0.3-0.1-0.7-0.5-0.7c-0.9,0-1.5,0.9-1.6,1.2c0,0-0.1,0.3-0.1,0.5c0,0.2-0.1,0.4-0.2,0.7l-0.2,0.9
			c-0.1,0.2-0.2,0.7-0.2,0.7c-0.1,0.2-0.2,0.3-0.4,0.3c-0.1,0-0.3-0.1-0.3-0.3c0,0,0.1-0.3,0.1-0.4L41.3,40.9z"/>
	</g>
	<g>
		<path class="st0" d="M47.4,46.3h-1.4v-0.4h1v-9.2h-1v-0.4h1.4V46.3z"/>
	</g>
	<g>
		<path class="st0" d="M54.1,2.8L53.9,3l-1.1-1l-1.2,1l-0.2-0.2l1.3-1.4L54.1,2.8z"/>
	</g>
	<g>
		<path class="st0" d="M52.7,6.7c-0.1,0.4-0.2,0.7-0.2,0.9c0,0.3,0.2,0.7,0.5,0.7c0.3,0,1-0.2,1.3-1.3c0-0.1,0-0.1,0.1-0.1
			c0,0,0.1,0,0.1,0.1c0,0.2-0.6,1.5-1.6,1.5c-0.6,0-1-0.4-1.1-0.8c0,0.1-0.4,0.8-1,0.8c-0.4,0-0.9-0.2-0.9-0.7
			c0-0.3,0.2-0.6,0.5-0.6c0.1,0,0.4,0.1,0.4,0.3c0,0.3-0.2,0.5-0.5,0.5c0.2,0.1,0.4,0.1,0.5,0.1c0.4,0,0.8-0.4,0.9-1
			c0.4-1.4,0.5-2.1,0.5-2.4c0-0.6-0.3-0.7-0.5-0.7c-0.3,0-1,0.2-1.3,1.3c0,0.1-0.1,0.1-0.1,0.1c0,0-0.1,0-0.1-0.1
			c0-0.2,0.6-1.5,1.6-1.5c0.3,0,0.8,0.1,1.1,0.8C53.1,4.5,53.4,4,54,4c0.3,0,0.9,0.1,0.9,0.7c0,0.4-0.3,0.6-0.5,0.6
			C54.1,5.2,54,5,54,4.9c0-0.2,0.2-0.5,0.5-0.5C54.3,4.2,54,4.2,54,4.2c-0.7,0-0.9,0.9-1,1.2L52.7,6.7z"/>
	</g>
	<g>
		<path class="st0" d="M56.5,10.9v-10h1.4v0.4h-1v9.2h1v0.4H56.5z"/>
	</g>
	<g>
		<path class="st0" d="M59.5,5.5c0.1-0.5,0.2-0.6,0.2-0.8c0-0.3-0.1-0.5-0.3-0.5c-0.4,0-0.6,0.5-0.7,1.2c-0.1,0.2-0.1,0.2-0.2,0.2
			c0,0-0.1,0-0.1-0.1c0,0,0.1-0.6,0.3-1C58.8,4.4,59,4,59.4,4c0.5,0,0.9,0.3,0.9,0.9C60.5,4.6,61,4,61.9,4C62.6,4,63,4.4,63,5
			c0,0.6-0.4,1.7-0.6,2.2c-0.1,0.2-0.2,0.5-0.2,0.7c0,0.2,0.1,0.3,0.2,0.3c0.5,0,0.8-0.6,1-1.2c0-0.1,0-0.2,0.1-0.2
			c0,0,0.1,0,0.1,0.1c0,0.1-0.4,1.5-1.3,1.5c-0.5,0-0.8-0.3-0.8-0.8c0-0.1,0-0.2,0.1-0.5c0.2-0.4,0.6-1.7,0.6-2.3
			c0-0.3-0.1-0.7-0.5-0.7c-0.9,0-1.5,0.9-1.6,1.2c0,0-0.1,0.3-0.1,0.5c0,0.2-0.1,0.4-0.2,0.7l-0.2,0.9c-0.1,0.2-0.2,0.7-0.2,0.7
			c-0.1,0.2-0.2,0.3-0.4,0.3c-0.1,0-0.3-0.1-0.3-0.3c0-0.1,0.1-0.3,0.1-0.4L59.5,5.5z"/>
	</g>
	<g>
		<path class="st0" d="M65.7,10.9h-1.4v-0.4h1V1.3h-1V0.9h1.4V10.9z"/>
	</g>
	<g>
		<path class="st0" d="M83.6,11.8c0.4-0.5,0.8-0.8,1.5-0.8c0.7,0,1.1,0.4,1.1,1.1c0,0.6-0.4,1.8-0.6,2.2c-0.1,0.2-0.2,0.5-0.2,0.7
			c0,0.2,0.1,0.3,0.2,0.3c0.5,0,0.9-0.7,1-1.2c0-0.1,0-0.2,0.1-0.2c0,0,0.1,0,0.1,0.1c0,0.1-0.4,1.5-1.3,1.5c-0.5,0-0.8-0.3-0.8-0.8
			c0-0.2,0-0.3,0.1-0.5c0.2-0.6,0.6-1.7,0.6-2.2c0-0.4-0.1-0.7-0.5-0.7s-0.7,0.2-1,0.3c-0.3,0.3-0.6,0.8-0.7,0.9
			c0,0.1-0.1,0.4-0.1,0.4c0,0.2-0.1,0.4-0.2,0.7l-0.2,0.9l-0.2,0.8c0,0.1-0.2,0.3-0.4,0.3c-0.1,0-0.3,0-0.3-0.3c0-0.1,0-0.1,0-0.2
			l1.4-5.7l0-0.2c0-0.1,0-0.2-0.5-0.2c-0.1,0-0.2,0-0.2-0.1c0-0.2,0.1-0.2,0.2-0.2c0.3,0,1-0.1,1.2-0.1c0.1,0,0.1,0.1,0.1,0.1
			L83.6,11.8z"/>
	</g>
	<g>
		<path class="st0" d="M88.4,18V8h1.4v0.4h-1v9.2h1V18H88.4z"/>
	</g>
	<g>
		<path class="st0" d="M91.5,12.6c0.1-0.5,0.2-0.6,0.2-0.8c0-0.3-0.1-0.5-0.3-0.5c-0.4,0-0.6,0.5-0.7,1.2c-0.1,0.2-0.1,0.2-0.2,0.2
			c0,0-0.1,0-0.1-0.1c0,0,0.1-0.6,0.3-1c0.1-0.2,0.3-0.6,0.7-0.6c0.5,0,0.9,0.3,0.9,0.9c0.2-0.2,0.7-0.9,1.6-0.9
			c0.7,0,1.1,0.4,1.1,1.1c0,0.6-0.4,1.7-0.6,2.2c-0.1,0.2-0.2,0.5-0.2,0.7c0,0.2,0.1,0.3,0.2,0.3c0.5,0,0.8-0.6,1-1.2
			c0.1-0.1,0.1-0.2,0.2-0.2c0,0,0.1,0,0.1,0.1c0,0.1-0.4,1.5-1.3,1.5c-0.5,0-0.8-0.3-0.8-0.8c0-0.1,0-0.2,0.1-0.5
			c0.2-0.4,0.6-1.7,0.6-2.3c0-0.3-0.1-0.7-0.5-0.7c-0.9,0-1.5,0.9-1.6,1.2c0,0-0.1,0.3-0.1,0.5c0,0.2-0.1,0.4-0.2,0.7l-0.2,0.9
			c-0.1,0.2-0.2,0.7-0.2,0.7c-0.1,0.2-0.2,0.3-0.4,0.3c-0.1,0-0.3-0.1-0.3-0.3c0-0.1,0.1-0.3,0.1-0.4L91.5,12.6z"/>
	</g>
	<g>
		<path class="st0" d="M97.6,18h-1.4v-0.4h1V8.4h-1V8h1.4V18z"/>
	</g>
	<polygon class="st1" points="75.9,12.9 75.9,23.5 104.3,23.5 104.3,2.3 75.9,2.3 	"/>
	<polyline points="113.9,15.2 118.4,12.9 113.9,10.6 115,12.9 	"/>
	<line class="st1" x1="104.3" y1="12.9" x2="115" y2="12.9"/>
	<g>
		<path class="st0" d="M124.6,15.5c-0.3,1.1-1.3,2-2.3,2c-0.6,0-1.1-0.4-1.1-0.9c0-0.5,0.3-0.6,0.6-0.6c0.1,0,0.4,0,0.4,0.3
			c0,0.2-0.1,0.3-0.2,0.4c-0.1,0.1-0.3,0.1-0.4,0.1c0.2,0.4,0.6,0.4,0.8,0.4c0.5,0,0.8-0.3,1.1-0.6c0.4-0.5,0.5-1,0.6-1.5
			c-0.3,0.3-0.6,0.4-1,0.4c-0.6,0-1.2-0.3-1.2-1.2c0-0.5,0.2-1,0.6-2.1c0.1-0.2,0.2-0.4,0.2-0.7c0-0.3-0.2-0.3-0.2-0.3
			c-0.3,0-0.7,0.3-1,1.2c0,0.2-0.1,0.2-0.2,0.2c0,0-0.1,0-0.1-0.1c0-0.1,0.4-1.5,1.3-1.5c0.5,0,0.8,0.4,0.8,0.8c0,0.2,0,0.3-0.2,0.7
			c-0.3,0.9-0.5,1.5-0.5,2c0,0.4,0.1,0.8,0.6,0.8c0.7,0,1.1-0.7,1.1-0.8l0.4-1.8c0.1-0.3,0.1-0.5,0.2-0.8c0-0.2,0.1-0.5,0.1-0.5
			c0.1-0.1,0.2-0.2,0.3-0.2c0.1,0,0.3,0.1,0.3,0.3c0,0.1,0,0.1,0,0.2L124.6,15.5z"/>
	</g>
	<g>
		<path class="st0" d="M127.2,18V8h1.4v0.4h-1v9.2h1V18H127.2z"/>
	</g>
	<g>
		<path class="st0" d="M130.2,12.6c0.1-0.5,0.2-0.6,0.2-0.8c0-0.3-0.1-0.5-0.3-0.5c-0.4,0-0.6,0.5-0.7,1.2c-0.1,0.2-0.1,0.2-0.2,0.2
			c0,0-0.1,0-0.1-0.1c0,0,0.1-0.6,0.3-1c0.1-0.2,0.3-0.6,0.7-0.6c0.5,0,0.9,0.3,0.9,0.9c0.2-0.2,0.7-0.9,1.6-0.9
			c0.7,0,1.1,0.4,1.1,1.1c0,0.6-0.4,1.7-0.6,2.2c-0.1,0.2-0.2,0.5-0.2,0.7c0,0.2,0.1,0.3,0.2,0.3c0.5,0,0.8-0.6,1-1.2
			c0.1-0.1,0.1-0.2,0.2-0.2c0,0,0.1,0,0.1,0.1c0,0.1-0.4,1.5-1.3,1.5c-0.5,0-0.8-0.3-0.8-0.8c0-0.1,0-0.2,0.1-0.5
			c0.2-0.4,0.6-1.7,0.6-2.3c0-0.3-0.1-0.7-0.5-0.7c-0.9,0-1.5,0.9-1.6,1.2c0,0-0.1,0.3-0.1,0.5c0,0.2-0.1,0.4-0.2,0.7l-0.2,0.9
			c-0.1,0.2-0.2,0.7-0.2,0.7c-0.1,0.2-0.2,0.3-0.4,0.3c-0.1,0-0.3-0.1-0.3-0.3c0-0.1,0.1-0.3,0.1-0.4L130.2,12.6z"/>
	</g>
	<g>
		<path class="st0" d="M136.3,18H135v-0.4h1V8.4h-1V8h1.4V18z"/>
	</g>
</g>
</svg>
