<?xml version="1.0" encoding="utf-8"?>
<!-- Generator: Adobe Illustrator 22.1.0, SVG Export Plug-In . SVG Version: 6.00 Build 0)  -->
<svg version="1.1" id="Layer_1" xmlns="http://www.w3.org/2000/svg" xmlns:xlink="http://www.w3.org/1999/xlink" x="0px" y="0px"
	 viewBox="0 0 595.3 841.9" style="enable-background:new 0 0 595.3 841.9;" xml:space="preserve">
<style type="text/css">
	.st0{fill:none;stroke:#000000;stroke-width:0.8504;stroke-miterlimit:10;}
	.st1{fill:#1D1D1B;}
	.st2{fill:none;stroke:#FF0000;stroke-width:1.4173;stroke-miterlimit:10;}
	.st3{fill:none;stroke:#FF0000;stroke-width:0.8504;stroke-miterlimit:10;}
</style>
<g>
	<polyline points="184.4,438.3 188.9,436 184.4,433.7 185.5,436 	"/>
	<line class="st0" x1="111" y1="436" x2="185.5" y2="436"/>
	<polyline points="152.2,412.2 149.9,407.7 147.7,412.2 149.9,411.1 	"/>
	<line class="st0" x1="149.9" y1="460.8" x2="149.9" y2="411.1"/>
	<g>
		<path class="st1" d="M196.1,436.5c-0.1,0.4-0.2,0.7-0.2,0.9c0,0.3,0.2,0.7,0.5,0.7c0.3,0,1-0.2,1.3-1.3c0-0.1,0-0.1,0.1-0.1
			c0,0,0.1,0,0.1,0.1c0,0.2-0.6,1.5-1.6,1.5c-0.6,0-1-0.4-1.1-0.8c0,0.1-0.4,0.8-1,0.8c-0.4,0-0.9-0.2-0.9-0.7
			c0-0.3,0.2-0.6,0.5-0.6c0.1,0,0.4,0.1,0.4,0.3c0,0.3-0.2,0.5-0.5,0.5c0.2,0.1,0.4,0.1,0.5,0.1c0.4,0,0.8-0.4,0.9-1
			c0.4-1.4,0.5-2.1,0.5-2.4c0-0.6-0.3-0.7-0.5-0.7c-0.3,0-1,0.2-1.3,1.3c0,0.1-0.1,0.1-0.1,0.1c0,0-0.1,0-0.1-0.1
			c0-0.3,0.6-1.5,1.6-1.5c0.3,0,0.8,0.1,1.1,0.8c0.1-0.2,0.5-0.8,1-0.8c0.3,0,0.9,0.1,0.9,0.7c0,0.4-0.3,0.6-0.5,0.6
			c-0.3,0-0.4-0.2-0.4-0.3c0-0.2,0.2-0.5,0.5-0.5c-0.2-0.1-0.4-0.1-0.5-0.1c-0.7,0-0.9,0.9-1,1.2L196.1,436.5z"/>
	</g>
	<g>
		<path class="st1" d="M151.6,398.5l-0.2,0.2l-1.1-1l-1.2,1l-0.2-0.2l1.3-1.4L151.6,398.5z"/>
	</g>
	<g>
		<path class="st1" d="M150.1,402.4c-0.1,0.4-0.2,0.7-0.2,0.9c0,0.3,0.2,0.7,0.5,0.7c0.3,0,1-0.2,1.3-1.3c0-0.1,0-0.1,0.1-0.1
			c0,0,0.1,0,0.1,0.1c0,0.2-0.6,1.5-1.6,1.5c-0.6,0-1-0.4-1.1-0.8c0,0.1-0.4,0.8-1,0.8c-0.4,0-0.9-0.2-0.9-0.7
			c0-0.3,0.2-0.6,0.5-0.6c0.1,0,0.4,0.1,0.4,0.3c0,0.3-0.2,0.5-0.5,0.5c0.2,0.1,0.4,0.1,0.5,0.1c0.4,0,0.8-0.4,0.9-1
			c0.4-1.4,0.5-2.1,0.5-2.4c0-0.6-0.3-0.7-0.5-0.7c-0.3,0-1,0.2-1.3,1.3c0,0.1-0.1,0.1-0.1,0.1c0,0-0.1,0-0.1-0.1
			c0-0.2,0.6-1.5,1.6-1.5c0.3,0,0.8,0.1,1.1,0.8c0.1-0.2,0.5-0.8,1-0.8c0.3,0,0.9,0.1,0.9,0.7c0,0.4-0.3,0.6-0.5,0.6
			c-0.3,0-0.4-0.2-0.4-0.3c0-0.2,0.2-0.5,0.5-0.5c-0.2-0.1-0.4-0.1-0.5-0.1c-0.7,0-0.9,0.9-1,1.2L150.1,402.4z"/>
	</g>
	<line class="st0" x1="128.7" y1="457.3" x2="171.2" y2="414.7"/>
	<g>
		<path class="st1" d="M131.9,386.9c0,1.1-0.8,2.1-2,2.1c-0.9,0-1.5-0.4-1.8-0.7c-0.3,0.5-0.4,0.6-0.4,0.6c-0.1,0.1-0.1,0.1-0.1,0.1
			c-0.1,0-0.1-0.1-0.1-0.2v-2c0-0.2,0-0.2,0.1-0.2c0,0,0.1,0,0.1,0.1c0,0.4,0,1,0.6,1.5c0.5,0.5,1.3,0.5,1.6,0.5
			c0.8,0,1.3-0.7,1.3-1.4c0-0.3-0.1-0.7-0.3-0.9c-0.3-0.4-0.6-0.4-0.8-0.5c-0.7-0.2-1.2-0.3-1.3-0.3c-0.8-0.3-1.3-1-1.3-1.8
			c0-1.1,0.8-1.9,1.9-1.9c0.9,0,1.3,0.4,1.6,0.7l0.3-0.6c0.1-0.1,0.1-0.1,0.1-0.1c0.1,0,0.1,0.1,0.1,0.2v2c0,0.2,0,0.2-0.1,0.2
			c-0.1,0-0.1-0.1-0.1-0.1c-0.1-0.4-0.3-2.1-1.9-2.1c-0.8,0-1.3,0.6-1.3,1.3c0,0.6,0.4,1.1,1,1.3l1.3,0.3
			C131.2,385.1,131.9,386,131.9,386.9z"/>
		<path class="st1" d="M134.5,388.9c-0.6,0-1.6-0.2-1.6-1.1c0-0.4,0.2-1,1-1.3c0.6-0.3,1.3-0.3,1.8-0.4v-0.4c0-0.9-0.6-1.3-1.1-1.3
			c-0.3,0-0.8,0.1-1.1,0.5c0.5,0,0.5,0.3,0.5,0.5c0,0.3-0.2,0.5-0.5,0.5c-0.3,0-0.5-0.2-0.5-0.5c0-0.7,0.7-1.1,1.5-1.1
			c0.5,0,1,0.2,1.4,0.5c0.4,0.4,0.4,0.8,0.4,1.2v2c0,0,0,0.5,0.4,0.5c0.1,0,0.4-0.1,0.4-0.6v-0.6h0.2v0.6c0,0.8-0.6,0.9-0.8,0.9
			c-0.5,0-0.7-0.4-0.8-0.8C135.6,388.5,135.1,388.9,134.5,388.9z M133.6,387.8c0,0.5,0.4,0.8,0.9,0.8c0.4,0,1.2-0.3,1.2-1.3v-1
			C134,386.5,133.6,387.3,133.6,387.8z"/>
		<path class="st1" d="M139.2,387.6c0,0.2,0,1.1,0.7,1.1c0.4,0,0.7-0.4,0.7-1.1V387h0.2v0.6c0,0.6-0.3,1.3-1,1.3
			c-0.4,0-1.3-0.1-1.3-1.3v-2.8h-0.8v-0.2c1,0,1.3-1.1,1.3-1.9h0.2v1.8h1.4v0.3h-1.4V387.6z"/>
		<path class="st1" d="M143.9,388.9c-1.5,0-1.5-0.9-1.5-1.7v-1.5c0-0.9,0-0.9-0.8-0.9v-0.3l1.5-0.1v3.3c0,0.5,0,1,0.9,1
			c0.7,0,1.2-0.7,1.2-1.5v-1.8c0-0.5-0.1-0.6-0.8-0.6v-0.3l1.5-0.1v3.5c0,0.5,0.1,0.6,0.8,0.6v0.3l-1.4,0.1V388
			C144.9,388.6,144.5,388.9,143.9,388.9z"/>
		<path class="st1" d="M149.7,384.4c0.4,0,0.7,0.3,0.7,0.6s-0.2,0.4-0.4,0.4c-0.2,0-0.4-0.1-0.4-0.4c0-0.3,0.2-0.4,0.2-0.4
			c0,0,0,0-0.1,0c-0.8,0-1.2,0.9-1.2,1.9v1.5c0,0.4,0,0.5,0.8,0.5h0.2v0.3c-0.4,0-0.9,0-1.3,0c-0.3,0-0.7,0-1.1,0v-0.3
			c0.7,0,0.8,0,0.8-0.4v-2.7c0-0.5-0.1-0.6-0.8-0.6v-0.3l1.4-0.1v1.1C148.7,385.1,149,384.4,149.7,384.4z"/>
		<path class="st1" d="M152.8,388.9c-0.6,0-1.6-0.2-1.6-1.1c0-0.4,0.2-1,1-1.3c0.6-0.3,1.3-0.3,1.8-0.4v-0.4c0-0.9-0.6-1.3-1.1-1.3
			c-0.3,0-0.8,0.1-1.1,0.5c0.5,0,0.5,0.3,0.5,0.5c0,0.3-0.2,0.5-0.5,0.5c-0.3,0-0.5-0.2-0.5-0.5c0-0.7,0.7-1.1,1.5-1.1
			c0.5,0,1,0.2,1.4,0.5c0.4,0.4,0.4,0.8,0.4,1.2v2c0,0,0,0.5,0.4,0.5c0.1,0,0.4-0.1,0.4-0.6v-0.6h0.2v0.6c0,0.8-0.6,0.9-0.8,0.9
			c-0.5,0-0.7-0.4-0.8-0.8C153.9,388.5,153.4,388.9,152.8,388.9z M151.9,387.8c0,0.5,0.4,0.8,0.9,0.8c0.4,0,1.2-0.3,1.2-1.3v-1
			C152.4,386.5,151.9,387.3,151.9,387.8z"/>
		<path class="st1" d="M157.5,387.6c0,0.2,0,1.1,0.7,1.1c0.4,0,0.7-0.4,0.7-1.1V387h0.2v0.6c0,0.6-0.3,1.3-1,1.3
			c-0.4,0-1.3-0.1-1.3-1.3v-2.8h-0.8v-0.2c1,0,1.3-1.1,1.3-1.9h0.2v1.8h1.4v0.3h-1.4V387.6z"/>
		<path class="st1" d="M161.4,388.1c0,0.4,0,0.4,0.7,0.4v0.3c-0.3,0-0.7,0-1,0c-0.2,0-0.8,0-1.1,0v-0.3c0.7,0,0.8,0,0.8-0.4v-2.7
			c0-0.5-0.1-0.5-0.7-0.5v-0.3l1.4-0.1V388.1z M160.9,383.2c-0.3,0-0.5-0.3-0.5-0.5c0-0.3,0.2-0.5,0.5-0.5c0.3,0,0.5,0.2,0.5,0.5
			S161.2,383.2,160.9,383.2z"/>
		<path class="st1" d="M164.9,388.9c-1.2,0-2.2-1-2.2-2.2c0-1.2,1-2.3,2.2-2.3c1.2,0,2.2,1.1,2.2,2.3
			C167.1,387.9,166.1,388.9,164.9,388.9z M166,387.9c0.2-0.4,0.2-1,0.2-1.3c0-0.4,0-1-0.3-1.4c-0.3-0.4-0.7-0.6-1.1-0.6
			c-0.4,0-0.9,0.2-1.1,0.7c-0.2,0.4-0.2,1-0.2,1.4c0,0.4,0,1,0.2,1.4c0.3,0.5,0.7,0.7,1.1,0.7C165.4,388.7,165.8,388.4,166,387.9z"
			/>
		<path class="st1" d="M167.7,384.8v-0.3l1.4-0.1v1c0.3-0.6,0.7-1,1.5-1c0.6,0,0.9,0.2,1,0.4c0.3,0.4,0.3,0.7,0.3,1.5v1.9
			c0,0.3,0.3,0.3,0.8,0.3v0.3c-0.3,0-0.9,0-1.1,0c-0.3,0-0.8,0-1.1,0v-0.3c0.7,0,0.8,0,0.8-0.4v-2.3c0-0.6-0.1-1.1-0.7-1.1
			c-0.6,0-1.3,0.6-1.3,1.6v1.8c0,0.4,0.1,0.4,0.8,0.4v0.3c-0.3,0-0.9,0-1.1,0c-0.3,0-0.8,0-1.1,0v-0.3c0.7,0,0.8,0,0.8-0.4v-2.7
			C168.5,384.9,168.4,384.8,167.7,384.8z"/>
	</g>
	<polyline points="126.9,390.4 173,390.4 173,389.9 126.9,389.9 	"/>
	<path class="st2" d="M171.2,414.7h14.2 M128.7,457.3h-14.2"/>
	<path class="st0" d="M171.2,432.5v7.1 M128.7,439.6v-7.1 M146.4,457.3h7.1 M146.4,414.7h7.1"/>
	<g>
		<path class="st1" d="M172.7,439.5c0.1-0.1,0.1-0.2,0.3-0.2c0.2,0,0.2,0,0.2,0.2l0.6,6.2c0,0.3,0,0.4,0.6,0.4c0.1,0,0.2,0,0.2,0.1
			c0,0.2-0.1,0.2-0.2,0.2c-0.2,0-0.9,0-1.1,0c-0.4,0-0.8,0-1.2,0c0,0-0.1,0-0.1-0.1c0-0.2,0.1-0.2,0.2-0.2c0.2,0,0.7,0,0.7-0.3
			c0-0.1-0.1-1.5-0.2-1.7h-2.5l-0.8,1.3c-0.1,0.1-0.1,0.2-0.1,0.4c0,0.2,0.2,0.3,0.5,0.3c0.1,0,0.2,0,0.2,0.1c0,0.2-0.1,0.2-0.2,0.2
			c-0.3,0-0.7,0-1,0c-0.3,0-0.6,0-0.9,0c-0.1,0-0.1,0-0.1-0.1c0-0.2,0.1-0.2,0.2-0.2c0.4,0,0.8-0.2,1.2-0.8L172.7,439.5z
			 M172.7,443.8l-0.3-3.3l-2,3.3H172.7z"/>
	</g>
	<g>
		<path class="st1" d="M123.4,444.6V444h2.6v0.6H123.4z"/>
	</g>
	<g>
		<path class="st1" d="M131.9,439.5c0.1-0.1,0.1-0.2,0.3-0.2c0.2,0,0.2,0,0.2,0.2l0.6,6.2c0,0.3,0,0.4,0.6,0.4c0.1,0,0.2,0,0.2,0.1
			c0,0.2-0.1,0.2-0.2,0.2c-0.2,0-0.9,0-1.1,0c-0.4,0-0.8,0-1.2,0c0,0-0.1,0-0.1-0.1c0-0.2,0.1-0.2,0.2-0.2c0.2,0,0.7,0,0.7-0.3
			c0-0.1-0.1-1.5-0.2-1.7h-2.5l-0.8,1.3c-0.1,0.1-0.1,0.2-0.1,0.4c0,0.2,0.2,0.3,0.5,0.3c0.1,0,0.2,0,0.2,0.1c0,0.2-0.1,0.2-0.2,0.2
			c-0.3,0-0.7,0-1,0c-0.3,0-0.6,0-0.9,0c-0.1,0-0.1,0-0.1-0.1c0-0.2,0.1-0.2,0.2-0.2c0.4,0,0.8-0.2,1.2-0.8L131.9,439.5z
			 M131.9,443.8l-0.3-3.3l-2,3.3H131.9z"/>
	</g>
	<g>
		<path class="st1" d="M140.9,411.1c0.1-0.1,0.1-0.2,0.3-0.2c0.2,0,0.2,0,0.2,0.2l0.6,6.2c0,0.3,0,0.4,0.6,0.4c0.1,0,0.2,0,0.2,0.1
			c0,0.2-0.1,0.2-0.2,0.2c-0.2,0-0.9,0-1.1,0c-0.4,0-0.8,0-1.2,0c0,0-0.1,0-0.1-0.1c0-0.2,0.1-0.2,0.2-0.2c0.2,0,0.7,0,0.7-0.3
			c0-0.1-0.1-1.5-0.2-1.7h-2.5l-0.8,1.3c-0.1,0.1-0.1,0.2-0.1,0.4c0,0.2,0.2,0.3,0.5,0.3c0.1,0,0.2,0,0.2,0.1c0,0.2-0.1,0.2-0.2,0.2
			c-0.3,0-0.7,0-1,0c-0.3,0-0.6,0-0.9,0c-0.1,0-0.1,0-0.1-0.1c0-0.2,0.1-0.2,0.2-0.2c0.4,0,0.8-0.2,1.2-0.8L140.9,411.1z
			 M140.9,415.5l-0.3-3.3l-2,3.3H140.9z"/>
	</g>
	<g>
		<path class="st1" d="M134,458.8v-0.6h2.6v0.6H134z"/>
	</g>
	<g>
		<path class="st1" d="M142.5,453.7c0.1-0.1,0.1-0.2,0.3-0.2c0.2,0,0.2,0,0.2,0.2l0.6,6.2c0,0.3,0,0.4,0.6,0.4c0.1,0,0.2,0,0.2,0.1
			c0,0.2-0.1,0.2-0.2,0.2c-0.2,0-0.9,0-1.1,0c-0.4,0-0.8,0-1.2,0c0,0-0.1,0-0.1-0.1c0-0.2,0.1-0.2,0.2-0.2c0.2,0,0.7,0,0.7-0.3
			c0-0.1-0.1-1.5-0.2-1.7h-2.5l-0.8,1.3c-0.1,0.1-0.1,0.2-0.1,0.4c0,0.2,0.2,0.3,0.5,0.3c0.1,0,0.2,0,0.2,0.1c0,0.2-0.1,0.2-0.2,0.2
			c-0.3,0-0.7,0-1,0c-0.3,0-0.6,0-0.9,0c-0.1,0-0.1,0-0.1-0.1c0-0.2,0.1-0.2,0.2-0.2c0.4,0,0.8-0.2,1.2-0.8L142.5,453.7z M142.5,458
			l-0.3-3.3l-2,3.3H142.5z"/>
	</g>
	<polyline points="460.8,438.3 465.3,436 460.8,433.7 461.9,436 	"/>
	<line class="st0" x1="320" y1="436" x2="461.9" y2="436"/>
	<polyline points="393.2,412.2 390.9,407.7 388.6,412.2 390.9,411.1 	"/>
	<line class="st0" x1="390.9" y1="460.8" x2="390.9" y2="411.1"/>
	<g>
		<path class="st1" d="M479.6,436.5c-0.1,0.4-0.2,0.7-0.2,0.9c0,0.3,0.2,0.7,0.5,0.7c0.3,0,1-0.2,1.3-1.3c0-0.1,0-0.1,0.1-0.1
			c0,0,0.1,0,0.1,0.1c0,0.2-0.6,1.5-1.6,1.5c-0.6,0-1-0.4-1.1-0.8c0,0.1-0.4,0.8-1,0.8c-0.4,0-0.9-0.2-0.9-0.7
			c0-0.3,0.2-0.6,0.5-0.6c0.1,0,0.4,0.1,0.4,0.3c0,0.3-0.2,0.5-0.5,0.5c0.2,0.1,0.4,0.1,0.5,0.1c0.4,0,0.8-0.4,0.9-1
			c0.4-1.4,0.5-2.1,0.5-2.4c0-0.6-0.3-0.7-0.5-0.7c-0.3,0-1,0.2-1.3,1.3c0,0.1,0,0.1-0.1,0.1c0,0-0.1,0-0.1-0.1
			c0-0.3,0.6-1.5,1.6-1.5c0.3,0,0.8,0.1,1.1,0.8c0.1-0.2,0.5-0.8,1-0.8c0.3,0,0.9,0.1,0.9,0.7c0,0.4-0.3,0.6-0.5,0.6
			c-0.3,0-0.4-0.2-0.4-0.3c0-0.2,0.2-0.5,0.5-0.5c-0.2-0.1-0.4-0.1-0.5-0.1c-0.7,0-0.9,0.9-1,1.2L479.6,436.5z"/>
	</g>
	<g>
		<path class="st1" d="M392.5,398.5l-0.2,0.2l-1.1-1l-1.2,1l-0.2-0.2l1.3-1.4L392.5,398.5z"/>
	</g>
	<g>
		<path class="st1" d="M391,402.4c-0.1,0.4-0.2,0.7-0.2,0.9c0,0.3,0.2,0.7,0.5,0.7c0.3,0,1-0.2,1.3-1.3c0-0.1,0-0.1,0.1-0.1
			c0,0,0.1,0,0.1,0.1c0,0.2-0.6,1.5-1.6,1.5c-0.6,0-1-0.4-1.1-0.8c0,0.1-0.4,0.8-1,0.8c-0.4,0-0.9-0.2-0.9-0.7
			c0-0.3,0.2-0.6,0.5-0.6c0.1,0,0.4,0.1,0.4,0.3c0,0.3-0.2,0.5-0.5,0.5c0.2,0.1,0.4,0.1,0.5,0.1c0.4,0,0.8-0.4,0.9-1
			c0.4-1.4,0.5-2.1,0.5-2.4c0-0.6-0.3-0.7-0.5-0.7c-0.3,0-1,0.2-1.3,1.3c0,0.1,0,0.1-0.1,0.1c0,0-0.1,0-0.1-0.1
			c0-0.2,0.6-1.5,1.6-1.5c0.3,0,0.8,0.1,1.1,0.8c0.1-0.2,0.5-0.8,1-0.8c0.3,0,0.9,0.1,0.9,0.7c0,0.4-0.3,0.6-0.5,0.6
			c-0.3,0-0.4-0.2-0.4-0.3c0-0.2,0.2-0.5,0.5-0.5c-0.2-0.1-0.4-0.1-0.5-0.1c-0.7,0-0.9,0.9-1,1.2L391,402.4z"/>
	</g>
	<g>
		<path class="st1" d="M375.3,386.9c0,1.1-0.8,2.1-2,2.1c-0.9,0-1.5-0.4-1.8-0.7c-0.3,0.5-0.4,0.6-0.4,0.6c-0.1,0.1-0.1,0.1-0.1,0.1
			c-0.1,0-0.1-0.1-0.1-0.2v-2c0-0.2,0-0.2,0.1-0.2c0,0,0.1,0,0.1,0.1c0,0.4,0,1,0.6,1.5c0.5,0.5,1.3,0.5,1.6,0.5
			c0.8,0,1.3-0.7,1.3-1.4c0-0.3-0.1-0.7-0.3-0.9c-0.3-0.4-0.6-0.4-0.8-0.5c-0.7-0.2-1.2-0.3-1.3-0.3c-0.8-0.3-1.3-1-1.3-1.8
			c0-1.1,0.8-1.9,1.9-1.9c0.9,0,1.3,0.4,1.6,0.7l0.3-0.6c0.1-0.1,0.1-0.1,0.1-0.1c0.1,0,0.1,0.1,0.1,0.2v2c0,0.2,0,0.2-0.1,0.2
			c-0.1,0-0.1-0.1-0.1-0.1c-0.1-0.4-0.3-2.1-1.9-2.1c-0.8,0-1.3,0.6-1.3,1.3c0,0.6,0.4,1.1,1,1.3l1.3,0.3
			C374.7,385.1,375.3,386,375.3,386.9z"/>
		<path class="st1" d="M377.9,388.9c-0.6,0-1.6-0.2-1.6-1.1c0-0.4,0.2-1,1-1.3c0.6-0.3,1.3-0.3,1.8-0.4v-0.4c0-0.9-0.6-1.3-1.1-1.3
			c-0.3,0-0.8,0.1-1.1,0.5c0.5,0,0.5,0.3,0.5,0.5c0,0.3-0.2,0.5-0.5,0.5c-0.3,0-0.5-0.2-0.5-0.5c0-0.7,0.7-1.1,1.5-1.1
			c0.5,0,1,0.2,1.4,0.5c0.4,0.4,0.4,0.8,0.4,1.2v2c0,0,0,0.5,0.4,0.5c0.1,0,0.4-0.1,0.4-0.6v-0.6h0.2v0.6c0,0.8-0.6,0.9-0.8,0.9
			c-0.5,0-0.7-0.4-0.8-0.8C379,388.5,378.6,388.9,377.9,388.9z M377.1,387.8c0,0.5,0.4,0.8,0.9,0.8c0.4,0,1.2-0.3,1.2-1.3v-1
			C377.5,386.5,377.1,387.3,377.1,387.8z"/>
	</g>
	<g>
		<path class="st1" d="M385.7,388.7c0,0.1-0.1,0.2-0.2,0.2s-0.2-0.1-0.2-0.2l-1-2.8l-1,2.8c0,0.1-0.1,0.2-0.2,0.2
			c-0.1,0-0.2-0.1-0.2-0.2l-1.3-3.5c-0.1-0.3-0.2-0.3-0.7-0.3v-0.3c0.4,0,0.9,0,0.9,0c0.2,0,0.8,0,1.1,0v0.3c-0.2,0-0.6,0-0.6,0.3
			c0,0,0,0.1,0,0.2l0.9,2.7l0.9-2.4c-0.1-0.2-0.2-0.5-0.2-0.5c-0.1-0.1-0.3-0.1-0.6-0.1v-0.3c0.3,0,0.6,0,0.9,0c0.2,0,0.7,0,1,0v0.3
			c-0.2,0-0.6,0-0.6,0.3c0,0,0,0.1,0,0.2l1,2.8l0.9-2.6c0-0.1,0-0.1,0-0.2c0-0.3-0.2-0.5-0.6-0.5v-0.3c0.2,0,0.6,0,0.9,0
			c0.2,0,0.5,0,0.7,0v0.3c-0.3,0-0.7,0.1-0.8,0.6L385.7,388.7z"/>
		<path class="st1" d="M389.6,387.6c0,0.2,0,1.1,0.7,1.1c0.4,0,0.7-0.4,0.7-1.1V387h0.2v0.6c0,0.6-0.3,1.3-1,1.3
			c-0.4,0-1.3-0.1-1.3-1.3v-2.8h-0.8v-0.2c1,0,1.3-1.1,1.3-1.9h0.2v1.8h1.4v0.3h-1.4V387.6z"/>
	</g>
	<g>
		<path class="st1" d="M394.2,388.9c-1.2,0-2.2-1-2.2-2.2c0-1.2,1-2.3,2.2-2.3c1.2,0,2.2,1.1,2.2,2.3
			C396.4,387.9,395.4,388.9,394.2,388.9z M395.4,387.9c0.2-0.4,0.2-1,0.2-1.3c0-0.4,0-1-0.3-1.4c-0.3-0.4-0.7-0.6-1.1-0.6
			c-0.4,0-0.9,0.2-1.1,0.7c-0.2,0.4-0.2,1-0.2,1.4c0,0.4,0,1,0.2,1.4c0.3,0.5,0.7,0.7,1.1,0.7C394.7,388.7,395.2,388.4,395.4,387.9z
			"/>
		<path class="st1" d="M399.5,388.9c-1.2,0-2.2-1-2.2-2.2c0-1.2,1-2.3,2.2-2.3c1.2,0,2.2,1.1,2.2,2.3
			C401.7,387.9,400.7,388.9,399.5,388.9z M400.7,387.9c0.2-0.4,0.2-1,0.2-1.3c0-0.4,0-1-0.3-1.4c-0.3-0.4-0.7-0.6-1.1-0.6
			c-0.4,0-0.9,0.2-1.1,0.7c-0.2,0.4-0.2,1-0.2,1.4c0,0.4,0,1,0.2,1.4c0.3,0.5,0.7,0.7,1.1,0.7C400,388.7,400.4,388.4,400.7,387.9z"
			/>
	</g>
	<g>
		<path class="st1" d="M403.8,387.6c0,0.2,0,1.1,0.7,1.1c0.4,0,0.7-0.4,0.7-1.1V387h0.2v0.6c0,0.6-0.3,1.3-1,1.3
			c-0.4,0-1.3-0.1-1.3-1.3v-2.8h-0.8v-0.2c1,0,1.3-1.1,1.3-1.9h0.2v1.8h1.4v0.3h-1.4V387.6z"/>
		<path class="st1" d="M407,382.9c0-0.5-0.1-0.6-0.8-0.6V382l1.4-0.1v3.5c0.2-0.4,0.6-1,1.4-1c0.6,0,0.9,0.2,1,0.4
			c0.3,0.4,0.3,0.7,0.3,1.5v1.9c0,0.3,0.3,0.3,0.8,0.3v0.3c-0.3,0-0.9,0-1.1,0c-0.3,0-0.8,0-1.1,0v-0.3c0.7,0,0.8,0,0.8-0.4v-2.3
			c0-0.6-0.1-1.1-0.7-1.1c-0.6,0-1.3,0.6-1.3,1.6v1.8c0,0.4,0.1,0.4,0.8,0.4v0.3c-0.3,0-0.9,0-1.1,0c-0.3,0-0.8,0-1.1,0v-0.3
			c0.7,0,0.8,0,0.8-0.4V382.9z"/>
	</g>
	<polyline points="370.4,390.4 411.4,390.4 411.4,389.9 370.4,389.9 	"/>
	<path class="st0" d="M412.1,432.5v7.1 M369.6,439.6v-7.1 M387.3,457.3h7.1 M387.3,414.7h7.1"/>
	<g>
		<path class="st1" d="M413.7,439.5c0.1-0.1,0.1-0.2,0.3-0.2c0.2,0,0.2,0,0.2,0.2l0.6,6.2c0,0.3,0,0.4,0.6,0.4c0.1,0,0.2,0,0.2,0.1
			c0,0.2-0.1,0.2-0.2,0.2c-0.2,0-0.9,0-1.1,0c-0.4,0-0.8,0-1.2,0c0,0-0.1,0-0.1-0.1c0-0.2,0.1-0.2,0.2-0.2c0.2,0,0.7,0,0.7-0.3
			c0-0.1-0.1-1.5-0.2-1.7h-2.5l-0.8,1.3c-0.1,0.1-0.1,0.2-0.1,0.4c0,0.2,0.2,0.3,0.5,0.3c0.1,0,0.2,0,0.2,0.1c0,0.2-0.1,0.2-0.2,0.2
			c-0.3,0-0.7,0-1,0c-0.3,0-0.6,0-0.9,0c-0.1,0-0.1,0-0.1-0.1c0-0.2,0.1-0.2,0.2-0.2c0.4,0,0.8-0.2,1.2-0.8L413.7,439.5z
			 M413.7,443.8l-0.3-3.3l-2,3.3H413.7z"/>
	</g>
	<g>
		<path class="st1" d="M364.3,444.6V444h2.6v0.6H364.3z"/>
	</g>
	<g>
		<path class="st1" d="M372.8,439.5c0.1-0.1,0.1-0.2,0.3-0.2c0.2,0,0.2,0,0.2,0.2l0.6,6.2c0,0.3,0,0.4,0.6,0.4c0.1,0,0.2,0,0.2,0.1
			c0,0.2-0.1,0.2-0.2,0.2c-0.2,0-0.9,0-1.1,0c-0.4,0-0.8,0-1.2,0c0,0-0.1,0-0.1-0.1c0-0.2,0.1-0.2,0.2-0.2c0.2,0,0.7,0,0.7-0.3
			c0-0.1-0.1-1.5-0.2-1.7h-2.5l-0.8,1.3c-0.1,0.1-0.1,0.2-0.1,0.4c0,0.2,0.2,0.3,0.5,0.3c0.1,0,0.2,0,0.2,0.1c0,0.2-0.1,0.2-0.2,0.2
			c-0.3,0-0.7,0-1,0c-0.3,0-0.6,0-0.9,0c-0.1,0-0.1,0-0.1-0.1c0-0.2,0.1-0.2,0.2-0.2c0.4,0,0.8-0.2,1.2-0.8L372.8,439.5z
			 M372.8,443.8l-0.3-3.3l-2,3.3H372.8z"/>
	</g>
	<g>
		<path class="st1" d="M381.8,411.1c0.1-0.1,0.1-0.2,0.3-0.2c0.2,0,0.2,0,0.2,0.2l0.6,6.2c0,0.3,0,0.4,0.6,0.4c0.1,0,0.2,0,0.2,0.1
			c0,0.2-0.1,0.2-0.2,0.2c-0.2,0-0.9,0-1.1,0c-0.4,0-0.8,0-1.2,0c0,0-0.1,0-0.1-0.1c0-0.2,0.1-0.2,0.2-0.2c0.2,0,0.7,0,0.7-0.3
			c0-0.1-0.1-1.5-0.2-1.7h-2.5l-0.8,1.3c-0.1,0.1-0.1,0.2-0.1,0.4c0,0.2,0.2,0.3,0.5,0.3c0.1,0,0.2,0,0.2,0.1c0,0.2-0.1,0.2-0.2,0.2
			c-0.3,0-0.7,0-1,0c-0.3,0-0.6,0-0.9,0c-0.1,0-0.1,0-0.1-0.1c0-0.2,0.1-0.2,0.2-0.2c0.4,0,0.8-0.2,1.2-0.8L381.8,411.1z
			 M381.8,415.5l-0.3-3.3l-2,3.3H381.8z"/>
	</g>
	<g>
		<path class="st1" d="M375,458.8v-0.6h2.6v0.6H375z"/>
	</g>
	<g>
		<path class="st1" d="M383.5,453.7c0.1-0.1,0.1-0.2,0.3-0.2c0.2,0,0.2,0,0.2,0.2l0.6,6.2c0,0.3,0,0.4,0.6,0.4c0.1,0,0.2,0,0.2,0.1
			c0,0.2-0.1,0.2-0.2,0.2c-0.2,0-0.9,0-1.1,0c-0.4,0-0.8,0-1.2,0c0,0-0.1,0-0.1-0.1c0-0.2,0.1-0.2,0.2-0.2c0.2,0,0.7,0,0.7-0.3
			c0-0.1-0.1-1.5-0.2-1.7H381l-0.8,1.3c-0.1,0.1-0.1,0.2-0.1,0.4c0,0.2,0.2,0.3,0.5,0.3c0.1,0,0.2,0,0.2,0.1c0,0.2-0.1,0.2-0.2,0.2
			c-0.3,0-0.7,0-1,0c-0.3,0-0.6,0-0.9,0c-0.1,0-0.1,0-0.1-0.1c0-0.2,0.1-0.2,0.2-0.2c0.4,0,0.8-0.2,1.2-0.8L383.5,453.7z M383.5,458
			l-0.3-3.3l-2,3.3H383.5z"/>
	</g>
	<line class="st3" x1="412.1" y1="457.3" x2="454.7" y2="414.7"/>
	<line class="st2" x1="454.7" y1="414.7" x2="454.7" y2="457.3"/>
	<line class="st0" x1="369.6" y1="457.3" x2="412.1" y2="414.7"/>
	<path class="st2" d="M412.1,414.7v42.5 M369.6,457.3v-42.5"/>
	<path class="st3" d="M454.7,457.3l7.1-7.1 M327.1,457.3l42.5-42.5"/>
	<line class="st2" x1="327.1" y1="414.7" x2="327.1" y2="457.3"/>
	<line class="st3" x1="320" y1="421.8" x2="327.1" y2="414.7"/>
	<g>
		<path class="st1" d="M430.2,445.7c0.2,0,0.9,0,0.9-0.1c0.1-0.1,0.2-0.6,0.2-0.9h0.2l-0.3,1.7h-3.7c0-0.2,0-0.3,0.1-0.4l1.9-2.1
			c0.5-0.6,1-1.4,1-2.2c0-0.8-0.4-1.6-1.3-1.6c-0.6,0-1.1,0.4-1.3,1c0,0,0,0,0.1,0c0.3,0,0.5,0.3,0.5,0.5c0,0.4-0.3,0.5-0.5,0.5
			c0,0-0.5,0-0.5-0.6c0-0.9,0.7-1.8,1.9-1.8c1.2,0,2.1,0.8,2.1,1.9c0,1-0.6,1.5-2.2,2.9l-1.1,1H430.2z"/>
	</g>
	<g>
		<path class="st1" d="M437.5,439.5c0.1-0.1,0.1-0.2,0.3-0.2c0.2,0,0.2,0,0.2,0.2l0.6,6.2c0,0.3,0,0.4,0.6,0.4c0.1,0,0.2,0,0.2,0.1
			c0,0.2-0.1,0.2-0.2,0.2c-0.2,0-0.9,0-1.1,0c-0.4,0-0.8,0-1.2,0c0,0-0.1,0-0.1-0.1c0-0.2,0.1-0.2,0.2-0.2c0.2,0,0.7,0,0.7-0.3
			c0-0.1-0.1-1.5-0.2-1.7H435l-0.8,1.3c-0.1,0.1-0.1,0.2-0.1,0.4c0,0.2,0.2,0.3,0.5,0.3c0.1,0,0.2,0,0.2,0.1c0,0.2-0.1,0.2-0.2,0.2
			c-0.3,0-0.7,0-1,0c-0.3,0-0.6,0-0.9,0c-0.1,0-0.1,0-0.1-0.1c0-0.2,0.1-0.2,0.2-0.2c0.4,0,0.8-0.2,1.2-0.8L437.5,439.5z
			 M437.5,443.8l-0.3-3.3l-2,3.3H437.5z"/>
	</g>
	<g>
		<path class="st1" d="M460.1,444.8c0,1-0.9,1.9-2.1,1.9c-1.1,0-2-0.7-2-1.6c0-0.4,0.3-0.6,0.6-0.6c0.3,0,0.6,0.2,0.6,0.6
			c0,0.4-0.3,0.6-0.7,0.5c0.3,0.6,1.1,0.8,1.5,0.8c0.4,0,1.1-0.3,1.1-1.6c0-1-0.4-1.7-1.2-1.7h-0.4c-0.2,0-0.2,0-0.2-0.1
			c0-0.1,0.1-0.1,0.1-0.1c0.1,0,0.3,0,0.4,0c0.2,0,0.6,0,0.9-0.5c0.3-0.4,0.3-1,0.3-1.1c0-0.9-0.5-1.1-1-1.1c-0.4,0-1,0.1-1.3,0.6
			c0.1,0,0.6,0,0.6,0.5c0,0.3-0.2,0.5-0.5,0.5c-0.3,0-0.5-0.2-0.5-0.5c0-0.8,0.8-1.4,1.8-1.4c1,0,1.8,0.6,1.8,1.4
			c0,0.8-0.6,1.5-1.4,1.8C459.4,443.2,460.1,443.9,460.1,444.8z"/>
	</g>
	<g>
		<path class="st1" d="M465.8,439.5c0.1-0.1,0.1-0.2,0.3-0.2c0.2,0,0.2,0,0.2,0.2l0.6,6.2c0,0.3,0,0.4,0.6,0.4c0.1,0,0.2,0,0.2,0.1
			c0,0.2-0.1,0.2-0.2,0.2c-0.2,0-0.9,0-1.1,0c-0.4,0-0.8,0-1.2,0c0,0-0.1,0-0.1-0.1c0-0.2,0.1-0.2,0.2-0.2c0.2,0,0.7,0,0.7-0.3
			c0-0.1-0.1-1.5-0.2-1.7h-2.5l-0.8,1.3c-0.1,0.1-0.1,0.2-0.1,0.4c0,0.2,0.2,0.3,0.5,0.3c0.1,0,0.2,0,0.2,0.1c0,0.2-0.1,0.2-0.2,0.2
			c-0.3,0-0.7,0-1,0c-0.3,0-0.6,0-0.9,0c-0.1,0-0.1,0-0.1-0.1c0-0.2,0.1-0.2,0.2-0.2c0.4,0,0.8-0.2,1.2-0.8L465.8,439.5z
			 M465.8,443.8l-0.3-3.3l-2,3.3H465.8z"/>
	</g>
	<g>
		<path class="st1" d="M340.6,444.6V444h2.6v0.6H340.6z"/>
		<path class="st1" d="M346.9,445.7c0.2,0,0.9,0,0.9-0.1c0.1-0.1,0.2-0.6,0.2-0.9h0.2l-0.3,1.7h-3.7c0-0.2,0-0.3,0.1-0.4l1.9-2.1
			c0.5-0.6,1-1.4,1-2.2c0-0.8-0.4-1.6-1.3-1.6c-0.6,0-1.1,0.4-1.3,1c0,0,0,0,0.1,0c0.3,0,0.5,0.3,0.5,0.5c0,0.4-0.3,0.5-0.5,0.5
			c0,0-0.5,0-0.5-0.6c0-0.9,0.7-1.8,1.9-1.8c1.2,0,2.1,0.8,2.1,1.9c0,1-0.6,1.5-2.2,2.9l-1.1,1H346.9z"/>
	</g>
	<g>
		<path class="st1" d="M354.1,439.5c0.1-0.1,0.1-0.2,0.3-0.2c0.2,0,0.2,0,0.2,0.2l0.6,6.2c0,0.3,0,0.4,0.6,0.4c0.1,0,0.2,0,0.2,0.1
			c0,0.2-0.1,0.2-0.2,0.2c-0.2,0-0.9,0-1.1,0c-0.4,0-0.8,0-1.2,0c0,0-0.1,0-0.1-0.1c0-0.2,0.1-0.2,0.2-0.2c0.2,0,0.7,0,0.7-0.3
			c0-0.1-0.1-1.5-0.2-1.7h-2.5l-0.8,1.3c-0.1,0.1-0.1,0.2-0.1,0.4c0,0.2,0.2,0.3,0.5,0.3c0.1,0,0.2,0,0.2,0.1c0,0.2-0.1,0.2-0.2,0.2
			c-0.3,0-0.7,0-1,0c-0.3,0-0.6,0-0.9,0c-0.1,0-0.1,0-0.1-0.1c0-0.2,0.1-0.2,0.2-0.2c0.4,0,0.8-0.2,1.2-0.8L354.1,439.5z
			 M354.1,443.8l-0.3-3.3l-2,3.3H354.1z"/>
	</g>
	<g>
		<path class="st1" d="M312.2,444.6V444h2.6v0.6H312.2z"/>
		<path class="st1" d="M320,444.8c0,1-0.9,1.9-2.1,1.9c-1.1,0-2-0.7-2-1.6c0-0.4,0.3-0.6,0.6-0.6c0.3,0,0.6,0.2,0.6,0.6
			c0,0.4-0.3,0.6-0.7,0.5c0.3,0.6,1.1,0.8,1.5,0.8c0.4,0,1.1-0.3,1.1-1.6c0-1-0.4-1.7-1.2-1.7h-0.4c-0.2,0-0.2,0-0.2-0.1
			c0-0.1,0.1-0.1,0.1-0.1c0.1,0,0.3,0,0.4,0c0.2,0,0.6,0,0.9-0.5c0.3-0.4,0.3-1,0.3-1.1c0-0.9-0.5-1.1-1-1.1c-0.4,0-1,0.1-1.3,0.6
			c0.1,0,0.6,0,0.6,0.5c0,0.3-0.2,0.5-0.5,0.5c-0.3,0-0.5-0.2-0.5-0.5c0-0.8,0.8-1.4,1.8-1.4c1,0,1.8,0.6,1.8,1.4
			c0,0.8-0.6,1.5-1.4,1.8C319.4,443.2,320,443.9,320,444.8z"/>
	</g>
	<g>
		<path class="st1" d="M325.8,439.5c0.1-0.1,0.1-0.2,0.3-0.2c0.2,0,0.2,0,0.2,0.2l0.6,6.2c0,0.3,0,0.4,0.6,0.4c0.1,0,0.2,0,0.2,0.1
			c0,0.2-0.1,0.2-0.2,0.2c-0.2,0-0.9,0-1.1,0c-0.4,0-0.8,0-1.2,0c0,0-0.1,0-0.1-0.1c0-0.2,0.1-0.2,0.2-0.2c0.2,0,0.7,0,0.7-0.3
			c0-0.1-0.1-1.5-0.2-1.7h-2.5l-0.8,1.3c-0.1,0.1-0.1,0.2-0.1,0.4c0,0.2,0.2,0.3,0.5,0.3c0.1,0,0.2,0,0.2,0.1c0,0.2-0.1,0.2-0.2,0.2
			c-0.3,0-0.7,0-1,0c-0.3,0-0.6,0-0.9,0c-0.1,0-0.1,0-0.1-0.1c0-0.2,0.1-0.2,0.2-0.2c0.4,0,0.8-0.2,1.2-0.8L325.8,439.5z
			 M325.8,443.8l-0.3-3.3l-2,3.3H325.8z"/>
	</g>
	<polyline points="283.6,438.3 288.1,436 283.6,433.7 284.7,436 	"/>
	<line class="st0" x1="210.2" y1="436" x2="284.7" y2="436"/>
	<polyline points="251.4,412.2 249.2,407.7 246.9,412.2 249.2,411.1 	"/>
	<line class="st0" x1="249.2" y1="460.8" x2="249.2" y2="411.1"/>
	<g>
		<path class="st1" d="M295.3,436.5c-0.1,0.4-0.2,0.7-0.2,0.9c0,0.3,0.2,0.7,0.5,0.7c0.3,0,1-0.2,1.3-1.3c0-0.1,0-0.1,0.1-0.1
			c0,0,0.1,0,0.1,0.1c0,0.2-0.6,1.5-1.6,1.5c-0.6,0-1-0.4-1.1-0.8c0,0.1-0.4,0.8-1,0.8c-0.4,0-0.9-0.2-0.9-0.7
			c0-0.3,0.2-0.6,0.5-0.6c0.1,0,0.4,0.1,0.4,0.3c0,0.3-0.2,0.5-0.5,0.5c0.2,0.1,0.4,0.1,0.5,0.1c0.4,0,0.8-0.4,0.9-1
			c0.4-1.4,0.5-2.1,0.5-2.4c0-0.6-0.3-0.7-0.5-0.7c-0.3,0-1,0.2-1.3,1.3c0,0.1-0.1,0.1-0.1,0.1c0,0-0.1,0-0.1-0.1
			c0-0.3,0.6-1.5,1.6-1.5c0.3,0,0.8,0.1,1.1,0.8c0.1-0.2,0.5-0.8,1-0.8c0.3,0,0.9,0.1,0.9,0.7c0,0.4-0.3,0.6-0.5,0.6
			c-0.3,0-0.4-0.2-0.4-0.3c0-0.2,0.2-0.5,0.5-0.5c-0.2-0.1-0.4-0.1-0.5-0.1c-0.7,0-0.9,0.9-1,1.2L295.3,436.5z"/>
	</g>
	<g>
		<path class="st1" d="M250.8,398.5l-0.2,0.2l-1.1-1l-1.2,1l-0.2-0.2l1.3-1.4L250.8,398.5z"/>
	</g>
	<g>
		<path class="st1" d="M249.3,402.4c-0.1,0.4-0.2,0.7-0.2,0.9c0,0.3,0.2,0.7,0.5,0.7c0.3,0,1-0.2,1.3-1.3c0-0.1,0-0.1,0.1-0.1
			c0,0,0.1,0,0.1,0.1c0,0.2-0.6,1.5-1.6,1.5c-0.6,0-1-0.4-1.1-0.8c0,0.1-0.4,0.8-1,0.8c-0.4,0-0.9-0.2-0.9-0.7
			c0-0.3,0.2-0.6,0.5-0.6c0.1,0,0.4,0.1,0.4,0.3c0,0.3-0.2,0.5-0.5,0.5c0.2,0.1,0.4,0.1,0.5,0.1c0.4,0,0.8-0.4,0.9-1
			c0.4-1.4,0.5-2.1,0.5-2.4c0-0.6-0.3-0.7-0.5-0.7c-0.3,0-1,0.2-1.3,1.3c0,0.1-0.1,0.1-0.1,0.1c0,0-0.1,0-0.1-0.1
			c0-0.2,0.6-1.5,1.6-1.5c0.3,0,0.8,0.1,1.1,0.8c0.1-0.2,0.5-0.8,1-0.8c0.3,0,0.9,0.1,0.9,0.7c0,0.4-0.3,0.6-0.5,0.6
			c-0.3,0-0.4-0.2-0.4-0.3c0-0.2,0.2-0.5,0.5-0.5c-0.2-0.1-0.4-0.1-0.5-0.1c-0.7,0-0.9,0.9-1,1.2L249.3,402.4z"/>
	</g>
	<line class="st0" x1="227.9" y1="457.3" x2="270.4" y2="414.7"/>
	<g>
		<path class="st1" d="M239,386.3v-4.3c0-0.3,0-0.7-1-0.7V381c0.3,0,0.8,0,1.2,0c0.3,0,0.8,0,1.2,0v0.3c-1,0-1,0.5-1,0.7v5.5
			c0,0.2,0,0.3-0.1,0.3c-0.1,0-0.1,0-0.2-0.1l-4.1-6c0-0.1,0-0.1-0.1-0.1v5.2c0,0.3,0,0.7,1,0.7v0.3c-0.3,0-0.8,0-1.2,0
			s-0.8,0-1.2,0v-0.3c1,0,1-0.5,1-0.7v-5.2c0-0.2,0-0.2-0.2-0.2c-0.1,0-0.3,0-0.5,0h-0.3V381h1.7c0.2,0,0.2,0,0.3,0.1L239,386.3z"/>
		<path class="st1" d="M243.3,387.9c-1.5,0-1.5-0.9-1.5-1.7v-1.5c0-0.9,0-0.9-0.8-0.9v-0.3l1.5-0.1v3.3c0,0.5,0,1,0.9,1
			c0.7,0,1.2-0.7,1.2-1.5v-1.8c0-0.5-0.1-0.6-0.8-0.6v-0.3l1.5-0.1v3.5c0,0.5,0.1,0.6,0.8,0.6v0.3l-1.4,0.1v-0.9
			C244.3,387.7,243.8,387.9,243.3,387.9z"/>
		<path class="st1" d="M247.9,387.1c0,0.4,0.1,0.4,0.8,0.4v0.3c-0.4,0-0.9,0-1.1,0c-0.2,0-0.8,0-1.1,0v-0.3c0.7,0,0.8,0,0.8-0.4
			v-5.2c0-0.5-0.1-0.6-0.8-0.6V381l1.4-0.1V387.1z"/>
		<path class="st1" d="M250.7,387.1c0,0.4,0.1,0.4,0.8,0.4v0.3c-0.4,0-0.9,0-1.1,0c-0.2,0-0.8,0-1.1,0v-0.3c0.7,0,0.8,0,0.8-0.4
			v-5.2c0-0.5-0.1-0.6-0.8-0.6V381l1.4-0.1V387.1z"/>
		<path class="st1" d="M253.4,387.1c0,0.4,0,0.4,0.7,0.4v0.3c-0.3,0-0.7,0-1,0c-0.2,0-0.8,0-1.1,0v-0.3c0.7,0,0.8,0,0.8-0.4v-2.7
			c0-0.5-0.1-0.5-0.7-0.5v-0.3l1.4-0.1V387.1z M253,382.2c-0.3,0-0.5-0.3-0.5-0.5c0-0.3,0.2-0.5,0.5-0.5c0.3,0,0.5,0.2,0.5,0.5
			S253.2,382.2,253,382.2z"/>
		<path class="st1" d="M254.8,383.9v-0.3l1.4-0.1v1c0.3-0.6,0.7-1,1.5-1c0.6,0,0.9,0.2,1,0.4c0.3,0.4,0.3,0.7,0.3,1.5v1.9
			c0,0.3,0.3,0.3,0.8,0.3v0.3c-0.3,0-0.9,0-1.1,0c-0.3,0-0.8,0-1.1,0v-0.3c0.7,0,0.8,0,0.8-0.4v-2.3c0-0.6-0.1-1.1-0.7-1.1
			c-0.6,0-1.3,0.6-1.3,1.6v1.8c0,0.4,0.1,0.4,0.8,0.4v0.3c-0.3,0-0.9,0-1.1,0c-0.3,0-0.8,0-1.1,0v-0.3c0.7,0,0.8,0,0.8-0.4v-2.7
			C255.5,383.9,255.4,383.9,254.8,383.9z"/>
	</g>
	<g>
		<path class="st1" d="M261.5,387.2c0.1,0,0.5,0,0.7,0c0.6,0,1.2,0,1.7,0.3c0.5,0.3,0.6,0.8,0.6,1.1c0,0.8-1,1.3-2.2,1.3
			c-1.2,0-2.2-0.5-2.2-1.3c0-0.4,0.3-0.8,0.9-1c-0.3-0.2-0.4-0.6-0.4-0.9c0-0.3,0.2-0.7,0.3-0.8c-0.2-0.2-0.5-0.6-0.5-1
			c0-0.8,0.7-1.5,1.6-1.5c0.2,0,0.6,0,1.1,0.4c0.4-0.4,0.9-0.5,1.1-0.5c0.4,0,0.5,0.3,0.5,0.5c0,0.2-0.2,0.3-0.3,0.3
			c-0.2,0-0.3-0.1-0.3-0.3c0-0.1,0.1-0.2,0.2-0.3c0,0-0.1,0-0.1,0c-0.2,0-0.5,0-0.9,0.4c0.2,0.2,0.4,0.6,0.4,1
			c0,0.8-0.7,1.5-1.6,1.5c-0.2,0-0.6,0-1-0.3c-0.2,0.2-0.2,0.4-0.2,0.5C261,386.8,261.2,387.1,261.5,387.2z M264.1,388.6
			c0-0.9-1.1-0.9-2-0.9h-0.6c-0.4,0-0.8,0.4-0.8,0.9c0,0.5,0.7,1,1.7,1C263.4,389.7,264.1,389.2,264.1,388.6z M262.9,385.7
			c0.1-0.2,0.2-0.6,0.2-0.8c0-0.2,0-1.2-0.9-1.2c-0.4,0-0.6,0.3-0.7,0.4c-0.1,0.2-0.2,0.6-0.2,0.8c0,0.2,0,1.2,0.9,1.2
			C262.6,386.1,262.8,385.8,262.9,385.7z"/>
	</g>
	<polyline points="233.2,391.4 265.1,391.4 265.1,391 233.2,391 	"/>
	<path class="st2" d="M270.4,414.7V436 M227.9,457.3V436"/>
	<path class="st0" d="M270.4,432.5v7.1 M227.9,439.6v-7.1 M245.6,457.3h7.1 M245.6,414.7h7.1"/>
	<g>
		<path class="st1" d="M271.9,439.5c0.1-0.1,0.1-0.2,0.3-0.2c0.2,0,0.2,0,0.2,0.2l0.6,6.2c0,0.3,0,0.4,0.6,0.4c0.1,0,0.2,0,0.2,0.1
			c0,0.2-0.1,0.2-0.2,0.2c-0.2,0-0.9,0-1.1,0c-0.4,0-0.8,0-1.2,0c0,0-0.1,0-0.1-0.1c0-0.2,0.1-0.2,0.2-0.2c0.2,0,0.7,0,0.7-0.3
			c0-0.1-0.1-1.5-0.2-1.7h-2.5l-0.8,1.3c-0.1,0.1-0.1,0.2-0.1,0.4c0,0.2,0.2,0.3,0.5,0.3c0.1,0,0.2,0,0.2,0.1c0,0.2-0.1,0.2-0.2,0.2
			c-0.3,0-0.7,0-1,0c-0.3,0-0.6,0-0.9,0c-0.1,0-0.1,0-0.1-0.1c0-0.2,0.1-0.2,0.2-0.2c0.4,0,0.8-0.2,1.2-0.8L271.9,439.5z M272,443.8
			l-0.3-3.3l-2,3.3H272z"/>
	</g>
	<g>
		<path class="st1" d="M222.6,444.6V444h2.6v0.6H222.6z"/>
	</g>
	<g>
		<path class="st1" d="M231.1,439.5c0.1-0.1,0.1-0.2,0.3-0.2c0.2,0,0.2,0,0.2,0.2l0.6,6.2c0,0.3,0,0.4,0.6,0.4c0.1,0,0.2,0,0.2,0.1
			c0,0.2-0.1,0.2-0.2,0.2c-0.2,0-0.9,0-1.1,0c-0.4,0-0.8,0-1.2,0c0,0-0.1,0-0.1-0.1c0-0.2,0.1-0.2,0.2-0.2c0.2,0,0.7,0,0.7-0.3
			c0-0.1-0.1-1.5-0.2-1.7h-2.5l-0.8,1.3c-0.1,0.1-0.1,0.2-0.1,0.4c0,0.2,0.2,0.3,0.5,0.3c0.1,0,0.2,0,0.2,0.1c0,0.2-0.1,0.2-0.2,0.2
			c-0.3,0-0.7,0-1,0c-0.3,0-0.6,0-0.9,0c-0.1,0-0.1,0-0.1-0.1c0-0.2,0.1-0.2,0.2-0.2c0.4,0,0.8-0.2,1.2-0.8L231.1,439.5z
			 M231.1,443.8l-0.3-3.3l-2,3.3H231.1z"/>
	</g>
	<g>
		<path class="st1" d="M240.1,411.1c0.1-0.1,0.1-0.2,0.3-0.2c0.2,0,0.2,0,0.2,0.2l0.6,6.2c0,0.3,0,0.4,0.6,0.4c0.1,0,0.2,0,0.2,0.1
			c0,0.2-0.1,0.2-0.2,0.2c-0.2,0-0.9,0-1.1,0c-0.4,0-0.8,0-1.2,0c0,0-0.1,0-0.1-0.1c0-0.2,0.1-0.2,0.2-0.2c0.2,0,0.7,0,0.7-0.3
			c0-0.1-0.1-1.5-0.2-1.7h-2.5l-0.8,1.3c-0.1,0.1-0.1,0.2-0.1,0.4c0,0.2,0.2,0.3,0.5,0.3c0.1,0,0.2,0,0.2,0.1c0,0.2-0.1,0.2-0.2,0.2
			c-0.3,0-0.7,0-1,0c-0.3,0-0.6,0-0.9,0c-0.1,0-0.1,0-0.1-0.1c0-0.2,0.1-0.2,0.2-0.2c0.4,0,0.8-0.2,1.2-0.8L240.1,411.1z
			 M240.1,415.5l-0.3-3.3l-2,3.3H240.1z"/>
	</g>
	<g>
		<path class="st1" d="M233.2,458.8v-0.6h2.6v0.6H233.2z"/>
	</g>
	<g>
		<path class="st1" d="M241.7,453.7c0.1-0.1,0.1-0.2,0.3-0.2c0.2,0,0.2,0,0.2,0.2l0.6,6.2c0,0.3,0,0.4,0.6,0.4c0.1,0,0.2,0,0.2,0.1
			c0,0.2-0.1,0.2-0.2,0.2c-0.2,0-0.9,0-1.1,0c-0.4,0-0.8,0-1.2,0c0,0-0.1,0-0.1-0.1c0-0.2,0.1-0.2,0.2-0.2c0.2,0,0.7,0,0.7-0.3
			c0-0.1-0.1-1.5-0.2-1.7h-2.5l-0.8,1.3c-0.1,0.1-0.1,0.2-0.1,0.4c0,0.2,0.2,0.3,0.5,0.3c0.1,0,0.2,0,0.2,0.1c0,0.2-0.1,0.2-0.2,0.2
			c-0.3,0-0.7,0-1,0c-0.3,0-0.6,0-0.9,0c-0.1,0-0.1,0-0.1-0.1c0-0.2,0.1-0.2,0.2-0.2c0.4,0,0.8-0.2,1.2-0.8L241.7,453.7z M241.7,458
			l-0.3-3.3l-2,3.3H241.7z"/>
	</g>
	<path class="st2" d="M227.9,436h-17.7 M288.1,436h-17.7"/>
</g>
</svg>
