<?xml version="1.0" encoding="utf-8"?>
<!-- Generator: Adobe Illustrator 22.1.0, SVG Export Plug-In . SVG Version: 6.00 Build 0)  -->
<svg version="1.1" id="Layer_1" xmlns="http://www.w3.org/2000/svg" xmlns:xlink="http://www.w3.org/1999/xlink" x="0px" y="0px"
	 viewBox="0 0 371.3 83.7" style="enable-background:new 0 0 371.3 83.7;" xml:space="preserve">
<style type="text/css">
	.st0{fill:none;stroke:#000000;stroke-width:0.8504;stroke-miterlimit:10;}
	.st1{fill:#1D1D1B;}
	.st2{fill:none;stroke:#FF0000;stroke-width:1.4173;stroke-miterlimit:10;}
	.st3{fill:none;stroke:#FF0000;stroke-width:0.8504;stroke-miterlimit:10;}
</style>
<g>
	<polyline points="73.4,58.8 78,56.6 73.4,54.3 74.6,56.6 	"/>
	<line class="st0" x1="0" y1="56.6" x2="74.6" y2="56.6"/>
	<polyline points="41.2,32.7 39,28.2 36.7,32.7 39,31.6 	"/>
	<line class="st0" x1="39" y1="81.4" x2="39" y2="31.6"/>
	<g>
		<path class="st1" d="M85.1,57.1C85,57.5,85,57.7,85,58c0,0.3,0.2,0.7,0.5,0.7c0.3,0,1-0.2,1.3-1.3c0-0.1,0-0.1,0.1-0.1
			c0,0,0.1,0,0.1,0.1c0,0.2-0.6,1.5-1.6,1.5c-0.6,0-1-0.4-1.1-0.8c0,0.1-0.4,0.8-1,0.8c-0.4,0-0.9-0.2-0.9-0.7
			c0-0.3,0.2-0.6,0.5-0.6c0.1,0,0.4,0.1,0.4,0.3c0,0.3-0.2,0.5-0.5,0.5c0.2,0.1,0.4,0.1,0.5,0.1c0.4,0,0.8-0.4,0.9-1
			c0.4-1.4,0.5-2.1,0.5-2.4c0-0.6-0.3-0.7-0.5-0.7c-0.3,0-1,0.2-1.3,1.3c0,0.1-0.1,0.1-0.1,0.1c0,0-0.1,0-0.1-0.1
			c0-0.3,0.6-1.5,1.6-1.5c0.3,0,0.8,0.1,1.1,0.8c0.1-0.2,0.5-0.8,1-0.8c0.3,0,0.9,0.1,0.9,0.7c0,0.4-0.3,0.6-0.5,0.6
			c-0.3,0-0.4-0.2-0.4-0.3c0-0.2,0.2-0.5,0.5-0.5c-0.2-0.1-0.4-0.1-0.5-0.1c-0.7,0-0.9,0.9-1,1.2L85.1,57.1z"/>
	</g>
	<g>
		<path class="st1" d="M40.6,19l-0.2,0.2l-1.1-1l-1.2,1L38,19l1.3-1.4L40.6,19z"/>
	</g>
	<g>
		<path class="st1" d="M39.1,23c-0.1,0.4-0.2,0.7-0.2,0.9c0,0.3,0.2,0.7,0.5,0.7c0.3,0,1-0.2,1.3-1.3c0-0.1,0-0.1,0.1-0.1
			c0,0,0.1,0,0.1,0.1c0,0.2-0.6,1.5-1.6,1.5c-0.6,0-1-0.4-1.1-0.8c0,0.1-0.4,0.8-1,0.8c-0.4,0-0.9-0.2-0.9-0.7
			c0-0.3,0.2-0.6,0.5-0.6c0.1,0,0.4,0.1,0.4,0.3c0,0.3-0.2,0.5-0.5,0.5c0.2,0.1,0.4,0.1,0.5,0.1c0.4,0,0.8-0.4,0.9-1
			c0.4-1.4,0.5-2.1,0.5-2.4c0-0.6-0.3-0.7-0.5-0.7c-0.3,0-1,0.2-1.3,1.3c0,0.1-0.1,0.1-0.1,0.1c0,0-0.1,0-0.1-0.1
			c0-0.2,0.6-1.5,1.6-1.5c0.3,0,0.8,0.1,1.1,0.8c0.1-0.2,0.5-0.8,1-0.8c0.3,0,0.9,0.1,0.9,0.7c0,0.4-0.3,0.6-0.5,0.6
			c-0.3,0-0.4-0.2-0.4-0.3c0-0.2,0.2-0.5,0.5-0.5c-0.2-0.1-0.4-0.1-0.5-0.1c-0.7,0-0.9,0.9-1,1.2L39.1,23z"/>
	</g>
	<line class="st0" x1="17.7" y1="77.8" x2="60.2" y2="35.3"/>
	<g>
		<path class="st1" d="M20.9,7.5c0,1.1-0.8,2.1-2,2.1c-0.9,0-1.5-0.4-1.8-0.7c-0.3,0.5-0.4,0.6-0.4,0.6c-0.1,0.1-0.1,0.1-0.1,0.1
			c-0.1,0-0.1-0.1-0.1-0.2v-2c0-0.2,0-0.2,0.1-0.2c0,0,0.1,0,0.1,0.1c0,0.4,0,1,0.6,1.5c0.5,0.5,1.3,0.5,1.6,0.5
			c0.8,0,1.3-0.7,1.3-1.4c0-0.3-0.1-0.7-0.3-0.9c-0.3-0.4-0.6-0.4-0.8-0.5c-0.7-0.2-1.2-0.3-1.3-0.3c-0.8-0.3-1.3-1-1.3-1.8
			c0-1.1,0.8-1.9,1.9-1.9c0.9,0,1.3,0.4,1.6,0.7l0.3-0.6c0.1-0.1,0.1-0.1,0.1-0.1c0.1,0,0.1,0.1,0.1,0.2v2c0,0.2,0,0.2-0.1,0.2
			c-0.1,0-0.1-0.1-0.1-0.1c-0.1-0.4-0.3-2.1-1.9-2.1c-0.8,0-1.3,0.6-1.3,1.3c0,0.6,0.4,1.1,1,1.3l1.3,0.3
			C20.3,5.7,20.9,6.5,20.9,7.5z"/>
		<path class="st1" d="M23.5,9.5c-0.6,0-1.6-0.2-1.6-1.1c0-0.4,0.2-1,1-1.3c0.6-0.3,1.3-0.3,1.8-0.4V6.4c0-0.9-0.6-1.3-1.1-1.3
			c-0.3,0-0.8,0.1-1.1,0.5c0.5,0,0.5,0.3,0.5,0.5c0,0.3-0.2,0.5-0.5,0.5c-0.3,0-0.5-0.2-0.5-0.5c0-0.7,0.7-1.1,1.5-1.1
			c0.5,0,1,0.2,1.4,0.5c0.4,0.4,0.4,0.8,0.4,1.2v2c0,0,0,0.5,0.4,0.5c0.1,0,0.4-0.1,0.4-0.6V7.9h0.2v0.6c0,0.8-0.6,0.9-0.8,0.9
			c-0.5,0-0.7-0.4-0.8-0.8C24.6,9.1,24.1,9.5,23.5,9.5z M22.7,8.4c0,0.5,0.4,0.8,0.9,0.8c0.4,0,1.2-0.3,1.2-1.3V7
			C23.1,7,22.7,7.8,22.7,8.4z"/>
		<path class="st1" d="M28.2,8.1c0,0.2,0,1.1,0.7,1.1c0.4,0,0.7-0.4,0.7-1.1V7.5h0.2v0.6c0,0.6-0.3,1.3-1,1.3
			c-0.4,0-1.3-0.1-1.3-1.3V5.4h-0.8V5.1c1,0,1.3-1.1,1.3-1.9h0.2V5h1.4v0.3h-1.4V8.1z"/>
		<path class="st1" d="M33,9.5c-1.5,0-1.5-0.9-1.5-1.7V6.3c0-0.9,0-0.9-0.8-0.9V5l1.5-0.1v3.3c0,0.5,0,1,0.9,1
			c0.7,0,1.2-0.7,1.2-1.5V5.9c0-0.5-0.1-0.6-0.8-0.6V5l1.5-0.1v3.5C34.9,9,35,9,35.7,9v0.3l-1.4,0.1V8.6C33.9,9.2,33.5,9.5,33,9.5z"
			/>
		<path class="st1" d="M38.8,4.9c0.4,0,0.7,0.3,0.7,0.6S39.3,6,39.1,6c-0.2,0-0.4-0.1-0.4-0.4c0-0.3,0.2-0.4,0.2-0.4c0,0,0,0-0.1,0
			C38,5.2,37.6,6,37.6,7v1.5c0,0.4,0,0.5,0.8,0.5h0.2v0.3c-0.4,0-0.9,0-1.3,0c-0.3,0-0.7,0-1.1,0V9c0.7,0,0.8,0,0.8-0.4V5.9
			c0-0.5-0.1-0.6-0.8-0.6V5l1.4-0.1V6C37.7,5.6,38,4.9,38.8,4.9z"/>
		<path class="st1" d="M41.8,9.5c-0.6,0-1.6-0.2-1.6-1.1c0-0.4,0.2-1,1-1.3c0.6-0.3,1.3-0.3,1.8-0.4V6.4c0-0.9-0.6-1.3-1.1-1.3
			c-0.3,0-0.8,0.1-1.1,0.5c0.5,0,0.5,0.3,0.5,0.5c0,0.3-0.2,0.5-0.5,0.5c-0.3,0-0.5-0.2-0.5-0.5c0-0.7,0.7-1.1,1.5-1.1
			c0.5,0,1,0.2,1.4,0.5c0.4,0.4,0.4,0.8,0.4,1.2v2c0,0,0,0.5,0.4,0.5c0.1,0,0.4-0.1,0.4-0.6V7.9h0.2v0.6c0,0.8-0.6,0.9-0.8,0.9
			c-0.5,0-0.7-0.4-0.8-0.8C42.9,9.1,42.5,9.5,41.8,9.5z M41,8.4c0,0.5,0.4,0.8,0.9,0.8c0.4,0,1.2-0.3,1.2-1.3V7
			C41.4,7,41,7.8,41,8.4z"/>
		<path class="st1" d="M46.5,8.1c0,0.2,0,1.1,0.7,1.1c0.4,0,0.7-0.4,0.7-1.1V7.5h0.2v0.6c0,0.6-0.3,1.3-1,1.3
			c-0.4,0-1.3-0.1-1.3-1.3V5.4H45V5.1c1,0,1.3-1.1,1.3-1.9h0.2V5h1.4v0.3h-1.4V8.1z"/>
		<path class="st1" d="M50.4,8.6c0,0.4,0,0.4,0.7,0.4v0.3c-0.3,0-0.7,0-1,0c-0.2,0-0.8,0-1.1,0V9c0.7,0,0.8,0,0.8-0.4V5.9
			c0-0.5-0.1-0.5-0.7-0.5V5l1.4-0.1V8.6z M49.9,3.7c-0.3,0-0.5-0.3-0.5-0.5c0-0.3,0.2-0.5,0.5-0.5c0.3,0,0.5,0.2,0.5,0.5
			S50.2,3.7,49.9,3.7z"/>
		<path class="st1" d="M53.9,9.5c-1.2,0-2.2-1-2.2-2.2c0-1.2,1-2.3,2.2-2.3c1.2,0,2.2,1.1,2.2,2.3C56.1,8.5,55.1,9.5,53.9,9.5z
			 M55.1,8.5c0.2-0.4,0.2-1,0.2-1.3c0-0.4,0-1-0.3-1.4c-0.3-0.4-0.7-0.6-1.1-0.6c-0.4,0-0.9,0.2-1.1,0.7c-0.2,0.4-0.2,1-0.2,1.4
			c0,0.4,0,1,0.2,1.4C53,9,53.5,9.2,53.9,9.2C54.4,9.2,54.9,8.9,55.1,8.5z"/>
		<path class="st1" d="M56.7,5.4V5l1.4-0.1v1c0.3-0.6,0.7-1,1.5-1c0.6,0,0.9,0.2,1,0.4C61,5.7,61,6,61,6.8v1.9C61,9,61.2,9,61.7,9
			v0.3c-0.3,0-0.9,0-1.1,0c-0.3,0-0.8,0-1.1,0V9c0.7,0,0.8,0,0.8-0.4V6.3c0-0.6-0.1-1.1-0.7-1.1c-0.6,0-1.3,0.6-1.3,1.6v1.8
			C58.2,9,58.3,9,59,9v0.3c-0.3,0-0.9,0-1.1,0c-0.3,0-0.8,0-1.1,0V9c0.7,0,0.8,0,0.8-0.4V5.9C57.5,5.4,57.4,5.4,56.7,5.4z"/>
	</g>
	<polyline points="15.9,10.9 62,10.9 62,10.4 15.9,10.4 	"/>
	<path class="st2" d="M60.2,35.3h14.2 M17.7,77.8H3.5"/>
	<path class="st0" d="M60.2,53v7.1 M17.7,60.1V53 M35.4,77.8h7.1 M35.4,35.3h7.1"/>
	<g>
		<path class="st1" d="M61.8,60c0.1-0.1,0.1-0.2,0.3-0.2c0.2,0,0.2,0,0.2,0.2l0.6,6.2c0,0.3,0,0.4,0.6,0.4c0.1,0,0.2,0,0.2,0.1
			c0,0.2-0.1,0.2-0.2,0.2c-0.2,0-0.9,0-1.1,0c-0.4,0-0.8,0-1.2,0c0,0-0.1,0-0.1-0.1c0-0.2,0.1-0.2,0.2-0.2c0.2,0,0.7,0,0.7-0.3
			c0-0.1-0.1-1.5-0.2-1.7h-2.5L58.5,66c-0.1,0.1-0.1,0.2-0.1,0.4c0,0.2,0.2,0.3,0.5,0.3c0.1,0,0.2,0,0.2,0.1c0,0.2-0.1,0.2-0.2,0.2
			c-0.3,0-0.7,0-1,0c-0.3,0-0.6,0-0.9,0c-0.1,0-0.1,0-0.1-0.1c0-0.2,0.1-0.2,0.2-0.2c0.4,0,0.8-0.2,1.2-0.8L61.8,60z M61.8,64.4
			l-0.3-3.3l-2,3.3H61.8z"/>
	</g>
	<g>
		<path class="st1" d="M12.4,65.1v-0.6h2.6v0.6H12.4z"/>
	</g>
	<g>
		<path class="st1" d="M20.9,60c0.1-0.1,0.1-0.2,0.3-0.2c0.2,0,0.2,0,0.2,0.2l0.6,6.2c0,0.3,0,0.4,0.6,0.4c0.1,0,0.2,0,0.2,0.1
			c0,0.2-0.1,0.2-0.2,0.2c-0.2,0-0.9,0-1.1,0c-0.4,0-0.8,0-1.2,0c0,0-0.1,0-0.1-0.1c0-0.2,0.1-0.2,0.2-0.2c0.2,0,0.7,0,0.7-0.3
			c0-0.1-0.1-1.5-0.2-1.7h-2.5L17.7,66c-0.1,0.1-0.1,0.2-0.1,0.4c0,0.2,0.2,0.3,0.5,0.3c0.1,0,0.2,0,0.2,0.1c0,0.2-0.1,0.2-0.2,0.2
			c-0.3,0-0.7,0-1,0c-0.3,0-0.6,0-0.9,0c-0.1,0-0.1,0-0.1-0.1c0-0.2,0.1-0.2,0.2-0.2c0.4,0,0.8-0.2,1.2-0.8L20.9,60z M20.9,64.4
			l-0.3-3.3l-2,3.3H20.9z"/>
	</g>
	<g>
		<path class="st1" d="M29.9,31.7c0.1-0.1,0.1-0.2,0.3-0.2c0.2,0,0.2,0,0.2,0.2l0.6,6.2c0,0.3,0,0.4,0.6,0.4c0.1,0,0.2,0,0.2,0.1
			c0,0.2-0.1,0.2-0.2,0.2c-0.2,0-0.9,0-1.1,0c-0.4,0-0.8,0-1.2,0c0,0-0.1,0-0.1-0.1c0-0.2,0.1-0.2,0.2-0.2c0.2,0,0.7,0,0.7-0.3
			c0-0.1-0.1-1.5-0.2-1.7h-2.5l-0.8,1.3c-0.1,0.1-0.1,0.2-0.1,0.4c0,0.2,0.2,0.3,0.5,0.3c0.1,0,0.2,0,0.2,0.1c0,0.2-0.1,0.2-0.2,0.2
			c-0.3,0-0.7,0-1,0c-0.3,0-0.6,0-0.9,0c-0.1,0-0.1,0-0.1-0.1c0-0.2,0.1-0.2,0.2-0.2c0.4,0,0.8-0.2,1.2-0.8L29.9,31.7z M29.9,36
			l-0.3-3.3l-2,3.3H29.9z"/>
	</g>
	<g>
		<path class="st1" d="M23.1,79.3v-0.6h2.6v0.6H23.1z"/>
	</g>
	<g>
		<path class="st1" d="M31.6,74.2c0.1-0.1,0.1-0.2,0.3-0.2c0.2,0,0.2,0,0.2,0.2l0.6,6.2c0,0.3,0,0.4,0.6,0.4c0.1,0,0.2,0,0.2,0.1
			c0,0.2-0.1,0.2-0.2,0.2c-0.2,0-0.9,0-1.1,0c-0.4,0-0.8,0-1.2,0c0,0-0.1,0-0.1-0.1c0-0.2,0.1-0.2,0.2-0.2c0.2,0,0.7,0,0.7-0.3
			c0-0.1-0.1-1.5-0.2-1.7h-2.5l-0.8,1.3c-0.1,0.1-0.1,0.2-0.1,0.4c0,0.2,0.2,0.3,0.5,0.3c0.1,0,0.2,0,0.2,0.1c0,0.2-0.1,0.2-0.2,0.2
			c-0.3,0-0.7,0-1,0c-0.3,0-0.6,0-0.9,0c-0.1,0-0.1,0-0.1-0.1c0-0.2,0.1-0.2,0.2-0.2c0.4,0,0.8-0.2,1.2-0.8L31.6,74.2z M31.6,78.6
			l-0.3-3.3l-2,3.3H31.6z"/>
	</g>
	<polyline points="349.8,58.8 354.3,56.6 349.8,54.3 350.9,56.6 	"/>
	<line class="st0" x1="209.1" y1="56.6" x2="350.9" y2="56.6"/>
	<polyline points="282.2,32.7 279.9,28.2 277.7,32.7 279.9,31.6 	"/>
	<line class="st0" x1="279.9" y1="81.4" x2="279.9" y2="31.6"/>
	<g>
		<path class="st1" d="M368.6,57.1c-0.1,0.4-0.2,0.7-0.2,0.9c0,0.3,0.2,0.7,0.5,0.7c0.3,0,1-0.2,1.3-1.3c0-0.1,0-0.1,0.1-0.1
			c0,0,0.1,0,0.1,0.1c0,0.2-0.6,1.5-1.6,1.5c-0.6,0-1-0.4-1.1-0.8c0,0.1-0.4,0.8-1,0.8c-0.4,0-0.9-0.2-0.9-0.7
			c0-0.3,0.2-0.6,0.5-0.6c0.1,0,0.4,0.1,0.4,0.3c0,0.3-0.2,0.5-0.5,0.5c0.2,0.1,0.4,0.1,0.5,0.1c0.4,0,0.8-0.4,0.9-1
			c0.4-1.4,0.5-2.1,0.5-2.4c0-0.6-0.3-0.7-0.5-0.7c-0.3,0-1,0.2-1.3,1.3c0,0.1,0,0.1-0.1,0.1c0,0-0.1,0-0.1-0.1
			c0-0.3,0.6-1.5,1.6-1.5c0.3,0,0.8,0.1,1.1,0.8c0.1-0.2,0.5-0.8,1-0.8c0.3,0,0.9,0.1,0.9,0.7c0,0.4-0.3,0.6-0.5,0.6
			c-0.3,0-0.4-0.2-0.4-0.3c0-0.2,0.2-0.5,0.5-0.5c-0.2-0.1-0.4-0.1-0.5-0.1c-0.7,0-0.9,0.9-1,1.2L368.6,57.1z"/>
	</g>
	<g>
		<path class="st1" d="M281.6,19l-0.2,0.2l-1.1-1l-1.2,1l-0.2-0.2l1.3-1.4L281.6,19z"/>
	</g>
	<g>
		<path class="st1" d="M280,23c-0.1,0.4-0.2,0.7-0.2,0.9c0,0.3,0.2,0.7,0.5,0.7c0.3,0,1-0.2,1.3-1.3c0-0.1,0-0.1,0.1-0.1
			c0,0,0.1,0,0.1,0.1c0,0.2-0.6,1.5-1.6,1.5c-0.6,0-1-0.4-1.1-0.8c0,0.1-0.4,0.8-1,0.8c-0.4,0-0.9-0.2-0.9-0.7
			c0-0.3,0.2-0.6,0.5-0.6c0.1,0,0.4,0.1,0.4,0.3c0,0.3-0.2,0.5-0.5,0.5c0.2,0.1,0.4,0.1,0.5,0.1c0.4,0,0.8-0.4,0.9-1
			c0.4-1.4,0.5-2.1,0.5-2.4c0-0.6-0.3-0.7-0.5-0.7c-0.3,0-1,0.2-1.3,1.3c0,0.1,0,0.1-0.1,0.1c0,0-0.1,0-0.1-0.1
			c0-0.2,0.6-1.5,1.6-1.5c0.3,0,0.8,0.1,1.1,0.8c0.1-0.2,0.5-0.8,1-0.8c0.3,0,0.9,0.1,0.9,0.7c0,0.4-0.3,0.6-0.5,0.6
			c-0.3,0-0.4-0.2-0.4-0.3c0-0.2,0.2-0.5,0.5-0.5c-0.2-0.1-0.4-0.1-0.5-0.1c-0.7,0-0.9,0.9-1,1.2L280,23z"/>
	</g>
	<g>
		<path class="st1" d="M264.4,7.5c0,1.1-0.8,2.1-2,2.1c-0.9,0-1.5-0.4-1.8-0.7c-0.3,0.5-0.4,0.6-0.4,0.6c-0.1,0.1-0.1,0.1-0.1,0.1
			c-0.1,0-0.1-0.1-0.1-0.2v-2c0-0.2,0-0.2,0.1-0.2c0,0,0.1,0,0.1,0.1c0,0.4,0,1,0.6,1.5c0.5,0.5,1.3,0.5,1.6,0.5
			c0.8,0,1.3-0.7,1.3-1.4c0-0.3-0.1-0.7-0.3-0.9c-0.3-0.4-0.6-0.4-0.8-0.5c-0.7-0.2-1.2-0.3-1.3-0.3c-0.8-0.3-1.3-1-1.3-1.8
			c0-1.1,0.8-1.9,1.9-1.9c0.9,0,1.3,0.4,1.6,0.7l0.3-0.6c0.1-0.1,0.1-0.1,0.1-0.1c0.1,0,0.1,0.1,0.1,0.2v2c0,0.2,0,0.2-0.1,0.2
			c-0.1,0-0.1-0.1-0.1-0.1c-0.1-0.4-0.3-2.1-1.9-2.1c-0.8,0-1.3,0.6-1.3,1.3c0,0.6,0.4,1.1,1,1.3l1.3,0.3
			C263.7,5.7,264.4,6.5,264.4,7.5z"/>
		<path class="st1" d="M266.9,9.5c-0.6,0-1.6-0.2-1.6-1.1c0-0.4,0.2-1,1-1.3c0.6-0.3,1.3-0.3,1.8-0.4V6.4c0-0.9-0.6-1.3-1.1-1.3
			c-0.3,0-0.8,0.1-1.1,0.5c0.5,0,0.5,0.3,0.5,0.5c0,0.3-0.2,0.5-0.5,0.5c-0.3,0-0.5-0.2-0.5-0.5c0-0.7,0.7-1.1,1.5-1.1
			c0.5,0,1,0.2,1.4,0.5c0.4,0.4,0.4,0.8,0.4,1.2v2c0,0,0,0.5,0.4,0.5c0.1,0,0.4-0.1,0.4-0.6V7.9h0.2v0.6c0,0.8-0.6,0.9-0.8,0.9
			c-0.5,0-0.7-0.4-0.8-0.8C268,9.1,267.6,9.5,266.9,9.5z M266.1,8.4c0,0.5,0.4,0.8,0.9,0.8c0.4,0,1.2-0.3,1.2-1.3V7
			C266.5,7,266.1,7.8,266.1,8.4z"/>
	</g>
	<g>
		<path class="st1" d="M274.7,9.3c0,0.1-0.1,0.2-0.2,0.2s-0.2-0.1-0.2-0.2l-1-2.8l-1,2.8c0,0.1-0.1,0.2-0.2,0.2
			c-0.1,0-0.2-0.1-0.2-0.2l-1.3-3.5c-0.1-0.3-0.2-0.3-0.7-0.3V5c0.4,0,0.9,0,0.9,0c0.2,0,0.8,0,1.1,0v0.3c-0.2,0-0.6,0-0.6,0.3
			c0,0,0,0.1,0,0.2l0.9,2.7l0.9-2.4c-0.1-0.2-0.2-0.5-0.2-0.5c-0.1-0.1-0.3-0.1-0.6-0.1V5c0.3,0,0.6,0,0.9,0c0.2,0,0.7,0,1,0v0.3
			c-0.2,0-0.6,0-0.6,0.3c0,0,0,0.1,0,0.2l1,2.8l0.9-2.6c0-0.1,0-0.1,0-0.2c0-0.3-0.2-0.5-0.6-0.5V5c0.2,0,0.6,0,0.9,0
			c0.2,0,0.5,0,0.7,0v0.3c-0.3,0-0.7,0.1-0.8,0.6L274.7,9.3z"/>
		<path class="st1" d="M278.6,8.1c0,0.2,0,1.1,0.7,1.1c0.4,0,0.7-0.4,0.7-1.1V7.5h0.2v0.6c0,0.6-0.3,1.3-1,1.3
			c-0.4,0-1.3-0.1-1.3-1.3V5.4h-0.8V5.1c1,0,1.3-1.1,1.3-1.9h0.2V5h1.4v0.3h-1.4V8.1z"/>
	</g>
	<g>
		<path class="st1" d="M283.2,9.5c-1.2,0-2.2-1-2.2-2.2c0-1.2,1-2.3,2.2-2.3c1.2,0,2.2,1.1,2.2,2.3C285.4,8.5,284.4,9.5,283.2,9.5z
			 M284.4,8.5c0.2-0.4,0.2-1,0.2-1.3c0-0.4,0-1-0.3-1.4c-0.3-0.4-0.7-0.6-1.1-0.6c-0.4,0-0.9,0.2-1.1,0.7c-0.2,0.4-0.2,1-0.2,1.4
			c0,0.4,0,1,0.2,1.4c0.3,0.5,0.7,0.7,1.1,0.7C283.7,9.2,284.2,8.9,284.4,8.5z"/>
		<path class="st1" d="M288.5,9.5c-1.2,0-2.2-1-2.2-2.2c0-1.2,1-2.3,2.2-2.3c1.2,0,2.2,1.1,2.2,2.3C290.7,8.5,289.7,9.5,288.5,9.5z
			 M289.7,8.5c0.2-0.4,0.2-1,0.2-1.3c0-0.4,0-1-0.3-1.4c-0.3-0.4-0.7-0.6-1.1-0.6c-0.4,0-0.9,0.2-1.1,0.7c-0.2,0.4-0.2,1-0.2,1.4
			c0,0.4,0,1,0.2,1.4c0.3,0.5,0.7,0.7,1.1,0.7C289,9.2,289.5,8.9,289.7,8.5z"/>
	</g>
	<g>
		<path class="st1" d="M292.8,8.1c0,0.2,0,1.1,0.7,1.1c0.4,0,0.7-0.4,0.7-1.1V7.5h0.2v0.6c0,0.6-0.3,1.3-1,1.3
			c-0.4,0-1.3-0.1-1.3-1.3V5.4h-0.8V5.1c1,0,1.3-1.1,1.3-1.9h0.2V5h1.4v0.3h-1.4V8.1z"/>
		<path class="st1" d="M296,3.4c0-0.5-0.1-0.6-0.8-0.6V2.5l1.4-0.1v3.5c0.2-0.4,0.6-1,1.4-1c0.6,0,0.9,0.2,1,0.4
			c0.3,0.4,0.3,0.7,0.3,1.5v1.9c0,0.3,0.3,0.3,0.8,0.3v0.3c-0.3,0-0.9,0-1.1,0c-0.3,0-0.8,0-1.1,0V9c0.7,0,0.8,0,0.8-0.4V6.3
			c0-0.6-0.1-1.1-0.7-1.1c-0.6,0-1.3,0.6-1.3,1.6v1.8c0,0.4,0.1,0.4,0.8,0.4v0.3c-0.3,0-0.9,0-1.1,0c-0.3,0-0.8,0-1.1,0V9
			c0.7,0,0.8,0,0.8-0.4V3.4z"/>
	</g>
	<polyline points="259.4,10.9 300.4,10.9 300.4,10.4 259.4,10.4 	"/>
	<path class="st0" d="M301.2,53v7.1 M258.7,60.1V53 M276.4,77.8h7.1 M276.4,35.3h7.1"/>
	<g>
		<path class="st1" d="M302.7,60c0.1-0.1,0.1-0.2,0.3-0.2c0.2,0,0.2,0,0.2,0.2l0.6,6.2c0,0.3,0,0.4,0.6,0.4c0.1,0,0.2,0,0.2,0.1
			c0,0.2-0.1,0.2-0.2,0.2c-0.2,0-0.9,0-1.1,0c-0.4,0-0.8,0-1.2,0c0,0-0.1,0-0.1-0.1c0-0.2,0.1-0.2,0.2-0.2c0.2,0,0.7,0,0.7-0.3
			c0-0.1-0.1-1.5-0.2-1.7h-2.5l-0.8,1.3c-0.1,0.1-0.1,0.2-0.1,0.4c0,0.2,0.2,0.3,0.5,0.3c0.1,0,0.2,0,0.2,0.1c0,0.2-0.1,0.2-0.2,0.2
			c-0.3,0-0.7,0-1,0c-0.3,0-0.6,0-0.9,0c-0.1,0-0.1,0-0.1-0.1c0-0.2,0.1-0.2,0.2-0.2c0.4,0,0.8-0.2,1.2-0.8L302.7,60z M302.7,64.4
			l-0.3-3.3l-2,3.3H302.7z"/>
	</g>
	<g>
		<path class="st1" d="M253.4,65.1v-0.6h2.6v0.6H253.4z"/>
	</g>
	<g>
		<path class="st1" d="M261.9,60c0.1-0.1,0.1-0.2,0.3-0.2c0.2,0,0.2,0,0.2,0.2l0.6,6.2c0,0.3,0,0.4,0.6,0.4c0.1,0,0.2,0,0.2,0.1
			c0,0.2-0.1,0.2-0.2,0.2c-0.2,0-0.9,0-1.1,0c-0.4,0-0.8,0-1.2,0c0,0-0.1,0-0.1-0.1c0-0.2,0.1-0.2,0.2-0.2c0.2,0,0.7,0,0.7-0.3
			c0-0.1-0.1-1.5-0.2-1.7h-2.5l-0.8,1.3c-0.1,0.1-0.1,0.2-0.1,0.4c0,0.2,0.2,0.3,0.5,0.3c0.1,0,0.2,0,0.2,0.1c0,0.2-0.1,0.2-0.2,0.2
			c-0.3,0-0.7,0-1,0c-0.3,0-0.6,0-0.9,0c-0.1,0-0.1,0-0.1-0.1c0-0.2,0.1-0.2,0.2-0.2c0.4,0,0.8-0.2,1.2-0.8L261.9,60z M261.9,64.4
			l-0.3-3.3l-2,3.3H261.9z"/>
	</g>
	<g>
		<path class="st1" d="M270.8,31.7c0.1-0.1,0.1-0.2,0.3-0.2c0.2,0,0.2,0,0.2,0.2l0.6,6.2c0,0.3,0,0.4,0.6,0.4c0.1,0,0.2,0,0.2,0.1
			c0,0.2-0.1,0.2-0.2,0.2c-0.2,0-0.9,0-1.1,0c-0.4,0-0.8,0-1.2,0c0,0-0.1,0-0.1-0.1c0-0.2,0.1-0.2,0.2-0.2c0.2,0,0.7,0,0.7-0.3
			c0-0.1-0.1-1.5-0.2-1.7h-2.5l-0.8,1.3c-0.1,0.1-0.1,0.2-0.1,0.4c0,0.2,0.2,0.3,0.5,0.3c0.1,0,0.2,0,0.2,0.1c0,0.2-0.1,0.2-0.2,0.2
			c-0.3,0-0.7,0-1,0c-0.3,0-0.6,0-0.9,0c-0.1,0-0.1,0-0.1-0.1c0-0.2,0.1-0.2,0.2-0.2c0.4,0,0.8-0.2,1.2-0.8L270.8,31.7z M270.8,36
			l-0.3-3.3l-2,3.3H270.8z"/>
	</g>
	<g>
		<path class="st1" d="M264,79.3v-0.6h2.6v0.6H264z"/>
	</g>
	<g>
		<path class="st1" d="M272.5,74.2c0.1-0.1,0.1-0.2,0.3-0.2c0.2,0,0.2,0,0.2,0.2l0.6,6.2c0,0.3,0,0.4,0.6,0.4c0.1,0,0.2,0,0.2,0.1
			c0,0.2-0.1,0.2-0.2,0.2c-0.2,0-0.9,0-1.1,0c-0.4,0-0.8,0-1.2,0c0,0-0.1,0-0.1-0.1c0-0.2,0.1-0.2,0.2-0.2c0.2,0,0.7,0,0.7-0.3
			c0-0.1-0.1-1.5-0.2-1.7H270l-0.8,1.3c-0.1,0.1-0.1,0.2-0.1,0.4c0,0.2,0.2,0.3,0.5,0.3c0.1,0,0.2,0,0.2,0.1c0,0.2-0.1,0.2-0.2,0.2
			c-0.3,0-0.7,0-1,0c-0.3,0-0.6,0-0.9,0c-0.1,0-0.1,0-0.1-0.1c0-0.2,0.1-0.2,0.2-0.2c0.4,0,0.8-0.2,1.2-0.8L272.5,74.2z M272.5,78.6
			l-0.3-3.3l-2,3.3H272.5z"/>
	</g>
	<line class="st3" x1="301.2" y1="77.8" x2="343.7" y2="35.3"/>
	<line class="st2" x1="343.7" y1="35.3" x2="343.7" y2="77.8"/>
	<line class="st0" x1="258.7" y1="77.8" x2="301.2" y2="35.3"/>
	<path class="st2" d="M301.2,35.3v42.5 M258.7,77.8V35.3"/>
	<path class="st3" d="M343.7,77.8l7.1-7.1 M216.1,77.8l42.5-42.5"/>
	<line class="st2" x1="216.1" y1="35.3" x2="216.1" y2="77.8"/>
	<line class="st3" x1="209.1" y1="42.4" x2="216.1" y2="35.3"/>
	<g>
		<path class="st1" d="M319.3,66.2c0.2,0,0.9,0,0.9-0.1c0.1-0.1,0.2-0.6,0.2-0.9h0.2l-0.3,1.7h-3.7c0-0.2,0-0.3,0.1-0.4l1.9-2.1
			c0.5-0.6,1-1.4,1-2.2c0-0.8-0.4-1.6-1.3-1.6c-0.6,0-1.1,0.4-1.3,1c0,0,0,0,0.1,0c0.3,0,0.5,0.3,0.5,0.5c0,0.4-0.3,0.5-0.5,0.5
			c0,0-0.5,0-0.5-0.6c0-0.9,0.7-1.8,1.9-1.8c1.2,0,2.1,0.8,2.1,1.9c0,1-0.6,1.5-2.2,2.9l-1.1,1H319.3z"/>
	</g>
	<g>
		<path class="st1" d="M326.5,60c0.1-0.1,0.1-0.2,0.3-0.2c0.2,0,0.2,0,0.2,0.2l0.6,6.2c0,0.3,0,0.4,0.6,0.4c0.1,0,0.2,0,0.2,0.1
			c0,0.2-0.1,0.2-0.2,0.2c-0.2,0-0.9,0-1.1,0c-0.4,0-0.8,0-1.2,0c0,0-0.1,0-0.1-0.1c0-0.2,0.1-0.2,0.2-0.2c0.2,0,0.7,0,0.7-0.3
			c0-0.1-0.1-1.5-0.2-1.7H324l-0.8,1.3c-0.1,0.1-0.1,0.2-0.1,0.4c0,0.2,0.2,0.3,0.5,0.3c0.1,0,0.2,0,0.2,0.1c0,0.2-0.1,0.2-0.2,0.2
			c-0.3,0-0.7,0-1,0c-0.3,0-0.6,0-0.9,0c-0.1,0-0.1,0-0.1-0.1c0-0.2,0.1-0.2,0.2-0.2c0.4,0,0.8-0.2,1.2-0.8L326.5,60z M326.5,64.4
			l-0.3-3.3l-2,3.3H326.5z"/>
	</g>
	<g>
		<path class="st1" d="M349.1,65.3c0,1-0.9,1.9-2.1,1.9c-1.1,0-2-0.7-2-1.6c0-0.4,0.3-0.6,0.6-0.6c0.3,0,0.6,0.2,0.6,0.6
			c0,0.4-0.3,0.6-0.7,0.5c0.3,0.6,1.1,0.8,1.5,0.8c0.4,0,1.1-0.3,1.1-1.6c0-1-0.4-1.7-1.2-1.7h-0.4c-0.2,0-0.2,0-0.2-0.1
			c0-0.1,0.1-0.1,0.1-0.1c0.1,0,0.3,0,0.4,0c0.2,0,0.6,0,0.9-0.5c0.3-0.4,0.3-1,0.3-1.1c0-0.9-0.5-1.1-1-1.1c-0.4,0-1,0.1-1.3,0.6
			c0.1,0,0.6,0,0.6,0.5c0,0.3-0.2,0.5-0.5,0.5c-0.3,0-0.5-0.2-0.5-0.5c0-0.8,0.8-1.4,1.8-1.4c1,0,1.8,0.6,1.8,1.4
			c0,0.8-0.6,1.5-1.4,1.8C348.5,63.7,349.1,64.5,349.1,65.3z"/>
	</g>
	<g>
		<path class="st1" d="M354.8,60c0.1-0.1,0.1-0.2,0.3-0.2c0.2,0,0.2,0,0.2,0.2l0.6,6.2c0,0.3,0,0.4,0.6,0.4c0.1,0,0.2,0,0.2,0.1
			c0,0.2-0.1,0.2-0.2,0.2c-0.2,0-0.9,0-1.1,0c-0.4,0-0.8,0-1.2,0c0,0-0.1,0-0.1-0.1c0-0.2,0.1-0.2,0.2-0.2c0.2,0,0.7,0,0.7-0.3
			c0-0.1-0.1-1.5-0.2-1.7h-2.5l-0.8,1.3c-0.1,0.1-0.1,0.2-0.1,0.4c0,0.2,0.2,0.3,0.5,0.3c0.1,0,0.2,0,0.2,0.1c0,0.2-0.1,0.2-0.2,0.2
			c-0.3,0-0.7,0-1,0c-0.3,0-0.6,0-0.9,0c-0.1,0-0.1,0-0.1-0.1c0-0.2,0.1-0.2,0.2-0.2c0.4,0,0.8-0.2,1.2-0.8L354.8,60z M354.8,64.4
			l-0.3-3.3l-2,3.3H354.8z"/>
	</g>
	<g>
		<path class="st1" d="M229.6,65.1v-0.6h2.6v0.6H229.6z"/>
		<path class="st1" d="M235.9,66.2c0.2,0,0.9,0,0.9-0.1c0.1-0.1,0.2-0.6,0.2-0.9h0.2L237,67h-3.7c0-0.2,0-0.3,0.1-0.4l1.9-2.1
			c0.5-0.6,1-1.4,1-2.2c0-0.8-0.4-1.6-1.3-1.6c-0.6,0-1.1,0.4-1.3,1c0,0,0,0,0.1,0c0.3,0,0.5,0.3,0.5,0.5c0,0.4-0.3,0.5-0.5,0.5
			c0,0-0.5,0-0.5-0.6c0-0.9,0.7-1.8,1.9-1.8c1.2,0,2.1,0.8,2.1,1.9c0,1-0.6,1.5-2.2,2.9l-1.1,1H235.9z"/>
	</g>
	<g>
		<path class="st1" d="M243.1,60c0.1-0.1,0.1-0.2,0.3-0.2c0.2,0,0.2,0,0.2,0.2l0.6,6.2c0,0.3,0,0.4,0.6,0.4c0.1,0,0.2,0,0.2,0.1
			c0,0.2-0.1,0.2-0.2,0.2c-0.2,0-0.9,0-1.1,0c-0.4,0-0.8,0-1.2,0c0,0-0.1,0-0.1-0.1c0-0.2,0.1-0.2,0.2-0.2c0.2,0,0.7,0,0.7-0.3
			c0-0.1-0.1-1.5-0.2-1.7h-2.5l-0.8,1.3c-0.1,0.1-0.1,0.2-0.1,0.4c0,0.2,0.2,0.3,0.5,0.3c0.1,0,0.2,0,0.2,0.1c0,0.2-0.1,0.2-0.2,0.2
			c-0.3,0-0.7,0-1,0c-0.3,0-0.6,0-0.9,0c-0.1,0-0.1,0-0.1-0.1c0-0.2,0.1-0.2,0.2-0.2c0.4,0,0.8-0.2,1.2-0.8L243.1,60z M243.1,64.4
			l-0.3-3.3l-2,3.3H243.1z"/>
	</g>
	<g>
		<path class="st1" d="M201.2,65.1v-0.6h2.6v0.6H201.2z"/>
		<path class="st1" d="M209.1,65.3c0,1-0.9,1.9-2.1,1.9c-1.1,0-2-0.7-2-1.6c0-0.4,0.3-0.6,0.6-0.6c0.3,0,0.6,0.2,0.6,0.6
			c0,0.4-0.3,0.6-0.7,0.5c0.3,0.6,1.1,0.8,1.5,0.8c0.4,0,1.1-0.3,1.1-1.6c0-1-0.4-1.7-1.2-1.7h-0.4c-0.2,0-0.2,0-0.2-0.1
			c0-0.1,0.1-0.1,0.1-0.1c0.1,0,0.3,0,0.4,0c0.2,0,0.6,0,0.9-0.5c0.3-0.4,0.3-1,0.3-1.1c0-0.9-0.5-1.1-1-1.1c-0.4,0-1,0.1-1.3,0.6
			c0.1,0,0.6,0,0.6,0.5c0,0.3-0.2,0.5-0.5,0.5c-0.3,0-0.5-0.2-0.5-0.5c0-0.8,0.8-1.4,1.8-1.4c1,0,1.8,0.6,1.8,1.4
			c0,0.8-0.6,1.5-1.4,1.8C208.4,63.7,209.1,64.5,209.1,65.3z"/>
	</g>
	<g>
		<path class="st1" d="M214.8,60c0.1-0.1,0.1-0.2,0.3-0.2c0.2,0,0.2,0,0.2,0.2l0.6,6.2c0,0.3,0,0.4,0.6,0.4c0.1,0,0.2,0,0.2,0.1
			c0,0.2-0.1,0.2-0.2,0.2c-0.2,0-0.9,0-1.1,0c-0.4,0-0.8,0-1.2,0c0,0-0.1,0-0.1-0.1c0-0.2,0.1-0.2,0.2-0.2c0.2,0,0.7,0,0.7-0.3
			c0-0.1-0.1-1.5-0.2-1.7h-2.5l-0.8,1.3c-0.1,0.1-0.1,0.2-0.1,0.4c0,0.2,0.2,0.3,0.5,0.3c0.1,0,0.2,0,0.2,0.1c0,0.2-0.1,0.2-0.2,0.2
			c-0.3,0-0.7,0-1,0c-0.3,0-0.6,0-0.9,0c-0.1,0-0.1,0-0.1-0.1c0-0.2,0.1-0.2,0.2-0.2c0.4,0,0.8-0.2,1.2-0.8L214.8,60z M214.8,64.4
			l-0.3-3.3l-2,3.3H214.8z"/>
	</g>
	<polyline points="172.6,58.8 177.2,56.6 172.6,54.3 173.8,56.6 	"/>
	<line class="st0" x1="99.2" y1="56.6" x2="173.8" y2="56.6"/>
	<polyline points="140.5,32.7 138.2,28.2 135.9,32.7 138.2,31.6 	"/>
	<line class="st0" x1="138.2" y1="81.4" x2="138.2" y2="31.6"/>
	<g>
		<path class="st1" d="M184.4,57.1c-0.1,0.4-0.2,0.7-0.2,0.9c0,0.3,0.2,0.7,0.5,0.7c0.3,0,1-0.2,1.3-1.3c0-0.1,0-0.1,0.1-0.1
			c0,0,0.1,0,0.1,0.1c0,0.2-0.6,1.5-1.6,1.5c-0.6,0-1-0.4-1.1-0.8c0,0.1-0.4,0.8-1,0.8c-0.4,0-0.9-0.2-0.9-0.7
			c0-0.3,0.2-0.6,0.5-0.6c0.1,0,0.4,0.1,0.4,0.3c0,0.3-0.2,0.5-0.5,0.5c0.2,0.1,0.4,0.1,0.5,0.1c0.4,0,0.8-0.4,0.9-1
			c0.4-1.4,0.5-2.1,0.5-2.4c0-0.6-0.3-0.7-0.5-0.7c-0.3,0-1,0.2-1.3,1.3c0,0.1-0.1,0.1-0.1,0.1c0,0-0.1,0-0.1-0.1
			c0-0.3,0.6-1.5,1.6-1.5c0.3,0,0.8,0.1,1.1,0.8c0.1-0.2,0.5-0.8,1-0.8c0.3,0,0.9,0.1,0.9,0.7c0,0.4-0.3,0.6-0.5,0.6
			c-0.3,0-0.4-0.2-0.4-0.3c0-0.2,0.2-0.5,0.5-0.5c-0.2-0.1-0.4-0.1-0.5-0.1c-0.7,0-0.9,0.9-1,1.2L184.4,57.1z"/>
	</g>
	<g>
		<path class="st1" d="M139.8,19l-0.2,0.2l-1.1-1l-1.2,1l-0.2-0.2l1.3-1.4L139.8,19z"/>
	</g>
	<g>
		<path class="st1" d="M138.3,23c-0.1,0.4-0.2,0.7-0.2,0.9c0,0.3,0.2,0.7,0.5,0.7c0.3,0,1-0.2,1.3-1.3c0-0.1,0-0.1,0.1-0.1
			c0,0,0.1,0,0.1,0.1c0,0.2-0.6,1.5-1.6,1.5c-0.6,0-1-0.4-1.1-0.8c0,0.1-0.4,0.8-1,0.8c-0.4,0-0.9-0.2-0.9-0.7
			c0-0.3,0.2-0.6,0.5-0.6c0.1,0,0.4,0.1,0.4,0.3c0,0.3-0.2,0.5-0.5,0.5c0.2,0.1,0.4,0.1,0.5,0.1c0.4,0,0.8-0.4,0.9-1
			c0.4-1.4,0.5-2.1,0.5-2.4c0-0.6-0.3-0.7-0.5-0.7c-0.3,0-1,0.2-1.3,1.3c0,0.1-0.1,0.1-0.1,0.1c0,0-0.1,0-0.1-0.1
			c0-0.2,0.6-1.5,1.6-1.5c0.3,0,0.8,0.1,1.1,0.8c0.1-0.2,0.5-0.8,1-0.8c0.3,0,0.9,0.1,0.9,0.7c0,0.4-0.3,0.6-0.5,0.6
			c-0.3,0-0.4-0.2-0.4-0.3c0-0.2,0.2-0.5,0.5-0.5c-0.2-0.1-0.4-0.1-0.5-0.1c-0.7,0-0.9,0.9-1,1.2L138.3,23z"/>
	</g>
	<line class="st0" x1="116.9" y1="77.8" x2="159.4" y2="35.3"/>
	<g>
		<path class="st1" d="M128.1,6.9V2.6c0-0.3,0-0.7-1-0.7V1.6c0.3,0,0.8,0,1.2,0c0.3,0,0.8,0,1.2,0v0.3c-1,0-1,0.5-1,0.7v5.5
			c0,0.2,0,0.3-0.1,0.3c-0.1,0-0.1,0-0.2-0.1l-4.1-6c0-0.1,0-0.1-0.1-0.1v5.2c0,0.3,0,0.7,1,0.7v0.3c-0.3,0-0.8,0-1.2,0
			s-0.8,0-1.2,0V8.1c1,0,1-0.5,1-0.7V2.1c0-0.2,0-0.2-0.2-0.2c-0.1,0-0.3,0-0.5,0h-0.3V1.6h1.7c0.2,0,0.2,0,0.3,0.1L128.1,6.9z"/>
		<path class="st1" d="M132.3,8.5c-1.5,0-1.5-0.9-1.5-1.7V5.3c0-0.9,0-0.9-0.8-0.9V4.1l1.5-0.1v3.3c0,0.5,0,1,0.9,1
			c0.7,0,1.2-0.7,1.2-1.5V5c0-0.5-0.1-0.6-0.8-0.6V4.1l1.5-0.1v3.5c0,0.5,0.1,0.6,0.8,0.6v0.3l-1.4,0.1V7.6
			C133.3,8.2,132.9,8.5,132.3,8.5z"/>
		<path class="st1" d="M137,7.6c0,0.4,0.1,0.4,0.8,0.4v0.3c-0.4,0-0.9,0-1.1,0c-0.2,0-0.8,0-1.1,0V8.1c0.7,0,0.8,0,0.8-0.4V2.4
			c0-0.5-0.1-0.6-0.8-0.6V1.6l1.4-0.1V7.6z"/>
		<path class="st1" d="M139.7,7.6c0,0.4,0.1,0.4,0.8,0.4v0.3c-0.4,0-0.9,0-1.1,0c-0.2,0-0.8,0-1.1,0V8.1c0.7,0,0.8,0,0.8-0.4V2.4
			c0-0.5-0.1-0.6-0.8-0.6V1.6l1.4-0.1V7.6z"/>
		<path class="st1" d="M142.5,7.6c0,0.4,0,0.4,0.7,0.4v0.3c-0.3,0-0.7,0-1,0c-0.2,0-0.8,0-1.1,0V8.1c0.7,0,0.8,0,0.8-0.4V4.9
			c0-0.5-0.1-0.5-0.7-0.5V4.1l1.4-0.1V7.6z M142,2.8c-0.3,0-0.5-0.3-0.5-0.5c0-0.3,0.2-0.5,0.5-0.5c0.3,0,0.5,0.2,0.5,0.5
			S142.3,2.8,142,2.8z"/>
		<path class="st1" d="M143.8,4.4V4.1l1.4-0.1v1c0.3-0.6,0.7-1,1.5-1c0.6,0,0.9,0.2,1,0.4C148,4.7,148,5,148,5.9v1.9
			c0,0.3,0.3,0.3,0.8,0.3v0.3c-0.3,0-0.9,0-1.1,0c-0.3,0-0.8,0-1.1,0V8.1c0.7,0,0.8,0,0.8-0.4V5.3c0-0.6-0.1-1.1-0.7-1.1
			c-0.6,0-1.3,0.6-1.3,1.6v1.8c0,0.4,0.1,0.4,0.8,0.4v0.3c-0.3,0-0.9,0-1.1,0c-0.3,0-0.8,0-1.1,0V8.1c0.7,0,0.8,0,0.8-0.4V5
			C144.6,4.5,144.5,4.4,143.8,4.4z"/>
	</g>
	<g>
		<path class="st1" d="M150.6,7.7c0.1,0,0.5,0,0.7,0c0.6,0,1.2,0,1.7,0.3c0.5,0.3,0.6,0.8,0.6,1.1c0,0.8-1,1.3-2.2,1.3
			c-1.2,0-2.2-0.5-2.2-1.3c0-0.4,0.3-0.8,0.9-1c-0.3-0.2-0.4-0.6-0.4-0.9c0-0.3,0.2-0.7,0.3-0.8c-0.2-0.2-0.5-0.6-0.5-1
			c0-0.8,0.7-1.5,1.6-1.5c0.2,0,0.6,0,1.1,0.4c0.4-0.4,0.9-0.5,1.1-0.5c0.4,0,0.5,0.3,0.5,0.5c0,0.2-0.2,0.3-0.3,0.3
			c-0.2,0-0.3-0.1-0.3-0.3c0-0.1,0.1-0.2,0.2-0.3c0,0-0.1,0-0.1,0c-0.2,0-0.5,0-0.9,0.4c0.2,0.2,0.4,0.6,0.4,1
			c0,0.8-0.7,1.5-1.6,1.5c-0.2,0-0.6,0-1-0.3C150,6.8,150,7,150,7.1C150,7.4,150.2,7.7,150.6,7.7z M153.2,9.2c0-0.9-1.1-0.9-2-0.9
			h-0.6c-0.4,0-0.8,0.4-0.8,0.9c0,0.5,0.7,1,1.7,1C152.5,10.2,153.2,9.7,153.2,9.2z M151.9,6.3c0.1-0.2,0.2-0.6,0.2-0.8
			c0-0.2,0-1.2-0.9-1.2c-0.4,0-0.6,0.3-0.7,0.4c-0.1,0.2-0.2,0.6-0.2,0.8c0,0.2,0,1.2,0.9,1.2C151.6,6.7,151.8,6.4,151.9,6.3z"/>
	</g>
	<polyline points="122.2,12 154.1,12 154.1,11.5 122.2,11.5 	"/>
	<path class="st2" d="M159.4,35.3v21.3 M116.9,77.8V56.6"/>
	<path class="st0" d="M159.4,53v7.1 M116.9,60.1V53 M134.6,77.8h7.1 M134.6,35.3h7.1"/>
	<g>
		<path class="st1" d="M161,60c0.1-0.1,0.1-0.2,0.3-0.2c0.2,0,0.2,0,0.2,0.2l0.6,6.2c0,0.3,0,0.4,0.6,0.4c0.1,0,0.2,0,0.2,0.1
			c0,0.2-0.1,0.2-0.2,0.2c-0.2,0-0.9,0-1.1,0c-0.4,0-0.8,0-1.2,0c0,0-0.1,0-0.1-0.1c0-0.2,0.1-0.2,0.2-0.2c0.2,0,0.7,0,0.7-0.3
			c0-0.1-0.1-1.5-0.2-1.7h-2.5l-0.8,1.3c-0.1,0.1-0.1,0.2-0.1,0.4c0,0.2,0.2,0.3,0.5,0.3c0.1,0,0.2,0,0.2,0.1c0,0.2-0.1,0.2-0.2,0.2
			c-0.3,0-0.7,0-1,0c-0.3,0-0.6,0-0.9,0c-0.1,0-0.1,0-0.1-0.1c0-0.2,0.1-0.2,0.2-0.2c0.4,0,0.8-0.2,1.2-0.8L161,60z M161,64.4
			l-0.3-3.3l-2,3.3H161z"/>
	</g>
	<g>
		<path class="st1" d="M111.6,65.1v-0.6h2.6v0.6H111.6z"/>
	</g>
	<g>
		<path class="st1" d="M120.1,60c0.1-0.1,0.1-0.2,0.3-0.2c0.2,0,0.2,0,0.2,0.2l0.6,6.2c0,0.3,0,0.4,0.6,0.4c0.1,0,0.2,0,0.2,0.1
			c0,0.2-0.1,0.2-0.2,0.2c-0.2,0-0.9,0-1.1,0c-0.4,0-0.8,0-1.2,0c0,0-0.1,0-0.1-0.1c0-0.2,0.1-0.2,0.2-0.2c0.2,0,0.7,0,0.7-0.3
			c0-0.1-0.1-1.5-0.2-1.7h-2.5l-0.8,1.3c-0.1,0.1-0.1,0.2-0.1,0.4c0,0.2,0.2,0.3,0.5,0.3c0.1,0,0.2,0,0.2,0.1c0,0.2-0.1,0.2-0.2,0.2
			c-0.3,0-0.7,0-1,0c-0.3,0-0.6,0-0.9,0c-0.1,0-0.1,0-0.1-0.1c0-0.2,0.1-0.2,0.2-0.2c0.4,0,0.8-0.2,1.2-0.8L120.1,60z M120.2,64.4
			l-0.3-3.3l-2,3.3H120.2z"/>
	</g>
	<g>
		<path class="st1" d="M129.1,31.7c0.1-0.1,0.1-0.2,0.3-0.2c0.2,0,0.2,0,0.2,0.2l0.6,6.2c0,0.3,0,0.4,0.6,0.4c0.1,0,0.2,0,0.2,0.1
			c0,0.2-0.1,0.2-0.2,0.2c-0.2,0-0.9,0-1.1,0c-0.4,0-0.8,0-1.2,0c0,0-0.1,0-0.1-0.1c0-0.2,0.1-0.2,0.2-0.2c0.2,0,0.7,0,0.7-0.3
			c0-0.1-0.1-1.5-0.2-1.7h-2.5l-0.8,1.3c-0.1,0.1-0.1,0.2-0.1,0.4c0,0.2,0.2,0.3,0.5,0.3c0.1,0,0.2,0,0.2,0.1c0,0.2-0.1,0.2-0.2,0.2
			c-0.3,0-0.7,0-1,0c-0.3,0-0.6,0-0.9,0c-0.1,0-0.1,0-0.1-0.1c0-0.2,0.1-0.2,0.2-0.2c0.4,0,0.8-0.2,1.2-0.8L129.1,31.7z M129.1,36
			l-0.3-3.3l-2,3.3H129.1z"/>
	</g>
	<g>
		<path class="st1" d="M122.3,79.3v-0.6h2.6v0.6H122.3z"/>
	</g>
	<g>
		<path class="st1" d="M130.8,74.2c0.1-0.1,0.1-0.2,0.3-0.2c0.2,0,0.2,0,0.2,0.2l0.6,6.2c0,0.3,0,0.4,0.6,0.4c0.1,0,0.2,0,0.2,0.1
			c0,0.2-0.1,0.2-0.2,0.2c-0.2,0-0.9,0-1.1,0c-0.4,0-0.8,0-1.2,0c0,0-0.1,0-0.1-0.1c0-0.2,0.1-0.2,0.2-0.2c0.2,0,0.7,0,0.7-0.3
			c0-0.1-0.1-1.5-0.2-1.7h-2.5l-0.8,1.3c-0.1,0.1-0.1,0.2-0.1,0.4c0,0.2,0.2,0.3,0.5,0.3c0.1,0,0.2,0,0.2,0.1c0,0.2-0.1,0.2-0.2,0.2
			c-0.3,0-0.7,0-1,0c-0.3,0-0.6,0-0.9,0c-0.1,0-0.1,0-0.1-0.1c0-0.2,0.1-0.2,0.2-0.2c0.4,0,0.8-0.2,1.2-0.8L130.8,74.2z M130.8,78.6
			l-0.3-3.3l-2,3.3H130.8z"/>
	</g>
	<path class="st2" d="M116.9,56.6H99.2 M177.2,56.6h-17.7"/>
</g>
</svg>
