<?xml version="1.0" encoding="utf-8"?>
<!-- Generator: Adobe Illustrator 22.1.0, SVG Export Plug-In . SVG Version: 6.00 Build 0)  -->
<svg version="1.1" id="Layer_1" xmlns="http://www.w3.org/2000/svg" xmlns:xlink="http://www.w3.org/1999/xlink" x="0px" y="0px"
	 viewBox="0 0 280.6 128.6" style="enable-background:new 0 0 280.6 128.6;" xml:space="preserve">
<style type="text/css">
	.st0{fill:none;stroke:#000000;stroke-width:0.8504;stroke-miterlimit:10;}
	.st1{fill:none;stroke:#0000FF;stroke-width:1.4173;stroke-miterlimit:10;}
	.st2{fill:#1D1D1B;}
	.st3{fill:none;stroke:#000000;stroke-width:0.8504;stroke-miterlimit:10;stroke-dasharray:2.7647,2.7647,0,0;}
</style>
<g>
	<polyline points="65.1,65.9 69.7,63.6 65.1,61.4 66.3,63.6 	"/>
	<line class="st0" x1="2.3" y1="63.6" x2="66.3" y2="63.6"/>
	<polyline points="36.5,32.7 34.2,28.2 32,32.7 34.2,31.6 	"/>
	<path class="st0" d="M34.2,95.5V31.6 M30.7,92h7.1 M30.7,84.9h7.1 M30.7,77.8h7.1 M30.7,70.7h7.1"/>
	<path class="st1" d="M30.7,63.6h7.1 M37.8,63.6v-7.1 M37.8,56.6h7.1 M44.9,56.6v-7.1 M44.9,49.5H52 M52,49.5v-7.1 M52,42.4H59
		 M59,42.4v-7.1 M59,35.3h7.1 M30.7,63.6v7.1 M30.7,70.7h-7.1 M23.6,70.7v7.1 M23.6,77.8h-7.1 M16.5,77.8v7.1 M16.5,84.9H9.4
		 M9.4,84.9V92 M9.4,92H2.3"/>
	<path class="st0" d="M30.7,56.6h7.1 M30.7,49.5h7.1 M30.7,42.4h7.1 M30.7,35.3h7.1"/>
	<g>
		<path class="st2" d="M76.9,64.1c-0.1,0.4-0.2,0.7-0.2,0.9c0,0.3,0.2,0.7,0.5,0.7c0.3,0,1-0.2,1.3-1.3c0-0.1,0-0.1,0.1-0.1
			c0,0,0.1,0,0.1,0.1c0,0.2-0.6,1.5-1.6,1.5c-0.6,0-1-0.4-1.1-0.8c0,0.1-0.4,0.8-1,0.8c-0.4,0-0.9-0.2-0.9-0.7
			c0-0.3,0.2-0.6,0.5-0.6c0.1,0,0.4,0.1,0.4,0.3c0,0.3-0.2,0.5-0.5,0.5c0.2,0.1,0.4,0.1,0.5,0.1c0.4,0,0.8-0.4,0.9-1
			c0.4-1.4,0.5-2.1,0.5-2.4c0-0.6-0.3-0.7-0.5-0.7c-0.3,0-1,0.2-1.3,1.3c0,0.1-0.1,0.1-0.1,0.1c0,0-0.1,0-0.1-0.1
			c0-0.2,0.6-1.5,1.6-1.5c0.3,0,0.8,0.1,1.1,0.8c0.1-0.2,0.5-0.8,1-0.8c0.3,0,0.9,0.1,0.9,0.7c0,0.4-0.3,0.6-0.5,0.6
			c-0.3,0-0.4-0.2-0.4-0.3c0-0.2,0.2-0.5,0.5-0.5c-0.2-0.1-0.4-0.1-0.5-0.1c-0.7,0-0.9,0.9-1,1.2L76.9,64.1z"/>
	</g>
	<g>
		<path class="st2" d="M35.8,19l-0.2,0.2l-1.1-1l-1.2,1L33.2,19l1.3-1.4L35.8,19z"/>
	</g>
	<g>
		<path class="st2" d="M34.4,22.9c-0.1,0.4-0.2,0.7-0.2,0.9c0,0.3,0.2,0.7,0.5,0.7c0.3,0,1-0.2,1.3-1.3c0-0.1,0-0.1,0.1-0.1
			c0,0,0.1,0,0.1,0.1c0,0.2-0.6,1.5-1.6,1.5c-0.6,0-1-0.4-1.1-0.8c0,0.1-0.4,0.8-1,0.8c-0.4,0-0.9-0.2-0.9-0.7
			c0-0.3,0.2-0.6,0.5-0.6c0.1,0,0.4,0.1,0.4,0.3c0,0.3-0.2,0.5-0.5,0.5c0.2,0.1,0.4,0.1,0.5,0.1c0.4,0,0.8-0.4,0.9-1
			c0.4-1.4,0.5-2.1,0.5-2.4c0-0.6-0.3-0.7-0.5-0.7c-0.3,0-1,0.2-1.3,1.3c0,0.1-0.1,0.1-0.1,0.1c0,0-0.1,0-0.1-0.1
			c0-0.2,0.6-1.5,1.6-1.5c0.3,0,0.8,0.1,1.1,0.8c0.1-0.2,0.5-0.8,1-0.8c0.3,0,0.9,0.1,0.9,0.7c0,0.4-0.3,0.6-0.5,0.6
			c-0.3,0-0.4-0.2-0.4-0.3c0-0.2,0.2-0.5,0.5-0.5c-0.2-0.1-0.4-0.1-0.5-0.1c-0.7,0-0.9,0.9-1,1.2L34.4,22.9z"/>
	</g>
	<path class="st0" d="M27.1,60.1v7.1 M20.1,60.1v7.1 M13,60.1v7.1 M5.9,60.1v7.1 M41.3,60.1v7.1 M48.4,60.1v7.1 M55.5,60.1v7.1
		 M62.6,60.1v7.1"/>
	<g>
		<path class="st2" d="M42.1,73.2c0,0.1,0,0.1,0,0.2c0,0.1,0,0.2,0.5,0.2c0.2,0,0.3,0,0.3,0.1c0,0.2-0.1,0.2-0.2,0.2
			c-0.3,0-0.7,0-1,0c-0.3,0-0.7,0-1,0c-0.1,0-0.1-0.1-0.1-0.1c0-0.2,0.1-0.2,0.2-0.2c0.6,0,0.6,0,0.7-0.3c0-0.1,0.4-1.4,0.4-1.8
			c-0.4,0.4-0.7,0.6-1.2,0.6c-0.7,0-1.3-0.6-1.3-1.6c0-1.4,1.2-2.9,2.4-2.9c0.3,0,0.7,0.2,0.9,0.7c0.2-0.3,0.6-0.7,0.7-0.7
			c0.1,0,0.1,0.1,0.1,0.1L42.1,73.2z M42,71c0,0,0.6-2.2,0.6-2.3c0-0.1-0.1-0.9-0.8-0.9c-0.4,0-0.9,0.4-1.2,1.2
			c-0.2,0.4-0.5,1.5-0.5,2c0,0.2,0,0.9,0.6,0.9C41.3,71.9,41.9,71.2,42,71z"/>
	</g>
	<g>
		<path class="st2" d="M28,58.9c0,0.1,0,0.1,0,0.2c0,0.1,0,0.2,0.5,0.2c0.2,0,0.3,0,0.3,0.1c0,0.2-0.1,0.2-0.2,0.2c-0.3,0-0.7,0-1,0
			c-0.3,0-0.7,0-1,0c-0.1,0-0.1-0.1-0.1-0.1c0-0.2,0.1-0.2,0.2-0.2c0.6,0,0.6,0,0.7-0.3c0-0.1,0.4-1.4,0.4-1.8
			c-0.4,0.4-0.7,0.6-1.2,0.6c-0.7,0-1.3-0.6-1.3-1.6c0-1.4,1.2-2.9,2.4-2.9c0.3,0,0.7,0.2,0.9,0.7c0.2-0.3,0.6-0.7,0.7-0.7
			c0.1,0,0.1,0.1,0.1,0.1L28,58.9z M27.8,56.7c0,0,0.6-2.2,0.6-2.3c0-0.1-0.1-0.9-0.8-0.9c-0.4,0-0.9,0.4-1.2,1.2
			c-0.2,0.4-0.5,1.5-0.5,2c0,0.2,0,0.9,0.6,0.9C27.1,57.6,27.7,56.9,27.8,56.7z"/>
	</g>
	<line class="st3" x1="5.9" y1="92" x2="62.6" y2="35.3"/>
	<g>
		<path class="st2" d="M18.7,6.2l0.1,0.8c0.1,0.9,0.2,1.4,0.7,1.4c0.2,0,0.6-0.2,0.7-0.9c0-0.1,0-0.2,0.1-0.2c0.1,0,0.1,0.1,0.1,0.2
			c0,0.3-0.2,1.1-0.9,1.1c-0.3,0-0.8-0.1-1.3-0.4c-0.4-0.4-0.4-0.8-0.4-1.4c0-0.7,0-1-0.4-1.3c-0.3-0.3-0.8-0.3-0.9-0.3h-1.1v2.5
			c0,0.4,0,0.5,0.8,0.5h0.2v0.3c-0.4,0-1.1,0-1.5,0c-0.4,0-1.1,0-1.5,0V8.1h0.2c0.8,0,0.8-0.1,0.8-0.5V2.4c0-0.4,0-0.5-0.8-0.5h-0.2
			V1.6h3.1c1.5,0,2.6,0.8,2.6,1.8c0,0.8-0.8,1.4-1.7,1.6C18.1,5.2,18.6,5.5,18.7,6.2z M16.5,4.9c1.5,0,1.7-0.8,1.7-1.5
			c0-1.4-1.1-1.5-2-1.5c-0.2,0-0.5,0-0.6,0c-0.2,0-0.2,0.1-0.2,0.4v2.6H16.5z"/>
		<path class="st2" d="M23,8.5c-1.2,0-2.2-1-2.2-2.2c0-1.2,1-2.3,2.2-2.3c1.2,0,2.2,1.1,2.2,2.3C25.2,7.5,24.2,8.5,23,8.5z
			 M24.2,7.5c0.2-0.4,0.2-1,0.2-1.3c0-0.4,0-1-0.3-1.4c-0.3-0.4-0.7-0.6-1.1-0.6c-0.4,0-0.9,0.2-1.1,0.7c-0.2,0.4-0.2,1-0.2,1.4
			c0,0.4,0,1,0.2,1.4C22.1,8,22.6,8.2,23,8.2C23.5,8.2,23.9,8,24.2,7.5z"/>
		<path class="st2" d="M28.1,8.5c-1.5,0-1.5-0.9-1.5-1.7V5.3c0-0.9,0-0.9-0.8-0.9V4.1L27.3,4v3.3c0,0.5,0,1,0.9,1
			c0.7,0,1.2-0.7,1.2-1.5V5c0-0.5-0.1-0.6-0.8-0.6V4.1L30,4v3.5c0,0.5,0.1,0.6,0.8,0.6v0.3l-1.4,0.1V7.6C29.1,8.2,28.6,8.5,28.1,8.5
			z"/>
		<path class="st2" d="M31.3,4.4V4.1L32.7,4v1c0.3-0.6,0.7-1,1.5-1c0.6,0,0.9,0.2,1,0.4c0.3,0.4,0.3,0.7,0.3,1.5v1.9
			c0,0.3,0.3,0.3,0.8,0.3v0.3c-0.3,0-0.9,0-1.1,0c-0.3,0-0.8,0-1.1,0V8.1c0.7,0,0.8,0,0.8-0.4V5.3c0-0.6-0.1-1.1-0.7-1.1
			c-0.6,0-1.3,0.6-1.3,1.6v1.8c0,0.4,0.1,0.4,0.8,0.4v0.3c-0.3,0-0.9,0-1.1,0c-0.3,0-0.8,0-1.1,0V8.1c0.7,0,0.8,0,0.8-0.4V5
			C32.1,4.5,32,4.4,31.3,4.4z"/>
		<path class="st2" d="M38.9,8.5c-1.1,0-2.1-1-2.1-2.3C36.8,5,37.9,4,39,4c0.5,0,1,0.3,1.3,0.6V2.4c0-0.5-0.1-0.6-0.8-0.6V1.6
			L41,1.5v6C41,8,41,8.1,41.7,8.1v0.3l-1.5,0.1V7.8C40,8.2,39.6,8.5,38.9,8.5z M40.2,4.8c-0.3-0.4-0.7-0.6-1.1-0.6
			c-0.5,0-0.9,0.3-1.1,0.6c-0.3,0.4-0.3,1-0.3,1.4c0,0.4,0,1,0.3,1.4c0.2,0.4,0.6,0.6,1,0.6c0.4,0,0.9-0.2,1.2-0.7
			c0.1-0.2,0.1-0.2,0.1-0.4v-2C40.3,5,40.3,5,40.2,4.8z"/>
		<path class="st2" d="M43.8,7.6c0,0.4,0,0.4,0.7,0.4v0.3c-0.3,0-0.7,0-1,0c-0.2,0-0.8,0-1.1,0V8.1c0.7,0,0.8,0,0.8-0.4V4.9
			c0-0.5-0.1-0.5-0.7-0.5V4.1L43.8,4V7.6z M43.3,2.8c-0.3,0-0.5-0.3-0.5-0.5c0-0.3,0.2-0.5,0.5-0.5c0.3,0,0.5,0.2,0.5,0.5
			S43.6,2.8,43.3,2.8z"/>
		<path class="st2" d="M45.1,4.4V4.1L46.5,4v1c0.3-0.6,0.7-1,1.5-1c0.6,0,0.9,0.2,1,0.4c0.3,0.4,0.3,0.7,0.3,1.5v1.9
			c0,0.3,0.3,0.3,0.8,0.3v0.3c-0.3,0-0.9,0-1.1,0c-0.3,0-0.8,0-1.1,0V8.1c0.7,0,0.8,0,0.8-0.4V5.3c0-0.6-0.1-1.1-0.7-1.1
			c-0.6,0-1.3,0.6-1.3,1.6v1.8c0,0.4,0.1,0.4,0.8,0.4v0.3c-0.3,0-0.9,0-1.1,0c-0.3,0-0.8,0-1.1,0V8.1c0.7,0,0.8,0,0.8-0.4V5
			C45.8,4.5,45.8,4.4,45.1,4.4z"/>
		<path class="st2" d="M51.8,7.7c0.1,0,0.5,0,0.7,0c0.6,0,1.2,0,1.7,0.3c0.5,0.3,0.6,0.8,0.6,1.1c0,0.8-1,1.3-2.2,1.3
			c-1.2,0-2.2-0.5-2.2-1.3c0-0.4,0.3-0.8,0.9-1C51.1,8,51,7.6,51,7.3c0-0.3,0.2-0.7,0.3-0.8c-0.2-0.2-0.5-0.6-0.5-1
			c0-0.8,0.7-1.5,1.6-1.5c0.2,0,0.6,0,1.1,0.4c0.4-0.4,0.9-0.5,1.1-0.5c0.4,0,0.5,0.3,0.5,0.5c0,0.2-0.2,0.3-0.3,0.3
			c-0.2,0-0.3-0.1-0.3-0.3c0-0.1,0.1-0.2,0.2-0.3c0,0-0.1,0-0.1,0c-0.2,0-0.5,0-0.9,0.4c0.2,0.2,0.4,0.6,0.4,1
			c0,0.8-0.7,1.5-1.6,1.5c-0.2,0-0.6,0-1-0.3c-0.2,0.2-0.2,0.4-0.2,0.5C51.3,7.4,51.5,7.7,51.8,7.7z M54.4,9.2c0-0.9-1.1-0.9-2-0.9
			h-0.6c-0.4,0-0.8,0.4-0.8,0.9c0,0.5,0.7,1,1.7,1C53.7,10.2,54.4,9.7,54.4,9.2z M53.2,6.3c0.1-0.2,0.2-0.6,0.2-0.8
			c0-0.2,0-1.2-0.9-1.2c-0.4,0-0.6,0.3-0.7,0.4c-0.1,0.2-0.2,0.6-0.2,0.8c0,0.2,0,1.2,0.9,1.2C52.9,6.7,53.1,6.4,53.2,6.3z"/>
	</g>
	<polyline points="13.2,12 55.4,12 55.4,11.5 13.2,11.5 	"/>
	<g>
		<path class="st2" d="M1.2,106.4c-0.2,0-0.3,0-0.3-0.2S1,106,1.2,106h5.4c0.2,0,0.3,0,0.3,0.2s-0.2,0.2-0.3,0.2H1.2z"/>
	</g>
	<g>
		<path class="st2" d="M10.9,109.9c0,0.1,0,0.1,0,0.2c0,0.1,0,0.2,0.5,0.2c0.2,0,0.3,0,0.3,0.1c0,0.2-0.1,0.2-0.2,0.2
			c-0.3,0-0.7,0-1,0c-0.3,0-0.7,0-1,0c-0.1,0-0.1-0.1-0.1-0.1c0-0.2,0.1-0.2,0.2-0.2c0.6,0,0.6,0,0.7-0.3c0-0.1,0.4-1.4,0.4-1.8
			c-0.4,0.4-0.7,0.6-1.2,0.6c-0.7,0-1.3-0.6-1.3-1.6c0-1.4,1.2-2.9,2.4-2.9c0.3,0,0.7,0.2,0.9,0.7c0.2-0.3,0.6-0.7,0.7-0.7
			c0.1,0,0.1,0.1,0.1,0.1L10.9,109.9z M10.8,107.7c0,0,0.6-2.2,0.6-2.3c0-0.1-0.1-0.9-0.8-0.9c-0.4,0-0.9,0.4-1.2,1.2
			c-0.2,0.4-0.5,1.5-0.5,2c0,0.2,0,0.9,0.6,0.9C10.1,108.6,10.7,108,10.8,107.7z"/>
		<path class="st2" d="M13.6,111c-0.1,0.2-0.1,0.2-0.2,0.2c-0.1,0-0.2-0.1-0.2-0.2c0,0,0,0,0-0.2l3.5-9.5c0-0.1,0.1-0.1,0.2-0.1
			c0.1,0,0.2,0.1,0.2,0.2c0,0,0,0,0,0.2L13.6,111z"/>
	</g>
	<g>
		<path class="st2" d="M20.7,107.9c0.2,0,0.9,0,0.9-0.1c0.1-0.1,0.2-0.6,0.2-0.9h0.2l-0.3,1.7h-3.7c0-0.2,0-0.3,0.1-0.4l1.9-2.1
			c0.5-0.6,1-1.4,1-2.2c0-0.8-0.4-1.6-1.3-1.6c-0.6,0-1.1,0.4-1.3,1c0,0,0,0,0.1,0c0.3,0,0.5,0.3,0.5,0.5c0,0.4-0.3,0.5-0.5,0.5
			c0,0-0.5,0-0.5-0.6c0-0.9,0.7-1.8,1.9-1.8c1.2,0,2.1,0.8,2.1,1.9c0,1-0.6,1.5-2.2,2.9l-1.1,1H20.7z"/>
	</g>
	<g>
		<path class="st2" d="M26.8,105.3l5.2,2.5c0.2,0.1,0.2,0.1,0.2,0.2c0,0.1-0.1,0.2-0.2,0.2c0,0,0,0-0.2-0.1l-5.5-2.6
			c-0.1-0.1-0.2-0.1-0.2-0.2c0-0.1,0-0.1,0.2-0.2l5.5-2.6c0,0,0.1-0.1,0.2-0.1c0.1,0,0.2,0.1,0.2,0.2c0,0.1-0.1,0.2-0.2,0.2
			L26.8,105.3z M26.5,110.1c-0.2,0-0.3,0-0.3-0.2s0.2-0.2,0.4-0.2h5.4c0.1,0,0.4,0,0.4,0.2s-0.2,0.2-0.3,0.2H26.5z"/>
	</g>
	<g>
		<path class="st2" d="M37.2,106.4c-0.1,0.6-0.2,0.9-0.2,1c0,0.3,0.1,1.2,0.9,1.2c0.1,0,1.2,0,2-1c0.1-0.1,0.1-0.1,0.1-0.1
			c0.1,0,0.1,0.1,0.1,0.1c0,0.1-0.8,1.2-2.3,1.2c-1,0-1.6-0.8-1.6-1.8c0-1.7,1.5-2.7,2.6-2.7c0.7,0,1.1,0.4,1.1,0.8
			c0,0.1,0,0.7-0.7,1c-0.5,0.2-1.2,0.2-1.5,0.2H37.2z M37.7,106.2c0.4,0,2,0,2-1c0-0.3-0.3-0.6-0.7-0.6c-0.3,0-1.3,0.1-1.7,1.7H37.7
			z"/>
		<path class="st2" d="M44.7,106.2l5.2,2.5c0.1,0.1,0.2,0.1,0.2,0.2s-0.1,0.2-0.2,0.2c0,0,0,0-0.2-0.1l-5.5-2.6
			c-0.1,0-0.2-0.1-0.2-0.2c0-0.1,0.1-0.2,0.2-0.2l5.5-2.6c0.1-0.1,0.1-0.1,0.2-0.1c0.1,0,0.2,0.1,0.2,0.2c0,0.1-0.1,0.2-0.2,0.2
			L44.7,106.2z"/>
	</g>
	<g>
		<path class="st2" d="M56.9,109.9c0,0.1,0,0.1,0,0.2c0,0.1,0,0.2,0.5,0.2c0.2,0,0.3,0,0.3,0.1c0,0.2-0.1,0.2-0.2,0.2
			c-0.3,0-0.7,0-1,0c-0.3,0-0.7,0-1,0c-0.1,0-0.1-0.1-0.1-0.1c0-0.2,0.1-0.2,0.2-0.2c0.6,0,0.6,0,0.7-0.3c0-0.1,0.4-1.4,0.4-1.8
			c-0.4,0.4-0.7,0.6-1.2,0.6c-0.7,0-1.3-0.6-1.3-1.6c0-1.4,1.2-2.9,2.4-2.9c0.3,0,0.7,0.2,0.9,0.7c0.2-0.3,0.6-0.7,0.7-0.7
			c0.1,0,0.1,0.1,0.1,0.1L56.9,109.9z M56.8,107.7c0,0,0.6-2.2,0.6-2.3c0-0.1-0.1-0.9-0.8-0.9c-0.4,0-0.9,0.4-1.2,1.2
			c-0.2,0.4-0.5,1.5-0.5,2c0,0.2,0,0.9,0.6,0.9C56.1,108.6,56.6,108,56.8,107.7z"/>
		<path class="st2" d="M59.5,111c-0.1,0.2-0.1,0.2-0.2,0.2c-0.1,0-0.2-0.1-0.2-0.2c0,0,0,0,0-0.2l3.5-9.5c0-0.1,0.1-0.1,0.2-0.1
			c0.1,0,0.2,0.1,0.2,0.2c0,0,0,0,0,0.2L59.5,111z"/>
	</g>
	<g>
		<path class="st2" d="M66.6,107.9c0.2,0,0.9,0,0.9-0.1c0.1-0.1,0.2-0.6,0.2-0.9h0.2l-0.3,1.7h-3.7c0-0.2,0-0.3,0.1-0.4l1.9-2.1
			c0.5-0.6,1-1.4,1-2.2c0-0.8-0.4-1.6-1.3-1.6c-0.6,0-1.1,0.4-1.3,1c0,0,0,0,0.1,0c0.3,0,0.5,0.3,0.5,0.5c0,0.4-0.3,0.5-0.5,0.5
			c0,0-0.5,0-0.5-0.6c0-0.9,0.7-1.8,1.9-1.8c1.2,0,2.1,0.8,2.1,1.9c0,1-0.6,1.5-2.2,2.9l-1.1,1H66.6z"/>
	</g>
	<polyline points="263.6,65.9 268.1,63.6 263.6,61.4 264.7,63.6 	"/>
	<line class="st0" x1="200.8" y1="63.6" x2="264.7" y2="63.6"/>
	<polyline points="234.9,32.7 232.7,28.2 230.4,32.7 232.7,31.6 	"/>
	<path class="st0" d="M232.7,95.5l0-63.9 M229.1,92h7.1 M229.1,84.9h7.1 M229.1,77.8h7.1 M229.1,70.7h7.1 M229.1,56.6h7.1
		 M229.1,49.5h7.1 M229.1,42.4h7.1 M229.1,35.3h7.1"/>
	<g>
		<path class="st2" d="M275.4,64.1c-0.1,0.4-0.2,0.7-0.2,0.9c0,0.3,0.2,0.7,0.5,0.7c0.3,0,1-0.2,1.3-1.3c0-0.1,0-0.1,0.1-0.1
			c0,0,0.1,0,0.1,0.1c0,0.2-0.6,1.5-1.6,1.5c-0.6,0-1-0.4-1.1-0.8c0,0.1-0.4,0.8-1,0.8c-0.4,0-0.9-0.2-0.9-0.7
			c0-0.3,0.2-0.6,0.5-0.6c0.1,0,0.4,0.1,0.4,0.3c0,0.3-0.2,0.5-0.5,0.5c0.2,0.1,0.4,0.1,0.5,0.1c0.4,0,0.8-0.4,0.9-1
			c0.4-1.4,0.5-2.1,0.5-2.4c0-0.6-0.3-0.7-0.5-0.7c-0.3,0-1,0.2-1.3,1.3c0,0.1,0,0.1-0.1,0.1c0,0-0.1,0-0.1-0.1
			c0-0.2,0.6-1.5,1.6-1.5c0.3,0,0.8,0.1,1.1,0.8c0.1-0.2,0.5-0.8,1-0.8c0.3,0,0.9,0.1,0.9,0.7c0,0.4-0.3,0.6-0.5,0.6
			c-0.3,0-0.4-0.2-0.4-0.3c0-0.2,0.2-0.5,0.5-0.5c-0.2-0.1-0.4-0.1-0.5-0.1c-0.7,0-0.9,0.9-1,1.2L275.4,64.1z"/>
	</g>
	<g>
		<path class="st2" d="M234.3,19l-0.2,0.2l-1.1-1l-1.2,1l-0.2-0.2l1.3-1.4L234.3,19z"/>
	</g>
	<g>
		<path class="st2" d="M232.8,22.9c-0.1,0.4-0.2,0.7-0.2,0.9c0,0.3,0.2,0.7,0.5,0.7c0.3,0,1-0.2,1.3-1.3c0-0.1,0-0.1,0.1-0.1
			c0,0,0.1,0,0.1,0.1c0,0.2-0.6,1.5-1.6,1.5c-0.6,0-1-0.4-1.1-0.8c0,0.1-0.4,0.8-1,0.8c-0.4,0-0.9-0.2-0.9-0.7
			c0-0.3,0.2-0.6,0.5-0.6c0.1,0,0.4,0.1,0.4,0.3c0,0.3-0.2,0.5-0.5,0.5c0.2,0.1,0.4,0.1,0.5,0.1c0.4,0,0.8-0.4,0.9-1
			c0.4-1.4,0.5-2.1,0.5-2.4c0-0.6-0.3-0.7-0.5-0.7c-0.3,0-1,0.2-1.3,1.3c0,0.1,0,0.1-0.1,0.1c0,0-0.1,0-0.1-0.1
			c0-0.2,0.6-1.5,1.6-1.5c0.3,0,0.8,0.1,1.1,0.8c0.1-0.2,0.5-0.8,1-0.8c0.3,0,0.9,0.1,0.9,0.7c0,0.4-0.3,0.6-0.5,0.6
			c-0.3,0-0.4-0.2-0.4-0.3c0-0.2,0.2-0.5,0.5-0.5c-0.2-0.1-0.4-0.1-0.5-0.1c-0.7,0-0.9,0.9-1,1.2L232.8,22.9z"/>
	</g>
	<path class="st0" d="M225.6,60.1v7.1 M218.5,60.1v7.1 M211.4,60.1v7.1 M204.3,60.1v7.1 M239.7,60.1v7.1 M246.8,60.1v7.1
		 M253.9,60.1v7.1 M261,60.1v7.1"/>
	<g>
		<path class="st2" d="M240.5,73.2c0,0.1,0,0.1,0,0.2c0,0.1,0,0.2,0.5,0.2c0.2,0,0.3,0,0.3,0.1c0,0.2-0.1,0.2-0.2,0.2
			c-0.3,0-0.7,0-1,0c-0.3,0-0.7,0-1,0c-0.1,0-0.1-0.1-0.1-0.1c0-0.2,0.1-0.2,0.2-0.2c0.6,0,0.6,0,0.7-0.3c0-0.1,0.4-1.4,0.4-1.8
			c-0.4,0.4-0.7,0.6-1.2,0.6c-0.7,0-1.3-0.6-1.3-1.6c0-1.4,1.2-2.9,2.4-2.9c0.3,0,0.7,0.2,0.9,0.7c0.2-0.3,0.6-0.7,0.7-0.7
			c0.1,0,0.1,0.1,0.1,0.1L240.5,73.2z M240.4,71c0,0,0.6-2.2,0.6-2.3c0-0.1-0.1-0.9-0.8-0.9c-0.4,0-0.9,0.4-1.2,1.2
			c-0.2,0.4-0.5,1.5-0.5,2c0,0.2,0,0.9,0.6,0.9C239.7,71.9,240.2,71.2,240.4,71z"/>
	</g>
	<g>
		<path class="st2" d="M226.3,58.9c0,0.1,0,0.1,0,0.2c0,0.1,0,0.2,0.5,0.2c0.2,0,0.3,0,0.3,0.1c0,0.2-0.1,0.2-0.2,0.2
			c-0.3,0-0.7,0-1,0c-0.3,0-0.7,0-1,0c-0.1,0-0.1-0.1-0.1-0.1c0-0.2,0.1-0.2,0.2-0.2c0.6,0,0.6,0,0.7-0.3c0-0.1,0.4-1.4,0.4-1.8
			c-0.4,0.4-0.7,0.6-1.2,0.6c-0.7,0-1.3-0.6-1.3-1.6c0-1.4,1.2-2.9,2.4-2.9c0.3,0,0.7,0.2,0.9,0.7c0.2-0.3,0.6-0.7,0.7-0.7
			c0.1,0,0.1,0.1,0.1,0.1L226.3,58.9z M226.2,56.7c0,0,0.6-2.2,0.6-2.3c0-0.1-0.1-0.9-0.8-0.9c-0.4,0-0.9,0.4-1.2,1.2
			c-0.2,0.4-0.5,1.5-0.5,2c0,0.2,0,0.9,0.6,0.9C225.5,57.6,226.1,56.9,226.2,56.7z"/>
	</g>
	<line class="st3" x1="204.3" y1="92" x2="261" y2="35.3"/>
	<g>
		<path class="st2" d="M189.5,7.4l2.2-5.6c0.1-0.2,0.1-0.2,0.3-0.2h1.7v0.3h-0.2c-0.8,0-0.8,0.1-0.8,0.5v5.3c0,0.4,0,0.5,0.8,0.5
			h0.2v0.3c-0.4,0-1,0-1.4,0c-0.4,0-1.1,0-1.4,0V8.1h0.2c0.8,0,0.8-0.1,0.8-0.5V1.9h0l-2.5,6.3c0,0.1-0.1,0.2-0.2,0.2
			c-0.1,0-0.1-0.1-0.2-0.2L186.6,2h0v5.4c0,0.3,0,0.7,1,0.7v0.3c-0.3,0-0.8,0-1.2,0c-0.3,0-0.8,0-1.2,0V8.1c1,0,1-0.5,1-0.7v-5
			c0-0.4,0-0.5-0.8-0.5h-0.2V1.6h1.7c0.2,0,0.3,0,0.3,0.2L189.5,7.4z"/>
		<path class="st2" d="M196.1,8.5c-0.6,0-1.6-0.2-1.6-1.1c0-0.4,0.2-1,1-1.3c0.6-0.3,1.3-0.3,1.8-0.4V5.4c0-0.9-0.6-1.3-1.1-1.3
			c-0.3,0-0.8,0.1-1.1,0.5c0.5,0,0.5,0.3,0.5,0.5c0,0.3-0.2,0.5-0.5,0.5c-0.3,0-0.5-0.2-0.5-0.5c0-0.7,0.7-1.1,1.5-1.1
			c0.5,0,1,0.2,1.4,0.5c0.4,0.4,0.4,0.8,0.4,1.2v2c0,0,0,0.5,0.4,0.5c0.1,0,0.4-0.1,0.4-0.6V6.9h0.2v0.6c0,0.8-0.6,0.9-0.8,0.9
			c-0.5,0-0.7-0.4-0.8-0.8C197.2,8.1,196.7,8.5,196.1,8.5z M195.2,7.4c0,0.5,0.4,0.8,0.9,0.8c0.4,0,1.2-0.3,1.2-1.3V6
			C195.7,6.1,195.2,6.9,195.2,7.4z"/>
		<path class="st2" d="M200.6,7.7c0.1,0,0.5,0,0.7,0c0.6,0,1.2,0,1.7,0.3c0.5,0.3,0.6,0.8,0.6,1.1c0,0.8-1,1.3-2.2,1.3
			c-1.2,0-2.2-0.5-2.2-1.3c0-0.4,0.3-0.8,0.9-1c-0.3-0.2-0.4-0.6-0.4-0.9c0-0.3,0.2-0.7,0.3-0.8c-0.2-0.2-0.5-0.6-0.5-1
			c0-0.8,0.7-1.5,1.6-1.5c0.2,0,0.6,0,1.1,0.4c0.4-0.4,0.9-0.5,1.1-0.5c0.4,0,0.5,0.3,0.5,0.5c0,0.2-0.2,0.3-0.3,0.3
			c-0.2,0-0.3-0.1-0.3-0.3c0-0.1,0-0.2,0.2-0.3c0,0-0.1,0-0.1,0c-0.2,0-0.5,0-0.9,0.4c0.2,0.2,0.4,0.6,0.4,1c0,0.8-0.7,1.5-1.6,1.5
			c-0.2,0-0.6,0-1-0.3c-0.2,0.2-0.2,0.4-0.2,0.5C200.1,7.4,200.3,7.7,200.6,7.7z M203.2,9.2c0-0.9-1.1-0.9-2-0.9h-0.6
			c-0.4,0-0.8,0.4-0.8,0.9c0,0.5,0.7,1,1.7,1C202.5,10.2,203.2,9.7,203.2,9.2z M202,6.3c0.1-0.2,0.2-0.6,0.2-0.8
			c0-0.2,0-1.2-0.9-1.2c-0.4,0-0.6,0.3-0.7,0.4c-0.1,0.2-0.2,0.6-0.2,0.8c0,0.2,0,1.2,0.9,1.2C201.7,6.7,201.9,6.4,202,6.3z"/>
		<path class="st2" d="M204.4,4.4V4.1l1.4-0.1v1c0.3-0.6,0.7-1,1.5-1c0.6,0,0.9,0.2,1,0.4c0.3,0.4,0.3,0.7,0.3,1.5v1.9
			c0,0.3,0.3,0.3,0.8,0.3v0.3c-0.3,0-0.9,0-1.1,0c-0.3,0-0.8,0-1.1,0V8.1c0.7,0,0.8,0,0.8-0.4V5.3c0-0.6-0.1-1.1-0.7-1.1
			c-0.6,0-1.3,0.6-1.3,1.6v1.8c0,0.4,0.1,0.4,0.8,0.4v0.3c-0.3,0-0.9,0-1.1,0c-0.3,0-0.8,0-1.1,0V8.1c0.7,0,0.8,0,0.8-0.4V5
			C205.1,4.5,205,4.4,204.4,4.4z"/>
		<path class="st2" d="M211.3,7.6c0,0.4,0,0.4,0.7,0.4v0.3c-0.3,0-0.7,0-1,0c-0.2,0-0.8,0-1.1,0V8.1c0.7,0,0.8,0,0.8-0.4V4.9
			c0-0.5-0.1-0.5-0.7-0.5V4.1l1.4-0.1V7.6z M210.8,2.8c-0.3,0-0.5-0.3-0.5-0.5c0-0.3,0.2-0.5,0.5-0.5c0.3,0,0.5,0.2,0.5,0.5
			S211.1,2.8,210.8,2.8z"/>
		<path class="st2" d="M214.1,7.2c0,0.2,0,1.1,0.7,1.1c0.4,0,0.7-0.4,0.7-1.1V6.6h0.2v0.6c0,0.6-0.3,1.3-1,1.3
			c-0.4,0-1.3-0.1-1.3-1.3V4.4h-0.8V4.2c1,0,1.3-1.1,1.3-1.9h0.2v1.8h1.4v0.3h-1.4V7.2z"/>
		<path class="st2" d="M218.8,8.5c-1.5,0-1.5-0.9-1.5-1.7V5.3c0-0.9,0-0.9-0.8-0.9V4.1L218,4v3.3c0,0.5,0,1,0.9,1
			c0.7,0,1.2-0.7,1.2-1.5V5c0-0.5-0.1-0.6-0.8-0.6V4.1l1.5-0.1v3.5c0,0.5,0.1,0.6,0.8,0.6v0.3l-1.4,0.1V7.6
			C219.8,8.2,219.4,8.5,218.8,8.5z"/>
		<path class="st2" d="M224.2,8.5c-1.1,0-2.1-1-2.1-2.3c0-1.3,1-2.3,2.2-2.3c0.5,0,1,0.3,1.3,0.6V2.4c0-0.5-0.1-0.6-0.8-0.6V1.6
			l1.4-0.1v6c0,0.5,0.1,0.6,0.8,0.6v0.3l-1.5,0.1V7.8C225.3,8.2,224.8,8.5,224.2,8.5z M225.4,4.8c-0.3-0.4-0.7-0.6-1.1-0.6
			c-0.5,0-0.9,0.3-1.1,0.6c-0.3,0.4-0.3,1-0.3,1.4c0,0.4,0,1,0.3,1.4c0.2,0.4,0.6,0.6,1,0.6c0.4,0,0.9-0.2,1.2-0.7
			c0.1-0.2,0.1-0.2,0.1-0.4v-2C225.5,5,225.5,5,225.4,4.8z"/>
		<path class="st2" d="M228.7,7.6c0.2,0.4,0.6,0.7,1.1,0.7c0.1,0,1,0,1.3-1c0-0.1,0-0.1,0.1-0.1c0,0,0.1,0,0.1,0.1
			c0,0.2-0.4,1.3-1.7,1.3c-1.1,0-2.2-1-2.2-2.3c0-1.2,0.9-2.3,2.1-2.3c1.2,0,1.8,1,1.8,2c0,0.2,0,0.2-0.2,0.2h-2.8
			C228.4,6.4,228.4,7.1,228.7,7.6z M230.8,5.9c0-0.4-0.1-1.7-1.1-1.7c-0.3,0-1.2,0.2-1.2,1.7H230.8z"/>
	</g>
	<g>
		<path class="st2" d="M236.8,7.2c0,0.2,0,1.1,0.7,1.1c0.4,0,0.7-0.4,0.7-1.1V6.6h0.2v0.6c0,0.6-0.3,1.3-1,1.3
			c-0.4,0-1.3-0.1-1.3-1.3V4.4h-0.8V4.2c1,0,1.3-1.1,1.3-1.9h0.2v1.8h1.4v0.3h-1.4V7.2z"/>
		<path class="st2" d="M241.8,4c0.4,0,0.7,0.3,0.7,0.6S242.3,5,242.1,5c-0.2,0-0.4-0.1-0.4-0.4c0-0.3,0.2-0.4,0.2-0.4c0,0,0,0-0.1,0
			c-0.8,0-1.2,0.9-1.2,1.9v1.5c0,0.4,0,0.5,0.8,0.5h0.2v0.3c-0.4,0-0.9,0-1.3,0c-0.3,0-0.7,0-1.1,0V8.1c0.7,0,0.8,0,0.8-0.4V5
			c0-0.5-0.1-0.6-0.8-0.6V4.1l1.4-0.1v1.1C240.7,4.6,241.1,4,241.8,4z"/>
		<path class="st2" d="M245.4,8.5c-1.5,0-1.5-0.9-1.5-1.7V5.3c0-0.9,0-0.9-0.8-0.9V4.1l1.5-0.1v3.3c0,0.5,0,1,0.9,1
			c0.7,0,1.2-0.7,1.2-1.5V5c0-0.5-0.1-0.6-0.8-0.6V4.1l1.5-0.1v3.5c0,0.5,0.1,0.6,0.8,0.6v0.3l-1.4,0.1V7.6
			C246.4,8.2,246,8.5,245.4,8.5z"/>
		<path class="st2" d="M248.6,4.4V4.1l1.4-0.1v1c0.3-0.6,0.7-1,1.5-1c0.6,0,0.9,0.2,1,0.4c0.3,0.4,0.3,0.7,0.3,1.5v1.9
			c0,0.3,0.3,0.3,0.8,0.3v0.3c-0.3,0-0.9,0-1.1,0c-0.3,0-0.8,0-1.1,0V8.1c0.7,0,0.8,0,0.8-0.4V5.3c0-0.6-0.1-1.1-0.7-1.1
			c-0.6,0-1.3,0.6-1.3,1.6v1.8c0,0.4,0.1,0.4,0.8,0.4v0.3c-0.3,0-0.9,0-1.1,0c-0.3,0-0.8,0-1.1,0V8.1c0.7,0,0.8,0,0.8-0.4V5
			C249.4,4.5,249.3,4.4,248.6,4.4z"/>
		<path class="st2" d="M256.4,8.2c0.4,0,1-0.1,1.3-1c0-0.1,0-0.1,0.1-0.1c0,0,0.1,0,0.1,0.1s-0.3,1.3-1.7,1.3c-1.2,0-2.1-1-2.1-2.3
			c0-1.2,0.9-2.3,2.2-2.3c0.8,0,1.5,0.4,1.5,1.1c0,0.3-0.2,0.5-0.5,0.5c-0.3,0-0.5-0.2-0.5-0.5c0-0.1,0.1-0.4,0.5-0.5
			c-0.3-0.4-1-0.4-1.1-0.4c-0.5,0-1.3,0.4-1.3,2C255,7.8,255.9,8.2,256.4,8.2z"/>
		<path class="st2" d="M260.3,8.5c-0.6,0-1.6-0.2-1.6-1.1c0-0.4,0.2-1,1-1.3c0.6-0.3,1.3-0.3,1.8-0.4V5.4c0-0.9-0.6-1.3-1.1-1.3
			c-0.3,0-0.8,0.1-1.1,0.5c0.5,0,0.5,0.3,0.5,0.5c0,0.3-0.2,0.5-0.5,0.5c-0.3,0-0.5-0.2-0.5-0.5c0-0.7,0.7-1.1,1.5-1.1
			c0.5,0,1,0.2,1.4,0.5c0.4,0.4,0.4,0.8,0.4,1.2v2c0,0,0,0.5,0.4,0.5c0.1,0,0.4-0.1,0.4-0.6V6.9h0.2v0.6c0,0.8-0.6,0.9-0.8,0.9
			c-0.5,0-0.7-0.4-0.8-0.8C261.4,8.1,260.9,8.5,260.3,8.5z M259.4,7.4c0,0.5,0.4,0.8,0.9,0.8c0.4,0,1.2-0.3,1.2-1.3V6
			C259.9,6.1,259.4,6.9,259.4,7.4z"/>
		<path class="st2" d="M265,7.2c0,0.2,0,1.1,0.7,1.1c0.4,0,0.7-0.4,0.7-1.1V6.6h0.2v0.6c0,0.6-0.3,1.3-1,1.3c-0.4,0-1.3-0.1-1.3-1.3
			V4.4h-0.8V4.2c1,0,1.3-1.1,1.3-1.9h0.2v1.8h1.4v0.3H265V7.2z"/>
		<path class="st2" d="M268.9,7.6c0,0.4,0,0.4,0.7,0.4v0.3c-0.3,0-0.7,0-1,0c-0.2,0-0.8,0-1.1,0V8.1c0.7,0,0.8,0,0.8-0.4V4.9
			c0-0.5-0.1-0.5-0.7-0.5V4.1l1.4-0.1V7.6z M268.4,2.8c-0.3,0-0.5-0.3-0.5-0.5c0-0.3,0.2-0.5,0.5-0.5c0.3,0,0.5,0.2,0.5,0.5
			S268.6,2.8,268.4,2.8z"/>
		<path class="st2" d="M272.3,8.5c-1.2,0-2.2-1-2.2-2.2c0-1.2,1-2.3,2.2-2.3c1.2,0,2.2,1.1,2.2,2.3C274.5,7.5,273.5,8.5,272.3,8.5z
			 M273.5,7.5c0.2-0.4,0.2-1,0.2-1.3c0-0.4,0-1-0.3-1.4c-0.3-0.4-0.7-0.6-1.1-0.6c-0.4,0-0.9,0.2-1.1,0.7c-0.2,0.4-0.2,1-0.2,1.4
			c0,0.4,0,1,0.2,1.4c0.3,0.5,0.7,0.7,1.1,0.7C272.8,8.2,273.3,8,273.5,7.5z"/>
	</g>
	<g>
		<path class="st2" d="M275.3,4.4V4.1l1.4-0.1v1c0.3-0.6,0.7-1,1.5-1c0.6,0,0.9,0.2,1,0.4c0.3,0.4,0.3,0.7,0.3,1.5v1.9
			c0,0.3,0.3,0.3,0.8,0.3v0.3c-0.3,0-0.9,0-1.1,0c-0.3,0-0.8,0-1.1,0V8.1c0.7,0,0.8,0,0.8-0.4V5.3c0-0.6-0.1-1.1-0.7-1.1
			c-0.6,0-1.3,0.6-1.3,1.6v1.8c0,0.4,0.1,0.4,0.8,0.4v0.3c-0.3,0-0.9,0-1.1,0c-0.3,0-0.8,0-1.1,0V8.1c0.7,0,0.8,0,0.8-0.4V5
			C276.1,4.5,276,4.4,275.3,4.4z"/>
	</g>
	<polyline points="184.9,12 280.4,12 280.4,11.5 184.9,11.5 	"/>
	<g>
		<path class="st2" d="M195.7,106.8c-0.1,0.4-0.2,0.7-0.2,0.9c0,0.3,0.2,0.7,0.5,0.7c0.3,0,1-0.2,1.3-1.3c0-0.1,0-0.1,0.1-0.1
			c0,0,0.1,0,0.1,0.1c0,0.2-0.6,1.5-1.6,1.5c-0.6,0-1-0.4-1.1-0.8c0,0.1-0.4,0.8-1,0.8c-0.4,0-0.9-0.2-0.9-0.7
			c0-0.3,0.2-0.6,0.5-0.6c0.1,0,0.4,0.1,0.4,0.3c0,0.3-0.2,0.5-0.5,0.5c0.2,0.1,0.4,0.1,0.5,0.1c0.4,0,0.8-0.4,0.9-1
			c0.4-1.4,0.5-2.1,0.5-2.4c0-0.6-0.3-0.7-0.5-0.7c-0.3,0-1,0.2-1.3,1.3c0,0.1,0,0.1-0.1,0.1c0,0-0.1,0-0.1-0.1
			c0-0.3,0.6-1.5,1.6-1.5c0.3,0,0.8,0.1,1.1,0.8c0.1-0.2,0.5-0.8,1-0.8c0.3,0,0.9,0.1,0.9,0.7c0,0.4-0.3,0.6-0.5,0.6
			c-0.3,0-0.4-0.2-0.4-0.3c0-0.2,0.2-0.5,0.5-0.5c-0.2-0.1-0.4-0.1-0.5-0.1c-0.7,0-0.9,0.9-1,1.2L195.7,106.8z"/>
		<path class="st2" d="M202.4,108.8c-0.1,0.1-0.1,0.1-0.2,0.1c-0.1,0-0.2-0.1-0.2-0.2c0-0.1,0-0.1,0.2-0.2l5.2-2.5l-5.2-2.5
			c-0.1-0.1-0.2-0.1-0.2-0.2c0-0.1,0.1-0.2,0.2-0.2c0,0,0,0,0.2,0.1l5.5,2.6c0.1,0,0.2,0.1,0.2,0.2c0,0.1-0.1,0.2-0.2,0.2
			L202.4,108.8z"/>
	</g>
	<g>
		<path class="st2" d="M215.9,107.5c-0.4,0.9-1.2,1.2-1.7,1.2c-0.5,0-1.2-0.2-1.6-1c-0.4-0.8-0.4-1.7-0.4-2.4c0-0.8,0-1.6,0.4-2.3
			c0.4-0.9,1.1-1.2,1.7-1.2c0.4,0,1.2,0.2,1.7,1.1c0.3,0.7,0.4,1.5,0.4,2.3C216.3,106.1,216.2,106.8,215.9,107.5z M215.3,107.2
			c0.1-0.6,0.1-1.3,0.1-2.1c0-0.6,0-1.4-0.1-1.9c-0.2-1-0.8-1.2-1.2-1.2c-0.2,0-1,0.1-1.2,1.3c-0.1,0.5-0.1,1.2-0.1,1.8
			c0,0.6,0,1.5,0.1,2.1c0.2,1,0.8,1.2,1.2,1.2C214.6,108.5,215.2,108.2,215.3,107.2z"/>
		<path class="st2" d="M218.1,105.2c-0.3,0-0.5-0.2-0.5-0.5s0.2-0.5,0.5-0.5s0.5,0.2,0.5,0.5S218.4,105.2,218.1,105.2z M218.1,108.5
			c-0.3,0-0.5-0.2-0.5-0.5s0.2-0.5,0.5-0.5s0.5,0.2,0.5,0.5S218.4,108.5,218.1,108.5z"/>
	</g>
	<g>
		<path class="st2" d="M225.1,106.2c-0.2,0-0.3,0-0.3-0.2s0.2-0.2,0.3-0.2h5.4c0.2,0,0.3,0,0.3,0.2s-0.2,0.2-0.3,0.2H225.1z"/>
	</g>
	<g>
		<path class="st2" d="M234.8,109.7c0,0.1,0,0.1,0,0.2c0,0.1,0,0.2,0.5,0.2c0.2,0,0.3,0,0.3,0.1c0,0.2-0.1,0.2-0.2,0.2
			c-0.3,0-0.7,0-1,0c-0.3,0-0.7,0-1,0c-0.1,0-0.1-0.1-0.1-0.1c0-0.2,0.1-0.2,0.2-0.2c0.6,0,0.6,0,0.7-0.3c0-0.1,0.4-1.4,0.4-1.8
			c-0.4,0.4-0.7,0.6-1.2,0.6c-0.7,0-1.3-0.6-1.3-1.6c0-1.4,1.2-2.9,2.4-2.9c0.3,0,0.7,0.2,0.9,0.7c0.2-0.3,0.6-0.7,0.7-0.7
			c0.1,0,0.1,0.1,0.1,0.1L234.8,109.7z M234.7,107.4c0,0,0.6-2.2,0.6-2.3c0-0.1-0.1-0.9-0.8-0.9c-0.4,0-0.9,0.4-1.2,1.2
			c-0.2,0.4-0.5,1.5-0.5,2c0,0.2,0,0.9,0.6,0.9C234,108.4,234.6,107.7,234.7,107.4z"/>
	</g>
	<g>
		<path class="st2" d="M240.8,105l5.2,2.5c0.2,0.1,0.2,0.1,0.2,0.2c0,0.1-0.1,0.2-0.2,0.2c0,0,0,0-0.2-0.1l-5.5-2.6
			c-0.1-0.1-0.2-0.1-0.2-0.2c0-0.1,0-0.1,0.2-0.2l5.5-2.6c0,0,0.1-0.1,0.2-0.1c0.1,0,0.2,0.1,0.2,0.2c0,0.1-0.1,0.2-0.2,0.2
			L240.8,105z M240.4,109.8c-0.2,0-0.3,0-0.3-0.2s0.2-0.2,0.4-0.2h5.4c0.1,0,0.4,0,0.4,0.2s-0.2,0.2-0.3,0.2H240.4z"/>
	</g>
	<g>
		<path class="st2" d="M251,106.2c-0.1,0.6-0.2,0.9-0.2,1c0,0.3,0.1,1.2,0.9,1.2c0.1,0,1.2,0,2-1c0.1-0.1,0.1-0.1,0.1-0.1
			c0.1,0,0.1,0.1,0.1,0.1c0,0.1-0.8,1.2-2.3,1.2c-1,0-1.6-0.8-1.6-1.8c0-1.7,1.5-2.7,2.6-2.7c0.7,0,1.1,0.4,1.1,0.8
			c0,0.1,0,0.7-0.7,1c-0.5,0.2-1.2,0.2-1.5,0.2H251z M251.5,105.9c0.4,0,2,0,2-1c0-0.3-0.3-0.6-0.7-0.6c-0.3,0-1.3,0.1-1.7,1.7
			H251.5z"/>
		<path class="st2" d="M258.6,106l5.2,2.5c0.1,0.1,0.2,0.1,0.2,0.2s-0.1,0.2-0.2,0.2c0,0,0,0-0.2-0.1l-5.5-2.6
			c-0.1,0-0.2-0.1-0.2-0.2c0-0.1,0.1-0.2,0.2-0.2l5.5-2.6c0.1-0.1,0.1-0.1,0.2-0.1c0.1,0,0.2,0.1,0.2,0.2c0,0.1-0.1,0.2-0.2,0.2
			L258.6,106z"/>
	</g>
	<g>
		<path class="st2" d="M271.9,107.5c-0.4,0.9-1.2,1.2-1.7,1.2c-0.5,0-1.2-0.2-1.6-1c-0.4-0.8-0.4-1.7-0.4-2.4c0-0.8,0-1.6,0.4-2.3
			c0.4-0.9,1.1-1.2,1.7-1.2c0.4,0,1.2,0.2,1.7,1.1c0.3,0.7,0.4,1.5,0.4,2.3C272.3,106.1,272.2,106.8,271.9,107.5z M271.4,107.2
			c0.1-0.6,0.1-1.3,0.1-2.1c0-0.6,0-1.4-0.1-1.9c-0.2-1-0.8-1.2-1.2-1.2c-0.2,0-1,0.1-1.2,1.3c-0.1,0.5-0.1,1.2-0.1,1.8
			c0,0.6,0,1.5,0.1,2.1c0.2,1,0.8,1.2,1.2,1.2C270.6,108.5,271.2,108.2,271.4,107.2z"/>
	</g>
	<path class="st1" d="M232.7,63.6h7.1 M239.7,63.6v-7.1 M239.7,56.6h7.1 M246.8,56.6v-7.1 M246.8,49.5h7.1 M253.9,49.5v-7.1
		 M253.9,42.4h7.1 M261,42.4v-7.1 M225.6,63.6h7.1"/>
	<g>
		<path class="st2" d="M196.1,117.4c-0.1,0.4-0.2,0.7-0.2,0.9c0,0.3,0.2,0.7,0.5,0.7c0.3,0,1-0.2,1.3-1.3c0-0.1,0-0.1,0.1-0.1
			c0,0,0.1,0,0.1,0.1c0,0.2-0.6,1.5-1.6,1.5c-0.6,0-1-0.4-1.1-0.8c0,0.1-0.4,0.8-1,0.8c-0.4,0-0.9-0.2-0.9-0.7
			c0-0.3,0.2-0.6,0.5-0.6c0.1,0,0.4,0.1,0.4,0.3c0,0.3-0.2,0.5-0.5,0.5c0.2,0.1,0.4,0.1,0.5,0.1c0.4,0,0.8-0.4,0.9-1
			c0.4-1.4,0.5-2.1,0.5-2.4c0-0.6-0.3-0.7-0.5-0.7c-0.3,0-1,0.2-1.3,1.3c0,0.1,0,0.1-0.1,0.1c0,0-0.1,0-0.1-0.1
			c0-0.3,0.6-1.5,1.6-1.5c0.3,0,0.8,0.1,1.1,0.8c0.1-0.2,0.5-0.8,1-0.8c0.3,0,0.9,0.1,0.9,0.7c0,0.4-0.3,0.6-0.5,0.6
			c-0.3,0-0.4-0.2-0.4-0.3c0-0.2,0.2-0.5,0.5-0.5c-0.2-0.1-0.4-0.1-0.5-0.1c-0.7,0-0.9,0.9-1,1.2L196.1,117.4z"/>
		<path class="st2" d="M203.1,116.5l5.2,2.5c0.1,0.1,0.2,0.1,0.2,0.2s-0.1,0.2-0.2,0.2c0,0,0,0-0.2-0.1l-5.5-2.6
			c-0.1,0-0.2-0.1-0.2-0.2c0-0.1,0.1-0.2,0.2-0.2l5.5-2.6c0.1-0.1,0.1-0.1,0.2-0.1c0.1,0,0.2,0.1,0.2,0.2c0,0.1-0.1,0.2-0.2,0.2
			L203.1,116.5z"/>
	</g>
	<g>
		<path class="st2" d="M216.2,118.1c-0.4,0.9-1.2,1.2-1.7,1.2c-0.5,0-1.2-0.2-1.6-1c-0.4-0.8-0.4-1.7-0.4-2.4c0-0.8,0-1.6,0.4-2.3
			c0.4-0.9,1.1-1.2,1.7-1.2c0.4,0,1.2,0.2,1.7,1.1c0.3,0.7,0.4,1.5,0.4,2.3C216.6,116.6,216.6,117.4,216.2,118.1z M215.7,117.8
			c0.1-0.6,0.1-1.3,0.1-2.1c0-0.6,0-1.4-0.1-1.9c-0.2-1-0.8-1.2-1.2-1.2c-0.2,0-1,0.1-1.2,1.3c-0.1,0.5-0.1,1.2-0.1,1.8
			c0,0.6,0,1.5,0.1,2.1c0.2,1,0.8,1.2,1.2,1.2C215,119,215.5,118.7,215.7,117.8z"/>
		<path class="st2" d="M218.5,115.8c-0.3,0-0.5-0.2-0.5-0.5s0.2-0.5,0.5-0.5s0.5,0.2,0.5,0.5S218.7,115.8,218.5,115.8z M218.5,119
			c-0.3,0-0.5-0.2-0.5-0.5s0.2-0.5,0.5-0.5s0.5,0.2,0.5,0.5S218.7,119,218.5,119z"/>
	</g>
	<g>
		<path class="st2" d="M228.5,118.1c-0.4,0.9-1.2,1.2-1.7,1.2c-0.5,0-1.2-0.2-1.6-1c-0.4-0.8-0.4-1.7-0.4-2.4c0-0.8,0-1.6,0.4-2.3
			c0.4-0.9,1.1-1.2,1.7-1.2c0.4,0,1.2,0.2,1.7,1.1c0.3,0.7,0.4,1.5,0.4,2.3C228.9,116.6,228.8,117.4,228.5,118.1z M227.9,117.8
			c0.1-0.6,0.1-1.3,0.1-2.1c0-0.6,0-1.4-0.1-1.9c-0.2-1-0.8-1.2-1.2-1.2c-0.2,0-1,0.1-1.2,1.3c-0.1,0.5-0.1,1.2-0.1,1.8
			c0,0.6,0,1.5,0.1,2.1c0.2,1,0.8,1.2,1.2,1.2C227.2,119,227.8,118.7,227.9,117.8z"/>
	</g>
	<g>
		<path class="st2" d="M233.4,115.6l5.2,2.5c0.2,0.1,0.2,0.1,0.2,0.2c0,0.1-0.1,0.2-0.2,0.2c0,0,0,0-0.2-0.1l-5.5-2.6
			c-0.1-0.1-0.2-0.1-0.2-0.2c0-0.1,0-0.1,0.2-0.2l5.5-2.6c0,0,0.1-0.1,0.2-0.1c0.1,0,0.2,0.1,0.2,0.2c0,0.1-0.1,0.2-0.2,0.2
			L233.4,115.6z M233.1,120.4c-0.2,0-0.3,0-0.3-0.2s0.2-0.2,0.4-0.2h5.4c0.1,0,0.4,0,0.4,0.2s-0.2,0.2-0.3,0.2H233.1z"/>
	</g>
	<g>
		<path class="st2" d="M243.9,116.7c-0.1,0.6-0.2,0.9-0.2,1c0,0.3,0.1,1.2,0.9,1.2c0.1,0,1.2,0,2-1c0.1-0.1,0.1-0.1,0.1-0.1
			c0.1,0,0.1,0.1,0.1,0.1c0,0.1-0.8,1.2-2.3,1.2c-1,0-1.6-0.8-1.6-1.8c0-1.7,1.5-2.7,2.6-2.7c0.7,0,1.1,0.4,1.1,0.8
			c0,0.1,0,0.7-0.7,1c-0.5,0.2-1.2,0.2-1.5,0.2H243.9z M244.3,116.5c0.4,0,2,0,2-1c0-0.3-0.3-0.6-0.7-0.6c-0.3,0-1.3,0.1-1.7,1.7
			H244.3z"/>
		<path class="st2" d="M251.4,116.5l5.2,2.5c0.1,0.1,0.2,0.1,0.2,0.2s-0.1,0.2-0.2,0.2c0,0,0,0-0.2-0.1l-5.5-2.6
			c-0.1,0-0.2-0.1-0.2-0.2c0-0.1,0.1-0.2,0.2-0.2l5.5-2.6c0.1-0.1,0.1-0.1,0.2-0.1c0.1,0,0.2,0.1,0.2,0.2c0,0.1-0.1,0.2-0.2,0.2
			L251.4,116.5z"/>
	</g>
	<g>
		<path class="st2" d="M263.5,120.3c0,0.1,0,0.1,0,0.2c0,0.1,0,0.2,0.5,0.2c0.2,0,0.3,0,0.3,0.1c0,0.2-0.1,0.2-0.2,0.2
			c-0.3,0-0.7,0-1,0c-0.3,0-0.7,0-1,0c-0.1,0-0.1-0.1-0.1-0.1c0-0.2,0.1-0.2,0.2-0.2c0.6,0,0.6,0,0.7-0.3c0-0.1,0.4-1.4,0.4-1.8
			c-0.4,0.4-0.7,0.6-1.2,0.6c-0.7,0-1.3-0.6-1.3-1.6c0-1.4,1.2-2.9,2.4-2.9c0.3,0,0.7,0.2,0.9,0.7c0.2-0.3,0.6-0.7,0.7-0.7
			c0.1,0,0.1,0.1,0.1,0.1L263.5,120.3z M263.4,118c0,0,0.6-2.2,0.6-2.3c0-0.1-0.1-0.9-0.8-0.9c-0.4,0-0.9,0.4-1.2,1.2
			c-0.2,0.4-0.5,1.5-0.5,2c0,0.2,0,0.9,0.6,0.9C262.7,118.9,263.3,118.3,263.4,118z"/>
	</g>
	<path class="st1" d="M225.6,63.6v7.1 M225.6,70.7h-7.1 M218.5,70.7v7.1 M218.5,77.8h-7.1 M211.4,77.8v7.1 M211.4,84.9h-7.1
		 M204.3,84.9V92"/>
	<polyline points="164.3,65.9 168.9,63.6 164.3,61.4 165.5,63.6 	"/>
	<line class="st0" x1="101.6" y1="63.6" x2="165.5" y2="63.6"/>
	<polyline points="135.7,32.7 133.4,28.2 131.2,32.7 133.4,31.6 	"/>
	<path class="st0" d="M133.4,95.5V31.6 M129.9,92h7.1 M129.9,84.9h7.1 M129.9,77.8h7.1 M129.9,70.7h7.1 M129.9,56.6h7.1 M129.9,49.5
		h7.1 M129.9,42.4h7.1 M129.9,35.3h7.1"/>
	<g>
		<path class="st2" d="M176.1,64.1c-0.1,0.4-0.2,0.7-0.2,0.9c0,0.3,0.2,0.7,0.5,0.7c0.3,0,1-0.2,1.3-1.3c0-0.1,0-0.1,0.1-0.1
			c0,0,0.1,0,0.1,0.1c0,0.2-0.6,1.5-1.6,1.5c-0.6,0-1-0.4-1.1-0.8c0,0.1-0.4,0.8-1,0.8c-0.4,0-0.9-0.2-0.9-0.7
			c0-0.3,0.2-0.6,0.5-0.6c0.1,0,0.4,0.1,0.4,0.3c0,0.3-0.2,0.5-0.5,0.5c0.2,0.1,0.4,0.1,0.5,0.1c0.4,0,0.8-0.4,0.9-1
			c0.4-1.4,0.5-2.1,0.5-2.4c0-0.6-0.3-0.7-0.5-0.7c-0.3,0-1,0.2-1.3,1.3c0,0.1,0,0.1-0.1,0.1c0,0-0.1,0-0.1-0.1
			c0-0.2,0.6-1.5,1.6-1.5c0.3,0,0.8,0.1,1.1,0.8c0.1-0.2,0.5-0.8,1-0.8c0.3,0,0.9,0.1,0.9,0.7c0,0.4-0.3,0.6-0.5,0.6
			c-0.3,0-0.4-0.2-0.4-0.3c0-0.2,0.2-0.5,0.5-0.5c-0.2-0.1-0.4-0.1-0.5-0.1c-0.7,0-0.9,0.9-1,1.2L176.1,64.1z"/>
	</g>
	<g>
		<path class="st2" d="M135.1,19l-0.2,0.2l-1.1-1l-1.2,1l-0.2-0.2l1.3-1.4L135.1,19z"/>
	</g>
	<g>
		<path class="st2" d="M133.7,22.9c-0.1,0.4-0.2,0.7-0.2,0.9c0,0.3,0.2,0.7,0.5,0.7c0.3,0,1-0.2,1.3-1.3c0-0.1,0-0.1,0.1-0.1
			c0,0,0.1,0,0.1,0.1c0,0.2-0.6,1.5-1.6,1.5c-0.6,0-1-0.4-1.1-0.8c0,0.1-0.4,0.8-1,0.8c-0.4,0-0.9-0.2-0.9-0.7
			c0-0.3,0.2-0.6,0.5-0.6c0.1,0,0.4,0.1,0.4,0.3c0,0.3-0.2,0.5-0.5,0.5c0.2,0.1,0.4,0.1,0.5,0.1c0.4,0,0.8-0.4,0.9-1
			c0.4-1.4,0.5-2.1,0.5-2.4c0-0.6-0.3-0.7-0.5-0.7c-0.3,0-1,0.2-1.3,1.3c0,0.1-0.1,0.1-0.1,0.1c0,0-0.1,0-0.1-0.1
			c0-0.2,0.6-1.5,1.6-1.5c0.3,0,0.8,0.1,1.1,0.8c0.1-0.2,0.5-0.8,1-0.8c0.3,0,0.9,0.1,0.9,0.7c0,0.4-0.3,0.6-0.5,0.6
			c-0.3,0-0.4-0.2-0.4-0.3c0-0.2,0.2-0.5,0.5-0.5c-0.2-0.1-0.4-0.1-0.5-0.1c-0.7,0-0.9,0.9-1,1.2L133.7,22.9z"/>
	</g>
	<path class="st0" d="M126.4,60.1v7.1 M119.3,60.1v7.1 M112.2,60.1v7.1 M105.1,60.1v7.1 M140.5,60.1v7.1 M147.6,60.1v7.1
		 M154.7,60.1v7.1 M161.8,60.1v7.1"/>
	<g>
		<path class="st2" d="M141.2,73.2c0,0.1,0,0.1,0,0.2c0,0.1,0,0.2,0.5,0.2c0.2,0,0.3,0,0.3,0.1c0,0.2-0.1,0.2-0.2,0.2
			c-0.3,0-0.7,0-1,0c-0.3,0-0.7,0-1,0c-0.1,0-0.1-0.1-0.1-0.1c0-0.2,0.1-0.2,0.2-0.2c0.6,0,0.6,0,0.7-0.3c0-0.1,0.4-1.4,0.4-1.8
			c-0.4,0.4-0.7,0.6-1.2,0.6c-0.7,0-1.3-0.6-1.3-1.6c0-1.4,1.2-2.9,2.4-2.9c0.3,0,0.7,0.2,0.9,0.7c0.2-0.3,0.6-0.7,0.7-0.7
			c0.1,0,0.1,0.1,0.1,0.1L141.2,73.2z M141.1,71c0,0,0.6-2.2,0.6-2.3c0-0.1-0.1-0.9-0.8-0.9c-0.4,0-0.9,0.4-1.2,1.2
			c-0.2,0.4-0.5,1.5-0.5,2c0,0.2,0,0.9,0.6,0.9C140.4,71.9,141,71.2,141.1,71z"/>
	</g>
	<g>
		<path class="st2" d="M127.1,58.9c0,0.1,0,0.1,0,0.2c0,0.1,0,0.2,0.5,0.2c0.2,0,0.3,0,0.3,0.1c0,0.2-0.1,0.2-0.2,0.2
			c-0.3,0-0.7,0-1,0c-0.3,0-0.7,0-1,0c-0.1,0-0.1-0.1-0.1-0.1c0-0.2,0.1-0.2,0.2-0.2c0.6,0,0.6,0,0.7-0.3c0-0.1,0.4-1.4,0.4-1.8
			c-0.4,0.4-0.7,0.6-1.2,0.6c-0.7,0-1.3-0.6-1.3-1.6c0-1.4,1.2-2.9,2.4-2.9c0.3,0,0.7,0.2,0.9,0.7c0.2-0.3,0.6-0.7,0.7-0.7
			c0.1,0,0.1,0.1,0.1,0.1L127.1,58.9z M127,56.7c0,0,0.6-2.2,0.6-2.3c0-0.1-0.1-0.9-0.8-0.9c-0.4,0-0.9,0.4-1.2,1.2
			c-0.2,0.4-0.5,1.5-0.5,2c0,0.2,0,0.9,0.6,0.9C126.3,57.6,126.8,56.9,127,56.7z"/>
	</g>
	<line class="st3" x1="105.1" y1="92" x2="161.8" y2="35.3"/>
	<g>
		<path class="st2" d="M100.9,9.5c0,0.1-0.1,0.2-0.2,0.2c-0.1,0-0.2,0-0.2-0.2l-2.3-6.1C98,3,97.8,3,97.1,3V2.7c0.4,0,0.8,0,1.3,0
			c0.4,0,1.1,0,1.4,0V3C99.6,3,99,3,99,3.3c0,0,0,0,0.1,0.2l1.9,5l1.8-4.8c0-0.1,0-0.1,0-0.2c0-0.2-0.2-0.5-0.7-0.5V2.7
			c0.3,0,0.8,0,1.1,0c0.3,0,0.7,0,1,0V3c-0.7,0-0.9,0.3-1.1,0.7L100.9,9.5z"/>
		<path class="st2" d="M105.6,9.6c-0.6,0-1.6-0.2-1.6-1.1c0-0.4,0.2-1,1-1.3c0.6-0.3,1.3-0.3,1.8-0.4V6.5c0-0.9-0.6-1.3-1.1-1.3
			c-0.3,0-0.8,0.1-1.1,0.5c0.5,0,0.5,0.3,0.5,0.5c0,0.3-0.2,0.5-0.5,0.5c-0.3,0-0.5-0.2-0.5-0.5c0-0.7,0.7-1.1,1.5-1.1
			c0.5,0,1,0.2,1.4,0.5c0.4,0.4,0.4,0.8,0.4,1.2v2c0,0,0,0.5,0.4,0.5c0.1,0,0.4-0.1,0.4-0.6V8h0.2v0.6c0,0.8-0.6,0.9-0.8,0.9
			c-0.5,0-0.7-0.4-0.8-0.8C106.7,9.2,106.2,9.6,105.6,9.6z M104.7,8.5c0,0.5,0.4,0.8,0.9,0.8c0.4,0,1.2-0.3,1.2-1.3v-1
			C105.2,7.1,104.7,8,104.7,8.5z"/>
	</g>
	<g>
		<path class="st2" d="M110.4,8.7c0,0.4,0.1,0.4,0.8,0.4v0.3c-0.4,0-0.9,0-1.1,0c-0.2,0-0.8,0-1.1,0V9.2c0.7,0,0.8,0,0.8-0.4V3.5
			c0-0.5-0.1-0.6-0.8-0.6V2.7l1.4-0.1V8.7z"/>
		<path class="st2" d="M114,9.6c-1.5,0-1.5-0.9-1.5-1.7V6.4c0-0.9,0-0.9-0.8-0.9V5.2l1.5-0.1v3.3c0,0.5,0,1,0.9,1
			c0.7,0,1.2-0.7,1.2-1.5V6c0-0.5-0.1-0.6-0.8-0.6V5.2l1.5-0.1v3.5c0,0.5,0.1,0.6,0.8,0.6v0.3l-1.4,0.1V8.7
			C115,9.3,114.5,9.6,114,9.6z"/>
	</g>
	<g>
		<path class="st2" d="M118.3,8.7c0.2,0.4,0.6,0.7,1.1,0.7c0.1,0,1,0,1.3-1c0-0.1,0-0.1,0.1-0.1c0,0,0.1,0,0.1,0.1
			c0,0.2-0.4,1.3-1.7,1.3c-1.1,0-2.2-1-2.2-2.3c0-1.2,0.9-2.3,2.1-2.3c1.2,0,1.8,1,1.8,2c0,0.2,0,0.2-0.2,0.2H118
			C118,7.5,118,8.2,118.3,8.7z M120.4,7c0-0.4-0.1-1.7-1.1-1.7c-0.3,0-1.2,0.2-1.2,1.7H120.4z"/>
		<path class="st2" d="M126.3,8.3c0,0.2,0,1.1,0.7,1.1c0.4,0,0.7-0.4,0.7-1.1V7.7h0.2v0.6c0,0.6-0.3,1.3-1,1.3
			c-0.4,0-1.3-0.1-1.3-1.3V5.5h-0.8V5.3c1,0,1.3-1.1,1.3-1.9h0.2v1.8h1.4v0.3h-1.4V8.3z"/>
	</g>
	<g>
		<path class="st2" d="M131.3,5.1c0.4,0,0.7,0.3,0.7,0.6s-0.2,0.4-0.4,0.4c-0.2,0-0.4-0.1-0.4-0.4c0-0.3,0.2-0.4,0.2-0.4
			c0,0,0,0-0.1,0c-0.8,0-1.2,0.9-1.2,1.9v1.5c0,0.4,0,0.5,0.8,0.5h0.2v0.3c-0.4,0-0.9,0-1.3,0c-0.3,0-0.7,0-1.1,0V9.2
			c0.7,0,0.8,0,0.8-0.4V6c0-0.5-0.1-0.6-0.8-0.6V5.2l1.4-0.1v1.1C130.2,5.7,130.6,5.1,131.3,5.1z"/>
		<path class="st2" d="M134.9,9.6c-1.5,0-1.5-0.9-1.5-1.7V6.4c0-0.9,0-0.9-0.8-0.9V5.2l1.5-0.1v3.3c0,0.5,0,1,0.9,1
			c0.7,0,1.2-0.7,1.2-1.5V6c0-0.5-0.1-0.6-0.8-0.6V5.2l1.5-0.1v3.5c0,0.5,0.1,0.6,0.8,0.6v0.3l-1.4,0.1V8.7
			C135.9,9.3,135.5,9.6,134.9,9.6z"/>
		<path class="st2" d="M138.1,5.5V5.2l1.4-0.1v1c0.3-0.6,0.7-1,1.5-1c0.6,0,0.9,0.2,1,0.4c0.3,0.4,0.3,0.7,0.3,1.5v1.9
			c0,0.3,0.3,0.3,0.8,0.3v0.3c-0.3,0-0.9,0-1.1,0c-0.3,0-0.8,0-1.1,0V9.2c0.7,0,0.8,0,0.8-0.4V6.4c0-0.6-0.1-1.1-0.7-1.1
			c-0.6,0-1.3,0.6-1.3,1.6v1.8c0,0.4,0.1,0.4,0.8,0.4v0.3c-0.3,0-0.9,0-1.1,0c-0.3,0-0.8,0-1.1,0V9.2c0.7,0,0.8,0,0.8-0.4V6
			C138.9,5.6,138.8,5.5,138.1,5.5z"/>
		<path class="st2" d="M145.9,9.3c0.4,0,1-0.1,1.3-1c0-0.1,0-0.1,0.1-0.1c0,0,0.1,0,0.1,0.1s-0.3,1.3-1.7,1.3c-1.2,0-2.1-1-2.1-2.3
			c0-1.2,0.9-2.3,2.2-2.3c0.8,0,1.5,0.4,1.5,1.1c0,0.3-0.2,0.5-0.5,0.5c-0.3,0-0.5-0.2-0.5-0.5c0-0.1,0.1-0.4,0.5-0.5
			c-0.3-0.4-1-0.4-1.1-0.4c-0.5,0-1.3,0.4-1.3,2C144.5,8.9,145.4,9.3,145.9,9.3z"/>
		<path class="st2" d="M149.8,9.6c-0.6,0-1.6-0.2-1.6-1.1c0-0.4,0.2-1,1-1.3c0.6-0.3,1.3-0.3,1.8-0.4V6.5c0-0.9-0.6-1.3-1.1-1.3
			c-0.3,0-0.8,0.1-1.1,0.5c0.5,0,0.5,0.3,0.5,0.5c0,0.3-0.2,0.5-0.5,0.5c-0.3,0-0.5-0.2-0.5-0.5c0-0.7,0.7-1.1,1.5-1.1
			c0.5,0,1,0.2,1.4,0.5c0.4,0.4,0.4,0.8,0.4,1.2v2c0,0,0,0.5,0.4,0.5c0.1,0,0.4-0.1,0.4-0.6V8h0.2v0.6c0,0.8-0.6,0.9-0.8,0.9
			c-0.5,0-0.7-0.4-0.8-0.8C150.9,9.2,150.4,9.6,149.8,9.6z M149,8.5c0,0.5,0.4,0.8,0.9,0.8c0.4,0,1.2-0.3,1.2-1.3v-1
			C149.4,7.1,149,8,149,8.5z"/>
		<path class="st2" d="M154.5,8.3c0,0.2,0,1.1,0.7,1.1c0.4,0,0.7-0.4,0.7-1.1V7.7h0.2v0.6c0,0.6-0.3,1.3-1,1.3
			c-0.4,0-1.3-0.1-1.3-1.3V5.5h-0.8V5.3c1,0,1.3-1.1,1.3-1.9h0.2v1.8h1.4v0.3h-1.4V8.3z"/>
		<path class="st2" d="M158.4,8.7c0,0.4,0,0.4,0.7,0.4v0.3c-0.3,0-0.7,0-1,0c-0.2,0-0.8,0-1.1,0V9.2c0.7,0,0.8,0,0.8-0.4V6
			c0-0.5-0.1-0.5-0.7-0.5V5.2l1.4-0.1V8.7z M157.9,3.9c-0.3,0-0.5-0.3-0.5-0.5c0-0.3,0.2-0.5,0.5-0.5c0.3,0,0.5,0.2,0.5,0.5
			S158.2,3.9,157.9,3.9z"/>
		<path class="st2" d="M161.9,9.6c-1.2,0-2.2-1-2.2-2.2c0-1.2,1-2.3,2.2-2.3c1.2,0,2.2,1.1,2.2,2.3C164.1,8.6,163.1,9.6,161.9,9.6z
			 M163,8.6c0.2-0.4,0.2-1,0.2-1.3c0-0.4,0-1-0.3-1.4c-0.3-0.4-0.7-0.6-1.1-0.6c-0.4,0-0.9,0.2-1.1,0.7c-0.2,0.4-0.2,1-0.2,1.4
			c0,0.4,0,1,0.2,1.4c0.3,0.5,0.7,0.7,1.1,0.7C162.4,9.3,162.8,9,163,8.6z"/>
	</g>
	<g>
		<path class="st2" d="M164.8,5.5V5.2l1.4-0.1v1c0.3-0.6,0.7-1,1.5-1c0.6,0,0.9,0.2,1,0.4c0.3,0.4,0.3,0.7,0.3,1.5v1.9
			c0,0.3,0.3,0.3,0.8,0.3v0.3c-0.3,0-0.9,0-1.1,0c-0.3,0-0.8,0-1.1,0V9.2c0.7,0,0.8,0,0.8-0.4V6.4c0-0.6-0.1-1.1-0.7-1.1
			c-0.6,0-1.3,0.6-1.3,1.6v1.8c0,0.4,0.1,0.4,0.8,0.4v0.3c-0.3,0-0.9,0-1.1,0c-0.3,0-0.8,0-1.1,0V9.2c0.7,0,0.8,0,0.8-0.4V6
			C165.6,5.6,165.5,5.5,164.8,5.5z"/>
	</g>
	<polyline points="97,11 170.2,11 170.2,10.5 97,10.5 	"/>
	<g>
		<path class="st2" d="M110.3,106.2c-0.2,0-0.3,0-0.3-0.2s0.2-0.2,0.3-0.2h5.4c0.2,0,0.3,0,0.3,0.2s-0.2,0.2-0.3,0.2H110.3z"/>
	</g>
	<g>
		<path class="st2" d="M120,109.7c0,0.1,0,0.1,0,0.2c0,0.1,0,0.2,0.5,0.2c0.2,0,0.3,0,0.3,0.1c0,0.2-0.1,0.2-0.2,0.2
			c-0.3,0-0.7,0-1,0c-0.3,0-0.7,0-1,0c-0.1,0-0.1-0.1-0.1-0.1c0-0.2,0.1-0.2,0.2-0.2c0.6,0,0.6,0,0.7-0.3c0-0.1,0.4-1.4,0.4-1.8
			c-0.4,0.4-0.7,0.6-1.2,0.6c-0.7,0-1.3-0.6-1.3-1.6c0-1.4,1.2-2.9,2.4-2.9c0.3,0,0.7,0.2,0.9,0.7c0.2-0.3,0.6-0.7,0.7-0.7
			c0.1,0,0.1,0.1,0.1,0.1L120,109.7z M119.9,107.4c0,0,0.6-2.2,0.6-2.3c0-0.1-0.1-0.9-0.8-0.9c-0.4,0-0.9,0.4-1.2,1.2
			c-0.2,0.4-0.5,1.5-0.5,2c0,0.2,0,0.9,0.6,0.9C119.2,108.4,119.7,107.7,119.9,107.4z"/>
	</g>
	<g>
		<path class="st2" d="M125.9,105l5.2,2.5c0.2,0.1,0.2,0.1,0.2,0.2c0,0.1-0.1,0.2-0.2,0.2c0,0,0,0-0.2-0.1l-5.5-2.6
			c-0.1-0.1-0.2-0.1-0.2-0.2c0-0.1,0-0.1,0.2-0.2l5.5-2.6c0,0,0.1-0.1,0.2-0.1c0.1,0,0.2,0.1,0.2,0.2c0,0.1-0.1,0.2-0.2,0.2
			L125.9,105z M125.6,109.8c-0.2,0-0.3,0-0.3-0.2s0.2-0.2,0.4-0.2h5.4c0.1,0,0.4,0,0.4,0.2s-0.2,0.2-0.3,0.2H125.6z"/>
	</g>
	<g>
		<path class="st2" d="M136.3,106.2c-0.1,0.6-0.2,0.9-0.2,1c0,0.3,0.1,1.2,0.9,1.2c0.1,0,1.2,0,2-1c0.1-0.1,0.1-0.1,0.1-0.1
			c0.1,0,0.1,0.1,0.1,0.1c0,0.1-0.8,1.2-2.3,1.2c-1,0-1.6-0.8-1.6-1.8c0-1.7,1.5-2.7,2.6-2.7c0.7,0,1.1,0.4,1.1,0.8
			c0,0.1,0,0.7-0.7,1c-0.5,0.2-1.2,0.2-1.5,0.2H136.3z M136.8,105.9c0.4,0,2,0,2-1c0-0.3-0.3-0.6-0.7-0.6c-0.3,0-1.3,0.1-1.7,1.7
			H136.8z"/>
		<path class="st2" d="M143.8,106l5.2,2.5c0.1,0.1,0.2,0.1,0.2,0.2s-0.1,0.2-0.2,0.2c0,0,0,0-0.2-0.1l-5.5-2.6
			c-0.1,0-0.2-0.1-0.2-0.2c0-0.1,0.1-0.2,0.2-0.2l5.5-2.6c0.1-0.1,0.1-0.1,0.2-0.1c0.1,0,0.2,0.1,0.2,0.2c0,0.1-0.1,0.2-0.2,0.2
			L143.8,106z"/>
	</g>
	<g>
		<path class="st2" d="M157.1,107.5c-0.4,0.9-1.2,1.2-1.7,1.2c-0.5,0-1.2-0.2-1.6-1c-0.4-0.8-0.4-1.7-0.4-2.4c0-0.8,0-1.6,0.4-2.3
			c0.4-0.9,1.1-1.2,1.7-1.2c0.4,0,1.2,0.2,1.7,1.1c0.3,0.7,0.4,1.5,0.4,2.3C157.5,106.1,157.4,106.8,157.1,107.5z M156.5,107.2
			c0.1-0.6,0.1-1.3,0.1-2.1c0-0.6,0-1.4-0.1-1.9c-0.2-1-0.8-1.2-1.2-1.2c-0.2,0-1,0.1-1.2,1.3c-0.1,0.5-0.1,1.2-0.1,1.8
			c0,0.6,0,1.5,0.1,2.1c0.2,1,0.8,1.2,1.2,1.2C155.8,108.5,156.4,108.2,156.5,107.2z"/>
	</g>
	<path class="st1" d="M133.4,63.6h7.1 M140.5,63.6v-7.1 M140.5,56.6h7.1 M147.6,56.6v-7.1 M147.6,49.5h7.1 M154.7,49.5v-7.1
		 M154.7,42.4h7.1 M161.8,42.4v-7.1 M133.4,63.6v7.1 M133.4,70.7h-7.1 M126.4,70.7v7.1 M126.4,77.8h-7.1 M119.3,77.8v7.1
		 M119.3,84.9h-7.1 M112.2,84.9V92 M112.2,92h-7.1"/>
</g>
</svg>
