<?xml version="1.0" encoding="utf-8"?>
<!-- Generator: Adobe Illustrator 22.1.0, SVG Export Plug-In . SVG Version: 6.00 Build 0)  -->
<svg version="1.1" id="Layer_1" xmlns="http://www.w3.org/2000/svg" xmlns:xlink="http://www.w3.org/1999/xlink" x="0px" y="0px"
	 viewBox="0 0 158.8 71.7" style="enable-background:new 0 0 158.8 71.7;" xml:space="preserve">
<style type="text/css">
	.st0{fill:#1D1D1B;}
	.st1{fill:none;stroke:#000000;stroke-width:0.8504;stroke-miterlimit:10;}
	.st2{fill:#FF0000;}
</style>
<g>
	<g>
		<path class="st0" d="M3,36.7c-0.1,0.4-0.2,0.7-0.2,0.9c0,0.3,0.2,0.7,0.5,0.7c0.3,0,1-0.2,1.3-1.3c0-0.1,0-0.1,0.1-0.1
			c0,0,0.1,0,0.1,0.1c0,0.2-0.6,1.5-1.6,1.5c-0.6,0-1-0.4-1.1-0.8c0,0.1-0.4,0.8-1,0.8c-0.4,0-0.9-0.2-0.9-0.7
			c0-0.3,0.2-0.6,0.5-0.6c0.1,0,0.4,0.1,0.4,0.3c0,0.3-0.2,0.5-0.5,0.5c0.2,0.1,0.4,0.1,0.5,0.1c0.4,0,0.8-0.4,0.9-1
			c0.4-1.4,0.5-2.1,0.5-2.4c0-0.6-0.3-0.7-0.5-0.7c-0.3,0-1,0.2-1.3,1.3c0,0.1-0.1,0.1-0.1,0.1c0,0-0.1,0-0.1-0.1
			c0-0.2,0.6-1.5,1.6-1.5c0.3,0,0.8,0.1,1.1,0.8c0.1-0.2,0.5-0.8,1-0.8c0.3,0,0.9,0.1,0.9,0.7c0,0.4-0.3,0.6-0.5,0.6
			c-0.3,0-0.4-0.2-0.4-0.3c0-0.2,0.2-0.5,0.5-0.5c-0.2-0.1-0.4-0.1-0.5-0.1c-0.7,0-0.9,0.9-1,1.2L3,36.7z"/>
	</g>
	<g>
		<path class="st0" d="M6.8,40.9v-10h1.4v0.4h-1v9.2h1v0.4H6.8z"/>
	</g>
	<g>
		<path class="st0" d="M9.9,35.5C10,35,10,34.9,10,34.7c0-0.3-0.1-0.5-0.3-0.5c-0.4,0-0.6,0.5-0.7,1.2c-0.1,0.2-0.1,0.2-0.2,0.2
			c0,0-0.1,0-0.1-0.1c0,0,0.1-0.6,0.3-1C9.1,34.4,9.3,34,9.7,34c0.5,0,0.9,0.3,0.9,0.9c0.2-0.2,0.7-0.9,1.6-0.9
			c0.7,0,1.1,0.4,1.1,1.1c0,0.6-0.4,1.7-0.6,2.2c-0.1,0.2-0.2,0.5-0.2,0.7c0,0.2,0.1,0.3,0.2,0.3c0.5,0,0.8-0.6,1-1.2
			c0-0.2,0-0.2,0.1-0.2c0,0,0.1,0,0.1,0.1c0,0.1-0.4,1.5-1.3,1.5c-0.5,0-0.8-0.3-0.8-0.8c0-0.1,0-0.2,0.1-0.5
			c0.2-0.4,0.6-1.7,0.6-2.3c0-0.3-0.1-0.7-0.5-0.7c-0.9,0-1.5,0.9-1.6,1.2c0,0-0.1,0.3-0.1,0.5c0,0.2-0.1,0.4-0.2,0.7L10,37.5
			c-0.1,0.2-0.2,0.7-0.2,0.7c-0.1,0.2-0.2,0.3-0.4,0.3c-0.1,0-0.3-0.1-0.3-0.3c0,0,0.1-0.3,0.1-0.4L9.9,35.5z"/>
	</g>
	<g>
		<path class="st0" d="M16,40.9h-1.4v-0.4h1v-9.2h-1v-0.4H16V40.9z"/>
	</g>
	<g>
		<path class="st0" d="M145.9,38.4c-0.3,1.1-1.3,2-2.3,2c-0.6,0-1.1-0.4-1.1-0.9c0-0.5,0.3-0.6,0.6-0.6c0.1,0,0.4,0,0.4,0.3
			c0,0.2-0.1,0.3-0.2,0.4c-0.1,0.1-0.3,0.1-0.4,0.1c0.2,0.4,0.6,0.4,0.8,0.4c0.5,0,0.8-0.3,1.1-0.6c0.4-0.5,0.5-1,0.6-1.5
			c-0.3,0.3-0.6,0.4-1,0.4c-0.6,0-1.2-0.3-1.2-1.2c0-0.5,0.2-1,0.6-2.1c0.1-0.2,0.2-0.4,0.2-0.7c0-0.3-0.2-0.3-0.2-0.3
			c-0.3,0-0.7,0.3-1,1.2c0,0.2-0.1,0.2-0.2,0.2c0,0-0.1,0-0.1-0.1c0-0.1,0.4-1.5,1.3-1.5c0.5,0,0.8,0.4,0.8,0.8c0,0.2,0,0.3-0.2,0.7
			c-0.3,0.9-0.5,1.5-0.5,2c0,0.4,0.1,0.8,0.6,0.8c0.7,0,1.1-0.7,1.1-0.8l0.4-1.8c0.1-0.3,0.1-0.5,0.2-0.8c0-0.2,0.1-0.5,0.1-0.5
			c0.1-0.1,0.2-0.2,0.3-0.2c0.1,0,0.3,0.1,0.3,0.3c0,0.1,0,0.1,0,0.2L145.9,38.4z"/>
	</g>
	<g>
		<path class="st0" d="M148.4,40.9v-10h1.4v0.4h-1v9.2h1v0.4H148.4z"/>
	</g>
	<g>
		<path class="st0" d="M151.5,35.5c0.1-0.5,0.2-0.6,0.2-0.8c0-0.3-0.1-0.5-0.3-0.5c-0.4,0-0.6,0.5-0.7,1.2c-0.1,0.2-0.1,0.2-0.2,0.2
			c0,0-0.1,0-0.1-0.1c0,0,0.1-0.6,0.3-1c0.1-0.2,0.3-0.6,0.7-0.6c0.5,0,0.9,0.3,0.9,0.9c0.2-0.2,0.7-0.9,1.6-0.9
			c0.7,0,1.1,0.4,1.1,1.1c0,0.6-0.4,1.7-0.6,2.2c-0.1,0.2-0.2,0.5-0.2,0.7c0,0.2,0.1,0.3,0.2,0.3c0.5,0,0.8-0.6,1-1.2
			c0.1-0.2,0.1-0.2,0.2-0.2c0,0,0.1,0,0.1,0.1c0,0.1-0.4,1.5-1.3,1.5c-0.5,0-0.8-0.3-0.8-0.8c0-0.1,0-0.2,0.1-0.5
			c0.2-0.4,0.6-1.7,0.6-2.3c0-0.3-0.1-0.7-0.5-0.7c-0.9,0-1.5,0.9-1.6,1.2c0,0-0.1,0.3-0.1,0.5c0,0.2-0.1,0.4-0.2,0.7l-0.2,0.9
			c-0.1,0.2-0.2,0.7-0.2,0.7c-0.1,0.2-0.2,0.3-0.4,0.3c-0.1,0-0.3-0.1-0.3-0.3c0,0,0.1-0.3,0.1-0.4L151.5,35.5z"/>
	</g>
	<g>
		<path class="st0" d="M157.6,40.9h-1.4v-0.4h1v-9.2h-1v-0.4h1.4V40.9z"/>
	</g>
	<g>
		<path class="st0" d="M74.7,16.5c0,0.1,0,0.1,0,0.2c0,0.2,0.3,0.2,0.6,0.2c0.2,0,0.3,0,0.3,0.1c0,0.2-0.1,0.2-0.2,0.2
			c-0.2,0-0.4,0-0.6,0c-0.2,0-0.4,0-0.6,0c-0.3,0-1,0-1.3,0c0,0-0.1,0-0.1-0.1c0-0.2,0.1-0.2,0.2-0.2c0.6,0,0.8,0,0.9-0.3
			c0-0.1,0.3-1.1,0.7-2.8h-3l-0.7,2.7c0,0.1,0,0.1,0,0.2c0,0.2,0.3,0.2,0.6,0.2c0.2,0,0.3,0,0.3,0.1c0,0.2-0.1,0.2-0.2,0.2
			c-0.2,0-0.4,0-0.6,0c-0.2,0-0.4,0-0.6,0c-0.3,0-1,0-1.3,0c0,0-0.1,0-0.1-0.1c0-0.2,0.1-0.2,0.3-0.2c0.8,0,0.8-0.1,0.9-0.5l1.3-5.4
			c0-0.1,0-0.1,0-0.2c0-0.1-0.1-0.1-0.3-0.2c-0.2,0-0.4,0-0.4,0c-0.2,0-0.3,0-0.3-0.1c0-0.2,0.1-0.2,0.2-0.2c0.3,0,1,0,1.3,0
			c0.3,0,1,0,1.3,0c0,0,0.1,0,0.1,0.1c0,0.2-0.1,0.2-0.3,0.2c-0.7,0-0.7,0.1-0.8,0.5l-0.6,2.3h3l0.6-2.4c0-0.1,0-0.1,0-0.2
			c0-0.1-0.1-0.1-0.3-0.2c-0.2,0-0.4,0-0.4,0c-0.2,0-0.3,0-0.3-0.1c0-0.2,0.1-0.2,0.2-0.2c0.3,0,1,0,1.3,0c0.3,0,1,0,1.3,0
			c0,0,0.1,0,0.1,0.1c0,0.2-0.1,0.2-0.3,0.2c-0.7,0-0.7,0.1-0.8,0.5L74.7,16.5z"/>
	</g>
	<g>
		<path class="st0" d="M80.8,19.6c-0.1,0-1-0.6-1.6-1.9c-0.5-1.1-0.7-2.3-0.7-3.1c0-0.8,0.1-1.9,0.6-3c0.6-1.3,1.5-1.9,1.6-1.9
			c0.1,0,0.1,0,0.1,0.1c0,0,0,0-0.1,0.2c-1.2,1.2-1.6,3-1.6,4.7c0,1.5,0.3,3.4,1.6,4.7C80.9,19.5,80.9,19.5,80.8,19.6
			C80.9,19.6,80.8,19.6,80.8,19.6z"/>
	</g>
	<g>
		<path class="st0" d="M83,16.3c0.2,0,0.4,0,0.7,0.2c0.2,0.1,0.4,0.1,0.6,0.1c0.3,0,1-0.2,1.2-0.8c0-0.1,0-0.1,0.1-0.1
			c0.1,0,0.1,0,0.1,0.1c0,0.3-0.6,1.5-1.6,1.5c-0.3,0-0.5-0.2-0.6-0.4c-0.2-0.3-0.3-0.4-0.6-0.4c-0.3,0-0.6,0.3-0.8,0.6
			c-0.1,0.1-0.1,0.1-0.2,0.1c0,0-0.1,0-0.1-0.1c0-0.1,0.3-0.6,1-1.3l0.9-0.8c0.2-0.2,1-0.9,1.4-1.3c-0.3,0-0.4,0-0.8-0.1
			c-0.2-0.1-0.4-0.1-0.6-0.1c-0.1,0-0.7,0-0.8,0.5c0,0.1,0,0.1-0.1,0.1s-0.1-0.1-0.1-0.1c0-0.2,0.5-1.1,1.2-1.1
			c0.3,0,0.5,0.2,0.7,0.4c0.1,0.2,0.3,0.3,0.5,0.3s0.4-0.2,0.7-0.6c0-0.1,0.1-0.1,0.1-0.1c0,0,0.1,0,0.1,0.1c0,0-0.2,0.5-1.2,1.4
			c-0.4,0.4-1,0.9-1,0.9c-0.4,0.3-0.6,0.6-1.2,1.1C82.8,16.3,83,16.3,83,16.3z"/>
	</g>
	<g>
		<path class="st0" d="M88.8,17.7c-0.6,1.3-1.5,1.9-1.6,1.9c-0.1,0-0.1,0-0.1-0.1c0,0,0-0.1,0.1-0.2c1.2-1.3,1.6-3,1.6-4.7
			c0-2.1-0.6-3.7-1.5-4.7c-0.2-0.2-0.2-0.2-0.2-0.2c0-0.1,0-0.1,0.1-0.1c0.1,0,1,0.6,1.6,1.9c0.5,1.1,0.7,2.3,0.7,3.1
			C89.5,15.5,89.3,16.6,88.8,17.7z"/>
	</g>
	<polygon class="st1" points="58.2,14.6 58.2,28.8 100.8,28.8 100.8,0.4 58.2,0.4 	"/>
	<polyline points="53.7,16.9 58.2,14.6 53.7,12.3 54.8,14.6 	"/>
	<line class="st1" x1="44.1" y1="14.6" x2="54.8" y2="14.6"/>
	<polyline points="53.7,59.4 58.2,57.1 53.7,54.9 54.8,57.1 	"/>
	<path class="st1" d="M44.1,57.1h10.8 M44.1,14.6v42.5 M22.8,35.9h21.3 M100.8,14.6h14.2"/>
	<polyline points="112.7,27.8 114.9,32.3 117.2,27.8 114.9,28.9 	"/>
	<path class="st1" d="M114.9,14.6v14.3 M114.9,57.1h-14.2"/>
	<polyline points="131.7,38.1 136.2,35.9 131.7,33.6 132.8,35.9 	"/>
	<line class="st1" x1="118.5" y1="35.9" x2="132.8" y2="35.9"/>
	<polyline points="117.2,43.9 114.9,39.4 112.7,43.9 114.9,42.8 	"/>
	<line class="st1" x1="114.9" y1="57.1" x2="114.9" y2="42.8"/>
	<g>
		<path class="st0" d="M115,39.2c-1.8,0-3.3-1.5-3.3-3.3c0-1.8,1.5-3.3,3.3-3.3c1.8,0,3.3,1.5,3.3,3.3
			C118.3,37.7,116.8,39.2,115,39.2z M114.8,35.8v-2.9c-1.6,0.1-2.8,1.3-2.9,2.9H114.8z M114.8,36h-2.9c0.1,1.7,1.4,2.9,2.9,3V36z
			 M115.1,35.8h3c-0.1-1.7-1.4-2.9-3-2.9V35.8z M115.1,36v3c1.5-0.1,2.9-1.2,3-3H115.1z"/>
	</g>
	<g>
		<path class="st2" d="M72.2,59.4c0,0.1,0,0.1,0,0.1c0,0.1-0.1,0.1-0.2,0.1h-6.9c-0.2,0-0.2,0-0.2-0.1c0,0,0,0,0-0.1l3.4-6.8
			c0.1-0.1,0.1-0.2,0.3-0.2s0.2,0,0.3,0.2L72.2,59.4z M65.5,58.9h5.4l-2.7-5.4L65.5,58.9z"/>
	</g>
	<g>
		<path class="st2" d="M78.9,59c0,0.1,0,0.1,0,0.2c0,0.2,0.3,0.2,0.6,0.2c0.2,0,0.3,0,0.3,0.1c0,0.2-0.1,0.2-0.2,0.2
			c-0.2,0-0.4,0-0.6,0c-0.2,0-0.4,0-0.6,0c-0.3,0-1,0-1.3,0c0,0-0.1,0-0.1-0.1c0-0.2,0.1-0.2,0.2-0.2c0.6,0,0.8,0,0.9-0.3
			c0-0.1,0.3-1.1,0.7-2.8h-3L75,59c0,0.1,0,0.1,0,0.2c0,0.2,0.3,0.2,0.6,0.2c0.2,0,0.3,0,0.3,0.1c0,0.2-0.1,0.2-0.2,0.2
			c-0.2,0-0.4,0-0.6,0c-0.2,0-0.4,0-0.6,0c-0.3,0-1,0-1.3,0c0,0-0.1,0-0.1-0.1c0-0.2,0.1-0.2,0.3-0.2c0.8,0,0.8-0.1,0.9-0.5l1.3-5.4
			c0-0.1,0-0.1,0-0.2c0-0.1-0.1-0.1-0.3-0.2c-0.2,0-0.4,0-0.4,0c-0.2,0-0.3,0-0.3-0.1c0-0.2,0.1-0.2,0.2-0.2c0.3,0,1,0,1.3,0
			c0.3,0,1,0,1.3,0c0,0,0.1,0,0.1,0.1c0,0.2-0.1,0.2-0.3,0.2c-0.7,0-0.7,0.1-0.8,0.5l-0.6,2.3h3l0.6-2.4c0-0.1,0-0.1,0-0.2
			c0-0.1-0.1-0.1-0.3-0.2c-0.2,0-0.4,0-0.4,0c-0.2,0-0.3,0-0.3-0.1c0-0.2,0.1-0.2,0.2-0.2c0.3,0,1,0,1.3,0c0.3,0,1,0,1.3,0
			c0,0,0.1,0,0.1,0.1c0,0.2-0.1,0.2-0.3,0.2c-0.7,0-0.7,0.1-0.8,0.5L78.9,59z"/>
	</g>
	<g>
		<path class="st2" d="M85,62.1c-0.1,0-1-0.6-1.6-1.9c-0.5-1.1-0.7-2.3-0.7-3.1c0-0.8,0.1-1.9,0.6-3c0.6-1.3,1.5-1.9,1.6-1.9
			c0.1,0,0.1,0,0.1,0.1c0,0,0,0-0.1,0.2c-1.2,1.2-1.6,3-1.6,4.7c0,1.5,0.3,3.4,1.6,4.7C85.1,62,85.1,62,85,62.1
			C85.1,62.1,85,62.1,85,62.1z"/>
	</g>
	<g>
		<path class="st2" d="M87.2,58.8c0.2,0,0.4,0,0.7,0.2c0.2,0.1,0.4,0.1,0.6,0.1c0.3,0,1-0.2,1.2-0.8c0-0.1,0-0.1,0.1-0.1
			c0.1,0,0.1,0,0.1,0.1c0,0.3-0.6,1.5-1.6,1.5c-0.3,0-0.5-0.2-0.6-0.4c-0.2-0.3-0.3-0.4-0.6-0.4c-0.3,0-0.6,0.3-0.8,0.6
			c-0.1,0.1-0.1,0.1-0.2,0.1c0,0-0.1,0-0.1-0.1c0-0.1,0.3-0.6,1-1.3l0.9-0.8c0.2-0.2,1-0.9,1.4-1.3c-0.3,0-0.4,0-0.8-0.1
			c-0.2-0.1-0.4-0.1-0.6-0.1c-0.1,0-0.7,0-0.8,0.5c0,0.1,0,0.1-0.1,0.1s-0.1-0.1-0.1-0.1c0-0.2,0.5-1.1,1.2-1.1
			c0.3,0,0.5,0.2,0.7,0.4c0.1,0.2,0.3,0.3,0.5,0.3s0.4-0.2,0.7-0.6c0-0.1,0.1-0.1,0.1-0.1c0,0,0.1,0,0.1,0.1c0,0-0.2,0.5-1.2,1.4
			c-0.4,0.4-1,0.9-1,0.9c-0.4,0.3-0.6,0.6-1.2,1.1C87,58.8,87.2,58.8,87.2,58.8z"/>
	</g>
	<g>
		<path class="st2" d="M93,60.2c-0.6,1.3-1.5,1.9-1.6,1.9c-0.1,0-0.1,0-0.1-0.1c0,0,0,0,0.1-0.2c1.2-1.3,1.6-3,1.6-4.7
			c0-2.1-0.6-3.7-1.5-4.7c-0.2-0.2-0.2-0.2-0.2-0.2c0-0.1,0-0.1,0.1-0.1c0.1,0,1,0.6,1.6,1.9c0.5,1.1,0.7,2.3,0.7,3.1
			C93.7,58,93.5,59.1,93,60.2z"/>
	</g>
	<polygon class="st1" points="58.2,57.1 58.2,71.3 100.8,71.3 100.8,42.9 58.2,42.9 	"/>
</g>
</svg>
