<?xml version="1.0" encoding="utf-8"?>
<!-- Generator: Adobe Illustrator 22.1.0, SVG Export Plug-In . SVG Version: 6.00 Build 0)  -->
<svg version="1.1" id="Layer_1" xmlns="http://www.w3.org/2000/svg" xmlns:xlink="http://www.w3.org/1999/xlink" x="0px" y="0px"
	 viewBox="0 0 179.8 77.2" style="enable-background:new 0 0 179.8 77.2;" xml:space="preserve">
<style type="text/css">
	.st0{fill:none;stroke:#000000;stroke-width:0.8504;stroke-miterlimit:10;}
	.st1{fill:#1D1D1B;}
	.st2{fill:#0000FF;}
	.st3{fill:none;stroke:#000000;stroke-width:0.2835;stroke-miterlimit:10;}
	.st4{fill:none;stroke:#0000FF;stroke-width:1.4173;stroke-miterlimit:10;}
	.st5{fill:none;stroke:#000000;stroke-width:0.8504;stroke-linecap:round;stroke-miterlimit:10;stroke-dasharray:0,3.5575;}
	.st6{fill:none;stroke:#000000;stroke-width:0.8504;stroke-linecap:round;stroke-miterlimit:10;stroke-dasharray:0,3.5787;}
	.st7{fill:none;stroke:#000000;stroke-width:0.8504;stroke-linecap:round;stroke-miterlimit:10;stroke-dasharray:0,3.6361;}
	.st8{fill:none;stroke:#000000;stroke-width:0.8504;stroke-linecap:round;stroke-miterlimit:10;stroke-dasharray:0,3.7881;}
</style>
<g>
	<polyline points="43,36.5 47.6,34.3 43,32 44.2,34.3 	"/>
	<line class="st0" x1="19.2" y1="34.3" x2="44.2" y2="34.3"/>
	<g>
		<path class="st1" d="M3,35.1c-0.1,0.4-0.2,0.7-0.2,0.9c0,0.3,0.2,0.7,0.5,0.7c0.3,0,1-0.2,1.3-1.3c0-0.1,0-0.1,0.1-0.1
			c0,0,0.1,0,0.1,0.1c0,0.2-0.6,1.5-1.6,1.5c-0.6,0-1-0.4-1.1-0.8c0,0.1-0.4,0.8-1,0.8c-0.4,0-0.9-0.2-0.9-0.7
			c0-0.3,0.2-0.6,0.5-0.6c0.1,0,0.4,0.1,0.4,0.3c0,0.3-0.2,0.5-0.5,0.5c0.2,0.1,0.4,0.1,0.5,0.1c0.4,0,0.8-0.4,0.9-1
			c0.4-1.4,0.5-2.1,0.5-2.4c0-0.6-0.3-0.7-0.5-0.7c-0.3,0-1,0.2-1.3,1.3c0,0.1-0.1,0.1-0.1,0.1c0,0-0.1,0-0.1-0.1
			c0-0.2,0.6-1.5,1.6-1.5c0.3,0,0.8,0.1,1.1,0.8c0.1-0.2,0.5-0.8,1-0.8c0.3,0,0.9,0.1,0.9,0.7c0,0.4-0.3,0.6-0.5,0.6
			c-0.3,0-0.4-0.2-0.4-0.3c0-0.2,0.2-0.5,0.5-0.5c-0.2-0.1-0.4-0.1-0.5-0.1c-0.7,0-0.9,0.9-1,1.2L3,35.1z"/>
	</g>
	<g>
		<path class="st1" d="M6.8,39.2v-10h1.4v0.4h-1v9.2h1v0.4H6.8z"/>
	</g>
	<g>
		<path class="st1" d="M9.9,33.8C10,33.3,10,33.2,10,33c0-0.3-0.1-0.5-0.3-0.5c-0.4,0-0.6,0.5-0.7,1.2c-0.1,0.2-0.1,0.2-0.2,0.2
			c0,0-0.1,0-0.1-0.1c0,0,0.1-0.6,0.3-1c0.1-0.2,0.3-0.6,0.7-0.6c0.5,0,0.9,0.3,0.9,0.9c0.2-0.2,0.7-0.9,1.6-0.9
			c0.7,0,1.1,0.4,1.1,1.1c0,0.6-0.4,1.7-0.6,2.2c-0.1,0.2-0.2,0.5-0.2,0.7c0,0.2,0.1,0.3,0.2,0.3c0.5,0,0.8-0.6,1-1.2
			c0-0.1,0-0.2,0.1-0.2c0,0,0.1,0,0.1,0.1c0,0.1-0.4,1.5-1.3,1.5c-0.5,0-0.8-0.3-0.8-0.8c0-0.1,0-0.2,0.1-0.5
			c0.2-0.4,0.6-1.7,0.6-2.3c0-0.3-0.1-0.7-0.5-0.7c-0.9,0-1.5,0.9-1.6,1.2c0,0-0.1,0.3-0.1,0.5c0,0.2-0.1,0.4-0.2,0.7L10,35.8
			C10,36,9.9,36.5,9.8,36.5c-0.1,0.2-0.2,0.3-0.4,0.3c-0.1,0-0.3-0.1-0.3-0.3c0-0.1,0.1-0.3,0.1-0.4L9.9,33.8z"/>
	</g>
	<g>
		<path class="st1" d="M16,39.2h-1.4v-0.4h1v-9.2h-1v-0.4H16V39.2z"/>
	</g>
	<polyline points="131.6,36.5 136.1,34.3 131.6,32 132.7,34.3 	"/>
	<line class="st0" x1="111.3" y1="34.3" x2="132.7" y2="34.3"/>
	<g>
		<path class="st1" d="M117.8,20.5l-0.2,0.2l-1.1-1l-1.2,1l-0.2-0.2l1.3-1.4L117.8,20.5z"/>
	</g>
	<g>
		<path class="st1" d="M116.4,24.4c-0.1,0.4-0.2,0.7-0.2,0.9c0,0.3,0.2,0.7,0.5,0.7c0.3,0,1-0.2,1.3-1.3c0-0.1,0-0.1,0.1-0.1
			c0,0,0.1,0,0.1,0.1c0,0.2-0.6,1.5-1.6,1.5c-0.6,0-1-0.4-1.1-0.8c0,0.1-0.4,0.8-1,0.8c-0.4,0-0.9-0.2-0.9-0.7
			c0-0.3,0.2-0.6,0.5-0.6c0.1,0,0.4,0.1,0.4,0.3c0,0.3-0.2,0.5-0.5,0.5c0.2,0.1,0.4,0.1,0.5,0.1c0.4,0,0.8-0.4,0.9-1
			c0.4-1.4,0.5-2.1,0.5-2.4c0-0.6-0.3-0.7-0.5-0.7c-0.3,0-1,0.2-1.3,1.3c0,0.1,0,0.1-0.1,0.1c0,0-0.1,0-0.1-0.1
			c0-0.2,0.6-1.5,1.6-1.5c0.3,0,0.8,0.1,1.1,0.8c0.1-0.2,0.5-0.8,1-0.8c0.3,0,0.9,0.1,0.9,0.7c0,0.4-0.3,0.6-0.5,0.6
			c-0.3,0-0.4-0.2-0.4-0.3c0-0.2,0.2-0.5,0.5-0.5c-0.2-0.1-0.4-0.1-0.5-0.1c-0.7,0-0.9,0.9-1,1.2L116.4,24.4z"/>
	</g>
	<g>
		<path class="st1" d="M120.2,28.5v-10h1.4V19h-1v9.2h1v0.4H120.2z"/>
	</g>
	<g>
		<path class="st1" d="M123.3,23.1c0.1-0.5,0.2-0.6,0.2-0.8c0-0.3-0.1-0.5-0.3-0.5c-0.4,0-0.6,0.5-0.7,1.2c-0.1,0.2-0.1,0.2-0.2,0.2
			c0,0-0.1,0-0.1-0.1c0,0,0.1-0.6,0.3-1c0.1-0.2,0.3-0.6,0.7-0.6c0.5,0,0.9,0.3,0.9,0.9c0.2-0.2,0.7-0.9,1.6-0.9
			c0.7,0,1.1,0.4,1.1,1.1c0,0.6-0.4,1.7-0.6,2.2c-0.1,0.2-0.2,0.5-0.2,0.7c0,0.2,0.1,0.3,0.2,0.3c0.5,0,0.8-0.6,1-1.2
			c0.1-0.1,0.1-0.2,0.2-0.2c0,0,0.1,0,0.1,0.1c0,0.1-0.4,1.5-1.3,1.5c-0.5,0-0.8-0.3-0.8-0.8c0-0.1,0-0.2,0.1-0.5
			c0.2-0.4,0.6-1.7,0.6-2.3c0-0.3-0.1-0.7-0.5-0.7c-0.9,0-1.5,0.9-1.6,1.2c0,0-0.1,0.3-0.1,0.5c0,0.2-0.1,0.4-0.2,0.7l-0.2,0.9
			c-0.1,0.2-0.2,0.7-0.2,0.7c-0.1,0.2-0.2,0.3-0.4,0.3c-0.1,0-0.3-0.1-0.3-0.3c0-0.1,0.1-0.3,0.1-0.4L123.3,23.1z"/>
	</g>
	<g>
		<path class="st1" d="M129.4,28.5H128v-0.4h1V19h-1v-0.4h1.4V28.5z"/>
	</g>
	<g>
		<path class="st2" d="M64,6.2l0.1,0.8c0.1,0.9,0.2,1.4,0.7,1.4c0.2,0,0.6-0.2,0.7-0.9c0-0.1,0-0.2,0.1-0.2c0.1,0,0.1,0.1,0.1,0.2
			c0,0.3-0.2,1.1-0.9,1.1c-0.3,0-0.8-0.1-1.3-0.4c-0.4-0.4-0.4-0.8-0.4-1.4c0-0.7,0-1-0.4-1.3c-0.3-0.3-0.8-0.3-0.9-0.3h-1.1v2.5
			c0,0.4,0,0.5,0.8,0.5h0.2v0.3c-0.4,0-1.1,0-1.5,0c-0.4,0-1.1,0-1.5,0V8.1H59c0.8,0,0.8-0.1,0.8-0.5V2.4c0-0.4,0-0.5-0.8-0.5h-0.2
			V1.6h3.1c1.5,0,2.6,0.8,2.6,1.8c0,0.8-0.8,1.4-1.7,1.6C63.3,5.2,63.8,5.5,64,6.2z M61.8,4.9c1.5,0,1.7-0.8,1.7-1.5
			c0-1.4-1.1-1.5-2-1.5c-0.2,0-0.5,0-0.6,0c-0.2,0-0.2,0.1-0.2,0.4v2.6H61.8z"/>
		<path class="st2" d="M68.2,8.5c-1.2,0-2.2-1-2.2-2.2c0-1.2,1-2.3,2.2-2.3c1.2,0,2.2,1.1,2.2,2.3C70.4,7.5,69.4,8.5,68.2,8.5z
			 M69.4,7.5c0.2-0.4,0.2-1,0.2-1.3c0-0.4,0-1-0.3-1.4c-0.3-0.4-0.7-0.6-1.1-0.6c-0.4,0-0.9,0.2-1.1,0.7c-0.2,0.4-0.2,1-0.2,1.4
			c0,0.4,0,1,0.2,1.4c0.3,0.5,0.7,0.7,1.1,0.7C68.7,8.2,69.2,8,69.4,7.5z"/>
		<path class="st2" d="M73.3,8.5c-1.5,0-1.5-0.9-1.5-1.7V5.3c0-0.9,0-0.9-0.8-0.9V4.1L72.5,4v3.3c0,0.5,0,1,0.9,1
			c0.7,0,1.2-0.7,1.2-1.5V5c0-0.5-0.1-0.6-0.8-0.6V4.1L75.3,4v3.5c0,0.5,0.1,0.6,0.8,0.6v0.3l-1.4,0.1V7.6
			C74.3,8.2,73.9,8.5,73.3,8.5z"/>
		<path class="st2" d="M76.5,4.4V4.1L77.9,4v1c0.3-0.6,0.7-1,1.5-1c0.6,0,0.9,0.2,1,0.4c0.3,0.4,0.3,0.7,0.3,1.5v1.9
			c0,0.3,0.3,0.3,0.8,0.3v0.3c-0.3,0-0.9,0-1.1,0c-0.3,0-0.8,0-1.1,0V8.1c0.7,0,0.8,0,0.8-0.4V5.3c0-0.6-0.1-1.1-0.7-1.1
			c-0.6,0-1.3,0.6-1.3,1.6v1.8c0,0.4,0.1,0.4,0.8,0.4v0.3c-0.3,0-0.9,0-1.1,0c-0.3,0-0.8,0-1.1,0V8.1c0.7,0,0.8,0,0.8-0.4V5
			C77.3,4.5,77.2,4.4,76.5,4.4z"/>
		<path class="st2" d="M84.2,8.5c-1.1,0-2.1-1-2.1-2.3c0-1.3,1-2.3,2.2-2.3c0.5,0,1,0.3,1.3,0.6V2.4c0-0.5-0.1-0.6-0.8-0.6V1.6
			l1.4-0.1v6c0,0.5,0.1,0.6,0.8,0.6v0.3l-1.5,0.1V7.8C85.3,8.2,84.8,8.5,84.2,8.5z M85.4,4.8c-0.3-0.4-0.7-0.6-1.1-0.6
			c-0.5,0-0.9,0.3-1.1,0.6c-0.3,0.4-0.3,1-0.3,1.4c0,0.4,0,1,0.3,1.4c0.2,0.4,0.6,0.6,1,0.6c0.4,0,0.9-0.2,1.2-0.7
			c0.1-0.2,0.1-0.2,0.1-0.4v-2C85.5,5,85.5,5,85.4,4.8z"/>
		<path class="st2" d="M89,7.6c0,0.4,0,0.4,0.7,0.4v0.3c-0.3,0-0.7,0-1,0c-0.2,0-0.8,0-1.1,0V8.1c0.7,0,0.8,0,0.8-0.4V4.9
			c0-0.5-0.1-0.5-0.7-0.5V4.1L89,4V7.6z M88.5,2.8c-0.3,0-0.5-0.3-0.5-0.5c0-0.3,0.2-0.5,0.5-0.5c0.3,0,0.5,0.2,0.5,0.5
			S88.8,2.8,88.5,2.8z"/>
		<path class="st2" d="M90.3,4.4V4.1L91.7,4v1c0.3-0.6,0.7-1,1.5-1c0.6,0,0.9,0.2,1,0.4c0.3,0.4,0.3,0.7,0.3,1.5v1.9
			c0,0.3,0.3,0.3,0.8,0.3v0.3c-0.3,0-0.9,0-1.1,0c-0.3,0-0.8,0-1.1,0V8.1c0.7,0,0.8,0,0.8-0.4V5.3c0-0.6-0.1-1.1-0.7-1.1
			c-0.6,0-1.3,0.6-1.3,1.6v1.8c0,0.4,0.1,0.4,0.8,0.4v0.3c-0.3,0-0.9,0-1.1,0c-0.3,0-0.8,0-1.1,0V8.1c0.7,0,0.8,0,0.8-0.4V5
			C91.1,4.5,91,4.4,90.3,4.4z"/>
		<path class="st2" d="M97.1,7.7c0.1,0,0.5,0,0.7,0c0.6,0,1.2,0,1.7,0.3c0.5,0.3,0.6,0.8,0.6,1.1c0,0.8-1,1.3-2.2,1.3
			c-1.2,0-2.2-0.5-2.2-1.3c0-0.4,0.3-0.8,0.9-1c-0.3-0.2-0.4-0.6-0.4-0.9c0-0.3,0.2-0.7,0.3-0.8c-0.2-0.2-0.5-0.6-0.5-1
			c0-0.8,0.7-1.5,1.6-1.5c0.2,0,0.6,0,1.1,0.4c0.4-0.4,0.9-0.5,1.1-0.5c0.4,0,0.5,0.3,0.5,0.5c0,0.2-0.2,0.3-0.3,0.3
			c-0.2,0-0.3-0.1-0.3-0.3c0-0.1,0-0.2,0.2-0.3c0,0-0.1,0-0.1,0c-0.2,0-0.5,0-0.9,0.4c0.2,0.2,0.4,0.6,0.4,1c0,0.8-0.7,1.5-1.6,1.5
			c-0.2,0-0.6,0-1-0.3c-0.2,0.2-0.2,0.4-0.2,0.5C96.5,7.4,96.8,7.7,97.1,7.7z M99.7,9.2c0-0.9-1.1-0.9-2-0.9h-0.6
			c-0.4,0-0.8,0.4-0.8,0.9c0,0.5,0.7,1,1.7,1C99,10.2,99.7,9.7,99.7,9.2z M98.4,6.3c0.1-0.2,0.2-0.6,0.2-0.8c0-0.2,0-1.2-0.9-1.2
			c-0.4,0-0.6,0.3-0.7,0.4c-0.1,0.2-0.2,0.6-0.2,0.8c0,0.2,0,1.2,0.9,1.2C98.1,6.7,98.3,6.4,98.4,6.3z"/>
	</g>
	<polygon class="st0" points="47.6,37.8 47.6,13 111.3,13 111.3,62.6 47.6,62.6 	"/>
	<polyline points="96.2,43.6 100.7,41.3 96.2,39.1 97.3,41.3 	"/>
	<line class="st0" x1="58.2" y1="41.3" x2="97.3" y2="41.3"/>
	<polyline points="81.7,31.7 79.5,27.2 77.2,31.7 79.5,30.6 	"/>
	<line class="st0" x1="79.5" y1="59.1" x2="79.5" y2="30.6"/>
	<g>
		<path class="st1" d="M104.4,41.8c-0.1,0.4-0.2,0.7-0.2,0.9c0,0.3,0.2,0.7,0.5,0.7c0.3,0,1-0.2,1.3-1.3c0-0.1,0-0.1,0.1-0.1
			c0,0,0.1,0,0.1,0.1c0,0.2-0.6,1.5-1.6,1.5c-0.6,0-1-0.4-1.1-0.8c0,0.1-0.4,0.8-1,0.8c-0.4,0-0.9-0.2-0.9-0.7
			c0-0.3,0.2-0.6,0.5-0.6c0.1,0,0.4,0.1,0.4,0.3c0,0.3-0.2,0.5-0.5,0.5c0.2,0.1,0.4,0.1,0.5,0.1c0.4,0,0.8-0.4,0.9-1
			c0.4-1.4,0.5-2.1,0.5-2.4c0-0.6-0.3-0.7-0.5-0.7c-0.3,0-1,0.2-1.3,1.3c0,0.1,0,0.1-0.1,0.1c0,0-0.1,0-0.1-0.1
			c0-0.2,0.6-1.5,1.6-1.5c0.3,0,0.8,0.1,1.1,0.8c0.1-0.2,0.5-0.8,1-0.8c0.3,0,0.9,0.1,0.9,0.7c0,0.4-0.3,0.6-0.5,0.6
			c-0.3,0-0.4-0.2-0.4-0.3c0-0.2,0.2-0.5,0.5-0.5c-0.2-0.1-0.4-0.1-0.5-0.1c-0.7,0-0.9,0.9-1,1.2L104.4,41.8z"/>
	</g>
	<g>
		<path class="st1" d="M81.1,17.9l-0.2,0.2l-1.1-1l-1.2,1l-0.2-0.2l1.3-1.4L81.1,17.9z"/>
	</g>
	<g>
		<path class="st1" d="M79.7,21.9c-0.1,0.4-0.2,0.7-0.2,0.9c0,0.3,0.2,0.7,0.5,0.7c0.3,0,1-0.2,1.3-1.3c0-0.1,0-0.1,0.1-0.1
			c0,0,0.1,0,0.1,0.1c0,0.2-0.6,1.5-1.6,1.5c-0.6,0-1-0.4-1.1-0.8c0,0.1-0.4,0.8-1,0.8c-0.4,0-0.9-0.2-0.9-0.7
			c0-0.3,0.2-0.6,0.5-0.6c0.1,0,0.4,0.1,0.4,0.3c0,0.3-0.2,0.5-0.5,0.5c0.2,0.1,0.4,0.1,0.5,0.1c0.4,0,0.8-0.4,0.9-1
			c0.4-1.4,0.5-2.1,0.5-2.4c0-0.6-0.3-0.7-0.5-0.7c-0.3,0-1,0.2-1.3,1.3c0,0.1-0.1,0.1-0.1,0.1c0,0-0.1,0-0.1-0.1
			c0-0.2,0.6-1.5,1.6-1.5c0.3,0,0.8,0.1,1.1,0.8c0.1-0.2,0.5-0.8,1-0.8c0.3,0,0.9,0.1,0.9,0.7c0,0.4-0.3,0.6-0.5,0.6
			c-0.3,0-0.4-0.2-0.4-0.3c0-0.2,0.2-0.5,0.5-0.5c-0.2-0.1-0.4-0.1-0.5-0.1c-0.7,0-0.9,0.9-1,1.2L79.7,21.9z"/>
	</g>
	<g>
		<path class="st1" d="M69.6,36.6c0,0.1,0,0.1,0,0.2c0,0.1,0,0.2,0.5,0.2c0.2,0,0.3,0,0.3,0.1c0,0.2-0.1,0.2-0.2,0.2
			c-0.3,0-0.7,0-1,0c-0.3,0-0.7,0-1,0c-0.1,0-0.1-0.1-0.1-0.1c0-0.2,0.1-0.2,0.2-0.2c0.6,0,0.6,0,0.7-0.3c0-0.1,0.4-1.4,0.4-1.8
			c-0.4,0.4-0.7,0.6-1.2,0.6c-0.7,0-1.3-0.6-1.3-1.6c0-1.4,1.2-2.9,2.4-2.9c0.3,0,0.7,0.2,0.9,0.7c0.2-0.3,0.6-0.7,0.7-0.7
			C71,31,71,31,71,31.1L69.6,36.6z M69.5,34.4c0,0,0.6-2.2,0.6-2.3c0-0.1-0.1-0.9-0.8-0.9c-0.4,0-0.9,0.4-1.2,1.2
			c-0.2,0.4-0.5,1.5-0.5,2c0,0.2,0,0.9,0.6,0.9C68.8,35.3,69.3,34.6,69.5,34.4z"/>
	</g>
	<g>
		<path class="st1" d="M87.2,54.4c0,0.1,0,0.1,0,0.2c0,0.1,0,0.2,0.5,0.2c0.2,0,0.3,0,0.3,0.1c0,0.2-0.1,0.2-0.2,0.2
			c-0.3,0-0.7,0-1,0c-0.3,0-0.7,0-1,0c-0.1,0-0.1-0.1-0.1-0.1c0-0.2,0.1-0.2,0.2-0.2c0.6,0,0.6,0,0.7-0.3c0-0.1,0.4-1.4,0.4-1.8
			c-0.4,0.4-0.7,0.6-1.2,0.6c-0.7,0-1.3-0.6-1.3-1.6c0-1.4,1.2-2.9,2.4-2.9c0.3,0,0.7,0.2,0.9,0.7c0.2-0.3,0.6-0.7,0.7-0.7
			c0.1,0,0.1,0.1,0.1,0.1L87.2,54.4z M87.1,52.1c0,0,0.6-2.2,0.6-2.3c0-0.1-0.1-0.9-0.8-0.9c-0.4,0-0.9,0.4-1.2,1.2
			c-0.2,0.4-0.5,1.5-0.5,2c0,0.2,0,0.9,0.6,0.9C86.4,53,87,52.4,87.1,52.1z"/>
	</g>
	<path class="st3" d="M86.5,37.8v7.1 M75.9,34.3H83"/>
	<path class="st4" d="M75.9,41.3H83 M83,41.3v-7.1 M83,34.3h7.1 M90.1,34.3v-7.1 M75.9,41.3v7.1 M75.9,48.4h-7.1 M68.8,48.4v7.1
		 M90.1,27.2h7.1 M61.7,55.5h7.1"/>
	<g>
		<path class="st1" d="M139.7,37.5c-1.8,0-3.3-1.5-3.3-3.3c0-1.8,1.5-3.3,3.3-3.3c1.8,0,3.3,1.5,3.3,3.3
			C143,36,141.6,37.5,139.7,37.5z M139.6,34.1v-2.9c-1.6,0.1-2.8,1.3-2.9,2.9H139.6z M139.6,34.3h-2.9c0.1,1.7,1.4,2.9,2.9,2.9V34.3
			z M139.8,34.1h3c-0.1-1.7-1.4-2.9-3-2.9V34.1z M139.8,34.3v2.9c1.5-0.1,2.9-1.2,3-2.9H139.8z"/>
	</g>
	<polyline points="142,42.3 139.7,37.8 137.4,42.3 139.7,41.2 	"/>
	<line class="st5" x1="139.7" y1="76.8" x2="139.7" y2="41.2"/>
	<polyline points="156.4,36.5 160.9,34.3 156.4,32 157.5,34.3 	"/>
	<line class="st6" x1="143.2" y1="34.3" x2="157.5" y2="34.3"/>
	<g>
		<path class="st1" d="M164.9,34.4c-0.1,0.6-0.2,0.9-0.2,1c0,0.3,0.1,1.2,0.9,1.2c0.1,0,1.2,0,2-1c0.1-0.1,0.1-0.1,0.1-0.1
			c0.1,0,0.1,0.1,0.1,0.1c0,0.1-0.8,1.2-2.3,1.2c-1,0-1.6-0.8-1.6-1.8c0-1.7,1.5-2.7,2.6-2.7c0.7,0,1.1,0.4,1.1,0.8
			c0,0.1,0,0.7-0.7,1c-0.5,0.2-1.2,0.2-1.5,0.2H164.9z M165.4,34.2c0.4,0,2,0,2-1c0-0.3-0.3-0.6-0.7-0.6c-0.3,0-1.3,0.1-1.7,1.7
			H165.4z"/>
	</g>
	<g>
		<path class="st1" d="M169.4,39.2v-10h1.4v0.4h-1v9.2h1v0.4H169.4z"/>
	</g>
	<g>
		<path class="st1" d="M172.4,33.8c0.1-0.5,0.2-0.6,0.2-0.8c0-0.3-0.1-0.5-0.3-0.5c-0.4,0-0.6,0.5-0.7,1.2c-0.1,0.2-0.1,0.2-0.2,0.2
			c0,0-0.1,0-0.1-0.1c0,0,0.1-0.6,0.3-1c0.1-0.2,0.3-0.6,0.7-0.6c0.5,0,0.9,0.3,0.9,0.9c0.2-0.2,0.7-0.9,1.6-0.9
			c0.7,0,1.1,0.4,1.1,1.1c0,0.6-0.4,1.7-0.6,2.2c-0.1,0.2-0.2,0.5-0.2,0.7c0,0.2,0.1,0.3,0.2,0.3c0.5,0,0.8-0.6,1-1.2
			c0.1-0.1,0.1-0.2,0.2-0.2c0,0,0.1,0,0.1,0.1c0,0.1-0.4,1.5-1.3,1.5c-0.5,0-0.8-0.3-0.8-0.8c0-0.1,0-0.2,0.1-0.5
			c0.2-0.4,0.6-1.7,0.6-2.3c0-0.3-0.1-0.7-0.5-0.7c-0.9,0-1.5,0.9-1.6,1.2c0,0-0.1,0.3-0.1,0.5c0,0.2-0.1,0.4-0.2,0.7l-0.2,0.9
			c-0.1,0.2-0.2,0.7-0.2,0.7c-0.1,0.2-0.2,0.3-0.4,0.3c-0.1,0-0.3-0.1-0.3-0.3c0-0.1,0.1-0.3,0.1-0.4L172.4,33.8z"/>
	</g>
	<g>
		<path class="st1" d="M178.6,39.2h-1.4v-0.4h1v-9.2h-1v-0.4h1.4V39.2z"/>
	</g>
	<line class="st0" x1="129.1" y1="44.9" x2="136.1" y2="44.9"/>
	<line class="st7" x1="139.7" y1="76.8" x2="33.4" y2="76.8"/>
	<line class="st8" x1="33.4" y1="76.8" x2="33.4" y2="34.3"/>
</g>
</svg>
