<?xml version="1.0" encoding="utf-8"?>
<!-- Generator: Adobe Illustrator 22.1.0, SVG Export Plug-In . SVG Version: 6.00 Build 0)  -->
<svg version="1.1" id="Layer_1" xmlns="http://www.w3.org/2000/svg" xmlns:xlink="http://www.w3.org/1999/xlink" x="0px" y="0px"
	 viewBox="0 0 451.6 79.3" style="enable-background:new 0 0 451.6 79.3;" xml:space="preserve">
<style type="text/css">
	.st0{fill:none;stroke:#000000;stroke-width:0.8504;stroke-miterlimit:10;}
	.st1{fill:none;stroke:#000000;stroke-width:0.8504;stroke-linecap:round;stroke-miterlimit:10;stroke-dasharray:0,3.4016;}
	.st2{fill:none;stroke:#000000;stroke-width:1.7008;stroke-miterlimit:10;}
	.st3{fill:none;stroke:#000000;stroke-width:0.8504;stroke-linecap:round;stroke-miterlimit:10;stroke-dasharray:0,3.928;}
</style>
<g>
	<polyline points="203.4,46.2 208,43.9 203.4,41.7 204.6,43.9 	"/>
	<line class="st0" x1="190.3" y1="43.9" x2="204.6" y2="43.9"/>
	<polyline points="93.6,17.8 98.1,15.6 93.6,13.3 94.7,15.6 	"/>
	<line class="st0" x1="62.7" y1="15.6" x2="94.7" y2="15.6"/>
	<g>
		<path d="M84,47.3c-1.8,0-3.3-1.5-3.3-3.3s1.5-3.3,3.3-3.3s3.3,1.5,3.3,3.3S85.8,47.3,84,47.3z M83.8,44l-2.1-2.1
			c-0.5,0.6-0.8,1.3-0.8,2.1c0,0.6,0.2,1.4,0.8,2.1L83.8,44z M84,44.1l-2.1,2.1C82.7,47,83.6,47,84,47c1.3,0,2.1-0.8,2.1-0.8
			L86,46.1L84,44.1z M84,43.8l2.1-2.1c-0.8-0.8-1.7-0.8-2.1-0.8c-1.3,0-2.1,0.8-2.1,0.8l0.1,0.1L84,43.8z M84.2,44l2.1,2.1
			c0.5-0.6,0.8-1.3,0.8-2.1c0-0.8-0.3-1.6-0.8-2.1L84.2,44z"/>
	</g>
	<polyline points="75.9,46.2 80.4,43.9 75.9,41.7 77,43.9 	"/>
	<line class="st0" x1="62.7" y1="43.9" x2="77" y2="43.9"/>
	<g>
		<path d="M104.6,18.2c0,0.1,0,0.2,0,0.2c0,0.2,0.1,0.2,0.4,0.2c0.3,0,0.4,0,0.6,0c0.3,0,0.3,0,0.3,0.1c0,0.2-0.1,0.2-0.2,0.2
			c-0.3,0-0.6,0-0.9,0c-0.3,0-0.5,0-0.8,0s-0.6,0-0.8,0c-0.3,0-0.5,0-0.8,0c-0.1,0-0.2,0-0.2-0.1c0-0.2,0.1-0.2,0.4-0.2
			c1.1,0,1.1-0.1,1.2-0.5l1.3-5.3c0,0,0-0.1,0-0.2s0-0.1-0.3-0.1h-0.4c-1.5,0-1.7,0.2-2.3,1.7c-0.1,0.2-0.1,0.2-0.2,0.2
			c-0.1,0-0.1,0-0.1-0.1c0,0,0-0.2,0.1-0.2l0.6-1.8c0.1-0.2,0.1-0.2,0.3-0.2h5.5c0.2,0,0.3,0,0.3,0.1c0,0,0,0.1,0,0.2l-0.3,1.7
			c0,0.1,0,0.2-0.1,0.2s-0.1-0.1-0.1-0.1s0-0.1,0-0.2c0-0.3,0.1-0.6,0.1-0.8c0-0.8-0.4-0.8-1.5-0.8c-0.2,0-0.5,0-0.6,0
			s-0.2,0.1-0.2,0.4L104.6,18.2z"/>
	</g>
	<polygon class="st0" points="98.1,15.6 98.1,8.5 112.3,8.5 112.3,22.7 98.1,22.7 	"/>
	<polyline points="81.7,35.8 84,40.4 86.2,35.8 84,37 	"/>
	<line class="st0" x1="84" y1="15.6" x2="84" y2="37"/>
	<g>
		<path d="M50.8,35.7c0.3-0.3,0.7-0.6,1.2-0.6c0.8,0,1.3,0.7,1.3,1.6c0,1.4-1.2,2.9-2.4,2.9c-0.7,0-1.3-0.6-1.3-1.6
			c0-0.3,0-0.5,0.2-1l0.8-3.2c0-0.2,0.1-0.5,0.1-0.6s0-0.2-0.5-0.2c-0.1,0-0.2,0-0.2-0.1c0-0.2,0.1-0.2,0.2-0.2c0.3,0,1-0.1,1.2-0.1
			c0.1,0,0.1,0.1,0.1,0.1L50.8,35.7z M50.4,37.3c-0.2,0.6-0.2,0.8-0.2,1c0,0.7,0.3,1,0.7,1c0.4,0,0.8-0.4,1.2-1
			c0.2-0.4,0.5-1.5,0.5-2.1s-0.3-0.9-0.6-0.9c-0.3,0-0.7,0.1-1.2,0.8c-0.1,0.1-0.1,0.1-0.1,0.3L50.4,37.3z"/>
	</g>
	<g>
		<path d="M55.8,40.3c0,0.2,0,0.3,0.7,0.3h0.3v0.3c-0.2,0-1,0-1.2,0c-0.3,0-1.1,0-1.2,0v-0.3h0.3c0.7,0,0.7-0.1,0.7-0.3v-3.6
			c-0.4,0.2-0.8,0.2-1,0.2v-0.3c0.3,0,0.9,0,1.4-0.4c0.2,0,0.2,0,0.2,0.2v3.9H55.8z"/>
	</g>
	<g>
		<path d="M61.6,36.2c-0.1,0-0.3,0-0.3-0.2s0.2-0.2,0.3-0.2h6c0.1,0,0.3,0,0.3,0.2s-0.2,0.2-0.3,0.2H61.6z M61.5,38.1
			c-0.1,0-0.3,0-0.3-0.2s0.2-0.2,0.3-0.2h5.9c0.1,0,0.3,0,0.3,0.2s-0.2,0.2-0.3,0.2H61.5z"/>
		<path d="M74.2,38.7c0,0.4,0,0.5,0.9,0.5h0.3v0.3c-0.3,0-1.2,0-1.6,0c-0.4,0-1.3,0-1.6,0v-0.3h0.3c0.9,0,0.9-0.1,0.9-0.5v-5.2
			c-0.5,0.3-1.1,0.3-1.3,0.3v-0.3c0.3,0,1.2,0,1.8-0.6c0.2,0,0.2,0,0.2,0.3v5.5H74.2z"/>
	</g>
	<polyline points="81.7,53.6 84,58.1 86.2,53.6 84,54.7 	"/>
	<path class="st0" d="M84,47.5v7.2 M27.3,65.2v-7.1h191.3v14.2H27.3V65.2z M119.4,65.2h7.1 M122.9,68.7v-7.1"/>
	<g>
		<path d="M14.5,5.8c-0.1,0.4-0.2,0.7-0.2,0.9c0,0.3,0.2,0.7,0.5,0.7s1-0.2,1.3-1.3c0-0.1,0-0.1,0.1-0.1c0,0,0.1,0,0.1,0.1
			c0,0.2-0.6,1.5-1.6,1.5c-0.6,0-1-0.4-1.1-0.8c0,0.1-0.4,0.8-1,0.8c-0.4,0-0.9-0.2-0.9-0.7c0-0.3,0.2-0.6,0.5-0.6
			c0.1,0,0.4,0.1,0.4,0.3c0,0.3-0.2,0.5-0.5,0.5c0.2,0.1,0.4,0.1,0.5,0.1c0.4,0,0.8-0.4,0.9-1C13.9,4.8,14,4.1,14,3.8
			c0-0.6-0.3-0.7-0.5-0.7c-0.3,0-1,0.2-1.3,1.3c0,0.1-0.1,0.1-0.1,0.1S12,4.5,12,4.4c0-0.2,0.6-1.5,1.6-1.5c0.3,0,0.8,0.1,1.1,0.8
			c0.1-0.2,0.5-0.8,1-0.8c0.3,0,0.9,0.1,0.9,0.7c0,0.4-0.3,0.6-0.5,0.6c-0.3,0-0.4-0.2-0.4-0.3c0-0.2,0.2-0.5,0.5-0.5
			c-0.2-0.1-0.4-0.1-0.5-0.1c-0.7,0-0.9,0.9-1,1.2L14.5,5.8z"/>
	</g>
	<g>
		<path d="M18.4,10V0h1.4v0.4h-1v9.2h1V10H18.4z"/>
	</g>
	<g>
		<path d="M21.4,4.6c0.1-0.5,0.2-0.6,0.2-0.8c0-0.3-0.1-0.5-0.3-0.5c-0.4,0-0.6,0.5-0.7,1.2c-0.1,0.2-0.1,0.2-0.2,0.2
			c0,0-0.1,0-0.1-0.1c0,0,0.1-0.6,0.3-1C20.7,3.4,20.9,3,21.3,3c0.5,0,0.9,0.3,0.9,0.9C22.4,3.7,22.9,3,23.8,3
			c0.7,0,1.1,0.4,1.1,1.1c0,0.6-0.4,1.7-0.6,2.2c-0.1,0.2-0.2,0.5-0.2,0.7s0.1,0.3,0.2,0.3c0.5,0,0.8-0.6,1-1.2c0-0.1,0-0.2,0.1-0.2
			c0,0,0.1,0,0.1,0.1s-0.4,1.5-1.3,1.5c-0.5,0-0.8-0.3-0.8-0.8c0-0.1,0-0.2,0.1-0.5c0.2-0.4,0.6-1.7,0.6-2.3c0-0.3-0.1-0.7-0.5-0.7
			c-0.9,0-1.5,0.9-1.6,1.2c0,0-0.1,0.3-0.1,0.5s-0.1,0.4-0.2,0.7l-0.2,0.9c-0.1,0.2-0.2,0.7-0.2,0.7c-0.1,0.2-0.2,0.3-0.4,0.3
			c-0.1,0-0.3-0.1-0.3-0.3c0-0.1,0.1-0.3,0.1-0.4L21.4,4.6z"/>
	</g>
	<g>
		<path d="M27.5,10h-1.4V9.6h1V0.4h-1V0h1.4V10z"/>
	</g>
	<polyline points="44,17.8 48.5,15.6 44,13.3 45.1,15.6 	"/>
	<line class="st0" x1="13.1" y1="15.6" x2="45.1" y2="15.6"/>
	<g>
		<path d="M34.4,47.3c-1.8,0-3.3-1.5-3.3-3.3s1.5-3.3,3.3-3.3s3.3,1.5,3.3,3.3C37.7,45.8,36.2,47.3,34.4,47.3z M34.2,44l-2.1-2.1
			c-0.5,0.6-0.8,1.3-0.8,2.1c0,0.6,0.2,1.4,0.8,2.1L34.2,44z M34.4,44.1l-2.1,2.1C33.1,47,34,47,34.4,47c1.3,0,2.1-0.8,2.1-0.8
			l-0.1-0.1L34.4,44.1z M34.4,43.8l2.1-2.1c-0.8-0.8-1.7-0.8-2.1-0.8c-1.3,0-2.1,0.8-2.1,0.8l0.1,0.1L34.4,43.8z M34.6,44l2.1,2.1
			c0.5-0.6,0.8-1.3,0.8-2.1c0-0.8-0.3-1.6-0.8-2.1L34.6,44z"/>
	</g>
	<polyline points="26.3,46.2 30.8,43.9 26.3,41.7 27.4,43.9 	"/>
	<line class="st0" x1="13.1" y1="43.9" x2="27.4" y2="43.9"/>
	<g>
		<path d="M54.9,18.2c0,0.1,0,0.2,0,0.2c0,0.2,0.1,0.2,0.4,0.2s0.4,0,0.6,0c0.3,0,0.3,0,0.3,0.1c0,0.2-0.1,0.2-0.2,0.2
			c-0.3,0-0.6,0-0.9,0s-0.5,0-0.8,0s-0.6,0-0.8,0c-0.3,0-0.5,0-0.8,0c-0.1,0-0.2,0-0.2-0.1c0-0.2,0.1-0.2,0.4-0.2
			c1.1,0,1.1-0.1,1.2-0.5l1.3-5.3c0,0,0-0.1,0-0.2s0-0.1-0.3-0.1h-0.4c-1.5,0-1.7,0.2-2.3,1.7c-0.1,0.2-0.1,0.2-0.2,0.2
			s-0.1,0-0.1-0.1c0,0,0-0.2,0.1-0.2l0.6-1.8c0.1-0.2,0.1-0.2,0.3-0.2h5.5c0.2,0,0.3,0,0.3,0.1c0,0,0,0.1,0,0.2l-0.3,1.7
			c0,0.1,0,0.2-0.1,0.2s-0.1-0.1-0.1-0.1s0-0.1,0-0.2c0-0.3,0.1-0.6,0.1-0.8c0-0.8-0.4-0.8-1.5-0.8c-0.2,0-0.5,0-0.6,0
			s-0.2,0.1-0.2,0.4L54.9,18.2z"/>
	</g>
	<polygon class="st0" points="48.5,15.6 48.5,8.5 62.7,8.5 62.7,22.7 48.5,22.7 	"/>
	<polyline points="32.1,35.8 34.4,40.4 36.6,35.8 34.4,37 	"/>
	<line class="st0" x1="34.4" y1="15.6" x2="34.4" y2="37"/>
	<g>
		<path d="M1.2,35.7c0.3-0.3,0.7-0.6,1.2-0.6c0.8,0,1.3,0.7,1.3,1.6c0,1.4-1.2,2.9-2.4,2.9C0.6,39.6,0,39,0,38c0-0.3,0-0.5,0.2-1
			L1,33.8c0-0.2,0.1-0.5,0.1-0.6s0-0.2-0.5-0.2c-0.1,0-0.2,0-0.2-0.1c0-0.2,0.1-0.2,0.2-0.2c0.3,0,1-0.1,1.2-0.1
			c0.1,0,0.1,0.1,0.1,0.1L1.2,35.7z M0.8,37.3c-0.2,0.6-0.2,0.8-0.2,1c0,0.7,0.3,1,0.7,1c0.4,0,0.8-0.4,1.2-1
			C2.7,37.9,3,36.8,3,36.2s-0.3-0.9-0.6-0.9c-0.3,0-0.7,0.1-1.2,0.8c-0.1,0.1-0.1,0.1-0.1,0.3L0.8,37.3z"/>
	</g>
	<g>
		<path d="M5.8,41.1c-1.6,0-1.6-1.9-1.6-2.4s0-2.4,1.6-2.4c0.6,0,1,0.3,1.2,0.6c0.3,0.5,0.4,1,0.4,1.8C7.5,39.2,7.5,41.1,5.8,41.1z
			 M6.7,40.1c0.1-0.4,0.1-1,0.1-1.5c0-0.6,0-1.1-0.1-1.5s-0.5-0.6-0.9-0.6c-0.3,0-0.7,0.1-0.9,0.7c-0.1,0.4-0.1,0.9-0.1,1.4
			s0,1.1,0.1,1.5c0.1,0.6,0.6,0.8,0.9,0.8S6.6,40.7,6.7,40.1z"/>
	</g>
	<g>
		<path d="M12,36.2c-0.1,0-0.3,0-0.3-0.2s0.2-0.2,0.3-0.2h6c0.1,0,0.3,0,0.3,0.2s-0.2,0.2-0.3,0.2H12z M11.9,38.1
			c-0.1,0-0.3,0-0.3-0.2s0.2-0.2,0.3-0.2h5.9c0.1,0,0.3,0,0.3,0.2s-0.2,0.2-0.3,0.2H11.9z"/>
		<path d="M24.6,38.7c0,0.4,0,0.5,0.9,0.5h0.3v0.3c-0.3,0-1.2,0-1.6,0s-1.3,0-1.6,0v-0.3h0.3c0.9,0,0.9-0.1,0.9-0.5v-5.2
			c-0.5,0.3-1.1,0.3-1.3,0.3v-0.3c0.3,0,1.2,0,1.8-0.6c0.2,0,0.2,0,0.2,0.3L24.6,38.7L24.6,38.7z"/>
	</g>
	<polyline points="32.1,53.6 34.4,58.1 36.6,53.6 34.4,54.7 	"/>
	<line class="st0" x1="34.4" y1="47.5" x2="34.4" y2="54.7"/>
	<g>
		<path d="M182.5,18.2c0,0.1,0,0.2,0,0.2c0,0.2,0.1,0.2,0.4,0.2c0.3,0,0.4,0,0.6,0c0.3,0,0.3,0,0.3,0.1c0,0.2-0.1,0.2-0.2,0.2
			c-0.3,0-0.6,0-0.9,0s-0.5,0-0.8,0c-0.3,0-0.6,0-0.8,0c-0.3,0-0.5,0-0.8,0c-0.1,0-0.2,0-0.2-0.1c0-0.2,0.1-0.2,0.4-0.2
			c1.1,0,1.1-0.1,1.2-0.5l1.3-5.3c0,0,0-0.1,0-0.2s0-0.1-0.3-0.1h-0.4c-1.5,0-1.7,0.2-2.3,1.7c-0.1,0.2-0.1,0.2-0.2,0.2
			c-0.1,0-0.1,0-0.1-0.1c0,0,0-0.2,0.1-0.2l0.6-1.8c0.1-0.2,0.1-0.2,0.3-0.2h5.5c0.2,0,0.3,0,0.3,0.1c0,0,0,0.1,0,0.2l-0.3,1.7
			c0,0.1,0,0.2-0.1,0.2s-0.1-0.1-0.1-0.1s0-0.1,0-0.2c0-0.3,0.1-0.6,0.1-0.8c0-0.8-0.4-0.8-1.5-0.8c-0.2,0-0.5,0-0.6,0
			s-0.2,0.1-0.2,0.4L182.5,18.2z"/>
	</g>
	<path class="st0" d="M176.1,15.6V8.5h14.2v14.2h-14.2L176.1,15.6L176.1,15.6z M190.3,15.6h21.2"/>
	<g>
		<path d="M211.6,47.3c-1.8,0-3.3-1.5-3.3-3.3s1.5-3.3,3.3-3.3s3.3,1.5,3.3,3.3S213.4,47.3,211.6,47.3z M211.4,44l-2.1-2.1
			c-0.5,0.6-0.8,1.3-0.8,2.1c0,0.6,0.2,1.4,0.8,2.1L211.4,44z M211.6,44.1l-2.1,2.1c0.8,0.8,1.7,0.8,2.1,0.8c1.3,0,2.1-0.8,2.1-0.8
			l-0.1-0.1L211.6,44.1z M211.6,43.8l2.1-2.1c-0.8-0.8-1.7-0.8-2.1-0.8c-1.3,0-2.1,0.8-2.1,0.8l0.1,0.1L211.6,43.8z M211.7,44
			l2.1,2.1c0.5-0.6,0.8-1.3,0.8-2.1c0-0.8-0.3-1.6-0.8-2.1L211.7,44z"/>
	</g>
	<polyline points="209.3,35.8 211.5,40.4 213.8,35.8 211.5,37 	"/>
	<line class="st0" x1="211.5" y1="15.6" x2="211.5" y2="37"/>
	<g>
		<path d="M164.7,35.3c0.3-0.3,0.7-0.6,1.2-0.6c0.8,0,1.3,0.7,1.3,1.6c0,1.4-1.2,2.9-2.4,2.9c-0.7,0-1.3-0.6-1.3-1.6
			c0-0.3,0-0.5,0.2-1l0.8-3.2c0-0.2,0.1-0.5,0.1-0.6s0-0.2-0.5-0.2c-0.1,0-0.2,0-0.2-0.1c0-0.2,0.1-0.2,0.2-0.2c0.3,0,1-0.1,1.2-0.1
			c0.1,0,0.1,0.1,0.1,0.1L164.7,35.3z M164.2,37c-0.2,0.6-0.2,0.8-0.2,1c0,0.7,0.3,1,0.7,1s0.8-0.4,1.2-1c0.2-0.4,0.5-1.5,0.5-2.1
			s-0.3-0.9-0.6-0.9c-0.3,0-0.7,0.1-1.2,0.8c-0.1,0.1-0.1,0.1-0.1,0.3L164.2,37z"/>
	</g>
	<g>
		<path d="M172.2,40.4c0,0.1,0,0.1-0.1,0.1s-0.1,0-0.2-0.1l-2-4.2l-0.9,3.6c0,0.1,0,0.1,0,0.2s0,0.3,0.4,0.3c0.1,0,0.2,0,0.2,0.1
			s-0.1,0.1-0.1,0.1c-0.2,0-0.6,0-0.7,0c-0.2,0-0.5,0-0.7,0c0,0-0.1,0-0.1-0.1s0.1-0.1,0.1-0.1c0.5,0,0.7-0.2,0.7-0.5l0.9-3.7
			c-0.1,0-0.3,0-0.4,0c-0.1,0-0.2,0-0.2-0.1c0-0.2,0.1-0.2,0.2-0.2h1c0.2,0,0.2,0,0.2,0.1l1.8,3.6l0.8-3c0-0.1,0-0.1,0-0.2
			c0-0.2-0.1-0.3-0.4-0.3c-0.1,0-0.2,0-0.2-0.1c0-0.2,0.1-0.2,0.1-0.2c0.2,0,0.6,0,0.7,0c0.2,0,0.5,0,0.7,0c0.1,0,0.1,0.1,0.1,0.1
			c0,0.1-0.1,0.2-0.1,0.2c-0.6,0-0.7,0.2-0.7,0.5L172.2,40.4z"/>
	</g>
	<g>
		<path d="M175.4,39c-0.1,0-0.3,0-0.3-0.2s0.2-0.2,0.3-0.2h4.2c0.1,0,0.3,0,0.3,0.2s-0.2,0.2-0.3,0.2H175.4z"/>
	</g>
	<g>
		<path d="M183,40c0,0.2,0,0.3,0.7,0.3h0.3v0.3c-0.2,0-1,0-1.2,0c-0.3,0-1.1,0-1.2,0v-0.3h0.3c0.7,0,0.7-0.1,0.7-0.3v-3.6
			c-0.4,0.2-0.8,0.2-1,0.2v-0.3c0.3,0,0.9,0,1.4-0.4c0.2,0,0.2,0,0.2,0.2V40H183z"/>
	</g>
	<g>
		<path d="M188.6,35.9c-0.1,0-0.3,0-0.3-0.2s0.2-0.2,0.3-0.2h6c0.1,0,0.3,0,0.3,0.2s-0.2,0.2-0.3,0.2H188.6z M188.6,37.8
			c-0.1,0-0.3,0-0.3-0.2s0.2-0.2,0.3-0.2h5.9c0.1,0,0.3,0,0.3,0.2s-0.2,0.2-0.3,0.2H188.6z"/>
		<path d="M201.2,38.3c0,0.4,0,0.5,0.9,0.5h0.3v0.3c-0.3,0-1.2,0-1.6,0s-1.3,0-1.6,0v-0.3h0.3c0.9,0,0.9-0.1,0.9-0.5v-5.2
			c-0.5,0.3-1.1,0.3-1.3,0.3v-0.3c0.3,0,1.2,0,1.8-0.6c0.2,0,0.2,0,0.2,0.3v5.5H201.2z"/>
	</g>
	<polyline points="209.3,53.6 211.5,58.1 213.8,53.6 211.5,54.7 	"/>
	<line class="st0" x1="211.5" y1="47.5" x2="211.5" y2="54.7"/>
	<polyline points="171.6,17.8 176.1,15.6 171.6,13.3 172.7,15.6 	"/>
	<line class="st0" x1="161.9" y1="15.6" x2="172.7" y2="15.6"/>
	<g>
		<path d="M249.5,57.1c-0.3,1.1-1.3,2-2.3,2c-0.6,0-1.1-0.4-1.1-0.9s0.3-0.6,0.6-0.6c0.1,0,0.4,0,0.4,0.3c0,0.2-0.1,0.3-0.2,0.4
			s-0.3,0.1-0.4,0.1c0.2,0.4,0.6,0.4,0.8,0.4c0.5,0,0.8-0.3,1.1-0.6c0.4-0.5,0.5-1,0.6-1.5c-0.3,0.3-0.6,0.4-1,0.4
			c-0.6,0-1.2-0.3-1.2-1.2c0-0.5,0.2-1,0.6-2.1c0.1-0.2,0.2-0.4,0.2-0.7c0-0.3-0.2-0.3-0.2-0.3c-0.3,0-0.7,0.3-1,1.2
			c0,0.2-0.1,0.2-0.2,0.2c0,0-0.1,0-0.1-0.1s0.4-1.5,1.3-1.5c0.5,0,0.8,0.4,0.8,0.8c0,0.2,0,0.3-0.2,0.7c-0.3,0.9-0.5,1.5-0.5,2
			c0,0.4,0.1,0.8,0.6,0.8c0.7,0,1.1-0.7,1.1-0.8l0.4-1.8c0.1-0.3,0.1-0.5,0.2-0.8c0-0.2,0.1-0.5,0.1-0.5c0.1-0.1,0.2-0.2,0.3-0.2
			c0.1,0,0.3,0.1,0.3,0.3c0,0.1,0,0.1,0,0.2L249.5,57.1z"/>
	</g>
	<g>
		<path d="M252.1,59.6v-10h1.4V50h-1v9.2h1v0.4H252.1z"/>
	</g>
	<g>
		<path d="M255.1,54.2c0.1-0.5,0.2-0.6,0.2-0.8c0-0.3-0.1-0.5-0.3-0.5c-0.4,0-0.6,0.5-0.7,1.2c-0.1,0.2-0.1,0.2-0.2,0.2
			c0,0-0.1,0-0.1-0.1c0,0,0.1-0.6,0.3-1c0.1-0.2,0.3-0.6,0.7-0.6c0.5,0,0.9,0.3,0.9,0.9c0.2-0.2,0.7-0.9,1.6-0.9
			c0.7,0,1.1,0.4,1.1,1.1c0,0.6-0.4,1.7-0.6,2.2c-0.1,0.2-0.2,0.5-0.2,0.7s0.1,0.3,0.2,0.3c0.5,0,0.8-0.6,1-1.2
			c0.1-0.1,0.1-0.2,0.2-0.2c0,0,0.1,0,0.1,0.1s-0.4,1.5-1.3,1.5c-0.5,0-0.8-0.3-0.8-0.8c0-0.1,0-0.2,0.1-0.5
			c0.2-0.4,0.6-1.7,0.6-2.3c0-0.3-0.1-0.7-0.5-0.7c-0.9,0-1.5,0.9-1.6,1.2c0,0-0.1,0.3-0.1,0.5s-0.1,0.4-0.2,0.7l-0.2,0.9
			c-0.1,0.2-0.2,0.7-0.2,0.7c-0.1,0.2-0.2,0.3-0.4,0.3c-0.1,0-0.3-0.1-0.3-0.3c0,0,0.1-0.3,0.1-0.4L255.1,54.2z"/>
	</g>
	<g>
		<path d="M261.3,59.6h-1.4v-0.4h1V50h-1v-0.4h1.4V59.6z"/>
	</g>
	<polyline points="121.9,17.8 126.5,15.6 121.9,13.3 123.1,15.6 	"/>
	<line class="st0" x1="112.3" y1="15.6" x2="123.1" y2="15.6"/>
	<line class="st1" x1="133.6" y1="15.6" x2="154.8" y2="15.6"/>
	<polyline points="249.5,67.4 254,65.2 249.5,62.9 250.6,65.2 	"/>
	<line class="st0" x1="218.6" y1="65.2" x2="250.6" y2="65.2"/>
	<polyline points="437.3,67.4 441.8,65.2 437.3,62.9 438.4,65.2 	"/>
	<line class="st0" x1="282.4" y1="65.2" x2="438.4" y2="65.2"/>
	<polyline points="313,16.6 310.7,12 308.5,16.6 310.7,15.4 	"/>
	<path class="st0" d="M310.7,68.7V15.4 M307.2,29.7h7.1"/>
	<g>
		<path d="M300.5,32.2c0,0.4,0,0.5,0.9,0.5h0.3V33c-0.3,0-1.2,0-1.6,0s-1.3,0-1.6,0v-0.3h0.3c0.9,0,0.9-0.1,0.9-0.5V27
			c-0.5,0.3-1.1,0.3-1.3,0.3V27c0.3,0,1.2,0,1.8-0.6c0.2,0,0.2,0,0.2,0.3v5.5H300.5z"/>
	</g>
	<g>
		<path d="M289.5,66.8c-1.1,0-1.9-0.9-1.9-1.9s0.9-1.9,1.9-1.9s1.9,0.9,1.9,1.9S290.5,66.8,289.5,66.8z"/>
	</g>
	<g>
		<path d="M310.7,31.4c-1.1,0-1.9-0.9-1.9-1.9s0.9-1.9,1.9-1.9s1.9,0.9,1.9,1.9S311.8,31.4,310.7,31.4z"/>
	</g>
	<line class="st2" x1="310.7" y1="65.2" x2="310.7" y2="29.7"/>
	<g>
		<path d="M332,31.4c-1.1,0-1.9-0.9-1.9-1.9s0.9-1.9,1.9-1.9s1.9,0.9,1.9,1.9S333,31.4,332,31.4z"/>
	</g>
	<line class="st2" x1="332" y1="65.2" x2="332" y2="29.7"/>
	<g>
		<path d="M353.2,31.4c-1.1,0-1.9-0.9-1.9-1.9s0.9-1.9,1.9-1.9s1.9,0.9,1.9,1.9C355.2,30.5,354.3,31.4,353.2,31.4z"/>
	</g>
	<line class="st2" x1="353.3" y1="65.2" x2="353.3" y2="29.7"/>
	<g>
		<path d="M395.7,31.4c-1.1,0-1.9-0.9-1.9-1.9s0.9-1.9,1.9-1.9s1.9,0.9,1.9,1.9C397.7,30.5,396.8,31.4,395.7,31.4z"/>
	</g>
	<line class="st2" x1="395.8" y1="65.2" x2="395.8" y2="29.7"/>
	<g>
		<path d="M417,66.8c-1.1,0-1.9-0.9-1.9-1.9S416,63,417,63s1.9,0.9,1.9,1.9S418.1,66.8,417,66.8z"/>
	</g>
	<g>
		<path d="M447.4,64.4c0.1-0.5,0.2-0.6,0.2-0.8c0-0.3-0.1-0.5-0.3-0.5c-0.4,0-0.6,0.5-0.7,1.2c-0.1,0.2-0.1,0.2-0.2,0.2
			c0,0-0.1,0-0.1-0.1c0,0,0.1-0.6,0.3-1c0.1-0.2,0.3-0.6,0.7-0.6c0.5,0,0.9,0.3,0.9,0.9c0.2-0.2,0.7-0.9,1.6-0.9
			c0.7,0,1.1,0.4,1.1,1.1c0,0.6-0.4,1.7-0.6,2.2c-0.1,0.2-0.2,0.5-0.2,0.7s0.1,0.3,0.2,0.3c0.5,0,0.8-0.6,1-1.2
			c0.1-0.1,0.1-0.2,0.2-0.2c0,0,0.1,0,0.1,0.1s-0.4,1.5-1.3,1.5c-0.5,0-0.8-0.3-0.8-0.8c0-0.1,0-0.2,0.1-0.5
			c0.2-0.4,0.6-1.7,0.6-2.3c0-0.3-0.1-0.7-0.5-0.7c-0.9,0-1.5,0.9-1.6,1.2c0,0-0.1,0.3-0.1,0.5s-0.1,0.4-0.2,0.7l-0.2,0.9
			c-0.1,0.2-0.2,0.7-0.2,0.7c-0.1,0.2-0.2,0.3-0.4,0.3c-0.1,0-0.3-0.1-0.3-0.3c0,0,0.1-0.3,0.1-0.4L447.4,64.4z"/>
	</g>
	<g>
		<path d="M319.9,14.5c0.4-0.5,0.8-0.8,1.5-0.8s1.1,0.4,1.1,1.1c0,0.6-0.4,1.8-0.6,2.2c-0.1,0.2-0.2,0.5-0.2,0.7s0.1,0.3,0.2,0.3
			c0.5,0,0.9-0.7,1-1.2c0-0.1,0-0.2,0.1-0.2c0,0,0.1,0,0.1,0.1s-0.4,1.5-1.3,1.5c-0.5,0-0.8-0.3-0.8-0.8c0-0.2,0-0.3,0.1-0.5
			c0.2-0.6,0.6-1.7,0.6-2.2c0-0.4-0.1-0.7-0.5-0.7s-0.7,0.2-1,0.3c-0.3,0.3-0.6,0.8-0.7,0.9c0,0.1-0.1,0.4-0.1,0.4
			c0,0.2-0.1,0.4-0.2,0.7l-0.2,0.9l-0.2,0.8c0,0.1-0.2,0.3-0.4,0.3c-0.1,0-0.3,0-0.3-0.3c0-0.1,0-0.1,0-0.2l1.4-5.7v-0.2
			c0-0.1,0-0.2-0.5-0.2c-0.1,0-0.2,0-0.2-0.1c0-0.2,0.1-0.2,0.2-0.2c0.3,0,1-0.1,1.2-0.1c0.1,0,0.1,0.1,0.1,0.1L319.9,14.5z"/>
	</g>
	<g>
		<path d="M324.8,20.6v-10h1.4V11h-1v9.2h1v0.4H324.8z"/>
	</g>
	<g>
		<path d="M327.8,15.2c0.1-0.5,0.2-0.6,0.2-0.8c0-0.3-0.1-0.5-0.3-0.5c-0.4,0-0.6,0.5-0.7,1.2c-0.1,0.2-0.1,0.2-0.2,0.2
			c0,0-0.1,0-0.1-0.1c0,0,0.1-0.6,0.3-1c0.1-0.2,0.3-0.6,0.7-0.6c0.5,0,0.9,0.3,0.9,0.9c0.2-0.2,0.7-0.9,1.6-0.9
			c0.7,0,1.1,0.4,1.1,1.1c0,0.6-0.4,1.7-0.6,2.2c-0.1,0.2-0.2,0.5-0.2,0.7s0.1,0.3,0.2,0.3c0.5,0,0.8-0.6,1-1.2
			c0.1-0.1,0.1-0.2,0.2-0.2c0,0,0.1,0,0.1,0.1s-0.4,1.5-1.3,1.5c-0.5,0-0.8-0.3-0.8-0.8c0-0.1,0-0.2,0.1-0.5
			c0.2-0.4,0.6-1.7,0.6-2.3c0-0.3-0.1-0.7-0.5-0.7c-0.9,0-1.5,0.9-1.6,1.2c0,0-0.1,0.3-0.1,0.5s-0.1,0.4-0.2,0.7l-0.2,0.9
			c-0.1,0.2-0.2,0.7-0.2,0.7c-0.1,0.2-0.2,0.3-0.4,0.3c-0.1,0-0.3-0.1-0.3-0.3c0-0.1,0.1-0.3,0.1-0.4L327.8,15.2z"/>
	</g>
	<g>
		<path d="M333.9,20.6h-1.4v-0.4h1V11h-1v-0.4h1.4V20.6z"/>
		<path d="M338.6,14.8c-0.1,0-0.3,0-0.3-0.2s0.2-0.2,0.3-0.2h6c0.1,0,0.3,0,0.3,0.2s-0.2,0.2-0.3,0.2H338.6z M338.6,16.8
			c-0.1,0-0.3,0-0.3-0.2s0.2-0.2,0.3-0.2h5.9c0.1,0,0.3,0,0.3,0.2s-0.2,0.2-0.3,0.2H338.6z"/>
	</g>
	<g>
		<path d="M350.6,18.2c-0.5,0-1.2-0.2-1.2-1.2c0-0.5,0.2-1.1,0.6-2.1c0.1-0.1,0.2-0.4,0.2-0.7c0-0.3-0.2-0.3-0.2-0.3
			c-0.4,0-0.8,0.4-1,1.2c0,0.2-0.1,0.2-0.2,0.2c0,0-0.1,0-0.1-0.1s0.4-1.5,1.3-1.5c0.5,0,0.8,0.4,0.8,0.8c0,0.2,0,0.3-0.2,0.6
			c-0.3,0.7-0.5,1.5-0.5,2c0,0.4,0.1,0.8,0.6,0.8c0.7,0,1.1-0.8,1.1-0.8c0.1-0.5,0.6-2.3,0.7-3c0.1-0.3,0.3-0.3,0.4-0.3
			s0.3,0.1,0.3,0.3c0,0.1-0.1,0.4-0.1,0.7c0,0.1-0.1,0.5-0.2,0.7l-0.3,1.1c-0.1,0.3-0.2,0.8-0.2,1c0,0.3,0.1,0.5,0.3,0.5
			c0.4,0,0.6-0.7,0.7-1.2c0-0.1,0-0.2,0.1-0.2c0,0,0.1,0,0.1,0.1c0,0-0.1,0.6-0.3,1c-0.2,0.3-0.4,0.5-0.7,0.5
			c-0.4,0-0.8-0.3-0.9-0.7C351.6,17.8,351.3,18.2,350.6,18.2z"/>
	</g>
	<g>
		<path d="M355.2,20.6v-10h1.4V11h-1v9.2h1v0.4H355.2z"/>
	</g>
	<g>
		<path d="M358.3,15.2c0.1-0.5,0.2-0.6,0.2-0.8c0-0.3-0.1-0.5-0.3-0.5c-0.4,0-0.6,0.5-0.7,1.2c-0.1,0.2-0.1,0.2-0.2,0.2
			c0,0-0.1,0-0.1-0.1c0,0,0.1-0.6,0.3-1c0.1-0.2,0.3-0.6,0.7-0.6c0.5,0,0.9,0.3,0.9,0.9c0.2-0.2,0.7-0.9,1.6-0.9
			c0.7,0,1.1,0.4,1.1,1.1c0,0.6-0.4,1.7-0.6,2.2c-0.1,0.2-0.2,0.5-0.2,0.7s0.1,0.3,0.2,0.3c0.5,0,0.8-0.6,1-1.2
			c0.1-0.1,0.1-0.2,0.2-0.2c0,0,0.1,0,0.1,0.1s-0.4,1.5-1.3,1.5c-0.5,0-0.8-0.3-0.8-0.8c0-0.1,0-0.2,0.1-0.5
			c0.2-0.4,0.6-1.7,0.6-2.3c0-0.3-0.1-0.7-0.5-0.7c-0.9,0-1.5,0.9-1.6,1.2c0,0-0.1,0.3-0.1,0.5s-0.1,0.4-0.2,0.7l-0.2,0.9
			c-0.1,0.2-0.2,0.7-0.2,0.7c-0.1,0.2-0.2,0.3-0.4,0.3c-0.1,0-0.3-0.1-0.3-0.3c0-0.1,0.1-0.3,0.1-0.4L358.3,15.2z"/>
	</g>
	<g>
		<path d="M364.4,20.6H363v-0.4h1V11h-1v-0.4h1.4V20.6z"/>
	</g>
	<g>
		<path d="M368.9,15.8c-0.2,0-0.3,0-0.3-0.2s0.2-0.2,0.3-0.2h5.4c0.2,0,0.3,0,0.3,0.2s-0.2,0.2-0.3,0.2H368.9z"/>
	</g>
	<g>
		<path d="M380,18.2c-0.5,0-1.2-0.2-1.2-1.2c0-0.5,0.2-1.1,0.6-2.1c0.1-0.1,0.2-0.4,0.2-0.7c0-0.3-0.2-0.3-0.2-0.3
			c-0.4,0-0.8,0.4-1,1.2c0,0.2-0.1,0.2-0.2,0.2c0,0-0.1,0-0.1-0.1s0.4-1.5,1.3-1.5c0.5,0,0.8,0.4,0.8,0.8c0,0.2,0,0.3-0.2,0.6
			c-0.3,0.7-0.5,1.5-0.5,2c0,0.4,0.1,0.8,0.6,0.8c0.7,0,1.1-0.8,1.1-0.8c0.1-0.5,0.6-2.3,0.7-3c0.1-0.3,0.3-0.3,0.4-0.3
			s0.3,0.1,0.3,0.3c0,0.1-0.1,0.4-0.1,0.7c0,0.1-0.1,0.5-0.2,0.7l-0.3,1.1c-0.1,0.3-0.2,0.8-0.2,1c0,0.3,0.1,0.5,0.3,0.5
			c0.4,0,0.6-0.7,0.7-1.2c0-0.1,0-0.2,0.1-0.2c0,0,0.1,0,0.1,0.1c0,0-0.1,0.6-0.3,1c-0.2,0.3-0.4,0.5-0.7,0.5
			c-0.4,0-0.8-0.3-0.9-0.7C381,17.8,380.7,18.2,380,18.2z"/>
	</g>
	<g>
		<path d="M384.6,20.6v-10h1.4V11h-1v9.2h1v0.4H384.6z"/>
	</g>
	<g>
		<path d="M387.7,15.2c0.1-0.5,0.2-0.6,0.2-0.8c0-0.3-0.1-0.5-0.3-0.5c-0.4,0-0.6,0.5-0.7,1.2c-0.1,0.2-0.1,0.2-0.2,0.2
			c0,0-0.1,0-0.1-0.1c0,0,0.1-0.6,0.3-1c0.1-0.2,0.3-0.6,0.7-0.6c0.5,0,0.9,0.3,0.9,0.9c0.2-0.2,0.7-0.9,1.6-0.9
			c0.7,0,1.1,0.4,1.1,1.1c0,0.6-0.4,1.7-0.6,2.2c-0.1,0.2-0.2,0.5-0.2,0.7s0.1,0.3,0.2,0.3c0.5,0,0.8-0.6,1-1.2
			c0.1-0.1,0.1-0.2,0.2-0.2c0,0,0.1,0,0.1,0.1s-0.4,1.5-1.3,1.5c-0.5,0-0.8-0.3-0.8-0.8c0-0.1,0-0.2,0.1-0.5
			c0.2-0.4,0.6-1.7,0.6-2.3c0-0.3-0.1-0.7-0.5-0.7c-0.9,0-1.5,0.9-1.6,1.2c0,0-0.1,0.3-0.1,0.5s-0.1,0.4-0.2,0.7l-0.2,0.9
			c-0.1,0.2-0.2,0.7-0.2,0.7c-0.1,0.2-0.2,0.3-0.4,0.3c-0.1,0-0.3-0.1-0.3-0.3c0-0.1,0.1-0.3,0.1-0.4L387.7,15.2z"/>
	</g>
	<g>
		<path d="M395.5,15.8c-0.2,0-0.3,0-0.3-0.2s0.2-0.2,0.3-0.2h5.4c0.2,0,0.3,0,0.3,0.2s-0.2,0.2-0.3,0.2H395.5z"/>
	</g>
	<g>
		<path d="M410.5,17.9c0,0.2,0,0.2-0.2,0.2c-0.1,0-0.1,0-0.2-0.2l-2.5-5.9c0-0.1,0-0.1-0.1-0.2l-1.3,5.3c0,0.1,0,0.2,0,0.2
			c0,0.2,0.1,0.4,0.7,0.4c0.1,0,0.2,0,0.2,0.1c0,0.2-0.1,0.2-0.2,0.2c-0.3,0-0.7,0-1,0s-0.7,0-1,0c-0.1,0-0.1,0-0.1-0.1
			c0-0.2,0.1-0.2,0.2-0.2c0.8,0,1-0.3,1.1-0.7l1.3-5.4c0-0.1-0.6-0.1-0.7-0.1c-0.2,0-0.3,0-0.3-0.1c0-0.2,0.1-0.2,0.3-0.2h1.3
			c0.2,0,0.2,0,0.3,0.2l2.2,5.2l1.1-4.4V12c0-0.2-0.1-0.4-0.7-0.4c-0.1,0-0.2,0-0.2-0.1c0-0.2,0.1-0.2,0.2-0.2c0.3,0,0.7,0,1,0
			s0.7,0,1,0c0.1,0,0.1,0.1,0.1,0.1c0,0.2-0.1,0.2-0.2,0.2c-0.8,0-1,0.3-1.1,0.7L410.5,17.9z"/>
	</g>
	<g>
		<path d="M415,20.6h-1.4v-0.4h1V11h-1v-0.4h1.4V20.6z"/>
	</g>
	<g>
		<path d="M285.4,77.2v-0.6h2.6v0.6H285.4z"/>
		<path d="M291.6,78.3c0,0.4,0,0.5,0.9,0.5h0.3v0.3c-0.3,0-1.2,0-1.6,0s-1.3,0-1.6,0v-0.3h0.3c0.9,0,0.9-0.1,0.9-0.5v-5.2
			c-0.5,0.3-1.1,0.3-1.3,0.3v-0.3c0.3,0,1.2,0,1.8-0.6c0.2,0,0.2,0,0.2,0.3v5.5H291.6z"/>
	</g>
	<g>
		<path d="M312.4,78.1c-0.4,0.9-1.2,1.2-1.7,1.2s-1.2-0.2-1.6-1s-0.4-1.7-0.4-2.4c0-0.8,0-1.6,0.4-2.3c0.4-0.9,1.1-1.2,1.7-1.2
			c0.4,0,1.2,0.2,1.7,1.1c0.3,0.7,0.4,1.5,0.4,2.3C312.8,76.6,312.8,77.4,312.4,78.1z M311.9,77.8c0.1-0.6,0.1-1.3,0.1-2.1
			c0-0.6,0-1.4-0.1-1.9c-0.2-1-0.8-1.2-1.2-1.2c-0.2,0-1,0.1-1.2,1.3c-0.1,0.5-0.1,1.2-0.1,1.8c0,0.6,0,1.5,0.1,2.1
			c0.2,1,0.8,1.2,1.2,1.2C311.1,79.1,311.7,78.8,311.9,77.8z"/>
		<path d="M332.4,78.3c0,0.4,0,0.5,0.9,0.5h0.3v0.3c-0.3,0-1.2,0-1.6,0s-1.3,0-1.6,0v-0.3h0.3c0.9,0,0.9-0.1,0.9-0.5v-5.2
			c-0.5,0.3-1.1,0.3-1.3,0.3v-0.3c0.3,0,1.2,0,1.8-0.6c0.2,0,0.2,0,0.2,0.3v5.5H332.4z"/>
		<path d="M353.8,78.3c0.2,0,0.9,0,0.9-0.1c0.1-0.1,0.2-0.6,0.2-0.9h0.2l-0.3,1.7h-3.7c0-0.2,0-0.3,0.1-0.4l1.9-2.1
			c0.5-0.6,1-1.4,1-2.2c0-0.8-0.4-1.6-1.3-1.6c-0.6,0-1.1,0.4-1.3,1c0,0,0,0,0.1,0c0.3,0,0.5,0.3,0.5,0.5c0,0.4-0.3,0.5-0.5,0.5
			c0,0-0.5,0-0.5-0.6c0-0.9,0.7-1.8,1.9-1.8c1.2,0,2.1,0.8,2.1,1.9c0,1-0.6,1.5-2.2,2.9l-1.1,1h2V78.3z"/>
	</g>
	<g>
		<path d="M388.7,78.6c0,0.2,0,0.2-0.2,0.2c-0.1,0-0.1,0-0.2-0.2l-2.5-5.9c0-0.1,0-0.1-0.1-0.2l-1.3,5.3c0,0.1,0,0.2,0,0.2
			c0,0.2,0.1,0.4,0.7,0.4c0.1,0,0.2,0,0.2,0.1c0,0.2-0.1,0.2-0.2,0.2c-0.3,0-0.7,0-1,0s-0.7,0-1,0c-0.1,0-0.1,0-0.1-0.1
			c0-0.2,0.1-0.2,0.2-0.2c0.8,0,1-0.3,1.1-0.7l1.3-5.4c0-0.1-0.6-0.1-0.7-0.1c-0.2,0-0.3,0-0.3-0.1c0-0.2,0.1-0.2,0.3-0.2h1.3
			c0.2,0,0.2,0,0.3,0.2l2.2,5.2l1.1-4.4v-0.2c0-0.2-0.1-0.4-0.7-0.4c-0.1,0-0.2,0-0.2-0.1c0-0.2,0.1-0.2,0.2-0.2c0.3,0,0.7,0,1,0
			s0.7,0,1,0c0.1,0,0.1,0.1,0.1,0.1c0,0.2-0.1,0.2-0.2,0.2c-0.8,0-1,0.3-1.1,0.7L388.7,78.6z"/>
	</g>
	<g>
		<path d="M395,76.5c-0.2,0-0.3,0-0.3-0.2s0.2-0.2,0.3-0.2h5.4c0.2,0,0.3,0,0.3,0.2s-0.2,0.2-0.3,0.2H395z"/>
	</g>
	<g>
		<path d="M406.7,78c0,0.4,0,0.5,0.9,0.5h0.3v0.3c-0.3,0-1.2,0-1.6,0s-1.3,0-1.6,0v-0.3h0.3c0.9,0,0.9-0.1,0.9-0.5v-5.2
			c-0.5,0.3-1.1,0.3-1.3,0.3v-0.3c0.3,0,1.2,0,1.8-0.6c0.2,0,0.2,0,0.2,0.3V78H406.7z"/>
	</g>
	<g>
		<path d="M418.6,79c0,0.2,0,0.2-0.2,0.2c-0.1,0-0.1,0-0.2-0.2l-2.5-5.9c0-0.1,0-0.1-0.1-0.2l-1.3,5.3c0,0.1,0,0.2,0,0.2
			c0,0.2,0.1,0.4,0.7,0.4c0.1,0,0.2,0,0.2,0.1c0,0.2-0.1,0.2-0.2,0.2c-0.3,0-0.7,0-1,0s-0.7,0-1,0c-0.1,0-0.1,0-0.1-0.1
			c0-0.2,0.1-0.2,0.2-0.2c0.8,0,1-0.3,1.1-0.7l1.3-5.4c0-0.1-0.6-0.1-0.7-0.1c-0.2,0-0.3,0-0.3-0.1c0-0.2,0.1-0.2,0.3-0.2h1.3
			c0.2,0,0.2,0,0.3,0.2l2.2,5.2l1.1-4.4v-0.2c0-0.2-0.1-0.4-0.7-0.4c-0.1,0-0.2,0-0.2-0.1c0-0.2,0.1-0.2,0.2-0.2c0.3,0,0.7,0,1,0
			s0.7,0,1,0c0.1,0,0.1,0.1,0.1,0.1c0,0.2-0.1,0.2-0.2,0.2c-0.8,0-1,0.3-1.1,0.7L418.6,79z"/>
	</g>
	<path class="st3" d="M360.3,47.5h21.8 M360.3,75.8h21.8"/>
</g>
</svg>
