<svg id="Layer_1" data-name="Layer 1" xmlns="http://www.w3.org/2000/svg" viewBox="0 0 416.033 438.466">
  <defs>
    <style>
      .cls-1, .cls-3, .cls-4, .cls-5, .cls-6, .cls-7, .cls-8, .cls-9 {
        fill: none;
        stroke: #000;
        stroke-miterlimit: 10;
      }

      .cls-1, .cls-3, .cls-6, .cls-7, .cls-8, .cls-9 {
        stroke-width: 0.85px;
      }

      .cls-2 {
        fill: #1d1d1b;
      }

      .cls-3, .cls-6, .cls-7, .cls-8, .cls-9 {
        stroke-linecap: round;
      }

      .cls-3 {
        stroke-dasharray: 0 3.678;
      }

      .cls-4 {
        stroke-width: 1.417px;
      }

      .cls-5 {
        stroke-width: 2.268px;
      }

      .cls-6 {
        stroke-dasharray: 0 3.928;
      }

      .cls-7 {
        stroke-dasharray: 0 3.66;
      }

      .cls-8 {
        stroke-dasharray: 0 3.928;
      }

      .cls-9 {
        stroke-dasharray: 0 3.928;
      }
    </style>
  </defs>
  <title>LPF</title>
  <g>
    <polyline points="199.405 89.59 203.94 87.322 199.405 85.055 200.539 87.322"/>
    <line class="cls-1" x1="182.681" y1="87.322" x2="200.539" y2="87.322"/>
    <path class="cls-2" d="M297.361,374.073a3.22,3.22,0,0,0,.159-.837c0-.328-.109-.458-.309-.458-.359,0-.558.478-.727,1.186-.06.219-.07.229-.17.229-.02,0-.119,0-.119-.1a4.96,4.96,0,0,1,.3-.966.868.868,0,0,1,.747-.568.9.9,0,0,1,.917.867,1.922,1.922,0,0,1,1.554-.867,1.018,1.018,0,0,1,1.145,1.066,9.024,9.024,0,0,1-.607,2.192,1.893,1.893,0,0,0-.18.707c0,.229.07.33.24.33.488,0,.816-.559,1.015-1.236.051-.15.051-.18.151-.18.029,0,.119,0,.119.1,0,.08-.369,1.534-1.306,1.534a.8.8,0,0,1-.816-.817,1.126,1.126,0,0,1,.1-.458,9.511,9.511,0,0,0,.648-2.321c0-.33-.09-.7-.538-.7a1.984,1.984,0,0,0-1.624,1.216c-.01.04-.09.328-.13.5-.05.229-.109.448-.169.667l-.219.9c-.06.249-.179.717-.19.737a.405.405,0,0,1-.368.279.266.266,0,0,1-.289-.268c0-.051.059-.28.09-.429Z" transform="translate(-84.241 -287.49)"/>
    <path class="cls-2" d="M190.683,370.019a1.863,1.863,0,0,1-3.378.149,5.04,5.04,0,0,1-.448-2.4,5.326,5.326,0,0,1,.369-2.262,1.825,1.825,0,0,1,1.733-1.186,1.848,1.848,0,0,1,1.694,1.116,7.035,7.035,0,0,1,.03,4.584Zm-.568-.31a19.158,19.158,0,0,0,.01-4c-.189-.986-.847-1.166-1.176-1.166-.249,0-1,.09-1.185,1.275a13.331,13.331,0,0,0-.08,1.834,13.671,13.671,0,0,0,.109,2.1c.18.956.768,1.2,1.156,1.2C189.4,370.955,189.966,370.656,190.115,369.709Z" transform="translate(-84.241 -287.49)"/>
    <polyline points="110.539 35.165 108.272 30.63 106.004 35.165 108.272 34.031"/>
    <line class="cls-1" x1="108.272" y1="34.031" x2="108.272" y2="90.866"/>
    <path class="cls-3" d="M86.214,364.182s11.743-1.767,17.717-3.543c6.309-1.875,11.18-7.086,17.716-7.086s12.033,3.774,17.716,7.086c6.758,3.938,10.079,14.173,17.717,14.173s12.518-8.333,17.716-14.173c7.659-8.6,6.891-28.346,17.717-28.346s10.058,19.742,17.716,28.346c5.2,5.84,10.079,14.173,17.717,14.173s10.959-10.235,17.716-14.173c5.683-3.312,11.181-7.086,17.717-7.086s11.407,5.211,17.716,7.086c5.974,1.776,17.716,3.543,17.716,3.543h0" transform="translate(-84.241 -287.49)"/>
    <line class="cls-1" x1="1.973" y1="73.149" x2="214.57" y2="73.149"/>
    <line class="cls-4" x1="108.272" y1="73.149" x2="108.272" y2="44.803"/>
    <path class="cls-2" d="M192.561,334.038a1.933,1.933,0,1,1,1.933-1.934A1.944,1.944,0,0,1,192.561,334.038Z" transform="translate(-84.241 -287.49)"/>
    <path class="cls-2" d="M245.717,362.366a1.933,1.933,0,1,1,1.933-1.933A1.944,1.944,0,0,1,245.717,362.366Z" transform="translate(-84.241 -287.49)"/>
    <line class="cls-4" x1="118.901" y1="73.149" x2="118.901" y2="55.433"/>
    <path class="cls-2" d="M203.116,344.6a1.933,1.933,0,1,1,1.932-1.933A1.944,1.944,0,0,1,203.116,344.6Z" transform="translate(-84.241 -287.49)"/>
    <line class="cls-4" x1="129.531" y1="78.479" x2="129.531" y2="73.149"/>
    <path class="cls-2" d="M213.8,367.631a1.933,1.933,0,1,1,1.933-1.933A1.943,1.943,0,0,1,213.8,367.631Z" transform="translate(-84.241 -287.49)"/>
    <line class="cls-4" x1="140.161" y1="87.322" x2="140.161" y2="73.149"/>
    <path class="cls-2" d="M224.483,376.522a1.933,1.933,0,1,1,1.933-1.933A1.943,1.943,0,0,1,224.483,376.522Z" transform="translate(-84.241 -287.49)"/>
    <line class="cls-4" x1="150.791" y1="83.779" x2="150.791" y2="73.149"/>
    <path class="cls-2" d="M235.038,372.92a1.933,1.933,0,1,1,1.932-1.933A1.943,1.943,0,0,1,235.038,372.92Z" transform="translate(-84.241 -287.49)"/>
    <line class="cls-4" x1="172.051" y1="73.149" x2="172.051" y2="67.82"/>
    <path class="cls-2" d="M256.28,356.959a1.933,1.933,0,1,1,1.932-1.933A1.944,1.944,0,0,1,256.28,356.959Z" transform="translate(-84.241 -287.49)"/>
    <line class="cls-4" x1="182.681" y1="73.149" x2="182.681" y2="66.063"/>
    <path class="cls-2" d="M266.959,355.28a1.933,1.933,0,1,1,1.933-1.933A1.944,1.944,0,0,1,266.959,355.28Z" transform="translate(-84.241 -287.49)"/>
    <line class="cls-4" x1="193.31" y1="73.149" x2="193.31" y2="71.392"/>
    <path class="cls-2" d="M277.639,360.569a1.933,1.933,0,1,1,1.933-1.933A1.944,1.944,0,0,1,277.639,360.569Z" transform="translate(-84.241 -287.49)"/>
    <line class="cls-4" x1="203.94" y1="74.907" x2="203.94" y2="73.149"/>
    <path class="cls-2" d="M288.2,364.038a1.933,1.933,0,1,1,1.932-1.934A1.944,1.944,0,0,1,288.2,364.038Z" transform="translate(-84.241 -287.49)"/>
    <line class="cls-4" x1="97.642" y1="73.149" x2="97.642" y2="55.433"/>
    <path class="cls-2" d="M181.881,344.6a1.933,1.933,0,1,1,1.933-1.933A1.943,1.943,0,0,1,181.881,344.6Z" transform="translate(-84.241 -287.49)"/>
    <line class="cls-4" x1="87.012" y1="78.479" x2="87.012" y2="73.149"/>
    <path class="cls-2" d="M171.319,367.631a1.933,1.933,0,1,1,1.932-1.933A1.944,1.944,0,0,1,171.319,367.631Z" transform="translate(-84.241 -287.49)"/>
    <line class="cls-4" x1="76.382" y1="87.322" x2="76.382" y2="73.149"/>
    <path class="cls-2" d="M160.639,376.522a1.933,1.933,0,1,1,1.933-1.933A1.943,1.943,0,0,1,160.639,376.522Z" transform="translate(-84.241 -287.49)"/>
    <line class="cls-4" x1="65.752" y1="83.779" x2="65.752" y2="73.149"/>
    <path class="cls-2" d="M150.084,372.92a1.933,1.933,0,1,1,1.933-1.933A1.943,1.943,0,0,1,150.084,372.92Z" transform="translate(-84.241 -287.49)"/>
    <path class="cls-2" d="M139.405,362.366a1.933,1.933,0,1,1,1.932-1.933A1.944,1.944,0,0,1,139.405,362.366Z" transform="translate(-84.241 -287.49)"/>
    <line class="cls-4" x1="44.492" y1="73.149" x2="44.492" y2="67.82"/>
    <path class="cls-2" d="M128.717,356.959a1.933,1.933,0,1,1,1.933-1.933A1.943,1.943,0,0,1,128.717,356.959Z" transform="translate(-84.241 -287.49)"/>
    <line class="cls-4" x1="33.863" y1="73.149" x2="33.863" y2="66.063"/>
    <path class="cls-2" d="M118.163,355.28a1.933,1.933,0,1,1,1.932-1.933A1.944,1.944,0,0,1,118.163,355.28Z" transform="translate(-84.241 -287.49)"/>
    <line class="cls-4" x1="23.233" y1="73.149" x2="23.233" y2="71.392"/>
    <path class="cls-2" d="M107.475,360.569a1.933,1.933,0,1,1,1.933-1.933A1.944,1.944,0,0,1,107.475,360.569Z" transform="translate(-84.241 -287.49)"/>
    <line class="cls-4" x1="214.57" y1="76.693" x2="214.57" y2="73.149"/>
    <path class="cls-2" d="M298.881,365.834a1.933,1.933,0,1,1,1.932-1.933A1.943,1.943,0,0,1,298.881,365.834Z" transform="translate(-84.241 -287.49)"/>
    <line class="cls-4" x1="1.973" y1="76.693" x2="1.973" y2="73.149"/>
    <path class="cls-2" d="M86.241,365.834a1.933,1.933,0,1,1,1.932-1.933A1.944,1.944,0,0,1,86.241,365.834Z" transform="translate(-84.241 -287.49)"/>
    <line class="cls-4" x1="12.603" y1="74.907" x2="12.603" y2="73.149"/>
    <path class="cls-2" d="M96.92,364.038a1.933,1.933,0,1,1,1.933-1.934A1.944,1.944,0,0,1,96.92,364.038Z" transform="translate(-84.241 -287.49)"/>
    <path class="cls-2" d="M200.191,320.514a1.851,1.851,0,0,1,1.476-.768,1.013,1.013,0,0,1,1.145,1.067A8.909,8.909,0,0,1,202.2,323a1.921,1.921,0,0,0-.179.708c0,.229.069.329.239.329.548,0,.866-.708,1.016-1.236.05-.149.05-.179.149-.179.03,0,.12,0,.12.1,0,.079-.369,1.534-1.305,1.534a.8.8,0,0,1-.817-.817,1.516,1.516,0,0,1,.129-.548,8.472,8.472,0,0,0,.618-2.232c0-.359-.109-.7-.538-.7a1.593,1.593,0,0,0-.957.349,2.949,2.949,0,0,0-.677.917c-.01.06-.089.389-.11.448-.05.23-.109.449-.169.668l-.22.9-.188.757a.415.415,0,0,1-.369.259.274.274,0,0,1-.289-.279.609.609,0,0,1,.04-.219l1.444-5.74.03-.2c0-.1-.019-.169-.5-.169-.149,0-.239,0-.239-.12,0-.179.109-.189.19-.2.258-.02.986-.1,1.215-.1.129,0,.129.1.129.11Z" transform="translate(-84.241 -287.49)"/>
    <path class="cls-2" d="M205.042,326.642v-9.965h1.366v.4h-.967v9.167h.967v.4Z" transform="translate(-84.241 -287.49)"/>
    <path class="cls-2" d="M208.08,321.261a3.273,3.273,0,0,0,.159-.837c0-.329-.11-.459-.309-.459-.359,0-.558.479-.727,1.186-.06.22-.071.229-.17.229-.02,0-.119,0-.119-.1a5.031,5.031,0,0,1,.3-.967.871.871,0,0,1,.747-.568.9.9,0,0,1,.917.867,1.926,1.926,0,0,1,1.555-.867,1.019,1.019,0,0,1,1.146,1.067,8.974,8.974,0,0,1-.608,2.191,1.9,1.9,0,0,0-.179.708c0,.229.069.329.239.329.488,0,.816-.558,1.015-1.236.051-.149.051-.179.151-.179.029,0,.119,0,.119.1,0,.079-.369,1.534-1.306,1.534a.8.8,0,0,1-.816-.817,1.136,1.136,0,0,1,.1-.459,9.5,9.5,0,0,0,.647-2.321c0-.329-.09-.7-.538-.7a1.983,1.983,0,0,0-1.624,1.216c-.01.04-.09.329-.13.5-.05.23-.109.449-.169.668l-.22.9c-.059.249-.178.717-.189.737a.407.407,0,0,1-.368.279.266.266,0,0,1-.289-.269c0-.05.059-.279.089-.428Z" transform="translate(-84.241 -287.49)"/>
    <path class="cls-2" d="M214.208,326.642h-1.365v-.4h.967v-9.167h-.967v-.4h1.365Z" transform="translate(-84.241 -287.49)"/>
    <line class="cls-1" x1="257.154" y1="41.746" x2="257.154" y2="48.833"/>
    <path class="cls-2" d="M335.73,340.1c-.169,0-.348,0-.348-.2s.179-.2.348-.2h5.391c.169,0,.349,0,.349.2s-.18.2-.349.2Z" transform="translate(-84.241 -287.49)"/>
    <path class="cls-2" d="M344.434,340.875c-.129.5-.129.519-.269.977-.12.369-.2.648-.5.648a.271.271,0,0,1-.289-.269c0-.07,0-.09.079-.239a20.932,20.932,0,0,0,1.275-3.319h-.567a1.405,1.405,0,0,0-1.266.768c-.059.08-.08.119-.159.119-.12,0-.12-.09-.12-.1a3.6,3.6,0,0,1,.609-.9,1.264,1.264,0,0,1,1.036-.469H347.6c.189,0,.4,0,.4.239,0,.339-.358.339-.488.339h-1.136a7.779,7.779,0,0,0-.18,1.585,4.285,4.285,0,0,0,.289,1.644.433.433,0,0,1,.06.22.419.419,0,0,1-.408.378c-.15,0-.259-.06-.359-.5a3.12,3.12,0,0,1-.08-.756,10.958,10.958,0,0,1,.419-2.572h-1.126Z" transform="translate(-84.241 -287.49)"/>
    <path class="cls-2" d="M425.413,297.108a.979.979,0,0,0-.029.169c0,.18.278.18.647.18.19,0,.28,0,.28.109,0,.2-.121.2-.2.2-.21,0-.428-.019-.648-.019s-.428-.011-.638-.011c-.278,0-.986.03-1.264.03-.021,0-.14,0-.14-.109,0-.2.09-.2.239-.2.617,0,.807-.01.906-.33.04-.149.27-1.1.688-2.75h-3.039l-.678,2.731a.979.979,0,0,0-.029.169c0,.18.278.18.647.18.19,0,.28,0,.28.109,0,.2-.121.2-.2.2-.21,0-.428-.019-.648-.019s-.428-.011-.638-.011c-.278,0-.986.03-1.264.03-.021,0-.14,0-.14-.109,0-.2.09-.2.268-.2.788,0,.808-.081.908-.469l1.335-5.351a.93.93,0,0,0,.04-.189c0-.129-.09-.14-.27-.159a3.606,3.606,0,0,0-.379-.02c-.188,0-.278,0-.278-.11,0-.2.109-.2.189-.2.289,0,1,.031,1.286.031s1-.031,1.275-.031c.029,0,.14,0,.14.111,0,.2-.08.2-.339.2-.718,0-.747.1-.837.458l-.588,2.342h3.039l.6-2.432a1.11,1.11,0,0,0,.04-.189c0-.129-.09-.14-.27-.159a3.606,3.606,0,0,0-.379-.02c-.188,0-.278,0-.278-.11,0-.2.109-.2.189-.2.289,0,1,.031,1.286.031s1-.031,1.275-.031c.029,0,.14,0,.14.111,0,.2-.081.2-.339.2-.728,0-.747.1-.837.458Z" transform="translate(-84.241 -287.49)"/>
    <g>
      <path class="cls-2" d="M431.472,300.256a4.294,4.294,0,0,1-1.555-1.873,7.676,7.676,0,0,1-.029-6.148,4.334,4.334,0,0,1,1.584-1.943.089.089,0,0,1,.1.1c0,.029,0,.05-.13.169a6.521,6.521,0,0,0-1.6,4.713,6.6,6.6,0,0,0,1.564,4.663c.169.17.169.189.169.22A.089.089,0,0,1,431.472,300.256Z" transform="translate(-84.241 -287.49)"/>
      <path class="cls-2" d="M433.514,296.958a1.34,1.34,0,0,0,1.126.667,1.4,1.4,0,0,0,1.344-1.026c.021-.079.04-.14.13-.14a.117.117,0,0,1,.13.121,1.7,1.7,0,0,1-1.664,1.3,2.249,2.249,0,0,1-2.192-2.3,2.178,2.178,0,0,1,2.072-2.272,1.768,1.768,0,0,1,1.784,1.953c0,.209-.03.209-.25.209h-2.779A2.9,2.9,0,0,0,433.514,296.958Zm2.072-1.7c0-.388-.1-1.734-1.126-1.734-.339,0-1.176.25-1.235,1.734Z" transform="translate(-84.241 -287.49)"/>
    </g>
    <path class="cls-2" d="M438.646,294.654a1.434,1.434,0,0,1-1.364,1.545c-.568,0-1.126-.28-1.126-.8a.458.458,0,0,1,.916,0,.461.461,0,0,1-.348.449,1.212,1.212,0,0,0,.538.129c.637,0,.727-.856.727-1.305v-3.946c0-.488-.09-.558-.856-.558v-.309l1.513-.11Zm-.527-6.108a.528.528,0,1,1,.527-.528A.531.531,0,0,1,438.119,288.546Z" transform="translate(-84.241 -287.49)"/>
    <path class="cls-2" d="M440.956,294.233c-.642,0-.962-.683-.962-1.513,0-1.6,1.115-3.466,2.161-3.466.684,0,.963.782.963,1.514C443.118,292.33,442.016,294.233,440.956,294.233Zm-.237-2.363a5.323,5.323,0,0,0-.2,1.261c0,.377.062.907.446.907.307,0,.586-.328.8-.69a4.986,4.986,0,0,0,.565-1.478Zm1.674-.251a5.565,5.565,0,0,0,.2-1.263c0-.132,0-.906-.447-.906-.411,0-1.01.662-1.366,2.169Z" transform="translate(-84.241 -287.49)"/>
    <path class="cls-2" d="M446.369,298.313a4.333,4.333,0,0,1-1.585,1.943.094.094,0,0,1-.1-.1c0-.031,0-.05.129-.17a6.531,6.531,0,0,0,1.6-4.713,6.462,6.462,0,0,0-1.545-4.653c-.189-.179-.189-.2-.189-.229a.094.094,0,0,1,.1-.1,4.3,4.3,0,0,1,1.555,1.874,7.679,7.679,0,0,1,.03,6.147Z" transform="translate(-84.241 -287.49)"/>
    <path class="cls-2" d="M405.64,299.853c0,.368.03.479.926.479h.32v.308c-.349-.03-1.216-.03-1.615-.03s-1.265,0-1.614.03v-.308h.32c.9,0,.925-.121.925-.479v-5.161a2.978,2.978,0,0,1-1.3.259v-.309a2.461,2.461,0,0,0,1.813-.638c.229,0,.229.02.229.259Z" transform="translate(-84.241 -287.49)"/>
    <polyline points="330.288 7.305 328.02 2.77 325.752 7.305 328.02 6.172"/>
    <line class="cls-1" x1="328.02" y1="6.172" x2="328.02" y2="59.463"/>
    <polyline points="401.437 47.557 405.972 45.289 401.437 43.022 402.571 45.289"/>
    <line class="cls-1" x1="257.154" y1="45.289" x2="402.571" y2="45.289"/>
    <path class="cls-2" d="M452.091,342.75c-.907,0-1.2-1.106-1.2-2.042,0-2.283,1.535-5.092,2.919-5.092,1.017,0,1.2,1.384,1.2,2.042C455.01,339.89,453.5,342.75,452.091,342.75Zm-.22-3.408a7.617,7.617,0,0,0-.318,1.973c0,.927.209,1.216.538,1.216.428,0,.806-.489,1.155-1.166a8.857,8.857,0,0,0,.7-2.023Zm2.162-.319a8.277,8.277,0,0,0,.32-1.982c0-.569-.06-1.207-.548-1.207-.45,0-.818.559-1.087,1.047a8.944,8.944,0,0,0-.767,2.142Z" transform="translate(-84.241 -287.49)"/>
    <path class="cls-2" d="M457.6,341.206a1.279,1.279,0,0,0-.977.537,2.887,2.887,0,0,0-.46,1.443.69.69,0,0,0,.726.773,1.979,1.979,0,0,0,1.485-.64c.056-.057.069-.07.111-.07a.148.148,0,0,1,.118.119,1.89,1.89,0,0,1-1.729.787,1.2,1.2,0,0,1-1.29-1.213,2.091,2.091,0,0,1,2.016-1.932c.376,0,.92.133.92.607a.407.407,0,0,1-.4.446.251.251,0,0,1-.273-.258.4.4,0,0,1,.356-.39A.865.865,0,0,0,457.6,341.206Z" transform="translate(-84.241 -287.49)"/>
    <path class="cls-2" d="M362.73,340.348c-.169,0-.348,0-.348-.2s.179-.2.348-.2h5.391c.169,0,.349,0,.349.2s-.18.2-.349.2Z" transform="translate(-84.241 -287.49)"/>
    <path class="cls-2" d="M370.966,342.75c-.907,0-1.2-1.106-1.2-2.042,0-2.283,1.535-5.092,2.919-5.092,1.017,0,1.2,1.384,1.2,2.042C373.885,339.89,372.37,342.75,370.966,342.75Zm-.22-3.408a7.617,7.617,0,0,0-.318,1.973c0,.927.209,1.216.538,1.216.428,0,.806-.489,1.155-1.166a8.857,8.857,0,0,0,.7-2.023Zm2.162-.319a8.277,8.277,0,0,0,.32-1.982c0-.569-.06-1.207-.548-1.207-.45,0-.818.559-1.087,1.047a8.944,8.944,0,0,0-.767,2.142Z" transform="translate(-84.241 -287.49)"/>
    <path class="cls-2" d="M376.486,341.206a1.277,1.277,0,0,0-.976.537,2.876,2.876,0,0,0-.46,1.443.689.689,0,0,0,.725.773,1.98,1.98,0,0,0,1.486-.64c.055-.057.069-.07.111-.07a.148.148,0,0,1,.118.119,1.891,1.891,0,0,1-1.729.787,1.2,1.2,0,0,1-1.29-1.213,2.09,2.09,0,0,1,2.015-1.932c.377,0,.921.133.921.607a.407.407,0,0,1-.4.446.251.251,0,0,1-.273-.258.4.4,0,0,1,.356-.39A.866.866,0,0,0,376.486,341.206Z" transform="translate(-84.241 -287.49)"/>
    <path class="cls-2" d="M482.2,340.532c-.129.5-.129.518-.268.976-.12.369-.2.648-.5.648a.27.27,0,0,1-.289-.269c0-.07,0-.09.079-.239a20.881,20.881,0,0,0,1.275-3.318h-.567a1.4,1.4,0,0,0-1.266.767c-.06.08-.08.119-.159.119-.12,0-.12-.09-.12-.1a3.589,3.589,0,0,1,.608-.9,1.266,1.266,0,0,1,1.036-.469h3.338c.19,0,.4,0,.4.24,0,.339-.359.339-.489.339h-1.135a7.694,7.694,0,0,0-.18,1.585,4.284,4.284,0,0,0,.289,1.643.433.433,0,0,1,.06.22.42.42,0,0,1-.409.378c-.149,0-.258-.06-.358-.5a3.131,3.131,0,0,1-.08-.757,10.944,10.944,0,0,1,.419-2.571h-1.126Z" transform="translate(-84.241 -287.49)"/>
    <line class="cls-1" x1="398.886" y1="41.746" x2="398.886" y2="48.833"/>
    <path class="cls-5" d="M454.781,332.779V304.433m0,0H369.742m0,0v28.346m85.039,0h28.346m-141.731,0h28.346" transform="translate(-84.241 -287.49)"/>
    <path class="cls-2" d="M496.489,336.39c-.907,0-1.2-1.1-1.2-2.042,0-2.282,1.535-5.092,2.92-5.092,1.016,0,1.195,1.385,1.195,2.042C499.408,333.531,497.894,336.39,496.489,336.39Zm-.219-3.407a7.625,7.625,0,0,0-.319,1.973c0,.926.209,1.215.538,1.215.428,0,.807-.488,1.156-1.166a8.934,8.934,0,0,0,.7-2.022Zm2.162-.319a8.275,8.275,0,0,0,.319-1.983c0-.568-.06-1.206-.548-1.206-.449,0-.817.559-1.087,1.047a8.982,8.982,0,0,0-.766,2.142Z" transform="translate(-84.241 -287.49)"/>
    <path class="cls-2" d="M416.564,364.486h5.082c.169,0,.349,0,.349.2s-.18.2-.349.2h-5.36c-.17,0-.359,0-.359-.2,0-.081.03-.11.12-.209l5.53-6.368c.1-.109.159-.139.219-.139a.2.2,0,0,1,.2.2c0,.04,0,.09-.109.209Z" transform="translate(-84.241 -287.49)"/>
    <path class="cls-2" d="M428.822,364.228a.988.988,0,0,0-.03.168c0,.18.279.18.647.18.19,0,.28,0,.28.11,0,.2-.12.2-.2.2-.209,0-.429-.02-.648-.02s-.429-.011-.638-.011c-.279,0-.987.031-1.265.031-.021,0-.14,0-.14-.11,0-.2.09-.2.239-.2.618,0,.807-.01.907-.329.04-.149.269-1.1.687-2.75h-3.039l-.677,2.731a.988.988,0,0,0-.03.168c0,.18.279.18.647.18.19,0,.28,0,.28.11,0,.2-.12.2-.2.2-.21,0-.429-.02-.648-.02s-.429-.011-.638-.011c-.279,0-.987.031-1.265.031-.021,0-.14,0-.14-.11,0-.2.09-.2.269-.2.787,0,.807-.08.907-.469l1.335-5.35a.864.864,0,0,0,.04-.19c0-.129-.09-.139-.27-.159s-.358-.019-.378-.019c-.189,0-.279,0-.279-.111,0-.2.11-.2.19-.2.289,0,1,.03,1.285.03s1-.03,1.275-.03c.03,0,.14,0,.14.11,0,.2-.08.2-.339.2-.718,0-.747.1-.837.458l-.588,2.341h3.039l.6-2.431a1.011,1.011,0,0,0,.04-.19c0-.129-.09-.139-.27-.159s-.358-.019-.378-.019c-.189,0-.279,0-.279-.111,0-.2.11-.2.19-.2.289,0,1,.03,1.285.03s1-.03,1.275-.03c.03,0,.14,0,.14.11,0,.2-.08.2-.339.2-.728,0-.747.1-.837.458Z" transform="translate(-84.241 -287.49)"/>
    <g>
      <path class="cls-2" d="M434.888,367.376a4.3,4.3,0,0,1-1.554-1.873,7.673,7.673,0,0,1-.03-6.149,4.335,4.335,0,0,1,1.584-1.942.089.089,0,0,1,.1.1c0,.029,0,.05-.129.169a6.52,6.52,0,0,0-1.6,4.713,6.6,6.6,0,0,0,1.564,4.663c.169.17.169.189.169.219A.089.089,0,0,1,434.888,367.376Z" transform="translate(-84.241 -287.49)"/>
      <path class="cls-2" d="M436.931,364.078a1.34,1.34,0,0,0,1.126.667,1.4,1.4,0,0,0,1.344-1.026c.02-.079.04-.14.13-.14a.116.116,0,0,1,.129.12,1.7,1.7,0,0,1-1.664,1.3,2.249,2.249,0,0,1-2.191-2.3,2.177,2.177,0,0,1,2.072-2.271,1.767,1.767,0,0,1,1.783,1.953c0,.209-.029.209-.249.209h-2.779A2.9,2.9,0,0,0,436.931,364.078Zm2.072-1.7c0-.389-.1-1.734-1.126-1.734-.339,0-1.176.25-1.235,1.734Z" transform="translate(-84.241 -287.49)"/>
    </g>
    <path class="cls-2" d="M442.063,361.773a1.434,1.434,0,0,1-1.365,1.545c-.568,0-1.126-.279-1.126-.8a.459.459,0,0,1,.917,0,.461.461,0,0,1-.349.449,1.214,1.214,0,0,0,.538.129c.637,0,.727-.857.727-1.305v-3.946c0-.489-.09-.558-.856-.558v-.31l1.514-.109Zm-.528-6.107a.529.529,0,1,1,.528-.528A.531.531,0,0,1,441.535,355.666Z" transform="translate(-84.241 -287.49)"/>
    <path class="cls-2" d="M444.489,361.353c-.641,0-.962-.683-.962-1.513,0-1.6,1.116-3.466,2.161-3.466.684,0,.963.781.963,1.514C446.651,359.449,445.55,361.353,444.489,361.353Zm-.237-2.364a5.394,5.394,0,0,0-.2,1.262c0,.377.063.906.446.906.308,0,.586-.327.8-.689a5.015,5.015,0,0,0,.564-1.479Zm1.674-.251a5.559,5.559,0,0,0,.2-1.262c0-.132,0-.907-.446-.907-.411,0-1.011.662-1.367,2.169Z" transform="translate(-84.241 -287.49)"/>
    <path class="cls-2" d="M449.785,365.433a4.341,4.341,0,0,1-1.584,1.943.094.094,0,0,1-.1-.1c0-.03,0-.049.128-.17a7.75,7.75,0,0,0,.06-9.366c-.188-.178-.188-.2-.188-.228a.093.093,0,0,1,.1-.1,4.3,4.3,0,0,1,1.554,1.873,7.671,7.671,0,0,1,.03,6.148Z" transform="translate(-84.241 -287.49)"/>
    <polyline points="330.167 74.425 327.9 69.89 325.632 74.425 327.9 73.291"/>
    <path class="cls-1" d="M412.141,360.781v60.378m-70.866-31.89v7.087" transform="translate(-84.241 -287.49)"/>
    <path class="cls-2" d="M335.545,400.155c-.169,0-.349,0-.349-.2s.18-.2.349-.2h5.391c.168,0,.348,0,.348.2s-.18.2-.348.2Z" transform="translate(-84.241 -287.49)"/>
    <path class="cls-2" d="M344.256,400.933c-.129.5-.129.518-.269.976-.119.369-.2.648-.5.648a.27.27,0,0,1-.289-.269c0-.07,0-.09.08-.239a21.147,21.147,0,0,0,1.276-3.319h-.569a1.4,1.4,0,0,0-1.265.768c-.06.08-.079.119-.159.119-.121,0-.121-.09-.121-.1a3.575,3.575,0,0,1,.609-.9,1.265,1.265,0,0,1,1.036-.469h3.338c.189,0,.4,0,.4.24,0,.338-.358.338-.488.338H346.2a7.778,7.778,0,0,0-.179,1.585,4.285,4.285,0,0,0,.289,1.644.433.433,0,0,1,.06.22.42.42,0,0,1-.409.378c-.149,0-.259-.06-.358-.5a3.094,3.094,0,0,1-.081-.757,10.958,10.958,0,0,1,.419-2.572h-1.126Z" transform="translate(-84.241 -287.49)"/>
    <polyline points="401.316 107.59 405.852 105.323 401.316 103.055 402.45 105.323"/>
    <line class="cls-1" x1="257.034" y1="105.323" x2="402.45" y2="105.323"/>
    <path class="cls-2" d="M482.131,400.558c-.129.5-.129.518-.269.976-.119.369-.2.648-.5.648a.27.27,0,0,1-.289-.269c0-.07,0-.09.08-.239a21.147,21.147,0,0,0,1.276-3.319h-.569a1.4,1.4,0,0,0-1.265.768c-.06.08-.079.119-.159.119-.121,0-.121-.09-.121-.1a3.575,3.575,0,0,1,.609-.9,1.265,1.265,0,0,1,1.036-.469H485.3c.189,0,.4,0,.4.24,0,.338-.358.338-.488.338h-1.136a7.778,7.778,0,0,0-.179,1.585,4.285,4.285,0,0,0,.289,1.644.433.433,0,0,1,.06.22.42.42,0,0,1-.409.378c-.149,0-.259-.06-.358-.5a3.094,3.094,0,0,1-.081-.757,10.958,10.958,0,0,1,.419-2.572h-1.126Z" transform="translate(-84.241 -287.49)"/>
    <line class="cls-1" x1="398.765" y1="101.779" x2="398.765" y2="108.866"/>
    <line class="cls-5" x1="257.034" y1="105.323" x2="398.765" y2="105.323"/>
    <path class="cls-2" d="M496.3,396.432c-.908,0-1.2-1.106-1.2-2.042,0-2.283,1.535-5.092,2.919-5.092,1.017,0,1.2,1.385,1.2,2.042C499.223,393.572,497.709,396.432,496.3,396.432Zm-.22-3.408a7.617,7.617,0,0,0-.318,1.973c0,.927.209,1.216.538,1.216.428,0,.806-.488,1.155-1.166a8.917,8.917,0,0,0,.7-2.023Zm2.163-.319a8.3,8.3,0,0,0,.318-1.982c0-.569-.059-1.206-.547-1.206-.449,0-.818.558-1.086,1.046a9.009,9.009,0,0,0-.768,2.142Z" transform="translate(-84.241 -287.49)"/>
    <g>
      <path class="cls-2" d="M87.476,300.115v.217A5.616,5.616,0,0,1,86,299.289a5.906,5.906,0,0,1-1.3-2,6.471,6.471,0,0,1-.457-2.4,6.323,6.323,0,0,1,.9-3.313,5.163,5.163,0,0,1,2.338-2.142v.246a3.37,3.37,0,0,0-1.184,1.09,5.025,5.025,0,0,0-.691,1.752,10.444,10.444,0,0,0-.229,2.215,12.414,12.414,0,0,0,.193,2.279,6.037,6.037,0,0,0,.37,1.3,4.114,4.114,0,0,0,.583.94A4.582,4.582,0,0,0,87.476,300.115Z" transform="translate(-84.241 -287.49)"/>
      <path class="cls-2" d="M91.161,296.992a8.867,8.867,0,0,1-1.037.738,1.581,1.581,0,0,1-.674.146,1.206,1.206,0,0,1-.917-.38,1.4,1.4,0,0,1-.36-1,1.268,1.268,0,0,1,.176-.68,2.315,2.315,0,0,1,.835-.75,12.985,12.985,0,0,1,1.977-.856V294a1.749,1.749,0,0,0-.255-1.1.921.921,0,0,0-.741-.3.837.837,0,0,0-.586.2.6.6,0,0,0-.223.457l.012.34a.582.582,0,0,1-.138.416.468.468,0,0,1-.36.147.454.454,0,0,1-.354-.153.6.6,0,0,1-.138-.416,1.2,1.2,0,0,1,.516-.925,2.22,2.22,0,0,1,1.447-.422,2.515,2.515,0,0,1,1.172.24,1.106,1.106,0,0,1,.509.568,3.181,3.181,0,0,1,.106,1.032V295.9a8.5,8.5,0,0,0,.029.94.4.4,0,0,0,.1.232.23.23,0,0,0,.155.058.312.312,0,0,0,.164-.041,3.639,3.639,0,0,0,.475-.427v.328q-.657.879-1.254.879a.57.57,0,0,1-.457-.2A1.075,1.075,0,0,1,91.161,296.992Zm0-.381v-2.045a11.25,11.25,0,0,0-1.142.5,1.983,1.983,0,0,0-.663.539,1.049,1.049,0,0,0-.2.615,1,1,0,0,0,.252.7.764.764,0,0,0,.58.279A2.129,2.129,0,0,0,91.161,296.611Z" transform="translate(-84.241 -287.49)"/>
      <path class="cls-2" d="M93.341,289.679v-.246a5.462,5.462,0,0,1,1.482,1.037,6,6,0,0,1,1.3,2.007,6.439,6.439,0,0,1,.457,2.4,6.351,6.351,0,0,1-.893,3.314,5.145,5.145,0,0,1-2.341,2.142v-.217a3.459,3.459,0,0,0,1.186-1.093,4.937,4.937,0,0,0,.692-1.752,10.688,10.688,0,0,0,.225-2.218,12.389,12.389,0,0,0-.193-2.279,5.72,5.72,0,0,0-.366-1.3,4.365,4.365,0,0,0-.583-.937A4.479,4.479,0,0,0,93.341,289.679Z" transform="translate(-84.241 -287.49)"/>
    </g>
  </g>
  <g>
    <path class="cls-5" d="M342.05,482.779s1.873-3.543,3.543-3.543,2.321,2.321,3.543,3.543,1.873,3.544,3.544,3.544,2.32-2.321,3.543-3.544a36.346,36.346,0,0,0,3.543-3.543c5.979-7.827,8.195-16.976,14.174-24.8,1.048-1.373,1.872-3.543,3.543-3.543s2.32,2.32,3.543,3.543,1.873,3.543,3.543,3.543,2.321-2.32,3.544-3.543,1.873-3.543,3.543-3.543,2.32,2.32,3.543,3.543,1.873,3.543,3.544,3.543,2.32-2.32,3.543-3.543,1.873-3.543,3.543-3.543,2.321,2.32,3.543,3.543,1.873,3.543,3.544,3.543,2.32-2.32,3.543-3.543,1.873-3.543,3.543-3.543,2.321,2.32,3.544,3.543,1.873,3.543,3.543,3.543,2.32-2.32,3.543-3.543,1.873-3.543,3.543-3.543,2.321,2.32,3.544,3.543,1.873,3.543,3.543,3.543,2.321-2.32,3.543-3.543,1.873-3.543,3.544-3.543,2.494,2.17,3.543,3.543c5.978,7.827,8.195,16.976,14.173,24.8a36.57,36.57,0,0,0,3.543,3.543c1.223,1.223,1.873,3.544,3.544,3.544s2.32-2.321,3.543-3.544,1.873-3.543,3.543-3.543,3.543,3.543,3.543,3.543h0" transform="translate(-84.241 -287.49)"/>
    <path class="cls-2" d="M416.474,514.486h5.082c.169,0,.348,0,.348.2s-.179.2-.348.2H416.2c-.17,0-.359,0-.359-.2,0-.081.03-.11.12-.209l5.53-6.368c.1-.109.16-.139.219-.139a.2.2,0,0,1,.2.2c0,.04,0,.09-.109.209Z" transform="translate(-84.241 -287.49)"/>
    <path class="cls-2" d="M428.731,514.228a.988.988,0,0,0-.03.168c0,.18.279.18.648.18.189,0,.279,0,.279.11,0,.2-.12.2-.2.2-.209,0-.429-.02-.648-.02s-.428-.011-.637-.011c-.28,0-.988.031-1.266.031-.021,0-.14,0-.14-.11,0-.2.09-.2.24-.2.617,0,.806-.01.906-.329.04-.149.269-1.1.687-2.75h-3.039l-.677,2.731a.988.988,0,0,0-.03.168c0,.18.279.18.648.18.189,0,.279,0,.279.11,0,.2-.12.2-.2.2-.21,0-.429-.02-.648-.02s-.428-.011-.637-.011c-.28,0-.988.031-1.266.031-.021,0-.14,0-.14-.11,0-.2.09-.2.269-.2.787,0,.807-.08.907-.469l1.335-5.35a.864.864,0,0,0,.04-.19c0-.129-.09-.139-.269-.159s-.359-.019-.378-.019c-.19,0-.28,0-.28-.111,0-.2.11-.2.19-.2.289,0,1,.03,1.285.03s1-.03,1.275-.03c.031,0,.14,0,.14.11,0,.2-.08.2-.339.2-.718,0-.747.1-.837.458l-.588,2.341h3.039l.6-2.431a1.011,1.011,0,0,0,.04-.19c0-.129-.09-.139-.269-.159s-.359-.019-.378-.019c-.19,0-.28,0-.28-.111,0-.2.11-.2.19-.2.289,0,1,.03,1.285.03s1-.03,1.275-.03c.031,0,.14,0,.14.11,0,.2-.08.2-.339.2-.727,0-.747.1-.837.458Z" transform="translate(-84.241 -287.49)"/>
    <g>
      <path class="cls-2" d="M434.8,517.376a4.3,4.3,0,0,1-1.554-1.873,7.673,7.673,0,0,1-.03-6.149,4.335,4.335,0,0,1,1.584-1.942.089.089,0,0,1,.1.1c0,.029,0,.05-.128.169a6.516,6.516,0,0,0-1.6,4.713,6.6,6.6,0,0,0,1.565,4.663c.168.17.168.189.168.219A.089.089,0,0,1,434.8,517.376Z" transform="translate(-84.241 -287.49)"/>
      <path class="cls-2" d="M436.84,514.078a1.34,1.34,0,0,0,1.126.667,1.4,1.4,0,0,0,1.345-1.026c.019-.079.04-.14.129-.14a.116.116,0,0,1,.129.12,1.7,1.7,0,0,1-1.664,1.3,2.249,2.249,0,0,1-2.191-2.3,2.177,2.177,0,0,1,2.072-2.271,1.767,1.767,0,0,1,1.783,1.953c0,.209-.029.209-.249.209h-2.779A2.9,2.9,0,0,0,436.84,514.078Zm2.072-1.7c0-.389-.1-1.734-1.126-1.734-.339,0-1.176.25-1.235,1.734Z" transform="translate(-84.241 -287.49)"/>
    </g>
    <path class="cls-2" d="M441.973,511.773a1.435,1.435,0,0,1-1.366,1.545c-.568,0-1.126-.279-1.126-.8a.459.459,0,0,1,.917,0,.461.461,0,0,1-.349.449,1.217,1.217,0,0,0,.538.129c.638,0,.727-.857.727-1.305v-3.946c0-.489-.089-.558-.856-.558v-.31l1.515-.109Zm-.529-6.107a.529.529,0,1,1,.529-.528A.531.531,0,0,1,441.444,505.666Z" transform="translate(-84.241 -287.49)"/>
    <path class="cls-2" d="M444.4,511.353c-.641,0-.961-.683-.961-1.513,0-1.6,1.115-3.466,2.161-3.466.683,0,.963.781.963,1.514C446.561,509.449,445.459,511.353,444.4,511.353Zm-.237-2.364a5.394,5.394,0,0,0-.2,1.262c0,.377.063.906.446.906.308,0,.586-.327.8-.689a5.015,5.015,0,0,0,.564-1.479Zm1.674-.251a5.559,5.559,0,0,0,.2-1.262c0-.132,0-.907-.446-.907-.411,0-1.011.662-1.366,2.169Z" transform="translate(-84.241 -287.49)"/>
    <path class="cls-2" d="M449.694,515.433a4.341,4.341,0,0,1-1.584,1.943.094.094,0,0,1-.1-.1c0-.03,0-.049.129-.17a7.752,7.752,0,0,0,.059-9.366c-.188-.178-.188-.2-.188-.228a.093.093,0,0,1,.1-.1,4.3,4.3,0,0,1,1.554,1.873,7.671,7.671,0,0,1,.03,6.148Z" transform="translate(-84.241 -287.49)"/>
    <polyline points="330.077 224.425 327.809 219.89 325.541 224.425 327.809 223.291"/>
    <path class="cls-1" d="M412.05,510.781v60.378m-70.865-31.89v7.087" transform="translate(-84.241 -287.49)"/>
    <path class="cls-2" d="M335.454,550.155c-.169,0-.349,0-.349-.2s.18-.2.349-.2h5.391c.169,0,.348,0,.348.2s-.179.2-.348.2Z" transform="translate(-84.241 -287.49)"/>
    <path class="cls-2" d="M344.165,550.933c-.129.5-.129.518-.269.976-.119.369-.2.648-.5.648a.271.271,0,0,1-.289-.269c0-.07,0-.09.08-.239a21.049,21.049,0,0,0,1.276-3.319H343.9a1.4,1.4,0,0,0-1.265.768c-.06.08-.079.119-.159.119-.12,0-.12-.09-.12-.1a3.558,3.558,0,0,1,.608-.9,1.265,1.265,0,0,1,1.036-.469h3.338c.189,0,.4,0,.4.24,0,.338-.358.338-.488.338h-1.136a7.778,7.778,0,0,0-.179,1.585,4.285,4.285,0,0,0,.289,1.644.433.433,0,0,1,.06.22.42.42,0,0,1-.409.378c-.149,0-.259-.06-.358-.5a3.131,3.131,0,0,1-.08-.757,10.958,10.958,0,0,1,.419-2.572h-1.126Z" transform="translate(-84.241 -287.49)"/>
    <polyline points="401.226 257.59 405.761 255.322 401.226 253.055 402.36 255.322"/>
    <line class="cls-1" x1="256.943" y1="255.322" x2="402.36" y2="255.322"/>
    <path class="cls-2" d="M482.04,550.558c-.129.5-.129.518-.269.976-.119.369-.2.648-.5.648a.271.271,0,0,1-.289-.269c0-.07,0-.09.08-.239a21.049,21.049,0,0,0,1.276-3.319h-.569a1.4,1.4,0,0,0-1.265.768c-.06.08-.079.119-.159.119-.12,0-.12-.09-.12-.1a3.558,3.558,0,0,1,.608-.9,1.265,1.265,0,0,1,1.036-.469h3.338c.189,0,.4,0,.4.24,0,.338-.358.338-.488.338h-1.136a7.778,7.778,0,0,0-.179,1.585,4.285,4.285,0,0,0,.289,1.644.433.433,0,0,1,.06.22.42.42,0,0,1-.409.378c-.149,0-.259-.06-.358-.5a3.131,3.131,0,0,1-.08-.757,10.958,10.958,0,0,1,.419-2.572H482.6Z" transform="translate(-84.241 -287.49)"/>
    <line class="cls-1" x1="398.675" y1="251.779" x2="398.675" y2="258.866"/>
    <line class="cls-5" x1="256.943" y1="255.322" x2="398.675" y2="255.322"/>
    <path class="cls-2" d="M496.3,546.465c-.908,0-1.2-1.106-1.2-2.042,0-2.282,1.535-5.092,2.919-5.092,1.017,0,1.2,1.385,1.2,2.042C499.223,543.605,497.709,546.465,496.3,546.465Zm-.22-3.407a7.605,7.605,0,0,0-.318,1.972c0,.927.209,1.216.538,1.216.428,0,.806-.488,1.155-1.166a8.911,8.911,0,0,0,.7-2.022Zm2.163-.32a8.3,8.3,0,0,0,.318-1.982c0-.568-.059-1.206-.547-1.206-.449,0-.818.558-1.086,1.047a9,9,0,0,0-.768,2.141Z" transform="translate(-84.241 -287.49)"/>
    <line class="cls-1" x1="257.809" y1="191.746" x2="257.809" y2="198.833"/>
    <path class="cls-2" d="M336.385,490.1c-.17,0-.349,0-.349-.2s.179-.2.349-.2h5.39c.169,0,.349,0,.349.2s-.18.2-.349.2Z" transform="translate(-84.241 -287.49)"/>
    <path class="cls-2" d="M345.088,490.876c-.129.5-.129.519-.269.977-.12.369-.2.647-.5.647a.27.27,0,0,1-.289-.269c0-.07,0-.089.079-.239a20.976,20.976,0,0,0,1.276-3.318h-.568a1.4,1.4,0,0,0-1.265.767c-.06.08-.08.12-.159.12-.121,0-.121-.09-.121-.1a3.575,3.575,0,0,1,.609-.9,1.266,1.266,0,0,1,1.036-.468h3.338c.189,0,.4,0,.4.239,0,.339-.358.339-.488.339h-1.136a7.762,7.762,0,0,0-.179,1.585,4.281,4.281,0,0,0,.289,1.643.441.441,0,0,1,.059.22.419.419,0,0,1-.408.378c-.149,0-.259-.06-.358-.5a3.127,3.127,0,0,1-.08-.757,10.925,10.925,0,0,1,.418-2.571h-1.126Z" transform="translate(-84.241 -287.49)"/>
    <path class="cls-2" d="M426.067,447.108a1.128,1.128,0,0,0-.029.169c0,.18.278.18.648.18.189,0,.279,0,.279.109,0,.2-.12.2-.2.2-.21,0-.429-.02-.649-.02s-.428-.011-.638-.011c-.278,0-.986.031-1.264.031-.021,0-.14,0-.14-.11,0-.2.09-.2.239-.2.618,0,.807-.01.907-.329.04-.149.269-1.1.687-2.75h-3.039l-.678,2.73a1.128,1.128,0,0,0-.029.169c0,.18.278.18.648.18.189,0,.279,0,.279.109,0,.2-.12.2-.2.2-.21,0-.429-.02-.649-.02s-.428-.011-.637-.011c-.279,0-.987.031-1.265.031-.021,0-.14,0-.14-.11,0-.2.09-.2.269-.2.787,0,.807-.08.907-.469l1.335-5.35a.934.934,0,0,0,.04-.19c0-.129-.09-.139-.27-.159a3.779,3.779,0,0,0-.378-.019c-.189,0-.279,0-.279-.111,0-.2.11-.2.19-.2.289,0,1,.03,1.285.03s1-.03,1.275-.03c.03,0,.14,0,.14.11,0,.2-.08.2-.339.2-.718,0-.747.1-.837.458l-.588,2.341h3.039l.6-2.431a1.111,1.111,0,0,0,.04-.19c0-.129-.09-.139-.27-.159a3.779,3.779,0,0,0-.378-.019c-.189,0-.279,0-.279-.111,0-.2.11-.2.19-.2.289,0,1,.03,1.285.03s1-.03,1.275-.03c.03,0,.14,0,.14.11,0,.2-.08.2-.339.2-.728,0-.747.1-.837.458Z" transform="translate(-84.241 -287.49)"/>
    <g>
      <path class="cls-2" d="M432.126,450.257a4.3,4.3,0,0,1-1.555-1.873,7.678,7.678,0,0,1-.029-6.149,4.335,4.335,0,0,1,1.584-1.942.089.089,0,0,1,.1.1c0,.029,0,.049-.13.169a6.515,6.515,0,0,0-1.6,4.712,6.6,6.6,0,0,0,1.565,4.664c.169.169.169.189.169.219A.09.09,0,0,1,432.126,450.257Z" transform="translate(-84.241 -287.49)"/>
      <path class="cls-2" d="M434.168,446.959a1.343,1.343,0,0,0,1.126.667,1.4,1.4,0,0,0,1.345-1.026c.02-.079.04-.14.13-.14a.116.116,0,0,1,.129.12,1.7,1.7,0,0,1-1.664,1.3,2.249,2.249,0,0,1-2.192-2.3,2.177,2.177,0,0,1,2.072-2.271,1.768,1.768,0,0,1,1.784,1.953c0,.209-.03.209-.25.209h-2.779A2.9,2.9,0,0,0,434.168,446.959Zm2.072-1.7c0-.389-.1-1.734-1.126-1.734-.339,0-1.176.25-1.235,1.734Z" transform="translate(-84.241 -287.49)"/>
    </g>
    <path class="cls-2" d="M439.3,444.654a1.433,1.433,0,0,1-1.364,1.545c-.569,0-1.126-.279-1.126-.8a.458.458,0,1,1,.916,0,.462.462,0,0,1-.349.45,1.223,1.223,0,0,0,.538.128c.638,0,.728-.856.728-1.3v-3.946c0-.489-.09-.558-.857-.558v-.31l1.514-.109Zm-.528-6.107a.529.529,0,1,1,.528-.528A.531.531,0,0,1,438.773,438.547Z" transform="translate(-84.241 -287.49)"/>
    <path class="cls-2" d="M441.61,444.233c-.641,0-.962-.682-.962-1.512,0-1.6,1.116-3.466,2.162-3.466.683,0,.962.781.962,1.514C443.772,442.33,442.67,444.233,441.61,444.233Zm-.237-2.363a5.394,5.394,0,0,0-.2,1.262c0,.377.062.906.446.906.307,0,.586-.327.8-.689a4.983,4.983,0,0,0,.565-1.479Zm1.674-.251a5.557,5.557,0,0,0,.2-1.263c0-.131,0-.906-.446-.906-.411,0-1.011.662-1.366,2.169Z" transform="translate(-84.241 -287.49)"/>
    <path class="cls-2" d="M447.023,448.313a4.332,4.332,0,0,1-1.585,1.944.094.094,0,0,1-.1-.1c0-.03,0-.05.13-.17a6.533,6.533,0,0,0,1.6-4.713,6.462,6.462,0,0,0-1.545-4.653c-.189-.179-.189-.2-.189-.228a.094.094,0,0,1,.1-.1,4.287,4.287,0,0,1,1.555,1.873,7.679,7.679,0,0,1,.03,6.147Z" transform="translate(-84.241 -287.49)"/>
    <path class="cls-2" d="M406.294,449.854c0,.368.03.478.927.478h.319v.309c-.349-.031-1.216-.031-1.614-.031s-1.266,0-1.614.031v-.309h.319c.9,0,.926-.12.926-.478v-5.162a2.984,2.984,0,0,1-1.305.259v-.308a2.461,2.461,0,0,0,1.813-.638c.229,0,.229.019.229.259Z" transform="translate(-84.241 -287.49)"/>
    <polyline points="330.942 157.305 328.674 152.77 326.407 157.305 328.674 156.172"/>
    <line class="cls-1" x1="328.674" y1="156.172" x2="328.674" y2="209.463"/>
    <polyline points="402.091 197.557 406.627 195.289 402.091 193.022 403.225 195.289"/>
    <line class="cls-1" x1="257.809" y1="195.289" x2="403.225" y2="195.289"/>
    <path class="cls-2" d="M452.745,492.75c-.907,0-1.2-1.105-1.2-2.042,0-2.282,1.535-5.092,2.92-5.092,1.016,0,1.195,1.385,1.195,2.042C455.664,489.891,454.149,492.75,452.745,492.75Zm-.22-3.407a7.65,7.65,0,0,0-.318,1.972c0,.927.209,1.216.538,1.216.428,0,.807-.488,1.155-1.166a8.911,8.911,0,0,0,.7-2.022Zm2.163-.32a8.262,8.262,0,0,0,.319-1.982c0-.568-.06-1.206-.548-1.206-.449,0-.817.559-1.087,1.047a9,9,0,0,0-.767,2.141Z" transform="translate(-84.241 -287.49)"/>
    <path class="cls-2" d="M458.258,491.206a1.279,1.279,0,0,0-.977.537,2.89,2.89,0,0,0-.46,1.444.69.69,0,0,0,.726.773,1.977,1.977,0,0,0,1.485-.641c.056-.056.07-.07.112-.07a.149.149,0,0,1,.118.119,1.89,1.89,0,0,1-1.73.787,1.2,1.2,0,0,1-1.29-1.213,2.091,2.091,0,0,1,2.016-1.931c.377,0,.921.133.921.606a.408.408,0,0,1-.4.446.25.25,0,0,1-.272-.257.4.4,0,0,1,.355-.391A.87.87,0,0,0,458.258,491.206Z" transform="translate(-84.241 -287.49)"/>
    <path class="cls-2" d="M363.385,490.349c-.17,0-.349,0-.349-.2s.179-.2.349-.2h5.39c.169,0,.349,0,.349.2s-.18.2-.349.2Z" transform="translate(-84.241 -287.49)"/>
    <path class="cls-2" d="M371.62,492.75c-.907,0-1.2-1.105-1.2-2.042,0-2.282,1.535-5.092,2.92-5.092,1.016,0,1.195,1.385,1.195,2.042C374.539,489.891,373.024,492.75,371.62,492.75Zm-.22-3.407a7.65,7.65,0,0,0-.318,1.972c0,.927.209,1.216.538,1.216.428,0,.807-.488,1.155-1.166a8.911,8.911,0,0,0,.7-2.022Zm2.163-.32a8.262,8.262,0,0,0,.319-1.982c0-.568-.06-1.206-.548-1.206-.449,0-.817.559-1.087,1.047a9,9,0,0,0-.767,2.141Z" transform="translate(-84.241 -287.49)"/>
    <path class="cls-2" d="M377.141,491.206a1.279,1.279,0,0,0-.977.537,2.89,2.89,0,0,0-.46,1.444.69.69,0,0,0,.726.773,1.977,1.977,0,0,0,1.485-.641c.056-.056.069-.07.111-.07a.149.149,0,0,1,.119.119,1.89,1.89,0,0,1-1.73.787,1.2,1.2,0,0,1-1.29-1.213,2.091,2.091,0,0,1,2.016-1.931c.377,0,.921.133.921.606a.408.408,0,0,1-.4.446.25.25,0,0,1-.272-.257.4.4,0,0,1,.355-.391A.87.87,0,0,0,377.141,491.206Z" transform="translate(-84.241 -287.49)"/>
    <path class="cls-2" d="M482.854,490.532c-.129.5-.129.519-.269.977-.12.369-.2.647-.5.647a.27.27,0,0,1-.289-.268c0-.071,0-.09.079-.24a20.881,20.881,0,0,0,1.275-3.318h-.567a1.405,1.405,0,0,0-1.266.768c-.059.08-.08.119-.159.119-.12,0-.12-.09-.12-.1a3.573,3.573,0,0,1,.608-.9,1.267,1.267,0,0,1,1.037-.469h3.337c.19,0,.4,0,.4.239,0,.339-.358.339-.488.339H484.8a7.779,7.779,0,0,0-.18,1.585,4.288,4.288,0,0,0,.289,1.644.43.43,0,0,1,.06.219.419.419,0,0,1-.408.378c-.15,0-.259-.059-.359-.5a3.127,3.127,0,0,1-.08-.757,10.952,10.952,0,0,1,.419-2.571h-1.126Z" transform="translate(-84.241 -287.49)"/>
    <line class="cls-1" x1="399.54" y1="191.746" x2="399.54" y2="198.833"/>
    <line class="cls-6" x1="371.194" y1="195.289" x2="371.194" y2="166.943"/>
    <line class="cls-7" x1="371.194" y1="166.943" x2="286.155" y2="166.943"/>
    <line class="cls-6" x1="286.155" y1="166.943" x2="286.155" y2="195.289"/>
    <line class="cls-8" x1="371.194" y1="195.289" x2="399.54" y2="195.289"/>
    <line class="cls-9" x1="257.809" y1="195.289" x2="286.155" y2="195.289"/>
    <path class="cls-2" d="M497.144,486.391c-.908,0-1.2-1.106-1.2-2.042,0-2.283,1.535-5.092,2.92-5.092,1.017,0,1.2,1.385,1.2,2.042C500.063,483.531,498.548,486.391,497.144,486.391Zm-.22-3.408a7.631,7.631,0,0,0-.319,1.973c0,.927.209,1.216.539,1.216.427,0,.806-.488,1.155-1.166a8.857,8.857,0,0,0,.7-2.023Zm2.162-.319a8.262,8.262,0,0,0,.319-1.982c0-.569-.059-1.206-.548-1.206-.449,0-.817.558-1.086,1.046a8.944,8.944,0,0,0-.767,2.142Z" transform="translate(-84.241 -287.49)"/>
    <polyline points="199.922 239.519 204.457 237.252 199.922 234.984 201.056 237.252"/>
    <line class="cls-1" x1="183.198" y1="237.252" x2="201.056" y2="237.252"/>
    <path class="cls-2" d="M297.878,524a3.22,3.22,0,0,0,.159-.837c0-.328-.109-.458-.308-.458-.36,0-.559.479-.728,1.186-.06.219-.07.229-.17.229-.019,0-.119,0-.119-.1a5.056,5.056,0,0,1,.3-.966.869.869,0,0,1,.747-.569.9.9,0,0,1,.917.867,1.924,1.924,0,0,1,1.554-.867,1.019,1.019,0,0,1,1.146,1.067,9.024,9.024,0,0,1-.607,2.192,1.893,1.893,0,0,0-.18.707c0,.23.069.329.239.329.488,0,.817-.557,1.016-1.235.051-.15.051-.18.15-.18.029,0,.119,0,.119.1,0,.08-.369,1.534-1.305,1.534a.8.8,0,0,1-.817-.816,1.133,1.133,0,0,1,.1-.459,9.507,9.507,0,0,0,.647-2.322c0-.329-.09-.7-.538-.7a1.982,1.982,0,0,0-1.624,1.216c-.01.04-.09.328-.13.5-.049.229-.109.448-.169.667l-.219.9c-.06.249-.179.717-.19.738a.405.405,0,0,1-.368.278.266.266,0,0,1-.289-.269c0-.049.06-.279.09-.428Z" transform="translate(-84.241 -287.49)"/>
    <path class="cls-2" d="M191.2,519.947a1.862,1.862,0,0,1-3.378.15,5.056,5.056,0,0,1-.448-2.4,5.321,5.321,0,0,1,.369-2.261,1.825,1.825,0,0,1,1.734-1.186,1.846,1.846,0,0,1,1.693,1.116,7.032,7.032,0,0,1,.03,4.583Zm-.568-.308a19.167,19.167,0,0,0,.01-4.006c-.189-.987-.847-1.166-1.176-1.166-.249,0-1,.09-1.185,1.275a13.323,13.323,0,0,0-.08,1.834,13.548,13.548,0,0,0,.11,2.1c.179.956.767,1.205,1.155,1.205C189.915,520.884,190.483,520.585,190.632,519.639Z" transform="translate(-84.241 -287.49)"/>
    <polyline points="111.056 185.095 108.789 180.559 106.521 185.095 108.789 183.961"/>
    <line class="cls-1" x1="108.789" y1="183.961" x2="108.789" y2="240.795"/>
    <path class="cls-3" d="M86.731,514.112s11.743-1.768,17.717-3.544c6.309-1.875,11.18-7.086,17.716-7.086s12.033,3.775,17.717,7.086c6.757,3.938,10.078,14.173,17.716,14.173s12.518-8.333,17.716-14.173c7.659-8.6,6.891-28.346,17.717-28.346s10.058,19.742,17.716,28.346c5.2,5.84,10.079,14.173,17.717,14.173s10.959-10.235,17.716-14.173c5.683-3.311,11.181-7.086,17.717-7.086s11.407,5.211,17.716,7.086c5.974,1.776,17.716,3.544,17.716,3.544h0" transform="translate(-84.241 -287.49)"/>
    <line class="cls-1" x1="2.49" y1="223.079" x2="215.087" y2="223.079"/>
    <line class="cls-4" x1="108.789" y1="223.079" x2="108.789" y2="194.732"/>
    <path class="cls-2" d="M193.078,483.967a1.933,1.933,0,1,1,1.933-1.934A1.944,1.944,0,0,1,193.078,483.967Z" transform="translate(-84.241 -287.49)"/>
    <path class="cls-2" d="M246.234,512.295a1.933,1.933,0,1,1,1.933-1.934A1.944,1.944,0,0,1,246.234,512.295Z" transform="translate(-84.241 -287.49)"/>
    <line class="cls-4" x1="119.418" y1="223.079" x2="119.418" y2="205.362"/>
    <path class="cls-2" d="M203.633,494.529a1.933,1.933,0,1,1,1.932-1.933A1.944,1.944,0,0,1,203.633,494.529Z" transform="translate(-84.241 -287.49)"/>
    <line class="cls-4" x1="130.048" y1="228.408" x2="130.048" y2="223.079"/>
    <path class="cls-2" d="M214.32,517.561a1.934,1.934,0,1,1,1.933-1.934A1.944,1.944,0,0,1,214.32,517.561Z" transform="translate(-84.241 -287.49)"/>
    <line class="cls-4" x1="140.678" y1="237.252" x2="140.678" y2="223.079"/>
    <path class="cls-2" d="M225,526.451a1.933,1.933,0,1,1,1.933-1.933A1.944,1.944,0,0,1,225,526.451Z" transform="translate(-84.241 -287.49)"/>
    <line class="cls-4" x1="151.308" y1="233.708" x2="151.308" y2="223.079"/>
    <path class="cls-2" d="M235.555,522.85a1.934,1.934,0,1,1,1.932-1.934A1.945,1.945,0,0,1,235.555,522.85Z" transform="translate(-84.241 -287.49)"/>
    <line class="cls-4" x1="98.159" y1="223.079" x2="98.159" y2="205.362"/>
    <path class="cls-2" d="M182.4,494.529a1.933,1.933,0,1,1,1.933-1.933A1.944,1.944,0,0,1,182.4,494.529Z" transform="translate(-84.241 -287.49)"/>
    <line class="cls-4" x1="87.529" y1="228.408" x2="87.529" y2="223.079"/>
    <path class="cls-2" d="M171.836,517.561a1.934,1.934,0,1,1,1.933-1.934A1.944,1.944,0,0,1,171.836,517.561Z" transform="translate(-84.241 -287.49)"/>
    <line class="cls-4" x1="76.899" y1="237.252" x2="76.899" y2="223.079"/>
    <path class="cls-2" d="M161.156,526.451a1.933,1.933,0,1,1,1.933-1.933A1.944,1.944,0,0,1,161.156,526.451Z" transform="translate(-84.241 -287.49)"/>
    <line class="cls-4" x1="66.269" y1="233.708" x2="66.269" y2="223.079"/>
    <path class="cls-2" d="M150.6,522.85a1.934,1.934,0,1,1,1.932-1.934A1.944,1.944,0,0,1,150.6,522.85Z" transform="translate(-84.241 -287.49)"/>
    <path class="cls-2" d="M139.922,512.295a1.933,1.933,0,1,1,1.932-1.934A1.944,1.944,0,0,1,139.922,512.295Z" transform="translate(-84.241 -287.49)"/>
    <path class="cls-2" d="M200.708,470.442a1.852,1.852,0,0,1,1.476-.767,1.013,1.013,0,0,1,1.145,1.066,8.925,8.925,0,0,1-.608,2.193,1.906,1.906,0,0,0-.179.707c0,.229.069.329.239.329.548,0,.866-.707,1.016-1.236.05-.149.05-.179.149-.179.031,0,.12,0,.12.1,0,.08-.369,1.534-1.305,1.534a.8.8,0,0,1-.817-.816,1.516,1.516,0,0,1,.129-.548,8.434,8.434,0,0,0,.618-2.232c0-.359-.109-.7-.538-.7a1.593,1.593,0,0,0-.957.348,2.935,2.935,0,0,0-.676.917c-.011.06-.09.389-.111.448-.05.23-.109.449-.169.667l-.219.9-.189.757a.416.416,0,0,1-.369.258.273.273,0,0,1-.289-.278.619.619,0,0,1,.04-.22l1.444-5.739.03-.2c0-.1-.019-.169-.5-.169-.149,0-.239,0-.239-.12,0-.179.11-.189.19-.2.258-.02.986-.1,1.215-.1.129,0,.129.1.129.11Z" transform="translate(-84.241 -287.49)"/>
    <path class="cls-2" d="M205.56,476.57v-9.964h1.365v.4h-.967v9.167h.967v.4Z" transform="translate(-84.241 -287.49)"/>
    <path class="cls-2" d="M208.6,471.189a3.208,3.208,0,0,0,.159-.836c0-.329-.11-.458-.309-.458-.359,0-.558.478-.727,1.185-.06.22-.071.23-.17.23-.02,0-.119,0-.119-.1a5.031,5.031,0,0,1,.3-.967.871.871,0,0,1,.748-.568.9.9,0,0,1,.917.867,1.924,1.924,0,0,1,1.554-.867,1.019,1.019,0,0,1,1.146,1.066,8.989,8.989,0,0,1-.608,2.193,1.887,1.887,0,0,0-.179.707c0,.229.069.329.239.329.488,0,.816-.558,1.016-1.236.05-.149.05-.179.15-.179.029,0,.119,0,.119.1,0,.08-.369,1.534-1.306,1.534a.8.8,0,0,1-.816-.816,1.139,1.139,0,0,1,.1-.459,9.5,9.5,0,0,0,.647-2.321c0-.329-.09-.7-.538-.7a1.982,1.982,0,0,0-1.624,1.215c-.01.04-.09.328-.13.5-.05.23-.109.449-.169.667l-.22.9c-.059.249-.178.717-.189.737a.405.405,0,0,1-.368.278.265.265,0,0,1-.289-.268c0-.05.059-.279.09-.429Z" transform="translate(-84.241 -287.49)"/>
    <path class="cls-2" d="M214.726,476.57H213.36v-.4h.967v-9.167h-.967v-.4h1.366Z" transform="translate(-84.241 -287.49)"/>
    <path class="cls-2" d="M129.234,512.295a1.933,1.933,0,1,1,1.933-1.934A1.944,1.944,0,0,1,129.234,512.295Z" transform="translate(-84.241 -287.49)"/>
    <path class="cls-2" d="M118.672,512.295a1.933,1.933,0,1,1,1.932-1.934A1.944,1.944,0,0,1,118.672,512.295Z" transform="translate(-84.241 -287.49)"/>
    <path class="cls-2" d="M107.992,512.295a1.933,1.933,0,1,1,1.933-1.934A1.944,1.944,0,0,1,107.992,512.295Z" transform="translate(-84.241 -287.49)"/>
    <path class="cls-2" d="M97.43,512.295a1.933,1.933,0,1,1,1.932-1.934A1.945,1.945,0,0,1,97.43,512.295Z" transform="translate(-84.241 -287.49)"/>
    <g>
      <path class="cls-2" d="M86.758,512.295a1.933,1.933,0,1,1,1.932-1.934A1.945,1.945,0,0,1,86.758,512.295Z" transform="translate(-84.241 -287.49)"/>
      <path class="cls-2" d="M256.8,512.295a1.933,1.933,0,1,1,1.932-1.934A1.945,1.945,0,0,1,256.8,512.295Z" transform="translate(-84.241 -287.49)"/>
    </g>
    <path class="cls-2" d="M278.148,512.295a1.933,1.933,0,1,1,1.933-1.934A1.944,1.944,0,0,1,278.148,512.295Z" transform="translate(-84.241 -287.49)"/>
    <g>
      <path class="cls-2" d="M267.477,512.295a1.933,1.933,0,1,1,1.932-1.934A1.944,1.944,0,0,1,267.477,512.295Z" transform="translate(-84.241 -287.49)"/>
      <path class="cls-2" d="M288.717,512.295a1.933,1.933,0,1,1,1.932-1.934A1.945,1.945,0,0,1,288.717,512.295Z" transform="translate(-84.241 -287.49)"/>
    </g>
    <path class="cls-2" d="M299.383,512.295a1.933,1.933,0,1,1,1.932-1.934A1.945,1.945,0,0,1,299.383,512.295Z" transform="translate(-84.241 -287.49)"/>
    <g>
      <path class="cls-2" d="M87.476,450.115v.217A5.593,5.593,0,0,1,86,449.289a5.886,5.886,0,0,1-1.3-2,6.462,6.462,0,0,1-.457-2.4,6.33,6.33,0,0,1,.9-3.315,5.153,5.153,0,0,1,2.338-2.14v.246a3.36,3.36,0,0,0-1.184,1.09,5.011,5.011,0,0,0-.691,1.751,10.458,10.458,0,0,0-.229,2.215,12.433,12.433,0,0,0,.193,2.28,6.043,6.043,0,0,0,.37,1.3,4.141,4.141,0,0,0,.583.941A4.551,4.551,0,0,0,87.476,450.115Z" transform="translate(-84.241 -287.49)"/>
      <path class="cls-2" d="M89.591,443.324a2.143,2.143,0,0,1,1.681-1.084,1.862,1.862,0,0,1,1.442.7,2.844,2.844,0,0,1,.615,1.932,2.98,2.98,0,0,1-.949,2.3,2.62,2.62,0,0,1-1.817.75,2.871,2.871,0,0,1-.952-.17,4.388,4.388,0,0,1-.987-.51v-5.561a8.086,8.086,0,0,0-.044-1.125.49.49,0,0,0-.138-.287.361.361,0,0,0-.234-.076,1.193,1.193,0,0,0-.41.094l-.082-.205,1.611-.656h.264Zm0,.375v3.211a2.265,2.265,0,0,0,.618.442,1.537,1.537,0,0,0,.653.15,1.28,1.28,0,0,0,.993-.586,2.715,2.715,0,0,0,.46-1.7,2.419,2.419,0,0,0-.46-1.586,1.339,1.339,0,0,0-1.045-.553,1.37,1.37,0,0,0-.622.158A2.735,2.735,0,0,0,89.591,443.7Z" transform="translate(-84.241 -287.49)"/>
      <path class="cls-2" d="M94.015,439.68v-.246a5.455,5.455,0,0,1,1.482,1.037,5.984,5.984,0,0,1,1.3,2.006,6.44,6.44,0,0,1,.457,2.4,6.335,6.335,0,0,1-.894,3.312,5.14,5.14,0,0,1-2.34,2.143v-.217a3.452,3.452,0,0,0,1.186-1.094,4.924,4.924,0,0,0,.692-1.751,10.686,10.686,0,0,0,.225-2.217,12.408,12.408,0,0,0-.193-2.28,5.71,5.71,0,0,0-.366-1.294,4.371,4.371,0,0,0-.583-.938A4.474,4.474,0,0,0,94.015,439.68Z" transform="translate(-84.241 -287.49)"/>
    </g>
  </g>
  <g>
    <path class="cls-5" d="M342.262,635.824s1.873-3.543,3.543-3.543,2.321,2.321,3.544,3.543,1.873,3.544,3.543,3.544,2.32-2.321,3.543-3.544a36.346,36.346,0,0,0,3.543-3.543c5.979-7.827,8.195-16.976,14.174-24.8,1.048-1.373,1.873-3.543,3.543-3.543s2.32,2.32,3.543,3.543,1.873,3.543,3.543,3.543,2.321-2.32,3.544-3.543,1.873-3.543,3.543-3.543,2.321,2.32,3.543,3.543,1.873,3.543,3.544,3.543,2.32-2.32,3.543-3.543,1.873-3.543,3.543-3.543,2.321,2.32,3.543,3.543,1.873,3.543,3.544,3.543,2.32-2.32,3.543-3.543,1.873-3.543,3.543-3.543,2.321,2.32,3.544,3.543,1.873,3.543,3.543,3.543,2.32-2.32,3.543-3.543,1.873-3.543,3.543-3.543,2.321,2.32,3.544,3.543,1.873,3.543,3.543,3.543,2.321-2.32,3.543-3.543,1.873-3.543,3.544-3.543,2.494,2.17,3.543,3.543c5.978,7.827,8.195,16.976,14.173,24.8a36.57,36.57,0,0,0,3.543,3.543c1.223,1.223,1.873,3.544,3.544,3.544s2.32-2.321,3.543-3.544,1.873-3.543,3.543-3.543,3.544,3.543,3.544,3.543h0" transform="translate(-84.241 -287.49)"/>
    <path class="cls-2" d="M416.793,668.23h5.082c.169,0,.349,0,.349.2s-.18.2-.349.2h-5.36c-.17,0-.36,0-.36-.2,0-.08.031-.11.12-.209l5.531-6.367c.1-.11.159-.14.218-.14a.2.2,0,0,1,.2.2c0,.04,0,.09-.11.209Z" transform="translate(-84.241 -287.49)"/>
    <path class="cls-2" d="M429.051,667.972a.894.894,0,0,0-.03.169c0,.179.279.179.647.179.189,0,.279,0,.279.11,0,.2-.12.2-.2.2-.209,0-.429-.02-.647-.02s-.429-.01-.638-.01c-.279,0-.987.03-1.266.03-.02,0-.139,0-.139-.109,0-.2.089-.2.239-.2.617,0,.807-.009.906-.329.04-.149.27-1.1.688-2.75h-3.039l-.677,2.731a.894.894,0,0,0-.03.169c0,.179.279.179.647.179.189,0,.279,0,.279.11,0,.2-.12.2-.2.2-.21,0-.429-.02-.647-.02s-.429-.01-.638-.01c-.279,0-.987.03-1.266.03-.02,0-.139,0-.139-.109,0-.2.089-.2.268-.2.787,0,.808-.08.907-.468l1.335-5.351a.8.8,0,0,0,.04-.189c0-.129-.089-.14-.269-.16s-.359-.019-.378-.019c-.189,0-.279,0-.279-.111,0-.2.109-.2.189-.2.289,0,1,.031,1.285.031s1-.031,1.276-.031c.03,0,.139,0,.139.111,0,.2-.08.2-.339.2-.717,0-.747.1-.836.458l-.588,2.342h3.039l.6-2.432a.924.924,0,0,0,.04-.189c0-.129-.089-.14-.269-.16s-.359-.019-.378-.019c-.19,0-.279,0-.279-.111,0-.2.109-.2.189-.2.289,0,1,.031,1.285.031s1-.031,1.276-.031c.03,0,.139,0,.139.111,0,.2-.08.2-.339.2-.727,0-.747.1-.836.458Z" transform="translate(-84.241 -287.49)"/>
    <g>
      <path class="cls-2" d="M435.116,671.12a4.3,4.3,0,0,1-1.553-1.873,7.665,7.665,0,0,1-.031-6.148,4.341,4.341,0,0,1,1.584-1.943.09.09,0,0,1,.1.1c0,.029,0,.05-.129.169a6.516,6.516,0,0,0-1.6,4.713,6.6,6.6,0,0,0,1.565,4.663c.169.17.169.189.169.22A.089.089,0,0,1,435.116,671.12Z" transform="translate(-84.241 -287.49)"/>
      <path class="cls-2" d="M437.159,667.822a1.341,1.341,0,0,0,1.126.667,1.4,1.4,0,0,0,1.345-1.026c.019-.079.04-.14.13-.14a.116.116,0,0,1,.129.12,1.7,1.7,0,0,1-1.664,1.3,2.249,2.249,0,0,1-2.192-2.3,2.177,2.177,0,0,1,2.072-2.272,1.768,1.768,0,0,1,1.784,1.953c0,.209-.03.209-.249.209h-2.78A2.9,2.9,0,0,0,437.159,667.822Zm2.072-1.7c0-.389-.1-1.734-1.126-1.734-.338,0-1.175.25-1.235,1.734Z" transform="translate(-84.241 -287.49)"/>
    </g>
    <path class="cls-2" d="M442.292,665.518a1.435,1.435,0,0,1-1.365,1.545c-.569,0-1.126-.28-1.126-.8a.459.459,0,0,1,.917,0,.461.461,0,0,1-.35.449,1.217,1.217,0,0,0,.538.129c.638,0,.728-.857.728-1.3v-3.946c0-.488-.09-.558-.857-.558v-.309l1.515-.11Zm-.528-6.108a.528.528,0,1,1,.528-.528A.532.532,0,0,1,441.764,659.41Z" transform="translate(-84.241 -287.49)"/>
    <path class="cls-2" d="M444.718,665.1c-.642,0-.962-.683-.962-1.513,0-1.6,1.115-3.466,2.161-3.466.684,0,.963.781.963,1.514C446.88,663.193,445.778,665.1,444.718,665.1Zm-.238-2.364a5.394,5.394,0,0,0-.2,1.262c0,.377.064.906.447.906.307,0,.586-.327.8-.689a5.039,5.039,0,0,0,.565-1.479Zm1.674-.251a5.5,5.5,0,0,0,.2-1.262c0-.132,0-.907-.446-.907-.411,0-1.011.663-1.366,2.169Z" transform="translate(-84.241 -287.49)"/>
    <path class="cls-2" d="M450.014,669.177a4.348,4.348,0,0,1-1.584,1.943.094.094,0,0,1-.1-.1c0-.031,0-.05.129-.17a7.756,7.756,0,0,0,.06-9.367c-.189-.178-.189-.2-.189-.228a.093.093,0,0,1,.1-.1,4.3,4.3,0,0,1,1.553,1.873,7.665,7.665,0,0,1,.031,6.148Z" transform="translate(-84.241 -287.49)"/>
    <polyline points="330.396 378.169 328.128 373.634 325.86 378.169 328.128 377.035"/>
    <path class="cls-1" d="M342.262,632.281v7.087" transform="translate(-84.241 -287.49)"/>
    <path class="cls-2" d="M336.6,643.144c-.17,0-.349,0-.349-.2s.179-.2.349-.2h5.39c.169,0,.349,0,.349.2s-.18.2-.349.2Z" transform="translate(-84.241 -287.49)"/>
    <path class="cls-2" d="M345.3,643.921c-.129.5-.129.518-.269.976-.12.37-.2.648-.5.648a.27.27,0,0,1-.289-.269c0-.07,0-.089.079-.239a20.976,20.976,0,0,0,1.276-3.318h-.568a1.4,1.4,0,0,0-1.265.767c-.06.08-.08.119-.16.119-.12,0-.12-.089-.12-.1a3.575,3.575,0,0,1,.609-.9,1.266,1.266,0,0,1,1.036-.468h3.338c.189,0,.4,0,.4.239,0,.339-.358.339-.488.339h-1.136a7.764,7.764,0,0,0-.18,1.585,4.271,4.271,0,0,0,.29,1.643.439.439,0,0,1,.059.22.419.419,0,0,1-.408.378c-.15,0-.259-.06-.358-.5a3.094,3.094,0,0,1-.081-.757,10.944,10.944,0,0,1,.419-2.571h-1.126Z" transform="translate(-84.241 -287.49)"/>
    <path class="cls-2" d="M426.279,600.153a1.128,1.128,0,0,0-.029.169c0,.18.278.18.647.18.19,0,.28,0,.28.109,0,.2-.12.2-.2.2-.21,0-.429-.02-.649-.02s-.428-.011-.638-.011c-.278,0-.986.031-1.264.031-.021,0-.14,0-.14-.11,0-.2.09-.2.239-.2.618,0,.807-.01.907-.329.04-.15.269-1.1.687-2.75h-3.039l-.678,2.73a1.128,1.128,0,0,0-.029.169c0,.18.278.18.647.18.19,0,.28,0,.28.109,0,.2-.12.2-.2.2-.21,0-.429-.02-.649-.02s-.428-.011-.638-.011c-.278,0-.986.031-1.264.031-.021,0-.14,0-.14-.11,0-.2.09-.2.269-.2.787,0,.807-.08.907-.469l1.335-5.35a.947.947,0,0,0,.04-.19c0-.129-.09-.139-.27-.159a3.606,3.606,0,0,0-.379-.02c-.188,0-.278,0-.278-.11,0-.2.11-.2.19-.2.289,0,1,.03,1.285.03s1-.03,1.275-.03c.029,0,.14,0,.14.11,0,.2-.08.2-.339.2-.718,0-.747.1-.837.458l-.588,2.342H426.2l.6-2.431a1.111,1.111,0,0,0,.04-.19c0-.129-.09-.139-.27-.159a3.606,3.606,0,0,0-.379-.02c-.188,0-.278,0-.278-.11,0-.2.11-.2.19-.2.289,0,1,.03,1.285.03s1-.03,1.275-.03c.029,0,.14,0,.14.11,0,.2-.08.2-.339.2-.728,0-.747.1-.837.458Z" transform="translate(-84.241 -287.49)"/>
    <g>
      <path class="cls-2" d="M432.338,603.3a4.3,4.3,0,0,1-1.555-1.873,7.678,7.678,0,0,1-.029-6.149,4.335,4.335,0,0,1,1.584-1.942.09.09,0,0,1,.1.1c0,.029,0,.049-.13.168a6.519,6.519,0,0,0-1.6,4.713,6.593,6.593,0,0,0,1.565,4.663c.169.17.169.19.169.22A.091.091,0,0,1,432.338,603.3Z" transform="translate(-84.241 -287.49)"/>
      <path class="cls-2" d="M434.38,600a1.343,1.343,0,0,0,1.126.667,1.4,1.4,0,0,0,1.345-1.026c.02-.08.04-.14.129-.14a.116.116,0,0,1,.13.12,1.7,1.7,0,0,1-1.664,1.295,2.249,2.249,0,0,1-2.192-2.3,2.177,2.177,0,0,1,2.072-2.271,1.767,1.767,0,0,1,1.784,1.953c0,.209-.03.209-.25.209h-2.779A2.9,2.9,0,0,0,434.38,600Zm2.072-1.7c0-.389-.1-1.735-1.126-1.735-.339,0-1.176.25-1.235,1.735Z" transform="translate(-84.241 -287.49)"/>
    </g>
    <path class="cls-2" d="M439.513,597.7a1.434,1.434,0,0,1-1.365,1.545c-.568,0-1.126-.279-1.126-.8a.458.458,0,1,1,.916,0,.462.462,0,0,1-.348.45,1.223,1.223,0,0,0,.538.128c.638,0,.727-.856.727-1.3v-3.947c0-.488-.089-.557-.856-.557v-.31l1.514-.109Zm-.528-6.107a.529.529,0,1,1,.528-.529A.532.532,0,0,1,438.985,591.592Z" transform="translate(-84.241 -287.49)"/>
    <path class="cls-2" d="M441.822,597.278c-.641,0-.962-.682-.962-1.512,0-1.6,1.116-3.466,2.161-3.466.684,0,.963.781.963,1.513C443.984,595.375,442.882,597.278,441.822,597.278Zm-.237-2.363a5.394,5.394,0,0,0-.2,1.262c0,.377.062.906.446.906.307,0,.586-.327.8-.689a4.983,4.983,0,0,0,.565-1.479Zm1.674-.251a5.557,5.557,0,0,0,.2-1.263c0-.131,0-.906-.446-.906-.411,0-1.011.662-1.367,2.169Z" transform="translate(-84.241 -287.49)"/>
    <path class="cls-2" d="M447.235,601.358a4.339,4.339,0,0,1-1.585,1.944.094.094,0,0,1-.1-.1c0-.03,0-.05.13-.17a6.535,6.535,0,0,0,1.6-4.713,6.462,6.462,0,0,0-1.545-4.653c-.189-.179-.189-.2-.189-.228a.094.094,0,0,1,.1-.1,4.294,4.294,0,0,1,1.555,1.873,7.679,7.679,0,0,1,.03,6.147Z" transform="translate(-84.241 -287.49)"/>
    <path class="cls-2" d="M406.506,602.9c0,.369.03.479.927.479h.319v.309c-.349-.031-1.216-.031-1.614-.031s-1.266,0-1.615.031v-.309h.32c.9,0,.926-.12.926-.479v-5.161a2.984,2.984,0,0,1-1.305.259v-.308a2.461,2.461,0,0,0,1.813-.638c.229,0,.229.019.229.259Z" transform="translate(-84.241 -287.49)"/>
    <polyline points="331.154 310.351 328.887 305.815 326.619 310.351 328.887 309.217"/>
    <line class="cls-1" x1="328.887" y1="309.217" x2="328.887" y2="362.508"/>
    <polyline points="402.303 350.602 406.839 348.335 402.303 346.067 403.437 348.335"/>
    <line class="cls-1" x1="258.021" y1="348.335" x2="403.437" y2="348.335"/>
    <path class="cls-2" d="M452.957,645.795c-.907,0-1.2-1.106-1.2-2.042,0-2.282,1.535-5.092,2.92-5.092,1.016,0,1.195,1.385,1.195,2.042C455.876,642.936,454.361,645.795,452.957,645.795Zm-.22-3.407a7.65,7.65,0,0,0-.318,1.972c0,.927.209,1.216.538,1.216.428,0,.807-.488,1.155-1.166a8.911,8.911,0,0,0,.7-2.022Zm2.162-.32a8.225,8.225,0,0,0,.32-1.982c0-.568-.06-1.206-.548-1.206-.449,0-.817.558-1.087,1.047a9,9,0,0,0-.767,2.141Z" transform="translate(-84.241 -287.49)"/>
    <path class="cls-2" d="M458.47,644.251a1.279,1.279,0,0,0-.977.537,2.889,2.889,0,0,0-.46,1.443.691.691,0,0,0,.726.774,1.977,1.977,0,0,0,1.485-.641c.056-.056.069-.07.111-.07a.149.149,0,0,1,.119.119,1.89,1.89,0,0,1-1.73.787,1.2,1.2,0,0,1-1.29-1.213,2.091,2.091,0,0,1,2.016-1.931c.377,0,.921.132.921.606a.408.408,0,0,1-.4.446.25.25,0,0,1-.272-.257.4.4,0,0,1,.355-.391A.87.87,0,0,0,458.47,644.251Z" transform="translate(-84.241 -287.49)"/>
    <path class="cls-2" d="M363.6,643.394c-.17,0-.349,0-.349-.2s.179-.2.349-.2h5.39c.169,0,.349,0,.349.2s-.18.2-.349.2Z" transform="translate(-84.241 -287.49)"/>
    <path class="cls-2" d="M371.832,645.795c-.907,0-1.2-1.106-1.2-2.042,0-2.282,1.535-5.092,2.92-5.092,1.016,0,1.195,1.385,1.195,2.042C374.751,642.936,373.236,645.795,371.832,645.795Zm-.22-3.407a7.65,7.65,0,0,0-.318,1.972c0,.927.209,1.216.538,1.216.428,0,.807-.488,1.155-1.166a8.911,8.911,0,0,0,.7-2.022Zm2.162-.32a8.225,8.225,0,0,0,.32-1.982c0-.568-.06-1.206-.548-1.206-.449,0-.817.558-1.087,1.047a9,9,0,0,0-.767,2.141Z" transform="translate(-84.241 -287.49)"/>
    <path class="cls-2" d="M377.353,644.251a1.279,1.279,0,0,0-.977.537,2.889,2.889,0,0,0-.46,1.443.691.691,0,0,0,.726.774,1.977,1.977,0,0,0,1.485-.641c.056-.056.069-.07.111-.07a.148.148,0,0,1,.118.119,1.887,1.887,0,0,1-1.729.787,1.2,1.2,0,0,1-1.29-1.213,2.091,2.091,0,0,1,2.016-1.931c.376,0,.92.132.92.606a.407.407,0,0,1-.4.446.25.25,0,0,1-.272-.257.4.4,0,0,1,.355-.391A.87.87,0,0,0,377.353,644.251Z" transform="translate(-84.241 -287.49)"/>
    <path class="cls-2" d="M483.065,643.577c-.128.5-.128.519-.268.977-.12.369-.2.647-.5.647a.27.27,0,0,1-.289-.268c0-.071,0-.09.079-.24a20.881,20.881,0,0,0,1.275-3.318H482.8a1.405,1.405,0,0,0-1.266.768c-.059.08-.08.119-.159.119-.12,0-.12-.09-.12-.1a3.573,3.573,0,0,1,.608-.9,1.266,1.266,0,0,1,1.036-.469h3.338c.19,0,.4,0,.4.239,0,.339-.359.339-.488.339h-1.136a7.71,7.71,0,0,0-.18,1.585,4.288,4.288,0,0,0,.289,1.644.43.43,0,0,1,.06.219.419.419,0,0,1-.408.378c-.15,0-.259-.059-.359-.5a3.127,3.127,0,0,1-.08-.757,10.952,10.952,0,0,1,.419-2.571h-1.126Z" transform="translate(-84.241 -287.49)"/>
    <line class="cls-1" x1="399.752" y1="344.791" x2="399.752" y2="351.878"/>
    <line class="cls-6" x1="371.406" y1="348.335" x2="371.406" y2="319.988"/>
    <line class="cls-7" x1="371.406" y1="319.988" x2="286.367" y2="319.988"/>
    <line class="cls-6" x1="286.367" y1="319.988" x2="286.367" y2="348.335"/>
    <line class="cls-8" x1="371.406" y1="348.335" x2="399.752" y2="348.335"/>
    <line class="cls-9" x1="258.021" y1="348.335" x2="286.367" y2="348.335"/>
    <path class="cls-2" d="M497.355,639.436c-.907,0-1.2-1.106-1.2-2.042,0-2.283,1.535-5.092,2.92-5.092,1.017,0,1.195,1.385,1.195,2.042C500.274,636.576,498.76,639.436,497.355,639.436Zm-.219-3.408a7.631,7.631,0,0,0-.319,1.973c0,.927.209,1.216.538,1.216.428,0,.807-.488,1.156-1.166a8.857,8.857,0,0,0,.7-2.023Zm2.162-.319a8.262,8.262,0,0,0,.319-1.982c0-.569-.059-1.206-.548-1.206-.449,0-.817.558-1.087,1.046a8.982,8.982,0,0,0-.766,2.142Z" transform="translate(-84.241 -287.49)"/>
    <polyline points="199.922 392.623 204.457 390.355 199.922 388.088 201.056 390.355"/>
    <line class="cls-1" x1="183.198" y1="390.355" x2="201.056" y2="390.355"/>
    <path class="cls-2" d="M297.878,677.105a3.208,3.208,0,0,0,.159-.836c0-.329-.109-.458-.308-.458-.36,0-.559.478-.728,1.185-.06.22-.07.23-.17.23-.019,0-.119,0-.119-.1a5.058,5.058,0,0,1,.3-.967.868.868,0,0,1,.747-.568.9.9,0,0,1,.917.867,1.924,1.924,0,0,1,1.554-.867,1.019,1.019,0,0,1,1.146,1.066,9.032,9.032,0,0,1-.607,2.193,1.888,1.888,0,0,0-.18.707c0,.229.069.329.239.329.488,0,.817-.558,1.016-1.236.051-.149.051-.179.15-.179.029,0,.119,0,.119.1,0,.08-.369,1.534-1.305,1.534a.8.8,0,0,1-.817-.816,1.139,1.139,0,0,1,.1-.459,9.5,9.5,0,0,0,.647-2.321c0-.329-.09-.7-.538-.7a1.983,1.983,0,0,0-1.624,1.215c-.01.04-.09.328-.13.5-.049.23-.109.449-.169.667l-.219.9c-.06.249-.179.717-.19.737a.405.405,0,0,1-.368.278.266.266,0,0,1-.289-.268c0-.05.06-.279.09-.429Z" transform="translate(-84.241 -287.49)"/>
    <path class="cls-2" d="M191.2,673.051a1.863,1.863,0,0,1-3.378.149,5.052,5.052,0,0,1-.448-2.4,5.328,5.328,0,0,1,.369-2.262,1.824,1.824,0,0,1,1.734-1.185,1.846,1.846,0,0,1,1.693,1.116,7.032,7.032,0,0,1,.03,4.583Zm-.568-.309a19.168,19.168,0,0,0,.01-4.006c-.189-.986-.847-1.166-1.176-1.166-.249,0-1,.09-1.185,1.276a13.323,13.323,0,0,0-.08,1.834,13.528,13.528,0,0,0,.11,2.1c.179.956.767,1.2,1.155,1.2C189.915,673.987,190.483,673.688,190.632,672.742Z" transform="translate(-84.241 -287.49)"/>
    <polyline points="111.056 338.198 108.789 333.663 106.521 338.198 108.789 337.064"/>
    <line class="cls-1" x1="108.789" y1="337.064" x2="108.789" y2="393.899"/>
    <path class="cls-2" d="M200.708,623.546a1.853,1.853,0,0,1,1.476-.768,1.013,1.013,0,0,1,1.145,1.067,8.917,8.917,0,0,1-.608,2.192,1.911,1.911,0,0,0-.179.707c0,.23.069.329.239.329.548,0,.866-.707,1.016-1.235.05-.15.05-.18.149-.18.031,0,.12,0,.12.1,0,.08-.369,1.534-1.305,1.534a.8.8,0,0,1-.817-.816,1.507,1.507,0,0,1,.129-.548,8.45,8.45,0,0,0,.618-2.233c0-.358-.109-.7-.538-.7a1.593,1.593,0,0,0-.957.349,2.924,2.924,0,0,0-.676.917c-.011.059-.09.388-.111.448-.05.229-.109.448-.169.667l-.219.9-.189.757a.415.415,0,0,1-.369.259.274.274,0,0,1-.289-.278.616.616,0,0,1,.04-.22l1.444-5.739.03-.2c0-.1-.019-.168-.5-.168-.149,0-.239,0-.239-.121,0-.178.11-.188.19-.2.258-.019.986-.1,1.215-.1.129,0,.129.1.129.11Z" transform="translate(-84.241 -287.49)"/>
    <path class="cls-2" d="M205.56,629.674V619.71h1.365v.4h-.967v9.167h.967v.4Z" transform="translate(-84.241 -287.49)"/>
    <path class="cls-2" d="M208.6,624.293a3.22,3.22,0,0,0,.159-.837c0-.328-.11-.458-.309-.458-.359,0-.558.479-.727,1.186-.06.219-.071.229-.17.229-.02,0-.119,0-.119-.1a5.028,5.028,0,0,1,.3-.966.872.872,0,0,1,.748-.569.9.9,0,0,1,.917.868,1.922,1.922,0,0,1,1.554-.868,1.019,1.019,0,0,1,1.146,1.067,8.982,8.982,0,0,1-.608,2.192,1.892,1.892,0,0,0-.179.707c0,.23.069.329.239.329.488,0,.816-.557,1.016-1.235.05-.15.05-.18.15-.18.029,0,.119,0,.119.1,0,.08-.369,1.534-1.306,1.534a.8.8,0,0,1-.816-.816,1.133,1.133,0,0,1,.1-.459,9.507,9.507,0,0,0,.647-2.322c0-.329-.09-.7-.538-.7a1.981,1.981,0,0,0-1.624,1.216c-.01.04-.09.328-.13.5-.05.229-.109.448-.169.667l-.22.9c-.059.249-.178.717-.189.738a.405.405,0,0,1-.368.278.266.266,0,0,1-.289-.269c0-.049.059-.279.09-.428Z" transform="translate(-84.241 -287.49)"/>
    <path class="cls-2" d="M214.726,629.674H213.36v-.4h.967v-9.167h-.967v-.4h1.366Z" transform="translate(-84.241 -287.49)"/>
    <g>
      <path class="cls-2" d="M288.719,665.4a1.933,1.933,0,1,1,1.932-1.933A1.944,1.944,0,0,1,288.719,665.4Z" transform="translate(-84.241 -287.49)"/>
      <path class="cls-2" d="M299.4,665.4a1.933,1.933,0,1,1,1.933-1.933A1.944,1.944,0,0,1,299.4,665.4Z" transform="translate(-84.241 -287.49)"/>
    </g>
    <line class="cls-4" x1="151.308" y1="376.182" x2="151.308" y2="347.836"/>
    <path class="cls-2" d="M235.555,637.07a1.933,1.933,0,1,1,1.932-1.933A1.944,1.944,0,0,1,235.555,637.07Z" transform="translate(-84.241 -287.49)"/>
    <path class="cls-2" d="M288.719,665.4a1.933,1.933,0,1,1,1.932-1.933A1.944,1.944,0,0,1,288.719,665.4Z" transform="translate(-84.241 -287.49)"/>
    <line class="cls-4" x1="161.938" y1="376.182" x2="161.938" y2="358.466"/>
    <path class="cls-2" d="M246.234,647.633a1.933,1.933,0,1,1,1.933-1.934A1.944,1.944,0,0,1,246.234,647.633Z" transform="translate(-84.241 -287.49)"/>
    <line class="cls-4" x1="172.568" y1="381.511" x2="172.568" y2="376.182"/>
    <path class="cls-2" d="M256.8,670.664a1.933,1.933,0,1,1,1.932-1.934A1.944,1.944,0,0,1,256.8,670.664Z" transform="translate(-84.241 -287.49)"/>
    <line class="cls-4" x1="183.198" y1="390.355" x2="183.198" y2="376.182"/>
    <path class="cls-2" d="M267.477,679.555a1.934,1.934,0,1,1,1.932-1.934A1.944,1.944,0,0,1,267.477,679.555Z" transform="translate(-84.241 -287.49)"/>
    <line class="cls-4" x1="193.828" y1="386.812" x2="193.828" y2="376.182"/>
    <path class="cls-2" d="M278.156,675.953a1.933,1.933,0,1,1,1.933-1.933A1.944,1.944,0,0,1,278.156,675.953Z" transform="translate(-84.241 -287.49)"/>
    <line class="cls-4" x1="140.678" y1="376.182" x2="140.678" y2="358.466"/>
    <path class="cls-2" d="M225,647.633a1.933,1.933,0,1,1,1.933-1.934A1.944,1.944,0,0,1,225,647.633Z" transform="translate(-84.241 -287.49)"/>
    <line class="cls-4" x1="130.048" y1="381.511" x2="130.048" y2="376.182"/>
    <path class="cls-2" d="M214.32,670.664a1.933,1.933,0,1,1,1.933-1.934A1.944,1.944,0,0,1,214.32,670.664Z" transform="translate(-84.241 -287.49)"/>
    <line class="cls-4" x1="119.419" y1="390.355" x2="119.419" y2="376.182"/>
    <path class="cls-2" d="M203.633,679.555a1.934,1.934,0,1,1,1.932-1.934A1.945,1.945,0,0,1,203.633,679.555Z" transform="translate(-84.241 -287.49)"/>
    <line class="cls-4" x1="108.789" y1="386.812" x2="108.789" y2="376.182"/>
    <path class="cls-2" d="M193.078,675.953a1.933,1.933,0,1,1,1.933-1.933A1.944,1.944,0,0,1,193.078,675.953Z" transform="translate(-84.241 -287.49)"/>
    <g>
      <path class="cls-2" d="M299.4,665.4a1.933,1.933,0,1,1,1.933-1.933A1.944,1.944,0,0,1,299.4,665.4Z" transform="translate(-84.241 -287.49)"/>
      <path class="cls-2" d="M320.639,665.4a1.933,1.933,0,1,1,1.932-1.933A1.944,1.944,0,0,1,320.639,665.4Z" transform="translate(-84.241 -287.49)"/>
    </g>
    <path class="cls-2" d="M309.953,665.4a1.933,1.933,0,1,1,1.933-1.933A1.944,1.944,0,0,1,309.953,665.4Z" transform="translate(-84.241 -287.49)"/>
    <line class="cls-1" x1="2.49" y1="376.182" x2="215.087" y2="376.182"/>
    <path class="cls-2" d="M182.4,665.4a1.933,1.933,0,1,1,1.933-1.933A1.944,1.944,0,0,1,182.4,665.4Z" transform="translate(-84.241 -287.49)"/>
    <path class="cls-2" d="M171.836,665.4a1.933,1.933,0,1,1,1.933-1.933A1.944,1.944,0,0,1,171.836,665.4Z" transform="translate(-84.241 -287.49)"/>
    <path class="cls-2" d="M161.156,665.4a1.933,1.933,0,1,1,1.933-1.933A1.944,1.944,0,0,1,161.156,665.4Z" transform="translate(-84.241 -287.49)"/>
    <path class="cls-2" d="M150.594,665.4a1.933,1.933,0,1,1,1.932-1.933A1.944,1.944,0,0,1,150.594,665.4Z" transform="translate(-84.241 -287.49)"/>
    <path class="cls-2" d="M139.914,665.4a1.933,1.933,0,1,1,1.933-1.933A1.944,1.944,0,0,1,139.914,665.4Z" transform="translate(-84.241 -287.49)"/>
    <path class="cls-2" d="M129.227,665.4a1.933,1.933,0,1,1,1.932-1.933A1.944,1.944,0,0,1,129.227,665.4Z" transform="translate(-84.241 -287.49)"/>
    <line class="cls-1" x1="257.262" y1="405.523" x2="257.262" y2="412.61"/>
    <path class="cls-2" d="M335.773,703.9c-.169,0-.348,0-.348-.2s.179-.2.348-.2h5.391c.169,0,.349,0,.349.2s-.18.2-.349.2Z" transform="translate(-84.241 -287.49)"/>
    <path class="cls-2" d="M344.484,704.677c-.129.5-.129.518-.268.976-.119.369-.2.648-.5.648a.27.27,0,0,1-.289-.269c0-.07,0-.09.08-.239a21.075,21.075,0,0,0,1.275-3.318h-.568a1.4,1.4,0,0,0-1.266.767c-.059.08-.079.119-.159.119-.12,0-.12-.09-.12-.1a3.589,3.589,0,0,1,.608-.9,1.267,1.267,0,0,1,1.036-.469h3.338c.19,0,.4,0,.4.24,0,.339-.359.339-.489.339h-1.135a7.694,7.694,0,0,0-.18,1.585,4.284,4.284,0,0,0,.289,1.643.427.427,0,0,1,.061.22.421.421,0,0,1-.41.378c-.149,0-.258-.06-.358-.5a3.131,3.131,0,0,1-.08-.757,10.944,10.944,0,0,1,.419-2.571h-1.126Z" transform="translate(-84.241 -287.49)"/>
    <polyline points="401.545 411.334 406.081 409.067 401.545 406.799 402.679 409.067"/>
    <line class="cls-1" x1="257.262" y1="409.067" x2="402.679" y2="409.067"/>
    <path class="cls-2" d="M482.359,704.3c-.129.5-.129.518-.268.976-.119.369-.2.648-.5.648a.27.27,0,0,1-.289-.269c0-.07,0-.09.08-.239a21.075,21.075,0,0,0,1.275-3.318h-.568a1.4,1.4,0,0,0-1.266.767c-.059.08-.079.119-.159.119-.12,0-.12-.09-.12-.1a3.589,3.589,0,0,1,.608-.9,1.267,1.267,0,0,1,1.036-.469h3.338c.19,0,.4,0,.4.24,0,.339-.359.339-.489.339H484.3a7.694,7.694,0,0,0-.18,1.585,4.284,4.284,0,0,0,.289,1.643.427.427,0,0,1,.061.22.421.421,0,0,1-.41.378c-.149,0-.258-.06-.358-.5a3.131,3.131,0,0,1-.08-.757,10.944,10.944,0,0,1,.419-2.571h-1.126Z" transform="translate(-84.241 -287.49)"/>
    <line class="cls-1" x1="398.994" y1="405.523" x2="398.994" y2="412.61"/>
    <line class="cls-5" x1="257.262" y1="380.72" x2="398.994" y2="437.413"/>
    <path class="cls-2" d="M496.532,700.176c-.907,0-1.195-1.106-1.195-2.042,0-2.282,1.534-5.092,2.919-5.092,1.016,0,1.2,1.385,1.2,2.042C499.451,697.316,497.938,700.176,496.532,700.176Zm-.219-3.407a7.619,7.619,0,0,0-.319,1.972c0,.927.209,1.216.538,1.216.429,0,.807-.488,1.156-1.166a9.012,9.012,0,0,0,.7-2.022Zm2.163-.32a8.3,8.3,0,0,0,.318-1.982c0-.569-.06-1.206-.548-1.206-.448,0-.817.558-1.086,1.047a9.041,9.041,0,0,0-.767,2.141Z" transform="translate(-84.241 -287.49)"/>
    <line class="cls-1" x1="328.128" y1="376.878" x2="328.128" y2="437.255"/>
    <g>
      <path class="cls-2" d="M87.476,603.858v.217A5.593,5.593,0,0,1,86,603.032a5.886,5.886,0,0,1-1.3-2,6.462,6.462,0,0,1-.457-2.4,6.326,6.326,0,0,1,.9-3.314,5.155,5.155,0,0,1,2.338-2.141v.246a3.36,3.36,0,0,0-1.184,1.09,5.025,5.025,0,0,0-.691,1.752,10.442,10.442,0,0,0-.229,2.214,12.433,12.433,0,0,0,.193,2.28,6.054,6.054,0,0,0,.37,1.3,4.136,4.136,0,0,0,.583.94A4.551,4.551,0,0,0,87.476,603.858Z" transform="translate(-84.241 -287.49)"/>
      <path class="cls-2" d="M92.679,599.47a2.911,2.911,0,0,1-.85,1.632,2.047,2.047,0,0,1-1.4.571,2.068,2.068,0,0,1-1.594-.768,3.015,3.015,0,0,1-.68-2.074,2.862,2.862,0,0,1,.753-2.057,2.41,2.41,0,0,1,1.808-.791,1.984,1.984,0,0,1,1.3.419,1.162,1.162,0,0,1,.509.87.476.476,0,0,1-.143.361.557.557,0,0,1-.4.138.625.625,0,0,1-.521-.223.934.934,0,0,1-.132-.469.765.765,0,0,0-.237-.527.848.848,0,0,0-.569-.176,1.163,1.163,0,0,0-.943.434,2.3,2.3,0,0,0-.475,1.517,3.074,3.074,0,0,0,.472,1.7,1.448,1.448,0,0,0,1.275.736,1.541,1.541,0,0,0,1.031-.393,2.643,2.643,0,0,0,.627-.978Z" transform="translate(-84.241 -287.49)"/>
      <path class="cls-2" d="M93.341,593.423v-.246a5.44,5.44,0,0,1,1.482,1.037,5.988,5.988,0,0,1,1.3,2.007,6.435,6.435,0,0,1,.457,2.4,6.351,6.351,0,0,1-.893,3.314,5.137,5.137,0,0,1-2.341,2.141v-.217a3.446,3.446,0,0,0,1.186-1.092,4.937,4.937,0,0,0,.692-1.752,10.7,10.7,0,0,0,.225-2.218,12.389,12.389,0,0,0-.193-2.279,5.72,5.72,0,0,0-.366-1.3,4.371,4.371,0,0,0-.583-.938A4.451,4.451,0,0,0,93.341,593.423Z" transform="translate(-84.241 -287.49)"/>
    </g>
  </g>
</svg>
