<?xml version="1.0" encoding="utf-8"?>
<!-- Generator: Adobe Illustrator 22.1.0, SVG Export Plug-In . SVG Version: 6.00 Build 0)  -->
<svg version="1.1" id="Layer_1" xmlns="http://www.w3.org/2000/svg" xmlns:xlink="http://www.w3.org/1999/xlink" x="0px" y="0px"
	 viewBox="0 0 406.2 241.2" style="enable-background:new 0 0 406.2 241.2;" xml:space="preserve">
<style type="text/css">
	.st0{fill:none;stroke:#000000;stroke-width:1.4173;stroke-linecap:round;stroke-miterlimit:10;stroke-dasharray:0,4.3142;}
	.st1{fill:none;stroke:#000000;stroke-width:0.8504;stroke-miterlimit:10;}
	.st2{fill:#1D1D1B;}
	.st3{fill:none;stroke:#000000;stroke-width:1.4173;stroke-miterlimit:10;}
	.st4{fill:none;stroke:#0000FF;stroke-width:0.8504;stroke-miterlimit:10;}
	.st5{fill:none;stroke:#FA0000;stroke-width:1.4173;stroke-miterlimit:10;}
	.st6{fill:none;stroke:#000000;stroke-width:1.4173;stroke-linecap:round;stroke-miterlimit:10;stroke-dasharray:0,4.2519;}
	.st7{fill:none;stroke:#000000;stroke-width:1.4173;stroke-linecap:round;stroke-miterlimit:10;stroke-dasharray:0,3.2529;}
	.st8{fill:none;stroke:#FC0000;stroke-width:1.4173;stroke-miterlimit:10;stroke-dasharray:2.7256,2.7256;}
	.st9{fill:none;stroke:#FC0000;stroke-width:1.4173;stroke-miterlimit:10;stroke-dasharray:2.8346,2.8346;}
	.st10{fill:none;stroke:#FC0000;stroke-width:1.4173;stroke-miterlimit:10;stroke-dasharray:2.7559,2.7559;}
	.st11{fill:#FF0000;}
	.st12{fill:none;stroke:#000000;stroke-width:0.8504;stroke-linecap:round;stroke-miterlimit:10;stroke-dasharray:0,4.0325;}
	.st13{fill:none;stroke:#FF0000;stroke-width:0.8504;stroke-miterlimit:10;}
	.st14{fill:none;stroke:#000000;stroke-width:0.2835;stroke-miterlimit:10;}
	.st15{fill:none;stroke:#0000FA;stroke-width:1.4173;stroke-miterlimit:10;}
</style>
<g>
	<path class="st0" d="M315.4,36.9c0,0,10.1-14.1,17.7-14.2c6-0.1,8.2,10.8,14.2,10.6c9.3-0.2,11.9-17.2,21.3-17.7
		c4.3-0.2,10.6,7.1,10.6,7.1l0,0"/>
	<polyline points="335.3,6 333.1,1.4 330.8,6 333.1,4.8 	"/>
	<line class="st1" x1="333.1" y1="4.8" x2="333.1" y2="54.6"/>
	<polyline points="381.7,53.3 386.2,51.1 381.7,48.8 382.8,51.1 	"/>
	<path class="st1" d="M311.8,51.1h71 M318.9,54.6v-7.1 M347.2,54.6v-7.1 M361.4,54.6v-7.1 M375.6,54.6v-7.1"/>
	<g>
		<path class="st2" d="M334.8,64c-0.4,0.9-1.2,1.2-1.7,1.2c-0.5,0-1.2-0.2-1.6-1c-0.4-0.8-0.4-1.7-0.4-2.4c0-0.8,0-1.6,0.4-2.3
			c0.4-0.9,1.1-1.2,1.7-1.2c0.4,0,1.2,0.2,1.7,1.1c0.3,0.7,0.4,1.5,0.4,2.3C335.2,62.5,335.1,63.3,334.8,64z M334.2,63.7
			c0.1-0.6,0.1-1.3,0.1-2.1c0-0.6,0-1.4-0.1-1.9c-0.2-1-0.8-1.2-1.2-1.2c-0.2,0-1,0.1-1.2,1.3c-0.1,0.5-0.1,1.2-0.1,1.8
			c0,0.6,0,1.5,0.1,2.1c0.2,1,0.8,1.2,1.2,1.2C333.5,64.9,334.1,64.6,334.2,63.7z"/>
	</g>
	<g>
		<path class="st2" d="M341.6,9.4c-0.1,0.4-0.2,0.7-0.2,0.9c0,0.3,0.2,0.7,0.5,0.7c0.3,0,1-0.2,1.3-1.3c0-0.1,0-0.1,0.1-0.1
			c0,0,0.1,0,0.1,0.1c0,0.2-0.6,1.5-1.6,1.5c-0.6,0-1-0.4-1.1-0.8c0,0.1-0.4,0.8-1,0.8c-0.4,0-0.9-0.2-0.9-0.7
			c0-0.3,0.2-0.6,0.5-0.6c0.1,0,0.4,0.1,0.4,0.3c0,0.3-0.2,0.5-0.5,0.5c0.2,0.1,0.4,0.1,0.5,0.1c0.4,0,0.8-0.4,0.9-1
			c0.4-1.4,0.5-2.1,0.5-2.4c0-0.6-0.3-0.7-0.5-0.7c-0.3,0-1,0.2-1.3,1.3c0,0.1,0,0.1-0.1,0.1c0,0-0.1,0-0.1-0.1
			c0-0.2,0.6-1.5,1.6-1.5c0.3,0,0.8,0.1,1.1,0.8c0.1-0.2,0.5-0.8,1-0.8c0.3,0,0.9,0.1,0.9,0.7c0,0.4-0.3,0.6-0.5,0.6
			c-0.3,0-0.4-0.2-0.4-0.3c0-0.2,0.2-0.5,0.5-0.5c-0.2-0.1-0.4-0.1-0.5-0.1c-0.7,0-0.9,0.9-1,1.2L341.6,9.4z"/>
	</g>
	<g>
		<path class="st2" d="M345.4,13.5v-10h1.4v0.4h-1v9.2h1v0.4H345.4z"/>
	</g>
	<g>
		<path class="st2" d="M348.5,8.1c0.1-0.5,0.2-0.6,0.2-0.8c0-0.3-0.1-0.5-0.3-0.5c-0.4,0-0.6,0.5-0.7,1.2c-0.1,0.2-0.1,0.2-0.2,0.2
			c0,0-0.1,0-0.1-0.1c0,0,0.1-0.6,0.3-1c0.1-0.2,0.3-0.6,0.7-0.6c0.5,0,0.9,0.3,0.9,0.9c0.2-0.2,0.7-0.9,1.6-0.9
			c0.7,0,1.1,0.4,1.1,1.1c0,0.6-0.4,1.7-0.6,2.2c-0.1,0.2-0.2,0.5-0.2,0.7c0,0.2,0.1,0.3,0.2,0.3c0.5,0,0.8-0.6,1-1.2
			c0.1-0.1,0.1-0.2,0.2-0.2c0,0,0.1,0,0.1,0.1c0,0.1-0.4,1.5-1.3,1.5c-0.5,0-0.8-0.3-0.8-0.8c0-0.1,0-0.2,0.1-0.5
			c0.2-0.4,0.6-1.7,0.6-2.3c0-0.3-0.1-0.7-0.5-0.7c-0.9,0-1.5,0.9-1.6,1.2c0,0-0.1,0.3-0.1,0.5c0,0.2-0.1,0.4-0.2,0.7l-0.2,0.9
			c-0.1,0.2-0.2,0.7-0.2,0.7c-0.1,0.2-0.2,0.3-0.4,0.3c-0.1,0-0.3-0.1-0.3-0.3c0-0.1,0.1-0.3,0.1-0.4L348.5,8.1z"/>
	</g>
	<g>
		<path class="st2" d="M354.6,13.5h-1.4v-0.4h1V3.9h-1V3.6h1.4V13.5z"/>
	</g>
	<g>
		<path class="st2" d="M391.8,50.3c0.1-0.5,0.2-0.6,0.2-0.8c0-0.3-0.1-0.5-0.3-0.5c-0.4,0-0.6,0.5-0.7,1.2c-0.1,0.2-0.1,0.2-0.2,0.2
			c0,0-0.1,0-0.1-0.1c0,0,0.1-0.6,0.3-1c0.1-0.2,0.3-0.6,0.7-0.6c0.5,0,0.9,0.3,0.9,0.9c0.2-0.2,0.7-0.9,1.6-0.9
			c0.7,0,1.1,0.4,1.1,1.1c0,0.6-0.4,1.7-0.6,2.2c-0.1,0.2-0.2,0.5-0.2,0.7c0,0.2,0.1,0.3,0.2,0.3c0.5,0,0.8-0.6,1-1.2
			c0.1-0.1,0.1-0.2,0.2-0.2c0,0,0.1,0,0.1,0.1c0,0.1-0.4,1.5-1.3,1.5c-0.5,0-0.8-0.3-0.8-0.8c0-0.1,0-0.2,0.1-0.5
			c0.2-0.4,0.6-1.7,0.6-2.3c0-0.3-0.1-0.7-0.5-0.7c-0.9,0-1.5,0.9-1.6,1.2c0,0-0.1,0.3-0.1,0.5c0,0.2-0.1,0.4-0.2,0.7l-0.2,0.9
			c-0.1,0.2-0.2,0.7-0.2,0.7c-0.1,0.2-0.2,0.3-0.4,0.3c-0.1,0-0.3-0.1-0.3-0.3c0-0.1,0.1-0.3,0.1-0.4L391.8,50.3z"/>
	</g>
	<g>
		<path class="st2" d="M347.7,64.1c0,0.4,0,0.5,0.9,0.5h0.3v0.3c-0.3,0-1.2,0-1.6,0s-1.3,0-1.6,0v-0.3h0.3c0.9,0,0.9-0.1,0.9-0.5V59
			c-0.5,0.3-1.1,0.3-1.3,0.3v-0.3c0.3,0,1.2,0,1.8-0.6c0.2,0,0.2,0,0.2,0.3V64.1z"/>
		<path class="st2" d="M362,64.1c0.2,0,0.9,0,0.9-0.1c0.1-0.1,0.2-0.6,0.2-0.9h0.2l-0.3,1.7h-3.7c0-0.2,0-0.3,0.1-0.4l1.9-2.1
			c0.5-0.6,1-1.4,1-2.2c0-0.8-0.4-1.6-1.3-1.6c-0.6,0-1.1,0.4-1.3,1c0,0,0,0,0.1,0c0.3,0,0.5,0.3,0.5,0.5c0,0.4-0.3,0.5-0.5,0.5
			c0,0-0.5,0-0.5-0.6c0-0.9,0.7-1.8,1.9-1.8c1.2,0,2.1,0.8,2.1,1.9c0,1-0.6,1.5-2.2,2.9l-1.1,1H362z"/>
	</g>
	<g>
		<path class="st2" d="M377.7,63.2c0,1-0.9,1.9-2.1,1.9c-1.1,0-2-0.7-2-1.6c0-0.4,0.3-0.6,0.6-0.6c0.3,0,0.6,0.2,0.6,0.6
			c0,0.4-0.3,0.6-0.7,0.5c0.3,0.6,1.1,0.8,1.5,0.8c0.4,0,1.1-0.3,1.1-1.6c0-1-0.4-1.7-1.2-1.7h-0.4c-0.2,0-0.2,0-0.2-0.1
			c0-0.1,0.1-0.1,0.1-0.1c0.1,0,0.3,0,0.4,0c0.2,0,0.6,0,0.9-0.5c0.3-0.4,0.3-1,0.3-1.1c0-0.9-0.5-1.1-1-1.1c-0.4,0-1,0.1-1.3,0.6
			c0.1,0,0.6,0,0.6,0.5c0,0.3-0.2,0.5-0.5,0.5c-0.3,0-0.5-0.2-0.5-0.5c0-0.8,0.8-1.4,1.8-1.4c1,0,1.8,0.6,1.8,1.4
			c0,0.8-0.6,1.5-1.4,1.8C377.1,61.6,377.7,62.4,377.7,63.2z"/>
	</g>
	<g>
		<path class="st2" d="M314.9,63.1v-0.6h2.6v0.6H314.9z"/>
		<path class="st2" d="M321,64.1c0,0.4,0,0.5,0.9,0.5h0.3v0.3c-0.3,0-1.2,0-1.6,0s-1.3,0-1.6,0v-0.3h0.3c0.9,0,0.9-0.1,0.9-0.5V59
			c-0.5,0.3-1.1,0.3-1.3,0.3v-0.3c0.3,0,1.2,0,1.8-0.6c0.2,0,0.2,0,0.2,0.3V64.1z"/>
	</g>
	<path class="st3" d="M318.9,51.1V33.3 M347.2,51.1V33.3 M361.4,51.1V22.7 M375.6,51.1V19.2"/>
	<g>
		<path class="st2" d="M375.7,20.8c-1.1,0-1.9-0.9-1.9-1.9c0-1,0.9-1.9,1.9-1.9c1,0,1.9,0.9,1.9,1.9
			C377.6,19.9,376.7,20.8,375.7,20.8z"/>
	</g>
	<g>
		<path class="st2" d="M361.4,24.4c-1.1,0-1.9-0.9-1.9-1.9c0-1,0.9-1.9,1.9-1.9c1,0,1.9,0.9,1.9,1.9
			C363.3,23.5,362.4,24.4,361.4,24.4z"/>
	</g>
	<g>
		<path class="st2" d="M347.2,35c-1.1,0-1.9-0.9-1.9-1.9c0-1,0.9-1.9,1.9-1.9c1,0,1.9,0.9,1.9,1.9C349.2,34.1,348.3,35,347.2,35z"/>
	</g>
	<g>
		<path class="st2" d="M333.1,24.4c-1.1,0-1.9-0.9-1.9-1.9c0-1,0.9-1.9,1.9-1.9c1,0,1.9,0.9,1.9,1.9C335,23.5,334.1,24.4,333.1,24.4
			z"/>
	</g>
	<g>
		<path class="st2" d="M318.9,35c-1.1,0-1.9-0.9-1.9-1.9c0-1,0.9-1.9,1.9-1.9c1,0,1.9,0.9,1.9,1.9C320.8,34.1,320,35,318.9,35z"/>
	</g>
	<line class="st3" x1="333.1" y1="51.1" x2="333.1" y2="22.7"/>
	<polyline points="364,124.2 368.5,121.9 364,119.6 365.1,121.9 	"/>
	<line class="st1" x1="304.7" y1="121.9" x2="365.1" y2="121.9"/>
	<g>
		<path class="st2" d="M320.4,115.7c-0.1,0.4-0.2,0.7-0.2,0.9c0,0.3,0.2,0.7,0.5,0.7c0.3,0,1-0.2,1.3-1.3c0-0.1,0-0.1,0.1-0.1
			c0,0,0.1,0,0.1,0.1c0,0.2-0.6,1.5-1.6,1.5c-0.6,0-1-0.4-1.1-0.8c0,0.1-0.4,0.8-1,0.8c-0.4,0-0.9-0.2-0.9-0.7
			c0-0.3,0.2-0.6,0.5-0.6c0.1,0,0.4,0.1,0.4,0.3c0,0.3-0.2,0.5-0.5,0.5c0.2,0.1,0.4,0.1,0.5,0.1c0.4,0,0.8-0.4,0.9-1
			c0.4-1.4,0.5-2.1,0.5-2.4c0-0.6-0.3-0.7-0.5-0.7c-0.3,0-1,0.2-1.3,1.3c0,0.1,0,0.1-0.1,0.1c0,0-0.1,0-0.1-0.1
			c0-0.2,0.6-1.5,1.6-1.5c0.3,0,0.8,0.1,1.1,0.8c0.1-0.2,0.5-0.8,1-0.8c0.3,0,0.9,0.1,0.9,0.7c0,0.4-0.3,0.6-0.5,0.6
			c-0.3,0-0.4-0.2-0.4-0.3c0-0.2,0.2-0.5,0.5-0.5c-0.2-0.1-0.4-0.1-0.5-0.1c-0.7,0-0.9,0.9-1,1.2L320.4,115.7z"/>
	</g>
	<g>
		<path class="st2" d="M324.2,119.8v-10h1.4v0.4h-1v9.2h1v0.4H324.2z"/>
	</g>
	<g>
		<path class="st2" d="M327.2,114.5c0.1-0.5,0.2-0.6,0.2-0.8c0-0.3-0.1-0.5-0.3-0.5c-0.4,0-0.6,0.5-0.7,1.2
			c-0.1,0.2-0.1,0.2-0.2,0.2c0,0-0.1,0-0.1-0.1c0,0,0.1-0.6,0.3-1c0.1-0.2,0.3-0.6,0.7-0.6c0.5,0,0.9,0.3,0.9,0.9
			c0.2-0.2,0.7-0.9,1.6-0.9c0.7,0,1.1,0.4,1.1,1.1c0,0.6-0.4,1.7-0.6,2.2c-0.1,0.2-0.2,0.5-0.2,0.7c0,0.2,0.1,0.3,0.2,0.3
			c0.5,0,0.8-0.6,1-1.2c0.1-0.1,0.1-0.2,0.2-0.2c0,0,0.1,0,0.1,0.1c0,0.1-0.4,1.5-1.3,1.5c-0.5,0-0.8-0.3-0.8-0.8
			c0-0.1,0-0.2,0.1-0.5c0.2-0.4,0.6-1.7,0.6-2.3c0-0.3-0.1-0.7-0.5-0.7c-0.9,0-1.5,0.9-1.6,1.2c0,0-0.1,0.3-0.1,0.5
			c0,0.2-0.1,0.4-0.2,0.7l-0.2,0.9c-0.1,0.2-0.2,0.7-0.2,0.7c-0.1,0.2-0.2,0.3-0.4,0.3c-0.1,0-0.3-0.1-0.3-0.3
			c0-0.1,0.1-0.3,0.1-0.4L327.2,114.5z"/>
	</g>
	<g>
		<path class="st2" d="M333.4,119.8H332v-0.4h1v-9.2h-1v-0.4h1.4V119.8z"/>
	</g>
	<polyline points="66.3,124.2 70.9,121.9 66.3,119.6 67.5,121.9 	"/>
	<line class="st1" x1="7.1" y1="121.9" x2="67.5" y2="121.9"/>
	<g>
		<path class="st2" d="M40.5,115.7c-0.1,0.4-0.2,0.7-0.2,0.9c0,0.3,0.2,0.7,0.5,0.7c0.3,0,1-0.2,1.3-1.3c0-0.1,0-0.1,0.1-0.1
			c0,0,0.1,0,0.1,0.1c0,0.2-0.6,1.5-1.6,1.5c-0.6,0-1-0.4-1.1-0.8c0,0.1-0.4,0.8-1,0.8c-0.4,0-0.9-0.2-0.9-0.7
			c0-0.3,0.2-0.6,0.5-0.6c0.1,0,0.4,0.1,0.4,0.3c0,0.3-0.2,0.5-0.5,0.5c0.2,0.1,0.4,0.1,0.5,0.1c0.4,0,0.8-0.4,0.9-1
			c0.4-1.4,0.5-2.1,0.5-2.4c0-0.6-0.3-0.7-0.5-0.7c-0.3,0-1,0.2-1.3,1.3c0,0.1-0.1,0.1-0.1,0.1c0,0-0.1,0-0.1-0.1
			c0-0.2,0.6-1.5,1.6-1.5c0.3,0,0.8,0.1,1.1,0.8c0.1-0.2,0.5-0.8,1-0.8c0.3,0,0.9,0.1,0.9,0.7c0,0.4-0.3,0.6-0.5,0.6
			c-0.3,0-0.4-0.2-0.4-0.3c0-0.2,0.2-0.5,0.5-0.5c-0.2-0.1-0.4-0.1-0.5-0.1c-0.7,0-0.9,0.9-1,1.2L40.5,115.7z"/>
	</g>
	<g>
		<path class="st2" d="M46.4,119.8c-0.1,0-1-0.6-1.6-1.9c-0.5-1.1-0.7-2.3-0.7-3.1c0-0.8,0.1-1.9,0.6-3c0.6-1.3,1.5-1.9,1.6-1.9
			c0.1,0,0.1,0,0.1,0.1c0,0,0,0-0.1,0.2c-1.2,1.2-1.6,3-1.6,4.7c0,1.5,0.3,3.4,1.6,4.7C46.5,119.7,46.5,119.7,46.4,119.8
			C46.5,119.8,46.4,119.8,46.4,119.8z"/>
	</g>
	<g>
		<path class="st2" d="M48.3,116.3c0,0.2-0.1,0.2-0.1,0.5c0,0.3,0.1,0.5,0.3,0.5c0.3,0,0.9-0.2,1.3-1.3c0-0.1,0.1-0.1,0.1-0.1
			c0,0,0.1,0,0.1,0.1c0,0.1-0.6,1.5-1.6,1.5c-0.5,0-0.9-0.4-0.9-0.9c0-0.2,0-0.3,0.8-3.2h-0.9c-0.2,0-0.3,0-0.3-0.1
			c0-0.2,0.1-0.2,0.3-0.2h0.9l0.4-1.6c0.1-0.3,0.4-0.4,0.4-0.4c0.2,0,0.3,0.1,0.3,0.3c0,0.1,0,0.3-0.4,1.7H50c0.2,0,0.3,0,0.3,0.1
			c0,0.2-0.1,0.2-0.3,0.2h-0.9L48.3,116.3z"/>
	</g>
	<g>
		<path class="st2" d="M52.9,117.9c-0.6,1.3-1.5,1.9-1.6,1.9c-0.1,0-0.1,0-0.1-0.1c0,0,0,0,0.1-0.2c1.2-1.3,1.6-3,1.6-4.7
			c0-2.1-0.6-3.7-1.5-4.7c-0.2-0.2-0.2-0.2-0.2-0.2c0-0.1,0-0.1,0.1-0.1c0.1,0,1,0.6,1.6,1.9c0.5,1.1,0.7,2.3,0.7,3.1
			C53.5,115.7,53.4,116.8,52.9,117.9z"/>
	</g>
	<polyline points="243.5,124.2 248,121.9 243.5,119.6 244.6,121.9 	"/>
	<line class="st1" x1="191.3" y1="121.9" x2="244.6" y2="121.9"/>
	<g>
		<path class="st2" d="M215.4,115.7c-0.1,0.4-0.2,0.7-0.2,0.9c0,0.3,0.2,0.7,0.5,0.7c0.3,0,1-0.2,1.3-1.3c0-0.1,0-0.1,0.1-0.1
			c0,0,0.1,0,0.1,0.1c0,0.2-0.6,1.5-1.6,1.5c-0.6,0-1-0.4-1.1-0.8c0,0.1-0.4,0.8-1,0.8c-0.4,0-0.9-0.2-0.9-0.7
			c0-0.3,0.2-0.6,0.5-0.6c0.1,0,0.4,0.1,0.4,0.3c0,0.3-0.2,0.5-0.5,0.5c0.2,0.1,0.4,0.1,0.5,0.1c0.4,0,0.8-0.4,0.9-1
			c0.4-1.4,0.5-2.1,0.5-2.4c0-0.6-0.3-0.7-0.5-0.7c-0.3,0-1,0.2-1.3,1.3c0,0.1,0,0.1-0.1,0.1c0,0-0.1,0-0.1-0.1
			c0-0.2,0.6-1.5,1.6-1.5c0.3,0,0.8,0.1,1.1,0.8c0.1-0.2,0.5-0.8,1-0.8c0.3,0,0.9,0.1,0.9,0.7c0,0.4-0.3,0.6-0.5,0.6
			c-0.3,0-0.4-0.2-0.4-0.3c0-0.2,0.2-0.5,0.5-0.5c-0.2-0.1-0.4-0.1-0.5-0.1c-0.7,0-0.9,0.9-1,1.2L215.4,115.7z"/>
	</g>
	<g>
		<path class="st2" d="M221.3,115.8c0.1,0,0.2,0.1,0.2,0.2c0,0-0.1,0.4-0.1,0.5l-0.1,0.5c0,0.2-0.1,0.4-0.2,0.6
			c0,0.2-0.1,0.4-0.1,0.6c0,0.2,0,0.3,0.2,0.3c0.3,0,0.4-0.4,0.5-0.7c0-0.2,0.1-0.2,0.2-0.2c0,0,0.1,0,0.1,0.1c0,0-0.1,0.4-0.2,0.7
			c-0.1,0.2-0.3,0.4-0.6,0.4c-0.2,0-0.6-0.1-0.7-0.5c-0.3,0.3-0.6,0.5-1,0.5c-0.6,0-1.1-0.5-1.1-1.2c0-1,0.9-2,1.8-2
			c0.3,0,0.6,0.2,0.7,0.4C221,115.9,221.2,115.8,221.3,115.8z M220.8,116.6C220.9,116.6,220.9,116.5,220.8,116.6
			c0-0.2-0.1-0.7-0.6-0.7c-0.2,0-0.6,0.1-0.9,0.7c-0.2,0.3-0.4,1-0.4,1.4c0,0.5,0.3,0.7,0.5,0.7c0.3,0,0.6-0.2,0.6-0.3
			c0.2-0.1,0.3-0.3,0.4-0.5L220.8,116.6z"/>
	</g>
	<g>
		<path class="st2" d="M226,119.8c-0.1,0-1-0.6-1.6-1.9c-0.5-1.1-0.7-2.3-0.7-3.1c0-0.8,0.1-1.9,0.6-3c0.6-1.3,1.5-1.9,1.6-1.9
			c0.1,0,0.1,0,0.1,0.1c0,0,0,0-0.1,0.2c-1.2,1.2-1.6,3-1.6,4.7c0,1.5,0.3,3.4,1.6,4.7C226.1,119.7,226.1,119.7,226,119.8
			C226.1,119.8,226.1,119.8,226,119.8z"/>
	</g>
	<g>
		<path class="st2" d="M228,116.3c0,0.2-0.1,0.2-0.1,0.5c0,0.3,0.1,0.5,0.3,0.5c0.3,0,0.9-0.2,1.3-1.3c0-0.1,0.1-0.1,0.1-0.1
			c0,0,0.1,0,0.1,0.1c0,0.1-0.6,1.5-1.6,1.5c-0.5,0-0.9-0.4-0.9-0.9c0-0.2,0-0.3,0.8-3.2h-0.9c-0.2,0-0.3,0-0.3-0.1
			c0-0.2,0.1-0.2,0.3-0.2h0.9l0.4-1.6c0.1-0.3,0.4-0.4,0.4-0.4c0.2,0,0.3,0.1,0.3,0.3c0,0.1,0,0.3-0.4,1.7h0.9c0.2,0,0.3,0,0.3,0.1
			c0,0.2-0.1,0.2-0.3,0.2h-0.9L228,116.3z"/>
	</g>
	<g>
		<path class="st2" d="M232.5,117.9c-0.6,1.3-1.5,1.9-1.6,1.9c-0.1,0-0.1,0-0.1-0.1c0,0,0,0,0.1-0.2c1.2-1.3,1.6-3,1.6-4.7
			c0-2.1-0.6-3.7-1.5-4.7c-0.2-0.2-0.2-0.2-0.2-0.2c0-0.1,0-0.1,0.1-0.1c0.1,0,1,0.6,1.6,1.9c0.5,1.1,0.7,2.3,0.7,3.1
			C233.1,115.7,233,116.8,232.5,117.9z"/>
	</g>
	<polyline points="80.5,216.3 85,214 80.5,211.8 81.6,214 	"/>
	<line class="st1" x1="0" y1="214" x2="81.6" y2="214"/>
	<polyline points="41.2,172.5 39,168 36.7,172.5 39,171.4 	"/>
	<line class="st1" x1="39" y1="217.6" x2="39" y2="171.4"/>
	<path class="st4" d="M10.6,214L39,178.6 M39,178.6L67.3,214"/>
	<g>
		<path class="st2" d="M40.7,226.9c-0.4,0.9-1.2,1.2-1.7,1.2c-0.5,0-1.2-0.2-1.6-1c-0.4-0.8-0.4-1.7-0.4-2.4c0-0.8,0-1.6,0.4-2.3
			c0.4-0.9,1.1-1.2,1.7-1.2c0.4,0,1.2,0.2,1.7,1.1c0.3,0.7,0.4,1.5,0.4,2.3C41,225.5,41,226.2,40.7,226.9z M40.1,226.6
			c0.1-0.6,0.1-1.3,0.1-2.1c0-0.6,0-1.4-0.1-1.9c-0.2-1-0.8-1.2-1.2-1.2c-0.2,0-1,0.1-1.2,1.3c-0.1,0.5-0.1,1.2-0.1,1.8
			c0,0.6,0,1.5,0.1,2.1c0.2,1,0.8,1.2,1.2,1.2C39.4,227.9,40,227.6,40.1,226.6z"/>
	</g>
	<path class="st1" d="M60.2,217.6v-7.1 M17.7,217.6v-7.1"/>
	<g>
		<path class="st2" d="M59.6,221.1c-0.2,0.6-0.2,0.9-0.5,0.9c-0.2,0-0.2-0.1-0.2-0.2c0,0,0-0.1,0-0.1c0,0,0.1-0.2,0.1-0.3
			c0.2-0.4,0.6-1.2,0.8-2h-0.4c-0.2,0-0.6,0-0.9,0.5c0,0.1,0,0.1-0.1,0.1c0,0-0.1,0-0.1-0.1c0-0.1,0.3-0.4,0.5-0.6
			c0.3-0.3,0.5-0.4,0.8-0.4H62c0.1,0,0.3,0,0.3,0.2c0,0,0,0.1-0.1,0.2c-0.1,0.1-0.1,0.1-0.3,0.1h-0.9c-0.1,0.5-0.1,0.8-0.1,0.9
			c0,0.6,0.1,1,0.3,1.2c0,0.1,0.1,0.1,0.1,0.2c0,0.2-0.2,0.3-0.3,0.3c-0.1,0-0.2,0-0.3-0.4c0-0.2-0.1-0.3-0.1-0.6
			c0-0.6,0.2-1.2,0.3-1.6H60L59.6,221.1z"/>
	</g>
	<polyline points="56,223.7 64.7,223.7 64.7,223.2 56,223.2 	"/>
	<g>
		<path class="st2" d="M58.5,228.8c0,0.1,0,0.1,0,0.2c0,0.1,0,0.1,0.3,0.1c0.1,0,0.3,0,0.4,0c0.2,0,0.3,0,0.3,0.1
			c0,0.2-0.1,0.2-0.2,0.2c-0.2,0-0.4,0-0.6,0c-0.2,0-0.4,0-0.6,0s-0.4,0-0.6,0s-0.4,0-0.6,0c-0.1,0-0.1-0.1-0.1-0.1
			c0-0.2,0.1-0.2,0.3-0.2c0.7,0,0.8-0.1,0.8-0.3l0.9-3.7c0-0.1,0-0.1,0-0.1c0-0.1,0-0.1-0.2-0.1h-0.3c-1.1,0-1.3,0.1-1.7,1.2
			c0,0.1-0.1,0.2-0.1,0.2c-0.1,0-0.1-0.1-0.1-0.1c0,0,0-0.1,0-0.1l0.4-1.2c0-0.1,0.1-0.1,0.2-0.1h4.3c0.1,0,0.2,0,0.2,0.1l-0.2,1.3
			c0,0.1,0,0.2-0.1,0.2c-0.1,0-0.1,0-0.1-0.1l0-0.1c0-0.4,0-0.5,0-0.6c0-0.3,0-0.5-0.3-0.6c-0.2-0.1-0.4-0.1-0.8-0.1
			c-0.1,0-0.4,0-0.4,0c-0.2,0-0.2,0-0.2,0.2L58.5,228.8z"/>
	</g>
	<g>
		<path class="st2" d="M62.7,228.2c-0.7,0-0.7,0.4-0.7,0.4c0,0.2,0.2,0.2,0.6,0.3c0.3,0,0.8,0.1,0.8,0.6c0,0.2-0.2,0.8-1.2,0.8
			c-0.1,0-0.9,0-0.9-0.5c0-0.2,0.1-0.4,0.3-0.4c0.1,0,0.2,0.1,0.2,0.2c0,0.1-0.1,0.3-0.3,0.3c0.2,0.2,0.5,0.2,0.7,0.2
			c0.9,0,0.9-0.5,0.9-0.5c0-0.3-0.3-0.3-0.7-0.4c-0.3,0-0.4-0.1-0.6-0.2c-0.1-0.1-0.2-0.2-0.2-0.4c0-0.2,0.2-0.7,1-0.7
			c0.4,0,0.8,0.1,0.8,0.4c0,0.3-0.2,0.3-0.3,0.3c-0.1,0-0.2-0.1-0.2-0.2c0,0,0-0.2,0.2-0.2C63.1,228.2,62.8,228.2,62.7,228.2z"/>
	</g>
	<g>
		<path class="st2" d="M10.8,224v-0.6h2.6v0.6H10.8z"/>
	</g>
	<g>
		<path class="st2" d="M18.6,221.1c-0.2,0.6-0.2,0.9-0.5,0.9c-0.2,0-0.2-0.1-0.2-0.2c0,0,0-0.1,0-0.1c0,0,0.1-0.2,0.1-0.3
			c0.2-0.4,0.6-1.2,0.8-2h-0.4c-0.2,0-0.6,0-0.9,0.5c0,0.1,0,0.1-0.1,0.1c0,0-0.1,0-0.1-0.1c0-0.1,0.3-0.4,0.5-0.6
			c0.3-0.3,0.5-0.4,0.8-0.4h2.6c0.1,0,0.3,0,0.3,0.2c0,0,0,0.1-0.1,0.2c-0.1,0.1-0.1,0.1-0.3,0.1h-0.9c-0.1,0.5-0.1,0.8-0.1,0.9
			c0,0.6,0.1,1,0.3,1.2c0,0.1,0.1,0.1,0.1,0.2c0,0.2-0.2,0.3-0.3,0.3c-0.1,0-0.2,0-0.3-0.4c0-0.2-0.1-0.3-0.1-0.6
			c0-0.6,0.2-1.2,0.3-1.6h-0.8L18.6,221.1z"/>
	</g>
	<polyline points="15.1,223.7 23.7,223.7 23.7,223.2 15.1,223.2 	"/>
	<g>
		<path class="st2" d="M17.6,228.8c0,0.1,0,0.1,0,0.2c0,0.1,0,0.1,0.3,0.1c0.1,0,0.3,0,0.4,0c0.2,0,0.3,0,0.3,0.1
			c0,0.2-0.1,0.2-0.2,0.2c-0.2,0-0.4,0-0.6,0c-0.2,0-0.4,0-0.6,0s-0.4,0-0.6,0s-0.4,0-0.6,0c-0.1,0-0.1-0.1-0.1-0.1
			c0-0.2,0.1-0.2,0.3-0.2c0.7,0,0.8-0.1,0.8-0.3l0.9-3.7c0-0.1,0-0.1,0-0.1c0-0.1,0-0.1-0.2-0.1h-0.3c-1.1,0-1.3,0.1-1.7,1.2
			c0,0.1-0.1,0.2-0.1,0.2c-0.1,0-0.1-0.1-0.1-0.1c0,0,0-0.1,0-0.1l0.4-1.2c0-0.1,0.1-0.1,0.2-0.1h4.3c0.1,0,0.2,0,0.2,0.1l-0.2,1.3
			c0,0.1,0,0.2-0.1,0.2c-0.1,0-0.1,0-0.1-0.1l0-0.1c0-0.4,0-0.5,0-0.6c0-0.3,0-0.5-0.3-0.6c-0.2-0.1-0.4-0.1-0.8-0.1
			c-0.1,0-0.4,0-0.4,0c-0.2,0-0.2,0-0.2,0.2L17.6,228.8z"/>
	</g>
	<g>
		<path class="st2" d="M21.8,228.2c-0.7,0-0.7,0.4-0.7,0.4c0,0.2,0.2,0.2,0.6,0.3c0.3,0,0.8,0.1,0.8,0.6c0,0.2-0.2,0.8-1.2,0.8
			c-0.1,0-0.9,0-0.9-0.5c0-0.2,0.1-0.4,0.3-0.4c0.1,0,0.2,0.1,0.2,0.2c0,0.1-0.1,0.3-0.3,0.3c0.2,0.2,0.5,0.2,0.7,0.2
			c0.9,0,0.9-0.5,0.9-0.5c0-0.3-0.3-0.3-0.7-0.4c-0.3,0-0.4-0.1-0.6-0.2c-0.1-0.1-0.2-0.2-0.2-0.4c0-0.2,0.2-0.7,1-0.7
			c0.4,0,0.8,0.1,0.8,0.4c0,0.3-0.2,0.3-0.3,0.3c-0.1,0-0.2-0.1-0.2-0.2c0,0,0-0.2,0.2-0.2C22.2,228.2,21.9,228.2,21.8,228.2z"/>
	</g>
	<g>
		<path class="st2" d="M94.3,215c-0.4,0.7-0.8,1.4-1.6,1.4c-0.6,0-1-0.5-1.1-1c-0.4,0.5-0.8,1-1.5,1c-0.8,0-1-0.7-1-1.4
			c0-0.9,0.4-2.1,0.9-2.8c0.1-0.1,0.1-0.2,0.3-0.2c0.1,0,0.2,0.1,0.2,0.2c0,0.1-1,1.2-1,2.4c0,0.6,0.2,1.1,0.9,1.1
			c0.6,0,1-0.4,1.4-0.9c0-0.4,0.1-1,0.2-1.2c0.1-0.1,0.2-0.2,0.3-0.2c0.1,0,0.2,0.1,0.2,0.2c0,0.3-0.2,0.9-0.3,1.2
			c0.1,0.5,0.4,0.9,1,0.9c0.5,0,0.8-0.3,1.1-0.8c0.3-0.5,0.5-1,0.5-1.4c0-0.4-0.2-0.7-0.3-0.8c-0.1-0.1-0.1-0.2-0.1-0.3
			c0-0.2,0.3-0.5,0.5-0.5c0.2,0,0.4,0.2,0.4,0.7C94.9,213.1,94.6,214.5,94.3,215z"/>
	</g>
	<g>
		<path class="st2" d="M51.6,168.2c0.1-0.1,0.2-0.2,0.2-0.4c0-0.3-0.3-0.3-0.4-0.3c-0.1,0-0.1,0-0.1-0.1c0-0.2,0.1-0.2,0.2-0.2
			c0.4,0,0.7,0,1.1,0c0.3,0,0.6,0,0.9,0c0.1,0,0.1,0.1,0.1,0.1c0,0.2-0.1,0.2-0.2,0.2c-0.6,0-1,0.3-1.3,0.5c-0.3,0.3-1.4,1.5-2,2.2
			c0.2,0.6,0.9,2.2,1.3,3.1c0.2,0.4,0.2,0.4,0.9,0.4c0.1,0,0.2,0,0.2,0.1c0,0.2-0.1,0.2-0.2,0.2c-0.2,0-0.9,0-1.1,0
			c-0.3,0-1,0-1.3,0c0,0-0.1,0-0.1-0.1c0-0.2,0.1-0.2,0.2-0.2c0.4,0,0.6-0.2,0.6-0.3c0,0,0,0,0-0.1l-1-2.4l-0.9,1l-1,1.1
			c-0.1,0.1-0.3,0.3-0.3,0.4c0,0.3,0.3,0.3,0.4,0.3c0,0,0.1,0,0.1,0.1c0,0.2-0.1,0.2-0.2,0.2c-0.4,0-0.7,0-1.1,0c-0.3,0-0.6,0-0.9,0
			c-0.1,0-0.1-0.1-0.1-0.1c0-0.2,0.1-0.2,0.2-0.2c0.5,0,1-0.2,1.5-0.7l0.1-0.1l2.1-2.3l-1.2-2.8c-0.1-0.2-0.1-0.3-0.7-0.3
			c-0.1,0-0.2,0-0.2-0.1c0-0.2,0.1-0.2,0.2-0.2c0.2,0,0.9,0,1.1,0c0.4,0,0.8,0,1.3,0c0,0,0.1,0,0.1,0.1c0,0.2-0.1,0.2-0.2,0.2
			c-0.4,0-0.6,0.2-0.6,0.3c0,0,0,0,0,0.1l0.8,2L51.6,168.2z"/>
	</g>
	<g>
		<path class="st2" d="M57.4,176.5c-0.1,0-1-0.6-1.6-1.9c-0.5-1.1-0.7-2.3-0.7-3.1c0-0.8,0.1-1.9,0.6-3c0.6-1.3,1.5-1.9,1.6-1.9
			c0.1,0,0.1,0,0.1,0.1c0,0,0,0-0.1,0.2c-1.2,1.2-1.6,3-1.6,4.7c0,1.5,0.3,3.4,1.6,4.7C57.5,176.3,57.5,176.4,57.4,176.5
			C57.5,176.5,57.5,176.5,57.4,176.5z"/>
	</g>
	<g>
		<path class="st2" d="M63.5,172.7c-0.4,0.7-0.8,1.4-1.6,1.4c-0.6,0-1-0.5-1.1-1c-0.4,0.5-0.8,1-1.5,1c-0.8,0-1-0.7-1-1.4
			c0-0.9,0.4-2.1,0.9-2.8c0.1-0.1,0.1-0.2,0.3-0.2c0.1,0,0.2,0.1,0.2,0.2c0,0.1-1,1.2-1,2.4c0,0.6,0.2,1.1,0.9,1.1
			c0.6,0,1-0.4,1.4-0.9c0-0.4,0.1-1,0.2-1.2c0.1-0.1,0.2-0.2,0.3-0.2c0.1,0,0.2,0.1,0.2,0.2c0,0.3-0.2,0.9-0.3,1.2
			c0.1,0.5,0.4,0.9,1,0.9c0.5,0,0.8-0.3,1.1-0.8c0.3-0.5,0.5-1,0.5-1.4c0-0.4-0.2-0.7-0.3-0.8c-0.1-0.1-0.1-0.2-0.1-0.3
			c0-0.2,0.3-0.5,0.5-0.5c0.2,0,0.4,0.2,0.4,0.7C64.1,170.9,63.7,172.3,63.5,172.7z"/>
	</g>
	<g>
		<path class="st2" d="M66.9,174.5c-0.6,1.3-1.5,1.9-1.6,1.9c-0.1,0-0.1,0-0.1-0.1c0,0,0,0,0.1-0.2c1.2-1.3,1.6-3,1.6-4.7
			c0-2.1-0.6-3.7-1.5-4.7c-0.2-0.2-0.2-0.2-0.2-0.2c0-0.1,0-0.1,0.1-0.1c0.1,0,1,0.6,1.6,1.9c0.5,1.1,0.7,2.3,0.7,3.1
			C67.5,172.3,67.4,173.4,66.9,174.5z"/>
	</g>
	<line class="st1" x1="35.4" y1="178.6" x2="42.5" y2="178.6"/>
	<g>
		<path class="st2" d="M92.7,87.9c-0.1,0-1-0.6-1.6-1.9c-0.5-1.1-0.7-2.3-0.7-3.1c0-0.8,0.1-1.9,0.6-3c0.6-1.3,1.5-1.9,1.6-1.9
			c0.1,0,0.1,0,0.1,0.1c0,0,0,0-0.1,0.2c-1.2,1.2-1.6,3-1.6,4.7c0,1.5,0.3,3.4,1.6,4.7C92.8,87.8,92.8,87.8,92.7,87.9
			C92.8,87.9,92.8,87.9,92.7,87.9z"/>
		<path class="st2" d="M98.9,85.4h-5.2v-0.3h0.2c0.8,0,0.8-0.1,0.8-0.5v-5.3c0-0.4,0-0.5-0.8-0.5h-0.2v-0.3c0.3,0,1.1,0,1.5,0
			c0.4,0,1.3,0,1.7,0v0.3h-0.3c-0.9,0-0.9,0.1-0.9,0.5v5.3c0,0.3,0,0.4,0.5,0.4h0.8c1.8,0,1.9-1.2,2-2.3h0.2L98.9,85.4z"/>
	</g>
	<g>
		<path class="st2" d="M102.1,85.5c-1.2,0-2.2-1-2.2-2.2c0-1.2,1-2.3,2.2-2.3c1.2,0,2.2,1.1,2.2,2.3
			C104.3,84.6,103.3,85.5,102.1,85.5z M103.2,84.6c0.2-0.4,0.2-1,0.2-1.3c0-0.4,0-1-0.3-1.4c-0.3-0.4-0.7-0.6-1.1-0.6
			c-0.4,0-0.9,0.2-1.1,0.7c-0.2,0.4-0.2,1-0.2,1.4c0,0.4,0,1,0.2,1.4c0.3,0.5,0.7,0.7,1.1,0.7C102.6,85.3,103,85,103.2,84.6z"/>
		<path class="st2" d="M109.4,85.4c0,0.1-0.1,0.2-0.2,0.2s-0.2-0.1-0.2-0.2l-1-2.8l-1,2.8c0,0.1-0.1,0.2-0.2,0.2s-0.2-0.1-0.2-0.2
			l-1.3-3.5c-0.1-0.3-0.2-0.3-0.7-0.3v-0.3c0.4,0,0.9,0,0.9,0c0.2,0,0.8,0,1.1,0v0.3c-0.2,0-0.6,0-0.6,0.3c0,0,0,0.1,0,0.2l0.9,2.7
			l0.9-2.4c-0.1-0.2-0.2-0.5-0.2-0.5c-0.1-0.1-0.3-0.1-0.6-0.1v-0.3c0.3,0,0.6,0,0.9,0c0.2,0,0.7,0,1,0v0.3c-0.2,0-0.6,0-0.6,0.3
			c0,0,0,0.1,0,0.2l1,2.8l0.9-2.6c0-0.1,0-0.1,0-0.2c0-0.3-0.2-0.5-0.6-0.5v-0.3c0.2,0,0.6,0,0.9,0c0.2,0,0.5,0,0.7,0v0.3
			c-0.3,0-0.7,0.1-0.8,0.6L109.4,85.4z"/>
	</g>
	<g>
		<path class="st2" d="M117.1,84.7c0,0.4,0,0.5,0.8,0.5h0.2v0.3c-0.3,0-1.1,0-1.5,0c-0.4,0-1.1,0-1.5,0v-0.3h0.2
			c0.8,0,0.8-0.1,0.8-0.5v-5.3c0-0.4,0-0.5-0.8-0.5h-0.2v-0.3h3.5c1.4,0,2.4,0.9,2.4,1.9c0,1-1.1,1.8-2.3,1.8h-1.7V84.7z M118.4,82
			c1.6,0,1.6-1.1,1.6-1.5c0-0.5,0-1.5-1.6-1.5h-0.9c-0.5,0-0.5,0.1-0.5,0.4V82H118.4z"/>
		<path class="st2" d="M123.4,85.5c-0.6,0-1.6-0.2-1.6-1.1c0-0.4,0.2-1,1-1.3c0.6-0.3,1.3-0.3,1.8-0.4v-0.4c0-0.9-0.6-1.3-1.1-1.3
			c-0.3,0-0.8,0.1-1.1,0.5c0.5,0,0.5,0.3,0.5,0.5c0,0.3-0.2,0.5-0.5,0.5c-0.3,0-0.5-0.2-0.5-0.5c0-0.7,0.7-1.1,1.5-1.1
			c0.5,0,1,0.2,1.4,0.5c0.4,0.4,0.4,0.8,0.4,1.2v2c0,0,0,0.5,0.4,0.5c0.1,0,0.4-0.1,0.4-0.6V84h0.2v0.6c0,0.8-0.6,0.9-0.8,0.9
			c-0.5,0-0.7-0.4-0.8-0.8C124.5,85.1,124.1,85.5,123.4,85.5z M122.6,84.5c0,0.5,0.4,0.8,0.9,0.8c0.4,0,1.2-0.3,1.2-1.3v-1
			C123,83.1,122.6,83.9,122.6,84.5z"/>
	</g>
	<g>
		<path class="st2" d="M127.2,83c-0.3-0.2-0.4-0.5-0.4-0.8c0-0.6,0.4-1.2,1.6-1.2c0.1,0,0.6,0,0.9,0.3c0,0,0.1-0.1,0.2-0.2
			c0.1-0.1,0.1-0.1,0.2-0.1c0.1,0,0.1,0.1,0.1,0.2v1c0,0.2,0,0.2-0.1,0.2c0,0-0.1,0-0.1-0.1c0-0.3-0.1-1.2-1.2-1.2
			c-0.9,0-1.1,0.4-1.1,0.8c0,0.6,0.7,0.7,1.2,0.8c0.4,0.1,0.8,0.2,1.1,0.5c0.1,0.1,0.4,0.4,0.4,0.9c0,0.7-0.5,1.4-1.6,1.4
			c-0.2,0-0.7,0-1.1-0.4c-0.2,0.2-0.2,0.2-0.2,0.2c-0.2,0.2-0.2,0.2-0.2,0.2c-0.1,0-0.1-0.1-0.1-0.2V84c0-0.2,0-0.2,0.1-0.2
			c0.1,0,0.1,0,0.1,0.2c0.2,0.8,0.5,1.4,1.4,1.4c0.8,0,1.1-0.4,1.1-0.9c0-0.7-0.8-0.9-1-0.9C127.8,83.4,127.5,83.3,127.2,83z"/>
		<path class="st2" d="M131.2,83c-0.3-0.2-0.4-0.5-0.4-0.8c0-0.6,0.4-1.2,1.6-1.2c0.1,0,0.6,0,0.9,0.3c0,0,0.1-0.1,0.2-0.2
			c0.1-0.1,0.1-0.1,0.2-0.1c0.1,0,0.1,0.1,0.1,0.2v1c0,0.2,0,0.2-0.1,0.2c0,0-0.1,0-0.1-0.1c0-0.3-0.1-1.2-1.2-1.2
			c-0.9,0-1.1,0.4-1.1,0.8c0,0.6,0.7,0.7,1.2,0.8c0.4,0.1,0.8,0.2,1.1,0.5c0.1,0.1,0.4,0.4,0.4,0.9c0,0.7-0.5,1.4-1.6,1.4
			c-0.2,0-0.7,0-1.1-0.4c-0.2,0.2-0.2,0.2-0.2,0.2c-0.2,0.2-0.2,0.2-0.2,0.2c-0.1,0-0.1-0.1-0.1-0.2V84c0-0.2,0-0.2,0.1-0.2
			c0.1,0,0.1,0,0.1,0.2c0.2,0.8,0.5,1.4,1.4,1.4c0.8,0,1.1-0.4,1.1-0.9c0-0.7-0.8-0.9-1-0.9C131.8,83.4,131.5,83.3,131.2,83z"/>
	</g>
	<g>
		<path class="st2" d="M143.6,80.9h-0.2c-0.2-1.4-0.4-1.9-1.9-1.9h-1.2c-0.5,0-0.5,0.1-0.5,0.4v2.5h0.9c1,0,1.1-0.3,1.1-1.2h0.2v2.6
			h-0.2c0-0.8-0.1-1.2-1.1-1.2h-0.9v2.5c0,0.3,0,0.5,0.9,0.5h0.3v0.3c-0.4,0-1.3,0-1.7,0c-0.4,0-1.2,0-1.5,0v-0.3h0.2
			c0.8,0,0.8-0.1,0.8-0.5v-5.2c0-0.4,0-0.5-0.8-0.5h-0.2v-0.3h5.5L143.6,80.9z"/>
		<path class="st2" d="M145.8,84.7c0,0.4,0,0.4,0.7,0.4v0.3c-0.3,0-0.7,0-1,0c-0.2,0-0.8,0-1.1,0v-0.3c0.7,0,0.8,0,0.8-0.4V82
			c0-0.5-0.1-0.5-0.7-0.5v-0.3l1.4-0.1V84.7z M145.3,79.8c-0.3,0-0.5-0.3-0.5-0.5c0-0.3,0.2-0.5,0.5-0.5c0.3,0,0.5,0.2,0.5,0.5
			S145.6,79.8,145.3,79.8z"/>
		<path class="st2" d="M148.5,84.7c0,0.4,0.1,0.4,0.8,0.4v0.3c-0.4,0-0.9,0-1.1,0c-0.2,0-0.8,0-1.1,0v-0.3c0.7,0,0.8,0,0.8-0.4v-5.2
			c0-0.5-0.1-0.6-0.8-0.6v-0.3l1.4-0.1V84.7z"/>
		<path class="st2" d="M151.3,84.2c0,0.2,0,1.1,0.7,1.1c0.4,0,0.7-0.4,0.7-1.1v-0.5h0.2v0.6c0,0.6-0.3,1.3-1,1.3
			c-0.4,0-1.3-0.1-1.3-1.3v-2.8h-0.8v-0.2c1,0,1.3-1.1,1.3-1.9h0.2v1.8h1.4v0.3h-1.4V84.2z"/>
		<path class="st2" d="M154.8,84.6c0.2,0.4,0.6,0.7,1.1,0.7c0.1,0,1,0,1.3-1c0-0.1,0-0.1,0.1-0.1c0,0,0.1,0,0.1,0.1
			c0,0.2-0.4,1.3-1.7,1.3c-1.1,0-2.2-1-2.2-2.3c0-1.2,0.9-2.3,2.1-2.3c1.2,0,1.8,1,1.8,2c0,0.2,0,0.2-0.2,0.2h-2.8
			C154.5,83.5,154.5,84.1,154.8,84.6z M156.9,82.9c0-0.4-0.1-1.7-1.1-1.7c-0.3,0-1.2,0.2-1.2,1.7H156.9z"/>
		<path class="st2" d="M160.7,81c0.4,0,0.7,0.3,0.7,0.6s-0.2,0.4-0.4,0.4c-0.2,0-0.4-0.1-0.4-0.4c0-0.3,0.2-0.4,0.2-0.4
			c0,0,0,0-0.1,0c-0.8,0-1.2,0.9-1.2,1.9v1.5c0,0.4,0,0.5,0.8,0.5h0.2v0.3c-0.4,0-0.9,0-1.3,0c-0.3,0-0.7,0-1.1,0v-0.3
			c0.7,0,0.8,0,0.8-0.4V82c0-0.5-0.1-0.6-0.8-0.6v-0.3l1.4-0.1v1.1C159.7,81.7,160,81,160.7,81z"/>
	</g>
	<g>
		<path class="st2" d="M164,86c-0.6,1.3-1.5,1.9-1.6,1.9c-0.1,0-0.1,0-0.1-0.1c0,0,0-0.1,0.1-0.2c1.2-1.3,1.6-3,1.6-4.7
			c0-2.1-0.6-3.7-1.5-4.7c-0.2-0.2-0.2-0.2-0.2-0.2c0-0.1,0-0.1,0.1-0.1c0.1,0,1,0.6,1.6,1.9c0.5,1.1,0.7,2.3,0.7,3.1
			C164.6,83.8,164.5,84.9,164,86z"/>
	</g>
	<g>
		<path class="st2" d="M123.3,75.7h-5.2v-0.3h0.2c0.8,0,0.8-0.1,0.8-0.5v-5.3c0-0.4,0-0.5-0.8-0.5h-0.2v-0.3c0.3,0,1.1,0,1.5,0
			c0.4,0,1.3,0,1.7,0v0.3H121c-0.9,0-0.9,0.1-0.9,0.5V75c0,0.3,0,0.4,0.5,0.4h0.8c1.8,0,1.9-1.2,2-2.3h0.2L123.3,75.7z"/>
		<path class="st2" d="M126.3,74.9c0,0.4,0,0.5,0.8,0.5h0.2v0.3c-0.3,0-1.1,0-1.5,0s-1.1,0-1.5,0v-0.3h0.2c0.8,0,0.8-0.1,0.8-0.5
			v-5.3c0-0.4,0-0.5-0.8-0.5h-0.2v-0.3h3.5c1.4,0,2.4,0.9,2.4,1.9c0,1-1.1,1.8-2.3,1.8h-1.7V74.9z M127.7,72.3
			c1.6,0,1.6-1.1,1.6-1.5c0-0.5,0-1.5-1.6-1.5h-0.9c-0.5,0-0.5,0.1-0.5,0.4v2.7H127.7z"/>
	</g>
	<g>
		<path class="st2" d="M137,71.2h-0.2c-0.2-1.4-0.4-1.9-1.9-1.9h-1.2c-0.5,0-0.5,0.1-0.5,0.4v2.5h0.9c1,0,1.1-0.3,1.1-1.2h0.2v2.6
			h-0.2c0-0.8-0.1-1.2-1.1-1.2h-0.9v2.5c0,0.3,0,0.5,0.9,0.5h0.3v0.3c-0.4,0-1.3,0-1.7,0c-0.4,0-1.2,0-1.5,0v-0.3h0.2
			c0.8,0,0.8-0.1,0.8-0.5v-5.2c0-0.4,0-0.5-0.8-0.5h-0.2v-0.3h5.5L137,71.2z"/>
	</g>
	<path class="st1" d="M70.9,121.9V90h120.5v63.8H70.9V121.9z M81.5,132.5h92.1"/>
	<polyline points="129.8,101.7 127.6,97.1 125.3,101.7 127.6,100.5 	"/>
	<line class="st1" x1="127.6" y1="136.1" x2="127.6" y2="100.5"/>
	<path class="st5" d="M106.3,132.5v-14.2 M106.3,118.4h42.5 M148.8,118.4v14.2"/>
	<g>
		<path class="st2" d="M129.4,145.5c-0.4,0.9-1.2,1.2-1.7,1.2c-0.5,0-1.2-0.2-1.6-1c-0.4-0.8-0.4-1.7-0.4-2.4c0-0.8,0-1.6,0.4-2.3
			c0.4-0.9,1.1-1.2,1.7-1.2c0.4,0,1.2,0.2,1.7,1.1c0.3,0.7,0.4,1.5,0.4,2.3C129.7,144,129.7,144.8,129.4,145.5z M128.8,145.2
			c0.1-0.6,0.1-1.3,0.1-2.1c0-0.6,0-1.4-0.1-1.9c-0.2-1-0.8-1.2-1.2-1.2c-0.2,0-1,0.1-1.2,1.3c-0.1,0.5-0.1,1.2-0.1,1.8
			c0,0.6,0,1.5,0.1,2.1c0.2,1,0.8,1.2,1.2,1.2C128.1,146.4,128.6,146.1,128.8,145.2z"/>
	</g>
	<g>
		<path class="st2" d="M140.4,144.2c-0.1,0.5-0.1,0.5-0.3,1c-0.1,0.4-0.2,0.6-0.5,0.6c-0.1,0-0.3-0.1-0.3-0.3c0-0.1,0-0.1,0.1-0.2
			c0.4-0.9,1-2.1,1.3-3.3h-0.6c-0.2,0-0.8,0-1.3,0.8c-0.1,0.1-0.1,0.1-0.2,0.1c-0.1,0-0.1-0.1-0.1-0.1c0,0,0.3-0.5,0.6-0.9
			c0.4-0.5,0.8-0.5,1-0.5h3.3c0.2,0,0.4,0,0.4,0.2c0,0.3-0.4,0.3-0.5,0.3h-1.1c-0.1,0.5-0.2,1.1-0.2,1.6c0,0.3,0,0.9,0.3,1.6
			c0.1,0.1,0.1,0.2,0.1,0.2c0,0.2-0.2,0.4-0.4,0.4c-0.1,0-0.3-0.1-0.4-0.5c-0.1-0.3-0.1-0.6-0.1-0.8c0-0.7,0.1-1.1,0.4-2.6H141
			L140.4,144.2z"/>
		<path class="st2" d="M145.3,147.9c-0.1,0.2-0.1,0.2-0.2,0.2c-0.1,0-0.2-0.1-0.2-0.2c0,0,0,0,0-0.2l3.5-9.5c0-0.1,0.1-0.1,0.2-0.1
			c0.1,0,0.2,0.1,0.2,0.2c0,0,0,0,0,0.2L145.3,147.9z"/>
	</g>
	<g>
		<path class="st2" d="M152.3,144.9c0,0.1,0,0.2,0,0.2c0,0.2,0.1,0.2,0.4,0.2c0.3,0,0.4,0,0.6,0c0.3,0,0.3,0,0.3,0.1
			c0,0.2-0.1,0.2-0.2,0.2c-0.3,0-0.6,0-0.9,0c-0.3,0-0.5,0-0.8,0c-0.3,0-0.6,0-0.8,0c-0.3,0-0.5,0-0.8,0c-0.1,0-0.2,0-0.2-0.1
			c0-0.2,0.1-0.2,0.4-0.2c1.1,0,1.1-0.1,1.2-0.5l1.3-5.3c0,0,0-0.1,0-0.2c0-0.1,0-0.1-0.3-0.1h-0.4c-1.5,0-1.7,0.2-2.3,1.7
			c-0.1,0.2-0.1,0.2-0.2,0.2c-0.1,0-0.1,0-0.1-0.1c0,0,0-0.2,0.1-0.2l0.6-1.8c0.1-0.2,0.1-0.2,0.3-0.2h5.5c0.2,0,0.3,0,0.3,0.1
			c0,0,0,0.1,0,0.2l-0.3,1.7c0,0.1,0,0.2-0.1,0.2c-0.1,0-0.1-0.1-0.1-0.1c0,0,0-0.2,0-0.2c0-0.3,0.1-0.6,0.1-0.8
			c0-0.8-0.4-0.8-1.5-0.8c-0.2,0-0.5,0-0.6,0c-0.1,0-0.2,0.1-0.2,0.4L152.3,144.9z"/>
	</g>
	<g>
		<path class="st2" d="M157.6,144.2c-0.1,0-0.4,0-0.6,0.1c-0.2,0.1-0.3,0.3-0.3,0.4c0,0.2,0.1,0.3,0.4,0.3c0,0,0.2,0,0.3,0.1
			c0.3,0,1,0.2,1,0.8c0,0.3-0.2,1.2-1.5,1.2c-0.7,0-1.1-0.3-1.1-0.7c0-0.3,0.2-0.5,0.4-0.5c0.1,0,0.3,0.1,0.3,0.3
			c0,0.2-0.2,0.4-0.4,0.4c0.2,0.2,0.6,0.3,0.8,0.3c0.1,0,0.4,0,0.7-0.2c0.3-0.2,0.4-0.4,0.4-0.6c0-0.3-0.4-0.4-0.6-0.5
			c-0.5-0.1-0.6-0.1-0.8-0.3c-0.1-0.1-0.2-0.3-0.2-0.5c0-0.2,0.2-1,1.3-1c0.4,0,0.9,0.2,0.9,0.6c0,0.4-0.3,0.4-0.3,0.4
			c-0.1,0-0.2-0.1-0.2-0.2c0-0.1,0.1-0.3,0.3-0.3C158.1,144.3,157.8,144.2,157.6,144.2z"/>
	</g>
	<g>
		<path class="st2" d="M182.9,133.4c-0.4,0.7-0.8,1.4-1.6,1.4c-0.6,0-1-0.5-1.1-1c-0.4,0.5-0.8,1-1.5,1c-0.8,0-1-0.7-1-1.4
			c0-0.9,0.4-2.1,0.9-2.8c0.1-0.1,0.1-0.2,0.3-0.2c0.1,0,0.2,0.1,0.2,0.2c0,0.1-1,1.2-1,2.4c0,0.6,0.2,1.1,0.9,1.1
			c0.6,0,1-0.4,1.4-0.9c0-0.4,0.1-1,0.2-1.2c0.1-0.1,0.2-0.2,0.3-0.2c0.1,0,0.2,0.1,0.2,0.2c0,0.3-0.2,0.9-0.3,1.2
			c0.1,0.5,0.4,0.9,1,0.9c0.5,0,0.8-0.3,1.1-0.8c0.3-0.5,0.5-1,0.5-1.4c0-0.4-0.2-0.7-0.3-0.8c-0.1-0.1-0.1-0.2-0.1-0.3
			c0-0.2,0.3-0.5,0.5-0.5c0.2,0,0.4,0.2,0.4,0.7C183.5,131.5,183.1,132.9,182.9,133.4z"/>
	</g>
	<g>
		<path class="st2" d="M93.1,143.4c-0.2,0-0.3,0-0.3-0.2s0.2-0.2,0.3-0.2h5.4c0.2,0,0.3,0,0.3,0.2s-0.2,0.2-0.3,0.2H93.1z"/>
	</g>
	<g>
		<path class="st2" d="M101.8,144.2c-0.1,0.5-0.1,0.5-0.3,1c-0.1,0.4-0.2,0.6-0.5,0.6c-0.1,0-0.3-0.1-0.3-0.3c0-0.1,0-0.1,0.1-0.2
			c0.4-0.9,1-2.1,1.3-3.3h-0.6c-0.2,0-0.8,0-1.3,0.8c-0.1,0.1-0.1,0.1-0.2,0.1c-0.1,0-0.1-0.1-0.1-0.1c0,0,0.3-0.5,0.6-0.9
			c0.4-0.5,0.8-0.5,1-0.5h3.3c0.2,0,0.4,0,0.4,0.2c0,0.3-0.4,0.3-0.5,0.3h-1.1c-0.1,0.5-0.2,1.1-0.2,1.6c0,0.3,0,0.9,0.3,1.6
			c0.1,0.1,0.1,0.2,0.1,0.2c0,0.2-0.2,0.4-0.4,0.4c-0.1,0-0.3-0.1-0.4-0.5c-0.1-0.3-0.1-0.6-0.1-0.8c0-0.7,0.1-1.1,0.4-2.6h-1.1
			L101.8,144.2z"/>
		<path class="st2" d="M106.7,147.9c-0.1,0.2-0.1,0.2-0.2,0.2c-0.1,0-0.2-0.1-0.2-0.2c0,0,0,0,0-0.2l3.5-9.5c0-0.1,0.1-0.1,0.2-0.1
			c0.1,0,0.2,0.1,0.2,0.2c0,0,0,0,0,0.2L106.7,147.9z"/>
	</g>
	<g>
		<path class="st2" d="M113.7,144.9c0,0.1,0,0.2,0,0.2c0,0.2,0.1,0.2,0.4,0.2c0.3,0,0.4,0,0.6,0c0.3,0,0.3,0,0.3,0.1
			c0,0.2-0.1,0.2-0.2,0.2c-0.3,0-0.6,0-0.9,0c-0.3,0-0.5,0-0.8,0c-0.3,0-0.6,0-0.8,0c-0.3,0-0.5,0-0.8,0c-0.1,0-0.2,0-0.2-0.1
			c0-0.2,0.1-0.2,0.4-0.2c1.1,0,1.1-0.1,1.2-0.5l1.3-5.3c0,0,0-0.1,0-0.2c0-0.1,0-0.1-0.3-0.1h-0.4c-1.5,0-1.7,0.2-2.3,1.7
			c-0.1,0.2-0.1,0.2-0.2,0.2c-0.1,0-0.1,0-0.1-0.1c0,0,0-0.2,0.1-0.2l0.6-1.8c0.1-0.2,0.1-0.2,0.3-0.2h5.5c0.2,0,0.3,0,0.3,0.1
			c0,0,0,0.1,0,0.2l-0.3,1.7c0,0.1,0,0.2-0.1,0.2c-0.1,0-0.1-0.1-0.1-0.1c0,0,0-0.2,0-0.2c0-0.3,0.1-0.6,0.1-0.8
			c0-0.8-0.4-0.8-1.5-0.8c-0.2,0-0.5,0-0.6,0c-0.1,0-0.2,0.1-0.2,0.4L113.7,144.9z"/>
	</g>
	<g>
		<path class="st2" d="M119,144.2c-0.1,0-0.4,0-0.6,0.1c-0.2,0.1-0.3,0.3-0.3,0.4c0,0.2,0.1,0.3,0.4,0.3c0,0,0.2,0,0.3,0.1
			c0.3,0,1,0.2,1,0.8c0,0.3-0.2,1.2-1.5,1.2c-0.7,0-1.1-0.3-1.1-0.7c0-0.3,0.2-0.5,0.4-0.5c0.1,0,0.3,0.1,0.3,0.3
			c0,0.2-0.2,0.4-0.4,0.4c0.2,0.2,0.6,0.3,0.8,0.3c0.1,0,0.4,0,0.7-0.2c0.3-0.2,0.4-0.4,0.4-0.6c0-0.3-0.4-0.4-0.6-0.5
			c-0.5-0.1-0.6-0.1-0.8-0.3c-0.1-0.1-0.2-0.3-0.2-0.5c0-0.2,0.2-1,1.3-1c0.4,0,0.9,0.2,0.9,0.6c0,0.4-0.3,0.4-0.3,0.4
			c-0.1,0-0.2-0.1-0.2-0.2c0-0.1,0.1-0.3,0.3-0.3C119.5,144.3,119.1,144.2,119,144.2z"/>
	</g>
	<g>
		<path class="st2" d="M137.9,102.5c0,0.1,0,0.1,0,0.2c0,0.2,0.3,0.2,0.6,0.2c0.2,0,0.3,0,0.3,0.1c0,0.2-0.1,0.2-0.2,0.2
			c-0.2,0-0.4,0-0.6,0c-0.2,0-0.4,0-0.6,0c-0.3,0-1,0-1.3,0c0,0-0.1,0-0.1-0.1c0-0.2,0.1-0.2,0.2-0.2c0.6,0,0.8,0,0.9-0.3
			c0-0.1,0.3-1.1,0.7-2.8h-3l-0.7,2.7c0,0.1,0,0.1,0,0.2c0,0.2,0.3,0.2,0.6,0.2c0.2,0,0.3,0,0.3,0.1c0,0.2-0.1,0.2-0.2,0.2
			c-0.2,0-0.4,0-0.6,0c-0.2,0-0.4,0-0.6,0c-0.3,0-1,0-1.3,0c0,0-0.1,0-0.1-0.1c0-0.2,0.1-0.2,0.3-0.2c0.8,0,0.8-0.1,0.9-0.5l1.3-5.4
			c0-0.1,0-0.1,0-0.2c0-0.1-0.1-0.1-0.3-0.2c-0.2,0-0.4,0-0.4,0c-0.2,0-0.3,0-0.3-0.1c0-0.2,0.1-0.2,0.2-0.2c0.3,0,1,0,1.3,0
			c0.3,0,1,0,1.3,0c0,0,0.1,0,0.1,0.1c0,0.2-0.1,0.2-0.3,0.2c-0.7,0-0.7,0.1-0.8,0.5l-0.6,2.3h3l0.6-2.4c0-0.1,0-0.1,0-0.2
			c0-0.1-0.1-0.1-0.3-0.2c-0.2,0-0.4,0-0.4,0c-0.2,0-0.3,0-0.3-0.1c0-0.2,0.1-0.2,0.2-0.2c0.3,0,1,0,1.3,0c0.3,0,1,0,1.3,0
			c0,0,0.1,0,0.1,0.1c0,0.2-0.1,0.2-0.3,0.2c-0.7,0-0.7,0.1-0.8,0.5L137.9,102.5z"/>
	</g>
	<g>
		<path class="st2" d="M143.2,101.7c0.1,0,0.2,0.1,0.2,0.2c0,0-0.1,0.4-0.1,0.5l-0.1,0.5c0,0.2-0.1,0.4-0.2,0.6
			c0,0.2-0.1,0.4-0.1,0.6c0,0.2,0,0.3,0.2,0.3c0.3,0,0.4-0.4,0.5-0.7c0-0.2,0.1-0.2,0.2-0.2c0,0,0.1,0,0.1,0.1c0,0-0.1,0.4-0.2,0.7
			c-0.1,0.2-0.3,0.4-0.6,0.4c-0.2,0-0.6-0.1-0.7-0.5c-0.3,0.3-0.6,0.5-1,0.5c-0.6,0-1.1-0.5-1.1-1.2c0-1,0.9-2,1.8-2
			c0.3,0,0.6,0.2,0.7,0.4C142.9,101.8,143.1,101.7,143.2,101.7z M142.7,102.4C142.7,102.4,142.8,102.4,142.7,102.4
			c0-0.2-0.1-0.7-0.6-0.7c-0.2,0-0.6,0.1-0.9,0.7c-0.2,0.3-0.4,1-0.4,1.4c0,0.5,0.3,0.7,0.5,0.7c0.3,0,0.6-0.2,0.6-0.3
			c0.2-0.1,0.3-0.3,0.4-0.5L142.7,102.4z"/>
	</g>
	<g>
		<path class="st2" d="M147.9,105.7c-0.1,0-1-0.6-1.6-1.9c-0.5-1.1-0.7-2.3-0.7-3.1c0-0.8,0.1-1.9,0.6-3c0.6-1.3,1.5-1.9,1.6-1.9
			c0.1,0,0.1,0,0.1,0.1c0,0,0,0-0.1,0.2c-1.2,1.2-1.6,3-1.6,4.7c0,1.5,0.3,3.4,1.6,4.7C148,105.5,148,105.6,147.9,105.7
			C148,105.7,148,105.7,147.9,105.7z"/>
	</g>
	<g>
		<path class="st2" d="M154,102c-0.4,0.7-0.8,1.4-1.6,1.4c-0.6,0-1-0.5-1.1-1c-0.4,0.5-0.8,1-1.5,1c-0.8,0-1-0.7-1-1.4
			c0-0.9,0.4-2.1,0.9-2.8c0.1-0.1,0.1-0.2,0.3-0.2c0.1,0,0.2,0.1,0.2,0.2c0,0.1-1,1.2-1,2.4c0,0.6,0.2,1.1,0.9,1.1
			c0.6,0,1-0.4,1.4-0.9c0-0.4,0.1-1,0.2-1.2c0.1-0.1,0.2-0.2,0.3-0.2c0.1,0,0.2,0.1,0.2,0.2c0,0.3-0.2,0.9-0.3,1.2
			c0.1,0.5,0.4,0.9,1,0.9c0.5,0,0.8-0.3,1.1-0.8c0.3-0.5,0.5-1,0.5-1.4c0-0.4-0.2-0.7-0.3-0.8c-0.1-0.1-0.1-0.2-0.1-0.3
			c0-0.2,0.3-0.5,0.5-0.5c0.2,0,0.4,0.2,0.4,0.7C154.6,100.1,154.2,101.5,154,102z"/>
	</g>
	<g>
		<path class="st2" d="M157.4,103.7c-0.6,1.3-1.5,1.9-1.6,1.9c-0.1,0-0.1,0-0.1-0.1c0,0,0-0.1,0.1-0.2c1.2-1.3,1.6-3,1.6-4.7
			c0-2.1-0.6-3.7-1.5-4.7c-0.2-0.2-0.2-0.2-0.2-0.2c0-0.1,0-0.1,0.1-0.1c0.1,0,1,0.6,1.6,1.9c0.5,1.1,0.7,2.3,0.7,3.1
			C158,101.5,157.9,102.6,157.4,103.7z"/>
	</g>
	<path class="st5" d="M81.5,132.5h24.8 M148.8,132.5h21.3"/>
	<g>
		<path class="st2" d="M357.1,169.6c0.1-0.1,0.2-0.2,0.2-0.4c0-0.3-0.3-0.3-0.4-0.3c-0.1,0-0.1,0-0.1-0.1c0-0.2,0.1-0.2,0.2-0.2
			c0.4,0,0.7,0,1.1,0c0.3,0,0.6,0,0.9,0c0.1,0,0.1,0.1,0.1,0.1c0,0.2-0.1,0.2-0.2,0.2c-0.6,0-1,0.3-1.3,0.5c-0.3,0.3-1.4,1.5-2,2.2
			c0.2,0.6,0.9,2.2,1.3,3.1c0.2,0.4,0.2,0.4,0.9,0.4c0.1,0,0.2,0,0.2,0.1c0,0.2-0.1,0.2-0.2,0.2c-0.2,0-0.9,0-1.1,0
			c-0.3,0-1,0-1.3,0c0,0-0.1,0-0.1-0.1c0-0.2,0.1-0.2,0.2-0.2c0.4,0,0.6-0.2,0.6-0.3c0,0,0,0,0-0.1l-1-2.4l-0.9,1l-1,1.1
			c-0.1,0.1-0.3,0.3-0.3,0.4c0,0.3,0.3,0.3,0.4,0.3c0,0,0.1,0,0.1,0.1c0,0.2-0.1,0.2-0.2,0.2c-0.4,0-0.7,0-1.1,0c-0.3,0-0.6,0-0.9,0
			c-0.1,0-0.1-0.1-0.1-0.1c0-0.2,0.1-0.2,0.2-0.2c0.5,0,1-0.2,1.5-0.7l0.1-0.1l2.1-2.3l-1.2-2.8c-0.1-0.2-0.1-0.3-0.7-0.3
			c-0.1,0-0.2,0-0.2-0.1c0-0.2,0.1-0.2,0.2-0.2c0.2,0,0.9,0,1.1,0c0.4,0,0.8,0,1.3,0c0,0,0.1,0,0.1,0.1c0,0.2-0.1,0.2-0.2,0.2
			c-0.4,0-0.6,0.2-0.6,0.3c0,0,0,0,0,0.1l0.8,2L357.1,169.6z"/>
	</g>
	<g>
		<path class="st2" d="M362.9,177.9c-0.1,0-1-0.6-1.6-1.9c-0.5-1.1-0.7-2.3-0.7-3.1c0-0.8,0.1-1.9,0.6-3c0.6-1.3,1.5-1.9,1.6-1.9
			c0.1,0,0.1,0,0.1,0.1c0,0,0,0-0.1,0.2c-1.2,1.2-1.6,3-1.6,4.7c0,1.5,0.3,3.4,1.6,4.7C363,177.8,363,177.8,362.9,177.9
			C363,177.9,363,177.9,362.9,177.9z"/>
		<path class="st2" d="M365,174.6c0.2,0.4,0.6,0.7,1.1,0.7c0.1,0,1,0,1.3-1c0-0.1,0-0.1,0.1-0.1c0,0,0.1,0,0.1,0.1
			c0,0.2-0.4,1.3-1.7,1.3c-1.1,0-2.2-1-2.2-2.3c0-1.2,0.9-2.3,2.1-2.3c1.2,0,1.8,1,1.8,2c0,0.2,0,0.2-0.2,0.2h-2.8
			C364.7,173.5,364.7,174.1,365,174.6z M367.1,172.9c0-0.4-0.1-1.7-1.1-1.7c-0.3,0-1.2,0.3-1.2,1.7H367.1z"/>
	</g>
	<g>
		<path class="st2" d="M370,172.3c0,0.9-0.6,1.5-1.4,1.5c-0.6,0-1.1-0.3-1.1-0.8c0-0.3,0.2-0.5,0.5-0.5c0.3,0,0.5,0.2,0.5,0.5
			c0,0.3-0.2,0.4-0.3,0.4c0.3,0.1,0.5,0.1,0.5,0.1c0.6,0,0.7-0.9,0.7-1.3v-3.9c0-0.5-0.1-0.6-0.9-0.6v-0.3l1.5-0.1V172.3z
			 M369.5,166.2c-0.3,0-0.5-0.2-0.5-0.5s0.2-0.5,0.5-0.5s0.5,0.2,0.5,0.5S369.8,166.2,369.5,166.2z"/>
	</g>
	<g>
		<path class="st2" d="M372.4,171.9c-0.6,0-1-0.7-1-1.5c0-1.6,1.1-3.5,2.2-3.5c0.7,0,1,0.8,1,1.5C374.6,170,373.5,171.9,372.4,171.9
			z M372.2,169.5c-0.1,0.3-0.2,0.8-0.2,1.3c0,0.4,0.1,0.9,0.4,0.9c0.3,0,0.6-0.3,0.8-0.7c0.2-0.3,0.4-0.7,0.6-1.5H372.2z
			 M373.9,169.3c0.1-0.6,0.2-1,0.2-1.3c0-0.1,0-0.9-0.4-0.9c-0.4,0-1,0.7-1.4,2.2H373.9z"/>
	</g>
	<g>
		<path class="st2" d="M377.7,176c-0.6,1.3-1.5,1.9-1.6,1.9c-0.1,0-0.1,0-0.1-0.1c0,0,0,0,0.1-0.2c1.2-1.3,1.6-3,1.6-4.7
			c0-2.1-0.6-3.7-1.5-4.7c-0.2-0.2-0.2-0.2-0.2-0.2c0-0.1,0-0.1,0.1-0.1c0.1,0,1,0.6,1.6,1.9c0.5,1.1,0.7,2.3,0.7,3.1
			C378.3,173.8,378.2,174.9,377.7,176z"/>
	</g>
	<polyline points="392.3,216.3 396.8,214 392.3,211.8 393.4,214 	"/>
	<line class="st1" x1="297.6" y1="214" x2="393.4" y2="214"/>
	<polyline points="349.5,172.5 347.2,168 345,172.5 347.2,171.4 	"/>
	<line class="st1" x1="347.2" y1="217.6" x2="347.2" y2="171.4"/>
	<path class="st3" d="M326,207l21.3-28.3 M347.2,178.6l21.3,28.3"/>
	<line class="st6" x1="326" y1="207" x2="304.7" y2="178.6"/>
	<line class="st6" x1="368.5" y1="207" x2="389.8" y2="178.6"/>
	<g>
		<path class="st2" d="M349,226.9c-0.4,0.9-1.2,1.2-1.7,1.2c-0.5,0-1.2-0.2-1.6-1c-0.4-0.8-0.4-1.7-0.4-2.4c0-0.8,0-1.6,0.4-2.3
			c0.4-0.9,1.1-1.2,1.7-1.2c0.4,0,1.2,0.2,1.7,1.1c0.3,0.7,0.4,1.5,0.4,2.3C349.3,225.5,349.3,226.2,349,226.9z M348.4,226.6
			c0.1-0.6,0.1-1.3,0.1-2.1c0-0.6,0-1.4-0.1-1.9c-0.2-1-0.8-1.2-1.2-1.2c-0.2,0-1,0.1-1.2,1.3c-0.1,0.5-0.1,1.2-0.1,1.8
			c0,0.6,0,1.5,0.1,2.1c0.2,1,0.8,1.2,1.2,1.2C347.7,227.9,348.2,227.6,348.4,226.6z"/>
	</g>
	<line class="st1" x1="326" y1="217.6" x2="326" y2="210.5"/>
	<g>
		<path class="st2" d="M321.5,224.9v-0.6h2.6v0.6H321.5z"/>
	</g>
	<g>
		<path class="st2" d="M326.8,225.3c-0.1,0.5-0.1,0.5-0.3,1c-0.1,0.4-0.2,0.6-0.5,0.6c-0.1,0-0.3-0.1-0.3-0.3c0-0.1,0-0.1,0.1-0.2
			c0.4-0.9,1-2.1,1.3-3.3h-0.6c-0.2,0-0.8,0-1.3,0.8c-0.1,0.1-0.1,0.1-0.2,0.1c-0.1,0-0.1-0.1-0.1-0.1c0,0,0.3-0.5,0.6-0.9
			c0.4-0.5,0.8-0.5,1-0.5h3.3c0.2,0,0.4,0,0.4,0.2c0,0.3-0.4,0.3-0.5,0.3h-1.1c-0.1,0.5-0.2,1.1-0.2,1.6c0,0.3,0,0.9,0.3,1.6
			c0.1,0.1,0.1,0.2,0.1,0.2c0,0.2-0.2,0.4-0.4,0.4c-0.1,0-0.3-0.1-0.4-0.5c-0.1-0.3-0.1-0.6-0.1-0.8c0-0.7,0.1-1.1,0.4-2.6h-1.1
			L326.8,225.3z"/>
	</g>
	<g>
		<path class="st2" d="M403.1,217.7c-0.9,0-1.2-1.1-1.2-2c0-2.3,1.5-5.1,2.9-5.1c1,0,1.2,1.4,1.2,2
			C406,214.8,404.5,217.7,403.1,217.7z M402.9,214.2c-0.3,1-0.3,1.6-0.3,2c0,0.9,0.2,1.2,0.5,1.2c0.4,0,0.8-0.5,1.2-1.2
			c0.4-0.7,0.6-1.6,0.7-2H402.9z M405.1,213.9c0.2-1,0.3-1.5,0.3-2c0-0.6-0.1-1.2-0.5-1.2c-0.4,0-0.8,0.6-1.1,1
			c-0.4,0.7-0.6,1.5-0.8,2.1H405.1z"/>
	</g>
	<line class="st1" x1="343.7" y1="178.6" x2="350.8" y2="178.6"/>
	<line class="st7" x1="389.8" y1="178.6" x2="393.3" y2="185.7"/>
	<line class="st1" x1="368.5" y1="217.6" x2="368.5" y2="210.5"/>
	<g>
		<path class="st2" d="M367.6,225.3c-0.1,0.5-0.1,0.5-0.3,1c-0.1,0.4-0.2,0.6-0.5,0.6c-0.1,0-0.3-0.1-0.3-0.3c0-0.1,0-0.1,0.1-0.2
			c0.4-0.9,1-2.1,1.3-3.3h-0.6c-0.2,0-0.8,0-1.3,0.8c-0.1,0.1-0.1,0.1-0.2,0.1c-0.1,0-0.1-0.1-0.1-0.1c0,0,0.3-0.5,0.6-0.9
			c0.4-0.5,0.8-0.5,1-0.5h3.3c0.2,0,0.4,0,0.4,0.2c0,0.3-0.4,0.3-0.5,0.3h-1.1c-0.1,0.5-0.2,1.1-0.2,1.6c0,0.3,0,0.9,0.3,1.6
			c0.1,0.1,0.1,0.2,0.1,0.2c0,0.2-0.2,0.4-0.4,0.4c-0.1,0-0.3-0.1-0.4-0.5c-0.1-0.3-0.1-0.6-0.1-0.8c0-0.7,0.1-1.1,0.4-2.6h-1.1
			L367.6,225.3z"/>
	</g>
	<line class="st1" x1="389.8" y1="217.6" x2="389.8" y2="210.5"/>
	<g>
		<path class="st2" d="M387.3,227.1c0.2,0,0.9,0,0.9-0.1c0.1-0.1,0.2-0.6,0.2-0.9h0.2l-0.3,1.7h-3.7c0-0.2,0-0.3,0.1-0.4l1.9-2.1
			c0.5-0.6,1-1.4,1-2.2c0-0.8-0.4-1.6-1.3-1.6c-0.6,0-1.1,0.4-1.3,1c0,0,0,0,0.1,0c0.3,0,0.5,0.3,0.5,0.5c0,0.4-0.3,0.5-0.5,0.5
			c0,0-0.5,0-0.5-0.6c0-0.9,0.7-1.8,1.9-1.8c1.2,0,2.1,0.8,2.1,1.9c0,1-0.6,1.5-2.2,2.9l-1.1,1H387.3z"/>
	</g>
	<g>
		<path class="st2" d="M391.3,226.4c-0.1,0.5-0.1,0.5-0.3,1c-0.1,0.4-0.2,0.6-0.5,0.6c-0.1,0-0.3-0.1-0.3-0.3c0-0.1,0-0.1,0.1-0.2
			c0.4-0.9,1-2.1,1.3-3.3h-0.6c-0.2,0-0.8,0-1.3,0.8c-0.1,0.1-0.1,0.1-0.2,0.1c-0.1,0-0.1-0.1-0.1-0.1c0,0,0.3-0.5,0.6-0.9
			c0.4-0.5,0.8-0.5,1-0.5h3.3c0.2,0,0.4,0,0.4,0.2c0,0.3-0.4,0.3-0.5,0.3h-1.1c-0.1,0.5-0.2,1.1-0.2,1.6c0,0.3,0,0.9,0.3,1.6
			c0.1,0.1,0.1,0.2,0.1,0.2c0,0.2-0.2,0.4-0.4,0.4c-0.1,0-0.3-0.1-0.4-0.5c-0.1-0.3-0.1-0.6-0.1-0.8c0-0.7,0.1-1.1,0.4-2.6h-1.1
			L391.3,226.4z"/>
	</g>
	<line class="st1" x1="304.7" y1="217.6" x2="304.7" y2="210.5"/>
	<g>
		<path class="st2" d="M296.6,225.2c-0.2,0-0.3,0-0.3-0.2s0.2-0.2,0.3-0.2h5.4c0.2,0,0.3,0,0.3,0.2s-0.2,0.2-0.3,0.2H296.6z"/>
	</g>
	<g>
		<path class="st2" d="M306.3,226.7c0.2,0,0.9,0,0.9-0.1c0.1-0.1,0.2-0.6,0.2-0.9h0.2l-0.3,1.7h-3.7c0-0.2,0-0.3,0.1-0.4l1.9-2.1
			c0.5-0.6,1-1.4,1-2.2c0-0.8-0.4-1.6-1.3-1.6c-0.6,0-1.1,0.4-1.3,1c0,0,0,0,0.1,0c0.3,0,0.5,0.3,0.5,0.5c0,0.4-0.3,0.5-0.5,0.5
			c0,0-0.5,0-0.5-0.6c0-0.9,0.7-1.8,1.9-1.8c1.2,0,2.1,0.8,2.1,1.9c0,1-0.6,1.5-2.2,2.9l-1.1,1H306.3z"/>
	</g>
	<g>
		<path class="st2" d="M310.3,226c-0.1,0.5-0.1,0.5-0.3,1c-0.1,0.4-0.2,0.6-0.5,0.6c-0.1,0-0.3-0.1-0.3-0.3c0-0.1,0-0.1,0.1-0.2
			c0.4-0.9,1-2.1,1.3-3.3h-0.6c-0.2,0-0.8,0-1.3,0.8c-0.1,0.1-0.1,0.1-0.2,0.1c-0.1,0-0.1-0.1-0.1-0.1c0,0,0.3-0.5,0.6-0.9
			c0.4-0.5,0.8-0.5,1-0.5h3.3c0.2,0,0.4,0,0.4,0.2c0,0.3-0.4,0.3-0.5,0.3h-1.1c-0.1,0.5-0.2,1.1-0.2,1.6c0,0.3,0,0.9,0.3,1.6
			c0.1,0.1,0.1,0.2,0.1,0.2c0,0.2-0.2,0.4-0.4,0.4c-0.1,0-0.3-0.1-0.4-0.5c-0.1-0.3-0.1-0.6-0.1-0.8c0-0.7,0.1-1.1,0.4-2.6h-1.1
			L310.3,226z"/>
	</g>
	<g>
		<path class="st2" d="M348.3,234.1h-0.2c-0.2-1.4-0.4-1.9-1.9-1.9H345c-0.5,0-0.5,0.1-0.5,0.4v2.5h0.9c1,0,1.1-0.3,1.1-1.2h0.2v2.6
			h-0.2c0-0.8-0.1-1.2-1.1-1.2h-0.9v2.5c0,0.3,0,0.5,0.9,0.5h0.3v0.3c-0.4,0-1.3,0-1.7,0c-0.4,0-1.2,0-1.5,0v-0.3h0.2
			c0.8,0,0.8-0.1,0.8-0.5v-5.2c0-0.4,0-0.5-0.8-0.5h-0.2v-0.3h5.5L348.3,234.1z"/>
		<path class="st2" d="M350.9,237.9c0,0.4,0,0.5,0.8,0.5h0.3v0.3c-0.3,0-1.1,0-1.5,0c-0.4,0-1.2,0-1.5,0v-0.3h0.3
			c0.8,0,0.8-0.1,0.8-0.5v-5.3c0-0.4,0-0.5-0.8-0.5H349v-0.3c0.3,0,1.1,0,1.5,0c0.4,0,1.2,0,1.5,0v0.3h-0.3c-0.8,0-0.8,0.1-0.8,0.5
			V237.9z"/>
	</g>
	<polyline points="330.5,233 326,235.3 330.5,237.6 329.4,235.3 	"/>
	<line class="st1" x1="340.2" y1="235.3" x2="329.4" y2="235.3"/>
	<polyline points="364,237.6 368.5,235.3 364,233 365.1,235.3 	"/>
	<line class="st1" x1="354.3" y1="235.3" x2="365.1" y2="235.3"/>
	<line class="st7" x1="304.7" y1="178.6" x2="301.2" y2="185.7"/>
	<path class="st3" d="M368.5,214V207 M326,214V207"/>
	<g>
		<path class="st2" d="M216.1,164.7c0.1-0.1,0.2-0.2,0.2-0.4c0-0.3-0.3-0.3-0.4-0.3c-0.1,0-0.1,0-0.1-0.1c0-0.2,0.1-0.2,0.2-0.2
			c0.4,0,0.7,0,1.1,0c0.3,0,0.6,0,0.9,0c0.1,0,0.1,0.1,0.1,0.1c0,0.2-0.1,0.2-0.2,0.2c-0.6,0-1,0.3-1.3,0.5c-0.3,0.3-1.4,1.5-2,2.2
			c0.2,0.6,0.9,2.2,1.3,3.1c0.2,0.4,0.2,0.4,0.9,0.4c0.1,0,0.2,0,0.2,0.1c0,0.2-0.1,0.2-0.2,0.2c-0.2,0-0.9,0-1.1,0
			c-0.3,0-1,0-1.3,0c0,0-0.1,0-0.1-0.1c0-0.2,0.1-0.2,0.2-0.2c0.4,0,0.6-0.2,0.6-0.3c0,0,0,0,0-0.1l-1-2.4l-0.9,1l-1,1.1
			c-0.1,0.1-0.3,0.3-0.3,0.4c0,0.3,0.3,0.3,0.4,0.3c0,0,0.1,0,0.1,0.1c0,0.2-0.1,0.2-0.2,0.2c-0.4,0-0.7,0-1.1,0c-0.3,0-0.6,0-0.9,0
			c-0.1,0-0.1-0.1-0.1-0.1c0-0.2,0.1-0.2,0.2-0.2c0.5,0,1-0.2,1.5-0.7l0.1-0.1l2.1-2.3l-1.2-2.8c-0.1-0.2-0.1-0.3-0.7-0.3
			c-0.1,0-0.2,0-0.2-0.1c0-0.2,0.1-0.2,0.2-0.2c0.2,0,0.9,0,1.1,0c0.4,0,0.8,0,1.3,0c0,0,0.1,0,0.1,0.1c0,0.2-0.1,0.2-0.2,0.2
			c-0.4,0-0.6,0.2-0.6,0.3c0,0,0,0,0,0.1l0.8,2L216.1,164.7z"/>
	</g>
	<g>
		<path class="st2" d="M221.2,169c0.1,0,0.2,0.1,0.2,0.2c0,0-0.1,0.4-0.1,0.5l-0.1,0.5c0,0.2-0.1,0.4-0.2,0.6c0,0.2-0.1,0.4-0.1,0.6
			c0,0.2,0,0.3,0.2,0.3c0.3,0,0.4-0.4,0.5-0.7c0-0.2,0.1-0.2,0.2-0.2c0,0,0.1,0,0.1,0.1c0,0-0.1,0.4-0.2,0.7
			c-0.1,0.2-0.3,0.4-0.6,0.4c-0.2,0-0.6-0.1-0.7-0.5c-0.3,0.3-0.6,0.5-1,0.5c-0.6,0-1.1-0.5-1.1-1.2c0-1,0.9-2,1.8-2
			c0.3,0,0.6,0.2,0.7,0.4C220.9,169.1,221.1,169,221.2,169z M220.7,169.8C220.7,169.8,220.8,169.7,220.7,169.8
			c0-0.2-0.1-0.7-0.6-0.7c-0.2,0-0.6,0.1-0.9,0.7c-0.2,0.3-0.4,1-0.4,1.4c0,0.5,0.3,0.7,0.5,0.7c0.3,0,0.6-0.2,0.6-0.3
			c0.2-0.1,0.3-0.3,0.4-0.5L220.7,169.8z"/>
	</g>
	<g>
		<path class="st2" d="M225.8,173c-0.1,0-1-0.6-1.6-1.9c-0.5-1.1-0.7-2.3-0.7-3.1c0-0.8,0.1-1.9,0.6-3c0.6-1.3,1.5-1.9,1.6-1.9
			c0.1,0,0.1,0,0.1,0.1c0,0,0,0-0.1,0.2c-1.2,1.2-1.6,3-1.6,4.7c0,1.5,0.3,3.4,1.6,4.7C225.9,172.9,225.9,172.9,225.8,173
			C225.9,173,225.8,173,225.8,173z"/>
	</g>
	<g>
		<path class="st2" d="M231.8,169.3c-0.4,0.7-0.8,1.4-1.6,1.4c-0.6,0-1-0.5-1.1-1c-0.4,0.5-0.8,1-1.5,1c-0.8,0-1-0.7-1-1.4
			c0-0.9,0.4-2.1,0.9-2.8c0.1-0.1,0.1-0.2,0.3-0.2c0.1,0,0.2,0.1,0.2,0.2c0,0.1-1,1.2-1,2.4c0,0.6,0.2,1.1,0.9,1.1
			c0.6,0,1-0.4,1.4-0.9c0-0.4,0.1-1,0.2-1.2c0.1-0.1,0.2-0.2,0.3-0.2c0.1,0,0.2,0.1,0.2,0.2c0,0.3-0.2,0.9-0.3,1.2
			c0.1,0.5,0.4,0.9,1,0.9c0.5,0,0.8-0.3,1.1-0.8c0.3-0.5,0.5-1,0.5-1.4c0-0.4-0.2-0.7-0.3-0.8c-0.1-0.1-0.1-0.2-0.1-0.3
			c0-0.2,0.3-0.5,0.5-0.5c0.2,0,0.4,0.2,0.4,0.7C232.5,167.4,232.1,168.8,231.8,169.3z"/>
	</g>
	<g>
		<path class="st2" d="M235.3,171.1c-0.6,1.3-1.5,1.9-1.6,1.9c-0.1,0-0.1,0-0.1-0.1c0,0,0,0,0.1-0.2c1.2-1.3,1.6-3,1.6-4.7
			c0-2.1-0.6-3.7-1.5-4.7c-0.2-0.2-0.2-0.2-0.2-0.2c0-0.1,0-0.1,0.1-0.1c0.1,0,1,0.6,1.6,1.9c0.5,1.1,0.7,2.3,0.7,3.1
			C235.9,168.9,235.8,170,235.3,171.1z"/>
	</g>
	<polyline points="250.6,216.3 255.1,214 250.6,211.8 251.7,214 	"/>
	<line class="st1" x1="159.4" y1="214" x2="251.7" y2="214"/>
	<polyline points="207.8,172.5 205.5,168 203.2,172.5 205.5,171.4 	"/>
	<line class="st1" x1="205.5" y1="217.6" x2="205.5" y2="171.4"/>
	<path class="st3" d="M184.3,207l21.3-28.3 M205.5,178.6l21.3,28.3"/>
	<g>
		<path class="st2" d="M207.2,226.9c-0.4,0.9-1.2,1.2-1.7,1.2c-0.5,0-1.2-0.2-1.6-1c-0.4-0.8-0.4-1.7-0.4-2.4c0-0.8,0-1.6,0.4-2.3
			c0.4-0.9,1.1-1.2,1.7-1.2c0.4,0,1.2,0.2,1.7,1.1c0.3,0.7,0.4,1.5,0.4,2.3C207.6,225.5,207.6,226.2,207.2,226.9z M206.7,226.6
			c0.1-0.6,0.1-1.3,0.1-2.1c0-0.6,0-1.4-0.1-1.9c-0.2-1-0.8-1.2-1.2-1.2c-0.2,0-1,0.1-1.2,1.3c-0.1,0.5-0.1,1.2-0.1,1.8
			c0,0.6,0,1.5,0.1,2.1c0.2,1,0.8,1.2,1.2,1.2C206,227.9,206.5,227.6,206.7,226.6z"/>
	</g>
	<g>
		<path class="st2" d="M177.2,224v-0.6h2.6v0.6H177.2z"/>
	</g>
	<g>
		<path class="st2" d="M185.2,221.1c-0.2,0.6-0.2,0.9-0.5,0.9c-0.2,0-0.2-0.1-0.2-0.2c0,0,0-0.1,0-0.1c0,0,0.1-0.2,0.1-0.3
			c0.2-0.4,0.6-1.2,0.8-2H185c-0.2,0-0.6,0-0.9,0.5c0,0.1,0,0.1-0.1,0.1c0,0-0.1,0-0.1-0.1c0-0.1,0.3-0.4,0.5-0.6
			c0.3-0.3,0.5-0.4,0.8-0.4h2.6c0.1,0,0.3,0,0.3,0.2c0,0,0,0.1-0.1,0.2c-0.1,0.1-0.1,0.1-0.3,0.1h-0.9c-0.1,0.5-0.1,0.8-0.1,0.9
			c0,0.6,0.1,1,0.3,1.2c0,0.1,0.1,0.1,0.1,0.2c0,0.2-0.2,0.3-0.3,0.3c-0.1,0-0.2,0-0.3-0.4c0-0.2-0.1-0.3-0.1-0.6
			c0-0.6,0.2-1.2,0.3-1.6h-0.8L185.2,221.1z"/>
	</g>
	<polyline points="181.7,223.7 190.3,223.7 190.3,223.2 181.7,223.2 	"/>
	<g>
		<path class="st2" d="M184.1,228.8c0,0.1,0,0.1,0,0.2c0,0.1,0,0.1,0.3,0.1c0.1,0,0.3,0,0.4,0c0.2,0,0.3,0,0.3,0.1
			c0,0.2-0.1,0.2-0.2,0.2c-0.2,0-0.4,0-0.6,0c-0.2,0-0.4,0-0.6,0s-0.4,0-0.6,0s-0.4,0-0.6,0c-0.1,0-0.1-0.1-0.1-0.1
			c0-0.2,0.1-0.2,0.3-0.2c0.7,0,0.8-0.1,0.8-0.3l0.9-3.7c0-0.1,0-0.1,0-0.1c0-0.1,0-0.1-0.2-0.1h-0.3c-1.1,0-1.3,0.1-1.7,1.2
			c0,0.1-0.1,0.2-0.1,0.2c-0.1,0-0.1-0.1-0.1-0.1c0,0,0-0.1,0-0.1l0.4-1.2c0-0.1,0.1-0.1,0.2-0.1h4.3c0.1,0,0.2,0,0.2,0.1L187,226
			c0,0.1,0,0.2-0.1,0.2c-0.1,0-0.1,0-0.1-0.1l0-0.1c0-0.4,0-0.5,0-0.6c0-0.3,0-0.5-0.3-0.6c-0.2-0.1-0.4-0.1-0.8-0.1
			c-0.1,0-0.4,0-0.4,0c-0.2,0-0.2,0-0.2,0.2L184.1,228.8z"/>
	</g>
	<g>
		<path class="st2" d="M188.3,228.2c-0.7,0-0.7,0.4-0.7,0.4c0,0.2,0.2,0.2,0.6,0.3c0.3,0,0.8,0.1,0.8,0.6c0,0.2-0.2,0.8-1.2,0.8
			c-0.1,0-0.9,0-0.9-0.5c0-0.2,0.1-0.4,0.3-0.4c0.1,0,0.2,0.1,0.2,0.2c0,0.1-0.1,0.3-0.3,0.3c0.2,0.2,0.5,0.2,0.7,0.2
			c0.9,0,0.9-0.5,0.9-0.5c0-0.3-0.3-0.3-0.7-0.4c-0.3,0-0.4-0.1-0.6-0.2c-0.1-0.1-0.2-0.2-0.2-0.4c0-0.2,0.2-0.7,1-0.7
			c0.4,0,0.8,0.1,0.8,0.4c0,0.3-0.2,0.3-0.3,0.3c-0.1,0-0.2-0.1-0.2-0.2c0,0,0-0.2,0.2-0.2C188.7,228.2,188.5,228.2,188.3,228.2z"/>
	</g>
	<g>
		<path class="st2" d="M264.4,215c-0.4,0.7-0.8,1.4-1.6,1.4c-0.6,0-1-0.5-1.1-1c-0.4,0.5-0.8,1-1.5,1c-0.8,0-1-0.7-1-1.4
			c0-0.9,0.4-2.1,0.9-2.8c0.1-0.1,0.1-0.2,0.3-0.2c0.1,0,0.2,0.1,0.2,0.2c0,0.1-1,1.2-1,2.4c0,0.6,0.2,1.1,0.9,1.1
			c0.6,0,1-0.4,1.4-0.9c0-0.4,0.1-1,0.2-1.2c0.1-0.1,0.2-0.2,0.3-0.2c0.1,0,0.2,0.1,0.2,0.2c0,0.3-0.2,0.9-0.3,1.2
			c0.1,0.5,0.4,0.9,1,0.9c0.5,0,0.8-0.3,1.1-0.8c0.3-0.5,0.5-1,0.5-1.4c0-0.4-0.2-0.7-0.3-0.8c-0.1-0.1-0.1-0.2-0.1-0.3
			c0-0.2,0.3-0.5,0.5-0.5c0.2,0,0.4,0.2,0.4,0.7C265,213.1,264.6,214.5,264.4,215z"/>
	</g>
	<g>
		<path class="st2" d="M226.1,221.1c-0.2,0.6-0.2,0.9-0.5,0.9c-0.2,0-0.2-0.1-0.2-0.2c0,0,0-0.1,0-0.1c0,0,0.1-0.2,0.1-0.3
			c0.2-0.4,0.6-1.2,0.8-2h-0.4c-0.2,0-0.6,0-0.9,0.5c0,0.1,0,0.1-0.1,0.1c0,0-0.1,0-0.1-0.1c0-0.1,0.3-0.4,0.5-0.6
			c0.3-0.3,0.5-0.4,0.8-0.4h2.6c0.1,0,0.3,0,0.3,0.2c0,0,0,0.1-0.1,0.2c-0.1,0.1-0.1,0.1-0.3,0.1h-0.9c-0.1,0.5-0.1,0.8-0.1,0.9
			c0,0.6,0.1,1,0.3,1.2c0,0.1,0.1,0.1,0.1,0.2c0,0.2-0.2,0.3-0.3,0.3c-0.1,0-0.2,0-0.3-0.4c0-0.2-0.1-0.3-0.1-0.6
			c0-0.6,0.2-1.2,0.3-1.6h-0.8L226.1,221.1z"/>
	</g>
	<polyline points="222.6,223.7 231.2,223.7 231.2,223.2 222.6,223.2 	"/>
	<g>
		<path class="st2" d="M225.1,228.8c0,0.1,0,0.1,0,0.2c0,0.1,0,0.1,0.3,0.1c0.1,0,0.3,0,0.4,0c0.2,0,0.3,0,0.3,0.1
			c0,0.2-0.1,0.2-0.2,0.2c-0.2,0-0.4,0-0.6,0c-0.2,0-0.4,0-0.6,0c-0.2,0-0.4,0-0.6,0s-0.4,0-0.6,0c-0.1,0-0.1-0.1-0.1-0.1
			c0-0.2,0.1-0.2,0.3-0.2c0.7,0,0.8-0.1,0.8-0.3l0.9-3.7c0-0.1,0-0.1,0-0.1c0-0.1,0-0.1-0.2-0.1h-0.3c-1.1,0-1.3,0.1-1.7,1.2
			c0,0.1-0.1,0.2-0.1,0.2c-0.1,0-0.1-0.1-0.1-0.1c0,0,0-0.1,0-0.1l0.4-1.2c0-0.1,0.1-0.1,0.2-0.1h4.3c0.1,0,0.2,0,0.2,0.1l-0.2,1.3
			c0,0.1,0,0.2-0.1,0.2c-0.1,0-0.1,0-0.1-0.1l0-0.1c0-0.4,0-0.5,0-0.6c0-0.3,0-0.5-0.3-0.6c-0.2-0.1-0.4-0.1-0.8-0.1
			c-0.1,0-0.4,0-0.4,0c-0.2,0-0.2,0-0.2,0.2L225.1,228.8z"/>
	</g>
	<g>
		<path class="st2" d="M229.3,228.2c-0.7,0-0.7,0.4-0.7,0.4c0,0.2,0.2,0.2,0.6,0.3c0.3,0,0.8,0.1,0.8,0.6c0,0.2-0.2,0.8-1.2,0.8
			c-0.1,0-0.9,0-0.9-0.5c0-0.2,0.1-0.4,0.3-0.4c0.1,0,0.2,0.1,0.2,0.2c0,0.1-0.1,0.3-0.3,0.3c0.2,0.2,0.5,0.2,0.7,0.2
			c0.9,0,0.9-0.5,0.9-0.5c0-0.3-0.3-0.3-0.7-0.4c-0.3,0-0.4-0.1-0.6-0.2c-0.1-0.1-0.2-0.2-0.2-0.4c0-0.2,0.2-0.7,1-0.7
			c0.4,0,0.8,0.1,0.8,0.4c0,0.3-0.2,0.3-0.3,0.3c-0.1,0-0.2-0.1-0.2-0.2c0,0,0-0.2,0.2-0.2C229.7,228.2,229.4,228.2,229.3,228.2z"/>
	</g>
	<line class="st8" x1="184.3" y1="214" x2="184.3" y2="178.6"/>
	<line class="st9" x1="184.3" y1="178.6" x2="226.8" y2="178.6"/>
	<line class="st8" x1="226.8" y1="214" x2="226.8" y2="178.6"/>
	<line class="st10" x1="226.8" y1="214" x2="251.6" y2="214"/>
	<line class="st10" x1="184.3" y1="214" x2="159.4" y2="214"/>
	<path class="st1" d="M226.8,217.6v-7.1 M184.3,217.6v-7.1"/>
	<polygon class="st11" points="226.8,214 226.8,207 226.8,207 226.8,207 233.9,214 233.9,214 233.9,214 233.9,214 233.9,214 
		226.8,214 	"/>
	<polygon class="st12" points="226.8,214 226.8,207 226.8,207 226.8,207 233.9,214 233.9,214 233.9,214 233.9,214 233.9,214 
		226.8,214 	"/>
	<polygon class="st11" points="177.2,214 184.3,214 184.3,214 184.3,214 184.3,207 184.3,207 184.3,207 184.3,207 184.3,207 
		177.2,214 	"/>
	<polygon class="st12" points="177.2,214 184.3,214 184.3,214 184.3,214 184.3,207 184.3,207 184.3,207 184.3,207 184.3,207 
		177.2,214 	"/>
	<polyline class="st11" points="172.4,205.4 177.2,207 175.6,202.1 174.8,204.6 	"/>
	<line class="st13" x1="170.1" y1="199.9" x2="174.8" y2="204.6"/>
	<g>
		<path class="st2" d="M151.7,189.2c1,0,1.5,0.5,1.8,0.9l0.5-0.7c0.1-0.1,0.1-0.1,0.2-0.1c0.1,0,0.1,0.1,0.1,0.2v2.4
			c0,0.2,0,0.2-0.2,0.2c-0.1,0-0.1,0-0.2-0.2c-0.2-1.5-1.1-2.4-2.2-2.4c-0.6,0-2.6,0.3-2.6,3.3c0,3,2,3.3,2.6,3.3
			c1.1,0,2.2-0.8,2.2-2.2c0-0.1,0-0.2,0.1-0.2c0.1,0,0.1,0.1,0.1,0.2c0,1.2-1,2.5-2.6,2.5c-1.9,0-3.5-1.6-3.5-3.6
			C148.3,190.7,149.9,189.2,151.7,189.2z"/>
		<path class="st2" d="M157.5,196.3c-1.5,0-1.5-0.9-1.5-1.7v-1.5c0-0.9,0-0.9-0.8-0.9v-0.3l1.5-0.1v3.3c0,0.5,0,1,0.9,1
			c0.7,0,1.2-0.7,1.2-1.5v-1.8c0-0.5-0.1-0.6-0.8-0.6v-0.3l1.5-0.1v3.5c0,0.5,0.1,0.6,0.8,0.6v0.3l-1.4,0.1v-0.9
			C158.5,196,158.1,196.3,157.5,196.3z"/>
	</g>
	<g>
		<path class="st2" d="M162.1,195c0,0.2,0,1.1,0.7,1.1c0.4,0,0.7-0.4,0.7-1.1v-0.5h0.2v0.6c0,0.6-0.3,1.3-1,1.3
			c-0.4,0-1.3-0.1-1.3-1.3v-2.8h-0.8V192c1,0,1.3-1.1,1.3-1.9h0.2v1.8h1.4v0.3h-1.4V195z"/>
		<path class="st2" d="M170.1,196.3c-1.2,0-2.2-1-2.2-2.2c0-1.2,1-2.3,2.2-2.3c1.2,0,2.2,1.1,2.2,2.3
			C172.3,195.3,171.3,196.3,170.1,196.3z M171.3,195.3c0.2-0.4,0.2-1,0.2-1.3c0-0.4,0-1-0.3-1.4c-0.3-0.4-0.7-0.6-1.1-0.6
			c-0.4,0-0.9,0.2-1.1,0.7c-0.2,0.4-0.2,1-0.2,1.4c0,0.4,0,1,0.2,1.4c0.3,0.5,0.7,0.7,1.1,0.7C170.6,196,171.1,195.8,171.3,195.3z"
			/>
	</g>
	<g>
		<path class="st2" d="M177.1,195.4c0,0.4,0,0.5,0.8,0.5h0.2v0.3c-0.4,0-0.9,0-1.3,0c-0.3,0-0.7,0-1.1,0v-0.3c0.7,0,0.8,0,0.8-0.4
			v-3.2h-2.1v3.2c0,0.4,0.1,0.4,0.8,0.4v0.3c-0.4,0-0.9,0-1.1,0c-0.2,0-0.8,0-1.1,0v-0.3c0.7,0,0.8,0,0.8-0.4v-3.2h-0.8v-0.3h0.8
			v-1.1c0-1.1,1.2-1.6,2.1-1.6c0.3,0,0.8,0,1.1,0.4c0,0,0.5-0.4,1.1-0.4c0.6,0,0.9,0.3,0.9,0.7c0,0.2-0.1,0.4-0.4,0.4
			c-0.3,0-0.4-0.2-0.4-0.4c0-0.2,0.2-0.4,0.3-0.4c-0.1-0.1-0.3-0.1-0.3-0.1c-0.4,0-0.9,0.5-0.9,1.4v1.2h1.2v0.3h-1.1V195.4z
			 M176.5,191.9v-1.1c0-0.1,0-0.2,0-0.3c-0.3-0.1-0.3-0.3-0.3-0.4c0-0.3,0.2-0.4,0.4-0.4v0c0,0-0.3-0.2-0.8-0.2
			c-0.6,0-1.5,0.4-1.5,1.4v1.1H176.5z"/>
	</g>
	<polyline class="st11" points="235.5,202.1 233.9,207 238.7,205.4 236.3,204.6 	"/>
	<line class="st13" x1="240.9" y1="199.9" x2="236.3" y2="204.6"/>
	<g>
		<path class="st2" d="M236.7,189.2c1,0,1.5,0.5,1.8,0.9l0.5-0.7c0.1-0.1,0.1-0.1,0.2-0.1c0.1,0,0.1,0.1,0.1,0.2v2.4
			c0,0.2,0,0.2-0.2,0.2c-0.1,0-0.1,0-0.2-0.2c-0.2-1.5-1.1-2.4-2.2-2.4c-0.6,0-2.6,0.3-2.6,3.3c0,3,2,3.3,2.6,3.3
			c1.1,0,2.2-0.8,2.2-2.2c0-0.1,0-0.2,0.1-0.2c0.1,0,0.1,0.1,0.1,0.2c0,1.2-1,2.5-2.6,2.5c-1.9,0-3.5-1.6-3.5-3.6
			C233.2,190.7,234.8,189.2,236.7,189.2z"/>
		<path class="st2" d="M242.5,196.3c-1.5,0-1.5-0.9-1.5-1.7v-1.5c0-0.9,0-0.9-0.8-0.9v-0.3l1.5-0.1v3.3c0,0.5,0,1,0.9,1
			c0.7,0,1.2-0.7,1.2-1.5v-1.8c0-0.5-0.1-0.6-0.8-0.6v-0.3l1.5-0.1v3.5c0,0.5,0.1,0.6,0.8,0.6v0.3l-1.4,0.1v-0.9
			C243.5,196,243,196.3,242.5,196.3z"/>
	</g>
	<g>
		<path class="st2" d="M247.1,195c0,0.2,0,1.1,0.7,1.1c0.4,0,0.7-0.4,0.7-1.1v-0.5h0.2v0.6c0,0.6-0.3,1.3-1,1.3
			c-0.4,0-1.3-0.1-1.3-1.3v-2.8h-0.8V192c1,0,1.3-1.1,1.3-1.9h0.2v1.8h1.4v0.3h-1.4V195z"/>
		<path class="st2" d="M255.1,196.3c-1.2,0-2.2-1-2.2-2.2c0-1.2,1-2.3,2.2-2.3c1.2,0,2.2,1.1,2.2,2.3
			C257.3,195.3,256.3,196.3,255.1,196.3z M256.2,195.3c0.2-0.4,0.2-1,0.2-1.3c0-0.4,0-1-0.3-1.4c-0.3-0.4-0.7-0.6-1.1-0.6
			c-0.4,0-0.9,0.2-1.1,0.7c-0.2,0.4-0.2,1-0.2,1.4c0,0.4,0,1,0.2,1.4c0.3,0.5,0.7,0.7,1.1,0.7C255.6,196,256,195.8,256.2,195.3z"/>
	</g>
	<g>
		<path class="st2" d="M262.1,195.4c0,0.4,0,0.5,0.8,0.5h0.2v0.3c-0.4,0-0.9,0-1.3,0c-0.3,0-0.7,0-1.1,0v-0.3c0.7,0,0.8,0,0.8-0.4
			v-3.2h-2.1v3.2c0,0.4,0.1,0.4,0.8,0.4v0.3c-0.4,0-0.9,0-1.1,0s-0.8,0-1.1,0v-0.3c0.7,0,0.8,0,0.8-0.4v-3.2h-0.8v-0.3h0.8v-1.1
			c0-1.1,1.2-1.6,2.1-1.6c0.3,0,0.8,0,1.1,0.4c0,0,0.5-0.4,1.1-0.4c0.6,0,0.9,0.3,0.9,0.7c0,0.2-0.1,0.4-0.4,0.4
			c-0.3,0-0.4-0.2-0.4-0.4c0-0.2,0.2-0.4,0.3-0.4c-0.1-0.1-0.3-0.1-0.3-0.1c-0.4,0-0.9,0.5-0.9,1.4v1.2h1.2v0.3h-1.1V195.4z
			 M261.4,191.9v-1.1c0-0.1,0-0.2,0-0.3c-0.3-0.1-0.3-0.3-0.3-0.4c0-0.3,0.2-0.4,0.4-0.4v0c0,0-0.3-0.2-0.8-0.2
			c-0.6,0-1.5,0.4-1.5,1.4v1.1H261.4z"/>
	</g>
	<polygon class="st1" points="248,121.9 248,100.7 304.7,100.7 304.7,143.2 248,143.2 	"/>
	<g>
		<path class="st2" d="M272.5,123.7c0.1,0.3,0.2,0.4,0.8,0.4h0.2v0.3c-0.4,0-0.9,0-1.3,0c-0.4,0-1.1,0-1.4,0v-0.3
			c0.3,0,0.8,0,0.8-0.3c0,0,0-0.1,0-0.1l-0.5-1.5h-2.5l-0.5,1.3c0,0,0,0.1,0,0.1c0,0.3,0.2,0.5,0.7,0.5v0.3c-0.3,0-0.8,0-1.1,0
			c-0.4,0-0.8,0-1,0v-0.3c0.5,0,0.9-0.2,1.1-0.7l2.1-6c0-0.1,0.1-0.2,0.2-0.2s0.2,0.1,0.2,0.2L272.5,123.7z M268.7,121.8h2.2
			l-1.1-3.2L268.7,121.8z"/>
		<path class="st2" d="M274.8,126.7c0,0.1-0.1,0.2-0.2,0.2c-0.1,0-0.2-0.1-0.2-0.2c0,0,0,0,0-0.2l3.4-9.4c0-0.1,0.1-0.2,0.2-0.2
			c0.1,0,0.2,0.1,0.2,0.2c0,0,0,0,0,0.2L274.8,126.7z"/>
	</g>
	<g>
		<path class="st2" d="M282.9,117.6c1.7,0,3,1.6,3,3.5c0,1.9-1.4,3.3-3,3.3h-3.6v-0.3h0.2c0.8,0,0.8-0.1,0.8-0.5v-5.3
			c0-0.4,0-0.5-0.8-0.5h-0.2v-0.3H282.9z M282.6,124.1c1,0,1.6-0.6,1.8-0.8c0.4-0.5,0.5-1.1,0.5-2.2c0-0.8-0.1-1.6-0.5-2.2
			c-0.5-0.7-1.2-0.9-1.8-0.9h-1c-0.5,0-0.5,0.1-0.5,0.4v5.4c0,0.3,0,0.4,0.5,0.4H282.6z"/>
	</g>
	<polyline points="278.6,147.7 276.4,143.2 274.1,147.7 276.4,146.6 	"/>
	<line class="st1" x1="276.4" y1="153.8" x2="276.4" y2="146.6"/>
	<g>
		<path class="st2" d="M258.3,166.1c0,0.1-0.2,1.3-0.6,1.9c-0.2,0.4-0.6,1-1.1,1c-0.4,0-0.8-0.2-0.8-0.7c0-0.4,0.3-0.6,0.5-0.6
			c0.2,0,0.4,0.1,0.4,0.3c0,0.1-0.1,0.5-0.5,0.5c0.2,0.2,0.4,0.2,0.5,0.2c0.5,0,0.7-0.9,0.9-1.9l0.7-3.9h-0.7c-0.2,0-0.3,0-0.3-0.1
			c0-0.2,0.1-0.2,0.3-0.2h0.7c0.2-1.3,0.3-1.4,0.3-1.6c0.3-1,0.9-1.2,1.3-1.2c0.4,0,0.9,0.2,0.9,0.7c0,0.4-0.3,0.6-0.5,0.6
			c-0.2,0-0.4-0.1-0.4-0.3c0-0.1,0.1-0.5,0.5-0.5c-0.2-0.2-0.4-0.2-0.5-0.2c-0.2,0-0.4,0.1-0.5,0.3c-0.1,0.1-0.2,0.8-0.2,1l-0.2,1.1
			h0.8c0.2,0,0.3,0,0.3,0.1c0,0.2-0.1,0.2-0.3,0.2h-0.9L258.3,166.1z"/>
	</g>
	<g>
		<path class="st2" d="M262.5,165.5c-0.1,0-0.4,0-0.6,0.1c-0.2,0.1-0.3,0.3-0.3,0.4c0,0.2,0.1,0.3,0.4,0.3c0,0,0.2,0,0.3,0.1
			c0.3,0,1,0.2,1,0.8c0,0.3-0.2,1.2-1.5,1.2c-0.7,0-1.1-0.3-1.1-0.7c0-0.3,0.2-0.5,0.4-0.5c0.1,0,0.3,0.1,0.3,0.3
			c0,0.2-0.2,0.4-0.4,0.4c0.2,0.2,0.6,0.3,0.8,0.3c0.1,0,0.4,0,0.7-0.2c0.3-0.2,0.4-0.4,0.4-0.6c0-0.3-0.4-0.4-0.6-0.5
			c-0.5-0.1-0.6-0.1-0.8-0.3c-0.1-0.1-0.2-0.3-0.2-0.5c0-0.2,0.2-1,1.3-1c0.4,0,0.9,0.2,0.9,0.6c0,0.4-0.3,0.4-0.3,0.4
			c-0.1,0-0.2-0.1-0.2-0.2c0-0.1,0.1-0.3,0.3-0.3C263,165.5,262.6,165.5,262.5,165.5z"/>
	</g>
	<g>
		<path class="st2" d="M268,163.6c-0.1,0-0.3,0-0.3-0.2c0-0.2,0.2-0.2,0.3-0.2h6c0.1,0,0.3,0,0.3,0.2c0,0.2-0.2,0.2-0.3,0.2H268z
			 M268,165.6c-0.1,0-0.3,0-0.3-0.2s0.2-0.2,0.3-0.2h5.9c0.1,0,0.3,0,0.3,0.2s-0.2,0.2-0.3,0.2H268z"/>
		<path class="st2" d="M280.5,166.1c0,0.4,0,0.5,0.9,0.5h0.3v0.3c-0.3,0-1.2,0-1.6,0s-1.3,0-1.6,0v-0.3h0.3c0.9,0,0.9-0.1,0.9-0.5
			V161c-0.5,0.3-1.1,0.3-1.3,0.3v-0.3c0.3,0,1.2,0,1.8-0.6c0.2,0,0.2,0,0.2,0.3V166.1z"/>
	</g>
	<g>
		<path class="st2" d="M283.6,169.2c-0.1,0.2-0.1,0.2-0.2,0.2c-0.1,0-0.2-0.1-0.2-0.2c0,0,0,0,0-0.2l3.5-9.5c0-0.1,0.1-0.1,0.2-0.1
			c0.1,0,0.2,0.1,0.2,0.2c0,0,0,0,0,0.2L283.6,169.2z"/>
		<path class="st2" d="M290.6,166.1c0,0.1,0,0.2,0,0.2c0,0.2,0.1,0.2,0.4,0.2c0.3,0,0.4,0,0.6,0c0.3,0,0.3,0,0.3,0.1
			c0,0.2-0.1,0.2-0.2,0.2c-0.3,0-0.6,0-0.9,0c-0.3,0-0.5,0-0.8,0c-0.3,0-0.6,0-0.8,0c-0.3,0-0.5,0-0.8,0c-0.1,0-0.2,0-0.2-0.1
			c0-0.2,0.1-0.2,0.4-0.2c1.1,0,1.1-0.1,1.2-0.5l1.3-5.3c0,0,0-0.1,0-0.2c0-0.1,0-0.1-0.3-0.1h-0.4c-1.5,0-1.7,0.2-2.3,1.7
			c-0.1,0.2-0.1,0.2-0.2,0.2c-0.1,0-0.1,0-0.1-0.1c0,0,0-0.2,0.1-0.2l0.6-1.8c0.1-0.2,0.1-0.2,0.3-0.2h5.5c0.2,0,0.3,0,0.3,0.1
			c0,0,0,0.1,0,0.2l-0.3,1.7c0,0.1,0,0.2-0.1,0.2c-0.1,0-0.1-0.1-0.1-0.1c0,0,0-0.2,0-0.2c0-0.3,0.1-0.6,0.1-0.8
			c0-0.8-0.4-0.8-1.5-0.8c-0.2,0-0.5,0-0.6,0c-0.1,0-0.2,0.1-0.2,0.4L290.6,166.1z"/>
	</g>
	<g>
		<path class="st2" d="M295.9,165.5c-0.1,0-0.4,0-0.6,0.1c-0.2,0.1-0.3,0.3-0.3,0.4c0,0.2,0.1,0.3,0.4,0.3c0,0,0.2,0,0.3,0.1
			c0.3,0,1,0.2,1,0.8c0,0.3-0.2,1.2-1.5,1.2c-0.7,0-1.1-0.3-1.1-0.7c0-0.3,0.2-0.5,0.4-0.5c0.1,0,0.3,0.1,0.3,0.3
			c0,0.2-0.2,0.4-0.4,0.4c0.2,0.2,0.6,0.3,0.8,0.3c0.1,0,0.4,0,0.7-0.2c0.3-0.2,0.4-0.4,0.4-0.6c0-0.3-0.4-0.4-0.6-0.5
			c-0.5-0.1-0.6-0.1-0.8-0.3c-0.1-0.1-0.2-0.3-0.2-0.5c0-0.2,0.2-1,1.3-1c0.4,0,0.9,0.2,0.9,0.6c0,0.4-0.3,0.4-0.3,0.4
			c-0.1,0-0.2-0.1-0.2-0.2c0-0.1,0.1-0.3,0.3-0.3C296.4,165.5,296,165.5,295.9,165.5z"/>
	</g>
	<path class="st3" d="M166.5,36.9c0,0,10.1-14.1,17.7-14.2c6-0.1,8.2,10.8,14.2,10.6c9.3-0.2,11.9-17.2,21.3-17.7
		c4.3-0.2,10.6,7.1,10.6,7.1l0,0"/>
	<polyline points="186.5,6 184.3,1.4 182,6 184.3,4.8 	"/>
	<line class="st1" x1="184.3" y1="4.8" x2="184.3" y2="54.6"/>
	<polyline points="232.9,53.3 237.4,51.1 232.9,48.8 234,51.1 	"/>
	<line class="st1" x1="163" y1="51.1" x2="234" y2="51.1"/>
	<g>
		<path class="st2" d="M186,64c-0.4,0.9-1.2,1.2-1.7,1.2c-0.5,0-1.2-0.2-1.6-1c-0.4-0.8-0.4-1.7-0.4-2.4c0-0.8,0-1.6,0.4-2.3
			c0.4-0.9,1.1-1.2,1.7-1.2c0.4,0,1.2,0.2,1.7,1.1c0.3,0.7,0.4,1.5,0.4,2.3C186.4,62.5,186.3,63.3,186,64z M185.4,63.7
			c0.1-0.6,0.1-1.3,0.1-2.1c0-0.6,0-1.4-0.1-1.9c-0.2-1-0.8-1.2-1.2-1.2c-0.2,0-1,0.1-1.2,1.3c-0.1,0.5-0.1,1.2-0.1,1.8
			c0,0.6,0,1.5,0.1,2.1c0.2,1,0.8,1.2,1.2,1.2C184.7,64.9,185.3,64.6,185.4,63.7z"/>
	</g>
	<g>
		<path class="st2" d="M190.5,9.4c-0.1,0.4-0.2,0.7-0.2,0.9c0,0.3,0.2,0.7,0.5,0.7c0.3,0,1-0.2,1.3-1.3c0-0.1,0-0.1,0.1-0.1
			c0,0,0.1,0,0.1,0.1c0,0.2-0.6,1.5-1.6,1.5c-0.6,0-1-0.4-1.1-0.8c0,0.1-0.4,0.8-1,0.8c-0.4,0-0.9-0.2-0.9-0.7
			c0-0.3,0.2-0.6,0.5-0.6c0.1,0,0.4,0.1,0.4,0.3c0,0.3-0.2,0.5-0.5,0.5c0.2,0.1,0.4,0.1,0.5,0.1c0.4,0,0.8-0.4,0.9-1
			c0.4-1.4,0.5-2.1,0.5-2.4c0-0.6-0.3-0.7-0.5-0.7c-0.3,0-1,0.2-1.3,1.3c0,0.1-0.1,0.1-0.1,0.1c0,0-0.1,0-0.1-0.1
			c0-0.2,0.6-1.5,1.6-1.5c0.3,0,0.8,0.1,1.1,0.8c0.1-0.2,0.5-0.8,1-0.8c0.3,0,0.9,0.1,0.9,0.7c0,0.4-0.3,0.6-0.5,0.6
			c-0.3,0-0.4-0.2-0.4-0.3c0-0.2,0.2-0.5,0.5-0.5c-0.2-0.1-0.4-0.1-0.5-0.1c-0.7,0-0.9,0.9-1,1.2L190.5,9.4z"/>
	</g>
	<g>
		<path class="st2" d="M196.4,9.5c0.1,0,0.2,0.1,0.2,0.2c0,0-0.1,0.4-0.1,0.5l-0.1,0.5c0,0.2-0.1,0.4-0.2,0.6c0,0.2-0.1,0.4-0.1,0.6
			c0,0.2,0,0.3,0.2,0.3c0.3,0,0.4-0.4,0.5-0.7c0-0.2,0.1-0.2,0.2-0.2c0,0,0.1,0,0.1,0.1c0,0-0.1,0.4-0.2,0.7
			c-0.1,0.2-0.3,0.4-0.6,0.4c-0.2,0-0.6-0.1-0.7-0.5c-0.3,0.3-0.6,0.5-1,0.5c-0.6,0-1.1-0.5-1.1-1.2c0-1,0.9-2,1.8-2
			c0.3,0,0.6,0.2,0.7,0.4C196.2,9.6,196.3,9.5,196.4,9.5z M196,10.3C196,10.3,196,10.2,196,10.3c0-0.2-0.1-0.7-0.6-0.7
			c-0.2,0-0.6,0.1-0.9,0.7c-0.2,0.3-0.4,1-0.4,1.4c0,0.5,0.3,0.7,0.5,0.7c0.3,0,0.6-0.2,0.6-0.3c0.2-0.1,0.3-0.3,0.4-0.5L196,10.3z"
			/>
	</g>
	<g>
		<path class="st2" d="M201.2,13.5c-0.1,0-1-0.6-1.6-1.9c-0.5-1.1-0.7-2.3-0.7-3.1c0-0.8,0.1-1.9,0.6-3c0.6-1.3,1.5-1.9,1.6-1.9
			c0.1,0,0.1,0,0.1,0.1c0,0,0,0-0.1,0.2c-1.2,1.2-1.6,3-1.6,4.7c0,1.5,0.3,3.4,1.6,4.7C201.3,13.4,201.3,13.4,201.2,13.5
			C201.3,13.5,201.2,13.5,201.2,13.5z"/>
	</g>
	<g>
		<path class="st2" d="M203.1,10c0,0.2-0.1,0.2-0.1,0.5c0,0.3,0.1,0.5,0.3,0.5c0.3,0,0.9-0.2,1.3-1.3c0-0.1,0.1-0.1,0.1-0.1
			c0,0,0.1,0,0.1,0.1c0,0.1-0.6,1.5-1.6,1.5c-0.5,0-0.9-0.4-0.9-0.9c0-0.2,0-0.3,0.8-3.2h-0.9c-0.2,0-0.3,0-0.3-0.1
			c0-0.2,0.1-0.2,0.3-0.2h0.9l0.4-1.6c0.1-0.3,0.4-0.4,0.4-0.4c0.2,0,0.3,0.1,0.3,0.3c0,0.1,0,0.3-0.4,1.7h0.9c0.2,0,0.3,0,0.3,0.1
			c0,0.2-0.1,0.2-0.3,0.2h-0.9L203.1,10z"/>
	</g>
	<g>
		<path class="st2" d="M207.7,11.6c-0.6,1.3-1.5,1.9-1.6,1.9c-0.1,0-0.1,0-0.1-0.1c0,0,0-0.1,0.1-0.2c1.2-1.3,1.6-3,1.6-4.7
			c0-2.1-0.6-3.7-1.5-4.7C206,3.7,206,3.7,206,3.7c0-0.1,0-0.1,0.1-0.1c0.1,0,1,0.6,1.6,1.9c0.5,1.1,0.7,2.3,0.7,3.1
			C208.3,9.4,208.2,10.5,207.7,11.6z"/>
	</g>
	<g>
		<path class="st2" d="M244.1,53.1c0,0.2-0.1,0.2-0.1,0.5c0,0.3,0.1,0.5,0.3,0.5c0.3,0,0.9-0.2,1.3-1.3c0-0.1,0.1-0.1,0.1-0.1
			c0,0,0.1,0,0.1,0.1c0,0.1-0.6,1.5-1.6,1.5c-0.5,0-0.9-0.4-0.9-0.9c0-0.2,0-0.3,0.8-3.2h-0.9c-0.2,0-0.3,0-0.3-0.1
			c0-0.2,0.1-0.2,0.3-0.2h0.9l0.4-1.6c0.1-0.3,0.4-0.4,0.4-0.4c0.2,0,0.3,0.1,0.3,0.3c0,0.1,0,0.3-0.4,1.7h0.9c0.2,0,0.3,0,0.3,0.1
			c0,0.2-0.1,0.2-0.3,0.2h-0.9L244.1,53.1z"/>
	</g>
	<polyline points="166.3,25.6 170.1,26.2 168.4,22.8 168,24.7 	"/>
	<line class="st14" x1="155.9" y1="15.6" x2="168" y2="24.7"/>
	<g>
		<path class="st2" d="M97.5,6.5c0,1.1-0.8,2.1-2,2.1c-0.9,0-1.5-0.4-1.8-0.7c-0.3,0.5-0.4,0.6-0.4,0.6c-0.1,0.1-0.1,0.1-0.1,0.1
			c-0.1,0-0.1-0.1-0.1-0.2v-2c0-0.2,0-0.2,0.1-0.2c0,0,0.1,0,0.1,0.1c0,0.4,0,1,0.6,1.5c0.5,0.5,1.3,0.5,1.6,0.5
			c0.8,0,1.3-0.7,1.3-1.4c0-0.3-0.1-0.7-0.3-0.9c-0.3-0.4-0.6-0.4-0.8-0.5c-0.7-0.2-1.2-0.3-1.3-0.3c-0.8-0.3-1.3-1-1.3-1.8
			c0-1.1,0.8-1.9,1.9-1.9c0.9,0,1.3,0.4,1.6,0.7L97,1.5C97,1.4,97,1.4,97.1,1.4c0.1,0,0.1,0.1,0.1,0.2v2c0,0.2,0,0.2-0.1,0.2
			C97,3.8,97,3.8,97,3.7c-0.1-0.4-0.3-2.1-1.9-2.1c-0.8,0-1.3,0.6-1.3,1.3c0,0.6,0.4,1.1,1,1.3L96,4.5C96.8,4.7,97.5,5.5,97.5,6.5z"
			/>
		<path class="st2" d="M98.3,4.4V4.1L99.8,4v1c0.3-0.6,0.7-1,1.5-1c0.4,0,1.2,0.1,1.3,1c0.2-0.4,0.6-1,1.4-1c0.6,0,0.9,0.2,1,0.4
			c0.3,0.4,0.3,0.7,0.3,1.5v1.9c0,0.3,0.3,0.3,0.8,0.3v0.3c-0.3,0-0.9,0-1.1,0c-0.3,0-0.8,0-1.1,0V8.1c0.7,0,0.8,0,0.8-0.4V5.3
			c0-0.6-0.1-1.1-0.7-1.1c-0.6,0-1.3,0.6-1.3,1.6v1.8c0,0.4,0.1,0.4,0.8,0.4v0.3c-0.3,0-0.9,0-1.1,0c-0.3,0-0.8,0-1.1,0V8.1
			c0.7,0,0.8,0,0.8-0.4V5.3c0-0.6-0.1-1.1-0.7-1.1c-0.6,0-1.3,0.6-1.3,1.6v1.8c0,0.4,0.1,0.4,0.8,0.4v0.3c-0.3,0-0.9,0-1.1,0
			c-0.3,0-0.8,0-1.1,0V8.1c0.7,0,0.8,0,0.8-0.4V5C99.1,4.5,99,4.4,98.3,4.4z"/>
	</g>
	<g>
		<path class="st2" d="M108.8,8.5c-1.2,0-2.2-1-2.2-2.2c0-1.2,1-2.3,2.2-2.3c1.2,0,2.2,1.1,2.2,2.3C111,7.5,110,8.5,108.8,8.5z
			 M110,7.5c0.2-0.4,0.2-1,0.2-1.3c0-0.4,0-1-0.3-1.4c-0.3-0.4-0.7-0.6-1.1-0.6c-0.4,0-0.9,0.2-1.1,0.7c-0.2,0.4-0.2,1-0.2,1.4
			c0,0.4,0,1,0.2,1.4c0.3,0.5,0.7,0.7,1.1,0.7C109.3,8.2,109.7,8,110,7.5z"/>
		<path class="st2" d="M114.1,8.5c-1.2,0-2.2-1-2.2-2.2c0-1.2,1-2.3,2.2-2.3c1.2,0,2.2,1.1,2.2,2.3C116.3,7.5,115.3,8.5,114.1,8.5z
			 M115.2,7.5c0.2-0.4,0.2-1,0.2-1.3c0-0.4,0-1-0.3-1.4c-0.3-0.4-0.7-0.6-1.1-0.6c-0.4,0-0.9,0.2-1.1,0.7c-0.2,0.4-0.2,1-0.2,1.4
			c0,0.4,0,1,0.2,1.4c0.3,0.5,0.7,0.7,1.1,0.7C114.6,8.2,115,8,115.2,7.5z"/>
	</g>
	<g>
		<path class="st2" d="M118.3,7.2c0,0.2,0,1.1,0.7,1.1c0.4,0,0.7-0.4,0.7-1.1V6.6h0.2v0.6c0,0.6-0.3,1.3-1,1.3
			c-0.4,0-1.3-0.1-1.3-1.3V4.4h-0.8V4.2c1,0,1.3-1.1,1.3-1.9h0.2v1.8h1.4v0.3h-1.4V7.2z"/>
		<path class="st2" d="M121.6,2.4c0-0.5-0.1-0.6-0.8-0.6V1.6l1.4-0.1V5c0.2-0.4,0.6-1,1.4-1c0.6,0,0.9,0.2,1,0.4
			C125,4.7,125,5,125,5.9v1.9c0,0.3,0.3,0.3,0.8,0.3v0.3c-0.3,0-0.9,0-1.1,0c-0.3,0-0.8,0-1.1,0V8.1c0.7,0,0.8,0,0.8-0.4V5.3
			c0-0.6-0.1-1.1-0.7-1.1c-0.6,0-1.3,0.6-1.3,1.6v1.8c0,0.4,0.1,0.4,0.8,0.4v0.3c-0.3,0-0.9,0-1.1,0c-0.3,0-0.8,0-1.1,0V8.1
			c0.7,0,0.8,0,0.8-0.4V2.4z"/>
		<path class="st2" d="M127.4,7.6c0.2,0.4,0.6,0.7,1.1,0.7c0.1,0,1,0,1.3-1c0-0.1,0-0.1,0.1-0.1c0,0,0.1,0,0.1,0.1
			c0,0.2-0.4,1.3-1.7,1.3c-1.1,0-2.2-1-2.2-2.3c0-1.2,0.9-2.3,2.1-2.3c1.2,0,1.8,1,1.8,2c0,0.2,0,0.2-0.2,0.2h-2.8
			C127.1,6.4,127.1,7.1,127.4,7.6z M129.5,5.9c0-0.4-0.1-1.7-1.1-1.7c-0.3,0-1.2,0.2-1.2,1.7H129.5z"/>
		<path class="st2" d="M132.9,8.5c-1.1,0-2.1-1-2.1-2.3c0-1.3,1-2.3,2.2-2.3c0.5,0,1,0.3,1.3,0.6V2.4c0-0.5-0.1-0.6-0.8-0.6V1.6
			l1.4-0.1v6c0,0.5,0.1,0.6,0.8,0.6v0.3l-1.5,0.1V7.8C133.9,8.2,133.5,8.5,132.9,8.5z M134.1,4.8c-0.3-0.4-0.7-0.6-1.1-0.6
			c-0.5,0-0.9,0.3-1.1,0.6c-0.3,0.4-0.3,1-0.3,1.4c0,0.4,0,1,0.3,1.4c0.2,0.4,0.6,0.6,1,0.6c0.4,0,0.9-0.2,1.2-0.7
			c0.1-0.2,0.1-0.2,0.1-0.4v-2C134.2,5,134.2,5,134.1,4.8z"/>
	</g>
	<g>
		<path class="st2" d="M142.1,8.3c0,0.1-0.1,0.2-0.2,0.2c-0.1,0-0.1,0-0.2-0.2l-1.4-3.5c-0.1-0.3-0.2-0.4-0.8-0.4V4.1
			c0.3,0,0.7,0,1,0c0.2,0,0.8,0,1.1,0v0.3c-0.2,0-0.6,0-0.6,0.3c0,0,0,0,0.1,0.2l1.1,2.8l1-2.5c0-0.1,0.1-0.1,0.1-0.2
			c0-0.2-0.1-0.4-0.5-0.4V4.1c0.2,0,0.6,0,0.9,0c0.2,0,0.5,0,0.7,0v0.3c-0.7,0-0.8,0.4-0.9,0.7L142.1,8.3z"/>
		<path class="st2" d="M145.7,7.6c0.2,0.4,0.6,0.7,1.1,0.7c0.1,0,1,0,1.3-1c0-0.1,0-0.1,0.1-0.1c0,0,0.1,0,0.1,0.1
			c0,0.2-0.4,1.3-1.7,1.3c-1.1,0-2.2-1-2.2-2.3c0-1.2,0.9-2.3,2.1-2.3c1.2,0,1.8,1,1.8,2c0,0.2,0,0.2-0.2,0.2h-2.8
			C145.4,6.4,145.4,7.1,145.7,7.6z M147.8,5.9c0-0.4-0.1-1.7-1.1-1.7c-0.3,0-1.2,0.2-1.2,1.7H147.8z"/>
	</g>
	<g>
		<path class="st2" d="M151.7,4c0.4,0,0.7,0.3,0.7,0.6S152.2,5,152,5c-0.2,0-0.4-0.1-0.4-0.4c0-0.3,0.2-0.4,0.2-0.4c0,0,0,0-0.1,0
			c-0.8,0-1.2,0.9-1.2,1.9v1.5c0,0.4,0,0.5,0.8,0.5h0.2v0.3c-0.4,0-0.9,0-1.3,0c-0.3,0-0.7,0-1.1,0V8.1c0.7,0,0.8,0,0.8-0.4V5
			c0-0.5-0.1-0.6-0.8-0.6V4.1l1.4-0.1v1.1C150.6,4.6,150.9,4,151.7,4z"/>
		<path class="st2" d="M153.5,6c-0.3-0.2-0.4-0.5-0.4-0.8c0-0.6,0.4-1.2,1.6-1.2c0.1,0,0.6,0,0.9,0.3c0,0,0.1-0.1,0.2-0.2
			c0.1-0.1,0.1-0.1,0.2-0.1c0.1,0,0.1,0.1,0.1,0.2v1c0,0.2,0,0.2-0.1,0.2c0,0-0.1,0-0.1-0.1c0-0.3-0.1-1.2-1.2-1.2
			c-0.9,0-1.1,0.4-1.1,0.8c0,0.6,0.7,0.7,1.2,0.8c0.4,0.1,0.8,0.2,1.1,0.5c0.1,0.1,0.4,0.4,0.4,0.9c0,0.7-0.5,1.4-1.6,1.4
			c-0.2,0-0.7,0-1.1-0.4c-0.2,0.2-0.2,0.2-0.2,0.2c-0.2,0.2-0.2,0.2-0.2,0.2c-0.1,0-0.1-0.1-0.1-0.2V6.9c0-0.2,0-0.2,0.1-0.2
			c0.1,0,0.1,0,0.1,0.2c0.2,0.8,0.5,1.4,1.4,1.4c0.8,0,1.1-0.4,1.1-0.9c0-0.7-0.8-0.9-1-0.9C154.1,6.3,153.8,6.3,153.5,6z"/>
		<path class="st2" d="M158.4,7.6c0,0.4,0,0.4,0.7,0.4v0.3c-0.3,0-0.7,0-1,0c-0.2,0-0.8,0-1.1,0V8.1c0.7,0,0.8,0,0.8-0.4V4.9
			c0-0.5-0.1-0.5-0.7-0.5V4.1l1.4-0.1V7.6z M157.9,2.8c-0.3,0-0.5-0.3-0.5-0.5c0-0.3,0.2-0.5,0.5-0.5c0.3,0,0.5,0.2,0.5,0.5
			S158.2,2.8,157.9,2.8z"/>
		<path class="st2" d="M161.9,8.5c-1.2,0-2.2-1-2.2-2.2c0-1.2,1-2.3,2.2-2.3c1.2,0,2.2,1.1,2.2,2.3C164.1,7.5,163.1,8.5,161.9,8.5z
			 M163.1,7.5c0.2-0.4,0.2-1,0.2-1.3c0-0.4,0-1-0.3-1.4c-0.3-0.4-0.7-0.6-1.1-0.6c-0.4,0-0.9,0.2-1.1,0.7c-0.2,0.4-0.2,1-0.2,1.4
			c0,0.4,0,1,0.2,1.4c0.3,0.5,0.7,0.7,1.1,0.7C162.4,8.2,162.9,8,163.1,7.5z"/>
	</g>
	<g>
		<path class="st2" d="M164.8,4.4V4.1l1.4-0.1v1c0.3-0.6,0.7-1,1.5-1c0.6,0,0.9,0.2,1,0.4C169,4.7,169,5,169,5.9v1.9
			c0,0.3,0.3,0.3,0.8,0.3v0.3c-0.3,0-0.9,0-1.1,0c-0.3,0-0.8,0-1.1,0V8.1c0.7,0,0.8,0,0.8-0.4V5.3c0-0.6-0.1-1.1-0.7-1.1
			c-0.6,0-1.3,0.6-1.3,1.6v1.8c0,0.4,0.1,0.4,0.8,0.4v0.3c-0.3,0-0.9,0-1.1,0c-0.3,0-0.8,0-1.1,0V8.1c0.7,0,0.8,0,0.8-0.4V5
			C165.6,4.5,165.5,4.4,164.8,4.4z"/>
	</g>
	<g>
		<path class="st2" d="M119.5,21.7c-1.2,0-2.2-1-2.2-2.2c0-1.2,1-2.3,2.2-2.3c1.2,0,2.2,1.1,2.2,2.3
			C121.7,20.7,120.7,21.7,119.5,21.7z M120.6,20.7c0.2-0.4,0.2-1,0.2-1.3c0-0.4,0-1-0.3-1.4c-0.3-0.4-0.7-0.6-1.1-0.6
			c-0.4,0-0.9,0.2-1.1,0.7c-0.2,0.4-0.2,1-0.2,1.4c0,0.4,0,1,0.2,1.4c0.3,0.5,0.7,0.7,1.1,0.7C120,21.4,120.4,21.2,120.6,20.7z"/>
		<path class="st2" d="M124.9,17.3v0.3h-1.1v3.2c0,0.4,0,0.5,0.8,0.5h0.2v0.3c-0.4,0-0.9,0-1.3,0c-0.3,0-0.7,0-1.1,0v-0.3
			c0.7,0,0.8,0,0.8-0.4v-3.2h-0.8v-0.3h0.8v-1.1c0-1.1,0.8-1.6,1.5-1.6c0.5,0,0.9,0.3,0.9,0.7c0,0.2-0.1,0.4-0.4,0.4
			c-0.3,0-0.4-0.2-0.4-0.4c0-0.2,0.2-0.4,0.3-0.4c-0.1-0.1-0.3-0.1-0.3-0.1c-0.4,0-0.9,0.5-0.9,1.4v1.2H124.9z"/>
	</g>
	<g>
		<path class="st2" d="M131.3,19.9c-0.1,0.4-0.2,0.7-0.2,0.9c0,0.3,0.2,0.7,0.5,0.7c0.3,0,1-0.2,1.3-1.3c0-0.1,0-0.1,0.1-0.1
			c0,0,0.1,0,0.1,0.1c0,0.2-0.6,1.5-1.6,1.5c-0.6,0-1-0.4-1.1-0.8c0,0.1-0.4,0.8-1,0.8c-0.4,0-0.9-0.2-0.9-0.7
			c0-0.3,0.2-0.6,0.5-0.6c0.1,0,0.4,0.1,0.4,0.3c0,0.3-0.2,0.5-0.5,0.5c0.2,0.1,0.4,0.1,0.5,0.1c0.4,0,0.8-0.4,0.9-1
			c0.4-1.4,0.5-2.1,0.5-2.4c0-0.6-0.3-0.7-0.5-0.7c-0.3,0-1,0.2-1.3,1.3c0,0.1-0.1,0.1-0.1,0.1c0,0-0.1,0-0.1-0.1
			c0-0.2,0.6-1.5,1.6-1.5c0.3,0,0.8,0.1,1.1,0.8c0.1-0.2,0.5-0.8,1-0.8c0.3,0,0.9,0.1,0.9,0.7c0,0.4-0.3,0.6-0.5,0.6
			c-0.3,0-0.4-0.2-0.4-0.3c0-0.2,0.2-0.5,0.5-0.5c-0.2-0.1-0.4-0.1-0.5-0.1c-0.7,0-0.9,0.9-1,1.2L131.3,19.9z"/>
	</g>
	<g>
		<path class="st2" d="M137.1,24.1c-0.1,0-1-0.6-1.6-1.9c-0.5-1.1-0.7-2.3-0.7-3.1c0-0.8,0.1-1.9,0.6-3c0.6-1.3,1.5-1.9,1.6-1.9
			c0.1,0,0.1,0,0.1,0.1c0,0,0,0-0.1,0.2c-1.2,1.2-1.6,3-1.6,4.7c0,1.5,0.3,3.4,1.6,4.7C137.2,23.9,137.2,23.9,137.1,24.1
			C137.2,24,137.2,24.1,137.1,24.1z"/>
	</g>
	<g>
		<path class="st2" d="M139.1,20.5c0,0.2-0.1,0.2-0.1,0.5c0,0.3,0.1,0.5,0.3,0.5c0.3,0,0.9-0.2,1.3-1.3c0-0.1,0.1-0.1,0.1-0.1
			c0,0,0.1,0,0.1,0.1c0,0.1-0.6,1.5-1.6,1.5c-0.5,0-0.9-0.4-0.9-0.9c0-0.2,0-0.3,0.8-3.2h-0.9c-0.2,0-0.3,0-0.3-0.1
			c0-0.2,0.1-0.2,0.3-0.2h0.9l0.4-1.6c0.1-0.3,0.4-0.4,0.4-0.4c0.2,0,0.3,0.1,0.3,0.3c0,0.1,0,0.3-0.4,1.7h0.9c0.2,0,0.3,0,0.3,0.1
			c0,0.2-0.1,0.2-0.3,0.2h-0.9L139.1,20.5z"/>
	</g>
	<g>
		<path class="st2" d="M143.6,22.1c-0.6,1.3-1.5,1.9-1.6,1.9c-0.1,0-0.1,0-0.1-0.1c0,0,0-0.1,0.1-0.2c1.2-1.3,1.6-3,1.6-4.7
			c0-2.1-0.6-3.7-1.5-4.7c-0.2-0.2-0.2-0.2-0.2-0.2c0-0.1,0-0.1,0.1-0.1c0.1,0,1,0.6,1.6,1.9c0.5,1.1,0.7,2.3,0.7,3.1
			C144.2,19.9,144.1,21,143.6,22.1z"/>
	</g>
	<polyline points="30.6,6 28.3,1.4 26.1,6 28.3,4.8 	"/>
	<line class="st1" x1="28.3" y1="4.8" x2="28.3" y2="54.6"/>
	<polyline points="77,53.3 81.5,51.1 77,48.8 78.1,51.1 	"/>
	<line class="st1" x1="7.1" y1="51.1" x2="78.1" y2="51.1"/>
	<g>
		<path class="st2" d="M30.1,64c-0.4,0.9-1.2,1.2-1.7,1.2c-0.5,0-1.2-0.2-1.6-1c-0.4-0.8-0.4-1.7-0.4-2.4c0-0.8,0-1.6,0.4-2.3
			c0.4-0.9,1.1-1.2,1.7-1.2c0.4,0,1.2,0.2,1.7,1.1c0.3,0.7,0.4,1.5,0.4,2.3C30.5,62.5,30.4,63.3,30.1,64z M29.6,63.7
			c0.1-0.6,0.1-1.3,0.1-2.1c0-0.6,0-1.4-0.1-1.9c-0.2-1-0.8-1.2-1.2-1.2c-0.2,0-1,0.1-1.2,1.3c-0.1,0.5-0.1,1.2-0.1,1.8
			c0,0.6,0,1.5,0.1,2.1c0.2,1,0.8,1.2,1.2,1.2C28.8,64.9,29.4,64.6,29.6,63.7z"/>
	</g>
	<g>
		<path class="st2" d="M37.1,9.4c-0.1,0.4-0.2,0.7-0.2,0.9c0,0.3,0.2,0.7,0.5,0.7c0.3,0,1-0.2,1.3-1.3c0-0.1,0-0.1,0.1-0.1
			c0,0,0.1,0,0.1,0.1c0,0.2-0.6,1.5-1.6,1.5c-0.6,0-1-0.4-1.1-0.8c0,0.1-0.4,0.8-1,0.8c-0.4,0-0.9-0.2-0.9-0.7
			c0-0.3,0.2-0.6,0.5-0.6c0.1,0,0.4,0.1,0.4,0.3c0,0.3-0.2,0.5-0.5,0.5c0.2,0.1,0.4,0.1,0.5,0.1c0.4,0,0.8-0.4,0.9-1
			c0.4-1.4,0.5-2.1,0.5-2.4c0-0.6-0.3-0.7-0.5-0.7c-0.3,0-1,0.2-1.3,1.3c0,0.1-0.1,0.1-0.1,0.1c0,0-0.1,0-0.1-0.1
			c0-0.2,0.6-1.5,1.6-1.5c0.3,0,0.8,0.1,1.1,0.8c0.1-0.2,0.5-0.8,1-0.8c0.3,0,0.9,0.1,0.9,0.7c0,0.4-0.3,0.6-0.5,0.6
			c-0.3,0-0.4-0.2-0.4-0.3c0-0.2,0.2-0.5,0.5-0.5c-0.2-0.1-0.4-0.1-0.5-0.1c-0.7,0-0.9,0.9-1,1.2L37.1,9.4z"/>
	</g>
	<g>
		<path class="st2" d="M42.9,13.5c-0.1,0-1-0.6-1.6-1.9c-0.5-1.1-0.7-2.3-0.7-3.1c0-0.8,0.1-1.9,0.6-3c0.6-1.3,1.5-1.9,1.6-1.9
			c0.1,0,0.1,0,0.1,0.1c0,0,0,0-0.1,0.2c-1.2,1.2-1.6,3-1.6,4.7c0,1.5,0.3,3.4,1.6,4.7C43,13.4,43,13.4,42.9,13.5
			C43,13.5,43,13.5,42.9,13.5z"/>
	</g>
	<g>
		<path class="st2" d="M44.9,10c0,0.2-0.1,0.2-0.1,0.5c0,0.3,0.1,0.5,0.3,0.5c0.3,0,0.9-0.2,1.3-1.3c0-0.1,0.1-0.1,0.1-0.1
			c0,0,0.1,0,0.1,0.1c0,0.1-0.6,1.5-1.6,1.5c-0.5,0-0.9-0.4-0.9-0.9c0-0.2,0-0.3,0.8-3.2h-0.9c-0.2,0-0.3,0-0.3-0.1
			c0-0.2,0.1-0.2,0.3-0.2H45l0.4-1.6c0.1-0.3,0.4-0.4,0.4-0.4c0.2,0,0.3,0.1,0.3,0.3c0,0.1,0,0.3-0.4,1.7h0.9c0.2,0,0.3,0,0.3,0.1
			C46.8,7,46.7,7,46.5,7h-0.9L44.9,10z"/>
	</g>
	<g>
		<path class="st2" d="M49.4,11.6c-0.6,1.3-1.5,1.9-1.6,1.9c-0.1,0-0.1,0-0.1-0.1c0,0,0-0.1,0.1-0.2c1.2-1.3,1.6-3,1.6-4.7
			c0-2.1-0.6-3.7-1.5-4.7c-0.2-0.2-0.2-0.2-0.2-0.2c0-0.1,0-0.1,0.1-0.1c0.1,0,1,0.6,1.6,1.9C49.9,6.6,50,7.8,50,8.5
			C50,9.4,49.9,10.5,49.4,11.6z"/>
	</g>
	<g>
		<path class="st2" d="M88.2,53.1c0,0.2-0.1,0.2-0.1,0.5c0,0.3,0.1,0.5,0.3,0.5c0.3,0,0.9-0.2,1.3-1.3c0-0.1,0.1-0.1,0.1-0.1
			c0,0,0.1,0,0.1,0.1c0,0.1-0.6,1.5-1.6,1.5c-0.5,0-0.9-0.4-0.9-0.9c0-0.2,0-0.3,0.8-3.2h-0.9c-0.2,0-0.3,0-0.3-0.1
			c0-0.2,0.1-0.2,0.3-0.2h0.9l0.4-1.6c0.1-0.3,0.4-0.4,0.4-0.4c0.2,0,0.3,0.1,0.3,0.3c0,0.1,0,0.3-0.4,1.7h0.9c0.2,0,0.3,0,0.3,0.1
			c0,0.2-0.1,0.2-0.3,0.2h-0.9L88.2,53.1z"/>
	</g>
	<path class="st15" d="M10.6,36.9c0,0,1.6-5.2,3.5-7.1c1.9-1.9,4.6-2.3,7.1-3.5c2.4-1.2,4.4-3.5,7.1-3.5c2.7,0,5.2,1.6,7.1,3.5
		c1.9,1.9,1,6.7,3.5,7.1c1.6,0.3,1.9-3.5,3.5-3.5s1.9,3.5,3.5,3.5c1.7,0,2.4-2.2,3.5-3.5c2.8-3.4,3.2-8.6,7.1-10.6
		c1.1-0.6,2.4,0.5,3.5,0c1.6-0.7,1.9-3.3,3.5-3.5c2.6-0.4,4.9,1.9,7.1,3.5c1.4,1,3.5,3.5,3.5,3.5l0,0"/>
</g>
</svg>
