<?xml version="1.0" encoding="utf-8"?>
<!-- Generator: Adobe Illustrator 22.1.0, SVG Export Plug-In . SVG Version: 6.00 Build 0)  -->
<svg version="1.1" id="Layer_1" xmlns="http://www.w3.org/2000/svg" xmlns:xlink="http://www.w3.org/1999/xlink" x="0px" y="0px"
	 viewBox="0 0 423.5 174.8" style="enable-background:new 0 0 423.5 174.8;" xml:space="preserve">
<style type="text/css">
	.st0{fill:none;stroke:#000000;stroke-width:0.8504;stroke-miterlimit:10;}
	.st1{fill:none;stroke:#E52421;stroke-width:0.8504;stroke-miterlimit:10;}
	.st2{fill:none;stroke:#000000;stroke-width:0.8504;stroke-linecap:round;stroke-miterlimit:10;stroke-dasharray:0,3.7881;}
	.st3{fill:none;stroke:#2A4B9B;stroke-width:1.4173;stroke-miterlimit:10;}
	.st4{fill:none;stroke:#000000;stroke-width:0.8504;stroke-linecap:round;stroke-miterlimit:10;stroke-dasharray:0,3.685;}
	.st5{fill:none;stroke:#E52421;stroke-width:1.4173;stroke-linecap:round;stroke-miterlimit:10;stroke-dasharray:0,4.3142;}
	.st6{fill:none;stroke:#E52421;stroke-width:1.4173;stroke-miterlimit:10;}
	.st7{fill:none;stroke:#E5221D;stroke-width:1.4173;stroke-miterlimit:10;}
	.st8{fill:none;stroke:#000000;stroke-width:1.1338;stroke-linecap:round;stroke-miterlimit:10;stroke-dasharray:0,3.4488;}
</style>
<g>
	<g>
		<path d="M119.8,44c1,0,1.5,0.5,1.8,0.9l0.5-0.7c0.1-0.1,0.1-0.1,0.2-0.1c0.1,0,0.1,0.1,0.1,0.2v2.4c0,0.2,0,0.2-0.2,0.2
			c-0.1,0-0.1,0-0.2-0.2c-0.2-1.5-1.1-2.4-2.2-2.4c-0.6,0-2.6,0.3-2.6,3.3c0,3,2,3.3,2.6,3.3c1.1,0,2.2-0.8,2.2-2.2
			c0-0.1,0-0.2,0.1-0.2c0.1,0,0.1,0.1,0.1,0.2c0,1.2-1,2.5-2.6,2.5c-1.9,0-3.5-1.6-3.5-3.6C116.4,45.5,118,44,119.8,44z"/>
		<path d="M124,53.3c0,0.1-0.1,0.2-0.2,0.2c-0.1,0-0.2-0.1-0.2-0.2c0,0,0,0,0-0.2l3.4-9.4c0-0.1,0.1-0.2,0.2-0.2
			c0.1,0,0.2,0.1,0.2,0.2c0,0,0,0,0,0.2L124,53.3z"/>
	</g>
	<g>
		<path d="M132,44.2c1.7,0,3,1.6,3,3.5c0,1.9-1.4,3.3-3,3.3h-3.6v-0.3h0.2c0.8,0,0.8-0.1,0.8-0.5V45c0-0.4,0-0.5-0.8-0.5h-0.2v-0.3
			H132z M131.8,50.7c1,0,1.6-0.6,1.8-0.8c0.4-0.5,0.5-1.1,0.5-2.2c0-0.8-0.1-1.6-0.5-2.2c-0.5-0.7-1.2-0.9-1.8-0.9h-1
			c-0.5,0-0.5,0.1-0.5,0.4v5.4c0,0.3,0,0.4,0.5,0.4H131.8z"/>
	</g>
	<polygon class="st0" points="108,48.5 108,34.3 143.4,34.3 143.4,62.6 108,62.6 	"/>
	<polyline points="103.4,50.7 108,48.5 103.4,46.2 104.6,48.5 	"/>
	<line class="st0" x1="79.6" y1="48.5" x2="104.6" y2="48.5"/>
	<g>
		<path d="M82.3,38.8c-0.1,0.4-0.2,0.7-0.2,0.9c0,0.3,0.2,0.7,0.5,0.7c0.3,0,1-0.2,1.3-1.3c0-0.1,0-0.1,0.1-0.1c0,0,0.1,0,0.1,0.1
			c0,0.2-0.6,1.5-1.6,1.5c-0.6,0-1-0.4-1.1-0.8c0,0.1-0.4,0.8-1,0.8c-0.4,0-0.9-0.2-0.9-0.7c0-0.3,0.2-0.6,0.5-0.6
			c0.1,0,0.4,0.1,0.4,0.3c0,0.3-0.2,0.5-0.5,0.5c0.2,0.1,0.4,0.1,0.5,0.1c0.4,0,0.8-0.4,0.9-1c0.4-1.4,0.5-2.1,0.5-2.4
			c0-0.6-0.3-0.7-0.5-0.7c-0.3,0-1,0.2-1.3,1.3c0,0.1-0.1,0.1-0.1,0.1c0,0-0.1,0-0.1-0.1c0-0.2,0.6-1.5,1.6-1.5
			c0.3,0,0.8,0.1,1.1,0.8c0.1-0.2,0.5-0.8,1-0.8c0.3,0,0.9,0.1,0.9,0.7c0,0.4-0.3,0.6-0.5,0.6c-0.3,0-0.4-0.2-0.4-0.3
			c0-0.2,0.2-0.5,0.5-0.5c-0.2-0.1-0.4-0.1-0.5-0.1c-0.7,0-0.9,0.9-1,1.2L82.3,38.8z"/>
	</g>
	<g>
		<path d="M88.2,38.9c0.1,0,0.2,0.1,0.2,0.2c0,0-0.1,0.4-0.1,0.5l-0.1,0.5c0,0.2-0.1,0.4-0.2,0.6c0,0.2-0.1,0.4-0.1,0.6
			c0,0.2,0,0.3,0.2,0.3c0.3,0,0.4-0.4,0.5-0.7c0-0.2,0.1-0.2,0.2-0.2c0,0,0.1,0,0.1,0.1c0,0-0.1,0.4-0.2,0.7
			c-0.1,0.2-0.3,0.4-0.6,0.4c-0.2,0-0.6-0.1-0.7-0.5c-0.3,0.3-0.6,0.5-1,0.5c-0.6,0-1.1-0.5-1.1-1.2c0-1,0.9-2,1.8-2
			c0.3,0,0.6,0.2,0.7,0.4C87.9,39,88.1,38.9,88.2,38.9z M87.8,39.7C87.8,39.7,87.8,39.6,87.8,39.7c0-0.2-0.1-0.7-0.6-0.7
			c-0.2,0-0.6,0.1-0.9,0.7c-0.2,0.3-0.4,1-0.4,1.4c0,0.5,0.3,0.7,0.5,0.7c0.3,0,0.6-0.2,0.6-0.3c0.2-0.1,0.3-0.3,0.4-0.5L87.8,39.7z
			"/>
	</g>
	<g>
		<path d="M93.1,42.9c-0.1,0-1-0.6-1.6-1.9c-0.5-1.1-0.7-2.3-0.7-3.1c0-0.8,0.1-1.9,0.6-3c0.6-1.3,1.5-1.9,1.6-1.9
			c0.1,0,0.1,0,0.1,0.1c0,0,0,0-0.1,0.2c-1.2,1.2-1.6,3-1.6,4.7c0,1.5,0.3,3.4,1.6,4.7C93.2,42.8,93.2,42.8,93.1,42.9
			C93.2,42.9,93.1,42.9,93.1,42.9z"/>
	</g>
	<g>
		<path d="M95,39.4c0,0.2-0.1,0.2-0.1,0.5c0,0.3,0.1,0.5,0.3,0.5c0.3,0,0.9-0.2,1.3-1.3c0-0.1,0.1-0.1,0.1-0.1c0,0,0.1,0,0.1,0.1
			c0,0.1-0.6,1.5-1.6,1.5c-0.5,0-0.9-0.4-0.9-0.9c0-0.2,0-0.3,0.8-3.2h-0.9c-0.2,0-0.3,0-0.3-0.1c0-0.2,0.1-0.2,0.3-0.2h0.9l0.4-1.6
			c0.1-0.3,0.4-0.4,0.4-0.4c0.2,0,0.3,0.1,0.3,0.3c0,0.1,0,0.3-0.4,1.7h0.9c0.2,0,0.3,0,0.3,0.1c0,0.2-0.1,0.2-0.3,0.2h-0.9L95,39.4
			z"/>
	</g>
	<g>
		<path d="M99.6,41c-0.6,1.3-1.5,1.9-1.6,1.9c-0.1,0-0.1,0-0.1-0.1c0,0,0-0.1,0.1-0.2c1.2-1.3,1.6-3,1.6-4.7c0-2.1-0.6-3.7-1.5-4.7
			c-0.2-0.2-0.2-0.2-0.2-0.2c0-0.1,0-0.1,0.1-0.1c0.1,0,1,0.6,1.6,1.9c0.5,1.1,0.7,2.3,0.7,3.1C100.2,38.8,100.1,39.9,99.6,41z"/>
	</g>
	<polyline points="128,67.2 125.7,62.6 123.4,67.2 125.7,66 	"/>
	<line class="st0" x1="125.7" y1="76.8" x2="125.7" y2="66"/>
	<g>
		<path d="M112.1,85.1c0,0.1-0.2,1.3-0.6,1.9c-0.2,0.4-0.6,1-1.1,1c-0.4,0-0.8-0.2-0.8-0.7c0-0.4,0.3-0.6,0.5-0.6
			c0.2,0,0.4,0.1,0.4,0.3c0,0.1-0.1,0.5-0.5,0.5c0.2,0.2,0.4,0.2,0.5,0.2c0.5,0,0.7-0.9,0.9-1.9l0.7-3.9h-0.7c-0.2,0-0.3,0-0.3-0.1
			c0-0.2,0.1-0.2,0.3-0.2h0.7c0.2-1.3,0.3-1.4,0.3-1.6c0.3-1,0.9-1.2,1.3-1.2c0.4,0,0.9,0.2,0.9,0.7c0,0.4-0.3,0.6-0.5,0.6
			c-0.2,0-0.4-0.1-0.4-0.3c0-0.1,0.1-0.5,0.5-0.5c-0.2-0.2-0.4-0.2-0.5-0.2c-0.2,0-0.4,0.1-0.5,0.3c-0.1,0.1-0.2,0.8-0.2,1l-0.2,1.1
			h0.8c0.2,0,0.3,0,0.3,0.1c0,0.2-0.1,0.2-0.3,0.2h-0.9L112.1,85.1z"/>
	</g>
	<g>
		<path d="M116.3,84.5c-0.1,0-0.4,0-0.6,0.1c-0.2,0.1-0.3,0.3-0.3,0.4c0,0.2,0.1,0.3,0.4,0.3c0,0,0.2,0,0.3,0.1c0.3,0,1,0.2,1,0.8
			c0,0.3-0.2,1.2-1.5,1.2c-0.7,0-1.1-0.3-1.1-0.7c0-0.3,0.2-0.5,0.4-0.5c0.1,0,0.3,0.1,0.3,0.3c0,0.2-0.2,0.4-0.4,0.4
			c0.2,0.2,0.6,0.3,0.8,0.3c0.1,0,0.4,0,0.7-0.2c0.3-0.2,0.4-0.4,0.4-0.6c0-0.3-0.4-0.4-0.6-0.5c-0.5-0.1-0.6-0.1-0.8-0.3
			c-0.1-0.1-0.2-0.3-0.2-0.5c0-0.2,0.2-1,1.3-1c0.4,0,0.9,0.2,0.9,0.6c0,0.4-0.3,0.4-0.3,0.4c-0.1,0-0.2-0.1-0.2-0.2
			c0-0.1,0.1-0.3,0.3-0.3C116.9,84.5,116.5,84.5,116.3,84.5z"/>
	</g>
	<g>
		<path d="M121.9,82.6c-0.1,0-0.3,0-0.3-0.2s0.2-0.2,0.3-0.2h6c0.1,0,0.3,0,0.3,0.2s-0.2,0.2-0.3,0.2H121.9z M121.8,84.6
			c-0.1,0-0.3,0-0.3-0.2s0.2-0.2,0.3-0.2h5.9c0.1,0,0.3,0,0.3,0.2s-0.2,0.2-0.3,0.2H121.8z"/>
	</g>
	<g>
		<path d="M137.3,81.5c0,0.2,0,0.3,0.7,0.3h0.3v0.3c-0.2,0-1,0-1.2,0c-0.3,0-1.1,0-1.2,0v-0.3h0.3c0.7,0,0.7-0.1,0.7-0.3V78
			c-0.4,0.2-0.8,0.2-1,0.2v-0.3c0.3,0,0.9,0,1.4-0.4c0.2,0,0.2,0,0.2,0.2V81.5z"/>
	</g>
	<polyline points="132.7,83.8 141.4,83.8 141.4,83.3 132.7,83.3 	"/>
	<g>
		<path d="M135.2,88.8c0,0.1,0,0.1,0,0.2c0,0.1,0,0.1,0.3,0.1c0.1,0,0.3,0,0.4,0c0.2,0,0.3,0,0.3,0.1c0,0.2-0.1,0.2-0.2,0.2
			c-0.2,0-0.4,0-0.6,0c-0.2,0-0.4,0-0.6,0s-0.4,0-0.6,0s-0.4,0-0.6,0c-0.1,0-0.1-0.1-0.1-0.1c0-0.2,0.1-0.2,0.3-0.2
			c0.7,0,0.8-0.1,0.8-0.3l0.9-3.7c0-0.1,0-0.1,0-0.1c0-0.1,0-0.1-0.2-0.1H135c-1.1,0-1.3,0.1-1.7,1.2c0,0.1-0.1,0.2-0.1,0.2
			c-0.1,0-0.1-0.1-0.1-0.1c0,0,0-0.1,0-0.1l0.4-1.2c0-0.1,0.1-0.1,0.2-0.1h4.3c0.1,0,0.2,0,0.2,0.1l-0.2,1.3c0,0.1,0,0.2-0.1,0.2
			c-0.1,0-0.1,0-0.1-0.1l0-0.1c0-0.4,0-0.5,0-0.6c0-0.3,0-0.5-0.3-0.6c-0.2-0.1-0.4-0.1-0.8-0.1c-0.1,0-0.4,0-0.4,0
			c-0.2,0-0.2,0-0.2,0.2L135.2,88.8z"/>
	</g>
	<g>
		<path d="M139.4,88.3c-0.7,0-0.7,0.4-0.7,0.4c0,0.2,0.2,0.2,0.6,0.3c0.3,0,0.8,0.1,0.8,0.6c0,0.2-0.2,0.8-1.2,0.8
			c-0.1,0-0.9,0-0.9-0.5c0-0.2,0.1-0.4,0.3-0.4c0.1,0,0.2,0.1,0.2,0.2c0,0.1-0.1,0.3-0.3,0.3c0.2,0.2,0.5,0.2,0.7,0.2
			c0.9,0,0.9-0.5,0.9-0.5c0-0.3-0.3-0.3-0.7-0.4c-0.3,0-0.4-0.1-0.6-0.2c-0.1-0.1-0.2-0.2-0.2-0.4c0-0.2,0.2-0.7,1-0.7
			c0.4,0,0.8,0.1,0.8,0.4c0,0.3-0.2,0.3-0.3,0.3c-0.1,0-0.2-0.1-0.2-0.2c0,0,0-0.2,0.2-0.2C139.8,88.3,139.5,88.3,139.4,88.3z"/>
	</g>
	<polyline points="167.2,50.7 171.8,48.5 167.2,46.2 168.4,48.5 	"/>
	<path class="st0" d="M143.4,48.5h24.9 M171.8,48.5V34.3h49.6v28.3h-49.6V48.5z"/>
	<g>
		<path d="M152,38.8c-0.1,0.4-0.2,0.7-0.2,0.9c0,0.3,0.2,0.7,0.5,0.7c0.3,0,1-0.2,1.3-1.3c0-0.1,0-0.1,0.1-0.1c0,0,0.1,0,0.1,0.1
			c0,0.2-0.6,1.5-1.6,1.5c-0.6,0-1-0.4-1.1-0.8c0,0.1-0.4,0.8-1,0.8c-0.4,0-0.9-0.2-0.9-0.7c0-0.3,0.2-0.6,0.5-0.6
			c0.1,0,0.4,0.1,0.4,0.3c0,0.3-0.2,0.5-0.5,0.5c0.2,0.1,0.4,0.1,0.5,0.1c0.4,0,0.8-0.4,0.9-1c0.4-1.4,0.5-2.1,0.5-2.4
			c0-0.6-0.3-0.7-0.5-0.7c-0.3,0-1,0.2-1.3,1.3c0,0.1-0.1,0.1-0.1,0.1c0,0-0.1,0-0.1-0.1c0-0.2,0.6-1.5,1.6-1.5
			c0.3,0,0.8,0.1,1.1,0.8c0.1-0.2,0.5-0.8,1-0.8c0.3,0,0.9,0.1,0.9,0.7c0,0.4-0.3,0.6-0.5,0.6c-0.3,0-0.4-0.2-0.4-0.3
			c0-0.2,0.2-0.5,0.5-0.5c-0.2-0.1-0.4-0.1-0.5-0.1c-0.7,0-0.9,0.9-1,1.2L152,38.8z"/>
	</g>
	<g>
		<path d="M155.8,42.9V33h1.4v0.4h-1v9.2h1v0.4H155.8z"/>
	</g>
	<g>
		<path d="M158.9,37.5c0.1-0.5,0.2-0.6,0.2-0.8c0-0.3-0.1-0.5-0.3-0.5c-0.4,0-0.6,0.5-0.7,1.2c-0.1,0.2-0.1,0.2-0.2,0.2
			c0,0-0.1,0-0.1-0.1c0,0,0.1-0.6,0.3-1c0.1-0.2,0.3-0.6,0.7-0.6c0.5,0,0.9,0.3,0.9,0.9c0.2-0.2,0.7-0.9,1.6-0.9
			c0.7,0,1.1,0.4,1.1,1.1c0,0.6-0.4,1.7-0.6,2.2c-0.1,0.2-0.2,0.5-0.2,0.7c0,0.2,0.1,0.3,0.2,0.3c0.5,0,0.8-0.6,1-1.2
			c0-0.1,0-0.2,0.1-0.2c0,0,0.1,0,0.1,0.1c0,0.1-0.4,1.5-1.3,1.5c-0.5,0-0.8-0.3-0.8-0.8c0-0.1,0-0.2,0.1-0.5
			c0.2-0.4,0.6-1.7,0.6-2.3c0-0.3-0.1-0.7-0.5-0.7c-0.9,0-1.5,0.9-1.6,1.2c0,0-0.1,0.3-0.1,0.5c0,0.2-0.1,0.4-0.2,0.7l-0.2,0.9
			c-0.1,0.2-0.2,0.7-0.2,0.7c-0.1,0.2-0.2,0.3-0.4,0.3c-0.1,0-0.3-0.1-0.3-0.3c0-0.1,0.1-0.3,0.1-0.4L158.9,37.5z"/>
	</g>
	<g>
		<path d="M165,42.9h-1.4v-0.4h1v-9.2h-1V33h1.4V42.9z"/>
	</g>
	<g>
		<path d="M181.2,51.9c0.4,0,0.8-0.3,0.9-0.8c0-0.1,0-0.2,0.1-0.2c0.1,0,0.1,0.1,0.1,0.2c0,0.5-0.2,1.8-1.2,1.8
			c-0.9,0-1.1-0.9-1.2-1.9c-0.3,0.1-0.6,0.1-0.9,0.1c-1.8,0-3.3-1.6-3.3-3.6c0-2.1,1.5-3.6,3.3-3.6c1.8,0,3.3,1.6,3.3,3.6
			c0,1.5-0.8,2.8-2,3.3C180.5,51.6,180.7,51.9,181.2,51.9z M178.1,50.3c0-0.4,0.3-0.8,0.8-0.8c0.6,0,0.9,0.5,1.1,1.1
			c1.1-0.8,1.2-2.2,1.2-3c0-2.5-1.4-3.4-2.3-3.4c-0.9,0-2.3,0.8-2.3,3.4c0,2.3,1.1,3,1.7,3.2C178.3,50.8,178.1,50.6,178.1,50.3z
			 M179,49.7c-0.4,0-0.6,0.3-0.6,0.6c0,0.1,0.1,0.6,0.6,0.6c0.2,0,0.5,0,0.9-0.2C179.7,50.1,179.5,49.7,179,49.7z"/>
		<path d="M185.5,51.1c-1.5,0-1.5-0.9-1.5-1.7v-1.5c0-0.9,0-0.9-0.8-0.9v-0.3l1.5-0.1v3.3c0,0.5,0,1,0.9,1c0.7,0,1.2-0.7,1.2-1.5
			v-1.8c0-0.5-0.1-0.6-0.8-0.6v-0.3l1.5-0.1v3.5c0,0.5,0.1,0.6,0.8,0.6V51l-1.4,0.1v-0.9C186.5,50.8,186,51.1,185.5,51.1z"/>
		<path d="M190.5,51.1c-0.6,0-1.6-0.2-1.6-1.1c0-0.4,0.2-1,1-1.3c0.6-0.3,1.3-0.3,1.8-0.4V48c0-0.9-0.6-1.3-1.1-1.3
			c-0.3,0-0.8,0.1-1.1,0.5c0.5,0,0.5,0.3,0.5,0.5c0,0.3-0.2,0.5-0.5,0.5c-0.3,0-0.5-0.2-0.5-0.5c0-0.7,0.7-1.1,1.5-1.1
			c0.5,0,1,0.2,1.4,0.5c0.4,0.4,0.4,0.8,0.4,1.2v2c0,0,0,0.5,0.4,0.5c0.1,0,0.4-0.1,0.4-0.6v-0.6h0.2v0.6c0,0.8-0.6,0.9-0.8,0.9
			c-0.5,0-0.7-0.4-0.8-0.8C191.6,50.7,191.1,51.1,190.5,51.1z M189.7,50c0,0.5,0.4,0.8,0.9,0.8c0.4,0,1.2-0.3,1.2-1.3v-1
			C190.1,48.7,189.7,49.5,189.7,50z"/>
		<path d="M193.8,47v-0.3l1.4-0.1v1c0.3-0.6,0.7-1,1.5-1c0.6,0,0.9,0.2,1,0.4c0.3,0.4,0.3,0.7,0.3,1.5v1.9c0,0.3,0.3,0.3,0.8,0.3V51
			c-0.3,0-0.9,0-1.1,0c-0.3,0-0.8,0-1.1,0v-0.3c0.7,0,0.8,0,0.8-0.4v-2.3c0-0.6-0.1-1.1-0.7-1.1c-0.6,0-1.3,0.6-1.3,1.6v1.8
			c0,0.4,0.1,0.4,0.8,0.4V51c-0.3,0-0.9,0-1.1,0c-0.3,0-0.8,0-1.1,0v-0.3c0.7,0,0.8,0,0.8-0.4v-2.7C194.6,47.1,194.5,47,193.8,47z"
			/>
	</g>
	<g>
		<path d="M200.4,49.8c0,0.2,0,1.1,0.7,1.1c0.4,0,0.7-0.4,0.7-1.1v-0.5h0.2v0.6c0,0.6-0.3,1.3-1,1.3c-0.4,0-1.3-0.1-1.3-1.3V47h-0.8
			v-0.2c1,0,1.3-1.1,1.3-1.9h0.2v1.8h1.4V47h-1.4V49.8z"/>
		<path d="M204.3,50.2c0,0.4,0,0.4,0.7,0.4V51c-0.3,0-0.7,0-1,0c-0.2,0-0.8,0-1.1,0v-0.3c0.7,0,0.8,0,0.8-0.4v-2.7
			c0-0.5-0.1-0.5-0.7-0.5v-0.3l1.4-0.1V50.2z M203.9,45.4c-0.3,0-0.5-0.3-0.5-0.5c0-0.3,0.2-0.5,0.5-0.5c0.3,0,0.5,0.2,0.5,0.5
			S204.1,45.4,203.9,45.4z"/>
		<path d="M206.5,50.7h1.2c1.2,0,1.4-0.4,1.5-1.6h0.2l-0.2,1.9h-3.3c-0.2,0-0.3,0-0.3-0.1c0,0,0-0.1,0.1-0.2l2.8-3.8h-1.1
			c-1.1,0-1.3,0.4-1.3,1.4h-0.2l0.1-1.6h3.2c0.2,0,0.3,0,0.3,0.1c0,0,0,0.1-0.1,0.2L206.5,50.7z"/>
		<path d="M211.2,50.2c0.2,0.4,0.6,0.7,1.1,0.7c0.1,0,1,0,1.3-1c0-0.1,0-0.1,0.1-0.1c0,0,0.1,0,0.1,0.1c0,0.2-0.4,1.3-1.7,1.3
			c-1.1,0-2.2-1-2.2-2.3c0-1.2,0.9-2.3,2.1-2.3c1.2,0,1.8,1,1.8,2c0,0.2,0,0.2-0.2,0.2h-2.8C210.9,49,210.9,49.7,211.2,50.2z
			 M213.2,48.5c0-0.4-0.1-1.7-1.1-1.7c-0.3,0-1.2,0.2-1.2,1.7H213.2z"/>
		<path d="M217.1,46.6c0.4,0,0.7,0.3,0.7,0.6s-0.2,0.4-0.4,0.4c-0.2,0-0.4-0.1-0.4-0.4c0-0.3,0.2-0.4,0.2-0.4c0,0,0,0-0.1,0
			c-0.8,0-1.2,0.9-1.2,1.9v1.5c0,0.4,0,0.5,0.8,0.5h0.2V51c-0.4,0-0.9,0-1.3,0c-0.3,0-0.7,0-1.1,0v-0.3c0.7,0,0.8,0,0.8-0.4v-2.7
			c0-0.5-0.1-0.6-0.8-0.6v-0.3l1.4-0.1v1.1C216,47.2,216.3,46.6,217.1,46.6z"/>
	</g>
	<polyline points="198.8,67.2 196.6,62.6 194.3,67.2 196.6,66 	"/>
	<line class="st0" x1="196.6" y1="76.8" x2="196.6" y2="66"/>
	<g>
		<path d="M200.2,87.2c0,0.1,0,0.1,0,0.1c0,0.1-0.1,0.1-0.2,0.1h-6.9c-0.2,0-0.2,0-0.2-0.1c0,0,0,0,0-0.1l3.4-6.8
			c0.1-0.1,0.1-0.2,0.3-0.2s0.2,0,0.3,0.2L200.2,87.2z M193.6,86.6h5.4l-2.7-5.4L193.6,86.6z"/>
	</g>
	<polygon class="st0" points="249.7,48.5 249.7,34.3 299.3,34.3 299.3,62.6 249.7,62.6 	"/>
	<g>
		<path d="M257.9,46c0-0.4,0-0.5-0.8-0.5h-0.2v-0.3h5.6l0.3,2.2h-0.2c-0.2-1.4-0.4-1.9-2-1.9h-1.3c-0.5,0-0.5,0.1-0.5,0.4v2.4h0.9
			c1,0,1.1-0.3,1.1-1.2h0.2v2.6h-0.2c0-0.8-0.1-1.2-1.1-1.2h-0.9v2.7c0,0.3,0,0.4,0.5,0.4h1.3c1.7,0,1.9-0.7,2.2-2.3h0.2l-0.4,2.6
			h-5.7v-0.3h0.2c0.8,0,0.8-0.1,0.8-0.5V46z"/>
		<path d="M263.7,48v-0.3l1.4-0.1v1c0.3-0.6,0.7-1,1.5-1c0.6,0,0.9,0.2,1,0.4c0.3,0.4,0.3,0.7,0.3,1.5v1.9c0,0.3,0.3,0.3,0.8,0.3V52
			c-0.3,0-0.9,0-1.1,0c-0.3,0-0.8,0-1.1,0v-0.3c0.7,0,0.8,0,0.8-0.4v-2.3c0-0.6-0.1-1.1-0.7-1.1c-0.6,0-1.3,0.6-1.3,1.6v1.8
			c0,0.4,0.1,0.4,0.8,0.4V52c-0.3,0-0.9,0-1.1,0c-0.3,0-0.8,0-1.1,0v-0.3c0.7,0,0.8,0,0.8-0.4v-2.7C264.5,48,264.4,48,263.7,48z"/>
		<path d="M271.5,51.8c0.4,0,1-0.1,1.3-1c0-0.1,0-0.1,0.1-0.1c0,0,0.1,0,0.1,0.1s-0.3,1.3-1.7,1.3c-1.2,0-2.1-1-2.1-2.3
			c0-1.2,0.9-2.3,2.2-2.3c0.8,0,1.5,0.4,1.5,1.1c0,0.3-0.2,0.5-0.5,0.5c-0.3,0-0.5-0.2-0.5-0.5c0-0.1,0.1-0.4,0.5-0.5
			c-0.3-0.4-1-0.4-1.1-0.4c-0.5,0-1.3,0.4-1.3,2C270.1,51.4,271,51.8,271.5,51.8z"/>
		<path d="M275.9,52.1c-1.2,0-2.2-1-2.2-2.2c0-1.2,1-2.3,2.2-2.3c1.2,0,2.2,1.1,2.2,2.3C278.1,51.1,277.1,52.1,275.9,52.1z
			 M277,51.1c0.2-0.4,0.2-1,0.2-1.3c0-0.4,0-1-0.3-1.4c-0.3-0.4-0.7-0.6-1.1-0.6c-0.4,0-0.9,0.2-1.1,0.7c-0.2,0.4-0.2,1-0.2,1.4
			c0,0.4,0,1,0.2,1.4c0.3,0.5,0.7,0.7,1.1,0.7C276.4,51.8,276.8,51.5,277,51.1z"/>
	</g>
	<g>
		<path d="M281.1,52.1c-1.1,0-2.1-1-2.1-2.3c0-1.3,1-2.3,2.2-2.3c0.5,0,1,0.3,1.3,0.6V46c0-0.5-0.1-0.6-0.8-0.6v-0.3l1.4-0.1v6
			c0,0.5,0.1,0.6,0.8,0.6V52l-1.5,0.1v-0.7C282.2,51.7,281.7,52.1,281.1,52.1z M282.3,48.4c-0.3-0.4-0.7-0.6-1.1-0.6
			c-0.5,0-0.9,0.3-1.1,0.6c-0.3,0.4-0.3,1-0.3,1.4c0,0.4,0,1,0.3,1.4c0.2,0.4,0.6,0.6,1,0.6c0.4,0,0.9-0.2,1.2-0.7
			c0.1-0.2,0.1-0.2,0.1-0.4v-2C282.4,48.6,282.4,48.5,282.3,48.4z"/>
		<path d="M285.6,51.1c0.2,0.4,0.6,0.7,1.1,0.7c0.1,0,1,0,1.3-1c0-0.1,0-0.1,0.1-0.1c0,0,0.1,0,0.1,0.1c0,0.2-0.4,1.3-1.7,1.3
			c-1.1,0-2.2-1-2.2-2.3c0-1.2,0.9-2.3,2.1-2.3c1.2,0,1.8,1,1.8,2c0,0.2,0,0.2-0.2,0.2h-2.8C285.3,50,285.3,50.7,285.6,51.1z
			 M287.6,49.4c0-0.4-0.1-1.7-1.1-1.7c-0.3,0-1.2,0.2-1.2,1.7H287.6z"/>
	</g>
	<g>
		<path d="M291.5,47.5c0.4,0,0.7,0.3,0.7,0.6s-0.2,0.4-0.4,0.4c-0.2,0-0.4-0.1-0.4-0.4c0-0.3,0.2-0.4,0.2-0.4c0,0,0,0-0.1,0
			c-0.8,0-1.2,0.9-1.2,1.9v1.5c0,0.4,0,0.5,0.8,0.5h0.2V52c-0.4,0-0.9,0-1.3,0c-0.3,0-0.7,0-1.1,0v-0.3c0.7,0,0.8,0,0.8-0.4v-2.7
			c0-0.5-0.1-0.6-0.8-0.6v-0.3l1.4-0.1v1.1C290.4,48.2,290.8,47.5,291.5,47.5z"/>
	</g>
	<polyline points="276.8,67.2 274.5,62.6 272.2,67.2 274.5,66 	"/>
	<line class="st0" x1="274.5" y1="76.8" x2="274.5" y2="66"/>
	<g>
		<path d="M265,88.1c0,0.1-0.1,0.2-0.2,0.2c-0.1,0-0.2-0.1-0.2-0.2c0,0,0-0.2,0-0.2l0.8-2.9h-1.9l-0.8,3c0,0.1-0.1,0.2-0.2,0.2
			c-0.1,0-0.2-0.1-0.2-0.2c0,0,0-0.2,0-0.2l0.8-2.9h-1.6c-0.1,0-0.3,0-0.3-0.2s0.2-0.2,0.3-0.2h1.7l0.4-1.5h-2.1
			c-0.1,0-0.3,0-0.3-0.2s0.2-0.2,0.3-0.2h2.2l0.8-3c0-0.1,0.1-0.2,0.2-0.2c0.1,0,0.2,0.1,0.2,0.2c0,0,0,0.2,0,0.2l-0.8,2.9h1.9
			l0.8-3c0-0.1,0.1-0.2,0.2-0.2c0.1,0,0.2,0.1,0.2,0.2c0,0,0,0.2,0,0.2l-0.8,2.9h1.6c0.1,0,0.3,0,0.3,0.2s-0.2,0.2-0.3,0.2h-1.7
			l-0.4,1.5h2.1c0.1,0,0.3,0,0.3,0.2s-0.2,0.2-0.3,0.2h-2.2L265,88.1z M265.5,84.7l0.4-1.5H264l-0.4,1.5H265.5z"/>
		<path d="M275.4,82c1.1,0,2.1,1,2.1,2.3c0,1.3-1,2.3-2.2,2.3c-0.7,0-1.2-0.5-1.3-0.7c-0.3,0.5-0.3,0.6-0.4,0.6h-0.2v-5.9
			c0-0.5-0.1-0.6-0.8-0.6v-0.3l1.4-0.1v3.2C274.2,82.5,274.6,82,275.4,82z M274.2,85.7c0.2,0.4,0.6,0.6,1,0.6c0.5,0,0.9-0.3,1.1-0.6
			c0.3-0.4,0.3-1,0.3-1.4c0-0.4,0-1-0.3-1.4c-0.2-0.4-0.6-0.6-1-0.6c-0.2,0-0.8,0.1-1.2,0.6C274,83,274,83,274,83.2v2.1
			C274,85.4,274,85.5,274.2,85.7z"/>
	</g>
	<g>
		<path d="M279.6,85.7c0,0.4,0,0.4,0.7,0.4v0.3c-0.3,0-0.7,0-1,0c-0.2,0-0.8,0-1.1,0v-0.3c0.7,0,0.8,0,0.8-0.4V83
			c0-0.5-0.1-0.5-0.7-0.5v-0.3l1.4-0.1V85.7z M279.1,80.8c-0.3,0-0.5-0.3-0.5-0.5c0-0.3,0.2-0.5,0.5-0.5c0.3,0,0.5,0.2,0.5,0.5
			S279.4,80.8,279.1,80.8z"/>
		<path d="M282.3,85.2c0,0.2,0,1.1,0.7,1.1c0.4,0,0.7-0.4,0.7-1.1v-0.5h0.2v0.6c0,0.6-0.3,1.3-1,1.3c-0.4,0-1.3-0.1-1.3-1.3v-2.8
			h-0.8v-0.2c1,0,1.3-1.1,1.3-1.9h0.2v1.8h1.4v0.3h-1.4V85.2z"/>
	</g>
	<g>
		<path d="M285.1,84c-0.3-0.2-0.4-0.5-0.4-0.8c0-0.6,0.4-1.2,1.6-1.2c0.1,0,0.6,0,0.9,0.3c0,0,0.1-0.1,0.2-0.2
			c0.1-0.1,0.1-0.1,0.2-0.1c0.1,0,0.1,0.1,0.1,0.2v1c0,0.2,0,0.2-0.1,0.2c0,0-0.1,0-0.1-0.1c0-0.3-0.1-1.2-1.2-1.2
			c-0.9,0-1.1,0.4-1.1,0.8c0,0.6,0.7,0.7,1.2,0.8c0.4,0.1,0.8,0.2,1.1,0.5c0.1,0.1,0.4,0.4,0.4,0.9c0,0.7-0.5,1.4-1.6,1.4
			c-0.2,0-0.7,0-1.1-0.4c-0.2,0.2-0.2,0.2-0.2,0.2c-0.2,0.2-0.2,0.2-0.2,0.2c-0.1,0-0.1-0.1-0.1-0.2V85c0-0.2,0-0.2,0.1-0.2
			c0.1,0,0.1,0,0.1,0.2c0.2,0.8,0.5,1.4,1.4,1.4c0.8,0,1.1-0.4,1.1-0.9c0-0.7-0.8-0.9-1-0.9C285.7,84.3,285.5,84.3,285.1,84z"/>
	</g>
	<polyline points="245.2,50.7 249.7,48.5 245.2,46.2 246.3,48.5 	"/>
	<line class="st0" x1="221.4" y1="48.5" x2="246.3" y2="48.5"/>
	<g>
		<path d="M231.5,34.9l-0.2,0.2l-1.1-1l-1.2,1l-0.2-0.2l1.3-1.4L231.5,34.9z"/>
	</g>
	<g>
		<path d="M229.9,38.8c-0.1,0.4-0.2,0.7-0.2,0.9c0,0.3,0.2,0.7,0.5,0.7c0.3,0,1-0.2,1.3-1.3c0-0.1,0-0.1,0.1-0.1c0,0,0.1,0,0.1,0.1
			c0,0.2-0.6,1.5-1.6,1.5c-0.6,0-1-0.4-1.1-0.8c0,0.1-0.4,0.8-1,0.8c-0.4,0-0.9-0.2-0.9-0.7c0-0.3,0.2-0.6,0.5-0.6
			c0.1,0,0.4,0.1,0.4,0.3c0,0.3-0.2,0.5-0.5,0.5c0.2,0.1,0.4,0.1,0.5,0.1c0.4,0,0.8-0.4,0.9-1c0.4-1.4,0.5-2.1,0.5-2.4
			c0-0.6-0.3-0.7-0.5-0.7c-0.3,0-1,0.2-1.3,1.3c0,0.1,0,0.1-0.1,0.1c0,0-0.1,0-0.1-0.1c0-0.2,0.6-1.5,1.6-1.5c0.3,0,0.8,0.1,1.1,0.8
			c0.1-0.2,0.5-0.8,1-0.8c0.3,0,0.9,0.1,0.9,0.7c0,0.4-0.3,0.6-0.5,0.6c-0.3,0-0.4-0.2-0.4-0.3c0-0.2,0.2-0.5,0.5-0.5
			c-0.2-0.1-0.4-0.1-0.5-0.1c-0.7,0-0.9,0.9-1,1.2L229.9,38.8z"/>
	</g>
	<g>
		<path d="M233.8,42.9V33h1.4v0.4h-1v9.2h1v0.4H233.8z"/>
	</g>
	<g>
		<path d="M236.9,37.5c0.1-0.5,0.2-0.6,0.2-0.8c0-0.3-0.1-0.5-0.3-0.5c-0.4,0-0.6,0.5-0.7,1.2c-0.1,0.2-0.1,0.2-0.2,0.2
			c0,0-0.1,0-0.1-0.1c0,0,0.1-0.6,0.3-1c0.1-0.2,0.3-0.6,0.7-0.6c0.5,0,0.9,0.3,0.9,0.9c0.2-0.2,0.7-0.9,1.6-0.9
			c0.7,0,1.1,0.4,1.1,1.1c0,0.6-0.4,1.7-0.6,2.2c-0.1,0.2-0.2,0.5-0.2,0.7c0,0.2,0.1,0.3,0.2,0.3c0.5,0,0.8-0.6,1-1.2
			c0.1-0.1,0.1-0.2,0.2-0.2c0,0,0.1,0,0.1,0.1c0,0.1-0.4,1.5-1.3,1.5c-0.5,0-0.8-0.3-0.8-0.8c0-0.1,0-0.2,0.1-0.5
			c0.2-0.4,0.6-1.7,0.6-2.3c0-0.3-0.1-0.7-0.5-0.7c-0.9,0-1.5,0.9-1.6,1.2c0,0-0.1,0.3-0.1,0.5c0,0.2-0.1,0.4-0.2,0.7l-0.2,0.9
			c-0.1,0.2-0.2,0.7-0.2,0.7c-0.1,0.2-0.2,0.3-0.4,0.3c-0.1,0-0.3-0.1-0.3-0.3c0-0.1,0.1-0.3,0.1-0.4L236.9,37.5z"/>
	</g>
	<g>
		<path d="M243,42.9h-1.4v-0.4h1v-9.2h-1V33h1.4V42.9z"/>
	</g>
	<polyline points="323.1,50.7 327.7,48.5 323.1,46.2 324.3,48.5 	"/>
	<line class="st0" x1="299.3" y1="48.5" x2="324.3" y2="48.5"/>
	<g>
		<path d="M308.7,36.3c-0.5,0-1.1,0.4-1.4,1c-0.3,0.6-0.5,1.6-0.5,2c0,0.6,0.3,1.1,0.9,1.1c0.1,0,1.2,0,2-1c0.1-0.1,0.1-0.1,0.1-0.1
			c0.1,0,0.1,0.1,0.1,0.1c0,0.1-0.8,1.2-2.3,1.2c-1,0-1.6-0.8-1.6-1.7c0-1.4,1.3-2.8,2.7-2.8c0.7,0,1.2,0.4,1.2,0.9
			c0,0.4-0.3,0.6-0.6,0.6c-0.2,0-0.4-0.1-0.4-0.3c0-0.1,0-0.2,0.2-0.4c0.1-0.1,0.3-0.1,0.4-0.1C309.4,36.4,309.1,36.3,308.7,36.3z"
			/>
	</g>
	<g>
		<path d="M311.1,42.9V33h1.4v0.4h-1v9.2h1v0.4H311.1z"/>
	</g>
	<g>
		<path d="M314.2,37.5c0.1-0.5,0.2-0.6,0.2-0.8c0-0.3-0.1-0.5-0.3-0.5c-0.4,0-0.6,0.5-0.7,1.2c-0.1,0.2-0.1,0.2-0.2,0.2
			c0,0-0.1,0-0.1-0.1c0,0,0.1-0.6,0.3-1c0.1-0.2,0.3-0.6,0.7-0.6c0.5,0,0.9,0.3,0.9,0.9c0.2-0.2,0.7-0.9,1.6-0.9
			c0.7,0,1.1,0.4,1.1,1.1c0,0.6-0.4,1.7-0.6,2.2c-0.1,0.2-0.2,0.5-0.2,0.7c0,0.2,0.1,0.3,0.2,0.3c0.5,0,0.8-0.6,1-1.2
			c0.1-0.1,0.1-0.2,0.2-0.2c0,0,0.1,0,0.1,0.1c0,0.1-0.4,1.5-1.3,1.5c-0.5,0-0.8-0.3-0.8-0.8c0-0.1,0-0.2,0.1-0.5
			c0.2-0.4,0.6-1.7,0.6-2.3c0-0.3-0.1-0.7-0.5-0.7c-0.9,0-1.5,0.9-1.6,1.2c0,0-0.1,0.3-0.1,0.5c0,0.2-0.1,0.4-0.2,0.7l-0.2,0.9
			c-0.1,0.2-0.2,0.7-0.2,0.7c-0.1,0.2-0.2,0.3-0.4,0.3c-0.1,0-0.3-0.1-0.3-0.3c0-0.1,0.1-0.3,0.1-0.4L314.2,37.5z"/>
	</g>
	<g>
		<path d="M320.3,42.9h-1.4v-0.4h1v-9.2h-1V33h1.4V42.9z"/>
	</g>
	<path class="st1" d="M5.2,133.5c0,0,10.1-14.1,17.7-14.2c6-0.1,8.2,10.8,14.2,10.6c9.3-0.2,11.9-17.2,21.3-17.7
		c4.3-0.2,10.6,7.1,10.6,7.1l0,0"/>
	<polyline points="25.2,102.6 22.9,98.1 20.7,102.6 22.9,101.5 	"/>
	<line class="st0" x1="22.9" y1="101.5" x2="22.9" y2="151.2"/>
	<polyline points="71.6,150 76.1,147.7 71.6,145.4 72.7,147.7 	"/>
	<path class="st0" d="M1.7,147.7h71 M8.8,151.2v-7.1 M37.1,151.2v-7.1 M51.3,151.2v-7.1 M65.5,151.2v-7.1"/>
	<g>
		<path d="M24.7,160.7c-0.4,0.9-1.2,1.2-1.7,1.2c-0.5,0-1.2-0.2-1.6-1c-0.4-0.8-0.4-1.7-0.4-2.4c0-0.8,0-1.6,0.4-2.3
			c0.4-0.9,1.1-1.2,1.7-1.2c0.4,0,1.2,0.2,1.7,1.1c0.3,0.7,0.4,1.5,0.4,2.3C25.1,159.2,25,160,24.7,160.7z M24.2,160.4
			c0.1-0.6,0.1-1.3,0.1-2.1c0-0.6,0-1.4-0.1-1.9c-0.2-1-0.8-1.2-1.2-1.2c-0.2,0-1,0.1-1.2,1.3c-0.1,0.5-0.1,1.2-0.1,1.8
			c0,0.6,0,1.5,0.1,2.1c0.2,1,0.8,1.2,1.2,1.2C23.4,161.6,24,161.3,24.2,160.4z"/>
	</g>
	<g>
		<path d="M56.3,170.8c0,0.1,0,0.2,0,0.2c0,0.2,0.1,0.2,0.4,0.2c0.3,0,0.4,0,0.6,0c0.3,0,0.3,0,0.3,0.1c0,0.2-0.1,0.2-0.2,0.2
			c-0.3,0-0.6,0-0.9,0c-0.3,0-0.5,0-0.8,0c-0.3,0-0.6,0-0.8,0c-0.3,0-0.5,0-0.8,0c-0.1,0-0.2,0-0.2-0.1c0-0.2,0.1-0.2,0.4-0.2
			c1.1,0,1.1-0.1,1.2-0.5l1.3-5.3c0,0,0-0.1,0-0.2c0-0.1,0-0.1-0.3-0.1h-0.4c-1.5,0-1.7,0.2-2.3,1.7c-0.1,0.2-0.1,0.2-0.2,0.2
			c-0.1,0-0.1,0-0.1-0.1c0,0,0-0.2,0.1-0.2l0.6-1.8c0.1-0.2,0.1-0.2,0.3-0.2h5.5c0.2,0,0.3,0,0.3,0.1c0,0,0,0.1,0,0.2l-0.3,1.7
			c0,0.1,0,0.2-0.1,0.2c-0.1,0-0.1-0.1-0.1-0.1c0,0,0-0.2,0-0.2c0-0.3,0.1-0.6,0.1-0.8c0-0.8-0.4-0.8-1.5-0.8c-0.2,0-0.5,0-0.6,0
			c-0.1,0-0.2,0.1-0.2,0.4L56.3,170.8z"/>
	</g>
	<g>
		<path d="M61.6,170.2c-0.1,0-0.4,0-0.6,0.1c-0.2,0.1-0.3,0.3-0.3,0.4c0,0.2,0.1,0.3,0.4,0.3c0,0,0.2,0,0.3,0.1c0.3,0,1,0.2,1,0.8
			c0,0.3-0.2,1.2-1.5,1.2c-0.7,0-1.1-0.3-1.1-0.7c0-0.3,0.2-0.5,0.4-0.5c0.1,0,0.3,0.1,0.3,0.3c0,0.2-0.2,0.4-0.4,0.4
			c0.2,0.2,0.6,0.3,0.8,0.3c0.1,0,0.4,0,0.7-0.2c0.3-0.2,0.4-0.4,0.4-0.6c0-0.3-0.4-0.4-0.6-0.5c-0.5-0.1-0.6-0.1-0.8-0.3
			c-0.1-0.1-0.2-0.3-0.2-0.5c0-0.2,0.2-1,1.3-1c0.4,0,0.9,0.2,0.9,0.6c0,0.4-0.3,0.4-0.3,0.4c-0.1,0-0.2-0.1-0.2-0.2
			c0-0.1,0.1-0.3,0.3-0.3C62.1,170.2,61.8,170.2,61.6,170.2z"/>
	</g>
	<g>
		<path d="M29.1,106.1c-0.1,0.4-0.2,0.7-0.2,0.9c0,0.3,0.2,0.7,0.5,0.7c0.3,0,1-0.2,1.3-1.3c0-0.1,0-0.1,0.1-0.1c0,0,0.1,0,0.1,0.1
			c0,0.2-0.6,1.5-1.6,1.5c-0.6,0-1-0.4-1.1-0.8c0,0.1-0.4,0.8-1,0.8c-0.4,0-0.9-0.2-0.9-0.7c0-0.3,0.2-0.6,0.5-0.6
			c0.1,0,0.4,0.1,0.4,0.3c0,0.3-0.2,0.5-0.5,0.5c0.2,0.1,0.4,0.1,0.5,0.1c0.4,0,0.8-0.4,0.9-1c0.4-1.4,0.5-2.1,0.5-2.4
			c0-0.6-0.3-0.7-0.5-0.7c-0.3,0-1,0.2-1.3,1.3c0,0.1-0.1,0.1-0.1,0.1c0,0-0.1,0-0.1-0.1c0-0.3,0.6-1.5,1.6-1.5
			c0.3,0,0.8,0.1,1.1,0.8c0.1-0.2,0.5-0.8,1-0.8c0.3,0,0.9,0.1,0.9,0.7c0,0.4-0.3,0.6-0.5,0.6c-0.3,0-0.4-0.2-0.4-0.3
			c0-0.2,0.2-0.5,0.5-0.5c-0.2-0.1-0.4-0.1-0.5-0.1c-0.7,0-0.9,0.9-1,1.2L29.1,106.1z"/>
	</g>
	<g>
		<path d="M35.1,106.3c0.1,0,0.2,0.1,0.2,0.2c0,0-0.1,0.4-0.1,0.5l-0.1,0.5c0,0.2-0.1,0.4-0.2,0.6c0,0.2-0.1,0.4-0.1,0.6
			c0,0.2,0,0.3,0.2,0.3c0.3,0,0.4-0.4,0.5-0.7c0-0.2,0.1-0.2,0.2-0.2c0,0,0.1,0,0.1,0.1c0,0-0.1,0.4-0.2,0.7
			c-0.1,0.2-0.3,0.4-0.6,0.4c-0.2,0-0.6-0.1-0.7-0.5c-0.3,0.3-0.6,0.5-1,0.5c-0.6,0-1.1-0.5-1.1-1.2c0-1,0.9-2,1.8-2
			c0.3,0,0.6,0.2,0.7,0.4C34.8,106.3,34.9,106.3,35.1,106.3z M34.6,107C34.6,107,34.6,107,34.6,107c0-0.2-0.1-0.7-0.6-0.7
			c-0.2,0-0.6,0.1-0.9,0.7c-0.2,0.3-0.4,1-0.4,1.4c0,0.5,0.3,0.7,0.5,0.7c0.3,0,0.6-0.2,0.6-0.3c0.2-0.1,0.3-0.3,0.4-0.5L34.6,107z"
			/>
	</g>
	<g>
		<path d="M39.9,110.2c-0.1,0-1-0.6-1.6-1.9c-0.5-1.1-0.7-2.3-0.7-3.1c0-0.8,0.1-1.9,0.6-3c0.6-1.3,1.5-1.9,1.6-1.9
			c0.1,0,0.1,0,0.1,0.1c0,0,0,0-0.1,0.2c-1.2,1.2-1.6,3-1.6,4.7c0,1.5,0.3,3.4,1.6,4.7C40,110.1,40,110.1,39.9,110.2
			C40,110.2,40,110.2,39.9,110.2z"/>
	</g>
	<g>
		<path d="M41.9,106.7c0,0.2-0.1,0.2-0.1,0.5c0,0.3,0.1,0.5,0.3,0.5c0.3,0,0.9-0.2,1.3-1.3c0-0.1,0.1-0.1,0.1-0.1c0,0,0.1,0,0.1,0.1
			c0,0.1-0.6,1.5-1.6,1.5c-0.5,0-0.9-0.4-0.9-0.9c0-0.2,0-0.3,0.8-3.2h-0.9c-0.2,0-0.3,0-0.3-0.1c0-0.2,0.1-0.2,0.3-0.2H42l0.4-1.6
			c0.1-0.3,0.4-0.4,0.4-0.4c0.2,0,0.3,0.1,0.3,0.3c0,0.1,0,0.3-0.4,1.7h0.9c0.2,0,0.3,0,0.3,0.1c0,0.2-0.1,0.2-0.3,0.2h-0.9
			L41.9,106.7z"/>
	</g>
	<g>
		<path d="M46.4,108.3c-0.6,1.3-1.5,1.9-1.6,1.9c-0.1,0-0.1,0-0.1-0.1c0,0,0,0,0.1-0.2c1.2-1.3,1.6-3,1.6-4.7c0-2.1-0.6-3.7-1.5-4.7
			c-0.2-0.2-0.2-0.2-0.2-0.2c0-0.1,0-0.1,0.1-0.1c0.1,0,1,0.6,1.6,1.9c0.5,1.1,0.7,2.3,0.7,3.1C47,106.1,46.9,107.2,46.4,108.3z"/>
	</g>
	<polyline points="55.8,159.6 51.3,161.9 55.8,164.1 54.7,161.9 	"/>
	<polyline points="60.9,164.1 65.5,161.9 60.9,159.6 62.1,161.9 	"/>
	<line class="st0" x1="54.7" y1="161.9" x2="62.1" y2="161.9"/>
	<g>
		<path d="M82.7,149.8c0,0.2-0.1,0.2-0.1,0.5c0,0.3,0.1,0.5,0.3,0.5c0.3,0,0.9-0.2,1.3-1.3c0-0.1,0.1-0.1,0.1-0.1c0,0,0.1,0,0.1,0.1
			c0,0.1-0.6,1.5-1.6,1.5c-0.5,0-0.9-0.4-0.9-0.9c0-0.2,0-0.3,0.8-3.2h-0.9c-0.2,0-0.3,0-0.3-0.1c0-0.2,0.1-0.2,0.3-0.2h0.9l0.4-1.6
			c0.1-0.3,0.4-0.4,0.4-0.4c0.2,0,0.3,0.1,0.3,0.3c0,0.1,0,0.3-0.4,1.7h0.9c0.2,0,0.3,0,0.3,0.1c0,0.2-0.1,0.2-0.3,0.2h-0.9
			L82.7,149.8z"/>
	</g>
	<g>
		<path d="M318.4,129.2c-0.2,0-0.4,0-0.4-0.2c0-0.2,0.2-0.2,0.3-0.2h5.9c-0.5-0.5-1-1.3-1-1.5c0-0.1,0.1-0.1,0.2-0.1
			c0.1,0,0.1,0,0.3,0.2c0.6,1.1,1.6,2,2.9,2.4c0.2,0.1,0.2,0.1,0.2,0.1l0,0c0,0,0,0,0,0.1c0,0,0,0,0,0.1c0,0,0,0-0.2,0.1
			c-0.5,0.1-1.2,0.4-1.9,1c-0.6,0.6-0.9,1.1-1.1,1.5c0,0.1-0.1,0.1-0.2,0.1c-0.1,0-0.2,0-0.2-0.1c0-0.1,0.5-1,1-1.5h-5.9
			c-0.2,0-0.3,0-0.3-0.2s0.2-0.2,0.4-0.2h6.3c0.4-0.3,0.9-0.6,1.3-0.8c-0.3-0.1-0.8-0.4-1.3-0.8H318.4z"/>
	</g>
	<g>
		<path d="M333.8,128.3c-0.5,0-1.1,0.4-1.4,1c-0.3,0.6-0.5,1.6-0.5,2c0,0.6,0.3,1.1,0.9,1.1c0.1,0,1.2,0,2-1
			c0.1-0.1,0.1-0.1,0.1-0.1c0.1,0,0.1,0.1,0.1,0.1c0,0.1-0.8,1.2-2.3,1.2c-1,0-1.6-0.8-1.6-1.7c0-1.4,1.3-2.8,2.7-2.8
			c0.7,0,1.2,0.4,1.2,0.9c0,0.4-0.3,0.6-0.6,0.6c-0.2,0-0.4-0.1-0.4-0.3c0-0.1,0-0.2,0.2-0.4c0.1-0.1,0.3-0.1,0.4-0.1
			C334.5,128.4,334.1,128.3,333.8,128.3z"/>
	</g>
	<g>
		<path d="M336.2,135v-10h1.4v0.4h-1v9.2h1v0.4H336.2z"/>
	</g>
	<g>
		<path d="M339.3,129.6c0.1-0.5,0.2-0.6,0.2-0.8c0-0.3-0.1-0.5-0.3-0.5c-0.4,0-0.6,0.5-0.7,1.2c-0.1,0.2-0.1,0.2-0.2,0.2
			c0,0-0.1,0-0.1-0.1c0,0,0.1-0.6,0.3-1c0.1-0.2,0.3-0.6,0.7-0.6c0.5,0,0.9,0.3,0.9,0.9c0.2-0.2,0.7-0.9,1.6-0.9
			c0.7,0,1.1,0.4,1.1,1.1c0,0.6-0.4,1.7-0.6,2.2c-0.1,0.2-0.2,0.5-0.2,0.7c0,0.2,0.1,0.3,0.2,0.3c0.5,0,0.8-0.6,1-1.2
			c0.1-0.1,0.1-0.2,0.2-0.2c0,0,0.1,0,0.1,0.1c0,0.1-0.4,1.5-1.3,1.5c-0.5,0-0.8-0.3-0.8-0.8c0-0.1,0-0.2,0.1-0.5
			c0.2-0.4,0.6-1.7,0.6-2.3c0-0.3-0.1-0.7-0.5-0.7c-0.9,0-1.5,0.9-1.6,1.2c0,0-0.1,0.3-0.1,0.5c0,0.2-0.1,0.4-0.2,0.7l-0.2,0.9
			c-0.1,0.2-0.2,0.7-0.2,0.7c-0.1,0.2-0.2,0.3-0.4,0.3c-0.1,0-0.3-0.1-0.3-0.3c0,0,0.1-0.3,0.1-0.4L339.3,129.6z"/>
	</g>
	<g>
		<path d="M345.4,135H344v-0.4h1v-9.2h-1V125h1.4V135z"/>
		<path d="M350.2,129.2c-0.1,0-0.3,0-0.3-0.2c0-0.2,0.2-0.2,0.3-0.2h6c0.1,0,0.3,0,0.3,0.2c0,0.2-0.2,0.2-0.3,0.2H350.2z
			 M350.2,131.1c-0.1,0-0.3,0-0.3-0.2s0.2-0.2,0.3-0.2h5.9c0.1,0,0.3,0,0.3,0.2s-0.2,0.2-0.3,0.2H350.2z"/>
	</g>
	<g>
		<path d="M361.3,130.5c-0.3,0-0.5-0.2-0.5-0.5s0.2-0.5,0.5-0.5s0.5,0.2,0.5,0.5S361.5,130.5,361.3,130.5z"/>
		<path d="M365.7,130.5c-0.3,0-0.5-0.2-0.5-0.5s0.2-0.5,0.5-0.5s0.5,0.2,0.5,0.5S366,130.5,365.7,130.5z"/>
		<path d="M370.1,130.5c-0.3,0-0.5-0.2-0.5-0.5s0.2-0.5,0.5-0.5s0.5,0.2,0.5,0.5S370.4,130.5,370.1,130.5z"/>
	</g>
	<g>
		<path d="M377.4,131.5c-0.4,0.9-1.2,1.2-1.7,1.2c-0.5,0-1.2-0.2-1.6-1c-0.4-0.8-0.4-1.7-0.4-2.4c0-0.8,0-1.6,0.4-2.3
			c0.4-0.9,1.1-1.2,1.7-1.2c0.4,0,1.2,0.2,1.7,1.1c0.3,0.7,0.4,1.5,0.4,2.3C377.8,130.1,377.7,130.8,377.4,131.5z M376.8,131.2
			c0.1-0.6,0.1-1.3,0.1-2.1c0-0.6,0-1.4-0.1-1.9c-0.2-1-0.8-1.2-1.2-1.2c-0.2,0-1,0.1-1.2,1.3c-0.1,0.5-0.1,1.2-0.1,1.8
			c0,0.6,0,1.5,0.1,2.1c0.2,1,0.8,1.2,1.2,1.2C376.1,132.5,376.7,132.2,376.8,131.2z"/>
		<path d="M381.2,131.7c0,0.4,0,0.5,0.9,0.5h0.3v0.3c-0.3,0-1.2,0-1.6,0s-1.3,0-1.6,0v-0.3h0.3c0.9,0,0.9-0.1,0.9-0.5v-5.2
			c-0.5,0.3-1.1,0.3-1.3,0.3v-0.3c0.3,0,1.2,0,1.8-0.6c0.2,0,0.2,0,0.2,0.3V131.7z"/>
		<path d="M386.2,131.7c0,0.4,0,0.5,0.9,0.5h0.3v0.3c-0.3,0-1.2,0-1.6,0s-1.3,0-1.6,0v-0.3h0.3c0.9,0,0.9-0.1,0.9-0.5v-5.2
			c-0.5,0.3-1.1,0.3-1.3,0.3v-0.3c0.3,0,1.2,0,1.8-0.6c0.2,0,0.2,0,0.2,0.3V131.7z"/>
		<path d="M392.5,131.5c-0.4,0.9-1.2,1.2-1.7,1.2c-0.5,0-1.2-0.2-1.6-1c-0.4-0.8-0.4-1.7-0.4-2.4c0-0.8,0-1.6,0.4-2.3
			c0.4-0.9,1.1-1.2,1.7-1.2c0.4,0,1.2,0.2,1.7,1.1c0.3,0.7,0.4,1.5,0.4,2.3C392.9,130.1,392.8,130.8,392.5,131.5z M392,131.2
			c0.1-0.6,0.1-1.3,0.1-2.1c0-0.6,0-1.4-0.1-1.9c-0.2-1-0.8-1.2-1.2-1.2c-0.2,0-1,0.1-1.2,1.3c-0.1,0.5-0.1,1.2-0.1,1.8
			c0,0.6,0,1.5,0.1,2.1c0.2,1,0.8,1.2,1.2,1.2C391.2,132.5,391.8,132.2,392,131.2z"/>
		<path d="M396.3,131.7c0,0.4,0,0.5,0.9,0.5h0.3v0.3c-0.3,0-1.2,0-1.6,0s-1.3,0-1.6,0v-0.3h0.3c0.9,0,0.9-0.1,0.9-0.5v-5.2
			c-0.5,0.3-1.1,0.3-1.3,0.3v-0.3c0.3,0,1.2,0,1.8-0.6c0.2,0,0.2,0,0.2,0.3V131.7z"/>
		<path d="M402.6,131.5c-0.4,0.9-1.2,1.2-1.7,1.2c-0.5,0-1.2-0.2-1.6-1c-0.4-0.8-0.4-1.7-0.4-2.4c0-0.8,0-1.6,0.4-2.3
			c0.4-0.9,1.1-1.2,1.7-1.2c0.4,0,1.2,0.2,1.7,1.1c0.3,0.7,0.4,1.5,0.4,2.3C403,130.1,402.9,130.8,402.6,131.5z M402,131.2
			c0.1-0.6,0.1-1.3,0.1-2.1c0-0.6,0-1.4-0.1-1.9c-0.2-1-0.8-1.2-1.2-1.2c-0.2,0-1,0.1-1.2,1.3c-0.1,0.5-0.1,1.2-0.1,1.8
			c0,0.6,0,1.5,0.1,2.1c0.2,1,0.8,1.2,1.2,1.2C401.3,132.5,401.9,132.2,402,131.2z"/>
		<path d="M406.4,131.7c0,0.4,0,0.5,0.9,0.5h0.3v0.3c-0.3,0-1.2,0-1.6,0s-1.3,0-1.6,0v-0.3h0.3c0.9,0,0.9-0.1,0.9-0.5v-5.2
			c-0.5,0.3-1.1,0.3-1.3,0.3v-0.3c0.3,0,1.2,0,1.8-0.6c0.2,0,0.2,0,0.2,0.3V131.7z"/>
	</g>
	<g>
		<path d="M411.5,130.5c-0.3,0-0.5-0.2-0.5-0.5s0.2-0.5,0.5-0.5s0.5,0.2,0.5,0.5S411.8,130.5,411.5,130.5z"/>
		<path d="M416,130.5c-0.3,0-0.5-0.2-0.5-0.5s0.2-0.5,0.5-0.5s0.5,0.2,0.5,0.5S416.3,130.5,416,130.5z"/>
		<path d="M420.4,130.5c-0.3,0-0.5-0.2-0.5-0.5s0.2-0.5,0.5-0.5s0.5,0.2,0.5,0.5S420.7,130.5,420.4,130.5z"/>
	</g>
	<path class="st2" d="M221.4,147.7v-42.5 M249.7,147.7v-42.5 M263.9,147.7v-42.5 M278.1,147.7v-42.5"/>
	<g>
		<path d="M192.5,125c-0.2,0-0.4,0-0.4-0.2c0-0.2,0.2-0.2,0.3-0.2h5.9c-0.5-0.5-1-1.3-1-1.5c0-0.1,0.1-0.1,0.2-0.1
			c0.1,0,0.1,0,0.3,0.2c0.6,1.1,1.6,2,2.9,2.4c0.2,0.1,0.2,0.1,0.2,0.1l0,0c0,0,0,0,0,0.1c0,0,0,0,0,0.1c0,0,0,0-0.2,0.1
			c-0.5,0.1-1.2,0.4-1.9,1c-0.6,0.6-0.9,1.1-1.1,1.5c0,0.1-0.1,0.1-0.2,0.1c-0.1,0-0.2,0-0.2-0.1c0-0.1,0.5-1,1-1.5h-5.9
			c-0.2,0-0.3,0-0.3-0.2s0.2-0.2,0.4-0.2h6.3c0.4-0.3,0.9-0.6,1.3-0.8c-0.3-0.1-0.8-0.4-1.3-0.8H192.5z"/>
	</g>
	<polyline points="237.8,102.6 235.5,98.1 233.3,102.6 235.5,101.5 	"/>
	<line class="st0" x1="235.5" y1="101.5" x2="235.5" y2="151.2"/>
	<polyline points="284.1,150 288.7,147.7 284.1,145.4 285.3,147.7 	"/>
	<path class="st0" d="M214.3,147.7h71 M221.4,151.2v-7.1 M249.7,151.2v-7.1 M263.9,151.2v-7.1 M278.1,151.2v-7.1"/>
	<g>
		<path d="M237.3,160.7c-0.4,0.9-1.2,1.2-1.7,1.2c-0.5,0-1.2-0.2-1.6-1c-0.4-0.8-0.4-1.7-0.4-2.4c0-0.8,0-1.6,0.4-2.3
			c0.4-0.9,1.1-1.2,1.7-1.2c0.4,0,1.2,0.2,1.7,1.1c0.3,0.7,0.4,1.5,0.4,2.3C237.6,159.2,237.6,160,237.3,160.7z M236.7,160.4
			c0.1-0.6,0.1-1.3,0.1-2.1c0-0.6,0-1.4-0.1-1.9c-0.2-1-0.8-1.2-1.2-1.2c-0.2,0-1,0.1-1.2,1.3c-0.1,0.5-0.1,1.2-0.1,1.8
			c0,0.6,0,1.5,0.1,2.1c0.2,1,0.8,1.2,1.2,1.2C236,161.6,236.5,161.3,236.7,160.4z"/>
	</g>
	<g>
		<path d="M245.6,102.2l-0.2,0.2l-1.1-1l-1.2,1l-0.2-0.2l1.3-1.4L245.6,102.2z"/>
	</g>
	<g>
		<path d="M244.1,106.1c-0.1,0.4-0.2,0.7-0.2,0.9c0,0.3,0.2,0.7,0.5,0.7c0.3,0,1-0.2,1.3-1.3c0-0.1,0-0.1,0.1-0.1c0,0,0.1,0,0.1,0.1
			c0,0.2-0.6,1.5-1.6,1.5c-0.6,0-1-0.4-1.1-0.8c0,0.1-0.4,0.8-1,0.8c-0.4,0-0.9-0.2-0.9-0.7c0-0.3,0.2-0.6,0.5-0.6
			c0.1,0,0.4,0.1,0.4,0.3c0,0.3-0.2,0.5-0.5,0.5c0.2,0.1,0.4,0.1,0.5,0.1c0.4,0,0.8-0.4,0.9-1c0.4-1.4,0.5-2.1,0.5-2.4
			c0-0.6-0.3-0.7-0.5-0.7c-0.3,0-1,0.2-1.3,1.3c0,0.1,0,0.1-0.1,0.1c0,0-0.1,0-0.1-0.1c0-0.3,0.6-1.5,1.6-1.5c0.3,0,0.8,0.1,1.1,0.8
			c0.1-0.2,0.5-0.8,1-0.8c0.3,0,0.9,0.1,0.9,0.7c0,0.4-0.3,0.6-0.5,0.6c-0.3,0-0.4-0.2-0.4-0.3c0-0.2,0.2-0.5,0.5-0.5
			c-0.2-0.1-0.4-0.1-0.5-0.1c-0.7,0-0.9,0.9-1,1.2L244.1,106.1z"/>
	</g>
	<g>
		<path d="M248,110.2v-10h1.4v0.4h-1v9.2h1v0.4H248z"/>
	</g>
	<g>
		<path d="M251,104.9c0.1-0.5,0.2-0.6,0.2-0.8c0-0.3-0.1-0.5-0.3-0.5c-0.4,0-0.6,0.5-0.7,1.2c-0.1,0.2-0.1,0.2-0.2,0.2
			c0,0-0.1,0-0.1-0.1c0,0,0.1-0.6,0.3-1c0.1-0.2,0.3-0.6,0.7-0.6c0.5,0,0.9,0.3,0.9,0.9c0.2-0.2,0.7-0.9,1.6-0.9
			c0.7,0,1.1,0.4,1.1,1.1c0,0.6-0.4,1.7-0.6,2.2c-0.1,0.2-0.2,0.5-0.2,0.7c0,0.2,0.1,0.3,0.2,0.3c0.5,0,0.8-0.6,1-1.2
			c0.1-0.1,0.1-0.2,0.2-0.2c0,0,0.1,0,0.1,0.1c0,0.1-0.4,1.5-1.3,1.5c-0.5,0-0.8-0.3-0.8-0.8c0-0.1,0-0.2,0.1-0.5
			c0.2-0.4,0.6-1.7,0.6-2.3c0-0.3-0.1-0.7-0.5-0.7c-0.9,0-1.5,0.9-1.6,1.2c0,0-0.1,0.3-0.1,0.5c0,0.2-0.1,0.4-0.2,0.7l-0.2,0.9
			c-0.1,0.2-0.2,0.7-0.2,0.7c-0.1,0.2-0.2,0.3-0.4,0.3c-0.1,0-0.3-0.1-0.3-0.3c0,0,0.1-0.3,0.1-0.4L251,104.9z"/>
	</g>
	<g>
		<path d="M257.2,110.2h-1.4v-0.4h1v-9.2h-1v-0.4h1.4V110.2z"/>
	</g>
	<g>
		<path d="M294.3,147c0.1-0.5,0.2-0.6,0.2-0.8c0-0.3-0.1-0.5-0.3-0.5c-0.4,0-0.6,0.5-0.7,1.2c-0.1,0.2-0.1,0.2-0.2,0.2
			c0,0-0.1,0-0.1-0.1c0,0,0.1-0.6,0.3-1c0.1-0.2,0.3-0.6,0.7-0.6c0.5,0,0.9,0.3,0.9,0.9c0.2-0.2,0.7-0.9,1.6-0.9
			c0.7,0,1.1,0.4,1.1,1.1c0,0.6-0.4,1.7-0.6,2.2c-0.1,0.2-0.2,0.5-0.2,0.7c0,0.2,0.1,0.3,0.2,0.3c0.5,0,0.8-0.6,1-1.2
			c0.1-0.1,0.1-0.2,0.2-0.2c0,0,0.1,0,0.1,0.1c0,0.1-0.4,1.5-1.3,1.5c-0.5,0-0.8-0.3-0.8-0.8c0-0.1,0-0.2,0.1-0.5
			c0.2-0.4,0.6-1.7,0.6-2.3c0-0.3-0.1-0.7-0.5-0.7c-0.9,0-1.5,0.9-1.6,1.2c0,0-0.1,0.3-0.1,0.5c0,0.2-0.1,0.4-0.2,0.7l-0.2,0.9
			c-0.1,0.2-0.2,0.7-0.2,0.7c-0.1,0.2-0.2,0.3-0.4,0.3c-0.1,0-0.3-0.1-0.3-0.3c0,0,0.1-0.3,0.1-0.4L294.3,147z"/>
	</g>
	<g>
		<path d="M250.1,160.8c0,0.4,0,0.5,0.9,0.5h0.3v0.3c-0.3,0-1.2,0-1.6,0s-1.3,0-1.6,0v-0.3h0.3c0.9,0,0.9-0.1,0.9-0.5v-5.2
			c-0.5,0.3-1.1,0.3-1.3,0.3v-0.3c0.3,0,1.2,0,1.8-0.6c0.2,0,0.2,0,0.2,0.3V160.8z"/>
		<path d="M264.5,160.9c0.2,0,0.9,0,0.9-0.1c0.1-0.1,0.2-0.6,0.2-0.9h0.2l-0.3,1.7H262c0-0.2,0-0.3,0.1-0.4l1.9-2.1
			c0.5-0.6,1-1.4,1-2.2c0-0.8-0.4-1.6-1.3-1.6c-0.6,0-1.1,0.4-1.3,1c0,0,0,0,0.1,0c0.3,0,0.5,0.3,0.5,0.5c0,0.4-0.3,0.5-0.5,0.5
			c0,0-0.5,0-0.5-0.6c0-0.9,0.7-1.8,1.9-1.8c1.2,0,2.1,0.8,2.1,1.9c0,1-0.6,1.5-2.2,2.9l-1.1,1H264.5z"/>
	</g>
	<g>
		<path d="M280.2,159.9c0,1-0.9,1.9-2.1,1.9c-1.1,0-2-0.7-2-1.6c0-0.4,0.3-0.6,0.6-0.6c0.3,0,0.6,0.2,0.6,0.6c0,0.4-0.3,0.6-0.7,0.5
			c0.3,0.6,1.1,0.8,1.5,0.8c0.4,0,1.1-0.3,1.1-1.6c0-1-0.4-1.7-1.2-1.7h-0.4c-0.2,0-0.2,0-0.2-0.1c0-0.1,0.1-0.1,0.1-0.1
			c0.1,0,0.3,0,0.4,0c0.2,0,0.6,0,0.9-0.5c0.3-0.4,0.3-1,0.3-1.1c0-0.9-0.5-1.1-1-1.1c-0.4,0-1,0.1-1.3,0.6c0.1,0,0.6,0,0.6,0.5
			c0,0.3-0.2,0.5-0.5,0.5c-0.3,0-0.5-0.2-0.5-0.5c0-0.8,0.8-1.4,1.8-1.4c1,0,1.8,0.6,1.8,1.4c0,0.8-0.6,1.5-1.4,1.8
			C279.6,158.3,280.2,159.1,280.2,159.9z"/>
	</g>
	<g>
		<path d="M217.3,159.8v-0.6h2.6v0.6H217.3z"/>
		<path d="M223.5,160.8c0,0.4,0,0.5,0.9,0.5h0.3v0.3c-0.3,0-1.2,0-1.6,0s-1.3,0-1.6,0v-0.3h0.3c0.9,0,0.9-0.1,0.9-0.5v-5.2
			c-0.5,0.3-1.1,0.3-1.3,0.3v-0.3c0.3,0,1.2,0,1.8-0.6c0.2,0,0.2,0,0.2,0.3V160.8z"/>
	</g>
	<path class="st3" d="M221.4,147.7v-21.3 M249.7,147.7v-21.3 M263.9,147.7v-28.3 M278.1,147.7v-35.4"/>
	<path class="st0" d="M232,119.3h7.1 M232,140.6h7.1 M232,133.5h7.1 M232,126.4h7.1 M232,112.3h7.1"/>
	<path class="st4" d="M214.3,140.6h70.9 M214.3,133.5h70.9 M214.3,126.4h70.9 M214.3,112.3h70.9 M214.3,119.3h70.9"/>
	<line class="st0" x1="295.8" y1="108.7" x2="295.8" y2="122.9"/>
	<polyline points="298,123.9 295.8,119.3 293.5,123.9 295.8,122.7 	"/>
	<line class="st0" x1="295.8" y1="122.9" x2="295.8" y2="122.7"/>
	<polyline points="293.5,107.7 295.8,112.3 298,107.7 295.8,108.9 	"/>
	<path class="st0" d="M295.8,108.7v0.1 M292.2,112.3h7.1 M292.2,119.3h7.1"/>
	<g>
		<path d="M310.1,119.1c0,0.1,0,0.1,0,0.1c0,0.1-0.1,0.1-0.2,0.1H303c-0.2,0-0.2,0-0.2-0.1c0,0,0,0,0-0.1l3.4-6.8
			c0.1-0.1,0.1-0.2,0.3-0.2c0.2,0,0.2,0,0.3,0.2L310.1,119.1z M303.4,118.5h5.4l-2.7-5.4L303.4,118.5z"/>
	</g>
	<line class="st3" x1="235.5" y1="147.7" x2="235.5" y2="119.3"/>
	<path class="st2" d="M115.1,147.7v-42.5 M143.4,147.7v-42.5 M157.6,147.7v-42.5 M171.8,147.7v-42.5"/>
	<g>
		<path d="M86.2,125c-0.2,0-0.4,0-0.4-0.2c0-0.2,0.2-0.2,0.3-0.2h5.9c-0.5-0.5-1-1.3-1-1.5c0-0.1,0.1-0.1,0.2-0.1
			c0.1,0,0.1,0,0.3,0.2c0.6,1.1,1.6,2,2.9,2.4c0.2,0.1,0.2,0.1,0.2,0.1l0,0c0,0,0,0,0,0.1c0,0,0,0,0,0.1c0,0,0,0-0.2,0.1
			c-0.5,0.1-1.2,0.4-1.9,1c-0.6,0.6-0.9,1.1-1.1,1.5c0,0.1-0.1,0.1-0.2,0.1c-0.1,0-0.2,0-0.2-0.1c0-0.1,0.5-1,1-1.5h-5.9
			c-0.2,0-0.3,0-0.3-0.2s0.2-0.2,0.4-0.2h6.3c0.4-0.3,0.9-0.6,1.3-0.8c-0.3-0.1-0.8-0.4-1.3-0.8H86.2z"/>
	</g>
	<path class="st5" d="M111.5,133.5c0,0,10.1-14.1,17.7-14.2c6-0.1,8.2,10.8,14.2,10.6c9.3-0.2,11.9-17.2,21.3-17.7
		c4.3-0.2,10.6,7.1,10.6,7.1l0,0"/>
	<polyline points="131.5,102.6 129.2,98.1 127,102.6 129.2,101.5 	"/>
	<line class="st0" x1="129.2" y1="101.5" x2="129.2" y2="151.2"/>
	<polyline points="177.8,150 182.4,147.7 177.8,145.4 179,147.7 	"/>
	<path class="st0" d="M108,147.7h71 M115.1,151.2v-7.1 M143.4,151.2v-7.1 M157.6,151.2v-7.1 M171.8,151.2v-7.1"/>
	<g>
		<path d="M131.1,160.7c-0.4,0.9-1.2,1.2-1.7,1.2c-0.5,0-1.2-0.2-1.6-1c-0.4-0.8-0.4-1.7-0.4-2.4c0-0.8,0-1.6,0.4-2.3
			c0.4-0.9,1.1-1.2,1.7-1.2c0.4,0,1.2,0.2,1.7,1.1c0.3,0.7,0.4,1.5,0.4,2.3C131.4,159.2,131.4,160,131.1,160.7z M130.5,160.4
			c0.1-0.6,0.1-1.3,0.1-2.1c0-0.6,0-1.4-0.1-1.9c-0.2-1-0.8-1.2-1.2-1.2c-0.2,0-1,0.1-1.2,1.3c-0.1,0.5-0.1,1.2-0.1,1.8
			c0,0.6,0,1.5,0.1,2.1c0.2,1,0.8,1.2,1.2,1.2C129.8,161.6,130.3,161.3,130.5,160.4z"/>
	</g>
	<g>
		<path d="M137.9,106.1c-0.1,0.4-0.2,0.7-0.2,0.9c0,0.3,0.2,0.7,0.5,0.7c0.3,0,1-0.2,1.3-1.3c0-0.1,0-0.1,0.1-0.1c0,0,0.1,0,0.1,0.1
			c0,0.2-0.6,1.5-1.6,1.5c-0.6,0-1-0.4-1.1-0.8c0,0.1-0.4,0.8-1,0.8c-0.4,0-0.9-0.2-0.9-0.7c0-0.3,0.2-0.6,0.5-0.6
			c0.1,0,0.4,0.1,0.4,0.3c0,0.3-0.2,0.5-0.5,0.5c0.2,0.1,0.4,0.1,0.5,0.1c0.4,0,0.8-0.4,0.9-1c0.4-1.4,0.5-2.1,0.5-2.4
			c0-0.6-0.3-0.7-0.5-0.7c-0.3,0-1,0.2-1.3,1.3c0,0.1-0.1,0.1-0.1,0.1c0,0-0.1,0-0.1-0.1c0-0.3,0.6-1.5,1.6-1.5
			c0.3,0,0.8,0.1,1.1,0.8c0.1-0.2,0.5-0.8,1-0.8c0.3,0,0.9,0.1,0.9,0.7c0,0.4-0.3,0.6-0.5,0.6c-0.3,0-0.4-0.2-0.4-0.3
			c0-0.2,0.2-0.5,0.5-0.5c-0.2-0.1-0.4-0.1-0.5-0.1c-0.7,0-0.9,0.9-1,1.2L137.9,106.1z"/>
	</g>
	<g>
		<path d="M141.7,110.2v-10h1.4v0.4h-1v9.2h1v0.4H141.7z"/>
	</g>
	<g>
		<path d="M144.7,104.9c0.1-0.5,0.2-0.6,0.2-0.8c0-0.3-0.1-0.5-0.3-0.5c-0.4,0-0.6,0.5-0.7,1.2c-0.1,0.2-0.1,0.2-0.2,0.2
			c0,0-0.1,0-0.1-0.1c0,0,0.1-0.6,0.3-1c0.1-0.2,0.3-0.6,0.7-0.6c0.5,0,0.9,0.3,0.9,0.9c0.2-0.2,0.7-0.9,1.6-0.9
			c0.7,0,1.1,0.4,1.1,1.1c0,0.6-0.4,1.7-0.6,2.2c-0.1,0.2-0.2,0.5-0.2,0.7c0,0.2,0.1,0.3,0.2,0.3c0.5,0,0.8-0.6,1-1.2
			c0-0.1,0-0.2,0.1-0.2c0,0,0.1,0,0.1,0.1c0,0.1-0.4,1.5-1.3,1.5c-0.5,0-0.8-0.3-0.8-0.8c0-0.1,0-0.2,0.1-0.5
			c0.2-0.4,0.6-1.7,0.6-2.3c0-0.3-0.1-0.7-0.5-0.7c-0.9,0-1.5,0.9-1.6,1.2c0,0-0.1,0.3-0.1,0.5c0,0.2-0.1,0.4-0.2,0.7l-0.2,0.9
			c-0.1,0.2-0.2,0.7-0.2,0.7c-0.1,0.2-0.2,0.3-0.4,0.3c-0.1,0-0.3-0.1-0.3-0.3c0,0,0.1-0.3,0.1-0.4L144.7,104.9z"/>
	</g>
	<g>
		<path d="M150.9,110.2h-1.4v-0.4h1v-9.2h-1v-0.4h1.4V110.2z"/>
	</g>
	<g>
		<path d="M187.9,147c0.1-0.5,0.2-0.6,0.2-0.8c0-0.3-0.1-0.5-0.3-0.5c-0.4,0-0.6,0.5-0.7,1.2c-0.1,0.2-0.1,0.2-0.2,0.2
			c0,0-0.1,0-0.1-0.1c0,0,0.1-0.6,0.3-1c0.1-0.2,0.3-0.6,0.7-0.6c0.5,0,0.9,0.3,0.9,0.9c0.2-0.2,0.7-0.9,1.6-0.9
			c0.7,0,1.1,0.4,1.1,1.1c0,0.6-0.4,1.7-0.6,2.2c-0.1,0.2-0.2,0.5-0.2,0.7c0,0.2,0.1,0.3,0.2,0.3c0.5,0,0.8-0.6,1-1.2
			c0-0.1,0-0.2,0.1-0.2c0,0,0.1,0,0.1,0.1c0,0.1-0.4,1.5-1.3,1.5c-0.5,0-0.8-0.3-0.8-0.8c0-0.1,0-0.2,0.1-0.5
			c0.2-0.4,0.6-1.7,0.6-2.3c0-0.3-0.1-0.7-0.5-0.7c-0.9,0-1.5,0.9-1.6,1.2c0,0-0.1,0.3-0.1,0.5c0,0.2-0.1,0.4-0.2,0.7l-0.2,0.9
			c-0.1,0.2-0.2,0.7-0.2,0.7c-0.1,0.2-0.2,0.3-0.4,0.3c-0.1,0-0.3-0.1-0.3-0.3c0,0,0.1-0.3,0.1-0.4L187.9,147z"/>
	</g>
	<g>
		<path d="M143.9,160.8c0,0.4,0,0.5,0.9,0.5h0.3v0.3c-0.3,0-1.2,0-1.6,0c-0.4,0-1.3,0-1.6,0v-0.3h0.3c0.9,0,0.9-0.1,0.9-0.5v-5.2
			c-0.5,0.3-1.1,0.3-1.3,0.3v-0.3c0.3,0,1.2,0,1.8-0.6c0.2,0,0.2,0,0.2,0.3V160.8z"/>
		<path d="M158.2,160.9c0.2,0,0.9,0,0.9-0.1c0.1-0.1,0.2-0.6,0.2-0.9h0.2l-0.3,1.7h-3.7c0-0.2,0-0.3,0.1-0.4l1.9-2.1
			c0.5-0.6,1-1.4,1-2.2c0-0.8-0.4-1.6-1.3-1.6c-0.6,0-1.1,0.4-1.3,1c0,0,0,0,0.1,0c0.3,0,0.5,0.3,0.5,0.5c0,0.4-0.3,0.5-0.5,0.5
			c0,0-0.5,0-0.5-0.6c0-0.9,0.7-1.8,1.9-1.8c1.2,0,2.1,0.8,2.1,1.9c0,1-0.6,1.5-2.2,2.9l-1.1,1H158.2z"/>
		<path d="M173.9,159.9c0,1-0.9,1.9-2.1,1.9c-1.1,0-2-0.7-2-1.6c0-0.4,0.3-0.6,0.6-0.6c0.3,0,0.6,0.2,0.6,0.6c0,0.4-0.3,0.6-0.7,0.5
			c0.3,0.6,1.1,0.8,1.5,0.8c0.4,0,1.1-0.3,1.1-1.6c0-1-0.4-1.7-1.2-1.7h-0.4c-0.2,0-0.2,0-0.2-0.1c0-0.1,0.1-0.1,0.1-0.1
			c0.1,0,0.3,0,0.4,0c0.2,0,0.6,0,0.9-0.5c0.3-0.4,0.3-1,0.3-1.1c0-0.9-0.5-1.1-1-1.1c-0.4,0-1,0.1-1.3,0.6c0.1,0,0.6,0,0.6,0.5
			c0,0.3-0.2,0.5-0.5,0.5c-0.3,0-0.5-0.2-0.5-0.5c0-0.8,0.8-1.4,1.8-1.4c1,0,1.8,0.6,1.8,1.4c0,0.8-0.6,1.5-1.4,1.8
			C173.2,158.3,173.9,159.1,173.9,159.9z"/>
	</g>
	<g>
		<path d="M111.1,159.8v-0.6h2.6v0.6H111.1z"/>
		<path d="M117.3,160.8c0,0.4,0,0.5,0.9,0.5h0.3v0.3c-0.3,0-1.2,0-1.6,0c-0.4,0-1.3,0-1.6,0v-0.3h0.3c0.9,0,0.9-0.1,0.9-0.5v-5.2
			c-0.5,0.3-1.1,0.3-1.3,0.3v-0.3c0.3,0,1.2,0,1.8-0.6c0.2,0,0.2,0,0.2,0.3V160.8z"/>
	</g>
	<path class="st6" d="M115.1,147.7V130 M143.4,147.7V130 M157.6,147.7v-28.3"/>
	<line class="st7" x1="171.8" y1="147.7" x2="171.8" y2="115.8"/>
	<g>
		<path d="M171.8,117.5c-1.1,0-1.9-0.9-1.9-1.9c0-1,0.9-1.9,1.9-1.9c1,0,1.9,0.9,1.9,1.9S172.9,117.5,171.8,117.5z"/>
	</g>
	<g>
		<path d="M157.6,121c-1.1,0-1.9-0.9-1.9-1.9c0-1,0.9-1.9,1.9-1.9c1,0,1.9,0.9,1.9,1.9S158.7,121,157.6,121z"/>
	</g>
	<g>
		<path d="M143.5,131.7c-1.1,0-1.9-0.9-1.9-1.9c0-1,0.9-1.9,1.9-1.9c1,0,1.9,0.9,1.9,1.9S144.5,131.7,143.5,131.7z"/>
	</g>
	<g>
		<path d="M129.3,121c-1.1,0-1.9-0.9-1.9-1.9c0-1,0.9-1.9,1.9-1.9c1,0,1.9,0.9,1.9,1.9S130.4,121,129.3,121z"/>
	</g>
	<g>
		<path d="M115,131.7c-1.1,0-1.9-0.9-1.9-1.9c0-1,0.9-1.9,1.9-1.9c1,0,1.9,0.9,1.9,1.9S116.1,131.7,115,131.7z"/>
	</g>
	<line class="st6" x1="129.2" y1="147.7" x2="129.2" y2="119.3"/>
	<g>
		<path d="M131.7,2.2c0-0.1,0-0.2,0-0.2c0-0.2-0.3-0.2-0.6-0.2c-0.2,0-0.3,0-0.3-0.1c0-0.2,0.1-0.2,0.3-0.2h3.1c1.3,0,2.1,1,2.1,2.4
			c0,2.2-1.9,4.4-3.8,4.4h-3.1c-0.2,0-0.2,0-0.2-0.1c0-0.2,0.1-0.2,0.3-0.2c0.7,0,0.7-0.1,0.8-0.4L131.7,2.2z M131.1,7.8
			c0,0.1,0,0.2,0,0.2c0,0.1,0,0.1,0.3,0.1h1c0.8,0,1.5-0.4,2-1c0.8-1,1.1-2.9,1.1-3.4c0-1.3-0.8-1.8-1.6-1.8h-1
			c-0.3,0-0.4,0-0.5,0.4L131.1,7.8z"/>
	</g>
	<polyline points="128.6,10 136.2,10 136.2,9.5 128.6,9.5 	"/>
	<g>
		<path d="M138.1,8.5c-0.5,0-0.8-0.4-0.8-0.8c0-0.2,0-0.3,0.2-0.7c0.1-0.3,0.2-0.7,0.4-1l0.3-0.8c0.1-0.2,0.2-0.5,0.2-0.7
			c0-0.2-0.1-0.3-0.2-0.3c-0.6,0-0.8,0.9-0.9,1.3c0,0.1,0,0.2-0.2,0.2c0,0-0.1,0-0.1-0.1c0,0,0.3-1.5,1.3-1.5c0.4,0,0.7,0.2,0.7,0.8
			c0,0.2,0,0.3-0.1,0.6L138.2,7c-0.1,0.4-0.3,0.7-0.3,1c0,0.3,0.1,0.3,0.2,0.3c0.6,0,0.8-1,0.9-1.2c0-0.1,0-0.2,0.2-0.2
			c0.1,0,0.1,0,0.1,0.1C139.4,7,139,8.5,138.1,8.5z M138.8,2.7c-0.1,0-0.3-0.1-0.3-0.3c0-0.3,0.3-0.5,0.5-0.5c0.1,0,0.3,0.1,0.3,0.3
			C139.3,2.5,139,2.7,138.8,2.7z"/>
		<path d="M140.6,5.5c0-0.5,0.4-1.5,1.6-1.5c0.7,0,1.1,0.4,1.1,0.8c0,0.4-0.3,0.5-0.4,0.5c-0.2,0-0.3-0.2-0.3-0.3
			c0-0.1,0.1-0.4,0.4-0.4c-0.1-0.4-0.5-0.5-0.7-0.5c-0.8,0-1,0.7-1,0.9c0,0.4,0.4,0.5,0.6,0.6c0.4,0.1,1.2,0.3,1.2,1.1
			c0,0.5-0.4,1.7-1.9,1.7c-0.7,0-1.3-0.4-1.3-1c0-0.4,0.3-0.6,0.5-0.6c0.2,0,0.3,0.1,0.3,0.3c0,0,0,0.4-0.5,0.5
			c0.2,0.5,0.7,0.6,1,0.6c1,0,1.3-0.8,1.3-1.1c0-0.5-0.4-0.6-0.9-0.7C141.3,6.4,140.6,6.2,140.6,5.5z"/>
		<path d="M146.7,4.2c-0.4,0-0.9,0.3-1.3,1c-0.3,0.5-0.5,1.5-0.5,2.1c0,0.6,0.2,1,0.8,1c0.2,0,1.1,0,1.8-1c0.1-0.1,0.1-0.1,0.1-0.1
			c0.1,0,0.2,0.1,0.2,0.2c0,0.1-0.8,1.1-2.1,1.1c-0.9,0-1.5-0.7-1.5-1.6c0-1.5,1.3-2.9,2.5-2.9c0.6,0,1.1,0.4,1.1,0.9
			c0,0.4-0.2,0.6-0.5,0.6c-0.2,0-0.3-0.2-0.3-0.3c0,0,0-0.4,0.5-0.5C147.3,4.2,146.8,4.2,146.7,4.2z"/>
		<path d="M149.6,8.1c0,0.1-0.1,0.4-0.4,0.4c-0.2,0-0.3-0.1-0.3-0.3c0,0,0-0.1,0-0.1l0.7-3c0-0.2,0.1-0.3,0.1-0.5
			c0-0.1,0-0.4-0.3-0.4c-0.3,0-0.5,0.5-0.7,1.2c0,0.2-0.1,0.2-0.2,0.2c0,0-0.1,0-0.1-0.1c0,0,0.1-0.6,0.3-1c0.2-0.3,0.4-0.5,0.7-0.5
			c0.3,0,0.7,0.2,0.8,0.7c0.2-0.2,0.5-0.7,1.2-0.7c0.3,0,1,0.1,1,0.6c0,0.4-0.3,0.5-0.5,0.5c-0.3,0-0.3-0.2-0.3-0.3
			c0,0,0-0.4,0.4-0.5c-0.2-0.1-0.5-0.1-0.5-0.1c-0.9,0-1.3,1.3-1.3,1.3L149.6,8.1z"/>
	</g>
	<g>
		<path d="M153.4,6.1c-0.1,0.3-0.2,0.7-0.2,1.1c0,0.4,0.1,1.1,0.8,1.1c0.2,0,1.1,0,1.8-1c0.1-0.1,0.1-0.1,0.1-0.1
			c0.1,0,0.2,0.1,0.2,0.2c0,0.1-0.8,1.1-2.1,1.1c-0.9,0-1.4-0.8-1.4-1.7C152.6,5,154,4,155,4c0.6,0,1,0.4,1,0.8c0,0.1,0,0.7-0.8,1
			c-0.5,0.2-1.1,0.2-1.4,0.2H153.4z M153.7,5.9c0.3,0,2,0,2-1.1c0-0.3-0.2-0.6-0.6-0.6c-0.1,0-1.1,0-1.6,1.7H153.7z"/>
		<path d="M157.9,7.4c-0.1,0.3-0.1,0.4-0.1,0.5c0,0.2,0,0.4,0.3,0.4c0.6,0,1-0.7,1.1-1.2c0.1-0.2,0.1-0.2,0.2-0.2
			c0.1,0,0.1,0,0.1,0.1c0,0-0.5,1.5-1.5,1.5c-0.5,0-0.8-0.4-0.8-0.9c0-0.1,0-0.3,0-0.3l0.7-2.9h-0.8c-0.2,0-0.2,0-0.2-0.1
			c0-0.2,0.1-0.2,0.3-0.2h0.8l0.4-1.6c0-0.1,0.1-0.4,0.4-0.4c0.1,0,0.3,0,0.3,0.3c0,0,0,0.1,0,0.2l-0.4,1.5h0.8c0.2,0,0.2,0,0.2,0.1
			c0,0.2-0.1,0.2-0.3,0.2h-0.8L157.9,7.4z"/>
		<path d="M161.3,6.1c-0.1,0.3-0.2,0.7-0.2,1.1c0,0.4,0.1,1.1,0.8,1.1c0.2,0,1.1,0,1.8-1c0.1-0.1,0.1-0.1,0.1-0.1
			c0.1,0,0.2,0.1,0.2,0.2c0,0.1-0.8,1.1-2.1,1.1c-0.9,0-1.4-0.8-1.4-1.7c0-1.8,1.4-2.8,2.5-2.8c0.6,0,1,0.4,1,0.8c0,0.1,0,0.7-0.8,1
			c-0.5,0.2-1.1,0.2-1.4,0.2H161.3z M161.6,5.9c0.3,0,2,0,2-1.1c0-0.3-0.2-0.6-0.6-0.6c-0.1,0-1.1,0-1.6,1.7H161.6z"/>
		<path d="M165,6.5c-0.2,0-0.3,0-0.3-0.1c0,0,0-0.2,0.1-0.3c0-0.1,0.1-0.1,0.3-0.1h1.9c0.2,0,0.2,0,0.2,0.1c0,0-0.1,0.3-0.1,0.3
			c0,0.1-0.1,0.1-0.3,0.1H165z"/>
		<path d="M169.4,7.4c-0.1,0.3-0.1,0.4-0.1,0.5c0,0.2,0,0.4,0.3,0.4c0.6,0,1-0.7,1.1-1.2c0.1-0.2,0.1-0.2,0.2-0.2
			c0.1,0,0.1,0,0.1,0.1c0,0-0.5,1.5-1.5,1.5c-0.5,0-0.8-0.4-0.8-0.9c0-0.1,0-0.3,0-0.3l0.7-2.9h-0.8c-0.2,0-0.2,0-0.2-0.1
			c0-0.2,0.1-0.2,0.3-0.2h0.8l0.4-1.6c0-0.1,0.1-0.4,0.4-0.4c0.1,0,0.3,0,0.3,0.3c0,0,0,0.1,0,0.2l-0.4,1.5h0.8c0.2,0,0.2,0,0.2,0.1
			c0,0.2-0.1,0.2-0.3,0.2h-0.8L169.4,7.4z"/>
		<path d="M172.8,8.5c-0.5,0-0.8-0.4-0.8-0.8c0-0.2,0-0.3,0.2-0.7c0.1-0.3,0.2-0.7,0.4-1l0.3-0.8c0.1-0.2,0.2-0.5,0.2-0.7
			c0-0.2-0.1-0.3-0.2-0.3c-0.6,0-0.8,0.9-0.9,1.3c0,0.1,0,0.2-0.2,0.2c0,0-0.1,0-0.1-0.1c0,0,0.3-1.5,1.3-1.5c0.4,0,0.7,0.2,0.7,0.8
			c0,0.2,0,0.3-0.1,0.6L172.9,7c-0.1,0.4-0.3,0.7-0.3,1c0,0.3,0.1,0.3,0.2,0.3c0.6,0,0.8-1,0.9-1.2c0-0.1,0-0.2,0.2-0.2
			c0.1,0,0.1,0,0.1,0.1C174.1,7,173.8,8.5,172.8,8.5z M173.6,2.7c-0.1,0-0.3-0.1-0.3-0.3c0-0.3,0.3-0.5,0.5-0.5
			c0.1,0,0.3,0.1,0.3,0.3C174.1,2.5,173.8,2.7,173.6,2.7z"/>
		<path d="M175.8,8.2c-0.1,0.2-0.2,0.3-0.4,0.3c-0.2,0-0.3-0.1-0.3-0.3c0,0,0-0.1,0-0.1l0.7-3c0-0.2,0.1-0.3,0.1-0.5
			c0-0.1,0-0.4-0.3-0.4c-0.3,0-0.5,0.5-0.7,1.2c0,0.2-0.1,0.2-0.2,0.2c0,0-0.1,0-0.1-0.1c0,0,0.1-0.6,0.3-1c0.2-0.3,0.4-0.5,0.7-0.5
			c0.4,0,0.8,0.3,0.8,0.8c0.3-0.5,0.8-0.8,1.4-0.8c0.4,0,1,0.2,1,0.9c0.3-0.4,0.8-0.9,1.5-0.9c0.5,0,1,0.2,1,1
			c0,0.6-0.4,1.7-0.6,2.2c-0.1,0.2-0.2,0.5-0.2,0.7c0,0.1,0,0.3,0.2,0.3c0.6,0,0.8-1,0.9-1.2c0-0.1,0-0.2,0.2-0.2
			c0.1,0,0.1,0,0.1,0.1c0,0-0.3,1.5-1.3,1.5c-0.5,0-0.8-0.4-0.8-0.8c0-0.2,0-0.3,0.2-0.6c0.1-0.4,0.6-1.6,0.6-2.2
			c0-0.1,0-0.7-0.5-0.7c-0.7,0-1.1,0.6-1.4,1.1C179,5.5,179,5.5,178.9,6c0,0.2-0.1,0.4-0.2,0.6l-0.4,1.6c-0.1,0.2-0.2,0.3-0.4,0.3
			c-0.2,0-0.3-0.1-0.3-0.3c0,0,0-0.1,0-0.1l0.6-2.6c0-0.1,0.1-0.4,0.1-0.6c0-0.1,0-0.7-0.5-0.7c-0.7,0-1.1,0.6-1.4,1.1
			c-0.1,0.2-0.1,0.2-0.2,0.7c0,0.2-0.1,0.4-0.2,0.6L175.8,8.2z"/>
		<path d="M184,6.1c-0.1,0.3-0.2,0.7-0.2,1.1c0,0.4,0.1,1.1,0.8,1.1c0.2,0,1.1,0,1.8-1c0.1-0.1,0.1-0.1,0.1-0.1
			c0.1,0,0.2,0.1,0.2,0.2c0,0.1-0.8,1.1-2.1,1.1c-0.9,0-1.4-0.8-1.4-1.7c0-1.8,1.4-2.8,2.5-2.8c0.6,0,1,0.4,1,0.8c0,0.1,0,0.7-0.8,1
			c-0.5,0.2-1.1,0.2-1.4,0.2H184z M184.3,5.9c0.3,0,2,0,2-1.1c0-0.3-0.2-0.6-0.6-0.6c-0.1,0-1.1,0-1.6,1.7H184.3z"/>
	</g>
	<polyline points="155,22.1 157.6,27.2 160.1,22.1 157.6,23.4 	"/>
	<line class="st8" x1="157.6" y1="13" x2="157.6" y2="23.4"/>
	<g>
		<path d="M226.4,2.4c0-0.1,0-0.2,0-0.2c0-0.2-0.3-0.2-0.6-0.2c-0.2,0-0.3,0-0.3-0.1c0-0.2,0.1-0.2,0.3-0.2h3.1c1.3,0,2.1,1,2.1,2.4
			c0,2.2-1.9,4.4-3.8,4.4h-3.1c-0.2,0-0.2,0-0.2-0.1c0-0.2,0.1-0.2,0.3-0.2c0.7,0,0.7-0.1,0.8-0.4L226.4,2.4z M225.8,7.9
			c0,0.1,0,0.2,0,0.2c0,0.1,0,0.1,0.3,0.1h1c0.8,0,1.5-0.4,2-1c0.8-1,1.1-2.9,1.1-3.4c0-1.3-0.8-1.8-1.6-1.8h-1
			c-0.3,0-0.4,0-0.5,0.4L225.8,7.9z"/>
		<path d="M232.9,8.6c-0.5,0-0.8-0.4-0.8-0.8c0-0.2,0-0.3,0.2-0.7c0.1-0.3,0.2-0.7,0.4-1l0.3-0.8c0.1-0.2,0.2-0.5,0.2-0.7
			c0-0.2-0.1-0.3-0.2-0.3c-0.6,0-0.8,0.9-0.9,1.3c0,0.1,0,0.2-0.2,0.2c0,0-0.1,0-0.1-0.1c0,0,0.3-1.5,1.3-1.5c0.4,0,0.7,0.2,0.7,0.8
			c0,0.2,0,0.3-0.1,0.6L233,7.2c-0.1,0.4-0.3,0.7-0.3,1c0,0.3,0.1,0.3,0.2,0.3c0.6,0,0.8-1,0.9-1.2c0-0.1,0-0.2,0.2-0.2
			c0.1,0,0.1,0,0.1,0.1C234.2,7.1,233.8,8.6,232.9,8.6z M233.6,2.8c-0.1,0-0.3-0.1-0.3-0.3c0-0.3,0.3-0.5,0.5-0.5
			c0.1,0,0.3,0.1,0.3,0.3C234.1,2.6,233.8,2.8,233.6,2.8z"/>
		<path d="M236.2,8.5c-0.7,0-1.2-0.7-1.2-1.5c0-1.4,1.1-2.9,2.3-2.9c0.4,0,0.7,0.3,0.8,0.6c0-0.3,0.3-0.4,0.4-0.4
			c0.1,0,0.3,0,0.3,0.3c0,0,0,0.1,0,0.2l-1.1,4.4c-0.2,0.8-0.9,1.4-2,1.4c-0.8,0-1.2-0.2-1.2-0.6c0-0.4,0.3-0.5,0.5-0.5
			c0.3,0,0.3,0.2,0.3,0.3c0,0.2-0.1,0.4-0.3,0.5c0.3,0.1,0.6,0.1,0.7,0.1c0.1,0,0.5,0,0.9-0.5c0.3-0.3,0.3-0.5,0.5-1l0.2-0.8
			C237.2,8.1,236.8,8.5,236.2,8.5z M238,5.2c0-0.1-0.1-0.9-0.7-0.9c-0.4,0-0.8,0.4-1.1,1c-0.2,0.5-0.5,1.6-0.5,2.1
			c0,0.1,0,0.9,0.6,0.9c0.5,0,1.2-0.8,1.2-1.1l0.4-1.8L238,5.2z"/>
		<path d="M240.6,8.6c-0.5,0-0.8-0.4-0.8-0.8c0-0.2,0-0.3,0.2-0.7c0.1-0.3,0.2-0.7,0.4-1l0.3-0.8c0.1-0.2,0.2-0.5,0.2-0.7
			c0-0.2-0.1-0.3-0.2-0.3c-0.6,0-0.8,0.9-0.9,1.3c0,0.1,0,0.2-0.2,0.2c0,0-0.1,0-0.1-0.1c0,0,0.3-1.5,1.3-1.5c0.4,0,0.7,0.2,0.7,0.8
			c0,0.2,0,0.3-0.1,0.6l-0.6,1.7c-0.1,0.4-0.3,0.7-0.3,1c0,0.3,0.1,0.3,0.2,0.3c0.6,0,0.8-1,0.9-1.2c0-0.1,0-0.2,0.2-0.2
			c0.1,0,0.1,0,0.1,0.1C241.8,7.1,241.5,8.6,240.6,8.6z M241.3,2.8c-0.1,0-0.3-0.1-0.3-0.3c0-0.3,0.3-0.5,0.5-0.5
			c0.1,0,0.3,0.1,0.3,0.3C241.8,2.6,241.5,2.8,241.3,2.8z"/>
		<path d="M243.5,7.5c-0.1,0.3-0.1,0.4-0.1,0.5c0,0.2,0,0.4,0.3,0.4c0.6,0,1-0.7,1.1-1.2C244.9,7,244.9,7,245,7c0.1,0,0.1,0,0.1,0.1
			c0,0-0.5,1.5-1.5,1.5c-0.5,0-0.8-0.4-0.8-0.9c0-0.1,0-0.3,0-0.3l0.7-2.9h-0.8c-0.2,0-0.3,0-0.3-0.1c0-0.2,0.1-0.2,0.3-0.2h0.8
			l0.4-1.6c0-0.1,0.1-0.4,0.4-0.4c0.1,0,0.3,0,0.3,0.3c0,0,0,0.1,0,0.2l-0.4,1.5h0.8c0.2,0,0.2,0,0.2,0.1c0,0.2-0.1,0.2-0.3,0.2
			h-0.8L243.5,7.5z"/>
		<path d="M247.2,8.6c-0.7,0-1.2-0.7-1.2-1.5c0-1.5,1.2-3,2.3-3c0.3,0,0.6,0.2,0.8,0.6c0,0,0.1-0.4,0.4-0.4c0.1,0,0.3,0,0.3,0.3
			c0,0,0,0.1,0,0.2l-0.7,2.7C249,7.8,249,7.9,249,8c0,0.1,0,0.4,0.3,0.4c0.3,0,0.5-0.6,0.7-1.2C250,7,250,7,250.1,7
			c0.1,0,0.1,0,0.1,0.1c0,0-0.1,0.6-0.3,1c-0.1,0.3-0.4,0.6-0.7,0.6c-0.3,0-0.7-0.2-0.8-0.7C248,8.4,247.6,8.6,247.2,8.6z M249,5.3
			c0-0.4-0.2-0.9-0.7-0.9c-0.4,0-0.9,0.5-1.1,1.1c-0.2,0.4-0.5,1.6-0.5,2.1c0,0.3,0.1,0.9,0.5,0.9c0.5,0,1.2-0.8,1.2-1.1l0.5-1.9
			C249,5.3,249,5.3,249,5.3z"/>
	</g>
	<g>
		<path d="M251.4,7.5c-0.1,0.2-0.1,0.4-0.1,0.5c0,0.1,0,0.4,0.3,0.4c0.3,0,0.5-0.4,0.6-1.1l0.1-0.2c0,0,0.1,0,0.1,0
			c0.1,0,0.1,0,0.1,0.1c0,0-0.1,0.7-0.3,1c-0.1,0.2-0.3,0.5-0.7,0.5c-0.5,0-0.8-0.4-0.8-0.9c0-0.1,0-0.3,0.1-0.4l1.2-5
			c0,0,0-0.1,0-0.2c0-0.1,0-0.2-0.5-0.2c-0.1,0-0.2,0-0.2-0.1c0-0.2,0.1-0.2,0.2-0.2l1-0.1c0,0,0.1,0,0.2,0c0.1,0,0.1,0,0.1,0.1
			c0,0,0,0.1,0,0.1L251.4,7.5z"/>
		<path d="M257.4,7.2c-0.1,0-0.3,0-0.3-0.2s0.2-0.2,0.3-0.2h5.4c0.1,0,0.3,0,0.3,0.2s-0.2,0.2-0.3,0.2H257.4z M263.7,5.1
			c0,0.2-0.2,0.2-0.3,0.2h-5.4c-0.1,0-0.3,0-0.3-0.2s0.2-0.2,0.3-0.2h5.4C263.5,4.9,263.7,4.9,263.7,5.1z"/>
	</g>
	<g>
		<path d="M269.5,4.6c0.3-0.3,0.7-0.5,1.1-0.5c0.6,0,1.2,0.5,1.2,1.6c0,1.5-1.2,3-2.3,3c-0.7,0-1.1-0.7-1.1-1.5
			c0-0.4,0.1-0.8,0.1-0.8l1-3.9c0,0,0-0.1,0-0.2c0-0.1,0-0.2-0.5-0.2c-0.1,0-0.2,0-0.2-0.1c0-0.2,0.1-0.2,0.2-0.2l1-0.1
			c0,0,0.1,0,0.2,0c0.1,0,0.1,0,0.1,0.1c0,0,0,0.1,0,0.1L269.5,4.6z M270.6,7.5c0.3-0.6,0.6-1.8,0.6-2.2c0-0.3-0.1-0.9-0.5-0.9
			c-0.4,0-0.8,0.3-1,0.7c-0.1,0.2-0.1,0.2-0.2,0.5c-0.3,1.1-0.4,1.5-0.4,1.9c0,0.7,0.3,1,0.6,1C270,8.4,270.5,7.7,270.6,7.5z"/>
		<path d="M273.9,8.6c-0.8,0-1.5-0.6-1.5-1.6c0-1.5,1.3-2.9,2.5-2.9c0.9,0,1.5,0.7,1.5,1.6C276.4,7.2,275.1,8.6,273.9,8.6z
			 M275.1,7.4c0.3-0.6,0.5-1.6,0.5-2.1c0-0.6-0.3-1-0.8-1c-0.4,0-0.9,0.3-1.2,0.9c-0.3,0.5-0.6,1.6-0.6,2.1c0,0.7,0.4,1,0.8,1
			C274.3,8.4,274.8,8,275.1,7.4z"/>
	</g>
	<g>
		<path d="M278.2,7.5c-0.1,0.3-0.1,0.4-0.1,0.5c0,0.2,0,0.4,0.3,0.4c0.6,0,1-0.7,1.1-1.2c0.1-0.2,0.1-0.2,0.2-0.2
			c0.1,0,0.1,0,0.1,0.1c0,0-0.5,1.5-1.5,1.5c-0.5,0-0.8-0.4-0.8-0.9c0-0.1,0-0.3,0-0.3l0.7-2.9h-0.8c-0.2,0-0.3,0-0.3-0.1
			c0-0.2,0.1-0.2,0.3-0.2h0.8l0.4-1.6c0-0.1,0.1-0.4,0.4-0.4c0.1,0,0.3,0,0.3,0.3c0,0,0,0.1,0,0.2L279,4.2h0.8c0.2,0,0.2,0,0.2,0.1
			c0,0.2-0.1,0.2-0.3,0.2h-0.8L278.2,7.5z"/>
		<path d="M282,4.8c0.3-0.3,0.7-0.6,1.3-0.6c0.5,0,1,0.2,1,1c0,0.6-0.4,1.7-0.6,2.2c-0.1,0.2-0.2,0.5-0.2,0.7c0,0.1,0,0.3,0.2,0.3
			c0.6,0,0.8-1,0.9-1.2c0-0.1,0-0.2,0.2-0.2c0.1,0,0.1,0,0.1,0.1c0,0-0.3,1.5-1.3,1.5c-0.5,0-0.8-0.4-0.8-0.8c0-0.2,0-0.3,0.2-0.6
			c0.1-0.4,0.6-1.6,0.6-2.2c0-0.2,0-0.7-0.5-0.7c-0.7,0-1.1,0.6-1.3,0.9c-0.2,0.3-0.2,0.3-0.3,0.7c0,0.2-0.1,0.4-0.2,0.6
			c-0.1,0.3-0.4,1.6-0.4,1.7c0,0.1-0.2,0.3-0.4,0.3c-0.2,0-0.3-0.1-0.3-0.3c0,0,0-0.1,0-0.1l1.5-5.9c0,0,0-0.1,0-0.2
			c0-0.1,0-0.2-0.5-0.2c-0.1,0-0.2,0-0.2-0.1c0-0.2,0.1-0.2,0.2-0.2l1-0.1c0,0,0.1,0,0.2,0c0.1,0,0.1,0,0.1,0.1c0,0,0,0.1,0,0.1
			L282,4.8z"/>
	</g>
	<g>
		<path d="M290.2,7.5c-0.1,0.3-0.1,0.4-0.1,0.5c0,0.2,0,0.4,0.3,0.4c0.6,0,1-0.7,1.1-1.2c0.1-0.2,0.1-0.2,0.2-0.2
			c0.1,0,0.1,0,0.1,0.1c0,0-0.5,1.5-1.5,1.5c-0.5,0-0.8-0.4-0.8-0.9c0-0.1,0-0.3,0-0.3l0.7-2.9h-0.8c-0.2,0-0.3,0-0.3-0.1
			c0-0.2,0.1-0.2,0.3-0.2h0.8l0.4-1.6c0-0.1,0.1-0.4,0.4-0.4c0.1,0,0.3,0,0.3,0.3c0,0,0,0.1,0,0.2L291,4.2h0.8c0.2,0,0.2,0,0.2,0.1
			c0,0.2-0.1,0.2-0.3,0.2h-0.8L290.2,7.5z"/>
		<path d="M293.7,8.6c-0.5,0-0.8-0.4-0.8-0.8c0-0.2,0-0.3,0.2-0.7c0.1-0.3,0.2-0.7,0.4-1l0.3-0.8c0.1-0.2,0.2-0.5,0.2-0.7
			c0-0.2-0.1-0.3-0.2-0.3c-0.6,0-0.8,0.9-0.9,1.3c0,0.1,0,0.2-0.2,0.2c0,0-0.1,0-0.1-0.1c0,0,0.3-1.5,1.3-1.5c0.4,0,0.7,0.2,0.7,0.8
			c0,0.2,0,0.3-0.1,0.6l-0.6,1.7c-0.1,0.4-0.3,0.7-0.3,1c0,0.3,0.1,0.3,0.2,0.3c0.6,0,0.8-1,0.9-1.2c0-0.1,0-0.2,0.2-0.2
			c0.1,0,0.1,0,0.1,0.1C295,7.1,294.7,8.6,293.7,8.6z M294.5,2.8c-0.1,0-0.3-0.1-0.3-0.3c0-0.3,0.3-0.5,0.5-0.5
			c0.1,0,0.3,0.1,0.3,0.3C294.9,2.6,294.7,2.8,294.5,2.8z"/>
		<path d="M296.7,8.4c-0.1,0.2-0.2,0.3-0.4,0.3c-0.2,0-0.3-0.1-0.3-0.3c0,0,0-0.1,0-0.1l0.7-3c0-0.2,0.1-0.3,0.1-0.5
			c0-0.1,0-0.4-0.3-0.4c-0.3,0-0.5,0.5-0.7,1.2c0,0.2-0.1,0.2-0.2,0.2c0,0-0.1,0-0.1-0.1c0,0,0.1-0.6,0.3-1c0.2-0.3,0.4-0.5,0.7-0.5
			c0.4,0,0.8,0.3,0.8,0.8c0.3-0.5,0.8-0.8,1.4-0.8c0.4,0,1,0.2,1,0.9c0.3-0.4,0.8-0.9,1.5-0.9c0.5,0,1,0.2,1,1
			c0,0.6-0.4,1.7-0.6,2.2c-0.1,0.2-0.2,0.5-0.2,0.7c0,0.1,0,0.3,0.2,0.3c0.6,0,0.8-1,0.9-1.2c0-0.1,0-0.2,0.2-0.2
			c0.1,0,0.1,0,0.1,0.1c0,0-0.3,1.5-1.3,1.5c-0.5,0-0.8-0.4-0.8-0.8c0-0.2,0-0.3,0.2-0.6c0.1-0.4,0.6-1.6,0.6-2.2
			c0-0.1,0-0.7-0.5-0.7c-0.7,0-1.1,0.6-1.4,1.1c-0.1,0.2-0.1,0.2-0.2,0.7c0,0.2-0.1,0.4-0.2,0.6l-0.4,1.6c-0.1,0.2-0.2,0.3-0.4,0.3
			c-0.2,0-0.3-0.1-0.3-0.3c0,0,0-0.1,0-0.1l0.6-2.6c0-0.1,0.1-0.4,0.1-0.6c0-0.1,0-0.7-0.5-0.7c-0.7,0-1.1,0.6-1.4,1.1
			c-0.1,0.2-0.1,0.2-0.2,0.7c0,0.2-0.1,0.4-0.2,0.6L296.7,8.4z"/>
		<path d="M305,6.2c-0.1,0.3-0.2,0.7-0.2,1.1c0,0.4,0.1,1.1,0.8,1.1c0.2,0,1.1,0,1.8-1c0.1-0.1,0.1-0.1,0.1-0.1
			c0.1,0,0.2,0.1,0.2,0.2c0,0.1-0.8,1.1-2.1,1.1c-0.9,0-1.4-0.8-1.4-1.7c0-1.8,1.4-2.8,2.5-2.8c0.6,0,1,0.4,1,0.8c0,0.1,0,0.7-0.8,1
			c-0.5,0.2-1.1,0.2-1.4,0.2H305z M305.2,6c0.3,0,2,0,2-1.1c0-0.3-0.2-0.6-0.6-0.6c-0.1,0-1.1,0-1.6,1.7H305.2z"/>
	</g>
	<g>
		<path d="M313.3,8.6c-0.7,0-1.2-0.7-1.2-1.5c0-1.5,1.2-3,2.3-3c0.3,0,0.6,0.2,0.8,0.6c0,0,0.1-0.4,0.4-0.4c0.1,0,0.3,0,0.3,0.3
			c0,0,0,0.1,0,0.2l-0.7,2.7c-0.1,0.3-0.1,0.4-0.1,0.5c0,0.1,0,0.4,0.3,0.4c0.3,0,0.5-0.6,0.7-1.2c0.1-0.2,0.1-0.2,0.2-0.2
			c0.1,0,0.1,0,0.1,0.1c0,0-0.1,0.6-0.3,1c-0.1,0.3-0.4,0.6-0.7,0.6c-0.3,0-0.7-0.2-0.8-0.7C314.1,8.4,313.7,8.6,313.3,8.6z
			 M315.1,5.3c0-0.4-0.2-0.9-0.7-0.9c-0.4,0-0.9,0.5-1.1,1.1c-0.2,0.4-0.5,1.6-0.5,2.1c0,0.3,0.1,0.9,0.5,0.9c0.5,0,1.2-0.8,1.2-1.1
			l0.5-1.9C315.1,5.3,315.1,5.3,315.1,5.3z"/>
		<path d="M318,8.4c-0.1,0.2-0.2,0.3-0.4,0.3c-0.2,0-0.3-0.1-0.3-0.3c0,0,0-0.1,0-0.1l0.7-3c0-0.2,0.1-0.3,0.1-0.5
			c0-0.1,0-0.4-0.3-0.4c-0.3,0-0.5,0.5-0.7,1.2c0,0.2-0.1,0.2-0.2,0.2c0,0-0.1,0-0.1-0.1c0,0,0.1-0.6,0.3-1c0.2-0.3,0.4-0.5,0.7-0.5
			c0.4,0,0.8,0.3,0.8,0.8c0.1-0.2,0.6-0.8,1.4-0.8c0.5,0,1,0.2,1,1c0,0.6-0.4,1.7-0.6,2.2c-0.1,0.2-0.2,0.5-0.2,0.7
			c0,0.1,0,0.3,0.2,0.3c0.6,0,0.8-1,0.9-1.2c0-0.1,0-0.2,0.2-0.2c0.1,0,0.1,0,0.1,0.1c0,0-0.3,1.5-1.3,1.5c-0.5,0-0.8-0.4-0.8-0.8
			c0-0.2,0-0.3,0.2-0.6c0.1-0.4,0.6-1.6,0.6-2.2c0-0.2,0-0.7-0.5-0.7c-0.8,0-1.2,0.7-1.3,1c-0.2,0.3-0.2,0.3-0.3,0.8
			c0,0.2-0.1,0.4-0.2,0.6L318,8.4z"/>
	</g>
	<g>
		<path d="M325.8,7.5c-0.1,0.2-0.1,0.4-0.1,0.5c0,0.1,0,0.4,0.3,0.4c0.3,0,0.5-0.6,0.7-1.2c0.1-0.2,0.1-0.2,0.2-0.2
			c0.1,0,0.1,0,0.1,0.1c0,0-0.1,0.6-0.3,1c-0.1,0.3-0.4,0.6-0.7,0.6c-0.3,0-0.7-0.2-0.8-0.7c-0.4,0.5-0.8,0.7-1.2,0.7
			c-0.7,0-1.2-0.7-1.2-1.5c0-1.5,1.2-3,2.3-3c0.4,0,0.7,0.3,0.8,0.6l0.6-2.3c0,0,0-0.1,0-0.2c0-0.1,0-0.2-0.5-0.2
			c-0.1,0-0.2,0-0.2-0.1c0-0.2,0.1-0.2,0.2-0.2l1-0.1c0,0,0.1,0,0.2,0c0.1,0,0.1,0,0.1,0.1c0,0,0,0.1,0,0.1L325.8,7.5z M325.7,5.4
			c0-0.1,0-0.1,0-0.1c0-0.2-0.1-0.5-0.2-0.6c-0.2-0.3-0.4-0.3-0.5-0.3c-0.4,0-0.9,0.5-1.1,1.1c-0.2,0.4-0.5,1.6-0.5,2.1
			c0,0.3,0.1,0.9,0.5,0.9c0.5,0,1.2-0.8,1.2-1.1L325.7,5.4z"/>
		<path d="M332.6,8.6c-0.7,0-1.2-0.7-1.2-1.5c0-1.5,1.2-3,2.3-3c0.3,0,0.6,0.2,0.8,0.6c0,0,0.1-0.4,0.4-0.4c0.1,0,0.3,0,0.3,0.3
			c0,0,0,0.1,0,0.2l-0.7,2.7c-0.1,0.3-0.1,0.4-0.1,0.5c0,0.1,0,0.4,0.3,0.4c0.3,0,0.5-0.6,0.7-1.2c0.1-0.2,0.1-0.2,0.2-0.2
			c0.1,0,0.1,0,0.1,0.1c0,0-0.1,0.6-0.3,1c-0.1,0.3-0.4,0.6-0.7,0.6c-0.3,0-0.7-0.2-0.8-0.7C333.4,8.4,333,8.6,332.6,8.6z
			 M334.4,5.3c0-0.4-0.2-0.9-0.7-0.9c-0.4,0-0.9,0.5-1.1,1.1c-0.2,0.4-0.5,1.6-0.5,2.1c0,0.3,0.1,0.9,0.5,0.9c0.5,0,1.2-0.8,1.2-1.1
			l0.5-1.9C334.4,5.3,334.4,5.3,334.4,5.3z"/>
	</g>
	<g>
		<path d="M337.3,8.4c-0.1,0.2-0.2,0.3-0.4,0.3c-0.2,0-0.3-0.1-0.3-0.3c0,0,0-0.1,0-0.1l0.7-3c0-0.2,0.1-0.3,0.1-0.5
			c0-0.1,0-0.4-0.3-0.4c-0.3,0-0.5,0.5-0.7,1.2c0,0.2-0.1,0.2-0.2,0.2c0,0-0.1,0-0.1-0.1c0,0,0.1-0.6,0.3-1c0.2-0.3,0.4-0.5,0.7-0.5
			c0.4,0,0.8,0.3,0.8,0.8c0.3-0.5,0.8-0.8,1.4-0.8c0.4,0,1,0.2,1,0.9c0.3-0.4,0.8-0.9,1.5-0.9c0.5,0,1,0.2,1,1
			c0,0.6-0.4,1.7-0.6,2.2c-0.1,0.2-0.2,0.5-0.2,0.7c0,0.1,0,0.3,0.2,0.3c0.6,0,0.8-1,0.9-1.2c0-0.1,0-0.2,0.2-0.2
			c0.1,0,0.1,0,0.1,0.1c0,0-0.3,1.5-1.3,1.5c-0.5,0-0.8-0.4-0.8-0.8c0-0.2,0-0.3,0.2-0.6c0.1-0.4,0.6-1.6,0.6-2.2
			c0-0.1,0-0.7-0.5-0.7c-0.7,0-1.1,0.6-1.4,1.1c-0.1,0.2-0.1,0.2-0.2,0.7c0,0.2-0.1,0.4-0.2,0.6l-0.4,1.6c-0.1,0.2-0.2,0.3-0.4,0.3
			c-0.2,0-0.3-0.1-0.3-0.3c0,0,0-0.1,0-0.1l0.6-2.6c0-0.1,0.1-0.4,0.1-0.6c0-0.1,0-0.7-0.5-0.7c-0.7,0-1.1,0.6-1.4,1.1
			c-0.1,0.2-0.1,0.2-0.2,0.7c0,0.2-0.1,0.4-0.2,0.6L337.3,8.4z"/>
		<path d="M345.6,5.2c0.1-0.3,0.1-0.4,0.1-0.5c0-0.1,0-0.4-0.3-0.4c-0.3,0-0.5,0.5-0.7,1.2c0,0.2-0.1,0.2-0.2,0.2c0,0-0.1,0-0.1-0.1
			c0,0,0.1-0.6,0.3-1c0.2-0.3,0.4-0.5,0.7-0.5c0.2,0,0.7,0.1,0.8,0.7c0.3-0.3,0.7-0.7,1.2-0.7c0.6,0,1.2,0.5,1.2,1.6
			c0,1.5-1.2,3-2.3,3c-0.5,0-0.8-0.4-0.8-0.6l-0.4,1.5c0,0.2-0.1,0.4-0.1,0.5c0,0.1,0,0.2,0.5,0.2c0.1,0,0.2,0,0.2,0.1
			c0,0.2-0.1,0.2-0.2,0.2c-0.3,0-0.6,0-1,0c-0.3,0-0.6,0-0.8,0c-0.1,0-0.1,0-0.1-0.1c0-0.2,0.1-0.2,0.2-0.2c0.4,0,0.5,0,0.5-0.3
			L345.6,5.2z M345.7,7.3c0,0.1,0,0.1,0,0.1c0,0.1,0.1,0.9,0.7,0.9c0.5,0,0.9-0.7,1.1-0.9c0.3-0.6,0.6-1.8,0.6-2.2
			c0-0.3-0.1-0.9-0.5-0.9c-0.5,0-1.2,0.8-1.2,1.1L345.7,7.3z"/>
		<path d="M350.2,7.5c-0.1,0.2-0.1,0.4-0.1,0.5c0,0.1,0,0.4,0.3,0.4c0.3,0,0.5-0.4,0.6-1.1l0.1-0.2c0,0,0.1,0,0.1,0
			c0.1,0,0.1,0,0.1,0.1c0,0-0.1,0.7-0.3,1c-0.1,0.2-0.3,0.5-0.7,0.5c-0.5,0-0.8-0.4-0.8-0.9c0-0.1,0-0.3,0.1-0.4l1.2-5
			c0,0,0-0.1,0-0.2c0-0.1,0-0.2-0.5-0.2c-0.1,0-0.2,0-0.2-0.1c0-0.2,0.1-0.2,0.2-0.2l1-0.1c0,0,0.1,0,0.2,0c0.1,0,0.1,0,0.1,0.1
			c0,0,0,0.1,0,0.1L350.2,7.5z"/>
		<path d="M353.2,8.6c-0.5,0-0.8-0.4-0.8-0.8c0-0.2,0-0.3,0.2-0.7c0.1-0.3,0.2-0.7,0.4-1l0.3-0.8c0.1-0.2,0.2-0.5,0.2-0.7
			c0-0.2-0.1-0.3-0.2-0.3c-0.6,0-0.8,0.9-0.9,1.3c0,0.1,0,0.2-0.2,0.2c0,0-0.1,0-0.1-0.1c0,0,0.3-1.5,1.3-1.5c0.4,0,0.7,0.2,0.7,0.8
			c0,0.2,0,0.3-0.1,0.6l-0.6,1.7c-0.1,0.4-0.3,0.7-0.3,1c0,0.3,0.1,0.3,0.2,0.3c0.6,0,0.8-1,0.9-1.2c0-0.1,0-0.2,0.2-0.2
			c0.1,0,0.1,0,0.1,0.1C354.5,7.1,354.2,8.6,353.2,8.6z M354,2.8c-0.1,0-0.3-0.1-0.3-0.3c0-0.3,0.3-0.5,0.5-0.5
			c0.1,0,0.3,0.1,0.3,0.3C354.5,2.6,354.2,2.8,354,2.8z"/>
		<path d="M356.1,7.5c-0.1,0.3-0.1,0.4-0.1,0.5c0,0.2,0,0.4,0.3,0.4c0.6,0,1-0.7,1.1-1.2c0.1-0.2,0.1-0.2,0.2-0.2
			c0.1,0,0.1,0,0.1,0.1c0,0-0.5,1.5-1.5,1.5c-0.5,0-0.8-0.4-0.8-0.9c0-0.1,0-0.3,0-0.3l0.7-2.9h-0.8c-0.2,0-0.3,0-0.3-0.1
			c0-0.2,0.1-0.2,0.3-0.2h0.8l0.4-1.6c0-0.1,0.1-0.4,0.4-0.4c0.1,0,0.3,0,0.3,0.3c0,0,0,0.1,0,0.2L357,4.2h0.8c0.2,0,0.2,0,0.2,0.1
			c0,0.2-0.1,0.2-0.3,0.2h-0.8L356.1,7.5z"/>
		<path d="M362,7.5c-0.1,0.3-0.1,0.4-0.1,0.5c0,0.1,0,0.4,0.3,0.4c0.3,0,0.5-0.6,0.7-1.2C362.9,7,362.9,7,363,7c0.1,0,0.1,0,0.1,0.1
			c0,0-0.1,0.6-0.3,1c-0.1,0.3-0.4,0.6-0.7,0.6c-0.2,0-0.6-0.1-0.8-0.6c-0.2,0.3-0.6,0.6-1.1,0.6c-0.5,0-1.1-0.3-1.1-1.2
			c0-0.5,0.3-1.3,0.5-2c0.1-0.4,0.2-0.7,0.2-0.9c0-0.3-0.1-0.3-0.2-0.3c-0.6,0-0.8,0.9-0.9,1.3c0,0.1,0,0.2-0.2,0.2
			c0,0-0.1,0-0.1-0.1c0-0.1,0.3-1.5,1.3-1.5c0.4,0,0.8,0.3,0.8,0.8c0,0.2,0,0.3-0.1,0.5c-0.2,0.7-0.6,1.6-0.6,2.2
			c0,0.3,0.1,0.8,0.5,0.8c0.4,0,0.7-0.3,0.9-0.6c0.1-0.1,0.1-0.1,0.1-0.3l0.7-2.9c0-0.1,0.1-0.4,0.4-0.4c0.2,0,0.3,0.1,0.3,0.3
			c0,0,0,0.1,0,0.1L362,7.5z"/>
		<path d="M367.1,7.5C367,7.8,367,7.9,367,8c0,0.1,0,0.4,0.3,0.4c0.3,0,0.5-0.6,0.7-1.2C368,7,368,7,368.2,7c0.1,0,0.1,0,0.1,0.1
			c0,0-0.1,0.6-0.3,1c-0.1,0.3-0.4,0.6-0.7,0.6c-0.3,0-0.7-0.2-0.8-0.7c-0.4,0.5-0.8,0.7-1.2,0.7c-0.7,0-1.2-0.7-1.2-1.5
			c0-1.5,1.2-3,2.3-3c0.4,0,0.7,0.3,0.8,0.6l0.6-2.3c0,0,0-0.1,0-0.2c0-0.1,0-0.2-0.5-0.2c-0.1,0-0.2,0-0.2-0.1
			c0-0.2,0.1-0.2,0.2-0.2l1-0.1c0,0,0.1,0,0.2,0c0.1,0,0.1,0,0.1,0.1c0,0,0,0.1,0,0.1L367.1,7.5z M367,5.4c0-0.1,0-0.1,0-0.1
			c0-0.2-0.1-0.5-0.2-0.6c-0.2-0.3-0.4-0.3-0.5-0.3c-0.4,0-0.9,0.5-1.1,1.1c-0.2,0.4-0.5,1.6-0.5,2.1c0,0.3,0.1,0.9,0.5,0.9
			c0.5,0,1.2-0.8,1.2-1.1L367,5.4z"/>
	</g>
	<g>
		<path d="M369.5,6.2c-0.1,0.3-0.2,0.7-0.2,1.1c0,0.4,0.1,1.1,0.8,1.1c0.2,0,1.1,0,1.8-1c0.1-0.1,0.1-0.1,0.1-0.1
			c0.1,0,0.2,0.1,0.2,0.2c0,0.1-0.8,1.1-2.1,1.1c-0.9,0-1.4-0.8-1.4-1.7c0-1.8,1.4-2.8,2.5-2.8c0.6,0,1,0.4,1,0.8c0,0.1,0,0.7-0.8,1
			c-0.5,0.2-1.1,0.2-1.4,0.2H369.5z M369.8,6c0.3,0,2,0,2-1.1c0-0.3-0.2-0.6-0.6-0.6c-0.1,0-1.1,0-1.6,1.7H369.8z"/>
		<path d="M379.9,7.5c-0.1,0.2-0.1,0.4-0.1,0.5c0,0.1,0,0.4,0.3,0.4c0.3,0,0.5-0.6,0.7-1.2C380.8,7,380.8,7,381,7
			c0.1,0,0.1,0,0.1,0.1c0,0-0.1,0.6-0.3,1c-0.1,0.3-0.4,0.6-0.7,0.6c-0.3,0-0.7-0.2-0.8-0.7c-0.4,0.5-0.8,0.7-1.2,0.7
			c-0.7,0-1.2-0.7-1.2-1.5c0-1.5,1.2-3,2.3-3c0.4,0,0.7,0.3,0.8,0.6l0.6-2.3c0,0,0-0.1,0-0.2c0-0.1,0-0.2-0.5-0.2
			c-0.1,0-0.2,0-0.2-0.1c0-0.2,0.1-0.2,0.2-0.2l1-0.1c0,0,0.1,0,0.2,0c0.1,0,0.1,0,0.1,0.1c0,0,0,0.1,0,0.1L379.9,7.5z M379.8,5.4
			c0-0.1,0-0.1,0-0.1c0-0.2-0.1-0.5-0.2-0.6c-0.2-0.3-0.4-0.3-0.5-0.3c-0.4,0-0.9,0.5-1.1,1.1c-0.2,0.4-0.5,1.6-0.5,2.1
			c0,0.3,0.1,0.9,0.5,0.9c0.5,0,1.2-0.8,1.2-1.1L379.8,5.4z"/>
	</g>
	<g>
		<path d="M382.8,8.6c-0.5,0-0.8-0.4-0.8-0.8c0-0.2,0-0.3,0.2-0.7c0.1-0.3,0.2-0.7,0.4-1l0.3-0.8c0.1-0.2,0.2-0.5,0.2-0.7
			c0-0.2-0.1-0.3-0.2-0.3c-0.6,0-0.8,0.9-0.9,1.3c0,0.1,0,0.2-0.2,0.2c0,0-0.1,0-0.1-0.1c0,0,0.3-1.5,1.3-1.5c0.4,0,0.7,0.2,0.7,0.8
			c0,0.2,0,0.3-0.1,0.6l-0.6,1.7c-0.1,0.4-0.3,0.7-0.3,1c0,0.3,0.1,0.3,0.2,0.3c0.6,0,0.8-1,0.9-1.2c0-0.1,0-0.2,0.2-0.2
			c0.1,0,0.1,0,0.1,0.1C384.1,7.1,383.8,8.6,382.8,8.6z M383.6,2.8c-0.1,0-0.3-0.1-0.3-0.3c0-0.3,0.3-0.5,0.5-0.5
			c0.1,0,0.3,0.1,0.3,0.3C384.1,2.6,383.8,2.8,383.6,2.8z"/>
		<path d="M385.4,5.6c0-0.5,0.4-1.5,1.6-1.5c0.7,0,1.1,0.4,1.1,0.8c0,0.4-0.3,0.5-0.4,0.5c-0.2,0-0.3-0.2-0.3-0.3
			c0-0.1,0.1-0.4,0.4-0.4c-0.1-0.4-0.5-0.5-0.7-0.5c-0.8,0-1,0.7-1,0.9c0,0.4,0.4,0.5,0.6,0.6c0.4,0.1,1.2,0.3,1.2,1.1
			c0,0.5-0.4,1.7-1.9,1.7c-0.7,0-1.3-0.4-1.3-1c0-0.4,0.3-0.6,0.5-0.6c0.2,0,0.3,0.1,0.3,0.3c0,0,0,0.4-0.5,0.5
			c0.2,0.5,0.7,0.6,1,0.6c1,0,1.3-0.8,1.3-1.1c0-0.5-0.4-0.6-0.9-0.7C386,6.5,385.4,6.4,385.4,5.6z"/>
		<path d="M391.5,4.3c-0.4,0-0.9,0.3-1.3,1c-0.3,0.5-0.5,1.5-0.5,2.1c0,0.6,0.2,1,0.8,1c0.2,0,1.1,0,1.8-1c0.1-0.1,0.1-0.1,0.1-0.1
			c0.1,0,0.2,0.1,0.2,0.2c0,0.1-0.8,1.1-2.1,1.1c-0.9,0-1.5-0.7-1.5-1.6c0-1.5,1.3-2.9,2.5-2.9c0.6,0,1.1,0.4,1.1,0.9
			c0,0.4-0.2,0.6-0.5,0.6c-0.2,0-0.3-0.2-0.3-0.3c0,0,0-0.4,0.5-0.5C392,4.4,391.6,4.3,391.5,4.3z"/>
		<path d="M394.3,8.3c0,0.1-0.1,0.4-0.4,0.4c-0.2,0-0.3-0.1-0.3-0.3c0,0,0-0.1,0-0.1l0.7-3c0-0.2,0.1-0.3,0.1-0.5
			c0-0.1,0-0.4-0.3-0.4c-0.3,0-0.5,0.5-0.7,1.2c0,0.2-0.1,0.2-0.2,0.2c0,0-0.1,0-0.1-0.1c0,0,0.1-0.6,0.3-1c0.2-0.3,0.4-0.5,0.7-0.5
			c0.3,0,0.7,0.2,0.8,0.7c0.2-0.2,0.5-0.7,1.2-0.7c0.3,0,1,0.1,1,0.6c0,0.4-0.3,0.5-0.5,0.5c-0.3,0-0.3-0.2-0.3-0.3
			c0,0,0-0.4,0.4-0.5c-0.2-0.1-0.5-0.1-0.5-0.1c-0.9,0-1.3,1.3-1.3,1.3L394.3,8.3z"/>
	</g>
	<g>
		<path d="M398.2,6.2c-0.1,0.3-0.2,0.7-0.2,1.1c0,0.4,0.1,1.1,0.8,1.1c0.2,0,1.1,0,1.8-1c0.1-0.1,0.1-0.1,0.1-0.1
			c0.1,0,0.2,0.1,0.2,0.2c0,0.1-0.8,1.1-2.1,1.1c-0.9,0-1.4-0.8-1.4-1.7c0-1.8,1.4-2.8,2.5-2.8c0.6,0,1,0.4,1,0.8c0,0.1,0,0.7-0.8,1
			c-0.5,0.2-1.1,0.2-1.4,0.2H398.2z M398.4,6c0.3,0,2,0,2-1.1c0-0.3-0.2-0.6-0.6-0.6c-0.1,0-1.1,0-1.6,1.7H398.4z"/>
		<path d="M402.6,7.5c-0.1,0.3-0.1,0.4-0.1,0.5c0,0.2,0,0.4,0.3,0.4c0.6,0,1-0.7,1.1-1.2C404,7,404,7,404.1,7c0.1,0,0.1,0,0.1,0.1
			c0,0-0.5,1.5-1.5,1.5c-0.5,0-0.8-0.4-0.8-0.9c0-0.1,0-0.3,0-0.3l0.7-2.9h-0.8c-0.2,0-0.3,0-0.3-0.1c0-0.2,0.1-0.2,0.3-0.2h0.8
			l0.4-1.6c0-0.1,0.1-0.4,0.4-0.4c0.1,0,0.3,0,0.3,0.3c0,0,0,0.1,0,0.2l-0.4,1.5h0.8c0.2,0,0.2,0,0.2,0.1c0,0.2-0.1,0.2-0.3,0.2
			h-0.8L402.6,7.5z"/>
	</g>
	<g>
		<path d="M406.1,6.2c-0.1,0.3-0.2,0.7-0.2,1.1c0,0.4,0.1,1.1,0.8,1.1c0.2,0,1.1,0,1.8-1c0.1-0.1,0.1-0.1,0.1-0.1
			c0.1,0,0.2,0.1,0.2,0.2c0,0.1-0.8,1.1-2.1,1.1c-0.9,0-1.4-0.8-1.4-1.7c0-1.8,1.4-2.8,2.5-2.8c0.6,0,1,0.4,1,0.8c0,0.1,0,0.7-0.8,1
			c-0.5,0.2-1.1,0.2-1.4,0.2H406.1z M406.3,6c0.3,0,2,0,2-1.1c0-0.3-0.2-0.6-0.6-0.6c-0.1,0-1.1,0-1.6,1.7H406.3z"/>
	</g>
	<polyline points="236.5,22.1 239.1,27.2 241.6,22.1 239.1,23.4 	"/>
	<line class="st8" x1="239.1" y1="13" x2="239.1" y2="23.4"/>
	<g>
		<path d="M5.2,1.6c0.1-0.1,0.1-0.2,0.3-0.2c0.2,0,0.2,0,0.2,0.2l0.4,6.2c0,0.3,0,0.3,0.6,0.3c0.2,0,0.2,0,0.2,0.1
			c0,0.2-0.1,0.2-0.2,0.2c-0.3,0-0.7,0-1,0c-0.4,0-0.8,0-1.1,0c0,0-0.1,0-0.1-0.1c0-0.2,0.1-0.2,0.2-0.2c0.4,0,0.7-0.1,0.7-0.3
			L5.2,6.2H2.9L2.2,7.5C2.1,7.7,2,7.8,2,7.9c0,0.3,0.4,0.3,0.4,0.3c0.1,0,0.2,0,0.2,0.1c0,0.2-0.1,0.2-0.2,0.2c-0.3,0-0.6,0-0.9,0
			c-0.3,0-0.5,0-0.8,0c-0.1,0-0.1-0.1-0.1-0.1c0,0,0-0.2,0.1-0.2c0.3,0,0.8-0.1,1.2-0.8L5.2,1.6z M3.1,5.9h2.1L4.9,2.7L3.1,5.9z"/>
		<path d="M9.1,8.4C9,8.6,8.9,8.6,8.7,8.6c-0.2,0-0.3-0.1-0.3-0.3c0,0,0-0.1,0-0.1l0.7-3c0-0.2,0.1-0.3,0.1-0.5c0-0.1,0-0.4-0.3-0.4
			c-0.3,0-0.5,0.5-0.7,1.2c0,0.2-0.1,0.2-0.2,0.2c0,0-0.1,0-0.1-0.1c0,0,0.1-0.6,0.3-1c0.2-0.3,0.4-0.5,0.7-0.5
			c0.4,0,0.8,0.3,0.8,0.8c0.1-0.2,0.6-0.8,1.4-0.8c0.5,0,1,0.2,1,1c0,0.6-0.4,1.7-0.6,2.2c-0.1,0.2-0.2,0.5-0.2,0.7
			c0,0.1,0,0.3,0.2,0.3c0.6,0,0.8-1,0.9-1.2c0-0.1,0-0.2,0.2-0.2C13,7,13,7,13,7.1c0,0-0.3,1.5-1.3,1.5c-0.5,0-0.8-0.4-0.8-0.8
			c0-0.2,0-0.3,0.2-0.6c0.1-0.4,0.6-1.6,0.6-2.2c0-0.2,0-0.7-0.5-0.7c-0.8,0-1.2,0.7-1.3,1C9.8,5.6,9.8,5.6,9.7,6.1
			c0,0.2-0.1,0.4-0.2,0.6L9.1,8.4z"/>
	</g>
	<g>
		<path d="M15.1,8.6c-0.7,0-1.2-0.7-1.2-1.5c0-1.5,1.2-3,2.3-3c0.3,0,0.6,0.2,0.8,0.6c0,0,0.1-0.4,0.4-0.4c0.1,0,0.3,0,0.3,0.3
			c0,0,0,0.1,0,0.2L17,7.5c-0.1,0.3-0.1,0.4-0.1,0.5c0,0.1,0,0.4,0.3,0.4c0.3,0,0.5-0.6,0.7-1.2C17.9,7,17.9,7,18,7
			c0.1,0,0.1,0,0.1,0.1c0,0-0.1,0.6-0.3,1c-0.1,0.3-0.4,0.6-0.7,0.6c-0.3,0-0.7-0.2-0.8-0.7C15.9,8.4,15.5,8.6,15.1,8.6z M16.9,5.3
			c0-0.4-0.2-0.9-0.7-0.9c-0.4,0-0.9,0.5-1.1,1.1c-0.2,0.4-0.5,1.6-0.5,2.1c0,0.3,0.1,0.9,0.5,0.9c0.5,0,1.2-0.8,1.2-1.1l0.5-1.9
			C16.9,5.3,16.9,5.3,16.9,5.3z"/>
		<path d="M19.5,7.5c-0.1,0.2-0.1,0.4-0.1,0.5c0,0.1,0,0.4,0.3,0.4c0.3,0,0.5-0.4,0.6-1.1L20.4,7c0,0,0.1,0,0.1,0
			c0.1,0,0.1,0,0.1,0.1c0,0-0.1,0.7-0.3,1c-0.1,0.2-0.3,0.5-0.7,0.5c-0.5,0-0.8-0.4-0.8-0.9c0-0.1,0-0.3,0.1-0.4l1.2-5
			c0,0,0-0.1,0-0.2c0-0.1,0-0.2-0.5-0.2c-0.1,0-0.2,0-0.2-0.1c0-0.2,0.1-0.2,0.2-0.2l1-0.1c0,0,0.1,0,0.2,0c0.1,0,0.1,0,0.1,0.1
			c0,0,0,0.1,0,0.1L19.5,7.5z"/>
	</g>
	<g>
		<path d="M22.9,8.6c-0.8,0-1.5-0.6-1.5-1.6c0-1.5,1.3-2.9,2.5-2.9c0.9,0,1.5,0.7,1.5,1.6C25.5,7.2,24.2,8.6,22.9,8.6z M24.2,7.4
			c0.3-0.6,0.5-1.6,0.5-2.1c0-0.6-0.3-1-0.8-1c-0.4,0-0.9,0.3-1.2,0.9c-0.3,0.5-0.6,1.6-0.6,2.1c0,0.7,0.4,1,0.8,1
			C23.4,8.4,23.9,8,24.2,7.4z"/>
		<path d="M27.3,8.5C26.5,8.5,26,7.8,26,7c0-1.4,1.1-2.9,2.3-2.9c0.4,0,0.7,0.3,0.8,0.6c0-0.3,0.3-0.4,0.4-0.4c0.1,0,0.3,0,0.3,0.3
			c0,0,0,0.1,0,0.2l-1.1,4.4c-0.2,0.8-0.9,1.4-2,1.4c-0.8,0-1.2-0.2-1.2-0.6c0-0.4,0.3-0.5,0.5-0.5c0.3,0,0.3,0.2,0.3,0.3
			c0,0.2-0.1,0.4-0.3,0.5c0.3,0.1,0.6,0.1,0.7,0.1c0.1,0,0.5,0,0.9-0.5c0.3-0.3,0.3-0.5,0.5-1L28.3,8C28.2,8.1,27.8,8.5,27.3,8.5z
			 M29,5.2c0-0.1-0.1-0.9-0.7-0.9c-0.4,0-0.8,0.4-1.1,1C27,5.8,26.7,7,26.7,7.4c0,0.1,0,0.9,0.6,0.9c0.5,0,1.2-0.8,1.2-1.1L29,5.4
			L29,5.2z"/>
	</g>
	<g>
		<path d="M34.7,7.2c-0.1,0-0.3,0-0.3-0.2s0.2-0.2,0.3-0.2h5.4c0.1,0,0.3,0,0.3,0.2s-0.2,0.2-0.3,0.2H34.7z M41,5.1
			c0,0.2-0.2,0.2-0.3,0.2h-5.4c-0.1,0-0.3,0-0.3-0.2s0.2-0.2,0.3-0.2h5.4C40.8,4.9,41,4.9,41,5.1z"/>
		<path d="M51.8,4.2c0,0.2-0.1,0.2-0.2,0.2c0,0-0.1,0-0.1-0.1c0,0,0-0.3,0-0.6c0-0.9-0.4-1.8-1.4-1.8c-0.8,0-1.7,0.5-2.4,1.4
			c-0.8,1.1-1,2.7-1,3.3c0,1.4,0.9,2,1.7,2c0.8,0,2.1-0.6,2.6-2.3C51.1,6,51.1,6,51.2,6c0,0,0.1,0,0.1,0.1c0,0.5-1.1,2.6-3,2.6
			c-1.4,0-2.4-1-2.4-2.7c0-2.3,2.1-4.6,4.2-4.6c0.5,0,1.1,0.2,1.5,0.8l0.6-0.7c0.1-0.1,0.1-0.1,0.2-0.1c0.1,0,0.1,0.1,0.1,0.1
			c0,0,0,0.1,0,0.1L51.8,4.2z"/>
	</g>
	<polyline points="44.4,10.1 51.6,10.1 51.6,9.6 44.4,9.6 	"/>
	<g>
		<path d="M54.1,8.6c-0.8,0-1.5-0.6-1.5-1.6c0-1.5,1.3-2.9,2.5-2.9c0.9,0,1.5,0.7,1.5,1.6C56.7,7.2,55.4,8.6,54.1,8.6z M55.4,7.4
			C55.7,6.8,56,5.8,56,5.4c0-0.6-0.3-1-0.8-1c-0.4,0-0.9,0.3-1.2,0.9c-0.3,0.5-0.6,1.6-0.6,2.1c0,0.7,0.4,1,0.8,1
			C54.6,8.4,55.1,8,55.4,7.4z"/>
		<path d="M58.6,8.4c-0.1,0.2-0.2,0.3-0.4,0.3c-0.2,0-0.3-0.1-0.3-0.3c0,0,0-0.1,0-0.1l0.7-3c0-0.2,0.1-0.3,0.1-0.5
			c0-0.1,0-0.4-0.3-0.4c-0.3,0-0.5,0.5-0.7,1.2c0,0.2-0.1,0.2-0.2,0.2c0,0-0.1,0-0.1-0.1c0,0,0.1-0.6,0.3-1c0.2-0.3,0.4-0.5,0.7-0.5
			c0.4,0,0.8,0.3,0.8,0.8c0.1-0.2,0.6-0.8,1.4-0.8c0.5,0,1,0.2,1,1c0,0.6-0.4,1.7-0.6,2.2c-0.1,0.2-0.2,0.5-0.2,0.7
			c0,0.1,0,0.3,0.2,0.3c0.6,0,0.8-1,0.9-1.2c0-0.1,0-0.2,0.2-0.2c0.1,0,0.1,0,0.1,0.1c0,0-0.3,1.5-1.3,1.5c-0.5,0-0.8-0.4-0.8-0.8
			c0-0.2,0-0.3,0.2-0.6c0.1-0.4,0.6-1.6,0.6-2.2c0-0.2,0-0.7-0.5-0.7c-0.8,0-1.2,0.7-1.3,1c-0.2,0.3-0.2,0.3-0.3,0.8
			c0,0.2-0.1,0.4-0.2,0.6L58.6,8.4z"/>
		<path d="M64.1,7.5c-0.1,0.3-0.1,0.4-0.1,0.5c0,0.2,0,0.4,0.3,0.4c0.6,0,1-0.7,1.1-1.2C65.6,7,65.6,7,65.7,7c0.1,0,0.1,0,0.1,0.1
			c0,0-0.5,1.5-1.5,1.5c-0.5,0-0.8-0.4-0.8-0.9c0-0.1,0-0.3,0-0.3l0.7-2.9h-0.8c-0.2,0-0.2,0-0.2-0.1c0-0.2,0.1-0.2,0.3-0.2h0.8
			l0.4-1.6c0-0.1,0.1-0.4,0.4-0.4c0.1,0,0.3,0,0.3,0.3c0,0,0,0.1,0,0.2L65,4.2h0.8c0.2,0,0.2,0,0.2,0.1c0,0.2-0.1,0.2-0.3,0.2h-0.8
			L64.1,7.5z"/>
		<path d="M67.6,8.6c-0.5,0-0.8-0.4-0.8-0.8c0-0.2,0-0.3,0.2-0.7c0.1-0.3,0.2-0.7,0.4-1l0.3-0.8c0.1-0.2,0.2-0.5,0.2-0.7
			c0-0.2-0.1-0.3-0.2-0.3c-0.6,0-0.8,0.9-0.9,1.3c0,0.1,0,0.2-0.2,0.2c0,0-0.1,0-0.1-0.1c0,0,0.3-1.5,1.3-1.5c0.4,0,0.7,0.2,0.7,0.8
			c0,0.2,0,0.3-0.1,0.6l-0.6,1.7c-0.1,0.4-0.3,0.7-0.3,1c0,0.3,0.1,0.3,0.2,0.3c0.6,0,0.8-1,0.9-1.2c0-0.1,0-0.2,0.2-0.2
			c0.1,0,0.1,0,0.1,0.1C68.9,7.1,68.6,8.6,67.6,8.6z M68.4,2.8c-0.1,0-0.3-0.1-0.3-0.3C68,2.2,68.3,2,68.5,2c0.1,0,0.3,0.1,0.3,0.3
			C68.9,2.6,68.6,2.8,68.4,2.8z"/>
		<path d="M70.6,8.4c-0.1,0.2-0.2,0.3-0.4,0.3c-0.2,0-0.3-0.1-0.3-0.3c0,0,0-0.1,0-0.1l0.7-3c0-0.2,0.1-0.3,0.1-0.5
			c0-0.1,0-0.4-0.3-0.4c-0.3,0-0.5,0.5-0.7,1.2c-0.1,0.2-0.1,0.2-0.2,0.2c0,0-0.1,0-0.1-0.1c0,0,0.1-0.6,0.3-1
			c0.2-0.3,0.4-0.5,0.7-0.5c0.4,0,0.8,0.3,0.8,0.8c0.1-0.2,0.6-0.8,1.4-0.8c0.5,0,1,0.2,1,1c0,0.6-0.4,1.7-0.6,2.2
			C73.1,7.6,73,7.9,73,8.1c0,0.1,0,0.3,0.2,0.3c0.6,0,0.8-1,0.9-1.2c0-0.1,0-0.2,0.2-0.2c0.1,0,0.1,0,0.1,0.1c0,0-0.3,1.5-1.3,1.5
			c-0.5,0-0.8-0.4-0.8-0.8c0-0.2,0-0.3,0.2-0.6c0.1-0.4,0.6-1.6,0.6-2.2c0-0.2,0-0.7-0.5-0.7c-0.8,0-1.2,0.7-1.3,1
			c-0.2,0.3-0.2,0.3-0.3,0.8c0,0.2-0.1,0.4-0.2,0.6L70.6,8.4z"/>
		<path d="M78.7,7.5c-0.1,0.3-0.1,0.4-0.1,0.5c0,0.1,0,0.4,0.3,0.4c0.3,0,0.5-0.6,0.7-1.2C79.6,7,79.6,7,79.7,7c0.1,0,0.1,0,0.1,0.1
			c0,0-0.1,0.6-0.3,1c-0.1,0.3-0.4,0.6-0.7,0.6c-0.2,0-0.6-0.1-0.8-0.6c-0.2,0.3-0.6,0.6-1.1,0.6c-0.5,0-1.1-0.3-1.1-1.2
			c0-0.5,0.3-1.3,0.5-2c0.1-0.4,0.2-0.7,0.2-0.9c0-0.3-0.1-0.3-0.2-0.3c-0.6,0-0.8,0.9-0.9,1.3c0,0.1,0,0.2-0.2,0.2
			c0,0-0.1,0-0.1-0.1c0-0.1,0.3-1.5,1.3-1.5c0.4,0,0.8,0.3,0.8,0.8c0,0.2,0,0.3-0.1,0.5c-0.2,0.7-0.6,1.6-0.6,2.2
			c0,0.3,0.1,0.8,0.5,0.8c0.4,0,0.7-0.3,0.9-0.6C78,7.7,78,7.7,78,7.5l0.7-2.9c0-0.1,0.1-0.4,0.4-0.4c0.2,0,0.3,0.1,0.3,0.3
			c0,0,0,0.1,0,0.1L78.7,7.5z"/>
	</g>
	<g>
		<path d="M82.2,8.6c-0.8,0-1.5-0.6-1.5-1.6c0-1.5,1.3-2.9,2.5-2.9c0.9,0,1.5,0.7,1.5,1.6C84.7,7.2,83.5,8.6,82.2,8.6z M83.5,7.4
			C83.8,6.8,84,5.8,84,5.4c0-0.6-0.3-1-0.8-1c-0.4,0-0.9,0.3-1.2,0.9c-0.3,0.5-0.6,1.6-0.6,2.1c0,0.7,0.4,1,0.8,1
			C82.7,8.4,83.2,8,83.5,7.4z"/>
		<path d="M89.1,7.5C89,7.8,89,7.9,89,8c0,0.1,0,0.4,0.3,0.4c0.3,0,0.5-0.6,0.7-1.2C90,7,90,7,90.1,7c0.1,0,0.1,0,0.1,0.1
			c0,0-0.1,0.6-0.3,1c-0.1,0.3-0.4,0.6-0.7,0.6c-0.2,0-0.6-0.1-0.8-0.6c-0.2,0.3-0.6,0.6-1.1,0.6c-0.5,0-1.1-0.3-1.1-1.2
			c0-0.5,0.3-1.3,0.5-2C86.9,5.1,87,4.9,87,4.6c0-0.3-0.1-0.3-0.2-0.3c-0.6,0-0.8,0.9-0.9,1.3c0,0.1,0,0.2-0.2,0.2
			c0,0-0.1,0-0.1-0.1c0-0.1,0.3-1.5,1.3-1.5c0.4,0,0.8,0.3,0.8,0.8c0,0.2,0,0.3-0.1,0.5c-0.2,0.7-0.6,1.6-0.6,2.2
			c0,0.3,0.1,0.8,0.5,0.8c0.4,0,0.7-0.3,0.9-0.6c0.1-0.1,0.1-0.1,0.1-0.3l0.7-2.9c0-0.1,0.1-0.4,0.4-0.4c0.2,0,0.3,0.1,0.3,0.3
			c0,0,0,0.1,0,0.1L89.1,7.5z"/>
	</g>
	<g>
		<path d="M91.6,5.6c0-0.5,0.4-1.5,1.6-1.5c0.7,0,1.1,0.4,1.1,0.8c0,0.4-0.3,0.5-0.4,0.5c-0.2,0-0.3-0.2-0.3-0.3
			c0-0.1,0.1-0.4,0.4-0.4c-0.1-0.4-0.5-0.5-0.7-0.5c-0.8,0-1,0.7-1,0.9c0,0.4,0.4,0.5,0.6,0.6C93.2,5.9,94,6.1,94,7
			c0,0.5-0.4,1.7-1.9,1.7c-0.7,0-1.3-0.4-1.3-1c0-0.4,0.3-0.6,0.5-0.6c0.2,0,0.3,0.1,0.3,0.3c0,0,0,0.4-0.5,0.5
			c0.2,0.5,0.7,0.6,1,0.6c1,0,1.3-0.8,1.3-1.1c0-0.5-0.4-0.6-0.9-0.7C92.3,6.5,91.6,6.4,91.6,5.6z"/>
		<path d="M95.3,6.7c-0.2,0-0.3,0-0.3-0.1c0,0,0-0.2,0.1-0.3c0-0.1,0.1-0.1,0.3-0.1h1.9c0.2,0,0.2,0,0.2,0.1c0,0-0.1,0.3-0.1,0.3
			c0,0.1-0.1,0.1-0.3,0.1H95.3z"/>
		<path d="M99.6,7.5c-0.1,0.3-0.1,0.4-0.1,0.5c0,0.2,0,0.4,0.3,0.4c0.6,0,1-0.7,1.1-1.2c0.1-0.2,0.1-0.2,0.2-0.2
			c0.1,0,0.1,0,0.1,0.1c0,0-0.5,1.5-1.5,1.5c-0.5,0-0.8-0.4-0.8-0.9c0-0.1,0-0.3,0-0.3l0.7-2.9h-0.8c-0.2,0-0.2,0-0.2-0.1
			c0-0.2,0.1-0.2,0.3-0.2h0.8l0.4-1.6c0-0.1,0.1-0.4,0.4-0.4c0.1,0,0.3,0,0.3,0.3c0,0,0,0.1,0,0.2l-0.4,1.5h0.8c0.2,0,0.2,0,0.2,0.1
			c0,0.2-0.1,0.2-0.3,0.2h-0.8L99.6,7.5z"/>
		<path d="M103.2,8.6c-0.5,0-0.8-0.4-0.8-0.8c0-0.2,0-0.3,0.2-0.7c0.1-0.3,0.2-0.7,0.4-1l0.3-0.8c0.1-0.2,0.2-0.5,0.2-0.7
			c0-0.2-0.1-0.3-0.2-0.3c-0.6,0-0.8,0.9-0.9,1.3c0,0.1,0,0.2-0.2,0.2c0,0-0.1,0-0.1-0.1c0,0,0.3-1.5,1.3-1.5c0.4,0,0.7,0.2,0.7,0.8
			c0,0.2,0,0.3-0.1,0.6l-0.6,1.7c-0.1,0.4-0.3,0.7-0.3,1c0,0.3,0.1,0.3,0.2,0.3c0.6,0,0.8-1,0.9-1.2c0-0.1,0-0.2,0.2-0.2
			c0.1,0,0.1,0,0.1,0.1C104.4,7.1,104.1,8.6,103.2,8.6z M103.9,2.8c-0.1,0-0.3-0.1-0.3-0.3c0-0.3,0.3-0.5,0.5-0.5
			c0.1,0,0.3,0.1,0.3,0.3C104.4,2.6,104.1,2.8,103.9,2.8z"/>
		<path d="M106.1,8.4c-0.1,0.2-0.2,0.3-0.4,0.3c-0.2,0-0.3-0.1-0.3-0.3c0,0,0-0.1,0-0.1l0.7-3c0-0.2,0.1-0.3,0.1-0.5
			c0-0.1,0-0.4-0.3-0.4c-0.3,0-0.5,0.5-0.7,1.2c0,0.2-0.1,0.2-0.2,0.2c0,0-0.1,0-0.1-0.1c0,0,0.1-0.6,0.3-1c0.2-0.3,0.4-0.5,0.7-0.5
			c0.4,0,0.8,0.3,0.8,0.8c0.3-0.5,0.8-0.8,1.4-0.8c0.4,0,1,0.2,1,0.9c0.3-0.4,0.8-0.9,1.5-0.9c0.5,0,1,0.2,1,1
			c0,0.6-0.4,1.7-0.6,2.2c-0.1,0.2-0.2,0.5-0.2,0.7c0,0.1,0,0.3,0.2,0.3c0.6,0,0.8-1,0.9-1.2c0-0.1,0-0.2,0.2-0.2
			c0.1,0,0.1,0,0.1,0.1c0,0-0.3,1.5-1.3,1.5c-0.5,0-0.8-0.4-0.8-0.8c0-0.2,0-0.3,0.2-0.6c0.1-0.4,0.6-1.6,0.6-2.2
			c0-0.1,0-0.7-0.5-0.7c-0.7,0-1.1,0.6-1.4,1.1c-0.1,0.2-0.1,0.2-0.2,0.7c0,0.2-0.1,0.4-0.2,0.6l-0.4,1.6c-0.1,0.2-0.2,0.3-0.4,0.3
			c-0.2,0-0.3-0.1-0.3-0.3c0,0,0-0.1,0-0.1l0.6-2.6c0-0.1,0.1-0.4,0.1-0.6c0-0.1,0-0.7-0.5-0.7c-0.7,0-1.1,0.6-1.4,1.1
			c-0.1,0.2-0.1,0.2-0.2,0.7c0,0.2-0.1,0.4-0.2,0.6L106.1,8.4z"/>
		<path d="M114.4,6.2c-0.1,0.3-0.2,0.7-0.2,1.1c0,0.4,0.1,1.1,0.8,1.1c0.2,0,1.1,0,1.8-1c0.1-0.1,0.1-0.1,0.1-0.1
			c0.1,0,0.2,0.1,0.2,0.2c0,0.1-0.8,1.1-2.1,1.1c-0.9,0-1.4-0.8-1.4-1.7c0-1.8,1.4-2.8,2.5-2.8c0.6,0,1,0.4,1,0.8c0,0.1,0,0.7-0.8,1
			c-0.5,0.2-1.1,0.2-1.4,0.2H114.4z M114.6,6c0.3,0,2,0,2-1.1c0-0.3-0.2-0.6-0.6-0.6c-0.1,0-1.1,0-1.6,1.7H114.6z"/>
	</g>
	<polyline points="77.1,22.1 79.6,27.2 82.2,22.1 79.6,23.4 	"/>
	<line class="st8" x1="79.6" y1="13" x2="79.6" y2="23.4"/>
</g>
</svg>
