<?xml version="1.0" encoding="utf-8"?>
<!-- Generator: Adobe Illustrator 22.1.0, SVG Export Plug-In . SVG Version: 6.00 Build 0)  -->
<svg version="1.1" id="Layer_1" xmlns="http://www.w3.org/2000/svg" xmlns:xlink="http://www.w3.org/1999/xlink" x="0px" y="0px"
	 viewBox="0 0 280.3 189.9" style="enable-background:new 0 0 280.3 189.9;" xml:space="preserve">
<style type="text/css">
	.st0{fill:#1D1D1B;}
	.st1{fill:#FF0000;}
	.st2{fill:#0000FF;}
	.st3{fill:none;stroke:#000000;stroke-width:0.8504;stroke-miterlimit:10;}
	.st4{fill:none;stroke:#000000;stroke-width:0.8504;stroke-linecap:round;stroke-miterlimit:10;stroke-dasharray:0,3.1247;}
	.st5{fill:none;stroke:#000000;stroke-width:0.85;stroke-miterlimit:10;}
	.st6{fill:none;stroke:#FF3399;stroke-width:1.9842;stroke-miterlimit:10;}
	.st7{fill:#E6007E;}
	.st8{fill:#FF3399;}
	.st9{fill:none;stroke:#FF3399;stroke-width:0.8504;stroke-miterlimit:10;stroke-dasharray:2.9096,2.9096;}
	.st10{fill:none;stroke:#FF3399;stroke-width:0.8504;stroke-miterlimit:10;stroke-dasharray:2.9424,2.9424;}
</style>
<g>
	<g>
		<path class="st0" d="M214.4,91.6c-0.4,0.9-1.2,1.2-1.7,1.2c-0.5,0-1.2-0.2-1.6-1c-0.4-0.8-0.4-1.7-0.4-2.4c0-0.8,0-1.6,0.4-2.3
			c0.4-0.9,1.1-1.2,1.7-1.2c0.4,0,1.2,0.2,1.7,1.1c0.3,0.7,0.4,1.5,0.4,2.3C214.8,90.1,214.7,90.9,214.4,91.6z M213.8,91.3
			c0.1-0.6,0.1-1.3,0.1-2.1c0-0.6,0-1.4-0.1-1.9c-0.2-1-0.8-1.2-1.2-1.2c-0.2,0-1,0.1-1.2,1.3c-0.1,0.5-0.1,1.2-0.1,1.8
			c0,0.6,0,1.5,0.1,2.1c0.2,1,0.8,1.2,1.2,1.2C213.1,92.5,213.7,92.2,213.8,91.3z"/>
	</g>
	<g>
		<path class="st0" d="M227.4,91c0,0.1-0.2,1.3-0.6,1.9c-0.2,0.4-0.6,1-1.1,1c-0.4,0-0.8-0.2-0.8-0.7c0-0.4,0.3-0.6,0.5-0.6
			c0.2,0,0.4,0.1,0.4,0.3c0,0.1-0.1,0.5-0.5,0.5c0.2,0.2,0.4,0.2,0.5,0.2c0.5,0,0.7-0.9,0.9-1.9l0.7-3.9h-0.7c-0.2,0-0.3,0-0.3-0.1
			c0-0.2,0.1-0.2,0.3-0.2h0.7c0.2-1.3,0.3-1.4,0.3-1.6c0.3-1,0.9-1.2,1.3-1.2c0.4,0,0.9,0.2,0.9,0.7c0,0.4-0.3,0.6-0.5,0.6
			c-0.2,0-0.4-0.1-0.4-0.3c0-0.1,0.1-0.5,0.5-0.5C229.3,85,229,85,229,85c-0.2,0-0.4,0.1-0.5,0.3c-0.1,0.1-0.2,0.8-0.2,1l-0.2,1.1
			h0.8c0.2,0,0.3,0,0.3,0.1c0,0.2-0.1,0.2-0.3,0.2H228L227.4,91z"/>
	</g>
	<g>
		<path class="st0" d="M231.6,90.3c-0.1,0-0.4,0-0.6,0.1c-0.2,0.1-0.3,0.3-0.3,0.4c0,0.2,0.1,0.3,0.4,0.3c0,0,0.2,0,0.3,0.1
			c0.3,0,1,0.2,1,0.8c0,0.3-0.2,1.2-1.5,1.2c-0.7,0-1.1-0.3-1.1-0.7c0-0.3,0.2-0.5,0.4-0.5c0.1,0,0.3,0.1,0.3,0.3
			c0,0.2-0.2,0.4-0.4,0.4c0.2,0.2,0.6,0.3,0.8,0.3c0.1,0,0.4,0,0.7-0.2c0.3-0.2,0.4-0.4,0.4-0.6c0-0.3-0.4-0.4-0.6-0.5
			c-0.5-0.1-0.6-0.1-0.8-0.3c-0.1-0.1-0.2-0.3-0.2-0.5c0-0.2,0.2-1,1.3-1c0.4,0,0.9,0.2,0.9,0.6c0,0.4-0.3,0.4-0.3,0.4
			c-0.1,0-0.2-0.1-0.2-0.2c0-0.1,0.1-0.3,0.3-0.3C232.1,90.4,231.8,90.3,231.6,90.3z"/>
	</g>
	<g>
		<path class="st0" d="M234.4,94c-0.1,0.2-0.1,0.2-0.2,0.2c-0.1,0-0.2-0.1-0.2-0.2c0,0,0,0,0-0.2l3.5-9.5c0-0.1,0.1-0.1,0.2-0.1
			c0.1,0,0.2,0.1,0.2,0.2c0,0,0,0,0,0.2L234.4,94z"/>
	</g>
	<g>
		<path class="st0" d="M241.6,91c0.2,0,0.9,0,0.9-0.1c0.1-0.1,0.2-0.6,0.2-0.9h0.2l-0.3,1.7H239c0-0.2,0-0.3,0.1-0.4l1.9-2.1
			c0.5-0.6,1-1.4,1-2.2c0-0.8-0.4-1.6-1.3-1.6c-0.6,0-1.1,0.4-1.3,1c0,0,0,0,0.1,0c0.3,0,0.5,0.3,0.5,0.5c0,0.4-0.3,0.5-0.5,0.5
			c0,0-0.5,0-0.5-0.6c0-0.9,0.7-1.8,1.9-1.8c1.2,0,2.1,0.8,2.1,1.9c0,1-0.6,1.5-2.2,2.9l-1.1,1H241.6z"/>
	</g>
	<g>
		<path class="st0" d="M180.3,89.9v-0.6h2.6v0.6H180.3z"/>
	</g>
	<g>
		<path class="st0" d="M186.6,91c0,0.1-0.2,1.3-0.6,1.9c-0.2,0.4-0.6,1-1.1,1c-0.4,0-0.8-0.2-0.8-0.7c0-0.4,0.3-0.6,0.5-0.6
			c0.2,0,0.4,0.1,0.4,0.3c0,0.1-0.1,0.5-0.5,0.5c0.2,0.2,0.4,0.2,0.5,0.2c0.5,0,0.7-0.9,0.9-1.9l0.7-3.9h-0.7c-0.2,0-0.3,0-0.3-0.1
			c0-0.2,0.1-0.2,0.3-0.2h0.7c0.2-1.3,0.3-1.4,0.3-1.6c0.3-1,0.9-1.2,1.3-1.2c0.4,0,0.9,0.2,0.9,0.7c0,0.4-0.3,0.6-0.5,0.6
			c-0.2,0-0.4-0.1-0.4-0.3c0-0.1,0.1-0.5,0.5-0.5c-0.2-0.2-0.4-0.2-0.5-0.2c-0.2,0-0.4,0.1-0.5,0.3c-0.1,0.1-0.2,0.8-0.2,1l-0.2,1.1
			h0.8c0.2,0,0.3,0,0.3,0.1c0,0.2-0.1,0.2-0.3,0.2h-0.9L186.6,91z"/>
	</g>
	<g>
		<path class="st0" d="M190.8,90.3c-0.1,0-0.4,0-0.6,0.1c-0.2,0.1-0.3,0.3-0.3,0.4c0,0.2,0.1,0.3,0.4,0.3c0,0,0.2,0,0.3,0.1
			c0.3,0,1,0.2,1,0.8c0,0.3-0.2,1.2-1.5,1.2c-0.7,0-1.1-0.3-1.1-0.7c0-0.3,0.2-0.5,0.4-0.5c0.1,0,0.3,0.1,0.3,0.3
			c0,0.2-0.2,0.4-0.4,0.4c0.2,0.2,0.6,0.3,0.8,0.3c0.1,0,0.4,0,0.7-0.2c0.3-0.2,0.4-0.4,0.4-0.6c0-0.3-0.4-0.4-0.6-0.5
			c-0.5-0.1-0.6-0.1-0.8-0.3c-0.1-0.1-0.2-0.3-0.2-0.5c0-0.2,0.2-1,1.3-1c0.4,0,0.9,0.2,0.9,0.6c0,0.4-0.3,0.4-0.3,0.4
			c-0.1,0-0.2-0.1-0.2-0.2c0-0.1,0.1-0.3,0.3-0.3C191.3,90.4,191,90.3,190.8,90.3z"/>
	</g>
	<g>
		<path class="st0" d="M193.6,94c-0.1,0.2-0.1,0.2-0.2,0.2c-0.1,0-0.2-0.1-0.2-0.2c0,0,0,0,0-0.2l3.5-9.5c0-0.1,0.1-0.1,0.2-0.1
			c0.1,0,0.2,0.1,0.2,0.2c0,0,0,0,0,0.2L193.6,94z"/>
	</g>
	<g>
		<path class="st0" d="M200.8,91c0.2,0,0.9,0,0.9-0.1c0.1-0.1,0.2-0.6,0.2-0.9h0.2l-0.3,1.7h-3.7c0-0.2,0-0.3,0.1-0.4l1.9-2.1
			c0.5-0.6,1-1.4,1-2.2c0-0.8-0.4-1.6-1.3-1.6c-0.6,0-1.1,0.4-1.3,1c0,0,0,0,0.1,0c0.3,0,0.5,0.3,0.5,0.5c0,0.4-0.3,0.5-0.5,0.5
			c0,0-0.5,0-0.5-0.6c0-0.9,0.7-1.8,1.9-1.8c1.2,0,2.1,0.8,2.1,1.9c0,1-0.6,1.5-2.2,2.9l-1.1,1H200.8z"/>
	</g>
	<g>
		<path class="st0" d="M276.5,91c0,0.1-0.2,1.3-0.6,1.9c-0.2,0.4-0.6,1-1.1,1c-0.4,0-0.8-0.2-0.8-0.7c0-0.4,0.3-0.6,0.5-0.6
			c0.2,0,0.4,0.1,0.4,0.3c0,0.1-0.1,0.5-0.5,0.5c0.2,0.2,0.4,0.2,0.5,0.2c0.5,0,0.7-0.9,0.9-1.9l0.7-3.9h-0.7c-0.2,0-0.3,0-0.3-0.1
			c0-0.2,0.1-0.2,0.3-0.2h0.7c0.2-1.3,0.3-1.4,0.3-1.6c0.3-1,0.9-1.2,1.3-1.2c0.4,0,0.9,0.2,0.9,0.7c0,0.4-0.3,0.6-0.5,0.6
			c-0.2,0-0.4-0.1-0.4-0.3c0-0.1,0.1-0.5,0.5-0.5c-0.2-0.2-0.4-0.2-0.5-0.2c-0.2,0-0.4,0.1-0.5,0.3c-0.1,0.1-0.2,0.8-0.2,1l-0.2,1.1
			h0.8c0.2,0,0.3,0,0.3,0.1c0,0.2-0.1,0.2-0.3,0.2h-0.9L276.5,91z"/>
	</g>
	<g>
		<path class="st0" d="M160.1,2.7c1,0,1.5,0.5,1.8,0.9l0.5-0.7c0.1-0.1,0.1-0.1,0.2-0.1c0.1,0,0.1,0.1,0.1,0.2v2.4
			c0,0.2,0,0.2-0.2,0.2c-0.1,0-0.1,0-0.2-0.2c-0.2-1.5-1.1-2.4-2.2-2.4c-0.6,0-2.6,0.3-2.6,3.3c0,3,2,3.3,2.6,3.3
			c1.1,0,2.2-0.8,2.2-2.2c0-0.1,0-0.2,0.1-0.2c0.1,0,0.1,0.1,0.1,0.2c0,1.2-1,2.5-2.6,2.5c-1.9,0-3.5-1.6-3.5-3.6
			C156.6,4.3,158.2,2.7,160.1,2.7z"/>
		<path class="st0" d="M165.3,9.8c-0.6,0-1.6-0.2-1.6-1.1c0-0.4,0.2-1,1-1.3c0.6-0.3,1.3-0.3,1.8-0.4V6.7c0-0.9-0.6-1.3-1.1-1.3
			c-0.3,0-0.8,0.1-1.1,0.5c0.5,0,0.5,0.3,0.5,0.5c0,0.3-0.2,0.5-0.5,0.5c-0.3,0-0.5-0.2-0.5-0.5c0-0.7,0.7-1.1,1.5-1.1
			c0.5,0,1,0.2,1.4,0.5c0.4,0.4,0.4,0.8,0.4,1.2v2c0,0,0,0.5,0.4,0.5c0.1,0,0.4-0.1,0.4-0.6V8.3h0.2v0.6c0,0.8-0.6,0.9-0.8,0.9
			c-0.5,0-0.7-0.4-0.8-0.8C166.4,9.4,165.9,9.8,165.3,9.8z M164.5,8.7c0,0.5,0.4,0.8,0.9,0.8c0.4,0,1.2-0.3,1.2-1.3v-1
			C164.9,7.4,164.5,8.2,164.5,8.7z"/>
		<path class="st0" d="M169,7.3c-0.3-0.2-0.4-0.5-0.4-0.8c0-0.6,0.4-1.2,1.6-1.2c0.1,0,0.6,0,0.9,0.3c0,0,0.1-0.1,0.2-0.2
			c0.1-0.1,0.1-0.1,0.2-0.1c0.1,0,0.1,0.1,0.1,0.2v1c0,0.2,0,0.2-0.1,0.2c0,0-0.1,0-0.1-0.1c0-0.3-0.1-1.2-1.2-1.2
			c-0.9,0-1.1,0.4-1.1,0.8c0,0.6,0.7,0.7,1.2,0.8c0.4,0.1,0.8,0.2,1.1,0.5c0.1,0.1,0.4,0.4,0.4,0.9c0,0.7-0.5,1.4-1.6,1.4
			c-0.2,0-0.7,0-1.1-0.4C169,9.6,169,9.6,169,9.6c-0.2,0.2-0.2,0.2-0.2,0.2c-0.1,0-0.1-0.1-0.1-0.2V8.3c0-0.2,0-0.2,0.1-0.2
			c0.1,0,0.1,0,0.1,0.2c0.2,0.8,0.5,1.4,1.4,1.4c0.8,0,1.1-0.4,1.1-0.9c0-0.7-0.8-0.9-1-0.9C169.6,7.6,169.3,7.6,169,7.3z"/>
		<path class="st0" d="M173.6,8.9c0.2,0.4,0.6,0.7,1.1,0.7c0.1,0,1,0,1.3-1c0-0.1,0-0.1,0.1-0.1c0,0,0.1,0,0.1,0.1
			c0,0.2-0.4,1.3-1.7,1.3c-1.1,0-2.2-1-2.2-2.3c0-1.2,0.9-2.3,2.1-2.3c1.2,0,1.8,1,1.8,2c0,0.2,0,0.2-0.2,0.2h-2.8
			C173.3,7.8,173.3,8.4,173.6,8.9z M175.7,7.2c0-0.4-0.1-1.7-1.1-1.7c-0.3,0-1.2,0.2-1.2,1.7H175.7z"/>
	</g>
	<g>
		<path class="st0" d="M178.1,6.5c-0.3,0-0.5-0.2-0.5-0.5c0-0.3,0.2-0.5,0.5-0.5s0.5,0.2,0.5,0.5C178.6,6.2,178.4,6.5,178.1,6.5z
			 M178.1,9.7c-0.3,0-0.5-0.2-0.5-0.5c0-0.3,0.2-0.5,0.5-0.5s0.5,0.2,0.5,0.5C178.6,9.5,178.4,9.7,178.1,9.7z"/>
	</g>
	<polyline points="156.1,11.3 179.5,11.3 179.5,10.8 156.1,10.8 	"/>
	<g>
		<path class="st1" d="M188.5,5.3c0,0.2,0,0.3,0.7,0.3h0.3v0.3c-0.2,0-1,0-1.2,0c-0.3,0-1.1,0-1.2,0V5.6h0.3c0.7,0,0.7-0.1,0.7-0.3
			V1.7c-0.4,0.2-0.8,0.2-1,0.2V1.7c0.3,0,0.9,0,1.4-0.4c0.2,0,0.2,0,0.2,0.2V5.3z"/>
	</g>
	<polyline class="st1" points="183.9,7.5 192.5,7.5 192.5,7.1 183.9,7.1 	"/>
	<g>
		<path class="st1" d="M186.4,12.6c0,0.1,0,0.1,0,0.2c0,0.1,0,0.1,0.3,0.1c0.1,0,0.3,0,0.4,0c0.2,0,0.3,0,0.3,0.1
			c0,0.2-0.1,0.2-0.2,0.2c-0.2,0-0.4,0-0.6,0c-0.2,0-0.4,0-0.6,0c-0.2,0-0.4,0-0.6,0s-0.4,0-0.6,0c-0.1,0-0.1-0.1-0.1-0.1
			c0-0.2,0.1-0.2,0.3-0.2c0.7,0,0.8-0.1,0.8-0.3l0.9-3.7c0-0.1,0-0.1,0-0.1c0-0.1,0-0.1-0.2-0.1h-0.3c-1.1,0-1.3,0.1-1.7,1.2
			c0,0.1-0.1,0.2-0.1,0.2c-0.1,0-0.1-0.1-0.1-0.1c0,0,0-0.1,0-0.1l0.4-1.2c0-0.1,0.1-0.1,0.2-0.1h4.3c0.1,0,0.2,0,0.2,0.1l-0.2,1.3
			c0,0.1,0,0.2-0.1,0.2c-0.1,0-0.1,0-0.1-0.1l0-0.1c0-0.4,0-0.5,0-0.6c0-0.3,0-0.5-0.3-0.6c-0.2-0.1-0.4-0.1-0.8-0.1
			c-0.1,0-0.4,0-0.4,0c-0.2,0-0.2,0-0.2,0.2L186.4,12.6z"/>
	</g>
	<g>
		<path class="st1" d="M190.6,12.1c-0.7,0-0.7,0.4-0.7,0.4c0,0.2,0.2,0.2,0.6,0.3c0.3,0,0.8,0.1,0.8,0.6c0,0.2-0.2,0.8-1.2,0.8
			c-0.1,0-0.9,0-0.9-0.5c0-0.2,0.1-0.4,0.3-0.4c0.1,0,0.2,0.1,0.2,0.2c0,0.1-0.1,0.3-0.3,0.3c0.2,0.2,0.5,0.2,0.7,0.2
			c0.9,0,0.9-0.5,0.9-0.5c0-0.3-0.3-0.3-0.7-0.4c-0.3,0-0.4-0.1-0.6-0.2c-0.1-0.1-0.2-0.2-0.2-0.4s0.2-0.7,1-0.7
			c0.4,0,0.8,0.1,0.8,0.4c0,0.3-0.2,0.3-0.3,0.3c-0.1,0-0.2-0.1-0.2-0.2c0,0,0-0.2,0.2-0.2C191,12.1,190.7,12.1,190.6,12.1z"/>
	</g>
	<g>
		<path class="st1" d="M197.3,6.4c-0.1,0-0.3,0-0.3-0.2s0.2-0.2,0.3-0.2h6c0.1,0,0.3,0,0.3,0.2s-0.2,0.2-0.3,0.2H197.3z M197.3,8.4
			c-0.1,0-0.3,0-0.3-0.2s0.2-0.2,0.3-0.2h5.9c0.1,0,0.3,0,0.3,0.2s-0.2,0.2-0.3,0.2H197.3z"/>
	</g>
	<g>
		<path class="st1" d="M210,8.9c0,0.1-0.2,1.3-0.6,1.9c-0.2,0.4-0.6,1-1.1,1c-0.4,0-0.8-0.2-0.8-0.7c0-0.4,0.3-0.6,0.5-0.6
			c0.2,0,0.4,0.1,0.4,0.3c0,0.1-0.1,0.5-0.5,0.5c0.2,0.2,0.4,0.2,0.5,0.2c0.5,0,0.7-0.9,0.9-1.9l0.7-3.9h-0.7c-0.2,0-0.3,0-0.3-0.1
			c0-0.2,0.1-0.2,0.3-0.2h0.7c0.2-1.3,0.3-1.4,0.3-1.6c0.3-1,0.9-1.2,1.3-1.2c0.4,0,0.9,0.2,0.9,0.7c0,0.4-0.3,0.6-0.5,0.6
			c-0.2,0-0.4-0.1-0.4-0.3c0-0.1,0.1-0.5,0.5-0.5c-0.2-0.2-0.4-0.2-0.5-0.2c-0.2,0-0.4,0.1-0.5,0.3c-0.1,0.1-0.2,0.8-0.2,1l-0.2,1.1
			h0.8c0.2,0,0.3,0,0.3,0.1c0,0.2-0.1,0.2-0.3,0.2h-0.9L210,8.9z"/>
	</g>
	<g>
		<path class="st1" d="M214.2,8.3c-0.1,0-0.4,0-0.6,0.1c-0.2,0.1-0.3,0.3-0.3,0.4c0,0.2,0.1,0.3,0.4,0.3c0,0,0.2,0,0.3,0.1
			c0.3,0,1,0.2,1,0.8c0,0.3-0.2,1.2-1.5,1.2c-0.7,0-1.1-0.3-1.1-0.7c0-0.3,0.2-0.5,0.4-0.5c0.1,0,0.3,0.1,0.3,0.3
			c0,0.2-0.2,0.4-0.4,0.4c0.2,0.2,0.6,0.3,0.8,0.3c0.1,0,0.4,0,0.7-0.2c0.3-0.2,0.4-0.4,0.4-0.6c0-0.3-0.4-0.4-0.6-0.5
			c-0.5-0.1-0.6-0.1-0.8-0.3c-0.1-0.1-0.2-0.3-0.2-0.5c0-0.2,0.2-1,1.3-1c0.4,0,0.9,0.2,0.9,0.6c0,0.4-0.3,0.4-0.3,0.4
			c-0.1,0-0.2-0.1-0.2-0.2c0-0.1,0.1-0.3,0.3-0.3C214.7,8.3,214.4,8.3,214.2,8.3z"/>
	</g>
	<g>
		<path class="st0" d="M220.3,7.2l5.2,2.5c0.1,0.1,0.2,0.1,0.2,0.2c0,0.1-0.1,0.2-0.2,0.2c0,0,0,0-0.2-0.1l-5.5-2.6
			c-0.1,0-0.2-0.1-0.2-0.2c0-0.1,0.1-0.2,0.2-0.2l5.5-2.6c0.1-0.1,0.1-0.1,0.2-0.1c0.1,0,0.2,0.1,0.2,0.2c0,0.1-0.1,0.2-0.2,0.2
			L220.3,7.2z"/>
	</g>
	<g>
		<path class="st0" d="M232.4,8.9c0.2,0,0.9,0,0.9-0.1c0.1-0.1,0.2-0.6,0.2-0.9h0.2l-0.3,1.7h-3.7c0-0.2,0-0.3,0.1-0.4l1.9-2.1
			c0.5-0.6,1-1.4,1-2.2c0-0.8-0.4-1.6-1.3-1.6c-0.6,0-1.1,0.4-1.3,1c0,0,0,0,0.1,0c0.3,0,0.5,0.3,0.5,0.5c0,0.4-0.3,0.5-0.5,0.5
			c0,0-0.5,0-0.5-0.6c0-0.9,0.7-1.8,1.9-1.8c1.2,0,2.1,0.8,2.1,1.9c0,1-0.6,1.5-2.2,2.9l-1.1,1H232.4z"/>
	</g>
	<g>
		<path class="st0" d="M238,7.7c-0.3,0-0.5-0.2-0.5-0.5c0-0.3,0.2-0.5,0.5-0.5s0.5,0.2,0.5,0.5C238.5,7.5,238.3,7.7,238,7.7z"/>
	</g>
	<g>
		<path class="st2" d="M244.6,8.9c0,0.1-0.2,1.3-0.6,1.9c-0.2,0.4-0.6,1-1.1,1c-0.4,0-0.8-0.2-0.8-0.7c0-0.4,0.3-0.6,0.5-0.6
			c0.2,0,0.4,0.1,0.4,0.3c0,0.1-0.1,0.5-0.5,0.5c0.2,0.2,0.4,0.2,0.5,0.2c0.5,0,0.7-0.9,0.9-1.9l0.7-3.9h-0.7c-0.2,0-0.3,0-0.3-0.1
			c0-0.2,0.1-0.2,0.3-0.2h0.7c0.2-1.3,0.3-1.4,0.3-1.6c0.3-1,0.9-1.2,1.3-1.2c0.4,0,0.9,0.2,0.9,0.7c0,0.4-0.3,0.6-0.5,0.6
			c-0.2,0-0.4-0.1-0.4-0.3c0-0.1,0.1-0.5,0.5-0.5c-0.2-0.2-0.4-0.2-0.5-0.2c-0.2,0-0.4,0.1-0.5,0.3c-0.1,0.1-0.2,0.8-0.2,1l-0.2,1.1
			h0.8c0.2,0,0.3,0,0.3,0.1c0,0.2-0.1,0.2-0.3,0.2h-0.9L244.6,8.9z"/>
	</g>
	<g>
		<path class="st2" d="M249.7,9.4c0.1-0.4,0.1-0.5,0.1-0.7c0-0.1,0-0.5-0.4-0.5c-0.5,0-0.9,0.4-1,0.6c-0.2,0.3-0.2,0.3-0.3,0.6
			c0,0.2-0.1,0.3-0.1,0.5c0,0.2-0.1,0.5-0.2,0.6c0,0.1-0.1,0.4-0.1,0.4c0,0.1-0.1,0.2-0.3,0.2c-0.1,0-0.2-0.1-0.2-0.2
			c0,0,0-0.2,0.1-0.3l0.2-0.9c0-0.2,0.1-0.4,0.2-0.6s0.1-0.4,0.1-0.6c0-0.2,0-0.3-0.2-0.3c-0.3,0-0.4,0.3-0.5,0.8
			c0,0.2-0.1,0.2-0.2,0.2c0,0-0.1,0-0.1-0.1c0,0,0.1-0.4,0.3-0.7c0.1-0.2,0.3-0.4,0.6-0.4c0.3,0,0.7,0.2,0.7,0.6
			c0.2-0.3,0.6-0.6,1.2-0.6c0.4,0,0.9,0.1,0.9,0.7c0.2-0.3,0.6-0.7,1.2-0.7c0.3,0,0.5,0.1,0.6,0.2c0.3,0.2,0.3,0.5,0.3,0.6
			c0,0.4-0.3,1.1-0.4,1.3c-0.1,0.3-0.2,0.4-0.2,0.6c0,0.1,0,0.2,0.2,0.2c0.3,0,0.6-0.3,0.7-0.8c0-0.1,0-0.1,0.1-0.1
			c0,0,0.1,0,0.1,0.1c0,0.1-0.3,1.1-1,1.1c-0.4,0-0.7-0.2-0.7-0.6c0-0.1,0-0.2,0.1-0.4c0.1-0.3,0.4-1.1,0.4-1.5c0-0.2,0-0.5-0.4-0.5
			c-0.5,0-0.9,0.4-1.1,0.7c-0.1,0.2-0.1,0.2-0.2,0.5c0,0.2-0.1,0.3-0.1,0.5c0,0.2-0.1,0.5-0.2,0.6c0,0.1-0.1,0.4-0.1,0.4
			c0,0.1-0.1,0.2-0.3,0.2c-0.1,0-0.2-0.1-0.2-0.2c0,0,0.1-0.3,0.1-0.4L249.7,9.4z"/>
		<path class="st2" d="M256.8,8.2c0.1,0,0.2,0.1,0.2,0.2c0,0-0.1,0.4-0.1,0.5l-0.1,0.5c0,0.2-0.1,0.4-0.2,0.6c0,0.2-0.1,0.4-0.1,0.6
			c0,0.2,0,0.3,0.2,0.3c0.3,0,0.4-0.4,0.5-0.7c0-0.2,0.1-0.2,0.2-0.2c0,0,0.1,0,0.1,0.1c0,0-0.1,0.4-0.2,0.7
			c-0.1,0.2-0.3,0.4-0.6,0.4c-0.2,0-0.6-0.1-0.7-0.5c-0.3,0.3-0.6,0.5-1,0.5c-0.6,0-1.1-0.5-1.1-1.2c0-1,0.9-2,1.8-2
			c0.3,0,0.6,0.2,0.7,0.4C256.5,8.3,256.7,8.2,256.8,8.2z M256.3,9C256.4,9,256.4,8.9,256.3,9c0-0.2-0.1-0.7-0.6-0.7
			c-0.2,0-0.6,0.1-0.9,0.7c-0.2,0.3-0.4,1-0.4,1.4c0,0.5,0.3,0.7,0.5,0.7c0.3,0,0.6-0.2,0.6-0.3c0.2-0.1,0.3-0.3,0.4-0.5L256.3,9z"
			/>
		<path class="st2" d="M259.8,9.5c0.1-0.2,0.1-0.6,0.1-0.7c0-0.3-0.2-0.5-0.4-0.5c-0.3,0-0.8,0.3-1,0.8c0,0.1,0,0.1-0.1,0.1
			c0,0-0.1,0-0.1-0.1c0-0.2,0.4-1.1,1.2-1.1c0.4,0,0.7,0.2,0.8,0.5c0.2-0.3,0.4-0.5,0.8-0.5c0.3,0,0.7,0.1,0.7,0.5
			c0,0.3-0.2,0.4-0.4,0.4s-0.3-0.1-0.3-0.3c0-0.1,0.1-0.3,0.3-0.4c-0.1-0.1-0.4-0.1-0.4-0.1c-0.2,0-0.5,0.2-0.7,0.7
			c-0.2,0.8-0.4,1.4-0.4,1.6c0,0.3,0.1,0.5,0.4,0.5c0.4,0,0.8-0.4,1-0.8c0-0.1,0-0.1,0.1-0.1c0,0,0.1,0,0.1,0.1
			c0,0.2-0.4,1.1-1.2,1.1c-0.3,0-0.7-0.1-0.8-0.5c-0.2,0.3-0.5,0.5-0.8,0.5c-0.3,0-0.7-0.2-0.7-0.5c0-0.3,0.2-0.4,0.4-0.4
			c0.2,0,0.3,0.1,0.3,0.3c0,0,0,0.3-0.3,0.4c0.1,0.1,0.4,0.1,0.4,0.1c0.4,0,0.6-0.4,0.7-0.6L259.8,9.5z"/>
		<path class="st2" d="M263.6,11.1c-0.2,0-0.4-0.2-0.4-0.4c0-0.2,0.2-0.4,0.4-0.4c0.3,0,0.5,0.3,0.5,0.8c0,0.8-0.6,1.4-0.7,1.4
			c0,0-0.1,0-0.1-0.1c0,0,0-0.1,0-0.1c0.5-0.4,0.5-0.9,0.5-1.3C263.9,11,263.8,11.1,263.6,11.1z"/>
	</g>
	<g>
		<path class="st2" d="M268.1,11.1h-2.9c0-0.2,0-0.2,0.1-0.3l1.7-1.7c0.2-0.3,0.7-0.7,0.7-1.3c0-0.6-0.4-1.1-1.1-1.1
			c-0.3,0-0.8,0.2-1,0.6c0.4,0,0.4,0.2,0.4,0.4c0,0.3-0.2,0.4-0.4,0.4c-0.1,0-0.4,0-0.4-0.4c0-0.6,0.6-1.2,1.5-1.2
			c0.9,0,1.6,0.5,1.6,1.4c0,0.7-0.5,1.1-1,1.5c-0.4,0.3-0.7,0.5-1.4,1.2h1.3c0.1,0,0.6,0,0.7,0c0.1-0.1,0.2-0.5,0.2-0.6h0.2
			L268.1,11.1z"/>
	</g>
	<polyline points="271.8,66.7 276.4,64.4 271.8,62.1 273,64.4 	"/>
	<line class="st3" x1="148.8" y1="64.4" x2="273" y2="64.4"/>
	<polyline points="214.9,22.9 212.6,18.3 210.3,22.9 212.6,21.7 	"/>
	<path class="st3" d="M212.6,67.9V21.7 M184.3,64.4L212.6,29 M212.6,29l28.3,35.4 M233.9,67.9v-7.1 M191.3,67.9v-7.1"/>
	<g>
		<path class="st0" d="M223,17.3c0.1-0.1,0.2-0.2,0.2-0.4c0-0.3-0.3-0.3-0.4-0.3c-0.1,0-0.1,0-0.1-0.1c0-0.2,0.1-0.2,0.2-0.2
			c0.4,0,0.7,0,1.1,0c0.3,0,0.6,0,0.9,0c0.1,0,0.1,0.1,0.1,0.1c0,0.2-0.1,0.2-0.2,0.2c-0.6,0-1,0.3-1.3,0.5c-0.3,0.3-1.4,1.5-2,2.2
			c0.2,0.6,0.9,2.2,1.3,3.1c0.2,0.4,0.2,0.4,0.9,0.4c0.1,0,0.2,0,0.2,0.1c0,0.2-0.1,0.2-0.2,0.2c-0.2,0-0.9,0-1.1,0
			c-0.3,0-1,0-1.3,0c0,0-0.1,0-0.1-0.1c0-0.2,0.1-0.2,0.2-0.2c0.4,0,0.6-0.2,0.6-0.3c0,0,0,0,0-0.1l-1-2.4l-0.9,1l-1,1.1
			c-0.1,0.1-0.3,0.3-0.3,0.4c0,0.3,0.3,0.3,0.4,0.3c0,0,0.1,0,0.1,0.1c0,0.2-0.1,0.2-0.2,0.2c-0.4,0-0.7,0-1.1,0c-0.3,0-0.6,0-0.9,0
			c-0.1,0-0.1-0.1-0.1-0.1c0-0.2,0.1-0.2,0.2-0.2c0.5,0,1-0.2,1.5-0.7l0.1-0.1l2.1-2.3l-1.2-2.8c-0.1-0.2-0.1-0.3-0.7-0.3
			c-0.1,0-0.2,0-0.2-0.1c0-0.2,0.1-0.2,0.2-0.2c0.2,0,0.9,0,1.1,0c0.4,0,0.8,0,1.3,0c0,0,0.1,0,0.1,0.1c0,0.2-0.1,0.2-0.2,0.2
			c-0.4,0-0.6,0.2-0.6,0.3c0,0,0,0,0,0.1l0.8,2L223,17.3z"/>
	</g>
	<g>
		<path class="st0" d="M228.1,21.6c0.1,0,0.2,0.1,0.2,0.2c0,0-0.1,0.4-0.1,0.5l-0.1,0.5c0,0.2-0.1,0.4-0.2,0.6
			c0,0.2-0.1,0.4-0.1,0.6c0,0.2,0,0.3,0.2,0.3c0.3,0,0.4-0.4,0.5-0.7c0-0.2,0.1-0.2,0.2-0.2c0,0,0.1,0,0.1,0.1c0,0-0.1,0.4-0.2,0.7
			c-0.1,0.2-0.3,0.4-0.6,0.4c-0.2,0-0.6-0.1-0.7-0.5c-0.3,0.3-0.6,0.5-1,0.5c-0.6,0-1.1-0.5-1.1-1.2c0-1,0.9-2,1.8-2
			c0.3,0,0.6,0.2,0.7,0.4C227.8,21.7,228,21.6,228.1,21.6z M227.6,22.4C227.6,22.4,227.7,22.3,227.6,22.4c0-0.2-0.1-0.7-0.6-0.7
			c-0.2,0-0.6,0.1-0.9,0.7c-0.2,0.3-0.4,1-0.4,1.4c0,0.5,0.3,0.7,0.5,0.7c0.3,0,0.6-0.2,0.6-0.3c0.2-0.1,0.3-0.3,0.4-0.5L227.6,22.4
			z"/>
		<path class="st0" d="M230.3,24.6c-0.2,0-0.4-0.2-0.4-0.4c0-0.2,0.2-0.4,0.4-0.4c0.3,0,0.5,0.3,0.5,0.8c0,0.8-0.6,1.4-0.7,1.4
			c0,0-0.1,0-0.1-0.1c0,0,0-0.1,0-0.1c0.5-0.4,0.5-0.9,0.5-1.3C230.6,24.5,230.5,24.6,230.3,24.6z"/>
	</g>
	<g>
		<path class="st0" d="M234.8,24.6H232c0-0.2,0-0.2,0.1-0.3l1.7-1.7c0.2-0.3,0.7-0.7,0.7-1.3c0-0.6-0.4-1.1-1.1-1.1
			c-0.3,0-0.8,0.2-1,0.6c0.4,0,0.4,0.2,0.4,0.4c0,0.3-0.2,0.4-0.4,0.4c-0.1,0-0.4,0-0.4-0.4c0-0.6,0.6-1.2,1.5-1.2
			c0.9,0,1.6,0.5,1.6,1.4c0,0.7-0.5,1.1-1,1.5c-0.4,0.3-0.7,0.5-1.4,1.2h1.3c0.1,0,0.6,0,0.7,0c0.1-0.1,0.2-0.5,0.2-0.6h0.2
			L234.8,24.6z"/>
	</g>
	<g>
		<path class="st0" d="M239.1,25.6c-0.1,0-1-0.6-1.6-1.9c-0.5-1.1-0.7-2.3-0.7-3.1c0-0.8,0.1-1.9,0.6-3c0.6-1.3,1.5-1.9,1.6-1.9
			c0.1,0,0.1,0,0.1,0.1c0,0,0,0-0.1,0.2c-1.2,1.2-1.6,3-1.6,4.7c0,1.5,0.3,3.4,1.6,4.7C239.2,25.5,239.2,25.5,239.1,25.6
			C239.2,25.6,239.1,25.6,239.1,25.6z"/>
	</g>
	<g>
		<path class="st0" d="M245.1,21.9c-0.4,0.7-0.8,1.4-1.6,1.4c-0.6,0-1-0.5-1.1-1c-0.4,0.5-0.8,1-1.5,1c-0.8,0-1-0.7-1-1.4
			c0-0.9,0.4-2.1,0.9-2.8c0.1-0.1,0.1-0.2,0.3-0.2c0.1,0,0.2,0.1,0.2,0.2c0,0.1-1,1.2-1,2.4c0,0.6,0.2,1.1,0.9,1.1
			c0.6,0,1-0.4,1.4-0.9c0-0.4,0.1-1,0.2-1.2c0.1-0.1,0.2-0.2,0.3-0.2c0.1,0,0.2,0.1,0.2,0.2c0,0.3-0.2,0.9-0.3,1.2
			c0.1,0.5,0.4,0.9,1,0.9c0.5,0,0.8-0.3,1.1-0.8c0.3-0.5,0.5-1,0.5-1.4c0-0.4-0.2-0.7-0.3-0.8c-0.1-0.1-0.1-0.2-0.1-0.3
			c0-0.2,0.3-0.5,0.5-0.5c0.2,0,0.4,0.2,0.4,0.7C245.7,20.1,245.4,21.4,245.1,21.9z"/>
	</g>
	<g>
		<path class="st0" d="M248.6,23.7c-0.6,1.3-1.5,1.9-1.6,1.9c-0.1,0-0.1,0-0.1-0.1c0,0,0-0.1,0.1-0.2c1.2-1.3,1.6-3,1.6-4.7
			c0-2.1-0.6-3.7-1.5-4.7c-0.2-0.2-0.2-0.2-0.2-0.2c0-0.1,0-0.1,0.1-0.1c0.1,0,1,0.6,1.6,1.9c0.5,1.1,0.7,2.3,0.7,3.1
			C249.2,21.5,249.1,22.6,248.6,23.7z"/>
	</g>
	<g>
		<path class="st0" d="M214.4,77.4c-0.4,0.9-1.2,1.2-1.7,1.2c-0.5,0-1.2-0.2-1.6-1c-0.4-0.8-0.4-1.7-0.4-2.4c0-0.8,0-1.6,0.4-2.3
			c0.4-0.9,1.1-1.2,1.7-1.2c0.4,0,1.2,0.2,1.7,1.1c0.3,0.7,0.4,1.5,0.4,2.3C214.8,75.9,214.7,76.7,214.4,77.4z M213.8,77.1
			c0.1-0.6,0.1-1.3,0.1-2.1c0-0.6,0-1.4-0.1-1.9c-0.2-1-0.8-1.2-1.2-1.2c-0.2,0-1,0.1-1.2,1.3c-0.1,0.5-0.1,1.2-0.1,1.8
			c0,0.6,0,1.5,0.1,2.1c0.2,1,0.8,1.2,1.2,1.2C213.1,78.3,213.7,78,213.8,77.1z"/>
	</g>
	<g>
		<path class="st0" d="M225.5,76.1c-0.1,0.5-0.1,0.5-0.3,1c-0.1,0.4-0.2,0.6-0.5,0.6c-0.1,0-0.3-0.1-0.3-0.3c0-0.1,0-0.1,0.1-0.2
			c0.4-0.9,1-2.1,1.3-3.3h-0.6c-0.2,0-0.8,0-1.3,0.8c-0.1,0.1-0.1,0.1-0.2,0.1c-0.1,0-0.1-0.1-0.1-0.1c0,0,0.3-0.5,0.6-0.9
			c0.4-0.5,0.8-0.5,1-0.5h3.3c0.2,0,0.4,0,0.4,0.2c0,0.3-0.4,0.3-0.5,0.3h-1.1c-0.1,0.5-0.2,1.1-0.2,1.6c0,0.3,0,0.9,0.3,1.6
			c0.1,0.1,0.1,0.2,0.1,0.2c0,0.2-0.2,0.4-0.4,0.4c-0.1,0-0.3-0.1-0.4-0.5c-0.1-0.3-0.1-0.6-0.1-0.8c0-0.7,0.1-1.1,0.4-2.6H226
			L225.5,76.1z"/>
		<path class="st0" d="M230.3,79.9c-0.1,0.2-0.1,0.2-0.2,0.2c-0.1,0-0.2-0.1-0.2-0.2c0,0,0,0,0-0.2l3.5-9.5c0-0.1,0.1-0.1,0.2-0.1
			c0.1,0,0.2,0.1,0.2,0.2c0,0,0,0,0,0.2L230.3,79.9z"/>
	</g>
	<g>
		<path class="st0" d="M237.3,76.9c0,0.1,0,0.2,0,0.2c0,0.2,0.1,0.2,0.4,0.2c0.3,0,0.4,0,0.6,0c0.3,0,0.3,0,0.3,0.1
			c0,0.2-0.1,0.2-0.2,0.2c-0.3,0-0.6,0-0.9,0c-0.3,0-0.5,0-0.8,0c-0.3,0-0.6,0-0.8,0c-0.3,0-0.5,0-0.8,0c-0.1,0-0.2,0-0.2-0.1
			c0-0.2,0.1-0.2,0.4-0.2c1.1,0,1.1-0.1,1.2-0.5l1.3-5.3c0,0,0-0.1,0-0.2c0-0.1,0-0.1-0.3-0.1h-0.4c-1.5,0-1.7,0.2-2.3,1.7
			c-0.1,0.2-0.1,0.2-0.2,0.2c-0.1,0-0.1,0-0.1-0.1c0,0,0-0.2,0.1-0.2l0.6-1.8c0.1-0.2,0.1-0.2,0.3-0.2h5.5c0.2,0,0.3,0,0.3,0.1
			c0,0,0,0.1,0,0.2l-0.3,1.7c0,0.1,0,0.2-0.1,0.2c-0.1,0-0.1-0.1-0.1-0.1c0,0,0-0.1,0-0.2c0-0.3,0.1-0.6,0.1-0.8
			c0-0.8-0.4-0.8-1.5-0.8c-0.2,0-0.5,0-0.6,0c-0.1,0-0.2,0.1-0.2,0.4L237.3,76.9z"/>
	</g>
	<g>
		<path class="st0" d="M242.6,76.2c-0.1,0-0.4,0-0.6,0.1c-0.2,0.1-0.3,0.3-0.3,0.4c0,0.2,0.1,0.3,0.4,0.3c0,0,0.2,0,0.3,0.1
			c0.3,0,1,0.2,1,0.8c0,0.3-0.2,1.2-1.5,1.2c-0.7,0-1.1-0.3-1.1-0.7c0-0.3,0.2-0.5,0.4-0.5c0.1,0,0.3,0.1,0.3,0.3
			c0,0.2-0.2,0.4-0.4,0.4c0.2,0.2,0.6,0.3,0.8,0.3c0.1,0,0.4,0,0.7-0.2c0.3-0.2,0.4-0.4,0.4-0.6c0-0.3-0.4-0.4-0.6-0.5
			c-0.5-0.1-0.6-0.1-0.8-0.3c-0.1-0.1-0.2-0.3-0.2-0.5c0-0.2,0.2-1,1.3-1c0.4,0,0.9,0.2,0.9,0.6c0,0.4-0.3,0.4-0.3,0.4
			c-0.1,0-0.2-0.1-0.2-0.2c0-0.1,0.1-0.3,0.3-0.3C243.2,76.2,242.8,76.2,242.6,76.2z"/>
	</g>
	<g>
		<path class="st0" d="M179.2,75.8v-0.6h2.6v0.6H179.2z"/>
	</g>
	<g>
		<path class="st0" d="M184.5,76.1c-0.1,0.5-0.1,0.5-0.3,1c-0.1,0.4-0.2,0.6-0.5,0.6c-0.1,0-0.3-0.1-0.3-0.3c0-0.1,0-0.1,0.1-0.2
			c0.4-0.9,1-2.1,1.3-3.3h-0.6c-0.2,0-0.8,0-1.3,0.8c-0.1,0.1-0.1,0.1-0.2,0.1c-0.1,0-0.1-0.1-0.1-0.1c0,0,0.3-0.5,0.6-0.9
			c0.4-0.5,0.8-0.5,1-0.5h3.3c0.2,0,0.4,0,0.4,0.2c0,0.3-0.4,0.3-0.5,0.3h-1.1c-0.1,0.5-0.2,1.1-0.2,1.6c0,0.3,0,0.9,0.3,1.6
			c0.1,0.1,0.1,0.2,0.1,0.2c0,0.2-0.2,0.4-0.4,0.4c-0.1,0-0.3-0.1-0.4-0.5c-0.1-0.3-0.1-0.6-0.1-0.8c0-0.7,0.1-1.1,0.4-2.6h-1.1
			L184.5,76.1z"/>
		<path class="st0" d="M189.4,79.9c-0.1,0.2-0.1,0.2-0.2,0.2c-0.1,0-0.2-0.1-0.2-0.2c0,0,0,0,0-0.2l3.5-9.5c0-0.1,0.1-0.1,0.2-0.1
			c0.1,0,0.2,0.1,0.2,0.2c0,0,0,0,0,0.2L189.4,79.9z"/>
	</g>
	<g>
		<path class="st0" d="M196.4,76.9c0,0.1,0,0.2,0,0.2c0,0.2,0.1,0.2,0.4,0.2c0.3,0,0.4,0,0.6,0c0.3,0,0.3,0,0.3,0.1
			c0,0.2-0.1,0.2-0.2,0.2c-0.3,0-0.6,0-0.9,0c-0.3,0-0.5,0-0.8,0c-0.3,0-0.6,0-0.8,0c-0.3,0-0.5,0-0.8,0c-0.1,0-0.2,0-0.2-0.1
			c0-0.2,0.1-0.2,0.4-0.2c1.1,0,1.1-0.1,1.2-0.5l1.3-5.3c0,0,0-0.1,0-0.2c0-0.1,0-0.1-0.3-0.1h-0.4c-1.5,0-1.7,0.2-2.3,1.7
			c-0.1,0.2-0.1,0.2-0.2,0.2c-0.1,0-0.1,0-0.1-0.1c0,0,0-0.2,0.1-0.2l0.6-1.8c0.1-0.2,0.1-0.2,0.3-0.2h5.5c0.2,0,0.3,0,0.3,0.1
			c0,0,0,0.1,0,0.2l-0.3,1.7c0,0.1,0,0.2-0.1,0.2c-0.1,0-0.1-0.1-0.1-0.1c0,0,0-0.1,0-0.2c0-0.3,0.1-0.6,0.1-0.8
			c0-0.8-0.4-0.8-1.5-0.8c-0.2,0-0.5,0-0.6,0c-0.1,0-0.2,0.1-0.2,0.4L196.4,76.9z"/>
	</g>
	<g>
		<path class="st0" d="M201.7,76.2c-0.1,0-0.4,0-0.6,0.1c-0.2,0.1-0.3,0.3-0.3,0.4c0,0.2,0.1,0.3,0.4,0.3c0,0,0.2,0,0.3,0.1
			c0.3,0,1,0.2,1,0.8c0,0.3-0.2,1.2-1.5,1.2c-0.7,0-1.1-0.3-1.1-0.7c0-0.3,0.2-0.5,0.4-0.5c0.1,0,0.3,0.1,0.3,0.3
			c0,0.2-0.2,0.4-0.4,0.4c0.2,0.2,0.6,0.3,0.8,0.3c0.1,0,0.4,0,0.7-0.2c0.3-0.2,0.4-0.4,0.4-0.6c0-0.3-0.4-0.4-0.6-0.5
			c-0.5-0.1-0.6-0.1-0.8-0.3c-0.1-0.1-0.2-0.3-0.2-0.5c0-0.2,0.2-1,1.3-1c0.4,0,0.9,0.2,0.9,0.6c0,0.4-0.3,0.4-0.3,0.4
			c-0.1,0-0.2-0.1-0.2-0.2c0-0.1,0.1-0.3,0.3-0.3C202.2,76.2,201.9,76.2,201.7,76.2z"/>
	</g>
	<g>
		<path class="st0" d="M278.6,76c-0.4,0.7-0.8,1.4-1.6,1.4c-0.6,0-1-0.5-1.1-1c-0.4,0.5-0.8,1-1.5,1c-0.8,0-1-0.7-1-1.4
			c0-0.9,0.4-2.1,0.9-2.8c0.1-0.1,0.1-0.2,0.3-0.2c0.1,0,0.2,0.1,0.2,0.2c0,0.1-1,1.2-1,2.4c0,0.6,0.2,1.1,0.9,1.1
			c0.6,0,1-0.4,1.4-0.9c0-0.4,0.1-1,0.2-1.2c0.1-0.1,0.2-0.2,0.3-0.2c0.1,0,0.2,0.1,0.2,0.2c0,0.3-0.2,0.9-0.3,1.2
			c0.1,0.5,0.4,0.9,1,0.9c0.5,0,0.8-0.3,1.1-0.8c0.3-0.5,0.5-1,0.5-1.4c0-0.4-0.2-0.7-0.3-0.8c-0.1-0.1-0.1-0.2-0.1-0.3
			c0-0.2,0.3-0.5,0.5-0.5c0.2,0,0.4,0.2,0.4,0.7C279.2,74.2,278.8,75.5,278.6,76z"/>
	</g>
	<polyline points="245.1,55.8 244.5,60.9 248.9,58.3 246.4,58 	"/>
	<line class="st4" x1="251.6" y1="50.2" x2="246.4" y2="58"/>
	<g>
		<path class="st2" d="M251.5,48c0,0.1-0.2,1.3-0.6,1.9c-0.2,0.4-0.6,1-1.1,1c-0.4,0-0.8-0.2-0.8-0.7c0-0.4,0.3-0.6,0.5-0.6
			c0.2,0,0.4,0.1,0.4,0.3c0,0.1-0.1,0.5-0.5,0.5c0.2,0.2,0.4,0.2,0.5,0.2c0.5,0,0.7-0.9,0.9-1.9l0.7-3.9h-0.7c-0.2,0-0.3,0-0.3-0.1
			c0-0.2,0.1-0.2,0.3-0.2h0.7c0.2-1.3,0.3-1.4,0.3-1.6c0.3-1,0.9-1.2,1.3-1.2c0.4,0,0.9,0.2,0.9,0.7c0,0.4-0.3,0.6-0.5,0.6
			c-0.2,0-0.4-0.1-0.4-0.3c0-0.1,0.1-0.5,0.5-0.5c-0.2-0.2-0.4-0.2-0.5-0.2c-0.2,0-0.4,0.1-0.5,0.3c-0.1,0.1-0.2,0.8-0.2,1l-0.2,1.1
			h0.8c0.2,0,0.3,0,0.3,0.1c0,0.2-0.1,0.2-0.3,0.2h-0.9L251.5,48z"/>
	</g>
	<g>
		<path class="st2" d="M256.7,48.5c0.1-0.4,0.1-0.5,0.1-0.7c0-0.1,0-0.5-0.4-0.5c-0.5,0-0.9,0.4-1,0.6c-0.2,0.3-0.2,0.3-0.3,0.6
			c0,0.2-0.1,0.3-0.1,0.5c0,0.2-0.1,0.5-0.2,0.6c0,0.1-0.1,0.4-0.1,0.4c0,0.1-0.1,0.2-0.3,0.2c-0.1,0-0.2-0.1-0.2-0.2
			c0,0,0-0.2,0.1-0.3l0.2-0.9c0-0.2,0.1-0.4,0.2-0.6s0.1-0.4,0.1-0.6c0-0.2,0-0.3-0.2-0.3c-0.3,0-0.4,0.3-0.5,0.8
			c0,0.2-0.1,0.2-0.2,0.2c0,0-0.1,0-0.1-0.1c0,0,0.1-0.4,0.3-0.7c0.1-0.2,0.3-0.4,0.6-0.4c0.3,0,0.7,0.2,0.7,0.6
			c0.2-0.3,0.6-0.6,1.2-0.6c0.4,0,0.9,0.1,0.9,0.7c0.2-0.3,0.6-0.7,1.2-0.7c0.3,0,0.5,0.1,0.6,0.2c0.3,0.2,0.3,0.5,0.3,0.6
			c0,0.4-0.3,1.1-0.4,1.3c-0.1,0.3-0.2,0.4-0.2,0.6c0,0.1,0,0.2,0.2,0.2c0.3,0,0.6-0.3,0.7-0.8c0-0.1,0-0.1,0.1-0.1
			c0,0,0.1,0,0.1,0.1c0,0.1-0.3,1.1-1,1.1c-0.4,0-0.7-0.2-0.7-0.6c0-0.1,0-0.2,0.1-0.4c0.1-0.3,0.4-1.1,0.4-1.5c0-0.2,0-0.5-0.4-0.5
			c-0.5,0-0.9,0.4-1.1,0.7c-0.1,0.2-0.1,0.2-0.2,0.5c0,0.2-0.1,0.3-0.1,0.5c0,0.2-0.1,0.5-0.2,0.6c0,0.1-0.1,0.4-0.1,0.4
			c0,0.1-0.1,0.2-0.3,0.2c-0.1,0-0.2-0.1-0.2-0.2c0,0,0.1-0.3,0.1-0.4L256.7,48.5z"/>
		<path class="st2" d="M263.7,47.3c0.1,0,0.2,0.1,0.2,0.2c0,0-0.1,0.4-0.1,0.5l-0.1,0.5c0,0.2-0.1,0.4-0.2,0.6
			c0,0.2-0.1,0.4-0.1,0.6c0,0.2,0,0.3,0.2,0.3c0.3,0,0.4-0.4,0.5-0.7c0-0.2,0.1-0.2,0.2-0.2c0,0,0.1,0,0.1,0.1c0,0-0.1,0.4-0.2,0.7
			c-0.1,0.2-0.3,0.4-0.6,0.4c-0.2,0-0.6-0.1-0.7-0.5c-0.3,0.3-0.6,0.5-1,0.5c-0.6,0-1.1-0.5-1.1-1.2c0-1,0.9-2,1.8-2
			c0.3,0,0.6,0.2,0.7,0.4C263.5,47.4,263.6,47.3,263.7,47.3z M263.3,48.1C263.3,48.1,263.3,48,263.3,48.1c0-0.2-0.1-0.7-0.6-0.7
			c-0.2,0-0.6,0.1-0.9,0.7c-0.2,0.3-0.4,1-0.4,1.4c0,0.5,0.3,0.7,0.5,0.7c0.3,0,0.6-0.2,0.6-0.3c0.2-0.1,0.3-0.3,0.4-0.5L263.3,48.1
			z"/>
		<path class="st2" d="M266.8,48.6c0.1-0.2,0.1-0.6,0.1-0.7c0-0.3-0.2-0.5-0.4-0.5c-0.3,0-0.8,0.3-1,0.8c0,0.1,0,0.1-0.1,0.1
			c0,0-0.1,0-0.1-0.1c0-0.2,0.4-1.1,1.2-1.1c0.4,0,0.7,0.2,0.8,0.5c0.2-0.3,0.4-0.5,0.8-0.5c0.3,0,0.7,0.1,0.7,0.5
			c0,0.3-0.2,0.4-0.4,0.4s-0.3-0.1-0.3-0.3c0-0.1,0.1-0.3,0.3-0.4c-0.1-0.1-0.4-0.1-0.4-0.1c-0.2,0-0.5,0.2-0.7,0.7
			c-0.2,0.8-0.4,1.4-0.4,1.6c0,0.3,0.1,0.5,0.4,0.5c0.4,0,0.8-0.4,1-0.8c0-0.1,0-0.1,0.1-0.1c0,0,0.1,0,0.1,0.1
			c0,0.2-0.4,1.1-1.2,1.1c-0.3,0-0.7-0.1-0.8-0.5c-0.2,0.3-0.5,0.5-0.8,0.5c-0.3,0-0.7-0.2-0.7-0.5c0-0.3,0.2-0.4,0.4-0.4
			c0.2,0,0.3,0.1,0.3,0.3c0,0,0,0.3-0.3,0.4c0.1,0.1,0.4,0.1,0.4,0.1c0.4,0,0.6-0.4,0.7-0.6L266.8,48.6z"/>
		<path class="st2" d="M270.6,50.3c-0.2,0-0.4-0.2-0.4-0.4c0-0.2,0.2-0.4,0.4-0.4c0.3,0,0.5,0.3,0.5,0.8c0,0.8-0.6,1.4-0.7,1.4
			c0,0-0.1,0-0.1-0.1c0,0,0-0.1,0-0.1c0.5-0.4,0.5-0.9,0.5-1.3C270.8,50.1,270.7,50.3,270.6,50.3z"/>
	</g>
	<g>
		<path class="st2" d="M275,50.3h-2.9c0-0.2,0-0.2,0.1-0.3l1.7-1.7c0.2-0.3,0.7-0.7,0.7-1.3c0-0.6-0.4-1.1-1.1-1.1
			c-0.3,0-0.8,0.2-1,0.6c0.4,0,0.4,0.2,0.4,0.4c0,0.3-0.2,0.4-0.4,0.4c-0.1,0-0.4,0-0.4-0.4c0-0.6,0.6-1.2,1.5-1.2
			c0.9,0,1.6,0.5,1.6,1.4c0,0.7-0.5,1.1-1,1.5c-0.4,0.3-0.7,0.5-1.4,1.2h1.3c0.1,0,0.6,0,0.7,0c0.1-0.1,0.2-0.5,0.2-0.6h0.2
			L275,50.3z"/>
	</g>
	<path class="st3" d="M212.6,114l28.3,35.4 M226.8,149.4l28.3-35.4 M255.1,114l24.8,31.9 M212.6,114l-28.3,35.4 M198.4,149.4
		L170.1,114 M170.1,114l-24.8,31.9"/>
	<g>
		<path class="st0" d="M223.6,107.6c0.1-0.1,0.2-0.2,0.2-0.4c0-0.3-0.3-0.3-0.4-0.3c-0.1,0-0.1,0-0.1-0.1c0-0.2,0.1-0.2,0.2-0.2
			c0.4,0,0.7,0,1.1,0c0.3,0,0.6,0,0.9,0c0.1,0,0.1,0.1,0.1,0.1c0,0.2-0.1,0.2-0.2,0.2c-0.6,0-1,0.3-1.3,0.5c-0.3,0.3-1.4,1.5-2,2.2
			c0.2,0.6,0.9,2.2,1.3,3.1c0.2,0.4,0.2,0.4,0.9,0.4c0.1,0,0.2,0,0.2,0.1c0,0.2-0.1,0.2-0.2,0.2c-0.2,0-0.9,0-1.1,0
			c-0.3,0-1,0-1.3,0c0,0-0.1,0-0.1-0.1c0-0.2,0.1-0.2,0.2-0.2c0.4,0,0.6-0.2,0.6-0.3c0,0,0,0,0-0.1l-1-2.4l-0.9,1l-1,1.1
			c-0.1,0.1-0.3,0.3-0.3,0.4c0,0.3,0.3,0.3,0.4,0.3c0,0,0.1,0,0.1,0.1c0,0.2-0.1,0.2-0.2,0.2c-0.4,0-0.7,0-1.1,0c-0.3,0-0.6,0-0.9,0
			c-0.1,0-0.1-0.1-0.1-0.1c0-0.2,0.1-0.2,0.2-0.2c0.5,0,1-0.2,1.5-0.7l0.1-0.1l2.1-2.3l-1.2-2.8c-0.1-0.2-0.1-0.3-0.7-0.3
			c-0.1,0-0.2,0-0.2-0.1c0-0.2,0.1-0.2,0.2-0.2c0.2,0,0.9,0,1.1,0c0.4,0,0.8,0,1.3,0c0,0,0.1,0,0.1,0.1c0,0.2-0.1,0.2-0.2,0.2
			c-0.4,0-0.6,0.2-0.6,0.3c0,0,0,0,0,0.1l0.8,2L223.6,107.6z"/>
	</g>
	<g>
		<path class="st0" d="M228.7,114.8h-2.9c0-0.2,0-0.2,0.1-0.3l1.7-1.7c0.2-0.3,0.7-0.7,0.7-1.3c0-0.6-0.4-1.1-1.1-1.1
			c-0.3,0-0.8,0.2-1,0.6c0.4,0,0.4,0.2,0.4,0.4c0,0.3-0.2,0.4-0.4,0.4c-0.1,0-0.4,0-0.4-0.4c0-0.6,0.6-1.2,1.5-1.2
			c0.9,0,1.6,0.5,1.6,1.4c0,0.7-0.5,1.1-1,1.5c-0.4,0.3-0.7,0.5-1.4,1.2h1.3c0.1,0,0.6,0,0.7,0c0.1-0.1,0.2-0.5,0.2-0.6h0.2
			L228.7,114.8z"/>
	</g>
	<g>
		<path class="st0" d="M233.1,115.9c-0.1,0-1-0.6-1.6-1.9c-0.5-1.1-0.7-2.3-0.7-3.1c0-0.8,0.1-1.9,0.6-3c0.6-1.3,1.5-1.9,1.6-1.9
			c0.1,0,0.1,0,0.1,0.1c0,0,0,0-0.1,0.2c-1.2,1.2-1.6,3-1.6,4.7c0,1.5,0.3,3.4,1.6,4.7C233.2,115.7,233.2,115.7,233.1,115.9
			C233.2,115.8,233.1,115.9,233.1,115.9z"/>
		<path class="st0" d="M235.1,112.6c0.2,0.4,0.6,0.7,1.1,0.7c0.1,0,1,0,1.3-1c0-0.1,0-0.1,0.1-0.1c0,0,0.1,0,0.1,0.1
			c0,0.2-0.4,1.3-1.7,1.3c-1.1,0-2.2-1-2.2-2.3c0-1.2,0.9-2.3,2.1-2.3c1.2,0,1.8,1,1.8,2c0,0.2,0,0.2-0.2,0.2h-2.8
			C234.8,111.4,234.8,112.1,235.1,112.6z M237.2,110.9c0-0.4-0.1-1.7-1.1-1.7c-0.3,0-1.2,0.3-1.2,1.7H237.2z"/>
	</g>
	<g>
		<path class="st0" d="M240.2,110.3c0,0.9-0.6,1.5-1.4,1.5c-0.6,0-1.1-0.3-1.1-0.8c0-0.3,0.2-0.5,0.5-0.5c0.3,0,0.5,0.2,0.5,0.5
			c0,0.3-0.2,0.4-0.3,0.4c0.3,0.1,0.5,0.1,0.5,0.1c0.6,0,0.7-0.9,0.7-1.3v-3.9c0-0.5-0.1-0.6-0.9-0.6v-0.3l1.5-0.1V110.3z
			 M239.7,104.2c-0.3,0-0.5-0.2-0.5-0.5s0.2-0.5,0.5-0.5s0.5,0.2,0.5,0.5S240,104.2,239.7,104.2z"/>
	</g>
	<g>
		<path class="st0" d="M242.5,109.9c-0.6,0-1-0.7-1-1.5c0-1.6,1.1-3.5,2.2-3.5c0.7,0,1,0.8,1,1.5
			C244.7,107.9,243.6,109.9,242.5,109.9z M242.3,107.5c-0.1,0.3-0.2,0.8-0.2,1.3c0,0.4,0.1,0.9,0.4,0.9c0.3,0,0.6-0.3,0.8-0.7
			c0.2-0.3,0.4-0.7,0.6-1.5H242.3z M244,107.2c0.1-0.6,0.2-1,0.2-1.3c0-0.1,0-0.9-0.4-0.9c-0.4,0-1,0.7-1.4,2.2H244z"/>
	</g>
	<g>
		<path class="st0" d="M248,113.9c-0.6,1.3-1.5,1.9-1.6,1.9c-0.1,0-0.1,0-0.1-0.1c0,0,0,0,0.1-0.2c1.2-1.3,1.6-3,1.6-4.7
			c0-2.1-0.6-3.7-1.5-4.7c-0.2-0.2-0.2-0.2-0.2-0.2c0-0.1,0-0.1,0.1-0.1c0.1,0,1,0.6,1.6,1.9c0.5,1.1,0.7,2.3,0.7,3.1
			C248.6,111.7,248.5,112.8,248,113.9z"/>
	</g>
	<polyline points="271.8,151.7 276.4,149.4 271.8,147.2 273,149.4 	"/>
	<line class="st3" x1="148.8" y1="149.4" x2="273" y2="149.4"/>
	<polyline points="214.9,107.9 212.6,103.4 210.3,107.9 212.6,106.8 	"/>
	<line class="st3" x1="212.6" y1="153" x2="212.6" y2="106.8"/>
	<g>
		<path class="st0" d="M214.4,162.4c-0.4,0.9-1.2,1.2-1.7,1.2c-0.5,0-1.2-0.2-1.6-1c-0.4-0.8-0.4-1.7-0.4-2.4c0-0.8,0-1.6,0.4-2.3
			c0.4-0.9,1.1-1.2,1.7-1.2c0.4,0,1.2,0.2,1.7,1.1c0.3,0.7,0.4,1.5,0.4,2.3C214.8,160.9,214.7,161.7,214.4,162.4z M213.8,162.1
			c0.1-0.6,0.1-1.3,0.1-2.1c0-0.6,0-1.4-0.1-1.9c-0.2-1-0.8-1.2-1.2-1.2c-0.2,0-1,0.1-1.2,1.3c-0.1,0.5-0.1,1.2-0.1,1.8
			c0,0.6,0,1.5,0.1,2.1c0.2,1,0.8,1.2,1.2,1.2C213.1,163.3,213.7,163,213.8,162.1z"/>
	</g>
	<line class="st3" x1="191.3" y1="153" x2="191.3" y2="145.9"/>
	<g>
		<path class="st0" d="M186.8,160.4v-0.6h2.6v0.6H186.8z"/>
	</g>
	<g>
		<path class="st0" d="M192.1,160.7c-0.1,0.5-0.1,0.5-0.3,1c-0.1,0.4-0.2,0.6-0.5,0.6c-0.1,0-0.3-0.1-0.3-0.3c0-0.1,0-0.1,0.1-0.2
			c0.4-0.9,1-2.1,1.3-3.3h-0.6c-0.2,0-0.8,0-1.3,0.8c-0.1,0.1-0.1,0.1-0.2,0.1c-0.1,0-0.1-0.1-0.1-0.1c0,0,0.3-0.5,0.6-0.9
			c0.4-0.5,0.8-0.5,1-0.5h3.3c0.2,0,0.4,0,0.4,0.2c0,0.3-0.4,0.3-0.5,0.3H194c-0.1,0.5-0.2,1.1-0.2,1.6c0,0.3,0,0.9,0.3,1.6
			c0.1,0.1,0.1,0.2,0.1,0.2c0,0.2-0.2,0.4-0.4,0.4c-0.1,0-0.3-0.1-0.4-0.5c-0.1-0.3-0.1-0.6-0.1-0.8c0-0.7,0.1-1.1,0.4-2.6h-1.1
			L192.1,160.7z"/>
	</g>
	<g>
		<path class="st0" d="M268.4,163.6c-0.9,0-1.2-1.1-1.2-2c0-2.3,1.5-5.1,2.9-5.1c1,0,1.2,1.4,1.2,2
			C271.4,160.8,269.8,163.6,268.4,163.6z M268.2,160.2c-0.3,1-0.3,1.6-0.3,2c0,0.9,0.2,1.2,0.5,1.2c0.4,0,0.8-0.5,1.2-1.2
			c0.4-0.7,0.6-1.6,0.7-2H268.2z M270.4,159.9c0.2-1,0.3-1.5,0.3-2c0-0.6-0.1-1.2-0.5-1.2c-0.4,0-0.8,0.6-1.1,1
			c-0.4,0.7-0.6,1.5-0.8,2.1H270.4z"/>
	</g>
	<line class="st3" x1="233.9" y1="153" x2="233.9" y2="145.9"/>
	<g>
		<path class="st0" d="M232.9,160.7c-0.1,0.5-0.1,0.5-0.3,1c-0.1,0.4-0.2,0.6-0.5,0.6c-0.1,0-0.3-0.1-0.3-0.3c0-0.1,0-0.1,0.1-0.2
			c0.4-0.9,1-2.1,1.3-3.3h-0.6c-0.2,0-0.8,0-1.3,0.8c-0.1,0.1-0.1,0.1-0.2,0.1c-0.1,0-0.1-0.1-0.1-0.1c0,0,0.3-0.5,0.6-0.9
			c0.4-0.5,0.8-0.5,1-0.5h3.3c0.2,0,0.4,0,0.4,0.2c0,0.3-0.4,0.3-0.5,0.3h-1.1c-0.1,0.5-0.2,1.1-0.2,1.6c0,0.3,0,0.9,0.3,1.6
			c0.1,0.1,0.1,0.2,0.1,0.2c0,0.2-0.2,0.4-0.4,0.4c-0.1,0-0.3-0.1-0.4-0.5c-0.1-0.3-0.1-0.6-0.1-0.8c0-0.7,0.1-1.1,0.4-2.6h-1.1
			L232.9,160.7z"/>
	</g>
	<line class="st3" x1="255.1" y1="153" x2="255.1" y2="145.9"/>
	<g>
		<path class="st0" d="M252.7,162.5c0.2,0,0.9,0,0.9-0.1c0.1-0.1,0.2-0.6,0.2-0.9h0.2l-0.3,1.7h-3.7c0-0.2,0-0.3,0.1-0.4l1.9-2.1
			c0.5-0.6,1-1.4,1-2.2c0-0.8-0.4-1.6-1.3-1.6c-0.6,0-1.1,0.4-1.3,1c0,0,0,0,0.1,0c0.3,0,0.5,0.3,0.5,0.5c0,0.4-0.3,0.5-0.5,0.5
			c0,0-0.5,0-0.5-0.6c0-0.9,0.7-1.8,1.9-1.8c1.2,0,2.1,0.8,2.1,1.9c0,1-0.6,1.5-2.2,2.9l-1.1,1H252.7z"/>
	</g>
	<g>
		<path class="st0" d="M256.8,161.8c-0.1,0.5-0.1,0.5-0.3,1c-0.1,0.4-0.2,0.6-0.5,0.6c-0.1,0-0.3-0.1-0.3-0.3c0-0.1,0-0.1,0.1-0.2
			c0.4-0.9,1-2.1,1.3-3.3h-0.6c-0.2,0-0.8,0-1.3,0.8c-0.1,0.1-0.1,0.1-0.2,0.1c-0.1,0-0.1-0.1-0.1-0.1c0,0,0.3-0.5,0.6-0.9
			c0.4-0.5,0.8-0.5,1-0.5h3.3c0.2,0,0.4,0,0.4,0.2c0,0.3-0.4,0.3-0.5,0.3h-1.1c-0.1,0.5-0.2,1.1-0.2,1.6c0,0.3,0,0.9,0.3,1.6
			c0.1,0.1,0.1,0.2,0.1,0.2c0,0.2-0.2,0.4-0.4,0.4c-0.1,0-0.3-0.1-0.4-0.5c-0.1-0.3-0.1-0.6-0.1-0.8c0-0.7,0.1-1.1,0.4-2.6h-1.1
			L256.8,161.8z"/>
	</g>
	<line class="st3" x1="170.1" y1="153" x2="170.1" y2="145.9"/>
	<g>
		<path class="st0" d="M161.9,160.7c-0.2,0-0.3,0-0.3-0.2s0.2-0.2,0.3-0.2h5.4c0.2,0,0.3,0,0.3,0.2s-0.2,0.2-0.3,0.2H161.9z"/>
	</g>
	<g>
		<path class="st0" d="M171.6,162.2c0.2,0,0.9,0,0.9-0.1c0.1-0.1,0.2-0.6,0.2-0.9h0.2l-0.3,1.7H169c0-0.2,0-0.3,0.1-0.4l1.9-2.1
			c0.5-0.6,1-1.4,1-2.2c0-0.8-0.4-1.6-1.3-1.6c-0.6,0-1.1,0.4-1.3,1c0,0,0,0,0.1,0c0.3,0,0.5,0.3,0.5,0.5c0,0.4-0.3,0.5-0.5,0.5
			c0,0-0.5,0-0.5-0.6c0-0.9,0.7-1.8,1.9-1.8c1.2,0,2.1,0.8,2.1,1.9c0,1-0.6,1.5-2.2,2.9l-1.1,1H171.6z"/>
	</g>
	<g>
		<path class="st0" d="M175.7,161.4c-0.1,0.5-0.1,0.5-0.3,1c-0.1,0.4-0.2,0.6-0.5,0.6c-0.1,0-0.3-0.1-0.3-0.3c0-0.1,0-0.1,0.1-0.2
			c0.4-0.9,1-2.1,1.3-3.3h-0.6c-0.2,0-0.8,0-1.3,0.8c-0.1,0.1-0.1,0.1-0.2,0.1c-0.1,0-0.1-0.1-0.1-0.1c0,0,0.3-0.5,0.6-0.9
			c0.4-0.5,0.8-0.5,1-0.5h3.3c0.2,0,0.4,0,0.4,0.2c0,0.3-0.4,0.3-0.5,0.3h-1.1c-0.1,0.5-0.2,1.1-0.2,1.6c0,0.3,0,0.9,0.3,1.6
			c0.1,0.1,0.1,0.2,0.1,0.2c0,0.2-0.2,0.4-0.4,0.4c-0.1,0-0.3-0.1-0.4-0.5c-0.1-0.3-0.1-0.6-0.1-0.8c0-0.7,0.1-1.1,0.4-2.6h-1.1
			L175.7,161.4z"/>
	</g>
	<g>
		<path class="st0" d="M213.6,169.6h-0.2c-0.2-1.4-0.4-1.9-1.9-1.9h-1.2c-0.5,0-0.5,0.1-0.5,0.4v2.5h0.9c1,0,1.1-0.3,1.1-1.2h0.2
			v2.6h-0.2c0-0.8-0.1-1.2-1.1-1.2h-0.9v2.5c0,0.3,0,0.5,0.9,0.5h0.3v0.3c-0.4,0-1.3,0-1.7,0c-0.4,0-1.2,0-1.5,0v-0.3h0.2
			c0.8,0,0.8-0.1,0.8-0.5v-5.2c0-0.4,0-0.5-0.8-0.5h-0.2v-0.3h5.5L213.6,169.6z"/>
		<path class="st0" d="M216.3,173.3c0,0.4,0,0.5,0.8,0.5h0.3v0.3c-0.3,0-1.1,0-1.5,0c-0.4,0-1.2,0-1.5,0v-0.3h0.3
			c0.8,0,0.8-0.1,0.8-0.5v-5.3c0-0.4,0-0.5-0.8-0.5h-0.3v-0.3c0.3,0,1.1,0,1.5,0c0.4,0,1.2,0,1.5,0v0.3h-0.3c-0.8,0-0.8,0.1-0.8,0.5
			V173.3z"/>
	</g>
	<polyline points="195.9,168.4 191.3,170.7 195.9,173 194.7,170.7 	"/>
	<line class="st3" x1="205.5" y1="170.7" x2="194.7" y2="170.7"/>
	<polyline points="229.3,173 233.9,170.7 229.3,168.4 230.5,170.7 	"/>
	<path class="st3" d="M219.7,170.7h10.8 M269.3,149.4l10.6-10.6 M155.9,149.4l-10.6-10.6"/>
	<g>
		<path class="st0" d="M11.3,2.7c1,0,1.5,0.5,1.8,0.9l0.5-0.7c0.1-0.1,0.1-0.1,0.2-0.1c0.1,0,0.1,0.1,0.1,0.2v2.4
			c0,0.2,0,0.2-0.2,0.2c-0.1,0-0.1,0-0.2-0.2C13.4,3.9,12.5,3,11.4,3c-0.6,0-2.6,0.3-2.6,3.3c0,3,2,3.3,2.6,3.3
			c1.1,0,2.2-0.8,2.2-2.2c0-0.1,0-0.2,0.1-0.2c0.1,0,0.1,0.1,0.1,0.2c0,1.2-1,2.5-2.6,2.5c-1.9,0-3.5-1.6-3.5-3.6
			C7.8,4.3,9.4,2.7,11.3,2.7z"/>
		<path class="st0" d="M16.5,9.8c-0.6,0-1.6-0.2-1.6-1.1c0-0.4,0.2-1,1-1.3c0.6-0.3,1.3-0.3,1.8-0.4V6.7c0-0.9-0.6-1.3-1.1-1.3
			c-0.3,0-0.8,0.1-1.1,0.5c0.5,0,0.5,0.3,0.5,0.5c0,0.3-0.2,0.5-0.5,0.5c-0.3,0-0.5-0.2-0.5-0.5c0-0.7,0.7-1.1,1.5-1.1
			c0.5,0,1,0.2,1.4,0.5c0.4,0.4,0.4,0.8,0.4,1.2v2c0,0,0,0.5,0.4,0.5c0.1,0,0.4-0.1,0.4-0.6V8.3h0.2v0.6c0,0.8-0.6,0.9-0.8,0.9
			c-0.5,0-0.7-0.4-0.8-0.8C17.6,9.4,17.1,9.8,16.5,9.8z M15.7,8.7c0,0.5,0.4,0.8,0.9,0.8c0.4,0,1.2-0.3,1.2-1.3v-1
			C16.1,7.4,15.7,8.2,15.7,8.7z"/>
		<path class="st0" d="M20.2,7.3c-0.3-0.2-0.4-0.5-0.4-0.8c0-0.6,0.4-1.2,1.6-1.2c0.1,0,0.6,0,0.9,0.3c0,0,0.1-0.1,0.2-0.2
			c0.1-0.1,0.1-0.1,0.2-0.1c0.1,0,0.1,0.1,0.1,0.2v1c0,0.2,0,0.2-0.1,0.2c0,0-0.1,0-0.1-0.1c0-0.3-0.1-1.2-1.2-1.2
			c-0.9,0-1.1,0.4-1.1,0.8c0,0.6,0.7,0.7,1.2,0.8c0.4,0.1,0.8,0.2,1.1,0.5c0.1,0.1,0.4,0.4,0.4,0.9c0,0.7-0.5,1.4-1.6,1.4
			c-0.2,0-0.7,0-1.1-0.4c-0.2,0.2-0.2,0.2-0.2,0.2C20,9.8,20,9.8,19.9,9.8c-0.1,0-0.1-0.1-0.1-0.2V8.3c0-0.2,0-0.2,0.1-0.2
			c0.1,0,0.1,0,0.1,0.2c0.2,0.8,0.5,1.4,1.4,1.4c0.8,0,1.1-0.4,1.1-0.9c0-0.7-0.8-0.9-1-0.9C20.8,7.6,20.6,7.6,20.2,7.3z"/>
		<path class="st0" d="M24.8,8.9c0.2,0.4,0.6,0.7,1.1,0.7c0.1,0,1,0,1.3-1c0-0.1,0-0.1,0.1-0.1c0,0,0.1,0,0.1,0.1
			c0,0.2-0.4,1.3-1.7,1.3c-1.1,0-2.2-1-2.2-2.3c0-1.2,0.9-2.3,2.1-2.3c1.2,0,1.8,1,1.8,2c0,0.2,0,0.2-0.2,0.2h-2.8
			C24.5,7.8,24.5,8.4,24.8,8.9z M26.9,7.2c0-0.4-0.1-1.7-1.1-1.7c-0.3,0-1.2,0.2-1.2,1.7H26.9z"/>
	</g>
	<g>
		<path class="st0" d="M29.3,6.5c-0.3,0-0.5-0.2-0.5-0.5c0-0.3,0.2-0.5,0.5-0.5c0.3,0,0.5,0.2,0.5,0.5C29.8,6.2,29.6,6.5,29.3,6.5z
			 M29.3,9.7c-0.3,0-0.5-0.2-0.5-0.5c0-0.3,0.2-0.5,0.5-0.5c0.3,0,0.5,0.2,0.5,0.5C29.8,9.5,29.6,9.7,29.3,9.7z"/>
	</g>
	<polyline points="7.3,11.3 30.7,11.3 30.7,10.8 7.3,10.8 	"/>
	<g>
		<path class="st1" d="M39.7,5.3c0,0.2,0,0.3,0.7,0.3h0.3v0.3c-0.2,0-1,0-1.2,0c-0.3,0-1.1,0-1.2,0V5.6h0.3c0.7,0,0.7-0.1,0.7-0.3
			V1.7c-0.4,0.2-0.8,0.2-1,0.2V1.7c0.3,0,0.9,0,1.4-0.4c0.2,0,0.2,0,0.2,0.2V5.3z"/>
	</g>
	<polyline class="st1" points="35.1,7.5 43.7,7.5 43.7,7.1 35.1,7.1 	"/>
	<g>
		<path class="st1" d="M37.6,12.6c0,0.1,0,0.1,0,0.2c0,0.1,0,0.1,0.3,0.1c0.1,0,0.3,0,0.4,0c0.2,0,0.3,0,0.3,0.1
			c0,0.2-0.1,0.2-0.2,0.2c-0.2,0-0.4,0-0.6,0c-0.2,0-0.4,0-0.6,0s-0.4,0-0.6,0s-0.4,0-0.6,0c-0.1,0-0.1-0.1-0.1-0.1
			c0-0.2,0.1-0.2,0.3-0.2c0.7,0,0.8-0.1,0.8-0.3l0.9-3.7c0-0.1,0-0.1,0-0.1c0-0.1,0-0.1-0.2-0.1h-0.3c-1.1,0-1.3,0.1-1.7,1.2
			c0,0.1-0.1,0.2-0.1,0.2c-0.1,0-0.1-0.1-0.1-0.1c0,0,0-0.1,0-0.1l0.4-1.2c0-0.1,0.1-0.1,0.2-0.1h4.3c0.1,0,0.2,0,0.2,0.1l-0.2,1.3
			c0,0.1,0,0.2-0.1,0.2c-0.1,0-0.1,0-0.1-0.1l0-0.1c0-0.4,0-0.5,0-0.6c0-0.3,0-0.5-0.3-0.6c-0.2-0.1-0.4-0.1-0.8-0.1
			c-0.1,0-0.4,0-0.4,0c-0.2,0-0.2,0-0.2,0.2L37.6,12.6z"/>
	</g>
	<g>
		<path class="st1" d="M41.8,12.1c-0.7,0-0.7,0.4-0.7,0.4c0,0.2,0.2,0.2,0.6,0.3c0.3,0,0.8,0.1,0.8,0.6c0,0.2-0.2,0.8-1.2,0.8
			c-0.1,0-0.9,0-0.9-0.5c0-0.2,0.1-0.4,0.3-0.4c0.1,0,0.2,0.1,0.2,0.2c0,0.1-0.1,0.3-0.3,0.3c0.2,0.2,0.5,0.2,0.7,0.2
			c0.9,0,0.9-0.5,0.9-0.5c0-0.3-0.3-0.3-0.7-0.4c-0.3,0-0.4-0.1-0.6-0.2c-0.1-0.1-0.2-0.2-0.2-0.4s0.2-0.7,1-0.7
			c0.4,0,0.8,0.1,0.8,0.4c0,0.3-0.2,0.3-0.3,0.3c-0.1,0-0.2-0.1-0.2-0.2c0,0,0-0.2,0.2-0.2C42.2,12.1,41.9,12.1,41.8,12.1z"/>
	</g>
	<g>
		<path class="st1" d="M48.5,6.4c-0.1,0-0.3,0-0.3-0.2S48.3,6,48.5,6h6c0.1,0,0.3,0,0.3,0.2s-0.2,0.2-0.3,0.2H48.5z M48.5,8.4
			c-0.1,0-0.3,0-0.3-0.2S48.3,8,48.5,8h5.9c0.1,0,0.3,0,0.3,0.2s-0.2,0.2-0.3,0.2H48.5z"/>
	</g>
	<g>
		<path class="st1" d="M61.2,8.9c0,0.1-0.2,1.3-0.6,1.9c-0.2,0.4-0.6,1-1.1,1c-0.4,0-0.8-0.2-0.8-0.7c0-0.4,0.3-0.6,0.5-0.6
			c0.2,0,0.4,0.1,0.4,0.3c0,0.1-0.1,0.5-0.5,0.5c0.2,0.2,0.4,0.2,0.5,0.2c0.5,0,0.7-0.9,0.9-1.9l0.7-3.9h-0.7c-0.2,0-0.3,0-0.3-0.1
			c0-0.2,0.1-0.2,0.3-0.2h0.7c0.2-1.3,0.3-1.4,0.3-1.6c0.3-1,0.9-1.2,1.3-1.2c0.4,0,0.9,0.2,0.9,0.7c0,0.4-0.3,0.6-0.5,0.6
			c-0.2,0-0.4-0.1-0.4-0.3c0-0.1,0.1-0.5,0.5-0.5c-0.2-0.2-0.4-0.2-0.5-0.2c-0.2,0-0.4,0.1-0.5,0.3c-0.1,0.1-0.2,0.8-0.2,1l-0.2,1.1
			h0.8c0.2,0,0.3,0,0.3,0.1c0,0.2-0.1,0.2-0.3,0.2h-0.9L61.2,8.9z"/>
	</g>
	<g>
		<path class="st1" d="M65.4,8.3c-0.1,0-0.4,0-0.6,0.1c-0.2,0.1-0.3,0.3-0.3,0.4c0,0.2,0.1,0.3,0.4,0.3c0,0,0.2,0,0.3,0.1
			c0.3,0,1,0.2,1,0.8c0,0.3-0.2,1.2-1.5,1.2c-0.7,0-1.1-0.3-1.1-0.7c0-0.3,0.2-0.5,0.4-0.5c0.1,0,0.3,0.1,0.3,0.3
			c0,0.2-0.2,0.4-0.4,0.4C64,11,64.4,11,64.7,11c0.1,0,0.4,0,0.7-0.2c0.3-0.2,0.4-0.4,0.4-0.6c0-0.3-0.4-0.4-0.6-0.5
			c-0.5-0.1-0.6-0.1-0.8-0.3c-0.1-0.1-0.2-0.3-0.2-0.5c0-0.2,0.2-1,1.3-1c0.4,0,0.9,0.2,0.9,0.6c0,0.4-0.3,0.4-0.3,0.4
			c-0.1,0-0.2-0.1-0.2-0.2c0-0.1,0.1-0.3,0.3-0.3C65.9,8.3,65.6,8.3,65.4,8.3z"/>
	</g>
	<g>
		<path class="st0" d="M71.2,10c-0.1,0.1-0.1,0.1-0.2,0.1c-0.1,0-0.2-0.1-0.2-0.2c0-0.1,0-0.1,0.2-0.2l5.2-2.5L71,4.7
			c-0.1-0.1-0.2-0.1-0.2-0.2c0-0.1,0.1-0.2,0.2-0.2c0,0,0,0,0.2,0.1L76.7,7c0.1,0,0.2,0.1,0.2,0.2c0,0.1-0.1,0.2-0.2,0.2L71.2,10z"
			/>
	</g>
	<g>
		<path class="st0" d="M83.6,8.9c0.2,0,0.9,0,0.9-0.1c0.1-0.1,0.2-0.6,0.2-0.9h0.2l-0.3,1.7h-3.7c0-0.2,0-0.3,0.1-0.4l1.9-2.1
			c0.5-0.6,1-1.4,1-2.2c0-0.8-0.4-1.6-1.3-1.6c-0.6,0-1.1,0.4-1.3,1c0,0,0,0,0.1,0c0.3,0,0.5,0.3,0.5,0.5c0,0.4-0.3,0.5-0.5,0.5
			c0,0-0.5,0-0.5-0.6c0-0.9,0.7-1.8,1.9-1.8c1.2,0,2.1,0.8,2.1,1.9c0,1-0.6,1.5-2.2,2.9l-1.1,1H83.6z"/>
	</g>
	<g>
		<path class="st0" d="M89.2,7.7c-0.3,0-0.5-0.2-0.5-0.5c0-0.3,0.2-0.5,0.5-0.5c0.3,0,0.5,0.2,0.5,0.5C89.7,7.5,89.5,7.7,89.2,7.7z"
			/>
	</g>
	<g>
		<path class="st2" d="M95.8,8.9c0,0.1-0.2,1.3-0.6,1.9c-0.2,0.4-0.6,1-1.1,1c-0.4,0-0.8-0.2-0.8-0.7c0-0.4,0.3-0.6,0.5-0.6
			c0.2,0,0.4,0.1,0.4,0.3c0,0.1-0.1,0.5-0.5,0.5c0.2,0.2,0.4,0.2,0.5,0.2c0.5,0,0.7-0.9,0.9-1.9l0.7-3.9H95c-0.2,0-0.3,0-0.3-0.1
			c0-0.2,0.1-0.2,0.3-0.2h0.7C96,4.2,96,4.1,96.1,3.8c0.3-1,0.9-1.2,1.3-1.2c0.4,0,0.9,0.2,0.9,0.7c0,0.4-0.3,0.6-0.5,0.6
			c-0.2,0-0.4-0.1-0.4-0.3c0-0.1,0.1-0.5,0.5-0.5c-0.2-0.2-0.4-0.2-0.5-0.2c-0.2,0-0.4,0.1-0.5,0.3c-0.1,0.1-0.2,0.8-0.2,1l-0.2,1.1
			h0.8c0.2,0,0.3,0,0.3,0.1c0,0.2-0.1,0.2-0.3,0.2h-0.9L95.8,8.9z"/>
	</g>
	<g>
		<path class="st2" d="M100.9,9.4c0.1-0.4,0.1-0.5,0.1-0.7c0-0.1,0-0.5-0.4-0.5c-0.5,0-0.9,0.4-1,0.6c-0.2,0.3-0.2,0.3-0.3,0.6
			c0,0.2-0.1,0.3-0.1,0.5c0,0.2-0.1,0.5-0.2,0.6c0,0.1-0.1,0.4-0.1,0.4c0,0.1-0.1,0.2-0.3,0.2c-0.1,0-0.2-0.1-0.2-0.2
			c0,0,0-0.2,0.1-0.3l0.2-0.9c0-0.2,0.1-0.4,0.2-0.6C98.9,9,99,8.7,99,8.6c0-0.2,0-0.3-0.2-0.3c-0.3,0-0.4,0.3-0.5,0.8
			c0,0.2-0.1,0.2-0.2,0.2c0,0-0.1,0-0.1-0.1c0,0,0.1-0.4,0.3-0.7c0.1-0.2,0.3-0.4,0.6-0.4c0.3,0,0.7,0.2,0.7,0.6
			c0.2-0.3,0.6-0.6,1.2-0.6c0.4,0,0.9,0.1,0.9,0.7c0.2-0.3,0.6-0.7,1.2-0.7c0.3,0,0.5,0.1,0.6,0.2c0.3,0.2,0.3,0.5,0.3,0.6
			c0,0.4-0.3,1.1-0.4,1.3c-0.1,0.3-0.2,0.4-0.2,0.6c0,0.1,0,0.2,0.2,0.2c0.3,0,0.6-0.3,0.7-0.8c0-0.1,0-0.1,0.1-0.1
			c0,0,0.1,0,0.1,0.1c0,0.1-0.3,1.1-1,1.1c-0.4,0-0.7-0.2-0.7-0.6c0-0.1,0-0.2,0.1-0.4c0.1-0.3,0.4-1.1,0.4-1.5c0-0.2,0-0.5-0.4-0.5
			c-0.5,0-0.9,0.4-1.1,0.7c-0.1,0.2-0.1,0.2-0.2,0.5c0,0.2-0.1,0.3-0.1,0.5c0,0.2-0.1,0.5-0.2,0.6c0,0.1-0.1,0.4-0.1,0.4
			c0,0.1-0.1,0.2-0.3,0.2c-0.1,0-0.2-0.1-0.2-0.2c0,0,0.1-0.3,0.1-0.4L100.9,9.4z"/>
		<path class="st2" d="M108,8.2c0.1,0,0.2,0.1,0.2,0.2c0,0-0.1,0.4-0.1,0.5L108,9.5c0,0.2-0.1,0.4-0.2,0.6c0,0.2-0.1,0.4-0.1,0.6
			c0,0.2,0,0.3,0.2,0.3c0.3,0,0.4-0.4,0.5-0.7c0-0.2,0.1-0.2,0.2-0.2c0,0,0.1,0,0.1,0.1c0,0-0.1,0.4-0.2,0.7
			c-0.1,0.2-0.3,0.4-0.6,0.4c-0.2,0-0.6-0.1-0.7-0.5c-0.3,0.3-0.6,0.5-1,0.5c-0.6,0-1.1-0.5-1.1-1.2c0-1,0.9-2,1.8-2
			c0.3,0,0.6,0.2,0.7,0.4C107.7,8.3,107.9,8.2,108,8.2z M107.5,9C107.6,9,107.6,8.9,107.5,9c0-0.2-0.1-0.7-0.6-0.7
			c-0.2,0-0.6,0.1-0.9,0.7c-0.2,0.3-0.4,1-0.4,1.4c0,0.5,0.3,0.7,0.5,0.7c0.3,0,0.6-0.2,0.6-0.3c0.2-0.1,0.3-0.3,0.4-0.5L107.5,9z"
			/>
		<path class="st2" d="M111,9.5c0.1-0.2,0.1-0.6,0.1-0.7c0-0.3-0.2-0.5-0.4-0.5c-0.3,0-0.8,0.3-1,0.8c0,0.1,0,0.1-0.1,0.1
			c0,0-0.1,0-0.1-0.1c0-0.2,0.4-1.1,1.2-1.1c0.4,0,0.7,0.2,0.8,0.5c0.2-0.3,0.4-0.5,0.8-0.5c0.3,0,0.7,0.1,0.7,0.5
			c0,0.3-0.2,0.4-0.4,0.4c-0.2,0-0.3-0.1-0.3-0.3c0-0.1,0.1-0.3,0.3-0.4c-0.1-0.1-0.4-0.1-0.4-0.1c-0.2,0-0.5,0.2-0.7,0.7
			c-0.2,0.8-0.4,1.4-0.4,1.6c0,0.3,0.1,0.5,0.4,0.5c0.4,0,0.8-0.4,1-0.8c0-0.1,0-0.1,0.1-0.1c0,0,0.1,0,0.1,0.1
			c0,0.2-0.4,1.1-1.2,1.1c-0.3,0-0.7-0.1-0.8-0.5c-0.2,0.3-0.5,0.5-0.8,0.5c-0.3,0-0.7-0.2-0.7-0.5c0-0.3,0.2-0.4,0.4-0.4
			c0.2,0,0.3,0.1,0.3,0.3c0,0,0,0.3-0.3,0.4c0.1,0.1,0.4,0.1,0.4,0.1c0.4,0,0.6-0.4,0.7-0.6L111,9.5z"/>
		<path class="st2" d="M114.8,11.1c-0.2,0-0.4-0.2-0.4-0.4c0-0.2,0.2-0.4,0.4-0.4c0.3,0,0.5,0.3,0.5,0.8c0,0.8-0.6,1.4-0.7,1.4
			c0,0-0.1,0-0.1-0.1c0,0,0-0.1,0-0.1c0.5-0.4,0.5-0.9,0.5-1.3C115.1,11,115,11.1,114.8,11.1z"/>
	</g>
	<g>
		<path class="st2" d="M118.3,10.6c0,0.2,0,0.3,0.7,0.3h0.3v0.3c-0.2,0-1,0-1.2,0c-0.3,0-1.1,0-1.2,0v-0.3h0.3
			c0.7,0,0.7-0.1,0.7-0.3V7c-0.4,0.2-0.8,0.2-1,0.2V7c0.3,0,0.9,0,1.4-0.4c0.2,0,0.2,0,0.2,0.2V10.6z"/>
	</g>
	<polyline points="123,66.7 127.6,64.4 123,62.1 124.2,64.4 	"/>
	<line class="st3" x1="0" y1="64.4" x2="124.2" y2="64.4"/>
	<polyline points="66,22.9 63.8,18.3 61.5,22.9 63.8,21.7 	"/>
	<path class="st5" d="M63.8,29L78,64.4 M85,67.9v-7.1 M42.5,67.9v-7.1 M63.8,21.7V68 M49.6,64.5l14.2-35.4"/>
	<g>
		<path class="st0" d="M74.1,17.3c0.1-0.1,0.2-0.2,0.2-0.4c0-0.3-0.3-0.3-0.4-0.3c-0.1,0-0.1,0-0.1-0.1c0-0.2,0.1-0.2,0.2-0.2
			c0.4,0,0.7,0,1.1,0c0.3,0,0.6,0,0.9,0c0.1,0,0.1,0.1,0.1,0.1c0,0.2-0.1,0.2-0.2,0.2c-0.6,0-1,0.3-1.3,0.5c-0.3,0.3-1.4,1.5-2,2.2
			c0.2,0.6,0.9,2.2,1.3,3.1c0.2,0.4,0.2,0.4,0.9,0.4c0.1,0,0.2,0,0.2,0.1c0,0.2-0.1,0.2-0.2,0.2c-0.2,0-0.9,0-1.1,0
			c-0.3,0-1,0-1.3,0c0,0-0.1,0-0.1-0.1c0-0.2,0.1-0.2,0.2-0.2c0.4,0,0.6-0.2,0.6-0.3c0,0,0,0,0-0.1l-1-2.4L71,21l-1,1.1
			c-0.1,0.1-0.3,0.3-0.3,0.4c0,0.3,0.3,0.3,0.4,0.3c0,0,0.1,0,0.1,0.1c0,0.2-0.1,0.2-0.2,0.2c-0.4,0-0.7,0-1.1,0c-0.3,0-0.6,0-0.9,0
			c-0.1,0-0.1-0.1-0.1-0.1c0-0.2,0.1-0.2,0.2-0.2c0.5,0,1-0.2,1.5-0.7l0.1-0.1l2.1-2.3L70.6,17c-0.1-0.2-0.1-0.3-0.7-0.3
			c-0.1,0-0.2,0-0.2-0.1c0-0.2,0.1-0.2,0.2-0.2c0.2,0,0.9,0,1.1,0c0.4,0,0.8,0,1.3,0c0,0,0.1,0,0.1,0.1c0,0.2-0.1,0.2-0.2,0.2
			c-0.4,0-0.6,0.2-0.6,0.3c0,0,0,0,0,0.1l0.8,2L74.1,17.3z"/>
	</g>
	<g>
		<path class="st0" d="M79.2,21.6c0.1,0,0.2,0.1,0.2,0.2c0,0-0.1,0.4-0.1,0.5l-0.1,0.5c0,0.2-0.1,0.4-0.2,0.6c0,0.2-0.1,0.4-0.1,0.6
			c0,0.2,0,0.3,0.2,0.3c0.3,0,0.4-0.4,0.5-0.7c0-0.2,0.1-0.2,0.2-0.2c0,0,0.1,0,0.1,0.1c0,0-0.1,0.4-0.2,0.7
			c-0.1,0.2-0.3,0.4-0.6,0.4c-0.2,0-0.6-0.1-0.7-0.5c-0.3,0.3-0.6,0.5-1,0.5c-0.6,0-1.1-0.5-1.1-1.2c0-1,0.9-2,1.8-2
			c0.3,0,0.6,0.2,0.7,0.4C78.9,21.7,79,21.6,79.2,21.6z M78.7,22.4C78.7,22.4,78.7,22.3,78.7,22.4c0-0.2-0.1-0.7-0.6-0.7
			c-0.2,0-0.6,0.1-0.9,0.7c-0.2,0.3-0.4,1-0.4,1.4c0,0.5,0.3,0.7,0.5,0.7c0.3,0,0.6-0.2,0.6-0.3c0.2-0.1,0.3-0.3,0.4-0.5L78.7,22.4z
			"/>
		<path class="st0" d="M81.4,24.6c-0.2,0-0.4-0.2-0.4-0.4c0-0.2,0.2-0.4,0.4-0.4c0.3,0,0.5,0.3,0.5,0.8c0,0.8-0.6,1.4-0.7,1.4
			c0,0-0.1,0-0.1-0.1c0,0,0-0.1,0-0.1c0.5-0.4,0.5-0.9,0.5-1.3C81.7,24.5,81.6,24.6,81.4,24.6z"/>
	</g>
	<g>
		<path class="st0" d="M85,24c0,0.2,0,0.3,0.7,0.3h0.3v0.3c-0.2,0-1,0-1.2,0c-0.3,0-1.1,0-1.2,0v-0.3h0.3c0.7,0,0.7-0.1,0.7-0.3
			v-3.6c-0.4,0.2-0.8,0.2-1,0.2v-0.3c0.3,0,0.9,0,1.4-0.4c0.2,0,0.2,0,0.2,0.2V24z"/>
	</g>
	<g>
		<path class="st0" d="M90.3,25.6c-0.1,0-1-0.6-1.6-1.9c-0.5-1.1-0.7-2.3-0.7-3.1c0-0.8,0.1-1.9,0.6-3c0.6-1.3,1.5-1.9,1.6-1.9
			c0.1,0,0.1,0,0.1,0.1c0,0,0,0-0.1,0.2c-1.2,1.2-1.6,3-1.6,4.7c0,1.5,0.3,3.4,1.6,4.7C90.4,25.5,90.4,25.5,90.3,25.6
			C90.4,25.6,90.3,25.6,90.3,25.6z"/>
	</g>
	<g>
		<path class="st0" d="M96.3,21.9c-0.4,0.7-0.8,1.4-1.6,1.4c-0.6,0-1-0.5-1.1-1c-0.4,0.5-0.8,1-1.5,1c-0.8,0-1-0.7-1-1.4
			c0-0.9,0.4-2.1,0.9-2.8c0.1-0.1,0.1-0.2,0.3-0.2c0.1,0,0.2,0.1,0.2,0.2c0,0.1-1,1.2-1,2.4c0,0.6,0.2,1.1,0.9,1.1
			c0.6,0,1-0.4,1.4-0.9c0-0.4,0.1-1,0.2-1.2c0.1-0.1,0.2-0.2,0.3-0.2c0.1,0,0.2,0.1,0.2,0.2c0,0.3-0.2,0.9-0.3,1.2
			c0.1,0.5,0.4,0.9,1,0.9c0.5,0,0.8-0.3,1.1-0.8c0.3-0.5,0.5-1,0.5-1.4c0-0.4-0.2-0.7-0.3-0.8c-0.1-0.1-0.1-0.2-0.1-0.3
			c0-0.2,0.3-0.5,0.5-0.5c0.2,0,0.4,0.2,0.4,0.7C96.9,20.1,96.6,21.4,96.3,21.9z"/>
	</g>
	<g>
		<path class="st0" d="M99.8,23.7c-0.6,1.3-1.5,1.9-1.6,1.9c-0.1,0-0.1,0-0.1-0.1c0,0,0-0.1,0.1-0.2c1.2-1.3,1.6-3,1.6-4.7
			c0-2.1-0.6-3.7-1.5-4.7c-0.2-0.2-0.2-0.2-0.2-0.2c0-0.1,0-0.1,0.1-0.1c0.1,0,1,0.6,1.6,1.9c0.5,1.1,0.7,2.3,0.7,3.1
			C100.4,21.5,100.3,22.6,99.8,23.7z"/>
	</g>
	<polyline points="82.1,55.8 81.5,60.9 85.9,58.3 83.4,58 	"/>
	<line class="st4" x1="88.6" y1="50.2" x2="83.4" y2="58"/>
	<g>
		<path class="st2" d="M88.4,48c0,0.1-0.2,1.3-0.6,1.9c-0.2,0.4-0.6,1-1.1,1c-0.4,0-0.8-0.2-0.8-0.7c0-0.4,0.3-0.6,0.5-0.6
			c0.2,0,0.4,0.1,0.4,0.3c0,0.1-0.1,0.5-0.5,0.5c0.2,0.2,0.4,0.2,0.5,0.2c0.5,0,0.7-0.9,0.9-1.9l0.7-3.9h-0.7c-0.2,0-0.3,0-0.3-0.1
			c0-0.2,0.1-0.2,0.3-0.2h0.7c0.2-1.3,0.3-1.4,0.3-1.6c0.3-1,0.9-1.2,1.3-1.2c0.4,0,0.9,0.2,0.9,0.7c0,0.4-0.3,0.6-0.5,0.6
			c-0.2,0-0.4-0.1-0.4-0.3c0-0.1,0.1-0.5,0.5-0.5C90.3,42,90.1,42,90,42c-0.2,0-0.4,0.1-0.5,0.3c-0.1,0.1-0.2,0.8-0.2,1l-0.2,1.1
			h0.8c0.2,0,0.3,0,0.3,0.1c0,0.2-0.1,0.2-0.3,0.2H89L88.4,48z"/>
	</g>
	<g>
		<path class="st2" d="M93.6,48.5c0.1-0.4,0.1-0.5,0.1-0.7c0-0.1,0-0.5-0.4-0.5c-0.5,0-0.9,0.4-1,0.6c-0.2,0.3-0.2,0.3-0.3,0.6
			c0,0.2-0.1,0.3-0.1,0.5c0,0.2-0.1,0.5-0.2,0.6c0,0.1-0.1,0.4-0.1,0.4c0,0.1-0.1,0.2-0.3,0.2c-0.1,0-0.2-0.1-0.2-0.2
			c0,0,0-0.2,0.1-0.3l0.2-0.9c0-0.2,0.1-0.4,0.2-0.6c0-0.2,0.1-0.4,0.1-0.6c0-0.2,0-0.3-0.2-0.3c-0.3,0-0.4,0.3-0.5,0.8
			c0,0.2-0.1,0.2-0.2,0.2c0,0-0.1,0-0.1-0.1c0,0,0.1-0.4,0.3-0.7c0.1-0.2,0.3-0.4,0.6-0.4c0.3,0,0.7,0.2,0.7,0.6
			c0.2-0.3,0.6-0.6,1.2-0.6c0.4,0,0.9,0.1,0.9,0.7c0.2-0.3,0.6-0.7,1.2-0.7c0.3,0,0.5,0.1,0.6,0.2c0.3,0.2,0.3,0.5,0.3,0.6
			c0,0.4-0.3,1.1-0.4,1.3c-0.1,0.3-0.2,0.4-0.2,0.6c0,0.1,0,0.2,0.2,0.2c0.3,0,0.6-0.3,0.7-0.8c0-0.1,0-0.1,0.1-0.1
			c0,0,0.1,0,0.1,0.1c0,0.1-0.3,1.1-1,1.1c-0.4,0-0.7-0.2-0.7-0.6c0-0.1,0-0.2,0.1-0.4c0.1-0.3,0.4-1.1,0.4-1.5c0-0.2,0-0.5-0.4-0.5
			c-0.5,0-0.9,0.4-1.1,0.7c-0.1,0.2-0.1,0.2-0.2,0.5c0,0.2-0.1,0.3-0.1,0.5c0,0.2-0.1,0.5-0.2,0.6c0,0.1-0.1,0.4-0.1,0.4
			c0,0.1-0.1,0.2-0.3,0.2c-0.1,0-0.2-0.1-0.2-0.2c0,0,0.1-0.3,0.1-0.4L93.6,48.5z"/>
		<path class="st2" d="M100.7,47.3c0.1,0,0.2,0.1,0.2,0.2c0,0-0.1,0.4-0.1,0.5l-0.1,0.5c0,0.2-0.1,0.4-0.2,0.6
			c0,0.2-0.1,0.4-0.1,0.6c0,0.2,0,0.3,0.2,0.3c0.3,0,0.4-0.4,0.5-0.7c0-0.2,0.1-0.2,0.2-0.2c0,0,0.1,0,0.1,0.1c0,0-0.1,0.4-0.2,0.7
			c-0.1,0.2-0.3,0.4-0.6,0.4c-0.2,0-0.6-0.1-0.7-0.5c-0.3,0.3-0.6,0.5-1,0.5c-0.6,0-1.1-0.5-1.1-1.2c0-1,0.9-2,1.8-2
			c0.3,0,0.6,0.2,0.7,0.4C100.4,47.4,100.5,47.3,100.7,47.3z M100.2,48.1C100.2,48.1,100.2,48,100.2,48.1c0-0.2-0.1-0.7-0.6-0.7
			c-0.2,0-0.6,0.1-0.9,0.7c-0.2,0.3-0.4,1-0.4,1.4c0,0.5,0.3,0.7,0.5,0.7c0.3,0,0.6-0.2,0.6-0.3c0.2-0.1,0.3-0.3,0.4-0.5L100.2,48.1
			z"/>
		<path class="st2" d="M103.7,48.6c0.1-0.2,0.1-0.6,0.1-0.7c0-0.3-0.2-0.5-0.4-0.5c-0.3,0-0.8,0.3-1,0.8c0,0.1,0,0.1-0.1,0.1
			c0,0-0.1,0-0.1-0.1c0-0.2,0.4-1.1,1.2-1.1c0.4,0,0.7,0.2,0.8,0.5c0.2-0.3,0.4-0.5,0.8-0.5c0.3,0,0.7,0.1,0.7,0.5
			c0,0.3-0.2,0.4-0.4,0.4c-0.2,0-0.3-0.1-0.3-0.3c0-0.1,0.1-0.3,0.3-0.4c-0.1-0.1-0.4-0.1-0.4-0.1c-0.2,0-0.5,0.2-0.7,0.7
			c-0.2,0.8-0.4,1.4-0.4,1.6c0,0.3,0.1,0.5,0.4,0.5c0.4,0,0.8-0.4,1-0.8c0-0.1,0-0.1,0.1-0.1c0,0,0.1,0,0.1,0.1
			c0,0.2-0.4,1.1-1.2,1.1c-0.3,0-0.7-0.1-0.8-0.5c-0.2,0.3-0.5,0.5-0.8,0.5c-0.3,0-0.7-0.2-0.7-0.5c0-0.3,0.2-0.4,0.4-0.4
			c0.2,0,0.3,0.1,0.3,0.3c0,0,0,0.3-0.3,0.4c0.1,0.1,0.4,0.1,0.4,0.1c0.4,0,0.6-0.4,0.7-0.6L103.7,48.6z"/>
		<path class="st2" d="M107.5,50.3c-0.2,0-0.4-0.2-0.4-0.4c0-0.2,0.2-0.4,0.4-0.4c0.3,0,0.5,0.3,0.5,0.8c0,0.8-0.6,1.4-0.7,1.4
			c0,0-0.1,0-0.1-0.1c0,0,0-0.1,0-0.1c0.5-0.4,0.5-0.9,0.5-1.3C107.8,50.1,107.7,50.3,107.5,50.3z"/>
	</g>
	<g>
		<path class="st2" d="M111,49.7c0,0.2,0,0.3,0.7,0.3h0.3v0.3c-0.2,0-1,0-1.2,0c-0.3,0-1.1,0-1.2,0V50h0.3c0.7,0,0.7-0.1,0.7-0.3
			v-3.6c-0.4,0.2-0.8,0.2-1,0.2v-0.3c0.3,0,0.9,0,1.4-0.4c0.2,0,0.2,0,0.2,0.2V49.7z"/>
	</g>
	<g>
		<path class="st0" d="M65.5,91.6c-0.4,0.9-1.2,1.2-1.7,1.2c-0.5,0-1.2-0.2-1.6-1c-0.4-0.8-0.4-1.7-0.4-2.4c0-0.8,0-1.6,0.4-2.3
			c0.4-0.9,1.1-1.2,1.7-1.2c0.4,0,1.2,0.2,1.7,1.1c0.3,0.7,0.4,1.5,0.4,2.3C65.8,90.1,65.8,90.9,65.5,91.6z M64.9,91.3
			c0.1-0.6,0.1-1.3,0.1-2.1c0-0.6,0-1.4-0.1-1.9c-0.2-1-0.8-1.2-1.2-1.2c-0.2,0-1,0.1-1.2,1.3c-0.1,0.5-0.1,1.2-0.1,1.8
			c0,0.6,0,1.5,0.1,2.1c0.2,1,0.8,1.2,1.2,1.2C64.2,92.5,64.8,92.2,64.9,91.3z"/>
	</g>
	<g>
		<path class="st0" d="M78.6,91c0,0.1-0.2,1.3-0.6,1.9c-0.2,0.4-0.6,1-1.1,1c-0.4,0-0.8-0.2-0.8-0.7c0-0.4,0.3-0.6,0.5-0.6
			c0.2,0,0.4,0.1,0.4,0.3c0,0.1-0.1,0.5-0.5,0.5c0.2,0.2,0.4,0.2,0.5,0.2c0.5,0,0.7-0.9,0.9-1.9l0.7-3.9h-0.7c-0.2,0-0.3,0-0.3-0.1
			c0-0.2,0.1-0.2,0.3-0.2h0.7c0.2-1.3,0.3-1.4,0.3-1.6c0.3-1,0.9-1.2,1.3-1.2c0.4,0,0.9,0.2,0.9,0.7c0,0.4-0.3,0.6-0.5,0.6
			c-0.2,0-0.4-0.1-0.4-0.3c0-0.1,0.1-0.5,0.5-0.5C80.5,85,80.2,85,80.2,85c-0.2,0-0.4,0.1-0.5,0.3c-0.1,0.1-0.2,0.8-0.2,1l-0.2,1.1
			h0.8c0.2,0,0.3,0,0.3,0.1c0,0.2-0.1,0.2-0.3,0.2h-0.9L78.6,91z"/>
	</g>
	<g>
		<path class="st0" d="M82.8,90.3c-0.1,0-0.4,0-0.6,0.1c-0.2,0.1-0.3,0.3-0.3,0.4c0,0.2,0.1,0.3,0.4,0.3c0,0,0.2,0,0.3,0.1
			c0.3,0,1,0.2,1,0.8c0,0.3-0.2,1.2-1.5,1.2c-0.7,0-1.1-0.3-1.1-0.7c0-0.3,0.2-0.5,0.4-0.5c0.1,0,0.3,0.1,0.3,0.3
			c0,0.2-0.2,0.4-0.4,0.4c0.2,0.2,0.6,0.3,0.8,0.3c0.1,0,0.4,0,0.7-0.2c0.3-0.2,0.4-0.4,0.4-0.6c0-0.3-0.4-0.4-0.6-0.5
			c-0.5-0.1-0.6-0.1-0.8-0.3c-0.1-0.1-0.2-0.3-0.2-0.5c0-0.2,0.2-1,1.3-1c0.4,0,0.9,0.2,0.9,0.6c0,0.4-0.3,0.4-0.3,0.4
			c-0.1,0-0.2-0.1-0.2-0.2c0-0.1,0.1-0.3,0.3-0.3C83.3,90.4,82.9,90.3,82.8,90.3z"/>
	</g>
	<g>
		<path class="st0" d="M85.6,94c-0.1,0.2-0.1,0.2-0.2,0.2c-0.1,0-0.2-0.1-0.2-0.2c0,0,0,0,0-0.2l3.5-9.5c0-0.1,0.1-0.1,0.2-0.1
			c0.1,0,0.2,0.1,0.2,0.2c0,0,0,0,0,0.2L85.6,94z"/>
	</g>
	<g>
		<path class="st0" d="M92.8,91c0.2,0,0.9,0,0.9-0.1c0.1-0.1,0.2-0.6,0.2-0.9h0.2l-0.3,1.7h-3.7c0-0.2,0-0.3,0.1-0.4l1.9-2.1
			c0.5-0.6,1-1.4,1-2.2c0-0.8-0.4-1.6-1.3-1.6c-0.6,0-1.1,0.4-1.3,1c0,0,0,0,0.1,0c0.3,0,0.5,0.3,0.5,0.5c0,0.4-0.3,0.5-0.5,0.5
			c0,0-0.5,0-0.5-0.6c0-0.9,0.7-1.8,1.9-1.8c1.2,0,2.1,0.8,2.1,1.9c0,1-0.6,1.5-2.2,2.9L91,91H92.8z"/>
	</g>
	<g>
		<path class="st0" d="M31.5,89.9v-0.6h2.6v0.6H31.5z"/>
	</g>
	<g>
		<path class="st0" d="M37.8,91c0,0.1-0.2,1.3-0.6,1.9c-0.2,0.4-0.6,1-1.1,1c-0.4,0-0.8-0.2-0.8-0.7c0-0.4,0.3-0.6,0.5-0.6
			c0.2,0,0.4,0.1,0.4,0.3c0,0.1-0.1,0.5-0.5,0.5c0.2,0.2,0.4,0.2,0.5,0.2c0.5,0,0.7-0.9,0.9-1.9l0.7-3.9h-0.7c-0.2,0-0.3,0-0.3-0.1
			c0-0.2,0.1-0.2,0.3-0.2h0.7c0.2-1.3,0.3-1.4,0.3-1.6c0.3-1,0.9-1.2,1.3-1.2c0.4,0,0.9,0.2,0.9,0.7c0,0.4-0.3,0.6-0.5,0.6
			c-0.2,0-0.4-0.1-0.4-0.3c0-0.1,0.1-0.5,0.5-0.5C39.7,85,39.4,85,39.4,85c-0.2,0-0.4,0.1-0.5,0.3c-0.1,0.1-0.2,0.8-0.2,1l-0.2,1.1
			h0.8c0.2,0,0.3,0,0.3,0.1c0,0.2-0.1,0.2-0.3,0.2h-0.9L37.8,91z"/>
	</g>
	<g>
		<path class="st0" d="M42,90.3c-0.1,0-0.4,0-0.6,0.1c-0.2,0.1-0.3,0.3-0.3,0.4c0,0.2,0.1,0.3,0.4,0.3c0,0,0.2,0,0.3,0.1
			c0.3,0,1,0.2,1,0.8c0,0.3-0.2,1.2-1.5,1.2c-0.7,0-1.1-0.3-1.1-0.7c0-0.3,0.2-0.5,0.4-0.5c0.1,0,0.3,0.1,0.3,0.3
			c0,0.2-0.2,0.4-0.4,0.4c0.2,0.2,0.6,0.3,0.8,0.3c0.1,0,0.4,0,0.7-0.2c0.3-0.2,0.4-0.4,0.4-0.6c0-0.3-0.4-0.4-0.6-0.5
			c-0.5-0.1-0.6-0.1-0.8-0.3c-0.1-0.1-0.2-0.3-0.2-0.5c0-0.2,0.2-1,1.3-1c0.4,0,0.9,0.2,0.9,0.6c0,0.4-0.3,0.4-0.3,0.4
			c-0.1,0-0.2-0.1-0.2-0.2c0-0.1,0.1-0.3,0.3-0.3C42.5,90.4,42.1,90.3,42,90.3z"/>
	</g>
	<g>
		<path class="st0" d="M44.7,94c-0.1,0.2-0.1,0.2-0.2,0.2c-0.1,0-0.2-0.1-0.2-0.2c0,0,0,0,0-0.2l3.5-9.5c0-0.1,0.1-0.1,0.2-0.1
			c0.1,0,0.2,0.1,0.2,0.2c0,0,0,0,0,0.2L44.7,94z"/>
	</g>
	<g>
		<path class="st0" d="M51.8,91c0.2,0,0.9,0,0.9-0.1c0.1-0.1,0.2-0.6,0.2-0.9h0.2L53,91.8h-3.7c0-0.2,0-0.3,0.1-0.4l1.9-2.1
			c0.5-0.6,1-1.4,1-2.2c0-0.8-0.4-1.6-1.3-1.6c-0.6,0-1.1,0.4-1.3,1c0,0,0,0,0.1,0c0.3,0,0.5,0.3,0.5,0.5c0,0.4-0.3,0.5-0.5,0.5
			c0,0-0.5,0-0.5-0.6c0-0.9,0.7-1.8,1.9-1.8c1.2,0,2.1,0.8,2.1,1.9c0,1-0.6,1.5-2.2,2.9L50,91H51.8z"/>
	</g>
	<g>
		<path class="st0" d="M127.7,91c0,0.1-0.2,1.3-0.6,1.9c-0.2,0.4-0.6,1-1.1,1c-0.4,0-0.8-0.2-0.8-0.7c0-0.4,0.3-0.6,0.5-0.6
			c0.2,0,0.4,0.1,0.4,0.3c0,0.1-0.1,0.5-0.5,0.5c0.2,0.2,0.4,0.2,0.5,0.2c0.5,0,0.7-0.9,0.9-1.9l0.7-3.9H127c-0.2,0-0.3,0-0.3-0.1
			c0-0.2,0.1-0.2,0.3-0.2h0.7c0.2-1.3,0.3-1.4,0.3-1.6c0.3-1,0.9-1.2,1.3-1.2c0.4,0,0.9,0.2,0.9,0.7c0,0.4-0.3,0.6-0.5,0.6
			c-0.2,0-0.4-0.1-0.4-0.3c0-0.1,0.1-0.5,0.5-0.5c-0.2-0.2-0.4-0.2-0.5-0.2c-0.2,0-0.4,0.1-0.5,0.3c-0.1,0.1-0.2,0.8-0.2,1l-0.2,1.1
			h0.8c0.2,0,0.3,0,0.3,0.1c0,0.2-0.1,0.2-0.3,0.2h-0.9L127.7,91z"/>
	</g>
	<g>
		<path class="st0" d="M65.5,77.4c-0.4,0.9-1.2,1.2-1.7,1.2c-0.5,0-1.2-0.2-1.6-1c-0.4-0.8-0.4-1.7-0.4-2.4c0-0.8,0-1.6,0.4-2.3
			c0.4-0.9,1.1-1.2,1.7-1.2c0.4,0,1.2,0.2,1.7,1.1c0.3,0.7,0.4,1.5,0.4,2.3C65.8,75.9,65.8,76.7,65.5,77.4z M64.9,77.1
			C65,76.5,65,75.8,65,75c0-0.6,0-1.4-0.1-1.9c-0.2-1-0.8-1.2-1.2-1.2c-0.2,0-1,0.1-1.2,1.3c-0.1,0.5-0.1,1.2-0.1,1.8
			c0,0.6,0,1.5,0.1,2.1c0.2,1,0.8,1.2,1.2,1.2C64.2,78.3,64.8,78,64.9,77.1z"/>
	</g>
	<g>
		<path class="st0" d="M76.7,76.1c-0.1,0.5-0.1,0.5-0.3,1c-0.1,0.4-0.2,0.6-0.5,0.6c-0.1,0-0.3-0.1-0.3-0.3c0-0.1,0-0.1,0.1-0.2
			c0.4-0.9,1-2.1,1.3-3.3h-0.6c-0.2,0-0.8,0-1.3,0.8c-0.1,0.1-0.1,0.1-0.2,0.1c-0.1,0-0.1-0.1-0.1-0.1c0,0,0.3-0.5,0.6-0.9
			c0.4-0.5,0.8-0.5,1-0.5h3.3c0.2,0,0.4,0,0.4,0.2c0,0.3-0.4,0.3-0.5,0.3h-1.1c-0.1,0.5-0.2,1.1-0.2,1.6c0,0.3,0,0.9,0.3,1.6
			c0.1,0.1,0.1,0.2,0.1,0.2c0,0.2-0.2,0.4-0.4,0.4c-0.1,0-0.3-0.1-0.4-0.5c-0.1-0.3-0.1-0.6-0.1-0.8c0-0.7,0.1-1.1,0.4-2.6h-1.1
			L76.7,76.1z"/>
		<path class="st0" d="M81.5,79.9c-0.1,0.2-0.1,0.2-0.2,0.2c-0.1,0-0.2-0.1-0.2-0.2c0,0,0,0,0-0.2l3.5-9.5c0-0.1,0.1-0.1,0.2-0.1
			c0.1,0,0.2,0.1,0.2,0.2c0,0,0,0,0,0.2L81.5,79.9z"/>
	</g>
	<g>
		<path class="st0" d="M88.5,76.9c0,0.1,0,0.2,0,0.2c0,0.2,0.1,0.2,0.4,0.2c0.3,0,0.4,0,0.6,0c0.3,0,0.3,0,0.3,0.1
			c0,0.2-0.1,0.2-0.2,0.2c-0.3,0-0.6,0-0.9,0c-0.3,0-0.5,0-0.8,0c-0.3,0-0.6,0-0.8,0c-0.3,0-0.5,0-0.8,0c-0.1,0-0.2,0-0.2-0.1
			c0-0.2,0.1-0.2,0.4-0.2c1.1,0,1.1-0.1,1.2-0.5l1.3-5.3c0,0,0-0.1,0-0.2c0-0.1,0-0.1-0.3-0.1h-0.4c-1.5,0-1.7,0.2-2.3,1.7
			c-0.1,0.2-0.1,0.2-0.2,0.2c-0.1,0-0.1,0-0.1-0.1c0,0,0-0.2,0.1-0.2l0.6-1.8c0.1-0.2,0.1-0.2,0.3-0.2h5.5c0.2,0,0.3,0,0.3,0.1
			c0,0,0,0.1,0,0.2l-0.3,1.7c0,0.1,0,0.2-0.1,0.2c-0.1,0-0.1-0.1-0.1-0.1c0,0,0-0.1,0-0.2c0-0.3,0.1-0.6,0.1-0.8
			c0-0.8-0.4-0.8-1.5-0.8c-0.2,0-0.5,0-0.6,0c-0.1,0-0.2,0.1-0.2,0.4L88.5,76.9z"/>
	</g>
	<g>
		<path class="st0" d="M93.8,76.2c-0.1,0-0.4,0-0.6,0.1c-0.2,0.1-0.3,0.3-0.3,0.4c0,0.2,0.1,0.3,0.4,0.3c0,0,0.2,0,0.3,0.1
			c0.3,0,1,0.2,1,0.8c0,0.3-0.2,1.2-1.5,1.2c-0.7,0-1.1-0.3-1.1-0.7c0-0.3,0.2-0.5,0.4-0.5c0.1,0,0.3,0.1,0.3,0.3
			c0,0.2-0.2,0.4-0.4,0.4c0.2,0.2,0.6,0.3,0.8,0.3c0.1,0,0.4,0,0.7-0.2c0.3-0.2,0.4-0.4,0.4-0.6c0-0.3-0.4-0.4-0.6-0.5
			c-0.5-0.1-0.6-0.1-0.8-0.3c-0.1-0.1-0.2-0.3-0.2-0.5c0-0.2,0.2-1,1.3-1c0.4,0,0.9,0.2,0.9,0.6c0,0.4-0.3,0.4-0.3,0.4
			c-0.1,0-0.2-0.1-0.2-0.2c0-0.1,0.1-0.3,0.3-0.3C94.4,76.2,94,76.2,93.8,76.2z"/>
	</g>
	<g>
		<path class="st0" d="M30.4,75.8v-0.6H33v0.6H30.4z"/>
	</g>
	<g>
		<path class="st0" d="M35.7,76.1c-0.1,0.5-0.1,0.5-0.3,1c-0.1,0.4-0.2,0.6-0.5,0.6c-0.1,0-0.3-0.1-0.3-0.3c0-0.1,0-0.1,0.1-0.2
			c0.4-0.9,1-2.1,1.3-3.3h-0.6c-0.2,0-0.8,0-1.3,0.8c-0.1,0.1-0.1,0.1-0.2,0.1c-0.1,0-0.1-0.1-0.1-0.1c0,0,0.3-0.5,0.6-0.9
			c0.4-0.5,0.8-0.5,1-0.5h3.3c0.2,0,0.4,0,0.4,0.2c0,0.3-0.4,0.3-0.5,0.3h-1.1c-0.1,0.5-0.2,1.1-0.2,1.6c0,0.3,0,0.9,0.3,1.6
			c0.1,0.1,0.1,0.2,0.1,0.2c0,0.2-0.2,0.4-0.4,0.4c-0.1,0-0.3-0.1-0.4-0.5C37,76.9,37,76.6,37,76.5c0-0.7,0.1-1.1,0.4-2.6h-1.1
			L35.7,76.1z"/>
		<path class="st0" d="M40.6,79.9c-0.1,0.2-0.1,0.2-0.2,0.2c-0.1,0-0.2-0.1-0.2-0.2c0,0,0,0,0-0.2l3.5-9.5c0-0.1,0.1-0.1,0.2-0.1
			c0.1,0,0.2,0.1,0.2,0.2c0,0,0,0,0,0.2L40.6,79.9z"/>
	</g>
	<g>
		<path class="st0" d="M47.6,76.9c0,0.1,0,0.2,0,0.2c0,0.2,0.1,0.2,0.4,0.2c0.3,0,0.4,0,0.6,0c0.3,0,0.3,0,0.3,0.1
			c0,0.2-0.1,0.2-0.2,0.2c-0.3,0-0.6,0-0.9,0c-0.3,0-0.5,0-0.8,0c-0.3,0-0.6,0-0.8,0c-0.3,0-0.5,0-0.8,0c-0.1,0-0.2,0-0.2-0.1
			c0-0.2,0.1-0.2,0.4-0.2c1.1,0,1.1-0.1,1.2-0.5l1.3-5.3c0,0,0-0.1,0-0.2c0-0.1,0-0.1-0.3-0.1h-0.4c-1.5,0-1.7,0.2-2.3,1.7
			c-0.1,0.2-0.1,0.2-0.2,0.2c-0.1,0-0.1,0-0.1-0.1c0,0,0-0.2,0.1-0.2l0.6-1.8c0.1-0.2,0.1-0.2,0.3-0.2h5.5c0.2,0,0.3,0,0.3,0.1
			c0,0,0,0.1,0,0.2l-0.3,1.7c0,0.1,0,0.2-0.1,0.2c-0.1,0-0.1-0.1-0.1-0.1c0,0,0-0.1,0-0.2c0-0.3,0.1-0.6,0.1-0.8
			c0-0.8-0.4-0.8-1.5-0.8c-0.2,0-0.5,0-0.6,0c-0.1,0-0.2,0.1-0.2,0.4L47.6,76.9z"/>
	</g>
	<g>
		<path class="st0" d="M52.9,76.2c-0.1,0-0.4,0-0.6,0.1c-0.2,0.1-0.3,0.3-0.3,0.4c0,0.2,0.1,0.3,0.4,0.3c0,0,0.2,0,0.3,0.1
			c0.3,0,1,0.2,1,0.8c0,0.3-0.2,1.2-1.5,1.2c-0.7,0-1.1-0.3-1.1-0.7c0-0.3,0.2-0.5,0.4-0.5c0.1,0,0.3,0.1,0.3,0.3
			c0,0.2-0.2,0.4-0.4,0.4c0.2,0.2,0.6,0.3,0.8,0.3c0.1,0,0.4,0,0.7-0.2c0.3-0.2,0.4-0.4,0.4-0.6c0-0.3-0.4-0.4-0.6-0.5
			c-0.5-0.1-0.6-0.1-0.8-0.3c-0.1-0.1-0.2-0.3-0.2-0.5c0-0.2,0.2-1,1.3-1c0.4,0,0.9,0.2,0.9,0.6c0,0.4-0.3,0.4-0.3,0.4
			c-0.1,0-0.2-0.1-0.2-0.2c0-0.1,0.1-0.3,0.3-0.3C53.4,76.2,53.1,76.2,52.9,76.2z"/>
	</g>
	<g>
		<path class="st0" d="M129.7,76c-0.4,0.7-0.8,1.4-1.6,1.4c-0.6,0-1-0.5-1.1-1c-0.4,0.5-0.8,1-1.5,1c-0.8,0-1-0.7-1-1.4
			c0-0.9,0.4-2.1,0.9-2.8c0.1-0.1,0.1-0.2,0.3-0.2c0.1,0,0.2,0.1,0.2,0.2c0,0.1-1,1.2-1,2.4c0,0.6,0.2,1.1,0.9,1.1
			c0.6,0,1-0.4,1.4-0.9c0-0.4,0.1-1,0.2-1.2c0.1-0.1,0.2-0.2,0.3-0.2c0.1,0,0.2,0.1,0.2,0.2c0,0.3-0.2,0.9-0.3,1.2
			c0.1,0.5,0.4,0.9,1,0.9c0.5,0,0.8-0.3,1.1-0.8c0.3-0.5,0.5-1,0.5-1.4c0-0.4-0.2-0.7-0.3-0.8c-0.1-0.1-0.1-0.2-0.1-0.3
			c0-0.2,0.3-0.5,0.5-0.5c0.2,0,0.4,0.2,0.4,0.7C130.3,74.2,129.9,75.5,129.7,76z"/>
	</g>
	<path class="st3" d="M49.6,149.4L63.8,114 M63.8,114L78,149.4 M92.1,149.4l14.2-35.4 M106.3,114l14.2,35.4 M35.4,149.4L21.3,114
		 M21.3,114L7.1,149.4"/>
	<g>
		<path class="st0" d="M74.8,107.6c0.1-0.1,0.2-0.2,0.2-0.4c0-0.3-0.3-0.3-0.4-0.3c-0.1,0-0.1,0-0.1-0.1c0-0.2,0.1-0.2,0.2-0.2
			c0.4,0,0.7,0,1.1,0c0.3,0,0.6,0,0.9,0c0.1,0,0.1,0.1,0.1,0.1c0,0.2-0.1,0.2-0.2,0.2c-0.6,0-1,0.3-1.3,0.5c-0.3,0.3-1.4,1.5-2,2.2
			c0.2,0.6,0.9,2.2,1.3,3.1c0.2,0.4,0.2,0.4,0.9,0.4c0.1,0,0.2,0,0.2,0.1c0,0.2-0.1,0.2-0.2,0.2c-0.2,0-0.9,0-1.1,0
			c-0.3,0-1,0-1.3,0c0,0-0.1,0-0.1-0.1c0-0.2,0.1-0.2,0.2-0.2c0.4,0,0.6-0.2,0.6-0.3c0,0,0,0,0-0.1l-1-2.4l-0.9,1l-1,1.1
			c-0.1,0.1-0.3,0.3-0.3,0.4c0,0.3,0.3,0.3,0.4,0.3c0,0,0.1,0,0.1,0.1c0,0.2-0.1,0.2-0.2,0.2c-0.4,0-0.7,0-1.1,0c-0.3,0-0.6,0-0.9,0
			c-0.1,0-0.1-0.1-0.1-0.1c0-0.2,0.1-0.2,0.2-0.2c0.5,0,1-0.2,1.5-0.7l0.1-0.1l2.1-2.3l-1.2-2.8c-0.1-0.2-0.1-0.3-0.7-0.3
			c-0.1,0-0.2,0-0.2-0.1c0-0.2,0.1-0.2,0.2-0.2c0.2,0,0.9,0,1.1,0c0.4,0,0.8,0,1.3,0c0,0,0.1,0,0.1,0.1c0,0.2-0.1,0.2-0.2,0.2
			c-0.4,0-0.6,0.2-0.6,0.3c0,0,0,0,0,0.1l0.8,2L74.8,107.6z"/>
	</g>
	<g>
		<path class="st0" d="M79,114.2c0,0.2,0,0.3,0.7,0.3h0.3v0.3c-0.2,0-1,0-1.2,0c-0.3,0-1.1,0-1.2,0v-0.3h0.3c0.7,0,0.7-0.1,0.7-0.3
			v-3.6c-0.4,0.2-0.8,0.2-1,0.2v-0.3c0.3,0,0.9,0,1.4-0.4c0.2,0,0.2,0,0.2,0.2V114.2z"/>
	</g>
	<g>
		<path class="st0" d="M84.3,115.9c-0.1,0-1-0.6-1.6-1.9c-0.5-1.1-0.7-2.3-0.7-3.1c0-0.8,0.1-1.9,0.6-3c0.6-1.3,1.5-1.9,1.6-1.9
			c0.1,0,0.1,0,0.1,0.1c0,0,0,0-0.1,0.2c-1.2,1.2-1.6,3-1.6,4.7c0,1.5,0.3,3.4,1.6,4.7C84.4,115.7,84.4,115.7,84.3,115.9
			C84.4,115.8,84.3,115.9,84.3,115.9z"/>
		<path class="st0" d="M86.3,112.6c0.2,0.4,0.6,0.7,1.1,0.7c0.1,0,1,0,1.3-1c0-0.1,0-0.1,0.1-0.1c0,0,0.1,0,0.1,0.1
			c0,0.2-0.4,1.3-1.7,1.3c-1.1,0-2.2-1-2.2-2.3c0-1.2,0.9-2.3,2.1-2.3c1.2,0,1.8,1,1.8,2c0,0.2,0,0.2-0.2,0.2H86
			C86,111.4,86,112.1,86.3,112.6z M88.4,110.9c0-0.4-0.1-1.7-1.1-1.7c-0.3,0-1.2,0.3-1.2,1.7H88.4z"/>
	</g>
	<g>
		<path class="st0" d="M91.4,110.3c0,0.9-0.6,1.5-1.4,1.5c-0.6,0-1.1-0.3-1.1-0.8c0-0.3,0.2-0.5,0.5-0.5c0.3,0,0.5,0.2,0.5,0.5
			c0,0.3-0.2,0.4-0.3,0.4c0.3,0.1,0.5,0.1,0.5,0.1c0.6,0,0.7-0.9,0.7-1.3v-3.9c0-0.5-0.1-0.6-0.9-0.6v-0.3l1.5-0.1V110.3z
			 M90.9,104.2c-0.3,0-0.5-0.2-0.5-0.5s0.2-0.5,0.5-0.5s0.5,0.2,0.5,0.5S91.2,104.2,90.9,104.2z"/>
	</g>
	<g>
		<path class="st0" d="M93.7,109.9c-0.6,0-1-0.7-1-1.5c0-1.6,1.1-3.5,2.2-3.5c0.7,0,1,0.8,1,1.5C95.9,107.9,94.8,109.9,93.7,109.9z
			 M93.5,107.5c-0.1,0.3-0.2,0.8-0.2,1.3c0,0.4,0.1,0.9,0.4,0.9c0.3,0,0.6-0.3,0.8-0.7c0.2-0.3,0.4-0.7,0.6-1.5H93.5z M95.2,107.2
			c0.1-0.6,0.2-1,0.2-1.3c0-0.1,0-0.9-0.4-0.9c-0.4,0-1,0.7-1.4,2.2H95.2z"/>
	</g>
	<g>
		<path class="st0" d="M99.2,113.9c-0.6,1.3-1.5,1.9-1.6,1.9c-0.1,0-0.1,0-0.1-0.1c0,0,0,0,0.1-0.2c1.2-1.3,1.6-3,1.6-4.7
			c0-2.1-0.6-3.7-1.5-4.7c-0.2-0.2-0.2-0.2-0.2-0.2c0-0.1,0-0.1,0.1-0.1c0.1,0,1,0.6,1.6,1.9c0.5,1.1,0.7,2.3,0.7,3.1
			C99.8,111.7,99.7,112.8,99.2,113.9z"/>
	</g>
	<polyline points="123,151.7 127.6,149.4 123,147.2 124.2,149.4 	"/>
	<line class="st3" x1="0" y1="149.4" x2="124.2" y2="149.4"/>
	<polyline points="66,107.9 63.8,103.4 61.5,107.9 63.8,106.8 	"/>
	<line class="st3" x1="63.8" y1="153" x2="63.8" y2="106.8"/>
	<g>
		<path class="st0" d="M65.5,162.4c-0.4,0.9-1.2,1.2-1.7,1.2c-0.5,0-1.2-0.2-1.6-1c-0.4-0.8-0.4-1.7-0.4-2.4c0-0.8,0-1.6,0.4-2.3
			c0.4-0.9,1.1-1.2,1.7-1.2c0.4,0,1.2,0.2,1.7,1.1c0.3,0.7,0.4,1.5,0.4,2.3C65.8,160.9,65.8,161.7,65.5,162.4z M64.9,162.1
			c0.1-0.6,0.1-1.3,0.1-2.1c0-0.6,0-1.4-0.1-1.9c-0.2-1-0.8-1.2-1.2-1.2c-0.2,0-1,0.1-1.2,1.3c-0.1,0.5-0.1,1.2-0.1,1.8
			c0,0.6,0,1.5,0.1,2.1c0.2,1,0.8,1.2,1.2,1.2C64.2,163.3,64.8,163,64.9,162.1z"/>
	</g>
	<line class="st3" x1="42.5" y1="153" x2="42.5" y2="145.9"/>
	<g>
		<path class="st0" d="M38,160.4v-0.6h2.6v0.6H38z"/>
	</g>
	<g>
		<path class="st0" d="M43.3,160.7c-0.1,0.5-0.1,0.5-0.3,1c-0.1,0.4-0.2,0.6-0.5,0.6c-0.1,0-0.3-0.1-0.3-0.3c0-0.1,0-0.1,0.1-0.2
			c0.4-0.9,1-2.1,1.3-3.3H43c-0.2,0-0.8,0-1.3,0.8c-0.1,0.1-0.1,0.1-0.2,0.1c-0.1,0-0.1-0.1-0.1-0.1c0,0,0.3-0.5,0.6-0.9
			c0.4-0.5,0.8-0.5,1-0.5h3.3c0.2,0,0.4,0,0.4,0.2c0,0.3-0.4,0.3-0.5,0.3h-1.1c-0.1,0.5-0.2,1.1-0.2,1.6c0,0.3,0,0.9,0.3,1.6
			c0.1,0.1,0.1,0.2,0.1,0.2c0,0.2-0.2,0.4-0.4,0.4c-0.1,0-0.3-0.1-0.4-0.5c-0.1-0.3-0.1-0.6-0.1-0.8c0-0.7,0.1-1.1,0.4-2.6h-1.1
			L43.3,160.7z"/>
	</g>
	<g>
		<path class="st0" d="M119.6,163.6c-0.9,0-1.2-1.1-1.2-2c0-2.3,1.5-5.1,2.9-5.1c1,0,1.2,1.4,1.2,2
			C122.6,160.8,121,163.6,119.6,163.6z M119.4,160.2c-0.3,1-0.3,1.6-0.3,2c0,0.9,0.2,1.2,0.5,1.2c0.4,0,0.8-0.5,1.2-1.2
			c0.4-0.7,0.6-1.6,0.7-2H119.4z M121.6,159.9c0.2-1,0.3-1.5,0.3-2c0-0.6-0.1-1.2-0.5-1.2c-0.4,0-0.8,0.6-1.1,1
			c-0.4,0.7-0.6,1.5-0.8,2.1H121.6z"/>
	</g>
	<line class="st3" x1="85" y1="153" x2="85" y2="145.9"/>
	<g>
		<path class="st0" d="M84.1,160.7c-0.1,0.5-0.1,0.5-0.3,1c-0.1,0.4-0.2,0.6-0.5,0.6c-0.1,0-0.3-0.1-0.3-0.3c0-0.1,0-0.1,0.1-0.2
			c0.4-0.9,1-2.1,1.3-3.3h-0.6c-0.2,0-0.8,0-1.3,0.8c-0.1,0.1-0.1,0.1-0.2,0.1c-0.1,0-0.1-0.1-0.1-0.1c0,0,0.3-0.5,0.6-0.9
			c0.4-0.5,0.8-0.5,1-0.5h3.3c0.2,0,0.4,0,0.4,0.2c0,0.3-0.4,0.3-0.5,0.3H86c-0.1,0.5-0.2,1.1-0.2,1.6c0,0.3,0,0.9,0.3,1.6
			c0.1,0.1,0.1,0.2,0.1,0.2c0,0.2-0.2,0.4-0.4,0.4c-0.1,0-0.3-0.1-0.4-0.5c-0.1-0.3-0.1-0.6-0.1-0.8c0-0.7,0.1-1.1,0.4-2.6h-1.1
			L84.1,160.7z"/>
	</g>
	<line class="st3" x1="106.3" y1="153" x2="106.3" y2="145.9"/>
	<g>
		<path class="st0" d="M103.9,162.5c0.2,0,0.9,0,0.9-0.1c0.1-0.1,0.2-0.6,0.2-0.9h0.2l-0.3,1.7h-3.7c0-0.2,0-0.3,0.1-0.4l1.9-2.1
			c0.5-0.6,1-1.4,1-2.2c0-0.8-0.4-1.6-1.3-1.6c-0.6,0-1.1,0.4-1.3,1c0,0,0,0,0.1,0c0.3,0,0.5,0.3,0.5,0.5c0,0.4-0.3,0.5-0.5,0.5
			c0,0-0.5,0-0.5-0.6c0-0.9,0.7-1.8,1.9-1.8c1.2,0,2.1,0.8,2.1,1.9c0,1-0.6,1.5-2.2,2.9l-1.1,1H103.9z"/>
	</g>
	<g>
		<path class="st0" d="M108,161.8c-0.1,0.5-0.1,0.5-0.3,1c-0.1,0.4-0.2,0.6-0.5,0.6c-0.1,0-0.3-0.1-0.3-0.3c0-0.1,0-0.1,0.1-0.2
			c0.4-0.9,1-2.1,1.3-3.3h-0.6c-0.2,0-0.8,0-1.3,0.8c-0.1,0.1-0.1,0.1-0.2,0.1c-0.1,0-0.1-0.1-0.1-0.1c0,0,0.3-0.5,0.6-0.9
			c0.4-0.5,0.8-0.5,1-0.5h3.3c0.2,0,0.4,0,0.4,0.2c0,0.3-0.4,0.3-0.5,0.3h-1.1c-0.1,0.5-0.2,1.1-0.2,1.6c0,0.3,0,0.9,0.3,1.6
			c0.1,0.1,0.1,0.2,0.1,0.2c0,0.2-0.2,0.4-0.4,0.4c-0.1,0-0.3-0.1-0.4-0.5c-0.1-0.3-0.1-0.6-0.1-0.8c0-0.7,0.1-1.1,0.4-2.6h-1.1
			L108,161.8z"/>
	</g>
	<line class="st3" x1="21.3" y1="153" x2="21.3" y2="145.9"/>
	<g>
		<path class="st0" d="M13.1,160.7c-0.2,0-0.3,0-0.3-0.2s0.2-0.2,0.3-0.2h5.4c0.2,0,0.3,0,0.3,0.2s-0.2,0.2-0.3,0.2H13.1z"/>
	</g>
	<g>
		<path class="st0" d="M22.8,162.2c0.2,0,0.9,0,0.9-0.1c0.1-0.1,0.2-0.6,0.2-0.9h0.2l-0.3,1.7h-3.7c0-0.2,0-0.3,0.1-0.4l1.9-2.1
			c0.5-0.6,1-1.4,1-2.2c0-0.8-0.4-1.6-1.3-1.6c-0.6,0-1.1,0.4-1.3,1c0,0,0,0,0.1,0c0.3,0,0.5,0.3,0.5,0.5c0,0.4-0.3,0.5-0.5,0.5
			c0,0-0.5,0-0.5-0.6c0-0.9,0.7-1.8,1.9-1.8c1.2,0,2.1,0.8,2.1,1.9c0,1-0.6,1.5-2.2,2.9l-1.1,1H22.8z"/>
	</g>
	<g>
		<path class="st0" d="M26.9,161.4c-0.1,0.5-0.1,0.5-0.3,1c-0.1,0.4-0.2,0.6-0.5,0.6c-0.1,0-0.3-0.1-0.3-0.3c0-0.1,0-0.1,0.1-0.2
			c0.4-0.9,1-2.1,1.3-3.3h-0.6c-0.2,0-0.8,0-1.3,0.8c-0.1,0.1-0.1,0.1-0.2,0.1c-0.1,0-0.1-0.1-0.1-0.1c0,0,0.3-0.5,0.6-0.9
			c0.4-0.5,0.8-0.5,1-0.5H30c0.2,0,0.4,0,0.4,0.2c0,0.3-0.4,0.3-0.5,0.3h-1.1c-0.1,0.5-0.2,1.1-0.2,1.6c0,0.3,0,0.9,0.3,1.6
			c0.1,0.1,0.1,0.2,0.1,0.2c0,0.2-0.2,0.4-0.4,0.4c-0.1,0-0.3-0.1-0.4-0.5c-0.1-0.3-0.1-0.6-0.1-0.8c0-0.7,0.1-1.1,0.4-2.6h-1.1
			L26.9,161.4z"/>
	</g>
	<g>
		<path class="st0" d="M64.8,169.6h-0.2c-0.2-1.4-0.4-1.9-1.9-1.9h-1.2c-0.5,0-0.5,0.1-0.5,0.4v2.5h0.9c1,0,1.1-0.3,1.1-1.2h0.2v2.6
			h-0.2c0-0.8-0.1-1.2-1.1-1.2H61v2.5c0,0.3,0,0.5,0.9,0.5h0.3v0.3c-0.4,0-1.3,0-1.7,0c-0.4,0-1.2,0-1.5,0v-0.3h0.2
			c0.8,0,0.8-0.1,0.8-0.5v-5.2c0-0.4,0-0.5-0.8-0.5h-0.2v-0.3h5.5L64.8,169.6z"/>
		<path class="st0" d="M67.5,173.3c0,0.4,0,0.5,0.8,0.5h0.3v0.3c-0.3,0-1.1,0-1.5,0c-0.4,0-1.2,0-1.5,0v-0.3h0.3
			c0.8,0,0.8-0.1,0.8-0.5v-5.3c0-0.4,0-0.5-0.8-0.5h-0.3v-0.3c0.3,0,1.1,0,1.5,0c0.4,0,1.2,0,1.5,0v0.3h-0.3c-0.8,0-0.8,0.1-0.8,0.5
			V173.3z"/>
	</g>
	<polyline points="47.1,168.4 42.5,170.7 47.1,173 45.9,170.7 	"/>
	<line class="st3" x1="56.7" y1="170.7" x2="45.9" y2="170.7"/>
	<polyline points="80.5,173 85,170.7 80.5,168.4 81.6,170.7 	"/>
	<line class="st3" x1="70.9" y1="170.7" x2="81.6" y2="170.7"/>
	<path class="st6" d="M249.5,147.4c-0.2,4.8-6.7,8.5-14.6,8.2c-7.9-0.3-14.2-4.4-14-9.2s6.7-8.5,14.6-8.2
		C243.4,138.5,249.7,142.6,249.5,147.4L249.5,147.4z M205.6,146.4c-0.2,4.8-6.7,8.5-14.6,8.2c-7.9-0.3-14.2-4.4-14-9.2
		c0.2-4.8,6.7-8.5,14.6-8.2C199.5,137.5,205.8,141.6,205.6,146.4L205.6,146.4z"/>
	<g>
		<path class="st7" d="M238.7,187h1v0.5c-0.3,0-1.2,0-1.6,0c-0.4,0-1.4,0-1.8,0V187h0.9l-0.6-1.5H234l-0.5,1.2c0,0,0,0.1,0,0.1
			c0,0.1,0.9,0.1,0.9,0.1v0.5c-0.4,0-0.9,0-1.3,0c-0.3,0-0.8,0-1.2,0V187h0.2c0.8,0,0.8-0.1,0.8-0.2l2.5-6c0.1-0.2,0.1-0.3,0.4-0.3
			c0.2,0,0.3,0,0.4,0.3L238.7,187z M234.2,185h2.3l-1.1-2.8L234.2,185z"/>
		<path class="st7" d="M242.4,187h0.7v0.5c-0.3,0-0.8,0-1.2,0c-0.4,0-0.9,0-1.2,0V187h0.7v-5.5c0-0.4-0.1-0.4-0.7-0.4v-0.5l1.8-0.1
			V187z"/>
		<path class="st7" d="M245.6,187h0.6v0.5c-0.4,0-0.9,0-1.2,0c-0.4,0-0.9,0-1.2,0V187h0.7v-3.1c0-0.4-0.1-0.4-0.7-0.4V183l1.7-0.1
			V187z M244.9,182.1c-0.4,0-0.8-0.3-0.8-0.8c0-0.4,0.3-0.8,0.8-0.8c0.4,0,0.8,0.3,0.8,0.8S245.3,182.1,244.9,182.1z"/>
		<path class="st7" d="M248.8,187.5c-0.7,0-1.9-0.2-1.9-1.1c0-1.4,2.5-1.5,3.2-1.6v-0.3c0-0.8-0.3-1.2-1.1-1.2c-0.1,0-0.4,0-0.7,0.1
			c0,0,0.2,0.2,0.2,0.5c0,0.4-0.3,0.6-0.6,0.6c-0.3,0-0.6-0.2-0.6-0.6c0-0.9,1.2-0.9,1.8-0.9c1.5,0,2.2,0.6,2.2,1.5v2.1
			c0,0.2,0,0.4,0.6,0.4c0.1,0,0.3,0,0.3,0.2c0,0.2-0.1,0.2-0.3,0.2h-0.5c-1,0-1-0.5-1-0.8C250.1,187.1,249.6,187.5,248.8,187.5z
			 M248,186.3c0,0.4,0.4,0.8,0.9,0.8c0.2,0,1.2-0.1,1.2-1.1v-0.9C249.6,185.1,248,185.3,248,186.3z"/>
		<path class="st7" d="M255.8,185c0.3,0.3,0.5,0.6,0.5,1.1c0,1.5-1.5,1.5-1.8,1.5c-0.2,0-0.7,0-1.2-0.3c0,0-0.2,0.2-0.3,0.2
			c-0.2,0.1-0.2,0.1-0.3,0.1c-0.2,0-0.2-0.1-0.2-0.3v-1.1c0-0.2,0-0.3,0.2-0.3c0.1,0,0.2,0,0.2,0.1c0.1,0.4,0.4,1.2,1.4,1.2
			c0.2,0,1.1,0,1.1-0.7c0-0.6-0.7-0.7-1.1-0.8c-0.8-0.1-1.1-0.2-1.5-0.5c-0.2-0.2-0.4-0.4-0.4-0.8c0-1.3,1.5-1.3,1.8-1.3
			c0.4,0,0.7,0.1,1,0.2c0.4-0.2,0.4-0.2,0.4-0.2c0.2,0,0.2,0.1,0.2,0.3v0.8c0,0.2,0,0.3-0.2,0.3c-0.2,0-0.2,0-0.2-0.2
			c0-0.5-0.4-0.8-1.2-0.8c-0.2,0-1.1,0-1.1,0.6c0,0.5,0.6,0.6,1,0.6C255,184.6,255.4,184.7,255.8,185z"/>
		<path class="st7" d="M259,187h0.6v0.5c-0.4,0-0.9,0-1.2,0c-0.4,0-0.9,0-1.2,0V187h0.7v-3.1c0-0.4-0.1-0.4-0.7-0.4V183l1.7-0.1V187
			z M258.3,182.1c-0.4,0-0.8-0.3-0.8-0.8c0-0.4,0.3-0.8,0.8-0.8c0.4,0,0.8,0.3,0.8,0.8S258.7,182.1,258.3,182.1z"/>
		<path class="st7" d="M260.4,183.5V183l1.7-0.1v1.1c0.3-0.5,0.8-1.1,1.7-1.1c1,0,1.5,0.4,1.5,1.4v2.6h0.7v0.5c-0.3,0-0.9,0-1.3,0
			c-0.4,0-1,0-1.3,0V187h0.7v-2.7c0-0.8-0.2-1-0.5-1c-0.6,0-1.5,0.5-1.5,1.6v2.1h0.7v0.5c-0.3,0-0.9,0-1.3,0c-0.4,0-1,0-1.3,0V187
			h0.7v-3.1C261.1,183.5,261,183.5,260.4,183.5z"/>
		<path class="st7" d="M267.6,186c0,0.2,0.1,0.6,0.5,0.6c0,0,0.5,0,0.8,0c1,0,1.6,0,2.1,0.3c0.7,0.3,0.7,1,0.7,1.3
			c0,0.7-0.8,1.3-2.5,1.3c-2,0-2.5-0.7-2.5-1.3c0-0.6,0.7-0.8,0.9-0.9c-0.4-0.3-0.4-0.8-0.4-1c0-0.2,0.1-0.5,0.3-0.9
			c-0.3-0.2-0.5-0.6-0.5-1c0-0.7,0.5-1.5,2-1.5c0.7,0,1.2,0.2,1.3,0.3c0.4-0.3,0.9-0.4,1.1-0.4c0.5,0,0.6,0.3,0.6,0.6
			c0,0.2-0.2,0.4-0.4,0.4c-0.3,0-0.4-0.2-0.4-0.4c0-0.1,0-0.1,0-0.2c-0.1,0-0.3,0-0.6,0.2c0.1,0.2,0.4,0.5,0.4,1
			c0,0.7-0.5,1.5-2,1.5c-0.2,0-0.8,0-1.2-0.3C267.6,185.7,267.6,185.9,267.6,186z M267.5,188.2c0,0.5,0.5,0.9,1.7,0.9
			c1.3,0,1.7-0.5,1.7-0.9c0-0.6-1.1-0.6-1.4-0.6h-1.2C268.1,187.6,267.5,187.6,267.5,188.2z M269.8,184.4c0-0.4,0-1.1-0.9-1.1
			s-0.9,0.7-0.9,1.1s0,1.1,0.9,1.1S269.8,184.9,269.8,184.4z"/>
	</g>
	<polyline class="st8" points="241.5,159.6 237.4,156.5 237.4,161.6 238.9,159.6 	"/>
	<line class="st9" x1="248" y1="177.8" x2="238.9" y2="159.6"/>
	<polyline class="st8" points="203.5,156.5 198.4,156.5 201.5,160.6 201.5,158 	"/>
	<line class="st10" x1="240.9" y1="177.8" x2="201.5" y2="158"/>
</g>
</svg>
