<?xml version="1.0" encoding="utf-8"?>
<!-- Generator: Adobe Illustrator 22.1.0, SVG Export Plug-In . SVG Version: 6.00 Build 0)  -->
<svg version="1.1" id="Layer_1" xmlns="http://www.w3.org/2000/svg" xmlns:xlink="http://www.w3.org/1999/xlink" x="0px" y="0px"
	 viewBox="0 0 312.4 209.8" style="enable-background:new 0 0 312.4 209.8;" xml:space="preserve">
<style type="text/css">
	.st0{fill:none;stroke:#000000;stroke-width:0.8504;stroke-linecap:round;stroke-miterlimit:10;stroke-dasharray:0,3.7881;}
	.st1{fill:#1D1D1B;}
	.st2{fill:none;stroke:#FF0000;stroke-width:1.4173;stroke-linecap:round;stroke-miterlimit:10;stroke-dasharray:0,4.3142;}
	.st3{fill:none;stroke:#000000;stroke-width:0.8504;stroke-miterlimit:10;}
	.st4{fill:none;stroke:#FF0000;stroke-width:1.4173;stroke-miterlimit:10;}
	.st5{fill:none;stroke:#FA0000;stroke-width:1.4173;stroke-miterlimit:10;}
	.st6{fill:none;stroke:#FF0000;stroke-width:0.8504;stroke-miterlimit:10;}
	.st7{fill:#FF0000;}
	.st8{fill:#FA0000;}
	.st9{fill:none;stroke:#FC0000;stroke-width:0.8504;stroke-miterlimit:10;}
	.st10{fill:none;stroke:#000000;stroke-width:2.2677;stroke-miterlimit:10;stroke-dasharray:4.8756,4.8756;}
	.st11{fill:#0000FF;}
</style>
<g>
	<path class="st0" d="M205.5,147.5V105 M233.9,147.5V105 M248,147.5V105 M262.2,147.5V105"/>
	<g>
		<path class="st1" d="M176.7,124.8c-0.2,0-0.4,0-0.4-0.2c0-0.2,0.2-0.2,0.3-0.2h5.9c-0.5-0.5-1-1.3-1-1.5c0-0.1,0.1-0.1,0.2-0.1
			c0.1,0,0.1,0,0.3,0.2c0.6,1.1,1.6,2,2.9,2.4c0.2,0.1,0.2,0.1,0.2,0.1l0,0c0,0,0,0,0,0.1c0,0,0,0,0,0.1c0,0,0,0-0.2,0.1
			c-0.5,0.1-1.2,0.4-1.9,1c-0.6,0.6-0.9,1.1-1.1,1.5c0,0.1-0.1,0.1-0.2,0.1c-0.1,0-0.2,0-0.2-0.1c0-0.1,0.5-1,1-1.5h-5.9
			c-0.2,0-0.3,0-0.3-0.2s0.2-0.2,0.4-0.2h6.3c0.4-0.3,0.9-0.6,1.3-0.8c-0.3-0.1-0.8-0.4-1.3-0.8H176.7z"/>
	</g>
	<path class="st2" d="M202,133.3c0,0,10.1-14.1,17.7-14.2c6-0.1,8.2,10.8,14.2,10.6c9.3-0.2,11.9-17.2,21.3-17.7
		c4.3-0.2,10.6,7.1,10.6,7.1l0,0"/>
	<polyline points="222,102.5 219.7,97.9 217.4,102.5 219.7,101.3 	"/>
	<line class="st3" x1="219.7" y1="101.3" x2="219.7" y2="151.1"/>
	<polyline points="268.3,149.8 272.8,147.5 268.3,145.3 269.4,147.5 	"/>
	<path class="st3" d="M198.4,147.5h71 M205.5,151.1V144 M233.9,151.1V144 M248,151.1V144 M262.2,151.1V144"/>
	<g>
		<path class="st1" d="M221.4,160.4c-0.4,0.9-1.2,1.2-1.7,1.2c-0.5,0-1.2-0.2-1.6-1c-0.4-0.8-0.4-1.7-0.4-2.4c0-0.8,0-1.6,0.4-2.3
			c0.4-0.9,1.1-1.2,1.7-1.2c0.4,0,1.2,0.2,1.7,1.1c0.3,0.7,0.4,1.5,0.4,2.3C221.8,159,221.7,159.8,221.4,160.4z M220.8,160.1
			c0.1-0.6,0.1-1.3,0.1-2.1c0-0.6,0-1.4-0.1-1.9c-0.2-1-0.8-1.2-1.2-1.2c-0.2,0-1,0.1-1.2,1.3c-0.1,0.5-0.1,1.2-0.1,1.8
			c0,0.6,0,1.5,0.1,2.1c0.2,1,0.8,1.2,1.2,1.2C220.1,161.4,220.7,161.1,220.8,160.1z"/>
	</g>
	<g>
		<path class="st1" d="M228.2,105.9c-0.1,0.4-0.2,0.7-0.2,0.9c0,0.3,0.2,0.7,0.5,0.7c0.3,0,1-0.2,1.3-1.3c0-0.1,0-0.1,0.1-0.1
			c0,0,0.1,0,0.1,0.1c0,0.2-0.6,1.5-1.6,1.5c-0.6,0-1-0.4-1.1-0.8c0,0.1-0.4,0.8-1,0.8c-0.4,0-0.9-0.2-0.9-0.7
			c0-0.3,0.2-0.6,0.5-0.6c0.1,0,0.4,0.1,0.4,0.3c0,0.3-0.2,0.5-0.5,0.5c0.2,0.1,0.4,0.1,0.5,0.1c0.4,0,0.8-0.4,0.9-1
			c0.4-1.4,0.5-2.1,0.5-2.4c0-0.6-0.3-0.7-0.5-0.7c-0.3,0-1,0.2-1.3,1.3c0,0.1,0,0.1-0.1,0.1c0,0-0.1,0-0.1-0.1
			c0-0.2,0.6-1.5,1.6-1.5c0.3,0,0.8,0.1,1.1,0.8c0.1-0.2,0.5-0.8,1-0.8c0.3,0,0.9,0.1,0.9,0.7c0,0.4-0.3,0.6-0.5,0.6
			c-0.3,0-0.4-0.2-0.4-0.3c0-0.2,0.2-0.5,0.5-0.5c-0.2-0.1-0.4-0.1-0.5-0.1c-0.7,0-0.9,0.9-1,1.2L228.2,105.9z"/>
	</g>
	<g>
		<path class="st1" d="M232.1,110v-10h1.4v0.4h-1v9.2h1v0.4H232.1z"/>
	</g>
	<g>
		<path class="st1" d="M235.1,104.6c0.1-0.5,0.2-0.6,0.2-0.8c0-0.3-0.1-0.5-0.3-0.5c-0.4,0-0.6,0.5-0.7,1.2
			c-0.1,0.2-0.1,0.2-0.2,0.2c0,0-0.1,0-0.1-0.1c0,0,0.1-0.6,0.3-1c0.1-0.2,0.3-0.6,0.7-0.6c0.5,0,0.9,0.3,0.9,0.9
			c0.2-0.2,0.7-0.9,1.6-0.9c0.7,0,1.1,0.4,1.1,1.1c0,0.6-0.4,1.7-0.6,2.2c-0.1,0.2-0.2,0.5-0.2,0.7c0,0.2,0.1,0.3,0.2,0.3
			c0.5,0,0.8-0.6,1-1.2c0.1-0.1,0.1-0.2,0.2-0.2c0,0,0.1,0,0.1,0.1c0,0.1-0.4,1.5-1.3,1.5c-0.5,0-0.8-0.3-0.8-0.8
			c0-0.1,0-0.2,0.1-0.5c0.2-0.4,0.6-1.7,0.6-2.3c0-0.3-0.1-0.7-0.5-0.7c-0.9,0-1.5,0.9-1.6,1.2c0,0-0.1,0.3-0.1,0.5
			c0,0.2-0.1,0.4-0.2,0.7l-0.2,0.9c-0.1,0.2-0.2,0.7-0.2,0.7c-0.1,0.2-0.2,0.3-0.4,0.3c-0.1,0-0.3-0.1-0.3-0.3c0,0,0.1-0.3,0.1-0.4
			L235.1,104.6z"/>
	</g>
	<g>
		<path class="st1" d="M241.2,110h-1.4v-0.4h1v-9.2h-1V100h1.4V110z"/>
	</g>
	<g>
		<path class="st1" d="M278.4,146.7c0.1-0.5,0.2-0.6,0.2-0.8c0-0.3-0.1-0.5-0.3-0.5c-0.4,0-0.6,0.5-0.7,1.2
			c-0.1,0.2-0.1,0.2-0.2,0.2c0,0-0.1,0-0.1-0.1c0,0,0.1-0.6,0.3-1c0.1-0.2,0.3-0.6,0.7-0.6c0.5,0,0.9,0.3,0.9,0.9
			c0.2-0.2,0.7-0.9,1.6-0.9c0.7,0,1.1,0.4,1.1,1.1c0,0.6-0.4,1.7-0.6,2.2c-0.1,0.2-0.2,0.5-0.2,0.7c0,0.2,0.1,0.3,0.2,0.3
			c0.5,0,0.8-0.6,1-1.2c0.1-0.1,0.1-0.2,0.2-0.2c0,0,0.1,0,0.1,0.1c0,0.1-0.4,1.5-1.3,1.5c-0.5,0-0.8-0.3-0.8-0.8
			c0-0.1,0-0.2,0.1-0.5c0.2-0.4,0.6-1.7,0.6-2.3c0-0.3-0.1-0.7-0.5-0.7c-0.9,0-1.5,0.9-1.6,1.2c0,0-0.1,0.3-0.1,0.5
			c0,0.2-0.1,0.4-0.2,0.7l-0.2,0.9c-0.1,0.2-0.2,0.7-0.2,0.7c-0.1,0.2-0.2,0.3-0.4,0.3c-0.1,0-0.3-0.1-0.3-0.3c0,0,0.1-0.3,0.1-0.4
			L278.4,146.7z"/>
	</g>
	<g>
		<path class="st1" d="M234.3,160.6c0,0.4,0,0.5,0.9,0.5h0.3v0.3c-0.3,0-1.2,0-1.6,0s-1.3,0-1.6,0v-0.3h0.3c0.9,0,0.9-0.1,0.9-0.5
			v-5.2c-0.5,0.3-1.1,0.3-1.3,0.3v-0.3c0.3,0,1.2,0,1.8-0.6c0.2,0,0.2,0,0.2,0.3V160.6z"/>
		<path class="st1" d="M248.6,160.6c0.2,0,0.9,0,0.9-0.1c0.1-0.1,0.2-0.6,0.2-0.9h0.2l-0.3,1.7H246c0-0.2,0-0.3,0.1-0.4l1.9-2.1
			c0.5-0.6,1-1.4,1-2.2c0-0.8-0.4-1.6-1.3-1.6c-0.6,0-1.1,0.4-1.3,1c0,0,0,0,0.1,0c0.3,0,0.5,0.3,0.5,0.5c0,0.4-0.3,0.5-0.5,0.5
			c0,0-0.5,0-0.5-0.6c0-0.9,0.7-1.8,1.9-1.8c1.2,0,2.1,0.8,2.1,1.9c0,1-0.6,1.5-2.2,2.9l-1.1,1H248.6z"/>
	</g>
	<g>
		<path class="st1" d="M264.4,159.7c0,1-0.9,1.9-2.1,1.9c-1.1,0-2-0.7-2-1.6c0-0.4,0.3-0.6,0.6-0.6c0.3,0,0.6,0.2,0.6,0.6
			c0,0.4-0.3,0.6-0.7,0.5c0.3,0.6,1.1,0.8,1.5,0.8c0.4,0,1.1-0.3,1.1-1.6c0-1-0.4-1.7-1.2-1.7h-0.4c-0.2,0-0.2,0-0.2-0.1
			c0-0.1,0.1-0.1,0.1-0.1c0.1,0,0.3,0,0.4,0c0.2,0,0.6,0,0.9-0.5c0.3-0.4,0.3-1,0.3-1.1c0-0.9-0.5-1.1-1-1.1c-0.4,0-1,0.1-1.3,0.6
			c0.1,0,0.6,0,0.6,0.5c0,0.3-0.2,0.5-0.5,0.5c-0.3,0-0.5-0.2-0.5-0.5c0-0.8,0.8-1.4,1.8-1.4c1,0,1.8,0.6,1.8,1.4
			c0,0.8-0.6,1.5-1.4,1.8C263.7,158.1,264.4,158.9,264.4,159.7z"/>
	</g>
	<g>
		<path class="st1" d="M201.5,159.5v-0.6h2.6v0.6H201.5z"/>
		<path class="st1" d="M207.6,160.6c0,0.4,0,0.5,0.9,0.5h0.3v0.3c-0.3,0-1.2,0-1.6,0s-1.3,0-1.6,0v-0.3h0.3c0.9,0,0.9-0.1,0.9-0.5
			v-5.2c-0.5,0.3-1.1,0.3-1.3,0.3v-0.3c0.3,0,1.2,0,1.8-0.6c0.2,0,0.2,0,0.2,0.3V160.6z"/>
	</g>
	<path class="st4" d="M205.5,147.5v-17.7 M233.9,147.5v-17.7 M248,147.5v-28.3"/>
	<line class="st5" x1="262.2" y1="147.5" x2="262.2" y2="115.6"/>
	<g>
		<path class="st1" d="M262.3,117.3c-1.1,0-1.9-0.9-1.9-1.9c0-1,0.9-1.9,1.9-1.9c1,0,1.9,0.9,1.9,1.9S263.3,117.3,262.3,117.3z"/>
	</g>
	<g>
		<path class="st1" d="M248,120.7c-1.1,0-1.9-0.9-1.9-1.9c0-1,0.9-1.9,1.9-1.9c1,0,1.9,0.9,1.9,1.9S249.1,120.7,248,120.7z"/>
	</g>
	<g>
		<path class="st1" d="M233.9,131.4c-1.1,0-1.9-0.9-1.9-1.9c0-1,0.9-1.9,1.9-1.9c1,0,1.9,0.9,1.9,1.9S234.9,131.4,233.9,131.4z"/>
	</g>
	<g>
		<path class="st1" d="M219.7,120.7c-1.1,0-1.9-0.9-1.9-1.9c0-1,0.9-1.9,1.9-1.9c1,0,1.9,0.9,1.9,1.9S220.7,120.7,219.7,120.7z"/>
	</g>
	<g>
		<path class="st1" d="M205.5,131.4c-1.1,0-1.9-0.9-1.9-1.9c0-1,0.9-1.9,1.9-1.9c1,0,1.9,0.9,1.9,1.9S206.6,131.4,205.5,131.4z"/>
	</g>
	<line class="st4" x1="219.7" y1="147.5" x2="219.7" y2="119.2"/>
	<path class="st6" d="M3.5,133.3c0,0,10.1-14.1,17.7-14.2c6-0.1,8.2,10.8,14.2,10.6c9.3-0.2,11.9-17.2,21.3-17.7
		c4.3-0.2,10.6,7.1,10.6,7.1l0,0"/>
	<polyline points="23.5,102.5 21.3,97.9 19,102.5 21.3,101.3 	"/>
	<line class="st3" x1="21.3" y1="101.3" x2="21.3" y2="151.1"/>
	<polyline points="69.9,149.8 74.4,147.5 69.9,145.3 71,147.5 	"/>
	<path class="st3" d="M0,147.5h71 M7.1,151.1V144 M35.4,151.1V144 M49.6,151.1V144 M63.8,151.1V144"/>
	<g>
		<path class="st1" d="M23.1,160.4c-0.4,0.9-1.2,1.2-1.7,1.2c-0.5,0-1.2-0.2-1.6-1c-0.4-0.8-0.4-1.7-0.4-2.4c0-0.8,0-1.6,0.4-2.3
			c0.4-0.9,1.1-1.2,1.7-1.2c0.4,0,1.2,0.2,1.7,1.1c0.3,0.7,0.4,1.5,0.4,2.3C23.4,159,23.4,159.8,23.1,160.4z M22.5,160.1
			c0.1-0.6,0.1-1.3,0.1-2.1c0-0.6,0-1.4-0.1-1.9c-0.2-1-0.8-1.2-1.2-1.2c-0.2,0-1,0.1-1.2,1.3c-0.1,0.5-0.1,1.2-0.1,1.8
			c0,0.6,0,1.5,0.1,2.1c0.2,1,0.8,1.2,1.2,1.2C21.8,161.4,22.3,161.1,22.5,160.1z"/>
	</g>
	<g>
		<path class="st1" d="M27.5,105.9c-0.1,0.4-0.2,0.7-0.2,0.9c0,0.3,0.2,0.7,0.5,0.7c0.3,0,1-0.2,1.3-1.3c0-0.1,0-0.1,0.1-0.1
			c0,0,0.1,0,0.1,0.1c0,0.2-0.6,1.5-1.6,1.5c-0.6,0-1-0.4-1.1-0.8c0,0.1-0.4,0.8-1,0.8c-0.4,0-0.9-0.2-0.9-0.7
			c0-0.3,0.2-0.6,0.5-0.6c0.1,0,0.4,0.1,0.4,0.3c0,0.3-0.2,0.5-0.5,0.5c0.2,0.1,0.4,0.1,0.5,0.1c0.4,0,0.8-0.4,0.9-1
			c0.4-1.4,0.5-2.1,0.5-2.4c0-0.6-0.3-0.7-0.5-0.7c-0.3,0-1,0.2-1.3,1.3c0,0.1-0.1,0.1-0.1,0.1c0,0-0.1,0-0.1-0.1
			c0-0.2,0.6-1.5,1.6-1.5c0.3,0,0.8,0.1,1.1,0.8c0.1-0.2,0.5-0.8,1-0.8c0.3,0,0.9,0.1,0.9,0.7c0,0.4-0.3,0.6-0.5,0.6
			c-0.3,0-0.4-0.2-0.4-0.3c0-0.2,0.2-0.5,0.5-0.5c-0.2-0.1-0.4-0.1-0.5-0.1c-0.7,0-0.9,0.9-1,1.2L27.5,105.9z"/>
	</g>
	<g>
		<path class="st1" d="M33.4,106c0.1,0,0.2,0.1,0.2,0.2c0,0-0.1,0.4-0.1,0.5l-0.1,0.5c0,0.2-0.1,0.4-0.2,0.6c0,0.2-0.1,0.4-0.1,0.6
			c0,0.2,0,0.3,0.2,0.3c0.3,0,0.4-0.4,0.5-0.7c0-0.2,0.1-0.2,0.2-0.2c0,0,0.1,0,0.1,0.1c0,0-0.1,0.4-0.2,0.7
			c-0.1,0.2-0.3,0.4-0.6,0.4c-0.2,0-0.6-0.1-0.7-0.5c-0.3,0.3-0.6,0.5-1,0.5c-0.6,0-1.1-0.5-1.1-1.2c0-1,0.9-2,1.8-2
			c0.3,0,0.6,0.2,0.7,0.4C33.1,106.1,33.3,106,33.4,106z M32.9,106.8C33,106.7,33,106.7,32.9,106.8c0-0.2-0.1-0.7-0.6-0.7
			c-0.2,0-0.6,0.1-0.9,0.7c-0.2,0.3-0.4,1-0.4,1.4c0,0.5,0.3,0.7,0.5,0.7c0.3,0,0.6-0.2,0.6-0.3c0.2-0.1,0.3-0.3,0.4-0.5L32.9,106.8
			z"/>
	</g>
	<g>
		<path class="st1" d="M38.2,110c-0.1,0-1-0.6-1.6-1.9c-0.5-1.1-0.7-2.3-0.7-3.1c0-0.8,0.1-1.9,0.6-3c0.6-1.3,1.5-1.9,1.6-1.9
			c0.1,0,0.1,0,0.1,0.1c0,0,0,0-0.1,0.2c-1.2,1.2-1.6,3-1.6,4.7c0,1.5,0.3,3.4,1.6,4.7C38.3,109.9,38.3,109.9,38.2,110
			C38.3,110,38.3,110,38.2,110z"/>
	</g>
	<g>
		<path class="st1" d="M40.2,106.5c0,0.2-0.1,0.2-0.1,0.5c0,0.3,0.1,0.5,0.3,0.5c0.3,0,0.9-0.2,1.3-1.3c0-0.1,0.1-0.1,0.1-0.1
			c0,0,0.1,0,0.1,0.1c0,0.1-0.6,1.5-1.6,1.5c-0.5,0-0.9-0.4-0.9-0.9c0-0.2,0-0.3,0.8-3.2h-0.9c-0.2,0-0.3,0-0.3-0.1
			c0-0.2,0.1-0.2,0.3-0.2h0.9l0.4-1.6c0.1-0.3,0.4-0.4,0.4-0.4c0.2,0,0.3,0.1,0.3,0.3c0,0.1,0,0.3-0.4,1.7h0.9c0.2,0,0.3,0,0.3,0.1
			c0,0.2-0.1,0.2-0.3,0.2h-0.9L40.2,106.5z"/>
	</g>
	<g>
		<path class="st1" d="M44.7,108.1c-0.6,1.3-1.5,1.9-1.6,1.9c-0.1,0-0.1,0-0.1-0.1c0,0,0,0,0.1-0.2c1.2-1.3,1.6-3,1.6-4.7
			c0-2.1-0.6-3.7-1.5-4.7c-0.2-0.2-0.2-0.2-0.2-0.2c0-0.1,0-0.1,0.1-0.1c0.1,0,1,0.6,1.6,1.9c0.5,1.1,0.7,2.3,0.7,3.1
			C45.4,105.9,45.2,107,44.7,108.1z"/>
	</g>
	<g>
		<path class="st1" d="M81,149.5c0,0.2-0.1,0.2-0.1,0.5c0,0.3,0.1,0.5,0.3,0.5c0.3,0,0.9-0.2,1.3-1.3c0-0.1,0.1-0.1,0.1-0.1
			c0,0,0.1,0,0.1,0.1c0,0.1-0.6,1.5-1.6,1.5c-0.5,0-0.9-0.4-0.9-0.9c0-0.2,0-0.3,0.8-3.2h-0.9c-0.2,0-0.3,0-0.3-0.1
			c0-0.2,0.1-0.2,0.3-0.2h0.9l0.4-1.6c0.1-0.3,0.4-0.4,0.4-0.4c0.2,0,0.3,0.1,0.3,0.3c0,0.1,0,0.3-0.4,1.7h0.9c0.2,0,0.3,0,0.3,0.1
			c0,0.2-0.1,0.2-0.3,0.2h-0.9L81,149.5z"/>
	</g>
	<g>
		<path class="st1" d="M54.7,163.5c0,0.1,0,0.2,0,0.2c0,0.2,0.1,0.2,0.4,0.2c0.3,0,0.4,0,0.6,0c0.3,0,0.3,0,0.3,0.1
			c0,0.2-0.1,0.2-0.2,0.2c-0.3,0-0.6,0-0.9,0c-0.3,0-0.5,0-0.8,0c-0.3,0-0.6,0-0.8,0c-0.3,0-0.5,0-0.8,0c-0.1,0-0.2,0-0.2-0.1
			c0-0.2,0.1-0.2,0.4-0.2c1.1,0,1.1-0.1,1.2-0.5l1.3-5.3c0,0,0-0.1,0-0.2c0-0.1,0-0.1-0.3-0.1h-0.4c-1.5,0-1.7,0.2-2.3,1.7
			c-0.1,0.2-0.1,0.2-0.2,0.2c-0.1,0-0.1,0-0.1-0.1c0,0,0-0.2,0.1-0.2l0.6-1.8c0.1-0.2,0.1-0.2,0.3-0.2h5.5c0.2,0,0.3,0,0.3,0.1
			c0,0,0,0.1,0,0.2l-0.3,1.7c0,0.1,0,0.2-0.1,0.2c-0.1,0-0.1-0.1-0.1-0.1c0,0,0-0.2,0-0.2c0-0.3,0.1-0.6,0.1-0.8
			c0-0.8-0.4-0.8-1.5-0.8c-0.2,0-0.5,0-0.6,0c-0.1,0-0.2,0.1-0.2,0.4L54.7,163.5z"/>
	</g>
	<g>
		<path class="st1" d="M59.9,162.8c-0.1,0-0.4,0-0.6,0.1c-0.2,0.1-0.3,0.3-0.3,0.4c0,0.2,0.1,0.3,0.4,0.3c0,0,0.2,0,0.3,0.1
			c0.3,0,1,0.2,1,0.8c0,0.3-0.2,1.2-1.5,1.2c-0.7,0-1.1-0.3-1.1-0.7c0-0.3,0.2-0.5,0.4-0.5c0.1,0,0.3,0.1,0.3,0.3
			c0,0.2-0.2,0.4-0.4,0.4c0.2,0.2,0.6,0.3,0.8,0.3c0.1,0,0.4,0,0.7-0.2c0.3-0.2,0.4-0.4,0.4-0.6c0-0.3-0.4-0.4-0.6-0.5
			c-0.5-0.1-0.6-0.1-0.8-0.3c-0.1-0.1-0.2-0.3-0.2-0.5c0-0.2,0.2-1,1.3-1c0.4,0,0.9,0.2,0.9,0.6c0,0.4-0.3,0.4-0.3,0.4
			c-0.1,0-0.2-0.1-0.2-0.2c0-0.1,0.1-0.3,0.3-0.3C60.4,162.9,60.1,162.8,59.9,162.8z"/>
	</g>
	<polyline points="54.1,152.3 49.6,154.6 54.1,156.9 53,154.6 	"/>
	<polyline points="59.2,156.9 63.8,154.6 59.2,152.3 60.4,154.6 	"/>
	<line class="st3" x1="53" y1="154.6" x2="60.4" y2="154.6"/>
	<g>
		<path class="st1" d="M77.5,124.8c-0.2,0-0.4,0-0.4-0.2c0-0.2,0.2-0.2,0.3-0.2h5.9c-0.5-0.5-1-1.3-1-1.5c0-0.1,0.1-0.1,0.2-0.1
			c0.1,0,0.1,0,0.3,0.2c0.6,1.1,1.6,2,2.9,2.4c0.2,0.1,0.2,0.1,0.2,0.1l0,0c0,0,0,0,0,0.1c0,0,0,0,0,0.1c0,0,0,0-0.2,0.1
			c-0.5,0.1-1.2,0.4-1.9,1c-0.6,0.6-0.9,1.1-1.1,1.5c0,0.1-0.1,0.1-0.2,0.1c-0.1,0-0.2,0-0.2-0.1c0-0.1,0.5-1,1-1.5h-5.9
			c-0.2,0-0.3,0-0.3-0.2s0.2-0.2,0.4-0.2h6.3c0.4-0.3,0.9-0.6,1.3-0.8c-0.3-0.1-0.8-0.4-1.3-0.8H77.5z"/>
	</g>
	<path class="st2" d="M102.8,133.3c0,0,10.1-14.1,17.7-14.2c6-0.1,8.2,10.8,14.2,10.6c9.3-0.2,11.9-17.2,21.3-17.7
		c4.3-0.2,10.6,7.1,10.6,7.1l0,0"/>
	<polyline points="122.7,102.5 120.5,97.9 118.2,102.5 120.5,101.3 	"/>
	<line class="st3" x1="120.5" y1="101.3" x2="120.5" y2="151.1"/>
	<polyline points="169.1,149.8 173.6,147.5 169.1,145.3 170.2,147.5 	"/>
	<path class="st3" d="M99.2,147.5h71 M106.3,151.1V144 M134.6,151.1V144 M148.8,151.1V144 M163,151.1V144"/>
	<g>
		<path class="st1" d="M122.2,160.4c-0.4,0.9-1.2,1.2-1.7,1.2c-0.5,0-1.2-0.2-1.6-1c-0.4-0.8-0.4-1.7-0.4-2.4c0-0.8,0-1.6,0.4-2.3
			c0.4-0.9,1.1-1.2,1.7-1.2c0.4,0,1.2,0.2,1.7,1.1c0.3,0.7,0.4,1.5,0.4,2.3C122.5,159,122.5,159.8,122.2,160.4z M121.6,160.1
			c0.1-0.6,0.1-1.3,0.1-2.1c0-0.6,0-1.4-0.1-1.9c-0.2-1-0.8-1.2-1.2-1.2c-0.2,0-1,0.1-1.2,1.3c-0.1,0.5-0.1,1.2-0.1,1.8
			c0,0.6,0,1.5,0.1,2.1c0.2,1,0.8,1.2,1.2,1.2C120.9,161.4,121.5,161.1,121.6,160.1z"/>
	</g>
	<g>
		<path class="st1" d="M127.1,105.9c-0.1,0.4-0.2,0.7-0.2,0.9c0,0.3,0.2,0.7,0.5,0.7c0.3,0,1-0.2,1.3-1.3c0-0.1,0-0.1,0.1-0.1
			c0,0,0.1,0,0.1,0.1c0,0.2-0.6,1.5-1.6,1.5c-0.6,0-1-0.4-1.1-0.8c0,0.1-0.4,0.8-1,0.8c-0.4,0-0.9-0.2-0.9-0.7
			c0-0.3,0.2-0.6,0.5-0.6c0.1,0,0.4,0.1,0.4,0.3c0,0.3-0.2,0.5-0.5,0.5c0.2,0.1,0.4,0.1,0.5,0.1c0.4,0,0.8-0.4,0.9-1
			c0.4-1.4,0.5-2.1,0.5-2.4c0-0.6-0.3-0.7-0.5-0.7c-0.3,0-1,0.2-1.3,1.3c0,0.1-0.1,0.1-0.1,0.1c0,0-0.1,0-0.1-0.1
			c0-0.2,0.6-1.5,1.6-1.5c0.3,0,0.8,0.1,1.1,0.8c0.1-0.2,0.5-0.8,1-0.8c0.3,0,0.9,0.1,0.9,0.7c0,0.4-0.3,0.6-0.5,0.6
			c-0.3,0-0.4-0.2-0.4-0.3c0-0.2,0.2-0.5,0.5-0.5c-0.2-0.1-0.4-0.1-0.5-0.1c-0.7,0-0.9,0.9-1,1.2L127.1,105.9z"/>
	</g>
	<g>
		<path class="st1" d="M132.1,106.1c-0.1,0-0.4,0-0.6,0.1c-0.2,0.1-0.3,0.3-0.3,0.4c0,0.2,0.1,0.3,0.4,0.3c0,0,0.2,0,0.3,0.1
			c0.3,0,1,0.2,1,0.8c0,0.3-0.2,1.2-1.5,1.2c-0.7,0-1.1-0.3-1.1-0.7c0-0.3,0.2-0.5,0.4-0.5c0.1,0,0.3,0.1,0.3,0.3
			c0,0.2-0.2,0.4-0.4,0.4c0.2,0.2,0.6,0.3,0.8,0.3c0.1,0,0.4,0,0.7-0.2c0.3-0.2,0.4-0.4,0.4-0.6c0-0.3-0.4-0.4-0.6-0.5
			c-0.5-0.1-0.6-0.1-0.8-0.3c-0.1-0.1-0.2-0.3-0.2-0.5c0-0.2,0.2-1,1.3-1c0.4,0,0.9,0.2,0.9,0.6c0,0.4-0.3,0.4-0.3,0.4
			c-0.1,0-0.2-0.1-0.2-0.2c0-0.1,0.1-0.3,0.3-0.3C132.6,106.1,132.2,106.1,132.1,106.1z"/>
	</g>
	<g>
		<path class="st1" d="M137.2,110c-0.1,0-1-0.6-1.6-1.9c-0.5-1.1-0.7-2.3-0.7-3.1c0-0.8,0.1-1.9,0.6-3c0.6-1.3,1.5-1.9,1.6-1.9
			c0.1,0,0.1,0,0.1,0.1c0,0,0,0-0.1,0.2c-1.2,1.2-1.6,3-1.6,4.7c0,1.5,0.3,3.4,1.6,4.7C137.3,109.9,137.3,109.9,137.2,110
			C137.3,110,137.3,110,137.2,110z"/>
	</g>
	<g>
		<path class="st1" d="M139.2,106.5c0,0.2-0.1,0.2-0.1,0.5c0,0.3,0.1,0.5,0.3,0.5c0.3,0,0.9-0.2,1.3-1.3c0-0.1,0.1-0.1,0.1-0.1
			c0,0,0.1,0,0.1,0.1c0,0.1-0.6,1.5-1.6,1.5c-0.5,0-0.9-0.4-0.9-0.9c0-0.2,0-0.3,0.8-3.2h-0.9c-0.2,0-0.3,0-0.3-0.1
			c0-0.2,0.1-0.2,0.3-0.2h0.9l0.4-1.6c0.1-0.3,0.4-0.4,0.4-0.4c0.2,0,0.3,0.1,0.3,0.3c0,0.1,0,0.3-0.4,1.7h0.9c0.2,0,0.3,0,0.3,0.1
			c0,0.2-0.1,0.2-0.3,0.2h-0.9L139.2,106.5z"/>
	</g>
	<g>
		<path class="st1" d="M143.7,108.1c-0.6,1.3-1.5,1.9-1.6,1.9c-0.1,0-0.1,0-0.1-0.1c0,0,0,0,0.1-0.2c1.2-1.3,1.6-3,1.6-4.7
			c0-2.1-0.6-3.7-1.5-4.7c-0.2-0.2-0.2-0.2-0.2-0.2c0-0.1,0-0.1,0.1-0.1c0.1,0,1,0.6,1.6,1.9c0.5,1.1,0.7,2.3,0.7,3.1
			C144.4,105.9,144.2,107,143.7,108.1z"/>
	</g>
	<g>
		<path class="st1" d="M180.2,149.5c0,0.2-0.1,0.2-0.1,0.5c0,0.3,0.1,0.5,0.3,0.5c0.3,0,0.9-0.2,1.3-1.3c0-0.1,0.1-0.1,0.1-0.1
			c0,0,0.1,0,0.1,0.1c0,0.1-0.6,1.5-1.6,1.5c-0.5,0-0.9-0.4-0.9-0.9c0-0.2,0-0.3,0.8-3.2h-0.9c-0.2,0-0.3,0-0.3-0.1
			c0-0.2,0.1-0.2,0.3-0.2h0.9l0.4-1.6c0.1-0.3,0.4-0.4,0.4-0.4c0.2,0,0.3,0.1,0.3,0.3c0,0.1,0,0.3-0.4,1.7h0.9c0.2,0,0.3,0,0.3,0.1
			c0,0.2-0.1,0.2-0.3,0.2H181L180.2,149.5z"/>
	</g>
	<polyline class="st7" points="109.1,135.5 106.3,129.8 103.5,135.5 106.3,134.1 	"/>
	<line class="st4" x1="106.3" y1="147.5" x2="106.3" y2="134.1"/>
	<polyline class="st7" points="137.5,135.5 134.6,129.8 131.8,135.5 134.6,134.1 	"/>
	<line class="st4" x1="134.6" y1="147.5" x2="134.6" y2="134.1"/>
	<polyline class="st7" points="151.7,124.8 148.8,119.2 146,124.8 148.8,123.4 	"/>
	<line class="st4" x1="148.8" y1="147.5" x2="148.8" y2="123.4"/>
	<polyline class="st8" points="165.8,121.3 163,115.6 160.2,121.3 163,119.9 	"/>
	<line class="st5" x1="163" y1="147.5" x2="163" y2="119.9"/>
	<polyline class="st7" points="123.3,124.8 120.5,119.2 117.6,124.8 120.5,123.4 	"/>
	<line class="st4" x1="120.5" y1="147.5" x2="120.5" y2="123.4"/>
	<line class="st9" x1="99.2" y1="147.5" x2="170.1" y2="147.5"/>
	<g>
		<path class="st1" d="M153.8,163.5c0,0.1,0,0.2,0,0.2c0,0.2,0.1,0.2,0.4,0.2c0.3,0,0.4,0,0.6,0c0.3,0,0.3,0,0.3,0.1
			c0,0.2-0.1,0.2-0.2,0.2c-0.3,0-0.6,0-0.9,0c-0.3,0-0.5,0-0.8,0c-0.3,0-0.6,0-0.8,0c-0.3,0-0.5,0-0.8,0c-0.1,0-0.2,0-0.2-0.1
			c0-0.2,0.1-0.2,0.4-0.2c1.1,0,1.1-0.1,1.2-0.5l1.3-5.3c0,0,0-0.1,0-0.2c0-0.1,0-0.1-0.3-0.1h-0.4c-1.5,0-1.7,0.2-2.3,1.7
			c-0.1,0.2-0.1,0.2-0.2,0.2c-0.1,0-0.1,0-0.1-0.1c0,0,0-0.2,0.1-0.2l0.6-1.8c0.1-0.2,0.1-0.2,0.3-0.2h5.5c0.2,0,0.3,0,0.3,0.1
			c0,0,0,0.1,0,0.2l-0.3,1.7c0,0.1,0,0.2-0.1,0.2c-0.1,0-0.1-0.1-0.1-0.1c0,0,0-0.2,0-0.2c0-0.3,0.1-0.6,0.1-0.8
			c0-0.8-0.4-0.8-1.5-0.8c-0.2,0-0.5,0-0.6,0c-0.1,0-0.2,0.1-0.2,0.4L153.8,163.5z"/>
	</g>
	<g>
		<path class="st1" d="M159.1,162.8c-0.1,0-0.4,0-0.6,0.1c-0.2,0.1-0.3,0.3-0.3,0.4c0,0.2,0.1,0.3,0.4,0.3c0,0,0.2,0,0.3,0.1
			c0.3,0,1,0.2,1,0.8c0,0.3-0.2,1.2-1.5,1.2c-0.7,0-1.1-0.3-1.1-0.7c0-0.3,0.2-0.5,0.4-0.5c0.1,0,0.3,0.1,0.3,0.3
			c0,0.2-0.2,0.4-0.4,0.4c0.2,0.2,0.6,0.3,0.8,0.3c0.1,0,0.4,0,0.7-0.2c0.3-0.2,0.4-0.4,0.4-0.6c0-0.3-0.4-0.4-0.6-0.5
			c-0.5-0.1-0.6-0.1-0.8-0.3c-0.1-0.1-0.2-0.3-0.2-0.5c0-0.2,0.2-1,1.3-1c0.4,0,0.9,0.2,0.9,0.6c0,0.4-0.3,0.4-0.3,0.4
			c-0.1,0-0.2-0.1-0.2-0.2c0-0.1,0.1-0.3,0.3-0.3C159.6,162.9,159.2,162.8,159.1,162.8z"/>
	</g>
	<polyline points="153.4,152.3 148.8,154.6 153.4,156.9 152.2,154.6 	"/>
	<polyline points="158.5,156.9 163,154.6 158.5,152.3 159.6,154.6 	"/>
	<line class="st3" x1="152.2" y1="154.6" x2="159.6" y2="154.6"/>
	<g>
		<path class="st1" d="M118.4,25c-0.9,0-1.1,0.6-1.1,0.9c0,0.4,0.4,0.5,0.8,0.6c0.4,0.1,0.7,0.1,1,0.4c0.1,0.1,0.3,0.4,0.3,0.7
			c0,0.4-0.4,1.7-2,1.7c-0.9,0-1.4-0.4-1.4-1c0-0.4,0.3-0.7,0.6-0.7c0.2,0,0.4,0.1,0.4,0.3c0,0.3-0.2,0.6-0.6,0.5
			c0.2,0.5,1,0.5,1.1,0.5c1.2,0,1.4-0.8,1.4-1.1c0-0.5-0.5-0.7-1-0.8c-0.3-0.1-1-0.2-1-1c0-0.4,0.4-1.5,1.7-1.5
			c0.8,0,1.2,0.4,1.2,0.9c0,0.4-0.2,0.6-0.5,0.6s-0.3-0.1-0.3-0.3c0-0.2,0.2-0.4,0.5-0.4C119.2,25,118.7,25,118.4,25z"/>
	</g>
	<g>
		<path class="st1" d="M123.4,27.6c0.1,0,0.2,0.1,0.2,0.2c0,0-0.1,0.4-0.1,0.5l-0.1,0.5c0,0.2-0.1,0.4-0.2,0.6
			c0,0.2-0.1,0.4-0.1,0.6c0,0.2,0,0.3,0.2,0.3c0.3,0,0.4-0.4,0.5-0.7c0-0.2,0.1-0.2,0.2-0.2c0,0,0.1,0,0.1,0.1c0,0-0.1,0.4-0.2,0.7
			c-0.1,0.2-0.3,0.4-0.6,0.4c-0.2,0-0.6-0.1-0.7-0.5c-0.3,0.3-0.6,0.5-1,0.5c-0.6,0-1.1-0.5-1.1-1.2c0-1,0.9-2,1.8-2
			c0.3,0,0.6,0.2,0.7,0.4C123.1,27.7,123.3,27.6,123.4,27.6z M122.9,28.4C123,28.4,123,28.3,122.9,28.4c0-0.2-0.1-0.7-0.6-0.7
			c-0.2,0-0.6,0.1-0.9,0.7c-0.2,0.3-0.4,1-0.4,1.4c0,0.5,0.3,0.7,0.5,0.7c0.3,0,0.6-0.2,0.6-0.3c0.2-0.1,0.3-0.3,0.4-0.5L122.9,28.4
			z"/>
	</g>
	<g>
		<path class="st1" d="M128.1,31.6c-0.1,0-1-0.6-1.6-1.9c-0.5-1.1-0.7-2.3-0.7-3.1c0-0.8,0.1-1.9,0.6-3c0.6-1.3,1.5-1.9,1.6-1.9
			c0.1,0,0.1,0,0.1,0.1c0,0,0,0-0.1,0.2c-1.2,1.2-1.6,3-1.6,4.7c0,1.5,0.3,3.4,1.6,4.7C128.2,31.5,128.2,31.5,128.1,31.6
			C128.2,31.6,128.2,31.6,128.1,31.6z"/>
	</g>
	<g>
		<path class="st1" d="M130.1,28.1c0,0.2-0.1,0.2-0.1,0.5c0,0.3,0.1,0.5,0.3,0.5c0.3,0,0.9-0.2,1.3-1.3c0-0.1,0.1-0.1,0.1-0.1
			c0,0,0.1,0,0.1,0.1c0,0.1-0.6,1.5-1.6,1.5c-0.5,0-0.9-0.4-0.9-0.9c0-0.2,0-0.3,0.8-3.2h-0.9c-0.2,0-0.3,0-0.3-0.1
			c0-0.2,0.1-0.2,0.3-0.2h0.9l0.4-1.6c0.1-0.3,0.4-0.4,0.4-0.4c0.2,0,0.3,0.1,0.3,0.3c0,0.1,0,0.3-0.4,1.7h0.9c0.2,0,0.3,0,0.3,0.1
			c0,0.2-0.1,0.2-0.3,0.2h-0.9L130.1,28.1z"/>
	</g>
	<g>
		<path class="st1" d="M134.6,29.7c-0.6,1.3-1.5,1.9-1.6,1.9c-0.1,0-0.1,0-0.1-0.1c0,0,0-0.1,0.1-0.2c1.2-1.3,1.6-3,1.6-4.7
			c0-2.1-0.6-3.7-1.5-4.7c-0.2-0.2-0.2-0.2-0.2-0.2c0-0.1,0-0.1,0.1-0.1c0.1,0,1,0.6,1.6,1.9c0.5,1.1,0.7,2.3,0.7,3.1
			C135.2,27.5,135.1,28.6,134.6,29.7z"/>
		<path class="st1" d="M139.8,25.9c-0.1,0-0.3,0-0.3-0.2s0.2-0.2,0.3-0.2h6c0.1,0,0.3,0,0.3,0.2s-0.2,0.2-0.3,0.2H139.8z
			 M139.8,27.8c-0.1,0-0.3,0-0.3-0.2s0.2-0.2,0.3-0.2h5.9c0.1,0,0.3,0,0.3,0.2s-0.2,0.2-0.3,0.2H139.8z"/>
	</g>
	<g>
		<path class="st1" d="M150.1,21.9c0-0.3,0-0.3,0.3-0.3h8.3l0.9,2.3h-0.2c-0.7-1.9-3-1.9-4.1-1.9h-3.9l3.2,4.4
			c0.1,0.1,0.1,0.1,0.1,0.1c0,0,0,0.1-0.1,0.2l-3.5,4.3h4.2c1.5,0,2.2-0.2,2.3-0.3c0.8-0.3,1.5-0.9,1.8-1.6h0.2l-0.9,2.5h-8.3
			c-0.2,0-0.3,0-0.3-0.1c0,0,0-0.1,0.1-0.2l3.5-4.4L150.1,21.9z"/>
	</g>
	<g>
		<path class="st1" d="M166,21c0.9,0,1.5,0.8,1.5,1.6c0,0.8-0.6,1.6-1.5,1.6c-0.4,0-0.8-0.1-1.3-0.4c-0.3-0.2-0.4-0.3-0.7-0.7
			c-0.3,0.4-0.9,1.2-1.9,1.2c-0.9,0-1.5-0.8-1.5-1.6c0-0.8,0.6-1.6,1.5-1.6c0.4,0,0.8,0.1,1.3,0.4c0.3,0.2,0.4,0.3,0.7,0.7
			C164.4,21.8,165,21,166,21z M162,21.4c-0.6,0-1.2,0.5-1.2,1.2s0.5,1.3,1.2,1.3c0.9,0,1.5-0.7,1.7-1.2
			C163.1,21.9,162.6,21.4,162,21.4z M166.1,23.8c0.6,0,1.2-0.5,1.2-1.2s-0.5-1.3-1.2-1.3c-0.9,0-1.5,0.7-1.7,1.2
			C165,23.3,165.5,23.8,166.1,23.8z"/>
	</g>
	<g>
		<path class="st1" d="M161.2,30.8c0-0.2,0.1-0.4,0.2-0.6s0.1-0.4,0.1-0.6c0-0.2,0-0.3-0.2-0.3c-0.3,0-0.4,0.3-0.5,0.8
			c0,0.2-0.1,0.2-0.2,0.2c0,0-0.1,0-0.1-0.1c0,0,0.1-0.4,0.3-0.7c0.1-0.2,0.3-0.4,0.6-0.4c0.3,0,0.7,0.2,0.7,0.6
			c0.2-0.3,0.6-0.6,1.2-0.6c0.4,0,0.9,0.1,0.9,0.8c0,0.4-0.3,1.1-0.4,1.3c-0.1,0.3-0.2,0.4-0.2,0.6c0,0.1,0,0.2,0.2,0.2
			c0.3,0,0.6-0.3,0.7-0.8c0-0.1,0-0.1,0.1-0.1c0,0,0.1,0,0.1,0.1c0,0.1-0.3,1.1-1,1.1c-0.4,0-0.7-0.2-0.7-0.6c0-0.1,0-0.2,0.1-0.4
			c0.1-0.3,0.4-1.1,0.4-1.5c0-0.1,0-0.5-0.4-0.5c-0.5,0-0.9,0.4-1,0.6c-0.2,0.3-0.2,0.3-0.3,0.6c0,0.2-0.1,0.3-0.1,0.5
			c0,0.2-0.1,0.5-0.2,0.6c0,0.1-0.1,0.4-0.1,0.4c0,0.1-0.1,0.2-0.3,0.2c-0.1,0-0.2-0.1-0.2-0.2c0,0,0-0.2,0.1-0.3L161.2,30.8z"/>
	</g>
	<g>
		<path class="st1" d="M165.8,29.8c-0.1,0-0.3,0-0.3-0.2c0-0.2,0.2-0.2,0.3-0.2h4.6c0.1,0,0.3,0,0.3,0.2c0,0.2-0.2,0.2-0.3,0.2
			H165.8z M165.7,31.3c-0.1,0-0.3,0-0.3-0.2c0-0.2,0.2-0.2,0.3-0.2h4.6c0.1,0,0.3,0,0.3,0.2c0,0.2-0.2,0.2-0.3,0.2H165.7z"/>
	</g>
	<g>
		<path class="st1" d="M172.2,30.6c-0.1,0-0.3,0-0.3-0.2c0-0.2,0.2-0.2,0.3-0.2h4.2c0.1,0,0.3,0,0.3,0.2c0,0.2-0.2,0.2-0.3,0.2
			H172.2z"/>
		<path class="st1" d="M183.3,29.1c0.9,0,1.5,0.8,1.5,1.6c0,0.8-0.6,1.6-1.5,1.6c-0.4,0-0.8-0.1-1.3-0.4c-0.3-0.2-0.4-0.3-0.7-0.7
			c-0.3,0.4-0.9,1.2-1.9,1.2c-0.9,0-1.5-0.8-1.5-1.6c0-0.8,0.6-1.6,1.5-1.6c0.4,0,0.8,0.1,1.3,0.4c0.3,0.2,0.4,0.3,0.7,0.7
			C181.6,29.9,182.3,29.1,183.3,29.1z M179.3,29.4c-0.6,0-1.2,0.5-1.2,1.2s0.5,1.3,1.2,1.3c0.9,0,1.5-0.7,1.7-1.2
			C180.4,30,179.9,29.4,179.3,29.4z M183.4,31.8c0.6,0,1.2-0.5,1.2-1.2s-0.5-1.3-1.2-1.3c-0.9,0-1.5,0.7-1.7,1.2
			C182.3,31.3,182.7,31.8,183.4,31.8z"/>
	</g>
	<g>
		<path class="st1" d="M189.5,23.1c0-0.6,0.4-1,1.1-1c0.2,0,0.3,0,0.8,0.1c0.4,0.1,0.5,0.1,0.5,0.3c0,0.2-0.1,0.4-0.4,0.4
			c-0.1,0-0.3-0.1-0.5-0.2c-0.2-0.1-0.4-0.3-0.7-0.3c-0.3,0-0.5,0.2-0.5,0.5c0,0.4,0.6,1.2,0.9,1.6c0.3,0.4,0.7,0.9,0.7,1.9
			c0,1.4-0.8,2.9-2,2.9c-0.9,0-1.6-0.7-1.6-1.7c0-1.2,1-2.5,2.2-2.8C189.8,24.2,189.5,23.6,189.5,23.1z M188.5,27.9
			c0,0.8,0.4,1.2,1,1.2c0.9,0,1.3-1.7,1.3-2.3c0-0.7-0.3-1.3-0.5-1.7C188.8,25.4,188.5,27.2,188.5,27.9z"/>
	</g>
	<g>
		<path class="st1" d="M195.4,31.6c-0.1,0-1-0.6-1.6-1.9c-0.5-1.1-0.7-2.3-0.7-3.1c0-0.8,0.1-1.9,0.6-3c0.6-1.3,1.5-1.9,1.6-1.9
			c0.1,0,0.1,0,0.1,0.1c0,0,0,0-0.1,0.2c-1.2,1.2-1.6,3-1.6,4.7c0,1.5,0.3,3.4,1.6,4.7C195.5,31.5,195.5,31.5,195.4,31.6
			C195.5,31.6,195.5,31.6,195.4,31.6z"/>
	</g>
	<g>
		<path class="st1" d="M197.4,28.1c0,0.2-0.1,0.2-0.1,0.5c0,0.3,0.1,0.5,0.3,0.5c0.3,0,0.9-0.2,1.3-1.3c0-0.1,0.1-0.1,0.1-0.1
			c0,0,0.1,0,0.1,0.1c0,0.1-0.6,1.5-1.6,1.5c-0.5,0-0.9-0.4-0.9-0.9c0-0.2,0-0.3,0.8-3.2h-0.9c-0.2,0-0.3,0-0.3-0.1
			c0-0.2,0.1-0.2,0.3-0.2h0.9l0.4-1.6c0.1-0.3,0.4-0.4,0.4-0.4c0.2,0,0.3,0.1,0.3,0.3c0,0.1,0,0.3-0.4,1.7h0.9c0.2,0,0.3,0,0.3,0.1
			c0,0.2-0.1,0.2-0.3,0.2h-0.9L197.4,28.1z"/>
	</g>
	<g>
		<path class="st1" d="M203,26.9c-0.2,0-0.3,0-0.3-0.2c0-0.2,0.2-0.2,0.3-0.2h5.4c0.2,0,0.3,0,0.3,0.2c0,0.2-0.2,0.2-0.3,0.2H203z"
			/>
	</g>
	<g>
		<path class="st1" d="M213.4,26.3c0.1-0.5,0.2-0.6,0.2-0.8c0-0.3-0.1-0.5-0.3-0.5c-0.4,0-0.6,0.5-0.7,1.2c-0.1,0.2-0.1,0.2-0.2,0.2
			c0,0-0.1,0-0.1-0.1c0,0,0.1-0.6,0.3-1c0.1-0.2,0.3-0.6,0.7-0.6c0.5,0,0.9,0.3,0.9,0.9c0.2-0.2,0.7-0.9,1.6-0.9
			c0.7,0,1.1,0.4,1.1,1.1c0,0.6-0.4,1.7-0.6,2.2c-0.1,0.2-0.2,0.5-0.2,0.7c0,0.2,0.1,0.3,0.2,0.3c0.5,0,0.8-0.6,1-1.2
			c0.1-0.1,0.1-0.2,0.2-0.2c0,0,0.1,0,0.1,0.1c0,0.1-0.4,1.5-1.3,1.5c-0.5,0-0.8-0.3-0.8-0.8c0-0.1,0-0.2,0.1-0.5
			c0.2-0.4,0.6-1.7,0.6-2.3c0-0.3-0.1-0.7-0.5-0.7c-0.9,0-1.5,0.9-1.6,1.2c0,0-0.1,0.3-0.1,0.5c0,0.2-0.1,0.4-0.2,0.7l-0.2,0.9
			c-0.1,0.2-0.2,0.7-0.2,0.7c-0.1,0.2-0.2,0.3-0.4,0.3c-0.1,0-0.3-0.1-0.3-0.3c0-0.1,0.1-0.3,0.1-0.4L213.4,26.3z"/>
	</g>
	<g>
		<path class="st1" d="M221.5,27.2c-0.3,0-0.5-0.2-0.5-0.5c0-0.3,0.2-0.5,0.5-0.5s0.5,0.2,0.5,0.5C222,26.9,221.8,27.2,221.5,27.2z"
			/>
	</g>
	<g>
		<path class="st1" d="M227.9,28.4c0,0.1,0,0.2,0,0.2c0,0.2,0.1,0.2,0.4,0.2c0.3,0,0.4,0,0.6,0c0.3,0,0.3,0,0.3,0.1
			c0,0.2-0.1,0.2-0.2,0.2c-0.3,0-0.6,0-0.9,0c-0.3,0-0.5,0-0.8,0c-0.3,0-0.6,0-0.8,0c-0.3,0-0.5,0-0.8,0c-0.1,0-0.2,0-0.2-0.1
			c0-0.2,0.1-0.2,0.4-0.2c1.1,0,1.1-0.1,1.2-0.5l1.3-5.3c0,0,0-0.1,0-0.2c0-0.1,0-0.1-0.3-0.1h-0.4c-1.5,0-1.7,0.2-2.3,1.7
			c-0.1,0.2-0.1,0.2-0.2,0.2c-0.1,0-0.1,0-0.1-0.1c0,0,0-0.2,0.1-0.2l0.6-1.8c0.1-0.2,0.1-0.2,0.3-0.2h5.5c0.2,0,0.3,0,0.3,0.1
			c0,0,0,0.1,0,0.2l-0.3,1.7c0,0.1,0,0.2-0.1,0.2c-0.1,0-0.1-0.1-0.1-0.1c0,0,0-0.1,0-0.2c0-0.3,0.1-0.6,0.1-0.8
			c0-0.8-0.4-0.8-1.5-0.8c-0.2,0-0.5,0-0.6,0c-0.1,0-0.2,0.1-0.2,0.4L227.9,28.4z"/>
	</g>
	<g>
		<path class="st1" d="M233.2,27.7c-0.1,0-0.4,0-0.6,0.1c-0.2,0.1-0.3,0.3-0.3,0.4c0,0.2,0.1,0.3,0.4,0.3c0,0,0.2,0,0.3,0.1
			c0.3,0,1,0.2,1,0.8c0,0.3-0.2,1.2-1.5,1.2c-0.7,0-1.1-0.3-1.1-0.7c0-0.3,0.2-0.5,0.4-0.5c0.1,0,0.3,0.1,0.3,0.3
			c0,0.2-0.2,0.4-0.4,0.4c0.2,0.2,0.6,0.3,0.8,0.3c0.1,0,0.4,0,0.7-0.2c0.3-0.2,0.4-0.4,0.4-0.6c0-0.3-0.4-0.4-0.6-0.5
			c-0.5-0.1-0.6-0.1-0.8-0.3c-0.1-0.1-0.2-0.3-0.2-0.5c0-0.2,0.2-1,1.3-1c0.4,0,0.9,0.2,0.9,0.6c0,0.4-0.3,0.4-0.3,0.4
			c-0.1,0-0.2-0.1-0.2-0.2c0-0.1,0.1-0.3,0.3-0.3C233.7,27.7,233.4,27.7,233.2,27.7z"/>
	</g>
	<g>
		<path class="st1" d="M237.3,29.7c-0.6,1.3-1.5,1.9-1.6,1.9c-0.1,0-0.1,0-0.1-0.1c0,0,0-0.1,0.1-0.2c1.2-1.3,1.6-3,1.6-4.7
			c0-2.1-0.6-3.7-1.5-4.7c-0.2-0.2-0.2-0.2-0.2-0.2c0-0.1,0-0.1,0.1-0.1c0.1,0,1,0.6,1.6,1.9c0.5,1.1,0.7,2.3,0.7,3.1
			C238,27.5,237.8,28.6,237.3,29.7z"/>
	</g>
	<polyline class="st7" points="51.9,24.5 49.6,20 47.3,24.5 49.6,23.4 	"/>
	<line class="st6" x1="49.6" y1="34.1" x2="49.6" y2="23.4"/>
	<polyline class="st7" points="66,24.5 63.8,20 61.5,24.5 63.8,23.4 	"/>
	<line class="st6" x1="63.8" y1="34.1" x2="63.8" y2="23.4"/>
	<polyline class="st7" points="80.2,24.5 78,20 75.7,24.5 78,23.4 	"/>
	<line class="st6" x1="78" y1="34.1" x2="78" y2="23.4"/>
	<g>
		<path class="st1" d="M101.1,27.3c-0.3,0-0.5-0.2-0.5-0.5c0-0.3,0.2-0.5,0.5-0.5c0.3,0,0.5,0.2,0.5,0.5
			C101.6,27.1,101.4,27.3,101.1,27.3z"/>
		<path class="st1" d="M105.5,27.3c-0.3,0-0.5-0.2-0.5-0.5c0-0.3,0.2-0.5,0.5-0.5c0.3,0,0.5,0.2,0.5,0.5
			C106.1,27.1,105.8,27.3,105.5,27.3z"/>
		<path class="st1" d="M110,27.3c-0.3,0-0.5-0.2-0.5-0.5c0-0.3,0.2-0.5,0.5-0.5c0.3,0,0.5,0.2,0.5,0.5
			C110.5,27.1,110.3,27.3,110,27.3z"/>
	</g>
	<g>
		<path class="st1" d="M16,27.3c-0.3,0-0.5-0.2-0.5-0.5c0-0.3,0.2-0.5,0.5-0.5c0.3,0,0.5,0.2,0.5,0.5C16.5,27.1,16.3,27.3,16,27.3z"
			/>
		<path class="st1" d="M20.5,27.3c-0.3,0-0.5-0.2-0.5-0.5c0-0.3,0.2-0.5,0.5-0.5c0.3,0,0.5,0.2,0.5,0.5C21,27.1,20.8,27.3,20.5,27.3
			z"/>
		<path class="st1" d="M24.9,27.3c-0.3,0-0.5-0.2-0.5-0.5c0-0.3,0.2-0.5,0.5-0.5c0.3,0,0.5,0.2,0.5,0.5
			C25.4,27.1,25.2,27.3,24.9,27.3z"/>
	</g>
	<polyline points="94.7,36.4 99.2,34.1 94.7,31.9 95.8,34.1 	"/>
	<line class="st3" x1="28.3" y1="34.1" x2="95.8" y2="34.1"/>
	<line class="st6" x1="28.3" y1="34.1" x2="95.7" y2="34.1"/>
	<polyline class="st7" points="94.4,24.5 92.1,20 89.9,24.5 92.1,23.4 	"/>
	<line class="st6" x1="92.1" y1="34.1" x2="92.1" y2="23.4"/>
	<polyline class="st7" points="37.7,24.5 35.4,20 33.2,24.5 35.4,23.4 	"/>
	<line class="st6" x1="35.4" y1="34.1" x2="35.4" y2="23.4"/>
	<g>
		<path class="st1" d="M83,7.6c0,0.1,0,0.2,0,0.2C82.9,8,83,8,83.3,8.1c0.3,0,0.4,0,0.6,0c0.3,0,0.3,0,0.3,0.1
			c0,0.2-0.1,0.2-0.2,0.2c-0.3,0-0.6,0-0.9,0c-0.3,0-0.5,0-0.8,0c-0.3,0-0.6,0-0.8,0c-0.3,0-0.5,0-0.8,0c-0.1,0-0.2,0-0.2-0.1
			c0-0.2,0.1-0.2,0.4-0.2C82,8.1,82,8,82.1,7.6l1.3-5.3c0,0,0-0.1,0-0.2c0-0.1,0-0.1-0.3-0.1h-0.4c-1.5,0-1.7,0.2-2.3,1.7
			c-0.1,0.2-0.1,0.2-0.2,0.2c-0.1,0-0.1,0-0.1-0.1c0,0,0-0.2,0.1-0.2l0.6-1.8C81,1.6,81,1.6,81.3,1.6h5.5c0.2,0,0.3,0,0.3,0.1
			c0,0,0,0.1,0,0.2l-0.3,1.7c0,0.1,0,0.2-0.1,0.2c-0.1,0-0.1-0.1-0.1-0.1c0,0,0-0.1,0-0.2c0-0.3,0.1-0.6,0.1-0.8
			c0-0.8-0.4-0.8-1.5-0.8c-0.2,0-0.5,0-0.6,0c-0.1,0-0.2,0.1-0.2,0.4L83,7.6z"/>
	</g>
	<g>
		<path class="st1" d="M88.3,6.9c-0.1,0-0.4,0-0.6,0.1c-0.2,0.1-0.3,0.3-0.3,0.4c0,0.2,0.1,0.3,0.4,0.3c0,0,0.2,0,0.3,0.1
			c0.3,0,1,0.2,1,0.8c0,0.3-0.2,1.2-1.5,1.2c-0.7,0-1.1-0.3-1.1-0.7c0-0.3,0.2-0.5,0.4-0.5c0.1,0,0.3,0.1,0.3,0.3
			c0,0.2-0.2,0.4-0.4,0.4c0.2,0.2,0.6,0.3,0.8,0.3c0.1,0,0.4,0,0.7-0.2c0.3-0.2,0.4-0.4,0.4-0.6c0-0.3-0.4-0.4-0.6-0.5
			c-0.5-0.1-0.6-0.1-0.8-0.3C87.1,8.2,87,8,87,7.8c0-0.2,0.2-1,1.3-1c0.4,0,0.9,0.2,0.9,0.6c0,0.4-0.3,0.4-0.3,0.4
			c-0.1,0-0.2-0.1-0.2-0.2c0-0.1,0.1-0.3,0.3-0.3C88.8,7,88.4,6.9,88.3,6.9z"/>
	</g>
	<polyline points="82.5,10.6 78,12.9 82.5,15.1 81.4,12.9 	"/>
	<polyline points="87.6,15.1 92.1,12.9 87.6,10.6 88.7,12.9 	"/>
	<line class="st3" x1="81.4" y1="12.9" x2="88.7" y2="12.9"/>
	<polyline points="172.6,71.8 177.2,69.6 172.6,67.3 173.8,69.6 	"/>
	<line class="st3" x1="67.3" y1="69.6" x2="173.8" y2="69.6"/>
	<polyline points="55.7,71.8 60.2,69.6 55.7,67.3 56.8,69.6 	"/>
	<line class="st3" x1="31.9" y1="69.6" x2="56.8" y2="69.6"/>
	<g>
		<path class="st1" d="M9.8,70.3c-0.1,0.4-0.2,0.7-0.2,0.9c0,0.3,0.2,0.7,0.5,0.7c0.3,0,1-0.2,1.3-1.3c0-0.1,0-0.1,0.1-0.1
			c0,0,0.1,0,0.1,0.1c0,0.2-0.6,1.5-1.6,1.5c-0.6,0-1-0.4-1.1-0.8c0,0.1-0.4,0.8-1,0.8c-0.4,0-0.9-0.2-0.9-0.7
			c0-0.3,0.2-0.6,0.5-0.6c0.1,0,0.4,0.1,0.4,0.3c0,0.3-0.2,0.5-0.5,0.5c0.2,0.1,0.4,0.1,0.5,0.1c0.4,0,0.8-0.4,0.9-1
			c0.4-1.4,0.5-2.1,0.5-2.4c0-0.6-0.3-0.7-0.5-0.7c-0.3,0-1,0.2-1.3,1.3c0,0.1-0.1,0.1-0.1,0.1c0,0-0.1,0-0.1-0.1
			c0-0.2,0.6-1.5,1.6-1.5c0.3,0,0.8,0.1,1.1,0.8c0.1-0.2,0.5-0.8,1-0.8c0.3,0,0.9,0.1,0.9,0.7c0,0.4-0.3,0.6-0.5,0.6
			c-0.3,0-0.4-0.2-0.4-0.3c0-0.2,0.2-0.5,0.5-0.5c-0.2-0.1-0.4-0.1-0.5-0.1c-0.7,0-0.9,0.9-1,1.2L9.8,70.3z"/>
	</g>
	<g>
		<path class="st1" d="M15.7,70.5c0.1,0,0.2,0.1,0.2,0.2c0,0-0.1,0.4-0.1,0.5l-0.1,0.5c0,0.2-0.1,0.4-0.2,0.6c0,0.2-0.1,0.4-0.1,0.6
			c0,0.2,0,0.3,0.2,0.3c0.3,0,0.4-0.4,0.5-0.7c0-0.2,0.1-0.2,0.2-0.2c0,0,0.1,0,0.1,0.1c0,0-0.1,0.4-0.2,0.7
			c-0.1,0.2-0.3,0.4-0.6,0.4c-0.2,0-0.6-0.1-0.7-0.5c-0.3,0.3-0.6,0.5-1,0.5c-0.6,0-1.1-0.5-1.1-1.2c0-1,0.9-2,1.8-2
			c0.3,0,0.6,0.2,0.7,0.4C15.5,70.6,15.6,70.5,15.7,70.5z M15.3,71.2C15.3,71.2,15.3,71.2,15.3,71.2c0-0.2-0.1-0.7-0.6-0.7
			c-0.2,0-0.6,0.1-0.9,0.7c-0.2,0.3-0.4,1-0.4,1.4c0,0.5,0.3,0.7,0.5,0.7c0.3,0,0.6-0.2,0.6-0.3c0.2-0.1,0.3-0.3,0.4-0.5L15.3,71.2z
			"/>
	</g>
	<g>
		<path class="st1" d="M20.5,74.5c-0.1,0-1-0.6-1.6-1.9c-0.5-1.1-0.7-2.3-0.7-3.1c0-0.8,0.1-1.9,0.6-3c0.6-1.3,1.5-1.9,1.6-1.9
			c0.1,0,0.1,0,0.1,0.1c0,0,0,0-0.1,0.2c-1.2,1.2-1.6,3-1.6,4.7c0,1.5,0.3,3.4,1.6,4.7C20.6,74.3,20.6,74.3,20.5,74.5
			C20.6,74.4,20.5,74.5,20.5,74.5z"/>
	</g>
	<g>
		<path class="st1" d="M22.4,70.9c0,0.2-0.1,0.2-0.1,0.5c0,0.3,0.1,0.5,0.3,0.5c0.3,0,0.9-0.2,1.3-1.3c0-0.1,0.1-0.1,0.1-0.1
			c0,0,0.1,0,0.1,0.1c0,0.1-0.6,1.5-1.6,1.5c-0.5,0-0.9-0.4-0.9-0.9c0-0.2,0-0.3,0.8-3.2h-0.9c-0.2,0-0.3,0-0.3-0.1
			c0-0.2,0.1-0.2,0.3-0.2h0.9l0.4-1.6c0.1-0.3,0.4-0.4,0.4-0.4c0.2,0,0.3,0.1,0.3,0.3c0,0.1,0,0.3-0.4,1.7h0.9c0.2,0,0.3,0,0.3,0.1
			c0,0.2-0.1,0.2-0.3,0.2h-0.9L22.4,70.9z"/>
	</g>
	<g>
		<path class="st1" d="M27,72.5c-0.6,1.3-1.5,1.9-1.6,1.9c-0.1,0-0.1,0-0.1-0.1c0,0,0-0.1,0.1-0.2c1.2-1.3,1.6-3,1.6-4.7
			c0-2.1-0.6-3.7-1.5-4.7c-0.2-0.2-0.2-0.2-0.2-0.2c0-0.1,0-0.1,0.1-0.1c0.1,0,1,0.6,1.6,1.9c0.5,1.1,0.7,2.3,0.7,3.1
			C27.6,70.3,27.5,71.4,27,72.5z"/>
	</g>
	<g>
		<path class="st1" d="M63.7,72.8c-1.8,0-3.3-1.5-3.3-3.3c0-1.8,1.5-3.3,3.3-3.3c1.8,0,3.3,1.5,3.3,3.3
			C67.1,71.3,65.6,72.8,63.7,72.8z M63.6,69.5l-2.1-2.1c-0.5,0.6-0.8,1.3-0.8,2.1c0,0.6,0.2,1.4,0.8,2.1L63.6,69.5z M63.7,69.7
			l-2.1,2.1c0.8,0.8,1.7,0.8,2.1,0.8c1.3,0,2.1-0.8,2.1-0.8c0,0-0.1-0.1-0.1-0.1L63.7,69.7z M63.8,69.3l2.1-2.1
			c-0.8-0.8-1.7-0.8-2.1-0.8c-1.3,0-2.1,0.8-2.1,0.8c0,0,0.1,0.1,0.1,0.1L63.8,69.3z M63.9,69.5l2.1,2.1c0.5-0.6,0.8-1.3,0.8-2.1
			c0-0.8-0.3-1.6-0.8-2.1L63.9,69.5z"/>
	</g>
	<polyline points="61.5,61.5 63.8,66 66,61.5 63.8,62.6 	"/>
	<line class="st3" x1="63.8" y1="62.6" x2="63.8" y2="44.8"/>
	<g>
		<path class="st1" d="M88.3,59.8c-0.1,0.4-0.2,0.7-0.2,0.9c0,0.3,0.2,0.7,0.5,0.7c0.3,0,1-0.2,1.3-1.3c0-0.1,0-0.1,0.1-0.1
			c0,0,0.1,0,0.1,0.1c0,0.2-0.6,1.5-1.6,1.5c-0.6,0-1-0.4-1.1-0.8c0,0.1-0.4,0.8-1,0.8c-0.4,0-0.9-0.2-0.9-0.7
			c0-0.3,0.2-0.6,0.5-0.6c0.1,0,0.4,0.1,0.4,0.3c0,0.3-0.2,0.5-0.5,0.5c0.2,0.1,0.4,0.1,0.5,0.1c0.4,0,0.8-0.4,0.9-1
			c0.4-1.4,0.5-2.1,0.5-2.4c0-0.6-0.3-0.7-0.5-0.7c-0.3,0-1,0.2-1.3,1.3c0,0.1-0.1,0.1-0.1,0.1c0,0-0.1,0-0.1-0.1
			c0-0.2,0.6-1.5,1.6-1.5c0.3,0,0.8,0.1,1.1,0.8c0.1-0.2,0.5-0.8,1-0.8c0.3,0,0.9,0.1,0.9,0.7c0,0.4-0.3,0.6-0.5,0.6
			c-0.3,0-0.4-0.2-0.4-0.3c0-0.2,0.2-0.5,0.5-0.5c-0.2-0.1-0.4-0.1-0.5-0.1c-0.7,0-0.9,0.9-1,1.2L88.3,59.8z"/>
	</g>
	<g>
		<path class="st1" d="M93.3,60c-0.1,0-0.4,0-0.6,0.1c-0.2,0.1-0.3,0.3-0.3,0.4c0,0.2,0.1,0.3,0.4,0.3c0,0,0.2,0,0.3,0.1
			c0.3,0,1,0.2,1,0.8c0,0.3-0.2,1.2-1.5,1.2c-0.7,0-1.1-0.3-1.1-0.7c0-0.3,0.2-0.5,0.4-0.5c0.1,0,0.3,0.1,0.3,0.3
			c0,0.2-0.2,0.4-0.4,0.4c0.2,0.2,0.6,0.3,0.8,0.3c0.1,0,0.4,0,0.7-0.2c0.3-0.2,0.4-0.4,0.4-0.6c0-0.3-0.4-0.4-0.6-0.5
			c-0.5-0.1-0.6-0.1-0.8-0.3c-0.1-0.1-0.2-0.3-0.2-0.5c0-0.2,0.2-1,1.3-1c0.4,0,0.9,0.2,0.9,0.6c0,0.4-0.3,0.4-0.3,0.4
			c-0.1,0-0.2-0.1-0.2-0.2c0-0.1,0.1-0.3,0.3-0.3C93.8,60,93.5,60,93.3,60z"/>
	</g>
	<g>
		<path class="st1" d="M98.5,63.9c-0.1,0-1-0.6-1.6-1.9c-0.5-1.1-0.7-2.3-0.7-3.1c0-0.8,0.1-1.9,0.6-3c0.6-1.3,1.5-1.9,1.6-1.9
			c0.1,0,0.1,0,0.1,0.1c0,0,0,0-0.1,0.2c-1.2,1.2-1.6,3-1.6,4.7c0,1.5,0.3,3.4,1.6,4.7C98.6,63.8,98.6,63.8,98.5,63.9
			C98.6,63.9,98.5,63.9,98.5,63.9z"/>
	</g>
	<g>
		<path class="st1" d="M100.4,60.4c0,0.2-0.1,0.2-0.1,0.5c0,0.3,0.1,0.5,0.3,0.5c0.3,0,0.9-0.2,1.3-1.3c0-0.1,0.1-0.1,0.1-0.1
			c0,0,0.1,0,0.1,0.1c0,0.1-0.6,1.5-1.6,1.5c-0.5,0-0.9-0.4-0.9-0.9c0-0.2,0-0.3,0.8-3.2h-0.9c-0.2,0-0.3,0-0.3-0.1
			c0-0.2,0.1-0.2,0.3-0.2h0.9l0.4-1.6c0.1-0.3,0.4-0.4,0.4-0.4c0.2,0,0.3,0.1,0.3,0.3c0,0.1,0,0.3-0.4,1.7h0.9c0.2,0,0.3,0,0.3,0.1
			c0,0.2-0.1,0.2-0.3,0.2h-0.9L100.4,60.4z"/>
	</g>
	<g>
		<path class="st1" d="M105,62c-0.6,1.3-1.5,1.9-1.6,1.9c-0.1,0-0.1,0-0.1-0.1c0,0,0-0.1,0.1-0.2c1.2-1.3,1.6-3,1.6-4.7
			c0-2.1-0.6-3.7-1.5-4.7c-0.2-0.2-0.2-0.2-0.2-0.2c0-0.1,0-0.1,0.1-0.1c0.1,0,1,0.6,1.6,1.9c0.5,1.1,0.7,2.3,0.7,3.1
			C105.6,59.8,105.5,60.9,105,62z"/>
		<path class="st1" d="M110.3,58.2c-0.1,0-0.3,0-0.3-0.2s0.2-0.2,0.3-0.2h6c0.1,0,0.3,0,0.3,0.2s-0.2,0.2-0.3,0.2H110.3z
			 M110.3,60.1c-0.1,0-0.3,0-0.3-0.2s0.2-0.2,0.3-0.2h5.9c0.1,0,0.3,0,0.3,0.2s-0.2,0.2-0.3,0.2H110.3z"/>
	</g>
	<g>
		<path class="st1" d="M122.9,59.8c-0.1,0.4-0.2,0.7-0.2,0.9c0,0.3,0.2,0.7,0.5,0.7c0.3,0,1-0.2,1.3-1.3c0-0.1,0-0.1,0.1-0.1
			c0,0,0.1,0,0.1,0.1c0,0.2-0.6,1.5-1.6,1.5c-0.6,0-1-0.4-1.1-0.8c0,0.1-0.4,0.8-1,0.8c-0.4,0-0.9-0.2-0.9-0.7
			c0-0.3,0.2-0.6,0.5-0.6c0.1,0,0.4,0.1,0.4,0.3c0,0.3-0.2,0.5-0.5,0.5c0.2,0.1,0.4,0.1,0.5,0.1c0.4,0,0.8-0.4,0.9-1
			c0.4-1.4,0.5-2.1,0.5-2.4c0-0.6-0.3-0.7-0.5-0.7c-0.3,0-1,0.2-1.3,1.3c0,0.1-0.1,0.1-0.1,0.1c0,0-0.1,0-0.1-0.1
			c0-0.2,0.6-1.5,1.6-1.5c0.3,0,0.8,0.1,1.1,0.8c0.1-0.2,0.5-0.8,1-0.8c0.3,0,0.9,0.1,0.9,0.7c0,0.4-0.3,0.6-0.5,0.6
			c-0.3,0-0.4-0.2-0.4-0.3c0-0.2,0.2-0.5,0.5-0.5c-0.2-0.1-0.4-0.1-0.5-0.1c-0.7,0-0.9,0.9-1,1.2L122.9,59.8z"/>
	</g>
	<g>
		<path class="st1" d="M128.8,59.9c0.1,0,0.2,0.1,0.2,0.2c0,0-0.1,0.4-0.1,0.5l-0.1,0.5c0,0.2-0.1,0.4-0.2,0.6
			c0,0.2-0.1,0.4-0.1,0.6c0,0.2,0,0.3,0.2,0.3c0.3,0,0.4-0.4,0.5-0.7c0-0.2,0.1-0.2,0.2-0.2c0,0,0.1,0,0.1,0.1c0,0-0.1,0.4-0.2,0.7
			c-0.1,0.2-0.3,0.4-0.6,0.4c-0.2,0-0.6-0.1-0.7-0.5c-0.3,0.3-0.6,0.5-1,0.5c-0.6,0-1.1-0.5-1.1-1.2c0-1,0.9-2,1.8-2
			c0.3,0,0.6,0.2,0.7,0.4C128.5,60,128.7,59.9,128.8,59.9z M128.3,60.7C128.3,60.7,128.4,60.6,128.3,60.7c0-0.2-0.1-0.7-0.6-0.7
			c-0.2,0-0.6,0.1-0.9,0.7c-0.2,0.3-0.4,1-0.4,1.4c0,0.5,0.3,0.7,0.5,0.7c0.3,0,0.6-0.2,0.6-0.3c0.2-0.1,0.3-0.3,0.4-0.5L128.3,60.7
			z"/>
	</g>
	<g>
		<path class="st1" d="M133.6,63.9c-0.1,0-1-0.6-1.6-1.9c-0.5-1.1-0.7-2.3-0.7-3.1c0-0.8,0.1-1.9,0.6-3c0.6-1.3,1.5-1.9,1.6-1.9
			c0.1,0,0.1,0,0.1,0.1c0,0,0,0-0.1,0.2c-1.2,1.2-1.6,3-1.6,4.7c0,1.5,0.3,3.4,1.6,4.7C133.7,63.8,133.7,63.8,133.6,63.9
			C133.7,63.9,133.7,63.9,133.6,63.9z"/>
	</g>
	<g>
		<path class="st1" d="M135.6,60.4c0,0.2-0.1,0.2-0.1,0.5c0,0.3,0.1,0.5,0.3,0.5c0.3,0,0.9-0.2,1.3-1.3c0-0.1,0.1-0.1,0.1-0.1
			c0,0,0.1,0,0.1,0.1c0,0.1-0.6,1.5-1.6,1.5c-0.5,0-0.9-0.4-0.9-0.9c0-0.2,0-0.3,0.8-3.2h-0.9c-0.2,0-0.3,0-0.3-0.1
			c0-0.2,0.1-0.2,0.3-0.2h0.9l0.4-1.6c0.1-0.3,0.4-0.4,0.4-0.4c0.2,0,0.3,0.1,0.3,0.3c0,0.1,0,0.3-0.4,1.7h0.9c0.2,0,0.3,0,0.3,0.1
			c0,0.2-0.1,0.2-0.3,0.2h-0.9L135.6,60.4z"/>
	</g>
	<g>
		<path class="st1" d="M140.1,62c-0.6,1.3-1.5,1.9-1.6,1.9c-0.1,0-0.1,0-0.1-0.1c0,0,0-0.1,0.1-0.2c1.2-1.3,1.6-3,1.6-4.7
			c0-2.1-0.6-3.7-1.5-4.7c-0.2-0.2-0.2-0.2-0.2-0.2c0-0.1,0-0.1,0.1-0.1c0.1,0,1,0.6,1.6,1.9c0.5,1.1,0.7,2.3,0.7,3.1
			C140.8,59.8,140.6,60.9,140.1,62z"/>
	</g>
	<g>
		<path class="st1" d="M145.4,59.5c-0.3,0-0.5-0.2-0.5-0.5c0-0.3,0.2-0.5,0.5-0.5c0.3,0,0.5,0.2,0.5,0.5
			C145.9,59.2,145.7,59.5,145.4,59.5z"/>
	</g>
	<g>
		<path class="st1" d="M152,57.2c-0.9,0-1.1,0.6-1.1,0.9c0,0.4,0.4,0.5,0.8,0.6c0.4,0.1,0.7,0.1,1,0.4c0.1,0.1,0.3,0.4,0.3,0.7
			c0,0.4-0.4,1.7-2,1.7c-0.9,0-1.4-0.4-1.4-1c0-0.4,0.3-0.7,0.6-0.7c0.2,0,0.4,0.1,0.4,0.3c0,0.3-0.2,0.6-0.6,0.5
			c0.2,0.5,1,0.5,1.1,0.5c1.2,0,1.4-0.8,1.4-1.1c0-0.5-0.5-0.7-1-0.8c-0.3-0.1-1-0.2-1-1c0-0.4,0.4-1.5,1.7-1.5
			c0.8,0,1.2,0.4,1.2,0.9c0,0.4-0.2,0.6-0.5,0.6s-0.3-0.1-0.3-0.3c0-0.2,0.2-0.4,0.5-0.4C152.8,57.3,152.3,57.2,152,57.2z"/>
	</g>
	<g>
		<path class="st1" d="M157,59.9c0.1,0,0.2,0.1,0.2,0.2c0,0-0.1,0.4-0.1,0.5l-0.1,0.5c0,0.2-0.1,0.4-0.2,0.6c0,0.2-0.1,0.4-0.1,0.6
			c0,0.2,0,0.3,0.2,0.3c0.3,0,0.4-0.4,0.5-0.7c0-0.2,0.1-0.2,0.2-0.2c0,0,0.1,0,0.1,0.1c0,0-0.1,0.4-0.2,0.7
			c-0.1,0.2-0.3,0.4-0.6,0.4c-0.2,0-0.6-0.1-0.7-0.5c-0.3,0.3-0.6,0.5-1,0.5c-0.6,0-1.1-0.5-1.1-1.2c0-1,0.9-2,1.8-2
			c0.3,0,0.6,0.2,0.7,0.4C156.7,60,156.9,59.9,157,59.9z M156.5,60.7C156.6,60.7,156.6,60.6,156.5,60.7c0-0.2-0.1-0.7-0.6-0.7
			c-0.2,0-0.6,0.1-0.9,0.7c-0.2,0.3-0.4,1-0.4,1.4c0,0.5,0.3,0.7,0.5,0.7c0.3,0,0.6-0.2,0.6-0.3c0.2-0.1,0.3-0.3,0.4-0.5L156.5,60.7
			z"/>
	</g>
	<g>
		<path class="st1" d="M161.7,63.9c-0.1,0-1-0.6-1.6-1.9c-0.5-1.1-0.7-2.3-0.7-3.1c0-0.8,0.1-1.9,0.6-3c0.6-1.3,1.5-1.9,1.6-1.9
			c0.1,0,0.1,0,0.1,0.1c0,0,0,0-0.1,0.2c-1.2,1.2-1.6,3-1.6,4.7c0,1.5,0.3,3.4,1.6,4.7C161.8,63.8,161.8,63.8,161.7,63.9
			C161.8,63.9,161.8,63.9,161.7,63.9z"/>
	</g>
	<g>
		<path class="st1" d="M163.7,60.4c0,0.2-0.1,0.2-0.1,0.5c0,0.3,0.1,0.5,0.3,0.5c0.3,0,0.9-0.2,1.3-1.3c0-0.1,0.1-0.1,0.1-0.1
			c0,0,0.1,0,0.1,0.1c0,0.1-0.6,1.5-1.6,1.5c-0.5,0-0.9-0.4-0.9-0.9c0-0.2,0-0.3,0.8-3.2h-0.9c-0.2,0-0.3,0-0.3-0.1
			c0-0.2,0.1-0.2,0.3-0.2h0.9l0.4-1.6c0.1-0.3,0.4-0.4,0.4-0.4c0.2,0,0.3,0.1,0.3,0.3c0,0.1,0,0.3-0.4,1.7h0.9c0.2,0,0.3,0,0.3,0.1
			c0,0.2-0.1,0.2-0.3,0.2h-0.9L163.7,60.4z"/>
	</g>
	<g>
		<path class="st1" d="M168.2,62c-0.6,1.3-1.5,1.9-1.6,1.9c-0.1,0-0.1,0-0.1-0.1c0,0,0-0.1,0.1-0.2c1.2-1.3,1.6-3,1.6-4.7
			c0-2.1-0.6-3.7-1.5-4.7c-0.2-0.2-0.2-0.2-0.2-0.2c0-0.1,0-0.1,0.1-0.1c0.1,0,1,0.6,1.6,1.9c0.5,1.1,0.7,2.3,0.7,3.1
			C168.8,59.8,168.7,60.9,168.2,62z"/>
	</g>
	<polygon class="st3" points="177.2,69.6 177.2,48.3 233.9,48.3 233.9,90.8 177.2,90.8 	"/>
	<g>
		<path class="st1" d="M192.2,61.9c0.4,0,1-0.1,1.3-1c0-0.1,0-0.1,0.1-0.1c0,0,0.1,0,0.1,0.1s-0.3,1.3-1.7,1.3c-1.2,0-2.1-1-2.1-2.3
			c0-1.2,0.9-2.3,2.2-2.3c0.8,0,1.5,0.4,1.5,1.1c0,0.3-0.2,0.5-0.5,0.5c-0.3,0-0.5-0.2-0.5-0.5c0-0.1,0.1-0.4,0.5-0.5
			c-0.3-0.4-1-0.4-1.1-0.4c-0.5,0-1.3,0.4-1.3,2C190.8,61.4,191.6,61.9,192.2,61.9z"/>
		<path class="st1" d="M196.5,62.1c-1.2,0-2.2-1-2.2-2.2c0-1.2,1-2.3,2.2-2.3c1.2,0,2.2,1.1,2.2,2.3
			C198.7,61.1,197.7,62.1,196.5,62.1z M197.7,61.1c0.2-0.4,0.2-1,0.2-1.3c0-0.4,0-1-0.3-1.4c-0.3-0.4-0.7-0.6-1.1-0.6
			c-0.4,0-0.9,0.2-1.1,0.7c-0.2,0.4-0.2,1-0.2,1.4c0,0.4,0,1,0.2,1.4c0.3,0.5,0.7,0.7,1.1,0.7C197,61.9,197.5,61.6,197.7,61.1z"/>
	</g>
	<g>
		<path class="st1" d="M199.4,58v-0.3l1.4-0.1v1c0.3-0.6,0.7-1,1.5-1c0.6,0,0.9,0.2,1,0.4c0.3,0.4,0.3,0.7,0.3,1.5v1.9
			c0,0.3,0.3,0.3,0.8,0.3V62c-0.3,0-0.9,0-1.1,0c-0.3,0-0.8,0-1.1,0v-0.3c0.7,0,0.8,0,0.8-0.4v-2.3c0-0.6-0.1-1.1-0.7-1.1
			c-0.6,0-1.3,0.6-1.3,1.6v1.8c0,0.4,0.1,0.4,0.8,0.4V62c-0.3,0-0.9,0-1.1,0c-0.3,0-0.8,0-1.1,0v-0.3c0.7,0,0.8,0,0.8-0.4v-2.7
			C200.2,58.1,200.1,58,199.4,58z"/>
		<path class="st1" d="M207.2,61.9c0,0.1-0.1,0.2-0.2,0.2c-0.1,0-0.1,0-0.2-0.2l-1.4-3.5c-0.1-0.3-0.2-0.4-0.8-0.4v-0.3
			c0.3,0,0.7,0,1,0c0.2,0,0.8,0,1.1,0V58c-0.2,0-0.6,0-0.6,0.3c0,0,0,0,0.1,0.2l1.1,2.8l1-2.5c0-0.1,0.1-0.1,0.1-0.2
			c0-0.2-0.1-0.4-0.5-0.4v-0.3c0.2,0,0.6,0,0.9,0c0.2,0,0.5,0,0.7,0V58c-0.7,0-0.8,0.4-0.9,0.7L207.2,61.9z"/>
	</g>
	<g>
		<path class="st1" d="M210.8,61.2c0.2,0.4,0.6,0.7,1.1,0.7c0.1,0,1,0,1.3-1c0-0.1,0-0.1,0.1-0.1c0,0,0.1,0,0.1,0.1
			c0,0.2-0.4,1.3-1.7,1.3c-1.1,0-2.2-1-2.2-2.3c0-1.2,0.9-2.3,2.1-2.3c1.2,0,1.8,1,1.8,2c0,0.2,0,0.2-0.2,0.2h-2.8
			C210.5,60.1,210.5,60.7,210.8,61.2z M212.9,59.5c0-0.4-0.1-1.7-1.1-1.7c-0.3,0-1.2,0.2-1.2,1.7H212.9z"/>
		<path class="st1" d="M216.7,57.6c0.4,0,0.7,0.3,0.7,0.6s-0.2,0.4-0.4,0.4c-0.2,0-0.4-0.1-0.4-0.4c0-0.3,0.2-0.4,0.2-0.4
			c0,0,0,0-0.1,0c-0.8,0-1.2,0.9-1.2,1.9v1.5c0,0.4,0,0.5,0.8,0.5h0.2V62c-0.4,0-0.9,0-1.3,0c-0.3,0-0.7,0-1.1,0v-0.3
			c0.7,0,0.8,0,0.8-0.4v-2.7c0-0.5-0.1-0.6-0.8-0.6v-0.3l1.4-0.1v1.1C215.6,58.3,216,57.6,216.7,57.6z"/>
	</g>
	<g>
		<path class="st1" d="M219.5,60.8c0,0.2,0,1.1,0.7,1.1c0.4,0,0.7-0.4,0.7-1.1v-0.5h0.2v0.6c0,0.6-0.3,1.3-1,1.3
			c-0.4,0-1.3-0.1-1.3-1.3V58H218v-0.2c1,0,1.3-1.1,1.3-1.9h0.2v1.8h1.4V58h-1.4V60.8z"/>
	</g>
	<polyline points="257.7,71.8 262.2,69.6 257.7,67.3 258.8,69.6 	"/>
	<line class="st3" x1="233.9" y1="69.6" x2="258.8" y2="69.6"/>
	<g>
		<path class="st1" d="M243.4,59.8c-0.1,0.4-0.2,0.7-0.2,0.9c0,0.3,0.2,0.7,0.5,0.7c0.3,0,1-0.2,1.3-1.3c0-0.1,0-0.1,0.1-0.1
			c0,0,0.1,0,0.1,0.1c0,0.2-0.6,1.5-1.6,1.5c-0.6,0-1-0.4-1.1-0.8c0,0.1-0.4,0.8-1,0.8c-0.4,0-0.9-0.2-0.9-0.7
			c0-0.3,0.2-0.6,0.5-0.6c0.1,0,0.4,0.1,0.4,0.3c0,0.3-0.2,0.5-0.5,0.5c0.2,0.1,0.4,0.1,0.5,0.1c0.4,0,0.8-0.4,0.9-1
			c0.4-1.4,0.5-2.1,0.5-2.4c0-0.6-0.3-0.7-0.5-0.7c-0.3,0-1,0.2-1.3,1.3c0,0.1,0,0.1-0.1,0.1c0,0-0.1,0-0.1-0.1
			c0-0.2,0.6-1.5,1.6-1.5c0.3,0,0.8,0.1,1.1,0.8c0.1-0.2,0.5-0.8,1-0.8c0.3,0,0.9,0.1,0.9,0.7c0,0.4-0.3,0.6-0.5,0.6
			c-0.3,0-0.4-0.2-0.4-0.3c0-0.2,0.2-0.5,0.5-0.5c-0.2-0.1-0.4-0.1-0.5-0.1c-0.7,0-0.9,0.9-1,1.2L243.4,59.8z"/>
	</g>
	<g>
		<path class="st1" d="M247.2,63.9v-10h1.4v0.4h-1v9.2h1v0.4H247.2z"/>
	</g>
	<g>
		<path class="st1" d="M250.2,58.5c0.1-0.5,0.2-0.6,0.2-0.8c0-0.3-0.1-0.5-0.3-0.5c-0.4,0-0.6,0.5-0.7,1.2c-0.1,0.2-0.1,0.2-0.2,0.2
			c0,0-0.1,0-0.1-0.1c0,0,0.1-0.6,0.3-1c0.1-0.2,0.3-0.6,0.7-0.6c0.5,0,0.9,0.3,0.9,0.9c0.2-0.2,0.7-0.9,1.6-0.9
			c0.7,0,1.1,0.4,1.1,1.1c0,0.6-0.4,1.7-0.6,2.2c-0.1,0.2-0.2,0.5-0.2,0.7c0,0.2,0.1,0.3,0.2,0.3c0.5,0,0.8-0.6,1-1.2
			c0.1-0.1,0.1-0.2,0.2-0.2c0,0,0.1,0,0.1,0.1c0,0.1-0.4,1.5-1.3,1.5c-0.5,0-0.8-0.3-0.8-0.8c0-0.1,0-0.2,0.1-0.5
			c0.2-0.4,0.6-1.7,0.6-2.3c0-0.3-0.1-0.7-0.5-0.7c-0.9,0-1.5,0.9-1.6,1.2c0,0-0.1,0.3-0.1,0.5c0,0.2-0.1,0.4-0.2,0.7l-0.2,0.9
			c-0.1,0.2-0.2,0.7-0.2,0.7c-0.1,0.2-0.2,0.3-0.4,0.3c-0.1,0-0.3-0.1-0.3-0.3c0-0.1,0.1-0.3,0.1-0.4L250.2,58.5z"/>
	</g>
	<g>
		<path class="st1" d="M256.3,63.9H255v-0.4h1v-9.2h-1v-0.4h1.4V63.9z"/>
	</g>
	<g>
		<path class="st1" d="M261.3,57.2c-0.2,0-0.4,0-0.4-0.2s0.2-0.2,0.3-0.2h5.9c0.2,0,0.3,0,0.3,0.2s-0.2,0.2-0.4,0.2H261.3z
			 M261.3,59.1c-0.2,0-0.3,0-0.3-0.2c0-0.2,0.2-0.2,0.3-0.2h5.9c0.2,0,0.3,0,0.3,0.2c0,0.2-0.2,0.2-0.3,0.2H261.3z M261.3,61.1
			c-0.2,0-0.3,0-0.3-0.2s0.2-0.2,0.4-0.2h5.9c0.2,0,0.4,0,0.4,0.2s-0.2,0.2-0.3,0.2H261.3z"/>
	</g>
	<g>
		<path class="st1" d="M273.8,59.8c-0.1,0.4-0.2,0.7-0.2,0.9c0,0.3,0.2,0.7,0.5,0.7c0.3,0,1-0.2,1.3-1.3c0-0.1,0-0.1,0.1-0.1
			c0,0,0.1,0,0.1,0.1c0,0.2-0.6,1.5-1.6,1.5c-0.6,0-1-0.4-1.1-0.8c0,0.1-0.4,0.8-1,0.8c-0.4,0-0.9-0.2-0.9-0.7
			c0-0.3,0.2-0.6,0.5-0.6c0.1,0,0.4,0.1,0.4,0.3c0,0.3-0.2,0.5-0.5,0.5c0.2,0.1,0.4,0.1,0.5,0.1c0.4,0,0.8-0.4,0.9-1
			c0.4-1.4,0.5-2.1,0.5-2.4c0-0.6-0.3-0.7-0.5-0.7c-0.3,0-1,0.2-1.3,1.3c0,0.1,0,0.1-0.1,0.1c0,0-0.1,0-0.1-0.1
			c0-0.2,0.6-1.5,1.6-1.5c0.3,0,0.8,0.1,1.1,0.8c0.1-0.2,0.5-0.8,1-0.8c0.3,0,0.9,0.1,0.9,0.7c0,0.4-0.3,0.6-0.5,0.6
			c-0.3,0-0.4-0.2-0.4-0.3c0-0.2,0.2-0.5,0.5-0.5c-0.2-0.1-0.4-0.1-0.5-0.1c-0.7,0-0.9,0.9-1,1.2L273.8,59.8z"/>
	</g>
	<g>
		<path class="st1" d="M279.7,59.9c0.1,0,0.2,0.1,0.2,0.2c0,0-0.1,0.4-0.1,0.5l-0.1,0.5c0,0.2-0.1,0.4-0.2,0.6
			c0,0.2-0.1,0.4-0.1,0.6c0,0.2,0,0.3,0.2,0.3c0.3,0,0.4-0.4,0.5-0.7c0-0.2,0.1-0.2,0.2-0.2c0,0,0.1,0,0.1,0.1c0,0-0.1,0.4-0.2,0.7
			c-0.1,0.2-0.3,0.4-0.6,0.4c-0.2,0-0.6-0.1-0.7-0.5c-0.3,0.3-0.6,0.5-1,0.5c-0.6,0-1.1-0.5-1.1-1.2c0-1,0.9-2,1.8-2
			c0.3,0,0.6,0.2,0.7,0.4C279.5,60,279.6,59.9,279.7,59.9z M279.3,60.7C279.3,60.7,279.3,60.6,279.3,60.7c0-0.2-0.1-0.7-0.6-0.7
			c-0.2,0-0.6,0.1-0.9,0.7c-0.2,0.3-0.4,1-0.4,1.4c0,0.5,0.3,0.7,0.5,0.7c0.3,0,0.6-0.2,0.6-0.3c0.2-0.1,0.3-0.3,0.4-0.5L279.3,60.7
			z"/>
	</g>
	<g>
		<path class="st1" d="M284.6,63.9c-0.1,0-1-0.6-1.6-1.9c-0.5-1.1-0.7-2.3-0.7-3.1c0-0.8,0.1-1.9,0.6-3c0.6-1.3,1.5-1.9,1.6-1.9
			c0.1,0,0.1,0,0.1,0.1c0,0,0,0-0.1,0.2c-1.2,1.2-1.6,3-1.6,4.7c0,1.5,0.3,3.4,1.6,4.7C284.7,63.8,284.7,63.8,284.6,63.9
			C284.7,63.9,284.7,63.9,284.6,63.9z"/>
	</g>
	<g>
		<path class="st1" d="M286.7,58.5c0.1-0.5,0.2-0.6,0.2-0.8c0-0.3-0.1-0.5-0.3-0.5c-0.4,0-0.6,0.5-0.7,1.2c-0.1,0.2-0.1,0.2-0.2,0.2
			c0,0-0.1,0-0.1-0.1c0,0,0.1-0.6,0.3-1c0.1-0.2,0.3-0.6,0.7-0.6c0.5,0,0.9,0.3,0.9,0.9c0.2-0.2,0.7-0.9,1.6-0.9
			c0.7,0,1.1,0.4,1.1,1.1c0,0.6-0.4,1.7-0.6,2.2c-0.1,0.2-0.2,0.5-0.2,0.7c0,0.2,0.1,0.3,0.2,0.3c0.5,0,0.8-0.6,1-1.2
			c0.1-0.1,0.1-0.2,0.2-0.2c0,0,0.1,0,0.1,0.1c0,0.1-0.4,1.5-1.3,1.5c-0.5,0-0.8-0.3-0.8-0.8c0-0.1,0-0.2,0.1-0.5
			c0.2-0.4,0.6-1.7,0.6-2.3c0-0.3-0.1-0.7-0.5-0.7c-0.9,0-1.5,0.9-1.6,1.2c0,0-0.1,0.3-0.1,0.5c0,0.2-0.1,0.4-0.2,0.7l-0.2,0.9
			c-0.1,0.2-0.2,0.7-0.2,0.7c-0.1,0.2-0.2,0.3-0.4,0.3c-0.1,0-0.3-0.1-0.3-0.3c0-0.1,0.1-0.3,0.1-0.4L286.7,58.5z"/>
	</g>
	<g>
		<path class="st1" d="M294.9,59.5c-0.3,0-0.5-0.2-0.5-0.5c0-0.3,0.2-0.5,0.5-0.5s0.5,0.2,0.5,0.5C295.4,59.2,295.2,59.5,294.9,59.5
			z"/>
	</g>
	<g>
		<path class="st1" d="M301.4,60.7c0,0.1,0,0.2,0,0.2c0,0.2,0.1,0.2,0.4,0.2c0.3,0,0.4,0,0.6,0c0.3,0,0.3,0,0.3,0.1
			c0,0.2-0.1,0.2-0.2,0.2c-0.3,0-0.6,0-0.9,0c-0.3,0-0.5,0-0.8,0c-0.3,0-0.6,0-0.8,0c-0.3,0-0.5,0-0.8,0c-0.1,0-0.2,0-0.2-0.1
			c0-0.2,0.1-0.2,0.4-0.2c1.1,0,1.1-0.1,1.2-0.5l1.3-5.3c0,0,0-0.1,0-0.2c0-0.1,0-0.1-0.3-0.1h-0.4c-1.5,0-1.7,0.2-2.3,1.7
			c-0.1,0.2-0.1,0.2-0.2,0.2c-0.1,0-0.1,0-0.1-0.1c0,0,0-0.2,0.1-0.2l0.6-1.8c0.1-0.2,0.1-0.2,0.3-0.2h5.5c0.2,0,0.3,0,0.3,0.1
			c0,0,0,0.1,0,0.2l-0.3,1.7c0,0.1,0,0.2-0.1,0.2c-0.1,0-0.1-0.1-0.1-0.1c0,0,0-0.1,0-0.2c0-0.3,0.1-0.6,0.1-0.8
			c0-0.8-0.4-0.8-1.5-0.8c-0.2,0-0.5,0-0.6,0c-0.1,0-0.2,0.1-0.2,0.4L301.4,60.7z"/>
	</g>
	<g>
		<path class="st1" d="M306.7,60c-0.1,0-0.4,0-0.6,0.1c-0.2,0.1-0.3,0.3-0.3,0.4c0,0.2,0.1,0.3,0.4,0.3c0,0,0.2,0,0.3,0.1
			c0.3,0,1,0.2,1,0.8c0,0.3-0.2,1.2-1.5,1.2c-0.7,0-1.1-0.3-1.1-0.7c0-0.3,0.2-0.5,0.4-0.5c0.1,0,0.3,0.1,0.3,0.3
			c0,0.2-0.2,0.4-0.4,0.4c0.2,0.2,0.6,0.3,0.8,0.3c0.1,0,0.4,0,0.7-0.2c0.3-0.2,0.4-0.4,0.4-0.6c0-0.3-0.4-0.4-0.6-0.5
			c-0.5-0.1-0.6-0.1-0.8-0.3c-0.1-0.1-0.2-0.3-0.2-0.5c0-0.2,0.2-1,1.3-1c0.4,0,0.9,0.2,0.9,0.6c0,0.4-0.3,0.4-0.3,0.4
			c-0.1,0-0.2-0.1-0.2-0.2c0-0.1,0.1-0.3,0.3-0.3C307.2,60,306.8,60,306.7,60z"/>
	</g>
	<g>
		<path class="st1" d="M310.8,62c-0.6,1.3-1.5,1.9-1.6,1.9c-0.1,0-0.1,0-0.1-0.1c0,0,0-0.1,0.1-0.2c1.2-1.3,1.6-3,1.6-4.7
			c0-2.1-0.6-3.7-1.5-4.7c-0.2-0.2-0.2-0.2-0.2-0.2c0-0.1,0-0.1,0.1-0.1c0.1,0,1,0.6,1.6,1.9c0.5,1.1,0.7,2.3,0.7,3.1
			C311.4,59.8,311.3,60.9,310.8,62z"/>
	</g>
	<g>
		<path class="st1" d="M195.6,67.6c1.1,0,2.1,1,2.1,2.3c0,1.3-1,2.3-2.2,2.3c-0.8,0-1.2-0.5-1.2-0.7v0.1v1.7c0,0.4,0.1,0.4,0.8,0.4
			v0.3c-0.3,0-0.9,0-1.1,0c-0.3,0-0.8,0-1.1,0v-0.3c0.7,0,0.8,0,0.8-0.4v-4.7c0-0.4-0.1-0.5-0.8-0.5v-0.3l1.4-0.1v0.7
			C194.4,68,194.8,67.6,195.6,67.6z M194.4,71.3c0.3,0.4,0.6,0.6,1,0.6c0.7,0,1.4-0.8,1.4-2c0-1.1-0.6-2-1.3-2c-0.5,0-1,0.3-1.3,0.8
			v2.2C194.2,71,194.2,71.1,194.4,71.3z"/>
		<path class="st1" d="M200.6,72.1c-1.5,0-1.5-0.9-1.5-1.7v-1.5c0-0.9,0-0.9-0.8-0.9v-0.3l1.5-0.1v3.3c0,0.5,0,1,0.9,1
			c0.7,0,1.2-0.7,1.2-1.5v-1.8c0-0.5-0.1-0.6-0.8-0.6v-0.3l1.5-0.1v3.5c0,0.5,0.1,0.6,0.8,0.6V72l-1.4,0.1v-0.9
			C201.6,71.8,201.2,72.1,200.6,72.1z"/>
		<path class="st1" d="M205.3,71.2c0,0.4,0.1,0.4,0.8,0.4V72c-0.4,0-0.9,0-1.1,0s-0.8,0-1.1,0v-0.3c0.7,0,0.8,0,0.8-0.4V66
			c0-0.5-0.1-0.6-0.8-0.6v-0.3l1.4-0.1V71.2z"/>
		<path class="st1" d="M207.1,69.6c-0.3-0.2-0.4-0.5-0.4-0.8c0-0.6,0.4-1.2,1.6-1.2c0.1,0,0.6,0,0.9,0.3c0,0,0.1-0.1,0.2-0.2
			c0.1-0.1,0.1-0.1,0.2-0.1c0.1,0,0.1,0.1,0.1,0.2v1c0,0.2,0,0.2-0.1,0.2c0,0-0.1,0-0.1-0.1c0-0.3-0.1-1.2-1.2-1.2
			c-0.9,0-1.1,0.4-1.1,0.8c0,0.6,0.7,0.7,1.2,0.8c0.4,0.1,0.8,0.2,1.1,0.5c0.1,0.1,0.4,0.4,0.4,0.9c0,0.7-0.5,1.4-1.6,1.4
			c-0.2,0-0.7,0-1.1-0.4c-0.2,0.2-0.2,0.2-0.2,0.2c-0.2,0.2-0.2,0.2-0.2,0.2c-0.1,0-0.1-0.1-0.1-0.2v-1.3c0-0.2,0-0.2,0.1-0.2
			c0.1,0,0.1,0,0.1,0.2c0.2,0.8,0.5,1.4,1.4,1.4c0.8,0,1.1-0.4,1.1-0.9c0-0.7-0.8-0.9-1-0.9C207.7,69.9,207.4,69.8,207.1,69.6z"/>
		<path class="st1" d="M211.6,71.2c0.2,0.4,0.6,0.7,1.1,0.7c0.1,0,1,0,1.3-1c0-0.1,0-0.1,0.1-0.1c0,0,0.1,0,0.1,0.1
			c0,0.2-0.4,1.3-1.7,1.3c-1.1,0-2.2-1-2.2-2.3c0-1.2,0.9-2.3,2.1-2.3c1.2,0,1.8,1,1.8,2c0,0.2,0,0.2-0.2,0.2h-2.8
			C211.3,70,211.3,70.7,211.6,71.2z M213.7,69.5c0-0.4-0.1-1.7-1.1-1.7c-0.3,0-1.2,0.2-1.2,1.7H213.7z"/>
	</g>
	<g>
		<path class="st1" d="M215.4,69.6c-0.3-0.2-0.4-0.5-0.4-0.8c0-0.6,0.4-1.2,1.6-1.2c0.1,0,0.6,0,0.9,0.3c0,0,0.1-0.1,0.2-0.2
			c0.1-0.1,0.1-0.1,0.2-0.1c0.1,0,0.1,0.1,0.1,0.2v1c0,0.2,0,0.2-0.1,0.2c0,0-0.1,0-0.1-0.1c0-0.3-0.1-1.2-1.2-1.2
			c-0.9,0-1.1,0.4-1.1,0.8c0,0.6,0.7,0.7,1.2,0.8c0.4,0.1,0.8,0.2,1.1,0.5c0.1,0.1,0.4,0.4,0.4,0.9c0,0.7-0.5,1.4-1.6,1.4
			c-0.2,0-0.7,0-1.1-0.4c-0.2,0.2-0.2,0.2-0.2,0.2c-0.2,0.2-0.2,0.2-0.2,0.2c-0.1,0-0.1-0.1-0.1-0.2v-1.3c0-0.2,0-0.2,0.1-0.2
			c0.1,0,0.1,0,0.1,0.2c0.2,0.8,0.5,1.4,1.4,1.4c0.8,0,1.1-0.4,1.1-0.9c0-0.7-0.8-0.9-1-0.9C216,69.9,215.8,69.8,215.4,69.6z"/>
	</g>
	<g>
		<path class="st1" d="M184.2,81.4c0,0.2,0,1.1,0.7,1.1c0.4,0,0.7-0.4,0.7-1.1v-0.5h0.2v0.6c0,0.6-0.3,1.3-1,1.3
			c-0.4,0-1.3-0.1-1.3-1.3v-2.8h-0.8v-0.2c1,0,1.3-1.1,1.3-1.9h0.2v1.8h1.4v0.3h-1.4V81.4z"/>
		<path class="st1" d="M188.8,82.8c-1.2,0-2.2-1-2.2-2.2c0-1.2,1-2.3,2.2-2.3c1.2,0,2.2,1.1,2.2,2.3C191,81.8,190,82.8,188.8,82.8z
			 M190,81.8c0.2-0.4,0.2-1,0.2-1.3c0-0.4,0-1-0.3-1.4c-0.3-0.4-0.7-0.6-1.1-0.6c-0.4,0-0.9,0.2-1.1,0.7c-0.2,0.4-0.2,1-0.2,1.4
			c0,0.4,0,1,0.2,1.4c0.3,0.5,0.7,0.7,1.1,0.7C189.3,82.5,189.8,82.2,190,81.8z"/>
	</g>
	<g>
		<path class="st1" d="M195.4,80.3c-0.3-0.2-0.4-0.5-0.4-0.8c0-0.6,0.4-1.2,1.6-1.2c0.1,0,0.6,0,0.9,0.3c0,0,0.1-0.1,0.2-0.2
			c0.1-0.1,0.1-0.1,0.2-0.1c0.1,0,0.1,0.1,0.1,0.2v1c0,0.2,0,0.2-0.1,0.2c0,0-0.1,0-0.1-0.1c0-0.3-0.1-1.2-1.2-1.2
			c-0.9,0-1.1,0.4-1.1,0.8c0,0.6,0.7,0.7,1.2,0.8c0.4,0.1,0.8,0.2,1.1,0.5c0.1,0.1,0.4,0.4,0.4,0.9c0,0.7-0.5,1.4-1.6,1.4
			c-0.2,0-0.7,0-1.1-0.4c-0.2,0.2-0.2,0.2-0.2,0.2c-0.2,0.2-0.2,0.2-0.2,0.2c-0.1,0-0.1-0.1-0.1-0.2v-1.3c0-0.2,0-0.2,0.1-0.2
			c0.1,0,0.1,0,0.1,0.2c0.2,0.8,0.5,1.4,1.4,1.4c0.8,0,1.1-0.4,1.1-0.9c0-0.7-0.8-0.9-1-0.9C196,80.6,195.7,80.5,195.4,80.3z"/>
		<path class="st1" d="M200.6,82.8c-0.6,0-1.6-0.2-1.6-1.1c0-0.4,0.2-1,1-1.3c0.6-0.3,1.3-0.3,1.8-0.4v-0.4c0-0.9-0.6-1.3-1.1-1.3
			c-0.3,0-0.8,0.1-1.1,0.5c0.5,0,0.5,0.3,0.5,0.5c0,0.3-0.2,0.5-0.5,0.5c-0.3,0-0.5-0.2-0.5-0.5c0-0.7,0.7-1.1,1.5-1.1
			c0.5,0,1,0.2,1.4,0.5c0.4,0.4,0.4,0.8,0.4,1.2v2c0,0,0,0.5,0.4,0.5c0.1,0,0.4-0.1,0.4-0.6v-0.6h0.2v0.6c0,0.8-0.6,0.9-0.8,0.9
			c-0.5,0-0.7-0.4-0.8-0.8C201.7,82.4,201.2,82.8,200.6,82.8z M199.7,81.7c0,0.5,0.4,0.8,0.9,0.8c0.4,0,1.2-0.3,1.2-1.3v-1
			C200.2,80.3,199.7,81.2,199.7,81.7z"/>
		<path class="st1" d="M203.9,78.7v-0.3l1.4-0.1v1c0.3-0.6,0.7-1,1.5-1c0.4,0,1.2,0.1,1.3,1c0.2-0.4,0.6-1,1.4-1
			c0.6,0,0.9,0.2,1,0.4c0.3,0.4,0.3,0.7,0.3,1.5v1.9c0,0.3,0.3,0.3,0.8,0.3v0.3c-0.3,0-0.9,0-1.1,0c-0.3,0-0.8,0-1.1,0v-0.3
			c0.7,0,0.8,0,0.8-0.4v-2.3c0-0.6-0.1-1.1-0.7-1.1c-0.6,0-1.3,0.6-1.3,1.6v1.8c0,0.4,0.1,0.4,0.8,0.4v0.3c-0.3,0-0.9,0-1.1,0
			c-0.3,0-0.8,0-1.1,0v-0.3c0.7,0,0.8,0,0.8-0.4v-2.3c0-0.6-0.1-1.1-0.7-1.1c-0.6,0-1.3,0.6-1.3,1.6v1.8c0,0.4,0.1,0.4,0.8,0.4v0.3
			c-0.3,0-0.9,0-1.1,0c-0.3,0-0.8,0-1.1,0v-0.3c0.7,0,0.8,0,0.8-0.4v-2.7C204.6,78.7,204.6,78.7,203.9,78.7z"/>
		<path class="st1" d="M214.9,78.3c1.1,0,2.1,1,2.1,2.3c0,1.3-1,2.3-2.2,2.3c-0.8,0-1.2-0.5-1.2-0.7v0.1v1.7c0,0.4,0.1,0.4,0.8,0.4
			v0.3c-0.3,0-0.9,0-1.1,0c-0.3,0-0.8,0-1.1,0v-0.3c0.7,0,0.8,0,0.8-0.4v-4.7c0-0.4-0.1-0.5-0.8-0.5v-0.3l1.4-0.1v0.7
			C213.8,78.7,214.2,78.3,214.9,78.3z M213.7,81.9c0.3,0.4,0.6,0.6,1,0.6c0.7,0,1.4-0.8,1.4-2c0-1.1-0.6-2-1.3-2
			c-0.5,0-1,0.3-1.3,0.8v2.2C213.6,81.7,213.6,81.7,213.7,81.9z"/>
		<path class="st1" d="M219.1,81.9c0,0.4,0.1,0.4,0.8,0.4v0.3c-0.4,0-0.9,0-1.1,0s-0.8,0-1.1,0v-0.3c0.7,0,0.8,0,0.8-0.4v-5.2
			c0-0.5-0.1-0.6-0.8-0.6v-0.3l1.4-0.1V81.9z"/>
		<path class="st1" d="M221.5,81.9c0.2,0.4,0.6,0.7,1.1,0.7c0.1,0,1,0,1.3-1c0-0.1,0-0.1,0.1-0.1c0,0,0.1,0,0.1,0.1
			c0,0.2-0.4,1.3-1.7,1.3c-1.1,0-2.2-1-2.2-2.3c0-1.2,0.9-2.3,2.1-2.3c1.2,0,1.8,1,1.8,2c0,0.2,0,0.2-0.2,0.2h-2.8
			C221.2,80.7,221.2,81.4,221.5,81.9z M223.6,80.2c0-0.4-0.1-1.7-1.1-1.7c-0.3,0-1.2,0.2-1.2,1.7H223.6z"/>
	</g>
	<g>
		<path class="st1" d="M225.4,80.3c-0.3-0.2-0.4-0.5-0.4-0.8c0-0.6,0.4-1.2,1.6-1.2c0.1,0,0.6,0,0.9,0.3c0,0,0.1-0.1,0.2-0.2
			c0.1-0.1,0.1-0.1,0.2-0.1c0.1,0,0.1,0.1,0.1,0.2v1c0,0.2,0,0.2-0.1,0.2c0,0-0.1,0-0.1-0.1c0-0.3-0.1-1.2-1.2-1.2
			c-0.9,0-1.1,0.4-1.1,0.8c0,0.6,0.7,0.7,1.2,0.8c0.4,0.1,0.8,0.2,1.1,0.5c0.1,0.1,0.4,0.4,0.4,0.9c0,0.7-0.5,1.4-1.6,1.4
			c-0.2,0-0.7,0-1.1-0.4c-0.2,0.2-0.2,0.2-0.2,0.2c-0.2,0.2-0.2,0.2-0.2,0.2c-0.1,0-0.1-0.1-0.1-0.2v-1.3c0-0.2,0-0.2,0.1-0.2
			c0.1,0,0.1,0,0.1,0.2c0.2,0.8,0.5,1.4,1.4,1.4c0.8,0,1.1-0.4,1.1-0.9c0-0.7-0.8-0.9-1-0.9C226,80.6,225.7,80.5,225.4,80.3z"/>
	</g>
	<polyline points="85.3,200.5 78,204.2 85.3,207.9 83.5,204.2 	"/>
	<polyline points="106,207.9 113.4,204.2 106,200.5 107.9,204.2 	"/>
	<line class="st10" x1="83.5" y1="204.2" x2="107.9" y2="204.2"/>
	<g>
		<path class="st1" d="M95.5,196.3c0,0.3,0,0.4-0.2,0.4c-0.2,0-0.2-0.1-0.2-0.4v-0.7c0-1.3,0.4-2.9,1.5-4.1c0.3-0.3,0.7-0.7,0.7-1.8
			c0-0.6,0-2-2-2c-0.9,0-1.9,0.4-2.3,1.5c0.1,0,0.1,0,0.2,0c0.3,0,0.6,0.2,0.6,0.6c0,0.5-0.4,0.6-0.6,0.6c-0.1,0-0.6,0-0.6-0.7
			c0-1.1,1-2.3,2.8-2.3c2,0,3.1,1,3.1,2.4c0,1.1-0.6,1.6-0.9,1.8c-1.2,1-2.1,2.4-2.1,4V196.3z M95.4,199.5c-0.4,0-0.7-0.3-0.7-0.7
			c0-0.4,0.3-0.7,0.7-0.7c0.4,0,0.7,0.3,0.7,0.7C96.1,199.2,95.8,199.5,95.4,199.5z"/>
	</g>
	<polyline points="181,200.5 173.6,204.2 181,207.9 179.1,204.2 	"/>
	<polyline points="201.7,207.9 209.1,204.2 201.7,200.5 203.5,204.2 	"/>
	<line class="st10" x1="179.1" y1="204.2" x2="203.5" y2="204.2"/>
	<g>
		<path class="st1" d="M191.3,196.3c0,0.3,0,0.4-0.2,0.4c-0.2,0-0.2-0.1-0.2-0.4v-0.7c0-1.3,0.4-2.9,1.5-4.1
			c0.3-0.3,0.7-0.7,0.7-1.8c0-0.6,0-2-2-2c-0.9,0-1.9,0.4-2.3,1.5c0.1,0,0.1,0,0.2,0c0.3,0,0.6,0.2,0.6,0.6c0,0.5-0.4,0.6-0.6,0.6
			c-0.1,0-0.6,0-0.6-0.7c0-1.1,1-2.3,2.8-2.3c2,0,3.1,1,3.1,2.4c0,1.1-0.6,1.6-0.9,1.8c-1.2,1-2.1,2.4-2.1,4V196.3z M191.2,199.5
			c-0.4,0-0.7-0.3-0.7-0.7c0-0.4,0.3-0.7,0.7-0.7c0.4,0,0.7,0.3,0.7,0.7C191.9,199.2,191.5,199.5,191.2,199.5z"/>
	</g>
	<g>
		<path class="st1" d="M28.2,200.8c0.1-0.1,0.2-0.2,0.2-0.4c0-0.3-0.3-0.3-0.4-0.3c-0.1,0-0.1,0-0.1-0.1c0-0.2,0.1-0.2,0.2-0.2
			c0.4,0,0.7,0,1.1,0c0.3,0,0.6,0,0.9,0c0.1,0,0.1,0.1,0.1,0.1c0,0.2-0.1,0.2-0.2,0.2c-0.6,0-1,0.3-1.3,0.5c-0.3,0.3-1.4,1.5-2,2.2
			c0.2,0.6,0.9,2.2,1.3,3.1c0.2,0.4,0.2,0.4,0.9,0.4c0.1,0,0.2,0,0.2,0.1c0,0.2-0.1,0.2-0.2,0.2c-0.2,0-0.9,0-1.1,0
			c-0.3,0-1,0-1.3,0c0,0-0.1,0-0.1-0.1c0-0.2,0.1-0.2,0.2-0.2c0.4,0,0.6-0.2,0.6-0.3c0,0,0,0,0-0.1l-1-2.4l-0.9,1l-1,1.1
			c-0.1,0.1-0.3,0.3-0.3,0.4c0,0.3,0.3,0.3,0.4,0.3c0,0,0.1,0,0.1,0.1c0,0.2-0.1,0.2-0.2,0.2c-0.4,0-0.7,0-1.1,0c-0.3,0-0.6,0-0.9,0
			c-0.1,0-0.1-0.1-0.1-0.1c0-0.2,0.1-0.2,0.2-0.2c0.5,0,1-0.2,1.5-0.7l0.1-0.1l2.1-2.3l-1.2-2.8c-0.1-0.2-0.1-0.3-0.7-0.3
			c-0.1,0-0.2,0-0.2-0.1c0-0.2,0.1-0.2,0.2-0.2c0.2,0,0.9,0,1.1,0c0.4,0,0.8,0,1.3,0c0,0,0.1,0,0.1,0.1c0,0.2-0.1,0.2-0.2,0.2
			c-0.4,0-0.6,0.2-0.6,0.3c0,0,0,0,0,0.1l0.8,2L28.2,200.8z"/>
	</g>
	<g>
		<path class="st1" d="M33.3,205.1c0.1,0,0.2,0.1,0.2,0.2c0,0-0.1,0.4-0.1,0.5l-0.1,0.5c0,0.2-0.1,0.4-0.2,0.6
			c0,0.2-0.1,0.4-0.1,0.6c0,0.2,0,0.3,0.2,0.3c0.3,0,0.4-0.4,0.5-0.7c0-0.2,0.1-0.2,0.2-0.2c0,0,0.1,0,0.1,0.1c0,0-0.1,0.4-0.2,0.7
			c-0.1,0.2-0.3,0.4-0.6,0.4c-0.2,0-0.6-0.1-0.7-0.5c-0.3,0.3-0.6,0.5-1,0.5c-0.6,0-1.1-0.5-1.1-1.2c0-1,0.9-2,1.8-2
			c0.3,0,0.6,0.2,0.7,0.4C33,205.2,33.1,205.1,33.3,205.1z M32.8,205.9C32.8,205.9,32.8,205.8,32.8,205.9c0-0.2-0.1-0.7-0.6-0.7
			c-0.2,0-0.6,0.1-0.9,0.7c-0.2,0.3-0.4,1-0.4,1.4c0,0.5,0.3,0.7,0.5,0.7c0.3,0,0.6-0.2,0.6-0.3c0.2-0.1,0.3-0.3,0.4-0.5L32.8,205.9
			z"/>
	</g>
	<g>
		<path class="st1" d="M38,209.1c-0.1,0-1-0.6-1.6-1.9c-0.5-1.1-0.7-2.3-0.7-3.1c0-0.8,0.1-1.9,0.6-3c0.6-1.3,1.5-1.9,1.6-1.9
			c0.1,0,0.1,0,0.1,0.1c0,0,0,0-0.1,0.2c-1.2,1.2-1.6,3-1.6,4.7c0,1.5,0.3,3.4,1.6,4.7C38.1,209,38.1,209,38,209.1
			C38.1,209.1,38.1,209.1,38,209.1z"/>
	</g>
	<g>
		<path class="st1" d="M44,205.4c-0.4,0.7-0.8,1.4-1.6,1.4c-0.6,0-1-0.5-1.1-1c-0.4,0.5-0.8,1-1.5,1c-0.8,0-1-0.7-1-1.4
			c0-0.9,0.4-2.1,0.9-2.8c0.1-0.1,0.1-0.2,0.3-0.2c0.1,0,0.2,0.1,0.2,0.2c0,0.1-1,1.2-1,2.4c0,0.6,0.2,1.1,0.9,1.1
			c0.6,0,1-0.4,1.4-0.9c0-0.4,0.1-1,0.2-1.2c0.1-0.1,0.2-0.2,0.3-0.2c0.1,0,0.2,0.1,0.2,0.2c0,0.3-0.2,0.9-0.3,1.2
			c0.1,0.5,0.4,0.9,1,0.9c0.5,0,0.8-0.3,1.1-0.8c0.3-0.5,0.5-1,0.5-1.4c0-0.4-0.2-0.7-0.3-0.8c-0.1-0.1-0.1-0.2-0.1-0.3
			c0-0.2,0.3-0.5,0.5-0.5c0.2,0,0.4,0.2,0.4,0.7C44.7,203.5,44.3,204.9,44,205.4z"/>
	</g>
	<g>
		<path class="st1" d="M47.5,207.2c-0.6,1.3-1.5,1.9-1.6,1.9c-0.1,0-0.1,0-0.1-0.1c0,0,0,0,0.1-0.2c1.2-1.3,1.6-3,1.6-4.7
			c0-2.1-0.6-3.7-1.5-4.7c-0.2-0.2-0.2-0.2-0.2-0.2c0-0.1,0-0.1,0.1-0.1c0.1,0,1,0.6,1.6,1.9c0.5,1.1,0.7,2.3,0.7,3.1
			C48.1,205,48,206.1,47.5,207.2z"/>
	</g>
	<path class="st3" d="M38.3,189.9c0-1.5-1.3-2.8-2.8-2.8s-2.8,1.3-2.8,2.8s1.3,2.8,2.8,2.8S38.3,191.5,38.3,189.9L38.3,189.9z
		 M38.3,168.7c0-1.5-1.3-2.8-2.8-2.8s-2.8,1.3-2.8,2.8s1.3,2.8,2.8,2.8S38.3,170.3,38.3,168.7L38.3,168.7z M35.4,186.5v-14.2"/>
	<g>
		<path class="st1" d="M48.7,178.2h-0.2c-0.2-1.4-0.4-1.9-1.9-1.9h-1.2c-0.5,0-0.5,0.1-0.5,0.4v2.5h0.9c1,0,1.1-0.3,1.1-1.2H47v2.6
			h-0.2c0-0.8-0.1-1.2-1.1-1.2h-0.9v2.5c0,0.3,0,0.5,0.9,0.5h0.3v0.3c-0.4,0-1.3,0-1.7,0c-0.4,0-1.2,0-1.5,0v-0.3h0.2
			c0.8,0,0.8-0.1,0.8-0.5v-5.2c0-0.4,0-0.5-0.8-0.5h-0.2V176h5.5L48.7,178.2z"/>
		<path class="st1" d="M55.9,178.2h-0.2c-0.1-1.6-0.3-1.9-1.8-1.9c-0.2,0-0.5,0-0.6,0c-0.2,0-0.2,0.2-0.2,0.4v5.3c0,0.3,0,0.5,1,0.5
			h0.4v0.3c-0.4,0-1.4,0-1.9,0c-0.5,0-1.5,0-1.9,0v-0.3h0.4c1,0,1-0.1,1-0.5v-5.3c0-0.2,0-0.3-0.2-0.4c-0.1,0-0.4,0-0.5,0
			c-1.5,0-1.7,0.3-1.8,1.9h-0.2l0.2-2.2h6.1L55.9,178.2z"/>
	</g>
	<g>
		<path class="st7" d="M60.3,175.7c1,0,1.5,0.5,1.8,0.9l0.5-0.7c0.1-0.1,0.1-0.1,0.2-0.1c0.1,0,0.1,0.1,0.1,0.2v2.4
			c0,0.2,0,0.2-0.2,0.2c-0.1,0-0.1,0-0.2-0.2c-0.2-1.5-1.1-2.4-2.2-2.4c-0.6,0-2.6,0.3-2.6,3.3c0,3,2,3.3,2.6,3.3
			c1.1,0,2.2-0.8,2.2-2.2c0-0.1,0-0.2,0.1-0.2c0.1,0,0.1,0.1,0.1,0.2c0,1.2-1,2.5-2.6,2.5c-1.9,0-3.5-1.6-3.5-3.6
			C56.8,177.3,58.4,175.7,60.3,175.7z"/>
	</g>
	<g>
		<path class="st1" d="M131.2,200.8c0.1-0.1,0.2-0.2,0.2-0.4c0-0.3-0.3-0.3-0.4-0.3c-0.1,0-0.1,0-0.1-0.1c0-0.2,0.1-0.2,0.2-0.2
			c0.4,0,0.7,0,1.1,0c0.3,0,0.6,0,0.9,0c0.1,0,0.1,0.1,0.1,0.1c0,0.2-0.1,0.2-0.2,0.2c-0.6,0-1,0.3-1.3,0.5c-0.3,0.3-1.4,1.5-2,2.2
			c0.2,0.6,0.9,2.2,1.3,3.1c0.2,0.4,0.2,0.4,0.9,0.4c0.1,0,0.2,0,0.2,0.1c0,0.2-0.1,0.2-0.2,0.2c-0.2,0-0.9,0-1.1,0
			c-0.3,0-1,0-1.3,0c0,0-0.1,0-0.1-0.1c0-0.2,0.1-0.2,0.2-0.2c0.4,0,0.6-0.2,0.6-0.3c0,0,0,0,0-0.1l-1-2.4l-0.9,1l-1,1.1
			c-0.1,0.1-0.3,0.3-0.3,0.4c0,0.3,0.3,0.3,0.4,0.3c0,0,0.1,0,0.1,0.1c0,0.2-0.1,0.2-0.2,0.2c-0.4,0-0.7,0-1.1,0c-0.3,0-0.6,0-0.9,0
			c-0.1,0-0.1-0.1-0.1-0.1c0-0.2,0.1-0.2,0.2-0.2c0.5,0,1-0.2,1.5-0.7l0.1-0.1l2.1-2.3l-1.2-2.8c-0.1-0.2-0.1-0.3-0.7-0.3
			c-0.1,0-0.2,0-0.2-0.1c0-0.2,0.1-0.2,0.2-0.2c0.2,0,0.9,0,1.1,0c0.4,0,0.8,0,1.3,0c0,0,0.1,0,0.1,0.1c0,0.2-0.1,0.2-0.2,0.2
			c-0.4,0-0.6,0.2-0.6,0.3c0,0,0,0,0,0.1l0.8,2L131.2,200.8z"/>
	</g>
	<g>
		<path class="st1" d="M135.4,205.2c-0.1,0-0.4,0-0.6,0.1c-0.2,0.1-0.3,0.3-0.3,0.4c0,0.2,0.1,0.3,0.4,0.3c0,0,0.2,0,0.3,0.1
			c0.3,0,1,0.2,1,0.8c0,0.3-0.2,1.2-1.5,1.2c-0.7,0-1.1-0.3-1.1-0.7c0-0.3,0.2-0.5,0.4-0.5c0.1,0,0.3,0.1,0.3,0.3
			c0,0.2-0.2,0.4-0.4,0.4c0.2,0.2,0.6,0.3,0.8,0.3c0.1,0,0.4,0,0.7-0.2c0.3-0.2,0.4-0.4,0.4-0.6c0-0.3-0.4-0.4-0.6-0.5
			c-0.5-0.1-0.6-0.1-0.8-0.3c-0.1-0.1-0.2-0.3-0.2-0.5c0-0.2,0.2-1,1.3-1c0.4,0,0.9,0.2,0.9,0.6c0,0.4-0.3,0.4-0.3,0.4
			c-0.1,0-0.2-0.1-0.2-0.2c0-0.1,0.1-0.3,0.3-0.3C135.9,205.2,135.6,205.2,135.4,205.2z"/>
	</g>
	<g>
		<path class="st1" d="M140.5,209.1c-0.1,0-1-0.6-1.6-1.9c-0.5-1.1-0.7-2.3-0.7-3.1c0-0.8,0.1-1.9,0.6-3c0.6-1.3,1.5-1.9,1.6-1.9
			c0.1,0,0.1,0,0.1,0.1c0,0,0,0-0.1,0.2c-1.2,1.2-1.6,3-1.6,4.7c0,1.5,0.3,3.4,1.6,4.7C140.6,209,140.6,209,140.5,209.1
			C140.6,209.1,140.5,209.1,140.5,209.1z"/>
	</g>
	<g>
		<path class="st1" d="M146.5,205.4c-0.4,0.7-0.8,1.4-1.6,1.4c-0.6,0-1-0.5-1.1-1c-0.4,0.5-0.8,1-1.5,1c-0.8,0-1-0.7-1-1.4
			c0-0.9,0.4-2.1,0.9-2.8c0.1-0.1,0.1-0.2,0.3-0.2c0.1,0,0.2,0.1,0.2,0.2c0,0.1-1,1.2-1,2.4c0,0.6,0.2,1.1,0.9,1.1
			c0.6,0,1-0.4,1.4-0.9c0-0.4,0.1-1,0.2-1.2c0.1-0.1,0.2-0.2,0.3-0.2c0.1,0,0.2,0.1,0.2,0.2c0,0.3-0.2,0.9-0.3,1.2
			c0.1,0.5,0.4,0.9,1,0.9c0.5,0,0.8-0.3,1.1-0.8c0.3-0.5,0.5-1,0.5-1.4c0-0.4-0.2-0.7-0.3-0.8c-0.1-0.1-0.1-0.2-0.1-0.3
			c0-0.2,0.3-0.5,0.5-0.5c0.2,0,0.4,0.2,0.4,0.7C147.1,203.5,146.8,204.9,146.5,205.4z"/>
	</g>
	<g>
		<path class="st1" d="M150,207.2c-0.6,1.3-1.5,1.9-1.6,1.9c-0.1,0-0.1,0-0.1-0.1c0,0,0,0,0.1-0.2c1.2-1.3,1.6-3,1.6-4.7
			c0-2.1-0.6-3.7-1.5-4.7c-0.2-0.2-0.2-0.2-0.2-0.2c0-0.1,0-0.1,0.1-0.1c0.1,0,1,0.6,1.6,1.9c0.5,1.1,0.7,2.3,0.7,3.1
			C150.6,205,150.5,206.1,150,207.2z"/>
	</g>
	<path class="st3" d="M141,189.9c0-1.5-1.3-2.8-2.8-2.8c-1.5,0-2.8,1.3-2.8,2.8s1.3,2.8,2.8,2.8C139.8,192.7,141,191.5,141,189.9
		L141,189.9z M141,168.7c0-1.5-1.3-2.8-2.8-2.8c-1.5,0-2.8,1.3-2.8,2.8s1.3,2.8,2.8,2.8C139.8,171.5,141,170.3,141,168.7L141,168.7z
		 M138.2,186.5v-14.2"/>
	<g>
		<path class="st1" d="M151.4,178.2h-0.2c-0.2-1.4-0.4-1.9-1.9-1.9h-1.2c-0.5,0-0.5,0.1-0.5,0.4v2.5h0.9c1,0,1.1-0.3,1.1-1.2h0.2
			v2.6h-0.2c0-0.8-0.1-1.2-1.1-1.2h-0.9v2.5c0,0.3,0,0.5,0.9,0.5h0.3v0.3c-0.4,0-1.3,0-1.7,0c-0.4,0-1.2,0-1.5,0v-0.3h0.2
			c0.8,0,0.8-0.1,0.8-0.5v-5.2c0-0.4,0-0.5-0.8-0.5h-0.2V176h5.5L151.4,178.2z"/>
		<path class="st1" d="M158.6,178.2h-0.2c-0.1-1.6-0.3-1.9-1.8-1.9c-0.2,0-0.5,0-0.6,0c-0.2,0-0.2,0.2-0.2,0.4v5.3
			c0,0.3,0,0.5,1,0.5h0.4v0.3c-0.4,0-1.4,0-1.9,0c-0.5,0-1.5,0-1.9,0v-0.3h0.4c1,0,1-0.1,1-0.5v-5.3c0-0.2,0-0.3-0.2-0.4
			c-0.1,0-0.4,0-0.5,0c-1.5,0-1.7,0.3-1.8,1.9h-0.2l0.2-2.2h6.1L158.6,178.2z"/>
	</g>
	<g>
		<path class="st7" d="M163,175.7c1,0,1.5,0.5,1.8,0.9l0.5-0.7c0.1-0.1,0.1-0.1,0.2-0.1c0.1,0,0.1,0.1,0.1,0.2v2.4
			c0,0.2,0,0.2-0.2,0.2c-0.1,0-0.1,0-0.2-0.2c-0.2-1.5-1.1-2.4-2.2-2.4c-0.6,0-2.6,0.3-2.6,3.3c0,3,2,3.3,2.6,3.3
			c1.1,0,2.2-0.8,2.2-2.2c0-0.1,0-0.2,0.1-0.2c0.1,0,0.1,0.1,0.1,0.2c0,1.2-1,2.5-2.6,2.5c-1.9,0-3.5-1.6-3.5-3.6
			C159.6,177.3,161.2,175.7,163,175.7z"/>
	</g>
	<g>
		<path class="st1" d="M222.4,201.5c0.1-0.1,0.2-0.2,0.2-0.4c0-0.3-0.3-0.3-0.4-0.3c-0.1,0-0.1,0-0.1-0.1c0-0.2,0.1-0.2,0.2-0.2
			c0.4,0,0.7,0,1.1,0c0.3,0,0.6,0,0.9,0c0.1,0,0.1,0.1,0.1,0.1c0,0.2-0.1,0.2-0.2,0.2c-0.6,0-1,0.3-1.3,0.5c-0.3,0.3-1.4,1.5-2,2.2
			c0.2,0.6,0.9,2.2,1.3,3.1c0.2,0.4,0.2,0.4,0.9,0.4c0.1,0,0.2,0,0.2,0.1c0,0.2-0.1,0.2-0.2,0.2c-0.2,0-0.9,0-1.1,0
			c-0.3,0-1,0-1.3,0c0,0-0.1,0-0.1-0.1c0-0.2,0.1-0.2,0.2-0.2c0.4,0,0.6-0.2,0.6-0.3c0,0,0,0,0-0.1l-1-2.4l-0.9,1l-1,1.1
			c-0.1,0.1-0.3,0.3-0.3,0.4c0,0.3,0.3,0.3,0.4,0.3c0,0,0.1,0,0.1,0.1c0,0.2-0.1,0.2-0.2,0.2c-0.4,0-0.7,0-1.1,0c-0.3,0-0.6,0-0.9,0
			c-0.1,0-0.1-0.1-0.1-0.1c0-0.2,0.1-0.2,0.2-0.2c0.5,0,1-0.2,1.5-0.7l0.1-0.1l2.1-2.3l-1.2-2.8c-0.1-0.2-0.1-0.3-0.7-0.3
			c-0.1,0-0.2,0-0.2-0.1c0-0.2,0.1-0.2,0.2-0.2c0.2,0,0.9,0,1.1,0c0.4,0,0.8,0,1.3,0c0,0,0.1,0,0.1,0.1c0,0.2-0.1,0.2-0.2,0.2
			c-0.4,0-0.6,0.2-0.6,0.3c0,0,0,0,0,0.1l0.8,2L222.4,201.5z"/>
	</g>
	<g>
		<path class="st1" d="M228.3,209.8c-0.1,0-1-0.6-1.6-1.9c-0.5-1.1-0.7-2.3-0.7-3.1c0-0.8,0.1-1.9,0.6-3c0.6-1.3,1.5-1.9,1.6-1.9
			c0.1,0,0.1,0,0.1,0.1c0,0,0,0-0.1,0.2c-1.2,1.2-1.6,3-1.6,4.7c0,1.5,0.3,3.4,1.6,4.7C228.4,209.7,228.4,209.7,228.3,209.8
			C228.4,209.8,228.4,209.8,228.3,209.8z"/>
		<path class="st1" d="M230.4,206.5c0.2,0.4,0.6,0.7,1.1,0.7c0.1,0,1,0,1.3-1c0-0.1,0-0.1,0.1-0.1c0,0,0.1,0,0.1,0.1
			c0,0.2-0.4,1.3-1.7,1.3c-1.1,0-2.2-1-2.2-2.3c0-1.2,0.9-2.3,2.1-2.3c1.2,0,1.8,1,1.8,2c0,0.2,0,0.2-0.2,0.2h-2.8
			C230.1,205.4,230.1,206.1,230.4,206.5z M232.4,204.8c0-0.4-0.1-1.7-1.1-1.7c-0.3,0-1.2,0.3-1.2,1.7H232.4z"/>
	</g>
	<g>
		<path class="st1" d="M235.4,204.2c0,0.9-0.6,1.5-1.4,1.5c-0.6,0-1.1-0.3-1.1-0.8c0-0.3,0.2-0.5,0.5-0.5c0.3,0,0.5,0.2,0.5,0.5
			c0,0.3-0.2,0.4-0.3,0.4c0.3,0.1,0.5,0.1,0.5,0.1c0.6,0,0.7-0.9,0.7-1.3v-3.9c0-0.5-0.1-0.6-0.9-0.6v-0.3l1.5-0.1V204.2z
			 M234.8,198.1c-0.3,0-0.5-0.2-0.5-0.5s0.2-0.5,0.5-0.5s0.5,0.2,0.5,0.5S235.1,198.1,234.8,198.1z"/>
	</g>
	<g>
		<path class="st1" d="M237.8,203.8c-0.6,0-1-0.7-1-1.5c0-1.6,1.1-3.5,2.2-3.5c0.7,0,1,0.8,1,1.5C240,201.9,238.9,203.8,237.8,203.8
			z M237.6,201.4c-0.1,0.3-0.2,0.8-0.2,1.3c0,0.4,0.1,0.9,0.4,0.9c0.3,0,0.6-0.3,0.8-0.7c0.2-0.3,0.4-0.7,0.6-1.5H237.6z
			 M239.2,201.2c0.1-0.6,0.2-1,0.2-1.3c0-0.1,0-0.9-0.4-0.9c-0.4,0-1,0.7-1.4,2.2H239.2z"/>
	</g>
	<g>
		<path class="st1" d="M243.1,207.9c-0.6,1.3-1.5,1.9-1.6,1.9c-0.1,0-0.1,0-0.1-0.1c0,0,0,0,0.1-0.2c1.2-1.3,1.6-3,1.6-4.7
			c0-2.1-0.6-3.7-1.5-4.7c-0.2-0.2-0.2-0.2-0.2-0.2c0-0.1,0-0.1,0.1-0.1c0.1,0,1,0.6,1.6,1.9c0.5,1.1,0.7,2.3,0.7,3.1
			C243.7,205.7,243.6,206.8,243.1,207.9z"/>
	</g>
	<path class="st3" d="M233.2,189.2c0-1.5-1.3-2.8-2.8-2.8s-2.8,1.3-2.8,2.8s1.3,2.8,2.8,2.8S233.2,190.8,233.2,189.2L233.2,189.2z
		 M233.2,168c0-1.5-1.3-2.8-2.8-2.8s-2.8,1.3-2.8,2.8s1.3,2.8,2.8,2.8S233.2,169.5,233.2,168L233.2,168z M230.3,185.8v-14.2"/>
	<g>
		<path class="st1" d="M243.6,177.5h-0.2c-0.2-1.4-0.4-1.9-1.9-1.9h-1.2c-0.5,0-0.5,0.1-0.5,0.4v2.5h0.9c1,0,1.1-0.3,1.1-1.2h0.2
			v2.6h-0.2c0-0.8-0.1-1.2-1.1-1.2h-0.9v2.5c0,0.3,0,0.5,0.9,0.5h0.3v0.3c-0.4,0-1.3,0-1.7,0c-0.4,0-1.2,0-1.5,0v-0.3h0.2
			c0.8,0,0.8-0.1,0.8-0.5V176c0-0.4,0-0.5-0.8-0.5h-0.2v-0.3h5.5L243.6,177.5z"/>
		<path class="st1" d="M250.8,177.5h-0.2c-0.1-1.6-0.3-1.9-1.8-1.9c-0.2,0-0.5,0-0.6,0c-0.2,0-0.2,0.2-0.2,0.4v5.3
			c0,0.3,0,0.5,1,0.5h0.4v0.3c-0.4,0-1.4,0-1.9,0s-1.5,0-1.9,0v-0.3h0.4c1,0,1-0.1,1-0.5V176c0-0.2,0-0.3-0.2-0.4
			c-0.1,0-0.4,0-0.5,0c-1.5,0-1.7,0.3-1.8,1.9h-0.2l0.2-2.2h6.1L250.8,177.5z"/>
	</g>
	<g>
		<path class="st11" d="M255.2,175.2c1.7,0,3,1.6,3,3.5c0,1.9-1.4,3.3-3,3.3h-3.6v-0.3h0.2c0.8,0,0.8-0.1,0.8-0.5V176
			c0-0.4,0-0.5-0.8-0.5h-0.2v-0.3H255.2z M254.9,181.7c1,0,1.6-0.6,1.8-0.8c0.4-0.5,0.5-1.1,0.5-2.2c0-0.8-0.1-1.6-0.5-2.2
			c-0.5-0.7-1.2-0.9-1.8-0.9h-1c-0.5,0-0.5,0.1-0.5,0.4v5.4c0,0.3,0,0.4,0.5,0.4H254.9z"/>
	</g>
</g>
</svg>
