<?xml version="1.0" encoding="utf-8"?>
<!-- Generator: Adobe Illustrator 22.1.0, SVG Export Plug-In . SVG Version: 6.00 Build 0)  -->
<svg version="1.1" id="Layer_1" xmlns="http://www.w3.org/2000/svg" xmlns:xlink="http://www.w3.org/1999/xlink" x="0px" y="0px"
	 viewBox="0 0 437.1 197.6" style="enable-background:new 0 0 437.1 197.6;" xml:space="preserve">
<style type="text/css">
	.st0{fill:#E6007E;}
	.st1{fill:#1D1D1B;}
	.st2{fill:none;stroke:#000000;stroke-width:0.8504;stroke-miterlimit:10;}
	.st3{fill:#FF0000;}
	.st4{fill:none;stroke:#000000;stroke-width:0.8504;stroke-linecap:round;stroke-miterlimit:10;stroke-dasharray:0,3.6973;}
	.st5{fill:none;stroke:#0000FF;stroke-width:1.4173;stroke-miterlimit:10;}
	.st6{fill:#0000FF;}
	.st7{fill:none;stroke:#000000;stroke-width:0.8504;stroke-linecap:round;stroke-miterlimit:10;stroke-dasharray:0,3.6726;}
	.st8{fill:none;stroke:#FCFCFC;stroke-width:0.8504;stroke-miterlimit:10;}
</style>
<g>
	<path class="st0" d="M202.7,38.3c0.7,0.6,1.4,0.9,1.5,0.9c0.1,0,0.1-0.1,0.1-0.2c0-0.1,0-0.2-0.1-0.2c-1.1-0.5-1.9-1.2-2.5-2.5
		c0-0.1-0.1-0.2-0.1-0.2c-0.1,0-0.1,0-0.1,0.1c-0.6,1.5-1.7,2.2-2.4,2.5c-0.2,0.1-0.2,0.1-0.2,0.1c0,0,0,0,0,0.2
		c0,0.1,0,0.2,0.1,0.2c0.1,0,0.8-0.3,1.5-0.9v6c-0.7-0.6-1.4-0.9-1.5-0.9c-0.1,0-0.1,0.1-0.1,0.2c0,0.1,0,0.2,0.1,0.2
		c1.1,0.5,1.9,1.2,2.5,2.5c0,0.1,0.1,0.2,0.1,0.2c0.1,0,0.1,0,0.1-0.1c0.6-1.5,1.7-2.2,2.4-2.5c0.2-0.1,0.2-0.1,0.2-0.1
		c0,0,0,0,0-0.2c0-0.1,0-0.2-0.1-0.2c-0.1,0-0.8,0.3-1.5,0.9V38.3z M200.8,37.9c0.3-0.3,0.6-0.7,0.8-1c0.2,0.3,0.4,0.7,0.8,1v6.8
		c-0.3,0.3-0.6,0.7-0.8,1c-0.2-0.3-0.4-0.7-0.8-1V37.9z"/>
	<g>
		<path class="st0" d="M210.2,41.6c0,0.2,0,0.3-0.1,0.3c-0.1,0-0.1-0.1-0.1-0.2v-0.4c0-0.6,0.2-1.5,0.9-2.2c0.2-0.2,0.3-0.4,0.3-0.9
			c0-0.4,0-1.1-1.1-1.1c-0.4,0-1,0.1-1.3,0.7c0.1,0,0.6,0,0.6,0.4c0,0.3-0.2,0.5-0.5,0.5c-0.2,0-0.5-0.1-0.5-0.5
			c0-0.6,0.6-1.3,1.7-1.3c1.5,0,1.9,0.8,1.9,1.3c0,0.4-0.2,0.8-0.5,1c-0.3,0.3-1.3,1-1.3,2.2V41.6z M210.1,43.8
			c-0.3,0-0.5-0.2-0.5-0.5c0-0.3,0.2-0.5,0.5-0.5s0.5,0.2,0.5,0.5C210.6,43.5,210.3,43.8,210.1,43.8z"/>
	</g>
	<path d="M206.6,109.2c0.7,0.6,1.4,0.9,1.5,0.9c0.1,0,0.1-0.1,0.1-0.2c0-0.1,0-0.2-0.1-0.2c-1.1-0.5-1.9-1.2-2.5-2.5
		c0-0.1-0.1-0.2-0.1-0.2c-0.1,0-0.1,0-0.1,0.1c-0.6,1.5-1.7,2.2-2.4,2.5c-0.2,0.1-0.2,0.1-0.2,0.1c0,0,0,0,0,0.2
		c0,0.1,0,0.2,0.1,0.2c0.1,0,0.8-0.3,1.5-0.9v6c-0.7-0.6-1.4-0.9-1.5-0.9c-0.1,0-0.1,0.1-0.1,0.2c0,0.1,0,0.2,0.1,0.2
		c1.1,0.5,1.9,1.2,2.5,2.5c0,0.1,0.1,0.2,0.1,0.2c0.1,0,0.1,0,0.1-0.1c0.6-1.5,1.7-2.2,2.4-2.5c0.2-0.1,0.2-0.1,0.2-0.1
		c0,0,0,0,0-0.2c0-0.1,0-0.2-0.1-0.2c-0.1,0-0.8,0.3-1.5,0.9V109.2z M204.7,108.8c0.3-0.3,0.6-0.7,0.8-1c0.2,0.3,0.4,0.7,0.8,1v6.8
		c-0.3,0.3-0.6,0.7-0.8,1c-0.2-0.3-0.4-0.7-0.8-1V108.8z"/>
	<g>
		<path class="st1" d="M198.1,18.3c0,0.1,0,0.1,0,0.2c0,0.2,0.3,0.2,0.6,0.2c0.2,0,0.3,0,0.3,0.1c0,0.2-0.1,0.2-0.2,0.2
			c-0.2,0-0.4,0-0.6,0c-0.2,0-0.4,0-0.6,0c-0.3,0-1,0-1.3,0c0,0-0.1,0-0.1-0.1c0-0.2,0.1-0.2,0.2-0.2c0.6,0,0.8,0,0.9-0.3
			c0-0.1,0.3-1.1,0.7-2.8h-3l-0.7,2.7c0,0.1,0,0.1,0,0.2c0,0.2,0.3,0.2,0.6,0.2c0.2,0,0.3,0,0.3,0.1c0,0.2-0.1,0.2-0.2,0.2
			c-0.2,0-0.4,0-0.6,0c-0.2,0-0.4,0-0.6,0c-0.3,0-1,0-1.3,0c0,0-0.1,0-0.1-0.1c0-0.2,0.1-0.2,0.3-0.2c0.8,0,0.8-0.1,0.9-0.5l1.3-5.4
			c0-0.1,0-0.1,0-0.2c0-0.1-0.1-0.1-0.3-0.2c-0.2,0-0.4,0-0.4,0c-0.2,0-0.3,0-0.3-0.1c0-0.2,0.1-0.2,0.2-0.2c0.3,0,1,0,1.3,0
			c0.3,0,1,0,1.3,0c0,0,0.1,0,0.1,0.1c0,0.2-0.1,0.2-0.3,0.2c-0.7,0-0.7,0.1-0.8,0.5l-0.6,2.3h3l0.6-2.4c0-0.1,0-0.1,0-0.2
			c0-0.1-0.1-0.1-0.3-0.2c-0.2,0-0.4,0-0.4,0c-0.2,0-0.3,0-0.3-0.1c0-0.2,0.1-0.2,0.2-0.2c0.3,0,1,0,1.3,0c0.3,0,1,0,1.3,0
			c0,0,0.1,0,0.1,0.1c0,0.2-0.1,0.2-0.3,0.2c-0.7,0-0.7,0.1-0.8,0.5L198.1,18.3z"/>
	</g>
	<g>
		<path class="st1" d="M203.4,17.4c0.1,0,0.2,0.1,0.2,0.2c0,0-0.1,0.4-0.1,0.5l-0.1,0.5c0,0.2-0.1,0.4-0.2,0.6
			c0,0.2-0.1,0.4-0.1,0.6c0,0.2,0,0.3,0.2,0.3c0.3,0,0.4-0.4,0.5-0.7c0-0.2,0.1-0.2,0.2-0.2c0,0,0.1,0,0.1,0.1c0,0-0.1,0.4-0.2,0.7
			c-0.1,0.2-0.3,0.4-0.6,0.4c-0.2,0-0.6-0.1-0.7-0.5c-0.3,0.3-0.6,0.5-1,0.5c-0.6,0-1.1-0.5-1.1-1.2c0-1,0.9-2,1.8-2
			c0.3,0,0.6,0.2,0.7,0.4C203.1,17.5,203.3,17.4,203.4,17.4z M203,18.2C203,18.2,203,18.1,203,18.2c0-0.2-0.1-0.7-0.6-0.7
			c-0.2,0-0.6,0.1-0.9,0.7c-0.2,0.3-0.4,1-0.4,1.4c0,0.5,0.3,0.7,0.5,0.7c0.3,0,0.6-0.2,0.6-0.3c0.2-0.1,0.3-0.3,0.4-0.5L203,18.2z"
			/>
	</g>
	<g>
		<path class="st1" d="M208.2,21.4c-0.1,0-1-0.6-1.6-1.9c-0.5-1.1-0.7-2.3-0.7-3.1c0-0.8,0.1-1.9,0.6-3c0.6-1.3,1.5-1.9,1.6-1.9
			c0.1,0,0.1,0,0.1,0.1c0,0,0,0-0.1,0.2c-1.2,1.2-1.6,3-1.6,4.7c0,1.5,0.3,3.4,1.6,4.7C208.3,21.3,208.3,21.3,208.2,21.4
			C208.3,21.4,208.2,21.4,208.2,21.4z"/>
	</g>
	<g>
		<path class="st1" d="M214.2,17.7c-0.4,0.7-0.8,1.4-1.6,1.4c-0.6,0-1-0.5-1.1-1c-0.4,0.5-0.8,1-1.5,1c-0.8,0-1-0.7-1-1.4
			c0-0.9,0.4-2.1,0.9-2.8c0.1-0.1,0.1-0.2,0.3-0.2c0.1,0,0.2,0.1,0.2,0.2c0,0.1-1,1.2-1,2.4c0,0.6,0.2,1.1,0.9,1.1
			c0.6,0,1-0.4,1.4-0.9c0-0.4,0.1-1,0.2-1.2c0.1-0.1,0.2-0.2,0.3-0.2c0.1,0,0.2,0.1,0.2,0.2c0,0.3-0.2,0.9-0.3,1.2
			c0.1,0.5,0.4,0.9,1,0.9c0.5,0,0.8-0.3,1.1-0.8c0.3-0.5,0.5-1,0.5-1.4c0-0.4-0.2-0.7-0.3-0.8c-0.1-0.1-0.1-0.2-0.1-0.3
			c0-0.2,0.3-0.5,0.5-0.5c0.2,0,0.4,0.2,0.4,0.7C214.8,15.8,214.4,17.2,214.2,17.7z"/>
	</g>
	<g>
		<path class="st1" d="M217.7,19.5c-0.6,1.3-1.5,1.9-1.6,1.9c-0.1,0-0.1,0-0.1-0.1c0,0,0-0.1,0.1-0.2c1.2-1.3,1.6-3,1.6-4.7
			c0-2.1-0.6-3.7-1.5-4.7c-0.2-0.2-0.2-0.2-0.2-0.2c0-0.1,0-0.1,0.1-0.1c0.1,0,1,0.6,1.6,1.9c0.5,1.1,0.7,2.3,0.7,3.1
			C218.3,17.3,218.2,18.4,217.7,19.5z"/>
	</g>
	<polygon class="st2" points="184.3,16.5 184.3,30.7 226.8,30.7 226.8,2.3 184.3,2.3 	"/>
	<polyline points="179.7,18.8 184.3,16.5 179.7,14.2 180.8,16.5 	"/>
	<line class="st2" x1="155.9" y1="16.5" x2="180.8" y2="16.5"/>
	<g>
		<path class="st3" d="M161,6.7c-0.1,0.4-0.2,0.7-0.2,0.9c0,0.3,0.2,0.7,0.5,0.7c0.3,0,1-0.2,1.3-1.3c0-0.1,0-0.1,0.1-0.1
			c0,0,0.1,0,0.1,0.1c0,0.2-0.6,1.5-1.6,1.5c-0.6,0-1-0.4-1.1-0.8c0,0.1-0.4,0.8-1,0.8c-0.4,0-0.9-0.2-0.9-0.7
			c0-0.3,0.2-0.6,0.5-0.6c0.1,0,0.4,0.1,0.4,0.3c0,0.3-0.2,0.5-0.5,0.5c0.2,0.1,0.4,0.1,0.5,0.1c0.4,0,0.8-0.4,0.9-1
			c0.4-1.4,0.5-2.1,0.5-2.4c0-0.6-0.3-0.7-0.5-0.7c-0.3,0-1,0.2-1.3,1.3c0,0.1-0.1,0.1-0.1,0.1c0,0-0.1,0-0.1-0.1
			c0-0.2,0.6-1.5,1.6-1.5c0.3,0,0.8,0.1,1.1,0.8c0.1-0.2,0.5-0.8,1-0.8c0.3,0,0.9,0.1,0.9,0.7c0,0.4-0.3,0.6-0.5,0.6
			c-0.3,0-0.4-0.2-0.4-0.3c0-0.2,0.2-0.5,0.5-0.5c-0.2-0.1-0.4-0.1-0.5-0.1c-0.7,0-0.9,0.9-1,1.2L161,6.7z"/>
	</g>
	<g>
		<path class="st3" d="M166.9,10.9c-0.1,0-1-0.6-1.6-1.9c-0.5-1.1-0.7-2.3-0.7-3.1c0-0.8,0.1-1.9,0.6-3c0.6-1.3,1.5-1.9,1.6-1.9
			c0.1,0,0.1,0,0.1,0.1c0,0,0,0-0.1,0.2c-1.2,1.2-1.6,3-1.6,4.7c0,1.5,0.3,3.4,1.6,4.7C167,10.7,167,10.7,166.9,10.9
			C167,10.8,166.9,10.9,166.9,10.9z"/>
	</g>
	<g>
		<path class="st3" d="M168.8,7.3c0,0.2-0.1,0.2-0.1,0.5c0,0.3,0.1,0.5,0.3,0.5c0.3,0,0.9-0.2,1.3-1.3c0-0.1,0.1-0.1,0.1-0.1
			c0,0,0.1,0,0.1,0.1c0,0.1-0.6,1.5-1.6,1.5c-0.5,0-0.9-0.4-0.9-0.9c0-0.2,0-0.3,0.8-3.2H168c-0.2,0-0.3,0-0.3-0.1
			c0-0.2,0.1-0.2,0.3-0.2h0.9l0.4-1.6c0.1-0.3,0.4-0.4,0.4-0.4c0.2,0,0.3,0.1,0.3,0.3c0,0.1,0,0.3-0.4,1.7h0.9c0.2,0,0.3,0,0.3,0.1
			c0,0.2-0.1,0.2-0.3,0.2h-0.9L168.8,7.3z"/>
	</g>
	<g>
		<path class="st3" d="M173.4,8.9c-0.6,1.3-1.5,1.9-1.6,1.9c-0.1,0-0.1,0-0.1-0.1c0,0,0-0.1,0.1-0.2c1.2-1.3,1.6-3,1.6-4.7
			c0-2.1-0.6-3.7-1.5-4.7c-0.2-0.2-0.2-0.2-0.2-0.2c0-0.1,0-0.1,0.1-0.1c0.1,0,1,0.6,1.6,1.9c0.5,1.1,0.7,2.3,0.7,3.1
			C174,6.7,173.9,7.8,173.4,8.9z"/>
	</g>
	<polyline points="250.6,18.8 255.1,16.5 250.6,14.2 251.7,16.5 	"/>
	<line class="st2" x1="226.8" y1="16.5" x2="251.7" y2="16.5"/>
	<g>
		<path class="st0" d="M237.9,8.4c-0.3,1.1-1.3,2-2.3,2c-0.6,0-1.1-0.4-1.1-0.9c0-0.5,0.3-0.6,0.6-0.6c0.1,0,0.4,0,0.4,0.3
			c0,0.2-0.1,0.3-0.2,0.4c-0.1,0.1-0.3,0.1-0.4,0.1c0.2,0.4,0.6,0.4,0.8,0.4c0.5,0,0.8-0.3,1.1-0.6c0.4-0.5,0.5-1,0.6-1.5
			c-0.3,0.3-0.6,0.4-1,0.4c-0.6,0-1.2-0.3-1.2-1.2c0-0.5,0.2-1,0.6-2.1c0.1-0.2,0.2-0.4,0.2-0.7c0-0.3-0.2-0.3-0.2-0.3
			c-0.3,0-0.7,0.3-1,1.2c0,0.2-0.1,0.2-0.2,0.2c0,0-0.1,0-0.1-0.1c0-0.1,0.4-1.5,1.3-1.5c0.5,0,0.8,0.4,0.8,0.8c0,0.2,0,0.3-0.2,0.7
			c-0.3,0.9-0.5,1.5-0.5,2c0,0.4,0.1,0.8,0.6,0.8c0.7,0,1.1-0.7,1.1-0.8l0.4-1.8c0.1-0.3,0.1-0.5,0.2-0.8c0-0.2,0.1-0.5,0.1-0.5
			c0.1-0.1,0.2-0.2,0.3-0.2c0.1,0,0.3,0.1,0.3,0.3c0,0.1,0,0.1,0,0.2L237.9,8.4z"/>
	</g>
	<g>
		<path class="st0" d="M242.2,6.9c0.1,0,0.2,0.1,0.2,0.2c0,0-0.1,0.4-0.1,0.5l-0.1,0.5c0,0.2-0.1,0.4-0.2,0.6c0,0.2-0.1,0.4-0.1,0.6
			c0,0.2,0,0.3,0.2,0.3c0.3,0,0.4-0.4,0.5-0.7c0-0.2,0.1-0.2,0.2-0.2c0,0,0.1,0,0.1,0.1c0,0-0.1,0.4-0.2,0.7
			c-0.1,0.2-0.3,0.4-0.6,0.4c-0.2,0-0.6-0.1-0.7-0.5c-0.3,0.3-0.6,0.5-1,0.5c-0.6,0-1.1-0.5-1.1-1.2c0-1,0.9-2,1.8-2
			c0.3,0,0.6,0.2,0.7,0.4C241.9,7,242.1,6.9,242.2,6.9z M241.7,7.7C241.7,7.6,241.8,7.6,241.7,7.7c0-0.2-0.1-0.7-0.6-0.7
			c-0.2,0-0.6,0.1-0.9,0.7c-0.2,0.3-0.4,1-0.4,1.4c0,0.5,0.3,0.7,0.5,0.7c0.3,0,0.6-0.2,0.6-0.3c0.2-0.1,0.3-0.3,0.4-0.5L241.7,7.7z
			"/>
	</g>
	<g>
		<path class="st0" d="M246.9,10.9c-0.1,0-1-0.6-1.6-1.9c-0.5-1.1-0.7-2.3-0.7-3.1c0-0.8,0.1-1.9,0.6-3c0.6-1.3,1.5-1.9,1.6-1.9
			c0.1,0,0.1,0,0.1,0.1c0,0,0,0-0.1,0.2c-1.2,1.2-1.6,3-1.6,4.7c0,1.5,0.3,3.4,1.6,4.7C247,10.7,247,10.7,246.9,10.9
			C247,10.8,247,10.9,246.9,10.9z"/>
	</g>
	<g>
		<path class="st0" d="M248.9,7.3c0,0.2-0.1,0.2-0.1,0.5c0,0.3,0.1,0.5,0.3,0.5c0.3,0,0.9-0.2,1.3-1.3c0-0.1,0.1-0.1,0.1-0.1
			c0,0,0.1,0,0.1,0.1c0,0.1-0.6,1.5-1.6,1.5c-0.5,0-0.9-0.4-0.9-0.9c0-0.2,0-0.3,0.8-3.2h-0.9c-0.2,0-0.3,0-0.3-0.1
			c0-0.2,0.1-0.2,0.3-0.2h0.9l0.4-1.6c0.1-0.3,0.4-0.4,0.4-0.4c0.2,0,0.3,0.1,0.3,0.3c0,0.1,0,0.3-0.4,1.7h0.9c0.2,0,0.3,0,0.3,0.1
			c0,0.2-0.1,0.2-0.3,0.2h-0.9L248.9,7.3z"/>
	</g>
	<g>
		<path class="st0" d="M253.4,8.9c-0.6,1.3-1.5,1.9-1.6,1.9c-0.1,0-0.1,0-0.1-0.1c0,0,0-0.1,0.1-0.2c1.2-1.3,1.6-3,1.6-4.7
			c0-2.1-0.6-3.7-1.5-4.7c-0.2-0.2-0.2-0.2-0.2-0.2c0-0.1,0-0.1,0.1-0.1c0.1,0,1,0.6,1.6,1.9c0.5,1.1,0.7,2.3,0.7,3.1
			C254,6.7,253.9,7.8,253.4,8.9z"/>
	</g>
	<polyline points="179.7,68.4 184.3,66.1 179.7,63.8 180.8,66.1 	"/>
	<line class="st2" x1="155.9" y1="66.1" x2="180.8" y2="66.1"/>
	<g>
		<path class="st1" d="M164.5,56.3c-0.1,0.4-0.2,0.7-0.2,0.9c0,0.3,0.2,0.7,0.5,0.7c0.3,0,1-0.2,1.3-1.3c0-0.1,0-0.1,0.1-0.1
			c0,0,0.1,0,0.1,0.1c0,0.2-0.6,1.5-1.6,1.5c-0.6,0-1-0.4-1.1-0.8c0,0.1-0.4,0.8-1,0.8c-0.4,0-0.9-0.2-0.9-0.7
			c0-0.3,0.2-0.6,0.5-0.6c0.1,0,0.4,0.1,0.4,0.3c0,0.3-0.2,0.5-0.5,0.5c0.2,0.1,0.4,0.1,0.5,0.1c0.4,0,0.8-0.4,0.9-1
			c0.4-1.4,0.5-2.1,0.5-2.4c0-0.6-0.3-0.7-0.5-0.7c-0.3,0-1,0.2-1.3,1.3c0,0.1-0.1,0.1-0.1,0.1c0,0-0.1,0-0.1-0.1
			c0-0.2,0.6-1.5,1.6-1.5c0.3,0,0.8,0.1,1.1,0.8c0.1-0.2,0.5-0.8,1-0.8c0.3,0,0.9,0.1,0.9,0.7c0,0.4-0.3,0.6-0.5,0.6
			c-0.3,0-0.4-0.2-0.4-0.3c0-0.2,0.2-0.5,0.5-0.5c-0.2-0.1-0.4-0.1-0.5-0.1c-0.7,0-0.9,0.9-1,1.2L164.5,56.3z"/>
	</g>
	<g>
		<path class="st1" d="M168.3,60.4v-10h1.4v0.4h-1V60h1v0.4H168.3z"/>
	</g>
	<g>
		<path class="st1" d="M171.4,55c0.1-0.5,0.2-0.6,0.2-0.8c0-0.3-0.1-0.5-0.3-0.5c-0.4,0-0.6,0.5-0.7,1.2c-0.1,0.2-0.1,0.2-0.2,0.2
			c0,0-0.1,0-0.1-0.1c0,0,0.1-0.6,0.3-1c0.1-0.2,0.3-0.6,0.7-0.6c0.5,0,0.9,0.3,0.9,0.9c0.2-0.2,0.7-0.9,1.6-0.9
			c0.7,0,1.1,0.4,1.1,1.1c0,0.6-0.4,1.7-0.6,2.2c-0.1,0.2-0.2,0.5-0.2,0.7c0,0.2,0.1,0.3,0.2,0.3c0.5,0,0.8-0.6,1-1.2
			c0-0.1,0-0.2,0.1-0.2c0,0,0.1,0,0.1,0.1c0,0.1-0.4,1.5-1.3,1.5c-0.5,0-0.8-0.3-0.8-0.8c0-0.1,0-0.2,0.1-0.5
			c0.2-0.4,0.6-1.7,0.6-2.3c0-0.3-0.1-0.7-0.5-0.7c-0.9,0-1.5,0.9-1.6,1.2c0,0-0.1,0.3-0.1,0.5c0,0.2-0.1,0.4-0.2,0.7l-0.2,0.9
			c-0.1,0.2-0.2,0.7-0.2,0.7c-0.1,0.2-0.2,0.3-0.4,0.3c-0.1,0-0.3-0.1-0.3-0.3c0-0.1,0.1-0.3,0.1-0.4L171.4,55z"/>
	</g>
	<g>
		<path class="st1" d="M177.5,60.4h-1.4V60h1v-9.2h-1v-0.4h1.4V60.4z"/>
	</g>
	<polyline points="250.6,68.4 255.1,66.1 250.6,63.8 251.7,66.1 	"/>
	<line class="st2" x1="226.8" y1="66.1" x2="251.7" y2="66.1"/>
	<g>
		<path class="st1" d="M236.4,57.9c-0.3,1.1-1.3,2-2.3,2c-0.6,0-1.1-0.4-1.1-0.9c0-0.5,0.3-0.6,0.6-0.6c0.1,0,0.4,0,0.4,0.3
			c0,0.2-0.1,0.3-0.2,0.4c-0.1,0.1-0.3,0.1-0.4,0.1c0.2,0.4,0.6,0.4,0.8,0.4c0.5,0,0.8-0.3,1.1-0.6c0.4-0.5,0.5-1,0.6-1.5
			c-0.3,0.3-0.6,0.4-1,0.4c-0.6,0-1.2-0.3-1.2-1.2c0-0.5,0.2-1,0.6-2.1c0.1-0.2,0.2-0.4,0.2-0.7c0-0.3-0.2-0.3-0.2-0.3
			c-0.3,0-0.7,0.3-1,1.2c0,0.2-0.1,0.2-0.2,0.2c0,0-0.1,0-0.1-0.1c0-0.1,0.4-1.5,1.3-1.5c0.5,0,0.8,0.4,0.8,0.8c0,0.2,0,0.3-0.2,0.7
			c-0.3,0.9-0.5,1.5-0.5,2c0,0.4,0.1,0.8,0.6,0.8c0.7,0,1.1-0.7,1.1-0.8l0.4-1.8c0.1-0.3,0.1-0.5,0.2-0.8c0-0.2,0.1-0.5,0.1-0.5
			c0.1-0.1,0.2-0.2,0.3-0.2c0.1,0,0.3,0.1,0.3,0.3c0,0.1,0,0.1,0,0.2L236.4,57.9z"/>
	</g>
	<g>
		<path class="st1" d="M239,60.4v-10h1.4v0.4h-1V60h1v0.4H239z"/>
	</g>
	<g>
		<path class="st1" d="M242.1,55c0.1-0.5,0.2-0.6,0.2-0.8c0-0.3-0.1-0.5-0.3-0.5c-0.4,0-0.6,0.5-0.7,1.2c-0.1,0.2-0.1,0.2-0.2,0.2
			c0,0-0.1,0-0.1-0.1c0,0,0.1-0.6,0.3-1c0.1-0.2,0.3-0.6,0.7-0.6c0.5,0,0.9,0.3,0.9,0.9c0.2-0.2,0.7-0.9,1.6-0.9
			c0.7,0,1.1,0.4,1.1,1.1c0,0.6-0.4,1.7-0.6,2.2c-0.1,0.2-0.2,0.5-0.2,0.7c0,0.2,0.1,0.3,0.2,0.3c0.5,0,0.8-0.6,1-1.2
			c0.1-0.1,0.1-0.2,0.2-0.2c0,0,0.1,0,0.1,0.1c0,0.1-0.4,1.5-1.3,1.5c-0.5,0-0.8-0.3-0.8-0.8c0-0.1,0-0.2,0.1-0.5
			c0.2-0.4,0.6-1.7,0.6-2.3c0-0.3-0.1-0.7-0.5-0.7c-0.9,0-1.5,0.9-1.6,1.2c0,0-0.1,0.3-0.1,0.5c0,0.2-0.1,0.4-0.2,0.7l-0.2,0.9
			c-0.1,0.2-0.2,0.7-0.2,0.7c-0.1,0.2-0.2,0.3-0.4,0.3c-0.1,0-0.3-0.1-0.3-0.3c0-0.1,0.1-0.3,0.1-0.4L242.1,55z"/>
	</g>
	<g>
		<path class="st1" d="M248.2,60.4h-1.4V60h1v-9.2h-1v-0.4h1.4V60.4z"/>
	</g>
	<g>
		<path class="st1" d="M132.3,61.6c1,0,1.5,0.5,1.8,0.9l0.5-0.7c0.1-0.1,0.1-0.1,0.2-0.1c0.1,0,0.1,0.1,0.1,0.2v2.4
			c0,0.2,0,0.2-0.2,0.2c-0.1,0-0.1,0-0.2-0.2c-0.2-1.5-1.1-2.4-2.2-2.4c-0.6,0-2.6,0.3-2.6,3.3c0,3,2,3.3,2.6,3.3
			c1.1,0,2.2-0.8,2.2-2.2c0-0.1,0-0.2,0.1-0.2c0.1,0,0.1,0.1,0.1,0.2c0,1.2-1,2.5-2.6,2.5c-1.9,0-3.5-1.6-3.5-3.6
			C128.8,63.2,130.4,61.6,132.3,61.6z"/>
		<path class="st1" d="M136.4,70.9c0,0.1-0.1,0.2-0.2,0.2c-0.1,0-0.2-0.1-0.2-0.2c0,0,0,0,0-0.2l3.4-9.4c0-0.1,0.1-0.2,0.2-0.2
			c0.1,0,0.2,0.1,0.2,0.2c0,0,0,0,0,0.2L136.4,70.9z"/>
	</g>
	<g>
		<path class="st1" d="M144.5,61.8c1.7,0,3,1.6,3,3.5c0,1.9-1.4,3.3-3,3.3h-3.6v-0.3h0.2c0.8,0,0.8-0.1,0.8-0.5v-5.3
			c0-0.4,0-0.5-0.8-0.5h-0.2v-0.3H144.5z M144.2,68.3c1,0,1.6-0.6,1.8-0.8c0.4-0.5,0.5-1.1,0.5-2.2c0-0.8-0.1-1.6-0.5-2.2
			c-0.5-0.7-1.2-0.9-1.8-0.9h-1c-0.5,0-0.5,0.1-0.5,0.4v5.4c0,0.3,0,0.4,0.5,0.4H144.2z"/>
	</g>
	<polygon class="st2" points="120.5,66.1 120.5,51.9 155.9,51.9 155.9,80.3 120.5,80.3 	"/>
	<polyline points="140.5,84.8 138.2,80.3 135.9,84.8 138.2,83.7 	"/>
	<line class="st2" x1="138.2" y1="94.4" x2="138.2" y2="83.7"/>
	<g>
		<path class="st1" d="M124.6,102.7c0,0.1-0.2,1.3-0.6,1.9c-0.2,0.4-0.6,1-1.1,1c-0.4,0-0.8-0.2-0.8-0.7c0-0.4,0.3-0.6,0.5-0.6
			c0.2,0,0.4,0.1,0.4,0.3c0,0.1-0.1,0.5-0.5,0.5c0.2,0.2,0.4,0.2,0.5,0.2c0.5,0,0.7-0.9,0.9-1.9l0.7-3.9h-0.7c-0.2,0-0.3,0-0.3-0.1
			c0-0.2,0.1-0.2,0.3-0.2h0.7c0.2-1.3,0.3-1.4,0.3-1.6c0.3-1,0.9-1.2,1.3-1.2c0.4,0,0.9,0.2,0.9,0.7c0,0.4-0.3,0.6-0.5,0.6
			c-0.2,0-0.4-0.1-0.4-0.3c0-0.1,0.1-0.5,0.5-0.5c-0.2-0.2-0.4-0.2-0.5-0.2c-0.2,0-0.4,0.1-0.5,0.3c-0.1,0.1-0.2,0.8-0.2,1l-0.2,1.1
			h0.8c0.2,0,0.3,0,0.3,0.1c0,0.2-0.1,0.2-0.3,0.2h-0.9L124.6,102.7z"/>
	</g>
	<g>
		<path class="st1" d="M128.8,102.1c-0.1,0-0.4,0-0.6,0.1c-0.2,0.1-0.3,0.3-0.3,0.4c0,0.2,0.1,0.3,0.4,0.3c0,0,0.2,0,0.3,0.1
			c0.3,0,1,0.2,1,0.8c0,0.3-0.2,1.2-1.5,1.2c-0.7,0-1.1-0.3-1.1-0.7c0-0.3,0.2-0.5,0.4-0.5c0.1,0,0.3,0.1,0.3,0.3
			c0,0.2-0.2,0.4-0.4,0.4c0.2,0.2,0.6,0.3,0.8,0.3c0.1,0,0.4,0,0.7-0.2c0.3-0.2,0.4-0.4,0.4-0.6c0-0.3-0.4-0.4-0.6-0.5
			c-0.5-0.1-0.6-0.1-0.8-0.3c-0.1-0.1-0.2-0.3-0.2-0.5c0-0.2,0.2-1,1.3-1c0.4,0,0.9,0.2,0.9,0.6c0,0.4-0.3,0.4-0.3,0.4
			c-0.1,0-0.2-0.1-0.2-0.2c0-0.1,0.1-0.3,0.3-0.3C129.3,102.1,129,102.1,128.8,102.1z"/>
	</g>
	<g>
		<path class="st1" d="M134.3,100.3c-0.1,0-0.3,0-0.3-0.2c0-0.2,0.2-0.2,0.3-0.2h6c0.1,0,0.3,0,0.3,0.2c0,0.2-0.2,0.2-0.3,0.2H134.3
			z M134.3,102.2c-0.1,0-0.3,0-0.3-0.2s0.2-0.2,0.3-0.2h5.9c0.1,0,0.3,0,0.3,0.2s-0.2,0.2-0.3,0.2H134.3z"/>
	</g>
	<g>
		<path class="st1" d="M149.8,99c0,0.2,0,0.3,0.7,0.3h0.3v0.3c-0.2,0-1,0-1.2,0c-0.3,0-1.1,0-1.2,0v-0.3h0.3c0.7,0,0.7-0.1,0.7-0.3
			v-3.6c-0.4,0.2-0.8,0.2-1,0.2v-0.3c0.3,0,0.9,0,1.4-0.4c0.2,0,0.2,0,0.2,0.2V99z"/>
	</g>
	<polyline points="145.2,101.3 153.8,101.3 153.8,100.8 145.2,100.8 	"/>
	<g>
		<path class="st1" d="M147.7,106.5c0,0.1,0,0.1,0,0.2c0,0.1,0,0.1,0.3,0.1c0.1,0,0.3,0,0.4,0c0.2,0,0.3,0,0.3,0.1
			c0,0.2-0.1,0.2-0.2,0.2c-0.2,0-0.4,0-0.6,0c-0.2,0-0.4,0-0.6,0s-0.4,0-0.6,0s-0.4,0-0.6,0c-0.1,0-0.1-0.1-0.1-0.1
			c0-0.2,0.1-0.2,0.3-0.2c0.7,0,0.8-0.1,0.8-0.3l0.9-3.7c0-0.1,0-0.1,0-0.1c0-0.1,0-0.1-0.2-0.1h-0.3c-1.1,0-1.3,0.1-1.7,1.2
			c0,0.1-0.1,0.2-0.1,0.2c-0.1,0-0.1-0.1-0.1-0.1c0,0,0-0.1,0-0.1l0.4-1.2c0-0.1,0.1-0.1,0.2-0.1h4.3c0.1,0,0.2,0,0.2,0.1l-0.2,1.3
			c0,0.1,0,0.2-0.1,0.2c-0.1,0-0.1,0-0.1-0.1l0-0.1c0-0.4,0-0.5,0-0.6c0-0.3,0-0.5-0.3-0.6c-0.2-0.1-0.4-0.1-0.8-0.1
			c-0.1,0-0.4,0-0.4,0c-0.2,0-0.2,0-0.2,0.2L147.7,106.5z"/>
	</g>
	<g>
		<path class="st1" d="M151.9,106c-0.7,0-0.7,0.4-0.7,0.4c0,0.2,0.2,0.2,0.6,0.3c0.3,0,0.8,0.1,0.8,0.6c0,0.2-0.2,0.8-1.2,0.8
			c-0.1,0-0.9,0-0.9-0.5c0-0.2,0.1-0.4,0.3-0.4c0.1,0,0.2,0.1,0.2,0.2c0,0.1-0.1,0.3-0.3,0.3c0.2,0.2,0.5,0.2,0.7,0.2
			c0.9,0,0.9-0.5,0.9-0.5c0-0.3-0.3-0.3-0.7-0.4c-0.3,0-0.4-0.1-0.6-0.2c-0.1-0.1-0.2-0.2-0.2-0.4c0-0.2,0.2-0.7,1-0.7
			c0.4,0,0.8,0.1,0.8,0.4c0,0.3-0.2,0.3-0.3,0.3c-0.1,0-0.2-0.1-0.2-0.2c0,0,0-0.2,0.2-0.2C152.3,106,152,106,151.9,106z"/>
	</g>
	<g>
		<path class="st1" d="M266.9,61.8c1.7,0,3,1.6,3,3.5c0,1.9-1.4,3.3-3,3.3h-3.6v-0.3h0.2c0.8,0,0.8-0.1,0.8-0.5v-5.3
			c0-0.4,0-0.5-0.8-0.5h-0.2v-0.3H266.9z M266.6,68.3c1,0,1.6-0.6,1.8-0.8c0.4-0.5,0.5-1.1,0.5-2.2c0-0.8-0.1-1.6-0.5-2.2
			c-0.5-0.7-1.2-0.9-1.8-0.9h-1c-0.5,0-0.5,0.1-0.5,0.4v5.4c0,0.3,0,0.4,0.5,0.4H266.6z"/>
		<path class="st1" d="M271.4,70.9c0,0.1-0.1,0.2-0.2,0.2c-0.1,0-0.2-0.1-0.2-0.2c0,0,0,0,0-0.2l3.4-9.4c0-0.1,0.1-0.2,0.2-0.2
			c0.1,0,0.2,0.1,0.2,0.2c0,0,0,0,0,0.2L271.4,70.9z"/>
	</g>
	<g>
		<path class="st1" d="M279.5,61.6c1,0,1.5,0.5,1.8,0.9l0.5-0.7c0.1-0.1,0.1-0.1,0.2-0.1c0.1,0,0.1,0.1,0.1,0.2v2.4
			c0,0.2,0,0.2-0.2,0.2c-0.1,0-0.1,0-0.2-0.2c-0.2-1.5-1.1-2.4-2.2-2.4c-0.6,0-2.6,0.3-2.6,3.3c0,3,2,3.3,2.6,3.3
			c1.1,0,2.2-0.8,2.2-2.2c0-0.1,0-0.2,0.1-0.2c0.1,0,0.1,0.1,0.1,0.2c0,1.2-1,2.5-2.6,2.5c-1.9,0-3.5-1.6-3.5-3.6
			C276.1,63.2,277.7,61.6,279.5,61.6z"/>
	</g>
	<polygon class="st2" points="255.1,66.1 255.1,51.9 290.5,51.9 290.5,80.3 255.1,80.3 	"/>
	<polyline points="275.1,84.8 272.8,80.3 270.6,84.8 272.8,83.7 	"/>
	<line class="st2" x1="272.8" y1="94.4" x2="272.8" y2="83.7"/>
	<g>
		<path class="st1" d="M259.3,102.7c0,0.1-0.2,1.3-0.6,1.9c-0.2,0.4-0.6,1-1.1,1c-0.4,0-0.8-0.2-0.8-0.7c0-0.4,0.3-0.6,0.5-0.6
			c0.2,0,0.4,0.1,0.4,0.3c0,0.1-0.1,0.5-0.5,0.5c0.2,0.2,0.4,0.2,0.5,0.2c0.5,0,0.7-0.9,0.9-1.9l0.7-3.9h-0.7c-0.2,0-0.3,0-0.3-0.1
			c0-0.2,0.1-0.2,0.3-0.2h0.7c0.2-1.3,0.3-1.4,0.3-1.6c0.3-1,0.9-1.2,1.3-1.2c0.4,0,0.9,0.2,0.9,0.7c0,0.4-0.3,0.6-0.5,0.6
			c-0.2,0-0.4-0.1-0.4-0.3c0-0.1,0.1-0.5,0.5-0.5c-0.2-0.2-0.4-0.2-0.5-0.2c-0.2,0-0.4,0.1-0.5,0.3c-0.1,0.1-0.2,0.8-0.2,1l-0.2,1.1
			h0.8c0.2,0,0.3,0,0.3,0.1c0,0.2-0.1,0.2-0.3,0.2h-0.9L259.3,102.7z"/>
	</g>
	<g>
		<path class="st1" d="M263.5,102.1c-0.1,0-0.4,0-0.6,0.1c-0.2,0.1-0.3,0.3-0.3,0.4c0,0.2,0.1,0.3,0.4,0.3c0,0,0.2,0,0.3,0.1
			c0.3,0,1,0.2,1,0.8c0,0.3-0.2,1.2-1.5,1.2c-0.7,0-1.1-0.3-1.1-0.7c0-0.3,0.2-0.5,0.4-0.5c0.1,0,0.3,0.1,0.3,0.3
			c0,0.2-0.2,0.4-0.4,0.4c0.2,0.2,0.6,0.3,0.8,0.3c0.1,0,0.4,0,0.7-0.2c0.3-0.2,0.4-0.4,0.4-0.6c0-0.3-0.4-0.4-0.6-0.5
			c-0.5-0.1-0.6-0.1-0.8-0.3c-0.1-0.1-0.2-0.3-0.2-0.5c0-0.2,0.2-1,1.3-1c0.4,0,0.9,0.2,0.9,0.6c0,0.4-0.3,0.4-0.3,0.4
			c-0.1,0-0.2-0.1-0.2-0.2c0-0.1,0.1-0.3,0.3-0.3C264,102.1,263.6,102.1,263.5,102.1z"/>
	</g>
	<g>
		<path class="st1" d="M269,100.3c-0.1,0-0.3,0-0.3-0.2c0-0.2,0.2-0.2,0.3-0.2h6c0.1,0,0.3,0,0.3,0.2c0,0.2-0.2,0.2-0.3,0.2H269z
			 M269,102.2c-0.1,0-0.3,0-0.3-0.2s0.2-0.2,0.3-0.2h5.9c0.1,0,0.3,0,0.3,0.2s-0.2,0.2-0.3,0.2H269z"/>
	</g>
	<g>
		<path class="st1" d="M284.5,99c0,0.2,0,0.3,0.7,0.3h0.3v0.3c-0.2,0-1,0-1.2,0c-0.3,0-1.1,0-1.2,0v-0.3h0.3c0.7,0,0.7-0.1,0.7-0.3
			v-3.6c-0.4,0.2-0.8,0.2-1,0.2v-0.3c0.3,0,0.9,0,1.4-0.4c0.2,0,0.2,0,0.2,0.2V99z"/>
	</g>
	<polyline points="279.8,101.3 288.5,101.3 288.5,100.8 279.8,100.8 	"/>
	<g>
		<path class="st1" d="M282.3,106.5c0,0.1,0,0.1,0,0.2c0,0.1,0,0.1,0.3,0.1c0.1,0,0.3,0,0.4,0c0.2,0,0.3,0,0.3,0.1
			c0,0.2-0.1,0.2-0.2,0.2c-0.2,0-0.4,0-0.6,0c-0.2,0-0.4,0-0.6,0c-0.2,0-0.4,0-0.6,0s-0.4,0-0.6,0c-0.1,0-0.1-0.1-0.1-0.1
			c0-0.2,0.1-0.2,0.3-0.2c0.7,0,0.8-0.1,0.8-0.3l0.9-3.7c0-0.1,0-0.1,0-0.1c0-0.1,0-0.1-0.2-0.1h-0.3c-1.1,0-1.3,0.1-1.7,1.2
			c0,0.1-0.1,0.2-0.1,0.2c-0.1,0-0.1-0.1-0.1-0.1c0,0,0-0.1,0-0.1l0.4-1.2c0-0.1,0.1-0.1,0.2-0.1h4.3c0.1,0,0.2,0,0.2,0.1l-0.2,1.3
			c0,0.1,0,0.2-0.1,0.2c-0.1,0-0.1,0-0.1-0.1l0-0.1c0-0.4,0-0.5,0-0.6c0-0.3,0-0.5-0.3-0.6c-0.2-0.1-0.4-0.1-0.8-0.1
			c-0.1,0-0.4,0-0.4,0c-0.2,0-0.2,0-0.2,0.2L282.3,106.5z"/>
	</g>
	<g>
		<path class="st1" d="M286.5,106c-0.7,0-0.7,0.4-0.7,0.4c0,0.2,0.2,0.2,0.6,0.3c0.3,0,0.8,0.1,0.8,0.6c0,0.2-0.2,0.8-1.2,0.8
			c-0.1,0-0.9,0-0.9-0.5c0-0.2,0.1-0.4,0.3-0.4c0.1,0,0.2,0.1,0.2,0.2c0,0.1-0.1,0.3-0.3,0.3c0.2,0.2,0.5,0.2,0.7,0.2
			c0.9,0,0.9-0.5,0.9-0.5c0-0.3-0.3-0.3-0.7-0.4c-0.3,0-0.4-0.1-0.6-0.2c-0.1-0.1-0.2-0.2-0.2-0.4c0-0.2,0.2-0.7,1-0.7
			c0.4,0,0.8,0.1,0.8,0.4c0,0.3-0.2,0.3-0.3,0.3c-0.1,0-0.2-0.1-0.2-0.2c0,0,0-0.2,0.2-0.2C286.9,106,286.6,106,286.5,106z"/>
	</g>
	<polyline points="314.4,68.4 318.9,66.1 314.4,63.8 315.5,66.1 	"/>
	<line class="st2" x1="290.5" y1="66.1" x2="315.5" y2="66.1"/>
	<g>
		<path class="st0" d="M300.4,57.9c-0.3,1.1-1.3,2-2.3,2c-0.6,0-1.1-0.4-1.1-0.9c0-0.5,0.3-0.6,0.6-0.6c0.1,0,0.4,0,0.4,0.3
			c0,0.2-0.1,0.3-0.2,0.4c-0.1,0.1-0.3,0.1-0.4,0.1c0.2,0.4,0.6,0.4,0.8,0.4c0.5,0,0.8-0.3,1.1-0.6c0.4-0.5,0.5-1,0.6-1.5
			c-0.3,0.3-0.6,0.4-1,0.4c-0.6,0-1.2-0.3-1.2-1.2c0-0.5,0.2-1,0.6-2.1c0.1-0.2,0.2-0.4,0.2-0.7c0-0.3-0.2-0.3-0.2-0.3
			c-0.3,0-0.7,0.3-1,1.2c0,0.2-0.1,0.2-0.2,0.2c0,0-0.1,0-0.1-0.1c0-0.1,0.4-1.5,1.3-1.5c0.5,0,0.8,0.4,0.8,0.8c0,0.2,0,0.3-0.2,0.7
			c-0.3,0.9-0.5,1.5-0.5,2c0,0.4,0.1,0.8,0.6,0.8c0.7,0,1.1-0.7,1.1-0.8l0.4-1.8c0.1-0.3,0.1-0.5,0.2-0.8c0-0.2,0.1-0.5,0.1-0.5
			c0.1-0.1,0.2-0.2,0.3-0.2c0.1,0,0.3,0.1,0.3,0.3c0,0.1,0,0.1,0,0.2L300.4,57.9z"/>
	</g>
	<g>
		<path class="st0" d="M305,60.4c-0.1,0-1-0.6-1.6-1.9c-0.5-1.1-0.7-2.3-0.7-3.1c0-0.8,0.1-1.9,0.6-3c0.6-1.3,1.5-1.9,1.6-1.9
			c0.1,0,0.1,0,0.1,0.1c0,0,0,0-0.1,0.2c-1.2,1.2-1.6,3-1.6,4.7c0,1.5,0.3,3.4,1.6,4.7C305.1,60.3,305.1,60.3,305,60.4
			C305.1,60.4,305.1,60.4,305,60.4z"/>
	</g>
	<g>
		<path class="st0" d="M307,56.9c0,0.2-0.1,0.2-0.1,0.5c0,0.3,0.1,0.5,0.3,0.5c0.3,0,0.9-0.2,1.3-1.3c0-0.1,0.1-0.1,0.1-0.1
			c0,0,0.1,0,0.1,0.1c0,0.1-0.6,1.5-1.6,1.5c-0.5,0-0.9-0.4-0.9-0.9c0-0.2,0-0.3,0.8-3.2h-0.9c-0.2,0-0.3,0-0.3-0.1
			c0-0.2,0.1-0.2,0.3-0.2h0.9l0.4-1.6c0.1-0.3,0.4-0.4,0.4-0.4c0.2,0,0.3,0.1,0.3,0.3c0,0.1,0,0.3-0.4,1.7h0.9c0.2,0,0.3,0,0.3,0.1
			c0,0.2-0.1,0.2-0.3,0.2h-0.9L307,56.9z"/>
	</g>
	<g>
		<path class="st0" d="M311.5,58.5c-0.6,1.3-1.5,1.9-1.6,1.9c-0.1,0-0.1,0-0.1-0.1c0,0,0-0.1,0.1-0.2c1.2-1.3,1.6-3,1.6-4.7
			c0-2.1-0.6-3.7-1.5-4.7c-0.2-0.2-0.2-0.2-0.2-0.2c0-0.1,0-0.1,0.1-0.1c0.1,0,1,0.6,1.6,1.9c0.5,1.1,0.7,2.3,0.7,3.1
			C312.1,56.3,312,57.4,311.5,58.5z"/>
	</g>
	<g>
		<path class="st1" d="M195.5,69.4c0,0.1,0,0.1,0,0.2c0,0.2,0.3,0.2,0.6,0.2c0.2,0,0.3,0,0.3,0.1c0,0.2-0.1,0.2-0.2,0.2
			c-0.2,0-0.4,0-0.6,0c-0.2,0-0.4,0-0.6,0c-0.3,0-1,0-1.3,0c0,0-0.1,0-0.1-0.1c0-0.2,0.1-0.2,0.2-0.2c0.6,0,0.8,0,0.9-0.3
			c0-0.1,0.3-1.1,0.7-2.8h-3l-0.7,2.7c0,0.1,0,0.1,0,0.2c0,0.2,0.3,0.2,0.6,0.2c0.2,0,0.3,0,0.3,0.1c0,0.2-0.1,0.2-0.2,0.2
			c-0.2,0-0.4,0-0.6,0c-0.2,0-0.4,0-0.6,0c-0.3,0-1,0-1.3,0c0,0-0.1,0-0.1-0.1c0-0.2,0.1-0.2,0.3-0.2c0.8,0,0.8-0.1,0.9-0.5l1.3-5.4
			c0-0.1,0-0.1,0-0.2c0-0.1-0.1-0.1-0.3-0.2c-0.2,0-0.4,0-0.4,0c-0.2,0-0.3,0-0.3-0.1c0-0.2,0.1-0.2,0.2-0.2c0.3,0,1,0,1.3,0
			c0.3,0,1,0,1.3,0c0,0,0.1,0,0.1,0.1c0,0.2-0.1,0.2-0.3,0.2c-0.7,0-0.7,0.1-0.8,0.5l-0.6,2.3h3l0.6-2.4c0-0.1,0-0.1,0-0.2
			c0-0.1-0.1-0.1-0.3-0.2c-0.2,0-0.4,0-0.4,0c-0.2,0-0.3,0-0.3-0.1c0-0.2,0.1-0.2,0.2-0.2c0.3,0,1,0,1.3,0c0.3,0,1,0,1.3,0
			c0,0,0.1,0,0.1,0.1c0,0.2-0.1,0.2-0.3,0.2c-0.7,0-0.7,0.1-0.8,0.5L195.5,69.4z"/>
	</g>
	<g>
		<path class="st1" d="M200.5,70.8c0,0.1,0,0.2,0,0.3c0,0.2,0,0.3,0.2,0.3c0.3,0,0.4-0.4,0.5-0.7c0-0.2,0.1-0.2,0.2-0.2
			c0,0,0.1,0,0.1,0.1c0,0-0.1,0.4-0.2,0.7c-0.1,0.2-0.3,0.4-0.6,0.4c-0.2,0-0.6-0.1-0.7-0.5c-0.3,0.3-0.6,0.5-1,0.5
			c-0.6,0-1.1-0.5-1.1-1.2c0-1,0.9-2,1.8-2c0.3,0,0.6,0.2,0.7,0.4l0.4-1.6c0-0.1,0-0.1,0-0.2c0-0.1,0-0.1-0.3-0.1
			c-0.1,0-0.2,0-0.2-0.1c0-0.1,0.1-0.2,0.2-0.2c0.2,0,0.8-0.1,0.9-0.1c0.1,0,0.1,0.1,0.1,0.1c0,0,0,0.1,0,0.1L200.5,70.8z
			 M200.3,69.3C200.3,69.3,200.4,69.3,200.3,69.3c0-0.2-0.1-0.7-0.6-0.7c-0.2,0-0.6,0.1-0.9,0.7c-0.2,0.3-0.4,1-0.4,1.4
			c0,0.5,0.3,0.7,0.5,0.7c0.3,0,0.6-0.2,0.6-0.3c0.2-0.1,0.3-0.3,0.4-0.5L200.3,69.3z"/>
	</g>
	<g>
		<path class="st1" d="M205.4,72.6c-0.1,0-1-0.6-1.6-1.9c-0.5-1.1-0.7-2.3-0.7-3.1c0-0.8,0.1-1.9,0.6-3c0.6-1.3,1.5-1.9,1.6-1.9
			c0.1,0,0.1,0,0.1,0.1c0,0,0,0-0.1,0.2c-1.2,1.2-1.6,3-1.6,4.7c0,1.5,0.3,3.4,1.6,4.7C205.5,72.4,205.5,72.4,205.4,72.6
			C205.5,72.5,205.5,72.6,205.4,72.6z"/>
		<path class="st1" d="M207.4,69.3c0.2,0.4,0.6,0.7,1.1,0.7c0.1,0,1,0,1.3-1c0-0.1,0-0.1,0.1-0.1c0,0,0.1,0,0.1,0.1
			c0,0.2-0.4,1.3-1.7,1.3c-1.1,0-2.2-1-2.2-2.3c0-1.2,0.9-2.3,2.1-2.3c1.2,0,1.8,1,1.8,2c0,0.2,0,0.2-0.2,0.2h-2.8
			C207.1,68.1,207.1,68.8,207.4,69.3z M209.5,67.6c0-0.4-0.1-1.7-1.1-1.7c-0.3,0-1.2,0.2-1.2,1.7H209.5z"/>
	</g>
	<g>
		<path class="st1" d="M212.6,66.8c0,0.9-0.6,1.5-1.4,1.5c-0.6,0-1.1-0.3-1.1-0.8c0-0.3,0.2-0.5,0.5-0.5c0.3,0,0.5,0.2,0.5,0.5
			c0,0.3-0.2,0.4-0.3,0.4c0.3,0.1,0.5,0.1,0.5,0.1c0.6,0,0.7-0.9,0.7-1.3v-3.9c0-0.5-0.1-0.6-0.9-0.6V62l1.5-0.1V66.8z M212,60.7
			c-0.3,0-0.5-0.2-0.5-0.5s0.2-0.5,0.5-0.5s0.5,0.2,0.5,0.5S212.3,60.7,212,60.7z"/>
	</g>
	<g>
		<path class="st1" d="M214.9,66.4c-0.6,0-1-0.7-1-1.5c0-1.6,1.1-3.5,2.2-3.5c0.7,0,1,0.8,1,1.5C217,64.5,215.9,66.4,214.9,66.4z
			 M214.6,64c-0.1,0.3-0.2,0.8-0.2,1.3c0,0.4,0.1,0.9,0.4,0.9c0.3,0,0.6-0.3,0.8-0.7c0.2-0.3,0.4-0.7,0.6-1.5H214.6z M216.3,63.8
			c0.1-0.6,0.2-1,0.2-1.3c0-0.1,0-0.9-0.4-0.9c-0.4,0-1,0.7-1.4,2.2H216.3z"/>
	</g>
	<g>
		<path class="st1" d="M220.3,70.6c-0.6,1.3-1.5,1.9-1.6,1.9c-0.1,0-0.1,0-0.1-0.1c0,0,0-0.1,0.1-0.2c1.2-1.3,1.6-3,1.6-4.7
			c0-2.1-0.6-3.7-1.5-4.7c-0.2-0.2-0.2-0.2-0.2-0.2c0-0.1,0-0.1,0.1-0.1c0.1,0,1,0.6,1.6,1.9c0.5,1.1,0.7,2.3,0.7,3.1
			C220.9,68.4,220.8,69.5,220.3,70.6z"/>
	</g>
	<polygon class="st2" points="184.3,66.1 184.3,80.3 226.8,80.3 226.8,51.9 184.3,51.9 	"/>
	<polyline points="115.9,68.4 120.5,66.1 115.9,63.8 117.1,66.1 	"/>
	<line class="st2" x1="92.1" y1="66.1" x2="117.1" y2="66.1"/>
	<g>
		<path class="st3" d="M97.3,56.3c-0.1,0.4-0.2,0.7-0.2,0.9c0,0.3,0.2,0.7,0.5,0.7c0.3,0,1-0.2,1.3-1.3c0-0.1,0-0.1,0.1-0.1
			c0,0,0.1,0,0.1,0.1c0,0.2-0.6,1.5-1.6,1.5c-0.6,0-1-0.4-1.1-0.8c0,0.1-0.4,0.8-1,0.8c-0.4,0-0.9-0.2-0.9-0.7
			c0-0.3,0.2-0.6,0.5-0.6c0.1,0,0.4,0.1,0.4,0.3c0,0.3-0.2,0.5-0.5,0.5c0.2,0.1,0.4,0.1,0.5,0.1c0.4,0,0.8-0.4,0.9-1
			c0.4-1.4,0.5-2.1,0.5-2.4c0-0.6-0.3-0.7-0.5-0.7c-0.3,0-1,0.2-1.3,1.3c0,0.1-0.1,0.1-0.1,0.1c0,0-0.1,0-0.1-0.1
			c0-0.2,0.6-1.5,1.6-1.5c0.3,0,0.8,0.1,1.1,0.8c0.1-0.2,0.5-0.8,1-0.8c0.3,0,0.9,0.1,0.9,0.7c0,0.4-0.3,0.6-0.5,0.6
			c-0.3,0-0.4-0.2-0.4-0.3c0-0.2,0.2-0.5,0.5-0.5c-0.2-0.1-0.4-0.1-0.5-0.1c-0.7,0-0.9,0.9-1,1.2L97.3,56.3z"/>
	</g>
	<g>
		<path class="st3" d="M103.2,60.4c-0.1,0-1-0.6-1.6-1.9c-0.5-1.1-0.7-2.3-0.7-3.1c0-0.8,0.1-1.9,0.6-3c0.6-1.3,1.5-1.9,1.6-1.9
			c0.1,0,0.1,0,0.1,0.1c0,0,0,0-0.1,0.2c-1.2,1.2-1.6,3-1.6,4.7c0,1.5,0.3,3.4,1.6,4.7C103.3,60.3,103.3,60.3,103.2,60.4
			C103.3,60.4,103.2,60.4,103.2,60.4z"/>
	</g>
	<g>
		<path class="st3" d="M105.1,56.9c0,0.2-0.1,0.2-0.1,0.5c0,0.3,0.1,0.5,0.3,0.5c0.3,0,0.9-0.2,1.3-1.3c0-0.1,0.1-0.1,0.1-0.1
			c0,0,0.1,0,0.1,0.1c0,0.1-0.6,1.5-1.6,1.5c-0.5,0-0.9-0.4-0.9-0.9c0-0.2,0-0.3,0.8-3.2h-0.9c-0.2,0-0.3,0-0.3-0.1
			c0-0.2,0.1-0.2,0.3-0.2h0.9l0.4-1.6c0.1-0.3,0.4-0.4,0.4-0.4c0.2,0,0.3,0.1,0.3,0.3c0,0.1,0,0.3-0.4,1.7h0.9c0.2,0,0.3,0,0.3,0.1
			c0,0.2-0.1,0.2-0.3,0.2h-0.9L105.1,56.9z"/>
	</g>
	<g>
		<path class="st3" d="M109.7,58.5c-0.6,1.3-1.5,1.9-1.6,1.9c-0.1,0-0.1,0-0.1-0.1c0,0,0-0.1,0.1-0.2c1.2-1.3,1.6-3,1.6-4.7
			c0-2.1-0.6-3.7-1.5-4.7c-0.2-0.2-0.2-0.2-0.2-0.2c0-0.1,0-0.1,0.1-0.1c0.1,0,1,0.6,1.6,1.9c0.5,1.1,0.7,2.3,0.7,3.1
			C110.3,56.3,110.2,57.4,109.7,58.5z"/>
	</g>
	<polygon class="st2" points="255.1,158.2 255.1,137 311.8,137 311.8,179.5 255.1,179.5 	"/>
	<g>
		<path class="st1" d="M270.2,150.6c0.4,0,1-0.1,1.3-1c0-0.1,0-0.1,0.1-0.1c0,0,0.1,0,0.1,0.1s-0.3,1.3-1.7,1.3
			c-1.2,0-2.1-1-2.1-2.3c0-1.2,0.9-2.3,2.2-2.3c0.8,0,1.5,0.4,1.5,1.1c0,0.3-0.2,0.5-0.5,0.5c-0.3,0-0.5-0.2-0.5-0.5
			c0-0.1,0.1-0.4,0.5-0.5c-0.3-0.4-1-0.4-1.1-0.4c-0.5,0-1.3,0.4-1.3,2C268.8,150.1,269.6,150.6,270.2,150.6z"/>
		<path class="st1" d="M274.5,150.8c-1.2,0-2.2-1-2.2-2.2c0-1.2,1-2.3,2.2-2.3c1.2,0,2.2,1.1,2.2,2.3
			C276.7,149.8,275.7,150.8,274.5,150.8z M275.7,149.8c0.2-0.4,0.2-1,0.2-1.3c0-0.4,0-1-0.3-1.4c-0.3-0.4-0.7-0.6-1.1-0.6
			c-0.4,0-0.9,0.2-1.1,0.7c-0.2,0.4-0.2,1-0.2,1.4c0,0.4,0,1,0.2,1.4c0.3,0.5,0.7,0.7,1.1,0.7C275,150.6,275.5,150.3,275.7,149.8z"
			/>
	</g>
	<g>
		<path class="st1" d="M277.4,146.7v-0.3l1.4-0.1v1c0.3-0.6,0.7-1,1.5-1c0.6,0,0.9,0.2,1,0.4c0.3,0.4,0.3,0.7,0.3,1.5v1.9
			c0,0.3,0.3,0.3,0.8,0.3v0.3c-0.3,0-0.9,0-1.1,0c-0.3,0-0.8,0-1.1,0v-0.3c0.7,0,0.8,0,0.8-0.4v-2.3c0-0.6-0.1-1.1-0.7-1.1
			c-0.6,0-1.3,0.6-1.3,1.6v1.8c0,0.4,0.1,0.4,0.8,0.4v0.3c-0.3,0-0.9,0-1.1,0c-0.3,0-0.8,0-1.1,0v-0.3c0.7,0,0.8,0,0.8-0.4v-2.7
			C278.2,146.8,278.1,146.7,277.4,146.7z"/>
		<path class="st1" d="M285.2,150.6c0,0.1-0.1,0.2-0.2,0.2c-0.1,0-0.1,0-0.2-0.2l-1.4-3.5c-0.1-0.3-0.2-0.4-0.8-0.4v-0.3
			c0.3,0,0.7,0,1,0c0.2,0,0.8,0,1.1,0v0.3c-0.2,0-0.6,0-0.6,0.3c0,0,0,0,0.1,0.2l1.1,2.8l1-2.5c0-0.1,0.1-0.1,0.1-0.2
			c0-0.2-0.1-0.4-0.5-0.4v-0.3c0.2,0,0.6,0,0.9,0c0.2,0,0.5,0,0.7,0v0.3c-0.7,0-0.8,0.4-0.9,0.7L285.2,150.6z"/>
	</g>
	<g>
		<path class="st1" d="M288.8,149.9c0.2,0.4,0.6,0.7,1.1,0.7c0.1,0,1,0,1.3-1c0-0.1,0-0.1,0.1-0.1c0,0,0.1,0,0.1,0.1
			c0,0.2-0.4,1.3-1.7,1.3c-1.1,0-2.2-1-2.2-2.3c0-1.2,0.9-2.3,2.1-2.3c1.2,0,1.8,1,1.8,2c0,0.2,0,0.2-0.2,0.2h-2.8
			C288.5,148.8,288.5,149.4,288.8,149.9z M290.9,148.2c0-0.4-0.1-1.7-1.1-1.7c-0.3,0-1.2,0.3-1.2,1.7H290.9z"/>
		<path class="st1" d="M294.7,146.3c0.4,0,0.7,0.3,0.7,0.6c0,0.3-0.2,0.4-0.4,0.4c-0.2,0-0.4-0.2-0.4-0.4c0-0.3,0.2-0.4,0.2-0.4
			c0,0,0,0-0.1,0c-0.8,0-1.2,0.9-1.2,1.9v1.5c0,0.4,0,0.5,0.8,0.5h0.2v0.3c-0.4,0-0.9,0-1.3,0c-0.3,0-0.7,0-1.1,0v-0.3
			c0.7,0,0.8,0,0.8-0.4v-2.7c0-0.5-0.1-0.6-0.8-0.6v-0.3l1.4-0.1v1.1C293.6,147,294,146.3,294.7,146.3z"/>
	</g>
	<g>
		<path class="st1" d="M297.5,149.5c0,0.2,0,1.1,0.7,1.1c0.4,0,0.7-0.4,0.7-1.1v-0.5h0.2v0.6c0,0.6-0.3,1.3-1,1.3
			c-0.4,0-1.3-0.1-1.3-1.3v-2.8H296v-0.2c1,0,1.3-1.1,1.3-1.9h0.2v1.8h1.4v0.3h-1.4V149.5z"/>
	</g>
	<g>
		<path class="st1" d="M267.3,158.4c-0.3-0.2-0.4-0.5-0.4-0.8c0-0.6,0.4-1.2,1.6-1.2c0.1,0,0.6,0,0.9,0.3c0,0,0.1-0.1,0.2-0.2
			c0.1-0.1,0.1-0.1,0.2-0.1c0.1,0,0.1,0.1,0.1,0.2v1c0,0.2,0,0.2-0.1,0.2c0,0-0.1,0-0.1-0.1c0-0.3-0.1-1.2-1.2-1.2
			c-0.9,0-1.1,0.4-1.1,0.8c0,0.6,0.7,0.7,1.2,0.8c0.4,0.1,0.8,0.2,1.1,0.5c0.1,0.1,0.4,0.4,0.4,0.9c0,0.7-0.5,1.4-1.6,1.4
			c-0.2,0-0.7,0-1.1-0.4c-0.2,0.2-0.2,0.2-0.2,0.2c-0.2,0.2-0.2,0.2-0.2,0.2c-0.1,0-0.1-0.1-0.1-0.2v-1.3c0-0.2,0-0.3,0.1-0.3
			c0.1,0,0.1,0,0.1,0.2c0.2,0.8,0.5,1.4,1.4,1.4c0.8,0,1.1-0.4,1.1-0.9c0-0.7-0.8-0.9-1-0.9C267.9,158.7,267.6,158.6,267.3,158.4z"
			/>
		<path class="st1" d="M272.5,160.9c-0.6,0-1.6-0.2-1.6-1.1c0-0.4,0.2-1,1-1.3c0.6-0.3,1.3-0.3,1.8-0.4v-0.4c0-0.9-0.6-1.3-1.1-1.3
			c-0.3,0-0.8,0.1-1.1,0.5c0.5,0,0.5,0.3,0.5,0.5c0,0.3-0.2,0.5-0.5,0.5c-0.3,0-0.5-0.2-0.5-0.5c0-0.7,0.7-1.1,1.5-1.1
			c0.5,0,1,0.2,1.4,0.5c0.4,0.4,0.4,0.8,0.4,1.2v2c0,0,0,0.5,0.4,0.5c0.1,0,0.4-0.1,0.4-0.6v-0.6h0.2v0.6c0,0.8-0.6,0.9-0.8,0.9
			c-0.5,0-0.7-0.4-0.8-0.8C273.6,160.5,273.1,160.9,272.5,160.9z M271.6,159.8c0,0.5,0.4,0.8,0.9,0.8c0.4,0,1.2-0.3,1.2-1.3v-1
			C272,158.4,271.6,159.3,271.6,159.8z"/>
		<path class="st1" d="M275.7,156.8v-0.3l1.4-0.1v1c0.3-0.6,0.7-1,1.5-1c0.4,0,1.2,0.1,1.3,1c0.2-0.4,0.6-1,1.4-1
			c0.6,0,0.9,0.2,1,0.4c0.3,0.4,0.3,0.7,0.3,1.5v1.9c0,0.3,0.3,0.3,0.8,0.3v0.3c-0.3,0-0.9,0-1.1,0c-0.3,0-0.8,0-1.1,0v-0.3
			c0.7,0,0.8,0,0.8-0.4v-2.3c0-0.6-0.1-1.1-0.7-1.1c-0.6,0-1.3,0.6-1.3,1.6v1.8c0,0.4,0.1,0.4,0.8,0.4v0.3c-0.3,0-0.9,0-1.1,0
			c-0.3,0-0.8,0-1.1,0v-0.3c0.7,0,0.8,0,0.8-0.4v-2.3c0-0.6-0.1-1.1-0.7-1.1c-0.6,0-1.3,0.6-1.3,1.6v1.8c0,0.4,0.1,0.4,0.8,0.4v0.3
			c-0.3,0-0.9,0-1.1,0c-0.3,0-0.8,0-1.1,0v-0.3c0.7,0,0.8,0,0.8-0.4v-2.7C276.5,156.9,276.4,156.8,275.7,156.8z"/>
		<path class="st1" d="M286.8,156.4c1.1,0,2.1,1,2.1,2.3c0,1.3-1,2.3-2.2,2.3c-0.8,0-1.2-0.5-1.2-0.7v0.1v1.7c0,0.4,0.1,0.4,0.8,0.4
			v0.3c-0.3,0-0.9,0-1.1,0c-0.3,0-0.8,0-1.1,0v-0.3c0.7,0,0.8,0,0.8-0.4v-4.7c0-0.4-0.1-0.5-0.8-0.5v-0.3l1.4-0.1v0.7
			C285.6,156.8,286.1,156.4,286.8,156.4z M285.6,160.1c0.3,0.4,0.6,0.6,1,0.6c0.7,0,1.4-0.8,1.4-2c0-1.1-0.6-2-1.3-2
			c-0.5,0-1,0.3-1.3,0.8v2.2C285.5,159.8,285.5,159.8,285.6,160.1z"/>
		<path class="st1" d="M291,160c0,0.4,0.1,0.4,0.8,0.4v0.3c-0.4,0-0.9,0-1.1,0s-0.8,0-1.1,0v-0.3c0.7,0,0.8,0,0.8-0.4v-5.2
			c0-0.5-0.1-0.6-0.8-0.6V154l1.4-0.1V160z"/>
		<path class="st1" d="M293.4,160c0.2,0.4,0.6,0.7,1.1,0.7c0.1,0,1,0,1.3-1c0-0.1,0-0.1,0.1-0.1c0,0,0.1,0,0.1,0.1
			c0,0.2-0.4,1.3-1.7,1.3c-1.1,0-2.2-1-2.2-2.3c0-1.2,0.9-2.3,2.1-2.3c1.2,0,1.8,1,1.8,2c0,0.2,0,0.2-0.2,0.2h-2.8
			C293.1,158.8,293.1,159.5,293.4,160z M295.5,158.3c0-0.4-0.1-1.7-1.1-1.7c-0.3,0-1.2,0.3-1.2,1.7H295.5z"/>
	</g>
	<g>
		<path class="st1" d="M297.3,158.4c-0.3-0.2-0.4-0.5-0.4-0.8c0-0.6,0.4-1.2,1.6-1.2c0.1,0,0.6,0,0.9,0.3c0,0,0.1-0.1,0.2-0.2
			c0.1-0.1,0.1-0.1,0.2-0.1c0.1,0,0.1,0.1,0.1,0.2v1c0,0.2,0,0.2-0.1,0.2c0,0-0.1,0-0.1-0.1c0-0.3-0.1-1.2-1.2-1.2
			c-0.9,0-1.1,0.4-1.1,0.8c0,0.6,0.7,0.7,1.2,0.8c0.4,0.1,0.8,0.2,1.1,0.5c0.1,0.1,0.4,0.4,0.4,0.9c0,0.7-0.5,1.4-1.6,1.4
			c-0.2,0-0.7,0-1.1-0.4c-0.2,0.2-0.2,0.2-0.2,0.2c-0.2,0.2-0.2,0.2-0.2,0.2c-0.1,0-0.1-0.1-0.1-0.2v-1.3c0-0.2,0-0.3,0.1-0.3
			c0.1,0,0.1,0,0.1,0.2c0.2,0.8,0.5,1.4,1.4,1.4c0.8,0,1.1-0.4,1.1-0.9c0-0.7-0.8-0.9-1-0.9C297.9,158.7,297.6,158.6,297.3,158.4z"
			/>
	</g>
	<g>
		<path class="st1" d="M266.1,170.1c0,0.2,0,1.1,0.7,1.1c0.4,0,0.7-0.4,0.7-1.1v-0.5h0.2v0.6c0,0.6-0.3,1.3-1,1.3
			c-0.4,0-1.3-0.1-1.3-1.3v-2.8h-0.8v-0.2c1,0,1.3-1.1,1.3-1.9h0.2v1.8h1.4v0.3h-1.4V170.1z"/>
		<path class="st1" d="M270.7,171.5c-1.2,0-2.2-1-2.2-2.2c0-1.2,1-2.3,2.2-2.3c1.2,0,2.2,1.1,2.2,2.3
			C272.9,170.5,271.9,171.5,270.7,171.5z M271.8,170.5c0.2-0.4,0.2-1,0.2-1.3c0-0.4,0-1-0.3-1.4c-0.3-0.4-0.7-0.6-1.1-0.6
			c-0.4,0-0.9,0.2-1.1,0.7c-0.2,0.4-0.2,1-0.2,1.4c0,0.4,0,1,0.2,1.4c0.3,0.5,0.7,0.7,1.1,0.7C271.2,171.2,271.6,170.9,271.8,170.5z
			"/>
	</g>
	<g>
		<path class="st1" d="M279.6,166.9c1.1,0,2.1,1,2.1,2.3c0,1.3-1,2.3-2.2,2.3c-0.8,0-1.2-0.5-1.2-0.7v0.1v1.7c0,0.4,0.1,0.4,0.8,0.4
			v0.3c-0.3,0-0.9,0-1.1,0c-0.3,0-0.8,0-1.1,0V173c0.7,0,0.8,0,0.8-0.4v-4.7c0-0.4-0.1-0.5-0.8-0.5V167l1.4-0.1v0.7
			C278.4,167.4,278.8,166.9,279.6,166.9z M278.4,170.6c0.3,0.4,0.6,0.6,1,0.6c0.7,0,1.4-0.8,1.4-2c0-1.1-0.6-2-1.3-2
			c-0.5,0-1,0.3-1.3,0.8v2.2C278.2,170.4,278.2,170.4,278.4,170.6z"/>
		<path class="st1" d="M284.6,171.5c-1.5,0-1.5-0.9-1.5-1.7v-1.5c0-0.9,0-0.9-0.8-0.9V167l1.5-0.1v3.3c0,0.5,0,1,0.9,1
			c0.7,0,1.2-0.7,1.2-1.5v-1.8c0-0.5-0.1-0.6-0.8-0.6V167l1.5-0.1v3.5c0,0.5,0.1,0.6,0.8,0.6v0.3l-1.4,0.1v-0.9
			C285.6,171.2,285.2,171.5,284.6,171.5z"/>
		<path class="st1" d="M289.3,170.6c0,0.4,0.1,0.4,0.8,0.4v0.3c-0.4,0-0.9,0-1.1,0s-0.8,0-1.1,0V171c0.7,0,0.8,0,0.8-0.4v-5.2
			c0-0.5-0.1-0.6-0.8-0.6v-0.3l1.4-0.1V170.6z"/>
		<path class="st1" d="M291.1,169c-0.3-0.2-0.4-0.5-0.4-0.8c0-0.6,0.4-1.2,1.6-1.2c0.1,0,0.6,0,0.9,0.3c0,0,0.1-0.1,0.2-0.2
			c0.1-0.1,0.1-0.1,0.2-0.1c0.1,0,0.1,0.1,0.1,0.2v1c0,0.2,0,0.2-0.1,0.2c0,0-0.1,0-0.1-0.1c0-0.3-0.1-1.2-1.2-1.2
			c-0.9,0-1.1,0.4-1.1,0.8c0,0.6,0.7,0.7,1.2,0.8c0.4,0.1,0.8,0.2,1.1,0.5c0.1,0.1,0.4,0.4,0.4,0.9c0,0.7-0.5,1.4-1.6,1.4
			c-0.2,0-0.7,0-1.1-0.4c-0.2,0.2-0.2,0.2-0.2,0.2c-0.2,0.2-0.2,0.2-0.2,0.2c-0.1,0-0.1-0.1-0.1-0.2v-1.3c0-0.2,0-0.3,0.1-0.3
			c0.1,0,0.1,0,0.1,0.2c0.2,0.8,0.5,1.4,1.4,1.4c0.8,0,1.1-0.4,1.1-0.9c0-0.7-0.8-0.9-1-0.9C291.7,169.3,291.4,169.2,291.1,169z"/>
		<path class="st1" d="M295.6,170.5c0.2,0.4,0.6,0.7,1.1,0.7c0.1,0,1,0,1.3-1c0-0.1,0-0.1,0.1-0.1c0,0,0.1,0,0.1,0.1
			c0,0.2-0.4,1.3-1.7,1.3c-1.1,0-2.2-1-2.2-2.3c0-1.2,0.9-2.3,2.1-2.3c1.2,0,1.8,1,1.8,2c0,0.2,0,0.2-0.2,0.2h-2.8
			C295.3,169.4,295.3,170.1,295.6,170.5z M297.7,168.8c0-0.4-0.1-1.7-1.1-1.7c-0.3,0-1.2,0.3-1.2,1.7H297.7z"/>
	</g>
	<g>
		<path class="st1" d="M299.4,169c-0.3-0.2-0.4-0.5-0.4-0.8c0-0.6,0.4-1.2,1.6-1.2c0.1,0,0.6,0,0.9,0.3c0,0,0.1-0.1,0.2-0.2
			c0.1-0.1,0.1-0.1,0.2-0.1c0.1,0,0.1,0.1,0.1,0.2v1c0,0.2,0,0.2-0.1,0.2c0,0-0.1,0-0.1-0.1c0-0.3-0.1-1.2-1.2-1.2
			c-0.9,0-1.1,0.4-1.1,0.8c0,0.6,0.7,0.7,1.2,0.8c0.4,0.1,0.8,0.2,1.1,0.5c0.1,0.1,0.4,0.4,0.4,0.9c0,0.7-0.5,1.4-1.6,1.4
			c-0.2,0-0.7,0-1.1-0.4c-0.2,0.2-0.2,0.2-0.2,0.2c-0.2,0.2-0.2,0.2-0.2,0.2c-0.1,0-0.1-0.1-0.1-0.2v-1.3c0-0.2,0-0.3,0.1-0.3
			c0.1,0,0.1,0,0.1,0.2c0.2,0.8,0.5,1.4,1.4,1.4c0.8,0,1.1-0.4,1.1-0.9c0-0.7-0.8-0.9-1-0.9C300,169.3,299.8,169.2,299.4,169z"/>
	</g>
	<polyline points="335.6,160.5 340.2,158.2 335.6,156 336.8,158.2 	"/>
	<line class="st2" x1="311.8" y1="158.2" x2="336.8" y2="158.2"/>
	<polyline points="431.3,160.5 435.8,158.2 431.3,156 432.4,158.2 	"/>
	<line class="st2" x1="411" y1="158.2" x2="432.4" y2="158.2"/>
	<g>
		<path class="st0" d="M424.4,150.1c-0.3,1.1-1.3,2-2.3,2c-0.6,0-1.1-0.4-1.1-0.9c0-0.5,0.3-0.6,0.6-0.6c0.1,0,0.4,0,0.4,0.3
			c0,0.2-0.1,0.3-0.2,0.4c-0.1,0.1-0.3,0.1-0.4,0.1c0.2,0.4,0.6,0.4,0.8,0.4c0.5,0,0.8-0.3,1.1-0.6c0.4-0.5,0.5-1,0.6-1.5
			c-0.3,0.3-0.6,0.4-1,0.4c-0.6,0-1.2-0.3-1.2-1.2c0-0.5,0.2-1,0.6-2.1c0.1-0.2,0.2-0.4,0.2-0.7c0-0.3-0.2-0.3-0.2-0.3
			c-0.3,0-0.7,0.3-1,1.2c0,0.2-0.1,0.2-0.2,0.2c0,0-0.1,0-0.1-0.1c0-0.1,0.4-1.5,1.3-1.5c0.5,0,0.8,0.4,0.8,0.8c0,0.2,0,0.3-0.2,0.7
			c-0.3,0.9-0.5,1.5-0.5,2c0,0.4,0.1,0.8,0.6,0.8c0.7,0,1.1-0.7,1.1-0.8l0.4-1.8c0.1-0.3,0.1-0.5,0.2-0.8c0-0.2,0.1-0.5,0.1-0.5
			c0.1-0.1,0.2-0.2,0.3-0.2c0.1,0,0.3,0.1,0.3,0.3c0,0.1,0,0.1,0,0.2L424.4,150.1z"/>
	</g>
	<g>
		<path class="st0" d="M429,152.6c-0.1,0-1-0.6-1.6-1.9c-0.5-1.1-0.7-2.3-0.7-3.1c0-0.8,0.1-1.9,0.6-3c0.6-1.3,1.5-1.9,1.6-1.9
			c0.1,0,0.1,0,0.1,0.1c0,0,0,0-0.1,0.2c-1.2,1.2-1.6,3-1.6,4.7c0,1.5,0.3,3.4,1.6,4.7C429.1,152.4,429.1,152.5,429,152.6
			C429.1,152.6,429,152.6,429,152.6z"/>
	</g>
	<g>
		<path class="st0" d="M430.9,149.1c0,0.2-0.1,0.2-0.1,0.5c0,0.3,0.1,0.5,0.3,0.5c0.3,0,0.9-0.2,1.3-1.3c0-0.1,0.1-0.1,0.1-0.1
			c0,0,0.1,0,0.1,0.1c0,0.1-0.6,1.5-1.6,1.5c-0.5,0-0.9-0.4-0.9-0.9c0-0.2,0-0.3,0.8-3.2h-0.9c-0.2,0-0.3,0-0.3-0.1
			c0-0.2,0.1-0.2,0.3-0.2h0.9l0.4-1.6c0.1-0.3,0.4-0.4,0.4-0.4c0.2,0,0.3,0.1,0.3,0.3c0,0.1,0,0.3-0.4,1.7h0.9c0.2,0,0.3,0,0.3,0.1
			c0,0.2-0.1,0.2-0.3,0.2h-0.9L430.9,149.1z"/>
	</g>
	<g>
		<path class="st0" d="M435.5,150.6c-0.6,1.3-1.5,1.9-1.6,1.9c-0.1,0-0.1,0-0.1-0.1c0,0,0,0,0.1-0.2c1.2-1.3,1.6-3,1.6-4.7
			c0-2.1-0.6-3.7-1.5-4.7c-0.2-0.2-0.2-0.2-0.2-0.2c0-0.1,0-0.1,0.1-0.1c0.1,0,1,0.6,1.6,1.9c0.5,1.1,0.7,2.3,0.7,3.1
			C436.1,148.4,436,149.6,435.5,150.6z"/>
	</g>
	<polyline points="55.7,160.5 60.2,158.2 55.7,156 56.8,158.2 	"/>
	<line class="st2" x1="0" y1="158.2" x2="56.8" y2="158.2"/>
	<g>
		<path class="st3" d="M5.1,148.5C5,148.9,5,149.1,5,149.3c0,0.3,0.2,0.7,0.5,0.7c0.3,0,1-0.2,1.3-1.3c0-0.1,0-0.1,0.1-0.1
			c0,0,0.1,0,0.1,0.1c0,0.2-0.6,1.5-1.6,1.5c-0.6,0-1-0.4-1.1-0.8c0,0.1-0.4,0.8-1,0.8c-0.4,0-0.9-0.2-0.9-0.7
			c0-0.3,0.2-0.6,0.5-0.6c0.1,0,0.4,0.1,0.4,0.3c0,0.3-0.2,0.5-0.5,0.5c0.2,0.1,0.4,0.1,0.5,0.1c0.4,0,0.8-0.4,0.9-1
			c0.4-1.4,0.5-2.1,0.5-2.4c0-0.6-0.3-0.7-0.5-0.7c-0.3,0-1,0.2-1.3,1.3c0,0.1-0.1,0.1-0.1,0.1c0,0-0.1,0-0.1-0.1
			c0-0.3,0.6-1.5,1.6-1.5c0.3,0,0.8,0.1,1.1,0.8c0.1-0.2,0.5-0.8,1-0.8c0.3,0,0.9,0.1,0.9,0.7c0,0.4-0.3,0.6-0.5,0.6
			c-0.3,0-0.4-0.2-0.4-0.3c0-0.2,0.2-0.5,0.5-0.5c-0.2-0.1-0.4-0.1-0.5-0.1c-0.7,0-0.9,0.9-1,1.2L5.1,148.5z"/>
	</g>
	<g>
		<path class="st3" d="M11,152.6c-0.1,0-1-0.6-1.6-1.9c-0.5-1.1-0.7-2.3-0.7-3.1c0-0.8,0.1-1.9,0.6-3c0.6-1.3,1.5-1.9,1.6-1.9
			c0.1,0,0.1,0,0.1,0.1c0,0,0,0-0.1,0.2c-1.2,1.2-1.6,3-1.6,4.7c0,1.5,0.3,3.4,1.6,4.7C11.1,152.4,11.1,152.5,11,152.6
			C11.1,152.6,11.1,152.6,11,152.6z"/>
	</g>
	<g>
		<path class="st3" d="M13,149.1c0,0.2-0.1,0.2-0.1,0.5c0,0.3,0.1,0.5,0.3,0.5c0.3,0,0.9-0.2,1.3-1.3c0-0.1,0.1-0.1,0.1-0.1
			c0,0,0.1,0,0.1,0.1c0,0.1-0.6,1.5-1.6,1.5c-0.5,0-0.9-0.4-0.9-0.9c0-0.2,0-0.3,0.8-3.2h-0.9c-0.2,0-0.3,0-0.3-0.1
			c0-0.2,0.1-0.2,0.3-0.2h0.9l0.4-1.6c0.1-0.3,0.4-0.4,0.4-0.4c0.2,0,0.3,0.1,0.3,0.3c0,0.1,0,0.3-0.4,1.7h0.9c0.2,0,0.3,0,0.3,0.1
			c0,0.2-0.1,0.2-0.3,0.2h-0.9L13,149.1z"/>
	</g>
	<g>
		<path class="st3" d="M17.5,150.6c-0.6,1.3-1.5,1.9-1.6,1.9c-0.1,0-0.1,0-0.1-0.1c0,0,0,0,0.1-0.2c1.2-1.3,1.6-3,1.6-4.7
			c0-2.1-0.6-3.7-1.5-4.7c-0.2-0.2-0.2-0.2-0.2-0.2c0-0.1,0-0.1,0.1-0.1c0.1,0,1,0.6,1.6,1.9c0.5,1.1,0.7,2.3,0.7,3.1
			C18.1,148.4,18,149.6,17.5,150.6z"/>
	</g>
	<polyline points="94.7,160.5 99.2,158.2 94.7,156 95.8,158.2 	"/>
	<line class="st2" x1="67.3" y1="158.2" x2="95.8" y2="158.2"/>
	<polygon class="st4" points="21.3,151.1 21.3,186.6 163,186.6 163,115.7 21.3,115.7 	"/>
	<polygon class="st2" points="340.2,161.8 340.2,129.9 411,129.9 411,193.7 340.2,193.7 	"/>
	<g>
		<path class="st1" d="M371.4,126.2h-5.2v-0.3h0.2c0.8,0,0.8-0.1,0.8-0.5v-5.3c0-0.4,0-0.5-0.8-0.5h-0.2v-0.3c0.3,0,1.1,0,1.5,0
			c0.4,0,1.3,0,1.7,0v0.3h-0.3c-0.9,0-0.9,0.1-0.9,0.5v5.3c0,0.3,0,0.4,0.5,0.4h0.8c1.8,0,1.9-1.2,2-2.3h0.2L371.4,126.2z"/>
		<path class="st1" d="M374.4,125.4c0,0.4,0,0.5,0.8,0.5h0.2v0.3c-0.3,0-1.1,0-1.5,0s-1.1,0-1.5,0v-0.3h0.2c0.8,0,0.8-0.1,0.8-0.5
			v-5.3c0-0.4,0-0.5-0.8-0.5h-0.2v-0.3h3.5c1.4,0,2.4,0.9,2.4,1.9c0,1-1.1,1.8-2.3,1.8h-1.7V125.4z M375.7,122.8
			c1.6,0,1.6-1.1,1.6-1.5c0-0.5,0-1.5-1.6-1.5h-0.9c-0.5,0-0.5,0.1-0.5,0.4v2.7H375.7z"/>
	</g>
	<g>
		<path class="st1" d="M385,121.7h-0.2c-0.2-1.4-0.4-1.9-1.9-1.9h-1.2c-0.5,0-0.5,0.1-0.5,0.4v2.5h0.9c1,0,1.1-0.3,1.1-1.2h0.2v2.6
			h-0.2c0-0.8-0.1-1.2-1.1-1.2h-0.9v2.5c0,0.3,0,0.5,0.9,0.5h0.3v0.3c-0.4,0-1.3,0-1.7,0c-0.4,0-1.2,0-1.5,0v-0.3h0.2
			c0.8,0,0.8-0.1,0.8-0.5v-5.2c0-0.4,0-0.5-0.8-0.5h-0.2v-0.3h5.5L385,121.7z"/>
	</g>
	<line class="st2" x1="350.8" y1="172.4" x2="396.8" y2="172.4"/>
	<polyline points="377.9,141.5 375.6,137 373.3,141.5 375.6,140.4 	"/>
	<line class="st2" x1="375.6" y1="175.9" x2="375.6" y2="140.4"/>
	<path class="st5" d="M361.4,172.4v-14.2 M361.4,158.2h28.3 M389.8,158.2v14.2"/>
	<g>
		<path class="st1" d="M384.9,184c-0.1,0.5-0.1,0.5-0.3,1c-0.1,0.4-0.2,0.6-0.5,0.6c-0.1,0-0.3-0.1-0.3-0.3c0-0.1,0-0.1,0.1-0.2
			c0.4-0.9,1-2.1,1.3-3.3h-0.6c-0.2,0-0.8,0-1.3,0.8c-0.1,0.1-0.1,0.1-0.2,0.1c-0.1,0-0.1-0.1-0.1-0.1c0,0,0.3-0.5,0.6-0.9
			c0.4-0.5,0.8-0.5,1-0.5h3.3c0.2,0,0.4,0,0.4,0.2c0,0.3-0.4,0.3-0.5,0.3h-1.1c-0.1,0.5-0.2,1.1-0.2,1.6c0,0.3,0,0.9,0.3,1.6
			c0.1,0.1,0.1,0.2,0.1,0.2c0,0.2-0.2,0.4-0.4,0.4c-0.1,0-0.3-0.1-0.4-0.5c-0.1-0.3-0.1-0.6-0.1-0.8c0-0.7,0.1-1.1,0.4-2.6h-1.1
			L384.9,184z"/>
		<path class="st1" d="M389.8,187.8c-0.1,0.2-0.1,0.2-0.2,0.2c-0.1,0-0.2-0.1-0.2-0.2c0,0,0,0,0-0.2l3.5-9.5c0-0.1,0.1-0.1,0.2-0.1
			c0.1,0,0.2,0.1,0.2,0.2c0,0,0,0,0,0.2L389.8,187.8z"/>
	</g>
	<g>
		<path class="st1" d="M396.8,184.7c0,0.1,0,0.2,0,0.2c0,0.2,0.1,0.2,0.4,0.2c0.3,0,0.4,0,0.6,0c0.3,0,0.3,0,0.3,0.1
			c0,0.2-0.1,0.2-0.2,0.2c-0.3,0-0.6,0-0.9,0c-0.3,0-0.5,0-0.8,0c-0.3,0-0.6,0-0.8,0c-0.3,0-0.5,0-0.8,0c-0.1,0-0.2,0-0.2-0.1
			c0-0.2,0.1-0.2,0.4-0.2c1.1,0,1.1-0.1,1.2-0.5l1.3-5.3c0,0,0-0.1,0-0.2c0-0.1,0-0.1-0.3-0.1h-0.4c-1.5,0-1.7,0.2-2.3,1.7
			c-0.1,0.2-0.1,0.2-0.2,0.2c-0.1,0-0.1,0-0.1-0.1c0,0,0-0.2,0.1-0.2l0.6-1.8c0.1-0.2,0.1-0.2,0.3-0.2h5.5c0.2,0,0.3,0,0.3,0.1
			c0,0,0,0.1,0,0.2l-0.3,1.7c0,0.1,0,0.2-0.1,0.2c-0.1,0-0.1-0.1-0.1-0.1c0,0,0-0.2,0-0.2c0-0.3,0.1-0.6,0.1-0.8
			c0-0.8-0.4-0.8-1.5-0.8c-0.2,0-0.5,0-0.6,0c-0.1,0-0.2,0.1-0.2,0.4L396.8,184.7z"/>
	</g>
	<g>
		<path class="st1" d="M402.1,184.1c-0.1,0-0.4,0-0.6,0.1c-0.2,0.1-0.3,0.3-0.3,0.4c0,0.2,0.1,0.3,0.4,0.3c0,0,0.2,0,0.3,0.1
			c0.3,0,1,0.2,1,0.8c0,0.3-0.2,1.2-1.5,1.2c-0.7,0-1.1-0.3-1.1-0.7c0-0.3,0.2-0.5,0.4-0.5c0.1,0,0.3,0.1,0.3,0.3
			c0,0.2-0.2,0.4-0.4,0.4c0.2,0.2,0.6,0.3,0.8,0.3c0.1,0,0.4,0,0.7-0.2c0.3-0.2,0.4-0.4,0.4-0.6c0-0.3-0.4-0.4-0.6-0.5
			c-0.5-0.1-0.6-0.1-0.8-0.3c-0.1-0.1-0.2-0.3-0.2-0.5c0-0.2,0.2-1,1.3-1c0.4,0,0.9,0.2,0.9,0.6c0,0.4-0.3,0.4-0.3,0.4
			c-0.1,0-0.2-0.1-0.2-0.2c0-0.1,0.1-0.3,0.3-0.3C402.6,184.1,402.2,184.1,402.1,184.1z"/>
	</g>
	<g>
		<path class="st1" d="M406.1,173.3c-0.4,0.7-0.8,1.4-1.6,1.4c-0.6,0-1-0.5-1.1-1c-0.4,0.5-0.8,1-1.5,1c-0.8,0-1-0.7-1-1.4
			c0-0.9,0.4-2.1,0.9-2.8c0.1-0.1,0.1-0.2,0.3-0.2c0.1,0,0.2,0.1,0.2,0.2c0,0.1-1,1.2-1,2.4c0,0.6,0.2,1.1,0.9,1.1
			c0.6,0,1-0.4,1.4-0.9c0-0.4,0.1-1,0.2-1.2c0.1-0.1,0.2-0.2,0.3-0.2c0.1,0,0.2,0.1,0.2,0.2c0,0.3-0.2,0.9-0.3,1.2
			c0.1,0.5,0.4,0.9,1,0.9c0.5,0,0.8-0.3,1.1-0.8c0.3-0.5,0.5-1,0.5-1.4c0-0.4-0.2-0.7-0.3-0.8c-0.1-0.1-0.1-0.2-0.1-0.3
			c0-0.2,0.3-0.5,0.5-0.5c0.2,0,0.4,0.2,0.4,0.7C406.7,171.5,406.3,172.8,406.1,173.3z"/>
	</g>
	<g>
		<path class="st1" d="M377.3,185.3c-0.4,0.9-1.2,1.2-1.7,1.2c-0.5,0-1.2-0.2-1.6-1c-0.4-0.8-0.4-1.7-0.4-2.4c0-0.8,0-1.6,0.4-2.3
			c0.4-0.9,1.1-1.2,1.7-1.2c0.4,0,1.2,0.2,1.7,1.1c0.3,0.7,0.4,1.5,0.4,2.3C377.7,183.8,377.6,184.6,377.3,185.3z M376.7,185
			c0.1-0.6,0.1-1.3,0.1-2.1c0-0.6,0-1.4-0.1-1.9c-0.2-1-0.8-1.2-1.2-1.2c-0.2,0-1,0.1-1.2,1.3c-0.1,0.5-0.1,1.2-0.1,1.8
			c0,0.6,0,1.5,0.1,2.1c0.2,1,0.8,1.2,1.2,1.2C376,186.2,376.6,185.9,376.7,185z"/>
	</g>
	<g>
		<path class="st1" d="M362.9,153.1c0,0.1,0,0.2,0,0.2c0,0.2,0.1,0.2,0.4,0.2c0.3,0,0.4,0,0.6,0c0.3,0,0.3,0,0.3,0.1
			c0,0.2-0.1,0.2-0.2,0.2c-0.3,0-0.6,0-0.9,0c-0.3,0-0.5,0-0.8,0c-0.3,0-0.6,0-0.8,0c-0.3,0-0.5,0-0.8,0c-0.1,0-0.2,0-0.2-0.1
			c0-0.2,0.1-0.2,0.4-0.2c1.1,0,1.1-0.1,1.2-0.5l1.3-5.3c0,0,0-0.1,0-0.2c0-0.1,0-0.1-0.3-0.1h-0.4c-1.5,0-1.7,0.2-2.3,1.7
			c-0.1,0.2-0.1,0.2-0.2,0.2c-0.1,0-0.1,0-0.1-0.1c0,0,0-0.2,0.1-0.2l0.6-1.8c0.1-0.2,0.1-0.2,0.3-0.2h5.5c0.2,0,0.3,0,0.3,0.1
			c0,0,0,0.1,0,0.2l-0.3,1.7c0,0.1,0,0.2-0.1,0.2c-0.1,0-0.1-0.1-0.1-0.1c0,0,0-0.2,0-0.2c0-0.3,0.1-0.6,0.1-0.8
			c0-0.8-0.4-0.8-1.5-0.8c-0.2,0-0.5,0-0.6,0c-0.1,0-0.2,0.1-0.2,0.4L362.9,153.1z"/>
	</g>
	<g>
		<path class="st1" d="M368.2,152.4c-0.1,0-0.4,0-0.6,0.1c-0.2,0.1-0.3,0.3-0.3,0.4c0,0.2,0.1,0.3,0.4,0.3c0,0,0.2,0,0.3,0.1
			c0.3,0,1,0.2,1,0.8c0,0.3-0.2,1.2-1.5,1.2c-0.7,0-1.1-0.3-1.1-0.7c0-0.3,0.2-0.5,0.4-0.5c0.1,0,0.3,0.1,0.3,0.3
			c0,0.2-0.2,0.4-0.4,0.4c0.2,0.2,0.6,0.3,0.8,0.3c0.1,0,0.4,0,0.7-0.2c0.3-0.2,0.4-0.4,0.4-0.6c0-0.3-0.4-0.4-0.6-0.5
			c-0.5-0.1-0.6-0.1-0.8-0.3c-0.1-0.1-0.2-0.3-0.2-0.5c0-0.2,0.2-1,1.3-1c0.4,0,0.9,0.2,0.9,0.6c0,0.4-0.3,0.4-0.3,0.4
			c-0.1,0-0.2-0.1-0.2-0.2c0-0.1,0.1-0.3,0.3-0.3C368.7,152.4,368.4,152.4,368.2,152.4z"/>
	</g>
	<g>
		<path class="st6" d="M386.1,142.4c0,0.1,0,0.1,0,0.2c0,0.2,0.3,0.2,0.6,0.2c0.2,0,0.3,0,0.3,0.1c0,0.2-0.1,0.2-0.2,0.2
			c-0.2,0-0.4,0-0.6,0c-0.2,0-0.4,0-0.6,0c-0.3,0-1,0-1.3,0c0,0-0.1,0-0.1-0.1c0-0.2,0.1-0.2,0.2-0.2c0.6,0,0.8,0,0.9-0.3
			c0-0.1,0.3-1.1,0.7-2.8h-3l-0.7,2.7c0,0.1,0,0.1,0,0.2c0,0.2,0.3,0.2,0.6,0.2c0.2,0,0.3,0,0.3,0.1c0,0.2-0.1,0.2-0.2,0.2
			c-0.2,0-0.4,0-0.6,0c-0.2,0-0.4,0-0.6,0c-0.3,0-1,0-1.3,0c0,0-0.1,0-0.1-0.1c0-0.2,0.1-0.2,0.3-0.2c0.8,0,0.8-0.1,0.9-0.5l1.3-5.4
			c0-0.1,0-0.1,0-0.2c0-0.1-0.1-0.1-0.3-0.2c-0.2,0-0.4,0-0.4,0c-0.2,0-0.3,0-0.3-0.1c0-0.2,0.1-0.2,0.2-0.2c0.3,0,1,0,1.3,0
			c0.3,0,1,0,1.3,0c0,0,0.1,0,0.1,0.1c0,0.2-0.1,0.2-0.3,0.2c-0.7,0-0.7,0.1-0.8,0.5l-0.6,2.3h3l0.6-2.4c0-0.1,0-0.1,0-0.2
			c0-0.1-0.1-0.1-0.3-0.2c-0.2,0-0.4,0-0.4,0c-0.2,0-0.3,0-0.3-0.1c0-0.2,0.1-0.2,0.2-0.2c0.3,0,1,0,1.3,0c0.3,0,1,0,1.3,0
			c0,0,0.1,0,0.1,0.1c0,0.2-0.1,0.2-0.3,0.2c-0.7,0-0.7,0.1-0.8,0.5L386.1,142.4z"/>
	</g>
	<g>
		<path class="st6" d="M389.5,143.8c0,0.2-0.1,0.5-0.1,0.5c-0.1,0.1-0.2,0.2-0.3,0.2c-0.1,0-0.2-0.1-0.2-0.2c0,0,0-0.2,0.1-0.3
			l0.2-0.9c0-0.2,0.1-0.4,0.2-0.6c0-0.2,0.1-0.4,0.1-0.6c0-0.2,0-0.3-0.2-0.3c-0.3,0-0.4,0.3-0.5,0.8c0,0.2-0.1,0.2-0.2,0.2
			c0,0-0.1,0-0.1-0.1c0,0,0.1-0.4,0.3-0.7c0.1-0.2,0.3-0.4,0.5-0.4c0.2,0,0.6,0.1,0.7,0.5c0.3-0.3,0.6-0.5,1-0.5
			c0.4,0,0.7,0.1,0.7,0.5c0,0.3-0.2,0.4-0.4,0.4s-0.3-0.1-0.3-0.3c0-0.1,0.1-0.3,0.3-0.4c-0.1-0.1-0.3-0.1-0.4-0.1
			c-0.3,0-0.5,0.1-0.6,0.2c-0.2,0.2-0.4,0.5-0.4,0.6c0,0-0.2,0.7-0.2,0.7L389.5,143.8z"/>
	</g>
	<g>
		<path class="st6" d="M395.7,145.5c-0.1,0-1-0.6-1.6-1.9c-0.5-1.1-0.7-2.3-0.7-3.1c0-0.8,0.1-1.9,0.6-3c0.6-1.3,1.5-1.9,1.6-1.9
			c0.1,0,0.1,0,0.1,0.1c0,0,0,0-0.1,0.2c-1.2,1.2-1.6,3-1.6,4.7c0,1.5,0.3,3.4,1.6,4.7C395.8,145.4,395.8,145.4,395.7,145.5
			C395.8,145.5,395.8,145.5,395.7,145.5z"/>
	</g>
	<g>
		<path class="st6" d="M401.8,141.8c-0.4,0.7-0.8,1.4-1.6,1.4c-0.6,0-1-0.5-1.1-1c-0.4,0.5-0.8,1-1.5,1c-0.8,0-1-0.7-1-1.4
			c0-0.9,0.4-2.1,0.9-2.8c0.1-0.1,0.1-0.2,0.3-0.2c0.1,0,0.2,0.1,0.2,0.2c0,0.1-1,1.2-1,2.4c0,0.6,0.2,1.1,0.9,1.1
			c0.6,0,1-0.4,1.4-0.9c0-0.4,0.1-1,0.2-1.2c0.1-0.1,0.2-0.2,0.3-0.2c0.1,0,0.2,0.1,0.2,0.2c0,0.3-0.2,0.9-0.3,1.2
			c0.1,0.5,0.4,0.9,1,0.9c0.5,0,0.8-0.3,1.1-0.8c0.3-0.5,0.5-1,0.5-1.4c0-0.4-0.2-0.7-0.3-0.8c-0.1-0.1-0.1-0.2-0.1-0.3
			c0-0.2,0.3-0.5,0.5-0.5c0.2,0,0.4,0.2,0.4,0.7C402.4,139.9,402,141.3,401.8,141.8z"/>
	</g>
	<g>
		<path class="st6" d="M405.2,143.6c-0.6,1.3-1.5,1.9-1.6,1.9c-0.1,0-0.1,0-0.1-0.1c0,0,0,0,0.1-0.2c1.2-1.3,1.6-3,1.6-4.7
			c0-2.1-0.6-3.7-1.5-4.7c-0.2-0.2-0.2-0.2-0.2-0.2c0-0.1,0-0.1,0.1-0.1c0.1,0,1,0.6,1.6,1.9c0.5,1.1,0.7,2.3,0.7,3.1
			C405.8,141.4,405.7,142.5,405.2,143.6z"/>
	</g>
	<path class="st5" d="M354.3,172.4h7.1 M389.8,172.4h7.1"/>
	<g>
		<path class="st1" d="M345.8,183.6v-0.6h2.6v0.6H345.8z"/>
	</g>
	<g>
		<path class="st1" d="M351.2,184c-0.1,0.5-0.1,0.5-0.3,1c-0.1,0.4-0.2,0.6-0.5,0.6c-0.1,0-0.3-0.1-0.3-0.3c0-0.1,0-0.1,0.1-0.2
			c0.4-0.9,1-2.1,1.3-3.3h-0.6c-0.2,0-0.8,0-1.3,0.8c-0.1,0.1-0.1,0.1-0.2,0.1c-0.1,0-0.1-0.1-0.1-0.1c0,0,0.3-0.5,0.6-0.9
			c0.4-0.5,0.8-0.5,1-0.5h3.3c0.2,0,0.4,0,0.4,0.2c0,0.3-0.4,0.3-0.5,0.3h-1.1c-0.1,0.5-0.2,1.1-0.2,1.6c0,0.3,0,0.9,0.3,1.6
			c0.1,0.1,0.1,0.2,0.1,0.2c0,0.2-0.2,0.4-0.4,0.4c-0.1,0-0.3-0.1-0.4-0.5c-0.1-0.3-0.1-0.6-0.1-0.8c0-0.7,0.1-1.1,0.4-2.6h-1.1
			L351.2,184z"/>
		<path class="st1" d="M356,187.8c-0.1,0.2-0.1,0.2-0.2,0.2c-0.1,0-0.2-0.1-0.2-0.2c0,0,0,0,0-0.2l3.5-9.5c0-0.1,0.1-0.1,0.2-0.1
			c0.1,0,0.2,0.1,0.2,0.2c0,0,0,0,0,0.2L356,187.8z"/>
	</g>
	<g>
		<path class="st1" d="M363,184.7c0,0.1,0,0.2,0,0.2c0,0.2,0.1,0.2,0.4,0.2c0.3,0,0.4,0,0.6,0c0.3,0,0.3,0,0.3,0.1
			c0,0.2-0.1,0.2-0.2,0.2c-0.3,0-0.6,0-0.9,0c-0.3,0-0.5,0-0.8,0c-0.3,0-0.6,0-0.8,0c-0.3,0-0.5,0-0.8,0c-0.1,0-0.2,0-0.2-0.1
			c0-0.2,0.1-0.2,0.4-0.2c1.1,0,1.1-0.1,1.2-0.5l1.3-5.3c0,0,0-0.1,0-0.2c0-0.1,0-0.1-0.3-0.1h-0.4c-1.5,0-1.7,0.2-2.3,1.7
			c-0.1,0.2-0.1,0.2-0.2,0.2c-0.1,0-0.1,0-0.1-0.1c0,0,0-0.2,0.1-0.2l0.6-1.8c0.1-0.2,0.1-0.2,0.3-0.2h5.5c0.2,0,0.3,0,0.3,0.1
			c0,0,0,0.1,0,0.2l-0.3,1.7c0,0.1,0,0.2-0.1,0.2c-0.1,0-0.1-0.1-0.1-0.1c0,0,0-0.2,0-0.2c0-0.3,0.1-0.6,0.1-0.8
			c0-0.8-0.4-0.8-1.5-0.8c-0.2,0-0.5,0-0.6,0c-0.1,0-0.2,0.1-0.2,0.4L363,184.7z"/>
	</g>
	<g>
		<path class="st1" d="M368.3,184.1c-0.1,0-0.4,0-0.6,0.1c-0.2,0.1-0.3,0.3-0.3,0.4c0,0.2,0.1,0.3,0.4,0.3c0,0,0.2,0,0.3,0.1
			c0.3,0,1,0.2,1,0.8c0,0.3-0.2,1.2-1.5,1.2c-0.7,0-1.1-0.3-1.1-0.7c0-0.3,0.2-0.5,0.4-0.5c0.1,0,0.3,0.1,0.3,0.3
			c0,0.2-0.2,0.4-0.4,0.4c0.2,0.2,0.6,0.3,0.8,0.3c0.1,0,0.4,0,0.7-0.2c0.3-0.2,0.4-0.4,0.4-0.6c0-0.3-0.4-0.4-0.6-0.5
			c-0.5-0.1-0.6-0.1-0.8-0.3c-0.1-0.1-0.2-0.3-0.2-0.5c0-0.2,0.2-1,1.3-1c0.4,0,0.9,0.2,0.9,0.6c0,0.4-0.3,0.4-0.3,0.4
			c-0.1,0-0.2-0.1-0.2-0.2c0-0.1,0.1-0.3,0.3-0.3C368.8,184.1,368.5,184.1,368.3,184.1z"/>
	</g>
	<polygon class="st7" points="248,156.5 248,197.2 418.1,197.2 418.1,115.7 248,115.7 	"/>
	<g>
		<path class="st1" d="M146.6,118.2c1,0,1.5,0.5,1.8,0.9l0.5-0.7c0.1-0.1,0.1-0.1,0.2-0.1c0.1,0,0.1,0.1,0.1,0.2v2.4
			c0,0.2,0,0.2-0.2,0.2c-0.1,0-0.1,0-0.2-0.2c-0.2-1.5-1.1-2.4-2.2-2.4c-0.6,0-2.6,0.3-2.6,3.3c0,3,2,3.3,2.6,3.3
			c1.1,0,2.2-0.8,2.2-2.2c0-0.1,0-0.2,0.1-0.2c0.1,0,0.1,0.1,0.1,0.2c0,1.2-1,2.5-2.6,2.5c-1.9,0-3.5-1.6-3.5-3.6
			C143.1,119.8,144.7,118.2,146.6,118.2z"/>
		<path class="st1" d="M150.7,127.6c0,0.1-0.1,0.2-0.2,0.2c-0.1,0-0.2-0.1-0.2-0.2c0,0,0,0,0-0.2l3.4-9.4c0-0.1,0.1-0.2,0.2-0.2
			c0.1,0,0.2,0.1,0.2,0.2c0,0,0,0,0,0.2L150.7,127.6z"/>
	</g>
	<g>
		<path class="st1" d="M158.8,118.5c1.7,0,3,1.6,3,3.5c0,1.9-1.4,3.3-3,3.3h-3.6V125h0.2c0.8,0,0.8-0.1,0.8-0.5v-5.3
			c0-0.4,0-0.5-0.8-0.5h-0.2v-0.3H158.8z M158.5,125c1,0,1.6-0.6,1.8-0.8c0.4-0.5,0.5-1.1,0.5-2.2c0-0.8-0.1-1.6-0.5-2.2
			c-0.5-0.7-1.2-0.9-1.8-0.9h-1c-0.5,0-0.5,0.1-0.5,0.4v5.4c0,0.3,0,0.4,0.5,0.4H158.5z"/>
		<path class="st1" d="M252.8,118.5c1.7,0,3,1.6,3,3.5c0,1.9-1.4,3.3-3,3.3h-3.6V125h0.2c0.8,0,0.8-0.1,0.8-0.5v-5.3
			c0-0.4,0-0.5-0.8-0.5h-0.2v-0.3H252.8z M252.5,125c1,0,1.6-0.6,1.8-0.8c0.4-0.5,0.5-1.1,0.5-2.2c0-0.8-0.1-1.6-0.5-2.2
			c-0.5-0.7-1.2-0.9-1.8-0.9h-1c-0.5,0-0.5,0.1-0.5,0.4v5.4c0,0.3,0,0.4,0.5,0.4H252.5z"/>
	</g>
	<g>
		<path class="st1" d="M257.3,127.6c0,0.1-0.1,0.2-0.2,0.2c-0.1,0-0.2-0.1-0.2-0.2c0,0,0,0,0-0.2l3.4-9.4c0-0.1,0.1-0.2,0.2-0.2
			c0.1,0,0.2,0.1,0.2,0.2c0,0,0,0,0,0.2L257.3,127.6z"/>
		<path class="st1" d="M265.4,118.2c1,0,1.5,0.5,1.8,0.9l0.5-0.7c0.1-0.1,0.1-0.1,0.2-0.1c0.1,0,0.1,0.1,0.1,0.2v2.4
			c0,0.2,0,0.2-0.2,0.2c-0.1,0-0.1,0-0.2-0.2c-0.2-1.5-1.1-2.4-2.2-2.4c-0.6,0-2.6,0.3-2.6,3.3c0,3,2,3.3,2.6,3.3
			c1.1,0,2.2-0.8,2.2-2.2c0-0.1,0-0.2,0.1-0.2c0.1,0,0.1,0.1,0.1,0.2c0,1.2-1,2.5-2.6,2.5c-1.9,0-3.5-1.6-3.5-3.6
			C261.9,119.8,263.5,118.2,265.4,118.2z"/>
	</g>
	<g>
		<path class="st1" d="M195.5,161.4c0,0.1,0,0.1,0,0.2c0,0.2,0.3,0.2,0.6,0.2c0.2,0,0.3,0,0.3,0.1c0,0.2-0.1,0.2-0.2,0.2
			c-0.2,0-0.4,0-0.6,0c-0.2,0-0.4,0-0.6,0c-0.3,0-1,0-1.3,0c0,0-0.1,0-0.1-0.1c0-0.2,0.1-0.2,0.2-0.2c0.6,0,0.8,0,0.9-0.3
			c0-0.1,0.3-1.1,0.7-2.8h-3l-0.7,2.7c0,0.1,0,0.1,0,0.2c0,0.2,0.3,0.2,0.6,0.2c0.2,0,0.3,0,0.3,0.1c0,0.2-0.1,0.2-0.2,0.2
			c-0.2,0-0.4,0-0.6,0c-0.2,0-0.4,0-0.6,0c-0.3,0-1,0-1.3,0c0,0-0.1,0-0.1-0.1c0-0.2,0.1-0.2,0.3-0.2c0.8,0,0.8-0.1,0.9-0.5l1.3-5.4
			c0-0.1,0-0.1,0-0.2c0-0.1-0.1-0.1-0.3-0.2c-0.2,0-0.4,0-0.4,0c-0.2,0-0.3,0-0.3-0.1c0-0.2,0.1-0.2,0.2-0.2c0.3,0,1,0,1.3,0
			c0.3,0,1,0,1.3,0c0,0,0.1,0,0.1,0.1c0,0.2-0.1,0.2-0.3,0.2c-0.7,0-0.7,0.1-0.8,0.5l-0.6,2.3h3l0.6-2.4c0-0.1,0-0.1,0-0.2
			c0-0.1-0.1-0.1-0.3-0.2c-0.2,0-0.4,0-0.4,0c-0.2,0-0.3,0-0.3-0.1c0-0.2,0.1-0.2,0.2-0.2c0.3,0,1,0,1.3,0c0.3,0,1,0,1.3,0
			c0,0,0.1,0,0.1,0.1c0,0.2-0.1,0.2-0.3,0.2c-0.7,0-0.7,0.1-0.8,0.5L195.5,161.4z"/>
	</g>
	<g>
		<path class="st1" d="M200.5,162.8c0,0.1,0,0.2,0,0.3c0,0.2,0,0.3,0.2,0.3c0.3,0,0.4-0.4,0.5-0.7c0-0.2,0.1-0.2,0.2-0.2
			c0,0,0.1,0,0.1,0.1c0,0-0.1,0.4-0.2,0.7c-0.1,0.2-0.3,0.4-0.6,0.4c-0.2,0-0.6-0.1-0.7-0.5c-0.3,0.3-0.6,0.5-1,0.5
			c-0.6,0-1.1-0.5-1.1-1.2c0-1,0.9-2,1.8-2c0.3,0,0.6,0.2,0.7,0.4l0.4-1.6c0-0.1,0-0.1,0-0.2c0-0.1,0-0.1-0.3-0.1
			c-0.1,0-0.2,0-0.2-0.1c0-0.1,0.1-0.2,0.2-0.2c0.2,0,0.8-0.1,0.9-0.1c0.1,0,0.1,0.1,0.1,0.1c0,0,0,0.1,0,0.1L200.5,162.8z
			 M200.3,161.4C200.3,161.4,200.4,161.3,200.3,161.4c0-0.2-0.1-0.7-0.6-0.7c-0.2,0-0.6,0.1-0.9,0.7c-0.2,0.3-0.4,1-0.4,1.4
			c0,0.5,0.3,0.7,0.5,0.7c0.3,0,0.6-0.2,0.6-0.3c0.2-0.1,0.3-0.3,0.4-0.5L200.3,161.4z"/>
	</g>
	<g>
		<path class="st1" d="M205.4,164.6c-0.1,0-1-0.6-1.6-1.9c-0.5-1.1-0.7-2.3-0.7-3.1c0-0.8,0.1-1.9,0.6-3c0.6-1.3,1.5-1.9,1.6-1.9
			c0.1,0,0.1,0,0.1,0.1c0,0,0,0-0.1,0.2c-1.2,1.2-1.6,3-1.6,4.7c0,1.5,0.3,3.4,1.6,4.7C205.5,164.4,205.5,164.5,205.4,164.6
			C205.5,164.6,205.5,164.6,205.4,164.6z"/>
		<path class="st1" d="M207.4,161.3c0.2,0.4,0.6,0.7,1.1,0.7c0.1,0,1,0,1.3-1c0-0.1,0-0.1,0.1-0.1c0,0,0.1,0,0.1,0.1
			c0,0.2-0.4,1.3-1.7,1.3c-1.1,0-2.2-1-2.2-2.3c0-1.2,0.9-2.3,2.1-2.3c1.2,0,1.8,1,1.8,2c0,0.2,0,0.2-0.2,0.2h-2.8
			C207.1,160.2,207.1,160.8,207.4,161.3z M209.5,159.6c0-0.4-0.1-1.7-1.1-1.7c-0.3,0-1.2,0.3-1.2,1.7H209.5z"/>
	</g>
	<g>
		<path class="st1" d="M212.6,159c0,0.9-0.6,1.5-1.4,1.5c-0.6,0-1.1-0.3-1.1-0.8c0-0.3,0.2-0.5,0.5-0.5c0.3,0,0.5,0.2,0.5,0.5
			c0,0.3-0.2,0.4-0.3,0.4c0.3,0.1,0.5,0.1,0.5,0.1c0.6,0,0.7-0.9,0.7-1.3v-3.9c0-0.5-0.1-0.6-0.9-0.6v-0.3l1.5-0.1V159z M212,152.9
			c-0.3,0-0.5-0.2-0.5-0.5s0.2-0.5,0.5-0.5s0.5,0.2,0.5,0.5S212.3,152.9,212,152.9z"/>
	</g>
	<g>
		<path class="st1" d="M214.9,158.6c-0.6,0-1-0.7-1-1.5c0-1.6,1.1-3.5,2.2-3.5c0.7,0,1,0.8,1,1.5C217,156.7,215.9,158.6,214.9,158.6
			z M214.6,156.2c-0.1,0.3-0.2,0.8-0.2,1.3c0,0.4,0.1,0.9,0.4,0.9c0.3,0,0.6-0.3,0.8-0.7c0.2-0.3,0.4-0.7,0.6-1.5H214.6z M216.3,156
			c0.1-0.6,0.2-1,0.2-1.3c0-0.1,0-0.9-0.4-0.9c-0.4,0-1,0.7-1.4,2.2H216.3z"/>
	</g>
	<g>
		<path class="st1" d="M220.3,162.6c-0.6,1.3-1.5,1.9-1.6,1.9c-0.1,0-0.1,0-0.1-0.1c0,0,0,0,0.1-0.2c1.2-1.3,1.6-3,1.6-4.7
			c0-2.1-0.6-3.7-1.5-4.7c-0.2-0.2-0.2-0.2-0.2-0.2c0-0.1,0-0.1,0.1-0.1c0.1,0,1,0.6,1.6,1.9c0.5,1.1,0.7,2.3,0.7,3.1
			C220.9,160.4,220.8,161.6,220.3,162.6z"/>
	</g>
	<polygon class="st8" points="184.3,158.2 184.3,172.4 226.8,172.4 226.8,144 184.3,144 	"/>
	<g>
		<path class="st1" d="M63.7,161.6c-1.8,0-3.3-1.5-3.3-3.3c0-1.8,1.5-3.3,3.3-3.3c1.8,0,3.3,1.5,3.3,3.3
			C67.1,160.1,65.6,161.6,63.7,161.6z M63.6,158.3l-2.1-2.1c-0.5,0.6-0.8,1.3-0.8,2.1c0,0.6,0.2,1.4,0.8,2.1L63.6,158.3z
			 M63.7,158.5l-2.1,2.1c0.8,0.8,1.7,0.8,2.1,0.8c1.3,0,2.1-0.8,2.1-0.8c0,0-0.1-0.1-0.1-0.1L63.7,158.5z M63.8,158.1l2.1-2.1
			c-0.8-0.8-1.7-0.8-2.1-0.8c-1.3,0-2.1,0.8-2.1,0.8c0,0,0.1,0.1,0.1,0.1L63.8,158.1z M63.9,158.3l2.1,2.1c0.5-0.6,0.8-1.3,0.8-2.1
			c0-0.8-0.3-1.6-0.8-2.1L63.9,158.3z"/>
	</g>
	<polyline points="61.5,150.1 63.8,154.7 66,150.1 63.8,151.3 	"/>
	<line class="st2" x1="63.8" y1="151.3" x2="63.8" y2="147.6"/>
	<g>
		<path class="st1" d="M65.2,124.7c0,0.1,0,0.2,0,0.2c0,0.2,0.1,0.2,0.4,0.2c0.3,0,0.4,0,0.6,0c0.3,0,0.3,0,0.3,0.1
			c0,0.2-0.1,0.2-0.2,0.2c-0.3,0-0.6,0-0.9,0c-0.3,0-0.5,0-0.8,0c-0.3,0-0.6,0-0.8,0c-0.3,0-0.5,0-0.8,0c-0.1,0-0.2,0-0.2-0.1
			c0-0.2,0.1-0.2,0.4-0.2c1.1,0,1.1-0.1,1.2-0.5l1.3-5.3c0,0,0-0.1,0-0.2c0-0.1,0-0.1-0.3-0.1h-0.4c-1.5,0-1.7,0.2-2.3,1.7
			c-0.1,0.2-0.1,0.2-0.2,0.2c-0.1,0-0.1,0-0.1-0.1c0,0,0-0.2,0.1-0.2l0.6-1.8c0.1-0.2,0.1-0.2,0.3-0.2H69c0.2,0,0.3,0,0.3,0.1
			c0,0,0,0.1,0,0.2l-0.3,1.7c0,0.1,0,0.2-0.1,0.2c-0.1,0-0.1-0.1-0.1-0.1c0,0,0-0.2,0-0.2c0-0.3,0.1-0.6,0.1-0.8
			c0-0.8-0.4-0.8-1.5-0.8c-0.2,0-0.5,0-0.6,0c-0.1,0-0.2,0.1-0.2,0.4L65.2,124.7z"/>
	</g>
	<g>
		<path class="st1" d="M70.5,124.1c-0.1,0-0.4,0-0.6,0.1c-0.2,0.1-0.3,0.3-0.3,0.4c0,0.2,0.1,0.3,0.4,0.3c0,0,0.2,0,0.3,0.1
			c0.3,0,1,0.2,1,0.8c0,0.3-0.2,1.2-1.5,1.2c-0.7,0-1.1-0.3-1.1-0.7c0-0.3,0.2-0.5,0.4-0.5c0.1,0,0.3,0.1,0.3,0.3
			c0,0.2-0.2,0.4-0.4,0.4c0.2,0.2,0.6,0.3,0.8,0.3c0.1,0,0.4,0,0.7-0.2c0.3-0.2,0.4-0.4,0.4-0.6c0-0.3-0.4-0.4-0.6-0.5
			c-0.5-0.1-0.6-0.1-0.8-0.3c-0.1-0.1-0.2-0.3-0.2-0.5c0-0.2,0.2-1,1.3-1c0.4,0,0.9,0.2,0.9,0.6c0,0.4-0.3,0.4-0.3,0.4
			c-0.1,0-0.2-0.1-0.2-0.2c0-0.1,0.1-0.3,0.3-0.3C71,124.1,70.6,124.1,70.5,124.1z"/>
	</g>
	<polyline points="68.3,127.6 63.8,129.9 68.3,132.1 67.2,129.9 	"/>
	<polyline points="69.9,132.1 74.4,129.9 69.9,127.6 71,129.9 	"/>
	<line class="st2" x1="67.2" y1="129.9" x2="71" y2="129.9"/>
	<polyline points="66,138 63.8,133.4 61.5,138 63.8,136.8 	"/>
	<line class="st2" x1="63.8" y1="144" x2="63.8" y2="136.8"/>
	<polyline points="76.7,138 74.4,133.4 72.1,138 74.4,136.8 	"/>
	<line class="st2" x1="74.4" y1="144" x2="74.4" y2="136.8"/>
	<g>
		<path class="st1" d="M80.6,137.2c-0.3,0-0.5-0.2-0.5-0.5s0.2-0.5,0.5-0.5c0.3,0,0.5,0.2,0.5,0.5S80.9,137.2,80.6,137.2z"/>
		<path class="st1" d="M85,137.2c-0.3,0-0.5-0.2-0.5-0.5s0.2-0.5,0.5-0.5c0.3,0,0.5,0.2,0.5,0.5S85.3,137.2,85,137.2z"/>
		<path class="st1" d="M89.5,137.2c-0.3,0-0.5-0.2-0.5-0.5s0.2-0.5,0.5-0.5c0.3,0,0.5,0.2,0.5,0.5S89.8,137.2,89.5,137.2z"/>
	</g>
	<g>
		<path class="st1" d="M38.1,137.2c-0.3,0-0.5-0.2-0.5-0.5s0.2-0.5,0.5-0.5c0.3,0,0.5,0.2,0.5,0.5S38.4,137.2,38.1,137.2z"/>
		<path class="st1" d="M42.5,137.2c-0.3,0-0.5-0.2-0.5-0.5s0.2-0.5,0.5-0.5c0.3,0,0.5,0.2,0.5,0.5S42.8,137.2,42.5,137.2z"/>
		<path class="st1" d="M47,137.2c-0.3,0-0.5-0.2-0.5-0.5s0.2-0.5,0.5-0.5c0.3,0,0.5,0.2,0.5,0.5S47.3,137.2,47,137.2z"/>
	</g>
	<polyline points="84,146.3 88.6,144 84,141.8 85.2,144 	"/>
	<line class="st2" x1="42.5" y1="144" x2="85.2" y2="144"/>
	<polyline points="55.4,138 53.1,133.4 50.9,138 53.1,136.8 	"/>
	<path class="st2" d="M53.1,144v-7.2 M99.2,158.2V137h56.7v42.5H99.2V158.2z"/>
	<g>
		<path class="st1" d="M114.3,150.6c0.4,0,1-0.1,1.3-1c0-0.1,0-0.1,0.1-0.1c0,0,0.1,0,0.1,0.1s-0.3,1.3-1.7,1.3
			c-1.2,0-2.1-1-2.1-2.3c0-1.2,0.9-2.3,2.2-2.3c0.8,0,1.5,0.4,1.5,1.1c0,0.3-0.2,0.5-0.5,0.5c-0.3,0-0.5-0.2-0.5-0.5
			c0-0.1,0.1-0.4,0.5-0.5c-0.3-0.4-1-0.4-1.1-0.4c-0.5,0-1.3,0.4-1.3,2C112.9,150.1,113.8,150.6,114.3,150.6z"/>
		<path class="st1" d="M118.6,150.8c-1.2,0-2.2-1-2.2-2.2c0-1.2,1-2.3,2.2-2.3c1.2,0,2.2,1.1,2.2,2.3
			C120.9,149.8,119.9,150.8,118.6,150.8z M119.8,149.8c0.2-0.4,0.2-1,0.2-1.3c0-0.4,0-1-0.3-1.4c-0.3-0.4-0.7-0.6-1.1-0.6
			c-0.4,0-0.9,0.2-1.1,0.7c-0.2,0.4-0.2,1-0.2,1.4c0,0.4,0,1,0.2,1.4c0.3,0.5,0.7,0.7,1.1,0.7C119.2,150.6,119.6,150.3,119.8,149.8z
			"/>
	</g>
	<g>
		<path class="st1" d="M121.5,146.7v-0.3l1.4-0.1v1c0.3-0.6,0.7-1,1.5-1c0.6,0,0.9,0.2,1,0.4c0.3,0.4,0.3,0.7,0.3,1.5v1.9
			c0,0.3,0.3,0.3,0.8,0.3v0.3c-0.3,0-0.9,0-1.1,0c-0.3,0-0.8,0-1.1,0v-0.3c0.7,0,0.8,0,0.8-0.4v-2.3c0-0.6-0.1-1.1-0.7-1.1
			c-0.6,0-1.3,0.6-1.3,1.6v1.8c0,0.4,0.1,0.4,0.8,0.4v0.3c-0.3,0-0.9,0-1.1,0c-0.3,0-0.8,0-1.1,0v-0.3c0.7,0,0.8,0,0.8-0.4v-2.7
			C122.3,146.8,122.2,146.7,121.5,146.7z"/>
		<path class="st1" d="M129.3,150.6c0,0.1-0.1,0.2-0.2,0.2c-0.1,0-0.1,0-0.2-0.2l-1.4-3.5c-0.1-0.3-0.2-0.4-0.8-0.4v-0.3
			c0.3,0,0.7,0,1,0c0.2,0,0.8,0,1.1,0v0.3c-0.2,0-0.6,0-0.6,0.3c0,0,0,0,0.1,0.2l1.1,2.8l1-2.5c0-0.1,0.1-0.1,0.1-0.2
			c0-0.2-0.1-0.4-0.5-0.4v-0.3c0.2,0,0.6,0,0.9,0c0.2,0,0.5,0,0.7,0v0.3c-0.7,0-0.8,0.4-0.9,0.7L129.3,150.6z"/>
	</g>
	<g>
		<path class="st1" d="M132.9,149.9c0.2,0.4,0.6,0.7,1.1,0.7c0.1,0,1,0,1.3-1c0-0.1,0-0.1,0.1-0.1c0,0,0.1,0,0.1,0.1
			c0,0.2-0.4,1.3-1.7,1.3c-1.1,0-2.2-1-2.2-2.3c0-1.2,0.9-2.3,2.1-2.3c1.2,0,1.8,1,1.8,2c0,0.2,0,0.2-0.2,0.2h-2.8
			C132.6,148.8,132.6,149.4,132.9,149.9z M135,148.2c0-0.4-0.1-1.7-1.1-1.7c-0.3,0-1.2,0.3-1.2,1.7H135z"/>
		<path class="st1" d="M138.9,146.3c0.4,0,0.7,0.3,0.7,0.6c0,0.3-0.2,0.4-0.4,0.4c-0.2,0-0.4-0.2-0.4-0.4c0-0.3,0.2-0.4,0.2-0.4
			c0,0,0,0-0.1,0c-0.8,0-1.2,0.9-1.2,1.9v1.5c0,0.4,0,0.5,0.8,0.5h0.2v0.3c-0.4,0-0.9,0-1.3,0c-0.3,0-0.7,0-1.1,0v-0.3
			c0.7,0,0.8,0,0.8-0.4v-2.7c0-0.5-0.1-0.6-0.8-0.6v-0.3l1.4-0.1v1.1C137.8,147,138.1,146.3,138.9,146.3z"/>
	</g>
	<g>
		<path class="st1" d="M141.6,149.5c0,0.2,0,1.1,0.7,1.1c0.4,0,0.7-0.4,0.7-1.1v-0.5h0.2v0.6c0,0.6-0.3,1.3-1,1.3
			c-0.4,0-1.3-0.1-1.3-1.3v-2.8h-0.8v-0.2c1,0,1.3-1.1,1.3-1.9h0.2v1.8h1.4v0.3h-1.4V149.5z"/>
	</g>
	<g>
		<path class="st1" d="M117.6,156.4c1.1,0,2.1,1,2.1,2.3c0,1.3-1,2.3-2.2,2.3c-0.8,0-1.2-0.5-1.2-0.7v0.1v1.7c0,0.4,0.1,0.4,0.8,0.4
			v0.3c-0.3,0-0.9,0-1.1,0c-0.3,0-0.8,0-1.1,0v-0.3c0.7,0,0.8,0,0.8-0.4v-4.7c0-0.4-0.1-0.5-0.8-0.5v-0.3l1.4-0.1v0.7
			C116.4,156.8,116.8,156.4,117.6,156.4z M116.4,160.1c0.3,0.4,0.6,0.6,1,0.6c0.7,0,1.4-0.8,1.4-2c0-1.1-0.6-2-1.3-2
			c-0.5,0-1,0.3-1.3,0.8v2.2C116.2,159.8,116.2,159.8,116.4,160.1z"/>
		<path class="st1" d="M122.6,160.9c-1.5,0-1.5-0.9-1.5-1.7v-1.5c0-0.9,0-0.9-0.8-0.9v-0.3l1.5-0.1v3.3c0,0.5,0,1,0.9,1
			c0.7,0,1.2-0.7,1.2-1.5v-1.8c0-0.5-0.1-0.6-0.8-0.6v-0.3l1.5-0.1v3.5c0,0.5,0.1,0.6,0.8,0.6v0.3l-1.4,0.1V160
			C123.6,160.6,123.2,160.9,122.6,160.9z"/>
		<path class="st1" d="M127.3,160c0,0.4,0.1,0.4,0.8,0.4v0.3c-0.4,0-0.9,0-1.1,0c-0.2,0-0.8,0-1.1,0v-0.3c0.7,0,0.8,0,0.8-0.4v-5.2
			c0-0.5-0.1-0.6-0.8-0.6V154l1.4-0.1V160z"/>
		<path class="st1" d="M129.1,158.4c-0.3-0.2-0.4-0.5-0.4-0.8c0-0.6,0.4-1.2,1.6-1.2c0.1,0,0.6,0,0.9,0.3c0,0,0.1-0.1,0.2-0.2
			c0.1-0.1,0.1-0.1,0.2-0.1c0.1,0,0.1,0.1,0.1,0.2v1c0,0.2,0,0.2-0.1,0.2c0,0-0.1,0-0.1-0.1c0-0.3-0.1-1.2-1.2-1.2
			c-0.9,0-1.1,0.4-1.1,0.8c0,0.6,0.7,0.7,1.2,0.8c0.4,0.1,0.8,0.2,1.1,0.5c0.1,0.1,0.4,0.4,0.4,0.9c0,0.7-0.5,1.4-1.6,1.4
			c-0.2,0-0.7,0-1.1-0.4c-0.2,0.2-0.2,0.2-0.2,0.2c-0.2,0.2-0.2,0.2-0.2,0.2c-0.1,0-0.1-0.1-0.1-0.2v-1.3c0-0.2,0-0.3,0.1-0.3
			c0.1,0,0.1,0,0.1,0.2c0.2,0.8,0.5,1.4,1.4,1.4c0.8,0,1.1-0.4,1.1-0.9c0-0.7-0.8-0.9-1-0.9C129.7,158.7,129.4,158.6,129.1,158.4z"
			/>
		<path class="st1" d="M133.6,160c0.2,0.4,0.6,0.7,1.1,0.7c0.1,0,1,0,1.3-1c0-0.1,0-0.1,0.1-0.1c0,0,0.1,0,0.1,0.1
			c0,0.2-0.4,1.3-1.7,1.3c-1.1,0-2.2-1-2.2-2.3c0-1.2,0.9-2.3,2.1-2.3c1.2,0,1.8,1,1.8,2c0,0.2,0,0.2-0.2,0.2h-2.8
			C133.3,158.8,133.3,159.5,133.6,160z M135.7,158.3c0-0.4-0.1-1.7-1.1-1.7c-0.3,0-1.2,0.3-1.2,1.7H135.7z"/>
	</g>
	<g>
		<path class="st1" d="M137.4,158.4c-0.3-0.2-0.4-0.5-0.4-0.8c0-0.6,0.4-1.2,1.6-1.2c0.1,0,0.6,0,0.9,0.3c0,0,0.1-0.1,0.2-0.2
			c0.1-0.1,0.1-0.1,0.2-0.1c0.1,0,0.1,0.1,0.1,0.2v1c0,0.2,0,0.2-0.1,0.2c0,0-0.1,0-0.1-0.1c0-0.3-0.1-1.2-1.2-1.2
			c-0.9,0-1.1,0.4-1.1,0.8c0,0.6,0.7,0.7,1.2,0.8c0.4,0.1,0.8,0.2,1.1,0.5c0.1,0.1,0.4,0.4,0.4,0.9c0,0.7-0.5,1.4-1.6,1.4
			c-0.2,0-0.7,0-1.1-0.4c-0.2,0.2-0.2,0.2-0.2,0.2c-0.2,0.2-0.2,0.2-0.2,0.2c-0.1,0-0.1-0.1-0.1-0.2v-1.3c0-0.2,0-0.3,0.1-0.3
			c0.1,0,0.1,0,0.1,0.2c0.2,0.8,0.5,1.4,1.4,1.4c0.8,0,1.1-0.4,1.1-0.9c0-0.7-0.8-0.9-1-0.9C138,158.7,137.8,158.6,137.4,158.4z"/>
	</g>
	<g>
		<path class="st1" d="M106.2,170.1c0,0.2,0,1.1,0.7,1.1c0.4,0,0.7-0.4,0.7-1.1v-0.5h0.2v0.6c0,0.6-0.3,1.3-1,1.3
			c-0.4,0-1.3-0.1-1.3-1.3v-2.8h-0.8v-0.2c1,0,1.3-1.1,1.3-1.9h0.2v1.8h1.4v0.3h-1.4V170.1z"/>
		<path class="st1" d="M110.8,171.5c-1.2,0-2.2-1-2.2-2.2c0-1.2,1-2.3,2.2-2.3c1.2,0,2.2,1.1,2.2,2.3
			C113,170.5,112,171.5,110.8,171.5z M112,170.5c0.2-0.4,0.2-1,0.2-1.3c0-0.4,0-1-0.3-1.4c-0.3-0.4-0.7-0.6-1.1-0.6
			c-0.4,0-0.9,0.2-1.1,0.7c-0.2,0.4-0.2,1-0.2,1.4c0,0.4,0,1,0.2,1.4c0.3,0.5,0.7,0.7,1.1,0.7C111.3,171.2,111.8,170.9,112,170.5z"
			/>
	</g>
	<g>
		<path class="st1" d="M117.5,169c-0.3-0.2-0.4-0.5-0.4-0.8c0-0.6,0.4-1.2,1.6-1.2c0.1,0,0.6,0,0.9,0.3c0,0,0.1-0.1,0.2-0.2
			c0.1-0.1,0.1-0.1,0.2-0.1c0.1,0,0.1,0.1,0.1,0.2v1c0,0.2,0,0.2-0.1,0.2c0,0-0.1,0-0.1-0.1c0-0.3-0.1-1.2-1.2-1.2
			c-0.9,0-1.1,0.4-1.1,0.8c0,0.6,0.7,0.7,1.2,0.8c0.4,0.1,0.8,0.2,1.1,0.5c0.1,0.1,0.4,0.4,0.4,0.9c0,0.7-0.5,1.4-1.6,1.4
			c-0.2,0-0.7,0-1.1-0.4c-0.2,0.2-0.2,0.2-0.2,0.2c-0.2,0.2-0.2,0.2-0.2,0.2c-0.1,0-0.1-0.1-0.1-0.2v-1.3c0-0.2,0-0.3,0.1-0.3
			c0.1,0,0.1,0,0.1,0.2c0.2,0.8,0.5,1.4,1.4,1.4c0.8,0,1.1-0.4,1.1-0.9c0-0.7-0.8-0.9-1-0.9C118.1,169.3,117.8,169.2,117.5,169z"/>
		<path class="st1" d="M122.7,171.5c-0.6,0-1.6-0.2-1.6-1.1c0-0.4,0.2-1,1-1.3c0.6-0.3,1.3-0.3,1.8-0.4v-0.4c0-0.9-0.6-1.3-1.1-1.3
			c-0.3,0-0.8,0.1-1.1,0.5c0.5,0,0.5,0.3,0.5,0.5c0,0.3-0.2,0.5-0.5,0.5c-0.3,0-0.5-0.2-0.5-0.5c0-0.7,0.7-1.1,1.5-1.1
			c0.5,0,1,0.2,1.4,0.5c0.4,0.4,0.4,0.8,0.4,1.2v2c0,0,0,0.5,0.4,0.5c0.1,0,0.4-0.1,0.4-0.6v-0.6h0.2v0.6c0,0.8-0.6,0.9-0.8,0.9
			c-0.5,0-0.7-0.4-0.8-0.8C123.8,171.1,123.4,171.5,122.7,171.5z M121.9,170.4c0,0.5,0.4,0.8,0.9,0.8c0.4,0,1.2-0.3,1.2-1.3v-1
			C122.3,169,121.9,169.8,121.9,170.4z"/>
		<path class="st1" d="M126,167.4V167l1.4-0.1v1c0.3-0.6,0.7-1,1.5-1c0.4,0,1.2,0.1,1.3,1c0.2-0.4,0.6-1,1.4-1c0.6,0,0.9,0.2,1,0.4
			c0.3,0.4,0.3,0.7,0.3,1.5v1.9c0,0.3,0.3,0.3,0.8,0.3v0.3c-0.3,0-0.9,0-1.1,0c-0.3,0-0.8,0-1.1,0V171c0.7,0,0.8,0,0.8-0.4v-2.3
			c0-0.6-0.1-1.1-0.7-1.1c-0.6,0-1.3,0.6-1.3,1.6v1.8c0,0.4,0.1,0.4,0.8,0.4v0.3c-0.3,0-0.9,0-1.1,0c-0.3,0-0.8,0-1.1,0V171
			c0.7,0,0.8,0,0.8-0.4v-2.3c0-0.6-0.1-1.1-0.7-1.1c-0.6,0-1.3,0.6-1.3,1.6v1.8c0,0.4,0.1,0.4,0.8,0.4v0.3c-0.3,0-0.9,0-1.1,0
			c-0.3,0-0.8,0-1.1,0V171c0.7,0,0.8,0,0.8-0.4v-2.7C126.8,167.4,126.7,167.4,126,167.4z"/>
		<path class="st1" d="M137.1,166.9c1.1,0,2.1,1,2.1,2.3c0,1.3-1,2.3-2.2,2.3c-0.8,0-1.2-0.5-1.2-0.7v0.1v1.7c0,0.4,0.1,0.4,0.8,0.4
			v0.3c-0.3,0-0.9,0-1.1,0c-0.3,0-0.8,0-1.1,0V173c0.7,0,0.8,0,0.8-0.4v-4.7c0-0.4-0.1-0.5-0.8-0.5V167l1.4-0.1v0.7
			C135.9,167.4,136.3,166.9,137.1,166.9z M135.8,170.6c0.3,0.4,0.6,0.6,1,0.6c0.7,0,1.4-0.8,1.4-2c0-1.1-0.6-2-1.3-2
			c-0.5,0-1,0.3-1.3,0.8v2.2C135.7,170.4,135.7,170.4,135.8,170.6z"/>
		<path class="st1" d="M141.3,170.6c0,0.4,0.1,0.4,0.8,0.4v0.3c-0.4,0-0.9,0-1.1,0c-0.2,0-0.8,0-1.1,0V171c0.7,0,0.8,0,0.8-0.4v-5.2
			c0-0.5-0.1-0.6-0.8-0.6v-0.3l1.4-0.1V170.6z"/>
		<path class="st1" d="M143.7,170.5c0.2,0.4,0.6,0.7,1.1,0.7c0.1,0,1,0,1.3-1c0-0.1,0-0.1,0.1-0.1c0,0,0.1,0,0.1,0.1
			c0,0.2-0.4,1.3-1.7,1.3c-1.1,0-2.2-1-2.2-2.3c0-1.2,0.9-2.3,2.1-2.3c1.2,0,1.8,1,1.8,2c0,0.2,0,0.2-0.2,0.2h-2.8
			C143.4,169.4,143.4,170.1,143.7,170.5z M145.7,168.8c0-0.4-0.1-1.7-1.1-1.7c-0.3,0-1.2,0.3-1.2,1.7H145.7z"/>
	</g>
	<g>
		<path class="st1" d="M147.5,169c-0.3-0.2-0.4-0.5-0.4-0.8c0-0.6,0.4-1.2,1.6-1.2c0.1,0,0.6,0,0.9,0.3c0,0,0.1-0.1,0.2-0.2
			c0.1-0.1,0.1-0.1,0.2-0.1c0.1,0,0.1,0.1,0.1,0.2v1c0,0.2,0,0.2-0.1,0.2c0,0-0.1,0-0.1-0.1c0-0.3-0.1-1.2-1.2-1.2
			c-0.9,0-1.1,0.4-1.1,0.8c0,0.6,0.7,0.7,1.2,0.8c0.4,0.1,0.8,0.2,1.1,0.5c0.1,0.1,0.4,0.4,0.4,0.9c0,0.7-0.5,1.4-1.6,1.4
			c-0.2,0-0.7,0-1.1-0.4c-0.2,0.2-0.2,0.2-0.2,0.2c-0.2,0.2-0.2,0.2-0.2,0.2c-0.1,0-0.1-0.1-0.1-0.2v-1.3c0-0.2,0-0.3,0.1-0.3
			c0.1,0,0.1,0,0.1,0.2c0.2,0.8,0.5,1.4,1.4,1.4c0.8,0,1.1-0.4,1.1-0.9c0-0.7-0.8-0.9-1-0.9C148.1,169.3,147.8,169.2,147.5,169z"/>
	</g>
	<polyline points="179.7,160.5 184.3,158.2 179.7,156 180.8,158.2 	"/>
	<line class="st2" x1="155.9" y1="158.2" x2="180.8" y2="158.2"/>
	<g>
		<path class="st1" d="M168,148.5c-0.1,0.4-0.2,0.7-0.2,0.9c0,0.3,0.2,0.7,0.5,0.7c0.3,0,1-0.2,1.3-1.3c0-0.1,0-0.1,0.1-0.1
			c0,0,0.1,0,0.1,0.1c0,0.2-0.6,1.5-1.6,1.5c-0.6,0-1-0.4-1.1-0.8c0,0.1-0.4,0.8-1,0.8c-0.4,0-0.9-0.2-0.9-0.7
			c0-0.3,0.2-0.6,0.5-0.6c0.1,0,0.4,0.1,0.4,0.3c0,0.3-0.2,0.5-0.5,0.5c0.2,0.1,0.4,0.1,0.5,0.1c0.4,0,0.8-0.4,0.9-1
			c0.4-1.4,0.5-2.1,0.5-2.4c0-0.6-0.3-0.7-0.5-0.7c-0.3,0-1,0.2-1.3,1.3c0,0.1-0.1,0.1-0.1,0.1c0,0-0.1,0-0.1-0.1
			c0-0.3,0.6-1.5,1.6-1.5c0.3,0,0.8,0.1,1.1,0.8c0.1-0.2,0.5-0.8,1-0.8c0.3,0,0.9,0.1,0.9,0.7c0,0.4-0.3,0.6-0.5,0.6
			c-0.3,0-0.4-0.2-0.4-0.3c0-0.2,0.2-0.5,0.5-0.5c-0.2-0.1-0.4-0.1-0.5-0.1c-0.7,0-0.9,0.9-1,1.2L168,148.5z"/>
	</g>
	<g>
		<path class="st1" d="M171.8,152.6v-10h1.4v0.4h-1v9.2h1v0.4H171.8z"/>
	</g>
	<g>
		<path class="st1" d="M174.8,147.2c0.1-0.5,0.2-0.6,0.2-0.8c0-0.3-0.1-0.5-0.3-0.5c-0.4,0-0.6,0.5-0.7,1.2
			c-0.1,0.2-0.1,0.2-0.2,0.2c0,0-0.1,0-0.1-0.1c0,0,0.1-0.6,0.3-1c0.1-0.2,0.3-0.6,0.7-0.6c0.5,0,0.9,0.3,0.9,0.9
			c0.2-0.2,0.7-0.9,1.6-0.9c0.7,0,1.1,0.4,1.1,1.1c0,0.6-0.4,1.7-0.6,2.2c-0.1,0.2-0.2,0.5-0.2,0.7c0,0.2,0.1,0.3,0.2,0.3
			c0.5,0,0.8-0.6,1-1.2c0-0.1,0-0.2,0.1-0.2c0,0,0.1,0,0.1,0.1c0,0.1-0.4,1.5-1.3,1.5c-0.5,0-0.8-0.3-0.8-0.8c0-0.1,0-0.2,0.1-0.5
			c0.2-0.4,0.6-1.7,0.6-2.3c0-0.3-0.1-0.7-0.5-0.7c-0.9,0-1.5,0.9-1.6,1.2c0,0-0.1,0.3-0.1,0.5c0,0.2-0.1,0.4-0.2,0.7l-0.2,0.9
			c-0.1,0.2-0.2,0.7-0.2,0.7c-0.1,0.2-0.2,0.3-0.4,0.3c-0.1,0-0.3-0.1-0.3-0.3c0,0,0.1-0.3,0.1-0.4L174.8,147.2z"/>
	</g>
	<g>
		<path class="st1" d="M181,152.6h-1.4v-0.4h1V143h-1v-0.4h1.4V152.6z"/>
	</g>
	<polyline points="250.6,160.5 255.1,158.2 250.6,156 251.7,158.2 	"/>
	<line class="st2" x1="226.8" y1="158.2" x2="251.7" y2="158.2"/>
	<g>
		<path class="st1" d="M233,150.1c-0.3,1.1-1.3,2-2.3,2c-0.6,0-1.1-0.4-1.1-0.9c0-0.5,0.3-0.6,0.6-0.6c0.1,0,0.4,0,0.4,0.3
			c0,0.2-0.1,0.3-0.2,0.4c-0.1,0.1-0.3,0.1-0.4,0.1c0.2,0.4,0.6,0.4,0.8,0.4c0.5,0,0.8-0.3,1.1-0.6c0.4-0.5,0.5-1,0.6-1.5
			c-0.3,0.3-0.6,0.4-1,0.4c-0.6,0-1.2-0.3-1.2-1.2c0-0.5,0.2-1,0.6-2.1c0.1-0.2,0.2-0.4,0.2-0.7c0-0.3-0.2-0.3-0.2-0.3
			c-0.3,0-0.7,0.3-1,1.2c0,0.2-0.1,0.2-0.2,0.2c0,0-0.1,0-0.1-0.1c0-0.1,0.4-1.5,1.3-1.5c0.5,0,0.8,0.4,0.8,0.8c0,0.2,0,0.3-0.2,0.7
			c-0.3,0.9-0.5,1.5-0.5,2c0,0.4,0.1,0.8,0.6,0.8c0.7,0,1.1-0.7,1.1-0.8l0.4-1.8c0.1-0.3,0.1-0.5,0.2-0.8c0-0.2,0.1-0.5,0.1-0.5
			c0.1-0.1,0.2-0.2,0.3-0.2c0.1,0,0.3,0.1,0.3,0.3c0,0.1,0,0.1,0,0.2L233,150.1z"/>
	</g>
	<g>
		<path class="st1" d="M235.5,152.6v-10h1.4v0.4h-1v9.2h1v0.4H235.5z"/>
	</g>
	<g>
		<path class="st1" d="M238.6,147.2c0.1-0.5,0.2-0.6,0.2-0.8c0-0.3-0.1-0.5-0.3-0.5c-0.4,0-0.6,0.5-0.7,1.2
			c-0.1,0.2-0.1,0.2-0.2,0.2c0,0-0.1,0-0.1-0.1c0,0,0.1-0.6,0.3-1c0.1-0.2,0.3-0.6,0.7-0.6c0.5,0,0.9,0.3,0.9,0.9
			c0.2-0.2,0.7-0.9,1.6-0.9c0.7,0,1.1,0.4,1.1,1.1c0,0.6-0.4,1.7-0.6,2.2c-0.1,0.2-0.2,0.5-0.2,0.7c0,0.2,0.1,0.3,0.2,0.3
			c0.5,0,0.8-0.6,1-1.2c0.1-0.1,0.1-0.2,0.2-0.2c0,0,0.1,0,0.1,0.1c0,0.1-0.4,1.5-1.3,1.5c-0.5,0-0.8-0.3-0.8-0.8
			c0-0.1,0-0.2,0.1-0.5c0.2-0.4,0.6-1.7,0.6-2.3c0-0.3-0.1-0.7-0.5-0.7c-0.9,0-1.5,0.9-1.6,1.2c0,0-0.1,0.3-0.1,0.5
			c0,0.2-0.1,0.4-0.2,0.7l-0.2,0.9c-0.1,0.2-0.2,0.7-0.2,0.7c-0.1,0.2-0.2,0.3-0.4,0.3c-0.1,0-0.3-0.1-0.3-0.3c0,0,0.1-0.3,0.1-0.4
			L238.6,147.2z"/>
	</g>
	<g>
		<path class="st1" d="M244.7,152.6h-1.4v-0.4h1V143h-1v-0.4h1.4V152.6z"/>
	</g>
	<polygon class="st2" points="184.3,158.2 184.3,172.4 226.8,172.4 226.8,144 184.3,144 	"/>
</g>
</svg>
