<?xml version="1.0" encoding="utf-8"?>
<!-- Generator: Adobe Illustrator 22.1.0, SVG Export Plug-In . SVG Version: 6.00 Build 0)  -->
<svg version="1.1" id="Layer_1" xmlns="http://www.w3.org/2000/svg" xmlns:xlink="http://www.w3.org/1999/xlink" x="0px" y="0px"
	 viewBox="0 0 406.8 223" style="enable-background:new 0 0 406.8 223;" xml:space="preserve">
<style type="text/css">
	.st0{fill:none;stroke:#000000;stroke-width:0.8504;stroke-miterlimit:10;}
	.st1{fill:#2A4B9B;}
	.st2{fill:none;stroke:#2A4B9B;stroke-width:0.8504;stroke-miterlimit:10;}
	.st3{fill:none;stroke:#2A4B9B;stroke-width:1.7008;stroke-miterlimit:10;stroke-dasharray:2.8175,2.8175;}
	.st4{fill:#E52421;}
	.st5{fill:none;stroke:#E52421;stroke-width:0.8504;stroke-miterlimit:10;}
	.st6{fill:none;stroke:#E52421;stroke-width:1.7008;stroke-miterlimit:10;stroke-dasharray:2.8175,2.8175;}
	.st7{fill:#66B32E;}
	.st8{fill:none;stroke:#66B32E;stroke-width:0.8504;stroke-miterlimit:10;}
	.st9{fill:none;stroke:#284A9A;stroke-width:0.8504;stroke-miterlimit:10;}
</style>
<g>
	<polyline points="176.2,66 180.7,63.8 176.2,61.5 177.3,63.8 	"/>
	<line class="st0" x1="106.3" y1="63.8" x2="177.3" y2="63.8"/>
	<polyline points="133.4,4.5 131.1,0 128.8,4.5 131.1,3.4 	"/>
	<line class="st0" x1="131.1" y1="67.3" x2="131.1" y2="3.4"/>
	<g>
		<path class="st1" d="M139,9.3c-0.3,1.1-1.3,2-2.3,2c-0.6,0-1.1-0.4-1.1-0.9c0-0.5,0.3-0.6,0.6-0.6c0.1,0,0.4,0,0.4,0.3
			c0,0.2-0.1,0.3-0.2,0.4c-0.1,0.1-0.3,0.1-0.4,0.1c0.2,0.4,0.6,0.4,0.8,0.4c0.5,0,0.8-0.3,1.1-0.6c0.4-0.5,0.5-1,0.6-1.5
			c-0.3,0.3-0.6,0.4-1,0.4c-0.6,0-1.2-0.3-1.2-1.2c0-0.5,0.2-1,0.6-2.1c0.1-0.2,0.2-0.4,0.2-0.7c0-0.3-0.2-0.3-0.2-0.3
			c-0.3,0-0.7,0.3-1,1.2c0,0.2-0.1,0.2-0.2,0.2c0,0-0.1,0-0.1-0.1c0-0.1,0.4-1.5,1.3-1.5c0.5,0,0.8,0.4,0.8,0.8c0,0.2,0,0.3-0.2,0.7
			c-0.3,0.9-0.5,1.5-0.5,2c0,0.4,0.1,0.8,0.6,0.8c0.7,0,1.1-0.7,1.1-0.8l0.4-1.8c0.1-0.3,0.1-0.5,0.2-0.8c0-0.2,0.1-0.5,0.1-0.5
			c0.1-0.1,0.2-0.2,0.3-0.2c0.1,0,0.3,0.1,0.3,0.3c0,0.1,0,0.1,0,0.2L139,9.3z"/>
	</g>
	<g>
		<path d="M141.5,11.8v-10h1.4v0.4h-1v9.2h1v0.4H141.5z"/>
	</g>
	<g>
		<path d="M144.5,6.4c0.1-0.5,0.2-0.6,0.2-0.8c0-0.3-0.1-0.5-0.3-0.5c-0.4,0-0.6,0.5-0.7,1.2c-0.1,0.2-0.1,0.2-0.2,0.2
			c0,0-0.1,0-0.1-0.1c0,0,0.1-0.6,0.3-1c0.1-0.2,0.3-0.6,0.7-0.6c0.5,0,0.9,0.3,0.9,0.9c0.2-0.2,0.7-0.9,1.6-0.9
			c0.7,0,1.1,0.4,1.1,1.1c0,0.6-0.4,1.7-0.6,2.2c-0.1,0.2-0.2,0.5-0.2,0.7c0,0.2,0.1,0.3,0.2,0.3c0.5,0,0.8-0.6,1-1.2
			c0-0.1,0-0.2,0.1-0.2c0,0,0.1,0,0.1,0.1c0,0.1-0.4,1.5-1.3,1.5c-0.5,0-0.8-0.3-0.8-0.8c0-0.1,0-0.2,0.1-0.5
			c0.2-0.4,0.6-1.7,0.6-2.3c0-0.3-0.1-0.7-0.5-0.7c-0.9,0-1.5,0.9-1.6,1.2c0,0-0.1,0.3-0.1,0.5c0,0.2-0.1,0.4-0.2,0.7l-0.2,0.9
			c-0.1,0.2-0.2,0.7-0.2,0.7c-0.1,0.2-0.2,0.3-0.4,0.3c-0.1,0-0.3-0.1-0.3-0.3c0-0.1,0.1-0.3,0.1-0.4L144.5,6.4z"/>
	</g>
	<g>
		<path d="M152.7,7.4c-0.3,0-0.5-0.2-0.5-0.5c0-0.3,0.2-0.5,0.5-0.5c0.3,0,0.5,0.2,0.5,0.5C153.3,7.1,153,7.4,152.7,7.4z"/>
	</g>
	<g>
		<path d="M159.2,8.6c0,0.1,0,0.2,0,0.2c0,0.2,0.1,0.2,0.4,0.2c0.3,0,0.4,0,0.6,0c0.3,0,0.3,0,0.3,0.1c0,0.2-0.1,0.2-0.2,0.2
			c-0.3,0-0.6,0-0.9,0c-0.3,0-0.5,0-0.8,0c-0.3,0-0.6,0-0.8,0c-0.3,0-0.5,0-0.8,0c-0.1,0-0.2,0-0.2-0.1c0-0.2,0.1-0.2,0.4-0.2
			c1.1,0,1.1-0.1,1.2-0.5l1.3-5.3c0,0,0-0.1,0-0.2c0-0.1,0-0.1-0.3-0.1h-0.4c-1.5,0-1.7,0.2-2.3,1.7c-0.1,0.2-0.1,0.2-0.2,0.2
			c-0.1,0-0.1,0-0.1-0.1c0,0,0-0.2,0.1-0.2l0.6-1.8c0.1-0.2,0.1-0.2,0.3-0.2h5.5c0.2,0,0.3,0,0.3,0.1c0,0,0,0.1,0,0.2L163,4.6
			c0,0.1,0,0.2-0.1,0.2c-0.1,0-0.1-0.1-0.1-0.1c0,0,0-0.1,0-0.2c0-0.3,0.1-0.6,0.1-0.8c0-0.8-0.4-0.8-1.5-0.8c-0.2,0-0.5,0-0.6,0
			c-0.1,0-0.2,0.1-0.2,0.4L159.2,8.6z"/>
	</g>
	<g>
		<path d="M164.8,10.2c0.2,0,0.4,0,0.5,0c0.1,0,0.1-0.2,0.2-0.3c0-0.1,0-0.1,0.1-0.1c0.1,0,0.1,0.1,0.1,0.1c0,0-0.2,0.8-0.2,0.8
			c0,0.1-0.1,0.1-0.2,0.1h-2.5c-0.2,0-0.2,0-0.2-0.1c0,0,0-0.1,0-0.1c0,0,1.4-0.8,1.5-0.9c0.4-0.2,0.9-0.5,0.9-1
			c0-0.5-0.5-0.7-1.1-0.7c-0.2,0-0.7,0-0.9,0.3c0.2,0,0.2,0.2,0.2,0.3c0,0.2-0.2,0.3-0.3,0.3c-0.1,0-0.3-0.1-0.3-0.3
			c0-0.5,0.5-0.8,1.4-0.8c0.9,0,1.6,0.3,1.6,1c0,0.6-0.5,0.8-1,1c-0.3,0.1-0.4,0.2-1.2,0.6v0H164.8z"/>
	</g>
	<g>
		<path d="M168.5,11.8h-1.4v-0.4h1V2.3h-1V1.9h1.4V11.8z"/>
	</g>
	<line class="st2" x1="173.6" y1="63.8" x2="173.6" y2="53.1"/>
	<g>
		<path d="M173.6,54.7c-1.1,0-1.9-0.9-1.9-1.9c0-1,0.9-1.9,1.9-1.9c1,0,1.9,0.9,1.9,1.9C175.6,53.9,174.7,54.7,173.6,54.7z"/>
	</g>
	<line class="st2" x1="159.4" y1="63.8" x2="159.4" y2="46.1"/>
	<g>
		<path d="M159.5,47.7c-1.1,0-1.9-0.9-1.9-1.9c0-1,0.9-1.9,1.9-1.9c1,0,1.9,0.9,1.9,1.9C161.4,46.8,160.5,47.7,159.5,47.7z"/>
	</g>
	<line class="st2" x1="145.3" y1="63.8" x2="145.3" y2="24.8"/>
	<g>
		<path d="M145.3,26.4c-1.1,0-1.9-0.9-1.9-1.9c0-1,0.9-1.9,1.9-1.9c1,0,1.9,0.9,1.9,1.9C147.3,25.6,146.4,26.4,145.3,26.4z"/>
	</g>
	<line class="st2" x1="116.9" y1="63.8" x2="116.9" y2="17.7"/>
	<g>
		<path d="M117,19.3c-1.1,0-1.9-0.9-1.9-1.9c0-1,0.9-1.9,1.9-1.9c1,0,1.9,0.9,1.9,1.9C118.9,18.5,118.1,19.3,117,19.3z"/>
	</g>
	<g>
		<path d="M186.3,63c0.1-0.5,0.2-0.6,0.2-0.8c0-0.3-0.1-0.5-0.3-0.5c-0.4,0-0.6,0.5-0.7,1.2c-0.1,0.2-0.1,0.2-0.2,0.2
			c0,0-0.1,0-0.1-0.1c0,0,0.1-0.6,0.3-1c0.1-0.2,0.3-0.6,0.7-0.6c0.5,0,0.9,0.3,0.9,0.9c0.2-0.2,0.7-0.9,1.6-0.9
			c0.7,0,1.1,0.4,1.1,1.1c0,0.6-0.4,1.7-0.6,2.2c-0.1,0.2-0.2,0.5-0.2,0.7c0,0.2,0.1,0.3,0.2,0.3c0.5,0,0.8-0.6,1-1.2
			c0-0.1,0-0.2,0.1-0.2c0,0,0.1,0,0.1,0.1c0,0.1-0.4,1.5-1.3,1.5c-0.5,0-0.8-0.3-0.8-0.8c0-0.1,0-0.2,0.1-0.5
			c0.2-0.4,0.6-1.7,0.6-2.3c0-0.3-0.1-0.7-0.5-0.7c-0.9,0-1.5,0.9-1.6,1.2c0,0-0.1,0.3-0.1,0.5c0,0.2-0.1,0.4-0.2,0.7l-0.2,0.9
			c-0.1,0.2-0.2,0.7-0.2,0.7c-0.1,0.2-0.2,0.3-0.4,0.3c-0.1,0-0.3-0.1-0.3-0.3c0-0.1,0.1-0.3,0.1-0.4L186.3,63z"/>
	</g>
	<path class="st3" d="M109.8,28.3c0,0,3.8-7.7,7.1-10.6c2-1.8,4.4-3.2,7.1-3.5c5-0.5,9.8,1.1,14.2,3.5c3,1.7,4.9,4.4,7.1,7.1
		c5.6,6.8,7.6,15.4,14.2,21.3c4.1,3.6,14.2,7.1,14.2,7.1l0,0"/>
	<line class="st2" x1="131.1" y1="63.8" x2="131.1" y2="14.2"/>
	<g>
		<path d="M131.2,15.8c-1.1,0-1.9-0.9-1.9-1.9c0-1,0.9-1.9,1.9-1.9c1,0,1.9,0.9,1.9,1.9C133.1,15,132.2,15.8,131.2,15.8z"/>
	</g>
	<g>
		<path d="M138.3,65.4c-1.1,0-1.9-0.9-1.9-1.9c0-1,0.9-1.9,1.9-1.9c1,0,1.9,0.9,1.9,1.9C140.2,64.5,139.3,65.4,138.3,65.4z"/>
		<path d="M152.4,65.4c-1.1,0-1.9-0.9-1.9-1.9c0-1,0.9-1.9,1.9-1.9c1,0,1.9,0.9,1.9,1.9C154.3,64.5,153.5,65.4,152.4,65.4z"/>
		<path d="M166.6,65.4c-1.1,0-1.9-0.9-1.9-1.9c0-1,0.9-1.9,1.9-1.9c1,0,1.9,0.9,1.9,1.9C168.5,64.5,167.6,65.4,166.6,65.4z"/>
	</g>
	<g>
		<path d="M124.1,65.4c-1.1,0-1.9-0.9-1.9-1.9c0-1,0.9-1.9,1.9-1.9c1,0,1.9,0.9,1.9,1.9C126,64.5,125.1,65.4,124.1,65.4z"/>
	</g>
	<polyline points="69.9,66 74.4,63.8 69.9,61.5 71,63.8 	"/>
	<line class="st0" x1="0" y1="63.8" x2="71" y2="63.8"/>
	<polyline points="27.1,4.5 24.8,0 22.5,4.5 24.8,3.4 	"/>
	<line class="st0" x1="24.8" y1="67.3" x2="24.8" y2="3.4"/>
	<g>
		<path class="st4" d="M31.5,7.9c-0.1,0.4-0.2,0.7-0.2,0.9c0,0.3,0.2,0.7,0.5,0.7c0.3,0,1-0.2,1.3-1.3c0-0.1,0-0.1,0.1-0.1
			c0,0,0.1,0,0.1,0.1c0,0.2-0.6,1.5-1.6,1.5c-0.6,0-1-0.4-1.1-0.8c0,0.1-0.4,0.8-1,0.8c-0.4,0-0.9-0.2-0.9-0.7
			c0-0.3,0.2-0.6,0.5-0.6c0.1,0,0.4,0.1,0.4,0.3c0,0.3-0.2,0.5-0.5,0.5c0.2,0.1,0.4,0.1,0.5,0.1c0.4,0,0.8-0.4,0.9-1
			C31,7,31.2,6.4,31.2,6.1c0-0.6-0.3-0.7-0.5-0.7c-0.3,0-1,0.2-1.3,1.3c0,0.1-0.1,0.1-0.1,0.1c0,0-0.1,0-0.1-0.1
			c0-0.2,0.6-1.5,1.6-1.5c0.3,0,0.8,0.1,1.1,0.8c0.1-0.2,0.5-0.8,1-0.8c0.3,0,0.9,0.1,0.9,0.7c0,0.4-0.3,0.6-0.5,0.6
			c-0.3,0-0.4-0.2-0.4-0.3c0-0.2,0.2-0.5,0.5-0.5c-0.2-0.1-0.4-0.1-0.5-0.1c-0.7,0-0.9,0.9-1,1.2L31.5,7.9z"/>
	</g>
	<g>
		<path d="M35.3,12.1v-10h1.4v0.4h-1v9.2h1v0.4H35.3z"/>
	</g>
	<g>
		<path d="M38.3,6.7c0.1-0.5,0.2-0.6,0.2-0.8c0-0.3-0.1-0.5-0.3-0.5c-0.4,0-0.6,0.5-0.7,1.2c-0.1,0.2-0.1,0.2-0.2,0.2
			c0,0-0.1,0-0.1-0.1c0,0,0.1-0.6,0.3-1c0.1-0.2,0.3-0.6,0.7-0.6c0.5,0,0.9,0.3,0.9,0.9c0.2-0.2,0.7-0.9,1.6-0.9
			c0.7,0,1.1,0.4,1.1,1.1c0,0.6-0.4,1.7-0.6,2.2C41.1,8.6,41,8.9,41,9.1c0,0.2,0.1,0.3,0.2,0.3c0.5,0,0.8-0.6,1-1.2
			c0-0.1,0-0.2,0.1-0.2c0,0,0.1,0,0.1,0.1c0,0.1-0.4,1.5-1.3,1.5c-0.5,0-0.8-0.3-0.8-0.8c0-0.1,0-0.2,0.1-0.5
			c0.2-0.4,0.6-1.7,0.6-2.3c0-0.3-0.1-0.7-0.5-0.7c-0.9,0-1.5,0.9-1.6,1.2c0,0-0.1,0.3-0.1,0.5c0,0.2-0.1,0.4-0.2,0.7l-0.2,0.9
			c-0.1,0.2-0.2,0.7-0.2,0.7c-0.1,0.2-0.2,0.3-0.4,0.3c-0.1,0-0.3-0.1-0.3-0.3c0-0.1,0.1-0.3,0.1-0.4L38.3,6.7z"/>
	</g>
	<g>
		<path d="M46.5,7.6c-0.3,0-0.5-0.2-0.5-0.5c0-0.3,0.2-0.5,0.5-0.5c0.3,0,0.5,0.2,0.5,0.5C47.1,7.4,46.8,7.6,46.5,7.6z"/>
	</g>
	<g>
		<path d="M53,8.8C53,9,53,9,53,9c0,0.2,0.1,0.2,0.4,0.2c0.3,0,0.4,0,0.6,0c0.3,0,0.3,0,0.3,0.1c0,0.2-0.1,0.2-0.2,0.2
			c-0.3,0-0.6,0-0.9,0c-0.3,0-0.5,0-0.8,0c-0.3,0-0.6,0-0.8,0c-0.3,0-0.5,0-0.8,0c-0.1,0-0.2,0-0.2-0.1c0-0.2,0.1-0.2,0.4-0.2
			c1.1,0,1.1-0.1,1.2-0.5l1.3-5.3c0,0,0-0.1,0-0.2c0-0.1,0-0.1-0.3-0.1h-0.4c-1.5,0-1.7,0.2-2.3,1.7c-0.1,0.2-0.1,0.2-0.2,0.2
			c-0.1,0-0.1,0-0.1-0.1c0,0,0-0.2,0.1-0.2L51,3C51,2.8,51,2.8,51.3,2.8h5.5c0.2,0,0.3,0,0.3,0.1c0,0,0,0.1,0,0.2l-0.3,1.7
			c0,0.1,0,0.2-0.1,0.2c-0.1,0-0.1-0.1-0.1-0.1c0,0,0-0.1,0-0.2c0-0.3,0.1-0.6,0.1-0.8c0-0.8-0.4-0.8-1.5-0.8c-0.2,0-0.5,0-0.6,0
			c-0.1,0-0.2,0.1-0.2,0.4L53,8.8z"/>
	</g>
	<g>
		<path d="M58.3,10.4c0,0.2,0,0.3,0.2,0.3c0.1,0,0.3,0,0.5,0c0.2,0,0.3,0,0.3,0.1S59.2,11,59.2,11c-0.2,0-0.4,0-0.5,0
			c-0.2,0-0.4,0-0.6,0c-0.2,0-0.4,0-0.5,0c-0.2,0-0.4,0-0.6,0c0,0-0.1,0-0.1-0.1s0.1-0.1,0.2-0.1c0.2,0,0.4,0,0.6,0
			c0.2,0,0.2-0.1,0.2-0.3V8.3C57.4,8.4,57,8.4,57,8.4c-0.2,0-0.2,0-0.2-0.1s0.1-0.1,0.2-0.1c0.7,0,1-0.2,1.1-0.3c0.1,0,0.1,0,0.1,0
			c0.1,0,0.1,0.1,0.1,0.2V10.4z"/>
	</g>
	<g>
		<path d="M62.6,12.1h-1.4v-0.4h1V2.5h-1V2.1h1.4V12.1z"/>
	</g>
	<line class="st5" x1="67.3" y1="63.8" x2="67.3" y2="53.1"/>
	<g>
		<path d="M67.3,54.7c-1.1,0-1.9-0.9-1.9-1.9c0-1,0.9-1.9,1.9-1.9c1,0,1.9,0.9,1.9,1.9C69.3,53.9,68.4,54.7,67.3,54.7z"/>
	</g>
	<line class="st5" x1="53.1" y1="63.8" x2="53.1" y2="46.1"/>
	<g>
		<path d="M53.2,47.7c-1.1,0-1.9-0.9-1.9-1.9c0-1,0.9-1.9,1.9-1.9c1,0,1.9,0.9,1.9,1.9C55.1,46.8,54.2,47.7,53.2,47.7z"/>
	</g>
	<line class="st5" x1="39" y1="63.8" x2="39" y2="24.8"/>
	<g>
		<path d="M39,26.4c-1.1,0-1.9-0.9-1.9-1.9c0-1,0.9-1.9,1.9-1.9c1,0,1.9,0.9,1.9,1.9C40.9,25.6,40.1,26.4,39,26.4z"/>
	</g>
	<line class="st5" x1="10.6" y1="63.8" x2="10.6" y2="17.7"/>
	<g>
		<path d="M10.7,19.3c-1.1,0-1.9-0.9-1.9-1.9c0-1,0.9-1.9,1.9-1.9c1,0,1.9,0.9,1.9,1.9C12.6,18.5,11.7,19.3,10.7,19.3z"/>
	</g>
	<g>
		<path d="M80,63c0.1-0.5,0.2-0.6,0.2-0.8c0-0.3-0.1-0.5-0.3-0.5c-0.4,0-0.6,0.5-0.7,1.2c-0.1,0.2-0.1,0.2-0.2,0.2
			c0,0-0.1,0-0.1-0.1c0,0,0.1-0.6,0.3-1c0.1-0.2,0.3-0.6,0.7-0.6c0.5,0,0.9,0.3,0.9,0.9c0.2-0.2,0.7-0.9,1.6-0.9
			c0.7,0,1.1,0.4,1.1,1.1c0,0.6-0.4,1.7-0.6,2.2c-0.1,0.2-0.2,0.5-0.2,0.7c0,0.2,0.1,0.3,0.2,0.3c0.5,0,0.8-0.6,1-1.2
			c0-0.1,0-0.2,0.1-0.2c0,0,0.1,0,0.1,0.1c0,0.1-0.4,1.5-1.3,1.5c-0.5,0-0.8-0.3-0.8-0.8c0-0.1,0-0.2,0.1-0.5
			c0.2-0.4,0.6-1.7,0.6-2.3c0-0.3-0.1-0.7-0.5-0.7c-0.9,0-1.5,0.9-1.6,1.2c0,0-0.1,0.3-0.1,0.5c0,0.2-0.1,0.4-0.2,0.7l-0.2,0.9
			c-0.1,0.2-0.2,0.7-0.2,0.7c-0.1,0.2-0.2,0.3-0.4,0.3c-0.1,0-0.3-0.1-0.3-0.3c0-0.1,0.1-0.3,0.1-0.4L80,63z"/>
	</g>
	<path class="st6" d="M3.5,28.3c0,0,3.8-7.7,7.1-10.6c2-1.8,4.4-3.2,7.1-3.5c5-0.5,9.8,1.1,14.2,3.5c3,1.7,4.9,4.4,7.1,7.1
		c5.6,6.8,7.6,15.4,14.2,21.3c4.1,3.6,14.2,7.1,14.2,7.1l0,0"/>
	<line class="st5" x1="24.8" y1="63.8" x2="24.8" y2="14.2"/>
	<g>
		<path d="M24.9,15.8c-1.1,0-1.9-0.9-1.9-1.9c0-1,0.9-1.9,1.9-1.9c1,0,1.9,0.9,1.9,1.9C26.8,15,25.9,15.8,24.9,15.8z"/>
	</g>
	<polyline points="374.6,66 379.1,63.8 374.6,61.5 375.7,63.8 	"/>
	<line class="st0" x1="304.7" y1="63.8" x2="375.7" y2="63.8"/>
	<polyline points="331.8,4.5 329.5,0 327.3,4.5 329.5,3.4 	"/>
	<line class="st0" x1="329.5" y1="67.3" x2="329.5" y2="3.4"/>
	<g>
		<path class="st7" d="M337.3,3.6c-0.2,0-0.3-0.1-0.6-0.2c-0.2-0.1-0.4-0.2-0.6-0.2c-0.4,0-0.8,0.5-0.8,0.5l-0.2-0.1
			c0.5-0.6,0.7-0.8,1.1-0.8c0.2,0,0.3,0.1,0.6,0.2c0.2,0.1,0.4,0.2,0.6,0.2c0.4,0,0.8-0.5,0.8-0.5l0.2,0.1
			C337.9,3.4,337.7,3.6,337.3,3.6z"/>
	</g>
	<g>
		<path class="st7" d="M337.4,9.3c-0.3,1.1-1.3,2-2.3,2c-0.6,0-1.1-0.4-1.1-0.9c0-0.5,0.3-0.6,0.6-0.6c0.1,0,0.4,0,0.4,0.3
			c0,0.2-0.1,0.3-0.2,0.4c-0.1,0.1-0.3,0.1-0.4,0.1c0.2,0.4,0.6,0.4,0.8,0.4c0.5,0,0.8-0.3,1.1-0.6c0.4-0.5,0.5-1,0.6-1.5
			c-0.3,0.3-0.6,0.4-1,0.4c-0.6,0-1.2-0.3-1.2-1.2c0-0.5,0.2-1,0.6-2.1c0.1-0.2,0.2-0.4,0.2-0.7c0-0.3-0.2-0.3-0.2-0.3
			c-0.3,0-0.7,0.3-1,1.2c0,0.2-0.1,0.2-0.2,0.2c0,0-0.1,0-0.1-0.1c0-0.1,0.4-1.5,1.3-1.5c0.5,0,0.8,0.4,0.8,0.8c0,0.2,0,0.3-0.2,0.7
			c-0.3,0.9-0.5,1.5-0.5,2c0,0.4,0.1,0.8,0.6,0.8c0.7,0,1.1-0.7,1.1-0.8l0.4-1.8c0.1-0.3,0.1-0.5,0.2-0.8c0-0.2,0.1-0.5,0.1-0.5
			c0.1-0.1,0.2-0.2,0.3-0.2c0.1,0,0.3,0.1,0.3,0.3c0,0.1,0,0.1,0,0.2L337.4,9.3z"/>
	</g>
	<g>
		<path d="M340,11.8v-10h1.4v0.4h-1v9.2h1v0.4H340z"/>
	</g>
	<g>
		<path d="M343,6.4c0.1-0.5,0.2-0.6,0.2-0.8c0-0.3-0.1-0.5-0.3-0.5c-0.4,0-0.6,0.5-0.7,1.2c-0.1,0.2-0.1,0.2-0.2,0.2
			c0,0-0.1,0-0.1-0.1c0,0,0.1-0.6,0.3-1c0.1-0.2,0.3-0.6,0.7-0.6c0.5,0,0.9,0.3,0.9,0.9c0.2-0.2,0.7-0.9,1.6-0.9
			c0.7,0,1.1,0.4,1.1,1.1c0,0.6-0.4,1.7-0.6,2.2c-0.1,0.2-0.2,0.5-0.2,0.7c0,0.2,0.1,0.3,0.2,0.3c0.5,0,0.8-0.6,1-1.2
			c0.1-0.1,0.1-0.2,0.2-0.2c0,0,0.1,0,0.1,0.1c0,0.1-0.4,1.5-1.3,1.5c-0.5,0-0.8-0.3-0.8-0.8c0-0.1,0-0.2,0.1-0.5
			c0.2-0.4,0.6-1.7,0.6-2.3c0-0.3-0.1-0.7-0.5-0.7c-0.9,0-1.5,0.9-1.6,1.2c0,0-0.1,0.3-0.1,0.5c0,0.2-0.1,0.4-0.2,0.7l-0.2,0.9
			c-0.1,0.2-0.2,0.7-0.2,0.7c-0.1,0.2-0.2,0.3-0.4,0.3c-0.1,0-0.3-0.1-0.3-0.3c0-0.1,0.1-0.3,0.1-0.4L343,6.4z"/>
	</g>
	<g>
		<path d="M351.1,7.4c-0.3,0-0.5-0.2-0.5-0.5c0-0.3,0.2-0.5,0.5-0.5s0.5,0.2,0.5,0.5C351.6,7.1,351.4,7.4,351.1,7.4z"/>
	</g>
	<g>
		<path d="M357.7,8.6c0,0.1,0,0.2,0,0.2c0,0.2,0.1,0.2,0.4,0.2c0.3,0,0.4,0,0.6,0c0.3,0,0.3,0,0.3,0.1c0,0.2-0.1,0.2-0.2,0.2
			c-0.3,0-0.6,0-0.9,0c-0.3,0-0.5,0-0.8,0c-0.3,0-0.6,0-0.8,0c-0.3,0-0.5,0-0.8,0c-0.1,0-0.2,0-0.2-0.1c0-0.2,0.1-0.2,0.4-0.2
			c1.1,0,1.1-0.1,1.2-0.5l1.3-5.3c0,0,0-0.1,0-0.2c0-0.1,0-0.1-0.3-0.1h-0.4c-1.5,0-1.7,0.2-2.3,1.7c-0.1,0.2-0.1,0.2-0.2,0.2
			c-0.1,0-0.1,0-0.1-0.1c0,0,0-0.2,0.1-0.2l0.6-1.8c0.1-0.2,0.1-0.2,0.3-0.2h5.5c0.2,0,0.3,0,0.3,0.1c0,0,0,0.1,0,0.2l-0.3,1.7
			c0,0.1,0,0.2-0.1,0.2c-0.1,0-0.1-0.1-0.1-0.1c0,0,0-0.1,0-0.2c0-0.3,0.1-0.6,0.1-0.8c0-0.8-0.4-0.8-1.5-0.8c-0.2,0-0.5,0-0.6,0
			c-0.1,0-0.2,0.1-0.2,0.4L357.7,8.6z"/>
	</g>
	<g>
		<path d="M363.3,10.2c0.2,0,0.4,0,0.5,0c0.1,0,0.1-0.2,0.2-0.3c0-0.1,0-0.1,0.1-0.1c0.1,0,0.1,0.1,0.1,0.1c0,0-0.2,0.8-0.2,0.8
			c0,0.1-0.1,0.1-0.2,0.1h-2.5c-0.2,0-0.2,0-0.2-0.1c0,0,0-0.1,0-0.1c0,0,1.4-0.8,1.5-0.9c0.4-0.2,0.9-0.5,0.9-1
			c0-0.5-0.5-0.7-1.1-0.7c-0.2,0-0.7,0-0.9,0.3c0.2,0,0.2,0.2,0.2,0.3c0,0.2-0.2,0.3-0.3,0.3c-0.1,0-0.3-0.1-0.3-0.3
			c0-0.5,0.5-0.8,1.4-0.8c0.9,0,1.6,0.3,1.6,1c0,0.6-0.5,0.8-1,1c-0.3,0.1-0.4,0.2-1.2,0.6v0H363.3z"/>
	</g>
	<g>
		<path d="M366.9,11.8h-1.4v-0.4h1V2.3h-1V1.9h1.4V11.8z"/>
	</g>
	<line class="st8" x1="372" y1="63.8" x2="372" y2="53.1"/>
	<g>
		<path d="M372.1,54.7c-1.1,0-1.9-0.9-1.9-1.9c0-1,0.9-1.9,1.9-1.9c1,0,1.9,0.9,1.9,1.9C374.1,53.9,373.2,54.7,372.1,54.7z"/>
	</g>
	<line class="st8" x1="357.9" y1="63.8" x2="357.9" y2="46.1"/>
	<g>
		<path d="M357.8,47.7c-1.1,0-1.9-0.9-1.9-1.9c0-1,0.9-1.9,1.9-1.9c1,0,1.9,0.9,1.9,1.9C359.8,46.8,358.9,47.7,357.8,47.7z"/>
	</g>
	<line class="st8" x1="343.7" y1="63.8" x2="343.7" y2="24.8"/>
	<g>
		<path d="M343.7,26.4c-1.1,0-1.9-0.9-1.9-1.9c0-1,0.9-1.9,1.9-1.9c1,0,1.9,0.9,1.9,1.9C345.6,25.6,344.7,26.4,343.7,26.4z"/>
	</g>
	<line class="st8" x1="315.4" y1="63.8" x2="315.4" y2="17.7"/>
	<g>
		<path d="M315.4,19.3c-1.1,0-1.9-0.9-1.9-1.9c0-1,0.9-1.9,1.9-1.9c1,0,1.9,0.9,1.9,1.9C317.3,18.5,316.4,19.3,315.4,19.3z"/>
	</g>
	<g>
		<path d="M384.8,63c0.1-0.5,0.2-0.6,0.2-0.8c0-0.3-0.1-0.5-0.3-0.5c-0.4,0-0.6,0.5-0.7,1.2c-0.1,0.2-0.1,0.2-0.2,0.2
			c0,0-0.1,0-0.1-0.1c0,0,0.1-0.6,0.3-1c0.1-0.2,0.3-0.6,0.7-0.6c0.5,0,0.9,0.3,0.9,0.9c0.2-0.2,0.7-0.9,1.6-0.9
			c0.7,0,1.1,0.4,1.1,1.1c0,0.6-0.4,1.7-0.6,2.2c-0.1,0.2-0.2,0.5-0.2,0.7c0,0.2,0.1,0.3,0.2,0.3c0.5,0,0.8-0.6,1-1.2
			c0.1-0.1,0.1-0.2,0.2-0.2c0,0,0.1,0,0.1,0.1c0,0.1-0.4,1.5-1.3,1.5c-0.5,0-0.8-0.3-0.8-0.8c0-0.1,0-0.2,0.1-0.5
			c0.2-0.4,0.6-1.7,0.6-2.3c0-0.3-0.1-0.7-0.5-0.7c-0.9,0-1.5,0.9-1.6,1.2c0,0-0.1,0.3-0.1,0.5c0,0.2-0.1,0.4-0.2,0.7l-0.2,0.9
			c-0.1,0.2-0.2,0.7-0.2,0.7c-0.1,0.2-0.2,0.3-0.4,0.3c-0.1,0-0.3-0.1-0.3-0.3c0-0.1,0.1-0.3,0.1-0.4L384.8,63z"/>
	</g>
	<path class="st3" d="M308.3,28.3c0,0,3.8-7.7,7.1-10.6c2-1.8,4.4-3.2,7.1-3.5c5-0.5,9.8,1.1,14.2,3.5c3,1.7,4.9,4.4,7.1,7.1
		c5.6,6.8,7.6,15.4,14.2,21.3c4.1,3.6,14.2,7.1,14.2,7.1l0,0"/>
	<line class="st8" x1="329.5" y1="63.8" x2="329.5" y2="14.2"/>
	<g>
		<path d="M329.5,15.8c-1.1,0-1.9-0.9-1.9-1.9c0-1,0.9-1.9,1.9-1.9c1,0,1.9,0.9,1.9,1.9C331.5,15,330.6,15.8,329.5,15.8z"/>
	</g>
	<g>
		<path d="M336.6,19.3c-1.1,0-1.9-0.9-1.9-1.9c0-1,0.9-1.9,1.9-1.9c1,0,1.9,0.9,1.9,1.9C338.5,18.5,337.7,19.3,336.6,19.3z"/>
	</g>
	<line class="st8" x1="336.6" y1="63.8" x2="336.6" y2="17.7"/>
	<g>
		<path d="M322.4,15.8c-1.1,0-1.9-0.9-1.9-1.9c0-1,0.9-1.9,1.9-1.9c1,0,1.9,0.9,1.9,1.9C324.4,15,323.5,15.8,322.4,15.8z"/>
	</g>
	<line class="st8" x1="322.4" y1="63.8" x2="322.4" y2="14.2"/>
	<g>
		<path d="M350.8,37.1c-1.1,0-1.9-0.9-1.9-1.9c0-1,0.9-1.9,1.9-1.9c1,0,1.9,0.9,1.9,1.9C352.7,36.2,351.8,37.1,350.8,37.1z"/>
	</g>
	<line class="st8" x1="350.8" y1="63.8" x2="350.8" y2="39"/>
	<g>
		<path d="M365,51.2c-1.1,0-1.9-0.9-1.9-1.9c0-1,0.9-1.9,1.9-1.9c1,0,1.9,0.9,1.9,1.9C367,50.4,366.1,51.2,365,51.2z"/>
	</g>
	<line class="st8" x1="365" y1="63.8" x2="365" y2="49.6"/>
	<g>
		<path d="M236.8,67.2h-5.2v-0.3h0.2c0.8,0,0.8-0.1,0.8-0.5v-5.3c0-0.4,0-0.5-0.8-0.5h-0.2v-0.3c0.3,0,1.1,0,1.5,0
			c0.4,0,1.3,0,1.7,0v0.3h-0.3c-0.9,0-0.9,0.1-0.9,0.5v5.3c0,0.3,0,0.4,0.5,0.4h0.8c1.8,0,1.9-1.2,2-2.3h0.2L236.8,67.2z"/>
		<path d="M239.8,66.4c0,0.4,0,0.5,0.8,0.5h0.2v0.3c-0.3,0-1.1,0-1.5,0s-1.1,0-1.5,0v-0.3h0.2c0.8,0,0.8-0.1,0.8-0.5v-5.3
			c0-0.4,0-0.5-0.8-0.5h-0.2v-0.3h3.5c1.4,0,2.4,0.9,2.4,1.9c0,1-1.1,1.8-2.3,1.8h-1.7V66.4z M241.1,63.8c1.6,0,1.6-1.1,1.6-1.5
			c0-0.5,0-1.5-1.6-1.5h-0.9c-0.5,0-0.5,0.1-0.5,0.4v2.7H241.1z"/>
	</g>
	<g>
		<path d="M250.4,62.6h-0.2c-0.2-1.4-0.4-1.9-1.9-1.9h-1.2c-0.5,0-0.5,0.1-0.5,0.4v2.5h0.9c1,0,1.1-0.3,1.1-1.2h0.2v2.6h-0.2
			c0-0.8-0.1-1.2-1.1-1.2h-0.9v2.5c0,0.3,0,0.5,0.9,0.5h0.3v0.3c-0.4,0-1.3,0-1.7,0c-0.4,0-1.2,0-1.5,0v-0.3h0.2
			c0.8,0,0.8-0.1,0.8-0.5v-5.2c0-0.4,0-0.5-0.8-0.5h-0.2v-0.3h5.5L250.4,62.6z"/>
	</g>
	<polyline points="332.1,108.6 336.6,106.3 332.1,104 333.2,106.3 	"/>
	<line class="st0" x1="308.3" y1="106.3" x2="333.2" y2="106.3"/>
	<g>
		<path class="st7" d="M326.7,92.3c-0.2,0-0.3-0.1-0.6-0.2c-0.2-0.1-0.4-0.2-0.6-0.2c-0.4,0-0.8,0.5-0.8,0.5l-0.2-0.1
			c0.5-0.6,0.7-0.8,1.1-0.8c0.2,0,0.3,0.1,0.6,0.2c0.2,0.1,0.4,0.2,0.6,0.2c0.4,0,0.8-0.5,0.8-0.5l0.2,0.1
			C327.3,92.1,327.1,92.3,326.7,92.3z"/>
	</g>
	<g>
		<path class="st7" d="M326.8,98c-0.3,1.1-1.3,2-2.3,2c-0.6,0-1.1-0.4-1.1-0.9c0-0.5,0.3-0.6,0.6-0.6c0.1,0,0.4,0,0.4,0.3
			c0,0.2-0.1,0.3-0.2,0.4c-0.1,0.1-0.3,0.1-0.4,0.1c0.2,0.4,0.6,0.4,0.8,0.4c0.5,0,0.8-0.3,1.1-0.6c0.4-0.5,0.5-1,0.6-1.5
			c-0.3,0.3-0.6,0.4-1,0.4c-0.6,0-1.2-0.3-1.2-1.2c0-0.5,0.2-1,0.6-2.1c0.1-0.2,0.2-0.4,0.2-0.7c0-0.3-0.2-0.3-0.2-0.3
			c-0.3,0-0.7,0.3-1,1.2c0,0.2-0.1,0.2-0.2,0.2c0,0-0.1,0-0.1-0.1c0-0.1,0.4-1.5,1.3-1.5c0.5,0,0.8,0.4,0.8,0.8c0,0.2,0,0.3-0.2,0.7
			c-0.3,0.9-0.5,1.5-0.5,2c0,0.4,0.1,0.8,0.6,0.8c0.7,0,1.1-0.7,1.1-0.8l0.4-1.8c0.1-0.3,0.1-0.5,0.2-0.8c0-0.2,0.1-0.5,0.1-0.5
			c0.1-0.1,0.2-0.2,0.3-0.2c0.1,0,0.3,0.1,0.3,0.3c0,0.1,0,0.1,0,0.2L326.8,98z"/>
	</g>
	<g>
		<path d="M329.3,100.5v-10h1.4v0.4h-1v9.2h1v0.4H329.3z"/>
	</g>
	<g>
		<path d="M332.3,95.1c0.1-0.5,0.2-0.6,0.2-0.8c0-0.3-0.1-0.5-0.3-0.5c-0.4,0-0.6,0.5-0.7,1.2c-0.1,0.2-0.1,0.2-0.2,0.2
			c0,0-0.1,0-0.1-0.1c0,0,0.1-0.6,0.3-1c0.1-0.2,0.3-0.6,0.7-0.6c0.5,0,0.9,0.3,0.9,0.9c0.2-0.2,0.7-0.9,1.6-0.9
			c0.7,0,1.1,0.4,1.1,1.1c0,0.6-0.4,1.7-0.6,2.2c-0.1,0.2-0.2,0.5-0.2,0.7c0,0.2,0.1,0.3,0.2,0.3c0.5,0,0.8-0.6,1-1.2
			c0.1-0.1,0.1-0.2,0.2-0.2c0,0,0.1,0,0.1,0.1c0,0.1-0.4,1.5-1.3,1.5c-0.5,0-0.8-0.3-0.8-0.8c0-0.1,0-0.2,0.1-0.5
			c0.2-0.4,0.6-1.7,0.6-2.3c0-0.3-0.1-0.7-0.5-0.7c-0.9,0-1.5,0.9-1.6,1.2c0,0-0.1,0.3-0.1,0.5c0,0.2-0.1,0.4-0.2,0.7l-0.2,0.9
			c-0.1,0.2-0.2,0.7-0.2,0.7c-0.1,0.2-0.2,0.3-0.4,0.3c-0.1,0-0.3-0.1-0.3-0.3c0-0.1,0.1-0.3,0.1-0.4L332.3,95.1z"/>
	</g>
	<g>
		<path d="M340.5,96c-0.3,0-0.5-0.2-0.5-0.5c0-0.3,0.2-0.5,0.5-0.5s0.5,0.2,0.5,0.5C341.1,95.8,340.8,96,340.5,96z"/>
	</g>
	<g>
		<path d="M347,97.3c0,0.1,0,0.2,0,0.2c0,0.2,0.1,0.2,0.4,0.2c0.3,0,0.4,0,0.6,0c0.3,0,0.3,0,0.3,0.1c0,0.2-0.1,0.2-0.2,0.2
			c-0.3,0-0.6,0-0.9,0c-0.3,0-0.5,0-0.8,0c-0.3,0-0.6,0-0.8,0c-0.3,0-0.5,0-0.8,0c-0.1,0-0.2,0-0.2-0.1c0-0.2,0.1-0.2,0.4-0.2
			c1.1,0,1.1-0.1,1.2-0.5l1.3-5.3c0,0,0-0.1,0-0.2c0-0.1,0-0.1-0.3-0.1h-0.4c-1.5,0-1.7,0.2-2.3,1.7c-0.1,0.2-0.1,0.2-0.2,0.2
			c-0.1,0-0.1,0-0.1-0.1c0,0,0-0.2,0.1-0.2l0.6-1.8c0.1-0.2,0.1-0.2,0.3-0.2h5.5c0.2,0,0.3,0,0.3,0.1c0,0,0,0.1,0,0.2l-0.3,1.7
			c0,0.1,0,0.2-0.1,0.2c-0.1,0-0.1-0.1-0.1-0.1c0,0,0-0.1,0-0.2c0-0.3,0.1-0.6,0.1-0.8c0-0.8-0.4-0.8-1.5-0.8c-0.2,0-0.5,0-0.6,0
			c-0.1,0-0.2,0.1-0.2,0.4L347,97.3z"/>
	</g>
	<g>
		<path d="M352.6,98.9c0.2,0,0.4,0,0.5,0c0.1,0,0.1-0.2,0.2-0.3c0-0.1,0-0.1,0.1-0.1c0.1,0,0.1,0.1,0.1,0.1c0,0-0.2,0.8-0.2,0.8
			c0,0.1-0.1,0.1-0.2,0.1h-2.5c-0.2,0-0.2,0-0.2-0.1c0,0,0-0.1,0-0.1c0,0,1.4-0.8,1.5-0.9c0.4-0.2,0.9-0.5,0.9-1
			c0-0.5-0.5-0.7-1.1-0.7c-0.2,0-0.7,0-0.9,0.3c0.2,0,0.2,0.2,0.2,0.3c0,0.2-0.2,0.3-0.3,0.3c-0.1,0-0.3-0.1-0.3-0.3
			c0-0.5,0.5-0.8,1.4-0.8c0.9,0,1.6,0.3,1.6,1c0,0.6-0.5,0.8-1,1c-0.3,0.1-0.4,0.2-1.2,0.6v0H352.6z"/>
	</g>
	<g>
		<path d="M356.3,100.5H355v-0.4h1v-9.2h-1v-0.4h1.4V100.5z"/>
	</g>
	<g>
		<path class="st1" d="M132,98c-0.3,1.1-1.3,2-2.3,2c-0.6,0-1.1-0.4-1.1-0.9c0-0.5,0.3-0.6,0.6-0.6c0.1,0,0.4,0,0.4,0.3
			c0,0.2-0.1,0.3-0.2,0.4c-0.1,0.1-0.3,0.1-0.4,0.1c0.2,0.4,0.6,0.4,0.8,0.4c0.5,0,0.8-0.3,1.1-0.6c0.4-0.5,0.5-1,0.6-1.5
			c-0.3,0.3-0.6,0.4-1,0.4c-0.6,0-1.2-0.3-1.2-1.2c0-0.5,0.2-1,0.6-2.1c0.1-0.2,0.2-0.4,0.2-0.7c0-0.3-0.2-0.3-0.2-0.3
			c-0.3,0-0.7,0.3-1,1.2c0,0.2-0.1,0.2-0.2,0.2c0,0-0.1,0-0.1-0.1c0-0.1,0.4-1.5,1.3-1.5c0.5,0,0.8,0.4,0.8,0.8c0,0.2,0,0.3-0.2,0.7
			c-0.3,0.9-0.5,1.5-0.5,2c0,0.4,0.1,0.8,0.6,0.8c0.7,0,1.1-0.7,1.1-0.8l0.4-1.8c0.1-0.3,0.1-0.5,0.2-0.8c0-0.2,0.1-0.5,0.1-0.5
			c0.1-0.1,0.2-0.2,0.3-0.2c0.1,0,0.3,0.1,0.3,0.3c0,0.1,0,0.1,0,0.2L132,98z"/>
	</g>
	<g>
		<path d="M134.4,100.5v-10h1.4v0.4h-1v9.2h1v0.4H134.4z"/>
	</g>
	<g>
		<path d="M137.4,95.1c0.1-0.5,0.2-0.6,0.2-0.8c0-0.3-0.1-0.5-0.3-0.5c-0.4,0-0.6,0.5-0.7,1.2c-0.1,0.2-0.1,0.2-0.2,0.2
			c0,0-0.1,0-0.1-0.1c0,0,0.1-0.6,0.3-1c0.1-0.2,0.3-0.6,0.7-0.6c0.5,0,0.9,0.3,0.9,0.9c0.2-0.2,0.7-0.9,1.6-0.9
			c0.7,0,1.1,0.4,1.1,1.1c0,0.6-0.4,1.7-0.6,2.2c-0.1,0.2-0.2,0.5-0.2,0.7c0,0.2,0.1,0.3,0.2,0.3c0.5,0,0.8-0.6,1-1.2
			c0-0.1,0-0.2,0.1-0.2c0,0,0.1,0,0.1,0.1c0,0.1-0.4,1.5-1.3,1.5c-0.5,0-0.8-0.3-0.8-0.8c0-0.1,0-0.2,0.1-0.5
			c0.2-0.4,0.6-1.7,0.6-2.3c0-0.3-0.1-0.7-0.5-0.7c-0.9,0-1.5,0.9-1.6,1.2c0,0-0.1,0.3-0.1,0.5c0,0.2-0.1,0.4-0.2,0.7l-0.2,0.9
			c-0.1,0.2-0.2,0.7-0.2,0.7c-0.1,0.2-0.2,0.3-0.4,0.3c-0.1,0-0.3-0.1-0.3-0.3c0-0.1,0.1-0.3,0.1-0.4L137.4,95.1z"/>
	</g>
	<g>
		<path d="M145.7,96c-0.3,0-0.5-0.2-0.5-0.5c0-0.3,0.2-0.5,0.5-0.5c0.3,0,0.5,0.2,0.5,0.5C146.2,95.8,145.9,96,145.7,96z"/>
	</g>
	<g>
		<path d="M152.1,97.3c0,0.1,0,0.2,0,0.2c0,0.2,0.1,0.2,0.4,0.2c0.3,0,0.4,0,0.6,0c0.3,0,0.3,0,0.3,0.1c0,0.2-0.1,0.2-0.2,0.2
			c-0.3,0-0.6,0-0.9,0c-0.3,0-0.5,0-0.8,0c-0.3,0-0.6,0-0.8,0c-0.3,0-0.5,0-0.8,0c-0.1,0-0.2,0-0.2-0.1c0-0.2,0.1-0.2,0.4-0.2
			c1.1,0,1.1-0.1,1.2-0.5l1.3-5.3c0,0,0-0.1,0-0.2c0-0.1,0-0.1-0.3-0.1H152c-1.5,0-1.7,0.2-2.3,1.7c-0.1,0.2-0.1,0.2-0.2,0.2
			c-0.1,0-0.1,0-0.1-0.1c0,0,0-0.2,0.1-0.2l0.6-1.8c0.1-0.2,0.1-0.2,0.3-0.2h5.5c0.2,0,0.3,0,0.3,0.1c0,0,0,0.1,0,0.2l-0.3,1.7
			c0,0.1,0,0.2-0.1,0.2c-0.1,0-0.1-0.1-0.1-0.1c0,0,0-0.1,0-0.2c0-0.3,0.1-0.6,0.1-0.8c0-0.8-0.4-0.8-1.5-0.8c-0.2,0-0.5,0-0.6,0
			c-0.1,0-0.2,0.1-0.2,0.4L152.1,97.3z"/>
	</g>
	<g>
		<path d="M157.7,98.9c0.2,0,0.4,0,0.5,0c0.1,0,0.1-0.2,0.2-0.3c0-0.1,0-0.1,0.1-0.1c0.1,0,0.1,0.1,0.1,0.1c0,0-0.2,0.8-0.2,0.8
			c0,0.1-0.1,0.1-0.2,0.1h-2.5c-0.2,0-0.2,0-0.2-0.1c0,0,0-0.1,0-0.1c0,0,1.4-0.8,1.5-0.9c0.4-0.2,0.9-0.5,0.9-1
			c0-0.5-0.5-0.7-1.1-0.7c-0.2,0-0.7,0-0.9,0.3c0.2,0,0.2,0.2,0.2,0.3c0,0.2-0.2,0.3-0.3,0.3c-0.1,0-0.3-0.1-0.3-0.3
			c0-0.5,0.5-0.8,1.4-0.8c0.9,0,1.6,0.3,1.6,1c0,0.6-0.5,0.8-1,1c-0.3,0.1-0.4,0.2-1.2,0.6v0H157.7z"/>
	</g>
	<g>
		<path d="M161.5,100.5h-1.4v-0.4h1v-9.2h-1v-0.4h1.4V100.5z"/>
	</g>
	<polyline points="169.1,108.6 173.6,106.3 169.1,104 170.2,106.3 	"/>
	<path class="st0" d="M116.9,106.3h53.3 M173.6,109.8v39h134.6v-78H173.6V109.8z"/>
	<g>
		<path d="M240.2,84.8c0,0.1,0,0.1,0,0.2c0,0.2,0.3,0.2,0.6,0.2c0.2,0,0.3,0,0.3,0.1c0,0.2-0.1,0.2-0.2,0.2c-0.2,0-0.4,0-0.6,0
			c-0.2,0-0.4,0-0.6,0c-0.3,0-1,0-1.3,0c0,0-0.1,0-0.1-0.1c0-0.2,0.1-0.2,0.2-0.2c0.6,0,0.8,0,0.9-0.3c0-0.1,0.3-1.1,0.7-2.8h-3
			l-0.7,2.7c0,0.1,0,0.1,0,0.2c0,0.2,0.3,0.2,0.6,0.2c0.2,0,0.3,0,0.3,0.1c0,0.2-0.1,0.2-0.2,0.2c-0.2,0-0.4,0-0.6,0
			c-0.2,0-0.4,0-0.6,0c-0.3,0-1,0-1.3,0c0,0-0.1,0-0.1-0.1c0-0.2,0.1-0.2,0.3-0.2c0.8,0,0.8-0.1,0.9-0.5l1.3-5.4c0-0.1,0-0.1,0-0.2
			c0-0.1-0.1-0.1-0.3-0.2c-0.2,0-0.4,0-0.4,0c-0.2,0-0.3,0-0.3-0.1c0-0.2,0.1-0.2,0.2-0.2c0.3,0,1,0,1.3,0c0.3,0,1,0,1.3,0
			c0,0,0.1,0,0.1,0.1c0,0.2-0.1,0.2-0.3,0.2c-0.7,0-0.7,0.1-0.8,0.5l-0.6,2.3h3l0.6-2.4c0-0.1,0-0.1,0-0.2c0-0.1-0.1-0.1-0.3-0.2
			c-0.2,0-0.4,0-0.4,0c-0.2,0-0.3,0-0.3-0.1c0-0.2,0.1-0.2,0.2-0.2c0.3,0,1,0,1.3,0c0.3,0,1,0,1.3,0c0,0,0.1,0,0.1,0.1
			c0,0.2-0.1,0.2-0.3,0.2c-0.7,0-0.7,0.1-0.8,0.5L240.2,84.8z"/>
	</g>
	<g>
		<path d="M246.2,87.9c-0.1,0-1-0.6-1.6-1.9c-0.5-1.1-0.7-2.3-0.7-3.1c0-0.8,0.1-1.9,0.6-3c0.6-1.3,1.5-1.9,1.6-1.9
			c0.1,0,0.1,0,0.1,0.1c0,0,0,0-0.1,0.2c-1.2,1.2-1.6,3-1.6,4.7c0,1.5,0.3,3.4,1.6,4.7C246.3,87.8,246.3,87.8,246.2,87.9
			C246.3,87.9,246.3,87.9,246.2,87.9z"/>
		<path d="M248.3,84.6c0.2,0.4,0.6,0.7,1.1,0.7c0.1,0,1,0,1.3-1c0-0.1,0-0.1,0.1-0.1c0,0,0.1,0,0.1,0.1c0,0.2-0.4,1.3-1.7,1.3
			c-1.1,0-2.2-1-2.2-2.3c0-1.2,0.9-2.3,2.1-2.3c1.2,0,1.8,1,1.8,2c0,0.2,0,0.2-0.2,0.2H248C248,83.5,248,84.1,248.3,84.6z
			 M250.4,82.9c0-0.4-0.1-1.7-1.1-1.7c-0.3,0-1.2,0.2-1.2,1.7H250.4z"/>
	</g>
	<g>
		<path d="M253.4,82.2c0,0.9-0.6,1.5-1.4,1.5c-0.6,0-1.1-0.3-1.1-0.8c0-0.3,0.2-0.5,0.5-0.5c0.3,0,0.5,0.2,0.5,0.5
			c0,0.3-0.2,0.4-0.3,0.4c0.3,0.1,0.5,0.1,0.5,0.1c0.6,0,0.7-0.9,0.7-1.3v-3.9c0-0.5-0.1-0.6-0.9-0.6v-0.3l1.5-0.1V82.2z
			 M252.9,76.1c-0.3,0-0.5-0.2-0.5-0.5s0.2-0.5,0.5-0.5s0.5,0.2,0.5,0.5S253.2,76.1,252.9,76.1z"/>
	</g>
	<g>
		<path d="M257.4,81.8c-0.4,0-0.8-0.3-0.9-0.7c-0.3,0.4-0.7,0.7-1.1,0.7c-0.6,0-0.9-0.6-0.9-1.1c0-0.5,0.2-1.1,0.4-1.5
			c0.1-0.1,0.2-0.3,0.3-0.4c0-0.1,0.1-0.1,0.2-0.1c0.1,0,0.1,0.1,0.1,0.2c0,0.1-0.7,0.8-0.7,1.6c0,0.5,0.3,0.8,0.7,0.8
			c0.5,0,0.8-0.3,1-0.6c0-0.2,0-1,0.4-1c0.1,0,0.2,0.1,0.2,0.2c0,0.2-0.2,0.7-0.3,0.8c0.1,0.3,0.4,0.5,0.7,0.5c0.8,0,1.2-1,1.2-1.5
			c0-0.5-0.4-0.5-0.4-0.8c0-0.2,0.2-0.4,0.4-0.4c0.3,0,0.4,0.3,0.4,0.5C259.1,79.7,258.7,81.8,257.4,81.8z"/>
		<path d="M262.1,81.1c0,0.1,0,0.1,0,0.2c0,0.1,0,0.1,0.3,0.1c0.1,0,0.3,0,0.4,0c0.2,0,0.3,0,0.3,0.1c0,0.2-0.1,0.2-0.2,0.2
			c-0.2,0-0.4,0-0.6,0c-0.2,0-0.4,0-0.6,0c-0.2,0-0.4,0-0.6,0s-0.4,0-0.6,0c-0.1,0-0.1-0.1-0.1-0.1c0-0.2,0.1-0.2,0.3-0.2
			c0.7,0,0.8-0.1,0.8-0.3l0.9-3.7c0-0.1,0-0.1,0-0.1c0-0.1,0-0.1-0.2-0.1h-0.3c-1.1,0-1.3,0.1-1.7,1.2c0,0.1-0.1,0.2-0.1,0.2
			c-0.1,0-0.1-0.1-0.1-0.1c0,0,0-0.1,0-0.1l0.4-1.2c0-0.1,0.1-0.1,0.2-0.1h4.3c0.1,0,0.2,0,0.2,0.1l-0.2,1.3c0,0.1,0,0.2-0.1,0.2
			c-0.1,0-0.1,0-0.1-0.1l0-0.1c0-0.4,0-0.5,0-0.6c0-0.3,0-0.5-0.3-0.6c-0.2-0.1-0.4-0.1-0.8-0.1c-0.1,0-0.4,0-0.4,0
			c-0.2,0-0.2,0-0.2,0.2L262.1,81.1z"/>
	</g>
	<g>
		<path d="M266.6,82.2c0.2,0,0.2,0,0.4,0c0.1,0,0.1,0,0.2-0.2c0-0.1,0-0.1,0.1-0.1c0,0,0.1,0,0.1,0.1c0,0-0.2,0.6-0.2,0.6
			c0,0-0.1,0-0.1,0h-2c-0.1,0-0.2,0-0.2-0.1c0-0.1,0-0.1,0.1-0.1l1.3-0.6c0.4-0.2,0.7-0.3,0.7-0.7c0-0.5-0.6-0.5-1-0.5
			c-0.2,0-0.5,0-0.7,0.2c0,0,0.1,0.1,0.1,0.2c0,0.2-0.1,0.2-0.2,0.2c-0.1,0-0.2-0.1-0.2-0.2c0-0.6,0.9-0.6,1.1-0.6
			c0.4,0,1.3,0,1.3,0.7c0,0.4-0.4,0.6-0.8,0.7c-0.1,0-0.3,0.1-0.9,0.4v0H266.6z"/>
	</g>
	<g>
		<path d="M271.3,86c-0.6,1.3-1.5,1.9-1.6,1.9c-0.1,0-0.1,0-0.1-0.1c0,0,0-0.1,0.1-0.2c1.2-1.3,1.6-3,1.6-4.7c0-2.1-0.6-3.7-1.5-4.7
			c-0.2-0.2-0.2-0.2-0.2-0.2c0-0.1,0-0.1,0.1-0.1c0.1,0,1,0.6,1.6,1.9c0.5,1.1,0.7,2.3,0.7,3.1C272,83.8,271.8,84.9,271.3,86z"/>
	</g>
	<g>
		<path d="M274,87.3c0,0-0.1,0-0.1-0.1c0,0,0,0,0.1-0.2c0.3-0.3,0.7-0.9,0.7-1.7c0-0.1,0-0.1,0-0.1c0,0,0,0,0,0
			c-0.1,0.1-0.2,0.1-0.3,0.1c-0.3,0-0.5-0.3-0.5-0.5c0-0.3,0.2-0.5,0.5-0.5c0.4,0,0.6,0.4,0.6,1C274.9,86.6,274.1,87.3,274,87.3z"/>
		<path d="M283.6,84.8c0,0.1,0,0.1,0,0.2c0,0.2,0.3,0.2,0.6,0.2c0.2,0,0.3,0,0.3,0.1c0,0.2-0.1,0.2-0.2,0.2c-0.2,0-0.4,0-0.6,0
			c-0.2,0-0.4,0-0.6,0c-0.3,0-1,0-1.3,0c0,0-0.1,0-0.1-0.1c0-0.2,0.1-0.2,0.2-0.2c0.6,0,0.8,0,0.9-0.3c0-0.1,0.3-1.1,0.7-2.8h-3
			l-0.7,2.7c0,0.1,0,0.1,0,0.2c0,0.2,0.3,0.2,0.6,0.2c0.2,0,0.3,0,0.3,0.1c0,0.2-0.1,0.2-0.2,0.2c-0.2,0-0.4,0-0.6,0
			c-0.2,0-0.4,0-0.6,0c-0.3,0-1,0-1.3,0c0,0-0.1,0-0.1-0.1c0-0.2,0.1-0.2,0.3-0.2c0.8,0,0.8-0.1,0.9-0.5l1.3-5.4c0-0.1,0-0.1,0-0.2
			c0-0.1-0.1-0.1-0.3-0.2c-0.2,0-0.4,0-0.4,0c-0.2,0-0.3,0-0.3-0.1c0-0.2,0.1-0.2,0.2-0.2c0.3,0,1,0,1.3,0c0.3,0,1,0,1.3,0
			c0,0,0.1,0,0.1,0.1c0,0.2-0.1,0.2-0.3,0.2c-0.7,0-0.7,0.1-0.8,0.5l-0.6,2.3h3l0.6-2.4c0-0.1,0-0.1,0-0.2c0-0.1-0.1-0.1-0.3-0.2
			c-0.2,0-0.4,0-0.4,0c-0.2,0-0.3,0-0.3-0.1c0-0.2,0.1-0.2,0.2-0.2c0.3,0,1,0,1.3,0c0.3,0,1,0,1.3,0c0,0,0.1,0,0.1,0.1
			c0,0.2-0.1,0.2-0.3,0.2c-0.7,0-0.7,0.1-0.8,0.5L283.6,84.8z"/>
	</g>
	<g>
		<path d="M289.7,87.9c-0.1,0-1-0.6-1.6-1.9c-0.5-1.1-0.7-2.3-0.7-3.1c0-0.8,0.1-1.9,0.6-3c0.6-1.3,1.5-1.9,1.6-1.9
			c0.1,0,0.1,0,0.1,0.1c0,0,0,0-0.1,0.2c-1.2,1.2-1.6,3-1.6,4.7c0,1.5,0.3,3.4,1.6,4.7C289.8,87.8,289.8,87.8,289.7,87.9
			C289.8,87.9,289.7,87.9,289.7,87.9z"/>
		<path d="M291.7,84.6c0.2,0.4,0.6,0.7,1.1,0.7c0.1,0,1,0,1.3-1c0-0.1,0-0.1,0.1-0.1c0,0,0.1,0,0.1,0.1c0,0.2-0.4,1.3-1.7,1.3
			c-1.1,0-2.2-1-2.2-2.3c0-1.2,0.9-2.3,2.1-2.3c1.2,0,1.8,1,1.8,2c0,0.2,0,0.2-0.2,0.2h-2.8C291.4,83.5,291.4,84.1,291.7,84.6z
			 M293.8,82.9c0-0.4-0.1-1.7-1.1-1.7c-0.3,0-1.2,0.2-1.2,1.7H293.8z"/>
	</g>
	<g>
		<path d="M296.9,82.2c0,0.9-0.6,1.5-1.4,1.5c-0.6,0-1.1-0.3-1.1-0.8c0-0.3,0.2-0.5,0.5-0.5c0.3,0,0.5,0.2,0.5,0.5
			c0,0.3-0.2,0.4-0.3,0.4c0.3,0.1,0.5,0.1,0.5,0.1c0.6,0,0.7-0.9,0.7-1.3v-3.9c0-0.5-0.1-0.6-0.9-0.6v-0.3l1.5-0.1V82.2z
			 M296.3,76.1c-0.3,0-0.5-0.2-0.5-0.5s0.2-0.5,0.5-0.5s0.5,0.2,0.5,0.5S296.6,76.1,296.3,76.1z"/>
	</g>
	<g>
		<path d="M299.3,81.8c-0.6,0-1-0.7-1-1.5c0-1.6,1.1-3.5,2.2-3.5c0.7,0,1,0.8,1,1.5C301.4,79.9,300.3,81.8,299.3,81.8z M299,79.4
			c-0.1,0.3-0.2,0.8-0.2,1.3c0,0.4,0.1,0.9,0.4,0.9c0.3,0,0.6-0.3,0.8-0.7c0.2-0.3,0.4-0.7,0.6-1.5H299z M300.7,79.1
			c0.1-0.6,0.2-1,0.2-1.3c0-0.1,0-0.9-0.4-0.9c-0.4,0-1,0.7-1.4,2.2H300.7z"/>
	</g>
	<g>
		<path d="M304.6,86c-0.6,1.3-1.5,1.9-1.6,1.9c-0.1,0-0.1,0-0.1-0.1c0,0,0-0.1,0.1-0.2c1.2-1.3,1.6-3,1.6-4.7c0-2.1-0.6-3.7-1.5-4.7
			c-0.2-0.2-0.2-0.2-0.2-0.2c0-0.1,0-0.1,0.1-0.1c0.1,0,1,0.6,1.6,1.9c0.5,1.1,0.7,2.3,0.7,3.1C305.2,83.8,305.1,84.9,304.6,86z"/>
	</g>
	<path class="st0" d="M251.6,113.4V99.2 M251.6,99.2h-42.5 M209.1,99.2v14.2"/>
	<polyline points="232.6,82.5 230.3,78 228,82.5 230.3,81.4 	"/>
	<line class="st0" x1="230.3" y1="116.9" x2="230.3" y2="81.4"/>
	<polyline points="275.4,115.7 279.9,113.4 275.4,111.1 276.5,113.4 	"/>
	<line class="st0" x1="184.3" y1="113.4" x2="276.5" y2="113.4"/>
	<g>
		<path d="M250.9,120.4c-0.2,0.6-0.2,0.9-0.5,0.9c-0.2,0-0.2-0.1-0.2-0.2c0,0,0-0.1,0-0.1c0,0,0.1-0.2,0.1-0.3
			c0.2-0.4,0.6-1.2,0.8-2h-0.4c-0.2,0-0.6,0-0.9,0.5c0,0.1,0,0.1-0.1,0.1c0,0-0.1,0-0.1-0.1c0-0.1,0.3-0.4,0.5-0.6
			c0.3-0.3,0.5-0.4,0.8-0.4h2.6c0.1,0,0.3,0,0.3,0.2c0,0,0,0.1-0.1,0.2c-0.1,0.1-0.1,0.1-0.3,0.1h-0.9c-0.1,0.5-0.1,0.8-0.1,0.9
			c0,0.6,0.1,1,0.3,1.2c0,0.1,0.1,0.1,0.1,0.2c0,0.2-0.2,0.3-0.3,0.3c-0.1,0-0.2,0-0.3-0.4c0-0.2-0.1-0.3-0.1-0.6
			c0-0.6,0.2-1.2,0.3-1.6h-0.8L250.9,120.4z"/>
	</g>
	<polyline points="247,123 256.2,123 256.2,122.5 247,122.5 	"/>
	<g>
		<path d="M249.5,128.2c0,0.1,0,0.1,0,0.2c0,0.1,0,0.1,0.3,0.1c0.1,0,0.3,0,0.4,0c0.2,0,0.3,0,0.3,0.1c0,0.2-0.1,0.2-0.2,0.2
			c-0.2,0-0.4,0-0.6,0c-0.2,0-0.4,0-0.6,0c-0.2,0-0.4,0-0.6,0s-0.4,0-0.6,0c-0.1,0-0.1-0.1-0.1-0.1c0-0.2,0.1-0.2,0.3-0.2
			c0.7,0,0.8-0.1,0.8-0.3l0.9-3.7c0-0.1,0-0.1,0-0.1c0-0.1,0-0.1-0.2-0.1h-0.3c-1.1,0-1.3,0.1-1.7,1.2c0,0.1-0.1,0.2-0.1,0.2
			c-0.1,0-0.1-0.1-0.1-0.1c0,0,0-0.1,0-0.1l0.4-1.2c0-0.1,0.1-0.1,0.2-0.1h4.3c0.1,0,0.2,0,0.2,0.1l-0.2,1.3c0,0.1,0,0.2-0.1,0.2
			c-0.1,0-0.1,0-0.1-0.1l0-0.1c0-0.4,0-0.5,0-0.6c0-0.3,0-0.5-0.3-0.6c-0.2-0.1-0.4-0.1-0.8-0.1c-0.1,0-0.4,0-0.4,0
			c-0.2,0-0.2,0-0.2,0.2L249.5,128.2z"/>
	</g>
	<g>
		<path d="M253.8,129.2c0,0.1,0,0.2,0.2,0.2c0.1,0,0.2,0,0.3,0h0.1c0.1,0,0.2,0,0.2,0.1c0,0.1,0,0.1-0.1,0.1c-0.1,0-0.3,0-0.4,0
			c-0.1,0-0.3,0-0.4,0c-0.1,0-0.3,0-0.5,0c-0.1,0-0.3,0-0.4,0c-0.1,0-0.1,0-0.1-0.1c0-0.1,0.1-0.1,0.2-0.1h0.1c0.2,0,0.2,0,0.4,0
			c0.1,0,0.2,0,0.2-0.2v-1.4c-0.3,0.1-0.6,0.1-0.6,0.1c-0.1,0-0.2,0-0.2-0.1c0-0.1,0-0.1,0.2-0.1c0.5,0,0.8-0.1,0.9-0.2
			c0.1,0,0.1,0,0.1,0c0.1,0,0.1,0.1,0.1,0.2V129.2z"/>
	</g>
	<g>
		<path d="M272.1,119.9c-0.2,0.6-0.2,0.9-0.5,0.9c-0.2,0-0.2-0.1-0.2-0.2c0,0,0-0.1,0-0.1c0,0,0.1-0.2,0.1-0.3
			c0.2-0.4,0.6-1.2,0.8-2h-0.4c-0.2,0-0.6,0-0.9,0.5c0,0.1,0,0.1-0.1,0.1c0,0-0.1,0-0.1-0.1c0-0.1,0.3-0.4,0.5-0.6
			c0.3-0.3,0.5-0.4,0.8-0.4h2.6c0.1,0,0.3,0,0.3,0.2c0,0,0,0.1-0.1,0.2c-0.1,0.1-0.1,0.1-0.3,0.1h-0.9c-0.1,0.5-0.1,0.8-0.1,0.9
			c0,0.6,0.1,1,0.3,1.2c0,0.1,0.1,0.1,0.1,0.2c0,0.2-0.2,0.3-0.3,0.3c-0.1,0-0.2,0-0.3-0.4c0-0.2-0.1-0.3-0.1-0.6
			c0-0.6,0.2-1.2,0.3-1.6h-0.8L272.1,119.9z"/>
	</g>
	<polyline points="268.4,122.5 277.5,122.5 277.5,122 268.4,122 	"/>
	<g>
		<path d="M270.8,127.7c0,0.1,0,0.1,0,0.2c0,0.1,0,0.1,0.3,0.1c0.1,0,0.3,0,0.4,0c0.2,0,0.3,0,0.3,0.1c0,0.2-0.1,0.2-0.2,0.2
			c-0.2,0-0.4,0-0.6,0c-0.2,0-0.4,0-0.6,0c-0.2,0-0.4,0-0.6,0s-0.4,0-0.6,0c-0.1,0-0.1-0.1-0.1-0.1c0-0.2,0.1-0.2,0.3-0.2
			c0.7,0,0.8-0.1,0.8-0.3l0.9-3.7c0-0.1,0-0.1,0-0.1c0-0.1,0-0.1-0.2-0.1h-0.3c-1.1,0-1.3,0.1-1.7,1.2c0,0.1-0.1,0.2-0.1,0.2
			c-0.1,0-0.1-0.1-0.1-0.1c0,0,0-0.1,0-0.1l0.4-1.2c0-0.1,0.1-0.1,0.2-0.1h4.3c0.1,0,0.2,0,0.2,0.1l-0.2,1.3c0,0.1,0,0.2-0.1,0.2
			c-0.1,0-0.1,0-0.1-0.1l0-0.1c0-0.4,0-0.5,0-0.6c0-0.3,0-0.5-0.3-0.6c-0.2-0.1-0.4-0.1-0.8-0.1c-0.1,0-0.4,0-0.4,0
			c-0.2,0-0.2,0-0.2,0.2L270.8,127.7z"/>
	</g>
	<g>
		<path d="M275.4,128.8c0.2,0,0.2,0,0.4,0c0.1,0,0.1,0,0.2-0.2c0-0.1,0-0.1,0.1-0.1c0,0,0.1,0,0.1,0.1c0,0-0.2,0.6-0.2,0.6
			c0,0-0.1,0-0.1,0h-2c-0.1,0-0.2,0-0.2-0.1c0-0.1,0-0.1,0.1-0.1l1.3-0.6c0.4-0.2,0.7-0.3,0.7-0.7c0-0.5-0.6-0.5-1-0.5
			c-0.2,0-0.5,0-0.7,0.2c0,0,0.1,0.1,0.1,0.2c0,0.2-0.1,0.2-0.2,0.2c-0.1,0-0.2-0.1-0.2-0.2c0-0.6,0.9-0.6,1.1-0.6
			c0.4,0,1.3,0,1.3,0.7c0,0.4-0.4,0.6-0.8,0.7c-0.1,0-0.3,0.1-0.9,0.4v0H275.4z"/>
	</g>
	<g>
		<path d="M250.9,135.1c-0.2,0.6-0.2,0.9-0.5,0.9c-0.2,0-0.2-0.1-0.2-0.2c0,0,0-0.1,0-0.1c0,0,0.1-0.2,0.1-0.3
			c0.2-0.4,0.6-1.2,0.8-2h-0.4c-0.2,0-0.6,0-0.9,0.5c0,0.1,0,0.1-0.1,0.1c0,0-0.1,0-0.1-0.1c0-0.1,0.3-0.4,0.5-0.6
			c0.3-0.3,0.5-0.4,0.8-0.4h2.6c0.1,0,0.3,0,0.3,0.2c0,0,0,0.1-0.1,0.2c-0.1,0.1-0.1,0.1-0.3,0.1h-0.9c-0.1,0.5-0.1,0.8-0.1,0.9
			c0,0.6,0.1,1,0.3,1.2c0,0.1,0.1,0.1,0.1,0.2c0,0.2-0.2,0.3-0.3,0.3c-0.1,0-0.2,0-0.3-0.4c0-0.2-0.1-0.3-0.1-0.6
			c0-0.6,0.2-1.2,0.3-1.6h-0.8L250.9,135.1z"/>
	</g>
	<polyline points="248.9,137.6 254.4,137.6 254.4,137.1 248.9,137.1 	"/>
	<g>
		<path d="M250.9,142.9c0,0.1,0,0.1,0,0.1c0,0.1,0,0.1,0.2,0.1h0.8c1.3,0,1.6-0.8,1.8-1.4c0-0.1,0.1-0.1,0.1-0.1
			c0.1,0,0.1,0.1,0.1,0.1c0,0.1-0.5,1.4-0.6,1.6c-0.1,0.1-0.1,0.1-0.2,0.1h-3.5c-0.1,0-0.2,0-0.2-0.1c0-0.1,0.1-0.1,0.2-0.1
			c0.5,0,0.6-0.1,0.6-0.3l0.9-3.7c0-0.1,0-0.1,0-0.2c0-0.1,0-0.1-0.2-0.1c-0.1,0-0.3,0-0.3,0c-0.1,0-0.2,0-0.2-0.1
			c0-0.2,0.1-0.2,0.1-0.2c0.1,0,0.3,0,0.5,0s0.3,0,0.5,0c0.2,0,0.4,0,0.6,0c0.2,0,0.4,0,0.5,0c0.1,0,0.1,0.1,0.1,0.1
			c0,0.2-0.1,0.2-0.3,0.2c-0.6,0-0.7,0.1-0.7,0.3L250.9,142.9z"/>
	</g>
	<g>
		<path d="M271.9,138.9c-0.1,0.5-0.1,0.5-0.3,1c-0.1,0.4-0.2,0.6-0.5,0.6c-0.1,0-0.3-0.1-0.3-0.3c0-0.1,0-0.1,0.1-0.2
			c0.4-0.9,1-2.1,1.3-3.3h-0.6c-0.2,0-0.8,0-1.3,0.8c-0.1,0.1-0.1,0.1-0.2,0.1c-0.1,0-0.1-0.1-0.1-0.1c0,0,0.3-0.5,0.6-0.9
			c0.4-0.5,0.8-0.5,1-0.5h3.3c0.2,0,0.4,0,0.4,0.2c0,0.3-0.4,0.3-0.5,0.3h-1.1c-0.1,0.5-0.2,1.1-0.2,1.6c0,0.3,0,0.9,0.3,1.6
			c0.1,0.1,0.1,0.2,0.1,0.2c0,0.2-0.2,0.4-0.4,0.4c-0.1,0-0.3-0.1-0.4-0.5c-0.1-0.3-0.1-0.6-0.1-0.8c0-0.7,0.1-1.1,0.4-2.6h-1.1
			L271.9,138.9z"/>
	</g>
	<g>
		<path d="M296.2,124.8c-0.4,0.7-0.8,1.4-1.6,1.4c-0.6,0-1-0.5-1.1-1c-0.4,0.5-0.8,1-1.5,1c-0.8,0-1-0.7-1-1.4
			c0-0.9,0.4-2.1,0.9-2.8c0.1-0.1,0.1-0.2,0.3-0.2c0.1,0,0.2,0.1,0.2,0.2c0,0.1-1,1.2-1,2.4c0,0.6,0.2,1.1,0.9,1.1
			c0.6,0,1-0.4,1.4-0.9c0-0.4,0.1-1,0.2-1.2c0.1-0.1,0.2-0.2,0.3-0.2c0.1,0,0.2,0.1,0.2,0.2c0,0.3-0.2,0.9-0.3,1.2
			c0.1,0.5,0.4,0.9,1,0.9c0.5,0,0.8-0.3,1.1-0.8c0.3-0.5,0.5-1,0.5-1.4c0-0.4-0.2-0.7-0.3-0.8c-0.1-0.1-0.1-0.2-0.1-0.3
			c0-0.2,0.3-0.5,0.5-0.5c0.2,0,0.4,0.2,0.4,0.7C296.8,123,296.4,124.4,296.2,124.8z"/>
	</g>
	<g>
		<path d="M293.3,141.7c-0.9,0-1.2-1.1-1.2-2c0-2.3,1.5-5.1,2.9-5.1c1,0,1.2,1.4,1.2,2C296.2,138.8,294.7,141.7,293.3,141.7z
			 M293,138.3c-0.3,1-0.3,1.6-0.3,2c0,0.9,0.2,1.2,0.5,1.2c0.4,0,0.8-0.5,1.2-1.2c0.4-0.7,0.6-1.6,0.7-2H293z M295.2,138
			c0.2-1,0.3-1.5,0.3-2c0-0.6-0.1-1.2-0.5-1.2c-0.4,0-0.8,0.6-1.1,1c-0.4,0.7-0.6,1.5-0.8,2.1H295.2z"/>
	</g>
	<path class="st0" d="M272.8,109.8v7.1 M251.6,109.8v7.1 M209.1,109.8v7.1 M187.8,109.8v7.1"/>
	<g>
		<path d="M222.3,94.8c0,0.2,0,0.2,0,0.2c0,0.1,0,0.1,0.1,0.1c0.1,0,0.1,0,0.2,0h0.9c1.7,0,2.2-1.1,2.5-2.1c0.1-0.2,0.1-0.2,0.2-0.2
			s0.1,0.1,0.1,0.1c0,0,0,0,0,0.1l-0.8,2.2c-0.1,0.2-0.1,0.2-0.3,0.2h-4.6c-0.2,0-0.3,0-0.3-0.1c0-0.2,0.1-0.2,0.3-0.2
			c0.8,0,0.8-0.1,0.9-0.5l1.3-5.4c0-0.1,0-0.1,0-0.2c0-0.1-0.1-0.1-0.3-0.2c-0.2,0-0.4,0-0.4,0c-0.2,0-0.3,0-0.3-0.1
			c0-0.2,0.1-0.2,0.2-0.2c0.3,0,1,0,1.3,0c0.3,0,1.1,0,1.5,0c0,0,0.2,0,0.2,0.1c0,0.2-0.1,0.2-0.4,0.2c-0.9,0-1,0.1-1.1,0.5
			L222.3,94.8z"/>
	</g>
	<g>
		<path d="M183.3,138.5v-0.6h2.6v0.6H183.3z"/>
	</g>
	<g>
		<path d="M188.6,138.9c-0.1,0.5-0.1,0.5-0.3,1c-0.1,0.4-0.2,0.6-0.5,0.6c-0.1,0-0.3-0.1-0.3-0.3c0-0.1,0-0.1,0.1-0.2
			c0.4-0.9,1-2.1,1.3-3.3h-0.6c-0.2,0-0.8,0-1.3,0.8c-0.1,0.1-0.1,0.1-0.2,0.1c-0.1,0-0.1-0.1-0.1-0.1c0,0,0.3-0.5,0.6-0.9
			c0.4-0.5,0.8-0.5,1-0.5h3.3c0.2,0,0.4,0,0.4,0.2c0,0.3-0.4,0.3-0.5,0.3h-1.1c-0.1,0.5-0.2,1.1-0.2,1.6c0,0.3,0,0.9,0.3,1.6
			c0.1,0.1,0.1,0.2,0.1,0.2c0,0.2-0.2,0.4-0.4,0.4c-0.1,0-0.3-0.1-0.4-0.5c-0.1-0.3-0.1-0.6-0.1-0.8c0-0.7,0.1-1.1,0.4-2.6h-1.1
			L188.6,138.9z"/>
	</g>
	<g>
		<path d="M203.7,138.1v-0.6h2.6v0.6H203.7z"/>
	</g>
	<g>
		<path d="M210.1,135.1c-0.2,0.6-0.2,0.9-0.5,0.9c-0.2,0-0.2-0.1-0.2-0.2c0,0,0-0.1,0-0.1c0,0,0.1-0.2,0.1-0.3
			c0.2-0.4,0.6-1.2,0.8-2h-0.4c-0.2,0-0.6,0-0.9,0.5c0,0.1,0,0.1-0.1,0.1c0,0-0.1,0-0.1-0.1c0-0.1,0.3-0.4,0.5-0.6
			c0.3-0.3,0.5-0.4,0.8-0.4h2.6c0.1,0,0.3,0,0.3,0.2c0,0,0,0.1-0.1,0.2c-0.1,0.1-0.1,0.1-0.3,0.1h-0.9c-0.1,0.5-0.1,0.8-0.1,0.9
			c0,0.6,0.1,1,0.3,1.2c0,0.1,0.1,0.1,0.1,0.2c0,0.2-0.2,0.3-0.3,0.3c-0.1,0-0.2,0-0.3-0.4c0-0.2-0.1-0.3-0.1-0.6
			c0-0.6,0.2-1.2,0.3-1.6h-0.8L210.1,135.1z"/>
	</g>
	<polyline points="208,137.6 213.5,137.6 213.5,137.1 208,137.1 	"/>
	<g>
		<path d="M209.9,142.9c0,0.1,0,0.1,0,0.1c0,0.1,0,0.1,0.2,0.1h0.8c1.3,0,1.6-0.8,1.8-1.4c0-0.1,0.1-0.1,0.1-0.1
			c0.1,0,0.1,0.1,0.1,0.1c0,0.1-0.5,1.4-0.6,1.6c-0.1,0.1-0.1,0.1-0.2,0.1h-3.5c-0.1,0-0.2,0-0.2-0.1c0-0.1,0.1-0.1,0.2-0.1
			c0.5,0,0.6-0.1,0.6-0.3l0.9-3.7c0-0.1,0-0.1,0-0.2c0-0.1,0-0.1-0.2-0.1c-0.1,0-0.3,0-0.3,0c-0.1,0-0.2,0-0.2-0.1
			c0-0.2,0.1-0.2,0.1-0.2c0.1,0,0.3,0,0.5,0s0.3,0,0.5,0c0.2,0,0.4,0,0.6,0c0.2,0,0.4,0,0.5,0c0.1,0,0.1,0.1,0.1,0.1
			c0,0.2-0.1,0.2-0.3,0.2c-0.6,0-0.7,0.1-0.7,0.3L209.9,142.9z"/>
	</g>
	<g>
		<path d="M201.8,123.4v-0.6h2.6v0.6H201.8z"/>
	</g>
	<g>
		<path d="M210,120.4c-0.2,0.6-0.2,0.9-0.5,0.9c-0.2,0-0.2-0.1-0.2-0.2c0,0,0-0.1,0-0.1c0,0,0.1-0.2,0.1-0.3c0.2-0.4,0.6-1.2,0.8-2
			h-0.4c-0.2,0-0.6,0-0.9,0.5c0,0.1,0,0.1-0.1,0.1c0,0-0.1,0-0.1-0.1c0-0.1,0.3-0.4,0.5-0.6c0.3-0.3,0.5-0.4,0.8-0.4h2.6
			c0.1,0,0.3,0,0.3,0.2c0,0,0,0.1-0.1,0.2c-0.1,0.1-0.1,0.1-0.3,0.1h-0.9c-0.1,0.5-0.1,0.8-0.1,0.9c0,0.6,0.1,1,0.3,1.2
			c0,0.1,0.1,0.1,0.1,0.2c0,0.2-0.2,0.3-0.3,0.3c-0.1,0-0.2,0-0.3-0.4c0-0.2-0.1-0.3-0.1-0.6c0-0.6,0.2-1.2,0.3-1.6h-0.8L210,120.4z
			"/>
	</g>
	<polyline points="206.2,123 215.4,123 215.4,122.5 206.2,122.5 	"/>
	<g>
		<path d="M208.7,128.2c0,0.1,0,0.1,0,0.2c0,0.1,0,0.1,0.3,0.1c0.1,0,0.3,0,0.4,0c0.2,0,0.3,0,0.3,0.1c0,0.2-0.1,0.2-0.2,0.2
			c-0.2,0-0.4,0-0.6,0c-0.2,0-0.4,0-0.6,0c-0.2,0-0.4,0-0.6,0s-0.4,0-0.6,0c-0.1,0-0.1-0.1-0.1-0.1c0-0.2,0.1-0.2,0.3-0.2
			c0.7,0,0.8-0.1,0.8-0.3l0.9-3.7c0-0.1,0-0.1,0-0.1c0-0.1,0-0.1-0.2-0.1h-0.3c-1.1,0-1.3,0.1-1.7,1.2c0,0.1-0.1,0.2-0.1,0.2
			c-0.1,0-0.1-0.1-0.1-0.1c0,0,0-0.1,0-0.1l0.4-1.2c0-0.1,0.1-0.1,0.2-0.1h4.3c0.1,0,0.2,0,0.2,0.1l-0.2,1.3c0,0.1,0,0.2-0.1,0.2
			c-0.1,0-0.1,0-0.1-0.1l0-0.1c0-0.4,0-0.5,0-0.6c0-0.3,0-0.5-0.3-0.6c-0.2-0.1-0.4-0.1-0.8-0.1c-0.1,0-0.4,0-0.4,0
			c-0.2,0-0.2,0-0.2,0.2L208.7,128.2z"/>
	</g>
	<g>
		<path d="M213,129.2c0,0.1,0,0.2,0.2,0.2c0.1,0,0.2,0,0.3,0h0.1c0.1,0,0.2,0,0.2,0.1c0,0.1,0,0.1-0.1,0.1c-0.1,0-0.3,0-0.4,0
			c-0.1,0-0.3,0-0.4,0c-0.1,0-0.3,0-0.5,0c-0.1,0-0.3,0-0.4,0c-0.1,0-0.1,0-0.1-0.1c0-0.1,0.1-0.1,0.2-0.1h0.1c0.2,0,0.2,0,0.4,0
			c0.1,0,0.2,0,0.2-0.2v-1.4c-0.3,0.1-0.6,0.1-0.6,0.1c-0.1,0-0.2,0-0.2-0.1c0-0.1,0-0.1,0.2-0.1c0.5,0,0.8-0.1,0.9-0.2
			c0.1,0,0.1,0,0.1,0c0.1,0,0.1,0.1,0.1,0.2V129.2z"/>
	</g>
	<g>
		<path d="M180.6,122.9v-0.6h2.6v0.6H180.6z"/>
	</g>
	<g>
		<path d="M188.7,119.9c-0.2,0.6-0.2,0.9-0.5,0.9c-0.2,0-0.2-0.1-0.2-0.2c0,0,0-0.1,0-0.1c0,0,0.1-0.2,0.1-0.3
			c0.2-0.4,0.6-1.2,0.8-2h-0.4c-0.2,0-0.6,0-0.9,0.5c0,0.1,0,0.1-0.1,0.1c0,0-0.1,0-0.1-0.1c0-0.1,0.3-0.4,0.5-0.6
			c0.3-0.3,0.5-0.4,0.8-0.4h2.6c0.1,0,0.3,0,0.3,0.2c0,0,0,0.1-0.1,0.2c-0.1,0.1-0.1,0.1-0.3,0.1h-0.9c-0.1,0.5-0.1,0.8-0.1,0.9
			c0,0.6,0.1,1,0.3,1.2c0,0.1,0.1,0.1,0.1,0.2c0,0.2-0.2,0.3-0.3,0.3c-0.1,0-0.2,0-0.3-0.4c0-0.2-0.1-0.3-0.1-0.6
			c0-0.6,0.2-1.2,0.3-1.6h-0.8L188.7,119.9z"/>
	</g>
	<polyline points="185,122.5 194.1,122.5 194.1,122 185,122 	"/>
	<g>
		<path d="M187.4,127.7c0,0.1,0,0.1,0,0.2c0,0.1,0,0.1,0.3,0.1c0.1,0,0.3,0,0.4,0c0.2,0,0.3,0,0.3,0.1c0,0.2-0.1,0.2-0.2,0.2
			c-0.2,0-0.4,0-0.6,0c-0.2,0-0.4,0-0.6,0s-0.4,0-0.6,0s-0.4,0-0.6,0c-0.1,0-0.1-0.1-0.1-0.1c0-0.2,0.1-0.2,0.3-0.2
			c0.7,0,0.8-0.1,0.8-0.3l0.9-3.7c0-0.1,0-0.1,0-0.1c0-0.1,0-0.1-0.2-0.1h-0.3c-1.1,0-1.3,0.1-1.7,1.2c0,0.1-0.1,0.2-0.1,0.2
			c-0.1,0-0.1-0.1-0.1-0.1c0,0,0-0.1,0-0.1l0.4-1.2c0-0.1,0.1-0.1,0.2-0.1h4.3c0.1,0,0.2,0,0.2,0.1l-0.2,1.3c0,0.1,0,0.2-0.1,0.2
			c-0.1,0-0.1,0-0.1-0.1l0-0.1c0-0.4,0-0.5,0-0.6c0-0.3,0-0.5-0.3-0.6c-0.2-0.1-0.4-0.1-0.8-0.1c-0.1,0-0.4,0-0.4,0
			c-0.2,0-0.2,0-0.2,0.2L187.4,127.7z"/>
	</g>
	<g>
		<path d="M192,128.8c0.2,0,0.2,0,0.4,0c0.1,0,0.1,0,0.2-0.2c0-0.1,0-0.1,0.1-0.1c0,0,0.1,0,0.1,0.1c0,0-0.2,0.6-0.2,0.6
			c0,0-0.1,0-0.1,0h-2c-0.1,0-0.2,0-0.2-0.1c0-0.1,0-0.1,0.1-0.1l1.3-0.6c0.4-0.2,0.7-0.3,0.7-0.7c0-0.5-0.6-0.5-1-0.5
			c-0.2,0-0.5,0-0.7,0.2c0,0,0.1,0.1,0.1,0.2c0,0.2-0.1,0.2-0.2,0.2c-0.1,0-0.2-0.1-0.2-0.2c0-0.6,0.9-0.6,1.1-0.6
			c0.4,0,1.3,0,1.3,0.7c0,0.4-0.4,0.6-0.8,0.7c-0.1,0-0.3,0.1-0.9,0.4v0H192z"/>
	</g>
	<g>
		<path class="st4" d="M42.1,96.5C42,96.9,42,97.1,42,97.4c0,0.3,0.2,0.7,0.5,0.7c0.3,0,1-0.2,1.3-1.3c0-0.1,0-0.1,0.1-0.1
			c0,0,0.1,0,0.1,0.1c0,0.2-0.6,1.5-1.6,1.5c-0.6,0-1-0.4-1.1-0.8c0,0.1-0.4,0.8-1,0.8c-0.4,0-0.9-0.2-0.9-0.7
			c0-0.3,0.2-0.6,0.5-0.6c0.1,0,0.4,0.1,0.4,0.3c0,0.3-0.2,0.5-0.5,0.5c0.2,0.1,0.4,0.1,0.5,0.1c0.4,0,0.8-0.4,0.9-1
			c0.4-1.4,0.5-2.1,0.5-2.4c0-0.6-0.3-0.7-0.5-0.7c-0.3,0-1,0.2-1.3,1.3c0,0.1-0.1,0.1-0.1,0.1c0,0-0.1,0-0.1-0.1
			c0-0.2,0.6-1.5,1.6-1.5c0.3,0,0.8,0.1,1.1,0.8c0.1-0.2,0.5-0.8,1-0.8c0.3,0,0.9,0.1,0.9,0.7c0,0.4-0.3,0.6-0.5,0.6
			c-0.3,0-0.4-0.2-0.4-0.3c0-0.2,0.2-0.5,0.5-0.5c-0.2-0.1-0.4-0.1-0.5-0.1c-0.7,0-0.9,0.9-1,1.2L42.1,96.5z"/>
	</g>
	<g>
		<path d="M46,100.6v-10h1.4v0.4h-1v9.2h1v0.4H46z"/>
	</g>
	<g>
		<path d="M49,95.2c0.1-0.5,0.2-0.6,0.2-0.8c0-0.3-0.1-0.5-0.3-0.5c-0.4,0-0.6,0.5-0.7,1.2c-0.1,0.2-0.1,0.2-0.2,0.2
			c0,0-0.1,0-0.1-0.1c0,0,0.1-0.6,0.3-1c0.1-0.2,0.3-0.6,0.7-0.6c0.5,0,0.9,0.3,0.9,0.9c0.2-0.2,0.7-0.9,1.6-0.9
			c0.7,0,1.1,0.4,1.1,1.1c0,0.6-0.4,1.7-0.6,2.2c-0.1,0.2-0.2,0.5-0.2,0.7c0,0.2,0.1,0.3,0.2,0.3c0.5,0,0.8-0.6,1-1.2
			c0-0.1,0-0.2,0.1-0.2c0,0,0.1,0,0.1,0.1c0,0.1-0.4,1.5-1.3,1.5c-0.5,0-0.8-0.3-0.8-0.8c0-0.1,0-0.2,0.1-0.5
			c0.2-0.4,0.6-1.7,0.6-2.3c0-0.3-0.1-0.7-0.5-0.7c-0.9,0-1.5,0.9-1.6,1.2c0,0-0.1,0.3-0.1,0.5c0,0.2-0.1,0.4-0.2,0.7l-0.2,0.9
			C49.1,97.5,49,97.9,49,98c-0.1,0.2-0.2,0.3-0.4,0.3c-0.1,0-0.3-0.1-0.3-0.3c0-0.1,0.1-0.3,0.1-0.4L49,95.2z"/>
	</g>
	<g>
		<path d="M57.1,96.2c-0.3,0-0.5-0.2-0.5-0.5c0-0.3,0.2-0.5,0.5-0.5c0.3,0,0.5,0.2,0.5,0.5C57.6,95.9,57.4,96.2,57.1,96.2z"/>
	</g>
	<g>
		<path d="M63.7,97.4c0,0.1,0,0.2,0,0.2c0,0.2,0.1,0.2,0.4,0.2c0.3,0,0.4,0,0.6,0c0.3,0,0.3,0,0.3,0.1c0,0.2-0.1,0.2-0.2,0.2
			c-0.3,0-0.6,0-0.9,0c-0.3,0-0.5,0-0.8,0c-0.3,0-0.6,0-0.8,0c-0.3,0-0.5,0-0.8,0c-0.1,0-0.2,0-0.2-0.1c0-0.2,0.1-0.2,0.4-0.2
			c1.1,0,1.1-0.1,1.2-0.5l1.3-5.3c0,0,0-0.1,0-0.2c0-0.1,0-0.1-0.3-0.1h-0.4c-1.5,0-1.7,0.2-2.3,1.7c-0.1,0.2-0.1,0.2-0.2,0.2
			c-0.1,0-0.1,0-0.1-0.1c0,0,0-0.2,0.1-0.2l0.6-1.8c0.1-0.2,0.1-0.2,0.3-0.2h5.5c0.2,0,0.3,0,0.3,0.1c0,0,0,0.1,0,0.2l-0.3,1.7
			c0,0.1,0,0.2-0.1,0.2c-0.1,0-0.1-0.1-0.1-0.1c0,0,0-0.1,0-0.2c0-0.3,0.1-0.6,0.1-0.8c0-0.8-0.4-0.8-1.5-0.8c-0.2,0-0.5,0-0.6,0
			c-0.1,0-0.2,0.1-0.2,0.4L63.7,97.4z"/>
	</g>
	<g>
		<path d="M69,99c0,0.2,0,0.3,0.2,0.3c0.1,0,0.3,0,0.5,0c0.2,0,0.3,0,0.3,0.1s-0.1,0.1-0.1,0.1c-0.2,0-0.4,0-0.5,0
			c-0.2,0-0.4,0-0.6,0c-0.2,0-0.4,0-0.5,0c-0.2,0-0.4,0-0.6,0c0,0-0.1,0-0.1-0.1s0.1-0.1,0.2-0.1c0.2,0,0.4,0,0.6,0
			c0.2,0,0.2-0.1,0.2-0.3v-2.1C68.1,97,67.7,97,67.7,97c-0.2,0-0.2,0-0.2-0.1s0.1-0.1,0.2-0.1c0.7,0,1-0.2,1.1-0.3
			c0.1,0,0.1,0,0.1,0c0.1,0,0.1,0.1,0.1,0.2V99z"/>
	</g>
	<g>
		<path d="M73.1,100.6h-1.4v-0.4h1v-9.2h-1v-0.4h1.4V100.6z"/>
	</g>
	<polyline points="77,108.6 81.5,106.3 77,104 78.1,106.3 	"/>
	<line class="st0" x1="35.4" y1="106.3" x2="78.1" y2="106.3"/>
	<g>
		<path d="M94.6,110.4c0,0.2,0,0.4-0.2,0.4c-0.2,0-0.2-0.2-0.2-0.4v-7.1c-0.2,0.3-0.5,0.6-0.8,0.9c-0.6,0.4-1.2,0.5-1.2,0.5
			c-0.1,0-0.1-0.1-0.1-0.2c0-0.2,0-0.2,0.2-0.2c1.1-0.3,1.8-1.1,2-2.2c0-0.1,0-0.2,0.1-0.2c0.1,0,0.1,0,0.1,0.1
			c0.1,0.3,0.2,0.9,0.7,1.5c0.2,0.2,0.6,0.6,1.3,0.8c0.2,0.1,0.2,0.1,0.2,0.2c0,0.1,0,0.2-0.1,0.2c0,0-0.6-0.1-1.2-0.6
			c-0.2-0.2-0.5-0.5-0.8-0.8V110.4z"/>
	</g>
	<g>
		<path d="M102.1,108.2c0,0.2,0,0.2,0,0.2c0,0.1,0,0.1,0.1,0.1c0.1,0,0.1,0,0.2,0h0.9c1.7,0,2.2-1.1,2.5-2.1
			c0.1-0.2,0.1-0.2,0.2-0.2c0.1,0,0.1,0.1,0.1,0.1c0,0,0,0,0,0.1l-0.8,2.2c-0.1,0.2-0.1,0.2-0.3,0.2h-4.6c-0.2,0-0.3,0-0.3-0.1
			c0-0.2,0.1-0.2,0.3-0.2c0.8,0,0.8-0.1,0.9-0.5l1.3-5.4c0-0.1,0-0.1,0-0.2c0-0.1-0.1-0.1-0.3-0.2c-0.2,0-0.4,0-0.4,0
			c-0.2,0-0.3,0-0.3-0.1c0-0.2,0.1-0.2,0.2-0.2c0.3,0,1,0,1.3,0c0.3,0,1.1,0,1.5,0c0,0,0.2,0,0.2,0.1c0,0.2-0.1,0.2-0.4,0.2
			c-0.9,0-1,0.1-1.1,0.5L102.1,108.2z"/>
	</g>
	<polygon class="st0" points="81.5,106.3 81.5,116.9 116.9,116.9 116.9,95.7 81.5,95.7 	"/>
	<g>
		<path class="st4" d="M45.5,157.5c0.1-0.1,0.2-0.2,0.2-0.4c0-0.3-0.3-0.3-0.4-0.3c-0.1,0-0.1,0-0.1-0.1c0-0.2,0.1-0.2,0.2-0.2
			c0.4,0,0.7,0,1.1,0c0.3,0,0.6,0,0.9,0c0.1,0,0.1,0.1,0.1,0.1c0,0.2-0.1,0.2-0.2,0.2c-0.6,0-1,0.3-1.3,0.5c-0.3,0.3-1.4,1.5-2,2.2
			c0.2,0.6,0.9,2.2,1.3,3.1c0.2,0.4,0.2,0.4,0.9,0.4c0.1,0,0.2,0,0.2,0.1c0,0.2-0.1,0.2-0.2,0.2c-0.2,0-0.9,0-1.1,0
			c-0.3,0-1,0-1.3,0c0,0-0.1,0-0.1-0.1c0-0.2,0.1-0.2,0.2-0.2c0.4,0,0.6-0.2,0.6-0.3c0,0,0,0,0-0.1l-1-2.4l-0.9,1l-1,1.1
			c-0.1,0.1-0.3,0.3-0.3,0.4c0,0.3,0.3,0.3,0.4,0.3c0,0,0.1,0,0.1,0.1c0,0.2-0.1,0.2-0.2,0.2c-0.4,0-0.7,0-1.1,0c-0.3,0-0.6,0-0.9,0
			c-0.1,0-0.1-0.1-0.1-0.1c0-0.2,0.1-0.2,0.2-0.2c0.5,0,1-0.2,1.5-0.7l0.1-0.1l2.1-2.3l-1.2-2.8c-0.1-0.2-0.1-0.3-0.7-0.3
			c-0.1,0-0.2,0-0.2-0.1c0-0.2,0.1-0.2,0.2-0.2c0.2,0,0.9,0,1.1,0c0.4,0,0.8,0,1.3,0c0,0,0.1,0,0.1,0.1c0,0.2-0.1,0.2-0.2,0.2
			c-0.4,0-0.6,0.2-0.6,0.3c0,0,0,0,0,0.1l0.8,2L45.5,157.5z"/>
	</g>
	<g>
		<path d="M51.2,165.8c-0.1,0-1-0.6-1.6-1.9c-0.5-1.1-0.7-2.3-0.7-3.1c0-0.8,0.1-1.9,0.6-3c0.6-1.3,1.5-1.9,1.6-1.9
			c0.1,0,0.1,0,0.1,0.1c0,0,0,0-0.1,0.2c-1.2,1.2-1.6,3-1.6,4.7c0,1.5,0.3,3.4,1.6,4.7C51.3,165.6,51.3,165.7,51.2,165.8
			C51.3,165.7,51.3,165.8,51.2,165.8z"/>
		<path d="M53.3,162.5c0.2,0.4,0.6,0.7,1.1,0.7c0.1,0,1,0,1.3-1c0-0.1,0-0.1,0.1-0.1c0,0,0.1,0,0.1,0.1c0,0.2-0.4,1.3-1.7,1.3
			c-1.1,0-2.2-1-2.2-2.3c0-1.2,0.9-2.3,2.1-2.3c1.2,0,1.8,1,1.8,2c0,0.2,0,0.2-0.2,0.2H53C53,161.3,53,162,53.3,162.5z M55.4,160.8
			c0-0.4-0.1-1.7-1.1-1.7c-0.3,0-1.2,0.3-1.2,1.7H55.4z"/>
	</g>
	<g>
		<path d="M58.4,160.2c0,0.9-0.6,1.5-1.4,1.5c-0.6,0-1.1-0.3-1.1-0.8c0-0.3,0.2-0.5,0.5-0.5c0.3,0,0.5,0.2,0.5,0.5
			c0,0.3-0.2,0.4-0.3,0.4c0.3,0.1,0.5,0.1,0.5,0.1c0.6,0,0.7-0.9,0.7-1.3v-3.9c0-0.5-0.1-0.6-0.9-0.6v-0.3l1.5-0.1V160.2z
			 M57.9,154.1c-0.3,0-0.5-0.2-0.5-0.5s0.2-0.5,0.5-0.5s0.5,0.2,0.5,0.5S58.2,154.1,57.9,154.1z"/>
	</g>
	<g>
		<path d="M62.5,159.7c-0.4,0-0.8-0.3-0.9-0.7c-0.3,0.4-0.7,0.7-1.1,0.7c-0.6,0-0.9-0.6-0.9-1.1c0-0.5,0.2-1.1,0.4-1.5
			c0.1-0.1,0.2-0.3,0.3-0.4c0-0.1,0.1-0.1,0.2-0.1c0.1,0,0.1,0.1,0.1,0.2c0,0.1-0.7,0.8-0.7,1.6c0,0.5,0.3,0.8,0.7,0.8
			c0.5,0,0.8-0.3,1-0.6c0-0.2,0-1,0.4-1c0.1,0,0.2,0.1,0.2,0.2c0,0.2-0.2,0.7-0.3,0.8c0.1,0.3,0.4,0.5,0.7,0.5c0.8,0,1.2-1,1.2-1.5
			c0-0.5-0.4-0.5-0.4-0.8c0-0.2,0.2-0.4,0.4-0.4c0.3,0,0.4,0.3,0.4,0.5C64.2,157.7,63.8,159.7,62.5,159.7z"/>
		<path d="M67.2,159.1c0,0.1,0,0.1,0,0.2c0,0.1,0,0.1,0.3,0.1c0.1,0,0.3,0,0.4,0c0.2,0,0.3,0,0.3,0.1c0,0.2-0.1,0.2-0.2,0.2
			c-0.2,0-0.4,0-0.6,0c-0.2,0-0.4,0-0.6,0s-0.4,0-0.6,0s-0.4,0-0.6,0c-0.1,0-0.1-0.1-0.1-0.1c0-0.2,0.1-0.2,0.3-0.2
			c0.7,0,0.8-0.1,0.8-0.3l0.9-3.7c0-0.1,0-0.1,0-0.1c0-0.1,0-0.1-0.2-0.1H67c-1.1,0-1.3,0.1-1.7,1.2c0,0.1-0.1,0.2-0.1,0.2
			c-0.1,0-0.1-0.1-0.1-0.1c0,0,0-0.1,0-0.1l0.4-1.2c0-0.1,0.1-0.1,0.2-0.1H70c0.1,0,0.2,0,0.2,0.1l-0.2,1.3c0,0.1,0,0.2-0.1,0.2
			c-0.1,0-0.1,0-0.1-0.1l0-0.1c0-0.4,0-0.5,0-0.6c0-0.3,0-0.5-0.3-0.6c-0.2-0.1-0.4-0.1-0.8-0.1c-0.1,0-0.4,0-0.4,0
			c-0.2,0-0.2,0-0.2,0.2L67.2,159.1z"/>
	</g>
	<g>
		<path d="M71.5,160.2c0,0.1,0,0.2,0.2,0.2c0.1,0,0.2,0,0.3,0h0.1c0.1,0,0.2,0,0.2,0.1c0,0.1,0,0.1-0.1,0.1c-0.1,0-0.3,0-0.4,0
			c-0.1,0-0.3,0-0.4,0c-0.1,0-0.3,0-0.5,0c-0.1,0-0.3,0-0.4,0c-0.1,0-0.1,0-0.1-0.1c0-0.1,0.1-0.1,0.2-0.1h0.1c0.2,0,0.2,0,0.4,0
			c0.1,0,0.2,0,0.2-0.2v-1.4c-0.3,0.1-0.6,0.1-0.6,0.1c-0.1,0-0.2,0-0.2-0.1c0-0.1,0-0.1,0.2-0.1c0.5,0,0.8-0.1,0.9-0.2
			c0.1,0,0.1,0,0.1,0c0.1,0,0.1,0.1,0.1,0.2V160.2z"/>
	</g>
	<g>
		<path d="M76.6,163.8c-0.6,1.3-1.5,1.9-1.6,1.9c-0.1,0-0.1,0-0.1-0.1c0,0,0,0,0.1-0.2c1.2-1.3,1.6-3,1.6-4.7c0-2.1-0.6-3.7-1.5-4.7
			c-0.2-0.2-0.2-0.2-0.2-0.2c0-0.1,0-0.1,0.1-0.1c0.1,0,1,0.6,1.6,1.9c0.5,1.1,0.7,2.3,0.7,3.1C77.2,161.6,77.1,162.7,76.6,163.8z"
			/>
	</g>
	<g>
		<path d="M79.3,165.2c-0.1,0-0.1,0-0.1-0.1c0,0,0,0,0.1-0.2c0.3-0.3,0.7-0.9,0.7-1.7c0-0.1,0-0.1,0-0.1c0,0,0,0,0,0
			c-0.1,0.1-0.2,0.1-0.3,0.1c-0.3,0-0.5-0.3-0.5-0.5c0-0.3,0.2-0.5,0.5-0.5c0.4,0,0.6,0.4,0.6,1C80.2,164.4,79.4,165.2,79.3,165.2z"
			/>
	</g>
	<g>
		<path class="st4" d="M89,157.5c0.1-0.1,0.2-0.2,0.2-0.4c0-0.3-0.3-0.3-0.4-0.3c-0.1,0-0.1,0-0.1-0.1c0-0.2,0.1-0.2,0.2-0.2
			c0.4,0,0.7,0,1.1,0c0.3,0,0.6,0,0.9,0c0.1,0,0.1,0.1,0.1,0.1c0,0.2-0.1,0.2-0.2,0.2c-0.6,0-1,0.3-1.3,0.5c-0.3,0.3-1.4,1.5-2,2.2
			c0.2,0.6,0.9,2.2,1.3,3.1c0.2,0.4,0.2,0.4,0.9,0.4c0.1,0,0.2,0,0.2,0.1c0,0.2-0.1,0.2-0.2,0.2c-0.2,0-0.9,0-1.1,0
			c-0.3,0-1,0-1.3,0c0,0-0.1,0-0.1-0.1c0-0.2,0.1-0.2,0.2-0.2c0.4,0,0.6-0.2,0.6-0.3c0,0,0,0,0-0.1l-1-2.4l-0.9,1l-1,1.1
			c-0.1,0.1-0.3,0.3-0.3,0.4c0,0.3,0.3,0.3,0.4,0.3c0,0,0.1,0,0.1,0.1c0,0.2-0.1,0.2-0.2,0.2c-0.4,0-0.7,0-1.1,0c-0.3,0-0.6,0-0.9,0
			c-0.1,0-0.1-0.1-0.1-0.1c0-0.2,0.1-0.2,0.2-0.2c0.5,0,1-0.2,1.5-0.7l0.1-0.1l2.1-2.3l-1.2-2.8c-0.1-0.2-0.1-0.3-0.7-0.3
			c-0.1,0-0.2,0-0.2-0.1c0-0.2,0.1-0.2,0.2-0.2c0.2,0,0.9,0,1.1,0c0.4,0,0.8,0,1.3,0c0,0,0.1,0,0.1,0.1c0,0.2-0.1,0.2-0.2,0.2
			c-0.4,0-0.6,0.2-0.6,0.3c0,0,0,0,0,0.1l0.8,2L89,157.5z"/>
	</g>
	<g>
		<path d="M94.8,165.8c-0.1,0-1-0.6-1.6-1.9c-0.5-1.1-0.7-2.3-0.7-3.1c0-0.8,0.1-1.9,0.6-3c0.6-1.3,1.5-1.9,1.6-1.9
			c0.1,0,0.1,0,0.1,0.1c0,0,0,0-0.1,0.2c-1.2,1.2-1.6,3-1.6,4.7c0,1.5,0.3,3.4,1.6,4.7C94.9,165.6,94.9,165.7,94.8,165.8
			C94.9,165.7,94.9,165.8,94.8,165.8z"/>
		<path d="M96.8,162.5c0.2,0.4,0.6,0.7,1.1,0.7c0.1,0,1,0,1.3-1c0-0.1,0-0.1,0.1-0.1c0,0,0.1,0,0.1,0.1c0,0.2-0.4,1.3-1.7,1.3
			c-1.1,0-2.2-1-2.2-2.3c0-1.2,0.9-2.3,2.1-2.3c1.2,0,1.8,1,1.8,2c0,0.2,0,0.2-0.2,0.2h-2.8C96.5,161.3,96.5,162,96.8,162.5z
			 M98.9,160.8c0-0.4-0.1-1.7-1.1-1.7c-0.3,0-1.2,0.3-1.2,1.7H98.9z"/>
	</g>
	<g>
		<path d="M102.1,160.2c0,0.9-0.6,1.5-1.4,1.5c-0.6,0-1.1-0.3-1.1-0.8c0-0.3,0.2-0.5,0.5-0.5c0.3,0,0.5,0.2,0.5,0.5
			c0,0.3-0.2,0.4-0.3,0.4c0.3,0.1,0.5,0.1,0.5,0.1c0.6,0,0.7-0.9,0.7-1.3v-3.9c0-0.5-0.1-0.6-0.9-0.6v-0.3l1.5-0.1V160.2z
			 M101.6,154.1c-0.3,0-0.5-0.2-0.5-0.5s0.2-0.5,0.5-0.5s0.5,0.2,0.5,0.5S101.9,154.1,101.6,154.1z"/>
	</g>
	<g>
		<path d="M104.4,159.8c-0.6,0-1-0.7-1-1.5c0-1.6,1.1-3.5,2.2-3.5c0.7,0,1,0.8,1,1.5C106.6,157.9,105.5,159.8,104.4,159.8z
			 M104.2,157.4c-0.1,0.3-0.2,0.8-0.2,1.3c0,0.4,0.1,0.9,0.4,0.9c0.3,0,0.6-0.3,0.8-0.7c0.2-0.3,0.4-0.7,0.6-1.5H104.2z
			 M105.8,157.1c0.1-0.6,0.2-1,0.2-1.3c0-0.1,0-0.9-0.4-0.9c-0.4,0-1,0.7-1.4,2.2H105.8z"/>
	</g>
	<g>
		<path d="M109.7,163.8c-0.6,1.3-1.5,1.9-1.6,1.9c-0.1,0-0.1,0-0.1-0.1c0,0,0,0,0.1-0.2c1.2-1.3,1.6-3,1.6-4.7
			c0-2.1-0.6-3.7-1.5-4.7c-0.2-0.2-0.2-0.2-0.2-0.2c0-0.1,0-0.1,0.1-0.1c0.1,0,1,0.6,1.6,1.9c0.5,1.1,0.7,2.3,0.7,3.1
			C110.3,161.6,110.2,162.7,109.7,163.8z"/>
	</g>
	<line class="st5" x1="31.9" y1="177.2" x2="10.6" y2="191.3"/>
	<polyline points="34.2,160.4 31.9,155.9 29.6,160.4 31.9,159.3 	"/>
	<line class="st0" x1="31.9" y1="194.9" x2="31.9" y2="159.3"/>
	<polyline points="55.7,193.6 60.2,191.3 55.7,189.1 56.8,191.3 	"/>
	<line class="st0" x1="7.1" y1="191.3" x2="56.8" y2="191.3"/>
	<g>
		<path d="M76.6,202.8c-0.4,0.7-0.8,1.4-1.6,1.4c-0.6,0-1-0.5-1.1-1c-0.4,0.5-0.8,1-1.5,1c-0.8,0-1-0.7-1-1.4c0-0.9,0.4-2.1,0.9-2.8
			c0.1-0.1,0.1-0.2,0.3-0.2c0.1,0,0.2,0.1,0.2,0.2c0,0.1-1,1.2-1,2.4c0,0.6,0.2,1.1,0.9,1.1c0.6,0,1-0.4,1.4-0.9
			c0-0.4,0.1-1,0.2-1.2c0.1-0.1,0.2-0.2,0.3-0.2c0.1,0,0.2,0.1,0.2,0.2c0,0.3-0.2,0.9-0.3,1.2c0.1,0.5,0.4,0.9,1,0.9
			c0.5,0,0.8-0.3,1.1-0.8c0.3-0.5,0.5-1,0.5-1.4c0-0.4-0.2-0.7-0.3-0.8c-0.1-0.1-0.1-0.2-0.1-0.3c0-0.2,0.3-0.5,0.5-0.5
			c0.2,0,0.4,0.2,0.4,0.7C77.2,201,76.8,202.4,76.6,202.8z"/>
	</g>
	<g>
		<path d="M73.5,219.7c-0.9,0-1.2-1.1-1.2-2c0-2.3,1.5-5.1,2.9-5.1c1,0,1.2,1.4,1.2,2C76.4,216.8,74.9,219.7,73.5,219.7z
			 M73.3,216.3c-0.3,1-0.3,1.6-0.3,2c0,0.9,0.2,1.2,0.5,1.2c0.4,0,0.8-0.5,1.2-1.2c0.4-0.7,0.6-1.6,0.7-2H73.3z M75.5,216
			c0.2-1,0.3-1.5,0.3-2c0-0.6-0.1-1.2-0.5-1.2c-0.4,0-0.8,0.6-1.1,1c-0.4,0.7-0.6,1.5-0.8,2.1H75.5z"/>
	</g>
	<g>
		<path d="M25.3,172.5c0,0.4,0,0.5,0.9,0.5h0.3v0.3c-0.3,0-1.2,0-1.6,0c-0.4,0-1.3,0-1.6,0v-0.3h0.3c0.9,0,0.9-0.1,0.9-0.5v-5.2
			c-0.5,0.3-1.1,0.3-1.3,0.3v-0.3c0.3,0,1.2,0,1.8-0.6c0.2,0,0.2,0,0.2,0.3V172.5z"/>
	</g>
	<line class="st5" x1="31.9" y1="177.2" x2="53.1" y2="191.3"/>
	<path class="st0" d="M28.3,177.2h7.1 M10.6,187.8v7.1 M53.1,187.8v7.1"/>
	<g>
		<path d="M52.3,216.7c-0.1,0.5-0.1,0.5-0.3,1c-0.1,0.4-0.2,0.6-0.5,0.6c-0.1,0-0.3-0.1-0.3-0.3c0-0.1,0-0.1,0.1-0.2
			c0.4-0.9,1-2.1,1.3-3.3H52c-0.2,0-0.8,0-1.3,0.8c-0.1,0.1-0.1,0.1-0.2,0.1c-0.1,0-0.1-0.1-0.1-0.1c0,0,0.3-0.5,0.6-0.9
			c0.4-0.5,0.8-0.5,1-0.5h3.3c0.2,0,0.4,0,0.4,0.2c0,0.3-0.4,0.3-0.5,0.3h-1.1c-0.1,0.5-0.2,1.1-0.2,1.6c0,0.3,0,0.9,0.3,1.6
			c0.1,0.1,0.1,0.2,0.1,0.2c0,0.2-0.2,0.4-0.4,0.4c-0.1,0-0.3-0.1-0.4-0.5c-0.1-0.3-0.1-0.6-0.1-0.8c0-0.7,0.1-1.1,0.4-2.6h-1.1
			L52.3,216.7z"/>
	</g>
	<g>
		<path d="M52.4,198.4c-0.2,0.6-0.2,0.9-0.5,0.9c-0.2,0-0.2-0.1-0.2-0.2c0,0,0-0.1,0-0.1c0,0,0.1-0.2,0.1-0.3c0.2-0.4,0.6-1.2,0.8-2
			h-0.4c-0.2,0-0.6,0-0.9,0.5c0,0.1,0,0.1-0.1,0.1c0,0-0.1,0-0.1-0.1c0-0.1,0.3-0.4,0.5-0.6c0.3-0.3,0.5-0.4,0.8-0.4h2.6
			c0.1,0,0.3,0,0.3,0.2c0,0,0,0.1-0.1,0.2c-0.1,0.1-0.1,0.1-0.3,0.1h-0.9c-0.1,0.5-0.1,0.8-0.1,0.9c0,0.6,0.1,1,0.3,1.2
			c0,0.1,0.1,0.1,0.1,0.2c0,0.2-0.2,0.3-0.3,0.3c-0.1,0-0.2,0-0.3-0.4c0-0.2-0.1-0.3-0.1-0.6c0-0.6,0.2-1.2,0.3-1.6h-0.8L52.4,198.4
			z"/>
	</g>
	<polyline points="48.6,201 57.9,201 57.9,200.5 48.6,200.5 	"/>
	<g>
		<path d="M51.1,206.1c0,0.1,0,0.1,0,0.2c0,0.1,0,0.1,0.3,0.1c0.1,0,0.3,0,0.4,0c0.2,0,0.3,0,0.3,0.1c0,0.2-0.1,0.2-0.2,0.2
			c-0.2,0-0.4,0-0.6,0c-0.2,0-0.4,0-0.6,0s-0.4,0-0.6,0s-0.4,0-0.6,0c-0.1,0-0.1-0.1-0.1-0.1c0-0.2,0.1-0.2,0.3-0.2
			c0.7,0,0.8-0.1,0.8-0.3l0.9-3.7c0-0.1,0-0.1,0-0.1c0-0.1,0-0.1-0.2-0.1h-0.3c-1.1,0-1.3,0.1-1.7,1.2c0,0.1-0.1,0.2-0.1,0.2
			c-0.1,0-0.1-0.1-0.1-0.1c0,0,0-0.1,0-0.1l0.4-1.2c0-0.1,0.1-0.1,0.2-0.1h4.3c0.1,0,0.2,0,0.2,0.1l-0.2,1.3c0,0.1,0,0.2-0.1,0.2
			c-0.1,0-0.1,0-0.1-0.1l0-0.1c0-0.4,0-0.5,0-0.6c0-0.3,0-0.5-0.3-0.6c-0.2-0.1-0.4-0.1-0.8-0.1c-0.1,0-0.4,0-0.4,0
			c-0.2,0-0.2,0-0.2,0.2L51.1,206.1z"/>
	</g>
	<g>
		<path d="M55.4,207.1c0,0.1,0,0.2,0.2,0.2c0.1,0,0.2,0,0.3,0H56c0.1,0,0.2,0,0.2,0.1c0,0.1,0,0.1-0.1,0.1c-0.1,0-0.3,0-0.4,0
			c-0.1,0-0.3,0-0.4,0c-0.1,0-0.3,0-0.5,0c-0.1,0-0.3,0-0.4,0c-0.1,0-0.1,0-0.1-0.1c0-0.1,0.1-0.1,0.2-0.1h0.1c0.2,0,0.2,0,0.4,0
			c0.1,0,0.2,0,0.2-0.2v-1.4c-0.3,0.1-0.6,0.1-0.6,0.1c-0.1,0-0.2,0-0.2-0.1c0-0.1,0-0.1,0.2-0.1c0.5,0,0.8-0.1,0.9-0.2
			c0.1,0,0.1,0,0.1,0c0.1,0,0.1,0.1,0.1,0.2V207.1z"/>
	</g>
	<g>
		<path d="M3.4,201.3v-0.6H6v0.6H3.4z"/>
	</g>
	<g>
		<path d="M11.6,198.4c-0.2,0.6-0.2,0.9-0.5,0.9c-0.2,0-0.2-0.1-0.2-0.2c0,0,0-0.1,0-0.1c0,0,0.1-0.2,0.1-0.3c0.2-0.4,0.6-1.2,0.8-2
			h-0.4c-0.2,0-0.6,0-0.9,0.5c0,0.1,0,0.1-0.1,0.1c0,0-0.1,0-0.1-0.1c0-0.1,0.3-0.4,0.5-0.6c0.3-0.3,0.5-0.4,0.8-0.4h2.6
			c0.1,0,0.3,0,0.3,0.2c0,0,0,0.1-0.1,0.2c-0.1,0.1-0.1,0.1-0.3,0.1h-0.9c-0.1,0.5-0.1,0.8-0.1,0.9c0,0.6,0.1,1,0.3,1.2
			c0,0.1,0.1,0.1,0.1,0.2c0,0.2-0.2,0.3-0.3,0.3c-0.1,0-0.2,0-0.3-0.4c0-0.2-0.1-0.3-0.1-0.6c0-0.6,0.2-1.2,0.3-1.6H12L11.6,198.4z"
			/>
	</g>
	<polyline points="7.7,201 17,201 17,200.5 7.7,200.5 	"/>
	<g>
		<path d="M10.2,206.1c0,0.1,0,0.1,0,0.2c0,0.1,0,0.1,0.3,0.1c0.1,0,0.3,0,0.4,0c0.2,0,0.3,0,0.3,0.1c0,0.2-0.1,0.2-0.2,0.2
			c-0.2,0-0.4,0-0.6,0c-0.2,0-0.4,0-0.6,0s-0.4,0-0.6,0s-0.4,0-0.6,0c-0.1,0-0.1-0.1-0.1-0.1c0-0.2,0.1-0.2,0.3-0.2
			c0.7,0,0.8-0.1,0.8-0.3l0.9-3.7c0-0.1,0-0.1,0-0.1c0-0.1,0-0.1-0.2-0.1H10c-1.1,0-1.3,0.1-1.7,1.2c0,0.1-0.1,0.2-0.1,0.2
			c-0.1,0-0.1-0.1-0.1-0.1c0,0,0-0.1,0-0.1l0.4-1.2c0-0.1,0.1-0.1,0.2-0.1H13c0.1,0,0.2,0,0.2,0.1l-0.2,1.3c0,0.1,0,0.2-0.1,0.2
			c-0.1,0-0.1,0-0.1-0.1l0-0.1c0-0.4,0-0.5,0-0.6c0-0.3,0-0.5-0.3-0.6c-0.2-0.1-0.4-0.1-0.8-0.1c-0.1,0-0.4,0-0.4,0
			c-0.2,0-0.2,0-0.2,0.2L10.2,206.1z"/>
	</g>
	<g>
		<path d="M14.5,207.1c0,0.1,0,0.2,0.2,0.2c0.1,0,0.2,0,0.3,0h0.1c0.1,0,0.2,0,0.2,0.1c0,0.1,0,0.1-0.1,0.1c-0.1,0-0.3,0-0.4,0
			c-0.1,0-0.3,0-0.4,0c-0.1,0-0.3,0-0.5,0c-0.1,0-0.3,0-0.4,0c-0.1,0-0.1,0-0.1-0.1c0-0.1,0.1-0.1,0.2-0.1h0.1c0.2,0,0.2,0,0.4,0
			c0.1,0,0.2,0,0.2-0.2v-1.4c-0.3,0.1-0.6,0.1-0.6,0.1c-0.1,0-0.2,0-0.2-0.1c0-0.1,0-0.1,0.2-0.1c0.5,0,0.8-0.1,0.9-0.2
			c0.1,0,0.1,0,0.1,0c0.1,0,0.1,0.1,0.1,0.2V207.1z"/>
	</g>
	<g>
		<path d="M6.2,216.4v-0.6h2.6v0.6H6.2z"/>
	</g>
	<g>
		<path d="M11.5,216.7c-0.1,0.5-0.1,0.5-0.3,1c-0.1,0.4-0.2,0.6-0.5,0.6c-0.1,0-0.3-0.1-0.3-0.3c0-0.1,0-0.1,0.1-0.2
			c0.4-0.9,1-2.1,1.3-3.3h-0.6c-0.2,0-0.8,0-1.3,0.8c-0.1,0.1-0.1,0.1-0.2,0.1c-0.1,0-0.1-0.1-0.1-0.1c0,0,0.3-0.5,0.6-0.9
			c0.4-0.5,0.8-0.5,1-0.5h3.3c0.2,0,0.4,0,0.4,0.2c0,0.3-0.4,0.3-0.5,0.3h-1.1c-0.1,0.5-0.2,1.1-0.2,1.6c0,0.3,0,0.9,0.3,1.6
			c0.1,0.1,0.1,0.2,0.1,0.2c0,0.2-0.2,0.4-0.4,0.4c-0.1,0-0.3-0.1-0.4-0.5c-0.1-0.3-0.1-0.6-0.1-0.8c0-0.7,0.1-1.1,0.4-2.6H12
			L11.5,216.7z"/>
	</g>
	<path class="st5" d="M53.1,191.3l7.1-3.5 M10.6,191.3l-7.1-3.5"/>
	<g>
		<path d="M194.3,197.9c-0.2,0.6-0.2,0.9-0.5,0.9c-0.2,0-0.2-0.1-0.2-0.2c0,0,0-0.1,0-0.1c0,0,0.1-0.2,0.1-0.3
			c0.2-0.4,0.6-1.2,0.8-2H194c-0.2,0-0.6,0-0.9,0.5c0,0.1,0,0.1-0.1,0.1c0,0-0.1,0-0.1-0.1c0-0.1,0.3-0.4,0.5-0.6
			c0.3-0.3,0.5-0.4,0.8-0.4h2.6c0.1,0,0.3,0,0.3,0.2c0,0,0,0.1-0.1,0.2c-0.1,0.1-0.1,0.1-0.3,0.1h-0.9c-0.1,0.5-0.1,0.8-0.1,0.9
			c0,0.6,0.1,1,0.3,1.2c0,0.1,0.1,0.1,0.1,0.2c0,0.2-0.2,0.3-0.3,0.3c-0.1,0-0.2,0-0.3-0.4c0-0.2-0.1-0.3-0.1-0.6
			c0-0.6,0.2-1.2,0.3-1.6h-0.8L194.3,197.9z"/>
	</g>
	<polyline points="190.4,200.5 199.5,200.5 199.5,200 190.4,200 	"/>
	<g>
		<path d="M192.8,205.6c0,0.1,0,0.1,0,0.2c0,0.1,0,0.1,0.3,0.1c0.1,0,0.3,0,0.4,0c0.2,0,0.3,0,0.3,0.1c0,0.2-0.1,0.2-0.2,0.2
			c-0.2,0-0.4,0-0.6,0c-0.2,0-0.4,0-0.6,0s-0.4,0-0.6,0s-0.4,0-0.6,0c-0.1,0-0.1-0.1-0.1-0.1c0-0.2,0.1-0.2,0.3-0.2
			c0.7,0,0.8-0.1,0.8-0.3l0.9-3.7c0-0.1,0-0.1,0-0.1c0-0.1,0-0.1-0.2-0.1h-0.3c-1.1,0-1.3,0.1-1.7,1.2c0,0.1-0.1,0.2-0.1,0.2
			c-0.1,0-0.1-0.1-0.1-0.1c0,0,0-0.1,0-0.1l0.4-1.2c0-0.1,0.1-0.1,0.2-0.1h4.3c0.1,0,0.2,0,0.2,0.1l-0.2,1.3c0,0.1,0,0.2-0.1,0.2
			c-0.1,0-0.1,0-0.1-0.1l0-0.1c0-0.4,0-0.5,0-0.6c0-0.3,0-0.5-0.3-0.6c-0.2-0.1-0.4-0.1-0.8-0.1c-0.1,0-0.4,0-0.4,0
			c-0.2,0-0.2,0-0.2,0.2L192.8,205.6z"/>
	</g>
	<g>
		<path d="M197.4,206.7c0.2,0,0.2,0,0.4,0c0.1,0,0.1,0,0.2-0.2c0-0.1,0-0.1,0.1-0.1c0,0,0.1,0,0.1,0.1c0,0-0.2,0.6-0.2,0.6
			c0,0-0.1,0-0.1,0h-2c-0.1,0-0.2,0-0.2-0.1c0-0.1,0-0.1,0.1-0.1l1.3-0.6c0.4-0.2,0.7-0.3,0.7-0.7c0-0.5-0.6-0.5-1-0.5
			c-0.2,0-0.5,0-0.7,0.2c0,0,0.1,0.1,0.1,0.2c0,0.2-0.1,0.2-0.2,0.2c-0.1,0-0.2-0.1-0.2-0.2c0-0.6,0.9-0.6,1.1-0.6
			c0.4,0,1.3,0,1.3,0.7c0,0.4-0.4,0.6-0.8,0.7c-0.1,0-0.3,0.1-0.9,0.4v0H197.4z"/>
	</g>
	<g>
		<path class="st1" d="M163,160.5c-0.1,0.1-0.1,0.1-0.1,0.3l-0.3,1.4c0,0.2-0.1,0.6-0.1,0.6c0,0.1,0.1,0.1,0.3,0.2
			c0.2,0,0.4,0,0.4,0c0.2,0,0.3,0,0.3,0.1c0,0.2-0.1,0.2-0.2,0.2c-0.3,0-1,0-1.3,0c-0.3,0-1,0-1.3,0c0,0-0.1,0-0.1-0.1
			c0-0.2,0.1-0.2,0.3-0.2c0.8,0,0.8,0,0.9-0.6c0-0.2,0.4-1.8,0.4-1.8c0,0,0-0.1,0-0.2l-1.2-3.3c-0.1-0.2-0.1-0.3-0.7-0.3
			c-0.1,0-0.2,0-0.2-0.1c0-0.2,0.1-0.2,0.2-0.2c0.2,0,0.9,0,1.1,0c0.3,0,1,0,1.3,0c0,0,0.1,0,0.1,0.1c0,0.2-0.1,0.2-0.2,0.2
			c-0.1,0-0.6,0-0.6,0.2c0,0,0,0,0.1,0.2l1.1,3l2.3-2.7c0,0,0.3-0.3,0.3-0.5c0-0.2-0.3-0.2-0.4-0.2c0,0-0.1,0-0.1-0.1
			c0-0.2,0.1-0.2,0.2-0.2c0.3,0,0.7,0,1,0c0.3,0,0.6,0,0.8,0c0.1,0,0.1,0,0.1,0.1c0,0.2-0.1,0.2-0.2,0.2c-0.7,0-1,0.4-1.3,0.7
			l-0.1,0.1L163,160.5z"/>
	</g>
	<g>
		<path d="M170.6,165.8c-0.1,0-1-0.6-1.6-1.9c-0.5-1.1-0.7-2.3-0.7-3.1c0-0.8,0.1-1.9,0.6-3c0.6-1.3,1.5-1.9,1.6-1.9
			c0.1,0,0.1,0,0.1,0.1c0,0,0,0-0.1,0.2c-1.2,1.2-1.6,3-1.6,4.7c0,1.5,0.3,3.4,1.6,4.7C170.7,165.6,170.7,165.7,170.6,165.8
			C170.7,165.7,170.7,165.8,170.6,165.8z"/>
		<path d="M172.7,162.5c0.2,0.4,0.6,0.7,1.1,0.7c0.1,0,1,0,1.3-1c0-0.1,0-0.1,0.1-0.1c0,0,0.1,0,0.1,0.1c0,0.2-0.4,1.3-1.7,1.3
			c-1.1,0-2.2-1-2.2-2.3c0-1.2,0.9-2.3,2.1-2.3c1.2,0,1.8,1,1.8,2c0,0.2,0,0.2-0.2,0.2h-2.8C172.4,161.3,172.4,162,172.7,162.5z
			 M174.8,160.8c0-0.4-0.1-1.7-1.1-1.7c-0.3,0-1.2,0.3-1.2,1.7H174.8z"/>
	</g>
	<g>
		<path d="M177.9,160.2c0,0.9-0.6,1.5-1.4,1.5c-0.6,0-1.1-0.3-1.1-0.8c0-0.3,0.2-0.5,0.5-0.5c0.3,0,0.5,0.2,0.5,0.5
			c0,0.3-0.2,0.4-0.3,0.4c0.3,0.1,0.5,0.1,0.5,0.1c0.6,0,0.7-0.9,0.7-1.3v-3.9c0-0.5-0.1-0.6-0.9-0.6v-0.3l1.5-0.1V160.2z
			 M177.4,154.1c-0.3,0-0.5-0.2-0.5-0.5s0.2-0.5,0.5-0.5s0.5,0.2,0.5,0.5S177.7,154.1,177.4,154.1z"/>
	</g>
	<g>
		<path d="M181.9,159.7c-0.4,0-0.8-0.3-0.9-0.7c-0.3,0.4-0.7,0.7-1.1,0.7c-0.6,0-0.9-0.6-0.9-1.1c0-0.5,0.2-1.1,0.4-1.5
			c0.1-0.1,0.2-0.3,0.3-0.4c0-0.1,0.1-0.1,0.2-0.1c0.1,0,0.1,0.1,0.1,0.2c0,0.1-0.7,0.8-0.7,1.6c0,0.5,0.3,0.8,0.7,0.8
			c0.5,0,0.8-0.3,1-0.6c0-0.2,0-1,0.4-1c0.1,0,0.2,0.1,0.2,0.2c0,0.2-0.2,0.7-0.3,0.8c0.1,0.3,0.4,0.5,0.7,0.5c0.8,0,1.2-1,1.2-1.5
			c0-0.5-0.4-0.5-0.4-0.8c0-0.2,0.2-0.4,0.4-0.4c0.3,0,0.4,0.3,0.4,0.5C183.6,157.7,183.2,159.7,181.9,159.7z"/>
		<path d="M186.6,159.1c0,0.1,0,0.1,0,0.2c0,0.1,0,0.1,0.3,0.1c0.1,0,0.3,0,0.4,0c0.2,0,0.3,0,0.3,0.1c0,0.2-0.1,0.2-0.2,0.2
			c-0.2,0-0.4,0-0.6,0c-0.2,0-0.4,0-0.6,0s-0.4,0-0.6,0s-0.4,0-0.6,0c-0.1,0-0.1-0.1-0.1-0.1c0-0.2,0.1-0.2,0.3-0.2
			c0.7,0,0.8-0.1,0.8-0.3l0.9-3.7c0-0.1,0-0.1,0-0.1c0-0.1,0-0.1-0.2-0.1h-0.3c-1.1,0-1.3,0.1-1.7,1.2c0,0.1-0.1,0.2-0.1,0.2
			c-0.1,0-0.1-0.1-0.1-0.1c0,0,0-0.1,0-0.1l0.4-1.2c0-0.1,0.1-0.1,0.2-0.1h4.3c0.1,0,0.2,0,0.2,0.1l-0.2,1.3c0,0.1,0,0.2-0.1,0.2
			c-0.1,0-0.1,0-0.1-0.1l0-0.1c0-0.4,0-0.5,0-0.6c0-0.3,0-0.5-0.3-0.6c-0.2-0.1-0.4-0.1-0.8-0.1c-0.1,0-0.4,0-0.4,0
			c-0.2,0-0.2,0-0.2,0.2L186.6,159.1z"/>
	</g>
	<g>
		<path d="M191.1,160.2c0.2,0,0.2,0,0.4,0c0.1,0,0.1,0,0.2-0.2c0-0.1,0-0.1,0.1-0.1c0,0,0.1,0,0.1,0.1c0,0-0.2,0.6-0.2,0.6
			c0,0-0.1,0-0.1,0h-2c-0.1,0-0.2,0-0.2-0.1c0-0.1,0-0.1,0.1-0.1l1.3-0.6c0.4-0.2,0.7-0.3,0.7-0.7c0-0.5-0.6-0.5-1-0.5
			c-0.2,0-0.5,0-0.7,0.2c0,0,0.1,0.1,0.1,0.2c0,0.2-0.1,0.2-0.2,0.2c-0.1,0-0.2-0.1-0.2-0.2c0-0.6,0.9-0.6,1.1-0.6
			c0.4,0,1.3,0,1.3,0.7c0,0.4-0.4,0.6-0.8,0.7c-0.1,0-0.3,0.1-0.9,0.4v0H191.1z"/>
	</g>
	<g>
		<path d="M195.8,163.8c-0.6,1.3-1.5,1.9-1.6,1.9c-0.1,0-0.1,0-0.1-0.1c0,0,0,0,0.1-0.2c1.2-1.3,1.6-3,1.6-4.7
			c0-2.1-0.6-3.7-1.5-4.7c-0.2-0.2-0.2-0.2-0.2-0.2c0-0.1,0-0.1,0.1-0.1c0.1,0,1,0.6,1.6,1.9c0.5,1.1,0.7,2.3,0.7,3.1
			C196.5,161.6,196.4,162.7,195.8,163.8z"/>
	</g>
	<g>
		<path d="M198.6,165.2c0,0-0.1,0-0.1-0.1c0,0,0,0,0.1-0.2c0.3-0.3,0.7-0.9,0.7-1.7c0-0.1,0-0.1,0-0.1c0,0,0,0,0,0
			c-0.1,0.1-0.2,0.1-0.3,0.1c-0.3,0-0.5-0.3-0.5-0.5c0-0.3,0.2-0.5,0.5-0.5c0.4,0,0.6,0.4,0.6,1
			C199.5,164.4,198.7,165.2,198.6,165.2z"/>
	</g>
	<g>
		<path class="st1" d="M205.4,160.5c-0.1,0.1-0.1,0.1-0.1,0.3l-0.3,1.4c0,0.2-0.1,0.6-0.1,0.6c0,0.1,0.1,0.1,0.3,0.2
			c0.2,0,0.4,0,0.4,0c0.2,0,0.3,0,0.3,0.1c0,0.2-0.1,0.2-0.2,0.2c-0.3,0-1,0-1.3,0s-1,0-1.3,0c0,0-0.1,0-0.1-0.1
			c0-0.2,0.1-0.2,0.3-0.2c0.8,0,0.8,0,0.9-0.6c0-0.2,0.4-1.8,0.4-1.8c0,0,0-0.1,0-0.2l-1.2-3.3c-0.1-0.2-0.1-0.3-0.7-0.3
			c-0.1,0-0.2,0-0.2-0.1c0-0.2,0.1-0.2,0.2-0.2c0.2,0,0.9,0,1.1,0c0.3,0,1,0,1.3,0c0,0,0.1,0,0.1,0.1c0,0.2-0.1,0.2-0.2,0.2
			c-0.1,0-0.6,0-0.6,0.2c0,0,0,0,0.1,0.2l1.1,3l2.3-2.7c0,0,0.3-0.3,0.3-0.5c0-0.2-0.3-0.2-0.4-0.2c0,0-0.1,0-0.1-0.1
			c0-0.2,0.1-0.2,0.2-0.2c0.3,0,0.7,0,1,0c0.3,0,0.6,0,0.8,0c0.1,0,0.1,0,0.1,0.1c0,0.2-0.1,0.2-0.2,0.2c-0.7,0-1,0.4-1.3,0.7
			l-0.1,0.1L205.4,160.5z"/>
	</g>
	<g>
		<path d="M213.1,165.8c-0.1,0-1-0.6-1.6-1.9c-0.5-1.1-0.7-2.3-0.7-3.1c0-0.8,0.1-1.9,0.6-3c0.6-1.3,1.5-1.9,1.6-1.9
			c0.1,0,0.1,0,0.1,0.1c0,0,0,0-0.1,0.2c-1.2,1.2-1.6,3-1.6,4.7c0,1.5,0.3,3.4,1.6,4.7C213.2,165.6,213.2,165.7,213.1,165.8
			C213.2,165.7,213.2,165.8,213.1,165.8z"/>
		<path d="M215.2,162.5c0.2,0.4,0.6,0.7,1.1,0.7c0.1,0,1,0,1.3-1c0-0.1,0-0.1,0.1-0.1c0,0,0.1,0,0.1,0.1c0,0.2-0.4,1.3-1.7,1.3
			c-1.1,0-2.2-1-2.2-2.3c0-1.2,0.9-2.3,2.1-2.3c1.2,0,1.8,1,1.8,2c0,0.2,0,0.2-0.2,0.2h-2.8C214.9,161.3,214.9,162,215.2,162.5z
			 M217.2,160.8c0-0.4-0.1-1.7-1.1-1.7c-0.3,0-1.2,0.3-1.2,1.7H217.2z"/>
	</g>
	<g>
		<path d="M220.3,160.2c0,0.9-0.6,1.5-1.4,1.5c-0.6,0-1.1-0.3-1.1-0.8c0-0.3,0.2-0.5,0.5-0.5c0.3,0,0.5,0.2,0.5,0.5
			c0,0.3-0.2,0.4-0.3,0.4c0.3,0.1,0.5,0.1,0.5,0.1c0.6,0,0.7-0.9,0.7-1.3v-3.9c0-0.5-0.1-0.6-0.9-0.6v-0.3l1.5-0.1V160.2z
			 M219.8,154.1c-0.3,0-0.5-0.2-0.5-0.5s0.2-0.5,0.5-0.5s0.5,0.2,0.5,0.5S220.1,154.1,219.8,154.1z"/>
	</g>
	<g>
		<path d="M222.7,159.8c-0.6,0-1-0.7-1-1.5c0-1.6,1.1-3.5,2.2-3.5c0.7,0,1,0.8,1,1.5C224.9,157.9,223.8,159.8,222.7,159.8z
			 M222.5,157.4c-0.1,0.3-0.2,0.8-0.2,1.3c0,0.4,0.1,0.9,0.4,0.9c0.3,0,0.6-0.3,0.8-0.7c0.2-0.3,0.4-0.7,0.6-1.5H222.5z
			 M224.2,157.1c0.1-0.6,0.2-1,0.2-1.3c0-0.1,0-0.9-0.4-0.9c-0.4,0-1,0.7-1.4,2.2H224.2z"/>
	</g>
	<g>
		<path d="M228,163.8c-0.6,1.3-1.5,1.9-1.6,1.9c-0.1,0-0.1,0-0.1-0.1c0,0,0,0,0.1-0.2c1.2-1.3,1.6-3,1.6-4.7c0-2.1-0.6-3.7-1.5-4.7
			c-0.2-0.2-0.2-0.2-0.2-0.2c0-0.1,0-0.1,0.1-0.1c0.1,0,1,0.6,1.6,1.9c0.5,1.1,0.7,2.3,0.7,3.1C228.6,161.6,228.5,162.7,228,163.8z"
			/>
	</g>
	<line class="st2" x1="152.4" y1="177.2" x2="131.1" y2="191.3"/>
	<polyline points="154.6,160.4 152.4,155.9 150.1,160.4 152.4,159.3 	"/>
	<line class="st0" x1="152.4" y1="194.9" x2="152.4" y2="159.3"/>
	<polyline points="197.4,193.6 202,191.3 197.4,189.1 198.6,191.3 	"/>
	<line class="st0" x1="106.3" y1="191.3" x2="198.6" y2="191.3"/>
	<g>
		<path d="M194,216.7c-0.1,0.5-0.1,0.5-0.3,1c-0.1,0.4-0.2,0.6-0.5,0.6c-0.1,0-0.3-0.1-0.3-0.3c0-0.1,0-0.1,0.1-0.2
			c0.4-0.9,1-2.1,1.3-3.3h-0.6c-0.2,0-0.8,0-1.3,0.8c-0.1,0.1-0.1,0.1-0.2,0.1c-0.1,0-0.1-0.1-0.1-0.1c0,0,0.3-0.5,0.6-0.9
			c0.4-0.5,0.8-0.5,1-0.5h3.3c0.2,0,0.4,0,0.4,0.2c0,0.3-0.4,0.3-0.5,0.3h-1.1c-0.1,0.5-0.2,1.1-0.2,1.6c0,0.3,0,0.9,0.3,1.6
			c0.1,0.1,0.1,0.2,0.1,0.2c0,0.2-0.2,0.4-0.4,0.4c-0.1,0-0.3-0.1-0.4-0.5c-0.1-0.3-0.1-0.6-0.1-0.8c0-0.7,0.1-1.1,0.4-2.6h-1.1
			L194,216.7z"/>
	</g>
	<g>
		<path d="M218.3,202.8c-0.4,0.7-0.8,1.4-1.6,1.4c-0.6,0-1-0.5-1.1-1c-0.4,0.5-0.8,1-1.5,1c-0.8,0-1-0.7-1-1.4
			c0-0.9,0.4-2.1,0.9-2.8c0.1-0.1,0.1-0.2,0.3-0.2c0.1,0,0.2,0.1,0.2,0.2c0,0.1-1,1.2-1,2.4c0,0.6,0.2,1.1,0.9,1.1
			c0.6,0,1-0.4,1.4-0.9c0-0.4,0.1-1,0.2-1.2c0.1-0.1,0.2-0.2,0.3-0.2c0.1,0,0.2,0.1,0.2,0.2c0,0.3-0.2,0.9-0.3,1.2
			c0.1,0.5,0.4,0.9,1,0.9c0.5,0,0.8-0.3,1.1-0.8c0.3-0.5,0.5-1,0.5-1.4c0-0.4-0.2-0.7-0.3-0.8c-0.1-0.1-0.1-0.2-0.1-0.3
			c0-0.2,0.3-0.5,0.5-0.5c0.2,0,0.4,0.2,0.4,0.7C218.9,201,218.6,202.4,218.3,202.8z"/>
	</g>
	<g>
		<path d="M215.2,219.7c-0.9,0-1.2-1.1-1.2-2c0-2.3,1.5-5.1,2.9-5.1c1,0,1.2,1.4,1.2,2C218.2,216.8,216.7,219.7,215.2,219.7z
			 M215,216.3c-0.3,1-0.3,1.6-0.3,2c0,0.9,0.2,1.2,0.5,1.2c0.4,0,0.8-0.5,1.2-1.2c0.4-0.7,0.6-1.6,0.7-2H215z M217.2,216
			c0.2-1,0.3-1.5,0.3-2c0-0.6-0.1-1.2-0.5-1.2c-0.4,0-0.8,0.6-1.1,1c-0.4,0.7-0.6,1.5-0.8,2.1H217.2z"/>
	</g>
	<path class="st0" d="M194.9,187.8v7.1 M109.8,187.8v7.1"/>
	<g>
		<path d="M145.8,172.5c0,0.4,0,0.5,0.9,0.5h0.3v0.3c-0.3,0-1.2,0-1.6,0c-0.4,0-1.3,0-1.6,0v-0.3h0.3c0.9,0,0.9-0.1,0.9-0.5v-5.2
			c-0.5,0.3-1.1,0.3-1.3,0.3v-0.3c0.3,0,1.2,0,1.8-0.6c0.2,0,0.2,0,0.2,0.3V172.5z"/>
	</g>
	<g>
		<path d="M105.3,216.4v-0.6h2.6v0.6H105.3z"/>
	</g>
	<g>
		<path d="M110.6,216.7c-0.1,0.5-0.1,0.5-0.3,1c-0.1,0.4-0.2,0.6-0.5,0.6c-0.1,0-0.3-0.1-0.3-0.3c0-0.1,0-0.1,0.1-0.2
			c0.4-0.9,1-2.1,1.3-3.3h-0.6c-0.2,0-0.8,0-1.3,0.8c-0.1,0.1-0.1,0.1-0.2,0.1c-0.1,0-0.1-0.1-0.1-0.1c0,0,0.3-0.5,0.6-0.9
			c0.4-0.5,0.8-0.5,1-0.5h3.3c0.2,0,0.4,0,0.4,0.2c0,0.3-0.4,0.3-0.5,0.3h-1.1c-0.1,0.5-0.2,1.1-0.2,1.6c0,0.3,0,0.9,0.3,1.6
			c0.1,0.1,0.1,0.2,0.1,0.2c0,0.2-0.2,0.4-0.4,0.4c-0.1,0-0.3-0.1-0.4-0.5c-0.1-0.3-0.1-0.6-0.1-0.8c0-0.7,0.1-1.1,0.4-2.6h-1.1
			L110.6,216.7z"/>
	</g>
	<g>
		<path d="M102.6,200.8v-0.6h2.6v0.6H102.6z"/>
	</g>
	<g>
		<path d="M110.9,197.9c-0.2,0.6-0.2,0.9-0.5,0.9c-0.2,0-0.2-0.1-0.2-0.2c0,0,0-0.1,0-0.1c0,0,0.1-0.2,0.1-0.3
			c0.2-0.4,0.6-1.2,0.8-2h-0.4c-0.2,0-0.6,0-0.9,0.5c0,0.1,0,0.1-0.1,0.1c0,0-0.1,0-0.1-0.1c0-0.1,0.3-0.4,0.5-0.6
			c0.3-0.3,0.5-0.4,0.8-0.4h2.6c0.1,0,0.3,0,0.3,0.2c0,0,0,0.1-0.1,0.2c-0.1,0.1-0.1,0.1-0.3,0.1h-0.9c-0.1,0.5-0.1,0.8-0.1,0.9
			c0,0.6,0.1,1,0.3,1.2c0,0.1,0.1,0.1,0.1,0.2c0,0.2-0.2,0.3-0.3,0.3c-0.1,0-0.2,0-0.3-0.4c0-0.2-0.1-0.3-0.1-0.6
			c0-0.6,0.2-1.2,0.3-1.6h-0.8L110.9,197.9z"/>
	</g>
	<polyline points="107.1,200.5 116.2,200.5 116.2,200 107.1,200 	"/>
	<g>
		<path d="M109.5,205.6c0,0.1,0,0.1,0,0.2c0,0.1,0,0.1,0.3,0.1c0.1,0,0.3,0,0.4,0c0.2,0,0.3,0,0.3,0.1c0,0.2-0.1,0.2-0.2,0.2
			c-0.2,0-0.4,0-0.6,0c-0.2,0-0.4,0-0.6,0s-0.4,0-0.6,0s-0.4,0-0.6,0c-0.1,0-0.1-0.1-0.1-0.1c0-0.2,0.1-0.2,0.3-0.2
			c0.7,0,0.8-0.1,0.8-0.3l0.9-3.7c0-0.1,0-0.1,0-0.1c0-0.1,0-0.1-0.2-0.1h-0.3c-1.1,0-1.3,0.1-1.7,1.2c0,0.1-0.1,0.2-0.1,0.2
			c-0.1,0-0.1-0.1-0.1-0.1c0,0,0-0.1,0-0.1l0.4-1.2c0-0.1,0.1-0.1,0.2-0.1h4.3c0.1,0,0.2,0,0.2,0.1l-0.2,1.3c0,0.1,0,0.2-0.1,0.2
			c-0.1,0-0.1,0-0.1-0.1l0-0.1c0-0.4,0-0.5,0-0.6c0-0.3,0-0.5-0.3-0.6c-0.2-0.1-0.4-0.1-0.8-0.1c-0.1,0-0.4,0-0.4,0
			c-0.2,0-0.2,0-0.2,0.2L109.5,205.6z"/>
	</g>
	<g>
		<path d="M114.1,206.7c0.2,0,0.2,0,0.4,0c0.1,0,0.1,0,0.2-0.2c0-0.1,0-0.1,0.1-0.1c0,0,0.1,0,0.1,0.1c0,0-0.2,0.6-0.2,0.6
			c0,0-0.1,0-0.1,0h-2c-0.1,0-0.2,0-0.2-0.1c0-0.1,0-0.1,0.1-0.1l1.3-0.6c0.4-0.2,0.7-0.3,0.7-0.7c0-0.5-0.6-0.5-1-0.5
			c-0.2,0-0.5,0-0.7,0.2c0,0,0.1,0.1,0.1,0.2c0,0.2-0.1,0.2-0.2,0.2c-0.1,0-0.2-0.1-0.2-0.2c0-0.6,0.9-0.6,1.1-0.6
			c0.4,0,1.3,0,1.3,0.7c0,0.4-0.4,0.6-0.8,0.7c-0.1,0-0.3,0.1-0.9,0.4v0H114.1z"/>
	</g>
	<line class="st2" x1="152.4" y1="177.2" x2="173.6" y2="191.3"/>
	<line class="st0" x1="148.8" y1="177.2" x2="155.9" y2="177.2"/>
	<path class="st9" d="M131.1,184.3v7.1 M173.6,184.3v7.1"/>
	<path class="st0" d="M131.1,187.8v7.1 M173.6,187.8v7.1"/>
	<g>
		<path d="M172.9,213.1c-0.2,0.6-0.2,0.9-0.5,0.9c-0.2,0-0.2-0.1-0.2-0.2c0,0,0-0.1,0-0.1c0,0,0.1-0.2,0.1-0.3
			c0.2-0.4,0.6-1.2,0.8-2h-0.4c-0.2,0-0.6,0-0.9,0.5c0,0.1,0,0.1-0.1,0.1c0,0-0.1,0-0.1-0.1c0-0.1,0.3-0.4,0.5-0.6
			c0.3-0.3,0.5-0.4,0.8-0.4h2.6c0.1,0,0.3,0,0.3,0.2c0,0,0,0.1-0.1,0.2c-0.1,0.1-0.1,0.1-0.3,0.1h-0.9c-0.1,0.5-0.1,0.8-0.1,0.9
			c0,0.6,0.1,1,0.3,1.2c0,0.1,0.1,0.1,0.1,0.2c0,0.2-0.2,0.3-0.3,0.3c-0.1,0-0.2,0-0.3-0.4c0-0.2-0.1-0.3-0.1-0.6
			c0-0.6,0.2-1.2,0.3-1.6h-0.8L172.9,213.1z"/>
	</g>
	<polyline points="170.9,215.6 176.4,215.6 176.4,215.1 170.9,215.1 	"/>
	<g>
		<path d="M172.9,220.8c0,0.1,0,0.1,0,0.1c0,0.1,0,0.1,0.2,0.1h0.8c1.3,0,1.6-0.8,1.8-1.4c0-0.1,0.1-0.1,0.1-0.1
			c0.1,0,0.1,0.1,0.1,0.1c0,0.1-0.5,1.4-0.6,1.6c-0.1,0.1-0.1,0.1-0.2,0.1h-3.5c-0.1,0-0.2,0-0.2-0.1c0-0.1,0.1-0.1,0.2-0.1
			c0.5,0,0.6-0.1,0.6-0.3l0.9-3.7c0-0.1,0-0.1,0-0.2c0-0.1,0-0.1-0.2-0.1c-0.1,0-0.3,0-0.3,0c-0.1,0-0.2,0-0.2-0.1
			c0-0.2,0.1-0.2,0.1-0.2c0.1,0,0.3,0,0.5,0s0.3,0,0.5,0c0.2,0,0.4,0,0.6,0c0.2,0,0.4,0,0.5,0c0.1,0,0.1,0.1,0.1,0.1
			c0,0.2-0.1,0.2-0.3,0.2c-0.6,0-0.7,0.1-0.7,0.3L172.9,220.8z"/>
	</g>
	<g>
		<path d="M172.9,198.4c-0.2,0.6-0.2,0.9-0.5,0.9c-0.2,0-0.2-0.1-0.2-0.2c0,0,0-0.1,0-0.1c0,0,0.1-0.2,0.1-0.3
			c0.2-0.4,0.6-1.2,0.8-2h-0.4c-0.2,0-0.6,0-0.9,0.5c0,0.1,0,0.1-0.1,0.1c0,0-0.1,0-0.1-0.1c0-0.1,0.3-0.4,0.5-0.6
			c0.3-0.3,0.5-0.4,0.8-0.4h2.6c0.1,0,0.3,0,0.3,0.2c0,0,0,0.1-0.1,0.2c-0.1,0.1-0.1,0.1-0.3,0.1h-0.9c-0.1,0.5-0.1,0.8-0.1,0.9
			c0,0.6,0.1,1,0.3,1.2c0,0.1,0.1,0.1,0.1,0.2c0,0.2-0.2,0.3-0.3,0.3c-0.1,0-0.2,0-0.3-0.4c0-0.2-0.1-0.3-0.1-0.6
			c0-0.6,0.2-1.2,0.3-1.6h-0.8L172.9,198.4z"/>
	</g>
	<polyline points="169.1,201 178.4,201 178.4,200.5 169.1,200.5 	"/>
	<g>
		<path d="M171.6,206.1c0,0.1,0,0.1,0,0.2c0,0.1,0,0.1,0.3,0.1c0.1,0,0.3,0,0.4,0c0.2,0,0.3,0,0.3,0.1c0,0.2-0.1,0.2-0.2,0.2
			c-0.2,0-0.4,0-0.6,0c-0.2,0-0.4,0-0.6,0s-0.4,0-0.6,0s-0.4,0-0.6,0c-0.1,0-0.1-0.1-0.1-0.1c0-0.2,0.1-0.2,0.3-0.2
			c0.7,0,0.8-0.1,0.8-0.3l0.9-3.7c0-0.1,0-0.1,0-0.1c0-0.1,0-0.1-0.2-0.1h-0.3c-1.1,0-1.3,0.1-1.7,1.2c0,0.1-0.1,0.2-0.1,0.2
			c-0.1,0-0.1-0.1-0.1-0.1c0,0,0-0.1,0-0.1l0.4-1.2c0-0.1,0.1-0.1,0.2-0.1h4.3c0.1,0,0.2,0,0.2,0.1l-0.2,1.3c0,0.1,0,0.2-0.1,0.2
			c-0.1,0-0.1,0-0.1-0.1l0-0.1c0-0.4,0-0.5,0-0.6c0-0.3,0-0.5-0.3-0.6c-0.2-0.1-0.4-0.1-0.8-0.1c-0.1,0-0.4,0-0.4,0
			c-0.2,0-0.2,0-0.2,0.2L171.6,206.1z"/>
	</g>
	<g>
		<path d="M175.9,207.1c0,0.1,0,0.2,0.2,0.2c0.1,0,0.2,0,0.3,0h0.1c0.1,0,0.2,0,0.2,0.1c0,0.1,0,0.1-0.1,0.1c-0.1,0-0.3,0-0.4,0
			c-0.1,0-0.3,0-0.4,0c-0.1,0-0.3,0-0.5,0c-0.1,0-0.3,0-0.4,0c-0.1,0-0.1,0-0.1-0.1c0-0.1,0.1-0.1,0.2-0.1h0.1c0.2,0,0.2,0,0.4,0
			c0.1,0,0.2,0,0.2-0.2v-1.4c-0.3,0.1-0.6,0.1-0.6,0.1c-0.1,0-0.2,0-0.2-0.1c0-0.1,0-0.1,0.2-0.1c0.5,0,0.8-0.1,0.9-0.2
			c0.1,0,0.1,0,0.1,0c0.1,0,0.1,0.1,0.1,0.2V207.1z"/>
	</g>
	<g>
		<path d="M123.9,201.3v-0.6h2.6v0.6H123.9z"/>
	</g>
	<g>
		<path d="M132.1,198.4c-0.2,0.6-0.2,0.9-0.5,0.9c-0.2,0-0.2-0.1-0.2-0.2c0,0,0-0.1,0-0.1c0,0,0.1-0.2,0.1-0.3
			c0.2-0.4,0.6-1.2,0.8-2h-0.4c-0.2,0-0.6,0-0.9,0.5c0,0.1,0,0.1-0.1,0.1c0,0-0.1,0-0.1-0.1c0-0.1,0.3-0.4,0.5-0.6
			c0.3-0.3,0.5-0.4,0.8-0.4h2.6c0.1,0,0.3,0,0.3,0.2c0,0,0,0.1-0.1,0.2c-0.1,0.1-0.1,0.1-0.3,0.1h-0.9c-0.1,0.5-0.1,0.8-0.1,0.9
			c0,0.6,0.1,1,0.3,1.2c0,0.1,0.1,0.1,0.1,0.2c0,0.2-0.2,0.3-0.3,0.3c-0.1,0-0.2,0-0.3-0.4c0-0.2-0.1-0.3-0.1-0.6
			c0-0.6,0.2-1.2,0.3-1.6h-0.8L132.1,198.4z"/>
	</g>
	<polyline points="128.2,201 137.4,201 137.4,200.5 128.2,200.5 	"/>
	<g>
		<path d="M130.7,206.1c0,0.1,0,0.1,0,0.2c0,0.1,0,0.1,0.3,0.1c0.1,0,0.3,0,0.4,0c0.2,0,0.3,0,0.3,0.1c0,0.2-0.1,0.2-0.2,0.2
			c-0.2,0-0.4,0-0.6,0c-0.2,0-0.4,0-0.6,0s-0.4,0-0.6,0s-0.4,0-0.6,0c-0.1,0-0.1-0.1-0.1-0.1c0-0.2,0.1-0.2,0.3-0.2
			c0.7,0,0.8-0.1,0.8-0.3l0.9-3.7c0-0.1,0-0.1,0-0.1c0-0.1,0-0.1-0.2-0.1h-0.3c-1.1,0-1.3,0.1-1.7,1.2c0,0.1-0.1,0.2-0.1,0.2
			c-0.1,0-0.1-0.1-0.1-0.1c0,0,0-0.1,0-0.1l0.4-1.2c0-0.1,0.1-0.1,0.2-0.1h4.3c0.1,0,0.2,0,0.2,0.1l-0.2,1.3c0,0.1,0,0.2-0.1,0.2
			c-0.1,0-0.1,0-0.1-0.1l0-0.1c0-0.4,0-0.5,0-0.6c0-0.3,0-0.5-0.3-0.6c-0.2-0.1-0.4-0.1-0.8-0.1c-0.1,0-0.4,0-0.4,0
			c-0.2,0-0.2,0-0.2,0.2L130.7,206.1z"/>
	</g>
	<g>
		<path d="M135,207.1c0,0.1,0,0.2,0.2,0.2c0.1,0,0.2,0,0.3,0h0.1c0.1,0,0.2,0,0.2,0.1c0,0.1,0,0.1-0.1,0.1c-0.1,0-0.3,0-0.4,0
			c-0.1,0-0.3,0-0.4,0c-0.1,0-0.3,0-0.5,0c-0.1,0-0.3,0-0.4,0c-0.1,0-0.1,0-0.1-0.1c0-0.1,0.1-0.1,0.2-0.1h0.1c0.2,0,0.2,0,0.4,0
			c0.1,0,0.2,0,0.2-0.2v-1.4c-0.3,0.1-0.6,0.1-0.6,0.1c-0.1,0-0.2,0-0.2-0.1c0-0.1,0-0.1,0.2-0.1c0.5,0,0.8-0.1,0.9-0.2
			c0.1,0,0.1,0,0.1,0c0.1,0,0.1,0.1,0.1,0.2V207.1z"/>
	</g>
	<g>
		<path d="M125.7,216v-0.6h2.6v0.6H125.7z"/>
	</g>
	<g>
		<path d="M132.1,213.1c-0.2,0.6-0.2,0.9-0.5,0.9c-0.2,0-0.2-0.1-0.2-0.2c0,0,0-0.1,0-0.1c0,0,0.1-0.2,0.1-0.3
			c0.2-0.4,0.6-1.2,0.8-2h-0.4c-0.2,0-0.6,0-0.9,0.5c0,0.1,0,0.1-0.1,0.1c0,0-0.1,0-0.1-0.1c0-0.1,0.3-0.4,0.5-0.6
			c0.3-0.3,0.5-0.4,0.8-0.4h2.6c0.1,0,0.3,0,0.3,0.2c0,0,0,0.1-0.1,0.2c-0.1,0.1-0.1,0.1-0.3,0.1h-0.9c-0.1,0.5-0.1,0.8-0.1,0.9
			c0,0.6,0.1,1,0.3,1.2c0,0.1,0.1,0.1,0.1,0.2c0,0.2-0.2,0.3-0.3,0.3c-0.1,0-0.2,0-0.3-0.4c0-0.2-0.1-0.3-0.1-0.6
			c0-0.6,0.2-1.2,0.3-1.6h-0.8L132.1,213.1z"/>
	</g>
	<polyline points="130.1,215.6 135.6,215.6 135.6,215.1 130.1,215.1 	"/>
	<g>
		<path d="M132.1,220.8c0,0.1,0,0.1,0,0.1c0,0.1,0,0.1,0.2,0.1h0.8c1.3,0,1.6-0.8,1.8-1.4c0-0.1,0.1-0.1,0.1-0.1
			c0.1,0,0.1,0.1,0.1,0.1c0,0.1-0.5,1.4-0.6,1.6c-0.1,0.1-0.1,0.1-0.2,0.1h-3.5c-0.1,0-0.2,0-0.2-0.1c0-0.1,0.1-0.1,0.2-0.1
			c0.5,0,0.6-0.1,0.6-0.3l0.9-3.7c0-0.1,0-0.1,0-0.2c0-0.1,0-0.1-0.2-0.1c-0.1,0-0.3,0-0.3,0c-0.1,0-0.2,0-0.2-0.1
			c0-0.2,0.1-0.2,0.1-0.2c0.1,0,0.3,0,0.5,0s0.3,0,0.5,0c0.2,0,0.4,0,0.6,0c0.2,0,0.4,0,0.5,0c0.1,0,0.1,0.1,0.1,0.1
			c0,0.2-0.1,0.2-0.3,0.2c-0.6,0-0.7,0.1-0.7,0.3L132.1,220.8z"/>
	</g>
	<path class="st2" d="M173.6,191.3l21.3-14.2 M131.1,191.3l-21.3-14.2"/>
	<g>
		<path d="M371.4,198.4c-0.2,0.6-0.2,0.9-0.5,0.9c-0.2,0-0.2-0.1-0.2-0.2c0,0,0-0.1,0-0.1c0,0,0.1-0.2,0.1-0.3
			c0.2-0.4,0.6-1.2,0.8-2h-0.4c-0.2,0-0.6,0-0.9,0.5c0,0.1,0,0.1-0.1,0.1c0,0-0.1,0-0.1-0.1c0-0.1,0.3-0.4,0.5-0.6
			c0.3-0.3,0.5-0.4,0.8-0.4h2.6c0.1,0,0.3,0,0.3,0.2c0,0,0,0.1-0.1,0.2c-0.1,0.1-0.1,0.1-0.3,0.1h-0.9c-0.1,0.5-0.1,0.8-0.1,0.9
			c0,0.6,0.1,1,0.3,1.2c0,0.1,0.1,0.1,0.1,0.2c0,0.2-0.2,0.3-0.3,0.3c-0.1,0-0.2,0-0.3-0.4c0-0.2-0.1-0.3-0.1-0.6
			c0-0.6,0.2-1.2,0.3-1.6h-0.8L371.4,198.4z"/>
	</g>
	<polyline points="367.5,201 376.7,201 376.7,200.5 367.5,200.5 	"/>
	<g>
		<path d="M369.9,206.1c0,0.1,0,0.1,0,0.2c0,0.1,0,0.1,0.3,0.1c0.1,0,0.3,0,0.4,0c0.2,0,0.3,0,0.3,0.1c0,0.2-0.1,0.2-0.2,0.2
			c-0.2,0-0.4,0-0.6,0c-0.2,0-0.4,0-0.6,0c-0.2,0-0.4,0-0.6,0s-0.4,0-0.6,0c-0.1,0-0.1-0.1-0.1-0.1c0-0.2,0.1-0.2,0.3-0.2
			c0.7,0,0.8-0.1,0.8-0.3l0.9-3.7c0-0.1,0-0.1,0-0.1c0-0.1,0-0.1-0.2-0.1h-0.3c-1.1,0-1.3,0.1-1.7,1.2c0,0.1-0.1,0.2-0.1,0.2
			c-0.1,0-0.1-0.1-0.1-0.1c0,0,0-0.1,0-0.1l0.4-1.2c0-0.1,0.1-0.1,0.2-0.1h4.3c0.1,0,0.2,0,0.2,0.1l-0.2,1.3c0,0.1,0,0.2-0.1,0.2
			c-0.1,0-0.1,0-0.1-0.1l0-0.1c0-0.4,0-0.5,0-0.6c0-0.3,0-0.5-0.3-0.6c-0.2-0.1-0.4-0.1-0.8-0.1c-0.1,0-0.4,0-0.4,0
			c-0.2,0-0.2,0-0.2,0.2L369.9,206.1z"/>
	</g>
	<g>
		<path d="M374.5,207.1c0.2,0,0.2,0,0.4,0c0.1,0,0.1,0,0.2-0.2c0-0.1,0-0.1,0.1-0.1c0,0,0.1,0,0.1,0.1c0,0-0.2,0.6-0.2,0.6
			c0,0-0.1,0-0.1,0h-2c-0.1,0-0.2,0-0.2-0.1c0-0.1,0-0.1,0.1-0.1l1.3-0.6c0.4-0.2,0.7-0.3,0.7-0.7c0-0.5-0.6-0.5-1-0.5
			c-0.2,0-0.5,0-0.7,0.2c0,0,0.1,0.1,0.1,0.2c0,0.2-0.1,0.2-0.2,0.2c-0.1,0-0.2-0.1-0.2-0.2c0-0.6,0.9-0.6,1.1-0.6
			c0.4,0,1.3,0,1.3,0.7c0,0.4-0.4,0.6-0.8,0.7c-0.1,0-0.3,0.1-0.9,0.4v0H374.5z"/>
	</g>
	<g>
		<path class="st7" d="M341.3,155c-0.2,0-0.3-0.1-0.6-0.2c-0.2-0.1-0.4-0.3-0.6-0.3c-0.4,0-0.8,0.5-0.8,0.5l-0.2-0.1
			c0.5-0.6,0.7-0.8,1.1-0.8c0.2,0,0.3,0.1,0.6,0.2c0.2,0.1,0.4,0.2,0.6,0.2c0.4,0,0.8-0.5,0.8-0.5l0.2,0.1
			C341.8,154.8,341.6,155,341.3,155z"/>
	</g>
	<g>
		<path class="st7" d="M340.1,160.5c-0.1,0.1-0.1,0.1-0.1,0.3l-0.3,1.4c0,0.2-0.1,0.6-0.1,0.6c0,0.1,0.1,0.1,0.3,0.2
			c0.2,0,0.4,0,0.4,0c0.2,0,0.3,0,0.3,0.1c0,0.2-0.1,0.2-0.2,0.2c-0.3,0-1,0-1.3,0s-1,0-1.3,0c0,0-0.1,0-0.1-0.1
			c0-0.2,0.1-0.2,0.3-0.2c0.8,0,0.8,0,0.9-0.6c0-0.2,0.4-1.8,0.4-1.8c0,0,0-0.1,0-0.2l-1.2-3.3c-0.1-0.2-0.1-0.3-0.7-0.3
			c-0.1,0-0.2,0-0.2-0.1c0-0.2,0.1-0.2,0.2-0.2c0.2,0,0.9,0,1.1,0c0.3,0,1,0,1.3,0c0,0,0.1,0,0.1,0.1c0,0.2-0.1,0.2-0.2,0.2
			c-0.1,0-0.6,0-0.6,0.2c0,0,0,0,0.1,0.2l1.1,3l2.3-2.7c0,0,0.3-0.3,0.3-0.5c0-0.2-0.3-0.2-0.4-0.2c0,0-0.1,0-0.1-0.1
			c0-0.2,0.1-0.2,0.2-0.2c0.3,0,0.7,0,1,0c0.3,0,0.6,0,0.8,0c0.1,0,0.1,0,0.1,0.1c0,0.2-0.1,0.2-0.2,0.2c-0.7,0-1,0.4-1.3,0.7
			l-0.1,0.1L340.1,160.5z"/>
	</g>
	<g>
		<path d="M347.9,165.8c-0.1,0-1-0.6-1.6-1.9c-0.5-1.1-0.7-2.3-0.7-3.1c0-0.8,0.1-1.9,0.6-3c0.6-1.3,1.5-1.9,1.6-1.9
			c0.1,0,0.1,0,0.1,0.1c0,0,0,0-0.1,0.2c-1.2,1.2-1.6,3-1.6,4.7c0,1.5,0.3,3.4,1.6,4.7C348,165.6,348,165.7,347.9,165.8
			C348,165.7,347.9,165.8,347.9,165.8z"/>
		<path d="M349.9,162.5c0.2,0.4,0.6,0.7,1.1,0.7c0.1,0,1,0,1.3-1c0-0.1,0-0.1,0.1-0.1c0,0,0.1,0,0.1,0.1c0,0.2-0.4,1.3-1.7,1.3
			c-1.1,0-2.2-1-2.2-2.3c0-1.2,0.9-2.3,2.1-2.3c1.2,0,1.8,1,1.8,2c0,0.2,0,0.2-0.2,0.2h-2.8C349.6,161.3,349.6,162,349.9,162.5z
			 M352,160.8c0-0.4-0.1-1.7-1.1-1.7c-0.3,0-1.2,0.3-1.2,1.7H352z"/>
	</g>
	<g>
		<path d="M355.1,160.2c0,0.9-0.6,1.5-1.4,1.5c-0.6,0-1.1-0.3-1.1-0.8c0-0.3,0.2-0.5,0.5-0.5c0.3,0,0.5,0.2,0.5,0.5
			c0,0.3-0.2,0.4-0.3,0.4c0.3,0.1,0.5,0.1,0.5,0.1c0.6,0,0.7-0.9,0.7-1.3v-3.9c0-0.5-0.1-0.6-0.9-0.6v-0.3l1.5-0.1V160.2z
			 M354.5,154.1c-0.3,0-0.5-0.2-0.5-0.5s0.2-0.5,0.5-0.5s0.5,0.2,0.5,0.5S354.8,154.1,354.5,154.1z"/>
	</g>
	<g>
		<path d="M359.1,159.7c-0.4,0-0.8-0.3-0.9-0.7c-0.3,0.4-0.7,0.7-1.1,0.7c-0.6,0-0.9-0.6-0.9-1.1c0-0.5,0.2-1.1,0.4-1.5
			c0.1-0.1,0.2-0.3,0.3-0.4c0-0.1,0.1-0.1,0.2-0.1c0.1,0,0.1,0.1,0.1,0.2c0,0.1-0.7,0.8-0.7,1.6c0,0.5,0.3,0.8,0.7,0.8
			c0.5,0,0.8-0.3,1-0.6c0-0.2,0-1,0.4-1c0.1,0,0.2,0.1,0.2,0.2c0,0.2-0.2,0.7-0.3,0.8c0.1,0.3,0.4,0.5,0.7,0.5c0.8,0,1.2-1,1.2-1.5
			c0-0.5-0.4-0.5-0.4-0.8c0-0.2,0.2-0.4,0.4-0.4c0.3,0,0.4,0.3,0.4,0.5C360.7,157.7,360.3,159.7,359.1,159.7z"/>
		<path d="M363.7,159.1c0,0.1,0,0.1,0,0.2c0,0.1,0,0.1,0.3,0.1c0.1,0,0.3,0,0.4,0c0.2,0,0.3,0,0.3,0.1c0,0.2-0.1,0.2-0.2,0.2
			c-0.2,0-0.4,0-0.6,0c-0.2,0-0.4,0-0.6,0c-0.2,0-0.4,0-0.6,0s-0.4,0-0.6,0c-0.1,0-0.1-0.1-0.1-0.1c0-0.2,0.1-0.2,0.3-0.2
			c0.7,0,0.8-0.1,0.8-0.3l0.9-3.7c0-0.1,0-0.1,0-0.1c0-0.1,0-0.1-0.2-0.1h-0.3c-1.1,0-1.3,0.1-1.7,1.2c0,0.1-0.1,0.2-0.1,0.2
			c-0.1,0-0.1-0.1-0.1-0.1c0,0,0-0.1,0-0.1l0.4-1.2c0-0.1,0.1-0.1,0.2-0.1h4.3c0.1,0,0.2,0,0.2,0.1l-0.2,1.3c0,0.1,0,0.2-0.1,0.2
			c-0.1,0-0.1,0-0.1-0.1l0-0.1c0-0.4,0-0.5,0-0.6c0-0.3,0-0.5-0.3-0.6c-0.2-0.1-0.4-0.1-0.8-0.1c-0.1,0-0.4,0-0.4,0
			c-0.2,0-0.2,0-0.2,0.2L363.7,159.1z"/>
	</g>
	<g>
		<path d="M368.2,160.2c0.2,0,0.2,0,0.4,0c0.1,0,0.1,0,0.2-0.2c0-0.1,0-0.1,0.1-0.1c0,0,0.1,0,0.1,0.1c0,0-0.2,0.6-0.2,0.6
			c0,0-0.1,0-0.1,0h-2c-0.1,0-0.2,0-0.2-0.1c0-0.1,0-0.1,0.1-0.1l1.3-0.6c0.4-0.2,0.7-0.3,0.7-0.7c0-0.5-0.6-0.5-1-0.5
			c-0.2,0-0.5,0-0.7,0.2c0,0,0.1,0.1,0.1,0.2c0,0.2-0.1,0.2-0.2,0.2c-0.1,0-0.2-0.1-0.2-0.2c0-0.6,0.9-0.6,1.1-0.6
			c0.4,0,1.3,0,1.3,0.7c0,0.4-0.4,0.6-0.8,0.7c-0.1,0-0.3,0.1-0.9,0.4v0H368.2z"/>
	</g>
	<g>
		<path d="M373.1,163.8c-0.6,1.3-1.5,1.9-1.6,1.9c-0.1,0-0.1,0-0.1-0.1c0,0,0,0,0.1-0.2c1.2-1.3,1.6-3,1.6-4.7
			c0-2.1-0.6-3.7-1.5-4.7c-0.2-0.2-0.2-0.2-0.2-0.2c0-0.1,0-0.1,0.1-0.1c0.1,0,1,0.6,1.6,1.9c0.5,1.1,0.7,2.3,0.7,3.1
			C373.7,161.6,373.6,162.7,373.1,163.8z"/>
	</g>
	<g>
		<path d="M375.8,165.2c0,0-0.1,0-0.1-0.1c0,0,0,0,0.1-0.2c0.3-0.3,0.7-0.9,0.7-1.7c0-0.1,0-0.1,0-0.1c0,0,0,0,0,0
			c-0.1,0.1-0.2,0.1-0.3,0.1c-0.3,0-0.5-0.3-0.5-0.5c0-0.3,0.2-0.5,0.5-0.5c0.4,0,0.6,0.4,0.6,1
			C376.7,164.4,375.9,165.2,375.8,165.2z"/>
	</g>
	<g>
		<path class="st7" d="M383.8,155c-0.2,0-0.3-0.1-0.6-0.2c-0.2-0.1-0.4-0.3-0.6-0.3c-0.4,0-0.8,0.5-0.8,0.5l-0.2-0.1
			c0.5-0.6,0.7-0.8,1.1-0.8c0.2,0,0.3,0.1,0.6,0.2c0.2,0.1,0.4,0.2,0.6,0.2c0.4,0,0.8-0.5,0.8-0.5l0.2,0.1
			C384.3,154.8,384.1,155,383.8,155z"/>
	</g>
	<g>
		<path class="st7" d="M382.6,160.5c-0.1,0.1-0.1,0.1-0.1,0.3l-0.3,1.4c0,0.2-0.1,0.6-0.1,0.6c0,0.1,0.1,0.1,0.3,0.2
			c0.2,0,0.4,0,0.4,0c0.2,0,0.3,0,0.3,0.1c0,0.2-0.1,0.2-0.2,0.2c-0.3,0-1,0-1.3,0s-1,0-1.3,0c0,0-0.1,0-0.1-0.1
			c0-0.2,0.1-0.2,0.3-0.2c0.8,0,0.8,0,0.9-0.6c0-0.2,0.4-1.8,0.4-1.8c0,0,0-0.1,0-0.2l-1.2-3.3c-0.1-0.2-0.1-0.3-0.7-0.3
			c-0.1,0-0.2,0-0.2-0.1c0-0.2,0.1-0.2,0.2-0.2c0.2,0,0.9,0,1.1,0c0.3,0,1,0,1.3,0c0,0,0.1,0,0.1,0.1c0,0.2-0.1,0.2-0.2,0.2
			c-0.1,0-0.6,0-0.6,0.2c0,0,0,0,0.1,0.2l1.1,3l2.3-2.7c0,0,0.3-0.3,0.3-0.5c0-0.2-0.3-0.2-0.4-0.2c0,0-0.1,0-0.1-0.1
			c0-0.2,0.1-0.2,0.2-0.2c0.3,0,0.7,0,1,0c0.3,0,0.6,0,0.8,0c0.1,0,0.1,0,0.1,0.1c0,0.2-0.1,0.2-0.2,0.2c-0.7,0-1,0.4-1.3,0.7
			l-0.1,0.1L382.6,160.5z"/>
	</g>
	<g>
		<path d="M390.2,165.8c-0.1,0-1-0.6-1.6-1.9c-0.5-1.1-0.7-2.3-0.7-3.1c0-0.8,0.1-1.9,0.6-3c0.6-1.3,1.5-1.9,1.6-1.9
			c0.1,0,0.1,0,0.1,0.1c0,0,0,0-0.1,0.2c-1.2,1.2-1.6,3-1.6,4.7c0,1.5,0.3,3.4,1.6,4.7C390.3,165.6,390.3,165.7,390.2,165.8
			C390.3,165.7,390.3,165.8,390.2,165.8z"/>
		<path d="M392.3,162.5c0.2,0.4,0.6,0.7,1.1,0.7c0.1,0,1,0,1.3-1c0-0.1,0-0.1,0.1-0.1c0,0,0.1,0,0.1,0.1c0,0.2-0.4,1.3-1.7,1.3
			c-1.1,0-2.2-1-2.2-2.3c0-1.2,0.9-2.3,2.1-2.3c1.2,0,1.8,1,1.8,2c0,0.2,0,0.2-0.2,0.2H392C392,161.3,392,162,392.3,162.5z
			 M394.3,160.8c0-0.4-0.1-1.7-1.1-1.7c-0.3,0-1.2,0.3-1.2,1.7H394.3z"/>
	</g>
	<g>
		<path d="M397.5,160.2c0,0.9-0.6,1.5-1.4,1.5c-0.6,0-1.1-0.3-1.1-0.8c0-0.3,0.2-0.5,0.5-0.5c0.3,0,0.5,0.2,0.5,0.5
			c0,0.3-0.2,0.4-0.3,0.4c0.3,0.1,0.5,0.1,0.5,0.1c0.6,0,0.7-0.9,0.7-1.3v-3.9c0-0.5-0.1-0.6-0.9-0.6v-0.3l1.5-0.1V160.2z
			 M397,154.1c-0.3,0-0.5-0.2-0.5-0.5s0.2-0.5,0.5-0.5s0.5,0.2,0.5,0.5S397.3,154.1,397,154.1z"/>
	</g>
	<g>
		<path d="M399.8,159.8c-0.6,0-1-0.7-1-1.5c0-1.6,1.1-3.5,2.2-3.5c0.7,0,1,0.8,1,1.5C402,157.9,400.9,159.8,399.8,159.8z
			 M399.6,157.4c-0.1,0.3-0.2,0.8-0.2,1.3c0,0.4,0.1,0.9,0.4,0.9c0.3,0,0.6-0.3,0.8-0.7c0.2-0.3,0.4-0.7,0.6-1.5H399.6z
			 M401.3,157.1c0.1-0.6,0.2-1,0.2-1.3c0-0.1,0-0.9-0.4-0.9c-0.4,0-1,0.7-1.4,2.2H401.3z"/>
	</g>
	<g>
		<path d="M405.1,163.8c-0.6,1.3-1.5,1.9-1.6,1.9c-0.1,0-0.1,0-0.1-0.1c0,0,0,0,0.1-0.2c1.2-1.3,1.6-3,1.6-4.7
			c0-2.1-0.6-3.7-1.5-4.7c-0.2-0.2-0.2-0.2-0.2-0.2c0-0.1,0-0.1,0.1-0.1c0.1,0,1,0.6,1.6,1.9c0.5,1.1,0.7,2.3,0.7,3.1
			C405.8,161.6,405.6,162.7,405.1,163.8z"/>
	</g>
	<line class="st8" x1="329.5" y1="177.2" x2="308.3" y2="191.3"/>
	<polyline points="331.8,160.4 329.5,155.9 327.3,160.4 329.5,159.3 	"/>
	<line class="st0" x1="329.5" y1="194.9" x2="329.5" y2="159.3"/>
	<polyline points="374.6,193.6 379.1,191.3 374.6,189.1 375.7,191.3 	"/>
	<line class="st0" x1="283.5" y1="191.3" x2="375.7" y2="191.3"/>
	<g>
		<path d="M371.1,216.7c-0.1,0.5-0.1,0.5-0.3,1c-0.1,0.4-0.2,0.6-0.5,0.6c-0.1,0-0.3-0.1-0.3-0.3c0-0.1,0-0.1,0.1-0.2
			c0.4-0.9,1-2.1,1.3-3.3h-0.6c-0.2,0-0.8,0-1.3,0.8c-0.1,0.1-0.1,0.1-0.2,0.1c-0.1,0-0.1-0.1-0.1-0.1c0,0,0.3-0.5,0.6-0.9
			c0.4-0.5,0.8-0.5,1-0.5h3.3c0.2,0,0.4,0,0.4,0.2c0,0.3-0.4,0.3-0.5,0.3h-1.1c-0.1,0.5-0.2,1.1-0.2,1.6c0,0.3,0,0.9,0.3,1.6
			c0.1,0.1,0.1,0.2,0.1,0.2c0,0.2-0.2,0.4-0.4,0.4c-0.1,0-0.3-0.1-0.4-0.5c-0.1-0.3-0.1-0.6-0.1-0.8c0-0.7,0.1-1.1,0.4-2.6h-1.1
			L371.1,216.7z"/>
	</g>
	<g>
		<path d="M395.5,202.8c-0.4,0.7-0.8,1.4-1.6,1.4c-0.6,0-1-0.5-1.1-1c-0.4,0.5-0.8,1-1.5,1c-0.8,0-1-0.7-1-1.4
			c0-0.9,0.4-2.1,0.9-2.8c0.1-0.1,0.1-0.2,0.3-0.2c0.1,0,0.2,0.1,0.2,0.2c0,0.1-1,1.2-1,2.4c0,0.6,0.2,1.1,0.9,1.1
			c0.6,0,1-0.4,1.4-0.9c0-0.4,0.1-1,0.2-1.2c0.1-0.1,0.2-0.2,0.3-0.2c0.1,0,0.2,0.1,0.2,0.2c0,0.3-0.2,0.9-0.3,1.2
			c0.1,0.5,0.4,0.9,1,0.9c0.5,0,0.8-0.3,1.1-0.8c0.3-0.5,0.5-1,0.5-1.4c0-0.4-0.2-0.7-0.3-0.8c-0.1-0.1-0.1-0.2-0.1-0.3
			c0-0.2,0.3-0.5,0.5-0.5c0.2,0,0.4,0.2,0.4,0.7C396.1,201,395.7,202.4,395.5,202.8z"/>
	</g>
	<g>
		<path d="M392.5,219.7c-0.9,0-1.2-1.1-1.2-2c0-2.3,1.5-5.1,2.9-5.1c1,0,1.2,1.4,1.2,2C395.4,216.8,393.9,219.7,392.5,219.7z
			 M392.3,216.3c-0.3,1-0.3,1.6-0.3,2c0,0.9,0.2,1.2,0.5,1.2c0.4,0,0.8-0.5,1.2-1.2c0.4-0.7,0.6-1.6,0.7-2H392.3z M394.4,216
			c0.2-1,0.3-1.5,0.3-2c0-0.6-0.1-1.2-0.5-1.2c-0.4,0-0.8,0.6-1.1,1c-0.4,0.7-0.6,1.5-0.8,2.1H394.4z"/>
	</g>
	<path class="st0" d="M372,187.8v7.1 M287,187.8v7.1"/>
	<g>
		<path d="M321.5,172.8c0,0.2,0,0.2,0,0.2c0,0.1,0,0.1,0.1,0.1c0.1,0,0.1,0,0.2,0h0.9c1.7,0,2.2-1.1,2.5-2.1
			c0.1-0.2,0.1-0.2,0.2-0.2s0.1,0.1,0.1,0.1c0,0,0,0,0,0.1l-0.8,2.2c-0.1,0.2-0.1,0.2-0.3,0.2h-4.6c-0.2,0-0.3,0-0.3-0.1
			c0-0.2,0.1-0.2,0.3-0.2c0.8,0,0.8-0.1,0.9-0.5l1.3-5.4c0-0.1,0-0.1,0-0.2c0-0.1-0.1-0.1-0.3-0.2c-0.2,0-0.4,0-0.4,0
			c-0.2,0-0.3,0-0.3-0.1c0-0.2,0.1-0.2,0.2-0.2c0.3,0,1,0,1.3,0c0.3,0,1.1,0,1.5,0c0,0,0.2,0,0.2,0.1c0,0.2-0.1,0.2-0.4,0.2
			c-0.9,0-1,0.1-1.1,0.5L321.5,172.8z"/>
	</g>
	<g>
		<path d="M282.5,216.4v-0.6h2.6v0.6H282.5z"/>
	</g>
	<g>
		<path d="M287.8,216.7c-0.1,0.5-0.1,0.5-0.3,1c-0.1,0.4-0.2,0.6-0.5,0.6c-0.1,0-0.3-0.1-0.3-0.3c0-0.1,0-0.1,0.1-0.2
			c0.4-0.9,1-2.1,1.3-3.3h-0.6c-0.2,0-0.8,0-1.3,0.8c-0.1,0.1-0.1,0.1-0.2,0.1c-0.1,0-0.1-0.1-0.1-0.1c0,0,0.3-0.5,0.6-0.9
			c0.4-0.5,0.8-0.5,1-0.5h3.3c0.2,0,0.4,0,0.4,0.2c0,0.3-0.4,0.3-0.5,0.3h-1.1c-0.1,0.5-0.2,1.1-0.2,1.6c0,0.3,0,0.9,0.3,1.6
			c0.1,0.1,0.1,0.2,0.1,0.2c0,0.2-0.2,0.4-0.4,0.4c-0.1,0-0.3-0.1-0.4-0.5c-0.1-0.3-0.1-0.6-0.1-0.8c0-0.7,0.1-1.1,0.4-2.6h-1.1
			L287.8,216.7z"/>
	</g>
	<g>
		<path d="M279.7,200.8v-0.6h2.6v0.6H279.7z"/>
	</g>
	<g>
		<path d="M288,197.9c-0.2,0.6-0.2,0.9-0.5,0.9c-0.2,0-0.2-0.1-0.2-0.2c0,0,0-0.1,0-0.1c0,0,0.1-0.2,0.1-0.3c0.2-0.4,0.6-1.2,0.8-2
			h-0.4c-0.2,0-0.6,0-0.9,0.5c0,0.1,0,0.1-0.1,0.1c0,0-0.1,0-0.1-0.1c0-0.1,0.3-0.4,0.5-0.6c0.3-0.3,0.5-0.4,0.8-0.4h2.6
			c0.1,0,0.3,0,0.3,0.2c0,0,0,0.1-0.1,0.2c-0.1,0.1-0.1,0.1-0.3,0.1h-0.9c-0.1,0.5-0.1,0.8-0.1,0.9c0,0.6,0.1,1,0.3,1.2
			c0,0.1,0.1,0.1,0.1,0.2c0,0.2-0.2,0.3-0.3,0.3c-0.1,0-0.2,0-0.3-0.4c0-0.2-0.1-0.3-0.1-0.6c0-0.6,0.2-1.2,0.3-1.6h-0.8L288,197.9z
			"/>
	</g>
	<polyline points="284.2,200.5 293.3,200.5 293.3,200 284.2,200 	"/>
	<g>
		<path d="M286.7,205.6c0,0.1,0,0.1,0,0.2c0,0.1,0,0.1,0.3,0.1c0.1,0,0.3,0,0.4,0c0.2,0,0.3,0,0.3,0.1c0,0.2-0.1,0.2-0.2,0.2
			c-0.2,0-0.4,0-0.6,0c-0.2,0-0.4,0-0.6,0c-0.2,0-0.4,0-0.6,0s-0.4,0-0.6,0c-0.1,0-0.1-0.1-0.1-0.1c0-0.2,0.1-0.2,0.3-0.2
			c0.7,0,0.8-0.1,0.8-0.3l0.9-3.7c0-0.1,0-0.1,0-0.1c0-0.1,0-0.1-0.2-0.1h-0.3c-1.1,0-1.3,0.1-1.7,1.2c0,0.1-0.1,0.2-0.1,0.2
			c-0.1,0-0.1-0.1-0.1-0.1c0,0,0-0.1,0-0.1l0.4-1.2c0-0.1,0.1-0.1,0.2-0.1h4.3c0.1,0,0.2,0,0.2,0.1l-0.2,1.3c0,0.1,0,0.2-0.1,0.2
			c-0.1,0-0.1,0-0.1-0.1l0-0.1c0-0.4,0-0.5,0-0.6c0-0.3,0-0.5-0.3-0.6c-0.2-0.1-0.4-0.1-0.8-0.1c-0.1,0-0.4,0-0.4,0
			c-0.2,0-0.2,0-0.2,0.2L286.7,205.6z"/>
	</g>
	<g>
		<path d="M291.2,206.7c0.2,0,0.2,0,0.4,0c0.1,0,0.1,0,0.2-0.2c0-0.1,0-0.1,0.1-0.1c0,0,0.1,0,0.1,0.1c0,0-0.2,0.6-0.2,0.6
			c0,0-0.1,0-0.1,0h-2c-0.1,0-0.2,0-0.2-0.1c0-0.1,0-0.1,0.1-0.1l1.3-0.6c0.4-0.2,0.7-0.3,0.7-0.7c0-0.5-0.6-0.5-1-0.5
			c-0.2,0-0.5,0-0.7,0.2c0,0,0.1,0.1,0.1,0.2c0,0.2-0.1,0.2-0.2,0.2c-0.1,0-0.2-0.1-0.2-0.2c0-0.6,0.9-0.6,1.1-0.6
			c0.4,0,1.3,0,1.3,0.7c0,0.4-0.4,0.6-0.8,0.7c-0.1,0-0.3,0.1-0.9,0.4v0H291.2z"/>
	</g>
	<line class="st8" x1="329.5" y1="177.2" x2="350.8" y2="191.3"/>
	<path class="st0" d="M326,177.2h7.1 M308.3,187.8v7.1 M350.8,187.8v7.1"/>
	<g>
		<path d="M350.1,213.1c-0.2,0.6-0.2,0.9-0.5,0.9c-0.2,0-0.2-0.1-0.2-0.2c0,0,0-0.1,0-0.1c0,0,0.1-0.2,0.1-0.3
			c0.2-0.4,0.6-1.2,0.8-2h-0.4c-0.2,0-0.6,0-0.9,0.5c0,0.1,0,0.1-0.1,0.1c0,0-0.1,0-0.1-0.1c0-0.1,0.3-0.4,0.5-0.6
			c0.3-0.3,0.5-0.4,0.8-0.4h2.6c0.1,0,0.3,0,0.3,0.2c0,0,0,0.1-0.1,0.2c-0.1,0.1-0.1,0.1-0.3,0.1h-0.9c-0.1,0.5-0.1,0.8-0.1,0.9
			c0,0.6,0.1,1,0.3,1.2c0,0.1,0.1,0.1,0.1,0.2c0,0.2-0.2,0.3-0.3,0.3c-0.1,0-0.2,0-0.3-0.4c0-0.2-0.1-0.3-0.1-0.6
			c0-0.6,0.2-1.2,0.3-1.6h-0.8L350.1,213.1z"/>
	</g>
	<polyline points="348,215.6 353.6,215.6 353.6,215.1 348,215.1 	"/>
	<g>
		<path d="M350,220.8c0,0.1,0,0.1,0,0.1c0,0.1,0,0.1,0.2,0.1h0.8c1.3,0,1.6-0.8,1.8-1.4c0-0.1,0.1-0.1,0.1-0.1
			c0.1,0,0.1,0.1,0.1,0.1c0,0.1-0.5,1.4-0.6,1.6c-0.1,0.1-0.1,0.1-0.2,0.1h-3.5c-0.1,0-0.2,0-0.2-0.1c0-0.1,0.1-0.1,0.2-0.1
			c0.5,0,0.6-0.1,0.6-0.3l0.9-3.7c0-0.1,0-0.1,0-0.2c0-0.1,0-0.1-0.2-0.1c-0.1,0-0.3,0-0.3,0c-0.1,0-0.2,0-0.2-0.1
			c0-0.2,0.1-0.2,0.1-0.2c0.1,0,0.3,0,0.5,0s0.3,0,0.5,0c0.2,0,0.4,0,0.6,0c0.2,0,0.4,0,0.5,0c0.1,0,0.1,0.1,0.1,0.1
			c0,0.2-0.1,0.2-0.3,0.2c-0.6,0-0.7,0.1-0.7,0.3L350,220.8z"/>
	</g>
	<g>
		<path d="M350.1,198.4c-0.2,0.6-0.2,0.9-0.5,0.9c-0.2,0-0.2-0.1-0.2-0.2c0,0,0-0.1,0-0.1c0,0,0.1-0.2,0.1-0.3
			c0.2-0.4,0.6-1.2,0.8-2h-0.4c-0.2,0-0.6,0-0.9,0.5c0,0.1,0,0.1-0.1,0.1c0,0-0.1,0-0.1-0.1c0-0.1,0.3-0.4,0.5-0.6
			c0.3-0.3,0.5-0.4,0.8-0.4h2.6c0.1,0,0.3,0,0.3,0.2c0,0,0,0.1-0.1,0.2c-0.1,0.1-0.1,0.1-0.3,0.1h-0.9c-0.1,0.5-0.1,0.8-0.1,0.9
			c0,0.6,0.1,1,0.3,1.2c0,0.1,0.1,0.1,0.1,0.2c0,0.2-0.2,0.3-0.3,0.3c-0.1,0-0.2,0-0.3-0.4c0-0.2-0.1-0.3-0.1-0.6
			c0-0.6,0.2-1.2,0.3-1.6h-0.8L350.1,198.4z"/>
	</g>
	<polyline points="346.2,201 355.5,201 355.5,200.5 346.2,200.5 	"/>
	<g>
		<path d="M348.7,206.1c0,0.1,0,0.1,0,0.2c0,0.1,0,0.1,0.3,0.1c0.1,0,0.3,0,0.4,0c0.2,0,0.3,0,0.3,0.1c0,0.2-0.1,0.2-0.2,0.2
			c-0.2,0-0.4,0-0.6,0c-0.2,0-0.4,0-0.6,0c-0.2,0-0.4,0-0.6,0s-0.4,0-0.6,0c-0.1,0-0.1-0.1-0.1-0.1c0-0.2,0.1-0.2,0.3-0.2
			c0.7,0,0.8-0.1,0.8-0.3l0.9-3.7c0-0.1,0-0.1,0-0.1c0-0.1,0-0.1-0.2-0.1h-0.3c-1.1,0-1.3,0.1-1.7,1.2c0,0.1-0.1,0.2-0.1,0.2
			c-0.1,0-0.1-0.1-0.1-0.1c0,0,0-0.1,0-0.1l0.4-1.2c0-0.1,0.1-0.1,0.2-0.1h4.3c0.1,0,0.2,0,0.2,0.1l-0.2,1.3c0,0.1,0,0.2-0.1,0.2
			c-0.1,0-0.1,0-0.1-0.1l0-0.1c0-0.4,0-0.5,0-0.6c0-0.3,0-0.5-0.3-0.6c-0.2-0.1-0.4-0.1-0.8-0.1c-0.1,0-0.4,0-0.4,0
			c-0.2,0-0.2,0-0.2,0.2L348.7,206.1z"/>
	</g>
	<g>
		<path d="M353,207.1c0,0.1,0,0.2,0.2,0.2c0.1,0,0.2,0,0.3,0h0.1c0.1,0,0.2,0,0.2,0.1c0,0.1,0,0.1-0.1,0.1c-0.1,0-0.3,0-0.4,0
			c-0.1,0-0.3,0-0.4,0c-0.1,0-0.3,0-0.5,0c-0.1,0-0.3,0-0.4,0c-0.1,0-0.1,0-0.1-0.1c0-0.1,0.1-0.1,0.2-0.1h0.1c0.2,0,0.2,0,0.4,0
			c0.1,0,0.2,0,0.2-0.2v-1.4c-0.3,0.1-0.6,0.1-0.6,0.1c-0.1,0-0.2,0-0.2-0.1c0-0.1,0-0.1,0.2-0.1c0.5,0,0.8-0.1,0.9-0.2
			c0.1,0,0.1,0,0.1,0c0.1,0,0.1,0.1,0.1,0.2V207.1z"/>
	</g>
	<g>
		<path d="M301,201.3v-0.6h2.6v0.6H301z"/>
	</g>
	<g>
		<path d="M309.2,198.4c-0.2,0.6-0.2,0.9-0.5,0.9c-0.2,0-0.2-0.1-0.2-0.2c0,0,0-0.1,0-0.1c0,0,0.1-0.2,0.1-0.3
			c0.2-0.4,0.6-1.2,0.8-2H309c-0.2,0-0.6,0-0.9,0.5c0,0.1,0,0.1-0.1,0.1c0,0-0.1,0-0.1-0.1c0-0.1,0.3-0.4,0.5-0.6
			c0.3-0.3,0.5-0.4,0.8-0.4h2.6c0.1,0,0.3,0,0.3,0.2c0,0,0,0.1-0.1,0.2c-0.1,0.1-0.1,0.1-0.3,0.1h-0.9c-0.1,0.5-0.1,0.8-0.1,0.9
			c0,0.6,0.1,1,0.3,1.2c0,0.1,0.1,0.1,0.1,0.2c0,0.2-0.2,0.3-0.3,0.3c-0.1,0-0.2,0-0.3-0.4c0-0.2-0.1-0.3-0.1-0.6
			c0-0.6,0.2-1.2,0.3-1.6h-0.8L309.2,198.4z"/>
	</g>
	<polyline points="305.4,201 314.7,201 314.7,200.5 305.4,200.5 	"/>
	<g>
		<path d="M307.9,206.1c0,0.1,0,0.1,0,0.2c0,0.1,0,0.1,0.3,0.1c0.1,0,0.3,0,0.4,0c0.2,0,0.3,0,0.3,0.1c0,0.2-0.1,0.2-0.2,0.2
			c-0.2,0-0.4,0-0.6,0c-0.2,0-0.4,0-0.6,0c-0.2,0-0.4,0-0.6,0s-0.4,0-0.6,0c-0.1,0-0.1-0.1-0.1-0.1c0-0.2,0.1-0.2,0.3-0.2
			c0.7,0,0.8-0.1,0.8-0.3l0.9-3.7c0-0.1,0-0.1,0-0.1c0-0.1,0-0.1-0.2-0.1h-0.3c-1.1,0-1.3,0.1-1.7,1.2c0,0.1-0.1,0.2-0.1,0.2
			c-0.1,0-0.1-0.1-0.1-0.1c0,0,0-0.1,0-0.1l0.4-1.2c0-0.1,0.1-0.1,0.2-0.1h4.3c0.1,0,0.2,0,0.2,0.1l-0.2,1.3c0,0.1,0,0.2-0.1,0.2
			c-0.1,0-0.1,0-0.1-0.1l0-0.1c0-0.4,0-0.5,0-0.6c0-0.3,0-0.5-0.3-0.6c-0.2-0.1-0.4-0.1-0.8-0.1c-0.1,0-0.4,0-0.4,0
			c-0.2,0-0.2,0-0.2,0.2L307.9,206.1z"/>
	</g>
	<g>
		<path d="M312.2,207.1c0,0.1,0,0.2,0.2,0.2c0.1,0,0.2,0,0.3,0h0.1c0.1,0,0.2,0,0.2,0.1c0,0.1,0,0.1-0.1,0.1c-0.1,0-0.3,0-0.4,0
			c-0.1,0-0.3,0-0.4,0c-0.1,0-0.3,0-0.5,0c-0.1,0-0.3,0-0.4,0c-0.1,0-0.1,0-0.1-0.1c0-0.1,0.1-0.1,0.2-0.1h0.1c0.2,0,0.2,0,0.4,0
			c0.1,0,0.2,0,0.2-0.2v-1.4c-0.3,0.1-0.6,0.1-0.6,0.1c-0.1,0-0.2,0-0.2-0.1c0-0.1,0-0.1,0.2-0.1c0.5,0,0.8-0.1,0.9-0.2
			c0.1,0,0.1,0,0.1,0c0.1,0,0.1,0.1,0.1,0.2V207.1z"/>
	</g>
	<g>
		<path d="M302.8,216v-0.6h2.6v0.6H302.8z"/>
	</g>
	<g>
		<path d="M309.2,213.1c-0.2,0.6-0.2,0.9-0.5,0.9c-0.2,0-0.2-0.1-0.2-0.2c0,0,0-0.1,0-0.1c0,0,0.1-0.2,0.1-0.3
			c0.2-0.4,0.6-1.2,0.8-2H309c-0.2,0-0.6,0-0.9,0.5c0,0.1,0,0.1-0.1,0.1c0,0-0.1,0-0.1-0.1c0-0.1,0.3-0.4,0.5-0.6
			c0.3-0.3,0.5-0.4,0.8-0.4h2.6c0.1,0,0.3,0,0.3,0.2c0,0,0,0.1-0.1,0.2c-0.1,0.1-0.1,0.1-0.3,0.1h-0.9c-0.1,0.5-0.1,0.8-0.1,0.9
			c0,0.6,0.1,1,0.3,1.2c0,0.1,0.1,0.1,0.1,0.2c0,0.2-0.2,0.3-0.3,0.3c-0.1,0-0.2,0-0.3-0.4c0-0.2-0.1-0.3-0.1-0.6
			c0-0.6,0.2-1.2,0.3-1.6h-0.8L309.2,213.1z"/>
	</g>
	<polyline points="307.2,215.6 312.8,215.6 312.8,215.1 307.2,215.1 	"/>
	<g>
		<path d="M309.2,220.8c0,0.1,0,0.1,0,0.1c0,0.1,0,0.1,0.2,0.1h0.8c1.3,0,1.6-0.8,1.8-1.4c0-0.1,0.1-0.1,0.1-0.1
			c0.1,0,0.1,0.1,0.1,0.1c0,0.1-0.5,1.4-0.6,1.6c-0.1,0.1-0.1,0.1-0.2,0.1h-3.5c-0.1,0-0.2,0-0.2-0.1c0-0.1,0.1-0.1,0.2-0.1
			c0.5,0,0.6-0.1,0.6-0.3l0.9-3.7c0-0.1,0-0.1,0-0.2c0-0.1,0-0.1-0.2-0.1c-0.1,0-0.3,0-0.3,0c-0.1,0-0.2,0-0.2-0.1
			c0-0.2,0.1-0.2,0.1-0.2c0.1,0,0.3,0,0.5,0s0.3,0,0.5,0c0.2,0,0.4,0,0.6,0c0.2,0,0.4,0,0.5,0c0.1,0,0.1,0.1,0.1,0.1
			c0,0.2-0.1,0.2-0.3,0.2c-0.6,0-0.7,0.1-0.7,0.3L309.2,220.8z"/>
	</g>
	<path class="st8" d="M287,191.3h21.3 M350.8,191.3H372"/>
</g>
</svg>
