<?xml version="1.0" encoding="utf-8"?>
<!-- Generator: Adobe Illustrator 22.1.0, SVG Export Plug-In . SVG Version: 6.00 Build 0)  -->
<svg version="1.1" id="Layer_1" xmlns="http://www.w3.org/2000/svg" xmlns:xlink="http://www.w3.org/1999/xlink" x="0px" y="0px"
	 viewBox="0 0 418.1 198.1" style="enable-background:new 0 0 418.1 198.1;" xml:space="preserve">
<style type="text/css">
	.st0{fill:none;stroke:#000000;stroke-width:0.8504;stroke-miterlimit:10;}
	.st1{fill:#1D1D1B;}
	.st2{fill:none;stroke:#FF0000;stroke-width:1.7008;stroke-miterlimit:10;}
	.st3{fill:none;stroke:#000000;stroke-width:0.8504;stroke-miterlimit:10;stroke-dasharray:2.7946,2.7946;}
	.st4{fill:none;stroke:#000000;stroke-width:1.7008;stroke-miterlimit:10;}
</style>
<g>
	<polyline points="297.1,118.2 301.7,116 297.1,113.7 298.2,116 	"/>
	<line class="st0" x1="117.4" y1="116" x2="298.2" y2="116"/>
	<polyline points="84.5,118.2 89.1,116 84.5,113.7 85.7,116 	"/>
	<line class="st0" x1="46.5" y1="116" x2="85.7" y2="116"/>
	<g>
		<path class="st1" d="M97.4,111.6c1.7,0,3,1.6,3,3.5c0,1.9-1.4,3.3-3,3.3h-3.6v-0.3H94c0.8,0,0.8-0.1,0.8-0.5v-5.3
			c0-0.4,0-0.5-0.8-0.5h-0.2v-0.3H97.4z M97.1,118.1c1,0,1.6-0.6,1.8-0.8c0.4-0.5,0.5-1.1,0.5-2.2c0-0.8-0.1-1.6-0.5-2.2
			c-0.5-0.7-1.2-0.9-1.8-0.9h-1c-0.5,0-0.5,0.1-0.5,0.4v5.4c0,0.3,0,0.4,0.5,0.4H97.1z"/>
		<path class="st1" d="M101.9,120.7c0,0.1-0.1,0.2-0.2,0.2c-0.1,0-0.2-0.1-0.2-0.2c0,0,0,0,0-0.2l3.4-9.4c0-0.1,0.1-0.2,0.2-0.2
			c0.1,0,0.2,0.1,0.2,0.2c0,0,0,0,0,0.2L101.9,120.7z"/>
	</g>
	<g>
		<path class="st1" d="M110,111.4c1,0,1.5,0.5,1.8,0.9l0.5-0.7c0.1-0.1,0.1-0.1,0.2-0.1c0.1,0,0.1,0.1,0.1,0.2v2.4
			c0,0.2,0,0.2-0.2,0.2c-0.1,0-0.1,0-0.2-0.2c-0.2-1.5-1.1-2.4-2.2-2.4c-0.6,0-2.6,0.3-2.6,3.3c0,3,2,3.3,2.6,3.3
			c1.1,0,2.2-0.8,2.2-2.2c0-0.1,0-0.2,0.1-0.2c0.1,0,0.1,0.1,0.1,0.2c0,1.2-1,2.5-2.6,2.5c-1.9,0-3.5-1.6-3.5-3.6
			C106.6,113,108.2,111.4,110,111.4z"/>
	</g>
	<polygon class="st0" points="89.1,116 89.1,126.6 117.4,126.6 117.4,105.3 89.1,105.3 	"/>
	<polyline points="105.5,131.1 103.2,126.6 101,131.1 103.2,130 	"/>
	<line class="st0" x1="103.2" y1="140.8" x2="103.2" y2="130"/>
	<g>
		<path class="st1" d="M89.5,148.9c0,0.1-0.2,1.3-0.6,1.9c-0.2,0.4-0.6,1-1.1,1c-0.4,0-0.8-0.2-0.8-0.7c0-0.4,0.3-0.6,0.5-0.6
			c0.2,0,0.4,0.1,0.4,0.3c0,0.1-0.1,0.5-0.5,0.5c0.2,0.2,0.4,0.2,0.5,0.2c0.5,0,0.7-0.9,0.9-1.9l0.7-3.9h-0.7c-0.2,0-0.3,0-0.3-0.1
			c0-0.2,0.1-0.2,0.3-0.2h0.7c0.2-1.3,0.3-1.4,0.3-1.6c0.3-1,0.9-1.2,1.3-1.2c0.4,0,0.9,0.2,0.9,0.7c0,0.4-0.3,0.6-0.5,0.6
			c-0.2,0-0.4-0.1-0.4-0.3c0-0.1,0.1-0.5,0.5-0.5c-0.2-0.2-0.4-0.2-0.5-0.2c-0.2,0-0.4,0.1-0.5,0.3c-0.1,0.1-0.2,0.8-0.2,1l-0.2,1.1
			H91c0.2,0,0.3,0,0.3,0.1c0,0.2-0.1,0.2-0.3,0.2h-0.9L89.5,148.9z"/>
	</g>
	<g>
		<path class="st1" d="M93.7,150.6c0,0.2,0,0.3,0.7,0.3h0.3v0.3c-0.2,0-1,0-1.2,0c-0.3,0-1.1,0-1.2,0v-0.3h0.3
			c0.7,0,0.7-0.1,0.7-0.3v-3.6c-0.4,0.2-0.8,0.2-1,0.2V147c0.3,0,0.9,0,1.4-0.4c0.2,0,0.2,0,0.2,0.2V150.6z"/>
	</g>
	<g>
		<path class="st1" d="M99.5,146.5c-0.1,0-0.3,0-0.3-0.2c0-0.2,0.2-0.2,0.3-0.2h6c0.1,0,0.3,0,0.3,0.2c0,0.2-0.2,0.2-0.3,0.2H99.5z
			 M99.5,148.4c-0.1,0-0.3,0-0.3-0.2s0.2-0.2,0.3-0.2h5.9c0.1,0,0.3,0,0.3,0.2s-0.2,0.2-0.3,0.2H99.5z"/>
	</g>
	<g>
		<path class="st1" d="M114.9,145.4c0,0.2,0,0.3,0.7,0.3h0.3v0.3c-0.2,0-1,0-1.2,0c-0.3,0-1.1,0-1.2,0v-0.3h0.3
			c0.7,0,0.7-0.1,0.7-0.3v-3.6c-0.4,0.2-0.8,0.2-1,0.2v-0.3c0.3,0,0.9,0,1.4-0.4c0.2,0,0.2,0,0.2,0.2V145.4z"/>
	</g>
	<polyline points="110.3,147.6 119,147.6 119,147.1 110.3,147.1 	"/>
	<g>
		<path class="st1" d="M112.8,152.7c0,0.1,0,0.1,0,0.2c0,0.1,0,0.1,0.3,0.1c0.1,0,0.3,0,0.4,0c0.2,0,0.3,0,0.3,0.1
			c0,0.2-0.1,0.2-0.2,0.2c-0.2,0-0.4,0-0.6,0c-0.2,0-0.4,0-0.6,0s-0.4,0-0.6,0s-0.4,0-0.6,0c-0.1,0-0.1-0.1-0.1-0.1
			c0-0.2,0.1-0.2,0.3-0.2c0.7,0,0.8-0.1,0.8-0.3l0.9-3.7c0-0.1,0-0.1,0-0.1c0-0.1,0-0.1-0.2-0.1h-0.3c-1.1,0-1.3,0.1-1.7,1.2
			c0,0.1-0.1,0.2-0.1,0.2c-0.1,0-0.1-0.1-0.1-0.1c0,0,0-0.1,0-0.1l0.4-1.2c0-0.1,0.1-0.1,0.2-0.1h4.3c0.1,0,0.2,0,0.2,0.1l-0.2,1.3
			c0,0.1,0,0.2-0.1,0.2c-0.1,0-0.1,0-0.1-0.1l0-0.1c0-0.4,0-0.5,0-0.6c0-0.3,0-0.5-0.3-0.6c-0.2-0.1-0.4-0.1-0.8-0.1
			c-0.1,0-0.4,0-0.4,0c-0.2,0-0.2,0-0.2,0.2L112.8,152.7z"/>
	</g>
	<g>
		<path class="st1" d="M117,153.8c0,0.2,0,0.2,0.5,0.2h0.2v0.2c-0.3,0-0.7,0-1,0s-0.7,0-1,0V154h0.2c0.5,0,0.5-0.1,0.5-0.2v-2.5
			c-0.3,0.1-0.6,0.1-0.7,0.1h-0.1v-0.2h0.1c0.1,0,0.7,0,1-0.3c0.2,0,0.2,0,0.2,0.1V153.8z"/>
	</g>
	<g>
		<path class="st1" d="M178.1,11.6c0,0.1,0,0.2,0,0.2c0,0.2,0.1,0.2,0.4,0.2c0.3,0,0.4,0,0.6,0c0.3,0,0.3,0,0.3,0.1
			c0,0.2-0.1,0.2-0.2,0.2c-0.3,0-0.6,0-0.9,0c-0.3,0-0.5,0-0.8,0c-0.3,0-0.6,0-0.8,0c-0.3,0-0.5,0-0.8,0c-0.1,0-0.2,0-0.2-0.1
			c0-0.2,0.1-0.2,0.4-0.2c1.1,0,1.1-0.1,1.2-0.5l1.3-5.3c0,0,0-0.1,0-0.2c0-0.1,0-0.1-0.3-0.1h-0.4c-1.5,0-1.7,0.2-2.3,1.7
			c-0.1,0.2-0.1,0.2-0.2,0.2c-0.1,0-0.1,0-0.1-0.1c0,0,0-0.2,0.1-0.2l0.6-1.8c0.1-0.2,0.1-0.2,0.3-0.2h5.5c0.2,0,0.3,0,0.3,0.1
			c0,0,0,0.1,0,0.2l-0.3,1.7c0,0.1,0,0.2-0.1,0.2c-0.1,0-0.1-0.1-0.1-0.1c0,0,0-0.1,0-0.2c0-0.3,0.1-0.6,0.1-0.8
			c0-0.8-0.4-0.8-1.5-0.8c-0.2,0-0.5,0-0.6,0c-0.1,0-0.2,0.1-0.2,0.4L178.1,11.6z"/>
	</g>
	<g>
		<path class="st1" d="M184.3,13.8h-2.9c0-0.2,0-0.2,0.1-0.3l1.7-1.7c0.2-0.3,0.7-0.7,0.7-1.3c0-0.6-0.4-1.1-1.1-1.1
			c-0.3,0-0.8,0.2-1,0.6c0.4,0,0.4,0.2,0.4,0.4c0,0.3-0.2,0.4-0.4,0.4c-0.1,0-0.4,0-0.4-0.4c0-0.6,0.6-1.2,1.5-1.2
			c0.9,0,1.6,0.5,1.6,1.4c0,0.7-0.5,1.1-1,1.5c-0.4,0.3-0.7,0.5-1.4,1.2h1.3c0.1,0,0.6,0,0.7,0c0.1-0.1,0.2-0.5,0.2-0.6h0.2
			L184.3,13.8z"/>
	</g>
	<g>
		<path class="st1" d="M189.1,9.1c-0.1,0-0.3,0-0.3-0.2s0.2-0.2,0.3-0.2h6c0.1,0,0.3,0,0.3,0.2s-0.2,0.2-0.3,0.2H189.1z M189.1,11
			c-0.1,0-0.3,0-0.3-0.2s0.2-0.2,0.3-0.2h5.9c0.1,0,0.3,0,0.3,0.2s-0.2,0.2-0.3,0.2H189.1z"/>
	</g>
	<g>
		<path class="st1" d="M202.4,7.7c0,0.1,0,0.1,0,0.2c0,0.1,0,0.1,0.3,0.1c0.1,0,0.3,0,0.4,0c0.2,0,0.3,0,0.3,0.1
			c0,0.2-0.1,0.2-0.2,0.2c-0.2,0-0.4,0-0.6,0c-0.2,0-0.4,0-0.6,0s-0.4,0-0.6,0s-0.4,0-0.6,0c-0.1,0-0.1-0.1-0.1-0.1
			c0-0.2,0.1-0.2,0.3-0.2c0.7,0,0.8-0.1,0.8-0.3l0.9-3.7c0-0.1,0-0.1,0-0.1c0-0.1,0-0.1-0.2-0.1h-0.3c-1.1,0-1.3,0.1-1.7,1.2
			c0,0.1-0.1,0.2-0.1,0.2c-0.1,0-0.1-0.1-0.1-0.1c0,0,0-0.1,0-0.1l0.4-1.2c0-0.1,0.1-0.1,0.2-0.1h4.3c0.1,0,0.2,0,0.2,0.1L205.3,5
			c0,0.1,0,0.2-0.1,0.2c-0.1,0-0.1,0-0.1-0.1l0-0.1c0-0.4,0-0.5,0-0.6c0-0.3,0-0.5-0.3-0.6c-0.2-0.1-0.4-0.1-0.8-0.1
			c-0.1,0-0.4,0-0.4,0c-0.2,0-0.2,0-0.2,0.2L202.4,7.7z"/>
	</g>
	<g>
		<path class="st1" d="M206.6,8.8c0,0.2,0,0.2,0.5,0.2h0.2v0.2c-0.3,0-0.7,0-1,0s-0.7,0-1,0V9h0.2c0.5,0,0.5-0.1,0.5-0.2V6.3
			c-0.3,0.1-0.6,0.1-0.7,0.1h-0.1V6.2h0.1c0.1,0,0.7,0,1-0.3c0.2,0,0.2,0,0.2,0.1V8.8z"/>
	</g>
	<polyline points="200,10.1 208.6,10.1 208.6,9.6 200,9.6 	"/>
	<g>
		<path class="st1" d="M203.5,15.3c0,0.1,0,0.1,0,0.1c0,0.1,0,0.1,0.2,0.1h0.8c1.3,0,1.6-0.8,1.8-1.4c0-0.1,0.1-0.1,0.1-0.1
			c0.1,0,0.1,0.1,0.1,0.1c0,0.1-0.5,1.4-0.6,1.6c-0.1,0.1-0.1,0.1-0.2,0.1h-3.5c-0.1,0-0.2,0-0.2-0.1c0-0.1,0.1-0.1,0.2-0.1
			c0.5,0,0.6-0.1,0.6-0.3l0.9-3.7c0-0.1,0-0.1,0-0.2c0-0.1,0-0.1-0.2-0.1c-0.1,0-0.3,0-0.3,0c-0.1,0-0.2,0-0.2-0.1
			c0-0.2,0.1-0.2,0.1-0.2c0.1,0,0.3,0,0.5,0s0.3,0,0.5,0c0.2,0,0.4,0,0.6,0c0.2,0,0.4,0,0.5,0c0.1,0,0.1,0.1,0.1,0.1
			c0,0.2-0.1,0.2-0.3,0.2c-0.6,0-0.7,0.1-0.7,0.3L203.5,15.3z"/>
	</g>
	<g>
		<path class="st1" d="M220.5,8.7c-0.6-0.6-0.9-1.4-0.9-1.5c0-0.1,0.1-0.1,0.2-0.1c0.1,0,0.2,0,0.2,0.1c0.5,1.2,1.3,2,2.4,2.5
			c0.2,0.1,0.2,0.1,0.2,0.1c0,0,0,0,0,0.1c0,0.1,0,0.1-0.2,0.1c-1.3,0.6-2,1.5-2.5,2.4c-0.1,0.2-0.1,0.2-0.2,0.2
			c-0.1,0-0.2,0-0.2-0.1c0-0.1,0.3-0.8,0.9-1.5h-4.9c0.6,0.6,0.9,1.4,0.9,1.5c0,0.1-0.1,0.1-0.2,0.1c-0.1,0-0.2,0-0.2-0.1
			c-0.5-1.2-1.3-2-2.4-2.5c-0.2-0.1-0.2-0.1-0.2-0.1c0,0,0,0,0-0.1c0-0.1,0-0.1,0.2-0.1c1.3-0.6,2-1.5,2.5-2.4
			c0.1-0.2,0.1-0.2,0.2-0.2c0.1,0,0.2,0,0.2,0.1c0,0.1-0.3,0.8-0.9,1.5H220.5z M220.9,10.6c0.2-0.2,0.5-0.4,1-0.8
			c-0.4-0.2-0.7-0.5-1-0.8h-5.7c-0.2,0.2-0.5,0.4-1,0.8c0.4,0.2,0.7,0.5,1,0.8H220.9z"/>
	</g>
	<g>
		<path class="st1" d="M229.4,11.5c0,0.1-0.2,1.3-0.6,1.9c-0.2,0.4-0.6,1-1.1,1c-0.4,0-0.8-0.2-0.8-0.7c0-0.4,0.3-0.6,0.5-0.6
			c0.2,0,0.4,0.1,0.4,0.3c0,0.1-0.1,0.5-0.5,0.5c0.2,0.2,0.4,0.2,0.5,0.2c0.5,0,0.7-0.9,0.9-1.9l0.7-3.9h-0.7c-0.2,0-0.3,0-0.3-0.1
			c0-0.2,0.1-0.2,0.3-0.2h0.7c0.2-1.3,0.3-1.4,0.3-1.6c0.3-1,0.9-1.2,1.3-1.2c0.4,0,0.9,0.2,0.9,0.7c0,0.4-0.3,0.6-0.5,0.6
			c-0.2,0-0.4-0.1-0.4-0.3c0-0.1,0.1-0.5,0.5-0.5c-0.2-0.2-0.4-0.2-0.5-0.2c-0.2,0-0.4,0.1-0.5,0.3c-0.1,0.1-0.2,0.8-0.2,1l-0.2,1.1
			h0.8c0.2,0,0.3,0,0.3,0.1c0,0.2-0.1,0.2-0.3,0.2H230L229.4,11.5z"/>
	</g>
	<g>
		<path class="st1" d="M234.6,13.8h-2.9c0-0.2,0-0.2,0.1-0.3l1.7-1.7c0.2-0.3,0.7-0.7,0.7-1.3c0-0.6-0.4-1.1-1.1-1.1
			c-0.3,0-0.8,0.2-1,0.6c0.4,0,0.4,0.2,0.4,0.4c0,0.3-0.2,0.4-0.4,0.4c-0.1,0-0.4,0-0.4-0.4c0-0.6,0.6-1.2,1.5-1.2
			c0.9,0,1.6,0.5,1.6,1.4c0,0.7-0.5,1.1-1,1.5c-0.4,0.3-0.7,0.5-1.4,1.2h1.3c0.1,0,0.6,0,0.7,0c0.1-0.1,0.2-0.5,0.2-0.6h0.2
			L234.6,13.8z"/>
	</g>
	<g>
		<path class="st1" d="M239.4,9.1c-0.1,0-0.3,0-0.3-0.2s0.2-0.2,0.3-0.2h6c0.1,0,0.3,0,0.3,0.2s-0.2,0.2-0.3,0.2H239.4z M239.4,11
			c-0.1,0-0.3,0-0.3-0.2s0.2-0.2,0.3-0.2h5.9c0.1,0,0.3,0,0.3,0.2s-0.2,0.2-0.3,0.2H239.4z"/>
	</g>
	<g>
		<path class="st1" d="M251.3,11.7c0,0.2,0,0.2,0,0.2c0,0.1,0,0.1,0.1,0.1c0.1,0,0.1,0,0.2,0h0.9c1.7,0,2.2-1.1,2.5-2.1
			c0.1-0.2,0.1-0.2,0.2-0.2s0.1,0.1,0.1,0.1c0,0,0,0,0,0.1l-0.8,2.2c-0.1,0.2-0.1,0.2-0.3,0.2h-4.6c-0.2,0-0.3,0-0.3-0.1
			c0-0.2,0.1-0.2,0.3-0.2c0.8,0,0.8-0.1,0.9-0.5l1.3-5.4c0-0.1,0-0.1,0-0.2c0-0.1-0.1-0.1-0.3-0.2c-0.2,0-0.4,0-0.4,0
			c-0.2,0-0.3,0-0.3-0.1c0-0.2,0.1-0.2,0.2-0.2c0.3,0,1,0,1.3,0c0.3,0,1.1,0,1.5,0c0,0,0.2,0,0.2,0.1c0,0.2-0.1,0.2-0.4,0.2
			c-0.9,0-1,0.1-1.1,0.5L251.3,11.7z"/>
	</g>
	<g>
		<path class="st1" d="M259.3,10.4c-0.3,0-0.5-0.2-0.5-0.5c0-0.3,0.2-0.5,0.5-0.5s0.5,0.2,0.5,0.5C259.8,10.2,259.6,10.4,259.3,10.4
			z"/>
	</g>
	<g>
		<path class="st1" d="M266,11.5c0,0.1-0.2,1.3-0.6,1.9c-0.2,0.4-0.6,1-1.1,1c-0.4,0-0.8-0.2-0.8-0.7c0-0.4,0.3-0.6,0.5-0.6
			c0.2,0,0.4,0.1,0.4,0.3c0,0.1-0.1,0.5-0.5,0.5c0.2,0.2,0.4,0.2,0.5,0.2c0.5,0,0.7-0.9,0.9-1.9l0.7-3.9h-0.7c-0.2,0-0.3,0-0.3-0.1
			c0-0.2,0.1-0.2,0.3-0.2h0.7c0.2-1.3,0.3-1.4,0.3-1.6c0.3-1,0.9-1.2,1.3-1.2c0.4,0,0.9,0.2,0.9,0.7c0,0.4-0.3,0.6-0.5,0.6
			c-0.2,0-0.4-0.1-0.4-0.3c0-0.1,0.1-0.5,0.5-0.5c-0.2-0.2-0.4-0.2-0.5-0.2c-0.2,0-0.4,0.1-0.5,0.3c-0.1,0.1-0.2,0.8-0.2,1l-0.2,1.1
			h0.8c0.2,0,0.3,0,0.3,0.1c0,0.2-0.1,0.2-0.3,0.2h-0.9L266,11.5z"/>
	</g>
	<g>
		<path class="st1" d="M270.2,13.2c0,0.2,0,0.3,0.7,0.3h0.3v0.3c-0.2,0-1,0-1.2,0c-0.3,0-1.1,0-1.2,0v-0.3h0.3
			c0.7,0,0.7-0.1,0.7-0.3V9.7c-0.4,0.2-0.8,0.2-1,0.2V9.6c0.3,0,0.9,0,1.4-0.4c0.2,0,0.2,0,0.2,0.2V13.2z"/>
	</g>
	<polyline points="171.8,0.5 275.7,0.5 275.7,0 171.8,0 	"/>
	<polyline points="171.8,19 172.2,19 172.2,0.2 171.8,0.2 	"/>
	<polyline points="275.3,19 275.8,19 275.8,0.2 275.3,0.2 	"/>
	<polyline points="171.8,19.2 275.7,19.2 275.7,18.7 171.8,18.7 	"/>
	<g>
		<path class="st1" d="M310,111.4c1,0,1.5,0.5,1.8,0.9l0.5-0.7c0.1-0.1,0.1-0.1,0.2-0.1c0.1,0,0.1,0.1,0.1,0.2v2.4
			c0,0.2,0,0.2-0.2,0.2c-0.1,0-0.1,0-0.2-0.2c-0.2-1.5-1.1-2.4-2.2-2.4c-0.6,0-2.6,0.3-2.6,3.3c0,3,2,3.3,2.6,3.3
			c1.1,0,2.2-0.8,2.2-2.2c0-0.1,0-0.2,0.1-0.2c0.1,0,0.1,0.1,0.1,0.2c0,1.2-1,2.5-2.6,2.5c-1.9,0-3.5-1.6-3.5-3.6
			C306.5,113,308.1,111.4,310,111.4z"/>
		<path class="st1" d="M314.1,120.7c0,0.1-0.1,0.2-0.2,0.2c-0.1,0-0.2-0.1-0.2-0.2c0,0,0,0,0-0.2l3.4-9.4c0-0.1,0.1-0.2,0.2-0.2
			c0.1,0,0.2,0.1,0.2,0.2c0,0,0,0,0,0.2L314.1,120.7z"/>
	</g>
	<g>
		<path class="st1" d="M322.2,111.6c1.7,0,3,1.6,3,3.5c0,1.9-1.4,3.3-3,3.3h-3.6v-0.3h0.2c0.8,0,0.8-0.1,0.8-0.5v-5.3
			c0-0.4,0-0.5-0.8-0.5h-0.2v-0.3H322.2z M321.9,118.1c1,0,1.6-0.6,1.8-0.8c0.4-0.5,0.5-1.1,0.5-2.2c0-0.8-0.1-1.6-0.5-2.2
			c-0.5-0.7-1.2-0.9-1.8-0.9h-1c-0.5,0-0.5,0.1-0.5,0.4v5.4c0,0.3,0,0.4,0.5,0.4H321.9z"/>
	</g>
	<polygon class="st0" points="301.7,116 301.7,126.6 330,126.6 330,105.3 301.7,105.3 	"/>
	<polyline points="318.1,131.1 315.8,126.6 313.6,131.1 315.8,130 	"/>
	<line class="st0" x1="315.8" y1="140.8" x2="315.8" y2="130"/>
	<g>
		<path class="st1" d="M302.1,148.9c0,0.1-0.2,1.3-0.6,1.9c-0.2,0.4-0.6,1-1.1,1c-0.4,0-0.8-0.2-0.8-0.7c0-0.4,0.3-0.6,0.5-0.6
			c0.2,0,0.4,0.1,0.4,0.3c0,0.1-0.1,0.5-0.5,0.5c0.2,0.2,0.4,0.2,0.5,0.2c0.5,0,0.7-0.9,0.9-1.9l0.7-3.9h-0.7c-0.2,0-0.3,0-0.3-0.1
			c0-0.2,0.1-0.2,0.3-0.2h0.7c0.2-1.3,0.3-1.4,0.3-1.6c0.3-1,0.9-1.2,1.3-1.2c0.4,0,0.9,0.2,0.9,0.7c0,0.4-0.3,0.6-0.5,0.6
			c-0.2,0-0.4-0.1-0.4-0.3c0-0.1,0.1-0.5,0.5-0.5c-0.2-0.2-0.4-0.2-0.5-0.2c-0.2,0-0.4,0.1-0.5,0.3c-0.1,0.1-0.2,0.8-0.2,1l-0.2,1.1
			h0.8c0.2,0,0.3,0,0.3,0.1c0,0.2-0.1,0.2-0.3,0.2h-0.9L302.1,148.9z"/>
	</g>
	<g>
		<path class="st1" d="M307.3,151.2h-2.9c0-0.2,0-0.2,0.1-0.3l1.7-1.7c0.2-0.3,0.7-0.7,0.7-1.3c0-0.6-0.4-1.1-1.1-1.1
			c-0.3,0-0.8,0.2-1,0.6c0.4,0,0.4,0.2,0.4,0.4c0,0.3-0.2,0.4-0.4,0.4c-0.1,0-0.4,0-0.4-0.4c0-0.6,0.6-1.2,1.5-1.2
			c0.9,0,1.6,0.5,1.6,1.4c0,0.7-0.5,1.1-1,1.5c-0.4,0.3-0.7,0.5-1.4,1.2h1.3c0.1,0,0.6,0,0.7,0c0.1-0.1,0.2-0.5,0.2-0.6h0.2
			L307.3,151.2z"/>
	</g>
	<g>
		<path class="st1" d="M312.1,146.5c-0.1,0-0.3,0-0.3-0.2c0-0.2,0.2-0.2,0.3-0.2h6c0.1,0,0.3,0,0.3,0.2c0,0.2-0.2,0.2-0.3,0.2H312.1
			z M312.1,148.4c-0.1,0-0.3,0-0.3-0.2s0.2-0.2,0.3-0.2h5.9c0.1,0,0.3,0,0.3,0.2s-0.2,0.2-0.3,0.2H312.1z"/>
	</g>
	<g>
		<path class="st1" d="M327.5,145.4c0,0.2,0,0.3,0.7,0.3h0.3v0.3c-0.2,0-1,0-1.2,0c-0.3,0-1.1,0-1.2,0v-0.3h0.3
			c0.7,0,0.7-0.1,0.7-0.3v-3.6c-0.4,0.2-0.8,0.2-1,0.2v-0.3c0.3,0,0.9,0,1.4-0.4c0.2,0,0.2,0,0.2,0.2V145.4z"/>
	</g>
	<polyline points="322.8,147.6 331.5,147.6 331.5,147.1 322.8,147.1 	"/>
	<g>
		<path class="st1" d="M325.3,152.7c0,0.1,0,0.1,0,0.2c0,0.1,0,0.1,0.3,0.1c0.1,0,0.3,0,0.4,0c0.2,0,0.3,0,0.3,0.1
			c0,0.2-0.1,0.2-0.2,0.2c-0.2,0-0.4,0-0.6,0c-0.2,0-0.4,0-0.6,0c-0.2,0-0.4,0-0.6,0s-0.4,0-0.6,0c-0.1,0-0.1-0.1-0.1-0.1
			c0-0.2,0.1-0.2,0.3-0.2c0.7,0,0.8-0.1,0.8-0.3l0.9-3.7c0-0.1,0-0.1,0-0.1c0-0.1,0-0.1-0.2-0.1h-0.3c-1.1,0-1.3,0.1-1.7,1.2
			c0,0.1-0.1,0.2-0.1,0.2c-0.1,0-0.1-0.1-0.1-0.1c0,0,0-0.1,0-0.1l0.4-1.2c0-0.1,0.1-0.1,0.2-0.1h4.3c0.1,0,0.2,0,0.2,0.1l-0.2,1.3
			c0,0.1,0,0.2-0.1,0.2c-0.1,0-0.1,0-0.1-0.1l0-0.1c0-0.4,0-0.5,0-0.6c0-0.3,0-0.5-0.3-0.6c-0.2-0.1-0.4-0.1-0.8-0.1
			c-0.1,0-0.4,0-0.4,0c-0.2,0-0.2,0-0.2,0.2L325.3,152.7z"/>
	</g>
	<g>
		<path class="st1" d="M330.3,154.2H328V154c0,0,0,0,0.1-0.1l1.2-1c0.4-0.3,0.7-0.6,0.7-1.1c0-0.5-0.4-0.8-0.9-0.8
			c-0.3,0-0.6,0.1-0.8,0.4c0.2,0,0.3,0.1,0.3,0.3c0,0.2-0.2,0.3-0.3,0.3c-0.1,0-0.3,0-0.3-0.3c0-0.5,0.5-0.9,1.2-0.9
			c0.7,0,1.3,0.4,1.3,1c0,0.5-0.4,0.8-0.9,1.1c-0.3,0.2-0.7,0.5-1,0.7h1c0.1,0,0.5,0,0.5,0c0.1,0,0.1-0.4,0.1-0.5h0.2L330.3,154.2z"
			/>
	</g>
	<polyline points="368,118.2 372.5,116 368,113.7 369.1,116 	"/>
	<line class="st0" x1="330" y1="116" x2="369.1" y2="116"/>
	<g>
		<path class="st1" d="M352.2,107.8c-0.3,1.1-1.3,2-2.3,2c-0.6,0-1.1-0.4-1.1-0.9c0-0.5,0.3-0.6,0.6-0.6c0.1,0,0.4,0,0.4,0.3
			c0,0.2-0.1,0.3-0.2,0.4c-0.1,0.1-0.3,0.1-0.4,0.1c0.2,0.4,0.6,0.4,0.8,0.4c0.5,0,0.8-0.3,1.1-0.6c0.4-0.5,0.5-1,0.6-1.5
			c-0.3,0.3-0.6,0.4-1,0.4c-0.6,0-1.2-0.3-1.2-1.2c0-0.5,0.2-1,0.6-2.1c0.1-0.2,0.2-0.4,0.2-0.7c0-0.3-0.2-0.3-0.2-0.3
			c-0.3,0-0.7,0.3-1,1.2c0,0.2-0.1,0.2-0.2,0.2c0,0-0.1,0-0.1-0.1c0-0.1,0.4-1.5,1.3-1.5c0.5,0,0.8,0.4,0.8,0.8c0,0.2,0,0.3-0.2,0.7
			c-0.3,0.9-0.5,1.5-0.5,2c0,0.4,0.1,0.8,0.6,0.8c0.7,0,1.1-0.7,1.1-0.8l0.4-1.8c0.1-0.3,0.1-0.5,0.2-0.8c0-0.2,0.1-0.5,0.1-0.5
			c0.1-0.1,0.2-0.2,0.3-0.2c0.1,0,0.3,0.1,0.3,0.3c0,0.1,0,0.1,0,0.2L352.2,107.8z"/>
	</g>
	<g>
		<path class="st1" d="M354.7,110.3v-10h1.4v0.4h-1v9.2h1v0.4H354.7z"/>
	</g>
	<g>
		<path class="st1" d="M357.8,104.9c0.1-0.5,0.2-0.6,0.2-0.8c0-0.3-0.1-0.5-0.3-0.5c-0.4,0-0.6,0.5-0.7,1.2
			c-0.1,0.2-0.1,0.2-0.2,0.2c0,0-0.1,0-0.1-0.1c0,0,0.1-0.6,0.3-1c0.1-0.2,0.3-0.6,0.7-0.6c0.5,0,0.9,0.3,0.9,0.9
			c0.2-0.2,0.7-0.9,1.6-0.9c0.7,0,1.1,0.4,1.1,1.1c0,0.6-0.4,1.7-0.6,2.2c-0.1,0.2-0.2,0.5-0.2,0.7c0,0.2,0.1,0.3,0.2,0.3
			c0.5,0,0.8-0.6,1-1.2c0.1-0.1,0.1-0.2,0.2-0.2c0,0,0.1,0,0.1,0.1c0,0.1-0.4,1.5-1.3,1.5c-0.5,0-0.8-0.3-0.8-0.8
			c0-0.1,0-0.2,0.1-0.5c0.2-0.4,0.6-1.7,0.6-2.3c0-0.3-0.1-0.7-0.5-0.7c-0.9,0-1.5,0.9-1.6,1.2c0,0-0.1,0.3-0.1,0.5
			c0,0.2-0.1,0.4-0.2,0.7l-0.2,0.9c-0.1,0.2-0.2,0.7-0.2,0.7c-0.1,0.2-0.2,0.3-0.4,0.3c-0.1,0-0.3-0.1-0.3-0.3c0,0,0.1-0.3,0.1-0.4
			L357.8,104.9z"/>
	</g>
	<g>
		<path class="st1" d="M365.9,105.8c-0.3,0-0.5-0.2-0.5-0.5s0.2-0.5,0.5-0.5s0.5,0.2,0.5,0.5S366.2,105.8,365.9,105.8z"/>
	</g>
	<g>
		<path class="st1" d="M372.5,107c0,0.1,0,0.2,0,0.2c0,0.2,0.1,0.2,0.4,0.2c0.3,0,0.4,0,0.6,0c0.3,0,0.3,0,0.3,0.1
			c0,0.2-0.1,0.2-0.2,0.2c-0.3,0-0.6,0-0.9,0c-0.3,0-0.5,0-0.8,0c-0.3,0-0.6,0-0.8,0c-0.3,0-0.5,0-0.8,0c-0.1,0-0.2,0-0.2-0.1
			c0-0.2,0.1-0.2,0.4-0.2c1.1,0,1.1-0.1,1.2-0.5l1.3-5.3c0,0,0-0.1,0-0.2c0-0.1,0-0.1-0.3-0.1h-0.4c-1.5,0-1.7,0.2-2.3,1.7
			c-0.1,0.2-0.1,0.2-0.2,0.2c-0.1,0-0.1,0-0.1-0.1c0,0,0-0.2,0.1-0.2l0.6-1.8c0.1-0.2,0.1-0.2,0.3-0.2h5.5c0.2,0,0.3,0,0.3,0.1
			c0,0,0,0.1,0,0.2l-0.3,1.7c0,0.1,0,0.2-0.1,0.2c-0.1,0-0.1-0.1-0.1-0.1c0,0,0-0.2,0-0.2c0-0.3,0.1-0.6,0.1-0.8
			c0-0.8-0.4-0.8-1.5-0.8c-0.2,0-0.5,0-0.6,0c-0.1,0-0.2,0.1-0.2,0.4L372.5,107z"/>
	</g>
	<g>
		<path class="st1" d="M378.7,109.2h-2.9c0-0.2,0-0.2,0.1-0.3l1.7-1.7c0.2-0.3,0.7-0.7,0.7-1.3c0-0.6-0.4-1.1-1.1-1.1
			c-0.3,0-0.8,0.2-1,0.6c0.4,0,0.4,0.2,0.4,0.4c0,0.3-0.2,0.4-0.4,0.4c-0.1,0-0.4,0-0.4-0.4c0-0.6,0.6-1.2,1.5-1.2
			c0.9,0,1.6,0.5,1.6,1.4c0,0.7-0.5,1.1-1,1.5c-0.4,0.3-0.7,0.5-1.4,1.2h1.3c0.1,0,0.6,0,0.7,0c0.1-0.1,0.2-0.5,0.2-0.6h0.2
			L378.7,109.2z"/>
	</g>
	<g>
		<path class="st1" d="M381.4,110.3h-1.4v-0.4h1v-9.2h-1v-0.4h1.4V110.3z"/>
	</g>
	<g>
		<path class="st1" d="M32.2,106.1c-0.1,0.4-0.2,0.7-0.2,0.9c0,0.3,0.2,0.7,0.5,0.7c0.3,0,1-0.2,1.3-1.3c0-0.1,0-0.1,0.1-0.1
			c0,0,0.1,0,0.1,0.1c0,0.2-0.6,1.5-1.6,1.5c-0.6,0-1-0.4-1.1-0.8c0,0.1-0.4,0.8-1,0.8c-0.4,0-0.9-0.2-0.9-0.7
			c0-0.3,0.2-0.6,0.5-0.6c0.1,0,0.4,0.1,0.4,0.3c0,0.3-0.2,0.5-0.5,0.5c0.2,0.1,0.4,0.1,0.5,0.1c0.4,0,0.8-0.4,0.9-1
			c0.4-1.4,0.5-2.1,0.5-2.4c0-0.6-0.3-0.7-0.5-0.7c-0.3,0-1,0.2-1.3,1.3c0,0.1-0.1,0.1-0.1,0.1c0,0-0.1,0-0.1-0.1
			c0-0.3,0.6-1.5,1.6-1.5c0.3,0,0.8,0.1,1.1,0.8c0.1-0.2,0.5-0.8,1-0.8c0.3,0,0.9,0.1,0.9,0.7c0,0.4-0.3,0.6-0.5,0.6
			c-0.3,0-0.4-0.2-0.4-0.3c0-0.2,0.2-0.5,0.5-0.5c-0.2-0.1-0.4-0.1-0.5-0.1c-0.7,0-0.9,0.9-1,1.2L32.2,106.1z"/>
	</g>
	<g>
		<path class="st1" d="M36,110.3v-10h1.4v0.4h-1v9.2h1v0.4H36z"/>
	</g>
	<g>
		<path class="st1" d="M39.1,104.9c0.1-0.5,0.2-0.6,0.2-0.8c0-0.3-0.1-0.5-0.3-0.5c-0.4,0-0.6,0.5-0.7,1.2c-0.1,0.2-0.1,0.2-0.2,0.2
			c0,0-0.1,0-0.1-0.1c0,0,0.1-0.6,0.3-1c0.1-0.2,0.3-0.6,0.7-0.6c0.5,0,0.9,0.3,0.9,0.9c0.2-0.2,0.7-0.9,1.6-0.9
			c0.7,0,1.1,0.4,1.1,1.1c0,0.6-0.4,1.7-0.6,2.2c-0.1,0.2-0.2,0.5-0.2,0.7c0,0.2,0.1,0.3,0.2,0.3c0.5,0,0.8-0.6,1-1.2
			c0-0.1,0-0.2,0.1-0.2c0,0,0.1,0,0.1,0.1c0,0.1-0.4,1.5-1.3,1.5c-0.5,0-0.8-0.3-0.8-0.8c0-0.1,0-0.2,0.1-0.5
			c0.2-0.4,0.6-1.7,0.6-2.3c0-0.3-0.1-0.7-0.5-0.7c-0.9,0-1.5,0.9-1.6,1.2c0,0-0.1,0.3-0.1,0.5c0,0.2-0.1,0.4-0.2,0.7l-0.2,0.9
			c-0.1,0.2-0.2,0.7-0.2,0.7c-0.1,0.2-0.2,0.3-0.4,0.3c-0.1,0-0.3-0.1-0.3-0.3c0,0,0.1-0.3,0.1-0.4L39.1,104.9z"/>
	</g>
	<g>
		<path class="st1" d="M47.3,105.8c-0.3,0-0.5-0.2-0.5-0.5s0.2-0.5,0.5-0.5c0.3,0,0.5,0.2,0.5,0.5S47.6,105.8,47.3,105.8z"/>
	</g>
	<g>
		<path class="st1" d="M53.7,107c0,0.1,0,0.2,0,0.2c0,0.2,0.1,0.2,0.4,0.2c0.3,0,0.4,0,0.6,0c0.3,0,0.3,0,0.3,0.1
			c0,0.2-0.1,0.2-0.2,0.2c-0.3,0-0.6,0-0.9,0c-0.3,0-0.5,0-0.8,0c-0.3,0-0.6,0-0.8,0c-0.3,0-0.5,0-0.8,0c-0.1,0-0.2,0-0.2-0.1
			c0-0.2,0.1-0.2,0.4-0.2c1.1,0,1.1-0.1,1.2-0.5l1.3-5.3c0,0,0-0.1,0-0.2c0-0.1,0-0.1-0.3-0.1h-0.4c-1.5,0-1.7,0.2-2.3,1.7
			c-0.1,0.2-0.1,0.2-0.2,0.2c-0.1,0-0.1,0-0.1-0.1c0,0,0-0.2,0.1-0.2l0.6-1.8c0.1-0.2,0.1-0.2,0.3-0.2h5.5c0.2,0,0.3,0,0.3,0.1
			c0,0,0,0.1,0,0.2l-0.3,1.7c0,0.1,0,0.2-0.1,0.2c-0.1,0-0.1-0.1-0.1-0.1c0,0,0-0.2,0-0.2c0-0.3,0.1-0.6,0.1-0.8
			c0-0.8-0.4-0.8-1.5-0.8c-0.2,0-0.5,0-0.6,0c-0.1,0-0.2,0.1-0.2,0.4L53.7,107z"/>
	</g>
	<g>
		<path class="st1" d="M59,108.6c0,0.2,0,0.3,0.7,0.3H60v0.3c-0.2,0-1,0-1.2,0c-0.3,0-1.1,0-1.2,0V109h0.3c0.7,0,0.7-0.1,0.7-0.3
			v-3.6c-0.4,0.2-0.8,0.2-1,0.2V105c0.3,0,0.9,0,1.4-0.4c0.2,0,0.2,0,0.2,0.2V108.6z"/>
	</g>
	<g>
		<path class="st1" d="M62.7,110.3h-1.4v-0.4h1v-9.2h-1v-0.4h1.4V110.3z"/>
	</g>
	<path class="st2" d="M358.3,172.7l14.2-21.3 M372.5,151.4l14.2,21.3"/>
	<polyline points="396.3,174.9 400.9,172.7 396.3,170.4 397.5,172.7 	"/>
	<line class="st0" x1="344.2" y1="172.7" x2="397.5" y2="172.7"/>
	<polyline points="374.8,148.8 372.5,144.3 370.2,148.8 372.5,147.7 	"/>
	<line class="st0" x1="372.5" y1="176.2" x2="372.5" y2="147.7"/>
	<g>
		<path class="st1" d="M414.2,176.2c-0.9,0-1.2-1.1-1.2-2c0-2.3,1.5-5.1,2.9-5.1c1,0,1.2,1.4,1.2,2
			C417.1,173.3,415.6,176.2,414.2,176.2z M414,172.7c-0.3,1-0.3,1.6-0.3,2c0,0.9,0.2,1.2,0.5,1.2c0.4,0,0.8-0.5,1.2-1.2
			c0.4-0.7,0.6-1.6,0.7-2H414z M416.2,172.4c0.2-1,0.3-1.5,0.3-2c0-0.6-0.1-1.2-0.5-1.2c-0.4,0-0.8,0.6-1.1,1
			c-0.4,0.7-0.6,1.5-0.8,2.1H416.2z"/>
	</g>
	<g>
		<path class="st1" d="M362.2,138.3c-0.1,0.1-0.1,0.1-0.1,0.3l-0.3,1.4c0,0.2-0.1,0.6-0.1,0.6c0,0.1,0.1,0.1,0.3,0.2
			c0.2,0,0.4,0,0.4,0c0.2,0,0.3,0,0.3,0.1c0,0.2-0.1,0.2-0.2,0.2c-0.3,0-1,0-1.3,0s-1,0-1.3,0c0,0-0.1,0-0.1-0.1
			c0-0.2,0.1-0.2,0.3-0.2c0.8,0,0.8,0,0.9-0.6c0-0.2,0.4-1.8,0.4-1.8c0,0,0-0.1,0-0.2L360,135c-0.1-0.2-0.1-0.3-0.7-0.3
			c-0.1,0-0.2,0-0.2-0.1c0-0.2,0.1-0.2,0.2-0.2c0.2,0,0.9,0,1.1,0c0.3,0,1,0,1.3,0c0,0,0.1,0,0.1,0.1c0,0.2-0.1,0.2-0.2,0.2
			c-0.1,0-0.6,0-0.6,0.2c0,0,0,0,0.1,0.2l1.1,3l2.3-2.7c0,0,0.3-0.3,0.3-0.5c0-0.2-0.3-0.2-0.4-0.2c0,0-0.1,0-0.1-0.1
			c0-0.2,0.1-0.2,0.2-0.2c0.3,0,0.7,0,1,0c0.3,0,0.6,0,0.8,0c0.1,0,0.1,0,0.1,0.1c0,0.2-0.1,0.2-0.2,0.2c-0.7,0-1,0.4-1.3,0.7
			l-0.1,0.1L362.2,138.3z"/>
	</g>
	<g>
		<path class="st1" d="M369.8,143.6c-0.1,0-1-0.6-1.6-1.9c-0.5-1.1-0.7-2.3-0.7-3.1c0-0.8,0.1-1.9,0.6-3c0.6-1.3,1.5-1.9,1.6-1.9
			c0.1,0,0.1,0,0.1,0.1c0,0,0,0-0.1,0.2c-1.2,1.2-1.6,3-1.6,4.7c0,1.5,0.3,3.4,1.6,4.7C369.9,143.5,369.9,143.5,369.8,143.6
			C369.9,143.6,369.9,143.6,369.8,143.6z"/>
		<path class="st1" d="M371.9,140.3c0.2,0.4,0.6,0.7,1.1,0.7c0.1,0,1,0,1.3-1c0-0.1,0-0.1,0.1-0.1c0,0,0.1,0,0.1,0.1
			c0,0.2-0.4,1.3-1.7,1.3c-1.1,0-2.2-1-2.2-2.3c0-1.2,0.9-2.3,2.1-2.3c1.2,0,1.8,1,1.8,2c0,0.2,0,0.2-0.2,0.2h-2.8
			C371.6,139.2,371.6,139.8,371.9,140.3z M374,138.6c0-0.4-0.1-1.7-1.1-1.7c-0.3,0-1.2,0.3-1.2,1.7H374z"/>
	</g>
	<g>
		<path class="st1" d="M377,137.9c0,0.9-0.6,1.5-1.4,1.5c-0.6,0-1.1-0.3-1.1-0.8c0-0.3,0.2-0.5,0.5-0.5c0.3,0,0.5,0.2,0.5,0.5
			c0,0.3-0.2,0.4-0.3,0.4c0.3,0.1,0.5,0.1,0.5,0.1c0.6,0,0.7-0.9,0.7-1.3V134c0-0.5-0.1-0.6-0.9-0.6v-0.3l1.5-0.1V137.9z
			 M376.5,131.8c-0.3,0-0.5-0.2-0.5-0.5s0.2-0.5,0.5-0.5s0.5,0.2,0.5,0.5S376.8,131.8,376.5,131.8z"/>
	</g>
	<g>
		<path class="st1" d="M379.4,137.5c-0.6,0-1-0.7-1-1.5c0-1.6,1.1-3.5,2.2-3.5c0.7,0,1,0.8,1,1.5
			C381.6,135.6,380.5,137.5,379.4,137.5z M379.2,135.1c-0.1,0.3-0.2,0.8-0.2,1.3c0,0.4,0.1,0.9,0.4,0.9c0.3,0,0.6-0.3,0.8-0.7
			c0.2-0.3,0.4-0.7,0.6-1.5H379.2z M380.9,134.9c0.1-0.6,0.2-1,0.2-1.3c0-0.1,0-0.9-0.4-0.9c-0.4,0-1,0.7-1.4,2.2H380.9z"/>
	</g>
	<g>
		<path class="st1" d="M384.7,141.7c-0.6,1.3-1.5,1.9-1.6,1.9c-0.1,0-0.1,0-0.1-0.1c0,0,0,0,0.1-0.2c1.2-1.3,1.6-3,1.6-4.7
			c0-2.1-0.6-3.7-1.5-4.7c-0.2-0.2-0.2-0.2-0.2-0.2c0-0.1,0-0.1,0.1-0.1c0.1,0,1,0.6,1.6,1.9c0.5,1.1,0.7,2.3,0.7,3.1
			C385.4,139.5,385.2,140.6,384.7,141.7z"/>
	</g>
	<g>
		<path class="st1" d="M339.6,187v-0.6h2.6v0.6H339.6z"/>
	</g>
	<g>
		<path class="st1" d="M345,187.4c-0.1,0.5-0.1,0.5-0.3,1c-0.1,0.4-0.2,0.6-0.5,0.6c-0.1,0-0.3-0.1-0.3-0.3c0-0.1,0-0.1,0.1-0.2
			c0.4-0.9,1-2.1,1.3-3.3h-0.6c-0.2,0-0.8,0-1.3,0.8c-0.1,0.1-0.1,0.1-0.2,0.1c-0.1,0-0.1-0.1-0.1-0.1c0,0,0.3-0.5,0.6-0.9
			c0.4-0.5,0.8-0.5,1-0.5h3.3c0.2,0,0.4,0,0.4,0.2c0,0.3-0.4,0.3-0.5,0.3h-1.1c-0.1,0.5-0.2,1.1-0.2,1.6c0,0.3,0,0.9,0.3,1.6
			c0.1,0.1,0.1,0.2,0.1,0.2c0,0.2-0.2,0.4-0.4,0.4c-0.1,0-0.3-0.1-0.4-0.5c-0.1-0.3-0.1-0.6-0.1-0.8c0-0.7,0.1-1.1,0.4-2.6h-1.1
			L345,187.4z"/>
	</g>
	<g>
		<path class="st1" d="M374.2,189c-0.4,0.9-1.2,1.2-1.7,1.2c-0.5,0-1.2-0.2-1.6-1c-0.4-0.8-0.4-1.7-0.4-2.4c0-0.8,0-1.6,0.4-2.3
			c0.4-0.9,1.1-1.2,1.7-1.2c0.4,0,1.2,0.2,1.7,1.1c0.3,0.7,0.4,1.5,0.4,2.3C374.6,187.6,374.5,188.3,374.2,189z M373.7,188.7
			c0.1-0.6,0.1-1.3,0.1-2.1c0-0.6,0-1.4-0.1-1.9c-0.2-1-0.8-1.2-1.2-1.2c-0.2,0-1,0.1-1.2,1.3c-0.1,0.5-0.1,1.2-0.1,1.8
			c0,0.6,0,1.5,0.1,2.1c0.2,1,0.8,1.2,1.2,1.2C372.9,190,373.5,189.7,373.7,188.7z"/>
	</g>
	<g>
		<path class="st1" d="M399.9,187.4c-0.1,0.5-0.1,0.5-0.3,1c-0.1,0.4-0.2,0.6-0.5,0.6c-0.1,0-0.3-0.1-0.3-0.3c0-0.1,0-0.1,0.1-0.2
			c0.4-0.9,1-2.1,1.3-3.3h-0.6c-0.2,0-0.8,0-1.3,0.8c-0.1,0.1-0.1,0.1-0.2,0.1c-0.1,0-0.1-0.1-0.1-0.1c0,0,0.3-0.5,0.6-0.9
			c0.4-0.5,0.8-0.5,1-0.5h3.3c0.2,0,0.4,0,0.4,0.2c0,0.3-0.4,0.3-0.5,0.3h-1.1c-0.1,0.5-0.2,1.1-0.2,1.6c0,0.3,0,0.9,0.3,1.6
			c0.1,0.1,0.1,0.2,0.1,0.2c0,0.2-0.2,0.4-0.4,0.4c-0.1,0-0.3-0.1-0.4-0.5c-0.1-0.3-0.1-0.6-0.1-0.8c0-0.7,0.1-1.1,0.4-2.6h-1.1
			L399.9,187.4z"/>
	</g>
	<path class="st0" d="M400.9,176.2v-7.1 M344.2,176.2v-7.1"/>
	<path class="st3" d="M344.2,53.4c5.3-1.3,9-8.3,14.2-7.1c5.8,1.4,5.7,10.6,10.6,14.2c3.1,2.3,6.8,3.8,10.6,3.5
		c8.1-0.6,21.3-10.6,21.3-10.6l0,0"/>
	<line class="st0" x1="344.2" y1="81.8" x2="344.2" y2="53.4"/>
	<g>
		<path class="st1" d="M344.2,55c-1.1,0-1.9-0.9-1.9-1.9c0-1,0.9-1.9,1.9-1.9c1,0,1.9,0.9,1.9,1.9C346.1,54.1,345.2,55,344.2,55z"/>
	</g>
	<line class="st0" x1="400.9" y1="81.8" x2="400.9" y2="53.4"/>
	<g>
		<path class="st1" d="M400.9,55c-1.1,0-1.9-0.9-1.9-1.9c0-1,0.9-1.9,1.9-1.9c1,0,1.9,0.9,1.9,1.9C402.9,54.1,402,55,400.9,55z"/>
	</g>
	<line class="st0" x1="386.7" y1="81.8" x2="386.7" y2="64"/>
	<g>
		<path class="st1" d="M386.8,62.1c-1.1,0-1.9-0.9-1.9-1.9c0-1,0.9-1.9,1.9-1.9c1,0,1.9,0.9,1.9,1.9
			C388.7,61.2,387.8,62.1,386.8,62.1z"/>
	</g>
	<line class="st0" x1="372.5" y1="81.8" x2="372.5" y2="64"/>
	<g>
		<path class="st1" d="M372.5,62.1c-1.1,0-1.9-0.9-1.9-1.9c0-1,0.9-1.9,1.9-1.9c1,0,1.9,0.9,1.9,1.9
			C374.4,61.2,373.5,62.1,372.5,62.1z"/>
	</g>
	<line class="st0" x1="358.3" y1="81.8" x2="358.3" y2="46.3"/>
	<g>
		<path class="st1" d="M358.3,47.9c-1.1,0-1.9-0.9-1.9-1.9c0-1,0.9-1.9,1.9-1.9c1,0,1.9,0.9,1.9,1.9C360.3,47,359.4,47.9,358.3,47.9
			z"/>
	</g>
	<polyline points="403.4,84 407.9,81.8 403.4,79.5 404.5,81.8 	"/>
	<line class="st0" x1="337.1" y1="81.8" x2="404.5" y2="81.8"/>
	<g>
		<path class="st1" d="M413.6,81c0.1-0.5,0.2-0.6,0.2-0.8c0-0.3-0.1-0.5-0.3-0.5c-0.4,0-0.6,0.5-0.7,1.2c-0.1,0.2-0.1,0.2-0.2,0.2
			c0,0-0.1,0-0.1-0.1c0,0,0.1-0.6,0.3-1c0.1-0.2,0.3-0.6,0.7-0.6c0.5,0,0.9,0.3,0.9,0.9c0.2-0.2,0.7-0.9,1.6-0.9
			c0.7,0,1.1,0.4,1.1,1.1c0,0.6-0.4,1.7-0.6,2.2c-0.1,0.2-0.2,0.5-0.2,0.7c0,0.2,0.1,0.3,0.2,0.3c0.5,0,0.8-0.6,1-1.2
			c0.1-0.1,0.1-0.2,0.2-0.2c0,0,0.1,0,0.1,0.1c0,0.1-0.4,1.5-1.3,1.5c-0.5,0-0.8-0.3-0.8-0.8c0-0.1,0-0.2,0.1-0.5
			c0.2-0.4,0.6-1.7,0.6-2.3c0-0.3-0.1-0.7-0.5-0.7c-0.9,0-1.5,0.9-1.6,1.2c0,0-0.1,0.3-0.1,0.5c0,0.2-0.1,0.4-0.2,0.7l-0.2,0.9
			c-0.1,0.2-0.2,0.7-0.2,0.7c-0.1,0.2-0.2,0.3-0.4,0.3c-0.1,0-0.3-0.1-0.3-0.3c0-0.1,0.1-0.3,0.1-0.4L413.6,81z"/>
	</g>
	<path class="st0" d="M383.1,38h21.3 M386.7,41.6v-7.1 M400.9,41.6v-7.1"/>
	<polyline points="405.4,35.7 400.9,38 405.4,40.3 404.3,38 	"/>
	<line class="st0" x1="404.4" y1="38" x2="404.3" y2="38"/>
	<polyline points="382.2,40.3 386.7,38 382.2,35.7 383.3,38 	"/>
	<line class="st0" x1="383.1" y1="38" x2="383.3" y2="38"/>
	<g>
		<path class="st1" d="M391.5,32.7c0,0.1,0,0.2,0,0.2c0,0.2,0.1,0.2,0.4,0.2c0.3,0,0.4,0,0.6,0c0.3,0,0.3,0,0.3,0.1
			c0,0.2-0.1,0.2-0.2,0.2c-0.3,0-0.6,0-0.9,0c-0.3,0-0.5,0-0.8,0c-0.3,0-0.6,0-0.8,0c-0.3,0-0.5,0-0.8,0c-0.1,0-0.2,0-0.2-0.1
			c0-0.2,0.1-0.2,0.4-0.2c1.1,0,1.1-0.1,1.2-0.5l1.3-5.3c0,0,0-0.1,0-0.2c0-0.1,0-0.1-0.3-0.1h-0.4c-1.5,0-1.7,0.2-2.3,1.7
			c-0.1,0.2-0.1,0.2-0.2,0.2c-0.1,0-0.1,0-0.1-0.1c0,0,0-0.2,0.1-0.2l0.6-1.8c0.1-0.2,0.1-0.2,0.3-0.2h5.5c0.2,0,0.3,0,0.3,0.1
			c0,0,0,0.1,0,0.2l-0.3,1.7c0,0.1,0,0.2-0.1,0.2c-0.1,0-0.1-0.1-0.1-0.1c0,0,0-0.1,0-0.2c0-0.3,0.1-0.6,0.1-0.8
			c0-0.8-0.4-0.8-1.5-0.8c-0.2,0-0.5,0-0.6,0c-0.1,0-0.2,0.1-0.2,0.4L391.5,32.7z"/>
	</g>
	<g>
		<path class="st1" d="M397.8,34.9h-2.9c0-0.2,0-0.2,0.1-0.3l1.7-1.7c0.2-0.3,0.7-0.7,0.7-1.3c0-0.6-0.4-1.1-1.1-1.1
			c-0.3,0-0.8,0.2-1,0.6c0.4,0,0.4,0.2,0.4,0.4c0,0.3-0.2,0.4-0.4,0.4c-0.1,0-0.4,0-0.4-0.4c0-0.6,0.6-1.2,1.5-1.2
			c0.9,0,1.6,0.5,1.6,1.4c0,0.7-0.5,1.1-1,1.5c-0.4,0.3-0.7,0.5-1.4,1.2h1.3c0.1,0,0.6,0,0.7,0c0.1-0.1,0.2-0.5,0.2-0.6h0.2
			L397.8,34.9z"/>
	</g>
	<path class="st0" d="M39.4,30.9h31.9 M39.4,34.5v-7.1 M67.8,34.5v-7.1"/>
	<polyline points="72.3,28.7 67.8,30.9 72.3,33.2 71.2,30.9 	"/>
	<line class="st0" x1="71.3" y1="30.9" x2="71.2" y2="30.9"/>
	<polyline points="34.9,33.2 39.4,30.9 34.9,28.7 36,30.9 	"/>
	<line class="st0" x1="35.9" y1="30.9" x2="36" y2="30.9"/>
	<g>
		<path class="st1" d="M51.5,25.6c0,0.1,0,0.2,0,0.2c0,0.2,0.1,0.2,0.4,0.2c0.3,0,0.4,0,0.6,0c0.3,0,0.3,0,0.3,0.1
			c0,0.2-0.1,0.2-0.2,0.2c-0.3,0-0.6,0-0.9,0c-0.3,0-0.5,0-0.8,0c-0.3,0-0.6,0-0.8,0c-0.3,0-0.5,0-0.8,0c-0.1,0-0.2,0-0.2-0.1
			c0-0.2,0.1-0.2,0.4-0.2c1.1,0,1.1-0.1,1.2-0.5l1.3-5.3c0,0,0-0.1,0-0.2c0-0.1,0-0.1-0.3-0.1h-0.4c-1.5,0-1.7,0.2-2.3,1.7
			c-0.1,0.2-0.1,0.2-0.2,0.2c-0.1,0-0.1,0-0.1-0.1c0,0,0-0.2,0.1-0.2l0.6-1.8c0.1-0.2,0.1-0.2,0.3-0.2h5.5c0.2,0,0.3,0,0.3,0.1
			c0,0,0,0.1,0,0.2l-0.3,1.7c0,0.1,0,0.2-0.1,0.2c-0.1,0-0.1-0.1-0.1-0.1c0,0,0-0.1,0-0.2c0-0.3,0.1-0.6,0.1-0.8
			c0-0.8-0.4-0.8-1.5-0.8c-0.2,0-0.5,0-0.6,0c-0.1,0-0.2,0.1-0.2,0.4L51.5,25.6z"/>
	</g>
	<g>
		<path class="st1" d="M56.7,27.3c0,0.2,0,0.3,0.7,0.3h0.3v0.3c-0.2,0-1,0-1.2,0c-0.3,0-1.1,0-1.2,0v-0.3h0.3c0.7,0,0.7-0.1,0.7-0.3
			v-3.6c-0.4,0.2-0.8,0.2-1,0.2v-0.3c0.3,0,0.9,0,1.4-0.4c0.2,0,0.2,0,0.2,0.2V27.3z"/>
	</g>
	<path class="st3" d="M11.1,52.2c5.3-1.3,9-8.3,14.2-7.1c5.8,1.4,5.7,10.6,10.6,14.2c3.1,2.3,6.8,3.8,10.6,3.5
		c8.1-0.6,21.3-10.6,21.3-10.6l0,0"/>
	<line class="st0" x1="11.1" y1="80.5" x2="11.1" y2="52.2"/>
	<g>
		<path class="st1" d="M11.2,53.8c-1.1,0-1.9-0.9-1.9-1.9c0-1,0.9-1.9,1.9-1.9c1,0,1.9,0.9,1.9,1.9C13.1,52.9,12.2,53.8,11.2,53.8z"
			/>
	</g>
	<line class="st0" x1="67.8" y1="80.5" x2="67.8" y2="52.2"/>
	<g>
		<path class="st1" d="M67.8,53.8c-1.1,0-1.9-0.9-1.9-1.9c0-1,0.9-1.9,1.9-1.9c1,0,1.9,0.9,1.9,1.9C69.8,52.9,68.9,53.8,67.8,53.8z"
			/>
	</g>
	<line class="st0" x1="39.4" y1="80.5" x2="39.4" y2="62.8"/>
	<g>
		<path class="st1" d="M39.5,60.9c-1.1,0-1.9-0.9-1.9-1.9c0-1,0.9-1.9,1.9-1.9c1,0,1.9,0.9,1.9,1.9C41.4,60,40.5,60.9,39.5,60.9z"/>
	</g>
	<polyline points="70.3,82.8 74.9,80.5 70.3,78.3 71.5,80.5 	"/>
	<line class="st0" x1="4" y1="80.5" x2="71.5" y2="80.5"/>
	<g>
		<path class="st1" d="M80.5,79.8c0.1-0.5,0.2-0.6,0.2-0.8c0-0.3-0.1-0.5-0.3-0.5c-0.4,0-0.6,0.5-0.7,1.2c-0.1,0.2-0.1,0.2-0.2,0.2
			c0,0-0.1,0-0.1-0.1c0,0,0.1-0.6,0.3-1c0.1-0.2,0.3-0.6,0.7-0.6c0.5,0,0.9,0.3,0.9,0.9c0.2-0.2,0.7-0.9,1.6-0.9
			c0.7,0,1.1,0.4,1.1,1.1c0,0.6-0.4,1.7-0.6,2.2c-0.1,0.2-0.2,0.5-0.2,0.7c0,0.2,0.1,0.3,0.2,0.3c0.5,0,0.8-0.6,1-1.2
			c0-0.1,0-0.2,0.1-0.2c0,0,0.1,0,0.1,0.1c0,0.1-0.4,1.5-1.3,1.5c-0.5,0-0.8-0.3-0.8-0.8c0-0.1,0-0.2,0.1-0.5
			c0.2-0.4,0.6-1.7,0.6-2.3c0-0.3-0.1-0.7-0.5-0.7c-0.9,0-1.5,0.9-1.6,1.2c0,0-0.1,0.3-0.1,0.5c0,0.2-0.1,0.4-0.2,0.7l-0.2,0.9
			c-0.1,0.2-0.2,0.7-0.2,0.7c-0.1,0.2-0.2,0.3-0.4,0.3c-0.1,0-0.3-0.1-0.3-0.3c0-0.1,0.1-0.3,0.1-0.4L80.5,79.8z"/>
	</g>
	<path class="st2" d="M11.1,172.7l28.3-21.3 M39.4,151.4l28.3,21.3"/>
	<path class="st4" d="M67.8,172.7l10.6-7.1 M11.1,172.7l-10.6-7.1"/>
	<polyline points="73.9,174.9 78.4,172.7 73.9,170.4 75,172.7 	"/>
	<line class="st0" x1="4" y1="172.7" x2="75" y2="172.7"/>
	<polyline points="41.7,148.8 39.4,144.3 37.2,148.8 39.4,147.7 	"/>
	<line class="st0" x1="39.4" y1="176.2" x2="39.4" y2="147.7"/>
	<g>
		<path class="st1" d="M88.2,176.2c-0.9,0-1.2-1.1-1.2-2c0-2.3,1.5-5.1,2.9-5.1c1,0,1.2,1.4,1.2,2C91.1,173.3,89.6,176.2,88.2,176.2
			z M88,172.7c-0.3,1-0.3,1.6-0.3,2c0,0.9,0.2,1.2,0.5,1.2c0.4,0,0.8-0.5,1.2-1.2c0.4-0.7,0.6-1.6,0.7-2H88z M90.1,172.4
			c0.2-1,0.3-1.5,0.3-2c0-0.6-0.1-1.2-0.5-1.2c-0.4,0-0.8,0.6-1.1,1c-0.4,0.7-0.6,1.5-0.8,2.1H90.1z"/>
	</g>
	<g>
		<path class="st1" d="M31.6,135.3c0.1-0.1,0.2-0.2,0.2-0.4c0-0.3-0.3-0.3-0.4-0.3c-0.1,0-0.1,0-0.1-0.1c0-0.2,0.1-0.2,0.2-0.2
			c0.4,0,0.7,0,1.1,0c0.3,0,0.6,0,0.9,0c0.1,0,0.1,0.1,0.1,0.1c0,0.2-0.1,0.2-0.2,0.2c-0.6,0-1,0.3-1.3,0.5c-0.3,0.3-1.4,1.5-2,2.2
			c0.2,0.6,0.9,2.2,1.3,3.1c0.2,0.4,0.2,0.4,0.9,0.4c0.1,0,0.2,0,0.2,0.1c0,0.2-0.1,0.2-0.2,0.2c-0.2,0-0.9,0-1.1,0
			c-0.3,0-1,0-1.3,0c0,0-0.1,0-0.1-0.1c0-0.2,0.1-0.2,0.2-0.2c0.4,0,0.6-0.2,0.6-0.3c0,0,0,0,0-0.1l-1-2.4l-0.9,1l-1,1.1
			c-0.1,0.1-0.3,0.3-0.3,0.4c0,0.3,0.3,0.3,0.4,0.3c0,0,0.1,0,0.1,0.1c0,0.2-0.1,0.2-0.2,0.2c-0.4,0-0.7,0-1.1,0c-0.3,0-0.6,0-0.9,0
			c-0.1,0-0.1-0.1-0.1-0.1c0-0.2,0.1-0.2,0.2-0.2c0.5,0,1-0.2,1.5-0.7l0.1-0.1l2.1-2.3l-1.2-2.8c-0.1-0.2-0.1-0.3-0.7-0.3
			c-0.1,0-0.2,0-0.2-0.1c0-0.2,0.1-0.2,0.2-0.2c0.2,0,0.9,0,1.1,0c0.4,0,0.8,0,1.3,0c0,0,0.1,0,0.1,0.1c0,0.2-0.1,0.2-0.2,0.2
			c-0.4,0-0.6,0.2-0.6,0.3c0,0,0,0,0,0.1l0.8,2L31.6,135.3z"/>
	</g>
	<g>
		<path class="st1" d="M37.4,143.6c-0.1,0-1-0.6-1.6-1.9c-0.5-1.1-0.7-2.3-0.7-3.1c0-0.8,0.1-1.9,0.6-3c0.6-1.3,1.5-1.9,1.6-1.9
			c0.1,0,0.1,0,0.1,0.1c0,0,0,0-0.1,0.2c-1.2,1.2-1.6,3-1.6,4.7c0,1.5,0.3,3.4,1.6,4.7C37.5,143.5,37.5,143.5,37.4,143.6
			C37.5,143.6,37.5,143.6,37.4,143.6z"/>
		<path class="st1" d="M39.5,140.3c0.2,0.4,0.6,0.7,1.1,0.7c0.1,0,1,0,1.3-1c0-0.1,0-0.1,0.1-0.1c0,0,0.1,0,0.1,0.1
			c0,0.2-0.4,1.3-1.7,1.3c-1.1,0-2.2-1-2.2-2.3c0-1.2,0.9-2.3,2.1-2.3c1.2,0,1.8,1,1.8,2c0,0.2,0,0.2-0.2,0.2h-2.8
			C39.2,139.2,39.2,139.8,39.5,140.3z M41.6,138.6c0-0.4-0.1-1.7-1.1-1.7c-0.3,0-1.2,0.3-1.2,1.7H41.6z"/>
	</g>
	<g>
		<path class="st1" d="M44.5,137.9c0,0.9-0.6,1.5-1.4,1.5c-0.6,0-1.1-0.3-1.1-0.8c0-0.3,0.2-0.5,0.5-0.5c0.3,0,0.5,0.2,0.5,0.5
			c0,0.3-0.2,0.4-0.3,0.4c0.3,0.1,0.5,0.1,0.5,0.1c0.6,0,0.7-0.9,0.7-1.3V134c0-0.5-0.1-0.6-0.9-0.6v-0.3l1.5-0.1V137.9z M44,131.8
			c-0.3,0-0.5-0.2-0.5-0.5s0.2-0.5,0.5-0.5s0.5,0.2,0.5,0.5S44.3,131.8,44,131.8z"/>
	</g>
	<g>
		<path class="st1" d="M46.9,137.5c-0.6,0-1-0.7-1-1.5c0-1.6,1.1-3.5,2.2-3.5c0.7,0,1,0.8,1,1.5C49.1,135.6,48,137.5,46.9,137.5z
			 M46.7,135.1c-0.1,0.3-0.2,0.8-0.2,1.3c0,0.4,0.1,0.9,0.4,0.9c0.3,0,0.6-0.3,0.8-0.7c0.2-0.3,0.4-0.7,0.6-1.5H46.7z M48.4,134.9
			c0.1-0.6,0.2-1,0.2-1.3c0-0.1,0-0.9-0.4-0.9c-0.4,0-1,0.7-1.4,2.2H48.4z"/>
	</g>
	<g>
		<path class="st1" d="M52.2,141.7c-0.6,1.3-1.5,1.9-1.6,1.9c-0.1,0-0.1,0-0.1-0.1c0,0,0,0,0.1-0.2c1.2-1.3,1.6-3,1.6-4.7
			c0-2.1-0.6-3.7-1.5-4.7c-0.2-0.2-0.2-0.2-0.2-0.2c0-0.1,0-0.1,0.1-0.1c0.1,0,1,0.6,1.6,1.9c0.5,1.1,0.7,2.3,0.7,3.1
			C52.8,139.5,52.7,140.6,52.2,141.7z"/>
	</g>
	<g>
		<path class="st1" d="M6.5,187v-0.6h2.6v0.6H6.5z"/>
	</g>
	<g>
		<path class="st1" d="M11.8,187.4c-0.1,0.5-0.1,0.5-0.3,1c-0.1,0.4-0.2,0.6-0.5,0.6c-0.1,0-0.3-0.1-0.3-0.3c0-0.1,0-0.1,0.1-0.2
			c0.4-0.9,1-2.1,1.3-3.3h-0.6c-0.2,0-0.8,0-1.3,0.8c-0.1,0.1-0.1,0.1-0.2,0.1c-0.1,0-0.1-0.1-0.1-0.1c0,0,0.3-0.5,0.6-0.9
			c0.4-0.5,0.8-0.5,1-0.5H15c0.2,0,0.4,0,0.4,0.2c0,0.3-0.4,0.3-0.5,0.3h-1.1c-0.1,0.5-0.2,1.1-0.2,1.6c0,0.3,0,0.9,0.3,1.6
			c0.1,0.1,0.1,0.2,0.1,0.2c0,0.2-0.2,0.4-0.4,0.4c-0.1,0-0.3-0.1-0.4-0.5c-0.1-0.3-0.1-0.6-0.1-0.8c0-0.7,0.1-1.1,0.4-2.6h-1.1
			L11.8,187.4z"/>
	</g>
	<g>
		<path class="st1" d="M41.2,189c-0.4,0.9-1.2,1.2-1.7,1.2c-0.5,0-1.2-0.2-1.6-1c-0.4-0.8-0.4-1.7-0.4-2.4c0-0.8,0-1.6,0.4-2.3
			c0.4-0.9,1.1-1.2,1.7-1.2c0.4,0,1.2,0.2,1.7,1.1c0.3,0.7,0.4,1.5,0.4,2.3C41.6,187.6,41.5,188.3,41.2,189z M40.7,188.7
			c0.1-0.6,0.1-1.3,0.1-2.1c0-0.6,0-1.4-0.1-1.9c-0.2-1-0.8-1.2-1.2-1.2c-0.2,0-1,0.1-1.2,1.3c-0.1,0.5-0.1,1.2-0.1,1.8
			c0,0.6,0,1.5,0.1,2.1c0.2,1,0.8,1.2,1.2,1.2C39.9,190,40.5,189.7,40.7,188.7z"/>
	</g>
	<g>
		<path class="st1" d="M66.9,187.4c-0.1,0.5-0.1,0.5-0.3,1c-0.1,0.4-0.2,0.6-0.5,0.6c-0.1,0-0.3-0.1-0.3-0.3c0-0.1,0-0.1,0.1-0.2
			c0.4-0.9,1-2.1,1.3-3.3h-0.6c-0.2,0-0.8,0-1.3,0.8c-0.1,0.1-0.1,0.1-0.2,0.1c-0.1,0-0.1-0.1-0.1-0.1c0,0,0.3-0.5,0.6-0.9
			c0.4-0.5,0.8-0.5,1-0.5h3.3c0.2,0,0.4,0,0.4,0.2c0,0.3-0.4,0.3-0.5,0.3h-1.1c-0.1,0.5-0.2,1.1-0.2,1.6c0,0.3,0,0.9,0.3,1.6
			c0.1,0.1,0.1,0.2,0.1,0.2c0,0.2-0.2,0.4-0.4,0.4c-0.1,0-0.3-0.1-0.4-0.5c-0.1-0.3-0.1-0.6-0.1-0.8c0-0.7,0.1-1.1,0.4-2.6h-1.1
			L66.9,187.4z"/>
	</g>
	<path class="st0" d="M67.8,176.2v-7.1 M11.1,176.2v-7.1 M174.1,52.2c5.3-1.3,9-8.3,14.2-7.1c5.8,1.4,5.7,10.6,10.6,14.2
		c3.1,2.3,6.8,3.8,10.6,3.5c8.1-0.6,21.3-10.6,21.3-10.6l0,0"/>
	<polyline points="233.3,82.8 237.9,80.5 233.3,78.3 234.5,80.5 	"/>
	<line class="st0" x1="167" y1="80.5" x2="234.5" y2="80.5"/>
	<g>
		<path class="st1" d="M244.5,82.5c0,0.2-0.1,0.2-0.1,0.5c0,0.3,0.1,0.5,0.3,0.5c0.3,0,0.9-0.2,1.3-1.3c0-0.1,0.1-0.1,0.1-0.1
			c0,0,0.1,0,0.1,0.1c0,0.1-0.6,1.5-1.6,1.5c-0.5,0-0.9-0.4-0.9-0.9c0-0.2,0-0.3,0.8-3.2h-0.9c-0.2,0-0.3,0-0.3-0.1
			c0-0.2,0.1-0.2,0.3-0.2h0.9l0.4-1.6c0.1-0.3,0.4-0.4,0.4-0.4c0.2,0,0.3,0.1,0.3,0.3c0,0.1,0,0.3-0.4,1.7h0.9c0.2,0,0.3,0,0.3,0.1
			c0,0.2-0.1,0.2-0.3,0.2h-0.9L244.5,82.5z"/>
	</g>
	<g>
		<path class="st1" d="M197,106.1c-0.1,0.4-0.2,0.7-0.2,0.9c0,0.3,0.2,0.7,0.5,0.7c0.3,0,1-0.2,1.3-1.3c0-0.1,0-0.1,0.1-0.1
			c0,0,0.1,0,0.1,0.1c0,0.2-0.6,1.5-1.6,1.5c-0.6,0-1-0.4-1.1-0.8c0,0.1-0.4,0.8-1,0.8c-0.4,0-0.9-0.2-0.9-0.7
			c0-0.3,0.2-0.6,0.5-0.6c0.1,0,0.4,0.1,0.4,0.3c0,0.3-0.2,0.5-0.5,0.5c0.2,0.1,0.4,0.1,0.5,0.1c0.4,0,0.8-0.4,0.9-1
			c0.4-1.4,0.5-2.1,0.5-2.4c0-0.6-0.3-0.7-0.5-0.7c-0.3,0-1,0.2-1.3,1.3c0,0.1-0.1,0.1-0.1,0.1c0,0-0.1,0-0.1-0.1
			c0-0.3,0.6-1.5,1.6-1.5c0.3,0,0.8,0.1,1.1,0.8c0.1-0.2,0.5-0.8,1-0.8c0.3,0,0.9,0.1,0.9,0.7c0,0.4-0.3,0.6-0.5,0.6
			c-0.3,0-0.4-0.2-0.4-0.3c0-0.2,0.2-0.5,0.5-0.5c-0.2-0.1-0.4-0.1-0.5-0.1c-0.7,0-0.9,0.9-1,1.2L197,106.1z"/>
	</g>
	<g>
		<path class="st1" d="M202.8,110.3c-0.1,0-1-0.6-1.6-1.9c-0.5-1.1-0.7-2.3-0.7-3.1c0-0.8,0.1-1.9,0.6-3c0.6-1.3,1.5-1.9,1.6-1.9
			c0.1,0,0.1,0,0.1,0.1c0,0,0,0-0.1,0.2c-1.2,1.2-1.6,3-1.6,4.7c0,1.5,0.3,3.4,1.6,4.7C202.9,110.1,202.9,110.1,202.8,110.3
			C202.9,110.2,202.9,110.3,202.8,110.3z"/>
	</g>
	<g>
		<path class="st1" d="M204.8,106.7c0,0.2-0.1,0.2-0.1,0.5c0,0.3,0.1,0.5,0.3,0.5c0.3,0,0.9-0.2,1.3-1.3c0-0.1,0.1-0.1,0.1-0.1
			c0,0,0.1,0,0.1,0.1c0,0.1-0.6,1.5-1.6,1.5c-0.5,0-0.9-0.4-0.9-0.9c0-0.2,0-0.3,0.8-3.2H204c-0.2,0-0.3,0-0.3-0.1
			c0-0.2,0.1-0.2,0.3-0.2h0.9l0.4-1.6c0.1-0.3,0.4-0.4,0.4-0.4c0.2,0,0.3,0.1,0.3,0.3c0,0.1,0,0.3-0.4,1.7h0.9c0.2,0,0.3,0,0.3,0.1
			c0,0.2-0.1,0.2-0.3,0.2h-0.9L204.8,106.7z"/>
	</g>
	<g>
		<path class="st1" d="M209.3,108.3c-0.6,1.3-1.5,1.9-1.6,1.9c-0.1,0-0.1,0-0.1-0.1c0,0,0,0,0.1-0.2c1.2-1.3,1.6-3,1.6-4.7
			c0-2.1-0.6-3.7-1.5-4.7c-0.2-0.2-0.2-0.2-0.2-0.2c0-0.1,0-0.1,0.1-0.1c0.1,0,1,0.6,1.6,1.9c0.5,1.1,0.7,2.3,0.7,3.1
			C209.9,106.1,209.8,107.2,209.3,108.3z"/>
	</g>
	<path class="st2" d="M174.1,172.7l28.3-21.3 M202.4,151.4l28.3,21.3"/>
	<polyline points="261.7,174.9 266.2,172.7 261.7,170.4 262.8,172.7 	"/>
	<line class="st0" x1="167" y1="172.7" x2="262.8" y2="172.7"/>
	<polyline points="204.7,148.8 202.4,144.3 200.2,148.8 202.4,147.7 	"/>
	<line class="st0" x1="202.4" y1="176.2" x2="202.4" y2="147.7"/>
	<g>
		<path class="st1" d="M277,174.2c0,0.1-0.2,1.3-0.6,1.9c-0.2,0.4-0.6,1-1.1,1c-0.4,0-0.8-0.2-0.8-0.7c0-0.4,0.3-0.6,0.5-0.6
			c0.2,0,0.4,0.1,0.4,0.3c0,0.1-0.1,0.5-0.5,0.5c0.2,0.2,0.4,0.2,0.5,0.2c0.5,0,0.7-0.9,0.9-1.9l0.7-3.9h-0.7c-0.2,0-0.3,0-0.3-0.1
			c0-0.2,0.1-0.2,0.3-0.2h0.7c0.2-1.3,0.3-1.4,0.3-1.6c0.3-1,0.9-1.2,1.3-1.2c0.4,0,0.9,0.2,0.9,0.7c0,0.4-0.3,0.6-0.5,0.6
			c-0.2,0-0.4-0.1-0.4-0.3c0-0.1,0.1-0.5,0.5-0.5c-0.2-0.2-0.4-0.2-0.5-0.2c-0.2,0-0.4,0.1-0.5,0.3c-0.1,0.1-0.2,0.8-0.2,1l-0.2,1.1
			h0.8c0.2,0,0.3,0,0.3,0.1c0,0.2-0.1,0.2-0.3,0.2h-0.9L277,174.2z"/>
	</g>
	<g>
		<path class="st1" d="M197.5,133.9c0.1-0.1,0.2-0.2,0.2-0.4c0-0.3-0.3-0.3-0.4-0.3c-0.1,0-0.1,0-0.1-0.1c0-0.2,0.1-0.2,0.2-0.2
			c0.4,0,0.7,0,1.1,0c0.3,0,0.6,0,0.9,0c0.1,0,0.1,0.1,0.1,0.1c0,0.2-0.1,0.2-0.2,0.2c-0.6,0-1,0.3-1.3,0.5c-0.3,0.3-1.4,1.5-2,2.2
			c0.2,0.6,0.9,2.2,1.3,3.1c0.2,0.4,0.2,0.4,0.9,0.4c0.1,0,0.2,0,0.2,0.1c0,0.2-0.1,0.2-0.2,0.2c-0.2,0-0.9,0-1.1,0
			c-0.3,0-1,0-1.3,0c0,0-0.1,0-0.1-0.1c0-0.2,0.1-0.2,0.2-0.2c0.4,0,0.6-0.2,0.6-0.3c0,0,0,0,0-0.1l-1-2.4l-0.9,1l-1,1.1
			c-0.1,0.1-0.3,0.3-0.3,0.4c0,0.3,0.3,0.3,0.4,0.3c0,0,0.1,0,0.1,0.1c0,0.2-0.1,0.2-0.2,0.2c-0.4,0-0.7,0-1.1,0c-0.3,0-0.6,0-0.9,0
			c-0.1,0-0.1-0.1-0.1-0.1c0-0.2,0.1-0.2,0.2-0.2c0.5,0,1-0.2,1.5-0.7l0.1-0.1l2.1-2.3l-1.2-2.8c-0.1-0.2-0.1-0.3-0.7-0.3
			c-0.1,0-0.2,0-0.2-0.1c0-0.2,0.1-0.2,0.2-0.2c0.2,0,0.9,0,1.1,0c0.4,0,0.8,0,1.3,0c0,0,0.1,0,0.1,0.1c0,0.2-0.1,0.2-0.2,0.2
			c-0.4,0-0.6,0.2-0.6,0.3c0,0,0,0,0,0.1l0.8,2L197.5,133.9z"/>
	</g>
	<g>
		<path class="st1" d="M203.4,142.2c-0.1,0-1-0.6-1.6-1.9c-0.5-1.1-0.7-2.3-0.7-3.1c0-0.8,0.1-1.9,0.6-3c0.6-1.3,1.5-1.9,1.6-1.9
			c0.1,0,0.1,0,0.1,0.1c0,0,0,0-0.1,0.2c-1.2,1.2-1.6,3-1.6,4.7c0,1.5,0.3,3.4,1.6,4.7C203.5,142,203.5,142,203.4,142.2
			C203.5,142.1,203.5,142.2,203.4,142.2z"/>
	</g>
	<g>
		<path class="st1" d="M207.1,138.9c0,0.1-0.2,1.3-0.6,1.9c-0.2,0.4-0.6,1-1.1,1c-0.4,0-0.8-0.2-0.8-0.7c0-0.4,0.3-0.6,0.5-0.6
			c0.2,0,0.4,0.1,0.4,0.3c0,0.1-0.1,0.5-0.5,0.5c0.2,0.2,0.4,0.2,0.5,0.2c0.5,0,0.7-0.9,0.9-1.9l0.7-3.9h-0.7c-0.2,0-0.3,0-0.3-0.1
			c0-0.2,0.1-0.2,0.3-0.2h0.7c0.2-1.3,0.3-1.4,0.3-1.6c0.3-1,0.9-1.2,1.3-1.2c0.4,0,0.9,0.2,0.9,0.7c0,0.4-0.3,0.6-0.5,0.6
			c-0.2,0-0.4-0.1-0.4-0.3c0-0.1,0.1-0.5,0.5-0.5c-0.2-0.2-0.4-0.2-0.5-0.2c-0.2,0-0.4,0.1-0.5,0.3c-0.1,0.1-0.2,0.8-0.2,1l-0.2,1.1
			h0.8c0.2,0,0.3,0,0.3,0.1c0,0.2-0.1,0.2-0.3,0.2h-0.9L207.1,138.9z"/>
	</g>
	<g>
		<path class="st1" d="M212.3,140.2c-0.6,1.3-1.5,1.9-1.6,1.9c-0.1,0-0.1,0-0.1-0.1c0,0,0,0,0.1-0.2c1.2-1.3,1.6-3,1.6-4.7
			c0-2.1-0.6-3.7-1.5-4.7c-0.2-0.2-0.2-0.2-0.2-0.2c0-0.1,0-0.1,0.1-0.1c0.1,0,1,0.6,1.6,1.9c0.5,1.1,0.7,2.3,0.7,3.1
			C212.9,138,212.8,139.1,212.3,140.2z"/>
	</g>
	<g>
		<path class="st1" d="M167.4,187.9v-0.6h2.6v0.6H167.4z"/>
	</g>
	<g>
		<path class="st1" d="M174.3,184.7c0,0.1-0.2,0.9-0.4,1.4c-0.1,0.2-0.4,0.6-0.8,0.6c-0.3,0-0.7-0.2-0.7-0.5c0-0.3,0.2-0.4,0.4-0.4
			c0.2,0,0.3,0.1,0.3,0.3c0,0,0,0.3-0.3,0.4c0.1,0.1,0.3,0.1,0.3,0.1c0.3,0,0.5-0.5,0.5-0.7c0.2-0.7,0.6-3.3,0.6-3.3h-0.5
			c-0.1,0-0.2,0-0.2-0.1c0-0.2,0.1-0.2,0.2-0.2h0.6c0.1-0.8,0.2-1.1,0.3-1.4c0.2-0.3,0.5-0.5,0.8-0.5c0.4,0,0.7,0.2,0.7,0.5
			c0,0.3-0.2,0.4-0.4,0.4c-0.2,0-0.3-0.1-0.3-0.3c0,0,0-0.3,0.3-0.4c-0.1-0.1-0.3-0.1-0.3-0.1c-0.2,0-0.3,0.1-0.4,0.3
			c-0.1,0.2-0.1,0.5-0.3,1.4h0.6c0.1,0,0.2,0,0.2,0.1c0,0.2-0.1,0.2-0.2,0.2h-0.7L174.3,184.7z"/>
	</g>
	<g>
		<path class="st1" d="M177.7,185.8c0,0.2,0,0.2,0.5,0.2h0.2v0.2c-0.3,0-0.7,0-1,0s-0.7,0-1,0V186h0.2c0.5,0,0.5-0.1,0.5-0.2v-2.5
			c-0.3,0.1-0.6,0.1-0.7,0.1h-0.1v-0.2h0.1c0.1,0,0.7,0,1-0.3c0.2,0,0.2,0,0.2,0.1V185.8z"/>
	</g>
	<polyline points="171.9,187.4 179.7,187.4 179.7,187 171.9,187 	"/>
	<g>
		<path class="st1" d="M177.1,193.2h-2.9c0-0.2,0-0.2,0.1-0.3l1.7-1.7c0.2-0.3,0.7-0.7,0.7-1.3c0-0.6-0.4-1.1-1.1-1.1
			c-0.3,0-0.8,0.2-1,0.6c0.4,0,0.4,0.2,0.4,0.4c0,0.3-0.2,0.4-0.4,0.4c-0.1,0-0.4,0-0.4-0.4c0-0.6,0.6-1.2,1.5-1.2
			c0.9,0,1.6,0.5,1.6,1.4c0,0.7-0.5,1.1-1,1.5c-0.4,0.3-0.7,0.5-1.4,1.2h1.3c0.1,0,0.6,0,0.7,0c0.1-0.1,0.2-0.5,0.2-0.6h0.2
			L177.1,193.2z"/>
	</g>
	<g>
		<path class="st1" d="M204.2,189c-0.4,0.9-1.2,1.2-1.7,1.2c-0.5,0-1.2-0.2-1.6-1c-0.4-0.8-0.4-1.7-0.4-2.4c0-0.8,0-1.6,0.4-2.3
			c0.4-0.9,1.1-1.2,1.7-1.2c0.4,0,1.2,0.2,1.7,1.1c0.3,0.7,0.4,1.5,0.4,2.3C204.6,187.6,204.5,188.3,204.2,189z M203.6,188.7
			c0.1-0.6,0.1-1.3,0.1-2.1c0-0.6,0-1.4-0.1-1.9c-0.2-1-0.8-1.2-1.2-1.2c-0.2,0-1,0.1-1.2,1.3c-0.1,0.5-0.1,1.2-0.1,1.8
			c0,0.6,0,1.5,0.1,2.1c0.2,1,0.8,1.2,1.2,1.2C202.9,190,203.5,189.7,203.6,188.7z"/>
	</g>
	<g>
		<path class="st1" d="M229.4,184.7c0,0.1-0.2,0.9-0.4,1.4c-0.1,0.2-0.4,0.6-0.8,0.6c-0.3,0-0.7-0.2-0.7-0.5c0-0.3,0.2-0.4,0.4-0.4
			c0.2,0,0.3,0.1,0.3,0.3c0,0,0,0.3-0.3,0.4c0.1,0.1,0.3,0.1,0.3,0.1c0.3,0,0.5-0.5,0.5-0.7c0.2-0.7,0.6-3.3,0.6-3.3h-0.5
			c-0.1,0-0.2,0-0.2-0.1c0-0.2,0.1-0.2,0.2-0.2h0.6c0.1-0.8,0.2-1.1,0.3-1.4c0.2-0.3,0.5-0.5,0.8-0.5c0.4,0,0.7,0.2,0.7,0.5
			c0,0.3-0.2,0.4-0.4,0.4c-0.2,0-0.3-0.1-0.3-0.3c0,0,0-0.3,0.3-0.4c-0.1-0.1-0.3-0.1-0.3-0.1c-0.2,0-0.3,0.1-0.4,0.3
			c-0.1,0.2-0.1,0.5-0.3,1.4h0.6c0.1,0,0.2,0,0.2,0.1c0,0.2-0.1,0.2-0.2,0.2h-0.7L229.4,184.7z"/>
	</g>
	<g>
		<path class="st1" d="M232.8,185.8c0,0.2,0,0.2,0.5,0.2h0.2v0.2c-0.3,0-0.7,0-1,0s-0.7,0-1,0V186h0.2c0.5,0,0.5-0.1,0.5-0.2v-2.5
			c-0.3,0.1-0.6,0.1-0.7,0.1h-0.1v-0.2h0.1c0.1,0,0.7,0,1-0.3c0.2,0,0.2,0,0.2,0.1V185.8z"/>
	</g>
	<polyline points="227,187.4 234.8,187.4 234.8,187 227,187 	"/>
	<g>
		<path class="st1" d="M232.2,193.2h-2.9c0-0.2,0-0.2,0.1-0.3l1.7-1.7c0.2-0.3,0.7-0.7,0.7-1.3c0-0.6-0.4-1.1-1.1-1.1
			c-0.3,0-0.8,0.2-1,0.6c0.4,0,0.4,0.2,0.4,0.4c0,0.3-0.2,0.4-0.4,0.4c-0.1,0-0.4,0-0.4-0.4c0-0.6,0.6-1.2,1.5-1.2
			c0.9,0,1.6,0.5,1.6,1.4c0,0.7-0.5,1.1-1,1.5c-0.4,0.3-0.7,0.5-1.4,1.2h1.3c0.1,0,0.6,0,0.7,0c0.1-0.1,0.2-0.5,0.2-0.6h0.2
			L232.2,193.2z"/>
	</g>
	<path class="st0" d="M230.8,176.2v-7.1 M174.1,176.2v-7.1"/>
	<path class="st4" d="M230.8,172.7h28.3 M145.7,172.7h28.3"/>
	<path class="st0" d="M259.1,176.2v-7.1 M145.7,176.2v-7.1"/>
	<g>
		<path class="st1" d="M257.7,184.7c0,0.1-0.2,0.9-0.4,1.4c-0.1,0.2-0.4,0.6-0.8,0.6c-0.3,0-0.7-0.2-0.7-0.5c0-0.3,0.2-0.4,0.4-0.4
			c0.2,0,0.3,0.1,0.3,0.3c0,0,0,0.3-0.3,0.4c0.1,0.1,0.3,0.1,0.3,0.1c0.3,0,0.5-0.5,0.5-0.7c0.2-0.7,0.6-3.3,0.6-3.3h-0.5
			c-0.1,0-0.2,0-0.2-0.1c0-0.2,0.1-0.2,0.2-0.2h0.6c0.1-0.8,0.2-1.1,0.3-1.4c0.2-0.3,0.5-0.5,0.8-0.5c0.4,0,0.7,0.2,0.7,0.5
			c0,0.3-0.2,0.4-0.4,0.4c-0.2,0-0.3-0.1-0.3-0.3c0,0,0-0.3,0.3-0.4c-0.1-0.1-0.3-0.1-0.3-0.1c-0.2,0-0.3,0.1-0.4,0.3
			c-0.1,0.2-0.1,0.5-0.3,1.4h0.6c0.1,0,0.2,0,0.2,0.1c0,0.2-0.1,0.2-0.2,0.2h-0.7L257.7,184.7z"/>
	</g>
	<g>
		<path class="st1" d="M261.9,186.2h-2.3v-0.1c0,0,0,0,0.1-0.1l1.2-1c0.4-0.3,0.7-0.6,0.7-1.1c0-0.5-0.4-0.8-0.9-0.8
			c-0.3,0-0.6,0.1-0.8,0.4c0.2,0,0.3,0.1,0.3,0.3c0,0.2-0.2,0.3-0.3,0.3c-0.1,0-0.3,0-0.3-0.3c0-0.5,0.5-0.9,1.2-0.9
			c0.7,0,1.3,0.4,1.3,1c0,0.5-0.4,0.8-0.9,1.1c-0.3,0.2-0.7,0.5-1,0.7h1c0.1,0,0.5,0,0.5,0c0.1,0,0.1-0.4,0.1-0.5h0.2L261.9,186.2z"
			/>
	</g>
	<polyline points="255.3,187.4 263.1,187.4 263.1,187 255.3,187 	"/>
	<g>
		<path class="st1" d="M260.5,193.2h-2.9c0-0.2,0-0.2,0.1-0.3l1.7-1.7c0.2-0.3,0.7-0.7,0.7-1.3c0-0.6-0.4-1.1-1.1-1.1
			c-0.3,0-0.8,0.2-1,0.6c0.4,0,0.4,0.2,0.4,0.4c0,0.3-0.2,0.4-0.4,0.4c-0.1,0-0.4,0-0.4-0.4c0-0.6,0.6-1.2,1.5-1.2
			c0.9,0,1.6,0.5,1.6,1.4c0,0.7-0.5,1.1-1,1.5c-0.4,0.3-0.7,0.5-1.4,1.2h1.3c0.1,0,0.6,0,0.7,0c0.1-0.1,0.2-0.5,0.2-0.6h0.2
			L260.5,193.2z"/>
	</g>
	<g>
		<path class="st1" d="M139.1,187.9v-0.6h2.6v0.6H139.1z"/>
	</g>
	<g>
		<path class="st1" d="M146,184.7c0,0.1-0.2,0.9-0.4,1.4c-0.1,0.2-0.4,0.6-0.8,0.6c-0.3,0-0.7-0.2-0.7-0.5c0-0.3,0.2-0.4,0.4-0.4
			c0.2,0,0.3,0.1,0.3,0.3c0,0,0,0.3-0.3,0.4c0.1,0.1,0.3,0.1,0.3,0.1c0.3,0,0.5-0.5,0.5-0.7c0.2-0.7,0.6-3.3,0.6-3.3h-0.5
			c-0.1,0-0.2,0-0.2-0.1c0-0.2,0.1-0.2,0.2-0.2h0.6c0.1-0.8,0.2-1.1,0.3-1.4c0.2-0.3,0.5-0.5,0.8-0.5c0.4,0,0.7,0.2,0.7,0.5
			c0,0.3-0.2,0.4-0.4,0.4c-0.2,0-0.3-0.1-0.3-0.3c0,0,0-0.3,0.3-0.4c-0.1-0.1-0.3-0.1-0.3-0.1c-0.2,0-0.3,0.1-0.4,0.3
			c-0.1,0.2-0.1,0.5-0.3,1.4h0.6c0.1,0,0.2,0,0.2,0.1c0,0.2-0.1,0.2-0.2,0.2h-0.7L146,184.7z"/>
	</g>
	<g>
		<path class="st1" d="M150.2,186.2h-2.3v-0.1c0,0,0,0,0.1-0.1l1.2-1c0.4-0.3,0.7-0.6,0.7-1.1c0-0.5-0.4-0.8-0.9-0.8
			c-0.3,0-0.6,0.1-0.8,0.4c0.2,0,0.3,0.1,0.3,0.3c0,0.2-0.2,0.3-0.3,0.3c-0.1,0-0.3,0-0.3-0.3c0-0.5,0.5-0.9,1.2-0.9
			c0.7,0,1.3,0.4,1.3,1c0,0.5-0.4,0.8-0.9,1.1c-0.3,0.2-0.7,0.5-1,0.7h1c0.1,0,0.5,0,0.5,0c0.1,0,0.1-0.4,0.1-0.5h0.2L150.2,186.2z"
			/>
	</g>
	<polyline points="143.6,187.4 151.4,187.4 151.4,187 143.6,187 	"/>
	<g>
		<path class="st1" d="M148.8,193.2h-2.9c0-0.2,0-0.2,0.1-0.3l1.7-1.7c0.2-0.3,0.7-0.7,0.7-1.3c0-0.6-0.4-1.1-1.1-1.1
			c-0.3,0-0.8,0.2-1,0.6c0.4,0,0.4,0.2,0.4,0.4c0,0.3-0.2,0.4-0.4,0.4c-0.1,0-0.4,0-0.4-0.4c0-0.6,0.6-1.2,1.5-1.2
			c0.9,0,1.6,0.5,1.6,1.4c0,0.7-0.5,1.1-1,1.5c-0.4,0.3-0.7,0.5-1.4,1.2h1.3c0.1,0,0.6,0,0.7,0c0.1-0.1,0.2-0.5,0.2-0.6h0.2
			L148.8,193.2z"/>
	</g>
	<path class="st4" d="M386.7,172.7h14.2 M358.3,172.7h-14.2"/>
	<g>
		<path class="st1" d="M386,183.7c-0.2,0.6-0.2,0.9-0.5,0.9c-0.2,0-0.2-0.1-0.2-0.2c0,0,0-0.1,0-0.1c0,0,0.1-0.2,0.1-0.3
			c0.2-0.4,0.6-1.2,0.8-2h-0.4c-0.2,0-0.6,0-0.9,0.5c0,0.1,0,0.1-0.1,0.1c0,0-0.1,0-0.1-0.1c0-0.1,0.3-0.4,0.5-0.6
			c0.3-0.3,0.5-0.4,0.8-0.4h2.6c0.1,0,0.3,0,0.3,0.2c0,0,0,0.1-0.1,0.2c-0.1,0.1-0.1,0.1-0.3,0.1h-0.9c-0.1,0.5-0.1,0.8-0.1,0.9
			c0,0.6,0.1,1,0.3,1.2c0,0.1,0.1,0.1,0.1,0.2c0,0.2-0.2,0.3-0.3,0.3c-0.1,0-0.2,0-0.3-0.4c0-0.2-0.1-0.3-0.1-0.6
			c0-0.6,0.2-1.2,0.3-1.6h-0.8L386,183.7z"/>
	</g>
	<polyline points="384,186.2 389.6,186.2 389.6,185.8 384,185.8 	"/>
	<g>
		<path class="st1" d="M386,191.5c0,0.1,0,0.1,0,0.1c0,0.1,0,0.1,0.2,0.1h0.8c1.3,0,1.6-0.8,1.8-1.4c0-0.1,0.1-0.1,0.1-0.1
			c0.1,0,0.1,0.1,0.1,0.1c0,0.1-0.5,1.4-0.6,1.6c-0.1,0.1-0.1,0.1-0.2,0.1h-3.5c-0.1,0-0.2,0-0.2-0.1c0-0.1,0.1-0.1,0.2-0.1
			c0.5,0,0.6-0.1,0.6-0.3l0.9-3.7c0-0.1,0-0.1,0-0.2c0-0.1,0-0.1-0.2-0.1c-0.1,0-0.3,0-0.3,0c-0.1,0-0.2,0-0.2-0.1
			c0-0.2,0.1-0.2,0.1-0.2c0.1,0,0.3,0,0.5,0s0.3,0,0.5,0c0.2,0,0.4,0,0.6,0c0.2,0,0.4,0,0.5,0c0.1,0,0.1,0.1,0.1,0.1
			c0,0.2-0.1,0.2-0.3,0.2c-0.6,0-0.7,0.1-0.7,0.3L386,191.5z"/>
	</g>
	<g>
		<path class="st1" d="M351.7,186.2c-0.2,0-0.3,0-0.3-0.2s0.2-0.2,0.3-0.2h5.4c0.2,0,0.3,0,0.3,0.2s-0.2,0.2-0.3,0.2H351.7z"/>
	</g>
	<g>
		<path class="st1" d="M361.5,183.7c-0.2,0.6-0.2,0.9-0.5,0.9c-0.2,0-0.2-0.1-0.2-0.2c0,0,0-0.1,0-0.1c0,0,0.1-0.2,0.1-0.3
			c0.2-0.4,0.6-1.2,0.8-2h-0.4c-0.2,0-0.6,0-0.9,0.5c0,0.1,0,0.1-0.1,0.1c0,0-0.1,0-0.1-0.1c0-0.1,0.3-0.4,0.5-0.6
			c0.3-0.3,0.5-0.4,0.8-0.4h2.6c0.1,0,0.3,0,0.3,0.2c0,0,0,0.1-0.1,0.2c-0.1,0.1-0.1,0.1-0.3,0.1H363c-0.1,0.5-0.1,0.8-0.1,0.9
			c0,0.6,0.1,1,0.3,1.2c0,0.1,0.1,0.1,0.1,0.2c0,0.2-0.2,0.3-0.3,0.3c-0.1,0-0.2,0-0.3-0.4c0-0.2-0.1-0.3-0.1-0.6
			c0-0.6,0.2-1.2,0.3-1.6H362L361.5,183.7z"/>
	</g>
	<polyline points="359.6,186.2 365.1,186.2 365.1,185.8 359.6,185.8 	"/>
	<g>
		<path class="st1" d="M361.5,191.5c0,0.1,0,0.1,0,0.1c0,0.1,0,0.1,0.2,0.1h0.8c1.3,0,1.6-0.8,1.8-1.4c0-0.1,0.1-0.1,0.1-0.1
			c0.1,0,0.1,0.1,0.1,0.1c0,0.1-0.5,1.4-0.6,1.6c-0.1,0.1-0.1,0.1-0.2,0.1h-3.5c-0.1,0-0.2,0-0.2-0.1c0-0.1,0.1-0.1,0.2-0.1
			c0.5,0,0.6-0.1,0.6-0.3l0.9-3.7c0-0.1,0-0.1,0-0.2c0-0.1,0-0.1-0.2-0.1c-0.1,0-0.3,0-0.3,0c-0.1,0-0.2,0-0.2-0.1
			c0-0.2,0.1-0.2,0.1-0.2c0.1,0,0.3,0,0.5,0s0.3,0,0.5,0c0.2,0,0.4,0,0.6,0c0.2,0,0.4,0,0.5,0c0.1,0,0.1,0.1,0.1,0.1
			c0,0.2-0.1,0.2-0.3,0.2c-0.6,0-0.7,0.1-0.7,0.3L361.5,191.5z"/>
	</g>
	<path class="st0" d="M386.7,176.2v-7.1 M358.3,176.2v-7.1"/>
</g>
</svg>
