<?xml version="1.0" encoding="utf-8"?>
<!-- Generator: Adobe Illustrator 22.1.0, SVG Export Plug-In . SVG Version: 6.00 Build 0)  -->
<svg version="1.1" id="Layer_1" xmlns="http://www.w3.org/2000/svg" xmlns:xlink="http://www.w3.org/1999/xlink" x="0px" y="0px"
	 viewBox="0 0 253.8 223" style="enable-background:new 0 0 253.8 223;" xml:space="preserve">
<style type="text/css">
	.st0{fill:none;stroke:#000000;stroke-width:1.4173;stroke-linecap:round;stroke-miterlimit:10;stroke-dasharray:0,4.3142;}
	.st1{fill:none;stroke:#000000;stroke-width:0.8504;stroke-miterlimit:10;}
	.st2{fill:#1D1D1B;}
	.st3{fill:none;stroke:#000000;stroke-width:1.4173;stroke-miterlimit:10;}
	.st4{fill:#0000FF;}
	.st5{fill:none;stroke:#0000FC;stroke-width:1.4173;stroke-miterlimit:10;}
	.st6{fill:none;stroke:#0000FF;stroke-width:1.4173;stroke-miterlimit:10;}
	.st7{fill:none;stroke:#000000;stroke-width:1.4173;stroke-linecap:round;stroke-miterlimit:10;stroke-dasharray:0,4.0828;}
	.st8{fill:none;stroke:#000000;stroke-width:0.2835;stroke-miterlimit:10;}
	.st9{fill:none;stroke:#000000;stroke-width:0.8504;stroke-miterlimit:10;stroke-dasharray:2.5309,2.5309;}
	.st10{fill:none;stroke:#000000;stroke-width:0.8504;stroke-miterlimit:10;stroke-dasharray:2.8346,2.8346;}
	.st11{fill:none;stroke:#000000;stroke-width:0.8504;stroke-miterlimit:10;stroke-dasharray:2.7559,2.7559;}
	.st12{fill:none;stroke:#000000;stroke-width:0.8504;stroke-miterlimit:10;stroke-dasharray:3.0371,3.0371;}
	.st13{fill:#FF0000;}
	.st14{fill:none;stroke:#FF0000;stroke-width:1.4173;stroke-miterlimit:10;}
	.st15{fill:none;stroke:#FF0000;stroke-width:1.4173;stroke-miterlimit:10;stroke-dasharray:2.7754,2.7754;}
	.st16{fill:none;stroke:#FF0000;stroke-width:1.4173;stroke-miterlimit:10;stroke-dasharray:2.641,2.641;}
</style>
<g>
	<path class="st0" d="M10.9,35.4c0,0,10.1-14.1,17.7-14.2c6-0.1,8.2,10.8,14.2,10.6c9.3-0.2,11.9-17.2,21.3-17.7
		c4.3-0.2,10.6,7.1,10.6,7.1l0,0"/>
	<polyline points="30.9,4.5 28.7,0 26.4,4.5 28.7,3.4 	"/>
	<line class="st1" x1="28.7" y1="3.4" x2="28.7" y2="53.1"/>
	<polyline points="77.3,51.9 81.8,49.6 77.3,47.3 78.4,49.6 	"/>
	<line class="st1" x1="7.4" y1="49.6" x2="78.4" y2="49.6"/>
	<g>
		<path class="st2" d="M30.4,62.5c-0.4,0.9-1.2,1.2-1.7,1.2c-0.5,0-1.2-0.2-1.6-1c-0.4-0.8-0.4-1.7-0.4-2.4c0-0.8,0-1.6,0.4-2.3
			c0.4-0.9,1.1-1.2,1.7-1.2c0.4,0,1.2,0.2,1.7,1.1c0.3,0.7,0.4,1.5,0.4,2.3C30.8,61,30.8,61.8,30.4,62.5z M29.9,62.2
			c0.1-0.6,0.1-1.3,0.1-2.1c0-0.6,0-1.4-0.1-1.9c-0.2-1-0.8-1.2-1.2-1.2c-0.2,0-1,0.1-1.2,1.3c-0.1,0.5-0.1,1.2-0.1,1.8
			c0,0.6,0,1.5,0.1,2.1c0.2,1,0.8,1.2,1.2,1.2C29.2,63.4,29.7,63.1,29.9,62.2z"/>
	</g>
	<g>
		<path class="st2" d="M35.2,7.9c-0.1,0.4-0.2,0.7-0.2,0.9c0,0.3,0.2,0.7,0.5,0.7c0.3,0,1-0.2,1.3-1.3c0-0.1,0-0.1,0.1-0.1
			c0,0,0.1,0,0.1,0.1c0,0.2-0.6,1.5-1.6,1.5c-0.6,0-1-0.4-1.1-0.8c0,0.1-0.4,0.8-1,0.8c-0.4,0-0.9-0.2-0.9-0.7
			c0-0.3,0.2-0.6,0.5-0.6c0.1,0,0.4,0.1,0.4,0.3c0,0.3-0.2,0.5-0.5,0.5c0.2,0.1,0.4,0.1,0.5,0.1c0.4,0,0.8-0.4,0.9-1
			C34.8,7,35,6.4,35,6.1c0-0.6-0.3-0.7-0.5-0.7c-0.3,0-1,0.2-1.3,1.3c0,0.1-0.1,0.1-0.1,0.1c0,0-0.1,0-0.1-0.1
			c0-0.2,0.6-1.5,1.6-1.5c0.3,0,0.8,0.1,1.1,0.8c0.1-0.2,0.5-0.8,1-0.8c0.3,0,0.9,0.1,0.9,0.7c0,0.4-0.3,0.6-0.5,0.6
			c-0.3,0-0.4-0.2-0.4-0.3c0-0.2,0.2-0.5,0.5-0.5c-0.2-0.1-0.4-0.1-0.5-0.1c-0.7,0-0.9,0.9-1,1.2L35.2,7.9z"/>
	</g>
	<g>
		<path class="st2" d="M40.2,8.1c-0.1,0-0.4,0-0.6,0.1c-0.2,0.1-0.3,0.3-0.3,0.4c0,0.2,0.1,0.3,0.4,0.3c0,0,0.2,0,0.3,0.1
			c0.3,0,1,0.2,1,0.8c0,0.3-0.2,1.2-1.5,1.2c-0.7,0-1.1-0.3-1.1-0.7c0-0.3,0.2-0.5,0.4-0.5c0.1,0,0.3,0.1,0.3,0.3
			c0,0.2-0.2,0.4-0.4,0.4c0.2,0.2,0.6,0.3,0.8,0.3c0.1,0,0.4,0,0.7-0.2c0.3-0.2,0.4-0.4,0.4-0.6c0-0.3-0.4-0.4-0.6-0.5
			c-0.5-0.1-0.6-0.1-0.8-0.3c-0.1-0.1-0.2-0.3-0.2-0.5c0-0.2,0.2-1,1.3-1c0.4,0,0.9,0.2,0.9,0.6c0,0.4-0.3,0.4-0.3,0.4
			c-0.1,0-0.2-0.1-0.2-0.2c0-0.1,0.1-0.3,0.3-0.3C40.7,8.2,40.4,8.1,40.2,8.1z"/>
	</g>
	<g>
		<path class="st2" d="M45.4,12.1c-0.1,0-1-0.6-1.6-1.9c-0.5-1.1-0.7-2.3-0.7-3.1c0-0.8,0.1-1.9,0.6-3c0.6-1.3,1.5-1.9,1.6-1.9
			c0.1,0,0.1,0,0.1,0.1c0,0,0,0-0.1,0.2c-1.2,1.2-1.6,3-1.6,4.7c0,1.5,0.3,3.4,1.6,4.7C45.5,11.9,45.5,11.9,45.4,12.1
			C45.5,12,45.5,12.1,45.4,12.1z"/>
	</g>
	<g>
		<path class="st2" d="M47.3,8.5c0,0.2-0.1,0.2-0.1,0.5c0,0.3,0.1,0.5,0.3,0.5c0.3,0,0.9-0.2,1.3-1.3c0-0.1,0.1-0.1,0.1-0.1
			c0,0,0.1,0,0.1,0.1c0,0.1-0.6,1.5-1.6,1.5c-0.5,0-0.9-0.4-0.9-0.9c0-0.2,0-0.3,0.8-3.2h-0.9c-0.2,0-0.3,0-0.3-0.1
			c0-0.2,0.1-0.2,0.3-0.2h0.9l0.4-1.6c0.1-0.3,0.4-0.4,0.4-0.4c0.2,0,0.3,0.1,0.3,0.3c0,0.1,0,0.3-0.4,1.7H49c0.2,0,0.3,0,0.3,0.1
			c0,0.2-0.1,0.2-0.3,0.2h-0.9L47.3,8.5z"/>
	</g>
	<g>
		<path class="st2" d="M51.9,10.1c-0.6,1.3-1.5,1.9-1.6,1.9c-0.1,0-0.1,0-0.1-0.1c0,0,0-0.1,0.1-0.2c1.2-1.3,1.6-3,1.6-4.7
			c0-2.1-0.6-3.7-1.5-4.7c-0.2-0.2-0.2-0.2-0.2-0.2c0-0.1,0-0.1,0.1-0.1c0.1,0,1,0.6,1.6,1.9c0.5,1.1,0.7,2.3,0.7,3.1
			C52.5,7.9,52.4,9,51.9,10.1z"/>
	</g>
	<g>
		<path class="st2" d="M88.4,51.6c0,0.2-0.1,0.2-0.1,0.5c0,0.3,0.1,0.5,0.3,0.5c0.3,0,0.9-0.2,1.3-1.3c0-0.1,0.1-0.1,0.1-0.1
			c0,0,0.1,0,0.1,0.1c0,0.1-0.6,1.5-1.6,1.5c-0.5,0-0.9-0.4-0.9-0.9c0-0.2,0-0.3,0.8-3.2h-0.9c-0.2,0-0.3,0-0.3-0.1
			c0-0.2,0.1-0.2,0.3-0.2h0.9l0.4-1.6c0.1-0.3,0.4-0.4,0.4-0.4c0.2,0,0.3,0.1,0.3,0.3c0,0.1,0,0.3-0.4,1.7h0.9c0.2,0,0.3,0,0.3,0.1
			c0,0.2-0.1,0.2-0.3,0.2h-0.9L88.4,51.6z"/>
	</g>
	<polyline points="17.3,37.6 14.5,31.9 11.7,37.6 14.5,36.1 	"/>
	<line class="st3" x1="14.5" y1="49.6" x2="14.5" y2="36.1"/>
	<polyline points="45.7,37.6 42.8,31.9 40,37.6 42.8,36.1 	"/>
	<line class="st3" x1="42.8" y1="49.6" x2="42.8" y2="36.1"/>
	<polyline points="59.8,26.9 57,21.3 54.2,26.9 57,25.5 	"/>
	<line class="st3" x1="57" y1="49.6" x2="57" y2="25.5"/>
	<polyline points="74,23.4 71.2,17.7 68.3,23.4 71.2,22 	"/>
	<line class="st3" x1="71.2" y1="49.6" x2="71.2" y2="22"/>
	<polyline points="31.5,26.9 28.7,21.3 25.8,26.9 28.7,25.5 	"/>
	<path class="st3" d="M28.7,49.6l0-24.1 M7.4,49.6h70.9"/>
	<g>
		<path class="st2" d="M62,65.7c0,0.1,0,0.2,0,0.2c0,0.2,0.1,0.2,0.4,0.2c0.3,0,0.4,0,0.6,0c0.3,0,0.3,0,0.3,0.1
			c0,0.2-0.1,0.2-0.2,0.2c-0.3,0-0.6,0-0.9,0c-0.3,0-0.5,0-0.8,0c-0.3,0-0.6,0-0.8,0c-0.3,0-0.5,0-0.8,0c-0.1,0-0.2,0-0.2-0.1
			c0-0.2,0.1-0.2,0.4-0.2c1.1,0,1.1-0.1,1.2-0.5l1.3-5.3c0,0,0-0.1,0-0.2c0-0.1,0-0.1-0.3-0.1h-0.4c-1.5,0-1.7,0.2-2.3,1.7
			c-0.1,0.2-0.1,0.2-0.2,0.2c-0.1,0-0.1,0-0.1-0.1c0,0,0-0.2,0.1-0.2l0.6-1.8c0.1-0.2,0.1-0.2,0.3-0.2h5.5c0.2,0,0.3,0,0.3,0.1
			c0,0,0,0.1,0,0.2l-0.3,1.7c0,0.1,0,0.2-0.1,0.2c-0.1,0-0.1-0.1-0.1-0.1c0,0,0-0.1,0-0.2c0-0.3,0.1-0.6,0.1-0.8
			c0-0.8-0.4-0.8-1.5-0.8c-0.2,0-0.5,0-0.6,0c-0.1,0-0.2,0.1-0.2,0.4L62,65.7z"/>
	</g>
	<g>
		<path class="st2" d="M67.3,65c-0.1,0-0.4,0-0.6,0.1c-0.2,0.1-0.3,0.3-0.3,0.4c0,0.2,0.1,0.3,0.4,0.3c0,0,0.2,0,0.3,0.1
			c0.3,0,1,0.2,1,0.8c0,0.3-0.2,1.2-1.5,1.2c-0.7,0-1.1-0.3-1.1-0.7c0-0.3,0.2-0.5,0.4-0.5c0.1,0,0.3,0.1,0.3,0.3
			c0,0.2-0.2,0.4-0.4,0.4c0.2,0.2,0.6,0.3,0.8,0.3c0.1,0,0.4,0,0.7-0.2c0.3-0.2,0.4-0.4,0.4-0.6c0-0.3-0.4-0.4-0.6-0.5
			c-0.5-0.1-0.6-0.1-0.8-0.3c-0.1-0.1-0.2-0.3-0.2-0.5c0-0.2,0.2-1,1.3-1c0.4,0,0.9,0.2,0.9,0.6c0,0.4-0.3,0.4-0.3,0.4
			c-0.1,0-0.2-0.1-0.2-0.2c0-0.1,0.1-0.3,0.3-0.3C67.8,65,67.5,65,67.3,65z"/>
	</g>
	<polyline points="61.5,54.4 57,56.7 61.5,59 60.4,56.7 	"/>
	<polyline points="66.6,59 71.2,56.7 66.6,54.4 67.8,56.7 	"/>
	<line class="st1" x1="60.4" y1="56.7" x2="67.8" y2="56.7"/>
	<g>
		<path class="st2" d="M193.4,62.5c-0.4,0.9-1.2,1.2-1.7,1.2c-0.5,0-1.2-0.2-1.6-1c-0.4-0.8-0.4-1.7-0.4-2.4c0-0.8,0-1.6,0.4-2.3
			c0.4-0.9,1.1-1.2,1.7-1.2c0.4,0,1.2,0.2,1.7,1.1c0.3,0.7,0.4,1.5,0.4,2.3C193.8,61,193.7,61.8,193.4,62.5z M192.8,62.2
			c0.1-0.6,0.1-1.3,0.1-2.1c0-0.6,0-1.4-0.1-1.9c-0.2-1-0.8-1.2-1.2-1.2c-0.2,0-1,0.1-1.2,1.3c-0.1,0.5-0.1,1.2-0.1,1.8
			c0,0.6,0,1.5,0.1,2.1c0.2,1,0.8,1.2,1.2,1.2C192.1,63.4,192.7,63.1,192.8,62.2z"/>
	</g>
	<path class="st0" d="M173.9,35.4c0,0,10.1-14.1,17.7-14.2c6-0.1,8.2,10.8,14.2,10.6c9.3-0.2,11.9-17.2,21.3-17.7
		c4.3-0.2,10.6,7.1,10.6,7.1l0,0"/>
	<polyline points="193.9,4.5 191.7,0 189.4,4.5 191.7,3.4 	"/>
	<line class="st1" x1="191.7" y1="3.4" x2="191.7" y2="53.1"/>
	<polyline points="240.3,51.9 244.8,49.6 240.3,47.3 241.4,49.6 	"/>
	<line class="st1" x1="170.4" y1="49.6" x2="241.4" y2="49.6"/>
	<g>
		<path class="st4" d="M199.4,4l-0.2,0.2l-1.1-1l-1.2,1L196.7,4l1.3-1.4L199.4,4z"/>
	</g>
	<g>
		<path class="st4" d="M197.9,7.9c-0.1,0.4-0.2,0.7-0.2,0.9c0,0.3,0.2,0.7,0.5,0.7c0.3,0,1-0.2,1.3-1.3c0-0.1,0-0.1,0.1-0.1
			c0,0,0.1,0,0.1,0.1c0,0.2-0.6,1.5-1.6,1.5c-0.6,0-1-0.4-1.1-0.8c0,0.1-0.4,0.8-1,0.8c-0.4,0-0.9-0.2-0.9-0.7
			c0-0.3,0.2-0.6,0.5-0.6c0.1,0,0.4,0.1,0.4,0.3c0,0.3-0.2,0.5-0.5,0.5c0.2,0.1,0.4,0.1,0.5,0.1c0.4,0,0.8-0.4,0.9-1
			c0.4-1.4,0.5-2.1,0.5-2.4c0-0.6-0.3-0.7-0.5-0.7c-0.3,0-1,0.2-1.3,1.3c0,0.1,0,0.1-0.1,0.1c0,0-0.1,0-0.1-0.1
			c0-0.2,0.6-1.5,1.6-1.5c0.3,0,0.8,0.1,1.1,0.8c0.1-0.2,0.5-0.8,1-0.8c0.3,0,0.9,0.1,0.9,0.7c0,0.4-0.3,0.6-0.5,0.6
			c-0.3,0-0.4-0.2-0.4-0.3c0-0.2,0.2-0.5,0.5-0.5c-0.2-0.1-0.4-0.1-0.5-0.1c-0.7,0-0.9,0.9-1,1.2L197.9,7.9z"/>
	</g>
	<g>
		<path class="st4" d="M203.9,8.1c0.1,0,0.2,0.1,0.2,0.2c0,0-0.1,0.4-0.1,0.5l-0.1,0.5c0,0.2-0.1,0.4-0.2,0.6c0,0.2-0.1,0.4-0.1,0.6
			c0,0.2,0,0.3,0.2,0.3c0.3,0,0.4-0.4,0.5-0.7c0-0.2,0.1-0.2,0.2-0.2c0,0,0.1,0,0.1,0.1c0,0-0.1,0.4-0.2,0.7
			c-0.1,0.2-0.3,0.4-0.6,0.4c-0.2,0-0.6-0.1-0.7-0.5c-0.3,0.3-0.6,0.5-1,0.5c-0.6,0-1.1-0.5-1.1-1.2c0-1,0.9-2,1.8-2
			c0.3,0,0.6,0.2,0.7,0.4C203.6,8.2,203.7,8.1,203.9,8.1z M203.4,8.8C203.4,8.8,203.4,8.8,203.4,8.8c0-0.2-0.1-0.7-0.6-0.7
			c-0.2,0-0.6,0.1-0.9,0.7c-0.2,0.3-0.4,1-0.4,1.4c0,0.5,0.3,0.7,0.5,0.7c0.3,0,0.6-0.2,0.6-0.3c0.2-0.1,0.3-0.3,0.4-0.5L203.4,8.8z
			"/>
	</g>
	<g>
		<path class="st4" d="M208.6,12.1c-0.1,0-1-0.6-1.6-1.9c-0.5-1.1-0.7-2.3-0.7-3.1c0-0.8,0.1-1.9,0.6-3c0.6-1.3,1.5-1.9,1.6-1.9
			c0.1,0,0.1,0,0.1,0.1c0,0,0,0-0.1,0.2c-1.2,1.2-1.6,3-1.6,4.7c0,1.5,0.3,3.4,1.6,4.7C208.7,11.9,208.7,11.9,208.6,12.1
			C208.7,12,208.7,12.1,208.6,12.1z"/>
	</g>
	<g>
		<path class="st4" d="M210.5,8.5c0,0.2-0.1,0.2-0.1,0.5c0,0.3,0.1,0.5,0.3,0.5c0.3,0,0.9-0.2,1.3-1.3c0-0.1,0.1-0.1,0.1-0.1
			c0,0,0.1,0,0.1,0.1c0,0.1-0.6,1.5-1.6,1.5c-0.5,0-0.9-0.4-0.9-0.9c0-0.2,0-0.3,0.8-3.2h-0.9c-0.2,0-0.3,0-0.3-0.1
			c0-0.2,0.1-0.2,0.3-0.2h0.9l0.4-1.6c0.1-0.3,0.4-0.4,0.4-0.4c0.2,0,0.3,0.1,0.3,0.3c0,0.1,0,0.3-0.4,1.7h0.9c0.2,0,0.3,0,0.3,0.1
			c0,0.2-0.1,0.2-0.3,0.2h-0.9L210.5,8.5z"/>
	</g>
	<g>
		<path class="st4" d="M215.1,10.1c-0.6,1.3-1.5,1.9-1.6,1.9c-0.1,0-0.1,0-0.1-0.1c0,0,0-0.1,0.1-0.2c1.2-1.3,1.6-3,1.6-4.7
			c0-2.1-0.6-3.7-1.5-4.7c-0.2-0.2-0.2-0.2-0.2-0.2c0-0.1,0-0.1,0.1-0.1c0.1,0,1,0.6,1.6,1.9c0.5,1.1,0.7,2.3,0.7,3.1
			C215.7,7.9,215.6,9,215.1,10.1z"/>
	</g>
	<g>
		<path class="st2" d="M251.5,51.6c0,0.2-0.1,0.2-0.1,0.5c0,0.3,0.1,0.5,0.3,0.5c0.3,0,0.9-0.2,1.3-1.3c0-0.1,0.1-0.1,0.1-0.1
			c0,0,0.1,0,0.1,0.1c0,0.1-0.6,1.5-1.6,1.5c-0.5,0-0.9-0.4-0.9-0.9c0-0.2,0-0.3,0.8-3.2h-0.9c-0.2,0-0.3,0-0.3-0.1
			c0-0.2,0.1-0.2,0.3-0.2h0.9l0.4-1.6c0.1-0.3,0.4-0.4,0.4-0.4c0.2,0,0.3,0.1,0.3,0.3c0,0.1,0,0.3-0.4,1.7h0.9c0.2,0,0.3,0,0.3,0.1
			c0,0.2-0.1,0.2-0.3,0.2h-0.9L251.5,51.6z"/>
	</g>
	<path class="st5" d="M177.5,31.9h14.2 M191.7,21.3h14.2 M205.8,31.9H220 M220,17.7h14.2 M234.2,21.3h7.1 M177.5,39h-3.5 M177.5,39
		v-7.1 M191.7,31.9V21.3 M205.8,21.3v10.6 M220,31.9V17.7 M234.2,17.7v3.5"/>
	<polyline points="233.2,207.8 237.7,205.5 233.2,203.2 234.3,205.5 	"/>
	<line class="st1" x1="152.7" y1="205.5" x2="234.3" y2="205.5"/>
	<polyline points="193.9,164 191.7,159.4 189.4,164 191.7,162.8 	"/>
	<line class="st1" x1="191.7" y1="209.1" x2="191.7" y2="162.8"/>
	<g>
		<path class="st2" d="M193.4,218.4c-0.4,0.9-1.2,1.2-1.7,1.2c-0.5,0-1.2-0.2-1.6-1c-0.4-0.8-0.4-1.7-0.4-2.4c0-0.8,0-1.6,0.4-2.3
			c0.4-0.9,1.1-1.2,1.7-1.2c0.4,0,1.2,0.2,1.7,1.1c0.3,0.7,0.4,1.5,0.4,2.3C193.8,216.9,193.7,217.7,193.4,218.4z M192.8,218.1
			c0.1-0.6,0.1-1.3,0.1-2.1c0-0.6,0-1.4-0.1-1.9c-0.2-1-0.8-1.2-1.2-1.2c-0.2,0-1,0.1-1.2,1.3c-0.1,0.5-0.1,1.2-0.1,1.8
			c0,0.6,0,1.5,0.1,2.1c0.2,1,0.8,1.2,1.2,1.2C192.1,219.3,192.7,219,192.8,218.1z"/>
	</g>
	<path class="st1" d="M212.9,209.1V202 M170.4,209.1V202"/>
	<g>
		<path class="st2" d="M212.2,212.6c-0.2,0.6-0.2,0.9-0.5,0.9c-0.2,0-0.2-0.1-0.2-0.2c0,0,0-0.1,0-0.1c0,0,0.1-0.2,0.1-0.3
			c0.2-0.4,0.6-1.2,0.8-2h-0.4c-0.2,0-0.6,0-0.9,0.5c0,0.1,0,0.1-0.1,0.1c0,0-0.1,0-0.1-0.1c0-0.1,0.3-0.4,0.5-0.6
			c0.3-0.3,0.5-0.4,0.8-0.4h2.6c0.1,0,0.3,0,0.3,0.2c0,0,0,0.1-0.1,0.2c-0.1,0.1-0.1,0.1-0.3,0.1h-0.9c-0.1,0.5-0.1,0.8-0.1,0.9
			c0,0.6,0.1,1,0.3,1.2c0,0.1,0.1,0.1,0.1,0.2c0,0.2-0.2,0.3-0.3,0.3c-0.1,0-0.2,0-0.3-0.4c0-0.2-0.1-0.3-0.1-0.6
			c0-0.6,0.2-1.2,0.3-1.6h-0.8L212.2,212.6z"/>
	</g>
	<polyline points="208.6,215.1 217.3,215.1 217.3,214.7 208.6,214.7 	"/>
	<g>
		<path class="st2" d="M211.1,220.2c0,0.1,0,0.1,0,0.2c0,0.1,0,0.1,0.3,0.1c0.1,0,0.3,0,0.4,0c0.2,0,0.3,0,0.3,0.1
			c0,0.2-0.1,0.2-0.2,0.2c-0.2,0-0.4,0-0.6,0c-0.2,0-0.4,0-0.6,0c-0.2,0-0.4,0-0.6,0s-0.4,0-0.6,0c-0.1,0-0.1-0.1-0.1-0.1
			c0-0.2,0.1-0.2,0.3-0.2c0.7,0,0.8-0.1,0.8-0.3l0.9-3.7c0-0.1,0-0.1,0-0.1c0-0.1,0-0.1-0.2-0.1h-0.3c-1.1,0-1.3,0.1-1.7,1.2
			c0,0.1-0.1,0.2-0.1,0.2c-0.1,0-0.1-0.1-0.1-0.1c0,0,0-0.1,0-0.1l0.4-1.2c0-0.1,0.1-0.1,0.2-0.1h4.3c0.1,0,0.2,0,0.2,0.1l-0.2,1.3
			c0,0.1,0,0.2-0.1,0.2c-0.1,0-0.1,0-0.1-0.1l0-0.1c0-0.4,0-0.5,0-0.6c0-0.3,0-0.5-0.3-0.6c-0.2-0.1-0.4-0.1-0.8-0.1
			c-0.1,0-0.4,0-0.4,0c-0.2,0-0.2,0-0.2,0.2L211.1,220.2z"/>
	</g>
	<g>
		<path class="st2" d="M215.3,219.7c-0.7,0-0.7,0.4-0.7,0.4c0,0.2,0.2,0.2,0.6,0.3c0.3,0,0.8,0.1,0.8,0.6c0,0.2-0.2,0.8-1.2,0.8
			c-0.1,0-0.9,0-0.9-0.5c0-0.2,0.1-0.4,0.3-0.4c0.1,0,0.2,0.1,0.2,0.2c0,0.1-0.1,0.3-0.3,0.3c0.2,0.2,0.5,0.2,0.7,0.2
			c0.9,0,0.9-0.5,0.9-0.5c0-0.3-0.3-0.3-0.7-0.4c-0.3,0-0.4-0.1-0.6-0.2c-0.1-0.1-0.2-0.2-0.2-0.4c0-0.2,0.2-0.7,1-0.7
			c0.4,0,0.8,0.1,0.8,0.4c0,0.3-0.2,0.3-0.3,0.3c-0.1,0-0.2-0.1-0.2-0.2c0,0,0-0.2,0.2-0.2C215.7,219.7,215.4,219.7,215.3,219.7z"/>
	</g>
	<g>
		<path class="st2" d="M163.4,215.4v-0.6h2.6v0.6H163.4z"/>
	</g>
	<g>
		<path class="st2" d="M171.4,212.6c-0.2,0.6-0.2,0.9-0.5,0.9c-0.2,0-0.2-0.1-0.2-0.2c0,0,0-0.1,0-0.1c0,0,0.1-0.2,0.1-0.3
			c0.2-0.4,0.6-1.2,0.8-2h-0.4c-0.2,0-0.6,0-0.9,0.5c0,0.1,0,0.1-0.1,0.1c0,0-0.1,0-0.1-0.1c0-0.1,0.3-0.4,0.5-0.6
			c0.3-0.3,0.5-0.4,0.8-0.4h2.6c0.1,0,0.3,0,0.3,0.2c0,0,0,0.1-0.1,0.2c-0.1,0.1-0.1,0.1-0.3,0.1h-0.9c-0.1,0.5-0.1,0.8-0.1,0.9
			c0,0.6,0.1,1,0.3,1.2c0,0.1,0.1,0.1,0.1,0.2c0,0.2-0.2,0.3-0.3,0.3c-0.1,0-0.2,0-0.3-0.4c0-0.2-0.1-0.3-0.1-0.6
			c0-0.6,0.2-1.2,0.3-1.6h-0.8L171.4,212.6z"/>
	</g>
	<polyline points="167.8,215.1 176.5,215.1 176.5,214.7 167.8,214.7 	"/>
	<g>
		<path class="st2" d="M170.3,220.2c0,0.1,0,0.1,0,0.2c0,0.1,0,0.1,0.3,0.1c0.1,0,0.3,0,0.4,0c0.2,0,0.3,0,0.3,0.1
			c0,0.2-0.1,0.2-0.2,0.2c-0.2,0-0.4,0-0.6,0c-0.2,0-0.4,0-0.6,0c-0.2,0-0.4,0-0.6,0s-0.4,0-0.6,0c-0.1,0-0.1-0.1-0.1-0.1
			c0-0.2,0.1-0.2,0.3-0.2c0.7,0,0.8-0.1,0.8-0.3l0.9-3.7c0-0.1,0-0.1,0-0.1c0-0.1,0-0.1-0.2-0.1h-0.3c-1.1,0-1.3,0.1-1.7,1.2
			c0,0.1-0.1,0.2-0.1,0.2c-0.1,0-0.1-0.1-0.1-0.1c0,0,0-0.1,0-0.1l0.4-1.2c0-0.1,0.1-0.1,0.2-0.1h4.3c0.1,0,0.2,0,0.2,0.1l-0.2,1.3
			c0,0.1,0,0.2-0.1,0.2c-0.1,0-0.1,0-0.1-0.1l0-0.1c0-0.4,0-0.5,0-0.6c0-0.3,0-0.5-0.3-0.6c-0.2-0.1-0.4-0.1-0.8-0.1
			c-0.1,0-0.4,0-0.4,0c-0.2,0-0.2,0-0.2,0.2L170.3,220.2z"/>
	</g>
	<g>
		<path class="st2" d="M174.5,219.7c-0.7,0-0.7,0.4-0.7,0.4c0,0.2,0.2,0.2,0.6,0.3c0.3,0,0.8,0.1,0.8,0.6c0,0.2-0.2,0.8-1.2,0.8
			c-0.1,0-0.9,0-0.9-0.5c0-0.2,0.1-0.4,0.3-0.4c0.1,0,0.2,0.1,0.2,0.2c0,0.1-0.1,0.3-0.3,0.3c0.2,0.2,0.5,0.2,0.7,0.2
			c0.9,0,0.9-0.5,0.9-0.5c0-0.3-0.3-0.3-0.7-0.4c-0.3,0-0.4-0.1-0.6-0.2c-0.1-0.1-0.2-0.2-0.2-0.4c0-0.2,0.2-0.7,1-0.7
			c0.4,0,0.8,0.1,0.8,0.4c0,0.3-0.2,0.3-0.3,0.3c-0.1,0-0.2-0.1-0.2-0.2c0,0,0-0.2,0.2-0.2C174.9,219.7,174.6,219.7,174.5,219.7z"/>
	</g>
	<g>
		<path class="st2" d="M246.9,206.4c-0.4,0.7-0.8,1.4-1.6,1.4c-0.6,0-1-0.5-1.1-1c-0.4,0.5-0.8,1-1.5,1c-0.8,0-1-0.7-1-1.4
			c0-0.9,0.4-2.1,0.9-2.8c0.1-0.1,0.1-0.2,0.3-0.2c0.1,0,0.2,0.1,0.2,0.2c0,0.1-1,1.2-1,2.4c0,0.6,0.2,1.1,0.9,1.1
			c0.6,0,1-0.4,1.4-0.9c0-0.4,0.1-1,0.2-1.2c0.1-0.1,0.2-0.2,0.3-0.2c0.1,0,0.2,0.1,0.2,0.2c0,0.3-0.2,0.9-0.3,1.2
			c0.1,0.5,0.4,0.9,1,0.9c0.5,0,0.8-0.3,1.1-0.8c0.3-0.5,0.5-1,0.5-1.4c0-0.4-0.2-0.7-0.3-0.8c-0.1-0.1-0.1-0.2-0.1-0.3
			c0-0.2,0.3-0.5,0.5-0.5c0.2,0,0.4,0.2,0.4,0.7C247.5,204.6,247.2,206,246.9,206.4z"/>
	</g>
	<g>
		<path class="st2" d="M179.1,170c0.1-0.1,0.1-0.2,0.3-0.2c0.2,0,0.2,0,0.2,0.2l0.6,6.2c0,0.3,0,0.4,0.6,0.4c0.1,0,0.2,0,0.2,0.1
			c0,0.2-0.1,0.2-0.2,0.2c-0.2,0-0.9,0-1.1,0c-0.4,0-0.8,0-1.2,0c0,0-0.1,0-0.1-0.1c0-0.2,0.1-0.2,0.2-0.2c0.2,0,0.7,0,0.7-0.3
			c0-0.1-0.1-1.5-0.2-1.7h-2.5l-0.8,1.3c-0.1,0.1-0.1,0.2-0.1,0.4c0,0.2,0.2,0.3,0.5,0.3c0.1,0,0.2,0,0.2,0.1c0,0.2-0.1,0.2-0.2,0.2
			c-0.3,0-0.7,0-1,0c-0.3,0-0.6,0-0.9,0c-0.1,0-0.1,0-0.1-0.1c0-0.2,0.1-0.2,0.2-0.2c0.4,0,0.8-0.2,1.2-0.8L179.1,170z M179.1,174.4
			l-0.3-3.3l-2,3.3H179.1z"/>
	</g>
	<g>
		<path class="st4" d="M202.4,158.3l-0.2,0.2l-1.1-1l-1.2,1l-0.2-0.2l1.3-1.4L202.4,158.3z"/>
	</g>
	<g>
		<path class="st4" d="M202.1,160.6c0.1-0.1,0.2-0.2,0.2-0.4c0-0.3-0.3-0.3-0.4-0.3c-0.1,0-0.1,0-0.1-0.1c0-0.2,0.1-0.2,0.2-0.2
			c0.4,0,0.7,0,1.1,0c0.3,0,0.6,0,0.9,0c0.1,0,0.1,0.1,0.1,0.1c0,0.2-0.1,0.2-0.2,0.2c-0.6,0-1,0.3-1.3,0.5c-0.3,0.3-1.4,1.5-2,2.2
			c0.2,0.6,0.9,2.2,1.3,3.1c0.2,0.4,0.2,0.4,0.9,0.4c0.1,0,0.2,0,0.2,0.1c0,0.2-0.1,0.2-0.2,0.2c-0.2,0-0.9,0-1.1,0
			c-0.3,0-1,0-1.3,0c0,0-0.1,0-0.1-0.1c0-0.2,0.1-0.2,0.2-0.2c0.4,0,0.6-0.2,0.6-0.3c0,0,0,0,0-0.1l-1-2.4l-0.9,1l-1,1.1
			c-0.1,0.1-0.3,0.3-0.3,0.4c0,0.3,0.3,0.3,0.4,0.3c0,0,0.1,0,0.1,0.1c0,0.2-0.1,0.2-0.2,0.2c-0.4,0-0.7,0-1.1,0c-0.3,0-0.6,0-0.9,0
			c-0.1,0-0.1-0.1-0.1-0.1c0-0.2,0.1-0.2,0.2-0.2c0.5,0,1-0.2,1.5-0.7l0.1-0.1l2.1-2.3l-1.2-2.8c-0.1-0.2-0.1-0.3-0.7-0.3
			c-0.1,0-0.2,0-0.2-0.1c0-0.2,0.1-0.2,0.2-0.2c0.2,0,0.9,0,1.1,0c0.4,0,0.8,0,1.3,0c0,0,0.1,0,0.1,0.1c0,0.2-0.1,0.2-0.2,0.2
			c-0.4,0-0.6,0.2-0.6,0.3c0,0,0,0,0,0.1l0.8,2L202.1,160.6z"/>
	</g>
	<g>
		<path class="st4" d="M207.2,164.9c0.1,0,0.2,0.1,0.2,0.2c0,0-0.1,0.4-0.1,0.5l-0.1,0.5c0,0.2-0.1,0.4-0.2,0.6
			c0,0.2-0.1,0.4-0.1,0.6c0,0.2,0,0.3,0.2,0.3c0.3,0,0.4-0.4,0.5-0.7c0-0.2,0.1-0.2,0.2-0.2c0,0,0.1,0,0.1,0.1c0,0-0.1,0.4-0.2,0.7
			c-0.1,0.2-0.3,0.4-0.6,0.4c-0.2,0-0.6-0.1-0.7-0.5c-0.3,0.3-0.6,0.5-1,0.5c-0.6,0-1.1-0.5-1.1-1.2c0-1,0.9-2,1.8-2
			c0.3,0,0.6,0.2,0.7,0.4C206.9,165,207.1,164.9,207.2,164.9z M206.8,165.7C206.8,165.6,206.8,165.6,206.8,165.7
			c0-0.2-0.1-0.7-0.6-0.7c-0.2,0-0.6,0.1-0.9,0.7c-0.2,0.3-0.4,1-0.4,1.4c0,0.5,0.3,0.7,0.5,0.7c0.3,0,0.6-0.2,0.6-0.3
			c0.2-0.1,0.3-0.3,0.4-0.5L206.8,165.7z"/>
	</g>
	<g>
		<path class="st4" d="M212,168.9c-0.1,0-1-0.6-1.6-1.9c-0.5-1.1-0.7-2.3-0.7-3.1c0-0.8,0.1-1.9,0.6-3c0.6-1.3,1.5-1.9,1.6-1.9
			c0.1,0,0.1,0,0.1,0.1c0,0,0,0-0.1,0.2c-1.2,1.2-1.6,3-1.6,4.7c0,1.5,0.3,3.4,1.6,4.7C212.1,168.7,212.1,168.8,212,168.9
			C212.1,168.9,212,168.9,212,168.9z"/>
	</g>
	<g>
		<path class="st4" d="M218,165.2c-0.4,0.7-0.8,1.4-1.6,1.4c-0.6,0-1-0.5-1.1-1c-0.4,0.5-0.8,1-1.5,1c-0.8,0-1-0.7-1-1.4
			c0-0.9,0.4-2.1,0.9-2.8c0.1-0.1,0.1-0.2,0.3-0.2c0.1,0,0.2,0.1,0.2,0.2c0,0.1-1,1.2-1,2.4c0,0.6,0.2,1.1,0.9,1.1
			c0.6,0,1-0.4,1.4-0.9c0-0.4,0.1-1,0.2-1.2c0.1-0.1,0.2-0.2,0.3-0.2c0.1,0,0.2,0.1,0.2,0.2c0,0.3-0.2,0.9-0.3,1.2
			c0.1,0.5,0.4,0.9,1,0.9c0.5,0,0.8-0.3,1.1-0.8c0.3-0.5,0.5-1,0.5-1.4c0-0.4-0.2-0.7-0.3-0.8c-0.1-0.1-0.1-0.2-0.1-0.3
			c0-0.2,0.3-0.5,0.5-0.5c0.2,0,0.4,0.2,0.4,0.7C218.6,163.3,218.2,164.7,218,165.2z"/>
	</g>
	<g>
		<path class="st4" d="M221.4,167c-0.6,1.3-1.5,1.9-1.6,1.9c-0.1,0-0.1,0-0.1-0.1c0,0,0,0,0.1-0.2c1.2-1.3,1.6-3,1.6-4.7
			c0-2.1-0.6-3.7-1.5-4.7c-0.2-0.2-0.2-0.2-0.2-0.2c0-0.1,0-0.1,0.1-0.1c0.1,0,1,0.6,1.6,1.9c0.5,1.1,0.7,2.3,0.7,3.1
			C222.1,164.8,222,165.9,221.4,167z"/>
	</g>
	<line class="st1" x1="188.1" y1="170.1" x2="195.2" y2="170.1"/>
	<path class="st6" d="M220,205.5c0,0,4.4-3.5,7.1-3.5c2.7,0,7.1,3.5,7.1,3.5l0,0 M149.1,205.5c0,0,4.4-3.5,7.1-3.5s7.1,3.5,7.1,3.5
		l0,0 M163.3,205.5h14.2 M205.8,205.5H220"/>
	<line class="st7" x1="177.5" y1="205.5" x2="191.7" y2="170.1"/>
	<line class="st7" x1="191.7" y1="170.1" x2="205.8" y2="205.5"/>
	<polyline class="st6" points="177.5,205.5 184.6,198.4 184.6,198.4 184.6,198.4 188.1,191.3 188.1,191.3 188.1,191.3 191.7,173.6 
		191.7,173.6 191.7,173.6 195.2,191.3 195.2,191.3 195.2,191.3 198.7,198.4 198.7,198.4 198.7,198.4 205.8,205.5 205.8,205.5 
		205.8,205.5 	"/>
	<g>
		<path class="st2" d="M223.4,177.4c0.1-0.1,0.2-0.2,0.2-0.4c0-0.3-0.3-0.3-0.4-0.3c-0.1,0-0.1,0-0.1-0.1c0-0.2,0.1-0.2,0.2-0.2
			c0.4,0,0.7,0,1.1,0c0.3,0,0.6,0,0.9,0c0.1,0,0.1,0.1,0.1,0.1c0,0.2-0.1,0.2-0.2,0.2c-0.6,0-1,0.3-1.3,0.5c-0.3,0.3-1.4,1.5-2,2.2
			c0.2,0.6,0.9,2.2,1.3,3.1c0.2,0.4,0.2,0.4,0.9,0.4c0.1,0,0.2,0,0.2,0.1c0,0.2-0.1,0.2-0.2,0.2c-0.2,0-0.9,0-1.1,0
			c-0.3,0-1,0-1.3,0c0,0-0.1,0-0.1-0.1c0-0.2,0.1-0.2,0.2-0.2c0.4,0,0.6-0.2,0.6-0.3c0,0,0,0,0-0.1l-1-2.4l-0.9,1l-1,1.1
			c-0.1,0.1-0.3,0.3-0.3,0.4c0,0.3,0.3,0.3,0.4,0.3c0,0,0.1,0,0.1,0.1c0,0.2-0.1,0.2-0.2,0.2c-0.4,0-0.7,0-1.1,0c-0.3,0-0.6,0-0.9,0
			c-0.1,0-0.1-0.1-0.1-0.1c0-0.2,0.1-0.2,0.2-0.2c0.5,0,1-0.2,1.5-0.7l0.1-0.1l2.1-2.3l-1.2-2.8c-0.1-0.2-0.1-0.3-0.7-0.3
			c-0.1,0-0.2,0-0.2-0.1c0-0.2,0.1-0.2,0.2-0.2c0.2,0,0.9,0,1.1,0c0.4,0,0.8,0,1.3,0c0,0,0.1,0,0.1,0.1c0,0.2-0.1,0.2-0.2,0.2
			c-0.4,0-0.6,0.2-0.6,0.3c0,0,0,0,0,0.1l0.8,2L223.4,177.4z"/>
	</g>
	<g>
		<path class="st2" d="M228.5,181.7c0.1,0,0.2,0.1,0.2,0.2c0,0-0.1,0.4-0.1,0.5l-0.1,0.5c0,0.2-0.1,0.4-0.2,0.6
			c0,0.2-0.1,0.4-0.1,0.6c0,0.2,0,0.3,0.2,0.3c0.3,0,0.4-0.4,0.5-0.7c0-0.2,0.1-0.2,0.2-0.2c0,0,0.1,0,0.1,0.1c0,0-0.1,0.4-0.2,0.7
			c-0.1,0.2-0.3,0.4-0.6,0.4c-0.2,0-0.6-0.1-0.7-0.5c-0.3,0.3-0.6,0.5-1,0.5c-0.6,0-1.1-0.5-1.1-1.2c0-1,0.9-2,1.8-2
			c0.3,0,0.6,0.2,0.7,0.4C228.2,181.8,228.3,181.7,228.5,181.7z M228,182.5C228,182.5,228,182.4,228,182.5c0-0.2-0.1-0.7-0.6-0.7
			c-0.2,0-0.6,0.1-0.9,0.7c-0.2,0.3-0.4,1-0.4,1.4c0,0.5,0.3,0.7,0.5,0.7c0.3,0,0.6-0.2,0.6-0.3c0.2-0.1,0.3-0.3,0.4-0.5L228,182.5z
			"/>
	</g>
	<g>
		<path class="st2" d="M233.2,185.7c-0.1,0-1-0.6-1.6-1.9c-0.5-1.1-0.7-2.3-0.7-3.1c0-0.8,0.1-1.9,0.6-3c0.6-1.3,1.5-1.9,1.6-1.9
			c0.1,0,0.1,0,0.1,0.1c0,0,0,0-0.1,0.2c-1.2,1.2-1.6,3-1.6,4.7c0,1.5,0.3,3.4,1.6,4.7C233.3,185.5,233.3,185.6,233.2,185.7
			C233.3,185.7,233.3,185.7,233.2,185.7z"/>
	</g>
	<g>
		<path class="st2" d="M239.2,182c-0.4,0.7-0.8,1.4-1.6,1.4c-0.6,0-1-0.5-1.1-1c-0.4,0.5-0.8,1-1.5,1c-0.8,0-1-0.7-1-1.4
			c0-0.9,0.4-2.1,0.9-2.8c0.1-0.1,0.1-0.2,0.3-0.2c0.1,0,0.2,0.1,0.2,0.2c0,0.1-1,1.2-1,2.4c0,0.6,0.2,1.1,0.9,1.1
			c0.6,0,1-0.4,1.4-0.9c0-0.4,0.1-1,0.2-1.2c0.1-0.1,0.2-0.2,0.3-0.2c0.1,0,0.2,0.1,0.2,0.2c0,0.3-0.2,0.9-0.3,1.2
			c0.1,0.5,0.4,0.9,1,0.9c0.5,0,0.8-0.3,1.1-0.8c0.3-0.5,0.5-1,0.5-1.4c0-0.4-0.2-0.7-0.3-0.8c-0.1-0.1-0.1-0.2-0.1-0.3
			c0-0.2,0.3-0.5,0.5-0.5c0.2,0,0.4,0.2,0.4,0.7C239.9,180.1,239.5,181.5,239.2,182z"/>
	</g>
	<g>
		<path class="st2" d="M242.7,183.8c-0.6,1.3-1.5,1.9-1.6,1.9c-0.1,0-0.1,0-0.1-0.1c0,0,0,0,0.1-0.2c1.2-1.3,1.6-3,1.6-4.7
			c0-2.1-0.6-3.7-1.5-4.7c-0.2-0.2-0.2-0.2-0.2-0.2c0-0.1,0-0.1,0.1-0.1c0.1,0,1,0.6,1.6,1.9c0.5,1.1,0.7,2.3,0.7,3.1
			C243.3,181.6,243.2,182.7,242.7,183.8z"/>
	</g>
	<polyline points="205.1,192.3 202.3,194.9 206,195.6 204.7,194.2 	"/>
	<line class="st8" x1="204.7" y1="194.2" x2="227.1" y2="187.8"/>
	<polyline points="59.6,115.7 64.1,113.4 59.6,111.1 60.7,113.4 	"/>
	<line class="st1" x1="0.3" y1="113.4" x2="60.7" y2="113.4"/>
	<g>
		<path class="st2" d="M24.5,107.2c-0.1,0.4-0.2,0.7-0.2,0.9c0,0.3,0.2,0.7,0.5,0.7c0.3,0,1-0.2,1.3-1.3c0-0.1,0-0.1,0.1-0.1
			c0,0,0.1,0,0.1,0.1c0,0.2-0.6,1.5-1.6,1.5c-0.6,0-1-0.4-1.1-0.8c0,0.1-0.4,0.8-1,0.8c-0.4,0-0.9-0.2-0.9-0.7
			c0-0.3,0.2-0.6,0.5-0.6c0.1,0,0.4,0.1,0.4,0.3c0,0.3-0.2,0.5-0.5,0.5c0.2,0.1,0.4,0.1,0.5,0.1c0.4,0,0.8-0.4,0.9-1
			c0.4-1.4,0.5-2.1,0.5-2.4c0-0.6-0.3-0.7-0.5-0.7c-0.3,0-1,0.2-1.3,1.3c0,0.1-0.1,0.1-0.1,0.1c0,0-0.1,0-0.1-0.1
			c0-0.2,0.6-1.5,1.6-1.5c0.3,0,0.8,0.1,1.1,0.8c0.1-0.2,0.5-0.8,1-0.8c0.3,0,0.9,0.1,0.9,0.7c0,0.4-0.3,0.6-0.5,0.6
			c-0.3,0-0.4-0.2-0.4-0.3c0-0.2,0.2-0.5,0.5-0.5c-0.2-0.1-0.4-0.1-0.5-0.1c-0.7,0-0.9,0.9-1,1.2L24.5,107.2z"/>
	</g>
	<g>
		<path class="st2" d="M29.5,107.4c-0.1,0-0.4,0-0.6,0.1c-0.2,0.1-0.3,0.3-0.3,0.4c0,0.2,0.1,0.3,0.4,0.3c0,0,0.2,0,0.3,0.1
			c0.3,0,1,0.2,1,0.8c0,0.3-0.2,1.2-1.5,1.2c-0.7,0-1.1-0.3-1.1-0.7c0-0.3,0.2-0.5,0.4-0.5c0.1,0,0.3,0.1,0.3,0.3
			c0,0.2-0.2,0.4-0.4,0.4c0.2,0.2,0.6,0.3,0.8,0.3c0.1,0,0.4,0,0.7-0.2c0.3-0.2,0.4-0.4,0.4-0.6c0-0.3-0.4-0.4-0.6-0.5
			c-0.5-0.1-0.6-0.1-0.8-0.3c-0.1-0.1-0.2-0.3-0.2-0.5c0-0.2,0.2-1,1.3-1c0.4,0,0.9,0.2,0.9,0.6c0,0.4-0.3,0.4-0.3,0.4
			c-0.1,0-0.2-0.1-0.2-0.2c0-0.1,0.1-0.3,0.3-0.3C30,107.4,29.7,107.4,29.5,107.4z"/>
	</g>
	<g>
		<path class="st2" d="M34.7,111.3c-0.1,0-1-0.6-1.6-1.9c-0.5-1.1-0.7-2.3-0.7-3.1c0-0.8,0.1-1.9,0.6-3c0.6-1.3,1.5-1.9,1.6-1.9
			c0.1,0,0.1,0,0.1,0.1c0,0,0,0-0.1,0.2c-1.2,1.2-1.6,3-1.6,4.7c0,1.5,0.3,3.4,1.6,4.7C34.8,111.2,34.8,111.2,34.7,111.3
			C34.8,111.3,34.8,111.3,34.7,111.3z"/>
	</g>
	<g>
		<path class="st2" d="M36.7,107.8c0,0.2-0.1,0.2-0.1,0.5c0,0.3,0.1,0.5,0.3,0.5c0.3,0,0.9-0.2,1.3-1.3c0-0.1,0.1-0.1,0.1-0.1
			c0,0,0.1,0,0.1,0.1c0,0.1-0.6,1.5-1.6,1.5c-0.5,0-0.9-0.4-0.9-0.9c0-0.2,0-0.3,0.8-3.2h-0.9c-0.2,0-0.3,0-0.3-0.1
			c0-0.2,0.1-0.2,0.3-0.2h0.9l0.4-1.6c0.1-0.3,0.4-0.4,0.4-0.4c0.2,0,0.3,0.1,0.3,0.3c0,0.1,0,0.3-0.4,1.7h0.9c0.2,0,0.3,0,0.3,0.1
			c0,0.2-0.1,0.2-0.3,0.2h-0.9L36.7,107.8z"/>
	</g>
	<g>
		<path class="st2" d="M219.2,107.2c-0.1,0.4-0.2,0.7-0.2,0.9c0,0.3,0.2,0.7,0.5,0.7c0.3,0,1-0.2,1.3-1.3c0-0.1,0-0.1,0.1-0.1
			c0,0,0.1,0,0.1,0.1c0,0.2-0.6,1.5-1.6,1.5c-0.6,0-1-0.4-1.1-0.8c0,0.1-0.4,0.8-1,0.8c-0.4,0-0.9-0.2-0.9-0.7
			c0-0.3,0.2-0.6,0.5-0.6c0.1,0,0.4,0.1,0.4,0.3c0,0.3-0.2,0.5-0.5,0.5c0.2,0.1,0.4,0.1,0.5,0.1c0.4,0,0.8-0.4,0.9-1
			c0.4-1.4,0.5-2.1,0.5-2.4c0-0.6-0.3-0.7-0.5-0.7c-0.3,0-1,0.2-1.3,1.3c0,0.1,0,0.1-0.1,0.1c0,0-0.1,0-0.1-0.1
			c0-0.2,0.6-1.5,1.6-1.5c0.3,0,0.8,0.1,1.1,0.8c0.1-0.2,0.5-0.8,1-0.8c0.3,0,0.9,0.1,0.9,0.7c0,0.4-0.3,0.6-0.5,0.6
			c-0.3,0-0.4-0.2-0.4-0.3c0-0.2,0.2-0.5,0.5-0.5c-0.2-0.1-0.4-0.1-0.5-0.1c-0.7,0-0.9,0.9-1,1.2L219.2,107.2z"/>
	</g>
	<g>
		<path class="st2" d="M225.1,107.3c0.1,0,0.2,0.1,0.2,0.2c0,0-0.1,0.4-0.1,0.5l-0.1,0.5c0,0.2-0.1,0.4-0.2,0.6
			c0,0.2-0.1,0.4-0.1,0.6c0,0.2,0,0.3,0.2,0.3c0.3,0,0.4-0.4,0.5-0.7c0-0.2,0.1-0.2,0.2-0.2c0,0,0.1,0,0.1,0.1c0,0-0.1,0.4-0.2,0.7
			c-0.1,0.2-0.3,0.4-0.6,0.4c-0.2,0-0.6-0.1-0.7-0.5c-0.3,0.3-0.6,0.5-1,0.5c-0.6,0-1.1-0.5-1.1-1.2c0-1,0.9-2,1.8-2
			c0.3,0,0.6,0.2,0.7,0.4C224.8,107.4,225,107.3,225.1,107.3z M224.7,108.1C224.7,108.1,224.7,108,224.7,108.1
			c0-0.2-0.1-0.7-0.6-0.7c-0.2,0-0.6,0.1-0.9,0.7c-0.2,0.3-0.4,1-0.4,1.4c0,0.5,0.3,0.7,0.5,0.7c0.3,0,0.6-0.2,0.6-0.3
			c0.2-0.1,0.3-0.3,0.4-0.5L224.7,108.1z"/>
	</g>
	<g>
		<path class="st2" d="M230,111.3c-0.1,0-1-0.6-1.6-1.9c-0.5-1.1-0.7-2.3-0.7-3.1c0-0.8,0.1-1.9,0.6-3c0.6-1.3,1.5-1.9,1.6-1.9
			c0.1,0,0.1,0,0.1,0.1c0,0,0,0-0.1,0.2c-1.2,1.2-1.6,3-1.6,4.7c0,1.5,0.3,3.4,1.6,4.7C230.1,111.2,230.1,111.2,230,111.3
			C230.1,111.3,230,111.3,230,111.3z"/>
	</g>
	<g>
		<path class="st2" d="M231.9,107.8c0,0.2-0.1,0.2-0.1,0.5c0,0.3,0.1,0.5,0.3,0.5c0.3,0,0.9-0.2,1.3-1.3c0-0.1,0.1-0.1,0.1-0.1
			c0,0,0.1,0,0.1,0.1c0,0.1-0.6,1.5-1.6,1.5c-0.5,0-0.9-0.4-0.9-0.9c0-0.2,0-0.3,0.8-3.2h-0.9c-0.2,0-0.3,0-0.3-0.1
			c0-0.2,0.1-0.2,0.3-0.2h0.9l0.4-1.6c0.1-0.3,0.4-0.4,0.4-0.4c0.2,0,0.3,0.1,0.3,0.3c0,0.1,0,0.3-0.4,1.7h0.9c0.2,0,0.3,0,0.3,0.1
			c0,0.2-0.1,0.2-0.3,0.2h-0.9L231.9,107.8z"/>
	</g>
	<g>
		<path class="st2" d="M236.4,109.4c-0.6,1.3-1.5,1.9-1.6,1.9c-0.1,0-0.1,0-0.1-0.1c0,0,0,0,0.1-0.2c1.2-1.3,1.6-3,1.6-4.7
			c0-2.1-0.6-3.7-1.5-4.7c-0.2-0.2-0.2-0.2-0.2-0.2c0-0.1,0-0.1,0.1-0.1c0.1,0,1,0.6,1.6,1.9c0.5,1.1,0.7,2.3,0.7,3.1
			C237.1,107.2,237,108.3,236.4,109.4z"/>
	</g>
	<polyline points="243.8,115.7 248.3,113.4 243.8,111.1 244.9,113.4 	"/>
	<path class="st1" d="M184.6,113.4h60.4 M64.1,113.4V81.5h120.5v63.8H64.1V113.4z"/>
	<polyline points="165.9,126.3 170.4,124 165.9,121.7 167,124 	"/>
	<line class="st1" x1="74.7" y1="124" x2="167" y2="124"/>
	<polyline points="123.1,93.1 120.8,88.6 118.5,93.1 120.8,92 	"/>
	<line class="st1" x1="120.8" y1="127.6" x2="120.8" y2="92"/>
	<line class="st9" x1="99.5" y1="124" x2="99.5" y2="106.3"/>
	<line class="st10" x1="99.5" y1="106.3" x2="142" y2="106.3"/>
	<line class="st9" x1="142" y1="106.3" x2="142" y2="124"/>
	<g>
		<path class="st2" d="M122.5,136.9c-0.4,0.9-1.2,1.2-1.7,1.2c-0.5,0-1.2-0.2-1.6-1c-0.4-0.8-0.4-1.7-0.4-2.4c0-0.8,0-1.6,0.4-2.3
			c0.4-0.9,1.1-1.2,1.7-1.2c0.4,0,1.2,0.2,1.7,1.1c0.3,0.7,0.4,1.5,0.4,2.3C122.9,135.4,122.8,136.2,122.5,136.9z M121.9,136.6
			c0.1-0.6,0.1-1.3,0.1-2.1c0-0.6,0-1.4-0.1-1.9c-0.2-1-0.8-1.2-1.2-1.2c-0.2,0-1,0.1-1.2,1.3c-0.1,0.5-0.1,1.2-0.1,1.8
			c0,0.6,0,1.5,0.1,2.1c0.2,1,0.8,1.2,1.2,1.2C121.2,137.8,121.8,137.5,121.9,136.6z"/>
	</g>
	<g>
		<path class="st2" d="M141.4,131.1c-0.2,0.6-0.2,0.9-0.5,0.9c-0.2,0-0.2-0.1-0.2-0.2c0,0,0-0.1,0-0.1c0,0,0.1-0.2,0.1-0.3
			c0.2-0.4,0.6-1.2,0.8-2h-0.4c-0.2,0-0.6,0-0.9,0.5c0,0.1,0,0.1-0.1,0.1c0,0-0.1,0-0.1-0.1c0-0.1,0.3-0.4,0.5-0.6
			c0.3-0.3,0.5-0.4,0.8-0.4h2.6c0.1,0,0.3,0,0.3,0.2c0,0,0,0.1-0.1,0.2c-0.1,0.1-0.1,0.1-0.3,0.1h-0.9c-0.1,0.5-0.1,0.8-0.1,0.9
			c0,0.6,0.1,1,0.3,1.2c0,0.1,0.1,0.1,0.1,0.2c0,0.2-0.2,0.3-0.3,0.3c-0.1,0-0.2,0-0.3-0.4c0-0.2-0.1-0.3-0.1-0.6
			c0-0.6,0.2-1.2,0.3-1.6h-0.8L141.4,131.1z"/>
	</g>
	<polyline points="137.8,133.7 146.5,133.7 146.5,133.2 137.8,133.2 	"/>
	<g>
		<path class="st2" d="M140.3,138.7c0,0.1,0,0.1,0,0.2c0,0.1,0,0.1,0.3,0.1c0.1,0,0.3,0,0.4,0c0.2,0,0.3,0,0.3,0.1
			c0,0.2-0.1,0.2-0.2,0.2c-0.2,0-0.4,0-0.6,0c-0.2,0-0.4,0-0.6,0c-0.2,0-0.4,0-0.6,0s-0.4,0-0.6,0c-0.1,0-0.1-0.1-0.1-0.1
			c0-0.2,0.1-0.2,0.3-0.2c0.7,0,0.8-0.1,0.8-0.3l0.9-3.7c0-0.1,0-0.1,0-0.1c0-0.1,0-0.1-0.2-0.1h-0.3c-1.1,0-1.3,0.1-1.7,1.2
			c0,0.1-0.1,0.2-0.1,0.2c-0.1,0-0.1-0.1-0.1-0.1c0,0,0-0.1,0-0.1l0.4-1.2c0-0.1,0.1-0.1,0.2-0.1h4.3c0.1,0,0.2,0,0.2,0.1l-0.2,1.3
			c0,0.1,0,0.2-0.1,0.2c-0.1,0-0.1,0-0.1-0.1l0-0.1c0-0.4,0-0.5,0-0.6c0-0.3,0-0.5-0.3-0.6c-0.2-0.1-0.4-0.1-0.8-0.1
			c-0.1,0-0.4,0-0.4,0c-0.2,0-0.2,0-0.2,0.2L140.3,138.7z"/>
	</g>
	<g>
		<path class="st2" d="M144.5,138.2c-0.7,0-0.7,0.4-0.7,0.4c0,0.2,0.2,0.2,0.6,0.3c0.3,0,0.8,0.1,0.8,0.6c0,0.2-0.2,0.8-1.2,0.8
			c-0.1,0-0.9,0-0.9-0.5c0-0.2,0.1-0.4,0.3-0.4c0.1,0,0.2,0.1,0.2,0.2c0,0.1-0.1,0.3-0.3,0.3c0.2,0.2,0.5,0.2,0.7,0.2
			c0.9,0,0.9-0.5,0.9-0.5c0-0.3-0.3-0.3-0.7-0.4c-0.3,0-0.4-0.1-0.6-0.2c-0.1-0.1-0.2-0.2-0.2-0.4c0-0.2,0.2-0.7,1-0.7
			c0.4,0,0.8,0.1,0.8,0.4c0,0.3-0.2,0.3-0.3,0.3c-0.1,0-0.2-0.1-0.2-0.2c0,0,0-0.2,0.2-0.2C144.9,138.2,144.6,138.2,144.5,138.2z"/>
	</g>
	<g>
		<path class="st2" d="M179.6,124.8c-0.4,0.7-0.8,1.4-1.6,1.4c-0.6,0-1-0.5-1.1-1c-0.4,0.5-0.8,1-1.5,1c-0.8,0-1-0.7-1-1.4
			c0-0.9,0.4-2.1,0.9-2.8c0.1-0.1,0.1-0.2,0.3-0.2c0.1,0,0.2,0.1,0.2,0.2c0,0.1-1,1.2-1,2.4c0,0.6,0.2,1.1,0.9,1.1
			c0.6,0,1-0.4,1.4-0.9c0-0.4,0.1-1,0.2-1.2c0.1-0.1,0.2-0.2,0.3-0.2c0.1,0,0.2,0.1,0.2,0.2c0,0.3-0.2,0.9-0.3,1.2
			c0.1,0.5,0.4,0.9,1,0.9c0.5,0,0.8-0.3,1.1-0.8c0.3-0.5,0.5-1,0.5-1.4c0-0.4-0.2-0.7-0.3-0.8c-0.1-0.1-0.1-0.2-0.1-0.3
			c0-0.2,0.3-0.5,0.5-0.5c0.2,0,0.4,0.2,0.4,0.7C180.2,123,179.9,124.4,179.6,124.8z"/>
	</g>
	<g>
		<path class="st2" d="M91.4,133.5c-0.2,0-0.3,0-0.3-0.2s0.2-0.2,0.3-0.2h5.4c0.2,0,0.3,0,0.3,0.2s-0.2,0.2-0.3,0.2H91.4z"/>
	</g>
	<g>
		<path class="st2" d="M102.7,131.1c-0.2,0.6-0.2,0.9-0.5,0.9c-0.2,0-0.2-0.1-0.2-0.2c0,0,0-0.1,0-0.1c0,0,0.1-0.2,0.1-0.3
			c0.2-0.4,0.6-1.2,0.8-2h-0.4c-0.2,0-0.6,0-0.9,0.5c0,0.1,0,0.1-0.1,0.1c0,0-0.1,0-0.1-0.1c0-0.1,0.3-0.4,0.5-0.6
			c0.3-0.3,0.5-0.4,0.8-0.4h2.6c0.1,0,0.3,0,0.3,0.2c0,0,0,0.1-0.1,0.2c-0.1,0.1-0.1,0.1-0.3,0.1h-0.9c-0.1,0.5-0.1,0.8-0.1,0.9
			c0,0.6,0.1,1,0.3,1.2c0,0.1,0.1,0.1,0.1,0.2c0,0.2-0.2,0.3-0.3,0.3c-0.1,0-0.2,0-0.3-0.4c0-0.2-0.1-0.3-0.1-0.6
			c0-0.6,0.2-1.2,0.3-1.6h-0.8L102.7,131.1z"/>
	</g>
	<polyline points="99.2,133.7 107.8,133.7 107.8,133.2 99.2,133.2 	"/>
	<g>
		<path class="st2" d="M101.7,138.7c0,0.1,0,0.1,0,0.2c0,0.1,0,0.1,0.3,0.1c0.1,0,0.3,0,0.4,0c0.2,0,0.3,0,0.3,0.1
			c0,0.2-0.1,0.2-0.2,0.2c-0.2,0-0.4,0-0.6,0c-0.2,0-0.4,0-0.6,0s-0.4,0-0.6,0s-0.4,0-0.6,0c-0.1,0-0.1-0.1-0.1-0.1
			c0-0.2,0.1-0.2,0.3-0.2c0.7,0,0.8-0.1,0.8-0.3l0.9-3.7c0-0.1,0-0.1,0-0.1c0-0.1,0-0.1-0.2-0.1h-0.3c-1.1,0-1.3,0.1-1.7,1.2
			c0,0.1-0.1,0.2-0.1,0.2c-0.1,0-0.1-0.1-0.1-0.1c0,0,0-0.1,0-0.1l0.4-1.2c0-0.1,0.1-0.1,0.2-0.1h4.3c0.1,0,0.2,0,0.2,0.1l-0.2,1.3
			c0,0.1,0,0.2-0.1,0.2c-0.1,0-0.1,0-0.1-0.1l0-0.1c0-0.4,0-0.5,0-0.6c0-0.3,0-0.5-0.3-0.6c-0.2-0.1-0.4-0.1-0.8-0.1
			c-0.1,0-0.4,0-0.4,0c-0.2,0-0.2,0-0.2,0.2L101.7,138.7z"/>
	</g>
	<g>
		<path class="st2" d="M105.9,138.2c-0.7,0-0.7,0.4-0.7,0.4c0,0.2,0.2,0.2,0.6,0.3c0.3,0,0.8,0.1,0.8,0.6c0,0.2-0.2,0.8-1.2,0.8
			c-0.1,0-0.9,0-0.9-0.5c0-0.2,0.1-0.4,0.3-0.4c0.1,0,0.2,0.1,0.2,0.2c0,0.1-0.1,0.3-0.3,0.3c0.2,0.2,0.5,0.2,0.7,0.2
			c0.9,0,0.9-0.5,0.9-0.5c0-0.3-0.3-0.3-0.7-0.4c-0.3,0-0.4-0.1-0.6-0.2c-0.1-0.1-0.2-0.2-0.2-0.4c0-0.2,0.2-0.7,1-0.7
			c0.4,0,0.8,0.1,0.8,0.4c0,0.3-0.2,0.3-0.3,0.3c-0.1,0-0.2-0.1-0.2-0.2c0,0,0-0.2,0.2-0.2C106.3,138.2,106,138.2,105.9,138.2z"/>
	</g>
	<g>
		<path class="st2" d="M104.5,101.1c0,0.1,0,0.2,0,0.2c0,0.2,0.1,0.2,0.4,0.2c0.3,0,0.4,0,0.6,0c0.3,0,0.3,0,0.3,0.1
			c0,0.2-0.1,0.2-0.2,0.2c-0.3,0-0.6,0-0.9,0c-0.3,0-0.5,0-0.8,0c-0.3,0-0.6,0-0.8,0c-0.3,0-0.5,0-0.8,0c-0.1,0-0.2,0-0.2-0.1
			c0-0.2,0.1-0.2,0.4-0.2c1.1,0,1.1-0.1,1.2-0.5l1.3-5.3c0,0,0-0.1,0-0.2c0-0.1,0-0.1-0.3-0.1h-0.4c-1.5,0-1.7,0.2-2.3,1.7
			c-0.1,0.2-0.1,0.2-0.2,0.2c-0.1,0-0.1,0-0.1-0.1c0,0,0-0.2,0.1-0.2l0.6-1.8c0.1-0.2,0.1-0.2,0.3-0.2h5.5c0.2,0,0.3,0,0.3,0.1
			c0,0,0,0.1,0,0.2l-0.3,1.7c0,0.1,0,0.2-0.1,0.2c-0.1,0-0.1-0.1-0.1-0.1c0,0,0-0.1,0-0.2c0-0.3,0.1-0.6,0.1-0.8
			c0-0.8-0.4-0.8-1.5-0.8c-0.2,0-0.5,0-0.6,0c-0.1,0-0.2,0.1-0.2,0.4L104.5,101.1z"/>
	</g>
	<g>
		<path class="st2" d="M109.8,100.4c-0.1,0-0.4,0-0.6,0.1c-0.2,0.1-0.3,0.3-0.3,0.4c0,0.2,0.1,0.3,0.4,0.3c0,0,0.2,0,0.3,0.1
			c0.3,0,1,0.2,1,0.8c0,0.3-0.2,1.2-1.5,1.2c-0.7,0-1.1-0.3-1.1-0.7c0-0.3,0.2-0.5,0.4-0.5c0.1,0,0.3,0.1,0.3,0.3
			c0,0.2-0.2,0.4-0.4,0.4c0.2,0.2,0.6,0.3,0.8,0.3c0.1,0,0.4,0,0.7-0.2c0.3-0.2,0.4-0.4,0.4-0.6c0-0.3-0.4-0.4-0.6-0.5
			c-0.5-0.1-0.6-0.1-0.8-0.3c-0.1-0.1-0.2-0.3-0.2-0.5c0-0.2,0.2-1,1.3-1c0.4,0,0.9,0.2,0.9,0.6c0,0.4-0.3,0.4-0.3,0.4
			c-0.1,0-0.2-0.1-0.2-0.2c0-0.1,0.1-0.3,0.3-0.3C110.3,100.4,110,100.4,109.8,100.4z"/>
	</g>
	<g>
		<path class="st2" d="M134.9,94c0,0.1,0,0.1,0,0.2c0,0.2,0.3,0.2,0.6,0.2c0.2,0,0.3,0,0.3,0.1c0,0.2-0.1,0.2-0.2,0.2
			c-0.2,0-0.4,0-0.6,0c-0.2,0-0.4,0-0.6,0c-0.3,0-1,0-1.3,0c0,0-0.1,0-0.1-0.1c0-0.2,0.1-0.2,0.2-0.2c0.6,0,0.8,0,0.9-0.3
			c0-0.1,0.3-1.1,0.7-2.8h-3L131,94c0,0.1,0,0.1,0,0.2c0,0.2,0.3,0.2,0.6,0.2c0.2,0,0.3,0,0.3,0.1c0,0.2-0.1,0.2-0.2,0.2
			c-0.2,0-0.4,0-0.6,0c-0.2,0-0.4,0-0.6,0c-0.3,0-1,0-1.3,0c0,0-0.1,0-0.1-0.1c0-0.2,0.1-0.2,0.3-0.2c0.8,0,0.8-0.1,0.9-0.5l1.3-5.4
			c0-0.1,0-0.1,0-0.2c0-0.1-0.1-0.1-0.3-0.2c-0.2,0-0.4,0-0.4,0c-0.2,0-0.3,0-0.3-0.1c0-0.2,0.1-0.2,0.2-0.2c0.3,0,1,0,1.3,0
			c0.3,0,1,0,1.3,0c0,0,0.1,0,0.1,0.1c0,0.2-0.1,0.2-0.3,0.2c-0.7,0-0.7,0.1-0.8,0.5l-0.6,2.3h3l0.6-2.4c0-0.1,0-0.1,0-0.2
			c0-0.1-0.1-0.1-0.3-0.2c-0.2,0-0.4,0-0.4,0c-0.2,0-0.3,0-0.3-0.1c0-0.2,0.1-0.2,0.2-0.2c0.3,0,1,0,1.3,0c0.3,0,1,0,1.3,0
			c0,0,0.1,0,0.1,0.1c0,0.2-0.1,0.2-0.3,0.2c-0.7,0-0.7,0.1-0.8,0.5L134.9,94z"/>
	</g>
	<g>
		<path class="st2" d="M138.3,95.4c0,0.2-0.1,0.5-0.1,0.5c-0.1,0.1-0.2,0.2-0.3,0.2c-0.1,0-0.2-0.1-0.2-0.2c0,0,0-0.2,0.1-0.3
			l0.2-0.9c0-0.2,0.1-0.4,0.2-0.6s0.1-0.4,0.1-0.6c0-0.2,0-0.3-0.2-0.3c-0.3,0-0.4,0.3-0.5,0.8c0,0.2-0.1,0.2-0.2,0.2
			c0,0-0.1,0-0.1-0.1c0,0,0.1-0.4,0.3-0.7c0.1-0.2,0.3-0.4,0.5-0.4c0.2,0,0.6,0.1,0.7,0.5c0.3-0.3,0.6-0.5,1-0.5
			c0.4,0,0.7,0.1,0.7,0.5c0,0.3-0.2,0.4-0.4,0.4s-0.3-0.1-0.3-0.3c0-0.1,0.1-0.3,0.3-0.4c-0.1-0.1-0.3-0.1-0.4-0.1
			c-0.3,0-0.5,0.1-0.6,0.2c-0.2,0.2-0.4,0.5-0.4,0.6c0,0-0.2,0.7-0.2,0.7L138.3,95.4z"/>
	</g>
	<g>
		<path class="st2" d="M144.5,97.1c-0.1,0-1-0.6-1.6-1.9c-0.5-1.1-0.7-2.3-0.7-3.1c0-0.8,0.1-1.9,0.6-3c0.6-1.3,1.5-1.9,1.6-1.9
			c0.1,0,0.1,0,0.1,0.1c0,0,0,0-0.1,0.2c-1.2,1.2-1.6,3-1.6,4.7c0,1.5,0.3,3.4,1.6,4.7C144.6,97,144.6,97,144.5,97.1
			C144.6,97.1,144.6,97.1,144.5,97.1z"/>
	</g>
	<g>
		<path class="st2" d="M150.6,93.4c-0.4,0.7-0.8,1.4-1.6,1.4c-0.6,0-1-0.5-1.1-1c-0.4,0.5-0.8,1-1.5,1c-0.8,0-1-0.7-1-1.4
			c0-0.9,0.4-2.1,0.9-2.8c0.1-0.1,0.1-0.2,0.3-0.2c0.1,0,0.2,0.1,0.2,0.2c0,0.1-1,1.2-1,2.4c0,0.6,0.2,1.1,0.9,1.1
			c0.6,0,1-0.4,1.4-0.9c0-0.4,0.1-1,0.2-1.2c0.1-0.1,0.2-0.2,0.3-0.2c0.1,0,0.2,0.1,0.2,0.2c0,0.3-0.2,0.9-0.3,1.2
			c0.1,0.5,0.4,0.9,1,0.9c0.5,0,0.8-0.3,1.1-0.8c0.3-0.5,0.5-1,0.5-1.4c0-0.4-0.2-0.7-0.3-0.8c-0.1-0.1-0.1-0.2-0.1-0.3
			c0-0.2,0.3-0.5,0.5-0.5c0.2,0,0.4,0.2,0.4,0.7C151.2,91.6,150.8,92.9,150.6,93.4z"/>
	</g>
	<g>
		<path class="st2" d="M154,95.2c-0.6,1.3-1.5,1.9-1.6,1.9c-0.1,0-0.1,0-0.1-0.1c0,0,0-0.1,0.1-0.2c1.2-1.3,1.6-3,1.6-4.7
			c0-2.1-0.6-3.7-1.5-4.7c-0.2-0.2-0.2-0.2-0.2-0.2c0-0.1,0-0.1,0.1-0.1c0.1,0,1,0.6,1.6,1.9c0.5,1.1,0.7,2.3,0.7,3.1
			C154.6,93,154.5,94.1,154,95.2z"/>
	</g>
	<line class="st11" x1="74.7" y1="124" x2="99.5" y2="124"/>
	<line class="st12" x1="142" y1="124" x2="163.3" y2="124"/>
	<g>
		<path class="st2" d="M86.3,77.5h1.6c1.8,0,2-0.9,2.1-2.3h0.2l-0.2,2.7h-4.6c-0.2,0-0.3,0-0.3-0.2c0-0.1,0-0.1,0.1-0.2l3.9-6.1
			h-1.6c-1.6,0-1.9,0.8-2,1.9h-0.2l0.1-2.2h4.5c0.2,0,0.3,0,0.3,0.2c0,0.1,0,0.1-0.1,0.2L86.3,77.5z"/>
		<path class="st2" d="M92.2,77c0.2,0.4,0.6,0.7,1.1,0.7c0.1,0,1,0,1.3-1c0-0.1,0-0.1,0.1-0.1c0,0,0.1,0,0.1,0.1
			c0,0.2-0.4,1.3-1.7,1.3c-1.1,0-2.2-1-2.2-2.3c0-1.2,0.9-2.3,2.1-2.3c1.2,0,1.8,1,1.8,2c0,0.2,0,0.2-0.2,0.2h-2.8
			C91.9,75.9,91.9,76.6,92.2,77z M94.3,75.3c0-0.4-0.1-1.7-1.1-1.7c-0.3,0-1.2,0.2-1.2,1.7H94.3z"/>
		<path class="st2" d="M98.2,73.4c0.4,0,0.7,0.3,0.7,0.6s-0.2,0.4-0.4,0.4c-0.2,0-0.4-0.1-0.4-0.4c0-0.3,0.2-0.4,0.2-0.4
			c0,0,0,0-0.1,0c-0.8,0-1.2,0.9-1.2,1.9v1.5c0,0.4,0,0.5,0.8,0.5H98v0.3c-0.4,0-0.9,0-1.3,0c-0.3,0-0.7,0-1.1,0v-0.3
			c0.7,0,0.8,0,0.8-0.4v-2.7c0-0.5-0.1-0.6-0.8-0.6v-0.3l1.4-0.1v1.1C97.1,74.1,97.5,73.4,98.2,73.4z"/>
		<path class="st2" d="M101.7,78c-1.2,0-2.2-1-2.2-2.2c0-1.2,1-2.3,2.2-2.3c1.2,0,2.2,1.1,2.2,2.3C103.9,77,102.9,78,101.7,78z
			 M102.9,77c0.2-0.4,0.2-1,0.2-1.3c0-0.4,0-1-0.3-1.4c-0.3-0.4-0.7-0.6-1.1-0.6c-0.4,0-0.9,0.2-1.1,0.7c-0.2,0.4-0.2,1-0.2,1.4
			c0,0.4,0,1,0.2,1.4c0.3,0.5,0.7,0.7,1.1,0.7C102.2,77.7,102.7,77.4,102.9,77z"/>
	</g>
	<g>
		<path class="st2" d="M111.2,78.1c-1.8,0-3.3-1.6-3.3-3.6c0-2.1,1.5-3.6,3.3-3.6c1.8,0,3.3,1.6,3.3,3.6
			C114.5,76.5,113,78.1,111.2,78.1z M113.5,74.3c0-2.6-1.4-3.3-2.3-3.3c-0.8,0-2.3,0.7-2.3,3.3c0,2.6,1.3,3.5,2.3,3.5
			C112.1,77.8,113.5,77,113.5,74.3z"/>
		<path class="st2" d="M118,73.4c0.4,0,0.7,0.3,0.7,0.6s-0.2,0.4-0.4,0.4c-0.2,0-0.4-0.1-0.4-0.4c0-0.3,0.2-0.4,0.2-0.4
			c0,0,0,0-0.1,0c-0.8,0-1.2,0.9-1.2,1.9v1.5c0,0.4,0,0.5,0.8,0.5h0.2v0.3c-0.4,0-0.9,0-1.3,0c-0.3,0-0.7,0-1.1,0v-0.3
			c0.7,0,0.8,0,0.8-0.4v-2.7c0-0.5-0.1-0.6-0.8-0.6v-0.3l1.4-0.1v1.1C116.9,74.1,117.3,73.4,118,73.4z"/>
		<path class="st2" d="M121.5,78c-1.1,0-2.1-1-2.1-2.3c0-1.3,1-2.3,2.2-2.3c0.5,0,1,0.3,1.3,0.6v-2.2c0-0.5-0.1-0.6-0.8-0.6V71
			l1.4-0.1v6c0,0.5,0.1,0.6,0.8,0.6v0.3l-1.5,0.1v-0.7C122.6,77.6,122.1,78,121.5,78z M122.7,74.3c-0.3-0.4-0.7-0.6-1.1-0.6
			c-0.5,0-0.9,0.3-1.1,0.6c-0.3,0.4-0.3,1-0.3,1.4c0,0.4,0,1,0.3,1.4c0.2,0.4,0.6,0.6,1,0.6c0.4,0,0.9-0.2,1.2-0.7
			c0.1-0.2,0.1-0.2,0.1-0.4v-2C122.8,74.4,122.8,74.4,122.7,74.3z"/>
		<path class="st2" d="M126,77c0.2,0.4,0.6,0.7,1.1,0.7c0.1,0,1,0,1.3-1c0-0.1,0-0.1,0.1-0.1c0,0,0.1,0,0.1,0.1
			c0,0.2-0.4,1.3-1.7,1.3c-1.1,0-2.2-1-2.2-2.3c0-1.2,0.9-2.3,2.1-2.3c1.2,0,1.8,1,1.8,2c0,0.2,0,0.2-0.2,0.2h-2.8
			C125.7,75.9,125.7,76.6,126,77z M128.1,75.3c0-0.4-0.1-1.7-1.1-1.7c-0.3,0-1.2,0.2-1.2,1.7H128.1z"/>
	</g>
	<g>
		<path class="st2" d="M132,73.4c0.4,0,0.7,0.3,0.7,0.6s-0.2,0.4-0.4,0.4c-0.2,0-0.4-0.1-0.4-0.4c0-0.3,0.2-0.4,0.2-0.4
			c0,0,0,0-0.1,0c-0.8,0-1.2,0.9-1.2,1.9v1.5c0,0.4,0,0.5,0.8,0.5h0.2v0.3c-0.4,0-0.9,0-1.3,0c-0.3,0-0.7,0-1.1,0v-0.3
			c0.7,0,0.8,0,0.8-0.4v-2.7c0-0.5-0.1-0.6-0.8-0.6v-0.3l1.4-0.1v1.1C130.9,74.1,131.2,73.4,132,73.4z"/>
		<path class="st2" d="M142.4,77.1c0,0.4,0,0.5,0.8,0.5h0.2v0.3c-0.3,0-1.1,0-1.5,0c-0.4,0-1.1,0-1.5,0v-0.3h0.2
			c0.8,0,0.8-0.1,0.8-0.5v-2.6h-3v2.6c0,0.4,0,0.5,0.8,0.5h0.2v0.3c-0.3,0-1.1,0-1.5,0c-0.4,0-1.1,0-1.5,0v-0.3h0.2
			c0.8,0,0.8-0.1,0.8-0.5v-5.3c0-0.4,0-0.5-0.8-0.5h-0.2V71c0.3,0,1.1,0,1.5,0c0.4,0,1.1,0,1.5,0v0.3h-0.2c-0.8,0-0.8,0.1-0.8,0.5
			v2.3h3v-2.3c0-0.4,0-0.5-0.8-0.5h-0.2V71c0.3,0,1.1,0,1.5,0c0.4,0,1.1,0,1.5,0v0.3h-0.2c-0.8,0-0.8,0.1-0.8,0.5V77.1z"/>
	</g>
	<g>
		<path class="st2" d="M146.2,78c-1.2,0-2.2-1-2.2-2.2c0-1.2,1-2.3,2.2-2.3c1.2,0,2.2,1.1,2.2,2.3C148.4,77,147.4,78,146.2,78z
			 M147.4,77c0.2-0.4,0.2-1,0.2-1.3c0-0.4,0-1-0.3-1.4c-0.3-0.4-0.7-0.6-1.1-0.6c-0.4,0-0.9,0.2-1.1,0.7c-0.2,0.4-0.2,1-0.2,1.4
			c0,0.4,0,1,0.2,1.4c0.3,0.5,0.7,0.7,1.1,0.7C146.7,77.7,147.1,77.4,147.4,77z"/>
		<path class="st2" d="M150.5,77.1c0,0.4,0.1,0.4,0.8,0.4v0.3c-0.4,0-0.9,0-1.1,0s-0.8,0-1.1,0v-0.3c0.7,0,0.8,0,0.8-0.4v-5.2
			c0-0.5-0.1-0.6-0.8-0.6V71l1.4-0.1V77.1z"/>
	</g>
	<g>
		<path class="st2" d="M154,78c-1.1,0-2.1-1-2.1-2.3c0-1.3,1-2.3,2.2-2.3c0.5,0,1,0.3,1.3,0.6v-2.2c0-0.5-0.1-0.6-0.8-0.6V71
			l1.4-0.1v6c0,0.5,0.1,0.6,0.8,0.6v0.3l-1.5,0.1v-0.7C155,77.6,154.6,78,154,78z M155.2,74.3c-0.3-0.4-0.7-0.6-1.1-0.6
			c-0.5,0-0.9,0.3-1.1,0.6c-0.3,0.4-0.3,1-0.3,1.4c0,0.4,0,1,0.3,1.4c0.2,0.4,0.6,0.6,1,0.6c0.4,0,0.9-0.2,1.2-0.7
			c0.1-0.2,0.1-0.2,0.1-0.4v-2C155.3,74.4,155.3,74.4,155.2,74.3z"/>
	</g>
	<g>
		<path class="st2" d="M158.4,135c0.2,0,0.9,0,0.9-0.1c0.1-0.1,0.2-0.6,0.2-0.9h0.2l-0.3,1.7h-3.7c0-0.2,0-0.3,0.1-0.4l1.9-2.1
			c0.5-0.6,1-1.4,1-2.2c0-0.8-0.4-1.6-1.3-1.6c-0.6,0-1.1,0.4-1.3,1c0,0,0,0,0.1,0c0.3,0,0.5,0.3,0.5,0.5c0,0.4-0.3,0.5-0.5,0.5
			c0,0-0.5,0-0.5-0.6c0-0.9,0.7-1.8,1.9-1.8c1.2,0,2.1,0.8,2.1,1.9c0,1-0.6,1.5-2.2,2.9l-1.1,1H158.4z"/>
	</g>
	<g>
		<path class="st2" d="M165.1,131.1c-0.2,0.6-0.2,0.9-0.5,0.9c-0.2,0-0.2-0.1-0.2-0.2c0,0,0-0.1,0-0.1c0,0,0.1-0.2,0.1-0.3
			c0.2-0.4,0.6-1.2,0.8-2h-0.4c-0.2,0-0.6,0-0.9,0.5c0,0.1,0,0.1-0.1,0.1c0,0-0.1,0-0.1-0.1c0-0.1,0.3-0.4,0.5-0.6
			c0.3-0.3,0.5-0.4,0.8-0.4h2.6c0.1,0,0.3,0,0.3,0.2c0,0,0,0.1-0.1,0.2c-0.1,0.1-0.1,0.1-0.3,0.1h-0.9c-0.1,0.5-0.1,0.8-0.1,0.9
			c0,0.6,0.1,1,0.3,1.2c0,0.1,0.1,0.1,0.1,0.2c0,0.2-0.2,0.3-0.3,0.3c-0.1,0-0.2,0-0.3-0.4c0-0.2-0.1-0.3-0.1-0.6
			c0-0.6,0.2-1.2,0.3-1.6h-0.8L165.1,131.1z"/>
	</g>
	<polyline points="161.6,133.7 170.2,133.7 170.2,133.2 161.6,133.2 	"/>
	<g>
		<path class="st2" d="M164.1,138.7c0,0.1,0,0.1,0,0.2c0,0.1,0,0.1,0.3,0.1c0.1,0,0.3,0,0.4,0c0.2,0,0.3,0,0.3,0.1
			c0,0.2-0.1,0.2-0.2,0.2c-0.2,0-0.4,0-0.6,0c-0.2,0-0.4,0-0.6,0c-0.2,0-0.4,0-0.6,0s-0.4,0-0.6,0c-0.1,0-0.1-0.1-0.1-0.1
			c0-0.2,0.1-0.2,0.3-0.2c0.7,0,0.8-0.1,0.8-0.3l0.9-3.7c0-0.1,0-0.1,0-0.1c0-0.1,0-0.1-0.2-0.1h-0.3c-1.1,0-1.3,0.1-1.7,1.2
			c0,0.1-0.1,0.2-0.1,0.2c-0.1,0-0.1-0.1-0.1-0.1c0,0,0-0.1,0-0.1l0.4-1.2c0-0.1,0.1-0.1,0.2-0.1h4.3c0.1,0,0.2,0,0.2,0.1l-0.2,1.3
			c0,0.1,0,0.2-0.1,0.2c-0.1,0-0.1,0-0.1-0.1l0-0.1c0-0.4,0-0.5,0-0.6c0-0.3,0-0.5-0.3-0.6c-0.2-0.1-0.4-0.1-0.8-0.1
			c-0.1,0-0.4,0-0.4,0c-0.2,0-0.2,0-0.2,0.2L164.1,138.7z"/>
	</g>
	<g>
		<path class="st2" d="M168.3,138.2c-0.7,0-0.7,0.4-0.7,0.4c0,0.2,0.2,0.2,0.6,0.3c0.3,0,0.8,0.1,0.8,0.6c0,0.2-0.2,0.8-1.2,0.8
			c-0.1,0-0.9,0-0.9-0.5c0-0.2,0.1-0.4,0.3-0.4c0.1,0,0.2,0.1,0.2,0.2c0,0.1-0.1,0.3-0.3,0.3c0.2,0.2,0.5,0.2,0.7,0.2
			c0.9,0,0.9-0.5,0.9-0.5c0-0.3-0.3-0.3-0.7-0.4c-0.3,0-0.4-0.1-0.6-0.2c-0.1-0.1-0.2-0.2-0.2-0.4c0-0.2,0.2-0.7,1-0.7
			c0.4,0,0.8,0.1,0.8,0.4c0,0.3-0.2,0.3-0.3,0.3c-0.1,0-0.2-0.1-0.2-0.2c0,0,0-0.2,0.2-0.2C168.7,138.2,168.4,138.2,168.3,138.2z"/>
	</g>
	<g>
		<path class="st2" d="M68.8,133.9v-0.6h2.6v0.6H68.8z"/>
		<path class="st2" d="M75.1,135c0.2,0,0.9,0,0.9-0.1c0.1-0.1,0.2-0.6,0.2-0.9h0.2l-0.3,1.7h-3.7c0-0.2,0-0.3,0.1-0.4l1.9-2.1
			c0.5-0.6,1-1.4,1-2.2c0-0.8-0.4-1.6-1.3-1.6c-0.6,0-1.1,0.4-1.3,1c0,0,0,0,0.1,0c0.3,0,0.5,0.3,0.5,0.5c0,0.4-0.3,0.5-0.5,0.5
			c0,0-0.5,0-0.5-0.6c0-0.9,0.7-1.8,1.9-1.8c1.2,0,2.1,0.8,2.1,1.9c0,1-0.6,1.5-2.2,2.9l-1.1,1H75.1z"/>
	</g>
	<g>
		<path class="st2" d="M81.7,131.1c-0.2,0.6-0.2,0.9-0.5,0.9c-0.2,0-0.2-0.1-0.2-0.2c0,0,0-0.1,0-0.1c0,0,0.1-0.2,0.1-0.3
			c0.2-0.4,0.6-1.2,0.8-2h-0.4c-0.2,0-0.6,0-0.9,0.5c0,0.1,0,0.1-0.1,0.1c0,0-0.1,0-0.1-0.1c0-0.1,0.3-0.4,0.5-0.6
			c0.3-0.3,0.5-0.4,0.8-0.4h2.6c0.1,0,0.3,0,0.3,0.2c0,0,0,0.1-0.1,0.2c-0.1,0.1-0.1,0.1-0.3,0.1h-0.9c-0.1,0.5-0.1,0.8-0.1,0.9
			c0,0.6,0.1,1,0.3,1.2c0,0.1,0.1,0.1,0.1,0.2c0,0.2-0.2,0.3-0.3,0.3c-0.1,0-0.2,0-0.3-0.4c0-0.2-0.1-0.3-0.1-0.6
			c0-0.6,0.2-1.2,0.3-1.6h-0.8L81.7,131.1z"/>
	</g>
	<polyline points="78.2,133.7 86.8,133.7 86.8,133.2 78.2,133.2 	"/>
	<g>
		<path class="st2" d="M80.7,138.7c0,0.1,0,0.1,0,0.2c0,0.1,0,0.1,0.3,0.1c0.1,0,0.3,0,0.4,0c0.2,0,0.3,0,0.3,0.1
			c0,0.2-0.1,0.2-0.2,0.2c-0.2,0-0.4,0-0.6,0c-0.2,0-0.4,0-0.6,0s-0.4,0-0.6,0s-0.4,0-0.6,0c-0.1,0-0.1-0.1-0.1-0.1
			c0-0.2,0.1-0.2,0.3-0.2c0.7,0,0.8-0.1,0.8-0.3l0.9-3.7c0-0.1,0-0.1,0-0.1c0-0.1,0-0.1-0.2-0.1h-0.3c-1.1,0-1.3,0.1-1.7,1.2
			c0,0.1-0.1,0.2-0.1,0.2c-0.1,0-0.1-0.1-0.1-0.1c0,0,0-0.1,0-0.1l0.4-1.2c0-0.1,0.1-0.1,0.2-0.1h4.3c0.1,0,0.2,0,0.2,0.1l-0.2,1.3
			c0,0.1,0,0.2-0.1,0.2c-0.1,0-0.1,0-0.1-0.1l0-0.1c0-0.4,0-0.5,0-0.6c0-0.3,0-0.5-0.3-0.6c-0.2-0.1-0.4-0.1-0.8-0.1
			c-0.1,0-0.4,0-0.4,0c-0.2,0-0.2,0-0.2,0.2L80.7,138.7z"/>
	</g>
	<g>
		<path class="st2" d="M84.9,138.2c-0.7,0-0.7,0.4-0.7,0.4c0,0.2,0.2,0.2,0.6,0.3c0.3,0,0.8,0.1,0.8,0.6c0,0.2-0.2,0.8-1.2,0.8
			c-0.1,0-0.9,0-0.9-0.5c0-0.2,0.1-0.4,0.3-0.4c0.1,0,0.2,0.1,0.2,0.2c0,0.1-0.1,0.3-0.3,0.3c0.2,0.2,0.5,0.2,0.7,0.2
			c0.9,0,0.9-0.5,0.9-0.5c0-0.3-0.3-0.3-0.7-0.4c-0.3,0-0.4-0.1-0.6-0.2c-0.1-0.1-0.2-0.2-0.2-0.4c0-0.2,0.2-0.7,1-0.7
			c0.4,0,0.8,0.1,0.8,0.4c0,0.3-0.2,0.3-0.3,0.3c-0.1,0-0.2-0.1-0.2-0.2c0,0,0-0.2,0.2-0.2C85.3,138.2,85,138.2,84.9,138.2z"/>
	</g>
	<g>
		<path class="st13" d="M78.1,94c0,0.1,0,0.1,0,0.2c0,0.2,0.3,0.2,0.6,0.2c0.2,0,0.3,0,0.3,0.1c0,0.2-0.1,0.2-0.2,0.2
			c-0.2,0-0.4,0-0.6,0c-0.2,0-0.4,0-0.6,0c-0.3,0-1,0-1.3,0c0,0-0.1,0-0.1-0.1c0-0.2,0.1-0.2,0.2-0.2c0.6,0,0.8,0,0.9-0.3
			c0-0.1,0.3-1.1,0.7-2.8h-3L74.2,94c0,0.1,0,0.1,0,0.2c0,0.2,0.3,0.2,0.6,0.2c0.2,0,0.3,0,0.3,0.1c0,0.2-0.1,0.2-0.2,0.2
			c-0.2,0-0.4,0-0.6,0c-0.2,0-0.4,0-0.6,0c-0.3,0-1,0-1.3,0c0,0-0.1,0-0.1-0.1c0-0.2,0.1-0.2,0.3-0.2c0.8,0,0.8-0.1,0.9-0.5l1.3-5.4
			c0-0.1,0-0.1,0-0.2c0-0.1-0.1-0.1-0.3-0.2c-0.2,0-0.4,0-0.4,0c-0.2,0-0.3,0-0.3-0.1c0-0.2,0.1-0.2,0.2-0.2c0.3,0,1,0,1.3,0
			c0.3,0,1,0,1.3,0c0,0,0.1,0,0.1,0.1c0,0.2-0.1,0.2-0.3,0.2c-0.7,0-0.7,0.1-0.8,0.5L75,91h3l0.6-2.4c0-0.1,0-0.1,0-0.2
			c0-0.1-0.1-0.1-0.3-0.2c-0.2,0-0.4,0-0.4,0c-0.2,0-0.3,0-0.3-0.1c0-0.2,0.1-0.2,0.2-0.2c0.3,0,1,0,1.3,0c0.3,0,1,0,1.3,0
			c0,0,0.1,0,0.1,0.1c0,0.2-0.1,0.2-0.3,0.2c-0.7,0-0.7,0.1-0.8,0.5L78.1,94z"/>
	</g>
	<g>
		<path class="st13" d="M82.1,96.2c-1.6,0-1.6-1.9-1.6-2.4c0-0.5,0-2.4,1.6-2.4c0.6,0,1,0.3,1.2,0.6c0.3,0.5,0.4,1,0.4,1.8
			C83.7,94.4,83.7,96.2,82.1,96.2z M83,95.2c0.1-0.4,0.1-1,0.1-1.5c0-0.6,0-1.1-0.1-1.5c-0.1-0.4-0.5-0.6-0.9-0.6
			c-0.3,0-0.7,0.1-0.9,0.7c-0.1,0.4-0.1,0.9-0.1,1.4c0,0.5,0,1.1,0.1,1.5c0.1,0.6,0.6,0.8,0.9,0.8C82.4,96,82.8,95.9,83,95.2z"/>
	</g>
	<g>
		<path class="st13" d="M87.8,97.1c-0.1,0-1-0.6-1.6-1.9c-0.5-1.1-0.7-2.3-0.7-3.1c0-0.8,0.1-1.9,0.6-3c0.6-1.3,1.5-1.9,1.6-1.9
			c0.1,0,0.1,0,0.1,0.1c0,0,0,0-0.1,0.2c-1.2,1.2-1.6,3-1.6,4.7c0,1.5,0.3,3.4,1.6,4.7C87.9,97,87.9,97,87.8,97.1
			C87.9,97.1,87.8,97.1,87.8,97.1z"/>
	</g>
	<g>
		<path class="st13" d="M93.8,93.4c-0.4,0.7-0.8,1.4-1.6,1.4c-0.6,0-1-0.5-1.1-1c-0.4,0.5-0.8,1-1.5,1c-0.8,0-1-0.7-1-1.4
			c0-0.9,0.4-2.1,0.9-2.8c0.1-0.1,0.1-0.2,0.3-0.2c0.1,0,0.2,0.1,0.2,0.2c0,0.1-1,1.2-1,2.4c0,0.6,0.2,1.1,0.9,1.1
			c0.6,0,1-0.4,1.4-0.9c0-0.4,0.1-1,0.2-1.2c0.1-0.1,0.2-0.2,0.3-0.2c0.1,0,0.2,0.1,0.2,0.2c0,0.3-0.2,0.9-0.3,1.2
			c0.1,0.5,0.4,0.9,1,0.9c0.5,0,0.8-0.3,1.1-0.8c0.3-0.5,0.5-1,0.5-1.4c0-0.4-0.2-0.7-0.3-0.8c-0.1-0.1-0.1-0.2-0.1-0.3
			c0-0.2,0.3-0.5,0.5-0.5c0.2,0,0.4,0.2,0.4,0.7C94.4,91.6,94,92.9,93.8,93.4z"/>
	</g>
	<g>
		<path class="st13" d="M97.2,95.2c-0.6,1.3-1.5,1.9-1.6,1.9c-0.1,0-0.1,0-0.1-0.1c0,0,0-0.1,0.1-0.2c1.2-1.3,1.6-3,1.6-4.7
			c0-2.1-0.6-3.7-1.5-4.7c-0.2-0.2-0.2-0.2-0.2-0.2c0-0.1,0-0.1,0.1-0.1c0.1,0,1,0.6,1.6,1.9c0.5,1.1,0.7,2.3,0.7,3.1
			C97.9,93,97.8,94.1,97.2,95.2z"/>
	</g>
	<path class="st14" d="M78.3,124c27.3-17.4,45.9-21.1,62-12.4l0,0c16.1,8.7,23,12.4,23,12.4 M163.3,124l7.1,3.5 M78.3,124l-7.1,3.5"
		/>
	<polyline points="95,207.8 99.5,205.5 95,203.2 96.1,205.5 	"/>
	<line class="st1" x1="3.9" y1="205.5" x2="96.1" y2="205.5"/>
	<polyline points="52.2,164 49.9,159.4 47.7,164 49.9,162.8 	"/>
	<path class="st1" d="M49.9,209.1v-46.2 M35.7,205.5l14.2-35.4 M49.9,170.1l14.2,35.4 M21.6,205.5L7.4,170.1 M7.4,170.1l-3.5,7.1
		 M78.3,205.5l14.2-35.4 M92.4,170.1l3.5,7.1"/>
	<g>
		<path class="st2" d="M51.7,218.4c-0.4,0.9-1.2,1.2-1.7,1.2c-0.5,0-1.2-0.2-1.6-1c-0.4-0.8-0.4-1.7-0.4-2.4c0-0.8,0-1.6,0.4-2.3
			c0.4-0.9,1.1-1.2,1.7-1.2c0.4,0,1.2,0.2,1.7,1.1c0.3,0.7,0.4,1.5,0.4,2.3C52.1,216.9,52,217.7,51.7,218.4z M51.1,218.1
			c0.1-0.6,0.1-1.3,0.1-2.1c0-0.6,0-1.4-0.1-1.9c-0.2-1-0.8-1.2-1.2-1.2c-0.2,0-1,0.1-1.2,1.3c-0.1,0.5-0.1,1.2-0.1,1.8
			c0,0.6,0,1.5,0.1,2.1c0.2,1,0.8,1.2,1.2,1.2C50.4,219.3,51,219,51.1,218.1z"/>
	</g>
	<g>
		<path class="st2" d="M21.7,215.4v-0.6h2.6v0.6H21.7z"/>
	</g>
	<g>
		<path class="st2" d="M29.6,212.6c-0.2,0.6-0.2,0.9-0.5,0.9c-0.2,0-0.2-0.1-0.2-0.2c0,0,0-0.1,0-0.1c0,0,0.1-0.2,0.1-0.3
			c0.2-0.4,0.6-1.2,0.8-2h-0.4c-0.2,0-0.6,0-0.9,0.5c0,0.1,0,0.1-0.1,0.1c0,0-0.1,0-0.1-0.1c0-0.1,0.3-0.4,0.5-0.6
			c0.3-0.3,0.5-0.4,0.8-0.4h2.6c0.1,0,0.3,0,0.3,0.2c0,0,0,0.1-0.1,0.2c-0.1,0.1-0.1,0.1-0.3,0.1h-0.9c-0.1,0.5-0.1,0.8-0.1,0.9
			c0,0.6,0.1,1,0.3,1.2c0,0.1,0.1,0.1,0.1,0.2c0,0.2-0.2,0.3-0.3,0.3c-0.1,0-0.2,0-0.3-0.4c0-0.2-0.1-0.3-0.1-0.6
			c0-0.6,0.2-1.2,0.3-1.6h-0.8L29.6,212.6z"/>
	</g>
	<polyline points="26.1,215.1 34.8,215.1 34.8,214.7 26.1,214.7 	"/>
	<g>
		<path class="st2" d="M28.6,220.2c0,0.1,0,0.1,0,0.2c0,0.1,0,0.1,0.3,0.1c0.1,0,0.3,0,0.4,0c0.2,0,0.3,0,0.3,0.1
			c0,0.2-0.1,0.2-0.2,0.2c-0.2,0-0.4,0-0.6,0c-0.2,0-0.4,0-0.6,0s-0.4,0-0.6,0s-0.4,0-0.6,0c-0.1,0-0.1-0.1-0.1-0.1
			c0-0.2,0.1-0.2,0.3-0.2c0.7,0,0.8-0.1,0.8-0.3l0.9-3.7c0-0.1,0-0.1,0-0.1c0-0.1,0-0.1-0.2-0.1h-0.3c-1.1,0-1.3,0.1-1.7,1.2
			c0,0.1-0.1,0.2-0.1,0.2c-0.1,0-0.1-0.1-0.1-0.1c0,0,0-0.1,0-0.1l0.4-1.2c0-0.1,0.1-0.1,0.2-0.1h4.3c0.1,0,0.2,0,0.2,0.1l-0.2,1.3
			c0,0.1,0,0.2-0.1,0.2c-0.1,0-0.1,0-0.1-0.1l0-0.1c0-0.4,0-0.5,0-0.6c0-0.3,0-0.5-0.3-0.6c-0.2-0.1-0.4-0.1-0.8-0.1
			c-0.1,0-0.4,0-0.4,0c-0.2,0-0.2,0-0.2,0.2L28.6,220.2z"/>
	</g>
	<g>
		<path class="st2" d="M32.8,219.7c-0.7,0-0.7,0.4-0.7,0.4c0,0.2,0.2,0.2,0.6,0.3c0.3,0,0.8,0.1,0.8,0.6c0,0.2-0.2,0.8-1.2,0.8
			c-0.1,0-0.9,0-0.9-0.5c0-0.2,0.1-0.4,0.3-0.4c0.1,0,0.2,0.1,0.2,0.2c0,0.1-0.1,0.3-0.3,0.3c0.2,0.2,0.5,0.2,0.7,0.2
			c0.9,0,0.9-0.5,0.9-0.5c0-0.3-0.3-0.3-0.7-0.4c-0.3,0-0.4-0.1-0.6-0.2c-0.1-0.1-0.2-0.2-0.2-0.4c0-0.2,0.2-0.7,1-0.7
			c0.4,0,0.8,0.1,0.8,0.4c0,0.3-0.2,0.3-0.3,0.3c-0.1,0-0.2-0.1-0.2-0.2c0,0,0-0.2,0.2-0.2C33.2,219.7,32.9,219.7,32.8,219.7z"/>
	</g>
	<g>
		<path class="st2" d="M108.8,206.4c-0.4,0.7-0.8,1.4-1.6,1.4c-0.6,0-1-0.5-1.1-1c-0.4,0.5-0.8,1-1.5,1c-0.8,0-1-0.7-1-1.4
			c0-0.9,0.4-2.1,0.9-2.8c0.1-0.1,0.1-0.2,0.3-0.2c0.1,0,0.2,0.1,0.2,0.2c0,0.1-1,1.2-1,2.4c0,0.6,0.2,1.1,0.9,1.1
			c0.6,0,1-0.4,1.4-0.9c0-0.4,0.1-1,0.2-1.2c0.1-0.1,0.2-0.2,0.3-0.2c0.1,0,0.2,0.1,0.2,0.2c0,0.3-0.2,0.9-0.3,1.2
			c0.1,0.5,0.4,0.9,1,0.9c0.5,0,0.8-0.3,1.1-0.8c0.3-0.5,0.5-1,0.5-1.4c0-0.4-0.2-0.7-0.3-0.8c-0.1-0.1-0.1-0.2-0.1-0.3
			c0-0.2,0.3-0.5,0.5-0.5c0.2,0,0.4,0.2,0.4,0.7C109.4,204.6,109,206,108.8,206.4z"/>
	</g>
	<g>
		<path class="st2" d="M40.3,156.3c0.1-0.1,0.1-0.2,0.2-0.2c0.1,0,0.1,0,0.2,0.2l0.6,4.3c0,0.2,0,0.2,0.4,0.2c0.1,0,0.2,0,0.2,0.1
			c0,0.1,0,0.1-0.1,0.1c-0.1,0-0.3,0-0.4,0c-0.1,0-0.3,0-0.4,0c-0.2,0-0.7,0-0.9,0c-0.1,0-0.1-0.1-0.1-0.1c0-0.2,0.1-0.2,0.2-0.2
			c0.4,0,0.5-0.1,0.5-0.2l-0.2-1.2h-2l-0.6,0.9c0,0.1-0.1,0.2-0.1,0.3c0,0.2,0.3,0.2,0.3,0.2c0,0,0.1,0,0.1,0.1
			c0,0.2-0.1,0.2-0.1,0.2c-0.2,0-0.5,0-0.7,0c-0.2,0-0.4,0-0.6,0c0,0-0.1,0-0.1-0.1c0-0.1,0.1-0.1,0.2-0.1c0.4,0,0.6-0.2,0.9-0.6
			L40.3,156.3z M40.5,159.3l-0.3-2.3l-1.5,2.3H40.5z"/>
	</g>
	<polyline points="35,162.8 43.6,162.8 43.6,162.3 35,162.3 	"/>
	<g>
		<path class="st2" d="M37.5,168c0,0.1,0,0.1,0,0.2c0,0.1,0,0.1,0.3,0.1c0.1,0,0.3,0,0.4,0c0.2,0,0.3,0,0.3,0.1
			c0,0.2-0.1,0.2-0.2,0.2c-0.2,0-0.4,0-0.6,0c-0.2,0-0.4,0-0.6,0s-0.4,0-0.6,0s-0.4,0-0.6,0c-0.1,0-0.1-0.1-0.1-0.1
			c0-0.2,0.1-0.2,0.3-0.2c0.7,0,0.8-0.1,0.8-0.3l0.9-3.7c0-0.1,0-0.1,0-0.1c0-0.1,0-0.1-0.2-0.1h-0.3c-1.1,0-1.3,0.1-1.7,1.2
			c0,0.1-0.1,0.2-0.1,0.2c-0.1,0-0.1-0.1-0.1-0.1c0,0,0-0.1,0-0.1l0.4-1.2c0-0.1,0.1-0.1,0.2-0.1h4.3c0.1,0,0.2,0,0.2,0.1l-0.2,1.3
			c0,0.1,0,0.2-0.1,0.2c-0.1,0-0.1,0-0.1-0.1l0-0.1c0-0.4,0-0.5,0-0.6c0-0.3,0-0.5-0.3-0.6c-0.2-0.1-0.4-0.1-0.8-0.1
			c-0.1,0-0.4,0-0.4,0c-0.2,0-0.2,0-0.2,0.2L37.5,168z"/>
	</g>
	<g>
		<path class="st2" d="M41.7,167.5c-0.7,0-0.7,0.4-0.7,0.4c0,0.2,0.2,0.2,0.6,0.3c0.3,0,0.8,0.1,0.8,0.6c0,0.2-0.2,0.8-1.2,0.8
			c-0.1,0-0.9,0-0.9-0.5c0-0.2,0.1-0.4,0.3-0.4c0.1,0,0.2,0.1,0.2,0.2c0,0.1-0.1,0.3-0.3,0.3c0.2,0.2,0.5,0.2,0.7,0.2
			c0.9,0,0.9-0.5,0.9-0.5c0-0.3-0.3-0.3-0.7-0.4c-0.3,0-0.4-0.1-0.6-0.2c-0.1-0.1-0.2-0.2-0.2-0.4c0-0.2,0.2-0.7,1-0.7
			c0.4,0,0.8,0.1,0.8,0.4c0,0.3-0.2,0.3-0.3,0.3c-0.1,0-0.2-0.1-0.2-0.2c0,0,0-0.2,0.2-0.2C42.1,167.5,41.8,167.5,41.7,167.5z"/>
	</g>
	<g>
		<path class="st2" d="M60.8,156.1c0.1-0.1,0.2-0.2,0.2-0.4c0-0.3-0.3-0.3-0.4-0.3c-0.1,0-0.1,0-0.1-0.1c0-0.2,0.1-0.2,0.2-0.2
			c0.4,0,0.7,0,1.1,0c0.3,0,0.6,0,0.9,0c0.1,0,0.1,0.1,0.1,0.1c0,0.2-0.1,0.2-0.2,0.2c-0.6,0-1,0.3-1.3,0.5c-0.3,0.3-1.4,1.5-2,2.2
			c0.2,0.6,0.9,2.2,1.3,3.1c0.2,0.4,0.2,0.4,0.9,0.4c0.1,0,0.2,0,0.2,0.1c0,0.2-0.1,0.2-0.2,0.2c-0.2,0-0.9,0-1.1,0
			c-0.3,0-1,0-1.3,0c0,0-0.1,0-0.1-0.1c0-0.2,0.1-0.2,0.2-0.2c0.4,0,0.6-0.2,0.6-0.3c0,0,0,0,0-0.1l-1-2.4l-0.9,1l-1,1.1
			c-0.1,0.1-0.3,0.3-0.3,0.4c0,0.3,0.3,0.3,0.4,0.3c0,0,0.1,0,0.1,0.1c0,0.2-0.1,0.2-0.2,0.2c-0.4,0-0.7,0-1.1,0c-0.3,0-0.6,0-0.9,0
			c-0.1,0-0.1-0.1-0.1-0.1c0-0.2,0.1-0.2,0.2-0.2c0.5,0,1-0.2,1.5-0.7l0.1-0.1l2.1-2.3l-1.2-2.8c-0.1-0.2-0.1-0.3-0.7-0.3
			c-0.1,0-0.2,0-0.2-0.1c0-0.2,0.1-0.2,0.2-0.2c0.2,0,0.9,0,1.1,0c0.4,0,0.8,0,1.3,0c0,0,0.1,0,0.1,0.1c0,0.2-0.1,0.2-0.2,0.2
			c-0.4,0-0.6,0.2-0.6,0.3c0,0,0,0,0,0.1l0.8,2L60.8,156.1z"/>
	</g>
	<g>
		<path class="st2" d="M64.9,160.5c-0.1,0-0.4,0-0.6,0.1c-0.2,0.1-0.3,0.3-0.3,0.4c0,0.2,0.1,0.3,0.4,0.3c0,0,0.2,0,0.3,0.1
			c0.3,0,1,0.2,1,0.8c0,0.3-0.2,1.2-1.5,1.2c-0.7,0-1.1-0.3-1.1-0.7c0-0.3,0.2-0.5,0.4-0.5c0.1,0,0.3,0.1,0.3,0.3
			c0,0.2-0.2,0.4-0.4,0.4c0.2,0.2,0.6,0.3,0.8,0.3c0.1,0,0.4,0,0.7-0.2c0.3-0.2,0.4-0.4,0.4-0.6c0-0.3-0.4-0.4-0.6-0.5
			c-0.5-0.1-0.6-0.1-0.8-0.3c-0.1-0.1-0.2-0.3-0.2-0.5c0-0.2,0.2-1,1.3-1c0.4,0,0.9,0.2,0.9,0.6c0,0.4-0.3,0.4-0.3,0.4
			c-0.1,0-0.2-0.1-0.2-0.2c0-0.1,0.1-0.3,0.3-0.3C65.4,160.6,65.1,160.5,64.9,160.5z"/>
	</g>
	<g>
		<path class="st2" d="M70,164.5c-0.1,0-1-0.6-1.6-1.9c-0.5-1.1-0.7-2.3-0.7-3.1c0-0.8,0.1-1.9,0.6-3c0.6-1.3,1.5-1.9,1.6-1.9
			c0.1,0,0.1,0,0.1,0.1c0,0,0,0-0.1,0.2c-1.2,1.2-1.6,3-1.6,4.7c0,1.5,0.3,3.4,1.6,4.7C70.1,164.3,70.1,164.3,70,164.5
			C70.1,164.4,70.1,164.5,70,164.5z"/>
	</g>
	<g>
		<path class="st2" d="M76,160.7c-0.4,0.7-0.8,1.4-1.6,1.4c-0.6,0-1-0.5-1.1-1c-0.4,0.5-0.8,1-1.5,1c-0.8,0-1-0.7-1-1.4
			c0-0.9,0.4-2.1,0.9-2.8c0.1-0.1,0.1-0.2,0.3-0.2c0.1,0,0.2,0.1,0.2,0.2c0,0.1-1,1.2-1,2.4c0,0.6,0.2,1.1,0.9,1.1
			c0.6,0,1-0.4,1.4-0.9c0-0.4,0.1-1,0.2-1.2c0.1-0.1,0.2-0.2,0.3-0.2c0.1,0,0.2,0.1,0.2,0.2c0,0.3-0.2,0.9-0.3,1.2
			c0.1,0.5,0.4,0.9,1,0.9c0.5,0,0.8-0.3,1.1-0.8c0.3-0.5,0.5-1,0.5-1.4c0-0.4-0.2-0.7-0.3-0.8c-0.1-0.1-0.1-0.2-0.1-0.3
			c0-0.2,0.3-0.5,0.5-0.5c0.2,0,0.4,0.2,0.4,0.7C76.7,158.9,76.3,160.2,76,160.7z"/>
	</g>
	<g>
		<path class="st2" d="M79.5,162.5c-0.6,1.3-1.5,1.9-1.6,1.9c-0.1,0-0.1,0-0.1-0.1c0,0,0,0,0.1-0.2c1.2-1.3,1.6-3,1.6-4.7
			c0-2.1-0.6-3.7-1.5-4.7c-0.2-0.2-0.2-0.2-0.2-0.2c0-0.1,0-0.1,0.1-0.1c0.1,0,1,0.6,1.6,1.9c0.5,1.1,0.7,2.3,0.7,3.1
			C80.1,160.3,80,161.4,79.5,162.5z"/>
	</g>
	<g>
		<path class="st2" d="M70.5,212.6c-0.2,0.6-0.2,0.9-0.5,0.9c-0.2,0-0.2-0.1-0.2-0.2c0,0,0-0.1,0-0.1c0,0,0.1-0.2,0.1-0.3
			c0.2-0.4,0.6-1.2,0.8-2h-0.4c-0.2,0-0.6,0-0.9,0.5c0,0.1,0,0.1-0.1,0.1c0,0-0.1,0-0.1-0.1c0-0.1,0.3-0.4,0.5-0.6
			c0.3-0.3,0.5-0.4,0.8-0.4h2.6c0.1,0,0.3,0,0.3,0.2c0,0,0,0.1-0.1,0.2c-0.1,0.1-0.1,0.1-0.3,0.1H72c-0.1,0.5-0.1,0.8-0.1,0.9
			c0,0.6,0.1,1,0.3,1.2c0,0.1,0.1,0.1,0.1,0.2c0,0.2-0.2,0.3-0.3,0.3c-0.1,0-0.2,0-0.3-0.4c0-0.2-0.1-0.3-0.1-0.6
			c0-0.6,0.2-1.2,0.3-1.6h-0.8L70.5,212.6z"/>
	</g>
	<polyline points="66.9,215.1 75.6,215.1 75.6,214.7 66.9,214.7 	"/>
	<g>
		<path class="st2" d="M69.4,220.2c0,0.1,0,0.1,0,0.2c0,0.1,0,0.1,0.3,0.1c0.1,0,0.3,0,0.4,0c0.2,0,0.3,0,0.3,0.1
			c0,0.2-0.1,0.2-0.2,0.2c-0.2,0-0.4,0-0.6,0c-0.2,0-0.4,0-0.6,0s-0.4,0-0.6,0s-0.4,0-0.6,0c-0.1,0-0.1-0.1-0.1-0.1
			c0-0.2,0.1-0.2,0.3-0.2c0.7,0,0.8-0.1,0.8-0.3l0.9-3.7c0-0.1,0-0.1,0-0.1c0-0.1,0-0.1-0.2-0.1h-0.3c-1.1,0-1.3,0.1-1.7,1.2
			c0,0.1-0.1,0.2-0.1,0.2c-0.1,0-0.1-0.1-0.1-0.1c0,0,0-0.1,0-0.1l0.4-1.2c0-0.1,0.1-0.1,0.2-0.1h4.3c0.1,0,0.2,0,0.2,0.1l-0.2,1.3
			c0,0.1,0,0.2-0.1,0.2c-0.1,0-0.1,0-0.1-0.1l0-0.1c0-0.4,0-0.5,0-0.6c0-0.3,0-0.5-0.3-0.6c-0.2-0.1-0.4-0.1-0.8-0.1
			c-0.1,0-0.4,0-0.4,0c-0.2,0-0.2,0-0.2,0.2L69.4,220.2z"/>
	</g>
	<g>
		<path class="st2" d="M73.6,219.7c-0.7,0-0.7,0.4-0.7,0.4c0,0.2,0.2,0.2,0.6,0.3c0.3,0,0.8,0.1,0.8,0.6c0,0.2-0.2,0.8-1.2,0.8
			c-0.1,0-0.9,0-0.9-0.5c0-0.2,0.1-0.4,0.3-0.4c0.1,0,0.2,0.1,0.2,0.2c0,0.1-0.1,0.3-0.3,0.3c0.2,0.2,0.5,0.2,0.7,0.2
			c0.9,0,0.9-0.5,0.9-0.5c0-0.3-0.3-0.3-0.7-0.4c-0.3,0-0.4-0.1-0.6-0.2c-0.1-0.1-0.2-0.2-0.2-0.4c0-0.2,0.2-0.7,1-0.7
			c0.4,0,0.8,0.1,0.8,0.4c0,0.3-0.2,0.3-0.3,0.3c-0.1,0-0.2-0.1-0.2-0.2c0,0,0-0.2,0.2-0.2C74,219.7,73.7,219.7,73.6,219.7z"/>
	</g>
	<path class="st1" d="M71.2,209.1V202 M28.7,209.1V202"/>
	<path class="st15" d="M7.4,205.5c0,0,23.9-35.4,42.5-35.4s42.5,35.4,42.5,35.4l0,0"/>
	<line class="st16" x1="92.4" y1="205.5" x2="99.5" y2="209.1"/>
	<line class="st16" x1="7.4" y1="205.5" x2="0.3" y2="209.1"/>
	<g>
		<path class="st2" d="M41.4,109.4c-0.6,1.3-1.5,1.9-1.6,1.9c-0.1,0-0.1,0-0.1-0.1c0,0,0,0,0.1-0.2c1.2-1.3,1.6-3,1.6-4.7
			c0-2.1-0.6-3.7-1.5-4.7c-0.2-0.2-0.2-0.2-0.2-0.2c0-0.1,0-0.1,0.1-0.1c0.1,0,1,0.6,1.6,1.9c0.5,1.1,0.7,2.3,0.7,3.1
			C42.1,107.2,42,108.3,41.4,109.4z"/>
	</g>
</g>
</svg>
