<?xml version="1.0" encoding="utf-8"?>
<!-- Generator: Adobe Illustrator 22.1.0, SVG Export Plug-In . SVG Version: 6.00 Build 0)  -->
<svg version="1.1" id="Layer_1" xmlns="http://www.w3.org/2000/svg" xmlns:xlink="http://www.w3.org/1999/xlink" x="0px" y="0px"
	 viewBox="0 0 126.9 103.4" style="enable-background:new 0 0 126.9 103.4;" xml:space="preserve">
<style type="text/css">
	.st0{fill:none;stroke:#000000;stroke-width:0.8504;stroke-miterlimit:10;}
</style>
<g>
	<g>
		<path d="M3,6.7C2.9,7.2,2.8,7.4,2.8,7.6C2.8,8,3,8.3,3.4,8.3c0.3,0,1-0.2,1.3-1.3c0-0.1,0-0.1,0.1-0.1c0,0,0.1,0,0.1,0.1
			c0,0.2-0.6,1.5-1.6,1.5c-0.6,0-1-0.4-1.1-0.8c0,0.1-0.4,0.8-1,0.8c-0.4,0-0.9-0.2-0.9-0.7c0-0.3,0.2-0.6,0.5-0.6
			c0.1,0,0.4,0.1,0.4,0.3c0,0.3-0.2,0.5-0.5,0.5c0.2,0.1,0.4,0.1,0.5,0.1c0.4,0,0.8-0.4,0.9-1c0.4-1.4,0.5-2.1,0.5-2.4
			c0-0.6-0.3-0.7-0.5-0.7c-0.3,0-1,0.2-1.3,1.3c0,0.1-0.1,0.1-0.1,0.1c0,0-0.1,0-0.1-0.1C0.6,5.3,1.2,4,2.2,4C2.5,4,3,4.1,3.3,4.7
			C3.4,4.5,3.7,4,4.3,4c0.3,0,0.9,0.1,0.9,0.7c0,0.4-0.3,0.6-0.5,0.6C4.4,5.2,4.3,5,4.3,4.9c0-0.2,0.2-0.5,0.5-0.5
			C4.6,4.2,4.4,4.2,4.3,4.2c-0.7,0-0.9,0.9-1,1.2L3,6.7z"/>
	</g>
	<g>
		<path d="M6.8,10.9v-10h1.4v0.4h-1v9.2h1v0.4H6.8z"/>
	</g>
	<g>
		<path d="M9.9,5.5C10,5,10,4.9,10,4.7c0-0.3-0.1-0.5-0.3-0.5C9.3,4.2,9.1,4.7,9,5.4C8.9,5.6,8.9,5.6,8.8,5.6c0,0-0.1,0-0.1-0.1
			c0,0,0.1-0.6,0.3-1C9.1,4.4,9.3,4,9.7,4c0.5,0,0.9,0.3,0.9,0.9C10.8,4.6,11.3,4,12.2,4c0.7,0,1.1,0.4,1.1,1.1
			c0,0.6-0.4,1.7-0.6,2.2c-0.1,0.2-0.2,0.5-0.2,0.7c0,0.2,0.1,0.3,0.2,0.3c0.5,0,0.8-0.6,1-1.2c0-0.1,0-0.2,0.1-0.2
			c0,0,0.1,0,0.1,0.1c0,0.1-0.4,1.5-1.3,1.5c-0.5,0-0.8-0.3-0.8-0.8c0-0.1,0-0.2,0.1-0.5c0.2-0.4,0.6-1.7,0.6-2.3
			c0-0.3-0.1-0.7-0.5-0.7c-0.9,0-1.5,0.9-1.6,1.2c0,0-0.1,0.3-0.1,0.5c0,0.2-0.1,0.4-0.2,0.7L10,7.5C10,7.7,9.9,8.2,9.8,8.2
			C9.8,8.4,9.6,8.5,9.5,8.5c-0.1,0-0.3-0.1-0.3-0.3c0-0.1,0.1-0.3,0.1-0.4L9.9,5.5z"/>
	</g>
	<g>
		<path d="M16,10.9h-1.4v-0.4h1V1.3h-1V0.9H16V10.9z"/>
	</g>
	<polyline points="28.9,8.1 33.4,5.9 28.9,3.6 30,5.9 	"/>
	<line class="st0" x1="19.3" y1="5.9" x2="30" y2="5.9"/>
	<g>
		<path d="M114,43.8c-0.3,1.1-1.3,2-2.3,2c-0.6,0-1.1-0.4-1.1-0.9c0-0.5,0.3-0.6,0.6-0.6c0.1,0,0.4,0,0.4,0.3c0,0.2-0.1,0.3-0.2,0.4
			c-0.1,0.1-0.3,0.1-0.4,0.1c0.2,0.4,0.6,0.4,0.8,0.4c0.5,0,0.8-0.3,1.1-0.6c0.4-0.5,0.5-1,0.6-1.5c-0.3,0.3-0.6,0.4-1,0.4
			c-0.6,0-1.2-0.3-1.2-1.2c0-0.5,0.2-1,0.6-2.1c0.1-0.2,0.2-0.4,0.2-0.7c0-0.3-0.2-0.3-0.2-0.3c-0.3,0-0.7,0.3-1,1.2
			c0,0.2-0.1,0.2-0.2,0.2c0,0-0.1,0-0.1-0.1c0-0.1,0.4-1.5,1.3-1.5c0.5,0,0.8,0.4,0.8,0.8c0,0.2,0,0.3-0.2,0.7
			c-0.3,0.9-0.5,1.5-0.5,2c0,0.4,0.1,0.8,0.6,0.8c0.7,0,1.1-0.7,1.1-0.8l0.4-1.8c0.1-0.3,0.1-0.5,0.2-0.8c0-0.2,0.1-0.5,0.1-0.5
			c0.1-0.1,0.2-0.2,0.3-0.2c0.1,0,0.3,0.1,0.3,0.3c0,0.1,0,0.1,0,0.2L114,43.8z"/>
	</g>
	<g>
		<path d="M116.5,46.3v-10h1.4v0.4h-1v9.2h1v0.4H116.5z"/>
	</g>
	<g>
		<path d="M119.6,40.9c0.1-0.5,0.2-0.6,0.2-0.8c0-0.3-0.1-0.5-0.3-0.5c-0.4,0-0.6,0.5-0.7,1.2c-0.1,0.2-0.1,0.2-0.2,0.2
			c0,0-0.1,0-0.1-0.1c0,0,0.1-0.6,0.3-1c0.1-0.2,0.3-0.6,0.7-0.6c0.5,0,0.9,0.3,0.9,0.9c0.2-0.2,0.7-0.9,1.6-0.9
			c0.7,0,1.1,0.4,1.1,1.1c0,0.6-0.4,1.7-0.6,2.2c-0.1,0.2-0.2,0.5-0.2,0.7c0,0.2,0.1,0.3,0.2,0.3c0.5,0,0.8-0.6,1-1.2
			c0.1-0.1,0.1-0.2,0.2-0.2c0,0,0.1,0,0.1,0.1c0,0.1-0.4,1.5-1.3,1.5c-0.5,0-0.8-0.3-0.8-0.8c0-0.1,0-0.2,0.1-0.5
			c0.2-0.4,0.6-1.7,0.6-2.3c0-0.3-0.1-0.7-0.5-0.7c-0.9,0-1.5,0.9-1.6,1.2c0,0-0.1,0.3-0.1,0.5c0,0.2-0.1,0.4-0.2,0.7l-0.2,0.9
			c-0.1,0.2-0.2,0.7-0.2,0.7c-0.1,0.2-0.2,0.3-0.4,0.3c-0.1,0-0.3-0.1-0.3-0.3c0-0.1,0.1-0.3,0.1-0.4L119.6,40.9z"/>
	</g>
	<g>
		<path d="M125.7,46.3h-1.4v-0.4h1v-9.2h-1v-0.4h1.4V46.3z"/>
	</g>
	<g>
		<path d="M93,26.3c0,0.1,0,0.2,0,0.2c0,0.2,0.1,0.2,0.4,0.2c0.3,0,0.4,0,0.6,0c0.3,0,0.3,0,0.3,0.1c0,0.2-0.1,0.2-0.2,0.2
			c-0.3,0-0.6,0-0.9,0c-0.3,0-0.5,0-0.8,0c-0.3,0-0.6,0-0.8,0c-0.3,0-0.5,0-0.8,0c-0.1,0-0.2,0-0.2-0.1c0-0.2,0.1-0.2,0.4-0.2
			c1.1,0,1.1-0.1,1.2-0.5l1.3-5.3c0,0,0-0.1,0-0.2c0-0.1,0-0.1-0.3-0.1h-0.4c-1.5,0-1.7,0.2-2.3,1.7c-0.1,0.2-0.1,0.2-0.2,0.2
			c-0.1,0-0.1,0-0.1-0.1c0,0,0-0.2,0.1-0.2l0.6-1.8c0.1-0.2,0.1-0.2,0.3-0.2h5.5c0.2,0,0.3,0,0.3,0.1c0,0,0,0.1,0,0.2l-0.3,1.7
			c0,0.1,0,0.2-0.1,0.2c-0.1,0-0.1-0.1-0.1-0.1c0,0,0-0.1,0-0.2c0-0.3,0.1-0.6,0.1-0.8c0-0.8-0.4-0.8-1.5-0.8c-0.2,0-0.5,0-0.6,0
			c-0.1,0-0.2,0.1-0.2,0.4L93,26.3z"/>
	</g>
	<polygon class="st0" points="83,23.6 83,30.7 104.3,30.7 104.3,16.5 83,16.5 	"/>
	<g>
		<path d="M37,9.2c-1.8,0-3.3-1.5-3.3-3.3c0-1.8,1.5-3.3,3.3-3.3c1.8,0,3.3,1.5,3.3,3.3C40.3,7.7,38.9,9.2,37,9.2z M36.9,5.8V2.8
			c-1.6,0.1-2.8,1.3-2.9,2.9H36.9z M36.9,6h-2.9C34,7.7,35.3,8.9,36.9,9V6z M37.1,5.8h2.9c-0.1-1.7-1.4-2.9-2.9-2.9V5.8z M37.1,6V9
			C38.7,8.9,40,7.7,40.1,6H37.1z"/>
	</g>
	<polyline points="39.3,14 37,9.4 34.7,14 37,12.8 	"/>
	<path class="st0" d="M37,37.8V12.8 M40.5,5.9h53.1"/>
	<polyline points="91.4,12 93.7,16.5 95.9,12 93.7,13.1 	"/>
	<line class="st0" x1="93.7" y1="5.9" x2="93.7" y2="13.1"/>
	<polyline points="91.4,47.4 93.7,51.9 95.9,47.4 93.7,48.5 	"/>
	<line class="st0" x1="93.7" y1="30.7" x2="93.7" y2="48.5"/>
	<g>
		<path d="M93,61.8c0,0.1,0,0.2,0,0.2c0,0.2,0.1,0.2,0.4,0.2c0.3,0,0.4,0,0.6,0c0.3,0,0.3,0,0.3,0.1c0,0.2-0.1,0.2-0.2,0.2
			c-0.3,0-0.6,0-0.9,0c-0.3,0-0.5,0-0.8,0c-0.3,0-0.6,0-0.8,0c-0.3,0-0.5,0-0.8,0c-0.1,0-0.2,0-0.2-0.1c0-0.2,0.1-0.2,0.4-0.2
			c1.1,0,1.1-0.1,1.2-0.5l1.3-5.3c0,0,0-0.2,0-0.2c0-0.1,0-0.1-0.3-0.1h-0.4c-1.5,0-1.7,0.2-2.3,1.7C90.5,58,90.5,58,90.4,58
			c-0.1,0-0.1,0-0.1-0.1c0,0,0-0.2,0.1-0.2L91,56c0.1-0.2,0.1-0.2,0.3-0.2h5.5c0.2,0,0.3,0,0.3,0.1c0,0,0,0.1,0,0.2l-0.3,1.7
			c0,0.2,0,0.2-0.1,0.2c-0.1,0-0.1-0.1-0.1-0.1c0,0,0-0.2,0-0.2c0-0.3,0.1-0.6,0.1-0.8c0-0.8-0.4-0.8-1.5-0.8c-0.2,0-0.5,0-0.6,0
			c-0.1,0-0.2,0.1-0.2,0.4L93,61.8z"/>
	</g>
	<polygon class="st0" points="83,59 83,66.1 104.3,66.1 104.3,51.9 83,51.9 	"/>
	<polyline points="45.1,39 40.5,41.3 45.1,43.6 43.9,41.3 	"/>
	<line class="st0" x1="43.9" y1="41.3" x2="58.2" y2="41.3"/>
	<polyline points="69.9,39 65.3,41.3 69.9,43.6 68.7,41.3 	"/>
	<line class="st0" x1="93.7" y1="41.3" x2="68.7" y2="41.3"/>
	<g>
		<path d="M61.8,44.7c-1.8,0-3.3-1.5-3.3-3.3c0-1.8,1.5-3.3,3.3-3.3c1.8,0,3.3,1.5,3.3,3.3C65.1,43.2,63.7,44.7,61.8,44.7z
			 M61.6,41.3l-2.1-2.1c-0.5,0.6-0.8,1.3-0.8,2.1c0,0.6,0.2,1.4,0.8,2.1L61.6,41.3z M61.8,41.5l-2.1,2.1c0.8,0.8,1.7,0.8,2.1,0.8
			c1.3,0,2.1-0.8,2.1-0.8c0,0-0.1-0.1-0.1-0.1L61.8,41.5z M61.8,41.2l2.1-2.1c-0.8-0.8-1.7-0.8-2.1-0.8c-1.3,0-2.1,0.8-2.1,0.8
			c0,0,0.1,0.1,0.1,0.1L61.8,41.2z M62,41.3l2.1,2.1c0.5-0.6,0.8-1.3,0.8-2.1c0-0.8-0.3-1.6-0.8-2.1L62,41.3z"/>
	</g>
	<g>
		<path d="M46.4,57.2c0.2,0,0.9,0,0.9-0.1c0.1-0.2,0.2-0.6,0.2-0.9h0.2L47.5,58h-3.7c0-0.2,0-0.3,0.1-0.4l1.9-2.1
			c0.5-0.6,1-1.4,1-2.2c0-0.8-0.4-1.6-1.3-1.6c-0.6,0-1.1,0.4-1.3,1c0,0,0,0,0.1,0c0.3,0,0.5,0.3,0.5,0.5c0,0.4-0.3,0.5-0.5,0.5
			c0,0-0.5,0-0.5-0.6c0-0.9,0.7-1.8,1.9-1.8c1.2,0,2.1,0.8,2.1,1.9c0,1-0.6,1.5-2.2,2.9l-1.1,1H46.4z"/>
		<path d="M52.6,57.9c0.4,0,1-0.1,1.3-1c0-0.1,0-0.1,0.1-0.1c0,0,0.1,0,0.1,0.1s-0.3,1.3-1.7,1.3c-1.2,0-2.1-1-2.1-2.3
			c0-1.2,0.9-2.3,2.2-2.3c0.8,0,1.5,0.4,1.5,1.1c0,0.3-0.2,0.5-0.5,0.5c-0.3,0-0.5-0.2-0.5-0.5c0-0.1,0.1-0.4,0.5-0.5
			c-0.3-0.4-1-0.4-1.1-0.4c-0.5,0-1.3,0.4-1.3,2C51.2,57.4,52.1,57.9,52.6,57.9z"/>
	</g>
	<g>
		<path d="M56.9,58.1c-1.2,0-2.2-1-2.2-2.2c0-1.2,1-2.3,2.2-2.3c1.2,0,2.2,1.1,2.2,2.3C59.2,57.1,58.2,58.1,56.9,58.1z M58.1,57.1
			c0.2-0.4,0.2-1,0.2-1.3c0-0.4,0-1-0.3-1.4c-0.3-0.4-0.7-0.6-1.1-0.6c-0.4,0-0.9,0.2-1.1,0.7c-0.2,0.4-0.2,1-0.2,1.4
			c0,0.4,0,1,0.2,1.4c0.3,0.5,0.7,0.7,1.1,0.7C57.5,57.9,57.9,57.6,58.1,57.1z"/>
		<path d="M60.3,55.6c-0.3-0.2-0.4-0.5-0.4-0.8c0-0.6,0.4-1.2,1.6-1.2c0.1,0,0.6,0,0.9,0.3c0,0,0.1-0.1,0.2-0.2
			c0.1-0.1,0.1-0.1,0.2-0.1c0.1,0,0.1,0.1,0.1,0.2v1c0,0.2,0,0.2-0.1,0.2c0,0-0.1,0-0.1-0.1c0-0.3-0.1-1.2-1.2-1.2
			c-0.9,0-1.1,0.4-1.1,0.8c0,0.6,0.7,0.7,1.2,0.8c0.4,0.1,0.8,0.2,1.1,0.5c0.1,0.1,0.4,0.4,0.4,0.9c0,0.7-0.5,1.4-1.6,1.4
			c-0.2,0-0.7,0-1.1-0.4c-0.2,0.2-0.2,0.2-0.2,0.2c-0.2,0.2-0.2,0.2-0.2,0.2c-0.1,0-0.1-0.1-0.1-0.2v-1.3c0-0.2,0-0.3,0.1-0.3
			c0.1,0,0.1,0,0.1,0.2c0.2,0.8,0.5,1.4,1.4,1.4c0.8,0,1.1-0.4,1.1-0.9c0-0.7-0.8-0.9-1-0.9C60.9,55.9,60.6,55.9,60.3,55.6z"/>
	</g>
	<g>
		<path d="M66.4,60.5c-0.1,0-1-0.6-1.6-1.9c-0.5-1.1-0.7-2.3-0.7-3.1c0-0.8,0.1-1.9,0.6-3c0.6-1.3,1.5-1.9,1.6-1.9
			c0.1,0,0.1,0,0.1,0.1c0,0,0,0-0.1,0.2c-1.2,1.2-1.6,3-1.6,4.7c0,1.5,0.3,3.4,1.6,4.7C66.5,60.3,66.5,60.4,66.4,60.5
			C66.5,60.5,66.5,60.5,66.4,60.5z"/>
	</g>
	<g>
		<path d="M68.7,58.1c-0.9,0-1.2-1.1-1.2-2c0-2.3,1.5-5.1,2.9-5.1c1,0,1.2,1.4,1.2,2C71.6,55.2,70.1,58.1,68.7,58.1z M68.5,54.7
			c-0.3,1-0.3,1.6-0.3,2c0,0.9,0.2,1.2,0.5,1.2c0.4,0,0.8-0.5,1.2-1.2c0.4-0.7,0.6-1.6,0.7-2H68.5z M70.6,54.4c0.2-1,0.3-1.5,0.3-2
			c0-0.6-0.1-1.2-0.5-1.2c-0.4,0-0.8,0.6-1.1,1c-0.4,0.7-0.6,1.5-0.8,2.1H70.6z"/>
	</g>
	<g>
		<path d="M73.7,59.6c-1.6,0-1.6-1.9-1.6-2.4s0-2.4,1.6-2.4c0.6,0,1,0.3,1.2,0.6c0.3,0.5,0.4,1,0.4,1.8
			C75.3,57.7,75.3,59.6,73.7,59.6z M74.6,58.6c0.1-0.4,0.1-1,0.1-1.5c0-0.6,0-1.1-0.1-1.5c-0.1-0.4-0.5-0.6-0.9-0.6
			c-0.3,0-0.7,0.1-0.9,0.7c-0.1,0.4-0.1,0.9-0.1,1.4c0,0.5,0,1.1,0.1,1.5c0.1,0.6,0.6,0.8,0.9,0.8C74,59.4,74.5,59.2,74.6,58.6z"/>
	</g>
	<g>
		<path d="M78.6,58.5c-0.6,1.3-1.5,1.9-1.6,1.9c-0.1,0-0.1,0-0.1-0.1c0,0,0-0.1,0.1-0.2c1.2-1.3,1.6-3,1.6-4.7
			c0-2.1-0.6-3.7-1.5-4.7c-0.2-0.2-0.2-0.2-0.2-0.2c0-0.1,0-0.1,0.1-0.1c0.1,0,1,0.6,1.6,1.9c0.5,1.1,0.7,2.3,0.7,3.1
			C79.2,56.3,79.1,57.4,78.6,58.5z"/>
	</g>
	<polyline points="64.1,49.4 61.8,44.9 59.5,49.4 61.8,48.3 	"/>
	<line class="st0" x1="61.8" y1="51.9" x2="61.8" y2="48.3"/>
	<g>
		<path d="M37,44.7c-1.8,0-3.3-1.5-3.3-3.3c0-1.8,1.5-3.3,3.3-3.3c1.8,0,3.3,1.5,3.3,3.3C40.3,43.2,38.9,44.7,37,44.7z M36.9,41.2
			v-2.9c-1.6,0.1-2.8,1.3-2.9,2.9H36.9z M36.9,41.5h-2.9c0.1,1.7,1.4,2.9,2.9,2.9V41.5z M37.1,41.2h2.9c-0.1-1.7-1.4-2.9-2.9-2.9
			V41.2z M37.1,41.5v2.9c1.5-0.1,2.8-1.2,2.9-2.9H37.1z"/>
	</g>
	<line class="st0" x1="37" y1="76.7" x2="58.2" y2="76.7"/>
	<polyline points="69.9,74.5 65.3,76.7 69.9,79 68.7,76.7 	"/>
	<line class="st0" x1="93.7" y1="76.7" x2="68.7" y2="76.7"/>
	<g>
		<path d="M61.8,80.1c-1.8,0-3.3-1.5-3.3-3.3c0-1.8,1.5-3.3,3.3-3.3c1.8,0,3.3,1.5,3.3,3.3C65.1,78.6,63.7,80.1,61.8,80.1z
			 M61.6,76.8l-2.1-2.1c-0.5,0.6-0.8,1.3-0.8,2.1c0,0.6,0.2,1.4,0.8,2.1L61.6,76.8z M61.8,76.9L59.7,79c0.8,0.8,1.7,0.8,2.1,0.8
			c1.3,0,2.1-0.8,2.1-0.8c0,0-0.1-0.1-0.1-0.1L61.8,76.9z M61.8,76.6l2.1-2.1c-0.8-0.8-1.7-0.8-2.1-0.8c-1.3,0-2.1,0.8-2.1,0.8
			c0,0,0.1,0.1,0.1,0.1L61.8,76.6z M62,76.8l2.1,2.1c0.5-0.6,0.8-1.3,0.8-2.1c0-0.8-0.3-1.6-0.8-2.1L62,76.8z"/>
	</g>
	<g>
		<path d="M56.6,91.5c-0.2,0-0.3,0-0.3-0.2s0.2-0.2,0.3-0.2H62c0.2,0,0.3,0,0.3,0.2s-0.2,0.2-0.3,0.2H56.6z"/>
	</g>
	<g>
		<path d="M66.2,93c0,0.4,0,0.5,0.9,0.5h0.3v0.3c-0.3,0-1.2,0-1.6,0s-1.3,0-1.6,0v-0.3h0.3c0.9,0,0.9-0.1,0.9-0.5v-5.2
			c-0.5,0.3-1.1,0.3-1.3,0.3v-0.3c0.3,0,1.2,0,1.8-0.6c0.2,0,0.2,0,0.2,0.3V93z"/>
	</g>
	<polyline points="64.1,84.8 61.8,80.3 59.5,84.8 61.8,83.7 	"/>
	<path class="st0" d="M61.8,87.4v-3.7 M93.7,66.1v10.6"/>
	<polyline points="39.3,49.4 37,44.9 34.7,49.4 37,48.3 	"/>
	<line class="st0" x1="37" y1="76.7" x2="37" y2="48.3"/>
	<polyline points="103.3,43.6 107.9,41.3 103.3,39 104.4,41.3 	"/>
	<line class="st0" x1="93.7" y1="41.3" x2="104.4" y2="41.3"/>
</g>
</svg>
