<svg id="Layer_1" data-name="Layer 1" xmlns="http://www.w3.org/2000/svg" viewBox="0 0 125.374 92.911">
  <defs>
    <style>
      .cls-1 {
        fill: #1d1d1b;
      }

      .cls-2 {
        fill: none;
        stroke: #000;
        stroke-miterlimit: 10;
        stroke-width: 0.85px;
      }
    </style>
  </defs>
  <title>example41</title>
  <g>
    <path class="cls-1" d="M2.989,6.739a3.86,3.86,0,0,0-.169.877c0,.339.159.658.548.658.319,0,1-.239,1.325-1.306.02-.07.04-.109.13-.109.03,0,.119,0,.119.1,0,.25-.568,1.535-1.594,1.535a1.1,1.1,0,0,1-1.076-.757,1.326,1.326,0,0,1-1.046.757c-.439,0-.937-.2-.937-.658a.567.567,0,0,1,.548-.578.342.342,0,0,1,.369.349.565.565,0,0,1-.469.538.958.958,0,0,0,.5.13c.439,0,.787-.419.947-1.037A14.471,14.471,0,0,0,2.72,4.866c0-.578-.348-.668-.538-.668-.339,0-1,.25-1.335,1.306-.02.089-.05.109-.13.109-.02,0-.119,0-.119-.1,0-.249.568-1.535,1.6-1.535a1.1,1.1,0,0,1,1.076.757,1.291,1.291,0,0,1,1.046-.757c.339,0,.927.14.927.658a.556.556,0,0,1-.538.578.348.348,0,0,1-.379-.349.58.58,0,0,1,.479-.538.976.976,0,0,0-.5-.13c-.7,0-.926.917-.986,1.176Z" transform="translate(-0.289 -0.91)"/>
    <path class="cls-1" d="M6.809,10.875V.91H8.174v.4H7.207v9.167h.967v.4Z" transform="translate(-0.289 -0.91)"/>
    <path class="cls-1" d="M9.853,5.494a3.2,3.2,0,0,0,.16-.837c0-.329-.11-.459-.309-.459-.359,0-.558.479-.727,1.186-.06.22-.07.229-.17.229-.02,0-.119,0-.119-.1a5.031,5.031,0,0,1,.3-.967.871.871,0,0,1,.747-.568.9.9,0,0,1,.917.867,1.928,1.928,0,0,1,1.555-.867,1.019,1.019,0,0,1,1.146,1.066,8.982,8.982,0,0,1-.608,2.192,1.9,1.9,0,0,0-.18.708c0,.229.07.329.24.329.488,0,.817-.558,1.016-1.236.05-.149.05-.179.149-.179.03,0,.12,0,.12.1,0,.08-.369,1.535-1.3,1.535a.8.8,0,0,1-.818-.817,1.154,1.154,0,0,1,.1-.459A9.454,9.454,0,0,0,12.713,4.9c0-.329-.09-.7-.538-.7a1.981,1.981,0,0,0-1.624,1.216c-.01.04-.09.329-.13.5-.05.23-.109.449-.169.668l-.219.9c-.06.249-.18.717-.19.737a.408.408,0,0,1-.368.279.266.266,0,0,1-.289-.269c0-.05.06-.279.089-.429Z" transform="translate(-0.289 -0.91)"/>
    <path class="cls-1" d="M15.975,10.875H14.61v-.4h.966V1.309H14.61V.91h1.365Z" transform="translate(-0.289 -0.91)"/>
    <polyline points="28.509 7.314 33.044 5.046 28.509 2.778 29.642 5.046"/>
    <line class="cls-2" x1="18.871" y1="5.046" x2="29.642" y2="5.046"/>
    <path class="cls-1" d="M113.925,43.909a2.628,2.628,0,0,1-2.332,2.033.943.943,0,0,1-1.056-.867.575.575,0,0,1,.558-.648.34.34,0,0,1,.369.349.539.539,0,0,1-.2.408.569.569,0,0,1-.429.12.8.8,0,0,0,.757.418,1.425,1.425,0,0,0,1.1-.627,3.821,3.821,0,0,0,.648-1.535,1.407,1.407,0,0,1-1.006.448,1.111,1.111,0,0,1-1.216-1.185,6.566,6.566,0,0,1,.578-2.093,2.1,2.1,0,0,0,.169-.7c0-.319-.169-.319-.249-.319-.339,0-.737.3-1.006,1.236-.05.159-.06.179-.159.179-.02,0-.12,0-.12-.1s.369-1.534,1.315-1.534a.789.789,0,0,1,.817.817,1.8,1.8,0,0,1-.2.717,5.94,5.94,0,0,0-.508,1.953c0,.369.109.808.618.808a1.387,1.387,0,0,0,1.126-.848l.448-1.793c.06-.269.13-.538.2-.8.04-.18.12-.489.14-.539a.434.434,0,0,1,.348-.209.267.267,0,0,1,.289.27.628.628,0,0,1-.04.229Z" transform="translate(-0.289 -0.91)"/>
    <path class="cls-1" d="M116.5,46.391V36.426h1.365v.4H116.9v9.167h.966v.4Z" transform="translate(-0.289 -0.91)"/>
    <path class="cls-1" d="M119.533,41.009a3.175,3.175,0,0,0,.159-.837c0-.328-.109-.458-.309-.458-.358,0-.558.478-.727,1.186-.06.219-.07.229-.169.229-.02,0-.12,0-.12-.1a4.96,4.96,0,0,1,.3-.966.869.869,0,0,1,.747-.568.9.9,0,0,1,.917.867,1.925,1.925,0,0,1,1.554-.867,1.018,1.018,0,0,1,1.146,1.066,8.937,8.937,0,0,1-.608,2.192,1.911,1.911,0,0,0-.179.707c0,.229.07.33.239.33.488,0,.817-.559,1.017-1.236.049-.15.049-.179.149-.179.03,0,.12,0,.12.1,0,.08-.369,1.534-1.306,1.534a.8.8,0,0,1-.817-.817,1.132,1.132,0,0,1,.1-.458,9.511,9.511,0,0,0,.648-2.321c0-.329-.09-.7-.539-.7a1.984,1.984,0,0,0-1.624,1.216c-.01.04-.089.328-.129.5-.05.229-.11.448-.169.667l-.22.9c-.06.249-.179.717-.189.737a.406.406,0,0,1-.369.279.266.266,0,0,1-.289-.268c0-.051.06-.28.09-.429Z" transform="translate(-0.289 -0.91)"/>
    <path class="cls-1" d="M125.663,46.391H124.3v-.4h.967V36.825H124.3v-.4h1.366Z" transform="translate(-0.289 -0.91)"/>
    <path class="cls-1" d="M92.929,26.345a.876.876,0,0,0-.039.209c0,.159.079.189.368.219.259.02.389.02.638.02s.339,0,.339.11c0,.2-.12.2-.219.2-.28,0-.578-.02-.868-.02-.269,0-.547-.01-.826-.01s-.568.01-.847.01-.548.02-.817.02c-.06,0-.17,0-.17-.12,0-.189.06-.189.419-.189,1.066,0,1.1-.109,1.185-.478l1.336-5.321a.976.976,0,0,0,.039-.209c0-.08,0-.119-.279-.119H92.8c-1.475,0-1.734.179-2.272,1.723-.06.159-.07.209-.169.209a.113.113,0,0,1-.12-.109,1.214,1.214,0,0,1,.06-.179l.6-1.754c.069-.19.08-.2.319-.2h5.53c.169,0,.269,0,.269.11a1.087,1.087,0,0,1-.02.169l-.269,1.734c-.02.15-.04.229-.15.229a.116.116,0,0,1-.119-.129,1.665,1.665,0,0,1,.029-.19,7.3,7.3,0,0,0,.08-.8c0-.777-.448-.816-1.455-.816a5.683,5.683,0,0,0-.627.019c-.12.03-.16.09-.23.369Z" transform="translate(-0.289 -0.91)"/>
    <polygon class="cls-2" points="82.65 22.762 82.65 29.849 103.91 29.849 103.91 15.676 82.65 15.676 82.65 22.762"/>
    <path class="cls-1" d="M36.866,9.21a3.318,3.318,0,1,1,3.328-3.318A3.322,3.322,0,0,1,36.866,9.21Zm-.119-3.447V2.823a3.085,3.085,0,0,0-2.95,2.94Zm0,.249H33.8a3.078,3.078,0,0,0,2.95,2.949ZM37,5.763h2.949A3.085,3.085,0,0,0,37,2.823Zm0,.249V8.961a3.086,3.086,0,0,0,2.949-2.949Z" transform="translate(-0.289 -0.91)"/>
    <polyline points="38.855 13.125 36.587 8.589 34.32 13.125 36.587 11.991"/>
    <path class="cls-2" d="M36.876,37.846V12.9M40.42,5.956H93.569" transform="translate(-0.289 -0.91)"/>
    <polyline points="91.012 11.14 93.28 15.676 95.548 11.14 93.28 12.274"/>
    <line class="cls-2" x1="93.28" y1="5.046" x2="93.28" y2="12.274"/>
    <polyline points="91.012 46.573 93.28 51.109 95.548 46.573 93.28 47.707"/>
    <line class="cls-2" x1="93.28" y1="29.849" x2="93.28" y2="47.707"/>
    <path class="cls-1" d="M92.929,61.752a.876.876,0,0,0-.039.209c0,.159.079.189.368.219.259.02.389.02.638.02s.339,0,.339.11c0,.2-.12.2-.219.2-.28,0-.578-.02-.868-.02-.269,0-.547-.01-.826-.01s-.568.01-.847.01-.548.02-.817.02c-.06,0-.17,0-.17-.119,0-.19.06-.19.419-.19,1.066,0,1.1-.11,1.185-.478L93.428,56.4a.964.964,0,0,0,.039-.209c0-.079,0-.119-.279-.119H92.8c-1.475,0-1.734.179-2.272,1.724-.06.159-.07.209-.169.209a.113.113,0,0,1-.12-.109,1.266,1.266,0,0,1,.06-.18l.6-1.753c.069-.19.08-.2.319-.2h5.53c.169,0,.269,0,.269.11a1.116,1.116,0,0,1-.02.169l-.269,1.734c-.02.15-.04.229-.15.229a.116.116,0,0,1-.119-.129,1.617,1.617,0,0,1,.029-.189,7.383,7.383,0,0,0,.08-.8c0-.777-.448-.817-1.455-.817a5.4,5.4,0,0,0-.627.02c-.12.03-.16.09-.23.369Z" transform="translate(-0.289 -0.91)"/>
    <polygon class="cls-2" points="82.65 58.195 82.65 65.282 103.91 65.282 103.91 51.109 82.65 51.109 82.65 58.195"/>
    <polyline points="44.666 38.211 40.131 40.479 44.666 42.746 43.532 40.479"/>
    <line class="cls-2" x1="43.532" y1="40.479" x2="57.847" y2="40.479"/>
    <polyline points="69.469 38.211 64.934 40.479 69.469 42.746 68.335 40.479"/>
    <line class="cls-2" x1="93.28" y1="40.479" x2="68.335" y2="40.479"/>
    <path class="cls-1" d="M61.7,44.726a3.318,3.318,0,1,1,3.328-3.318A3.323,3.323,0,0,1,61.7,44.726Zm-.18-3.318L59.44,39.326a3.137,3.137,0,0,0-.807,2.082,3.1,3.1,0,0,0,.807,2.082Zm.18.169L59.629,43.66a3.009,3.009,0,0,0,2.083.817,2.911,2.911,0,0,0,2.062-.817c0-.02-.069-.09-.089-.11Zm.01-.338,2.073-2.083a3.011,3.011,0,0,0-2.083-.817,2.908,2.908,0,0,0-2.062.817c0,.02.069.09.089.11Zm.179.169,2.083,2.082a3.137,3.137,0,0,0,.807-2.082,3.088,3.088,0,0,0-.817-2.082Z" transform="translate(-0.289 -0.91)"/>
    <g>
      <path class="cls-1" d="M46.372,57.3a3.272,3.272,0,0,0,.946-.079,3.317,3.317,0,0,0,.219-.887h.249l-.279,1.733h-3.7c0-.239,0-.258.109-.369l1.913-2.131a3.575,3.575,0,0,0,1.046-2.2c0-.817-.428-1.624-1.335-1.624A1.438,1.438,0,0,0,44.2,52.753a.381.381,0,0,1,.13-.01.5.5,0,0,1,.528.518.524.524,0,1,1-1.046-.031,1.84,1.84,0,0,1,1.863-1.8,1.957,1.957,0,0,1,2.112,1.932c0,1-.6,1.535-2.152,2.91L44.578,57.3Z" transform="translate(-0.289 -0.91)"/>
      <path class="cls-1" d="M52.6,57.924a1.3,1.3,0,0,0,1.3-1.046c.02-.06.04-.1.13-.1.03,0,.13,0,.13.1a1.64,1.64,0,0,1-1.655,1.3,2.206,2.206,0,0,1-2.142-2.262A2.233,2.233,0,0,1,52.528,53.6c.767,0,1.525.388,1.525,1.066a.459.459,0,1,1-.917.01.449.449,0,0,1,.468-.458,1.616,1.616,0,0,0-1.066-.369c-.528,0-1.345.419-1.345,2.043C51.193,57.5,52.07,57.924,52.6,57.924Z" transform="translate(-0.289 -0.91)"/>
    </g>
    <g>
      <path class="cls-1" d="M56.958,58.173a2.224,2.224,0,0,1-2.2-2.241,2.21,2.21,0,1,1,4.414,0A2.22,2.22,0,0,1,56.958,58.173Zm1.166-.986a3.031,3.031,0,0,0,.219-1.335,2.725,2.725,0,0,0-.26-1.385,1.3,1.3,0,0,0-1.125-.649,1.338,1.338,0,0,0-1.136.668,2.862,2.862,0,0,0-.239,1.366,2.969,2.969,0,0,0,.249,1.405,1.3,1.3,0,0,0,1.136.667A1.287,1.287,0,0,0,58.124,57.187Z" transform="translate(-0.289 -0.91)"/>
      <path class="cls-1" d="M60.275,55.672a1.062,1.062,0,0,1-.429-.847c0-.557.379-1.225,1.594-1.225a1.534,1.534,0,0,1,.937.279,1.288,1.288,0,0,0,.17-.16c.129-.119.149-.119.2-.119.109,0,.109.069.109.239v1.006c0,.189,0,.239-.129.239a.107.107,0,0,1-.12-.09,1.1,1.1,0,0,0-1.166-1.2c-.857,0-1.115.408-1.115.757,0,.578.667.708,1.225.817a2.026,2.026,0,0,1,1.136.479,1.281,1.281,0,0,1,.418.946c0,.718-.458,1.385-1.6,1.385a1.491,1.491,0,0,1-1.1-.428,2.252,2.252,0,0,0-.2.229c-.189.189-.2.2-.249.2-.11,0-.11-.069-.11-.239V56.619c0-.18,0-.25.13-.25.1,0,.109.04.139.17.19.847.549,1.415,1.385,1.415.778,0,1.126-.4,1.126-.907,0-.717-.817-.877-1.036-.916A2.607,2.607,0,0,1,60.275,55.672Z" transform="translate(-0.289 -0.91)"/>
    </g>
    <path class="cls-1" d="M66.433,60.555a4.3,4.3,0,0,1-1.555-1.873,7.678,7.678,0,0,1-.029-6.149,4.335,4.335,0,0,1,1.584-1.942.088.088,0,0,1,.1.1c0,.03,0,.05-.129.169a6.517,6.517,0,0,0-1.6,4.713,6.6,6.6,0,0,0,1.564,4.663c.169.17.169.19.169.22A.089.089,0,0,1,66.433,60.555Z" transform="translate(-0.289 -0.91)"/>
    <path class="cls-1" d="M68.685,58.173c-.907,0-1.2-1.106-1.2-2.042,0-2.282,1.534-5.092,2.919-5.092,1.017,0,1.2,1.385,1.2,2.042C71.6,55.313,70.089,58.173,68.685,58.173Zm-.22-3.407a7.619,7.619,0,0,0-.319,1.972c0,.927.209,1.216.539,1.216.428,0,.807-.488,1.155-1.166a8.911,8.911,0,0,0,.7-2.022Zm2.162-.32a8.211,8.211,0,0,0,.319-1.982c0-.568-.059-1.206-.548-1.206-.448,0-.817.558-1.086,1.047a9,9,0,0,0-.767,2.141Z" transform="translate(-0.289 -0.91)"/>
    <path class="cls-1" d="M73.738,59.648c-1.617,0-1.617-1.862-1.617-2.364s0-2.405,1.617-2.405a1.447,1.447,0,0,1,1.207.6,3.107,3.107,0,0,1,.411,1.8C75.356,57.786,75.356,59.648,73.738,59.648Zm.893-.983a7.589,7.589,0,0,0,.091-1.472,5.692,5.692,0,0,0-.119-1.485.9.9,0,0,0-1.744.063,6,6,0,0,0-.1,1.422,7.2,7.2,0,0,0,.1,1.5.9.9,0,0,0,1.778-.028Z" transform="translate(-0.289 -0.91)"/>
    <path class="cls-1" d="M78.572,58.611a4.347,4.347,0,0,1-1.584,1.944.094.094,0,0,1-.1-.1c0-.03,0-.05.13-.17a6.535,6.535,0,0,0,1.6-4.713,6.466,6.466,0,0,0-1.544-4.653c-.19-.179-.19-.2-.19-.229a.094.094,0,0,1,.1-.1,4.3,4.3,0,0,1,1.554,1.873,7.668,7.668,0,0,1,.03,6.147Z" transform="translate(-0.289 -0.91)"/>
    <polyline points="63.658 48.558 61.39 44.022 59.123 48.558 61.39 47.424"/>
    <line class="cls-2" x1="61.39" y1="51.109" x2="61.39" y2="47.424"/>
    <path class="cls-1" d="M36.866,44.726a3.318,3.318,0,1,1,3.328-3.318A3.323,3.323,0,0,1,36.866,44.726Zm-.119-3.448V38.339a3.084,3.084,0,0,0-2.95,2.939Zm0,.249H33.8a3.079,3.079,0,0,0,2.95,2.95ZM37,41.278h2.949A3.084,3.084,0,0,0,37,38.339Zm0,.249v2.95a3.086,3.086,0,0,0,2.949-2.95Z" transform="translate(-0.289 -0.91)"/>
    <line class="cls-2" x1="36.587" y1="75.912" x2="57.847" y2="75.912"/>
    <polyline points="69.469 73.644 64.934 75.912 69.469 78.179 68.335 75.912"/>
    <line class="cls-2" x1="93.28" y1="75.912" x2="68.335" y2="75.912"/>
    <path class="cls-1" d="M61.7,80.133a3.318,3.318,0,1,1,3.328-3.319A3.323,3.323,0,0,1,61.7,80.133Zm-.18-3.319L59.44,74.732a3.139,3.139,0,0,0-.807,2.082A3.1,3.1,0,0,0,59.44,78.9Zm.18.17-2.073,2.082a3.007,3.007,0,0,0,2.083.818,2.909,2.909,0,0,0,2.062-.818c0-.019-.069-.089-.089-.109Zm.01-.338,2.073-2.083a3.011,3.011,0,0,0-2.083-.817,2.9,2.9,0,0,0-2.062.817c0,.02.069.089.089.11Zm.179.168L63.974,78.9a3.136,3.136,0,0,0,.807-2.083,3.092,3.092,0,0,0-.817-2.082Z" transform="translate(-0.289 -0.91)"/>
    <path class="cls-1" d="M56.5,91.529c-.169,0-.349,0-.349-.2s.18-.2.349-.2h5.391c.169,0,.348,0,.348.2s-.179.2-.348.2Z" transform="translate(-0.289 -0.91)"/>
    <path class="cls-1" d="M66.046,93.034c0,.368.031.479.927.479h.319v.308c-.349-.03-1.215-.03-1.614-.03s-1.265,0-1.614.03v-.308h.319c.9,0,.926-.12.926-.479V87.873a2.984,2.984,0,0,1-1.3.259v-.309a2.462,2.462,0,0,0,1.813-.637c.229,0,.229.019.229.258Z" transform="translate(-0.289 -0.91)"/>
    <polyline points="63.658 83.99 61.39 79.455 59.123 83.99 61.39 82.856"/>
    <path class="cls-2" d="M61.679,87.452V83.767m31.89-17.575v10.63" transform="translate(-0.289 -0.91)"/>
    <polyline points="38.855 48.558 36.587 44.022 34.32 48.558 36.587 47.424"/>
    <line class="cls-2" x1="36.587" y1="75.912" x2="36.587" y2="47.424"/>
    <polyline points="102.918 42.746 107.453 40.479 102.918 38.211 104.051 40.479"/>
    <line class="cls-2" x1="93.28" y1="40.479" x2="104.051" y2="40.479"/>
  </g>
</svg>
