<?xml version="1.0" encoding="utf-8"?>
<!-- Generator: Adobe Illustrator 22.1.0, SVG Export Plug-In . SVG Version: 6.00 Build 0)  -->
<svg version="1.1" id="Layer_1" xmlns="http://www.w3.org/2000/svg" xmlns:xlink="http://www.w3.org/1999/xlink" x="0px" y="0px"
	 viewBox="0 0 132.7 112.2" style="enable-background:new 0 0 132.7 112.2;" xml:space="preserve">
<style type="text/css">
	.st0{fill:none;stroke:#000000;stroke-width:0.8504;stroke-miterlimit:10;}
	.st1{fill:none;stroke:#000000;stroke-width:2.2677;stroke-miterlimit:10;}
	.st2{fill:none;stroke:#000000;stroke-width:0.8504;stroke-linecap:round;stroke-miterlimit:10;stroke-dasharray:0,3.5334;}
</style>
<g>
	<polyline points="101.8,64.8 106.3,62.6 101.8,60.3 102.9,62.6 	"/>
	<line class="st0" x1="0" y1="62.6" x2="102.9" y2="62.6"/>
	<polyline points="51.9,17.5 49.6,12.9 47.3,17.5 49.6,16.4 	"/>
	<path class="st0" d="M49.6,112.2V16.4 M92.9,62.6L92.9,62.6c0-23.9-19.4-43.3-43.3-43.3S6.3,38.6,6.3,62.6
		c0,23.9,19.4,43.3,43.3,43.3S92.9,86.5,92.9,62.6L92.9,62.6z"/>
	<g>
		<path d="M113.7,62.8l0.1,0.8c0.1,0.9,0.2,1.4,0.7,1.4c0.2,0,0.6-0.2,0.7-0.9c0-0.1,0-0.2,0.1-0.2c0.1,0,0.1,0.1,0.1,0.2
			c0,0.3-0.2,1.1-0.9,1.1c-0.3,0-0.8-0.1-1.3-0.4c-0.4-0.4-0.4-0.8-0.4-1.4c0-0.7,0-1-0.4-1.3c-0.3-0.3-0.8-0.3-0.9-0.3h-1.1v2.5
			c0,0.4,0,0.5,0.8,0.5h0.2v0.3c-0.4,0-1.1,0-1.5,0s-1.1,0-1.5,0v-0.3h0.2c0.8,0,0.8-0.1,0.8-0.5V59c0-0.4,0-0.5-0.8-0.5h-0.2v-0.3
			h3.1c1.5,0,2.6,0.8,2.6,1.8c0,0.8-0.8,1.4-1.7,1.6C113,61.9,113.5,62.2,113.7,62.8z M111.5,61.6c1.5,0,1.7-0.8,1.7-1.5
			c0-1.4-1.1-1.5-2-1.5c-0.2,0-0.5,0-0.6,0c-0.2,0-0.2,0.2-0.2,0.4v2.6H111.5z"/>
		<path d="M116.8,64.3c0.2,0.4,0.6,0.7,1.1,0.7c0.1,0,1,0,1.3-1c0-0.1,0-0.1,0.1-0.1c0,0,0.1,0,0.1,0.1c0,0.2-0.4,1.3-1.7,1.3
			c-1.1,0-2.2-1-2.2-2.3c0-1.2,0.9-2.3,2.1-2.3c1.2,0,1.8,1,1.8,2c0,0.2,0,0.2-0.2,0.2h-2.8C116.5,63.1,116.5,63.8,116.8,64.3z
			 M118.9,62.6c0-0.4-0.1-1.7-1.1-1.7c-0.3,0-1.2,0.3-1.2,1.7H118.9z"/>
	</g>
	<g>
		<path d="M123.1,67.6c-0.1,0-1-0.6-1.6-1.9c-0.5-1.1-0.7-2.3-0.7-3.1c0-0.8,0.1-1.9,0.6-3c0.6-1.3,1.5-1.9,1.6-1.9
			c0.1,0,0.1,0,0.1,0.1c0,0,0,0.1-0.1,0.2c-1.2,1.2-1.6,3-1.6,4.7c0,1.5,0.3,3.4,1.6,4.7C123.2,67.4,123.2,67.4,123.1,67.6
			C123.2,67.5,123.1,67.6,123.1,67.6z"/>
	</g>
	<g>
		<path d="M125.3,64.2c0.2,0,0.4,0,0.7,0.2c0.2,0.1,0.4,0.1,0.6,0.1c0.3,0,1-0.2,1.2-0.8c0-0.1,0-0.1,0.1-0.1c0.1,0,0.1,0,0.1,0.1
			c0,0.3-0.6,1.5-1.6,1.5c-0.3,0-0.5-0.2-0.6-0.4c-0.2-0.3-0.3-0.4-0.6-0.4c-0.3,0-0.6,0.3-0.8,0.6c-0.1,0.1-0.1,0.1-0.2,0.1
			c0,0-0.1,0-0.1-0.1c0-0.1,0.3-0.6,1-1.3l0.9-0.8c0.2-0.2,1-0.9,1.4-1.3c-0.3,0-0.4,0-0.8-0.1c-0.2-0.1-0.4-0.2-0.6-0.2
			c-0.1,0-0.7,0-0.8,0.5c0,0.1,0,0.1-0.1,0.1s-0.1-0.1-0.1-0.1c0-0.2,0.5-1.1,1.2-1.1c0.3,0,0.5,0.2,0.7,0.4
			c0.1,0.2,0.3,0.3,0.5,0.3s0.4-0.2,0.7-0.6c0-0.1,0.1-0.1,0.1-0.1c0,0,0.1,0,0.1,0.1c0,0-0.2,0.5-1.2,1.4c-0.4,0.4-1,0.9-1,0.9
			c-0.4,0.3-0.6,0.6-1.2,1.1C125.1,64.2,125.3,64.2,125.3,64.2z"/>
	</g>
	<g>
		<path d="M131.1,65.6c-0.6,1.3-1.5,1.9-1.6,1.9c-0.1,0-0.1,0-0.1-0.1c0,0,0-0.1,0.1-0.2c1.2-1.3,1.6-3,1.6-4.7
			c0-2.1-0.6-3.7-1.5-4.7c-0.2-0.2-0.2-0.2-0.2-0.2c0-0.1,0-0.1,0.1-0.1c0.1,0,1,0.6,1.6,1.9c0.5,1.1,0.7,2.3,0.7,3.1
			C131.8,63.4,131.6,64.5,131.1,65.6z"/>
	</g>
	<g>
		<path d="M39.5,7.6c0,0.4,0,0.5,0.8,0.5h0.3v0.3c-0.3,0-1.1,0-1.5,0c-0.4,0-1.2,0-1.5,0V8.1h0.3c0.8,0,0.8-0.1,0.8-0.5V2.4
			c0-0.4,0-0.5-0.8-0.5h-0.3V1.6c0.3,0,1.1,0,1.5,0c0.4,0,1.2,0,1.5,0v0.3h-0.3c-0.8,0-0.8,0.1-0.8,0.5V7.6z"/>
		<path d="M41.2,4.4V4.1L42.6,4v1c0.3-0.6,0.7-1,1.5-1c0.4,0,1.2,0.1,1.3,1c0.2-0.4,0.6-1,1.4-1c0.6,0,0.9,0.2,1,0.4
			c0.3,0.4,0.3,0.7,0.3,1.5v1.9c0,0.3,0.3,0.3,0.8,0.3v0.3c-0.3,0-0.9,0-1.1,0c-0.3,0-0.8,0-1.1,0V8.1c0.7,0,0.8,0,0.8-0.4V5.3
			c0-0.6-0.1-1.1-0.7-1.1c-0.6,0-1.3,0.6-1.3,1.6v1.8c0,0.4,0.1,0.4,0.8,0.4v0.3c-0.3,0-0.9,0-1.1,0c-0.3,0-0.8,0-1.1,0V8.1
			c0.7,0,0.8,0,0.8-0.4V5.3c0-0.6-0.1-1.1-0.7-1.1c-0.6,0-1.3,0.6-1.3,1.6v1.8c0,0.4,0.1,0.4,0.8,0.4v0.3c-0.3,0-0.9,0-1.1,0
			c-0.3,0-0.8,0-1.1,0V8.1c0.7,0,0.8,0,0.8-0.4V5C41.9,4.5,41.9,4.4,41.2,4.4z"/>
	</g>
	<g>
		<path d="M52.3,10.9c-0.1,0-1-0.6-1.6-1.9c-0.5-1.1-0.7-2.3-0.7-3.1c0-0.8,0.1-1.9,0.6-3c0.6-1.3,1.5-1.9,1.6-1.9
			c0.1,0,0.1,0,0.1,0.1c0,0,0,0-0.1,0.2c-1.2,1.2-1.6,3-1.6,4.7c0,1.5,0.3,3.4,1.6,4.7C52.4,10.7,52.4,10.7,52.3,10.9
			C52.4,10.8,52.4,10.9,52.3,10.9z"/>
	</g>
	<g>
		<path d="M54.6,7.5c0.2,0,0.4,0,0.7,0.2c0.2,0.1,0.4,0.1,0.6,0.1c0.3,0,1-0.2,1.2-0.8c0-0.1,0-0.1,0.1-0.1c0.1,0,0.1,0,0.1,0.1
			c0,0.3-0.6,1.5-1.6,1.5c-0.3,0-0.5-0.2-0.6-0.4c-0.2-0.3-0.3-0.4-0.6-0.4c-0.3,0-0.6,0.3-0.8,0.6c-0.1,0.1-0.1,0.1-0.2,0.1
			c0,0-0.1,0-0.1-0.1c0-0.1,0.3-0.6,1-1.3l0.9-0.8c0.2-0.2,1-0.9,1.4-1.3c-0.3,0-0.4,0-0.8-0.1c-0.2-0.1-0.4-0.1-0.6-0.1
			c-0.1,0-0.7,0-0.8,0.5c0,0.1,0,0.1-0.1,0.1c-0.1,0-0.1-0.1-0.1-0.1c0-0.2,0.5-1.1,1.2-1.1c0.3,0,0.5,0.2,0.7,0.4
			c0.1,0.2,0.3,0.3,0.5,0.3c0.2,0,0.4-0.2,0.7-0.6C57.4,4,57.4,4,57.5,4c0,0,0.1,0,0.1,0.1c0,0-0.2,0.5-1.2,1.4
			c-0.4,0.4-1,0.9-1,0.9c-0.4,0.3-0.6,0.6-1.2,1.1C54.4,7.5,54.5,7.5,54.6,7.5z"/>
	</g>
	<g>
		<path d="M60.4,8.9c-0.6,1.3-1.5,1.9-1.6,1.9c-0.1,0-0.1,0-0.1-0.1c0,0,0-0.1,0.1-0.2c1.2-1.3,1.6-3,1.6-4.7c0-2.1-0.6-3.7-1.5-4.7
			C58.7,1.1,58.7,1,58.7,1c0-0.1,0-0.1,0.1-0.1c0.1,0,1,0.6,1.6,1.9C60.9,3.9,61,5.1,61,5.9C61,6.7,60.9,7.8,60.4,8.9z"/>
	</g>
	<path class="st1" d="M70.9,23.6l7.1,7.1 M70.9,30.7l7.1-7.1"/>
	<line class="st2" x1="49.6" y1="62.6" x2="74.4" y2="27.1"/>
	<path class="st1" d="M70.9,94.4l7.1,7.1 M70.9,101.5l7.1-7.1"/>
	<line class="st2" x1="74.4" y1="98" x2="49.6" y2="62.6"/>
	<g>
		<path d="M49.6,67.5c-2.7,0-5-2.2-5-5s2.2-5,5-5c2.7,0,5,2.2,5,5S52.4,67.5,49.6,67.5z M53.9,62.5c0-2.4-1.9-4.3-4.3-4.3
			c-2.4,0-4.3,1.9-4.3,4.3s1.9,4.3,4.3,4.3C52,66.8,53.9,64.9,53.9,62.5z M49.6,63.2c-0.4,0-0.7-0.3-0.7-0.7s0.3-0.7,0.7-0.7
			c0.4,0,0.7,0.3,0.7,0.7S50,63.2,49.6,63.2z"/>
	</g>
	<g>
		<path d="M64.4,58.3c-0.9,0-1.2-1.1-1.2-2c0-2.3,1.5-5.1,2.9-5.1c1,0,1.2,1.4,1.2,2C67.3,55.5,65.8,58.3,64.4,58.3z M64.2,54.9
			c-0.3,1-0.3,1.6-0.3,2c0,0.9,0.2,1.2,0.5,1.2c0.4,0,0.8-0.5,1.2-1.2c0.4-0.7,0.6-1.6,0.7-2H64.2z M66.3,54.6c0.2-1,0.3-1.5,0.3-2
			c0-0.6-0.1-1.2-0.5-1.2c-0.4,0-0.8,0.6-1.1,1c-0.4,0.7-0.6,1.5-0.8,2.1H66.3z"/>
	</g>
	<g>
		<path d="M69.4,59.8c-1.6,0-1.6-1.9-1.6-2.4c0-0.5,0-2.4,1.6-2.4c0.6,0,1,0.3,1.2,0.6c0.3,0.5,0.4,1,0.4,1.8
			C71,57.9,71,59.8,69.4,59.8z M70.3,58.8c0.1-0.4,0.1-1,0.1-1.5c0-0.6,0-1.1-0.1-1.5c-0.1-0.4-0.5-0.6-0.9-0.6
			c-0.3,0-0.7,0.1-0.9,0.7c-0.1,0.4-0.1,0.9-0.1,1.4c0,0.5,0,1.1,0.1,1.5c0.1,0.6,0.6,0.8,0.9,0.8C69.7,59.6,70.2,59.5,70.3,58.8z"
			/>
	</g>
	<g>
		<path d="M60,70.1c-0.2,0-0.3,0-0.3-0.2s0.2-0.2,0.3-0.2h5.4c0.2,0,0.3,0,0.3,0.2s-0.2,0.2-0.3,0.2H60z"/>
	</g>
	<g>
		<path d="M68.2,72.5c-0.9,0-1.2-1.1-1.2-2c0-2.3,1.5-5.1,2.9-5.1c1,0,1.2,1.4,1.2,2C71.1,69.7,69.6,72.5,68.2,72.5z M68,69.1
			c-0.3,1-0.3,1.6-0.3,2c0,0.9,0.2,1.2,0.5,1.2c0.4,0,0.8-0.5,1.2-1.2c0.4-0.7,0.6-1.6,0.7-2H68z M70.2,68.8c0.2-1,0.3-1.5,0.3-2
			c0-0.6-0.1-1.2-0.5-1.2c-0.4,0-0.8,0.6-1.1,1c-0.4,0.7-0.6,1.5-0.8,2.1H70.2z"/>
	</g>
	<g>
		<path d="M73.3,74c-1.6,0-1.6-1.9-1.6-2.4s0-2.4,1.6-2.4c0.6,0,1,0.3,1.2,0.6c0.3,0.5,0.4,1,0.4,1.8C74.9,72.1,74.9,74,73.3,74z
			 M74.2,73c0.1-0.4,0.1-1,0.1-1.5c0-0.6,0-1.1-0.1-1.5c-0.1-0.4-0.5-0.6-0.9-0.6c-0.3,0-0.7,0.1-0.9,0.7c-0.1,0.4-0.1,0.9-0.1,1.4
			c0,0.5,0,1.1,0.1,1.5c0.1,0.6,0.6,0.8,0.9,0.8C73.5,73.8,74,73.6,74.2,73z"/>
	</g>
	<g>
		<path d="M96.1,72.1c0,0.4,0,0.5,0.9,0.5h0.3v0.3c-0.3,0-1.2,0-1.6,0s-1.3,0-1.6,0v-0.3h0.3c0.9,0,0.9-0.1,0.9-0.5v-5.2
			c-0.5,0.3-1.1,0.3-1.3,0.3v-0.3c0.3,0,1.2,0,1.8-0.6c0.2,0,0.2,0,0.2,0.3V72.1z"/>
	</g>
</g>
</svg>
