<?xml version="1.0" encoding="utf-8"?>
<!-- Generator: Adobe Illustrator 22.1.0, SVG Export Plug-In . SVG Version: 6.00 Build 0)  -->
<svg version="1.1" id="Layer_1" xmlns="http://www.w3.org/2000/svg" xmlns:xlink="http://www.w3.org/1999/xlink" x="0px" y="0px"
	 viewBox="0 0 126.8 53.1" style="enable-background:new 0 0 126.8 53.1;" xml:space="preserve">
<style type="text/css">
	.st0{fill:#1D1D1B;}
	.st1{fill:none;stroke:#000000;stroke-width:0.8504;stroke-miterlimit:10;}
</style>
<g>
	<g>
		<path class="st0" d="M3,6.7C2.9,7.2,2.8,7.4,2.8,7.6C2.8,8,3,8.3,3.4,8.3c0.3,0,1-0.2,1.3-1.3c0-0.1,0-0.1,0.1-0.1
			c0,0,0.1,0,0.1,0.1c0,0.2-0.6,1.5-1.6,1.5c-0.6,0-1-0.4-1.1-0.8c0,0.1-0.4,0.8-1,0.8c-0.4,0-0.9-0.2-0.9-0.7
			c0-0.3,0.2-0.6,0.5-0.6c0.1,0,0.4,0.1,0.4,0.3c0,0.3-0.2,0.5-0.5,0.5c0.2,0.1,0.4,0.1,0.5,0.1c0.4,0,0.8-0.4,0.9-1
			c0.4-1.4,0.5-2.1,0.5-2.4c0-0.6-0.3-0.7-0.5-0.7c-0.3,0-1,0.2-1.3,1.3c0,0.1-0.1,0.1-0.1,0.1c0,0-0.1,0-0.1-0.1
			C0.6,5.3,1.2,4,2.2,4C2.5,4,3,4.1,3.3,4.7C3.4,4.5,3.7,4,4.3,4c0.3,0,0.9,0.1,0.9,0.7c0,0.4-0.3,0.6-0.5,0.6
			C4.4,5.2,4.3,5,4.3,4.9c0-0.2,0.2-0.5,0.5-0.5C4.6,4.2,4.4,4.2,4.3,4.2c-0.7,0-0.9,0.9-1,1.2L3,6.7z"/>
	</g>
	<g>
		<path class="st0" d="M6.8,10.9v-10h1.4v0.4h-1v9.2h1v0.4H6.8z"/>
	</g>
	<g>
		<path class="st0" d="M9.9,5.5C10,5,10,4.9,10,4.7c0-0.3-0.1-0.5-0.3-0.5C9.3,4.2,9.1,4.7,9,5.4C8.9,5.6,8.9,5.6,8.8,5.6
			c0,0-0.1,0-0.1-0.1c0,0,0.1-0.6,0.3-1C9.1,4.4,9.3,4,9.7,4c0.5,0,0.9,0.3,0.9,0.9C10.8,4.6,11.3,4,12.2,4c0.7,0,1.1,0.4,1.1,1.1
			c0,0.6-0.4,1.7-0.6,2.2c-0.1,0.2-0.2,0.5-0.2,0.7c0,0.2,0.1,0.3,0.2,0.3c0.5,0,0.8-0.6,1-1.2c0-0.1,0-0.2,0.1-0.2
			c0,0,0.1,0,0.1,0.1c0,0.1-0.4,1.5-1.3,1.5c-0.5,0-0.8-0.3-0.8-0.8c0-0.1,0-0.2,0.1-0.5c0.2-0.4,0.6-1.7,0.6-2.3
			c0-0.3-0.1-0.7-0.5-0.7c-0.9,0-1.5,0.9-1.6,1.2c0,0-0.1,0.3-0.1,0.5c0,0.2-0.1,0.4-0.2,0.7L10,7.5C10,7.7,9.9,8.2,9.8,8.2
			C9.8,8.4,9.6,8.5,9.5,8.5c-0.1,0-0.3-0.1-0.3-0.3c0-0.1,0.1-0.3,0.1-0.4L9.9,5.5z"/>
	</g>
	<g>
		<path class="st0" d="M16,10.9h-1.4v-0.4h1V1.3h-1V0.9H16V10.9z"/>
	</g>
	<g>
		<path class="st0" d="M51,30.6c-1.8,0-3.3-1.5-3.3-3.3c0-1.8,1.5-3.3,3.3-3.3c1.8,0,3.3,1.5,3.3,3.3C54.4,29.1,52.9,30.6,51,30.6z
			 M50.8,27.3l-2.1-2.1c-0.5,0.6-0.8,1.3-0.8,2.1c0,0.6,0.2,1.4,0.8,2.1L50.8,27.3z M51,27.4l-2.1,2.1c0.8,0.8,1.7,0.8,2.1,0.8
			c1.3,0,2.1-0.8,2.1-0.8c0,0-0.1-0.1-0.1-0.1L51,27.4z M51,27.1l2.1-2.1c-0.8-0.8-1.7-0.8-2.1-0.8C49.8,24.2,49,25,49,25
			c0,0,0.1,0.1,0.1,0.1L51,27.1z M51.2,27.3l2.1,2.1c0.5-0.6,0.8-1.3,0.8-2.1c0-0.8-0.3-1.6-0.8-2.1L51.2,27.3z"/>
	</g>
	<g>
		<path class="st0" d="M52.6,46.4c0.2,0,0.3,0.1,0.3,0.3c0,0,0,0.1-0.1,0.3l-0.4,1.4c-0.1,0.4-0.1,0.5-0.2,0.9
			c-0.1,0.4-0.1,0.5-0.1,0.7c0,0.2,0,0.5,0.3,0.5c0.4,0,0.6-0.6,0.8-1.2c0-0.1,0-0.2,0.1-0.2c0,0,0.1,0,0.1,0.1c0,0-0.1,0.6-0.3,1
			c-0.2,0.3-0.4,0.5-0.7,0.5c-0.5,0-0.8-0.3-0.9-0.7c-0.6,0.7-1.1,0.7-1.3,0.7c-0.8,0-1.3-0.7-1.3-1.6c0-1.5,1.2-2.9,2.4-2.9
			c0.4,0,0.7,0.3,0.9,0.6C52.2,46.6,52.4,46.4,52.6,46.4z M52,47.5c0,0,0-0.1,0-0.2c0-0.1-0.1-0.9-0.8-0.9c-0.4,0-0.8,0.4-1.2,1
			c-0.2,0.5-0.5,1.7-0.5,2.2c0,0.4,0.1,0.9,0.6,0.9c0.3,0,0.7-0.2,1.1-0.7c0.1-0.2,0.1-0.2,0.2-0.4L52,47.5z"/>
	</g>
	<polyline points="28.8,8.2 33.3,5.9 28.8,3.7 29.9,5.9 	"/>
	<line class="st1" x1="19.2" y1="5.9" x2="29.9" y2="5.9"/>
	<g>
		<path class="st0" d="M113.9,8.4c-0.3,1.1-1.3,2-2.3,2c-0.6,0-1.1-0.4-1.1-0.9c0-0.5,0.3-0.6,0.6-0.6c0.1,0,0.4,0,0.4,0.3
			c0,0.2-0.1,0.3-0.2,0.4c-0.1,0.1-0.3,0.1-0.4,0.1c0.2,0.4,0.6,0.4,0.8,0.4c0.5,0,0.8-0.3,1.1-0.6c0.4-0.5,0.5-1,0.6-1.5
			c-0.3,0.3-0.6,0.4-1,0.4c-0.6,0-1.2-0.3-1.2-1.2c0-0.5,0.2-1,0.6-2.1c0.1-0.2,0.2-0.4,0.2-0.7c0-0.3-0.2-0.3-0.2-0.3
			c-0.3,0-0.7,0.3-1,1.2c0,0.2-0.1,0.2-0.2,0.2c0,0-0.1,0-0.1-0.1c0-0.1,0.4-1.5,1.3-1.5c0.5,0,0.8,0.4,0.8,0.8c0,0.2,0,0.3-0.2,0.7
			c-0.3,0.9-0.5,1.5-0.5,2c0,0.4,0.1,0.8,0.6,0.8c0.7,0,1.1-0.7,1.1-0.8l0.4-1.8c0.1-0.3,0.1-0.5,0.2-0.8c0-0.2,0.1-0.5,0.1-0.5
			c0.1-0.1,0.2-0.2,0.3-0.2c0.1,0,0.3,0.1,0.3,0.3c0,0.1,0,0.1,0,0.2L113.9,8.4z"/>
	</g>
	<g>
		<path class="st0" d="M116.5,10.9v-10h1.4v0.4h-1v9.2h1v0.4H116.5z"/>
	</g>
	<g>
		<path class="st0" d="M119.5,5.5c0.1-0.5,0.2-0.6,0.2-0.8c0-0.3-0.1-0.5-0.3-0.5c-0.4,0-0.6,0.5-0.7,1.2c-0.1,0.2-0.1,0.2-0.2,0.2
			c0,0-0.1,0-0.1-0.1c0,0,0.1-0.6,0.3-1c0.1-0.2,0.3-0.6,0.7-0.6c0.5,0,0.9,0.3,0.9,0.9c0.2-0.2,0.7-0.9,1.6-0.9
			c0.7,0,1.1,0.4,1.1,1.1c0,0.6-0.4,1.7-0.6,2.2c-0.1,0.2-0.2,0.5-0.2,0.7c0,0.2,0.1,0.3,0.2,0.3c0.5,0,0.8-0.6,1-1.2
			c0.1-0.1,0.1-0.2,0.2-0.2c0,0,0.1,0,0.1,0.1c0,0.1-0.4,1.5-1.3,1.5c-0.5,0-0.8-0.3-0.8-0.8c0-0.1,0-0.2,0.1-0.5
			c0.2-0.4,0.6-1.7,0.6-2.3c0-0.3-0.1-0.7-0.5-0.7c-0.9,0-1.5,0.9-1.6,1.2c0,0-0.1,0.3-0.1,0.5c0,0.2-0.1,0.4-0.2,0.7l-0.2,0.9
			c-0.1,0.2-0.2,0.7-0.2,0.7c-0.1,0.2-0.2,0.3-0.4,0.3c-0.1,0-0.3-0.1-0.3-0.3c0-0.1,0.1-0.3,0.1-0.4L119.5,5.5z"/>
	</g>
	<g>
		<path class="st0" d="M125.7,10.9h-1.4v-0.4h1V1.3h-1V0.9h1.4V10.9z"/>
	</g>
	<g>
		<path class="st0" d="M75.2,29.8c0,0.1,0,0.2,0,0.2c0,0.2,0.1,0.2,0.4,0.2c0.3,0,0.4,0,0.6,0c0.3,0,0.3,0,0.3,0.1
			c0,0.2-0.1,0.2-0.2,0.2c-0.3,0-0.6,0-0.9,0c-0.3,0-0.5,0-0.8,0c-0.3,0-0.6,0-0.8,0c-0.3,0-0.5,0-0.8,0c-0.1,0-0.2,0-0.2-0.1
			c0-0.2,0.1-0.2,0.4-0.2c1.1,0,1.1-0.1,1.2-0.5l1.3-5.3c0,0,0-0.1,0-0.2c0-0.1,0-0.1-0.3-0.1H75c-1.5,0-1.7,0.2-2.3,1.7
			c-0.1,0.2-0.1,0.2-0.2,0.2c-0.1,0-0.1,0-0.1-0.1c0,0,0-0.2,0.1-0.2l0.6-1.8c0.1-0.2,0.1-0.2,0.3-0.2H79c0.2,0,0.3,0,0.3,0.1
			c0,0,0,0.1,0,0.2L79,25.9c0,0.2,0,0.2-0.1,0.2c-0.1,0-0.1-0.1-0.1-0.1c0,0,0-0.2,0-0.2c0-0.3,0.1-0.6,0.1-0.8
			c0-0.8-0.4-0.8-1.5-0.8c-0.2,0-0.5,0-0.6,0c-0.1,0-0.2,0.1-0.2,0.4L75.2,29.8z"/>
	</g>
	<polygon class="st1" points="65.2,27.2 65.2,34.3 86.5,34.3 86.5,20.1 65.2,20.1 	"/>
	<g>
		<path class="st0" d="M36.9,9.2c-1.8,0-3.3-1.5-3.3-3.3c0-1.8,1.5-3.3,3.3-3.3c1.8,0,3.3,1.5,3.3,3.3C40.2,7.7,38.7,9.2,36.9,9.2z
			 M36.7,5.8V2.8c-1.6,0.1-2.8,1.3-2.9,2.9H36.7z M36.7,6h-2.9c0.1,1.7,1.4,2.9,2.9,2.9V6z M37,5.8h2.9c-0.1-1.7-1.4-2.9-2.9-2.9
			V5.8z M37,6V9c1.5-0.1,2.8-1.2,2.9-2.9H37z"/>
	</g>
	<polyline points="39.1,14 36.9,9.5 34.6,14 36.9,12.9 	"/>
	<path class="st1" d="M36.9,27.2V12.9 M36.9,27.2h10.6"/>
	<polyline points="59.1,24.9 54.6,27.2 59.1,29.5 58,27.2 	"/>
	<line class="st1" x1="65.2" y1="27.2" x2="58" y2="27.2"/>
	<polyline points="53.3,35.3 51,30.7 48.8,35.3 51,34.1 	"/>
	<line class="st1" x1="51" y1="41.4" x2="51" y2="34.1"/>
	<polyline points="103.2,8.2 107.7,5.9 103.2,3.7 104.3,5.9 	"/>
	<path class="st1" d="M40.4,5.9h63.9 M97.1,5.9v21.3"/>
	<polyline points="91,24.9 86.5,27.2 91,29.5 89.9,27.2 	"/>
	<line class="st1" x1="97.1" y1="27.2" x2="89.9" y2="27.2"/>
</g>
</svg>
