<?xml version="1.0" encoding="utf-8"?>
<!-- Generator: Adobe Illustrator 22.1.0, SVG Export Plug-In . SVG Version: 6.00 Build 0)  -->
<svg version="1.1" id="Layer_1" xmlns="http://www.w3.org/2000/svg" xmlns:xlink="http://www.w3.org/1999/xlink" x="0px" y="0px"
	 viewBox="0 0 375.7 119.5" style="enable-background:new 0 0 375.7 119.5;" xml:space="preserve">
<style type="text/css">
	.st0{fill:#1D1D1B;}
	.st1{fill:none;stroke:#000000;stroke-width:0.8504;stroke-miterlimit:10;}
	.st2{fill:none;stroke:#000000;stroke-width:0.8504;stroke-linecap:round;stroke-miterlimit:10;stroke-dasharray:0,3.8425;}
	.st3{fill:none;stroke:#000000;stroke-width:0.8504;stroke-linecap:round;stroke-miterlimit:10;stroke-dasharray:0,3.9921;}
	.st4{fill:none;stroke:#000000;stroke-width:0.8504;stroke-miterlimit:10;stroke-dasharray:2.8345,2.8345;stroke-dashoffset:1;}
</style>
<g>
	<g>
		<path class="st0" d="M6.4,13c0.1-0.1,0.2-0.2,0.2-0.4c0-0.3-0.3-0.3-0.4-0.3c-0.1,0-0.1,0-0.1-0.1c0-0.2,0.1-0.2,0.2-0.2
			c0.4,0,0.7,0,1.1,0c0.3,0,0.6,0,0.9,0c0.1,0,0.1,0.1,0.1,0.1c0,0.2-0.1,0.2-0.2,0.2c-0.6,0-1,0.3-1.3,0.5c-0.3,0.3-1.4,1.5-2,2.2
			c0.2,0.6,0.9,2.2,1.3,3.1c0.2,0.4,0.2,0.4,0.9,0.4c0.1,0,0.2,0,0.2,0.1c0,0.2-0.1,0.2-0.2,0.2c-0.2,0-0.9,0-1.1,0
			c-0.3,0-1,0-1.3,0c0,0-0.1,0-0.1-0.1c0-0.2,0.1-0.2,0.2-0.2c0.4,0,0.6-0.2,0.6-0.3c0,0,0,0,0-0.1l-1-2.4l-0.9,1l-1,1.1
			c-0.1,0.1-0.3,0.3-0.3,0.4c0,0.3,0.3,0.3,0.4,0.3c0,0,0.1,0,0.1,0.1c0,0.2-0.1,0.2-0.2,0.2c-0.4,0-0.7,0-1.1,0c-0.3,0-0.6,0-0.9,0
			c-0.1,0-0.1-0.1-0.1-0.1c0-0.2,0.1-0.2,0.2-0.2c0.5,0,1-0.2,1.5-0.7l0.1-0.1l2.1-2.3L3,12.7c-0.1-0.2-0.1-0.3-0.7-0.3
			c-0.1,0-0.2,0-0.2-0.1c0-0.2,0.1-0.2,0.2-0.2c0.2,0,0.9,0,1.1,0c0.4,0,0.8,0,1.3,0c0,0,0.1,0,0.1,0.1c0,0.2-0.1,0.2-0.2,0.2
			c-0.4,0-0.6,0.2-0.6,0.3c0,0,0,0,0,0.1l0.8,2L6.4,13z"/>
	</g>
	<g>
		<path class="st0" d="M12.3,21.4c-0.1,0-1-0.6-1.6-1.9c-0.5-1.1-0.7-2.3-0.7-3.1c0-0.8,0.1-1.9,0.6-3c0.6-1.3,1.5-1.9,1.6-1.9
			c0.1,0,0.1,0,0.1,0.1c0,0,0,0-0.1,0.2c-1.2,1.2-1.6,3-1.6,4.7c0,1.5,0.3,3.4,1.6,4.7C12.4,21.2,12.4,21.2,12.3,21.4
			C12.4,21.3,12.4,21.4,12.3,21.4z"/>
	</g>
	<g>
		<path class="st0" d="M14.5,18c0.2,0,0.4,0,0.7,0.2c0.2,0.1,0.4,0.1,0.6,0.1c0.3,0,1-0.2,1.2-0.8c0-0.1,0-0.1,0.1-0.1
			c0.1,0,0.1,0,0.1,0.1c0,0.3-0.6,1.5-1.6,1.5c-0.3,0-0.5-0.2-0.6-0.4c-0.2-0.3-0.3-0.4-0.6-0.4c-0.3,0-0.6,0.3-0.8,0.6
			C13.6,19,13.6,19,13.5,19c0,0-0.1,0-0.1-0.1c0-0.1,0.3-0.6,1-1.3l0.9-0.8c0.2-0.2,1-0.9,1.4-1.3c-0.3,0-0.4,0-0.8-0.1
			c-0.2-0.1-0.4-0.1-0.6-0.1c-0.1,0-0.7,0-0.8,0.5c0,0.1,0,0.1-0.1,0.1c-0.1,0-0.1-0.1-0.1-0.1c0-0.2,0.5-1.1,1.2-1.1
			c0.3,0,0.5,0.2,0.7,0.4c0.1,0.2,0.3,0.3,0.5,0.3c0.2,0,0.4-0.2,0.7-0.6c0-0.1,0.1-0.1,0.1-0.1c0,0,0.1,0,0.1,0.1
			c0,0-0.2,0.5-1.2,1.4c-0.4,0.4-1,0.9-1,0.9c-0.4,0.3-0.6,0.6-1.2,1.1C14.4,18,14.5,18,14.5,18z"/>
	</g>
	<g>
		<path class="st0" d="M20.4,19.4c-0.6,1.3-1.5,1.9-1.6,1.9c-0.1,0-0.1,0-0.1-0.1c0,0,0-0.1,0.1-0.2c1.2-1.3,1.6-3,1.6-4.7
			c0-2.1-0.6-3.7-1.5-4.7c-0.2-0.2-0.2-0.2-0.2-0.2c0-0.1,0-0.1,0.1-0.1c0.1,0,1,0.6,1.6,1.9c0.5,1.1,0.7,2.3,0.7,3.1
			C21,17.2,20.9,18.3,20.4,19.4z"/>
	</g>
	<g>
		<path class="st0" d="M358.4,58.6c-0.1,0.1-0.1,0.1-0.1,0.3l-0.3,1.4c0,0.2-0.1,0.6-0.1,0.6c0,0.1,0.1,0.1,0.3,0.2
			c0.2,0,0.4,0,0.4,0c0.2,0,0.3,0,0.3,0.1c0,0.2-0.1,0.2-0.2,0.2c-0.3,0-1,0-1.3,0s-1,0-1.3,0c0,0-0.1,0-0.1-0.1
			c0-0.2,0.1-0.2,0.3-0.2c0.8,0,0.8,0,0.9-0.6c0-0.2,0.4-1.8,0.4-1.8c0,0,0-0.1,0-0.2l-1.2-3.3c-0.1-0.2-0.1-0.3-0.7-0.3
			c-0.1,0-0.2,0-0.2-0.1c0-0.2,0.1-0.2,0.2-0.2c0.2,0,0.9,0,1.1,0c0.3,0,1,0,1.3,0c0,0,0.1,0,0.1,0.1c0,0.2-0.1,0.2-0.2,0.2
			c-0.1,0-0.6,0-0.6,0.2c0,0,0,0,0.1,0.2l1.1,3l2.3-2.7c0,0,0.3-0.3,0.3-0.5c0-0.2-0.3-0.2-0.4-0.2c0,0-0.1,0-0.1-0.1
			c0-0.2,0.1-0.2,0.2-0.2c0.3,0,0.7,0,1,0c0.3,0,0.6,0,0.8,0c0.1,0,0.1,0,0.1,0.1c0,0.2-0.1,0.2-0.2,0.2c-0.7,0-1,0.4-1.3,0.7
			l-0.1,0.1L358.4,58.6z"/>
	</g>
	<g>
		<path class="st0" d="M366,63.9c-0.1,0-1-0.6-1.6-1.9c-0.5-1.1-0.7-2.3-0.7-3.1c0-0.8,0.1-1.9,0.6-3c0.6-1.3,1.5-1.9,1.6-1.9
			c0.1,0,0.1,0,0.1,0.1c0,0,0,0-0.1,0.2c-1.2,1.2-1.6,3-1.6,4.7c0,1.5,0.3,3.4,1.6,4.7C366.1,63.7,366.1,63.8,366,63.9
			C366.1,63.9,366.1,63.9,366,63.9z"/>
	</g>
	<g>
		<path class="st0" d="M368.3,60.5c0.2,0,0.4,0,0.7,0.2c0.2,0.1,0.4,0.1,0.6,0.1c0.3,0,1-0.2,1.2-0.8c0-0.1,0-0.1,0.1-0.1
			c0.1,0,0.1,0,0.1,0.1c0,0.3-0.6,1.5-1.6,1.5c-0.3,0-0.5-0.2-0.6-0.4c-0.2-0.3-0.3-0.4-0.6-0.4c-0.3,0-0.6,0.3-0.8,0.6
			c-0.1,0.1-0.1,0.1-0.2,0.1c0,0-0.1,0-0.1-0.1c0-0.1,0.3-0.6,1-1.3l0.9-0.8c0.2-0.2,1-0.9,1.4-1.3c-0.3,0-0.4,0-0.8-0.1
			c-0.2-0.1-0.4-0.1-0.6-0.1c-0.1,0-0.7,0-0.8,0.5c0,0.1,0,0.1-0.1,0.1s-0.1-0.1-0.1-0.1c0-0.2,0.5-1.1,1.2-1.1
			c0.3,0,0.5,0.2,0.7,0.4c0.1,0.2,0.3,0.3,0.5,0.3s0.4-0.2,0.7-0.6c0-0.1,0.1-0.1,0.1-0.1c0,0,0.1,0,0.1,0.1c0,0-0.2,0.5-1.2,1.4
			c-0.4,0.4-1,0.9-1,0.9c-0.4,0.3-0.6,0.6-1.2,1.1C368.1,60.5,368.3,60.5,368.3,60.5z"/>
	</g>
	<g>
		<path class="st0" d="M374.1,62c-0.6,1.3-1.5,1.9-1.6,1.9c-0.1,0-0.1,0-0.1-0.1c0,0,0,0,0.1-0.2c1.2-1.3,1.6-3,1.6-4.7
			c0-2.1-0.6-3.7-1.5-4.7c-0.2-0.2-0.2-0.2-0.2-0.2c0-0.1,0-0.1,0.1-0.1c0.1,0,1,0.6,1.6,1.9c0.5,1.1,0.7,2.3,0.7,3.1
			C374.7,59.7,374.6,60.9,374.1,62z"/>
	</g>
	<line class="st1" x1="145.7" y1="16.4" x2="145.7" y2="23.4"/>
	<polyline points="143.4,47.3 145.7,51.8 147.9,47.3 145.7,48.4 	"/>
	<line class="st1" x1="145.7" y1="44.7" x2="145.7" y2="48.4"/>
	<g>
		<path class="st0" d="M145.7,37.4c-1.8,0-3.3-1.5-3.3-3.3c0-1.8,1.5-3.3,3.3-3.3c1.8,0,3.3,1.5,3.3,3.3
			C149,35.9,147.6,37.4,145.7,37.4z M145.5,34.1l-2.1-2.1c-0.5,0.6-0.8,1.3-0.8,2.1c0,0.6,0.2,1.4,0.8,2.1L145.5,34.1z M145.7,34.3
			l-2.1,2.1c0.8,0.8,1.7,0.8,2.1,0.8c1.3,0,2.1-0.8,2.1-0.8c0,0-0.1-0.1-0.1-0.1L145.7,34.3z M145.7,33.9l2.1-2.1
			c-0.8-0.8-1.7-0.8-2.1-0.8c-1.3,0-2.1,0.8-2.1,0.8c0,0,0.1,0.1,0.1,0.1L145.7,33.9z M145.9,34.1l2.1,2.1c0.5-0.6,0.8-1.3,0.8-2.1
			c0-0.8-0.3-1.6-0.8-2.1L145.9,34.1z"/>
	</g>
	<polyline points="137.6,36.3 142.1,34.1 137.6,31.8 138.7,34.1 	"/>
	<line class="st1" x1="131.5" y1="34.1" x2="138.7" y2="34.1"/>
	<g>
		<path class="st0" d="M121.7,33c0.3-0.3,0.7-0.6,1.2-0.6c0.8,0,1.3,0.7,1.3,1.6c0,1.4-1.2,2.9-2.4,2.9c-0.7,0-1.3-0.6-1.3-1.6
			c0-0.3,0-0.5,0.2-1l0.8-3.2c0-0.2,0.1-0.5,0.1-0.6c0-0.1,0-0.2-0.5-0.2c-0.1,0-0.2,0-0.2-0.1c0-0.2,0.1-0.2,0.2-0.2
			c0.3,0,1-0.1,1.2-0.1c0.1,0,0.1,0.1,0.1,0.1L121.7,33z M121.3,34.7c-0.2,0.6-0.2,0.8-0.2,1c0,0.7,0.3,1,0.7,1c0.4,0,0.8-0.4,1.2-1
			c0.2-0.4,0.5-1.5,0.5-2.1c0-0.6-0.3-0.9-0.6-0.9c-0.3,0-0.7,0.1-1.2,0.8c-0.1,0.1-0.1,0.1-0.1,0.3L121.3,34.7z"/>
	</g>
	<g>
		<path class="st0" d="M126.8,37.7c0,0.2,0,0.3,0.7,0.3h0.3v0.3c-0.2,0-1,0-1.2,0c-0.3,0-1.1,0-1.2,0V38h0.3c0.7,0,0.7-0.1,0.7-0.3
			v-3.6c-0.4,0.2-0.8,0.2-1,0.2v-0.3c0.3,0,0.9,0,1.4-0.4c0.2,0,0.2,0,0.2,0.2V37.7z"/>
	</g>
	<path class="st1" d="M145.7,23.4v7.1 M145.7,37.6v7.1 M81.9,58.9v-7.1h226.8V66H81.9V58.9z M209.5,62.4v-7.1 M205.9,58.9h7.1"/>
	<g>
		<path class="st0" d="M132,11.3c0.2,0,0.4,0,0.7,0.2c0.2,0.1,0.4,0.1,0.6,0.1c0.3,0,1-0.2,1.2-0.8c0-0.1,0-0.1,0.1-0.1
			c0.1,0,0.1,0,0.1,0.1c0,0.3-0.6,1.5-1.6,1.5c-0.3,0-0.5-0.2-0.6-0.4c-0.2-0.3-0.3-0.4-0.6-0.4c-0.3,0-0.6,0.3-0.8,0.6
			c-0.1,0.1-0.1,0.1-0.2,0.1c0,0-0.1,0-0.1-0.1c0-0.1,0.3-0.6,1-1.3l0.9-0.8c0.2-0.2,1-0.9,1.4-1.3c-0.3,0-0.4,0-0.8-0.1
			c-0.2-0.1-0.4-0.1-0.6-0.1c-0.1,0-0.7,0-0.8,0.5c0,0.1,0,0.1-0.1,0.1c-0.1,0-0.1-0.1-0.1-0.1c0-0.2,0.5-1.1,1.2-1.1
			c0.3,0,0.5,0.2,0.7,0.4c0.1,0.2,0.3,0.3,0.5,0.3c0.2,0,0.4-0.2,0.7-0.6c0-0.1,0.1-0.1,0.1-0.1c0,0,0.1,0,0.1,0.1
			c0,0-0.2,0.5-1.2,1.4c-0.4,0.4-1,0.9-1,0.9c-0.4,0.3-0.6,0.6-1.2,1.1C131.8,11.3,132,11.3,132,11.3z"/>
	</g>
	<g>
		<path class="st0" d="M136.6,6.9c-0.1,0-0.3,0-0.3-0.2c0-0.2,0.2-0.2,0.3-0.2h4.2c0.1,0,0.3,0,0.3,0.2c0,0.2-0.2,0.2-0.3,0.2H136.6
			z"/>
	</g>
	<g>
		<path class="st0" d="M144.1,7.9c0,0.2,0,0.3,0.7,0.3h0.3v0.3c-0.2,0-1,0-1.2,0c-0.3,0-1.1,0-1.2,0V8.2h0.3c0.7,0,0.7-0.1,0.7-0.3
			V4.3c-0.4,0.2-0.8,0.2-1,0.2V4.2c0.3,0,0.9,0,1.4-0.4c0.2,0,0.2,0,0.2,0.2V7.9z"/>
	</g>
	<g>
		<path class="st0" d="M152.6,6.3c0.1-0.1,0.2-0.2,0.2-0.4c0-0.3-0.3-0.3-0.4-0.3c-0.1,0-0.1,0-0.1-0.1c0-0.2,0.1-0.2,0.2-0.2
			c0.4,0,0.7,0,1.1,0c0.3,0,0.6,0,0.9,0c0.1,0,0.1,0.1,0.1,0.1c0,0.2-0.1,0.2-0.2,0.2c-0.6,0-1,0.3-1.3,0.5c-0.3,0.3-1.4,1.5-2,2.2
			c0.2,0.6,0.9,2.2,1.3,3.1c0.2,0.4,0.2,0.4,0.9,0.4c0.1,0,0.2,0,0.2,0.1c0,0.2-0.1,0.2-0.2,0.2c-0.2,0-0.9,0-1.1,0
			c-0.3,0-1,0-1.3,0c0,0-0.1,0-0.1-0.1c0-0.2,0.1-0.2,0.2-0.2c0.4,0,0.6-0.2,0.6-0.3c0,0,0,0,0-0.1l-1-2.4l-0.9,1l-1,1.1
			c-0.1,0.1-0.3,0.3-0.3,0.4c0,0.3,0.3,0.3,0.4,0.3c0,0,0.1,0,0.1,0.1c0,0.2-0.1,0.2-0.2,0.2c-0.4,0-0.7,0-1.1,0c-0.3,0-0.6,0-0.9,0
			c-0.1,0-0.1-0.1-0.1-0.1c0-0.2,0.1-0.2,0.2-0.2c0.5,0,1-0.2,1.5-0.7l0.1-0.1l2.1-2.3L149.1,6c-0.1-0.2-0.1-0.3-0.7-0.3
			c-0.1,0-0.2,0-0.2-0.1c0-0.2,0.1-0.2,0.2-0.2c0.2,0,0.9,0,1.1,0c0.4,0,0.8,0,1.3,0c0,0,0.1,0,0.1,0.1c0,0.2-0.1,0.2-0.2,0.2
			c-0.4,0-0.6,0.2-0.6,0.3c0,0,0,0,0,0.1l0.8,2L152.6,6.3z"/>
	</g>
	<g>
		<path class="st0" d="M158.4,14.6c-0.1,0-1-0.6-1.6-1.9c-0.5-1.1-0.7-2.3-0.7-3.1c0-0.8,0.1-1.9,0.6-3c0.6-1.3,1.5-1.9,1.6-1.9
			c0.1,0,0.1,0,0.1,0.1c0,0,0,0-0.1,0.2c-1.2,1.2-1.6,3-1.6,4.7c0,1.5,0.3,3.4,1.6,4.7C158.5,14.5,158.5,14.5,158.4,14.6
			C158.5,14.6,158.5,14.6,158.4,14.6z"/>
	</g>
	<g>
		<path class="st0" d="M160.7,11.3c0.2,0,0.4,0,0.7,0.2c0.2,0.1,0.4,0.1,0.6,0.1c0.3,0,1-0.2,1.2-0.8c0-0.1,0-0.1,0.1-0.1
			c0.1,0,0.1,0,0.1,0.1c0,0.3-0.6,1.5-1.6,1.5c-0.3,0-0.5-0.2-0.6-0.4c-0.2-0.3-0.3-0.4-0.6-0.4c-0.3,0-0.6,0.3-0.8,0.6
			c-0.1,0.1-0.1,0.1-0.2,0.1c0,0-0.1,0-0.1-0.1c0-0.1,0.3-0.6,1-1.3l0.9-0.8c0.2-0.2,1-0.9,1.4-1.3c-0.3,0-0.4,0-0.8-0.1
			c-0.2-0.1-0.4-0.1-0.6-0.1c-0.1,0-0.7,0-0.8,0.5c0,0.1,0,0.1-0.1,0.1c-0.1,0-0.1-0.1-0.1-0.1c0-0.2,0.5-1.1,1.2-1.1
			c0.3,0,0.5,0.2,0.7,0.4c0.1,0.2,0.3,0.3,0.5,0.3c0.2,0,0.4-0.2,0.7-0.6c0-0.1,0.1-0.1,0.1-0.1c0,0,0.1,0,0.1,0.1
			c0,0-0.2,0.5-1.2,1.4c-0.4,0.4-1,0.9-1,0.9c-0.4,0.3-0.6,0.6-1.2,1.1C160.5,11.3,160.6,11.3,160.7,11.3z"/>
	</g>
	<g>
		<path class="st0" d="M166.5,12.7c-0.6,1.3-1.5,1.9-1.6,1.9c-0.1,0-0.1,0-0.1-0.1c0,0,0-0.1,0.1-0.2c1.2-1.3,1.6-3,1.6-4.7
			c0-2.1-0.6-3.7-1.5-4.7c-0.2-0.2-0.2-0.2-0.2-0.2c0-0.1,0-0.1,0.1-0.1c0.1,0,1,0.6,1.6,1.9c0.5,1.1,0.7,2.3,0.7,3.1
			C167.1,10.5,167,11.6,166.5,12.7z"/>
	</g>
	<polyline points="102.2,18.6 106.7,16.4 102.2,14.1 103.3,16.4 	"/>
	<line class="st1" x1="25.2" y1="16.4" x2="103.3" y2="16.4"/>
	<g>
		<path class="st0" d="M89,37.4c-1.8,0-3.3-1.5-3.3-3.3c0-1.8,1.5-3.3,3.3-3.3c1.8,0,3.3,1.5,3.3,3.3C92.3,35.9,90.9,37.4,89,37.4z
			 M88.8,34.1L86.8,32c-0.5,0.6-0.8,1.3-0.8,2.1c0,0.6,0.2,1.4,0.8,2.1L88.8,34.1z M89,34.3l-2.1,2.1c0.8,0.8,1.7,0.8,2.1,0.8
			c1.3,0,2.1-0.8,2.1-0.8c0,0-0.1-0.1-0.1-0.1L89,34.3z M89,33.9l2.1-2.1C90.3,31.1,89.4,31,89,31c-1.3,0-2.1,0.8-2.1,0.8
			c0,0,0.1,0.1,0.1,0.1L89,33.9z M89.2,34.1l2.1,2.1c0.5-0.6,0.8-1.3,0.8-2.1c0-0.8-0.3-1.6-0.8-2.1L89.2,34.1z"/>
	</g>
	<polyline points="80.9,36.3 85.4,34.1 80.9,31.8 82,34.1 	"/>
	<line class="st1" x1="74.8" y1="34.1" x2="82" y2="34.1"/>
	<g>
		<path class="st0" d="M65.1,33c0.3-0.3,0.7-0.6,1.2-0.6c0.8,0,1.3,0.7,1.3,1.6c0,1.4-1.2,2.9-2.4,2.9c-0.7,0-1.3-0.6-1.3-1.6
			c0-0.3,0-0.5,0.2-1l0.8-3.2c0-0.2,0.1-0.5,0.1-0.6c0-0.1,0-0.2-0.5-0.2c-0.1,0-0.2,0-0.2-0.1c0-0.2,0.1-0.2,0.2-0.2
			c0.3,0,1-0.1,1.2-0.1c0.1,0,0.1,0.1,0.1,0.1L65.1,33z M64.6,34.7c-0.2,0.6-0.2,0.8-0.2,1c0,0.7,0.3,1,0.7,1c0.4,0,0.8-0.4,1.2-1
			c0.2-0.4,0.5-1.5,0.5-2.1c0-0.6-0.3-0.9-0.6-0.9c-0.3,0-0.7,0.1-1.2,0.8c-0.1,0.1-0.1,0.1-0.1,0.3L64.6,34.7z"/>
	</g>
	<g>
		<path class="st0" d="M69.7,38.4c-1.6,0-1.6-1.9-1.6-2.4c0-0.5,0-2.4,1.6-2.4c0.6,0,1,0.3,1.2,0.6c0.3,0.5,0.4,1,0.4,1.8
			C71.3,36.6,71.3,38.4,69.7,38.4z M70.6,37.4c0.1-0.4,0.1-1,0.1-1.5c0-0.6,0-1.1-0.1-1.5c-0.1-0.4-0.5-0.6-0.9-0.6
			c-0.3,0-0.7,0.1-0.9,0.7c-0.1,0.4-0.1,0.9-0.1,1.4c0,0.5,0,1.1,0.1,1.5c0.1,0.6,0.6,0.8,0.9,0.8C70,38.2,70.5,38.1,70.6,37.4z"/>
	</g>
	<path class="st1" d="M89,23.4v7.1 M89,37.6v7.1 M89,16.4v7.1"/>
	<polyline points="86.7,47.3 89,51.8 91.3,47.3 89,48.4 	"/>
	<line class="st1" x1="89" y1="44.7" x2="89" y2="48.4"/>
	<g>
		<path class="st0" d="M111,19.6c0.2,0,0.4,0,0.7,0.2c0.2,0.1,0.4,0.1,0.6,0.1c0.3,0,1-0.2,1.2-0.8c0-0.1,0-0.1,0.1-0.1
			c0.1,0,0.1,0,0.1,0.1c0,0.3-0.6,1.5-1.6,1.5c-0.3,0-0.5-0.2-0.6-0.4c-0.2-0.3-0.3-0.4-0.6-0.4c-0.3,0-0.6,0.3-0.8,0.6
			c-0.1,0.1-0.1,0.1-0.2,0.1c0,0-0.1,0-0.1-0.1c0-0.1,0.3-0.6,1-1.3l0.9-0.8c0.2-0.2,1-0.9,1.4-1.3c-0.3,0-0.4,0-0.8-0.1
			c-0.2-0.1-0.4-0.1-0.6-0.1c-0.1,0-0.7,0-0.8,0.5c0,0.1,0,0.1-0.1,0.1c-0.1,0-0.1-0.1-0.1-0.1c0-0.2,0.5-1.1,1.2-1.1
			c0.3,0,0.5,0.2,0.7,0.4c0.1,0.2,0.3,0.3,0.5,0.3c0.2,0,0.4-0.2,0.7-0.6c0-0.1,0.1-0.1,0.1-0.1c0,0,0.1,0,0.1,0.1
			c0,0-0.2,0.5-1.2,1.4c-0.4,0.4-1,0.9-1,0.9c-0.4,0.3-0.6,0.6-1.2,1.1C110.8,19.6,111,19.6,111,19.6z"/>
	</g>
	<g>
		<path class="st0" d="M115.6,15.3c-0.1,0-0.3,0-0.3-0.2c0-0.2,0.2-0.2,0.3-0.2h4.2c0.1,0,0.3,0,0.3,0.2c0,0.2-0.2,0.2-0.3,0.2
			H115.6z"/>
	</g>
	<g>
		<path class="st0" d="M123.1,16.3c0,0.2,0,0.3,0.7,0.3h0.3v0.3c-0.2,0-1,0-1.2,0c-0.3,0-1.1,0-1.2,0v-0.3h0.3
			c0.7,0,0.7-0.1,0.7-0.3v-3.6c-0.4,0.2-0.8,0.2-1,0.2v-0.3c0.3,0,0.9,0,1.4-0.4c0.2,0,0.2,0,0.2,0.2V16.3z"/>
	</g>
	<polygon class="st1" points="106.7,16.4 106.7,23.4 128,23.4 128,9.3 106.7,9.3 	"/>
	<polyline points="158.9,18.6 163.4,16.4 158.9,14.1 160,16.4 	"/>
	<line class="st1" x1="128" y1="16.4" x2="160" y2="16.4"/>
	<line class="st2" x1="166.9" y1="16.4" x2="202.4" y2="16.4"/>
	<path class="st1" d="M248.4,16.4h17.7 M266.2,16.4v7.1"/>
	<polyline points="263.9,47.3 266.2,51.8 268.4,47.3 266.2,48.4 	"/>
	<line class="st1" x1="266.2" y1="44.7" x2="266.2" y2="48.4"/>
	<g>
		<path class="st0" d="M227.7,32.5c0.3-0.3,0.7-0.6,1.2-0.6c0.8,0,1.3,0.7,1.3,1.6c0,1.4-1.2,2.9-2.4,2.9c-0.7,0-1.3-0.6-1.3-1.6
			c0-0.3,0-0.5,0.2-1l0.8-3.2c0-0.2,0.1-0.5,0.1-0.6c0-0.1,0-0.2-0.5-0.2c-0.1,0-0.2,0-0.2-0.1c0-0.2,0.1-0.2,0.2-0.2
			c0.3,0,1-0.1,1.2-0.1c0.1,0,0.1,0.1,0.1,0.1L227.7,32.5z M227.3,34.2c-0.2,0.6-0.2,0.8-0.2,1c0,0.7,0.3,1,0.7,1
			c0.4,0,0.8-0.4,1.2-1c0.2-0.4,0.5-1.5,0.5-2.1c0-0.6-0.3-0.9-0.6-0.9c-0.3,0-0.7,0.1-1.2,0.8c-0.1,0.1-0.1,0.1-0.1,0.3L227.3,34.2
			z"/>
	</g>
	<g>
		<path class="st0" d="M236.6,37.3c0,0,0,0.1,0,0.2c0,0.1,0,0.1,0.2,0.1c0.1,0,0.3,0,0.3,0c0.1,0,0.2,0,0.2,0.1
			c0,0.2-0.1,0.2-0.1,0.2c-0.2,0-0.7,0-0.9,0c-0.1,0-0.3,0-0.4,0s-0.3,0-0.4,0c-0.1,0-0.1-0.1-0.1-0.1c0-0.2,0.1-0.2,0.2-0.2
			c0.5,0,0.6-0.1,0.6-0.3l1-3.9l0,0l-2.9,4.3c0,0.1-0.1,0.2-0.2,0.2c-0.1,0-0.1-0.1-0.1-0.2l-0.7-4.2h0l-0.9,3.7c0,0.1,0,0.1,0,0.2
			c0,0.1,0,0.3,0.4,0.3c0.1,0,0.2,0,0.2,0.1c0,0.2-0.1,0.2-0.1,0.2c-0.2,0-0.6,0-0.7,0c-0.2,0-0.5,0-0.7,0c-0.1,0-0.1-0.1-0.1-0.1
			c0-0.1,0.1-0.2,0.1-0.2c0.6,0,0.7-0.3,0.7-0.5l0.9-3.5c0-0.1,0-0.1,0-0.2c0-0.1,0-0.1-0.2-0.1c-0.1,0-0.2,0-0.3,0
			c-0.2,0-0.2,0-0.2-0.1c0-0.2,0.1-0.2,0.2-0.2h1c0.2,0,0.2,0,0.2,0.2l0.7,3.9l2.7-4C237,33,237,33,237.2,33h0.9
			c0.1,0,0.2,0,0.2,0.1c0,0.1-0.1,0.1-0.2,0.1c-0.5,0-0.5,0.1-0.6,0.3L236.6,37.3z"/>
	</g>
	<g>
		<path class="st0" d="M239.7,36.2c-0.1,0-0.3,0-0.3-0.2c0-0.2,0.2-0.2,0.3-0.2h4.2c0.1,0,0.3,0,0.3,0.2c0,0.2-0.2,0.2-0.3,0.2
			H239.7z"/>
	</g>
	<g>
		<path class="st0" d="M247.2,37.2c0,0.2,0,0.3,0.7,0.3h0.3v0.3c-0.2,0-1,0-1.2,0c-0.3,0-1.1,0-1.2,0v-0.3h0.3
			c0.7,0,0.7-0.1,0.7-0.3v-3.6c-0.4,0.2-0.8,0.2-1,0.2v-0.3c0.3,0,0.9,0,1.4-0.4c0.2,0,0.2,0,0.2,0.2V37.2z"/>
	</g>
	<g>
		<path class="st0" d="M259.7,11.7c0.2,0,0.4,0,0.7,0.2c0.2,0.1,0.4,0.1,0.6,0.1c0.3,0,1-0.2,1.2-0.8c0-0.1,0-0.1,0.1-0.1
			c0.1,0,0.1,0,0.1,0.1c0,0.3-0.6,1.5-1.6,1.5c-0.3,0-0.5-0.2-0.6-0.4c-0.2-0.3-0.3-0.4-0.6-0.4c-0.3,0-0.6,0.3-0.8,0.6
			c-0.1,0.1-0.1,0.1-0.2,0.1c0,0-0.1,0-0.1-0.1c0-0.1,0.3-0.6,1-1.3l0.9-0.8c0.2-0.2,1-0.9,1.4-1.3c-0.3,0-0.4,0-0.8-0.1
			c-0.2-0.1-0.4-0.1-0.6-0.1c-0.1,0-0.7,0-0.8,0.5c0,0.1,0,0.1-0.1,0.1s-0.1-0.1-0.1-0.1c0-0.2,0.5-1.1,1.2-1.1
			c0.3,0,0.5,0.2,0.7,0.4c0.1,0.2,0.3,0.3,0.5,0.3s0.4-0.2,0.7-0.6c0-0.1,0.1-0.1,0.1-0.1c0,0,0.1,0,0.1,0.1c0,0-0.2,0.5-1.2,1.4
			c-0.4,0.4-1,0.9-1,0.9c-0.4,0.3-0.6,0.6-1.2,1.1C259.5,11.7,259.7,11.7,259.7,11.7z"/>
	</g>
	<g>
		<path class="st0" d="M264.3,7.3c-0.1,0-0.3,0-0.3-0.2c0-0.2,0.2-0.2,0.3-0.2h4.2c0.1,0,0.3,0,0.3,0.2c0,0.2-0.2,0.2-0.3,0.2H264.3
			z"/>
	</g>
	<g>
		<path class="st0" d="M272.1,3.8C272.1,3.8,272.1,3.8,272.1,3.8c-0.6,0.6-1.3,1.5-1.3,3.4c0,1.3,0.3,2.5,1.3,3.3
			c0,0,0.1,0.1,0.1,0.1c0,0.1-0.1,0.1-0.1,0.1c-1.4-1-1.7-2.5-1.7-3.5c0-1.1,0.3-2.5,1.7-3.5C272.1,3.7,272.1,3.7,272.1,3.8z"/>
	</g>
	<g>
		<path class="st0" d="M278.9,8.4c0,0,0,0.1,0,0.2c0,0.1,0,0.1,0.2,0.1c0.1,0,0.3,0,0.3,0c0.1,0,0.2,0,0.2,0.1
			c0,0.2-0.1,0.2-0.1,0.2c-0.2,0-0.7,0-0.9,0c-0.1,0-0.3,0-0.4,0s-0.3,0-0.4,0c-0.1,0-0.1-0.1-0.1-0.1c0-0.2,0.1-0.2,0.2-0.2
			c0.5,0,0.6-0.1,0.6-0.3l1-3.9l0,0l-2.9,4.3c0,0.1-0.1,0.2-0.2,0.2c-0.1,0-0.1-0.1-0.1-0.2l-0.7-4.2h0l-0.9,3.7c0,0.1,0,0.1,0,0.2
			c0,0.1,0,0.3,0.4,0.3c0.1,0,0.2,0,0.2,0.1c0,0.2-0.1,0.2-0.1,0.2c-0.2,0-0.6,0-0.7,0c-0.2,0-0.5,0-0.7,0c-0.1,0-0.1-0.1-0.1-0.1
			c0-0.1,0.1-0.2,0.1-0.2c0.6,0,0.7-0.3,0.7-0.5l0.9-3.5c0-0.1,0-0.1,0-0.2c0-0.1,0-0.1-0.2-0.1c-0.1,0-0.2,0-0.3,0
			c-0.2,0-0.2,0-0.2-0.1c0-0.2,0.1-0.2,0.2-0.2h1c0.2,0,0.2,0,0.2,0.2l0.7,3.9l2.7-4c0.1-0.1,0.1-0.1,0.3-0.1h0.9
			c0.1,0,0.2,0,0.2,0.1c0,0.1-0.1,0.1-0.2,0.1c-0.5,0-0.5,0.1-0.6,0.3L278.9,8.4z"/>
	</g>
	<g>
		<path class="st0" d="M282,7.3c-0.1,0-0.3,0-0.3-0.2c0-0.2,0.2-0.2,0.3-0.2h4.2c0.1,0,0.3,0,0.3,0.2c0,0.2-0.2,0.2-0.3,0.2H282z"/>
	</g>
	<g>
		<path class="st0" d="M289.5,8.3c0,0.2,0,0.3,0.7,0.3h0.3v0.3c-0.2,0-1,0-1.2,0c-0.3,0-1.1,0-1.2,0V8.7h0.3c0.7,0,0.7-0.1,0.7-0.3
			V4.8c-0.4,0.2-0.8,0.2-1,0.2V4.7c0.3,0,0.9,0,1.4-0.4c0.2,0,0.2,0,0.2,0.2V8.3z"/>
		<path class="st0" d="M293.4,7.2c0,0.8-0.2,1.6-0.5,2.1c-0.5,0.9-1.1,1.3-1.2,1.3c-0.1,0-0.1,0-0.1-0.1c0,0,0,0,0.1-0.2
			c0.8-0.7,1.2-1.8,1.2-3.2c0-1.8-0.7-2.7-1.3-3.3c0,0-0.1-0.1-0.1-0.1c0-0.1,0.1-0.1,0.1-0.1C293.1,4.7,293.4,6.2,293.4,7.2z"/>
	</g>
	<g>
		<path class="st0" d="M301.2,6.7c0.1-0.1,0.2-0.2,0.2-0.4c0-0.3-0.3-0.3-0.4-0.3c-0.1,0-0.1,0-0.1-0.1c0-0.2,0.1-0.2,0.2-0.2
			c0.4,0,0.7,0,1.1,0c0.3,0,0.6,0,0.9,0c0.1,0,0.1,0.1,0.1,0.1c0,0.2-0.1,0.2-0.2,0.2c-0.6,0-1,0.3-1.3,0.5c-0.3,0.3-1.4,1.5-2,2.2
			c0.2,0.6,0.9,2.2,1.3,3.1c0.2,0.4,0.2,0.4,0.9,0.4c0.1,0,0.2,0,0.2,0.1c0,0.2-0.1,0.2-0.2,0.2c-0.2,0-0.9,0-1.1,0
			c-0.3,0-1,0-1.3,0c0,0-0.1,0-0.1-0.1c0-0.2,0.1-0.2,0.2-0.2c0.4,0,0.6-0.2,0.6-0.3c0,0,0,0,0-0.1l-1-2.4l-0.9,1l-1,1.1
			c-0.1,0.1-0.3,0.3-0.3,0.4c0,0.3,0.3,0.3,0.4,0.3c0,0,0.1,0,0.1,0.1c0,0.2-0.1,0.2-0.2,0.2c-0.4,0-0.7,0-1.1,0c-0.3,0-0.6,0-0.9,0
			c-0.1,0-0.1-0.1-0.1-0.1c0-0.2,0.1-0.2,0.2-0.2c0.5,0,1-0.2,1.5-0.7l0.1-0.1l2.1-2.3l-1.2-2.8C297.7,6.1,297.6,6,297,6
			c-0.1,0-0.2,0-0.2-0.1c0-0.2,0.1-0.2,0.2-0.2c0.2,0,0.9,0,1.1,0c0.4,0,0.8,0,1.3,0c0,0,0.1,0,0.1,0.1c0,0.2-0.1,0.2-0.2,0.2
			c-0.4,0-0.6,0.2-0.6,0.3c0,0,0,0,0,0.1l0.8,2L301.2,6.7z"/>
	</g>
	<g>
		<path class="st0" d="M307,15c-0.1,0-1-0.6-1.6-1.9c-0.5-1.1-0.7-2.3-0.7-3.1c0-0.8,0.1-1.9,0.6-3C306.1,5.7,307,5,307,5
			c0.1,0,0.1,0,0.1,0.1c0,0,0,0-0.1,0.2c-1.2,1.2-1.6,3-1.6,4.7c0,1.5,0.3,3.4,1.6,4.7C307.1,14.9,307.1,14.9,307,15
			C307.1,15,307.1,15,307,15z"/>
	</g>
	<g>
		<path class="st0" d="M309.3,11.7c0.2,0,0.4,0,0.7,0.2c0.2,0.1,0.4,0.1,0.6,0.1c0.3,0,1-0.2,1.2-0.8c0-0.1,0-0.1,0.1-0.1
			c0.1,0,0.1,0,0.1,0.1c0,0.3-0.6,1.5-1.6,1.5c-0.3,0-0.5-0.2-0.6-0.4c-0.2-0.3-0.3-0.4-0.6-0.4c-0.3,0-0.6,0.3-0.8,0.6
			c-0.1,0.1-0.1,0.1-0.2,0.1c0,0-0.1,0-0.1-0.1c0-0.1,0.3-0.6,1-1.3l0.9-0.8c0.2-0.2,1-0.9,1.4-1.3c-0.3,0-0.4,0-0.8-0.1
			c-0.2-0.1-0.4-0.1-0.6-0.1c-0.1,0-0.7,0-0.8,0.5c0,0.1,0,0.1-0.1,0.1s-0.1-0.1-0.1-0.1c0-0.2,0.5-1.1,1.2-1.1
			c0.3,0,0.5,0.2,0.7,0.4c0.1,0.2,0.3,0.3,0.5,0.3s0.4-0.2,0.7-0.6c0-0.1,0.1-0.1,0.1-0.1c0,0,0.1,0,0.1,0.1c0,0-0.2,0.5-1.2,1.4
			c-0.4,0.4-1,0.9-1,0.9c-0.4,0.3-0.6,0.6-1.2,1.1C309.1,11.7,309.3,11.7,309.3,11.7z"/>
	</g>
	<g>
		<path class="st0" d="M315.1,13.1c-0.6,1.3-1.5,1.9-1.6,1.9c-0.1,0-0.1,0-0.1-0.1c0,0,0-0.1,0.1-0.2c1.2-1.3,1.6-3,1.6-4.7
			c0-2.1-0.6-3.7-1.5-4.7c-0.2-0.2-0.2-0.2-0.2-0.2c0-0.1,0-0.1,0.1-0.1c0.1,0,1,0.6,1.6,1.9c0.5,1.1,0.7,2.3,0.7,3.1
			C315.7,10.9,315.6,12,315.1,13.1z"/>
	</g>
	<g>
		<path class="st0" d="M266.2,37.4c-1.8,0-3.3-1.5-3.3-3.3c0-1.8,1.5-3.3,3.3-3.3c1.8,0,3.3,1.5,3.3,3.3
			C269.5,35.9,268,37.4,266.2,37.4z M266,34.1l-2.1-2.1c-0.5,0.6-0.8,1.3-0.8,2.1c0,0.6,0.2,1.4,0.8,2.1L266,34.1z M266.2,34.3
			l-2.1,2.1c0.8,0.8,1.7,0.8,2.1,0.8c1.3,0,2.1-0.8,2.1-0.8c0,0-0.1-0.1-0.1-0.1L266.2,34.3z M266.2,33.9l2.1-2.1
			c-0.8-0.8-1.7-0.8-2.1-0.8c-1.3,0-2.1,0.8-2.1,0.8c0,0,0.1,0.1,0.1,0.1L266.2,33.9z M266.4,34.1l2.1,2.1c0.5-0.6,0.8-1.3,0.8-2.1
			c0-0.8-0.3-1.6-0.8-2.1L266.4,34.1z"/>
	</g>
	<polyline points="258.1,36.3 262.6,34.1 258.1,31.8 259.2,34.1 	"/>
	<path class="st1" d="M252,34.1h7.2 M266.2,23.4v7.1 M266.2,37.6v7.1"/>
	<g>
		<path class="st0" d="M231.5,19.6c0.2,0,0.4,0,0.7,0.2c0.2,0.1,0.4,0.1,0.6,0.1c0.3,0,1-0.2,1.2-0.8c0-0.1,0-0.1,0.1-0.1
			c0.1,0,0.1,0,0.1,0.1c0,0.3-0.6,1.5-1.6,1.5c-0.3,0-0.5-0.2-0.6-0.4c-0.2-0.3-0.3-0.4-0.6-0.4c-0.3,0-0.6,0.3-0.8,0.6
			c-0.1,0.1-0.1,0.1-0.2,0.1c0,0-0.1,0-0.1-0.1c0-0.1,0.3-0.6,1-1.3l0.9-0.8c0.2-0.2,1-0.9,1.4-1.3c-0.3,0-0.4,0-0.8-0.1
			c-0.2-0.1-0.4-0.1-0.6-0.1c-0.1,0-0.7,0-0.8,0.5c0,0.1,0,0.1-0.1,0.1s-0.1-0.1-0.1-0.1c0-0.2,0.5-1.1,1.2-1.1
			c0.3,0,0.5,0.2,0.7,0.4c0.1,0.2,0.3,0.3,0.5,0.3s0.4-0.2,0.7-0.6c0-0.1,0.1-0.1,0.1-0.1c0,0,0.1,0,0.1,0.1c0,0-0.2,0.5-1.2,1.4
			c-0.4,0.4-1,0.9-1,0.9c-0.4,0.3-0.6,0.6-1.2,1.1C231.3,19.6,231.5,19.6,231.5,19.6z"/>
	</g>
	<g>
		<path class="st0" d="M236.1,15.3c-0.1,0-0.3,0-0.3-0.2c0-0.2,0.2-0.2,0.3-0.2h4.2c0.1,0,0.3,0,0.3,0.2c0,0.2-0.2,0.2-0.3,0.2
			H236.1z"/>
	</g>
	<g>
		<path class="st0" d="M243.6,16.3c0,0.2,0,0.3,0.7,0.3h0.3v0.3c-0.2,0-1,0-1.2,0c-0.3,0-1.1,0-1.2,0v-0.3h0.3
			c0.7,0,0.7-0.1,0.7-0.3v-3.6c-0.4,0.2-0.8,0.2-1,0.2v-0.3c0.3,0,0.9,0,1.4-0.4c0.2,0,0.2,0,0.2,0.2V16.3z"/>
	</g>
	<polygon class="st1" points="227.2,16.4 227.2,23.4 248.4,23.4 248.4,9.3 227.2,9.3 	"/>
	<polyline points="222.6,18.6 227.2,16.4 222.6,14.1 223.8,16.4 	"/>
	<line class="st1" x1="209.5" y1="16.4" x2="223.8" y2="16.4"/>
	<polyline points="346.7,61.1 351.2,58.9 346.7,56.6 347.8,58.9 	"/>
	<line class="st1" x1="308.7" y1="58.9" x2="347.8" y2="58.9"/>
	<polyline points="309.7,99.1 305.1,101.4 309.7,103.7 308.5,101.4 	"/>
	<path class="st1" d="M322.8,101.4h-14.3 M322.8,101.4V58.9"/>
	<g>
		<path class="st0" d="M89,87c-1.8,0-3.3-1.5-3.3-3.3c0-1.8,1.5-3.3,3.3-3.3c1.8,0,3.3,1.5,3.3,3.3C92.3,85.5,90.9,87,89,87z
			 M88.8,83.7l-2.1-2.1c-0.5,0.6-0.8,1.3-0.8,2.1c0,0.6,0.2,1.4,0.8,2.1L88.8,83.7z M89,83.9L86.9,86c0.8,0.8,1.7,0.8,2.1,0.8
			c1.3,0,2.1-0.8,2.1-0.8c0,0-0.1-0.1-0.1-0.1L89,83.9z M89,83.5l2.1-2.1c-0.8-0.8-1.7-0.8-2.1-0.8c-1.3,0-2.1,0.8-2.1,0.8
			c0,0,0.1,0.1,0.1,0.1L89,83.5z M89.2,83.7l2.1,2.1c0.5-0.6,0.8-1.3,0.8-2.1c0-0.8-0.3-1.6-0.8-2.1L89.2,83.7z"/>
	</g>
	<polyline points="97.1,81.4 92.5,83.7 97.1,85.9 95.9,83.7 	"/>
	<line class="st1" x1="95.9" y1="83.7" x2="103.2" y2="83.7"/>
	<g>
		<path class="st0" d="M110,76.9c0.2,0,0.3,0.1,0.3,0.3c0,0,0,0.1-0.1,0.3l-0.4,1.4c-0.1,0.4-0.1,0.5-0.2,0.9
			c-0.1,0.4-0.1,0.5-0.1,0.7c0,0.2,0,0.5,0.3,0.5c0.4,0,0.6-0.6,0.8-1.2c0-0.1,0-0.2,0.1-0.2c0,0,0.1,0,0.1,0.1c0,0-0.1,0.6-0.3,1
			c-0.2,0.3-0.4,0.5-0.7,0.5c-0.5,0-0.8-0.3-0.9-0.7c-0.6,0.7-1.1,0.7-1.3,0.7c-0.8,0-1.3-0.7-1.3-1.6c0-1.5,1.2-2.9,2.4-2.9
			c0.4,0,0.7,0.3,0.9,0.6C109.6,77.1,109.7,76.9,110,76.9z M109.4,78c0,0,0-0.1,0-0.2c0-0.1-0.1-0.9-0.8-0.9c-0.4,0-0.8,0.4-1.2,1
			c-0.2,0.5-0.5,1.7-0.5,2.2c0,0.4,0.1,0.9,0.6,0.9c0.3,0,0.7-0.2,1.1-0.7c0.1-0.2,0.1-0.2,0.2-0.4L109.4,78z"/>
	</g>
	<g>
		<path class="st0" d="M115.9,82.4c0,0.1,0,0.1-0.1,0.1c-0.1,0-0.1,0-0.2-0.1l-2-4.2l-0.9,3.6c0,0.1,0,0.1,0,0.2
			c0,0.1,0,0.3,0.4,0.3c0.1,0,0.2,0,0.2,0.1c0,0.1-0.1,0.1-0.1,0.1c-0.2,0-0.6,0-0.7,0c-0.2,0-0.5,0-0.7,0c0,0-0.1,0-0.1-0.1
			c0-0.1,0.1-0.1,0.1-0.1c0.5,0,0.7-0.2,0.7-0.5l0.9-3.7c-0.1,0-0.3,0-0.4,0s-0.2,0-0.2-0.1c0-0.2,0.1-0.2,0.2-0.2h1
			c0.2,0,0.2,0,0.2,0.1l1.8,3.6l0.8-3c0-0.1,0-0.1,0-0.2c0-0.2-0.1-0.3-0.4-0.3c-0.1,0-0.2,0-0.2-0.1c0-0.2,0.1-0.2,0.1-0.2
			c0.2,0,0.6,0,0.7,0c0.2,0,0.5,0,0.7,0c0.1,0,0.1,0.1,0.1,0.1c0,0.1-0.1,0.2-0.1,0.2c-0.6,0-0.7,0.2-0.7,0.5L115.9,82.4z"/>
	</g>
	<g>
		<path class="st0" d="M119.2,81c-0.1,0-0.3,0-0.3-0.2c0-0.2,0.2-0.2,0.3-0.2h4.2c0.1,0,0.3,0,0.3,0.2c0,0.2-0.2,0.2-0.3,0.2H119.2z
			"/>
	</g>
	<g>
		<path class="st0" d="M126.8,82c0,0.2,0,0.3,0.7,0.3h0.3v0.3c-0.2,0-1,0-1.2,0c-0.3,0-1.1,0-1.2,0v-0.3h0.3c0.7,0,0.7-0.1,0.7-0.3
			v-3.6c-0.4,0.2-0.8,0.2-1,0.2v-0.3c0.3,0,0.9,0,1.4-0.4c0.2,0,0.2,0,0.2,0.2V82z"/>
	</g>
	<polyline points="91.3,70.5 89,66 86.7,70.5 89,69.4 	"/>
	<line class="st1" x1="89" y1="69.4" x2="89" y2="80.1"/>
	<polyline points="91.3,91.8 89,87.2 86.7,91.8 89,90.6 	"/>
	<path class="st1" d="M89,90.6l0,10.8 M106.7,101.4H89"/>
	<polyline points="132.5,99.1 128,101.4 132.5,103.7 131.4,101.4 	"/>
	<line class="st1" x1="145.7" y1="101.4" x2="131.4" y2="101.4"/>
	<line class="st3" x1="152.8" y1="101.4" x2="177.6" y2="101.4"/>
	<g>
		<path class="st0" d="M205.9,87c-1.8,0-3.3-1.5-3.3-3.3c0-1.8,1.5-3.3,3.3-3.3c1.8,0,3.3,1.5,3.3,3.3C209.3,85.5,207.8,87,205.9,87
			z M205.8,83.7l-2.1-2.1c-0.5,0.6-0.8,1.3-0.8,2.1c0,0.6,0.2,1.4,0.8,2.1L205.8,83.7z M205.9,83.9l-2.1,2.1
			c0.8,0.8,1.7,0.8,2.1,0.8c1.3,0,2.1-0.8,2.1-0.8c0,0-0.1-0.1-0.1-0.1L205.9,83.9z M206,83.5l2.1-2.1c-0.8-0.8-1.7-0.8-2.1-0.8
			c-1.3,0-2.1,0.8-2.1,0.8c0,0,0.1,0.1,0.1,0.1L206,83.5z M206.1,83.7l2.1,2.1c0.5-0.6,0.8-1.3,0.8-2.1c0-0.8-0.3-1.6-0.8-2.1
			L206.1,83.7z"/>
	</g>
	<polyline points="214,81.4 209.5,83.7 214,85.9 212.9,83.7 	"/>
	<line class="st1" x1="212.9" y1="83.7" x2="220.1" y2="83.7"/>
	<g>
		<path class="st0" d="M226.4,77.4c0.2,0,0.3,0.1,0.3,0.3c0,0,0,0.1-0.1,0.3l-0.4,1.4c-0.1,0.4-0.1,0.5-0.2,0.9
			c-0.1,0.4-0.1,0.5-0.1,0.7c0,0.2,0,0.5,0.3,0.5c0.4,0,0.6-0.6,0.8-1.2c0-0.1,0-0.2,0.1-0.2c0,0,0.1,0,0.1,0.1c0,0-0.1,0.6-0.3,1
			c-0.2,0.3-0.4,0.5-0.7,0.5c-0.5,0-0.8-0.3-0.9-0.7c-0.6,0.7-1.1,0.7-1.3,0.7c-0.8,0-1.3-0.7-1.3-1.6c0-1.5,1.2-2.9,2.4-2.9
			c0.4,0,0.7,0.3,0.9,0.6C226,77.6,226.2,77.4,226.4,77.4z M225.8,78.4c0,0,0-0.1,0-0.2c0-0.1-0.1-0.9-0.8-0.9c-0.4,0-0.8,0.4-1.2,1
			c-0.2,0.5-0.5,1.7-0.5,2.2c0,0.4,0.1,0.9,0.6,0.9c0.3,0,0.7-0.2,1.1-0.7c0.2-0.2,0.2-0.2,0.2-0.4L225.8,78.4z"/>
	</g>
	<g>
		<path class="st0" d="M230.9,83H228c0-0.2,0-0.2,0.1-0.3l1.7-1.7c0.2-0.3,0.7-0.7,0.7-1.3c0-0.6-0.4-1.1-1.1-1.1
			c-0.3,0-0.8,0.2-1,0.6c0.4,0,0.4,0.2,0.4,0.4c0,0.3-0.2,0.4-0.4,0.4c-0.1,0-0.4,0-0.4-0.4c0-0.6,0.6-1.2,1.5-1.2
			c0.9,0,1.6,0.5,1.6,1.4c0,0.7-0.5,1.1-1,1.5c-0.4,0.3-0.7,0.5-1.4,1.2h1.3c0.1,0,0.6,0,0.7,0c0.1-0.1,0.2-0.5,0.2-0.6h0.2
			L230.9,83z"/>
	</g>
	<polyline points="208.2,70.5 205.9,66 203.6,70.5 205.9,69.4 	"/>
	<line class="st1" x1="205.9" y1="69.4" x2="205.9" y2="80.1"/>
	<polyline points="208.2,91.8 205.9,87.2 203.6,91.8 205.9,90.6 	"/>
	<line class="st1" x1="205.9" y1="90.6" x2="205.9" y2="101.4"/>
	<polyline points="189.2,99.1 184.7,101.4 189.2,103.7 188.1,101.4 	"/>
	<line class="st1" x1="223.6" y1="101.4" x2="188.1" y2="101.4"/>
	<polygon class="st4" points="31.9,59.8 32.3,0.4 338.8,0.4 337.9,119.1 31.4,119.1 	"/>
	<g>
		<path class="st0" d="M266.2,87c-1.8,0-3.3-1.5-3.3-3.3c0-1.8,1.5-3.3,3.3-3.3c1.8,0,3.3,1.5,3.3,3.3C269.5,85.5,268,87,266.2,87z
			 M266,83.7l-2.1-2.1c-0.5,0.6-0.8,1.3-0.8,2.1c0,0.6,0.2,1.4,0.8,2.1L266,83.7z M266.2,83.9l-2.1,2.1c0.8,0.8,1.7,0.8,2.1,0.8
			c1.3,0,2.1-0.8,2.1-0.8c0,0-0.1-0.1-0.1-0.1L266.2,83.9z M266.2,83.5l2.1-2.1c-0.8-0.8-1.7-0.8-2.1-0.8c-1.3,0-2.1,0.8-2.1,0.8
			c0,0,0.1,0.1,0.1,0.1L266.2,83.5z M266.4,83.7l2.1,2.1c0.5-0.6,0.8-1.3,0.8-2.1c0-0.8-0.3-1.6-0.8-2.1L266.4,83.7z"/>
	</g>
	<polyline points="274.2,81.4 269.7,83.7 274.2,85.9 273.1,83.7 	"/>
	<line class="st1" x1="273.1" y1="83.7" x2="280.3" y2="83.7"/>
	<g>
		<path class="st0" d="M286.6,77.4c0.2,0,0.3,0.1,0.3,0.3c0,0,0,0.1-0.1,0.3l-0.4,1.4c-0.1,0.4-0.1,0.5-0.2,0.9
			c-0.1,0.4-0.1,0.5-0.1,0.7c0,0.2,0,0.5,0.3,0.5c0.4,0,0.6-0.6,0.8-1.2c0-0.1,0-0.2,0.1-0.2c0,0,0.1,0,0.1,0.1c0,0-0.1,0.6-0.3,1
			c-0.2,0.3-0.4,0.5-0.7,0.5c-0.5,0-0.8-0.3-0.9-0.7c-0.6,0.7-1.1,0.7-1.3,0.7c-0.8,0-1.3-0.7-1.3-1.6c0-1.5,1.2-2.9,2.4-2.9
			c0.4,0,0.7,0.3,0.9,0.6C286.2,77.6,286.4,77.4,286.6,77.4z M286.1,78.4c0,0,0-0.1,0-0.2c0-0.1-0.1-0.9-0.8-0.9
			c-0.4,0-0.8,0.4-1.2,1c-0.2,0.5-0.5,1.7-0.5,2.2c0,0.4,0.1,0.9,0.6,0.9c0.3,0,0.7-0.2,1.1-0.7c0.2-0.2,0.2-0.2,0.2-0.4L286.1,78.4
			z"/>
	</g>
	<g>
		<path class="st0" d="M290.1,82.4c0,0.2,0,0.3,0.7,0.3h0.3V83c-0.2,0-1,0-1.2,0c-0.3,0-1.1,0-1.2,0v-0.3h0.3c0.7,0,0.7-0.1,0.7-0.3
			v-3.6c-0.4,0.2-0.8,0.2-1,0.2v-0.3c0.3,0,0.9,0,1.4-0.4c0.2,0,0.2,0,0.2,0.2V82.4z"/>
	</g>
	<polyline points="268.4,70.5 266.2,66 263.9,70.5 266.2,69.4 	"/>
	<line class="st1" x1="266.2" y1="69.4" x2="266.2" y2="80.1"/>
	<polyline points="268.4,91.8 266.2,87.2 263.9,91.8 266.2,90.6 	"/>
	<line class="st1" x1="266.2" y1="90.6" x2="266.2" y2="101.4"/>
	<polyline points="249.4,99.1 244.9,101.4 249.4,103.7 248.3,101.4 	"/>
	<line class="st1" x1="283.9" y1="101.4" x2="248.3" y2="101.4"/>
	<g>
		<path class="st0" d="M288.2,104.6c0.2,0,0.4,0,0.7,0.2c0.2,0.1,0.4,0.1,0.6,0.1c0.3,0,1-0.2,1.2-0.8c0-0.1,0-0.1,0.1-0.1
			c0.1,0,0.1,0,0.1,0.1c0,0.3-0.6,1.5-1.6,1.5c-0.3,0-0.5-0.2-0.6-0.4c-0.2-0.3-0.3-0.4-0.6-0.4c-0.3,0-0.6,0.3-0.8,0.6
			c-0.1,0.1-0.1,0.1-0.2,0.1c0,0-0.1,0-0.1-0.1c0-0.1,0.3-0.6,1-1.3l0.9-0.8c0.2-0.2,1-0.9,1.4-1.3c-0.3,0-0.4,0-0.8-0.1
			c-0.2-0.1-0.4-0.1-0.6-0.1c-0.1,0-0.7,0-0.8,0.5c0,0.1,0,0.1-0.1,0.1s-0.1-0.1-0.1-0.1c0-0.2,0.5-1.1,1.2-1.1
			c0.3,0,0.5,0.2,0.7,0.4c0.1,0.2,0.3,0.3,0.5,0.3s0.4-0.2,0.7-0.6c0-0.1,0.1-0.1,0.1-0.1c0,0,0.1,0,0.1,0.1c0,0-0.2,0.5-1.2,1.4
			c-0.4,0.4-1,0.9-1,0.9c-0.4,0.3-0.6,0.6-1.2,1.1C288,104.6,288.2,104.6,288.2,104.6z"/>
	</g>
	<g>
		<path class="st0" d="M292.8,100.3c-0.1,0-0.3,0-0.3-0.2c0-0.2,0.2-0.2,0.3-0.2h4.2c0.1,0,0.3,0,0.3,0.2c0,0.2-0.2,0.2-0.3,0.2
			H292.8z"/>
	</g>
	<g>
		<path class="st0" d="M300.3,101.3c0,0.2,0,0.3,0.7,0.3h0.3v0.3c-0.2,0-1,0-1.2,0c-0.3,0-1.1,0-1.2,0v-0.3h0.3
			c0.7,0,0.7-0.1,0.7-0.3v-3.6c-0.4,0.2-0.8,0.2-1,0.2v-0.3c0.3,0,0.9,0,1.4-0.4c0.2,0,0.2,0,0.2,0.2V101.3z"/>
	</g>
	<polygon class="st1" points="283.9,101.4 283.9,108.5 305.1,108.5 305.1,94.3 283.9,94.3 	"/>
	<g>
		<path class="st0" d="M227.9,104.6c0.2,0,0.4,0,0.7,0.2c0.2,0.1,0.4,0.1,0.6,0.1c0.3,0,1-0.2,1.2-0.8c0-0.1,0-0.1,0.1-0.1
			c0.1,0,0.1,0,0.1,0.1c0,0.3-0.6,1.5-1.6,1.5c-0.3,0-0.5-0.2-0.6-0.4c-0.2-0.3-0.3-0.4-0.6-0.4c-0.3,0-0.6,0.3-0.8,0.6
			c-0.1,0.1-0.1,0.1-0.2,0.1c0,0-0.1,0-0.1-0.1c0-0.1,0.3-0.6,1-1.3l0.9-0.8c0.2-0.2,1-0.9,1.4-1.3c-0.3,0-0.4,0-0.8-0.1
			c-0.2-0.1-0.4-0.1-0.6-0.1c-0.1,0-0.7,0-0.8,0.5c0,0.1,0,0.1-0.1,0.1s-0.1-0.1-0.1-0.1c0-0.2,0.5-1.1,1.2-1.1
			c0.3,0,0.5,0.2,0.7,0.4c0.1,0.2,0.3,0.3,0.5,0.3s0.4-0.2,0.7-0.6c0-0.1,0.1-0.1,0.1-0.1c0,0,0.1,0,0.1,0.1c0,0-0.2,0.5-1.2,1.4
			c-0.4,0.4-1,0.9-1,0.9c-0.4,0.3-0.6,0.6-1.2,1.1C227.8,104.6,227.9,104.6,227.9,104.6z"/>
	</g>
	<g>
		<path class="st0" d="M232.5,100.3c-0.1,0-0.3,0-0.3-0.2c0-0.2,0.2-0.2,0.3-0.2h4.2c0.1,0,0.3,0,0.3,0.2c0,0.2-0.2,0.2-0.3,0.2
			H232.5z"/>
	</g>
	<g>
		<path class="st0" d="M240.1,101.3c0,0.2,0,0.3,0.7,0.3h0.3v0.3c-0.2,0-1,0-1.2,0c-0.3,0-1.1,0-1.2,0v-0.3h0.3
			c0.7,0,0.7-0.1,0.7-0.3v-3.6c-0.4,0.2-0.8,0.2-1,0.2v-0.3c0.3,0,0.9,0,1.4-0.4c0.2,0,0.2,0,0.2,0.2V101.3z"/>
	</g>
	<polygon class="st1" points="223.6,101.4 223.6,108.5 244.9,108.5 244.9,94.3 223.6,94.3 	"/>
	<g>
		<path class="st0" d="M111,104.6c0.2,0,0.4,0,0.7,0.2c0.2,0.1,0.4,0.1,0.6,0.1c0.3,0,1-0.2,1.2-0.8c0-0.1,0-0.1,0.1-0.1
			c0.1,0,0.1,0,0.1,0.1c0,0.3-0.6,1.5-1.6,1.5c-0.3,0-0.5-0.2-0.6-0.4c-0.2-0.3-0.3-0.4-0.6-0.4c-0.3,0-0.6,0.3-0.8,0.6
			c-0.1,0.1-0.1,0.1-0.2,0.1c0,0-0.1,0-0.1-0.1c0-0.1,0.3-0.6,1-1.3l0.9-0.8c0.2-0.2,1-0.9,1.4-1.3c-0.3,0-0.4,0-0.8-0.1
			c-0.2-0.1-0.4-0.1-0.6-0.1c-0.1,0-0.7,0-0.8,0.5c0,0.1,0,0.1-0.1,0.1c-0.1,0-0.1-0.1-0.1-0.1c0-0.2,0.5-1.1,1.2-1.1
			c0.3,0,0.5,0.2,0.7,0.4c0.1,0.2,0.3,0.3,0.5,0.3c0.2,0,0.4-0.2,0.7-0.6c0-0.1,0.1-0.1,0.1-0.1c0,0,0.1,0,0.1,0.1
			c0,0-0.2,0.5-1.2,1.4c-0.4,0.4-1,0.9-1,0.9c-0.4,0.3-0.6,0.6-1.2,1.1C110.8,104.6,111,104.6,111,104.6z"/>
	</g>
	<g>
		<path class="st0" d="M115.6,100.3c-0.1,0-0.3,0-0.3-0.2c0-0.2,0.2-0.2,0.3-0.2h4.2c0.1,0,0.3,0,0.3,0.2c0,0.2-0.2,0.2-0.3,0.2
			H115.6z"/>
	</g>
	<g>
		<path class="st0" d="M123.1,101.3c0,0.2,0,0.3,0.7,0.3h0.3v0.3c-0.2,0-1,0-1.2,0c-0.3,0-1.1,0-1.2,0v-0.3h0.3
			c0.7,0,0.7-0.1,0.7-0.3v-3.6c-0.4,0.2-0.8,0.2-1,0.2v-0.3c0.3,0,0.9,0,1.4-0.4c0.2,0,0.2,0,0.2,0.2V101.3z"/>
	</g>
	<polygon class="st1" points="106.7,101.4 106.7,108.5 128,108.5 128,94.3 106.7,94.3 	"/>
	<g>
		<path class="st0" d="M44.8,112.6c0.2,0,0.4,0,0.7,0.2c0.2,0.1,0.4,0.1,0.6,0.1c0.3,0,1-0.2,1.2-0.8c0-0.1,0-0.1,0.1-0.1
			c0.1,0,0.1,0,0.1,0.1c0,0.3-0.6,1.5-1.6,1.5c-0.3,0-0.5-0.2-0.6-0.4c-0.2-0.3-0.3-0.4-0.6-0.4c-0.3,0-0.6,0.3-0.8,0.6
			c-0.1,0.1-0.1,0.1-0.2,0.1c0,0-0.1,0-0.1-0.1c0-0.1,0.3-0.6,1-1.3l0.9-0.8c0.2-0.2,1-0.9,1.4-1.3c-0.3,0-0.4,0-0.8-0.1
			c-0.2-0.1-0.4-0.1-0.6-0.1c-0.1,0-0.7,0-0.8,0.5c0,0.1,0,0.1-0.1,0.1c-0.1,0-0.1-0.1-0.1-0.1c0-0.2,0.5-1.1,1.2-1.1
			c0.3,0,0.5,0.2,0.7,0.4c0.1,0.2,0.3,0.3,0.5,0.3c0.2,0,0.4-0.2,0.7-0.6c0-0.1,0.1-0.1,0.1-0.1c0,0,0.1,0,0.1,0.1
			c0,0-0.2,0.5-1.2,1.4c-0.4,0.4-1,0.9-1,0.9c-0.4,0.3-0.6,0.6-1.2,1.1C44.6,112.6,44.8,112.6,44.8,112.6z"/>
	</g>
	<g>
		<path class="st0" d="M49.4,108.3c-0.1,0-0.3,0-0.3-0.2c0-0.2,0.2-0.2,0.3-0.2h4.2c0.1,0,0.3,0,0.3,0.2c0,0.2-0.2,0.2-0.3,0.2H49.4
			z"/>
	</g>
	<g>
		<path class="st0" d="M57.2,104.7C57.2,104.8,57.2,104.8,57.2,104.7c-0.6,0.6-1.3,1.5-1.3,3.4c0,1.3,0.3,2.5,1.3,3.3
			c0,0,0.1,0.1,0.1,0.1c0,0.1-0.1,0.1-0.1,0.1c-1.4-1-1.7-2.5-1.7-3.5c0-1.1,0.3-2.5,1.7-3.5C57.1,104.7,57.2,104.7,57.2,104.7z"/>
	</g>
	<g>
		<path class="st0" d="M62.6,109.7c0,0.1,0,0.1-0.1,0.1c-0.1,0-0.1,0-0.2-0.1l-2-4.2l-0.9,3.6c0,0.1,0,0.1,0,0.2
			c0,0.1,0,0.3,0.4,0.3c0.1,0,0.2,0,0.2,0.1c0,0.1-0.1,0.1-0.1,0.1c-0.2,0-0.6,0-0.7,0c-0.2,0-0.5,0-0.7,0c0,0-0.1,0-0.1-0.1
			c0-0.1,0.1-0.1,0.1-0.1c0.5,0,0.7-0.2,0.7-0.5l0.9-3.7c-0.1,0-0.3,0-0.4,0s-0.2,0-0.2-0.1c0-0.2,0.1-0.2,0.2-0.2h1
			c0.2,0,0.2,0,0.2,0.1l1.8,3.6l0.8-3c0-0.1,0-0.1,0-0.2c0-0.2-0.1-0.3-0.4-0.3c-0.1,0-0.2,0-0.2-0.1c0-0.2,0.1-0.2,0.1-0.2
			c0.2,0,0.6,0,0.7,0c0.2,0,0.5,0,0.7,0c0.1,0,0.1,0.1,0.1,0.1c0,0.1-0.1,0.2-0.1,0.2c-0.6,0-0.7,0.2-0.7,0.5L62.6,109.7z"/>
	</g>
	<g>
		<path class="st0" d="M65.8,108.3c-0.1,0-0.3,0-0.3-0.2c0-0.2,0.2-0.2,0.3-0.2H70c0.1,0,0.3,0,0.3,0.2c0,0.2-0.2,0.2-0.3,0.2H65.8z
			"/>
	</g>
	<g>
		<path class="st0" d="M73.4,109.3c0,0.2,0,0.3,0.7,0.3h0.3v0.3c-0.2,0-1,0-1.2,0c-0.3,0-1.1,0-1.2,0v-0.3h0.3
			c0.7,0,0.7-0.1,0.7-0.3v-3.6c-0.4,0.2-0.8,0.2-1,0.2v-0.3c0.3,0,0.9,0,1.4-0.4c0.2,0,0.2,0,0.2,0.2V109.3z"/>
		<path class="st0" d="M77.3,108.1c0,0.8-0.2,1.6-0.5,2.1c-0.5,0.9-1.1,1.3-1.2,1.3c-0.1,0-0.1,0-0.1-0.1c0,0,0,0,0.1-0.2
			c0.8-0.7,1.2-1.8,1.2-3.2c0-1.8-0.7-2.7-1.3-3.3c0,0-0.1-0.1-0.1-0.1c0-0.1,0.1-0.1,0.1-0.1C77,105.6,77.3,107.2,77.3,108.1z"/>
	</g>
	<g>
		<path class="st0" d="M82,110.7c-0.1,0.1-0.1,0.1-0.1,0.3l-0.3,1.4c0,0.2-0.1,0.6-0.1,0.6c0,0.1,0.1,0.1,0.3,0.2c0.2,0,0.4,0,0.4,0
			c0.2,0,0.3,0,0.3,0.1c0,0.2-0.1,0.2-0.2,0.2c-0.3,0-1,0-1.3,0c-0.3,0-1,0-1.3,0c0,0-0.1,0-0.1-0.1c0-0.2,0.1-0.2,0.3-0.2
			c0.8,0,0.8,0,0.9-0.6c0-0.2,0.4-1.8,0.4-1.8c0,0,0-0.1,0-0.2l-1.2-3.3c-0.1-0.2-0.1-0.3-0.7-0.3c-0.1,0-0.2,0-0.2-0.1
			c0-0.2,0.1-0.2,0.2-0.2c0.2,0,0.9,0,1.1,0c0.3,0,1,0,1.3,0c0,0,0.1,0,0.1,0.1c0,0.2-0.1,0.2-0.2,0.2c-0.1,0-0.6,0-0.6,0.2
			c0,0,0,0,0.1,0.2l1.1,3l2.3-2.7c0,0,0.3-0.3,0.3-0.5c0-0.2-0.3-0.2-0.4-0.2c0,0-0.1,0-0.1-0.1c0-0.2,0.1-0.2,0.2-0.2
			c0.3,0,0.7,0,1,0c0.3,0,0.6,0,0.8,0c0.1,0,0.1,0,0.1,0.1c0,0.2-0.1,0.2-0.2,0.2c-0.7,0-1,0.4-1.3,0.7l-0.1,0.1L82,110.7z"/>
	</g>
	<g>
		<path class="st0" d="M89.6,116c-0.1,0-1-0.6-1.6-1.9c-0.5-1.1-0.7-2.3-0.7-3.1c0-0.8,0.1-1.9,0.6-3c0.6-1.3,1.5-1.9,1.6-1.9
			c0.1,0,0.1,0,0.1,0.1c0,0,0,0-0.1,0.2c-1.2,1.2-1.6,3-1.6,4.7c0,1.5,0.3,3.4,1.6,4.7C89.7,115.8,89.7,115.8,89.6,116
			C89.7,115.9,89.6,116,89.6,116z"/>
	</g>
	<g>
		<path class="st0" d="M91.8,112.6c0.2,0,0.4,0,0.7,0.2c0.2,0.1,0.4,0.1,0.6,0.1c0.3,0,1-0.2,1.2-0.8c0-0.1,0-0.1,0.1-0.1
			c0.1,0,0.1,0,0.1,0.1c0,0.3-0.6,1.5-1.6,1.5c-0.3,0-0.5-0.2-0.6-0.4c-0.2-0.3-0.3-0.4-0.6-0.4c-0.3,0-0.6,0.3-0.8,0.6
			c-0.1,0.1-0.1,0.1-0.2,0.1c0,0-0.1,0-0.1-0.1c0-0.1,0.3-0.6,1-1.3l0.9-0.8c0.2-0.2,1-0.9,1.4-1.3c-0.3,0-0.4,0-0.8-0.1
			c-0.2-0.1-0.4-0.1-0.6-0.1c-0.1,0-0.7,0-0.8,0.5c0,0.1,0,0.1-0.1,0.1c-0.1,0-0.1-0.1-0.1-0.1c0-0.2,0.5-1.1,1.2-1.1
			c0.3,0,0.5,0.2,0.7,0.4c0.1,0.2,0.3,0.3,0.5,0.3c0.2,0,0.4-0.2,0.7-0.6c0-0.1,0.1-0.1,0.1-0.1c0,0,0.1,0,0.1,0.1
			c0,0-0.2,0.5-1.2,1.4c-0.4,0.4-1,0.9-1,0.9c-0.4,0.3-0.6,0.6-1.2,1.1C91.6,112.6,91.8,112.6,91.8,112.6z"/>
	</g>
	<g>
		<path class="st0" d="M97.6,114c-0.6,1.3-1.5,1.9-1.6,1.9c-0.1,0-0.1,0-0.1-0.1c0,0,0,0,0.1-0.2c1.2-1.3,1.6-3,1.6-4.7
			c0-2.1-0.6-3.7-1.5-4.7c-0.2-0.2-0.2-0.2-0.2-0.2c0-0.1,0-0.1,0.1-0.1c0.1,0,1,0.6,1.6,1.9c0.5,1.1,0.7,2.3,0.7,3.1
			C98.3,111.8,98.2,112.9,97.6,114z"/>
	</g>
	<g>
		<path class="st0" d="M247.6,112.3c0.2,0,0.4,0,0.7,0.2c0.2,0.1,0.4,0.1,0.6,0.1c0.3,0,1-0.2,1.2-0.8c0-0.1,0-0.1,0.1-0.1
			c0.1,0,0.1,0,0.1,0.1c0,0.3-0.6,1.5-1.6,1.5c-0.3,0-0.5-0.2-0.6-0.4c-0.2-0.3-0.3-0.4-0.6-0.4c-0.3,0-0.6,0.3-0.8,0.6
			c-0.1,0.1-0.1,0.1-0.2,0.1c0,0-0.1,0-0.1-0.1c0-0.1,0.3-0.6,1-1.3l0.9-0.8c0.2-0.2,1-0.9,1.4-1.3c-0.3,0-0.4,0-0.8-0.1
			c-0.2-0.1-0.4-0.1-0.6-0.1c-0.1,0-0.7,0-0.8,0.5c0,0.1,0,0.1-0.1,0.1s-0.1-0.1-0.1-0.1c0-0.2,0.5-1.1,1.2-1.1
			c0.3,0,0.5,0.2,0.7,0.4c0.1,0.2,0.3,0.3,0.5,0.3s0.4-0.2,0.7-0.6c0-0.1,0.1-0.1,0.1-0.1c0,0,0.1,0,0.1,0.1c0,0-0.2,0.5-1.2,1.4
			c-0.4,0.4-1,0.9-1,0.9c-0.4,0.3-0.6,0.6-1.2,1.1C247.5,112.3,247.6,112.3,247.6,112.3z"/>
	</g>
	<g>
		<path class="st0" d="M252.2,107.8c-0.1,0-0.3,0-0.3-0.2c0-0.2,0.2-0.2,0.3-0.2h4.2c0.1,0,0.3,0,0.3,0.2c0,0.2-0.2,0.2-0.3,0.2
			H252.2z"/>
	</g>
	<g>
		<path class="st0" d="M259.8,108.8c0,0.2,0,0.3,0.7,0.3h0.3v0.3c-0.2,0-1,0-1.2,0c-0.3,0-1.1,0-1.2,0v-0.3h0.3
			c0.7,0,0.7-0.1,0.7-0.3v-3.6c-0.4,0.2-0.8,0.2-1,0.2v-0.3c0.3,0,0.9,0,1.4-0.4c0.2,0,0.2,0,0.2,0.2V108.8z"/>
	</g>
	<g>
		<path class="st0" d="M265.2,110.3c-0.1,0.1-0.1,0.1-0.1,0.3l-0.3,1.4c0,0.2-0.1,0.6-0.1,0.6c0,0.1,0.1,0.1,0.3,0.2
			c0.2,0,0.4,0,0.4,0c0.2,0,0.3,0,0.3,0.1c0,0.2-0.1,0.2-0.2,0.2c-0.3,0-1,0-1.3,0s-1,0-1.3,0c0,0-0.1,0-0.1-0.1
			c0-0.2,0.1-0.2,0.3-0.2c0.8,0,0.8,0,0.9-0.6c0-0.2,0.4-1.8,0.4-1.8c0,0,0-0.1,0-0.2l-1.2-3.3c-0.1-0.2-0.1-0.3-0.7-0.3
			c-0.1,0-0.2,0-0.2-0.1c0-0.2,0.1-0.2,0.2-0.2c0.2,0,0.9,0,1.1,0c0.3,0,1,0,1.3,0c0,0,0.1,0,0.1,0.1c0,0.2-0.1,0.2-0.2,0.2
			c-0.1,0-0.6,0-0.6,0.2c0,0,0,0,0.1,0.2l1.1,3l2.3-2.7c0,0,0.3-0.3,0.3-0.5c0-0.2-0.3-0.2-0.4-0.2c0,0-0.1,0-0.1-0.1
			c0-0.2,0.1-0.2,0.2-0.2c0.3,0,0.7,0,1,0c0.3,0,0.6,0,0.8,0c0.1,0,0.1,0,0.1,0.1c0,0.2-0.1,0.2-0.2,0.2c-0.7,0-1,0.4-1.3,0.7
			l-0.1,0.1L265.2,110.3z"/>
	</g>
	<g>
		<path class="st0" d="M273,115.6c-0.1,0-1-0.6-1.6-1.9c-0.5-1.1-0.7-2.3-0.7-3.1c0-0.8,0.1-1.9,0.6-3c0.6-1.3,1.5-1.9,1.6-1.9
			c0.1,0,0.1,0,0.1,0.1c0,0,0,0-0.1,0.2c-1.2,1.2-1.6,3-1.6,4.7c0,1.5,0.3,3.4,1.6,4.7C273.1,115.5,273.1,115.5,273,115.6
			C273.1,115.6,273.1,115.6,273,115.6z"/>
	</g>
	<g>
		<path class="st0" d="M275.2,112.3c0.2,0,0.4,0,0.7,0.2c0.2,0.1,0.4,0.1,0.6,0.1c0.3,0,1-0.2,1.2-0.8c0-0.1,0-0.1,0.1-0.1
			c0.1,0,0.1,0,0.1,0.1c0,0.3-0.6,1.5-1.6,1.5c-0.3,0-0.5-0.2-0.6-0.4c-0.2-0.3-0.3-0.4-0.6-0.4c-0.3,0-0.6,0.3-0.8,0.6
			c-0.1,0.1-0.1,0.1-0.2,0.1c0,0-0.1,0-0.1-0.1c0-0.1,0.3-0.6,1-1.3l0.9-0.8c0.2-0.2,1-0.9,1.4-1.3c-0.3,0-0.4,0-0.8-0.1
			c-0.2-0.1-0.4-0.1-0.6-0.1c-0.1,0-0.7,0-0.8,0.5c0,0.1,0,0.1-0.1,0.1s-0.1-0.1-0.1-0.1c0-0.2,0.5-1.1,1.2-1.1
			c0.3,0,0.5,0.2,0.7,0.4c0.1,0.2,0.3,0.3,0.5,0.3s0.4-0.2,0.7-0.6c0-0.1,0.1-0.1,0.1-0.1c0,0,0.1,0,0.1,0.1c0,0-0.2,0.5-1.2,1.4
			c-0.4,0.4-1,0.9-1,0.9c-0.4,0.3-0.6,0.6-1.2,1.1C275,112.3,275.2,112.3,275.2,112.3z"/>
	</g>
	<g>
		<path class="st0" d="M281,113.7c-0.6,1.3-1.5,1.9-1.6,1.9c-0.1,0-0.1,0-0.1-0.1c0,0,0,0,0.1-0.2c1.2-1.3,1.6-3,1.6-4.7
			c0-2.1-0.6-3.7-1.5-4.7c-0.2-0.2-0.2-0.2-0.2-0.2c0-0.1,0-0.1,0.1-0.1c0.1,0,1,0.6,1.6,1.9c0.5,1.1,0.7,2.3,0.7,3.1
			C281.7,111.5,281.6,112.6,281,113.7z"/>
	</g>
	<g>
		<path class="st0" d="M187.4,112.3c0.2,0,0.4,0,0.7,0.2c0.2,0.1,0.4,0.1,0.6,0.1c0.3,0,1-0.2,1.2-0.8c0-0.1,0-0.1,0.1-0.1
			c0.1,0,0.1,0,0.1,0.1c0,0.3-0.6,1.5-1.6,1.5c-0.3,0-0.5-0.2-0.6-0.4c-0.2-0.3-0.3-0.4-0.6-0.4c-0.3,0-0.6,0.3-0.8,0.6
			c-0.1,0.1-0.1,0.1-0.2,0.1c0,0-0.1,0-0.1-0.1c0-0.1,0.3-0.6,1-1.3l0.9-0.8c0.2-0.2,1-0.9,1.4-1.3c-0.3,0-0.4,0-0.8-0.1
			c-0.2-0.1-0.4-0.1-0.6-0.1c-0.1,0-0.7,0-0.8,0.5c0,0.1,0,0.1-0.1,0.1c-0.1,0-0.1-0.1-0.1-0.1c0-0.2,0.5-1.1,1.2-1.1
			c0.3,0,0.5,0.2,0.7,0.4c0.1,0.2,0.3,0.3,0.5,0.3s0.4-0.2,0.7-0.6c0-0.1,0.1-0.1,0.1-0.1c0,0,0.1,0,0.1,0.1c0,0-0.2,0.5-1.2,1.4
			c-0.4,0.4-1,0.9-1,0.9c-0.4,0.3-0.6,0.6-1.2,1.1C187.2,112.3,187.3,112.3,187.4,112.3z"/>
	</g>
	<g>
		<path class="st0" d="M192,107.8c-0.1,0-0.3,0-0.3-0.2c0-0.2,0.2-0.2,0.3-0.2h4.2c0.1,0,0.3,0,0.3,0.2c0,0.2-0.2,0.2-0.3,0.2H192z"
			/>
	</g>
	<g>
		<path class="st0" d="M200.5,109.4h-2.9c0-0.2,0-0.2,0.1-0.3l1.7-1.7c0.2-0.3,0.7-0.7,0.7-1.3c0-0.6-0.4-1.1-1.1-1.1
			c-0.3,0-0.8,0.2-1,0.6c0.4,0,0.4,0.2,0.4,0.4c0,0.3-0.2,0.4-0.4,0.4c-0.1,0-0.4,0-0.4-0.4c0-0.6,0.6-1.2,1.5-1.2
			c0.9,0,1.6,0.5,1.6,1.4c0,0.7-0.5,1.1-1,1.5c-0.4,0.3-0.7,0.5-1.4,1.2h1.3c0.1,0,0.6,0,0.7,0c0.1-0.1,0.2-0.5,0.2-0.6h0.2
			L200.5,109.4z"/>
	</g>
	<g>
		<path class="st0" d="M205,110.3c-0.1,0.1-0.1,0.1-0.1,0.3l-0.3,1.4c0,0.2-0.1,0.6-0.1,0.6c0,0.1,0.1,0.1,0.3,0.2
			c0.2,0,0.4,0,0.4,0c0.2,0,0.3,0,0.3,0.1c0,0.2-0.1,0.2-0.2,0.2c-0.3,0-1,0-1.3,0s-1,0-1.3,0c0,0-0.1,0-0.1-0.1
			c0-0.2,0.1-0.2,0.3-0.2c0.8,0,0.8,0,0.9-0.6c0-0.2,0.4-1.8,0.4-1.8c0,0,0-0.1,0-0.2l-1.2-3.3c-0.1-0.2-0.1-0.3-0.7-0.3
			c-0.1,0-0.2,0-0.2-0.1c0-0.2,0.1-0.2,0.2-0.2c0.2,0,0.9,0,1.1,0c0.3,0,1,0,1.3,0c0,0,0.1,0,0.1,0.1c0,0.2-0.1,0.2-0.2,0.2
			c-0.1,0-0.6,0-0.6,0.2c0,0,0,0,0.1,0.2l1.1,3l2.3-2.7c0,0,0.3-0.3,0.3-0.5c0-0.2-0.3-0.2-0.4-0.2c0,0-0.1,0-0.1-0.1
			c0-0.2,0.1-0.2,0.2-0.2c0.3,0,0.7,0,1,0c0.3,0,0.6,0,0.8,0c0.1,0,0.1,0,0.1,0.1c0,0.2-0.1,0.2-0.2,0.2c-0.7,0-1,0.4-1.3,0.7
			l-0.1,0.1L205,110.3z"/>
	</g>
	<g>
		<path class="st0" d="M212.7,115.6c-0.1,0-1-0.6-1.6-1.9c-0.5-1.1-0.7-2.3-0.7-3.1c0-0.8,0.1-1.9,0.6-3c0.6-1.3,1.5-1.9,1.6-1.9
			c0.1,0,0.1,0,0.1,0.1c0,0,0,0-0.1,0.2c-1.2,1.2-1.6,3-1.6,4.7c0,1.5,0.3,3.4,1.6,4.7C212.8,115.5,212.8,115.5,212.7,115.6
			C212.8,115.6,212.8,115.6,212.7,115.6z"/>
	</g>
	<g>
		<path class="st0" d="M215,112.3c0.2,0,0.4,0,0.7,0.2c0.2,0.1,0.4,0.1,0.6,0.1c0.3,0,1-0.2,1.2-0.8c0-0.1,0-0.1,0.1-0.1
			c0.1,0,0.1,0,0.1,0.1c0,0.3-0.6,1.5-1.6,1.5c-0.3,0-0.5-0.2-0.6-0.4c-0.2-0.3-0.3-0.4-0.6-0.4c-0.3,0-0.6,0.3-0.8,0.6
			c-0.1,0.1-0.1,0.1-0.2,0.1c0,0-0.1,0-0.1-0.1c0-0.1,0.3-0.6,1-1.3l0.9-0.8c0.2-0.2,1-0.9,1.4-1.3c-0.3,0-0.4,0-0.8-0.1
			c-0.2-0.1-0.4-0.1-0.6-0.1c-0.1,0-0.7,0-0.8,0.5c0,0.1,0,0.1-0.1,0.1s-0.1-0.1-0.1-0.1c0-0.2,0.5-1.1,1.2-1.1
			c0.3,0,0.5,0.2,0.7,0.4c0.1,0.2,0.3,0.3,0.5,0.3s0.4-0.2,0.7-0.6c0-0.1,0.1-0.1,0.1-0.1c0,0,0.1,0,0.1,0.1c0,0-0.2,0.5-1.2,1.4
			c-0.4,0.4-1,0.9-1,0.9c-0.4,0.3-0.6,0.6-1.2,1.1C214.8,112.3,214.9,112.3,215,112.3z"/>
	</g>
	<g>
		<path class="st0" d="M220.8,113.7c-0.6,1.3-1.5,1.9-1.6,1.9c-0.1,0-0.1,0-0.1-0.1c0,0,0,0,0.1-0.2c1.2-1.3,1.6-3,1.6-4.7
			c0-2.1-0.6-3.7-1.5-4.7c-0.2-0.2-0.2-0.2-0.2-0.2c0-0.1,0-0.1,0.1-0.1c0.1,0,1,0.6,1.6,1.9c0.5,1.1,0.7,2.3,0.7,3.1
			C221.4,111.5,221.3,112.6,220.8,113.7z"/>
	</g>
</g>
</svg>
