<svg id="Layer_1" data-name="Layer 1" xmlns="http://www.w3.org/2000/svg" viewBox="0 0 369.811 117.751">
  <defs>
    <style>
      .cls-1 {
        fill: #1d1d1b;
      }

      .cls-2, .cls-3, .cls-4, .cls-5 {
        fill: none;
        stroke: #000;
        stroke-miterlimit: 10;
        stroke-width: 0.85px;
      }

      .cls-3, .cls-4 {
        stroke-linecap: round;
        stroke-dashoffset: -0.425px;
      }

      .cls-3 {
        stroke-dasharray: 0 3.842;
      }

      .cls-4 {
        stroke-dasharray: 0 3.992;
      }

      .cls-5 {
        stroke-dashoffset: 1.417px;
        stroke-dasharray: 2.841 2.841;
      }
    </style>
  </defs>
  <title>flowdiagram</title>
  <g>
    <path class="cls-1" d="M2.989,17.21a3.86,3.86,0,0,0-.169.877c0,.339.159.658.548.658.319,0,1-.239,1.325-1.306.02-.069.04-.109.13-.109.03,0,.119,0,.119.1,0,.249-.568,1.534-1.594,1.534a1.1,1.1,0,0,1-1.076-.757,1.324,1.324,0,0,1-1.046.757c-.439,0-.937-.2-.937-.657a.566.566,0,0,1,.548-.578.341.341,0,0,1,.369.348.565.565,0,0,1-.469.538.958.958,0,0,0,.5.13c.439,0,.787-.419.947-1.037a14.471,14.471,0,0,0,.538-2.371c0-.578-.348-.668-.538-.668-.339,0-1,.25-1.335,1.306-.02.089-.05.109-.13.109-.02,0-.119,0-.119-.1,0-.249.568-1.535,1.6-1.535a1.1,1.1,0,0,1,1.076.758,1.291,1.291,0,0,1,1.046-.758c.339,0,.927.14.927.658a.556.556,0,0,1-.538.578.348.348,0,0,1-.379-.349.58.58,0,0,1,.479-.538.976.976,0,0,0-.5-.13c-.7,0-.926.917-.986,1.176Z" transform="translate(-0.289)"/>
    <path class="cls-1" d="M6.809,21.346V11.381H8.174v.4H7.207v9.167h.967v.4Z" transform="translate(-0.289)"/>
    <path class="cls-1" d="M9.853,15.965a3.2,3.2,0,0,0,.16-.837c0-.329-.11-.459-.309-.459-.359,0-.558.479-.727,1.186-.06.22-.07.229-.17.229-.02,0-.119,0-.119-.1a5.007,5.007,0,0,1,.3-.966.87.87,0,0,1,.747-.569.9.9,0,0,1,.917.867,1.928,1.928,0,0,1,1.555-.867,1.019,1.019,0,0,1,1.146,1.067,8.974,8.974,0,0,1-.608,2.191,1.9,1.9,0,0,0-.18.708c0,.229.07.329.24.329.488,0,.817-.558,1.016-1.236.05-.149.05-.179.149-.179.03,0,.12,0,.12.1,0,.079-.369,1.534-1.3,1.534a.8.8,0,0,1-.818-.817,1.157,1.157,0,0,1,.1-.459,9.454,9.454,0,0,0,.648-2.321c0-.329-.09-.7-.538-.7a1.981,1.981,0,0,0-1.624,1.216c-.01.04-.09.329-.13.5-.05.23-.109.449-.169.668l-.219.9c-.06.249-.18.717-.19.737a.408.408,0,0,1-.368.279.266.266,0,0,1-.289-.269c0-.05.06-.279.089-.428Z" transform="translate(-0.289)"/>
    <path class="cls-1" d="M15.975,21.346H14.61v-.4h.966V11.78H14.61v-.4h1.365Z" transform="translate(-0.289)"/>
    <path class="cls-1" d="M358.363,61.341a2.628,2.628,0,0,1-2.331,2.033.943.943,0,0,1-1.057-.867.575.575,0,0,1,.559-.648.34.34,0,0,1,.368.349.541.541,0,0,1-.2.408.569.569,0,0,1-.429.12.8.8,0,0,0,.758.418,1.423,1.423,0,0,0,1.1-.628,3.8,3.8,0,0,0,.648-1.534,1.4,1.4,0,0,1-1.006.448,1.111,1.111,0,0,1-1.216-1.185,6.59,6.59,0,0,1,.578-2.092,2.11,2.11,0,0,0,.169-.7c0-.319-.169-.319-.249-.319-.339,0-.737.3-1.006,1.236-.049.159-.06.179-.16.179-.019,0-.119,0-.119-.1s.368-1.534,1.316-1.534a.789.789,0,0,1,.816.817,1.785,1.785,0,0,1-.2.717,5.94,5.94,0,0,0-.508,1.953c0,.369.109.808.618.808a1.384,1.384,0,0,0,1.125-.848l.449-1.793c.06-.269.129-.538.2-.8.039-.18.119-.489.139-.538a.43.43,0,0,1,.349-.209.266.266,0,0,1,.289.269.625.625,0,0,1-.04.229Z" transform="translate(-0.289)"/>
    <path class="cls-1" d="M360.926,63.822V53.858h1.366v.4h-.967v9.167h.967v.4Z" transform="translate(-0.289)"/>
    <path class="cls-1" d="M363.963,58.441a3.239,3.239,0,0,0,.16-.837c0-.328-.11-.458-.309-.458-.359,0-.559.479-.728,1.186-.059.219-.07.229-.169.229-.02,0-.12,0-.12-.1a5.035,5.035,0,0,1,.3-.966.869.869,0,0,1,.747-.568.9.9,0,0,1,.917.867,1.922,1.922,0,0,1,1.555-.867,1.018,1.018,0,0,1,1.145,1.066,9,9,0,0,1-.607,2.193,1.888,1.888,0,0,0-.18.707c0,.229.07.329.24.329.488,0,.816-.559,1.015-1.236.051-.149.051-.179.151-.179.029,0,.119,0,.119.1,0,.08-.369,1.534-1.306,1.534a.8.8,0,0,1-.816-.816,1.13,1.13,0,0,1,.1-.459,9.511,9.511,0,0,0,.648-2.321c0-.329-.09-.7-.538-.7a1.981,1.981,0,0,0-1.624,1.216c-.01.04-.09.328-.13.5-.05.229-.11.449-.169.667l-.22.9c-.059.249-.179.717-.189.737a.407.407,0,0,1-.369.278.266.266,0,0,1-.289-.268c0-.05.06-.279.09-.429Z" transform="translate(-0.289)"/>
    <path class="cls-1" d="M370.1,63.822h-1.365v-.4h.967V54.257h-.967v-.4H370.1Z" transform="translate(-0.289)"/>
    <line class="cls-2" x1="142.878" y1="16.356" x2="142.878" y2="23.442"/>
    <polyline points="140.61 47.253 142.878 51.789 145.145 47.253 142.878 48.387"/>
    <line class="cls-2" x1="142.878" y1="44.702" x2="142.878" y2="48.387"/>
    <path class="cls-1" d="M143.179,37.447a3.318,3.318,0,1,1,3.327-3.318A3.324,3.324,0,0,1,143.179,37.447ZM143,34.129l-2.082-2.082a3.133,3.133,0,0,0-.808,2.082,3.091,3.091,0,0,0,.808,2.082Zm.18.169-2.073,2.083a3.009,3.009,0,0,0,2.082.817,2.912,2.912,0,0,0,2.063-.817c0-.02-.07-.089-.09-.11Zm.009-.338,2.073-2.083a3.009,3.009,0,0,0-2.082-.817,2.912,2.912,0,0,0-2.063.817c0,.02.07.09.09.11Zm.18.169,2.082,2.082a3.135,3.135,0,0,0,.807-2.082,3.09,3.09,0,0,0-.817-2.082Z" transform="translate(-0.289)"/>
    <polyline points="134.799 36.34 139.334 34.072 134.799 31.805 135.933 34.072"/>
    <line class="cls-2" x1="128.704" y1="34.072" x2="135.933" y2="34.072"/>
    <path class="cls-1" d="M119.238,32.931a1.71,1.71,0,0,1,1.166-.6,1.421,1.421,0,0,1,1.325,1.594c0,1.435-1.226,2.92-2.4,2.92-.738,0-1.266-.618-1.266-1.564a3.607,3.607,0,0,1,.16-1.007l.817-3.248c.049-.209.139-.548.139-.618,0-.1-.02-.169-.5-.169-.15,0-.239,0-.239-.12,0-.179.109-.189.189-.2.259-.02.986-.1,1.216-.1.129,0,.129.1.129.11Zm-.419,1.684a3.482,3.482,0,0,0-.159,1.006c0,.738.329,1.007.668,1.007.388,0,.846-.359,1.175-1.026a7.053,7.053,0,0,0,.508-2.113c0-.637-.269-.937-.627-.937a1.625,1.625,0,0,0-1.2.8c-.09.109-.09.129-.149.348Z" transform="translate(-0.289)"/>
    <path class="cls-1" d="M124.25,37.6c0,.23,0,.321.7.321h.265v.251c-.153-.007-1.032-.028-1.248-.028-.258,0-1.115.021-1.241.028v-.251h.265c.7,0,.7-.091.7-.321V34.047a2.3,2.3,0,0,1-1.011.2v-.251a1.9,1.9,0,0,0,1.367-.447c.2,0,.209.008.209.2Z" transform="translate(-0.289)"/>
    <path class="cls-2" d="M143.167,23.442v7.087m0,7.087V44.7M79.387,58.875V51.789H306.158V65.962H79.387Zm127.559,3.544V55.332M203.4,58.875h7.086" transform="translate(-0.289)"/>
    <path class="cls-1" d="M132.583,10.132a3.86,3.86,0,0,0-.169.877c0,.339.159.658.547.658.319,0,1-.239,1.326-1.306.02-.069.04-.109.13-.109.029,0,.119,0,.119.1,0,.249-.568,1.534-1.595,1.534a1.1,1.1,0,0,1-1.075-.757,1.329,1.329,0,0,1-1.047.757c-.438,0-.936-.2-.936-.657a.567.567,0,0,1,.548-.579A.341.341,0,0,1,130.8,11a.565.565,0,0,1-.468.538.958.958,0,0,0,.5.13c.439,0,.787-.419.947-1.037a14.471,14.471,0,0,0,.538-2.371c0-.578-.349-.668-.538-.668-.339,0-1,.25-1.335,1.306-.02.089-.05.109-.13.109-.02,0-.12,0-.12-.1,0-.249.569-1.535,1.6-1.535a1.1,1.1,0,0,1,1.076.757,1.289,1.289,0,0,1,1.046-.757c.339,0,.927.14.927.658a.556.556,0,0,1-.538.578.348.348,0,0,1-.379-.349.579.579,0,0,1,.478-.538.974.974,0,0,0-.5-.13c-.7,0-.927.917-.986,1.176Z" transform="translate(-0.289)"/>
    <path class="cls-1" d="M136.41,14.268V4.3h1.365v.4h-.966v9.167h.966v.4Z" transform="translate(-0.289)"/>
    <path class="cls-1" d="M139.447,8.887a3.182,3.182,0,0,0,.159-.837c0-.329-.109-.459-.309-.459-.358,0-.558.479-.727,1.186-.06.22-.07.229-.169.229-.02,0-.12,0-.12-.1a4.983,4.983,0,0,1,.3-.967.871.871,0,0,1,.747-.568.9.9,0,0,1,.917.867,1.928,1.928,0,0,1,1.554-.867,1.018,1.018,0,0,1,1.146,1.066,8.925,8.925,0,0,1-.608,2.192,1.921,1.921,0,0,0-.179.708c0,.229.07.329.239.329.488,0,.817-.558,1.017-1.236.049-.149.049-.179.149-.179.03,0,.12,0,.12.1,0,.079-.369,1.534-1.306,1.534a.8.8,0,0,1-.817-.817,1.136,1.136,0,0,1,.1-.459,9.5,9.5,0,0,0,.648-2.321c0-.329-.09-.7-.538-.7a1.981,1.981,0,0,0-1.624,1.216c-.011.04-.09.329-.13.5-.05.23-.11.449-.169.668l-.22.9c-.06.249-.179.717-.189.737a.408.408,0,0,1-.369.279.267.267,0,0,1-.289-.269c0-.05.06-.279.09-.429Z" transform="translate(-0.289)"/>
    <path class="cls-1" d="M147.332,9.485c-.169,0-.349,0-.349-.2s.18-.2.349-.2h5.391c.169,0,.348,0,.348.2s-.179.2-.348.2Z" transform="translate(-0.289)"/>
    <g>
      <path class="cls-1" d="M159.164,10.989c0,.369.03.478.926.478h.319v.309c-.348-.029-1.215-.029-1.614-.029s-1.265,0-1.614.029v-.309h.319c.9,0,.926-.119.926-.478V5.828a2.984,2.984,0,0,1-1.3.259V5.778a2.462,2.462,0,0,0,1.814-.638c.229,0,.229.02.229.259Z" transform="translate(-0.289)"/>
      <path class="cls-1" d="M162.86,14.268H161.5v-.4h.966V4.7H161.5V4.3h1.365Z" transform="translate(-0.289)"/>
    </g>
    <polyline points="99.366 18.623 103.901 16.356 99.366 14.088 100.5 16.356"/>
    <line class="cls-2" x1="22.406" y1="16.356" x2="100.5" y2="16.356"/>
    <path class="cls-1" d="M86.538,37.447a3.318,3.318,0,1,1,3.328-3.318A3.323,3.323,0,0,1,86.538,37.447Zm-.18-3.318-2.082-2.082a3.137,3.137,0,0,0-.807,2.082,3.089,3.089,0,0,0,.807,2.082Zm.18.169-2.073,2.083a3.009,3.009,0,0,0,2.083.817,2.911,2.911,0,0,0,2.062-.817c0-.02-.069-.089-.089-.11Zm.01-.338,2.073-2.083a3.011,3.011,0,0,0-2.083-.817,2.908,2.908,0,0,0-2.062.817c0,.02.069.09.089.11Zm.179.169,2.083,2.082a3.135,3.135,0,0,0,.807-2.082,3.09,3.09,0,0,0-.817-2.082Z" transform="translate(-0.289)"/>
    <polyline points="78.106 36.34 82.642 34.072 78.106 31.805 79.24 34.072"/>
    <line class="cls-2" x1="72.012" y1="34.072" x2="79.24" y2="34.072"/>
    <path class="cls-1" d="M62.48,32.931a1.712,1.712,0,0,1,1.166-.6,1.421,1.421,0,0,1,1.325,1.594c0,1.435-1.225,2.92-2.4,2.92-.737,0-1.266-.618-1.266-1.564a3.607,3.607,0,0,1,.16-1.007l.817-3.248c.05-.209.139-.548.139-.618,0-.1-.02-.169-.5-.169-.15,0-.239,0-.239-.12,0-.179.109-.189.189-.2.259-.02.986-.1,1.216-.1.129,0,.129.1.129.11Zm-.418,1.684a3.462,3.462,0,0,0-.16,1.006c0,.738.329,1.007.668,1.007.388,0,.847-.359,1.176-1.026a7.084,7.084,0,0,0,.507-2.113c0-.637-.269-.937-.627-.937a1.625,1.625,0,0,0-1.2.8c-.09.109-.09.129-.149.348Z" transform="translate(-0.289)"/>
    <path class="cls-1" d="M67.137,38.314c-1.618,0-1.618-1.861-1.618-2.364s0-2.406,1.618-2.406a1.449,1.449,0,0,1,1.206.6,3.1,3.1,0,0,1,.411,1.806C68.754,36.453,68.754,38.314,67.137,38.314Zm.892-.983a7.588,7.588,0,0,0,.091-1.471A5.641,5.641,0,0,0,68,34.375a.9.9,0,0,0-1.743.062,5.957,5.957,0,0,0-.1,1.423,7.2,7.2,0,0,0,.1,1.5.9.9,0,0,0,1.778-.028Z" transform="translate(-0.289)"/>
    <path class="cls-2" d="M86.474,23.442v7.087m0,7.087V44.7m0-28.346v7.086" transform="translate(-0.289)"/>
    <polyline points="83.917 47.253 86.185 51.789 88.453 47.253 86.185 48.387"/>
    <line class="cls-2" x1="86.185" y1="44.702" x2="86.185" y2="48.387"/>
    <path class="cls-1" d="M114.164,19.058a.858.858,0,0,0-.04.21c0,.159.08.189.369.219.258.019.388.019.637.019s.339,0,.339.11c0,.2-.119.2-.219.2-.279,0-.578-.02-.867-.02-.269,0-.548-.009-.827-.009s-.568.009-.847.009-.548.02-.817.02c-.06,0-.169,0-.169-.119,0-.19.059-.19.418-.19,1.066,0,1.1-.109,1.186-.478l1.335-5.32a.981.981,0,0,0,.04-.21c0-.08,0-.119-.279-.119h-.389c-1.474,0-1.734.179-2.271,1.724-.06.159-.07.209-.17.209a.113.113,0,0,1-.119-.11,1.209,1.209,0,0,1,.059-.179l.6-1.754c.07-.189.08-.2.319-.2h5.53c.169,0,.269,0,.269.109a1.114,1.114,0,0,1-.02.17l-.269,1.734c-.02.149-.04.229-.149.229a.117.117,0,0,1-.12-.13,1.468,1.468,0,0,1,.03-.189,7.344,7.344,0,0,0,.08-.8c0-.778-.449-.817-1.455-.817a5.713,5.713,0,0,0-.628.019c-.119.031-.159.09-.229.369Z" transform="translate(-0.289)"/>
    <polygon class="cls-2" points="103.901 16.356 103.901 23.442 125.161 23.442 125.161 9.269 103.901 9.269 103.901 16.356"/>
    <polyline points="156.059 18.623 160.594 16.356 156.059 14.088 157.192 16.356"/>
    <line class="cls-2" x1="125.161" y1="16.356" x2="157.192" y2="16.356"/>
    <line class="cls-3" x1="164.137" y1="16.356" x2="199.57" y2="16.356"/>
    <path class="cls-2" d="M245.922,16.356h17.716m0,0v7.086" transform="translate(-0.289)"/>
    <polyline points="261.082 47.253 263.349 51.789 265.617 47.253 263.349 48.387"/>
    <line class="cls-2" x1="263.349" y1="44.702" x2="263.349" y2="48.387"/>
    <path class="cls-1" d="M225.317,32.572a1.71,1.71,0,0,1,1.165-.6,1.42,1.42,0,0,1,1.325,1.594c0,1.435-1.225,2.919-2.4,2.919-.738,0-1.265-.617-1.265-1.564a3.594,3.594,0,0,1,.159-1.006l.817-3.249c.05-.209.139-.547.139-.617,0-.1-.019-.17-.5-.17-.149,0-.239,0-.239-.119,0-.179.11-.189.189-.2.259-.021.987-.1,1.216-.1.13,0,.13.1.13.11Zm-.419,1.683a3.487,3.487,0,0,0-.159,1.007c0,.738.328,1.007.667,1.007.388,0,.847-.359,1.176-1.027a7.076,7.076,0,0,0,.508-2.112c0-.638-.269-.937-.628-.937a1.625,1.625,0,0,0-1.2.8.683.683,0,0,0-.149.349Z" transform="translate(-0.289)"/>
    <path class="cls-1" d="M234.192,37.292a1.187,1.187,0,0,0-.028.154c0,.07,0,.091.161.1.125.014.258.014.264.014.14,0,.224,0,.224.1,0,.153-.1.153-.146.153-.2,0-.691-.027-.886-.027-.14,0-.3.006-.44.006s-.3.021-.432.021c-.112,0-.112-.09-.112-.1,0-.154.084-.154.209-.154.544,0,.558-.055.614-.293l.983-3.946-.007-.007-2.929,4.344c-.048.077-.1.153-.2.153s-.118-.063-.139-.188l-.746-4.24h-.007l-.928,3.71a.654.654,0,0,0-.027.174c0,.1,0,.279.446.293.062,0,.153.007.153.1,0,.153-.1.153-.139.153-.167,0-.572-.027-.74-.027-.222,0-.515.027-.724.027a.1.1,0,0,1-.106-.1c0-.147.091-.154.147-.154.558-.021.663-.258.725-.495l.879-3.5a.63.63,0,0,0,.028-.153c0-.07-.014-.084-.154-.1a1.759,1.759,0,0,0-.264-.014c-.154,0-.238,0-.238-.1,0-.153.091-.153.231-.153h1c.209,0,.209.007.244.188l.69,3.926,2.692-3.975c.091-.132.1-.139.3-.139h.948c.126,0,.209,0,.209.1,0,.147-.091.147-.236.147-.517,0-.531.055-.593.314Z" transform="translate(-0.289)"/>
    <path class="cls-1" d="M237.306,36.239c-.119,0-.279,0-.279-.174s.168-.167.279-.167h4.156c.119,0,.279,0,.279.174s-.167.167-.279.167Z" transform="translate(-0.289)"/>
    <path class="cls-1" d="M244.844,37.244c0,.23,0,.32.7.32h.265v.251c-.154-.006-1.032-.027-1.249-.027-.258,0-1.115.021-1.241.027v-.251h.266c.7,0,.7-.09.7-.32V33.688a2.314,2.314,0,0,1-1.012.194v-.251a1.9,1.9,0,0,0,1.367-.446c.2,0,.209.007.209.2Z" transform="translate(-0.289)"/>
    <path class="cls-1" d="M255.341,10.132a3.935,3.935,0,0,0-.17.877c0,.339.161.658.549.658.319,0,1-.239,1.325-1.306.02-.069.039-.109.129-.109.031,0,.12,0,.12.1,0,.249-.568,1.534-1.594,1.534a1.1,1.1,0,0,1-1.076-.757,1.326,1.326,0,0,1-1.046.757c-.439,0-.937-.2-.937-.657a.567.567,0,0,1,.548-.579.342.342,0,0,1,.369.349.565.565,0,0,1-.469.538.956.956,0,0,0,.5.13c.439,0,.788-.419.947-1.037a14.471,14.471,0,0,0,.538-2.371c0-.578-.349-.668-.538-.668-.338,0-1,.25-1.335,1.306-.02.089-.05.109-.129.109-.021,0-.12,0-.12-.1,0-.249.568-1.535,1.6-1.535a1.1,1.1,0,0,1,1.076.757,1.289,1.289,0,0,1,1.046-.757c.339,0,.927.14.927.658a.555.555,0,0,1-.538.578.348.348,0,0,1-.379-.349.578.578,0,0,1,.479-.538.976.976,0,0,0-.5-.13c-.7,0-.927.917-.987,1.176Z" transform="translate(-0.289)"/>
    <path class="cls-1" d="M259.168,14.268V4.3h1.366v.4h-.967v9.167h.967v.4Z" transform="translate(-0.289)"/>
    <path class="cls-1" d="M262.213,8.887a3.246,3.246,0,0,0,.16-.837c0-.329-.11-.459-.309-.459-.359,0-.559.479-.728,1.186-.059.22-.07.229-.169.229-.02,0-.12,0-.12-.1a5.058,5.058,0,0,1,.3-.967.871.871,0,0,1,.747-.568.9.9,0,0,1,.917.867,1.925,1.925,0,0,1,1.555-.867,1.018,1.018,0,0,1,1.145,1.066,8.967,8.967,0,0,1-.607,2.192,1.9,1.9,0,0,0-.18.708c0,.229.07.329.24.329.488,0,.816-.558,1.015-1.236.051-.149.051-.179.151-.179.029,0,.119,0,.119.1,0,.079-.369,1.534-1.306,1.534a.8.8,0,0,1-.816-.817,1.13,1.13,0,0,1,.1-.459,9.5,9.5,0,0,0,.648-2.321c0-.329-.09-.7-.538-.7a1.981,1.981,0,0,0-1.624,1.216c-.01.04-.09.329-.13.5-.05.23-.11.449-.169.668l-.22.9c-.059.249-.179.717-.189.737a.408.408,0,0,1-.369.279.267.267,0,0,1-.289-.269c0-.05.06-.279.09-.429Z" transform="translate(-0.289)"/>
    <path class="cls-1" d="M270.208,9.485c-.169,0-.349,0-.349-.2s.18-.2.349-.2h5.39c.169,0,.349,0,.349.2s-.18.2-.349.2Z" transform="translate(-0.289)"/>
    <path class="cls-1" d="M282.191,14.268a4.3,4.3,0,0,1-1.554-1.874,7.245,7.245,0,0,1-.658-3.109,7.236,7.236,0,0,1,.628-3.038A4.34,4.34,0,0,1,282.191,4.3a.09.09,0,0,1,.1.1c0,.03,0,.05-.129.169a6.518,6.518,0,0,0-1.6,4.713,6.6,6.6,0,0,0,1.565,4.664c.169.169.169.189.169.219A.091.091,0,0,1,282.191,14.268Z" transform="translate(-0.289)"/>
    <path class="cls-1" d="M290.73,11.049a.785.785,0,0,0-.05.239c0,.179.279.179.648.179.189,0,.279,0,.279.11,0,.2-.13.2-.19.2-.408,0-.836-.029-1.245-.029-.279,0-.957.029-1.235.029-.03,0-.15,0-.15-.119,0-.19.11-.19.279-.19.787,0,.808-.079.907-.468L291.4,5.29h-.011L287.362,11.6c-.05.07-.11.179-.219.179s-.13-.109-.149-.229l-.858-6.177h-.01l-1.354,5.43a.783.783,0,0,0-.04.229c0,.229.109.429.678.438.069,0,.178,0,.178.11,0,.2-.129.2-.178.2-.329,0-.688-.029-1.027-.029s-.677.029-1,.029c-.079,0-.138-.029-.138-.119,0-.179.128-.19.178-.19.808-.029.977-.348,1.076-.747l1.266-5.072a.86.86,0,0,0,.04-.189c0-.109-.059-.139-.22-.159-.119-.01-.3-.02-.427-.02-.2,0-.289,0-.289-.12,0-.189.109-.189.3-.189h1.366c.258,0,.278,0,.308.229l.778,5.64,3.636-5.68c.119-.189.129-.189.389-.189h1.315c.169,0,.269,0,.269.11,0,.2-.09.2-.318.2-.748,0-.768.1-.858.458Z" transform="translate(-0.289)"/>
    <path class="cls-1" d="M297.09,9.485c-.169,0-.348,0-.348-.2s.179-.2.348-.2h5.391c.169,0,.349,0,.349.2s-.18.2-.349.2Z" transform="translate(-0.289)"/>
    <g>
      <path class="cls-1" d="M308.8,10.989c0,.369.03.478.927.478h.318v.309c-.348-.029-1.215-.029-1.614-.029s-1.265,0-1.614.029v-.309h.319c.9,0,.927-.119.927-.478V5.828a2.986,2.986,0,0,1-1.306.259V5.778a2.461,2.461,0,0,0,1.814-.638c.229,0,.229.02.229.259Z" transform="translate(-0.289)"/>
      <path class="cls-1" d="M313.161,12.324a4.347,4.347,0,0,1-1.584,1.944.094.094,0,0,1-.1-.1c0-.03,0-.05.129-.169a6.539,6.539,0,0,0,1.6-4.714,6.467,6.467,0,0,0-1.544-4.653c-.189-.179-.189-.2-.189-.229a.094.094,0,0,1,.1-.1,4.3,4.3,0,0,1,1.553,1.874,7.261,7.261,0,0,1,.659,3.108A7.253,7.253,0,0,1,313.161,12.324Z" transform="translate(-0.289)"/>
    </g>
    <path class="cls-1" d="M316.334,14.268h-1.365v-.4h.967V4.7h-.967V4.3h1.365Z" transform="translate(-0.289)"/>
    <path class="cls-1" d="M263.664,37.447a3.318,3.318,0,1,1,3.328-3.318A3.324,3.324,0,0,1,263.664,37.447Zm-.18-3.318L261.4,32.047a3.133,3.133,0,0,0-.808,2.082,3.086,3.086,0,0,0,.808,2.082Zm.18.169-2.073,2.083a3.009,3.009,0,0,0,2.082.817,2.912,2.912,0,0,0,2.063-.817c0-.02-.069-.089-.09-.11Zm.009-.338,2.073-2.083a3.009,3.009,0,0,0-2.082-.817,2.912,2.912,0,0,0-2.063.817c0,.02.069.09.09.11Zm.18.169,2.082,2.082a3.131,3.131,0,0,0,.808-2.082,3.086,3.086,0,0,0-.818-2.082Z" transform="translate(-0.289)"/>
    <polyline points="255.271 36.34 259.806 34.072 255.271 31.805 256.404 34.072"/>
    <path class="cls-2" d="M249.465,34.072h7.229m6.944-10.63v7.087m0,7.087V44.7" transform="translate(-0.289)"/>
    <path class="cls-1" d="M234.649,19.058a.858.858,0,0,0-.04.21c0,.159.08.189.368.219.26.019.389.019.638.019s.339,0,.339.11c0,.2-.12.2-.219.2-.279,0-.578-.02-.867-.02-.269,0-.548-.009-.827-.009s-.568.009-.847.009-.548.02-.818.02c-.059,0-.168,0-.168-.119,0-.19.059-.19.417-.19,1.067,0,1.1-.109,1.187-.478l1.335-5.32a.981.981,0,0,0,.04-.21c0-.08,0-.119-.279-.119h-.389c-1.475,0-1.733.179-2.271,1.724-.06.159-.071.209-.17.209a.113.113,0,0,1-.12-.11,1.214,1.214,0,0,1,.06-.179l.6-1.754c.07-.189.08-.2.319-.2h5.53c.169,0,.269,0,.269.109a1.114,1.114,0,0,1-.02.17l-.269,1.734c-.02.149-.04.229-.15.229a.117.117,0,0,1-.119-.13,1.468,1.468,0,0,1,.03-.189,7.344,7.344,0,0,0,.08-.8c0-.778-.449-.817-1.455-.817a5.7,5.7,0,0,0-.628.019c-.12.031-.16.09-.229.369Z" transform="translate(-0.289)"/>
    <polygon class="cls-2" points="224.373 16.356 224.373 23.442 245.633 23.442 245.633 9.269 224.373 9.269 224.373 16.356"/>
    <polyline points="219.838 18.624 224.373 16.356 219.838 14.088 220.972 16.356"/>
    <line class="cls-2" x1="206.657" y1="16.356" x2="220.972" y2="16.356"/>
    <polyline points="343.853 61.143 348.388 58.875 343.853 56.608 344.987 58.875"/>
    <line class="cls-2" x1="305.869" y1="58.875" x2="344.987" y2="58.875"/>
    <polyline points="306.861 99.127 302.325 101.395 306.861 103.662 305.727 101.395"/>
    <path class="cls-2" d="M320.331,101.4H306.016m14.315,0V58.875" transform="translate(-0.289)"/>
    <path class="cls-1" d="M114.164,104.02a.856.856,0,0,0-.04.209c0,.159.08.189.369.218.258.021.388.021.637.021s.339,0,.339.109c0,.2-.119.2-.219.2-.279,0-.578-.019-.867-.019-.269,0-.548-.011-.827-.011s-.568.011-.847.011-.548.019-.817.019c-.06,0-.169,0-.169-.119,0-.189.059-.189.418-.189,1.066,0,1.1-.111,1.186-.479l1.335-5.321a.958.958,0,0,0,.04-.209c0-.079,0-.119-.279-.119h-.389c-1.474,0-1.734.179-2.271,1.723-.06.16-.07.209-.17.209a.112.112,0,0,1-.119-.109,1.348,1.348,0,0,1,.059-.18l.6-1.753c.07-.189.08-.2.319-.2h5.53c.169,0,.269,0,.269.111a1.116,1.116,0,0,1-.02.169l-.269,1.734c-.02.149-.04.228-.149.228a.116.116,0,0,1-.12-.128,1.429,1.429,0,0,1,.03-.19,7.359,7.359,0,0,0,.08-.8c0-.776-.449-.816-1.455-.816a5.713,5.713,0,0,0-.628.019c-.119.031-.159.09-.229.37Z" transform="translate(-0.289)"/>
    <polygon class="cls-2" points="103.901 101.395 103.901 108.481 125.161 108.481 125.161 94.308 103.901 94.308 103.901 101.395"/>
    <path class="cls-1" d="M86.538,87a3.318,3.318,0,1,1,3.328-3.318A3.322,3.322,0,0,1,86.538,87Zm-.18-3.318L84.276,81.6a3.135,3.135,0,0,0-.807,2.082,3.1,3.1,0,0,0,.807,2.083Zm.18.17-2.073,2.082a3.009,3.009,0,0,0,2.083.817,2.911,2.911,0,0,0,2.062-.817c0-.02-.069-.09-.089-.11Zm.01-.339,2.073-2.083a3.011,3.011,0,0,0-2.083-.817,2.908,2.908,0,0,0-2.062.817c0,.02.069.089.089.11Zm.179.169,2.083,2.083a3.14,3.14,0,0,0,.807-2.083A3.088,3.088,0,0,0,88.8,81.6Z" transform="translate(-0.289)"/>
    <polyline points="94.264 81.411 89.728 83.678 94.264 85.946 93.13 83.678"/>
    <line class="cls-2" x1="93.13" y1="83.678" x2="100.358" y2="83.678"/>
    <path class="cls-1" d="M107.448,76.923a.261.261,0,0,1,.288.269,1.429,1.429,0,0,1-.069.339l-.359,1.395c-.09.379-.11.478-.219.9a2.534,2.534,0,0,0-.13.738c0,.2.03.459.3.459.409,0,.588-.588.758-1.236.029-.139.039-.179.139-.179.03,0,.119,0,.119.1a5.135,5.135,0,0,1-.3.986.831.831,0,0,1-.738.548.9.9,0,0,1-.906-.747,1.681,1.681,0,0,1-1.3.747,1.416,1.416,0,0,1-1.325-1.593c0-1.456,1.236-2.92,2.4-2.92a1,1,0,0,1,.917.637A.462.462,0,0,1,107.448,76.923Zm-.569,1.066a.781.781,0,0,0,.031-.169c0-.06-.14-.877-.787-.877a1.538,1.538,0,0,0-1.157.956,7.334,7.334,0,0,0-.548,2.183c0,.389.14.937.638.937a1.544,1.544,0,0,0,1.126-.708.64.64,0,0,0,.2-.369Z" transform="translate(-0.289)"/>
    <path class="cls-1" d="M113.44,82.435c-.035.126-.035.146-.146.146-.07,0-.1-.007-.154-.118l-2.036-4.17-.893,3.57a.649.649,0,0,0-.027.174c0,.1,0,.279.439.293.077,0,.16.007.16.105a.129.129,0,0,1-.139.146c-.167,0-.572-.028-.739-.028-.238,0-.5.028-.725.028a.1.1,0,0,1-.105-.1.129.129,0,0,1,.146-.147c.544-.02.663-.23.726-.5l.934-3.731a2.4,2.4,0,0,0-.446-.035c-.147,0-.23,0-.23-.1,0-.154.09-.154.223-.154h.955c.167,0,.181,0,.237.119l1.772,3.626.759-3.041a.547.547,0,0,0,.028-.167c0-.174-.118-.279-.446-.286-.063,0-.153-.006-.153-.1,0-.154.1-.154.139-.154.167,0,.572.029.739.029.237,0,.5-.029.726-.029a.1.1,0,0,1,.1.1c0,.147-.1.153-.14.153-.557.014-.669.244-.738.509Z" transform="translate(-0.289)"/>
    <path class="cls-1" d="M116.7,81.005c-.119,0-.279,0-.279-.174s.167-.168.279-.168h4.156c.119,0,.279,0,.279.175s-.167.167-.279.167Z" transform="translate(-0.289)"/>
    <path class="cls-1" d="M124.25,82.009c0,.23,0,.321.7.321h.265v.251c-.153-.007-1.032-.028-1.248-.028-.258,0-1.115.021-1.241.028V82.33h.265c.7,0,.7-.091.7-.321V78.453a2.3,2.3,0,0,1-1.011.195V78.4a1.9,1.9,0,0,0,1.367-.446c.2,0,.209.007.209.2Z" transform="translate(-0.289)"/>
    <polyline points="88.453 70.497 86.185 65.962 83.917 70.497 86.185 69.363"/>
    <line class="cls-2" x1="86.185" y1="69.363" x2="86.185" y2="80.135"/>
    <polyline points="88.453 91.757 86.185 87.222 83.917 91.757 86.185 90.623"/>
    <path class="cls-2" d="M86.474,90.623V101.4m17.716,0H86.474" transform="translate(-0.289)"/>
    <polyline points="129.697 99.127 125.161 101.395 129.697 103.662 128.563 101.395"/>
    <line class="cls-2" x1="142.878" y1="101.395" x2="128.563" y2="101.395"/>
    <line class="cls-4" x1="149.964" y1="101.395" x2="174.767" y2="101.395"/>
    <path class="cls-1" d="M231.165,104.02a.856.856,0,0,0-.04.209c0,.159.08.189.368.218.259.021.388.021.637.021s.339,0,.339.109c0,.2-.119.2-.219.2-.279,0-.578-.019-.867-.019-.268,0-.548-.011-.827-.011s-.567.011-.847.011-.547.019-.817.019c-.059,0-.169,0-.169-.119,0-.189.06-.189.418-.189,1.067,0,1.1-.111,1.187-.479l1.335-5.321a1.021,1.021,0,0,0,.04-.209c0-.079,0-.119-.28-.119h-.388c-1.475,0-1.734.179-2.272,1.723-.059.16-.07.209-.17.209a.112.112,0,0,1-.119-.109,1.356,1.356,0,0,1,.06-.18l.6-1.753c.071-.189.08-.2.32-.2h5.53c.169,0,.269,0,.269.111a1.116,1.116,0,0,1-.02.169l-.27,1.734c-.019.149-.04.228-.149.228a.115.115,0,0,1-.119-.128,1.419,1.419,0,0,1,.029-.19,7.359,7.359,0,0,0,.08-.8c0-.776-.448-.816-1.455-.816a5.713,5.713,0,0,0-.628.019c-.119.031-.159.09-.228.37Z" transform="translate(-0.289)"/>
    <polygon class="cls-2" points="220.83 101.395 220.83 108.481 242.09 108.481 242.09 94.308 220.83 94.308 220.83 101.395"/>
    <path class="cls-1" d="M203.421,87a3.318,3.318,0,1,1,3.329-3.318A3.323,3.323,0,0,1,203.421,87Zm-.179-3.318L201.16,81.6a3.131,3.131,0,0,0-.808,2.082,3.092,3.092,0,0,0,.808,2.083Zm.179.17-2.072,2.082a3.009,3.009,0,0,0,2.082.817,2.912,2.912,0,0,0,2.063-.817c0-.02-.07-.09-.09-.11Zm.01-.339,2.072-2.083a3.006,3.006,0,0,0-2.082-.817,2.911,2.911,0,0,0-2.062.817c0,.02.069.089.09.11Zm.18.169,2.082,2.083a3.14,3.14,0,0,0,.807-2.083,3.083,3.083,0,0,0-.817-2.082Z" transform="translate(-0.289)"/>
    <polyline points="211.192 81.411 206.657 83.678 211.192 85.946 210.058 83.678"/>
    <line class="cls-2" x1="210.058" y1="83.678" x2="217.287" y2="83.678"/>
    <path class="cls-1" d="M223.971,77.415a.262.262,0,0,1,.289.27,1.428,1.428,0,0,1-.069.338l-.359,1.4c-.089.379-.11.478-.219.9a2.534,2.534,0,0,0-.13.738c0,.2.03.459.3.459.409,0,.588-.588.758-1.236.029-.139.04-.179.139-.179.029,0,.119,0,.119.1a5.158,5.158,0,0,1-.3.987.831.831,0,0,1-.738.547.9.9,0,0,1-.906-.747,1.683,1.683,0,0,1-1.3.747,1.416,1.416,0,0,1-1.325-1.593c0-1.455,1.235-2.92,2.4-2.92a1,1,0,0,1,.917.638A.462.462,0,0,1,223.971,77.415Zm-.567,1.066a.84.84,0,0,0,.029-.168c0-.061-.14-.877-.787-.877a1.534,1.534,0,0,0-1.155.956,7.3,7.3,0,0,0-.548,2.182c0,.389.139.937.638.937a1.541,1.541,0,0,0,1.125-.708.649.649,0,0,0,.2-.368Z" transform="translate(-0.289)"/>
    <path class="cls-1" d="M228.43,83.058h-2.873c0-.2,0-.209.069-.272l1.681-1.66a2.114,2.114,0,0,0,.655-1.339,1.043,1.043,0,0,0-1.059-1.108,1.1,1.1,0,0,0-1.019.648c.364,0,.412.244.412.369a.37.37,0,1,1-.739-.02,1.352,1.352,0,0,1,1.45-1.248,1.459,1.459,0,0,1,1.632,1.359,2.017,2.017,0,0,1-1,1.506c-.419.328-.662.523-1.394,1.172h1.283a3.589,3.589,0,0,0,.69-.042,1.63,1.63,0,0,0,.181-.635h.237Z" transform="translate(-0.289)"/>
    <polyline points="205.381 70.497 203.113 65.962 200.846 70.497 203.113 69.363"/>
    <line class="cls-2" x1="203.113" y1="69.363" x2="203.113" y2="80.135"/>
    <polyline points="205.381 91.757 203.113 87.222 200.846 91.757 203.113 90.623"/>
    <line class="cls-2" x1="203.113" y1="90.623" x2="203.113" y2="101.395"/>
    <polyline points="186.389 99.127 181.854 101.395 186.389 103.662 185.255 101.395"/>
    <line class="cls-2" x1="220.83" y1="101.395" x2="185.255" y2="101.395"/>
    <path class="cls-1" d="M250.605,111.028a2.628,2.628,0,0,1-2.331,2.034.944.944,0,0,1-1.057-.868.574.574,0,0,1,.559-.647.34.34,0,0,1,.368.349.541.541,0,0,1-.2.408.569.569,0,0,1-.429.12.8.8,0,0,0,.758.418,1.427,1.427,0,0,0,1.1-.628,3.817,3.817,0,0,0,.647-1.534,1.4,1.4,0,0,1-1.006.448,1.111,1.111,0,0,1-1.216-1.186,6.579,6.579,0,0,1,.579-2.092,2.129,2.129,0,0,0,.168-.7c0-.318-.168-.318-.249-.318-.338,0-.737.3-1,1.235-.05.16-.061.18-.161.18-.019,0-.119,0-.119-.1s.368-1.535,1.316-1.535a.79.79,0,0,1,.816.818,1.789,1.789,0,0,1-.2.717,5.934,5.934,0,0,0-.508,1.953c0,.369.109.807.618.807a1.383,1.383,0,0,0,1.125-.847l.449-1.793c.06-.27.129-.539.2-.8.039-.18.119-.489.139-.538a.432.432,0,0,1,.349-.21.266.266,0,0,1,.289.269.629.629,0,0,1-.04.23Z" transform="translate(-0.289)"/>
    <path class="cls-1" d="M253.168,113.51v-9.964h1.366v.4h-.967v9.167h.967v.4Z" transform="translate(-0.289)"/>
    <path class="cls-1" d="M256.206,108.129a3.273,3.273,0,0,0,.159-.837c0-.329-.11-.458-.309-.458-.359,0-.558.478-.727,1.186-.06.218-.071.229-.17.229-.02,0-.119,0-.119-.1a5.007,5.007,0,0,1,.3-.966.87.87,0,0,1,.747-.569.9.9,0,0,1,.917.867,1.926,1.926,0,0,1,1.555-.867,1.019,1.019,0,0,1,1.146,1.067,8.982,8.982,0,0,1-.608,2.192,1.892,1.892,0,0,0-.179.707c0,.23.069.329.239.329.488,0,.816-.558,1.015-1.235.051-.15.051-.18.151-.18.029,0,.119,0,.119.1,0,.08-.369,1.534-1.306,1.534a.8.8,0,0,1-.816-.816,1.142,1.142,0,0,1,.1-.459,9.462,9.462,0,0,0,.648-2.322c0-.329-.09-.7-.538-.7a1.982,1.982,0,0,0-1.624,1.215c-.01.04-.09.329-.13.5-.05.228-.109.448-.169.667l-.22.9c-.059.249-.178.717-.189.738a.406.406,0,0,1-.368.278.266.266,0,0,1-.289-.269c0-.049.059-.279.089-.428Z" transform="translate(-0.289)"/>
    <path class="cls-1" d="M264.09,108.727c-.169,0-.348,0-.348-.2s.179-.2.348-.2h5.391c.169,0,.349,0,.349.2s-.18.2-.349.2Z" transform="translate(-0.289)"/>
    <g>
      <path class="cls-1" d="M275.805,110.231c0,.369.029.479.927.479h.318v.309c-.348-.031-1.216-.031-1.614-.031s-1.266,0-1.614.031v-.309h.319c.9,0,.927-.12.927-.479V105.07a2.99,2.99,0,0,1-1.306.259v-.308a2.461,2.461,0,0,0,1.814-.638c.229,0,.229.019.229.259Z" transform="translate(-0.289)"/>
      <path class="cls-1" d="M279.5,113.51h-1.365v-.4h.967v-9.167h-.967v-.4H279.5Z" transform="translate(-0.289)"/>
    </g>
    <path class="cls-1" d="M190.355,111.028a2.628,2.628,0,0,1-2.331,2.034.944.944,0,0,1-1.057-.868.574.574,0,0,1,.559-.647.34.34,0,0,1,.368.349.541.541,0,0,1-.2.408.569.569,0,0,1-.429.12.8.8,0,0,0,.758.418,1.427,1.427,0,0,0,1.1-.628,3.817,3.817,0,0,0,.647-1.534,1.4,1.4,0,0,1-1.006.448,1.111,1.111,0,0,1-1.216-1.186,6.579,6.579,0,0,1,.579-2.092,2.129,2.129,0,0,0,.168-.7c0-.318-.168-.318-.249-.318-.338,0-.737.3-1,1.235-.05.16-.061.18-.161.18-.02,0-.119,0-.119-.1s.368-1.535,1.316-1.535a.79.79,0,0,1,.816.818,1.789,1.789,0,0,1-.2.717,5.934,5.934,0,0,0-.508,1.953c0,.369.109.807.618.807a1.383,1.383,0,0,0,1.125-.847l.449-1.793c.06-.27.129-.539.2-.8.039-.18.119-.489.139-.538a.432.432,0,0,1,.349-.21.266.266,0,0,1,.289.269.629.629,0,0,1-.04.23Z" transform="translate(-0.289)"/>
    <path class="cls-1" d="M192.926,113.51v-9.964h1.366v.4h-.967v9.167h.967v.4Z" transform="translate(-0.289)"/>
    <path class="cls-1" d="M195.963,108.129a3.246,3.246,0,0,0,.16-.837c0-.329-.11-.458-.309-.458-.359,0-.559.478-.728,1.186-.059.218-.07.229-.169.229-.02,0-.12,0-.12-.1a5.035,5.035,0,0,1,.3-.966.87.87,0,0,1,.747-.569.9.9,0,0,1,.917.867,1.925,1.925,0,0,1,1.555-.867,1.018,1.018,0,0,1,1.145,1.067,8.979,8.979,0,0,1-.607,2.192,1.893,1.893,0,0,0-.18.707c0,.23.07.329.24.329.488,0,.816-.558,1.015-1.235.051-.15.051-.18.151-.18.029,0,.119,0,.119.1,0,.08-.369,1.534-1.306,1.534a.8.8,0,0,1-.816-.816,1.124,1.124,0,0,1,.1-.459,9.506,9.506,0,0,0,.648-2.322c0-.329-.09-.7-.538-.7a1.98,1.98,0,0,0-1.624,1.215c-.01.04-.09.329-.13.5-.05.228-.11.448-.169.667l-.22.9c-.059.249-.179.717-.189.738a.407.407,0,0,1-.369.278.267.267,0,0,1-.289-.269c0-.049.06-.279.09-.428Z" transform="translate(-0.289)"/>
    <path class="cls-1" d="M203.84,108.727c-.169,0-.348,0-.348-.2s.179-.2.348-.2h5.391c.169,0,.349,0,.349.2s-.18.2-.349.2Z" transform="translate(-0.289)"/>
    <g>
      <path class="cls-1" d="M215.684,110.251a3.276,3.276,0,0,0,.947-.079,3.279,3.279,0,0,0,.219-.887h.249l-.278,1.734h-3.7c0-.24,0-.259.109-.37l1.913-2.131a3.571,3.571,0,0,0,1.047-2.2c0-.817-.429-1.624-1.335-1.624a1.44,1.44,0,0,0-1.346,1.017.381.381,0,0,1,.13-.01.5.5,0,0,1,.527.518.523.523,0,1,1-1.045-.03,1.84,1.84,0,0,1,1.863-1.8,1.957,1.957,0,0,1,2.112,1.932c0,1-.6,1.535-2.152,2.91l-1.056,1.026Z" transform="translate(-0.289)"/>
      <path class="cls-1" d="M219.25,113.51h-1.365v-.4h.967v-9.167h-.967v-.4h1.365Z" transform="translate(-0.289)"/>
    </g>
    <path class="cls-1" d="M41.19,111.028a2.628,2.628,0,0,1-2.331,2.034.943.943,0,0,1-1.056-.868.574.574,0,0,1,.558-.647.34.34,0,0,1,.368.349.538.538,0,0,1-.2.408.567.567,0,0,1-.428.12.8.8,0,0,0,.757.418,1.427,1.427,0,0,0,1.1-.628,3.82,3.82,0,0,0,.648-1.534,1.408,1.408,0,0,1-1.007.448,1.111,1.111,0,0,1-1.215-1.186,6.586,6.586,0,0,1,.577-2.092,2.1,2.1,0,0,0,.17-.7c0-.318-.17-.318-.249-.318-.339,0-.737.3-1.006,1.235-.05.16-.06.18-.16.18-.02,0-.119,0-.119-.1s.368-1.535,1.315-1.535a.791.791,0,0,1,.817.818,1.806,1.806,0,0,1-.2.717,5.934,5.934,0,0,0-.508,1.953c0,.369.109.807.617.807a1.385,1.385,0,0,0,1.126-.847l.448-1.793c.061-.27.13-.539.2-.8.04-.18.119-.489.139-.538a.433.433,0,0,1,.349-.21.266.266,0,0,1,.289.269.629.629,0,0,1-.04.23Z" transform="translate(-0.289)"/>
    <path class="cls-1" d="M43.762,113.51v-9.964h1.365v.4H44.16v9.167h.967v.4Z" transform="translate(-0.289)"/>
    <path class="cls-1" d="M46.8,108.129a3.2,3.2,0,0,0,.16-.837c0-.329-.11-.458-.309-.458-.358,0-.558.478-.727,1.186-.06.218-.07.229-.17.229-.02,0-.119,0-.119-.1a4.96,4.96,0,0,1,.3-.966.869.869,0,0,1,.747-.569.9.9,0,0,1,.917.867,1.924,1.924,0,0,1,1.554-.867,1.019,1.019,0,0,1,1.146,1.067,8.982,8.982,0,0,1-.608,2.192,1.892,1.892,0,0,0-.179.707c0,.23.07.329.239.329.488,0,.817-.558,1.016-1.235.05-.15.05-.18.15-.18.029,0,.119,0,.119.1,0,.08-.368,1.534-1.3,1.534a.8.8,0,0,1-.817-.816,1.13,1.13,0,0,1,.1-.459,9.507,9.507,0,0,0,.647-2.322c0-.329-.09-.7-.538-.7a1.982,1.982,0,0,0-1.624,1.215c-.01.04-.09.329-.13.5-.05.228-.109.448-.169.667l-.219.9c-.06.249-.18.717-.189.738a.407.407,0,0,1-.369.278.267.267,0,0,1-.289-.269c0-.049.06-.279.09-.428Z" transform="translate(-0.289)"/>
    <path class="cls-1" d="M54.676,108.727c-.17,0-.349,0-.349-.2s.179-.2.349-.2h5.39c.17,0,.349,0,.349.2s-.179.2-.349.2Z" transform="translate(-0.289)"/>
    <path class="cls-1" d="M66.659,113.51a4.31,4.31,0,0,1-1.554-1.873,7.673,7.673,0,0,1-.03-6.149,4.342,4.342,0,0,1,1.584-1.942.089.089,0,0,1,.1.1c0,.029,0,.049-.13.168a6.523,6.523,0,0,0-1.6,4.713,6.6,6.6,0,0,0,1.565,4.663c.169.17.169.19.169.22A.09.09,0,0,1,66.659,113.51Z" transform="translate(-0.289)"/>
    <path class="cls-1" d="M73.442,110.81c-.049.178-.049.209-.159.209-.09,0-.119-.02-.189-.19l-2.481-5.869a1.449,1.449,0,0,0-.09-.179l-1.315,5.261a.777.777,0,0,0-.04.229c0,.2.08.418.658.439.109,0,.2.01.2.109,0,.2-.129.2-.179.2-.329,0-.688-.031-1.027-.031s-.677.031-1,.031c-.08,0-.13-.04-.13-.11,0-.189.11-.2.17-.2.807-.03.976-.349,1.076-.748l1.335-5.351c0-.089-.628-.089-.678-.089-.189,0-.279,0-.279-.11,0-.2.09-.2.289-.2h1.335c.23,0,.24.01.319.189l2.2,5.2,1.117-4.434a1.682,1.682,0,0,0,.029-.21c0-.219-.109-.428-.677-.438-.08,0-.18,0-.18-.11,0-.2.12-.2.18-.2.329,0,.677.03,1.016.03s.678-.03,1.007-.03c.129,0,.129.1.129.11,0,.189-.12.2-.169.2-.8.03-.977.338-1.077.738Z" transform="translate(-0.289)"/>
    <path class="cls-1" d="M79.871,108.727c-.169,0-.349,0-.349-.2s.18-.2.349-.2h5.391c.169,0,.348,0,.348.2s-.179.2-.348.2Z" transform="translate(-0.289)"/>
    <g>
      <path class="cls-1" d="M91.585,110.231c0,.369.031.479.927.479h.319v.309c-.349-.031-1.215-.031-1.614-.031s-1.265,0-1.614.031v-.309h.319c.9,0,.926-.12.926-.479V105.07a2.984,2.984,0,0,1-1.3.259v-.308a2.459,2.459,0,0,0,1.813-.638c.229,0,.229.019.229.259Z" transform="translate(-0.289)"/>
      <path class="cls-1" d="M95.949,111.566a4.347,4.347,0,0,1-1.584,1.944.094.094,0,0,1-.1-.1c0-.03,0-.05.13-.17a6.535,6.535,0,0,0,1.6-4.713,6.466,6.466,0,0,0-1.544-4.653c-.19-.179-.19-.2-.19-.228a.094.094,0,0,1,.1-.1,4.3,4.3,0,0,1,1.554,1.873,7.668,7.668,0,0,1,.03,6.147Z" transform="translate(-0.289)"/>
    </g>
    <path class="cls-1" d="M99.124,113.51H97.758v-.4h.967v-9.167h-.967v-.4h1.366Z" transform="translate(-0.289)"/>
    <polygon class="cls-5" points="29.492 58.875 29.492 0.425 335.973 0.425 335.973 117.325 29.492 117.325 29.492 58.875"/>
    <path class="cls-1" d="M291.29,104.02a.856.856,0,0,0-.04.209c0,.159.08.189.368.218.259.021.388.021.637.021s.339,0,.339.109c0,.2-.119.2-.219.2-.279,0-.578-.019-.867-.019-.268,0-.548-.011-.827-.011s-.567.011-.847.011-.547.019-.817.019c-.059,0-.169,0-.169-.119,0-.189.06-.189.418-.189,1.067,0,1.1-.111,1.187-.479l1.335-5.321a1.021,1.021,0,0,0,.04-.209c0-.079,0-.119-.28-.119h-.388c-1.475,0-1.734.179-2.272,1.723-.059.16-.07.209-.17.209a.112.112,0,0,1-.119-.109,1.356,1.356,0,0,1,.06-.18l.6-1.753c.071-.189.08-.2.32-.2h5.53c.169,0,.269,0,.269.111a1.116,1.116,0,0,1-.02.169l-.27,1.734c-.019.149-.04.228-.149.228a.115.115,0,0,1-.119-.128,1.419,1.419,0,0,1,.029-.19,7.359,7.359,0,0,0,.08-.8c0-.776-.448-.816-1.455-.816a5.713,5.713,0,0,0-.628.019c-.119.031-.159.09-.228.37Z" transform="translate(-0.289)"/>
    <polygon class="cls-2" points="281.066 101.395 281.066 108.481 302.325 108.481 302.325 94.308 281.066 94.308 281.066 101.395"/>
    <path class="cls-1" d="M263.664,87a3.318,3.318,0,1,1,3.328-3.318A3.323,3.323,0,0,1,263.664,87Zm-.18-3.318L261.4,81.6a3.131,3.131,0,0,0-.808,2.082,3.092,3.092,0,0,0,.808,2.083Zm.18.17-2.073,2.082a3.009,3.009,0,0,0,2.082.817,2.912,2.912,0,0,0,2.063-.817c0-.02-.069-.09-.09-.11Zm.009-.339,2.073-2.083a3.009,3.009,0,0,0-2.082-.817,2.912,2.912,0,0,0-2.063.817c0,.02.069.089.09.11Zm.18.169,2.082,2.083a3.136,3.136,0,0,0,.808-2.083,3.084,3.084,0,0,0-.818-2.082Z" transform="translate(-0.289)"/>
    <polyline points="271.428 81.411 266.893 83.678 271.428 85.946 270.294 83.678"/>
    <line class="cls-2" x1="270.294" y1="83.678" x2="277.523" y2="83.678"/>
    <path class="cls-1" d="M284.213,77.415a.262.262,0,0,1,.289.27,1.428,1.428,0,0,1-.069.338l-.359,1.4c-.089.379-.11.478-.219.9a2.57,2.57,0,0,0-.13.738c0,.2.03.459.3.459.409,0,.588-.588.758-1.236.029-.139.04-.179.139-.179.03,0,.12,0,.12.1a5.111,5.111,0,0,1-.3.987.83.83,0,0,1-.738.547.9.9,0,0,1-.906-.747,1.681,1.681,0,0,1-1.3.747,1.416,1.416,0,0,1-1.325-1.593c0-1.455,1.235-2.92,2.4-2.92a1,1,0,0,1,.917.638A.462.462,0,0,1,284.213,77.415Zm-.567,1.066a.84.84,0,0,0,.029-.168c0-.061-.139-.877-.787-.877a1.535,1.535,0,0,0-1.155.956,7.3,7.3,0,0,0-.548,2.182c0,.389.139.937.638.937a1.541,1.541,0,0,0,1.125-.708.649.649,0,0,0,.2-.368Z" transform="translate(-0.289)"/>
    <path class="cls-1" d="M287.688,82.485c0,.231,0,.322.7.322h.266v.251c-.154-.007-1.032-.029-1.249-.029-.258,0-1.115.022-1.241.029v-.251h.265c.7,0,.7-.091.7-.322V78.93a2.3,2.3,0,0,1-1.012.195v-.251a1.909,1.909,0,0,0,1.367-.446c.195,0,.209.007.209.2Z" transform="translate(-0.289)"/>
    <polyline points="265.617 70.497 263.349 65.962 261.082 70.497 263.349 69.363"/>
    <line class="cls-2" x1="263.349" y1="69.363" x2="263.349" y2="80.135"/>
    <polyline points="265.617 91.757 263.349 87.222 261.082 91.757 263.349 90.623"/>
    <line class="cls-2" x1="263.349" y1="90.623" x2="263.349" y2="101.395"/>
    <polyline points="246.625 99.127 242.09 101.395 246.625 103.662 245.491 101.395"/>
    <line class="cls-2" x1="281.066" y1="101.395" x2="245.491" y2="101.395"/>
  </g>
</svg>
