<svg id="Layer_1" data-name="Layer 1" xmlns="http://www.w3.org/2000/svg" viewBox="0 0 350.353 303.327">
  <defs>
    <style>
      .cls-1, .cls-2, .cls-6 {
        fill: none;
        stroke-linejoin: round;
      }

      .cls-1 {
        stroke: #dfdfdf;
      }

      .cls-1, .cls-2 {
        stroke-width: 0.5px;
      }

      .cls-2 {
        stroke: #262626;
        stroke-linecap: square;
      }

      .cls-3 {
        fill: #4a4a49;
      }

      .cls-4 {
        fill: #262626;
      }

      .cls-5 {
        fill: #1d1d1b;
      }

      .cls-6 {
        stroke: #000;
        stroke-width: 4px;
      }
    </style>
  </defs>
  <title>Phaseexample21</title>
  <g>
    <path class="cls-1" d="M22.2,270.91V14.11m122.175,256.8V14.11M185.1,270.91V14.11m40.725,256.8V14.11M348,270.91V14.11m0,256.8H22.2M348,206.71H22.2M348,142.51H22.2M348,78.31H22.2M348,14.11H22.2" transform="translate(-0.439 -1.542)"/>
    <path class="cls-2" d="M22.2,270.91H348M22.2,14.11H348M22.2,270.91v-3.258m122.175,3.258v-3.258M185.1,270.91v-3.258m40.725,3.258v-3.258M348,270.91v-3.258M22.2,14.11v3.258M144.374,14.11v3.258M185.1,14.11v3.258m40.725-3.258v3.258M348,14.11v3.258" transform="translate(-0.439 -1.542)"/>
    <path class="cls-3" d="M17.838,282.094h2.451v.9H17.838Z" transform="translate(-0.439 -1.542)"/>
    <path class="cls-4" d="M22.03,285.132a.6.6,0,0,1,.037-.16q.291-.589.535-1.162t.44-1.111q.2-.539.366-1.158h-.656a1.171,1.171,0,0,0-.7.234,1.986,1.986,0,0,0-.539.6.058.058,0,0,1-.056.038h-.122c-.062,0-.094-.034-.094-.1a.157.157,0,0,1,.019-.056,4.9,4.9,0,0,1,.717-.957,1.181,1.181,0,0,1,.858-.384h3.7a.254.254,0,0,1,.178.07.251.251,0,0,1,.075.192.361.361,0,0,1-.107.254.345.345,0,0,1-.258.112h-1.3a9.228,9.228,0,0,0-.179,1.566,4.357,4.357,0,0,0,.347,1.772.325.325,0,0,1,.028.131.336.336,0,0,1-.065.2.577.577,0,0,1-.164.155.417.417,0,0,1-.221.061c-.174,0-.3-.146-.365-.436a3.673,3.673,0,0,1-.1-.849,5.989,5.989,0,0,1,.1-1.13q.1-.538.319-1.467H23.717q-.814,3.273-.975,3.6a.438.438,0,0,1-.4.282.322.322,0,0,1-.215-.08.262.262,0,0,1-.094-.211Z" transform="translate(-0.439 -1.542)"/>
    <path class="cls-3" d="M136.041,282.094h2.451v.9h-2.451Z" transform="translate(-0.439 -1.542)"/>
    <path class="cls-4" d="M140.23,285.132a.6.6,0,0,1,.037-.16q.291-.589.535-1.162t.44-1.111q.2-.539.366-1.158h-.656a1.171,1.171,0,0,0-.7.234,1.986,1.986,0,0,0-.539.6.058.058,0,0,1-.056.038h-.122c-.062,0-.094-.034-.094-.1a.157.157,0,0,1,.019-.056,4.9,4.9,0,0,1,.717-.957,1.181,1.181,0,0,1,.858-.384h3.7a.254.254,0,0,1,.178.07.251.251,0,0,1,.075.192.361.361,0,0,1-.107.254.345.345,0,0,1-.258.112h-1.3a9.228,9.228,0,0,0-.179,1.566,4.357,4.357,0,0,0,.347,1.772.325.325,0,0,1,.028.131.336.336,0,0,1-.065.2.577.577,0,0,1-.164.155.417.417,0,0,1-.221.061c-.174,0-.3-.146-.365-.436a3.673,3.673,0,0,1-.1-.849,5.989,5.989,0,0,1,.1-1.13q.1-.538.319-1.467h-1.107q-.815,3.273-.975,3.6a.438.438,0,0,1-.4.282.322.322,0,0,1-.215-.08.262.262,0,0,1-.094-.211Z" transform="translate(-0.439 -1.542)"/>
    <g>
      <path class="cls-3" d="M148.147,277.948l-2.443,7.559h-.667l2.443-7.559Z" transform="translate(-0.439 -1.542)"/>
      <path class="cls-3" d="M148.23,283.627v-.82l3.252-4.527h.733v4.6h1v.752h-1v1.685h-.884v-1.685Zm3.1-.752v-3.2l-2.241,3.136-.049.068Z" transform="translate(-0.439 -1.542)"/>
    </g>
    <path class="cls-3" d="M183.1,284.361a6,6,0,0,1,0-5.344,2.161,2.161,0,0,1,3.566,0,6.024,6.024,0,0,1,0,5.344,2.164,2.164,0,0,1-3.566,0Zm2.892-.556a6.3,6.3,0,0,0,0-4.232,1.224,1.224,0,0,0-2.217,0,6.22,6.22,0,0,0,0,4.232,1.225,1.225,0,0,0,2.217,0Z" transform="translate(-0.439 -1.542)"/>
    <path class="cls-4" d="M219.43,285.132a.6.6,0,0,1,.037-.16q.291-.589.535-1.162t.44-1.111q.2-.539.366-1.158h-.656a1.171,1.171,0,0,0-.7.234,1.986,1.986,0,0,0-.539.6.058.058,0,0,1-.056.038h-.122c-.062,0-.094-.034-.094-.1a.157.157,0,0,1,.019-.056,4.9,4.9,0,0,1,.717-.957,1.181,1.181,0,0,1,.858-.384h3.7a.254.254,0,0,1,.178.07.251.251,0,0,1,.075.192.361.361,0,0,1-.107.254.345.345,0,0,1-.258.112h-1.3a9.228,9.228,0,0,0-.179,1.566,4.357,4.357,0,0,0,.347,1.772.325.325,0,0,1,.028.131.336.336,0,0,1-.065.2.577.577,0,0,1-.164.155.417.417,0,0,1-.221.061c-.174,0-.3-.146-.365-.436a3.673,3.673,0,0,1-.1-.849,5.989,5.989,0,0,1,.1-1.13q.1-.538.319-1.467h-1.107q-.814,3.273-.975,3.6a.438.438,0,0,1-.4.282.322.322,0,0,1-.215-.08.262.262,0,0,1-.094-.211Z" transform="translate(-0.439 -1.542)"/>
    <g>
      <path class="cls-3" d="M227.343,277.948l-2.444,7.559h-.667l2.444-7.559Z" transform="translate(-0.439 -1.542)"/>
      <path class="cls-3" d="M227.426,283.627v-.82l3.252-4.527h.732v4.6h1v.752h-1v1.685h-.884v-1.685Zm3.1-.752v-3.2l-2.241,3.136-.049.068Z" transform="translate(-0.439 -1.542)"/>
    </g>
    <path class="cls-4" d="M346.03,285.132a.6.6,0,0,1,.037-.16q.291-.589.535-1.162t.44-1.111q.2-.539.366-1.158h-.656a1.171,1.171,0,0,0-.7.234,1.986,1.986,0,0,0-.539.6.058.058,0,0,1-.056.038h-.122c-.062,0-.094-.034-.094-.1a.157.157,0,0,1,.019-.056,4.9,4.9,0,0,1,.717-.957,1.181,1.181,0,0,1,.858-.384h3.7a.254.254,0,0,1,.178.07.251.251,0,0,1,.075.192.361.361,0,0,1-.107.254.345.345,0,0,1-.258.112h-1.3a9.228,9.228,0,0,0-.179,1.566,4.357,4.357,0,0,0,.347,1.772.325.325,0,0,1,.028.131.336.336,0,0,1-.065.2.577.577,0,0,1-.164.155.417.417,0,0,1-.221.061c-.174,0-.3-.146-.365-.436a3.673,3.673,0,0,1-.1-.849,5.989,5.989,0,0,1,.1-1.13q.1-.538.319-1.467h-1.107q-.815,3.273-.975,3.6a.438.438,0,0,1-.4.282.322.322,0,0,1-.215-.08.262.262,0,0,1-.094-.211Z" transform="translate(-0.439 -1.542)"/>
    <path class="cls-4" d="M154.414,300.225a.183.183,0,0,1-.15-.07.216.216,0,0,1,0-.29.183.183,0,0,1,.15-.07h8.194a4,4,0,0,1-.731-.685,3.922,3.922,0,0,1-.53-.83,3.606,3.606,0,0,1-.3-.951c0-.094.037-.141.112-.141h.216a.082.082,0,0,1,.065.033.167.167,0,0,1,.038.07,3.682,3.682,0,0,0,.286.858,3.633,3.633,0,0,0,.478.741,3.2,3.2,0,0,0,.647.59,3.443,3.443,0,0,0,.811.408.14.14,0,0,1,.075.122.094.094,0,0,1-.075.1,3.318,3.318,0,0,0-1.031.586,3.376,3.376,0,0,0-.774.914,3.522,3.522,0,0,0-.417,1.116.148.148,0,0,1-.042.07.091.091,0,0,1-.061.033h-.216c-.075,0-.112-.047-.112-.141a3.833,3.833,0,0,1,.543-1.392,3.758,3.758,0,0,1,1.013-1.074Z" transform="translate(-0.439 -1.542)"/>
    <path class="cls-4" d="M170.342,302.832a.97.97,0,0,1-.792-.361,2.05,2.05,0,0,1-.408-.867,4.577,4.577,0,0,1-.112-.994v-.019a6.374,6.374,0,0,1,.1-1.116,7.847,7.847,0,0,1,.3-1.157,8.292,8.292,0,0,1,.422-1.027,8.135,8.135,0,0,1,.407-.708,5.58,5.58,0,0,1,.558-.731,2.79,2.79,0,0,1,.666-.548,1.424,1.424,0,0,1,.722-.207h.009a.98.98,0,0,1,.652.216,1.46,1.46,0,0,1,.4.553,2.979,2.979,0,0,1,.206.722,4.631,4.631,0,0,1,.061.732,6.529,6.529,0,0,1-.225,1.668,9.178,9.178,0,0,1-.609,1.65,7.8,7.8,0,0,1-.413.708,5.4,5.4,0,0,1-.553.726,2.924,2.924,0,0,1-.656.54,1.416,1.416,0,0,1-.731.22Zm.019-.282a.915.915,0,0,0,.684-.384,3.933,3.933,0,0,0,.577-.928,10.433,10.433,0,0,0,.436-1.12q.188-.576.281-.971h-2.2c-.112.45-.2.839-.267,1.168a4.906,4.906,0,0,0-.1.97q0,1.266.591,1.265Zm-.141-3.787h2.213q.113-.468.183-.788t.117-.675a5.079,5.079,0,0,0,.047-.655q0-1.266-.572-1.266-.684,0-1.186,1.1a13.613,13.613,0,0,0-.8,2.283Z" transform="translate(-0.439 -1.542)"/>
    <g>
      <path class="cls-3" d="M177.749,294.761h2.058v.779h-1.188v8.55h1.188v.779h-2.058Z" transform="translate(-0.439 -1.542)"/>
      <path class="cls-3" d="M180.961,296.963h.918v.983a3.419,3.419,0,0,1,.264-.419,1.629,1.629,0,0,1,1.347-.736.845.845,0,0,1,.275.049v.988l-.2-.006a1.557,1.557,0,0,0-1.211.47,1.929,1.929,0,0,0-.426,1.341v3.077h-.967Z" transform="translate(-0.439 -1.542)"/>
      <path class="cls-3" d="M186,302.865a1.909,1.909,0,0,1-1.337-.45,1.573,1.573,0,0,1-.494-1.22,1.643,1.643,0,0,1,.465-1.229,2.283,2.283,0,0,1,1.355-.57l1.317-.167a1.92,1.92,0,0,0,.305-.053.483.483,0,0,0,.29-.194.61.61,0,0,0,.1-.365v-.048a.848.848,0,0,0-.35-.722,1.59,1.59,0,0,0-.971-.261,1.432,1.432,0,0,0-.932.276,1.223,1.223,0,0,0-.406.826h-.892a1.9,1.9,0,0,1,.666-1.421,2.678,2.678,0,0,1,1.708-.476,2.445,2.445,0,0,1,1.6.454,1.622,1.622,0,0,1,.548,1.324v3.159a.317.317,0,0,0,.088.233.324.324,0,0,0,.239.089,1.137,1.137,0,0,0,.127-.011c.054-.008.115-.018.179-.032v.7a1.875,1.875,0,0,1-.3.085,1.3,1.3,0,0,1-.263.032.97.97,0,0,1-.8-.3,1.264,1.264,0,0,1-.232-.564,1.923,1.923,0,0,1-.247.258A2.559,2.559,0,0,1,186,302.865Zm2-2.432v-.623a2.057,2.057,0,0,1-.6.177l-.886.129a2.385,2.385,0,0,0-1.02.324.724.724,0,0,0-.322.622,1,1,0,0,0,.262.743,1.017,1.017,0,0,0,.747.26,2.017,2.017,0,0,0,1.289-.413,1.387,1.387,0,0,0,.478-.655,1.032,1.032,0,0,0,.032-.221A3.251,3.251,0,0,0,188.008,300.433Z" transform="translate(-0.439 -1.542)"/>
      <path class="cls-3" d="M192.8,302.865a2.222,2.222,0,0,1-1.837-.861,3.656,3.656,0,0,1-.682-2.328,3.166,3.166,0,0,1,.66-2.09,2.137,2.137,0,0,1,1.725-.8,1.935,1.935,0,0,1,1.676.9l.075.108v-2.982h.967v7.9h-.9v-.784l-.123.178A1.892,1.892,0,0,1,192.8,302.865Zm.054-5.2a1.368,1.368,0,0,0-1.187.519,3.648,3.648,0,0,0,.029,3.284,1.334,1.334,0,0,0,1.158.575,1.389,1.389,0,0,0,1.133-.529,2.157,2.157,0,0,0,.43-1.4,3.388,3.388,0,0,0-.405-1.812A1.294,1.294,0,0,0,192.852,297.661Z" transform="translate(-0.439 -1.542)"/>
      <path class="cls-3" d="M196.967,301.545h1.149v1.165h-1.149Z" transform="translate(-0.439 -1.542)"/>
      <path class="cls-3" d="M203.072,298.628a1,1,0,0,0-.389-.741,1.5,1.5,0,0,0-.933-.263,1.653,1.653,0,0,0-.916.209.689.689,0,0,0-.314.612.528.528,0,0,0,.22.462,2.84,2.84,0,0,0,.875.312l1,.236a2.528,2.528,0,0,1,1.2.565,1.339,1.339,0,0,1,.356.993,1.651,1.651,0,0,1-.615,1.353,2.56,2.56,0,0,1-1.662.5,2.855,2.855,0,0,1-1.811-.48,2,2,0,0,1-.66-1.512h.929a1.224,1.224,0,0,0,.432.887,1.844,1.844,0,0,0,1.11.273,1.651,1.651,0,0,0,.986-.247.838.838,0,0,0,.336-.72.523.523,0,0,0-.22-.456,2.83,2.83,0,0,0-.887-.311l-1-.236a2.4,2.4,0,0,1-1.155-.543,1.311,1.311,0,0,1-.345-.967,1.575,1.575,0,0,1,.579-1.286,2.379,2.379,0,0,1,1.564-.476,2.436,2.436,0,0,1,1.6.489,1.757,1.757,0,0,1,.63,1.348Z" transform="translate(-0.439 -1.542)"/>
    </g>
    <g>
      <path class="cls-3" d="M204.988,294.479h2.158v.8h-2.158Z" transform="translate(-0.439 -1.542)"/>
      <path class="cls-3" d="M209.87,292.92h-1.448V292.3a1.676,1.676,0,0,0,1.04-.275,1.714,1.714,0,0,0,.6-.9h.631v6.188h-.82Z" transform="translate(-0.439 -1.542)"/>
    </g>
    <path class="cls-3" d="M215.363,304.869h-2.057v-.779h1.187v-8.55h-1.187v-.779h2.057Z" transform="translate(-0.439 -1.542)"/>
    <path class="cls-2" d="M22.2,270.91V14.11M348,270.91V14.11M22.2,270.91h3.258M22.2,206.71h3.258M22.2,142.51h3.258M22.2,78.31h3.258M22.2,14.11h3.258M348,270.91h-3.258M348,206.71h-3.258M348,142.51h-3.258M348,78.31h-3.258M348,14.11h-3.258" transform="translate(-0.439 -1.542)"/>
    <path class="cls-3" d="M8.838,271.891h2.451v.9H8.838Z" transform="translate(-0.439 -1.542)"/>
    <path class="cls-4" d="M13.03,274.932a.6.6,0,0,1,.037-.16q.291-.589.535-1.162t.44-1.111q.2-.539.366-1.158h-.656a1.171,1.171,0,0,0-.7.234,1.986,1.986,0,0,0-.539.6.058.058,0,0,1-.056.038h-.122c-.062,0-.094-.034-.094-.1a.157.157,0,0,1,.019-.056,4.9,4.9,0,0,1,.717-.957,1.181,1.181,0,0,1,.858-.384h3.7a.254.254,0,0,1,.178.07.251.251,0,0,1,.075.192.361.361,0,0,1-.107.254.345.345,0,0,1-.258.112h-1.3a9.228,9.228,0,0,0-.179,1.566,4.357,4.357,0,0,0,.347,1.772.325.325,0,0,1,.028.131.336.336,0,0,1-.065.2.577.577,0,0,1-.164.155.417.417,0,0,1-.221.061c-.174,0-.3-.146-.365-.436a3.673,3.673,0,0,1-.1-.849,5.989,5.989,0,0,1,.1-1.13q.1-.538.319-1.467H14.717q-.815,3.273-.975,3.6a.438.438,0,0,1-.4.282.322.322,0,0,1-.215-.08.262.262,0,0,1-.094-.211Z" transform="translate(-0.439 -1.542)"/>
    <path class="cls-3" d="M.439,207.7H2.891v.9H.439Z" transform="translate(-0.439 -1.542)"/>
    <path class="cls-4" d="M4.63,210.732a.6.6,0,0,1,.037-.16q.291-.589.535-1.162t.44-1.111q.2-.539.366-1.158H5.352a1.171,1.171,0,0,0-.7.234,1.986,1.986,0,0,0-.539.6.058.058,0,0,1-.056.038H3.936c-.062,0-.094-.034-.094-.1a.157.157,0,0,1,.019-.056,4.9,4.9,0,0,1,.717-.957,1.181,1.181,0,0,1,.858-.384h3.7a.254.254,0,0,1,.178.07.251.251,0,0,1,.075.192.361.361,0,0,1-.107.254.345.345,0,0,1-.258.112h-1.3a9.228,9.228,0,0,0-.179,1.566,4.357,4.357,0,0,0,.347,1.772.325.325,0,0,1,.028.131.336.336,0,0,1-.065.2.577.577,0,0,1-.164.155.417.417,0,0,1-.221.061c-.174,0-.3-.146-.365-.436a3.673,3.673,0,0,1-.1-.849,5.989,5.989,0,0,1,.1-1.13q.1-.538.319-1.467H6.317q-.815,3.273-.975,3.6a.438.438,0,0,1-.4.282.322.322,0,0,1-.215-.08.262.262,0,0,1-.094-.211Z" transform="translate(-0.439 -1.542)"/>
    <g>
      <path class="cls-3" d="M12.546,203.55,10.1,211.108H9.436l2.443-7.558Z" transform="translate(-0.439 -1.542)"/>
      <path class="cls-3" d="M17.453,205.952a1.988,1.988,0,0,1-.4,1.277,5.091,5.091,0,0,1-1.5,1.106,5.56,5.56,0,0,0-1.626,1.2,2.174,2.174,0,0,0-.3.528h3.818v.854H12.639a2.857,2.857,0,0,1,.551-1.813,6.9,6.9,0,0,1,2.071-1.54,3.489,3.489,0,0,0,1.006-.753,1.389,1.389,0,0,0,.268-.881,1.173,1.173,0,0,0-.4-.919,1.485,1.485,0,0,0-1.026-.358,1.265,1.265,0,0,0-1.027.449,2.026,2.026,0,0,0-.4,1.27h-.855a2.454,2.454,0,0,1,.62-1.824,2.367,2.367,0,0,1,1.782-.661,2.256,2.256,0,0,1,1.6.581A1.939,1.939,0,0,1,17.453,205.952Z" transform="translate(-0.439 -1.542)"/>
    </g>
    <path class="cls-3" d="M13.2,145.666a6,6,0,0,1,0-5.345,2.014,2.014,0,0,1,1.779-.94,2.02,2.02,0,0,1,1.788.94,6.026,6.026,0,0,1,0,5.345,2.022,2.022,0,0,1-1.788.937A2.016,2.016,0,0,1,13.2,145.666Zm2.893-.557a6.3,6.3,0,0,0,0-4.231,1.193,1.193,0,0,0-1.114-.706,1.178,1.178,0,0,0-1.1.706,6.217,6.217,0,0,0,0,4.231,1.178,1.178,0,0,0,1.1.7A1.193,1.193,0,0,0,16.1,145.109Z" transform="translate(-0.439 -1.542)"/>
    <path class="cls-4" d="M4.63,82.332a.6.6,0,0,1,.037-.16q.291-.59.535-1.162t.44-1.111q.2-.538.366-1.158H5.352a1.171,1.171,0,0,0-.7.234,1.986,1.986,0,0,0-.539.6.058.058,0,0,1-.056.038H3.936c-.062,0-.094-.034-.094-.1a.157.157,0,0,1,.019-.056,4.9,4.9,0,0,1,.717-.957,1.181,1.181,0,0,1,.858-.384h3.7a.254.254,0,0,1,.178.07.251.251,0,0,1,.075.192.361.361,0,0,1-.107.254.345.345,0,0,1-.258.112h-1.3a9.228,9.228,0,0,0-.179,1.566,4.357,4.357,0,0,0,.347,1.772.325.325,0,0,1,.028.131.336.336,0,0,1-.065.2.577.577,0,0,1-.164.155.417.417,0,0,1-.221.061c-.174,0-.3-.146-.365-.436a3.673,3.673,0,0,1-.1-.849,5.989,5.989,0,0,1,.1-1.13q.1-.538.319-1.467H6.317q-.815,3.273-.975,3.6a.438.438,0,0,1-.4.282.322.322,0,0,1-.215-.08.262.262,0,0,1-.094-.211Z" transform="translate(-0.439 -1.542)"/>
    <g>
      <path class="cls-3" d="M12.546,75.143,10.1,82.7H9.436l2.443-7.559Z" transform="translate(-0.439 -1.542)"/>
      <path class="cls-3" d="M17.453,77.545a1.988,1.988,0,0,1-.4,1.277,5.109,5.109,0,0,1-1.5,1.106,5.542,5.542,0,0,0-1.626,1.2,2.168,2.168,0,0,0-.3.527h3.818v.854H12.639a2.861,2.861,0,0,1,.551-1.813,6.913,6.913,0,0,1,2.071-1.54,3.435,3.435,0,0,0,1.006-.754,1.382,1.382,0,0,0,.268-.88,1.174,1.174,0,0,0-.4-.919,1.479,1.479,0,0,0-1.026-.357,1.266,1.266,0,0,0-1.027.447,2.031,2.031,0,0,0-.4,1.271h-.855a2.452,2.452,0,0,1,.62-1.823,2.36,2.36,0,0,1,1.782-.662,2.256,2.256,0,0,1,1.6.581A1.939,1.939,0,0,1,17.453,77.545Z" transform="translate(-0.439 -1.542)"/>
    </g>
    <path class="cls-4" d="M13.03,18.132a.6.6,0,0,1,.037-.16q.291-.59.535-1.162t.44-1.111q.2-.539.366-1.158h-.656a1.171,1.171,0,0,0-.7.234,1.986,1.986,0,0,0-.539.6.058.058,0,0,1-.056.038h-.122c-.062,0-.094-.034-.094-.1a.157.157,0,0,1,.019-.056,4.9,4.9,0,0,1,.717-.957,1.181,1.181,0,0,1,.858-.384h3.7a.254.254,0,0,1,.178.07.251.251,0,0,1,.075.192.361.361,0,0,1-.107.254.345.345,0,0,1-.258.112h-1.3a9.228,9.228,0,0,0-.179,1.566,4.357,4.357,0,0,0,.347,1.772.325.325,0,0,1,.028.131.336.336,0,0,1-.065.2.577.577,0,0,1-.164.155.417.417,0,0,1-.221.061c-.174,0-.3-.146-.365-.436a3.673,3.673,0,0,1-.1-.849,5.989,5.989,0,0,1,.1-1.13q.1-.538.319-1.467H14.717q-.815,3.273-.975,3.6a.438.438,0,0,1-.4.282.322.322,0,0,1-.215-.08.262.262,0,0,1-.094-.211Z" transform="translate(-0.439 -1.542)"/>
    <g>
      <path class="cls-5" d="M148.95,6.033a3.025,3.025,0,0,1-1.986.58h-1.648V9.459h-1.644V1.542h3.4a2.745,2.745,0,0,1,1.874.613,2.39,2.39,0,0,1,.7,1.9A2.459,2.459,0,0,1,148.95,6.033Zm-1.263-2.852a1.328,1.328,0,0,0-.88-.264h-1.491V5.249h1.491a1.262,1.262,0,0,0,.88-.285,1.163,1.163,0,0,0,.314-.9A1.092,1.092,0,0,0,147.687,3.181Z" transform="translate(-0.439 -1.542)"/>
      <path class="cls-5" d="M155.056,3.638a1.713,1.713,0,0,1,.724.575,1.525,1.525,0,0,1,.294.674,8.288,8.288,0,0,1,.054,1.132v3.44h-1.563V5.9a1.577,1.577,0,0,0-.16-.764.8.8,0,0,0-.789-.409,1.079,1.079,0,0,0-.914.406,1.87,1.87,0,0,0-.312,1.159V9.459h-1.531V1.569h1.531V4.362a1.865,1.865,0,0,1,.767-.711,2.166,2.166,0,0,1,.917-.2A2.474,2.474,0,0,1,155.056,3.638Z" transform="translate(-0.439 -1.542)"/>
      <path class="cls-5" d="M159.886,5.9a2.376,2.376,0,0,0,.611-.134.46.46,0,0,0,.33-.435.512.512,0,0,0-.253-.5,1.591,1.591,0,0,0-.743-.138.977.977,0,0,0-.779.269,1.114,1.114,0,0,0-.218.537h-1.477a2.246,2.246,0,0,1,.432-1.262,2.515,2.515,0,0,1,2.093-.774,3.736,3.736,0,0,1,1.715.382,1.462,1.462,0,0,1,.75,1.439V7.972q0,.279.011.676a.86.86,0,0,0,.091.409.545.545,0,0,0,.226.177v.225H161.01a1.677,1.677,0,0,1-.1-.333c-.018-.1-.032-.222-.043-.354a3.137,3.137,0,0,1-.735.585,2.217,2.217,0,0,1-1.123.285,1.936,1.936,0,0,1-1.321-.454,1.612,1.612,0,0,1-.522-1.286,1.667,1.667,0,0,1,.839-1.563,3.755,3.755,0,0,1,1.353-.376Zm.936.715a1.712,1.712,0,0,1-.3.148,2.569,2.569,0,0,1-.411.1l-.348.065a2.291,2.291,0,0,0-.7.209.7.7,0,0,0-.362.65.682.682,0,0,0,.221.567.842.842,0,0,0,.537.174,1.6,1.6,0,0,0,.925-.29,1.228,1.228,0,0,0,.439-1.058Z" transform="translate(-0.439 -1.542)"/>
      <path class="cls-5" d="M164.872,7.59a1.015,1.015,0,0,0,.21.58,1.422,1.422,0,0,0,1.058.307,1.61,1.61,0,0,0,.72-.135.429.429,0,0,0,.267-.4.434.434,0,0,0-.215-.392,8.857,8.857,0,0,0-1.6-.462,3.32,3.32,0,0,1-1.406-.617,1.338,1.338,0,0,1-.408-1.053,1.826,1.826,0,0,1,.637-1.394,2.571,2.571,0,0,1,1.8-.583,3.3,3.3,0,0,1,1.789.438,1.874,1.874,0,0,1,.794,1.512h-1.531a.9.9,0,0,0-.167-.467,1.051,1.051,0,0,0-.861-.312,1.249,1.249,0,0,0-.714.156.449.449,0,0,0-.213.365.4.4,0,0,0,.226.382,9.821,9.821,0,0,0,1.6.424,2.945,2.945,0,0,1,1.371.65,1.474,1.474,0,0,1,.451,1.1,1.779,1.779,0,0,1-.648,1.421,3.054,3.054,0,0,1-2.005.55,3.023,3.023,0,0,1-2.042-.582,1.9,1.9,0,0,1-.66-1.486Z" transform="translate(-0.439 -1.542)"/>
      <path class="cls-5" d="M173.617,3.724a2.381,2.381,0,0,1,1.012.866A2.871,2.871,0,0,1,175.1,5.8a7.571,7.571,0,0,1,.051,1.162h-4.264a1.405,1.405,0,0,0,.612,1.235,1.554,1.554,0,0,0,.844.22,1.187,1.187,0,0,0,1.165-.671h1.563A1.923,1.923,0,0,1,174.5,8.8a2.844,2.844,0,0,1-2.2.854,3.191,3.191,0,0,1-2.062-.72,2.837,2.837,0,0,1-.894-2.344,3.169,3.169,0,0,1,.807-2.333,2.823,2.823,0,0,1,2.093-.812A3.329,3.329,0,0,1,173.617,3.724Zm-2.29,1.322a1.6,1.6,0,0,0-.408.906h2.638a1.278,1.278,0,0,0-.408-.925,1.344,1.344,0,0,0-.908-.316A1.214,1.214,0,0,0,171.327,5.046Z" transform="translate(-0.439 -1.542)"/>
      <path class="cls-5" d="M182.229,3.468c.019,0,.063,0,.13.008V5.044c-.1-.01-.182-.017-.257-.021s-.136,0-.183,0a1.269,1.269,0,0,0-1.24.6,2.342,2.342,0,0,0-.178,1.042v2.8H178.96V3.605h1.461v1.02a3.259,3.259,0,0,1,.617-.8,1.682,1.682,0,0,1,1.117-.36C182.185,3.465,182.208,3.466,182.229,3.468Z" transform="translate(-0.439 -1.542)"/>
      <path class="cls-5" d="M187.071,3.724a2.381,2.381,0,0,1,1.012.866,2.886,2.886,0,0,1,.467,1.21,7.6,7.6,0,0,1,.05,1.162h-4.264a1.4,1.4,0,0,0,.612,1.235,1.554,1.554,0,0,0,.844.22,1.187,1.187,0,0,0,1.165-.671h1.563a1.913,1.913,0,0,1-.568,1.058,2.841,2.841,0,0,1-2.2.854,3.191,3.191,0,0,1-2.062-.72,2.837,2.837,0,0,1-.894-2.344,3.169,3.169,0,0,1,.807-2.333,2.823,2.823,0,0,1,2.093-.812A3.329,3.329,0,0,1,187.071,3.724Zm-2.29,1.322a1.589,1.589,0,0,0-.408.906h2.638a1.282,1.282,0,0,0-.408-.925,1.344,1.344,0,0,0-.908-.316A1.214,1.214,0,0,0,184.781,5.046Z" transform="translate(-0.439 -1.542)"/>
      <path class="cls-5" d="M190.562,7.59a1.022,1.022,0,0,0,.209.58,1.428,1.428,0,0,0,1.059.307,1.61,1.61,0,0,0,.72-.135.428.428,0,0,0,.267-.4.437.437,0,0,0-.214-.392,8.911,8.911,0,0,0-1.6-.462,3.32,3.32,0,0,1-1.406-.617,1.335,1.335,0,0,1-.408-1.053,1.826,1.826,0,0,1,.637-1.394,2.57,2.57,0,0,1,1.795-.583,3.3,3.3,0,0,1,1.79.438,1.874,1.874,0,0,1,.794,1.512h-1.531a.906.906,0,0,0-.167-.467,1.049,1.049,0,0,0-.861-.312,1.249,1.249,0,0,0-.714.156.449.449,0,0,0-.213.365.4.4,0,0,0,.226.382,9.821,9.821,0,0,0,1.6.424,2.945,2.945,0,0,1,1.371.65,1.474,1.474,0,0,1,.451,1.1,1.779,1.779,0,0,1-.648,1.421,3.054,3.054,0,0,1-2,.55,3.023,3.023,0,0,1-2.042-.582,1.9,1.9,0,0,1-.66-1.486Z" transform="translate(-0.439 -1.542)"/>
      <path class="cls-5" d="M200.415,4.233a3.119,3.119,0,0,1,.716,2.224,3.522,3.522,0,0,1-.7,2.358,2.278,2.278,0,0,1-1.8.811,1.888,1.888,0,0,1-1.167-.349,2.244,2.244,0,0,1-.5-.564v3.051h-1.515V3.605h1.467V4.47a2.484,2.484,0,0,1,.529-.6,1.959,1.959,0,0,1,1.222-.392A2.318,2.318,0,0,1,200.415,4.233Zm-1.175,1.1a1.09,1.09,0,0,0-1.011-.521,1.152,1.152,0,0,0-1.157.79,2.979,2.979,0,0,0-.163,1.064,1.689,1.689,0,0,0,.548,1.434,1.258,1.258,0,0,0,.771.241,1.121,1.121,0,0,0,.985-.494,2.286,2.286,0,0,0,.339-1.316A2.289,2.289,0,0,0,199.24,5.334Z" transform="translate(-0.439 -1.542)"/>
      <path class="cls-5" d="M207.093,8.743a3.225,3.225,0,0,1-4.5,0,3.388,3.388,0,0,1-.741-2.2,3.409,3.409,0,0,1,.741-2.2,3.19,3.19,0,0,1,4.5,0,3.409,3.409,0,0,1,.741,2.2A3.388,3.388,0,0,1,207.093,8.743ZM205.868,7.9a2.215,2.215,0,0,0,.36-1.356,2.206,2.206,0,0,0-.36-1.355,1.36,1.36,0,0,0-2.065,0,2.2,2.2,0,0,0-.363,1.355A2.208,2.208,0,0,0,203.8,7.9a1.354,1.354,0,0,0,2.065,0Z" transform="translate(-0.439 -1.542)"/>
      <path class="cls-5" d="M213.651,3.941a1.938,1.938,0,0,1,.575,1.576V9.459h-1.569V5.9a1.637,1.637,0,0,0-.122-.709.861.861,0,0,0-.853-.451,1.057,1.057,0,0,0-1.061.661,2.278,2.278,0,0,0-.149.892V9.459H208.94V3.616h1.483V4.47a2.614,2.614,0,0,1,.556-.65,1.923,1.923,0,0,1,1.193-.355A2.245,2.245,0,0,1,213.651,3.941Z" transform="translate(-0.439 -1.542)"/>
      <path class="cls-5" d="M216.836,7.59a1.015,1.015,0,0,0,.21.58,1.425,1.425,0,0,0,1.058.307,1.61,1.61,0,0,0,.72-.135.428.428,0,0,0,.268-.4.436.436,0,0,0-.215-.392,8.911,8.911,0,0,0-1.6-.462,3.326,3.326,0,0,1-1.406-.617,1.338,1.338,0,0,1-.408-1.053,1.827,1.827,0,0,1,.638-1.394,2.566,2.566,0,0,1,1.8-.583,3.3,3.3,0,0,1,1.79.438,1.877,1.877,0,0,1,.794,1.512h-1.532a.9.9,0,0,0-.167-.467,1.049,1.049,0,0,0-.861-.312,1.251,1.251,0,0,0-.714.156.451.451,0,0,0-.213.365.4.4,0,0,0,.227.382,9.76,9.76,0,0,0,1.6.424,2.944,2.944,0,0,1,1.372.65,1.478,1.478,0,0,1,.451,1.1,1.777,1.777,0,0,1-.649,1.421,3.9,3.9,0,0,1-4.047-.032,1.9,1.9,0,0,1-.66-1.486Z" transform="translate(-0.439 -1.542)"/>
    </g>
    <path class="cls-5" d="M225.35,3.724a2.372,2.372,0,0,1,1.011.866,2.873,2.873,0,0,1,.467,1.21,7.468,7.468,0,0,1,.05,1.162h-4.264a1.4,1.4,0,0,0,.613,1.235,1.548,1.548,0,0,0,.843.22,1.3,1.3,0,0,0,.85-.268,1.272,1.272,0,0,0,.315-.4H226.8A1.913,1.913,0,0,1,226.23,8.8a2.839,2.839,0,0,1-2.2.854,3.193,3.193,0,0,1-2.062-.72,2.837,2.837,0,0,1-.894-2.344,3.173,3.173,0,0,1,.807-2.333,2.823,2.823,0,0,1,2.094-.812A3.336,3.336,0,0,1,225.35,3.724Zm-2.29,1.322a1.59,1.59,0,0,0-.409.906h2.638a1.278,1.278,0,0,0-.408-.925,1.342,1.342,0,0,0-.907-.316A1.211,1.211,0,0,0,223.06,5.046Z" transform="translate(-0.439 -1.542)"/>
    <polyline class="cls-6" points="21.759 140.967 22.085 140.762 22.411 140.556 22.737 140.351 23.062 140.145 23.388 139.94 23.714 139.735 24.04 139.529 24.366 139.324 24.691 139.119 25.017 138.913 25.343 138.708 25.669 138.503 25.995 138.297 26.32 138.092 26.646 137.887 26.972 137.681 27.298 137.476 27.624 137.271 27.949 137.066 28.275 136.86 28.601 136.655 28.927 136.451 29.253 136.245 29.578 136.04 29.904 135.835 30.23 135.63 30.556 135.425 30.882 135.221 31.207 135.015 31.533 134.811 31.859 134.606 32.185 134.402 32.511 134.196 32.836 133.992 33.162 133.788 33.488 133.583 33.814 133.379 34.14 133.174 34.465 132.97 34.791 132.765 35.117 132.561 35.443 132.357 35.769 132.153 36.094 131.949 36.42 131.745 36.746 131.541 37.072 131.337 37.398 131.133 37.723 130.93 38.049 130.726 38.375 130.523 38.701 130.319 39.027 130.116 39.352 129.912 39.678 129.71 40.004 129.506 40.33 129.303 40.656 129.101 40.981 128.897 41.307 128.695 41.633 128.492 41.959 128.289 42.285 128.087 42.61 127.885 42.936 127.682 43.262 127.48 43.588 127.278 43.914 127.076 44.239 126.875 44.565 126.672 44.891 126.471 45.217 126.269 45.543 126.068 45.868 125.867 46.194 125.666 46.52 125.465 46.846 125.264 47.172 125.063 47.497 124.862 47.823 124.662 48.149 124.462 48.475 124.261 48.801 124.061 49.126 123.861 49.452 123.661 49.778 123.462 50.104 123.262 50.43 123.063 50.755 122.864 51.081 122.664 51.407 122.465 51.733 122.267 52.059 122.068 52.384 121.869 52.71 121.671 53.036 121.473 53.362 121.275 53.688 121.077 54.013 120.88 54.339 120.683 54.665 120.485 54.991 120.288 55.317 120.091 55.642 119.894 55.968 119.698 56.294 119.502 56.62 119.306 56.946 119.109 57.271 118.914 57.597 118.718 57.923 118.523 58.249 118.328 58.575 118.133 58.9 117.938 59.226 117.744 59.552 117.55 59.878 117.356 60.204 117.162 60.529 116.969 60.855 116.775 61.181 116.582 61.507 116.389 61.833 116.196 62.158 116.004 62.484 115.812 62.81 115.62 63.136 115.429 63.462 115.238 63.787 115.046 64.113 114.855 64.439 114.665 64.765 114.475 65.091 114.285 65.416 114.095 65.742 113.906 66.068 113.717 66.394 113.528 66.72 113.339 67.045 113.151 67.371 112.963 67.697 112.776 68.023 112.588 68.349 112.401 68.674 112.215 69 112.028 69.326 111.842 69.652 111.657 69.978 111.471 70.303 111.287 70.629 111.102 70.955 110.918 71.281 110.733 71.607 110.55 71.932 110.367 72.258 110.184 72.584 110.002 72.91 109.82 73.236 109.638 73.561 109.457 73.887 109.276 74.213 109.095 74.539 108.915 74.865 108.736 75.19 108.557 75.516 108.378 75.842 108.2 76.168 108.022 76.494 107.844 76.819 107.667 77.145 107.491 77.471 107.315 77.797 107.139 78.123 106.964 78.448 106.79 78.774 106.616 79.1 106.442 79.426 106.269 79.752 106.097 80.077 105.924 80.403 105.753 80.729 105.582 81.055 105.411 81.381 105.242 81.706 105.072 82.032 104.904 82.358 104.736 82.684 104.568 83.01 104.401 83.335 104.235 83.661 104.069 83.987 103.904 84.313 103.739 84.639 103.575 84.964 103.412 85.29 103.25 85.616 103.088 85.942 102.927 86.268 102.766 86.593 102.606 86.919 102.447 87.245 102.289 87.571 102.131 87.897 101.975 88.222 101.819 88.548 101.663 88.874 101.508 89.2 101.355 89.526 101.202 89.851 101.05 90.177 100.898 90.503 100.748 90.829 100.598 91.155 100.449 91.48 100.302 91.806 100.155 92.132 100.009 92.458 99.864 92.784 99.72 93.109 99.576 93.435 99.434 93.761 99.293 94.087 99.153 94.413 99.014 94.738 98.876 95.064 98.739 95.39 98.603 95.716 98.468 96.042 98.334 96.367 98.201 96.693 98.07 97.019 97.94 97.345 97.811 97.671 97.683 97.996 97.556 98.322 97.431 98.648 97.307 98.974 97.184 99.3 97.062 99.625 96.942 99.951 96.824 100.277 96.706 100.603 96.59 100.929 96.476 101.254 96.363 101.58 96.251 101.906 96.141 102.232 96.033 102.558 95.926 102.883 95.82 103.209 95.717 103.535 95.615 103.861 95.515 104.187 95.417 104.512 95.32 104.838 95.225 105.164 95.132 105.49 95.041 105.816 94.952 106.141 94.865 106.467 94.779 106.793 94.696 107.119 94.615 107.445 94.536 107.77 94.459 108.096 94.384 108.422 94.312 108.748 94.242 109.074 94.173 109.399 94.108 109.725 94.045 110.051 93.984 110.377 93.926 110.703 93.871 111.028 93.818 111.354 93.768 111.68 93.72 112.006 93.675 112.332 93.634 112.657 93.595 112.983 93.559 113.309 93.526 113.635 93.496 113.961 93.47 114.286 93.446 114.612 93.426 114.938 93.409 115.264 93.395 115.59 93.386 115.915 93.379 116.241 93.377 116.567 93.378 116.893 93.383 117.219 93.391 117.544 93.404 117.87 93.421 118.196 93.442 118.522 93.467 118.848 93.497 119.173 93.531 119.499 93.569 119.825 93.612 120.151 93.66 120.477 93.713 120.802 93.77 121.128 93.833 121.454 93.9 121.78 93.973 122.106 94.051 122.431 94.135 122.757 94.224 123.083 94.319 123.409 94.419 123.735 94.526 124.06 94.638 124.386 94.757 124.712 94.882 125.038 95.013 125.364 95.151 125.689 95.296 126.015 95.447 126.341 95.605 126.667 95.771 126.993 95.943 127.318 96.122 127.644 96.309 127.97 96.503 128.296 96.705 128.622 96.915 128.947 97.132 129.273 97.358 129.599 97.591 129.925 97.832 130.251 98.082 130.576 98.34 130.902 98.607 131.228 98.882 131.554 99.166 131.88 99.459 132.205 99.76 132.531 100.07 132.857 100.388 133.183 100.716 133.509 101.053 133.834 101.398 134.16 101.753 134.486 102.116 134.812 102.488 135.138 102.869 135.463 103.259 135.789 103.657 136.115 104.064 136.441 104.479 136.767 104.903 137.092 105.335 137.418 105.774 137.744 106.222 138.07 106.677 138.396 107.139 138.721 107.609 139.047 108.086 139.373 108.569 139.699 109.058 140.025 109.554 140.35 110.054 140.676 110.56 141.002 111.071 141.328 111.586 141.654 112.105 141.979 112.628 142.305 113.153 142.631 113.682 142.957 114.212 143.283 114.744 143.608 115.278 143.934 115.812 144.26 116.346 144.586 116.881 144.912 117.414 145.237 117.947 145.563 118.477 145.889 119.006 146.215 119.532 146.541 120.054 146.866 120.574 147.192 121.089 147.518 121.601 147.844 122.108 148.17 122.609 148.495 123.105 148.821 123.596 149.147 124.08 149.473 124.558 149.799 125.03 150.124 125.495 150.45 125.952 150.776 126.402 151.102 126.845 151.428 127.28 151.753 127.708 152.079 128.127 152.405 128.539 152.731 128.942 153.057 129.338 153.382 129.724 153.708 130.103 154.034 130.473 154.36 130.835 154.686 131.189 155.011 131.534 155.337 131.871 155.663 132.2 155.989 132.52 156.315 132.832 156.64 133.136 156.966 133.432 157.292 133.721 157.618 134.001 157.944 134.273 158.269 134.538 158.595 134.796 158.921 135.045 159.247 135.288 159.573 135.523 159.898 135.752 160.224 135.972 160.55 136.187 160.876 136.395 161.202 136.596 161.527 136.79 161.853 136.979 162.179 137.16 162.505 137.336 162.831 137.507 163.156 137.67 163.482 137.829 163.808 137.982 164.134 138.129 164.46 138.271 164.785 138.408 165.111 138.54 165.437 138.666 165.763 138.789 166.089 138.906 166.414 139.019 166.74 139.127 167.066 139.23 167.392 139.33 167.718 139.426 168.043 139.517 168.369 139.605 168.695 139.688 169.021 139.769 169.347 139.845 169.672 139.918 169.998 139.988 170.324 140.054 170.65 140.117 170.976 140.177 171.301 140.234 171.627 140.288 171.953 140.339 172.279 140.387 172.605 140.433 172.93 140.476 173.256 140.517 173.582 140.555 173.908 140.591 174.234 140.625 174.559 140.657 174.885 140.687 175.211 140.714 175.537 140.739 175.863 140.763 176.188 140.786 176.514 140.806 176.84 140.825 177.166 140.842 177.492 140.858 177.817 140.872 178.143 140.885 178.469 140.897 178.795 140.908 179.121 140.917 179.446 140.925 179.772 140.933 180.098 140.939 180.424 140.945 180.75 140.95 181.075 140.954 181.401 140.957 181.727 140.96 182.053 140.962 182.379 140.964 182.704 140.965 183.03 140.966 183.356 140.967 183.682 140.967 184.008 140.967 184.333 140.967 184.659 140.967 184.985 140.967 185.311 140.967 185.637 140.967 185.962 140.968 186.288 140.969 186.614 140.97 186.94 140.971 187.266 140.973 187.591 140.975 187.917 140.978 188.243 140.981 188.569 140.985 188.895 140.99 189.22 140.996 189.546 141.002 189.872 141.01 190.198 141.018 190.524 141.027 190.849 141.038 191.175 141.05 191.501 141.063 191.827 141.077 192.153 141.093 192.478 141.11 192.804 141.129 193.13 141.149 193.456 141.171 193.782 141.195 194.107 141.221 194.433 141.248 194.759 141.278 195.085 141.31 195.411 141.344 195.736 141.38 196.062 141.418 196.388 141.459 196.714 141.502 197.04 141.548 197.365 141.596 197.691 141.647 198.017 141.701 198.343 141.758 198.669 141.818 198.994 141.881 199.32 141.947 199.646 142.017 199.972 142.09 200.298 142.166 200.623 142.247 200.949 142.33 201.275 142.418 201.601 142.509 201.927 142.605 202.252 142.704 202.578 142.808 202.904 142.916 203.23 143.029 203.556 143.146 203.881 143.268 204.207 143.395 204.533 143.527 204.859 143.664 205.185 143.806 205.51 143.953 205.836 144.106 206.162 144.264 206.488 144.428 206.814 144.599 207.139 144.774 207.465 144.956 207.791 145.145 208.117 145.339 208.443 145.54 208.768 145.748 209.094 145.962 209.42 146.183 209.746 146.412 210.072 146.647 210.397 146.889 210.723 147.139 211.049 147.396 211.375 147.662 211.701 147.934 212.026 148.214 212.352 148.503 212.678 148.799 213.004 149.103 213.33 149.415 213.655 149.735 213.981 150.064 214.307 150.401 214.633 150.746 214.959 151.1 215.284 151.462 215.61 151.832 215.936 152.211 216.262 152.597 216.588 152.993 216.913 153.396 217.239 153.807 217.565 154.227 217.891 154.655 218.217 155.09 218.542 155.532 218.868 155.983 219.194 156.44 219.52 156.905 219.846 157.377 220.171 157.855 220.497 158.339 220.823 158.83 221.149 159.326 221.475 159.827 221.8 160.334 222.126 160.845 222.452 161.361 222.778 161.88 223.104 162.403 223.429 162.929 223.755 163.458 224.081 163.988 224.407 164.52 224.733 165.054 225.058 165.589 225.384 166.122 225.71 166.657 226.036 167.19 226.362 167.723 226.687 168.253 227.013 168.782 227.339 169.307 227.665 169.83 227.991 170.349 228.316 170.864 228.642 171.375 228.968 171.881 229.294 172.381 229.62 172.877 229.945 173.366 230.271 173.849 230.597 174.326 230.923 174.795 231.249 175.258 231.574 175.713 231.9 176.16 232.226 176.6 232.552 177.032 232.878 177.456 233.203 177.871 233.529 178.278 233.855 178.676 234.181 179.066 234.507 179.447 234.832 179.819 235.158 180.182 235.484 180.537 235.81 180.882 236.136 181.218 236.461 181.547 236.787 181.865 237.113 182.175 237.439 182.476 237.765 182.769 238.09 183.053 238.416 183.327 238.742 183.595 239.068 183.852 239.394 184.103 239.719 184.344 240.045 184.577 240.371 184.803 240.697 185.02 241.023 185.23 241.348 185.432 241.674 185.626 242 185.813 242.326 185.992 242.652 186.164 242.977 186.33 243.303 186.488 243.629 186.639 243.955 186.783 244.281 186.921 244.606 187.053 244.932 187.178 245.258 187.296 245.584 187.409 245.91 187.515 246.235 187.616 246.561 187.711 246.887 187.8 247.213 187.884 247.539 187.962 247.864 188.035 248.19 188.102 248.516 188.165 248.842 188.222 249.168 188.275 249.493 188.323 249.819 188.366 250.145 188.404 250.471 188.438 250.797 188.468 251.122 188.493 251.448 188.514 251.774 188.531 252.1 188.544 252.426 188.552 252.751 188.557 253.077 188.558 253.403 188.556 253.729 188.549 254.055 188.54 254.38 188.526 254.706 188.509 255.032 188.489 255.358 188.465 255.684 188.439 256.009 188.409 256.335 188.376 256.661 188.34 256.987 188.301 257.313 188.259 257.638 188.215 257.964 188.167 258.29 188.117 258.616 188.064 258.942 188.009 259.267 187.95 259.593 187.89 259.919 187.827 260.245 187.761 260.571 187.693 260.896 187.623 261.222 187.551 261.548 187.476 261.874 187.399 262.2 187.32 262.525 187.239 262.851 187.155 263.177 187.07 263.503 186.983 263.829 186.894 264.154 186.803 264.48 186.71 264.806 186.615 265.132 186.518 265.458 186.42 265.783 186.32 266.109 186.218 266.435 186.115 266.761 186.009 267.087 185.902 267.412 185.793 267.738 185.684 268.064 185.572 268.39 185.459 268.716 185.345 269.041 185.229 269.367 185.111 269.693 184.993 270.019 184.872 270.345 184.751 270.67 184.628 270.996 184.504 271.322 184.379 271.648 184.252 271.974 184.124 272.299 183.995 272.625 183.865 272.951 183.734 273.277 183.601 273.603 183.467 273.928 183.332 274.254 183.196 274.58 183.059 274.906 182.921 275.232 182.782 275.557 182.642 275.883 182.501 276.209 182.358 276.535 182.215 276.861 182.071 277.186 181.926 277.512 181.78 277.838 181.633 278.164 181.485 278.49 181.337 278.815 181.187 279.141 181.037 279.467 180.885 279.793 180.733 280.119 180.58 280.444 180.427 280.77 180.272 281.096 180.116 281.422 179.96 281.748 179.804 282.073 179.646 282.399 179.487 282.725 179.328 283.051 179.169 283.377 179.008 283.702 178.847 284.028 178.685 284.354 178.523 284.68 178.359 285.006 178.196 285.331 178.031 285.657 177.866 285.983 177.7 286.309 177.534 286.635 177.367 286.96 177.199 287.286 177.031 287.612 176.862 287.938 176.693 288.264 176.523 288.589 176.353 288.915 176.182 289.241 176.01 289.567 175.838 289.893 175.665 290.218 175.493 290.544 175.319 290.87 175.145 291.196 174.971 291.522 174.795 291.847 174.62 292.173 174.444 292.499 174.267 292.825 174.09 293.151 173.913 293.476 173.735 293.802 173.556 294.128 173.378 294.454 173.199 294.78 173.02 295.105 172.84 295.431 172.659 295.757 172.478 296.083 172.296 296.409 172.115 296.734 171.933 297.06 171.75 297.386 171.568 297.712 171.384 298.038 171.202 298.363 171.017 298.689 170.833 299.015 170.648 299.341 170.464 299.667 170.278 299.992 170.093 300.318 169.907 300.644 169.72 300.97 169.533 301.296 169.347 301.621 169.159 301.947 168.972 302.273 168.784 302.599 168.596 302.925 168.407 303.25 168.218 303.576 168.029 303.902 167.84 304.228 167.65 304.554 167.46 304.879 167.27 305.205 167.079 305.531 166.889 305.857 166.697 306.183 166.506 306.508 166.315 306.834 166.122 307.16 165.93 307.486 165.738 307.812 165.546 308.137 165.353 308.463 165.16 308.789 164.966 309.115 164.773 309.441 164.579 309.766 164.385 310.092 164.191 310.418 163.997 310.744 163.802 311.07 163.607 311.395 163.412 311.721 163.217 312.047 163.021 312.373 162.825 312.699 162.629 313.024 162.433 313.35 162.237 313.676 162.041 314.002 161.844 314.328 161.647 314.653 161.45 314.979 161.252 315.305 161.055 315.631 160.857 315.957 160.66 316.282 160.461 316.608 160.263 316.934 160.065 317.26 159.867 317.586 159.668 317.911 159.47 318.237 159.27 318.563 159.071 318.889 158.872 319.215 158.673 319.54 158.473 319.866 158.274 320.192 158.074 320.518 157.874 320.844 157.674 321.169 157.473 321.495 157.273 321.821 157.073 322.147 156.872 322.473 156.671 322.798 156.47 323.124 156.269 323.45 156.068 323.776 155.867 324.102 155.666 324.427 155.464 324.753 155.262 325.079 155.06 325.405 154.859 325.731 154.656 326.056 154.455 326.382 154.253 326.708 154.05 327.034 153.848 327.36 153.645 327.685 153.443 328.011 153.24 328.337 153.038 328.663 152.834 328.989 152.631 329.314 152.429 329.64 152.225 329.966 152.022 330.292 151.819 330.618 151.616 330.943 151.412 331.269 151.209 331.595 151.005 331.921 150.801 332.247 150.597 332.572 150.393 332.898 150.19 333.224 149.986 333.55 149.782 333.876 149.577 334.201 149.373 334.527 149.169 334.853 148.965 335.179 148.761 335.505 148.556 335.83 148.352 336.156 148.147 336.482 147.943 336.808 147.738 337.134 147.533 337.459 147.329 337.785 147.124 338.111 146.919 338.437 146.714 338.763 146.51 339.088 146.304 339.414 146.1 339.74 145.895 340.066 145.689 340.392 145.484 340.717 145.28 341.043 145.074 341.369 144.869 341.695 144.664 342.021 144.459 342.346 144.254 342.672 144.048 342.998 143.843 343.324 143.637 343.65 143.432 343.975 143.227 344.301 143.022 344.627 142.816 344.953 142.611 345.279 142.406 345.604 142.2 345.93 141.995 346.256 141.789 346.582 141.584 346.908 141.378 347.233 141.173 347.559 140.967"/>
  </g>
</svg>
