<?xml version="1.0" encoding="utf-8"?>
<!-- Generator: Adobe Illustrator 22.1.0, SVG Export Plug-In . SVG Version: 6.00 Build 0)  -->
<svg version="1.1" id="Layer_1" xmlns="http://www.w3.org/2000/svg" xmlns:xlink="http://www.w3.org/1999/xlink" x="0px" y="0px"
	 viewBox="0 0 350.8 306" style="enable-background:new 0 0 350.8 306;" xml:space="preserve">
<style type="text/css">
	.st0{fill:none;stroke:#DFDFDF;stroke-width:0.4998;stroke-linejoin:round;stroke-miterlimit:10;}
	.st1{fill:none;stroke:#262626;stroke-width:0.4998;stroke-linecap:square;stroke-linejoin:round;stroke-miterlimit:10;}
	.st2{fill:#4A4A49;}
	.st3{fill:#262626;}
	.st4{fill:#1D1D1B;}
	.st5{fill:none;stroke:#000000;stroke-width:4.0002;stroke-linejoin:round;stroke-miterlimit:10;}
	.st6{fill:none;stroke:#FF0000;stroke-width:4.0002;stroke-linejoin:round;stroke-miterlimit:10;}
</style>
<g>
	<path class="st0" d="M22.2,270.9V14.1 M144.4,270.9V14.1 M185.1,270.9V14.1 M225.8,270.9V14.1 M348,270.9V14.1 M348,270.9H22.2
		 M348,206.7H22.2 M348,142.5H22.2 M348,78.3H22.2 M348,14.1H22.2"/>
	<path class="st1" d="M22.2,270.9H348 M22.2,14.1H348 M22.2,270.9v-3.3 M144.4,270.9v-3.3 M185.1,270.9v-3.3 M225.8,270.9v-3.3
		 M348,270.9v-3.3 M22.2,14.1v3.3 M144.4,14.1v3.3 M185.1,14.1v3.3 M225.8,14.1v3.3 M348,14.1v3.3"/>
	<g>
		<path class="st2" d="M17.8,282.1h2.5v0.9h-2.5V282.1z"/>
	</g>
	<path class="st3" d="M22,285.1c0,0,0-0.1,0-0.2c0.2-0.4,0.4-0.8,0.5-1.2c0.2-0.4,0.3-0.8,0.4-1.1c0.1-0.4,0.3-0.7,0.4-1.2h-0.7
		c-0.3,0-0.5,0.1-0.7,0.2c-0.2,0.2-0.4,0.4-0.5,0.6c0,0,0,0-0.1,0h-0.1c-0.1,0-0.1,0-0.1-0.1c0,0,0,0,0-0.1c0.2-0.4,0.5-0.7,0.7-1
		c0.3-0.3,0.5-0.4,0.9-0.4h3.7c0.1,0,0.1,0,0.2,0.1c0.1,0,0.1,0.1,0.1,0.2c0,0.1,0,0.2-0.1,0.3c-0.1,0.1-0.2,0.1-0.3,0.1h-1.3
		c-0.1,0.5-0.2,1.1-0.2,1.6c0,0.7,0.1,1.2,0.3,1.8c0,0,0,0.1,0,0.1c0,0.1,0,0.1-0.1,0.2c0,0.1-0.1,0.1-0.2,0.2
		c-0.1,0-0.1,0.1-0.2,0.1c-0.2,0-0.3-0.1-0.4-0.4s-0.1-0.6-0.1-0.8c0-0.4,0-0.8,0.1-1.1c0.1-0.4,0.2-0.8,0.3-1.5h-1.1
		c-0.5,2.2-0.9,3.4-1,3.6c-0.1,0.2-0.2,0.3-0.4,0.3c-0.1,0-0.2,0-0.2-0.1C22.1,285.3,22,285.2,22,285.1L22,285.1z"/>
	<g>
		<path class="st2" d="M136,282.1h2.5v0.9H136V282.1z"/>
	</g>
	<path class="st3" d="M140.2,285.1c0,0,0-0.1,0-0.2c0.2-0.4,0.4-0.8,0.5-1.2c0.2-0.4,0.3-0.8,0.4-1.1c0.1-0.4,0.3-0.7,0.4-1.2H141
		c-0.3,0-0.5,0.1-0.7,0.2c-0.2,0.2-0.4,0.4-0.5,0.6c0,0,0,0-0.1,0h-0.1c-0.1,0-0.1,0-0.1-0.1c0,0,0,0,0-0.1c0.2-0.4,0.5-0.7,0.7-1
		c0.3-0.3,0.5-0.4,0.9-0.4h3.7c0.1,0,0.1,0,0.2,0.1c0,0,0.1,0.1,0.1,0.2c0,0.1,0,0.2-0.1,0.3c-0.1,0.1-0.2,0.1-0.3,0.1h-1.3
		c-0.1,0.5-0.2,1.1-0.2,1.6c0,0.7,0.1,1.2,0.3,1.8c0,0,0,0.1,0,0.1c0,0.1,0,0.1-0.1,0.2c0,0.1-0.1,0.1-0.2,0.2
		c-0.1,0-0.1,0.1-0.2,0.1c-0.2,0-0.3-0.1-0.4-0.4c-0.1-0.3-0.1-0.6-0.1-0.8c0-0.4,0-0.8,0.1-1.1c0.1-0.4,0.2-0.8,0.3-1.5h-1.1
		c-0.5,2.2-0.9,3.4-1,3.6c-0.1,0.2-0.2,0.3-0.4,0.3c-0.1,0-0.2,0-0.2-0.1C140.3,285.3,140.2,285.2,140.2,285.1L140.2,285.1z"/>
	<g>
		<path class="st2" d="M148.1,277.9l-2.4,7.6H145l2.4-7.6H148.1z"/>
		<path class="st2" d="M148.2,283.6v-0.4v-0.4l3.3-4.5h0.4h0.4v4.6h1v0.8h-1v1.7h-0.9v-1.7H148.2z M151.3,282.9v-3.2l-2.2,3.1l0,0.1
			H151.3z"/>
	</g>
	<g>
		<path class="st2" d="M183.1,284.4c-0.4-0.6-0.6-1.5-0.6-2.7s0.2-2,0.6-2.7c0.4-0.6,1-0.9,1.8-0.9c0.8,0,1.4,0.3,1.8,0.9
			c0.4,0.6,0.6,1.5,0.6,2.7s-0.2,2-0.6,2.7s-1,0.9-1.8,0.9C184.1,285.3,183.5,285,183.1,284.4z M186,283.8c0.2-0.5,0.4-1.2,0.4-2.1
			c0-0.9-0.1-1.6-0.4-2.1c-0.2-0.5-0.6-0.7-1.1-0.7c-0.5,0-0.9,0.2-1.1,0.7c-0.2,0.5-0.4,1.2-0.4,2.1c0,0.9,0.1,1.6,0.4,2.1
			s0.6,0.7,1.1,0.7C185.4,284.5,185.7,284.3,186,283.8z"/>
	</g>
	<path class="st3" d="M219.4,285.1c0,0,0-0.1,0-0.2c0.2-0.4,0.4-0.8,0.5-1.2c0.2-0.4,0.3-0.8,0.4-1.1c0.1-0.4,0.3-0.7,0.4-1.2h-0.7
		c-0.3,0-0.5,0.1-0.7,0.2c-0.2,0.2-0.4,0.4-0.5,0.6c0,0,0,0-0.1,0h-0.1c-0.1,0-0.1,0-0.1-0.1c0,0,0,0,0-0.1c0.2-0.4,0.5-0.7,0.7-1
		c0.3-0.3,0.5-0.4,0.9-0.4h3.7c0.1,0,0.1,0,0.2,0.1c0.1,0,0.1,0.1,0.1,0.2c0,0.1,0,0.2-0.1,0.3c-0.1,0.1-0.2,0.1-0.3,0.1h-1.3
		c-0.1,0.5-0.2,1.1-0.2,1.6c0,0.7,0.1,1.2,0.3,1.8c0,0,0,0.1,0,0.1c0,0.1,0,0.1-0.1,0.2c0,0.1-0.1,0.1-0.2,0.2
		c-0.1,0-0.1,0.1-0.2,0.1c-0.2,0-0.3-0.1-0.4-0.4s-0.1-0.6-0.1-0.8c0-0.4,0-0.8,0.1-1.1c0.1-0.4,0.2-0.8,0.3-1.5h-1.1
		c-0.5,2.2-0.9,3.4-1,3.6c-0.1,0.2-0.2,0.3-0.4,0.3c-0.1,0-0.2,0-0.2-0.1C219.5,285.3,219.4,285.2,219.4,285.1L219.4,285.1z"/>
	<g>
		<path class="st2" d="M227.3,277.9l-2.4,7.6h-0.7l2.4-7.6H227.3z"/>
		<path class="st2" d="M227.4,283.6v-0.4v-0.4l3.3-4.5h0.4h0.4v4.6h1v0.8h-1v1.7h-0.9v-1.7H227.4z M230.5,282.9v-3.2l-2.2,3.1l0,0.1
			H230.5z"/>
	</g>
	<path class="st3" d="M346,285.1c0,0,0-0.1,0-0.2c0.2-0.4,0.4-0.8,0.5-1.2c0.2-0.4,0.3-0.8,0.4-1.1c0.1-0.4,0.3-0.7,0.4-1.2h-0.7
		c-0.3,0-0.5,0.1-0.7,0.2c-0.2,0.2-0.4,0.4-0.5,0.6c0,0,0,0-0.1,0h-0.1c-0.1,0-0.1,0-0.1-0.1c0,0,0,0,0-0.1c0.2-0.4,0.5-0.7,0.7-1
		c0.3-0.3,0.5-0.4,0.9-0.4h3.7c0.1,0,0.1,0,0.2,0.1c0,0,0.1,0.1,0.1,0.2c0,0.1,0,0.2-0.1,0.3c-0.1,0.1-0.2,0.1-0.3,0.1h-1.3
		c-0.1,0.5-0.2,1.1-0.2,1.6c0,0.7,0.1,1.2,0.3,1.8c0,0,0,0.1,0,0.1c0,0.1,0,0.1-0.1,0.2c0,0.1-0.1,0.1-0.2,0.2
		c-0.1,0-0.1,0.1-0.2,0.1c-0.2,0-0.3-0.1-0.4-0.4s-0.1-0.6-0.1-0.8c0-0.4,0-0.8,0.1-1.1c0.1-0.4,0.2-0.8,0.3-1.5h-1.1
		c-0.5,2.2-0.9,3.4-1,3.6c-0.1,0.2-0.2,0.3-0.4,0.3c-0.1,0-0.2,0-0.2-0.1C346.1,285.3,346,285.2,346,285.1L346,285.1z"/>
	<path class="st3" d="M154.4,300.2c-0.1,0-0.1,0-0.2-0.1c0,0-0.1-0.1-0.1-0.1s0-0.1,0.1-0.1c0,0,0.1-0.1,0.2-0.1h8.2
		c-0.3-0.2-0.5-0.4-0.7-0.7s-0.4-0.5-0.5-0.8c-0.1-0.3-0.2-0.6-0.3-1c0-0.1,0-0.1,0.1-0.1h0.2c0,0,0,0,0.1,0c0,0,0,0,0,0.1
		c0.1,0.3,0.2,0.6,0.3,0.9c0.1,0.3,0.3,0.5,0.5,0.7c0.2,0.2,0.4,0.4,0.6,0.6c0.2,0.2,0.5,0.3,0.8,0.4c0.1,0,0.1,0.1,0.1,0.1
		c0,0.1,0,0.1-0.1,0.1c-0.4,0.1-0.7,0.3-1,0.6c-0.3,0.3-0.6,0.6-0.8,0.9c-0.2,0.4-0.3,0.7-0.4,1.1c0,0,0,0,0,0.1c0,0,0,0-0.1,0h-0.2
		c-0.1,0-0.1,0-0.1-0.1c0.1-0.5,0.3-1,0.5-1.4c0.3-0.4,0.6-0.8,1-1.1H154.4L154.4,300.2z"/>
	<g>
	</g>
	<path class="st3" d="M170.3,302.8c-0.3,0-0.6-0.1-0.8-0.4c-0.2-0.2-0.3-0.5-0.4-0.9c-0.1-0.3-0.1-0.7-0.1-1v0c0-0.4,0-0.7,0.1-1.1
		c0.1-0.4,0.2-0.8,0.3-1.2c0.1-0.4,0.3-0.7,0.4-1c0.1-0.2,0.2-0.4,0.4-0.7c0.2-0.3,0.4-0.5,0.6-0.7c0.2-0.2,0.4-0.4,0.7-0.5
		c0.2-0.1,0.5-0.2,0.7-0.2h0c0.3,0,0.5,0.1,0.7,0.2c0.2,0.1,0.3,0.3,0.4,0.6c0.1,0.2,0.2,0.5,0.2,0.7c0,0.3,0.1,0.5,0.1,0.7
		c0,0.5-0.1,1.1-0.2,1.7s-0.4,1.1-0.6,1.6c-0.1,0.2-0.2,0.4-0.4,0.7c-0.2,0.3-0.4,0.5-0.6,0.7c-0.2,0.2-0.4,0.4-0.7,0.5
		C170.8,302.8,170.6,302.8,170.3,302.8L170.3,302.8L170.3,302.8z M170.4,302.6c0.2,0,0.5-0.1,0.7-0.4c0.2-0.3,0.4-0.6,0.6-0.9
		c0.2-0.4,0.3-0.7,0.4-1.1c0.1-0.4,0.2-0.7,0.3-1h-2.2c-0.1,0.5-0.2,0.8-0.3,1.2c-0.1,0.3-0.1,0.7-0.1,1
		C169.8,302.1,170,302.6,170.4,302.6L170.4,302.6z M170.2,298.8h2.2c0.1-0.3,0.1-0.6,0.2-0.8c0-0.2,0.1-0.4,0.1-0.7
		c0-0.2,0-0.5,0-0.7c0-0.8-0.2-1.3-0.6-1.3c-0.5,0-0.9,0.4-1.2,1.1C170.7,297.2,170.4,298,170.2,298.8L170.2,298.8z"/>
	<g>
		<path class="st2" d="M177.7,294.8h2.1v0.8h-1.2v8.5h1.2v0.8h-2.1V294.8z"/>
		<path class="st2" d="M181,297h0.5h0.5v1c0.1-0.2,0.2-0.3,0.3-0.4c0.4-0.5,0.8-0.7,1.3-0.7c0.1,0,0.2,0,0.3,0v1l-0.2,0
			c-0.5,0-0.9,0.2-1.2,0.5c-0.3,0.3-0.4,0.8-0.4,1.3v3.1h-0.5H181V297z"/>
		<path class="st2" d="M186,302.9c-0.6,0-1-0.2-1.3-0.5c-0.3-0.3-0.5-0.7-0.5-1.2c0-0.5,0.2-0.9,0.5-1.2c0.3-0.3,0.8-0.5,1.4-0.6
			l1.3-0.2c0.1,0,0.2,0,0.3-0.1c0.1,0,0.2-0.1,0.3-0.2c0.1-0.1,0.1-0.2,0.1-0.4v0c0-0.3-0.1-0.5-0.3-0.7c-0.2-0.2-0.6-0.3-1-0.3
			c-0.4,0-0.7,0.1-0.9,0.3c-0.2,0.2-0.4,0.5-0.4,0.8h-0.9c0-0.6,0.3-1.1,0.7-1.4c0.4-0.3,1-0.5,1.7-0.5c0.7,0,1.2,0.2,1.6,0.5
			s0.5,0.7,0.5,1.3v3.2c0,0.1,0,0.2,0.1,0.2c0.1,0.1,0.1,0.1,0.2,0.1c0,0,0.1,0,0.1,0c0.1,0,0.1,0,0.2,0v0.7c-0.1,0-0.2,0.1-0.3,0.1
			c-0.1,0-0.2,0-0.3,0c-0.4,0-0.6-0.1-0.8-0.3c-0.1-0.1-0.2-0.3-0.2-0.6c-0.1,0.1-0.2,0.2-0.2,0.3
			C187.3,302.6,186.7,302.9,186,302.9z M188,300.4v-0.6c-0.2,0.1-0.4,0.1-0.6,0.2l-0.9,0.1c-0.5,0.1-0.8,0.2-1,0.3s-0.3,0.4-0.3,0.6
			c0,0.3,0.1,0.6,0.3,0.7c0.2,0.2,0.4,0.3,0.7,0.3c0.5,0,0.9-0.1,1.3-0.4c0.2-0.2,0.4-0.4,0.5-0.7c0,0,0-0.1,0-0.2
			C188,300.7,188,300.6,188,300.4z"/>
		<path class="st2" d="M192.8,302.9c-0.8,0-1.4-0.3-1.8-0.9c-0.5-0.6-0.7-1.4-0.7-2.3c0-0.9,0.2-1.6,0.7-2.1s1-0.8,1.7-0.8
			c0.7,0,1.3,0.3,1.7,0.9l0.1,0.1v-3h0.5h0.5v7.9h-0.4h-0.5v-0.8l-0.1,0.2C194,302.6,193.4,302.9,192.8,302.9z M192.9,297.7
			c-0.5,0-0.9,0.2-1.2,0.5s-0.4,0.9-0.4,1.6c0,0.7,0.1,1.3,0.4,1.6s0.7,0.6,1.2,0.6c0.5,0,0.8-0.2,1.1-0.5s0.4-0.8,0.4-1.4
			c0-0.8-0.1-1.4-0.4-1.8C193.7,297.9,193.4,297.7,192.9,297.7z"/>
		<path class="st2" d="M197,301.5h1.1v1.2H197V301.5z"/>
		<path class="st2" d="M203.1,298.6c0-0.3-0.2-0.6-0.4-0.7c-0.2-0.2-0.5-0.3-0.9-0.3c-0.4,0-0.7,0.1-0.9,0.2s-0.3,0.3-0.3,0.6
			c0,0.2,0.1,0.4,0.2,0.5c0.1,0.1,0.4,0.2,0.9,0.3l1,0.2c0.6,0.1,1,0.3,1.2,0.6c0.2,0.2,0.4,0.6,0.4,1c0,0.6-0.2,1-0.6,1.4
			s-1,0.5-1.7,0.5c-0.8,0-1.4-0.2-1.8-0.5s-0.6-0.8-0.7-1.5h0.9c0,0.4,0.2,0.7,0.4,0.9s0.6,0.3,1.1,0.3c0.4,0,0.8-0.1,1-0.2
			s0.3-0.4,0.3-0.7c0-0.2-0.1-0.4-0.2-0.5c-0.1-0.1-0.4-0.2-0.9-0.3l-1-0.2c-0.5-0.1-0.9-0.3-1.2-0.5c-0.2-0.2-0.3-0.6-0.3-1
			c0-0.5,0.2-1,0.6-1.3c0.4-0.3,0.9-0.5,1.6-0.5c0.7,0,1.2,0.2,1.6,0.5c0.4,0.3,0.6,0.8,0.6,1.3H203.1z"/>
	</g>
	<g>
		<path class="st2" d="M205,294.5h2.2v0.8H205V294.5z"/>
		<path class="st2" d="M209.9,292.9h-1.4v-0.6c0.4,0,0.8-0.1,1-0.3c0.3-0.2,0.5-0.5,0.6-0.9h0.6v6.2h-0.4h-0.4V292.9z"/>
	</g>
	<g>
		<path class="st2" d="M215.4,304.9h-2.1v-0.8h1.2v-8.5h-1.2v-0.8h2.1V304.9z"/>
	</g>
	<path class="st1" d="M22.2,270.9V14.1 M348,270.9V14.1 M22.2,270.9h3.3 M22.2,206.7h3.3 M22.2,142.5h3.3 M22.2,78.3h3.3 M22.2,14.1
		h3.3 M348,270.9h-3.3 M348,206.7h-3.3 M348,142.5h-3.3 M348,78.3h-3.3 M348,14.1h-3.3"/>
	<g>
		<path class="st2" d="M8.8,271.9h2.5v0.9H8.8V271.9z"/>
	</g>
	<path class="st3" d="M13,274.9c0,0,0-0.1,0-0.2c0.2-0.4,0.4-0.8,0.5-1.2c0.2-0.4,0.3-0.8,0.4-1.1c0.1-0.4,0.3-0.7,0.4-1.2h-0.7
		c-0.3,0-0.5,0.1-0.7,0.2c-0.2,0.2-0.4,0.4-0.5,0.6c0,0,0,0-0.1,0h-0.1c-0.1,0-0.1,0-0.1-0.1c0,0,0,0,0-0.1c0.2-0.4,0.5-0.7,0.7-1
		c0.3-0.3,0.5-0.4,0.9-0.4h3.7c0.1,0,0.1,0,0.2,0.1c0.1,0,0.1,0.1,0.1,0.2c0,0.1,0,0.2-0.1,0.3c-0.1,0.1-0.2,0.1-0.3,0.1h-1.3
		c-0.1,0.5-0.2,1.1-0.2,1.6c0,0.7,0.1,1.2,0.3,1.8c0,0,0,0.1,0,0.1c0,0.1,0,0.1-0.1,0.2c0,0.1-0.1,0.1-0.2,0.2
		c-0.1,0-0.1,0.1-0.2,0.1c-0.2,0-0.3-0.1-0.4-0.4c-0.1-0.3-0.1-0.6-0.1-0.8c0-0.4,0-0.8,0.1-1.1c0.1-0.4,0.2-0.8,0.3-1.5h-1.1
		c-0.5,2.2-0.9,3.4-1,3.6c-0.1,0.2-0.2,0.3-0.4,0.3c-0.1,0-0.2,0-0.2-0.1C13.1,275.1,13,275,13,274.9L13,274.9z"/>
	<g>
		<path class="st2" d="M0.4,207.7h2.5v0.9H0.4V207.7z"/>
	</g>
	<path class="st3" d="M4.6,210.7c0,0,0-0.1,0-0.2c0.2-0.4,0.4-0.8,0.5-1.2c0.2-0.4,0.3-0.8,0.4-1.1c0.1-0.4,0.3-0.7,0.4-1.2H5.4
		c-0.3,0-0.5,0.1-0.7,0.2c-0.2,0.2-0.4,0.4-0.5,0.6c0,0,0,0-0.1,0H3.9c-0.1,0-0.1,0-0.1-0.1c0,0,0,0,0-0.1c0.2-0.4,0.5-0.7,0.7-1
		c0.3-0.3,0.5-0.4,0.9-0.4h3.7c0.1,0,0.1,0,0.2,0.1c0.1,0,0.1,0.1,0.1,0.2c0,0.1,0,0.2-0.1,0.3c-0.1,0.1-0.2,0.1-0.3,0.1H7.7
		c-0.1,0.5-0.2,1.1-0.2,1.6c0,0.7,0.1,1.2,0.3,1.8c0,0,0,0.1,0,0.1c0,0.1,0,0.1-0.1,0.2c0,0.1-0.1,0.1-0.2,0.2
		c-0.1,0-0.1,0.1-0.2,0.1c-0.2,0-0.3-0.1-0.4-0.4S7,210,7,209.7c0-0.4,0-0.8,0.1-1.1s0.2-0.8,0.3-1.5H6.3c-0.5,2.2-0.9,3.4-1,3.6
		c-0.1,0.2-0.2,0.3-0.4,0.3c-0.1,0-0.2,0-0.2-0.1C4.7,210.9,4.6,210.8,4.6,210.7L4.6,210.7z"/>
	<g>
		<path class="st2" d="M12.5,203.5l-2.4,7.6H9.4l2.4-7.6H12.5z"/>
		<path class="st2" d="M17.5,206c0,0.5-0.1,0.9-0.4,1.3c-0.3,0.3-0.8,0.7-1.5,1.1c-0.8,0.4-1.3,0.8-1.6,1.2
			c-0.1,0.2-0.2,0.3-0.3,0.5h3.8v0.9h-4.8v0c0-0.7,0.2-1.3,0.6-1.8c0.4-0.5,1.1-1,2.1-1.5c0.5-0.3,0.8-0.5,1-0.8
			c0.2-0.2,0.3-0.5,0.3-0.9c0-0.4-0.1-0.7-0.4-0.9c-0.3-0.2-0.6-0.4-1-0.4c-0.4,0-0.8,0.1-1,0.4s-0.4,0.7-0.4,1.3h-0.9
			c0-0.8,0.2-1.4,0.6-1.8c0.4-0.4,1-0.7,1.8-0.7c0.7,0,1.2,0.2,1.6,0.6C17.2,204.8,17.5,205.3,17.5,206z"/>
	</g>
	<g>
		<path class="st2" d="M13.2,145.7c-0.4-0.6-0.6-1.5-0.6-2.7s0.2-2,0.6-2.7c0.4-0.6,1-0.9,1.8-0.9c0.8,0,1.4,0.3,1.8,0.9
			c0.4,0.6,0.6,1.5,0.6,2.7s-0.2,2-0.6,2.7s-1,0.9-1.8,0.9C14.2,146.6,13.6,146.3,13.2,145.7z M16.1,145.1c0.2-0.5,0.4-1.2,0.4-2.1
			c0-0.9-0.1-1.6-0.4-2.1c-0.2-0.5-0.6-0.7-1.1-0.7c-0.5,0-0.9,0.2-1.1,0.7c-0.2,0.5-0.4,1.2-0.4,2.1c0,0.9,0.1,1.6,0.4,2.1
			s0.6,0.7,1.1,0.7C15.5,145.8,15.8,145.6,16.1,145.1z"/>
	</g>
	<path class="st3" d="M4.6,82.3c0,0,0-0.1,0-0.2C4.9,81.8,5,81.4,5.2,81c0.2-0.4,0.3-0.8,0.4-1.1c0.1-0.4,0.3-0.7,0.4-1.2H5.4
		c-0.3,0-0.5,0.1-0.7,0.2c-0.2,0.2-0.4,0.4-0.5,0.6c0,0,0,0-0.1,0H3.9c-0.1,0-0.1,0-0.1-0.1c0,0,0,0,0-0.1c0.2-0.4,0.5-0.7,0.7-1
		c0.3-0.3,0.5-0.4,0.9-0.4h3.7c0.1,0,0.1,0,0.2,0.1c0.1,0,0.1,0.1,0.1,0.2c0,0.1,0,0.2-0.1,0.3c-0.1,0.1-0.2,0.1-0.3,0.1H7.7
		c-0.1,0.5-0.2,1.1-0.2,1.6c0,0.7,0.1,1.2,0.3,1.8c0,0,0,0.1,0,0.1c0,0.1,0,0.1-0.1,0.2c0,0.1-0.1,0.1-0.2,0.2
		c-0.1,0-0.1,0.1-0.2,0.1c-0.2,0-0.3-0.1-0.4-0.4S7,81.6,7,81.3c0-0.4,0-0.8,0.1-1.1c0.1-0.4,0.2-0.8,0.3-1.5H6.3
		c-0.5,2.2-0.9,3.4-1,3.6c-0.1,0.2-0.2,0.3-0.4,0.3c-0.1,0-0.2,0-0.2-0.1C4.7,82.5,4.6,82.4,4.6,82.3L4.6,82.3z"/>
	<g>
		<path class="st2" d="M12.5,75.1l-2.4,7.6H9.4l2.4-7.6H12.5z"/>
		<path class="st2" d="M17.5,77.5c0,0.5-0.1,0.9-0.4,1.3s-0.8,0.7-1.5,1.1c-0.8,0.4-1.3,0.8-1.6,1.2c-0.1,0.2-0.2,0.3-0.3,0.5h3.8
			v0.9h-4.8v0c0-0.7,0.2-1.3,0.6-1.8s1.1-1,2.1-1.5c0.5-0.3,0.8-0.5,1-0.8c0.2-0.2,0.3-0.5,0.3-0.9c0-0.4-0.1-0.7-0.4-0.9
			s-0.6-0.4-1-0.4c-0.4,0-0.8,0.1-1,0.4c-0.2,0.3-0.4,0.7-0.4,1.3h-0.9c0-0.8,0.2-1.4,0.6-1.8c0.4-0.4,1-0.7,1.8-0.7
			c0.7,0,1.2,0.2,1.6,0.6C17.2,76.4,17.5,76.9,17.5,77.5z"/>
	</g>
	<path class="st3" d="M13,18.1c0,0,0-0.1,0-0.2c0.2-0.4,0.4-0.8,0.5-1.2c0.2-0.4,0.3-0.8,0.4-1.1c0.1-0.4,0.3-0.7,0.4-1.2h-0.7
		c-0.3,0-0.5,0.1-0.7,0.2c-0.2,0.2-0.4,0.4-0.5,0.6c0,0,0,0-0.1,0h-0.1c-0.1,0-0.1,0-0.1-0.1c0,0,0,0,0-0.1c0.2-0.4,0.5-0.7,0.7-1
		c0.3-0.3,0.5-0.4,0.9-0.4h3.7c0.1,0,0.1,0,0.2,0.1c0.1,0,0.1,0.1,0.1,0.2c0,0.1,0,0.2-0.1,0.3c-0.1,0.1-0.2,0.1-0.3,0.1h-1.3
		c-0.1,0.5-0.2,1.1-0.2,1.6c0,0.7,0.1,1.2,0.3,1.8c0,0,0,0.1,0,0.1c0,0.1,0,0.1-0.1,0.2c0,0.1-0.1,0.1-0.2,0.2
		c-0.1,0-0.1,0.1-0.2,0.1c-0.2,0-0.3-0.1-0.4-0.4c-0.1-0.3-0.1-0.6-0.1-0.8c0-0.4,0-0.8,0.1-1.1c0.1-0.4,0.2-0.8,0.3-1.5h-1.1
		c-0.5,2.2-0.9,3.4-1,3.6c-0.1,0.2-0.2,0.3-0.4,0.3c-0.1,0-0.2,0-0.2-0.1C13.1,18.3,13,18.2,13,18.1L13,18.1z"/>
	<g>
		<path class="st4" d="M148.9,6c-0.5,0.4-1.1,0.6-2,0.6h-1.6v2.8h-1.6V1.5h3.4c0.8,0,1.4,0.2,1.9,0.6c0.5,0.4,0.7,1,0.7,1.9
			C149.6,5,149.4,5.6,148.9,6z M147.7,3.2c-0.2-0.2-0.5-0.3-0.9-0.3h-1.5v2.3h1.5c0.4,0,0.7-0.1,0.9-0.3c0.2-0.2,0.3-0.5,0.3-0.9
			C148,3.6,147.9,3.4,147.7,3.2z"/>
		<path class="st4" d="M155.1,3.6c0.3,0.1,0.5,0.3,0.7,0.6c0.2,0.2,0.3,0.4,0.3,0.7c0,0.2,0.1,0.6,0.1,1.1v3.4h-1.6V5.9
			c0-0.3-0.1-0.6-0.2-0.8c-0.1-0.3-0.4-0.4-0.8-0.4c-0.4,0-0.7,0.1-0.9,0.4c-0.2,0.3-0.3,0.7-0.3,1.2v3.2h-1.5V1.6h1.5v2.8
			c0.2-0.3,0.5-0.6,0.8-0.7c0.3-0.1,0.6-0.2,0.9-0.2C154.4,3.4,154.8,3.5,155.1,3.6z"/>
		<path class="st4" d="M159.9,5.9c0.3,0,0.5-0.1,0.6-0.1c0.2-0.1,0.3-0.2,0.3-0.4c0-0.2-0.1-0.4-0.3-0.5c-0.2-0.1-0.4-0.1-0.7-0.1
			c-0.4,0-0.6,0.1-0.8,0.3c-0.1,0.1-0.2,0.3-0.2,0.5h-1.5c0-0.5,0.2-0.9,0.4-1.3c0.4-0.5,1.1-0.8,2.1-0.8c0.6,0,1.2,0.1,1.7,0.4
			c0.5,0.3,0.8,0.7,0.8,1.4V8c0,0.2,0,0.4,0,0.7c0,0.2,0,0.3,0.1,0.4c0,0.1,0.1,0.1,0.2,0.2v0.2H161c0-0.1-0.1-0.2-0.1-0.3
			c0-0.1,0-0.2,0-0.4c-0.2,0.2-0.5,0.4-0.7,0.6c-0.3,0.2-0.7,0.3-1.1,0.3c-0.5,0-1-0.2-1.3-0.5c-0.3-0.3-0.5-0.7-0.5-1.3
			c0-0.7,0.3-1.2,0.8-1.6c0.3-0.2,0.8-0.3,1.4-0.4L159.9,5.9z M160.8,6.6c-0.1,0.1-0.2,0.1-0.3,0.1c-0.1,0-0.2,0.1-0.4,0.1l-0.3,0.1
			c-0.3,0.1-0.6,0.1-0.7,0.2c-0.2,0.1-0.4,0.4-0.4,0.6c0,0.3,0.1,0.5,0.2,0.6c0.1,0.1,0.3,0.2,0.5,0.2c0.3,0,0.6-0.1,0.9-0.3
			c0.3-0.2,0.4-0.5,0.4-1.1V6.6z"/>
		<path class="st4" d="M164.9,7.6c0,0.3,0.1,0.5,0.2,0.6c0.2,0.2,0.5,0.3,1.1,0.3c0.3,0,0.5,0,0.7-0.1c0.2-0.1,0.3-0.2,0.3-0.4
			c0-0.2-0.1-0.3-0.2-0.4s-0.7-0.2-1.6-0.5c-0.7-0.2-1.1-0.4-1.4-0.6c-0.3-0.2-0.4-0.6-0.4-1.1c0-0.5,0.2-1,0.6-1.4
			c0.4-0.4,1-0.6,1.8-0.6c0.7,0,1.3,0.1,1.8,0.4c0.5,0.3,0.7,0.8,0.8,1.5H167c0-0.2-0.1-0.4-0.2-0.5c-0.2-0.2-0.5-0.3-0.9-0.3
			c-0.3,0-0.6,0.1-0.7,0.2C165.1,4.9,165,5,165,5.1c0,0.2,0.1,0.3,0.2,0.4c0.2,0.1,0.7,0.2,1.6,0.4c0.6,0.1,1.1,0.4,1.4,0.6
			c0.3,0.3,0.5,0.7,0.5,1.1c0,0.6-0.2,1.1-0.6,1.4c-0.4,0.4-1.1,0.6-2,0.6c-0.9,0-1.6-0.2-2-0.6c-0.4-0.4-0.7-0.9-0.7-1.5H164.9z"/>
		<path class="st4" d="M173.6,3.7c0.4,0.2,0.7,0.5,1,0.9c0.2,0.3,0.4,0.8,0.5,1.2c0,0.3,0.1,0.7,0.1,1.2h-4.3c0,0.6,0.2,1,0.6,1.2
			c0.2,0.1,0.5,0.2,0.8,0.2c0.3,0,0.6-0.1,0.9-0.3c0.1-0.1,0.2-0.2,0.3-0.4h1.6c0,0.3-0.2,0.7-0.6,1.1c-0.5,0.6-1.3,0.9-2.2,0.9
			c-0.8,0-1.5-0.2-2.1-0.7c-0.6-0.5-0.9-1.3-0.9-2.3c0-1,0.3-1.8,0.8-2.3c0.5-0.5,1.2-0.8,2.1-0.8C172.8,3.4,173.2,3.5,173.6,3.7z
			 M171.3,5c-0.2,0.2-0.4,0.5-0.4,0.9h2.6c0-0.4-0.2-0.7-0.4-0.9c-0.2-0.2-0.5-0.3-0.9-0.3C171.8,4.7,171.5,4.8,171.3,5z"/>
		<path class="st4" d="M182.2,3.5c0,0,0.1,0,0.1,0V5c-0.1,0-0.2,0-0.3,0c-0.1,0-0.1,0-0.2,0c-0.6,0-1,0.2-1.2,0.6
			c-0.1,0.2-0.2,0.6-0.2,1v2.8H179V3.6h1.5v1c0.2-0.4,0.4-0.7,0.6-0.8C181.3,3.6,181.7,3.5,182.2,3.5C182.2,3.5,182.2,3.5,182.2,3.5
			z"/>
		<path class="st4" d="M187.1,3.7c0.4,0.2,0.7,0.5,1,0.9c0.2,0.3,0.4,0.8,0.5,1.2c0,0.3,0.1,0.7,0,1.2h-4.3c0,0.6,0.2,1,0.6,1.2
			c0.2,0.1,0.5,0.2,0.8,0.2c0.3,0,0.6-0.1,0.8-0.3c0.1-0.1,0.2-0.2,0.3-0.4h1.6c0,0.3-0.2,0.7-0.6,1.1c-0.5,0.6-1.3,0.9-2.2,0.9
			c-0.8,0-1.5-0.2-2.1-0.7c-0.6-0.5-0.9-1.3-0.9-2.3c0-1,0.3-1.8,0.8-2.3c0.5-0.5,1.2-0.8,2.1-0.8C186.2,3.4,186.7,3.5,187.1,3.7z
			 M184.8,5c-0.2,0.2-0.4,0.5-0.4,0.9h2.6c0-0.4-0.2-0.7-0.4-0.9c-0.2-0.2-0.5-0.3-0.9-0.3C185.3,4.7,185,4.8,184.8,5z"/>
		<path class="st4" d="M190.6,7.6c0,0.3,0.1,0.5,0.2,0.6c0.2,0.2,0.5,0.3,1.1,0.3c0.3,0,0.5,0,0.7-0.1c0.2-0.1,0.3-0.2,0.3-0.4
			c0-0.2-0.1-0.3-0.2-0.4c-0.1-0.1-0.7-0.2-1.6-0.5c-0.7-0.2-1.1-0.4-1.4-0.6c-0.3-0.2-0.4-0.6-0.4-1.1c0-0.5,0.2-1,0.6-1.4
			c0.4-0.4,1-0.6,1.8-0.6c0.7,0,1.3,0.1,1.8,0.4c0.5,0.3,0.7,0.8,0.8,1.5h-1.5c0-0.2-0.1-0.4-0.2-0.5c-0.2-0.2-0.5-0.3-0.9-0.3
			c-0.3,0-0.6,0.1-0.7,0.2c-0.1,0.1-0.2,0.2-0.2,0.4c0,0.2,0.1,0.3,0.2,0.4c0.2,0.1,0.7,0.2,1.6,0.4c0.6,0.1,1.1,0.4,1.4,0.6
			c0.3,0.3,0.5,0.7,0.5,1.1c0,0.6-0.2,1.1-0.6,1.4c-0.4,0.4-1.1,0.6-2,0.6c-0.9,0-1.6-0.2-2-0.6c-0.4-0.4-0.7-0.9-0.7-1.5H190.6z"/>
		<path class="st4" d="M200.4,4.2c0.5,0.5,0.7,1.2,0.7,2.2c0,1-0.2,1.8-0.7,2.4c-0.5,0.5-1.1,0.8-1.8,0.8c-0.5,0-0.9-0.1-1.2-0.3
			c-0.2-0.1-0.3-0.3-0.5-0.6v3.1h-1.5V3.6h1.5v0.9c0.2-0.3,0.3-0.5,0.5-0.6c0.3-0.3,0.8-0.4,1.2-0.4C199.4,3.5,199.9,3.7,200.4,4.2z
			 M199.2,5.3c-0.2-0.3-0.5-0.5-1-0.5c-0.6,0-0.9,0.3-1.2,0.8c-0.1,0.3-0.2,0.6-0.2,1.1c0,0.7,0.2,1.2,0.5,1.4
			c0.2,0.2,0.5,0.2,0.8,0.2c0.4,0,0.8-0.2,1-0.5s0.3-0.8,0.3-1.3C199.6,6.1,199.4,5.7,199.2,5.3z"/>
		<path class="st4" d="M207.1,8.7c-0.5,0.6-1.2,0.9-2.3,0.9c-1,0-1.8-0.3-2.3-0.9s-0.7-1.3-0.7-2.2c0-0.8,0.2-1.6,0.7-2.2
			c0.5-0.6,1.2-0.9,2.3-0.9c1,0,1.8,0.3,2.3,0.9c0.5,0.6,0.7,1.4,0.7,2.2C207.8,7.4,207.6,8.1,207.1,8.7z M205.9,7.9
			c0.2-0.3,0.4-0.8,0.4-1.4s-0.1-1-0.4-1.4s-0.6-0.5-1-0.5s-0.8,0.2-1,0.5c-0.2,0.3-0.4,0.8-0.4,1.4s0.1,1,0.4,1.4
			c0.2,0.3,0.6,0.5,1,0.5S205.6,8.2,205.9,7.9z"/>
		<path class="st4" d="M213.7,3.9c0.4,0.3,0.6,0.8,0.6,1.6v3.9h-1.6V5.9c0-0.3,0-0.5-0.1-0.7c-0.1-0.3-0.4-0.5-0.9-0.5
			c-0.5,0-0.9,0.2-1.1,0.7c-0.1,0.2-0.1,0.5-0.1,0.9v3.2h-1.5V3.6h1.5v0.9c0.2-0.3,0.4-0.5,0.6-0.6c0.3-0.2,0.7-0.4,1.2-0.4
			C212.8,3.5,213.3,3.6,213.7,3.9z"/>
		<path class="st4" d="M216.8,7.6c0,0.3,0.1,0.5,0.2,0.6c0.2,0.2,0.5,0.3,1.1,0.3c0.3,0,0.5,0,0.7-0.1c0.2-0.1,0.3-0.2,0.3-0.4
			c0-0.2-0.1-0.3-0.2-0.4c-0.1-0.1-0.7-0.2-1.6-0.5c-0.7-0.2-1.1-0.4-1.4-0.6c-0.3-0.2-0.4-0.6-0.4-1.1c0-0.5,0.2-1,0.6-1.4
			c0.4-0.4,1-0.6,1.8-0.6c0.7,0,1.3,0.1,1.8,0.4c0.5,0.3,0.7,0.8,0.8,1.5h-1.5c0-0.2-0.1-0.4-0.2-0.5c-0.2-0.2-0.5-0.3-0.9-0.3
			c-0.3,0-0.6,0.1-0.7,0.2C217.1,4.9,217,5,217,5.1c0,0.2,0.1,0.3,0.2,0.4c0.2,0.1,0.7,0.2,1.6,0.4c0.6,0.1,1.1,0.4,1.4,0.6
			c0.3,0.3,0.5,0.7,0.5,1.1c0,0.6-0.2,1.1-0.6,1.4c-0.4,0.4-1.1,0.6-2,0.6c-0.9,0-1.6-0.2-2-0.6c-0.4-0.4-0.7-0.9-0.7-1.5H216.8z"/>
	</g>
	<g>
		<path class="st4" d="M225.3,3.7c0.4,0.2,0.7,0.5,1,0.9c0.2,0.3,0.4,0.8,0.5,1.2c0,0.3,0.1,0.7,0,1.2h-4.3c0,0.6,0.2,1,0.6,1.2
			c0.2,0.1,0.5,0.2,0.8,0.2c0.3,0,0.6-0.1,0.8-0.3c0.1-0.1,0.2-0.2,0.3-0.4h1.6c0,0.3-0.2,0.7-0.6,1.1c-0.5,0.6-1.3,0.9-2.2,0.9
			c-0.8,0-1.5-0.2-2.1-0.7c-0.6-0.5-0.9-1.3-0.9-2.3c0-1,0.3-1.8,0.8-2.3c0.5-0.5,1.2-0.8,2.1-0.8C224.5,3.4,224.9,3.5,225.3,3.7z
			 M223.1,5c-0.2,0.2-0.4,0.5-0.4,0.9h2.6c0-0.4-0.2-0.7-0.4-0.9c-0.2-0.2-0.5-0.3-0.9-0.3C223.6,4.7,223.3,4.8,223.1,5z"/>
	</g>
	<polyline class="st5" points="22.2,142.5 22.5,142.3 22.9,142.1 23.2,141.9 23.5,141.7 23.8,141.5 24.2,141.3 24.5,141.1 
		24.8,140.9 25.1,140.7 25.5,140.5 25.8,140.3 26.1,140 26.4,139.8 26.8,139.6 27.1,139.4 27.4,139.2 27.7,139 28.1,138.8 
		28.4,138.6 28.7,138.4 29,138.2 29.4,138 29.7,137.8 30,137.6 30.3,137.4 30.7,137.2 31,137 31.3,136.8 31.6,136.6 32,136.4 
		32.3,136.1 32.6,135.9 33,135.7 33.3,135.5 33.6,135.3 33.9,135.1 34.3,134.9 34.6,134.7 34.9,134.5 35.2,134.3 35.6,134.1 
		35.9,133.9 36.2,133.7 36.5,133.5 36.9,133.3 37.2,133.1 37.5,132.9 37.8,132.7 38.2,132.5 38.5,132.3 38.8,132.1 39.1,131.9 
		39.5,131.7 39.8,131.5 40.1,131.3 40.4,131 40.8,130.8 41.1,130.6 41.4,130.4 41.7,130.2 42.1,130 42.4,129.8 42.7,129.6 43,129.4 
		43.4,129.2 43.7,129 44,128.8 44.4,128.6 44.7,128.4 45,128.2 45.3,128 45.7,127.8 46,127.6 46.3,127.4 46.6,127.2 47,127 
		47.3,126.8 47.6,126.6 47.9,126.4 48.3,126.2 48.6,126 48.9,125.8 49.2,125.6 49.6,125.4 49.9,125.2 50.2,125 50.5,124.8 
		50.9,124.6 51.2,124.4 51.5,124.2 51.8,124 52.2,123.8 52.5,123.6 52.8,123.4 53.1,123.2 53.5,123 53.8,122.8 54.1,122.6 
		54.5,122.4 54.8,122.2 55.1,122 55.4,121.8 55.8,121.6 56.1,121.4 56.4,121.2 56.7,121 57.1,120.8 57.4,120.7 57.7,120.5 58,120.3 
		58.4,120.1 58.7,119.9 59,119.7 59.3,119.5 59.7,119.3 60,119.1 60.3,118.9 60.6,118.7 61,118.5 61.3,118.3 61.6,118.1 61.9,117.9 
		62.3,117.7 62.6,117.5 62.9,117.4 63.2,117.2 63.6,117 63.9,116.8 64.2,116.6 64.6,116.4 64.9,116.2 65.2,116 65.5,115.8 
		65.9,115.6 66.2,115.4 66.5,115.3 66.8,115.1 67.2,114.9 67.5,114.7 67.8,114.5 68.1,114.3 68.5,114.1 68.8,113.9 69.1,113.8 
		69.4,113.6 69.8,113.4 70.1,113.2 70.4,113 70.7,112.8 71.1,112.6 71.4,112.5 71.7,112.3 72,112.1 72.4,111.9 72.7,111.7 73,111.5 
		73.3,111.4 73.7,111.2 74,111 74.3,110.8 74.7,110.6 75,110.5 75.3,110.3 75.6,110.1 76,109.9 76.3,109.7 76.6,109.6 76.9,109.4 
		77.3,109.2 77.6,109 77.9,108.9 78.2,108.7 78.6,108.5 78.9,108.3 79.2,108.2 79.5,108 79.9,107.8 80.2,107.6 80.5,107.5 
		80.8,107.3 81.2,107.1 81.5,107 81.8,106.8 82.1,106.6 82.5,106.4 82.8,106.3 83.1,106.1 83.4,105.9 83.8,105.8 84.1,105.6 
		84.4,105.4 84.8,105.3 85.1,105.1 85.4,105 85.7,104.8 86.1,104.6 86.4,104.5 86.7,104.3 87,104.1 87.4,104 87.7,103.8 88,103.7 
		88.3,103.5 88.7,103.4 89,103.2 89.3,103.1 89.6,102.9 90,102.7 90.3,102.6 90.6,102.4 90.9,102.3 91.3,102.1 91.6,102 91.9,101.8 
		92.2,101.7 92.6,101.6 92.9,101.4 93.2,101.3 93.5,101.1 93.9,101 94.2,100.8 94.5,100.7 94.9,100.6 95.2,100.4 95.5,100.3 
		95.8,100.1 96.2,100 96.5,99.9 96.8,99.7 97.1,99.6 97.5,99.5 97.8,99.4 98.1,99.2 98.4,99.1 98.8,99 99.1,98.8 99.4,98.7 
		99.7,98.6 100.1,98.5 100.4,98.4 100.7,98.2 101,98.1 101.4,98 101.7,97.9 102,97.8 102.3,97.7 102.7,97.6 103,97.5 103.3,97.4 
		103.6,97.3 104,97.2 104.3,97.1 104.6,97 105,96.9 105.3,96.8 105.6,96.7 105.9,96.6 106.3,96.5 106.6,96.4 106.9,96.3 107.2,96.2 
		107.6,96.2 107.9,96.1 108.2,96 108.5,95.9 108.9,95.9 109.2,95.8 109.5,95.7 109.8,95.7 110.2,95.6 110.5,95.5 110.8,95.5 
		111.1,95.4 111.5,95.4 111.8,95.3 112.1,95.3 112.4,95.2 112.8,95.2 113.1,95.1 113.4,95.1 113.7,95.1 114.1,95 114.4,95 114.7,95 
		115.1,95 115.4,95 115.7,94.9 116,94.9 116.4,94.9 116.7,94.9 117,94.9 117.3,94.9 117.7,94.9 118,94.9 118.3,95 118.6,95 119,95 
		119.3,95 119.6,95.1 119.9,95.1 120.3,95.2 120.6,95.2 120.9,95.3 121.2,95.3 121.6,95.4 121.9,95.4 122.2,95.5 122.5,95.6 
		122.9,95.7 123.2,95.8 123.5,95.9 123.8,96 124.2,96.1 124.5,96.2 124.8,96.3 125.2,96.4 125.5,96.6 125.8,96.7 126.1,96.8 
		126.5,97 126.8,97.1 127.1,97.3 127.4,97.5 127.8,97.7 128.1,97.9 128.4,98 128.7,98.2 129.1,98.5 129.4,98.7 129.7,98.9 130,99.1 
		130.4,99.4 130.7,99.6 131,99.9 131.3,100.1 131.7,100.4 132,100.7 132.3,101 132.6,101.3 133,101.6 133.3,101.9 133.6,102.3 
		133.9,102.6 134.3,102.9 134.6,103.3 134.9,103.7 135.3,104 135.6,104.4 135.9,104.8 136.2,105.2 136.6,105.6 136.9,106 
		137.2,106.4 137.5,106.9 137.9,107.3 138.2,107.8 138.5,108.2 138.8,108.7 139.2,109.2 139.5,109.6 139.8,110.1 140.1,110.6 
		140.5,111.1 140.8,111.6 141.1,112.1 141.4,112.6 141.8,113.1 142.1,113.6 142.4,114.2 142.7,114.7 143.1,115.2 143.4,115.8 
		143.7,116.3 144,116.8 144.4,117.4 144.7,117.9 145,118.4 145.4,119 145.7,119.5 146,120 146.3,120.5 146.7,121.1 147,121.6 
		147.3,122.1 147.6,122.6 148,123.1 148.3,123.7 148.6,124.2 148.9,124.6 149.3,125.1 149.6,125.6 149.9,126.1 150.2,126.6 
		150.6,127 150.9,127.5 151.2,127.9 151.5,128.4 151.9,128.8 152.2,129.3 152.5,129.7 152.8,130.1 153.2,130.5 153.5,130.9 
		153.8,131.3 154.1,131.6 154.5,132 154.8,132.4 155.1,132.7 155.5,133.1 155.8,133.4 156.1,133.7 156.4,134.1 156.8,134.4 
		157.1,134.7 157.4,135 157.7,135.3 158.1,135.5 158.4,135.8 158.7,136.1 159,136.3 159.4,136.6 159.7,136.8 160,137.1 160.3,137.3 
		160.7,137.5 161,137.7 161.3,137.9 161.6,138.1 162,138.3 162.3,138.5 162.6,138.7 162.9,138.9 163.3,139 163.6,139.2 163.9,139.4 
		164.2,139.5 164.6,139.7 164.9,139.8 165.2,140 165.6,140.1 165.9,140.2 166.2,140.3 166.5,140.4 166.9,140.6 167.2,140.7 
		167.5,140.8 167.8,140.9 168.2,141 168.5,141.1 168.8,141.1 169.1,141.2 169.5,141.3 169.8,141.4 170.1,141.5 170.4,141.5 
		170.8,141.6 171.1,141.7 171.4,141.7 171.7,141.8 172.1,141.8 172.4,141.9 172.7,141.9 173,142 173.4,142 173.7,142.1 174,142.1 
		174.3,142.1 174.7,142.2 175,142.2 175.3,142.2 175.7,142.3 176,142.3 176.3,142.3 176.6,142.3 177,142.3 177.3,142.4 177.6,142.4 
		177.9,142.4 178.3,142.4 178.6,142.4 178.9,142.4 179.2,142.5 179.6,142.5 179.9,142.5 180.2,142.5 180.5,142.5 180.9,142.5 
		181.2,142.5 181.5,142.5 181.8,142.5 182.2,142.5 182.5,142.5 182.8,142.5 183.1,142.5 183.5,142.5 183.8,142.5 184.1,142.5 
		184.4,142.5 184.8,142.5 185.1,142.5 185.4,142.5 185.8,142.5 186.1,142.5 186.4,142.5 186.7,142.5 187.1,142.5 187.4,142.5 
		187.7,142.5 188,142.5 188.4,142.5 188.7,142.5 189,142.5 189.3,142.5 189.7,142.5 190,142.5 190.3,142.6 190.6,142.6 191,142.6 
		191.3,142.6 191.6,142.6 191.9,142.6 192.3,142.6 192.6,142.6 192.9,142.7 193.2,142.7 193.6,142.7 193.9,142.7 194.2,142.7 
		194.5,142.8 194.9,142.8 195.2,142.8 195.5,142.9 195.9,142.9 196.2,142.9 196.5,143 196.8,143 197.2,143 197.5,143.1 197.8,143.1 
		198.1,143.2 198.5,143.2 198.8,143.3 199.1,143.4 199.4,143.4 199.8,143.5 200.1,143.6 200.4,143.6 200.7,143.7 201.1,143.8 
		201.4,143.9 201.7,144 202,144.1 202.4,144.1 202.7,144.2 203,144.4 203.3,144.5 203.7,144.6 204,144.7 204.3,144.8 204.6,144.9 
		205,145.1 205.3,145.2 205.6,145.3 205.9,145.5 206.3,145.6 206.6,145.8 206.9,146 207.3,146.1 207.6,146.3 207.9,146.5 
		208.2,146.7 208.6,146.9 208.9,147.1 209.2,147.3 209.5,147.5 209.9,147.7 210.2,148 210.5,148.2 210.8,148.4 211.2,148.7 
		211.5,148.9 211.8,149.2 212.1,149.5 212.5,149.8 212.8,150 213.1,150.3 213.4,150.6 213.8,151 214.1,151.3 214.4,151.6 
		214.7,151.9 215.1,152.3 215.4,152.6 215.7,153 216,153.4 216.4,153.8 216.7,154.1 217,154.5 217.4,154.9 217.7,155.3 218,155.8 
		218.3,156.2 218.7,156.6 219,157.1 219.3,157.5 219.6,158 220,158.4 220.3,158.9 220.6,159.4 220.9,159.9 221.3,160.4 221.6,160.9 
		221.9,161.4 222.2,161.9 222.6,162.4 222.9,162.9 223.2,163.4 223.5,163.9 223.9,164.5 224.2,165 224.5,165.5 224.8,166.1 
		225.2,166.6 225.5,167.1 225.8,167.7 226.1,168.2 226.5,168.7 226.8,169.3 227.1,169.8 227.5,170.3 227.8,170.8 228.1,171.4 
		228.4,171.9 228.8,172.4 229.1,172.9 229.4,173.4 229.7,173.9 230.1,174.4 230.4,174.9 230.7,175.4 231,175.9 231.4,176.3 
		231.7,176.8 232,177.3 232.3,177.7 232.7,178.1 233,178.6 233.3,179 233.6,179.4 234,179.8 234.3,180.2 234.6,180.6 234.9,181 
		235.3,181.4 235.6,181.7 235.9,182.1 236.2,182.4 236.6,182.8 236.9,183.1 237.2,183.4 237.6,183.7 237.9,184 238.2,184.3 
		238.5,184.6 238.9,184.9 239.2,185.1 239.5,185.4 239.8,185.6 240.2,185.9 240.5,186.1 240.8,186.3 241.1,186.6 241.5,186.8 
		241.8,187 242.1,187.2 242.4,187.4 242.8,187.5 243.1,187.7 243.4,187.9 243.7,188 244.1,188.2 244.4,188.3 244.7,188.5 245,188.6 
		245.4,188.7 245.7,188.8 246,189 246.3,189.1 246.7,189.2 247,189.3 247.3,189.3 247.7,189.4 248,189.5 248.3,189.6 248.6,189.6 
		249,189.7 249.3,189.8 249.6,189.8 249.9,189.9 250.3,189.9 250.6,189.9 250.9,190 251.2,190 251.6,190 251.9,190.1 252.2,190.1 
		252.5,190.1 252.9,190.1 253.2,190.1 253.5,190.1 253.8,190.1 254.2,190.1 254.5,190.1 254.8,190.1 255.1,190.1 255.5,190 
		255.8,190 256.1,190 256.4,190 256.8,189.9 257.1,189.9 257.4,189.8 257.8,189.8 258.1,189.8 258.4,189.7 258.7,189.7 259.1,189.6 
		259.4,189.6 259.7,189.5 260,189.4 260.4,189.4 260.7,189.3 261,189.2 261.3,189.2 261.7,189.1 262,189 262.3,188.9 262.6,188.9 
		263,188.8 263.3,188.7 263.6,188.6 263.9,188.5 264.3,188.4 264.6,188.3 264.9,188.3 265.2,188.2 265.6,188.1 265.9,188 
		266.2,187.9 266.5,187.8 266.9,187.7 267.2,187.6 267.5,187.4 267.9,187.3 268.2,187.2 268.5,187.1 268.8,187 269.2,186.9 
		269.5,186.8 269.8,186.7 270.1,186.5 270.5,186.4 270.8,186.3 271.1,186.2 271.4,186 271.8,185.9 272.1,185.8 272.4,185.7 
		272.7,185.5 273.1,185.4 273.4,185.3 273.7,185.1 274,185 274.4,184.9 274.7,184.7 275,184.6 275.3,184.5 275.7,184.3 276,184.2 
		276.3,184 276.6,183.9 277,183.8 277.3,183.6 277.6,183.5 278,183.3 278.3,183.2 278.6,183 278.9,182.9 279.3,182.7 279.6,182.6 
		279.9,182.4 280.2,182.3 280.6,182.1 280.9,182 281.2,181.8 281.5,181.7 281.9,181.5 282.2,181.3 282.5,181.2 282.8,181 
		283.2,180.9 283.5,180.7 283.8,180.6 284.1,180.4 284.5,180.2 284.8,180.1 285.1,179.9 285.4,179.7 285.8,179.6 286.1,179.4 
		286.4,179.2 286.7,179.1 287.1,178.9 287.4,178.7 287.7,178.6 288.1,178.4 288.4,178.2 288.7,178.1 289,177.9 289.4,177.7 
		289.7,177.6 290,177.4 290.3,177.2 290.7,177 291,176.9 291.3,176.7 291.6,176.5 292,176.3 292.3,176.2 292.6,176 292.9,175.8 
		293.3,175.6 293.6,175.5 293.9,175.3 294.2,175.1 294.6,174.9 294.9,174.7 295.2,174.6 295.5,174.4 295.9,174.2 296.2,174 
		296.5,173.8 296.8,173.7 297.2,173.5 297.5,173.3 297.8,173.1 298.2,172.9 298.5,172.7 298.8,172.6 299.1,172.4 299.5,172.2 
		299.8,172 300.1,171.8 300.4,171.6 300.8,171.4 301.1,171.3 301.4,171.1 301.7,170.9 302.1,170.7 302.4,170.5 302.7,170.3 
		303,170.1 303.4,169.9 303.7,169.8 304,169.6 304.3,169.4 304.7,169.2 305,169 305.3,168.8 305.6,168.6 306,168.4 306.3,168.2 
		306.6,168 306.9,167.9 307.3,167.7 307.6,167.5 307.9,167.3 308.3,167.1 308.6,166.9 308.9,166.7 309.2,166.5 309.6,166.3 
		309.9,166.1 310.2,165.9 310.5,165.7 310.9,165.5 311.2,165.3 311.5,165.1 311.8,165 312.2,164.8 312.5,164.6 312.8,164.4 
		313.1,164.2 313.5,164 313.8,163.8 314.1,163.6 314.4,163.4 314.8,163.2 315.1,163 315.4,162.8 315.7,162.6 316.1,162.4 
		316.4,162.2 316.7,162 317,161.8 317.4,161.6 317.7,161.4 318,161.2 318.4,161 318.7,160.8 319,160.6 319.3,160.4 319.7,160.2 
		320,160 320.3,159.8 320.6,159.6 321,159.4 321.3,159.2 321.6,159 321.9,158.8 322.3,158.6 322.6,158.4 322.9,158.2 323.2,158 
		323.6,157.8 323.9,157.6 324.2,157.4 324.5,157.2 324.9,157 325.2,156.8 325.5,156.6 325.8,156.4 326.2,156.2 326.5,156 
		326.8,155.8 327.1,155.6 327.5,155.4 327.8,155.2 328.1,155 328.5,154.8 328.8,154.6 329.1,154.4 329.4,154.2 329.8,154 
		330.1,153.8 330.4,153.6 330.7,153.4 331.1,153.2 331.4,153 331.7,152.8 332,152.5 332.4,152.3 332.7,152.1 333,151.9 333.3,151.7 
		333.7,151.5 334,151.3 334.3,151.1 334.6,150.9 335,150.7 335.3,150.5 335.6,150.3 335.9,150.1 336.3,149.9 336.6,149.7 
		336.9,149.5 337.2,149.3 337.6,149.1 337.9,148.9 338.2,148.7 338.6,148.5 338.9,148.3 339.2,148.1 339.5,147.8 339.9,147.6 
		340.2,147.4 340.5,147.2 340.8,147 341.2,146.8 341.5,146.6 341.8,146.4 342.1,146.2 342.5,146 342.8,145.8 343.1,145.6 
		343.4,145.4 343.8,145.2 344.1,145 344.4,144.8 344.7,144.6 345.1,144.4 345.4,144.2 345.7,143.9 346,143.7 346.4,143.5 
		346.7,143.3 347,143.1 347.3,142.9 347.7,142.7 348,142.5 	"/>
	<polyline class="st6" points="22.2,142.5 22.5,142.3 22.9,142 23.2,141.8 23.5,141.6 23.8,141.3 24.2,141.1 24.5,140.9 24.8,140.7 
		25.1,140.4 25.5,140.2 25.8,140 26.1,139.7 26.4,139.5 26.8,139.3 27.1,139 27.4,138.8 27.7,138.6 28.1,138.3 28.4,138.1 
		28.7,137.9 29,137.6 29.4,137.4 29.7,137.2 30,136.9 30.3,136.7 30.7,136.5 31,136.2 31.3,136 31.6,135.8 32,135.5 32.3,135.3 
		32.6,135.1 33,134.9 33.3,134.6 33.6,134.4 33.9,134.2 34.3,133.9 34.6,133.7 34.9,133.5 35.2,133.2 35.6,133 35.9,132.8 
		36.2,132.5 36.5,132.3 36.9,132.1 37.2,131.8 37.5,131.6 37.8,131.4 38.2,131.1 38.5,130.9 38.8,130.7 39.1,130.5 39.5,130.2 
		39.8,130 40.1,129.8 40.4,129.5 40.8,129.3 41.1,129.1 41.4,128.8 41.7,128.6 42.1,128.4 42.4,128.1 42.7,127.9 43,127.7 
		43.4,127.5 43.7,127.2 44,127 44.4,126.8 44.7,126.5 45,126.3 45.3,126.1 45.7,125.8 46,125.6 46.3,125.4 46.6,125.2 47,124.9 
		47.3,124.7 47.6,124.5 47.9,124.2 48.3,124 48.6,123.8 48.9,123.5 49.2,123.3 49.6,123.1 49.9,122.9 50.2,122.6 50.5,122.4 
		50.9,122.2 51.2,121.9 51.5,121.7 51.8,121.5 52.2,121.2 52.5,121 52.8,120.8 53.1,120.6 53.5,120.3 53.8,120.1 54.1,119.9 
		54.5,119.6 54.8,119.4 55.1,119.2 55.4,119 55.8,118.7 56.1,118.5 56.4,118.3 56.7,118.1 57.1,117.8 57.4,117.6 57.7,117.4 
		58,117.1 58.4,116.9 58.7,116.7 59,116.5 59.3,116.2 59.7,116 60,115.8 60.3,115.6 60.6,115.3 61,115.1 61.3,114.9 61.6,114.7 
		61.9,114.4 62.3,114.2 62.6,114 62.9,113.8 63.2,113.5 63.6,113.3 63.9,113.1 64.2,112.9 64.6,112.6 64.9,112.4 65.2,112.2 
		65.5,112 65.9,111.7 66.2,111.5 66.5,111.3 66.8,111.1 67.2,110.8 67.5,110.6 67.8,110.4 68.1,110.2 68.5,109.9 68.8,109.7 
		69.1,109.5 69.4,109.3 69.8,109.1 70.1,108.8 70.4,108.6 70.7,108.4 71.1,108.2 71.4,107.9 71.7,107.7 72,107.5 72.4,107.3 
		72.7,107.1 73,106.8 73.3,106.6 73.7,106.4 74,106.2 74.3,106 74.7,105.7 75,105.5 75.3,105.3 75.6,105.1 76,104.9 76.3,104.6 
		76.6,104.4 76.9,104.2 77.3,104 77.6,103.8 77.9,103.6 78.2,103.3 78.6,103.1 78.9,102.9 79.2,102.7 79.5,102.5 79.9,102.3 
		80.2,102 80.5,101.8 80.8,101.6 81.2,101.4 81.5,101.2 81.8,101 82.1,100.8 82.5,100.5 82.8,100.3 83.1,100.1 83.4,99.9 83.8,99.7 
		84.1,99.5 84.4,99.3 84.8,99.1 85.1,98.9 85.4,98.6 85.7,98.4 86.1,98.2 86.4,98 86.7,97.8 87,97.6 87.4,97.4 87.7,97.2 88,97 
		88.3,96.8 88.7,96.6 89,96.4 89.3,96.1 89.6,95.9 90,95.7 90.3,95.5 90.6,95.3 90.9,95.1 91.3,94.9 91.6,94.7 91.9,94.5 92.2,94.3 
		92.6,94.1 92.9,93.9 93.2,93.7 93.5,93.5 93.9,93.3 94.2,93.1 94.5,92.9 94.9,92.7 95.2,92.5 95.5,92.3 95.8,92.1 96.2,91.9 
		96.5,91.8 96.8,91.6 97.1,91.4 97.5,91.2 97.8,91 98.1,90.8 98.4,90.6 98.8,90.4 99.1,90.2 99.4,90 99.7,89.9 100.1,89.7 
		100.4,89.5 100.7,89.3 101,89.1 101.4,88.9 101.7,88.7 102,88.6 102.3,88.4 102.7,88.2 103,88 103.3,87.9 103.6,87.7 104,87.5 
		104.3,87.3 104.6,87.2 105,87 105.3,86.8 105.6,86.6 105.9,86.5 106.3,86.3 106.6,86.1 106.9,86 107.2,85.8 107.6,85.7 107.9,85.5 
		108.2,85.3 108.5,85.2 108.9,85 109.2,84.9 109.5,84.7 109.8,84.6 110.2,84.4 110.5,84.3 110.8,84.1 111.1,84 111.5,83.8 
		111.8,83.7 112.1,83.6 112.4,83.4 112.8,83.3 113.1,83.1 113.4,83 113.7,82.9 114.1,82.8 114.4,82.6 114.7,82.5 115.1,82.4 
		115.4,82.3 115.7,82.2 116,82.1 116.4,81.9 116.7,81.8 117,81.7 117.3,81.6 117.7,81.5 118,81.4 118.3,81.4 118.6,81.3 119,81.2 
		119.3,81.1 119.6,81 119.9,81 120.3,80.9 120.6,80.8 120.9,80.8 121.2,80.7 121.6,80.7 121.9,80.6 122.2,80.6 122.5,80.6 
		122.9,80.5 123.2,80.5 123.5,80.5 123.8,80.5 124.2,80.5 124.5,80.5 124.8,80.5 125.2,80.5 125.5,80.5 125.8,80.5 126.1,80.6 
		126.5,80.6 126.8,80.7 127.1,80.7 127.4,80.8 127.8,80.9 128.1,81 128.4,81.1 128.7,81.2 129.1,81.3 129.4,81.5 129.7,81.6 
		130,81.8 130.4,82 130.7,82.2 131,82.4 131.3,82.6 131.7,82.8 132,83.1 132.3,83.4 132.6,83.7 133,84 133.3,84.3 133.6,84.7 
		133.9,85 134.3,85.4 134.6,85.9 134.9,86.3 135.3,86.8 135.6,87.3 135.9,87.8 136.2,88.4 136.6,89 136.9,89.6 137.2,90.3 137.5,91 
		137.9,91.7 138.2,92.5 138.5,93.3 138.8,94.2 139.2,95 139.5,96 139.8,96.9 140.1,97.9 140.5,99 140.8,100 141.1,101.1 
		141.4,102.3 141.8,103.5 142.1,104.7 142.4,105.9 142.7,107.2 143.1,108.5 143.4,109.8 143.7,111.1 144,112.4 144.4,113.8 
		144.7,115.1 145,116.4 145.4,117.7 145.7,119 146,120.3 146.3,121.6 146.7,122.8 147,124 147.3,125.2 147.6,126.4 148,127.5 
		148.3,128.6 148.6,129.6 148.9,130.6 149.3,131.6 149.6,132.5 149.9,133.4 150.2,134.2 150.6,135 150.9,135.8 151.2,136.6 
		151.5,137.3 151.9,137.9 152.2,138.6 152.5,139.2 152.8,139.7 153.2,140.3 153.5,140.8 153.8,141.3 154.1,141.8 154.5,142.2 
		154.8,142.6 155.1,143 155.5,143.3 155.8,143.7 156.1,144 156.4,144.3 156.8,144.6 157.1,144.9 157.4,145.1 157.7,145.4 
		158.1,145.6 158.4,145.8 158.7,146 159,146.1 159.4,146.3 159.7,146.5 160,146.6 160.3,146.7 160.7,146.8 161,147 161.3,147.1 
		161.6,147.1 162,147.2 162.3,147.3 162.6,147.4 162.9,147.4 163.3,147.5 163.6,147.5 163.9,147.5 164.2,147.5 164.6,147.6 
		164.9,147.6 165.2,147.6 165.6,147.6 165.9,147.6 166.2,147.6 166.5,147.6 166.9,147.5 167.2,147.5 167.5,147.5 167.8,147.5 
		168.2,147.4 168.5,147.4 168.8,147.3 169.1,147.3 169.5,147.2 169.8,147.2 170.1,147.1 170.4,147.1 170.8,147 171.1,146.9 
		171.4,146.9 171.7,146.8 172.1,146.7 172.4,146.6 172.7,146.6 173,146.5 173.4,146.4 173.7,146.3 174,146.2 174.3,146.1 174.7,146 
		175,145.9 175.3,145.9 175.7,145.8 176,145.7 176.3,145.6 176.6,145.5 177,145.4 177.3,145.2 177.6,145.1 177.9,145 178.3,144.9 
		178.6,144.8 178.9,144.7 179.2,144.6 179.6,144.5 179.9,144.4 180.2,144.3 180.5,144.1 180.9,144 181.2,143.9 181.5,143.8 
		181.8,143.7 182.2,143.6 182.5,143.5 182.8,143.3 183.1,143.2 183.5,143.1 183.8,143 184.1,142.9 184.4,142.7 184.8,142.6 
		185.1,142.5 185.4,142.4 185.8,142.3 186.1,142.2 186.4,142 186.7,141.9 187.1,141.8 187.4,141.7 187.7,141.6 188,141.4 
		188.4,141.3 188.7,141.2 189,141.1 189.3,141 189.7,140.9 190,140.8 190.3,140.6 190.6,140.5 191,140.4 191.3,140.3 191.6,140.2 
		191.9,140.1 192.3,140 192.6,139.9 192.9,139.8 193.2,139.7 193.6,139.6 193.9,139.5 194.2,139.4 194.5,139.3 194.9,139.2 
		195.2,139.1 195.5,139 195.9,138.9 196.2,138.8 196.5,138.7 196.8,138.6 197.2,138.5 197.5,138.5 197.8,138.4 198.1,138.3 
		198.5,138.2 198.8,138.2 199.1,138.1 199.4,138 199.8,138 200.1,137.9 200.4,137.8 200.7,137.8 201.1,137.7 201.4,137.7 
		201.7,137.6 202,137.6 202.4,137.6 202.7,137.5 203,137.5 203.3,137.5 203.7,137.5 204,137.4 204.3,137.4 204.6,137.4 205,137.4 
		205.3,137.4 205.6,137.5 205.9,137.5 206.3,137.5 206.6,137.5 206.9,137.6 207.3,137.6 207.6,137.7 207.9,137.7 208.2,137.8 
		208.6,137.9 208.9,138 209.2,138.1 209.5,138.2 209.9,138.3 210.2,138.4 210.5,138.6 210.8,138.7 211.2,138.9 211.5,139.1 
		211.8,139.2 212.1,139.4 212.5,139.7 212.8,139.9 213.1,140.1 213.4,140.4 213.8,140.7 214.1,141 214.4,141.3 214.7,141.7 
		215.1,142 215.4,142.4 215.7,142.8 216,143.3 216.4,143.7 216.7,144.2 217,144.7 217.4,145.3 217.7,145.8 218,146.4 218.3,147.1 
		218.7,147.8 219,148.5 219.3,149.2 219.6,150 220,150.8 220.3,151.6 220.6,152.5 220.9,153.4 221.3,154.4 221.6,155.4 221.9,156.5 
		222.2,157.5 222.6,158.7 222.9,159.8 223.2,161 223.5,162.2 223.9,163.4 224.2,164.7 224.5,166 224.8,167.3 225.2,168.6 
		225.5,169.9 225.8,171.3 226.1,172.6 226.5,173.9 226.8,175.2 227.1,176.5 227.5,177.8 227.8,179.1 228.1,180.3 228.4,181.5 
		228.8,182.7 229.1,183.9 229.4,185 229.7,186.1 230.1,187.1 230.4,188.1 230.7,189.1 231,190 231.4,190.9 231.7,191.7 232,192.5 
		232.3,193.3 232.7,194 233,194.7 233.3,195.4 233.6,196 234,196.6 234.3,197.2 234.6,197.7 234.9,198.2 235.3,198.7 235.6,199.1 
		235.9,199.6 236.2,200 236.6,200.4 236.9,200.7 237.2,201 237.6,201.4 237.9,201.7 238.2,201.9 238.5,202.2 238.9,202.4 
		239.2,202.6 239.5,202.9 239.8,203 240.2,203.2 240.5,203.4 240.8,203.5 241.1,203.7 241.5,203.8 241.8,203.9 242.1,204 
		242.4,204.1 242.8,204.2 243.1,204.3 243.4,204.3 243.7,204.4 244.1,204.4 244.4,204.5 244.7,204.5 245,204.5 245.4,204.5 
		245.7,204.6 246,204.6 246.3,204.5 246.7,204.5 247,204.5 247.3,204.5 247.7,204.5 248,204.4 248.3,204.4 248.6,204.3 249,204.3 
		249.3,204.2 249.6,204.2 249.9,204.1 250.3,204.1 250.6,204 250.9,203.9 251.2,203.8 251.6,203.7 251.9,203.7 252.2,203.6 
		252.5,203.5 252.9,203.4 253.2,203.3 253.5,203.2 253.8,203.1 254.2,203 254.5,202.9 254.8,202.7 255.1,202.6 255.5,202.5 
		255.8,202.4 256.1,202.3 256.4,202.1 256.8,202 257.1,201.9 257.4,201.7 257.8,201.6 258.1,201.5 258.4,201.3 258.7,201.2 
		259.1,201 259.4,200.9 259.7,200.8 260,200.6 260.4,200.5 260.7,200.3 261,200.2 261.3,200 261.7,199.8 262,199.7 262.3,199.5 
		262.6,199.4 263,199.2 263.3,199 263.6,198.9 263.9,198.7 264.3,198.5 264.6,198.4 264.9,198.2 265.2,198 265.6,197.9 265.9,197.7 
		266.2,197.5 266.5,197.3 266.9,197.2 267.2,197 267.5,196.8 267.9,196.6 268.2,196.5 268.5,196.3 268.8,196.1 269.2,195.9 
		269.5,195.7 269.8,195.5 270.1,195.4 270.5,195.2 270.8,195 271.1,194.8 271.4,194.6 271.8,194.4 272.1,194.2 272.4,194 
		272.7,193.8 273.1,193.7 273.4,193.5 273.7,193.3 274,193.1 274.4,192.9 274.7,192.7 275,192.5 275.3,192.3 275.7,192.1 276,191.9 
		276.3,191.7 276.6,191.5 277,191.3 277.3,191.1 277.6,190.9 278,190.7 278.3,190.5 278.6,190.3 278.9,190.1 279.3,189.9 
		279.6,189.7 279.9,189.5 280.2,189.3 280.6,189.1 280.9,188.9 281.2,188.7 281.5,188.5 281.9,188.3 282.2,188 282.5,187.8 
		282.8,187.6 283.2,187.4 283.5,187.2 283.8,187 284.1,186.8 284.5,186.6 284.8,186.4 285.1,186.2 285.4,186 285.8,185.7 
		286.1,185.5 286.4,185.3 286.7,185.1 287.1,184.9 287.4,184.7 287.7,184.5 288.1,184.3 288.4,184 288.7,183.8 289,183.6 
		289.4,183.4 289.7,183.2 290,183 290.3,182.8 290.7,182.5 291,182.3 291.3,182.1 291.6,181.9 292,181.7 292.3,181.5 292.6,181.2 
		292.9,181 293.3,180.8 293.6,180.6 293.9,180.4 294.2,180.2 294.6,179.9 294.9,179.7 295.2,179.5 295.5,179.3 295.9,179.1 
		296.2,178.8 296.5,178.6 296.8,178.4 297.2,178.2 297.5,178 297.8,177.7 298.2,177.5 298.5,177.3 298.8,177.1 299.1,176.9 
		299.5,176.6 299.8,176.4 300.1,176.2 300.4,176 300.8,175.7 301.1,175.5 301.4,175.3 301.7,175.1 302.1,174.9 302.4,174.6 
		302.7,174.4 303,174.2 303.4,174 303.7,173.7 304,173.5 304.3,173.3 304.7,173.1 305,172.8 305.3,172.6 305.6,172.4 306,172.2 
		306.3,171.9 306.6,171.7 306.9,171.5 307.3,171.3 307.6,171 307.9,170.8 308.3,170.6 308.6,170.4 308.9,170.1 309.2,169.9 
		309.6,169.7 309.9,169.5 310.2,169.2 310.5,169 310.9,168.8 311.2,168.6 311.5,168.3 311.8,168.1 312.2,167.9 312.5,167.6 
		312.8,167.4 313.1,167.2 313.5,167 313.8,166.7 314.1,166.5 314.4,166.3 314.8,166.1 315.1,165.8 315.4,165.6 315.7,165.4 
		316.1,165.1 316.4,164.9 316.7,164.7 317,164.5 317.4,164.2 317.7,164 318,163.8 318.4,163.5 318.7,163.3 319,163.1 319.3,162.9 
		319.7,162.6 320,162.4 320.3,162.2 320.6,161.9 321,161.7 321.3,161.5 321.6,161.2 321.9,161 322.3,160.8 322.6,160.6 322.9,160.3 
		323.2,160.1 323.6,159.9 323.9,159.6 324.2,159.4 324.5,159.2 324.9,158.9 325.2,158.7 325.5,158.5 325.8,158.3 326.2,158 
		326.5,157.8 326.8,157.6 327.1,157.3 327.5,157.1 327.8,156.9 328.1,156.6 328.5,156.4 328.8,156.2 329.1,156 329.4,155.7 
		329.8,155.5 330.1,155.3 330.4,155 330.7,154.8 331.1,154.6 331.4,154.3 331.7,154.1 332,153.9 332.4,153.6 332.7,153.4 333,153.2 
		333.3,152.9 333.7,152.7 334,152.5 334.3,152.3 334.6,152 335,151.8 335.3,151.6 335.6,151.3 335.9,151.1 336.3,150.9 336.6,150.6 
		336.9,150.4 337.2,150.2 337.6,149.9 337.9,149.7 338.2,149.5 338.6,149.2 338.9,149 339.2,148.8 339.5,148.5 339.9,148.3 
		340.2,148.1 340.5,147.8 340.8,147.6 341.2,147.4 341.5,147.2 341.8,146.9 342.1,146.7 342.5,146.5 342.8,146.2 343.1,146 
		343.4,145.8 343.8,145.5 344.1,145.3 344.4,145.1 344.7,144.8 345.1,144.6 345.4,144.4 345.7,144.1 346,143.9 346.4,143.7 
		346.7,143.4 347,143.2 347.3,143 347.7,142.7 348,142.5 	"/>
</g>
</svg>
