<?xml version="1.0" encoding="utf-8"?>
<!-- Generator: Adobe Illustrator 22.1.0, SVG Export Plug-In . SVG Version: 6.00 Build 0)  -->
<svg version="1.1" id="Layer_1" xmlns="http://www.w3.org/2000/svg" xmlns:xlink="http://www.w3.org/1999/xlink" x="0px" y="0px"
	 viewBox="0 0 210.7 197.2" style="enable-background:new 0 0 210.7 197.2;" xml:space="preserve">
<style type="text/css">
	.st0{fill:none;stroke:#000000;stroke-width:2.2677;stroke-miterlimit:10;}
	.st1{fill:none;stroke:#000000;stroke-width:0.8504;stroke-miterlimit:10;}
	.st2{fill:#1D1D1B;}
	.st3{fill:none;stroke:#000000;stroke-width:1.4173;stroke-linecap:round;stroke-miterlimit:10;stroke-dasharray:0,4.1452;}
	.st4{fill:none;stroke:#000000;stroke-width:1.4173;stroke-linecap:round;stroke-miterlimit:10;stroke-dasharray:0,4.1811;}
	.st5{fill:none;stroke:#000000;stroke-width:0.5669;stroke-miterlimit:10;}
	.st6{fill:none;stroke:#000000;stroke-width:0.2835;stroke-miterlimit:10;}
	.st7{fill:none;stroke:#FF0000;stroke-width:2.5511;stroke-miterlimit:10;}
</style>
<g>
	<path class="st0" d="M170.5,105.5L170.5,105.5c0-43.2-35.1-78.3-78.3-78.3s-78.3,35.1-78.3,78.3c0,43.2,35.1,78.3,78.3,78.3
		S170.5,148.7,170.5,105.5L170.5,105.5z"/>
	<polyline points="179.7,107.3 184.3,105.1 179.7,102.8 180.8,105.1 	"/>
	<line class="st1" x1="0" y1="105.1" x2="180.8" y2="105.1"/>
	<polyline points="94.4,17.5 92.1,12.9 89.9,17.5 92.1,16.3 	"/>
	<line class="st1" x1="92.1" y1="197.2" x2="92.1" y2="16.3"/>
	<g>
		<path class="st2" d="M191.6,105.4l0.1,0.8c0.1,0.9,0.2,1.4,0.7,1.4c0.2,0,0.6-0.2,0.7-0.9c0-0.1,0-0.2,0.1-0.2
			c0.1,0,0.1,0.1,0.1,0.2c0,0.3-0.2,1.1-0.9,1.1c-0.3,0-0.8-0.1-1.3-0.4c-0.4-0.4-0.4-0.8-0.4-1.4c0-0.7,0-1-0.4-1.3
			c-0.3-0.3-0.8-0.3-0.9-0.3h-1.1v2.5c0,0.4,0,0.5,0.8,0.5h0.2v0.3c-0.4,0-1.1,0-1.5,0s-1.1,0-1.5,0v-0.3h0.2c0.8,0,0.8-0.1,0.8-0.5
			v-5.3c0-0.4,0-0.5-0.8-0.5h-0.2v-0.3h3.1c1.5,0,2.6,0.8,2.6,1.8c0,0.8-0.8,1.4-1.7,1.6C190.9,104.4,191.4,104.7,191.6,105.4z
			 M189.4,104.1c1.5,0,1.7-0.8,1.7-1.5c0-1.4-1.1-1.5-2-1.5c-0.2,0-0.5,0-0.6,0c-0.2,0-0.2,0.1-0.2,0.4v2.6H189.4z"/>
		<path class="st2" d="M194.8,106.8c0.2,0.4,0.6,0.7,1.1,0.7c0.1,0,1,0,1.3-1c0-0.1,0-0.1,0.1-0.1c0,0,0.1,0,0.1,0.1
			c0,0.2-0.4,1.3-1.7,1.3c-1.1,0-2.2-1-2.2-2.3c0-1.2,0.9-2.3,2.1-2.3c1.2,0,1.8,1,1.8,2c0,0.2,0,0.2-0.2,0.2h-2.8
			C194.5,105.7,194.5,106.3,194.8,106.8z M196.9,105.1c0-0.4-0.1-1.7-1.1-1.7c-0.3,0-1.2,0.3-1.2,1.7H196.9z"/>
	</g>
	<g>
		<path class="st2" d="M201,110.1c-0.1,0-1-0.6-1.6-1.9c-0.5-1.1-0.7-2.3-0.7-3.1c0-0.8,0.1-1.9,0.6-3c0.6-1.3,1.5-1.9,1.6-1.9
			c0.1,0,0.1,0,0.1,0.1c0,0,0,0-0.1,0.2c-1.2,1.2-1.6,3-1.6,4.7c0,1.5,0.3,3.4,1.6,4.7C201.1,109.9,201.1,110,201,110.1
			C201.1,110.1,201.1,110.1,201,110.1z"/>
	</g>
	<g>
		<path class="st2" d="M203.3,106.7c0.2,0,0.4,0,0.7,0.2c0.2,0.1,0.4,0.1,0.6,0.1c0.3,0,1-0.2,1.2-0.8c0-0.1,0-0.1,0.1-0.1
			c0.1,0,0.1,0,0.1,0.1c0,0.3-0.6,1.5-1.6,1.5c-0.3,0-0.5-0.2-0.6-0.4c-0.2-0.3-0.3-0.4-0.6-0.4c-0.3,0-0.6,0.3-0.8,0.6
			c-0.1,0.1-0.1,0.1-0.2,0.1c0,0-0.1,0-0.1-0.1c0-0.1,0.3-0.6,1-1.3l0.9-0.8c0.2-0.2,1-0.9,1.4-1.3c-0.3,0-0.4,0-0.8-0.1
			c-0.2-0.1-0.4-0.1-0.6-0.1c-0.1,0-0.7,0-0.8,0.5c0,0.1,0,0.1-0.1,0.1s-0.1-0.1-0.1-0.1c0-0.2,0.5-1.1,1.2-1.1
			c0.3,0,0.5,0.2,0.7,0.4c0.1,0.2,0.3,0.3,0.5,0.3s0.4-0.2,0.7-0.6c0-0.1,0.1-0.1,0.1-0.1c0,0,0.1,0,0.1,0.1c0,0-0.2,0.5-1.2,1.4
			c-0.4,0.4-1,0.9-1,0.9c-0.4,0.3-0.6,0.6-1.2,1.1C203.1,106.7,203.2,106.7,203.3,106.7z"/>
	</g>
	<g>
		<path class="st2" d="M209.1,108.1c-0.6,1.3-1.5,1.9-1.6,1.9c-0.1,0-0.1,0-0.1-0.1c0,0,0,0,0.1-0.2c1.2-1.3,1.6-3,1.6-4.7
			c0-2.1-0.6-3.7-1.5-4.7c-0.2-0.2-0.2-0.2-0.2-0.2c0-0.1,0-0.1,0.1-0.1c0.1,0,1,0.6,1.6,1.9c0.5,1.1,0.7,2.3,0.7,3.1
			C209.7,105.9,209.6,107,209.1,108.1z"/>
	</g>
	<g>
		<path class="st2" d="M82,7.6c0,0.4,0,0.5,0.8,0.5h0.3v0.3c-0.3,0-1.1,0-1.5,0c-0.4,0-1.2,0-1.5,0V8.1h0.3c0.8,0,0.8-0.1,0.8-0.5
			V2.4c0-0.4,0-0.5-0.8-0.5H80V1.6c0.3,0,1.1,0,1.5,0c0.4,0,1.2,0,1.5,0v0.3h-0.3C82,1.9,82,2,82,2.4V7.6z"/>
		<path class="st2" d="M83.7,4.4V4.1L85.1,4v1c0.3-0.6,0.7-1,1.5-1c0.4,0,1.2,0.1,1.3,1c0.2-0.4,0.6-1,1.4-1c0.6,0,0.9,0.2,1,0.4
			c0.3,0.4,0.3,0.7,0.3,1.5v1.9c0,0.3,0.3,0.3,0.8,0.3v0.3c-0.3,0-0.9,0-1.1,0c-0.3,0-0.8,0-1.1,0V8.1c0.7,0,0.8,0,0.8-0.4V5.3
			c0-0.6-0.1-1.1-0.7-1.1c-0.6,0-1.3,0.6-1.3,1.6v1.8c0,0.4,0.1,0.4,0.8,0.4v0.3c-0.3,0-0.9,0-1.1,0c-0.3,0-0.8,0-1.1,0V8.1
			c0.7,0,0.8,0,0.8-0.4V5.3c0-0.6-0.1-1.1-0.7-1.1c-0.6,0-1.3,0.6-1.3,1.6v1.8c0,0.4,0.1,0.4,0.8,0.4v0.3c-0.3,0-0.9,0-1.1,0
			c-0.3,0-0.8,0-1.1,0V8.1c0.7,0,0.8,0,0.8-0.4V5C84.5,4.5,84.4,4.4,83.7,4.4z"/>
	</g>
	<g>
		<path class="st2" d="M94.8,10.9c-0.1,0-1-0.6-1.6-1.9c-0.5-1.1-0.7-2.3-0.7-3.1c0-0.8,0.1-1.9,0.6-3c0.6-1.3,1.5-1.9,1.6-1.9
			c0.1,0,0.1,0,0.1,0.1c0,0,0,0-0.1,0.2c-1.2,1.2-1.6,3-1.6,4.7c0,1.5,0.3,3.4,1.6,4.7C94.9,10.7,94.9,10.7,94.8,10.9
			C94.9,10.8,94.9,10.9,94.8,10.9z"/>
	</g>
	<g>
		<path class="st2" d="M97.1,7.5c0.2,0,0.4,0,0.7,0.2c0.2,0.1,0.4,0.1,0.6,0.1c0.3,0,1-0.2,1.2-0.8c0-0.1,0-0.1,0.1-0.1
			c0.1,0,0.1,0,0.1,0.1c0,0.3-0.6,1.5-1.6,1.5c-0.3,0-0.5-0.2-0.6-0.4c-0.2-0.3-0.3-0.4-0.6-0.4c-0.3,0-0.6,0.3-0.8,0.6
			c-0.1,0.1-0.1,0.1-0.2,0.1c0,0-0.1,0-0.1-0.1c0-0.1,0.3-0.6,1-1.3l0.9-0.8c0.2-0.2,1-0.9,1.4-1.3c-0.3,0-0.4,0-0.8-0.1
			c-0.2-0.1-0.4-0.1-0.6-0.1c-0.1,0-0.7,0-0.8,0.5c0,0.1,0,0.1-0.1,0.1c-0.1,0-0.1-0.1-0.1-0.1c0-0.2,0.5-1.1,1.2-1.1
			c0.3,0,0.5,0.2,0.7,0.4c0.1,0.2,0.3,0.3,0.5,0.3c0.2,0,0.4-0.2,0.7-0.6C99.9,4,100,4,100,4c0,0,0.1,0,0.1,0.1c0,0-0.2,0.5-1.2,1.4
			c-0.4,0.4-1,0.9-1,0.9c-0.4,0.3-0.6,0.6-1.2,1.1C96.9,7.5,97.1,7.5,97.1,7.5z"/>
	</g>
	<g>
		<path class="st2" d="M102.9,8.9c-0.6,1.3-1.5,1.9-1.6,1.9c-0.1,0-0.1,0-0.1-0.1c0,0,0-0.1,0.1-0.2c1.2-1.3,1.6-3,1.6-4.7
			c0-2.1-0.6-3.7-1.5-4.7c-0.2-0.2-0.2-0.2-0.2-0.2c0-0.1,0-0.1,0.1-0.1c0.1,0,1,0.6,1.6,1.9c0.5,1.1,0.7,2.3,0.7,3.1
			C103.5,6.7,103.4,7.8,102.9,8.9z"/>
	</g>
	<line class="st3" x1="92.1" y1="105.1" x2="148.8" y2="48.4"/>
	<line class="st3" x1="92.1" y1="105.1" x2="148.8" y2="161.8"/>
	<line class="st4" x1="134.6" y1="62.6" x2="134.6" y2="147.6"/>
	<line class="st1" x1="134.6" y1="108.6" x2="134.6" y2="101.5"/>
	<path class="st5" d="M106.3,105.1c0,0,0.9-4.8,0-7.1c-0.7-1.6-3.5-3.5-3.5-3.5l0,0"/>
	<g>
		<path class="st2" d="M111,95.4c-0.1,0.5-0.1,0.5-0.3,1c-0.1,0.4-0.2,0.6-0.5,0.6c-0.1,0-0.3-0.1-0.3-0.3c0-0.1,0-0.1,0.1-0.2
			c0.4-0.9,1-2.1,1.3-3.3h-0.6c-0.2,0-0.8,0-1.3,0.8c-0.1,0.1-0.1,0.1-0.2,0.1c-0.1,0-0.1-0.1-0.1-0.1c0,0,0.3-0.5,0.6-0.9
			c0.4-0.5,0.8-0.5,1-0.5h3.3c0.2,0,0.4,0,0.4,0.2c0,0.3-0.4,0.3-0.5,0.3h-1.1c-0.1,0.5-0.2,1.1-0.2,1.6c0,0.3,0,0.9,0.3,1.6
			c0.1,0.1,0.1,0.2,0.1,0.2c0,0.2-0.2,0.4-0.4,0.4c-0.1,0-0.3-0.1-0.4-0.5c-0.1-0.3-0.1-0.6-0.1-0.8c0-0.7,0.1-1.1,0.4-2.6h-1.1
			L111,95.4z"/>
		<path class="st2" d="M115.8,99.2c-0.1,0.2-0.1,0.2-0.2,0.2c-0.1,0-0.2-0.1-0.2-0.2c0,0,0,0,0-0.2l3.5-9.5c0-0.1,0.1-0.1,0.2-0.1
			c0.1,0,0.2,0.1,0.2,0.2c0,0,0,0,0,0.2L115.8,99.2z"/>
	</g>
	<g>
		<path class="st2" d="M120.2,95.3V95l3.1-4.7c0.1-0.1,0.1-0.1,0.2-0.1c0.2,0,0.2,0.1,0.2,0.3V95h1v0.3h-1v0.9c0,0.4,0,0.5,0.8,0.5
			h0.2V97c-0.4,0-0.9,0-1.4,0c-0.4,0-0.9,0-1.3,0v-0.3h0.2c0.7,0,0.8-0.1,0.8-0.5v-0.9H120.2z M122.9,91.3l-2.4,3.7h2.4V91.3z"/>
	</g>
	<g>
		<path class="st2" d="M152,36.3c0.5-0.6,0.8-1.3,1-2c0-0.2,0-0.2,0.1-0.2c0.1,0,0.1,0.1,0.1,0.1c0,0-0.2,1.2-1.1,2.3
			c-0.1,0.1-0.1,0.1-0.1,0.3c0,0.2,0,1,0.3,1c0,0,0.4,0,0.6-0.5c0-0.1,0.1-0.1,0.1-0.1c0.1,0,0.1,0,0.1,0.1c0,0.2-0.3,0.7-0.8,0.7
			c-0.4,0-0.8-0.3-0.9-0.8c-0.8,0.6-1.5,0.8-2.1,0.8c-1,0-1.6-0.8-1.6-1.7c0-1.4,1.3-2.8,2.7-2.8c0.7,0,1.7,0.5,1.7,2.1V36.3z
			 M151.3,35.9c0-0.8,0-2.1-1-2.1c-0.3,0-0.9,0.2-1.4,0.9c-0.3,0.5-0.6,1.6-0.6,2.1c0,0.6,0.3,1.1,0.9,1.1c0.4,0,1.2-0.1,2-0.9
			C151.3,36.9,151.3,36.3,151.3,35.9z"/>
	</g>
	<g>
		<path class="st2" d="M157.4,34.8c-0.1,0-0.3,0-0.3-0.2s0.2-0.2,0.3-0.2h6c0.1,0,0.3,0,0.3,0.2s-0.2,0.2-0.3,0.2H157.4z
			 M157.3,36.7c-0.1,0-0.3,0-0.3-0.2s0.2-0.2,0.3-0.2h5.9c0.1,0,0.3,0,0.3,0.2s-0.2,0.2-0.3,0.2H157.3z"/>
	</g>
	<g>
		<path class="st2" d="M168.6,40.2c0,0.2,0,0.4-0.2,0.4s-0.2-0.2-0.2-0.4v-9.2c0-0.2,0-0.4,0.2-0.4s0.2,0.2,0.2,0.4V40.2z"/>
	</g>
	<g>
		<path class="st2" d="M174.5,36.3c0.5-0.6,0.8-1.3,1-2c0-0.2,0-0.2,0.1-0.2c0.1,0,0.1,0.1,0.1,0.1c0,0-0.2,1.2-1.1,2.3
			c-0.1,0.1-0.1,0.1-0.1,0.3c0,0.2,0,1,0.3,1c0,0,0.4,0,0.6-0.5c0-0.1,0.1-0.1,0.1-0.1c0.1,0,0.1,0,0.1,0.1c0,0.2-0.3,0.7-0.8,0.7
			c-0.4,0-0.8-0.3-0.9-0.8c-0.8,0.6-1.5,0.8-2.1,0.8c-1,0-1.6-0.8-1.6-1.7c0-1.4,1.3-2.8,2.7-2.8c0.7,0,1.7,0.5,1.7,2.1V36.3z
			 M173.8,35.9c0-0.8,0-2.1-1-2.1c-0.3,0-0.9,0.2-1.4,0.9c-0.3,0.5-0.6,1.6-0.6,2.1c0,0.6,0.3,1.1,0.9,1.1c0.4,0,1.2-0.1,2-0.9
			C173.8,36.9,173.8,36.3,173.8,35.9z"/>
	</g>
	<g>
		<path class="st2" d="M177.7,40.2c0,0.2,0,0.4-0.2,0.4s-0.2-0.2-0.2-0.4v-9.2c0-0.2,0-0.4,0.2-0.4s0.2,0.2,0.2,0.4V40.2z"/>
	</g>
	<g>
		<path class="st2" d="M180.3,37.2c0.2,0.4,0.6,0.7,1.1,0.7c0.1,0,1,0,1.3-1c0-0.1,0-0.1,0.1-0.1c0,0,0.1,0,0.1,0.1
			c0,0.2-0.4,1.3-1.7,1.3c-1.1,0-2.2-1-2.2-2.3c0-1.2,0.9-2.3,2.1-2.3c1.2,0,1.8,1,1.8,2c0,0.2,0,0.2-0.2,0.2H180
			C180,36.1,180,36.8,180.3,37.2z M182.4,35.5c0-0.4-0.1-1.7-1.1-1.7c-0.3,0-1.2,0.2-1.2,1.7H182.4z"/>
	</g>
	<g>
		<path class="st2" d="M185.4,34.9c0,0.9-0.6,1.5-1.4,1.5c-0.6,0-1.1-0.3-1.1-0.8c0-0.3,0.2-0.5,0.5-0.5c0.3,0,0.5,0.2,0.5,0.5
			c0,0.3-0.2,0.4-0.3,0.4c0.3,0.1,0.5,0.1,0.5,0.1c0.6,0,0.7-0.9,0.7-1.3V31c0-0.5-0.1-0.6-0.9-0.6v-0.3l1.5-0.1V34.9z M184.9,28.8
			c-0.3,0-0.5-0.2-0.5-0.5s0.2-0.5,0.5-0.5s0.5,0.2,0.5,0.5S185.2,28.8,184.9,28.8z"/>
	</g>
	<g>
		<path class="st2" d="M188.1,33.6c-0.2,0.6-0.2,0.9-0.5,0.9c-0.2,0-0.2-0.1-0.2-0.2c0,0,0-0.1,0-0.1c0,0,0.1-0.2,0.1-0.3
			c0.2-0.4,0.6-1.2,0.8-2h-0.4c-0.2,0-0.6,0-0.9,0.5c0,0.1,0,0.1-0.1,0.1c0,0-0.1,0-0.1-0.1c0-0.1,0.3-0.4,0.5-0.6
			c0.3-0.3,0.5-0.4,0.8-0.4h2.6c0.1,0,0.3,0,0.3,0.2c0,0,0,0.1-0.1,0.2c-0.1,0.1-0.1,0.1-0.3,0.1h-0.9c-0.1,0.5-0.1,0.8-0.1,0.9
			c0,0.6,0.1,1,0.3,1.2c0,0.1,0.1,0.1,0.1,0.2c0,0.2-0.2,0.3-0.3,0.3c-0.1,0-0.2,0-0.3-0.4c0-0.2-0.1-0.3-0.1-0.6
			c0-0.6,0.2-1.2,0.3-1.6h-0.8L188.1,33.6z"/>
		<path class="st2" d="M192.1,36c0,0.1-0.1,0.2-0.2,0.2c-0.1,0-0.2-0.1-0.2-0.2c0,0,0,0,0-0.1l2.6-6.5c0-0.1,0.1-0.2,0.2-0.2
			c0.1,0,0.2,0.1,0.2,0.2c0,0,0,0,0,0.1L192.1,36z"/>
	</g>
	<g>
		<path class="st2" d="M198.3,33.3v0.6c0,0.2,0,0.3,0.6,0.3h0.2v0.3c-0.3,0-0.8,0-1.1,0c-0.3,0-0.7,0-1,0v-0.3h0.2
			c0.6,0,0.6-0.1,0.6-0.3v-0.6h-2.1v-0.3l2.3-3.2c0.1-0.1,0.1-0.1,0.2-0.1c0.2,0,0.2,0,0.2,0.2v3.1h0.8v0.3H198.3z M195.9,33.1h1.8
			v-2.6L195.9,33.1z"/>
	</g>
	<g>
		<path class="st2" d="M119.7,149.2c0.5-0.6,0.8-1.3,1-2c0-0.2,0-0.2,0.1-0.2c0.1,0,0.1,0.1,0.1,0.1c0,0-0.2,1.2-1.1,2.3
			c-0.1,0.1-0.1,0.1-0.1,0.3c0,0.2,0,1,0.3,1c0,0,0.4,0,0.6-0.5c0-0.1,0.1-0.1,0.1-0.1c0.1,0,0.1,0,0.1,0.1c0,0.2-0.3,0.7-0.8,0.7
			c-0.4,0-0.8-0.3-0.9-0.8c-0.8,0.6-1.5,0.8-2.1,0.8c-1,0-1.6-0.8-1.6-1.7c0-1.4,1.3-2.8,2.7-2.8c0.7,0,1.7,0.5,1.7,2.1V149.2z
			 M119,148.9c0-0.8,0-2.1-1-2.1c-0.3,0-0.9,0.2-1.4,0.9c-0.3,0.5-0.6,1.6-0.6,2.1c0,0.6,0.3,1.1,0.9,1.1c0.4,0,1.2-0.1,2-0.9
			C119,149.8,119,149.2,119,148.9z"/>
	</g>
	<g>
		<path class="st2" d="M124.6,146c0.1,0,0.1,0.1,0.1,0.2c0,0.1-0.1,0.2-0.2,0.2c-0.1,0-0.1,0-0.3-0.1l-0.8-0.6
			c0,0.2,0.1,0.7,0.1,0.8c0,0.1,0,0.3,0,0.3c0,0.2-0.1,0.2-0.2,0.2s-0.2-0.1-0.2-0.2l0.1-1.1l-0.9,0.6c-0.1,0.1-0.1,0.1-0.1,0.1
			c-0.1,0-0.2-0.1-0.2-0.2c0-0.1,0.1-0.2,0.2-0.2c0.2-0.1,0.4-0.2,1-0.4l-1.1-0.4c-0.1,0-0.1-0.1-0.1-0.2c0-0.1,0.1-0.2,0.2-0.2
			c0.1,0,0.1,0,0.2,0.1l0.9,0.6c0-0.2-0.1-0.7-0.1-0.8c0-0.1,0-0.3,0-0.3c0-0.2,0.1-0.2,0.2-0.2c0.2,0,0.2,0.2,0.2,0.3l-0.1,1
			l0.9-0.6c0.1-0.1,0.1-0.1,0.1-0.1c0.1,0,0.2,0.1,0.2,0.2c0,0.1-0.1,0.2-0.2,0.2c-0.2,0.1-0.4,0.2-1,0.4L124.6,146z"/>
	</g>
	<g>
		<path class="st2" d="M122,63c0.5-0.6,0.8-1.3,1-2c0-0.2,0-0.2,0.1-0.2c0.1,0,0.1,0.1,0.1,0.1c0,0-0.2,1.2-1.1,2.3
			c-0.1,0.1-0.1,0.1-0.1,0.3c0,0.2,0,1,0.3,1c0,0,0.4,0,0.6-0.5c0-0.1,0.1-0.1,0.1-0.1c0.1,0,0.1,0,0.1,0.1c0,0.2-0.3,0.7-0.8,0.7
			c-0.4,0-0.8-0.3-0.9-0.8c-0.8,0.6-1.5,0.8-2.1,0.8c-1,0-1.6-0.8-1.6-1.7c0-1.4,1.3-2.8,2.7-2.8c0.7,0,1.7,0.5,1.7,2.1V63z
			 M121.3,62.6c0-0.8,0-2.1-1-2.1c-0.3,0-0.9,0.2-1.4,0.9c-0.3,0.5-0.6,1.6-0.6,2.1c0,0.6,0.3,1.1,0.9,1.1c0.4,0,1.2-0.1,2-0.9
			C121.3,63.6,121.3,63,121.3,62.6z"/>
	</g>
	<path d="M95.5,105.1c0-1.8-1.5-3.3-3.3-3.3c-1.9,0-3.3,1.5-3.3,3.3c0,1.8,1.5,3.3,3.3,3.3C94,108.4,95.5,106.9,95.5,105.1
		L95.5,105.1z M92.2,108.2c-1.7,0-3.1-1.4-3.1-3.1c0-1.7,1.4-3.1,3.1-3.1c1.7,0,3.1,1.4,3.1,3.1C95.2,106.8,93.8,108.2,92.2,108.2
		L92.2,108.2z M92.8,105.1c0-0.4-0.3-0.7-0.7-0.7c-0.4,0-0.7,0.3-0.7,0.7c0,0.4,0.3,0.7,0.7,0.7C92.6,105.8,92.8,105.5,92.8,105.1
		L92.8,105.1z"/>
	<g>
		<path class="st2" d="M92.1,110c-2.7,0-5-2.2-5-5s2.2-5,5-5c2.7,0,5,2.2,5,5S94.9,110,92.1,110z M96.4,105c0-2.4-1.9-4.3-4.3-4.3
			c-2.4,0-4.3,1.9-4.3,4.3c0,2.4,1.9,4.3,4.3,4.3C94.5,109.3,96.4,107.4,96.4,105z M92.1,105.7c-0.4,0-0.7-0.3-0.7-0.7
			c0-0.4,0.3-0.7,0.7-0.7c0.4,0,0.7,0.3,0.7,0.7C92.8,105.4,92.5,105.7,92.1,105.7z"/>
	</g>
	<g>
		<path class="st2" d="M37.7,121.7c0.2,0,0.9,0,0.9-0.1c0.1-0.1,0.2-0.6,0.2-0.9h0.2l-0.3,1.7h-3.7c0-0.2,0-0.3,0.1-0.4l1.9-2.1
			c0.5-0.6,1-1.4,1-2.2c0-0.8-0.4-1.6-1.3-1.6c-0.6,0-1.1,0.4-1.3,1c0,0,0,0,0.1,0c0.3,0,0.5,0.3,0.5,0.5c0,0.4-0.3,0.5-0.5,0.5
			c0,0-0.5,0-0.5-0.6c0-0.9,0.7-1.8,1.9-1.8c1.2,0,2.1,0.8,2.1,1.9c0,1-0.6,1.5-2.2,2.9l-1.1,1H37.7z"/>
	</g>
	<g>
		<path class="st2" d="M44,122.2h1.2c1.2,0,1.4-0.4,1.5-1.6h0.2l-0.2,1.9h-3.3c-0.2,0-0.3,0-0.3-0.1c0,0,0-0.1,0.1-0.2l2.8-3.8h-1.1
			c-1.1,0-1.3,0.4-1.3,1.4h-0.2l0.1-1.6h3.2c0.2,0,0.3,0,0.3,0.1c0,0,0,0.1-0.1,0.2L44,122.2z"/>
		<path class="st2" d="M48.7,121.7c0.2,0.4,0.6,0.7,1.1,0.7c0.1,0,1,0,1.3-1c0-0.1,0-0.1,0.1-0.1c0,0,0.1,0,0.1,0.1
			c0,0.2-0.4,1.3-1.7,1.3c-1.1,0-2.2-1-2.2-2.3c0-1.2,0.9-2.3,2.1-2.3c1.2,0,1.8,1,1.8,2c0,0.2,0,0.2-0.2,0.2h-2.8
			C48.4,120.5,48.4,121.2,48.7,121.7z M50.8,120c0-0.4-0.1-1.7-1.1-1.7c-0.3,0-1.2,0.3-1.2,1.7H50.8z"/>
		<path class="st2" d="M54.7,118.1c0.4,0,0.7,0.3,0.7,0.6c0,0.3-0.2,0.4-0.4,0.4c-0.2,0-0.4-0.2-0.4-0.4c0-0.3,0.2-0.4,0.2-0.4
			c0,0,0,0-0.1,0c-0.8,0-1.2,0.9-1.2,1.9v1.5c0,0.4,0,0.5,0.8,0.5h0.2v0.3c-0.4,0-0.9,0-1.3,0c-0.3,0-0.7,0-1.1,0v-0.3
			c0.7,0,0.8,0,0.8-0.4v-2.7c0-0.5-0.1-0.6-0.8-0.6v-0.3l1.4-0.1v1.1C53.6,118.7,54,118.1,54.7,118.1z"/>
		<path class="st2" d="M58.2,122.6c-1.2,0-2.2-1-2.2-2.2c0-1.2,1-2.3,2.2-2.3c1.2,0,2.2,1.1,2.2,2.3
			C60.4,121.6,59.4,122.6,58.2,122.6z M59.4,121.6c0.2-0.4,0.2-1,0.2-1.3c0-0.4,0-1-0.3-1.4c-0.3-0.4-0.7-0.6-1.1-0.6
			c-0.4,0-0.9,0.2-1.1,0.7c-0.2,0.4-0.2,1-0.2,1.4c0,0.4,0,1,0.2,1.4c0.3,0.5,0.7,0.7,1.1,0.7C58.7,122.3,59.1,122.1,59.4,121.6z"/>
		<path class="st2" d="M61.5,120.1c-0.3-0.2-0.4-0.5-0.4-0.8c0-0.6,0.4-1.2,1.6-1.2c0.1,0,0.6,0,0.9,0.3c0,0,0.1-0.1,0.2-0.2
			c0.1-0.1,0.1-0.1,0.2-0.1c0.1,0,0.1,0.1,0.1,0.2v1c0,0.2,0,0.2-0.1,0.2c0,0-0.1,0-0.1-0.1c0-0.3-0.1-1.2-1.2-1.2
			c-0.9,0-1.1,0.4-1.1,0.8c0,0.6,0.7,0.7,1.2,0.8c0.4,0.1,0.8,0.2,1.1,0.5c0.1,0.1,0.4,0.4,0.4,0.9c0,0.7-0.5,1.4-1.6,1.4
			c-0.2,0-0.7,0-1.1-0.4c-0.2,0.2-0.2,0.2-0.2,0.2c-0.2,0.2-0.2,0.2-0.2,0.2c-0.1,0-0.1-0.1-0.1-0.2V121c0-0.2,0-0.3,0.1-0.3
			c0.1,0,0.1,0,0.1,0.2c0.2,0.8,0.5,1.4,1.4,1.4c0.8,0,1.1-0.4,1.1-0.9c0-0.7-0.8-0.9-1-0.9C62.1,120.4,61.8,120.4,61.5,120.1z"/>
	</g>
	<polyline points="82.2,111.1 85,108.6 81.3,107.8 82.6,109.2 	"/>
	<line class="st6" x1="56.7" y1="115.7" x2="82.6" y2="109.2"/>
	<path class="st7" d="M131.1,144l7.1,7.1 M131.1,151.1l7.1-7.1 M131.1,59l7.1,7.1 M131.1,66.1l7.1-7.1"/>
</g>
</svg>
