<svg id="Layer_1" data-name="Layer 1" xmlns="http://www.w3.org/2000/svg" viewBox="0 0 248.675 203.373">
  <defs>
    <style>
      .cls-1 {
        fill: blue;
      }

      .cls-2 {
        fill: #e6007e;
      }

      .cls-3, .cls-4, .cls-6, .cls-7, .cls-8, .cls-9 {
        fill: none;
        stroke-miterlimit: 10;
      }

      .cls-3, .cls-4, .cls-9 {
        stroke: #000;
      }

      .cls-3, .cls-6, .cls-7 {
        stroke-width: 1.701px;
      }

      .cls-4 {
        stroke-width: 0.85px;
      }

      .cls-5 {
        fill: red;
      }

      .cls-6 {
        stroke: red;
        stroke-dasharray: 2.921 2.921;
      }

      .cls-7 {
        stroke: blue;
      }

      .cls-8 {
        stroke: #e6007e;
        stroke-width: 1.984px;
      }

      .cls-9 {
        stroke-linecap: round;
        stroke-width: 1.417px;
        stroke-dasharray: 0 3.358;
      }

      .cls-10 {
        fill: #1d1d1b;
      }
    </style>
  </defs>
  <title>PZplot2a</title>
  <g>
    <path class="cls-1" d="M130.4,53.987a1.8,1.8,0,0,1,.727,1.485,2.521,2.521,0,0,1-.8,1.833,2.9,2.9,0,0,1-1.923.787,1.3,1.3,0,0,1-1.355-.966l-.7,2.75c-.01.03-.04.05-.119.05s-.13-.06-.121-.1L127.7,53.5a4.258,4.258,0,0,1,1.287-2.123,1.749,1.749,0,0,1,1.205-.418,1.328,1.328,0,0,1,1.355,1.365A2.084,2.084,0,0,1,130.4,53.987Zm-.338-2.8c-1.2,0-1.913,1.583-2.133,2.44l-.638,2.521a1.613,1.613,0,0,0-.05.439,1.141,1.141,0,0,0,1.136,1.285,2.158,2.158,0,0,0,1.624-.9,3.169,3.169,0,0,0,.5-1.714,1.352,1.352,0,0,0-.437-1.126,1.8,1.8,0,0,1-.818.129c-.179,0-.7.03-.687-.249,0-.329.557-.319.767-.319a1.961,1.961,0,0,1,.767.12,2.084,2.084,0,0,0,.9-1.724A.829.829,0,0,0,130.064,51.188Zm-.738,2.739c-.11,0-.468-.02-.488.08a1.215,1.215,0,0,0,.438.04,1.173,1.173,0,0,0,.478-.07A1.044,1.044,0,0,0,129.326,53.927Z" transform="translate(0 -0.91)"/>
    <path class="cls-1" d="M132.951,57.582a2.762,2.762,0,0,0,.809-.613,1.81,1.81,0,0,1,1.116-.614.494.494,0,0,1,.537.488.415.415,0,0,1-.4.447.259.259,0,0,1-.279-.259.4.4,0,0,1,.362-.39.286.286,0,0,0-.23-.091,1.836,1.836,0,0,0-1.094.663,5.271,5.271,0,0,1-.579.46c.293.021,1.129.119,1.129.739a.974.974,0,0,1-.035.216.989.989,0,0,0-.042.314c0,.188.056.363.244.363.342,0,.531-.495.615-.8.034-.133.041-.168.138-.168.022,0,.113,0,.113.091,0,.007-.21,1.067-.886,1.067a.709.709,0,0,1-.739-.718.68.68,0,0,1,.027-.217.56.56,0,0,0,.015-.139c0-.363-.4-.523-.893-.572-.028.1-.328,1.325-.342,1.353a.337.337,0,0,1-.321.293.227.227,0,0,1-.236-.223.626.626,0,0,1,.034-.153L133,55.176a.711.711,0,0,0,.029-.153c0-.056,0-.105-.335-.105-.084,0-.182,0-.182-.1,0-.147.1-.154.153-.16.175-.015.754-.07.893-.07a.1.1,0,0,1,.112.1.871.871,0,0,1-.028.112Z" transform="translate(0 -0.91)"/>
    <path class="cls-2" d="M158.564,133.126a5.886,5.886,0,0,0,.976-1.974c.05-.178.05-.209.15-.209s.119.08.119.1a5.76,5.76,0,0,1-1.146,2.342c-.1.119-.1.139-.1.348,0,.24,0,1.017.308,1.017.021,0,.379,0,.559-.488.029-.071.06-.1.129-.1s.12.029.12.1a.924.924,0,0,1-.837.707.95.95,0,0,1-.907-.837,3.358,3.358,0,0,1-2.1.837,1.577,1.577,0,0,1-1.614-1.684,2.954,2.954,0,0,1,2.681-2.83c.737,0,1.664.488,1.664,2.053Zm-.688-.369c0-.778,0-2.082-.986-2.082a1.689,1.689,0,0,0-1.356.916,5.184,5.184,0,0,0-.578,2.073c0,.638.3,1.086.9,1.086a3.1,3.1,0,0,0,2.042-.877C157.876,133.7,157.876,133.126,157.876,132.757Z" transform="translate(0 -0.91)"/>
    <path class="cls-2" d="M161.655,134.457a2.8,2.8,0,0,0,.808-.614,1.817,1.817,0,0,1,1.116-.614.493.493,0,0,1,.537.489.413.413,0,0,1-.4.446.258.258,0,0,1-.279-.258.4.4,0,0,1,.362-.39.281.281,0,0,0-.229-.091,1.838,1.838,0,0,0-1.095.662,5.267,5.267,0,0,1-.579.461c.293.02,1.13.118,1.13.738a.984.984,0,0,1-.036.217.98.98,0,0,0-.042.313c0,.189.056.363.245.363.341,0,.53-.5.614-.8.034-.132.041-.167.139-.167.021,0,.112,0,.112.091,0,.006-.21,1.066-.886,1.066a.709.709,0,0,1-.739-.718.674.674,0,0,1,.027-.216.568.568,0,0,0,.015-.139c0-.363-.4-.524-.893-.572-.028.1-.328,1.325-.342,1.353a.336.336,0,0,1-.321.292.227.227,0,0,1-.236-.223.637.637,0,0,1,.034-.153l.983-3.947a.731.731,0,0,0,.029-.154c0-.055,0-.1-.335-.1-.084,0-.182,0-.182-.1,0-.146.1-.153.153-.16.175-.014.754-.07.893-.07a.1.1,0,0,1,.112.1.913.913,0,0,1-.028.112Z" transform="translate(0 -0.91)"/>
    <path class="cls-3" d="M195.278,105.468h0a78.35,78.35,0,1,0-78.349,78.349,78.378,78.378,0,0,0,78.349-78.349Z" transform="translate(0 -0.91)"/>
    <polyline points="218.692 106.429 223.227 104.161 218.692 101.894 219.826 104.161"/>
    <line class="cls-4" y1="104.161" x2="219.826" y2="104.161"/>
    <polyline points="119.196 16.571 116.929 12.036 114.661 16.571 116.929 15.437"/>
    <line class="cls-4" x1="116.929" y1="203.373" x2="116.929" y2="15.437"/>
    <polyline class="cls-5" points="183.387 77.674 187.794 72.272 180.828 71.987 183.529 74.191"/>
    <line class="cls-6" x1="116.929" y1="104.161" x2="183.529" y2="74.191"/>
    <polyline class="cls-1" points="180.854 72.943 187.794 72.272 183.093 67.123 183.429 70.593"/>
    <path class="cls-7" d="M183.429,71.5l-41.7-16.038m2.494,0h0a2.495,2.495,0,1,0-2.494,2.495,2.5,2.5,0,0,0,2.494-2.495Z" transform="translate(0 -0.91)"/>
    <path class="cls-8" d="M166.535,129.874l7.086,7.087m-7.086,0,7.086-7.087" transform="translate(0 -0.91)"/>
    <path class="cls-9" d="M141.732,105.071c0-2.494-1.049-4.592-3.544-7.086h0" transform="translate(0 -0.91)"/>
    <path class="cls-5" d="M149.417,100.735c-.907,0-1.195-1.106-1.195-2.043,0-2.281,1.534-5.091,2.919-5.091,1.017,0,1.2,1.385,1.2,2.043C152.336,97.875,150.823,100.735,149.417,100.735Zm-.219-3.407a7.625,7.625,0,0,0-.319,1.972c0,.927.209,1.216.538,1.216.429,0,.807-.488,1.156-1.166a8.995,8.995,0,0,0,.7-2.022Zm2.163-.319a8.313,8.313,0,0,0,.318-1.983c0-.568-.06-1.206-.548-1.206-.448,0-.817.558-1.086,1.046a9.054,9.054,0,0,0-.767,2.143Z" transform="translate(0 -0.91)"/>
    <path class="cls-5" d="M154.463,102.2c-1.618,0-1.618-1.861-1.618-2.364s0-2.4,1.618-2.4a1.447,1.447,0,0,1,1.206.6,3.1,3.1,0,0,1,.412,1.806C156.081,100.341,156.081,102.2,154.463,102.2Zm.893-.983a7.583,7.583,0,0,0,.091-1.471,5.593,5.593,0,0,0-.12-1.485.9.9,0,0,0-1.743.062,6.012,6.012,0,0,0-.1,1.423,7.268,7.268,0,0,0,.1,1.5.9.9,0,0,0,1.779-.028Z" transform="translate(0 -0.91)"/>
    <path class="cls-1" d="M164.279,60.563a1.191,1.191,0,0,1-1.335-1.235,6.094,6.094,0,0,1,.568-2.043,2.062,2.062,0,0,0,.169-.7c0-.318-.169-.318-.249-.318-.289,0-.718.229-1.006,1.235-.05.16-.06.18-.16.18-.02,0-.119,0-.119-.1s.379-1.535,1.315-1.535a.791.791,0,0,1,.817.818,1.22,1.22,0,0,1-.12.5,7.017,7.017,0,0,0-.578,2.112c0,.518.23.867.738.867,1.166,0,1.773-2.282,1.773-2.7a1.066,1.066,0,0,0-.339-.817c-.109-.11-.159-.17-.159-.3a.533.533,0,0,1,.488-.479c.18,0,.439.16.439.7C166.521,57.265,165.952,60.563,164.279,60.563Z" transform="translate(0 -0.91)"/>
    <path class="cls-1" d="M168.991,61.319c0,.23,0,.321.7.321h.265v.251c-.154-.007-1.032-.028-1.249-.028-.257,0-1.115.021-1.241.028V61.64h.266c.7,0,.7-.091.7-.321V57.763a2.3,2.3,0,0,1-1.012.2v-.251a1.907,1.907,0,0,0,1.368-.446c.195,0,.209.007.209.2Z" transform="translate(0 -0.91)"/>
    <path class="cls-5" d="M187.763,74.778a1.933,1.933,0,1,1,1.933-1.933A1.943,1.943,0,0,1,187.763,74.778Z" transform="translate(0 -0.91)"/>
    <g>
      <path class="cls-10" d="M230.587,105.361l.13.8c.14.927.219,1.435.707,1.435.249,0,.6-.18.658-.887.01-.07.01-.159.119-.159.13,0,.13.109.13.169,0,.279-.17,1.1-.947,1.1a1.941,1.941,0,0,1-1.255-.418c-.409-.379-.409-.778-.409-1.425,0-.668,0-.977-.378-1.335a1.271,1.271,0,0,0-.927-.339H227.27v2.52c0,.359.019.469.787.469h.238v.309c-.358-.031-1.065-.031-1.454-.031s-1.1,0-1.455.031v-.309h.239c.768,0,.787-.11.787-.469v-5.251c0-.357-.019-.467-.787-.467h-.239v-.309h3.129c1.465,0,2.6.837,2.6,1.793,0,.777-.778,1.385-1.745,1.624A1.73,1.73,0,0,1,230.587,105.361Zm-2.212-1.285c1.475,0,1.714-.806,1.714-1.494,0-1.444-1.116-1.484-2.013-1.484a4.841,4.841,0,0,0-.587.02c-.219.029-.219.149-.219.378v2.58Z" transform="translate(0 -0.91)"/>
      <path class="cls-10" d="M233.765,106.787a1.34,1.34,0,0,0,1.126.667,1.4,1.4,0,0,0,1.345-1.026c.019-.079.04-.14.13-.14a.116.116,0,0,1,.128.12,1.7,1.7,0,0,1-1.664,1.3,2.249,2.249,0,0,1-2.191-2.3,2.177,2.177,0,0,1,2.072-2.271,1.767,1.767,0,0,1,1.783,1.953c0,.209-.029.209-.249.209h-2.779A2.9,2.9,0,0,0,233.765,106.787Zm2.072-1.7c0-.389-.1-1.734-1.126-1.734-.339,0-1.176.25-1.235,1.734Z" transform="translate(0 -0.91)"/>
    </g>
    <path class="cls-10" d="M239.993,110.085a4.3,4.3,0,0,1-1.553-1.873,7.676,7.676,0,0,1-.031-6.148,4.348,4.348,0,0,1,1.584-1.943.09.09,0,0,1,.1.1c0,.03,0,.05-.129.169a6.52,6.52,0,0,0-1.6,4.713,6.6,6.6,0,0,0,1.564,4.663c.169.17.169.189.169.219A.09.09,0,0,1,239.993,110.085Z" transform="translate(0 -0.91)"/>
    <path class="cls-10" d="M242.225,106.737a1.762,1.762,0,0,1,.7.169,1.837,1.837,0,0,0,.588.13,1.3,1.3,0,0,0,1.195-.837c.031-.07.05-.13.14-.13a.105.105,0,0,1,.119.1c0,.269-.577,1.534-1.564,1.534a.8.8,0,0,1-.638-.368c-.249-.289-.349-.379-.577-.379a1.149,1.149,0,0,0-.848.618c-.059.11-.079.129-.159.129-.02,0-.119,0-.119-.1a4.741,4.741,0,0,1,1.026-1.3l.9-.837a14.945,14.945,0,0,0,1.384-1.306,1.679,1.679,0,0,1-.766-.149,1.915,1.915,0,0,0-.628-.15.918.918,0,0,0-.848.468c-.019.061-.039.111-.129.111a.109.109,0,0,1-.12-.111c0-.209.459-1.136,1.206-1.136a.868.868,0,0,1,.688.429c.149.169.268.319.508.319s.448-.16.748-.638c.049-.089.079-.11.149-.11a.1.1,0,0,1,.109.1,4.709,4.709,0,0,1-1.166,1.445c-.358.359-.976.887-.976.9a12.258,12.258,0,0,0-1.186,1.136A1.066,1.066,0,0,1,242.225,106.737Z" transform="translate(0 -0.91)"/>
    <path class="cls-10" d="M248.047,108.142a4.341,4.341,0,0,1-1.584,1.943.094.094,0,0,1-.1-.1c0-.03,0-.049.128-.17a7.749,7.749,0,0,0,.06-9.365c-.188-.179-.188-.2-.188-.229a.094.094,0,0,1,.1-.1,4.3,4.3,0,0,1,1.554,1.873,7.671,7.671,0,0,1,.03,6.148Z" transform="translate(0 -0.91)"/>
    <g>
      <path class="cls-10" d="M106.811,7.606c0,.359.03.468.817.468h.259v.309c-.349-.029-1.136-.029-1.524-.029s-1.166,0-1.515.029V8.074h.259c.787,0,.817-.109.817-.468V2.355c0-.358-.03-.468-.817-.468h-.259V1.578c.349.03,1.136.03,1.525.03s1.165,0,1.514-.03v.309h-.259c-.787,0-.817.11-.817.468Z" transform="translate(0 -0.91)"/>
      <path class="cls-10" d="M108.485,4.4V4.089l1.4-.11V5.025a1.573,1.573,0,0,1,1.475-1.046,1.179,1.179,0,0,1,1.325.977,1.578,1.578,0,0,1,1.445-.977,1.328,1.328,0,0,1,1.046.369c.31.359.31.668.31,1.525v1.9c.009.3.258.3.776.3v.309c-.338-.009-.857-.029-1.115-.029s-.778.02-1.126.029V8.074c.667,0,.777,0,.777-.448V5.3c0-.568-.11-1.106-.738-1.106a1.455,1.455,0,0,0-1.344,1.594V7.626c0,.448.109.448.776.448v.309c-.338-.009-.857-.029-1.115-.029s-.778.02-1.126.029V8.074c.667,0,.777,0,.777-.448V5.3c0-.568-.11-1.106-.737-1.106a1.456,1.456,0,0,0-1.346,1.594V7.626c0,.448.11.448.777.448v.309c-.338-.009-.857-.029-1.115-.029s-.778.02-1.126.029V8.074c.667,0,.777,0,.777-.448V4.956C109.262,4.467,109.182,4.4,108.485,4.4Z" transform="translate(0 -0.91)"/>
    </g>
    <path class="cls-10" d="M119.642,10.875A4.309,4.309,0,0,1,118.088,9a7.262,7.262,0,0,1-.658-3.109,7.236,7.236,0,0,1,.628-3.038A4.347,4.347,0,0,1,119.642.91a.09.09,0,0,1,.1.1c0,.03,0,.05-.129.169a6.517,6.517,0,0,0-1.6,4.713,6.6,6.6,0,0,0,1.564,4.664c.169.169.169.189.169.219A.09.09,0,0,1,119.642,10.875Z" transform="translate(0 -0.91)"/>
    <path class="cls-10" d="M121.882,7.526a1.76,1.76,0,0,1,.7.17,1.84,1.84,0,0,0,.588.129,1.3,1.3,0,0,0,1.2-.837c.03-.07.05-.129.14-.129a.105.105,0,0,1,.119.1c0,.27-.578,1.535-1.564,1.535a.8.8,0,0,1-.638-.369c-.249-.289-.348-.378-.578-.378a1.149,1.149,0,0,0-.847.617c-.06.11-.079.13-.159.13-.02,0-.12,0-.12-.1a4.781,4.781,0,0,1,1.026-1.305l.9-.837a14.778,14.778,0,0,0,1.385-1.305,1.673,1.673,0,0,1-.767-.15,1.9,1.9,0,0,0-.628-.149.915.915,0,0,0-.846.468c-.021.06-.041.11-.13.11a.107.107,0,0,1-.12-.11c0-.209.458-1.136,1.206-1.136a.868.868,0,0,1,.688.429c.149.169.269.319.508.319s.448-.16.747-.638c.05-.09.08-.11.15-.11a.1.1,0,0,1,.109.1,4.737,4.737,0,0,1-1.166,1.444c-.358.359-.976.888-.976.9a12.642,12.642,0,0,0-1.186,1.136A1.066,1.066,0,0,1,121.882,7.526Z" transform="translate(0 -0.91)"/>
    <path class="cls-10" d="M127.7,8.931a4.347,4.347,0,0,1-1.584,1.944.094.094,0,0,1-.1-.1c0-.03,0-.05.129-.17a6.535,6.535,0,0,0,1.6-4.713A6.463,6.463,0,0,0,126.2,1.239c-.188-.179-.188-.2-.188-.229a.094.094,0,0,1,.1-.1,4.3,4.3,0,0,1,1.553,1.874,7.261,7.261,0,0,1,.659,3.108A7.259,7.259,0,0,1,127.7,8.931Z" transform="translate(0 -0.91)"/>
    <path class="cls-5" d="M197.147,73.94a1.767,1.767,0,0,1,.7.17,1.835,1.835,0,0,0,.588.129,1.3,1.3,0,0,0,1.195-.837c.03-.069.05-.129.14-.129a.105.105,0,0,1,.119.1c0,.269-.577,1.534-1.564,1.534a.8.8,0,0,1-.638-.369c-.249-.288-.349-.378-.577-.378a1.15,1.15,0,0,0-.848.617c-.06.11-.079.13-.159.13-.02,0-.119,0-.119-.1a4.757,4.757,0,0,1,1.026-1.305l.9-.837a14.913,14.913,0,0,0,1.384-1.305,1.669,1.669,0,0,1-.766-.15,1.912,1.912,0,0,0-.628-.149.918.918,0,0,0-.848.468c-.019.06-.039.11-.129.11a.107.107,0,0,1-.12-.11c0-.209.459-1.136,1.206-1.136a.868.868,0,0,1,.688.429c.149.169.268.319.507.319s.449-.16.749-.638c.049-.09.079-.11.149-.11a.1.1,0,0,1,.109.1,4.723,4.723,0,0,1-1.166,1.445c-.358.358-.976.887-.976.9a12.775,12.775,0,0,0-1.186,1.136A1.066,1.066,0,0,1,197.147,73.94Z" transform="translate(0 -0.91)"/>
    <g>
      <path class="cls-5" d="M204.254,71.539c-.149,0-.339,0-.339-.2s.19-.2.329-.2h5.969c.14,0,.328,0,.328.2s-.188.2-.338.2Zm-.01,1.933c-.139,0-.329,0-.329-.2s.19-.2.339-.2H210.2c.15,0,.338,0,.338.2s-.188.2-.328.2Z" transform="translate(0 -0.91)"/>
      <path class="cls-5" d="M215.324,73.99a1.337,1.337,0,0,0,1.125.668,1.4,1.4,0,0,0,1.345-1.027c.02-.079.04-.139.13-.139a.115.115,0,0,1,.129.12,1.7,1.7,0,0,1-1.664,1.3,2.249,2.249,0,0,1-2.191-2.3,2.177,2.177,0,0,1,2.072-2.272,1.768,1.768,0,0,1,1.783,1.954c0,.209-.029.209-.249.209h-2.779A2.9,2.9,0,0,0,215.324,73.99Zm2.072-1.7c0-.389-.1-1.734-1.126-1.734-.339,0-1.176.249-1.236,1.734Z" transform="translate(0 -0.91)"/>
    </g>
    <path class="cls-5" d="M220.45,71.577a1.434,1.434,0,0,1-1.365,1.544c-.568,0-1.126-.279-1.126-.8a.459.459,0,0,1,.917,0,.46.46,0,0,1-.349.448,1.207,1.207,0,0,0,.538.13c.637,0,.727-.857.727-1.305V67.651c0-.488-.09-.558-.856-.558v-.309l1.514-.11Zm-.528-6.108a.528.528,0,1,1,.528-.528A.531.531,0,0,1,219.922,65.469Z" transform="translate(0 -0.91)"/>
    <path class="cls-5" d="M222.759,71.148c-.642,0-.962-.683-.962-1.513,0-1.6,1.115-3.466,2.161-3.466.684,0,.963.782.963,1.514C224.921,69.245,223.82,71.148,222.759,71.148Zm-.237-2.364a5.342,5.342,0,0,0-.2,1.262c0,.377.063.907.446.907.308,0,.586-.328.8-.69a5.015,5.015,0,0,0,.564-1.479Zm1.674-.251a5.551,5.551,0,0,0,.2-1.262c0-.132,0-.906-.447-.906-.411,0-1.01.662-1.366,2.168Z" transform="translate(0 -0.91)"/>
    <path class="cls-5" d="M226.885,72.141c-1.3,0-1.3-1.338-1.3-1.7s0-1.721,1.3-1.721,1.3,1.363,1.3,1.721S228.183,72.141,226.885,72.141Zm.727-.721a4.739,4.739,0,0,0,.074-1.04,4.262,4.262,0,0,0-.07-.96.706.706,0,0,0-.731-.537.718.718,0,0,0-.722.5,3.892,3.892,0,0,0-.079.995,4.484,4.484,0,0,0,.074,1.03.751.751,0,0,0,1.454.01Z" transform="translate(0 -0.91)"/>
  </g>
</svg>
