<?xml version="1.0" encoding="utf-8"?>
<!-- Generator: Adobe Illustrator 22.1.0, SVG Export Plug-In . SVG Version: 6.00 Build 0)  -->
<svg version="1.1" id="Layer_1" xmlns="http://www.w3.org/2000/svg" xmlns:xlink="http://www.w3.org/1999/xlink" x="0px" y="0px"
	 viewBox="0 0 249.7 204.3" style="enable-background:new 0 0 249.7 204.3;" xml:space="preserve">
<style type="text/css">
	.st0{fill:#0000FF;}
	.st1{fill:#E6007E;}
	.st2{fill:none;stroke:#000000;stroke-width:1.7008;stroke-miterlimit:10;}
	.st3{fill:none;stroke:#000000;stroke-width:0.8504;stroke-miterlimit:10;}
	.st4{fill:#FF0000;}
	.st5{fill:none;stroke:#FF0000;stroke-width:1.7008;stroke-miterlimit:10;stroke-dasharray:2.9213,2.9213;}
	.st6{fill:none;stroke:#0000FF;stroke-width:1.7008;stroke-miterlimit:10;}
	.st7{fill:none;stroke:#E6007E;stroke-width:1.7008;stroke-miterlimit:10;}
	.st8{fill:none;stroke:#E6007E;stroke-width:1.9842;stroke-miterlimit:10;}
	.st9{fill:none;stroke:#000000;stroke-width:1.4173;stroke-linecap:round;stroke-miterlimit:10;stroke-dasharray:0,3.358;}
	.st10{fill:#1D1D1B;}
</style>
<g>
	<g>
		<path class="st0" d="M130.4,54c0.4,0.2,0.7,0.8,0.7,1.5c0,0.7-0.3,1.4-0.8,1.8c-0.4,0.4-1.2,0.8-1.9,0.8c-0.7,0-1.2-0.4-1.4-1
			l-0.7,2.8c0,0,0,0-0.1,0c-0.1,0-0.1-0.1-0.1-0.1l1.6-6.3c0.2-0.8,0.7-1.7,1.3-2.1c0.3-0.3,0.6-0.4,1.2-0.4c0.8,0,1.4,0.6,1.4,1.4
			C131.5,53,131,53.7,130.4,54z M130.1,51.2c-1.2,0-1.9,1.6-2.1,2.4l-0.6,2.5c0,0.2,0,0.3,0,0.4c0,0.7,0.4,1.3,1.1,1.3
			c0.6,0,1.2-0.4,1.6-0.9c0.3-0.4,0.5-1.1,0.5-1.7c0-0.5-0.1-0.8-0.4-1.1c-0.3,0.1-0.4,0.1-0.8,0.1c-0.2,0-0.7,0-0.7-0.2
			c0-0.3,0.6-0.3,0.8-0.3c0.3,0,0.5,0,0.8,0.1c0.5-0.3,0.9-1,0.9-1.7C131,51.5,130.6,51.2,130.1,51.2z M129.3,53.9
			c-0.1,0-0.5,0-0.5,0.1c0.1,0,0.3,0,0.4,0c0.2,0,0.3,0,0.5-0.1C129.6,53.9,129.5,53.9,129.3,53.9z"/>
	</g>
	<g>
		<path class="st0" d="M133,57.6c0.3-0.1,0.5-0.3,0.8-0.6c0.4-0.3,0.7-0.6,1.1-0.6c0.4,0,0.5,0.3,0.5,0.5c0,0.3-0.2,0.4-0.4,0.4
			c-0.2,0-0.3-0.1-0.3-0.3c0-0.1,0.1-0.3,0.4-0.4c-0.1-0.1-0.1-0.1-0.2-0.1c-0.4,0-0.7,0.3-1.1,0.7c-0.1,0.1-0.4,0.3-0.6,0.5
			c0.3,0,1.1,0.1,1.1,0.7c0,0.1,0,0.2,0,0.2c0,0.2,0,0.2,0,0.3c0,0.2,0.1,0.4,0.2,0.4c0.3,0,0.5-0.5,0.6-0.8c0-0.1,0-0.2,0.1-0.2
			c0,0,0.1,0,0.1,0.1c0,0-0.2,1.1-0.9,1.1c-0.3,0-0.7-0.2-0.7-0.7c0-0.1,0-0.1,0-0.2c0-0.1,0-0.1,0-0.1c0-0.4-0.4-0.5-0.9-0.6
			c0,0.1-0.3,1.3-0.3,1.4c0,0.2-0.1,0.3-0.3,0.3c-0.2,0-0.2-0.1-0.2-0.2c0,0,0,0,0-0.2l1-3.9c0-0.1,0-0.1,0-0.2c0-0.1,0-0.1-0.3-0.1
			c-0.1,0-0.2,0-0.2-0.1c0-0.1,0.1-0.2,0.2-0.2c0.2,0,0.8-0.1,0.9-0.1c0.1,0,0.1,0.1,0.1,0.1c0,0,0,0.1,0,0.1L133,57.6z"/>
	</g>
	<g>
		<path class="st1" d="M158.6,133.1c0.5-0.6,0.8-1.3,1-2c0-0.2,0-0.2,0.1-0.2c0.1,0,0.1,0.1,0.1,0.1c0,0-0.2,1.2-1.1,2.3
			c-0.1,0.1-0.1,0.1-0.1,0.3c0,0.2,0,1,0.3,1c0,0,0.4,0,0.6-0.5c0-0.1,0.1-0.1,0.1-0.1c0.1,0,0.1,0,0.1,0.1c0,0.2-0.3,0.7-0.8,0.7
			c-0.4,0-0.8-0.3-0.9-0.8c-0.8,0.6-1.5,0.8-2.1,0.8c-1,0-1.6-0.8-1.6-1.7c0-1.4,1.3-2.8,2.7-2.8c0.7,0,1.7,0.5,1.7,2.1V133.1z
			 M157.9,132.8c0-0.8,0-2.1-1-2.1c-0.3,0-0.9,0.2-1.4,0.9c-0.3,0.5-0.6,1.6-0.6,2.1c0,0.6,0.3,1.1,0.9,1.1c0.4,0,1.2-0.1,2-0.9
			C157.9,133.7,157.9,133.1,157.9,132.8z"/>
	</g>
	<g>
		<path class="st1" d="M161.7,134.5c0.3-0.1,0.5-0.3,0.8-0.6c0.4-0.3,0.7-0.6,1.1-0.6c0.4,0,0.5,0.3,0.5,0.5c0,0.3-0.2,0.4-0.4,0.4
			c-0.2,0-0.3-0.1-0.3-0.3c0-0.1,0.1-0.3,0.4-0.4c-0.1-0.1-0.1-0.1-0.2-0.1c-0.4,0-0.7,0.3-1.1,0.7c-0.1,0.1-0.4,0.3-0.6,0.5
			c0.3,0,1.1,0.1,1.1,0.7c0,0.1,0,0.2,0,0.2c0,0.2,0,0.2,0,0.3c0,0.2,0.1,0.4,0.2,0.4c0.3,0,0.5-0.5,0.6-0.8c0-0.1,0-0.2,0.1-0.2
			c0,0,0.1,0,0.1,0.1c0,0-0.2,1.1-0.9,1.1c-0.3,0-0.7-0.2-0.7-0.7c0-0.1,0-0.1,0-0.2c0-0.1,0-0.1,0-0.1c0-0.4-0.4-0.5-0.9-0.6
			c0,0.1-0.3,1.3-0.3,1.4c0,0.2-0.1,0.3-0.3,0.3c-0.2,0-0.2-0.1-0.2-0.2c0,0,0,0,0-0.2l1-3.9c0-0.1,0-0.1,0-0.2c0-0.1,0-0.1-0.3-0.1
			c-0.1,0-0.2,0-0.2-0.1c0-0.1,0.1-0.2,0.2-0.2c0.2,0,0.8-0.1,0.9-0.1c0.1,0,0.1,0.1,0.1,0.1c0,0,0,0.1,0,0.1L161.7,134.5z"/>
	</g>
	<path class="st2" d="M195.3,105.5L195.3,105.5c0-43.2-35.1-78.3-78.3-78.3s-78.3,35.1-78.3,78.3c0,43.2,35.1,78.3,78.3,78.3
		S195.3,148.7,195.3,105.5L195.3,105.5z"/>
	<polyline points="218.7,107.3 223.2,105.1 218.7,102.8 219.8,105.1 	"/>
	<line class="st3" x1="0" y1="105.1" x2="219.8" y2="105.1"/>
	<polyline points="119.2,17.5 116.9,12.9 114.7,17.5 116.9,16.3 	"/>
	<line class="st3" x1="116.9" y1="204.3" x2="116.9" y2="16.3"/>
	<polyline class="st4" points="183.4,78.6 187.8,73.2 180.8,72.9 183.5,75.1 	"/>
	<line class="st5" x1="116.9" y1="105.1" x2="183.5" y2="75.1"/>
	<polyline class="st0" points="180.9,73.9 187.8,73.2 183.1,68 183.4,71.5 	"/>
	<line class="st6" x1="183.4" y1="71.5" x2="141.7" y2="55.5"/>
	<polyline class="st1" points="189,80 187.8,73.2 183,78.3 186.5,77.7 	"/>
	<line class="st7" x1="186.5" y1="77.7" x2="170.1" y2="133.4"/>
	<path class="st6" d="M144.2,55.5L144.2,55.5c0-1.4-1.1-2.5-2.5-2.5c-1.4,0-2.5,1.1-2.5,2.5s1.1,2.5,2.5,2.5
		C143.1,58,144.2,56.8,144.2,55.5L144.2,55.5z"/>
	<path class="st8" d="M166.5,129.9l7.1,7.1 M166.5,137l7.1-7.1"/>
	<path class="st9" d="M141.7,105.1c0-2.5-1-4.6-3.5-7.1l0,0c-2.5-2.5-2.5-2.5,0,0"/>
	<g>
		<path class="st4" d="M149.4,100.7c-0.9,0-1.2-1.1-1.2-2c0-2.3,1.5-5.1,2.9-5.1c1,0,1.2,1.4,1.2,2
			C152.3,97.9,150.8,100.7,149.4,100.7z M149.2,97.3c-0.3,1-0.3,1.6-0.3,2c0,0.9,0.2,1.2,0.5,1.2c0.4,0,0.8-0.5,1.2-1.2
			c0.4-0.7,0.6-1.6,0.7-2H149.2z M151.4,97c0.2-1,0.3-1.5,0.3-2c0-0.6-0.1-1.2-0.5-1.2c-0.4,0-0.8,0.6-1.1,1
			c-0.4,0.7-0.6,1.5-0.8,2.1H151.4z"/>
	</g>
	<g>
		<path class="st4" d="M154.5,102.2c-1.6,0-1.6-1.9-1.6-2.4c0-0.5,0-2.4,1.6-2.4c0.6,0,1,0.3,1.2,0.6c0.3,0.5,0.4,1,0.4,1.8
			C156.1,100.3,156.1,102.2,154.5,102.2z M155.4,101.2c0.1-0.4,0.1-1,0.1-1.5c0-0.6,0-1.1-0.1-1.5c-0.1-0.4-0.5-0.6-0.9-0.6
			c-0.3,0-0.7,0.1-0.9,0.7c-0.1,0.4-0.1,0.9-0.1,1.4c0,0.5,0,1.1,0.1,1.5c0.1,0.6,0.6,0.8,0.9,0.8
			C154.7,102,155.2,101.9,155.4,101.2z"/>
	</g>
	<g>
		<path class="st0" d="M164.3,60.6c-0.5,0-1.3-0.2-1.3-1.2c0-0.4,0.1-0.9,0.6-2c0.1-0.2,0.2-0.4,0.2-0.7c0-0.3-0.2-0.3-0.2-0.3
			c-0.3,0-0.7,0.2-1,1.2c0,0.2-0.1,0.2-0.2,0.2c0,0-0.1,0-0.1-0.1c0-0.1,0.4-1.5,1.3-1.5c0.5,0,0.8,0.4,0.8,0.8c0,0.2,0,0.3-0.1,0.5
			c-0.3,0.8-0.6,1.6-0.6,2.1c0,0.5,0.2,0.9,0.7,0.9c1.2,0,1.8-2.3,1.8-2.7c0-0.4-0.1-0.6-0.3-0.8c-0.1-0.1-0.2-0.2-0.2-0.3
			c0-0.2,0.2-0.5,0.5-0.5c0.2,0,0.4,0.2,0.4,0.7C166.5,57.3,166,60.6,164.3,60.6z"/>
	</g>
	<g>
		<path class="st0" d="M169,61.3c0,0.2,0,0.3,0.7,0.3h0.3v0.3c-0.2,0-1,0-1.2,0c-0.3,0-1.1,0-1.2,0v-0.3h0.3c0.7,0,0.7-0.1,0.7-0.3
			v-3.6c-0.4,0.2-0.8,0.2-1,0.2v-0.3c0.3,0,0.9,0,1.4-0.4c0.2,0,0.2,0,0.2,0.2V61.3z"/>
	</g>
	<g>
		<path class="st1" d="M171.4,96c-0.5,0-1.3-0.2-1.3-1.2c0-0.4,0.1-0.9,0.6-2c0.1-0.2,0.2-0.4,0.2-0.7c0-0.3-0.2-0.3-0.2-0.3
			c-0.3,0-0.7,0.2-1,1.2c0,0.2-0.1,0.2-0.2,0.2c0,0-0.1,0-0.1-0.1c0-0.1,0.4-1.5,1.3-1.5c0.5,0,0.8,0.4,0.8,0.8c0,0.2,0,0.3-0.1,0.5
			c-0.3,0.8-0.6,1.6-0.6,2.1c0,0.5,0.2,0.9,0.7,0.9c1.2,0,1.8-2.3,1.8-2.7c0-0.4-0.1-0.6-0.3-0.8c-0.1-0.1-0.2-0.2-0.2-0.3
			c0-0.2,0.2-0.5,0.5-0.5c0.2,0,0.4,0.2,0.4,0.7C173.6,92.7,173,96,171.4,96z"/>
	</g>
	<g>
		<path class="st1" d="M177.1,97.3h-2.9c0-0.2,0-0.2,0.1-0.3l1.7-1.7c0.2-0.3,0.7-0.7,0.7-1.3c0-0.6-0.4-1.1-1.1-1.1
			c-0.3,0-0.8,0.2-1,0.6c0.4,0,0.4,0.2,0.4,0.4c0,0.3-0.2,0.4-0.4,0.4c-0.1,0-0.4,0-0.4-0.4c0-0.6,0.6-1.2,1.5-1.2
			c0.9,0,1.6,0.5,1.6,1.4c0,0.7-0.5,1.1-1,1.5c-0.4,0.3-0.7,0.5-1.4,1.2h1.3c0.1,0,0.6,0,0.7,0c0.1-0.1,0.2-0.5,0.2-0.6h0.2
			L177.1,97.3z"/>
	</g>
	<g>
		<path class="st4" d="M187.8,74.8c-1.1,0-1.9-0.9-1.9-1.9c0-1,0.9-1.9,1.9-1.9c1,0,1.9,0.9,1.9,1.9
			C189.7,73.9,188.8,74.8,187.8,74.8z"/>
	</g>
	<g>
		<path class="st10" d="M230.6,105.4l0.1,0.8c0.1,0.9,0.2,1.4,0.7,1.4c0.2,0,0.6-0.2,0.7-0.9c0-0.1,0-0.2,0.1-0.2
			c0.1,0,0.1,0.1,0.1,0.2c0,0.3-0.2,1.1-0.9,1.1c-0.3,0-0.8-0.1-1.3-0.4c-0.4-0.4-0.4-0.8-0.4-1.4c0-0.7,0-1-0.4-1.3
			c-0.3-0.3-0.8-0.3-0.9-0.3h-1.1v2.5c0,0.4,0,0.5,0.8,0.5h0.2v0.3c-0.4,0-1.1,0-1.5,0s-1.1,0-1.5,0v-0.3h0.2c0.8,0,0.8-0.1,0.8-0.5
			v-5.3c0-0.4,0-0.5-0.8-0.5h-0.2v-0.3h3.1c1.5,0,2.6,0.8,2.6,1.8c0,0.8-0.8,1.4-1.7,1.6C229.9,104.4,230.4,104.7,230.6,105.4z
			 M228.4,104.1c1.5,0,1.7-0.8,1.7-1.5c0-1.4-1.1-1.5-2-1.5c-0.2,0-0.5,0-0.6,0c-0.2,0-0.2,0.1-0.2,0.4v2.6H228.4z"/>
		<path class="st10" d="M233.8,106.8c0.2,0.4,0.6,0.7,1.1,0.7c0.1,0,1,0,1.3-1c0-0.1,0-0.1,0.1-0.1c0,0,0.1,0,0.1,0.1
			c0,0.2-0.4,1.3-1.7,1.3c-1.1,0-2.2-1-2.2-2.3c0-1.2,0.9-2.3,2.1-2.3c1.2,0,1.8,1,1.8,2c0,0.2,0,0.2-0.2,0.2h-2.8
			C233.5,105.7,233.5,106.3,233.8,106.8z M235.8,105.1c0-0.4-0.1-1.7-1.1-1.7c-0.3,0-1.2,0.3-1.2,1.7H235.8z"/>
	</g>
	<g>
		<path class="st10" d="M240,110.1c-0.1,0-1-0.6-1.6-1.9c-0.5-1.1-0.7-2.3-0.7-3.1c0-0.8,0.1-1.9,0.6-3c0.6-1.3,1.5-1.9,1.6-1.9
			c0.1,0,0.1,0,0.1,0.1c0,0,0,0-0.1,0.2c-1.2,1.2-1.6,3-1.6,4.7c0,1.5,0.3,3.4,1.6,4.7C240.1,109.9,240.1,110,240,110.1
			C240.1,110.1,240.1,110.1,240,110.1z"/>
	</g>
	<g>
		<path class="st10" d="M242.2,106.7c0.2,0,0.4,0,0.7,0.2c0.2,0.1,0.4,0.1,0.6,0.1c0.3,0,1-0.2,1.2-0.8c0-0.1,0-0.1,0.1-0.1
			c0.1,0,0.1,0,0.1,0.1c0,0.3-0.6,1.5-1.6,1.5c-0.3,0-0.5-0.2-0.6-0.4c-0.2-0.3-0.3-0.4-0.6-0.4c-0.3,0-0.6,0.3-0.8,0.6
			c-0.1,0.1-0.1,0.1-0.2,0.1c0,0-0.1,0-0.1-0.1c0-0.1,0.3-0.6,1-1.3l0.9-0.8c0.2-0.2,1-0.9,1.4-1.3c-0.3,0-0.4,0-0.8-0.1
			c-0.2-0.1-0.4-0.1-0.6-0.1c-0.1,0-0.7,0-0.8,0.5c0,0.1,0,0.1-0.1,0.1s-0.1-0.1-0.1-0.1c0-0.2,0.5-1.1,1.2-1.1
			c0.3,0,0.5,0.2,0.7,0.4c0.1,0.2,0.3,0.3,0.5,0.3s0.4-0.2,0.7-0.6c0-0.1,0.1-0.1,0.1-0.1c0,0,0.1,0,0.1,0.1c0,0-0.2,0.5-1.2,1.4
			c-0.4,0.4-1,0.9-1,0.9c-0.4,0.3-0.6,0.6-1.2,1.1C242,106.7,242.2,106.7,242.2,106.7z"/>
	</g>
	<g>
		<path class="st10" d="M248,108.1c-0.6,1.3-1.5,1.9-1.6,1.9c-0.1,0-0.1,0-0.1-0.1c0,0,0,0,0.1-0.2c1.2-1.3,1.6-3,1.6-4.7
			c0-2.1-0.6-3.7-1.5-4.7c-0.2-0.2-0.2-0.2-0.2-0.2c0-0.1,0-0.1,0.1-0.1c0.1,0,1,0.6,1.6,1.9c0.5,1.1,0.7,2.3,0.7,3.1
			C248.7,105.9,248.6,107,248,108.1z"/>
	</g>
	<g>
		<path class="st10" d="M106.8,7.6c0,0.4,0,0.5,0.8,0.5h0.3v0.3c-0.3,0-1.1,0-1.5,0c-0.4,0-1.2,0-1.5,0V8.1h0.3
			c0.8,0,0.8-0.1,0.8-0.5V2.4c0-0.4,0-0.5-0.8-0.5h-0.3V1.6c0.3,0,1.1,0,1.5,0c0.4,0,1.2,0,1.5,0v0.3h-0.3c-0.8,0-0.8,0.1-0.8,0.5
			V7.6z"/>
		<path class="st10" d="M108.5,4.4V4.1l1.4-0.1v1c0.3-0.6,0.7-1,1.5-1c0.4,0,1.2,0.1,1.3,1c0.2-0.4,0.6-1,1.4-1c0.6,0,0.9,0.2,1,0.4
			c0.3,0.4,0.3,0.7,0.3,1.5v1.9c0,0.3,0.3,0.3,0.8,0.3v0.3c-0.3,0-0.9,0-1.1,0c-0.3,0-0.8,0-1.1,0V8.1c0.7,0,0.8,0,0.8-0.4V5.3
			c0-0.6-0.1-1.1-0.7-1.1c-0.6,0-1.3,0.6-1.3,1.6v1.8c0,0.4,0.1,0.4,0.8,0.4v0.3c-0.3,0-0.9,0-1.1,0c-0.3,0-0.8,0-1.1,0V8.1
			c0.7,0,0.8,0,0.8-0.4V5.3c0-0.6-0.1-1.1-0.7-1.1c-0.6,0-1.3,0.6-1.3,1.6v1.8c0,0.4,0.1,0.4,0.8,0.4v0.3c-0.3,0-0.9,0-1.1,0
			c-0.3,0-0.8,0-1.1,0V8.1c0.7,0,0.8,0,0.8-0.4V5C109.3,4.5,109.2,4.4,108.5,4.4z"/>
	</g>
	<g>
		<path class="st10" d="M119.6,10.9c-0.1,0-1-0.6-1.6-1.9c-0.5-1.1-0.7-2.3-0.7-3.1c0-0.8,0.1-1.9,0.6-3c0.6-1.3,1.5-1.9,1.6-1.9
			c0.1,0,0.1,0,0.1,0.1c0,0,0,0-0.1,0.2c-1.2,1.2-1.6,3-1.6,4.7c0,1.5,0.3,3.4,1.6,4.7C119.7,10.7,119.7,10.7,119.6,10.9
			C119.7,10.8,119.7,10.9,119.6,10.9z"/>
	</g>
	<g>
		<path class="st10" d="M121.9,7.5c0.2,0,0.4,0,0.7,0.2c0.2,0.1,0.4,0.1,0.6,0.1c0.3,0,1-0.2,1.2-0.8c0-0.1,0-0.1,0.1-0.1
			c0.1,0,0.1,0,0.1,0.1c0,0.3-0.6,1.5-1.6,1.5c-0.3,0-0.5-0.2-0.6-0.4c-0.2-0.3-0.3-0.4-0.6-0.4c-0.3,0-0.6,0.3-0.8,0.6
			c-0.1,0.1-0.1,0.1-0.2,0.1c0,0-0.1,0-0.1-0.1c0-0.1,0.3-0.6,1-1.3l0.9-0.8c0.2-0.2,1-0.9,1.4-1.3c-0.3,0-0.4,0-0.8-0.1
			c-0.2-0.1-0.4-0.1-0.6-0.1c-0.1,0-0.7,0-0.8,0.5c0,0.1,0,0.1-0.1,0.1c-0.1,0-0.1-0.1-0.1-0.1c0-0.2,0.5-1.1,1.2-1.1
			c0.3,0,0.5,0.2,0.7,0.4c0.1,0.2,0.3,0.3,0.5,0.3c0.2,0,0.4-0.2,0.7-0.6c0-0.1,0.1-0.1,0.1-0.1c0,0,0.1,0,0.1,0.1
			c0,0-0.2,0.5-1.2,1.4c-0.4,0.4-1,0.9-1,0.9c-0.4,0.3-0.6,0.6-1.2,1.1C121.7,7.5,121.9,7.5,121.9,7.5z"/>
	</g>
	<g>
		<path class="st10" d="M127.7,8.9c-0.6,1.3-1.5,1.9-1.6,1.9c-0.1,0-0.1,0-0.1-0.1c0,0,0-0.1,0.1-0.2c1.2-1.3,1.6-3,1.6-4.7
			c0-2.1-0.6-3.7-1.5-4.7C126,1.1,126,1,126,1c0-0.1,0-0.1,0.1-0.1c0.1,0,1,0.6,1.6,1.9c0.5,1.1,0.7,2.3,0.7,3.1
			C128.3,6.7,128.2,7.8,127.7,8.9z"/>
	</g>
	<g>
		<path class="st4" d="M197.1,73.9c0.2,0,0.4,0,0.7,0.2c0.2,0.1,0.4,0.1,0.6,0.1c0.3,0,1-0.2,1.2-0.8c0-0.1,0-0.1,0.1-0.1
			c0.1,0,0.1,0,0.1,0.1c0,0.3-0.6,1.5-1.6,1.5c-0.3,0-0.5-0.2-0.6-0.4c-0.2-0.3-0.3-0.4-0.6-0.4c-0.3,0-0.6,0.3-0.8,0.6
			c-0.1,0.1-0.1,0.1-0.2,0.1c0,0-0.1,0-0.1-0.1c0-0.1,0.3-0.6,1-1.3l0.9-0.8c0.2-0.2,1-0.9,1.4-1.3c-0.3,0-0.4,0-0.8-0.1
			c-0.2-0.1-0.4-0.1-0.6-0.1c-0.1,0-0.7,0-0.8,0.5c0,0.1,0,0.1-0.1,0.1s-0.1-0.1-0.1-0.1c0-0.2,0.5-1.1,1.2-1.1
			c0.3,0,0.5,0.2,0.7,0.4c0.1,0.2,0.3,0.3,0.5,0.3s0.4-0.2,0.7-0.6c0-0.1,0.1-0.1,0.1-0.1c0,0,0.1,0,0.1,0.1c0,0-0.2,0.5-1.2,1.4
			c-0.4,0.4-1,0.9-1,0.9c-0.4,0.3-0.6,0.6-1.2,1.1C197,73.9,197.1,73.9,197.1,73.9z"/>
	</g>
	<g>
		<path class="st4" d="M204.3,71.5c-0.1,0-0.3,0-0.3-0.2s0.2-0.2,0.3-0.2h6c0.1,0,0.3,0,0.3,0.2s-0.2,0.2-0.3,0.2H204.3z
			 M204.2,73.5c-0.1,0-0.3,0-0.3-0.2s0.2-0.2,0.3-0.2h5.9c0.1,0,0.3,0,0.3,0.2s-0.2,0.2-0.3,0.2H204.2z"/>
		<path class="st4" d="M215.3,74c0.2,0.4,0.6,0.7,1.1,0.7c0.1,0,1,0,1.3-1c0-0.1,0-0.1,0.1-0.1c0,0,0.1,0,0.1,0.1
			c0,0.2-0.4,1.3-1.7,1.3c-1.1,0-2.2-1-2.2-2.3c0-1.2,0.9-2.3,2.1-2.3c1.2,0,1.8,1,1.8,2c0,0.2,0,0.2-0.2,0.2H215
			C215,72.9,215,73.5,215.3,74z M217.4,72.3c0-0.4-0.1-1.7-1.1-1.7c-0.3,0-1.2,0.2-1.2,1.7H217.4z"/>
	</g>
	<g>
		<path class="st4" d="M220.5,71.6c0,0.9-0.6,1.5-1.4,1.5c-0.6,0-1.1-0.3-1.1-0.8c0-0.3,0.2-0.5,0.5-0.5c0.3,0,0.5,0.2,0.5,0.5
			c0,0.3-0.2,0.4-0.3,0.4c0.3,0.1,0.5,0.1,0.5,0.1c0.6,0,0.7-0.9,0.7-1.3v-3.9c0-0.5-0.1-0.6-0.9-0.6v-0.3l1.5-0.1V71.6z
			 M219.9,65.5c-0.3,0-0.5-0.2-0.5-0.5s0.2-0.5,0.5-0.5s0.5,0.2,0.5,0.5S220.2,65.5,219.9,65.5z"/>
	</g>
	<g>
		<path class="st4" d="M222.8,71.1c-0.6,0-1-0.7-1-1.5c0-1.6,1.1-3.5,2.2-3.5c0.7,0,1,0.8,1,1.5C224.9,69.2,223.8,71.1,222.8,71.1z
			 M222.5,68.8c-0.1,0.3-0.2,0.8-0.2,1.3c0,0.4,0.1,0.9,0.4,0.9c0.3,0,0.6-0.3,0.8-0.7c0.2-0.3,0.4-0.7,0.6-1.5H222.5z M224.2,68.5
			c0.1-0.6,0.2-1,0.2-1.3c0-0.1,0-0.9-0.4-0.9c-0.4,0-1,0.7-1.4,2.2H224.2z"/>
	</g>
	<g>
		<path class="st4" d="M226.9,72.1c-1.3,0-1.3-1.3-1.3-1.7c0-0.4,0-1.7,1.3-1.7c1.3,0,1.3,1.4,1.3,1.7
			C228.2,70.8,228.2,72.1,226.9,72.1z M227.6,71.4c0.1-0.3,0.1-0.7,0.1-1c0-0.3,0-0.7-0.1-1c-0.1-0.3-0.4-0.5-0.7-0.5
			c-0.2,0-0.6,0.1-0.7,0.5c-0.1,0.3-0.1,0.6-0.1,1c0,0.4,0,0.8,0.1,1c0.1,0.5,0.5,0.6,0.7,0.6C227.1,72,227.5,71.9,227.6,71.4z"/>
	</g>
</g>
</svg>
