<?xml version="1.0" encoding="utf-8"?>
<!-- Generator: Adobe Illustrator 22.1.0, SVG Export Plug-In . SVG Version: 6.00 Build 0)  -->
<svg version="1.1" id="Layer_1" xmlns="http://www.w3.org/2000/svg" xmlns:xlink="http://www.w3.org/1999/xlink" x="0px" y="0px"
	 viewBox="0 0 369.9 250.2" style="enable-background:new 0 0 369.9 250.2;" xml:space="preserve">
<style type="text/css">
	.st0{fill:none;stroke:#000000;stroke-width:1.4173;stroke-miterlimit:10;}
	.st1{fill:#1D1D1B;}
	.st2{fill:#0000FF;}
	.st3{fill:none;stroke:#000000;stroke-width:1.7008;stroke-miterlimit:10;}
	.st4{fill:none;stroke:#000000;stroke-width:0.8504;stroke-miterlimit:10;}
	.st5{fill:none;stroke:#FF0000;stroke-width:0.8504;stroke-miterlimit:10;}
	.st6{fill:none;stroke:#FA0000;stroke-width:0.4252;stroke-miterlimit:10;}
	.st7{fill:none;stroke:#000000;stroke-width:0.8504;stroke-linecap:round;stroke-miterlimit:10;stroke-dasharray:0,3.6489;}
	.st8{fill:none;stroke:#000000;stroke-width:0.8504;stroke-linecap:round;stroke-miterlimit:10;stroke-dasharray:0,3.7208;}
	.st9{fill:none;stroke:#000000;stroke-width:0.8504;stroke-linecap:round;stroke-miterlimit:10;stroke-dasharray:0,3.6855;}
	.st10{fill:none;stroke:#000000;stroke-width:0.8504;stroke-linecap:round;stroke-miterlimit:10;stroke-dasharray:0,3.6589;}
</style>
<g>
	<path class="st0" d="M0.7,136.1h368.5 M0.7,139.6h368.5"/>
	<g>
		<path class="st1" d="M100.8,9.6l0.1,0.8c0.1,0.9,0.2,1.4,0.7,1.4c0.2,0,0.6-0.2,0.7-0.9c0-0.1,0-0.2,0.1-0.2
			c0.1,0,0.1,0.1,0.1,0.2c0,0.3-0.2,1.1-0.9,1.1c-0.3,0-0.8-0.1-1.3-0.4c-0.4-0.4-0.4-0.8-0.4-1.4c0-0.7,0-1-0.4-1.3
			c-0.3-0.3-0.8-0.3-0.9-0.3h-1.1v2.5c0,0.4,0,0.5,0.8,0.5h0.2v0.3c-0.4,0-1.1,0-1.5,0c-0.4,0-1.1,0-1.5,0v-0.3h0.2
			c0.8,0,0.8-0.1,0.8-0.5V5.8c0-0.4,0-0.5-0.8-0.5h-0.2V5.1h3.1c1.5,0,2.6,0.8,2.6,1.8c0,0.8-0.8,1.4-1.7,1.6
			C100.1,8.7,100.6,9,100.8,9.6z M98.6,8.4c1.5,0,1.7-0.8,1.7-1.5c0-1.4-1.1-1.5-2-1.5c-0.2,0-0.5,0-0.6,0c-0.2,0-0.2,0.1-0.2,0.4
			v2.6H98.6z"/>
		<path class="st1" d="M106.2,12.1c-1.8,0-3.3-1.6-3.3-3.6c0-2.1,1.5-3.6,3.3-3.6c1.8,0,3.3,1.6,3.3,3.6
			C109.5,10.5,108,12.1,106.2,12.1z M108.5,8.4c0-2.6-1.4-3.3-2.3-3.3c-0.8,0-2.3,0.7-2.3,3.3c0,2.6,1.3,3.5,2.3,3.5
			C107.1,11.8,108.5,11,108.5,8.4z"/>
	</g>
	<g>
		<path class="st1" d="M114.2,4.9c1,0,1.5,0.5,1.8,0.9l0.5-0.7c0.1-0.1,0.1-0.1,0.2-0.1c0.1,0,0.1,0.1,0.1,0.2v2.4
			c0,0.2,0,0.2-0.2,0.2c-0.1,0-0.1,0-0.2-0.2c-0.2-1.5-1.1-2.4-2.2-2.4c-0.6,0-2.6,0.3-2.6,3.3c0,3,2,3.3,2.6,3.3
			c1.1,0,2.2-0.8,2.2-2.2c0-0.1,0-0.2,0.1-0.2c0.1,0,0.1,0.1,0.1,0.2c0,1.2-1,2.5-2.6,2.5c-1.9,0-3.5-1.6-3.5-3.6
			C110.7,6.4,112.3,4.9,114.2,4.9z"/>
		<path class="st1" d="M123.2,11.7c0.4,0,1-0.1,1.3-1c0-0.1,0-0.1,0.1-0.1c0,0,0.1,0,0.1,0.1s-0.3,1.3-1.7,1.3c-1.2,0-2.1-1-2.1-2.3
			c0-1.2,0.9-2.3,2.2-2.3c0.8,0,1.5,0.4,1.5,1.1c0,0.3-0.2,0.5-0.5,0.5c-0.3,0-0.5-0.2-0.5-0.5c0-0.1,0.1-0.4,0.5-0.5
			c-0.3-0.4-1-0.4-1.1-0.4c-0.5,0-1.3,0.4-1.3,2C121.7,11.3,122.6,11.7,123.2,11.7z"/>
	</g>
	<g>
		<path class="st1" d="M127,12c-0.6,0-1.6-0.2-1.6-1.1c0-0.4,0.2-1,1-1.3c0.6-0.3,1.3-0.3,1.8-0.4V8.9c0-0.9-0.6-1.3-1.1-1.3
			c-0.3,0-0.8,0.1-1.1,0.5c0.5,0,0.5,0.3,0.5,0.5c0,0.3-0.2,0.5-0.5,0.5c-0.3,0-0.5-0.2-0.5-0.5c0-0.7,0.7-1.1,1.5-1.1
			c0.5,0,1,0.2,1.4,0.5c0.4,0.4,0.4,0.8,0.4,1.2v2c0,0,0,0.5,0.4,0.5c0.1,0,0.4-0.1,0.4-0.6v-0.6h0.2V11c0,0.8-0.6,0.9-0.8,0.9
			c-0.5,0-0.7-0.4-0.8-0.8C128.1,11.6,127.7,12,127,12z M126.2,10.9c0,0.5,0.4,0.8,0.9,0.8c0.4,0,1.2-0.3,1.2-1.3v-1
			C126.6,9.5,126.2,10.4,126.2,10.9z"/>
		<path class="st1" d="M132.7,12c-1.5,0-1.5-0.9-1.5-1.7V8.8c0-0.9,0-0.9-0.8-0.9V7.6l1.5-0.1v3.3c0,0.5,0,1,0.9,1
			c0.7,0,1.2-0.7,1.2-1.5V8.4c0-0.5-0.1-0.6-0.8-0.6V7.6l1.5-0.1V11c0,0.5,0.1,0.6,0.8,0.6v0.3l-1.4,0.1v-0.9
			C133.7,11.7,133.2,12,132.7,12z"/>
		<path class="st1" d="M136.4,9.5C136.1,9.3,136,9,136,8.6c0-0.6,0.4-1.2,1.6-1.2c0.1,0,0.6,0,0.9,0.3c0,0,0.1-0.1,0.2-0.2
			c0.1-0.1,0.1-0.1,0.2-0.1c0.1,0,0.1,0.1,0.1,0.2v1c0,0.2,0,0.2-0.1,0.2c0,0-0.1,0-0.1-0.1c0-0.3-0.1-1.2-1.2-1.2
			c-0.9,0-1.1,0.4-1.1,0.8c0,0.6,0.7,0.7,1.2,0.8c0.4,0.1,0.8,0.2,1.1,0.5c0.1,0.1,0.4,0.4,0.4,0.9c0,0.7-0.5,1.4-1.6,1.4
			c-0.2,0-0.7,0-1.1-0.4c-0.2,0.2-0.2,0.2-0.2,0.2c-0.2,0.2-0.2,0.2-0.2,0.2c-0.1,0-0.1-0.1-0.1-0.2v-1.3c0-0.2,0-0.2,0.1-0.2
			c0.1,0,0.1,0,0.1,0.2c0.2,0.8,0.5,1.4,1.4,1.4c0.8,0,1.1-0.4,1.1-0.9c0-0.7-0.8-0.9-1-0.9C137,9.8,136.7,9.7,136.4,9.5z"/>
		<path class="st1" d="M141.6,12c-0.6,0-1.6-0.2-1.6-1.1c0-0.4,0.2-1,1-1.3c0.6-0.3,1.3-0.3,1.8-0.4V8.9c0-0.9-0.6-1.3-1.1-1.3
			c-0.3,0-0.8,0.1-1.1,0.5c0.5,0,0.5,0.3,0.5,0.5c0,0.3-0.2,0.5-0.5,0.5c-0.3,0-0.5-0.2-0.5-0.5c0-0.7,0.7-1.1,1.5-1.1
			c0.5,0,1,0.2,1.4,0.5c0.4,0.4,0.4,0.8,0.4,1.2v2c0,0,0,0.5,0.4,0.5c0.1,0,0.4-0.1,0.4-0.6v-0.6h0.2V11c0,0.8-0.6,0.9-0.8,0.9
			c-0.5,0-0.7-0.4-0.8-0.8C142.7,11.6,142.3,12,141.6,12z M140.8,10.9c0,0.5,0.4,0.8,0.9,0.8c0.4,0,1.2-0.3,1.2-1.3v-1
			C141.2,9.5,140.8,10.4,140.8,10.9z"/>
	</g>
	<g>
		<path class="st1" d="M146.3,11.1c0,0.4,0.1,0.4,0.8,0.4v0.3c-0.4,0-0.9,0-1.1,0c-0.2,0-0.8,0-1.1,0v-0.3c0.7,0,0.8,0,0.8-0.4V5.9
			c0-0.5-0.1-0.6-0.8-0.6V5.1l1.4-0.1V11.1z"/>
	</g>
	<line class="st0" x1="0.7" y1="22.7" x2="369.2" y2="22.7"/>
	<g>
		<path class="st2" d="M202.3,6.9V2.6c0-0.3,0-0.7-1-0.7V1.6c0.3,0,0.8,0,1.2,0c0.3,0,0.8,0,1.2,0v0.3c-1,0-1,0.5-1,0.7v5.5
			c0,0.2,0,0.3-0.1,0.3c-0.1,0-0.1,0-0.2-0.1l-4.1-6c0-0.1,0-0.1-0.1-0.1v5.2c0,0.3,0,0.7,1,0.7v0.3c-0.3,0-0.8,0-1.2,0
			c-0.3,0-0.8,0-1.2,0V8.1c1,0,1-0.5,1-0.7V2.1c0-0.2,0-0.2-0.2-0.2c-0.1,0-0.3,0-0.5,0h-0.3V1.6h1.7c0.2,0,0.2,0,0.3,0.1L202.3,6.9
			z"/>
		<path class="st2" d="M206.4,8.5c-1.2,0-2.2-1-2.2-2.2c0-1.2,1-2.3,2.2-2.3c1.2,0,2.2,1.1,2.2,2.3C208.6,7.5,207.6,8.5,206.4,8.5z
			 M207.6,7.5c0.2-0.4,0.2-1,0.2-1.3c0-0.4,0-1-0.3-1.4c-0.3-0.4-0.7-0.6-1.1-0.6c-0.4,0-0.9,0.2-1.1,0.7c-0.2,0.4-0.2,1-0.2,1.4
			c0,0.4,0,1,0.2,1.4c0.3,0.5,0.7,0.7,1.1,0.7C206.9,8.2,207.3,8,207.6,7.5z"/>
		<path class="st2" d="M209.2,4.4V4.1l1.4-0.1v1c0.3-0.6,0.7-1,1.5-1c0.6,0,0.9,0.2,1,0.4c0.3,0.4,0.3,0.7,0.3,1.5v1.9
			c0,0.3,0.3,0.3,0.8,0.3v0.3c-0.3,0-0.9,0-1.1,0c-0.3,0-0.8,0-1.1,0V8.1c0.7,0,0.8,0,0.8-0.4V5.3c0-0.6-0.1-1.1-0.7-1.1
			c-0.6,0-1.3,0.6-1.3,1.6v1.8c0,0.4,0.1,0.4,0.8,0.4v0.3c-0.3,0-0.9,0-1.1,0c-0.3,0-0.8,0-1.1,0V8.1c0.7,0,0.8,0,0.8-0.4V5
			C210,4.5,209.9,4.4,209.2,4.4z"/>
		<path class="st2" d="M214.5,6.5V5.9h2.6v0.6H214.5z"/>
		<path class="st2" d="M220.3,8.2c0.4,0,1-0.1,1.3-1c0-0.1,0-0.1,0.1-0.1c0,0,0.1,0,0.1,0.1s-0.3,1.3-1.7,1.3c-1.2,0-2.1-1-2.1-2.3
			c0-1.2,0.9-2.3,2.2-2.3c0.8,0,1.5,0.4,1.5,1.1c0,0.3-0.2,0.5-0.5,0.5c-0.3,0-0.5-0.2-0.5-0.5c0-0.1,0.1-0.4,0.5-0.5
			c-0.3-0.4-1-0.4-1.1-0.4c-0.5,0-1.3,0.4-1.3,2C218.9,7.8,219.8,8.2,220.3,8.2z"/>
		<path class="st2" d="M224.2,8.5c-0.6,0-1.6-0.2-1.6-1.1c0-0.4,0.2-1,1-1.3c0.6-0.3,1.3-0.3,1.8-0.4V5.4c0-0.9-0.6-1.3-1.1-1.3
			c-0.3,0-0.8,0.1-1.1,0.5c0.5,0,0.5,0.3,0.5,0.5c0,0.3-0.2,0.5-0.5,0.5c-0.3,0-0.5-0.2-0.5-0.5c0-0.7,0.7-1.1,1.5-1.1
			c0.5,0,1,0.2,1.4,0.5c0.4,0.4,0.4,0.8,0.4,1.2v2c0,0,0,0.5,0.4,0.5c0.1,0,0.4-0.1,0.4-0.6V6.9h0.2v0.6c0,0.8-0.6,0.9-0.8,0.9
			c-0.5,0-0.7-0.4-0.8-0.8C225.3,8.1,224.9,8.5,224.2,8.5z M223.4,7.4c0,0.5,0.4,0.8,0.9,0.8c0.4,0,1.2-0.3,1.2-1.3V6
			C223.8,6.1,223.4,6.9,223.4,7.4z"/>
		<path class="st2" d="M229.8,8.5c-1.5,0-1.5-0.9-1.5-1.7V5.3c0-0.9,0-0.9-0.8-0.9V4.1L229,4v3.3c0,0.5,0,1,0.9,1
			c0.7,0,1.2-0.7,1.2-1.5V5c0-0.5-0.1-0.6-0.8-0.6V4.1l1.5-0.1v3.5c0,0.5,0.1,0.6,0.8,0.6v0.3l-1.4,0.1V7.6
			C230.8,8.2,230.4,8.5,229.8,8.5z"/>
		<path class="st2" d="M233.5,6c-0.3-0.2-0.4-0.5-0.4-0.8c0-0.6,0.4-1.2,1.6-1.2c0.1,0,0.6,0,0.9,0.3c0,0,0.1-0.1,0.2-0.2
			c0.1-0.1,0.1-0.1,0.2-0.1c0.1,0,0.1,0.1,0.1,0.2v1c0,0.2,0,0.2-0.1,0.2c0,0-0.1,0-0.1-0.1c0-0.3-0.1-1.2-1.2-1.2
			c-0.9,0-1.1,0.4-1.1,0.8c0,0.6,0.7,0.7,1.2,0.8c0.4,0.1,0.8,0.2,1.1,0.5c0.1,0.1,0.4,0.4,0.4,0.9c0,0.7-0.5,1.4-1.6,1.4
			c-0.2,0-0.7,0-1.1-0.4c-0.2,0.2-0.2,0.2-0.2,0.2c-0.2,0.2-0.2,0.2-0.2,0.2c-0.1,0-0.1-0.1-0.1-0.2V6.9c0-0.2,0-0.2,0.1-0.2
			c0.1,0,0.1,0,0.1,0.2c0.2,0.8,0.5,1.4,1.4,1.4c0.8,0,1.1-0.4,1.1-0.9c0-0.7-0.8-0.9-1-0.9C234.1,6.3,233.8,6.3,233.5,6z"/>
		<path class="st2" d="M238.7,8.5c-0.6,0-1.6-0.2-1.6-1.1c0-0.4,0.2-1,1-1.3c0.6-0.3,1.3-0.3,1.8-0.4V5.4c0-0.9-0.6-1.3-1.1-1.3
			c-0.3,0-0.8,0.1-1.1,0.5c0.5,0,0.5,0.3,0.5,0.5c0,0.3-0.2,0.5-0.5,0.5c-0.3,0-0.5-0.2-0.5-0.5c0-0.7,0.7-1.1,1.5-1.1
			c0.5,0,1,0.2,1.4,0.5c0.4,0.4,0.4,0.8,0.4,1.2v2c0,0,0,0.5,0.4,0.5c0.1,0,0.4-0.1,0.4-0.6V6.9h0.2v0.6c0,0.8-0.6,0.9-0.8,0.9
			c-0.5,0-0.7-0.4-0.8-0.8C239.8,8.1,239.3,8.5,238.7,8.5z M237.8,7.4c0,0.5,0.4,0.8,0.9,0.8c0.4,0,1.2-0.3,1.2-1.3V6
			C238.3,6.1,237.8,6.9,237.8,7.4z"/>
		<path class="st2" d="M243.4,7.6c0,0.4,0.1,0.4,0.8,0.4v0.3c-0.4,0-0.9,0-1.1,0s-0.8,0-1.1,0V8.1c0.7,0,0.8,0,0.8-0.4V2.4
			c0-0.5-0.1-0.6-0.8-0.6V1.6l1.4-0.1V7.6z"/>
	</g>
	<path class="st0" d="M255.8,1.4v248 M369.2,1.4v248"/>
	<g>
		<path class="st1" d="M275.4,13.2l0.1,0.8c0.1,0.9,0.2,1.4,0.7,1.4c0.2,0,0.6-0.2,0.7-0.9c0-0.1,0-0.2,0.1-0.2
			c0.1,0,0.1,0.1,0.1,0.2c0,0.3-0.2,1.1-0.9,1.1c-0.3,0-0.8-0.1-1.3-0.4c-0.4-0.4-0.4-0.8-0.4-1.4c0-0.7,0-1-0.4-1.3
			c-0.3-0.3-0.8-0.3-0.9-0.3h-1.1v2.5c0,0.4,0,0.5,0.8,0.5h0.2v0.3c-0.4,0-1.1,0-1.5,0s-1.1,0-1.5,0v-0.3h0.2c0.8,0,0.8-0.1,0.8-0.5
			V9.4c0-0.4,0-0.5-0.8-0.5h-0.2V8.7h3.1c1.5,0,2.6,0.8,2.6,1.8c0,0.8-0.8,1.4-1.7,1.6C274.7,12.3,275.2,12.6,275.4,13.2z M273.2,12
			c1.5,0,1.7-0.8,1.7-1.5c0-1.4-1.1-1.5-2-1.5c-0.2,0-0.5,0-0.6,0c-0.2,0-0.2,0.1-0.2,0.4V12H273.2z"/>
		<path class="st1" d="M280.8,15.7c-1.8,0-3.3-1.6-3.3-3.6c0-2.1,1.5-3.6,3.3-3.6c1.8,0,3.3,1.6,3.3,3.6
			C284.1,14.1,282.6,15.7,280.8,15.7z M283.1,12c0-2.6-1.4-3.3-2.3-3.3c-0.8,0-2.3,0.7-2.3,3.3c0,2.6,1.3,3.5,2.3,3.5
			C281.7,15.4,283.1,14.6,283.1,12z"/>
	</g>
	<g>
		<path class="st1" d="M288.8,8.5c1,0,1.5,0.5,1.8,0.9l0.5-0.7c0.1-0.1,0.1-0.1,0.2-0.1c0.1,0,0.1,0.1,0.1,0.2v2.4
			c0,0.2,0,0.2-0.2,0.2c-0.1,0-0.1,0-0.2-0.2c-0.2-1.5-1.1-2.4-2.2-2.4c-0.6,0-2.6,0.3-2.6,3.3c0,3,2,3.3,2.6,3.3
			c1.1,0,2.2-0.8,2.2-2.2c0-0.1,0-0.2,0.1-0.2c0.1,0,0.1,0.1,0.1,0.2c0,1.2-1,2.5-2.6,2.5c-1.9,0-3.5-1.6-3.5-3.6
			C285.3,10,286.9,8.5,288.8,8.5z"/>
		<path class="st1" d="M295.5,11.5v-0.3l1.4-0.1v1c0.3-0.6,0.7-1,1.5-1c0.6,0,0.9,0.2,1,0.4c0.3,0.4,0.3,0.7,0.3,1.5v1.9
			c0,0.3,0.3,0.3,0.8,0.3v0.3c-0.3,0-0.9,0-1.1,0c-0.3,0-0.8,0-1.1,0v-0.3c0.7,0,0.8,0,0.8-0.4v-2.3c0-0.6-0.1-1.1-0.7-1.1
			c-0.6,0-1.3,0.6-1.3,1.6v1.8c0,0.4,0.1,0.4,0.8,0.4v0.3c-0.3,0-0.9,0-1.1,0c-0.3,0-0.8,0-1.1,0v-0.3c0.7,0,0.8,0,0.8-0.4V12
			C296.3,11.6,296.2,11.5,295.5,11.5z"/>
	</g>
	<g>
		<path class="st1" d="M303.2,15.6c-1.2,0-2.2-1-2.2-2.2c0-1.2,1-2.3,2.2-2.3c1.2,0,2.2,1.1,2.2,2.3
			C305.4,14.6,304.4,15.6,303.2,15.6z M304.3,14.6c0.2-0.4,0.2-1,0.2-1.3c0-0.4,0-1-0.3-1.4c-0.3-0.4-0.7-0.6-1.1-0.6
			c-0.4,0-0.9,0.2-1.1,0.7c-0.2,0.4-0.2,1-0.2,1.4c0,0.4,0,1,0.2,1.4c0.3,0.5,0.7,0.7,1.1,0.7C303.7,15.3,304.1,15,304.3,14.6z"/>
		<path class="st1" d="M306,11.5v-0.3l1.4-0.1v1c0.3-0.6,0.7-1,1.5-1c0.6,0,0.9,0.2,1,0.4c0.3,0.4,0.3,0.7,0.3,1.5v1.9
			c0,0.3,0.3,0.3,0.8,0.3v0.3c-0.3,0-0.9,0-1.1,0c-0.3,0-0.8,0-1.1,0v-0.3c0.7,0,0.8,0,0.8-0.4v-2.3c0-0.6-0.1-1.1-0.7-1.1
			c-0.6,0-1.3,0.6-1.3,1.6v1.8c0,0.4,0.1,0.4,0.8,0.4v0.3c-0.3,0-0.9,0-1.1,0c-0.3,0-0.8,0-1.1,0v-0.3c0.7,0,0.8,0,0.8-0.4V12
			C306.8,11.6,306.7,11.5,306,11.5z"/>
		<path class="st1" d="M311.4,13.6V13h2.6v0.6H311.4z"/>
		<path class="st1" d="M317.2,15.3c0.4,0,1-0.1,1.3-1c0-0.1,0-0.1,0.1-0.1c0,0,0.1,0,0.1,0.1s-0.3,1.3-1.7,1.3c-1.2,0-2.1-1-2.1-2.3
			c0-1.2,0.9-2.3,2.2-2.3c0.8,0,1.5,0.4,1.5,1.1c0,0.3-0.2,0.5-0.5,0.5c-0.3,0-0.5-0.2-0.5-0.5c0-0.1,0.1-0.4,0.5-0.5
			c-0.3-0.4-1-0.4-1.1-0.4c-0.5,0-1.3,0.4-1.3,2C315.8,14.9,316.7,15.3,317.2,15.3z"/>
		<path class="st1" d="M321.2,15.6c-0.6,0-1.6-0.2-1.6-1.1c0-0.4,0.2-1,1-1.3c0.6-0.3,1.3-0.3,1.8-0.4v-0.4c0-0.9-0.6-1.3-1.1-1.3
			c-0.3,0-0.8,0.1-1.1,0.5c0.5,0,0.5,0.3,0.5,0.5c0,0.3-0.2,0.5-0.5,0.5c-0.3,0-0.5-0.2-0.5-0.5c0-0.7,0.7-1.1,1.5-1.1
			c0.5,0,1,0.2,1.4,0.5c0.4,0.4,0.4,0.8,0.4,1.2v2c0,0,0,0.5,0.4,0.5c0.1,0,0.4-0.1,0.4-0.6V14h0.2v0.6c0,0.8-0.6,0.9-0.8,0.9
			c-0.5,0-0.7-0.4-0.8-0.8C322.3,15.2,321.8,15.6,321.2,15.6z M320.3,14.5c0,0.5,0.4,0.8,0.9,0.8c0.4,0,1.2-0.3,1.2-1.3v-1
			C320.7,13.1,320.3,14,320.3,14.5z"/>
		<path class="st1" d="M326.8,15.6c-1.5,0-1.5-0.9-1.5-1.7v-1.5c0-0.9,0-0.9-0.8-0.9v-0.3l1.5-0.1v3.3c0,0.5,0,1,0.9,1
			c0.7,0,1.2-0.7,1.2-1.5V12c0-0.5-0.1-0.6-0.8-0.6v-0.3l1.5-0.1v3.5c0,0.5,0.1,0.6,0.8,0.6v0.3l-1.4,0.1v-0.9
			C327.8,15.3,327.3,15.6,326.8,15.6z"/>
		<path class="st1" d="M330.5,13.1c-0.3-0.2-0.4-0.5-0.4-0.8c0-0.6,0.4-1.2,1.6-1.2c0.1,0,0.6,0,0.9,0.3c0,0,0.1-0.1,0.2-0.2
			c0.1-0.1,0.1-0.1,0.2-0.1c0.1,0,0.1,0.1,0.1,0.2v1c0,0.2,0,0.2-0.1,0.2c0,0-0.1,0-0.1-0.1c0-0.3-0.1-1.2-1.2-1.2
			c-0.9,0-1.1,0.4-1.1,0.8c0,0.6,0.7,0.7,1.2,0.8c0.4,0.1,0.8,0.2,1.1,0.5c0.1,0.1,0.4,0.4,0.4,0.9c0,0.7-0.5,1.4-1.6,1.4
			c-0.2,0-0.7,0-1.1-0.4c-0.2,0.2-0.2,0.2-0.2,0.2c-0.2,0.2-0.2,0.2-0.2,0.2c-0.1,0-0.1-0.1-0.1-0.2V14c0-0.2,0-0.2,0.1-0.2
			c0.1,0,0.1,0,0.1,0.2c0.2,0.8,0.5,1.4,1.4,1.4c0.8,0,1.1-0.4,1.1-0.9c0-0.7-0.8-0.9-1-0.9C331.1,13.4,330.8,13.3,330.5,13.1z"/>
		<path class="st1" d="M335.7,15.6c-0.6,0-1.6-0.2-1.6-1.1c0-0.4,0.2-1,1-1.3c0.6-0.3,1.3-0.3,1.8-0.4v-0.4c0-0.9-0.6-1.3-1.1-1.3
			c-0.3,0-0.8,0.1-1.1,0.5c0.5,0,0.5,0.3,0.5,0.5c0,0.3-0.2,0.5-0.5,0.5c-0.3,0-0.5-0.2-0.5-0.5c0-0.7,0.7-1.1,1.5-1.1
			c0.5,0,1,0.2,1.4,0.5c0.4,0.4,0.4,0.8,0.4,1.2v2c0,0,0,0.5,0.4,0.5c0.1,0,0.4-0.1,0.4-0.6V14h0.2v0.6c0,0.8-0.6,0.9-0.8,0.9
			c-0.5,0-0.7-0.4-0.8-0.8C336.9,15.2,336.4,15.6,335.7,15.6z M334.9,14.5c0,0.5,0.4,0.8,0.9,0.8c0.4,0,1.2-0.3,1.2-1.3v-1
			C335.3,13.1,334.9,14,334.9,14.5z"/>
	</g>
	<g>
		<path class="st1" d="M340.4,14.7c0,0.4,0.1,0.4,0.8,0.4v0.3c-0.4,0-0.9,0-1.1,0s-0.8,0-1.1,0v-0.3c0.7,0,0.8,0,0.8-0.4V9.5
			c0-0.5-0.1-0.6-0.8-0.6V8.7l1.4-0.1V14.7z"/>
	</g>
	<g>
		<path class="st2" d="M25.5,1.4c1,0,1.5,0.5,1.8,0.9l0.5-0.7c0.1-0.1,0.1-0.1,0.2-0.1c0.1,0,0.1,0.1,0.1,0.2V4c0,0.2,0,0.2-0.2,0.2
			c-0.1,0-0.1,0-0.2-0.2c-0.2-1.5-1.1-2.4-2.2-2.4C25,1.7,23,2,23,5c0,3,2,3.3,2.6,3.3c1.1,0,2.2-0.8,2.2-2.2c0-0.1,0-0.2,0.1-0.2
			c0.1,0,0.1,0.1,0.1,0.2c0,1.2-1,2.5-2.6,2.5C23.6,8.6,22,7,22,5C22,2.9,23.6,1.4,25.5,1.4z"/>
		<path class="st2" d="M30.7,8.5c-0.6,0-1.6-0.2-1.6-1.1c0-0.4,0.2-1,1-1.3c0.6-0.3,1.3-0.3,1.8-0.4V5.4c0-0.9-0.6-1.3-1.1-1.3
			c-0.3,0-0.8,0.1-1.1,0.5c0.5,0,0.5,0.3,0.5,0.5c0,0.3-0.2,0.5-0.5,0.5c-0.3,0-0.5-0.2-0.5-0.5c0-0.7,0.7-1.1,1.5-1.1
			c0.5,0,1,0.2,1.4,0.5c0.4,0.4,0.4,0.8,0.4,1.2v2c0,0,0,0.5,0.4,0.5c0.1,0,0.4-0.1,0.4-0.6V6.9h0.2v0.6c0,0.8-0.6,0.9-0.8,0.9
			C32.3,8.4,32,8,32,7.6C31.8,8.1,31.3,8.5,30.7,8.5z M29.9,7.4c0,0.5,0.4,0.8,0.9,0.8c0.4,0,1.2-0.3,1.2-1.3V6
			C30.3,6.1,29.9,6.9,29.9,7.4z"/>
		<path class="st2" d="M36.3,8.5c-1.5,0-1.5-0.9-1.5-1.7V5.3c0-0.9,0-0.9-0.8-0.9V4.1L35.5,4v3.3c0,0.5,0,1,0.9,1
			c0.7,0,1.2-0.7,1.2-1.5V5c0-0.5-0.1-0.6-0.8-0.6V4.1L38.2,4v3.5c0,0.5,0.1,0.6,0.8,0.6v0.3l-1.4,0.1V7.6
			C37.3,8.2,36.8,8.5,36.3,8.5z"/>
		<path class="st2" d="M40,6c-0.3-0.2-0.4-0.5-0.4-0.8c0-0.6,0.4-1.2,1.6-1.2c0.1,0,0.6,0,0.9,0.3c0,0,0.1-0.1,0.2-0.2
			c0.1-0.1,0.1-0.1,0.2-0.1c0.1,0,0.1,0.1,0.1,0.2v1c0,0.2,0,0.2-0.1,0.2c0,0-0.1,0-0.1-0.1c0-0.3-0.1-1.2-1.2-1.2
			c-0.9,0-1.1,0.4-1.1,0.8c0,0.6,0.7,0.7,1.2,0.8c0.4,0.1,0.8,0.2,1.1,0.5c0.1,0.1,0.4,0.4,0.4,0.9c0,0.7-0.5,1.4-1.6,1.4
			c-0.2,0-0.7,0-1.1-0.4c-0.2,0.2-0.2,0.2-0.2,0.2c-0.2,0.2-0.2,0.2-0.2,0.2c-0.1,0-0.1-0.1-0.1-0.2V6.9c0-0.2,0-0.2,0.1-0.2
			c0.1,0,0.1,0,0.1,0.2c0.2,0.8,0.5,1.4,1.4,1.4c0.8,0,1.1-0.4,1.1-0.9c0-0.7-0.8-0.9-1-0.9C40.6,6.3,40.3,6.3,40,6z"/>
		<path class="st2" d="M45.2,8.5c-0.6,0-1.6-0.2-1.6-1.1c0-0.4,0.2-1,1-1.3c0.6-0.3,1.3-0.3,1.8-0.4V5.4c0-0.9-0.6-1.3-1.1-1.3
			c-0.3,0-0.8,0.1-1.1,0.5c0.5,0,0.5,0.3,0.5,0.5c0,0.3-0.2,0.5-0.5,0.5c-0.3,0-0.5-0.2-0.5-0.5c0-0.7,0.7-1.1,1.5-1.1
			c0.5,0,1,0.2,1.4,0.5c0.4,0.4,0.4,0.8,0.4,1.2v2c0,0,0,0.5,0.4,0.5c0.1,0,0.4-0.1,0.4-0.6V6.9h0.2v0.6c0,0.8-0.6,0.9-0.8,0.9
			c-0.5,0-0.7-0.4-0.8-0.8C46.3,8.1,45.8,8.5,45.2,8.5z M44.4,7.4c0,0.5,0.4,0.8,0.9,0.8c0.4,0,1.2-0.3,1.2-1.3V6
			C44.8,6.1,44.4,6.9,44.4,7.4z"/>
		<path class="st2" d="M49.9,7.6c0,0.4,0.1,0.4,0.8,0.4v0.3c-0.4,0-0.9,0-1.1,0c-0.2,0-0.8,0-1.1,0V8.1c0.7,0,0.8,0,0.8-0.4V2.4
			c0-0.5-0.1-0.6-0.8-0.6V1.6l1.4-0.1V7.6z"/>
	</g>
	<path class="st0" d="M0.7,1.4v248 M71.6,1.4v248 M185,1.4v248 M181.4,1.4v248 M0.7,249.5h368.5"/>
	<path class="st3" d="M153.1,86.4c0-17.1-13.9-31.1-31.1-31.1S91,69.2,91,86.4s13.9,31.1,31.1,31.1S153.1,103.5,153.1,86.4
		L153.1,86.4z"/>
	<polyline points="162.7,88.7 167.2,86.5 162.7,84.2 163.8,86.5 	"/>
	<line class="st4" x1="78.7" y1="86.5" x2="163.8" y2="86.5"/>
	<polyline points="123.5,48.5 121.2,44 119,48.5 121.2,47.4 	"/>
	<line class="st4" x1="122" y1="129" x2="121.2" y2="47.4"/>
	<g>
		<path class="st1" d="M130.6,39h1.7c1.7,0,2.2-0.7,2.6-2.1c0.1-0.2,0.1-0.2,0.2-0.2c0.1,0,0.1,0.1,0.1,0.1c0,0,0,0.1,0,0.1
			l-0.7,2.2c-0.1,0.2-0.1,0.2-0.3,0.2h-4.3c-0.2,0-0.2,0-0.2-0.1c0,0,0-0.2,0-0.2l5.6-6.2h-1.6c-1.6,0-2.1,0.7-2.5,1.8
			c0,0,0,0.1-0.1,0.1c-0.1,0-0.1-0.1-0.1-0.1c0,0,0-0.1,0-0.1l0.5-1.8c0.1-0.2,0.1-0.2,0.3-0.2h4.2c0.2,0,0.2,0,0.2,0.1
			c0,0.1,0,0.1,0,0.1L130.6,39z"/>
	</g>
	<g>
		<path class="st1" d="M136.6,37.5v-0.6h2.6v0.6H136.6z"/>
		<path class="st1" d="M143,34.9c1.1,0,2.1,1,2.1,2.3c0,1.3-1,2.3-2.2,2.3c-0.8,0-1.2-0.5-1.2-0.7v0.1v1.7c0,0.4,0.1,0.4,0.8,0.4
			v0.3c-0.3,0-0.9,0-1.1,0c-0.3,0-0.8,0-1.1,0V41c0.7,0,0.8,0,0.8-0.4v-4.7c0-0.4-0.1-0.5-0.8-0.5v-0.3l1.4-0.1v0.7
			C141.8,35.4,142.2,34.9,143,34.9z M141.7,38.6c0.3,0.4,0.6,0.6,1,0.6c0.7,0,1.4-0.8,1.4-2c0-1.1-0.6-2-1.3-2c-0.5,0-1,0.3-1.3,0.8
			v2.2C141.6,38.4,141.6,38.4,141.7,38.6z"/>
		<path class="st1" d="M147.2,38.6c0,0.4,0.1,0.4,0.8,0.4v0.3c-0.4,0-0.9,0-1.1,0c-0.2,0-0.8,0-1.1,0V39c0.7,0,0.8,0,0.8-0.4v-5.2
			c0-0.5-0.1-0.6-0.8-0.6v-0.3l1.4-0.1V38.6z"/>
		<path class="st1" d="M150.2,39.5c-0.6,0-1.6-0.2-1.6-1.1c0-0.4,0.2-1,1-1.3c0.6-0.3,1.3-0.3,1.8-0.4v-0.4c0-0.9-0.6-1.3-1.1-1.3
			c-0.3,0-0.8,0.1-1.1,0.5c0.5,0,0.5,0.3,0.5,0.5c0,0.3-0.2,0.5-0.5,0.5c-0.3,0-0.5-0.2-0.5-0.5c0-0.7,0.7-1.1,1.5-1.1
			c0.5,0,1,0.2,1.4,0.5c0.4,0.4,0.4,0.8,0.4,1.2v2c0,0,0,0.5,0.4,0.5c0.1,0,0.4-0.1,0.4-0.6v-0.6h0.2v0.6c0,0.8-0.6,0.9-0.8,0.9
			c-0.5,0-0.7-0.4-0.8-0.8C151.3,39.1,150.8,39.5,150.2,39.5z M149.4,38.4c0,0.5,0.4,0.8,0.9,0.8c0.4,0,1.2-0.3,1.2-1.3v-1
			C149.8,37,149.4,37.8,149.4,38.4z"/>
		<path class="st1" d="M153.5,35.4v-0.3l1.4-0.1v1c0.3-0.6,0.7-1,1.5-1c0.6,0,0.9,0.2,1,0.4c0.3,0.4,0.3,0.7,0.3,1.5v1.9
			c0,0.3,0.3,0.3,0.8,0.3v0.3c-0.3,0-0.9,0-1.1,0c-0.3,0-0.8,0-1.1,0V39c0.7,0,0.8,0,0.8-0.4v-2.3c0-0.6-0.1-1.1-0.7-1.1
			c-0.6,0-1.3,0.6-1.3,1.6v1.8c0,0.4,0.1,0.4,0.8,0.4v0.3c-0.3,0-0.9,0-1.1,0c-0.3,0-0.8,0-1.1,0V39c0.7,0,0.8,0,0.8-0.4v-2.7
			C154.3,35.4,154.2,35.4,153.5,35.4z"/>
		<path class="st1" d="M160.1,38.5c0.2,0.4,0.6,0.7,1.1,0.7c0.1,0,1,0,1.3-1c0-0.1,0-0.1,0.1-0.1c0,0,0.1,0,0.1,0.1
			c0,0.2-0.4,1.3-1.7,1.3c-1.1,0-2.2-1-2.2-2.3c0-1.2,0.9-2.3,2.1-2.3c1.2,0,1.8,1,1.8,2c0,0.2,0,0.2-0.2,0.2h-2.8
			C159.8,37.4,159.8,38.1,160.1,38.5z M162.2,36.8c0-0.4-0.1-1.7-1.1-1.7c-0.3,0-1.2,0.2-1.2,1.7H162.2z"/>
	</g>
	<polyline points="125.6,29.4 166.5,29.4 166.5,28.9 125.6,28.9 	"/>
	<polyline points="125.6,44.4 126.1,44.4 126.1,29.2 125.6,29.2 	"/>
	<polyline points="166.1,44.4 166.5,44.4 166.5,29.2 166.1,29.2 	"/>
	<polyline points="125.6,44.6 166.5,44.6 166.5,44.2 125.6,44.2 	"/>
	<g>
		<path class="st1" d="M160.6,95.9c0,0.4,0,0.5,0.9,0.5h0.3v0.3c-0.3,0-1.2,0-1.6,0c-0.4,0-1.3,0-1.6,0v-0.3h0.3
			c0.9,0,0.9-0.1,0.9-0.5v-5.2c-0.5,0.3-1.1,0.3-1.3,0.3v-0.3c0.3,0,1.2,0,1.8-0.6c0.2,0,0.2,0,0.2,0.3V95.9z"/>
	</g>
	<path class="st5" d="M139,86.6c0-9.3-7.6-16.9-16.9-16.9c-9.3,0-16.9,7.6-16.9,16.9s7.6,16.9,16.9,16.9
		C131.5,103.5,139,95.9,139,86.6L139,86.6z"/>
	<path class="st6" d="M78.7,100.6L135.4,44 M78.7,93.6L128.3,44 M78.7,86.5L121.2,44 M78.7,107.7L107,79.4 M78.7,79.4L114.1,44
		 M114.1,72.3L142.4,44 M107,129l56.7-56.7 M114.1,129l49.6-49.6 M121.2,129l42.5-42.5 M128.3,129l35.4-35.4 M135.4,129l28.3-28.3
		 M138.9,90l24.8-24.8 M138.9,82.9l24.8-24.8 M138.9,75.8L163.7,51 M135.4,72.3L163.7,44 M131.8,68.8L156.6,44 M124.7,68.8L149.5,44
		 M78.7,114.8L103.5,90 M78.7,121.9L107,93.6 M78.7,129l31.9-31.9 M85.7,129l28.3-28.3 M92.8,129l24.8-24.8 M99.9,129l24.8-24.8
		 M78.7,72.3L107,44 M78.7,65.2L99.9,44 M78.7,58.1L92.8,44 M78.7,51l7.1-7.1 M142.4,129l21.3-21.3 M149.5,129l14.2-14.2 M156.6,129
		l7.1-7.1"/>
	<path class="st3" d="M153.1,199.8c0-17.1-13.9-31.1-31.1-31.1S91,182.6,91,199.8s13.9,31.1,31.1,31.1S153.1,216.9,153.1,199.8
		L153.1,199.8z"/>
	<polyline points="162.7,202.1 167.2,199.9 162.7,197.6 163.8,199.9 	"/>
	<line class="st4" x1="78.7" y1="199.9" x2="163.8" y2="199.9"/>
	<polyline points="123.4,161.9 121.2,157.3 118.9,161.9 121.2,160.7 	"/>
	<line class="st4" x1="121.2" y1="242.4" x2="121.2" y2="160.7"/>
	<g>
		<path class="st1" d="M130.6,152.3h1.7c1.7,0,2.2-0.7,2.6-2.1c0.1-0.2,0.1-0.2,0.2-0.2c0.1,0,0.1,0.1,0.1,0.1c0,0,0,0.1,0,0.1
			l-0.7,2.2c-0.1,0.2-0.1,0.2-0.3,0.2h-4.3c-0.2,0-0.2,0-0.2-0.1c0,0,0-0.2,0-0.2l5.6-6.2h-1.6c-1.6,0-2.1,0.7-2.5,1.8
			c0,0,0,0.1-0.1,0.1c-0.1,0-0.1-0.1-0.1-0.1c0,0,0-0.1,0-0.1l0.5-1.8c0.1-0.2,0.1-0.2,0.3-0.2h4.2c0.2,0,0.2,0,0.2,0.1
			c0,0.1,0,0.1,0,0.1L130.6,152.3z"/>
	</g>
	<g>
		<path class="st1" d="M136.6,150.8v-0.6h2.6v0.6H136.6z"/>
		<path class="st1" d="M143,148.2c1.1,0,2.1,1,2.1,2.3c0,1.3-1,2.3-2.2,2.3c-0.8,0-1.2-0.5-1.2-0.7v0.1v1.7c0,0.4,0.1,0.4,0.8,0.4
			v0.3c-0.3,0-0.9,0-1.1,0c-0.3,0-0.8,0-1.1,0v-0.3c0.7,0,0.8,0,0.8-0.4v-4.7c0-0.4-0.1-0.5-0.8-0.5v-0.3l1.4-0.1v0.7
			C141.8,148.7,142.2,148.2,143,148.2z M141.7,151.9c0.3,0.4,0.6,0.6,1,0.6c0.7,0,1.4-0.8,1.4-2c0-1.1-0.6-2-1.3-2
			c-0.5,0-1,0.3-1.3,0.8v2.2C141.6,151.7,141.6,151.7,141.7,151.9z"/>
		<path class="st1" d="M147.2,151.9c0,0.4,0.1,0.4,0.8,0.4v0.3c-0.4,0-0.9,0-1.1,0c-0.2,0-0.8,0-1.1,0v-0.3c0.7,0,0.8,0,0.8-0.4
			v-5.2c0-0.5-0.1-0.6-0.8-0.6v-0.3l1.4-0.1V151.9z"/>
		<path class="st1" d="M150.2,152.7c-0.6,0-1.6-0.2-1.6-1.1c0-0.4,0.2-1,1-1.3c0.6-0.3,1.3-0.3,1.8-0.4v-0.4c0-0.9-0.6-1.3-1.1-1.3
			c-0.3,0-0.8,0.1-1.1,0.5c0.5,0,0.5,0.3,0.5,0.5c0,0.3-0.2,0.5-0.5,0.5c-0.3,0-0.5-0.2-0.5-0.5c0-0.7,0.7-1.1,1.5-1.1
			c0.5,0,1,0.2,1.4,0.5c0.4,0.4,0.4,0.8,0.4,1.2v2c0,0,0,0.5,0.4,0.5c0.1,0,0.4-0.1,0.4-0.6v-0.6h0.2v0.6c0,0.8-0.6,0.9-0.8,0.9
			c-0.5,0-0.7-0.4-0.8-0.8C151.3,152.3,150.8,152.7,150.2,152.7z M149.4,151.7c0,0.5,0.4,0.8,0.9,0.8c0.4,0,1.2-0.3,1.2-1.3v-1
			C149.8,150.3,149.4,151.1,149.4,151.7z"/>
		<path class="st1" d="M153.5,148.6v-0.3l1.4-0.1v1c0.3-0.6,0.7-1,1.5-1c0.6,0,0.9,0.2,1,0.4c0.3,0.4,0.3,0.7,0.3,1.5v1.9
			c0,0.3,0.3,0.3,0.8,0.3v0.3c-0.3,0-0.9,0-1.1,0c-0.3,0-0.8,0-1.1,0v-0.3c0.7,0,0.8,0,0.8-0.4v-2.3c0-0.6-0.1-1.1-0.7-1.1
			c-0.6,0-1.3,0.6-1.3,1.6v1.8c0,0.4,0.1,0.4,0.8,0.4v0.3c-0.3,0-0.9,0-1.1,0c-0.3,0-0.8,0-1.1,0v-0.3c0.7,0,0.8,0,0.8-0.4v-2.7
			C154.3,148.7,154.2,148.6,153.5,148.6z"/>
		<path class="st1" d="M160.1,151.8c0.2,0.4,0.6,0.7,1.1,0.7c0.1,0,1,0,1.3-1c0-0.1,0-0.1,0.1-0.1c0,0,0.1,0,0.1,0.1
			c0,0.2-0.4,1.3-1.7,1.3c-1.1,0-2.2-1-2.2-2.3c0-1.2,0.9-2.3,2.1-2.3c1.2,0,1.8,1,1.8,2c0,0.2,0,0.2-0.2,0.2h-2.8
			C159.8,150.7,159.8,151.3,160.1,151.8z M162.2,150.1c0-0.4-0.1-1.7-1.1-1.7c-0.3,0-1.2,0.3-1.2,1.7H162.2z"/>
	</g>
	<polyline points="125.6,142.8 166.5,142.8 166.5,142.3 125.6,142.3 	"/>
	<polyline points="125.6,157.8 126.1,157.8 126.1,142.6 125.6,142.6 	"/>
	<polyline points="166.1,157.8 166.5,157.8 166.5,142.6 166.1,142.6 	"/>
	<polyline points="125.6,158 166.5,158 166.5,157.6 125.6,157.6 	"/>
	<g>
		<path class="st1" d="M146.4,205.7c0,0.4,0,0.5,0.9,0.5h0.3v0.3c-0.3,0-1.2,0-1.6,0c-0.4,0-1.3,0-1.6,0v-0.3h0.3
			c0.9,0,0.9-0.1,0.9-0.5v-5.2c-0.5,0.3-1.1,0.3-1.3,0.3v-0.3c0.3,0,1.2,0,1.8-0.6c0.2,0,0.2,0,0.2,0.3V205.7z"/>
	</g>
	<path class="st5" d="M159.9,199.8c0-21.4-17.3-38.7-38.7-38.7s-38.7,17.3-38.7,38.7s17.3,38.7,38.7,38.7S159.9,221.2,159.9,199.8
		L159.9,199.8z"/>
	<path class="st6" d="M78.7,178.6l21.3-21.3 M124.7,160.9l3.5-3.5 M78.7,199.9l3.5-3.5 M117.6,160.9l3.5-3.5 M107,164.4l7.1-7.1
		 M78.7,192.8l7.1-7.1 M78.7,185.7l28.3-28.3 M78.7,171.5l14.2-14.2 M131.8,160.9l3.5-3.5 M135.4,164.4l7.1-7.1 M142.4,164.4
		l7.1-7.1 M146,168l10.6-10.6 M149.5,171.5l14.2-14.2 M153.1,175.1l17.7-17.7 M153.1,182.1l17.7-17.7 M156.6,185.7l14.2-14.2
		 M160.2,189.2l10.6-10.6 M160.2,196.3l10.6-10.6 M160.2,203.4l10.6-10.6 M156.6,214l14.2-14.2 M135.4,242.4l35.4-35.4 M142.4,242.4
		l28.3-28.3 M149.5,242.4l21.3-21.3 M156.6,242.4l14.2-14.2 M163.7,242.4l7.1-7.1 M78.7,206.9l3.5-3.5 M78.7,214l3.5-3.5
		 M78.7,221.1l7.1-7.1 M78.7,228.2l7.1-7.1 M78.7,235.3l10.6-10.6 M82.2,238.8l10.6-10.6 M85.7,242.4l10.6-10.6 M92.8,242.4l7.1-7.1
		 M99.9,242.4l3.5-3.5 M107,242.4l3.5-3.5 M114.1,242.4l3.5-3.5 M121.2,242.4l3.5-3.5 M128.3,242.4l3.5-3.5 M78.7,164.4l7.1-7.1"/>
	<path class="st3" d="M337.4,199.8c0-17.1-13.9-31.1-31.1-31.1s-31.1,13.9-31.1,31.1s13.9,31.1,31.1,31.1S337.4,216.9,337.4,199.8
		L337.4,199.8z"/>
	<polyline points="347,202.1 351.5,199.9 347,197.6 348.1,199.9 	"/>
	<line class="st4" x1="262.9" y1="199.9" x2="348.1" y2="199.9"/>
	<polyline points="307.7,161.9 305.4,157.3 303.2,161.9 305.4,160.7 	"/>
	<line class="st4" x1="305.4" y1="242.4" x2="305.4" y2="160.7"/>
	<g>
		<path class="st1" d="M314.8,152.3h1.7c1.7,0,2.2-0.7,2.6-2.1c0.1-0.2,0.1-0.2,0.2-0.2s0.1,0.1,0.1,0.1c0,0,0,0.1,0,0.1l-0.7,2.2
			c-0.1,0.2-0.1,0.2-0.3,0.2H314c-0.2,0-0.2,0-0.2-0.1c0,0,0-0.2,0-0.2l5.6-6.2h-1.6c-1.6,0-2.1,0.7-2.5,1.8c0,0,0,0.1-0.1,0.1
			c-0.1,0-0.1-0.1-0.1-0.1c0,0,0-0.1,0-0.1l0.5-1.8c0.1-0.2,0.1-0.2,0.3-0.2h4.2c0.2,0,0.2,0,0.2,0.1c0,0.1,0,0.1,0,0.1L314.8,152.3
			z"/>
	</g>
	<g>
		<path class="st1" d="M320.9,150.8v-0.6h2.6v0.6H320.9z"/>
		<path class="st1" d="M327.2,148.2c1.1,0,2.1,1,2.1,2.3c0,1.3-1,2.3-2.2,2.3c-0.8,0-1.2-0.5-1.2-0.7v0.1v1.7c0,0.4,0.1,0.4,0.8,0.4
			v0.3c-0.3,0-0.9,0-1.1,0c-0.3,0-0.8,0-1.1,0v-0.3c0.7,0,0.8,0,0.8-0.4v-4.7c0-0.4-0.1-0.5-0.8-0.5v-0.3l1.4-0.1v0.7
			C326,148.7,326.4,148.2,327.2,148.2z M326,151.9c0.3,0.4,0.6,0.6,1,0.6c0.7,0,1.4-0.8,1.4-2c0-1.1-0.6-2-1.3-2
			c-0.5,0-1,0.3-1.3,0.8v2.2C325.8,151.7,325.8,151.7,326,151.9z"/>
		<path class="st1" d="M331.4,151.9c0,0.4,0.1,0.4,0.8,0.4v0.3c-0.4,0-0.9,0-1.1,0s-0.8,0-1.1,0v-0.3c0.7,0,0.8,0,0.8-0.4v-5.2
			c0-0.5-0.1-0.6-0.8-0.6v-0.3l1.4-0.1V151.9z"/>
		<path class="st1" d="M334.4,152.7c-0.6,0-1.6-0.2-1.6-1.1c0-0.4,0.2-1,1-1.3c0.6-0.3,1.3-0.3,1.8-0.4v-0.4c0-0.9-0.6-1.3-1.1-1.3
			c-0.3,0-0.8,0.1-1.1,0.5c0.5,0,0.5,0.3,0.5,0.5c0,0.3-0.2,0.5-0.5,0.5c-0.3,0-0.5-0.2-0.5-0.5c0-0.7,0.7-1.1,1.5-1.1
			c0.5,0,1,0.2,1.4,0.5c0.4,0.4,0.4,0.8,0.4,1.2v2c0,0,0,0.5,0.4,0.5c0.1,0,0.4-0.1,0.4-0.6v-0.6h0.2v0.6c0,0.8-0.6,0.9-0.8,0.9
			c-0.5,0-0.7-0.4-0.8-0.8C335.5,152.3,335,152.7,334.4,152.7z M333.6,151.7c0,0.5,0.4,0.8,0.9,0.8c0.4,0,1.2-0.3,1.2-1.3v-1
			C334,150.3,333.6,151.1,333.6,151.7z"/>
		<path class="st1" d="M337.7,148.6v-0.3l1.4-0.1v1c0.3-0.6,0.7-1,1.5-1c0.6,0,0.9,0.2,1,0.4c0.3,0.4,0.3,0.7,0.3,1.5v1.9
			c0,0.3,0.3,0.3,0.8,0.3v0.3c-0.3,0-0.9,0-1.1,0c-0.3,0-0.8,0-1.1,0v-0.3c0.7,0,0.8,0,0.8-0.4v-2.3c0-0.6-0.1-1.1-0.7-1.1
			c-0.6,0-1.3,0.6-1.3,1.6v1.8c0,0.4,0.1,0.4,0.8,0.4v0.3c-0.3,0-0.9,0-1.1,0c-0.3,0-0.8,0-1.1,0v-0.3c0.7,0,0.8,0,0.8-0.4v-2.7
			C338.5,148.7,338.4,148.6,337.7,148.6z"/>
		<path class="st1" d="M344.3,151.8c0.2,0.4,0.6,0.7,1.1,0.7c0.1,0,1,0,1.3-1c0-0.1,0-0.1,0.1-0.1c0,0,0.1,0,0.1,0.1
			c0,0.2-0.4,1.3-1.7,1.3c-1.1,0-2.2-1-2.2-2.3c0-1.2,0.9-2.3,2.1-2.3c1.2,0,1.8,1,1.8,2c0,0.2,0,0.2-0.2,0.2H344
			C344,150.7,344,151.3,344.3,151.8z M346.4,150.1c0-0.4-0.1-1.7-1.1-1.7c-0.3,0-1.2,0.3-1.2,1.7H346.4z"/>
	</g>
	<polyline points="309.8,142.8 350.7,142.8 350.7,142.3 309.8,142.3 	"/>
	<polyline points="309.8,157.8 310.3,157.8 310.3,142.6 309.8,142.6 	"/>
	<polyline points="350.3,157.8 350.7,157.8 350.7,142.6 350.3,142.6 	"/>
	<polyline points="309.8,158 350.7,158 350.7,157.6 309.8,157.6 	"/>
	<g>
		<path class="st1" d="M330.7,205.7c0,0.4,0,0.5,0.9,0.5h0.3v0.3c-0.3,0-1.2,0-1.6,0s-1.3,0-1.6,0v-0.3h0.3c0.9,0,0.9-0.1,0.9-0.5
			v-5.2c-0.5,0.3-1.1,0.3-1.3,0.3v-0.3c0.3,0,1.2,0,1.8-0.6c0.2,0,0.2,0,0.2,0.3V205.7z"/>
	</g>
	<path class="st5" d="M344.2,199.8c0-21.4-17.3-38.7-38.7-38.7s-38.7,17.3-38.7,38.7s17.3,38.7,38.7,38.7S344.2,221.2,344.2,199.8
		L344.2,199.8z"/>
	<path class="st6" d="M266.5,199.9l39-39 M277.1,224.7l53.1-53.1 M273.5,221.1l53.1-53.1 M271.8,215.8l49.6-49.6 M268.2,212.3
		l49.6-49.6 M266.5,206.9l46.1-46.1 M268.2,191l30.1-30.1 M271.8,180.4l12.4-12.4 M280.6,228.2l53.1-53.1 M284.2,231.8l53.1-53.1
		 M287.7,235.3l53.1-53.1 M293,237.1l49.6-49.6 M298.3,238.8l44.3-44.3 M305.4,238.8l39-39 M312.5,238.8l30.1-30.1 M326.7,231.8
		l14.2-14.2"/>
	<g>
		<path class="st1" d="M314.8,39h1.7c1.7,0,2.2-0.7,2.6-2.1c0.1-0.2,0.1-0.2,0.2-0.2s0.1,0.1,0.1,0.1c0,0,0,0.1,0,0.1l-0.7,2.2
			c-0.1,0.2-0.1,0.2-0.3,0.2H314c-0.2,0-0.2,0-0.2-0.1c0,0,0-0.2,0-0.2l5.6-6.2h-1.6c-1.6,0-2.1,0.7-2.5,1.8c0,0,0,0.1-0.1,0.1
			c-0.1,0-0.1-0.1-0.1-0.1c0,0,0-0.1,0-0.1l0.5-1.8c0.1-0.2,0.1-0.2,0.3-0.2h4.2c0.2,0,0.2,0,0.2,0.1c0,0.1,0,0.1,0,0.1L314.8,39z"
			/>
	</g>
	<g>
		<path class="st1" d="M320.9,37.5v-0.6h2.6v0.6H320.9z"/>
		<path class="st1" d="M327.2,34.9c1.1,0,2.1,1,2.1,2.3c0,1.3-1,2.3-2.2,2.3c-0.8,0-1.2-0.5-1.2-0.7v0.1v1.7c0,0.4,0.1,0.4,0.8,0.4
			v0.3c-0.3,0-0.9,0-1.1,0c-0.3,0-0.8,0-1.1,0V41c0.7,0,0.8,0,0.8-0.4v-4.7c0-0.4-0.1-0.5-0.8-0.5v-0.3l1.4-0.1v0.7
			C326,35.4,326.4,34.9,327.2,34.9z M326,38.6c0.3,0.4,0.6,0.6,1,0.6c0.7,0,1.4-0.8,1.4-2c0-1.1-0.6-2-1.3-2c-0.5,0-1,0.3-1.3,0.8
			v2.2C325.8,38.4,325.8,38.4,326,38.6z"/>
		<path class="st1" d="M331.4,38.6c0,0.4,0.1,0.4,0.8,0.4v0.3c-0.4,0-0.9,0-1.1,0s-0.8,0-1.1,0V39c0.7,0,0.8,0,0.8-0.4v-5.2
			c0-0.5-0.1-0.6-0.8-0.6v-0.3l1.4-0.1V38.6z"/>
		<path class="st1" d="M334.4,39.5c-0.6,0-1.6-0.2-1.6-1.1c0-0.4,0.2-1,1-1.3c0.6-0.3,1.3-0.3,1.8-0.4v-0.4c0-0.9-0.6-1.3-1.1-1.3
			c-0.3,0-0.8,0.1-1.1,0.5c0.5,0,0.5,0.3,0.5,0.5c0,0.3-0.2,0.5-0.5,0.5c-0.3,0-0.5-0.2-0.5-0.5c0-0.7,0.7-1.1,1.5-1.1
			c0.5,0,1,0.2,1.4,0.5c0.4,0.4,0.4,0.8,0.4,1.2v2c0,0,0,0.5,0.4,0.5c0.1,0,0.4-0.1,0.4-0.6v-0.6h0.2v0.6c0,0.8-0.6,0.9-0.8,0.9
			c-0.5,0-0.7-0.4-0.8-0.8C335.5,39.1,335,39.5,334.4,39.5z M333.6,38.4c0,0.5,0.4,0.8,0.9,0.8c0.4,0,1.2-0.3,1.2-1.3v-1
			C334,37,333.6,37.8,333.6,38.4z"/>
		<path class="st1" d="M337.7,35.4v-0.3l1.4-0.1v1c0.3-0.6,0.7-1,1.5-1c0.6,0,0.9,0.2,1,0.4c0.3,0.4,0.3,0.7,0.3,1.5v1.9
			c0,0.3,0.3,0.3,0.8,0.3v0.3c-0.3,0-0.9,0-1.1,0c-0.3,0-0.8,0-1.1,0V39c0.7,0,0.8,0,0.8-0.4v-2.3c0-0.6-0.1-1.1-0.7-1.1
			c-0.6,0-1.3,0.6-1.3,1.6v1.8c0,0.4,0.1,0.4,0.8,0.4v0.3c-0.3,0-0.9,0-1.1,0c-0.3,0-0.8,0-1.1,0V39c0.7,0,0.8,0,0.8-0.4v-2.7
			C338.5,35.4,338.4,35.4,337.7,35.4z"/>
		<path class="st1" d="M344.3,38.5c0.2,0.4,0.6,0.7,1.1,0.7c0.1,0,1,0,1.3-1c0-0.1,0-0.1,0.1-0.1c0,0,0.1,0,0.1,0.1
			c0,0.2-0.4,1.3-1.7,1.3c-1.1,0-2.2-1-2.2-2.3c0-1.2,0.9-2.3,2.1-2.3c1.2,0,1.8,1,1.8,2c0,0.2,0,0.2-0.2,0.2H344
			C344,37.4,344,38.1,344.3,38.5z M346.4,36.8c0-0.4-0.1-1.7-1.1-1.7c-0.3,0-1.2,0.2-1.2,1.7H346.4z"/>
	</g>
	<polyline points="309.8,29.4 350.7,29.4 350.7,28.9 309.8,28.9 	"/>
	<polyline points="309.8,44.4 310.3,44.4 310.3,29.2 309.8,29.2 	"/>
	<polyline points="350.3,44.4 350.7,44.4 350.7,29.2 350.3,29.2 	"/>
	<polyline points="309.8,44.6 350.7,44.6 350.7,44.2 309.8,44.2 	"/>
	<path class="st3" d="M337.4,86.4c0-17.1-13.9-31.1-31.1-31.1s-31.1,13.9-31.1,31.1s13.9,31.1,31.1,31.1S337.4,103.5,337.4,86.4
		L337.4,86.4z"/>
	<polyline points="347,88.7 351.5,86.5 347,84.2 348.1,86.5 	"/>
	<line class="st4" x1="262.9" y1="86.5" x2="348.1" y2="86.5"/>
	<polyline points="307.7,48.5 305.4,44 303.2,48.5 305.4,47.4 	"/>
	<line class="st4" x1="305.4" y1="129" x2="305.4" y2="47.4"/>
	<g>
		<path class="st1" d="M344.9,95.9c0,0.4,0,0.5,0.9,0.5h0.3v0.3c-0.3,0-1.2,0-1.6,0s-1.3,0-1.6,0v-0.3h0.3c0.9,0,0.9-0.1,0.9-0.5
			v-5.2c-0.5,0.3-1.1,0.3-1.3,0.3v-0.3c0.3,0,1.2,0,1.8-0.6c0.2,0,0.2,0,0.2,0.3V95.9z"/>
	</g>
	<path class="st5" d="M323.2,86.6c0-9.3-7.6-16.9-16.9-16.9c-9.3,0-16.9,7.6-16.9,16.9s7.6,16.9,16.9,16.9
		C315.7,103.5,323.2,95.9,323.2,86.6L323.2,86.6z"/>
	<path class="st6" d="M291.3,93.6l21.3-21.3 M310.8,102.4l10.6-10.6 M303.7,102.4l19.5-19.5 M298.3,100.6l23-23 M294.8,97.1l23-23
		 M289.5,88.2l17.7-17.7 M291.3,79.4l7.1-7.1"/>
	<g>
		<path class="st1" d="M12.3,20.5c-0.1,0-1-0.6-1.6-1.9c-0.5-1.1-0.7-2.3-0.7-3.1c0-0.8,0.1-1.9,0.6-3c0.6-1.3,1.5-1.9,1.6-1.9
			c0.1,0,0.1,0,0.1,0.1c0,0,0,0-0.1,0.2c-1.2,1.2-1.6,3-1.6,4.7c0,1.5,0.3,3.4,1.6,4.7C12.4,20.3,12.4,20.4,12.3,20.5
			C12.4,20.5,12.4,20.5,12.3,20.5z"/>
		<path class="st1" d="M15.8,13.6c0.4,0,0.7,0.3,0.7,0.6s-0.2,0.4-0.4,0.4c-0.2,0-0.4-0.1-0.4-0.4c0-0.3,0.2-0.4,0.2-0.4
			c0,0,0,0-0.1,0c-0.8,0-1.2,0.9-1.2,1.9v1.5c0,0.4,0,0.5,0.8,0.5h0.2V18c-0.4,0-0.9,0-1.3,0c-0.3,0-0.7,0-1.1,0v-0.3
			c0.7,0,0.8,0,0.8-0.4v-2.7c0-0.5-0.1-0.6-0.8-0.6v-0.3l1.4-0.1v1.1C14.8,14.3,15.1,13.6,15.8,13.6z"/>
		<path class="st1" d="M18.6,17.2c0,0.4,0,0.4,0.7,0.4V18c-0.3,0-0.7,0-1,0c-0.2,0-0.8,0-1.1,0v-0.3c0.7,0,0.8,0,0.8-0.4v-2.7
			c0-0.5-0.1-0.5-0.7-0.5v-0.3l1.4-0.1V17.2z M18.1,12.4c-0.3,0-0.5-0.3-0.5-0.5c0-0.3,0.2-0.5,0.5-0.5c0.3,0,0.5,0.2,0.5,0.5
			S18.4,12.4,18.1,12.4z"/>
		<path class="st1" d="M21.1,17.3c0.1,0,0.5,0,0.7,0c0.6,0,1.2,0,1.7,0.3c0.5,0.3,0.6,0.8,0.6,1.1c0,0.8-1,1.3-2.2,1.3
			c-1.2,0-2.2-0.5-2.2-1.3c0-0.4,0.3-0.8,0.9-1c-0.3-0.2-0.4-0.6-0.4-0.9c0-0.3,0.2-0.7,0.3-0.8c-0.2-0.2-0.5-0.6-0.5-1
			c0-0.8,0.7-1.5,1.6-1.5c0.2,0,0.6,0,1.1,0.4c0.4-0.4,0.9-0.5,1.1-0.5c0.4,0,0.5,0.3,0.5,0.5c0,0.2-0.2,0.3-0.3,0.3
			c-0.2,0-0.3-0.1-0.3-0.3c0-0.1,0-0.2,0.2-0.3c0,0-0.1,0-0.1,0c-0.2,0-0.5,0-0.9,0.4c0.2,0.2,0.4,0.6,0.4,1c0,0.8-0.7,1.5-1.6,1.5
			c-0.2,0-0.6,0-1-0.3c-0.2,0.2-0.2,0.4-0.2,0.5C20.6,17,20.8,17.3,21.1,17.3z M23.7,18.8c0-0.9-1.1-0.9-2-0.9h-0.6
			c-0.4,0-0.8,0.4-0.8,0.9c0,0.5,0.7,1,1.7,1C23,19.8,23.7,19.3,23.7,18.8z M22.5,15.9c0.1-0.2,0.2-0.6,0.2-0.8c0-0.2,0-1.2-0.9-1.2
			c-0.4,0-0.6,0.3-0.7,0.4c-0.1,0.2-0.2,0.6-0.2,0.8c0,0.2,0,1.2,0.9,1.2C22.2,16.3,22.4,16,22.5,15.9z"/>
	</g>
	<g>
		<path class="st1" d="M25.8,12.1c0-0.5-0.1-0.6-0.8-0.6v-0.3l1.4-0.1v3.5c0.2-0.4,0.6-1,1.4-1c0.6,0,0.9,0.2,1,0.4
			c0.3,0.4,0.3,0.7,0.3,1.5v1.9c0,0.3,0.3,0.3,0.8,0.3V18c-0.3,0-0.9,0-1.1,0c-0.3,0-0.8,0-1.1,0v-0.3c0.7,0,0.8,0,0.8-0.4v-2.3
			c0-0.6-0.1-1.1-0.7-1.1c-0.6,0-1.3,0.6-1.3,1.6v1.8c0,0.4,0.1,0.4,0.8,0.4V18c-0.3,0-0.9,0-1.1,0c-0.3,0-0.8,0-1.1,0v-0.3
			c0.7,0,0.8,0,0.8-0.4V12.1z"/>
		<path class="st1" d="M31.7,16.8c0,0.2,0,1.1,0.7,1.1c0.4,0,0.7-0.4,0.7-1.1v-0.5h0.2v0.6c0,0.6-0.3,1.3-1,1.3
			c-0.4,0-1.3-0.1-1.3-1.3V14h-0.8v-0.2c1,0,1.3-1.1,1.3-1.9h0.2v1.8h1.4V14h-1.4V16.8z"/>
	</g>
	<g>
		<path class="st1" d="M33.9,16.1v-0.6h2.6v0.6H33.9z"/>
		<path class="st1" d="M37.9,15.6c-0.3-0.2-0.4-0.5-0.4-0.8c0-0.6,0.4-1.2,1.6-1.2c0.1,0,0.6,0,0.9,0.3c0,0,0.1-0.1,0.2-0.2
			c0.1-0.1,0.1-0.1,0.2-0.1c0.1,0,0.1,0.1,0.1,0.2v1c0,0.2,0,0.2-0.1,0.2c0,0-0.1,0-0.1-0.1c0-0.3-0.1-1.2-1.2-1.2
			c-0.9,0-1.1,0.4-1.1,0.8c0,0.6,0.7,0.7,1.2,0.8c0.4,0.1,0.8,0.2,1.1,0.5c0.1,0.1,0.4,0.4,0.4,0.9c0,0.7-0.5,1.4-1.6,1.4
			c-0.2,0-0.7,0-1.1-0.4c-0.2,0.2-0.2,0.2-0.2,0.2c-0.2,0.2-0.2,0.2-0.2,0.2c-0.1,0-0.1-0.1-0.1-0.2v-1.3c0-0.2,0-0.2,0.1-0.2
			c0.1,0,0.1,0,0.1,0.2c0.2,0.8,0.5,1.4,1.4,1.4c0.8,0,1.1-0.4,1.1-0.9c0-0.7-0.8-0.9-1-0.9C38.5,15.9,38.2,15.9,37.9,15.6z"/>
		<path class="st1" d="M42.9,17.2c0,0.4,0,0.4,0.7,0.4V18c-0.3,0-0.7,0-1,0c-0.2,0-0.8,0-1.1,0v-0.3c0.7,0,0.8,0,0.8-0.4v-2.7
			c0-0.5-0.1-0.5-0.7-0.5v-0.3l1.4-0.1V17.2z M42.4,12.4c-0.3,0-0.5-0.3-0.5-0.5c0-0.3,0.2-0.5,0.5-0.5c0.3,0,0.5,0.2,0.5,0.5
			S42.7,12.4,42.4,12.4z"/>
		<path class="st1" d="M46.3,18.1c-1.1,0-2.1-1-2.1-2.3c0-1.3,1-2.3,2.2-2.3c0.5,0,1,0.3,1.3,0.6v-2.2c0-0.5-0.1-0.6-0.8-0.6v-0.3
			l1.4-0.1v6c0,0.5,0.1,0.6,0.8,0.6V18l-1.5,0.1v-0.7C47.4,17.8,47,18.1,46.3,18.1z M47.6,14.4c-0.3-0.4-0.7-0.6-1.1-0.6
			c-0.5,0-0.9,0.3-1.1,0.6c-0.3,0.4-0.3,1-0.3,1.4c0,0.4,0,1,0.3,1.4c0.2,0.4,0.6,0.6,1,0.6c0.4,0,0.9-0.2,1.2-0.7
			c0.1-0.2,0.1-0.2,0.1-0.4v-2C47.7,14.6,47.7,14.6,47.6,14.4z"/>
		<path class="st1" d="M50.8,17.2c0.2,0.4,0.6,0.7,1.1,0.7c0.1,0,1,0,1.3-1c0-0.1,0-0.1,0.1-0.1c0,0,0.1,0,0.1,0.1
			c0,0.2-0.4,1.3-1.7,1.3c-1.1,0-2.2-1-2.2-2.3c0-1.2,0.9-2.3,2.1-2.3c1.2,0,1.8,1,1.8,2c0,0.2,0,0.2-0.2,0.2h-2.8
			C50.5,16,50.5,16.7,50.8,17.2z M52.9,15.5c0-0.4-0.1-1.7-1.1-1.7c-0.3,0-1.2,0.2-1.2,1.7H52.9z"/>
		<path class="st1" d="M56.3,18.1c-1.1,0-2.1-1-2.1-2.3c0-1.3,1-2.3,2.2-2.3c0.5,0,1,0.3,1.3,0.6v-2.2c0-0.5-0.1-0.6-0.8-0.6v-0.3
			l1.4-0.1v6c0,0.5,0.1,0.6,0.8,0.6V18l-1.5,0.1v-0.7C57.4,17.8,57,18.1,56.3,18.1z M57.6,14.4c-0.3-0.4-0.7-0.6-1.1-0.6
			c-0.5,0-0.9,0.3-1.1,0.6c-0.3,0.4-0.3,1-0.3,1.4c0,0.4,0,1,0.3,1.4c0.2,0.4,0.6,0.6,1,0.6c0.4,0,0.9-0.2,1.2-0.7
			c0.1-0.2,0.1-0.2,0.1-0.4v-2C57.7,14.6,57.7,14.6,57.6,14.4z"/>
	</g>
	<g>
		<path class="st1" d="M61.6,18.5c-0.6,1.3-1.5,1.9-1.6,1.9c-0.1,0-0.1,0-0.1-0.1c0,0,0-0.1,0.1-0.2c1.2-1.3,1.6-3,1.6-4.7
			c0-2.1-0.6-3.7-1.5-4.7c-0.2-0.2-0.2-0.2-0.2-0.2c0-0.1,0-0.1,0.1-0.1c0.1,0,1,0.6,1.6,1.9c0.5,1.1,0.7,2.3,0.7,3.1
			C62.3,16.3,62.1,17.4,61.6,18.5z"/>
		<path class="st1" d="M200,20.5c-0.1,0-1-0.6-1.6-1.9c-0.5-1.1-0.7-2.3-0.7-3.1c0-0.8,0.1-1.9,0.6-3c0.6-1.3,1.5-1.9,1.6-1.9
			c0.1,0,0.1,0,0.1,0.1c0,0,0,0-0.1,0.2c-1.2,1.2-1.6,3-1.6,4.7c0,1.5,0.3,3.4,1.6,4.7C200.1,20.3,200.1,20.4,200,20.5
			C200.1,20.5,200,20.5,200,20.5z"/>
	</g>
	<g>
		<path class="st1" d="M202.4,17.2c0,0.4,0.1,0.4,0.8,0.4V18c-0.4,0-0.9,0-1.1,0s-0.8,0-1.1,0v-0.3c0.7,0,0.8,0,0.8-0.4v-5.2
			c0-0.5-0.1-0.6-0.8-0.6v-0.3l1.4-0.1V17.2z"/>
		<path class="st1" d="M204.8,17.2c0.2,0.4,0.6,0.7,1.1,0.7c0.1,0,1,0,1.3-1c0-0.1,0-0.1,0.1-0.1c0,0,0.1,0,0.1,0.1
			c0,0.2-0.4,1.3-1.7,1.3c-1.1,0-2.2-1-2.2-2.3c0-1.2,0.9-2.3,2.1-2.3c1.2,0,1.8,1,1.8,2c0,0.2,0,0.2-0.2,0.2h-2.8
			C204.5,16,204.5,16.7,204.8,17.2z M206.8,15.5c0-0.4-0.1-1.7-1.1-1.7c-0.3,0-1.2,0.2-1.2,1.7H206.8z"/>
		<path class="st1" d="M210.7,13.7V14h-1.1v3.2c0,0.4,0,0.5,0.8,0.5h0.2V18c-0.4,0-0.9,0-1.3,0c-0.3,0-0.7,0-1.1,0v-0.3
			c0.7,0,0.8,0,0.8-0.4V14h-0.8v-0.3h0.8v-1.1c0-1.1,0.8-1.6,1.5-1.6c0.5,0,0.9,0.3,0.9,0.7c0,0.2-0.2,0.4-0.4,0.4
			c-0.3,0-0.4-0.2-0.4-0.4c0-0.2,0.2-0.4,0.3-0.4c-0.1-0.1-0.3-0.1-0.3-0.1c-0.4,0-0.9,0.5-0.9,1.4v1.2H210.7z"/>
		<path class="st1" d="M212.6,16.8c0,0.2,0,1.1,0.7,1.1c0.4,0,0.7-0.4,0.7-1.1v-0.5h0.2v0.6c0,0.6-0.3,1.3-1,1.3
			c-0.4,0-1.3-0.1-1.3-1.3V14H211v-0.2c1,0,1.3-1.1,1.3-1.9h0.2v1.8h1.4V14h-1.4V16.8z"/>
		<path class="st1" d="M214.8,16.1v-0.6h2.6v0.6H214.8z"/>
		<path class="st1" d="M218.8,15.6c-0.3-0.2-0.4-0.5-0.4-0.8c0-0.6,0.4-1.2,1.6-1.2c0.1,0,0.6,0,0.9,0.3c0,0,0.1-0.1,0.2-0.2
			c0.1-0.1,0.1-0.1,0.2-0.1c0.1,0,0.1,0.1,0.1,0.2v1c0,0.2,0,0.2-0.1,0.2c0,0-0.1,0-0.1-0.1c0-0.3-0.1-1.2-1.2-1.2
			c-0.9,0-1.1,0.4-1.1,0.8c0,0.6,0.7,0.7,1.2,0.8c0.4,0.1,0.8,0.2,1.1,0.5c0.1,0.1,0.4,0.4,0.4,0.9c0,0.7-0.5,1.4-1.6,1.4
			c-0.2,0-0.7,0-1.1-0.4c-0.2,0.2-0.2,0.2-0.2,0.2c-0.2,0.2-0.2,0.2-0.2,0.2c-0.1,0-0.1-0.1-0.1-0.2v-1.3c0-0.2,0-0.2,0.1-0.2
			c0.1,0,0.1,0,0.1,0.2c0.2,0.8,0.5,1.4,1.4,1.4c0.8,0,1.1-0.4,1.1-0.9c0-0.7-0.8-0.9-1-0.9C219.4,15.9,219.1,15.9,218.8,15.6z"/>
		<path class="st1" d="M223.7,17.2c0,0.4,0,0.4,0.7,0.4V18c-0.3,0-0.7,0-1,0c-0.2,0-0.8,0-1.1,0v-0.3c0.7,0,0.8,0,0.8-0.4v-2.7
			c0-0.5-0.1-0.5-0.7-0.5v-0.3l1.4-0.1V17.2z M223.2,12.4c-0.3,0-0.5-0.3-0.5-0.5c0-0.3,0.2-0.5,0.5-0.5c0.3,0,0.5,0.2,0.5,0.5
			S223.5,12.4,223.2,12.4z"/>
		<path class="st1" d="M227.1,18.1c-1.1,0-2.1-1-2.1-2.3c0-1.3,1-2.3,2.2-2.3c0.5,0,1,0.3,1.3,0.6v-2.2c0-0.5-0.1-0.6-0.8-0.6v-0.3
			l1.4-0.1v6c0,0.5,0.1,0.6,0.8,0.6V18l-1.5,0.1v-0.7C228.2,17.8,227.8,18.1,227.1,18.1z M228.4,14.4c-0.3-0.4-0.7-0.6-1.1-0.6
			c-0.5,0-0.9,0.3-1.1,0.6c-0.3,0.4-0.3,1-0.3,1.4c0,0.4,0,1,0.3,1.4c0.2,0.4,0.6,0.6,1,0.6c0.4,0,0.9-0.2,1.2-0.7
			c0.1-0.2,0.1-0.2,0.1-0.4v-2C228.5,14.6,228.5,14.6,228.4,14.4z"/>
		<path class="st1" d="M231.6,17.2c0.2,0.4,0.6,0.7,1.1,0.7c0.1,0,1,0,1.3-1c0-0.1,0-0.1,0.1-0.1c0,0,0.1,0,0.1,0.1
			c0,0.2-0.4,1.3-1.7,1.3c-1.1,0-2.2-1-2.2-2.3c0-1.2,0.9-2.3,2.1-2.3c1.2,0,1.8,1,1.8,2c0,0.2,0,0.2-0.2,0.2h-2.8
			C231.3,16,231.3,16.7,231.6,17.2z M233.7,15.5c0-0.4-0.1-1.7-1.1-1.7c-0.3,0-1.2,0.2-1.2,1.7H233.7z"/>
		<path class="st1" d="M237.1,18.1c-1.1,0-2.1-1-2.1-2.3c0-1.3,1-2.3,2.2-2.3c0.5,0,1,0.3,1.3,0.6v-2.2c0-0.5-0.1-0.6-0.8-0.6v-0.3
			l1.4-0.1v6c0,0.5,0.1,0.6,0.8,0.6V18l-1.5,0.1v-0.7C238.2,17.8,237.7,18.1,237.1,18.1z M238.3,14.4c-0.3-0.4-0.7-0.6-1.1-0.6
			c-0.5,0-0.9,0.3-1.1,0.6c-0.3,0.4-0.3,1-0.3,1.4c0,0.4,0,1,0.3,1.4c0.2,0.4,0.6,0.6,1,0.6c0.4,0,0.9-0.2,1.2-0.7
			c0.1-0.2,0.1-0.2,0.1-0.4v-2C238.4,14.6,238.4,14.6,238.3,14.4z"/>
	</g>
	<g>
		<path class="st1" d="M242.5,18.5c-0.6,1.3-1.5,1.9-1.6,1.9c-0.1,0-0.1,0-0.1-0.1c0,0,0-0.1,0.1-0.2c1.2-1.3,1.6-3,1.6-4.7
			c0-2.1-0.6-3.7-1.5-4.7c-0.2-0.2-0.2-0.2-0.2-0.2c0-0.1,0-0.1,0.1-0.1c0.1,0,1,0.6,1.6,1.9c0.5,1.1,0.7,2.3,0.7,3.1
			C243.1,16.3,243,17.4,242.5,18.5z"/>
	</g>
	<polyline points="56.4,102.9 60.9,100.6 56.4,98.4 57.5,100.6 	"/>
	<line class="st4" x1="14.9" y1="100.6" x2="57.5" y2="100.6"/>
	<polyline points="31.3,69.8 29.1,65.2 26.8,69.8 29.1,68.6 	"/>
	<line class="st4" x1="29.1" y1="104.2" x2="29.1" y2="68.6"/>
	<path class="st3" d="M36.1,86.5v14.2 M43.2,93.6v7.1 M50.3,100.6v-3.5"/>
	<path class="st7" d="M29.1,72.3c0,0,3.9,9.7,7.1,14.2c2,2.8,4.3,5.1,7.1,7.1c2.2,1.6,4.4,2.9,7.1,3.5c2.4,0.6,7.1,0,7.1,0l0,0"/>
	<line class="st3" x1="29.1" y1="100.6" x2="29.1" y2="72.3"/>
	<g>
		<path class="st1" d="M22,102.3c-1.1,0-1.9-0.9-1.9-1.9c0-1,0.9-1.9,1.9-1.9c1,0,1.9,0.9,1.9,1.9C24,101.4,23.1,102.3,22,102.3z"/>
	</g>
	<g>
		<path class="st1" d="M15,102.3c-1.1,0-1.9-0.9-1.9-1.9c0-1,0.9-1.9,1.9-1.9c1,0,1.9,0.9,1.9,1.9C16.9,101.4,16,102.3,15,102.3z"/>
	</g>
	<g>
		<path class="st1" d="M29.1,74c-1.1,0-1.9-0.9-1.9-1.9c0-1,0.9-1.9,1.9-1.9c1,0,1.9,0.9,1.9,1.9C31,73.1,30.2,74,29.1,74z"/>
	</g>
	<g>
		<path class="st1" d="M36.2,88.1c-1.1,0-1.9-0.9-1.9-1.9c0-1,0.9-1.9,1.9-1.9c1,0,1.9,0.9,1.9,1.9C38.1,87.3,37.2,88.1,36.2,88.1z"
			/>
	</g>
	<g>
		<path class="st1" d="M43.3,95.2c-1.1,0-1.9-0.9-1.9-1.9c0-1,0.9-1.9,1.9-1.9c1,0,1.9,0.9,1.9,1.9C45.2,94.3,44.3,95.2,43.3,95.2z"
			/>
	</g>
	<g>
		<path class="st1" d="M50.4,98.7c-1.1,0-1.9-0.9-1.9-1.9c0-1,0.9-1.9,1.9-1.9c1,0,1.9,0.9,1.9,1.9C52.3,97.8,51.4,98.7,50.4,98.7z"
			/>
	</g>
	<g>
		<path class="st2" d="M24,119.9c0,1.1-0.8,2.1-2,2.1c-0.9,0-1.5-0.4-1.8-0.7c-0.3,0.5-0.4,0.6-0.4,0.6c-0.1,0.1-0.1,0.1-0.1,0.1
			c-0.1,0-0.1-0.1-0.1-0.2v-2c0-0.2,0-0.2,0.1-0.2c0,0,0.1,0,0.1,0.1c0,0.4,0,1,0.6,1.5c0.5,0.5,1.3,0.5,1.6,0.5
			c0.8,0,1.3-0.7,1.3-1.4c0-0.3-0.1-0.7-0.3-0.9c-0.3-0.4-0.6-0.4-0.8-0.5c-0.7-0.2-1.2-0.3-1.3-0.3c-0.8-0.3-1.3-1-1.3-1.8
			c0-1.1,0.8-1.9,1.9-1.9c0.9,0,1.3,0.4,1.6,0.7l0.3-0.6c0.1-0.1,0.1-0.1,0.1-0.1c0.1,0,0.1,0.1,0.1,0.2v2c0,0.2,0,0.2-0.1,0.2
			c-0.1,0-0.1-0.1-0.1-0.1c-0.1-0.4-0.3-2.1-1.9-2.1c-0.8,0-1.3,0.6-1.3,1.3c0,0.6,0.4,1.1,1,1.3l1.3,0.3
			C23.4,118.1,24,118.9,24,119.9z"/>
		<path class="st2" d="M26.3,120.6c0,0.2,0,1.1,0.7,1.1c0.4,0,0.7-0.4,0.7-1.1V120h0.2v0.6c0,0.6-0.3,1.3-1,1.3
			c-0.4,0-1.3-0.1-1.3-1.3v-2.8h-0.8v-0.2c1,0,1.3-1.1,1.3-1.9h0.2v1.8h1.4v0.3h-1.4V120.6z"/>
		<path class="st2" d="M30.5,121.9c-0.6,0-1.6-0.2-1.6-1.1c0-0.4,0.2-1,1-1.3c0.6-0.3,1.3-0.3,1.8-0.4v-0.4c0-0.9-0.6-1.3-1.1-1.3
			c-0.3,0-0.8,0.1-1.1,0.5c0.5,0,0.5,0.3,0.5,0.5c0,0.3-0.2,0.5-0.5,0.5c-0.3,0-0.5-0.2-0.5-0.5c0-0.7,0.7-1.1,1.5-1.1
			c0.5,0,1,0.2,1.4,0.5c0.4,0.4,0.4,0.8,0.4,1.2v2c0,0,0,0.5,0.4,0.5c0.1,0,0.4-0.1,0.4-0.6v-0.6h0.2v0.6c0,0.8-0.6,0.9-0.8,0.9
			c-0.5,0-0.7-0.4-0.8-0.8C31.6,121.5,31.2,121.9,30.5,121.9z M29.7,120.8c0,0.5,0.4,0.8,0.9,0.8c0.4,0,1.2-0.3,1.2-1.3v-1
			C30.1,119.5,29.7,120.3,29.7,120.8z"/>
		<path class="st2" d="M36.6,117.4c1.1,0,2.1,1,2.1,2.3c0,1.3-1,2.3-2.2,2.3c-0.7,0-1.2-0.5-1.3-0.7c-0.3,0.5-0.3,0.6-0.4,0.6h-0.2
			v-5.9c0-0.5-0.1-0.6-0.8-0.6V115l1.4-0.1v3.2C35.4,117.9,35.8,117.4,36.6,117.4z M35.4,121.1c0.2,0.4,0.6,0.6,1,0.6
			c0.5,0,0.9-0.3,1.1-0.6c0.3-0.4,0.3-1,0.3-1.4c0-0.4,0-1-0.3-1.4c-0.2-0.4-0.6-0.6-1-0.6c-0.2,0-0.8,0.1-1.2,0.6
			c-0.1,0.2-0.1,0.2-0.1,0.4v2.1C35.2,120.8,35.2,120.9,35.4,121.1z"/>
		<path class="st2" d="M40.8,121c0,0.4,0.1,0.4,0.8,0.4v0.3c-0.4,0-0.9,0-1.1,0c-0.2,0-0.8,0-1.1,0v-0.3c0.7,0,0.8,0,0.8-0.4v-5.2
			c0-0.5-0.1-0.6-0.8-0.6V115l1.4-0.1V121z"/>
		<path class="st2" d="M43.2,121c0.2,0.4,0.6,0.7,1.1,0.7c0.1,0,1,0,1.3-1c0-0.1,0-0.1,0.1-0.1c0,0,0.1,0,0.1,0.1
			c0,0.2-0.4,1.3-1.7,1.3c-1.1,0-2.2-1-2.2-2.3c0-1.2,0.9-2.3,2.1-2.3c1.2,0,1.8,1,1.8,2c0,0.2,0,0.2-0.2,0.2h-2.8
			C42.9,119.9,42.9,120.5,43.2,121z M45.3,119.3c0-0.4-0.1-1.7-1.1-1.7c-0.3,0-1.2,0.2-1.2,1.7H45.3z"/>
	</g>
	<polyline points="56.4,216.3 60.9,214 56.4,211.8 57.5,214 	"/>
	<line class="st4" x1="14.9" y1="214" x2="57.5" y2="214"/>
	<polyline points="31.3,183.1 29.1,178.6 26.8,183.1 29.1,182 	"/>
	<line class="st4" x1="29.1" y1="217.6" x2="29.1" y2="182"/>
	<g>
		<path class="st1" d="M22,215.7c-1.1,0-1.9-0.9-1.9-1.9c0-1,0.9-1.9,1.9-1.9c1,0,1.9,0.9,1.9,1.9S23.1,215.7,22,215.7z"/>
	</g>
	<g>
		<path class="st1" d="M15,215.7c-1.1,0-1.9-0.9-1.9-1.9c0-1,0.9-1.9,1.9-1.9c1,0,1.9,0.9,1.9,1.9S16,215.7,15,215.7z"/>
	</g>
	<line class="st3" x1="36.1" y1="206.9" x2="36.1" y2="214"/>
	<g>
		<path class="st1" d="M36.2,208.6c-1.1,0-1.9-0.9-1.9-1.9c0-1,0.9-1.9,1.9-1.9c1,0,1.9,0.9,1.9,1.9S37.2,208.6,36.2,208.6z"/>
	</g>
	<line class="st3" x1="29.1" y1="214" x2="29.1" y2="210.5"/>
	<g>
		<path class="st1" d="M29.1,212.1c-1.1,0-1.9-0.9-1.9-1.9c0-1,0.9-1.9,1.9-1.9c1,0,1.9,0.9,1.9,1.9S30.2,212.1,29.1,212.1z"/>
	</g>
	<line class="st3" x1="43.2" y1="199.9" x2="43.2" y2="214"/>
	<g>
		<path class="st1" d="M43.3,201.5c-1.1,0-1.9-0.9-1.9-1.9c0-1,0.9-1.9,1.9-1.9c1,0,1.9,0.9,1.9,1.9S44.3,201.5,43.3,201.5z"/>
	</g>
	<line class="st3" x1="50.3" y1="214" x2="50.3" y2="185.7"/>
	<g>
		<path class="st1" d="M50.4,187.2c-1.1,0-1.9-0.9-1.9-1.9c0-1,0.9-1.9,1.9-1.9c1,0,1.9,0.9,1.9,1.9S51.4,187.2,50.4,187.2z"/>
	</g>
	<path class="st8" d="M29.1,210.5c0,0,4.9-1.9,7.1-3.5c2.8-2,5.1-4.3,7.1-7.1c3.2-4.4,4.6-9.3,7.1-14.2c1.2-2.4,3.5-7.1,3.5-7.1l0,0
		"/>
	<g>
		<path class="st2" d="M15,233.7v-4.3c0-0.3,0-0.7-1-0.7v-0.3c0.3,0,0.8,0,1.2,0c0.3,0,0.8,0,1.2,0v0.3c-1,0-1,0.5-1,0.7v5.5
			c0,0.2,0,0.3-0.1,0.3c-0.1,0-0.1,0-0.2-0.1l-4.1-6c0-0.1,0-0.1-0.1-0.1v5.2c0,0.3,0,0.7,1,0.7v0.3c-0.3,0-0.8,0-1.2,0
			s-0.8,0-1.2,0v-0.3c1,0,1-0.5,1-0.7v-5.2c0-0.2,0-0.2-0.2-0.2c-0.1,0-0.3,0-0.5,0H9.5v-0.3h1.7c0.2,0,0.2,0,0.3,0.1L15,233.7z"/>
		<path class="st2" d="M19.2,235.3c-1.2,0-2.2-1-2.2-2.2c0-1.2,1-2.3,2.2-2.3c1.2,0,2.2,1.1,2.2,2.3
			C21.4,234.3,20.4,235.3,19.2,235.3z M20.3,234.3c0.2-0.4,0.2-1,0.2-1.3c0-0.4,0-1-0.3-1.4c-0.3-0.4-0.7-0.6-1.1-0.6
			c-0.4,0-0.9,0.2-1.1,0.7c-0.2,0.4-0.2,1-0.2,1.4c0,0.4,0,1,0.2,1.4c0.3,0.5,0.7,0.7,1.1,0.7C19.7,235.1,20.1,234.8,20.3,234.3z"/>
		<path class="st2" d="M22,231.2v-0.3l1.4-0.1v1c0.3-0.6,0.7-1,1.5-1c0.6,0,0.9,0.2,1,0.4c0.3,0.4,0.3,0.7,0.3,1.5v1.9
			c0,0.3,0.3,0.3,0.8,0.3v0.3c-0.3,0-0.9,0-1.1,0c-0.3,0-0.8,0-1.1,0v-0.3c0.7,0,0.8,0,0.8-0.4v-2.3c0-0.6-0.1-1.1-0.7-1.1
			c-0.6,0-1.3,0.6-1.3,1.6v1.8c0,0.4,0.1,0.4,0.8,0.4v0.3c-0.3,0-0.9,0-1.1,0c-0.3,0-0.8,0-1.1,0v-0.3c0.7,0,0.8,0,0.8-0.4v-2.7
			C22.8,231.3,22.7,231.2,22,231.2z"/>
		<path class="st2" d="M27.3,233.3v-0.6H30v0.6H27.3z"/>
		<path class="st2" d="M31.3,232.8c-0.3-0.2-0.4-0.5-0.4-0.8c0-0.6,0.4-1.2,1.6-1.2c0.1,0,0.6,0,0.9,0.3c0,0,0.1-0.1,0.2-0.2
			c0.1-0.1,0.1-0.1,0.2-0.1c0.1,0,0.1,0.1,0.1,0.2v1c0,0.2,0,0.2-0.1,0.2c0,0-0.1,0-0.1-0.1c0-0.3-0.1-1.2-1.2-1.2
			c-0.9,0-1.1,0.4-1.1,0.8c0,0.6,0.7,0.7,1.2,0.8c0.4,0.1,0.8,0.2,1.1,0.5c0.1,0.1,0.4,0.4,0.4,0.9c0,0.7-0.5,1.4-1.6,1.4
			c-0.2,0-0.7,0-1.1-0.4c-0.2,0.2-0.2,0.2-0.2,0.2c-0.2,0.2-0.2,0.2-0.2,0.2c-0.1,0-0.1-0.1-0.1-0.2v-1.3c0-0.2,0-0.3,0.1-0.3
			c0.1,0,0.1,0,0.1,0.2c0.2,0.8,0.5,1.4,1.4,1.4c0.8,0,1.1-0.4,1.1-0.9c0-0.7-0.8-0.9-1-0.9C31.9,233.1,31.6,233.1,31.3,232.8z"/>
		<path class="st2" d="M36.2,234c0,0.2,0,1.1,0.7,1.1c0.4,0,0.7-0.4,0.7-1.1v-0.5h0.2v0.6c0,0.6-0.3,1.3-1,1.3
			c-0.4,0-1.3-0.1-1.3-1.3v-2.8h-0.8V231c1,0,1.3-1.1,1.3-1.9h0.2v1.8h1.4v0.3h-1.4V234z"/>
		<path class="st2" d="M40.4,235.3c-0.6,0-1.6-0.2-1.6-1.1c0-0.4,0.2-1,1-1.3c0.6-0.3,1.3-0.3,1.8-0.4v-0.4c0-0.9-0.6-1.3-1.1-1.3
			c-0.3,0-0.8,0.1-1.1,0.5c0.5,0,0.5,0.3,0.5,0.5c0,0.3-0.2,0.5-0.5,0.5c-0.3,0-0.5-0.2-0.5-0.5c0-0.7,0.7-1.1,1.5-1.1
			c0.5,0,1,0.2,1.4,0.5c0.4,0.4,0.4,0.8,0.4,1.2v2c0,0,0,0.5,0.4,0.5c0.1,0,0.4-0.1,0.4-0.6v-0.6h0.2v0.6c0,0.8-0.6,0.9-0.8,0.9
			c-0.5,0-0.7-0.4-0.8-0.8C41.5,234.9,41,235.3,40.4,235.3z M39.6,234.2c0,0.5,0.4,0.8,0.9,0.8c0.4,0,1.2-0.3,1.2-1.3v-1
			C40,232.9,39.6,233.7,39.6,234.2z"/>
		<path class="st2" d="M46.4,230.8c1.1,0,2.1,1,2.1,2.3c0,1.3-1,2.3-2.2,2.3c-0.7,0-1.2-0.5-1.3-0.7c-0.3,0.5-0.3,0.6-0.4,0.6h-0.2
			v-5.9c0-0.5-0.1-0.6-0.8-0.6v-0.3l1.4-0.1v3.2C45.2,231.3,45.7,230.8,46.4,230.8z M45.2,234.5c0.2,0.4,0.6,0.6,1,0.6
			c0.5,0,0.9-0.3,1.1-0.6c0.3-0.4,0.3-1,0.3-1.4c0-0.4,0-1-0.3-1.4c-0.2-0.4-0.6-0.6-1-0.6c-0.2,0-0.8,0.1-1.2,0.6
			c-0.1,0.2-0.1,0.2-0.1,0.4v2.1C45.1,234.2,45.1,234.3,45.2,234.5z"/>
		<path class="st2" d="M50.7,234.4c0,0.4,0.1,0.4,0.8,0.4v0.3c-0.4,0-0.9,0-1.1,0c-0.2,0-0.8,0-1.1,0v-0.3c0.7,0,0.8,0,0.8-0.4v-5.2
			c0-0.5-0.1-0.6-0.8-0.6v-0.3l1.4-0.1V234.4z"/>
		<path class="st2" d="M53.1,234.4c0.2,0.4,0.6,0.7,1.1,0.7c0.1,0,1,0,1.3-1c0-0.1,0-0.1,0.1-0.1c0,0,0.1,0,0.1,0.1
			c0,0.2-0.4,1.3-1.7,1.3c-1.1,0-2.2-1-2.2-2.3c0-1.2,0.9-2.3,2.1-2.3c1.2,0,1.8,1,1.8,2c0,0.2,0,0.2-0.2,0.2h-2.8
			C52.8,233.3,52.8,233.9,53.1,234.4z M55.1,232.7c0-0.4-0.1-1.7-1.1-1.7c-0.3,0-1.2,0.3-1.2,1.7H55.1z"/>
	</g>
	<polyline points="237.1,74.6 241.7,72.3 237.1,70 238.3,72.3 	"/>
	<line class="st4" x1="195.6" y1="72.3" x2="238.3" y2="72.3"/>
	<polyline points="229.7,62.7 227.5,58.1 225.2,62.7 227.5,61.5 	"/>
	<line class="st4" x1="227.5" y1="107.7" x2="227.5" y2="61.5"/>
	<path class="st3" d="M206.2,72.3v14.2 M213.3,72.3v7.1 M220.4,75.8v-3.5 M199.1,100.6V72.3"/>
	<g>
		<path class="st1" d="M234.6,74c-1.1,0-1.9-0.9-1.9-1.9c0-1,0.9-1.9,1.9-1.9c1,0,1.9,0.9,1.9,1.9C236.5,73.1,235.6,74,234.6,74z"/>
	</g>
	<g>
		<path class="st1" d="M227.5,74c-1.1,0-1.9-0.9-1.9-1.9c0-1,0.9-1.9,1.9-1.9c1,0,1.9,0.9,1.9,1.9C229.4,73.1,228.5,74,227.5,74z"/>
	</g>
	<g>
		<path class="st1" d="M220.4,77.4c-1.1,0-1.9-0.9-1.9-1.9c0-1,0.9-1.9,1.9-1.9c1,0,1.9,0.9,1.9,1.9
			C222.3,76.6,221.4,77.4,220.4,77.4z"/>
	</g>
	<g>
		<path class="st1" d="M199.2,102.3c-1.1,0-1.9-0.9-1.9-1.9c0-1,0.9-1.9,1.9-1.9c1,0,1.9,0.9,1.9,1.9
			C201.1,101.4,200.2,102.3,199.2,102.3z"/>
	</g>
	<g>
		<path class="st1" d="M213.3,81c-1.1,0-1.9-0.9-1.9-1.9c0-1,0.9-1.9,1.9-1.9c1,0,1.9,0.9,1.9,1.9C215.2,80.2,214.4,81,213.3,81z"/>
	</g>
	<g>
		<path class="st1" d="M206.2,88.1c-1.1,0-1.9-0.9-1.9-1.9c0-1,0.9-1.9,1.9-1.9c1,0,1.9,0.9,1.9,1.9
			C208.2,87.3,207.3,88.1,206.2,88.1z"/>
	</g>
	<path class="st9" d="M220.4,75.8c0,0-4.9,1.9-7.1,3.5c-2.8,2-5.1,4.3-7.1,7.1c-3.2,4.4-5,9.1-7.1,14.2c-1.5,3.6-3.5,10.6-3.5,10.6
		l0,0"/>
	<g>
		<path class="st2" d="M202.9,120.3V116c0-0.3,0-0.7-1-0.7V115c0.3,0,0.8,0,1.2,0c0.3,0,0.8,0,1.2,0v0.3c-1,0-1,0.5-1,0.7v5.5
			c0,0.2,0,0.3-0.1,0.3c-0.1,0-0.1,0-0.2-0.1l-4.1-6c0-0.1,0-0.1-0.1-0.1v5.2c0,0.3,0,0.7,1,0.7v0.3c-0.3,0-0.8,0-1.2,0
			c-0.3,0-0.8,0-1.2,0v-0.3c1,0,1-0.5,1-0.7v-5.2c0-0.2,0-0.2-0.2-0.2c-0.1,0-0.3,0-0.5,0h-0.3V115h1.7c0.2,0,0.2,0,0.3,0.1
			L202.9,120.3z"/>
		<path class="st2" d="M207,121.9c-1.2,0-2.2-1-2.2-2.2c0-1.2,1-2.3,2.2-2.3c1.2,0,2.2,1.1,2.2,2.3
			C209.2,120.9,208.2,121.9,207,121.9z M208.2,120.9c0.2-0.4,0.2-1,0.2-1.3c0-0.4,0-1-0.3-1.4c-0.3-0.4-0.7-0.6-1.1-0.6
			c-0.4,0-0.9,0.2-1.1,0.7c-0.2,0.4-0.2,1-0.2,1.4c0,0.4,0,1,0.2,1.4c0.3,0.5,0.7,0.7,1.1,0.7C207.5,121.7,207.9,121.4,208.2,120.9z
			"/>
		<path class="st2" d="M209.8,117.8v-0.3l1.4-0.1v1c0.3-0.6,0.7-1,1.5-1c0.6,0,0.9,0.2,1,0.4c0.3,0.4,0.3,0.7,0.3,1.5v1.9
			c0,0.3,0.3,0.3,0.8,0.3v0.3c-0.3,0-0.9,0-1.1,0c-0.3,0-0.8,0-1.1,0v-0.3c0.7,0,0.8,0,0.8-0.4v-2.3c0-0.6-0.1-1.1-0.7-1.1
			c-0.6,0-1.3,0.6-1.3,1.6v1.8c0,0.4,0.1,0.4,0.8,0.4v0.3c-0.3,0-0.9,0-1.1,0c-0.3,0-0.8,0-1.1,0v-0.3c0.7,0,0.8,0,0.8-0.4v-2.7
			C210.6,117.9,210.5,117.8,209.8,117.8z"/>
		<path class="st2" d="M215.1,119.9v-0.6h2.6v0.6H215.1z"/>
		<path class="st2" d="M219.1,119.4c-0.3-0.2-0.4-0.5-0.4-0.8c0-0.6,0.4-1.2,1.6-1.2c0.1,0,0.6,0,0.9,0.3c0,0,0.1-0.1,0.2-0.2
			c0.1-0.1,0.1-0.1,0.2-0.1c0.1,0,0.1,0.1,0.1,0.2v1c0,0.2,0,0.2-0.1,0.2c0,0-0.1,0-0.1-0.1c0-0.3-0.1-1.2-1.2-1.2
			c-0.9,0-1.1,0.4-1.1,0.8c0,0.6,0.7,0.7,1.2,0.8c0.4,0.1,0.8,0.2,1.1,0.5c0.1,0.1,0.4,0.4,0.4,0.9c0,0.7-0.5,1.4-1.6,1.4
			c-0.2,0-0.7,0-1.1-0.4c-0.2,0.2-0.2,0.2-0.2,0.2c-0.2,0.2-0.2,0.2-0.2,0.2c-0.1,0-0.1-0.1-0.1-0.2v-1.3c0-0.2,0-0.2,0.1-0.2
			c0.1,0,0.1,0,0.1,0.2c0.2,0.8,0.5,1.4,1.4,1.4c0.8,0,1.1-0.4,1.1-0.9c0-0.7-0.8-0.9-1-0.9C219.7,119.7,219.4,119.7,219.1,119.4z"
			/>
		<path class="st2" d="M224,120.6c0,0.2,0,1.1,0.7,1.1c0.4,0,0.7-0.4,0.7-1.1V120h0.2v0.6c0,0.6-0.3,1.3-1,1.3
			c-0.4,0-1.3-0.1-1.3-1.3v-2.8h-0.8v-0.2c1,0,1.3-1.1,1.3-1.9h0.2v1.8h1.4v0.3H224V120.6z"/>
		<path class="st2" d="M228.2,121.9c-0.6,0-1.6-0.2-1.6-1.1c0-0.4,0.2-1,1-1.3c0.6-0.3,1.3-0.3,1.8-0.4v-0.4c0-0.9-0.6-1.3-1.1-1.3
			c-0.3,0-0.8,0.1-1.1,0.5c0.5,0,0.5,0.3,0.5,0.5c0,0.3-0.2,0.5-0.5,0.5c-0.3,0-0.5-0.2-0.5-0.5c0-0.7,0.7-1.1,1.5-1.1
			c0.5,0,1,0.2,1.4,0.5c0.4,0.4,0.4,0.8,0.4,1.2v2c0,0,0,0.5,0.4,0.5c0.1,0,0.4-0.1,0.4-0.6v-0.6h0.2v0.6c0,0.8-0.6,0.9-0.8,0.9
			c-0.5,0-0.7-0.4-0.8-0.8C229.3,121.5,228.8,121.9,228.2,121.9z M227.4,120.8c0,0.5,0.4,0.8,0.9,0.8c0.4,0,1.2-0.3,1.2-1.3v-1
			C227.8,119.5,227.4,120.3,227.4,120.8z"/>
		<path class="st2" d="M234.2,117.4c1.1,0,2.1,1,2.1,2.3c0,1.3-1,2.3-2.2,2.3c-0.7,0-1.2-0.5-1.3-0.7c-0.3,0.5-0.3,0.6-0.4,0.6h-0.2
			v-5.9c0-0.5-0.1-0.6-0.8-0.6V115l1.4-0.1v3.2C233,117.9,233.5,117.4,234.2,117.4z M233,121.1c0.2,0.4,0.6,0.6,1,0.6
			c0.5,0,0.9-0.3,1.1-0.6c0.3-0.4,0.3-1,0.3-1.4c0-0.4,0-1-0.3-1.4c-0.2-0.4-0.6-0.6-1-0.6c-0.2,0-0.8,0.1-1.2,0.6
			c-0.1,0.2-0.1,0.2-0.1,0.4v2.1C232.9,120.8,232.9,120.9,233,121.1z"/>
		<path class="st2" d="M238.5,121c0,0.4,0.1,0.4,0.8,0.4v0.3c-0.4,0-0.9,0-1.1,0s-0.8,0-1.1,0v-0.3c0.7,0,0.8,0,0.8-0.4v-5.2
			c0-0.5-0.1-0.6-0.8-0.6V115l1.4-0.1V121z"/>
		<path class="st2" d="M240.9,121c0.2,0.4,0.6,0.7,1.1,0.7c0.1,0,1,0,1.3-1c0-0.1,0-0.1,0.1-0.1c0,0,0.1,0,0.1,0.1
			c0,0.2-0.4,1.3-1.7,1.3c-1.1,0-2.2-1-2.2-2.3c0-1.2,0.9-2.3,2.1-2.3c1.2,0,1.8,1,1.8,2c0,0.2,0,0.2-0.2,0.2h-2.8
			C240.6,119.9,240.6,120.5,240.9,121z M243,119.3c0-0.4-0.1-1.7-1.1-1.7c-0.3,0-1.2,0.2-1.2,1.7H243z"/>
	</g>
	<polyline points="237.1,188 241.7,185.7 237.1,183.4 238.3,185.7 	"/>
	<line class="st4" x1="195.6" y1="185.7" x2="238.3" y2="185.7"/>
	<polyline points="229.7,176.1 227.5,171.5 225.2,176.1 227.5,174.9 	"/>
	<line class="st4" x1="227.5" y1="221.1" x2="227.5" y2="174.9"/>
	<g>
		<path class="st1" d="M234.6,187.2c-1.1,0-1.9-0.9-1.9-1.9c0-1,0.9-1.9,1.9-1.9c1,0,1.9,0.9,1.9,1.9S235.6,187.2,234.6,187.2z"/>
	</g>
	<g>
		<path class="st1" d="M227.5,187.2c-1.1,0-1.9-0.9-1.9-1.9c0-1,0.9-1.9,1.9-1.9c1,0,1.9,0.9,1.9,1.9S228.5,187.2,227.5,187.2z"/>
	</g>
	<line class="st3" x1="220.4" y1="214" x2="220.4" y2="185.7"/>
	<g>
		<path class="st1" d="M220.4,215.7c-1.1,0-1.9-0.9-1.9-1.9c0-1,0.9-1.9,1.9-1.9c1,0,1.9,0.9,1.9,1.9S221.4,215.7,220.4,215.7z"/>
	</g>
	<line class="st3" x1="213.3" y1="185.7" x2="213.3" y2="199.9"/>
	<g>
		<path class="st1" d="M213.3,201.5c-1.1,0-1.9-0.9-1.9-1.9c0-1,0.9-1.9,1.9-1.9c1,0,1.9,0.9,1.9,1.9S214.4,201.5,213.3,201.5z"/>
	</g>
	<line class="st3" x1="199.1" y1="189.2" x2="199.1" y2="185.7"/>
	<g>
		<path class="st1" d="M199.2,190.8c-1.1,0-1.9-0.9-1.9-1.9c0-1,0.9-1.9,1.9-1.9c1,0,1.9,0.9,1.9,1.9S200.2,190.8,199.2,190.8z"/>
	</g>
	<line class="st3" x1="206.2" y1="185.7" x2="206.2" y2="192.8"/>
	<g>
		<path class="st1" d="M206.2,194.3c-1.1,0-1.9-0.9-1.9-1.9c0-1,0.9-1.9,1.9-1.9c1,0,1.9,0.9,1.9,1.9S207.3,194.3,206.2,194.3z"/>
	</g>
	<path class="st10" d="M220.4,214c0,0-3.9-9.7-7.1-14.2c-2-2.8-4.3-5.1-7.1-7.1c-2.2-1.6-4.4-2.9-7.1-3.5c-1.2-0.3-3.5,0-3.5,0l0,0"
		/>
	<g>
		<path class="st2" d="M211.8,233.3c0,1.1-0.8,2.1-2,2.1c-0.9,0-1.5-0.4-1.8-0.7c-0.3,0.5-0.4,0.6-0.4,0.6c-0.1,0.1-0.1,0.1-0.1,0.1
			c-0.1,0-0.1-0.1-0.1-0.2v-2c0-0.2,0-0.2,0.1-0.2c0,0,0.1,0,0.1,0.1c0,0.4,0,1,0.6,1.5c0.5,0.5,1.3,0.5,1.6,0.5
			c0.8,0,1.3-0.7,1.3-1.4c0-0.3-0.1-0.7-0.3-0.9c-0.3-0.4-0.6-0.4-0.8-0.5c-0.7-0.2-1.2-0.3-1.3-0.3c-0.8-0.3-1.3-1-1.3-1.8
			c0-1.1,0.8-1.9,1.9-1.9c0.9,0,1.3,0.4,1.6,0.7l0.3-0.6c0.1-0.1,0.1-0.1,0.1-0.1c0.1,0,0.1,0.1,0.1,0.2v2c0,0.2,0,0.2-0.1,0.2
			c-0.1,0-0.1-0.1-0.1-0.1c-0.1-0.4-0.3-2.1-1.9-2.1c-0.8,0-1.3,0.6-1.3,1.3c0,0.6,0.4,1.1,1,1.3l1.3,0.3
			C211.2,231.5,211.8,232.3,211.8,233.3z"/>
		<path class="st2" d="M214.1,234c0,0.2,0,1.1,0.7,1.1c0.4,0,0.7-0.4,0.7-1.1v-0.5h0.2v0.6c0,0.6-0.3,1.3-1,1.3
			c-0.4,0-1.3-0.1-1.3-1.3v-2.8h-0.8V231c1,0,1.3-1.1,1.3-1.9h0.2v1.8h1.4v0.3h-1.4V234z"/>
		<path class="st2" d="M218.3,235.3c-0.6,0-1.6-0.2-1.6-1.1c0-0.4,0.2-1,1-1.3c0.6-0.3,1.3-0.3,1.8-0.4v-0.4c0-0.9-0.6-1.3-1.1-1.3
			c-0.3,0-0.8,0.1-1.1,0.5c0.5,0,0.5,0.3,0.5,0.5c0,0.3-0.2,0.5-0.5,0.5c-0.3,0-0.5-0.2-0.5-0.5c0-0.7,0.7-1.1,1.5-1.1
			c0.5,0,1,0.2,1.4,0.5c0.4,0.4,0.4,0.8,0.4,1.2v2c0,0,0,0.5,0.4,0.5c0.1,0,0.4-0.1,0.4-0.6v-0.6h0.2v0.6c0,0.8-0.6,0.9-0.8,0.9
			c-0.5,0-0.7-0.4-0.8-0.8C219.4,234.9,219,235.3,218.3,235.3z M217.5,234.2c0,0.5,0.4,0.8,0.9,0.8c0.4,0,1.2-0.3,1.2-1.3v-1
			C217.9,232.9,217.5,233.7,217.5,234.2z"/>
		<path class="st2" d="M224.4,230.8c1.1,0,2.1,1,2.1,2.3c0,1.3-1,2.3-2.2,2.3c-0.7,0-1.2-0.5-1.3-0.7c-0.3,0.5-0.3,0.6-0.4,0.6h-0.2
			v-5.9c0-0.5-0.1-0.6-0.8-0.6v-0.3l1.4-0.1v3.2C223.2,231.3,223.6,230.8,224.4,230.8z M223.2,234.5c0.2,0.4,0.6,0.6,1,0.6
			c0.5,0,0.9-0.3,1.1-0.6c0.3-0.4,0.3-1,0.3-1.4c0-0.4,0-1-0.3-1.4c-0.2-0.4-0.6-0.6-1-0.6c-0.2,0-0.8,0.1-1.2,0.6
			c-0.1,0.2-0.1,0.2-0.1,0.4v2.1C223,234.2,223,234.3,223.2,234.5z"/>
		<path class="st2" d="M228.6,234.4c0,0.4,0.1,0.4,0.8,0.4v0.3c-0.4,0-0.9,0-1.1,0s-0.8,0-1.1,0v-0.3c0.7,0,0.8,0,0.8-0.4v-5.2
			c0-0.5-0.1-0.6-0.8-0.6v-0.3l1.4-0.1V234.4z"/>
		<path class="st2" d="M231,234.4c0.2,0.4,0.6,0.7,1.1,0.7c0.1,0,1,0,1.3-1c0-0.1,0-0.1,0.1-0.1c0,0,0.1,0,0.1,0.1
			c0,0.2-0.4,1.3-1.7,1.3c-1.1,0-2.2-1-2.2-2.3c0-1.2,0.9-2.3,2.1-2.3c1.2,0,1.8,1,1.8,2c0,0.2,0,0.2-0.2,0.2h-2.8
			C230.7,233.3,230.7,233.9,231,234.4z M233.1,232.7c0-0.4-0.1-1.7-1.1-1.7c-0.3,0-1.2,0.3-1.2,1.7H233.1z"/>
	</g>
</g>
</svg>
