<?xml version="1.0" encoding="utf-8"?>
<!-- Generator: Adobe Illustrator 22.1.0, SVG Export Plug-In . SVG Version: 6.00 Build 0)  -->
<svg version="1.1" id="Layer_1" xmlns="http://www.w3.org/2000/svg" xmlns:xlink="http://www.w3.org/1999/xlink" x="0px" y="0px"
	 viewBox="0 0 288 143.8" style="enable-background:new 0 0 288 143.8;" xml:space="preserve">
<style type="text/css">
	.st0{fill:none;stroke:#000000;stroke-width:0.8504;stroke-miterlimit:10;}
	.st1{fill:#1D1D1B;}
	.st2{fill:none;stroke:#0000FF;stroke-width:1.4173;stroke-miterlimit:10;}
</style>
<g>
	<polyline points="243.5,76.5 248,74.3 243.5,72 244.6,74.3 	"/>
	<path class="st0" d="M0,74.3h244.6 M177.2,77.8v-7.1 M233.9,77.8v-7.1 M63.8,77.8v-7.1 M7.1,77.8v-7.1 M124,130.9h-7.1"/>
	<g>
		<path class="st1" d="M177.6,87.3c0,0.4,0,0.5,0.9,0.5h0.3v0.3c-0.3,0-1.2,0-1.6,0s-1.3,0-1.6,0v-0.3h0.3c0.9,0,0.9-0.1,0.9-0.5
			v-5.2c-0.5,0.3-1.1,0.3-1.3,0.3v-0.3c0.3,0,1.2,0,1.8-0.6c0.2,0,0.2,0,0.2,0.3V87.3z"/>
		<path class="st1" d="M234.4,87.4c0.2,0,0.9,0,0.9-0.1c0.1-0.1,0.2-0.6,0.2-0.9h0.2l-0.3,1.7h-3.7c0-0.2,0-0.3,0.1-0.4l1.9-2.1
			c0.5-0.6,1-1.4,1-2.2c0-0.8-0.4-1.6-1.3-1.6c-0.6,0-1.1,0.4-1.3,1c0,0,0,0,0.1,0c0.3,0,0.5,0.3,0.5,0.5c0,0.4-0.3,0.5-0.5,0.5
			c0,0-0.5,0-0.5-0.6c0-0.9,0.7-1.8,1.9-1.8c1.2,0,2.1,0.8,2.1,1.9c0,1-0.6,1.5-2.2,2.9l-1.1,1H234.4z"/>
	</g>
	<g>
		<path class="st1" d="M59.7,86.3v-0.6h2.6v0.6H59.7z"/>
		<path class="st1" d="M65.9,87.3c0,0.4,0,0.5,0.9,0.5h0.3v0.3c-0.3,0-1.2,0-1.6,0c-0.4,0-1.3,0-1.6,0v-0.3h0.3
			c0.9,0,0.9-0.1,0.9-0.5v-5.2c-0.5,0.3-1.1,0.3-1.3,0.3v-0.3c0.3,0,1.2,0,1.8-0.6c0.2,0,0.2,0,0.2,0.3V87.3z"/>
	</g>
	<g>
		<path class="st1" d="M3,86.3v-0.6h2.6v0.6H3z"/>
		<path class="st1" d="M9.3,87.4c0.2,0,0.9,0,0.9-0.1c0.1-0.1,0.2-0.6,0.2-0.9h0.2l-0.3,1.7H6.7c0-0.2,0-0.3,0.1-0.4l1.9-2.1
			c0.5-0.6,1-1.4,1-2.2c0-0.8-0.4-1.6-1.3-1.6c-0.6,0-1.1,0.4-1.3,1c0,0,0,0,0.1,0c0.3,0,0.5,0.3,0.5,0.5c0,0.4-0.3,0.5-0.5,0.5
			c0,0-0.5,0-0.5-0.6c0-0.9,0.7-1.8,1.9-1.8c1.2,0,2.1,0.8,2.1,1.9c0,1-0.6,1.5-2.2,2.9l-1.1,1H9.3z"/>
	</g>
	<g>
		<path class="st1" d="M130.5,139.4v-0.6h2.6v0.6H130.5z"/>
		<path class="st1" d="M136.7,140.5c0,0.4,0,0.5,0.9,0.5h0.3v0.3c-0.3,0-1.2,0-1.6,0s-1.3,0-1.6,0V141h0.3c0.9,0,0.9-0.1,0.9-0.5
			v-5.2c-0.5,0.3-1.1,0.3-1.3,0.3v-0.3c0.3,0,1.2,0,1.8-0.6c0.2,0,0.2,0,0.2,0.3V140.5z"/>
	</g>
	<g>
		<path class="st1" d="M113.8,12.9c0,0.4,0,0.5,0.9,0.5h0.3v0.3c-0.3,0-1.2,0-1.6,0c-0.4,0-1.3,0-1.6,0v-0.3h0.3
			c0.9,0,0.9-0.1,0.9-0.5V7.8C112.5,8,111.9,8,111.7,8V7.7c0.3,0,1.2,0,1.8-0.6c0.2,0,0.2,0,0.2,0.3V12.9z"/>
	</g>
	<g>
		<path class="st1" d="M133.9,4.2c0.2,0,0.3,0.1,0.3,0.3c0,0,0,0.1-0.1,0.3l-0.4,1.4c-0.1,0.4-0.1,0.5-0.2,0.9
			c-0.1,0.4-0.1,0.5-0.1,0.7c0,0.2,0,0.5,0.3,0.5c0.4,0,0.6-0.6,0.8-1.2c0-0.1,0-0.2,0.1-0.2c0,0,0.1,0,0.1,0.1c0,0-0.1,0.6-0.3,1
			c-0.2,0.3-0.4,0.5-0.7,0.5c-0.5,0-0.8-0.3-0.9-0.7c-0.6,0.7-1.1,0.7-1.3,0.7c-0.8,0-1.3-0.7-1.3-1.6c0-1.5,1.2-2.9,2.4-2.9
			c0.4,0,0.7,0.3,0.9,0.6C133.5,4.4,133.6,4.2,133.9,4.2z M133.3,5.2c0,0,0-0.1,0-0.2c0-0.1-0.1-0.9-0.8-0.9c-0.4,0-0.8,0.4-1.2,1
			c-0.2,0.5-0.5,1.7-0.5,2.2c0,0.4,0.1,0.9,0.6,0.9c0.3,0,0.7-0.2,1.1-0.7c0.2-0.2,0.2-0.2,0.2-0.4L133.3,5.2z"/>
	</g>
	<g>
		<path class="st1" d="M138.3,9.8h-2.9c0-0.2,0-0.2,0.1-0.3l1.7-1.7c0.2-0.3,0.7-0.7,0.7-1.3c0-0.6-0.4-1.1-1.1-1.1
			c-0.3,0-0.8,0.2-1,0.6c0.4,0,0.4,0.2,0.4,0.4c0,0.3-0.2,0.4-0.4,0.4c-0.1,0-0.4,0-0.4-0.4c0-0.6,0.6-1.2,1.5-1.2
			c0.9,0,1.6,0.5,1.6,1.4c0,0.7-0.5,1.1-1,1.5c-0.4,0.3-0.7,0.5-1.4,1.2h1.3c0.1,0,0.6,0,0.7,0c0.1-0.1,0.2-0.5,0.2-0.6h0.2
			L138.3,9.8z"/>
	</g>
	<polyline points="122.7,7.9 120.5,3.4 118.2,7.9 120.5,6.8 	"/>
	<path class="st0" d="M120.5,6.8V138 M116.9,17.6h7.1"/>
	<path class="st2" d="M7.1,130.9L120.5,17.6 M120.5,17.6l106.3,113.4"/>
	<g>
		<path class="st1" d="M247.2,64.4c0.2,0,0.3,0.1,0.3,0.3c0,0,0,0.1-0.1,0.3l-0.4,1.4c-0.1,0.4-0.1,0.5-0.2,0.9
			c-0.1,0.4-0.1,0.5-0.1,0.7c0,0.2,0,0.5,0.3,0.5c0.4,0,0.6-0.6,0.8-1.2c0-0.1,0-0.2,0.1-0.2c0,0,0.1,0,0.1,0.1c0,0-0.1,0.6-0.3,1
			c-0.2,0.3-0.4,0.5-0.7,0.5c-0.5,0-0.8-0.3-0.9-0.7c-0.6,0.7-1.1,0.7-1.3,0.7c-0.8,0-1.3-0.7-1.3-1.6c0-1.5,1.2-2.9,2.4-2.9
			c0.4,0,0.7,0.3,0.9,0.6C246.9,64.6,247,64.4,247.2,64.4z M246.7,65.5c0,0,0-0.1,0-0.2c0-0.1-0.1-0.9-0.8-0.9c-0.4,0-0.8,0.4-1.2,1
			c-0.2,0.5-0.5,1.7-0.5,2.2c0,0.4,0.1,0.9,0.6,0.9c0.3,0,0.7-0.2,1.1-0.7c0.2-0.2,0.2-0.2,0.2-0.4L246.7,65.5z"/>
	</g>
	<g>
		<path class="st1" d="M250.7,69.5c0,0.2,0,0.3,0.7,0.3h0.3V70c-0.2,0-1,0-1.2,0c-0.3,0-1.1,0-1.2,0v-0.3h0.3c0.7,0,0.7-0.1,0.7-0.3
			v-3.6c-0.4,0.2-0.8,0.2-1,0.2v-0.3c0.3,0,0.9,0,1.4-0.4c0.2,0,0.2,0,0.2,0.2V69.5z"/>
	</g>
	<line class="st2" x1="7.1" y1="130.9" x2="226.8" y2="130.9"/>
</g>
</svg>
