<?xml version="1.0" encoding="utf-8"?>
<!-- Generator: Adobe Illustrator 22.1.0, SVG Export Plug-In . SVG Version: 6.00 Build 0)  -->
<svg version="1.1" id="Layer_1" xmlns="http://www.w3.org/2000/svg" xmlns:xlink="http://www.w3.org/1999/xlink" x="0px" y="0px"
	 viewBox="0 0 283.7 161.3" style="enable-background:new 0 0 283.7 161.3;" xml:space="preserve">
<style type="text/css">
	.st0{fill:none;stroke:#000000;stroke-width:0.8504;stroke-miterlimit:10;}
	.st1{fill:#1D1D1B;}
	.st2{fill:none;stroke:#0000FF;stroke-width:1.4173;stroke-miterlimit:10;}
	.st3{fill:none;stroke:#000000;stroke-width:1.4173;stroke-miterlimit:10;}
	.st4{fill:none;stroke:#FF0000;stroke-width:0.8504;stroke-linecap:square;stroke-miterlimit:10;}
	.st5{clip-path:url(#SVGID_2_);fill:none;stroke:#FF0000;stroke-width:0.8504;stroke-linecap:square;stroke-miterlimit:10;}
	.st6{fill:none;stroke:#FF0000;stroke-width:0.8504;stroke-miterlimit:10;}
	.st7{clip-path:url(#SVGID_4_);fill:none;stroke:#FF0000;stroke-width:0.8504;stroke-linecap:square;stroke-miterlimit:10;}
</style>
<g>
	<polyline points="269.1,82.9 273.7,80.7 269.1,78.4 270.3,80.7 	"/>
	<path class="st0" d="M25.6,80.7h244.6 M202.8,84.2v-7.1 M259.5,84.2v-7.1 M89.4,84.2v-7.1 M32.7,84.2v-7.1 M149.7,137.3h-7.1"/>
	<g>
		<path class="st1" d="M203.2,93.7c0,0.4,0,0.5,0.9,0.5h0.3v0.3c-0.4,0-1.2,0-1.6,0c-0.4,0-1.3,0-1.6,0v-0.3h0.3
			c0.9,0,0.9-0.1,0.9-0.5v-5.2c-0.5,0.3-1.1,0.3-1.3,0.3v-0.3c0.3,0,1.2,0,1.8-0.6c0.2,0,0.2,0,0.2,0.3V93.7z"/>
	</g>
	<g>
		<path class="st1" d="M85.3,92.7v-0.6H88v0.6H85.3z"/>
		<path class="st1" d="M91.5,93.7c0,0.4,0,0.5,0.9,0.5h0.3v0.3c-0.3,0-1.2,0-1.6,0c-0.4,0-1.3,0-1.6,0v-0.3h0.3
			c0.9,0,0.9-0.1,0.9-0.5v-5.2c-0.5,0.3-1.1,0.3-1.3,0.3v-0.3c0.3,0,1.2,0,1.8-0.6c0.2,0,0.2,0,0.2,0.3V93.7z"/>
	</g>
	<g>
		<path class="st1" d="M28.6,92.7v-0.6h2.6v0.6H28.6z"/>
		<path class="st1" d="M34.9,93.8c0.2,0,0.9,0,0.9-0.1c0.1-0.1,0.2-0.6,0.2-0.9h0.2l-0.3,1.7h-3.7c0-0.2,0-0.3,0.1-0.4l1.9-2.1
			c0.5-0.6,1-1.4,1-2.2c0-0.8-0.4-1.6-1.3-1.6c-0.6,0-1.1,0.4-1.3,1c0,0,0,0,0.1,0c0.3,0,0.5,0.3,0.5,0.5c0,0.4-0.3,0.5-0.5,0.5
			c0,0-0.5,0-0.5-0.6c0-0.9,0.7-1.8,1.9-1.8c1.2,0,2.1,0.8,2.1,1.9c0,1-0.6,1.5-2.2,2.9l-1.1,1H34.9z"/>
	</g>
	<g>
		<path class="st1" d="M156.2,145.8v-0.6h2.6v0.6H156.2z"/>
		<path class="st1" d="M162.4,146.9c0,0.4,0,0.5,0.9,0.5h0.3v0.3c-0.3,0-1.2,0-1.6,0s-1.3,0-1.6,0v-0.3h0.3c0.9,0,0.9-0.1,0.9-0.5
			v-5.2c-0.5,0.3-1.1,0.3-1.3,0.3v-0.3c0.3,0,1.2,0,1.8-0.6c0.2,0,0.2,0,0.2,0.3V146.9z"/>
	</g>
	<g>
		<path class="st1" d="M139.4,19.3c0,0.4,0,0.5,0.9,0.5h0.3v0.3c-0.3,0-1.2,0-1.6,0c-0.4,0-1.3,0-1.6,0v-0.3h0.3
			c0.9,0,0.9-0.1,0.9-0.5v-5.2c-0.5,0.3-1.1,0.3-1.3,0.3v-0.3c0.3,0,1.2,0,1.8-0.6c0.2,0,0.2,0,0.2,0.3V19.3z"/>
	</g>
	<g>
		<path class="st1" d="M159.5,10.6c0.2,0,0.3,0.1,0.3,0.3c0,0,0,0.1-0.1,0.3l-0.4,1.4c-0.1,0.4-0.1,0.5-0.2,0.9
			c-0.1,0.4-0.1,0.5-0.1,0.7c0,0.2,0,0.5,0.3,0.5c0.4,0,0.6-0.6,0.8-1.2c0-0.1,0-0.2,0.1-0.2c0,0,0.1,0,0.1,0.1c0,0-0.1,0.6-0.3,1
			c-0.2,0.3-0.4,0.5-0.7,0.5c-0.5,0-0.8-0.3-0.9-0.7c-0.6,0.7-1.1,0.7-1.3,0.7c-0.8,0-1.3-0.7-1.3-1.6c0-1.5,1.2-2.9,2.4-2.9
			c0.4,0,0.7,0.3,0.9,0.6C159.1,10.8,159.3,10.6,159.5,10.6z M158.9,11.6c0,0,0-0.1,0-0.2c0-0.1-0.1-0.9-0.8-0.9
			c-0.4,0-0.8,0.4-1.2,1c-0.2,0.5-0.5,1.7-0.5,2.2c0,0.4,0.1,0.9,0.6,0.9c0.3,0,0.7-0.2,1.1-0.7c0.2-0.2,0.2-0.2,0.2-0.4L158.9,11.6
			z"/>
	</g>
	<g>
		<path class="st1" d="M164,16.2h-2.9c0-0.2,0-0.2,0.1-0.3l1.7-1.7c0.2-0.3,0.7-0.7,0.7-1.3c0-0.6-0.4-1.1-1.1-1.1
			c-0.3,0-0.8,0.2-1,0.6c0.4,0,0.4,0.2,0.4,0.4c0,0.3-0.2,0.4-0.4,0.4c-0.1,0-0.4,0-0.4-0.4c0-0.6,0.6-1.2,1.5-1.2
			c0.9,0,1.6,0.5,1.6,1.4c0,0.7-0.5,1.1-1,1.5c-0.4,0.3-0.7,0.5-1.4,1.2h1.3c0.1,0,0.6,0,0.7,0c0.1-0.1,0.2-0.5,0.2-0.6h0.2
			L164,16.2z"/>
	</g>
	<polyline points="148.4,14.3 146.1,9.8 143.8,14.3 146.1,13.2 	"/>
	<path class="st0" d="M146.1,13.2v131.2 M142.6,24h7.1"/>
	<path class="st2" d="M32.7,137.3L146.1,24 M146.1,24l106.3,113.4"/>
	<g>
		<path class="st1" d="M116.4,114.1c0,0.3,0,0.3-0.3,0.3c-0.2,0-0.2,0-0.3-0.2c-0.2-1.3-1.2-2-2.2-2c-0.5,0-1.4,0.1-2,0.8
			c-0.6,0.7-0.7,1.7-0.7,2.3c0,0.9,0.1,1.6,0.6,2.2c0.5,0.6,1.4,0.8,2.1,0.8c1,0,2.2-0.6,2.3-1.9c0-0.2,0.1-0.2,0.2-0.2
			c0.2,0,0.2,0,0.2,0.2c0,1.1-1.1,2.4-3,2.4c-2.5,0-4-1.5-4-3.5c0-2,1.5-3.5,4-3.5c0.7,0,1.3,0.2,2,0.7l0.7-0.6
			c0.1-0.1,0.1-0.1,0.2-0.1c0.2,0,0.2,0.1,0.2,0.3V114.1z"/>
		<path class="st1" d="M120,118.7c-1.7,0-2.5-1-2.5-2.2c0-1.3,0.9-2.3,2.5-2.3c1.6,0,2.5,1,2.5,2.3
			C122.5,117.7,121.6,118.7,120,118.7z M121.2,116.3c0-0.5,0-1-0.2-1.4c-0.2-0.3-0.6-0.5-1.1-0.5c-0.5,0-0.9,0.2-1.1,0.6
			c-0.2,0.3-0.2,0.8-0.2,1.3c0,0.9,0,1.9,1.3,1.9C121.2,118.3,121.2,117.2,121.2,116.3z"/>
		<path class="st1" d="M123.3,114.7v-0.5l1.7-0.1v1.1c0.3-0.6,0.9-1.1,1.8-1.1c0.4,0,1.3,0,1.5,1c0.3-0.5,0.8-1,1.7-1
			c1,0,1.5,0.4,1.5,1.4v2.6h0.7v0.5c-0.3,0-0.9,0-1.3,0c-0.4,0-1,0-1.3,0v-0.5h0.7v-2.7c0-0.8-0.2-1-0.6-1c-0.6,0-1.5,0.5-1.5,1.6
			v2.1h0.7v0.5c-0.3,0-0.9,0-1.3,0c-0.4,0-1,0-1.3,0v-0.5h0.7v-2.7c0-0.8-0.2-1-0.6-1c-0.6,0-1.5,0.5-1.5,1.6v2.1h0.7v0.5
			c-0.3,0-0.9,0-1.3,0c-0.4,0-1,0-1.3,0v-0.5h0.7v-3.1C124,114.7,123.9,114.7,123.3,114.7z"/>
		<path class="st1" d="M134.6,120.1h0.7v0.5c-0.3,0-0.9,0-1.3,0c-0.4,0-1,0-1.3,0v-0.5h0.7v-5c0-0.4-0.1-0.4-0.7-0.4v-0.5l1.8-0.1
			v0.5c0.2-0.2,0.8-0.5,1.5-0.5c1.4,0,2.3,0.9,2.3,2.3c0,1.4-1,2.3-2.5,2.3c-0.4,0-0.8-0.1-1.3-0.4V120.1z M134.6,117.4
			c0,0.2,0,0.2,0.1,0.3c0.4,0.5,0.9,0.5,1.1,0.5c0.6,0,1.3-0.5,1.3-1.9c0-1.3-0.6-1.9-1.2-1.9c-0.2,0-0.7,0.1-1.1,0.5
			c-0.1,0.1-0.1,0.1-0.1,0.3V117.4z"/>
		<path class="st1" d="M141.1,118.1h0.7v0.5c-0.3,0-0.8,0-1.2,0c-0.4,0-0.9,0-1.2,0v-0.5h0.7v-5.5c0-0.4-0.1-0.4-0.7-0.4v-0.5
			l1.8-0.1V118.1z"/>
		<path class="st1" d="M143.7,116.4c0,0.5,0,1.8,1.4,1.8c0.6,0,1.2-0.3,1.4-0.8c0.1-0.2,0.1-0.2,0.2-0.2c0,0,0.2,0,0.2,0.2
			c0,0.2-0.4,1.2-2,1.2c-1.6,0-2.6-1-2.6-2.3c0-1.2,0.9-2.3,2.5-2.3c0.7,0,1.2,0.2,1.6,0.5c0.5,0.5,0.6,1.2,0.6,1.5
			c0,0.3-0.1,0.3-0.3,0.3H143.7z M146,116.1c0-0.3,0-1.7-1.2-1.7c-0.3,0-0.7,0.1-0.9,0.5c-0.2,0.3-0.2,0.7-0.2,1.1H146z"/>
	</g>
	<g>
		<path class="st1" d="M152.4,118.1h0.7v0.5c-0.3,0-0.8,0-1.1,0c-0.3,0-0.9,0-1.2,0v-0.5h0.4l-1.1-1.3l-1,1.1
			c-0.1,0.1-0.1,0.1-0.1,0.1c0,0.1,0.2,0.1,0.4,0.1v0.5c-0.2,0-0.8,0-1,0c0,0-0.6,0-0.9,0v-0.5c0.5,0,0.8,0,1-0.2l1.3-1.5l-1.6-1.8
			h-0.7v-0.5c0.3,0,0.8,0,1.1,0s0.9,0,1.2,0v0.5h-0.4l1,1.1l0.8-0.9c0,0,0-0.1,0.1-0.1c-0.1-0.1-0.2-0.1-0.4-0.1v-0.5
			c0.3,0,0.8,0,1,0c0,0,0.6,0,0.9,0v0.5c-0.8,0-0.9,0.1-1,0.2l-1.2,1.3L152.4,118.1z"/>
		<path class="st1" d="M159.9,118.1h1.1v0.5c-0.4,0-1.4,0-1.8,0c-0.4,0-1.4,0-1.8,0v-0.5h1.1v-5.9h-1.1v-0.5h4.2
			c1.7,0,2.6,0.8,2.6,1.9c0,1.2-1.2,1.9-2.5,1.9h-1.8V118.1z M162.7,113.7c0-0.7,0-1.5-1.5-1.5h-1.3v2.9h1.3
			C162.7,115.2,162.7,114.4,162.7,113.7z"/>
	</g>
	<g>
		<path class="st1" d="M167.3,118.7c-1.7,0-2.5-1-2.5-2.2c0-1.3,0.9-2.3,2.5-2.3c1.6,0,2.5,1,2.5,2.3
			C169.9,117.7,169,118.7,167.3,118.7z M168.6,116.3c0-0.5,0-1-0.2-1.4c-0.2-0.3-0.6-0.5-1.1-0.5c-0.5,0-0.9,0.2-1.1,0.6
			c-0.2,0.3-0.2,0.8-0.2,1.3c0,0.9,0,1.9,1.3,1.9S168.6,117.2,168.6,116.3z"/>
		<path class="st1" d="M172.4,118.1h0.7v0.5c-0.3,0-0.8,0-1.2,0c-0.4,0-0.9,0-1.2,0v-0.5h0.7v-5.5c0-0.4-0.1-0.4-0.7-0.4v-0.5
			l1.8-0.1V118.1z"/>
		<path class="st1" d="M175,116.4c0,0.5,0,1.8,1.4,1.8c0.6,0,1.2-0.3,1.4-0.8c0.1-0.2,0.1-0.2,0.2-0.2c0,0,0.2,0,0.2,0.2
			c0,0.2-0.4,1.2-2,1.2c-1.6,0-2.6-1-2.6-2.3c0-1.2,0.9-2.3,2.5-2.3c0.7,0,1.2,0.2,1.6,0.5c0.5,0.5,0.6,1.2,0.6,1.5
			c0,0.3-0.1,0.3-0.3,0.3H175z M177.4,116.1c0-0.3,0-1.7-1.2-1.7c-0.3,0-0.7,0.1-0.9,0.5c-0.2,0.3-0.2,0.7-0.2,1.1H177.4z"/>
		<path class="st1" d="M182.3,116.2c0.3,0.3,0.5,0.6,0.5,1.1c0,1.5-1.5,1.5-1.8,1.5c-0.2,0-0.7,0-1.2-0.3c0,0-0.2,0.2-0.3,0.2
			c-0.2,0.1-0.2,0.1-0.3,0.1c-0.2,0-0.2-0.1-0.2-0.3v-1.1c0-0.2,0-0.3,0.2-0.3c0.1,0,0.2,0,0.2,0.1c0.1,0.4,0.4,1.2,1.4,1.2
			c0.2,0,1.1,0,1.1-0.7c0-0.6-0.7-0.7-1.1-0.8c-0.8-0.1-1.1-0.2-1.5-0.5c-0.2-0.2-0.4-0.4-0.4-0.8c0-1.3,1.5-1.3,1.8-1.3
			c0.4,0,0.7,0.1,1,0.2c0.4-0.2,0.4-0.2,0.4-0.2c0.2,0,0.2,0.1,0.2,0.3v0.8c0,0.2,0,0.3-0.2,0.3c-0.2,0-0.2,0-0.2-0.2
			c0-0.5-0.4-0.8-1.2-0.8c-0.2,0-1.1,0-1.1,0.6c0,0.5,0.6,0.6,1,0.6C181.6,115.8,181.9,115.9,182.3,116.2z"/>
	</g>
	<polygon class="st3" points="107.1,116.1 107.1,123.2 185.1,123.2 185.1,109 107.1,109 	"/>
	<g>
		<path class="st1" d="M126.3,67.7c0,0,0.1,0.7,0.1,0.8c0,0.4,0.1,1.1,0.7,1.1c0.3,0,0.6-0.2,0.6-0.7c0-0.1,0-0.2,0.2-0.2
			c0.1,0,0.2,0,0.2,0.2c0,0.2-0.1,1.1-1.2,1.1c-0.4,0-1,0-1.5-0.3c-0.7-0.3-0.7-0.8-0.7-1.5c0-0.7,0-0.9-0.3-1.3
			c-0.3-0.3-0.7-0.3-0.9-0.3h-1.2v2.8h1.1V70c-0.4,0-1.3,0-1.8,0s-1.4,0-1.8,0v-0.5h1.1v-5.9h-1.1v-0.5h3.8c1.9,0,3,0.8,3,1.8
			c0,0.7-0.5,1.3-1.7,1.6C125.6,66.7,126.2,67,126.3,67.7z M123.7,66.4c1.6,0,1.6-0.8,1.6-1.4c0-0.6,0-1.4-1.6-1.4h-1.2v2.8H123.7z"
			/>
		<path class="st1" d="M129.9,67.8c0,0.5,0,1.8,1.4,1.8c0.6,0,1.2-0.3,1.4-0.8c0.1-0.2,0.1-0.2,0.2-0.2c0,0,0.2,0,0.2,0.2
			c0,0.2-0.4,1.2-2,1.2c-1.6,0-2.6-1-2.6-2.3c0-1.2,0.9-2.3,2.5-2.3c0.7,0,1.2,0.2,1.6,0.5c0.5,0.5,0.6,1.2,0.6,1.5
			c0,0.3-0.1,0.3-0.3,0.3H129.9z M132.3,67.5c0-0.3,0-1.7-1.2-1.7c-0.3,0-0.7,0.1-0.9,0.5c-0.2,0.3-0.2,0.7-0.2,1.1H132.3z"/>
		<path class="st1" d="M135.8,70c-0.7,0-1.9-0.2-1.9-1.1c0-1.4,2.5-1.5,3.2-1.6V67c0-0.8-0.3-1.2-1.1-1.2c-0.1,0-0.4,0-0.7,0.1
			c0,0,0.2,0.2,0.2,0.5c0,0.4-0.3,0.6-0.6,0.6c-0.3,0-0.6-0.2-0.6-0.6c0-0.9,1.2-0.9,1.8-0.9c1.5,0,2.2,0.6,2.2,1.5v2.1
			c0,0.2,0,0.4,0.6,0.4c0.1,0,0.3,0,0.3,0.2c0,0.2-0.1,0.2-0.3,0.2h-0.5c-1,0-1-0.5-1-0.8C137.1,69.6,136.6,70,135.8,70z M135,68.9
			c0,0.4,0.4,0.8,0.9,0.8c0.2,0,1.2-0.1,1.2-1.1v-0.9C136.6,67.7,135,67.8,135,68.9z"/>
		<path class="st1" d="M141.3,69.5h0.7V70c-0.3,0-0.8,0-1.2,0c-0.4,0-0.9,0-1.2,0v-0.5h0.7V64c0-0.4-0.1-0.4-0.7-0.4v-0.5l1.8-0.1
			V69.5z"/>
	</g>
	<g>
		<path class="st1" d="M149,69.5h1.1V70c-0.4,0-1.4,0-1.8,0c-0.4,0-1.4,0-1.8,0v-0.5h1.1v-5.9h-1.1v-0.5h4.2c1.7,0,2.6,0.8,2.6,1.9
			c0,1.2-1.2,1.9-2.5,1.9H149V69.5z M151.8,65.1c0-0.7,0-1.5-1.5-1.5h-1.3v2.9h1.3C151.8,66.5,151.8,65.8,151.8,65.1z"/>
		<path class="st1" d="M156.4,70c-1.7,0-2.5-1-2.5-2.2c0-1.3,0.9-2.3,2.5-2.3c1.6,0,2.5,1,2.5,2.3C158.9,69,158.1,70,156.4,70z
			 M157.7,67.7c0-0.5,0-1-0.2-1.4c-0.2-0.3-0.6-0.5-1.1-0.5c-0.5,0-0.9,0.2-1.1,0.6c-0.2,0.3-0.2,0.8-0.2,1.3c0,0.9,0,1.9,1.3,1.9
			C157.7,69.6,157.7,68.5,157.7,67.7z"/>
	</g>
	<g>
		<path class="st1" d="M161.5,69.5h0.7V70c-0.3,0-0.8,0-1.2,0c-0.4,0-0.9,0-1.2,0v-0.5h0.7V64c0-0.4-0.1-0.4-0.7-0.4v-0.5l1.8-0.1
			V69.5z"/>
		<path class="st1" d="M164.1,67.8c0,0.5,0,1.8,1.4,1.8c0.6,0,1.2-0.3,1.4-0.8c0.1-0.2,0.1-0.2,0.2-0.2c0,0,0.2,0,0.2,0.2
			c0,0.2-0.4,1.2-2,1.2c-1.6,0-2.6-1-2.6-2.3c0-1.2,0.9-2.3,2.5-2.3c0.7,0,1.2,0.2,1.6,0.5c0.5,0.5,0.6,1.2,0.6,1.5
			c0,0.3-0.1,0.3-0.3,0.3H164.1z M166.5,67.5c0-0.3,0-1.7-1.2-1.7c-0.3,0-0.7,0.1-0.9,0.5c-0.2,0.3-0.2,0.7-0.2,1.1H166.5z"/>
	</g>
	<g>
		<path class="st1" d="M171.4,67.5c0.3,0.3,0.5,0.6,0.5,1.1c0,1.5-1.5,1.5-1.8,1.5c-0.2,0-0.7,0-1.2-0.3c0,0-0.2,0.2-0.3,0.2
			c-0.2,0.1-0.2,0.1-0.3,0.1c-0.2,0-0.2-0.1-0.2-0.3v-1.1c0-0.2,0-0.3,0.2-0.3c0.1,0,0.2,0,0.2,0.1c0.1,0.4,0.4,1.2,1.4,1.2
			c0.2,0,1.1,0,1.1-0.7c0-0.6-0.7-0.7-1.1-0.8c-0.8-0.1-1.1-0.2-1.5-0.5c-0.2-0.2-0.4-0.4-0.4-0.8c0-1.3,1.5-1.3,1.8-1.3
			c0.4,0,0.7,0.1,1,0.2c0.4-0.2,0.4-0.2,0.4-0.2c0.2,0,0.2,0.1,0.2,0.3v0.8c0,0.2,0,0.3-0.2,0.3c-0.2,0-0.2,0-0.2-0.2
			c0-0.5-0.4-0.8-1.2-0.8c-0.2,0-1.1,0-1.1,0.6c0,0.5,0.6,0.6,1,0.6C170.7,67.2,171,67.2,171.4,67.5z"/>
	</g>
	<polygon class="st0" points="114.2,66.5 114.2,73.6 174.5,73.6 174.5,59.4 114.2,59.4 	"/>
	<g>
		<path class="st1" d="M272.9,70.8c0.2,0,0.3,0.1,0.3,0.3c0,0,0,0.1-0.1,0.3l-0.4,1.4c-0.1,0.4-0.1,0.5-0.2,0.9
			c-0.1,0.4-0.1,0.5-0.1,0.7c0,0.2,0,0.5,0.3,0.5c0.4,0,0.6-0.6,0.8-1.2c0-0.1,0-0.2,0.1-0.2c0,0,0.1,0,0.1,0.1c0,0-0.1,0.6-0.3,1
			c-0.2,0.3-0.4,0.5-0.7,0.5c-0.5,0-0.8-0.3-0.9-0.7c-0.6,0.7-1.1,0.7-1.3,0.7c-0.8,0-1.3-0.7-1.3-1.6c0-1.5,1.2-2.9,2.4-2.9
			c0.4,0,0.7,0.3,0.9,0.6C272.5,71,272.6,70.8,272.9,70.8z M272.3,71.9c0,0,0-0.1,0-0.2c0-0.1-0.1-0.9-0.8-0.9c-0.4,0-0.8,0.4-1.2,1
			c-0.2,0.5-0.5,1.7-0.5,2.2c0,0.4,0.1,0.9,0.6,0.9c0.3,0,0.7-0.2,1.1-0.7c0.2-0.2,0.2-0.2,0.2-0.4L272.3,71.9z"/>
	</g>
	<g>
		<path class="st1" d="M276.4,75.9c0,0.2,0,0.3,0.7,0.3h0.3v0.3c-0.2,0-1,0-1.2,0c-0.3,0-1.1,0-1.2,0v-0.3h0.3
			c0.7,0,0.7-0.1,0.7-0.3v-3.6c-0.4,0.2-0.8,0.2-1,0.2v-0.3c0.3,0,0.9,0,1.4-0.4c0.2,0,0.2,0,0.2,0.2V75.9z"/>
	</g>
	<line class="st4" x1="32.7" y1="137.3" x2="252.4" y2="137.3"/>
	<g>
		<defs>
			<path id="SVGID_1_" d="M32.7,137.3c0,0,70.2-57.3,113.4-56.7c41.1,0.5,106.3,56.7,106.3,56.7l0,0"/>
		</defs>
		<clipPath id="SVGID_2_">
			<use xlink:href="#SVGID_1_"  style="overflow:visible;"/>
		</clipPath>
		<path class="st5" d="M229.1,160.7L90.6,22.2 M232.7,157.1L94.2,18.6 M236.3,153.5L97.8,15 M239.9,149.9L101.4,11.4 M243.5,146.3
			L105,7.8 M247.1,142.7L108.6,4.2 M250.7,139.1L112.2,0.6 M254.3,135.5L121,2.2 M257.9,131.9L128.2,2.2 M261.5,128.3l-126-126
			 M265.1,124.7L142.6,2.2 M268.7,121.1L149.8,2.2 M272.3,117.5L157,2.2 M275.9,113.9L164.2,2.2 M279.5,110.3l-108-108 M283.1,106.7
			L178.6,2.2 M39.9,151.5L0.6,112.2 M47.1,151.5L4.2,108.6 M54.3,151.5L7.8,105 M61.5,151.5l-50.1-50.1 M68.7,151.5L15,97.8
			 M75.9,151.5L18.6,94.2 M83.1,151.5L22.2,90.6 M90.3,151.5L25.8,87 M97.5,151.5L29.4,83.4 M104.7,151.5L33,79.8 M111.9,151.5
			L36.6,76.2 M119.1,151.5L40.2,72.6 M126.3,151.5L43.8,69 M133.5,151.5L47.4,65.4 M140.7,151.5L51,61.8 M147.9,151.5L54.6,58.2
			 M155.1,151.5L58.2,54.6 M162.3,151.5L61.8,51 M169.5,151.5L65.4,47.4 M176.7,151.5L69,43.8 M183.9,151.5L72.6,40.2 M191.1,151.5
			L76.2,36.6 M198.3,151.5L79.8,33 M205.5,151.5L83.4,29.4 M212.7,151.5L87,25.8"/>
	</g>
	<path class="st6" d="M32.7,137.3c0,0,70.2-57.3,113.4-56.7c41.1,0.5,106.3,56.7,106.3,56.7l0,0"/>
	<g>
		<defs>
			<line id="SVGID_3_" x1="32.7" y1="137.3" x2="252.4" y2="137.3"/>
		</defs>
		<clipPath id="SVGID_4_">
			<use xlink:href="#SVGID_3_"  style="overflow:visible;"/>
		</clipPath>
		<path class="st7" d="M239.9,149.9L130,40 M243.5,146.3L133.6,36.4 M247.1,142.7L137.2,32.8 M250.7,139.1L140.8,29.2 M254.3,135.5
			L144.4,25.6 M37.4,149l-8.1-8.1 M44.6,149l-11.7-11.7 M51.8,149l-15.3-15.3 M59,149L40,130 M66.2,149l-22.5-22.5 M73.4,149
			l-26.1-26.1 M80.6,149l-29.7-29.7 M87.8,149l-33.3-33.3 M95,149L58,112 M102.2,149l-40.5-40.5 M109.4,149l-44.1-44.1 M116.6,149
			l-47.7-47.7 M123.8,149L72.4,97.6 M131,149L76,94 M231.8,149L126.4,43.6 M224.6,149L122.8,47.2 M217.4,149l-98.1-98.1 M210.2,149
			l-94.5-94.5 M203,149L112,58 M195.8,149l-87.3-87.3 M188.6,149l-83.7-83.7 M181.4,149l-80.1-80.1 M174.2,149L97.6,72.4 M167,149
			L94,76 M159.8,149L90.4,79.6 M152.6,149L86.8,83.2 M145.4,149L83.2,86.8 M138.2,149L79.6,90.4"/>
	</g>
	<line class="st6" x1="32.7" y1="137.3" x2="252.4" y2="137.3"/>
	<g>
		<path class="st1" d="M260.1,93.8c0.2,0,0.9,0,1-0.1c0.1-0.1,0.2-0.6,0.2-0.9h0.3l-0.3,1.7h-3.7c0-0.2,0-0.3,0.1-0.4l1.9-2.1
			c0.6-0.6,1.1-1.4,1.1-2.2c0-0.8-0.4-1.6-1.3-1.6c-0.6,0-1.1,0.4-1.4,1c0,0,0,0,0.1,0c0.4,0,0.5,0.3,0.5,0.5c0,0.4-0.4,0.5-0.5,0.5
			c0,0-0.5,0-0.5-0.6c0-0.9,0.7-1.8,1.9-1.8c1.2,0,2.1,0.8,2.1,1.9c0,1-0.6,1.5-2.2,2.9l-1.1,1H260.1z"/>
	</g>
</g>
</svg>
