<svg id="Layer_1" data-name="Layer 1" xmlns="http://www.w3.org/2000/svg" viewBox="0 0 350.06 324.652"><defs><style>.cls-1,.cls-2{fill:none;stroke:#000;stroke-miterlimit:10;}.cls-2{stroke-width:3px;}.cls-3{font-size:12px;font-family:TimesNewRomanPSMT, Times New Roman;}.cls-4{letter-spacing:-0.04em;}</style></defs><title>absolute_relative_frequency</title><line class="cls-1" y1="108.492" x2="293.824" y2="108.492"/><polygon points="292.365 113.478 301 108.492 292.365 103.506 292.365 113.478"/><line class="cls-1" x1="150" y1="108.492" x2="150" y2="9.667"/><polygon points="154.986 11.126 150 2.492 145.014 11.126 154.986 11.126"/><line class="cls-2" x1="79" y1="108.492" x2="79" y2="38.992"/><rect x="69.25" y="37.492" width="19.5" height="3"/><line class="cls-2" x1="218.5" y1="108.992" x2="218.5" y2="39.492"/><rect x="208.75" y="37.992" width="19.5" height="3"/><text class="cls-3" transform="translate(68.237 120.973)">-200</text><text class="cls-3" transform="translate(210.237 120.973)">200</text><text class="cls-3" transform="translate(147.237 120.973)">0</text><text class="cls-3" transform="translate(161.237 9.973)">Spectrum</text><path d="M660.671,145.29c.073-.312.35-1.419,1.192-1.419a1.192,1.192,0,0,1,.6.155.7.7,0,0,0-.577.651.418.418,0,0,0,.456.42.67.67,0,0,0,.649-.7c0-.627-.71-.8-1.119-.8a1.552,1.552,0,0,0-1.262.914,1.334,1.334,0,0,0-1.3-.914c-1.251,0-1.938,1.552-1.938,1.853,0,.121.121.121.146.121.1,0,.132-.025.155-.133.411-1.275,1.2-1.576,1.613-1.576.229,0,.651.107.651.806a17.517,17.517,0,0,1-.651,2.864c-.191.746-.614,1.251-1.144,1.251a1.158,1.158,0,0,1-.6-.157.679.679,0,0,0,.566-.649.41.41,0,0,0-.444-.42.683.683,0,0,0-.663.7c0,.555.6.795,1.132.795a1.6,1.6,0,0,0,1.265-.914,1.326,1.326,0,0,0,1.3.914c1.24,0,1.925-1.552,1.925-1.853,0-.121-.108-.121-.144-.121-.107,0-.132.049-.157.132-.395,1.288-1.215,1.577-1.6,1.577-.47,0-.663-.384-.663-.795a4.674,4.674,0,0,1,.2-1.058l.409-1.649" transform="translate(-443.5 -139.008)"/><path d="M667.54,151.814c0-.036,0-.061-.2-.265a7.983,7.983,0,0,1-1.889-5.632,7.875,7.875,0,0,1,1.938-5.694c.155-.144.155-.169.155-.205a.107.107,0,0,0-.119-.119,5.233,5.233,0,0,0-1.914,2.347,9.259,9.259,0,0,0,.036,7.425,5.18,5.18,0,0,0,1.878,2.262.107.107,0,0,0,.119-.119" transform="translate(-443.5 -139.008)"/><path d="M670.641,144.111h1.13c.24,0,.362,0,.362-.24,0-.133-.122-.133-.337-.133h-1.058c.431-1.709.492-1.95.492-2.022a.316.316,0,0,0-.349-.325.514.514,0,0,0-.481.433l-.469,1.914H668.8c-.24,0-.362,0-.362.229,0,.144.1.144.337.144h1.061a31.1,31.1,0,0,0-.915,3.839,1.061,1.061,0,0,0,1.106,1.107c1.228,0,1.914-1.756,1.914-1.853,0-.121-.1-.121-.144-.121-.108,0-.121.036-.18.168-.519,1.252-1.157,1.541-1.566,1.541-.251,0-.373-.157-.373-.552a1.994,1.994,0,0,1,.072-.58l.892-3.549" transform="translate(-443.5 -139.008)"/><path d="M676,145.917a8.794,8.794,0,0,0-.793-3.756,5.2,5.2,0,0,0-1.878-2.262.113.113,0,0,0-.121.119c0,.036,0,.061.229.279a7.805,7.805,0,0,1,1.866,5.62,7.891,7.891,0,0,1-1.938,5.692c-.157.144-.157.169-.157.2a.114.114,0,0,0,.121.119,5.234,5.234,0,0,0,1.914-2.346,8.755,8.755,0,0,0,.757-3.67" transform="translate(-443.5 -139.008)"/><path d="M680.912,167.258c0-.238,0-.258-.228-.258a2.453,2.453,0,0,1-1.808.636v.308a2.981,2.981,0,0,0,1.3-.258v5.145c0,.358-.03.477-.925.477h-.317v.308c.347-.03,1.212-.03,1.609-.03s1.261,0,1.61.03v-.308h-.319c-.894,0-.924-.11-.924-.477v-5.573" transform="translate(-443.5 -139.008)"/><rect x="234.5" y="37.992" width="5.04" height="0.536"/><path d="M679.253,186.35l1.053-1.022c1.55-1.372,2.147-1.908,2.147-2.9a1.952,1.952,0,0,0-2.106-1.927,1.835,1.835,0,0,0-1.858,1.8.522.522,0,1,0,1.042.03.5.5,0,0,0-.526-.517.417.417,0,0,0-.129.009,1.432,1.432,0,0,1,1.341-1.012c.9,0,1.331.8,1.331,1.619a3.559,3.559,0,0,1-1.043,2.2l-1.907,2.126c-.109.11-.109.129-.109.368h3.686l.278-1.729h-.248a3.338,3.338,0,0,1-.219.885,3.3,3.3,0,0,1-.944.078h-1.789" transform="translate(-443.5 -139.008)"/><path d="M540.912,167.258c0-.238,0-.258-.228-.258a2.453,2.453,0,0,1-1.808.636v.308a2.981,2.981,0,0,0,1.3-.258v5.145c0,.358-.03.477-.925.477h-.317v.308c.347-.03,1.212-.03,1.609-.03s1.261,0,1.61.03v-.308h-.319c-.894,0-.924-.11-.924-.477v-5.573" transform="translate(-443.5 -139.008)"/><path d="M539.253,186.35l1.053-1.022c1.55-1.372,2.147-1.908,2.147-2.9a1.952,1.952,0,0,0-2.106-1.927,1.835,1.835,0,0,0-1.858,1.8.522.522,0,1,0,1.042.03.5.5,0,0,0-.526-.517.417.417,0,0,0-.129.009,1.432,1.432,0,0,1,1.341-1.012c.9,0,1.331.8,1.331,1.619a3.559,3.559,0,0,1-1.043,2.2l-1.907,2.126c-.109.11-.109.129-.109.368h3.686l.278-1.729h-.248a3.338,3.338,0,0,1-.219.885,3.3,3.3,0,0,1-.944.078h-1.789" transform="translate(-443.5 -139.008)"/><path d="M730.833,260.687h1.04c.241,0,.363,0,.363-.242,0-.133-.122-.133-.327-.133h-1l.255-1.378a11.115,11.115,0,0,1,.289-1.257.657.657,0,0,1,.568-.411.889.889,0,0,1,.593.217.671.671,0,0,0-.654.654.419.419,0,0,0,.449.422.692.692,0,0,0,.664-.724c0-.557-.556-.835-1.052-.835-.411,0-1.171.217-1.534,1.415a19.35,19.35,0,0,0-.4,1.9h-.834c-.229,0-.362,0-.362.23,0,.145.109.145.339.145h.8l-.907,4.775c-.217,1.173-.423,2.272-1.052,2.272a.866.866,0,0,1-.58-.217.656.656,0,0,0,.666-.652.419.419,0,0,0-.447-.424.693.693,0,0,0-.666.726.932.932,0,0,0,1.027.833c.666,0,1.149-.713,1.367-1.171a10.93,10.93,0,0,0,.677-2.311l.725-3.831" transform="translate(-443.5 -139.008)"/><text class="cls-3" transform="translate(295.237 126.973)">[Hz]</text><path d="M570.468,292.929c0-1.032-.283-3.21-1.879-3.21-2.178,0-4.589,4.417-4.589,8,0,1.47.453,3.209,1.879,3.209,2.207,0,4.589-4.5,4.589-8Zm-4.808,2.145a14.162,14.162,0,0,1,1.205-3.367c.423-.766,1-1.643,1.706-1.643.769,0,.863,1,.863,1.894a13.037,13.037,0,0,1-.5,3.116Zm3.131.5a13.838,13.838,0,0,1-1.1,3.177c-.547,1.066-1.143,1.832-1.816,1.832-.517,0-.845-.453-.845-1.911a12,12,0,0,1,.5-3.1h3.257" transform="translate(-443.5 -139.008)"/><path d="M586.239,295.638c.234,0,.532,0,.532-.313s-.3-.313-.517-.313h-9.379c-.22,0-.518,0-.518.313s.3.313.532.313Zm.015,3.037c.219,0,.517,0,.517-.313s-.3-.313-.532-.313h-9.35c-.234,0-.532,0-.532.313s.3.313.518.313h9.379" transform="translate(-443.5 -139.008)"/><path d="M594.178,299.552l1.66-1.611c2.443-2.163,3.384-3.007,3.384-4.574a3.076,3.076,0,0,0-3.32-3.037,2.893,2.893,0,0,0-2.929,2.835.822.822,0,1,0,1.643.047.792.792,0,0,0-.83-.815.661.661,0,0,0-.2.014,2.256,2.256,0,0,1,2.113-1.6c1.427,0,2.1,1.269,2.1,2.552a5.6,5.6,0,0,1-1.645,3.461l-3,3.352c-.173.172-.173.2-.173.579h5.811l.438-2.724h-.392a5.226,5.226,0,0,1-.344,1.394,5.2,5.2,0,0,1-1.488.123h-2.82" transform="translate(-443.5 -139.008)"/><path d="M604.222,294.919h1.769a17.146,17.146,0,0,0-.658,4.039,4.91,4.91,0,0,0,.126,1.19c.157.69.33.783.564.783a.662.662,0,0,0,.642-.6.674.674,0,0,0-.1-.345,6.74,6.74,0,0,1-.453-2.583,12.28,12.28,0,0,1,.281-2.488h1.786c.2,0,.768,0,.768-.535,0-.374-.33-.374-.628-.374h-5.244a1.993,1.993,0,0,0-1.63.736,5.6,5.6,0,0,0-.953,1.409c0,.015,0,.155.187.155.125,0,.157-.061.251-.187a2.205,2.205,0,0,1,1.988-1.2h.891a33.053,33.053,0,0,1-2,5.214c-.126.234-.126.266-.126.375a.426.426,0,0,0,.453.423c.471,0,.6-.438.784-1.017.219-.722.219-.751.423-1.535l.877-3.46" transform="translate(-443.5 -139.008)"/><path d="M619.69,283.776h1.348c.312,0,.47,0,.47-.313,0-.172-.158-.172-.424-.172h-1.3l.33-1.786a14.782,14.782,0,0,1,.374-1.628.852.852,0,0,1,.737-.532,1.153,1.153,0,0,1,.768.281.869.869,0,0,0-.847.847.542.542,0,0,0,.581.547.9.9,0,0,0,.86-.939c0-.721-.719-1.081-1.362-1.081-.532,0-1.517.281-1.988,1.833-.094.327-.14.485-.517,2.458h-1.081c-.3,0-.468,0-.468.3,0,.187.14.187.438.187h1.032l-1.175,6.185c-.281,1.519-.547,2.943-1.362,2.943a1.123,1.123,0,0,1-.751-.281.848.848,0,0,0,.862-.845.542.542,0,0,0-.579-.549.9.9,0,0,0-.862.941,1.207,1.207,0,0,0,1.33,1.079c.862,0,1.488-.924,1.771-1.517a14.168,14.168,0,0,0,.877-2.993l.938-4.963" transform="translate(-443.5 -139.008)"/><path d="M617.168,305.215h1.347c.313,0,.471,0,.471-.313,0-.173-.158-.173-.424-.173h-1.3l.33-1.785a14.857,14.857,0,0,1,.374-1.629.852.852,0,0,1,.737-.532,1.153,1.153,0,0,1,.768.281.869.869,0,0,0-.847.848.542.542,0,0,0,.581.546.9.9,0,0,0,.86-.938c0-.722-.719-1.081-1.362-1.081-.532,0-1.518.28-1.988,1.832-.094.328-.14.485-.517,2.458h-1.082c-.295,0-.468,0-.468.3,0,.188.141.188.439.188h1.032l-1.175,6.184c-.281,1.52-.547,2.944-1.362,2.944a1.122,1.122,0,0,1-.751-.281.85.85,0,0,0,.862-.845.543.543,0,0,0-.579-.549.9.9,0,0,0-.862.941,1.206,1.206,0,0,0,1.33,1.079c.862,0,1.488-.924,1.771-1.518a14.228,14.228,0,0,0,.877-2.992l.938-4.963" transform="translate(-443.5 -139.008)"/><path d="M623.922,309.518a.569.569,0,0,0-.466.522.357.357,0,0,0,.367.354.553.553,0,0,0,.532-.633c0-.719-.8-.963-1.475-.963a1.8,1.8,0,0,0-2.039,1.619,1.057,1.057,0,0,0,.389.807,2.4,2.4,0,0,0,1.251.4c.234.045.943.178.943.732a1.121,1.121,0,0,1-.588.887,2.376,2.376,0,0,1-1.109.244,1.7,1.7,0,0,1-1.33-.466.655.655,0,0,0,.611-.631.4.4,0,0,0-.433-.411.673.673,0,0,0-.643.744c0,.665.709,1.074,1.785,1.074,2.04,0,2.417-1.4,2.417-1.828,0-1.019-1.121-1.219-1.53-1.3-.1-.022-.377-.066-.443-.088-.412-.077-.611-.311-.611-.555a.947.947,0,0,1,.443-.709,1.738,1.738,0,0,1,.877-.209,1.278,1.278,0,0,1,1.052.409" transform="translate(-443.5 -139.008)"/><rect class="cls-1" x="114.5" y="135.992" width="74" height="45"/><line class="cls-1" y1="302.492" x2="293.824" y2="302.492"/><polygon points="292.365 307.478 301 302.492 292.365 297.506 292.365 307.478"/><line class="cls-1" x1="150" y1="302.492" x2="150" y2="203.667"/><polygon points="154.986 205.126 150 196.492 145.014 205.126 154.986 205.126"/><line class="cls-2" x1="79" y1="302.492" x2="79" y2="232.992"/><rect x="69.25" y="231.492" width="19.5" height="3"/><line class="cls-2" x1="218.5" y1="302.992" x2="218.5" y2="233.492"/><rect x="208.75" y="231.992" width="19.5" height="3"/><text class="cls-3" transform="translate(147.237 314.973)">0</text><text class="cls-3" transform="translate(161.237 203.973)">Spectrum</text><path d="M680.912,361.258c0-.238,0-.258-.228-.258a2.453,2.453,0,0,1-1.808.636v.308a2.981,2.981,0,0,0,1.3-.258v5.145c0,.358-.03.477-.925.477h-.317v.308c.347-.03,1.212-.03,1.609-.03s1.261,0,1.61.03v-.308h-.319c-.894,0-.924-.11-.924-.477v-5.573" transform="translate(-443.5 -139.008)"/><path d="M679.253,380.35l1.053-1.022c1.55-1.372,2.147-1.908,2.147-2.9a1.952,1.952,0,0,0-2.106-1.927,1.835,1.835,0,0,0-1.858,1.8.522.522,0,1,0,1.042.03.5.5,0,0,0-.526-.517.417.417,0,0,0-.129.009,1.432,1.432,0,0,1,1.341-1.012c.9,0,1.331.8,1.331,1.619a3.559,3.559,0,0,1-1.043,2.195l-1.907,2.126c-.109.11-.109.129-.109.368h3.686l.278-1.729h-.248a3.338,3.338,0,0,1-.219.885,3.3,3.3,0,0,1-.944.078h-1.789" transform="translate(-443.5 -139.008)"/><path d="M540.912,361.258c0-.238,0-.258-.228-.258a2.453,2.453,0,0,1-1.808.636v.308a2.981,2.981,0,0,0,1.3-.258v5.145c0,.358-.03.477-.925.477h-.317v.308c.347-.03,1.212-.03,1.609-.03s1.261,0,1.61.03v-.308h-.319c-.894,0-.924-.11-.924-.477v-5.573" transform="translate(-443.5 -139.008)"/><path d="M539.253,380.35l1.053-1.022c1.55-1.372,2.147-1.908,2.147-2.9a1.952,1.952,0,0,0-2.106-1.927,1.835,1.835,0,0,0-1.858,1.8.522.522,0,1,0,1.042.03.5.5,0,0,0-.526-.517.417.417,0,0,0-.129.009,1.432,1.432,0,0,1,1.341-1.012c.9,0,1.331.8,1.331,1.619a3.559,3.559,0,0,1-1.043,2.195l-1.907,2.126c-.109.11-.109.129-.109.368h3.686l.278-1.729h-.248a3.338,3.338,0,0,1-.219.885,3.3,3.3,0,0,1-.944.078h-1.789" transform="translate(-443.5 -139.008)"/><text class="cls-3" transform="translate(295.237 320.973)">[-]</text><path d="M660.248,338.246c.085-.361.4-1.643,1.38-1.643a1.372,1.372,0,0,1,.7.18.809.809,0,0,0-.668.753.484.484,0,0,0,.528.487.775.775,0,0,0,.751-.807c0-.725-.821-.92-1.294-.92a1.8,1.8,0,0,0-1.461,1.059,1.545,1.545,0,0,0-1.5-1.059c-1.448,0-2.243,1.8-2.243,2.145,0,.14.14.14.168.14.112,0,.154-.028.18-.153.475-1.477,1.393-1.825,1.866-1.825.265,0,.754.125.754.933a20.2,20.2,0,0,1-.754,3.315c-.221.863-.71,1.448-1.323,1.448a1.335,1.335,0,0,1-.7-.182.787.787,0,0,0,.654-.752.475.475,0,0,0-.514-.486.791.791,0,0,0-.767.806c0,.642.7.92,1.31.92a1.854,1.854,0,0,0,1.463-1.058,1.537,1.537,0,0,0,1.5,1.058c1.435,0,2.228-1.8,2.228-2.144,0-.14-.125-.14-.167-.14-.125,0-.153.056-.181.153-.458,1.489-1.407,1.825-1.852,1.825-.543,0-.766-.445-.766-.92a5.435,5.435,0,0,1,.236-1.225l.474-1.908" transform="translate(-443.5 -139.008)"/><polyline points="223.499 206.925 223.499 206.368 222.147 206.368 222.147 193.555 223.499 193.555 223.499 192.999 221.591 192.999 221.591 206.925 223.499 206.925"/><path d="M668.6,341.631c-.042.208-.125.527-.125.6a.373.373,0,0,0,.405.376.569.569,0,0,0,.515-.39c.013-.028.18-.683.265-1.031l.307-1.253c.083-.307.166-.612.237-.934.054-.236.166-.639.179-.7a2.775,2.775,0,0,1,2.272-1.7c.626,0,.751.515.751.975a13.338,13.338,0,0,1-.9,3.244,1.557,1.557,0,0,0-.141.642,1.114,1.114,0,0,0,1.142,1.141c1.31,0,1.824-2.033,1.824-2.144,0-.14-.125-.14-.166-.14-.14,0-.14.041-.208.251-.281.947-.739,1.727-1.422,1.727-.237,0-.335-.141-.335-.46a2.655,2.655,0,0,1,.252-.988,12.525,12.525,0,0,0,.85-3.065,1.424,1.424,0,0,0-1.6-1.49,2.691,2.691,0,0,0-2.173,1.212,1.259,1.259,0,0,0-1.281-1.212,1.218,1.218,0,0,0-1.045.793,7.039,7.039,0,0,0-.418,1.352c0,.14.14.14.168.14.138,0,.154-.015.237-.322.236-.988.515-1.656,1.016-1.656.278,0,.432.18.432.64a4.454,4.454,0,0,1-.224,1.17l-.808,3.218" transform="translate(-443.5 -139.008)"/><polyline points="234.5 192.999 232.592 192.999 232.592 193.555 233.944 193.555 233.944 206.368 232.592 206.368 232.592 206.925 234.5 206.925 234.5 192.999"/><path d="M733.917,454.167c0-.944-.26-2.936-1.72-2.936-1.991,0-4.2,4.04-4.2,7.32,0,1.345.415,2.936,1.719,2.936,2.019,0,4.2-4.112,4.2-7.32Zm-4.4,1.962a12.953,12.953,0,0,1,1.1-3.08c.388-.7.917-1.5,1.562-1.5.7,0,.788.917.788,1.733a11.927,11.927,0,0,1-.457,2.85Zm2.863.46a12.635,12.635,0,0,1-1,2.906c-.5.976-1.046,1.676-1.661,1.676-.473,0-.773-.414-.773-1.748a10.956,10.956,0,0,1,.458-2.834h2.978" transform="translate(-443.5 -139.008)"/><text class="cls-3" transform="translate(198.237 160.973)"><tspan class="cls-4">W</tspan><tspan x="10.846" y="0" xml:space="preserve">ith                     [samples/sec]</tspan></text><path d="M674.82,295.679h1.046c.243,0,.366,0,.366-.243,0-.134-.123-.134-.329-.134h-1.011l.257-1.387a11.426,11.426,0,0,1,.291-1.265.66.66,0,0,1,.572-.413.9.9,0,0,1,.6.218.675.675,0,0,0-.658.658.422.422,0,0,0,.451.425.7.7,0,0,0,.668-.729c0-.561-.559-.84-1.058-.84-.414,0-1.179.218-1.545,1.423-.072.255-.109.377-.4,1.91h-.84c-.23,0-.364,0-.364.232,0,.145.109.145.341.145h.8l-.912,4.805c-.219,1.181-.425,2.287-1.059,2.287a.872.872,0,0,1-.583-.218.659.659,0,0,0,.669-.656.421.421,0,0,0-.449-.427.7.7,0,0,0-.67.731.937.937,0,0,0,1.033.838c.67,0,1.156-.718,1.376-1.179a11.03,11.03,0,0,0,.682-2.325l.729-3.856" transform="translate(-443.5 -139.008)"/><path d="M680.067,299.145a.443.443,0,0,0-.362.406.277.277,0,0,0,.285.275.431.431,0,0,0,.414-.492c0-.558-.62-.748-1.147-.748a1.4,1.4,0,0,0-1.584,1.257.825.825,0,0,0,.3.628,1.873,1.873,0,0,0,.972.31c.182.034.733.138.733.568a.868.868,0,0,1-.457.689,1.841,1.841,0,0,1-.861.19,1.32,1.32,0,0,1-1.034-.362.51.51,0,0,0,.475-.49.307.307,0,0,0-.337-.319.523.523,0,0,0-.5.577c0,.517.551.835,1.387.835,1.585,0,1.877-1.085,1.877-1.42,0-.792-.87-.947-1.188-1.009-.079-.017-.293-.051-.344-.068-.32-.06-.475-.242-.475-.431a.736.736,0,0,1,.344-.551,1.346,1.346,0,0,1,.682-.163.993.993,0,0,1,.817.318" transform="translate(-443.5 -139.008)"/><path d="M693.41,296.567c.182,0,.414,0,.414-.243s-.232-.243-.4-.243h-7.287c-.17,0-.4,0-.4.243s.232.243.413.243Zm.012,2.36c.17,0,.4,0,.4-.243s-.232-.243-.414-.243h-7.264c-.181,0-.413,0-.413.243s.232.243.4.243h7.287" transform="translate(-443.5 -139.008)"/><path d="M701.365,292.759c0-.291,0-.316-.279-.316a3.006,3.006,0,0,1-2.214.779v.377a3.649,3.649,0,0,0,1.594-.316v6.3c0,.438-.036.584-1.133.584h-.388v.377c.424-.037,1.485-.037,1.971-.037s1.544,0,1.971.037v-.377H702.5c-1.094,0-1.131-.134-1.131-.584v-6.826" transform="translate(-443.5 -139.008)"/><path d="M709.63,296.653a6.5,6.5,0,0,0-.486-2.847,2.257,2.257,0,0,0-2.068-1.363,2.232,2.232,0,0,0-2.117,1.447,6.532,6.532,0,0,0-.45,2.763,6.151,6.151,0,0,0,.548,2.932,2.274,2.274,0,0,0,4.124-.184,6.46,6.46,0,0,0,.449-2.748Zm-2.566,3.893c-.475,0-1.192-.305-1.41-1.472a25.462,25.462,0,0,1-.039-4.807c.232-1.447,1.145-1.556,1.449-1.556.4,0,1.2.218,1.435,1.424a14.788,14.788,0,0,1,.123,2.371,15.044,15.044,0,0,1-.134,2.518c-.182,1.156-.877,1.522-1.424,1.522" transform="translate(-443.5 -139.008)"/><path d="M715.754,296.653a6.5,6.5,0,0,0-.486-2.847,2.258,2.258,0,0,0-2.069-1.363,2.23,2.23,0,0,0-2.116,1.447,6.516,6.516,0,0,0-.45,2.763,6.162,6.162,0,0,0,.547,2.932,2.274,2.274,0,0,0,4.124-.184,6.445,6.445,0,0,0,.45-2.748Zm-2.566,3.893c-.475,0-1.192-.305-1.411-1.472a25.343,25.343,0,0,1-.038-4.807c.232-1.447,1.144-1.556,1.449-1.556.4,0,1.2.218,1.435,1.424a23.418,23.418,0,0,1-.012,4.889c-.181,1.156-.876,1.522-1.423,1.522" transform="translate(-443.5 -139.008)"/><path d="M722,296.653a6.5,6.5,0,0,0-.486-2.847,2.258,2.258,0,0,0-2.069-1.363,2.23,2.23,0,0,0-2.116,1.447,6.516,6.516,0,0,0-.45,2.763,6.162,6.162,0,0,0,.547,2.932,2.274,2.274,0,0,0,4.124-.184,6.445,6.445,0,0,0,.45-2.748Zm-2.566,3.893c-.475,0-1.192-.305-1.411-1.472a25.343,25.343,0,0,1-.038-4.807c.232-1.447,1.145-1.556,1.449-1.556.4,0,1.2.218,1.435,1.424a23.418,23.418,0,0,1-.012,4.889c-.181,1.156-.876,1.522-1.423,1.522" transform="translate(-443.5 -139.008)"/><path d="M514.619,451.048c.195,0,.4,0,.4-.229s-.206-.232-.4-.232H508.4c-.195,0-.4,0-.4.232s.206.229.4.229h6.218" transform="translate(-443.5 -139.008)"/><path d="M521.354,450.014a6.138,6.138,0,0,0-.459-2.689,2.131,2.131,0,0,0-1.954-1.287,2.107,2.107,0,0,0-2,1.366,6.164,6.164,0,0,0-.425,2.61,5.81,5.81,0,0,0,.517,2.769,2.148,2.148,0,0,0,3.895-.173,6.1,6.1,0,0,0,.425-2.6Zm-2.424,3.677c-.448,0-1.126-.288-1.332-1.39a23.861,23.861,0,0,1-.036-4.541c.219-1.366,1.081-1.469,1.368-1.469.38,0,1.137.206,1.356,1.344a14.118,14.118,0,0,1,.115,2.24,14.284,14.284,0,0,1-.126,2.379c-.172,1.091-.828,1.437-1.345,1.437" transform="translate(-443.5 -139.008)"/><path d="M524.176,453.082a.61.61,0,1,0-.61.609.615.615,0,0,0,.61-.609" transform="translate(-443.5 -139.008)"/><path d="M528.47,451.8v1c0,.414-.023.541-.873.541h-.242v.356c.472-.035,1.07-.035,1.553-.035s1.091,0,1.561.035v-.356h-.24c-.851,0-.873-.127-.873-.541v-1H530.5v-.356h-1.148v-5.23c0-.229,0-.3-.184-.3-.1,0-.138,0-.23.137l-3.528,5.391v.356Zm.069-.356h-2.8l2.8-4.286v4.286Z" transform="translate(-443.5 -139.008)"/><path d="M534.037,449.405h1.3a12.626,12.626,0,0,0-.482,2.964,3.616,3.616,0,0,0,.092.873c.115.507.242.575.414.575a.486.486,0,0,0,.471-.437.494.494,0,0,0-.07-.253,4.943,4.943,0,0,1-.333-1.9,9.068,9.068,0,0,1,.206-1.826h1.311c.15,0,.564,0,.564-.392,0-.275-.242-.275-.461-.275H533.2a1.463,1.463,0,0,0-1.2.541,4.117,4.117,0,0,0-.7,1.033c0,.011,0,.114.137.114.092,0,.116-.045.184-.137a1.618,1.618,0,0,1,1.459-.884h.654a24.3,24.3,0,0,1-1.469,3.827c-.092.171-.092.195-.092.274a.312.312,0,0,0,.332.311c.345,0,.438-.322.575-.746.161-.53.161-.552.311-1.126l.643-2.54" transform="translate(-443.5 -139.008)"/><path d="M656.1,450.324a6.468,6.468,0,0,0-.484-2.834,2.247,2.247,0,0,0-2.059-1.357,2.221,2.221,0,0,0-2.107,1.44,6.5,6.5,0,0,0-.448,2.751,6.135,6.135,0,0,0,.545,2.919,2.264,2.264,0,0,0,4.105-.183,6.425,6.425,0,0,0,.448-2.736Zm-2.555,3.875c-.472,0-1.187-.3-1.4-1.465a25.334,25.334,0,0,1-.038-4.785c.231-1.44,1.139-1.549,1.442-1.549.4,0,1.2.217,1.429,1.417a23.208,23.208,0,0,1-.012,4.867c-.181,1.151-.872,1.515-1.417,1.515" transform="translate(-443.5 -139.008)"/><path d="M658.949,453.557a.642.642,0,1,0-.642.642.647.647,0,0,0,.642-.642" transform="translate(-443.5 -139.008)"/><path d="M663.6,452.2v1.053c0,.436-.024.57-.92.57h-.255v.375c.5-.036,1.128-.036,1.636-.036s1.151,0,1.646.036v-.375h-.253c-.9,0-.92-.134-.92-.57V452.2h1.209v-.376h-1.209v-5.511c0-.242,0-.314-.195-.314-.108,0-.144,0-.242.145l-3.718,5.68v.376Zm.073-.376h-2.955l2.955-4.516v4.516Z" transform="translate(-443.5 -139.008)"/><path d="M669.343,449.682h1.367a13.283,13.283,0,0,0-.508,3.124,3.81,3.81,0,0,0,.1.92c.122.534.255.606.436.606a.512.512,0,0,0,.5-.461.523.523,0,0,0-.074-.267,5.2,5.2,0,0,1-.351-2,9.464,9.464,0,0,1,.218-1.924h1.381c.158,0,.594,0,.594-.413,0-.29-.255-.29-.486-.29h-4.055a1.541,1.541,0,0,0-1.261.57,4.326,4.326,0,0,0-.738,1.09c0,.011,0,.12.145.12.1,0,.122-.048.195-.145a1.7,1.7,0,0,1,1.537-.932h.689a25.513,25.513,0,0,1-1.548,4.033c-.1.181-.1.206-.1.29a.33.33,0,0,0,.351.327c.364,0,.461-.339.606-.787.169-.558.169-.581.327-1.186l.679-2.677" transform="translate(-443.5 -139.008)"/><rect x="94.5" y="38.255" width="5.04" height="0.5"/><rect x="94.5" y="232.255" width="5.04" height="0.5"/><rect x="167.934" y="156.535" width="14.566" height="1"/><rect x="234.495" y="231.742" width="5.04" height="0.5"/></svg>