<svg id="Layer_1" data-name="Layer 1" xmlns="http://www.w3.org/2000/svg" viewBox="0 0 745 232.94"><defs><style>.cls-1{fill:none;stroke:#000;stroke-miterlimit:10;stroke-width:2px;}.cls-2{font-size:36px;font-family:TimesNewRomanPSMT, Times New Roman;}</style></defs><title>ideal_CDC</title><rect class="cls-1" x="128" y="1" width="181" height="132.5"/><text class="cls-2" transform="translate(182.28 33.52)">Ideal <tspan x="-15.02" y="43.2">C-to-D </tspan><tspan x="-36" y="86.4">Converter</tspan></text><line class="cls-1" x1="218" y1="147.85" x2="218" y2="193.5"/><polygon points="208.03 150.77 218 133.5 227.97 150.77 208.03 150.77"/><line class="cls-1" x1="113.65" y1="67.5" y2="67.5"/><polygon points="110.73 57.53 128 67.5 110.73 77.47 110.73 57.53"/><line class="cls-1" x1="421.65" y1="67.5" x2="308" y2="67.5"/><polygon points="418.73 57.53 436 67.5 418.73 77.47 418.73 57.53"/><path d="M376.84,309.3c.22-.92,1-4.19,3.52-4.19a3.51,3.51,0,0,1,1.78.46,2.07,2.07,0,0,0-1.71,1.92,1.24,1.24,0,0,0,1.35,1.24,2,2,0,0,0,1.92-2.05c0-1.86-2.1-2.35-3.31-2.35-2.06,0-3.3,1.88-3.72,2.7a4,4,0,0,0-3.84-2.7c-3.7,0-5.73,4.58-5.73,5.47,0,.36.36.36.43.36.29,0,.39-.08.46-.39,1.21-3.77,3.56-4.66,4.76-4.66.68,0,1.93.32,1.93,2.38,0,1.1-.61,3.48-1.93,8.46-.56,2.2-1.81,3.69-3.37,3.69a3.43,3.43,0,0,1-1.78-.46,2,2,0,0,0,1.67-1.92A1.21,1.21,0,0,0,368,316a2,2,0,0,0-2,2.06c0,1.64,1.78,2.35,3.34,2.35,2.35,0,3.63-2.49,3.74-2.7a3.92,3.92,0,0,0,3.83,2.7c3.66,0,5.69-4.59,5.69-5.48,0-.35-.32-.35-.43-.35-.32,0-.39.14-.46.39-1.17,3.8-3.59,4.65-4.73,4.65-1.38,0-2-1.13-2-2.34a13.92,13.92,0,0,1,.6-3.13l1.21-4.87" transform="translate(-347 -268.5)"/><path d="M397.12,328.57c0-.11,0-.18-.6-.79-4.44-4.47-5.58-11.19-5.58-16.63,0-6.19,1.35-12.37,5.73-16.81.45-.43.45-.5.45-.61a.32.32,0,0,0-.35-.35c-.36,0-3.55,2.42-5.65,6.93a27.35,27.35,0,0,0,.11,21.93c2.13,4.37,5.18,6.68,5.54,6.68a.32.32,0,0,0,.35-.35" transform="translate(-347 -268.5)"/><path d="M406.28,305.82h3.34c.71,0,1.07,0,1.07-.71,0-.39-.36-.39-1-.39h-3.12c1.27-5.05,1.45-5.76,1.45-6a.94.94,0,0,0-1-1,1.52,1.52,0,0,0-1.42,1.28l-1.39,5.65h-3.34c-.71,0-1.07,0-1.07.68,0,.42.29.42,1,.42h3.13c-2.56,10.1-2.7,10.7-2.7,11.34a3.14,3.14,0,0,0,3.26,3.27c3.63,0,5.66-5.19,5.66-5.48s-.29-.35-.43-.35c-.32,0-.36.1-.53.49-1.53,3.7-3.42,4.55-4.62,4.55-.75,0-1.1-.46-1.1-1.63a5.86,5.86,0,0,1,.21-1.71l2.63-10.48" transform="translate(-347 -268.5)"/><path d="M422.11,311.15a26,26,0,0,0-2.35-11.09c-2.13-4.37-5.18-6.68-5.54-6.68a.34.34,0,0,0-.36.35c0,.11,0,.18.68.83,3.48,3.51,5.51,9.16,5.51,16.59,0,6.08-1.32,12.33-5.73,16.81-.46.43-.46.5-.46.61a.34.34,0,0,0,.36.35c.36,0,3.55-2.42,5.65-6.93a25.86,25.86,0,0,0,2.24-10.84" transform="translate(-347 -268.5)"/><path d="M703.77,312.33c.19-.84.93-3.78,3.17-3.78a3.17,3.17,0,0,1,1.6.41,1.86,1.86,0,0,0-1.53,1.73,1.11,1.11,0,0,0,1.21,1.12A1.78,1.78,0,0,0,710,310c0-1.67-1.89-2.12-3-2.12-1.86,0-3,1.7-3.36,2.44a3.54,3.54,0,0,0-3.46-2.44c-3.33,0-5.16,4.13-5.16,4.93,0,.33.32.33.39.33.26,0,.35-.07.41-.36,1.1-3.39,3.21-4.19,4.29-4.19.61,0,1.74.28,1.74,2.14,0,1-.55,3.14-1.74,7.62-.5,2-1.63,3.33-3,3.33a3.13,3.13,0,0,1-1.6-.41A1.83,1.83,0,0,0,697,319.5a1.1,1.1,0,0,0-1.19-1.12,1.82,1.82,0,0,0-1.76,1.85c0,1.48,1.6,2.12,3,2.12,2.12,0,3.27-2.24,3.37-2.43a3.53,3.53,0,0,0,3.45,2.43c3.3,0,5.12-4.13,5.12-4.93,0-.32-.28-.32-.38-.32-.29,0-.35.13-.42.35-1,3.42-3.23,4.19-4.25,4.19-1.25,0-1.77-1-1.77-2.11a12.77,12.77,0,0,1,.55-2.82l1.09-4.38" transform="translate(-347 -268.5)"/><polyline points="372.29 61.5 372.29 60.22 369.18 60.22 369.18 30.76 372.29 30.76 372.29 29.48 367.9 29.48 367.9 61.5 372.29 61.5"/><path d="M723,320.11c-.1.48-.29,1.21-.29,1.37a.86.86,0,0,0,.93.87,1.32,1.32,0,0,0,1.19-.9c0-.06.41-1.57.61-2.37l.7-2.88c.19-.71.38-1.41.54-2.15.13-.54.39-1.47.42-1.6.48-1,2.18-3.9,5.22-3.9,1.44,0,1.73,1.18,1.73,2.24,0,2-1.57,6.08-2.08,7.46a3.59,3.59,0,0,0-.32,1.47,2.56,2.56,0,0,0,2.62,2.63c3,0,4.2-4.68,4.2-4.93s-.29-.32-.39-.32c-.32,0-.32.09-.47.57-.65,2.18-1.7,4-3.27,4-.55,0-.77-.32-.77-1.05a6.28,6.28,0,0,1,.57-2.28c.61-1.69,2-5.21,2-7,0-2.15-1.38-3.43-3.68-3.43a6.17,6.17,0,0,0-5,2.79,2.9,2.9,0,0,0-2.95-2.79,2.79,2.79,0,0,0-2.4,1.83,16.27,16.27,0,0,0-1,3.1c0,.33.32.33.39.33.31,0,.35,0,.54-.74.54-2.28,1.18-3.81,2.34-3.81.64,0,1,.41,1,1.47a10.54,10.54,0,0,1-.51,2.69l-1.86,7.4" transform="translate(-347 -268.5)"/><polyline points="397.59 29.48 393.2 29.48 393.2 30.76 396.31 30.76 396.31 60.22 393.2 60.22 393.2 61.5 397.59 61.5 397.59 29.48"/><rect class="cls-1" x="437" y="1" width="181" height="132.5"/><text class="cls-2" transform="translate(491.28 33.52)">Ideal <tspan x="-15.02" y="43.2">D-to-C </tspan><tspan x="-36" y="86.4">Converter</tspan></text><line class="cls-1" x1="527" y1="147.85" x2="527" y2="193.5"/><polygon points="517.03 150.77 527 133.5 536.97 150.77 517.03 150.77"/><line class="cls-1" x1="422.65" y1="67.5" x2="309" y2="67.5"/><polygon points="419.73 57.53 437 67.5 419.73 77.47 419.73 57.53"/><line class="cls-1" x1="730.65" y1="67.5" x2="617" y2="67.5"/><polygon points="727.73 57.53 745 67.5 727.73 77.47 727.73 57.53"/><path d="M549.72,475.77h3.21c.75,0,1.12,0,1.12-.74,0-.41-.37-.41-1-.41h-3.1l.79-4.26a37.1,37.1,0,0,1,.89-3.88,2,2,0,0,1,1.76-1.27,2.75,2.75,0,0,1,1.83.67,2.07,2.07,0,0,0-2,2,1.28,1.28,0,0,0,1.38,1.3,2.13,2.13,0,0,0,2-2.23c0-1.72-1.71-2.58-3.24-2.58-1.27,0-3.62.67-4.74,4.37a59.25,59.25,0,0,0-1.23,5.86h-2.58c-.71,0-1.12,0-1.12.71,0,.44.34.44,1,.44h2.46l-2.8,14.75c-.67,3.62-1.31,7-3.25,7a2.67,2.67,0,0,1-1.79-.67,2,2,0,0,0,2-2,1.29,1.29,0,0,0-1.38-1.31,2.14,2.14,0,0,0-2,2.24c0,1.68,1.64,2.57,3.17,2.57,2.06,0,3.55-2.2,4.22-3.61a33.86,33.86,0,0,0,2.09-7.14l2.24-11.83" transform="translate(-347 -268.5)"/><path d="M565.82,486.41a1.34,1.34,0,0,0-1.11,1.24.85.85,0,0,0,.87.85,1.32,1.32,0,0,0,1.27-1.51c0-1.72-1.9-2.3-3.52-2.3-4.12,0-4.86,3-4.86,3.86a2.51,2.51,0,0,0,.93,1.92c.69.53,1.16.64,3,1,.56.1,2.25.42,2.25,1.74a2.65,2.65,0,0,1-1.4,2.11,5.69,5.69,0,0,1-2.64.58c-1.06,0-2.56-.23-3.17-1.11a1.55,1.55,0,0,0,1.45-1.5.94.94,0,0,0-1-1,1.6,1.6,0,0,0-1.53,1.77c0,1.59,1.69,2.56,4.25,2.56,4.86,0,5.76-3.32,5.76-4.35,0-2.43-2.67-2.91-3.64-3.1-.25,0-.9-.15-1.06-.21-1-.18-1.46-.74-1.46-1.32a2.27,2.27,0,0,1,1.06-1.69,4.11,4.11,0,0,1,2.09-.5,3.05,3.05,0,0,1,2.51,1" transform="translate(-347 -268.5)"/><path d="M574.28,495.92a6.09,6.09,0,0,1-2.06,4.83.46.46,0,0,0-.18.32.42.42,0,0,0,.37.37c.37,0,2.61-2.12,2.61-5.26,0-1.64-.63-2.88-1.85-2.88a1.52,1.52,0,0,0,0,3,1.77,1.77,0,0,0,1.08-.42" transform="translate(-347 -268.5)"/><path d="M583.3,480a1.52,1.52,0,0,0-1.53-1.5,1.52,1.52,0,1,0,1.53,1.5Zm-4,4.94v.95c1.67,0,1.91.16,1.91,1.46v6.87c0,1.13-.27,1.13-2,1.13v.95s1.9-.11,3-.11,1.87,0,2.8.11v-.95c-1.53,0-1.8,0-1.8-1.11v-9.59l-3.89.29" transform="translate(-347 -268.5)"/><path d="M599.6,488.34c0-2.3-1.13-3.65-4-3.65a4.72,4.72,0,0,0-4.3,2.56h0v-2.56l-3.88.29v.95c1.77,0,2,.19,2,1.48v6.85c0,1.13-.26,1.13-2,1.13v.95c.05,0,1.9-.11,3-.11s2.8.09,3,.11v-.95c-1.72,0-2,0-2-1.13V489.5a3.92,3.92,0,0,1,3.93-4.07c1.85,0,2.09,1.45,2.09,2.8v6c0,1.13-.26,1.13-2,1.13v.95c.05,0,1.9-.11,3-.11s2.8.09,3,.11v-.95c-1.72,0-2,0-2-1.13v-5.92" transform="translate(-347 -268.5)"/><path d="M859,471.55h3.19c.74,0,1.11,0,1.11-.74,0-.41-.37-.41-1-.41h-3.08l.78-4.22a35.85,35.85,0,0,1,.89-3.85,2,2,0,0,1,1.74-1.26,2.76,2.76,0,0,1,1.82.66,2.07,2.07,0,0,0-2,2,1.28,1.28,0,0,0,1.38,1.29,2.12,2.12,0,0,0,2-2.22c0-1.71-1.7-2.56-3.22-2.56-1.26,0-3.59.67-4.7,4.34-.22.77-.33,1.14-1.22,5.81h-2.56c-.7,0-1.1,0-1.1.7,0,.45.33.45,1,.45h2.44l-2.78,14.62c-.66,3.59-1.29,7-3.22,7a2.63,2.63,0,0,1-1.77-.67,2,2,0,0,0,2-2,1.28,1.28,0,0,0-1.37-1.3,2.12,2.12,0,0,0-2,2.22c0,1.67,1.63,2.55,3.14,2.55,2,0,3.52-2.18,4.19-3.58a33.66,33.66,0,0,0,2.07-7.08L859,471.55" transform="translate(-347 -268.5)"/><path d="M875,482.09a1.35,1.35,0,0,0-1.1,1.24.83.83,0,0,0,.87.83,1.3,1.3,0,0,0,1.26-1.49c0-1.7-1.89-2.28-3.49-2.28-4.09,0-4.82,3-4.82,3.83a2.52,2.52,0,0,0,.92,1.91c.68.52,1.15.63,3,.94.56.11,2.23.42,2.23,1.73a2.66,2.66,0,0,1-1.39,2.1,5.66,5.66,0,0,1-2.62.57c-1.05,0-2.54-.23-3.14-1.1a1.54,1.54,0,0,0,1.44-1.49.93.93,0,0,0-1-1,1.59,1.59,0,0,0-1.52,1.76c0,1.57,1.67,2.54,4.22,2.54,4.82,0,5.71-3.3,5.71-4.32,0-2.41-2.65-2.89-3.61-3.07-.24-.06-.9-.16-1-.21-1-.18-1.45-.74-1.45-1.31a2.24,2.24,0,0,1,1.05-1.68,4.15,4.15,0,0,1,2.07-.5,3,3,0,0,1,2.49,1" transform="translate(-347 -268.5)"/><path d="M883.41,491.53a6,6,0,0,1-2,4.79c-.1.1-.18.18-.18.31a.41.41,0,0,0,.37.37c.37,0,2.59-2.1,2.59-5.21,0-1.63-.63-2.86-1.83-2.86a1.51,1.51,0,0,0,0,3,1.76,1.76,0,0,0,1.07-.42" transform="translate(-347 -268.5)"/><path d="M900.69,486.37a6.43,6.43,0,0,0-12.84,0,6.14,6.14,0,0,0,6.42,5.84c3.53,0,6.42-2.59,6.42-5.84Zm-6.42,5a3.85,3.85,0,0,1-3.25-1.6,6.55,6.55,0,0,1-.79-3.64,5.87,5.87,0,0,1,.95-3.8,4.05,4.05,0,0,1,3.09-1.34,3.86,3.86,0,0,1,3.22,1.55,6.05,6.05,0,0,1,.82,3.59,6.41,6.41,0,0,1-.84,3.72,3.89,3.89,0,0,1-3.2,1.52" transform="translate(-347 -268.5)"/><path d="M910.82,480.68v.94c1.76,0,2,.19,2,1.47v4.48a3.58,3.58,0,0,1-3.49,3.9c-2.38,0-2.49-1.12-2.49-2.46v-8.62l-4,.29v.94c2,0,2,.08,2,2.41V488c0,1.81,0,4.25,4.38,4.25a4,4,0,0,0,3.74-2.2h0v2.2l3.93-.26V491c-1.75,0-2-.18-2-1.47v-9.14l-4,.29" transform="translate(-347 -268.5)"/><path d="M923.4,481.6h4.09v-1H923.4v-4.82h-.89c0,2.36-1.1,4.95-3.62,5v.74h2.44v7.07c0,2.94,2.2,3.54,3.67,3.54,1.75,0,3-1.49,3-3.57V487.2h-.89v1.42c0,1.78-.84,2.75-1.86,2.75-1.81,0-1.81-2.2-1.81-2.67v-7.1" transform="translate(-347 -268.5)"/><path d="M1017.75,307.13a2.27,2.27,0,0,0,.13-.79.92.92,0,0,0-1-.93,1.48,1.48,0,0,0-1.21.72c-.07.17-.34,1.24-.49,1.86-.23.9-.48,1.83-.68,2.75L1013,317c-.14.51-1.62,2.93-3.89,2.93-1.77,0-2.14-1.52-2.14-2.8a20.61,20.61,0,0,1,1.76-6.75,6.34,6.34,0,0,0,.68-2.48,2.73,2.73,0,0,0-2.82-2.82c-3.27,0-4.55,5-4.55,5.3s.35.35.42.35c.34,0,.38-.07.54-.62.94-3.24,2.31-4.27,3.48-4.27.28,0,.86,0,.86,1.1a7.35,7.35,0,0,1-.58,2.41c-1.38,3.65-2,5.62-2,7.23,0,3.07,2.16,4.1,4.2,4.1a4.82,4.82,0,0,0,3.47-1.55,13.26,13.26,0,0,1-2.23,5.31,5,5,0,0,1-3.79,2.17,2.8,2.8,0,0,1-2.62-1.45,2,2,0,0,0,1.48-.41,1.85,1.85,0,0,0,.69-1.42,1.17,1.17,0,0,0-1.27-1.2,2,2,0,0,0-1.93,2.24c0,1.72,1.51,3,3.65,3,3.55,0,7.09-3.14,8.06-7l3.31-13.16" transform="translate(-347 -268.5)"/><path d="M1030.44,328.52c0-.1,0-.17-.59-.76-4.3-4.34-5.41-10.85-5.41-16.12,0-6,1.32-12,5.55-16.29.45-.42.45-.49.45-.59a.31.31,0,0,0-.34-.34c-.35,0-3.45,2.34-5.48,6.72a26.43,26.43,0,0,0,.1,21.25c2.07,4.24,5,6.47,5.38,6.47a.31.31,0,0,0,.34-.34" transform="translate(-347 -268.5)"/><path d="M1039.66,306.47h3.23c.69,0,1,0,1-.68,0-.38-.35-.38-1-.38h-3c1.23-4.9,1.4-5.58,1.4-5.79a.9.9,0,0,0-1-.93,1.47,1.47,0,0,0-1.38,1.24l-1.34,5.48h-3.24c-.69,0-1,0-1,.65,0,.41.28.41,1,.41h3c-2.48,9.79-2.62,10.38-2.62,11a3,3,0,0,0,3.17,3.17c3.52,0,5.48-5,5.48-5.3s-.28-.35-.41-.35c-.31,0-.35.11-.52.48-1.48,3.59-3.31,4.42-4.48,4.42-.72,0-1.07-.45-1.07-1.59a5.55,5.55,0,0,1,.21-1.66l2.55-10.16" transform="translate(-347 -268.5)"/><path d="M1055,311.64a25.18,25.18,0,0,0-2.27-10.75c-2.07-4.23-5-6.47-5.38-6.47a.32.32,0,0,0-.34.34c0,.1,0,.17.65.8,3.38,3.4,5.35,8.88,5.35,16.08,0,5.89-1.28,12-5.55,16.3-.45.41-.45.48-.45.58a.32.32,0,0,0,.34.34c.35,0,3.45-2.34,5.48-6.71a25,25,0,0,0,2.17-10.51" transform="translate(-347 -268.5)"/></svg>