<svg id="Layer_1" data-name="Layer 1" xmlns="http://www.w3.org/2000/svg" viewBox="0 0 436 233.21"><defs><style>.cls-1{fill:none;stroke:#000;stroke-miterlimit:10;stroke-width:2px;}.cls-2{font-size:36px;font-family:TimesNewRomanPSMT, Times New Roman;}</style></defs><title>ideal_CD</title><rect class="cls-1" x="128" y="1" width="181" height="132.5"/><text class="cls-2" transform="translate(182.28 33.52)">Ideal <tspan x="-15.02" y="43.2">C-to-D </tspan><tspan x="-36" y="86.4">Converter</tspan></text><line class="cls-1" x1="218" y1="147.85" x2="218" y2="193.5"/><polygon points="208.03 150.77 218 133.5 227.97 150.77 208.03 150.77"/><line class="cls-1" x1="113.65" y1="67.5" y2="67.5"/><polygon points="110.73 57.53 128 67.5 110.73 77.47 110.73 57.53"/><line class="cls-1" x1="421.65" y1="67.5" x2="308" y2="67.5"/><polygon points="418.73 57.53 436 67.5 418.73 77.47 418.73 57.53"/><path d="M579.45,486.07h2.87c.66,0,1,0,1-.66,0-.37-.34-.37-.9-.37h-2.77l.7-3.8a31.41,31.41,0,0,1,.8-3.46,1.81,1.81,0,0,1,1.56-1.13,2.46,2.46,0,0,1,1.64.6,1.84,1.84,0,0,0-1.8,1.8,1.15,1.15,0,0,0,1.23,1.16,1.9,1.9,0,0,0,1.83-2c0-1.54-1.53-2.3-2.9-2.3-1.13,0-3.22.59-4.22,3.89-.2.7-.3,1-1.1,5.23h-2.3c-.63,0-1,0-1,.63,0,.4.29.4.93.4h2.19l-2.5,13.15c-.59,3.23-1.16,6.26-2.89,6.26a2.38,2.38,0,0,1-1.6-.6,1.81,1.81,0,0,0,1.83-1.8,1.15,1.15,0,0,0-1.23-1.16,1.9,1.9,0,0,0-1.83,2c0,1.49,1.47,2.29,2.83,2.29,1.83,0,3.16-2,3.76-3.23a30,30,0,0,0,1.87-6.36l2-10.55" transform="translate(-415 -274.5)"/><path d="M593.81,495.55a1.22,1.22,0,0,0-1,1.11.76.76,0,0,0,.78.76c.24,0,1.13-.14,1.13-1.35,0-1.53-1.69-2.05-3.13-2.05-3.68,0-4.34,2.71-4.34,3.45a2.25,2.25,0,0,0,.83,1.71c.61.47,1,.57,2.66.85.49.1,2,.38,2,1.56a2.38,2.38,0,0,1-1.25,1.88,5,5,0,0,1-2.36.52c-.94,0-2.28-.21-2.82-1a1.39,1.39,0,0,0,1.3-1.34.85.85,0,0,0-.93-.88,1.43,1.43,0,0,0-1.36,1.59c0,1.41,1.51,2.28,3.79,2.28,4.34,0,5.14-3,5.14-3.89,0-2.16-2.38-2.59-3.25-2.76-.22,0-.8-.14-.94-.18-.88-.17-1.3-.66-1.3-1.18a2,2,0,0,1,.94-1.51,3.68,3.68,0,0,1,1.86-.45,2.72,2.72,0,0,1,2.24.87" transform="translate(-415 -274.5)"/><path d="M630,488.5c.5,0,1.13,0,1.13-.66s-.63-.67-1.1-.67H610.08c-.47,0-1.1,0-1.1.67s.63.66,1.13.66Zm0,6.46c.47,0,1.1,0,1.1-.67s-.63-.66-1.13-.66H610.11c-.5,0-1.13,0-1.13.66s.63.67,1.1.67H630" transform="translate(-415 -274.5)"/><path d="M652.09,478.08c0-.8,0-.86-.76-.86a8.24,8.24,0,0,1-6.06,2.13v1a9.93,9.93,0,0,0,4.36-.87v17.25c0,1.2-.1,1.6-3.1,1.6h-1.06v1c1.16-.1,4.06-.1,5.39-.1s4.23,0,5.39.1v-1h-1.06c-3,0-3.1-.37-3.1-1.6V478.08" transform="translate(-415 -274.5)"/><path d="M674,475.68a1.7,1.7,0,0,0,.17-.6.67.67,0,0,0-.67-.66.61.61,0,0,0-.56.3l-11.56,31.73a1.77,1.77,0,0,0-.16.59.67.67,0,0,0,.66.67c.43,0,.54-.23.74-.8L674,475.68" transform="translate(-415 -274.5)"/><path d="M690.37,479.18c.23-.93.37-1.13.76-1.23a17.33,17.33,0,0,1,2.1-.07c3.37,0,4.86.13,4.86,2.73a25,25,0,0,1-.26,2.66,4.19,4.19,0,0,0-.1.64.39.39,0,0,0,.39.43c.37,0,.44-.26.5-.77l.9-5.79a4.07,4.07,0,0,0,.07-.56c0-.37-.33-.37-.9-.37H680.22c-.81,0-.84,0-1.07.66l-2,5.86a5.27,5.27,0,0,0-.2.6.38.38,0,0,0,.4.37c.33,0,.37-.16.57-.7,1.79-5.16,2.66-5.76,7.58-5.76h1.3c.94,0,.94.13.94.4a2.87,2.87,0,0,1-.14.7l-4.46,17.78c-.3,1.23-.39,1.6-4,1.6-1.19,0-1.39,0-1.39.63,0,.4.36.4.56.4.9,0,1.83-.07,2.73-.07l2.83,0c.93,0,1.86,0,2.76,0s2,.07,2.9.07c.33,0,.73,0,.73-.67,0-.36-.27-.36-1.13-.36s-1.27,0-2.13-.07-1.23-.2-1.23-.74a3,3,0,0,1,.13-.69l4.43-17.68" transform="translate(-415 -274.5)"/><path d="M706.08,495.55a1.22,1.22,0,0,0-1,1.11.76.76,0,0,0,.78.76,1.18,1.18,0,0,0,1.13-1.35c0-1.53-1.7-2.05-3.14-2.05-3.67,0-4.33,2.71-4.33,3.45a2.22,2.22,0,0,0,.83,1.71c.61.47,1,.57,2.65.85.5.1,2,.38,2,1.56a2.38,2.38,0,0,1-1.25,1.88,5,5,0,0,1-2.36.52c-.94,0-2.28-.21-2.82-1a1.38,1.38,0,0,0,1.29-1.34.84.84,0,0,0-.92-.88,1.43,1.43,0,0,0-1.36,1.59c0,1.41,1.5,2.28,3.79,2.28,4.34,0,5.14-3,5.14-3.89,0-2.16-2.38-2.59-3.25-2.76-.22,0-.8-.14-.95-.18-.87-.17-1.29-.66-1.29-1.18a2,2,0,0,1,.94-1.51,3.68,3.68,0,0,1,1.86-.45,2.73,2.73,0,0,1,2.24.87" transform="translate(-415 -274.5)"/><path d="M444.84,315.3c.22-.92,1-4.19,3.52-4.19a3.51,3.51,0,0,1,1.78.46,2.07,2.07,0,0,0-1.71,1.92,1.24,1.24,0,0,0,1.35,1.24,2,2,0,0,0,1.92-2.05c0-1.86-2.1-2.35-3.31-2.35-2.06,0-3.3,1.88-3.72,2.7a4,4,0,0,0-3.84-2.7c-3.7,0-5.73,4.58-5.73,5.47,0,.36.36.36.43.36.29,0,.39-.08.46-.39,1.21-3.77,3.56-4.66,4.76-4.66.68,0,1.93.32,1.93,2.38,0,1.1-.61,3.48-1.93,8.46-.56,2.2-1.81,3.69-3.37,3.69a3.43,3.43,0,0,1-1.78-.46,2,2,0,0,0,1.67-1.92A1.21,1.21,0,0,0,436,322a2,2,0,0,0-2,2.06c0,1.64,1.78,2.35,3.34,2.35,2.35,0,3.63-2.49,3.74-2.7a3.92,3.92,0,0,0,3.83,2.7c3.66,0,5.69-4.59,5.69-5.48,0-.35-.32-.35-.43-.35-.32,0-.39.14-.46.39-1.17,3.8-3.59,4.65-4.73,4.65-1.38,0-2-1.13-2-2.34a13.92,13.92,0,0,1,.6-3.13l1.21-4.87" transform="translate(-415 -274.5)"/><path d="M465.12,334.57c0-.11,0-.18-.6-.79-4.44-4.47-5.58-11.19-5.58-16.63,0-6.19,1.35-12.37,5.73-16.81.45-.43.45-.5.45-.61a.32.32,0,0,0-.35-.35c-.36,0-3.55,2.42-5.65,6.93a27.35,27.35,0,0,0,.11,21.93c2.13,4.37,5.18,6.68,5.54,6.68a.32.32,0,0,0,.35-.35" transform="translate(-415 -274.5)"/><path d="M474.28,311.82h3.34c.71,0,1.07,0,1.07-.71,0-.39-.36-.39-1-.39h-3.12c1.27-5.05,1.45-5.76,1.45-6a.94.94,0,0,0-1-1,1.52,1.52,0,0,0-1.42,1.28l-1.39,5.65h-3.34c-.71,0-1.07,0-1.07.68,0,.42.29.42,1,.42h3.13c-2.56,10.1-2.7,10.7-2.7,11.34a3.14,3.14,0,0,0,3.26,3.27c3.63,0,5.66-5.19,5.66-5.48s-.29-.35-.43-.35c-.32,0-.36.1-.53.49-1.53,3.7-3.42,4.55-4.62,4.55-.75,0-1.1-.46-1.1-1.63a5.86,5.86,0,0,1,.21-1.71l2.63-10.48" transform="translate(-415 -274.5)"/><path d="M490.11,317.15a26,26,0,0,0-2.35-11.09c-2.13-4.37-5.18-6.68-5.54-6.68a.34.34,0,0,0-.36.35c0,.11,0,.18.68.83,3.48,3.51,5.51,9.16,5.51,16.59,0,6.08-1.32,12.33-5.73,16.81-.46.43-.46.5-.46.61a.34.34,0,0,0,.36.35c.36,0,3.55-2.42,5.65-6.93a25.86,25.86,0,0,0,2.24-10.84" transform="translate(-415 -274.5)"/><path d="M776.77,317.33c.19-.84.93-3.78,3.17-3.78a3.17,3.17,0,0,1,1.6.41,1.86,1.86,0,0,0-1.53,1.73,1.11,1.11,0,0,0,1.21,1.12A1.78,1.78,0,0,0,783,315c0-1.67-1.89-2.12-3-2.12-1.86,0-3,1.7-3.36,2.44a3.54,3.54,0,0,0-3.46-2.44c-3.33,0-5.16,4.13-5.16,4.93,0,.33.32.33.39.33.26,0,.35-.07.41-.36,1.1-3.39,3.21-4.19,4.29-4.19.61,0,1.74.28,1.74,2.14,0,1-.55,3.14-1.74,7.62-.5,2-1.63,3.33-3,3.33a3.13,3.13,0,0,1-1.6-.41A1.83,1.83,0,0,0,770,324.5a1.1,1.1,0,0,0-1.19-1.12,1.82,1.82,0,0,0-1.76,1.85c0,1.48,1.6,2.12,3,2.12,2.12,0,3.27-2.24,3.37-2.43a3.53,3.53,0,0,0,3.45,2.43c3.3,0,5.12-4.13,5.12-4.93,0-.32-.28-.32-.38-.32-.29,0-.35.13-.42.35-1,3.42-3.23,4.19-4.25,4.19-1.25,0-1.77-1-1.77-2.11a12.77,12.77,0,0,1,.55-2.82l1.09-4.38" transform="translate(-415 -274.5)"/><polyline points="377.29 60.5 377.29 59.22 374.18 59.22 374.18 29.76 377.29 29.76 377.29 28.48 372.9 28.48 372.9 60.5 377.29 60.5"/><path d="M796,325.11c-.1.48-.29,1.21-.29,1.37a.86.86,0,0,0,.93.87,1.32,1.32,0,0,0,1.19-.9c0-.06.41-1.57.61-2.37l.7-2.88c.19-.71.38-1.41.54-2.15.13-.54.39-1.47.42-1.6.48-1,2.18-3.9,5.22-3.9,1.44,0,1.73,1.18,1.73,2.24,0,2-1.57,6.08-2.08,7.46a3.59,3.59,0,0,0-.32,1.47,2.56,2.56,0,0,0,2.62,2.63c3,0,4.2-4.68,4.2-4.93s-.29-.32-.39-.32c-.32,0-.32.09-.47.57-.65,2.18-1.7,4-3.27,4-.55,0-.77-.32-.77-1.05a6.28,6.28,0,0,1,.57-2.28c.61-1.69,2-5.21,2-7,0-2.15-1.38-3.43-3.68-3.43a6.17,6.17,0,0,0-5,2.79,2.9,2.9,0,0,0-2.95-2.79,2.79,2.79,0,0,0-2.4,1.83,16.27,16.27,0,0,0-1,3.1c0,.33.32.33.39.33.31,0,.35,0,.54-.74.54-2.28,1.18-3.81,2.34-3.81.64,0,1,.41,1,1.47a10.54,10.54,0,0,1-.51,2.69l-1.86,7.4" transform="translate(-415 -274.5)"/><polyline points="402.59 28.48 398.2 28.48 398.2 29.76 401.31 29.76 401.31 59.22 398.2 59.22 398.2 60.5 402.59 60.5 402.59 28.48"/></svg>