<svg id="Layer_1" data-name="Layer 1" xmlns="http://www.w3.org/2000/svg" viewBox="0 0 807.726 231.62"><defs><style>.cls-1,.cls-10,.cls-11,.cls-3,.cls-4,.cls-5,.cls-6,.cls-8{fill:none;stroke-miterlimit:10;}.cls-1,.cls-3{stroke:#000;}.cls-2{font-size:12px;font-family:TimesNewRomanPSMT, Times New Roman;}.cls-3{stroke-dasharray:7.882 7.882;}.cls-10,.cls-4,.cls-6{stroke:blue;}.cls-4,.cls-5{stroke-width:0.25px;stroke-dasharray:12;}.cls-11,.cls-5,.cls-8{stroke:red;}.cls-10,.cls-11,.cls-6,.cls-8{stroke-width:3px;}.cls-7{fill:blue;}.cls-9{fill:red;}.cls-10,.cls-11{stroke-dasharray:4.962 4.962;}</style></defs><title>uniqueness_frequency</title><line class="cls-1" x1="395.5" y1="147.672" x2="395.5" y2="48.848"/><polygon points="400.486 50.307 395.5 41.672 390.514 50.307 400.486 50.307"/><text class="cls-2" transform="translate(392.737 160.153)">0</text><text class="cls-2" transform="translate(406.737 49.153)">Spectrum</text><text class="cls-2" transform="translate(795.737 136.153)">[-]</text><path d="M742.248,323.246c.085-.361.4-1.643,1.38-1.643a1.372,1.372,0,0,1,.7.18.809.809,0,0,0-.668.753.484.484,0,0,0,.528.487.775.775,0,0,0,.751-.807c0-.725-.821-.92-1.294-.92a1.8,1.8,0,0,0-1.461,1.059,1.545,1.545,0,0,0-1.5-1.059c-1.448,0-2.243,1.8-2.243,2.145,0,.14.14.14.168.14.112,0,.154-.028.18-.153.475-1.477,1.393-1.825,1.866-1.825.265,0,.754.125.754.933a20.2,20.2,0,0,1-.754,3.315c-.221.863-.71,1.448-1.323,1.448a1.335,1.335,0,0,1-.7-.182.787.787,0,0,0,.654-.752.475.475,0,0,0-.514-.486.791.791,0,0,0-.767.806c0,.642.7.92,1.31.92a1.854,1.854,0,0,0,1.463-1.058,1.537,1.537,0,0,0,1.5,1.058c1.435,0,2.228-1.8,2.228-2.144,0-.14-.125-.14-.167-.14-.125,0-.153.056-.181.153-.458,1.489-1.407,1.825-1.852,1.825-.543,0-.766-.445-.766-.92a5.435,5.435,0,0,1,.236-1.225l.474-1.908" transform="translate(-280 -278.828)"/><polyline points="468.999 52.105 468.999 51.548 467.647 51.548 467.647 38.736 468.999 38.736 468.999 38.179 467.091 38.179 467.091 52.105 468.999 52.105"/><path d="M750.6,326.631c-.042.208-.125.527-.125.6a.373.373,0,0,0,.405.376.569.569,0,0,0,.515-.39c.013-.028.18-.683.265-1.031l.307-1.253c.083-.307.166-.612.237-.934.054-.236.166-.639.179-.7a2.775,2.775,0,0,1,2.272-1.7c.626,0,.751.515.751.975a13.338,13.338,0,0,1-.9,3.244,1.557,1.557,0,0,0-.141.642,1.114,1.114,0,0,0,1.142,1.141c1.31,0,1.824-2.033,1.824-2.144,0-.14-.125-.14-.166-.14-.14,0-.14.041-.208.251-.281.947-.739,1.727-1.422,1.727-.237,0-.335-.141-.335-.46a2.655,2.655,0,0,1,.252-.988,12.525,12.525,0,0,0,.85-3.065,1.424,1.424,0,0,0-1.6-1.49,2.691,2.691,0,0,0-2.173,1.212,1.259,1.259,0,0,0-1.281-1.212,1.218,1.218,0,0,0-1.045.793,7.039,7.039,0,0,0-.418,1.352c0,.14.14.14.168.14.138,0,.154-.015.237-.322.236-.988.515-1.656,1.016-1.656.278,0,.432.18.432.64a4.454,4.454,0,0,1-.224,1.17l-.808,3.218" transform="translate(-280 -278.828)"/><polyline points="480 38.179 478.092 38.179 478.092 38.736 479.444 38.736 479.444 51.548 478.092 51.548 478.092 52.105 480 52.105 480 38.179"/><path d="M1070.917,409.167c0-.944-.26-2.936-1.72-2.936-1.991,0-4.2,4.04-4.2,7.32,0,1.345.415,2.936,1.719,2.936,2.019,0,4.2-4.112,4.2-7.32Zm-4.4,1.962a12.953,12.953,0,0,1,1.1-3.08c.388-.7.917-1.5,1.562-1.5.7,0,.788.917.788,1.733a11.927,11.927,0,0,1-.457,2.85Zm2.863.46a12.635,12.635,0,0,1-1,2.906c-.5.976-1.046,1.676-1.661,1.676-.473,0-.773-.414-.773-1.748a10.956,10.956,0,0,1,.458-2.834h2.978" transform="translate(-280 -278.828)"/><path d="M610.619,436.048c.195,0,.4,0,.4-.229s-.206-.232-.4-.232H604.4c-.195,0-.4,0-.4.232s.206.229.4.229h6.218" transform="translate(-280 -278.828)"/><path d="M617.354,435.014a6.138,6.138,0,0,0-.459-2.689,2.131,2.131,0,0,0-1.954-1.287,2.107,2.107,0,0,0-2,1.366,6.164,6.164,0,0,0-.425,2.61,5.81,5.81,0,0,0,.517,2.769,2.148,2.148,0,0,0,3.895-.173,6.1,6.1,0,0,0,.425-2.6Zm-2.424,3.677c-.448,0-1.126-.288-1.332-1.39a23.861,23.861,0,0,1-.036-4.541c.219-1.366,1.081-1.469,1.368-1.469.38,0,1.137.206,1.356,1.344a14.118,14.118,0,0,1,.115,2.24,14.284,14.284,0,0,1-.126,2.379c-.172,1.091-.828,1.437-1.345,1.437" transform="translate(-280 -278.828)"/><path d="M620.176,438.082a.61.61,0,1,0-.61.609.615.615,0,0,0,.61-.609" transform="translate(-280 -278.828)"/><path d="M624.47,436.8v1c0,.414-.023.541-.873.541h-.242v.356c.472-.035,1.07-.035,1.553-.035s1.091,0,1.561.035v-.356h-.24c-.851,0-.873-.127-.873-.541v-1H626.5v-.356h-1.148v-5.23c0-.229,0-.3-.184-.3-.1,0-.138,0-.23.137l-3.528,5.391v.356Zm.069-.356h-2.8l2.8-4.286v4.286Z" transform="translate(-280 -278.828)"/><path d="M630.037,434.405h1.3a12.626,12.626,0,0,0-.482,2.964,3.616,3.616,0,0,0,.092.873c.115.507.242.575.414.575a.486.486,0,0,0,.471-.437.494.494,0,0,0-.07-.253,4.943,4.943,0,0,1-.333-1.9,9.068,9.068,0,0,1,.206-1.826h1.311c.15,0,.564,0,.564-.392,0-.275-.242-.275-.461-.275H629.2a1.463,1.463,0,0,0-1.2.541,4.117,4.117,0,0,0-.7,1.033c0,.011,0,.114.137.114.092,0,.116-.045.184-.137a1.618,1.618,0,0,1,1.459-.884h.654a24.3,24.3,0,0,1-1.469,3.827c-.092.171-.092.195-.092.274a.312.312,0,0,0,.332.311c.345,0,.438-.322.575-.746.161-.53.161-.552.311-1.126l.643-2.54" transform="translate(-280 -278.828)"/><path d="M724.1,435.086a5.813,5.813,0,0,0-.484-2.678,2.265,2.265,0,0,0-2.059-1.282,2.228,2.228,0,0,0-2.107,1.361,5.83,5.83,0,0,0-.448,2.6,5.516,5.516,0,0,0,.545,2.758,2.32,2.32,0,0,0,4.105-.173,5.766,5.766,0,0,0,.448-2.585Zm-2.555,3.662c-.472,0-1.187-.286-1.4-1.384a22.632,22.632,0,0,1-.038-4.522c.231-1.361,1.139-1.464,1.442-1.464a1.468,1.468,0,0,1,1.429,1.339,20.739,20.739,0,0,1-.012,4.6c-.181,1.087-.872,1.431-1.417,1.431" transform="translate(-280 -278.828)"/><path d="M726.949,438.141a.643.643,0,1,0-.642.607.629.629,0,0,0,.642-.607" transform="translate(-280 -278.828)"/><path d="M731.6,436.86v1c0,.412-.024.538-.92.538h-.255v.355c.5-.034,1.128-.034,1.636-.034s1.151,0,1.646.034v-.355h-.253c-.9,0-.92-.126-.92-.538v-1h1.209v-.355h-1.209V431.3c0-.229,0-.3-.195-.3-.108,0-.144,0-.242.137l-3.718,5.368v.355Zm.073-.355h-2.955l2.955-4.268v4.268Z" transform="translate(-280 -278.828)"/><path d="M737.343,434.48h1.367a11.908,11.908,0,0,0-.508,2.952,3.416,3.416,0,0,0,.1.87c.122.5.255.572.436.572a.5.5,0,0,0,.5-.436.473.473,0,0,0-.074-.252,4.674,4.674,0,0,1-.351-1.888,8.467,8.467,0,0,1,.218-1.818h1.381c.158,0,.594,0,.594-.391,0-.274-.255-.274-.486-.274h-4.055a1.586,1.586,0,0,0-1.261.539,4.088,4.088,0,0,0-.738,1.029c0,.011,0,.114.145.114.1,0,.122-.045.195-.137a1.731,1.731,0,0,1,1.537-.88h.689a23.356,23.356,0,0,1-1.548,3.811c-.1.171-.1.194-.1.273a.324.324,0,0,0,.351.31c.364,0,.461-.32.606-.743.169-.528.169-.55.327-1.122l.679-2.529" transform="translate(-280 -278.828)"/><line class="cls-1" x1="245.5" y1="147.672" x2="245.5" y2="143.672"/><line class="cls-3" x1="245.5" y1="135.79" x2="245.5" y2="13.613"/><line class="cls-1" x1="245.5" y1="9.672" x2="245.5" y2="5.672"/><line class="cls-1" x1="546.5" y1="148.172" x2="546.5" y2="144.172"/><line class="cls-3" x1="546.5" y1="136.29" x2="546.5" y2="14.113"/><line class="cls-1" x1="546.5" y1="10.172" x2="546.5" y2="6.172"/><line class="cls-1" x1="696.5" y1="148.172" x2="696.5" y2="144.172"/><line class="cls-3" x1="696.5" y1="136.29" x2="696.5" y2="14.113"/><line class="cls-1" x1="696.5" y1="10.172" x2="696.5" y2="6.172"/><line class="cls-1" x1="94.5" y1="147.172" x2="94.5" y2="143.172"/><line class="cls-3" x1="94.5" y1="135.29" x2="94.5" y2="13.113"/><line class="cls-1" x1="94.5" y1="9.172" x2="94.5" y2="5.172"/><path d="M371.242,436.014c.195,0,.4,0,.4-.23s-.206-.232-.4-.232H365.02c-.2,0-.4,0-.4.232s.206.23.4.23h6.222" transform="translate(-280 -278.828)"/><path d="M374.152,437.772l1.219-1.183c1.794-1.588,2.485-2.209,2.485-3.359a2.259,2.259,0,0,0-2.438-2.23,2.124,2.124,0,0,0-2.151,2.082.6.6,0,1,0,1.207.034.582.582,0,0,0-.61-.6.451.451,0,0,0-.148.011,1.656,1.656,0,0,1,1.552-1.172c1.047,0,1.541.932,1.541,1.874a4.113,4.113,0,0,1-1.209,2.541l-2.206,2.462c-.127.126-.127.148-.127.425h4.267l.322-2h-.288a3.84,3.84,0,0,1-.253,1.024,3.785,3.785,0,0,1-1.092.091h-2.071" transform="translate(-280 -278.828)"/><path d="M381.527,434.37h1.3a12.6,12.6,0,0,0-.483,2.966,3.616,3.616,0,0,0,.092.873c.116.507.243.575.415.575a.448.448,0,0,0,.4-.69,4.952,4.952,0,0,1-.333-1.9,9.068,9.068,0,0,1,.206-1.826h1.312c.15,0,.564,0,.564-.393,0-.275-.242-.275-.461-.275h-3.851a1.463,1.463,0,0,0-1.2.541,4.1,4.1,0,0,0-.7,1.034c0,.011,0,.114.137.114.093,0,.116-.045.185-.137a1.619,1.619,0,0,1,1.459-.884h.655a24.218,24.218,0,0,1-1.47,3.828c-.093.172-.093.2-.093.275a.313.313,0,0,0,.333.311c.346,0,.438-.321.575-.747.161-.529.161-.551.312-1.126l.643-2.541" transform="translate(-280 -278.828)"/><path d="M420.79,436.139c.2,0,.411,0,.411-.235s-.211-.237-.411-.237h-6.378c-.2,0-.412,0-.412.237s.211.235.412.235h6.378" transform="translate(-280 -278.828)"/><path d="M425.742,431.306c0-.282,0-.306-.271-.306a2.911,2.911,0,0,1-2.145.755v.365a3.536,3.536,0,0,0,1.544-.306v6.1c0,.425-.035.566-1.1.566H423.4v.365c.412-.035,1.439-.035,1.91-.035s1.5,0,1.91.035v-.365h-.378c-1.061,0-1.1-.13-1.1-.566v-6.613" transform="translate(-280 -278.828)"/><path d="M430.592,438.225a.625.625,0,1,0-.625.625.63.63,0,0,0,.625-.625" transform="translate(-280 -278.828)"/><path d="M433.088,434.984V434.7c0-2.982,1.463-3.406,2.063-3.406a1.216,1.216,0,0,1,1.037.471c-.176,0-.647,0-.647.53a.541.541,0,1,0,1.082-.024c0-.707-.517-1.272-1.5-1.272-1.509,0-3.1,1.52-3.1,4.125,0,3.147,1.367,3.985,2.464,3.985a2.523,2.523,0,0,0,2.427-2.665,2.471,2.471,0,0,0-2.356-2.629,1.631,1.631,0,0,0-1.474,1.168Zm1.4,3.8a1.359,1.359,0,0,1-1.168-.885,5.781,5.781,0,0,1-.211-1.709c0-.92.376-2.1,1.439-2.1a1.137,1.137,0,0,1,1.1.73,6.284,6.284,0,0,1,.011,3.195,1.234,1.234,0,0,1-1.166.766" transform="translate(-280 -278.828)"/><path d="M440.708,434.454h1.331a12.954,12.954,0,0,0-.5,3.041,3.683,3.683,0,0,0,.1.895c.118.519.248.59.424.59a.5.5,0,0,0,.484-.449.506.506,0,0,0-.072-.259,5.079,5.079,0,0,1-.341-1.945,9.245,9.245,0,0,1,.211-1.873h1.344c.154,0,.579,0,.579-.4,0-.282-.249-.282-.473-.282h-3.947a1.5,1.5,0,0,0-1.228.554,4.228,4.228,0,0,0-.717,1.061c0,.011,0,.117.141.117.094,0,.118-.047.189-.141a1.659,1.659,0,0,1,1.5-.907h.671a24.777,24.777,0,0,1-1.507,3.925c-.095.176-.095.2-.095.282a.321.321,0,0,0,.341.319c.355,0,.449-.33.59-.766.165-.543.165-.565.319-1.155l.66-2.605" transform="translate(-280 -278.828)"/><path d="M310.505,436.049c.192,0,.395,0,.395-.226s-.2-.227-.395-.227h-6.111c-.191,0-.394,0-.394.227s.2.226.394.226h6.111" transform="translate(-280 -278.828)"/><path d="M313.363,437.775l1.2-1.162c1.762-1.559,2.441-2.169,2.441-3.3a2.219,2.219,0,0,0-2.395-2.191,2.087,2.087,0,0,0-2.112,2.045.593.593,0,1,0,1.185.034.571.571,0,0,0-.6-.588.483.483,0,0,0-.146.01,1.629,1.629,0,0,1,1.525-1.151c1.028,0,1.513.915,1.513,1.841a4.041,4.041,0,0,1-1.187,2.5l-2.167,2.417c-.124.125-.124.146-.124.418h4.19l.317-1.965h-.283a3.816,3.816,0,0,1-.248,1,3.747,3.747,0,0,1-1.074.089h-2.034" transform="translate(-280 -278.828)"/><path d="M319.9,438.047a.6.6,0,1,0-.6.6.6.6,0,0,0,.6-.6" transform="translate(-280 -278.828)"/><path d="M324.118,436.782v.983c0,.406-.023.531-.858.531h-.238v.35c.464-.034,1.052-.034,1.526-.034s1.073,0,1.535.034v-.35h-.237c-.836,0-.858-.125-.858-.531v-.983h1.128v-.35h-1.128v-5.139c0-.226,0-.293-.181-.293-.1,0-.135,0-.225.135l-3.468,5.3v.35Zm.067-.35H321.43l2.755-4.212v4.212Z" transform="translate(-280 -278.828)"/><path d="M329.589,434.434h1.276a12.4,12.4,0,0,0-.475,2.913,3.535,3.535,0,0,0,.091.858c.114.5.238.565.407.565a.477.477,0,0,0,.463-.43.489.489,0,0,0-.069-.249,4.856,4.856,0,0,1-.327-1.863,8.824,8.824,0,0,1,.2-1.794h1.288c.147,0,.554,0,.554-.386,0-.27-.238-.27-.453-.27h-3.782a1.438,1.438,0,0,0-1.176.531,4.04,4.04,0,0,0-.687,1.017c0,.01,0,.111.135.111.09,0,.113-.044.181-.135a1.59,1.59,0,0,1,1.433-.868h.643a23.74,23.74,0,0,1-1.444,3.76c-.09.169-.09.192-.09.271a.307.307,0,0,0,.326.305c.34,0,.43-.316.565-.734.158-.52.158-.541.306-1.106l.632-2.5" transform="translate(-280 -278.828)"/><path d="M914.742,431.306c0-.282,0-.306-.271-.306a2.911,2.911,0,0,1-2.145.755v.365a3.536,3.536,0,0,0,1.544-.306v6.1c0,.425-.035.566-1.1.566H912.4v.365c.412-.035,1.439-.035,1.91-.035s1.5,0,1.91.035v-.365h-.378c-1.061,0-1.1-.13-1.1-.566v-6.613" transform="translate(-280 -278.828)"/><path d="M919.592,438.225a.625.625,0,1,0-.625.625.63.63,0,0,0,.625-.625" transform="translate(-280 -278.828)"/><path d="M922.088,434.984V434.7c0-2.982,1.463-3.406,2.063-3.406a1.216,1.216,0,0,1,1.037.471c-.176,0-.647,0-.647.53a.541.541,0,1,0,1.082-.024c0-.707-.517-1.272-1.5-1.272-1.509,0-3.1,1.52-3.1,4.125,0,3.147,1.367,3.985,2.464,3.985a2.523,2.523,0,0,0,2.427-2.665,2.471,2.471,0,0,0-2.356-2.629,1.631,1.631,0,0,0-1.474,1.168Zm1.4,3.8a1.359,1.359,0,0,1-1.168-.885,5.781,5.781,0,0,1-.211-1.709c0-.92.376-2.1,1.439-2.1a1.137,1.137,0,0,1,1.095.73,6.284,6.284,0,0,1,.011,3.195,1.234,1.234,0,0,1-1.166.766" transform="translate(-280 -278.828)"/><path d="M929.708,434.454h1.331a12.954,12.954,0,0,0-.5,3.041,3.683,3.683,0,0,0,.1.895c.118.519.248.59.424.59a.5.5,0,0,0,.484-.449.506.506,0,0,0-.072-.259,5.079,5.079,0,0,1-.341-1.945,9.245,9.245,0,0,1,.211-1.873h1.344c.154,0,.579,0,.579-.4,0-.282-.249-.282-.473-.282h-3.947a1.5,1.5,0,0,0-1.228.554,4.228,4.228,0,0,0-.717,1.061c0,.011,0,.117.141.117.094,0,.118-.047.189-.141a1.659,1.659,0,0,1,1.5-.907h.671a24.777,24.777,0,0,1-1.507,3.925c-.1.176-.1.2-.1.282a.321.321,0,0,0,.341.319c.355,0,.449-.33.59-.766.165-.543.165-.565.319-1.155l.66-2.605" transform="translate(-280 -278.828)"/><path d="M973.152,437.772l1.219-1.183c1.794-1.588,2.485-2.209,2.485-3.359a2.259,2.259,0,0,0-2.438-2.23,2.124,2.124,0,0,0-2.151,2.082.6.6,0,1,0,1.207.034.582.582,0,0,0-.61-.6.451.451,0,0,0-.148.011,1.656,1.656,0,0,1,1.552-1.172c1.047,0,1.541.932,1.541,1.874a4.113,4.113,0,0,1-1.209,2.541l-2.206,2.462c-.127.126-.127.148-.127.425h4.267l.322-2h-.288a3.84,3.84,0,0,1-.253,1.024,3.785,3.785,0,0,1-1.092.091h-2.071" transform="translate(-280 -278.828)"/><path d="M980.527,434.37h1.3a12.6,12.6,0,0,0-.483,2.966,3.616,3.616,0,0,0,.092.873c.116.507.243.575.415.575a.448.448,0,0,0,.4-.69,4.952,4.952,0,0,1-.333-1.9,9.068,9.068,0,0,1,.206-1.826h1.312c.15,0,.564,0,.564-.393,0-.275-.242-.275-.461-.275h-3.851a1.463,1.463,0,0,0-1.2.541,4.1,4.1,0,0,0-.7,1.034c0,.011,0,.114.137.114.093,0,.116-.045.185-.137a1.619,1.619,0,0,1,1.459-.884h.655a24.218,24.218,0,0,1-1.47,3.828c-.093.172-.093.2-.093.275a.313.313,0,0,0,.333.311c.346,0,.438-.321.575-.747.161-.529.161-.551.312-1.126l.643-2.541" transform="translate(-280 -278.828)"/><path d="M1024.363,437.775l1.2-1.162c1.762-1.559,2.441-2.169,2.441-3.3a2.219,2.219,0,0,0-2.395-2.191,2.087,2.087,0,0,0-2.112,2.045.593.593,0,1,0,1.185.034.571.571,0,0,0-.6-.588.483.483,0,0,0-.146.01,1.629,1.629,0,0,1,1.525-1.151c1.028,0,1.513.915,1.513,1.841a4.041,4.041,0,0,1-1.187,2.5l-2.167,2.417c-.124.125-.124.146-.124.418h4.19l.317-1.965h-.283a3.816,3.816,0,0,1-.248,1,3.747,3.747,0,0,1-1.074.089h-2.034" transform="translate(-280 -278.828)"/><path d="M1030.9,438.047a.6.6,0,1,0-.6.6.6.6,0,0,0,.6-.6" transform="translate(-280 -278.828)"/><path d="M1035.118,436.782v.983c0,.406-.023.531-.858.531h-.238v.35c.464-.034,1.052-.034,1.526-.034s1.073,0,1.535.034v-.35h-.237c-.836,0-.858-.125-.858-.531v-.983h1.128v-.35h-1.128v-5.139c0-.226,0-.293-.181-.293-.1,0-.135,0-.225.135l-3.468,5.3v.35Zm.067-.35h-2.755l2.755-4.212v4.212Z" transform="translate(-280 -278.828)"/><path d="M1040.589,434.434h1.276a12.4,12.4,0,0,0-.475,2.913,3.535,3.535,0,0,0,.091.858c.114.5.238.565.407.565a.477.477,0,0,0,.463-.43.489.489,0,0,0-.069-.249,4.856,4.856,0,0,1-.327-1.863,8.824,8.824,0,0,1,.2-1.794h1.288c.147,0,.554,0,.554-.386,0-.27-.238-.27-.453-.27h-3.782a1.438,1.438,0,0,0-1.176.531,4.04,4.04,0,0,0-.687,1.017c0,.01,0,.111.135.111.09,0,.113-.044.181-.135a1.59,1.59,0,0,1,1.433-.868h.643a23.74,23.74,0,0,1-1.444,3.76c-.09.169-.09.192-.09.271a.307.307,0,0,0,.326.305c.34,0,.43-.316.565-.734.158-.52.158-.541.306-1.106l.632-2.5" transform="translate(-280 -278.828)"/><path d="M826.527,434.37h1.3a12.6,12.6,0,0,0-.483,2.966,3.616,3.616,0,0,0,.092.873c.116.507.243.575.415.575a.448.448,0,0,0,.4-.69,4.952,4.952,0,0,1-.333-1.9,9.068,9.068,0,0,1,.206-1.826h1.312c.15,0,.564,0,.564-.393,0-.275-.242-.275-.461-.275h-3.851a1.463,1.463,0,0,0-1.2.541,4.1,4.1,0,0,0-.7,1.034c0,.011,0,.114.137.114.093,0,.116-.045.185-.137a1.619,1.619,0,0,1,1.459-.884h.655a24.218,24.218,0,0,1-1.47,3.828c-.093.172-.093.2-.093.275a.313.313,0,0,0,.333.311c.346,0,.438-.321.575-.747.161-.529.161-.551.312-1.126l.643-2.541" transform="translate(-280 -278.828)"/><path d="M524.715,435.163c.228,0,.468,0,.468-.268s-.24-.269-.468-.269h-7.247c-.228,0-.468,0-.468.269s.24.268.468.268h7.247" transform="translate(-280 -278.828)"/><path d="M529.955,433.248h1.513a14.672,14.672,0,0,0-.563,3.455,4.192,4.192,0,0,0,.108,1.018c.134.59.282.67.482.67a.567.567,0,0,0,.55-.51.574.574,0,0,0-.082-.295,5.762,5.762,0,0,1-.388-2.21,10.53,10.53,0,0,1,.24-2.128h1.528c.175,0,.657,0,.657-.457,0-.321-.282-.321-.537-.321h-4.486a1.7,1.7,0,0,0-1.394.63,4.8,4.8,0,0,0-.816,1.2c0,.013,0,.133.16.133.108,0,.135-.052.215-.16a1.887,1.887,0,0,1,1.7-1.03h.763a28.216,28.216,0,0,1-1.713,4.46c-.107.2-.107.228-.107.32a.365.365,0,0,0,.388.363c.4,0,.509-.375.669-.87.188-.618.188-.643.363-1.313l.75-2.96" transform="translate(-280 -278.828)"/><line class="cls-1" x1="253.676" y1="13.672" x2="539.324" y2="13.672"/><polygon points="255.135 18.658 246.5 13.672 255.135 8.686 255.135 18.658"/><polygon points="537.865 18.658 546.5 13.672 537.865 8.686 537.865 18.658"/><text class="cls-2" transform="translate(342.871 9.973)">Fundamental Interval</text><polyline class="cls-1" points="350 182.172 338.5 182.172 338.5 166.672"/><polyline class="cls-1" points="449.5 166.672 449.5 181.672 438 181.672"/><polyline class="cls-1" points="350.405 201.172 152.5 201.172 152.5 166.672"/><polyline class="cls-1" points="641 166.672 641 201.172 438 201.172"/><polyline class="cls-1" points="350.405 221.172 39.5 221.172 39.5 166.672"/><path class="cls-1" d="M630.405,500" transform="translate(-280 -278.828)"/><polyline class="cls-1" points="752 166.672 752 221.172 438 221.172"/><path d="M748.321,356.785a7.174,7.174,0,0,0,2.456-.369,1.822,1.822,0,0,0,1.2-1.653c0-.7-.608-1.363-1.716-1.363a4.37,4.37,0,0,0-4.206,4.364c0,1.638.95,2.906,2.522,2.906a4.284,4.284,0,0,0,3.642-1.894.223.223,0,0,0-.194-.209c-.078,0-.111.033-.207.162a4.189,4.189,0,0,1-3.211,1.587c-1.252,0-1.395-1.348-1.395-1.86a7.061,7.061,0,0,1,.257-1.671Zm-.755-.351c.626-2.441,2.279-2.681,2.7-2.681a1.06,1.06,0,0,1,1.189,1.01c0,1.671-2.57,1.671-3.226,1.671h-.659" transform="translate(-280 -278.828)"/><path d="M757.9,346.61a.435.435,0,0,0-.454-.432.674.674,0,0,0-.636.624.435.435,0,0,0,.454.432.673.673,0,0,0,.636-.624Zm-2.408,7.653a1.737,1.737,0,0,1-1.464,1.444,1.19,1.19,0,0,1-.409-.068.648.648,0,0,0,.386-.581.417.417,0,0,0-.444-.419.666.666,0,0,0-.646.669c0,.432.442.717,1.123.717a2.458,2.458,0,0,0,2.363-1.795l1.022-4.066a1.268,1.268,0,0,0,.058-.4,1.12,1.12,0,0,0-1.216-1.068c-1.26,0-1.987,1.578-1.987,1.737s.159.149.192.149c.136,0,.149-.036.227-.205.285-.659.876-1.363,1.535-1.363.283,0,.386.192.386.555a1.986,1.986,0,0,1-.035.341l-1.091,4.349" transform="translate(-280 -278.828)"/><path d="M766.573,346.615a.491.491,0,0,0,.341-.081.449.449,0,0,0,.131-.277c0-.26-.245-.26-.384-.26h-3.5a1.449,1.449,0,0,0-1.025.406,2.622,2.622,0,0,0-.588.709c0,.114.114.114.164.114.114,0,.114-.008.18-.081a1.4,1.4,0,0,1,1.163-.53h.581a11.825,11.825,0,0,1-1,2.38c-.124.212-.124.228-.124.308a.292.292,0,0,0,.311.3c.343,0,.457-.376.644-1.035.186-.636.333-1.224.522-1.949h1.065a7.907,7.907,0,0,0-.26,1.653c0,.563.205,1.331.563,1.331a.449.449,0,0,0,.424-.4.4.4,0,0,0-.091-.227,2.944,2.944,0,0,1-.373-1.474,5.48,5.48,0,0,1,.088-.881h1.159" transform="translate(-280 -278.828)"/><path d="M766.661,356.257V355.9h-1.017v-3.584c0-.2-.008-.245-.22-.245-.164,0-.171.007-.26.121l-3.016,3.708v.358h2.713v.636c0,.253,0,.334-.709.334h-.285v.358c.384-.015.914-.033,1.386-.033s.994.018,1.385.033v-.358h-.285c-.709,0-.709-.081-.709-.334v-.636Zm-1.734-3.309V355.9h-2.395l2.395-2.951Z" transform="translate(-280 -278.828)"/><rect x="481.124" y="71.817" width="7.248" height="0.606"/><rect x="681.327" y="70.507" width="7.248" height="0.606"/><path d="M1050.469,356.4a7.174,7.174,0,0,0,2.456-.369,1.822,1.822,0,0,0,1.2-1.653c0-.7-.608-1.363-1.716-1.363a4.37,4.37,0,0,0-4.205,4.364c0,1.639.949,2.906,2.521,2.906a4.289,4.289,0,0,0,3.643-1.893.224.224,0,0,0-.195-.21c-.078,0-.111.033-.207.162a4.188,4.188,0,0,1-3.21,1.587c-1.252,0-1.4-1.348-1.4-1.86a7.061,7.061,0,0,1,.257-1.671Zm-.755-.351c.626-2.441,2.279-2.681,2.7-2.681a1.06,1.06,0,0,1,1.189,1.01c0,1.671-2.57,1.671-3.226,1.671h-.659" transform="translate(-280 -278.828)"/><path d="M1060.045,346.225a.435.435,0,0,0-.454-.431.674.674,0,0,0-.636.623.435.435,0,0,0,.454.432.673.673,0,0,0,.636-.624Zm-2.408,7.653a1.736,1.736,0,0,1-1.464,1.444,1.19,1.19,0,0,1-.409-.068.649.649,0,0,0,.387-.581.418.418,0,0,0-.445-.419.666.666,0,0,0-.646.669c0,.432.442.717,1.124.717a2.457,2.457,0,0,0,2.362-1.794l1.022-4.067a1.268,1.268,0,0,0,.058-.4,1.12,1.12,0,0,0-1.216-1.068c-1.26,0-1.987,1.578-1.987,1.737s.159.149.192.149c.136,0,.149-.036.227-.205.286-.659.876-1.363,1.535-1.363.283,0,.386.192.386.555a1.986,1.986,0,0,1-.035.341l-1.091,4.349" transform="translate(-280 -278.828)"/><path d="M1068.721,346.23a.491.491,0,0,0,.341-.081.449.449,0,0,0,.131-.277c0-.26-.245-.26-.384-.26h-3.5a1.446,1.446,0,0,0-1.024.406,2.611,2.611,0,0,0-.589.709c0,.114.114.114.165.114.113,0,.113-.008.179-.081a1.4,1.4,0,0,1,1.163-.53h.581a11.684,11.684,0,0,1-1,2.38c-.123.212-.123.228-.123.308a.291.291,0,0,0,.31.3c.343,0,.457-.376.644-1.035.187-.636.333-1.224.522-1.949h1.066a7.821,7.821,0,0,0-.261,1.654c0,.562.2,1.33.563,1.33a.45.45,0,0,0,.425-.4.406.406,0,0,0-.091-.227,2.935,2.935,0,0,1-.374-1.474,5.48,5.48,0,0,1,.088-.881h1.159" transform="translate(-280 -278.828)"/><path d="M1068.809,355.872v-.358h-1.017V351.93c0-.2-.007-.245-.22-.245-.163,0-.171.007-.259.121l-3.017,3.708v.358h2.714v.637c0,.252,0,.333-.71.333h-.285v.358c.384-.015.914-.033,1.386-.033s.994.018,1.386.033v-.358h-.286c-.709,0-.709-.081-.709-.333v-.637Zm-1.734-3.309v2.951h-2.395l2.395-2.951Z" transform="translate(-280 -278.828)"/><rect x="783.451" y="71.433" width="7.248" height="0.606"/><path d="M451.321,356.785a7.174,7.174,0,0,0,2.456-.369,1.822,1.822,0,0,0,1.2-1.653c0-.7-.608-1.363-1.716-1.363a4.37,4.37,0,0,0-4.206,4.364c0,1.638.95,2.906,2.522,2.906a4.284,4.284,0,0,0,3.642-1.894.223.223,0,0,0-.194-.209c-.078,0-.111.033-.207.162a4.189,4.189,0,0,1-3.211,1.587c-1.252,0-1.395-1.348-1.395-1.86a7.061,7.061,0,0,1,.257-1.671Zm-.755-.351c.626-2.441,2.279-2.681,2.7-2.681a1.06,1.06,0,0,1,1.189,1.01c0,1.671-2.57,1.671-3.226,1.671h-.659" transform="translate(-280 -278.828)"/><path d="M460.9,346.61a.435.435,0,0,0-.454-.432.674.674,0,0,0-.636.624.435.435,0,0,0,.454.432.673.673,0,0,0,.636-.624Zm-2.408,7.653a1.737,1.737,0,0,1-1.464,1.444,1.19,1.19,0,0,1-.409-.068.648.648,0,0,0,.386-.581.417.417,0,0,0-.444-.419.666.666,0,0,0-.646.669c0,.432.442.717,1.123.717a2.458,2.458,0,0,0,2.363-1.795l1.022-4.066a1.268,1.268,0,0,0,.058-.4,1.12,1.12,0,0,0-1.216-1.068c-1.26,0-1.987,1.578-1.987,1.737s.159.149.192.149c.136,0,.149-.036.227-.205.285-.659.876-1.363,1.535-1.363.283,0,.386.192.386.555a1.986,1.986,0,0,1-.035.341l-1.091,4.349" transform="translate(-280 -278.828)"/><path d="M469.573,346.615a.491.491,0,0,0,.341-.081.449.449,0,0,0,.131-.277c0-.26-.245-.26-.384-.26h-3.5a1.449,1.449,0,0,0-1.025.406,2.622,2.622,0,0,0-.588.709c0,.114.114.114.164.114.114,0,.114-.008.18-.081a1.4,1.4,0,0,1,1.163-.53h.581a11.825,11.825,0,0,1-1,2.38c-.124.212-.124.228-.124.308a.292.292,0,0,0,.311.3c.343,0,.457-.376.644-1.035.186-.636.333-1.224.522-1.949h1.065a7.907,7.907,0,0,0-.26,1.653c0,.563.2,1.331.563,1.331a.449.449,0,0,0,.424-.4.4.4,0,0,0-.091-.227,2.944,2.944,0,0,1-.373-1.474,5.48,5.48,0,0,1,.088-.881h1.159" transform="translate(-280 -278.828)"/><path d="M469.661,356.257V355.9h-1.017v-3.584c0-.2-.008-.245-.22-.245-.164,0-.171.007-.26.121l-3.016,3.708v.358h2.713v.636c0,.253,0,.334-.709.334h-.285v.358c.384-.015.914-.033,1.386-.033s.994.018,1.385.033v-.358h-.285c-.709,0-.709-.081-.709-.334v-.636Zm-1.734-3.309V355.9h-2.4l2.4-2.951Z" transform="translate(-280 -278.828)"/><rect x="183.781" y="71.717" width="7.248" height="0.606"/><path d="M636.361,355.813a7.493,7.493,0,0,0,2.561-.385,1.9,1.9,0,0,0,1.252-1.724c0-.734-.634-1.421-1.789-1.421A4.557,4.557,0,0,0,634,356.834c0,1.708.99,3.029,2.629,3.029a4.469,4.469,0,0,0,3.8-1.974.233.233,0,0,0-.2-.218c-.081,0-.115.034-.215.168a4.37,4.37,0,0,1-3.348,1.655c-1.306,0-1.456-1.405-1.456-1.939a7.4,7.4,0,0,1,.269-1.742Zm-.787-.366c.653-2.545,2.376-2.8,2.811-2.8a1.1,1.1,0,0,1,1.239,1.052c0,1.743-2.679,1.743-3.363,1.743h-.687" transform="translate(-280 -278.828)"/><path d="M649.957,349.928c.189,0,.474,0,.474-.285s-.271-.294-.474-.294H642.9c-.19,0-.474,0-.474.284s.271.3.474.3h7.056" transform="translate(-280 -278.828)"/><path d="M656.789,345.2a.454.454,0,0,0-.474-.45.7.7,0,0,0-.663.65.454.454,0,0,0,.474.45.7.7,0,0,0,.663-.65Zm-2.511,7.979a1.811,1.811,0,0,1-1.526,1.506,1.246,1.246,0,0,1-.427-.071.676.676,0,0,0,.4-.606.435.435,0,0,0-.463-.437.7.7,0,0,0-.674.7c0,.45.461.747,1.171.747a2.562,2.562,0,0,0,2.464-1.871l1.066-4.24a1.339,1.339,0,0,0,.06-.413,1.168,1.168,0,0,0-1.268-1.113c-1.313,0-2.071,1.645-2.071,1.81s.165.156.2.156c.143,0,.156-.037.237-.213.3-.687.914-1.422,1.6-1.422.3,0,.4.2.4.579a2.031,2.031,0,0,1-.037.356l-1.137,4.534" transform="translate(-280 -278.828)"/><path d="M665.666,345.209a.514.514,0,0,0,.356-.084.469.469,0,0,0,.136-.29c0-.271-.255-.271-.4-.271h-3.645a1.507,1.507,0,0,0-1.068.424,2.717,2.717,0,0,0-.613.739c0,.119.118.119.171.119.118,0,.118-.008.187-.084a1.462,1.462,0,0,1,1.213-.553h.6a12.267,12.267,0,0,1-1.037,2.482c-.129.221-.129.237-.129.321a.3.3,0,0,0,.324.308c.358,0,.476-.392.671-1.079.195-.664.347-1.277.545-2.032h1.111a8.112,8.112,0,0,0-.272,1.724c0,.587.214,1.387.587,1.387a.469.469,0,0,0,.443-.419.427.427,0,0,0-.1-.237,3.061,3.061,0,0,1-.39-1.537,5.712,5.712,0,0,1,.092-.918h1.208" transform="translate(-280 -278.828)"/><path d="M665.758,355.262v-.373H664.7v-3.737c0-.206-.008-.256-.229-.256-.171,0-.179.008-.271.127l-3.145,3.866v.373h2.829v.664c0,.263,0,.347-.74.347h-.3v.374c.4-.016.953-.034,1.445-.034s1.037.018,1.445.034v-.374h-.3c-.739,0-.739-.084-.739-.347v-.664Zm-1.808-3.45v3.077h-2.5l2.5-3.077Z" transform="translate(-280 -278.828)"/><path d="M337.361,355.813a7.493,7.493,0,0,0,2.561-.385,1.9,1.9,0,0,0,1.252-1.724c0-.734-.634-1.421-1.789-1.421A4.557,4.557,0,0,0,335,356.834c0,1.708.99,3.029,2.629,3.029a4.469,4.469,0,0,0,3.8-1.974.233.233,0,0,0-.2-.218c-.081,0-.115.034-.215.168a4.37,4.37,0,0,1-3.348,1.655c-1.306,0-1.456-1.405-1.456-1.939a7.4,7.4,0,0,1,.269-1.742Zm-.787-.366c.653-2.545,2.376-2.8,2.811-2.8a1.1,1.1,0,0,1,1.239,1.052c0,1.743-2.679,1.743-3.363,1.743h-.687" transform="translate(-280 -278.828)"/><path d="M350.957,349.928c.189,0,.474,0,.474-.285s-.271-.294-.474-.294H343.9c-.19,0-.474,0-.474.284s.271.3.474.3h7.056" transform="translate(-280 -278.828)"/><path d="M357.789,345.2a.454.454,0,0,0-.474-.45.7.7,0,0,0-.663.65.454.454,0,0,0,.474.45.7.7,0,0,0,.663-.65Zm-2.511,7.979a1.811,1.811,0,0,1-1.526,1.506,1.246,1.246,0,0,1-.427-.071.676.676,0,0,0,.4-.606.435.435,0,0,0-.463-.437.7.7,0,0,0-.674.7c0,.45.461.747,1.171.747a2.562,2.562,0,0,0,2.464-1.871l1.066-4.24a1.339,1.339,0,0,0,.06-.413,1.168,1.168,0,0,0-1.268-1.113c-1.313,0-2.071,1.645-2.071,1.81s.165.156.2.156c.143,0,.156-.037.237-.213.3-.687.914-1.422,1.6-1.422.3,0,.4.2.4.579a2.031,2.031,0,0,1-.037.356l-1.137,4.534" transform="translate(-280 -278.828)"/><path d="M366.666,345.209a.514.514,0,0,0,.356-.084.469.469,0,0,0,.136-.29c0-.271-.255-.271-.4-.271h-3.645a1.507,1.507,0,0,0-1.068.424,2.717,2.717,0,0,0-.613.739c0,.119.118.119.171.119.118,0,.118-.008.187-.084a1.462,1.462,0,0,1,1.213-.553h.605a12.267,12.267,0,0,1-1.037,2.482c-.129.221-.129.237-.129.321a.3.3,0,0,0,.324.308c.358,0,.476-.392.671-1.079.195-.664.347-1.277.545-2.032h1.111a8.112,8.112,0,0,0-.272,1.724c0,.587.214,1.387.587,1.387a.469.469,0,0,0,.443-.419.427.427,0,0,0-.1-.237,3.061,3.061,0,0,1-.39-1.537,5.712,5.712,0,0,1,.092-.918h1.208" transform="translate(-280 -278.828)"/><path d="M366.758,355.262v-.373H365.7v-3.737c0-.206-.008-.256-.229-.256-.171,0-.179.008-.271.127l-3.145,3.866v.373h2.829v.664c0,.263,0,.347-.74.347h-.3v.374c.4-.016.953-.034,1.445-.034s1.037.018,1.445.034v-.374h-.3c-.739,0-.739-.084-.739-.347v-.664Zm-1.808-3.45v3.077h-2.5l2.5-3.077Z" transform="translate(-280 -278.828)"/><rect x="80.752" y="70.596" width="7.248" height="0.606"/><path d="M938.361,355.813a7.493,7.493,0,0,0,2.561-.385,1.9,1.9,0,0,0,1.252-1.724c0-.734-.634-1.421-1.789-1.421A4.557,4.557,0,0,0,936,356.834c0,1.708.99,3.029,2.629,3.029a4.469,4.469,0,0,0,3.8-1.974.233.233,0,0,0-.2-.218c-.081,0-.115.034-.215.168a4.37,4.37,0,0,1-3.348,1.655c-1.306,0-1.456-1.405-1.456-1.939a7.4,7.4,0,0,1,.269-1.742Zm-.787-.366c.653-2.545,2.376-2.8,2.811-2.8a1.1,1.1,0,0,1,1.239,1.052c0,1.743-2.679,1.743-3.363,1.743h-.687" transform="translate(-280 -278.828)"/><path d="M951.957,349.928c.189,0,.474,0,.474-.285s-.271-.294-.474-.294H944.9c-.19,0-.474,0-.474.284s.271.3.474.3h7.056" transform="translate(-280 -278.828)"/><path d="M958.789,345.2a.454.454,0,0,0-.474-.45.7.7,0,0,0-.663.65.454.454,0,0,0,.474.45.7.7,0,0,0,.663-.65Zm-2.511,7.979a1.811,1.811,0,0,1-1.526,1.506,1.246,1.246,0,0,1-.427-.071.676.676,0,0,0,.4-.606.435.435,0,0,0-.463-.437.7.7,0,0,0-.674.7c0,.45.461.747,1.171.747a2.562,2.562,0,0,0,2.464-1.871l1.066-4.24a1.339,1.339,0,0,0,.06-.413,1.168,1.168,0,0,0-1.268-1.113c-1.313,0-2.071,1.645-2.071,1.81s.165.156.2.156c.143,0,.156-.037.237-.213.3-.687.914-1.422,1.6-1.422.3,0,.4.2.4.579a2.031,2.031,0,0,1-.037.356l-1.137,4.534" transform="translate(-280 -278.828)"/><path d="M967.666,345.209a.514.514,0,0,0,.356-.084.469.469,0,0,0,.136-.29c0-.271-.255-.271-.4-.271h-3.645a1.507,1.507,0,0,0-1.068.424,2.717,2.717,0,0,0-.613.739c0,.119.118.119.171.119.118,0,.118-.008.187-.084a1.462,1.462,0,0,1,1.213-.553h.6a12.267,12.267,0,0,1-1.037,2.482c-.129.221-.129.237-.129.321a.3.3,0,0,0,.324.308c.358,0,.476-.392.671-1.079.195-.664.347-1.277.545-2.032h1.111a8.112,8.112,0,0,0-.272,1.724c0,.587.214,1.387.587,1.387a.469.469,0,0,0,.443-.419.427.427,0,0,0-.1-.237,3.061,3.061,0,0,1-.39-1.537,5.712,5.712,0,0,1,.092-.918h1.208" transform="translate(-280 -278.828)"/><path d="M967.758,355.262v-.373H966.7v-3.737c0-.206-.008-.256-.229-.256-.171,0-.179.008-.271.127l-3.145,3.866v.373h2.829v.664c0,.263,0,.347-.74.347h-.3v.374c.4-.016.953-.034,1.445-.034s1.037.018,1.445.034v-.374h-.3c-.739,0-.739-.084-.739-.347v-.664Zm-1.808-3.45v3.077h-2.5l2.5-3.077Z" transform="translate(-280 -278.828)"/><path d="M635.789,462.384l1.087-1.054c1.6-1.416,2.216-1.97,2.216-3a2.014,2.014,0,0,0-2.174-1.989A1.9,1.9,0,0,0,635,458.2a.539.539,0,1,0,1.076.031.519.519,0,0,0-.544-.534.4.4,0,0,0-.132.01,1.477,1.477,0,0,1,1.384-1.045c.934,0,1.374.83,1.374,1.671a3.672,3.672,0,0,1-1.077,2.266l-1.968,2.195c-.113.113-.113.132-.113.379h3.8l.287-1.784h-.257a.822.822,0,0,1-1.2.993h-1.846" transform="translate(-280 -278.828)"/><path d="M642.6,460.939c0-1.67.84-2.1,1.384-2.1a1.67,1.67,0,0,1,1.1.379.462.462,0,0,0-.48.471.471.471,0,1,0,.942-.01c0-.7-.779-1.1-1.568-1.1a2.3,2.3,0,0,0-2.226,2.379,2.27,2.27,0,0,0,2.205,2.328,1.686,1.686,0,0,0,1.7-1.334c0-.1-.1-.1-.132-.1-.092,0-.113.041-.134.1a1.337,1.337,0,0,1-1.343,1.077c-.544,0-1.445-.44-1.445-2.092" transform="translate(-280 -278.828)"/><path d="M650.773,460.98a2.274,2.274,0,1,0-4.541,0,2.271,2.271,0,1,0,4.541,0Zm-2.266,2.051a1.337,1.337,0,0,1-1.167-.687,3.043,3.043,0,0,1-.257-1.445,2.95,2.95,0,0,1,.245-1.4,1.378,1.378,0,0,1,1.17-.687,1.345,1.345,0,0,1,1.158.666,2.813,2.813,0,0,1,.267,1.426,3.112,3.112,0,0,1-.226,1.374,1.323,1.323,0,0,1-1.19.758" transform="translate(-280 -278.828)"/><path d="M653.341,461.186c.226.04,1.067.205,1.067.944,0,.522-.359.932-1.159.932-.861,0-1.231-.584-1.426-1.457-.03-.132-.04-.174-.143-.174-.133,0-.133.073-.133.257v1.353c0,.174,0,.247.113.247.052,0,.062-.01.257-.2a1.728,1.728,0,0,1,.2-.236,1.529,1.529,0,0,0,1.127.441c1.179,0,1.651-.687,1.651-1.426a1.327,1.327,0,0,0-.43-.974,2.1,2.1,0,0,0-1.169-.492c-.575-.113-1.262-.245-1.262-.84,0-.36.266-.779,1.149-.779a1.132,1.132,0,0,1,1.2,1.24c.009.092.1.092.122.092.134,0,.134-.052.134-.245v-1.037c0-.175,0-.246-.113-.246-.051,0-.073,0-.2.123a1.292,1.292,0,0,1-.174.165,1.578,1.578,0,0,0-.964-.288c-1.252,0-1.641.688-1.641,1.262a1.1,1.1,0,0,0,.441.871,2.693,2.693,0,0,0,1.353.472" transform="translate(-280 -278.828)"/><path d="M662.063,469.744c.021.009.113.113.122.113h.226a.1.1,0,0,0,.113-.1.151.151,0,0,0-.04-.092,8.663,8.663,0,0,1-1.56-2.061,14.483,14.483,0,0,1-1.516-6.961c0-4.553,1.292-7.23,3.085-9.044a.1.1,0,0,0,.031-.082c0-.1-.071-.1-.2-.1a.263.263,0,0,0-.245.082,9.808,9.808,0,0,0-2.779,4.429,15.594,15.594,0,0,0-.677,4.706,13.321,13.321,0,0,0,2.051,7.558c.278.4.656.819.656.83a3.835,3.835,0,0,0,.328.358l.4.37" transform="translate(-280 -278.828)"/><path d="M667.692,459.894a5.475,5.475,0,0,0-.41-2.4,1.9,1.9,0,0,0-1.744-1.148,1.88,1.88,0,0,0-1.783,1.219,5.491,5.491,0,0,0-.379,2.329,5.188,5.188,0,0,0,.461,2.471,1.916,1.916,0,0,0,3.476-.155,5.439,5.439,0,0,0,.379-2.316Zm-2.163,3.281c-.4,0-1-.257-1.189-1.24a21.349,21.349,0,0,1-.032-4.052c.2-1.219.964-1.311,1.221-1.311.339,0,1.014.184,1.209,1.2a12.419,12.419,0,0,1,.1,2,12.687,12.687,0,0,1-.113,2.123c-.154.974-.739,1.282-1.2,1.282" transform="translate(-280 -278.828)"/><path d="M670.106,462.631a.544.544,0,1,0-.544.544.548.548,0,0,0,.544-.544" transform="translate(-280 -278.828)"/><path d="M674.041,461.483v.892c0,.369-.021.482-.779.482h-.216v.318c.421-.031.955-.031,1.385-.031s.975,0,1.394.031v-.318h-.215c-.759,0-.779-.113-.779-.482v-.892h1.025v-.318h-1.025V456.5c0-.2,0-.266-.164-.266-.092,0-.123,0-.205.123l-3.148,4.809v.318Zm.061-.318h-2.5l2.5-3.824v3.824Z" transform="translate(-280 -278.828)"/><path d="M678.905,459.351h1.158a11.271,11.271,0,0,0-.43,2.645,3.236,3.236,0,0,0,.082.779c.1.451.216.513.369.513a.4.4,0,0,0,.358-.616,4.425,4.425,0,0,1-.3-1.692,8.06,8.06,0,0,1,.183-1.629h1.17c.134,0,.5,0,.5-.35,0-.245-.216-.245-.411-.245h-3.434a1.307,1.307,0,0,0-1.068.482,3.674,3.674,0,0,0-.624.922c0,.01,0,.1.123.1.082,0,.1-.04.164-.123a1.445,1.445,0,0,1,1.3-.788h.584a21.637,21.637,0,0,1-1.312,3.414c-.082.153-.082.174-.082.245a.28.28,0,0,0,.3.278c.308,0,.39-.287.513-.666.143-.473.143-.492.277-1l.574-2.266" transform="translate(-280 -278.828)"/><path d="M683.283,462.57c-.031.153-.092.389-.092.44a.274.274,0,0,0,.3.278.421.421,0,0,0,.379-.287c.01-.021.132-.5.195-.76l.226-.923c.061-.225.123-.45.174-.687.04-.174.123-.471.132-.513a2.045,2.045,0,0,1,1.673-1.249c.461,0,.553.379.553.717a9.8,9.8,0,0,1-.666,2.389,1.14,1.14,0,0,0-.1.472.82.82,0,0,0,.84.841c.964,0,1.343-1.5,1.343-1.579,0-.1-.091-.1-.122-.1-.1,0-.1.031-.153.186-.207.7-.544,1.271-1.047,1.271-.174,0-.247-.1-.247-.339a1.962,1.962,0,0,1,.186-.727,9.223,9.223,0,0,0,.625-2.256,1.047,1.047,0,0,0-1.179-1.1,1.977,1.977,0,0,0-1.6.892.928.928,0,0,0-.944-.892.9.9,0,0,0-.769.584,5.1,5.1,0,0,0-.308,1c0,.1.1.1.124.1.1,0,.113-.011.174-.237.174-.728.379-1.219.748-1.219.2,0,.318.132.318.471a3.263,3.263,0,0,1-.164.861l-.6,2.369" transform="translate(-280 -278.828)"/><path d="M695.038,460.817H697.9c.144,0,.339,0,.339-.2s-.2-.206-.339-.206h-2.861v-2.871c0-.144,0-.337-.205-.337s-.2.193-.2.337v2.871h-2.871c-.144,0-.339,0-.339.206s.2.2.339.2h2.871v2.871c0,.143,0,.338.2.338s.205-.195.205-.338v-2.871" transform="translate(-280 -278.828)"/><path d="M705.02,452.435h1.158a11.242,11.242,0,0,0-.431,2.645,3.194,3.194,0,0,0,.083.779c.1.452.216.513.369.513a.4.4,0,0,0,.358-.616,4.412,4.412,0,0,1-.3-1.692,8.061,8.061,0,0,1,.184-1.629h1.169c.134,0,.5,0,.5-.35,0-.245-.216-.245-.411-.245h-3.433a1.306,1.306,0,0,0-1.068.482,3.653,3.653,0,0,0-.624.923c0,.009,0,.1.122.1.083,0,.1-.04.165-.122a1.443,1.443,0,0,1,1.3-.789h.584a21.5,21.5,0,0,1-1.311,3.414c-.082.154-.082.175-.082.246a.278.278,0,0,0,.3.277c.309,0,.391-.287.513-.666.144-.473.144-.492.278-1l.574-2.266" transform="translate(-280 -278.828)"/><path d="M705.833,468.605v.892c0,.369-.021.482-.779.482h-.216v.318c.421-.031.955-.031,1.385-.031s.974,0,1.393.031v-.318H707.4c-.76,0-.779-.113-.779-.482v-.892h1.024v-.318h-1.024v-4.666c0-.2,0-.266-.164-.266-.092,0-.123,0-.2.123l-3.149,4.809v.318Zm.061-.318h-2.5l2.5-3.824v3.824Z" transform="translate(-280 -278.828)"/><path d="M714,460.628a12.593,12.593,0,0,0-2.708-8.377,10.573,10.573,0,0,0-.768-.779c-.072-.061-.093-.061-.225-.061-.1,0-.2,0-.2.1a.172.172,0,0,0,.062.1,9.023,9.023,0,0,1,1.538,2.05,14.479,14.479,0,0,1,1.518,6.962c0,4.45-1.231,7.167-3.077,9.045a.122.122,0,0,0-.041.08c0,.1.092.1.2.1a.261.261,0,0,0,.245-.083,9.8,9.8,0,0,0,2.779-4.428,15.8,15.8,0,0,0,.677-4.718" transform="translate(-280 -278.828)"/><rect x="421.724" y="181.228" width="7.248" height="0.606"/><path d="M635.789,482.384l1.087-1.054c1.6-1.416,2.216-1.97,2.216-3a2.014,2.014,0,0,0-2.174-1.989A1.9,1.9,0,0,0,635,478.2a.539.539,0,1,0,1.076.031.519.519,0,0,0-.544-.534.4.4,0,0,0-.132.01,1.477,1.477,0,0,1,1.384-1.045c.934,0,1.374.83,1.374,1.671a3.672,3.672,0,0,1-1.077,2.266l-1.968,2.195c-.113.113-.113.132-.113.379h3.8l.287-1.784h-.257a.822.822,0,0,1-1.2.993h-1.846" transform="translate(-280 -278.828)"/><path d="M642.6,480.939c0-1.67.84-2.1,1.384-2.1a1.67,1.67,0,0,1,1.1.379.462.462,0,0,0-.48.471.471.471,0,1,0,.942-.01c0-.7-.779-1.1-1.568-1.1a2.3,2.3,0,0,0-2.226,2.379,2.27,2.27,0,0,0,2.205,2.328,1.686,1.686,0,0,0,1.7-1.334c0-.1-.1-.1-.132-.1-.092,0-.113.041-.134.1a1.337,1.337,0,0,1-1.343,1.077c-.544,0-1.445-.44-1.445-2.092" transform="translate(-280 -278.828)"/><path d="M650.773,480.98a2.274,2.274,0,1,0-4.541,0,2.271,2.271,0,1,0,4.541,0Zm-2.266,2.051a1.337,1.337,0,0,1-1.167-.687,3.043,3.043,0,0,1-.257-1.445,2.95,2.95,0,0,1,.245-1.4,1.378,1.378,0,0,1,1.17-.687,1.345,1.345,0,0,1,1.158.666,2.813,2.813,0,0,1,.267,1.426,3.112,3.112,0,0,1-.226,1.374,1.323,1.323,0,0,1-1.19.758" transform="translate(-280 -278.828)"/><path d="M653.341,481.186c.226.04,1.067.205,1.067.944,0,.522-.359.932-1.159.932-.861,0-1.231-.584-1.426-1.457-.03-.132-.04-.174-.143-.174-.133,0-.133.073-.133.257v1.353c0,.174,0,.247.113.247.052,0,.062-.01.257-.2a1.728,1.728,0,0,1,.2-.236,1.529,1.529,0,0,0,1.127.441c1.179,0,1.651-.687,1.651-1.426a1.327,1.327,0,0,0-.43-.974,2.1,2.1,0,0,0-1.169-.492c-.575-.113-1.262-.245-1.262-.84,0-.36.266-.779,1.149-.779a1.132,1.132,0,0,1,1.2,1.24c.009.092.1.092.122.092.134,0,.134-.052.134-.245v-1.037c0-.175,0-.246-.113-.246-.051,0-.073,0-.2.123a1.292,1.292,0,0,1-.174.165,1.578,1.578,0,0,0-.964-.288c-1.252,0-1.641.688-1.641,1.262a1.1,1.1,0,0,0,.441.871,2.693,2.693,0,0,0,1.353.472" transform="translate(-280 -278.828)"/><path d="M662.063,489.744c.021.009.113.113.122.113h.226a.1.1,0,0,0,.113-.1.151.151,0,0,0-.04-.092,8.663,8.663,0,0,1-1.56-2.061,14.483,14.483,0,0,1-1.516-6.961c0-4.553,1.292-7.23,3.085-9.044a.1.1,0,0,0,.031-.082c0-.1-.071-.1-.2-.1a.263.263,0,0,0-.245.082,9.808,9.808,0,0,0-2.779,4.429,15.594,15.594,0,0,0-.677,4.706,13.321,13.321,0,0,0,2.051,7.558c.278.4.656.819.656.83a3.835,3.835,0,0,0,.328.358l.4.37" transform="translate(-280 -278.828)"/><path d="M665.99,476.612c0-.245,0-.266-.235-.266a2.533,2.533,0,0,1-1.866.657v.317a3.08,3.08,0,0,0,1.343-.266v5.311c0,.369-.031.492-.955.492h-.327v.318c.358-.031,1.251-.031,1.661-.031s1.3,0,1.661.031v-.318h-.329c-.922,0-.953-.113-.953-.492v-5.753" transform="translate(-280 -278.828)"/><path d="M670.106,482.631a.544.544,0,1,0-.544.544.548.548,0,0,0,.544-.544" transform="translate(-280 -278.828)"/><path d="M672.38,479.812v-.247c0-2.593,1.273-2.962,1.795-2.962a1.059,1.059,0,0,1,.9.409c-.154,0-.563,0-.563.462a.471.471,0,1,0,.942-.022c0-.614-.45-1.106-1.3-1.106-1.313,0-2.7,1.323-2.7,3.589,0,2.737,1.189,3.466,2.144,3.466a2.195,2.195,0,0,0,2.111-2.318,2.15,2.15,0,0,0-2.05-2.287,1.419,1.419,0,0,0-1.282,1.016Zm1.221,3.3a1.18,1.18,0,0,1-1.016-.769,5.017,5.017,0,0,1-.184-1.487c0-.8.327-1.824,1.252-1.824a.99.99,0,0,1,.953.635,5.5,5.5,0,0,1,.009,2.779,1.072,1.072,0,0,1-1.014.666" transform="translate(-280 -278.828)"/><path d="M678.905,479.351h1.158a11.271,11.271,0,0,0-.43,2.645,3.236,3.236,0,0,0,.082.779c.1.451.216.513.369.513a.4.4,0,0,0,.358-.616,4.425,4.425,0,0,1-.3-1.692,8.06,8.06,0,0,1,.183-1.629h1.17c.134,0,.5,0,.5-.35,0-.245-.216-.245-.411-.245h-3.434a1.307,1.307,0,0,0-1.068.482,3.674,3.674,0,0,0-.624.922c0,.01,0,.1.123.1.082,0,.1-.04.164-.123a1.445,1.445,0,0,1,1.3-.788h.584a21.637,21.637,0,0,1-1.312,3.414c-.082.153-.082.174-.082.245a.28.28,0,0,0,.3.278c.308,0,.39-.287.513-.666.143-.473.143-.492.277-1l.574-2.266" transform="translate(-280 -278.828)"/><path d="M683.283,482.57c-.031.153-.092.389-.092.44a.274.274,0,0,0,.3.278.421.421,0,0,0,.379-.287c.01-.021.132-.5.195-.76l.226-.923c.061-.225.123-.45.174-.687.04-.174.123-.471.132-.513a2.045,2.045,0,0,1,1.673-1.249c.461,0,.553.379.553.717a9.8,9.8,0,0,1-.666,2.389,1.14,1.14,0,0,0-.1.472.82.82,0,0,0,.84.841c.964,0,1.343-1.5,1.343-1.579,0-.1-.091-.1-.122-.1-.1,0-.1.031-.153.186-.207.7-.544,1.271-1.047,1.271-.174,0-.247-.1-.247-.339a1.962,1.962,0,0,1,.186-.727,9.223,9.223,0,0,0,.625-2.256,1.047,1.047,0,0,0-1.179-1.1,1.977,1.977,0,0,0-1.6.892.928.928,0,0,0-.944-.892.9.9,0,0,0-.769.584,5.1,5.1,0,0,0-.308,1c0,.1.1.1.124.1.1,0,.113-.011.174-.237.174-.728.379-1.219.748-1.219.2,0,.318.132.318.471a3.263,3.263,0,0,1-.164.861l-.6,2.369" transform="translate(-280 -278.828)"/><path d="M697.6,480.817c.174,0,.358,0,.358-.2s-.184-.206-.358-.206h-5.548c-.175,0-.358,0-.358.206s.183.2.358.2H697.6" transform="translate(-280 -278.828)"/><path d="M705.02,472.435h1.158a11.242,11.242,0,0,0-.431,2.645,3.194,3.194,0,0,0,.083.779c.1.452.216.513.369.513a.4.4,0,0,0,.358-.616,4.412,4.412,0,0,1-.3-1.692,8.061,8.061,0,0,1,.184-1.629h1.169c.134,0,.5,0,.5-.35,0-.245-.216-.245-.411-.245h-3.433a1.306,1.306,0,0,0-1.068.482,3.653,3.653,0,0,0-.624.923c0,.009,0,.1.122.1.083,0,.1-.04.165-.122a1.443,1.443,0,0,1,1.3-.789h.584a21.5,21.5,0,0,1-1.311,3.414c-.082.154-.082.175-.082.246a.278.278,0,0,0,.3.277c.309,0,.391-.287.513-.666.144-.473.144-.492.278-1l.574-2.266" transform="translate(-280 -278.828)"/><path d="M705.833,488.605v.892c0,.369-.021.482-.779.482h-.216v.318c.421-.031.955-.031,1.385-.031s.974,0,1.393.031v-.318H707.4c-.76,0-.779-.113-.779-.482v-.892h1.024v-.318h-1.024v-4.666c0-.2,0-.266-.164-.266-.092,0-.123,0-.2.123l-3.149,4.809v.318Zm.061-.318h-2.5l2.5-3.824v3.824Z" transform="translate(-280 -278.828)"/><path d="M714,480.628a12.593,12.593,0,0,0-2.708-8.377,10.573,10.573,0,0,0-.768-.779c-.072-.061-.093-.061-.225-.061-.1,0-.2,0-.2.1a.172.172,0,0,0,.062.1,9.023,9.023,0,0,1,1.538,2.05,14.479,14.479,0,0,1,1.518,6.962c0,4.45-1.231,7.167-3.077,9.045a.122.122,0,0,0-.041.08c0,.1.092.1.2.1a.261.261,0,0,0,.245-.083,9.8,9.8,0,0,0,2.779-4.428,15.8,15.8,0,0,0,.677-4.718" transform="translate(-280 -278.828)"/><path d="M635.789,502.536l1.087-1.055c1.6-1.416,2.216-1.969,2.216-3a2.014,2.014,0,0,0-2.174-1.988A1.894,1.894,0,0,0,635,498.354a.539.539,0,1,0,1.076.031.519.519,0,0,0-.544-.534.4.4,0,0,0-.132.01,1.477,1.477,0,0,1,1.384-1.046c.934,0,1.374.831,1.374,1.671a3.67,3.67,0,0,1-1.077,2.266l-1.968,2.195c-.113.113-.113.133-.113.379h3.8l.287-1.783h-.257a.822.822,0,0,1-1.2.993h-1.846" transform="translate(-280 -278.828)"/><path d="M642.6,501.091c0-1.671.84-2.1,1.384-2.1a1.67,1.67,0,0,1,1.1.379.462.462,0,0,0-.48.471.471.471,0,1,0,.942-.009c0-.7-.779-1.1-1.568-1.1a2.3,2.3,0,0,0-2.226,2.379,2.269,2.269,0,0,0,2.205,2.327,1.685,1.685,0,0,0,1.7-1.334c0-.1-.1-.1-.132-.1a.119.119,0,0,0-.134.1,1.338,1.338,0,0,1-1.343,1.078c-.544,0-1.445-.441-1.445-2.092" transform="translate(-280 -278.828)"/><path d="M650.773,501.131a2.274,2.274,0,1,0-4.541,0,2.271,2.271,0,1,0,4.541,0Zm-2.266,2.052a1.337,1.337,0,0,1-1.167-.687,3.047,3.047,0,0,1-.257-1.445,2.95,2.95,0,0,1,.245-1.4,1.376,1.376,0,0,1,1.17-.687,1.345,1.345,0,0,1,1.158.666,2.809,2.809,0,0,1,.267,1.426,3.116,3.116,0,0,1-.226,1.374,1.323,1.323,0,0,1-1.19.758" transform="translate(-280 -278.828)"/><path d="M653.341,501.338c.226.04,1.067.2,1.067.943,0,.523-.359.932-1.159.932-.861,0-1.231-.583-1.426-1.456-.03-.132-.04-.174-.143-.174-.133,0-.133.072-.133.256v1.353c0,.175,0,.247.113.247.052,0,.062-.009.257-.205a1.7,1.7,0,0,1,.2-.235,1.527,1.527,0,0,0,1.127.44c1.179,0,1.651-.687,1.651-1.426a1.332,1.332,0,0,0-.43-.974,2.11,2.11,0,0,0-1.169-.492c-.575-.112-1.262-.245-1.262-.84,0-.359.266-.779,1.149-.779a1.132,1.132,0,0,1,1.2,1.24c.009.092.1.092.122.092.134,0,.134-.051.134-.245v-1.037c0-.174,0-.245-.113-.245-.051,0-.073,0-.2.123a1.285,1.285,0,0,1-.174.164,1.582,1.582,0,0,0-.964-.287c-1.252,0-1.641.687-1.641,1.261a1.1,1.1,0,0,0,.441.871,2.7,2.7,0,0,0,1.353.473" transform="translate(-280 -278.828)"/><path d="M662.063,509.9c.021.01.113.113.122.113h.226a.1.1,0,0,0,.113-.1.151.151,0,0,0-.04-.092,8.663,8.663,0,0,1-1.56-2.061,14.485,14.485,0,0,1-1.516-6.961c0-4.553,1.292-7.23,3.085-9.045a.1.1,0,0,0,.031-.082c0-.1-.071-.1-.2-.1a.261.261,0,0,0-.245.083,9.8,9.8,0,0,0-2.779,4.428,15.6,15.6,0,0,0-.677,4.707,13.32,13.32,0,0,0,2.051,7.557c.278.4.656.82.656.831a3.967,3.967,0,0,0,.328.358l.4.369" transform="translate(-280 -278.828)"/><path d="M664.277,502.536l1.087-1.055c1.6-1.416,2.216-1.969,2.216-3a2.014,2.014,0,0,0-2.174-1.988,1.894,1.894,0,0,0-1.917,1.856.538.538,0,1,0,1.075.031.518.518,0,0,0-.543-.534.392.392,0,0,0-.132.01,1.476,1.476,0,0,1,1.383-1.046c.934,0,1.375.831,1.375,1.671a3.666,3.666,0,0,1-1.078,2.266l-1.967,2.195c-.113.113-.113.133-.113.379h3.8l.287-1.783h-.256a.822.822,0,0,1-1.2.993h-1.847" transform="translate(-280 -278.828)"/><path d="M670.106,502.783a.544.544,0,1,0-.544.543.548.548,0,0,0,.544-.543" transform="translate(-280 -278.828)"/><path d="M674.041,501.634v.892c0,.37-.021.483-.779.483h-.216v.317c.421-.03.955-.03,1.385-.03s.975,0,1.394.03v-.317h-.215c-.759,0-.779-.113-.779-.483v-.892h1.025v-.317h-1.025v-4.666c0-.2,0-.266-.164-.266-.092,0-.123,0-.205.122l-3.148,4.81v.317Zm.061-.317h-2.5l2.5-3.824v3.824Z" transform="translate(-280 -278.828)"/><path d="M678.905,499.5h1.158a11.278,11.278,0,0,0-.43,2.645,3.228,3.228,0,0,0,.082.779c.1.452.216.513.369.513a.433.433,0,0,0,.421-.39.441.441,0,0,0-.063-.226,4.425,4.425,0,0,1-.3-1.692,8.068,8.068,0,0,1,.183-1.629h1.17c.134,0,.5,0,.5-.35,0-.245-.216-.245-.411-.245h-3.434a1.307,1.307,0,0,0-1.068.482,3.653,3.653,0,0,0-.624.923c0,.01,0,.1.123.1.082,0,.1-.041.164-.123a1.444,1.444,0,0,1,1.3-.789h.584a21.612,21.612,0,0,1-1.312,3.415c-.082.153-.082.174-.082.245a.279.279,0,0,0,.3.277c.308,0,.39-.287.513-.666.143-.472.143-.492.277-1.005l.574-2.266" transform="translate(-280 -278.828)"/><path d="M683.283,502.722c-.031.153-.092.388-.092.44a.274.274,0,0,0,.3.277.42.42,0,0,0,.379-.287c.01-.021.132-.5.195-.759l.226-.923c.061-.226.123-.45.174-.687.04-.174.123-.471.132-.513a2.044,2.044,0,0,1,1.673-1.25c.461,0,.553.379.553.718a9.8,9.8,0,0,1-.666,2.388,1.147,1.147,0,0,0-.1.473.819.819,0,0,0,.84.84c.964,0,1.343-1.5,1.343-1.579,0-.1-.091-.1-.122-.1-.1,0-.1.031-.153.186-.207.7-.544,1.27-1.047,1.27-.174,0-.247-.1-.247-.338a1.962,1.962,0,0,1,.186-.728,9.21,9.21,0,0,0,.625-2.256,1.048,1.048,0,0,0-1.179-1.1,1.98,1.98,0,0,0-1.6.892.928.928,0,0,0-.944-.892.9.9,0,0,0-.769.584,5.138,5.138,0,0,0-.308,1c0,.1.1.1.124.1.1,0,.113-.011.174-.237.174-.727.379-1.219.748-1.219.2,0,.318.132.318.471a3.257,3.257,0,0,1-.164.861l-.6,2.37" transform="translate(-280 -278.828)"/><path d="M695.038,500.968H697.9c.144,0,.339,0,.339-.2s-.2-.207-.339-.207h-2.861v-2.871c0-.143,0-.337-.205-.337s-.2.194-.2.337v2.871h-2.871c-.144,0-.339,0-.339.207s.2.2.339.2h2.871v2.871c0,.144,0,.339.2.339s.205-.195.205-.339v-2.871" transform="translate(-280 -278.828)"/><path d="M705.02,492.587h1.158a11.235,11.235,0,0,0-.431,2.645,3.2,3.2,0,0,0,.083.779c.1.451.216.513.369.513a.434.434,0,0,0,.421-.391.441.441,0,0,0-.063-.226,4.407,4.407,0,0,1-.3-1.691,8.061,8.061,0,0,1,.184-1.629h1.169c.134,0,.5,0,.5-.35,0-.246-.216-.246-.411-.246h-3.433a1.3,1.3,0,0,0-1.068.483,3.674,3.674,0,0,0-.624.922c0,.01,0,.1.122.1.083,0,.1-.04.165-.123a1.444,1.444,0,0,1,1.3-.788h.584A21.542,21.542,0,0,1,703.441,496c-.082.153-.082.174-.082.245a.279.279,0,0,0,.3.278c.309,0,.391-.288.513-.667.144-.472.144-.491.278-1l.574-2.266" transform="translate(-280 -278.828)"/><path d="M705.833,508.757v.892c0,.369-.021.482-.779.482h-.216v.317c.421-.03.955-.03,1.385-.03s.974,0,1.393.03v-.317H707.4c-.76,0-.779-.113-.779-.482v-.892h1.024v-.318h-1.024v-4.666c0-.205,0-.266-.164-.266-.092,0-.123,0-.2.123l-3.149,4.809v.318Zm.061-.318h-2.5l2.5-3.824v3.824Z" transform="translate(-280 -278.828)"/><path d="M714,500.78a12.592,12.592,0,0,0-2.708-8.377,10.194,10.194,0,0,0-.768-.779c-.072-.062-.093-.062-.225-.062-.1,0-.2,0-.2.1a.172.172,0,0,0,.062.1,9.047,9.047,0,0,1,1.538,2.05,14.483,14.483,0,0,1,1.518,6.963c0,4.449-1.231,7.167-3.077,9.044a.125.125,0,0,0-.041.081c0,.1.092.1.2.1a.263.263,0,0,0,.245-.082,9.8,9.8,0,0,0,2.779-4.429A15.8,15.8,0,0,0,714,500.78" transform="translate(-280 -278.828)"/><path class="cls-4" d="M321,356c0-25.957,66.71-47,149-47s149,21.043,149,47" transform="translate(-280 -278.828)"/><path class="cls-5" d="M432,356c0-25.957,66.71-47,149-47s149,21.043,149,47" transform="translate(-280 -278.828)"/><path class="cls-4" d="M619,356c0-25.957,67.381-47,150.5-47S920,330.043,920,356" transform="translate(-280 -278.828)"/><path class="cls-5" d="M730,356c0-25.957,67.605-47,151-47s151,21.043,151,47" transform="translate(-280 -278.828)"/><line class="cls-6" x1="338.5" y1="147.672" x2="338.5" y2="78.172"/><rect class="cls-7" x="328.75" y="76.672" width="19.5" height="3"/><line class="cls-8" x1="450" y1="148.172" x2="450" y2="78.672"/><rect class="cls-9" x="440.25" y="77.172" width="19.5" height="3"/><line class="cls-6" x1="39.5" y1="147.672" x2="39.5" y2="145.172"/><line class="cls-10" x1="39.5" y1="140.21" x2="39.5" y2="83.153"/><line class="cls-6" x1="39.5" y1="80.672" x2="39.5" y2="78.172"/><rect class="cls-7" x="29.75" y="76.672" width="19.5" height="3"/><line class="cls-8" x1="151" y1="148.172" x2="151" y2="145.672"/><line class="cls-11" x1="151" y1="140.71" x2="151" y2="83.653"/><line class="cls-8" x1="151" y1="81.172" x2="151" y2="78.672"/><rect class="cls-9" x="141.25" y="77.172" width="19.5" height="3"/><line class="cls-6" x1="640.5" y1="147.672" x2="640.5" y2="145.172"/><line class="cls-10" x1="640.5" y1="140.21" x2="640.5" y2="83.153"/><line class="cls-6" x1="640.5" y1="80.672" x2="640.5" y2="78.172"/><rect class="cls-7" x="630.75" y="76.672" width="19.5" height="3"/><line class="cls-8" x1="752" y1="148.172" x2="752" y2="145.672"/><line class="cls-11" x1="752" y1="140.71" x2="752" y2="83.653"/><line class="cls-8" x1="752" y1="81.172" x2="752" y2="78.672"/><rect class="cls-9" x="742.25" y="77.172" width="19.5" height="3"/><line class="cls-1" y1="147.672" x2="782.824" y2="147.672"/><polygon points="781.365 152.658 790 147.672 781.365 142.686 781.365 152.658"/><rect x="379.935" y="70.596" width="7.248" height="0.606"/><rect x="421.724" y="201.274" width="7.248" height="0.606"/><rect x="421.845" y="221.379" width="7.248" height="0.606"/></svg>