<svg id="Layer_1" data-name="Layer 1" xmlns="http://www.w3.org/2000/svg" viewBox="0 0 586.425 357.492"><defs><style>.cls-1,.cls-10,.cls-11,.cls-12,.cls-3,.cls-5,.cls-6,.cls-7,.cls-8{fill:none;stroke-miterlimit:10;}.cls-1,.cls-5{stroke:red;}.cls-1,.cls-3,.cls-5,.cls-6,.cls-8{stroke-width:3px;}.cls-2{fill:red;}.cls-3,.cls-6{stroke:blue;}.cls-4{fill:blue;}.cls-5,.cls-6{stroke-dasharray:4.286 4.286;}.cls-10,.cls-11,.cls-12,.cls-7,.cls-8{stroke:#000;}.cls-9{font-size:12px;font-family:TimesNewRomanPSMT, Times New Roman;}.cls-10{stroke-dasharray:4.959 4.959;}.cls-11{stroke-dasharray:4.865 4.865;}.cls-12{stroke-dasharray:5.369 5.369;}.cls-13{letter-spacing:-0.04em;}</style></defs><title>uniqueness_example</title><line class="cls-1" x1="543.203" y1="108.992" x2="543.203" y2="73.992"/><rect class="cls-2" x="533.453" y="72.492" width="19.5" height="3"/><line class="cls-3" x1="22.203" y1="108.992" x2="22.203" y2="73.992"/><rect class="cls-4" x="12.453" y="72.492" width="19.5" height="3"/><line class="cls-1" x1="544.203" y1="302.992" x2="544.203" y2="300.492"/><line class="cls-5" x1="544.203" y1="296.206" x2="544.203" y2="272.635"/><line class="cls-1" x1="544.203" y1="270.492" x2="544.203" y2="267.992"/><rect class="cls-2" x="534.453" y="266.492" width="19.5" height="3"/><line class="cls-3" x1="343.203" y1="301.992" x2="343.203" y2="266.992"/><rect class="cls-4" x="333.453" y="265.492" width="19.5" height="3"/><line class="cls-3" x1="23.203" y1="301.992" x2="23.203" y2="299.492"/><line class="cls-6" x1="23.203" y1="295.206" x2="23.203" y2="271.635"/><line class="cls-3" x1="23.203" y1="269.492" x2="23.203" y2="266.992"/><rect class="cls-4" x="13.453" y="265.492" width="19.5" height="3"/><line class="cls-1" x1="234.203" y1="302.992" x2="234.203" y2="267.992"/><rect class="cls-2" x="224.453" y="266.492" width="19.5" height="3"/><line class="cls-7" x1="5.703" y1="109.492" x2="566.528" y2="109.492"/><polygon points="565.069 114.478 573.703 109.492 565.069 104.506 565.069 114.478"/><line class="cls-7" x1="289.203" y1="109.992" x2="289.203" y2="11.167"/><polygon points="294.189 12.626 289.204 3.992 284.217 12.626 294.189 12.626"/><line class="cls-8" x1="180.203" y1="109.492" x2="180.203" y2="39.992"/><rect x="170.453" y="38.492" width="19.5" height="3"/><line class="cls-8" x1="398.703" y1="108.992" x2="398.703" y2="39.492"/><rect x="388.953" y="37.992" width="19.5" height="3"/><text class="cls-9" transform="translate(169.441 120.973)">-200</text><text class="cls-9" transform="translate(390.441 120.973)">200</text><text class="cls-9" transform="translate(286.441 120.973)">0</text><text class="cls-9" transform="translate(300.441 9.973)">Spectrum</text><path d="M657.671,214.29c.073-.312.35-1.419,1.192-1.419a1.192,1.192,0,0,1,.6.155.7.7,0,0,0-.577.651.418.418,0,0,0,.456.42.67.67,0,0,0,.649-.7c0-.627-.71-.8-1.119-.8a1.552,1.552,0,0,0-1.262.914,1.334,1.334,0,0,0-1.3-.914c-1.251,0-1.938,1.552-1.938,1.853,0,.121.121.121.146.121.1,0,.132-.025.155-.133.411-1.275,1.2-1.576,1.613-1.576.229,0,.651.107.651.806a17.517,17.517,0,0,1-.651,2.864c-.191.746-.614,1.251-1.144,1.251a1.158,1.158,0,0,1-.6-.157.679.679,0,0,0,.566-.649.41.41,0,0,0-.444-.42.683.683,0,0,0-.663.7c0,.555.6.795,1.132.795a1.6,1.6,0,0,0,1.265-.914,1.326,1.326,0,0,0,1.3.914c1.24,0,1.925-1.552,1.925-1.853,0-.121-.108-.121-.144-.121-.107,0-.132.049-.157.132-.395,1.288-1.215,1.577-1.6,1.577-.47,0-.663-.384-.663-.795a4.674,4.674,0,0,1,.2-1.058l.409-1.649" transform="translate(-301.297 -208.008)"/><path d="M664.54,220.814c0-.036,0-.061-.2-.265a7.983,7.983,0,0,1-1.889-5.632,7.875,7.875,0,0,1,1.938-5.694c.155-.144.155-.169.155-.205a.107.107,0,0,0-.119-.119,5.233,5.233,0,0,0-1.914,2.347,9.259,9.259,0,0,0,.036,7.425,5.18,5.18,0,0,0,1.878,2.262.107.107,0,0,0,.119-.119" transform="translate(-301.297 -208.008)"/><path d="M667.641,213.111h1.13c.24,0,.362,0,.362-.24,0-.133-.122-.133-.337-.133h-1.058c.431-1.709.492-1.95.492-2.022a.316.316,0,0,0-.349-.325.514.514,0,0,0-.481.433l-.469,1.914H665.8c-.24,0-.362,0-.362.229,0,.144.1.144.337.144h1.061a31.1,31.1,0,0,0-.915,3.839,1.061,1.061,0,0,0,1.106,1.107c1.228,0,1.914-1.756,1.914-1.853,0-.121-.1-.121-.144-.121-.108,0-.121.036-.18.168-.519,1.252-1.157,1.541-1.566,1.541-.251,0-.373-.157-.373-.552a1.994,1.994,0,0,1,.072-.58l.892-3.549" transform="translate(-301.297 -208.008)"/><path d="M673,214.917a8.794,8.794,0,0,0-.793-3.756,5.2,5.2,0,0,0-1.878-2.262.113.113,0,0,0-.121.119c0,.036,0,.061.229.279a7.805,7.805,0,0,1,1.866,5.62,7.891,7.891,0,0,1-1.938,5.692c-.157.144-.157.169-.157.2a.114.114,0,0,0,.121.119,5.234,5.234,0,0,0,1.914-2.346,8.755,8.755,0,0,0,.757-3.67" transform="translate(-301.297 -208.008)"/><path d="M857.833,301.687h1.04c.241,0,.363,0,.363-.242,0-.133-.122-.133-.327-.133h-1l.255-1.378a11.115,11.115,0,0,1,.289-1.257.657.657,0,0,1,.568-.411.889.889,0,0,1,.593.217.671.671,0,0,0-.654.654.419.419,0,0,0,.449.422.692.692,0,0,0,.664-.724c0-.557-.556-.835-1.052-.835-.411,0-1.171.217-1.534,1.415a19.35,19.35,0,0,0-.4,1.9h-.834c-.229,0-.362,0-.362.23,0,.145.109.145.339.145h.8l-.907,4.775c-.217,1.173-.423,2.272-1.052,2.272a.866.866,0,0,1-.58-.217.656.656,0,0,0,.666-.652.419.419,0,0,0-.447-.424.693.693,0,0,0-.666.726.932.932,0,0,0,1.027.833c.666,0,1.149-.713,1.367-1.171a10.93,10.93,0,0,0,.677-2.311l.725-3.831" transform="translate(-301.297 -208.008)"/><text class="cls-9" transform="translate(564.441 98.973)">[Hz]</text><path d="M567.468,361.929c0-1.032-.283-3.21-1.879-3.21-2.178,0-4.589,4.417-4.589,8,0,1.47.453,3.209,1.879,3.209,2.207,0,4.589-4.5,4.589-8Zm-4.808,2.145a14.162,14.162,0,0,1,1.205-3.367c.423-.766,1-1.643,1.706-1.643.769,0,.863,1,.863,1.894a13.037,13.037,0,0,1-.5,3.116Zm3.131.5a13.838,13.838,0,0,1-1.1,3.177c-.547,1.066-1.143,1.832-1.816,1.832-.517,0-.845-.453-.845-1.911a12,12,0,0,1,.5-3.1h3.257" transform="translate(-301.297 -208.008)"/><path d="M583.239,364.638c.234,0,.532,0,.532-.313s-.3-.313-.517-.313h-9.379c-.22,0-.518,0-.518.313s.3.313.532.313Zm.015,3.037c.219,0,.517,0,.517-.313s-.3-.313-.532-.313h-9.35c-.234,0-.532,0-.532.313s.3.313.518.313h9.379" transform="translate(-301.297 -208.008)"/><path d="M591.178,368.552l1.66-1.611c2.443-2.163,3.384-3.007,3.384-4.574a3.076,3.076,0,0,0-3.32-3.037,2.893,2.893,0,0,0-2.929,2.835.822.822,0,1,0,1.643.047.792.792,0,0,0-.83-.815.661.661,0,0,0-.2.014,2.256,2.256,0,0,1,2.113-1.6c1.427,0,2.1,1.269,2.1,2.552a5.6,5.6,0,0,1-1.645,3.461l-3,3.352c-.173.172-.173.2-.173.579h5.811l.438-2.724h-.392A1.255,1.255,0,0,1,594,368.552h-2.82" transform="translate(-301.297 -208.008)"/><path d="M601.222,363.919h1.769a17.146,17.146,0,0,0-.658,4.039,4.91,4.91,0,0,0,.126,1.19c.157.69.33.783.564.783a.662.662,0,0,0,.642-.6.674.674,0,0,0-.1-.345,6.74,6.74,0,0,1-.453-2.583,12.28,12.28,0,0,1,.281-2.488h1.786c.2,0,.768,0,.768-.535,0-.374-.33-.374-.628-.374h-5.244a1.993,1.993,0,0,0-1.63.736,5.6,5.6,0,0,0-.953,1.409c0,.015,0,.155.187.155.125,0,.157-.061.251-.187a2.205,2.205,0,0,1,1.988-1.2h.891a33.053,33.053,0,0,1-2,5.214c-.126.234-.126.266-.126.375a.426.426,0,0,0,.453.423c.471,0,.6-.438.784-1.017.219-.722.219-.751.423-1.535l.877-3.46" transform="translate(-301.297 -208.008)"/><path d="M616.69,352.776h1.348c.312,0,.47,0,.47-.313,0-.172-.158-.172-.424-.172h-1.3l.33-1.786a14.782,14.782,0,0,1,.374-1.628.852.852,0,0,1,.737-.532,1.153,1.153,0,0,1,.768.281.869.869,0,0,0-.847.847.542.542,0,0,0,.581.547.9.9,0,0,0,.86-.939c0-.721-.719-1.081-1.362-1.081-.532,0-1.517.281-1.988,1.833-.094.327-.14.485-.517,2.458h-1.081c-.3,0-.468,0-.468.3,0,.187.14.187.438.187h1.032l-1.175,6.185c-.281,1.519-.547,2.943-1.362,2.943a1.123,1.123,0,0,1-.751-.281.848.848,0,0,0,.862-.845.542.542,0,0,0-.579-.549.9.9,0,0,0-.862.941,1.207,1.207,0,0,0,1.33,1.079c.862,0,1.488-.924,1.771-1.517a14.168,14.168,0,0,0,.877-2.993l.938-4.963" transform="translate(-301.297 -208.008)"/><path d="M614.168,374.215h1.347c.313,0,.471,0,.471-.313,0-.173-.158-.173-.424-.173h-1.3l.33-1.785a14.857,14.857,0,0,1,.374-1.629.852.852,0,0,1,.737-.532,1.153,1.153,0,0,1,.768.281.869.869,0,0,0-.847.848.542.542,0,0,0,.581.546.9.9,0,0,0,.86-.938c0-.722-.719-1.081-1.362-1.081-.532,0-1.518.28-1.988,1.832-.094.328-.14.485-.517,2.458h-1.082c-.295,0-.468,0-.468.3,0,.188.141.188.439.188h1.032l-1.175,6.184c-.281,1.52-.547,2.944-1.362,2.944a1.122,1.122,0,0,1-.751-.281.85.85,0,0,0,.862-.845.543.543,0,0,0-.579-.549.9.9,0,0,0-.862.941,1.206,1.206,0,0,0,1.33,1.079c.862,0,1.488-.924,1.771-1.518a14.228,14.228,0,0,0,.877-2.992l.938-4.963" transform="translate(-301.297 -208.008)"/><path d="M620.922,378.518a.569.569,0,0,0-.466.522.357.357,0,0,0,.367.354.553.553,0,0,0,.532-.633c0-.719-.8-.963-1.475-.963a1.8,1.8,0,0,0-2.039,1.619,1.057,1.057,0,0,0,.389.807,2.4,2.4,0,0,0,1.251.4c.234.045.943.178.943.732a1.121,1.121,0,0,1-.588.887,2.376,2.376,0,0,1-1.109.244,1.7,1.7,0,0,1-1.33-.466.655.655,0,0,0,.611-.631.4.4,0,0,0-.433-.411.673.673,0,0,0-.643.744c0,.665.709,1.074,1.785,1.074,2.04,0,2.417-1.4,2.417-1.828,0-1.019-1.121-1.219-1.53-1.3-.1-.022-.377-.066-.443-.088-.412-.077-.611-.311-.611-.555a.947.947,0,0,1,.443-.709,1.738,1.738,0,0,1,.877-.209,1.278,1.278,0,0,1,1.052.409" transform="translate(-301.297 -208.008)"/><rect x="307.894" y="157.21" width="12.979" height="0.896"/><rect class="cls-7" x="253.703" y="135.992" width="74" height="45"/><line class="cls-7" x1="289.203" y1="302.492" x2="289.203" y2="203.667"/><polygon points="294.189 205.126 289.204 196.492 284.217 205.126 294.189 205.126"/><line class="cls-8" x1="180.203" y1="302.492" x2="180.203" y2="232.992"/><rect x="170.453" y="231.492" width="19.5" height="3"/><line class="cls-8" x1="397.703" y1="302.992" x2="397.703" y2="233.492"/><rect x="387.953" y="231.992" width="19.5" height="3"/><text class="cls-9" transform="translate(286.441 314.973)">0</text><text class="cls-9" transform="translate(300.441 203.973)">Spectrum</text><text class="cls-9" transform="translate(568.441 290.973)">[-]</text><path d="M657.248,407.246c.085-.361.4-1.643,1.38-1.643a1.372,1.372,0,0,1,.7.18.809.809,0,0,0-.668.753.484.484,0,0,0,.528.487.775.775,0,0,0,.751-.807c0-.725-.821-.92-1.294-.92a1.8,1.8,0,0,0-1.461,1.059,1.545,1.545,0,0,0-1.5-1.059c-1.448,0-2.243,1.8-2.243,2.145,0,.14.14.14.168.14.112,0,.154-.028.18-.153.475-1.477,1.393-1.825,1.866-1.825.265,0,.754.125.754.933a20.2,20.2,0,0,1-.754,3.315c-.221.863-.71,1.448-1.323,1.448a1.335,1.335,0,0,1-.7-.182.787.787,0,0,0,.654-.752.475.475,0,0,0-.514-.486.791.791,0,0,0-.767.806c0,.642.7.92,1.31.92a1.854,1.854,0,0,0,1.463-1.058,1.537,1.537,0,0,0,1.5,1.058c1.435,0,2.228-1.8,2.228-2.144,0-.14-.125-.14-.167-.14-.125,0-.153.056-.181.153-.458,1.489-1.407,1.825-1.852,1.825-.543,0-.766-.445-.766-.92a5.435,5.435,0,0,1,.236-1.225l.474-1.908" transform="translate(-301.297 -208.008)"/><polyline points="362.702 206.925 362.702 206.368 361.351 206.368 361.351 193.555 362.702 193.555 362.702 192.999 360.794 192.999 360.794 206.925 362.702 206.925"/><path d="M665.6,410.631c-.042.208-.125.527-.125.6a.373.373,0,0,0,.405.376.569.569,0,0,0,.515-.39c.013-.028.18-.683.265-1.031l.307-1.253c.083-.307.166-.612.237-.934.054-.236.166-.639.179-.7a2.775,2.775,0,0,1,2.272-1.7c.626,0,.751.515.751.975a13.338,13.338,0,0,1-.9,3.244,1.557,1.557,0,0,0-.141.642,1.114,1.114,0,0,0,1.142,1.141c1.31,0,1.824-2.033,1.824-2.144,0-.14-.125-.14-.166-.14-.14,0-.14.041-.208.251-.281.947-.739,1.727-1.422,1.727-.237,0-.335-.141-.335-.46a2.655,2.655,0,0,1,.252-.988,12.525,12.525,0,0,0,.85-3.065,1.424,1.424,0,0,0-1.6-1.49,2.691,2.691,0,0,0-2.173,1.212,1.259,1.259,0,0,0-1.281-1.212,1.218,1.218,0,0,0-1.045.793,7.039,7.039,0,0,0-.418,1.352c0,.14.14.14.168.14.138,0,.154-.015.237-.322.236-.988.515-1.656,1.016-1.656.278,0,.432.18.432.64a4.454,4.454,0,0,1-.224,1.17l-.808,3.218" transform="translate(-301.297 -208.008)"/><polyline points="373.703 192.999 371.795 192.999 371.795 193.555 373.147 193.555 373.147 206.368 371.795 206.368 371.795 206.925 373.703 206.925 373.703 192.999"/><path d="M864.917,493.167c0-.944-.26-2.936-1.72-2.936-1.991,0-4.2,4.04-4.2,7.32,0,1.345.415,2.936,1.719,2.936,2.019,0,4.2-4.112,4.2-7.32Zm-4.4,1.962a12.953,12.953,0,0,1,1.1-3.08c.388-.7.917-1.5,1.562-1.5.7,0,.788.917.788,1.733a11.927,11.927,0,0,1-.457,2.85Zm2.863.46a12.635,12.635,0,0,1-1,2.906c-.5.976-1.046,1.676-1.661,1.676-.473,0-.773-.414-.773-1.748a10.956,10.956,0,0,1,.458-2.834h2.978" transform="translate(-301.297 -208.008)"/><line class="cls-7" x1="6.703" y1="302.492" x2="567.528" y2="302.492"/><polygon points="566.069 307.478 574.703 302.492 566.069 297.506 566.069 307.478"/><line class="cls-7" x1="126.203" y1="109.492" x2="126.203" y2="111.992"/><line class="cls-10" x1="126.203" y1="116.951" x2="126.203" y2="352.512"/><line class="cls-7" x1="126.203" y1="354.992" x2="126.203" y2="357.492"/><line class="cls-7" x1="448.203" y1="172.474" x2="448.203" y2="174.974"/><line class="cls-11" x1="448.203" y1="179.84" x2="448.203" y2="352.559"/><line class="cls-7" x1="448.203" y1="354.992" x2="448.203" y2="357.492"/><line class="cls-7" x1="448.203" y1="109.492" x2="448.203" y2="111.992"/><line class="cls-12" x1="448.203" y1="117.361" x2="448.203" y2="136.152"/><line class="cls-7" x1="448.203" y1="138.837" x2="448.203" y2="141.337"/><path d="M477.722,526.031c.169,0,.347,0,.347-.2s-.178-.2-.347-.2h-5.375c-.169,0-.347,0-.347.2s.178.2.347.2h5.375" transform="translate(-301.297 -208.008)"/><path d="M481.436,520.85l1.053-1.022c1.55-1.372,2.147-1.908,2.147-2.9A1.951,1.951,0,0,0,482.53,515a1.835,1.835,0,0,0-1.858,1.8.522.522,0,1,0,1.042.03.5.5,0,0,0-.527-.517.413.413,0,0,0-.128.009,1.431,1.431,0,0,1,1.341-1.012c.905,0,1.331.8,1.331,1.618a3.559,3.559,0,0,1-1.043,2.2l-1.907,2.126c-.109.11-.109.128-.109.368h3.686l.278-1.728h-.249a.8.8,0,0,1-1.162.962h-1.789" transform="translate(-301.297 -208.008)"/><path d="M487.808,517.911h1.122a10.92,10.92,0,0,0-.418,2.562,3.108,3.108,0,0,0,.08.755c.1.438.21.5.358.5a.388.388,0,0,0,.347-.6,4.27,4.27,0,0,1-.288-1.639,7.843,7.843,0,0,1,.178-1.578h1.133c.13,0,.488,0,.488-.339,0-.238-.21-.238-.4-.238h-3.326a1.265,1.265,0,0,0-1.035.468,3.555,3.555,0,0,0-.6.893c0,.01,0,.1.118.1.08,0,.1-.039.16-.119a1.4,1.4,0,0,1,1.261-.764h.565a20.968,20.968,0,0,1-1.27,3.308c-.08.148-.08.169-.08.237a.271.271,0,0,0,.288.269c.3,0,.378-.278.5-.645.139-.458.139-.477.269-.974l.556-2.2" transform="translate(-301.297 -208.008)"/><path d="M485.956,531.619a1.915,1.915,0,0,0,1.391-1.749c0-.814-.875-1.37-1.828-1.37-1,0-1.758.6-1.758,1.35a.506.506,0,1,0,1.012.011c0-.5-.467-.5-.615-.5a1.61,1.61,0,0,1,1.322-.616c.406,0,.953.219.953,1.113a2.5,2.5,0,0,1-.278,1.133.962.962,0,0,1-.885.515c-.079.011-.317.03-.387.03s-.149.02-.149.12.069.108.238.108h.437c.814,0,1.183.677,1.183,1.65,0,1.35-.686,1.639-1.123,1.639a1.813,1.813,0,0,1-1.521-.754.546.546,0,0,0,.657-.547.557.557,0,1,0-1.113.02,1.812,1.812,0,0,0,2.006,1.559,2.026,2.026,0,0,0,2.116-1.917,1.916,1.916,0,0,0-1.658-1.8" transform="translate(-301.297 -208.008)"/><rect x="179.208" y="317.548" width="10.387" height="0.475"/><path d="M694.347,520.939l1.031-1.043c1.521-1.4,2.107-1.953,2.086-2.946a1.951,1.951,0,0,0-2.146-1.882,1.835,1.835,0,0,0-1.82,1.837.522.522,0,1,0,1.043.007.5.5,0,0,0-.538-.506.412.412,0,0,0-.128.012,1.433,1.433,0,0,1,1.32-1.04c.9-.019,1.347.777,1.364,1.591a3.55,3.55,0,0,1-1,2.216l-1.862,2.166c-.107.112-.106.131-.1.37l3.685-.077.242-1.734-.249,0a.8.8,0,0,1-1.142.987l-1.788.037" transform="translate(-301.297 -208.008)"/><path d="M700.656,517.868l1.121-.024a10.9,10.9,0,0,0-.363,2.571,3.1,3.1,0,0,0,.1.753c.109.435.22.492.368.489a.42.42,0,0,0,.4-.387.429.429,0,0,0-.065-.217,4.271,4.271,0,0,1-.322-1.633,7.786,7.786,0,0,1,.145-1.581l1.133-.024c.129,0,.487-.01.48-.349,0-.238-.214-.233-.4-.229l-3.326.069a1.269,1.269,0,0,0-1.025.489,3.562,3.562,0,0,0-.585.906c0,.01,0,.1.12.1.08,0,.1-.041.157-.122a1.4,1.4,0,0,1,1.245-.79l.565-.012a20.882,20.882,0,0,1-1.2,3.334c-.076.15-.076.17-.074.239a.271.271,0,0,0,.293.263c.3-.007.372-.286.483-.656.13-.461.129-.479.248-.979l.511-2.206" transform="translate(-301.297 -208.008)"/><path d="M699.091,531.611a1.916,1.916,0,0,0,1.354-1.777c-.017-.814-.9-1.352-1.856-1.332-1,.021-1.746.632-1.73,1.387a.507.507,0,1,0,1.013-.011c-.011-.5-.478-.487-.626-.483a1.61,1.61,0,0,1,1.309-.644c.406-.008.957.2.976,1.093a2.493,2.493,0,0,1-.255,1.138.959.959,0,0,1-.873.534c-.079.013-.317.036-.387.038s-.148.023-.146.123.071.107.24.1l.437-.009c.814-.017,1.2.652,1.217,1.625.029,1.35-.651,1.653-1.088,1.662a1.808,1.808,0,0,1-1.536-.723.544.544,0,0,0,.644-.56.556.556,0,1,0-1.111.043,1.812,1.812,0,0,0,2.038,1.518,2.027,2.027,0,0,0,2.075-1.961,1.917,1.917,0,0,0-1.695-1.764" transform="translate(-301.297 -208.008)"/><rect x="392.201" y="317.15" width="9.531" height="0.463"/><path d="M316.722,525.031c.169,0,.347,0,.347-.2s-.178-.2-.347-.2h-5.375c-.169,0-.347,0-.347.2s.178.2.347.2h5.375" transform="translate(-301.297 -208.008)"/><path d="M323.636,518.619a2.04,2.04,0,0,0-1.888-2.175,1.749,1.749,0,0,0-1.262.506v-1.937a3.172,3.172,0,0,0,.845.129,2.167,2.167,0,0,0,1.917-1.033.1.1,0,0,0-.1-.109.147.147,0,0,0-.079.03,3.3,3.3,0,0,1-1.35.287,3.217,3.217,0,0,1-1.322-.278.3.3,0,0,0-.119-.03c-.1,0-.1.08-.1.239v2.941c0,.178,0,.258.139.258.07,0,.089-.03.13-.089a1.487,1.487,0,0,1,1.281-.695.971.971,0,0,1,.844.635,3.056,3.056,0,0,1,.18,1.252,2.882,2.882,0,0,1-.239,1.361,1.244,1.244,0,0,1-1.063.645,1.548,1.548,0,0,1-1.461-1.112.468.468,0,0,0,.169.02.488.488,0,1,0-.486-.448,1.824,1.824,0,0,0,1.8,1.818,2.194,2.194,0,0,0,2.166-2.215" transform="translate(-301.297 -208.008)"/><path d="M326.808,516.911h1.122a10.92,10.92,0,0,0-.418,2.562,3.108,3.108,0,0,0,.08.755c.1.438.21.5.358.5a.388.388,0,0,0,.347-.6,4.27,4.27,0,0,1-.288-1.639,7.843,7.843,0,0,1,.178-1.578h1.133c.13,0,.488,0,.488-.339,0-.238-.21-.238-.4-.238h-3.326a1.265,1.265,0,0,0-1.035.468,3.555,3.555,0,0,0-.6.893c0,.01,0,.1.118.1.08,0,.1-.039.16-.119a1.4,1.4,0,0,1,1.261-.764h.565a20.968,20.968,0,0,1-1.27,3.308c-.08.148-.08.169-.08.237a.271.271,0,0,0,.288.269c.3,0,.378-.278.5-.645.139-.458.139-.477.269-.974l.556-2.2" transform="translate(-301.297 -208.008)"/><path d="M324.956,530.619a1.915,1.915,0,0,0,1.391-1.749c0-.814-.875-1.37-1.828-1.37-1,0-1.758.6-1.758,1.35a.506.506,0,1,0,1.012.011c0-.5-.467-.5-.615-.5a1.61,1.61,0,0,1,1.322-.616c.406,0,.953.219.953,1.113a2.5,2.5,0,0,1-.278,1.133.962.962,0,0,1-.885.515c-.079.011-.317.03-.387.03s-.149.02-.149.12.069.108.238.108h.437c.814,0,1.183.677,1.183,1.65,0,1.35-.686,1.639-1.123,1.639a1.813,1.813,0,0,1-1.521-.754.546.546,0,0,0,.657-.547.557.557,0,1,0-1.113.02,1.812,1.812,0,0,0,2.006,1.559,2.026,2.026,0,0,0,2.116-1.917,1.916,1.916,0,0,0-1.658-1.8" transform="translate(-301.297 -208.008)"/><path d="M844.636,518.619a2.04,2.04,0,0,0-1.888-2.175,1.749,1.749,0,0,0-1.262.506v-1.937a3.172,3.172,0,0,0,.845.129,2.167,2.167,0,0,0,1.917-1.033.1.1,0,0,0-.1-.109.147.147,0,0,0-.079.03,3.3,3.3,0,0,1-1.35.287,3.217,3.217,0,0,1-1.322-.278.3.3,0,0,0-.119-.03c-.1,0-.1.08-.1.239v2.941c0,.178,0,.258.139.258.07,0,.089-.03.13-.089a1.487,1.487,0,0,1,1.281-.695.971.971,0,0,1,.844.635,3.056,3.056,0,0,1,.18,1.252,2.882,2.882,0,0,1-.239,1.361,1.244,1.244,0,0,1-1.063.645,1.548,1.548,0,0,1-1.461-1.112.468.468,0,0,0,.169.02.488.488,0,1,0-.486-.448,1.824,1.824,0,0,0,1.8,1.818,2.194,2.194,0,0,0,2.166-2.215" transform="translate(-301.297 -208.008)"/><path d="M847.808,516.911h1.122a10.92,10.92,0,0,0-.418,2.562,3.108,3.108,0,0,0,.08.755c.1.438.21.5.358.5a.388.388,0,0,0,.347-.6,4.27,4.27,0,0,1-.288-1.639,7.843,7.843,0,0,1,.178-1.578h1.133c.13,0,.488,0,.488-.339,0-.238-.21-.238-.4-.238h-3.326a1.265,1.265,0,0,0-1.035.468,3.555,3.555,0,0,0-.6.893c0,.01,0,.1.118.1.08,0,.1-.039.16-.119a1.4,1.4,0,0,1,1.261-.764h.565a20.968,20.968,0,0,1-1.27,3.308c-.08.148-.08.169-.08.237a.271.271,0,0,0,.288.269c.3,0,.378-.278.5-.645.139-.458.139-.477.269-.974l.556-2.2" transform="translate(-301.297 -208.008)"/><path d="M845.956,530.619a1.915,1.915,0,0,0,1.391-1.749c0-.814-.875-1.37-1.828-1.37-1,0-1.758.6-1.758,1.35a.506.506,0,1,0,1.012.011c0-.5-.467-.5-.615-.5a1.61,1.61,0,0,1,1.322-.616c.406,0,.953.219.953,1.113a2.5,2.5,0,0,1-.278,1.133.962.962,0,0,1-.885.515c-.079.011-.317.03-.387.03s-.149.02-.149.12.069.108.238.108h.437c.814,0,1.183.677,1.183,1.65,0,1.35-.686,1.639-1.123,1.639a1.813,1.813,0,0,1-1.521-.754.546.546,0,0,0,.657-.547.557.557,0,1,0-1.113.02,1.812,1.812,0,0,0,2.006,1.559,2.026,2.026,0,0,0,2.116-1.917,1.916,1.916,0,0,0-1.658-1.8" transform="translate(-301.297 -208.008)"/><rect x="539.284" y="316.548" width="10.603" height="0.471"/><path d="M691,241.938l1.378-1.336c2.027-1.794,2.807-2.5,2.807-3.8a2.552,2.552,0,0,0-2.754-2.519A2.4,2.4,0,0,0,690,236.64a.682.682,0,1,0,1.363.039.657.657,0,0,0-.689-.677.527.527,0,0,0-.167.012,1.871,1.871,0,0,1,1.753-1.324c1.183,0,1.741,1.053,1.741,2.117a4.65,4.65,0,0,1-1.365,2.871l-2.493,2.782c-.143.143-.143.167-.143.48h4.821l.363-2.26h-.325a4.317,4.317,0,0,1-.286,1.156,4.313,4.313,0,0,1-1.234.1H691" transform="translate(-301.297 -208.008)"/><path d="M698.45,239.938a5.838,5.838,0,0,0,1.988-.3,1.478,1.478,0,0,0,.973-1.339c0-.57-.493-1.1-1.39-1.1a3.536,3.536,0,0,0-3.4,3.533,2.107,2.107,0,0,0,2.041,2.352,3.468,3.468,0,0,0,2.949-1.533.181.181,0,0,0-.157-.169c-.064,0-.09.026-.168.13a3.39,3.39,0,0,1-2.6,1.286c-1.014,0-1.13-1.091-1.13-1.506a5.73,5.73,0,0,1,.208-1.353Zm-.611-.284c.507-1.976,1.845-2.17,2.182-2.17a.858.858,0,0,1,.963.817c0,1.353-2.081,1.353-2.612,1.353h-.533" transform="translate(-301.297 -208.008)"/><path d="M706.072,231.7a.353.353,0,0,0-.368-.35.546.546,0,0,0-.515.5.352.352,0,0,0,.368.349.544.544,0,0,0,.515-.5Zm-1.95,6.195a1.4,1.4,0,0,1-1.185,1.169.95.95,0,0,1-.331-.055.526.526,0,0,0,.313-.47.338.338,0,0,0-.36-.339.539.539,0,0,0-.523.541c0,.35.358.581.909.581a1.989,1.989,0,0,0,1.913-1.453l.828-3.292a1.061,1.061,0,0,0,.047-.321.907.907,0,0,0-.985-.864c-1.02,0-1.608,1.277-1.608,1.406s.128.12.155.12c.11,0,.12-.028.184-.165.231-.534.709-1.1,1.242-1.1.229,0,.313.155.313.45a1.581,1.581,0,0,1-.029.276l-.883,3.52" transform="translate(-301.297 -208.008)"/><path d="M712.965,231.705a.392.392,0,0,0,.275-.066.359.359,0,0,0,.107-.224c0-.211-.2-.211-.311-.211h-2.83a1.172,1.172,0,0,0-.83.329,2.122,2.122,0,0,0-.476.574c0,.092.092.092.133.092.092,0,.092-.006.145-.065a1.136,1.136,0,0,1,.942-.429h.47a9.548,9.548,0,0,1-.805,1.927c-.1.171-.1.184-.1.249a.236.236,0,0,0,.251.239c.278,0,.37-.3.521-.838.151-.515.27-.991.423-1.577h.863a6.3,6.3,0,0,0-.211,1.338c0,.456.166,1.077.456,1.077a.363.363,0,0,0,.343-.325.323.323,0,0,0-.074-.184,2.381,2.381,0,0,1-.3-1.193,4.419,4.419,0,0,1,.072-.713h.938" transform="translate(-301.297 -208.008)"/><path d="M713.036,239.511v-.29h-.823v-2.9c0-.159-.007-.2-.178-.2-.133,0-.139.006-.211.1l-2.442,3v.29h2.2v.515c0,.2,0,.27-.574.27h-.231v.29c.311-.013.74-.027,1.122-.027s.805.014,1.122.027v-.29h-.231c-.574,0-.574-.066-.574-.27v-.515Zm-1.4-2.679v2.389h-1.939l1.939-2.389Z" transform="translate(-301.297 -208.008)"/><rect x="407.112" y="26.973" width="5.532" height="0.463"/><path d="M689,436.938l1.378-1.336c2.027-1.794,2.807-2.495,2.807-3.795a2.552,2.552,0,0,0-2.754-2.519A2.4,2.4,0,0,0,688,431.64a.682.682,0,1,0,1.363.039.657.657,0,0,0-.689-.677.527.527,0,0,0-.167.012,1.871,1.871,0,0,1,1.753-1.324c1.183,0,1.741,1.053,1.741,2.117a4.65,4.65,0,0,1-1.365,2.871l-2.493,2.782c-.143.143-.143.167-.143.48h4.821l.363-2.26h-.325a1.041,1.041,0,0,1-1.52,1.258H689" transform="translate(-301.297 -208.008)"/><path d="M696.45,434.938a5.838,5.838,0,0,0,1.988-.3,1.478,1.478,0,0,0,.973-1.339c0-.57-.493-1.1-1.39-1.1a3.536,3.536,0,0,0-3.4,3.533,2.107,2.107,0,0,0,2.041,2.352,3.468,3.468,0,0,0,2.949-1.533.181.181,0,0,0-.157-.169c-.064,0-.09.026-.168.13a3.39,3.39,0,0,1-2.6,1.286c-1.014,0-1.13-1.091-1.13-1.506a5.73,5.73,0,0,1,.208-1.353Zm-.611-.284c.507-1.976,1.845-2.17,2.182-2.17a.858.858,0,0,1,.963.817c0,1.353-2.081,1.353-2.612,1.353h-.533" transform="translate(-301.297 -208.008)"/><path d="M704.072,426.7a.353.353,0,0,0-.368-.35.546.546,0,0,0-.515.5.352.352,0,0,0,.368.349.544.544,0,0,0,.515-.5Zm-1.95,6.195a1.4,1.4,0,0,1-1.185,1.169.95.95,0,0,1-.331-.055.526.526,0,0,0,.313-.47.338.338,0,0,0-.36-.339.539.539,0,0,0-.523.541c0,.35.358.581.909.581a1.989,1.989,0,0,0,1.913-1.453l.828-3.292a1.061,1.061,0,0,0,.047-.321.907.907,0,0,0-.985-.864c-1.02,0-1.608,1.277-1.608,1.406s.128.12.155.12c.11,0,.12-.028.184-.165.231-.534.709-1.1,1.242-1.1.229,0,.313.155.313.45a1.581,1.581,0,0,1-.029.276l-.883,3.52" transform="translate(-301.297 -208.008)"/><path d="M710.965,426.705a.392.392,0,0,0,.275-.066.359.359,0,0,0,.107-.224c0-.211-.2-.211-.311-.211h-2.83a1.172,1.172,0,0,0-.83.329,2.122,2.122,0,0,0-.476.574c0,.092.092.092.133.092.092,0,.092-.006.145-.065a1.136,1.136,0,0,1,.942-.429h.47a9.548,9.548,0,0,1-.805,1.927c-.1.171-.1.184-.1.249a.236.236,0,0,0,.251.239c.278,0,.37-.3.521-.838.151-.515.27-.991.423-1.577h.863a6.3,6.3,0,0,0-.211,1.338c0,.456.166,1.077.456,1.077a.363.363,0,0,0,.343-.325.323.323,0,0,0-.074-.184,2.381,2.381,0,0,1-.3-1.193,4.419,4.419,0,0,1,.072-.713h.938" transform="translate(-301.297 -208.008)"/><path d="M711.036,434.511v-.29h-.823v-2.9c0-.159-.007-.2-.178-.2-.133,0-.139.006-.211.1l-2.442,3v.29h2.2v.515c0,.2,0,.27-.574.27h-.231v.29c.311-.013.74-.027,1.122-.027s.805.014,1.122.027v-.29h-.231c-.574,0-.574-.066-.574-.27v-.515Zm-1.4-2.679v2.389h-1.939l1.939-2.389Z" transform="translate(-301.297 -208.008)"/><rect x="405.146" y="221.742" width="5.532" height="0.463"/><path d="M469.026,241.908l1.415-1.373c2.081-1.842,2.883-2.562,2.883-3.9a2.621,2.621,0,0,0-2.829-2.587,2.464,2.464,0,0,0-2.5,2.415.7.7,0,1,0,1.4.04.675.675,0,0,0-.707-.694.566.566,0,0,0-.173.012,1.923,1.923,0,0,1,1.8-1.36c1.215,0,1.788,1.081,1.788,2.174a4.774,4.774,0,0,1-1.4,2.949l-2.56,2.856c-.147.147-.147.172-.147.493h4.95l.374-2.321h-.334a4.432,4.432,0,0,1-.294,1.188,4.414,4.414,0,0,1-1.267.1h-2.4" transform="translate(-301.297 -208.008)"/><path d="M476.543,239.853a5.98,5.98,0,0,0,2.042-.306,1.516,1.516,0,0,0,1-1.375c0-.585-.506-1.133-1.427-1.133a3.632,3.632,0,0,0-3.5,3.628,2.165,2.165,0,0,0,2.1,2.416,3.564,3.564,0,0,0,3.028-1.574.186.186,0,0,0-.161-.174c-.065,0-.093.027-.172.134a3.483,3.483,0,0,1-2.67,1.32c-1.041,0-1.16-1.121-1.16-1.547a5.854,5.854,0,0,1,.214-1.389Zm-.627-.291c.52-2.03,1.894-2.229,2.241-2.229a.881.881,0,0,1,.988.839c0,1.39-2.136,1.39-2.682,1.39h-.547" transform="translate(-301.297 -208.008)"/><path d="M487.384,235.161c.151,0,.378,0,.378-.227s-.217-.235-.378-.235h-5.626c-.151,0-.378,0-.378.227s.216.235.378.235h5.626" transform="translate(-301.297 -208.008)"/><path d="M492.966,231.394a.363.363,0,0,0-.378-.359.561.561,0,0,0-.529.519.362.362,0,0,0,.378.359.559.559,0,0,0,.529-.519Zm-2,6.363a1.445,1.445,0,0,1-1.217,1.2,1,1,0,0,1-.34-.056.542.542,0,0,0,.321-.483.347.347,0,0,0-.369-.349.554.554,0,0,0-.538.557c0,.358.368.6.934.6a2.042,2.042,0,0,0,1.964-1.492l.85-3.381a1.053,1.053,0,0,0,.049-.33.932.932,0,0,0-1.012-.887c-1.047,0-1.651,1.311-1.651,1.443s.132.124.159.124c.113,0,.124-.029.189-.17.237-.547.728-1.133,1.276-1.133.235,0,.321.16.321.462a1.541,1.541,0,0,1-.03.283l-.906,3.616" transform="translate(-301.297 -208.008)"/><path d="M500.044,231.4a.407.407,0,0,0,.283-.067.373.373,0,0,0,.109-.231c0-.216-.2-.216-.319-.216h-2.906a1.2,1.2,0,0,0-.852.338,2.178,2.178,0,0,0-.489.59c0,.094.095.094.137.094.094,0,.094-.006.149-.067a1.165,1.165,0,0,1,.967-.441h.483a9.824,9.824,0,0,1-.827,1.979c-.1.177-.1.189-.1.256a.242.242,0,0,0,.258.246c.285,0,.38-.313.535-.861.156-.528.277-1.017.435-1.62h.885a6.553,6.553,0,0,0-.216,1.375c0,.468.17,1.106.468,1.106a.374.374,0,0,0,.353-.334.341.341,0,0,0-.076-.189,2.441,2.441,0,0,1-.311-1.225,4.553,4.553,0,0,1,.074-.733h.963" transform="translate(-301.297 -208.008)"/><path d="M499.983,239.415v-.3h-.845v-2.98c0-.164-.007-.2-.183-.2-.136,0-.143.007-.216.1l-2.508,3.083v.3h2.256v.528c0,.21,0,.277-.59.277h-.237v.3c.319-.012.76-.027,1.152-.027s.827.015,1.152.027v-.3h-.237c-.589,0-.589-.067-.589-.277v-.528Zm-1.441-2.751v2.453H496.55l1.992-2.453Z" transform="translate(-301.297 -208.008)"/><path d="M469.026,435.908l1.415-1.373c2.081-1.842,2.883-2.562,2.883-3.9a2.621,2.621,0,0,0-2.829-2.587,2.464,2.464,0,0,0-2.5,2.415.7.7,0,1,0,1.4.04.675.675,0,0,0-.707-.694.566.566,0,0,0-.173.012,1.923,1.923,0,0,1,1.8-1.36c1.215,0,1.788,1.081,1.788,2.174a4.774,4.774,0,0,1-1.4,2.949l-2.56,2.856c-.147.147-.147.172-.147.493h4.95l.374-2.321h-.334a1.07,1.07,0,0,1-1.561,1.293h-2.4" transform="translate(-301.297 -208.008)"/><path d="M476.543,433.853a5.98,5.98,0,0,0,2.042-.306,1.516,1.516,0,0,0,1-1.375c0-.585-.506-1.133-1.427-1.133a3.632,3.632,0,0,0-3.5,3.628,2.165,2.165,0,0,0,2.1,2.416,3.564,3.564,0,0,0,3.028-1.574.186.186,0,0,0-.161-.174c-.065,0-.093.027-.172.134a3.483,3.483,0,0,1-2.67,1.32c-1.041,0-1.16-1.121-1.16-1.547a5.854,5.854,0,0,1,.214-1.389Zm-.627-.291c.52-2.03,1.894-2.229,2.241-2.229a.881.881,0,0,1,.988.839c0,1.39-2.136,1.39-2.682,1.39h-.547" transform="translate(-301.297 -208.008)"/><path d="M487.384,429.161c.151,0,.378,0,.378-.227s-.217-.235-.378-.235h-5.626c-.151,0-.378,0-.378.227s.216.235.378.235h5.626" transform="translate(-301.297 -208.008)"/><path d="M492.966,425.394a.363.363,0,0,0-.378-.359.561.561,0,0,0-.529.519.362.362,0,0,0,.378.359.559.559,0,0,0,.529-.519Zm-2,6.363a1.445,1.445,0,0,1-1.217,1.2,1,1,0,0,1-.34-.056.542.542,0,0,0,.321-.483.347.347,0,0,0-.369-.349.554.554,0,0,0-.538.557c0,.358.368.6.934.6a2.042,2.042,0,0,0,1.964-1.492l.85-3.381a1.053,1.053,0,0,0,.049-.33.932.932,0,0,0-1.012-.887c-1.047,0-1.651,1.311-1.651,1.443s.132.124.159.124c.113,0,.124-.029.189-.17.237-.547.728-1.133,1.276-1.133.235,0,.321.16.321.462a1.541,1.541,0,0,1-.03.283l-.906,3.616" transform="translate(-301.297 -208.008)"/><path d="M500.044,425.4a.407.407,0,0,0,.283-.067.373.373,0,0,0,.109-.231c0-.216-.2-.216-.319-.216h-2.906a1.2,1.2,0,0,0-.852.338,2.178,2.178,0,0,0-.489.59c0,.094.095.094.137.094.094,0,.094-.006.149-.067a1.165,1.165,0,0,1,.967-.441h.483a9.824,9.824,0,0,1-.827,1.979c-.1.177-.1.189-.1.256a.242.242,0,0,0,.258.246c.285,0,.38-.313.535-.861.156-.528.277-1.017.435-1.62h.885a6.553,6.553,0,0,0-.216,1.375c0,.468.17,1.106.468,1.106a.374.374,0,0,0,.353-.334.341.341,0,0,0-.076-.189,2.441,2.441,0,0,1-.311-1.225,4.553,4.553,0,0,1,.074-.733h.963" transform="translate(-301.297 -208.008)"/><rect x="194.091" y="220.921" width="5.532" height="0.463"/><path d="M499.983,433.415v-.3h-.845v-2.98c0-.164-.007-.2-.183-.2-.136,0-.143.007-.216.1l-2.508,3.083v.3h2.256v.528c0,.21,0,.277-.59.277h-.237v.3c.319-.012.76-.027,1.152-.027s.827.015,1.152.027v-.3h-.237c-.589,0-.589-.067-.589-.277v-.528Zm-1.441-2.751v2.453H496.55l1.992-2.453Z" transform="translate(-301.297 -208.008)"/><path d="M833.149,247.363c0-.334,0-.363-.321-.363a3.454,3.454,0,0,1-2.543.894v.433a4.2,4.2,0,0,0,1.831-.362V255.2c0,.5-.042.671-1.3.671h-.446v.432c.488-.041,1.7-.041,2.263-.041s1.773,0,2.263.041v-.432h-.448c-1.257,0-1.3-.154-1.3-.671v-7.837" transform="translate(-301.297 -208.008)"/><path d="M834.728,266.558a.5.5,0,0,0-.531-.5.8.8,0,0,0-.741.741.487.487,0,0,0,.519.5.8.8,0,0,0,.753-.739Zm-2.808,9.429c-.266,1.061-.936,1.857-1.718,1.857a1.175,1.175,0,0,1-.545-.125.794.794,0,0,0,.628-.741.487.487,0,0,0-.529-.488.779.779,0,0,0-.756.8c0,.558.56.866,1.231.866a2.846,2.846,0,0,0,2.625-2.123l1.286-5.113a2.126,2.126,0,0,0,.07-.517,1.239,1.239,0,0,0-1.285-1.285c-1.426,0-2.222,2.026-2.222,2.151,0,.141.141.141.167.141.125,0,.141-.016.253-.282.349-.85.991-1.7,1.76-1.7.2,0,.446.054.446.641a2.638,2.638,0,0,1-.1.714l-1.314,5.21" transform="translate(-301.297 -208.008)"/><path d="M840.373,262.5a6.265,6.265,0,0,0,2.138-.321,1.587,1.587,0,0,0,1.046-1.439c0-.613-.529-1.187-1.494-1.187a3.8,3.8,0,0,0-3.661,3.8,2.267,2.267,0,0,0,2.2,2.529,3.73,3.73,0,0,0,3.17-1.648.194.194,0,0,0-.169-.182c-.068,0-.1.029-.18.141a3.646,3.646,0,0,1-2.795,1.382c-1.09,0-1.215-1.174-1.215-1.62a6.145,6.145,0,0,1,.224-1.454Zm-.657-.306c.545-2.124,1.985-2.333,2.347-2.333a.922.922,0,0,1,1.035.879c0,1.454-2.237,1.454-2.808,1.454h-.574" transform="translate(-301.297 -208.008)"/><path d="M851.725,257.725c.158,0,.395,0,.395-.237s-.226-.246-.395-.246h-5.891c-.158,0-.4,0-.4.237s.227.246.4.246h5.891" transform="translate(-301.297 -208.008)"/><path d="M857.57,253.781a.38.38,0,0,0-.4-.376.588.588,0,0,0-.554.543.379.379,0,0,0,.4.376.585.585,0,0,0,.554-.543Zm-2.1,6.662A1.51,1.51,0,0,1,854.2,261.7a1.039,1.039,0,0,1-.356-.059.566.566,0,0,0,.336-.506.363.363,0,0,0-.387-.364.579.579,0,0,0-.562.582c0,.376.384.624.978.624a2.138,2.138,0,0,0,2.056-1.562l.89-3.54a1.116,1.116,0,0,0,.051-.345.976.976,0,0,0-1.059-.93c-1.1,0-1.729,1.374-1.729,1.512s.138.13.167.13c.118,0,.129-.031.2-.178.249-.574.763-1.187,1.336-1.187.246,0,.336.167.336.484a1.69,1.69,0,0,1-.03.3l-.95,3.786" transform="translate(-301.297 -208.008)"/><path d="M864.981,253.5a.429.429,0,0,0,.3-.07.391.391,0,0,0,.114-.242c0-.226-.213-.226-.334-.226h-3.043a1.26,1.26,0,0,0-.892.353,2.275,2.275,0,0,0-.512.618c0,.1.1.1.143.1.1,0,.1-.007.156-.07a1.22,1.22,0,0,1,1.013-.462h.5a10.2,10.2,0,0,1-.866,2.072c-.107.185-.107.2-.107.268a.253.253,0,0,0,.27.257c.3,0,.4-.327.56-.9.163-.553.29-1.065.455-1.7h.927a6.878,6.878,0,0,0-.226,1.439c0,.49.178,1.158.49,1.158a.39.39,0,0,0,.369-.349.349.349,0,0,0-.079-.2,2.561,2.561,0,0,1-.325-1.283,4.747,4.747,0,0,1,.077-.767h1.008" transform="translate(-301.297 -208.008)"/><path d="M862.883,260.988a1.107,1.107,0,0,1,.007,2.213,2.118,2.118,0,0,1-1.284-.369.417.417,0,0,0,.376-.433.436.436,0,1,0-.872.013c0,.738.837,1.079,1.8,1.079,1.163,0,1.888-.7,1.888-1.391,0-.58-.519-1.077-1.327-1.261.85-.277,1.079-.815,1.079-1.213,0-.583-.725-1.015-1.618-1.015-.872,0-1.575.369-1.575,1.008a.4.4,0,1,0,.809.013.392.392,0,0,0-.341-.4,1.659,1.659,0,0,1,1.085-.347c.519,0,.888.261.888.745a1.074,1.074,0,0,1-1.015,1.1c-.2.007-.226.016-.411.023-.079.006-.156.013-.156.12s.07.121.2.121h.468" transform="translate(-301.297 -208.008)"/><rect x="558.939" y="49.002" width="5.532" height="0.463"/><path d="M834.149,441.363c0-.334,0-.363-.321-.363a3.454,3.454,0,0,1-2.543.894v.433a4.2,4.2,0,0,0,1.831-.362V449.2c0,.5-.042.671-1.3.671h-.446v.432c.488-.041,1.7-.041,2.263-.041s1.773,0,2.263.041v-.432h-.448c-1.257,0-1.3-.154-1.3-.671v-7.837" transform="translate(-301.297 -208.008)"/><path d="M835.728,460.558a.5.5,0,0,0-.531-.5.8.8,0,0,0-.741.741.487.487,0,0,0,.519.5.8.8,0,0,0,.753-.739Zm-2.808,9.429c-.266,1.061-.936,1.857-1.718,1.857a1.175,1.175,0,0,1-.545-.125.794.794,0,0,0,.628-.741.487.487,0,0,0-.529-.488.779.779,0,0,0-.756.8c0,.558.56.866,1.231.866a2.846,2.846,0,0,0,2.625-2.123l1.286-5.113a2.126,2.126,0,0,0,.07-.517,1.239,1.239,0,0,0-1.285-1.285c-1.426,0-2.222,2.026-2.222,2.151,0,.141.141.141.167.141.125,0,.141-.016.253-.282.349-.85.991-1.7,1.76-1.7.2,0,.446.054.446.641a2.638,2.638,0,0,1-.1.714l-1.314,5.21" transform="translate(-301.297 -208.008)"/><path d="M841.373,456.5a6.265,6.265,0,0,0,2.138-.321,1.587,1.587,0,0,0,1.046-1.439c0-.613-.529-1.187-1.494-1.187a3.8,3.8,0,0,0-3.661,3.8,2.267,2.267,0,0,0,2.2,2.529,3.73,3.73,0,0,0,3.17-1.648.194.194,0,0,0-.169-.182c-.068,0-.1.029-.18.141a3.646,3.646,0,0,1-2.795,1.382c-1.09,0-1.215-1.174-1.215-1.62a6.145,6.145,0,0,1,.224-1.454Zm-.657-.306c.545-2.124,1.985-2.333,2.347-2.333a.922.922,0,0,1,1.035.879c0,1.454-2.237,1.454-2.808,1.454h-.574" transform="translate(-301.297 -208.008)"/><path d="M852.725,451.725c.158,0,.395,0,.395-.237s-.226-.246-.395-.246h-5.891c-.158,0-.4,0-.4.237s.227.246.4.246h5.891" transform="translate(-301.297 -208.008)"/><path d="M858.57,447.781a.38.38,0,0,0-.4-.376.588.588,0,0,0-.554.543.379.379,0,0,0,.4.376.585.585,0,0,0,.554-.543Zm-2.1,6.662A1.51,1.51,0,0,1,855.2,455.7a1.039,1.039,0,0,1-.356-.059.566.566,0,0,0,.336-.506.363.363,0,0,0-.387-.364.579.579,0,0,0-.562.582c0,.376.384.624.978.624a2.138,2.138,0,0,0,2.056-1.562l.89-3.54a1.116,1.116,0,0,0,.051-.345.976.976,0,0,0-1.059-.93c-1.1,0-1.729,1.374-1.729,1.512s.138.13.167.13c.118,0,.129-.031.2-.178.249-.574.763-1.187,1.336-1.187.246,0,.336.167.336.484a1.69,1.69,0,0,1-.03.3l-.95,3.786" transform="translate(-301.297 -208.008)"/><path d="M865.981,447.5a.429.429,0,0,0,.3-.07.391.391,0,0,0,.114-.242c0-.226-.213-.226-.334-.226h-3.043a1.26,1.26,0,0,0-.892.353,2.275,2.275,0,0,0-.512.618c0,.1.1.1.143.1.1,0,.1-.007.156-.07a1.22,1.22,0,0,1,1.013-.462h.5a10.2,10.2,0,0,1-.866,2.072c-.107.185-.107.2-.107.268a.253.253,0,0,0,.27.257c.3,0,.4-.327.56-.9.163-.553.29-1.065.455-1.7h.927a6.878,6.878,0,0,0-.226,1.439c0,.49.178,1.158.49,1.158a.39.39,0,0,0,.369-.349.349.349,0,0,0-.079-.2,2.561,2.561,0,0,1-.325-1.283,4.747,4.747,0,0,1,.077-.767h1.008" transform="translate(-301.297 -208.008)"/><path d="M863.883,454.988a1.107,1.107,0,0,1,.007,2.213,2.118,2.118,0,0,1-1.284-.369.417.417,0,0,0,.376-.433.436.436,0,1,0-.872.013c0,.738.837,1.079,1.8,1.079,1.163,0,1.888-.7,1.888-1.391,0-.58-.519-1.077-1.327-1.261.85-.277,1.079-.815,1.079-1.213,0-.583-.725-1.015-1.618-1.015-.872,0-1.575.369-1.575,1.008a.4.4,0,1,0,.809.013.392.392,0,0,0-.341-.4,1.659,1.659,0,0,1,1.085-.347c.519,0,.888.261.888.745a1.074,1.074,0,0,1-1.015,1.1c-.2.007-.226.016-.411.023-.079.006-.156.013-.156.12s.07.121.2.121h.468" transform="translate(-301.297 -208.008)"/><rect x="559.939" y="243.002" width="5.532" height="0.463"/><rect x="528.728" y="247.87" width="7.5" height="0.627"/><text class="cls-9" transform="translate(535.441 120.973)">500</text><text class="cls-9" transform="translate(12.441 120.973)">-500</text><path d="M522.149,438.363c0-.334,0-.363-.321-.363a3.454,3.454,0,0,1-2.543.894v.433a4.2,4.2,0,0,0,1.831-.362V446.2c0,.5-.042.671-1.3.671h-.446v.432c.488-.041,1.7-.041,2.263-.041s1.773,0,2.263.041v-.432h-.448c-1.257,0-1.3-.154-1.3-.671v-7.837" transform="translate(-301.297 -208.008)"/><path d="M523.728,457.558a.5.5,0,0,0-.531-.5.8.8,0,0,0-.741.741.487.487,0,0,0,.519.5.8.8,0,0,0,.753-.739Zm-2.808,9.429c-.266,1.061-.936,1.857-1.718,1.857a1.175,1.175,0,0,1-.545-.125.794.794,0,0,0,.628-.741.487.487,0,0,0-.529-.488.779.779,0,0,0-.756.8c0,.558.56.866,1.231.866a2.846,2.846,0,0,0,2.625-2.123l1.286-5.113a2.126,2.126,0,0,0,.07-.517,1.239,1.239,0,0,0-1.285-1.285c-1.426,0-2.222,2.026-2.222,2.151,0,.141.141.141.167.141.125,0,.141-.016.253-.282.349-.85.991-1.7,1.76-1.7.2,0,.446.054.446.641a2.638,2.638,0,0,1-.1.714l-1.314,5.21" transform="translate(-301.297 -208.008)"/><path d="M529.373,453.5a6.265,6.265,0,0,0,2.138-.321,1.587,1.587,0,0,0,1.046-1.439c0-.613-.529-1.187-1.494-1.187a3.8,3.8,0,0,0-3.661,3.8,2.267,2.267,0,0,0,2.2,2.529,3.73,3.73,0,0,0,3.17-1.648.194.194,0,0,0-.169-.182c-.068,0-.1.029-.18.141a3.646,3.646,0,0,1-2.795,1.382c-1.09,0-1.215-1.174-1.215-1.62a6.145,6.145,0,0,1,.224-1.454Zm-.657-.306c.545-2.124,1.985-2.333,2.347-2.333a.922.922,0,0,1,1.035.879c0,1.454-2.237,1.454-2.808,1.454h-.574" transform="translate(-301.297 -208.008)"/><path d="M540.725,448.725c.158,0,.395,0,.395-.237s-.226-.246-.395-.246h-5.891c-.158,0-.4,0-.4.237s.227.246.4.246h5.891" transform="translate(-301.297 -208.008)"/><path d="M546.57,444.781a.38.38,0,0,0-.4-.376.588.588,0,0,0-.554.543.379.379,0,0,0,.4.376.585.585,0,0,0,.554-.543Zm-2.1,6.662A1.51,1.51,0,0,1,543.2,452.7a1.039,1.039,0,0,1-.356-.059.566.566,0,0,0,.336-.506.363.363,0,0,0-.387-.364.579.579,0,0,0-.562.582c0,.376.384.624.978.624a2.138,2.138,0,0,0,2.056-1.562l.89-3.54a1.116,1.116,0,0,0,.051-.345.976.976,0,0,0-1.059-.93c-1.1,0-1.729,1.374-1.729,1.512s.138.13.167.13c.118,0,.129-.031.2-.178.249-.574.763-1.187,1.336-1.187.246,0,.336.167.336.484a1.69,1.69,0,0,1-.03.3l-.95,3.786" transform="translate(-301.297 -208.008)"/><path d="M553.981,444.5a.429.429,0,0,0,.3-.07.391.391,0,0,0,.114-.242c0-.226-.213-.226-.334-.226h-3.043a1.26,1.26,0,0,0-.892.353,2.275,2.275,0,0,0-.512.618c0,.1.1.1.143.1.1,0,.1-.007.156-.07a1.22,1.22,0,0,1,1.013-.462h.5a10.2,10.2,0,0,1-.866,2.072c-.107.185-.107.2-.107.268a.253.253,0,0,0,.27.257c.3,0,.4-.327.56-.9.163-.553.29-1.065.455-1.7h.927a6.878,6.878,0,0,0-.226,1.439c0,.49.178,1.158.49,1.158a.39.39,0,0,0,.369-.349.349.349,0,0,0-.079-.2,2.561,2.561,0,0,1-.325-1.283,4.747,4.747,0,0,1,.077-.767h1.008" transform="translate(-301.297 -208.008)"/><path d="M551.883,451.988a1.107,1.107,0,0,1,.007,2.213,2.118,2.118,0,0,1-1.284-.369.417.417,0,0,0,.376-.433.436.436,0,1,0-.872.013c0,.738.837,1.079,1.8,1.079,1.163,0,1.888-.7,1.888-1.391,0-.58-.519-1.077-1.327-1.261.85-.277,1.079-.815,1.079-1.213,0-.583-.725-1.015-1.618-1.015-.872,0-1.575.369-1.575,1.008a.4.4,0,1,0,.809.013.392.392,0,0,0-.341-.4,1.659,1.659,0,0,1,1.085-.347c.519,0,.888.261.888.745a1.074,1.074,0,0,1-1.015,1.1c-.2.007-.226.016-.411.023-.079.006-.156.013-.156.12s.07.121.2.121h.468" transform="translate(-301.297 -208.008)"/><rect x="216.977" y="243.865" width="6.634" height="0.818"/><rect x="248.159" y="240.125" width="5.532" height="0.463"/><path d="M312.846,250.482c.252,0,.519,0,.519-.3s-.267-.3-.519-.3H304.8c-.253,0-.519,0-.519.3s.266.3.519.3h8.044" transform="translate(-301.297 -208.008)"/><path d="M319.092,244.386c0-.356,0-.386-.342-.386a3.672,3.672,0,0,1-2.7.952v.46a4.473,4.473,0,0,0,1.948-.385v7.7c0,.535-.045.713-1.385.713h-.474v.461c.519-.045,1.814-.045,2.408-.045s1.887,0,2.409.045v-.461h-.477c-1.338,0-1.382-.164-1.382-.713v-8.341" transform="translate(-301.297 -208.008)"/><path d="M315.086,264.814a.531.531,0,0,0-.566-.535.846.846,0,0,0-.788.788.518.518,0,0,0,.552.533.849.849,0,0,0,.8-.786ZM312.1,274.848c-.283,1.13-1,1.976-1.829,1.976a1.251,1.251,0,0,1-.58-.133.845.845,0,0,0,.669-.788.519.519,0,0,0-.564-.519.827.827,0,0,0-.8.846c0,.594.6.922,1.309.922a3.03,3.03,0,0,0,2.8-2.259l1.368-5.442a2.246,2.246,0,0,0,.075-.549,1.319,1.319,0,0,0-1.368-1.368c-1.518,0-2.365,2.156-2.365,2.289,0,.15.15.15.178.15.133,0,.15-.017.269-.3.372-.905,1.055-1.812,1.873-1.812.208,0,.475.059.475.683a2.837,2.837,0,0,1-.1.76l-1.4,5.544" transform="translate(-301.297 -208.008)"/><path d="M326.631,260.493a6.647,6.647,0,0,0,2.275-.342,1.687,1.687,0,0,0,1.113-1.531c0-.653-.563-1.263-1.59-1.263a4.048,4.048,0,0,0-3.9,4.043,2.412,2.412,0,0,0,2.336,2.692,3.974,3.974,0,0,0,3.375-1.754.207.207,0,0,0-.18-.194c-.073,0-.1.03-.192.149a3.881,3.881,0,0,1-2.975,1.471c-1.16,0-1.293-1.249-1.293-1.723a6.587,6.587,0,0,1,.239-1.548Zm-.7-.325c.579-2.261,2.111-2.484,2.5-2.484a.982.982,0,0,1,1.1.936c0,1.548-2.38,1.548-2.988,1.548h-.61" transform="translate(-301.297 -208.008)"/><path d="M335.5,251.216a.4.4,0,0,0-.421-.4.626.626,0,0,0-.59.578.4.4,0,0,0,.421.4.623.623,0,0,0,.59-.578Zm-2.231,7.09a1.609,1.609,0,0,1-1.356,1.338,1.092,1.092,0,0,1-.379-.063.6.6,0,0,0,.357-.538.386.386,0,0,0-.411-.388.617.617,0,0,0-.6.619c0,.4.409.665,1.041.665a2.277,2.277,0,0,0,2.189-1.663l.947-3.767a1.22,1.22,0,0,0,.054-.367,1.039,1.039,0,0,0-1.128-.99c-1.166,0-1.84,1.462-1.84,1.609s.147.138.178.138c.126,0,.138-.032.21-.189.264-.61.812-1.263,1.422-1.263.262,0,.358.178.358.515a1.751,1.751,0,0,1-.033.315l-1.01,4.029" transform="translate(-301.297 -208.008)"/><path d="M343.54,250.922a.452.452,0,0,0,.315-.075.416.416,0,0,0,.122-.257c0-.241-.227-.241-.355-.241h-3.239a1.34,1.34,0,0,0-.949.376,2.414,2.414,0,0,0-.545.657c0,.106.105.106.152.106.105,0,.105-.007.166-.075a1.3,1.3,0,0,1,1.078-.491h.537a10.914,10.914,0,0,1-.921,2.205c-.114.2-.114.21-.114.285a.27.27,0,0,0,.287.274c.318,0,.423-.349.6-.959.173-.589.308-1.134.484-1.805h.986a7.279,7.279,0,0,0-.241,1.531c0,.522.19,1.233.522,1.233a.417.417,0,0,0,.393-.372.375.375,0,0,0-.084-.211,2.721,2.721,0,0,1-.346-1.365,5.127,5.127,0,0,1,.081-.816h1.074" transform="translate(-301.297 -208.008)"/><path d="M341.456,258.886a1.178,1.178,0,0,1,.007,2.355,2.249,2.249,0,0,1-1.365-.393.442.442,0,0,0,.4-.46.464.464,0,1,0-.928.013c0,.786.891,1.149,1.918,1.149,1.237,0,2.008-.749,2.008-1.48,0-.618-.552-1.146-1.412-1.343.9-.294,1.148-.867,1.148-1.291,0-.619-.772-1.08-1.721-1.08-.928,0-1.677.393-1.677,1.073a.431.431,0,1,0,.861.014.416.416,0,0,0-.363-.43,1.768,1.768,0,0,1,1.156-.369c.551,0,.944.278.944.792a1.144,1.144,0,0,1-1.08,1.17c-.21.007-.241.016-.437.023-.084.007-.166.014-.166.129s.074.128.21.128h.5" transform="translate(-301.297 -208.008)"/><rect x="1.703" y="51.699" width="19.216" height="0.647"/><path d="M636.846,442.482c.252,0,.519,0,.519-.3s-.267-.3-.519-.3H628.8c-.253,0-.519,0-.519.3s.266.3.519.3h8.044" transform="translate(-301.297 -208.008)"/><path d="M643.092,436.386c0-.356,0-.386-.342-.386a3.672,3.672,0,0,1-2.705.952v.46a4.473,4.473,0,0,0,1.948-.385v7.7c0,.535-.045.713-1.385.713h-.474v.461c.519-.045,1.814-.045,2.408-.045s1.887,0,2.409.045v-.461h-.477c-1.338,0-1.382-.164-1.382-.713v-8.341" transform="translate(-301.297 -208.008)"/><path d="M639.086,456.814a.531.531,0,0,0-.566-.535.846.846,0,0,0-.788.788.518.518,0,0,0,.552.533.849.849,0,0,0,.8-.786ZM636.1,466.848c-.283,1.13-1,1.976-1.829,1.976a1.251,1.251,0,0,1-.58-.133.845.845,0,0,0,.669-.788.519.519,0,0,0-.564-.519.827.827,0,0,0-.8.846c0,.594.6.922,1.309.922a3.03,3.03,0,0,0,2.8-2.259l1.368-5.442a2.246,2.246,0,0,0,.075-.549,1.319,1.319,0,0,0-1.368-1.368c-1.518,0-2.365,2.156-2.365,2.289,0,.15.15.15.178.15.133,0,.15-.017.269-.3.372-.905,1.055-1.812,1.873-1.812.208,0,.475.059.475.683a2.837,2.837,0,0,1-.1.76l-1.4,5.544" transform="translate(-301.297 -208.008)"/><path d="M650.631,452.493a6.647,6.647,0,0,0,2.275-.342,1.687,1.687,0,0,0,1.113-1.531c0-.653-.563-1.263-1.59-1.263a4.048,4.048,0,0,0-3.9,4.043,2.412,2.412,0,0,0,2.336,2.692,3.974,3.974,0,0,0,3.375-1.754.207.207,0,0,0-.18-.194c-.073,0-.1.03-.192.149a3.881,3.881,0,0,1-2.975,1.471c-1.16,0-1.293-1.249-1.293-1.723a6.587,6.587,0,0,1,.239-1.548Zm-.7-.325c.579-2.261,2.111-2.484,2.5-2.484a.982.982,0,0,1,1.1.936c0,1.548-2.38,1.548-2.988,1.548h-.61" transform="translate(-301.297 -208.008)"/><path d="M659.5,443.216a.4.4,0,0,0-.421-.4.626.626,0,0,0-.59.578.4.4,0,0,0,.421.4.623.623,0,0,0,.59-.578Zm-2.231,7.09a1.609,1.609,0,0,1-1.356,1.338,1.092,1.092,0,0,1-.379-.063.6.6,0,0,0,.357-.538.386.386,0,0,0-.411-.388.617.617,0,0,0-.6.619c0,.4.409.665,1.041.665a2.277,2.277,0,0,0,2.189-1.663l.947-3.767a1.22,1.22,0,0,0,.054-.367,1.039,1.039,0,0,0-1.128-.99c-1.166,0-1.84,1.462-1.84,1.609s.147.138.178.138c.126,0,.138-.032.21-.189.264-.61.812-1.263,1.422-1.263.262,0,.358.178.358.515a1.751,1.751,0,0,1-.033.315l-1.01,4.029" transform="translate(-301.297 -208.008)"/><path d="M667.54,442.922a.452.452,0,0,0,.315-.075.416.416,0,0,0,.122-.257c0-.241-.227-.241-.355-.241h-3.239a1.34,1.34,0,0,0-.949.376,2.414,2.414,0,0,0-.545.657c0,.106.105.106.152.106.1,0,.1-.007.166-.075a1.3,1.3,0,0,1,1.078-.491h.537a10.914,10.914,0,0,1-.921,2.2c-.114.2-.114.21-.114.285a.27.27,0,0,0,.287.274c.318,0,.423-.349.6-.959.173-.589.308-1.134.484-1.8h.986a7.279,7.279,0,0,0-.241,1.531c0,.522.19,1.233.522,1.233a.417.417,0,0,0,.393-.372.375.375,0,0,0-.084-.211,2.721,2.721,0,0,1-.346-1.365,5.127,5.127,0,0,1,.081-.816h1.074" transform="translate(-301.297 -208.008)"/><rect x="361.47" y="238.786" width="5.532" height="0.463"/><path d="M665.456,450.886a1.178,1.178,0,0,1,.007,2.355,2.249,2.249,0,0,1-1.365-.393.442.442,0,0,0,.4-.46.464.464,0,1,0-.928.013c0,.786.891,1.149,1.918,1.149,1.237,0,2.008-.749,2.008-1.48,0-.618-.552-1.146-1.412-1.343.905-.294,1.148-.867,1.148-1.291,0-.619-.772-1.08-1.721-1.08-.928,0-1.677.393-1.677,1.073a.431.431,0,1,0,.861.014.416.416,0,0,0-.363-.43,1.768,1.768,0,0,1,1.156-.369c.551,0,.944.278.944.792a1.144,1.144,0,0,1-1.08,1.17c-.21.007-.241.016-.437.023-.084.007-.166.014-.166.129s.074.128.21.128h.5" transform="translate(-301.297 -208.008)"/><rect x="325.703" y="243.777" width="19.216" height="0.718"/><path d="M310.846,445.482c.252,0,.519,0,.519-.3s-.267-.3-.519-.3H302.8c-.253,0-.519,0-.519.3s.266.3.519.3h8.044" transform="translate(-301.297 -208.008)"/><path d="M317.092,439.386c0-.356,0-.386-.342-.386a3.672,3.672,0,0,1-2.7.952v.46a4.473,4.473,0,0,0,1.948-.385v7.7c0,.535-.045.713-1.385.713h-.474v.461c.519-.045,1.814-.045,2.408-.045s1.887,0,2.409.045v-.461h-.477c-1.338,0-1.382-.164-1.382-.713v-8.341" transform="translate(-301.297 -208.008)"/><rect y="246.699" width="18.919" height="0.797"/><path d="M313.086,459.814a.531.531,0,0,0-.566-.535.846.846,0,0,0-.788.788.518.518,0,0,0,.552.533.849.849,0,0,0,.8-.786ZM310.1,469.848c-.283,1.13-1,1.976-1.829,1.976a1.251,1.251,0,0,1-.58-.133.845.845,0,0,0,.669-.788.519.519,0,0,0-.564-.519.827.827,0,0,0-.8.846c0,.594.6.922,1.309.922a3.03,3.03,0,0,0,2.8-2.259l1.368-5.442a2.246,2.246,0,0,0,.075-.549,1.319,1.319,0,0,0-1.368-1.368c-1.518,0-2.365,2.156-2.365,2.289,0,.15.15.15.178.15.133,0,.15-.017.269-.3.372-.905,1.055-1.812,1.873-1.812.208,0,.475.059.475.683a2.837,2.837,0,0,1-.1.76l-1.4,5.544" transform="translate(-301.297 -208.008)"/><path d="M324.631,455.493a6.647,6.647,0,0,0,2.275-.342,1.687,1.687,0,0,0,1.113-1.531c0-.653-.563-1.263-1.59-1.263a4.048,4.048,0,0,0-3.9,4.043,2.412,2.412,0,0,0,2.336,2.692,3.974,3.974,0,0,0,3.375-1.754.207.207,0,0,0-.18-.194c-.073,0-.1.03-.192.149a3.881,3.881,0,0,1-2.975,1.471c-1.16,0-1.293-1.249-1.293-1.723a6.587,6.587,0,0,1,.239-1.548Zm-.7-.325c.579-2.261,2.111-2.484,2.5-2.484a.982.982,0,0,1,1.1.936c0,1.548-2.38,1.548-2.988,1.548h-.61" transform="translate(-301.297 -208.008)"/><path d="M333.5,446.216a.4.4,0,0,0-.421-.4.626.626,0,0,0-.59.578.4.4,0,0,0,.421.4.623.623,0,0,0,.59-.578Zm-2.231,7.09a1.609,1.609,0,0,1-1.356,1.338,1.092,1.092,0,0,1-.379-.063.6.6,0,0,0,.357-.538.386.386,0,0,0-.411-.388.617.617,0,0,0-.6.619c0,.4.409.665,1.041.665a2.277,2.277,0,0,0,2.189-1.663l.947-3.767a1.22,1.22,0,0,0,.054-.367,1.039,1.039,0,0,0-1.128-.99c-1.166,0-1.84,1.462-1.84,1.609s.147.138.178.138c.126,0,.138-.032.21-.189.264-.61.812-1.263,1.422-1.263.262,0,.358.178.358.515a1.751,1.751,0,0,1-.033.315l-1.01,4.029" transform="translate(-301.297 -208.008)"/><path d="M341.54,445.922a.452.452,0,0,0,.315-.075.416.416,0,0,0,.122-.257c0-.241-.227-.241-.355-.241h-3.239a1.34,1.34,0,0,0-.949.376,2.414,2.414,0,0,0-.545.657c0,.106.105.106.152.106.105,0,.105-.007.166-.075a1.3,1.3,0,0,1,1.078-.491h.537a10.914,10.914,0,0,1-.921,2.2c-.114.2-.114.21-.114.285a.27.27,0,0,0,.287.274c.318,0,.423-.349.6-.959.173-.589.308-1.134.484-1.8h.986a7.279,7.279,0,0,0-.241,1.531c0,.522.19,1.233.522,1.233a.417.417,0,0,0,.393-.372.375.375,0,0,0-.084-.211,2.721,2.721,0,0,1-.346-1.365,5.127,5.127,0,0,1,.081-.816h1.074" transform="translate(-301.297 -208.008)"/><path d="M339.456,453.886a1.178,1.178,0,0,1,.007,2.355,2.249,2.249,0,0,1-1.365-.393.442.442,0,0,0,.4-.46.464.464,0,1,0-.928.013c0,.786.891,1.149,1.918,1.149,1.237,0,2.008-.749,2.008-1.48,0-.618-.552-1.146-1.412-1.343.9-.294,1.148-.867,1.148-1.291,0-.619-.772-1.08-1.721-1.08-.928,0-1.677.393-1.677,1.073a.431.431,0,1,0,.861.014.416.416,0,0,0-.363-.43,1.768,1.768,0,0,1,1.156-.369c.551,0,.944.278.944.792a1.144,1.144,0,0,1-1.08,1.17c-.21.007-.241.016-.437.023-.084.007-.166.014-.166.129s.074.128.21.128h.5" transform="translate(-301.297 -208.008)"/><rect x="35.47" y="241.786" width="5.532" height="0.463"/><path d="M670.609,363.365h1.263c.293,0,.441,0,.441-.293,0-.162-.148-.162-.4-.162H670.7l.31-1.674a13.857,13.857,0,0,1,.351-1.526.8.8,0,0,1,.69-.5,1.085,1.085,0,0,1,.721.263.815.815,0,0,0-.8.8.509.509,0,0,0,.545.512.841.841,0,0,0,.806-.88c0-.676-.674-1.013-1.277-1.013-.5,0-1.422.263-1.863,1.718-.088.307-.132.455-.485,2.3h-1.014c-.277,0-.438,0-.438.279,0,.176.131.176.411.176h.967l-1.1,5.8c-.264,1.424-.513,2.759-1.277,2.759a1.052,1.052,0,0,1-.7-.263.8.8,0,0,0,.808-.792.509.509,0,0,0-.543-.515.842.842,0,0,0-.808.882,1.131,1.131,0,0,0,1.247,1.011c.808,0,1.394-.866,1.66-1.422a13.264,13.264,0,0,0,.822-2.806l.88-4.652" transform="translate(-301.297 -208.008)"/><path d="M676.94,367.546a.534.534,0,0,0-.436.49.334.334,0,0,0,.344.332.519.519,0,0,0,.5-.593c0-.674-.748-.9-1.383-.9a1.69,1.69,0,0,0-1.912,1.517,1,1,0,0,0,.365.758,2.27,2.27,0,0,0,1.173.374c.22.041.884.166.884.685a1.052,1.052,0,0,1-.551.832,2.232,2.232,0,0,1-1.039.228,1.59,1.59,0,0,1-1.247-.436.614.614,0,0,0,.572-.591.371.371,0,0,0-.406-.386.632.632,0,0,0-.6.7c0,.624.665,1.007,1.674,1.007,1.912,0,2.265-1.309,2.265-1.713,0-.956-1.05-1.143-1.433-1.217-.1-.021-.354-.062-.416-.083-.386-.072-.573-.291-.573-.52a.89.89,0,0,1,.416-.665,1.632,1.632,0,0,1,.822-.2,1.2,1.2,0,0,1,.986.383" transform="translate(-301.297 -208.008)"/><path d="M692.893,364.436c.219,0,.5,0,.5-.293s-.279-.293-.485-.293h-8.792c-.206,0-.485,0-.485.293s.279.293.5.293Zm.013,2.847c.206,0,.485,0,.485-.293s-.279-.293-.5-.293h-8.765c-.22,0-.5,0-.5.293s.279.293.485.293h8.792" transform="translate(-301.297 -208.008)"/><path d="M700.408,364.422v-.353c0-3.713,1.822-4.241,2.57-4.241a1.514,1.514,0,0,1,1.291.586c-.219,0-.806,0-.806.66a.674.674,0,1,0,1.348-.03c0-.879-.644-1.584-1.863-1.584-1.879,0-3.86,1.894-3.86,5.138,0,3.918,1.7,4.962,3.068,4.962a3.142,3.142,0,0,0,3.023-3.318,3.079,3.079,0,0,0-2.935-3.274,2.032,2.032,0,0,0-1.836,1.454Zm1.748,4.727a1.688,1.688,0,0,1-1.454-1.1,7.167,7.167,0,0,1-.264-2.128c0-1.146.469-2.612,1.792-2.612a1.417,1.417,0,0,1,1.365.91,7.856,7.856,0,0,1,.014,3.978,1.537,1.537,0,0,1-1.453.954" transform="translate(-301.297 -208.008)"/><path d="M712.611,364.54a7.847,7.847,0,0,0-.586-3.436,2.725,2.725,0,0,0-2.5-1.644,2.692,2.692,0,0,0-2.554,1.746,7.871,7.871,0,0,0-.543,3.334,7.429,7.429,0,0,0,.661,3.538,2.744,2.744,0,0,0,4.976-.222,7.79,7.79,0,0,0,.542-3.316Zm-3.1,4.7c-.573,0-1.439-.368-1.7-1.776a30.749,30.749,0,0,1-.046-5.8c.279-1.746,1.381-1.877,1.748-1.877.485,0,1.452.263,1.732,1.718a18,18,0,0,1,.147,2.86,18.236,18.236,0,0,1-.161,3.039c-.22,1.395-1.058,1.836-1.718,1.836" transform="translate(-301.297 -208.008)"/><path d="M720,364.54a7.848,7.848,0,0,0-.587-3.436,2.723,2.723,0,0,0-2.5-1.644,2.691,2.691,0,0,0-2.553,1.746,7.871,7.871,0,0,0-.543,3.334,7.429,7.429,0,0,0,.661,3.538,2.743,2.743,0,0,0,4.975-.222A7.791,7.791,0,0,0,720,364.54Zm-3.1,4.7c-.573,0-1.439-.368-1.7-1.776a30.526,30.526,0,0,1-.046-5.8c.279-1.746,1.38-1.877,1.748-1.877.485,0,1.452.263,1.731,1.718a17.884,17.884,0,0,1,.148,2.86,18.125,18.125,0,0,1-.162,3.039c-.219,1.395-1.057,1.836-1.717,1.836" transform="translate(-301.297 -208.008)"/><path d="M532.722,525.7c.169,0,.347,0,.347-.2s-.178-.2-.347-.2h-5.375c-.169,0-.347,0-.347.2s.178.2.347.2h5.375" transform="translate(-301.297 -208.008)"/><path d="M537.808,517.577h1.122a10.9,10.9,0,0,0-.417,2.562,3.151,3.151,0,0,0,.079.755c.1.437.21.5.358.5a.388.388,0,0,0,.347-.6,4.27,4.27,0,0,1-.288-1.639,7.843,7.843,0,0,1,.178-1.578h1.133c.13,0,.488,0,.488-.339,0-.238-.21-.238-.4-.238h-3.326a1.266,1.266,0,0,0-1.035.467,3.571,3.571,0,0,0-.6.894c0,.009,0,.1.118.1.08,0,.1-.039.16-.118a1.4,1.4,0,0,1,1.261-.764h.565a20.916,20.916,0,0,1-1.27,3.307c-.08.149-.08.169-.08.238a.271.271,0,0,0,.288.269c.3,0,.378-.278.5-.646.139-.457.139-.476.269-.973l.556-2.2" transform="translate(-301.297 -208.008)"/><path d="M538.556,531.384a1.914,1.914,0,0,0,1.391-1.748c0-.814-.875-1.37-1.828-1.37-1,0-1.758.6-1.758,1.35a.506.506,0,1,0,1.012.011c0-.5-.467-.5-.615-.5a1.607,1.607,0,0,1,1.322-.616c.406,0,.953.219.953,1.113a2.5,2.5,0,0,1-.278,1.132.961.961,0,0,1-.885.516c-.079.011-.317.03-.387.03s-.149.02-.149.12.069.108.238.108h.437c.814,0,1.183.676,1.183,1.65,0,1.35-.686,1.639-1.123,1.639a1.812,1.812,0,0,1-1.521-.755.545.545,0,0,0,.657-.547.557.557,0,1,0-1.113.021A1.812,1.812,0,0,0,538.1,535.1a2.026,2.026,0,0,0,2.116-1.917,1.918,1.918,0,0,0-1.658-1.8" transform="translate(-301.297 -208.008)"/><rect x="233.639" y="317.258" width="5.532" height="0.463"/><path d="M644.808,516.577h1.122a10.9,10.9,0,0,0-.417,2.562,3.151,3.151,0,0,0,.079.755c.1.437.21.5.358.5a.388.388,0,0,0,.347-.6,4.27,4.27,0,0,1-.288-1.639,7.843,7.843,0,0,1,.178-1.578h1.133c.13,0,.488,0,.488-.339,0-.238-.21-.238-.4-.238h-3.326a1.266,1.266,0,0,0-1.035.467,3.571,3.571,0,0,0-.6.894c0,.009,0,.1.118.1.08,0,.1-.039.16-.118a1.4,1.4,0,0,1,1.261-.764h.565a20.916,20.916,0,0,1-1.27,3.307c-.08.149-.08.169-.08.238a.271.271,0,0,0,.288.269c.3,0,.378-.278.5-.646.139-.457.139-.476.269-.973l.556-2.2" transform="translate(-301.297 -208.008)"/><path d="M645.556,530.384a1.914,1.914,0,0,0,1.391-1.748c0-.814-.875-1.37-1.828-1.37-1,0-1.758.6-1.758,1.35a.506.506,0,1,0,1.012.011c0-.5-.467-.5-.615-.5a1.607,1.607,0,0,1,1.322-.616c.406,0,.953.219.953,1.113a2.5,2.5,0,0,1-.278,1.132.961.961,0,0,1-.885.516c-.079.011-.317.03-.387.03s-.149.02-.149.12.069.108.238.108h.437c.814,0,1.183.676,1.183,1.65,0,1.35-.686,1.639-1.123,1.639a1.812,1.812,0,0,1-1.521-.755.545.545,0,0,0,.657-.547.557.557,0,1,0-1.113.021A1.812,1.812,0,0,0,645.1,534.1a2.026,2.026,0,0,0,2.116-1.917,1.918,1.918,0,0,0-1.658-1.8" transform="translate(-301.297 -208.008)"/><rect x="340.841" y="315.852" width="5.976" height="0.463"/><path d="M416.722,518c.169,0,.347,0,.347-.2s-.178-.2-.347-.2h-5.375c-.169,0-.347,0-.347.2s.178.2.347.2h5.375" transform="translate(-301.297 -208.008)"/><path d="M420.608,516.577h1.122a10.913,10.913,0,0,0-.418,2.562,3.117,3.117,0,0,0,.08.755c.1.437.21.5.358.5a.388.388,0,0,0,.347-.6,4.27,4.27,0,0,1-.288-1.639,7.773,7.773,0,0,1,.179-1.578h1.132c.13,0,.488,0,.488-.34,0-.237-.21-.237-.4-.237h-3.326a1.266,1.266,0,0,0-1.035.467,3.571,3.571,0,0,0-.6.894c0,.009,0,.1.118.1.08,0,.1-.039.16-.118a1.4,1.4,0,0,1,1.261-.764h.565a20.916,20.916,0,0,1-1.27,3.307c-.08.149-.08.169-.08.238a.271.271,0,0,0,.288.269c.3,0,.378-.279.5-.646.139-.458.139-.476.269-.973l.556-2.2" transform="translate(-301.297 -208.008)"/><path d="M755.608,517.577h1.122a10.913,10.913,0,0,0-.418,2.562,3.117,3.117,0,0,0,.08.755c.1.437.21.5.358.5a.388.388,0,0,0,.347-.6,4.27,4.27,0,0,1-.288-1.639,7.773,7.773,0,0,1,.179-1.578h1.132c.13,0,.488,0,.488-.34,0-.237-.21-.237-.4-.237h-3.326a1.266,1.266,0,0,0-1.035.467,3.571,3.571,0,0,0-.6.894c0,.009,0,.1.118.1.08,0,.1-.039.16-.118a1.4,1.4,0,0,1,1.261-.764h.565a20.916,20.916,0,0,1-1.27,3.307c-.08.149-.08.169-.08.238a.271.271,0,0,0,.288.269c.3,0,.378-.279.5-.646.139-.458.139-.476.269-.973l.556-2.2" transform="translate(-301.297 -208.008)"/><path d="M424.722,304.519c.169,0,.347,0,.347-.2s-.178-.2-.347-.2h-5.375c-.169,0-.347,0-.347.2s.178.2.347.2h5.375" transform="translate(-301.297 -208.008)"/><path d="M430.82,296.03h.855c.2,0,.3,0,.3-.2,0-.109-.1-.109-.268-.109h-.825l.209-1.133a9.238,9.238,0,0,1,.238-1.033.539.539,0,0,1,.467-.337.733.733,0,0,1,.487.178.551.551,0,0,0-.537.537.344.344,0,0,0,.369.347.569.569,0,0,0,.545-.6c0-.458-.456-.686-.864-.686-.338,0-.963.178-1.261,1.163a15.908,15.908,0,0,0-.328,1.559h-.686c-.188,0-.3,0-.3.189,0,.119.089.119.278.119h.655l-.746,3.923c-.178.964-.347,1.867-.864,1.867a.712.712,0,0,1-.476-.178.538.538,0,0,0,.547-.536.345.345,0,0,0-.368-.348.569.569,0,0,0-.546.6.765.765,0,0,0,.843.684c.547,0,.944-.586,1.124-.962a9.018,9.018,0,0,0,.556-1.9l.595-3.148" transform="translate(-301.297 -208.008)"/><path d="M435.205,298.859a.363.363,0,0,0-.3.332.227.227,0,0,0,.233.225.352.352,0,0,0,.338-.4c0-.456-.507-.611-.936-.611a1.144,1.144,0,0,0-1.294,1.027.669.669,0,0,0,.247.512,1.522,1.522,0,0,0,.794.253c.148.028.6.113.6.464a.711.711,0,0,1-.373.563,1.506,1.506,0,0,1-.7.155,1.075,1.075,0,0,1-.844-.3.415.415,0,0,0,.387-.4.251.251,0,0,0-.275-.261.428.428,0,0,0-.408.472c0,.422.45.681,1.133.681,1.294,0,1.533-.885,1.533-1.159,0-.647-.711-.773-.97-.823-.064-.014-.239-.043-.282-.057-.26-.048-.387-.2-.387-.351a.6.6,0,0,1,.281-.45,1.1,1.1,0,0,1,.557-.133.812.812,0,0,1,.667.259" transform="translate(-301.297 -208.008)"/><path d="M430.436,312.837l1.053-1.021c1.55-1.372,2.147-1.908,2.147-2.9a1.952,1.952,0,0,0-2.106-1.927,1.836,1.836,0,0,0-1.858,1.8.522.522,0,1,0,1.042.03.5.5,0,0,0-.527-.518.374.374,0,0,0-.128.01A1.432,1.432,0,0,1,431.4,307.3c.905,0,1.331.805,1.331,1.619a3.553,3.553,0,0,1-1.044,2.195l-1.906,2.127c-.109.109-.109.128-.109.367h3.686l.278-1.728h-.248a3.38,3.38,0,0,1-.219.884,3.3,3.3,0,0,1-.944.078h-1.789" transform="translate(-301.297 -208.008)"/><path d="M748.82,296.03h.855c.2,0,.3,0,.3-.2,0-.109-.1-.109-.268-.109h-.825l.209-1.133a9.238,9.238,0,0,1,.238-1.033.539.539,0,0,1,.467-.337.733.733,0,0,1,.487.178.551.551,0,0,0-.537.537.344.344,0,0,0,.369.347.569.569,0,0,0,.545-.6c0-.458-.456-.686-.864-.686-.338,0-.963.178-1.261,1.163a15.908,15.908,0,0,0-.328,1.559h-.686c-.188,0-.3,0-.3.189,0,.119.089.119.278.119h.655l-.746,3.923c-.178.964-.347,1.867-.864,1.867a.712.712,0,0,1-.476-.178.538.538,0,0,0,.547-.536.345.345,0,0,0-.368-.348.569.569,0,0,0-.546.6.765.765,0,0,0,.843.684c.547,0,.944-.586,1.124-.962a9.018,9.018,0,0,0,.556-1.9l.6-3.148" transform="translate(-301.297 -208.008)"/><path d="M753.205,298.859a.363.363,0,0,0-.3.332.227.227,0,0,0,.233.225.352.352,0,0,0,.338-.4c0-.456-.507-.611-.936-.611a1.144,1.144,0,0,0-1.294,1.027.669.669,0,0,0,.247.512,1.522,1.522,0,0,0,.794.253c.148.028.6.113.6.464a.711.711,0,0,1-.373.563,1.506,1.506,0,0,1-.7.155,1.075,1.075,0,0,1-.844-.3.415.415,0,0,0,.387-.4.251.251,0,0,0-.275-.261.428.428,0,0,0-.408.472c0,.422.45.681,1.133.681,1.294,0,1.533-.885,1.533-1.159,0-.647-.711-.773-.97-.823-.064-.014-.239-.043-.282-.057-.26-.048-.387-.2-.387-.351a.6.6,0,0,1,.281-.45,1.1,1.1,0,0,1,.557-.133.812.812,0,0,1,.667.259" transform="translate(-301.297 -208.008)"/><path d="M748.436,312.837l1.053-1.021c1.55-1.372,2.147-1.908,2.147-2.9a1.952,1.952,0,0,0-2.106-1.927,1.836,1.836,0,0,0-1.858,1.8.522.522,0,1,0,1.042.03.5.5,0,0,0-.527-.518.374.374,0,0,0-.128.01A1.432,1.432,0,0,1,749.4,307.3c.9,0,1.331.805,1.331,1.619a3.553,3.553,0,0,1-1.044,2.195l-1.906,2.127c-.109.109-.109.128-.109.367h3.686l.278-1.728h-.248a3.38,3.38,0,0,1-.219.884,3.3,3.3,0,0,1-.944.078h-1.789" transform="translate(-301.297 -208.008)"/><text class="cls-9" transform="translate(337.441 160.973)"><tspan class="cls-13">W</tspan><tspan x="10.846" y="0" xml:space="preserve">ith                     [samples/sec]</tspan></text><line class="cls-7" x1="133.879" y1="340.992" x2="441.528" y2="340.992"/><polygon points="135.338 345.978 126.703 340.992 135.338 336.006 135.338 345.978"/><polygon points="440.069 345.978 448.703 340.992 440.069 336.006 440.069 345.978"/><text class="cls-9" transform="translate(234.441 352.973)">Fundamental Interval</text><rect x="36.648" y="46.715" width="6.656" height="0.606"/><rect x="194.171" y="26.762" width="5.532" height="0.463"/><rect x="125.829" y="96.08" width="8.705" height="0.463"/><rect x="444.014" y="96.071" width="8.621" height="0.463"/><rect x="527.543" y="53.737" width="7.272" height="0.608"/><rect x="18.375" y="316.548" width="10.523" height="0.475"/></svg>