<svg id="Layer_1" data-name="Layer 1" xmlns="http://www.w3.org/2000/svg" viewBox="0 0 917 370"><defs><style>.cls-1,.cls-10,.cls-4,.cls-6,.cls-9{fill:none;stroke-miterlimit:10;}.cls-1,.cls-6{stroke:#000;}.cls-1,.cls-9{stroke-width:2px;}.cls-2{font-size:26px;}.cls-2,.cls-3,.cls-7,.cls-8{font-family:TimesNewRomanPSMT, Times New Roman;}.cls-11,.cls-3{font-size:20px;}.cls-10,.cls-4,.cls-9{stroke:blue;}.cls-4{stroke-width:3px;}.cls-5{fill:blue;}.cls-7{font-size:12.35px;}.cls-8{font-size:9.5px;}.cls-11{font-family:MyriadPro-Regular, Myriad Pro;}</style></defs><title>block_decomposed</title><line class="cls-1" x1="465" y1="151.5" x2="465" y2="312"/><text class="cls-2" transform="translate(601 360.24)">n</text><text class="cls-2" transform="translate(411.5 169.24)">x[n]</text><text class="cls-3" transform="translate(460.36 332.57)">0</text><text class="cls-3" transform="translate(500.87 332.57)">1</text><text class="cls-3" transform="translate(541.39 332.57)">2</text><text class="cls-3" transform="translate(581.9 332.57)">3</text><text class="cls-3" transform="translate(622.41 332.57)">4</text><text class="cls-3" transform="translate(662.93 332.57)">5</text><text class="cls-3" transform="translate(419.84 332.57)">-1</text><text class="cls-3" transform="translate(379.33 332.57)">-2</text><text class="cls-3" transform="translate(338.81 332.57)">-3</text><text class="cls-3" transform="translate(298.3 332.57)">-4</text><text class="cls-3" transform="translate(257.79 332.57)">-5</text><line class="cls-1" x1="620.5" y1="354" x2="660.32" y2="354"/><polygon points="658.87 358.99 667.5 354 658.87 349.01 658.87 358.99"/><text class="cls-3" transform="translate(432.87 214.57)">1</text><line class="cls-4" x1="544.32" y1="210.86" x2="544.32" y2="311.5"/><path class="cls-5" d="M651.18,287.14a5.64,5.64,0,1,1,5.64,5.64A5.65,5.65,0,0,1,651.18,287.14Z" transform="translate(-112.5 -76)"/><line class="cls-4" x1="583.88" y1="210.86" x2="583.88" y2="311.5"/><path class="cls-5" d="M690.74,287.14a5.64,5.64,0,1,1,5.64,5.64A5.65,5.65,0,0,1,690.74,287.14Z" transform="translate(-112.5 -76)"/><line class="cls-4" x1="504.76" y1="210.86" x2="504.76" y2="311.5"/><path class="cls-5" d="M611.62,287.14a5.64,5.64,0,1,1,5.64,5.64A5.65,5.65,0,0,1,611.62,287.14Z" transform="translate(-112.5 -76)"/><line class="cls-1" x1="262" y1="311.5" x2="669" y2="311.5"/><path class="cls-5" d="M533.53,387.2a5.64,5.64,0,1,1,5.64,5.64A5.63,5.63,0,0,1,533.53,387.2Z" transform="translate(-112.5 -76)"/><path class="cls-5" d="M376.86,387.2a5.64,5.64,0,1,1,5.64,5.64A5.64,5.64,0,0,1,376.86,387.2Z" transform="translate(-112.5 -76)"/><path class="cls-5" d="M416,387.2a5.64,5.64,0,1,1,5.64,5.64A5.63,5.63,0,0,1,416,387.2Z" transform="translate(-112.5 -76)"/><path class="cls-5" d="M455.19,387.2a5.64,5.64,0,1,1,5.64,5.64A5.64,5.64,0,0,1,455.19,387.2Z" transform="translate(-112.5 -76)"/><path class="cls-5" d="M494.36,387.2a5.64,5.64,0,1,1,5.64,5.64A5.64,5.64,0,0,1,494.36,387.2Z" transform="translate(-112.5 -76)"/><path class="cls-5" d="M572.53,387.2a5.64,5.64,0,1,1,5.64,5.64A5.63,5.63,0,0,1,572.53,387.2Z" transform="translate(-112.5 -76)"/><path class="cls-5" d="M774.53,387.2a5.64,5.64,0,1,1,5.64,5.64A5.63,5.63,0,0,1,774.53,387.2Z" transform="translate(-112.5 -76)"/><path class="cls-5" d="M734.53,387.2a5.64,5.64,0,1,1,5.64,5.64A5.63,5.63,0,0,1,734.53,387.2Z" transform="translate(-112.5 -76)"/><line class="cls-6" x1="113.24" y1="14.33" x2="113.24" y2="90.58"/><text class="cls-7" transform="translate(177.86 113.5)">n</text><text class="cls-7" transform="translate(78.5 22.75)">δ[n-1]</text><text class="cls-8" transform="translate(111.04 100.36)">0</text><text class="cls-8" transform="translate(130.29 100.36)">1</text><text class="cls-8" transform="translate(149.54 100.36)">2</text><text class="cls-8" transform="translate(168.79 100.36)">3</text><text class="cls-8" transform="translate(188.03 100.36)">4</text><text class="cls-8" transform="translate(207.28 100.36)">5</text><text class="cls-8" transform="translate(91.79 100.36)">-1</text><text class="cls-8" transform="translate(72.54 100.36)">-2</text><text class="cls-8" transform="translate(53.29 100.36)">-3</text><text class="cls-8" transform="translate(34.04 100.36)">-4</text><text class="cls-8" transform="translate(14.79 100.36)">-5</text><line class="cls-6" x1="187.13" y1="110.54" x2="205.87" y2="110.54"/><polygon points="205.14 113.03 209.46 110.54 205.14 108.05 205.14 113.03"/><text class="cls-8" transform="translate(97.98 44.29)">1</text><line class="cls-9" x1="132.13" y1="43.55" x2="132.13" y2="90.35"/><path class="cls-5" d="M240.87,119.74a3.76,3.76,0,1,1,3.76,3.76A3.77,3.77,0,0,1,240.87,119.74Z" transform="translate(-112.5 -76)"/><line class="cls-6" x1="16.79" y1="90.35" x2="210.17" y2="90.35"/><line class="cls-10" x1="95.03" y1="90.31" x2="95.03" y2="90.74"/><path class="cls-5" d="M205.65,166.4a1.88,1.88,0,1,1,1.88,1.88A1.88,1.88,0,0,1,205.65,166.4Z" transform="translate(-112.5 -76)"/><line class="cls-10" x1="20.59" y1="90.31" x2="20.59" y2="90.74"/><path class="cls-5" d="M131.21,166.4a1.88,1.88,0,1,1,1.88,1.88A1.88,1.88,0,0,1,131.21,166.4Z" transform="translate(-112.5 -76)"/><line class="cls-10" x1="39.2" y1="90.31" x2="39.2" y2="90.74"/><path class="cls-5" d="M149.82,166.4a1.88,1.88,0,1,1,1.88,1.88A1.88,1.88,0,0,1,149.82,166.4Z" transform="translate(-112.5 -76)"/><line class="cls-10" x1="57.81" y1="90.31" x2="57.81" y2="90.74"/><path class="cls-5" d="M168.43,166.4a1.88,1.88,0,1,1,1.88,1.88A1.88,1.88,0,0,1,168.43,166.4Z" transform="translate(-112.5 -76)"/><line class="cls-10" x1="76.42" y1="90.31" x2="76.42" y2="90.74"/><path class="cls-5" d="M187,166.4a1.88,1.88,0,1,1,1.88,1.88A1.88,1.88,0,0,1,187,166.4Z" transform="translate(-112.5 -76)"/><line class="cls-10" x1="113.56" y1="90.31" x2="113.56" y2="90.74"/><path class="cls-5" d="M224.18,166.4a1.88,1.88,0,1,1,1.88,1.88A1.88,1.88,0,0,1,224.18,166.4Z" transform="translate(-112.5 -76)"/><line class="cls-10" x1="209.54" y1="90.31" x2="209.54" y2="90.74"/><path class="cls-5" d="M320.16,166.4a1.88,1.88,0,1,1,1.88,1.88A1.88,1.88,0,0,1,320.16,166.4Z" transform="translate(-112.5 -76)"/><line class="cls-10" x1="190.53" y1="90.31" x2="190.53" y2="90.74"/><path class="cls-5" d="M301.15,166.4a1.88,1.88,0,1,1,1.88,1.88A1.88,1.88,0,0,1,301.15,166.4Z" transform="translate(-112.5 -76)"/><line class="cls-10" x1="152.53" y1="90.31" x2="152.53" y2="90.74"/><path class="cls-5" d="M263.15,166.4a1.88,1.88,0,1,1,1.88,1.88A1.88,1.88,0,0,1,263.15,166.4Z" transform="translate(-112.5 -76)"/><line class="cls-10" x1="171.53" y1="90.31" x2="171.53" y2="90.74"/><path class="cls-5" d="M282.15,166.4a1.88,1.88,0,1,1,1.88,1.88A1.88,1.88,0,0,1,282.15,166.4Z" transform="translate(-112.5 -76)"/><line class="cls-6" x1="113.24" y1="248.33" x2="113.24" y2="324.58"/><text class="cls-7" transform="translate(177.86 347.5)">n</text><text class="cls-7" transform="translate(78.5 256.75)">δ[n-3]</text><text class="cls-8" transform="translate(111.04 334.36)">0</text><text class="cls-8" transform="translate(130.29 334.36)">1</text><text class="cls-8" transform="translate(149.54 334.36)">2</text><text class="cls-8" transform="translate(168.79 334.36)">3</text><text class="cls-8" transform="translate(188.03 334.36)">4</text><text class="cls-8" transform="translate(207.28 334.36)">5</text><text class="cls-8" transform="translate(91.79 334.36)">-1</text><text class="cls-8" transform="translate(72.54 334.36)">-2</text><text class="cls-8" transform="translate(53.29 334.36)">-3</text><text class="cls-8" transform="translate(34.04 334.36)">-4</text><text class="cls-8" transform="translate(14.79 334.36)">-5</text><line class="cls-6" x1="187.13" y1="344.54" x2="205.87" y2="344.54"/><polygon points="205.14 347.03 209.46 344.54 205.14 342.05 205.14 347.03"/><text class="cls-8" transform="translate(97.98 278.29)">1</text><line class="cls-9" x1="171.13" y1="277.55" x2="171.13" y2="324.35"/><path class="cls-5" d="M279.87,353.74a3.76,3.76,0,1,1,3.76,3.76A3.77,3.77,0,0,1,279.87,353.74Z" transform="translate(-112.5 -76)"/><line class="cls-6" x1="16.79" y1="324.35" x2="210.17" y2="324.35"/><line class="cls-10" x1="95.03" y1="324.31" x2="95.03" y2="324.74"/><path class="cls-5" d="M205.65,400.4a1.88,1.88,0,1,1,1.88,1.88A1.88,1.88,0,0,1,205.65,400.4Z" transform="translate(-112.5 -76)"/><line class="cls-10" x1="20.59" y1="324.31" x2="20.59" y2="324.74"/><path class="cls-5" d="M131.21,400.4a1.88,1.88,0,1,1,1.88,1.88A1.88,1.88,0,0,1,131.21,400.4Z" transform="translate(-112.5 -76)"/><line class="cls-10" x1="39.2" y1="324.31" x2="39.2" y2="324.74"/><path class="cls-5" d="M149.82,400.4a1.88,1.88,0,1,1,1.88,1.88A1.88,1.88,0,0,1,149.82,400.4Z" transform="translate(-112.5 -76)"/><line class="cls-10" x1="57.81" y1="324.31" x2="57.81" y2="324.74"/><path class="cls-5" d="M168.43,400.4a1.88,1.88,0,1,1,1.88,1.88A1.88,1.88,0,0,1,168.43,400.4Z" transform="translate(-112.5 -76)"/><line class="cls-10" x1="76.42" y1="324.31" x2="76.42" y2="324.74"/><path class="cls-5" d="M187,400.4a1.88,1.88,0,1,1,1.88,1.88A1.88,1.88,0,0,1,187,400.4Z" transform="translate(-112.5 -76)"/><line class="cls-10" x1="113.56" y1="324.31" x2="113.56" y2="324.74"/><path class="cls-5" d="M224.18,400.4a1.88,1.88,0,1,1,1.88,1.88A1.88,1.88,0,0,1,224.18,400.4Z" transform="translate(-112.5 -76)"/><line class="cls-10" x1="209.54" y1="324.31" x2="209.54" y2="324.74"/><path class="cls-5" d="M320.16,400.4a1.88,1.88,0,1,1,1.88,1.88A1.88,1.88,0,0,1,320.16,400.4Z" transform="translate(-112.5 -76)"/><line class="cls-10" x1="190.53" y1="324.31" x2="190.53" y2="324.74"/><path class="cls-5" d="M301.15,400.4a1.88,1.88,0,1,1,1.88,1.88A1.88,1.88,0,0,1,301.15,400.4Z" transform="translate(-112.5 -76)"/><line class="cls-10" x1="152.53" y1="324.31" x2="152.53" y2="324.74"/><path class="cls-5" d="M263.15,400.4a1.88,1.88,0,1,1,1.88,1.88A1.88,1.88,0,0,1,263.15,400.4Z" transform="translate(-112.5 -76)"/><line class="cls-10" x1="132.53" y1="324.31" x2="132.53" y2="324.74"/><path class="cls-5" d="M243.15,400.4a1.88,1.88,0,1,1,1.88,1.88A1.88,1.88,0,0,1,243.15,400.4Z" transform="translate(-112.5 -76)"/><line class="cls-6" x1="113.24" y1="133.33" x2="113.24" y2="209.58"/><text class="cls-7" transform="translate(177.86 232.5)">n</text><text class="cls-7" transform="translate(78.5 141.75)">δ[n-2]</text><text class="cls-8" transform="translate(111.04 219.36)">0</text><text class="cls-8" transform="translate(130.29 219.36)">1</text><text class="cls-8" transform="translate(149.54 219.36)">2</text><text class="cls-8" transform="translate(168.79 219.36)">3</text><text class="cls-8" transform="translate(188.03 219.36)">4</text><text class="cls-8" transform="translate(207.28 219.36)">5</text><text class="cls-8" transform="translate(91.79 219.36)">-1</text><text class="cls-8" transform="translate(72.54 219.36)">-2</text><text class="cls-8" transform="translate(53.29 219.36)">-3</text><text class="cls-8" transform="translate(34.04 219.36)">-4</text><text class="cls-8" transform="translate(14.79 219.36)">-5</text><line class="cls-6" x1="187.13" y1="229.54" x2="205.87" y2="229.54"/><polygon points="205.14 232.03 209.46 229.54 205.14 227.05 205.14 232.03"/><text class="cls-8" transform="translate(97.98 163.29)">1</text><line class="cls-9" x1="152.13" y1="162.55" x2="152.13" y2="209.35"/><path class="cls-5" d="M260.87,238.74a3.76,3.76,0,1,1,3.76,3.76A3.77,3.77,0,0,1,260.87,238.74Z" transform="translate(-112.5 -76)"/><line class="cls-6" x1="16.79" y1="209.35" x2="210.17" y2="209.35"/><line class="cls-10" x1="95.03" y1="209.31" x2="95.03" y2="209.74"/><path class="cls-5" d="M205.65,285.4a1.88,1.88,0,1,1,1.88,1.88A1.88,1.88,0,0,1,205.65,285.4Z" transform="translate(-112.5 -76)"/><line class="cls-10" x1="20.59" y1="209.31" x2="20.59" y2="209.74"/><path class="cls-5" d="M131.21,285.4a1.88,1.88,0,1,1,1.88,1.88A1.88,1.88,0,0,1,131.21,285.4Z" transform="translate(-112.5 -76)"/><line class="cls-10" x1="39.2" y1="209.31" x2="39.2" y2="209.74"/><path class="cls-5" d="M149.82,285.4a1.88,1.88,0,1,1,1.88,1.88A1.88,1.88,0,0,1,149.82,285.4Z" transform="translate(-112.5 -76)"/><line class="cls-10" x1="57.81" y1="209.31" x2="57.81" y2="209.74"/><path class="cls-5" d="M168.43,285.4a1.88,1.88,0,1,1,1.88,1.88A1.88,1.88,0,0,1,168.43,285.4Z" transform="translate(-112.5 -76)"/><line class="cls-10" x1="76.42" y1="209.31" x2="76.42" y2="209.74"/><path class="cls-5" d="M187,285.4a1.88,1.88,0,1,1,1.88,1.88A1.88,1.88,0,0,1,187,285.4Z" transform="translate(-112.5 -76)"/><line class="cls-10" x1="113.56" y1="209.31" x2="113.56" y2="209.74"/><path class="cls-5" d="M224.18,285.4a1.88,1.88,0,1,1,1.88,1.88A1.88,1.88,0,0,1,224.18,285.4Z" transform="translate(-112.5 -76)"/><line class="cls-10" x1="209.54" y1="209.31" x2="209.54" y2="209.74"/><path class="cls-5" d="M320.16,285.4a1.88,1.88,0,1,1,1.88,1.88A1.88,1.88,0,0,1,320.16,285.4Z" transform="translate(-112.5 -76)"/><line class="cls-10" x1="190.53" y1="209.31" x2="190.53" y2="209.74"/><path class="cls-5" d="M301.15,285.4a1.88,1.88,0,1,1,1.88,1.88A1.88,1.88,0,0,1,301.15,285.4Z" transform="translate(-112.5 -76)"/><line class="cls-10" x1="132.53" y1="209.31" x2="132.53" y2="209.74"/><path class="cls-5" d="M243.15,285.4a1.88,1.88,0,1,1,1.88,1.88A1.88,1.88,0,0,1,243.15,285.4Z" transform="translate(-112.5 -76)"/><line class="cls-10" x1="171.53" y1="209.31" x2="171.53" y2="209.74"/><path class="cls-5" d="M282.15,285.4a1.88,1.88,0,1,1,1.88,1.88A1.88,1.88,0,0,1,282.15,285.4Z" transform="translate(-112.5 -76)"/><rect class="cls-10" x="0.5" y="0.5" width="228" height="361.5"/><text class="cls-11" transform="translate(107.95 120.69)">+</text><text class="cls-11" transform="translate(107.95 239.69)">+</text><rect class="cls-10" x="688.5" y="0.5" width="228" height="361.5"/><text class="cls-11" transform="translate(795.95 163.69)">+</text><line class="cls-9" x1="898.13" y1="325.78" x2="898.13" y2="278.98"/><path class="cls-5" d="M1014.39,401.59a3.76,3.76,0,1,1-3.76-3.76A3.76,3.76,0,0,1,1014.39,401.59Z" transform="translate(-112.5 -76)"/><line class="cls-6" x1="801.24" y1="203.33" x2="801.24" y2="334.5"/><text class="cls-7" transform="translate(862.86 262.5)">n</text><text class="cls-7" transform="translate(760.5 211.75)">-u[n-4]</text><text class="cls-8" transform="translate(818.29 274.36)">1</text><text class="cls-8" transform="translate(837.54 274.36)">2</text><text class="cls-8" transform="translate(856.79 274.36)">3</text><text class="cls-8" transform="translate(876.03 274.36)">4</text><text class="cls-8" transform="translate(895.28 274.36)">5</text><text class="cls-8" transform="translate(779.79 289.36)">-1</text><text class="cls-8" transform="translate(760.54 289.36)">-2</text><text class="cls-8" transform="translate(741.29 289.36)">-3</text><text class="cls-8" transform="translate(722.04 289.36)">-4</text><text class="cls-8" transform="translate(702.79 289.36)">-5</text><line class="cls-6" x1="872.13" y1="259.54" x2="890.87" y2="259.54"/><polygon points="890.14 262.03 894.46 259.54 890.14 257.05 890.14 262.03"/><text class="cls-8" transform="translate(785.98 233.29)">1</text><line class="cls-9" x1="879.13" y1="325.78" x2="879.13" y2="278.98"/><path class="cls-5" d="M995.39,401.59a3.76,3.76,0,1,1-3.76-3.76A3.76,3.76,0,0,1,995.39,401.59Z" transform="translate(-112.5 -76)"/><line class="cls-6" x1="704.79" y1="279.35" x2="900" y2="279.35"/><line class="cls-10" x1="783.03" y1="279.31" x2="783.03" y2="279.74"/><path class="cls-5" d="M893.65,355.4a1.88,1.88,0,1,1,1.88,1.88A1.88,1.88,0,0,1,893.65,355.4Z" transform="translate(-112.5 -76)"/><line class="cls-10" x1="708.59" y1="279.31" x2="708.59" y2="279.74"/><path class="cls-5" d="M819.21,355.4a1.88,1.88,0,1,1,1.88,1.88A1.88,1.88,0,0,1,819.21,355.4Z" transform="translate(-112.5 -76)"/><line class="cls-10" x1="727.2" y1="279.31" x2="727.2" y2="279.74"/><path class="cls-5" d="M837.82,355.4a1.88,1.88,0,1,1,1.88,1.88A1.88,1.88,0,0,1,837.82,355.4Z" transform="translate(-112.5 -76)"/><line class="cls-10" x1="745.81" y1="279.31" x2="745.81" y2="279.74"/><path class="cls-5" d="M856.43,355.4a1.88,1.88,0,1,1,1.88,1.88A1.88,1.88,0,0,1,856.43,355.4Z" transform="translate(-112.5 -76)"/><line class="cls-10" x1="764.42" y1="279.31" x2="764.42" y2="279.74"/><path class="cls-5" d="M875,355.4a1.88,1.88,0,1,1,1.88,1.88A1.88,1.88,0,0,1,875,355.4Z" transform="translate(-112.5 -76)"/><line class="cls-10" x1="801.56" y1="279.31" x2="801.56" y2="279.74"/><path class="cls-5" d="M912.18,355.4a1.88,1.88,0,1,1,1.88,1.88A1.88,1.88,0,0,1,912.18,355.4Z" transform="translate(-112.5 -76)"/><line class="cls-10" x1="839.54" y1="279.31" x2="839.54" y2="279.74"/><path class="cls-5" d="M950.16,355.4a1.88,1.88,0,1,1,1.88,1.88A1.88,1.88,0,0,1,950.16,355.4Z" transform="translate(-112.5 -76)"/><line class="cls-10" x1="820.53" y1="279.31" x2="820.53" y2="279.74"/><path class="cls-5" d="M931.15,355.4a1.88,1.88,0,1,1,1.88,1.88A1.88,1.88,0,0,1,931.15,355.4Z" transform="translate(-112.5 -76)"/><line class="cls-10" x1="859.53" y1="279.31" x2="859.53" y2="279.74"/><path class="cls-5" d="M970.15,355.4a1.88,1.88,0,1,1,1.88,1.88A1.88,1.88,0,0,1,970.15,355.4Z" transform="translate(-112.5 -76)"/><text class="cls-8" transform="translate(785.98 329.29)">-1</text><line class="cls-6" x1="801.24" y1="28.33" x2="801.24" y2="104.58"/><text class="cls-7" transform="translate(865.86 127.5)">n</text><text class="cls-7" transform="translate(766.5 36.75)">u[n-1]</text><text class="cls-8" transform="translate(799.04 114.36)">0</text><text class="cls-8" transform="translate(818.29 114.36)">1</text><text class="cls-8" transform="translate(837.54 114.36)">2</text><text class="cls-8" transform="translate(856.79 114.36)">3</text><text class="cls-8" transform="translate(876.03 114.36)">4</text><text class="cls-8" transform="translate(895.28 114.36)">5</text><text class="cls-8" transform="translate(779.79 114.36)">-1</text><text class="cls-8" transform="translate(760.54 114.36)">-2</text><text class="cls-8" transform="translate(741.29 114.36)">-3</text><text class="cls-8" transform="translate(722.04 114.36)">-4</text><text class="cls-8" transform="translate(702.79 114.36)">-5</text><line class="cls-6" x1="875.13" y1="124.54" x2="893.87" y2="124.54"/><polygon points="893.14 127.03 897.46 124.54 893.14 122.05 893.14 127.03"/><text class="cls-8" transform="translate(785.98 58.29)">1</text><line class="cls-9" x1="820.13" y1="57.35" x2="820.13" y2="104.15"/><path class="cls-5" d="M928.87,133.54a3.76,3.76,0,1,1,3.76,3.76A3.77,3.77,0,0,1,928.87,133.54Z" transform="translate(-112.5 -76)"/><line class="cls-6" x1="704.79" y1="104.35" x2="898.17" y2="104.35"/><line class="cls-10" x1="783.03" y1="104.31" x2="783.03" y2="104.74"/><path class="cls-5" d="M893.65,180.4a1.88,1.88,0,1,1,1.88,1.88A1.88,1.88,0,0,1,893.65,180.4Z" transform="translate(-112.5 -76)"/><line class="cls-10" x1="708.59" y1="104.31" x2="708.59" y2="104.74"/><path class="cls-5" d="M819.21,180.4a1.88,1.88,0,1,1,1.88,1.88A1.88,1.88,0,0,1,819.21,180.4Z" transform="translate(-112.5 -76)"/><line class="cls-10" x1="727.2" y1="104.31" x2="727.2" y2="104.74"/><path class="cls-5" d="M837.82,180.4a1.88,1.88,0,1,1,1.88,1.88A1.88,1.88,0,0,1,837.82,180.4Z" transform="translate(-112.5 -76)"/><line class="cls-10" x1="745.81" y1="104.31" x2="745.81" y2="104.74"/><path class="cls-5" d="M856.43,180.4a1.88,1.88,0,1,1,1.88,1.88A1.88,1.88,0,0,1,856.43,180.4Z" transform="translate(-112.5 -76)"/><line class="cls-10" x1="764.42" y1="104.31" x2="764.42" y2="104.74"/><path class="cls-5" d="M875,180.4a1.88,1.88,0,1,1,1.88,1.88A1.88,1.88,0,0,1,875,180.4Z" transform="translate(-112.5 -76)"/><line class="cls-10" x1="801.56" y1="104.31" x2="801.56" y2="104.74"/><path class="cls-5" d="M912.18,180.4a1.88,1.88,0,1,1,1.88,1.88A1.88,1.88,0,0,1,912.18,180.4Z" transform="translate(-112.5 -76)"/><line class="cls-9" x1="839.38" y1="57.35" x2="839.38" y2="104.15"/><path class="cls-5" d="M948.12,133.54a3.76,3.76,0,1,1,3.76,3.76A3.77,3.77,0,0,1,948.12,133.54Z" transform="translate(-112.5 -76)"/><line class="cls-9" x1="858.63" y1="57.35" x2="858.63" y2="104.15"/><path class="cls-5" d="M967.37,133.54a3.76,3.76,0,1,1,3.76,3.76A3.77,3.77,0,0,1,967.37,133.54Z" transform="translate(-112.5 -76)"/><line class="cls-9" x1="877.88" y1="57.35" x2="877.88" y2="104.15"/><path class="cls-5" d="M986.62,133.54a3.76,3.76,0,1,1,3.76,3.76A3.77,3.77,0,0,1,986.62,133.54Z" transform="translate(-112.5 -76)"/><line class="cls-9" x1="897.13" y1="57.35" x2="897.13" y2="104.15"/><path class="cls-5" d="M1005.87,133.54a3.76,3.76,0,1,1,3.76,3.76A3.77,3.77,0,0,1,1005.87,133.54Z" transform="translate(-112.5 -76)"/></svg>