<svg id="Layer_1" data-name="Layer 1" xmlns="http://www.w3.org/2000/svg" viewBox="0 0 422.64 222.37"><defs><style>.cls-1,.cls-4{fill:none;stroke-miterlimit:10;}.cls-1{stroke:#000;stroke-width:2px;}.cls-2{font-size:26px;}.cls-2,.cls-3{font-family:TimesNewRomanPSMT, Times New Roman;}.cls-3{font-size:20px;}.cls-4{stroke:blue;stroke-width:3px;}.cls-5{fill:blue;}</style></defs><title>delta_pulse_shifted</title><line class="cls-1" x1="207.21" y1="3.87" x2="207.21" y2="164.37"/><text class="cls-2" transform="translate(343.21 212.61)">n</text><text class="cls-2" transform="translate(124.71 21.61)">δ[n+3]</text><text class="cls-3" transform="translate(202.57 184.94)">0</text><text class="cls-3" transform="translate(243.09 184.94)">1</text><text class="cls-3" transform="translate(282.6 184.94)">2</text><text class="cls-3" transform="translate(322.11 184.94)">3</text><text class="cls-3" transform="translate(361.63 184.94)">4</text><text class="cls-3" transform="translate(401.14 184.94)">5</text><text class="cls-3" transform="translate(162.06 184.94)">-1</text><text class="cls-3" transform="translate(121.54 184.94)">-2</text><text class="cls-3" transform="translate(81.03 184.94)">-3</text><text class="cls-3" transform="translate(40.51 184.94)">-4</text><text class="cls-3" transform="translate(0 184.94)">-5</text><line class="cls-1" x1="362.71" y1="206.37" x2="402.54" y2="206.37"/><polygon points="401.08 211.36 409.71 206.37 401.08 201.39 401.08 211.36"/><text class="cls-3" transform="translate(175.09 66.94)">1</text><line class="cls-4" x1="92.21" y1="63.73" x2="92.21" y2="164.37"/><path class="cls-5" d="M456.86,287.64a5.64,5.64,0,1,1,5.64,5.64A5.65,5.65,0,0,1,456.86,287.64Z" transform="translate(-370.29 -223.63)"/><line class="cls-1" x1="4.21" y1="163.87" x2="409.71" y2="163.87"/><circle class="cls-5" cx="537.9" cy="387.84" r="5.64" transform="translate(-486.98 270.32) rotate(-45)"/><circle class="cls-5" cx="379.5" cy="387.84" r="5.64" transform="translate(-494.33 366.4) rotate(-67.5)"/><circle class="cls-5" cx="419.1" cy="387.84" r="5.64" transform="translate(-469.89 402.99) rotate(-67.5)"/><circle class="cls-5" cx="577.7" cy="387.84" r="5.64" transform="translate(-426.22 451.73) rotate(-58.28)"/><circle class="cls-5" cx="498.3" cy="387.84" r="5.64" transform="translate(-499.76 96.27) rotate(-31.72)"/><circle class="cls-5" cx="775.5" cy="387.84" r="5.64" transform="translate(-249.87 732.26) rotate(-67.5)"/><circle class="cls-5" cx="617.1" cy="387.84" r="5.64" transform="translate(-442.89 -71.47) rotate(-13.28)"/><circle class="cls-5" cx="656.7" cy="387.84" r="5.64" transform="translate(-323.21 622.5) rotate(-67.5)"/><circle class="cls-5" cx="696.3" cy="387.84" r="5.64" transform="translate(-298.77 659.09) rotate(-67.5)"/><circle class="cls-5" cx="735.9" cy="387.84" r="5.64" transform="translate(-428.99 410.33) rotate(-45)"/></svg>