<svg id="Layer_1" data-name="Layer 1" xmlns="http://www.w3.org/2000/svg" viewBox="0 0 426.64 222.37"><defs><style>.cls-1,.cls-4{fill:none;stroke-miterlimit:10;}.cls-1{stroke:#000;stroke-width:2px;}.cls-2{font-size:26px;}.cls-2,.cls-3{font-family:TimesNewRomanPSMT, Times New Roman;}.cls-3{font-size:20px;}.cls-4{stroke:blue;stroke-width:3px;}.cls-5{fill:blue;}</style></defs><title>pulse_train</title><line class="cls-1" x1="207.21" y1="3.87" x2="207.21" y2="164.37"/><text class="cls-2" transform="translate(343.21 212.61)">n</text><text class="cls-2" transform="translate(116.71 21.61)">δ[n-2k]</text><text class="cls-3" transform="translate(202.57 184.94)">0</text><text class="cls-3" transform="translate(243.09 184.94)">1</text><text class="cls-3" transform="translate(283.6 184.94)">2</text><text class="cls-3" transform="translate(324.11 184.94)">3</text><text class="cls-3" transform="translate(364.63 184.94)">4</text><text class="cls-3" transform="translate(405.14 184.94)">5</text><text class="cls-3" transform="translate(162.06 184.94)">-1</text><text class="cls-3" transform="translate(121.54 184.94)">-2</text><text class="cls-3" transform="translate(81.03 184.94)">-3</text><text class="cls-3" transform="translate(40.51 184.94)">-4</text><text class="cls-3" transform="translate(0 184.94)">-5</text><line class="cls-1" x1="362.71" y1="206.37" x2="402.54" y2="206.37"/><polygon points="401.08 211.36 409.71 206.37 401.08 201.39 401.08 211.36"/><text class="cls-3" transform="translate(175.09 66.94)">1</text><line class="cls-4" x1="286.04" y1="63.43" x2="286.04" y2="164.07"/><circle class="cls-5" cx="656.33" cy="287.34" r="5.64" transform="translate(-230.59 560.12) rotate(-67.5)"/><line class="cls-4" x1="50.21" y1="63.43" x2="50.21" y2="164.07"/><circle class="cls-5" cx="420.5" cy="287.34" r="5.64" transform="translate(-376.17 342.24) rotate(-67.5)"/><line class="cls-4" x1="128.82" y1="63.43" x2="128.82" y2="164.07"/><circle class="cls-5" cx="499.11" cy="287.34" r="5.64" transform="translate(-446.81 81.68) rotate(-31.72)"/><line class="cls-4" x1="364.65" y1="63.43" x2="364.65" y2="164.07"/><circle class="cls-5" cx="734.94" cy="287.34" r="5.64" transform="translate(-182.06 632.75) rotate(-67.5)"/><line class="cls-4" x1="207.43" y1="63.43" x2="207.43" y2="164.07"/><circle class="cls-5" cx="577.72" cy="287.34" r="5.64" transform="translate(-420.85 -83.21) rotate(-13.28)"/><line class="cls-1" x1="4.21" y1="163.87" x2="411.21" y2="163.87"/><path class="cls-5" d="M535.86,387.2a5.64,5.64,0,1,1,5.64,5.64A5.64,5.64,0,0,1,535.86,387.2Z" transform="translate(-370.29 -223.63)"/><path class="cls-5" d="M376.86,387.2a5.64,5.64,0,1,1,5.64,5.64A5.64,5.64,0,0,1,376.86,387.2Z" transform="translate(-370.29 -223.63)"/><path class="cls-5" d="M615.36,387.2a5.64,5.64,0,1,1,5.64,5.64A5.64,5.64,0,0,1,615.36,387.2Z" transform="translate(-370.29 -223.63)"/><path class="cls-5" d="M456.36,387.2a5.64,5.64,0,1,1,5.64,5.64A5.64,5.64,0,0,1,456.36,387.2Z" transform="translate(-370.29 -223.63)"/><path class="cls-5" d="M694.86,387.2a5.64,5.64,0,1,1,5.64,5.64A5.64,5.64,0,0,1,694.86,387.2Z" transform="translate(-370.29 -223.63)"/><path class="cls-5" d="M774.36,387.2a5.64,5.64,0,1,1,5.64,5.64A5.64,5.64,0,0,1,774.36,387.2Z" transform="translate(-370.29 -223.63)"/></svg>