<svg id="Layer_1" data-name="Layer 1" xmlns="http://www.w3.org/2000/svg" viewBox="0 0 426.64 222.37"><defs><style>.cls-1,.cls-4{fill:none;stroke-miterlimit:10;}.cls-1{stroke:#000;stroke-width:2px;}.cls-2{font-size:26px;}.cls-2,.cls-3{font-family:TimesNewRomanPSMT, Times New Roman;}.cls-3{font-size:20px;}.cls-4{stroke:blue;stroke-width:3px;}.cls-5{fill:blue;}</style></defs><title>unit_step_shifted</title><line class="cls-1" x1="207.21" y1="3.87" x2="207.21" y2="164.37"/><text class="cls-2" transform="translate(343.21 212.61)">n</text><text class="cls-2" transform="translate(132.71 21.61)">u[n-2]</text><text class="cls-3" transform="translate(202.57 184.94)">0</text><text class="cls-3" transform="translate(243.09 184.94)">1</text><text class="cls-3" transform="translate(283.6 184.94)">2</text><text class="cls-3" transform="translate(324.11 184.94)">3</text><text class="cls-3" transform="translate(364.63 184.94)">4</text><text class="cls-3" transform="translate(405.14 184.94)">5</text><text class="cls-3" transform="translate(162.06 184.94)">-1</text><text class="cls-3" transform="translate(121.54 184.94)">-2</text><text class="cls-3" transform="translate(81.03 184.94)">-3</text><text class="cls-3" transform="translate(40.51 184.94)">-4</text><text class="cls-3" transform="translate(0 184.94)">-5</text><line class="cls-1" x1="362.71" y1="206.37" x2="402.54" y2="206.37"/><polygon points="401.08 211.36 409.71 206.37 401.08 201.39 401.08 211.36"/><text class="cls-3" transform="translate(175.09 66.94)">1</text><line class="cls-4" x1="286.41" y1="62.9" x2="286.41" y2="163.54"/><path class="cls-5" d="M651.06,286.81a5.64,5.64,0,1,1,5.64,5.64A5.64,5.64,0,0,1,651.06,286.81Z" transform="translate(-370.29 -223.63)"/><line class="cls-4" x1="326.01" y1="62.9" x2="326.01" y2="163.54"/><path class="cls-5" d="M690.66,286.81a5.64,5.64,0,1,1,5.64,5.64A5.64,5.64,0,0,1,690.66,286.81Z" transform="translate(-370.29 -223.63)"/><line class="cls-4" x1="405.21" y1="62.9" x2="405.21" y2="163.54"/><path class="cls-5" d="M769.86,286.81a5.64,5.64,0,1,1,5.64,5.64A5.64,5.64,0,0,1,769.86,286.81Z" transform="translate(-370.29 -223.63)"/><line class="cls-4" x1="365.61" y1="62.9" x2="365.61" y2="163.54"/><path class="cls-5" d="M730.26,286.81a5.64,5.64,0,1,1,5.64,5.64A5.64,5.64,0,0,1,730.26,286.81Z" transform="translate(-370.29 -223.63)"/><line class="cls-1" x1="4.21" y1="163.87" x2="411.21" y2="163.87"/><path class="cls-5" d="M533.53,387.2a5.64,5.64,0,1,1,5.64,5.64A5.63,5.63,0,0,1,533.53,387.2Z" transform="translate(-370.29 -223.63)"/><path class="cls-5" d="M376.86,387.2a5.64,5.64,0,1,1,5.64,5.64A5.64,5.64,0,0,1,376.86,387.2Z" transform="translate(-370.29 -223.63)"/><path class="cls-5" d="M416,387.2a5.64,5.64,0,1,1,5.64,5.64A5.63,5.63,0,0,1,416,387.2Z" transform="translate(-370.29 -223.63)"/><path class="cls-5" d="M455.19,387.2a5.64,5.64,0,1,1,5.64,5.64A5.64,5.64,0,0,1,455.19,387.2Z" transform="translate(-370.29 -223.63)"/><path class="cls-5" d="M494.36,387.2a5.64,5.64,0,1,1,5.64,5.64A5.64,5.64,0,0,1,494.36,387.2Z" transform="translate(-370.29 -223.63)"/><path class="cls-5" d="M611.86,387.2a5.64,5.64,0,1,1,5.64,5.64A5.64,5.64,0,0,1,611.86,387.2Z" transform="translate(-370.29 -223.63)"/><path class="cls-5" d="M572.69,387.2a5.64,5.64,0,1,1,5.64,5.64A5.64,5.64,0,0,1,572.69,387.2Z" transform="translate(-370.29 -223.63)"/></svg>